0, 0, Header, 0, 1, 384
1, 0, Start_track
1, 0, Title_t, "Flight of Bumblebee--J. Kociuban"
1, 0, Text_t, "2008 e-Piano Junior Competition recital round"
1, 0, Text_t, "recorded July 2008"
1, 0, Text_t, "http://www.piano-e-competition.com/"
1, 0, Text_t, "File processed for distribution by software from Zenph Studios, Inc., http://www.zenph.com"
1, 0, Instrument_name_t, "Yamaha Disklavier Pro Mark IV concert grand piano, model DCFIIISM4PRO"
1, 0, Sequencer_specific, 39, 67, 113, 0, 1, 0, 1, 0, 70, 108, 105, 103, 104, 116, 32, 66, 117, 109, 98, 108, 101, 98, 101, 101, 74, 117, 108, 105, 97, 32, 75, 111, 99, 105, 117, 98, 97, 110, 32, 32
1, 0, Sequencer_specific, 6, 67, 113, 0, 0, 0, 69
1, 0, System_exclusive, 21, 67, 113, 126, 21, 0, 2, 2, 0, 3, 14, 1, 4, 1, 13, 13, 10, 11, 9, 2, 7, 247
1, 0, Sequencer_specific, 5, 67, 123, 12, 2, 1
1, 0, Tempo, 512820
1, 0, Time_signature, 4, 2, 24, 8
1, 0, System_exclusive, 5, 126, 127, 9, 1, 247
1, 1, System_exclusive, 8, 67, 16, 76, 0, 0, 126, 0, 247
1, 2, System_exclusive, 8, 67, 16, 76, 8, 9, 7, 1, 247
1, 3, Control_c, 0, 0, 0
1, 3, Control_c, 1, 0, 0
1, 3, Control_c, 2, 0, 0
1, 3, Control_c, 3, 0, 0
1, 3, Control_c, 4, 0, 0
1, 3, Control_c, 5, 0, 0
1, 3, Control_c, 6, 0, 0
1, 3, Control_c, 7, 0, 0
1, 3, Control_c, 8, 0, 0
1, 3, Control_c, 9, 0, 127
1, 3, Control_c, 10, 0, 0
1, 3, Control_c, 11, 0, 0
1, 3, Control_c, 12, 0, 0
1, 3, Control_c, 13, 0, 0
1, 3, Control_c, 14, 0, 0
1, 3, Control_c, 15, 0, 0
1, 4, Control_c, 0, 32, 0
1, 4, Control_c, 1, 32, 0
1, 4, Control_c, 2, 32, 0
1, 4, Control_c, 3, 32, 0
1, 4, Control_c, 4, 32, 0
1, 4, Control_c, 5, 32, 0
1, 4, Control_c, 6, 32, 0
1, 4, Control_c, 7, 32, 0
1, 4, Control_c, 8, 32, 0
1, 4, Control_c, 9, 32, 0
1, 4, Control_c, 10, 32, 0
1, 4, Control_c, 11, 32, 0
1, 4, Control_c, 12, 32, 0
1, 4, Control_c, 13, 32, 0
1, 4, Control_c, 14, 32, 0
1, 4, Control_c, 15, 32, 0
1, 5, Program_c, 0, 0
1, 5, Program_c, 1, 0
1, 5, Program_c, 2, 0
1, 5, Program_c, 3, 0
1, 5, Program_c, 4, 0
1, 5, Program_c, 5, 0
1, 5, Program_c, 6, 0
1, 5, Program_c, 7, 0
1, 5, Program_c, 8, 0
1, 5, Program_c, 9, 0
1, 5, Program_c, 10, 0
1, 5, Program_c, 11, 0
1, 5, Program_c, 12, 0
1, 5, Program_c, 13, 0
1, 5, Program_c, 14, 0
1, 5, Program_c, 15, 0
1, 6, Control_c, 0, 7, 100
1, 6, Control_c, 1, 7, 100
1, 6, Control_c, 2, 7, 100
1, 6, Control_c, 3, 7, 100
1, 6, Control_c, 4, 7, 100
1, 6, Control_c, 5, 7, 100
1, 6, Control_c, 6, 7, 100
1, 6, Control_c, 7, 7, 100
1, 6, Control_c, 8, 7, 100
1, 6, Control_c, 9, 7, 100
1, 6, Control_c, 10, 7, 100
1, 6, Control_c, 11, 7, 100
1, 6, Control_c, 12, 7, 100
1, 6, Control_c, 13, 7, 100
1, 6, Control_c, 14, 7, 100
1, 6, Control_c, 15, 7, 100
1, 1129, Note_on_c, 0, 88, 82
1, 1129, Note_on_c, 0, 89, 86
1, 1146, Note_off_c, 0, 89, 73
1, 1153, Note_off_c, 0, 88, 66
1, 1197, Note_on_c, 0, 88, 33
1, 1222, Note_off_c, 0, 88, 0
1, 1233, Note_on_c, 0, 86, 76
1, 1241, Note_on_c, 0, 88, 46
1, 1255, Note_off_c, 0, 86, 59
1, 1263, Note_off_c, 0, 88, 61
1, 1317, Note_on_c, 0, 85, 62
1, 1334, Note_off_c, 0, 85, 67
1, 1371, Note_on_c, 0, 86, 83
1, 1428, Note_off_c, 0, 86, 62
1, 1432, Note_on_c, 0, 85, 74
1, 1485, Note_off_c, 0, 85, 68
1, 1496, Note_on_c, 0, 84, 79
1, 1537, Note_off_c, 0, 84, 63
1, 1555, Note_on_c, 0, 83, 71
1, 1588, Note_off_c, 0, 83, 49
1, 1598, Note_on_c, 0, 84, 77
1, 1635, Note_off_c, 0, 84, 66
1, 1667, Note_on_c, 0, 83, 63
1, 1688, Note_off_c, 0, 83, 57
1, 1710, Note_on_c, 0, 82, 77
1, 1743, Note_off_c, 0, 82, 56
1, 1771, Note_on_c, 0, 81, 84
1, 1790, Note_off_c, 0, 81, 71
1, 1823, Note_on_c, 0, 80, 80
1, 1828, Control_c, 0, 64, 24
1, 1842, Control_c, 0, 64, 57
1, 1857, Control_c, 0, 64, 62
1, 1861, Note_off_c, 0, 80, 53
1, 1873, Note_on_c, 0, 79, 74
1, 1901, Control_c, 0, 64, 63
1, 1910, Note_off_c, 0, 79, 55
1, 1916, Note_on_c, 0, 78, 85
1, 1916, Control_c, 0, 64, 65
1, 1931, Control_c, 0, 64, 68
1, 1946, Control_c, 0, 64, 71
1, 1947, Note_off_c, 0, 78, 66
1, 1960, Note_on_c, 0, 77, 84
1, 1961, Control_c, 0, 64, 74
1, 1976, Control_c, 0, 64, 75
1, 1984, Note_off_c, 0, 77, 63
1, 1991, Control_c, 0, 64, 76
1, 2021, Control_c, 0, 64, 73
1, 2027, Note_on_c, 0, 76, 102
1, 2035, Control_c, 0, 64, 64
1, 2050, Control_c, 0, 64, 0
1, 2051, Note_off_c, 0, 76, 75
1, 2077, Note_on_c, 0, 75, 83
1, 2110, Note_off_c, 0, 75, 65
1, 2126, Note_on_c, 0, 74, 73
1, 2169, Note_off_c, 0, 74, 54
1, 2184, Note_on_c, 0, 73, 83
1, 2239, Note_off_c, 0, 73, 62
1, 2245, Note_on_c, 0, 74, 73
1, 2302, Note_on_c, 0, 73, 71
1, 2312, Note_off_c, 0, 74, 66
1, 2336, Note_off_c, 0, 73, 67
1, 2357, Note_on_c, 0, 72, 80
1, 2400, Note_off_c, 0, 72, 61
1, 2411, Note_on_c, 0, 71, 70
1, 2437, Note_off_c, 0, 71, 62
1, 2462, Note_on_c, 0, 72, 75
1, 2497, Note_off_c, 0, 72, 64
1, 2521, Note_on_c, 0, 71, 79
1, 2554, Note_off_c, 0, 71, 51
1, 2590, Note_on_c, 0, 70, 53
1, 2613, Note_off_c, 0, 70, 38
1, 2652, Note_on_c, 0, 67, 56
1, 2652, Note_on_c, 0, 69, 37
1, 2672, Note_off_c, 0, 69, 53
1, 2673, Note_off_c, 0, 67, 58
1, 2687, Note_on_c, 0, 68, 80
1, 2697, Control_c, 0, 64, 21
1, 2711, Control_c, 0, 64, 65
1, 2716, Note_off_c, 0, 68, 63
1, 2726, Control_c, 0, 64, 72
1, 2741, Control_c, 0, 64, 78
1, 2746, Note_on_c, 0, 67, 74
1, 2756, Control_c, 0, 64, 81
1, 2771, Control_c, 0, 64, 81
1, 2786, Note_off_c, 0, 67, 62
1, 2791, Note_on_c, 0, 66, 78
1, 2846, Note_off_c, 0, 66, 65
1, 2874, Control_c, 0, 64, 81
1, 2884, Note_on_c, 0, 64, 95
1, 2889, Control_c, 0, 64, 78
1, 2904, Control_c, 0, 64, 70
1, 2914, Note_off_c, 0, 64, 71
1, 2918, Poly_aftertouch_c, 0, 65, 0
1, 2918, Control_c, 0, 64, 0
1, 2935, Note_on_c, 0, 63, 86
1, 2988, Note_off_c, 0, 63, 62
1, 2995, Note_on_c, 0, 62, 73
1, 3032, Note_off_c, 0, 62, 60
1, 3059, Note_on_c, 0, 61, 77
1, 3118, Note_off_c, 0, 61, 63
1, 3128, Note_on_c, 0, 62, 57
1, 3174, Note_on_c, 0, 61, 63
1, 3186, Note_off_c, 0, 62, 61
1, 3208, Note_off_c, 0, 61, 66
1, 3222, Note_on_c, 0, 60, 70
1, 3261, Note_off_c, 0, 60, 62
1, 3283, Note_on_c, 0, 59, 59
1, 3307, Note_off_c, 0, 59, 64
1, 3332, Note_on_c, 0, 64, 72
1, 3351, Note_off_c, 0, 64, 69
1, 3388, Note_on_c, 0, 63, 81
1, 3430, Note_off_c, 0, 63, 62
1, 3458, Note_on_c, 0, 62, 60
1, 3489, Note_off_c, 0, 62, 64
1, 3517, Note_on_c, 0, 61, 54
1, 3539, Note_off_c, 0, 61, 55
1, 3552, Note_on_c, 0, 62, 75
1, 3615, Note_on_c, 0, 61, 68
1, 3615, Note_off_c, 0, 62, 61
1, 3643, Note_off_c, 0, 61, 65
1, 3654, Note_on_c, 0, 60, 64
1, 3689, Note_off_c, 0, 60, 59
1, 3701, Note_on_c, 0, 59, 53
1, 3722, Note_off_c, 0, 59, 61
1, 3779, Note_on_c, 0, 64, 61
1, 3800, Note_off_c, 0, 64, 39
1, 3817, Note_on_c, 0, 63, 68
1, 3852, Note_off_c, 0, 63, 65
1, 3892, Note_on_c, 0, 62, 43
1, 3919, Note_off_c, 0, 62, 51
1, 3952, Note_on_c, 0, 61, 56
1, 3985, Note_off_c, 0, 61, 64
1, 3987, Note_on_c, 0, 62, 71
1, 4041, Note_off_c, 0, 62, 60
1, 4059, Note_on_c, 0, 61, 52
1, 4082, Note_off_c, 0, 61, 55
1, 4095, Note_on_c, 0, 60, 64
1, 4125, Note_off_c, 0, 60, 66
1, 4138, Note_on_c, 0, 59, 59
1, 4159, Note_off_c, 0, 59, 63
1, 4215, Note_on_c, 0, 64, 71
1, 4241, Note_off_c, 0, 64, 68
1, 4250, Note_on_c, 0, 63, 56
1, 4281, Note_off_c, 0, 63, 65
1, 4305, Note_on_c, 0, 62, 65
1, 4335, Note_off_c, 0, 62, 64
1, 4379, Note_on_c, 0, 61, 56
1, 4412, Note_off_c, 0, 61, 63
1, 4420, Note_on_c, 0, 62, 62
1, 4483, Note_off_c, 0, 62, 60
1, 4491, Note_on_c, 0, 61, 65
1, 4524, Note_off_c, 0, 61, 66
1, 4549, Note_on_c, 0, 60, 58
1, 4555, Control_c, 0, 67, 8
1, 4581, Note_off_c, 0, 60, 65
1, 4590, Note_on_c, 0, 45, 50
1, 4602, Note_on_c, 0, 59, 35
1, 4615, Control_c, 0, 67, 9
1, 4622, Note_off_c, 0, 45, 63
1, 4622, Note_on_c, 0, 52, 57
1, 4629, Control_c, 0, 67, 10
1, 4633, Note_off_c, 0, 59, 48
1, 4644, Control_c, 0, 67, 13
1, 4659, Control_c, 0, 67, 17
1, 4661, Note_on_c, 0, 64, 59
1, 4664, Note_on_c, 0, 60, 83
1, 4674, Control_c, 0, 64, 47
1, 4674, Control_c, 0, 67, 21
1, 4676, Note_off_c, 0, 52, 62
1, 4685, Note_off_c, 0, 60, 68
1, 4688, Control_c, 0, 64, 60
1, 4688, Control_c, 0, 67, 22
1, 4702, Note_off_c, 0, 64, 42
1, 4703, Control_c, 0, 64, 63
1, 4703, Control_c, 0, 67, 22
1, 4718, Control_c, 0, 64, 64
1, 4718, Control_c, 0, 67, 21
1, 4723, Note_on_c, 0, 63, 63
1, 4733, Control_c, 0, 67, 21
1, 4748, Control_c, 0, 64, 64
1, 4750, Note_off_c, 0, 63, 65
1, 4763, Control_c, 0, 64, 63
1, 4766, Note_on_c, 0, 62, 65
1, 4777, Control_c, 0, 64, 61
1, 4777, Control_c, 0, 67, 20
1, 4792, Control_c, 0, 64, 57
1, 4792, Control_c, 0, 67, 20
1, 4795, Note_off_c, 0, 62, 64
1, 4807, Control_c, 0, 64, 50
1, 4807, Control_c, 0, 67, 19
1, 4822, Control_c, 0, 64, 25
1, 4822, Control_c, 0, 67, 19
1, 4833, Note_on_c, 0, 61, 67
1, 4837, Control_c, 0, 64, 0
1, 4837, Control_c, 0, 67, 18
1, 4870, Note_off_c, 0, 61, 65
1, 4882, Control_c, 0, 67, 18
1, 4903, Note_on_c, 0, 60, 55
1, 4911, Control_c, 0, 67, 17
1, 4925, Note_off_c, 0, 60, 56
1, 4953, Note_on_c, 0, 65, 40
1, 4985, Note_on_c, 0, 64, 50
1, 4986, Note_off_c, 0, 65, 54
1, 5037, Note_on_c, 0, 45, 47
1, 5050, Note_off_c, 0, 64, 64
1, 5055, Note_on_c, 0, 52, 59
1, 5060, Control_c, 0, 67, 17
1, 5064, Note_on_c, 0, 63, 64
1, 5073, Note_off_c, 0, 45, 65
1, 5092, Note_off_c, 0, 63, 67
1, 5097, Note_off_c, 0, 52, 64
1, 5104, Control_c, 0, 67, 17
1, 5106, Note_on_c, 0, 60, 79
1, 5114, Note_on_c, 0, 64, 68
1, 5132, Note_off_c, 0, 60, 63
1, 5144, Note_off_c, 0, 64, 65
1, 5180, Note_on_c, 0, 63, 66
1, 5194, Control_c, 0, 67, 18
1, 5213, Note_off_c, 0, 63, 66
1, 5224, Control_c, 0, 67, 17
1, 5226, Note_on_c, 0, 62, 62
1, 5239, Control_c, 0, 67, 16
1, 5260, Control_c, 0, 67, 16
1, 5264, Note_off_c, 0, 62, 64
1, 5275, Control_c, 0, 67, 15
1, 5299, Note_on_c, 0, 61, 69
1, 5320, Control_c, 0, 67, 16
1, 5328, Note_off_c, 0, 61, 64
1, 5329, Note_on_c, 0, 57, 74
1, 5335, Control_c, 0, 67, 16
1, 5344, Note_on_c, 0, 54, 60
1, 5350, Control_c, 0, 67, 17
1, 5353, Note_on_c, 0, 60, 69
1, 5356, Note_off_c, 0, 57, 64
1, 5365, Control_c, 0, 67, 17
1, 5367, Note_off_c, 0, 54, 38
1, 5382, Note_off_c, 0, 60, 63
1, 5394, Control_c, 0, 67, 17
1, 5412, Note_on_c, 0, 61, 66
1, 5424, Control_c, 0, 67, 16
1, 5443, Note_off_c, 0, 61, 65
1, 5454, Control_c, 0, 67, 16
1, 5468, Control_c, 0, 67, 15
1, 5486, Note_on_c, 0, 62, 44
1, 5498, Control_c, 0, 67, 15
1, 5500, Note_on_c, 0, 45, 51
1, 5503, Note_on_c, 0, 63, 64
1, 5516, Note_off_c, 0, 62, 48
1, 5520, Note_on_c, 0, 52, 69
1, 5527, Control_c, 0, 67, 14
1, 5542, Control_c, 0, 67, 13
1, 5546, Note_off_c, 0, 45, 64
1, 5553, Note_off_c, 0, 63, 61
1, 5557, Control_c, 0, 67, 13
1, 5574, Note_on_c, 0, 64, 54
1, 5579, Note_on_c, 0, 60, 87
1, 5601, Note_off_c, 0, 60, 66
1, 5607, Note_off_c, 0, 52, 62
1, 5615, Note_off_c, 0, 64, 53
1, 5637, Note_on_c, 0, 63, 47
1, 5645, Control_c, 0, 67, 13
1, 5660, Control_c, 0, 67, 14
1, 5663, Note_off_c, 0, 63, 52
1, 5664, Note_on_c, 0, 62, 71
1, 5696, Note_off_c, 0, 62, 64
1, 5732, Note_on_c, 0, 61, 65
1, 5750, Control_c, 0, 67, 13
1, 5765, Control_c, 0, 67, 13
1, 5766, Note_off_c, 0, 61, 64
1, 5780, Control_c, 0, 67, 12
1, 5792, Note_on_c, 0, 60, 68
1, 5795, Control_c, 0, 67, 11
1, 5809, Control_c, 0, 67, 10
1, 5819, Note_off_c, 0, 60, 66
1, 5824, Control_c, 0, 67, 8
1, 5839, Control_c, 0, 67, 0
1, 5844, Note_on_c, 0, 65, 61
1, 5883, Note_off_c, 0, 65, 64
1, 5893, Note_on_c, 0, 64, 67
1, 5919, Note_on_c, 0, 45, 51
1, 5940, Note_off_c, 0, 64, 63
1, 5950, Note_on_c, 0, 52, 42
1, 5958, Note_off_c, 0, 45, 65
1, 5963, Note_on_c, 0, 63, 62
1, 5996, Note_off_c, 0, 52, 58
1, 5998, Note_off_c, 0, 63, 64
1, 6013, Note_on_c, 0, 60, 78
1, 6020, Note_on_c, 0, 64, 64
1, 6047, Note_off_c, 0, 64, 67
1, 6052, Note_off_c, 0, 60, 58
1, 6087, Note_on_c, 0, 63, 58
1, 6110, Note_off_c, 0, 63, 62
1, 6119, Note_on_c, 0, 62, 64
1, 6149, Note_off_c, 0, 62, 64
1, 6187, Note_on_c, 0, 61, 66
1, 6217, Note_off_c, 0, 61, 64
1, 6235, Note_on_c, 0, 57, 67
1, 6238, Note_on_c, 0, 60, 73
1, 6243, Note_on_c, 0, 54, 59
1, 6265, Note_off_c, 0, 60, 62
1, 6267, Note_off_c, 0, 57, 59
1, 6272, Note_off_c, 0, 54, 64
1, 6292, Note_on_c, 0, 61, 70
1, 6325, Note_off_c, 0, 61, 64
1, 6366, Note_on_c, 0, 62, 64
1, 6399, Note_on_c, 0, 45, 57
1, 6399, Note_off_c, 0, 62, 63
1, 6423, Note_on_c, 0, 52, 75
1, 6425, Note_on_c, 0, 64, 49
1, 6447, Note_off_c, 0, 45, 66
1, 6456, Note_on_c, 0, 63, 70
1, 6467, Note_off_c, 0, 64, 65
1, 6473, Note_off_c, 0, 52, 64
1, 6480, Note_on_c, 0, 60, 83
1, 6483, Control_c, 0, 64, 40
1, 6494, Note_off_c, 0, 63, 63
1, 6498, Control_c, 0, 64, 52
1, 6513, Control_c, 0, 64, 56
1, 6520, Note_off_c, 0, 60, 60
1, 6522, Note_on_c, 0, 62, 61
1, 6529, Control_c, 0, 64, 59
1, 6557, Note_off_c, 0, 62, 56
1, 6558, Control_c, 0, 64, 57
1, 6573, Control_c, 0, 64, 51
1, 6588, Control_c, 0, 64, 28
1, 6603, Control_c, 0, 64, 0
1, 6679, Note_on_c, 0, 53, 67
1, 6683, Note_on_c, 0, 57, 75
1, 6687, Note_on_c, 0, 62, 35
1, 6708, Note_off_c, 0, 57, 67
1, 6713, Note_off_c, 0, 53, 68
1, 6730, Note_off_c, 0, 62, 46
1, 6759, Note_on_c, 0, 61, 52
1, 6802, Note_off_c, 0, 61, 64
1, 6811, Note_on_c, 0, 60, 56
1, 6832, Note_off_c, 0, 60, 62
1, 6850, Note_on_c, 0, 59, 60
1, 6887, Note_off_c, 0, 59, 58
1, 6903, Note_on_c, 0, 60, 73
1, 6906, Note_on_c, 0, 57, 79
1, 6913, Note_on_c, 0, 52, 70
1, 6936, Note_off_c, 0, 57, 67
1, 6941, Note_off_c, 0, 52, 68
1, 6942, Note_off_c, 0, 60, 58
1, 6960, Note_on_c, 0, 61, 75
1, 6995, Note_off_c, 0, 61, 66
1, 7024, Note_on_c, 0, 62, 71
1, 7070, Note_off_c, 0, 62, 53
1, 7088, Note_on_c, 0, 63, 73
1, 7134, Note_on_c, 0, 59, 82
1, 7137, Note_on_c, 0, 56, 74
1, 7144, Note_off_c, 0, 63, 63
1, 7149, Note_on_c, 0, 64, 74
1, 7160, Note_on_c, 0, 50, 34
1, 7162, Note_off_c, 0, 59, 60
1, 7165, Note_off_c, 0, 56, 67
1, 7192, Note_off_c, 0, 64, 63
1, 7197, Note_off_c, 0, 50, 40
1, 7202, Note_on_c, 0, 65, 65
1, 7258, Note_on_c, 0, 64, 63
1, 7266, Note_off_c, 0, 65, 65
1, 7305, Note_off_c, 0, 64, 65
1, 7314, Note_on_c, 0, 63, 73
1, 7354, Note_on_c, 0, 57, 84
1, 7355, Note_on_c, 0, 52, 75
1, 7362, Note_on_c, 0, 48, 70
1, 7367, Control_c, 0, 64, 25
1, 7370, Note_off_c, 0, 63, 61
1, 7376, Note_off_c, 0, 57, 69
1, 7377, Note_on_c, 0, 64, 57
1, 7381, Control_c, 0, 64, 50
1, 7383, Note_off_c, 0, 52, 70
1, 7395, Note_off_c, 0, 48, 68
1, 7396, Control_c, 0, 64, 51
1, 7411, Control_c, 0, 64, 50
1, 7413, Note_off_c, 0, 64, 65
1, 7425, Note_on_c, 0, 63, 68
1, 7426, Control_c, 0, 64, 49
1, 7441, Control_c, 0, 64, 45
1, 7455, Control_c, 0, 64, 31
1, 7465, Note_off_c, 0, 63, 64
1, 7470, Control_c, 0, 64, 0
1, 7485, Note_on_c, 0, 62, 58
1, 7538, Note_off_c, 0, 62, 58
1, 7556, Note_on_c, 0, 61, 62
1, 7586, Note_on_c, 0, 50, 74
1, 7591, Note_on_c, 0, 45, 64
1, 7592, Note_off_c, 0, 61, 62
1, 7596, Note_on_c, 0, 41, 66
1, 7611, Note_on_c, 0, 62, 64
1, 7615, Note_off_c, 0, 50, 66
1, 7618, Note_off_c, 0, 45, 67
1, 7631, Note_off_c, 0, 41, 65
1, 7670, Note_on_c, 0, 61, 67
1, 7675, Note_off_c, 0, 62, 61
1, 7719, Note_off_c, 0, 61, 63
1, 7731, Note_on_c, 0, 60, 70
1, 7769, Note_off_c, 0, 60, 61
1, 7786, Note_on_c, 0, 59, 64
1, 7817, Note_on_c, 0, 45, 61
1, 7821, Note_off_c, 0, 59, 58
1, 7823, Note_on_c, 0, 48, 77
1, 7839, Note_on_c, 0, 60, 67
1, 7852, Note_off_c, 0, 48, 67
1, 7855, Note_off_c, 0, 45, 65
1, 7873, Note_off_c, 0, 60, 62
1, 7880, Note_on_c, 0, 61, 63
1, 7909, Note_off_c, 0, 61, 65
1, 7936, Note_on_c, 0, 62, 74
1, 7969, Note_off_c, 0, 62, 59
1, 8003, Note_on_c, 0, 63, 63
1, 8030, Note_off_c, 0, 63, 66
1, 8033, Note_on_c, 0, 47, 78
1, 8048, Note_on_c, 0, 40, 44
1, 8056, Note_on_c, 0, 64, 74
1, 8060, Note_on_c, 0, 38, 41
1, 8065, Note_off_c, 0, 47, 65
1, 8079, Note_off_c, 0, 40, 53
1, 8094, Note_off_c, 0, 64, 62
1, 8096, Note_off_c, 0, 38, 44
1, 8112, Note_on_c, 0, 66, 71
1, 8157, Note_off_c, 0, 66, 66
1, 8170, Note_on_c, 0, 67, 74
1, 8178, Note_on_c, 0, 37, 64
1, 8213, Note_off_c, 0, 67, 56
1, 8215, Note_off_c, 0, 37, 68
1, 8227, Note_on_c, 0, 45, 68
1, 8228, Note_on_c, 0, 68, 82
1, 8268, Note_on_c, 0, 52, 92
1, 8274, Note_off_c, 0, 45, 61
1, 8284, Note_off_c, 0, 68, 64
1, 8300, Control_c, 0, 64, 64
1, 8302, Note_off_c, 0, 52, 68
1, 8307, Note_on_c, 0, 69, 70
1, 8315, Control_c, 0, 64, 67
1, 8329, Control_c, 0, 64, 69
1, 8344, Control_c, 0, 64, 70
1, 8352, Note_on_c, 0, 68, 53
1, 8359, Control_c, 0, 64, 72
1, 8372, Note_off_c, 0, 69, 63
1, 8395, Note_on_c, 0, 38, 63
1, 8397, Note_on_c, 0, 67, 62
1, 8403, Control_c, 0, 64, 71
1, 8418, Control_c, 0, 64, 70
1, 8433, Control_c, 0, 64, 67
1, 8438, Note_on_c, 0, 45, 48
1, 8444, Note_off_c, 0, 67, 63
1, 8444, Note_off_c, 0, 68, 63
1, 8448, Note_on_c, 0, 66, 67
1, 8448, Control_c, 0, 64, 61
1, 8450, Note_off_c, 0, 38, 63
1, 8462, Control_c, 0, 64, 0
1, 8477, Note_off_c, 0, 45, 63
1, 8495, Note_off_c, 0, 66, 66
1, 8496, Note_on_c, 0, 53, 85
1, 8502, Note_on_c, 0, 65, 72
1, 8529, Note_off_c, 0, 53, 62
1, 8536, Note_off_c, 0, 65, 62
1, 8552, Note_on_c, 0, 70, 71
1, 8612, Note_on_c, 0, 69, 68
1, 8614, Note_off_c, 0, 70, 54
1, 8646, Note_off_c, 0, 69, 66
1, 8659, Note_on_c, 0, 68, 65
1, 8705, Note_off_c, 0, 68, 63
1, 8718, Note_on_c, 0, 69, 71
1, 8742, Note_off_c, 0, 69, 71
1, 8784, Note_on_c, 0, 68, 68
1, 8811, Note_off_c, 0, 68, 68
1, 8825, Note_on_c, 0, 67, 69
1, 8855, Note_off_c, 0, 67, 59
1, 8891, Note_on_c, 0, 66, 70
1, 8922, Note_off_c, 0, 66, 65
1, 8929, Note_on_c, 0, 59, 75
1, 8930, Note_on_c, 0, 55, 66
1, 8942, Note_on_c, 0, 50, 50
1, 8945, Note_on_c, 0, 65, 81
1, 8954, Note_off_c, 0, 59, 66
1, 8957, Note_off_c, 0, 55, 67
1, 8966, Note_off_c, 0, 50, 57
1, 8982, Note_off_c, 0, 65, 61
1, 9011, Note_on_c, 0, 66, 73
1, 9056, Note_off_c, 0, 66, 64
1, 9079, Note_on_c, 0, 67, 59
1, 9102, Note_off_c, 0, 67, 61
1, 9108, Note_on_c, 0, 68, 68
1, 9160, Note_on_c, 0, 62, 78
1, 9161, Note_off_c, 0, 68, 63
1, 9162, Note_on_c, 0, 69, 74
1, 9162, Note_on_c, 0, 57, 65
1, 9165, Note_on_c, 0, 53, 68
1, 9186, Note_off_c, 0, 62, 67
1, 9195, Note_off_c, 0, 57, 66
1, 9198, Control_c, 0, 64, 49
1, 9204, Note_off_c, 0, 53, 66
1, 9213, Control_c, 0, 64, 63
1, 9226, Note_off_c, 0, 69, 61
1, 9227, Control_c, 0, 64, 65
1, 9228, Note_on_c, 0, 68, 68
1, 9242, Control_c, 0, 64, 65
1, 9257, Note_off_c, 0, 68, 68
1, 9257, Control_c, 0, 64, 66
1, 9287, Note_on_c, 0, 67, 54
1, 9301, Control_c, 0, 64, 65
1, 9310, Note_off_c, 0, 67, 56
1, 9316, Control_c, 0, 64, 63
1, 9331, Note_on_c, 0, 66, 73
1, 9331, Control_c, 0, 64, 61
1, 9346, Control_c, 0, 64, 58
1, 9360, Control_c, 0, 64, 53
1, 9370, Note_off_c, 0, 66, 67
1, 9375, Control_c, 0, 64, 0
1, 9402, Note_on_c, 0, 65, 65
1, 9431, Note_off_c, 0, 65, 68
1, 9435, Note_on_c, 0, 70, 66
1, 9488, Note_on_c, 0, 69, 71
1, 9497, Note_on_c, 0, 41, 61
1, 9502, Note_off_c, 0, 70, 57
1, 9526, Note_on_c, 0, 50, 59
1, 9535, Note_off_c, 0, 69, 66
1, 9547, Note_on_c, 0, 68, 67
1, 9557, Note_off_c, 0, 41, 65
1, 9595, Note_off_c, 0, 50, 61
1, 9595, Note_off_c, 0, 68, 61
1, 9598, Note_on_c, 0, 57, 78
1, 9600, Note_on_c, 0, 69, 76
1, 9605, Note_on_c, 0, 55, 61
1, 9629, Note_off_c, 0, 55, 65
1, 9629, Note_off_c, 0, 57, 63
1, 9629, Note_off_c, 0, 69, 65
1, 9666, Note_on_c, 0, 68, 65
1, 9699, Note_off_c, 0, 68, 66
1, 9713, Note_on_c, 0, 67, 67
1, 9741, Note_off_c, 0, 67, 67
1, 9779, Note_on_c, 0, 66, 74
1, 9818, Note_off_c, 0, 66, 60
1, 9824, Note_on_c, 0, 55, 60
1, 9831, Note_on_c, 0, 59, 79
1, 9841, Note_on_c, 0, 65, 77
1, 9845, Note_on_c, 0, 50, 50
1, 9856, Note_off_c, 0, 59, 67
1, 9862, Note_off_c, 0, 55, 66
1, 9870, Note_off_c, 0, 50, 56
1, 9874, Note_off_c, 0, 65, 59
1, 9899, Note_on_c, 0, 66, 68
1, 9934, Note_off_c, 0, 66, 65
1, 9956, Note_on_c, 0, 67, 69
1, 9998, Note_off_c, 0, 67, 59
1, 10005, Note_on_c, 0, 68, 70
1, 10053, Note_on_c, 0, 62, 84
1, 10057, Note_off_c, 0, 68, 63
1, 10057, Note_on_c, 0, 57, 69
1, 10058, Note_on_c, 0, 53, 71
1, 10063, Note_on_c, 0, 69, 77
1, 10081, Note_off_c, 0, 62, 65
1, 10086, Note_off_c, 0, 57, 65
1, 10097, Note_off_c, 0, 53, 64
1, 10118, Note_off_c, 0, 69, 59
1, 10123, Note_on_c, 0, 68, 74
1, 10159, Note_off_c, 0, 68, 62
1, 10187, Note_on_c, 0, 67, 57
1, 10210, Note_off_c, 0, 67, 58
1, 10250, Note_on_c, 0, 66, 62
1, 10280, Note_on_c, 0, 58, 73
1, 10285, Note_on_c, 0, 61, 81
1, 10285, Note_off_c, 0, 66, 66
1, 10287, Note_on_c, 0, 67, 69
1, 10317, Note_off_c, 0, 61, 65
1, 10328, Note_off_c, 0, 58, 64
1, 10353, Note_off_c, 0, 67, 60
1, 10356, Note_on_c, 0, 66, 74
1, 10405, Note_off_c, 0, 66, 66
1, 10413, Note_on_c, 0, 65, 75
1, 10451, Note_off_c, 0, 65, 65
1, 10465, Note_on_c, 0, 64, 66
1, 10516, Note_off_c, 0, 64, 62
1, 10519, Note_on_c, 0, 57, 85
1, 10522, Note_on_c, 0, 65, 70
1, 10532, Note_on_c, 0, 60, 70
1, 10549, Note_off_c, 0, 60, 63
1, 10563, Note_off_c, 0, 65, 67
1, 10566, Note_off_c, 0, 57, 62
1, 10571, Note_on_c, 0, 66, 66
1, 10602, Note_off_c, 0, 66, 69
1, 10628, Note_on_c, 0, 67, 69
1, 10679, Note_off_c, 0, 67, 62
1, 10687, Note_on_c, 0, 68, 73
1, 10733, Note_off_c, 0, 68, 64
1, 10737, Note_on_c, 0, 61, 40
1, 10738, Note_on_c, 0, 57, 80
1, 10742, Note_on_c, 0, 52, 85
1, 10754, Note_on_c, 0, 69, 67
1, 10766, Note_off_c, 0, 61, 64
1, 10771, Note_off_c, 0, 57, 64
1, 10781, Note_on_c, 0, 70, 61
1, 10794, Note_off_c, 0, 52, 67
1, 10803, Note_off_c, 0, 69, 65
1, 10810, Note_off_c, 0, 70, 49
1, 10847, Note_on_c, 0, 71, 13
1, 10848, Note_on_c, 0, 69, 51
1, 10888, Note_off_c, 0, 71, 44
1, 10911, Note_off_c, 0, 69, 67
1, 10912, Note_on_c, 0, 68, 77
1, 10968, Note_on_c, 0, 57, 83
1, 10973, Note_off_c, 0, 68, 61
1, 10975, Note_on_c, 0, 53, 87
1, 10977, Note_on_c, 0, 69, 66
1, 10981, Note_on_c, 0, 50, 73
1, 10982, Note_on_c, 0, 52, 62
1, 11003, Note_off_c, 0, 52, 63
1, 11003, Note_off_c, 0, 57, 63
1, 11011, Note_off_c, 0, 53, 69
1, 11020, Note_off_c, 0, 50, 66
1, 11025, Note_on_c, 0, 68, 65
1, 11032, Note_off_c, 0, 69, 65
1, 11073, Note_off_c, 0, 68, 63
1, 11097, Note_on_c, 0, 67, 57
1, 11124, Note_off_c, 0, 67, 54
1, 11146, Note_on_c, 0, 66, 66
1, 11175, Note_off_c, 0, 66, 67
1, 11183, Note_on_c, 0, 55, 79
1, 11189, Note_on_c, 0, 46, 74
1, 11195, Note_on_c, 0, 50, 53
1, 11195, Note_on_c, 0, 67, 74
1, 11207, Note_off_c, 0, 55, 68
1, 11218, Note_off_c, 0, 50, 60
1, 11229, Note_off_c, 0, 46, 63
1, 11258, Note_on_c, 0, 66, 72
1, 11268, Note_off_c, 0, 67, 62
1, 11295, Note_off_c, 0, 66, 68
1, 11319, Note_on_c, 0, 65, 75
1, 11356, Note_off_c, 0, 65, 66
1, 11368, Note_on_c, 0, 64, 69
1, 11414, Note_on_c, 0, 53, 76
1, 11418, Note_on_c, 0, 65, 73
1, 11420, Note_on_c, 0, 50, 48
1, 11423, Note_off_c, 0, 64, 63
1, 11425, Note_on_c, 0, 45, 64
1, 11441, Note_off_c, 0, 53, 68
1, 11449, Note_off_c, 0, 50, 63
1, 11459, Note_off_c, 0, 65, 66
1, 11472, Note_on_c, 0, 66, 67
1, 11473, Note_off_c, 0, 45, 58
1, 11501, Note_off_c, 0, 66, 69
1, 11521, Note_on_c, 0, 67, 76
1, 11577, Note_off_c, 0, 67, 61
1, 11584, Note_on_c, 0, 68, 80
1, 11624, Note_off_c, 0, 68, 67
1, 11637, Note_on_c, 0, 52, 74
1, 11641, Note_on_c, 0, 49, 63
1, 11661, Note_on_c, 0, 69, 61
1, 11664, Note_off_c, 0, 49, 63
1, 11664, Note_off_c, 0, 52, 70
1, 11673, Note_on_c, 0, 70, 67
1, 11678, Note_off_c, 0, 69, 64
1, 11727, Note_off_c, 0, 70, 65
1, 11738, Note_on_c, 0, 69, 82
1, 11782, Note_off_c, 0, 69, 66
1, 11791, Note_on_c, 0, 68, 79
1, 11833, Note_on_c, 0, 45, 57
1, 11833, Note_on_c, 0, 50, 67
1, 11836, Note_on_c, 0, 69, 68
1, 11841, Note_off_c, 0, 68, 65
1, 11858, Note_off_c, 0, 45, 58
1, 11859, Control_c, 0, 64, 59
1, 11860, Note_off_c, 0, 50, 66
1, 11865, Note_off_c, 0, 69, 64
1, 11873, Control_c, 0, 64, 68
1, 11888, Control_c, 0, 64, 73
1, 11890, Note_on_c, 0, 57, 88
1, 11903, Control_c, 0, 64, 75
1, 11915, Note_off_c, 0, 57, 66
1, 11918, Control_c, 0, 64, 75
1, 11933, Control_c, 0, 64, 70
1, 11947, Control_c, 0, 64, 19
1, 11953, Note_on_c, 0, 56, 83
1, 11962, Control_c, 0, 64, 0
1, 11983, Note_off_c, 0, 56, 64
1, 12009, Note_on_c, 0, 57, 88
1, 12035, Note_off_c, 0, 57, 67
1, 12060, Note_on_c, 0, 56, 79
1, 12090, Note_off_c, 0, 56, 64
1, 12136, Note_on_c, 0, 57, 61
1, 12158, Note_off_c, 0, 57, 62
1, 12163, Note_on_c, 0, 56, 90
1, 12203, Note_off_c, 0, 56, 67
1, 12207, Note_on_c, 0, 57, 85
1, 12235, Note_off_c, 0, 57, 67
1, 12269, Note_on_c, 0, 58, 99
1, 12270, Note_on_c, 0, 56, 94
1, 12296, Control_c, 0, 64, 66
1, 12304, Note_off_c, 0, 58, 68
1, 12307, Note_off_c, 0, 56, 65
1, 12311, Control_c, 0, 64, 105
1, 12323, Note_on_c, 0, 57, 91
1, 12326, Control_c, 0, 64, 127
1, 12331, Note_on_c, 0, 70, 80
1, 12343, Note_off_c, 0, 57, 70
1, 12352, Note_off_c, 0, 70, 71
1, 12375, Note_on_c, 0, 58, 92
1, 12376, Note_on_c, 0, 56, 86
1, 12391, Note_off_c, 0, 58, 74
1, 12397, Note_off_c, 0, 56, 67
1, 12426, Note_on_c, 0, 57, 89
1, 12431, Note_on_c, 0, 70, 85
1, 12447, Note_off_c, 0, 57, 65
1, 12454, Note_off_c, 0, 70, 63
1, 12474, Note_on_c, 0, 58, 96
1, 12478, Note_on_c, 0, 56, 91
1, 12499, Note_off_c, 0, 56, 60
1, 12512, Note_off_c, 0, 58, 64
1, 12533, Note_on_c, 0, 57, 90
1, 12551, Note_on_c, 0, 70, 61
1, 12564, Note_off_c, 0, 57, 63
1, 12565, Note_off_c, 0, 70, 70
1, 12572, Note_on_c, 0, 58, 93
1, 12575, Note_on_c, 0, 56, 88
1, 12612, Note_off_c, 0, 58, 64
1, 12621, Note_on_c, 0, 70, 88
1, 12625, Note_off_c, 0, 56, 64
1, 12634, Note_on_c, 0, 57, 66
1, 12649, Note_off_c, 0, 57, 69
1, 12657, Note_off_c, 0, 70, 67
1, 12677, Note_on_c, 0, 59, 9
1, 12682, Control_c, 0, 64, 106
1, 12696, Control_c, 0, 64, 72
1, 12700, Note_on_c, 0, 57, 92
1, 12709, Note_on_c, 0, 69, 86
1, 12711, Control_c, 0, 64, 0
1, 12714, Note_off_c, 0, 57, 75
1, 12722, Note_off_c, 0, 59, 37
1, 12804, Note_off_c, 0, 69, 67
1, 12826, Note_on_c, 0, 68, 98
1, 12866, Note_off_c, 0, 68, 64
1, 12881, Note_on_c, 0, 69, 101
1, 12896, Note_off_c, 0, 69, 71
1, 12939, Note_on_c, 0, 68, 96
1, 12976, Note_off_c, 0, 68, 66
1, 12992, Note_on_c, 0, 69, 59
1, 12999, Note_on_c, 0, 67, 65
1, 13047, Note_off_c, 0, 67, 63
1, 13055, Note_off_c, 0, 69, 67
1, 13055, Note_on_c, 0, 68, 105
1, 13093, Note_off_c, 0, 68, 69
1, 13153, Note_on_c, 0, 70, 101
1, 13155, Note_on_c, 0, 68, 103
1, 13159, Note_on_c, 0, 69, 97
1, 13159, Note_on_c, 0, 82, 86
1, 13176, Note_off_c, 0, 69, 73
1, 13179, Control_c, 0, 64, 75
1, 13181, Note_off_c, 0, 82, 67
1, 13190, Note_off_c, 0, 68, 64
1, 13190, Note_off_c, 0, 70, 66
1, 13194, Control_c, 0, 64, 92
1, 13208, Control_c, 0, 64, 105
1, 13223, Control_c, 0, 64, 106
1, 13252, Control_c, 0, 64, 107
1, 13253, Note_on_c, 0, 68, 88
1, 13254, Note_on_c, 0, 69, 88
1, 13261, Note_on_c, 0, 67, 77
1, 13267, Control_c, 0, 64, 107
1, 13270, Note_on_c, 0, 66, 60
1, 13276, Note_on_c, 0, 82, 93
1, 13282, Control_c, 0, 64, 108
1, 13283, Note_off_c, 0, 67, 70
1, 13283, Note_off_c, 0, 68, 60
1, 13291, Note_off_c, 0, 66, 63
1, 13297, Control_c, 0, 64, 110
1, 13311, Note_off_c, 0, 69, 66
1, 13312, Control_c, 0, 64, 112
1, 13315, Note_off_c, 0, 82, 63
1, 13327, Control_c, 0, 64, 113
1, 13342, Control_c, 0, 64, 114
1, 13357, Note_on_c, 0, 68, 98
1, 13357, Note_on_c, 0, 70, 101
1, 13357, Control_c, 0, 64, 114
1, 13392, Note_off_c, 0, 68, 68
1, 13394, Note_off_c, 0, 70, 63
1, 13415, Note_on_c, 0, 69, 54
1, 13417, Note_on_c, 0, 82, 56
1, 13431, Note_off_c, 0, 69, 66
1, 13439, Note_off_c, 0, 82, 61
1, 13449, Note_on_c, 0, 70, 95
1, 13455, Note_on_c, 0, 68, 89
1, 13500, Note_on_c, 0, 69, 89
1, 13502, Note_off_c, 0, 70, 65
1, 13505, Note_off_c, 0, 68, 62
1, 13506, Note_on_c, 0, 82, 86
1, 13521, Note_on_c, 0, 80, 66
1, 13525, Note_off_c, 0, 82, 71
1, 13527, Note_off_c, 0, 69, 63
1, 13539, Note_off_c, 0, 80, 41
1, 13583, Note_on_c, 0, 69, 110
1, 13601, Control_c, 0, 64, 114
1, 13607, Note_off_c, 0, 69, 72
1, 13616, Control_c, 0, 64, 101
1, 13631, Control_c, 0, 64, 75
1, 13645, Control_c, 0, 64, 0
1, 13670, Note_on_c, 0, 69, 28
1, 13701, Note_on_c, 0, 70, 5
1, 13729, Note_off_c, 0, 70, 29
1, 13738, Note_off_c, 0, 69, 60
1, 13750, Control_c, 0, 67, 10
1, 13763, Note_on_c, 0, 69, 50
1, 13765, Control_c, 0, 67, 17
1, 13780, Control_c, 0, 67, 26
1, 13795, Control_c, 0, 67, 36
1, 13810, Control_c, 0, 67, 43
1, 13824, Control_c, 0, 67, 50
1, 13833, Note_off_c, 0, 69, 61
1, 13839, Control_c, 0, 67, 56
1, 13854, Control_c, 0, 67, 58
1, 13883, Note_on_c, 0, 70, 65
1, 13883, Control_c, 0, 67, 57
1, 13890, Note_on_c, 0, 68, 30
1, 13898, Control_c, 0, 67, 56
1, 13913, Control_c, 0, 67, 55
1, 13927, Note_off_c, 0, 68, 41
1, 13928, Control_c, 0, 67, 54
1, 13942, Control_c, 0, 67, 53
1, 13944, Note_off_c, 0, 70, 61
1, 13950, Note_on_c, 0, 69, 71
1, 13957, Control_c, 0, 67, 52
1, 13972, Control_c, 0, 67, 52
1, 13987, Note_on_c, 0, 57, 74
1, 13987, Control_c, 0, 67, 50
1, 14002, Control_c, 0, 67, 49
1, 14010, Note_off_c, 0, 69, 62
1, 14016, Control_c, 0, 67, 46
1, 14030, Note_on_c, 0, 70, 63
1, 14031, Control_c, 0, 67, 43
1, 14046, Control_c, 0, 67, 42
1, 14061, Control_c, 0, 64, 50
1, 14061, Control_c, 0, 67, 41
1, 14075, Control_c, 0, 64, 62
1, 14075, Control_c, 0, 67, 41
1, 14077, Note_off_c, 0, 70, 62
1, 14081, Note_on_c, 0, 69, 55
1, 14090, Control_c, 0, 64, 67
1, 14090, Control_c, 0, 67, 41
1, 14095, Note_on_c, 0, 58, 70
1, 14096, Note_off_c, 0, 57, 56
1, 14097, Note_on_c, 0, 56, 63
1, 14105, Control_c, 0, 64, 71
1, 14111, Note_off_c, 0, 69, 68
1, 14116, Note_on_c, 0, 68, 73
1, 14120, Control_c, 0, 64, 74
1, 14120, Control_c, 0, 67, 41
1, 14135, Control_c, 0, 64, 76
1, 14149, Control_c, 0, 64, 75
1, 14149, Control_c, 0, 67, 40
1, 14155, Note_off_c, 0, 58, 64
1, 14155, Note_off_c, 0, 56, 51
1, 14164, Control_c, 0, 64, 69
1, 14164, Control_c, 0, 67, 41
1, 14179, Control_c, 0, 64, 59
1, 14179, Control_c, 0, 67, 41
1, 14182, Note_on_c, 0, 69, 76
1, 14184, Note_off_c, 0, 68, 60
1, 14194, Control_c, 0, 64, 62
1, 14194, Control_c, 0, 67, 42
1, 14206, Note_on_c, 0, 59, 82
1, 14209, Control_c, 0, 64, 69
1, 14209, Control_c, 0, 67, 43
1, 14219, Note_on_c, 0, 55, 74
1, 14224, Control_c, 0, 64, 75
1, 14224, Control_c, 0, 67, 43
1, 14233, Note_on_c, 0, 57, 36
1, 14246, Control_c, 0, 64, 83
1, 14246, Control_c, 0, 67, 44
1, 14250, Note_off_c, 0, 69, 59
1, 14256, Note_on_c, 0, 70, 68
1, 14261, Note_off_c, 0, 59, 63
1, 14261, Control_c, 0, 64, 89
1, 14261, Control_c, 0, 67, 43
1, 14263, Note_off_c, 0, 55, 65
1, 14272, Note_off_c, 0, 57, 51
1, 14275, Control_c, 0, 64, 92
1, 14275, Control_c, 0, 67, 43
1, 14290, Control_c, 0, 64, 93
1, 14305, Control_c, 0, 67, 44
1, 14322, Note_on_c, 0, 60, 86
1, 14331, Note_on_c, 0, 69, 74
1, 14334, Note_off_c, 0, 70, 62
1, 14364, Note_off_c, 0, 69, 68
1, 14364, Control_c, 0, 67, 43
1, 14369, Note_off_c, 0, 60, 61
1, 14371, Note_on_c, 0, 68, 75
1, 14379, Control_c, 0, 64, 91
1, 14379, Control_c, 0, 67, 42
1, 14394, Control_c, 0, 64, 78
1, 14394, Control_c, 0, 67, 40
1, 14409, Control_c, 0, 64, 21
1, 14409, Control_c, 0, 67, 34
1, 14424, Control_c, 0, 64, 0
1, 14424, Control_c, 0, 67, 11
1, 14429, Note_off_c, 0, 68, 63
1, 14434, Note_on_c, 0, 69, 77
1, 14439, Control_c, 0, 67, 0
1, 14444, Note_on_c, 0, 61, 96
1, 14445, Note_on_c, 0, 53, 88
1, 14448, Note_on_c, 0, 57, 82
1, 14468, Control_c, 0, 64, 34
1, 14474, Note_off_c, 0, 69, 65
1, 14476, Note_off_c, 0, 57, 66
1, 14477, Note_on_c, 0, 60, 42
1, 14478, Note_off_c, 0, 60, 127
1, 14481, Note_off_c, 0, 53, 69
1, 14482, Note_off_c, 0, 61, 65
1, 14483, Control_c, 0, 64, 68
1, 14495, Note_on_c, 0, 70, 69
1, 14498, Control_c, 0, 64, 76
1, 14513, Control_c, 0, 64, 85
1, 14528, Control_c, 0, 64, 88
1, 14543, Control_c, 0, 64, 89
1, 14550, Note_off_c, 0, 70, 63
1, 14558, Poly_aftertouch_c, 0, 73, 0
1, 14573, Note_on_c, 0, 71, 67
1, 14602, Note_off_c, 0, 71, 65
1, 14645, Note_on_c, 0, 72, 71
1, 14694, Note_on_c, 0, 81, 70
1, 14701, Note_on_c, 0, 73, 77
1, 14708, Note_off_c, 0, 72, 61
1, 14719, Note_off_c, 0, 81, 67
1, 14725, Note_on_c, 0, 82, 71
1, 14755, Note_off_c, 0, 73, 65
1, 14765, Control_c, 0, 64, 88
1, 14770, Note_off_c, 0, 82, 0
1, 14778, Note_on_c, 0, 72, 25
1, 14779, Note_on_c, 0, 83, 80
1, 14792, Note_on_c, 0, 82, 37
1, 14808, Note_off_c, 0, 72, 52
1, 14809, Note_on_c, 0, 71, 66
1, 14823, Note_off_c, 0, 82, 56
1, 14830, Note_off_c, 0, 83, 58
1, 14832, Note_off_c, 0, 71, 62
1, 14848, Note_on_c, 0, 84, 89
1, 14869, Control_c, 0, 64, 87
1, 14882, Note_on_c, 0, 70, 72
1, 14884, Control_c, 0, 64, 79
1, 14890, Note_on_c, 0, 85, 80
1, 14898, Control_c, 0, 64, 56
1, 14902, Note_off_c, 0, 84, 63
1, 14913, Control_c, 0, 64, 0
1, 14917, Note_off_c, 0, 70, 62
1, 14927, Note_on_c, 0, 69, 83
1, 14955, Note_off_c, 0, 85, 64
1, 14957, Note_on_c, 0, 84, 81
1, 14961, Note_off_c, 0, 69, 66
1, 15017, Note_on_c, 0, 71, 54
1, 15040, Note_off_c, 0, 71, 63
1, 15041, Note_off_c, 0, 84, 62
1, 15042, Note_on_c, 0, 82, 68
1, 15049, Note_on_c, 0, 83, 62
1, 15058, Note_on_c, 0, 72, 72
1, 15088, Note_off_c, 0, 72, 64
1, 15096, Note_on_c, 0, 73, 70
1, 15114, Note_off_c, 0, 83, 62
1, 15115, Note_on_c, 0, 81, 88
1, 15117, Note_off_c, 0, 82, 66
1, 15138, Note_off_c, 0, 81, 65
1, 15162, Note_on_c, 0, 71, 14
1, 15175, Note_off_c, 0, 73, 62
1, 15184, Note_on_c, 0, 72, 46
1, 15209, Note_off_c, 0, 72, 37
1, 15227, Note_off_c, 0, 71, 0
1, 15227, Note_on_c, 0, 71, 3
1, 15292, Note_off_c, 0, 71, 41
1, 15294, Note_on_c, 0, 69, 84
1, 15310, Note_on_c, 0, 62, 68
1, 15319, Note_on_c, 0, 54, 69
1, 15325, Note_off_c, 0, 69, 69
1, 15336, Control_c, 0, 64, 63
1, 15346, Note_off_c, 0, 62, 63
1, 15351, Control_c, 0, 64, 72
1, 15353, Note_off_c, 0, 54, 65
1, 15366, Control_c, 0, 64, 78
1, 15381, Control_c, 0, 64, 82
1, 15395, Control_c, 0, 64, 83
1, 15430, Note_on_c, 0, 61, 87
1, 15440, Control_c, 0, 64, 78
1, 15455, Note_off_c, 0, 61, 65
1, 15455, Control_c, 0, 64, 64
1, 15470, Control_c, 0, 64, 0
1, 15482, Note_on_c, 0, 62, 90
1, 15508, Note_off_c, 0, 62, 65
1, 15528, Note_on_c, 0, 61, 85
1, 15561, Note_off_c, 0, 61, 64
1, 15592, Note_on_c, 0, 62, 61
1, 15612, Note_off_c, 0, 62, 62
1, 15629, Note_on_c, 0, 61, 92
1, 15670, Note_on_c, 0, 62, 88
1, 15672, Note_off_c, 0, 61, 63
1, 15703, Note_off_c, 0, 62, 65
1, 15732, Note_on_c, 0, 63, 104
1, 15734, Note_on_c, 0, 61, 96
1, 15772, Note_on_c, 0, 60, 42
1, 15773, Note_off_c, 0, 60, 127
1, 15774, Note_off_c, 0, 63, 70
1, 15779, Note_off_c, 0, 61, 66
1, 15789, Control_c, 0, 64, 89
1, 15799, Note_on_c, 0, 62, 97
1, 15804, Control_c, 0, 64, 127
1, 15807, Note_on_c, 0, 75, 89
1, 15820, Note_off_c, 0, 62, 67
1, 15825, Note_off_c, 0, 75, 73
1, 15846, Note_on_c, 0, 63, 103
1, 15852, Note_on_c, 0, 61, 87
1, 15873, Note_off_c, 0, 61, 65
1, 15881, Note_off_c, 0, 63, 67
1, 15897, Note_on_c, 0, 62, 101
1, 15906, Note_on_c, 0, 75, 84
1, 15924, Note_off_c, 0, 75, 71
1, 15930, Note_off_c, 0, 62, 61
1, 15953, Note_on_c, 0, 63, 96
1, 15958, Note_on_c, 0, 61, 91
1, 15987, Note_off_c, 0, 61, 58
1, 15995, Note_off_c, 0, 63, 65
1, 16008, Note_on_c, 0, 62, 95
1, 16020, Note_on_c, 0, 75, 73
1, 16035, Note_off_c, 0, 62, 67
1, 16037, Note_off_c, 0, 75, 69
1, 16055, Note_on_c, 0, 63, 90
1, 16060, Note_on_c, 0, 61, 85
1, 16104, Note_off_c, 0, 63, 65
1, 16105, Note_on_c, 0, 62, 90
1, 16105, Note_off_c, 0, 61, 62
1, 16106, Note_on_c, 0, 75, 88
1, 16126, Note_off_c, 0, 62, 69
1, 16144, Note_off_c, 0, 75, 67
1, 16175, Control_c, 0, 64, 101
1, 16182, Note_on_c, 0, 62, 101
1, 16190, Control_c, 0, 64, 71
1, 16194, Note_on_c, 0, 74, 96
1, 16198, Note_off_c, 0, 62, 73
1, 16205, Control_c, 0, 64, 0
1, 16230, Note_off_c, 0, 74, 67
1, 16263, Note_on_c, 0, 74, 61
1, 16296, Note_off_c, 0, 74, 68
1, 16310, Note_on_c, 0, 73, 94
1, 16345, Note_off_c, 0, 73, 64
1, 16366, Note_on_c, 0, 74, 94
1, 16396, Note_off_c, 0, 74, 70
1, 16416, Note_on_c, 0, 73, 90
1, 16454, Note_off_c, 0, 73, 63
1, 16477, Note_on_c, 0, 74, 82
1, 16507, Note_off_c, 0, 74, 67
1, 16534, Note_on_c, 0, 73, 95
1, 16549, Note_on_c, 0, 74, 79
1, 16575, Note_off_c, 0, 73, 62
1, 16591, Note_off_c, 0, 74, 66
1, 16630, Note_on_c, 0, 73, 98
1, 16630, Note_on_c, 0, 75, 108
1, 16667, Note_off_c, 0, 75, 70
1, 16668, Note_off_c, 0, 73, 68
1, 16669, Control_c, 0, 64, 73
1, 16684, Control_c, 0, 64, 92
1, 16687, Note_on_c, 0, 87, 91
1, 16691, Note_on_c, 0, 74, 87
1, 16699, Control_c, 0, 64, 105
1, 16708, Note_off_c, 0, 74, 74
1, 16710, Note_off_c, 0, 87, 60
1, 16714, Control_c, 0, 64, 110
1, 16729, Control_c, 0, 64, 111
1, 16737, Note_on_c, 0, 75, 102
1, 16743, Control_c, 0, 64, 112
1, 16752, Note_on_c, 0, 72, 76
1, 16758, Control_c, 0, 64, 112
1, 16771, Note_off_c, 0, 75, 69
1, 16774, Note_off_c, 0, 72, 72
1, 16788, Note_on_c, 0, 74, 92
1, 16788, Note_on_c, 0, 87, 92
1, 16813, Note_off_c, 0, 74, 62
1, 16827, Note_off_c, 0, 87, 63
1, 16838, Note_on_c, 0, 75, 104
1, 16842, Note_on_c, 0, 73, 91
1, 16874, Note_off_c, 0, 75, 66
1, 16877, Note_off_c, 0, 73, 62
1, 16901, Note_on_c, 0, 74, 91
1, 16904, Note_on_c, 0, 87, 90
1, 16922, Note_off_c, 0, 74, 65
1, 16929, Note_off_c, 0, 87, 57
1, 16937, Note_on_c, 0, 73, 89
1, 16938, Note_on_c, 0, 75, 91
1, 16978, Note_off_c, 0, 75, 65
1, 16982, Note_off_c, 0, 73, 64
1, 17002, Note_on_c, 0, 87, 94
1, 17004, Note_on_c, 0, 74, 86
1, 17026, Note_off_c, 0, 74, 62
1, 17038, Note_off_c, 0, 87, 65
1, 17059, Note_on_c, 0, 74, 92
1, 17085, Control_c, 0, 64, 110
1, 17088, Note_off_c, 0, 74, 69
1, 17100, Control_c, 0, 64, 98
1, 17114, Note_on_c, 0, 75, 82
1, 17115, Control_c, 0, 64, 77
1, 17130, Control_c, 0, 64, 0
1, 17166, Note_off_c, 0, 75, 61
1, 17183, Note_on_c, 0, 74, 76
1, 17210, Note_off_c, 0, 74, 61
1, 17256, Note_on_c, 0, 73, 75
1, 17279, Note_off_c, 0, 73, 68
1, 17315, Note_on_c, 0, 74, 77
1, 17343, Note_off_c, 0, 74, 60
1, 17356, Note_on_c, 0, 75, 66
1, 17414, Note_on_c, 0, 74, 69
1, 17425, Note_off_c, 0, 75, 64
1, 17461, Note_off_c, 0, 74, 65
1, 17471, Note_on_c, 0, 73, 76
1, 17509, Note_off_c, 0, 73, 66
1, 17529, Note_on_c, 0, 62, 68
1, 17542, Note_on_c, 0, 74, 76
1, 17590, Note_off_c, 0, 74, 58
1, 17608, Note_on_c, 0, 75, 72
1, 17621, Note_off_c, 0, 62, 62
1, 17622, Note_on_c, 0, 63, 69
1, 17625, Note_on_c, 0, 61, 69
1, 17640, Control_c, 0, 64, 54
1, 17655, Control_c, 0, 64, 67
1, 17670, Control_c, 0, 64, 76
1, 17673, Note_on_c, 0, 74, 68
1, 17676, Note_off_c, 0, 75, 64
1, 17683, Note_off_c, 0, 63, 63
1, 17685, Control_c, 0, 64, 83
1, 17688, Note_off_c, 0, 61, 59
1, 17700, Control_c, 0, 64, 86
1, 17704, Note_off_c, 0, 74, 63
1, 17715, Note_on_c, 0, 73, 66
1, 17715, Control_c, 0, 64, 87
1, 17738, Note_on_c, 0, 64, 85
1, 17741, Note_on_c, 0, 60, 84
1, 17753, Note_off_c, 0, 73, 65
1, 17770, Note_on_c, 0, 74, 78
1, 17788, Note_off_c, 0, 64, 64
1, 17790, Note_off_c, 0, 60, 62
1, 17830, Note_off_c, 0, 74, 65
1, 17831, Note_on_c, 0, 75, 80
1, 17845, Note_on_c, 0, 65, 91
1, 17846, Note_on_c, 0, 59, 75
1, 17864, Control_c, 0, 64, 86
1, 17879, Note_off_c, 0, 59, 64
1, 17893, Control_c, 0, 64, 84
1, 17896, Note_on_c, 0, 74, 69
1, 17903, Note_off_c, 0, 65, 62
1, 17905, Note_off_c, 0, 75, 65
1, 17908, Control_c, 0, 64, 74
1, 17923, Control_c, 0, 64, 0
1, 17944, Note_on_c, 0, 73, 72
1, 17946, Note_off_c, 0, 74, 66
1, 17971, Note_on_c, 0, 66, 104
1, 17973, Note_on_c, 0, 62, 70
1, 17989, Control_c, 0, 64, 47
1, 17995, Note_on_c, 0, 58, 56
1, 17997, Note_on_c, 0, 57, 77
1, 18004, Note_on_c, 0, 74, 76
1, 18004, Control_c, 0, 64, 71
1, 18007, Note_off_c, 0, 73, 63
1, 18019, Note_off_c, 0, 57, 66
1, 18019, Control_c, 0, 64, 85
1, 18025, Note_off_c, 0, 66, 69
1, 18028, Note_off_c, 0, 62, 62
1, 18031, Note_off_c, 0, 58, 63
1, 18034, Control_c, 0, 64, 101
1, 18048, Control_c, 0, 64, 108
1, 18050, Note_off_c, 0, 74, 65
1, 18063, Control_c, 0, 64, 110
1, 18078, Control_c, 0, 64, 110
1, 18087, Poly_aftertouch_c, 0, 65, 0
1, 18101, Note_on_c, 0, 76, 56
1, 18102, Note_on_c, 0, 78, 14
1, 18127, Note_off_c, 0, 76, 61
1, 18152, Note_off_c, 0, 78, 37
1, 18160, Note_on_c, 0, 76, 66
1, 18168, Control_c, 0, 64, 109
1, 18183, Control_c, 0, 64, 106
1, 18197, Control_c, 0, 64, 102
1, 18204, Note_on_c, 0, 86, 82
1, 18212, Control_c, 0, 64, 97
1, 18220, Note_on_c, 0, 77, 80
1, 18222, Note_off_c, 0, 76, 61
1, 18227, Control_c, 0, 64, 92
1, 18241, Control_c, 0, 64, 86
1, 18255, Note_off_c, 0, 86, 63
1, 18256, Control_c, 0, 64, 81
1, 18264, Note_on_c, 0, 87, 72
1, 18271, Control_c, 0, 64, 76
1, 18276, Note_off_c, 0, 77, 61
1, 18286, Note_on_c, 0, 78, 79
1, 18286, Control_c, 0, 64, 71
1, 18301, Control_c, 0, 64, 66
1, 18309, Note_on_c, 0, 88, 75
1, 18315, Control_c, 0, 64, 63
1, 18321, Note_off_c, 0, 78, 65
1, 18330, Control_c, 0, 64, 64
1, 18339, Note_off_c, 0, 87, 64
1, 18345, Control_c, 0, 64, 64
1, 18347, Note_on_c, 0, 77, 50
1, 18360, Control_c, 0, 64, 65
1, 18368, Note_off_c, 0, 88, 64
1, 18370, Note_on_c, 0, 89, 94
1, 18376, Note_on_c, 0, 76, 55
1, 18376, Note_off_c, 0, 77, 63
1, 18389, Control_c, 0, 64, 64
1, 18404, Control_c, 0, 64, 62
1, 18408, Note_off_c, 0, 76, 67
1, 18419, Control_c, 0, 64, 51
1, 18426, Note_on_c, 0, 74, 10
1, 18426, Note_off_c, 0, 89, 66
1, 18433, Note_on_c, 0, 90, 88
1, 18433, Control_c, 0, 64, 0
1, 18459, Note_on_c, 0, 75, 73
1, 18471, Note_off_c, 0, 74, 31
1, 18491, Note_on_c, 0, 89, 85
1, 18499, Note_off_c, 0, 75, 65
1, 18503, Note_on_c, 0, 76, 69
1, 18506, Note_off_c, 0, 90, 64
1, 18527, Note_on_c, 0, 74, 52
1, 18537, Note_off_c, 0, 76, 50
1, 18548, Note_off_c, 0, 74, 38
1, 18564, Note_on_c, 0, 77, 75
1, 18567, Note_on_c, 0, 88, 76
1, 18567, Note_off_c, 0, 89, 65
1, 18575, Note_on_c, 0, 87, 65
1, 18632, Note_off_c, 0, 77, 60
1, 18639, Note_off_c, 0, 88, 63
1, 18639, Note_on_c, 0, 78, 79
1, 18650, Note_on_c, 0, 86, 62
1, 18654, Note_off_c, 0, 87, 64
1, 18668, Note_off_c, 0, 86, 66
1, 18698, Note_on_c, 0, 77, 68
1, 18715, Note_off_c, 0, 78, 63
1, 18728, Note_off_c, 0, 77, 64
1, 18758, Note_on_c, 0, 76, 69
1, 18792, Note_off_c, 0, 76, 63
1, 18822, Note_on_c, 0, 75, 78
1, 18871, Note_off_c, 0, 75, 58
1, 18891, Note_on_c, 0, 74, 76
1, 18901, Note_on_c, 0, 55, 57
1, 18901, Note_on_c, 0, 67, 64
1, 18904, Note_on_c, 0, 62, 24
1, 18916, Control_c, 0, 64, 65
1, 18926, Note_off_c, 0, 55, 65
1, 18930, Note_off_c, 0, 62, 50
1, 18931, Control_c, 0, 64, 73
1, 18940, Note_off_c, 0, 67, 61
1, 18946, Control_c, 0, 64, 80
1, 18961, Control_c, 0, 64, 84
1, 18962, Note_off_c, 0, 74, 66
1, 18976, Note_on_c, 0, 72, 85
1, 18976, Control_c, 0, 64, 85
1, 18990, Control_c, 0, 64, 86
1, 19029, Note_off_c, 0, 72, 64
1, 19039, Note_on_c, 0, 71, 74
1, 19060, Note_off_c, 0, 71, 69
1, 19079, Control_c, 0, 64, 85
1, 19089, Note_on_c, 0, 70, 86
1, 19094, Control_c, 0, 64, 82
1, 19109, Control_c, 0, 64, 75
1, 19124, Control_c, 0, 64, 63
1, 19138, Control_c, 0, 64, 0
1, 19139, Note_off_c, 0, 70, 62
1, 19164, Note_on_c, 0, 87, 67
1, 19181, Note_off_c, 0, 87, 44
1, 19193, Note_on_c, 0, 86, 49
1, 19210, Note_on_c, 0, 75, 70
1, 19220, Note_off_c, 0, 86, 0
1, 19229, Note_on_c, 0, 84, 63
1, 19237, Note_off_c, 0, 75, 66
1, 19241, Note_on_c, 0, 86, 30
1, 19247, Note_off_c, 0, 84, 64
1, 19277, Note_off_c, 0, 86, 39
1, 19297, Note_on_c, 0, 85, 71
1, 19333, Note_on_c, 0, 74, 73
1, 19345, Note_off_c, 0, 85, 61
1, 19348, Note_on_c, 0, 86, 74
1, 19357, Note_off_c, 0, 74, 66
1, 19414, Note_on_c, 0, 85, 57
1, 19415, Note_off_c, 0, 86, 62
1, 19435, Note_off_c, 0, 85, 37
1, 19447, Note_on_c, 0, 84, 74
1, 19474, Note_off_c, 0, 84, 64
1, 19513, Note_on_c, 0, 83, 63
1, 19533, Note_off_c, 0, 83, 61
1, 19560, Note_on_c, 0, 78, 77
1, 19568, Note_on_c, 0, 82, 73
1, 19575, Note_on_c, 0, 75, 50
1, 19587, Note_off_c, 0, 78, 62
1, 19598, Note_off_c, 0, 75, 59
1, 19599, Note_off_c, 0, 82, 63
1, 19625, Note_on_c, 0, 83, 69
1, 19663, Note_off_c, 0, 83, 56
1, 19680, Note_on_c, 0, 84, 74
1, 19715, Note_off_c, 0, 84, 54
1, 19736, Note_on_c, 0, 85, 64
1, 19769, Note_off_c, 0, 85, 63
1, 19782, Note_on_c, 0, 86, 71
1, 19783, Note_on_c, 0, 77, 79
1, 19786, Note_on_c, 0, 74, 68
1, 19789, Note_on_c, 0, 70, 69
1, 19805, Note_off_c, 0, 77, 67
1, 19809, Note_off_c, 0, 74, 71
1, 19822, Note_off_c, 0, 70, 62
1, 19823, Note_off_c, 0, 86, 54
1, 19849, Note_on_c, 0, 85, 73
1, 19903, Note_off_c, 0, 85, 65
1, 19914, Note_on_c, 0, 84, 63
1, 19919, Note_on_c, 0, 73, 33
1, 19934, Note_off_c, 0, 84, 64
1, 19950, Note_off_c, 0, 73, 50
1, 19962, Note_on_c, 0, 83, 75
1, 19990, Note_off_c, 0, 83, 58
1, 20013, Note_on_c, 0, 84, 74
1, 20019, Note_on_c, 0, 66, 69
1, 20022, Note_on_c, 0, 75, 62
1, 20052, Note_off_c, 0, 75, 66
1, 20055, Note_off_c, 0, 84, 65
1, 20062, Note_off_c, 0, 66, 67
1, 20089, Note_on_c, 0, 83, 58
1, 20109, Note_off_c, 0, 83, 40
1, 20141, Note_on_c, 0, 82, 61
1, 20171, Note_off_c, 0, 82, 64
1, 20192, Note_on_c, 0, 81, 77
1, 20219, Note_off_c, 0, 81, 62
1, 20242, Note_on_c, 0, 70, 66
1, 20245, Note_on_c, 0, 74, 62
1, 20259, Note_on_c, 0, 82, 77
1, 20267, Note_on_c, 0, 67, 40
1, 20271, Note_off_c, 0, 70, 68
1, 20272, Note_off_c, 0, 74, 70
1, 20281, Control_c, 0, 64, 21
1, 20296, Control_c, 0, 64, 46
1, 20297, Note_off_c, 0, 67, 48
1, 20300, Note_off_c, 0, 82, 64
1, 20310, Control_c, 0, 64, 54
1, 20325, Control_c, 0, 64, 58
1, 20329, Note_on_c, 0, 83, 72
1, 20355, Control_c, 0, 64, 56
1, 20365, Note_off_c, 0, 83, 56
1, 20370, Control_c, 0, 64, 53
1, 20377, Note_on_c, 0, 84, 73
1, 20384, Control_c, 0, 64, 36
1, 20399, Control_c, 0, 64, 0
1, 20418, Note_off_c, 0, 84, 65
1, 20426, Note_on_c, 0, 85, 69
1, 20439, Note_on_c, 0, 73, 79
1, 20448, Note_on_c, 0, 65, 68
1, 20448, Note_off_c, 0, 85, 70
1, 20469, Note_on_c, 0, 84, 79
1, 20473, Control_c, 0, 64, 57
1, 20482, Note_on_c, 0, 69, 41
1, 20488, Control_c, 0, 64, 66
1, 20503, Control_c, 0, 64, 70
1, 20507, Note_off_c, 0, 73, 59
1, 20512, Note_on_c, 0, 74, 72
1, 20516, Note_on_c, 0, 85, 83
1, 20517, Control_c, 0, 64, 75
1, 20519, Note_off_c, 0, 84, 63
1, 20528, Note_off_c, 0, 69, 45
1, 20532, Control_c, 0, 64, 78
1, 20574, Note_on_c, 0, 86, 77
1, 20577, Control_c, 0, 64, 77
1, 20583, Note_on_c, 0, 75, 85
1, 20584, Note_off_c, 0, 65, 63
1, 20591, Control_c, 0, 64, 75
1, 20600, Note_off_c, 0, 74, 62
1, 20606, Control_c, 0, 64, 66
1, 20613, Note_off_c, 0, 85, 50
1, 20621, Control_c, 0, 64, 0
1, 20626, Note_off_c, 0, 86, 64
1, 20629, Note_off_c, 0, 75, 66
1, 20631, Note_on_c, 0, 87, 76
1, 20670, Note_on_c, 0, 76, 106
1, 20675, Note_on_c, 0, 64, 86
1, 20677, Note_on_c, 0, 68, 89
1, 20679, Note_on_c, 0, 88, 91
1, 20696, Control_c, 0, 64, 60
1, 20709, Note_off_c, 0, 87, 60
1, 20710, Note_off_c, 0, 76, 71
1, 20710, Control_c, 0, 64, 73
1, 20711, Note_off_c, 0, 64, 65
1, 20713, Note_off_c, 0, 68, 63
1, 20725, Control_c, 0, 64, 82
1, 20740, Control_c, 0, 64, 89
1, 20740, Poly_aftertouch_c, 0, 87, 0
1, 20747, Note_on_c, 0, 87, 62
1, 20755, Control_c, 0, 64, 91
1, 20775, Note_off_c, 0, 88, 62
1, 20797, Note_on_c, 0, 86, 77
1, 20805, Note_off_c, 0, 87, 64
1, 20834, Note_off_c, 0, 86, 60
1, 20862, Note_on_c, 0, 85, 80
1, 20892, Note_on_c, 0, 76, 85
1, 20904, Control_c, 0, 64, 89
1, 20919, Control_c, 0, 64, 81
1, 20928, Note_on_c, 0, 86, 87
1, 20929, Note_off_c, 0, 85, 64
1, 20931, Note_off_c, 0, 76, 67
1, 20933, Control_c, 0, 64, 69
1, 20943, Note_on_c, 0, 77, 83
1, 20948, Control_c, 0, 64, 0
1, 20993, Note_on_c, 0, 85, 74
1, 21005, Note_off_c, 0, 77, 60
1, 21006, Note_off_c, 0, 85, 66
1, 21011, Note_off_c, 0, 86, 0
1, 21011, Note_on_c, 0, 76, 82
1, 21025, Note_on_c, 0, 84, 69
1, 21032, Note_on_c, 0, 86, 27
1, 21061, Note_off_c, 0, 86, 42
1, 21077, Note_on_c, 0, 77, 80
1, 21077, Note_off_c, 0, 76, 66
1, 21081, Note_off_c, 0, 84, 65
1, 21086, Note_on_c, 0, 83, 76
1, 21123, Note_off_c, 0, 83, 58
1, 21128, Note_off_c, 0, 77, 47
1, 21128, Note_on_c, 0, 76, 80
1, 21143, Note_on_c, 0, 84, 87
1, 21187, Note_off_c, 0, 76, 66
1, 21192, Note_on_c, 0, 77, 78
1, 21192, Note_off_c, 0, 84, 54
1, 21208, Note_on_c, 0, 83, 78
1, 21225, Note_off_c, 0, 83, 65
1, 21242, Note_off_c, 0, 77, 60
1, 21244, Note_on_c, 0, 76, 76
1, 21259, Note_on_c, 0, 82, 88
1, 21305, Note_on_c, 0, 77, 81
1, 21306, Note_off_c, 0, 76, 66
1, 21309, Note_off_c, 0, 82, 62
1, 21311, Note_on_c, 0, 81, 85
1, 21351, Note_off_c, 0, 77, 59
1, 21351, Note_off_c, 0, 81, 60
1, 21357, Note_on_c, 0, 76, 80
1, 21371, Note_on_c, 0, 80, 88
1, 21384, Control_c, 0, 64, 51
1, 21399, Control_c, 0, 64, 60
1, 21414, Control_c, 0, 64, 61
1, 21423, Note_off_c, 0, 76, 68
1, 21425, Note_on_c, 0, 77, 84
1, 21430, Note_off_c, 0, 80, 66
1, 21435, Note_on_c, 0, 79, 78
1, 21441, Note_on_c, 0, 81, 70
1, 21444, Control_c, 0, 64, 61
1, 21456, Note_off_c, 0, 81, 66
1, 21459, Control_c, 0, 64, 62
1, 21474, Control_c, 0, 64, 61
1, 21480, Note_off_c, 0, 79, 61
1, 21488, Control_c, 0, 64, 49
1, 21499, Note_on_c, 0, 76, 89
1, 21503, Note_off_c, 0, 77, 55
1, 21503, Control_c, 0, 64, 0
1, 21530, Note_off_c, 0, 76, 74
1, 21577, Control_c, 0, 64, 63
1, 21586, Note_on_c, 0, 77, 82
1, 21593, Control_c, 0, 64, 71
1, 21608, Control_c, 0, 64, 78
1, 21623, Control_c, 0, 64, 83
1, 21626, Note_on_c, 0, 76, 77
1, 21637, Control_c, 0, 64, 85
1, 21676, Note_off_c, 0, 77, 60
1, 21679, Note_off_c, 0, 76, 67
1, 21687, Note_on_c, 0, 75, 75
1, 21712, Control_c, 0, 64, 84
1, 21735, Control_c, 0, 64, 76
1, 21745, Note_off_c, 0, 75, 54
1, 21750, Control_c, 0, 64, 55
1, 21751, Note_on_c, 0, 64, 92
1, 21762, Note_on_c, 0, 76, 79
1, 21764, Control_c, 0, 64, 0
1, 21780, Note_off_c, 0, 64, 65
1, 21825, Note_on_c, 0, 77, 78
1, 21826, Note_off_c, 0, 76, 65
1, 21874, Note_on_c, 0, 60, 92
1, 21888, Note_on_c, 0, 76, 73
1, 21896, Note_off_c, 0, 77, 62
1, 21904, Note_off_c, 0, 60, 66
1, 21943, Note_off_c, 0, 76, 67
1, 21953, Note_on_c, 0, 75, 72
1, 21975, Note_off_c, 0, 75, 70
1, 21986, Note_on_c, 0, 57, 102
1, 22012, Note_on_c, 0, 59, 46
1, 22013, Note_off_c, 0, 59, 127
1, 22013, Note_on_c, 0, 76, 80
1, 22021, Note_off_c, 0, 57, 68
1, 22056, Note_off_c, 0, 76, 66
1, 22067, Note_on_c, 0, 77, 66
1, 22109, Note_on_c, 0, 53, 85
1, 22129, Note_on_c, 0, 76, 62
1, 22133, Note_off_c, 0, 77, 62
1, 22146, Note_off_c, 0, 53, 70
1, 22167, Note_off_c, 0, 76, 63
1, 22180, Note_on_c, 0, 75, 69
1, 22196, Note_off_c, 0, 75, 67
1, 22236, Note_on_c, 0, 57, 79
1, 22242, Note_on_c, 0, 76, 68
1, 22259, Note_off_c, 0, 57, 68
1, 22283, Note_off_c, 0, 76, 66
1, 22297, Note_on_c, 0, 77, 68
1, 22347, Note_on_c, 0, 60, 73
1, 22356, Note_off_c, 0, 77, 61
1, 22356, Note_on_c, 0, 76, 64
1, 22383, Note_off_c, 0, 60, 62
1, 22384, Note_off_c, 0, 76, 68
1, 22394, Note_on_c, 0, 75, 66
1, 22419, Note_off_c, 0, 75, 69
1, 22449, Note_on_c, 0, 76, 85
1, 22457, Note_on_c, 0, 64, 83
1, 22475, Control_c, 0, 64, 62
1, 22484, Note_off_c, 0, 64, 71
1, 22492, Note_off_c, 0, 76, 69
1, 22496, Control_c, 0, 64, 71
1, 22512, Control_c, 0, 64, 78
1, 22527, Control_c, 0, 64, 85
1, 22531, Note_on_c, 0, 67, 66
1, 22542, Control_c, 0, 64, 88
1, 22553, Note_off_c, 0, 67, 66
1, 22557, Control_c, 0, 64, 88
1, 22572, Control_c, 0, 64, 89
1, 22582, Note_on_c, 0, 64, 66
1, 22626, Note_off_c, 0, 64, 61
1, 22647, Note_on_c, 0, 63, 68
1, 22675, Note_off_c, 0, 63, 68
1, 22690, Control_c, 0, 64, 84
1, 22705, Control_c, 0, 64, 72
1, 22706, Note_on_c, 0, 52, 75
1, 22712, Note_on_c, 0, 40, 69
1, 22720, Note_on_c, 0, 64, 68
1, 22720, Control_c, 0, 64, 0
1, 22730, Note_off_c, 0, 52, 72
1, 22743, Note_off_c, 0, 40, 65
1, 22755, Note_off_c, 0, 64, 63
1, 22779, Note_on_c, 0, 65, 58
1, 22822, Note_on_c, 0, 48, 73
1, 22828, Note_off_c, 0, 65, 63
1, 22830, Note_on_c, 0, 64, 73
1, 22830, Note_on_c, 0, 36, 64
1, 22846, Note_off_c, 0, 48, 67
1, 22861, Note_off_c, 0, 36, 65
1, 22871, Note_off_c, 0, 64, 65
1, 22893, Note_on_c, 0, 63, 64
1, 22924, Note_off_c, 0, 63, 66
1, 22944, Note_on_c, 0, 45, 77
1, 22959, Note_on_c, 0, 64, 72
1, 22968, Note_off_c, 0, 45, 68
1, 22969, Note_on_c, 0, 35, 38
1, 22976, Note_on_c, 0, 33, 28
1, 22989, Note_off_c, 0, 64, 64
1, 23006, Note_off_c, 0, 35, 51
1, 23018, Note_on_c, 0, 65, 56
1, 23021, Note_off_c, 0, 33, 33
1, 23063, Note_off_c, 0, 65, 65
1, 23064, Note_on_c, 0, 41, 67
1, 23068, Note_on_c, 0, 29, 55
1, 23073, Note_on_c, 0, 64, 64
1, 23090, Note_off_c, 0, 41, 65
1, 23106, Note_off_c, 0, 29, 53
1, 23109, Note_off_c, 0, 64, 65
1, 23125, Note_on_c, 0, 63, 66
1, 23153, Note_off_c, 0, 63, 67
1, 23186, Note_on_c, 0, 45, 71
1, 23192, Note_on_c, 0, 33, 64
1, 23194, Note_on_c, 0, 64, 75
1, 23214, Note_off_c, 0, 45, 65
1, 23229, Note_off_c, 0, 33, 65
1, 23237, Note_off_c, 0, 64, 61
1, 23265, Note_on_c, 0, 65, 51
1, 23310, Note_off_c, 0, 65, 66
1, 23314, Note_on_c, 0, 64, 64
1, 23317, Note_on_c, 0, 48, 61
1, 23322, Note_on_c, 0, 36, 54
1, 23340, Note_off_c, 0, 48, 60
1, 23349, Note_off_c, 0, 64, 66
1, 23352, Note_off_c, 0, 36, 54
1, 23372, Note_on_c, 0, 63, 55
1, 23413, Note_off_c, 0, 63, 63
1, 23425, Note_on_c, 0, 64, 73
1, 23434, Note_on_c, 0, 52, 81
1, 23438, Note_on_c, 0, 40, 72
1, 23453, Note_off_c, 0, 64, 65
1, 23454, Control_c, 0, 64, 29
1, 23471, Note_off_c, 0, 52, 50
1, 23483, Control_c, 0, 64, 0
1, 23494, Note_on_c, 0, 63, 61
1, 23506, Note_on_c, 0, 52, 56
1, 23518, Note_off_c, 0, 63, 65
1, 23523, Note_on_c, 0, 62, 63
1, 23557, Note_off_c, 0, 62, 56
1, 23582, Note_on_c, 0, 61, 70
1, 23627, Note_off_c, 0, 61, 56
1, 23635, Note_on_c, 0, 62, 70
1, 23691, Note_off_c, 0, 62, 49
1, 23704, Note_on_c, 0, 61, 69
1, 23730, Note_off_c, 0, 61, 67
1, 23754, Note_on_c, 0, 60, 67
1, 23781, Note_off_c, 0, 60, 66
1, 23797, Note_on_c, 0, 59, 73
1, 23833, Note_off_c, 0, 59, 57
1, 23855, Note_on_c, 0, 60, 76
1, 23884, Note_off_c, 0, 60, 60
1, 23897, Note_off_c, 0, 40, 37
1, 23918, Note_on_c, 0, 59, 79
1, 23940, Note_off_c, 0, 59, 68
1, 23975, Note_off_c, 0, 52, 42
1, 23976, Note_on_c, 0, 58, 68
1, 24011, Note_off_c, 0, 58, 67
1, 24035, Note_on_c, 0, 57, 72
1, 24061, Note_off_c, 0, 57, 66
1, 24094, Note_on_c, 0, 56, 76
1, 24130, Note_off_c, 0, 56, 62
1, 24150, Note_on_c, 0, 55, 75
1, 24195, Note_off_c, 0, 55, 63
1, 24203, Note_on_c, 0, 54, 66
1, 24225, Note_off_c, 0, 54, 65
1, 24239, Note_on_c, 0, 53, 66
1, 24258, Note_off_c, 0, 53, 65
1, 24297, Note_on_c, 0, 52, 74
1, 24321, Control_c, 0, 67, 9
1, 24325, Note_off_c, 0, 52, 68
1, 24336, Control_c, 0, 67, 13
1, 24343, Note_on_c, 0, 53, 69
1, 24350, Control_c, 0, 67, 16
1, 24365, Control_c, 0, 67, 17
1, 24380, Control_c, 0, 67, 16
1, 24395, Control_c, 0, 67, 15
1, 24401, Note_off_c, 0, 53, 60
1, 24410, Control_c, 0, 67, 15
1, 24412, Note_on_c, 0, 52, 67
1, 24454, Note_off_c, 0, 52, 65
1, 24469, Control_c, 0, 67, 14
1, 24473, Note_on_c, 0, 51, 69
1, 24484, Control_c, 0, 67, 14
1, 24499, Control_c, 0, 67, 13
1, 24514, Control_c, 0, 67, 13
1, 24526, Note_off_c, 0, 51, 60
1, 24529, Control_c, 0, 67, 12
1, 24544, Control_c, 0, 67, 11
1, 24547, Note_on_c, 0, 52, 68
1, 24576, Note_off_c, 0, 52, 67
1, 24594, Note_on_c, 0, 53, 69
1, 24602, Control_c, 0, 67, 13
1, 24617, Control_c, 0, 67, 14
1, 24632, Control_c, 0, 67, 15
1, 24636, Note_off_c, 0, 53, 59
1, 24647, Control_c, 0, 67, 16
1, 24654, Note_on_c, 0, 52, 64
1, 24662, Control_c, 0, 67, 17
1, 24676, Control_c, 0, 67, 18
1, 24691, Control_c, 0, 67, 19
1, 24698, Note_off_c, 0, 52, 64
1, 24706, Control_c, 0, 67, 21
1, 24714, Note_on_c, 0, 51, 64
1, 24721, Control_c, 0, 67, 22
1, 24744, Control_c, 0, 67, 21
1, 24758, Control_c, 0, 67, 19
1, 24770, Note_off_c, 0, 51, 61
1, 24773, Control_c, 0, 67, 18
1, 24786, Note_on_c, 0, 52, 69
1, 24788, Control_c, 0, 67, 18
1, 24802, Control_c, 0, 67, 17
1, 24815, Note_off_c, 0, 52, 67
1, 24817, Control_c, 0, 67, 17
1, 24832, Control_c, 0, 67, 16
1, 24839, Note_on_c, 0, 53, 56
1, 24847, Control_c, 0, 67, 16
1, 24875, Note_off_c, 0, 53, 61
1, 24890, Note_on_c, 0, 52, 66
1, 24891, Control_c, 0, 67, 16
1, 24933, Note_off_c, 0, 52, 62
1, 24952, Note_on_c, 0, 51, 61
1, 24981, Control_c, 0, 67, 16
1, 24993, Note_off_c, 0, 51, 61
1, 24996, Control_c, 0, 67, 15
1, 25008, Note_on_c, 0, 52, 57
1, 25039, Note_off_c, 0, 52, 67
1, 25056, Note_on_c, 0, 53, 60
1, 25090, Note_off_c, 0, 53, 63
1, 25099, Control_c, 0, 67, 16
1, 25113, Note_on_c, 0, 52, 70
1, 25114, Control_c, 0, 67, 16
1, 25144, Control_c, 0, 67, 18
1, 25147, Note_off_c, 0, 52, 65
1, 25159, Control_c, 0, 67, 18
1, 25176, Note_on_c, 0, 51, 53
1, 25209, Note_off_c, 0, 51, 62
1, 25232, Control_c, 0, 67, 17
1, 25236, Note_on_c, 0, 52, 62
1, 25261, Note_off_c, 0, 52, 67
1, 25262, Control_c, 0, 67, 16
1, 25278, Note_on_c, 0, 53, 55
1, 25307, Control_c, 0, 67, 17
1, 25313, Note_off_c, 0, 53, 62
1, 25322, Control_c, 0, 67, 17
1, 25337, Note_on_c, 0, 52, 66
1, 25373, Note_off_c, 0, 52, 65
1, 25396, Note_on_c, 0, 51, 58
1, 25437, Note_off_c, 0, 51, 60
1, 25446, Note_on_c, 0, 76, 73
1, 25447, Note_on_c, 0, 72, 72
1, 25462, Note_on_c, 0, 52, 64
1, 25478, Note_off_c, 0, 72, 71
1, 25478, Control_c, 0, 67, 17
1, 25486, Note_off_c, 0, 76, 63
1, 25493, Control_c, 0, 67, 16
1, 25498, Note_off_c, 0, 52, 67
1, 25522, Control_c, 0, 67, 16
1, 25529, Note_on_c, 0, 53, 59
1, 25537, Control_c, 0, 67, 15
1, 25558, Note_off_c, 0, 53, 61
1, 25574, Note_on_c, 0, 72, 71
1, 25577, Note_on_c, 0, 69, 72
1, 25578, Note_on_c, 0, 52, 63
1, 25581, Control_c, 0, 67, 15
1, 25593, Note_off_c, 0, 72, 68
1, 25602, Note_off_c, 0, 69, 72
1, 25623, Note_off_c, 0, 52, 65
1, 25641, Control_c, 0, 67, 14
1, 25653, Note_on_c, 0, 51, 56
1, 25671, Control_c, 0, 67, 15
1, 25686, Note_on_c, 0, 69, 87
1, 25690, Note_off_c, 0, 51, 61
1, 25693, Note_on_c, 0, 65, 83
1, 25718, Note_on_c, 0, 52, 63
1, 25718, Note_off_c, 0, 65, 68
1, 25718, Note_off_c, 0, 69, 63
1, 25745, Control_c, 0, 67, 14
1, 25746, Note_off_c, 0, 52, 68
1, 25766, Note_on_c, 0, 53, 63
1, 25803, Note_off_c, 0, 53, 66
1, 25805, Control_c, 0, 67, 15
1, 25809, Note_on_c, 0, 65, 68
1, 25817, Note_on_c, 0, 52, 68
1, 25817, Note_on_c, 0, 61, 56
1, 25840, Note_off_c, 0, 61, 57
1, 25847, Note_off_c, 0, 65, 61
1, 25861, Note_off_c, 0, 52, 63
1, 25864, Control_c, 0, 67, 14
1, 25882, Note_on_c, 0, 51, 64
1, 25894, Control_c, 0, 67, 14
1, 25909, Control_c, 0, 67, 13
1, 25923, Control_c, 0, 67, 13
1, 25926, Note_on_c, 0, 69, 77
1, 25936, Note_on_c, 0, 65, 57
1, 25936, Note_off_c, 0, 51, 59
1, 25948, Note_on_c, 0, 52, 64
1, 25950, Note_off_c, 0, 69, 70
1, 25953, Control_c, 0, 67, 12
1, 25959, Note_off_c, 0, 65, 60
1, 25968, Control_c, 0, 67, 11
1, 25978, Note_off_c, 0, 52, 67
1, 25997, Note_on_c, 0, 53, 63
1, 26033, Note_off_c, 0, 53, 66
1, 26039, Note_on_c, 0, 72, 74
1, 26040, Note_on_c, 0, 69, 74
1, 26049, Note_on_c, 0, 52, 68
1, 26064, Note_off_c, 0, 69, 68
1, 26070, Note_off_c, 0, 72, 59
1, 26099, Note_off_c, 0, 52, 65
1, 26119, Note_on_c, 0, 51, 64
1, 26160, Control_c, 0, 67, 11
1, 26168, Note_on_c, 0, 76, 79
1, 26171, Note_on_c, 0, 72, 76
1, 26174, Note_off_c, 0, 51, 61
1, 26174, Control_c, 0, 67, 11
1, 26184, Note_on_c, 0, 52, 69
1, 26189, Note_off_c, 0, 72, 69
1, 26189, Control_c, 0, 67, 11
1, 26201, Note_off_c, 0, 76, 67
1, 26204, Control_c, 0, 67, 11
1, 26215, Note_off_c, 0, 52, 68
1, 26249, Note_on_c, 0, 53, 55
1, 26271, Control_c, 0, 67, 12
1, 26290, Note_off_c, 0, 53, 66
1, 26292, Note_on_c, 0, 52, 69
1, 26301, Control_c, 0, 67, 13
1, 26345, Control_c, 0, 67, 13
1, 26347, Note_off_c, 0, 52, 63
1, 26368, Note_on_c, 0, 51, 60
1, 26408, Note_on_c, 0, 88, 83
1, 26412, Note_off_c, 0, 51, 60
1, 26415, Note_on_c, 0, 81, 79
1, 26425, Note_on_c, 0, 52, 71
1, 26428, Note_on_c, 0, 84, 60
1, 26437, Note_off_c, 0, 81, 67
1, 26446, Note_off_c, 0, 84, 65
1, 26457, Note_off_c, 0, 52, 68
1, 26461, Note_off_c, 0, 88, 64
1, 26489, Note_on_c, 0, 53, 53
1, 26509, Control_c, 0, 67, 13
1, 26520, Note_off_c, 0, 53, 62
1, 26532, Note_on_c, 0, 84, 79
1, 26542, Note_on_c, 0, 52, 66
1, 26542, Note_on_c, 0, 76, 71
1, 26553, Note_on_c, 0, 81, 42
1, 26561, Note_off_c, 0, 84, 64
1, 26565, Note_off_c, 0, 76, 71
1, 26580, Note_off_c, 0, 81, 38
1, 26583, Note_off_c, 0, 52, 61
1, 26583, Control_c, 0, 67, 12
1, 26600, Note_on_c, 0, 51, 63
1, 26613, Control_c, 0, 67, 12
1, 26648, Note_on_c, 0, 81, 94
1, 26655, Note_off_c, 0, 51, 59
1, 26657, Note_on_c, 0, 52, 72
1, 26660, Note_on_c, 0, 73, 83
1, 26665, Note_on_c, 0, 77, 73
1, 26679, Note_off_c, 0, 73, 70
1, 26684, Note_off_c, 0, 77, 66
1, 26687, Control_c, 0, 67, 12
1, 26701, Note_off_c, 0, 81, 63
1, 26702, Control_c, 0, 67, 12
1, 26705, Note_off_c, 0, 52, 67
1, 26717, Control_c, 0, 67, 12
1, 26720, Note_on_c, 0, 53, 70
1, 26732, Control_c, 0, 67, 12
1, 26765, Note_off_c, 0, 53, 65
1, 26766, Note_on_c, 0, 77, 82
1, 26771, Note_on_c, 0, 69, 81
1, 26775, Note_on_c, 0, 73, 73
1, 26776, Control_c, 0, 67, 12
1, 26780, Note_on_c, 0, 52, 63
1, 26792, Note_off_c, 0, 69, 71
1, 26799, Note_off_c, 0, 73, 69
1, 26819, Note_off_c, 0, 52, 64
1, 26820, Note_off_c, 0, 77, 62
1, 26834, Control_c, 0, 67, 12
1, 26835, Note_on_c, 0, 51, 63
1, 26878, Control_c, 0, 67, 11
1, 26890, Note_on_c, 0, 81, 87
1, 26893, Control_c, 0, 67, 10
1, 26895, Note_on_c, 0, 77, 71
1, 26897, Note_off_c, 0, 51, 60
1, 26899, Note_on_c, 0, 52, 69
1, 26919, Note_off_c, 0, 77, 67
1, 26932, Note_off_c, 0, 52, 68
1, 26938, Control_c, 0, 67, 10
1, 26939, Note_off_c, 0, 81, 62
1, 26950, Note_on_c, 0, 53, 64
1, 26967, Control_c, 0, 67, 10
1, 27001, Note_off_c, 0, 53, 63
1, 27020, Note_on_c, 0, 52, 70
1, 27020, Note_on_c, 0, 84, 84
1, 27022, Note_on_c, 0, 76, 73
1, 27034, Control_c, 0, 67, 11
1, 27041, Note_off_c, 0, 76, 69
1, 27042, Note_on_c, 0, 81, 46
1, 27049, Control_c, 0, 67, 11
1, 27066, Note_off_c, 0, 84, 61
1, 27068, Note_off_c, 0, 81, 36
1, 27070, Note_off_c, 0, 52, 64
1, 27073, Note_on_c, 0, 51, 65
1, 27135, Note_on_c, 0, 53, 70
1, 27137, Note_on_c, 0, 81, 92
1, 27138, Control_c, 0, 67, 12
1, 27140, Note_on_c, 0, 84, 96
1, 27145, Note_off_c, 0, 51, 60
1, 27151, Note_on_c, 0, 88, 55
1, 27152, Note_off_c, 0, 88, 127
1, 27152, Control_c, 0, 64, 38
1, 27152, Control_c, 0, 67, 12
1, 27162, Note_off_c, 0, 81, 67
1, 27167, Note_off_c, 0, 84, 65
1, 27167, Control_c, 0, 64, 69
1, 27167, Control_c, 0, 67, 13
1, 27182, Note_off_c, 0, 53, 60
1, 27182, Control_c, 0, 64, 77
1, 27182, Control_c, 0, 67, 14
1, 27183, Note_on_c, 0, 52, 71
1, 27197, Control_c, 0, 64, 84
1, 27212, Control_c, 0, 64, 88
1, 27212, Control_c, 0, 67, 14
1, 27227, Control_c, 0, 64, 89
1, 27227, Control_c, 0, 67, 15
1, 27242, Control_c, 0, 67, 15
1, 27247, Note_on_c, 0, 51, 76
1, 27248, Note_off_c, 0, 52, 65
1, 27256, Control_c, 0, 64, 89
1, 27286, Control_c, 0, 64, 90
1, 27301, Control_c, 0, 64, 90
1, 27301, Control_c, 0, 67, 16
1, 27342, Note_on_c, 0, 52, 79
1, 27346, Control_c, 0, 64, 90
1, 27346, Control_c, 0, 67, 15
1, 27349, Note_on_c, 0, 64, 69
1, 27361, Control_c, 0, 64, 83
1, 27361, Control_c, 0, 67, 15
1, 27367, Note_off_c, 0, 51, 57
1, 27370, Note_off_c, 0, 52, 70
1, 27376, Control_c, 0, 64, 68
1, 27376, Control_c, 0, 67, 14
1, 27385, Note_off_c, 0, 64, 62
1, 27391, Control_c, 0, 64, 0
1, 27391, Control_c, 0, 67, 14
1, 27400, Note_on_c, 0, 65, 65
1, 27420, Control_c, 0, 67, 13
1, 27433, Note_off_c, 0, 65, 64
1, 27450, Control_c, 0, 67, 15
1, 27452, Note_on_c, 0, 66, 73
1, 27465, Control_c, 0, 67, 14
1, 27478, Note_off_c, 0, 66, 69
1, 27480, Control_c, 0, 67, 15
1, 27494, Control_c, 0, 67, 15
1, 27498, Note_on_c, 0, 67, 70
1, 27524, Control_c, 0, 67, 15
1, 27534, Note_off_c, 0, 67, 57
1, 27539, Control_c, 0, 67, 14
1, 27560, Note_on_c, 0, 68, 77
1, 27583, Control_c, 0, 67, 15
1, 27587, Note_on_c, 0, 65, 72
1, 27603, Note_off_c, 0, 68, 62
1, 27613, Control_c, 0, 67, 15
1, 27616, Note_off_c, 0, 65, 68
1, 27622, Note_on_c, 0, 69, 77
1, 27647, Note_off_c, 0, 69, 66
1, 27657, Control_c, 0, 67, 16
1, 27678, Note_on_c, 0, 70, 67
1, 27687, Control_c, 0, 67, 17
1, 27706, Note_off_c, 0, 70, 69
1, 27724, Control_c, 0, 67, 17
1, 27756, Note_on_c, 0, 71, 55
1, 27775, Note_off_c, 0, 71, 60
1, 27797, Note_on_c, 0, 72, 70
1, 27798, Control_c, 0, 67, 18
1, 27804, Note_on_c, 0, 68, 70
1, 27823, Note_on_c, 0, 64, 40
1, 27823, Note_off_c, 0, 72, 65
1, 27832, Note_off_c, 0, 68, 67
1, 27842, Control_c, 0, 67, 18
1, 27849, Note_off_c, 0, 64, 49
1, 27858, Note_on_c, 0, 73, 67
1, 27885, Note_off_c, 0, 73, 67
1, 27915, Note_on_c, 0, 74, 63
1, 27939, Note_off_c, 0, 74, 61
1, 27945, Control_c, 0, 67, 19
1, 27973, Note_on_c, 0, 75, 59
1, 27993, Note_off_c, 0, 75, 63
1, 28029, Note_on_c, 0, 76, 64
1, 28042, Note_on_c, 0, 72, 58
1, 28052, Note_on_c, 0, 67, 47
1, 28055, Note_off_c, 0, 76, 60
1, 28069, Note_off_c, 0, 72, 64
1, 28078, Note_off_c, 0, 67, 59
1, 28082, Note_on_c, 0, 77, 65
1, 28108, Note_off_c, 0, 77, 61
1, 28139, Note_on_c, 0, 78, 64
1, 28154, Control_c, 0, 67, 19
1, 28161, Note_off_c, 0, 78, 61
1, 28184, Control_c, 0, 67, 19
1, 28200, Note_on_c, 0, 79, 50
1, 28222, Note_off_c, 0, 79, 57
1, 28228, Control_c, 0, 67, 20
1, 28243, Control_c, 0, 67, 19
1, 28249, Note_on_c, 0, 80, 60
1, 28250, Note_on_c, 0, 76, 65
1, 28268, Note_off_c, 0, 80, 62
1, 28273, Control_c, 0, 67, 20
1, 28279, Note_on_c, 0, 72, 26
1, 28280, Note_off_c, 0, 76, 65
1, 28302, Note_on_c, 0, 81, 69
1, 28312, Note_off_c, 0, 72, 32
1, 28329, Note_off_c, 0, 81, 63
1, 28358, Note_on_c, 0, 82, 59
1, 28376, Control_c, 0, 67, 19
1, 28386, Note_off_c, 0, 82, 59
1, 28391, Control_c, 0, 67, 19
1, 28406, Control_c, 0, 67, 18
1, 28421, Control_c, 0, 67, 17
1, 28426, Note_on_c, 0, 83, 55
1, 28436, Control_c, 0, 67, 16
1, 28450, Note_off_c, 0, 83, 58
1, 28478, Note_on_c, 0, 84, 66
1, 28479, Note_on_c, 0, 80, 55
1, 28488, Control_c, 0, 67, 15
1, 28499, Note_off_c, 0, 80, 62
1, 28503, Control_c, 0, 67, 15
1, 28508, Note_off_c, 0, 84, 65
1, 28517, Control_c, 0, 67, 14
1, 28526, Note_on_c, 0, 85, 67
1, 28532, Control_c, 0, 67, 13
1, 28547, Control_c, 0, 67, 12
1, 28553, Note_off_c, 0, 85, 66
1, 28562, Control_c, 0, 67, 12
1, 28576, Control_c, 0, 67, 11
1, 28583, Note_on_c, 0, 86, 62
1, 28606, Control_c, 0, 67, 11
1, 28616, Note_off_c, 0, 86, 48
1, 28621, Control_c, 0, 67, 10
1, 28631, Note_on_c, 0, 87, 68
1, 28650, Control_c, 0, 67, 9
1, 28665, Control_c, 0, 67, 9
1, 28680, Note_on_c, 0, 84, 76
1, 28680, Control_c, 0, 64, 52
1, 28680, Control_c, 0, 67, 9
1, 28683, Note_on_c, 0, 88, 74
1, 28684, Note_on_c, 0, 80, 60
1, 28684, Note_on_c, 0, 76, 55
1, 28687, Note_off_c, 0, 87, 64
1, 28695, Control_c, 0, 64, 67
1, 28695, Control_c, 0, 67, 10
1, 28702, Note_off_c, 0, 88, 66
1, 28703, Note_off_c, 0, 84, 71
1, 28705, Note_off_c, 0, 76, 66
1, 28710, Control_c, 0, 64, 70
1, 28710, Control_c, 0, 67, 13
1, 28711, Note_off_c, 0, 80, 67
1, 28724, Control_c, 0, 64, 71
1, 28724, Control_c, 0, 67, 15
1, 28739, Control_c, 0, 64, 67
1, 28739, Control_c, 0, 67, 15
1, 28754, Control_c, 0, 64, 53
1, 28768, Control_c, 0, 64, 0
1, 28786, Note_on_c, 0, 77, 88
1, 28798, Control_c, 0, 67, 15
1, 28834, Note_on_c, 0, 76, 72
1, 28842, Control_c, 0, 67, 14
1, 28848, Note_off_c, 0, 77, 60
1, 28857, Control_c, 0, 67, 13
1, 28872, Control_c, 0, 67, 12
1, 28886, Note_on_c, 0, 75, 75
1, 28887, Note_off_c, 0, 76, 66
1, 28887, Control_c, 0, 67, 10
1, 28903, Control_c, 0, 67, 0
1, 28915, Note_on_c, 0, 81, 87
1, 28922, Note_on_c, 0, 69, 101
1, 28925, Note_on_c, 0, 57, 75
1, 28932, Note_on_c, 0, 60, 79
1, 28933, Note_on_c, 0, 76, 63
1, 28934, Note_on_c, 0, 64, 75
1, 28934, Note_off_c, 0, 75, 62
1, 28947, Control_c, 0, 64, 72
1, 28960, Note_off_c, 0, 60, 66
1, 28960, Note_off_c, 0, 64, 69
1, 28961, Note_off_c, 0, 69, 67
1, 28962, Control_c, 0, 64, 83
1, 28974, Note_off_c, 0, 57, 63
1, 28977, Control_c, 0, 64, 87
1, 28991, Note_on_c, 0, 75, 78
1, 28992, Note_off_c, 0, 81, 59
1, 28994, Note_off_c, 0, 76, 67
1, 29042, Note_on_c, 0, 74, 83
1, 29047, Note_off_c, 0, 75, 63
1, 29078, Note_off_c, 0, 74, 66
1, 29095, Control_c, 0, 64, 87
1, 29110, Control_c, 0, 64, 83
1, 29111, Note_on_c, 0, 73, 79
1, 29124, Note_off_c, 0, 73, 67
1, 29125, Control_c, 0, 64, 68
1, 29139, Control_c, 0, 64, 0
1, 29157, Note_on_c, 0, 72, 75
1, 29190, Note_off_c, 0, 72, 61
1, 29199, Note_on_c, 0, 77, 84
1, 29267, Note_off_c, 0, 77, 62
1, 29272, Note_on_c, 0, 76, 73
1, 29304, Note_off_c, 0, 76, 64
1, 29317, Note_on_c, 0, 75, 73
1, 29352, Note_off_c, 0, 75, 66
1, 29357, Note_on_c, 0, 69, 90
1, 29374, Note_on_c, 0, 76, 79
1, 29375, Note_on_c, 0, 60, 57
1, 29376, Note_on_c, 0, 57, 54
1, 29378, Note_off_c, 0, 69, 70
1, 29395, Note_off_c, 0, 60, 59
1, 29396, Note_off_c, 0, 76, 68
1, 29400, Note_off_c, 0, 57, 62
1, 29430, Note_on_c, 0, 75, 73
1, 29483, Note_off_c, 0, 75, 64
1, 29499, Note_on_c, 0, 74, 55
1, 29519, Note_off_c, 0, 74, 63
1, 29530, Note_on_c, 0, 54, 68
1, 29543, Note_on_c, 0, 73, 84
1, 29546, Note_on_c, 0, 57, 57
1, 29546, Control_c, 0, 67, 9
1, 29555, Note_on_c, 0, 60, 49
1, 29557, Note_on_c, 0, 62, 70
1, 29561, Control_c, 0, 67, 12
1, 29570, Note_off_c, 0, 57, 61
1, 29572, Note_off_c, 0, 54, 63
1, 29576, Control_c, 0, 67, 14
1, 29581, Note_off_c, 0, 73, 57
1, 29586, Note_on_c, 0, 81, 57
1, 29588, Note_off_c, 0, 60, 63
1, 29590, Note_on_c, 0, 69, 97
1, 29591, Control_c, 0, 67, 15
1, 29599, Note_off_c, 0, 62, 64
1, 29603, Note_on_c, 0, 72, 84
1, 29605, Control_c, 0, 67, 15
1, 29620, Note_off_c, 0, 81, 47
1, 29620, Control_c, 0, 67, 17
1, 29628, Note_off_c, 0, 69, 60
1, 29635, Control_c, 0, 67, 19
1, 29650, Control_c, 0, 67, 22
1, 29652, Note_off_c, 0, 72, 57
1, 29665, Control_c, 0, 67, 24
1, 29674, Note_on_c, 0, 73, 76
1, 29680, Control_c, 0, 67, 24
1, 29702, Note_off_c, 0, 73, 66
1, 29710, Control_c, 0, 67, 23
1, 29725, Control_c, 0, 67, 22
1, 29737, Note_on_c, 0, 74, 61
1, 29740, Control_c, 0, 67, 21
1, 29755, Control_c, 0, 67, 20
1, 29766, Note_off_c, 0, 74, 51
1, 29769, Control_c, 0, 67, 19
1, 29784, Control_c, 0, 67, 18
1, 29785, Note_on_c, 0, 76, 74
1, 29799, Control_c, 0, 67, 16
1, 29808, Note_on_c, 0, 81, 57
1, 29814, Control_c, 0, 67, 14
1, 29814, Note_on_c, 0, 75, 63
1, 29820, Note_on_c, 0, 69, 92
1, 29823, Note_on_c, 0, 64, 62
1, 29826, Note_on_c, 0, 60, 60
1, 29829, Control_c, 0, 67, 13
1, 29836, Note_on_c, 0, 57, 57
1, 29838, Note_off_c, 0, 76, 60
1, 29843, Note_off_c, 0, 69, 69
1, 29844, Control_c, 0, 64, 56
1, 29844, Note_off_c, 0, 81, 62
1, 29850, Note_off_c, 0, 64, 66
1, 29856, Note_off_c, 0, 60, 64
1, 29859, Note_off_c, 0, 57, 62
1, 29859, Control_c, 0, 64, 62
1, 29859, Control_c, 0, 67, 12
1, 29874, Control_c, 0, 64, 62
1, 29874, Control_c, 0, 67, 12
1, 29878, Note_on_c, 0, 74, 75
1, 29879, Note_off_c, 0, 75, 65
1, 29888, Control_c, 0, 64, 61
1, 29888, Control_c, 0, 67, 13
1, 29903, Control_c, 0, 64, 62
1, 29903, Control_c, 0, 67, 14
1, 29914, Note_off_c, 0, 74, 65
1, 29918, Control_c, 0, 64, 61
1, 29918, Control_c, 0, 67, 15
1, 29933, Control_c, 0, 64, 59
1, 29946, Note_on_c, 0, 73, 77
1, 29948, Control_c, 0, 64, 57
1, 29948, Control_c, 0, 67, 15
1, 29969, Control_c, 0, 64, 56
1, 29969, Control_c, 0, 67, 16
1, 29989, Note_off_c, 0, 73, 64
1, 29999, Control_c, 0, 64, 52
1, 29999, Control_c, 0, 67, 17
1, 30014, Control_c, 0, 64, 18
1, 30014, Control_c, 0, 67, 17
1, 30023, Note_on_c, 0, 72, 70
1, 30029, Control_c, 0, 64, 0
1, 30029, Control_c, 0, 67, 18
1, 30052, Note_off_c, 0, 72, 64
1, 30059, Control_c, 0, 67, 18
1, 30073, Note_on_c, 0, 77, 78
1, 30073, Control_c, 0, 67, 18
1, 30130, Note_off_c, 0, 77, 60
1, 30134, Note_on_c, 0, 76, 69
1, 30163, Control_c, 0, 67, 17
1, 30164, Note_off_c, 0, 76, 65
1, 30179, Note_on_c, 0, 75, 68
1, 30192, Control_c, 0, 67, 16
1, 30207, Control_c, 0, 67, 16
1, 30214, Note_off_c, 0, 75, 64
1, 30221, Control_c, 0, 67, 15
1, 30236, Note_on_c, 0, 76, 78
1, 30241, Note_on_c, 0, 69, 84
1, 30251, Control_c, 0, 67, 15
1, 30259, Note_off_c, 0, 76, 68
1, 30262, Note_on_c, 0, 64, 45
1, 30263, Note_on_c, 0, 60, 54
1, 30263, Note_off_c, 0, 69, 71
1, 30264, Note_on_c, 0, 57, 51
1, 30266, Control_c, 0, 67, 15
1, 30281, Control_c, 0, 67, 16
1, 30285, Note_off_c, 0, 60, 55
1, 30288, Note_off_c, 0, 57, 58
1, 30288, Note_off_c, 0, 64, 53
1, 30295, Control_c, 0, 67, 16
1, 30303, Note_on_c, 0, 75, 67
1, 30310, Control_c, 0, 67, 17
1, 30325, Control_c, 0, 67, 18
1, 30330, Note_off_c, 0, 75, 68
1, 30339, Control_c, 0, 67, 18
1, 30344, Note_on_c, 0, 74, 61
1, 30354, Control_c, 0, 67, 19
1, 30372, Note_off_c, 0, 74, 60
1, 30399, Note_on_c, 0, 73, 78
1, 30399, Control_c, 0, 67, 19
1, 30406, Note_on_c, 0, 54, 64
1, 30413, Control_c, 0, 67, 20
1, 30425, Note_on_c, 0, 57, 50
1, 30428, Note_on_c, 0, 62, 65
1, 30451, Note_off_c, 0, 57, 59
1, 30454, Note_off_c, 0, 73, 62
1, 30455, Note_off_c, 0, 54, 63
1, 30458, Control_c, 0, 67, 20
1, 30465, Note_on_c, 0, 81, 80
1, 30473, Note_on_c, 0, 69, 92
1, 30474, Note_on_c, 0, 72, 75
1, 30475, Note_off_c, 0, 62, 63
1, 30489, Control_c, 0, 67, 21
1, 30497, Note_off_c, 0, 72, 72
1, 30518, Control_c, 0, 67, 21
1, 30524, Note_off_c, 0, 69, 65
1, 30533, Control_c, 0, 67, 22
1, 30549, Note_on_c, 0, 73, 57
1, 30563, Control_c, 0, 67, 21
1, 30569, Note_off_c, 0, 73, 58
1, 30578, Control_c, 0, 67, 21
1, 30592, Control_c, 0, 67, 20
1, 30598, Note_off_c, 0, 81, 27
1, 30600, Note_on_c, 0, 74, 62
1, 30607, Control_c, 0, 67, 20
1, 30622, Control_c, 0, 67, 19
1, 30628, Note_off_c, 0, 74, 53
1, 30637, Control_c, 0, 67, 18
1, 30646, Note_on_c, 0, 75, 67
1, 30667, Control_c, 0, 67, 17
1, 30679, Note_off_c, 0, 75, 63
1, 30682, Control_c, 0, 67, 15
1, 30695, Note_on_c, 0, 76, 76
1, 30696, Note_on_c, 0, 69, 84
1, 30696, Control_c, 0, 67, 14
1, 30703, Note_on_c, 0, 64, 66
1, 30708, Note_on_c, 0, 81, 69
1, 30709, Note_on_c, 0, 60, 64
1, 30710, Note_on_c, 0, 57, 64
1, 30718, Control_c, 0, 67, 14
1, 30723, Note_off_c, 0, 69, 71
1, 30733, Control_c, 0, 64, 62
1, 30737, Note_off_c, 0, 64, 67
1, 30742, Note_off_c, 0, 60, 66
1, 30746, Note_off_c, 0, 57, 64
1, 30748, Control_c, 0, 64, 64
1, 30748, Control_c, 0, 67, 14
1, 30752, Note_off_c, 0, 76, 62
1, 30753, Note_off_c, 0, 81, 53
1, 30763, Note_on_c, 0, 75, 69
1, 30763, Control_c, 0, 67, 15
1, 30777, Control_c, 0, 67, 15
1, 30792, Control_c, 0, 67, 16
1, 30795, Note_off_c, 0, 75, 65
1, 30807, Control_c, 0, 64, 63
1, 30807, Control_c, 0, 67, 17
1, 30809, Note_on_c, 0, 74, 72
1, 30822, Control_c, 0, 64, 63
1, 30822, Control_c, 0, 67, 17
1, 30837, Control_c, 0, 64, 62
1, 30845, Note_off_c, 0, 74, 60
1, 30851, Control_c, 0, 64, 62
1, 30851, Control_c, 0, 67, 18
1, 30866, Control_c, 0, 64, 61
1, 30870, Note_on_c, 0, 73, 66
1, 30881, Control_c, 0, 64, 57
1, 30896, Control_c, 0, 64, 22
1, 30911, Control_c, 0, 64, 0
1, 30917, Note_off_c, 0, 73, 60
1, 30926, Control_c, 0, 67, 17
1, 30933, Note_on_c, 0, 74, 71
1, 30944, Note_on_c, 0, 62, 77
1, 30950, Note_on_c, 0, 57, 66
1, 30953, Note_on_c, 0, 53, 66
1, 30967, Note_off_c, 0, 62, 67
1, 30979, Note_off_c, 0, 53, 67
1, 30979, Note_off_c, 0, 57, 64
1, 30985, Note_on_c, 0, 73, 69
1, 30986, Note_off_c, 0, 74, 60
1, 31043, Note_off_c, 0, 73, 65
1, 31053, Note_on_c, 0, 72, 67
1, 31074, Control_c, 0, 67, 18
1, 31083, Note_off_c, 0, 72, 65
1, 31089, Control_c, 0, 67, 18
1, 31102, Note_on_c, 0, 71, 48
1, 31134, Note_off_c, 0, 71, 50
1, 31153, Note_on_c, 0, 72, 67
1, 31168, Note_on_c, 0, 60, 80
1, 31173, Note_on_c, 0, 57, 64
1, 31177, Control_c, 0, 67, 19
1, 31182, Note_on_c, 0, 52, 56
1, 31184, Note_off_c, 0, 72, 65
1, 31191, Note_off_c, 0, 60, 67
1, 31200, Note_off_c, 0, 57, 64
1, 31210, Note_on_c, 0, 73, 58
1, 31213, Note_off_c, 0, 52, 66
1, 31230, Note_off_c, 0, 73, 60
1, 31236, Control_c, 0, 67, 19
1, 31251, Control_c, 0, 67, 20
1, 31259, Note_on_c, 0, 74, 62
1, 31266, Control_c, 0, 67, 20
1, 31281, Control_c, 0, 67, 21
1, 31297, Control_c, 0, 67, 22
1, 31299, Note_off_c, 0, 74, 58
1, 31312, Control_c, 0, 67, 23
1, 31315, Note_on_c, 0, 75, 73
1, 31357, Control_c, 0, 67, 22
1, 31358, Note_off_c, 0, 75, 61
1, 31379, Note_on_c, 0, 76, 74
1, 31398, Note_on_c, 0, 59, 85
1, 31401, Control_c, 0, 67, 23
1, 31416, Control_c, 0, 67, 23
1, 31418, Note_on_c, 0, 50, 52
1, 31421, Note_on_c, 0, 52, 60
1, 31427, Note_off_c, 0, 76, 60
1, 31431, Control_c, 0, 67, 25
1, 31436, Note_off_c, 0, 59, 60
1, 31437, Note_on_c, 0, 77, 70
1, 31442, Note_off_c, 0, 50, 60
1, 31442, Note_off_c, 0, 52, 65
1, 31446, Control_c, 0, 67, 28
1, 31468, Control_c, 0, 67, 31
1, 31483, Control_c, 0, 67, 34
1, 31503, Note_on_c, 0, 76, 61
1, 31507, Note_off_c, 0, 77, 61
1, 31513, Control_c, 0, 67, 35
1, 31542, Control_c, 0, 67, 35
1, 31547, Note_off_c, 0, 76, 67
1, 31557, Control_c, 0, 67, 36
1, 31558, Note_on_c, 0, 75, 70
1, 31587, Control_c, 0, 67, 37
1, 31597, Note_off_c, 0, 75, 58
1, 31601, Control_c, 0, 67, 39
1, 31611, Note_on_c, 0, 76, 73
1, 31616, Control_c, 0, 67, 41
1, 31622, Note_on_c, 0, 57, 91
1, 31631, Note_on_c, 0, 52, 65
1, 31631, Control_c, 0, 67, 42
1, 31632, Note_on_c, 0, 48, 79
1, 31646, Control_c, 0, 67, 41
1, 31652, Note_off_c, 0, 76, 65
1, 31653, Note_off_c, 0, 57, 64
1, 31655, Note_off_c, 0, 52, 69
1, 31661, Control_c, 0, 67, 40
1, 31668, Note_off_c, 0, 48, 66
1, 31675, Control_c, 0, 67, 39
1, 31686, Note_on_c, 0, 75, 61
1, 31717, Note_off_c, 0, 75, 67
1, 31721, Note_on_c, 0, 74, 67
1, 31749, Control_c, 0, 67, 40
1, 31785, Note_off_c, 0, 74, 51
1, 31798, Note_on_c, 0, 73, 64
1, 31808, Control_c, 0, 67, 40
1, 31823, Control_c, 0, 67, 41
1, 31838, Control_c, 0, 67, 41
1, 31841, Note_off_c, 0, 73, 60
1, 31847, Note_on_c, 0, 74, 60
1, 31853, Control_c, 0, 67, 42
1, 31859, Note_on_c, 0, 50, 83
1, 31871, Note_on_c, 0, 41, 68
1, 31872, Note_on_c, 0, 45, 61
1, 31883, Control_c, 0, 67, 42
1, 31889, Note_off_c, 0, 50, 65
1, 31896, Note_off_c, 0, 45, 63
1, 31898, Note_off_c, 0, 41, 67
1, 31913, Control_c, 0, 67, 43
1, 31914, Note_on_c, 0, 73, 65
1, 31920, Note_off_c, 0, 74, 64
1, 31932, Note_off_c, 0, 73, 63
1, 31942, Control_c, 0, 67, 43
1, 31957, Control_c, 0, 67, 44
1, 31959, Note_on_c, 0, 72, 73
1, 31972, Control_c, 0, 67, 46
1, 31987, Control_c, 0, 67, 50
1, 32000, Note_off_c, 0, 72, 64
1, 32002, Control_c, 0, 67, 53
1, 32017, Control_c, 0, 67, 56
1, 32019, Note_on_c, 0, 71, 66
1, 32032, Control_c, 0, 67, 58
1, 32047, Control_c, 0, 67, 59
1, 32061, Note_off_c, 0, 71, 50
1, 32061, Control_c, 0, 67, 58
1, 32076, Control_c, 0, 67, 58
1, 32083, Note_on_c, 0, 72, 72
1, 32092, Control_c, 0, 67, 57
1, 32093, Note_on_c, 0, 48, 84
1, 32097, Note_on_c, 0, 45, 63
1, 32106, Control_c, 0, 67, 57
1, 32117, Note_off_c, 0, 72, 60
1, 32120, Note_on_c, 0, 40, 48
1, 32121, Control_c, 0, 67, 56
1, 32125, Note_off_c, 0, 45, 65
1, 32127, Note_off_c, 0, 48, 68
1, 32136, Control_c, 0, 67, 56
1, 32154, Note_off_c, 0, 40, 48
1, 32166, Control_c, 0, 67, 55
1, 32169, Note_on_c, 0, 74, 67
1, 32181, Control_c, 0, 67, 55
1, 32220, Note_off_c, 0, 74, 64
1, 32232, Note_on_c, 0, 75, 78
1, 32247, Control_c, 0, 67, 55
1, 32270, Note_off_c, 0, 75, 61
1, 32277, Control_c, 0, 67, 56
1, 32306, Note_on_c, 0, 76, 71
1, 32306, Control_c, 0, 67, 56
1, 32315, Note_on_c, 0, 47, 90
1, 32328, Note_on_c, 0, 40, 58
1, 32332, Note_on_c, 0, 38, 58
1, 32336, Control_c, 0, 67, 57
1, 32354, Note_on_c, 0, 78, 82
1, 32356, Note_off_c, 0, 76, 62
1, 32357, Note_off_c, 0, 40, 59
1, 32363, Note_off_c, 0, 38, 63
1, 32381, Control_c, 0, 67, 56
1, 32381, Note_off_c, 0, 47, 57
1, 32396, Control_c, 0, 67, 56
1, 32408, Note_off_c, 0, 78, 0
1, 32425, Control_c, 0, 67, 57
1, 32428, Note_on_c, 0, 79, 48
1, 32442, Poly_aftertouch_c, 0, 78, 0
1, 32444, Note_on_c, 0, 77, 49
1, 32455, Note_on_c, 0, 37, 67
1, 32455, Control_c, 0, 67, 58
1, 32464, Note_off_c, 0, 79, 52
1, 32468, Note_off_c, 0, 77, 52
1, 32476, Note_on_c, 0, 80, 77
1, 32494, Note_on_c, 0, 45, 75
1, 32494, Note_off_c, 0, 37, 66
1, 32499, Control_c, 0, 67, 57
1, 32514, Control_c, 0, 67, 57
1, 32529, Control_c, 0, 67, 56
1, 32530, Note_on_c, 0, 52, 98
1, 32531, Note_on_c, 0, 81, 77
1, 32533, Note_off_c, 0, 80, 66
1, 32543, Control_c, 0, 67, 54
1, 32558, Control_c, 0, 64, 46
1, 32558, Control_c, 0, 67, 52
1, 32562, Note_off_c, 0, 45, 57
1, 32569, Note_off_c, 0, 52, 62
1, 32573, Control_c, 0, 64, 71
1, 32573, Control_c, 0, 67, 49
1, 32588, Control_c, 0, 64, 77
1, 32588, Control_c, 0, 67, 48
1, 32599, Note_on_c, 0, 80, 69
1, 32603, Control_c, 0, 64, 80
1, 32603, Control_c, 0, 67, 47
1, 32610, Note_off_c, 0, 81, 55
1, 32617, Control_c, 0, 64, 81
1, 32617, Control_c, 0, 67, 46
1, 32632, Control_c, 0, 67, 44
1, 32647, Note_on_c, 0, 79, 64
1, 32647, Control_c, 0, 64, 80
1, 32647, Control_c, 0, 67, 44
1, 32662, Control_c, 0, 64, 79
1, 32677, Control_c, 0, 64, 75
1, 32681, Note_off_c, 0, 80, 59
1, 32684, Note_on_c, 0, 38, 64
1, 32691, Control_c, 0, 64, 68
1, 32691, Control_c, 0, 67, 44
1, 32694, Note_on_c, 0, 78, 72
1, 32697, Note_off_c, 0, 79, 61
1, 32702, Note_on_c, 0, 45, 60
1, 32706, Control_c, 0, 64, 0
1, 32733, Note_off_c, 0, 38, 62
1, 32736, Control_c, 0, 67, 45
1, 32745, Note_off_c, 0, 78, 62
1, 32751, Note_on_c, 0, 77, 70
1, 32765, Control_c, 0, 67, 45
1, 32767, Note_off_c, 0, 45, 63
1, 32770, Note_on_c, 0, 53, 94
1, 32780, Control_c, 0, 64, 40
1, 32780, Control_c, 0, 67, 46
1, 32781, Note_off_c, 0, 77, 61
1, 32795, Control_c, 0, 64, 66
1, 32795, Control_c, 0, 67, 46
1, 32797, Note_off_c, 0, 53, 67
1, 32808, Note_on_c, 0, 82, 72
1, 32810, Control_c, 0, 64, 72
1, 32810, Control_c, 0, 67, 47
1, 32824, Control_c, 0, 64, 75
1, 32824, Control_c, 0, 67, 48
1, 32838, Note_off_c, 0, 82, 49
1, 32839, Control_c, 0, 64, 77
1, 32839, Control_c, 0, 67, 48
1, 32854, Control_c, 0, 67, 49
1, 32869, Control_c, 0, 67, 50
1, 32887, Note_on_c, 0, 81, 44
1, 32899, Control_c, 0, 67, 51
1, 32914, Control_c, 0, 64, 77
1, 32914, Note_off_c, 0, 81, 48
1, 32920, Note_on_c, 0, 80, 69
1, 32944, Control_c, 0, 64, 77
1, 32965, Control_c, 0, 64, 71
1, 32965, Control_c, 0, 67, 50
1, 32974, Note_off_c, 0, 80, 63
1, 32980, Control_c, 0, 64, 0
1, 32980, Control_c, 0, 67, 50
1, 32986, Note_on_c, 0, 81, 87
1, 32995, Control_c, 0, 67, 49
1, 33025, Note_off_c, 0, 81, 61
1, 33039, Control_c, 0, 67, 50
1, 33054, Control_c, 0, 67, 51
1, 33056, Note_on_c, 0, 80, 74
1, 33069, Control_c, 0, 67, 51
1, 33098, Note_off_c, 0, 80, 65
1, 33108, Note_on_c, 0, 79, 68
1, 33131, Note_off_c, 0, 79, 59
1, 33135, Note_on_c, 0, 46, 62
1, 33144, Control_c, 0, 67, 51
1, 33167, Note_on_c, 0, 78, 76
1, 33172, Note_on_c, 0, 55, 59
1, 33172, Note_off_c, 0, 46, 64
1, 33188, Control_c, 0, 67, 51
1, 33194, Note_off_c, 0, 78, 59
1, 33201, Note_off_c, 0, 55, 66
1, 33212, Note_on_c, 0, 62, 86
1, 33218, Control_c, 0, 67, 52
1, 33221, Note_on_c, 0, 86, 77
1, 33227, Note_on_c, 0, 77, 83
1, 33233, Control_c, 0, 67, 53
1, 33247, Control_c, 0, 67, 54
1, 33257, Note_off_c, 0, 77, 59
1, 33262, Control_c, 0, 67, 55
1, 33266, Note_off_c, 0, 62, 60
1, 33277, Control_c, 0, 67, 55
1, 33293, Note_off_c, 0, 86, 63
1, 33296, Note_on_c, 0, 78, 77
1, 33319, Note_off_c, 0, 78, 69
1, 33321, Control_c, 0, 67, 55
1, 33336, Control_c, 0, 67, 54
1, 33349, Note_on_c, 0, 50, 57
1, 33351, Control_c, 0, 67, 53
1, 33356, Note_on_c, 0, 79, 69
1, 33365, Control_c, 0, 67, 53
1, 33380, Control_c, 0, 67, 52
1, 33395, Control_c, 0, 67, 51
1, 33397, Note_on_c, 0, 57, 65
1, 33399, Note_off_c, 0, 79, 52
1, 33405, Note_off_c, 0, 50, 62
1, 33410, Control_c, 0, 67, 50
1, 33415, Note_on_c, 0, 80, 62
1, 33425, Control_c, 0, 67, 48
1, 33430, Note_on_c, 0, 81, 71
1, 33432, Note_on_c, 0, 86, 64
1, 33434, Note_off_c, 0, 80, 62
1, 33439, Control_c, 0, 67, 46
1, 33445, Note_on_c, 0, 65, 90
1, 33454, Control_c, 0, 67, 44
1, 33467, Note_off_c, 0, 65, 69
1, 33469, Control_c, 0, 64, 68
1, 33473, Note_off_c, 0, 81, 59
1, 33484, Poly_aftertouch_c, 0, 55, 0
1, 33484, Control_c, 0, 64, 74
1, 33485, Note_off_c, 0, 57, 57
1, 33485, Note_off_c, 0, 86, 61
1, 33487, Note_on_c, 0, 80, 76
1, 33499, Control_c, 0, 64, 77
1, 33499, Control_c, 0, 67, 43
1, 33513, Control_c, 0, 67, 44
1, 33528, Control_c, 0, 67, 44
1, 33531, Note_on_c, 0, 79, 79
1, 33540, Note_off_c, 0, 80, 62
1, 33543, Control_c, 0, 67, 45
1, 33558, Control_c, 0, 67, 46
1, 33570, Note_off_c, 0, 79, 64
1, 33573, Control_c, 0, 67, 46
1, 33588, Control_c, 0, 67, 47
1, 33602, Note_on_c, 0, 78, 80
1, 33618, Control_c, 0, 64, 75
1, 33618, Control_c, 0, 67, 48
1, 33623, Note_off_c, 0, 78, 68
1, 33632, Control_c, 0, 64, 68
1, 33632, Control_c, 0, 67, 47
1, 33647, Control_c, 0, 64, 0
1, 33659, Note_on_c, 0, 77, 80
1, 33689, Note_off_c, 0, 77, 60
1, 33707, Control_c, 0, 67, 48
1, 33723, Note_on_c, 0, 82, 76
1, 33778, Note_on_c, 0, 81, 74
1, 33786, Note_off_c, 0, 82, 61
1, 33791, Note_on_c, 0, 41, 57
1, 33818, Control_c, 0, 67, 47
1, 33820, Note_off_c, 0, 81, 63
1, 33828, Note_off_c, 0, 41, 65
1, 33829, Note_on_c, 0, 50, 59
1, 33832, Note_on_c, 0, 80, 70
1, 33848, Control_c, 0, 67, 46
1, 33860, Note_off_c, 0, 80, 67
1, 33869, Note_off_c, 0, 50, 64
1, 33886, Note_on_c, 0, 57, 82
1, 33888, Note_on_c, 0, 81, 84
1, 33907, Control_c, 0, 67, 47
1, 33922, Control_c, 0, 67, 47
1, 33926, Note_off_c, 0, 81, 66
1, 33937, Note_off_c, 0, 57, 62
1, 33952, Control_c, 0, 67, 48
1, 33958, Note_on_c, 0, 80, 72
1, 33967, Control_c, 0, 67, 48
1, 33981, Note_off_c, 0, 80, 70
1, 33981, Control_c, 0, 67, 49
1, 33993, Note_on_c, 0, 79, 68
1, 33996, Control_c, 0, 67, 50
1, 34011, Control_c, 0, 67, 51
1, 34026, Control_c, 0, 67, 51
1, 34031, Note_off_c, 0, 79, 56
1, 34034, Note_on_c, 0, 46, 57
1, 34053, Note_on_c, 0, 78, 76
1, 34068, Note_on_c, 0, 55, 58
1, 34075, Note_off_c, 0, 46, 66
1, 34101, Note_off_c, 0, 78, 58
1, 34108, Note_on_c, 0, 86, 77
1, 34108, Note_off_c, 0, 55, 66
1, 34113, Note_on_c, 0, 62, 84
1, 34122, Note_on_c, 0, 77, 71
1, 34142, Note_off_c, 0, 77, 66
1, 34144, Control_c, 0, 67, 52
1, 34166, Note_off_c, 0, 62, 60
1, 34183, Note_off_c, 0, 86, 62
1, 34187, Note_on_c, 0, 78, 69
1, 34203, Control_c, 0, 67, 51
1, 34215, Note_off_c, 0, 78, 66
1, 34232, Note_on_c, 0, 50, 58
1, 34247, Note_on_c, 0, 79, 67
1, 34248, Control_c, 0, 67, 51
1, 34262, Control_c, 0, 67, 50
1, 34277, Control_c, 0, 67, 49
1, 34284, Note_off_c, 0, 79, 46
1, 34290, Note_on_c, 0, 57, 65
1, 34292, Control_c, 0, 67, 48
1, 34293, Note_off_c, 0, 50, 61
1, 34296, Note_on_c, 0, 80, 79
1, 34306, Control_c, 0, 67, 45
1, 34321, Control_c, 0, 67, 43
1, 34327, Note_on_c, 0, 65, 94
1, 34336, Control_c, 0, 67, 42
1, 34348, Note_on_c, 0, 86, 69
1, 34348, Note_off_c, 0, 80, 63
1, 34351, Note_on_c, 0, 81, 76
1, 34351, Control_c, 0, 64, 59
1, 34351, Control_c, 0, 67, 40
1, 34352, Note_off_c, 0, 65, 67
1, 34366, Control_c, 0, 64, 71
1, 34366, Control_c, 0, 67, 40
1, 34371, Note_off_c, 0, 57, 62
1, 34381, Control_c, 0, 64, 77
1, 34381, Control_c, 0, 67, 40
1, 34384, Note_off_c, 0, 86, 65
1, 34396, Control_c, 0, 64, 80
1, 34396, Control_c, 0, 67, 42
1, 34404, Note_off_c, 0, 81, 60
1, 34411, Control_c, 0, 64, 80
1, 34411, Control_c, 0, 67, 43
1, 34412, Note_on_c, 0, 80, 65
1, 34426, Control_c, 0, 67, 44
1, 34437, Note_off_c, 0, 80, 63
1, 34446, Note_on_c, 0, 79, 67
1, 34462, Control_c, 0, 67, 45
1, 34477, Control_c, 0, 67, 44
1, 34492, Note_off_c, 0, 79, 61
1, 34493, Control_c, 0, 64, 80
1, 34508, Control_c, 0, 64, 79
1, 34523, Control_c, 0, 64, 74
1, 34529, Note_on_c, 0, 78, 74
1, 34538, Control_c, 0, 64, 64
1, 34553, Control_c, 0, 64, 0
1, 34553, Control_c, 0, 67, 45
1, 34554, Note_off_c, 0, 78, 66
1, 34556, Note_on_c, 0, 55, 81
1, 34566, Note_on_c, 0, 46, 68
1, 34574, Note_on_c, 0, 50, 58
1, 34581, Note_off_c, 0, 55, 69
1, 34582, Note_on_c, 0, 79, 75
1, 34582, Control_c, 0, 67, 45
1, 34598, Note_off_c, 0, 50, 61
1, 34607, Note_off_c, 0, 46, 60
1, 34656, Note_on_c, 0, 78, 76
1, 34661, Note_off_c, 0, 79, 60
1, 34671, Control_c, 0, 67, 46
1, 34711, Note_off_c, 0, 78, 64
1, 34712, Note_on_c, 0, 77, 77
1, 34715, Control_c, 0, 67, 45
1, 34730, Control_c, 0, 67, 45
1, 34745, Control_c, 0, 67, 44
1, 34749, Note_off_c, 0, 77, 58
1, 34762, Note_on_c, 0, 76, 69
1, 34774, Control_c, 0, 67, 44
1, 34785, Note_on_c, 0, 50, 57
1, 34787, Note_on_c, 0, 53, 76
1, 34789, Control_c, 0, 67, 43
1, 34790, Note_on_c, 0, 45, 69
1, 34804, Control_c, 0, 67, 43
1, 34808, Note_off_c, 0, 76, 64
1, 34810, Note_on_c, 0, 77, 72
1, 34812, Note_off_c, 0, 53, 68
1, 34812, Note_off_c, 0, 50, 65
1, 34825, Note_off_c, 0, 45, 64
1, 34834, Control_c, 0, 67, 42
1, 34849, Note_off_c, 0, 77, 63
1, 34849, Control_c, 0, 67, 43
1, 34855, Note_on_c, 0, 78, 71
1, 34879, Control_c, 0, 67, 44
1, 34879, Note_off_c, 0, 78, 69
1, 34893, Control_c, 0, 67, 44
1, 34908, Control_c, 0, 67, 45
1, 34914, Note_on_c, 0, 79, 68
1, 34923, Control_c, 0, 67, 46
1, 34937, Control_c, 0, 67, 46
1, 34952, Control_c, 0, 67, 47
1, 34959, Note_off_c, 0, 79, 62
1, 34967, Note_on_c, 0, 80, 80
1, 34967, Control_c, 0, 67, 47
1, 34997, Control_c, 0, 67, 48
1, 35005, Note_off_c, 0, 80, 64
1, 35008, Note_on_c, 0, 49, 75
1, 35010, Note_on_c, 0, 52, 76
1, 35028, Note_on_c, 0, 81, 78
1, 35037, Note_off_c, 0, 52, 68
1, 35038, Note_off_c, 0, 49, 67
1, 35041, Control_c, 0, 67, 49
1, 35064, Note_off_c, 0, 81, 62
1, 35072, Note_on_c, 0, 82, 69
1, 35072, Control_c, 0, 67, 50
1, 35129, Note_on_c, 0, 81, 62
1, 35137, Note_off_c, 0, 82, 66
1, 35145, Control_c, 0, 67, 49
1, 35175, Control_c, 0, 67, 48
1, 35184, Note_on_c, 0, 80, 78
1, 35188, Note_off_c, 0, 81, 61
1, 35190, Control_c, 0, 67, 47
1, 35212, Control_c, 0, 67, 45
1, 35220, Note_on_c, 0, 50, 85
1, 35224, Note_on_c, 0, 45, 70
1, 35227, Note_on_c, 0, 41, 72
1, 35227, Control_c, 0, 67, 42
1, 35242, Control_c, 0, 67, 39
1, 35250, Note_off_c, 0, 50, 67
1, 35251, Note_off_c, 0, 45, 66
1, 35257, Note_off_c, 0, 41, 67
1, 35257, Control_c, 0, 64, 65
1, 35257, Control_c, 0, 67, 37
1, 35265, Note_off_c, 0, 80, 62
1, 35272, Control_c, 0, 64, 68
1, 35272, Control_c, 0, 67, 37
1, 35287, Control_c, 0, 64, 69
1, 35290, Note_on_c, 0, 81, 49
1, 35302, Control_c, 0, 64, 70
1, 35314, Note_off_c, 0, 81, 37
1, 35317, Control_c, 0, 64, 71
1, 35332, Control_c, 0, 67, 37
1, 35347, Control_c, 0, 67, 38
1, 35362, Poly_aftertouch_c, 0, 79, 0
1, 35376, Control_c, 0, 64, 71
1, 35376, Control_c, 0, 67, 39
1, 35376, Note_on_c, 0, 78, 22
1, 35391, Control_c, 0, 64, 69
1, 35391, Control_c, 0, 67, 38
1, 35406, Control_c, 0, 64, 66
1, 35421, Control_c, 0, 64, 43
1, 35435, Control_c, 0, 64, 0
1, 35439, Note_on_c, 0, 53, 56
1, 35445, Note_on_c, 0, 57, 87
1, 35446, Note_on_c, 0, 50, 71
1, 35448, Note_off_c, 0, 78, 62
1, 35465, Control_c, 0, 67, 39
1, 35480, Control_c, 0, 67, 39
1, 35483, Note_off_c, 0, 53, 68
1, 35487, Note_off_c, 0, 57, 61
1, 35509, Note_off_c, 0, 50, 61
1, 35539, Control_c, 0, 64, 49
1, 35541, Note_on_c, 0, 78, 47
1, 35554, Control_c, 0, 64, 58
1, 35566, Note_off_c, 0, 78, 37
1, 35567, Poly_aftertouch_c, 0, 79, 0
1, 35568, Control_c, 0, 64, 59
1, 35583, Control_c, 0, 64, 57
1, 35598, Control_c, 0, 64, 37
1, 35600, Note_on_c, 0, 79, 61
1, 35613, Control_c, 0, 64, 0
1, 35636, Note_off_c, 0, 79, 60
1, 35648, Note_on_c, 0, 48, 68
1, 35651, Note_on_c, 0, 59, 85
1, 35657, Control_c, 0, 67, 40
1, 35661, Note_on_c, 0, 52, 73
1, 35667, Note_on_c, 0, 81, 83
1, 35672, Control_c, 0, 67, 41
1, 35681, Note_off_c, 0, 59, 64
1, 35689, Note_on_c, 0, 50, 23
1, 35695, Note_on_c, 0, 83, 55
1, 35701, Note_off_c, 0, 81, 56
1, 35702, Control_c, 0, 64, 47
1, 35702, Control_c, 0, 67, 42
1, 35707, Note_off_c, 0, 52, 61
1, 35716, Control_c, 0, 64, 62
1, 35716, Control_c, 0, 67, 42
1, 35725, Note_off_c, 0, 83, 0
1, 35725, Note_on_c, 0, 83, 32
1, 35730, Note_off_c, 0, 50, 29
1, 35731, Control_c, 0, 64, 65
1, 35731, Control_c, 0, 67, 43
1, 35746, Control_c, 0, 64, 66
1, 35758, Note_off_c, 0, 83, 61
1, 35761, Control_c, 0, 67, 44
1, 35791, Control_c, 0, 64, 63
1, 35791, Control_c, 0, 67, 44
1, 35806, Control_c, 0, 64, 30
1, 35806, Control_c, 0, 67, 45
1, 35806, Note_off_c, 0, 48, 25
1, 35818, Note_on_c, 0, 86, 86
1, 35821, Control_c, 0, 64, 0
1, 35821, Control_c, 0, 67, 46
1, 35835, Control_c, 0, 67, 47
1, 35850, Control_c, 0, 67, 50
1, 35855, Note_off_c, 0, 86, 63
1, 35860, Note_on_c, 0, 56, 78
1, 35865, Note_on_c, 0, 60, 72
1, 35865, Control_c, 0, 67, 57
1, 35866, Note_on_c, 0, 59, 74
1, 35868, Note_on_c, 0, 48, 39
1, 35871, Note_on_c, 0, 88, 86
1, 35874, Note_on_c, 0, 52, 62
1, 35880, Control_c, 0, 64, 61
1, 35880, Control_c, 0, 67, 67
1, 35889, Note_off_c, 0, 56, 68
1, 35889, Note_off_c, 0, 60, 68
1, 35892, Note_off_c, 0, 59, 65
1, 35895, Control_c, 0, 64, 67
1, 35895, Control_c, 0, 67, 77
1, 35900, Note_off_c, 0, 48, 58
1, 35904, Note_off_c, 0, 52, 67
1, 35909, Control_c, 0, 64, 70
1, 35909, Control_c, 0, 67, 82
1, 35924, Control_c, 0, 64, 71
1, 35924, Control_c, 0, 67, 81
1, 35934, Note_on_c, 0, 89, 85
1, 35939, Control_c, 0, 67, 79
1, 35942, Note_off_c, 0, 88, 61
1, 35961, Control_c, 0, 64, 70
1, 35961, Control_c, 0, 67, 78
1, 35976, Control_c, 0, 64, 68
1, 35991, Control_c, 0, 64, 66
1, 35991, Control_c, 0, 67, 77
1, 36002, Note_on_c, 0, 88, 58
1, 36005, Control_c, 0, 64, 62
1, 36005, Control_c, 0, 67, 77
1, 36020, Control_c, 0, 64, 0
1, 36020, Control_c, 0, 67, 76
1, 36035, Control_c, 0, 67, 75
1, 36041, Note_on_c, 0, 45, 72
1, 36044, Note_off_c, 0, 89, 61
1, 36049, Note_off_c, 0, 88, 64
1, 36050, Control_c, 0, 67, 73
1, 36055, Note_on_c, 0, 52, 40
1, 36056, Note_on_c, 0, 87, 67
1, 36065, Control_c, 0, 67, 69
1, 36074, Note_off_c, 0, 87, 41
1, 36080, Control_c, 0, 67, 62
1, 36084, Note_off_c, 0, 45, 64
1, 36095, Control_c, 0, 64, 26
1, 36095, Control_c, 0, 67, 44
1, 36101, Note_on_c, 0, 88, 82
1, 36110, Note_on_c, 0, 60, 96
1, 36110, Control_c, 0, 64, 67
1, 36110, Control_c, 0, 67, 26
1, 36122, Note_off_c, 0, 52, 67
1, 36125, Control_c, 0, 64, 72
1, 36125, Control_c, 0, 67, 0
1, 36138, Note_off_c, 0, 60, 64
1, 36140, Control_c, 0, 64, 76
1, 36147, Note_off_c, 0, 88, 64
1, 36154, Control_c, 0, 64, 77
1, 36176, Note_on_c, 0, 87, 59
1, 36184, Control_c, 0, 64, 76
1, 36199, Control_c, 0, 64, 70
1, 36211, Note_on_c, 0, 86, 89
1, 36214, Control_c, 0, 64, 0
1, 36218, Note_off_c, 0, 87, 65
1, 36236, Note_on_c, 0, 60, 79
1, 36242, Note_on_c, 0, 64, 73
1, 36243, Note_on_c, 0, 69, 75
1, 36249, Note_off_c, 0, 86, 65
1, 36266, Note_off_c, 0, 69, 72
1, 36267, Note_off_c, 0, 64, 68
1, 36269, Note_off_c, 0, 60, 64
1, 36319, Note_on_c, 0, 84, 67
1, 36371, Note_off_c, 0, 84, 64
1, 36379, Note_on_c, 0, 89, 83
1, 36438, Note_on_c, 0, 88, 73
1, 36439, Note_off_c, 0, 89, 65
1, 36479, Note_off_c, 0, 88, 64
1, 36482, Note_on_c, 0, 87, 75
1, 36529, Note_off_c, 0, 87, 49
1, 36543, Note_on_c, 0, 88, 80
1, 36548, Note_on_c, 0, 60, 90
1, 36564, Note_off_c, 0, 88, 67
1, 36569, Poly_aftertouch_c, 0, 52, 127
1, 36574, Note_off_c, 0, 60, 67
1, 36590, Poly_aftertouch_c, 0, 52, 0
1, 36593, Poly_aftertouch_c, 0, 53, 0
1, 36606, Note_on_c, 0, 87, 60
1, 36631, Note_on_c, 0, 86, 84
1, 36636, Note_off_c, 0, 87, 66
1, 36649, Poly_aftertouch_c, 0, 51, 0
1, 36668, Note_off_c, 0, 86, 64
1, 36686, Poly_aftertouch_c, 0, 51, 127
1, 36715, Note_on_c, 0, 85, 74
1, 36729, Note_on_c, 0, 42, 74
1, 36730, Poly_aftertouch_c, 0, 51, 0
1, 36765, Note_on_c, 0, 93, 88
1, 36772, Note_off_c, 0, 85, 64
1, 36775, Note_on_c, 0, 84, 82
1, 36778, Note_off_c, 0, 42, 62
1, 36786, Note_on_c, 0, 57, 84
1, 36796, Note_off_c, 0, 84, 67
1, 36836, Note_off_c, 0, 57, 61
1, 36841, Note_on_c, 0, 85, 77
1, 36874, Note_off_c, 0, 93, 39
1, 36892, Note_off_c, 0, 85, 66
1, 36914, Note_on_c, 0, 45, 51
1, 36915, Note_on_c, 0, 86, 70
1, 36956, Note_on_c, 0, 52, 76
1, 36958, Note_off_c, 0, 86, 47
1, 36966, Note_on_c, 0, 87, 82
1, 36968, Note_off_c, 0, 45, 64
1, 36977, Note_on_c, 0, 50, 30
1, 36995, Note_on_c, 0, 93, 72
1, 36996, Note_on_c, 0, 60, 87
1, 36996, Note_off_c, 0, 52, 68
1, 37000, Note_off_c, 0, 87, 46
1, 37004, Note_on_c, 0, 88, 61
1, 37007, Control_c, 0, 64, 72
1, 37014, Note_off_c, 0, 50, 39
1, 37020, Note_off_c, 0, 60, 64
1, 37022, Control_c, 0, 64, 81
1, 37037, Control_c, 0, 64, 89
1, 37052, Control_c, 0, 64, 91
1, 37063, Note_off_c, 0, 93, 61
1, 37067, Control_c, 0, 64, 92
1, 37076, Note_off_c, 0, 88, 59
1, 37081, Control_c, 0, 64, 92
1, 37096, Control_c, 0, 64, 92
1, 37108, Note_on_c, 0, 86, 70
1, 37116, Note_on_c, 0, 84, 70
1, 37126, Control_c, 0, 64, 90
1, 37132, Note_off_c, 0, 84, 69
1, 37135, Note_off_c, 0, 86, 63
1, 37135, Note_on_c, 0, 60, 74
1, 37140, Note_on_c, 0, 69, 78
1, 37140, Control_c, 0, 64, 86
1, 37146, Note_on_c, 0, 64, 66
1, 37155, Control_c, 0, 64, 73
1, 37161, Note_off_c, 0, 69, 74
1, 37162, Note_off_c, 0, 60, 60
1, 37170, Note_off_c, 0, 64, 65
1, 37170, Control_c, 0, 64, 40
1, 37185, Control_c, 0, 64, 0
1, 37198, Note_on_c, 0, 84, 67
1, 37263, Note_off_c, 0, 84, 58
1, 37272, Note_on_c, 0, 89, 80
1, 37333, Note_off_c, 0, 89, 66
1, 37342, Note_on_c, 0, 88, 63
1, 37344, Note_on_c, 0, 45, 60
1, 37374, Note_on_c, 0, 87, 65
1, 37375, Note_off_c, 0, 88, 64
1, 37377, Note_off_c, 0, 45, 65
1, 37383, Note_on_c, 0, 52, 65
1, 37420, Note_on_c, 0, 60, 85
1, 37438, Note_off_c, 0, 87, 63
1, 37439, Note_on_c, 0, 88, 77
1, 37442, Note_off_c, 0, 60, 69
1, 37450, Note_off_c, 0, 52, 60
1, 37492, Note_off_c, 0, 88, 42
1, 37509, Note_on_c, 0, 87, 63
1, 37538, Note_off_c, 0, 87, 67
1, 37544, Note_on_c, 0, 86, 59
1, 37563, Note_off_c, 0, 86, 62
1, 37586, Note_on_c, 0, 42, 69
1, 37605, Note_on_c, 0, 85, 82
1, 37621, Note_off_c, 0, 42, 67
1, 37621, Control_c, 0, 67, 10
1, 37636, Control_c, 0, 67, 12
1, 37638, Note_on_c, 0, 50, 46
1, 37643, Note_on_c, 0, 93, 63
1, 37651, Control_c, 0, 67, 13
1, 37652, Note_on_c, 0, 57, 77
1, 37660, Note_off_c, 0, 85, 63
1, 37663, Note_off_c, 0, 50, 56
1, 37666, Control_c, 0, 67, 14
1, 37672, Note_on_c, 0, 84, 79
1, 37698, Note_off_c, 0, 57, 50
1, 37709, Note_off_c, 0, 84, 48
1, 37711, Control_c, 0, 67, 13
1, 37725, Control_c, 0, 67, 13
1, 37740, Control_c, 0, 67, 12
1, 37741, Note_on_c, 0, 85, 60
1, 37743, Note_off_c, 0, 93, 56
1, 37755, Control_c, 0, 67, 11
1, 37760, Note_off_c, 0, 85, 64
1, 37770, Control_c, 0, 67, 10
1, 37779, Note_on_c, 0, 45, 53
1, 37785, Control_c, 0, 67, 9
1, 37800, Control_c, 0, 67, 8
1, 37815, Control_c, 0, 67, 0
1, 37820, Note_on_c, 0, 52, 65
1, 37845, Note_on_c, 0, 93, 82
1, 37846, Note_on_c, 0, 88, 63
1, 37847, Note_off_c, 0, 45, 64
1, 37864, Note_off_c, 0, 52, 67
1, 37874, Note_off_c, 0, 88, 66
1, 37874, Note_off_c, 0, 93, 60
1, 37878, Note_on_c, 0, 60, 75
1, 37889, Control_c, 0, 64, 55
1, 37901, Note_off_c, 0, 60, 69
1, 37903, Control_c, 0, 64, 69
1, 37918, Control_c, 0, 64, 75
1, 37933, Control_c, 0, 64, 80
1, 37948, Control_c, 0, 64, 82
1, 37962, Control_c, 0, 64, 84
1, 37977, Control_c, 0, 64, 85
1, 37998, Note_on_c, 0, 80, 60
1, 38017, Note_off_c, 0, 80, 65
1, 38022, Control_c, 0, 64, 84
1, 38032, Note_on_c, 0, 81, 76
1, 38036, Control_c, 0, 64, 81
1, 38051, Control_c, 0, 64, 73
1, 38057, Note_off_c, 0, 81, 65
1, 38067, Control_c, 0, 64, 42
1, 38082, Control_c, 0, 64, 0
1, 38089, Note_on_c, 0, 69, 64
1, 38090, Note_on_c, 0, 82, 76
1, 38119, Note_off_c, 0, 69, 67
1, 38128, Note_off_c, 0, 82, 66
1, 38159, Note_on_c, 0, 83, 64
1, 38188, Note_off_c, 0, 83, 58
1, 38217, Note_on_c, 0, 84, 79
1, 38219, Note_on_c, 0, 65, 69
1, 38246, Note_off_c, 0, 65, 69
1, 38263, Note_off_c, 0, 84, 60
1, 38279, Note_on_c, 0, 85, 76
1, 38313, Note_on_c, 0, 53, 80
1, 38313, Note_on_c, 0, 62, 86
1, 38321, Note_off_c, 0, 85, 61
1, 38335, Note_on_c, 0, 86, 74
1, 38337, Note_on_c, 0, 55, 55
1, 38338, Note_off_c, 0, 55, 127
1, 38348, Note_off_c, 0, 62, 64
1, 38391, Note_on_c, 0, 85, 67
1, 38402, Note_off_c, 0, 86, 63
1, 38422, Note_off_c, 0, 85, 67
1, 38439, Note_on_c, 0, 59, 76
1, 38441, Note_on_c, 0, 84, 74
1, 38483, Note_off_c, 0, 84, 63
1, 38488, Note_off_c, 0, 59, 59
1, 38500, Note_on_c, 0, 83, 69
1, 38526, Note_off_c, 0, 83, 65
1, 38553, Note_on_c, 0, 62, 78
1, 38554, Note_on_c, 0, 84, 72
1, 38584, Note_off_c, 0, 84, 60
1, 38605, Note_off_c, 0, 62, 58
1, 38608, Note_on_c, 0, 83, 65
1, 38631, Note_off_c, 0, 53, 60
1, 38641, Note_off_c, 0, 83, 56
1, 38665, Note_on_c, 0, 65, 77
1, 38667, Note_on_c, 0, 82, 74
1, 38696, Note_off_c, 0, 82, 62
1, 38721, Note_off_c, 0, 65, 64
1, 38724, Note_on_c, 0, 81, 83
1, 38763, Note_off_c, 0, 81, 61
1, 38773, Note_on_c, 0, 69, 87
1, 38780, Note_on_c, 0, 80, 77
1, 38795, Note_off_c, 0, 69, 70
1, 38838, Note_off_c, 0, 80, 64
1, 38841, Note_on_c, 0, 81, 70
1, 38880, Note_off_c, 0, 81, 57
1, 38885, Note_on_c, 0, 82, 80
1, 38938, Note_off_c, 0, 82, 63
1, 38966, Note_on_c, 0, 83, 73
1, 38993, Note_off_c, 0, 83, 58
1, 39001, Note_on_c, 0, 52, 81
1, 39019, Note_on_c, 0, 84, 85
1, 39037, Note_off_c, 0, 52, 68
1, 39066, Note_off_c, 0, 84, 62
1, 39073, Note_on_c, 0, 85, 78
1, 39101, Note_off_c, 0, 85, 66
1, 39133, Note_on_c, 0, 86, 71
1, 39186, Note_off_c, 0, 86, 63
1, 39189, Note_on_c, 0, 87, 75
1, 39211, Note_off_c, 0, 87, 69
1, 39219, Note_on_c, 0, 68, 103
1, 39219, Note_on_c, 0, 62, 84
1, 39220, Note_on_c, 0, 64, 85
1, 39241, Note_on_c, 0, 88, 83
1, 39289, Note_on_c, 0, 89, 73
1, 39296, Note_off_c, 0, 88, 62
1, 39298, Control_c, 0, 64, 60
1, 39313, Control_c, 0, 64, 66
1, 39328, Control_c, 0, 64, 71
1, 39342, Control_c, 0, 64, 78
1, 39352, Note_on_c, 0, 88, 71
1, 39357, Control_c, 0, 64, 87
1, 39368, Note_off_c, 0, 89, 65
1, 39372, Control_c, 0, 64, 92
1, 39387, Control_c, 0, 64, 94
1, 39401, Control_c, 0, 64, 95
1, 39415, Note_off_c, 0, 88, 62
1, 39417, Note_on_c, 0, 87, 85
1, 39434, Note_off_c, 0, 64, 62
1, 39448, Note_off_c, 0, 68, 61
1, 39451, Note_off_c, 0, 62, 59
1, 39452, Note_off_c, 0, 87, 64
1, 39489, Note_on_c, 0, 88, 72
1, 39490, Control_c, 0, 64, 94
1, 39513, Note_on_c, 0, 89, 72
1, 39517, Note_off_c, 0, 88, 62
1, 39550, Control_c, 0, 64, 94
1, 39565, Control_c, 0, 64, 93
1, 39567, Note_on_c, 0, 88, 74
1, 39570, Note_off_c, 0, 89, 65
1, 39580, Control_c, 0, 64, 90
1, 39594, Control_c, 0, 64, 81
1, 39609, Control_c, 0, 64, 66
1, 39618, Note_off_c, 0, 88, 65
1, 39624, Control_c, 0, 64, 0
1, 39633, Note_on_c, 0, 87, 69
1, 39657, Note_on_c, 0, 69, 81
1, 39663, Note_on_c, 0, 57, 60
1, 39664, Note_off_c, 0, 87, 64
1, 39669, Control_c, 0, 64, 47
1, 39672, Note_on_c, 0, 64, 55
1, 39683, Control_c, 0, 64, 70
1, 39684, Note_on_c, 0, 88, 74
1, 39688, Note_off_c, 0, 69, 68
1, 39693, Note_off_c, 0, 57, 64
1, 39693, Note_off_c, 0, 64, 61
1, 39703, Note_on_c, 0, 60, 19
1, 39705, Control_c, 0, 64, 83
1, 39719, Note_off_c, 0, 88, 63
1, 39720, Control_c, 0, 64, 97
1, 39735, Control_c, 0, 64, 108
1, 39738, Note_off_c, 0, 60, 32
1, 39749, Control_c, 0, 64, 114
1, 39764, Control_c, 0, 64, 115
1, 39779, Control_c, 0, 64, 116
1, 39811, Note_on_c, 0, 92, 80
1, 39853, Note_off_c, 0, 92, 65
1, 39854, Control_c, 0, 64, 115
1, 39869, Control_c, 0, 64, 112
1, 39883, Control_c, 0, 64, 104
1, 39884, Note_on_c, 0, 81, 77
1, 39897, Note_on_c, 0, 93, 56
1, 39898, Control_c, 0, 64, 94
1, 39902, Note_on_c, 0, 95, 42
1, 39905, Note_off_c, 0, 81, 69
1, 39913, Control_c, 0, 64, 84
1, 39919, Note_off_c, 0, 93, 52
1, 39927, Control_c, 0, 64, 74
1, 39930, Note_off_c, 0, 95, 44
1, 39942, Control_c, 0, 64, 53
1, 39957, Control_c, 0, 64, 0
1, 39965, Note_on_c, 0, 96, 38
1, 39969, Note_on_c, 0, 95, 44
1, 39990, Note_off_c, 0, 95, 51
1, 40012, Note_off_c, 0, 96, 0
1, 40012, Note_on_c, 0, 96, 56
1, 40017, Note_on_c, 0, 77, 68
1, 40030, Note_on_c, 0, 69, 63
1, 40040, Note_on_c, 0, 95, 41
1, 40041, Note_off_c, 0, 77, 67
1, 40056, Note_off_c, 0, 69, 67
1, 40068, Note_off_c, 0, 95, 56
1, 40128, Note_on_c, 0, 74, 78
1, 40130, Note_off_c, 0, 96, 58
1, 40131, Note_on_c, 0, 65, 76
1, 40134, Note_on_c, 0, 97, 62
1, 40149, Poly_aftertouch_c, 0, 98, 0
1, 40153, Note_off_c, 0, 97, 43
1, 40155, Note_off_c, 0, 74, 63
1, 40169, Note_on_c, 0, 100, 55
1, 40173, Note_off_c, 0, 65, 62
1, 40204, Poly_aftertouch_c, 0, 98, 127
1, 40217, Poly_aftertouch_c, 0, 99, 0
1, 40227, Note_on_c, 0, 97, 82
1, 40228, Note_off_c, 0, 100, 61
1, 40232, Poly_aftertouch_c, 0, 98, 0
1, 40248, Note_on_c, 0, 62, 72
1, 40271, Note_on_c, 0, 71, 58
1, 40296, Note_on_c, 0, 96, 78
1, 40303, Note_off_c, 0, 97, 64
1, 40308, Note_off_c, 0, 71, 55
1, 40333, Note_off_c, 0, 96, 62
1, 40334, Note_off_c, 0, 62, 60
1, 40344, Note_on_c, 0, 95, 70
1, 40361, Note_on_c, 0, 74, 81
1, 40370, Note_on_c, 0, 65, 77
1, 40381, Note_on_c, 0, 96, 74
1, 40387, Note_off_c, 0, 95, 61
1, 40396, Note_off_c, 0, 65, 69
1, 40404, Note_off_c, 0, 74, 63
1, 40426, Note_off_c, 0, 96, 61
1, 40460, Note_on_c, 0, 95, 81
1, 40495, Note_on_c, 0, 69, 76
1, 40497, Note_on_c, 0, 77, 80
1, 40508, Note_off_c, 0, 95, 63
1, 40519, Note_on_c, 0, 94, 80
1, 40520, Note_off_c, 0, 77, 63
1, 40533, Note_off_c, 0, 69, 65
1, 40570, Note_off_c, 0, 94, 59
1, 40580, Note_on_c, 0, 93, 83
1, 40601, Note_on_c, 0, 72, 84
1, 40602, Note_on_c, 0, 81, 91
1, 40626, Note_off_c, 0, 81, 62
1, 40630, Note_off_c, 0, 93, 63
1, 40632, Control_c, 0, 64, 62
1, 40633, Note_off_c, 0, 72, 65
1, 40635, Note_on_c, 0, 92, 83
1, 40647, Control_c, 0, 64, 66
1, 40662, Control_c, 0, 64, 69
1, 40677, Control_c, 0, 64, 71
1, 40691, Control_c, 0, 64, 73
1, 40702, Note_on_c, 0, 93, 78
1, 40702, Note_off_c, 0, 92, 65
1, 40736, Control_c, 0, 64, 72
1, 40745, Note_on_c, 0, 94, 76
1, 40748, Note_off_c, 0, 93, 61
1, 40750, Control_c, 0, 64, 72
1, 40780, Control_c, 0, 64, 73
1, 40795, Control_c, 0, 64, 76
1, 40802, Note_off_c, 0, 94, 66
1, 40810, Control_c, 0, 64, 79
1, 40821, Note_on_c, 0, 64, 82
1, 40823, Note_on_c, 0, 95, 81
1, 40824, Control_c, 0, 64, 82
1, 40839, Control_c, 0, 64, 83
1, 40854, Control_c, 0, 64, 84
1, 40862, Note_off_c, 0, 64, 64
1, 40862, Note_off_c, 0, 95, 61
1, 40873, Note_on_c, 0, 96, 83
1, 40925, Note_off_c, 0, 96, 64
1, 40927, Note_on_c, 0, 97, 85
1, 40978, Note_off_c, 0, 97, 65
1, 40996, Note_on_c, 0, 98, 78
1, 41003, Control_c, 0, 64, 83
1, 41018, Control_c, 0, 64, 78
1, 41033, Control_c, 0, 64, 63
1, 41043, Note_on_c, 0, 80, 99
1, 41045, Note_on_c, 0, 74, 76
1, 41046, Note_on_c, 0, 76, 84
1, 41048, Control_c, 0, 64, 0
1, 41052, Note_on_c, 0, 99, 91
1, 41065, Note_off_c, 0, 98, 57
1, 41105, Control_c, 0, 64, 27
1, 41112, Note_on_c, 0, 100, 87
1, 41118, Note_off_c, 0, 99, 68
1, 41120, Control_c, 0, 64, 63
1, 41135, Control_c, 0, 64, 71
1, 41141, Note_on_c, 0, 101, 73
1, 41150, Control_c, 0, 64, 80
1, 41165, Control_c, 0, 64, 88
1, 41179, Control_c, 0, 64, 93
1, 41180, Note_off_c, 0, 100, 0
1, 41193, Note_on_c, 0, 100, 63
1, 41194, Control_c, 0, 64, 94
1, 41226, Note_off_c, 0, 101, 66
1, 41228, Note_off_c, 0, 76, 63
1, 41231, Control_c, 0, 64, 95
1, 41249, Note_off_c, 0, 80, 62
1, 41257, Note_off_c, 0, 74, 64
1, 41261, Control_c, 0, 64, 95
1, 41262, Note_off_c, 0, 100, 65
1, 41264, Note_on_c, 0, 99, 78
1, 41276, Control_c, 0, 64, 96
1, 41306, Note_off_c, 0, 99, 68
1, 41311, Note_on_c, 0, 100, 78
1, 41391, Note_on_c, 0, 102, 61
1, 41396, Note_on_c, 0, 103, 85
1, 41397, Note_off_c, 0, 100, 65
1, 41399, Note_on_c, 0, 104, 73
1, 41424, Control_c, 0, 64, 95
1, 41439, Control_c, 0, 64, 88
1, 41453, Control_c, 0, 64, 73
1, 41468, Control_c, 0, 64, 0
1, 41478, Note_on_c, 0, 76, 63
1, 41478, Note_on_c, 0, 81, 98
1, 41486, Note_on_c, 0, 72, 75
1, 41491, Note_on_c, 0, 69, 70
1, 41496, Note_on_c, 0, 105, 84
1, 41501, Note_on_c, 0, 107, 101
1, 41502, Note_off_c, 0, 102, 64
1, 41504, Note_off_c, 0, 76, 70
1, 41504, Note_off_c, 0, 81, 63
1, 41512, Control_c, 0, 64, 34
1, 41513, Note_off_c, 0, 72, 68
1, 41513, Note_off_c, 0, 103, 60
1, 41520, Note_off_c, 0, 104, 64
1, 41524, Note_off_c, 0, 69, 68
1, 41527, Control_c, 0, 64, 61
1, 41530, Note_off_c, 0, 107, 61
1, 41542, Control_c, 0, 64, 65
1, 41557, Control_c, 0, 64, 68
1, 41571, Control_c, 0, 64, 70
1, 41585, Note_on_c, 0, 104, 89
1, 41601, Control_c, 0, 64, 68
1, 41616, Control_c, 0, 64, 66
1, 41622, Note_off_c, 0, 105, 64
1, 41631, Control_c, 0, 64, 65
1, 41645, Control_c, 0, 64, 65
1, 41657, Note_off_c, 0, 104, 65
1, 41666, Note_on_c, 0, 102, 79
1, 41668, Note_on_c, 0, 103, 46
1, 41676, Control_c, 0, 64, 64
1, 41691, Control_c, 0, 64, 59
1, 41694, Note_off_c, 0, 103, 45
1, 41696, Note_off_c, 0, 102, 67
1, 41706, Note_on_c, 0, 61, 79
1, 41706, Control_c, 0, 64, 0
1, 41708, Note_on_c, 0, 67, 81
1, 41708, Note_on_c, 0, 70, 79
1, 41730, Note_on_c, 0, 103, 95
1, 41732, Note_off_c, 0, 70, 68
1, 41737, Note_off_c, 0, 67, 64
1, 41753, Note_off_c, 0, 61, 63
1, 41799, Note_on_c, 0, 102, 87
1, 41802, Note_off_c, 0, 103, 60
1, 41865, Note_off_c, 0, 102, 65
1, 41866, Note_on_c, 0, 101, 60
1, 41890, Note_off_c, 0, 101, 65
1, 41896, Note_on_c, 0, 100, 89
1, 41934, Note_off_c, 0, 100, 65
1, 41938, Note_on_c, 0, 69, 93
1, 41940, Note_on_c, 0, 57, 85
1, 41940, Note_on_c, 0, 65, 90
1, 41955, Note_on_c, 0, 62, 80
1, 41961, Note_on_c, 0, 101, 84
1, 42010, Control_c, 0, 64, 58
1, 42016, Note_on_c, 0, 100, 91
1, 42024, Note_off_c, 0, 101, 65
1, 42025, Control_c, 0, 64, 65
1, 42040, Control_c, 0, 64, 68
1, 42054, Note_off_c, 0, 100, 65
1, 42055, Control_c, 0, 64, 70
1, 42070, Control_c, 0, 64, 72
1, 42084, Note_on_c, 0, 99, 80
1, 42084, Control_c, 0, 64, 72
1, 42099, Control_c, 0, 64, 73
1, 42114, Control_c, 0, 64, 74
1, 42128, Control_c, 0, 64, 76
1, 42137, Note_on_c, 0, 98, 71
1, 42138, Note_off_c, 0, 99, 67
1, 42143, Control_c, 0, 64, 77
1, 42151, Note_off_c, 0, 65, 61
1, 42157, Note_off_c, 0, 69, 53
1, 42161, Note_off_c, 0, 98, 67
1, 42193, Note_on_c, 0, 97, 86
1, 42195, Note_off_c, 0, 57, 56
1, 42226, Note_off_c, 0, 97, 68
1, 42233, Control_c, 0, 64, 77
1, 42243, Note_on_c, 0, 96, 81
1, 42262, Control_c, 0, 64, 78
1, 42285, Note_off_c, 0, 96, 61
1, 42298, Note_on_c, 0, 95, 85
1, 42309, Note_off_c, 0, 62, 50
1, 42333, Note_off_c, 0, 95, 67
1, 42356, Note_on_c, 0, 94, 86
1, 42366, Control_c, 0, 64, 77
1, 42381, Control_c, 0, 64, 73
1, 42383, Note_on_c, 0, 69, 81
1, 42391, Note_on_c, 0, 57, 64
1, 42392, Note_on_c, 0, 64, 62
1, 42395, Control_c, 0, 64, 65
1, 42397, Note_on_c, 0, 60, 57
1, 42397, Note_off_c, 0, 69, 72
1, 42405, Note_off_c, 0, 94, 65
1, 42410, Control_c, 0, 64, 0
1, 42411, Note_off_c, 0, 64, 61
1, 42414, Note_on_c, 0, 93, 78
1, 42419, Note_off_c, 0, 60, 38
1, 42420, Note_off_c, 0, 57, 64
1, 42441, Note_off_c, 0, 93, 61
1, 42499, Note_on_c, 0, 92, 47
1, 42525, Note_off_c, 0, 92, 49
1, 42572, Note_on_c, 0, 93, 69
1, 42578, Note_on_c, 0, 91, 58
1, 42590, Note_off_c, 0, 93, 63
1, 42596, Note_on_c, 0, 61, 59
1, 42607, Note_on_c, 0, 55, 59
1, 42609, Note_on_c, 0, 58, 58
1, 42617, Note_off_c, 0, 61, 67
1, 42628, Note_off_c, 0, 58, 62
1, 42630, Note_on_c, 0, 90, 83
1, 42634, Note_off_c, 0, 55, 66
1, 42635, Note_off_c, 0, 91, 60
1, 42711, Note_off_c, 0, 90, 64
1, 42720, Note_on_c, 0, 89, 70
1, 42746, Note_off_c, 0, 89, 68
1, 42760, Note_on_c, 0, 88, 77
1, 42800, Note_off_c, 0, 88, 49
1, 42820, Note_on_c, 0, 89, 72
1, 42821, Note_on_c, 0, 57, 69
1, 42825, Note_on_c, 0, 62, 71
1, 42834, Note_on_c, 0, 53, 62
1, 42843, Note_off_c, 0, 89, 66
1, 42843, Note_off_c, 0, 57, 66
1, 42852, Note_off_c, 0, 62, 66
1, 42863, Control_c, 0, 64, 46
1, 42864, Note_off_c, 0, 53, 67
1, 42874, Note_on_c, 0, 88, 60
1, 42878, Control_c, 0, 64, 53
1, 42888, Note_on_c, 0, 86, 73
1, 42893, Control_c, 0, 64, 54
1, 42911, Note_off_c, 0, 86, 69
1, 42912, Note_off_c, 0, 88, 65
1, 42922, Control_c, 0, 64, 53
1, 42937, Control_c, 0, 64, 51
1, 42941, Note_on_c, 0, 87, 63
1, 42951, Control_c, 0, 64, 30
1, 42959, Note_off_c, 0, 87, 60
1, 42966, Control_c, 0, 64, 0
1, 43022, Note_on_c, 0, 84, 37
1, 43025, Note_on_c, 0, 45, 80
1, 43025, Control_c, 0, 64, 50
1, 43040, Control_c, 0, 64, 63
1, 43055, Control_c, 0, 64, 66
1, 43063, Note_off_c, 0, 45, 66
1, 43070, Note_on_c, 0, 85, 51
1, 43070, Control_c, 0, 64, 68
1, 43085, Control_c, 0, 64, 69
1, 43086, Note_off_c, 0, 84, 0
1, 43086, Note_on_c, 0, 84, 38
1, 43097, Note_off_c, 0, 85, 51
1, 43100, Control_c, 0, 64, 70
1, 43113, Note_on_c, 0, 83, 43
1, 43117, Note_off_c, 0, 84, 0
1, 43117, Note_on_c, 0, 84, 19
1, 43145, Control_c, 0, 64, 70
1, 43159, Control_c, 0, 64, 68
1, 43167, Note_off_c, 0, 84, 62
1, 43174, Control_c, 0, 64, 60
1, 43182, Note_off_c, 0, 83, 34
1, 43189, Control_c, 0, 64, 0
1, 43221, Note_on_c, 0, 81, 22
1, 43235, Note_on_c, 0, 60, 79
1, 43263, Control_c, 0, 64, 63
1, 43265, Note_off_c, 0, 60, 66
1, 43266, Note_on_c, 0, 52, 39
1, 43275, Note_off_c, 0, 81, 63
1, 43279, Control_c, 0, 64, 73
1, 43294, Control_c, 0, 64, 82
1, 43302, Note_off_c, 0, 52, 32
1, 43308, Control_c, 0, 64, 88
1, 43322, Control_c, 0, 64, 89
1, 43327, Note_on_c, 0, 81, 63
1, 43339, Poly_aftertouch_c, 0, 50, 0
1, 43426, Control_c, 0, 64, 88
1, 43437, Note_on_c, 0, 82, 76
1, 43447, Note_on_c, 0, 68, 66
1, 43448, Note_on_c, 0, 69, 67
1, 43448, Control_c, 0, 64, 85
1, 43463, Control_c, 0, 64, 79
1, 43466, Note_off_c, 0, 81, 27
1, 43478, Control_c, 0, 64, 69
1, 43480, Note_on_c, 0, 80, 14
1, 43490, Note_off_c, 0, 68, 62
1, 43493, Control_c, 0, 64, 56
1, 43502, Note_off_c, 0, 69, 62
1, 43506, Note_on_c, 0, 81, 67
1, 43508, Control_c, 0, 64, 0
1, 43509, Note_on_c, 0, 70, 79
1, 43511, Note_off_c, 0, 82, 62
1, 43557, Note_off_c, 0, 81, 55
1, 43571, Note_off_c, 0, 70, 63
1, 43577, Note_on_c, 0, 68, 74
1, 43580, Note_on_c, 0, 69, 65
1, 43599, Note_off_c, 0, 80, 49
1, 43604, Note_on_c, 0, 82, 62
1, 43622, Note_off_c, 0, 68, 63
1, 43625, Note_off_c, 0, 69, 65
1, 43628, Note_on_c, 0, 70, 84
1, 43662, Note_on_c, 0, 68, 67
1, 43683, Note_on_c, 0, 80, 77
1, 43683, Note_off_c, 0, 82, 36
1, 43687, Note_off_c, 0, 70, 57
1, 43690, Note_on_c, 0, 69, 56
1, 43709, Note_off_c, 0, 69, 60
1, 43717, Note_off_c, 0, 68, 66
1, 43720, Note_off_c, 0, 80, 63
1, 43802, Note_on_c, 0, 69, 78
1, 43827, Note_on_c, 0, 82, 76
1, 43847, Note_off_c, 0, 69, 64
1, 43868, Note_off_c, 0, 82, 66
1, 43902, Note_on_c, 0, 83, 60
1, 43918, Note_on_c, 0, 70, 82
1, 43929, Note_off_c, 0, 83, 49
1, 43937, Note_on_c, 0, 84, 66
1, 43960, Note_off_c, 0, 70, 63
1, 43991, Note_off_c, 0, 84, 62
1, 44009, Note_on_c, 0, 85, 75
1, 44030, Note_off_c, 0, 85, 71
1, 44040, Note_on_c, 0, 71, 71
1, 44069, Note_on_c, 0, 64, 27
1, 44070, Note_on_c, 0, 86, 76
1, 44072, Note_off_c, 0, 71, 60
1, 44107, Note_off_c, 0, 64, 32
1, 44134, Note_off_c, 0, 86, 59
1, 44139, Note_on_c, 0, 87, 77
1, 44160, Note_on_c, 0, 72, 88
1, 44167, Note_on_c, 0, 64, 74
1, 44175, Control_c, 0, 64, 60
1, 44181, Note_off_c, 0, 72, 70
1, 44197, Control_c, 0, 64, 70
1, 44201, Note_off_c, 0, 64, 68
1, 44203, Note_off_c, 0, 87, 63
1, 44212, Control_c, 0, 64, 77
1, 44214, Note_on_c, 0, 88, 76
1, 44227, Control_c, 0, 64, 83
1, 44242, Control_c, 0, 64, 85
1, 44244, Note_off_c, 0, 88, 61
1, 44255, Note_on_c, 0, 89, 66
1, 44325, Note_on_c, 0, 88, 80
1, 44331, Note_off_c, 0, 89, 62
1, 44345, Control_c, 0, 64, 84
1, 44360, Control_c, 0, 64, 80
1, 44367, Note_on_c, 0, 76, 74
1, 44373, Note_on_c, 0, 75, 69
1, 44375, Control_c, 0, 64, 73
1, 44379, Note_off_c, 0, 88, 57
1, 44388, Note_on_c, 0, 87, 83
1, 44390, Control_c, 0, 64, 65
1, 44400, Note_off_c, 0, 75, 67
1, 44403, Note_off_c, 0, 76, 65
1, 44404, Control_c, 0, 64, 56
1, 44409, Note_off_c, 0, 87, 64
1, 44429, Note_on_c, 0, 77, 77
1, 44434, Control_c, 0, 64, 61
1, 44449, Control_c, 0, 64, 63
1, 44450, Note_on_c, 0, 86, 16
1, 44464, Control_c, 0, 64, 64
1, 44470, Note_on_c, 0, 89, 76
1, 44478, Control_c, 0, 64, 65
1, 44486, Note_on_c, 0, 75, 74
1, 44489, Note_off_c, 0, 77, 62
1, 44493, Control_c, 0, 64, 65
1, 44494, Note_off_c, 0, 86, 29
1, 44499, Note_on_c, 0, 76, 64
1, 44535, Note_on_c, 0, 88, 69
1, 44536, Note_off_c, 0, 76, 59
1, 44537, Note_off_c, 0, 89, 65
1, 44537, Control_c, 0, 64, 65
1, 44554, Note_off_c, 0, 75, 62
1, 44557, Note_on_c, 0, 77, 75
1, 44567, Control_c, 0, 64, 63
1, 44582, Control_c, 0, 64, 56
1, 44590, Note_off_c, 0, 88, 63
1, 44596, Control_c, 0, 64, 0
1, 44602, Note_on_c, 0, 75, 66
1, 44603, Note_on_c, 0, 87, 71
1, 44610, Note_on_c, 0, 76, 79
1, 44622, Note_off_c, 0, 77, 61
1, 44631, Note_off_c, 0, 76, 71
1, 44642, Note_off_c, 0, 75, 65
1, 44659, Note_off_c, 0, 87, 62
1, 44667, Note_on_c, 0, 88, 48
1, 44689, Note_off_c, 0, 88, 59
1, 44730, Note_on_c, 0, 78, 91
1, 44739, Note_on_c, 0, 87, 74
1, 44769, Note_off_c, 0, 78, 64
1, 44776, Note_off_c, 0, 87, 63
1, 44790, Note_on_c, 0, 88, 68
1, 44841, Note_on_c, 0, 79, 74
1, 44850, Note_on_c, 0, 89, 77
1, 44852, Note_off_c, 0, 88, 0
1, 44868, Note_on_c, 0, 88, 47
1, 44870, Note_off_c, 0, 79, 60
1, 44891, Note_off_c, 0, 88, 50
1, 44892, Note_off_c, 0, 89, 61
1, 44927, Note_on_c, 0, 91, 83
1, 44929, Note_on_c, 0, 80, 83
1, 44978, Note_off_c, 0, 91, 58
1, 44980, Note_on_c, 0, 89, 8
1, 44981, Note_off_c, 0, 89, 127
1, 44985, Note_on_c, 0, 92, 84
1, 44986, Note_off_c, 0, 80, 62
1, 45003, Note_off_c, 0, 92, 74
1, 45032, Note_on_c, 0, 91, 28
1, 45047, Note_on_c, 0, 93, 97
1, 45059, Note_on_c, 0, 81, 83
1, 45064, Note_on_c, 0, 72, 72
1, 45067, Note_off_c, 0, 91, 61
1, 45069, Note_on_c, 0, 69, 63
1, 45074, Note_on_c, 0, 76, 64
1, 45079, Note_off_c, 0, 93, 67
1, 45080, Note_off_c, 0, 81, 69
1, 45080, Control_c, 0, 64, 63
1, 45092, Note_off_c, 0, 72, 67
1, 45092, Note_off_c, 0, 76, 68
1, 45095, Control_c, 0, 64, 69
1, 45098, Note_off_c, 0, 69, 68
1, 45109, Control_c, 0, 64, 74
1, 45124, Control_c, 0, 64, 76
1, 45139, Control_c, 0, 64, 78
1, 45154, Control_c, 0, 64, 80
1, 45169, Control_c, 0, 64, 83
1, 45184, Control_c, 0, 64, 84
1, 45281, Note_on_c, 0, 76, 54
1, 45301, Note_off_c, 0, 76, 60
1, 45302, Control_c, 0, 64, 83
1, 45317, Note_on_c, 0, 77, 62
1, 45317, Control_c, 0, 64, 83
1, 45332, Control_c, 0, 64, 82
1, 45354, Note_on_c, 0, 57, 59
1, 45360, Note_off_c, 0, 77, 60
1, 45371, Note_on_c, 0, 78, 72
1, 45376, Control_c, 0, 64, 82
1, 45398, Note_on_c, 0, 64, 48
1, 45401, Note_off_c, 0, 78, 63
1, 45415, Note_off_c, 0, 57, 63
1, 45424, Note_on_c, 0, 79, 75
1, 45454, Note_off_c, 0, 64, 63
1, 45455, Note_off_c, 0, 79, 59
1, 45464, Control_c, 0, 64, 81
1, 45470, Note_on_c, 0, 72, 74
1, 45479, Control_c, 0, 64, 75
1, 45481, Note_on_c, 0, 80, 77
1, 45494, Control_c, 0, 64, 59
1, 45497, Note_off_c, 0, 72, 66
1, 45509, Control_c, 0, 64, 0
1, 45516, Note_off_c, 0, 80, 65
1, 45538, Note_on_c, 0, 81, 80
1, 45589, Note_off_c, 0, 81, 58
1, 45599, Note_on_c, 0, 82, 70
1, 45623, Note_off_c, 0, 82, 68
1, 45662, Note_on_c, 0, 83, 72
1, 45688, Note_off_c, 0, 83, 64
1, 45717, Note_on_c, 0, 84, 69
1, 45719, Note_on_c, 0, 73, 50
1, 45741, Note_off_c, 0, 73, 62
1, 45741, Note_off_c, 0, 84, 63
1, 45755, Control_c, 0, 67, 8
1, 45765, Note_on_c, 0, 85, 74
1, 45770, Control_c, 0, 67, 10
1, 45784, Control_c, 0, 67, 12
1, 45797, Note_off_c, 0, 85, 62
1, 45799, Control_c, 0, 67, 14
1, 45828, Note_on_c, 0, 86, 63
1, 45829, Control_c, 0, 67, 13
1, 45844, Control_c, 0, 67, 13
1, 45846, Note_off_c, 0, 86, 65
1, 45873, Control_c, 0, 67, 12
1, 45880, Note_on_c, 0, 87, 67
1, 45888, Control_c, 0, 67, 12
1, 45903, Control_c, 0, 67, 11
1, 45908, Note_off_c, 0, 87, 65
1, 45929, Note_on_c, 0, 72, 51
1, 45929, Note_on_c, 0, 77, 60
1, 45931, Note_on_c, 0, 88, 74
1, 45932, Control_c, 0, 67, 11
1, 45941, Note_on_c, 0, 69, 42
1, 45950, Note_off_c, 0, 72, 59
1, 45953, Note_off_c, 0, 77, 62
1, 45956, Note_off_c, 0, 88, 65
1, 45962, Control_c, 0, 67, 12
1, 45966, Note_off_c, 0, 69, 51
1, 45994, Note_on_c, 0, 89, 66
1, 46031, Note_off_c, 0, 89, 55
1, 46045, Note_on_c, 0, 90, 74
1, 46066, Control_c, 0, 67, 11
1, 46069, Note_off_c, 0, 90, 69
1, 46095, Control_c, 0, 67, 10
1, 46108, Note_on_c, 0, 91, 64
1, 46125, Control_c, 0, 67, 11
1, 46126, Note_off_c, 0, 91, 61
1, 46142, Note_on_c, 0, 75, 58
1, 46152, Note_on_c, 0, 80, 37
1, 46155, Control_c, 0, 67, 10
1, 46161, Note_on_c, 0, 92, 69
1, 46164, Note_off_c, 0, 75, 65
1, 46169, Control_c, 0, 67, 10
1, 46182, Note_off_c, 0, 80, 44
1, 46184, Control_c, 0, 67, 9
1, 46186, Note_off_c, 0, 92, 69
1, 46214, Control_c, 0, 67, 9
1, 46221, Note_on_c, 0, 93, 67
1, 46229, Control_c, 0, 67, 8
1, 46237, Note_off_c, 0, 93, 61
1, 46258, Control_c, 0, 67, 8
1, 46269, Note_on_c, 0, 94, 58
1, 46287, Control_c, 0, 67, 0
1, 46290, Note_off_c, 0, 94, 65
1, 46337, Note_on_c, 0, 95, 58
1, 46358, Note_off_c, 0, 95, 58
1, 46358, Note_on_c, 0, 84, 56
1, 46360, Note_on_c, 0, 81, 19
1, 46372, Note_on_c, 0, 96, 74
1, 46382, Note_off_c, 0, 84, 65
1, 46400, Note_off_c, 0, 96, 56
1, 46402, Note_off_c, 0, 81, 29
1, 46430, Note_on_c, 0, 97, 76
1, 46458, Note_off_c, 0, 97, 70
1, 46537, Note_on_c, 0, 99, 81
1, 46574, Note_on_c, 0, 88, 54
1, 46582, Note_off_c, 0, 99, 66
1, 46613, Note_on_c, 0, 100, 68
1, 46613, Note_off_c, 0, 88, 58
1, 46629, Note_on_c, 0, 86, 59
1, 46636, Poly_aftertouch_c, 0, 80, 0
1, 46656, Note_off_c, 0, 100, 51
1, 46658, Note_on_c, 0, 102, 79
1, 46685, Note_on_c, 0, 84, 49
1, 46685, Note_off_c, 0, 86, 56
1, 46708, Note_on_c, 0, 103, 54
1, 46716, Note_off_c, 0, 102, 66
1, 46731, Note_on_c, 0, 104, 71
1, 46731, Note_off_c, 0, 103, 58
1, 46740, Note_off_c, 0, 84, 56
1, 46746, Note_on_c, 0, 83, 13
1, 46766, Note_on_c, 0, 81, 62
1, 46767, Note_off_c, 0, 83, 44
1, 46771, Note_on_c, 0, 105, 74
1, 46772, Note_on_c, 0, 96, 69
1, 46775, Note_on_c, 0, 88, 53
1, 46779, Note_off_c, 0, 104, 66
1, 46787, Note_off_c, 0, 96, 64
1, 46787, Note_off_c, 0, 105, 67
1, 46796, Note_off_c, 0, 88, 57
1, 46796, Note_off_c, 0, 81, 64
1, 47325, Note_on_c, 0, 81, 60
1, 47348, Note_on_c, 0, 69, 41
1, 47354, Note_on_c, 0, 72, 31
1, 47357, Note_on_c, 0, 52, 32
1, 47363, Note_on_c, 0, 64, 27
1, 47363, Note_on_c, 0, 76, 26
1, 47366, Note_on_c, 0, 60, 22
1, 47377, Note_on_c, 0, 57, 9
1, 47430, Control_c, 0, 64, 51
1, 47445, Control_c, 0, 64, 62
1, 47460, Control_c, 0, 64, 65
1, 47460, Control_c, 0, 67, 8
1, 47475, Control_c, 0, 64, 68
1, 47475, Control_c, 0, 67, 8
1, 47489, Control_c, 0, 64, 73
1, 47489, Control_c, 0, 67, 9
1, 47504, Control_c, 0, 64, 78
1, 47504, Control_c, 0, 67, 10
1, 47519, Note_off_c, 0, 64, 56
1, 47519, Control_c, 0, 64, 82
1, 47519, Control_c, 0, 67, 13
1, 47520, Note_off_c, 0, 81, 63
1, 47526, Note_off_c, 0, 60, 52
1, 47530, Note_off_c, 0, 76, 62
1, 47534, Control_c, 0, 64, 85
1, 47534, Control_c, 0, 67, 16
1, 47539, Note_off_c, 0, 57, 46
1, 47547, Note_off_c, 0, 72, 48
1, 47548, Control_c, 0, 64, 86
1, 47548, Control_c, 0, 67, 18
1, 47559, Note_off_c, 0, 69, 62
1, 47563, Control_c, 0, 64, 88
1, 47563, Control_c, 0, 67, 20
1, 47565, Note_off_c, 0, 52, 55
1, 47578, Control_c, 0, 64, 89
1, 47578, Control_c, 0, 67, 21
1, 47593, Control_c, 0, 64, 89
1, 47608, Control_c, 0, 64, 90
1, 47622, Control_c, 0, 67, 20
1, 47682, Control_c, 0, 64, 89
1, 47697, Control_c, 0, 67, 19
1, 47711, Control_c, 0, 67, 19
1, 47726, Control_c, 0, 67, 18
1, 47741, Control_c, 0, 67, 18
1, 47756, Control_c, 0, 67, 17
1, 47830, Control_c, 0, 64, 89
1, 47830, Control_c, 0, 67, 17
1, 47845, Control_c, 0, 64, 87
1, 47845, Control_c, 0, 67, 16
1, 47860, Control_c, 0, 64, 80
1, 47860, Control_c, 0, 67, 16
1, 47871, Note_on_c, 0, 57, 63
1, 47874, Control_c, 0, 64, 64
1, 47878, Note_on_c, 0, 33, 55
1, 47889, Control_c, 0, 64, 0
1, 47893, Note_off_c, 0, 57, 64
1, 47904, Control_c, 0, 67, 15
1, 47906, Note_off_c, 0, 33, 60
1, 47934, Control_c, 0, 67, 16
1, 48105, Control_c, 0, 67, 16
1, 48150, Control_c, 0, 67, 16
1, 48164, Control_c, 0, 67, 15
1, 48194, Control_c, 0, 67, 15
1, 48312, Control_c, 0, 67, 14
1, 48327, Control_c, 0, 67, 14
1, 48401, Control_c, 0, 67, 13
1, 48416, Control_c, 0, 67, 13
1, 48431, Control_c, 0, 67, 12
1, 48445, Control_c, 0, 67, 12
1, 48460, Control_c, 0, 67, 11
1, 48475, Control_c, 0, 67, 9
1, 48489, Control_c, 0, 67, 0
1, 48489, End_track
0, 0, End_of_file
