0, 0, Header, 0, 1, 384
1, 0, Start_track
1, 0, Title_t, "Impromptu Op. 90/4--J. Kociuban "
1, 0, Text_t, "2008 e-Piano Junior Competition recital round"
1, 0, Text_t, "recorded July 2008"
1, 0, Text_t, "http://www.piano-e-competition.com/"
1, 0, Text_t, "File processed for distribution by software from Zenph Studios, Inc., http://www.zenph.com"
1, 0, Instrument_name_t, "Yamaha Disklavier Pro Mark IV concert grand piano, model DCFIIISM4PRO"
1, 0, Sequencer_specific, 39, 67, 113, 0, 1, 0, 1, 0, 73, 109, 112, 114, 111, 109, 112, 116, 117, 32, 79, 112, 57, 48, 47, 52, 74, 117, 108, 105, 97, 32, 75, 111, 99, 105, 117, 98, 97, 110, 32, 32
1, 0, Sequencer_specific, 6, 67, 113, 0, 0, 0, 69
1, 0, System_exclusive, 21, 67, 113, 126, 21, 0, 2, 2, 0, 3, 14, 1, 4, 1, 13, 13, 10, 11, 9, 2, 7, 247
1, 0, Sequencer_specific, 5, 67, 123, 12, 2, 1
1, 0, Tempo, 512820
1, 0, Time_signature, 4, 2, 24, 8
1, 0, System_exclusive, 5, 126, 127, 9, 1, 247
1, 1, System_exclusive, 8, 67, 16, 76, 0, 0, 126, 0, 247
1, 2, System_exclusive, 8, 67, 16, 76, 8, 9, 7, 1, 247
1, 3, Control_c, 0, 0, 0
1, 3, Control_c, 1, 0, 0
1, 3, Control_c, 2, 0, 0
1, 3, Control_c, 3, 0, 0
1, 3, Control_c, 4, 0, 0
1, 3, Control_c, 5, 0, 0
1, 3, Control_c, 6, 0, 0
1, 3, Control_c, 7, 0, 0
1, 3, Control_c, 8, 0, 0
1, 3, Control_c, 9, 0, 127
1, 3, Control_c, 10, 0, 0
1, 3, Control_c, 11, 0, 0
1, 3, Control_c, 12, 0, 0
1, 3, Control_c, 13, 0, 0
1, 3, Control_c, 14, 0, 0
1, 3, Control_c, 15, 0, 0
1, 4, Control_c, 0, 32, 0
1, 4, Control_c, 1, 32, 0
1, 4, Control_c, 2, 32, 0
1, 4, Control_c, 3, 32, 0
1, 4, Control_c, 4, 32, 0
1, 4, Control_c, 5, 32, 0
1, 4, Control_c, 6, 32, 0
1, 4, Control_c, 7, 32, 0
1, 4, Control_c, 8, 32, 0
1, 4, Control_c, 9, 32, 0
1, 4, Control_c, 10, 32, 0
1, 4, Control_c, 11, 32, 0
1, 4, Control_c, 12, 32, 0
1, 4, Control_c, 13, 32, 0
1, 4, Control_c, 14, 32, 0
1, 4, Control_c, 15, 32, 0
1, 5, Program_c, 0, 0
1, 5, Program_c, 1, 0
1, 5, Program_c, 2, 0
1, 5, Program_c, 3, 0
1, 5, Program_c, 4, 0
1, 5, Program_c, 5, 0
1, 5, Program_c, 6, 0
1, 5, Program_c, 7, 0
1, 5, Program_c, 8, 0
1, 5, Program_c, 9, 0
1, 5, Program_c, 10, 0
1, 5, Program_c, 11, 0
1, 5, Program_c, 12, 0
1, 5, Program_c, 13, 0
1, 5, Program_c, 14, 0
1, 5, Program_c, 15, 0
1, 6, Control_c, 0, 7, 100
1, 6, Control_c, 1, 7, 100
1, 6, Control_c, 2, 7, 100
1, 6, Control_c, 3, 7, 100
1, 6, Control_c, 4, 7, 100
1, 6, Control_c, 5, 7, 100
1, 6, Control_c, 6, 7, 100
1, 6, Control_c, 7, 7, 100
1, 6, Control_c, 8, 7, 100
1, 6, Control_c, 9, 7, 100
1, 6, Control_c, 10, 7, 100
1, 6, Control_c, 11, 7, 100
1, 6, Control_c, 12, 7, 100
1, 6, Control_c, 13, 7, 100
1, 6, Control_c, 14, 7, 100
1, 6, Control_c, 15, 7, 100
1, 117, Control_c, 0, 64, 7
1, 117, Control_c, 0, 67, 12
1, 229, Control_c, 0, 64, 15
1, 229, Control_c, 0, 67, 25
1, 341, Control_c, 0, 64, 22
1, 341, Control_c, 0, 67, 37
1, 452, Control_c, 0, 64, 31
1, 452, Control_c, 0, 67, 51
1, 564, Control_c, 0, 64, 37
1, 564, Control_c, 0, 67, 62
1, 676, Control_c, 0, 64, 46
1, 676, Control_c, 0, 67, 76
1, 787, Control_c, 0, 64, 52
1, 787, Control_c, 0, 67, 87
1, 899, Control_c, 0, 64, 62
1, 899, Control_c, 0, 67, 102
1, 1132, Note_on_c, 0, 70, 50
1, 1135, Control_c, 0, 64, 63
1, 1150, Control_c, 0, 64, 63
1, 1161, Note_on_c, 0, 42, 31
1, 1162, Note_on_c, 0, 49, 19
1, 1165, Control_c, 0, 64, 64
1, 1180, Control_c, 0, 64, 64
1, 1195, Control_c, 0, 64, 65
1, 1207, Control_c, 0, 64, 66
1, 1222, Control_c, 0, 64, 67
1, 1237, Control_c, 0, 64, 67
1, 1252, Control_c, 0, 64, 68
1, 1267, Control_c, 0, 64, 69
1, 1281, Control_c, 0, 64, 71
1, 1296, Control_c, 0, 64, 72
1, 1311, Control_c, 0, 64, 74
1, 1326, Control_c, 0, 64, 75
1, 1341, Control_c, 0, 64, 77
1, 1356, Control_c, 0, 64, 78
1, 1370, Control_c, 0, 64, 79
1, 1385, Control_c, 0, 64, 81
1, 1400, Control_c, 0, 64, 82
1, 1400, Control_c, 0, 67, 103
1, 1415, Control_c, 0, 64, 84
1, 1430, Control_c, 0, 64, 85
1, 1430, Control_c, 0, 67, 103
1, 1445, Control_c, 0, 64, 87
1, 1460, Control_c, 0, 64, 88
1, 1474, Control_c, 0, 64, 89
1, 1489, Control_c, 0, 64, 90
1, 1504, Control_c, 0, 64, 91
1, 1504, Control_c, 0, 67, 104
1, 1519, Control_c, 0, 64, 92
1, 1533, Note_on_c, 0, 58, 30
1, 1534, Control_c, 0, 64, 93
1, 1534, Control_c, 0, 67, 104
1, 1548, Control_c, 0, 64, 93
1, 1548, Control_c, 0, 67, 105
1, 1563, Control_c, 0, 64, 94
1, 1578, Control_c, 0, 64, 95
1, 1578, Control_c, 0, 67, 106
1, 1592, Control_c, 0, 67, 107
1, 1607, Control_c, 0, 64, 95
1, 1607, Control_c, 0, 67, 107
1, 1622, Control_c, 0, 67, 108
1, 1637, Control_c, 0, 64, 96
1, 1653, Control_c, 0, 67, 108
1, 1675, Control_c, 0, 67, 110
1, 1690, Control_c, 0, 67, 114
1, 1704, Control_c, 0, 67, 116
1, 1719, Control_c, 0, 67, 120
1, 1734, Note_on_c, 0, 61, 32
1, 1734, Control_c, 0, 67, 125
1, 1749, Control_c, 0, 67, 127
1, 1771, Note_off_c, 0, 58, 31
1, 1850, Note_off_c, 0, 61, 52
1, 1906, Note_on_c, 0, 66, 28
1, 2011, Note_on_c, 0, 61, 31
1, 2074, Note_off_c, 0, 61, 55
1, 2101, Note_off_c, 0, 66, 29
1, 2140, Note_on_c, 0, 58, 17
1, 2180, Note_off_c, 0, 58, 49
1, 2236, Note_on_c, 0, 61, 27
1, 2285, Note_off_c, 0, 61, 50
1, 2336, Note_on_c, 0, 58, 25
1, 2423, Note_off_c, 0, 58, 37
1, 2432, Note_on_c, 0, 61, 35
1, 2511, Note_off_c, 0, 61, 53
1, 2538, Note_off_c, 0, 70, 37
1, 2550, Note_on_c, 0, 66, 38
1, 2633, Note_off_c, 0, 49, 38
1, 2637, Note_off_c, 0, 42, 41
1, 2653, Note_on_c, 0, 61, 36
1, 2661, Note_off_c, 0, 66, 32
1, 2703, Note_off_c, 0, 61, 53
1, 2751, Note_on_c, 0, 58, 33
1, 2797, Note_off_c, 0, 58, 46
1, 2844, Note_on_c, 0, 70, 56
1, 2893, Note_on_c, 0, 42, 27
1, 2896, Note_on_c, 0, 49, 27
1, 2986, Note_on_c, 0, 58, 29
1, 3092, Note_on_c, 0, 61, 37
1, 3153, Note_off_c, 0, 58, 26
1, 3160, Note_off_c, 0, 61, 53
1, 3199, Note_on_c, 0, 66, 41
1, 3232, Control_c, 0, 64, 96
1, 3253, Note_off_c, 0, 70, 24
1, 3263, Control_c, 0, 67, 122
1, 3277, Control_c, 0, 67, 109
1, 3292, Control_c, 0, 67, 95
1, 3307, Note_on_c, 0, 61, 37
1, 3307, Control_c, 0, 67, 83
1, 3316, Note_off_c, 0, 49, 39
1, 3322, Control_c, 0, 67, 77
1, 3326, Note_off_c, 0, 42, 41
1, 3337, Control_c, 0, 67, 75
1, 3351, Control_c, 0, 67, 73
1, 3363, Note_off_c, 0, 61, 48
1, 3366, Control_c, 0, 67, 72
1, 3381, Control_c, 0, 67, 69
1, 3391, Note_on_c, 0, 58, 47
1, 3395, Control_c, 0, 67, 66
1, 3410, Control_c, 0, 67, 63
1, 3425, Control_c, 0, 67, 61
1, 3455, Control_c, 0, 67, 62
1, 3460, Note_off_c, 0, 58, 55
1, 3469, Control_c, 0, 67, 63
1, 3484, Control_c, 0, 67, 64
1, 3499, Control_c, 0, 67, 65
1, 3508, Note_on_c, 0, 70, 62
1, 3514, Control_c, 0, 67, 65
1, 3529, Control_c, 0, 67, 66
1, 3544, Control_c, 0, 67, 67
1, 3558, Control_c, 0, 67, 68
1, 3567, Note_on_c, 0, 49, 31
1, 3573, Control_c, 0, 67, 68
1, 3588, Note_on_c, 0, 42, 32
1, 3588, Control_c, 0, 67, 69
1, 3603, Control_c, 0, 67, 70
1, 3618, Control_c, 0, 67, 70
1, 3633, Control_c, 0, 67, 71
1, 3648, Control_c, 0, 67, 71
1, 3652, Note_on_c, 0, 58, 41
1, 3662, Control_c, 0, 67, 72
1, 3677, Control_c, 0, 67, 72
1, 3692, Control_c, 0, 67, 73
1, 3699, Note_off_c, 0, 66, 39
1, 3707, Control_c, 0, 67, 73
1, 3722, Control_c, 0, 64, 96
1, 3722, Control_c, 0, 67, 75
1, 3737, Control_c, 0, 67, 80
1, 3751, Control_c, 0, 64, 95
1, 3751, Control_c, 0, 67, 85
1, 3763, Note_on_c, 0, 61, 44
1, 3766, Control_c, 0, 64, 94
1, 3766, Control_c, 0, 67, 91
1, 3781, Control_c, 0, 64, 93
1, 3781, Control_c, 0, 67, 97
1, 3795, Control_c, 0, 67, 105
1, 3810, Control_c, 0, 67, 111
1, 3825, Control_c, 0, 67, 116
1, 3840, Control_c, 0, 67, 121
1, 3855, Control_c, 0, 67, 124
1, 3860, Note_off_c, 0, 58, 26
1, 3862, Note_off_c, 0, 61, 56
1, 3869, Control_c, 0, 67, 126
1, 3877, Note_on_c, 0, 66, 43
1, 3898, Note_off_c, 0, 70, 33
1, 4012, Note_on_c, 0, 61, 43
1, 4028, Note_off_c, 0, 49, 38
1, 4102, Note_off_c, 0, 61, 56
1, 4139, Note_on_c, 0, 58, 39
1, 4155, Note_off_c, 0, 42, 38
1, 4160, Control_c, 0, 67, 126
1, 4204, Control_c, 0, 64, 93
1, 4204, Control_c, 0, 67, 125
1, 4248, Control_c, 0, 64, 92
1, 4278, Control_c, 0, 64, 91
1, 4292, Control_c, 0, 64, 91
1, 4307, Control_c, 0, 64, 90
1, 4307, Control_c, 0, 67, 125
1, 4322, Control_c, 0, 64, 89
1, 4352, Control_c, 0, 64, 88
1, 4365, Note_on_c, 0, 51, 35
1, 4366, Control_c, 0, 64, 87
1, 4381, Control_c, 0, 64, 86
1, 4382, Note_on_c, 0, 39, 33
1, 4396, Control_c, 0, 64, 84
1, 4396, Control_c, 0, 67, 124
1, 4400, Note_on_c, 0, 70, 57
1, 4406, Note_off_c, 0, 58, 33
1, 4411, Control_c, 0, 64, 82
1, 4426, Control_c, 0, 64, 81
1, 4441, Control_c, 0, 64, 79
1, 4456, Control_c, 0, 64, 76
1, 4471, Control_c, 0, 64, 71
1, 4486, Control_c, 0, 64, 63
1, 4500, Control_c, 0, 64, 34
1, 4515, Control_c, 0, 64, 0
1, 4515, Control_c, 0, 67, 124
1, 4560, Control_c, 0, 67, 123
1, 4605, Note_off_c, 0, 66, 21
1, 4657, Note_on_c, 0, 58, 37
1, 4685, Control_c, 0, 64, 50
1, 4700, Control_c, 0, 64, 62
1, 4715, Control_c, 0, 64, 65
1, 4730, Control_c, 0, 64, 67
1, 4744, Control_c, 0, 64, 70
1, 4759, Control_c, 0, 64, 73
1, 4774, Control_c, 0, 64, 77
1, 4789, Control_c, 0, 64, 80
1, 4804, Control_c, 0, 64, 82
1, 4811, Note_on_c, 0, 63, 40
1, 4818, Control_c, 0, 64, 84
1, 4833, Control_c, 0, 64, 86
1, 4849, Control_c, 0, 64, 88
1, 4864, Control_c, 0, 64, 90
1, 4879, Control_c, 0, 64, 92
1, 4879, Control_c, 0, 67, 124
1, 4894, Control_c, 0, 64, 93
1, 4894, Control_c, 0, 67, 124
1, 4909, Control_c, 0, 64, 94
1, 4923, Control_c, 0, 64, 96
1, 4923, Control_c, 0, 67, 125
1, 4932, Note_off_c, 0, 58, 38
1, 4938, Control_c, 0, 64, 98
1, 4938, Control_c, 0, 67, 125
1, 4939, Note_on_c, 0, 66, 44
1, 4942, Note_off_c, 0, 63, 42
1, 4953, Control_c, 0, 64, 100
1, 4953, Control_c, 0, 67, 126
1, 4968, Control_c, 0, 64, 102
1, 4968, Control_c, 0, 67, 126
1, 4983, Control_c, 0, 64, 103
1, 4997, Control_c, 0, 64, 104
1, 4997, Control_c, 0, 67, 127
1, 5012, Control_c, 0, 64, 105
1, 5012, Control_c, 0, 67, 127
1, 5041, Control_c, 0, 64, 105
1, 5042, Note_off_c, 0, 66, 58
1, 5068, Note_on_c, 0, 63, 38
1, 5071, Control_c, 0, 64, 106
1, 5126, Note_off_c, 0, 63, 55
1, 5158, Note_on_c, 0, 58, 40
1, 5210, Note_off_c, 0, 58, 44
1, 5267, Note_on_c, 0, 63, 41
1, 5331, Note_off_c, 0, 63, 48
1, 5371, Note_on_c, 0, 58, 29
1, 5468, Note_off_c, 0, 70, 41
1, 5478, Note_on_c, 0, 63, 44
1, 5512, Note_off_c, 0, 58, 29
1, 5553, Control_c, 0, 64, 106
1, 5559, Note_off_c, 0, 63, 55
1, 5613, Note_on_c, 0, 66, 32
1, 5669, Note_off_c, 0, 66, 46
1, 5705, Note_on_c, 0, 63, 36
1, 5738, Note_off_c, 0, 63, 51
1, 5812, Note_on_c, 0, 58, 32
1, 5848, Note_off_c, 0, 58, 49
1, 5928, Note_on_c, 0, 66, 55
1, 6042, Control_c, 0, 64, 107
1, 6050, Note_on_c, 0, 54, 29
1, 6101, Control_c, 0, 64, 107
1, 6131, Control_c, 0, 64, 108
1, 6146, Control_c, 0, 64, 108
1, 6151, Note_off_c, 0, 54, 33
1, 6168, Note_on_c, 0, 58, 28
1, 6183, Control_c, 0, 64, 109
1, 6212, Control_c, 0, 64, 109
1, 6239, Note_off_c, 0, 58, 43
1, 6242, Control_c, 0, 64, 110
1, 6258, Note_on_c, 0, 63, 41
1, 6337, Note_off_c, 0, 63, 55
1, 6375, Note_on_c, 0, 58, 39
1, 6433, Note_off_c, 0, 58, 59
1, 6489, Note_on_c, 0, 54, 25
1, 6540, Note_off_c, 0, 54, 44
1, 6595, Note_on_c, 0, 58, 33
1, 6649, Note_off_c, 0, 58, 58
1, 6679, Note_off_c, 0, 66, 0
1, 6700, Note_on_c, 0, 54, 30
1, 6715, Poly_aftertouch_c, 0, 66, 127
1, 6776, Control_c, 0, 64, 109
1, 6798, Note_on_c, 0, 58, 37
1, 6818, Poly_aftertouch_c, 0, 66, 0
1, 6838, Note_off_c, 0, 54, 29
1, 6877, Note_off_c, 0, 51, 60
1, 6882, Note_off_c, 0, 58, 58
1, 6925, Note_on_c, 0, 63, 40
1, 6986, Note_off_c, 0, 39, 40
1, 6991, Control_c, 0, 64, 109
1, 7004, Note_off_c, 0, 63, 55
1, 7020, Control_c, 0, 64, 108
1, 7034, Note_on_c, 0, 58, 43
1, 7050, Control_c, 0, 64, 108
1, 7080, Control_c, 0, 64, 107
1, 7094, Control_c, 0, 64, 107
1, 7109, Control_c, 0, 64, 106
1, 7124, Note_off_c, 0, 58, 58
1, 7124, Control_c, 0, 64, 106
1, 7139, Control_c, 0, 64, 105
1, 7153, Control_c, 0, 64, 105
1, 7168, Control_c, 0, 64, 104
1, 7183, Control_c, 0, 64, 104
1, 7186, Note_on_c, 0, 54, 32
1, 7198, Control_c, 0, 64, 103
1, 7213, Control_c, 0, 64, 102
1, 7228, Control_c, 0, 64, 101
1, 7243, Control_c, 0, 64, 100
1, 7258, Control_c, 0, 64, 100
1, 7273, Control_c, 0, 64, 99
1, 7288, Control_c, 0, 64, 98
1, 7303, Control_c, 0, 64, 97
1, 7317, Control_c, 0, 64, 96
1, 7325, Note_off_c, 0, 54, 37
1, 7332, Control_c, 0, 64, 95
1, 7347, Control_c, 0, 64, 94
1, 7362, Control_c, 0, 64, 92
1, 7377, Control_c, 0, 64, 90
1, 7389, Note_on_c, 0, 68, 62
1, 7392, Control_c, 0, 64, 88
1, 7407, Control_c, 0, 64, 87
1, 7422, Control_c, 0, 64, 87
1, 7431, Note_on_c, 0, 47, 37
1, 7432, Note_on_c, 0, 35, 38
1, 7436, Control_c, 0, 64, 86
1, 7451, Control_c, 0, 64, 85
1, 7466, Control_c, 0, 64, 83
1, 7481, Control_c, 0, 64, 78
1, 7496, Control_c, 0, 64, 72
1, 7510, Control_c, 0, 64, 61
1, 7525, Control_c, 0, 64, 0
1, 7711, Control_c, 0, 64, 57
1, 7725, Control_c, 0, 64, 66
1, 7740, Control_c, 0, 64, 69
1, 7755, Control_c, 0, 64, 72
1, 7769, Control_c, 0, 64, 75
1, 7784, Control_c, 0, 64, 78
1, 7799, Note_on_c, 0, 59, 34
1, 7799, Control_c, 0, 64, 80
1, 7814, Control_c, 0, 64, 82
1, 7829, Control_c, 0, 64, 83
1, 7843, Control_c, 0, 64, 83
1, 7858, Control_c, 0, 64, 84
1, 7870, Note_off_c, 0, 59, 39
1, 7873, Control_c, 0, 64, 85
1, 7888, Control_c, 0, 64, 87
1, 7903, Control_c, 0, 64, 88
1, 7905, Note_on_c, 0, 63, 43
1, 7917, Control_c, 0, 64, 89
1, 7932, Control_c, 0, 64, 90
1, 7947, Control_c, 0, 64, 91
1, 7961, Control_c, 0, 64, 92
1, 7976, Control_c, 0, 64, 92
1, 7991, Control_c, 0, 64, 93
1, 8006, Note_on_c, 0, 59, 40
1, 8037, Control_c, 0, 64, 93
1, 8049, Note_off_c, 0, 63, 39
1, 8066, Control_c, 0, 67, 122
1, 8081, Control_c, 0, 67, 116
1, 8096, Note_off_c, 0, 59, 35
1, 8096, Control_c, 0, 67, 113
1, 8111, Control_c, 0, 67, 111
1, 8126, Control_c, 0, 67, 110
1, 8140, Control_c, 0, 67, 109
1, 8155, Control_c, 0, 67, 108
1, 8165, Poly_aftertouch_c, 0, 56, 127
1, 8170, Control_c, 0, 67, 109
1, 8185, Control_c, 0, 67, 109
1, 8201, Poly_aftertouch_c, 0, 56, 0
1, 8215, Control_c, 0, 67, 110
1, 8236, Note_on_c, 0, 59, 38
1, 8244, Control_c, 0, 67, 110
1, 8259, Control_c, 0, 67, 111
1, 8274, Control_c, 0, 67, 112
1, 8278, Note_off_c, 0, 59, 46
1, 8289, Control_c, 0, 67, 113
1, 8304, Control_c, 0, 67, 114
1, 8319, Control_c, 0, 67, 115
1, 8320, Note_on_c, 0, 56, 42
1, 8333, Control_c, 0, 67, 116
1, 8348, Control_c, 0, 67, 118
1, 8363, Control_c, 0, 67, 120
1, 8378, Control_c, 0, 67, 122
1, 8392, Control_c, 0, 67, 125
1, 8414, Control_c, 0, 67, 127
1, 8453, Note_on_c, 0, 59, 33
1, 8459, Control_c, 0, 64, 93
1, 8471, Note_off_c, 0, 56, 31
1, 8489, Note_off_c, 0, 68, 42
1, 8504, Control_c, 0, 64, 92
1, 8515, Note_off_c, 0, 35, 41
1, 8534, Control_c, 0, 64, 92
1, 8563, Control_c, 0, 64, 91
1, 8571, Note_on_c, 0, 63, 41
1, 8572, Note_off_c, 0, 59, 41
1, 8581, Note_off_c, 0, 47, 44
1, 8592, Control_c, 0, 64, 91
1, 8622, Control_c, 0, 64, 90
1, 8652, Control_c, 0, 64, 90
1, 8666, Control_c, 0, 64, 89
1, 8676, Note_off_c, 0, 63, 38
1, 8681, Control_c, 0, 64, 89
1, 8711, Control_c, 0, 64, 88
1, 8713, Note_on_c, 0, 59, 17
1, 8740, Control_c, 0, 64, 88
1, 8755, Control_c, 0, 64, 87
1, 8763, Note_off_c, 0, 59, 45
1, 8770, Control_c, 0, 64, 87
1, 8793, Note_on_c, 0, 56, 33
1, 8799, Control_c, 0, 64, 86
1, 8814, Control_c, 0, 64, 86
1, 8829, Control_c, 0, 64, 85
1, 8845, Control_c, 0, 64, 83
1, 8860, Control_c, 0, 64, 82
1, 8875, Control_c, 0, 64, 79
1, 8889, Control_c, 0, 64, 77
1, 8904, Control_c, 0, 64, 74
1, 8919, Control_c, 0, 64, 70
1, 8926, Note_off_c, 0, 56, 27
1, 8934, Control_c, 0, 64, 65
1, 8949, Control_c, 0, 64, 54
1, 8958, Note_on_c, 0, 66, 51
1, 8963, Note_on_c, 0, 49, 33
1, 8963, Control_c, 0, 64, 42
1, 8974, Note_on_c, 0, 37, 29
1, 8993, Control_c, 0, 64, 45
1, 9008, Control_c, 0, 64, 46
1, 9022, Control_c, 0, 64, 49
1, 9037, Control_c, 0, 64, 56
1, 9052, Control_c, 0, 64, 61
1, 9067, Control_c, 0, 64, 64
1, 9082, Control_c, 0, 64, 66
1, 9095, Note_on_c, 0, 56, 33
1, 9097, Control_c, 0, 64, 70
1, 9112, Control_c, 0, 64, 75
1, 9127, Control_c, 0, 64, 79
1, 9142, Control_c, 0, 64, 83
1, 9163, Control_c, 0, 64, 85
1, 9178, Control_c, 0, 64, 88
1, 9193, Control_c, 0, 64, 90
1, 9208, Control_c, 0, 64, 92
1, 9212, Note_off_c, 0, 66, 36
1, 9222, Note_on_c, 0, 59, 34
1, 9222, Control_c, 0, 64, 93
1, 9237, Control_c, 0, 64, 93
1, 9252, Control_c, 0, 64, 94
1, 9303, Note_off_c, 0, 56, 33
1, 9314, Note_on_c, 0, 65, 59
1, 9404, Note_off_c, 0, 59, 37
1, 9430, Note_on_c, 0, 56, 47
1, 9445, Control_c, 0, 64, 94
1, 9489, Control_c, 0, 64, 95
1, 9504, Control_c, 0, 64, 95
1, 9519, Control_c, 0, 64, 96
1, 9526, Note_on_c, 0, 59, 47
1, 9533, Control_c, 0, 64, 97
1, 9548, Control_c, 0, 64, 98
1, 9563, Control_c, 0, 64, 99
1, 9578, Control_c, 0, 64, 101
1, 9591, Note_off_c, 0, 56, 30
1, 9593, Control_c, 0, 64, 102
1, 9608, Control_c, 0, 64, 103
1, 9622, Control_c, 0, 64, 103
1, 9636, Note_off_c, 0, 65, 60
1, 9640, Note_on_c, 0, 63, 63
1, 9668, Control_c, 0, 64, 104
1, 9712, Note_off_c, 0, 59, 29
1, 9739, Note_on_c, 0, 56, 45
1, 9812, Note_off_c, 0, 49, 40
1, 9818, Note_off_c, 0, 56, 49
1, 9841, Note_on_c, 0, 59, 56
1, 9872, Note_off_c, 0, 63, 59
1, 9892, Note_off_c, 0, 37, 41
1, 9977, Note_on_c, 0, 61, 66
1, 9984, Note_off_c, 0, 59, 56
1, 10023, Note_on_c, 0, 47, 38
1, 10028, Note_on_c, 0, 49, 37
1, 10031, Control_c, 0, 64, 103
1, 10075, Control_c, 0, 64, 103
1, 10090, Note_on_c, 0, 53, 45
1, 10090, Control_c, 0, 64, 102
1, 10105, Control_c, 0, 64, 102
1, 10119, Control_c, 0, 64, 101
1, 10149, Control_c, 0, 64, 101
1, 10164, Control_c, 0, 64, 100
1, 10179, Control_c, 0, 64, 100
1, 10181, Note_off_c, 0, 49, 34
1, 10205, Note_off_c, 0, 53, 59
1, 10207, Note_on_c, 0, 56, 44
1, 10209, Control_c, 0, 64, 99
1, 10224, Control_c, 0, 64, 99
1, 10238, Control_c, 0, 64, 98
1, 10243, Note_off_c, 0, 56, 57
1, 10253, Control_c, 0, 64, 98
1, 10268, Control_c, 0, 64, 97
1, 10283, Control_c, 0, 64, 96
1, 10298, Control_c, 0, 64, 95
1, 10312, Control_c, 0, 64, 94
1, 10327, Control_c, 0, 64, 93
1, 10342, Control_c, 0, 64, 91
1, 10354, Note_off_c, 0, 47, 42
1, 10357, Control_c, 0, 64, 89
1, 10364, Note_off_c, 0, 61, 33
1, 10367, Note_on_c, 0, 66, 63
1, 10371, Control_c, 0, 64, 86
1, 10382, Note_on_c, 0, 49, 39
1, 10386, Control_c, 0, 64, 81
1, 10388, Note_on_c, 0, 46, 41
1, 10401, Control_c, 0, 64, 75
1, 10416, Control_c, 0, 64, 68
1, 10432, Control_c, 0, 64, 57
1, 10447, Control_c, 0, 64, 0
1, 10513, Note_on_c, 0, 54, 45
1, 10565, Control_c, 0, 64, 34
1, 10579, Control_c, 0, 64, 62
1, 10594, Control_c, 0, 64, 67
1, 10609, Control_c, 0, 64, 70
1, 10620, Note_on_c, 0, 58, 45
1, 10624, Control_c, 0, 64, 74
1, 10639, Control_c, 0, 64, 78
1, 10661, Control_c, 0, 64, 82
1, 10676, Control_c, 0, 64, 85
1, 10691, Control_c, 0, 64, 86
1, 10706, Control_c, 0, 64, 87
1, 10708, Note_off_c, 0, 58, 55
1, 10721, Control_c, 0, 64, 87
1, 10722, Note_off_c, 0, 54, 28
1, 10728, Note_on_c, 0, 61, 53
1, 10774, Note_off_c, 0, 66, 37
1, 10811, Note_off_c, 0, 61, 52
1, 10840, Note_on_c, 0, 58, 47
1, 10879, Note_off_c, 0, 58, 46
1, 10898, Control_c, 0, 64, 87
1, 10927, Note_on_c, 0, 54, 50
1, 10928, Control_c, 0, 64, 86
1, 10942, Control_c, 0, 64, 86
1, 10948, Note_off_c, 0, 54, 60
1, 10957, Control_c, 0, 64, 85
1, 10972, Control_c, 0, 64, 84
1, 10987, Control_c, 0, 64, 83
1, 11002, Control_c, 0, 64, 82
1, 11017, Control_c, 0, 64, 80
1, 11032, Control_c, 0, 64, 78
1, 11046, Control_c, 0, 64, 76
1, 11061, Control_c, 0, 64, 74
1, 11076, Control_c, 0, 64, 71
1, 11083, Note_on_c, 0, 70, 63
1, 11090, Note_on_c, 0, 51, 40
1, 11090, Note_off_c, 0, 49, 28
1, 11091, Control_c, 0, 64, 68
1, 11106, Control_c, 0, 64, 63
1, 11106, Note_on_c, 0, 42, 34
1, 11116, Note_off_c, 0, 46, 30
1, 11121, Control_c, 0, 64, 48
1, 11135, Control_c, 0, 64, 0
1, 11240, Control_c, 0, 64, 61
1, 11250, Note_on_c, 0, 60, 42
1, 11255, Control_c, 0, 64, 67
1, 11270, Control_c, 0, 64, 70
1, 11284, Control_c, 0, 64, 74
1, 11299, Control_c, 0, 64, 77
1, 11314, Control_c, 0, 64, 80
1, 11329, Control_c, 0, 64, 82
1, 11344, Control_c, 0, 64, 84
1, 11351, Note_off_c, 0, 70, 54
1, 11358, Control_c, 0, 64, 84
1, 11364, Note_on_c, 0, 63, 41
1, 11373, Control_c, 0, 64, 85
1, 11458, Note_off_c, 0, 63, 37
1, 11469, Note_off_c, 0, 60, 22
1, 11483, Note_on_c, 0, 66, 49
1, 11556, Note_off_c, 0, 51, 0
1, 11588, Poly_aftertouch_c, 0, 51, 0
1, 11588, Control_c, 0, 64, 84
1, 11617, Control_c, 0, 64, 84
1, 11632, Control_c, 0, 64, 83
1, 11635, Note_on_c, 0, 63, 51
1, 11647, Control_c, 0, 64, 83
1, 11662, Control_c, 0, 64, 82
1, 11677, Control_c, 0, 64, 81
1, 11684, Note_off_c, 0, 42, 32
1, 11692, Control_c, 0, 64, 81
1, 11694, Note_off_c, 0, 66, 39
1, 11707, Control_c, 0, 64, 80
1, 11722, Control_c, 0, 64, 79
1, 11729, Note_off_c, 0, 63, 63
1, 11736, Control_c, 0, 64, 79
1, 11751, Control_c, 0, 64, 78
1, 11766, Control_c, 0, 64, 78
1, 11781, Note_on_c, 0, 60, 46
1, 11781, Control_c, 0, 64, 77
1, 11796, Control_c, 0, 64, 76
1, 11818, Note_on_c, 0, 37, 37
1, 11825, Control_c, 0, 64, 76
1, 11855, Control_c, 0, 64, 75
1, 11870, Control_c, 0, 64, 74
1, 11884, Control_c, 0, 64, 73
1, 11899, Control_c, 0, 64, 72
1, 11914, Control_c, 0, 64, 70
1, 11929, Control_c, 0, 64, 69
1, 11944, Control_c, 0, 64, 67
1, 11959, Control_c, 0, 64, 66
1, 11971, Note_off_c, 0, 60, 24
1, 11974, Control_c, 0, 64, 64
1, 11988, Control_c, 0, 64, 62
1, 12003, Control_c, 0, 64, 59
1, 12018, Note_on_c, 0, 68, 59
1, 12018, Control_c, 0, 64, 55
1, 12033, Control_c, 0, 64, 45
1, 12041, Note_on_c, 0, 53, 34
1, 12048, Control_c, 0, 64, 0
1, 12263, Control_c, 0, 64, 61
1, 12278, Control_c, 0, 64, 67
1, 12293, Control_c, 0, 64, 70
1, 12307, Control_c, 0, 64, 72
1, 12322, Control_c, 0, 64, 75
1, 12337, Control_c, 0, 64, 78
1, 12352, Control_c, 0, 64, 81
1, 12367, Control_c, 0, 64, 83
1, 12370, Note_on_c, 0, 56, 42
1, 12382, Control_c, 0, 64, 83
1, 12382, Note_off_c, 0, 53, 38
1, 12397, Control_c, 0, 64, 84
1, 12412, Control_c, 0, 64, 85
1, 12427, Control_c, 0, 64, 85
1, 12445, Note_off_c, 0, 56, 48
1, 12456, Control_c, 0, 64, 86
1, 12487, Note_on_c, 0, 61, 41
1, 12510, Note_off_c, 0, 68, 35
1, 12543, Note_off_c, 0, 61, 45
1, 12634, Note_on_c, 0, 65, 23
1, 12700, Note_off_c, 0, 65, 43
1, 12707, Note_on_c, 0, 61, 34
1, 12813, Note_off_c, 0, 61, 38
1, 12827, Note_on_c, 0, 56, 38
1, 12872, Note_off_c, 0, 56, 44
1, 12939, Note_on_c, 0, 61, 48
1, 12980, Note_off_c, 0, 61, 52
1, 13049, Note_on_c, 0, 56, 33
1, 13146, Note_on_c, 0, 61, 39
1, 13147, Note_off_c, 0, 56, 35
1, 13282, Note_on_c, 0, 69, 60
1, 13309, Note_off_c, 0, 61, 42
1, 13332, Note_on_c, 0, 65, 37
1, 13409, Note_off_c, 0, 69, 54
1, 13430, Note_on_c, 0, 61, 40
1, 13485, Control_c, 0, 64, 85
1, 13494, Note_off_c, 0, 65, 40
1, 13541, Note_off_c, 0, 37, 26
1, 13559, Control_c, 0, 64, 85
1, 13577, Note_on_c, 0, 57, 42
1, 13583, Note_off_c, 0, 61, 34
1, 13604, Control_c, 0, 64, 84
1, 13634, Control_c, 0, 64, 84
1, 13657, Control_c, 0, 64, 83
1, 13686, Control_c, 0, 64, 83
1, 13716, Control_c, 0, 64, 82
1, 13731, Control_c, 0, 64, 81
1, 13746, Control_c, 0, 64, 81
1, 13760, Control_c, 0, 64, 80
1, 13764, Note_off_c, 0, 57, 32
1, 13775, Control_c, 0, 64, 79
1, 13790, Control_c, 0, 64, 79
1, 13804, Control_c, 0, 64, 78
1, 13819, Control_c, 0, 64, 78
1, 13831, Note_on_c, 0, 70, 59
1, 13834, Control_c, 0, 64, 76
1, 13849, Control_c, 0, 64, 74
1, 13860, Note_on_c, 0, 42, 29
1, 13864, Control_c, 0, 64, 71
1, 13866, Note_on_c, 0, 49, 30
1, 13878, Control_c, 0, 64, 66
1, 13893, Control_c, 0, 64, 55
1, 13908, Control_c, 0, 64, 0
1, 14100, Control_c, 0, 64, 48
1, 14115, Control_c, 0, 64, 63
1, 14129, Note_on_c, 0, 58, 18
1, 14129, Control_c, 0, 64, 66
1, 14144, Control_c, 0, 64, 69
1, 14159, Control_c, 0, 64, 72
1, 14174, Control_c, 0, 64, 76
1, 14189, Control_c, 0, 64, 79
1, 14203, Note_off_c, 0, 58, 39
1, 14203, Control_c, 0, 64, 82
1, 14218, Control_c, 0, 64, 84
1, 14227, Note_on_c, 0, 61, 34
1, 14233, Control_c, 0, 64, 85
1, 14248, Control_c, 0, 64, 87
1, 14263, Control_c, 0, 64, 88
1, 14278, Control_c, 0, 64, 89
1, 14293, Control_c, 0, 64, 90
1, 14308, Control_c, 0, 64, 91
1, 14328, Note_off_c, 0, 61, 45
1, 14337, Control_c, 0, 64, 91
1, 14339, Note_on_c, 0, 66, 42
1, 14367, Control_c, 0, 64, 92
1, 14480, Note_on_c, 0, 61, 35
1, 14492, Note_off_c, 0, 66, 36
1, 14516, Note_off_c, 0, 61, 55
1, 14538, Control_c, 0, 64, 92
1, 14587, Note_on_c, 0, 58, 16
1, 14627, Note_off_c, 0, 58, 49
1, 14667, Note_on_c, 0, 61, 37
1, 14720, Note_off_c, 0, 61, 57
1, 14766, Note_on_c, 0, 58, 30
1, 14820, Note_off_c, 0, 58, 42
1, 14865, Note_on_c, 0, 61, 42
1, 14944, Note_off_c, 0, 61, 48
1, 14953, Control_c, 0, 64, 93
1, 14975, Note_off_c, 0, 70, 36
1, 14983, Note_on_c, 0, 66, 41
1, 15024, Note_off_c, 0, 42, 39
1, 15057, Note_off_c, 0, 49, 39
1, 15057, Control_c, 0, 64, 93
1, 15086, Note_on_c, 0, 61, 41
1, 15087, Control_c, 0, 64, 94
1, 15116, Control_c, 0, 64, 94
1, 15136, Note_off_c, 0, 61, 56
1, 15168, Control_c, 0, 64, 95
1, 15190, Note_on_c, 0, 58, 40
1, 15229, Control_c, 0, 64, 95
1, 15262, Note_off_c, 0, 58, 41
1, 15295, Note_on_c, 0, 70, 66
1, 15329, Note_on_c, 0, 49, 35
1, 15341, Note_off_c, 0, 66, 0
1, 15351, Note_on_c, 0, 42, 30
1, 15378, Poly_aftertouch_c, 0, 66, 127
1, 15430, Note_on_c, 0, 58, 43
1, 15450, Poly_aftertouch_c, 0, 66, 0
1, 15503, Note_off_c, 0, 58, 51
1, 15541, Note_on_c, 0, 61, 39
1, 15617, Note_off_c, 0, 61, 55
1, 15649, Note_on_c, 0, 66, 46
1, 15669, Note_off_c, 0, 70, 30
1, 15753, Note_on_c, 0, 61, 50
1, 15759, Note_off_c, 0, 42, 41
1, 15760, Note_off_c, 0, 49, 40
1, 15817, Note_off_c, 0, 66, 27
1, 15827, Note_off_c, 0, 61, 49
1, 15855, Note_on_c, 0, 58, 45
1, 15941, Note_off_c, 0, 58, 55
1, 15972, Note_on_c, 0, 70, 72
1, 16010, Note_on_c, 0, 49, 36
1, 16034, Note_on_c, 0, 42, 31
1, 16099, Note_on_c, 0, 58, 47
1, 16099, Poly_aftertouch_c, 0, 66, 127
1, 16175, Poly_aftertouch_c, 0, 66, 0
1, 16217, Note_on_c, 0, 61, 45
1, 16272, Control_c, 0, 64, 95
1, 16310, Note_off_c, 0, 58, 22
1, 16316, Note_off_c, 0, 61, 53
1, 16326, Note_on_c, 0, 66, 42
1, 16329, Note_off_c, 0, 70, 49
1, 16381, Note_off_c, 0, 49, 38
1, 16454, Note_off_c, 0, 66, 0
1, 16463, Note_on_c, 0, 61, 39
1, 16466, Control_c, 0, 64, 94
1, 16490, Poly_aftertouch_c, 0, 66, 127
1, 16530, Note_off_c, 0, 61, 55
1, 16539, Control_c, 0, 64, 94
1, 16577, Note_on_c, 0, 58, 37
1, 16598, Control_c, 0, 64, 93
1, 16628, Control_c, 0, 64, 93
1, 16657, Note_off_c, 0, 58, 35
1, 16665, Control_c, 0, 64, 92
1, 16695, Control_c, 0, 64, 92
1, 16710, Control_c, 0, 64, 91
1, 16739, Control_c, 0, 64, 91
1, 16754, Control_c, 0, 64, 90
1, 16769, Control_c, 0, 64, 89
1, 16784, Control_c, 0, 64, 88
1, 16788, Note_on_c, 0, 70, 66
1, 16798, Control_c, 0, 64, 87
1, 16813, Control_c, 0, 64, 86
1, 16823, Note_on_c, 0, 51, 33
1, 16826, Note_on_c, 0, 39, 34
1, 16829, Control_c, 0, 64, 84
1, 16844, Control_c, 0, 64, 82
1, 16859, Control_c, 0, 64, 80
1, 16874, Control_c, 0, 64, 77
1, 16889, Control_c, 0, 64, 73
1, 16900, Note_off_c, 0, 42, 33
1, 16903, Control_c, 0, 64, 69
1, 16918, Control_c, 0, 64, 64
1, 16933, Control_c, 0, 64, 50
1, 16947, Control_c, 0, 64, 0
1, 16949, Poly_aftertouch_c, 0, 66, 0
1, 17014, Note_on_c, 0, 58, 36
1, 17096, Control_c, 0, 64, 55
1, 17110, Control_c, 0, 64, 64
1, 17125, Control_c, 0, 64, 68
1, 17136, Note_on_c, 0, 63, 39
1, 17140, Control_c, 0, 64, 72
1, 17154, Control_c, 0, 64, 75
1, 17169, Note_off_c, 0, 58, 32
1, 17169, Control_c, 0, 64, 79
1, 17184, Control_c, 0, 64, 81
1, 17199, Control_c, 0, 64, 83
1, 17214, Control_c, 0, 64, 85
1, 17229, Control_c, 0, 64, 86
1, 17242, Note_on_c, 0, 66, 43
1, 17244, Control_c, 0, 64, 87
1, 17252, Note_off_c, 0, 63, 36
1, 17259, Control_c, 0, 64, 88
1, 17274, Control_c, 0, 64, 89
1, 17288, Control_c, 0, 64, 89
1, 17369, Note_off_c, 0, 66, 43
1, 17384, Note_on_c, 0, 63, 37
1, 17429, Note_off_c, 0, 63, 49
1, 17449, Note_off_c, 0, 70, 0
1, 17482, Note_on_c, 0, 58, 27
1, 17487, Poly_aftertouch_c, 0, 70, 127
1, 17525, Note_off_c, 0, 58, 47
1, 17565, Note_on_c, 0, 63, 40
1, 17669, Note_on_c, 0, 58, 37
1, 17672, Note_off_c, 0, 63, 38
1, 17756, Poly_aftertouch_c, 0, 70, 0
1, 17789, Note_off_c, 0, 58, 28
1, 17801, Note_on_c, 0, 63, 37
1, 17884, Note_off_c, 0, 63, 39
1, 17907, Note_on_c, 0, 66, 32
1, 17962, Note_off_c, 0, 66, 46
1, 18022, Control_c, 0, 64, 89
1, 18057, Poly_aftertouch_c, 0, 63, 127
1, 18081, Poly_aftertouch_c, 0, 63, 0
1, 18106, Note_on_c, 0, 58, 39
1, 18163, Note_off_c, 0, 58, 46
1, 18240, Note_on_c, 0, 66, 51
1, 18296, Control_c, 0, 64, 88
1, 18356, Note_on_c, 0, 54, 41
1, 18465, Note_off_c, 0, 54, 31
1, 18466, Note_on_c, 0, 58, 34
1, 18502, Note_off_c, 0, 51, 41
1, 18512, Note_off_c, 0, 58, 48
1, 18555, Note_on_c, 0, 63, 46
1, 18564, Control_c, 0, 64, 88
1, 18585, Note_off_c, 0, 66, 40
1, 18589, Note_off_c, 0, 39, 47
1, 18594, Control_c, 0, 64, 87
1, 18609, Control_c, 0, 64, 86
1, 18624, Control_c, 0, 64, 86
1, 18639, Control_c, 0, 64, 85
1, 18654, Control_c, 0, 64, 84
1, 18668, Control_c, 0, 64, 84
1, 18672, Note_off_c, 0, 63, 35
1, 18673, Note_on_c, 0, 58, 30
1, 18683, Control_c, 0, 64, 83
1, 18712, Control_c, 0, 64, 83
1, 18735, Note_off_c, 0, 58, 36
1, 18742, Control_c, 0, 64, 82
1, 18757, Control_c, 0, 64, 82
1, 18772, Control_c, 0, 64, 81
1, 18787, Control_c, 0, 64, 80
1, 18788, Note_on_c, 0, 54, 32
1, 18801, Control_c, 0, 64, 79
1, 18816, Control_c, 0, 64, 79
1, 18831, Control_c, 0, 64, 78
1, 18846, Control_c, 0, 64, 77
1, 18861, Control_c, 0, 64, 77
1, 18890, Control_c, 0, 64, 76
1, 18913, Control_c, 0, 64, 76
1, 18919, Note_on_c, 0, 65, 59
1, 18927, Control_c, 0, 64, 75
1, 18932, Note_on_c, 0, 46, 41
1, 18940, Note_off_c, 0, 54, 34
1, 18942, Control_c, 0, 64, 73
1, 18957, Control_c, 0, 64, 71
1, 18959, Note_on_c, 0, 34, 24
1, 18972, Control_c, 0, 64, 68
1, 18987, Control_c, 0, 64, 63
1, 19001, Control_c, 0, 64, 55
1, 19016, Control_c, 0, 64, 53
1, 19031, Control_c, 0, 64, 56
1, 19046, Control_c, 0, 64, 57
1, 19053, Note_on_c, 0, 53, 43
1, 19061, Control_c, 0, 64, 58
1, 19075, Control_c, 0, 64, 60
1, 19090, Control_c, 0, 64, 63
1, 19105, Control_c, 0, 64, 65
1, 19119, Control_c, 0, 64, 67
1, 19134, Control_c, 0, 64, 70
1, 19149, Control_c, 0, 64, 73
1, 19155, Note_on_c, 0, 56, 42
1, 19164, Control_c, 0, 64, 75
1, 19178, Control_c, 0, 64, 77
1, 19193, Control_c, 0, 64, 78
1, 19199, Note_off_c, 0, 53, 30
1, 19208, Control_c, 0, 64, 79
1, 19219, Note_off_c, 0, 56, 56
1, 19223, Control_c, 0, 64, 79
1, 19238, Control_c, 0, 64, 80
1, 19245, Note_on_c, 0, 62, 55
1, 19247, Note_off_c, 0, 65, 37
1, 19318, Note_off_c, 0, 34, 57
1, 19330, Note_off_c, 0, 46, 40
1, 19336, Note_off_c, 0, 62, 56
1, 19368, Note_on_c, 0, 56, 37
1, 19425, Note_off_c, 0, 56, 42
1, 19431, Control_c, 0, 64, 79
1, 19446, Control_c, 0, 64, 79
1, 19461, Control_c, 0, 64, 78
1, 19469, Note_on_c, 0, 53, 45
1, 19505, Control_c, 0, 64, 77
1, 19540, Note_off_c, 0, 53, 56
1, 19549, Control_c, 0, 64, 77
1, 19594, Control_c, 0, 64, 76
1, 19599, Note_on_c, 0, 63, 65
1, 19609, Control_c, 0, 64, 75
1, 19613, Note_on_c, 0, 47, 41
1, 19623, Control_c, 0, 64, 73
1, 19627, Note_on_c, 0, 35, 41
1, 19646, Control_c, 0, 64, 71
1, 19661, Control_c, 0, 64, 65
1, 19676, Control_c, 0, 64, 53
1, 19691, Control_c, 0, 64, 0
1, 19735, Note_on_c, 0, 51, 52
1, 19794, Control_c, 0, 64, 37
1, 19809, Control_c, 0, 64, 60
1, 19823, Control_c, 0, 64, 65
1, 19833, Note_on_c, 0, 54, 42
1, 19838, Control_c, 0, 64, 69
1, 19853, Control_c, 0, 64, 74
1, 19868, Control_c, 0, 64, 78
1, 19882, Control_c, 0, 64, 81
1, 19897, Control_c, 0, 64, 83
1, 19912, Control_c, 0, 64, 83
1, 19935, Note_off_c, 0, 35, 40
1, 19940, Note_off_c, 0, 63, 50
1, 19941, Note_off_c, 0, 54, 53
1, 19946, Note_on_c, 0, 59, 51
1, 19954, Note_off_c, 0, 47, 45
1, 19959, Note_off_c, 0, 51, 19
1, 20079, Note_off_c, 0, 59, 37
1, 20094, Note_on_c, 0, 54, 33
1, 20106, Control_c, 0, 64, 83
1, 20135, Control_c, 0, 64, 82
1, 20149, Note_off_c, 0, 54, 41
1, 20150, Control_c, 0, 64, 82
1, 20163, Note_on_c, 0, 51, 56
1, 20165, Control_c, 0, 64, 81
1, 20180, Control_c, 0, 64, 81
1, 20193, Note_off_c, 0, 51, 57
1, 20195, Control_c, 0, 64, 80
1, 20210, Control_c, 0, 64, 79
1, 20225, Control_c, 0, 64, 78
1, 20240, Control_c, 0, 64, 77
1, 20254, Control_c, 0, 64, 76
1, 20269, Control_c, 0, 64, 74
1, 20284, Control_c, 0, 64, 72
1, 20299, Control_c, 0, 64, 69
1, 20309, Note_on_c, 0, 68, 65
1, 20314, Control_c, 0, 64, 65
1, 20329, Control_c, 0, 64, 59
1, 20334, Note_on_c, 0, 44, 39
1, 20339, Note_on_c, 0, 32, 34
1, 20344, Control_c, 0, 64, 40
1, 20359, Control_c, 0, 64, 0
1, 20442, Note_on_c, 0, 56, 52
1, 20469, Control_c, 0, 64, 55
1, 20484, Control_c, 0, 64, 64
1, 20499, Control_c, 0, 64, 67
1, 20514, Control_c, 0, 64, 71
1, 20529, Control_c, 0, 64, 75
1, 20544, Control_c, 0, 64, 79
1, 20555, Note_on_c, 0, 59, 47
1, 20559, Control_c, 0, 64, 81
1, 20573, Control_c, 0, 64, 82
1, 20588, Control_c, 0, 64, 83
1, 20603, Control_c, 0, 64, 83
1, 20618, Control_c, 0, 64, 84
1, 20631, Note_off_c, 0, 56, 25
1, 20642, Note_off_c, 0, 59, 50
1, 20645, Note_off_c, 0, 68, 56
1, 20651, Note_on_c, 0, 63, 57
1, 20662, Note_off_c, 0, 32, 40
1, 20731, Note_off_c, 0, 44, 40
1, 20785, Note_on_c, 0, 59, 47
1, 20795, Control_c, 0, 64, 83
1, 20826, Control_c, 0, 64, 83
1, 20841, Control_c, 0, 64, 82
1, 20856, Control_c, 0, 64, 82
1, 20870, Control_c, 0, 64, 81
1, 20885, Control_c, 0, 64, 80
1, 20900, Control_c, 0, 64, 80
1, 20907, Note_off_c, 0, 59, 39
1, 20914, Control_c, 0, 64, 79
1, 20919, Note_on_c, 0, 56, 44
1, 20929, Control_c, 0, 64, 78
1, 20941, Note_off_c, 0, 63, 19
1, 20944, Control_c, 0, 64, 78
1, 20959, Control_c, 0, 64, 77
1, 20974, Control_c, 0, 64, 76
1, 20988, Control_c, 0, 64, 76
1, 21003, Control_c, 0, 64, 75
1, 21018, Control_c, 0, 64, 74
1, 21033, Control_c, 0, 64, 73
1, 21045, Note_off_c, 0, 56, 34
1, 21048, Control_c, 0, 64, 72
1, 21062, Control_c, 0, 64, 71
1, 21077, Control_c, 0, 64, 70
1, 21092, Note_on_c, 0, 66, 63
1, 21092, Control_c, 0, 64, 68
1, 21107, Control_c, 0, 64, 66
1, 21122, Control_c, 0, 64, 63
1, 21128, Note_on_c, 0, 49, 36
1, 21131, Note_on_c, 0, 37, 34
1, 21144, Control_c, 0, 64, 60
1, 21159, Control_c, 0, 64, 56
1, 21174, Control_c, 0, 64, 51
1, 21189, Control_c, 0, 64, 40
1, 21203, Control_c, 0, 64, 0
1, 21259, Note_on_c, 0, 56, 40
1, 21322, Control_c, 0, 64, 46
1, 21337, Control_c, 0, 64, 56
1, 21351, Control_c, 0, 64, 62
1, 21366, Control_c, 0, 64, 64
1, 21372, Note_on_c, 0, 59, 37
1, 21381, Control_c, 0, 64, 66
1, 21396, Control_c, 0, 64, 68
1, 21400, Note_off_c, 0, 56, 32
1, 21411, Control_c, 0, 64, 70
1, 21426, Control_c, 0, 64, 71
1, 21441, Control_c, 0, 64, 73
1, 21456, Control_c, 0, 64, 74
1, 21458, Note_off_c, 0, 66, 39
1, 21471, Control_c, 0, 64, 76
1, 21474, Note_on_c, 0, 65, 63
1, 21486, Control_c, 0, 64, 78
1, 21501, Control_c, 0, 64, 79
1, 21515, Control_c, 0, 64, 80
1, 21530, Control_c, 0, 64, 80
1, 21556, Note_off_c, 0, 59, 30
1, 21560, Control_c, 0, 64, 81
1, 21601, Note_on_c, 0, 56, 47
1, 21604, Control_c, 0, 64, 81
1, 21700, Note_on_c, 0, 59, 44
1, 21748, Note_off_c, 0, 56, 28
1, 21820, Note_on_c, 0, 63, 64
1, 21827, Control_c, 0, 64, 81
1, 21829, Note_off_c, 0, 59, 0
1, 21849, Note_off_c, 0, 65, 40
1, 21894, Control_c, 0, 64, 80
1, 21895, Poly_aftertouch_c, 0, 59, 0
1, 21939, Control_c, 0, 64, 80
1, 21954, Note_on_c, 0, 56, 41
1, 21983, Control_c, 0, 64, 79
1, 22072, Control_c, 0, 64, 79
1, 22075, Note_off_c, 0, 56, 0
1, 22078, Note_on_c, 0, 59, 32
1, 22125, Poly_aftertouch_c, 0, 56, 0
1, 22204, Note_on_c, 0, 65, 61
1, 22205, Control_c, 0, 64, 78
1, 22230, Note_off_c, 0, 59, 37
1, 22264, Control_c, 0, 64, 78
1, 22284, Note_off_c, 0, 63, 31
1, 22323, Control_c, 0, 64, 77
1, 22330, Note_on_c, 0, 56, 40
1, 22428, Control_c, 0, 64, 77
1, 22452, Note_off_c, 0, 49, 40
1, 22454, Note_off_c, 0, 56, 42
1, 22461, Note_on_c, 0, 59, 47
1, 22472, Control_c, 0, 64, 76
1, 22502, Control_c, 0, 64, 76
1, 22517, Control_c, 0, 64, 75
1, 22547, Control_c, 0, 64, 75
1, 22591, Control_c, 0, 64, 74
1, 22621, Control_c, 0, 64, 74
1, 22657, Control_c, 0, 64, 73
1, 22672, Control_c, 0, 64, 73
1, 22687, Control_c, 0, 64, 72
1, 22702, Control_c, 0, 64, 71
1, 22708, Note_off_c, 0, 59, 27
1, 22717, Control_c, 0, 64, 70
1, 22732, Control_c, 0, 64, 68
1, 22739, Note_on_c, 0, 68, 57
1, 22747, Control_c, 0, 64, 67
1, 22750, Note_on_c, 0, 49, 33
1, 22761, Control_c, 0, 64, 66
1, 22768, Note_on_c, 0, 42, 36
1, 22776, Control_c, 0, 64, 65
1, 22791, Control_c, 0, 64, 64
1, 22806, Control_c, 0, 64, 63
1, 22806, Note_off_c, 0, 65, 27
1, 22821, Control_c, 0, 64, 62
1, 22836, Control_c, 0, 64, 59
1, 22850, Control_c, 0, 64, 56
1, 22861, Note_off_c, 0, 37, 38
1, 22865, Control_c, 0, 64, 50
1, 22880, Control_c, 0, 64, 39
1, 22894, Control_c, 0, 64, 0
1, 23030, Note_on_c, 0, 59, 34
1, 23146, Control_c, 0, 64, 36
1, 23161, Control_c, 0, 64, 61
1, 23162, Note_on_c, 0, 61, 35
1, 23176, Control_c, 0, 64, 65
1, 23182, Note_off_c, 0, 59, 38
1, 23191, Control_c, 0, 64, 67
1, 23206, Control_c, 0, 64, 70
1, 23221, Control_c, 0, 64, 72
1, 23236, Control_c, 0, 64, 74
1, 23244, Note_off_c, 0, 61, 38
1, 23251, Control_c, 0, 64, 76
1, 23265, Control_c, 0, 64, 77
1, 23276, Note_on_c, 0, 65, 38
1, 23280, Control_c, 0, 64, 78
1, 23295, Control_c, 0, 64, 79
1, 23310, Control_c, 0, 64, 80
1, 23325, Control_c, 0, 64, 81
1, 23340, Control_c, 0, 64, 82
1, 23355, Control_c, 0, 64, 83
1, 23363, Note_off_c, 0, 65, 38
1, 23370, Control_c, 0, 64, 83
1, 23378, Note_on_c, 0, 61, 43
1, 23391, Control_c, 0, 64, 84
1, 23465, Note_off_c, 0, 61, 45
1, 23501, Note_on_c, 0, 59, 31
1, 23551, Note_off_c, 0, 59, 42
1, 23600, Note_on_c, 0, 61, 45
1, 23656, Note_off_c, 0, 61, 41
1, 23722, Note_on_c, 0, 59, 34
1, 23790, Control_c, 0, 64, 83
1, 23805, Note_off_c, 0, 59, 34
1, 23816, Note_on_c, 0, 61, 40
1, 23894, Control_c, 0, 64, 83
1, 23906, Note_off_c, 0, 68, 41
1, 23915, Note_off_c, 0, 61, 34
1, 23927, Note_on_c, 0, 65, 46
1, 23954, Control_c, 0, 64, 82
1, 24013, Control_c, 0, 64, 82
1, 24023, Note_off_c, 0, 65, 38
1, 24041, Note_on_c, 0, 61, 45
1, 24043, Control_c, 0, 64, 81
1, 24058, Control_c, 0, 64, 81
1, 24073, Control_c, 0, 64, 80
1, 24079, Note_off_c, 0, 61, 49
1, 24088, Control_c, 0, 64, 80
1, 24103, Control_c, 0, 64, 79
1, 24118, Control_c, 0, 64, 79
1, 24154, Control_c, 0, 64, 78
1, 24156, Note_on_c, 0, 59, 44
1, 24169, Control_c, 0, 64, 78
1, 24184, Control_c, 0, 64, 77
1, 24221, Note_off_c, 0, 59, 37
1, 24228, Control_c, 0, 64, 77
1, 24258, Control_c, 0, 64, 76
1, 24273, Control_c, 0, 64, 76
1, 24288, Control_c, 0, 64, 75
1, 24311, Note_on_c, 0, 66, 53
1, 24317, Control_c, 0, 64, 75
1, 24332, Control_c, 0, 64, 74
1, 24347, Control_c, 0, 64, 72
1, 24362, Control_c, 0, 64, 71
1, 24377, Control_c, 0, 64, 68
1, 24392, Control_c, 0, 64, 64
1, 24407, Control_c, 0, 64, 59
1, 24422, Control_c, 0, 64, 53
1, 24437, Control_c, 0, 64, 47
1, 24452, Control_c, 0, 64, 39
1, 24467, Control_c, 0, 64, 27
1, 24481, Control_c, 0, 64, 0
1, 24503, Note_on_c, 0, 54, 37
1, 24540, Control_c, 0, 64, 39
1, 24555, Control_c, 0, 64, 52
1, 24570, Control_c, 0, 64, 57
1, 24575, Note_off_c, 0, 54, 51
1, 24585, Control_c, 0, 64, 61
1, 24600, Control_c, 0, 64, 64
1, 24614, Control_c, 0, 64, 65
1, 24619, Note_on_c, 0, 58, 32
1, 24629, Control_c, 0, 64, 68
1, 24644, Control_c, 0, 64, 71
1, 24658, Control_c, 0, 64, 74
1, 24673, Control_c, 0, 64, 77
1, 24688, Control_c, 0, 64, 78
1, 24701, Note_off_c, 0, 58, 39
1, 24703, Control_c, 0, 64, 80
1, 24718, Control_c, 0, 64, 81
1, 24732, Control_c, 0, 64, 82
1, 24735, Note_on_c, 0, 61, 36
1, 24747, Control_c, 0, 64, 83
1, 24762, Control_c, 0, 64, 84
1, 24808, Control_c, 0, 64, 84
1, 24846, Note_on_c, 0, 58, 34
1, 24856, Note_off_c, 0, 61, 32
1, 24914, Note_off_c, 0, 58, 40
1, 24964, Note_on_c, 0, 54, 33
1, 25014, Note_off_c, 0, 54, 44
1, 25072, Note_on_c, 0, 58, 34
1, 25137, Note_off_c, 0, 58, 41
1, 25217, Note_on_c, 0, 54, 18
1, 25296, Note_on_c, 0, 58, 32
1, 25303, Note_off_c, 0, 54, 32
1, 25334, Note_off_c, 0, 42, 34
1, 25357, Note_off_c, 0, 58, 0
1, 25401, Note_off_c, 0, 66, 40
1, 25424, Poly_aftertouch_c, 0, 58, 0
1, 25445, Note_on_c, 0, 61, 35
1, 25462, Note_off_c, 0, 49, 39
1, 25556, Control_c, 0, 64, 84
1, 25564, Note_off_c, 0, 61, 32
1, 25566, Note_on_c, 0, 58, 28
1, 25638, Control_c, 0, 64, 83
1, 25683, Control_c, 0, 64, 83
1, 25698, Note_off_c, 0, 58, 37
1, 25712, Control_c, 0, 64, 82
1, 25727, Note_on_c, 0, 54, 39
1, 25742, Control_c, 0, 64, 82
1, 25786, Control_c, 0, 64, 81
1, 25831, Control_c, 0, 64, 81
1, 25860, Control_c, 0, 64, 80
1, 25890, Control_c, 0, 64, 80
1, 25910, Note_off_c, 0, 54, 36
1, 25918, Control_c, 0, 64, 79
1, 25933, Control_c, 0, 64, 79
1, 25948, Control_c, 0, 64, 78
1, 25963, Control_c, 0, 64, 77
1, 25963, Note_on_c, 0, 68, 56
1, 25978, Control_c, 0, 64, 76
1, 25987, Note_on_c, 0, 53, 38
1, 25992, Control_c, 0, 64, 75
1, 26007, Control_c, 0, 64, 74
1, 26016, Note_on_c, 0, 49, 29
1, 26022, Control_c, 0, 64, 72
1, 26037, Control_c, 0, 64, 69
1, 26052, Control_c, 0, 64, 66
1, 26066, Control_c, 0, 64, 61
1, 26081, Control_c, 0, 64, 55
1, 26096, Control_c, 0, 64, 51
1, 26110, Control_c, 0, 64, 49
1, 26125, Control_c, 0, 64, 47
1, 26140, Control_c, 0, 64, 43
1, 26155, Control_c, 0, 64, 35
1, 26170, Control_c, 0, 64, 0
1, 26246, Note_on_c, 0, 56, 21
1, 26303, Control_c, 0, 64, 42
1, 26318, Control_c, 0, 64, 53
1, 26333, Control_c, 0, 64, 58
1, 26344, Note_on_c, 0, 61, 34
1, 26347, Control_c, 0, 64, 62
1, 26362, Control_c, 0, 64, 64
1, 26377, Control_c, 0, 64, 66
1, 26399, Control_c, 0, 64, 69
1, 26415, Control_c, 0, 64, 71
1, 26416, Note_off_c, 0, 61, 52
1, 26430, Control_c, 0, 64, 73
1, 26445, Control_c, 0, 64, 75
1, 26452, Note_on_c, 0, 65, 42
1, 26458, Note_off_c, 0, 56, 24
1, 26460, Control_c, 0, 64, 76
1, 26475, Control_c, 0, 64, 77
1, 26489, Control_c, 0, 64, 79
1, 26504, Control_c, 0, 64, 80
1, 26519, Control_c, 0, 64, 81
1, 26533, Control_c, 0, 64, 82
1, 26548, Control_c, 0, 64, 82
1, 26563, Control_c, 0, 64, 83
1, 26574, Note_on_c, 0, 61, 37
1, 26578, Control_c, 0, 64, 83
1, 26580, Note_off_c, 0, 65, 37
1, 26593, Control_c, 0, 64, 84
1, 26607, Control_c, 0, 64, 84
1, 26628, Note_off_c, 0, 61, 43
1, 26637, Control_c, 0, 64, 85
1, 26652, Control_c, 0, 64, 86
1, 26681, Control_c, 0, 64, 87
1, 26682, Note_on_c, 0, 56, 33
1, 26696, Control_c, 0, 64, 87
1, 26726, Control_c, 0, 64, 88
1, 26735, Note_off_c, 0, 56, 42
1, 26741, Control_c, 0, 64, 88
1, 26756, Control_c, 0, 64, 89
1, 26770, Note_on_c, 0, 61, 44
1, 26771, Control_c, 0, 64, 89
1, 26786, Control_c, 0, 64, 90
1, 26815, Control_c, 0, 64, 90
1, 26850, Note_off_c, 0, 61, 56
1, 26877, Note_on_c, 0, 56, 41
1, 26990, Note_on_c, 0, 61, 44
1, 27045, Note_off_c, 0, 61, 51
1, 27075, Note_off_c, 0, 68, 39
1, 27079, Note_on_c, 0, 65, 54
1, 27096, Note_off_c, 0, 56, 37
1, 27148, Control_c, 0, 64, 90
1, 27155, Note_off_c, 0, 65, 55
1, 27191, Note_on_c, 0, 61, 50
1, 27193, Note_off_c, 0, 53, 41
1, 27224, Control_c, 0, 64, 89
1, 27268, Control_c, 0, 64, 89
1, 27269, Note_off_c, 0, 61, 59
1, 27309, Note_on_c, 0, 56, 53
1, 27312, Control_c, 0, 64, 88
1, 27342, Control_c, 0, 64, 88
1, 27353, Note_off_c, 0, 56, 59
1, 27371, Control_c, 0, 64, 87
1, 27386, Control_c, 0, 64, 87
1, 27401, Control_c, 0, 64, 86
1, 27416, Control_c, 0, 64, 85
1, 27430, Control_c, 0, 64, 84
1, 27433, Note_on_c, 0, 70, 74
1, 27445, Control_c, 0, 64, 82
1, 27460, Control_c, 0, 64, 81
1, 27473, Note_on_c, 0, 55, 37
1, 27474, Note_on_c, 0, 51, 35
1, 27475, Control_c, 0, 64, 79
1, 27482, Note_on_c, 0, 46, 43
1, 27489, Control_c, 0, 64, 76
1, 27504, Control_c, 0, 64, 73
1, 27519, Control_c, 0, 64, 70
1, 27534, Control_c, 0, 64, 65
1, 27549, Control_c, 0, 64, 59
1, 27564, Control_c, 0, 64, 40
1, 27579, Control_c, 0, 64, 0
1, 27579, Note_off_c, 0, 49, 35
1, 27634, Note_on_c, 0, 61, 46
1, 27697, Control_c, 0, 64, 36
1, 27712, Control_c, 0, 64, 52
1, 27727, Control_c, 0, 64, 59
1, 27742, Control_c, 0, 64, 63
1, 27743, Note_on_c, 0, 63, 52
1, 27756, Control_c, 0, 64, 66
1, 27771, Control_c, 0, 64, 68
1, 27786, Control_c, 0, 64, 71
1, 27796, Note_off_c, 0, 61, 36
1, 27801, Control_c, 0, 64, 73
1, 27816, Control_c, 0, 64, 76
1, 27830, Control_c, 0, 64, 78
1, 27835, Note_off_c, 0, 63, 57
1, 27841, Note_on_c, 0, 67, 56
1, 27845, Control_c, 0, 64, 79
1, 27860, Control_c, 0, 64, 81
1, 27882, Control_c, 0, 64, 82
1, 27897, Control_c, 0, 64, 84
1, 27912, Control_c, 0, 64, 84
1, 27927, Control_c, 0, 64, 85
1, 27948, Note_off_c, 0, 67, 58
1, 27956, Control_c, 0, 64, 85
1, 27963, Note_on_c, 0, 63, 60
1, 27986, Control_c, 0, 64, 86
1, 28044, Note_off_c, 0, 63, 61
1, 28061, Note_on_c, 0, 61, 60
1, 28140, Note_off_c, 0, 61, 56
1, 28168, Note_on_c, 0, 63, 64
1, 28255, Note_off_c, 0, 63, 59
1, 28268, Note_on_c, 0, 61, 59
1, 28378, Note_on_c, 0, 63, 59
1, 28473, Note_off_c, 0, 55, 43
1, 28474, Note_off_c, 0, 61, 24
1, 28491, Note_on_c, 0, 67, 60
1, 28500, Note_off_c, 0, 63, 52
1, 28510, Note_off_c, 0, 70, 53
1, 28535, Note_off_c, 0, 51, 34
1, 28568, Note_off_c, 0, 46, 52
1, 28619, Note_on_c, 0, 63, 58
1, 28736, Note_on_c, 0, 61, 58
1, 28750, Control_c, 0, 64, 85
1, 28780, Control_c, 0, 64, 85
1, 28795, Control_c, 0, 64, 84
1, 28825, Control_c, 0, 64, 84
1, 28840, Control_c, 0, 64, 83
1, 28855, Control_c, 0, 64, 83
1, 28870, Control_c, 0, 64, 82
1, 28884, Control_c, 0, 64, 81
1, 28899, Control_c, 0, 64, 80
1, 28914, Control_c, 0, 64, 78
1, 28926, Note_on_c, 0, 73, 75
1, 28929, Control_c, 0, 64, 77
1, 28930, Note_off_c, 0, 61, 50
1, 28944, Control_c, 0, 64, 75
1, 28959, Control_c, 0, 64, 74
1, 28960, Note_on_c, 0, 56, 33
1, 28966, Note_on_c, 0, 44, 30
1, 28973, Note_on_c, 0, 51, 31
1, 28974, Control_c, 0, 64, 72
1, 28989, Note_off_c, 0, 67, 34
1, 28989, Control_c, 0, 64, 69
1, 28991, Note_off_c, 0, 63, 39
1, 29003, Control_c, 0, 64, 65
1, 29018, Control_c, 0, 64, 60
1, 29033, Control_c, 0, 64, 34
1, 29048, Control_c, 0, 64, 0
1, 29164, Note_on_c, 0, 61, 43
1, 29166, Control_c, 0, 64, 48
1, 29181, Control_c, 0, 64, 61
1, 29196, Control_c, 0, 64, 65
1, 29210, Control_c, 0, 64, 67
1, 29225, Control_c, 0, 64, 70
1, 29240, Control_c, 0, 64, 72
1, 29254, Control_c, 0, 64, 76
1, 29269, Control_c, 0, 64, 78
1, 29284, Control_c, 0, 64, 80
1, 29299, Control_c, 0, 64, 82
1, 29314, Control_c, 0, 64, 83
1, 29320, Note_on_c, 0, 63, 39
1, 29328, Control_c, 0, 64, 84
1, 29343, Control_c, 0, 64, 85
1, 29358, Control_c, 0, 64, 86
1, 29381, Control_c, 0, 64, 86
1, 29410, Control_c, 0, 64, 87
1, 29440, Control_c, 0, 64, 87
1, 29441, Note_off_c, 0, 61, 38
1, 29458, Note_off_c, 0, 63, 41
1, 29467, Note_on_c, 0, 68, 41
1, 29543, Control_c, 0, 67, 125
1, 29558, Control_c, 0, 67, 124
1, 29568, Note_on_c, 0, 63, 47
1, 29573, Control_c, 0, 67, 124
1, 29588, Control_c, 0, 67, 123
1, 29638, Note_off_c, 0, 68, 29
1, 29639, Note_off_c, 0, 63, 40
1, 29648, Control_c, 0, 67, 124
1, 29662, Control_c, 0, 67, 124
1, 29677, Note_on_c, 0, 61, 39
1, 29677, Control_c, 0, 67, 125
1, 29692, Control_c, 0, 67, 126
1, 29707, Control_c, 0, 67, 127
1, 29722, Note_off_c, 0, 61, 49
1, 29722, Note_off_c, 0, 73, 36
1, 29779, Note_on_c, 0, 63, 41
1, 29791, Note_off_c, 0, 56, 42
1, 29847, Note_off_c, 0, 63, 47
1, 29849, Note_on_c, 0, 61, 47
1, 29945, Note_off_c, 0, 61, 50
1, 29985, Note_on_c, 0, 63, 41
1, 30018, Control_c, 0, 64, 87
1, 30088, Note_on_c, 0, 71, 58
1, 30106, Note_off_c, 0, 63, 36
1, 30110, Note_on_c, 0, 56, 38
1, 30121, Note_on_c, 0, 68, 34
1, 30173, Control_c, 0, 64, 86
1, 30218, Control_c, 0, 64, 86
1, 30238, Note_off_c, 0, 51, 40
1, 30245, Note_on_c, 0, 63, 35
1, 30255, Note_off_c, 0, 56, 38
1, 30262, Control_c, 0, 64, 85
1, 30271, Note_off_c, 0, 44, 42
1, 30276, Control_c, 0, 64, 85
1, 30279, Note_off_c, 0, 71, 30
1, 30291, Control_c, 0, 64, 84
1, 30312, Note_off_c, 0, 68, 32
1, 30321, Control_c, 0, 64, 84
1, 30336, Control_c, 0, 64, 83
1, 30351, Note_on_c, 0, 59, 37
1, 30351, Control_c, 0, 64, 83
1, 30372, Note_off_c, 0, 63, 24
1, 30381, Control_c, 0, 64, 82
1, 30396, Control_c, 0, 64, 82
1, 30411, Control_c, 0, 64, 81
1, 30426, Control_c, 0, 64, 81
1, 30441, Control_c, 0, 64, 80
1, 30455, Control_c, 0, 64, 80
1, 30470, Control_c, 0, 64, 79
1, 30485, Control_c, 0, 64, 78
1, 30500, Control_c, 0, 64, 77
1, 30507, Note_on_c, 0, 71, 56
1, 30510, Note_off_c, 0, 59, 22
1, 30515, Control_c, 0, 64, 76
1, 30530, Control_c, 0, 64, 75
1, 30531, Note_on_c, 0, 56, 32
1, 30532, Note_on_c, 0, 51, 28
1, 30545, Control_c, 0, 64, 74
1, 30549, Note_on_c, 0, 44, 26
1, 30559, Control_c, 0, 64, 71
1, 30574, Control_c, 0, 64, 67
1, 30589, Control_c, 0, 64, 64
1, 30604, Control_c, 0, 64, 56
1, 30619, Control_c, 0, 64, 41
1, 30634, Control_c, 0, 64, 25
1, 30648, Control_c, 0, 64, 0
1, 30662, Note_on_c, 0, 59, 24
1, 30768, Note_on_c, 0, 63, 32
1, 30781, Control_c, 0, 64, 51
1, 30787, Note_off_c, 0, 59, 33
1, 30796, Control_c, 0, 64, 62
1, 30811, Control_c, 0, 64, 66
1, 30826, Control_c, 0, 64, 68
1, 30841, Control_c, 0, 64, 71
1, 30848, Note_off_c, 0, 63, 41
1, 30855, Control_c, 0, 64, 75
1, 30867, Note_on_c, 0, 68, 41
1, 30870, Control_c, 0, 64, 78
1, 30893, Control_c, 0, 64, 81
1, 30907, Control_c, 0, 64, 83
1, 30922, Control_c, 0, 64, 84
1, 30937, Control_c, 0, 64, 85
1, 30952, Control_c, 0, 64, 86
1, 30981, Control_c, 0, 64, 86
1, 30990, Note_on_c, 0, 63, 38
1, 30998, Note_off_c, 0, 68, 35
1, 31044, Note_off_c, 0, 63, 46
1, 31085, Control_c, 0, 64, 87
1, 31090, Note_on_c, 0, 59, 31
1, 31141, Note_off_c, 0, 59, 42
1, 31189, Note_on_c, 0, 63, 44
1, 31235, Control_c, 0, 64, 87
1, 31279, Control_c, 0, 64, 88
1, 31287, Note_off_c, 0, 63, 38
1, 31288, Note_on_c, 0, 59, 42
1, 31398, Note_on_c, 0, 63, 53
1, 31463, Note_off_c, 0, 71, 29
1, 31484, Note_off_c, 0, 44, 41
1, 31508, Note_on_c, 0, 68, 50
1, 31525, Note_off_c, 0, 59, 35
1, 31531, Note_off_c, 0, 51, 38
1, 31533, Note_off_c, 0, 63, 45
1, 31627, Control_c, 0, 64, 87
1, 31649, Note_on_c, 0, 63, 55
1, 31649, Note_off_c, 0, 56, 42
1, 31701, Control_c, 0, 64, 87
1, 31716, Control_c, 0, 64, 86
1, 31731, Control_c, 0, 64, 86
1, 31746, Control_c, 0, 64, 85
1, 31753, Note_off_c, 0, 63, 51
1, 31761, Control_c, 0, 64, 84
1, 31765, Note_on_c, 0, 59, 43
1, 31776, Control_c, 0, 64, 84
1, 31791, Control_c, 0, 64, 83
1, 31805, Control_c, 0, 64, 83
1, 31820, Control_c, 0, 64, 82
1, 31835, Control_c, 0, 64, 81
1, 31849, Control_c, 0, 64, 80
1, 31864, Control_c, 0, 64, 79
1, 31879, Control_c, 0, 64, 78
1, 31894, Control_c, 0, 64, 77
1, 31909, Control_c, 0, 64, 77
1, 31919, Note_on_c, 0, 71, 69
1, 31924, Control_c, 0, 64, 76
1, 31938, Control_c, 0, 64, 75
1, 31953, Control_c, 0, 64, 73
1, 31955, Note_off_c, 0, 59, 36
1, 31958, Note_on_c, 0, 52, 35
1, 31960, Note_on_c, 0, 56, 36
1, 31968, Control_c, 0, 64, 72
1, 31983, Control_c, 0, 64, 69
1, 31998, Control_c, 0, 64, 66
1, 32014, Control_c, 0, 64, 61
1, 32028, Control_c, 0, 64, 48
1, 32043, Control_c, 0, 64, 0
1, 32118, Note_on_c, 0, 59, 36
1, 32156, Note_off_c, 0, 68, 34
1, 32206, Control_c, 0, 64, 34
1, 32220, Control_c, 0, 64, 58
1, 32235, Control_c, 0, 64, 64
1, 32236, Note_on_c, 0, 64, 39
1, 32250, Control_c, 0, 64, 67
1, 32265, Control_c, 0, 64, 70
1, 32279, Control_c, 0, 64, 73
1, 32279, Control_c, 0, 67, 126
1, 32294, Control_c, 0, 64, 76
1, 32294, Control_c, 0, 67, 124
1, 32308, Note_off_c, 0, 64, 52
1, 32309, Control_c, 0, 64, 79
1, 32309, Control_c, 0, 67, 122
1, 32311, Note_on_c, 0, 68, 49
1, 32324, Control_c, 0, 64, 81
1, 32324, Control_c, 0, 67, 119
1, 32339, Control_c, 0, 64, 82
1, 32339, Control_c, 0, 67, 116
1, 32344, Note_off_c, 0, 59, 38
1, 32354, Control_c, 0, 64, 83
1, 32354, Control_c, 0, 67, 116
1, 32376, Control_c, 0, 64, 84
1, 32391, Control_c, 0, 64, 85
1, 32391, Control_c, 0, 67, 115
1, 32406, Control_c, 0, 64, 85
1, 32406, Control_c, 0, 67, 115
1, 32421, Control_c, 0, 64, 86
1, 32421, Control_c, 0, 67, 114
1, 32435, Control_c, 0, 64, 87
1, 32435, Control_c, 0, 67, 114
1, 32440, Note_on_c, 0, 64, 49
1, 32450, Control_c, 0, 64, 87
1, 32450, Control_c, 0, 67, 113
1, 32465, Control_c, 0, 67, 112
1, 32494, Control_c, 0, 64, 88
1, 32503, Note_off_c, 0, 64, 55
1, 32524, Control_c, 0, 67, 112
1, 32525, Note_on_c, 0, 59, 54
1, 32569, Control_c, 0, 64, 88
1, 32569, Control_c, 0, 67, 112
1, 32586, Note_off_c, 0, 59, 37
1, 32622, Note_off_c, 0, 68, 14
1, 32631, Note_on_c, 0, 64, 60
1, 32658, Control_c, 0, 64, 89
1, 32658, Control_c, 0, 67, 113
1, 32724, Note_off_c, 0, 64, 61
1, 32730, Note_on_c, 0, 59, 57
1, 32761, Control_c, 0, 67, 113
1, 32837, Control_c, 0, 67, 113
1, 32844, Note_on_c, 0, 64, 64
1, 32851, Control_c, 0, 67, 113
1, 32896, Note_off_c, 0, 71, 0
1, 32937, Note_on_c, 0, 68, 70
1, 32940, Control_c, 0, 67, 114
1, 32944, Note_off_c, 0, 64, 58
1, 32970, Control_c, 0, 64, 88
1, 32970, Control_c, 0, 67, 114
1, 32977, Note_off_c, 0, 59, 39
1, 32984, Control_c, 0, 67, 115
1, 32990, Poly_aftertouch_c, 0, 71, 0
1, 33014, Control_c, 0, 64, 88
1, 33042, Note_on_c, 0, 64, 72
1, 33043, Control_c, 0, 64, 87
1, 33043, Control_c, 0, 67, 115
1, 33058, Control_c, 0, 64, 87
1, 33058, Control_c, 0, 67, 116
1, 33088, Control_c, 0, 64, 86
1, 33102, Control_c, 0, 64, 86
1, 33125, Control_c, 0, 64, 85
1, 33126, Note_off_c, 0, 64, 57
1, 33144, Note_on_c, 0, 59, 69
1, 33155, Control_c, 0, 64, 84
1, 33170, Control_c, 0, 64, 84
1, 33184, Control_c, 0, 64, 83
1, 33199, Control_c, 0, 64, 83
1, 33199, Control_c, 0, 67, 115
1, 33214, Control_c, 0, 64, 82
1, 33229, Control_c, 0, 64, 82
1, 33238, Note_off_c, 0, 59, 56
1, 33244, Control_c, 0, 64, 81
1, 33258, Control_c, 0, 64, 79
1, 33259, Note_off_c, 0, 56, 41
1, 33265, Note_on_c, 0, 71, 81
1, 33273, Control_c, 0, 64, 77
1, 33274, Note_on_c, 0, 51, 47
1, 33278, Note_on_c, 0, 54, 47
1, 33288, Control_c, 0, 64, 74
1, 33299, Note_off_c, 0, 52, 39
1, 33302, Control_c, 0, 64, 69
1, 33308, Note_off_c, 0, 68, 56
1, 33317, Control_c, 0, 64, 63
1, 33332, Control_c, 0, 64, 39
1, 33347, Control_c, 0, 64, 0
1, 33391, Control_c, 0, 67, 115
1, 33400, Note_on_c, 0, 59, 59
1, 33436, Control_c, 0, 64, 46
1, 33451, Control_c, 0, 64, 60
1, 33466, Control_c, 0, 64, 65
1, 33481, Control_c, 0, 64, 69
1, 33495, Control_c, 0, 64, 73
1, 33510, Control_c, 0, 64, 78
1, 33510, Control_c, 0, 67, 114
1, 33511, Note_on_c, 0, 63, 55
1, 33525, Control_c, 0, 64, 81
1, 33540, Control_c, 0, 64, 82
1, 33540, Control_c, 0, 67, 114
1, 33555, Control_c, 0, 64, 83
1, 33569, Control_c, 0, 64, 83
1, 33593, Note_on_c, 0, 66, 69
1, 33597, Note_off_c, 0, 63, 60
1, 33607, Note_off_c, 0, 59, 29
1, 33665, Note_off_c, 0, 54, 54
1, 33685, Note_off_c, 0, 71, 56
1, 33689, Control_c, 0, 67, 113
1, 33709, Note_on_c, 0, 63, 61
1, 33732, Note_off_c, 0, 66, 56
1, 33748, Control_c, 0, 64, 83
1, 33748, Control_c, 0, 67, 113
1, 33759, Note_off_c, 0, 63, 58
1, 33778, Control_c, 0, 64, 82
1, 33787, Note_on_c, 0, 59, 68
1, 33793, Control_c, 0, 67, 112
1, 33805, Note_off_c, 0, 59, 64
1, 33807, Control_c, 0, 64, 81
1, 33822, Control_c, 0, 64, 81
1, 33837, Control_c, 0, 64, 80
1, 33852, Control_c, 0, 64, 79
1, 33874, Control_c, 0, 64, 78
1, 33889, Control_c, 0, 64, 77
1, 33889, Control_c, 0, 67, 113
1, 33904, Control_c, 0, 64, 75
1, 33908, Note_off_c, 0, 51, 31
1, 33919, Control_c, 0, 64, 73
1, 33922, Note_on_c, 0, 73, 86
1, 33933, Control_c, 0, 64, 70
1, 33933, Control_c, 0, 67, 113
1, 33941, Note_on_c, 0, 58, 47
1, 33948, Note_on_c, 0, 54, 44
1, 33948, Control_c, 0, 64, 66
1, 33953, Note_on_c, 0, 49, 42
1, 33963, Control_c, 0, 64, 57
1, 33978, Control_c, 0, 64, 0
1, 33978, Control_c, 0, 67, 114
1, 34022, Control_c, 0, 67, 113
1, 34032, Note_on_c, 0, 64, 67
1, 34051, Control_c, 0, 67, 113
1, 34066, Control_c, 0, 67, 112
1, 34081, Control_c, 0, 64, 47
1, 34081, Control_c, 0, 67, 112
1, 34096, Control_c, 0, 64, 64
1, 34096, Control_c, 0, 67, 110
1, 34111, Control_c, 0, 64, 69
1, 34111, Control_c, 0, 67, 104
1, 34125, Control_c, 0, 64, 71
1, 34125, Control_c, 0, 67, 95
1, 34137, Note_on_c, 0, 66, 61
1, 34140, Control_c, 0, 64, 74
1, 34140, Control_c, 0, 67, 85
1, 34155, Control_c, 0, 64, 76
1, 34155, Control_c, 0, 67, 74
1, 34170, Control_c, 0, 64, 78
1, 34170, Control_c, 0, 67, 69
1, 34185, Control_c, 0, 64, 80
1, 34185, Control_c, 0, 67, 70
1, 34199, Control_c, 0, 64, 81
1, 34214, Control_c, 0, 64, 82
1, 34229, Control_c, 0, 64, 83
1, 34244, Note_on_c, 0, 70, 63
1, 34259, Control_c, 0, 64, 83
1, 34259, Control_c, 0, 67, 71
1, 34261, Note_off_c, 0, 66, 61
1, 34267, Note_off_c, 0, 64, 33
1, 34274, Control_c, 0, 64, 84
1, 34274, Control_c, 0, 67, 72
1, 34289, Control_c, 0, 67, 73
1, 34303, Control_c, 0, 64, 84
1, 34303, Control_c, 0, 67, 74
1, 34307, Note_off_c, 0, 54, 48
1, 34318, Control_c, 0, 67, 75
1, 34333, Control_c, 0, 67, 77
1, 34348, Control_c, 0, 67, 80
1, 34363, Control_c, 0, 67, 87
1, 34369, Note_on_c, 0, 66, 72
1, 34378, Control_c, 0, 67, 99
1, 34393, Control_c, 0, 67, 118
1, 34399, Note_off_c, 0, 70, 38
1, 34408, Control_c, 0, 67, 127
1, 34425, Note_off_c, 0, 58, 58
1, 34495, Note_on_c, 0, 64, 67
1, 34497, Control_c, 0, 64, 84
1, 34503, Note_off_c, 0, 66, 46
1, 34541, Control_c, 0, 64, 83
1, 34571, Control_c, 0, 64, 83
1, 34572, Note_off_c, 0, 49, 33
1, 34586, Control_c, 0, 64, 82
1, 34609, Note_off_c, 0, 73, 35
1, 34622, Control_c, 0, 64, 82
1, 34637, Control_c, 0, 64, 81
1, 34667, Control_c, 0, 64, 81
1, 34682, Control_c, 0, 64, 79
1, 34697, Control_c, 0, 64, 78
1, 34712, Note_on_c, 0, 59, 45
1, 34712, Control_c, 0, 64, 77
1, 34722, Note_on_c, 0, 47, 46
1, 34727, Control_c, 0, 64, 76
1, 34727, Note_on_c, 0, 54, 40
1, 34742, Control_c, 0, 64, 76
1, 34756, Control_c, 0, 64, 74
1, 34757, Note_on_c, 0, 76, 83
1, 34771, Control_c, 0, 64, 73
1, 34786, Control_c, 0, 64, 71
1, 34788, Note_off_c, 0, 64, 37
1, 34801, Control_c, 0, 64, 68
1, 34816, Control_c, 0, 64, 64
1, 34830, Control_c, 0, 64, 59
1, 34845, Control_c, 0, 64, 49
1, 34860, Control_c, 0, 64, 34
1, 34874, Control_c, 0, 64, 0
1, 34993, Control_c, 0, 64, 52
1, 35007, Note_on_c, 0, 64, 52
1, 35008, Control_c, 0, 64, 63
1, 35022, Control_c, 0, 64, 66
1, 35037, Control_c, 0, 64, 69
1, 35052, Control_c, 0, 64, 72
1, 35067, Control_c, 0, 64, 76
1, 35081, Control_c, 0, 64, 80
1, 35096, Control_c, 0, 64, 82
1, 35111, Control_c, 0, 64, 83
1, 35126, Control_c, 0, 64, 84
1, 35141, Control_c, 0, 64, 85
1, 35153, Note_on_c, 0, 66, 53
1, 35156, Control_c, 0, 64, 85
1, 35171, Control_c, 0, 64, 86
1, 35186, Control_c, 0, 64, 86
1, 35308, Note_off_c, 0, 64, 37
1, 35314, Note_on_c, 0, 71, 54
1, 35321, Note_off_c, 0, 66, 59
1, 35327, Note_off_c, 0, 76, 61
1, 35439, Note_off_c, 0, 71, 51
1, 35450, Note_on_c, 0, 66, 52
1, 35526, Note_off_c, 0, 66, 50
1, 35564, Note_on_c, 0, 64, 37
1, 35617, Note_off_c, 0, 64, 51
1, 35651, Note_on_c, 0, 66, 51
1, 35693, Note_off_c, 0, 66, 46
1, 35736, Note_on_c, 0, 64, 51
1, 35851, Note_on_c, 0, 66, 49
1, 35921, Note_off_c, 0, 64, 48
1, 35988, Note_off_c, 0, 66, 62
1, 35989, Note_on_c, 0, 74, 58
1, 36000, Note_on_c, 0, 71, 42
1, 36039, Control_c, 0, 64, 86
1, 36055, Note_off_c, 0, 54, 33
1, 36075, Note_off_c, 0, 74, 56
1, 36123, Note_off_c, 0, 71, 46
1, 36132, Note_on_c, 0, 66, 52
1, 36135, Control_c, 0, 64, 85
1, 36149, Note_off_c, 0, 59, 36
1, 36163, Note_off_c, 0, 47, 38
1, 36194, Control_c, 0, 64, 85
1, 36254, Control_c, 0, 64, 84
1, 36283, Control_c, 0, 64, 84
1, 36304, Note_on_c, 0, 75, 58
1, 36313, Control_c, 0, 64, 83
1, 36328, Note_off_c, 0, 75, 63
1, 36328, Control_c, 0, 64, 83
1, 36342, Control_c, 0, 64, 82
1, 36357, Control_c, 0, 64, 82
1, 36387, Control_c, 0, 64, 81
1, 36402, Control_c, 0, 64, 81
1, 36417, Control_c, 0, 64, 80
1, 36432, Control_c, 0, 64, 80
1, 36446, Control_c, 0, 64, 79
1, 36450, Note_on_c, 0, 75, 58
1, 36461, Control_c, 0, 64, 78
1, 36476, Control_c, 0, 64, 77
1, 36483, Note_on_c, 0, 59, 28
1, 36485, Note_on_c, 0, 47, 39
1, 36491, Control_c, 0, 64, 76
1, 36494, Note_on_c, 0, 54, 27
1, 36506, Control_c, 0, 64, 74
1, 36520, Control_c, 0, 64, 71
1, 36535, Control_c, 0, 64, 66
1, 36550, Control_c, 0, 64, 58
1, 36565, Control_c, 0, 64, 41
1, 36580, Control_c, 0, 64, 32
1, 36594, Control_c, 0, 64, 30
1, 36607, Note_off_c, 0, 66, 24
1, 36609, Control_c, 0, 64, 14
1, 36624, Control_c, 0, 64, 0
1, 36660, Note_on_c, 0, 63, 40
1, 36742, Control_c, 0, 64, 41
1, 36757, Control_c, 0, 64, 59
1, 36765, Note_on_c, 0, 66, 35
1, 36772, Control_c, 0, 64, 64
1, 36788, Control_c, 0, 64, 67
1, 36803, Control_c, 0, 64, 69
1, 36812, Note_off_c, 0, 63, 37
1, 36817, Control_c, 0, 64, 72
1, 36832, Control_c, 0, 64, 75
1, 36847, Control_c, 0, 64, 78
1, 36869, Control_c, 0, 64, 80
1, 36884, Control_c, 0, 64, 82
1, 36899, Note_off_c, 0, 66, 42
1, 36899, Control_c, 0, 64, 83
1, 36903, Note_on_c, 0, 71, 36
1, 36914, Control_c, 0, 64, 85
1, 36929, Control_c, 0, 64, 86
1, 36943, Control_c, 0, 64, 87
1, 36990, Note_off_c, 0, 71, 53
1, 37025, Note_on_c, 0, 66, 36
1, 37083, Note_off_c, 0, 66, 45
1, 37136, Note_on_c, 0, 63, 32
1, 37186, Note_off_c, 0, 63, 45
1, 37246, Note_on_c, 0, 66, 33
1, 37350, Note_off_c, 0, 66, 38
1, 37373, Control_c, 0, 64, 86
1, 37385, Note_on_c, 0, 63, 17
1, 37447, Control_c, 0, 64, 86
1, 37475, Note_on_c, 0, 66, 43
1, 37491, Control_c, 0, 64, 85
1, 37550, Control_c, 0, 64, 85
1, 37577, Note_off_c, 0, 75, 31
1, 37591, Note_off_c, 0, 63, 26
1, 37602, Note_off_c, 0, 66, 41
1, 37622, Note_on_c, 0, 71, 35
1, 37628, Note_off_c, 0, 59, 40
1, 37648, Control_c, 0, 64, 84
1, 37669, Note_off_c, 0, 47, 43
1, 37702, Note_off_c, 0, 54, 39
1, 37707, Control_c, 0, 64, 84
1, 37740, Note_on_c, 0, 66, 36
1, 37752, Control_c, 0, 64, 83
1, 37764, Note_off_c, 0, 71, 29
1, 37781, Control_c, 0, 64, 83
1, 37797, Note_off_c, 0, 66, 41
1, 37840, Control_c, 0, 64, 82
1, 37855, Note_on_c, 0, 63, 24
1, 37947, Note_off_c, 0, 63, 31
1, 37959, Control_c, 0, 64, 82
1, 38003, Control_c, 0, 64, 81
1, 38047, Control_c, 0, 64, 81
1, 38062, Control_c, 0, 64, 80
1, 38064, Note_on_c, 0, 75, 58
1, 38077, Control_c, 0, 64, 79
1, 38092, Control_c, 0, 64, 78
1, 38107, Control_c, 0, 64, 76
1, 38116, Note_on_c, 0, 54, 30
1, 38122, Control_c, 0, 64, 74
1, 38134, Note_on_c, 0, 47, 30
1, 38137, Control_c, 0, 64, 70
1, 38152, Control_c, 0, 64, 66
1, 38166, Control_c, 0, 64, 59
1, 38181, Control_c, 0, 64, 41
1, 38196, Control_c, 0, 64, 29
1, 38210, Control_c, 0, 64, 34
1, 38225, Control_c, 0, 64, 37
1, 38240, Control_c, 0, 64, 39
1, 38255, Control_c, 0, 64, 44
1, 38265, Note_on_c, 0, 63, 26
1, 38270, Control_c, 0, 64, 51
1, 38284, Control_c, 0, 64, 58
1, 38299, Control_c, 0, 64, 62
1, 38314, Control_c, 0, 64, 64
1, 38329, Control_c, 0, 64, 67
1, 38344, Control_c, 0, 64, 70
1, 38359, Control_c, 0, 64, 74
1, 38381, Note_on_c, 0, 66, 39
1, 38381, Control_c, 0, 64, 77
1, 38396, Control_c, 0, 64, 79
1, 38411, Control_c, 0, 64, 81
1, 38426, Control_c, 0, 64, 83
1, 38441, Control_c, 0, 64, 84
1, 38450, Note_off_c, 0, 63, 30
1, 38456, Control_c, 0, 64, 85
1, 38471, Control_c, 0, 64, 86
1, 38486, Control_c, 0, 64, 87
1, 38495, Note_off_c, 0, 66, 38
1, 38501, Control_c, 0, 64, 87
1, 38521, Note_on_c, 0, 71, 31
1, 38530, Control_c, 0, 64, 88
1, 38560, Control_c, 0, 64, 88
1, 38590, Control_c, 0, 64, 89
1, 38624, Note_off_c, 0, 71, 35
1, 38625, Note_on_c, 0, 66, 40
1, 38634, Control_c, 0, 64, 89
1, 38682, Note_off_c, 0, 66, 46
1, 38730, Note_on_c, 0, 63, 29
1, 38778, Note_off_c, 0, 63, 48
1, 38814, Note_on_c, 0, 66, 41
1, 38898, Note_off_c, 0, 66, 48
1, 38933, Note_on_c, 0, 63, 34
1, 39034, Note_on_c, 0, 66, 46
1, 39069, Note_off_c, 0, 63, 29
1, 39124, Note_off_c, 0, 66, 50
1, 39145, Note_off_c, 0, 75, 34
1, 39150, Note_on_c, 0, 71, 46
1, 39216, Note_off_c, 0, 47, 43
1, 39233, Note_off_c, 0, 71, 41
1, 39234, Control_c, 0, 64, 89
1, 39262, Note_on_c, 0, 66, 44
1, 39264, Control_c, 0, 64, 88
1, 39308, Control_c, 0, 64, 88
1, 39338, Control_c, 0, 64, 87
1, 39352, Control_c, 0, 64, 87
1, 39371, Note_off_c, 0, 66, 38
1, 39382, Control_c, 0, 64, 86
1, 39388, Note_on_c, 0, 63, 33
1, 39412, Control_c, 0, 64, 86
1, 39426, Control_c, 0, 64, 85
1, 39441, Control_c, 0, 64, 84
1, 39456, Control_c, 0, 64, 84
1, 39470, Control_c, 0, 64, 83
1, 39485, Control_c, 0, 64, 82
1, 39500, Control_c, 0, 64, 82
1, 39515, Control_c, 0, 64, 80
1, 39530, Control_c, 0, 64, 79
1, 39532, Note_off_c, 0, 63, 36
1, 39532, Note_on_c, 0, 75, 52
1, 39544, Control_c, 0, 64, 76
1, 39559, Note_on_c, 0, 56, 30
1, 39559, Control_c, 0, 64, 73
1, 39566, Note_on_c, 0, 47, 30
1, 39574, Control_c, 0, 64, 70
1, 39589, Control_c, 0, 64, 66
1, 39604, Control_c, 0, 64, 61
1, 39618, Control_c, 0, 64, 48
1, 39633, Control_c, 0, 64, 42
1, 39639, Note_off_c, 0, 54, 17
1, 39648, Control_c, 0, 64, 51
1, 39663, Control_c, 0, 64, 57
1, 39678, Control_c, 0, 64, 61
1, 39684, Note_on_c, 0, 68, 41
1, 39693, Control_c, 0, 64, 63
1, 39708, Control_c, 0, 64, 65
1, 39723, Control_c, 0, 64, 68
1, 39737, Control_c, 0, 64, 71
1, 39752, Control_c, 0, 64, 74
1, 39767, Control_c, 0, 64, 77
1, 39769, Note_off_c, 0, 68, 53
1, 39782, Control_c, 0, 64, 79
1, 39797, Control_c, 0, 64, 80
1, 39798, Note_on_c, 0, 65, 46
1, 39811, Control_c, 0, 64, 81
1, 39826, Control_c, 0, 64, 83
1, 39841, Control_c, 0, 64, 84
1, 39863, Control_c, 0, 64, 85
1, 39878, Control_c, 0, 64, 85
1, 39893, Control_c, 0, 64, 86
1, 39908, Control_c, 0, 64, 87
1, 39913, Note_off_c, 0, 75, 58
1, 39914, Note_on_c, 0, 71, 60
1, 39922, Control_c, 0, 64, 87
1, 39932, Note_off_c, 0, 65, 37
1, 39937, Control_c, 0, 64, 88
1, 39967, Control_c, 0, 64, 88
1, 40025, Note_on_c, 0, 68, 45
1, 40057, Control_c, 0, 64, 89
1, 40065, Note_off_c, 0, 68, 50
1, 40091, Note_off_c, 0, 71, 0
1, 40128, Poly_aftertouch_c, 0, 71, 127
1, 40139, Note_on_c, 0, 65, 42
1, 40188, Note_off_c, 0, 65, 42
1, 40244, Note_on_c, 0, 70, 67
1, 40272, Note_on_c, 0, 53, 36
1, 40277, Note_off_c, 0, 56, 40
1, 40277, Poly_aftertouch_c, 0, 71, 0
1, 40370, Note_on_c, 0, 65, 46
1, 40444, Note_off_c, 0, 65, 45
1, 40471, Note_on_c, 0, 61, 44
1, 40530, Control_c, 0, 64, 88
1, 40581, Note_on_c, 0, 68, 63
1, 40600, Note_off_c, 0, 61, 51
1, 40640, Note_off_c, 0, 70, 47
1, 40641, Control_c, 0, 64, 88
1, 40685, Control_c, 0, 64, 87
1, 40712, Note_off_c, 0, 47, 42
1, 40715, Control_c, 0, 64, 87
1, 40734, Note_on_c, 0, 65, 40
1, 40759, Control_c, 0, 64, 86
1, 40774, Control_c, 0, 64, 86
1, 40805, Control_c, 0, 64, 85
1, 40820, Control_c, 0, 64, 85
1, 40835, Control_c, 0, 64, 84
1, 40851, Note_off_c, 0, 65, 41
1, 40853, Note_on_c, 0, 61, 42
1, 40864, Control_c, 0, 64, 84
1, 40894, Control_c, 0, 64, 83
1, 40909, Control_c, 0, 64, 83
1, 40924, Control_c, 0, 64, 82
1, 40939, Note_off_c, 0, 61, 41
1, 40939, Control_c, 0, 64, 81
1, 40954, Control_c, 0, 64, 81
1, 40969, Control_c, 0, 64, 80
1, 40983, Control_c, 0, 64, 79
1, 40998, Control_c, 0, 64, 78
1, 41013, Control_c, 0, 64, 78
1, 41025, Note_on_c, 0, 73, 64
1, 41028, Control_c, 0, 64, 77
1, 41042, Control_c, 0, 64, 76
1, 41057, Control_c, 0, 64, 75
1, 41067, Note_on_c, 0, 46, 38
1, 41068, Note_on_c, 0, 54, 31
1, 41072, Control_c, 0, 64, 73
1, 41073, Note_off_c, 0, 53, 32
1, 41087, Control_c, 0, 64, 69
1, 41102, Control_c, 0, 64, 64
1, 41107, Note_off_c, 0, 68, 29
1, 41116, Control_c, 0, 64, 54
1, 41131, Control_c, 0, 64, 0
1, 41243, Note_on_c, 0, 61, 37
1, 41279, Control_c, 0, 64, 50
1, 41294, Control_c, 0, 64, 60
1, 41309, Control_c, 0, 64, 64
1, 41324, Control_c, 0, 64, 66
1, 41338, Control_c, 0, 64, 68
1, 41353, Control_c, 0, 64, 71
1, 41368, Note_on_c, 0, 66, 35
1, 41376, Note_off_c, 0, 61, 36
1, 41376, Control_c, 0, 64, 75
1, 41390, Control_c, 0, 64, 78
1, 41405, Control_c, 0, 64, 81
1, 41420, Control_c, 0, 64, 83
1, 41434, Control_c, 0, 64, 85
1, 41449, Control_c, 0, 64, 86
1, 41464, Control_c, 0, 64, 87
1, 41476, Note_on_c, 0, 70, 39
1, 41479, Control_c, 0, 64, 88
1, 41487, Note_off_c, 0, 66, 39
1, 41509, Control_c, 0, 64, 88
1, 41610, Note_off_c, 0, 70, 41
1, 41613, Note_on_c, 0, 66, 38
1, 41655, Note_off_c, 0, 66, 48
1, 41709, Note_on_c, 0, 61, 33
1, 41756, Note_off_c, 0, 61, 45
1, 41811, Note_on_c, 0, 66, 34
1, 41887, Note_off_c, 0, 66, 46
1, 41913, Note_on_c, 0, 61, 35
1, 41984, Control_c, 0, 64, 88
1, 42016, Note_on_c, 0, 66, 46
1, 42040, Note_off_c, 0, 61, 30
1, 42125, Control_c, 0, 64, 87
1, 42126, Note_off_c, 0, 66, 39
1, 42132, Note_on_c, 0, 70, 48
1, 42141, Note_off_c, 0, 73, 33
1, 42154, Control_c, 0, 64, 87
1, 42199, Control_c, 0, 64, 86
1, 42215, Note_off_c, 0, 70, 51
1, 42228, Control_c, 0, 64, 86
1, 42242, Note_on_c, 0, 66, 51
1, 42272, Control_c, 0, 64, 85
1, 42297, Note_off_c, 0, 46, 32
1, 42317, Control_c, 0, 64, 85
1, 42334, Note_off_c, 0, 66, 44
1, 42346, Control_c, 0, 64, 84
1, 42361, Note_on_c, 0, 61, 38
1, 42376, Control_c, 0, 64, 84
1, 42422, Control_c, 0, 64, 83
1, 42451, Control_c, 0, 64, 83
1, 42480, Control_c, 0, 64, 82
1, 42491, Note_on_c, 0, 73, 58
1, 42495, Control_c, 0, 64, 82
1, 42501, Note_on_c, 0, 55, 37
1, 42510, Control_c, 0, 64, 81
1, 42512, Note_off_c, 0, 61, 36
1, 42525, Control_c, 0, 64, 79
1, 42530, Note_on_c, 0, 47, 35
1, 42537, Note_off_c, 0, 54, 0
1, 42540, Control_c, 0, 64, 77
1, 42555, Control_c, 0, 64, 75
1, 42570, Control_c, 0, 64, 72
1, 42574, Poly_aftertouch_c, 0, 54, 127
1, 42584, Control_c, 0, 64, 67
1, 42599, Control_c, 0, 64, 61
1, 42614, Control_c, 0, 64, 41
1, 42629, Control_c, 0, 64, 0
1, 42644, Control_c, 0, 64, 22
1, 42645, Poly_aftertouch_c, 0, 54, 0
1, 42648, Note_on_c, 0, 67, 37
1, 42659, Control_c, 0, 64, 28
1, 42674, Control_c, 0, 64, 31
1, 42688, Control_c, 0, 64, 39
1, 42703, Control_c, 0, 64, 50
1, 42718, Control_c, 0, 64, 59
1, 42733, Control_c, 0, 64, 63
1, 42736, Note_off_c, 0, 67, 46
1, 42745, Note_on_c, 0, 63, 37
1, 42748, Control_c, 0, 64, 66
1, 42762, Control_c, 0, 64, 70
1, 42777, Control_c, 0, 64, 73
1, 42792, Control_c, 0, 64, 75
1, 42806, Control_c, 0, 64, 77
1, 42821, Control_c, 0, 64, 79
1, 42836, Control_c, 0, 64, 80
1, 42845, Note_on_c, 0, 71, 66
1, 42847, Note_off_c, 0, 73, 56
1, 42859, Control_c, 0, 64, 80
1, 42884, Note_off_c, 0, 63, 40
1, 42959, Note_on_c, 0, 68, 53
1, 43015, Note_off_c, 0, 68, 61
1, 43032, Note_off_c, 0, 71, 0
1, 43058, Note_on_c, 0, 63, 49
1, 43069, Poly_aftertouch_c, 0, 71, 127
1, 43081, Control_c, 0, 64, 80
1, 43095, Control_c, 0, 64, 79
1, 43119, Note_off_c, 0, 63, 42
1, 43125, Control_c, 0, 64, 79
1, 43140, Control_c, 0, 64, 78
1, 43155, Control_c, 0, 64, 78
1, 43161, Note_on_c, 0, 68, 69
1, 43169, Poly_aftertouch_c, 0, 71, 0
1, 43169, Control_c, 0, 64, 76
1, 43185, Control_c, 0, 64, 73
1, 43200, Note_on_c, 0, 56, 42
1, 43200, Control_c, 0, 64, 68
1, 43201, Note_off_c, 0, 55, 42
1, 43215, Control_c, 0, 64, 62
1, 43230, Control_c, 0, 64, 48
1, 43245, Control_c, 0, 64, 43
1, 43259, Control_c, 0, 64, 51
1, 43274, Control_c, 0, 64, 57
1, 43283, Note_on_c, 0, 63, 49
1, 43289, Control_c, 0, 64, 61
1, 43303, Control_c, 0, 64, 64
1, 43318, Control_c, 0, 64, 65
1, 43325, Note_off_c, 0, 63, 62
1, 43333, Control_c, 0, 64, 68
1, 43348, Control_c, 0, 64, 70
1, 43363, Control_c, 0, 64, 73
1, 43377, Control_c, 0, 64, 75
1, 43386, Note_on_c, 0, 59, 47
1, 43392, Control_c, 0, 64, 78
1, 43407, Control_c, 0, 64, 80
1, 43422, Control_c, 0, 64, 82
1, 43434, Note_off_c, 0, 59, 44
1, 43437, Control_c, 0, 64, 83
1, 43452, Control_c, 0, 64, 83
1, 43462, Note_off_c, 0, 56, 49
1, 43500, Note_on_c, 0, 63, 63
1, 43503, Note_off_c, 0, 68, 57
1, 43632, Note_on_c, 0, 59, 47
1, 43637, Control_c, 0, 64, 83
1, 43681, Control_c, 0, 64, 82
1, 43711, Control_c, 0, 64, 82
1, 43741, Control_c, 0, 64, 81
1, 43756, Control_c, 0, 64, 81
1, 43759, Note_on_c, 0, 56, 42
1, 43771, Control_c, 0, 64, 80
1, 43781, Note_off_c, 0, 59, 30
1, 43785, Control_c, 0, 64, 80
1, 43800, Control_c, 0, 64, 79
1, 43815, Control_c, 0, 64, 78
1, 43829, Control_c, 0, 64, 77
1, 43859, Control_c, 0, 64, 77
1, 43869, Note_off_c, 0, 47, 34
1, 43874, Control_c, 0, 64, 76
1, 43889, Control_c, 0, 64, 76
1, 43902, Note_off_c, 0, 56, 26
1, 43904, Control_c, 0, 64, 75
1, 43918, Control_c, 0, 64, 74
1, 43933, Control_c, 0, 64, 72
1, 43948, Control_c, 0, 64, 70
1, 43956, Note_on_c, 0, 66, 58
1, 43963, Control_c, 0, 64, 68
1, 43978, Control_c, 0, 64, 67
1, 43988, Note_off_c, 0, 63, 17
1, 43994, Control_c, 0, 64, 65
1, 43995, Note_on_c, 0, 49, 35
1, 44008, Control_c, 0, 64, 64
1, 44023, Control_c, 0, 64, 63
1, 44038, Control_c, 0, 64, 60
1, 44053, Control_c, 0, 64, 55
1, 44067, Control_c, 0, 64, 40
1, 44082, Control_c, 0, 64, 0
1, 44181, Note_on_c, 0, 54, 33
1, 44230, Control_c, 0, 64, 22
1, 44245, Control_c, 0, 64, 62
1, 44260, Control_c, 0, 64, 66
1, 44275, Control_c, 0, 64, 68
1, 44290, Control_c, 0, 64, 70
1, 44298, Note_on_c, 0, 58, 34
1, 44304, Control_c, 0, 64, 73
1, 44319, Control_c, 0, 64, 76
1, 44334, Control_c, 0, 64, 80
1, 44341, Note_off_c, 0, 54, 32
1, 44356, Control_c, 0, 64, 83
1, 44371, Control_c, 0, 64, 85
1, 44386, Control_c, 0, 64, 87
1, 44400, Note_off_c, 0, 58, 38
1, 44401, Control_c, 0, 64, 88
1, 44414, Note_on_c, 0, 61, 42
1, 44415, Control_c, 0, 64, 89
1, 44430, Control_c, 0, 64, 90
1, 44445, Control_c, 0, 64, 91
1, 44474, Control_c, 0, 64, 91
1, 44491, Note_off_c, 0, 61, 50
1, 44523, Note_on_c, 0, 58, 44
1, 44571, Note_off_c, 0, 58, 43
1, 44636, Note_on_c, 0, 54, 29
1, 44683, Note_off_c, 0, 54, 44
1, 44726, Note_on_c, 0, 58, 37
1, 44843, Note_off_c, 0, 58, 37
1, 44856, Note_on_c, 0, 54, 29
1, 44890, Control_c, 0, 64, 91
1, 44920, Control_c, 0, 64, 90
1, 44950, Control_c, 0, 64, 90
1, 44966, Note_on_c, 0, 58, 39
1, 44974, Note_off_c, 0, 54, 29
1, 44979, Control_c, 0, 64, 89
1, 45008, Control_c, 0, 64, 89
1, 45025, Note_off_c, 0, 49, 40
1, 45025, Note_off_c, 0, 58, 45
1, 45038, Control_c, 0, 64, 88
1, 45061, Note_on_c, 0, 61, 40
1, 45062, Note_off_c, 0, 66, 38
1, 45082, Control_c, 0, 64, 88
1, 45120, Control_c, 0, 64, 87
1, 45133, Note_off_c, 0, 61, 41
1, 45150, Control_c, 0, 64, 87
1, 45156, Note_on_c, 0, 58, 52
1, 45179, Control_c, 0, 64, 86
1, 45194, Control_c, 0, 64, 86
1, 45203, Note_off_c, 0, 58, 47
1, 45208, Control_c, 0, 64, 85
1, 45238, Control_c, 0, 64, 85
1, 45253, Control_c, 0, 64, 84
1, 45268, Note_on_c, 0, 54, 46
1, 45268, Control_c, 0, 64, 84
1, 45273, Note_on_c, 0, 37, 37
1, 45282, Control_c, 0, 64, 83
1, 45312, Control_c, 0, 64, 83
1, 45327, Control_c, 0, 64, 82
1, 45357, Control_c, 0, 64, 82
1, 45372, Control_c, 0, 64, 81
1, 45386, Control_c, 0, 64, 80
1, 45401, Control_c, 0, 64, 78
1, 45410, Note_on_c, 0, 66, 62
1, 45416, Control_c, 0, 64, 75
1, 45431, Control_c, 0, 64, 73
1, 45431, Note_off_c, 0, 54, 38
1, 45446, Note_on_c, 0, 49, 37
1, 45446, Control_c, 0, 64, 69
1, 45461, Control_c, 0, 64, 64
1, 45475, Control_c, 0, 64, 59
1, 45490, Control_c, 0, 64, 58
1, 45505, Control_c, 0, 64, 61
1, 45520, Control_c, 0, 64, 63
1, 45530, Note_on_c, 0, 59, 42
1, 45535, Control_c, 0, 64, 65
1, 45549, Control_c, 0, 64, 67
1, 45564, Control_c, 0, 64, 69
1, 45580, Control_c, 0, 64, 71
1, 45595, Control_c, 0, 64, 74
1, 45610, Control_c, 0, 64, 76
1, 45624, Control_c, 0, 64, 78
1, 45632, Note_on_c, 0, 56, 49
1, 45639, Control_c, 0, 64, 79
1, 45642, Note_off_c, 0, 37, 41
1, 45654, Control_c, 0, 64, 80
1, 45684, Control_c, 0, 64, 81
1, 45716, Note_off_c, 0, 56, 43
1, 45735, Note_on_c, 0, 65, 70
1, 45753, Note_off_c, 0, 59, 36
1, 45798, Note_off_c, 0, 66, 36
1, 45863, Note_on_c, 0, 59, 59
1, 45884, Control_c, 0, 64, 80
1, 45928, Control_c, 0, 64, 80
1, 45938, Note_off_c, 0, 59, 60
1, 45943, Control_c, 0, 64, 79
1, 45958, Control_c, 0, 64, 79
1, 45973, Control_c, 0, 64, 78
1, 45987, Control_c, 0, 64, 78
1, 45992, Note_on_c, 0, 56, 45
1, 46002, Control_c, 0, 64, 77
1, 46017, Control_c, 0, 64, 76
1, 46031, Control_c, 0, 64, 75
1, 46046, Control_c, 0, 64, 73
1, 46057, Note_off_c, 0, 56, 39
1, 46061, Control_c, 0, 64, 71
1, 46076, Control_c, 0, 64, 69
1, 46091, Control_c, 0, 64, 67
1, 46105, Control_c, 0, 64, 64
1, 46120, Control_c, 0, 64, 61
1, 46126, Note_on_c, 0, 70, 63
1, 46135, Control_c, 0, 64, 54
1, 46150, Control_c, 0, 64, 44
1, 46156, Note_on_c, 0, 54, 39
1, 46159, Note_off_c, 0, 65, 22
1, 46165, Control_c, 0, 64, 34
1, 46179, Control_c, 0, 64, 35
1, 46194, Control_c, 0, 64, 42
1, 46209, Control_c, 0, 64, 52
1, 46224, Control_c, 0, 64, 60
1, 46239, Control_c, 0, 64, 64
1, 46254, Control_c, 0, 64, 66
1, 46269, Note_on_c, 0, 61, 39
1, 46269, Control_c, 0, 64, 69
1, 46284, Control_c, 0, 64, 71
1, 46298, Control_c, 0, 64, 72
1, 46313, Control_c, 0, 64, 73
1, 46337, Note_off_c, 0, 61, 56
1, 46400, Note_on_c, 0, 59, 22
1, 46418, Control_c, 0, 64, 72
1, 46433, Control_c, 0, 64, 71
1, 46447, Control_c, 0, 64, 69
1, 46462, Control_c, 0, 64, 65
1, 46477, Control_c, 0, 64, 62
1, 46481, Note_off_c, 0, 70, 57
1, 46492, Control_c, 0, 64, 59
1, 46499, Note_on_c, 0, 68, 56
1, 46504, Note_off_c, 0, 59, 31
1, 46507, Control_c, 0, 64, 58
1, 46521, Control_c, 0, 64, 60
1, 46529, Note_on_c, 0, 53, 35
1, 46536, Control_c, 0, 64, 62
1, 46544, Note_off_c, 0, 54, 38
1, 46551, Control_c, 0, 64, 63
1, 46566, Control_c, 0, 64, 65
1, 46581, Control_c, 0, 64, 67
1, 46603, Control_c, 0, 64, 69
1, 46618, Control_c, 0, 64, 71
1, 46633, Control_c, 0, 64, 73
1, 46647, Control_c, 0, 64, 75
1, 46654, Note_on_c, 0, 61, 38
1, 46662, Control_c, 0, 64, 77
1, 46668, Note_off_c, 0, 49, 50
1, 46677, Control_c, 0, 64, 78
1, 46692, Control_c, 0, 64, 78
1, 46704, Note_off_c, 0, 61, 43
1, 46770, Note_on_c, 0, 59, 44
1, 46838, Note_off_c, 0, 59, 38
1, 46840, Control_c, 0, 64, 78
1, 46884, Control_c, 0, 64, 77
1, 46914, Control_c, 0, 64, 76
1, 46928, Control_c, 0, 64, 75
1, 46934, Note_off_c, 0, 53, 31
1, 46943, Control_c, 0, 64, 75
1, 46951, Note_off_c, 0, 68, 41
1, 46958, Control_c, 0, 64, 74
1, 46973, Control_c, 0, 64, 73
1, 46974, Note_on_c, 0, 66, 55
1, 46987, Control_c, 0, 64, 71
1, 47002, Control_c, 0, 64, 70
1, 47013, Note_on_c, 0, 49, 25
1, 47015, Note_on_c, 0, 42, 30
1, 47017, Control_c, 0, 64, 69
1, 47032, Control_c, 0, 64, 67
1, 47047, Control_c, 0, 64, 66
1, 47062, Control_c, 0, 64, 65
1, 47077, Control_c, 0, 64, 65
1, 47092, Control_c, 0, 64, 64
1, 47106, Control_c, 0, 64, 63
1, 47121, Control_c, 0, 64, 62
1, 47136, Control_c, 0, 64, 59
1, 47151, Control_c, 0, 64, 55
1, 47166, Control_c, 0, 64, 50
1, 47181, Control_c, 0, 64, 44
1, 47196, Control_c, 0, 64, 36
1, 47205, Note_on_c, 0, 54, 36
1, 47211, Control_c, 0, 64, 16
1, 47226, Control_c, 0, 64, 0
1, 47318, Note_on_c, 0, 58, 37
1, 47328, Note_off_c, 0, 54, 35
1, 47330, Control_c, 0, 64, 23
1, 47351, Control_c, 0, 64, 41
1, 47366, Control_c, 0, 64, 49
1, 47381, Control_c, 0, 64, 55
1, 47388, Note_off_c, 0, 58, 48
1, 47396, Control_c, 0, 64, 59
1, 47411, Control_c, 0, 64, 63
1, 47423, Note_on_c, 0, 61, 35
1, 47425, Control_c, 0, 64, 65
1, 47440, Control_c, 0, 64, 67
1, 47455, Control_c, 0, 64, 68
1, 47470, Control_c, 0, 64, 70
1, 47485, Control_c, 0, 64, 72
1, 47500, Control_c, 0, 64, 75
1, 47500, Note_off_c, 0, 61, 50
1, 47515, Control_c, 0, 64, 76
1, 47530, Note_on_c, 0, 58, 40
1, 47530, Control_c, 0, 64, 78
1, 47545, Control_c, 0, 64, 79
1, 47559, Control_c, 0, 64, 80
1, 47574, Control_c, 0, 64, 81
1, 47589, Control_c, 0, 64, 82
1, 47595, Note_off_c, 0, 58, 58
1, 47603, Control_c, 0, 64, 83
1, 47618, Control_c, 0, 64, 83
1, 47634, Control_c, 0, 64, 84
1, 47649, Control_c, 0, 64, 85
1, 47653, Note_on_c, 0, 54, 32
1, 47664, Control_c, 0, 64, 86
1, 47678, Control_c, 0, 64, 87
1, 47693, Control_c, 0, 64, 88
1, 47697, Note_off_c, 0, 54, 46
1, 47708, Control_c, 0, 64, 89
1, 47723, Control_c, 0, 64, 90
1, 47729, Note_on_c, 0, 58, 46
1, 47738, Control_c, 0, 64, 92
1, 47752, Control_c, 0, 64, 94
1, 47767, Control_c, 0, 64, 95
1, 47782, Control_c, 0, 64, 97
1, 47797, Control_c, 0, 64, 99
1, 47810, Note_off_c, 0, 58, 58
1, 47811, Control_c, 0, 64, 100
1, 47826, Control_c, 0, 64, 100
1, 47841, Control_c, 0, 64, 101
1, 47852, Note_on_c, 0, 54, 36
1, 47947, Note_on_c, 0, 58, 46
1, 47975, Control_c, 0, 67, 125
1, 47990, Control_c, 0, 67, 123
1, 48005, Control_c, 0, 67, 118
1, 48019, Control_c, 0, 67, 113
1, 48034, Control_c, 0, 67, 108
1, 48045, Note_off_c, 0, 58, 56
1, 48049, Control_c, 0, 67, 104
1, 48062, Note_on_c, 0, 61, 47
1, 48062, Note_off_c, 0, 54, 20
1, 48064, Control_c, 0, 64, 101
1, 48064, Control_c, 0, 67, 101
1, 48079, Control_c, 0, 67, 99
1, 48101, Control_c, 0, 67, 98
1, 48108, Note_off_c, 0, 66, 32
1, 48116, Control_c, 0, 67, 98
1, 48131, Control_c, 0, 67, 99
1, 48146, Control_c, 0, 67, 99
1, 48156, Note_off_c, 0, 61, 50
1, 48156, Note_off_c, 0, 49, 46
1, 48161, Control_c, 0, 67, 100
1, 48175, Control_c, 0, 67, 101
1, 48190, Control_c, 0, 67, 101
1, 48191, Note_on_c, 0, 58, 35
1, 48205, Control_c, 0, 67, 103
1, 48220, Control_c, 0, 67, 104
1, 48234, Control_c, 0, 67, 105
1, 48239, Note_off_c, 0, 58, 44
1, 48249, Control_c, 0, 67, 106
1, 48264, Control_c, 0, 67, 108
1, 48279, Control_c, 0, 64, 101
1, 48279, Control_c, 0, 67, 109
1, 48283, Note_on_c, 0, 54, 39
1, 48294, Control_c, 0, 67, 110
1, 48308, Control_c, 0, 64, 100
1, 48308, Control_c, 0, 67, 112
1, 48323, Control_c, 0, 64, 100
1, 48323, Control_c, 0, 67, 116
1, 48338, Control_c, 0, 64, 99
1, 48338, Control_c, 0, 67, 121
1, 48353, Control_c, 0, 64, 99
1, 48353, Control_c, 0, 67, 124
1, 48355, Note_off_c, 0, 42, 37
1, 48364, Note_off_c, 0, 54, 35
1, 48368, Control_c, 0, 64, 98
1, 48368, Control_c, 0, 67, 127
1, 48382, Control_c, 0, 64, 97
1, 48382, Control_c, 0, 67, 127
1, 48397, Control_c, 0, 64, 97
1, 48412, Control_c, 0, 64, 96
1, 48426, Control_c, 0, 64, 96
1, 48441, Control_c, 0, 64, 94
1, 48445, Note_on_c, 0, 66, 61
1, 48456, Control_c, 0, 64, 92
1, 48471, Control_c, 0, 64, 91
1, 48480, Note_on_c, 0, 46, 41
1, 48481, Note_on_c, 0, 49, 34
1, 48486, Control_c, 0, 64, 89
1, 48500, Control_c, 0, 64, 87
1, 48515, Control_c, 0, 64, 84
1, 48530, Control_c, 0, 64, 81
1, 48545, Control_c, 0, 64, 74
1, 48560, Control_c, 0, 64, 67
1, 48574, Control_c, 0, 64, 47
1, 48589, Control_c, 0, 64, 0
1, 48592, Note_on_c, 0, 54, 42
1, 48663, Control_c, 0, 64, 46
1, 48678, Control_c, 0, 64, 61
1, 48693, Control_c, 0, 64, 66
1, 48704, Note_on_c, 0, 58, 48
1, 48707, Control_c, 0, 64, 69
1, 48722, Control_c, 0, 64, 73
1, 48737, Control_c, 0, 64, 78
1, 48752, Control_c, 0, 64, 82
1, 48757, Note_off_c, 0, 54, 30
1, 48768, Control_c, 0, 64, 85
1, 48783, Control_c, 0, 64, 87
1, 48797, Control_c, 0, 64, 89
1, 48812, Control_c, 0, 64, 90
1, 48815, Note_off_c, 0, 58, 52
1, 48821, Note_on_c, 0, 61, 53
1, 48827, Control_c, 0, 64, 91
1, 48842, Control_c, 0, 64, 91
1, 48922, Note_off_c, 0, 61, 53
1, 48923, Note_off_c, 0, 46, 40
1, 48952, Note_off_c, 0, 49, 40
1, 48970, Note_on_c, 0, 58, 45
1, 48982, Note_off_c, 0, 66, 38
1, 48983, Control_c, 0, 64, 91
1, 49027, Control_c, 0, 64, 90
1, 49039, Note_on_c, 0, 54, 46
1, 49042, Control_c, 0, 64, 90
1, 49056, Control_c, 0, 64, 89
1, 49071, Control_c, 0, 64, 88
1, 49101, Control_c, 0, 64, 88
1, 49116, Control_c, 0, 64, 87
1, 49120, Note_off_c, 0, 54, 59
1, 49130, Control_c, 0, 64, 86
1, 49145, Control_c, 0, 64, 84
1, 49160, Control_c, 0, 64, 82
1, 49168, Note_on_c, 0, 67, 72
1, 49175, Control_c, 0, 64, 80
1, 49190, Control_c, 0, 64, 77
1, 49205, Control_c, 0, 64, 74
1, 49206, Note_off_c, 0, 58, 31
1, 49207, Note_on_c, 0, 46, 39
1, 49211, Note_on_c, 0, 49, 39
1, 49220, Control_c, 0, 64, 68
1, 49235, Control_c, 0, 64, 60
1, 49249, Control_c, 0, 64, 0
1, 49290, Note_on_c, 0, 55, 34
1, 49309, Control_c, 0, 64, 47
1, 49323, Control_c, 0, 64, 59
1, 49338, Control_c, 0, 64, 63
1, 49353, Control_c, 0, 64, 65
1, 49357, Note_off_c, 0, 55, 0
1, 49357, Note_on_c, 0, 55, 3
1, 49367, Control_c, 0, 64, 68
1, 49382, Control_c, 0, 64, 71
1, 49397, Control_c, 0, 64, 74
1, 49412, Control_c, 0, 64, 77
1, 49421, Note_on_c, 0, 58, 51
1, 49427, Control_c, 0, 64, 80
1, 49441, Control_c, 0, 64, 82
1, 49456, Control_c, 0, 64, 84
1, 49471, Control_c, 0, 64, 85
1, 49486, Control_c, 0, 64, 86
1, 49493, Note_off_c, 0, 49, 40
1, 49515, Control_c, 0, 64, 87
1, 49539, Note_off_c, 0, 55, 40
1, 49544, Note_off_c, 0, 58, 59
1, 49551, Note_off_c, 0, 67, 52
1, 49557, Note_on_c, 0, 61, 53
1, 49643, Control_c, 0, 64, 86
1, 49687, Note_on_c, 0, 58, 50
1, 49702, Control_c, 0, 64, 86
1, 49709, Note_off_c, 0, 46, 38
1, 49732, Control_c, 0, 64, 85
1, 49736, Note_off_c, 0, 61, 28
1, 49776, Control_c, 0, 64, 85
1, 49786, Note_off_c, 0, 58, 57
1, 49791, Control_c, 0, 64, 84
1, 49805, Control_c, 0, 64, 84
1, 49809, Note_on_c, 0, 55, 52
1, 49820, Control_c, 0, 64, 83
1, 49835, Control_c, 0, 64, 83
1, 49850, Control_c, 0, 64, 82
1, 49879, Control_c, 0, 64, 82
1, 49909, Control_c, 0, 64, 81
1, 49924, Control_c, 0, 64, 81
1, 49953, Control_c, 0, 64, 80
1, 49983, Control_c, 0, 64, 80
1, 49986, Note_off_c, 0, 55, 41
1, 49998, Control_c, 0, 64, 79
1, 50013, Control_c, 0, 64, 79
1, 50028, Control_c, 0, 64, 78
1, 50039, Note_on_c, 0, 68, 70
1, 50043, Control_c, 0, 64, 77
1, 50058, Control_c, 0, 64, 76
1, 50072, Note_on_c, 0, 53, 43
1, 50072, Control_c, 0, 64, 75
1, 50082, Note_on_c, 0, 49, 38
1, 50087, Control_c, 0, 64, 74
1, 50102, Control_c, 0, 64, 73
1, 50117, Control_c, 0, 64, 72
1, 50132, Control_c, 0, 64, 71
1, 50146, Control_c, 0, 64, 69
1, 50161, Control_c, 0, 64, 66
1, 50176, Control_c, 0, 64, 61
1, 50190, Control_c, 0, 64, 49
1, 50205, Control_c, 0, 64, 0
1, 50330, Note_on_c, 0, 56, 36
1, 50361, Control_c, 0, 64, 35
1, 50377, Control_c, 0, 64, 58
1, 50391, Control_c, 0, 64, 63
1, 50406, Control_c, 0, 64, 66
1, 50421, Control_c, 0, 64, 68
1, 50436, Control_c, 0, 64, 70
1, 50450, Note_on_c, 0, 61, 43
1, 50451, Control_c, 0, 64, 73
1, 50466, Control_c, 0, 64, 77
1, 50481, Control_c, 0, 64, 80
1, 50496, Control_c, 0, 64, 82
1, 50510, Control_c, 0, 64, 84
1, 50525, Control_c, 0, 64, 85
1, 50540, Control_c, 0, 64, 87
1, 50543, Note_off_c, 0, 61, 49
1, 50555, Control_c, 0, 64, 88
1, 50565, Note_on_c, 0, 65, 46
1, 50570, Control_c, 0, 64, 90
1, 50571, Note_off_c, 0, 56, 32
1, 50584, Control_c, 0, 64, 91
1, 50599, Control_c, 0, 64, 92
1, 50614, Control_c, 0, 64, 93
1, 50629, Control_c, 0, 64, 95
1, 50644, Control_c, 0, 64, 97
1, 50659, Control_c, 0, 64, 99
1, 50674, Control_c, 0, 64, 100
1, 50685, Note_on_c, 0, 61, 45
1, 50689, Control_c, 0, 64, 102
1, 50703, Control_c, 0, 64, 102
1, 50706, Note_off_c, 0, 65, 34
1, 50718, Control_c, 0, 64, 103
1, 50733, Control_c, 0, 64, 104
1, 50748, Control_c, 0, 64, 105
1, 50763, Control_c, 0, 64, 106
1, 50771, Note_off_c, 0, 61, 58
1, 50792, Control_c, 0, 64, 106
1, 50807, Note_on_c, 0, 56, 39
1, 50807, Control_c, 0, 64, 107
1, 50821, Control_c, 0, 64, 107
1, 50851, Control_c, 0, 64, 108
1, 50862, Note_off_c, 0, 56, 56
1, 50905, Note_on_c, 0, 61, 50
1, 50989, Note_off_c, 0, 61, 57
1, 51003, Note_on_c, 0, 56, 46
1, 51110, Control_c, 0, 64, 107
1, 51124, Note_on_c, 0, 61, 55
1, 51155, Control_c, 0, 64, 107
1, 51171, Control_c, 0, 64, 106
1, 51186, Control_c, 0, 64, 106
1, 51200, Control_c, 0, 64, 105
1, 51209, Note_off_c, 0, 61, 59
1, 51215, Control_c, 0, 64, 105
1, 51219, Note_off_c, 0, 68, 58
1, 51225, Note_on_c, 0, 65, 58
1, 51230, Note_off_c, 0, 56, 21
1, 51230, Control_c, 0, 64, 104
1, 51237, Note_off_c, 0, 53, 60
1, 51244, Control_c, 0, 64, 104
1, 51259, Control_c, 0, 64, 103
1, 51274, Control_c, 0, 64, 102
1, 51289, Control_c, 0, 64, 102
1, 51304, Control_c, 0, 64, 101
1, 51310, Note_off_c, 0, 65, 61
1, 51318, Control_c, 0, 64, 100
1, 51333, Note_on_c, 0, 61, 51
1, 51333, Control_c, 0, 64, 100
1, 51348, Control_c, 0, 64, 99
1, 51363, Control_c, 0, 64, 99
1, 51372, Note_off_c, 0, 61, 58
1, 51377, Control_c, 0, 64, 98
1, 51392, Control_c, 0, 64, 98
1, 51406, Control_c, 0, 64, 97
1, 51421, Control_c, 0, 64, 97
1, 51426, Note_on_c, 0, 56, 57
1, 51436, Control_c, 0, 64, 96
1, 51450, Control_c, 0, 64, 96
1, 51462, Note_off_c, 0, 56, 60
1, 51465, Control_c, 0, 64, 95
1, 51495, Control_c, 0, 64, 95
1, 51510, Control_c, 0, 64, 94
1, 51524, Control_c, 0, 64, 93
1, 51539, Control_c, 0, 64, 91
1, 51545, Note_on_c, 0, 70, 78
1, 51554, Control_c, 0, 64, 90
1, 51563, Note_on_c, 0, 46, 44
1, 51565, Note_on_c, 0, 55, 49
1, 51569, Control_c, 0, 64, 88
1, 51583, Note_on_c, 0, 52, 48
1, 51584, Control_c, 0, 64, 86
1, 51599, Control_c, 0, 64, 85
1, 51614, Control_c, 0, 64, 82
1, 51628, Control_c, 0, 64, 79
1, 51635, Note_off_c, 0, 49, 27
1, 51643, Control_c, 0, 64, 75
1, 51658, Control_c, 0, 64, 70
1, 51673, Control_c, 0, 64, 64
1, 51688, Control_c, 0, 64, 37
1, 51703, Control_c, 0, 64, 0
1, 51715, Note_on_c, 0, 61, 49
1, 51732, Control_c, 0, 64, 46
1, 51747, Control_c, 0, 64, 57
1, 51762, Control_c, 0, 64, 61
1, 51776, Control_c, 0, 64, 64
1, 51791, Control_c, 0, 64, 68
1, 51806, Control_c, 0, 64, 73
1, 51821, Control_c, 0, 64, 78
1, 51831, Note_on_c, 0, 64, 57
1, 51843, Control_c, 0, 64, 80
1, 51858, Control_c, 0, 64, 81
1, 51873, Control_c, 0, 64, 82
1, 51903, Control_c, 0, 64, 83
1, 51947, Note_off_c, 0, 64, 57
1, 51959, Note_off_c, 0, 61, 24
1, 51961, Note_on_c, 0, 67, 54
1, 52073, Note_on_c, 0, 64, 56
1, 52096, Control_c, 0, 64, 82
1, 52126, Control_c, 0, 64, 82
1, 52140, Control_c, 0, 64, 81
1, 52156, Note_off_c, 0, 64, 64
1, 52170, Control_c, 0, 64, 81
1, 52173, Note_on_c, 0, 61, 59
1, 52185, Control_c, 0, 64, 80
1, 52199, Control_c, 0, 64, 79
1, 52214, Control_c, 0, 64, 79
1, 52229, Control_c, 0, 64, 77
1, 52244, Control_c, 0, 64, 76
1, 52259, Control_c, 0, 64, 74
1, 52268, Note_off_c, 0, 61, 44
1, 52273, Control_c, 0, 64, 72
1, 52280, Note_on_c, 0, 63, 65
1, 52285, Note_on_c, 0, 51, 62
1, 52288, Control_c, 0, 64, 68
1, 52291, Note_off_c, 0, 67, 51
1, 52298, Note_off_c, 0, 52, 65
1, 52303, Control_c, 0, 64, 64
1, 52318, Control_c, 0, 64, 54
1, 52333, Control_c, 0, 64, 34
1, 52347, Control_c, 0, 64, 14
1, 52362, Control_c, 0, 64, 22
1, 52377, Control_c, 0, 64, 36
1, 52386, Note_off_c, 0, 63, 63
1, 52388, Note_on_c, 0, 61, 61
1, 52392, Control_c, 0, 64, 48
1, 52407, Control_c, 0, 64, 57
1, 52421, Control_c, 0, 64, 63
1, 52436, Control_c, 0, 64, 66
1, 52451, Control_c, 0, 64, 70
1, 52466, Control_c, 0, 64, 74
1, 52481, Control_c, 0, 64, 78
1, 52496, Control_c, 0, 64, 81
1, 52507, Note_on_c, 0, 63, 66
1, 52511, Control_c, 0, 64, 82
1, 52526, Control_c, 0, 64, 83
1, 52555, Control_c, 0, 64, 83
1, 52623, Note_off_c, 0, 61, 46
1, 52626, Note_on_c, 0, 67, 66
1, 52630, Note_off_c, 0, 70, 56
1, 52638, Note_off_c, 0, 63, 60
1, 52643, Note_off_c, 0, 51, 57
1, 52752, Note_on_c, 0, 63, 65
1, 52771, Note_off_c, 0, 46, 55
1, 52773, Note_off_c, 0, 55, 36
1, 52830, Control_c, 0, 64, 83
1, 52860, Control_c, 0, 64, 82
1, 52866, Note_on_c, 0, 61, 66
1, 52873, Note_off_c, 0, 63, 56
1, 52875, Control_c, 0, 64, 82
1, 52904, Control_c, 0, 64, 81
1, 52934, Control_c, 0, 64, 81
1, 52963, Control_c, 0, 64, 80
1, 52978, Control_c, 0, 64, 80
1, 52993, Control_c, 0, 64, 79
1, 53008, Control_c, 0, 64, 79
1, 53037, Control_c, 0, 64, 78
1, 53052, Control_c, 0, 64, 77
1, 53067, Control_c, 0, 64, 76
1, 53072, Note_on_c, 0, 73, 79
1, 53075, Note_off_c, 0, 61, 54
1, 53082, Control_c, 0, 64, 75
1, 53093, Note_off_c, 0, 67, 50
1, 53096, Control_c, 0, 64, 73
1, 53101, Note_on_c, 0, 44, 44
1, 53103, Note_on_c, 0, 55, 45
1, 53111, Control_c, 0, 64, 71
1, 53126, Control_c, 0, 64, 69
1, 53127, Note_on_c, 0, 51, 34
1, 53141, Control_c, 0, 64, 67
1, 53156, Control_c, 0, 64, 64
1, 53170, Control_c, 0, 64, 61
1, 53185, Control_c, 0, 64, 55
1, 53200, Control_c, 0, 64, 45
1, 53214, Control_c, 0, 64, 23
1, 53229, Control_c, 0, 64, 0
1, 53313, Note_on_c, 0, 61, 48
1, 53334, Control_c, 0, 64, 53
1, 53356, Control_c, 0, 64, 62
1, 53370, Control_c, 0, 64, 65
1, 53385, Control_c, 0, 64, 67
1, 53400, Control_c, 0, 64, 69
1, 53415, Control_c, 0, 64, 72
1, 53429, Control_c, 0, 64, 76
1, 53444, Control_c, 0, 64, 79
1, 53450, Note_on_c, 0, 63, 53
1, 53459, Control_c, 0, 64, 81
1, 53474, Control_c, 0, 64, 82
1, 53485, Note_off_c, 0, 61, 0
1, 53489, Control_c, 0, 64, 83
1, 53503, Control_c, 0, 64, 84
1, 53518, Control_c, 0, 64, 85
1, 53521, Poly_aftertouch_c, 0, 61, 127
1, 53533, Control_c, 0, 64, 86
1, 53548, Control_c, 0, 64, 87
1, 53564, Control_c, 0, 64, 88
1, 53579, Control_c, 0, 64, 88
1, 53581, Note_off_c, 0, 63, 57
1, 53584, Note_on_c, 0, 70, 58
1, 53593, Control_c, 0, 64, 89
1, 53605, Poly_aftertouch_c, 0, 61, 0
1, 53608, Control_c, 0, 64, 89
1, 53623, Control_c, 0, 64, 90
1, 53638, Control_c, 0, 64, 90
1, 53653, Control_c, 0, 64, 91
1, 53682, Control_c, 0, 64, 91
1, 53705, Note_off_c, 0, 70, 54
1, 53713, Note_on_c, 0, 63, 51
1, 53742, Control_c, 0, 64, 92
1, 53781, Note_off_c, 0, 63, 53
1, 53827, Note_on_c, 0, 61, 47
1, 53876, Note_off_c, 0, 61, 45
1, 53924, Note_on_c, 0, 63, 47
1, 53984, Note_off_c, 0, 55, 61
1, 53990, Note_off_c, 0, 73, 56
1, 54042, Note_on_c, 0, 61, 48
1, 54043, Note_off_c, 0, 63, 37
1, 54124, Note_off_c, 0, 61, 50
1, 54171, Note_on_c, 0, 63, 40
1, 54193, Control_c, 0, 64, 91
1, 54274, Note_on_c, 0, 71, 59
1, 54294, Note_on_c, 0, 68, 48
1, 54299, Note_off_c, 0, 63, 45
1, 54308, Note_on_c, 0, 56, 43
1, 54312, Control_c, 0, 64, 91
1, 54421, Note_off_c, 0, 51, 38
1, 54431, Note_on_c, 0, 63, 36
1, 54447, Control_c, 0, 64, 90
1, 54456, Note_off_c, 0, 56, 33
1, 54493, Note_off_c, 0, 71, 31
1, 54511, Note_off_c, 0, 44, 42
1, 54521, Control_c, 0, 64, 90
1, 54553, Note_on_c, 0, 59, 42
1, 54553, Note_off_c, 0, 68, 40
1, 54580, Control_c, 0, 64, 89
1, 54594, Note_off_c, 0, 63, 36
1, 54624, Control_c, 0, 64, 89
1, 54654, Control_c, 0, 64, 88
1, 54684, Control_c, 0, 64, 88
1, 54714, Control_c, 0, 64, 87
1, 54724, Note_on_c, 0, 71, 58
1, 54729, Control_c, 0, 64, 87
1, 54743, Note_off_c, 0, 59, 38
1, 54743, Control_c, 0, 64, 86
1, 54758, Control_c, 0, 64, 84
1, 54759, Note_on_c, 0, 56, 38
1, 54768, Note_on_c, 0, 44, 38
1, 54772, Note_on_c, 0, 51, 30
1, 54773, Control_c, 0, 64, 83
1, 54787, Control_c, 0, 64, 82
1, 54802, Control_c, 0, 64, 81
1, 54817, Control_c, 0, 64, 80
1, 54839, Control_c, 0, 64, 78
1, 54854, Control_c, 0, 64, 75
1, 54869, Control_c, 0, 64, 70
1, 54880, Note_on_c, 0, 59, 41
1, 54884, Control_c, 0, 64, 65
1, 54899, Control_c, 0, 64, 53
1, 54913, Control_c, 0, 64, 0
1, 54987, Control_c, 0, 64, 20
1, 55002, Control_c, 0, 64, 45
1, 55010, Note_on_c, 0, 63, 40
1, 55017, Control_c, 0, 64, 57
1, 55031, Note_off_c, 0, 59, 42
1, 55032, Control_c, 0, 64, 63
1, 55047, Control_c, 0, 64, 66
1, 55061, Control_c, 0, 64, 71
1, 55076, Control_c, 0, 64, 75
1, 55084, Note_off_c, 0, 63, 56
1, 55091, Control_c, 0, 64, 78
1, 55095, Note_on_c, 0, 68, 45
1, 55106, Control_c, 0, 64, 81
1, 55119, Control_c, 0, 64, 84
1, 55134, Control_c, 0, 64, 86
1, 55149, Control_c, 0, 64, 88
1, 55165, Control_c, 0, 64, 89
1, 55180, Control_c, 0, 64, 90
1, 55195, Control_c, 0, 64, 91
1, 55210, Control_c, 0, 64, 92
1, 55219, Note_off_c, 0, 68, 38
1, 55220, Note_on_c, 0, 63, 47
1, 55224, Control_c, 0, 64, 93
1, 55239, Control_c, 0, 64, 94
1, 55254, Control_c, 0, 64, 95
1, 55287, Note_off_c, 0, 63, 58
1, 55321, Note_on_c, 0, 59, 44
1, 55402, Control_c, 0, 64, 95
1, 55421, Note_on_c, 0, 63, 56
1, 55432, Control_c, 0, 64, 96
1, 55435, Note_off_c, 0, 59, 36
1, 55462, Control_c, 0, 64, 96
1, 55491, Control_c, 0, 64, 97
1, 55504, Note_off_c, 0, 63, 61
1, 55506, Control_c, 0, 64, 98
1, 55508, Note_off_c, 0, 56, 45
1, 55521, Control_c, 0, 64, 99
1, 55536, Control_c, 0, 64, 100
1, 55536, Note_on_c, 0, 59, 47
1, 55551, Control_c, 0, 64, 101
1, 55565, Control_c, 0, 64, 102
1, 55587, Control_c, 0, 64, 103
1, 55602, Control_c, 0, 64, 105
1, 55617, Control_c, 0, 64, 106
1, 55631, Note_on_c, 0, 63, 65
1, 55632, Control_c, 0, 64, 107
1, 55643, Note_off_c, 0, 51, 39
1, 55647, Control_c, 0, 64, 109
1, 55662, Control_c, 0, 64, 110
1, 55677, Control_c, 0, 64, 111
1, 55691, Control_c, 0, 64, 112
1, 55700, Note_off_c, 0, 44, 51
1, 55706, Control_c, 0, 64, 114
1, 55721, Control_c, 0, 64, 115
1, 55735, Control_c, 0, 64, 117
1, 55745, Note_on_c, 0, 68, 64
1, 55750, Control_c, 0, 64, 118
1, 55751, Note_off_c, 0, 71, 36
1, 55755, Note_off_c, 0, 63, 62
1, 55765, Control_c, 0, 64, 119
1, 55778, Note_off_c, 0, 59, 40
1, 55780, Control_c, 0, 64, 119
1, 55846, Note_on_c, 0, 42, 64
1, 55866, Note_on_c, 0, 63, 66
1, 55942, Control_c, 0, 64, 119
1, 55963, Note_on_c, 0, 59, 65
1, 55967, Note_off_c, 0, 63, 58
1, 55974, Control_c, 0, 64, 118
1, 55988, Control_c, 0, 64, 117
1, 56003, Control_c, 0, 64, 117
1, 56018, Control_c, 0, 64, 115
1, 56033, Control_c, 0, 64, 114
1, 56047, Control_c, 0, 64, 113
1, 56062, Control_c, 0, 64, 112
1, 56077, Control_c, 0, 64, 111
1, 56085, Note_off_c, 0, 42, 58
1, 56092, Control_c, 0, 64, 110
1, 56107, Control_c, 0, 64, 109
1, 56121, Control_c, 0, 64, 108
1, 56136, Control_c, 0, 64, 107
1, 56151, Control_c, 0, 64, 105
1, 56153, Note_on_c, 0, 71, 83
1, 56159, Note_off_c, 0, 59, 48
1, 56166, Control_c, 0, 64, 104
1, 56168, Note_on_c, 0, 40, 73
1, 56181, Control_c, 0, 64, 101
1, 56195, Control_c, 0, 64, 98
1, 56210, Control_c, 0, 64, 92
1, 56225, Control_c, 0, 64, 85
1, 56240, Control_c, 0, 64, 77
1, 56255, Control_c, 0, 64, 67
1, 56263, Note_off_c, 0, 68, 39
1, 56270, Control_c, 0, 64, 16
1, 56285, Control_c, 0, 64, 0
1, 56383, Note_on_c, 0, 59, 52
1, 56455, Control_c, 0, 64, 56
1, 56469, Control_c, 0, 64, 66
1, 56484, Control_c, 0, 64, 70
1, 56499, Control_c, 0, 64, 75
1, 56504, Note_on_c, 0, 64, 49
1, 56514, Control_c, 0, 64, 80
1, 56529, Control_c, 0, 64, 86
1, 56544, Control_c, 0, 64, 91
1, 56558, Control_c, 0, 64, 95
1, 56573, Control_c, 0, 64, 97
1, 56588, Control_c, 0, 64, 100
1, 56598, Note_on_c, 0, 68, 52
1, 56601, Note_off_c, 0, 59, 49
1, 56603, Control_c, 0, 64, 103
1, 56604, Note_off_c, 0, 64, 59
1, 56618, Control_c, 0, 64, 106
1, 56632, Control_c, 0, 64, 110
1, 56647, Control_c, 0, 64, 113
1, 56662, Control_c, 0, 64, 116
1, 56677, Control_c, 0, 64, 118
1, 56692, Control_c, 0, 64, 121
1, 56699, Note_off_c, 0, 68, 58
1, 56706, Control_c, 0, 64, 124
1, 56709, Note_on_c, 0, 64, 55
1, 56721, Control_c, 0, 64, 127
1, 56789, Note_off_c, 0, 64, 61
1, 56799, Note_on_c, 0, 59, 58
1, 56870, Control_c, 0, 67, 126
1, 56885, Control_c, 0, 67, 125
1, 56900, Control_c, 0, 67, 124
1, 56913, Note_on_c, 0, 64, 64
1, 56914, Note_off_c, 0, 59, 54
1, 56915, Control_c, 0, 67, 123
1, 56929, Control_c, 0, 67, 120
1, 56944, Control_c, 0, 67, 116
1, 56959, Control_c, 0, 67, 112
1, 56974, Control_c, 0, 67, 107
1, 56988, Control_c, 0, 67, 104
1, 57003, Control_c, 0, 67, 103
1, 57010, Note_off_c, 0, 64, 62
1, 57026, Note_on_c, 0, 59, 58
1, 57063, Control_c, 0, 67, 103
1, 57078, Control_c, 0, 67, 102
1, 57119, Note_on_c, 0, 64, 71
1, 57144, Control_c, 0, 67, 102
1, 57159, Control_c, 0, 67, 101
1, 57203, Control_c, 0, 67, 101
1, 57217, Note_on_c, 0, 68, 71
1, 57218, Control_c, 0, 67, 100
1, 57233, Control_c, 0, 67, 98
1, 57241, Note_off_c, 0, 64, 60
1, 57244, Note_off_c, 0, 59, 54
1, 57248, Control_c, 0, 67, 95
1, 57256, Note_off_c, 0, 71, 54
1, 57262, Control_c, 0, 67, 94
1, 57277, Control_c, 0, 67, 93
1, 57292, Control_c, 0, 67, 92
1, 57307, Control_c, 0, 67, 91
1, 57322, Control_c, 0, 67, 90
1, 57327, Note_on_c, 0, 64, 70
1, 57337, Control_c, 0, 67, 89
1, 57352, Control_c, 0, 67, 88
1, 57367, Control_c, 0, 67, 87
1, 57382, Control_c, 0, 64, 127
1, 57382, Control_c, 0, 67, 87
1, 57397, Control_c, 0, 64, 125
1, 57411, Control_c, 0, 64, 123
1, 57411, Control_c, 0, 67, 87
1, 57426, Control_c, 0, 64, 122
1, 57432, Note_on_c, 0, 59, 72
1, 57432, Note_off_c, 0, 64, 60
1, 57441, Control_c, 0, 64, 121
1, 57456, Control_c, 0, 64, 120
1, 57471, Control_c, 0, 64, 119
1, 57486, Control_c, 0, 64, 118
1, 57501, Control_c, 0, 64, 117
1, 57516, Control_c, 0, 64, 117
1, 57530, Control_c, 0, 64, 116
1, 57530, Control_c, 0, 67, 88
1, 57545, Control_c, 0, 64, 115
1, 57560, Control_c, 0, 64, 114
1, 57566, Note_on_c, 0, 71, 87
1, 57575, Note_off_c, 0, 59, 49
1, 57575, Control_c, 0, 64, 112
1, 57575, Control_c, 0, 67, 87
1, 57578, Note_on_c, 0, 39, 63
1, 57590, Control_c, 0, 64, 110
1, 57605, Control_c, 0, 64, 107
1, 57605, Control_c, 0, 67, 87
1, 57620, Control_c, 0, 64, 103
1, 57632, Note_off_c, 0, 40, 61
1, 57635, Control_c, 0, 64, 98
1, 57650, Control_c, 0, 64, 92
1, 57665, Control_c, 0, 64, 85
1, 57677, Note_off_c, 0, 68, 54
1, 57679, Control_c, 0, 64, 76
1, 57679, Control_c, 0, 67, 87
1, 57694, Control_c, 0, 64, 65
1, 57709, Control_c, 0, 64, 0
1, 57718, Note_on_c, 0, 59, 64
1, 57739, Control_c, 0, 67, 87
1, 57783, Control_c, 0, 64, 50
1, 57798, Control_c, 0, 64, 62
1, 57812, Control_c, 0, 64, 67
1, 57812, Control_c, 0, 67, 86
1, 57826, Note_on_c, 0, 63, 63
1, 57827, Control_c, 0, 64, 73
1, 57850, Control_c, 0, 64, 78
1, 57850, Control_c, 0, 67, 86
1, 57865, Control_c, 0, 64, 82
1, 57879, Control_c, 0, 64, 85
1, 57894, Control_c, 0, 64, 86
1, 57909, Control_c, 0, 64, 87
1, 57924, Control_c, 0, 64, 88
1, 57927, Note_on_c, 0, 66, 73
1, 57933, Note_off_c, 0, 59, 59
1, 57942, Note_off_c, 0, 63, 63
1, 57954, Control_c, 0, 64, 89
1, 57968, Control_c, 0, 64, 89
1, 57968, Control_c, 0, 67, 86
1, 57983, Control_c, 0, 67, 87
1, 58012, Control_c, 0, 67, 87
1, 58037, Note_on_c, 0, 63, 70
1, 58057, Control_c, 0, 67, 88
1, 58072, Control_c, 0, 67, 88
1, 58078, Note_off_c, 0, 66, 62
1, 58078, Note_off_c, 0, 71, 57
1, 58120, Note_on_c, 0, 59, 73
1, 58125, Note_off_c, 0, 63, 61
1, 58148, Note_off_c, 0, 59, 63
1, 58190, Control_c, 0, 64, 89
1, 58205, Control_c, 0, 64, 88
1, 58219, Control_c, 0, 64, 88
1, 58234, Control_c, 0, 64, 86
1, 58249, Control_c, 0, 64, 83
1, 58250, Note_on_c, 0, 73, 93
1, 58263, Note_off_c, 0, 39, 53
1, 58264, Control_c, 0, 64, 78
1, 58264, Control_c, 0, 67, 89
1, 58265, Note_on_c, 0, 37, 64
1, 58279, Control_c, 0, 64, 71
1, 58294, Control_c, 0, 64, 63
1, 58294, Control_c, 0, 67, 89
1, 58309, Control_c, 0, 64, 0
1, 58324, Control_c, 0, 67, 90
1, 58338, Control_c, 0, 67, 90
1, 58354, Control_c, 0, 67, 91
1, 58369, Control_c, 0, 64, 41
1, 58369, Control_c, 0, 67, 91
1, 58372, Note_on_c, 0, 64, 58
1, 58375, Note_off_c, 0, 37, 65
1, 58379, Note_on_c, 0, 39, 62
1, 58383, Control_c, 0, 64, 60
1, 58383, Control_c, 0, 67, 92
1, 58398, Control_c, 0, 64, 65
1, 58398, Control_c, 0, 67, 92
1, 58413, Control_c, 0, 64, 70
1, 58413, Control_c, 0, 67, 93
1, 58428, Control_c, 0, 64, 73
1, 58428, Control_c, 0, 67, 93
1, 58439, Note_off_c, 0, 39, 59
1, 58443, Control_c, 0, 64, 78
1, 58443, Control_c, 0, 67, 94
1, 58450, Note_on_c, 0, 37, 63
1, 58458, Control_c, 0, 64, 82
1, 58468, Note_on_c, 0, 66, 73
1, 58473, Control_c, 0, 64, 84
1, 58473, Control_c, 0, 67, 93
1, 58488, Control_c, 0, 64, 86
1, 58488, Control_c, 0, 67, 93
1, 58499, Note_off_c, 0, 37, 65
1, 58502, Control_c, 0, 64, 87
1, 58506, Note_on_c, 0, 39, 64
1, 58517, Control_c, 0, 67, 92
1, 58532, Control_c, 0, 67, 91
1, 58547, Control_c, 0, 67, 90
1, 58559, Note_off_c, 0, 39, 55
1, 58574, Note_on_c, 0, 37, 65
1, 58586, Note_on_c, 0, 70, 77
1, 58605, Note_off_c, 0, 66, 65
1, 58625, Note_off_c, 0, 37, 66
1, 58643, Note_on_c, 0, 39, 68
1, 58644, Note_off_c, 0, 64, 35
1, 58684, Note_off_c, 0, 39, 64
1, 58688, Note_on_c, 0, 66, 71
1, 58699, Note_on_c, 0, 37, 71
1, 58735, Note_off_c, 0, 70, 58
1, 58744, Note_off_c, 0, 37, 65
1, 58756, Note_on_c, 0, 39, 74
1, 58777, Note_off_c, 0, 66, 61
1, 58780, Note_on_c, 0, 64, 73
1, 58806, Control_c, 0, 64, 86
1, 58806, Control_c, 0, 67, 90
1, 58821, Control_c, 0, 67, 89
1, 58822, Note_off_c, 0, 39, 62
1, 58827, Note_on_c, 0, 37, 74
1, 58850, Control_c, 0, 67, 89
1, 58864, Control_c, 0, 64, 86
1, 58864, Control_c, 0, 67, 88
1, 58872, Note_off_c, 0, 37, 62
1, 58893, Note_on_c, 0, 35, 70
1, 58908, Control_c, 0, 64, 85
1, 58923, Control_c, 0, 64, 85
1, 58938, Control_c, 0, 64, 84
1, 58962, Note_off_c, 0, 35, 63
1, 58966, Note_on_c, 0, 37, 71
1, 58967, Control_c, 0, 64, 84
1, 58982, Control_c, 0, 64, 83
1, 58997, Control_c, 0, 64, 82
1, 59012, Control_c, 0, 64, 80
1, 59027, Control_c, 0, 64, 79
1, 59042, Control_c, 0, 64, 78
1, 59057, Control_c, 0, 64, 78
1, 59072, Control_c, 0, 64, 77
1, 59087, Control_c, 0, 64, 76
1, 59102, Control_c, 0, 64, 75
1, 59116, Control_c, 0, 64, 74
1, 59131, Control_c, 0, 64, 73
1, 59146, Control_c, 0, 64, 71
1, 59161, Control_c, 0, 64, 70
1, 59174, Note_on_c, 0, 76, 90
1, 59176, Control_c, 0, 64, 67
1, 59179, Note_on_c, 0, 35, 69
1, 59191, Control_c, 0, 64, 64
1, 59194, Note_off_c, 0, 37, 64
1, 59206, Control_c, 0, 64, 60
1, 59218, Note_off_c, 0, 73, 54
1, 59221, Control_c, 0, 64, 50
1, 59236, Control_c, 0, 64, 20
1, 59236, Control_c, 0, 67, 88
1, 59248, Note_off_c, 0, 64, 48
1, 59250, Control_c, 0, 64, 0
1, 59280, Control_c, 0, 67, 88
1, 59346, Control_c, 0, 67, 89
1, 59376, Control_c, 0, 67, 89
1, 59391, Control_c, 0, 67, 90
1, 59406, Control_c, 0, 67, 90
1, 59421, Control_c, 0, 64, 25
1, 59421, Control_c, 0, 67, 91
1, 59435, Control_c, 0, 64, 60
1, 59435, Control_c, 0, 67, 92
1, 59450, Note_on_c, 0, 64, 59
1, 59450, Control_c, 0, 64, 65
1, 59450, Control_c, 0, 67, 93
1, 59465, Control_c, 0, 64, 68
1, 59465, Control_c, 0, 67, 93
1, 59480, Control_c, 0, 64, 71
1, 59480, Control_c, 0, 67, 94
1, 59495, Control_c, 0, 64, 73
1, 59495, Control_c, 0, 67, 95
1, 59510, Control_c, 0, 64, 76
1, 59510, Control_c, 0, 67, 96
1, 59525, Control_c, 0, 64, 79
1, 59525, Control_c, 0, 67, 97
1, 59539, Control_c, 0, 64, 81
1, 59539, Control_c, 0, 67, 97
1, 59554, Control_c, 0, 64, 84
1, 59554, Control_c, 0, 67, 98
1, 59569, Control_c, 0, 64, 85
1, 59569, Control_c, 0, 67, 99
1, 59576, Note_on_c, 0, 66, 61
1, 59583, Control_c, 0, 64, 87
1, 59583, Control_c, 0, 67, 101
1, 59598, Control_c, 0, 64, 88
1, 59598, Control_c, 0, 67, 104
1, 59613, Control_c, 0, 64, 88
1, 59613, Control_c, 0, 67, 108
1, 59628, Control_c, 0, 64, 89
1, 59628, Control_c, 0, 67, 113
1, 59643, Control_c, 0, 67, 120
1, 59657, Control_c, 0, 67, 127
1, 59672, Control_c, 0, 67, 127
1, 59715, Note_on_c, 0, 73, 62
1, 59720, Note_off_c, 0, 66, 59
1, 59723, Note_off_c, 0, 64, 56
1, 59857, Note_on_c, 0, 66, 46
1, 59912, Note_off_c, 0, 66, 55
1, 59933, Note_on_c, 0, 64, 52
1, 60032, Note_on_c, 0, 66, 59
1, 60061, Note_off_c, 0, 64, 36
1, 60140, Control_c, 0, 64, 88
1, 60142, Note_off_c, 0, 66, 63
1, 60155, Note_off_c, 0, 76, 54
1, 60175, Note_off_c, 0, 73, 28
1, 60183, Note_on_c, 0, 64, 48
1, 60228, Control_c, 0, 64, 88
1, 60268, Note_on_c, 0, 66, 64
1, 60288, Control_c, 0, 64, 87
1, 60304, Note_off_c, 0, 64, 39
1, 60332, Control_c, 0, 64, 87
1, 60377, Control_c, 0, 64, 86
1, 60401, Note_on_c, 0, 75, 70
1, 60407, Control_c, 0, 64, 86
1, 60429, Note_on_c, 0, 71, 46
1, 60437, Control_c, 0, 64, 85
1, 60442, Note_off_c, 0, 66, 39
1, 60452, Control_c, 0, 64, 85
1, 60481, Control_c, 0, 64, 84
1, 60511, Control_c, 0, 64, 84
1, 60516, Note_off_c, 0, 71, 49
1, 60525, Control_c, 0, 64, 83
1, 60538, Note_on_c, 0, 66, 59
1, 60540, Control_c, 0, 64, 83
1, 60570, Control_c, 0, 64, 82
1, 60577, Note_off_c, 0, 66, 46
1, 60585, Control_c, 0, 64, 81
1, 60603, Note_off_c, 0, 75, 55
1, 60614, Control_c, 0, 64, 81
1, 60629, Control_c, 0, 64, 80
1, 60644, Control_c, 0, 64, 80
1, 60663, Note_on_c, 0, 63, 48
1, 60674, Control_c, 0, 64, 79
1, 60688, Control_c, 0, 64, 79
1, 60703, Control_c, 0, 64, 78
1, 60732, Control_c, 0, 64, 78
1, 60764, Control_c, 0, 64, 77
1, 60773, Note_off_c, 0, 63, 52
1, 60778, Control_c, 0, 64, 77
1, 60793, Control_c, 0, 64, 76
1, 60823, Control_c, 0, 64, 76
1, 60850, Note_on_c, 0, 75, 63
1, 60860, Control_c, 0, 64, 75
1, 60875, Control_c, 0, 64, 75
1, 60890, Control_c, 0, 64, 74
1, 60905, Control_c, 0, 64, 74
1, 60919, Control_c, 0, 64, 72
1, 60934, Control_c, 0, 64, 69
1, 60949, Control_c, 0, 64, 64
1, 60963, Control_c, 0, 64, 43
1, 60978, Control_c, 0, 64, 0
1, 61019, Note_on_c, 0, 63, 44
1, 61097, Control_c, 0, 64, 56
1, 61111, Control_c, 0, 64, 64
1, 61123, Note_on_c, 0, 66, 41
1, 61126, Control_c, 0, 64, 66
1, 61141, Control_c, 0, 64, 68
1, 61151, Note_off_c, 0, 63, 38
1, 61155, Control_c, 0, 64, 71
1, 61170, Control_c, 0, 64, 74
1, 61185, Control_c, 0, 64, 77
1, 61200, Control_c, 0, 64, 80
1, 61215, Control_c, 0, 64, 81
1, 61230, Control_c, 0, 64, 83
1, 61239, Note_off_c, 0, 66, 42
1, 61245, Control_c, 0, 64, 84
1, 61251, Note_on_c, 0, 71, 40
1, 61260, Control_c, 0, 64, 85
1, 61275, Control_c, 0, 64, 86
1, 61290, Control_c, 0, 64, 87
1, 61304, Control_c, 0, 64, 88
1, 61334, Control_c, 0, 64, 88
1, 61339, Note_off_c, 0, 71, 51
1, 61361, Note_on_c, 0, 66, 43
1, 61363, Control_c, 0, 64, 89
1, 61422, Control_c, 0, 64, 89
1, 61453, Note_off_c, 0, 66, 45
1, 61486, Note_on_c, 0, 63, 28
1, 61533, Note_off_c, 0, 63, 48
1, 61586, Note_on_c, 0, 66, 49
1, 61668, Note_off_c, 0, 66, 47
1, 61689, Note_off_c, 0, 35, 57
1, 61717, Note_on_c, 0, 63, 24
1, 61819, Note_on_c, 0, 66, 35
1, 61919, Note_off_c, 0, 66, 36
1, 61942, Note_on_c, 0, 71, 36
1, 61942, Note_off_c, 0, 63, 36
1, 62068, Note_on_c, 0, 66, 37
1, 62104, Note_off_c, 0, 71, 30
1, 62112, Control_c, 0, 64, 89
1, 62163, Note_off_c, 0, 75, 32
1, 62186, Control_c, 0, 64, 88
1, 62208, Note_on_c, 0, 63, 35
1, 62216, Note_off_c, 0, 66, 43
1, 62245, Control_c, 0, 64, 88
1, 62290, Control_c, 0, 64, 87
1, 62327, Control_c, 0, 64, 87
1, 62372, Control_c, 0, 64, 86
1, 62391, Note_off_c, 0, 63, 37
1, 62401, Control_c, 0, 64, 86
1, 62416, Control_c, 0, 64, 85
1, 62431, Control_c, 0, 64, 85
1, 62437, Note_on_c, 0, 75, 61
1, 62446, Control_c, 0, 64, 84
1, 62461, Control_c, 0, 64, 84
1, 62473, Note_on_c, 0, 54, 32
1, 62476, Control_c, 0, 64, 82
1, 62488, Note_on_c, 0, 47, 31
1, 62491, Control_c, 0, 64, 81
1, 62506, Control_c, 0, 64, 79
1, 62521, Control_c, 0, 64, 76
1, 62536, Control_c, 0, 64, 73
1, 62551, Control_c, 0, 64, 70
1, 62565, Control_c, 0, 64, 65
1, 62580, Control_c, 0, 64, 59
1, 62595, Control_c, 0, 64, 46
1, 62609, Control_c, 0, 64, 39
1, 62624, Control_c, 0, 64, 40
1, 62639, Control_c, 0, 64, 44
1, 62654, Control_c, 0, 64, 50
1, 62669, Control_c, 0, 64, 58
1, 62679, Note_on_c, 0, 63, 22
1, 62683, Control_c, 0, 64, 62
1, 62698, Control_c, 0, 64, 65
1, 62713, Control_c, 0, 64, 69
1, 62727, Control_c, 0, 64, 73
1, 62742, Control_c, 0, 64, 77
1, 62757, Control_c, 0, 64, 81
1, 62772, Control_c, 0, 64, 84
1, 62787, Control_c, 0, 64, 86
1, 62795, Note_on_c, 0, 66, 41
1, 62801, Control_c, 0, 64, 88
1, 62816, Control_c, 0, 64, 90
1, 62831, Control_c, 0, 64, 91
1, 62846, Control_c, 0, 64, 93
1, 62861, Control_c, 0, 64, 93
1, 62875, Note_off_c, 0, 66, 40
1, 62875, Control_c, 0, 64, 94
1, 62886, Note_off_c, 0, 63, 17
1, 62890, Control_c, 0, 64, 94
1, 62901, Note_on_c, 0, 71, 40
1, 62905, Control_c, 0, 64, 95
1, 62920, Control_c, 0, 64, 96
1, 62935, Control_c, 0, 64, 96
1, 62965, Control_c, 0, 64, 97
1, 62989, Note_off_c, 0, 71, 48
1, 63011, Note_on_c, 0, 66, 40
1, 63024, Control_c, 0, 67, 123
1, 63039, Control_c, 0, 67, 114
1, 63054, Control_c, 0, 64, 97
1, 63054, Control_c, 0, 67, 106
1, 63075, Control_c, 0, 67, 102
1, 63081, Note_off_c, 0, 66, 57
1, 63090, Control_c, 0, 67, 101
1, 63120, Control_c, 0, 67, 102
1, 63126, Note_on_c, 0, 63, 35
1, 63135, Control_c, 0, 67, 103
1, 63151, Control_c, 0, 67, 103
1, 63178, Note_off_c, 0, 63, 44
1, 63180, Control_c, 0, 67, 104
1, 63195, Control_c, 0, 67, 104
1, 63210, Control_c, 0, 67, 105
1, 63224, Note_on_c, 0, 66, 43
1, 63224, Control_c, 0, 67, 106
1, 63239, Control_c, 0, 67, 107
1, 63254, Control_c, 0, 67, 108
1, 63269, Control_c, 0, 67, 108
1, 63284, Control_c, 0, 67, 109
1, 63299, Control_c, 0, 67, 111
1, 63302, Note_off_c, 0, 66, 46
1, 63314, Control_c, 0, 67, 112
1, 63329, Control_c, 0, 64, 97
1, 63329, Control_c, 0, 67, 113
1, 63338, Note_on_c, 0, 63, 28
1, 63343, Control_c, 0, 67, 114
1, 63356, Control_c, 0, 67, 115
1, 63371, Control_c, 0, 67, 118
1, 63386, Control_c, 0, 67, 122
1, 63401, Control_c, 0, 67, 127
1, 63416, Control_c, 0, 67, 127
1, 63429, Note_off_c, 0, 63, 34
1, 63440, Note_on_c, 0, 66, 37
1, 63519, Control_c, 0, 64, 96
1, 63523, Note_off_c, 0, 66, 40
1, 63560, Note_on_c, 0, 71, 36
1, 63560, Note_off_c, 0, 75, 35
1, 63564, Control_c, 0, 64, 96
1, 63594, Control_c, 0, 64, 95
1, 63618, Note_off_c, 0, 47, 39
1, 63627, Note_off_c, 0, 71, 38
1, 63638, Control_c, 0, 64, 95
1, 63659, Note_on_c, 0, 66, 34
1, 63668, Control_c, 0, 64, 94
1, 63683, Control_c, 0, 64, 94
1, 63712, Control_c, 0, 64, 93
1, 63729, Note_off_c, 0, 66, 44
1, 63742, Control_c, 0, 64, 93
1, 63771, Control_c, 0, 64, 92
1, 63775, Note_on_c, 0, 63, 38
1, 63786, Control_c, 0, 64, 92
1, 63801, Control_c, 0, 64, 91
1, 63838, Control_c, 0, 64, 91
1, 63853, Control_c, 0, 64, 90
1, 63868, Control_c, 0, 64, 90
1, 63883, Control_c, 0, 64, 89
1, 63898, Control_c, 0, 64, 89
1, 63912, Control_c, 0, 64, 88
1, 63927, Control_c, 0, 64, 87
1, 63928, Note_off_c, 0, 63, 34
1, 63942, Note_on_c, 0, 75, 57
1, 63942, Control_c, 0, 64, 86
1, 63958, Control_c, 0, 64, 83
1, 63972, Control_c, 0, 64, 80
1, 63975, Note_on_c, 0, 47, 35
1, 63976, Note_on_c, 0, 56, 32
1, 63987, Control_c, 0, 64, 77
1, 64002, Control_c, 0, 64, 73
1, 64017, Control_c, 0, 64, 68
1, 64032, Control_c, 0, 64, 63
1, 64046, Control_c, 0, 64, 50
1, 64061, Control_c, 0, 64, 53
1, 64076, Control_c, 0, 64, 59
1, 64091, Control_c, 0, 64, 61
1, 64107, Control_c, 0, 64, 63
1, 64113, Note_on_c, 0, 68, 18
1, 64121, Control_c, 0, 64, 65
1, 64136, Control_c, 0, 64, 68
1, 64151, Control_c, 0, 64, 73
1, 64166, Control_c, 0, 64, 76
1, 64180, Note_off_c, 0, 68, 39
1, 64180, Control_c, 0, 64, 79
1, 64193, Note_off_c, 0, 75, 37
1, 64195, Control_c, 0, 64, 81
1, 64210, Control_c, 0, 64, 82
1, 64219, Note_on_c, 0, 65, 35
1, 64225, Control_c, 0, 64, 84
1, 64240, Control_c, 0, 64, 85
1, 64254, Control_c, 0, 64, 86
1, 64269, Control_c, 0, 64, 87
1, 64284, Control_c, 0, 64, 87
1, 64321, Note_on_c, 0, 74, 59
1, 64346, Note_off_c, 0, 65, 36
1, 64369, Note_off_c, 0, 54, 37
1, 64387, Control_c, 0, 64, 88
1, 64440, Note_on_c, 0, 68, 49
1, 64449, Note_off_c, 0, 74, 51
1, 64476, Control_c, 0, 64, 88
1, 64499, Note_off_c, 0, 68, 60
1, 64521, Control_c, 0, 64, 89
1, 64549, Note_on_c, 0, 65, 45
1, 64636, Note_off_c, 0, 56, 37
1, 64644, Note_off_c, 0, 65, 39
1, 64663, Note_on_c, 0, 71, 62
1, 64684, Note_on_c, 0, 53, 39
1, 64780, Note_on_c, 0, 65, 52
1, 64858, Note_off_c, 0, 65, 51
1, 64902, Note_on_c, 0, 62, 40
1, 64967, Note_off_c, 0, 62, 40
1, 64980, Note_off_c, 0, 71, 58
1, 64996, Note_on_c, 0, 68, 66
1, 65072, Note_off_c, 0, 47, 39
1, 65107, Control_c, 0, 64, 88
1, 65159, Note_on_c, 0, 65, 35
1, 65166, Control_c, 0, 64, 88
1, 65195, Control_c, 0, 64, 87
1, 65209, Note_off_c, 0, 65, 47
1, 65210, Control_c, 0, 64, 87
1, 65240, Control_c, 0, 64, 86
1, 65255, Control_c, 0, 64, 86
1, 65268, Note_on_c, 0, 61, 40
1, 65269, Control_c, 0, 64, 85
1, 65299, Control_c, 0, 64, 84
1, 65321, Control_c, 0, 64, 84
1, 65336, Control_c, 0, 64, 83
1, 65341, Note_off_c, 0, 61, 40
1, 65351, Control_c, 0, 64, 83
1, 65366, Control_c, 0, 64, 82
1, 65381, Control_c, 0, 64, 82
1, 65396, Control_c, 0, 64, 81
1, 65425, Control_c, 0, 64, 80
1, 65440, Control_c, 0, 64, 80
1, 65455, Control_c, 0, 64, 78
1, 65463, Note_on_c, 0, 73, 63
1, 65470, Control_c, 0, 64, 77
1, 65484, Control_c, 0, 64, 75
1, 65499, Control_c, 0, 64, 73
1, 65500, Note_off_c, 0, 53, 36
1, 65514, Note_on_c, 0, 54, 30
1, 65514, Control_c, 0, 64, 70
1, 65520, Note_on_c, 0, 46, 34
1, 65528, Control_c, 0, 64, 65
1, 65543, Control_c, 0, 64, 54
1, 65551, Note_off_c, 0, 68, 30
1, 65559, Control_c, 0, 64, 0
1, 65677, Control_c, 0, 64, 46
1, 65692, Control_c, 0, 64, 59
1, 65699, Note_on_c, 0, 61, 26
1, 65707, Control_c, 0, 64, 63
1, 65722, Control_c, 0, 64, 66
1, 65737, Control_c, 0, 64, 68
1, 65751, Control_c, 0, 64, 72
1, 65766, Control_c, 0, 64, 76
1, 65781, Control_c, 0, 64, 79
1, 65796, Control_c, 0, 64, 82
1, 65796, Control_c, 0, 67, 126
1, 65803, Note_off_c, 0, 61, 37
1, 65809, Note_on_c, 0, 66, 35
1, 65811, Control_c, 0, 64, 83
1, 65811, Control_c, 0, 67, 123
1, 65825, Control_c, 0, 64, 85
1, 65825, Control_c, 0, 67, 121
1, 65840, Control_c, 0, 64, 87
1, 65840, Control_c, 0, 67, 118
1, 65855, Control_c, 0, 64, 88
1, 65855, Control_c, 0, 67, 115
1, 65870, Control_c, 0, 64, 89
1, 65870, Control_c, 0, 67, 109
1, 65885, Control_c, 0, 67, 103
1, 65899, Control_c, 0, 67, 97
1, 65908, Note_on_c, 0, 70, 41
1, 65914, Control_c, 0, 67, 95
1, 65916, Note_off_c, 0, 66, 38
1, 65929, Control_c, 0, 67, 94
1, 65973, Control_c, 0, 67, 95
1, 65988, Control_c, 0, 67, 95
1, 66003, Control_c, 0, 67, 96
1, 66005, Note_off_c, 0, 70, 47
1, 66017, Control_c, 0, 67, 97
1, 66032, Control_c, 0, 67, 98
1, 66041, Note_on_c, 0, 66, 42
1, 66047, Control_c, 0, 67, 99
1, 66070, Control_c, 0, 67, 100
1, 66084, Note_off_c, 0, 66, 52
1, 66085, Control_c, 0, 67, 101
1, 66099, Control_c, 0, 67, 102
1, 66114, Control_c, 0, 67, 103
1, 66129, Control_c, 0, 67, 104
1, 66138, Note_on_c, 0, 61, 30
1, 66143, Control_c, 0, 67, 105
1, 66158, Control_c, 0, 67, 106
1, 66173, Control_c, 0, 67, 107
1, 66179, Note_off_c, 0, 61, 48
1, 66188, Control_c, 0, 67, 109
1, 66203, Control_c, 0, 67, 110
1, 66218, Control_c, 0, 67, 111
1, 66223, Note_on_c, 0, 66, 41
1, 66232, Control_c, 0, 67, 113
1, 66247, Control_c, 0, 67, 116
1, 66262, Control_c, 0, 67, 117
1, 66277, Control_c, 0, 67, 117
1, 66292, Control_c, 0, 67, 118
1, 66306, Control_c, 0, 67, 120
1, 66312, Note_off_c, 0, 66, 50
1, 66321, Control_c, 0, 67, 123
1, 66329, Note_on_c, 0, 61, 39
1, 66336, Control_c, 0, 67, 127
1, 66352, Control_c, 0, 67, 127
1, 66420, Note_off_c, 0, 61, 46
1, 66447, Note_on_c, 0, 66, 44
1, 66500, Control_c, 0, 64, 88
1, 66501, Note_off_c, 0, 73, 31
1, 66516, Note_off_c, 0, 66, 45
1, 66551, Note_on_c, 0, 70, 43
1, 66560, Control_c, 0, 64, 88
1, 66604, Control_c, 0, 64, 87
1, 66614, Note_off_c, 0, 70, 47
1, 66648, Control_c, 0, 64, 87
1, 66649, Note_on_c, 0, 66, 47
1, 66674, Note_off_c, 0, 46, 33
1, 66708, Control_c, 0, 64, 86
1, 66734, Note_off_c, 0, 66, 35
1, 66737, Control_c, 0, 64, 86
1, 66756, Note_on_c, 0, 61, 46
1, 66766, Control_c, 0, 64, 85
1, 66819, Control_c, 0, 64, 85
1, 66848, Control_c, 0, 64, 84
1, 66878, Control_c, 0, 64, 84
1, 66892, Control_c, 0, 64, 83
1, 66907, Control_c, 0, 64, 83
1, 66918, Note_on_c, 0, 73, 56
1, 66922, Control_c, 0, 64, 82
1, 66935, Note_on_c, 0, 55, 43
1, 66937, Control_c, 0, 64, 80
1, 66952, Note_on_c, 0, 47, 41
1, 66952, Note_off_c, 0, 61, 28
1, 66952, Control_c, 0, 64, 78
1, 66966, Control_c, 0, 64, 75
1, 66981, Control_c, 0, 64, 71
1, 66996, Control_c, 0, 64, 67
1, 67011, Control_c, 0, 64, 60
1, 67020, Note_off_c, 0, 54, 21
1, 67026, Control_c, 0, 64, 50
1, 67040, Control_c, 0, 64, 54
1, 67055, Control_c, 0, 64, 60
1, 67070, Control_c, 0, 64, 63
1, 67084, Note_on_c, 0, 67, 38
1, 67085, Control_c, 0, 64, 64
1, 67100, Control_c, 0, 64, 66
1, 67115, Control_c, 0, 64, 70
1, 67130, Control_c, 0, 64, 74
1, 67146, Control_c, 0, 64, 77
1, 67161, Control_c, 0, 64, 78
1, 67166, Note_off_c, 0, 67, 58
1, 67176, Control_c, 0, 64, 79
1, 67183, Note_on_c, 0, 63, 47
1, 67191, Control_c, 0, 64, 79
1, 67250, Control_c, 0, 64, 79
1, 67265, Control_c, 0, 64, 78
1, 67279, Control_c, 0, 64, 77
1, 67291, Note_off_c, 0, 73, 59
1, 67294, Control_c, 0, 64, 75
1, 67299, Note_on_c, 0, 71, 57
1, 67299, Note_on_c, 0, 56, 49
1, 67309, Control_c, 0, 64, 70
1, 67319, Note_off_c, 0, 63, 42
1, 67324, Control_c, 0, 64, 65
1, 67339, Control_c, 0, 64, 57
1, 67353, Control_c, 0, 64, 53
1, 67368, Control_c, 0, 64, 58
1, 67383, Control_c, 0, 64, 60
1, 67393, Note_on_c, 0, 68, 51
1, 67397, Control_c, 0, 64, 63
1, 67409, Note_off_c, 0, 55, 36
1, 67412, Control_c, 0, 64, 65
1, 67427, Control_c, 0, 64, 66
1, 67442, Control_c, 0, 64, 68
1, 67443, Note_off_c, 0, 68, 59
1, 67457, Control_c, 0, 64, 71
1, 67468, Note_off_c, 0, 71, 0
1, 67472, Control_c, 0, 64, 73
1, 67487, Control_c, 0, 64, 75
1, 67491, Note_on_c, 0, 63, 55
1, 67502, Control_c, 0, 64, 76
1, 67549, Note_off_c, 0, 63, 50
1, 67570, Poly_aftertouch_c, 0, 71, 0
1, 67583, Control_c, 0, 64, 75
1, 67597, Control_c, 0, 64, 75
1, 67612, Control_c, 0, 64, 73
1, 67616, Note_on_c, 0, 68, 57
1, 67617, Poly_aftertouch_c, 0, 71, 0
1, 67627, Control_c, 0, 64, 69
1, 67631, Note_off_c, 0, 56, 61
1, 67642, Control_c, 0, 64, 64
1, 67646, Note_off_c, 0, 68, 50
1, 67651, Note_on_c, 0, 51, 39
1, 67657, Control_c, 0, 64, 52
1, 67672, Control_c, 0, 64, 51
1, 67687, Control_c, 0, 64, 58
1, 67702, Control_c, 0, 64, 61
1, 67716, Control_c, 0, 64, 64
1, 67731, Control_c, 0, 64, 65
1, 67740, Note_on_c, 0, 63, 52
1, 67746, Control_c, 0, 64, 67
1, 67761, Control_c, 0, 64, 70
1, 67776, Control_c, 0, 64, 72
1, 67786, Note_off_c, 0, 63, 61
1, 67790, Control_c, 0, 64, 73
1, 67831, Note_on_c, 0, 68, 33
1, 67852, Note_on_c, 0, 59, 45
1, 67887, Note_off_c, 0, 59, 48
1, 67909, Control_c, 0, 64, 73
1, 67923, Control_c, 0, 64, 72
1, 67939, Control_c, 0, 64, 70
1, 67952, Note_off_c, 0, 47, 40
1, 67954, Control_c, 0, 64, 66
1, 67967, Note_on_c, 0, 63, 57
1, 67969, Control_c, 0, 64, 58
1, 67980, Note_off_c, 0, 68, 39
1, 67984, Control_c, 0, 64, 44
1, 67994, Note_on_c, 0, 48, 36
1, 67999, Control_c, 0, 64, 43
1, 68013, Control_c, 0, 64, 47
1, 68028, Control_c, 0, 64, 50
1, 68043, Control_c, 0, 64, 55
1, 68058, Control_c, 0, 64, 60
1, 68073, Control_c, 0, 64, 63
1, 68087, Control_c, 0, 64, 65
1, 68102, Control_c, 0, 64, 68
1, 68113, Note_on_c, 0, 59, 40
1, 68117, Control_c, 0, 64, 71
1, 68132, Control_c, 0, 64, 74
1, 68146, Control_c, 0, 64, 76
1, 68161, Control_c, 0, 64, 77
1, 68218, Note_on_c, 0, 56, 53
1, 68280, Control_c, 0, 64, 76
1, 68310, Control_c, 0, 64, 76
1, 68352, Note_off_c, 0, 48, 41
1, 68361, Control_c, 0, 64, 75
1, 68376, Control_c, 0, 64, 74
1, 68391, Control_c, 0, 64, 73
1, 68406, Control_c, 0, 64, 72
1, 68412, Note_off_c, 0, 59, 30
1, 68416, Note_on_c, 0, 66, 59
1, 68419, Note_off_c, 0, 56, 21
1, 68420, Control_c, 0, 64, 70
1, 68429, Note_off_c, 0, 63, 41
1, 68435, Control_c, 0, 64, 68
1, 68450, Control_c, 0, 64, 65
1, 68452, Note_off_c, 0, 51, 36
1, 68459, Note_on_c, 0, 49, 29
1, 68465, Control_c, 0, 64, 62
1, 68480, Control_c, 0, 64, 57
1, 68494, Control_c, 0, 64, 51
1, 68509, Control_c, 0, 64, 46
1, 68524, Control_c, 0, 64, 39
1, 68539, Control_c, 0, 64, 0
1, 68651, Note_on_c, 0, 54, 32
1, 68702, Control_c, 0, 64, 14
1, 68717, Control_c, 0, 64, 56
1, 68732, Control_c, 0, 64, 64
1, 68748, Control_c, 0, 64, 65
1, 68762, Control_c, 0, 64, 67
1, 68775, Note_off_c, 0, 54, 29
1, 68777, Control_c, 0, 64, 69
1, 68778, Note_on_c, 0, 58, 21
1, 68792, Control_c, 0, 64, 71
1, 68807, Control_c, 0, 64, 74
1, 68822, Control_c, 0, 64, 76
1, 68837, Control_c, 0, 64, 78
1, 68838, Note_off_c, 0, 58, 44
1, 68851, Control_c, 0, 64, 80
1, 68861, Note_on_c, 0, 61, 41
1, 68866, Control_c, 0, 64, 81
1, 68881, Control_c, 0, 64, 83
1, 68896, Control_c, 0, 64, 84
1, 68910, Control_c, 0, 64, 85
1, 68925, Control_c, 0, 64, 86
1, 68940, Control_c, 0, 64, 86
1, 68942, Note_off_c, 0, 61, 48
1, 68955, Control_c, 0, 64, 87
1, 68969, Control_c, 0, 64, 87
1, 68970, Note_on_c, 0, 58, 41
1, 68999, Control_c, 0, 64, 88
1, 69076, Note_off_c, 0, 58, 38
1, 69098, Note_on_c, 0, 54, 31
1, 69111, Control_c, 0, 67, 126
1, 69125, Control_c, 0, 67, 125
1, 69140, Control_c, 0, 67, 124
1, 69150, Note_off_c, 0, 54, 43
1, 69155, Control_c, 0, 67, 122
1, 69169, Control_c, 0, 67, 121
1, 69184, Control_c, 0, 67, 119
1, 69199, Control_c, 0, 67, 119
1, 69202, Note_on_c, 0, 58, 42
1, 69262, Note_off_c, 0, 58, 39
1, 69273, Control_c, 0, 67, 119
1, 69288, Control_c, 0, 67, 120
1, 69302, Control_c, 0, 67, 121
1, 69305, Note_on_c, 0, 54, 37
1, 69317, Control_c, 0, 67, 122
1, 69332, Control_c, 0, 67, 123
1, 69347, Control_c, 0, 67, 124
1, 69362, Control_c, 0, 67, 125
1, 69376, Control_c, 0, 67, 127
1, 69391, Control_c, 0, 67, 127
1, 69406, Control_c, 0, 64, 87
1, 69412, Note_on_c, 0, 58, 40
1, 69450, Control_c, 0, 64, 87
1, 69494, Control_c, 0, 64, 86
1, 69509, Control_c, 0, 64, 86
1, 69510, Note_off_c, 0, 66, 42
1, 69517, Note_off_c, 0, 54, 35
1, 69529, Note_on_c, 0, 61, 43
1, 69535, Note_off_c, 0, 58, 41
1, 69540, Control_c, 0, 64, 85
1, 69591, Note_off_c, 0, 61, 49
1, 69599, Control_c, 0, 64, 85
1, 69614, Control_c, 0, 64, 84
1, 69629, Control_c, 0, 64, 84
1, 69644, Control_c, 0, 64, 83
1, 69652, Note_off_c, 0, 49, 33
1, 69658, Control_c, 0, 64, 83
1, 69664, Note_on_c, 0, 58, 27
1, 69673, Control_c, 0, 64, 82
1, 69694, Note_off_c, 0, 58, 53
1, 69703, Control_c, 0, 64, 82
1, 69732, Control_c, 0, 64, 81
1, 69743, Note_on_c, 0, 54, 36
1, 69747, Control_c, 0, 64, 81
1, 69748, Note_on_c, 0, 37, 33
1, 69777, Control_c, 0, 64, 80
1, 69791, Control_c, 0, 64, 80
1, 69814, Control_c, 0, 64, 79
1, 69829, Control_c, 0, 64, 79
1, 69844, Control_c, 0, 64, 78
1, 69859, Control_c, 0, 64, 77
1, 69873, Control_c, 0, 64, 76
1, 69888, Control_c, 0, 64, 75
1, 69897, Note_on_c, 0, 66, 59
1, 69903, Control_c, 0, 64, 73
1, 69917, Control_c, 0, 64, 71
1, 69919, Note_on_c, 0, 49, 38
1, 69932, Control_c, 0, 64, 68
1, 69938, Note_off_c, 0, 54, 35
1, 69947, Control_c, 0, 64, 64
1, 69962, Control_c, 0, 64, 58
1, 69977, Control_c, 0, 64, 42
1, 69991, Control_c, 0, 64, 23
1, 70006, Control_c, 0, 64, 34
1, 70021, Control_c, 0, 64, 47
1, 70036, Control_c, 0, 64, 56
1, 70038, Note_on_c, 0, 59, 40
1, 70051, Control_c, 0, 64, 61
1, 70065, Control_c, 0, 64, 64
1, 70080, Control_c, 0, 64, 67
1, 70095, Control_c, 0, 64, 70
1, 70110, Control_c, 0, 64, 73
1, 70125, Control_c, 0, 64, 75
1, 70137, Note_on_c, 0, 56, 45
1, 70140, Control_c, 0, 64, 77
1, 70155, Control_c, 0, 64, 79
1, 70170, Control_c, 0, 64, 81
1, 70180, Note_off_c, 0, 37, 41
1, 70185, Control_c, 0, 64, 82
1, 70199, Control_c, 0, 64, 83
1, 70214, Control_c, 0, 64, 83
1, 70247, Note_off_c, 0, 59, 33
1, 70259, Note_on_c, 0, 65, 64
1, 70265, Note_off_c, 0, 56, 29
1, 70292, Note_off_c, 0, 66, 35
1, 70363, Control_c, 0, 64, 83
1, 70375, Note_on_c, 0, 59, 53
1, 70407, Control_c, 0, 64, 82
1, 70437, Control_c, 0, 64, 82
1, 70452, Control_c, 0, 64, 81
1, 70459, Note_off_c, 0, 59, 54
1, 70467, Control_c, 0, 64, 81
1, 70481, Control_c, 0, 64, 80
1, 70496, Control_c, 0, 64, 79
1, 70511, Control_c, 0, 64, 78
1, 70526, Control_c, 0, 64, 78
1, 70530, Note_on_c, 0, 56, 37
1, 70540, Control_c, 0, 64, 77
1, 70563, Control_c, 0, 64, 76
1, 70578, Control_c, 0, 64, 74
1, 70587, Note_off_c, 0, 56, 44
1, 70593, Control_c, 0, 64, 73
1, 70608, Control_c, 0, 64, 71
1, 70622, Control_c, 0, 64, 69
1, 70637, Control_c, 0, 64, 65
1, 70652, Control_c, 0, 64, 61
1, 70660, Note_on_c, 0, 70, 60
1, 70667, Control_c, 0, 64, 50
1, 70682, Control_c, 0, 64, 34
1, 70683, Note_off_c, 0, 65, 29
1, 70691, Note_on_c, 0, 54, 33
1, 70696, Control_c, 0, 64, 14
1, 70726, Control_c, 0, 64, 32
1, 70740, Control_c, 0, 64, 47
1, 70755, Control_c, 0, 64, 59
1, 70770, Control_c, 0, 64, 63
1, 70785, Control_c, 0, 64, 66
1, 70800, Control_c, 0, 64, 68
1, 70804, Note_on_c, 0, 61, 39
1, 70814, Control_c, 0, 64, 71
1, 70829, Control_c, 0, 64, 72
1, 70845, Control_c, 0, 64, 74
1, 70860, Control_c, 0, 64, 74
1, 70873, Note_off_c, 0, 61, 54
1, 70875, Control_c, 0, 64, 75
1, 70928, Note_on_c, 0, 59, 33
1, 70963, Control_c, 0, 64, 74
1, 70976, Note_off_c, 0, 59, 43
1, 70978, Control_c, 0, 64, 74
1, 70993, Control_c, 0, 64, 72
1, 71008, Control_c, 0, 64, 69
1, 71022, Control_c, 0, 64, 66
1, 71037, Note_off_c, 0, 70, 53
1, 71037, Control_c, 0, 64, 61
1, 71049, Note_on_c, 0, 68, 52
1, 71052, Control_c, 0, 64, 58
1, 71067, Note_on_c, 0, 53, 33
1, 71067, Control_c, 0, 64, 59
1, 71072, Note_off_c, 0, 54, 37
1, 71082, Control_c, 0, 64, 60
1, 71097, Control_c, 0, 64, 62
1, 71112, Control_c, 0, 64, 64
1, 71127, Control_c, 0, 64, 65
1, 71142, Control_c, 0, 64, 67
1, 71157, Control_c, 0, 64, 69
1, 71171, Control_c, 0, 64, 71
1, 71186, Control_c, 0, 64, 73
1, 71198, Note_on_c, 0, 61, 42
1, 71201, Control_c, 0, 64, 74
1, 71216, Control_c, 0, 64, 76
1, 71220, Note_off_c, 0, 49, 51
1, 71231, Control_c, 0, 64, 77
1, 71246, Control_c, 0, 64, 78
1, 71261, Note_off_c, 0, 61, 48
1, 71261, Control_c, 0, 64, 78
1, 71276, Control_c, 0, 64, 79
1, 71291, Control_c, 0, 64, 79
1, 71359, Note_on_c, 0, 59, 39
1, 71412, Note_off_c, 0, 59, 42
1, 71475, Control_c, 0, 64, 79
1, 71505, Control_c, 0, 64, 78
1, 71520, Control_c, 0, 64, 78
1, 71535, Control_c, 0, 64, 77
1, 71550, Control_c, 0, 64, 77
1, 71559, Note_off_c, 0, 68, 42
1, 71564, Note_on_c, 0, 66, 55
1, 71564, Control_c, 0, 64, 76
1, 71579, Control_c, 0, 64, 75
1, 71594, Control_c, 0, 64, 73
1, 71600, Note_on_c, 0, 49, 26
1, 71607, Note_on_c, 0, 42, 37
1, 71609, Control_c, 0, 64, 72
1, 71624, Control_c, 0, 64, 70
1, 71638, Control_c, 0, 64, 69
1, 71653, Control_c, 0, 64, 68
1, 71660, Note_off_c, 0, 53, 29
1, 71668, Control_c, 0, 64, 66
1, 71682, Control_c, 0, 64, 65
1, 71697, Control_c, 0, 64, 63
1, 71712, Control_c, 0, 64, 61
1, 71727, Control_c, 0, 64, 56
1, 71742, Control_c, 0, 64, 50
1, 71756, Control_c, 0, 64, 42
1, 71771, Control_c, 0, 64, 33
1, 71786, Control_c, 0, 64, 28
1, 71801, Control_c, 0, 64, 32
1, 71816, Control_c, 0, 64, 39
1, 71831, Control_c, 0, 64, 48
1, 71833, Note_on_c, 0, 54, 33
1, 71845, Control_c, 0, 64, 56
1, 71860, Control_c, 0, 64, 61
1, 71875, Control_c, 0, 64, 63
1, 71890, Control_c, 0, 64, 65
1, 71905, Control_c, 0, 64, 67
1, 71920, Control_c, 0, 64, 69
1, 71935, Control_c, 0, 64, 72
1, 71950, Control_c, 0, 64, 75
1, 71965, Control_c, 0, 64, 78
1, 71974, Note_on_c, 0, 58, 35
1, 71980, Control_c, 0, 64, 80
1, 71992, Note_off_c, 0, 54, 33
1, 71994, Control_c, 0, 64, 82
1, 72009, Control_c, 0, 64, 83
1, 72024, Control_c, 0, 64, 85
1, 72039, Control_c, 0, 64, 86
1, 72044, Note_off_c, 0, 58, 52
1, 72054, Control_c, 0, 64, 87
1, 72076, Control_c, 0, 64, 88
1, 72091, Control_c, 0, 64, 89
1, 72095, Note_on_c, 0, 61, 37
1, 72106, Control_c, 0, 64, 89
1, 72135, Control_c, 0, 64, 90
1, 72206, Note_on_c, 0, 58, 38
1, 72220, Note_off_c, 0, 61, 36
1, 72224, Control_c, 0, 64, 90
1, 72270, Note_off_c, 0, 58, 47
1, 72337, Note_on_c, 0, 54, 14
1, 72383, Note_off_c, 0, 54, 48
1, 72410, Note_on_c, 0, 58, 42
1, 72489, Note_off_c, 0, 58, 54
1, 72514, Note_on_c, 0, 54, 40
1, 72565, Control_c, 0, 64, 91
1, 72624, Control_c, 0, 64, 91
1, 72628, Note_on_c, 0, 58, 47
1, 72653, Control_c, 0, 64, 92
1, 72694, Note_off_c, 0, 54, 27
1, 72698, Control_c, 0, 64, 92
1, 72734, Note_off_c, 0, 58, 52
1, 72747, Note_on_c, 0, 61, 44
1, 72773, Control_c, 0, 64, 93
1, 72840, Control_c, 0, 64, 93
1, 72874, Note_on_c, 0, 58, 51
1, 72899, Control_c, 0, 64, 94
1, 72925, Note_off_c, 0, 58, 59
1, 72963, Note_on_c, 0, 54, 56
1, 73067, Note_off_c, 0, 54, 53
1, 73080, Note_on_c, 0, 58, 57
1, 73091, Control_c, 0, 64, 94
1, 73177, Note_off_c, 0, 58, 62
1, 73186, Note_on_c, 0, 54, 66
1, 73297, Note_on_c, 0, 58, 67
1, 73312, Note_off_c, 0, 61, 40
1, 73405, Note_on_c, 0, 61, 67
1, 73435, Note_off_c, 0, 58, 60
1, 73452, Note_off_c, 0, 54, 41
1, 73499, Note_off_c, 0, 42, 40
1, 73537, Control_c, 0, 64, 94
1, 73540, Note_on_c, 0, 58, 70
1, 73589, Control_c, 0, 64, 93
1, 73619, Control_c, 0, 64, 93
1, 73631, Note_off_c, 0, 58, 60
1, 73637, Note_on_c, 0, 54, 72
1, 73663, Control_c, 0, 64, 92
1, 73678, Control_c, 0, 64, 92
1, 73693, Control_c, 0, 64, 91
1, 73707, Control_c, 0, 64, 91
1, 73722, Control_c, 0, 64, 89
1, 73737, Control_c, 0, 64, 88
1, 73752, Control_c, 0, 64, 86
1, 73764, Note_on_c, 0, 50, 79
1, 73766, Control_c, 0, 64, 84
1, 73771, Note_on_c, 0, 58, 74
1, 73778, Note_on_c, 0, 41, 65
1, 73780, Note_off_c, 0, 54, 56
1, 73781, Control_c, 0, 64, 81
1, 73796, Control_c, 0, 64, 77
1, 73811, Control_c, 0, 64, 70
1, 73826, Control_c, 0, 64, 60
1, 73827, Note_off_c, 0, 49, 39
1, 73840, Control_c, 0, 64, 0
1, 73895, Note_on_c, 0, 54, 74
1, 73897, Note_off_c, 0, 58, 62
1, 73914, Control_c, 0, 67, 126
1, 73929, Control_c, 0, 67, 124
1, 73944, Control_c, 0, 64, 18
1, 73944, Control_c, 0, 67, 122
1, 73958, Control_c, 0, 64, 61
1, 73958, Control_c, 0, 67, 118
1, 73973, Control_c, 0, 64, 66
1, 73973, Control_c, 0, 67, 115
1, 73988, Control_c, 0, 64, 69
1, 73988, Control_c, 0, 67, 111
1, 74003, Control_c, 0, 64, 73
1, 74003, Control_c, 0, 67, 108
1, 74018, Control_c, 0, 64, 76
1, 74018, Control_c, 0, 67, 107
1, 74022, Note_on_c, 0, 58, 77
1, 74033, Control_c, 0, 64, 80
1, 74033, Control_c, 0, 67, 105
1, 74048, Control_c, 0, 64, 82
1, 74048, Control_c, 0, 67, 103
1, 74048, Note_off_c, 0, 66, 54
1, 74063, Control_c, 0, 64, 84
1, 74063, Control_c, 0, 67, 102
1, 74078, Control_c, 0, 64, 85
1, 74078, Control_c, 0, 67, 101
1, 74092, Control_c, 0, 64, 86
1, 74096, Note_off_c, 0, 54, 36
1, 74107, Control_c, 0, 64, 87
1, 74107, Control_c, 0, 67, 100
1, 74122, Control_c, 0, 64, 88
1, 74122, Control_c, 0, 67, 100
1, 74123, Note_off_c, 0, 61, 50
1, 74137, Control_c, 0, 64, 89
1, 74137, Control_c, 0, 67, 99
1, 74152, Control_c, 0, 64, 90
1, 74152, Control_c, 0, 67, 97
1, 74155, Note_on_c, 0, 62, 86
1, 74166, Control_c, 0, 64, 91
1, 74166, Control_c, 0, 67, 94
1, 74169, Note_off_c, 0, 58, 58
1, 74181, Control_c, 0, 67, 89
1, 74196, Control_c, 0, 64, 91
1, 74196, Control_c, 0, 67, 84
1, 74211, Control_c, 0, 64, 92
1, 74211, Control_c, 0, 67, 77
1, 74226, Control_c, 0, 64, 92
1, 74226, Control_c, 0, 67, 68
1, 74240, Control_c, 0, 64, 93
1, 74240, Control_c, 0, 67, 56
1, 74255, Control_c, 0, 64, 93
1, 74255, Control_c, 0, 67, 48
1, 74270, Control_c, 0, 64, 94
1, 74270, Control_c, 0, 67, 45
1, 74275, Note_off_c, 0, 41, 57
1, 74290, Note_off_c, 0, 50, 60
1, 74293, Note_on_c, 0, 58, 73
1, 74307, Control_c, 0, 64, 94
1, 74446, Note_on_c, 0, 54, 85
1, 74450, Note_off_c, 0, 58, 58
1, 74456, Control_c, 0, 67, 45
1, 74471, Control_c, 0, 67, 44
1, 74482, Note_off_c, 0, 62, 58
1, 74486, Control_c, 0, 64, 94
1, 74491, Note_off_c, 0, 54, 61
1, 74560, Control_c, 0, 67, 44
1, 74575, Control_c, 0, 64, 93
1, 74589, Control_c, 0, 64, 93
1, 74604, Control_c, 0, 64, 92
1, 74619, Control_c, 0, 64, 92
1, 74634, Control_c, 0, 64, 91
1, 74649, Control_c, 0, 64, 90
1, 74649, Control_c, 0, 67, 43
1, 74663, Control_c, 0, 64, 90
1, 74678, Control_c, 0, 64, 89
1, 74678, Control_c, 0, 67, 43
1, 74688, Note_on_c, 0, 51, 73
1, 74693, Control_c, 0, 64, 88
1, 74695, Note_on_c, 0, 39, 64
1, 74707, Control_c, 0, 64, 87
1, 74707, Control_c, 0, 67, 42
1, 74722, Control_c, 0, 64, 85
1, 74722, Control_c, 0, 67, 40
1, 74737, Control_c, 0, 64, 82
1, 74737, Control_c, 0, 67, 39
1, 74752, Control_c, 0, 64, 79
1, 74752, Control_c, 0, 67, 38
1, 74764, Note_on_c, 0, 70, 86
1, 74767, Control_c, 0, 64, 74
1, 74767, Control_c, 0, 67, 37
1, 74781, Control_c, 0, 64, 69
1, 74781, Control_c, 0, 67, 37
1, 74796, Control_c, 0, 64, 64
1, 74811, Control_c, 0, 64, 43
1, 74811, Control_c, 0, 67, 36
1, 74826, Control_c, 0, 64, 0
1, 74826, Control_c, 0, 67, 36
1, 74930, Control_c, 0, 67, 35
1, 74960, Control_c, 0, 67, 35
1, 74975, Control_c, 0, 64, 43
1, 74989, Control_c, 0, 64, 62
1, 75004, Control_c, 0, 64, 66
1, 75019, Control_c, 0, 64, 68
1, 75019, Control_c, 0, 67, 34
1, 75034, Control_c, 0, 64, 71
1, 75034, Control_c, 0, 67, 33
1, 75049, Control_c, 0, 64, 74
1, 75049, Control_c, 0, 67, 32
1, 75067, Note_on_c, 0, 58, 38
1, 75070, Control_c, 0, 64, 77
1, 75070, Control_c, 0, 67, 31
1, 75085, Control_c, 0, 64, 80
1, 75085, Control_c, 0, 67, 30
1, 75100, Control_c, 0, 64, 83
1, 75115, Control_c, 0, 64, 84
1, 75115, Control_c, 0, 67, 30
1, 75130, Control_c, 0, 64, 86
1, 75145, Control_c, 0, 64, 87
1, 75160, Control_c, 0, 64, 88
1, 75160, Control_c, 0, 67, 29
1, 75175, Control_c, 0, 64, 88
1, 75175, Control_c, 0, 67, 29
1, 75190, Control_c, 0, 64, 89
1, 75190, Control_c, 0, 67, 28
1, 75200, Note_on_c, 0, 63, 57
1, 75204, Control_c, 0, 64, 90
1, 75219, Control_c, 0, 64, 91
1, 75219, Control_c, 0, 67, 27
1, 75234, Control_c, 0, 64, 92
1, 75249, Control_c, 0, 64, 93
1, 75264, Control_c, 0, 64, 94
1, 75279, Control_c, 0, 64, 94
1, 75279, Control_c, 0, 67, 27
1, 75294, Control_c, 0, 64, 95
1, 75303, Note_off_c, 0, 63, 60
1, 75303, Note_on_c, 0, 66, 62
1, 75309, Control_c, 0, 64, 95
1, 75318, Note_off_c, 0, 58, 40
1, 75324, Control_c, 0, 64, 96
1, 75338, Control_c, 0, 64, 96
1, 75338, Control_c, 0, 67, 26
1, 75353, Control_c, 0, 64, 97
1, 75353, Control_c, 0, 67, 26
1, 75368, Control_c, 0, 64, 98
1, 75368, Control_c, 0, 67, 24
1, 75383, Control_c, 0, 67, 23
1, 75398, Control_c, 0, 64, 98
1, 75398, Control_c, 0, 67, 22
1, 75410, Note_on_c, 0, 63, 70
1, 75412, Control_c, 0, 64, 99
1, 75412, Control_c, 0, 67, 21
1, 75427, Control_c, 0, 64, 100
1, 75427, Control_c, 0, 67, 19
1, 75442, Control_c, 0, 64, 101
1, 75442, Control_c, 0, 67, 17
1, 75457, Control_c, 0, 67, 16
1, 75472, Control_c, 0, 67, 15
1, 75480, Note_off_c, 0, 66, 36
1, 75486, Control_c, 0, 67, 15
1, 75509, Note_off_c, 0, 63, 62
1, 75514, Note_on_c, 0, 58, 73
1, 75530, Control_c, 0, 67, 14
1, 75618, Note_on_c, 0, 63, 77
1, 75619, Note_off_c, 0, 58, 58
1, 75619, Control_c, 0, 67, 15
1, 75631, Note_off_c, 0, 39, 53
1, 75634, Control_c, 0, 67, 15
1, 75646, Note_off_c, 0, 51, 62
1, 75664, Control_c, 0, 64, 101
1, 75678, Control_c, 0, 67, 16
1, 75693, Control_c, 0, 67, 16
1, 75708, Control_c, 0, 67, 17
1, 75712, Note_off_c, 0, 63, 63
1, 75723, Control_c, 0, 67, 17
1, 75726, Note_on_c, 0, 58, 74
1, 75738, Control_c, 0, 67, 18
1, 75753, Control_c, 0, 67, 19
1, 75783, Control_c, 0, 64, 102
1, 75783, Control_c, 0, 67, 20
1, 75798, Control_c, 0, 67, 20
1, 75819, Control_c, 0, 67, 22
1, 75831, Note_on_c, 0, 63, 76
1, 75834, Control_c, 0, 64, 102
1, 75834, Control_c, 0, 67, 23
1, 75848, Note_off_c, 0, 58, 56
1, 75849, Control_c, 0, 67, 24
1, 75863, Control_c, 0, 67, 25
1, 75878, Control_c, 0, 67, 25
1, 75893, Control_c, 0, 67, 26
1, 75908, Control_c, 0, 67, 27
1, 75912, Note_on_c, 0, 39, 67
1, 75923, Control_c, 0, 67, 28
1, 75939, Note_on_c, 0, 66, 75
1, 75939, Control_c, 0, 67, 30
1, 75954, Control_c, 0, 67, 34
1, 75955, Note_off_c, 0, 63, 60
1, 75968, Control_c, 0, 67, 37
1, 75983, Control_c, 0, 67, 39
1, 75997, Note_off_c, 0, 39, 58
1, 75998, Control_c, 0, 67, 41
1, 76013, Control_c, 0, 67, 43
1, 76027, Control_c, 0, 67, 44
1, 76035, Note_on_c, 0, 41, 78
1, 76042, Control_c, 0, 67, 46
1, 76045, Note_on_c, 0, 63, 80
1, 76051, Note_off_c, 0, 70, 54
1, 76057, Control_c, 0, 67, 48
1, 76072, Control_c, 0, 64, 102
1, 76072, Control_c, 0, 67, 49
1, 76087, Control_c, 0, 64, 101
1, 76100, Control_c, 0, 64, 101
1, 76115, Control_c, 0, 64, 100
1, 76130, Control_c, 0, 64, 99
1, 76130, Control_c, 0, 67, 49
1, 76145, Control_c, 0, 64, 99
1, 76145, Control_c, 0, 67, 50
1, 76146, Note_on_c, 0, 42, 79
1, 76147, Note_on_c, 0, 58, 78
1, 76158, Note_off_c, 0, 41, 63
1, 76159, Control_c, 0, 64, 98
1, 76169, Note_off_c, 0, 63, 58
1, 76174, Control_c, 0, 64, 98
1, 76189, Control_c, 0, 64, 97
1, 76204, Control_c, 0, 64, 97
1, 76206, Note_off_c, 0, 42, 62
1, 76219, Control_c, 0, 64, 96
1, 76233, Control_c, 0, 64, 95
1, 76248, Control_c, 0, 64, 94
1, 76263, Control_c, 0, 64, 94
1, 76278, Control_c, 0, 64, 93
1, 76292, Control_c, 0, 64, 92
1, 76307, Control_c, 0, 64, 91
1, 76307, Control_c, 0, 67, 49
1, 76322, Control_c, 0, 64, 90
1, 76337, Control_c, 0, 64, 89
1, 76343, Note_on_c, 0, 70, 90
1, 76352, Note_off_c, 0, 58, 60
1, 76352, Control_c, 0, 64, 87
1, 76358, Note_on_c, 0, 42, 73
1, 76367, Control_c, 0, 64, 84
1, 76370, Note_off_c, 0, 66, 56
1, 76382, Control_c, 0, 64, 80
1, 76382, Control_c, 0, 67, 49
1, 76397, Control_c, 0, 64, 72
1, 76412, Control_c, 0, 64, 64
1, 76426, Control_c, 0, 64, 0
1, 76530, Control_c, 0, 67, 49
1, 76566, Note_on_c, 0, 58, 58
1, 76567, Control_c, 0, 67, 50
1, 76582, Control_c, 0, 67, 50
1, 76597, Control_c, 0, 67, 51
1, 76626, Control_c, 0, 67, 51
1, 76641, Control_c, 0, 64, 47
1, 76641, Control_c, 0, 67, 52
1, 76656, Control_c, 0, 64, 60
1, 76656, Control_c, 0, 67, 54
1, 76671, Control_c, 0, 64, 64
1, 76671, Control_c, 0, 67, 58
1, 76678, Note_on_c, 0, 63, 58
1, 76685, Control_c, 0, 64, 67
1, 76685, Control_c, 0, 67, 63
1, 76700, Control_c, 0, 64, 70
1, 76700, Control_c, 0, 67, 69
1, 76715, Control_c, 0, 64, 74
1, 76715, Control_c, 0, 67, 75
1, 76731, Control_c, 0, 64, 79
1, 76731, Control_c, 0, 67, 80
1, 76746, Control_c, 0, 64, 82
1, 76746, Control_c, 0, 67, 85
1, 76760, Control_c, 0, 64, 83
1, 76760, Control_c, 0, 67, 89
1, 76763, Note_off_c, 0, 58, 59
1, 76764, Note_on_c, 0, 66, 69
1, 76772, Note_off_c, 0, 63, 63
1, 76775, Control_c, 0, 64, 84
1, 76775, Control_c, 0, 67, 93
1, 76790, Control_c, 0, 64, 85
1, 76790, Control_c, 0, 67, 96
1, 76805, Control_c, 0, 64, 86
1, 76805, Control_c, 0, 67, 98
1, 76820, Control_c, 0, 64, 86
1, 76835, Control_c, 0, 64, 87
1, 76850, Control_c, 0, 67, 97
1, 76860, Note_on_c, 0, 63, 63
1, 76880, Control_c, 0, 67, 96
1, 76895, Control_c, 0, 67, 96
1, 76909, Control_c, 0, 67, 95
1, 76939, Control_c, 0, 67, 95
1, 76948, Note_off_c, 0, 63, 63
1, 76954, Control_c, 0, 67, 94
1, 76954, Note_on_c, 0, 58, 67
1, 76983, Control_c, 0, 67, 94
1, 77007, Note_off_c, 0, 66, 21
1, 77028, Control_c, 0, 67, 93
1, 77043, Control_c, 0, 67, 93
1, 77050, Note_on_c, 0, 63, 80
1, 77052, Note_off_c, 0, 58, 60
1, 77057, Control_c, 0, 67, 92
1, 77072, Control_c, 0, 67, 91
1, 77087, Control_c, 0, 67, 90
1, 77101, Control_c, 0, 67, 91
1, 77116, Control_c, 0, 67, 91
1, 77129, Note_off_c, 0, 42, 61
1, 77131, Control_c, 0, 67, 91
1, 77142, Note_off_c, 0, 63, 64
1, 77146, Control_c, 0, 67, 90
1, 77148, Note_on_c, 0, 58, 78
1, 77190, Control_c, 0, 64, 87
1, 77205, Control_c, 0, 64, 88
1, 77220, Control_c, 0, 64, 89
1, 77220, Control_c, 0, 67, 91
1, 77235, Control_c, 0, 64, 90
1, 77235, Control_c, 0, 67, 92
1, 77248, Note_on_c, 0, 63, 80
1, 77249, Control_c, 0, 64, 91
1, 77249, Control_c, 0, 67, 93
1, 77264, Control_c, 0, 64, 92
1, 77279, Control_c, 0, 64, 93
1, 77279, Control_c, 0, 67, 93
1, 77281, Note_off_c, 0, 58, 55
1, 77301, Control_c, 0, 64, 94
1, 77301, Control_c, 0, 67, 94
1, 77316, Control_c, 0, 64, 95
1, 77316, Control_c, 0, 67, 94
1, 77331, Control_c, 0, 64, 96
1, 77331, Control_c, 0, 67, 95
1, 77346, Control_c, 0, 64, 97
1, 77361, Control_c, 0, 64, 97
1, 77362, Note_on_c, 0, 66, 82
1, 77366, Note_on_c, 0, 42, 76
1, 77376, Control_c, 0, 67, 94
1, 77382, Note_off_c, 0, 63, 64
1, 77467, Note_on_c, 0, 63, 77
1, 77473, Note_on_c, 0, 44, 70
1, 77474, Note_off_c, 0, 70, 57
1, 77494, Control_c, 0, 67, 94
1, 77512, Note_off_c, 0, 66, 61
1, 77539, Control_c, 0, 64, 97
1, 77554, Control_c, 0, 64, 96
1, 77568, Note_on_c, 0, 46, 82
1, 77569, Control_c, 0, 64, 96
1, 77575, Note_on_c, 0, 58, 78
1, 77581, Note_off_c, 0, 42, 34
1, 77584, Control_c, 0, 67, 94
1, 77585, Note_off_c, 0, 44, 62
1, 77599, Control_c, 0, 64, 95
1, 77603, Note_off_c, 0, 63, 58
1, 77606, Note_off_c, 0, 46, 63
1, 77613, Control_c, 0, 64, 95
1, 77628, Control_c, 0, 64, 94
1, 77643, Control_c, 0, 64, 94
1, 77656, Note_off_c, 0, 58, 61
1, 77658, Control_c, 0, 64, 93
1, 77673, Control_c, 0, 64, 92
1, 77688, Control_c, 0, 64, 91
1, 77702, Control_c, 0, 64, 90
1, 77702, Control_c, 0, 67, 94
1, 77717, Note_on_c, 0, 70, 83
1, 77717, Control_c, 0, 64, 89
1, 77729, Note_on_c, 0, 46, 73
1, 77732, Control_c, 0, 64, 86
1, 77747, Control_c, 0, 64, 82
1, 77762, Control_c, 0, 64, 76
1, 77762, Control_c, 0, 67, 93
1, 77777, Control_c, 0, 64, 67
1, 77777, Control_c, 0, 67, 93
1, 77778, Note_on_c, 0, 68, 27
1, 77792, Control_c, 0, 64, 0
1, 77806, Control_c, 0, 67, 92
1, 77821, Note_off_c, 0, 68, 47
1, 77836, Control_c, 0, 67, 91
1, 77846, Note_on_c, 0, 62, 67
1, 77851, Control_c, 0, 67, 91
1, 77866, Control_c, 0, 67, 90
1, 77880, Control_c, 0, 64, 55
1, 77880, Control_c, 0, 67, 90
1, 77895, Control_c, 0, 64, 67
1, 77895, Control_c, 0, 67, 89
1, 77910, Control_c, 0, 64, 72
1, 77924, Control_c, 0, 64, 80
1, 77939, Control_c, 0, 64, 84
1, 77939, Control_c, 0, 67, 89
1, 77954, Note_on_c, 0, 65, 66
1, 77954, Control_c, 0, 64, 87
1, 77954, Control_c, 0, 67, 88
1, 77959, Note_off_c, 0, 62, 61
1, 77969, Control_c, 0, 64, 88
1, 77983, Note_off_c, 0, 65, 70
1, 77984, Control_c, 0, 64, 89
1, 77984, Control_c, 0, 67, 88
1, 77998, Control_c, 0, 67, 87
1, 78003, Note_off_c, 0, 70, 60
1, 78013, Control_c, 0, 64, 90
1, 78013, Control_c, 0, 67, 86
1, 78028, Control_c, 0, 67, 84
1, 78050, Control_c, 0, 67, 82
1, 78065, Control_c, 0, 67, 81
1, 78080, Control_c, 0, 67, 82
1, 78095, Control_c, 0, 67, 82
1, 78135, Note_on_c, 0, 77, 86
1, 78139, Control_c, 0, 67, 82
1, 78154, Control_c, 0, 67, 81
1, 78161, Note_on_c, 0, 59, 59
1, 78257, Control_c, 0, 67, 82
1, 78271, Note_on_c, 0, 65, 65
1, 78287, Control_c, 0, 67, 82
1, 78302, Control_c, 0, 67, 82
1, 78317, Control_c, 0, 67, 81
1, 78362, Control_c, 0, 67, 81
1, 78371, Note_on_c, 0, 68, 68
1, 78406, Note_off_c, 0, 77, 60
1, 78433, Note_off_c, 0, 65, 57
1, 78471, Note_on_c, 0, 74, 87
1, 78493, Note_on_c, 0, 56, 65
1, 78496, Control_c, 0, 67, 81
1, 78500, Note_off_c, 0, 68, 61
1, 78540, Note_off_c, 0, 59, 36
1, 78579, Note_on_c, 0, 65, 61
1, 78615, Control_c, 0, 67, 81
1, 78682, Note_off_c, 0, 74, 62
1, 78695, Note_on_c, 0, 68, 64
1, 78718, Control_c, 0, 67, 81
1, 78737, Note_off_c, 0, 65, 59
1, 78738, Note_off_c, 0, 68, 55
1, 78803, Note_off_c, 0, 56, 56
1, 78808, Note_on_c, 0, 71, 80
1, 78814, Control_c, 0, 64, 89
1, 78820, Note_on_c, 0, 53, 60
1, 78829, Control_c, 0, 67, 82
1, 78844, Control_c, 0, 64, 89
1, 78844, Control_c, 0, 67, 82
1, 78859, Control_c, 0, 64, 88
1, 78874, Control_c, 0, 64, 88
1, 78874, Control_c, 0, 67, 83
1, 78888, Control_c, 0, 67, 83
1, 78903, Control_c, 0, 64, 87
1, 78918, Control_c, 0, 64, 87
1, 78925, Note_on_c, 0, 65, 60
1, 78933, Control_c, 0, 64, 86
1, 78947, Control_c, 0, 64, 86
1, 78947, Control_c, 0, 67, 84
1, 78962, Control_c, 0, 64, 85
1, 78977, Control_c, 0, 64, 84
1, 78977, Control_c, 0, 67, 84
1, 78992, Control_c, 0, 64, 83
1, 78992, Control_c, 0, 67, 85
1, 79006, Note_off_c, 0, 71, 58
1, 79007, Control_c, 0, 64, 81
1, 79011, Note_off_c, 0, 65, 58
1, 79020, Note_on_c, 0, 68, 64
1, 79022, Control_c, 0, 64, 79
1, 79036, Control_c, 0, 64, 77
1, 79036, Control_c, 0, 67, 85
1, 79051, Control_c, 0, 64, 75
1, 79051, Control_c, 0, 67, 86
1, 79066, Control_c, 0, 64, 73
1, 79080, Control_c, 0, 64, 71
1, 79080, Control_c, 0, 67, 86
1, 79095, Control_c, 0, 64, 69
1, 79095, Control_c, 0, 67, 87
1, 79110, Control_c, 0, 64, 68
1, 79126, Control_c, 0, 64, 67
1, 79141, Control_c, 0, 64, 66
1, 79141, Control_c, 0, 67, 87
1, 79154, Note_on_c, 0, 71, 70
1, 79156, Control_c, 0, 64, 65
1, 79157, Note_on_c, 0, 50, 40
1, 79170, Note_off_c, 0, 68, 51
1, 79170, Control_c, 0, 64, 63
1, 79170, Control_c, 0, 67, 88
1, 79185, Control_c, 0, 64, 60
1, 79200, Control_c, 0, 64, 52
1, 79200, Control_c, 0, 67, 89
1, 79209, Note_off_c, 0, 53, 38
1, 79215, Control_c, 0, 64, 37
1, 79230, Control_c, 0, 64, 0
1, 79230, Control_c, 0, 67, 90
1, 79259, Control_c, 0, 67, 91
1, 79270, Note_on_c, 0, 65, 56
1, 79274, Control_c, 0, 67, 91
1, 79289, Control_c, 0, 67, 92
1, 79303, Control_c, 0, 67, 94
1, 79318, Control_c, 0, 67, 97
1, 79333, Control_c, 0, 67, 101
1, 79348, Control_c, 0, 67, 106
1, 79353, Note_off_c, 0, 65, 59
1, 79363, Control_c, 0, 67, 112
1, 79371, Note_on_c, 0, 68, 55
1, 79378, Control_c, 0, 64, 26
1, 79378, Control_c, 0, 67, 118
1, 79393, Control_c, 0, 64, 59
1, 79393, Control_c, 0, 67, 123
1, 79408, Control_c, 0, 64, 65
1, 79408, Control_c, 0, 67, 127
1, 79422, Control_c, 0, 64, 67
1, 79437, Control_c, 0, 64, 69
1, 79447, Note_off_c, 0, 71, 43
1, 79452, Control_c, 0, 64, 71
1, 79467, Control_c, 0, 64, 72
1, 79476, Note_on_c, 0, 70, 69
1, 79482, Control_c, 0, 64, 74
1, 79496, Control_c, 0, 64, 74
1, 79507, Note_off_c, 0, 68, 36
1, 79526, Control_c, 0, 64, 75
1, 79563, Control_c, 0, 64, 75
1, 79607, Control_c, 0, 64, 76
1, 79608, Note_on_c, 0, 65, 55
1, 79654, Note_off_c, 0, 70, 52
1, 79691, Note_off_c, 0, 65, 58
1, 79703, Note_on_c, 0, 68, 58
1, 79726, Control_c, 0, 64, 75
1, 79756, Control_c, 0, 64, 75
1, 79771, Control_c, 0, 64, 74
1, 79785, Control_c, 0, 64, 73
1, 79800, Control_c, 0, 64, 71
1, 79815, Control_c, 0, 64, 69
1, 79823, Note_on_c, 0, 70, 66
1, 79830, Control_c, 0, 64, 67
1, 79844, Control_c, 0, 64, 66
1, 79902, Control_c, 0, 64, 66
1, 79908, Note_off_c, 0, 68, 36
1, 79918, Control_c, 0, 64, 67
1, 79933, Control_c, 0, 64, 68
1, 79938, Note_on_c, 0, 58, 47
1, 79948, Control_c, 0, 64, 70
1, 79963, Control_c, 0, 64, 71
1, 79978, Control_c, 0, 64, 73
1, 79992, Control_c, 0, 64, 75
1, 80007, Control_c, 0, 64, 77
1, 80022, Control_c, 0, 64, 79
1, 80037, Control_c, 0, 64, 80
1, 80052, Control_c, 0, 64, 81
1, 80058, Note_on_c, 0, 65, 52
1, 80065, Note_off_c, 0, 70, 56
1, 80067, Control_c, 0, 64, 81
1, 80141, Note_off_c, 0, 58, 27
1, 80165, Note_on_c, 0, 68, 65
1, 80195, Note_off_c, 0, 46, 54
1, 80215, Control_c, 0, 64, 81
1, 80224, Note_off_c, 0, 65, 44
1, 80245, Control_c, 0, 64, 80
1, 80260, Control_c, 0, 64, 80
1, 80275, Note_on_c, 0, 58, 50
1, 80302, Note_off_c, 0, 50, 39
1, 80311, Control_c, 0, 64, 79
1, 80325, Note_on_c, 0, 48, 43
1, 80341, Control_c, 0, 64, 79
1, 80355, Control_c, 0, 64, 78
1, 80359, Note_off_c, 0, 68, 56
1, 80370, Control_c, 0, 64, 78
1, 80387, Note_on_c, 0, 65, 40
1, 80391, Note_off_c, 0, 48, 42
1, 80400, Control_c, 0, 64, 77
1, 80415, Control_c, 0, 64, 77
1, 80427, Note_on_c, 0, 50, 41
1, 80430, Control_c, 0, 64, 76
1, 80445, Control_c, 0, 64, 76
1, 80459, Control_c, 0, 64, 75
1, 80474, Control_c, 0, 64, 75
1, 80476, Note_off_c, 0, 58, 19
1, 80489, Control_c, 0, 64, 74
1, 80504, Control_c, 0, 64, 73
1, 80519, Control_c, 0, 64, 71
1, 80533, Control_c, 0, 64, 67
1, 80534, Note_off_c, 0, 50, 38
1, 80548, Control_c, 0, 64, 64
1, 80552, Note_on_c, 0, 51, 34
1, 80553, Note_on_c, 0, 68, 57
1, 80563, Control_c, 0, 64, 58
1, 80577, Note_off_c, 0, 65, 37
1, 80578, Control_c, 0, 64, 52
1, 80594, Control_c, 0, 64, 50
1, 80608, Control_c, 0, 64, 48
1, 80623, Control_c, 0, 64, 44
1, 80638, Control_c, 0, 64, 38
1, 80652, Control_c, 0, 64, 29
1, 80667, Control_c, 0, 64, 26
1, 80671, Note_on_c, 0, 58, 43
1, 80682, Control_c, 0, 64, 34
1, 80697, Control_c, 0, 64, 45
1, 80712, Control_c, 0, 64, 54
1, 80728, Control_c, 0, 64, 61
1, 80742, Control_c, 0, 64, 64
1, 80757, Control_c, 0, 64, 68
1, 80772, Control_c, 0, 64, 72
1, 80784, Note_on_c, 0, 63, 51
1, 80787, Control_c, 0, 64, 77
1, 80802, Control_c, 0, 64, 79
1, 80816, Control_c, 0, 64, 80
1, 80831, Control_c, 0, 64, 81
1, 80861, Control_c, 0, 64, 81
1, 80863, Note_off_c, 0, 68, 43
1, 80880, Note_off_c, 0, 58, 29
1, 80886, Note_on_c, 0, 66, 68
1, 80964, Note_off_c, 0, 63, 32
1, 81002, Note_on_c, 0, 58, 57
1, 81009, Control_c, 0, 64, 81
1, 81061, Control_c, 0, 64, 80
1, 81090, Control_c, 0, 64, 80
1, 81105, Control_c, 0, 64, 79
1, 81113, Note_on_c, 0, 63, 57
1, 81120, Control_c, 0, 64, 78
1, 81128, Note_off_c, 0, 66, 59
1, 81135, Control_c, 0, 64, 77
1, 81149, Control_c, 0, 64, 77
1, 81164, Control_c, 0, 64, 75
1, 81165, Note_off_c, 0, 58, 38
1, 81179, Control_c, 0, 64, 74
1, 81194, Control_c, 0, 64, 72
1, 81209, Control_c, 0, 64, 70
1, 81223, Control_c, 0, 64, 68
1, 81237, Note_on_c, 0, 65, 70
1, 81238, Control_c, 0, 64, 64
1, 81253, Control_c, 0, 64, 56
1, 81257, Note_on_c, 0, 44, 44
1, 81267, Note_off_c, 0, 63, 57
1, 81268, Control_c, 0, 64, 0
1, 81307, Note_off_c, 0, 51, 39
1, 81342, Control_c, 0, 64, 42
1, 81351, Note_on_c, 0, 56, 56
1, 81357, Control_c, 0, 64, 55
1, 81372, Control_c, 0, 64, 62
1, 81387, Control_c, 0, 64, 65
1, 81402, Control_c, 0, 64, 68
1, 81417, Control_c, 0, 64, 71
1, 81431, Control_c, 0, 64, 75
1, 81446, Control_c, 0, 64, 78
1, 81456, Note_on_c, 0, 59, 54
1, 81461, Control_c, 0, 64, 80
1, 81475, Control_c, 0, 64, 81
1, 81490, Control_c, 0, 64, 82
1, 81505, Control_c, 0, 64, 83
1, 81507, Note_off_c, 0, 65, 54
1, 81510, Note_off_c, 0, 56, 33
1, 81574, Note_on_c, 0, 68, 78
1, 81610, Note_off_c, 0, 59, 51
1, 81688, Note_on_c, 0, 56, 51
1, 81698, Control_c, 0, 64, 82
1, 81728, Control_c, 0, 64, 82
1, 81758, Control_c, 0, 64, 81
1, 81764, Note_off_c, 0, 68, 58
1, 81795, Control_c, 0, 64, 81
1, 81810, Control_c, 0, 64, 80
1, 81825, Control_c, 0, 64, 80
1, 81837, Note_on_c, 0, 59, 44
1, 81840, Control_c, 0, 64, 79
1, 81846, Note_off_c, 0, 56, 45
1, 81854, Control_c, 0, 64, 78
1, 81869, Control_c, 0, 64, 78
1, 81876, Note_off_c, 0, 44, 22
1, 81884, Control_c, 0, 64, 77
1, 81898, Control_c, 0, 64, 77
1, 81913, Control_c, 0, 64, 76
1, 81928, Control_c, 0, 64, 75
1, 81943, Control_c, 0, 64, 74
1, 81958, Control_c, 0, 64, 73
1, 81972, Control_c, 0, 64, 72
1, 81987, Control_c, 0, 64, 72
1, 82002, Control_c, 0, 64, 71
1, 82017, Control_c, 0, 64, 70
1, 82020, Note_off_c, 0, 59, 55
1, 82025, Note_on_c, 0, 63, 69
1, 82032, Control_c, 0, 64, 68
1, 82046, Control_c, 0, 64, 67
1, 82052, Note_on_c, 0, 46, 34
1, 82061, Control_c, 0, 64, 66
1, 82076, Control_c, 0, 64, 65
1, 82091, Control_c, 0, 64, 64
1, 82105, Control_c, 0, 64, 63
1, 82120, Control_c, 0, 64, 62
1, 82135, Control_c, 0, 64, 59
1, 82150, Control_c, 0, 64, 54
1, 82165, Control_c, 0, 64, 46
1, 82180, Control_c, 0, 64, 30
1, 82195, Control_c, 0, 64, 0
1, 82207, Note_on_c, 0, 51, 43
1, 82314, Note_on_c, 0, 54, 44
1, 82359, Control_c, 0, 64, 51
1, 82374, Control_c, 0, 64, 62
1, 82382, Note_off_c, 0, 51, 34
1, 82388, Control_c, 0, 64, 65
1, 82392, Note_off_c, 0, 54, 56
1, 82403, Control_c, 0, 64, 67
1, 82418, Control_c, 0, 64, 69
1, 82421, Note_on_c, 0, 58, 47
1, 82433, Control_c, 0, 64, 71
1, 82448, Control_c, 0, 64, 74
1, 82462, Control_c, 0, 64, 76
1, 82477, Control_c, 0, 64, 77
1, 82492, Control_c, 0, 64, 78
1, 82525, Note_on_c, 0, 54, 47
1, 82558, Control_c, 0, 64, 78
1, 82592, Note_off_c, 0, 58, 24
1, 82618, Control_c, 0, 64, 78
1, 82662, Note_off_c, 0, 63, 39
1, 82663, Control_c, 0, 64, 77
1, 82663, Note_on_c, 0, 51, 35
1, 82677, Control_c, 0, 64, 77
1, 82707, Control_c, 0, 64, 76
1, 82721, Control_c, 0, 64, 76
1, 82740, Note_off_c, 0, 51, 35
1, 82751, Control_c, 0, 64, 75
1, 82766, Control_c, 0, 64, 74
1, 82776, Note_on_c, 0, 62, 61
1, 82781, Control_c, 0, 64, 73
1, 82795, Control_c, 0, 64, 70
1, 82810, Control_c, 0, 64, 67
1, 82812, Note_off_c, 0, 54, 32
1, 82825, Control_c, 0, 64, 62
1, 82839, Control_c, 0, 64, 52
1, 82854, Control_c, 0, 64, 53
1, 82869, Control_c, 0, 64, 59
1, 82877, Note_on_c, 0, 50, 58
1, 82884, Control_c, 0, 64, 62
1, 82899, Control_c, 0, 64, 64
1, 82913, Control_c, 0, 64, 66
1, 82928, Control_c, 0, 64, 69
1, 82943, Control_c, 0, 64, 72
1, 82958, Control_c, 0, 64, 76
1, 82973, Control_c, 0, 64, 79
1, 82988, Note_on_c, 0, 53, 72
1, 82988, Control_c, 0, 64, 82
1, 83003, Control_c, 0, 64, 84
1, 83017, Control_c, 0, 64, 85
1, 83032, Note_off_c, 0, 50, 34
1, 83032, Control_c, 0, 64, 85
1, 83044, Note_off_c, 0, 62, 36
1, 83055, Note_off_c, 0, 53, 65
1, 83062, Control_c, 0, 64, 86
1, 83110, Note_on_c, 0, 58, 79
1, 83111, Note_on_c, 0, 44, 71
1, 83138, Note_off_c, 0, 46, 40
1, 83200, Note_off_c, 0, 58, 61
1, 83226, Note_on_c, 0, 53, 79
1, 83238, Note_on_c, 0, 42, 68
1, 83241, Note_off_c, 0, 44, 64
1, 83254, Note_off_c, 0, 53, 69
1, 83372, Note_on_c, 0, 70, 94
1, 83375, Note_off_c, 0, 42, 63
1, 83376, Note_on_c, 0, 41, 76
1, 83426, Control_c, 0, 64, 85
1, 83444, Note_off_c, 0, 70, 56
1, 83456, Control_c, 0, 64, 85
1, 83470, Control_c, 0, 64, 84
1, 83500, Control_c, 0, 64, 84
1, 83515, Control_c, 0, 67, 127
1, 83530, Control_c, 0, 64, 83
1, 83544, Control_c, 0, 64, 83
1, 83544, Control_c, 0, 67, 126
1, 83559, Control_c, 0, 64, 82
1, 83575, Control_c, 0, 64, 81
1, 83590, Control_c, 0, 64, 80
1, 83605, Control_c, 0, 64, 80
1, 83619, Control_c, 0, 64, 79
1, 83619, Control_c, 0, 67, 126
1, 83634, Control_c, 0, 64, 77
1, 83634, Control_c, 0, 67, 125
1, 83649, Control_c, 0, 64, 76
1, 83649, Control_c, 0, 67, 124
1, 83659, Note_on_c, 0, 70, 89
1, 83661, Note_on_c, 0, 39, 66
1, 83664, Control_c, 0, 64, 74
1, 83664, Control_c, 0, 67, 122
1, 83679, Control_c, 0, 64, 71
1, 83679, Control_c, 0, 67, 119
1, 83694, Control_c, 0, 64, 66
1, 83694, Control_c, 0, 67, 117
1, 83709, Control_c, 0, 64, 59
1, 83709, Control_c, 0, 67, 115
1, 83720, Note_off_c, 0, 41, 63
1, 83724, Control_c, 0, 64, 0
1, 83724, Control_c, 0, 67, 113
1, 83738, Control_c, 0, 67, 112
1, 83753, Control_c, 0, 67, 111
1, 83768, Control_c, 0, 67, 110
1, 83783, Control_c, 0, 67, 110
1, 83798, Control_c, 0, 67, 109
1, 83827, Control_c, 0, 67, 109
1, 83842, Control_c, 0, 67, 108
1, 83857, Control_c, 0, 67, 107
1, 83871, Control_c, 0, 67, 105
1, 83886, Control_c, 0, 67, 102
1, 83901, Control_c, 0, 67, 99
1, 83917, Control_c, 0, 64, 53
1, 83917, Control_c, 0, 67, 95
1, 83923, Note_on_c, 0, 58, 51
1, 83932, Control_c, 0, 64, 64
1, 83932, Control_c, 0, 67, 91
1, 83947, Control_c, 0, 64, 67
1, 83947, Control_c, 0, 67, 86
1, 83962, Control_c, 0, 64, 69
1, 83962, Control_c, 0, 67, 81
1, 83976, Control_c, 0, 64, 71
1, 83976, Control_c, 0, 67, 78
1, 83991, Control_c, 0, 64, 73
1, 83991, Control_c, 0, 67, 75
1, 84006, Control_c, 0, 64, 76
1, 84006, Control_c, 0, 67, 73
1, 84021, Control_c, 0, 64, 78
1, 84021, Control_c, 0, 67, 73
1, 84036, Control_c, 0, 64, 80
1, 84036, Control_c, 0, 67, 72
1, 84049, Note_on_c, 0, 63, 53
1, 84058, Control_c, 0, 64, 82
1, 84073, Control_c, 0, 64, 84
1, 84088, Control_c, 0, 64, 85
1, 84102, Control_c, 0, 64, 86
1, 84117, Control_c, 0, 64, 88
1, 84132, Control_c, 0, 64, 89
1, 84147, Control_c, 0, 64, 90
1, 84147, Control_c, 0, 67, 72
1, 84153, Note_off_c, 0, 63, 59
1, 84155, Note_on_c, 0, 66, 56
1, 84158, Note_off_c, 0, 58, 37
1, 84162, Control_c, 0, 64, 91
1, 84176, Control_c, 0, 64, 92
1, 84191, Control_c, 0, 64, 93
1, 84206, Control_c, 0, 64, 94
1, 84221, Control_c, 0, 64, 95
1, 84236, Control_c, 0, 64, 96
1, 84250, Control_c, 0, 64, 97
1, 84250, Control_c, 0, 67, 72
1, 84262, Note_off_c, 0, 66, 55
1, 84265, Control_c, 0, 64, 98
1, 84275, Note_on_c, 0, 63, 55
1, 84280, Control_c, 0, 64, 98
1, 84294, Control_c, 0, 67, 71
1, 84309, Control_c, 0, 64, 99
1, 84309, Control_c, 0, 67, 71
1, 84338, Control_c, 0, 64, 99
1, 84338, Control_c, 0, 67, 70
1, 84347, Note_off_c, 0, 63, 60
1, 84353, Control_c, 0, 67, 70
1, 84365, Note_on_c, 0, 58, 58
1, 84368, Control_c, 0, 67, 66
1, 84383, Control_c, 0, 67, 64
1, 84398, Control_c, 0, 67, 61
1, 84412, Control_c, 0, 67, 59
1, 84427, Control_c, 0, 67, 58
1, 84442, Control_c, 0, 67, 56
1, 84451, Note_off_c, 0, 58, 60
1, 84457, Control_c, 0, 67, 56
1, 84460, Note_on_c, 0, 63, 70
1, 84472, Control_c, 0, 67, 55
1, 84487, Control_c, 0, 67, 55
1, 84531, Control_c, 0, 64, 100
1, 84531, Control_c, 0, 67, 54
1, 84544, Note_off_c, 0, 39, 53
1, 84546, Control_c, 0, 64, 101
1, 84555, Note_off_c, 0, 63, 63
1, 84560, Note_on_c, 0, 58, 71
1, 84560, Control_c, 0, 64, 102
1, 84575, Control_c, 0, 64, 103
1, 84590, Control_c, 0, 64, 103
1, 84605, Control_c, 0, 64, 105
1, 84605, Control_c, 0, 67, 55
1, 84619, Control_c, 0, 64, 107
1, 84634, Control_c, 0, 64, 109
1, 84649, Control_c, 0, 64, 111
1, 84660, Note_on_c, 0, 63, 70
1, 84664, Control_c, 0, 64, 112
1, 84679, Control_c, 0, 64, 113
1, 84679, Control_c, 0, 67, 55
1, 84693, Control_c, 0, 64, 114
1, 84709, Control_c, 0, 64, 115
1, 84724, Control_c, 0, 64, 116
1, 84739, Control_c, 0, 64, 116
1, 84768, Note_on_c, 0, 39, 69
1, 84769, Control_c, 0, 64, 117
1, 84769, Control_c, 0, 67, 55
1, 84771, Note_on_c, 0, 66, 77
1, 84803, Note_off_c, 0, 63, 64
1, 84806, Note_off_c, 0, 58, 53
1, 84824, Note_off_c, 0, 70, 53
1, 84851, Control_c, 0, 67, 56
1, 84866, Control_c, 0, 67, 57
1, 84880, Control_c, 0, 67, 58
1, 84889, Note_on_c, 0, 41, 80
1, 84889, Note_on_c, 0, 63, 74
1, 84895, Control_c, 0, 67, 58
1, 84910, Control_c, 0, 67, 59
1, 84913, Note_off_c, 0, 39, 58
1, 84924, Control_c, 0, 67, 60
1, 84939, Control_c, 0, 64, 116
1, 84954, Control_c, 0, 67, 60
1, 84969, Control_c, 0, 64, 115
1, 84984, Control_c, 0, 64, 115
1, 84993, Note_on_c, 0, 42, 81
1, 84999, Control_c, 0, 64, 114
1, 85006, Note_on_c, 0, 58, 76
1, 85012, Note_off_c, 0, 41, 64
1, 85014, Control_c, 0, 64, 114
1, 85029, Control_c, 0, 64, 113
1, 85043, Control_c, 0, 64, 112
1, 85058, Control_c, 0, 64, 111
1, 85064, Note_off_c, 0, 42, 62
1, 85073, Control_c, 0, 64, 110
1, 85073, Control_c, 0, 67, 60
1, 85088, Control_c, 0, 64, 109
1, 85088, Control_c, 0, 67, 59
1, 85103, Control_c, 0, 64, 108
1, 85117, Control_c, 0, 64, 108
1, 85132, Control_c, 0, 64, 107
1, 85132, Control_c, 0, 67, 58
1, 85142, Note_off_c, 0, 63, 33
1, 85147, Control_c, 0, 64, 106
1, 85162, Control_c, 0, 64, 105
1, 85177, Control_c, 0, 64, 104
1, 85177, Control_c, 0, 67, 58
1, 85191, Control_c, 0, 64, 102
1, 85198, Note_on_c, 0, 70, 88
1, 85206, Control_c, 0, 64, 101
1, 85206, Control_c, 0, 67, 57
1, 85210, Note_on_c, 0, 42, 67
1, 85215, Note_off_c, 0, 58, 62
1, 85221, Control_c, 0, 64, 99
1, 85221, Control_c, 0, 67, 57
1, 85233, Note_off_c, 0, 66, 54
1, 85236, Control_c, 0, 64, 97
1, 85250, Control_c, 0, 64, 94
1, 85250, Control_c, 0, 67, 56
1, 85265, Control_c, 0, 64, 91
1, 85280, Control_c, 0, 64, 87
1, 85295, Control_c, 0, 64, 79
1, 85310, Control_c, 0, 64, 71
1, 85325, Control_c, 0, 64, 55
1, 85340, Control_c, 0, 64, 0
1, 85399, Control_c, 0, 67, 57
1, 85414, Control_c, 0, 67, 57
1, 85425, Note_on_c, 0, 58, 59
1, 85429, Control_c, 0, 67, 58
1, 85443, Control_c, 0, 67, 58
1, 85458, Control_c, 0, 67, 59
1, 85473, Control_c, 0, 67, 59
1, 85488, Control_c, 0, 67, 60
1, 85503, Control_c, 0, 67, 61
1, 85518, Control_c, 0, 67, 62
1, 85540, Control_c, 0, 67, 62
1, 85544, Note_on_c, 0, 63, 60
1, 85555, Control_c, 0, 67, 63
1, 85570, Control_c, 0, 64, 57
1, 85570, Control_c, 0, 67, 64
1, 85585, Control_c, 0, 64, 67
1, 85585, Control_c, 0, 67, 65
1, 85600, Control_c, 0, 64, 71
1, 85600, Control_c, 0, 67, 65
1, 85614, Control_c, 0, 64, 75
1, 85614, Control_c, 0, 67, 66
1, 85629, Control_c, 0, 64, 80
1, 85629, Control_c, 0, 67, 67
1, 85640, Note_off_c, 0, 58, 56
1, 85644, Control_c, 0, 64, 84
1, 85644, Control_c, 0, 67, 67
1, 85651, Note_on_c, 0, 66, 66
1, 85659, Control_c, 0, 64, 86
1, 85659, Control_c, 0, 67, 68
1, 85661, Note_off_c, 0, 63, 62
1, 85673, Control_c, 0, 64, 87
1, 85673, Control_c, 0, 67, 70
1, 85688, Control_c, 0, 64, 88
1, 85688, Control_c, 0, 67, 73
1, 85703, Control_c, 0, 64, 88
1, 85703, Control_c, 0, 67, 75
1, 85718, Control_c, 0, 64, 89
1, 85718, Control_c, 0, 67, 78
1, 85733, Control_c, 0, 64, 90
1, 85733, Control_c, 0, 67, 80
1, 85748, Control_c, 0, 64, 91
1, 85748, Control_c, 0, 67, 81
1, 85754, Note_on_c, 0, 63, 67
1, 85763, Control_c, 0, 64, 92
1, 85763, Control_c, 0, 67, 82
1, 85769, Note_off_c, 0, 66, 53
1, 85778, Control_c, 0, 64, 92
1, 85793, Control_c, 0, 64, 93
1, 85822, Control_c, 0, 67, 82
1, 85837, Control_c, 0, 64, 93
1, 85847, Note_on_c, 0, 58, 69
1, 85847, Note_off_c, 0, 63, 61
1, 85852, Control_c, 0, 64, 94
1, 85866, Control_c, 0, 64, 94
1, 85866, Control_c, 0, 67, 81
1, 85881, Control_c, 0, 64, 95
1, 85881, Control_c, 0, 67, 80
1, 85896, Control_c, 0, 64, 96
1, 85911, Control_c, 0, 64, 97
1, 85911, Control_c, 0, 67, 80
1, 85926, Control_c, 0, 64, 97
1, 85940, Control_c, 0, 64, 98
1, 85940, Control_c, 0, 67, 79
1, 85948, Note_off_c, 0, 58, 60
1, 85949, Note_on_c, 0, 63, 75
1, 85955, Control_c, 0, 64, 99
1, 85955, Control_c, 0, 67, 79
1, 85970, Control_c, 0, 64, 99
1, 85985, Control_c, 0, 64, 100
1, 85985, Control_c, 0, 67, 78
1, 86000, Control_c, 0, 64, 101
1, 86014, Control_c, 0, 64, 103
1, 86014, Control_c, 0, 67, 79
1, 86026, Note_off_c, 0, 42, 59
1, 86029, Control_c, 0, 64, 104
1, 86029, Control_c, 0, 67, 80
1, 86035, Note_off_c, 0, 63, 60
1, 86044, Control_c, 0, 64, 106
1, 86044, Control_c, 0, 67, 80
1, 86057, Note_on_c, 0, 58, 77
1, 86059, Control_c, 0, 64, 109
1, 86059, Control_c, 0, 67, 81
1, 86073, Control_c, 0, 64, 111
1, 86073, Control_c, 0, 67, 81
1, 86088, Control_c, 0, 64, 113
1, 86088, Control_c, 0, 67, 82
1, 86103, Control_c, 0, 64, 116
1, 86103, Control_c, 0, 67, 82
1, 86118, Control_c, 0, 64, 118
1, 86133, Control_c, 0, 64, 119
1, 86142, Note_on_c, 0, 63, 79
1, 86148, Control_c, 0, 64, 120
1, 86148, Control_c, 0, 67, 83
1, 86163, Control_c, 0, 67, 82
1, 86166, Note_off_c, 0, 70, 48
1, 86193, Control_c, 0, 67, 81
1, 86208, Control_c, 0, 67, 80
1, 86222, Control_c, 0, 67, 80
1, 86237, Control_c, 0, 67, 79
1, 86249, Note_on_c, 0, 42, 69
1, 86252, Control_c, 0, 67, 79
1, 86254, Note_on_c, 0, 71, 82
1, 86258, Note_on_c, 0, 66, 75
1, 86259, Note_off_c, 0, 58, 54
1, 86267, Control_c, 0, 67, 78
1, 86275, Note_off_c, 0, 63, 63
1, 86281, Control_c, 0, 67, 77
1, 86320, Control_c, 0, 64, 119
1, 86350, Control_c, 0, 64, 118
1, 86350, Control_c, 0, 67, 78
1, 86364, Note_on_c, 0, 63, 81
1, 86364, Control_c, 0, 64, 117
1, 86371, Note_on_c, 0, 44, 70
1, 86379, Control_c, 0, 64, 116
1, 86394, Control_c, 0, 64, 115
1, 86409, Control_c, 0, 64, 113
1, 86422, Note_off_c, 0, 66, 56
1, 86424, Control_c, 0, 64, 112
1, 86425, Note_off_c, 0, 42, 56
1, 86438, Control_c, 0, 64, 111
1, 86453, Control_c, 0, 64, 110
1, 86465, Note_on_c, 0, 46, 77
1, 86468, Control_c, 0, 64, 108
1, 86469, Note_on_c, 0, 59, 83
1, 86472, Note_off_c, 0, 44, 63
1, 86483, Control_c, 0, 64, 107
1, 86484, Note_off_c, 0, 63, 60
1, 86496, Note_off_c, 0, 46, 66
1, 86497, Control_c, 0, 64, 106
1, 86512, Control_c, 0, 64, 105
1, 86542, Control_c, 0, 64, 105
1, 86570, Note_off_c, 0, 59, 49
1, 86572, Control_c, 0, 64, 104
1, 86587, Control_c, 0, 64, 103
1, 86602, Control_c, 0, 64, 100
1, 86602, Control_c, 0, 67, 77
1, 86617, Control_c, 0, 64, 94
1, 86617, Control_c, 0, 67, 77
1, 86622, Note_on_c, 0, 46, 74
1, 86624, Note_on_c, 0, 70, 85
1, 86632, Control_c, 0, 64, 84
1, 86632, Control_c, 0, 67, 76
1, 86646, Control_c, 0, 64, 73
1, 86657, Note_on_c, 0, 68, 49
1, 86661, Control_c, 0, 64, 53
1, 86661, Control_c, 0, 67, 76
1, 86664, Note_off_c, 0, 71, 58
1, 86676, Control_c, 0, 64, 0
1, 86676, Control_c, 0, 67, 75
1, 86681, Note_off_c, 0, 68, 55
1, 86690, Control_c, 0, 67, 75
1, 86705, Control_c, 0, 67, 74
1, 86720, Control_c, 0, 67, 73
1, 86750, Control_c, 0, 64, 59
1, 86750, Control_c, 0, 67, 73
1, 86764, Control_c, 0, 64, 67
1, 86764, Control_c, 0, 67, 72
1, 86779, Note_on_c, 0, 62, 40
1, 86779, Control_c, 0, 64, 73
1, 86779, Control_c, 0, 67, 72
1, 86794, Control_c, 0, 64, 79
1, 86794, Control_c, 0, 67, 71
1, 86809, Control_c, 0, 64, 85
1, 86809, Control_c, 0, 67, 71
1, 86824, Control_c, 0, 64, 89
1, 86824, Control_c, 0, 67, 70
1, 86839, Control_c, 0, 64, 91
1, 86839, Control_c, 0, 67, 69
1, 86843, Note_on_c, 0, 65, 74
1, 86854, Control_c, 0, 64, 93
1, 86860, Note_off_c, 0, 62, 62
1, 86869, Control_c, 0, 64, 94
1, 86884, Control_c, 0, 64, 94
1, 86887, Note_off_c, 0, 65, 61
1, 86910, Note_off_c, 0, 70, 61
1, 86913, Control_c, 0, 67, 68
1, 86943, Control_c, 0, 67, 67
1, 86958, Control_c, 0, 67, 67
1, 86972, Control_c, 0, 64, 95
1, 86972, Control_c, 0, 67, 66
1, 86987, Control_c, 0, 67, 65
1, 87002, Control_c, 0, 67, 64
1, 87031, Control_c, 0, 67, 63
1, 87033, Note_on_c, 0, 77, 91
1, 87054, Control_c, 0, 67, 63
1, 87057, Note_on_c, 0, 59, 59
1, 87083, Control_c, 0, 67, 62
1, 87098, Control_c, 0, 64, 94
1, 87128, Control_c, 0, 67, 61
1, 87182, Note_on_c, 0, 65, 49
1, 87188, Control_c, 0, 67, 61
1, 87203, Control_c, 0, 67, 60
1, 87292, Control_c, 0, 67, 61
1, 87294, Note_on_c, 0, 68, 62
1, 87332, Note_off_c, 0, 77, 60
1, 87346, Note_off_c, 0, 65, 61
1, 87366, Control_c, 0, 67, 61
1, 87395, Note_on_c, 0, 74, 82
1, 87395, Control_c, 0, 67, 62
1, 87411, Note_on_c, 0, 56, 64
1, 87411, Note_off_c, 0, 59, 39
1, 87433, Note_off_c, 0, 68, 62
1, 87469, Control_c, 0, 67, 62
1, 87484, Control_c, 0, 67, 63
1, 87499, Control_c, 0, 67, 63
1, 87510, Note_on_c, 0, 65, 58
1, 87543, Control_c, 0, 67, 63
1, 87573, Control_c, 0, 67, 62
1, 87593, Note_off_c, 0, 74, 63
1, 87602, Control_c, 0, 67, 61
1, 87614, Note_on_c, 0, 68, 53
1, 87632, Control_c, 0, 67, 61
1, 87650, Note_off_c, 0, 65, 58
1, 87652, Note_off_c, 0, 68, 59
1, 87662, Control_c, 0, 64, 94
1, 87677, Control_c, 0, 67, 60
1, 87691, Control_c, 0, 64, 93
1, 87706, Control_c, 0, 64, 93
1, 87721, Control_c, 0, 64, 92
1, 87727, Note_on_c, 0, 71, 78
1, 87736, Control_c, 0, 64, 91
1, 87745, Note_off_c, 0, 56, 58
1, 87751, Control_c, 0, 64, 91
1, 87751, Control_c, 0, 67, 61
1, 87751, Note_on_c, 0, 53, 55
1, 87766, Control_c, 0, 64, 90
1, 87781, Control_c, 0, 64, 89
1, 87802, Control_c, 0, 64, 88
1, 87817, Control_c, 0, 64, 87
1, 87817, Control_c, 0, 67, 61
1, 87832, Control_c, 0, 64, 86
1, 87846, Control_c, 0, 64, 84
1, 87855, Note_on_c, 0, 65, 62
1, 87861, Control_c, 0, 64, 83
1, 87861, Control_c, 0, 67, 62
1, 87876, Control_c, 0, 64, 82
1, 87891, Control_c, 0, 64, 82
1, 87891, Control_c, 0, 67, 62
1, 87906, Control_c, 0, 64, 81
1, 87906, Control_c, 0, 67, 63
1, 87922, Control_c, 0, 64, 80
1, 87937, Control_c, 0, 64, 80
1, 87937, Control_c, 0, 67, 64
1, 87941, Note_off_c, 0, 65, 60
1, 87951, Control_c, 0, 64, 79
1, 87951, Control_c, 0, 67, 64
1, 87963, Note_on_c, 0, 68, 58
1, 87966, Control_c, 0, 64, 78
1, 87966, Control_c, 0, 67, 65
1, 87981, Control_c, 0, 64, 77
1, 87981, Control_c, 0, 67, 65
1, 87996, Control_c, 0, 64, 76
1, 87996, Control_c, 0, 67, 66
1, 88011, Control_c, 0, 64, 76
1, 88025, Control_c, 0, 64, 75
1, 88025, Control_c, 0, 67, 67
1, 88040, Control_c, 0, 64, 74
1, 88040, Control_c, 0, 67, 67
1, 88041, Note_off_c, 0, 68, 55
1, 88055, Control_c, 0, 64, 73
1, 88055, Control_c, 0, 67, 68
1, 88070, Control_c, 0, 64, 72
1, 88070, Control_c, 0, 67, 68
1, 88083, Control_c, 0, 64, 71
1, 88083, Control_c, 0, 67, 69
1, 88088, Note_on_c, 0, 70, 72
1, 88098, Control_c, 0, 64, 69
1, 88098, Control_c, 0, 67, 70
1, 88100, Note_off_c, 0, 71, 53
1, 88113, Control_c, 0, 64, 65
1, 88113, Control_c, 0, 67, 71
1, 88127, Note_on_c, 0, 50, 44
1, 88128, Control_c, 0, 64, 61
1, 88128, Control_c, 0, 67, 72
1, 88142, Control_c, 0, 64, 51
1, 88142, Control_c, 0, 67, 73
1, 88153, Note_off_c, 0, 53, 54
1, 88157, Control_c, 0, 64, 34
1, 88157, Control_c, 0, 67, 74
1, 88172, Control_c, 0, 64, 0
1, 88172, Control_c, 0, 67, 76
1, 88187, Control_c, 0, 67, 80
1, 88202, Control_c, 0, 67, 83
1, 88216, Control_c, 0, 67, 87
1, 88231, Control_c, 0, 67, 90
1, 88232, Note_on_c, 0, 65, 40
1, 88246, Control_c, 0, 67, 93
1, 88261, Control_c, 0, 67, 96
1, 88276, Control_c, 0, 67, 100
1, 88291, Control_c, 0, 67, 104
1, 88306, Control_c, 0, 67, 109
1, 88320, Control_c, 0, 67, 116
1, 88324, Note_on_c, 0, 68, 53
1, 88329, Note_off_c, 0, 65, 40
1, 88335, Control_c, 0, 67, 121
1, 88350, Control_c, 0, 67, 125
1, 88365, Control_c, 0, 67, 127
1, 88376, Note_off_c, 0, 70, 55
1, 88439, Note_on_c, 0, 71, 66
1, 88443, Note_off_c, 0, 68, 51
1, 88483, Control_c, 0, 64, 56
1, 88498, Control_c, 0, 64, 67
1, 88513, Control_c, 0, 64, 72
1, 88535, Control_c, 0, 64, 76
1, 88550, Control_c, 0, 64, 79
1, 88559, Note_on_c, 0, 65, 59
1, 88562, Note_off_c, 0, 71, 56
1, 88565, Control_c, 0, 64, 81
1, 88580, Control_c, 0, 64, 82
1, 88595, Control_c, 0, 64, 83
1, 88612, Note_off_c, 0, 50, 41
1, 88619, Note_off_c, 0, 65, 58
1, 88641, Note_on_c, 0, 68, 54
1, 88656, Note_off_c, 0, 46, 55
1, 88698, Control_c, 0, 64, 83
1, 88714, Control_c, 0, 64, 82
1, 88729, Control_c, 0, 64, 81
1, 88744, Control_c, 0, 64, 80
1, 88759, Control_c, 0, 64, 78
1, 88759, Note_on_c, 0, 70, 68
1, 88763, Note_on_c, 0, 50, 52
1, 88773, Control_c, 0, 64, 76
1, 88788, Control_c, 0, 64, 74
1, 88803, Control_c, 0, 64, 72
1, 88806, Note_off_c, 0, 50, 63
1, 88812, Note_off_c, 0, 68, 39
1, 88818, Control_c, 0, 64, 70
1, 88833, Control_c, 0, 64, 66
1, 88839, Note_on_c, 0, 51, 48
1, 88847, Note_on_c, 0, 58, 55
1, 88847, Control_c, 0, 64, 63
1, 88862, Control_c, 0, 64, 60
1, 88869, Note_off_c, 0, 51, 59
1, 88877, Control_c, 0, 64, 61
1, 88891, Control_c, 0, 64, 61
1, 88897, Note_on_c, 0, 50, 50
1, 88936, Control_c, 0, 64, 61
1, 88949, Note_off_c, 0, 58, 58
1, 88954, Note_on_c, 0, 51, 62
1, 88955, Note_off_c, 0, 50, 63
1, 88957, Note_on_c, 0, 65, 48
1, 88965, Control_c, 0, 64, 60
1, 88980, Control_c, 0, 64, 59
1, 88995, Control_c, 0, 64, 57
1, 89006, Note_off_c, 0, 51, 57
1, 89010, Control_c, 0, 64, 49
1, 89025, Control_c, 0, 64, 0
1, 89034, Note_on_c, 0, 50, 56
1, 89081, Note_on_c, 0, 68, 59
1, 89089, Note_off_c, 0, 50, 62
1, 89089, Note_off_c, 0, 70, 54
1, 89114, Note_on_c, 0, 51, 59
1, 89151, Note_off_c, 0, 65, 29
1, 89161, Note_off_c, 0, 51, 58
1, 89173, Control_c, 0, 64, 53
1, 89186, Note_on_c, 0, 58, 47
1, 89188, Control_c, 0, 64, 65
1, 89195, Note_on_c, 0, 50, 49
1, 89202, Control_c, 0, 64, 69
1, 89217, Control_c, 0, 64, 71
1, 89232, Control_c, 0, 64, 72
1, 89242, Note_off_c, 0, 50, 61
1, 89247, Control_c, 0, 64, 72
1, 89261, Note_off_c, 0, 68, 57
1, 89275, Note_on_c, 0, 48, 53
1, 89277, Control_c, 0, 64, 72
1, 89287, Note_on_c, 0, 65, 46
1, 89313, Control_c, 0, 64, 71
1, 89328, Control_c, 0, 64, 71
1, 89337, Note_off_c, 0, 48, 62
1, 89343, Control_c, 0, 64, 70
1, 89347, Note_off_c, 0, 58, 28
1, 89358, Control_c, 0, 64, 70
1, 89368, Note_on_c, 0, 50, 52
1, 89373, Control_c, 0, 64, 69
1, 89388, Control_c, 0, 64, 68
1, 89403, Control_c, 0, 64, 67
1, 89417, Control_c, 0, 64, 66
1, 89432, Control_c, 0, 64, 65
1, 89447, Control_c, 0, 64, 64
1, 89448, Note_off_c, 0, 50, 53
1, 89462, Control_c, 0, 64, 64
1, 89477, Control_c, 0, 64, 63
1, 89483, Note_on_c, 0, 51, 43
1, 89486, Note_on_c, 0, 68, 57
1, 89491, Control_c, 0, 64, 62
1, 89506, Control_c, 0, 64, 59
1, 89522, Control_c, 0, 64, 57
1, 89537, Control_c, 0, 64, 54
1, 89552, Control_c, 0, 64, 49
1, 89566, Control_c, 0, 64, 39
1, 89581, Control_c, 0, 64, 0
1, 89608, Note_off_c, 0, 65, 42
1, 89635, Note_on_c, 0, 58, 46
1, 89729, Control_c, 0, 64, 56
1, 89744, Control_c, 0, 64, 64
1, 89755, Note_on_c, 0, 63, 42
1, 89759, Control_c, 0, 64, 67
1, 89774, Control_c, 0, 64, 70
1, 89777, Note_off_c, 0, 58, 52
1, 89788, Control_c, 0, 64, 73
1, 89803, Control_c, 0, 64, 76
1, 89818, Control_c, 0, 64, 78
1, 89832, Control_c, 0, 64, 79
1, 89840, Note_off_c, 0, 68, 63
1, 89847, Control_c, 0, 64, 79
1, 89848, Note_on_c, 0, 66, 66
1, 89906, Note_off_c, 0, 63, 37
1, 89957, Note_on_c, 0, 58, 51
1, 89996, Control_c, 0, 64, 79
1, 90047, Control_c, 0, 64, 78
1, 90077, Control_c, 0, 64, 78
1, 90080, Note_off_c, 0, 66, 60
1, 90091, Note_on_c, 0, 63, 52
1, 90092, Control_c, 0, 64, 77
1, 90121, Control_c, 0, 64, 77
1, 90130, Note_off_c, 0, 58, 41
1, 90136, Control_c, 0, 64, 76
1, 90151, Control_c, 0, 64, 76
1, 90166, Control_c, 0, 64, 75
1, 90181, Control_c, 0, 64, 72
1, 90195, Control_c, 0, 64, 70
1, 90205, Note_on_c, 0, 65, 66
1, 90207, Note_off_c, 0, 63, 57
1, 90210, Control_c, 0, 64, 66
1, 90225, Control_c, 0, 64, 61
1, 90226, Note_on_c, 0, 44, 46
1, 90240, Control_c, 0, 64, 50
1, 90255, Note_off_c, 0, 51, 37
1, 90255, Control_c, 0, 64, 37
1, 90270, Control_c, 0, 64, 42
1, 90285, Control_c, 0, 64, 48
1, 90300, Control_c, 0, 64, 54
1, 90315, Control_c, 0, 64, 59
1, 90330, Control_c, 0, 64, 63
1, 90339, Note_on_c, 0, 56, 31
1, 90344, Control_c, 0, 64, 65
1, 90359, Control_c, 0, 64, 67
1, 90374, Control_c, 0, 64, 70
1, 90389, Control_c, 0, 64, 72
1, 90404, Control_c, 0, 64, 75
1, 90419, Note_off_c, 0, 56, 59
1, 90419, Control_c, 0, 64, 76
1, 90434, Control_c, 0, 64, 77
1, 90444, Note_on_c, 0, 59, 52
1, 90449, Control_c, 0, 64, 77
1, 90488, Note_off_c, 0, 59, 59
1, 90493, Control_c, 0, 64, 78
1, 90523, Control_c, 0, 64, 78
1, 90537, Control_c, 0, 64, 79
1, 90586, Note_on_c, 0, 71, 64
1, 90593, Note_off_c, 0, 65, 17
1, 90691, Note_on_c, 0, 59, 59
1, 90744, Control_c, 0, 64, 78
1, 90774, Control_c, 0, 64, 78
1, 90796, Note_off_c, 0, 71, 34
1, 90797, Control_c, 0, 64, 77
1, 90811, Control_c, 0, 64, 76
1, 90826, Control_c, 0, 64, 76
1, 90839, Note_on_c, 0, 65, 54
1, 90839, Note_off_c, 0, 59, 34
1, 90841, Control_c, 0, 64, 75
1, 90856, Control_c, 0, 64, 74
1, 90870, Control_c, 0, 64, 74
1, 90885, Control_c, 0, 64, 73
1, 90887, Note_off_c, 0, 44, 31
1, 90915, Control_c, 0, 64, 73
1, 90930, Control_c, 0, 64, 72
1, 90959, Control_c, 0, 64, 72
1, 90989, Control_c, 0, 64, 71
1, 91004, Control_c, 0, 64, 71
1, 91018, Control_c, 0, 64, 70
1, 91033, Control_c, 0, 64, 69
1, 91038, Note_off_c, 0, 65, 64
1, 91048, Control_c, 0, 64, 68
1, 91055, Note_on_c, 0, 63, 63
1, 91063, Control_c, 0, 64, 68
1, 91071, Note_on_c, 0, 46, 45
1, 91078, Control_c, 0, 64, 67
1, 91093, Control_c, 0, 64, 66
1, 91108, Control_c, 0, 64, 65
1, 91123, Control_c, 0, 64, 63
1, 91138, Control_c, 0, 64, 62
1, 91152, Control_c, 0, 64, 59
1, 91167, Control_c, 0, 64, 58
1, 91197, Control_c, 0, 64, 59
1, 91212, Control_c, 0, 64, 59
1, 91227, Control_c, 0, 64, 60
1, 91242, Control_c, 0, 64, 61
1, 91254, Note_on_c, 0, 51, 43
1, 91257, Control_c, 0, 64, 62
1, 91272, Control_c, 0, 64, 63
1, 91286, Control_c, 0, 64, 63
1, 91301, Control_c, 0, 64, 64
1, 91370, Note_on_c, 0, 54, 38
1, 91375, Control_c, 0, 64, 63
1, 91390, Control_c, 0, 64, 63
1, 91404, Control_c, 0, 64, 61
1, 91419, Control_c, 0, 64, 60
1, 91433, Note_off_c, 0, 51, 26
1, 91434, Control_c, 0, 64, 61
1, 91449, Control_c, 0, 64, 62
1, 91461, Note_off_c, 0, 54, 51
1, 91464, Control_c, 0, 64, 63
1, 91478, Control_c, 0, 64, 65
1, 91480, Note_on_c, 0, 58, 46
1, 91493, Control_c, 0, 64, 66
1, 91508, Control_c, 0, 64, 68
1, 91523, Control_c, 0, 64, 70
1, 91546, Note_off_c, 0, 58, 53
1, 91546, Control_c, 0, 64, 72
1, 91560, Control_c, 0, 64, 73
1, 91575, Control_c, 0, 64, 73
1, 91598, Note_on_c, 0, 54, 48
1, 91693, Control_c, 0, 64, 73
1, 91698, Note_off_c, 0, 63, 36
1, 91708, Control_c, 0, 64, 72
1, 91723, Control_c, 0, 64, 72
1, 91737, Note_on_c, 0, 51, 50
1, 91738, Control_c, 0, 64, 71
1, 91753, Control_c, 0, 64, 71
1, 91767, Control_c, 0, 64, 70
1, 91782, Control_c, 0, 64, 68
1, 91797, Control_c, 0, 64, 65
1, 91811, Control_c, 0, 64, 61
1, 91820, Note_off_c, 0, 54, 14
1, 91826, Control_c, 0, 64, 57
1, 91841, Control_c, 0, 64, 58
1, 91844, Note_off_c, 0, 51, 47
1, 91856, Control_c, 0, 64, 59
1, 91871, Control_c, 0, 64, 61
1, 91877, Note_on_c, 0, 62, 54
1, 91886, Control_c, 0, 64, 63
1, 91901, Control_c, 0, 64, 65
1, 91916, Control_c, 0, 64, 67
1, 91931, Control_c, 0, 64, 68
1, 91946, Control_c, 0, 64, 69
1, 91961, Control_c, 0, 64, 70
1, 91975, Control_c, 0, 64, 71
1, 91990, Control_c, 0, 64, 71
1, 91995, Note_on_c, 0, 50, 48
1, 92005, Control_c, 0, 64, 72
1, 92020, Control_c, 0, 64, 75
1, 92035, Control_c, 0, 64, 77
1, 92050, Control_c, 0, 64, 79
1, 92053, Note_off_c, 0, 62, 32
1, 92064, Control_c, 0, 64, 79
1, 92067, Note_off_c, 0, 50, 45
1, 92079, Control_c, 0, 64, 80
1, 92122, Note_on_c, 0, 53, 28
1, 92132, Note_on_c, 0, 58, 34
1, 92160, Note_off_c, 0, 53, 52
1, 92162, Note_off_c, 0, 58, 47
1, 92194, Note_off_c, 0, 46, 40
1, 92242, Control_c, 0, 64, 79
1, 92259, Note_on_c, 0, 50, 43
1, 92263, Note_on_c, 0, 70, 70
1, 92265, Note_on_c, 0, 38, 44
1, 92279, Control_c, 0, 64, 79
1, 92309, Control_c, 0, 64, 78
1, 92324, Control_c, 0, 64, 77
1, 92339, Control_c, 0, 64, 77
1, 92354, Control_c, 0, 64, 76
1, 92369, Control_c, 0, 64, 76
1, 92383, Control_c, 0, 64, 75
1, 92398, Control_c, 0, 64, 74
1, 92410, Note_off_c, 0, 50, 59
1, 92413, Control_c, 0, 64, 74
1, 92413, Note_on_c, 0, 58, 45
1, 92428, Control_c, 0, 64, 73
1, 92457, Control_c, 0, 64, 73
1, 92501, Note_off_c, 0, 70, 51
1, 92504, Note_off_c, 0, 58, 55
1, 92514, Note_off_c, 0, 38, 36
1, 92529, Note_on_c, 0, 65, 44
1, 92649, Control_c, 0, 64, 72
1, 92687, Note_on_c, 0, 68, 64
1, 92694, Control_c, 0, 64, 72
1, 92709, Note_on_c, 0, 51, 39
1, 92710, Control_c, 0, 64, 71
1, 92717, Note_on_c, 0, 39, 31
1, 92725, Control_c, 0, 64, 69
1, 92739, Control_c, 0, 64, 67
1, 92754, Control_c, 0, 64, 64
1, 92756, Note_off_c, 0, 65, 30
1, 92769, Control_c, 0, 64, 58
1, 92784, Control_c, 0, 64, 49
1, 92799, Control_c, 0, 64, 46
1, 92813, Control_c, 0, 64, 50
1, 92828, Control_c, 0, 64, 54
1, 92831, Note_on_c, 0, 58, 34
1, 92843, Control_c, 0, 64, 57
1, 92857, Control_c, 0, 64, 61
1, 92872, Control_c, 0, 64, 63
1, 92887, Control_c, 0, 64, 65
1, 92902, Control_c, 0, 64, 67
1, 92917, Control_c, 0, 64, 69
1, 92932, Control_c, 0, 64, 71
1, 92947, Control_c, 0, 64, 74
1, 92950, Note_on_c, 0, 63, 43
1, 92962, Control_c, 0, 64, 77
1, 92977, Control_c, 0, 64, 80
1, 92978, Note_off_c, 0, 58, 36
1, 92992, Control_c, 0, 64, 82
1, 93006, Control_c, 0, 64, 84
1, 93028, Control_c, 0, 64, 85
1, 93043, Control_c, 0, 64, 86
1, 93057, Control_c, 0, 64, 86
1, 93072, Control_c, 0, 64, 87
1, 93084, Note_off_c, 0, 68, 54
1, 93096, Note_on_c, 0, 66, 64
1, 93102, Control_c, 0, 64, 87
1, 93132, Control_c, 0, 64, 88
1, 93155, Note_off_c, 0, 51, 60
1, 93160, Note_off_c, 0, 63, 36
1, 93222, Note_on_c, 0, 58, 45
1, 93241, Note_off_c, 0, 39, 48
1, 93310, Control_c, 0, 64, 87
1, 93340, Control_c, 0, 64, 87
1, 93370, Control_c, 0, 64, 86
1, 93384, Control_c, 0, 64, 86
1, 93387, Note_on_c, 0, 63, 42
1, 93393, Note_off_c, 0, 66, 38
1, 93399, Control_c, 0, 64, 85
1, 93414, Control_c, 0, 64, 84
1, 93429, Control_c, 0, 64, 83
1, 93441, Note_off_c, 0, 58, 38
1, 93444, Control_c, 0, 64, 82
1, 93458, Control_c, 0, 64, 81
1, 93473, Control_c, 0, 64, 80
1, 93488, Control_c, 0, 64, 78
1, 93504, Control_c, 0, 64, 76
1, 93517, Note_on_c, 0, 64, 61
1, 93519, Control_c, 0, 64, 73
1, 93534, Control_c, 0, 64, 70
1, 93534, Note_off_c, 0, 63, 39
1, 93540, Note_on_c, 0, 32, 34
1, 93543, Note_on_c, 0, 44, 31
1, 93549, Control_c, 0, 64, 67
1, 93563, Control_c, 0, 64, 63
1, 93578, Control_c, 0, 64, 59
1, 93593, Control_c, 0, 64, 58
1, 93608, Control_c, 0, 64, 62
1, 93623, Control_c, 0, 64, 64
1, 93637, Control_c, 0, 64, 66
1, 93652, Control_c, 0, 64, 68
1, 93656, Note_on_c, 0, 56, 30
1, 93667, Control_c, 0, 64, 71
1, 93681, Control_c, 0, 64, 74
1, 93696, Control_c, 0, 64, 78
1, 93711, Control_c, 0, 64, 81
1, 93726, Control_c, 0, 64, 84
1, 93741, Control_c, 0, 64, 86
1, 93755, Control_c, 0, 64, 87
1, 93770, Control_c, 0, 64, 88
1, 93793, Control_c, 0, 64, 89
1, 93808, Control_c, 0, 64, 90
1, 93810, Note_off_c, 0, 64, 56
1, 93811, Note_off_c, 0, 56, 41
1, 93814, Note_on_c, 0, 59, 32
1, 93847, Note_off_c, 0, 59, 48
1, 93967, Note_on_c, 0, 71, 56
1, 94101, Note_on_c, 0, 59, 43
1, 94155, Note_off_c, 0, 44, 38
1, 94178, Note_off_c, 0, 71, 28
1, 94232, Note_off_c, 0, 32, 40
1, 94258, Note_on_c, 0, 64, 37
1, 94271, Note_off_c, 0, 59, 40
1, 94281, Control_c, 0, 64, 89
1, 94288, Note_off_c, 0, 64, 50
1, 94327, Control_c, 0, 64, 89
1, 94357, Control_c, 0, 64, 88
1, 94386, Control_c, 0, 64, 88
1, 94401, Control_c, 0, 64, 87
1, 94416, Control_c, 0, 64, 87
1, 94430, Control_c, 0, 64, 86
1, 94445, Control_c, 0, 64, 86
1, 94460, Control_c, 0, 64, 85
1, 94475, Control_c, 0, 64, 84
1, 94490, Control_c, 0, 64, 83
1, 94491, Note_on_c, 0, 63, 63
1, 94501, Note_on_c, 0, 42, 37
1, 94502, Note_on_c, 0, 30, 39
1, 94504, Control_c, 0, 64, 82
1, 94519, Control_c, 0, 64, 81
1, 94542, Control_c, 0, 64, 79
1, 94556, Control_c, 0, 64, 78
1, 94571, Control_c, 0, 64, 76
1, 94586, Control_c, 0, 64, 74
1, 94601, Control_c, 0, 64, 72
1, 94616, Control_c, 0, 64, 68
1, 94630, Control_c, 0, 64, 64
1, 94645, Control_c, 0, 64, 56
1, 94660, Control_c, 0, 64, 39
1, 94675, Control_c, 0, 64, 11
1, 94690, Control_c, 0, 64, 0
1, 94719, Control_c, 0, 64, 11
1, 94734, Control_c, 0, 64, 23
1, 94743, Note_on_c, 0, 51, 35
1, 94749, Control_c, 0, 64, 35
1, 94764, Control_c, 0, 64, 47
1, 94778, Control_c, 0, 64, 54
1, 94793, Control_c, 0, 64, 59
1, 94808, Control_c, 0, 64, 62
1, 94822, Control_c, 0, 64, 64
1, 94837, Control_c, 0, 64, 65
1, 94852, Control_c, 0, 64, 68
1, 94867, Control_c, 0, 64, 71
1, 94872, Note_on_c, 0, 54, 33
1, 94881, Control_c, 0, 64, 74
1, 94896, Control_c, 0, 64, 77
1, 94911, Control_c, 0, 64, 79
1, 94926, Control_c, 0, 64, 81
1, 94941, Control_c, 0, 64, 83
1, 94956, Control_c, 0, 64, 84
1, 94970, Control_c, 0, 64, 85
1, 94985, Control_c, 0, 64, 86
1, 94990, Note_on_c, 0, 59, 46
1, 95005, Note_off_c, 0, 54, 36
1, 95047, Note_off_c, 0, 51, 30
1, 95109, Note_off_c, 0, 59, 53
1, 95138, Note_on_c, 0, 54, 40
1, 95230, Note_off_c, 0, 54, 52
1, 95239, Note_off_c, 0, 30, 40
1, 95290, Note_on_c, 0, 51, 38
1, 95334, Control_c, 0, 64, 85
1, 95379, Control_c, 0, 64, 85
1, 95408, Control_c, 0, 64, 84
1, 95423, Control_c, 0, 64, 84
1, 95438, Control_c, 0, 64, 83
1, 95452, Control_c, 0, 64, 82
1, 95460, Note_off_c, 0, 63, 42
1, 95465, Note_on_c, 0, 61, 55
1, 95467, Control_c, 0, 64, 81
1, 95474, Note_off_c, 0, 51, 39
1, 95482, Control_c, 0, 64, 80
1, 95497, Control_c, 0, 64, 78
1, 95506, Note_on_c, 0, 40, 39
1, 95512, Control_c, 0, 64, 75
1, 95526, Control_c, 0, 64, 72
1, 95541, Control_c, 0, 64, 70
1, 95542, Note_off_c, 0, 42, 32
1, 95556, Control_c, 0, 64, 67
1, 95571, Control_c, 0, 64, 65
1, 95586, Control_c, 0, 64, 64
1, 95600, Control_c, 0, 64, 62
1, 95615, Control_c, 0, 64, 60
1, 95630, Control_c, 0, 64, 59
1, 95640, Note_on_c, 0, 49, 40
1, 95645, Control_c, 0, 64, 58
1, 95674, Control_c, 0, 64, 59
1, 95689, Control_c, 0, 64, 60
1, 95704, Control_c, 0, 64, 61
1, 95719, Control_c, 0, 64, 63
1, 95734, Control_c, 0, 64, 64
1, 95749, Control_c, 0, 64, 65
1, 95764, Control_c, 0, 64, 66
1, 95776, Note_on_c, 0, 54, 31
1, 95778, Control_c, 0, 64, 66
1, 95793, Control_c, 0, 64, 67
1, 95808, Control_c, 0, 64, 68
1, 95823, Control_c, 0, 64, 69
1, 95838, Control_c, 0, 64, 71
1, 95852, Control_c, 0, 64, 72
1, 95867, Control_c, 0, 64, 73
1, 95882, Control_c, 0, 64, 75
1, 95898, Control_c, 0, 64, 77
1, 95913, Control_c, 0, 64, 79
1, 95928, Control_c, 0, 64, 80
1, 95939, Note_off_c, 0, 61, 0
1, 95943, Control_c, 0, 64, 82
1, 95943, Note_off_c, 0, 49, 13
1, 95953, Note_on_c, 0, 58, 35
1, 95954, Note_off_c, 0, 54, 37
1, 95957, Control_c, 0, 64, 83
1, 95972, Control_c, 0, 64, 84
1, 95975, Poly_aftertouch_c, 0, 61, 127
1, 95987, Control_c, 0, 64, 85
1, 96002, Control_c, 0, 64, 86
1, 96017, Control_c, 0, 64, 87
1, 96038, Control_c, 0, 64, 88
1, 96053, Control_c, 0, 64, 88
1, 96149, Note_on_c, 0, 54, 30
1, 96179, Poly_aftertouch_c, 0, 61, 0
1, 96187, Control_c, 0, 67, 124
1, 96201, Control_c, 0, 67, 122
1, 96216, Control_c, 0, 67, 121
1, 96231, Control_c, 0, 67, 120
1, 96238, Note_off_c, 0, 58, 20
1, 96246, Control_c, 0, 67, 120
1, 96275, Control_c, 0, 67, 120
1, 96290, Control_c, 0, 67, 121
1, 96305, Control_c, 0, 67, 122
1, 96320, Control_c, 0, 67, 123
1, 96335, Control_c, 0, 67, 123
1, 96349, Control_c, 0, 67, 124
1, 96354, Note_on_c, 0, 49, 29
1, 96364, Control_c, 0, 67, 124
1, 96379, Control_c, 0, 67, 125
1, 96394, Control_c, 0, 67, 126
1, 96400, Note_off_c, 0, 49, 47
1, 96408, Control_c, 0, 67, 127
1, 96423, Control_c, 0, 67, 127
1, 96430, Note_off_c, 0, 54, 39
1, 96527, Control_c, 0, 64, 88
1, 96586, Control_c, 0, 64, 87
1, 96646, Control_c, 0, 64, 87
1, 96675, Control_c, 0, 64, 86
1, 96706, Control_c, 0, 64, 86
1, 96736, Control_c, 0, 64, 85
1, 96750, Control_c, 0, 64, 85
1, 96752, Note_on_c, 0, 66, 54
1, 96772, Control_c, 0, 64, 84
1, 96787, Control_c, 0, 64, 83
1, 96792, Note_on_c, 0, 39, 31
1, 96802, Control_c, 0, 64, 82
1, 96817, Control_c, 0, 64, 81
1, 96831, Control_c, 0, 64, 80
1, 96846, Control_c, 0, 64, 78
1, 96861, Control_c, 0, 64, 75
1, 96876, Control_c, 0, 64, 72
1, 96889, Note_off_c, 0, 40, 39
1, 96891, Control_c, 0, 64, 69
1, 96905, Control_c, 0, 64, 65
1, 96920, Control_c, 0, 64, 60
1, 96935, Control_c, 0, 64, 54
1, 96950, Control_c, 0, 64, 53
1, 96995, Control_c, 0, 64, 53
1, 97010, Control_c, 0, 64, 53
1, 97024, Control_c, 0, 64, 55
1, 97039, Control_c, 0, 64, 57
1, 97054, Control_c, 0, 64, 61
1, 97064, Note_on_c, 0, 54, 23
1, 97069, Control_c, 0, 64, 64
1, 97084, Control_c, 0, 64, 65
1, 97099, Control_c, 0, 64, 67
1, 97114, Control_c, 0, 64, 69
1, 97129, Control_c, 0, 64, 72
1, 97144, Control_c, 0, 64, 75
1, 97159, Control_c, 0, 64, 78
1, 97173, Control_c, 0, 64, 80
1, 97188, Control_c, 0, 64, 81
1, 97203, Control_c, 0, 64, 82
1, 97218, Control_c, 0, 64, 83
1, 97229, Note_on_c, 0, 59, 26
1, 97232, Control_c, 0, 64, 84
1, 97247, Control_c, 0, 64, 85
1, 97262, Control_c, 0, 64, 86
1, 97277, Control_c, 0, 64, 86
1, 97292, Control_c, 0, 64, 87
1, 97322, Note_off_c, 0, 54, 20
1, 97351, Control_c, 0, 64, 87
1, 97352, Note_on_c, 0, 63, 40
1, 97364, Note_off_c, 0, 59, 39
1, 97410, Control_c, 0, 64, 88
1, 97488, Note_off_c, 0, 63, 39
1, 97498, Note_on_c, 0, 59, 36
1, 97561, Note_off_c, 0, 59, 43
1, 97609, Note_on_c, 0, 54, 25
1, 97655, Control_c, 0, 67, 118
1, 97659, Note_off_c, 0, 54, 44
1, 97670, Control_c, 0, 67, 105
1, 97685, Control_c, 0, 64, 88
1, 97685, Control_c, 0, 67, 92
1, 97700, Note_on_c, 0, 59, 34
1, 97700, Control_c, 0, 67, 77
1, 97715, Control_c, 0, 67, 63
1, 97729, Control_c, 0, 67, 48
1, 97744, Control_c, 0, 67, 35
1, 97759, Control_c, 0, 67, 30
1, 97767, Note_off_c, 0, 59, 40
1, 97774, Control_c, 0, 67, 30
1, 97802, Note_on_c, 0, 54, 29
1, 97803, Control_c, 0, 67, 28
1, 97818, Control_c, 0, 67, 25
1, 97833, Control_c, 0, 67, 14
1, 97847, Control_c, 0, 67, 0
1, 97906, Note_off_c, 0, 54, 31
1, 97907, Control_c, 0, 64, 89
1, 97910, Note_on_c, 0, 59, 33
1, 97966, Note_off_c, 0, 59, 40
1, 98005, Note_on_c, 0, 63, 47
1, 98019, Note_off_c, 0, 66, 36
1, 98086, Note_off_c, 0, 63, 52
1, 98134, Note_on_c, 0, 59, 27
1, 98159, Control_c, 0, 67, 10
1, 98173, Control_c, 0, 64, 88
1, 98173, Control_c, 0, 67, 18
1, 98188, Control_c, 0, 67, 31
1, 98203, Control_c, 0, 67, 48
1, 98218, Control_c, 0, 67, 63
1, 98233, Control_c, 0, 64, 88
1, 98233, Control_c, 0, 67, 77
1, 98235, Note_off_c, 0, 59, 32
1, 98238, Note_on_c, 0, 54, 36
1, 98247, Control_c, 0, 67, 84
1, 98262, Control_c, 0, 67, 90
1, 98285, Control_c, 0, 64, 87
1, 98285, Control_c, 0, 67, 94
1, 98301, Control_c, 0, 67, 96
1, 98315, Control_c, 0, 64, 87
1, 98315, Control_c, 0, 67, 98
1, 98330, Control_c, 0, 67, 98
1, 98337, Note_off_c, 0, 54, 37
1, 98345, Control_c, 0, 64, 86
1, 98360, Control_c, 0, 64, 85
1, 98360, Control_c, 0, 67, 99
1, 98375, Control_c, 0, 64, 84
1, 98390, Control_c, 0, 64, 83
1, 98390, Control_c, 0, 67, 100
1, 98390, Note_on_c, 0, 66, 58
1, 98405, Control_c, 0, 64, 82
1, 98405, Control_c, 0, 67, 101
1, 98419, Control_c, 0, 64, 82
1, 98419, Control_c, 0, 67, 101
1, 98424, Note_on_c, 0, 37, 34
1, 98434, Control_c, 0, 64, 81
1, 98434, Control_c, 0, 67, 102
1, 98449, Control_c, 0, 64, 79
1, 98464, Control_c, 0, 64, 77
1, 98478, Control_c, 0, 64, 74
1, 98478, Control_c, 0, 67, 102
1, 98485, Note_off_c, 0, 39, 28
1, 98493, Control_c, 0, 64, 69
1, 98508, Control_c, 0, 64, 65
1, 98508, Control_c, 0, 67, 103
1, 98512, Note_on_c, 0, 54, 40
1, 98523, Control_c, 0, 64, 59
1, 98523, Control_c, 0, 67, 104
1, 98538, Control_c, 0, 64, 50
1, 98538, Control_c, 0, 67, 106
1, 98552, Control_c, 0, 64, 43
1, 98552, Control_c, 0, 67, 108
1, 98566, Control_c, 0, 64, 42
1, 98566, Control_c, 0, 67, 109
1, 98581, Control_c, 0, 64, 44
1, 98581, Control_c, 0, 67, 109
1, 98596, Control_c, 0, 64, 48
1, 98596, Control_c, 0, 67, 111
1, 98611, Control_c, 0, 64, 54
1, 98611, Control_c, 0, 67, 112
1, 98625, Control_c, 0, 64, 60
1, 98625, Control_c, 0, 67, 114
1, 98634, Note_on_c, 0, 58, 43
1, 98640, Control_c, 0, 64, 63
1, 98640, Control_c, 0, 67, 115
1, 98655, Control_c, 0, 64, 65
1, 98655, Control_c, 0, 67, 116
1, 98670, Control_c, 0, 64, 67
1, 98685, Control_c, 0, 64, 72
1, 98685, Control_c, 0, 67, 116
1, 98700, Note_off_c, 0, 58, 59
1, 98700, Control_c, 0, 64, 76
1, 98700, Control_c, 0, 67, 118
1, 98715, Control_c, 0, 64, 79
1, 98715, Control_c, 0, 67, 120
1, 98730, Control_c, 0, 64, 82
1, 98730, Control_c, 0, 67, 122
1, 98734, Note_off_c, 0, 54, 21
1, 98740, Note_on_c, 0, 64, 49
1, 98744, Control_c, 0, 64, 84
1, 98744, Control_c, 0, 67, 123
1, 98754, Note_off_c, 0, 66, 36
1, 98759, Control_c, 0, 64, 86
1, 98774, Control_c, 0, 64, 88
1, 98774, Control_c, 0, 67, 123
1, 98789, Control_c, 0, 64, 89
1, 98789, Control_c, 0, 67, 124
1, 98803, Control_c, 0, 64, 90
1, 98803, Control_c, 0, 67, 125
1, 98818, Control_c, 0, 67, 126
1, 98833, Control_c, 0, 64, 91
1, 98833, Control_c, 0, 67, 126
1, 98841, Note_on_c, 0, 58, 44
1, 98863, Control_c, 0, 67, 127
1, 98869, Note_off_c, 0, 64, 37
1, 98877, Control_c, 0, 64, 91
1, 98937, Control_c, 0, 67, 126
1, 98948, Note_off_c, 0, 58, 55
1, 98975, Note_on_c, 0, 54, 50
1, 98995, Control_c, 0, 67, 126
1, 99010, Control_c, 0, 67, 125
1, 99026, Note_off_c, 0, 54, 59
1, 99102, Note_on_c, 0, 68, 59
1, 99222, Note_on_c, 0, 58, 50
1, 99345, Note_on_c, 0, 64, 45
1, 99374, Control_c, 0, 67, 126
1, 99400, Note_off_c, 0, 58, 34
1, 99418, Control_c, 0, 67, 125
1, 99448, Control_c, 0, 67, 125
1, 99463, Note_on_c, 0, 66, 71
1, 99463, Control_c, 0, 64, 91
1, 99493, Control_c, 0, 64, 90
1, 99493, Control_c, 0, 67, 124
1, 99496, Note_off_c, 0, 68, 37
1, 99517, Note_off_c, 0, 64, 35
1, 99538, Control_c, 0, 64, 90
1, 99567, Control_c, 0, 64, 89
1, 99597, Control_c, 0, 64, 89
1, 99597, Note_on_c, 0, 64, 46
1, 99626, Control_c, 0, 64, 88
1, 99658, Note_off_c, 0, 64, 49
1, 99715, Control_c, 0, 64, 88
1, 99728, Note_off_c, 0, 66, 27
1, 99737, Note_on_c, 0, 58, 44
1, 99760, Note_off_c, 0, 58, 58
1, 99812, Control_c, 0, 64, 87
1, 99812, Control_c, 0, 67, 124
1, 99856, Control_c, 0, 64, 87
1, 99886, Control_c, 0, 64, 86
1, 99886, Control_c, 0, 67, 123
1, 99916, Control_c, 0, 64, 86
1, 99931, Control_c, 0, 64, 85
1, 99946, Control_c, 0, 64, 85
1, 99958, Note_on_c, 0, 35, 35
1, 99961, Control_c, 0, 64, 84
1, 99976, Control_c, 0, 64, 84
1, 99991, Control_c, 0, 64, 83
1, 100005, Control_c, 0, 64, 82
1, 100020, Control_c, 0, 64, 81
1, 100028, Note_on_c, 0, 75, 70
1, 100035, Control_c, 0, 64, 80
1, 100049, Control_c, 0, 64, 79
1, 100065, Control_c, 0, 64, 77
1, 100080, Control_c, 0, 64, 75
1, 100092, Note_off_c, 0, 37, 39
1, 100095, Control_c, 0, 64, 73
1, 100110, Control_c, 0, 64, 69
1, 100124, Control_c, 0, 64, 63
1, 100139, Control_c, 0, 64, 54
1, 100154, Control_c, 0, 64, 42
1, 100169, Control_c, 0, 64, 37
1, 100184, Control_c, 0, 64, 36
1, 100213, Control_c, 0, 64, 37
1, 100228, Control_c, 0, 64, 43
1, 100242, Control_c, 0, 64, 52
1, 100257, Control_c, 0, 64, 60
1, 100257, Control_c, 0, 67, 124
1, 100272, Control_c, 0, 64, 64
1, 100287, Control_c, 0, 64, 66
1, 100296, Note_on_c, 0, 63, 36
1, 100302, Control_c, 0, 64, 68
1, 100316, Control_c, 0, 64, 73
1, 100316, Control_c, 0, 67, 124
1, 100331, Control_c, 0, 64, 77
1, 100346, Control_c, 0, 64, 80
1, 100346, Control_c, 0, 67, 125
1, 100361, Control_c, 0, 64, 82
1, 100361, Control_c, 0, 67, 125
1, 100375, Control_c, 0, 64, 84
1, 100390, Control_c, 0, 64, 85
1, 100390, Control_c, 0, 67, 126
1, 100405, Control_c, 0, 64, 87
1, 100408, Note_on_c, 0, 66, 40
1, 100420, Control_c, 0, 64, 88
1, 100420, Control_c, 0, 67, 127
1, 100435, Control_c, 0, 64, 89
1, 100435, Control_c, 0, 67, 127
1, 100450, Control_c, 0, 64, 90
1, 100465, Control_c, 0, 64, 90
1, 100519, Note_off_c, 0, 63, 38
1, 100537, Note_off_c, 0, 66, 43
1, 100539, Note_on_c, 0, 71, 41
1, 100661, Note_on_c, 0, 66, 28
1, 100704, Note_off_c, 0, 66, 50
1, 100745, Note_on_c, 0, 63, 32
1, 100807, Note_off_c, 0, 63, 40
1, 100828, Note_off_c, 0, 71, 13
1, 100836, Note_on_c, 0, 66, 41
1, 100837, Note_off_c, 0, 75, 40
1, 100942, Note_on_c, 0, 63, 47
1, 100966, Note_off_c, 0, 66, 38
1, 101081, Note_on_c, 0, 66, 30
1, 101150, Note_off_c, 0, 66, 40
1, 101159, Note_on_c, 0, 73, 65
1, 101199, Note_off_c, 0, 63, 41
1, 101242, Control_c, 0, 64, 90
1, 101278, Control_c, 0, 64, 89
1, 101304, Note_on_c, 0, 67, 48
1, 101308, Control_c, 0, 64, 89
1, 101338, Control_c, 0, 64, 88
1, 101368, Control_c, 0, 64, 88
1, 101371, Note_off_c, 0, 73, 28
1, 101383, Control_c, 0, 64, 87
1, 101383, Note_off_c, 0, 67, 51
1, 101397, Control_c, 0, 64, 87
1, 101427, Control_c, 0, 64, 86
1, 101427, Note_on_c, 0, 64, 42
1, 101457, Control_c, 0, 64, 86
1, 101486, Control_c, 0, 64, 85
1, 101517, Control_c, 0, 64, 85
1, 101532, Control_c, 0, 64, 84
1, 101547, Control_c, 0, 64, 84
1, 101562, Control_c, 0, 64, 83
1, 101576, Control_c, 0, 64, 83
1, 101591, Control_c, 0, 64, 82
1, 101599, Note_on_c, 0, 73, 65
1, 101606, Control_c, 0, 64, 80
1, 101620, Control_c, 0, 64, 78
1, 101632, Note_on_c, 0, 40, 37
1, 101635, Control_c, 0, 64, 75
1, 101650, Control_c, 0, 64, 69
1, 101665, Control_c, 0, 64, 61
1, 101680, Control_c, 0, 64, 0
1, 101690, Note_off_c, 0, 35, 26
1, 101723, Note_off_c, 0, 64, 39
1, 101739, Control_c, 0, 64, 26
1, 101754, Control_c, 0, 64, 54
1, 101766, Note_on_c, 0, 68, 56
1, 101768, Control_c, 0, 64, 62
1, 101783, Control_c, 0, 64, 66
1, 101798, Control_c, 0, 64, 70
1, 101812, Control_c, 0, 64, 74
1, 101818, Note_off_c, 0, 73, 37
1, 101827, Control_c, 0, 64, 78
1, 101842, Control_c, 0, 64, 82
1, 101857, Control_c, 0, 64, 83
1, 101872, Control_c, 0, 64, 84
1, 101887, Control_c, 0, 64, 85
1, 101901, Control_c, 0, 64, 86
1, 101902, Note_off_c, 0, 68, 61
1, 101913, Note_on_c, 0, 59, 51
1, 101916, Control_c, 0, 64, 86
1, 102006, Note_on_c, 0, 71, 62
1, 102008, Note_off_c, 0, 59, 36
1, 102111, Note_on_c, 0, 68, 56
1, 102201, Note_off_c, 0, 68, 61
1, 102227, Note_on_c, 0, 59, 48
1, 102288, Note_off_c, 0, 59, 37
1, 102335, Note_on_c, 0, 68, 65
1, 102447, Note_off_c, 0, 71, 28
1, 102472, Note_on_c, 0, 64, 48
1, 102478, Note_off_c, 0, 68, 53
1, 102525, Note_off_c, 0, 64, 61
1, 102584, Note_on_c, 0, 59, 39
1, 102648, Note_off_c, 0, 59, 39
1, 102709, Note_on_c, 0, 64, 55
1, 102799, Note_off_c, 0, 64, 59
1, 102828, Note_on_c, 0, 61, 50
1, 102850, Control_c, 0, 64, 86
1, 102874, Note_off_c, 0, 61, 57
1, 102910, Control_c, 0, 64, 85
1, 102939, Control_c, 0, 64, 85
1, 102952, Note_on_c, 0, 56, 55
1, 102954, Control_c, 0, 64, 84
1, 102969, Control_c, 0, 64, 84
1, 102984, Control_c, 0, 64, 83
1, 102998, Control_c, 0, 64, 83
1, 103013, Control_c, 0, 64, 82
1, 103043, Note_off_c, 0, 40, 19
1, 103043, Control_c, 0, 64, 82
1, 103048, Note_off_c, 0, 56, 33
1, 103058, Control_c, 0, 64, 81
1, 103073, Control_c, 0, 64, 81
1, 103089, Control_c, 0, 64, 80
1, 103104, Control_c, 0, 64, 79
1, 103119, Control_c, 0, 64, 79
1, 103133, Control_c, 0, 64, 78
1, 103148, Control_c, 0, 64, 77
1, 103152, Note_on_c, 0, 63, 56
1, 103163, Control_c, 0, 64, 76
1, 103178, Control_c, 0, 64, 73
1, 103192, Control_c, 0, 64, 71
1, 103195, Note_on_c, 0, 42, 30
1, 103207, Control_c, 0, 64, 68
1, 103222, Control_c, 0, 64, 64
1, 103237, Control_c, 0, 64, 57
1, 103252, Control_c, 0, 64, 42
1, 103267, Control_c, 0, 64, 0
1, 103356, Control_c, 0, 64, 11
1, 103359, Note_on_c, 0, 51, 32
1, 103371, Control_c, 0, 64, 56
1, 103385, Control_c, 0, 64, 63
1, 103400, Control_c, 0, 64, 65
1, 103415, Control_c, 0, 64, 68
1, 103430, Control_c, 0, 64, 70
1, 103445, Control_c, 0, 64, 73
1, 103459, Control_c, 0, 64, 76
1, 103460, Note_on_c, 0, 54, 35
1, 103462, Note_off_c, 0, 51, 30
1, 103474, Control_c, 0, 64, 79
1, 103489, Control_c, 0, 64, 81
1, 103504, Control_c, 0, 64, 83
1, 103526, Control_c, 0, 64, 84
1, 103541, Control_c, 0, 64, 85
1, 103556, Control_c, 0, 64, 85
1, 103566, Note_off_c, 0, 54, 35
1, 103586, Control_c, 0, 64, 86
1, 103591, Note_on_c, 0, 59, 30
1, 103615, Control_c, 0, 64, 86
1, 103645, Control_c, 0, 64, 87
1, 103660, Control_c, 0, 64, 87
1, 103660, Note_off_c, 0, 59, 38
1, 103689, Control_c, 0, 64, 88
1, 103693, Note_on_c, 0, 54, 42
1, 103719, Control_c, 0, 64, 88
1, 103734, Control_c, 0, 64, 89
1, 103744, Note_off_c, 0, 54, 44
1, 103778, Control_c, 0, 64, 89
1, 103806, Note_on_c, 0, 51, 29
1, 103837, Control_c, 0, 64, 90
1, 103853, Note_off_c, 0, 51, 48
1, 103887, Note_on_c, 0, 54, 39
1, 103905, Note_off_c, 0, 63, 38
1, 103982, Note_off_c, 0, 54, 56
1, 104018, Note_on_c, 0, 51, 33
1, 104134, Note_off_c, 0, 42, 42
1, 104145, Note_on_c, 0, 54, 23
1, 104180, Note_off_c, 0, 51, 26
1, 104196, Note_off_c, 0, 54, 45
1, 104206, Note_on_c, 0, 63, 58
1, 104225, Note_on_c, 0, 59, 48
1, 104313, Note_on_c, 0, 54, 50
1, 104319, Control_c, 0, 64, 89
1, 104357, Note_off_c, 0, 59, 35
1, 104364, Control_c, 0, 64, 89
1, 104384, Note_off_c, 0, 63, 38
1, 104393, Control_c, 0, 64, 88
1, 104395, Note_off_c, 0, 54, 50
1, 104423, Control_c, 0, 64, 88
1, 104434, Note_on_c, 0, 51, 47
1, 104438, Control_c, 0, 64, 87
1, 104465, Note_off_c, 0, 51, 49
1, 104468, Control_c, 0, 64, 87
1, 104512, Control_c, 0, 64, 86
1, 104527, Control_c, 0, 64, 86
1, 104556, Control_c, 0, 64, 85
1, 104571, Control_c, 0, 64, 85
1, 104586, Control_c, 0, 64, 84
1, 104601, Control_c, 0, 64, 84
1, 104615, Control_c, 0, 64, 83
1, 104625, Note_on_c, 0, 68, 67
1, 104630, Control_c, 0, 64, 81
1, 104645, Control_c, 0, 64, 80
1, 104656, Note_on_c, 0, 42, 37
1, 104659, Note_on_c, 0, 49, 40
1, 104660, Control_c, 0, 64, 77
1, 104675, Control_c, 0, 64, 75
1, 104691, Control_c, 0, 64, 72
1, 104706, Control_c, 0, 64, 69
1, 104720, Control_c, 0, 64, 64
1, 104735, Control_c, 0, 64, 53
1, 104750, Control_c, 0, 64, 0
1, 104778, Note_on_c, 0, 58, 44
1, 104868, Control_c, 0, 64, 43
1, 104883, Control_c, 0, 64, 59
1, 104890, Note_on_c, 0, 61, 43
1, 104898, Control_c, 0, 64, 64
1, 104912, Control_c, 0, 64, 67
1, 104927, Control_c, 0, 64, 69
1, 104942, Control_c, 0, 64, 71
1, 104954, Note_off_c, 0, 58, 31
1, 104957, Control_c, 0, 64, 74
1, 104972, Control_c, 0, 64, 76
1, 104987, Control_c, 0, 64, 79
1, 104999, Note_off_c, 0, 68, 54
1, 104999, Note_on_c, 0, 66, 62
1, 105009, Control_c, 0, 64, 80
1, 105024, Control_c, 0, 64, 81
1, 105025, Note_off_c, 0, 61, 47
1, 105038, Control_c, 0, 64, 82
1, 105053, Control_c, 0, 64, 82
1, 105068, Control_c, 0, 64, 83
1, 105083, Control_c, 0, 64, 83
1, 105130, Note_on_c, 0, 58, 43
1, 105269, Note_on_c, 0, 61, 34
1, 105273, Note_off_c, 0, 66, 50
1, 105279, Note_off_c, 0, 58, 40
1, 105371, Note_on_c, 0, 64, 56
1, 105404, Note_off_c, 0, 61, 36
1, 105535, Note_on_c, 0, 54, 36
1, 105644, Note_on_c, 0, 58, 39
1, 105660, Note_off_c, 0, 64, 33
1, 105761, Note_off_c, 0, 54, 18
1, 105786, Note_on_c, 0, 61, 57
1, 105816, Note_off_c, 0, 58, 36
1, 105822, Note_on_c, 0, 52, 40
1, 105880, Note_off_c, 0, 52, 62
1, 105911, Note_off_c, 0, 49, 38
1, 105932, Note_on_c, 0, 54, 39
1, 105947, Note_off_c, 0, 42, 62
1, 105994, Control_c, 0, 64, 83
1, 106024, Note_off_c, 0, 61, 28
1, 106068, Control_c, 0, 64, 82
1, 106096, Note_on_c, 0, 58, 33
1, 106125, Note_off_c, 0, 58, 55
1, 106142, Control_c, 0, 64, 82
1, 106152, Note_off_c, 0, 54, 36
1, 106201, Control_c, 0, 64, 81
1, 106246, Control_c, 0, 64, 81
1, 106275, Control_c, 0, 64, 80
1, 106306, Control_c, 0, 64, 80
1, 106351, Control_c, 0, 64, 79
1, 106365, Control_c, 0, 64, 79
1, 106376, Note_on_c, 0, 59, 55
1, 106380, Control_c, 0, 64, 78
1, 106395, Control_c, 0, 64, 76
1, 106406, Note_on_c, 0, 35, 30
1, 106409, Control_c, 0, 64, 75
1, 106424, Control_c, 0, 64, 72
1, 106439, Control_c, 0, 64, 67
1, 106454, Control_c, 0, 64, 62
1, 106469, Control_c, 0, 64, 44
1, 106483, Control_c, 0, 64, 0
1, 106684, Note_on_c, 0, 47, 29
1, 106698, Control_c, 0, 64, 56
1, 106713, Control_c, 0, 64, 64
1, 106728, Control_c, 0, 64, 67
1, 106743, Control_c, 0, 64, 69
1, 106757, Control_c, 0, 64, 72
1, 106772, Control_c, 0, 64, 75
1, 106787, Control_c, 0, 64, 78
1, 106796, Note_on_c, 0, 51, 31
1, 106803, Control_c, 0, 64, 80
1, 106817, Control_c, 0, 64, 82
1, 106829, Note_off_c, 0, 47, 28
1, 106832, Control_c, 0, 64, 83
1, 106847, Control_c, 0, 64, 84
1, 106862, Control_c, 0, 64, 84
1, 106877, Control_c, 0, 64, 85
1, 106891, Control_c, 0, 64, 86
1, 106906, Control_c, 0, 64, 87
1, 106914, Note_on_c, 0, 54, 34
1, 106921, Control_c, 0, 64, 87
1, 106922, Note_off_c, 0, 51, 35
1, 106936, Control_c, 0, 64, 88
1, 106981, Control_c, 0, 64, 88
1, 107007, Note_off_c, 0, 54, 32
1, 107068, Note_on_c, 0, 51, 22
1, 107109, Note_off_c, 0, 51, 49
1, 107163, Note_on_c, 0, 47, 10
1, 107218, Note_off_c, 0, 47, 46
1, 107257, Note_on_c, 0, 51, 25
1, 107347, Note_off_c, 0, 51, 38
1, 107373, Note_on_c, 0, 47, 27
1, 107482, Note_on_c, 0, 51, 36
1, 107565, Note_off_c, 0, 47, 39
1, 107596, Note_off_c, 0, 59, 37
1, 107596, Control_c, 0, 64, 88
1, 107607, Note_off_c, 0, 51, 35
1, 107618, Note_on_c, 0, 54, 35
1, 107655, Control_c, 0, 64, 87
1, 107685, Control_c, 0, 64, 87
1, 107759, Note_on_c, 0, 51, 29
1, 107774, Control_c, 0, 64, 86
1, 107819, Control_c, 0, 64, 86
1, 107848, Control_c, 0, 64, 85
1, 107867, Note_off_c, 0, 51, 30
1, 107878, Control_c, 0, 64, 85
1, 107879, Note_on_c, 0, 47, 28
1, 107893, Control_c, 0, 64, 84
1, 107908, Control_c, 0, 64, 84
1, 107913, Note_off_c, 0, 54, 25
1, 107923, Control_c, 0, 64, 83
1, 107953, Control_c, 0, 64, 83
1, 107968, Control_c, 0, 64, 82
1, 107982, Control_c, 0, 64, 82
1, 108019, Control_c, 0, 64, 81
1, 108049, Control_c, 0, 64, 81
1, 108063, Control_c, 0, 64, 80
1, 108072, Note_off_c, 0, 47, 37
1, 108078, Control_c, 0, 64, 78
1, 108093, Control_c, 0, 64, 76
1, 108108, Note_on_c, 0, 59, 39
1, 108108, Control_c, 0, 64, 75
1, 108123, Control_c, 0, 64, 72
1, 108127, Note_on_c, 0, 31, 39
1, 108137, Control_c, 0, 64, 70
1, 108152, Control_c, 0, 64, 67
1, 108166, Note_off_c, 0, 35, 40
1, 108167, Control_c, 0, 64, 64
1, 108182, Control_c, 0, 64, 61
1, 108197, Control_c, 0, 64, 58
1, 108212, Control_c, 0, 64, 57
1, 108242, Control_c, 0, 64, 57
1, 108256, Control_c, 0, 64, 55
1, 108271, Control_c, 0, 64, 50
1, 108286, Control_c, 0, 64, 41
1, 108301, Control_c, 0, 64, 25
1, 108316, Control_c, 0, 64, 0
1, 108345, Control_c, 0, 64, 25
1, 108350, Note_on_c, 0, 47, 26
1, 108360, Control_c, 0, 64, 38
1, 108375, Control_c, 0, 64, 49
1, 108389, Control_c, 0, 64, 57
1, 108404, Control_c, 0, 64, 61
1, 108419, Control_c, 0, 64, 63
1, 108434, Control_c, 0, 64, 65
1, 108449, Control_c, 0, 64, 67
1, 108463, Control_c, 0, 64, 70
1, 108467, Note_on_c, 0, 52, 29
1, 108478, Control_c, 0, 64, 73
1, 108493, Control_c, 0, 64, 76
1, 108497, Note_off_c, 0, 47, 29
1, 108508, Control_c, 0, 64, 78
1, 108523, Control_c, 0, 64, 79
1, 108537, Control_c, 0, 64, 80
1, 108552, Control_c, 0, 64, 81
1, 108561, Note_off_c, 0, 52, 39
1, 108567, Control_c, 0, 64, 82
1, 108582, Control_c, 0, 64, 82
1, 108588, Note_on_c, 0, 55, 37
1, 108597, Control_c, 0, 64, 83
1, 108671, Control_c, 0, 64, 83
1, 108708, Note_on_c, 0, 52, 40
1, 108714, Note_off_c, 0, 55, 43
1, 108774, Note_off_c, 0, 52, 57
1, 108813, Note_on_c, 0, 47, 35
1, 108917, Note_off_c, 0, 47, 35
1, 108929, Note_on_c, 0, 52, 39
1, 109005, Note_off_c, 0, 52, 56
1, 109045, Note_on_c, 0, 47, 40
1, 109049, Note_off_c, 0, 31, 39
1, 109153, Note_on_c, 0, 52, 42
1, 109211, Control_c, 0, 64, 83
1, 109250, Note_off_c, 0, 52, 41
1, 109261, Note_on_c, 0, 31, 53
1, 109285, Control_c, 0, 64, 82
1, 109288, Note_on_c, 0, 55, 43
1, 109295, Note_off_c, 0, 59, 34
1, 109312, Note_off_c, 0, 47, 36
1, 109389, Control_c, 0, 64, 82
1, 109403, Note_on_c, 0, 33, 60
1, 109436, Note_off_c, 0, 31, 38
1, 109437, Note_on_c, 0, 52, 32
1, 109464, Control_c, 0, 64, 81
1, 109510, Note_off_c, 0, 33, 64
1, 109524, Note_on_c, 0, 35, 62
1, 109568, Note_on_c, 0, 47, 33
1, 109570, Note_off_c, 0, 35, 59
1, 109590, Control_c, 0, 64, 81
1, 109634, Control_c, 0, 64, 80
1, 109649, Control_c, 0, 64, 80
1, 109660, Note_off_c, 0, 47, 30
1, 109679, Control_c, 0, 64, 79
1, 109694, Control_c, 0, 64, 78
1, 109708, Control_c, 0, 64, 77
1, 109723, Control_c, 0, 64, 77
1, 109733, Note_on_c, 0, 59, 56
1, 109736, Note_on_c, 0, 35, 56
1, 109738, Control_c, 0, 64, 76
1, 109753, Control_c, 0, 64, 75
1, 109768, Note_off_c, 0, 52, 35
1, 109768, Control_c, 0, 64, 74
1, 109783, Control_c, 0, 64, 72
1, 109798, Control_c, 0, 64, 70
1, 109813, Control_c, 0, 64, 67
1, 109828, Control_c, 0, 64, 64
1, 109843, Control_c, 0, 64, 57
1, 109857, Note_off_c, 0, 55, 25
1, 109857, Control_c, 0, 64, 40
1, 109872, Control_c, 0, 64, 0
1, 109972, Note_on_c, 0, 47, 33
1, 109991, Control_c, 0, 64, 38
1, 110006, Control_c, 0, 64, 56
1, 110021, Control_c, 0, 64, 62
1, 110035, Control_c, 0, 64, 65
1, 110050, Control_c, 0, 64, 67
1, 110065, Control_c, 0, 64, 69
1, 110080, Control_c, 0, 64, 71
1, 110092, Note_on_c, 0, 51, 43
1, 110095, Control_c, 0, 64, 73
1, 110109, Control_c, 0, 64, 76
1, 110124, Control_c, 0, 64, 78
1, 110139, Control_c, 0, 64, 79
1, 110153, Control_c, 0, 64, 80
1, 110168, Control_c, 0, 64, 82
1, 110183, Control_c, 0, 64, 82
1, 110202, Note_off_c, 0, 51, 53
1, 110207, Note_on_c, 0, 54, 50
1, 110221, Note_off_c, 0, 47, 39
1, 110227, Control_c, 0, 64, 83
1, 110349, Note_on_c, 0, 51, 48
1, 110358, Note_off_c, 0, 54, 33
1, 110433, Note_off_c, 0, 51, 55
1, 110453, Note_on_c, 0, 47, 52
1, 110561, Note_on_c, 0, 51, 56
1, 110568, Note_off_c, 0, 47, 45
1, 110656, Note_off_c, 0, 51, 56
1, 110692, Note_on_c, 0, 47, 50
1, 110789, Note_on_c, 0, 51, 48
1, 110882, Note_on_c, 0, 37, 64
1, 110904, Note_off_c, 0, 51, 47
1, 110911, Note_on_c, 0, 54, 54
1, 110913, Note_off_c, 0, 59, 40
1, 110947, Note_off_c, 0, 47, 40
1, 110947, Control_c, 0, 64, 82
1, 110958, Note_off_c, 0, 35, 35
1, 110993, Note_on_c, 0, 39, 67
1, 111014, Control_c, 0, 64, 82
1, 111015, Note_off_c, 0, 37, 57
1, 111050, Note_on_c, 0, 51, 46
1, 111058, Control_c, 0, 64, 81
1, 111102, Note_off_c, 0, 39, 61
1, 111113, Note_on_c, 0, 40, 72
1, 111143, Note_off_c, 0, 51, 45
1, 111148, Control_c, 0, 64, 81
1, 111154, Note_on_c, 0, 47, 52
1, 111199, Note_off_c, 0, 40, 63
1, 111205, Note_on_c, 0, 42, 69
1, 111208, Note_off_c, 0, 54, 23
1, 111222, Control_c, 0, 64, 80
1, 111252, Control_c, 0, 64, 80
1, 111281, Control_c, 0, 64, 79
1, 111296, Control_c, 0, 64, 79
1, 111311, Control_c, 0, 64, 78
1, 111326, Control_c, 0, 64, 77
1, 111341, Control_c, 0, 64, 75
1, 111347, Note_off_c, 0, 47, 26
1, 111355, Control_c, 0, 64, 74
1, 111370, Control_c, 0, 64, 71
1, 111376, Note_on_c, 0, 59, 56
1, 111384, Note_on_c, 0, 43, 62
1, 111385, Control_c, 0, 64, 69
1, 111388, Note_off_c, 0, 42, 57
1, 111399, Control_c, 0, 64, 65
1, 111414, Control_c, 0, 64, 62
1, 111429, Control_c, 0, 64, 57
1, 111444, Control_c, 0, 64, 52
1, 111459, Control_c, 0, 64, 42
1, 111473, Control_c, 0, 64, 0
1, 111578, Note_on_c, 0, 47, 41
1, 111622, Control_c, 0, 64, 50
1, 111637, Control_c, 0, 64, 63
1, 111652, Control_c, 0, 64, 66
1, 111666, Control_c, 0, 64, 67
1, 111681, Control_c, 0, 64, 69
1, 111696, Control_c, 0, 64, 72
1, 111711, Control_c, 0, 64, 75
1, 111714, Note_on_c, 0, 50, 36
1, 111725, Control_c, 0, 64, 78
1, 111740, Control_c, 0, 64, 80
1, 111762, Control_c, 0, 64, 81
1, 111765, Note_off_c, 0, 59, 53
1, 111777, Control_c, 0, 64, 82
1, 111792, Control_c, 0, 64, 83
1, 111807, Control_c, 0, 64, 83
1, 111810, Note_off_c, 0, 47, 31
1, 111841, Note_on_c, 0, 53, 39
1, 111847, Note_off_c, 0, 50, 35
1, 111950, Note_off_c, 0, 53, 37
1, 111956, Control_c, 0, 64, 83
1, 111977, Note_on_c, 0, 50, 37
1, 111986, Control_c, 0, 64, 82
1, 112001, Control_c, 0, 64, 82
1, 112016, Control_c, 0, 64, 81
1, 112030, Control_c, 0, 64, 80
1, 112037, Note_off_c, 0, 50, 42
1, 112045, Control_c, 0, 64, 80
1, 112060, Control_c, 0, 64, 79
1, 112075, Control_c, 0, 64, 78
1, 112090, Control_c, 0, 64, 77
1, 112091, Note_on_c, 0, 47, 42
1, 112104, Control_c, 0, 64, 76
1, 112119, Control_c, 0, 64, 75
1, 112129, Note_off_c, 0, 47, 52
1, 112134, Control_c, 0, 64, 75
1, 112148, Control_c, 0, 64, 74
1, 112163, Control_c, 0, 64, 73
1, 112178, Control_c, 0, 64, 72
1, 112193, Control_c, 0, 64, 71
1, 112208, Control_c, 0, 64, 70
1, 112222, Control_c, 0, 64, 68
1, 112237, Control_c, 0, 64, 66
1, 112243, Note_on_c, 0, 58, 45
1, 112252, Control_c, 0, 64, 64
1, 112267, Control_c, 0, 64, 61
1, 112269, Note_on_c, 0, 42, 36
1, 112282, Control_c, 0, 64, 57
1, 112296, Control_c, 0, 64, 52
1, 112311, Control_c, 0, 64, 44
1, 112326, Control_c, 0, 64, 33
1, 112341, Control_c, 0, 64, 11
1, 112355, Control_c, 0, 64, 0
1, 112385, Note_on_c, 0, 49, 37
1, 112400, Control_c, 0, 64, 29
1, 112415, Control_c, 0, 64, 43
1, 112424, Note_off_c, 0, 43, 40
1, 112430, Control_c, 0, 64, 52
1, 112445, Control_c, 0, 64, 58
1, 112460, Control_c, 0, 64, 63
1, 112475, Control_c, 0, 64, 65
1, 112490, Control_c, 0, 64, 67
1, 112511, Control_c, 0, 64, 70
1, 112519, Note_on_c, 0, 52, 24
1, 112526, Control_c, 0, 64, 73
1, 112541, Control_c, 0, 64, 76
1, 112555, Control_c, 0, 64, 79
1, 112570, Control_c, 0, 64, 81
1, 112585, Control_c, 0, 64, 82
1, 112600, Control_c, 0, 64, 82
1, 112630, Control_c, 0, 64, 83
1, 112643, Note_off_c, 0, 52, 36
1, 112652, Note_on_c, 0, 54, 35
1, 112707, Note_off_c, 0, 49, 33
1, 112761, Note_off_c, 0, 58, 10
1, 112776, Note_on_c, 0, 52, 38
1, 112826, Note_off_c, 0, 54, 34
1, 112852, Control_c, 0, 64, 82
1, 112912, Control_c, 0, 64, 82
1, 112924, Note_on_c, 0, 49, 41
1, 112926, Control_c, 0, 64, 81
1, 112941, Control_c, 0, 64, 80
1, 112950, Note_off_c, 0, 52, 38
1, 112956, Control_c, 0, 64, 80
1, 113089, Note_off_c, 0, 49, 33
1, 113089, Control_c, 0, 64, 79
1, 113133, Control_c, 0, 64, 79
1, 113148, Control_c, 0, 64, 78
1, 113163, Control_c, 0, 64, 78
1, 113178, Control_c, 0, 64, 77
1, 113193, Control_c, 0, 64, 77
1, 113208, Control_c, 0, 64, 76
1, 113220, Note_on_c, 0, 59, 50
1, 113223, Control_c, 0, 64, 75
1, 113238, Control_c, 0, 64, 74
1, 113259, Control_c, 0, 64, 73
1, 113267, Note_on_c, 0, 35, 35
1, 113274, Control_c, 0, 64, 72
1, 113289, Control_c, 0, 64, 70
1, 113303, Control_c, 0, 64, 68
1, 113315, Note_off_c, 0, 42, 28
1, 113318, Control_c, 0, 64, 64
1, 113333, Control_c, 0, 64, 60
1, 113348, Control_c, 0, 64, 56
1, 113363, Control_c, 0, 64, 56
1, 113378, Control_c, 0, 64, 55
1, 113393, Control_c, 0, 64, 55
1, 113408, Control_c, 0, 64, 54
1, 113423, Control_c, 0, 64, 54
1, 113438, Control_c, 0, 64, 56
1, 113452, Control_c, 0, 64, 59
1, 113467, Control_c, 0, 64, 62
1, 113482, Control_c, 0, 64, 64
1, 113497, Control_c, 0, 64, 66
1, 113512, Control_c, 0, 64, 68
1, 113527, Control_c, 0, 64, 69
1, 113542, Note_on_c, 0, 47, 33
1, 113542, Control_c, 0, 64, 71
1, 113557, Control_c, 0, 64, 74
1, 113572, Control_c, 0, 64, 76
1, 113587, Control_c, 0, 64, 77
1, 113601, Control_c, 0, 64, 79
1, 113616, Control_c, 0, 64, 80
1, 113631, Control_c, 0, 64, 80
1, 113646, Control_c, 0, 64, 81
1, 113660, Note_off_c, 0, 47, 39
1, 113661, Control_c, 0, 64, 81
1, 113673, Note_on_c, 0, 51, 39
1, 113675, Control_c, 0, 64, 82
1, 113758, Note_off_c, 0, 51, 39
1, 113790, Note_on_c, 0, 54, 34
1, 113897, Note_off_c, 0, 54, 29
1, 113903, Note_on_c, 0, 51, 32
1, 113952, Note_off_c, 0, 51, 44
1, 114025, Note_on_c, 0, 47, 16
1, 114081, Note_off_c, 0, 47, 46
1, 114099, Note_on_c, 0, 51, 37
1, 114191, Note_off_c, 0, 51, 54
1, 114224, Note_on_c, 0, 47, 32
1, 114349, Note_on_c, 0, 51, 33
1, 114356, Note_off_c, 0, 47, 29
1, 114430, Note_off_c, 0, 51, 36
1, 114442, Note_off_c, 0, 59, 36
1, 114465, Note_on_c, 0, 54, 34
1, 114513, Control_c, 0, 64, 81
1, 114583, Note_on_c, 0, 51, 29
1, 114616, Control_c, 0, 64, 81
1, 114661, Control_c, 0, 64, 80
1, 114684, Note_off_c, 0, 54, 15
1, 114691, Control_c, 0, 64, 79
1, 114702, Note_off_c, 0, 51, 28
1, 114711, Note_on_c, 0, 47, 39
1, 114757, Control_c, 0, 64, 79
1, 114802, Control_c, 0, 64, 78
1, 114861, Control_c, 0, 64, 78
1, 114891, Control_c, 0, 64, 77
1, 114920, Control_c, 0, 64, 77
1, 114927, Note_off_c, 0, 47, 37
1, 114935, Control_c, 0, 64, 76
1, 114949, Control_c, 0, 64, 75
1, 114964, Control_c, 0, 64, 75
1, 114979, Control_c, 0, 64, 74
1, 114992, Note_on_c, 0, 59, 42
1, 115003, Note_on_c, 0, 32, 44
1, 115009, Control_c, 0, 64, 74
1, 115023, Control_c, 0, 64, 73
1, 115038, Control_c, 0, 64, 72
1, 115053, Control_c, 0, 64, 69
1, 115064, Note_off_c, 0, 35, 42
1, 115069, Control_c, 0, 64, 65
1, 115084, Control_c, 0, 64, 62
1, 115099, Control_c, 0, 64, 60
1, 115114, Control_c, 0, 64, 60
1, 115143, Control_c, 0, 64, 60
1, 115158, Control_c, 0, 64, 59
1, 115172, Control_c, 0, 64, 57
1, 115187, Control_c, 0, 64, 54
1, 115202, Control_c, 0, 64, 47
1, 115217, Control_c, 0, 64, 34
1, 115232, Control_c, 0, 64, 0
1, 115262, Control_c, 0, 64, 25
1, 115275, Note_on_c, 0, 47, 29
1, 115277, Control_c, 0, 64, 39
1, 115292, Control_c, 0, 64, 50
1, 115307, Control_c, 0, 64, 57
1, 115321, Control_c, 0, 64, 62
1, 115336, Control_c, 0, 64, 66
1, 115351, Control_c, 0, 64, 69
1, 115365, Control_c, 0, 64, 72
1, 115380, Control_c, 0, 64, 74
1, 115395, Control_c, 0, 64, 77
1, 115404, Note_on_c, 0, 52, 33
1, 115410, Control_c, 0, 64, 78
1, 115418, Note_off_c, 0, 47, 32
1, 115425, Control_c, 0, 64, 80
1, 115440, Control_c, 0, 64, 81
1, 115454, Control_c, 0, 64, 82
1, 115469, Control_c, 0, 64, 83
1, 115491, Control_c, 0, 64, 83
1, 115506, Note_on_c, 0, 56, 41
1, 115506, Control_c, 0, 64, 84
1, 115520, Note_off_c, 0, 52, 37
1, 115580, Control_c, 0, 64, 84
1, 115599, Note_off_c, 0, 56, 52
1, 115652, Note_on_c, 0, 52, 42
1, 115702, Note_off_c, 0, 52, 59
1, 115754, Note_on_c, 0, 47, 26
1, 115817, Note_off_c, 0, 47, 43
1, 115867, Note_on_c, 0, 52, 37
1, 115937, Note_off_c, 0, 52, 53
1, 115968, Note_on_c, 0, 47, 35
1, 115976, Note_off_c, 0, 32, 51
1, 116083, Note_on_c, 0, 52, 42
1, 116198, Note_on_c, 0, 32, 58
1, 116204, Note_on_c, 0, 56, 44
1, 116212, Note_off_c, 0, 47, 37
1, 116216, Note_off_c, 0, 52, 50
1, 116232, Control_c, 0, 64, 84
1, 116336, Note_off_c, 0, 32, 56
1, 116345, Note_on_c, 0, 34, 54
1, 116363, Note_off_c, 0, 59, 36
1, 116367, Note_on_c, 0, 52, 44
1, 116462, Control_c, 0, 64, 83
1, 116464, Note_off_c, 0, 34, 62
1, 116472, Note_on_c, 0, 35, 64
1, 116506, Control_c, 0, 64, 83
1, 116515, Note_on_c, 0, 47, 33
1, 116541, Note_off_c, 0, 35, 60
1, 116551, Control_c, 0, 64, 82
1, 116595, Control_c, 0, 64, 82
1, 116625, Control_c, 0, 64, 81
1, 116640, Control_c, 0, 64, 81
1, 116644, Note_off_c, 0, 47, 29
1, 116655, Control_c, 0, 64, 80
1, 116671, Control_c, 0, 64, 80
1, 116678, Note_on_c, 0, 59, 58
1, 116681, Note_on_c, 0, 35, 57
1, 116686, Control_c, 0, 64, 79
1, 116700, Control_c, 0, 64, 78
1, 116715, Control_c, 0, 64, 78
1, 116730, Control_c, 0, 64, 76
1, 116744, Control_c, 0, 64, 75
1, 116759, Control_c, 0, 64, 72
1, 116774, Control_c, 0, 64, 69
1, 116785, Note_off_c, 0, 56, 27
1, 116789, Control_c, 0, 64, 65
1, 116804, Control_c, 0, 64, 58
1, 116818, Control_c, 0, 64, 20
1, 116833, Control_c, 0, 64, 0
1, 116877, Note_off_c, 0, 52, 39
1, 116912, Note_on_c, 0, 47, 35
1, 117018, Control_c, 0, 64, 53
1, 117033, Control_c, 0, 64, 63
1, 117034, Note_on_c, 0, 51, 45
1, 117048, Control_c, 0, 64, 65
1, 117063, Control_c, 0, 64, 67
1, 117078, Control_c, 0, 64, 69
1, 117092, Control_c, 0, 64, 71
1, 117107, Control_c, 0, 64, 74
1, 117122, Control_c, 0, 64, 77
1, 117126, Note_off_c, 0, 47, 36
1, 117137, Control_c, 0, 64, 79
1, 117139, Note_off_c, 0, 51, 56
1, 117145, Note_on_c, 0, 54, 50
1, 117152, Control_c, 0, 64, 81
1, 117167, Control_c, 0, 64, 82
1, 117196, Control_c, 0, 64, 82
1, 117266, Note_on_c, 0, 51, 51
1, 117288, Note_off_c, 0, 54, 35
1, 117360, Note_off_c, 0, 51, 58
1, 117380, Note_on_c, 0, 47, 52
1, 117485, Note_on_c, 0, 51, 60
1, 117513, Note_off_c, 0, 47, 37
1, 117591, Note_off_c, 0, 51, 60
1, 117616, Note_on_c, 0, 47, 56
1, 117712, Note_on_c, 0, 51, 64
1, 117828, Note_on_c, 0, 37, 65
1, 117835, Note_on_c, 0, 54, 64
1, 117840, Note_off_c, 0, 51, 57
1, 117856, Control_c, 0, 64, 82
1, 117859, Note_off_c, 0, 59, 41
1, 117884, Note_off_c, 0, 47, 33
1, 117900, Note_off_c, 0, 35, 36
1, 117915, Control_c, 0, 64, 81
1, 117930, Note_on_c, 0, 39, 69
1, 117930, Control_c, 0, 64, 81
1, 117948, Note_off_c, 0, 37, 56
1, 117954, Note_on_c, 0, 51, 62
1, 117974, Control_c, 0, 64, 80
1, 118004, Control_c, 0, 64, 80
1, 118029, Note_off_c, 0, 39, 60
1, 118034, Control_c, 0, 64, 79
1, 118039, Note_on_c, 0, 40, 74
1, 118049, Control_c, 0, 64, 79
1, 118055, Note_on_c, 0, 47, 62
1, 118061, Note_off_c, 0, 51, 55
1, 118108, Control_c, 0, 64, 78
1, 118128, Note_off_c, 0, 54, 0
1, 118133, Note_on_c, 0, 42, 74
1, 118136, Note_off_c, 0, 40, 63
1, 118138, Control_c, 0, 64, 78
1, 118153, Control_c, 0, 64, 77
1, 118165, Poly_aftertouch_c, 0, 54, 127
1, 118182, Control_c, 0, 64, 77
1, 118197, Control_c, 0, 64, 76
1, 118227, Control_c, 0, 64, 76
1, 118241, Control_c, 0, 64, 75
1, 118256, Control_c, 0, 64, 75
1, 118264, Poly_aftertouch_c, 0, 54, 0
1, 118272, Control_c, 0, 64, 74
1, 118287, Control_c, 0, 64, 73
1, 118298, Note_off_c, 0, 47, 33
1, 118301, Note_on_c, 0, 59, 67
1, 118302, Control_c, 0, 64, 72
1, 118309, Note_on_c, 0, 44, 65
1, 118316, Control_c, 0, 64, 70
1, 118319, Note_off_c, 0, 42, 60
1, 118331, Control_c, 0, 64, 68
1, 118346, Control_c, 0, 64, 65
1, 118361, Control_c, 0, 64, 59
1, 118376, Control_c, 0, 64, 25
1, 118390, Control_c, 0, 64, 0
1, 118505, Note_on_c, 0, 47, 42
1, 118531, Control_c, 0, 64, 58
1, 118546, Control_c, 0, 64, 65
1, 118561, Control_c, 0, 64, 67
1, 118576, Control_c, 0, 64, 69
1, 118590, Control_c, 0, 64, 71
1, 118592, Note_on_c, 0, 50, 46
1, 118605, Control_c, 0, 64, 74
1, 118620, Control_c, 0, 64, 76
1, 118635, Control_c, 0, 64, 78
1, 118650, Control_c, 0, 64, 79
1, 118657, Note_off_c, 0, 59, 58
1, 118663, Note_off_c, 0, 47, 37
1, 118664, Control_c, 0, 64, 79
1, 118697, Note_off_c, 0, 50, 53
1, 118714, Note_on_c, 0, 53, 45
1, 118793, Note_off_c, 0, 53, 56
1, 118797, Control_c, 0, 64, 79
1, 118827, Control_c, 0, 64, 78
1, 118838, Note_on_c, 0, 50, 38
1, 118857, Control_c, 0, 64, 78
1, 118872, Control_c, 0, 64, 77
1, 118887, Control_c, 0, 64, 77
1, 118892, Note_off_c, 0, 50, 42
1, 118902, Control_c, 0, 64, 76
1, 118916, Control_c, 0, 64, 76
1, 118931, Control_c, 0, 64, 75
1, 118946, Control_c, 0, 64, 74
1, 118953, Note_on_c, 0, 47, 40
1, 118961, Control_c, 0, 64, 74
1, 118976, Control_c, 0, 64, 73
1, 118990, Control_c, 0, 64, 72
1, 119002, Note_off_c, 0, 47, 47
1, 119005, Control_c, 0, 64, 70
1, 119020, Control_c, 0, 64, 69
1, 119035, Control_c, 0, 64, 68
1, 119050, Control_c, 0, 64, 67
1, 119065, Control_c, 0, 64, 66
1, 119080, Control_c, 0, 64, 65
1, 119090, Note_on_c, 0, 58, 55
1, 119095, Control_c, 0, 64, 64
1, 119107, Note_on_c, 0, 42, 45
1, 119110, Control_c, 0, 64, 63
1, 119125, Control_c, 0, 64, 60
1, 119131, Note_off_c, 0, 44, 34
1, 119139, Control_c, 0, 64, 51
1, 119154, Control_c, 0, 64, 23
1, 119169, Control_c, 0, 64, 0
1, 119247, Note_on_c, 0, 49, 35
1, 119295, Control_c, 0, 64, 41
1, 119310, Control_c, 0, 64, 56
1, 119325, Control_c, 0, 64, 62
1, 119339, Control_c, 0, 64, 64
1, 119354, Control_c, 0, 64, 66
1, 119365, Note_on_c, 0, 52, 39
1, 119369, Control_c, 0, 64, 68
1, 119384, Control_c, 0, 64, 70
1, 119399, Control_c, 0, 64, 72
1, 119413, Control_c, 0, 64, 74
1, 119428, Control_c, 0, 64, 75
1, 119443, Control_c, 0, 64, 76
1, 119458, Control_c, 0, 64, 77
1, 119473, Control_c, 0, 64, 78
1, 119487, Control_c, 0, 64, 78
1, 119498, Note_on_c, 0, 54, 43
1, 119501, Note_off_c, 0, 49, 17
1, 119502, Control_c, 0, 64, 79
1, 119505, Note_off_c, 0, 52, 32
1, 119626, Note_off_c, 0, 58, 34
1, 119637, Note_off_c, 0, 54, 34
1, 119647, Note_on_c, 0, 52, 42
1, 119724, Control_c, 0, 64, 78
1, 119784, Control_c, 0, 64, 78
1, 119789, Note_on_c, 0, 49, 26
1, 119813, Control_c, 0, 64, 77
1, 119858, Control_c, 0, 64, 77
1, 119861, Note_off_c, 0, 52, 20
1, 119873, Control_c, 0, 64, 76
1, 119903, Control_c, 0, 64, 76
1, 119918, Control_c, 0, 64, 75
1, 119933, Control_c, 0, 64, 75
1, 119948, Control_c, 0, 64, 74
1, 119962, Control_c, 0, 64, 74
1, 119984, Control_c, 0, 64, 73
1, 119999, Control_c, 0, 64, 72
1, 120007, Note_on_c, 0, 59, 47
1, 120014, Control_c, 0, 64, 71
1, 120019, Note_off_c, 0, 49, 30
1, 120029, Control_c, 0, 64, 70
1, 120030, Note_on_c, 0, 35, 39
1, 120043, Control_c, 0, 64, 69
1, 120058, Control_c, 0, 64, 68
1, 120065, Note_off_c, 0, 42, 30
1, 120073, Control_c, 0, 64, 67
1, 120088, Control_c, 0, 64, 65
1, 120103, Control_c, 0, 64, 63
1, 120118, Control_c, 0, 64, 59
1, 120133, Control_c, 0, 64, 56
1, 120148, Control_c, 0, 64, 55
1, 120162, Control_c, 0, 64, 54
1, 120177, Control_c, 0, 64, 52
1, 120192, Control_c, 0, 64, 47
1, 120207, Control_c, 0, 64, 35
1, 120222, Control_c, 0, 64, 0
1, 120254, Note_on_c, 0, 47, 32
1, 120347, Note_on_c, 0, 51, 43
1, 120369, Control_c, 0, 64, 14
1, 120376, Note_off_c, 0, 47, 33
1, 120384, Control_c, 0, 64, 52
1, 120399, Control_c, 0, 64, 62
1, 120414, Control_c, 0, 64, 65
1, 120427, Note_off_c, 0, 51, 52
1, 120429, Control_c, 0, 64, 66
1, 120443, Control_c, 0, 64, 68
1, 120457, Note_on_c, 0, 54, 44
1, 120458, Control_c, 0, 64, 70
1, 120473, Control_c, 0, 64, 72
1, 120487, Control_c, 0, 64, 75
1, 120502, Control_c, 0, 64, 77
1, 120517, Control_c, 0, 64, 79
1, 120532, Control_c, 0, 64, 80
1, 120543, Note_off_c, 0, 54, 46
1, 120547, Control_c, 0, 64, 81
1, 120562, Control_c, 0, 64, 82
1, 120570, Note_on_c, 0, 51, 35
1, 120577, Control_c, 0, 64, 83
1, 120592, Control_c, 0, 64, 84
1, 120607, Control_c, 0, 64, 85
1, 120622, Control_c, 0, 64, 86
1, 120636, Control_c, 0, 64, 86
1, 120642, Note_off_c, 0, 51, 38
1, 120651, Control_c, 0, 64, 87
1, 120666, Note_off_c, 0, 59, 0
1, 120697, Note_on_c, 0, 47, 38
1, 120704, Poly_aftertouch_c, 0, 59, 127
1, 120792, Note_off_c, 0, 47, 39
1, 120807, Note_on_c, 0, 51, 40
1, 120914, Note_off_c, 0, 51, 38
1, 120919, Note_on_c, 0, 47, 42
1, 121020, Note_off_c, 0, 47, 37
1, 121037, Note_on_c, 0, 51, 46
1, 121128, Note_off_c, 0, 51, 56
1, 121145, Note_on_c, 0, 54, 57
1, 121169, Poly_aftertouch_c, 0, 59, 0
1, 121256, Note_on_c, 0, 51, 53
1, 121267, Note_off_c, 0, 54, 35
1, 121310, Note_off_c, 0, 51, 51
1, 121352, Note_on_c, 0, 47, 55
1, 121387, Note_off_c, 0, 47, 64
1, 121465, Note_on_c, 0, 59, 63
1, 121475, Control_c, 0, 64, 87
1, 121532, Note_off_c, 0, 59, 53
1, 121571, Control_c, 0, 64, 88
1, 121578, Note_on_c, 0, 51, 69
1, 121630, Control_c, 0, 64, 88
1, 121678, Note_off_c, 0, 51, 49
1, 121685, Note_on_c, 0, 54, 60
1, 121704, Control_c, 0, 64, 89
1, 121750, Note_off_c, 0, 54, 56
1, 121789, Note_on_c, 0, 63, 82
1, 121793, Control_c, 0, 64, 89
1, 121838, Control_c, 0, 64, 90
1, 121868, Control_c, 0, 64, 90
1, 121894, Note_on_c, 0, 54, 68
1, 121912, Control_c, 0, 64, 91
1, 121919, Note_off_c, 0, 63, 62
1, 121941, Control_c, 0, 67, 123
1, 121956, Control_c, 0, 64, 91
1, 121956, Control_c, 0, 67, 119
1, 121971, Control_c, 0, 67, 117
1, 121986, Control_c, 0, 64, 92
1, 121986, Control_c, 0, 67, 116
1, 122001, Control_c, 0, 67, 115
1, 122002, Note_on_c, 0, 59, 75
1, 122015, Control_c, 0, 64, 92
1, 122015, Control_c, 0, 67, 113
1, 122022, Note_off_c, 0, 54, 60
1, 122030, Control_c, 0, 64, 93
1, 122030, Control_c, 0, 67, 111
1, 122045, Control_c, 0, 64, 93
1, 122045, Control_c, 0, 67, 107
1, 122059, Control_c, 0, 67, 101
1, 122074, Control_c, 0, 64, 94
1, 122074, Control_c, 0, 67, 94
1, 122089, Control_c, 0, 64, 94
1, 122089, Control_c, 0, 67, 86
1, 122104, Control_c, 0, 64, 95
1, 122104, Control_c, 0, 67, 76
1, 122119, Control_c, 0, 64, 95
1, 122119, Control_c, 0, 67, 65
1, 122128, Note_on_c, 0, 66, 93
1, 122133, Control_c, 0, 64, 96
1, 122133, Control_c, 0, 67, 58
1, 122148, Note_off_c, 0, 59, 59
1, 122148, Control_c, 0, 64, 97
1, 122148, Control_c, 0, 67, 54
1, 122163, Control_c, 0, 64, 98
1, 122163, Control_c, 0, 67, 51
1, 122178, Control_c, 0, 64, 99
1, 122178, Control_c, 0, 67, 50
1, 122193, Control_c, 0, 64, 100
1, 122193, Control_c, 0, 67, 49
1, 122207, Control_c, 0, 64, 101
1, 122207, Control_c, 0, 67, 48
1, 122222, Control_c, 0, 64, 102
1, 122245, Control_c, 0, 64, 102
1, 122261, Control_c, 0, 64, 103
1, 122264, Note_on_c, 0, 59, 76
1, 122276, Control_c, 0, 64, 103
1, 122306, Control_c, 0, 64, 104
1, 122362, Note_on_c, 0, 63, 77
1, 122394, Control_c, 0, 67, 48
1, 122395, Note_off_c, 0, 66, 57
1, 122438, Control_c, 0, 67, 49
1, 122440, Note_off_c, 0, 35, 40
1, 122494, Note_on_c, 0, 71, 92
1, 122509, Note_off_c, 0, 63, 63
1, 122586, Control_c, 0, 67, 50
1, 122616, Control_c, 0, 67, 50
1, 122619, Note_on_c, 0, 63, 81
1, 122669, Note_off_c, 0, 71, 59
1, 122675, Control_c, 0, 67, 51
1, 122690, Control_c, 0, 64, 103
1, 122690, Control_c, 0, 67, 52
1, 122705, Control_c, 0, 67, 53
1, 122720, Control_c, 0, 64, 103
1, 122720, Control_c, 0, 67, 54
1, 122735, Control_c, 0, 64, 102
1, 122735, Control_c, 0, 67, 55
1, 122750, Note_on_c, 0, 66, 94
1, 122750, Control_c, 0, 64, 102
1, 122764, Control_c, 0, 64, 101
1, 122775, Note_off_c, 0, 63, 64
1, 122779, Control_c, 0, 64, 101
1, 122794, Control_c, 0, 64, 100
1, 122794, Control_c, 0, 67, 54
1, 122809, Control_c, 0, 64, 100
1, 122824, Control_c, 0, 64, 99
1, 122824, Control_c, 0, 67, 54
1, 122838, Control_c, 0, 67, 53
1, 122853, Control_c, 0, 64, 98
1, 122868, Control_c, 0, 64, 98
1, 122882, Control_c, 0, 64, 97
1, 122882, Control_c, 0, 67, 53
1, 122897, Control_c, 0, 64, 97
1, 122912, Control_c, 0, 64, 96
1, 122912, Control_c, 0, 67, 52
1, 122927, Control_c, 0, 64, 96
1, 122942, Control_c, 0, 64, 95
1, 122942, Control_c, 0, 67, 51
1, 122950, Note_on_c, 0, 44, 69
1, 122956, Control_c, 0, 64, 94
1, 122971, Control_c, 0, 64, 94
1, 122994, Control_c, 0, 64, 92
1, 122994, Control_c, 0, 67, 51
1, 123000, Note_on_c, 0, 71, 93
1, 123009, Control_c, 0, 64, 91
1, 123024, Control_c, 0, 64, 90
1, 123024, Control_c, 0, 67, 50
1, 123027, Note_off_c, 0, 66, 60
1, 123038, Control_c, 0, 64, 88
1, 123038, Control_c, 0, 67, 50
1, 123053, Control_c, 0, 64, 86
1, 123069, Control_c, 0, 64, 83
1, 123069, Note_off_c, 0, 59, 0
1, 123084, Control_c, 0, 64, 79
1, 123084, Control_c, 0, 67, 49
1, 123099, Control_c, 0, 64, 74
1, 123101, Poly_aftertouch_c, 0, 59, 0
1, 123114, Control_c, 0, 64, 68
1, 123114, Control_c, 0, 67, 50
1, 123128, Control_c, 0, 64, 59
1, 123128, Control_c, 0, 67, 49
1, 123143, Control_c, 0, 64, 0
1, 123217, Control_c, 0, 67, 49
1, 123245, Note_on_c, 0, 59, 49
1, 123362, Note_on_c, 0, 62, 58
1, 123395, Control_c, 0, 64, 47
1, 123395, Control_c, 0, 67, 49
1, 123410, Control_c, 0, 64, 62
1, 123410, Control_c, 0, 67, 50
1, 123425, Control_c, 0, 64, 65
1, 123440, Control_c, 0, 64, 67
1, 123454, Control_c, 0, 64, 70
1, 123466, Note_on_c, 0, 65, 60
1, 123469, Control_c, 0, 64, 74
1, 123469, Control_c, 0, 67, 49
1, 123470, Note_off_c, 0, 62, 61
1, 123477, Note_off_c, 0, 59, 54
1, 123484, Control_c, 0, 64, 77
1, 123499, Control_c, 0, 64, 79
1, 123513, Control_c, 0, 64, 81
1, 123528, Control_c, 0, 64, 83
1, 123543, Control_c, 0, 64, 84
1, 123558, Control_c, 0, 64, 85
1, 123566, Note_off_c, 0, 65, 61
1, 123570, Note_on_c, 0, 62, 65
1, 123573, Control_c, 0, 64, 87
1, 123588, Control_c, 0, 64, 87
1, 123588, Control_c, 0, 67, 50
1, 123602, Control_c, 0, 64, 88
1, 123632, Control_c, 0, 64, 89
1, 123660, Note_off_c, 0, 62, 56
1, 123670, Note_on_c, 0, 59, 70
1, 123692, Control_c, 0, 67, 49
1, 123743, Control_c, 0, 64, 90
1, 123758, Control_c, 0, 64, 92
1, 123773, Control_c, 0, 64, 92
1, 123773, Control_c, 0, 67, 49
1, 123780, Note_on_c, 0, 62, 72
1, 123787, Control_c, 0, 67, 49
1, 123797, Note_off_c, 0, 59, 55
1, 123802, Control_c, 0, 67, 51
1, 123817, Control_c, 0, 67, 49
1, 123832, Control_c, 0, 64, 93
1, 123832, Control_c, 0, 67, 50
1, 123847, Control_c, 0, 67, 51
1, 123863, Control_c, 0, 67, 51
1, 123871, Note_off_c, 0, 44, 56
1, 123878, Note_off_c, 0, 62, 56
1, 123878, Control_c, 0, 64, 93
1, 123878, Control_c, 0, 67, 52
1, 123892, Control_c, 0, 67, 53
1, 123896, Note_on_c, 0, 59, 72
1, 123907, Control_c, 0, 64, 94
1, 123922, Control_c, 0, 64, 94
1, 123922, Control_c, 0, 67, 52
1, 123936, Control_c, 0, 64, 95
1, 123951, Control_c, 0, 67, 53
1, 123966, Control_c, 0, 64, 95
1, 123966, Control_c, 0, 67, 53
1, 123979, Note_on_c, 0, 62, 79
1, 124025, Control_c, 0, 67, 53
1, 124040, Control_c, 0, 67, 52
1, 124082, Note_on_c, 0, 44, 76
1, 124084, Control_c, 0, 67, 53
1, 124085, Note_on_c, 0, 65, 77
1, 124089, Note_off_c, 0, 71, 54
1, 124094, Note_off_c, 0, 59, 27
1, 124106, Note_off_c, 0, 62, 58
1, 124158, Control_c, 0, 67, 53
1, 124199, Note_on_c, 0, 62, 81
1, 124199, Note_on_c, 0, 46, 86
1, 124225, Note_off_c, 0, 44, 62
1, 124232, Control_c, 0, 64, 95
1, 124232, Control_c, 0, 67, 54
1, 124239, Note_off_c, 0, 65, 51
1, 124247, Control_c, 0, 67, 54
1, 124262, Control_c, 0, 64, 94
1, 124291, Control_c, 0, 64, 94
1, 124300, Note_on_c, 0, 59, 78
1, 124300, Note_off_c, 0, 46, 60
1, 124306, Note_on_c, 0, 47, 83
1, 124306, Control_c, 0, 64, 93
1, 124318, Note_off_c, 0, 62, 59
1, 124321, Control_c, 0, 64, 93
1, 124321, Control_c, 0, 67, 54
1, 124336, Control_c, 0, 64, 92
1, 124336, Control_c, 0, 67, 53
1, 124351, Control_c, 0, 64, 92
1, 124355, Note_off_c, 0, 47, 61
1, 124364, Note_off_c, 0, 59, 59
1, 124366, Control_c, 0, 64, 91
1, 124380, Control_c, 0, 64, 91
1, 124380, Control_c, 0, 67, 53
1, 124395, Control_c, 0, 64, 90
1, 124395, Control_c, 0, 67, 52
1, 124410, Control_c, 0, 64, 89
1, 124410, Control_c, 0, 67, 52
1, 124425, Control_c, 0, 64, 88
1, 124425, Control_c, 0, 67, 51
1, 124440, Control_c, 0, 64, 87
1, 124440, Control_c, 0, 67, 51
1, 124454, Control_c, 0, 64, 86
1, 124454, Control_c, 0, 67, 50
1, 124469, Control_c, 0, 64, 84
1, 124469, Control_c, 0, 67, 50
1, 124473, Note_on_c, 0, 70, 88
1, 124491, Control_c, 0, 64, 83
1, 124491, Control_c, 0, 67, 49
1, 124495, Note_on_c, 0, 47, 74
1, 124506, Control_c, 0, 64, 81
1, 124506, Control_c, 0, 67, 49
1, 124521, Control_c, 0, 64, 78
1, 124535, Control_c, 0, 64, 74
1, 124535, Control_c, 0, 67, 48
1, 124550, Control_c, 0, 64, 70
1, 124550, Control_c, 0, 67, 48
1, 124565, Control_c, 0, 64, 64
1, 124580, Control_c, 0, 64, 47
1, 124580, Control_c, 0, 67, 47
1, 124595, Control_c, 0, 64, 0
1, 124610, Control_c, 0, 67, 47
1, 124625, Control_c, 0, 67, 46
1, 124670, Note_on_c, 0, 56, 58
1, 124780, Note_on_c, 0, 62, 60
1, 124842, Note_off_c, 0, 70, 59
1, 124878, Note_on_c, 0, 68, 86
1, 124902, Note_on_c, 0, 65, 61
1, 124907, Note_off_c, 0, 62, 60
1, 124943, Note_off_c, 0, 56, 37
1, 124988, Note_on_c, 0, 62, 67
1, 124996, Control_c, 0, 64, 25
1, 125011, Control_c, 0, 64, 55
1, 125011, Control_c, 0, 67, 47
1, 125025, Control_c, 0, 64, 62
1, 125025, Control_c, 0, 67, 47
1, 125029, Note_off_c, 0, 65, 60
1, 125040, Control_c, 0, 64, 64
1, 125040, Control_c, 0, 67, 48
1, 125055, Control_c, 0, 64, 67
1, 125055, Control_c, 0, 67, 50
1, 125070, Control_c, 0, 64, 71
1, 125084, Control_c, 0, 64, 76
1, 125085, Note_on_c, 0, 56, 68
1, 125096, Note_off_c, 0, 62, 60
1, 125099, Control_c, 0, 64, 81
1, 125114, Control_c, 0, 64, 85
1, 125114, Control_c, 0, 67, 49
1, 125129, Control_c, 0, 64, 87
1, 125144, Control_c, 0, 64, 88
1, 125144, Control_c, 0, 67, 48
1, 125158, Control_c, 0, 64, 90
1, 125158, Control_c, 0, 67, 48
1, 125173, Control_c, 0, 64, 90
1, 125188, Note_on_c, 0, 62, 77
1, 125188, Control_c, 0, 67, 50
1, 125199, Note_off_c, 0, 56, 60
1, 125203, Control_c, 0, 64, 91
1, 125218, Control_c, 0, 67, 51
1, 125240, Control_c, 0, 67, 52
1, 125255, Control_c, 0, 64, 91
1, 125255, Control_c, 0, 67, 54
1, 125270, Control_c, 0, 64, 92
1, 125270, Control_c, 0, 67, 56
1, 125284, Control_c, 0, 64, 92
1, 125284, Control_c, 0, 67, 57
1, 125296, Note_off_c, 0, 47, 54
1, 125298, Note_on_c, 0, 56, 74
1, 125299, Control_c, 0, 64, 93
1, 125299, Control_c, 0, 67, 58
1, 125301, Note_off_c, 0, 62, 60
1, 125314, Control_c, 0, 64, 93
1, 125314, Control_c, 0, 67, 59
1, 125329, Control_c, 0, 64, 94
1, 125329, Control_c, 0, 67, 58
1, 125358, Control_c, 0, 64, 94
1, 125358, Control_c, 0, 67, 59
1, 125373, Control_c, 0, 67, 59
1, 125388, Control_c, 0, 64, 95
1, 125388, Control_c, 0, 67, 61
1, 125400, Note_on_c, 0, 62, 79
1, 125403, Control_c, 0, 67, 63
1, 125418, Control_c, 0, 67, 66
1, 125424, Note_off_c, 0, 68, 60
1, 125430, Note_off_c, 0, 56, 59
1, 125433, Control_c, 0, 67, 69
1, 125448, Control_c, 0, 67, 73
1, 125463, Control_c, 0, 67, 82
1, 125478, Control_c, 0, 67, 90
1, 125493, Control_c, 0, 67, 96
1, 125506, Note_on_c, 0, 65, 85
1, 125507, Control_c, 0, 67, 99
1, 125510, Note_on_c, 0, 47, 79
1, 125522, Control_c, 0, 67, 100
1, 125528, Note_off_c, 0, 62, 58
1, 125537, Control_c, 0, 67, 99
1, 125552, Control_c, 0, 67, 99
1, 125581, Control_c, 0, 67, 98
1, 125596, Control_c, 0, 67, 98
1, 125611, Control_c, 0, 67, 97
1, 125614, Note_on_c, 0, 49, 78
1, 125626, Note_on_c, 0, 62, 74
1, 125632, Note_off_c, 0, 47, 59
1, 125641, Control_c, 0, 67, 97
1, 125655, Control_c, 0, 64, 94
1, 125670, Control_c, 0, 67, 96
1, 125685, Control_c, 0, 64, 94
1, 125714, Control_c, 0, 64, 93
1, 125714, Control_c, 0, 67, 96
1, 125715, Note_off_c, 0, 62, 58
1, 125719, Note_on_c, 0, 50, 81
1, 125732, Note_off_c, 0, 49, 61
1, 125733, Note_on_c, 0, 56, 77
1, 125744, Control_c, 0, 64, 93
1, 125744, Control_c, 0, 67, 95
1, 125759, Control_c, 0, 64, 92
1, 125769, Note_off_c, 0, 50, 63
1, 125774, Control_c, 0, 64, 92
1, 125774, Control_c, 0, 67, 95
1, 125788, Control_c, 0, 64, 91
1, 125788, Control_c, 0, 67, 94
1, 125803, Control_c, 0, 67, 94
1, 125818, Control_c, 0, 64, 91
1, 125833, Control_c, 0, 67, 93
1, 125847, Control_c, 0, 64, 90
1, 125862, Control_c, 0, 64, 89
1, 125862, Control_c, 0, 67, 93
1, 125877, Control_c, 0, 64, 88
1, 125890, Note_off_c, 0, 56, 56
1, 125892, Control_c, 0, 64, 86
1, 125907, Control_c, 0, 64, 85
1, 125914, Note_on_c, 0, 66, 92
1, 125922, Control_c, 0, 64, 83
1, 125924, Note_on_c, 0, 50, 71
1, 125936, Control_c, 0, 64, 82
1, 125951, Control_c, 0, 64, 80
1, 125954, Note_off_c, 0, 65, 60
1, 125966, Control_c, 0, 64, 78
1, 125966, Control_c, 0, 67, 92
1, 125988, Control_c, 0, 64, 75
1, 125988, Control_c, 0, 67, 92
1, 126003, Control_c, 0, 64, 70
1, 126018, Control_c, 0, 64, 63
1, 126033, Control_c, 0, 64, 0
1, 126110, Note_on_c, 0, 56, 64
1, 126121, Control_c, 0, 64, 30
1, 126136, Control_c, 0, 64, 61
1, 126151, Control_c, 0, 64, 66
1, 126166, Control_c, 0, 64, 68
1, 126166, Control_c, 0, 67, 93
1, 126181, Control_c, 0, 64, 70
1, 126196, Control_c, 0, 64, 72
1, 126205, Note_on_c, 0, 58, 66
1, 126211, Control_c, 0, 64, 73
1, 126211, Control_c, 0, 67, 93
1, 126256, Control_c, 0, 67, 93
1, 126258, Note_off_c, 0, 66, 52
1, 126262, Note_off_c, 0, 56, 61
1, 126298, Note_off_c, 0, 58, 57
1, 126312, Note_on_c, 0, 65, 78
1, 126315, Control_c, 0, 64, 73
1, 126315, Control_c, 0, 67, 92
1, 126328, Note_on_c, 0, 59, 62
1, 126330, Control_c, 0, 64, 72
1, 126330, Control_c, 0, 67, 92
1, 126345, Control_c, 0, 64, 71
1, 126345, Control_c, 0, 67, 91
1, 126360, Control_c, 0, 64, 70
1, 126360, Control_c, 0, 67, 91
1, 126375, Control_c, 0, 64, 68
1, 126375, Control_c, 0, 67, 90
1, 126390, Control_c, 0, 64, 65
1, 126404, Control_c, 0, 64, 62
1, 126418, Note_off_c, 0, 59, 55
1, 126419, Control_c, 0, 64, 55
1, 126423, Note_on_c, 0, 58, 69
1, 126434, Control_c, 0, 64, 51
1, 126449, Control_c, 0, 64, 53
1, 126464, Control_c, 0, 64, 56
1, 126478, Control_c, 0, 64, 59
1, 126478, Control_c, 0, 67, 91
1, 126493, Control_c, 0, 64, 62
1, 126493, Control_c, 0, 67, 91
1, 126508, Control_c, 0, 64, 64
1, 126508, Control_c, 0, 67, 92
1, 126513, Note_off_c, 0, 58, 62
1, 126522, Control_c, 0, 64, 66
1, 126522, Control_c, 0, 67, 93
1, 126527, Note_on_c, 0, 56, 63
1, 126537, Control_c, 0, 64, 68
1, 126537, Control_c, 0, 67, 94
1, 126552, Control_c, 0, 64, 70
1, 126567, Control_c, 0, 64, 71
1, 126596, Control_c, 0, 64, 69
1, 126611, Control_c, 0, 64, 67
1, 126611, Control_c, 0, 67, 93
1, 126619, Note_off_c, 0, 56, 63
1, 126622, Note_on_c, 0, 58, 72
1, 126626, Control_c, 0, 64, 64
1, 126626, Control_c, 0, 67, 94
1, 126641, Control_c, 0, 64, 66
1, 126641, Control_c, 0, 67, 93
1, 126655, Control_c, 0, 64, 68
1, 126655, Control_c, 0, 67, 93
1, 126670, Control_c, 0, 64, 70
1, 126685, Control_c, 0, 64, 73
1, 126685, Control_c, 0, 67, 93
1, 126700, Control_c, 0, 64, 76
1, 126700, Control_c, 0, 67, 94
1, 126715, Control_c, 0, 64, 81
1, 126715, Control_c, 0, 67, 94
1, 126721, Note_off_c, 0, 58, 63
1, 126731, Note_on_c, 0, 56, 71
1, 126737, Control_c, 0, 64, 83
1, 126752, Control_c, 0, 64, 85
1, 126752, Control_c, 0, 67, 95
1, 126767, Control_c, 0, 67, 95
1, 126782, Control_c, 0, 67, 96
1, 126797, Control_c, 0, 67, 97
1, 126811, Control_c, 0, 67, 97
1, 126813, Note_off_c, 0, 50, 58
1, 126826, Control_c, 0, 67, 98
1, 126831, Note_on_c, 0, 58, 72
1, 126852, Note_off_c, 0, 56, 57
1, 126870, Control_c, 0, 67, 97
1, 126885, Control_c, 0, 67, 96
1, 126929, Control_c, 0, 67, 97
1, 126944, Note_on_c, 0, 59, 76
1, 126948, Note_on_c, 0, 50, 74
1, 126953, Note_off_c, 0, 65, 46
1, 126959, Note_off_c, 0, 58, 58
1, 126959, Control_c, 0, 67, 96
1, 127033, Control_c, 0, 64, 84
1, 127060, Note_on_c, 0, 51, 75
1, 127061, Note_on_c, 0, 58, 76
1, 127064, Control_c, 0, 64, 84
1, 127079, Control_c, 0, 64, 83
1, 127094, Control_c, 0, 67, 97
1, 127103, Note_off_c, 0, 50, 45
1, 127108, Control_c, 0, 64, 83
1, 127113, Note_off_c, 0, 59, 38
1, 127153, Control_c, 0, 67, 96
1, 127156, Note_on_c, 0, 56, 73
1, 127162, Note_off_c, 0, 58, 58
1, 127168, Control_c, 0, 64, 82
1, 127168, Control_c, 0, 67, 96
1, 127177, Note_on_c, 0, 53, 76
1, 127182, Control_c, 0, 64, 82
1, 127182, Control_c, 0, 67, 95
1, 127185, Note_off_c, 0, 51, 60
1, 127197, Control_c, 0, 64, 81
1, 127197, Control_c, 0, 67, 94
1, 127212, Control_c, 0, 64, 81
1, 127212, Control_c, 0, 67, 94
1, 127223, Note_off_c, 0, 53, 62
1, 127227, Control_c, 0, 64, 80
1, 127227, Control_c, 0, 67, 93
1, 127242, Control_c, 0, 64, 80
1, 127242, Control_c, 0, 67, 93
1, 127257, Control_c, 0, 67, 92
1, 127271, Control_c, 0, 64, 79
1, 127271, Control_c, 0, 67, 92
1, 127286, Control_c, 0, 64, 79
1, 127301, Control_c, 0, 64, 78
1, 127301, Control_c, 0, 67, 91
1, 127316, Control_c, 0, 64, 77
1, 127316, Control_c, 0, 67, 91
1, 127331, Control_c, 0, 64, 76
1, 127343, Note_on_c, 0, 63, 79
1, 127345, Control_c, 0, 64, 74
1, 127345, Control_c, 0, 67, 90
1, 127355, Note_off_c, 0, 56, 31
1, 127360, Control_c, 0, 64, 73
1, 127367, Note_on_c, 0, 53, 64
1, 127375, Control_c, 0, 64, 71
1, 127390, Control_c, 0, 64, 68
1, 127405, Control_c, 0, 64, 64
1, 127419, Control_c, 0, 64, 59
1, 127419, Control_c, 0, 67, 90
1, 127434, Control_c, 0, 64, 43
1, 127449, Control_c, 0, 64, 0
1, 127486, Control_c, 0, 67, 90
1, 127540, Note_on_c, 0, 56, 52
1, 127545, Control_c, 0, 67, 91
1, 127575, Control_c, 0, 64, 48
1, 127575, Control_c, 0, 67, 92
1, 127590, Control_c, 0, 64, 58
1, 127590, Control_c, 0, 67, 92
1, 127605, Control_c, 0, 64, 61
1, 127605, Control_c, 0, 67, 93
1, 127620, Control_c, 0, 64, 62
1, 127646, Note_on_c, 0, 58, 55
1, 127649, Control_c, 0, 67, 93
1, 127664, Control_c, 0, 64, 61
1, 127664, Control_c, 0, 67, 94
1, 127693, Control_c, 0, 64, 61
1, 127693, Control_c, 0, 67, 94
1, 127701, Note_off_c, 0, 56, 51
1, 127708, Control_c, 0, 64, 60
1, 127723, Control_c, 0, 64, 59
1, 127723, Control_c, 0, 67, 95
1, 127738, Control_c, 0, 64, 58
1, 127738, Control_c, 0, 67, 95
1, 127752, Control_c, 0, 64, 55
1, 127752, Control_c, 0, 67, 96
1, 127764, Note_on_c, 0, 62, 67
1, 127767, Control_c, 0, 64, 48
1, 127767, Control_c, 0, 67, 96
1, 127774, Note_on_c, 0, 59, 48
1, 127780, Note_off_c, 0, 63, 56
1, 127781, Note_off_c, 0, 58, 39
1, 127782, Control_c, 0, 64, 38
1, 127797, Control_c, 0, 64, 18
1, 127812, Control_c, 0, 64, 0
1, 127826, Control_c, 0, 67, 97
1, 127841, Control_c, 0, 67, 97
1, 127872, Note_off_c, 0, 59, 57
1, 127887, Control_c, 0, 67, 98
1, 127890, Note_on_c, 0, 58, 54
1, 127916, Control_c, 0, 67, 99
1, 127946, Control_c, 0, 64, 40
1, 127946, Control_c, 0, 67, 99
1, 127955, Note_off_c, 0, 58, 54
1, 127961, Control_c, 0, 64, 51
1, 127961, Control_c, 0, 67, 100
1, 127975, Control_c, 0, 64, 55
1, 127990, Control_c, 0, 64, 58
1, 127991, Note_on_c, 0, 56, 37
1, 128005, Control_c, 0, 64, 60
1, 128005, Control_c, 0, 67, 100
1, 128020, Control_c, 0, 64, 61
1, 128035, Control_c, 0, 64, 61
1, 128050, Control_c, 0, 64, 61
1, 128065, Control_c, 0, 64, 59
1, 128074, Note_off_c, 0, 56, 57
1, 128080, Control_c, 0, 64, 55
1, 128086, Note_on_c, 0, 58, 53
1, 128094, Control_c, 0, 64, 48
1, 128109, Control_c, 0, 64, 49
1, 128124, Control_c, 0, 64, 52
1, 128139, Control_c, 0, 64, 57
1, 128154, Control_c, 0, 64, 62
1, 128168, Control_c, 0, 64, 65
1, 128168, Control_c, 0, 67, 100
1, 128175, Note_off_c, 0, 58, 61
1, 128183, Control_c, 0, 64, 69
1, 128198, Control_c, 0, 64, 72
1, 128198, Control_c, 0, 67, 99
1, 128211, Note_on_c, 0, 56, 52
1, 128213, Control_c, 0, 64, 76
1, 128213, Control_c, 0, 67, 99
1, 128235, Control_c, 0, 64, 78
1, 128250, Control_c, 0, 64, 79
1, 128250, Control_c, 0, 67, 98
1, 128265, Control_c, 0, 67, 98
1, 128294, Control_c, 0, 67, 97
1, 128301, Note_off_c, 0, 56, 53
1, 128309, Note_on_c, 0, 58, 57
1, 128324, Control_c, 0, 67, 97
1, 128369, Control_c, 0, 67, 96
1, 128383, Control_c, 0, 64, 78
1, 128398, Control_c, 0, 64, 78
1, 128402, Note_off_c, 0, 58, 52
1, 128413, Control_c, 0, 64, 77
1, 128413, Control_c, 0, 67, 96
1, 128422, Note_on_c, 0, 59, 57
1, 128428, Control_c, 0, 67, 95
1, 128429, Note_on_c, 0, 41, 51
1, 128472, Control_c, 0, 67, 95
1, 128501, Control_c, 0, 67, 94
1, 128527, Note_off_c, 0, 59, 52
1, 128538, Note_on_c, 0, 58, 52
1, 128614, Note_off_c, 0, 58, 53
1, 128651, Control_c, 0, 64, 77
1, 128656, Note_on_c, 0, 56, 42
1, 128680, Control_c, 0, 64, 76
1, 128724, Control_c, 0, 64, 76
1, 128724, Control_c, 0, 67, 94
1, 128747, Note_off_c, 0, 62, 5
1, 128754, Control_c, 0, 64, 75
1, 128769, Control_c, 0, 64, 75
1, 128784, Control_c, 0, 64, 74
1, 128798, Control_c, 0, 64, 74
1, 128813, Control_c, 0, 64, 73
1, 128828, Control_c, 0, 64, 72
1, 128831, Note_on_c, 0, 65, 60
1, 128833, Note_off_c, 0, 53, 35
1, 128836, Note_off_c, 0, 56, 34
1, 128843, Control_c, 0, 64, 71
1, 128853, Note_on_c, 0, 42, 43
1, 128858, Control_c, 0, 64, 69
1, 128873, Control_c, 0, 64, 67
1, 128888, Control_c, 0, 64, 65
1, 128902, Control_c, 0, 64, 63
1, 128913, Note_off_c, 0, 41, 44
1, 128917, Control_c, 0, 64, 60
1, 128932, Control_c, 0, 64, 57
1, 128947, Control_c, 0, 64, 53
1, 128962, Control_c, 0, 64, 44
1, 128984, Control_c, 0, 64, 23
1, 128996, Note_on_c, 0, 54, 42
1, 128998, Control_c, 0, 64, 0
1, 129057, Control_c, 0, 67, 93
1, 129106, Note_on_c, 0, 58, 45
1, 129117, Control_c, 0, 64, 48
1, 129132, Control_c, 0, 64, 59
1, 129147, Control_c, 0, 64, 64
1, 129154, Note_off_c, 0, 54, 32
1, 129162, Control_c, 0, 64, 67
1, 129177, Control_c, 0, 64, 70
1, 129177, Control_c, 0, 67, 93
1, 129192, Control_c, 0, 64, 72
1, 129205, Note_on_c, 0, 63, 61
1, 129206, Control_c, 0, 64, 76
1, 129221, Control_c, 0, 64, 78
1, 129236, Control_c, 0, 64, 79
1, 129250, Note_on_c, 0, 64, 41
1, 129250, Note_off_c, 0, 63, 0
1, 129250, Control_c, 0, 64, 80
1, 129250, Control_c, 0, 67, 93
1, 129255, Note_off_c, 0, 65, 37
1, 129266, Control_c, 0, 64, 81
1, 129266, Control_c, 0, 67, 94
1, 129289, Poly_aftertouch_c, 0, 63, 127
1, 129296, Control_c, 0, 67, 94
1, 129311, Note_off_c, 0, 64, 37
1, 129330, Note_on_c, 0, 54, 56
1, 129340, Note_off_c, 0, 58, 36
1, 129340, Control_c, 0, 67, 95
1, 129355, Control_c, 0, 67, 95
1, 129370, Control_c, 0, 67, 96
1, 129385, Control_c, 0, 67, 96
1, 129413, Note_on_c, 0, 58, 55
1, 129414, Control_c, 0, 64, 80
1, 129428, Note_off_c, 0, 54, 55
1, 129445, Control_c, 0, 67, 97
1, 129475, Control_c, 0, 64, 80
1, 129475, Control_c, 0, 67, 97
1, 129490, Control_c, 0, 64, 79
1, 129491, Poly_aftertouch_c, 0, 63, 0
1, 129504, Control_c, 0, 64, 78
1, 129519, Control_c, 0, 64, 76
1, 129519, Control_c, 0, 67, 98
1, 129534, Note_on_c, 0, 66, 80
1, 129534, Control_c, 0, 64, 73
1, 129546, Note_on_c, 0, 38, 58
1, 129548, Note_off_c, 0, 58, 54
1, 129548, Control_c, 0, 64, 69
1, 129555, Note_off_c, 0, 42, 60
1, 129563, Control_c, 0, 64, 64
1, 129563, Control_c, 0, 67, 97
1, 129578, Control_c, 0, 64, 49
1, 129593, Control_c, 0, 64, 0
1, 129608, Control_c, 0, 67, 97
1, 129637, Control_c, 0, 64, 34
1, 129640, Note_on_c, 0, 56, 61
1, 129652, Control_c, 0, 64, 49
1, 129652, Control_c, 0, 67, 96
1, 129666, Control_c, 0, 64, 57
1, 129681, Control_c, 0, 64, 62
1, 129696, Control_c, 0, 64, 65
1, 129711, Control_c, 0, 64, 67
1, 129734, Control_c, 0, 64, 70
1, 129734, Control_c, 0, 67, 96
1, 129736, Note_on_c, 0, 59, 64
1, 129748, Control_c, 0, 64, 74
1, 129748, Control_c, 0, 67, 95
1, 129756, Note_off_c, 0, 66, 61
1, 129763, Control_c, 0, 64, 77
1, 129763, Control_c, 0, 67, 95
1, 129778, Control_c, 0, 64, 79
1, 129793, Control_c, 0, 64, 79
1, 129794, Note_off_c, 0, 56, 59
1, 129808, Control_c, 0, 64, 80
1, 129822, Control_c, 0, 64, 80
1, 129850, Note_on_c, 0, 65, 80
1, 129852, Control_c, 0, 67, 94
1, 129867, Note_off_c, 0, 59, 61
1, 129867, Control_c, 0, 67, 94
1, 129896, Control_c, 0, 67, 94
1, 129926, Control_c, 0, 67, 95
1, 129939, Note_on_c, 0, 56, 71
1, 129955, Control_c, 0, 67, 94
1, 130000, Control_c, 0, 67, 95
1, 130029, Control_c, 0, 64, 80
1, 130044, Note_on_c, 0, 59, 68
1, 130059, Control_c, 0, 64, 79
1, 130059, Control_c, 0, 67, 94
1, 130073, Control_c, 0, 64, 79
1, 130088, Control_c, 0, 64, 78
1, 130103, Control_c, 0, 64, 78
1, 130118, Control_c, 0, 64, 77
1, 130126, Note_off_c, 0, 56, 43
1, 130133, Control_c, 0, 64, 77
1, 130147, Control_c, 0, 64, 76
1, 130162, Control_c, 0, 64, 75
1, 130177, Control_c, 0, 64, 74
1, 130177, Control_c, 0, 67, 94
1, 130186, Note_on_c, 0, 39, 68
1, 130186, Note_on_c, 0, 68, 85
1, 130192, Control_c, 0, 64, 73
1, 130192, Control_c, 0, 67, 93
1, 130205, Note_off_c, 0, 59, 59
1, 130207, Control_c, 0, 64, 70
1, 130214, Note_off_c, 0, 65, 53
1, 130217, Note_off_c, 0, 38, 61
1, 130221, Control_c, 0, 64, 66
1, 130237, Control_c, 0, 64, 60
1, 130252, Control_c, 0, 64, 22
1, 130252, Control_c, 0, 67, 94
1, 130267, Control_c, 0, 64, 0
1, 130296, Control_c, 0, 64, 29
1, 130300, Note_on_c, 0, 58, 70
1, 130311, Control_c, 0, 64, 54
1, 130326, Control_c, 0, 64, 62
1, 130341, Control_c, 0, 64, 64
1, 130356, Control_c, 0, 64, 68
1, 130370, Control_c, 0, 64, 70
1, 130385, Control_c, 0, 64, 73
1, 130397, Note_on_c, 0, 63, 74
1, 130400, Control_c, 0, 64, 75
1, 130411, Note_off_c, 0, 68, 61
1, 130415, Control_c, 0, 64, 76
1, 130430, Control_c, 0, 64, 77
1, 130444, Control_c, 0, 64, 79
1, 130459, Control_c, 0, 64, 81
1, 130482, Control_c, 0, 64, 82
1, 130482, Control_c, 0, 67, 93
1, 130496, Control_c, 0, 64, 83
1, 130497, Note_off_c, 0, 58, 59
1, 130511, Control_c, 0, 64, 84
1, 130523, Note_on_c, 0, 66, 89
1, 130526, Control_c, 0, 67, 94
1, 130541, Control_c, 0, 67, 94
1, 130608, Note_off_c, 0, 63, 51
1, 130648, Note_on_c, 0, 58, 70
1, 130734, Note_on_c, 0, 63, 73
1, 130748, Control_c, 0, 64, 83
1, 130761, Note_off_c, 0, 66, 63
1, 130777, Control_c, 0, 64, 82
1, 130792, Control_c, 0, 64, 82
1, 130803, Note_off_c, 0, 58, 40
1, 130807, Control_c, 0, 64, 81
1, 130822, Control_c, 0, 64, 80
1, 130837, Control_c, 0, 64, 79
1, 130852, Control_c, 0, 64, 79
1, 130852, Control_c, 0, 67, 95
1, 130867, Control_c, 0, 64, 78
1, 130882, Control_c, 0, 64, 76
1, 130882, Control_c, 0, 67, 94
1, 130887, Note_on_c, 0, 65, 88
1, 130896, Control_c, 0, 64, 73
1, 130897, Note_on_c, 0, 32, 63
1, 130899, Note_off_c, 0, 63, 63
1, 130911, Control_c, 0, 64, 69
1, 130911, Control_c, 0, 67, 94
1, 130918, Note_off_c, 0, 39, 57
1, 130926, Control_c, 0, 64, 63
1, 130926, Control_c, 0, 67, 94
1, 130941, Control_c, 0, 64, 41
1, 130956, Control_c, 0, 64, 0
1, 130985, Control_c, 0, 67, 94
1, 131000, Control_c, 0, 67, 93
1, 131014, Control_c, 0, 64, 22
1, 131014, Control_c, 0, 67, 93
1, 131029, Control_c, 0, 64, 55
1, 131029, Control_c, 0, 67, 92
1, 131043, Note_on_c, 0, 56, 57
1, 131046, Control_c, 0, 64, 63
1, 131046, Control_c, 0, 67, 92
1, 131061, Control_c, 0, 64, 66
1, 131075, Control_c, 0, 64, 69
1, 131075, Control_c, 0, 67, 91
1, 131090, Control_c, 0, 64, 72
1, 131090, Control_c, 0, 67, 91
1, 131105, Control_c, 0, 64, 74
1, 131119, Control_c, 0, 64, 77
1, 131134, Control_c, 0, 64, 80
1, 131134, Control_c, 0, 67, 91
1, 131149, Control_c, 0, 64, 82
1, 131149, Control_c, 0, 67, 92
1, 131163, Note_on_c, 0, 59, 59
1, 131164, Control_c, 0, 64, 83
1, 131179, Control_c, 0, 64, 84
1, 131193, Control_c, 0, 64, 85
1, 131193, Control_c, 0, 67, 91
1, 131216, Control_c, 0, 64, 86
1, 131216, Control_c, 0, 67, 91
1, 131231, Control_c, 0, 64, 87
1, 131233, Note_off_c, 0, 56, 56
1, 131245, Control_c, 0, 67, 90
1, 131263, Note_off_c, 0, 65, 56
1, 131275, Control_c, 0, 67, 91
1, 131296, Note_on_c, 0, 68, 82
1, 131305, Control_c, 0, 67, 91
1, 131319, Control_c, 0, 67, 92
1, 131329, Note_off_c, 0, 59, 58
1, 131349, Control_c, 0, 67, 92
1, 131364, Control_c, 0, 67, 93
1, 131379, Control_c, 0, 67, 93
1, 131394, Control_c, 0, 67, 94
1, 131408, Control_c, 0, 67, 94
1, 131411, Note_on_c, 0, 56, 63
1, 131482, Control_c, 0, 67, 95
1, 131486, Note_off_c, 0, 68, 59
1, 131512, Control_c, 0, 64, 86
1, 131541, Control_c, 0, 64, 86
1, 131556, Control_c, 0, 64, 85
1, 131558, Note_off_c, 0, 56, 54
1, 131570, Note_on_c, 0, 59, 54
1, 131571, Control_c, 0, 64, 84
1, 131586, Control_c, 0, 64, 84
1, 131600, Control_c, 0, 64, 83
1, 131615, Control_c, 0, 64, 83
1, 131618, Note_off_c, 0, 32, 29
1, 131630, Control_c, 0, 64, 82
1, 131645, Control_c, 0, 64, 82
1, 131660, Control_c, 0, 64, 81
1, 131675, Control_c, 0, 64, 81
1, 131690, Control_c, 0, 64, 80
1, 131690, Control_c, 0, 67, 94
1, 131705, Control_c, 0, 64, 79
1, 131719, Control_c, 0, 64, 79
1, 131734, Control_c, 0, 64, 78
1, 131734, Control_c, 0, 67, 94
1, 131749, Control_c, 0, 64, 77
1, 131764, Control_c, 0, 64, 76
1, 131779, Control_c, 0, 64, 75
1, 131779, Control_c, 0, 67, 93
1, 131780, Note_on_c, 0, 63, 77
1, 131793, Control_c, 0, 64, 73
1, 131793, Control_c, 0, 67, 93
1, 131797, Note_on_c, 0, 34, 51
1, 131808, Control_c, 0, 64, 72
1, 131809, Note_off_c, 0, 59, 52
1, 131823, Control_c, 0, 64, 70
1, 131839, Control_c, 0, 64, 69
1, 131839, Control_c, 0, 67, 92
1, 131854, Control_c, 0, 64, 67
1, 131868, Control_c, 0, 64, 64
1, 131868, Control_c, 0, 67, 92
1, 131883, Control_c, 0, 64, 61
1, 131898, Control_c, 0, 64, 56
1, 131913, Control_c, 0, 64, 48
1, 131928, Control_c, 0, 64, 39
1, 131942, Control_c, 0, 64, 11
1, 131957, Control_c, 0, 64, 0
1, 132003, Note_on_c, 0, 51, 45
1, 132009, Control_c, 0, 67, 92
1, 132038, Control_c, 0, 67, 93
1, 132053, Control_c, 0, 67, 93
1, 132068, Control_c, 0, 64, 11
1, 132068, Control_c, 0, 67, 94
1, 132083, Control_c, 0, 64, 48
1, 132083, Control_c, 0, 67, 94
1, 132098, Control_c, 0, 64, 58
1, 132098, Control_c, 0, 67, 95
1, 132113, Control_c, 0, 64, 63
1, 132113, Control_c, 0, 67, 96
1, 132128, Control_c, 0, 64, 65
1, 132128, Control_c, 0, 67, 97
1, 132128, Note_on_c, 0, 54, 45
1, 132142, Control_c, 0, 64, 67
1, 132142, Control_c, 0, 67, 98
1, 132157, Control_c, 0, 64, 69
1, 132157, Control_c, 0, 67, 99
1, 132172, Control_c, 0, 64, 72
1, 132172, Control_c, 0, 67, 100
1, 132187, Control_c, 0, 64, 74
1, 132187, Control_c, 0, 67, 101
1, 132202, Control_c, 0, 64, 75
1, 132202, Control_c, 0, 67, 102
1, 132216, Control_c, 0, 64, 76
1, 132216, Control_c, 0, 67, 108
1, 132228, Note_off_c, 0, 54, 58
1, 132231, Control_c, 0, 67, 117
1, 132242, Note_off_c, 0, 51, 34
1, 132246, Control_c, 0, 64, 76
1, 132246, Control_c, 0, 67, 127
1, 132248, Note_on_c, 0, 58, 50
1, 132335, Control_c, 0, 64, 76
1, 132354, Note_off_c, 0, 58, 54
1, 132365, Note_on_c, 0, 54, 45
1, 132379, Control_c, 0, 64, 75
1, 132394, Control_c, 0, 64, 75
1, 132409, Control_c, 0, 64, 74
1, 132423, Control_c, 0, 64, 73
1, 132438, Control_c, 0, 64, 73
1, 132453, Control_c, 0, 64, 72
1, 132460, Note_off_c, 0, 54, 57
1, 132468, Control_c, 0, 64, 71
1, 132483, Control_c, 0, 64, 69
1, 132486, Note_on_c, 0, 51, 43
1, 132497, Control_c, 0, 64, 68
1, 132512, Control_c, 0, 64, 67
1, 132527, Control_c, 0, 64, 67
1, 132542, Control_c, 0, 64, 66
1, 132566, Note_off_c, 0, 51, 47
1, 132572, Control_c, 0, 64, 66
1, 132587, Control_c, 0, 64, 65
1, 132602, Control_c, 0, 64, 65
1, 132605, Note_on_c, 0, 54, 47
1, 132616, Control_c, 0, 64, 63
1, 132631, Control_c, 0, 64, 62
1, 132646, Control_c, 0, 64, 59
1, 132661, Control_c, 0, 64, 58
1, 132676, Control_c, 0, 64, 57
1, 132691, Control_c, 0, 64, 57
1, 132706, Control_c, 0, 64, 56
1, 132706, Note_off_c, 0, 54, 59
1, 132728, Control_c, 0, 64, 55
1, 132736, Note_on_c, 0, 33, 50
1, 132741, Note_off_c, 0, 34, 63
1, 132742, Note_on_c, 0, 51, 43
1, 132743, Control_c, 0, 64, 55
1, 132758, Control_c, 0, 64, 54
1, 132772, Control_c, 0, 64, 53
1, 132787, Control_c, 0, 64, 53
1, 132802, Control_c, 0, 64, 52
1, 132817, Control_c, 0, 64, 52
1, 132832, Control_c, 0, 64, 51
1, 132849, Note_off_c, 0, 51, 39
1, 132864, Note_on_c, 0, 54, 44
1, 132869, Note_off_c, 0, 33, 51
1, 132879, Note_on_c, 0, 34, 50
1, 132891, Control_c, 0, 64, 51
1, 132906, Control_c, 0, 64, 50
1, 132921, Control_c, 0, 64, 46
1, 132936, Control_c, 0, 64, 0
1, 132962, Note_off_c, 0, 34, 64
1, 132982, Note_off_c, 0, 54, 52
1, 132988, Note_on_c, 0, 35, 51
1, 132998, Note_on_c, 0, 58, 40
1, 133078, Note_off_c, 0, 58, 50
1, 133100, Note_off_c, 0, 35, 54
1, 133109, Note_on_c, 0, 34, 53
1, 133126, Note_on_c, 0, 54, 44
1, 133173, Control_c, 0, 64, 34
1, 133188, Control_c, 0, 64, 61
1, 133203, Control_c, 0, 64, 64
1, 133219, Note_off_c, 0, 34, 62
1, 133228, Note_on_c, 0, 51, 35
1, 133234, Note_off_c, 0, 63, 41
1, 133237, Note_on_c, 0, 33, 50
1, 133306, Control_c, 0, 64, 64
1, 133321, Control_c, 0, 64, 63
1, 133336, Control_c, 0, 64, 63
1, 133365, Control_c, 0, 64, 62
1, 133380, Control_c, 0, 64, 61
1, 133388, Note_off_c, 0, 51, 27
1, 133395, Note_on_c, 0, 62, 51
1, 133395, Control_c, 0, 64, 61
1, 133404, Note_off_c, 0, 54, 16
1, 133410, Control_c, 0, 64, 59
1, 133416, Note_off_c, 0, 33, 44
1, 133424, Control_c, 0, 64, 57
1, 133427, Note_on_c, 0, 34, 36
1, 133441, Control_c, 0, 64, 55
1, 133456, Control_c, 0, 64, 48
1, 133478, Control_c, 0, 64, 28
1, 133493, Control_c, 0, 64, 0
1, 133569, Note_on_c, 0, 50, 32
1, 133641, Control_c, 0, 64, 56
1, 133656, Control_c, 0, 64, 66
1, 133660, Note_on_c, 0, 53, 50
1, 133670, Control_c, 0, 64, 70
1, 133685, Control_c, 0, 64, 73
1, 133689, Note_off_c, 0, 50, 37
1, 133700, Control_c, 0, 64, 76
1, 133714, Control_c, 0, 64, 79
1, 133729, Control_c, 0, 64, 81
1, 133744, Control_c, 0, 64, 83
1, 133750, Note_off_c, 0, 53, 60
1, 133759, Control_c, 0, 64, 84
1, 133770, Note_on_c, 0, 58, 61
1, 133774, Control_c, 0, 64, 86
1, 133783, Note_off_c, 0, 62, 37
1, 133788, Control_c, 0, 64, 87
1, 133803, Control_c, 0, 64, 88
1, 133818, Control_c, 0, 64, 88
1, 133833, Control_c, 0, 64, 89
1, 133848, Control_c, 0, 64, 90
1, 133863, Control_c, 0, 64, 90
1, 133868, Note_on_c, 0, 53, 67
1, 133892, Control_c, 0, 64, 91
1, 133904, Note_off_c, 0, 58, 38
1, 133907, Control_c, 0, 64, 91
1, 133937, Control_c, 0, 64, 92
1, 133937, Note_off_c, 0, 53, 64
1, 133980, Note_on_c, 0, 50, 73
1, 134013, Note_off_c, 0, 50, 64
1, 134073, Note_off_c, 0, 34, 40
1, 134086, Note_on_c, 0, 65, 83
1, 134159, Control_c, 0, 64, 92
1, 134161, Note_off_c, 0, 65, 61
1, 134174, Control_c, 0, 64, 93
1, 134188, Control_c, 0, 64, 93
1, 134200, Note_on_c, 0, 58, 75
1, 134203, Control_c, 0, 64, 94
1, 134226, Control_c, 0, 64, 96
1, 134226, Control_c, 0, 67, 127
1, 134241, Control_c, 0, 64, 97
1, 134241, Control_c, 0, 67, 125
1, 134256, Control_c, 0, 64, 98
1, 134256, Control_c, 0, 67, 123
1, 134271, Control_c, 0, 64, 100
1, 134271, Control_c, 0, 67, 122
1, 134286, Control_c, 0, 64, 101
1, 134286, Control_c, 0, 67, 122
1, 134301, Control_c, 0, 64, 102
1, 134301, Control_c, 0, 67, 121
1, 134304, Note_on_c, 0, 62, 82
1, 134316, Control_c, 0, 64, 103
1, 134316, Control_c, 0, 67, 119
1, 134331, Control_c, 0, 64, 104
1, 134331, Control_c, 0, 67, 117
1, 134335, Note_off_c, 0, 58, 63
1, 134345, Control_c, 0, 64, 105
1, 134345, Control_c, 0, 67, 114
1, 134360, Control_c, 0, 67, 111
1, 134375, Control_c, 0, 67, 109
1, 134390, Control_c, 0, 67, 108
1, 134405, Control_c, 0, 67, 106
1, 134419, Control_c, 0, 67, 104
1, 134429, Note_on_c, 0, 70, 92
1, 134429, Note_off_c, 0, 62, 43
1, 134434, Control_c, 0, 67, 103
1, 134439, Note_on_c, 0, 46, 73
1, 134444, Note_on_c, 0, 34, 62
1, 134449, Control_c, 0, 67, 102
1, 134463, Control_c, 0, 67, 101
1, 134478, Control_c, 0, 67, 101
1, 134507, Control_c, 0, 67, 101
1, 134536, Control_c, 0, 67, 102
1, 134551, Control_c, 0, 67, 102
1, 134563, Note_on_c, 0, 62, 69
1, 134566, Control_c, 0, 64, 104
1, 134581, Control_c, 0, 64, 104
1, 134581, Control_c, 0, 67, 103
1, 134596, Control_c, 0, 64, 103
1, 134611, Control_c, 0, 64, 103
1, 134611, Control_c, 0, 67, 103
1, 134626, Control_c, 0, 64, 102
1, 134632, Note_off_c, 0, 46, 54
1, 134641, Control_c, 0, 64, 102
1, 134656, Control_c, 0, 64, 101
1, 134656, Control_c, 0, 67, 104
1, 134676, Note_on_c, 0, 65, 79
1, 134685, Control_c, 0, 64, 101
1, 134691, Note_off_c, 0, 62, 60
1, 134700, Control_c, 0, 64, 100
1, 134700, Control_c, 0, 67, 103
1, 134711, Note_off_c, 0, 70, 58
1, 134715, Control_c, 0, 64, 99
1, 134730, Control_c, 0, 64, 99
1, 134744, Control_c, 0, 64, 98
1, 134759, Control_c, 0, 64, 98
1, 134774, Control_c, 0, 64, 97
1, 134789, Control_c, 0, 64, 96
1, 134804, Control_c, 0, 64, 96
1, 134818, Control_c, 0, 64, 95
1, 134833, Control_c, 0, 64, 93
1, 134838, Note_off_c, 0, 34, 30
1, 134848, Control_c, 0, 64, 92
1, 134849, Note_on_c, 0, 32, 70
1, 134849, Note_on_c, 0, 44, 73
1, 134862, Control_c, 0, 64, 90
1, 134862, Control_c, 0, 67, 103
1, 134877, Control_c, 0, 64, 89
1, 134892, Control_c, 0, 64, 87
1, 134892, Control_c, 0, 67, 102
1, 134907, Control_c, 0, 64, 85
1, 134922, Control_c, 0, 64, 82
1, 134933, Note_on_c, 0, 71, 86
1, 134936, Control_c, 0, 64, 78
1, 134936, Control_c, 0, 67, 102
1, 134951, Control_c, 0, 64, 74
1, 134974, Note_off_c, 0, 65, 63
1, 134974, Control_c, 0, 64, 68
1, 134974, Control_c, 0, 67, 101
1, 134989, Control_c, 0, 64, 60
1, 135004, Control_c, 0, 64, 0
1, 135167, Control_c, 0, 67, 102
1, 135189, Note_on_c, 0, 59, 52
1, 135212, Control_c, 0, 64, 31
1, 135227, Control_c, 0, 64, 59
1, 135241, Control_c, 0, 64, 64
1, 135256, Control_c, 0, 64, 65
1, 135271, Control_c, 0, 64, 67
1, 135271, Control_c, 0, 67, 101
1, 135285, Control_c, 0, 64, 69
1, 135300, Control_c, 0, 64, 73
1, 135314, Note_on_c, 0, 62, 55
1, 135315, Control_c, 0, 64, 78
1, 135330, Control_c, 0, 64, 83
1, 135345, Control_c, 0, 64, 87
1, 135359, Control_c, 0, 64, 89
1, 135374, Control_c, 0, 64, 89
1, 135404, Control_c, 0, 67, 102
1, 135419, Control_c, 0, 67, 101
1, 135423, Note_off_c, 0, 59, 37
1, 135425, Note_on_c, 0, 65, 58
1, 135431, Note_off_c, 0, 62, 58
1, 135463, Control_c, 0, 64, 90
1, 135478, Control_c, 0, 64, 90
1, 135493, Control_c, 0, 64, 91
1, 135493, Control_c, 0, 67, 102
1, 135508, Control_c, 0, 64, 92
1, 135523, Control_c, 0, 64, 93
1, 135537, Note_on_c, 0, 62, 70
1, 135537, Note_off_c, 0, 65, 58
1, 135538, Control_c, 0, 64, 93
1, 135553, Control_c, 0, 64, 94
1, 135553, Control_c, 0, 67, 102
1, 135567, Control_c, 0, 64, 94
1, 135567, Control_c, 0, 67, 103
1, 135581, Note_off_c, 0, 32, 62
1, 135582, Control_c, 0, 67, 103
1, 135626, Note_off_c, 0, 62, 58
1, 135631, Note_on_c, 0, 59, 68
1, 135641, Control_c, 0, 67, 102
1, 135671, Control_c, 0, 67, 101
1, 135700, Control_c, 0, 67, 103
1, 135723, Control_c, 0, 67, 103
1, 135738, Control_c, 0, 67, 102
1, 135743, Note_on_c, 0, 62, 75
1, 135747, Note_off_c, 0, 59, 59
1, 135756, Note_off_c, 0, 44, 58
1, 135767, Control_c, 0, 67, 103
1, 135782, Control_c, 0, 67, 103
1, 135811, Control_c, 0, 67, 104
1, 135826, Control_c, 0, 67, 104
1, 135842, Note_on_c, 0, 59, 78
1, 135842, Control_c, 0, 67, 105
1, 135846, Note_off_c, 0, 62, 60
1, 135857, Control_c, 0, 64, 95
1, 135857, Control_c, 0, 67, 105
1, 135872, Control_c, 0, 67, 106
1, 135931, Control_c, 0, 64, 95
1, 135944, Note_on_c, 0, 62, 76
1, 135946, Control_c, 0, 64, 96
1, 135946, Control_c, 0, 67, 105
1, 135961, Control_c, 0, 67, 106
1, 135976, Control_c, 0, 64, 96
1, 135984, Note_off_c, 0, 59, 49
1, 135987, Note_off_c, 0, 71, 56
1, 136009, Note_on_c, 0, 44, 72
1, 136052, Note_on_c, 0, 65, 81
1, 136065, Control_c, 0, 67, 106
1, 136070, Note_off_c, 0, 62, 59
1, 136080, Control_c, 0, 64, 97
1, 136080, Control_c, 0, 67, 107
1, 136110, Control_c, 0, 67, 107
1, 136124, Control_c, 0, 67, 108
1, 136154, Control_c, 0, 67, 108
1, 136157, Note_on_c, 0, 46, 84
1, 136158, Note_on_c, 0, 62, 81
1, 136166, Note_off_c, 0, 44, 63
1, 136169, Control_c, 0, 67, 109
1, 136200, Note_off_c, 0, 65, 54
1, 136213, Control_c, 0, 67, 108
1, 136215, Note_off_c, 0, 46, 63
1, 136242, Control_c, 0, 64, 96
1, 136242, Control_c, 0, 67, 108
1, 136261, Note_on_c, 0, 59, 77
1, 136268, Note_on_c, 0, 47, 62
1, 136274, Note_off_c, 0, 62, 60
1, 136287, Control_c, 0, 67, 107
1, 136302, Control_c, 0, 64, 96
1, 136302, Control_c, 0, 67, 107
1, 136316, Control_c, 0, 64, 95
1, 136316, Control_c, 0, 67, 106
1, 136319, Note_off_c, 0, 59, 60
1, 136322, Note_off_c, 0, 47, 59
1, 136331, Control_c, 0, 67, 106
1, 136346, Control_c, 0, 64, 94
1, 136346, Control_c, 0, 67, 105
1, 136361, Control_c, 0, 64, 94
1, 136361, Control_c, 0, 67, 105
1, 136376, Control_c, 0, 64, 93
1, 136390, Control_c, 0, 64, 92
1, 136405, Control_c, 0, 64, 91
1, 136405, Control_c, 0, 67, 104
1, 136420, Control_c, 0, 64, 90
1, 136435, Control_c, 0, 64, 88
1, 136435, Control_c, 0, 67, 104
1, 136436, Note_on_c, 0, 70, 88
1, 136443, Note_on_c, 0, 47, 75
1, 136450, Control_c, 0, 64, 87
1, 136450, Control_c, 0, 67, 103
1, 136462, Note_on_c, 0, 35, 69
1, 136472, Control_c, 0, 64, 85
1, 136472, Control_c, 0, 67, 103
1, 136487, Control_c, 0, 64, 82
1, 136487, Control_c, 0, 67, 102
1, 136502, Control_c, 0, 64, 79
1, 136502, Control_c, 0, 67, 102
1, 136516, Control_c, 0, 64, 75
1, 136516, Control_c, 0, 67, 101
1, 136531, Control_c, 0, 64, 69
1, 136546, Control_c, 0, 64, 61
1, 136546, Control_c, 0, 67, 101
1, 136561, Control_c, 0, 64, 0
1, 136576, Control_c, 0, 67, 100
1, 136605, Control_c, 0, 67, 99
1, 136620, Control_c, 0, 67, 99
1, 136632, Note_on_c, 0, 56, 65
1, 136665, Control_c, 0, 67, 98
1, 136742, Note_on_c, 0, 62, 68
1, 136754, Control_c, 0, 67, 98
1, 136784, Control_c, 0, 67, 97
1, 136807, Note_off_c, 0, 70, 59
1, 136829, Control_c, 0, 64, 34
1, 136844, Control_c, 0, 64, 48
1, 136849, Note_on_c, 0, 68, 84
1, 136858, Control_c, 0, 64, 58
1, 136870, Note_off_c, 0, 62, 60
1, 136873, Control_c, 0, 64, 62
1, 136876, Note_on_c, 0, 65, 56
1, 136879, Note_off_c, 0, 56, 60
1, 136888, Control_c, 0, 64, 64
1, 136903, Control_c, 0, 64, 66
1, 136918, Control_c, 0, 64, 67
1, 136932, Control_c, 0, 64, 68
1, 136947, Control_c, 0, 64, 69
1, 136954, Note_on_c, 0, 62, 74
1, 136962, Control_c, 0, 64, 71
1, 136962, Control_c, 0, 67, 98
1, 136977, Control_c, 0, 64, 73
1, 136982, Note_off_c, 0, 65, 59
1, 136992, Control_c, 0, 64, 74
1, 136992, Control_c, 0, 67, 98
1, 137007, Control_c, 0, 64, 75
1, 137021, Control_c, 0, 64, 76
1, 137021, Control_c, 0, 67, 99
1, 137036, Control_c, 0, 64, 77
1, 137036, Control_c, 0, 67, 100
1, 137051, Control_c, 0, 64, 78
1, 137051, Control_c, 0, 67, 101
1, 137058, Note_on_c, 0, 56, 73
1, 137061, Note_off_c, 0, 62, 60
1, 137065, Control_c, 0, 64, 78
1, 137080, Control_c, 0, 67, 100
1, 137095, Control_c, 0, 67, 99
1, 137110, Control_c, 0, 64, 78
1, 137110, Control_c, 0, 67, 98
1, 137125, Control_c, 0, 64, 77
1, 137125, Control_c, 0, 67, 98
1, 137154, Control_c, 0, 64, 79
1, 137154, Control_c, 0, 67, 99
1, 137158, Note_on_c, 0, 62, 81
1, 137168, Note_off_c, 0, 56, 61
1, 137169, Control_c, 0, 64, 81
1, 137169, Control_c, 0, 67, 101
1, 137184, Control_c, 0, 64, 82
1, 137184, Control_c, 0, 67, 99
1, 137193, Note_off_c, 0, 35, 64
1, 137199, Control_c, 0, 64, 84
1, 137199, Control_c, 0, 67, 100
1, 137221, Control_c, 0, 64, 86
1, 137236, Control_c, 0, 64, 89
1, 137251, Control_c, 0, 64, 92
1, 137265, Control_c, 0, 64, 94
1, 137275, Note_on_c, 0, 56, 71
1, 137276, Note_off_c, 0, 62, 60
1, 137280, Control_c, 0, 64, 95
1, 137295, Control_c, 0, 64, 95
1, 137295, Control_c, 0, 67, 100
1, 137310, Control_c, 0, 64, 96
1, 137310, Control_c, 0, 67, 101
1, 137325, Control_c, 0, 64, 96
1, 137325, Control_c, 0, 67, 101
1, 137339, Control_c, 0, 64, 97
1, 137341, Note_off_c, 0, 47, 35
1, 137354, Control_c, 0, 64, 98
1, 137369, Control_c, 0, 64, 98
1, 137372, Note_on_c, 0, 62, 79
1, 137383, Control_c, 0, 64, 99
1, 137392, Note_off_c, 0, 56, 61
1, 137398, Control_c, 0, 64, 100
1, 137399, Note_off_c, 0, 68, 60
1, 137413, Control_c, 0, 64, 100
1, 137428, Control_c, 0, 64, 101
1, 137476, Note_on_c, 0, 47, 80
1, 137477, Note_on_c, 0, 65, 88
1, 137488, Control_c, 0, 64, 101
1, 137496, Note_off_c, 0, 62, 60
1, 137582, Note_on_c, 0, 49, 85
1, 137589, Note_on_c, 0, 62, 77
1, 137607, Note_off_c, 0, 47, 63
1, 137637, Control_c, 0, 64, 101
1, 137637, Control_c, 0, 67, 102
1, 137668, Note_off_c, 0, 49, 63
1, 137681, Control_c, 0, 64, 100
1, 137684, Note_off_c, 0, 62, 61
1, 137685, Note_on_c, 0, 50, 84
1, 137690, Note_on_c, 0, 56, 78
1, 137696, Control_c, 0, 64, 99
1, 137711, Control_c, 0, 64, 99
1, 137711, Control_c, 0, 67, 101
1, 137726, Control_c, 0, 64, 98
1, 137754, Note_off_c, 0, 50, 62
1, 137756, Control_c, 0, 64, 97
1, 137770, Control_c, 0, 64, 96
1, 137770, Control_c, 0, 67, 101
1, 137785, Control_c, 0, 64, 95
1, 137800, Control_c, 0, 64, 94
1, 137800, Control_c, 0, 67, 100
1, 137815, Control_c, 0, 64, 92
1, 137829, Control_c, 0, 64, 91
1, 137829, Control_c, 0, 67, 100
1, 137844, Control_c, 0, 64, 89
1, 137859, Control_c, 0, 64, 87
1, 137859, Control_c, 0, 67, 99
1, 137866, Note_off_c, 0, 56, 56
1, 137872, Note_on_c, 0, 66, 90
1, 137874, Control_c, 0, 64, 85
1, 137874, Control_c, 0, 67, 98
1, 137876, Note_on_c, 0, 50, 83
1, 137883, Note_on_c, 0, 38, 73
1, 137888, Control_c, 0, 64, 82
1, 137888, Control_c, 0, 67, 98
1, 137903, Control_c, 0, 64, 78
1, 137903, Control_c, 0, 67, 97
1, 137915, Note_off_c, 0, 65, 59
1, 137918, Control_c, 0, 64, 73
1, 137918, Control_c, 0, 67, 96
1, 137933, Control_c, 0, 64, 66
1, 137933, Control_c, 0, 67, 95
1, 137948, Control_c, 0, 64, 45
1, 137948, Control_c, 0, 67, 94
1, 137970, Control_c, 0, 64, 0
1, 137970, Control_c, 0, 67, 93
1, 137985, Control_c, 0, 67, 93
1, 138000, Control_c, 0, 67, 92
1, 138029, Control_c, 0, 67, 91
1, 138044, Control_c, 0, 67, 91
1, 138079, Note_on_c, 0, 56, 69
1, 138088, Control_c, 0, 64, 20
1, 138103, Control_c, 0, 64, 63
1, 138118, Control_c, 0, 64, 68
1, 138118, Control_c, 0, 67, 91
1, 138133, Control_c, 0, 64, 71
1, 138148, Control_c, 0, 64, 73
1, 138162, Control_c, 0, 64, 75
1, 138177, Control_c, 0, 64, 76
1, 138180, Note_on_c, 0, 58, 70
1, 138192, Control_c, 0, 64, 78
1, 138214, Note_off_c, 0, 66, 64
1, 138221, Control_c, 0, 67, 91
1, 138244, Note_off_c, 0, 56, 60
1, 138284, Note_on_c, 0, 65, 83
1, 138296, Note_on_c, 0, 59, 72
1, 138304, Note_off_c, 0, 58, 58
1, 138325, Control_c, 0, 64, 77
1, 138340, Control_c, 0, 64, 76
1, 138355, Control_c, 0, 64, 73
1, 138370, Control_c, 0, 64, 67
1, 138384, Control_c, 0, 64, 40
1, 138392, Note_on_c, 0, 58, 76
1, 138399, Control_c, 0, 64, 0
1, 138399, Control_c, 0, 67, 91
1, 138412, Note_off_c, 0, 59, 57
1, 138429, Control_c, 0, 67, 92
1, 138458, Control_c, 0, 67, 91
1, 138489, Note_on_c, 0, 56, 72
1, 138494, Note_off_c, 0, 58, 65
1, 138502, Control_c, 0, 67, 92
1, 138517, Control_c, 0, 67, 92
1, 138532, Control_c, 0, 64, 63
1, 138532, Control_c, 0, 67, 93
1, 138547, Control_c, 0, 64, 72
1, 138562, Control_c, 0, 64, 79
1, 138562, Control_c, 0, 67, 94
1, 138576, Control_c, 0, 64, 86
1, 138576, Control_c, 0, 67, 94
1, 138588, Note_on_c, 0, 58, 80
1, 138591, Control_c, 0, 64, 88
1, 138594, Note_off_c, 0, 56, 64
1, 138606, Control_c, 0, 64, 90
1, 138621, Control_c, 0, 64, 91
1, 138628, Note_off_c, 0, 38, 63
1, 138635, Control_c, 0, 64, 92
1, 138635, Control_c, 0, 67, 95
1, 138650, Control_c, 0, 67, 95
1, 138665, Control_c, 0, 67, 96
1, 138680, Control_c, 0, 64, 92
1, 138680, Control_c, 0, 67, 96
1, 138689, Note_off_c, 0, 58, 63
1, 138695, Control_c, 0, 67, 97
1, 138696, Note_on_c, 0, 56, 70
1, 138717, Control_c, 0, 67, 97
1, 138748, Note_off_c, 0, 50, 42
1, 138762, Control_c, 0, 67, 98
1, 138777, Control_c, 0, 64, 93
1, 138777, Control_c, 0, 67, 99
1, 138791, Control_c, 0, 67, 100
1, 138792, Note_on_c, 0, 58, 77
1, 138806, Control_c, 0, 67, 100
1, 138817, Note_off_c, 0, 56, 61
1, 138821, Control_c, 0, 67, 101
1, 138835, Control_c, 0, 67, 101
1, 138876, Note_off_c, 0, 65, 35
1, 138880, Control_c, 0, 67, 102
1, 138895, Control_c, 0, 67, 102
1, 138906, Note_on_c, 0, 50, 79
1, 138911, Note_on_c, 0, 59, 77
1, 138924, Note_off_c, 0, 58, 61
1, 138924, Control_c, 0, 67, 103
1, 138939, Control_c, 0, 67, 103
1, 138969, Control_c, 0, 64, 92
1, 138999, Control_c, 0, 64, 92
1, 138999, Control_c, 0, 67, 104
1, 139014, Control_c, 0, 67, 104
1, 139019, Note_on_c, 0, 51, 85
1, 139030, Control_c, 0, 64, 91
1, 139030, Control_c, 0, 67, 105
1, 139034, Note_on_c, 0, 58, 75
1, 139045, Control_c, 0, 67, 106
1, 139048, Note_off_c, 0, 50, 61
1, 139059, Control_c, 0, 64, 91
1, 139059, Control_c, 0, 67, 108
1, 139074, Control_c, 0, 67, 109
1, 139089, Control_c, 0, 67, 109
1, 139104, Control_c, 0, 64, 90
1, 139104, Control_c, 0, 67, 110
1, 139119, Control_c, 0, 64, 90
1, 139127, Note_off_c, 0, 59, 32
1, 139129, Note_on_c, 0, 56, 75
1, 139138, Note_off_c, 0, 51, 61
1, 139139, Note_on_c, 0, 53, 80
1, 139148, Note_off_c, 0, 58, 51
1, 139148, Control_c, 0, 67, 111
1, 139163, Control_c, 0, 64, 89
1, 139163, Control_c, 0, 67, 111
1, 139199, Note_off_c, 0, 53, 65
1, 139237, Control_c, 0, 64, 89
1, 139237, Control_c, 0, 67, 110
1, 139252, Control_c, 0, 64, 88
1, 139267, Control_c, 0, 64, 88
1, 139267, Control_c, 0, 67, 109
1, 139282, Control_c, 0, 64, 87
1, 139282, Control_c, 0, 67, 109
1, 139297, Control_c, 0, 64, 87
1, 139297, Control_c, 0, 67, 108
1, 139306, Note_off_c, 0, 56, 53
1, 139312, Control_c, 0, 64, 86
1, 139312, Control_c, 0, 67, 108
1, 139326, Control_c, 0, 64, 85
1, 139334, Note_on_c, 0, 63, 84
1, 139341, Control_c, 0, 64, 83
1, 139341, Control_c, 0, 67, 107
1, 139352, Note_on_c, 0, 53, 78
1, 139356, Control_c, 0, 64, 81
1, 139356, Control_c, 0, 67, 107
1, 139362, Note_on_c, 0, 41, 64
1, 139371, Control_c, 0, 64, 78
1, 139371, Control_c, 0, 67, 106
1, 139386, Control_c, 0, 64, 74
1, 139386, Control_c, 0, 67, 106
1, 139400, Control_c, 0, 64, 69
1, 139415, Control_c, 0, 64, 62
1, 139430, Control_c, 0, 64, 29
1, 139430, Control_c, 0, 67, 105
1, 139445, Control_c, 0, 64, 0
1, 139526, Control_c, 0, 67, 106
1, 139541, Control_c, 0, 67, 106
1, 139556, Control_c, 0, 67, 107
1, 139568, Note_on_c, 0, 56, 55
1, 139571, Control_c, 0, 67, 108
1, 139586, Control_c, 0, 67, 108
1, 139601, Control_c, 0, 64, 46
1, 139601, Control_c, 0, 67, 109
1, 139615, Control_c, 0, 64, 58
1, 139615, Control_c, 0, 67, 110
1, 139630, Control_c, 0, 64, 62
1, 139645, Control_c, 0, 64, 63
1, 139645, Control_c, 0, 67, 110
1, 139659, Control_c, 0, 64, 64
1, 139668, Note_on_c, 0, 58, 54
1, 139674, Control_c, 0, 64, 64
1, 139674, Control_c, 0, 67, 111
1, 139689, Control_c, 0, 64, 65
1, 139689, Control_c, 0, 67, 112
1, 139704, Control_c, 0, 67, 112
1, 139719, Control_c, 0, 67, 114
1, 139723, Note_off_c, 0, 56, 49
1, 139733, Control_c, 0, 64, 64
1, 139733, Control_c, 0, 67, 116
1, 139748, Control_c, 0, 64, 64
1, 139748, Control_c, 0, 67, 119
1, 139763, Control_c, 0, 64, 63
1, 139763, Control_c, 0, 67, 123
1, 139777, Control_c, 0, 64, 61
1, 139777, Control_c, 0, 67, 127
1, 139792, Note_on_c, 0, 62, 70
1, 139792, Control_c, 0, 64, 57
1, 139793, Note_on_c, 0, 59, 55
1, 139807, Control_c, 0, 64, 46
1, 139810, Note_off_c, 0, 58, 46
1, 139820, Note_off_c, 0, 63, 61
1, 139822, Control_c, 0, 64, 31
1, 139838, Control_c, 0, 64, 29
1, 139853, Control_c, 0, 64, 34
1, 139868, Control_c, 0, 64, 39
1, 139882, Control_c, 0, 64, 46
1, 139897, Control_c, 0, 64, 54
1, 139912, Control_c, 0, 64, 59
1, 139915, Note_off_c, 0, 59, 52
1, 139927, Control_c, 0, 64, 61
1, 139929, Note_on_c, 0, 58, 57
1, 139942, Control_c, 0, 64, 62
1, 139986, Control_c, 0, 64, 61
1, 140001, Control_c, 0, 64, 60
1, 140009, Note_off_c, 0, 58, 62
1, 140016, Control_c, 0, 64, 58
1, 140026, Note_on_c, 0, 56, 45
1, 140030, Control_c, 0, 64, 53
1, 140045, Control_c, 0, 64, 42
1, 140060, Control_c, 0, 64, 0
1, 140123, Note_off_c, 0, 56, 57
1, 140145, Note_on_c, 0, 58, 50
1, 140179, Control_c, 0, 64, 37
1, 140194, Control_c, 0, 64, 60
1, 140216, Control_c, 0, 64, 65
1, 140230, Control_c, 0, 64, 68
1, 140243, Note_off_c, 0, 58, 62
1, 140245, Control_c, 0, 64, 71
1, 140260, Control_c, 0, 64, 73
1, 140272, Note_on_c, 0, 56, 47
1, 140275, Control_c, 0, 64, 75
1, 140289, Note_off_c, 0, 41, 64
1, 140290, Control_c, 0, 64, 76
1, 140388, Note_on_c, 0, 58, 46
1, 140395, Note_off_c, 0, 56, 35
1, 140438, Control_c, 0, 64, 75
1, 140453, Control_c, 0, 64, 75
1, 140468, Control_c, 0, 64, 74
1, 140482, Control_c, 0, 64, 73
1, 140492, Note_off_c, 0, 58, 55
1, 140496, Control_c, 0, 64, 71
1, 140511, Control_c, 0, 64, 67
1, 140514, Note_on_c, 0, 41, 43
1, 140518, Note_on_c, 0, 59, 48
1, 140526, Control_c, 0, 64, 63
1, 140541, Control_c, 0, 64, 53
1, 140555, Control_c, 0, 64, 53
1, 140570, Control_c, 0, 64, 57
1, 140585, Control_c, 0, 64, 60
1, 140600, Control_c, 0, 64, 62
1, 140614, Control_c, 0, 64, 64
1, 140626, Note_on_c, 0, 58, 56
1, 140631, Control_c, 0, 64, 67
1, 140635, Note_off_c, 0, 59, 54
1, 140646, Control_c, 0, 64, 70
1, 140660, Control_c, 0, 64, 73
1, 140675, Control_c, 0, 64, 76
1, 140690, Control_c, 0, 64, 77
1, 140704, Control_c, 0, 64, 78
1, 140731, Note_off_c, 0, 58, 56
1, 140758, Note_on_c, 0, 56, 47
1, 140868, Control_c, 0, 64, 77
1, 140883, Control_c, 0, 64, 77
1, 140897, Control_c, 0, 64, 76
1, 140912, Control_c, 0, 64, 76
1, 140916, Note_off_c, 0, 56, 25
1, 140927, Control_c, 0, 64, 75
1, 140931, Note_on_c, 0, 65, 58
1, 140940, Note_off_c, 0, 53, 37
1, 140942, Control_c, 0, 64, 74
1, 140955, Note_on_c, 0, 42, 40
1, 140964, Control_c, 0, 64, 73
1, 140978, Control_c, 0, 64, 71
1, 140993, Control_c, 0, 64, 70
1, 140996, Note_off_c, 0, 41, 43
1, 141008, Control_c, 0, 64, 67
1, 141023, Control_c, 0, 64, 65
1, 141035, Note_off_c, 0, 62, 3
1, 141038, Control_c, 0, 64, 61
1, 141053, Control_c, 0, 64, 51
1, 141068, Control_c, 0, 64, 39
1, 141082, Control_c, 0, 64, 40
1, 141097, Control_c, 0, 64, 44
1, 141104, Note_on_c, 0, 54, 39
1, 141112, Control_c, 0, 64, 48
1, 141127, Control_c, 0, 64, 53
1, 141142, Control_c, 0, 64, 58
1, 141157, Control_c, 0, 64, 62
1, 141172, Control_c, 0, 64, 65
1, 141186, Control_c, 0, 64, 68
1, 141201, Control_c, 0, 64, 71
1, 141206, Note_on_c, 0, 58, 42
1, 141216, Control_c, 0, 64, 74
1, 141230, Control_c, 0, 64, 76
1, 141245, Control_c, 0, 64, 78
1, 141260, Note_off_c, 0, 54, 29
1, 141260, Control_c, 0, 64, 79
1, 141275, Control_c, 0, 64, 80
1, 141290, Control_c, 0, 64, 81
1, 141304, Control_c, 0, 64, 81
1, 141310, Note_off_c, 0, 65, 60
1, 141320, Note_on_c, 0, 63, 62
1, 141393, Control_c, 0, 64, 82
1, 141406, Note_off_c, 0, 58, 34
1, 141429, Note_off_c, 0, 42, 62
1, 141441, Note_on_c, 0, 54, 52
1, 141524, Note_on_c, 0, 58, 62
1, 141530, Note_off_c, 0, 54, 57
1, 141557, Control_c, 0, 64, 81
1, 141631, Control_c, 0, 64, 80
1, 141640, Note_on_c, 0, 38, 53
1, 141646, Control_c, 0, 64, 79
1, 141649, Note_on_c, 0, 66, 74
1, 141657, Note_off_c, 0, 58, 56
1, 141661, Control_c, 0, 64, 75
1, 141676, Control_c, 0, 64, 69
1, 141691, Control_c, 0, 64, 60
1, 141704, Note_off_c, 0, 38, 63
1, 141712, Note_on_c, 0, 39, 60
1, 141713, Control_c, 0, 64, 0
1, 141718, Note_off_c, 0, 63, 36
1, 141756, Note_on_c, 0, 56, 58
1, 141757, Control_c, 0, 64, 28
1, 141772, Control_c, 0, 64, 56
1, 141776, Note_off_c, 0, 39, 60
1, 141787, Control_c, 0, 64, 63
1, 141792, Note_on_c, 0, 38, 55
1, 141801, Control_c, 0, 64, 65
1, 141816, Control_c, 0, 64, 68
1, 141831, Control_c, 0, 64, 72
1, 141845, Note_on_c, 0, 59, 64
1, 141846, Control_c, 0, 64, 75
1, 141857, Note_on_c, 0, 39, 66
1, 141857, Note_off_c, 0, 38, 62
1, 141860, Control_c, 0, 64, 78
1, 141869, Note_off_c, 0, 66, 62
1, 141875, Control_c, 0, 64, 80
1, 141890, Control_c, 0, 64, 81
1, 141905, Control_c, 0, 64, 82
1, 141920, Control_c, 0, 64, 82
1, 141923, Note_off_c, 0, 56, 54
1, 141924, Note_off_c, 0, 39, 62
1, 141925, Note_on_c, 0, 38, 68
1, 141950, Control_c, 0, 64, 83
1, 141965, Note_on_c, 0, 65, 78
1, 141991, Note_off_c, 0, 59, 60
1, 142007, Note_on_c, 0, 39, 70
1, 142007, Note_off_c, 0, 38, 63
1, 142066, Note_on_c, 0, 56, 66
1, 142079, Note_off_c, 0, 39, 59
1, 142085, Note_on_c, 0, 38, 65
1, 142154, Note_on_c, 0, 39, 74
1, 142154, Note_off_c, 0, 38, 63
1, 142169, Note_on_c, 0, 59, 64
1, 142201, Control_c, 0, 64, 82
1, 142223, Note_off_c, 0, 39, 62
1, 142224, Note_on_c, 0, 38, 74
1, 142247, Control_c, 0, 64, 82
1, 142291, Control_c, 0, 64, 81
1, 142306, Control_c, 0, 64, 81
1, 142320, Note_on_c, 0, 39, 76
1, 142321, Control_c, 0, 64, 79
1, 142323, Note_off_c, 0, 38, 61
1, 142334, Note_off_c, 0, 56, 60
1, 142336, Control_c, 0, 64, 75
1, 142350, Control_c, 0, 64, 68
1, 142358, Note_on_c, 0, 68, 84
1, 142365, Control_c, 0, 64, 55
1, 142367, Note_off_c, 0, 59, 52
1, 142380, Control_c, 0, 64, 0
1, 142385, Note_off_c, 0, 65, 61
1, 142410, Control_c, 0, 64, 31
1, 142424, Control_c, 0, 64, 56
1, 142439, Control_c, 0, 64, 62
1, 142462, Control_c, 0, 64, 64
1, 142476, Control_c, 0, 64, 67
1, 142491, Control_c, 0, 64, 70
1, 142506, Control_c, 0, 64, 75
1, 142508, Note_on_c, 0, 58, 76
1, 142521, Control_c, 0, 64, 79
1, 142536, Control_c, 0, 64, 81
1, 142551, Control_c, 0, 64, 81
1, 142565, Control_c, 0, 64, 82
1, 142595, Control_c, 0, 64, 83
1, 142604, Note_on_c, 0, 63, 75
1, 142609, Control_c, 0, 64, 83
1, 142625, Note_off_c, 0, 68, 60
1, 142679, Note_off_c, 0, 58, 58
1, 142718, Note_on_c, 0, 66, 88
1, 142770, Note_off_c, 0, 63, 53
1, 142831, Note_on_c, 0, 58, 75
1, 142877, Control_c, 0, 64, 83
1, 142907, Control_c, 0, 64, 82
1, 142922, Control_c, 0, 64, 82
1, 142928, Note_on_c, 0, 63, 74
1, 142951, Control_c, 0, 64, 81
1, 142960, Note_off_c, 0, 66, 63
1, 142981, Control_c, 0, 64, 81
1, 143009, Note_off_c, 0, 58, 52
1, 143010, Control_c, 0, 64, 80
1, 143026, Control_c, 0, 64, 79
1, 143041, Control_c, 0, 64, 78
1, 143056, Control_c, 0, 64, 75
1, 143071, Note_on_c, 0, 64, 87
1, 143071, Control_c, 0, 64, 70
1, 143086, Control_c, 0, 64, 64
1, 143089, Note_on_c, 0, 32, 68
1, 143100, Control_c, 0, 64, 31
1, 143101, Note_off_c, 0, 63, 57
1, 143114, Note_off_c, 0, 39, 57
1, 143115, Control_c, 0, 64, 0
1, 143174, Control_c, 0, 64, 38
1, 143189, Control_c, 0, 64, 63
1, 143211, Control_c, 0, 64, 69
1, 143214, Note_on_c, 0, 56, 61
1, 143226, Control_c, 0, 64, 75
1, 143241, Control_c, 0, 64, 81
1, 143256, Control_c, 0, 64, 85
1, 143270, Control_c, 0, 64, 88
1, 143285, Control_c, 0, 64, 89
1, 143300, Control_c, 0, 64, 89
1, 143315, Control_c, 0, 64, 90
1, 143336, Note_on_c, 0, 59, 68
1, 143339, Note_off_c, 0, 56, 63
1, 143345, Control_c, 0, 64, 90
1, 143357, Note_off_c, 0, 64, 60
1, 143422, Note_off_c, 0, 59, 59
1, 143476, Note_on_c, 0, 71, 81
1, 143601, Note_on_c, 0, 59, 74
1, 143626, Note_on_c, 0, 63, 15
1, 143669, Note_off_c, 0, 63, 43
1, 143696, Note_off_c, 0, 71, 50
1, 143699, Note_off_c, 0, 59, 52
1, 143738, Note_on_c, 0, 64, 74
1, 143744, Control_c, 0, 64, 90
1, 143783, Note_off_c, 0, 64, 62
1, 143789, Control_c, 0, 64, 89
1, 143819, Control_c, 0, 64, 89
1, 143834, Control_c, 0, 64, 88
1, 143863, Note_off_c, 0, 32, 40
1, 143864, Control_c, 0, 64, 88
1, 143893, Control_c, 0, 64, 87
1, 143908, Control_c, 0, 64, 87
1, 143923, Control_c, 0, 64, 86
1, 143938, Control_c, 0, 64, 85
1, 143957, Note_on_c, 0, 34, 59
1, 143960, Control_c, 0, 64, 84
1, 143975, Control_c, 0, 64, 83
1, 143990, Control_c, 0, 64, 82
1, 144004, Control_c, 0, 64, 81
1, 144019, Control_c, 0, 64, 79
1, 144029, Note_on_c, 0, 63, 81
1, 144034, Control_c, 0, 64, 77
1, 144048, Control_c, 0, 64, 75
1, 144063, Control_c, 0, 64, 73
1, 144078, Control_c, 0, 64, 69
1, 144093, Control_c, 0, 64, 65
1, 144108, Control_c, 0, 64, 59
1, 144123, Control_c, 0, 64, 46
1, 144138, Control_c, 0, 64, 29
1, 144153, Control_c, 0, 64, 18
1, 144168, Control_c, 0, 64, 0
1, 144278, Note_on_c, 0, 51, 49
1, 144286, Control_c, 0, 64, 11
1, 144301, Control_c, 0, 64, 34
1, 144316, Control_c, 0, 64, 47
1, 144330, Control_c, 0, 64, 54
1, 144345, Control_c, 0, 64, 60
1, 144360, Control_c, 0, 64, 63
1, 144374, Control_c, 0, 64, 65
1, 144389, Control_c, 0, 64, 68
1, 144404, Control_c, 0, 64, 70
1, 144413, Note_on_c, 0, 54, 49
1, 144419, Control_c, 0, 64, 74
1, 144434, Control_c, 0, 64, 77
1, 144448, Control_c, 0, 64, 79
1, 144463, Control_c, 0, 64, 80
1, 144478, Control_c, 0, 64, 81
1, 144493, Control_c, 0, 64, 81
1, 144511, Note_off_c, 0, 54, 60
1, 144525, Note_on_c, 0, 58, 49
1, 144544, Note_off_c, 0, 51, 32
1, 144627, Control_c, 0, 64, 81
1, 144642, Control_c, 0, 64, 80
1, 144646, Note_on_c, 0, 54, 48
1, 144657, Control_c, 0, 64, 80
1, 144661, Note_off_c, 0, 58, 37
1, 144671, Control_c, 0, 64, 79
1, 144686, Control_c, 0, 64, 79
1, 144709, Control_c, 0, 64, 78
1, 144724, Control_c, 0, 64, 77
1, 144739, Control_c, 0, 64, 76
1, 144743, Note_off_c, 0, 54, 55
1, 144753, Control_c, 0, 64, 75
1, 144761, Note_on_c, 0, 51, 51
1, 144768, Control_c, 0, 64, 74
1, 144783, Control_c, 0, 64, 73
1, 144798, Control_c, 0, 64, 72
1, 144813, Control_c, 0, 64, 71
1, 144827, Control_c, 0, 64, 69
1, 144842, Control_c, 0, 64, 68
1, 144857, Control_c, 0, 64, 67
1, 144869, Note_off_c, 0, 51, 54
1, 144871, Control_c, 0, 64, 66
1, 144880, Note_on_c, 0, 54, 50
1, 144886, Control_c, 0, 64, 65
1, 144916, Control_c, 0, 64, 65
1, 144931, Control_c, 0, 64, 64
1, 144946, Control_c, 0, 64, 63
1, 144961, Control_c, 0, 64, 62
1, 144975, Control_c, 0, 64, 60
1, 144990, Control_c, 0, 64, 57
1, 144991, Note_off_c, 0, 54, 60
1, 144995, Note_off_c, 0, 34, 64
1, 144996, Note_on_c, 0, 33, 50
1, 145004, Control_c, 0, 64, 55
1, 145005, Note_on_c, 0, 51, 52
1, 145019, Control_c, 0, 64, 53
1, 145034, Control_c, 0, 64, 51
1, 145049, Control_c, 0, 64, 48
1, 145064, Control_c, 0, 64, 46
1, 145078, Control_c, 0, 64, 44
1, 145093, Control_c, 0, 64, 43
1, 145108, Control_c, 0, 64, 43
1, 145113, Note_off_c, 0, 33, 58
1, 145123, Control_c, 0, 64, 42
1, 145127, Note_on_c, 0, 34, 58
1, 145131, Note_off_c, 0, 51, 49
1, 145133, Note_on_c, 0, 54, 52
1, 145138, Control_c, 0, 64, 41
1, 145152, Control_c, 0, 64, 38
1, 145167, Control_c, 0, 64, 26
1, 145182, Control_c, 0, 64, 0
1, 145216, Note_off_c, 0, 34, 63
1, 145243, Note_off_c, 0, 54, 56
1, 145251, Note_on_c, 0, 35, 45
1, 145253, Note_on_c, 0, 58, 53
1, 145347, Note_off_c, 0, 58, 54
1, 145360, Control_c, 0, 64, 23
1, 145373, Note_off_c, 0, 35, 47
1, 145375, Control_c, 0, 64, 57
1, 145377, Note_on_c, 0, 54, 46
1, 145381, Note_on_c, 0, 34, 51
1, 145390, Control_c, 0, 64, 62
1, 145404, Control_c, 0, 64, 64
1, 145435, Control_c, 0, 64, 64
1, 145467, Note_off_c, 0, 54, 46
1, 145493, Note_on_c, 0, 51, 37
1, 145495, Note_off_c, 0, 34, 59
1, 145508, Note_on_c, 0, 33, 50
1, 145511, Note_off_c, 0, 63, 40
1, 145516, Control_c, 0, 64, 64
1, 145575, Control_c, 0, 64, 63
1, 145590, Control_c, 0, 64, 63
1, 145605, Control_c, 0, 64, 62
1, 145619, Control_c, 0, 64, 61
1, 145629, Note_off_c, 0, 51, 32
1, 145634, Control_c, 0, 64, 60
1, 145649, Control_c, 0, 64, 58
1, 145664, Control_c, 0, 64, 57
1, 145674, Note_off_c, 0, 33, 55
1, 145679, Note_on_c, 0, 34, 42
1, 145679, Control_c, 0, 64, 54
1, 145680, Note_on_c, 0, 62, 54
1, 145694, Control_c, 0, 64, 52
1, 145709, Control_c, 0, 64, 46
1, 145724, Control_c, 0, 64, 35
1, 145739, Control_c, 0, 64, 0
1, 145824, Note_on_c, 0, 50, 29
1, 145902, Control_c, 0, 64, 49
1, 145917, Control_c, 0, 64, 62
1, 145932, Control_c, 0, 64, 65
1, 145936, Note_on_c, 0, 53, 39
1, 145947, Control_c, 0, 64, 68
1, 145962, Control_c, 0, 64, 70
1, 145966, Note_off_c, 0, 50, 36
1, 145976, Control_c, 0, 64, 73
1, 145991, Control_c, 0, 64, 76
1, 146006, Control_c, 0, 64, 78
1, 146020, Control_c, 0, 64, 80
1, 146035, Control_c, 0, 64, 81
1, 146050, Control_c, 0, 64, 82
1, 146065, Control_c, 0, 64, 83
1, 146072, Note_off_c, 0, 53, 38
1, 146075, Note_on_c, 0, 58, 40
1, 146124, Control_c, 0, 67, 124
1, 146139, Control_c, 0, 67, 118
1, 146154, Control_c, 0, 67, 116
1, 146183, Control_c, 0, 67, 116
1, 146202, Note_on_c, 0, 53, 45
1, 146206, Note_off_c, 0, 58, 34
1, 146206, Control_c, 0, 67, 117
1, 146222, Control_c, 0, 67, 117
1, 146236, Control_c, 0, 67, 118
1, 146251, Control_c, 0, 67, 119
1, 146266, Control_c, 0, 67, 121
1, 146281, Control_c, 0, 64, 82
1, 146281, Control_c, 0, 67, 122
1, 146296, Control_c, 0, 67, 123
1, 146311, Control_c, 0, 64, 82
1, 146311, Control_c, 0, 67, 124
1, 146325, Control_c, 0, 64, 81
1, 146325, Control_c, 0, 67, 125
1, 146340, Control_c, 0, 64, 81
1, 146340, Control_c, 0, 67, 126
1, 146345, Note_off_c, 0, 53, 42
1, 146355, Control_c, 0, 64, 80
1, 146355, Control_c, 0, 67, 126
1, 146357, Note_on_c, 0, 50, 46
1, 146370, Control_c, 0, 64, 80
1, 146370, Control_c, 0, 67, 127
1, 146385, Control_c, 0, 64, 79
1, 146399, Control_c, 0, 64, 79
1, 146414, Control_c, 0, 64, 78
1, 146429, Control_c, 0, 64, 77
1, 146443, Control_c, 0, 64, 76
1, 146458, Control_c, 0, 64, 75
1, 146473, Control_c, 0, 64, 73
1, 146488, Control_c, 0, 64, 70
1, 146503, Control_c, 0, 64, 67
1, 146508, Note_off_c, 0, 50, 22
1, 146517, Control_c, 0, 64, 63
1, 146517, Control_c, 0, 67, 126
1, 146521, Note_on_c, 0, 53, 43
1, 146526, Note_off_c, 0, 34, 39
1, 146529, Note_on_c, 0, 32, 38
1, 146532, Control_c, 0, 64, 59
1, 146547, Control_c, 0, 64, 56
1, 146562, Control_c, 0, 64, 54
1, 146577, Control_c, 0, 64, 52
1, 146577, Control_c, 0, 67, 126
1, 146591, Control_c, 0, 64, 42
1, 146606, Control_c, 0, 64, 0
1, 146606, Control_c, 0, 67, 125
1, 146651, Control_c, 0, 67, 125
1, 146654, Note_off_c, 0, 53, 55
1, 146666, Control_c, 0, 67, 124
1, 146673, Note_on_c, 0, 50, 36
1, 146695, Control_c, 0, 67, 124
1, 146740, Control_c, 0, 67, 123
1, 146755, Control_c, 0, 64, 18
1, 146769, Control_c, 0, 64, 51
1, 146784, Control_c, 0, 64, 60
1, 146799, Control_c, 0, 64, 63
1, 146813, Note_off_c, 0, 50, 33
1, 146814, Control_c, 0, 64, 65
1, 146814, Control_c, 0, 67, 123
1, 146818, Note_on_c, 0, 53, 31
1, 146829, Control_c, 0, 64, 67
1, 146843, Control_c, 0, 64, 68
1, 146843, Control_c, 0, 67, 122
1, 146858, Control_c, 0, 64, 71
1, 146858, Control_c, 0, 67, 122
1, 146873, Control_c, 0, 64, 73
1, 146873, Control_c, 0, 67, 121
1, 146888, Control_c, 0, 64, 75
1, 146888, Control_c, 0, 67, 121
1, 146903, Control_c, 0, 64, 77
1, 146903, Control_c, 0, 67, 120
1, 146917, Control_c, 0, 64, 79
1, 146917, Control_c, 0, 67, 118
1, 146932, Control_c, 0, 64, 80
1, 146932, Control_c, 0, 67, 117
1, 146955, Control_c, 0, 64, 82
1, 146955, Control_c, 0, 67, 116
1, 146969, Control_c, 0, 64, 83
1, 146969, Control_c, 0, 67, 116
1, 146971, Note_off_c, 0, 62, 6
1, 146982, Note_on_c, 0, 58, 45
1, 146984, Control_c, 0, 64, 84
1, 146984, Control_c, 0, 67, 115
1, 146999, Control_c, 0, 64, 85
1, 146999, Control_c, 0, 67, 113
1, 147009, Note_off_c, 0, 53, 41
1, 147014, Control_c, 0, 64, 85
1, 147014, Control_c, 0, 67, 106
1, 147029, Control_c, 0, 67, 94
1, 147044, Control_c, 0, 67, 79
1, 147059, Control_c, 0, 67, 63
1, 147074, Control_c, 0, 67, 51
1, 147089, Control_c, 0, 67, 42
1, 147104, Control_c, 0, 67, 38
1, 147119, Control_c, 0, 67, 38
1, 147134, Control_c, 0, 67, 38
1, 147148, Control_c, 0, 67, 39
1, 147163, Control_c, 0, 67, 40
1, 147178, Control_c, 0, 67, 41
1, 147193, Control_c, 0, 67, 42
1, 147195, Note_on_c, 0, 53, 31
1, 147207, Control_c, 0, 67, 44
1, 147222, Control_c, 0, 67, 45
1, 147237, Control_c, 0, 67, 47
1, 147252, Control_c, 0, 67, 49
1, 147267, Control_c, 0, 67, 52
1, 147278, Note_off_c, 0, 58, 19
1, 147281, Control_c, 0, 67, 58
1, 147296, Control_c, 0, 67, 66
1, 147311, Control_c, 0, 67, 79
1, 147326, Control_c, 0, 67, 89
1, 147340, Control_c, 0, 67, 98
1, 147355, Control_c, 0, 67, 105
1, 147370, Control_c, 0, 64, 85
1, 147370, Control_c, 0, 67, 111
1, 147385, Control_c, 0, 67, 116
1, 147399, Control_c, 0, 67, 120
1, 147414, Control_c, 0, 67, 121
1, 147415, Note_on_c, 0, 50, 32
1, 147426, Note_off_c, 0, 32, 38
1, 147429, Control_c, 0, 64, 84
1, 147453, Note_off_c, 0, 50, 51
1, 147473, Control_c, 0, 67, 120
1, 147488, Control_c, 0, 67, 120
1, 147494, Note_off_c, 0, 53, 40
1, 147503, Control_c, 0, 64, 84
1, 147503, Control_c, 0, 67, 119
1, 147533, Control_c, 0, 67, 119
1, 147548, Control_c, 0, 67, 118
1, 147563, Control_c, 0, 64, 83
1, 147578, Control_c, 0, 67, 118
1, 147592, Control_c, 0, 67, 117
1, 147622, Control_c, 0, 67, 117
1, 147652, Control_c, 0, 64, 83
1, 147652, Control_c, 0, 67, 116
1, 147681, Control_c, 0, 64, 82
1, 147718, Control_c, 0, 64, 82
1, 147748, Control_c, 0, 64, 81
1, 147748, Control_c, 0, 67, 116
1, 147763, Control_c, 0, 64, 81
1, 147778, Control_c, 0, 64, 80
1, 147792, Control_c, 0, 64, 80
1, 147807, Control_c, 0, 64, 79
1, 147822, Control_c, 0, 64, 79
1, 147837, Control_c, 0, 64, 78
1, 147837, Control_c, 0, 67, 115
1, 147852, Control_c, 0, 64, 78
1, 147867, Control_c, 0, 64, 77
1, 147882, Control_c, 0, 64, 77
1, 147897, Control_c, 0, 64, 76
1, 147912, Control_c, 0, 64, 76
1, 147927, Control_c, 0, 64, 75
1, 147935, Note_on_c, 0, 31, 32
1, 147939, Note_on_c, 0, 43, 26
1, 147941, Control_c, 0, 64, 74
1, 147956, Control_c, 0, 64, 72
1, 147971, Control_c, 0, 64, 70
1, 147986, Control_c, 0, 64, 68
1, 148001, Control_c, 0, 64, 65
1, 148015, Control_c, 0, 64, 64
1, 148024, Note_on_c, 0, 70, 53
1, 148030, Control_c, 0, 64, 62
1, 148045, Control_c, 0, 64, 62
1, 148060, Control_c, 0, 64, 61
1, 148075, Control_c, 0, 64, 60
1, 148089, Control_c, 0, 64, 57
1, 148104, Control_c, 0, 64, 53
1, 148119, Control_c, 0, 64, 46
1, 148134, Control_c, 0, 64, 40
1, 148149, Control_c, 0, 64, 35
1, 148164, Control_c, 0, 64, 34
1, 148178, Control_c, 0, 64, 37
1, 148193, Control_c, 0, 64, 42
1, 148193, Control_c, 0, 67, 115
1, 148208, Control_c, 0, 64, 48
1, 148222, Control_c, 0, 64, 55
1, 148222, Control_c, 0, 67, 114
1, 148237, Control_c, 0, 64, 61
1, 148252, Control_c, 0, 64, 64
1, 148267, Control_c, 0, 64, 67
1, 148267, Control_c, 0, 67, 114
1, 148282, Control_c, 0, 64, 70
1, 148296, Control_c, 0, 64, 73
1, 148296, Control_c, 0, 67, 113
1, 148311, Control_c, 0, 64, 75
1, 148311, Control_c, 0, 67, 113
1, 148326, Control_c, 0, 64, 78
1, 148341, Control_c, 0, 64, 80
1, 148356, Control_c, 0, 64, 81
1, 148371, Control_c, 0, 64, 83
1, 148386, Control_c, 0, 64, 84
1, 148386, Control_c, 0, 67, 112
1, 148389, Note_on_c, 0, 58, 31
1, 148401, Control_c, 0, 64, 85
1, 148415, Control_c, 0, 64, 87
1, 148415, Control_c, 0, 67, 112
1, 148430, Control_c, 0, 64, 87
1, 148452, Control_c, 0, 64, 88
1, 148482, Control_c, 0, 64, 89
1, 148482, Control_c, 0, 67, 111
1, 148496, Control_c, 0, 64, 89
1, 148511, Control_c, 0, 64, 90
1, 148526, Control_c, 0, 64, 90
1, 148526, Control_c, 0, 67, 111
1, 148541, Control_c, 0, 64, 91
1, 148541, Control_c, 0, 67, 110
1, 148556, Control_c, 0, 64, 91
1, 148560, Note_on_c, 0, 63, 32
1, 148570, Control_c, 0, 67, 110
1, 148585, Control_c, 0, 67, 109
1, 148600, Control_c, 0, 64, 92
1, 148600, Control_c, 0, 67, 109
1, 148616, Control_c, 0, 67, 108
1, 148645, Control_c, 0, 64, 92
1, 148645, Control_c, 0, 67, 106
1, 148646, Note_off_c, 0, 58, 33
1, 148660, Control_c, 0, 67, 104
1, 148675, Control_c, 0, 67, 102
1, 148678, Note_off_c, 0, 63, 37
1, 148687, Note_on_c, 0, 67, 36
1, 148690, Control_c, 0, 67, 99
1, 148705, Control_c, 0, 67, 95
1, 148720, Control_c, 0, 67, 92
1, 148734, Control_c, 0, 67, 88
1, 148749, Control_c, 0, 67, 87
1, 148764, Control_c, 0, 67, 85
1, 148768, Note_off_c, 0, 67, 54
1, 148779, Control_c, 0, 67, 84
1, 148794, Control_c, 0, 67, 82
1, 148809, Control_c, 0, 67, 80
1, 148812, Note_on_c, 0, 63, 33
1, 148824, Control_c, 0, 67, 77
1, 148838, Control_c, 0, 67, 73
1, 148853, Control_c, 0, 67, 69
1, 148859, Note_off_c, 0, 63, 46
1, 148868, Control_c, 0, 67, 68
1, 148905, Note_on_c, 0, 58, 26
1, 148927, Control_c, 0, 67, 68
1, 148942, Control_c, 0, 67, 69
1, 148957, Control_c, 0, 67, 70
1, 148964, Note_off_c, 0, 58, 45
1, 148972, Control_c, 0, 67, 71
1, 148986, Control_c, 0, 67, 72
1, 149001, Control_c, 0, 67, 73
1, 149006, Note_on_c, 0, 63, 32
1, 149016, Control_c, 0, 67, 73
1, 149031, Control_c, 0, 67, 75
1, 149045, Control_c, 0, 67, 76
1, 149060, Control_c, 0, 67, 78
1, 149075, Control_c, 0, 67, 79
1, 149090, Control_c, 0, 67, 80
1, 149099, Note_off_c, 0, 63, 38
1, 149105, Control_c, 0, 67, 84
1, 149115, Note_on_c, 0, 58, 30
1, 149119, Control_c, 0, 67, 90
1, 149134, Control_c, 0, 67, 97
1, 149149, Control_c, 0, 67, 106
1, 149153, Note_off_c, 0, 31, 39
1, 149164, Control_c, 0, 67, 112
1, 149179, Control_c, 0, 67, 117
1, 149201, Control_c, 0, 67, 121
1, 149216, Control_c, 0, 67, 125
1, 149231, Control_c, 0, 64, 92
1, 149231, Control_c, 0, 67, 127
1, 149238, Note_on_c, 0, 63, 39
1, 149275, Control_c, 0, 64, 91
1, 149305, Control_c, 0, 64, 91
1, 149311, Note_off_c, 0, 63, 40
1, 149349, Control_c, 0, 64, 90
1, 149350, Note_on_c, 0, 67, 37
1, 149350, Note_off_c, 0, 70, 34
1, 149353, Note_off_c, 0, 58, 35
1, 149363, Control_c, 0, 64, 90
1, 149378, Control_c, 0, 64, 89
1, 149393, Control_c, 0, 64, 89
1, 149408, Control_c, 0, 64, 88
1, 149439, Control_c, 0, 64, 88
1, 149447, Note_off_c, 0, 67, 34
1, 149464, Note_on_c, 0, 63, 31
1, 149468, Control_c, 0, 64, 87
1, 149483, Control_c, 0, 64, 87
1, 149513, Control_c, 0, 64, 86
1, 149528, Control_c, 0, 64, 86
1, 149532, Note_off_c, 0, 63, 40
1, 149557, Control_c, 0, 64, 85
1, 149563, Note_on_c, 0, 58, 37
1, 149572, Control_c, 0, 64, 85
1, 149587, Control_c, 0, 64, 84
1, 149602, Control_c, 0, 64, 84
1, 149617, Control_c, 0, 64, 83
1, 149632, Control_c, 0, 64, 83
1, 149647, Control_c, 0, 64, 82
1, 149661, Control_c, 0, 64, 81
1, 149676, Control_c, 0, 64, 80
1, 149676, Note_off_c, 0, 58, 26
1, 149691, Control_c, 0, 64, 78
1, 149697, Note_on_c, 0, 70, 58
1, 149706, Control_c, 0, 64, 76
1, 149721, Control_c, 0, 64, 73
1, 149726, Note_on_c, 0, 41, 35
1, 149735, Control_c, 0, 64, 70
1, 149750, Control_c, 0, 64, 67
1, 149765, Control_c, 0, 64, 64
1, 149780, Control_c, 0, 64, 58
1, 149788, Note_off_c, 0, 43, 35
1, 149794, Control_c, 0, 64, 50
1, 149809, Control_c, 0, 64, 44
1, 149824, Control_c, 0, 64, 42
1, 149839, Control_c, 0, 64, 43
1, 149854, Control_c, 0, 64, 46
1, 149860, Note_on_c, 0, 58, 36
1, 149868, Control_c, 0, 64, 52
1, 149883, Control_c, 0, 64, 58
1, 149898, Control_c, 0, 64, 62
1, 149913, Control_c, 0, 64, 65
1, 149928, Control_c, 0, 64, 67
1, 149950, Control_c, 0, 64, 71
1, 149965, Control_c, 0, 64, 76
1, 149980, Control_c, 0, 64, 80
1, 149986, Note_on_c, 0, 62, 36
1, 149994, Control_c, 0, 64, 83
1, 149996, Note_off_c, 0, 58, 33
1, 150009, Control_c, 0, 64, 86
1, 150024, Control_c, 0, 64, 88
1, 150039, Control_c, 0, 64, 90
1, 150054, Control_c, 0, 64, 92
1, 150068, Control_c, 0, 64, 94
1, 150083, Control_c, 0, 64, 95
1, 150088, Note_off_c, 0, 62, 37
1, 150096, Note_on_c, 0, 68, 45
1, 150098, Control_c, 0, 64, 96
1, 150113, Control_c, 0, 64, 96
1, 150129, Note_off_c, 0, 70, 36
1, 150142, Control_c, 0, 64, 97
1, 150159, Note_off_c, 0, 68, 54
1, 150209, Note_on_c, 0, 62, 40
1, 150264, Note_off_c, 0, 62, 51
1, 150309, Note_on_c, 0, 58, 48
1, 150343, Note_off_c, 0, 58, 57
1, 150441, Note_on_c, 0, 72, 43
1, 150454, Control_c, 0, 67, 125
1, 150454, Note_on_c, 0, 74, 27
1, 150469, Control_c, 0, 67, 122
1, 150483, Control_c, 0, 67, 118
1, 150489, Note_off_c, 0, 74, 52
1, 150498, Control_c, 0, 67, 116
1, 150513, Control_c, 0, 67, 115
1, 150528, Control_c, 0, 67, 114
1, 150543, Control_c, 0, 67, 113
1, 150549, Note_on_c, 0, 62, 59
1, 150557, Control_c, 0, 67, 110
1, 150572, Control_c, 0, 67, 108
1, 150587, Control_c, 0, 67, 107
1, 150602, Control_c, 0, 67, 107
1, 150616, Control_c, 0, 67, 106
1, 150631, Control_c, 0, 67, 106
1, 150661, Control_c, 0, 67, 105
1, 150676, Control_c, 0, 67, 104
1, 150689, Note_on_c, 0, 68, 51
1, 150725, Note_off_c, 0, 62, 35
1, 150728, Control_c, 0, 67, 104
1, 150743, Control_c, 0, 67, 103
1, 150758, Control_c, 0, 67, 102
1, 150772, Control_c, 0, 67, 100
1, 150787, Control_c, 0, 67, 98
1, 150802, Control_c, 0, 67, 96
1, 150809, Note_on_c, 0, 70, 63
1, 150809, Note_off_c, 0, 68, 56
1, 150816, Control_c, 0, 67, 96
1, 150831, Control_c, 0, 67, 95
1, 150874, Note_off_c, 0, 72, 35
1, 150876, Control_c, 0, 67, 96
1, 150905, Control_c, 0, 67, 97
1, 150953, Note_on_c, 0, 68, 39
1, 150964, Control_c, 0, 64, 96
1, 150964, Control_c, 0, 67, 98
1, 150994, Control_c, 0, 64, 96
1, 151009, Control_c, 0, 64, 95
1, 151024, Control_c, 0, 64, 95
1, 151024, Control_c, 0, 67, 97
1, 151039, Control_c, 0, 64, 94
1, 151054, Control_c, 0, 64, 94
1, 151067, Note_on_c, 0, 62, 32
1, 151068, Control_c, 0, 64, 93
1, 151083, Control_c, 0, 64, 93
1, 151096, Note_off_c, 0, 68, 43
1, 151098, Control_c, 0, 64, 92
1, 151102, Note_off_c, 0, 62, 43
1, 151113, Control_c, 0, 64, 92
1, 151119, Note_off_c, 0, 70, 49
1, 151128, Control_c, 0, 64, 91
1, 151128, Control_c, 0, 67, 97
1, 151143, Control_c, 0, 64, 91
1, 151158, Control_c, 0, 64, 90
1, 151173, Control_c, 0, 64, 89
1, 151187, Control_c, 0, 64, 89
1, 151202, Control_c, 0, 64, 88
1, 151217, Control_c, 0, 64, 87
1, 151217, Control_c, 0, 67, 96
1, 151231, Control_c, 0, 64, 87
1, 151238, Note_on_c, 0, 39, 38
1, 151246, Control_c, 0, 64, 86
1, 151261, Control_c, 0, 64, 85
1, 151272, Note_off_c, 0, 41, 25
1, 151276, Control_c, 0, 64, 84
1, 151291, Control_c, 0, 64, 83
1, 151302, Note_on_c, 0, 79, 70
1, 151305, Control_c, 0, 64, 81
1, 151320, Control_c, 0, 64, 79
1, 151335, Control_c, 0, 64, 77
1, 151350, Control_c, 0, 64, 73
1, 151365, Control_c, 0, 64, 69
1, 151379, Control_c, 0, 64, 63
1, 151394, Control_c, 0, 64, 42
1, 151409, Control_c, 0, 64, 0
1, 151424, Control_c, 0, 67, 96
1, 151461, Control_c, 0, 64, 26
1, 151476, Control_c, 0, 64, 45
1, 151491, Control_c, 0, 64, 56
1, 151506, Control_c, 0, 64, 63
1, 151520, Control_c, 0, 64, 66
1, 151535, Control_c, 0, 64, 69
1, 151535, Control_c, 0, 67, 95
1, 151541, Note_on_c, 0, 67, 41
1, 151550, Control_c, 0, 64, 73
1, 151564, Control_c, 0, 64, 78
1, 151579, Control_c, 0, 64, 81
1, 151579, Control_c, 0, 67, 95
1, 151594, Control_c, 0, 64, 84
1, 151594, Control_c, 0, 67, 94
1, 151609, Control_c, 0, 64, 86
1, 151609, Control_c, 0, 67, 94
1, 151624, Control_c, 0, 64, 88
1, 151624, Control_c, 0, 67, 93
1, 151638, Control_c, 0, 64, 89
1, 151638, Control_c, 0, 67, 88
1, 151653, Control_c, 0, 64, 90
1, 151653, Control_c, 0, 67, 82
1, 151661, Note_on_c, 0, 70, 29
1, 151668, Control_c, 0, 64, 91
1, 151668, Control_c, 0, 67, 73
1, 151683, Control_c, 0, 67, 65
1, 151698, Note_off_c, 0, 67, 31
1, 151698, Control_c, 0, 64, 92
1, 151698, Control_c, 0, 67, 61
1, 151712, Control_c, 0, 67, 60
1, 151727, Control_c, 0, 67, 59
1, 151742, Note_off_c, 0, 70, 39
1, 151742, Control_c, 0, 67, 59
1, 151755, Note_on_c, 0, 75, 40
1, 151757, Control_c, 0, 67, 58
1, 151772, Control_c, 0, 67, 58
1, 151787, Control_c, 0, 67, 57
1, 151802, Control_c, 0, 67, 55
1, 151817, Control_c, 0, 67, 54
1, 151832, Control_c, 0, 67, 54
1, 151847, Control_c, 0, 67, 53
1, 151861, Note_on_c, 0, 70, 44
1, 151876, Control_c, 0, 67, 53
1, 151891, Control_c, 0, 67, 52
1, 151920, Note_off_c, 0, 70, 41
1, 151921, Control_c, 0, 67, 51
1, 151927, Note_off_c, 0, 79, 35
1, 151931, Note_off_c, 0, 75, 22
1, 151936, Control_c, 0, 67, 49
1, 151951, Control_c, 0, 67, 47
1, 151966, Control_c, 0, 67, 44
1, 151967, Note_on_c, 0, 67, 36
1, 151981, Control_c, 0, 67, 41
1, 151996, Control_c, 0, 67, 38
1, 152010, Control_c, 0, 67, 37
1, 152024, Note_off_c, 0, 67, 41
1, 152025, Control_c, 0, 67, 35
1, 152040, Control_c, 0, 67, 35
1, 152054, Note_on_c, 0, 70, 46
1, 152055, Control_c, 0, 67, 34
1, 152070, Control_c, 0, 67, 33
1, 152115, Control_c, 0, 67, 34
1, 152117, Note_off_c, 0, 70, 50
1, 152129, Control_c, 0, 67, 35
1, 152144, Control_c, 0, 67, 36
1, 152159, Control_c, 0, 67, 37
1, 152159, Note_on_c, 0, 67, 39
1, 152174, Control_c, 0, 67, 38
1, 152195, Control_c, 0, 67, 39
1, 152210, Control_c, 0, 67, 41
1, 152225, Control_c, 0, 67, 43
1, 152240, Control_c, 0, 67, 45
1, 152255, Control_c, 0, 67, 46
1, 152264, Note_on_c, 0, 70, 41
1, 152270, Control_c, 0, 67, 51
1, 152285, Control_c, 0, 67, 62
1, 152300, Control_c, 0, 67, 72
1, 152314, Control_c, 0, 67, 79
1, 152329, Control_c, 0, 67, 85
1, 152344, Control_c, 0, 67, 89
1, 152359, Control_c, 0, 67, 93
1, 152374, Control_c, 0, 67, 98
1, 152380, Note_on_c, 0, 77, 62
1, 152381, Note_off_c, 0, 70, 31
1, 152388, Control_c, 0, 64, 91
1, 152388, Control_c, 0, 67, 101
1, 152401, Note_off_c, 0, 67, 27
1, 152403, Control_c, 0, 67, 104
1, 152418, Control_c, 0, 67, 105
1, 152433, Control_c, 0, 64, 91
1, 152478, Control_c, 0, 64, 90
1, 152478, Control_c, 0, 67, 104
1, 152493, Control_c, 0, 67, 104
1, 152499, Note_off_c, 0, 77, 50
1, 152500, Note_on_c, 0, 71, 50
1, 152508, Control_c, 0, 64, 90
1, 152508, Control_c, 0, 67, 103
1, 152537, Control_c, 0, 64, 89
1, 152552, Control_c, 0, 67, 103
1, 152581, Control_c, 0, 64, 89
1, 152581, Control_c, 0, 67, 102
1, 152604, Note_off_c, 0, 71, 54
1, 152612, Control_c, 0, 64, 88
1, 152627, Control_c, 0, 64, 88
1, 152627, Control_c, 0, 67, 101
1, 152633, Note_on_c, 0, 67, 52
1, 152642, Control_c, 0, 64, 87
1, 152672, Control_c, 0, 64, 87
1, 152672, Control_c, 0, 67, 101
1, 152686, Control_c, 0, 64, 86
1, 152701, Control_c, 0, 67, 100
1, 152716, Control_c, 0, 64, 86
1, 152716, Control_c, 0, 67, 100
1, 152731, Control_c, 0, 64, 85
1, 152746, Control_c, 0, 64, 84
1, 152746, Control_c, 0, 67, 99
1, 152750, Note_off_c, 0, 39, 24
1, 152760, Control_c, 0, 64, 84
1, 152775, Control_c, 0, 64, 83
1, 152775, Control_c, 0, 67, 99
1, 152790, Control_c, 0, 64, 83
1, 152805, Control_c, 0, 64, 82
1, 152813, Note_on_c, 0, 77, 69
1, 152819, Control_c, 0, 64, 81
1, 152834, Control_c, 0, 64, 80
1, 152834, Control_c, 0, 67, 98
1, 152836, Note_off_c, 0, 67, 23
1, 152845, Note_on_c, 0, 44, 29
1, 152849, Control_c, 0, 64, 78
1, 152864, Control_c, 0, 64, 76
1, 152879, Control_c, 0, 64, 74
1, 152893, Control_c, 0, 64, 70
1, 152908, Control_c, 0, 64, 64
1, 152923, Control_c, 0, 64, 36
1, 152923, Control_c, 0, 67, 98
1, 152946, Control_c, 0, 64, 0
1, 152960, Control_c, 0, 64, 20
1, 152975, Control_c, 0, 64, 48
1, 152985, Note_on_c, 0, 72, 50
1, 152990, Control_c, 0, 64, 58
1, 153005, Control_c, 0, 64, 63
1, 153019, Control_c, 0, 64, 67
1, 153019, Control_c, 0, 67, 98
1, 153034, Control_c, 0, 64, 72
1, 153049, Control_c, 0, 64, 77
1, 153061, Note_off_c, 0, 72, 52
1, 153064, Control_c, 0, 64, 81
1, 153064, Control_c, 0, 67, 99
1, 153079, Control_c, 0, 64, 83
1, 153085, Note_on_c, 0, 63, 52
1, 153093, Control_c, 0, 64, 84
1, 153108, Control_c, 0, 64, 85
1, 153123, Control_c, 0, 64, 86
1, 153138, Control_c, 0, 64, 87
1, 153153, Control_c, 0, 64, 88
1, 153167, Control_c, 0, 64, 88
1, 153173, Note_off_c, 0, 63, 37
1, 153189, Note_on_c, 0, 75, 70
1, 153286, Control_c, 0, 67, 99
1, 153301, Control_c, 0, 67, 100
1, 153307, Note_off_c, 0, 77, 28
1, 153308, Note_on_c, 0, 72, 59
1, 153330, Control_c, 0, 67, 101
1, 153370, Note_off_c, 0, 72, 54
1, 153375, Control_c, 0, 67, 101
1, 153390, Control_c, 0, 67, 102
1, 153405, Control_c, 0, 67, 102
1, 153423, Note_on_c, 0, 63, 48
1, 153435, Control_c, 0, 67, 103
1, 153465, Control_c, 0, 67, 103
1, 153495, Control_c, 0, 67, 104
1, 153509, Control_c, 0, 67, 104
1, 153541, Note_on_c, 0, 72, 60
1, 153547, Note_off_c, 0, 63, 26
1, 153554, Control_c, 0, 67, 105
1, 153583, Control_c, 0, 67, 105
1, 153594, Note_off_c, 0, 75, 21
1, 153598, Control_c, 0, 67, 106
1, 153644, Note_off_c, 0, 72, 62
1, 153657, Control_c, 0, 67, 106
1, 153659, Note_on_c, 0, 68, 58
1, 153672, Control_c, 0, 67, 107
1, 153695, Control_c, 0, 67, 108
1, 153709, Note_off_c, 0, 68, 62
1, 153709, Control_c, 0, 67, 112
1, 153724, Control_c, 0, 67, 115
1, 153739, Control_c, 0, 67, 116
1, 153754, Control_c, 0, 67, 117
1, 153768, Control_c, 0, 67, 117
1, 153772, Note_on_c, 0, 63, 47
1, 153783, Control_c, 0, 67, 118
1, 153798, Control_c, 0, 67, 118
1, 153852, Note_off_c, 0, 63, 39
1, 153872, Control_c, 0, 67, 119
1, 153887, Control_c, 0, 67, 119
1, 153891, Note_on_c, 0, 68, 56
1, 153916, Control_c, 0, 67, 120
1, 153931, Control_c, 0, 67, 121
1, 153946, Control_c, 0, 67, 122
1, 153960, Control_c, 0, 67, 123
1, 153975, Control_c, 0, 64, 88
1, 153975, Control_c, 0, 67, 124
1, 153990, Control_c, 0, 67, 126
1, 154005, Control_c, 0, 64, 87
1, 154005, Control_c, 0, 67, 127
1, 154012, Note_on_c, 0, 63, 32
1, 154034, Control_c, 0, 64, 87
1, 154034, Control_c, 0, 67, 127
1, 154042, Note_off_c, 0, 68, 54
1, 154079, Control_c, 0, 64, 86
1, 154082, Note_off_c, 0, 63, 40
1, 154109, Control_c, 0, 64, 86
1, 154138, Note_on_c, 0, 60, 38
1, 154153, Control_c, 0, 64, 85
1, 154183, Control_c, 0, 64, 85
1, 154185, Note_off_c, 0, 44, 39
1, 154213, Control_c, 0, 64, 84
1, 154243, Control_c, 0, 64, 84
1, 154258, Control_c, 0, 64, 83
1, 154268, Note_off_c, 0, 60, 25
1, 154273, Control_c, 0, 64, 83
1, 154288, Control_c, 0, 64, 82
1, 154303, Control_c, 0, 64, 81
1, 154304, Note_on_c, 0, 67, 59
1, 154318, Control_c, 0, 64, 80
1, 154332, Control_c, 0, 64, 79
1, 154340, Note_on_c, 0, 46, 42
1, 154347, Control_c, 0, 64, 77
1, 154362, Control_c, 0, 64, 75
1, 154376, Control_c, 0, 64, 73
1, 154391, Control_c, 0, 64, 71
1, 154406, Control_c, 0, 64, 67
1, 154421, Control_c, 0, 64, 63
1, 154443, Control_c, 0, 64, 55
1, 154458, Control_c, 0, 64, 35
1, 154473, Control_c, 0, 64, 0
1, 154511, Note_on_c, 0, 55, 37
1, 154532, Control_c, 0, 64, 28
1, 154547, Control_c, 0, 64, 50
1, 154562, Control_c, 0, 64, 60
1, 154577, Control_c, 0, 64, 63
1, 154591, Control_c, 0, 64, 65
1, 154606, Control_c, 0, 64, 68
1, 154621, Control_c, 0, 64, 70
1, 154622, Note_on_c, 0, 58, 35
1, 154636, Control_c, 0, 64, 73
1, 154651, Control_c, 0, 64, 77
1, 154662, Note_off_c, 0, 55, 34
1, 154665, Control_c, 0, 64, 79
1, 154680, Control_c, 0, 64, 81
1, 154695, Control_c, 0, 64, 83
1, 154710, Control_c, 0, 64, 84
1, 154720, Note_off_c, 0, 58, 37
1, 154725, Control_c, 0, 64, 86
1, 154727, Note_on_c, 0, 63, 38
1, 154740, Control_c, 0, 64, 86
1, 154755, Control_c, 0, 64, 87
1, 154829, Control_c, 0, 64, 87
1, 154834, Note_on_c, 0, 58, 38
1, 154903, Note_off_c, 0, 63, 22
1, 154907, Note_off_c, 0, 58, 38
1, 154941, Note_on_c, 0, 55, 39
1, 155004, Note_off_c, 0, 55, 49
1, 155045, Note_on_c, 0, 58, 44
1, 155078, Note_off_c, 0, 67, 14
1, 155107, Note_off_c, 0, 58, 41
1, 155146, Note_on_c, 0, 55, 45
1, 155236, Note_off_c, 0, 55, 45
1, 155254, Note_on_c, 0, 58, 50
1, 155326, Control_c, 0, 64, 87
1, 155364, Note_off_c, 0, 46, 40
1, 155365, Note_off_c, 0, 58, 29
1, 155380, Note_on_c, 0, 67, 62
1, 155391, Note_on_c, 0, 63, 52
1, 155444, Control_c, 0, 64, 86
1, 155504, Control_c, 0, 64, 86
1, 155504, Note_on_c, 0, 58, 51
1, 155549, Note_off_c, 0, 67, 36
1, 155590, Note_off_c, 0, 58, 47
1, 155593, Control_c, 0, 64, 85
1, 155608, Note_on_c, 0, 55, 50
1, 155614, Note_off_c, 0, 63, 40
1, 155631, Note_off_c, 0, 55, 60
1, 155637, Control_c, 0, 64, 85
1, 155667, Control_c, 0, 64, 84
1, 155681, Control_c, 0, 64, 84
1, 155696, Control_c, 0, 64, 83
1, 155711, Control_c, 0, 64, 83
1, 155726, Control_c, 0, 64, 82
1, 155740, Control_c, 0, 64, 81
1, 155755, Control_c, 0, 64, 81
1, 155770, Control_c, 0, 64, 79
1, 155785, Note_on_c, 0, 72, 63
1, 155785, Control_c, 0, 64, 78
1, 155801, Control_c, 0, 64, 76
1, 155816, Control_c, 0, 64, 74
1, 155819, Note_on_c, 0, 46, 39
1, 155820, Note_on_c, 0, 53, 41
1, 155830, Control_c, 0, 64, 72
1, 155845, Control_c, 0, 64, 69
1, 155860, Control_c, 0, 64, 65
1, 155875, Control_c, 0, 64, 58
1, 155890, Control_c, 0, 64, 34
1, 155904, Control_c, 0, 64, 0
1, 155945, Note_on_c, 0, 62, 46
1, 155972, Control_c, 0, 64, 33
1, 155986, Control_c, 0, 64, 49
1, 156001, Control_c, 0, 64, 59
1, 156016, Control_c, 0, 64, 63
1, 156030, Control_c, 0, 64, 66
1, 156045, Control_c, 0, 64, 68
1, 156058, Note_on_c, 0, 65, 47
1, 156060, Control_c, 0, 64, 71
1, 156075, Control_c, 0, 64, 73
1, 156090, Control_c, 0, 64, 76
1, 156097, Note_off_c, 0, 62, 35
1, 156104, Control_c, 0, 64, 77
1, 156119, Control_c, 0, 64, 78
1, 156134, Control_c, 0, 64, 79
1, 156149, Control_c, 0, 64, 80
1, 156173, Note_on_c, 0, 70, 58
1, 156173, Note_off_c, 0, 72, 56
1, 156216, Note_off_c, 0, 65, 33
1, 156308, Note_on_c, 0, 62, 31
1, 156386, Note_off_c, 0, 62, 40
1, 156394, Note_on_c, 0, 65, 37
1, 156521, Note_on_c, 0, 68, 53
1, 156529, Note_off_c, 0, 70, 30
1, 156534, Control_c, 0, 64, 79
1, 156537, Note_off_c, 0, 65, 22
1, 156549, Note_off_c, 0, 68, 55
1, 156684, Note_on_c, 0, 58, 28
1, 156738, Note_off_c, 0, 58, 0
1, 156750, Control_c, 0, 64, 79
1, 156775, Poly_aftertouch_c, 0, 58, 127
1, 156813, Note_on_c, 0, 62, 43
1, 156816, Poly_aftertouch_c, 0, 58, 0
1, 156937, Note_on_c, 0, 65, 60
1, 156962, Note_on_c, 0, 56, 40
1, 156970, Note_off_c, 0, 62, 31
1, 157057, Note_off_c, 0, 53, 40
1, 157060, Control_c, 0, 64, 78
1, 157081, Note_off_c, 0, 56, 51
1, 157088, Note_on_c, 0, 58, 21
1, 157120, Note_off_c, 0, 65, 37
1, 157143, Note_off_c, 0, 46, 49
1, 157150, Control_c, 0, 64, 78
1, 157179, Note_off_c, 0, 58, 0
1, 157232, Note_on_c, 0, 62, 47
1, 157239, Control_c, 0, 64, 77
1, 157261, Poly_aftertouch_c, 0, 58, 0
1, 157268, Control_c, 0, 64, 77
1, 157271, Note_off_c, 0, 62, 49
1, 157298, Control_c, 0, 64, 76
1, 157357, Control_c, 0, 64, 76
1, 157402, Control_c, 0, 64, 75
1, 157439, Control_c, 0, 64, 75
1, 157454, Control_c, 0, 64, 74
1, 157469, Control_c, 0, 64, 74
1, 157483, Control_c, 0, 64, 73
1, 157498, Control_c, 0, 64, 73
1, 157513, Control_c, 0, 64, 72
1, 157515, Note_on_c, 0, 39, 32
1, 157517, Note_on_c, 0, 63, 43
1, 157528, Control_c, 0, 64, 72
1, 157543, Control_c, 0, 64, 71
1, 157558, Control_c, 0, 64, 70
1, 157573, Control_c, 0, 64, 68
1, 157588, Control_c, 0, 64, 66
1, 157602, Control_c, 0, 64, 63
1, 157617, Control_c, 0, 64, 59
1, 157632, Control_c, 0, 64, 54
1, 157647, Control_c, 0, 64, 52
1, 157662, Control_c, 0, 64, 48
1, 157676, Control_c, 0, 64, 32
1, 157691, Control_c, 0, 64, 0
1, 157786, Note_on_c, 0, 51, 32
1, 157839, Control_c, 0, 64, 34
1, 157854, Control_c, 0, 64, 52
1, 157869, Control_c, 0, 64, 59
1, 157883, Control_c, 0, 64, 63
1, 157898, Control_c, 0, 64, 65
1, 157902, Note_on_c, 0, 55, 32
1, 157904, Note_off_c, 0, 51, 36
1, 157913, Control_c, 0, 64, 68
1, 157928, Control_c, 0, 64, 70
1, 157942, Control_c, 0, 64, 72
1, 157957, Control_c, 0, 64, 74
1, 157972, Control_c, 0, 64, 76
1, 157987, Control_c, 0, 64, 77
1, 158002, Control_c, 0, 64, 79
1, 158010, Note_off_c, 0, 55, 37
1, 158017, Control_c, 0, 64, 80
1, 158023, Note_on_c, 0, 58, 39
1, 158032, Control_c, 0, 64, 81
1, 158047, Control_c, 0, 64, 82
1, 158062, Control_c, 0, 64, 82
1, 158076, Control_c, 0, 64, 83
1, 158091, Control_c, 0, 64, 84
1, 158120, Control_c, 0, 64, 84
1, 158122, Note_off_c, 0, 58, 50
1, 158148, Note_on_c, 0, 55, 36
1, 158150, Control_c, 0, 64, 85
1, 158187, Control_c, 0, 64, 85
1, 158225, Note_off_c, 0, 55, 57
1, 158264, Note_on_c, 0, 51, 31
1, 158310, Note_off_c, 0, 51, 46
1, 158369, Note_on_c, 0, 55, 40
1, 158436, Note_off_c, 0, 55, 56
1, 158478, Note_on_c, 0, 51, 35
1, 158577, Note_on_c, 0, 55, 42
1, 158666, Note_off_c, 0, 51, 22
1, 158671, Note_off_c, 0, 55, 51
1, 158696, Note_on_c, 0, 58, 45
1, 158736, Control_c, 0, 64, 85
1, 158779, Note_off_c, 0, 63, 25
1, 158795, Control_c, 0, 64, 84
1, 158819, Note_on_c, 0, 55, 41
1, 158840, Control_c, 0, 64, 84
1, 158884, Control_c, 0, 64, 83
1, 158904, Note_off_c, 0, 55, 39
1, 158914, Control_c, 0, 64, 83
1, 158939, Note_on_c, 0, 51, 37
1, 158950, Control_c, 0, 64, 82
1, 158980, Control_c, 0, 64, 82
1, 159026, Control_c, 0, 64, 81
1, 159041, Control_c, 0, 64, 81
1, 159055, Control_c, 0, 64, 80
1, 159061, Note_off_c, 0, 51, 34
1, 159070, Control_c, 0, 64, 79
1, 159071, Note_on_c, 0, 63, 63
1, 159082, Note_on_c, 0, 37, 46
1, 159085, Control_c, 0, 64, 77
1, 159100, Control_c, 0, 64, 76
1, 159115, Control_c, 0, 64, 75
1, 159129, Control_c, 0, 64, 73
1, 159143, Note_off_c, 0, 39, 28
1, 159144, Control_c, 0, 64, 72
1, 159159, Control_c, 0, 64, 70
1, 159174, Control_c, 0, 64, 68
1, 159177, Note_off_c, 0, 58, 5
1, 159188, Control_c, 0, 64, 65
1, 159203, Control_c, 0, 64, 62
1, 159218, Control_c, 0, 64, 56
1, 159233, Control_c, 0, 64, 50
1, 159248, Control_c, 0, 64, 48
1, 159252, Note_on_c, 0, 51, 35
1, 159278, Control_c, 0, 64, 48
1, 159293, Control_c, 0, 64, 49
1, 159308, Control_c, 0, 64, 52
1, 159323, Control_c, 0, 64, 57
1, 159337, Control_c, 0, 64, 61
1, 159352, Control_c, 0, 64, 63
1, 159367, Control_c, 0, 64, 65
1, 159369, Note_on_c, 0, 55, 36
1, 159381, Control_c, 0, 64, 66
1, 159396, Control_c, 0, 64, 68
1, 159411, Control_c, 0, 64, 71
1, 159426, Control_c, 0, 64, 73
1, 159441, Control_c, 0, 64, 76
1, 159455, Control_c, 0, 64, 78
1, 159470, Control_c, 0, 64, 79
1, 159478, Note_off_c, 0, 51, 20
1, 159480, Note_on_c, 0, 58, 49
1, 159485, Control_c, 0, 64, 81
1, 159489, Note_off_c, 0, 55, 37
1, 159500, Control_c, 0, 64, 83
1, 159515, Control_c, 0, 64, 85
1, 159515, Control_c, 0, 67, 125
1, 159529, Control_c, 0, 64, 86
1, 159529, Control_c, 0, 67, 123
1, 159544, Control_c, 0, 64, 87
1, 159544, Control_c, 0, 67, 122
1, 159559, Control_c, 0, 64, 88
1, 159559, Control_c, 0, 67, 121
1, 159573, Control_c, 0, 64, 89
1, 159588, Control_c, 0, 64, 90
1, 159588, Control_c, 0, 67, 120
1, 159603, Control_c, 0, 64, 91
1, 159618, Control_c, 0, 64, 91
1, 159618, Control_c, 0, 67, 119
1, 159619, Note_on_c, 0, 55, 45
1, 159633, Control_c, 0, 64, 92
1, 159647, Control_c, 0, 64, 92
1, 159662, Control_c, 0, 64, 93
1, 159685, Control_c, 0, 64, 94
1, 159685, Control_c, 0, 67, 119
1, 159695, Note_off_c, 0, 55, 60
1, 159700, Control_c, 0, 64, 94
1, 159700, Control_c, 0, 67, 118
1, 159710, Note_on_c, 0, 51, 50
1, 159715, Control_c, 0, 64, 95
1, 159729, Control_c, 0, 64, 95
1, 159729, Control_c, 0, 67, 118
1, 159744, Control_c, 0, 64, 96
1, 159744, Control_c, 0, 67, 116
1, 159759, Control_c, 0, 64, 96
1, 159759, Control_c, 0, 67, 113
1, 159773, Control_c, 0, 64, 97
1, 159773, Control_c, 0, 67, 111
1, 159778, Note_off_c, 0, 51, 45
1, 159788, Control_c, 0, 64, 98
1, 159788, Control_c, 0, 67, 109
1, 159803, Control_c, 0, 64, 99
1, 159803, Control_c, 0, 67, 108
1, 159819, Control_c, 0, 64, 100
1, 159819, Control_c, 0, 67, 105
1, 159827, Note_on_c, 0, 55, 56
1, 159834, Control_c, 0, 64, 101
1, 159834, Control_c, 0, 67, 103
1, 159849, Control_c, 0, 64, 102
1, 159849, Control_c, 0, 67, 101
1, 159864, Control_c, 0, 64, 102
1, 159864, Control_c, 0, 67, 98
1, 159878, Control_c, 0, 64, 103
1, 159878, Control_c, 0, 67, 91
1, 159893, Control_c, 0, 64, 104
1, 159893, Control_c, 0, 67, 80
1, 159908, Control_c, 0, 64, 104
1, 159908, Control_c, 0, 67, 63
1, 159923, Control_c, 0, 64, 105
1, 159923, Control_c, 0, 67, 45
1, 159927, Note_off_c, 0, 55, 62
1, 159934, Note_on_c, 0, 51, 53
1, 159938, Control_c, 0, 64, 106
1, 159938, Control_c, 0, 67, 33
1, 159952, Control_c, 0, 64, 106
1, 159952, Control_c, 0, 67, 32
1, 159967, Control_c, 0, 64, 107
1, 159969, Note_off_c, 0, 58, 6
1, 160011, Control_c, 0, 64, 107
1, 160041, Control_c, 0, 67, 32
1, 160053, Note_on_c, 0, 55, 55
1, 160056, Control_c, 0, 67, 33
1, 160071, Control_c, 0, 67, 34
1, 160086, Control_c, 0, 67, 34
1, 160101, Control_c, 0, 67, 36
1, 160116, Control_c, 0, 67, 37
1, 160130, Control_c, 0, 67, 38
1, 160145, Control_c, 0, 67, 39
1, 160146, Note_on_c, 0, 40, 64
1, 160152, Note_on_c, 0, 58, 56
1, 160158, Note_off_c, 0, 55, 45
1, 160160, Control_c, 0, 67, 40
1, 160175, Control_c, 0, 67, 41
1, 160181, Note_off_c, 0, 51, 20
1, 160189, Note_off_c, 0, 37, 41
1, 160190, Control_c, 0, 67, 43
1, 160204, Control_c, 0, 67, 44
1, 160219, Control_c, 0, 67, 48
1, 160234, Control_c, 0, 67, 55
1, 160249, Control_c, 0, 67, 64
1, 160264, Control_c, 0, 67, 70
1, 160278, Control_c, 0, 67, 73
1, 160283, Note_on_c, 0, 39, 67
1, 160284, Note_on_c, 0, 55, 60
1, 160295, Note_off_c, 0, 40, 56
1, 160310, Note_off_c, 0, 63, 39
1, 160322, Control_c, 0, 67, 74
1, 160337, Control_c, 0, 67, 75
1, 160352, Control_c, 0, 67, 77
1, 160367, Control_c, 0, 67, 80
1, 160382, Control_c, 0, 67, 84
1, 160396, Control_c, 0, 64, 107
1, 160396, Control_c, 0, 67, 87
1, 160401, Note_off_c, 0, 55, 61
1, 160405, Note_on_c, 0, 37, 71
1, 160411, Control_c, 0, 67, 91
1, 160413, Note_on_c, 0, 51, 63
1, 160423, Note_off_c, 0, 39, 61
1, 160434, Control_c, 0, 67, 95
1, 160449, Control_c, 0, 67, 98
1, 160464, Control_c, 0, 64, 106
1, 160464, Control_c, 0, 67, 99
1, 160493, Control_c, 0, 64, 106
1, 160508, Control_c, 0, 64, 105
1, 160522, Control_c, 0, 64, 105
1, 160522, Control_c, 0, 67, 98
1, 160537, Control_c, 0, 64, 104
1, 160552, Control_c, 0, 64, 103
1, 160552, Control_c, 0, 67, 98
1, 160567, Control_c, 0, 64, 103
1, 160582, Control_c, 0, 64, 101
1, 160598, Control_c, 0, 64, 100
1, 160598, Control_c, 0, 67, 97
1, 160613, Control_c, 0, 64, 98
1, 160616, Note_on_c, 0, 63, 81
1, 160620, Note_off_c, 0, 51, 38
1, 160621, Note_on_c, 0, 35, 73
1, 160627, Control_c, 0, 64, 97
1, 160627, Control_c, 0, 67, 97
1, 160640, Note_off_c, 0, 37, 62
1, 160642, Control_c, 0, 64, 95
1, 160642, Control_c, 0, 67, 96
1, 160657, Control_c, 0, 64, 93
1, 160666, Note_off_c, 0, 58, 41
1, 160672, Control_c, 0, 64, 90
1, 160672, Control_c, 0, 67, 96
1, 160687, Control_c, 0, 64, 87
1, 160687, Control_c, 0, 67, 95
1, 160701, Control_c, 0, 64, 84
1, 160716, Control_c, 0, 64, 81
1, 160716, Control_c, 0, 67, 95
1, 160731, Control_c, 0, 64, 78
1, 160745, Control_c, 0, 64, 73
1, 160760, Control_c, 0, 64, 68
1, 160775, Control_c, 0, 64, 58
1, 160775, Control_c, 0, 67, 94
1, 160790, Control_c, 0, 64, 0
1, 160849, Note_on_c, 0, 51, 48
1, 160849, Control_c, 0, 67, 95
1, 160864, Control_c, 0, 67, 95
1, 160894, Control_c, 0, 67, 96
1, 160923, Control_c, 0, 67, 96
1, 160959, Note_on_c, 0, 56, 54
1, 161057, Control_c, 0, 64, 55
1, 161058, Note_off_c, 0, 56, 60
1, 161063, Note_on_c, 0, 59, 55
1, 161072, Control_c, 0, 64, 65
1, 161087, Control_c, 0, 64, 68
1, 161101, Control_c, 0, 64, 71
1, 161108, Note_off_c, 0, 51, 36
1, 161116, Control_c, 0, 64, 74
1, 161116, Control_c, 0, 67, 96
1, 161131, Control_c, 0, 64, 77
1, 161145, Control_c, 0, 64, 80
1, 161145, Control_c, 0, 67, 95
1, 161160, Control_c, 0, 64, 82
1, 161183, Control_c, 0, 64, 84
1, 161190, Note_on_c, 0, 56, 62
1, 161198, Control_c, 0, 64, 86
1, 161212, Control_c, 0, 64, 87
1, 161212, Control_c, 0, 67, 96
1, 161227, Control_c, 0, 64, 89
1, 161242, Control_c, 0, 64, 90
1, 161242, Control_c, 0, 67, 95
1, 161257, Control_c, 0, 64, 92
1, 161270, Note_off_c, 0, 56, 60
1, 161272, Control_c, 0, 64, 93
1, 161287, Control_c, 0, 64, 93
1, 161288, Note_on_c, 0, 51, 60
1, 161301, Control_c, 0, 64, 94
1, 161316, Control_c, 0, 64, 95
1, 161331, Control_c, 0, 64, 95
1, 161346, Control_c, 0, 64, 96
1, 161360, Control_c, 0, 64, 97
1, 161375, Control_c, 0, 64, 98
1, 161382, Note_off_c, 0, 51, 57
1, 161390, Note_on_c, 0, 56, 71
1, 161390, Control_c, 0, 64, 98
1, 161406, Control_c, 0, 64, 99
1, 161421, Control_c, 0, 64, 100
1, 161421, Control_c, 0, 67, 96
1, 161442, Note_off_c, 0, 59, 39
1, 161450, Control_c, 0, 64, 100
1, 161465, Control_c, 0, 64, 101
1, 161495, Note_off_c, 0, 56, 61
1, 161496, Note_on_c, 0, 51, 70
1, 161554, Control_c, 0, 67, 95
1, 161609, Note_on_c, 0, 56, 63
1, 161628, Control_c, 0, 67, 95
1, 161657, Control_c, 0, 67, 94
1, 161702, Control_c, 0, 67, 94
1, 161716, Control_c, 0, 67, 94
1, 161722, Note_off_c, 0, 63, 56
1, 161724, Note_on_c, 0, 59, 63
1, 161734, Note_off_c, 0, 56, 59
1, 161746, Control_c, 0, 67, 95
1, 161752, Note_off_c, 0, 51, 49
1, 161761, Control_c, 0, 67, 97
1, 161776, Control_c, 0, 67, 98
1, 161791, Control_c, 0, 67, 100
1, 161806, Control_c, 0, 67, 102
1, 161821, Control_c, 0, 67, 107
1, 161834, Note_on_c, 0, 56, 65
1, 161835, Control_c, 0, 67, 112
1, 161850, Control_c, 0, 67, 116
1, 161865, Control_c, 0, 67, 120
1, 161880, Control_c, 0, 67, 124
1, 161895, Control_c, 0, 67, 127
1, 161936, Note_on_c, 0, 51, 71
1, 161990, Control_c, 0, 64, 100
1, 162020, Control_c, 0, 64, 100
1, 162035, Control_c, 0, 64, 99
1, 162065, Control_c, 0, 64, 99
1, 162094, Control_c, 0, 64, 98
1, 162104, Note_on_c, 0, 34, 76
1, 162107, Note_on_c, 0, 63, 86
1, 162109, Control_c, 0, 64, 97
1, 162124, Control_c, 0, 64, 95
1, 162125, Note_off_c, 0, 35, 61
1, 162139, Control_c, 0, 64, 93
1, 162154, Control_c, 0, 64, 91
1, 162169, Control_c, 0, 64, 89
1, 162169, Note_off_c, 0, 51, 51
1, 162173, Note_off_c, 0, 56, 37
1, 162183, Control_c, 0, 64, 87
1, 162199, Control_c, 0, 64, 85
1, 162213, Control_c, 0, 64, 80
1, 162228, Control_c, 0, 64, 75
1, 162243, Control_c, 0, 64, 68
1, 162258, Control_c, 0, 64, 56
1, 162267, Note_off_c, 0, 59, 20
1, 162272, Control_c, 0, 64, 0
1, 162289, Note_on_c, 0, 51, 65
1, 162403, Note_on_c, 0, 55, 57
1, 162420, Control_c, 0, 64, 51
1, 162420, Control_c, 0, 67, 127
1, 162435, Control_c, 0, 64, 62
1, 162435, Control_c, 0, 67, 126
1, 162450, Control_c, 0, 64, 65
1, 162450, Control_c, 0, 67, 125
1, 162464, Control_c, 0, 64, 68
1, 162464, Control_c, 0, 67, 125
1, 162479, Control_c, 0, 64, 70
1, 162479, Control_c, 0, 67, 124
1, 162494, Control_c, 0, 64, 75
1, 162494, Control_c, 0, 67, 123
1, 162509, Control_c, 0, 64, 80
1, 162509, Control_c, 0, 67, 122
1, 162520, Note_on_c, 0, 61, 73
1, 162524, Control_c, 0, 64, 83
1, 162524, Control_c, 0, 67, 121
1, 162535, Note_off_c, 0, 55, 64
1, 162539, Control_c, 0, 64, 86
1, 162539, Control_c, 0, 67, 120
1, 162551, Note_off_c, 0, 51, 36
1, 162554, Control_c, 0, 64, 89
1, 162554, Control_c, 0, 67, 118
1, 162569, Control_c, 0, 64, 92
1, 162569, Control_c, 0, 67, 117
1, 162584, Control_c, 0, 64, 94
1, 162584, Control_c, 0, 67, 116
1, 162598, Control_c, 0, 64, 97
1, 162598, Control_c, 0, 67, 114
1, 162613, Control_c, 0, 64, 100
1, 162613, Control_c, 0, 67, 113
1, 162628, Control_c, 0, 64, 102
1, 162628, Control_c, 0, 67, 111
1, 162640, Note_on_c, 0, 55, 67
1, 162643, Control_c, 0, 64, 103
1, 162643, Control_c, 0, 67, 110
1, 162658, Control_c, 0, 64, 104
1, 162658, Control_c, 0, 67, 110
1, 162679, Control_c, 0, 64, 104
1, 162694, Control_c, 0, 64, 105
1, 162736, Note_off_c, 0, 55, 62
1, 162740, Note_on_c, 0, 51, 74
1, 162769, Control_c, 0, 67, 110
1, 162843, Control_c, 0, 67, 111
1, 162857, Note_on_c, 0, 55, 70
1, 162858, Control_c, 0, 67, 111
1, 162860, Note_off_c, 0, 51, 60
1, 162876, Note_off_c, 0, 34, 49
1, 162902, Control_c, 0, 67, 112
1, 162946, Control_c, 0, 67, 112
1, 162961, Control_c, 0, 67, 113
1, 162964, Note_on_c, 0, 35, 74
1, 162974, Note_on_c, 0, 51, 71
1, 162976, Note_off_c, 0, 55, 61
1, 162976, Control_c, 0, 67, 113
1, 162991, Control_c, 0, 67, 114
1, 163007, Control_c, 0, 67, 114
1, 163021, Control_c, 0, 67, 115
1, 163036, Control_c, 0, 67, 115
1, 163051, Control_c, 0, 67, 116
1, 163066, Control_c, 0, 67, 116
1, 163081, Control_c, 0, 67, 118
1, 163082, Note_on_c, 0, 34, 80
1, 163084, Note_off_c, 0, 35, 62
1, 163090, Note_on_c, 0, 55, 73
1, 163093, Note_off_c, 0, 61, 57
1, 163095, Control_c, 0, 67, 119
1, 163110, Control_c, 0, 67, 119
1, 163123, Note_off_c, 0, 63, 61
1, 163125, Control_c, 0, 67, 120
1, 163204, Note_on_c, 0, 61, 79
1, 163209, Note_on_c, 0, 37, 79
1, 163213, Note_off_c, 0, 34, 63
1, 163219, Note_off_c, 0, 55, 62
1, 163229, Note_off_c, 0, 51, 53
1, 163302, Control_c, 0, 64, 104
1, 163328, Note_on_c, 0, 35, 83
1, 163329, Note_on_c, 0, 55, 77
1, 163332, Control_c, 0, 64, 104
1, 163334, Note_off_c, 0, 37, 62
1, 163347, Control_c, 0, 64, 103
1, 163362, Control_c, 0, 64, 103
1, 163362, Control_c, 0, 67, 119
1, 163377, Control_c, 0, 64, 102
1, 163392, Control_c, 0, 64, 102
1, 163392, Control_c, 0, 67, 119
1, 163428, Control_c, 0, 64, 101
1, 163428, Control_c, 0, 67, 118
1, 163451, Note_on_c, 0, 51, 79
1, 163456, Note_on_c, 0, 34, 79
1, 163456, Note_off_c, 0, 55, 64
1, 163458, Control_c, 0, 64, 100
1, 163473, Control_c, 0, 67, 118
1, 163484, Note_off_c, 0, 35, 62
1, 163488, Control_c, 0, 64, 99
1, 163488, Control_c, 0, 67, 117
1, 163502, Control_c, 0, 64, 99
1, 163517, Control_c, 0, 64, 98
1, 163517, Control_c, 0, 67, 116
1, 163532, Control_c, 0, 64, 98
1, 163547, Control_c, 0, 64, 97
1, 163547, Control_c, 0, 67, 116
1, 163561, Control_c, 0, 64, 96
1, 163576, Control_c, 0, 64, 95
1, 163591, Control_c, 0, 64, 94
1, 163606, Control_c, 0, 64, 92
1, 163621, Control_c, 0, 64, 91
1, 163621, Control_c, 0, 67, 115
1, 163636, Control_c, 0, 64, 89
1, 163645, Note_on_c, 0, 63, 89
1, 163651, Control_c, 0, 64, 87
1, 163651, Control_c, 0, 67, 115
1, 163653, Note_off_c, 0, 61, 0
1, 163657, Note_on_c, 0, 32, 81
1, 163663, Note_off_c, 0, 51, 58
1, 163666, Control_c, 0, 64, 84
1, 163675, Note_off_c, 0, 34, 64
1, 163681, Control_c, 0, 64, 79
1, 163681, Control_c, 0, 67, 114
1, 163695, Control_c, 0, 64, 72
1, 163710, Control_c, 0, 64, 61
1, 163710, Control_c, 0, 67, 114
1, 163725, Control_c, 0, 64, 0
1, 163731, Poly_aftertouch_c, 0, 61, 0
1, 163800, Control_c, 0, 67, 113
1, 163830, Control_c, 0, 67, 113
1, 163856, Note_on_c, 0, 51, 64
1, 163859, Control_c, 0, 67, 112
1, 163874, Control_c, 0, 64, 61
1, 163874, Control_c, 0, 67, 112
1, 163889, Control_c, 0, 64, 67
1, 163904, Control_c, 0, 64, 72
1, 163904, Control_c, 0, 67, 111
1, 163918, Control_c, 0, 64, 78
1, 163933, Control_c, 0, 64, 84
1, 163948, Control_c, 0, 64, 89
1, 163963, Control_c, 0, 64, 93
1, 163963, Control_c, 0, 67, 111
1, 163967, Note_on_c, 0, 56, 65
1, 163977, Control_c, 0, 64, 96
1, 163992, Control_c, 0, 64, 99
1, 163992, Control_c, 0, 67, 110
1, 164007, Control_c, 0, 64, 102
1, 164022, Control_c, 0, 64, 104
1, 164037, Control_c, 0, 64, 106
1, 164051, Control_c, 0, 64, 108
1, 164066, Control_c, 0, 64, 109
1, 164066, Control_c, 0, 67, 110
1, 164068, Note_on_c, 0, 59, 65
1, 164076, Note_off_c, 0, 56, 62
1, 164081, Control_c, 0, 64, 109
1, 164081, Control_c, 0, 67, 109
1, 164085, Note_off_c, 0, 51, 54
1, 164096, Control_c, 0, 67, 109
1, 164111, Control_c, 0, 67, 108
1, 164125, Control_c, 0, 67, 107
1, 164140, Control_c, 0, 67, 105
1, 164155, Control_c, 0, 67, 102
1, 164177, Control_c, 0, 67, 99
1, 164187, Note_on_c, 0, 56, 69
1, 164192, Control_c, 0, 67, 96
1, 164207, Control_c, 0, 67, 93
1, 164222, Control_c, 0, 67, 89
1, 164237, Control_c, 0, 67, 86
1, 164251, Control_c, 0, 67, 84
1, 164266, Control_c, 0, 67, 81
1, 164281, Control_c, 0, 67, 78
1, 164282, Note_off_c, 0, 56, 62
1, 164289, Note_on_c, 0, 51, 69
1, 164295, Control_c, 0, 67, 72
1, 164310, Control_c, 0, 67, 62
1, 164325, Control_c, 0, 67, 45
1, 164340, Control_c, 0, 67, 30
1, 164355, Control_c, 0, 67, 14
1, 164369, Control_c, 0, 67, 0
1, 164393, Note_off_c, 0, 51, 59
1, 164398, Note_on_c, 0, 56, 72
1, 164481, Note_off_c, 0, 59, 34
1, 164500, Note_on_c, 0, 51, 70
1, 164502, Note_off_c, 0, 56, 62
1, 164593, Control_c, 0, 67, 10
1, 164603, Note_on_c, 0, 56, 72
1, 164608, Control_c, 0, 67, 14
1, 164623, Control_c, 0, 67, 18
1, 164638, Control_c, 0, 64, 109
1, 164638, Control_c, 0, 67, 28
1, 164652, Control_c, 0, 67, 41
1, 164662, Note_off_c, 0, 51, 53
1, 164667, Control_c, 0, 64, 108
1, 164667, Control_c, 0, 67, 58
1, 164682, Control_c, 0, 67, 76
1, 164697, Control_c, 0, 64, 108
1, 164697, Control_c, 0, 67, 95
1, 164705, Note_off_c, 0, 63, 54
1, 164706, Note_on_c, 0, 59, 79
1, 164712, Control_c, 0, 67, 112
1, 164723, Note_off_c, 0, 56, 61
1, 164727, Control_c, 0, 64, 107
1, 164727, Control_c, 0, 67, 123
1, 164785, Control_c, 0, 64, 107
1, 164816, Note_on_c, 0, 56, 68
1, 164830, Control_c, 0, 64, 106
1, 164845, Control_c, 0, 67, 122
1, 164853, Note_off_c, 0, 59, 59
1, 164860, Control_c, 0, 67, 122
1, 164882, Note_off_c, 0, 56, 62
1, 164915, Note_on_c, 0, 51, 85
1, 164951, Note_off_c, 0, 51, 61
1, 164956, Control_c, 0, 64, 106
1, 164986, Control_c, 0, 67, 121
1, 165000, Control_c, 0, 64, 105
1, 165000, Control_c, 0, 67, 121
1, 165015, Control_c, 0, 64, 105
1, 165030, Control_c, 0, 64, 104
1, 165030, Control_c, 0, 67, 120
1, 165045, Control_c, 0, 64, 103
1, 165045, Control_c, 0, 67, 120
1, 165060, Control_c, 0, 64, 100
1, 165060, Control_c, 0, 67, 119
1, 165064, Note_on_c, 0, 68, 93
1, 165074, Control_c, 0, 64, 94
1, 165074, Control_c, 0, 67, 119
1, 165076, Note_on_c, 0, 30, 80
1, 165089, Control_c, 0, 64, 83
1, 165089, Control_c, 0, 67, 118
1, 165103, Note_off_c, 0, 32, 63
1, 165104, Control_c, 0, 64, 72
1, 165104, Control_c, 0, 67, 117
1, 165118, Control_c, 0, 64, 55
1, 165118, Control_c, 0, 67, 117
1, 165133, Control_c, 0, 64, 0
1, 165133, Control_c, 0, 67, 116
1, 165148, Control_c, 0, 67, 116
1, 165163, Control_c, 0, 67, 115
1, 165178, Control_c, 0, 64, 42
1, 165178, Control_c, 0, 67, 114
1, 165192, Control_c, 0, 64, 59
1, 165192, Control_c, 0, 67, 114
1, 165208, Control_c, 0, 64, 64
1, 165208, Control_c, 0, 67, 113
1, 165223, Control_c, 0, 64, 68
1, 165223, Control_c, 0, 67, 113
1, 165238, Control_c, 0, 64, 73
1, 165238, Control_c, 0, 67, 112
1, 165246, Note_on_c, 0, 56, 80
1, 165247, Note_on_c, 0, 32, 73
1, 165253, Control_c, 0, 64, 79
1, 165253, Control_c, 0, 67, 112
1, 165259, Note_off_c, 0, 30, 62
1, 165267, Control_c, 0, 64, 85
1, 165267, Control_c, 0, 67, 111
1, 165282, Control_c, 0, 64, 90
1, 165297, Control_c, 0, 64, 92
1, 165311, Control_c, 0, 64, 94
1, 165322, Note_off_c, 0, 32, 62
1, 165324, Note_on_c, 0, 30, 71
1, 165326, Control_c, 0, 64, 95
1, 165326, Control_c, 0, 67, 111
1, 165341, Control_c, 0, 64, 97
1, 165341, Control_c, 0, 67, 109
1, 165356, Control_c, 0, 64, 98
1, 165356, Control_c, 0, 67, 108
1, 165369, Note_on_c, 0, 59, 74
1, 165371, Control_c, 0, 64, 98
1, 165371, Control_c, 0, 67, 106
1, 165387, Control_c, 0, 67, 106
1, 165399, Note_off_c, 0, 56, 59
1, 165401, Note_off_c, 0, 30, 63
1, 165404, Note_on_c, 0, 32, 71
1, 165416, Control_c, 0, 67, 106
1, 165431, Control_c, 0, 67, 107
1, 165457, Note_on_c, 0, 30, 72
1, 165457, Note_off_c, 0, 32, 63
1, 165461, Control_c, 0, 67, 107
1, 165473, Note_on_c, 0, 62, 78
1, 165490, Note_off_c, 0, 59, 61
1, 165520, Control_c, 0, 67, 108
1, 165529, Note_off_c, 0, 30, 62
1, 165532, Note_on_c, 0, 32, 76
1, 165535, Control_c, 0, 67, 108
1, 165579, Note_on_c, 0, 59, 78
1, 165580, Note_on_c, 0, 30, 68
1, 165588, Note_off_c, 0, 32, 60
1, 165594, Control_c, 0, 64, 98
1, 165653, Note_off_c, 0, 30, 63
1, 165654, Control_c, 0, 64, 97
1, 165659, Note_on_c, 0, 32, 74
1, 165690, Note_on_c, 0, 56, 79
1, 165703, Note_off_c, 0, 59, 61
1, 165715, Note_on_c, 0, 30, 68
1, 165720, Note_off_c, 0, 32, 63
1, 165749, Control_c, 0, 67, 109
1, 165785, Note_on_c, 0, 32, 73
1, 165788, Note_off_c, 0, 30, 63
1, 165798, Note_on_c, 0, 59, 80
1, 165803, Note_off_c, 0, 56, 62
1, 165839, Control_c, 0, 67, 109
1, 165844, Note_on_c, 0, 30, 72
1, 165845, Note_off_c, 0, 32, 61
1, 165901, Note_off_c, 0, 59, 61
1, 165907, Note_on_c, 0, 56, 78
1, 165919, Note_on_c, 0, 32, 76
1, 165919, Note_off_c, 0, 30, 62
1, 165928, Control_c, 0, 67, 110
1, 165956, Control_c, 0, 67, 110
1, 165964, Note_off_c, 0, 62, 35
1, 165969, Note_on_c, 0, 30, 69
1, 165972, Note_off_c, 0, 32, 61
1, 166005, Note_on_c, 0, 59, 82
1, 166045, Note_off_c, 0, 56, 49
1, 166047, Note_on_c, 0, 32, 77
1, 166048, Note_off_c, 0, 30, 62
1, 166104, Note_on_c, 0, 30, 72
1, 166104, Note_off_c, 0, 32, 63
1, 166119, Note_on_c, 0, 62, 79
1, 166131, Note_off_c, 0, 59, 59
1, 166134, Control_c, 0, 67, 111
1, 166149, Control_c, 0, 67, 111
1, 166185, Note_on_c, 0, 32, 79
1, 166191, Note_off_c, 0, 30, 62
1, 166220, Note_on_c, 0, 59, 80
1, 166224, Control_c, 0, 67, 112
1, 166271, Note_off_c, 0, 62, 57
1, 166285, Note_on_c, 0, 30, 74
1, 166289, Note_off_c, 0, 68, 55
1, 166307, Note_on_c, 0, 56, 82
1, 166310, Note_off_c, 0, 59, 64
1, 166317, Note_off_c, 0, 32, 56
1, 166396, Note_on_c, 0, 32, 77
1, 166415, Note_off_c, 0, 30, 61
1, 166421, Note_off_c, 0, 56, 60
1, 166424, Control_c, 0, 67, 111
1, 166453, Control_c, 0, 64, 97
1, 166468, Note_on_c, 0, 30, 55
1, 166480, Note_off_c, 0, 32, 59
1, 166498, Control_c, 0, 64, 96
1, 166498, Control_c, 0, 67, 111
1, 166513, Control_c, 0, 67, 110
1, 166527, Control_c, 0, 67, 110
1, 166542, Control_c, 0, 64, 96
1, 166542, Control_c, 0, 67, 109
1, 166572, Control_c, 0, 64, 95
1, 166587, Control_c, 0, 64, 95
1, 166602, Control_c, 0, 64, 94
1, 166602, Control_c, 0, 67, 109
1, 166617, Control_c, 0, 64, 93
1, 166617, Control_c, 0, 67, 108
1, 166632, Control_c, 0, 64, 92
1, 166644, Note_off_c, 0, 30, 60
1, 166646, Control_c, 0, 64, 90
1, 166646, Control_c, 0, 67, 108
1, 166648, Note_on_c, 0, 29, 76
1, 166650, Note_on_c, 0, 41, 80
1, 166652, Note_on_c, 0, 71, 88
1, 166661, Control_c, 0, 64, 87
1, 166676, Control_c, 0, 64, 84
1, 166691, Control_c, 0, 64, 79
1, 166691, Control_c, 0, 67, 107
1, 166706, Control_c, 0, 64, 73
1, 166706, Control_c, 0, 67, 107
1, 166720, Control_c, 0, 64, 65
1, 166735, Control_c, 0, 64, 33
1, 166750, Control_c, 0, 64, 0
1, 166750, Control_c, 0, 67, 106
1, 166764, Control_c, 0, 67, 106
1, 166779, Control_c, 0, 67, 105
1, 166824, Control_c, 0, 67, 105
1, 166868, Control_c, 0, 67, 104
1, 166972, Control_c, 0, 67, 104
1, 166979, Note_on_c, 0, 59, 72
1, 166987, Control_c, 0, 67, 103
1, 167032, Control_c, 0, 67, 103
1, 167061, Control_c, 0, 64, 50
1, 167076, Control_c, 0, 64, 62
1, 167091, Control_c, 0, 64, 65
1, 167106, Control_c, 0, 64, 66
1, 167106, Control_c, 0, 67, 102
1, 167121, Control_c, 0, 64, 67
1, 167133, Note_on_c, 0, 61, 67
1, 167136, Control_c, 0, 64, 69
1, 167136, Control_c, 0, 67, 103
1, 167150, Control_c, 0, 64, 72
1, 167150, Control_c, 0, 67, 103
1, 167173, Control_c, 0, 64, 76
1, 167187, Control_c, 0, 64, 80
1, 167202, Control_c, 0, 64, 84
1, 167217, Control_c, 0, 64, 86
1, 167217, Control_c, 0, 67, 104
1, 167232, Control_c, 0, 64, 89
1, 167247, Control_c, 0, 64, 92
1, 167261, Control_c, 0, 64, 94
1, 167261, Control_c, 0, 67, 104
1, 167276, Control_c, 0, 64, 96
1, 167285, Note_on_c, 0, 68, 76
1, 167291, Control_c, 0, 64, 98
1, 167291, Control_c, 0, 67, 105
1, 167306, Control_c, 0, 64, 99
1, 167314, Note_off_c, 0, 61, 62
1, 167320, Control_c, 0, 64, 100
1, 167335, Note_off_c, 0, 59, 60
1, 167335, Control_c, 0, 64, 101
1, 167350, Control_c, 0, 67, 105
1, 167365, Control_c, 0, 64, 101
1, 167365, Control_c, 0, 67, 106
1, 167380, Control_c, 0, 64, 102
1, 167395, Control_c, 0, 64, 102
1, 167402, Note_on_c, 0, 61, 69
1, 167407, Note_off_c, 0, 29, 56
1, 167410, Control_c, 0, 64, 103
1, 167410, Control_c, 0, 67, 106
1, 167425, Control_c, 0, 64, 103
1, 167425, Control_c, 0, 67, 107
1, 167440, Control_c, 0, 67, 107
1, 167454, Control_c, 0, 64, 104
1, 167454, Control_c, 0, 67, 108
1, 167469, Control_c, 0, 64, 104
1, 167469, Control_c, 0, 67, 108
1, 167484, Control_c, 0, 67, 109
1, 167499, Control_c, 0, 67, 109
1, 167502, Note_off_c, 0, 61, 63
1, 167504, Note_on_c, 0, 59, 69
1, 167513, Control_c, 0, 64, 105
1, 167587, Control_c, 0, 67, 110
1, 167612, Note_on_c, 0, 61, 77
1, 167615, Note_off_c, 0, 59, 60
1, 167632, Control_c, 0, 67, 110
1, 167708, Note_off_c, 0, 68, 51
1, 167720, Control_c, 0, 67, 111
1, 167731, Note_on_c, 0, 59, 77
1, 167750, Note_off_c, 0, 61, 61
1, 167803, Note_on_c, 0, 44, 75
1, 167843, Note_off_c, 0, 41, 62
1, 167851, Note_on_c, 0, 61, 70
1, 167870, Control_c, 0, 67, 111
1, 167966, Control_c, 0, 67, 111
1, 167981, Control_c, 0, 67, 110
1, 167996, Control_c, 0, 67, 110
1, 168010, Control_c, 0, 67, 109
1, 168022, Note_on_c, 0, 47, 84
1, 168022, Note_on_c, 0, 68, 74
1, 168040, Control_c, 0, 67, 109
1, 168048, Note_off_c, 0, 61, 60
1, 168055, Control_c, 0, 64, 104
1, 168055, Control_c, 0, 67, 108
1, 168084, Control_c, 0, 64, 104
1, 168113, Note_off_c, 0, 59, 51
1, 168114, Control_c, 0, 64, 103
1, 168114, Control_c, 0, 67, 108
1, 168143, Control_c, 0, 64, 103
1, 168170, Note_on_c, 0, 61, 68
1, 168173, Control_c, 0, 64, 102
1, 168188, Control_c, 0, 64, 102
1, 168203, Control_c, 0, 67, 108
1, 168218, Control_c, 0, 64, 101
1, 168233, Control_c, 0, 64, 101
1, 168235, Note_on_c, 0, 49, 83
1, 168247, Control_c, 0, 64, 100
1, 168262, Control_c, 0, 67, 109
1, 168277, Control_c, 0, 64, 100
1, 168280, Note_off_c, 0, 47, 64
1, 168292, Control_c, 0, 64, 99
1, 168307, Control_c, 0, 64, 99
1, 168307, Control_c, 0, 67, 109
1, 168322, Control_c, 0, 64, 98
1, 168336, Control_c, 0, 64, 97
1, 168337, Note_on_c, 0, 59, 72
1, 168348, Note_off_c, 0, 61, 59
1, 168351, Control_c, 0, 64, 97
1, 168366, Control_c, 0, 64, 96
1, 168396, Control_c, 0, 64, 96
1, 168410, Control_c, 0, 64, 95
1, 168425, Control_c, 0, 64, 95
1, 168440, Control_c, 0, 64, 94
1, 168455, Control_c, 0, 64, 94
1, 168470, Control_c, 0, 64, 93
1, 168484, Control_c, 0, 64, 92
1, 168499, Control_c, 0, 64, 92
1, 168514, Control_c, 0, 64, 91
1, 168528, Control_c, 0, 64, 89
1, 168543, Control_c, 0, 64, 88
1, 168558, Control_c, 0, 64, 86
1, 168558, Control_c, 0, 67, 109
1, 168563, Note_on_c, 0, 50, 80
1, 168569, Note_on_c, 0, 62, 59
1, 168573, Control_c, 0, 64, 84
1, 168586, Note_on_c, 0, 41, 61
1, 168587, Note_off_c, 0, 59, 54
1, 168589, Control_c, 0, 64, 81
1, 168602, Note_off_c, 0, 49, 58
1, 168604, Control_c, 0, 64, 79
1, 168619, Control_c, 0, 64, 75
1, 168633, Control_c, 0, 64, 71
1, 168635, Note_off_c, 0, 68, 36
1, 168648, Control_c, 0, 64, 65
1, 168667, Note_off_c, 0, 44, 36
1, 168671, Control_c, 0, 64, 52
1, 168686, Control_c, 0, 64, 0
1, 168730, Control_c, 0, 67, 109
1, 168774, Control_c, 0, 67, 110
1, 168776, Note_on_c, 0, 59, 47
1, 168784, Note_off_c, 0, 62, 58
1, 168789, Control_c, 0, 67, 111
1, 168804, Control_c, 0, 67, 112
1, 168819, Control_c, 0, 67, 113
1, 168833, Control_c, 0, 67, 113
1, 168848, Control_c, 0, 67, 114
1, 168863, Control_c, 0, 67, 115
1, 168878, Control_c, 0, 67, 116
1, 168893, Control_c, 0, 67, 116
1, 168907, Control_c, 0, 67, 118
1, 168922, Control_c, 0, 67, 122
1, 168937, Control_c, 0, 67, 126
1, 168946, Note_on_c, 0, 62, 44
1, 168953, Control_c, 0, 67, 127
1, 168967, Control_c, 0, 64, 18
1, 168982, Control_c, 0, 64, 57
1, 168997, Control_c, 0, 64, 63
1, 169012, Control_c, 0, 64, 66
1, 169027, Control_c, 0, 64, 68
1, 169041, Control_c, 0, 64, 71
1, 169056, Control_c, 0, 64, 74
1, 169071, Control_c, 0, 64, 77
1, 169085, Control_c, 0, 64, 78
1, 169092, Note_on_c, 0, 68, 55
1, 169097, Note_off_c, 0, 62, 55
1, 169100, Control_c, 0, 64, 79
1, 169115, Control_c, 0, 64, 80
1, 169120, Note_off_c, 0, 59, 35
1, 169130, Control_c, 0, 64, 80
1, 169145, Control_c, 0, 64, 81
1, 169235, Note_on_c, 0, 62, 50
1, 169252, Note_off_c, 0, 68, 37
1, 169355, Note_off_c, 0, 62, 58
1, 169386, Note_on_c, 0, 59, 45
1, 169398, Control_c, 0, 64, 80
1, 169435, Control_c, 0, 64, 80
1, 169464, Control_c, 0, 64, 79
1, 169494, Control_c, 0, 64, 79
1, 169509, Control_c, 0, 64, 78
1, 169523, Control_c, 0, 64, 76
1, 169538, Control_c, 0, 64, 75
1, 169553, Control_c, 0, 64, 74
1, 169568, Control_c, 0, 64, 73
1, 169570, Note_off_c, 0, 59, 37
1, 169574, Note_on_c, 0, 61, 46
1, 169575, Note_on_c, 0, 49, 54
1, 169583, Control_c, 0, 64, 73
1, 169598, Control_c, 0, 64, 71
1, 169613, Control_c, 0, 64, 69
1, 169628, Control_c, 0, 64, 65
1, 169642, Control_c, 0, 64, 60
1, 169645, Note_off_c, 0, 50, 52
1, 169657, Control_c, 0, 64, 53
1, 169672, Control_c, 0, 64, 47
1, 169687, Control_c, 0, 64, 40
1, 169701, Control_c, 0, 64, 0
1, 169723, Note_off_c, 0, 61, 59
1, 169745, Note_on_c, 0, 59, 44
1, 169910, Note_on_c, 0, 61, 38
1, 169916, Note_off_c, 0, 59, 46
1, 170056, Control_c, 0, 64, 53
1, 170071, Control_c, 0, 64, 62
1, 170086, Control_c, 0, 64, 64
1, 170100, Control_c, 0, 64, 65
1, 170115, Control_c, 0, 64, 67
1, 170130, Control_c, 0, 64, 70
1, 170131, Note_on_c, 0, 68, 49
1, 170145, Control_c, 0, 64, 74
1, 170149, Note_off_c, 0, 61, 51
1, 170167, Control_c, 0, 64, 78
1, 170183, Control_c, 0, 64, 81
1, 170198, Control_c, 0, 64, 83
1, 170212, Control_c, 0, 64, 84
1, 170227, Control_c, 0, 64, 86
1, 170242, Control_c, 0, 64, 88
1, 170243, Note_off_c, 0, 71, 21
1, 170257, Control_c, 0, 64, 91
1, 170272, Control_c, 0, 64, 93
1, 170286, Control_c, 0, 64, 94
1, 170301, Control_c, 0, 64, 95
1, 170316, Control_c, 0, 64, 96
1, 170331, Control_c, 0, 64, 97
1, 170346, Control_c, 0, 64, 98
1, 170388, Note_on_c, 0, 61, 43
1, 170391, Control_c, 0, 64, 98
1, 170417, Note_off_c, 0, 41, 36
1, 170533, Note_off_c, 0, 49, 35
1, 170716, Note_on_c, 0, 59, 41
1, 170749, Note_off_c, 0, 68, 39
1, 170864, Note_off_c, 0, 59, 35
1, 170879, Control_c, 0, 64, 98
1, 170945, Control_c, 0, 64, 97
1, 170967, Note_off_c, 0, 61, 37
1, 170975, Control_c, 0, 64, 97
1, 171021, Control_c, 0, 64, 96
1, 171050, Control_c, 0, 64, 96
1, 171095, Control_c, 0, 64, 95
1, 171109, Control_c, 0, 64, 95
1, 171124, Control_c, 0, 64, 94
1, 171154, Control_c, 0, 64, 94
1, 171169, Control_c, 0, 64, 93
1, 171198, Control_c, 0, 64, 93
1, 171213, Control_c, 0, 64, 92
1, 171228, Control_c, 0, 64, 92
1, 171243, Control_c, 0, 64, 91
1, 171273, Control_c, 0, 64, 91
1, 171287, Control_c, 0, 64, 90
1, 171302, Control_c, 0, 64, 90
1, 171317, Control_c, 0, 64, 89
1, 171332, Control_c, 0, 64, 89
1, 171347, Control_c, 0, 64, 88
1, 171361, Control_c, 0, 64, 88
1, 171376, Control_c, 0, 64, 87
1, 171391, Control_c, 0, 64, 86
1, 171406, Control_c, 0, 64, 85
1, 171421, Control_c, 0, 64, 84
1, 171431, Note_on_c, 0, 70, 51
1, 171435, Control_c, 0, 64, 84
1, 171450, Control_c, 0, 64, 83
1, 171461, Note_on_c, 0, 49, 31
1, 171462, Note_on_c, 0, 42, 30
1, 171465, Control_c, 0, 64, 82
1, 171479, Control_c, 0, 64, 80
1, 171494, Control_c, 0, 64, 79
1, 171509, Control_c, 0, 64, 77
1, 171524, Control_c, 0, 64, 74
1, 171539, Control_c, 0, 64, 72
1, 171553, Control_c, 0, 64, 68
1, 171568, Control_c, 0, 64, 65
1, 171583, Control_c, 0, 64, 62
1, 171598, Control_c, 0, 64, 60
1, 171613, Control_c, 0, 64, 56
1, 171628, Control_c, 0, 64, 49
1, 171643, Control_c, 0, 64, 34
1, 171665, Control_c, 0, 64, 0
1, 171694, Control_c, 0, 64, 11
1, 171709, Control_c, 0, 64, 27
1, 171724, Control_c, 0, 64, 37
1, 171739, Control_c, 0, 64, 47
1, 171754, Control_c, 0, 64, 54
1, 171768, Control_c, 0, 64, 59
1, 171784, Control_c, 0, 64, 64
1, 171799, Control_c, 0, 64, 66
1, 171814, Control_c, 0, 64, 68
1, 171827, Note_on_c, 0, 58, 26
1, 171829, Control_c, 0, 64, 71
1, 171844, Control_c, 0, 64, 74
1, 171858, Control_c, 0, 64, 77
1, 171873, Control_c, 0, 64, 79
1, 171888, Control_c, 0, 64, 81
1, 171902, Control_c, 0, 64, 83
1, 171917, Control_c, 0, 64, 84
1, 171932, Control_c, 0, 64, 86
1, 171948, Control_c, 0, 64, 88
1, 171963, Control_c, 0, 64, 90
1, 171977, Control_c, 0, 64, 91
1, 171988, Note_off_c, 0, 58, 40
1, 171992, Control_c, 0, 64, 92
1, 172000, Note_on_c, 0, 61, 31
1, 172007, Control_c, 0, 64, 93
1, 172022, Control_c, 0, 64, 95
1, 172037, Control_c, 0, 64, 96
1, 172051, Control_c, 0, 64, 97
1, 172066, Control_c, 0, 64, 98
1, 172070, Note_off_c, 0, 61, 51
1, 172081, Control_c, 0, 64, 98
1, 172096, Control_c, 0, 64, 99
1, 172111, Control_c, 0, 64, 99
1, 172126, Note_on_c, 0, 66, 32
1, 172140, Control_c, 0, 64, 100
1, 172218, Note_off_c, 0, 66, 37
1, 172236, Note_on_c, 0, 61, 26
1, 172287, Note_off_c, 0, 61, 55
1, 172338, Note_on_c, 0, 58, 21
1, 172376, Note_off_c, 0, 58, 49
1, 172427, Note_on_c, 0, 61, 40
1, 172495, Note_off_c, 0, 61, 56
1, 172530, Note_on_c, 0, 58, 36
1, 172637, Note_on_c, 0, 61, 36
1, 172665, Note_off_c, 0, 58, 32
1, 172710, Note_off_c, 0, 61, 51
1, 172764, Note_on_c, 0, 66, 33
1, 172769, Note_off_c, 0, 70, 28
1, 172830, Control_c, 0, 64, 100
1, 172845, Control_c, 0, 64, 101
1, 172851, Note_off_c, 0, 49, 37
1, 172863, Note_on_c, 0, 61, 32
1, 172864, Note_off_c, 0, 42, 41
1, 172874, Control_c, 0, 64, 102
1, 172889, Control_c, 0, 64, 102
1, 172904, Control_c, 0, 64, 103
1, 172916, Note_off_c, 0, 61, 50
1, 172919, Control_c, 0, 64, 104
1, 172933, Control_c, 0, 64, 105
1, 172948, Control_c, 0, 64, 106
1, 172963, Control_c, 0, 64, 107
1, 172978, Note_on_c, 0, 58, 25
1, 172978, Control_c, 0, 64, 107
1, 173008, Control_c, 0, 64, 108
1, 173032, Note_off_c, 0, 58, 45
1, 173038, Control_c, 0, 64, 109
1, 173053, Control_c, 0, 64, 109
1, 173089, Note_on_c, 0, 70, 53
1, 173097, Control_c, 0, 64, 110
1, 173112, Control_c, 0, 64, 110
1, 173141, Control_c, 0, 64, 111
1, 173160, Note_on_c, 0, 42, 10
1, 173163, Control_c, 0, 64, 111
1, 173166, Note_on_c, 0, 49, 18
1, 173193, Control_c, 0, 64, 112
1, 173223, Control_c, 0, 64, 112
1, 173237, Control_c, 0, 64, 113
1, 173252, Control_c, 0, 64, 113
1, 173255, Note_on_c, 0, 58, 33
1, 173275, Note_off_c, 0, 66, 3
1, 173282, Control_c, 0, 64, 114
1, 173297, Control_c, 0, 64, 114
1, 173312, Control_c, 0, 64, 115
1, 173327, Control_c, 0, 64, 115
1, 173356, Control_c, 0, 64, 116
1, 173363, Note_on_c, 0, 61, 30
1, 173371, Control_c, 0, 64, 116
1, 173401, Control_c, 0, 64, 117
1, 173446, Note_off_c, 0, 61, 53
1, 173446, Control_c, 0, 64, 117
1, 173448, Note_off_c, 0, 58, 25
1, 173479, Note_on_c, 0, 66, 30
1, 173505, Control_c, 0, 64, 118
1, 173509, Note_off_c, 0, 70, 24
1, 173589, Note_on_c, 0, 61, 38
1, 173598, Note_off_c, 0, 49, 40
1, 173625, Note_off_c, 0, 42, 41
1, 173643, Note_off_c, 0, 61, 55
1, 173700, Note_on_c, 0, 58, 35
1, 173822, Note_off_c, 0, 58, 38
1, 173831, Control_c, 0, 64, 117
1, 173832, Note_on_c, 0, 70, 67
1, 173860, Note_off_c, 0, 66, 0
1, 173887, Note_on_c, 0, 42, 28
1, 173889, Note_on_c, 0, 49, 28
1, 173904, Poly_aftertouch_c, 0, 66, 127
1, 173912, Control_c, 0, 64, 117
1, 173942, Control_c, 0, 64, 116
1, 173956, Control_c, 0, 64, 116
1, 173965, Note_on_c, 0, 58, 41
1, 173971, Control_c, 0, 64, 115
1, 174001, Control_c, 0, 64, 115
1, 174016, Control_c, 0, 64, 114
1, 174026, Poly_aftertouch_c, 0, 66, 0
1, 174030, Control_c, 0, 64, 114
1, 174075, Control_c, 0, 64, 113
1, 174077, Note_on_c, 0, 61, 45
1, 174090, Control_c, 0, 64, 113
1, 174120, Control_c, 0, 64, 112
1, 174164, Control_c, 0, 64, 112
1, 174169, Note_off_c, 0, 61, 57
1, 174179, Control_c, 0, 64, 111
1, 174194, Note_off_c, 0, 58, 25
1, 174196, Note_on_c, 0, 66, 37
1, 174209, Control_c, 0, 64, 111
1, 174239, Control_c, 0, 64, 110
1, 174246, Note_off_c, 0, 70, 27
1, 174268, Control_c, 0, 64, 110
1, 174279, Note_off_c, 0, 49, 40
1, 174283, Control_c, 0, 64, 109
1, 174312, Control_c, 0, 64, 109
1, 174318, Note_on_c, 0, 61, 40
1, 174327, Control_c, 0, 64, 108
1, 174357, Control_c, 0, 64, 108
1, 174386, Control_c, 0, 64, 107
1, 174388, Note_off_c, 0, 61, 56
1, 174401, Control_c, 0, 64, 107
1, 174416, Control_c, 0, 64, 106
1, 174431, Control_c, 0, 64, 106
1, 174434, Note_on_c, 0, 58, 40
1, 174445, Control_c, 0, 64, 105
1, 174448, Note_off_c, 0, 42, 31
1, 174460, Control_c, 0, 64, 105
1, 174475, Control_c, 0, 64, 104
1, 174490, Control_c, 0, 64, 104
1, 174504, Control_c, 0, 64, 103
1, 174534, Control_c, 0, 64, 103
1, 174549, Control_c, 0, 64, 102
1, 174564, Control_c, 0, 64, 101
1, 174579, Control_c, 0, 64, 100
1, 174594, Control_c, 0, 64, 99
1, 174609, Control_c, 0, 64, 97
1, 174624, Control_c, 0, 64, 95
1, 174626, Note_off_c, 0, 58, 21
1, 174638, Note_on_c, 0, 70, 62
1, 174638, Control_c, 0, 64, 93
1, 174660, Control_c, 0, 64, 91
1, 174675, Control_c, 0, 64, 90
1, 174676, Note_on_c, 0, 51, 37
1, 174686, Note_on_c, 0, 39, 34
1, 174690, Control_c, 0, 64, 88
1, 174704, Control_c, 0, 64, 85
1, 174719, Control_c, 0, 64, 82
1, 174734, Control_c, 0, 64, 78
1, 174749, Control_c, 0, 64, 72
1, 174764, Control_c, 0, 64, 66
1, 174779, Control_c, 0, 64, 57
1, 174793, Control_c, 0, 64, 31
1, 174808, Control_c, 0, 64, 0
1, 174825, Note_off_c, 0, 66, 32
1, 174887, Note_on_c, 0, 58, 34
1, 174897, Control_c, 0, 64, 36
1, 174912, Control_c, 0, 64, 54
1, 174927, Control_c, 0, 64, 61
1, 174942, Control_c, 0, 64, 64
1, 174957, Control_c, 0, 64, 67
1, 174972, Control_c, 0, 64, 71
1, 174987, Control_c, 0, 64, 76
1, 175002, Control_c, 0, 64, 80
1, 175017, Control_c, 0, 64, 82
1, 175023, Note_on_c, 0, 63, 39
1, 175032, Control_c, 0, 64, 85
1, 175047, Control_c, 0, 64, 88
1, 175062, Control_c, 0, 64, 90
1, 175076, Control_c, 0, 64, 93
1, 175091, Control_c, 0, 64, 95
1, 175106, Control_c, 0, 64, 97
1, 175115, Note_off_c, 0, 58, 21
1, 175121, Control_c, 0, 64, 99
1, 175135, Note_off_c, 0, 63, 49
1, 175135, Control_c, 0, 64, 101
1, 175148, Note_on_c, 0, 66, 40
1, 175150, Control_c, 0, 64, 103
1, 175165, Control_c, 0, 64, 105
1, 175180, Control_c, 0, 64, 106
1, 175195, Control_c, 0, 64, 107
1, 175209, Control_c, 0, 64, 108
1, 175224, Control_c, 0, 64, 108
1, 175232, Note_off_c, 0, 66, 54
1, 175239, Control_c, 0, 64, 109
1, 175254, Control_c, 0, 64, 109
1, 175273, Note_on_c, 0, 63, 33
1, 175298, Control_c, 0, 64, 110
1, 175335, Note_off_c, 0, 63, 42
1, 175376, Note_on_c, 0, 58, 31
1, 175446, Note_off_c, 0, 58, 43
1, 175499, Note_on_c, 0, 63, 33
1, 175574, Note_off_c, 0, 63, 57
1, 175601, Note_on_c, 0, 58, 33
1, 175685, Note_off_c, 0, 70, 38
1, 175686, Note_off_c, 0, 58, 36
1, 175728, Note_on_c, 0, 63, 27
1, 175777, Note_off_c, 0, 63, 47
1, 175838, Note_on_c, 0, 66, 20
1, 175891, Note_off_c, 0, 66, 47
1, 175929, Note_on_c, 0, 63, 25
1, 175968, Note_off_c, 0, 63, 51
1, 176032, Control_c, 0, 64, 109
1, 176033, Note_on_c, 0, 58, 35
1, 176080, Note_off_c, 0, 58, 47
1, 176165, Note_on_c, 0, 66, 43
1, 176232, Control_c, 0, 64, 109
1, 176275, Note_on_c, 0, 54, 32
1, 176343, Note_off_c, 0, 54, 40
1, 176391, Note_on_c, 0, 58, 22
1, 176442, Note_off_c, 0, 58, 45
1, 176501, Note_on_c, 0, 63, 31
1, 176542, Control_c, 0, 67, 127
1, 176557, Control_c, 0, 67, 118
1, 176573, Control_c, 0, 67, 109
1, 176588, Control_c, 0, 67, 97
1, 176603, Control_c, 0, 67, 88
1, 176615, Note_off_c, 0, 66, 11
1, 176618, Control_c, 0, 67, 81
1, 176624, Note_on_c, 0, 58, 20
1, 176633, Control_c, 0, 67, 77
1, 176636, Note_off_c, 0, 63, 27
1, 176647, Control_c, 0, 67, 74
1, 176662, Control_c, 0, 67, 73
1, 176683, Note_off_c, 0, 58, 51
1, 176691, Control_c, 0, 67, 74
1, 176706, Control_c, 0, 67, 75
1, 176721, Control_c, 0, 67, 75
1, 176733, Note_on_c, 0, 54, 22
1, 176736, Control_c, 0, 67, 76
1, 176751, Control_c, 0, 67, 77
1, 176765, Control_c, 0, 67, 78
1, 176780, Control_c, 0, 67, 80
1, 176781, Note_off_c, 0, 54, 45
1, 176795, Control_c, 0, 67, 81
1, 176810, Control_c, 0, 67, 82
1, 176825, Control_c, 0, 67, 83
1, 176826, Note_on_c, 0, 58, 34
1, 176840, Control_c, 0, 67, 84
1, 176854, Control_c, 0, 67, 85
1, 176869, Control_c, 0, 67, 87
1, 176884, Control_c, 0, 67, 91
1, 176906, Control_c, 0, 67, 97
1, 176918, Note_off_c, 0, 58, 53
1, 176921, Control_c, 0, 67, 104
1, 176936, Control_c, 0, 67, 112
1, 176938, Note_off_c, 0, 51, 60
1, 176951, Note_on_c, 0, 54, 32
1, 176951, Control_c, 0, 67, 120
1, 176966, Control_c, 0, 67, 127
1, 176980, Control_c, 0, 67, 127
1, 176983, Poly_aftertouch_c, 0, 66, 127
1, 177065, Note_on_c, 0, 58, 35
1, 177071, Poly_aftertouch_c, 0, 66, 0
1, 177086, Note_off_c, 0, 39, 40
1, 177098, Control_c, 0, 64, 108
1, 177128, Control_c, 0, 64, 108
1, 177130, Note_off_c, 0, 54, 25
1, 177138, Note_off_c, 0, 58, 41
1, 177143, Control_c, 0, 64, 107
1, 177167, Note_on_c, 0, 63, 41
1, 177172, Control_c, 0, 64, 107
1, 177187, Control_c, 0, 64, 106
1, 177202, Control_c, 0, 64, 106
1, 177217, Control_c, 0, 64, 105
1, 177229, Note_off_c, 0, 63, 57
1, 177232, Control_c, 0, 64, 105
1, 177262, Control_c, 0, 64, 104
1, 177277, Control_c, 0, 64, 104
1, 177284, Note_on_c, 0, 58, 36
1, 177306, Control_c, 0, 64, 103
1, 177321, Control_c, 0, 64, 103
1, 177336, Control_c, 0, 64, 102
1, 177350, Note_off_c, 0, 58, 48
1, 177351, Control_c, 0, 64, 101
1, 177366, Control_c, 0, 64, 101
1, 177381, Control_c, 0, 64, 100
1, 177396, Control_c, 0, 64, 100
1, 177399, Note_on_c, 0, 54, 44
1, 177411, Control_c, 0, 64, 99
1, 177426, Control_c, 0, 64, 98
1, 177441, Control_c, 0, 64, 98
1, 177455, Control_c, 0, 64, 97
1, 177475, Note_off_c, 0, 54, 49
1, 177485, Control_c, 0, 64, 97
1, 177500, Control_c, 0, 64, 96
1, 177514, Control_c, 0, 64, 96
1, 177529, Control_c, 0, 64, 95
1, 177544, Control_c, 0, 64, 94
1, 177559, Control_c, 0, 64, 94
1, 177574, Control_c, 0, 64, 93
1, 177588, Control_c, 0, 64, 92
1, 177603, Control_c, 0, 64, 92
1, 177618, Control_c, 0, 64, 91
1, 177622, Note_on_c, 0, 68, 62
1, 177633, Note_on_c, 0, 35, 36
1, 177633, Control_c, 0, 64, 90
1, 177655, Note_on_c, 0, 47, 36
1, 177655, Control_c, 0, 64, 89
1, 177670, Control_c, 0, 64, 88
1, 177685, Control_c, 0, 64, 86
1, 177700, Control_c, 0, 64, 84
1, 177715, Control_c, 0, 64, 79
1, 177729, Control_c, 0, 64, 75
1, 177744, Control_c, 0, 64, 69
1, 177759, Control_c, 0, 64, 63
1, 177774, Control_c, 0, 64, 35
1, 177789, Control_c, 0, 64, 0
1, 177861, Note_on_c, 0, 56, 32
1, 177907, Control_c, 0, 64, 44
1, 177921, Control_c, 0, 64, 58
1, 177936, Control_c, 0, 64, 64
1, 177951, Control_c, 0, 64, 67
1, 177966, Control_c, 0, 64, 70
1, 177968, Note_on_c, 0, 59, 33
1, 177981, Control_c, 0, 64, 74
1, 177995, Control_c, 0, 64, 78
1, 178001, Note_off_c, 0, 56, 29
1, 178010, Control_c, 0, 64, 80
1, 178025, Control_c, 0, 64, 82
1, 178040, Control_c, 0, 64, 84
1, 178055, Control_c, 0, 64, 86
1, 178069, Control_c, 0, 64, 87
1, 178084, Control_c, 0, 64, 89
1, 178088, Note_off_c, 0, 59, 38
1, 178089, Note_on_c, 0, 63, 40
1, 178099, Control_c, 0, 64, 91
1, 178114, Control_c, 0, 64, 92
1, 178129, Control_c, 0, 64, 93
1, 178144, Control_c, 0, 64, 94
1, 178159, Control_c, 0, 64, 94
1, 178174, Control_c, 0, 64, 95
1, 178189, Control_c, 0, 64, 95
1, 178219, Note_on_c, 0, 59, 40
1, 178251, Note_off_c, 0, 63, 33
1, 178262, Note_off_c, 0, 59, 48
1, 178308, Note_on_c, 0, 56, 36
1, 178308, Control_c, 0, 67, 127
1, 178368, Note_off_c, 0, 56, 42
1, 178382, Control_c, 0, 67, 126
1, 178411, Note_on_c, 0, 59, 36
1, 178418, Control_c, 0, 67, 126
1, 178448, Control_c, 0, 67, 125
1, 178478, Control_c, 0, 67, 126
1, 178493, Note_off_c, 0, 59, 49
1, 178518, Note_on_c, 0, 56, 38
1, 178626, Control_c, 0, 67, 125
1, 178636, Note_off_c, 0, 56, 31
1, 178655, Note_on_c, 0, 59, 25
1, 178670, Control_c, 0, 67, 125
1, 178698, Note_off_c, 0, 35, 42
1, 178703, Note_off_c, 0, 68, 41
1, 178704, Note_off_c, 0, 59, 43
1, 178742, Note_on_c, 0, 63, 39
1, 178760, Control_c, 0, 64, 95
1, 178775, Control_c, 0, 67, 125
1, 178785, Note_off_c, 0, 47, 44
1, 178819, Control_c, 0, 64, 94
1, 178834, Control_c, 0, 67, 126
1, 178849, Control_c, 0, 67, 126
1, 178851, Note_on_c, 0, 59, 32
1, 178854, Note_off_c, 0, 63, 37
1, 178864, Control_c, 0, 64, 94
1, 178878, Control_c, 0, 64, 93
1, 178908, Control_c, 0, 64, 93
1, 178923, Control_c, 0, 64, 92
1, 178952, Control_c, 0, 64, 92
1, 178968, Control_c, 0, 64, 91
1, 178983, Note_on_c, 0, 56, 29
1, 178983, Control_c, 0, 64, 91
1, 178994, Note_off_c, 0, 59, 37
1, 178998, Control_c, 0, 64, 90
1, 179028, Control_c, 0, 64, 89
1, 179042, Control_c, 0, 64, 89
1, 179057, Control_c, 0, 64, 88
1, 179057, Control_c, 0, 67, 127
1, 179072, Control_c, 0, 64, 87
1, 179086, Control_c, 0, 64, 86
1, 179101, Control_c, 0, 64, 85
1, 179116, Control_c, 0, 64, 84
1, 179128, Note_off_c, 0, 56, 24
1, 179131, Control_c, 0, 64, 82
1, 179134, Note_on_c, 0, 66, 53
1, 179154, Control_c, 0, 64, 80
1, 179166, Note_on_c, 0, 49, 33
1, 179168, Control_c, 0, 64, 77
1, 179169, Note_on_c, 0, 37, 31
1, 179183, Control_c, 0, 64, 74
1, 179198, Control_c, 0, 64, 69
1, 179213, Control_c, 0, 64, 64
1, 179228, Control_c, 0, 64, 46
1, 179242, Control_c, 0, 64, 0
1, 179272, Control_c, 0, 64, 33
1, 179287, Control_c, 0, 64, 52
1, 179301, Control_c, 0, 64, 60
1, 179313, Note_on_c, 0, 56, 32
1, 179316, Control_c, 0, 64, 64
1, 179331, Control_c, 0, 64, 67
1, 179346, Control_c, 0, 64, 71
1, 179361, Control_c, 0, 64, 76
1, 179375, Control_c, 0, 64, 81
1, 179387, Note_off_c, 0, 66, 53
1, 179390, Control_c, 0, 64, 83
1, 179390, Control_c, 0, 67, 127
1, 179405, Control_c, 0, 64, 85
1, 179420, Note_on_c, 0, 59, 33
1, 179420, Control_c, 0, 64, 87
1, 179435, Control_c, 0, 64, 88
1, 179450, Control_c, 0, 64, 89
1, 179465, Control_c, 0, 64, 90
1, 179479, Control_c, 0, 64, 90
1, 179491, Note_off_c, 0, 56, 39
1, 179494, Control_c, 0, 64, 91
1, 179500, Note_on_c, 0, 65, 63
1, 179524, Control_c, 0, 64, 91
1, 179568, Control_c, 0, 64, 92
1, 179611, Note_on_c, 0, 56, 46
1, 179623, Note_off_c, 0, 59, 39
1, 179716, Control_c, 0, 64, 92
1, 179728, Note_on_c, 0, 59, 45
1, 179736, Note_off_c, 0, 56, 0
1, 179787, Poly_aftertouch_c, 0, 56, 0
1, 179843, Note_on_c, 0, 63, 65
1, 179891, Note_off_c, 0, 65, 33
1, 179947, Note_on_c, 0, 56, 50
1, 179953, Note_off_c, 0, 59, 39
1, 180028, Note_off_c, 0, 56, 47
1, 180049, Note_off_c, 0, 49, 39
1, 180067, Note_on_c, 0, 59, 52
1, 180096, Note_off_c, 0, 63, 55
1, 180168, Note_off_c, 0, 37, 38
1, 180183, Note_on_c, 0, 61, 70
1, 180194, Note_on_c, 0, 49, 37
1, 180198, Note_off_c, 0, 59, 55
1, 180222, Note_on_c, 0, 47, 35
1, 180242, Control_c, 0, 64, 92
1, 180291, Note_on_c, 0, 53, 50
1, 180302, Control_c, 0, 64, 91
1, 180331, Control_c, 0, 64, 91
1, 180346, Control_c, 0, 64, 90
1, 180356, Note_off_c, 0, 49, 40
1, 180361, Control_c, 0, 64, 90
1, 180376, Control_c, 0, 64, 89
1, 180383, Note_off_c, 0, 53, 55
1, 180390, Control_c, 0, 64, 89
1, 180405, Note_on_c, 0, 56, 41
1, 180420, Control_c, 0, 64, 88
1, 180438, Note_off_c, 0, 56, 55
1, 180464, Control_c, 0, 64, 88
1, 180479, Control_c, 0, 64, 87
1, 180494, Control_c, 0, 64, 87
1, 180508, Control_c, 0, 64, 86
1, 180528, Note_off_c, 0, 61, 32
1, 180534, Note_off_c, 0, 47, 40
1, 180538, Control_c, 0, 64, 86
1, 180551, Note_on_c, 0, 66, 65
1, 180553, Control_c, 0, 64, 85
1, 180569, Control_c, 0, 64, 84
1, 180579, Note_on_c, 0, 46, 45
1, 180584, Control_c, 0, 64, 83
1, 180585, Note_on_c, 0, 49, 44
1, 180599, Control_c, 0, 64, 80
1, 180613, Control_c, 0, 64, 75
1, 180628, Control_c, 0, 64, 66
1, 180651, Control_c, 0, 64, 38
1, 180666, Control_c, 0, 64, 0
1, 180705, Note_on_c, 0, 54, 47
1, 180769, Control_c, 0, 64, 53
1, 180784, Control_c, 0, 64, 67
1, 180799, Control_c, 0, 64, 72
1, 180812, Note_on_c, 0, 58, 44
1, 180814, Control_c, 0, 64, 77
1, 180828, Control_c, 0, 64, 81
1, 180843, Control_c, 0, 64, 84
1, 180858, Control_c, 0, 64, 85
1, 180872, Control_c, 0, 64, 87
1, 180887, Control_c, 0, 64, 87
1, 180901, Note_off_c, 0, 54, 26
1, 180902, Note_off_c, 0, 58, 59
1, 180902, Control_c, 0, 64, 88
1, 180928, Note_on_c, 0, 61, 44
1, 180992, Note_off_c, 0, 61, 52
1, 181002, Note_off_c, 0, 66, 43
1, 181033, Note_on_c, 0, 58, 36
1, 181066, Note_off_c, 0, 58, 48
1, 181080, Control_c, 0, 64, 87
1, 181110, Control_c, 0, 64, 87
1, 181125, Control_c, 0, 64, 86
1, 181138, Note_on_c, 0, 54, 33
1, 181139, Control_c, 0, 64, 86
1, 181154, Control_c, 0, 64, 85
1, 181167, Note_off_c, 0, 54, 50
1, 181169, Control_c, 0, 64, 85
1, 181199, Control_c, 0, 64, 84
1, 181213, Control_c, 0, 64, 83
1, 181228, Control_c, 0, 64, 82
1, 181243, Control_c, 0, 64, 81
1, 181257, Control_c, 0, 64, 79
1, 181272, Control_c, 0, 64, 77
1, 181284, Note_on_c, 0, 70, 59
1, 181287, Control_c, 0, 64, 75
1, 181297, Note_on_c, 0, 51, 38
1, 181302, Control_c, 0, 64, 72
1, 181317, Control_c, 0, 64, 68
1, 181328, Note_on_c, 0, 42, 28
1, 181331, Control_c, 0, 64, 64
1, 181340, Note_off_c, 0, 49, 20
1, 181345, Note_off_c, 0, 46, 31
1, 181346, Control_c, 0, 64, 53
1, 181362, Control_c, 0, 64, 26
1, 181377, Control_c, 0, 64, 0
1, 181429, Control_c, 0, 64, 35
1, 181441, Note_on_c, 0, 60, 49
1, 181444, Control_c, 0, 64, 55
1, 181459, Control_c, 0, 64, 62
1, 181474, Control_c, 0, 64, 66
1, 181488, Control_c, 0, 64, 69
1, 181503, Control_c, 0, 64, 73
1, 181518, Control_c, 0, 64, 77
1, 181533, Control_c, 0, 64, 80
1, 181548, Control_c, 0, 64, 81
1, 181563, Control_c, 0, 64, 82
1, 181567, Note_off_c, 0, 70, 53
1, 181569, Note_on_c, 0, 63, 32
1, 181577, Control_c, 0, 64, 83
1, 181592, Control_c, 0, 64, 84
1, 181620, Note_off_c, 0, 63, 45
1, 181683, Note_on_c, 0, 66, 42
1, 181697, Note_off_c, 0, 60, 17
1, 181770, Control_c, 0, 64, 83
1, 181799, Note_off_c, 0, 51, 42
1, 181815, Control_c, 0, 64, 83
1, 181825, Note_on_c, 0, 63, 36
1, 181830, Control_c, 0, 64, 82
1, 181835, Note_off_c, 0, 66, 42
1, 181859, Control_c, 0, 64, 82
1, 181874, Control_c, 0, 64, 81
1, 181888, Control_c, 0, 64, 81
1, 181896, Note_off_c, 0, 63, 38
1, 181903, Control_c, 0, 64, 80
1, 181918, Control_c, 0, 64, 80
1, 181932, Note_on_c, 0, 60, 46
1, 181933, Control_c, 0, 64, 79
1, 181941, Note_off_c, 0, 42, 29
1, 181948, Control_c, 0, 64, 79
1, 181977, Control_c, 0, 64, 78
1, 182007, Control_c, 0, 64, 78
1, 182022, Control_c, 0, 64, 77
1, 182037, Control_c, 0, 64, 77
1, 182039, Note_on_c, 0, 37, 34
1, 182067, Control_c, 0, 64, 76
1, 182080, Note_off_c, 0, 60, 26
1, 182082, Control_c, 0, 64, 76
1, 182096, Control_c, 0, 64, 75
1, 182111, Control_c, 0, 64, 74
1, 182126, Control_c, 0, 64, 74
1, 182148, Control_c, 0, 64, 73
1, 182164, Control_c, 0, 64, 71
1, 182179, Control_c, 0, 64, 70
1, 182193, Control_c, 0, 64, 68
1, 182208, Control_c, 0, 64, 65
1, 182210, Note_on_c, 0, 68, 64
1, 182223, Control_c, 0, 64, 63
1, 182238, Control_c, 0, 64, 58
1, 182243, Note_on_c, 0, 53, 18
1, 182253, Control_c, 0, 64, 50
1, 182267, Control_c, 0, 64, 33
1, 182282, Control_c, 0, 64, 0
1, 182460, Control_c, 0, 64, 60
1, 182475, Control_c, 0, 64, 66
1, 182490, Control_c, 0, 64, 68
1, 182505, Control_c, 0, 64, 71
1, 182519, Control_c, 0, 64, 73
1, 182534, Control_c, 0, 64, 75
1, 182547, Note_on_c, 0, 56, 47
1, 182549, Control_c, 0, 64, 78
1, 182564, Control_c, 0, 64, 80
1, 182579, Control_c, 0, 64, 81
1, 182593, Control_c, 0, 64, 82
1, 182608, Control_c, 0, 64, 82
1, 182618, Note_off_c, 0, 56, 58
1, 182623, Control_c, 0, 64, 83
1, 182637, Control_c, 0, 64, 83
1, 182649, Note_off_c, 0, 53, 41
1, 182652, Control_c, 0, 64, 84
1, 182667, Note_on_c, 0, 61, 48
1, 182667, Control_c, 0, 64, 84
1, 182697, Control_c, 0, 64, 85
1, 182720, Note_off_c, 0, 61, 54
1, 182741, Control_c, 0, 64, 85
1, 182766, Note_off_c, 0, 68, 38
1, 182783, Note_on_c, 0, 65, 47
1, 182872, Note_off_c, 0, 65, 57
1, 182910, Note_on_c, 0, 61, 41
1, 182977, Note_off_c, 0, 61, 46
1, 183036, Note_on_c, 0, 56, 15
1, 183085, Note_off_c, 0, 56, 49
1, 183090, Control_c, 0, 67, 122
1, 183105, Control_c, 0, 67, 115
1, 183120, Control_c, 0, 67, 104
1, 183123, Note_on_c, 0, 61, 42
1, 183134, Control_c, 0, 67, 92
1, 183149, Control_c, 0, 67, 83
1, 183164, Control_c, 0, 67, 80
1, 183179, Control_c, 0, 67, 81
1, 183182, Note_off_c, 0, 61, 44
1, 183223, Control_c, 0, 67, 82
1, 183238, Control_c, 0, 67, 83
1, 183243, Note_on_c, 0, 56, 33
1, 183253, Control_c, 0, 67, 84
1, 183268, Control_c, 0, 67, 85
1, 183283, Control_c, 0, 67, 85
1, 183298, Control_c, 0, 67, 86
1, 183313, Control_c, 0, 67, 87
1, 183328, Control_c, 0, 67, 88
1, 183342, Control_c, 0, 67, 89
1, 183357, Control_c, 0, 67, 90
1, 183369, Note_on_c, 0, 61, 32
1, 183371, Note_off_c, 0, 56, 40
1, 183372, Control_c, 0, 67, 91
1, 183387, Control_c, 0, 67, 92
1, 183402, Control_c, 0, 67, 93
1, 183416, Control_c, 0, 67, 95
1, 183431, Control_c, 0, 67, 99
1, 183446, Control_c, 0, 67, 103
1, 183460, Control_c, 0, 67, 110
1, 183475, Control_c, 0, 67, 114
1, 183482, Note_on_c, 0, 69, 60
1, 183490, Control_c, 0, 67, 118
1, 183505, Control_c, 0, 67, 121
1, 183520, Control_c, 0, 67, 123
1, 183524, Note_off_c, 0, 61, 37
1, 183534, Control_c, 0, 67, 125
1, 183545, Note_on_c, 0, 65, 39
1, 183549, Control_c, 0, 67, 127
1, 183564, Control_c, 0, 64, 85
1, 183640, Note_off_c, 0, 69, 58
1, 183646, Control_c, 0, 64, 84
1, 183663, Note_on_c, 0, 61, 48
1, 183705, Control_c, 0, 64, 84
1, 183765, Control_c, 0, 64, 83
1, 183778, Note_off_c, 0, 65, 33
1, 183805, Note_on_c, 0, 57, 27
1, 183810, Control_c, 0, 64, 83
1, 183827, Note_off_c, 0, 37, 38
1, 183829, Note_off_c, 0, 61, 34
1, 183839, Control_c, 0, 64, 82
1, 183883, Control_c, 0, 64, 82
1, 183928, Control_c, 0, 64, 81
1, 183957, Control_c, 0, 64, 81
1, 183987, Control_c, 0, 64, 80
1, 183998, Note_off_c, 0, 57, 35
1, 184017, Control_c, 0, 64, 80
1, 184046, Note_on_c, 0, 70, 60
1, 184076, Control_c, 0, 64, 79
1, 184081, Note_on_c, 0, 42, 31
1, 184085, Note_on_c, 0, 49, 36
1, 184091, Control_c, 0, 64, 78
1, 184106, Control_c, 0, 64, 77
1, 184121, Control_c, 0, 64, 75
1, 184136, Control_c, 0, 64, 73
1, 184151, Control_c, 0, 64, 70
1, 184165, Control_c, 0, 64, 67
1, 184180, Control_c, 0, 64, 62
1, 184195, Control_c, 0, 64, 49
1, 184210, Control_c, 0, 64, 16
1, 184225, Control_c, 0, 64, 0
1, 184347, Note_on_c, 0, 58, 32
1, 184357, Control_c, 0, 64, 14
1, 184372, Control_c, 0, 64, 50
1, 184395, Control_c, 0, 64, 62
1, 184410, Control_c, 0, 64, 66
1, 184424, Control_c, 0, 64, 68
1, 184439, Control_c, 0, 64, 71
1, 184454, Control_c, 0, 64, 74
1, 184456, Note_on_c, 0, 61, 38
1, 184469, Control_c, 0, 64, 77
1, 184484, Control_c, 0, 64, 80
1, 184492, Note_off_c, 0, 58, 37
1, 184498, Control_c, 0, 64, 82
1, 184513, Control_c, 0, 64, 84
1, 184528, Control_c, 0, 64, 85
1, 184543, Control_c, 0, 64, 87
1, 184558, Control_c, 0, 64, 88
1, 184566, Note_off_c, 0, 61, 56
1, 184574, Control_c, 0, 64, 88
1, 184598, Note_on_c, 0, 66, 38
1, 184603, Control_c, 0, 64, 89
1, 184633, Control_c, 0, 64, 89
1, 184704, Note_off_c, 0, 66, 36
1, 184708, Note_on_c, 0, 61, 41
1, 184757, Note_off_c, 0, 61, 54
1, 184819, Note_on_c, 0, 58, 25
1, 184865, Note_off_c, 0, 58, 47
1, 184899, Note_on_c, 0, 61, 41
1, 184899, Control_c, 0, 64, 90
1, 184929, Control_c, 0, 64, 90
1, 184943, Control_c, 0, 64, 91
1, 184958, Control_c, 0, 64, 91
1, 184967, Note_off_c, 0, 61, 54
1, 184973, Control_c, 0, 64, 92
1, 185003, Note_on_c, 0, 58, 39
1, 185003, Control_c, 0, 64, 92
1, 185018, Control_c, 0, 64, 93
1, 185047, Control_c, 0, 64, 93
1, 185062, Control_c, 0, 64, 94
1, 185077, Control_c, 0, 64, 95
1, 185092, Control_c, 0, 64, 96
1, 185106, Control_c, 0, 64, 98
1, 185107, Note_on_c, 0, 61, 46
1, 185121, Control_c, 0, 64, 100
1, 185143, Control_c, 0, 64, 102
1, 185146, Note_off_c, 0, 58, 36
1, 185158, Control_c, 0, 64, 104
1, 185173, Control_c, 0, 64, 106
1, 185188, Control_c, 0, 64, 109
1, 185195, Note_off_c, 0, 61, 54
1, 185203, Control_c, 0, 64, 112
1, 185218, Control_c, 0, 64, 115
1, 185227, Note_on_c, 0, 66, 43
1, 185232, Control_c, 0, 64, 118
1, 185246, Note_off_c, 0, 70, 31
1, 185247, Control_c, 0, 64, 123
1, 185262, Control_c, 0, 64, 127
1, 185298, Note_off_c, 0, 42, 41
1, 185303, Note_off_c, 0, 49, 38
1, 185307, Control_c, 0, 67, 127
1, 185327, Note_on_c, 0, 61, 46
1, 185336, Control_c, 0, 67, 126
1, 185367, Control_c, 0, 67, 126
1, 185378, Note_off_c, 0, 61, 55
1, 185397, Control_c, 0, 67, 125
1, 185420, Note_on_c, 0, 58, 45
1, 185470, Control_c, 0, 67, 125
1, 185484, Note_off_c, 0, 58, 52
1, 185500, Control_c, 0, 67, 124
1, 185517, Note_on_c, 0, 70, 67
1, 185544, Control_c, 0, 67, 124
1, 185553, Note_on_c, 0, 49, 35
1, 185557, Note_on_c, 0, 42, 28
1, 185559, Control_c, 0, 67, 123
1, 185573, Note_off_c, 0, 66, 0
1, 185574, Control_c, 0, 67, 123
1, 185609, Poly_aftertouch_c, 0, 66, 127
1, 185643, Note_on_c, 0, 58, 37
1, 185648, Control_c, 0, 67, 122
1, 185662, Control_c, 0, 67, 122
1, 185689, Poly_aftertouch_c, 0, 66, 0
1, 185692, Control_c, 0, 67, 120
1, 185707, Control_c, 0, 67, 120
1, 185736, Control_c, 0, 67, 119
1, 185751, Note_on_c, 0, 61, 43
1, 185826, Control_c, 0, 67, 120
1, 185852, Note_off_c, 0, 61, 58
1, 185855, Control_c, 0, 67, 121
1, 185857, Note_off_c, 0, 58, 38
1, 185863, Note_on_c, 0, 66, 41
1, 185870, Control_c, 0, 67, 122
1, 185892, Control_c, 0, 67, 123
1, 185907, Control_c, 0, 67, 124
1, 185922, Control_c, 0, 67, 125
1, 185936, Control_c, 0, 67, 125
1, 185938, Note_off_c, 0, 70, 24
1, 185990, Note_on_c, 0, 61, 46
1, 185990, Note_off_c, 0, 42, 41
1, 185996, Control_c, 0, 67, 126
1, 186007, Note_off_c, 0, 49, 39
1, 186010, Note_off_c, 0, 66, 0
1, 186040, Note_off_c, 0, 61, 57
1, 186047, Poly_aftertouch_c, 0, 66, 127
1, 186079, Note_on_c, 0, 58, 47
1, 186129, Control_c, 0, 67, 125
1, 186170, Note_off_c, 0, 58, 58
1, 186198, Note_on_c, 0, 70, 71
1, 186237, Note_on_c, 0, 49, 35
1, 186244, Note_on_c, 0, 42, 33
1, 186293, Control_c, 0, 67, 126
1, 186318, Note_on_c, 0, 58, 47
1, 186338, Control_c, 0, 67, 127
1, 186367, Control_c, 0, 67, 127
1, 186407, Poly_aftertouch_c, 0, 66, 0
1, 186437, Note_on_c, 0, 61, 47
1, 186518, Note_off_c, 0, 58, 50
1, 186547, Note_off_c, 0, 61, 55
1, 186555, Note_on_c, 0, 66, 39
1, 186594, Note_off_c, 0, 70, 35
1, 186641, Control_c, 0, 64, 127
1, 186656, Control_c, 0, 64, 125
1, 186671, Control_c, 0, 64, 123
1, 186685, Control_c, 0, 64, 121
1, 186698, Note_on_c, 0, 61, 42
1, 186700, Control_c, 0, 64, 120
1, 186704, Note_off_c, 0, 49, 40
1, 186715, Control_c, 0, 64, 118
1, 186730, Control_c, 0, 64, 117
1, 186745, Control_c, 0, 64, 116
1, 186759, Control_c, 0, 64, 115
1, 186783, Note_off_c, 0, 61, 51
1, 186789, Control_c, 0, 64, 114
1, 186804, Control_c, 0, 64, 114
1, 186818, Control_c, 0, 64, 113
1, 186833, Note_on_c, 0, 58, 36
1, 186833, Control_c, 0, 64, 113
1, 186848, Control_c, 0, 64, 112
1, 186863, Control_c, 0, 64, 111
1, 186878, Control_c, 0, 64, 111
1, 186893, Control_c, 0, 64, 109
1, 186908, Control_c, 0, 64, 108
1, 186923, Control_c, 0, 64, 107
1, 186938, Control_c, 0, 64, 107
1, 186953, Control_c, 0, 64, 106
1, 186968, Control_c, 0, 64, 104
1, 186982, Control_c, 0, 64, 103
1, 186997, Control_c, 0, 64, 101
1, 187000, Note_off_c, 0, 58, 31
1, 187006, Note_on_c, 0, 70, 65
1, 187012, Control_c, 0, 64, 98
1, 187027, Control_c, 0, 64, 95
1, 187037, Note_on_c, 0, 51, 40
1, 187042, Control_c, 0, 64, 92
1, 187047, Note_on_c, 0, 39, 35
1, 187057, Control_c, 0, 64, 89
1, 187072, Control_c, 0, 64, 87
1, 187087, Control_c, 0, 64, 84
1, 187102, Control_c, 0, 64, 82
1, 187116, Control_c, 0, 64, 79
1, 187131, Control_c, 0, 64, 75
1, 187146, Control_c, 0, 64, 69
1, 187161, Control_c, 0, 64, 61
1, 187168, Note_off_c, 0, 42, 34
1, 187176, Control_c, 0, 64, 0
1, 187196, Note_off_c, 0, 66, 36
1, 187229, Note_on_c, 0, 58, 32
1, 187323, Control_c, 0, 64, 53
1, 187337, Note_on_c, 0, 63, 37
1, 187338, Control_c, 0, 64, 63
1, 187353, Control_c, 0, 64, 67
1, 187368, Control_c, 0, 64, 72
1, 187390, Control_c, 0, 64, 77
1, 187405, Control_c, 0, 64, 80
1, 187412, Note_off_c, 0, 58, 32
1, 187420, Control_c, 0, 64, 84
1, 187434, Control_c, 0, 64, 86
1, 187449, Control_c, 0, 64, 88
1, 187464, Control_c, 0, 64, 90
1, 187468, Note_off_c, 0, 63, 43
1, 187471, Note_on_c, 0, 66, 42
1, 187479, Control_c, 0, 64, 92
1, 187494, Control_c, 0, 64, 94
1, 187508, Control_c, 0, 64, 95
1, 187523, Control_c, 0, 64, 97
1, 187538, Control_c, 0, 64, 98
1, 187553, Control_c, 0, 64, 98
1, 187568, Control_c, 0, 64, 99
1, 187570, Note_off_c, 0, 66, 52
1, 187589, Note_on_c, 0, 63, 37
1, 187640, Note_off_c, 0, 63, 45
1, 187686, Note_on_c, 0, 58, 39
1, 187742, Note_off_c, 0, 58, 45
1, 187791, Note_on_c, 0, 63, 36
1, 187878, Note_off_c, 0, 63, 55
1, 187894, Note_on_c, 0, 58, 37
1, 187937, Control_c, 0, 64, 98
1, 188002, Note_off_c, 0, 70, 39
1, 188021, Note_on_c, 0, 63, 37
1, 188023, Note_off_c, 0, 58, 33
1, 188085, Control_c, 0, 64, 98
1, 188100, Note_off_c, 0, 63, 41
1, 188139, Note_on_c, 0, 66, 36
1, 188152, Control_c, 0, 64, 97
1, 188190, Note_off_c, 0, 66, 46
1, 188226, Control_c, 0, 64, 97
1, 188231, Note_on_c, 0, 63, 51
1, 188273, Note_off_c, 0, 63, 61
1, 188330, Note_on_c, 0, 58, 42
1, 188345, Control_c, 0, 64, 96
1, 188389, Note_off_c, 0, 58, 55
1, 188443, Note_on_c, 0, 66, 55
1, 188558, Note_on_c, 0, 54, 36
1, 188630, Note_off_c, 0, 54, 35
1, 188666, Note_on_c, 0, 58, 39
1, 188734, Note_off_c, 0, 51, 60
1, 188762, Note_off_c, 0, 58, 57
1, 188783, Note_on_c, 0, 63, 45
1, 188802, Note_off_c, 0, 39, 46
1, 188819, Note_off_c, 0, 66, 36
1, 188866, Note_off_c, 0, 63, 51
1, 188905, Note_on_c, 0, 58, 49
1, 188947, Control_c, 0, 64, 96
1, 188962, Note_off_c, 0, 58, 54
1, 188976, Control_c, 0, 64, 95
1, 188991, Control_c, 0, 64, 95
1, 189005, Control_c, 0, 64, 94
1, 189009, Note_on_c, 0, 54, 46
1, 189020, Control_c, 0, 64, 94
1, 189035, Control_c, 0, 64, 93
1, 189065, Control_c, 0, 64, 93
1, 189079, Control_c, 0, 64, 92
1, 189094, Control_c, 0, 64, 91
1, 189109, Control_c, 0, 64, 90
1, 189124, Note_off_c, 0, 54, 49
1, 189124, Control_c, 0, 64, 88
1, 189126, Note_on_c, 0, 65, 62
1, 189139, Note_on_c, 0, 34, 36
1, 189139, Control_c, 0, 64, 88
1, 189144, Note_on_c, 0, 46, 34
1, 189153, Control_c, 0, 64, 87
1, 189168, Control_c, 0, 64, 86
1, 189183, Control_c, 0, 64, 84
1, 189198, Control_c, 0, 64, 80
1, 189212, Control_c, 0, 64, 73
1, 189227, Control_c, 0, 64, 63
1, 189242, Control_c, 0, 64, 0
1, 189255, Note_on_c, 0, 53, 44
1, 189302, Control_c, 0, 64, 48
1, 189316, Control_c, 0, 64, 63
1, 189331, Control_c, 0, 64, 67
1, 189347, Control_c, 0, 64, 72
1, 189362, Control_c, 0, 64, 77
1, 189368, Note_on_c, 0, 56, 49
1, 189376, Control_c, 0, 64, 82
1, 189391, Control_c, 0, 64, 84
1, 189406, Control_c, 0, 64, 85
1, 189421, Control_c, 0, 64, 85
1, 189436, Control_c, 0, 64, 86
1, 189447, Note_off_c, 0, 53, 28
1, 189454, Note_off_c, 0, 56, 53
1, 189465, Control_c, 0, 64, 87
1, 189471, Note_on_c, 0, 62, 51
1, 189471, Note_off_c, 0, 65, 36
1, 189562, Note_off_c, 0, 62, 55
1, 189570, Note_off_c, 0, 34, 56
1, 189579, Note_off_c, 0, 46, 40
1, 189588, Note_on_c, 0, 56, 50
1, 189638, Note_off_c, 0, 56, 54
1, 189710, Note_on_c, 0, 53, 52
1, 189768, Note_off_c, 0, 53, 57
1, 189770, Control_c, 0, 64, 86
1, 189799, Control_c, 0, 64, 86
1, 189814, Control_c, 0, 64, 85
1, 189820, Note_on_c, 0, 63, 72
1, 189828, Control_c, 0, 64, 84
1, 189835, Note_on_c, 0, 47, 45
1, 189843, Control_c, 0, 64, 82
1, 189852, Note_on_c, 0, 35, 45
1, 189858, Control_c, 0, 64, 79
1, 189873, Control_c, 0, 64, 75
1, 189888, Control_c, 0, 64, 69
1, 189902, Control_c, 0, 64, 62
1, 189917, Control_c, 0, 64, 39
1, 189932, Control_c, 0, 64, 40
1, 189944, Note_on_c, 0, 51, 55
1, 189947, Control_c, 0, 64, 51
1, 189962, Control_c, 0, 64, 54
1, 189976, Control_c, 0, 64, 58
1, 189991, Control_c, 0, 64, 62
1, 190006, Control_c, 0, 64, 64
1, 190021, Control_c, 0, 64, 67
1, 190035, Control_c, 0, 64, 71
1, 190050, Control_c, 0, 64, 78
1, 190052, Note_on_c, 0, 54, 48
1, 190065, Control_c, 0, 64, 82
1, 190080, Control_c, 0, 64, 85
1, 190095, Control_c, 0, 64, 87
1, 190109, Control_c, 0, 64, 90
1, 190112, Note_off_c, 0, 51, 28
1, 190124, Control_c, 0, 64, 91
1, 190139, Control_c, 0, 64, 93
1, 190152, Note_off_c, 0, 47, 45
1, 190155, Note_off_c, 0, 35, 42
1, 190155, Control_c, 0, 64, 93
1, 190159, Note_off_c, 0, 54, 59
1, 190168, Note_off_c, 0, 63, 54
1, 190169, Note_on_c, 0, 59, 52
1, 190271, Note_off_c, 0, 59, 47
1, 190280, Note_on_c, 0, 54, 43
1, 190333, Control_c, 0, 64, 93
1, 190337, Note_off_c, 0, 54, 46
1, 190348, Control_c, 0, 64, 92
1, 190363, Control_c, 0, 64, 92
1, 190383, Note_on_c, 0, 51, 60
1, 190385, Control_c, 0, 64, 91
1, 190400, Control_c, 0, 64, 89
1, 190413, Note_off_c, 0, 51, 63
1, 190414, Control_c, 0, 64, 88
1, 190429, Control_c, 0, 64, 87
1, 190444, Control_c, 0, 64, 86
1, 190458, Control_c, 0, 64, 85
1, 190473, Control_c, 0, 64, 83
1, 190488, Control_c, 0, 64, 82
1, 190503, Control_c, 0, 64, 79
1, 190518, Control_c, 0, 64, 77
1, 190521, Note_on_c, 0, 68, 68
1, 190533, Control_c, 0, 64, 72
1, 190548, Control_c, 0, 64, 67
1, 190559, Note_on_c, 0, 44, 35
1, 190562, Control_c, 0, 64, 60
1, 190568, Note_on_c, 0, 32, 32
1, 190577, Control_c, 0, 64, 0
1, 190645, Note_on_c, 0, 56, 53
1, 190680, Control_c, 0, 64, 25
1, 190695, Control_c, 0, 64, 61
1, 190710, Control_c, 0, 64, 67
1, 190724, Control_c, 0, 64, 71
1, 190739, Control_c, 0, 64, 75
1, 190754, Control_c, 0, 64, 78
1, 190762, Note_off_c, 0, 56, 49
1, 190765, Note_on_c, 0, 59, 48
1, 190769, Control_c, 0, 64, 80
1, 190784, Control_c, 0, 64, 82
1, 190798, Control_c, 0, 64, 84
1, 190813, Control_c, 0, 64, 86
1, 190828, Control_c, 0, 64, 87
1, 190843, Control_c, 0, 64, 87
1, 190852, Note_off_c, 0, 59, 52
1, 190858, Control_c, 0, 64, 88
1, 190869, Note_off_c, 0, 68, 57
1, 190875, Note_on_c, 0, 63, 46
1, 190887, Control_c, 0, 64, 88
1, 190901, Note_off_c, 0, 32, 41
1, 190947, Note_off_c, 0, 44, 42
1, 190992, Control_c, 0, 64, 88
1, 191000, Note_on_c, 0, 59, 40
1, 191066, Control_c, 0, 64, 87
1, 191081, Control_c, 0, 64, 87
1, 191096, Control_c, 0, 64, 86
1, 191104, Note_on_c, 0, 56, 50
1, 191111, Note_off_c, 0, 59, 32
1, 191111, Control_c, 0, 64, 86
1, 191133, Control_c, 0, 64, 85
1, 191148, Control_c, 0, 64, 85
1, 191162, Control_c, 0, 64, 84
1, 191177, Note_off_c, 0, 56, 49
1, 191177, Control_c, 0, 64, 83
1, 191192, Control_c, 0, 64, 83
1, 191207, Control_c, 0, 64, 82
1, 191222, Control_c, 0, 64, 80
1, 191236, Control_c, 0, 64, 79
1, 191251, Control_c, 0, 64, 78
1, 191262, Note_off_c, 0, 63, 29
1, 191266, Control_c, 0, 64, 76
1, 191281, Control_c, 0, 64, 75
1, 191288, Note_on_c, 0, 66, 61
1, 191296, Control_c, 0, 64, 73
1, 191311, Control_c, 0, 64, 70
1, 191320, Note_on_c, 0, 37, 32
1, 191322, Note_on_c, 0, 49, 35
1, 191326, Control_c, 0, 64, 68
1, 191340, Control_c, 0, 64, 65
1, 191355, Control_c, 0, 64, 60
1, 191370, Control_c, 0, 64, 51
1, 191385, Control_c, 0, 64, 38
1, 191399, Control_c, 0, 64, 26
1, 191415, Control_c, 0, 64, 27
1, 191430, Control_c, 0, 64, 31
1, 191433, Note_on_c, 0, 56, 41
1, 191445, Control_c, 0, 64, 37
1, 191460, Control_c, 0, 64, 46
1, 191474, Control_c, 0, 64, 55
1, 191489, Control_c, 0, 64, 62
1, 191504, Control_c, 0, 64, 64
1, 191519, Control_c, 0, 64, 66
1, 191534, Control_c, 0, 64, 68
1, 191548, Note_on_c, 0, 59, 43
1, 191548, Control_c, 0, 64, 70
1, 191563, Control_c, 0, 64, 72
1, 191578, Control_c, 0, 64, 75
1, 191592, Control_c, 0, 64, 76
1, 191594, Note_off_c, 0, 56, 33
1, 191607, Control_c, 0, 64, 77
1, 191622, Control_c, 0, 64, 77
1, 191637, Control_c, 0, 64, 78
1, 191652, Control_c, 0, 64, 80
1, 191665, Note_on_c, 0, 65, 59
1, 191667, Control_c, 0, 64, 81
1, 191681, Control_c, 0, 64, 81
1, 191696, Control_c, 0, 64, 82
1, 191722, Note_off_c, 0, 66, 28
1, 191757, Control_c, 0, 64, 82
1, 191773, Note_on_c, 0, 56, 46
1, 191776, Note_off_c, 0, 59, 36
1, 191904, Note_on_c, 0, 59, 47
1, 191933, Note_off_c, 0, 56, 31
1, 192034, Note_on_c, 0, 63, 64
1, 192069, Note_off_c, 0, 59, 37
1, 192139, Note_off_c, 0, 65, 27
1, 192163, Note_on_c, 0, 56, 45
1, 192164, Control_c, 0, 64, 82
1, 192223, Control_c, 0, 64, 81
1, 192297, Control_c, 0, 64, 81
1, 192304, Note_on_c, 0, 59, 28
1, 192312, Note_off_c, 0, 56, 41
1, 192371, Control_c, 0, 64, 80
1, 192399, Note_on_c, 0, 65, 60
1, 192452, Note_off_c, 0, 59, 34
1, 192496, Note_off_c, 0, 63, 34
1, 192529, Note_on_c, 0, 56, 41
1, 192534, Control_c, 0, 64, 80
1, 192600, Note_off_c, 0, 49, 40
1, 192609, Control_c, 0, 64, 79
1, 192661, Control_c, 0, 64, 79
1, 192664, Note_on_c, 0, 59, 42
1, 192678, Note_off_c, 0, 56, 33
1, 192721, Control_c, 0, 64, 78
1, 192765, Control_c, 0, 64, 78
1, 192795, Control_c, 0, 64, 77
1, 192809, Control_c, 0, 64, 77
1, 192824, Control_c, 0, 64, 76
1, 192839, Control_c, 0, 64, 76
1, 192868, Control_c, 0, 64, 75
1, 192882, Note_off_c, 0, 59, 31
1, 192883, Control_c, 0, 64, 74
1, 192888, Note_on_c, 0, 68, 60
1, 192898, Control_c, 0, 64, 73
1, 192905, Note_on_c, 0, 49, 40
1, 192913, Control_c, 0, 64, 72
1, 192916, Note_on_c, 0, 42, 31
1, 192927, Control_c, 0, 64, 70
1, 192942, Control_c, 0, 64, 67
1, 192957, Control_c, 0, 64, 64
1, 192972, Control_c, 0, 64, 61
1, 192987, Control_c, 0, 64, 58
1, 193009, Note_off_c, 0, 37, 41
1, 193016, Note_off_c, 0, 65, 25
1, 193016, Control_c, 0, 64, 56
1, 193031, Control_c, 0, 64, 50
1, 193046, Control_c, 0, 64, 25
1, 193060, Control_c, 0, 64, 0
1, 193154, Note_on_c, 0, 59, 37
1, 193253, Control_c, 0, 64, 34
1, 193268, Control_c, 0, 64, 57
1, 193278, Note_on_c, 0, 61, 39
1, 193283, Control_c, 0, 64, 63
1, 193298, Control_c, 0, 64, 66
1, 193306, Note_off_c, 0, 59, 39
1, 193313, Control_c, 0, 64, 69
1, 193327, Control_c, 0, 64, 72
1, 193343, Control_c, 0, 64, 76
1, 193358, Control_c, 0, 64, 79
1, 193373, Note_off_c, 0, 61, 53
1, 193380, Control_c, 0, 64, 81
1, 193395, Control_c, 0, 64, 82
1, 193410, Control_c, 0, 64, 84
1, 193418, Note_on_c, 0, 65, 30
1, 193424, Control_c, 0, 64, 85
1, 193439, Control_c, 0, 64, 86
1, 193454, Control_c, 0, 64, 87
1, 193469, Control_c, 0, 64, 87
1, 193478, Note_off_c, 0, 65, 45
1, 193484, Control_c, 0, 64, 88
1, 193519, Note_on_c, 0, 61, 38
1, 193528, Control_c, 0, 64, 88
1, 193573, Note_off_c, 0, 61, 45
1, 193627, Note_on_c, 0, 59, 31
1, 193680, Note_off_c, 0, 59, 41
1, 193726, Note_on_c, 0, 61, 38
1, 193806, Note_off_c, 0, 61, 56
1, 193842, Note_on_c, 0, 59, 28
1, 193942, Note_on_c, 0, 61, 41
1, 193973, Note_off_c, 0, 59, 24
1, 194034, Note_off_c, 0, 61, 46
1, 194044, Note_off_c, 0, 68, 42
1, 194077, Note_on_c, 0, 65, 38
1, 194144, Control_c, 0, 64, 88
1, 194178, Note_off_c, 0, 65, 38
1, 194184, Note_on_c, 0, 61, 43
1, 194203, Control_c, 0, 64, 87
1, 194217, Control_c, 0, 64, 87
1, 194223, Note_off_c, 0, 61, 50
1, 194247, Control_c, 0, 64, 86
1, 194262, Control_c, 0, 64, 86
1, 194277, Control_c, 0, 64, 85
1, 194306, Control_c, 0, 64, 84
1, 194307, Note_on_c, 0, 59, 38
1, 194321, Control_c, 0, 64, 84
1, 194336, Control_c, 0, 64, 83
1, 194351, Control_c, 0, 64, 83
1, 194366, Control_c, 0, 64, 82
1, 194381, Note_off_c, 0, 59, 37
1, 194396, Control_c, 0, 64, 82
1, 194411, Control_c, 0, 64, 81
1, 194425, Control_c, 0, 64, 81
1, 194440, Control_c, 0, 64, 80
1, 194455, Control_c, 0, 64, 79
1, 194470, Control_c, 0, 64, 79
1, 194478, Note_on_c, 0, 66, 51
1, 194485, Control_c, 0, 64, 78
1, 194499, Control_c, 0, 64, 78
1, 194514, Control_c, 0, 64, 77
1, 194529, Control_c, 0, 64, 75
1, 194544, Control_c, 0, 64, 73
1, 194559, Control_c, 0, 64, 70
1, 194573, Control_c, 0, 64, 67
1, 194588, Control_c, 0, 64, 63
1, 194603, Control_c, 0, 64, 54
1, 194617, Control_c, 0, 64, 39
1, 194632, Control_c, 0, 64, 20
1, 194647, Control_c, 0, 64, 16
1, 194649, Note_on_c, 0, 54, 31
1, 194662, Control_c, 0, 64, 22
1, 194677, Control_c, 0, 64, 30
1, 194691, Control_c, 0, 64, 41
1, 194706, Control_c, 0, 64, 51
1, 194721, Control_c, 0, 64, 58
1, 194736, Control_c, 0, 64, 63
1, 194747, Note_on_c, 0, 58, 33
1, 194751, Control_c, 0, 64, 65
1, 194766, Control_c, 0, 64, 68
1, 194769, Note_off_c, 0, 54, 33
1, 194780, Control_c, 0, 64, 71
1, 194795, Control_c, 0, 64, 75
1, 194810, Control_c, 0, 64, 78
1, 194825, Control_c, 0, 64, 81
1, 194840, Control_c, 0, 64, 83
1, 194854, Note_off_c, 0, 58, 37
1, 194855, Control_c, 0, 64, 84
1, 194877, Control_c, 0, 64, 86
1, 194892, Control_c, 0, 64, 86
1, 194895, Note_on_c, 0, 61, 24
1, 194906, Control_c, 0, 64, 87
1, 194921, Control_c, 0, 64, 88
1, 194950, Note_off_c, 0, 61, 43
1, 194952, Control_c, 0, 64, 88
1, 195004, Note_on_c, 0, 58, 33
1, 195011, Control_c, 0, 64, 89
1, 195051, Note_off_c, 0, 58, 46
1, 195105, Note_on_c, 0, 54, 29
1, 195157, Note_off_c, 0, 54, 43
1, 195210, Note_on_c, 0, 58, 33
1, 195292, Note_off_c, 0, 58, 34
1, 195308, Control_c, 0, 67, 127
1, 195322, Control_c, 0, 67, 126
1, 195338, Note_on_c, 0, 54, 30
1, 195352, Control_c, 0, 67, 126
1, 195367, Control_c, 0, 67, 125
1, 195436, Note_on_c, 0, 58, 39
1, 195500, Control_c, 0, 67, 126
1, 195514, Note_off_c, 0, 66, 41
1, 195514, Control_c, 0, 67, 126
1, 195517, Note_off_c, 0, 58, 34
1, 195542, Note_off_c, 0, 42, 36
1, 195558, Note_on_c, 0, 61, 35
1, 195559, Note_off_c, 0, 54, 36
1, 195609, Note_off_c, 0, 49, 38
1, 195630, Note_off_c, 0, 61, 41
1, 195676, Note_on_c, 0, 58, 35
1, 195715, Control_c, 0, 64, 88
1, 195783, Note_off_c, 0, 58, 37
1, 195790, Control_c, 0, 64, 88
1, 195828, Note_on_c, 0, 54, 27
1, 195849, Control_c, 0, 64, 87
1, 195882, Note_off_c, 0, 54, 40
1, 195908, Control_c, 0, 64, 87
1, 195952, Control_c, 0, 64, 86
1, 195952, Control_c, 0, 67, 126
1, 195982, Control_c, 0, 64, 86
1, 196012, Control_c, 0, 64, 85
1, 196016, Note_on_c, 0, 68, 54
1, 196026, Control_c, 0, 64, 85
1, 196041, Control_c, 0, 64, 84
1, 196047, Note_on_c, 0, 53, 37
1, 196053, Note_on_c, 0, 49, 36
1, 196056, Control_c, 0, 64, 83
1, 196071, Control_c, 0, 64, 82
1, 196086, Control_c, 0, 64, 80
1, 196101, Control_c, 0, 64, 79
1, 196116, Control_c, 0, 64, 77
1, 196131, Control_c, 0, 64, 75
1, 196145, Control_c, 0, 64, 73
1, 196160, Control_c, 0, 64, 71
1, 196175, Control_c, 0, 64, 67
1, 196189, Control_c, 0, 64, 63
1, 196204, Control_c, 0, 64, 55
1, 196219, Control_c, 0, 64, 47
1, 196234, Control_c, 0, 64, 39
1, 196244, Note_on_c, 0, 56, 34
1, 196249, Control_c, 0, 64, 29
1, 196249, Control_c, 0, 67, 125
1, 196263, Control_c, 0, 64, 16
1, 196278, Control_c, 0, 64, 0
1, 196308, Control_c, 0, 64, 27
1, 196323, Control_c, 0, 64, 42
1, 196337, Control_c, 0, 64, 53
1, 196337, Control_c, 0, 67, 125
1, 196352, Control_c, 0, 64, 60
1, 196356, Note_on_c, 0, 61, 32
1, 196375, Control_c, 0, 64, 63
1, 196375, Control_c, 0, 67, 124
1, 196389, Control_c, 0, 64, 64
1, 196404, Control_c, 0, 64, 66
1, 196419, Control_c, 0, 64, 68
1, 196419, Control_c, 0, 67, 124
1, 196434, Control_c, 0, 64, 71
1, 196434, Control_c, 0, 67, 123
1, 196438, Note_off_c, 0, 61, 56
1, 196449, Control_c, 0, 64, 74
1, 196464, Control_c, 0, 64, 77
1, 196464, Control_c, 0, 67, 123
1, 196476, Note_on_c, 0, 65, 41
1, 196478, Control_c, 0, 64, 79
1, 196478, Control_c, 0, 67, 120
1, 196479, Note_off_c, 0, 56, 32
1, 196493, Control_c, 0, 64, 81
1, 196493, Control_c, 0, 67, 118
1, 196508, Control_c, 0, 64, 83
1, 196508, Control_c, 0, 67, 116
1, 196523, Control_c, 0, 64, 85
1, 196523, Control_c, 0, 67, 116
1, 196538, Control_c, 0, 64, 87
1, 196554, Control_c, 0, 64, 89
1, 196566, Note_off_c, 0, 65, 51
1, 196568, Note_on_c, 0, 61, 49
1, 196568, Control_c, 0, 64, 91
1, 196583, Control_c, 0, 64, 92
1, 196598, Control_c, 0, 64, 93
1, 196613, Control_c, 0, 67, 115
1, 196627, Control_c, 0, 64, 93
1, 196646, Note_off_c, 0, 61, 56
1, 196680, Note_on_c, 0, 56, 46
1, 196701, Control_c, 0, 67, 115
1, 196716, Control_c, 0, 64, 94
1, 196731, Control_c, 0, 64, 94
1, 196738, Note_off_c, 0, 56, 49
1, 196746, Control_c, 0, 64, 96
1, 196761, Control_c, 0, 64, 97
1, 196761, Control_c, 0, 67, 114
1, 196775, Control_c, 0, 64, 98
1, 196780, Note_on_c, 0, 61, 53
1, 196790, Control_c, 0, 64, 99
1, 196790, Control_c, 0, 67, 114
1, 196805, Control_c, 0, 67, 111
1, 196819, Control_c, 0, 67, 108
1, 196834, Control_c, 0, 67, 106
1, 196849, Control_c, 0, 64, 100
1, 196866, Note_off_c, 0, 61, 60
1, 196879, Control_c, 0, 64, 100
1, 196879, Control_c, 0, 67, 106
1, 196882, Note_on_c, 0, 56, 55
1, 196894, Control_c, 0, 64, 101
1, 196939, Control_c, 0, 64, 101
1, 196990, Note_on_c, 0, 61, 60
1, 197012, Control_c, 0, 67, 105
1, 197064, Note_off_c, 0, 61, 59
1, 197078, Note_off_c, 0, 56, 24
1, 197079, Note_on_c, 0, 65, 63
1, 197086, Control_c, 0, 67, 106
1, 197094, Note_off_c, 0, 68, 42
1, 197101, Control_c, 0, 67, 105
1, 197168, Control_c, 0, 67, 106
1, 197174, Note_off_c, 0, 53, 42
1, 197180, Note_off_c, 0, 65, 62
1, 197200, Note_on_c, 0, 61, 60
1, 197252, Note_off_c, 0, 61, 50
1, 197257, Control_c, 0, 64, 101
1, 197272, Control_c, 0, 67, 106
1, 197301, Control_c, 0, 64, 100
1, 197308, Note_on_c, 0, 56, 66
1, 197316, Control_c, 0, 64, 100
1, 197331, Control_c, 0, 64, 99
1, 197347, Control_c, 0, 64, 99
1, 197347, Note_off_c, 0, 56, 58
1, 197362, Control_c, 0, 64, 98
1, 197377, Control_c, 0, 64, 97
1, 197391, Control_c, 0, 64, 96
1, 197406, Control_c, 0, 64, 95
1, 197421, Control_c, 0, 64, 94
1, 197421, Control_c, 0, 67, 106
1, 197433, Note_on_c, 0, 70, 76
1, 197436, Control_c, 0, 64, 92
1, 197445, Note_off_c, 0, 49, 33
1, 197450, Control_c, 0, 64, 90
1, 197465, Control_c, 0, 64, 87
1, 197466, Note_on_c, 0, 55, 49
1, 197478, Note_on_c, 0, 46, 46
1, 197480, Control_c, 0, 64, 84
1, 197481, Note_on_c, 0, 52, 46
1, 197495, Control_c, 0, 64, 81
1, 197510, Control_c, 0, 64, 76
1, 197524, Control_c, 0, 64, 70
1, 197539, Control_c, 0, 64, 62
1, 197554, Control_c, 0, 64, 0
1, 197584, Control_c, 0, 67, 105
1, 197608, Note_on_c, 0, 61, 49
1, 197613, Control_c, 0, 64, 44
1, 197613, Control_c, 0, 67, 105
1, 197628, Control_c, 0, 64, 55
1, 197642, Control_c, 0, 64, 61
1, 197657, Control_c, 0, 64, 65
1, 197672, Control_c, 0, 64, 68
1, 197672, Control_c, 0, 67, 104
1, 197687, Control_c, 0, 64, 72
1, 197702, Control_c, 0, 64, 76
1, 197702, Control_c, 0, 67, 102
1, 197717, Control_c, 0, 64, 77
1, 197717, Control_c, 0, 67, 98
1, 197732, Control_c, 0, 64, 78
1, 197732, Control_c, 0, 67, 96
1, 197732, Note_on_c, 0, 64, 58
1, 197746, Control_c, 0, 64, 78
1, 197746, Control_c, 0, 67, 95
1, 197761, Control_c, 0, 64, 79
1, 197839, Note_off_c, 0, 64, 61
1, 197848, Note_on_c, 0, 67, 59
1, 197892, Note_off_c, 0, 61, 22
1, 197931, Control_c, 0, 67, 96
1, 197946, Control_c, 0, 67, 96
1, 197959, Note_on_c, 0, 64, 64
1, 198050, Control_c, 0, 67, 97
1, 198054, Note_off_c, 0, 64, 63
1, 198065, Control_c, 0, 64, 78
1, 198071, Note_on_c, 0, 61, 60
1, 198080, Control_c, 0, 64, 78
1, 198080, Control_c, 0, 67, 97
1, 198109, Control_c, 0, 64, 77
1, 198124, Control_c, 0, 64, 76
1, 198140, Control_c, 0, 64, 75
1, 198155, Control_c, 0, 64, 74
1, 198167, Note_on_c, 0, 63, 68
1, 198168, Note_off_c, 0, 61, 58
1, 198170, Control_c, 0, 64, 74
1, 198176, Note_on_c, 0, 51, 63
1, 198185, Control_c, 0, 67, 98
1, 198191, Note_off_c, 0, 52, 66
1, 198200, Control_c, 0, 67, 97
1, 198211, Note_off_c, 0, 67, 41
1, 198214, Control_c, 0, 64, 73
1, 198229, Control_c, 0, 64, 73
1, 198244, Control_c, 0, 64, 72
1, 198259, Control_c, 0, 64, 70
1, 198269, Note_off_c, 0, 63, 64
1, 198276, Note_on_c, 0, 61, 66
1, 198289, Control_c, 0, 64, 71
1, 198304, Control_c, 0, 64, 71
1, 198319, Control_c, 0, 64, 72
1, 198334, Control_c, 0, 64, 73
1, 198348, Control_c, 0, 64, 73
1, 198363, Control_c, 0, 64, 74
1, 198378, Note_on_c, 0, 63, 67
1, 198407, Control_c, 0, 67, 97
1, 198437, Control_c, 0, 64, 74
1, 198466, Control_c, 0, 64, 75
1, 198481, Control_c, 0, 67, 97
1, 198483, Note_on_c, 0, 67, 69
1, 198496, Control_c, 0, 67, 98
1, 198499, Note_off_c, 0, 61, 55
1, 198499, Note_off_c, 0, 63, 62
1, 198501, Note_off_c, 0, 70, 48
1, 198526, Control_c, 0, 67, 98
1, 198535, Note_off_c, 0, 51, 60
1, 198540, Control_c, 0, 67, 99
1, 198570, Control_c, 0, 67, 99
1, 198584, Control_c, 0, 67, 100
1, 198599, Control_c, 0, 67, 100
1, 198613, Note_on_c, 0, 63, 75
1, 198615, Note_off_c, 0, 46, 40
1, 198666, Control_c, 0, 67, 100
1, 198688, Note_off_c, 0, 55, 40
1, 198711, Control_c, 0, 64, 74
1, 198726, Note_on_c, 0, 61, 73
1, 198735, Note_off_c, 0, 63, 60
1, 198755, Control_c, 0, 64, 74
1, 198755, Control_c, 0, 67, 99
1, 198770, Control_c, 0, 67, 99
1, 198785, Control_c, 0, 64, 73
1, 198814, Control_c, 0, 64, 73
1, 198859, Control_c, 0, 64, 72
1, 198859, Control_c, 0, 67, 98
1, 198888, Control_c, 0, 64, 72
1, 198903, Control_c, 0, 64, 71
1, 198903, Control_c, 0, 67, 98
1, 198918, Control_c, 0, 64, 70
1, 198925, Note_on_c, 0, 73, 81
1, 198933, Control_c, 0, 64, 68
1, 198943, Note_off_c, 0, 61, 59
1, 198948, Note_on_c, 0, 55, 43
1, 198948, Control_c, 0, 64, 65
1, 198948, Control_c, 0, 67, 97
1, 198956, Note_off_c, 0, 67, 54
1, 198963, Control_c, 0, 64, 62
1, 198971, Note_on_c, 0, 44, 40
1, 198971, Note_on_c, 0, 51, 35
1, 198978, Control_c, 0, 64, 55
1, 198992, Control_c, 0, 64, 34
1, 198992, Control_c, 0, 67, 97
1, 199007, Control_c, 0, 64, 0
1, 199007, Control_c, 0, 67, 96
1, 199052, Control_c, 0, 67, 96
1, 199111, Control_c, 0, 67, 96
1, 199157, Note_on_c, 0, 61, 53
1, 199185, Control_c, 0, 67, 97
1, 199200, Control_c, 0, 67, 97
1, 199214, Control_c, 0, 64, 60
1, 199229, Control_c, 0, 64, 66
1, 199244, Control_c, 0, 64, 68
1, 199259, Control_c, 0, 64, 72
1, 199274, Control_c, 0, 64, 75
1, 199274, Control_c, 0, 67, 98
1, 199283, Note_on_c, 0, 63, 52
1, 199288, Control_c, 0, 64, 79
1, 199303, Control_c, 0, 64, 81
1, 199303, Control_c, 0, 67, 98
1, 199318, Control_c, 0, 64, 83
1, 199318, Control_c, 0, 67, 99
1, 199333, Control_c, 0, 64, 84
1, 199333, Control_c, 0, 67, 99
1, 199348, Control_c, 0, 64, 85
1, 199348, Control_c, 0, 67, 100
1, 199370, Control_c, 0, 64, 85
1, 199370, Control_c, 0, 67, 101
1, 199385, Control_c, 0, 64, 86
1, 199385, Control_c, 0, 67, 102
1, 199400, Control_c, 0, 64, 86
1, 199400, Control_c, 0, 67, 102
1, 199414, Control_c, 0, 67, 103
1, 199425, Note_off_c, 0, 63, 60
1, 199429, Control_c, 0, 67, 104
1, 199437, Note_on_c, 0, 68, 54
1, 199437, Note_off_c, 0, 61, 42
1, 199444, Control_c, 0, 67, 105
1, 199459, Control_c, 0, 67, 106
1, 199474, Control_c, 0, 67, 106
1, 199488, Control_c, 0, 67, 107
1, 199503, Control_c, 0, 67, 108
1, 199518, Control_c, 0, 67, 110
1, 199533, Control_c, 0, 67, 112
1, 199548, Control_c, 0, 67, 115
1, 199554, Note_on_c, 0, 63, 54
1, 199562, Control_c, 0, 67, 120
1, 199577, Control_c, 0, 67, 124
1, 199592, Control_c, 0, 67, 127
1, 199625, Note_off_c, 0, 68, 34
1, 199632, Note_off_c, 0, 63, 49
1, 199660, Note_on_c, 0, 61, 50
1, 199714, Note_off_c, 0, 61, 50
1, 199769, Note_on_c, 0, 63, 50
1, 199824, Note_off_c, 0, 55, 62
1, 199860, Note_off_c, 0, 63, 44
1, 199871, Note_off_c, 0, 73, 32
1, 199872, Note_on_c, 0, 61, 47
1, 199919, Control_c, 0, 64, 86
1, 199964, Control_c, 0, 64, 85
1, 199976, Note_off_c, 0, 61, 53
1, 199979, Control_c, 0, 64, 85
1, 199987, Note_on_c, 0, 63, 46
1, 200009, Control_c, 0, 64, 84
1, 200024, Control_c, 0, 64, 84
1, 200053, Control_c, 0, 64, 83
1, 200083, Control_c, 0, 64, 83
1, 200089, Note_on_c, 0, 71, 62
1, 200120, Note_on_c, 0, 68, 49
1, 200121, Note_off_c, 0, 63, 45
1, 200125, Note_on_c, 0, 56, 42
1, 200149, Control_c, 0, 64, 82
1, 200181, Note_off_c, 0, 68, 0
1, 200181, Note_on_c, 0, 68, 8
1, 200225, Note_on_c, 0, 63, 55
1, 200253, Note_off_c, 0, 51, 43
1, 200280, Note_off_c, 0, 56, 43
1, 200299, Note_off_c, 0, 71, 30
1, 200340, Note_off_c, 0, 44, 40
1, 200351, Note_on_c, 0, 59, 50
1, 200352, Note_off_c, 0, 68, 42
1, 200371, Control_c, 0, 64, 82
1, 200392, Note_off_c, 0, 63, 32
1, 200400, Control_c, 0, 64, 81
1, 200415, Control_c, 0, 64, 81
1, 200430, Control_c, 0, 64, 80
1, 200444, Control_c, 0, 64, 79
1, 200459, Control_c, 0, 64, 79
1, 200474, Control_c, 0, 64, 78
1, 200489, Control_c, 0, 64, 77
1, 200504, Control_c, 0, 64, 76
1, 200519, Control_c, 0, 64, 76
1, 200532, Note_on_c, 0, 71, 65
1, 200534, Control_c, 0, 64, 74
1, 200545, Note_off_c, 0, 59, 35
1, 200549, Control_c, 0, 64, 72
1, 200555, Note_on_c, 0, 56, 44
1, 200564, Control_c, 0, 64, 69
1, 200573, Note_on_c, 0, 51, 32
1, 200578, Note_on_c, 0, 44, 34
1, 200579, Control_c, 0, 64, 66
1, 200594, Control_c, 0, 64, 65
1, 200623, Control_c, 0, 64, 64
1, 200638, Control_c, 0, 64, 64
1, 200653, Control_c, 0, 64, 62
1, 200668, Control_c, 0, 64, 56
1, 200683, Control_c, 0, 64, 31
1, 200695, Note_on_c, 0, 59, 43
1, 200698, Control_c, 0, 64, 0
1, 200802, Note_on_c, 0, 63, 46
1, 200882, Control_c, 0, 64, 54
1, 200897, Control_c, 0, 64, 66
1, 200907, Note_off_c, 0, 63, 61
1, 200912, Control_c, 0, 64, 70
1, 200914, Note_off_c, 0, 59, 31
1, 200916, Note_on_c, 0, 68, 50
1, 200927, Control_c, 0, 64, 73
1, 200942, Control_c, 0, 64, 76
1, 200957, Control_c, 0, 64, 78
1, 200972, Control_c, 0, 64, 79
1, 200986, Control_c, 0, 64, 80
1, 201001, Control_c, 0, 64, 82
1, 201001, Control_c, 0, 67, 127
1, 201016, Control_c, 0, 64, 83
1, 201016, Control_c, 0, 67, 126
1, 201026, Note_on_c, 0, 63, 60
1, 201031, Control_c, 0, 64, 84
1, 201040, Note_off_c, 0, 68, 36
1, 201046, Control_c, 0, 64, 85
1, 201046, Control_c, 0, 67, 126
1, 201060, Control_c, 0, 64, 86
1, 201060, Control_c, 0, 67, 125
1, 201075, Control_c, 0, 64, 87
1, 201090, Control_c, 0, 64, 88
1, 201090, Control_c, 0, 67, 124
1, 201102, Note_off_c, 0, 63, 60
1, 201105, Control_c, 0, 64, 88
1, 201115, Note_on_c, 0, 59, 58
1, 201120, Control_c, 0, 67, 124
1, 201134, Control_c, 0, 64, 89
1, 201134, Control_c, 0, 67, 123
1, 201164, Control_c, 0, 67, 123
1, 201179, Control_c, 0, 64, 89
1, 201193, Control_c, 0, 67, 123
1, 201208, Note_off_c, 0, 56, 60
1, 201208, Control_c, 0, 64, 90
1, 201222, Note_on_c, 0, 63, 69
1, 201238, Control_c, 0, 64, 90
1, 201253, Control_c, 0, 64, 91
1, 201261, Note_off_c, 0, 59, 36
1, 201267, Control_c, 0, 64, 92
1, 201282, Control_c, 0, 64, 93
1, 201282, Control_c, 0, 67, 124
1, 201297, Control_c, 0, 64, 93
1, 201312, Control_c, 0, 64, 94
1, 201321, Note_off_c, 0, 63, 63
1, 201326, Control_c, 0, 64, 95
1, 201341, Note_on_c, 0, 59, 57
1, 201343, Control_c, 0, 64, 96
1, 201343, Control_c, 0, 67, 124
1, 201357, Control_c, 0, 64, 97
1, 201372, Control_c, 0, 64, 98
1, 201385, Note_off_c, 0, 51, 40
1, 201387, Control_c, 0, 64, 99
1, 201402, Control_c, 0, 64, 100
1, 201416, Control_c, 0, 64, 100
1, 201436, Note_off_c, 0, 44, 52
1, 201437, Note_on_c, 0, 63, 74
1, 201446, Control_c, 0, 64, 101
1, 201461, Control_c, 0, 67, 124
1, 201476, Control_c, 0, 67, 123
1, 201497, Note_off_c, 0, 71, 48
1, 201535, Control_c, 0, 67, 123
1, 201547, Note_on_c, 0, 68, 69
1, 201565, Note_off_c, 0, 63, 63
1, 201576, Note_off_c, 0, 59, 58
1, 201607, Note_on_c, 0, 42, 66
1, 201676, Note_on_c, 0, 63, 73
1, 201676, Control_c, 0, 64, 100
1, 201676, Control_c, 0, 67, 122
1, 201690, Control_c, 0, 67, 122
1, 201705, Control_c, 0, 64, 100
1, 201720, Control_c, 0, 64, 99
1, 201720, Control_c, 0, 67, 121
1, 201735, Control_c, 0, 64, 99
1, 201735, Control_c, 0, 67, 120
1, 201750, Control_c, 0, 64, 98
1, 201750, Control_c, 0, 67, 119
1, 201763, Note_on_c, 0, 59, 74
1, 201765, Control_c, 0, 64, 98
1, 201765, Control_c, 0, 67, 118
1, 201779, Note_off_c, 0, 63, 61
1, 201780, Control_c, 0, 67, 118
1, 201794, Control_c, 0, 64, 97
1, 201794, Control_c, 0, 67, 117
1, 201809, Control_c, 0, 64, 97
1, 201809, Control_c, 0, 67, 116
1, 201824, Control_c, 0, 64, 96
1, 201824, Control_c, 0, 67, 115
1, 201833, Note_off_c, 0, 42, 58
1, 201839, Control_c, 0, 64, 95
1, 201839, Control_c, 0, 67, 114
1, 201854, Control_c, 0, 64, 95
1, 201854, Control_c, 0, 67, 113
1, 201869, Control_c, 0, 64, 94
1, 201869, Control_c, 0, 67, 112
1, 201883, Control_c, 0, 64, 94
1, 201883, Control_c, 0, 67, 110
1, 201898, Control_c, 0, 64, 93
1, 201898, Control_c, 0, 67, 108
1, 201913, Control_c, 0, 64, 92
1, 201913, Control_c, 0, 67, 107
1, 201927, Control_c, 0, 64, 91
1, 201927, Control_c, 0, 67, 107
1, 201941, Note_on_c, 0, 71, 85
1, 201942, Control_c, 0, 64, 89
1, 201942, Control_c, 0, 67, 106
1, 201957, Control_c, 0, 64, 87
1, 201957, Control_c, 0, 67, 106
1, 201961, Note_on_c, 0, 40, 71
1, 201970, Note_off_c, 0, 59, 52
1, 201972, Control_c, 0, 64, 84
1, 201972, Control_c, 0, 67, 105
1, 201987, Control_c, 0, 64, 81
1, 201987, Control_c, 0, 67, 104
1, 202002, Control_c, 0, 64, 78
1, 202016, Control_c, 0, 64, 73
1, 202016, Control_c, 0, 67, 104
1, 202024, Note_off_c, 0, 68, 52
1, 202031, Control_c, 0, 64, 67
1, 202046, Control_c, 0, 64, 53
1, 202061, Control_c, 0, 64, 0
1, 202090, Control_c, 0, 67, 103
1, 202171, Note_on_c, 0, 59, 54
1, 202180, Control_c, 0, 67, 103
1, 202210, Control_c, 0, 64, 46
1, 202210, Control_c, 0, 67, 102
1, 202225, Control_c, 0, 64, 64
1, 202239, Control_c, 0, 64, 68
1, 202239, Control_c, 0, 67, 102
1, 202254, Control_c, 0, 64, 71
1, 202254, Control_c, 0, 67, 101
1, 202269, Control_c, 0, 64, 74
1, 202269, Control_c, 0, 67, 100
1, 202277, Note_on_c, 0, 64, 59
1, 202284, Control_c, 0, 64, 78
1, 202284, Control_c, 0, 67, 98
1, 202299, Control_c, 0, 64, 82
1, 202299, Control_c, 0, 67, 97
1, 202313, Control_c, 0, 64, 85
1, 202328, Control_c, 0, 64, 88
1, 202328, Control_c, 0, 67, 96
1, 202343, Control_c, 0, 64, 90
1, 202366, Control_c, 0, 64, 92
1, 202366, Control_c, 0, 67, 96
1, 202379, Note_on_c, 0, 68, 67
1, 202381, Control_c, 0, 64, 93
1, 202381, Control_c, 0, 67, 95
1, 202388, Note_off_c, 0, 64, 61
1, 202395, Control_c, 0, 64, 95
1, 202395, Control_c, 0, 67, 94
1, 202396, Note_off_c, 0, 59, 55
1, 202410, Control_c, 0, 64, 98
1, 202425, Control_c, 0, 64, 100
1, 202439, Control_c, 0, 64, 102
1, 202454, Control_c, 0, 64, 103
1, 202484, Control_c, 0, 64, 103
1, 202500, Note_on_c, 0, 64, 65
1, 202558, Control_c, 0, 64, 104
1, 202579, Note_off_c, 0, 64, 61
1, 202584, Note_on_c, 0, 59, 59
1, 202602, Control_c, 0, 67, 94
1, 202632, Control_c, 0, 67, 93
1, 202647, Control_c, 0, 67, 93
1, 202662, Control_c, 0, 64, 104
1, 202662, Control_c, 0, 67, 91
1, 202677, Control_c, 0, 67, 87
1, 202689, Note_off_c, 0, 59, 57
1, 202692, Control_c, 0, 64, 105
1, 202692, Control_c, 0, 67, 82
1, 202695, Note_on_c, 0, 64, 67
1, 202700, Note_off_c, 0, 68, 56
1, 202706, Control_c, 0, 67, 75
1, 202721, Control_c, 0, 64, 105
1, 202721, Control_c, 0, 67, 67
1, 202736, Control_c, 0, 64, 106
1, 202736, Control_c, 0, 67, 57
1, 202750, Control_c, 0, 64, 106
1, 202750, Control_c, 0, 67, 46
1, 202765, Control_c, 0, 64, 107
1, 202765, Control_c, 0, 67, 35
1, 202780, Control_c, 0, 64, 107
1, 202780, Control_c, 0, 67, 25
1, 202788, Note_off_c, 0, 64, 63
1, 202795, Control_c, 0, 64, 108
1, 202795, Control_c, 0, 67, 14
1, 202799, Note_on_c, 0, 59, 66
1, 202810, Control_c, 0, 67, 0
1, 202903, Note_on_c, 0, 64, 66
1, 203001, Note_on_c, 0, 68, 73
1, 203003, Control_c, 0, 64, 107
1, 203017, Note_off_c, 0, 71, 52
1, 203021, Note_off_c, 0, 64, 56
1, 203033, Control_c, 0, 64, 107
1, 203038, Note_off_c, 0, 59, 53
1, 203048, Control_c, 0, 64, 106
1, 203062, Control_c, 0, 64, 105
1, 203077, Control_c, 0, 64, 105
1, 203077, Control_c, 0, 67, 8
1, 203092, Control_c, 0, 64, 104
1, 203092, Control_c, 0, 67, 16
1, 203115, Control_c, 0, 64, 103
1, 203115, Control_c, 0, 67, 31
1, 203124, Note_on_c, 0, 64, 71
1, 203130, Control_c, 0, 64, 103
1, 203130, Control_c, 0, 67, 53
1, 203144, Control_c, 0, 64, 102
1, 203144, Control_c, 0, 67, 70
1, 203159, Control_c, 0, 64, 102
1, 203159, Control_c, 0, 67, 77
1, 203174, Control_c, 0, 64, 101
1, 203174, Control_c, 0, 67, 79
1, 203188, Control_c, 0, 64, 101
1, 203188, Control_c, 0, 67, 80
1, 203203, Control_c, 0, 64, 100
1, 203203, Control_c, 0, 67, 83
1, 203216, Note_on_c, 0, 59, 75
1, 203218, Control_c, 0, 64, 100
1, 203218, Control_c, 0, 67, 86
1, 203230, Note_off_c, 0, 64, 60
1, 203233, Control_c, 0, 64, 99
1, 203233, Control_c, 0, 67, 90
1, 203248, Control_c, 0, 64, 98
1, 203248, Control_c, 0, 67, 93
1, 203262, Control_c, 0, 64, 97
1, 203262, Control_c, 0, 67, 94
1, 203277, Control_c, 0, 64, 96
1, 203292, Control_c, 0, 64, 96
1, 203307, Control_c, 0, 64, 95
1, 203322, Control_c, 0, 64, 94
1, 203322, Control_c, 0, 67, 94
1, 203329, Note_off_c, 0, 59, 53
1, 203334, Note_on_c, 0, 71, 90
1, 203336, Control_c, 0, 64, 92
1, 203336, Control_c, 0, 67, 93
1, 203351, Control_c, 0, 64, 89
1, 203351, Control_c, 0, 67, 92
1, 203355, Note_on_c, 0, 39, 66
1, 203366, Control_c, 0, 64, 84
1, 203366, Control_c, 0, 67, 92
1, 203380, Control_c, 0, 64, 77
1, 203395, Control_c, 0, 64, 68
1, 203395, Control_c, 0, 67, 91
1, 203410, Control_c, 0, 64, 22
1, 203410, Control_c, 0, 67, 90
1, 203425, Control_c, 0, 64, 0
1, 203425, Control_c, 0, 67, 90
1, 203437, Note_off_c, 0, 40, 41
1, 203439, Note_off_c, 0, 68, 33
1, 203440, Control_c, 0, 67, 89
1, 203455, Control_c, 0, 67, 88
1, 203466, Note_on_c, 0, 59, 62
1, 203470, Control_c, 0, 67, 87
1, 203500, Control_c, 0, 67, 86
1, 203514, Control_c, 0, 67, 85
1, 203529, Control_c, 0, 64, 62
1, 203529, Control_c, 0, 67, 85
1, 203544, Control_c, 0, 64, 69
1, 203544, Control_c, 0, 67, 84
1, 203559, Control_c, 0, 64, 73
1, 203559, Control_c, 0, 67, 83
1, 203568, Note_on_c, 0, 63, 73
1, 203573, Control_c, 0, 64, 77
1, 203573, Control_c, 0, 67, 81
1, 203588, Control_c, 0, 64, 81
1, 203588, Control_c, 0, 67, 78
1, 203603, Control_c, 0, 64, 83
1, 203603, Control_c, 0, 67, 75
1, 203618, Control_c, 0, 64, 84
1, 203618, Control_c, 0, 67, 73
1, 203633, Control_c, 0, 64, 85
1, 203633, Control_c, 0, 67, 73
1, 203645, Note_off_c, 0, 59, 50
1, 203648, Control_c, 0, 64, 86
1, 203648, Control_c, 0, 67, 72
1, 203665, Note_on_c, 0, 66, 79
1, 203675, Note_off_c, 0, 63, 60
1, 203677, Control_c, 0, 67, 72
1, 203723, Control_c, 0, 67, 73
1, 203738, Control_c, 0, 67, 73
1, 203752, Control_c, 0, 67, 74
1, 203765, Note_off_c, 0, 71, 58
1, 203771, Note_on_c, 0, 63, 74
1, 203782, Control_c, 0, 67, 74
1, 203811, Note_off_c, 0, 66, 60
1, 203841, Control_c, 0, 67, 74
1, 203863, Control_c, 0, 67, 73
1, 203866, Note_on_c, 0, 59, 74
1, 203867, Note_off_c, 0, 63, 62
1, 203878, Control_c, 0, 64, 85
1, 203891, Note_off_c, 0, 59, 61
1, 203893, Control_c, 0, 64, 85
1, 203908, Control_c, 0, 64, 84
1, 203908, Control_c, 0, 67, 73
1, 203923, Control_c, 0, 64, 83
1, 203938, Control_c, 0, 64, 82
1, 203953, Control_c, 0, 64, 81
1, 203967, Control_c, 0, 64, 80
1, 203967, Control_c, 0, 67, 72
1, 203982, Control_c, 0, 64, 78
1, 203997, Note_on_c, 0, 73, 93
1, 203997, Control_c, 0, 64, 74
1, 204011, Control_c, 0, 64, 68
1, 204011, Control_c, 0, 67, 72
1, 204024, Note_on_c, 0, 37, 62
1, 204025, Note_off_c, 0, 39, 55
1, 204026, Control_c, 0, 64, 51
1, 204041, Control_c, 0, 64, 0
1, 204041, Control_c, 0, 67, 71
1, 204085, Control_c, 0, 67, 71
1, 204130, Control_c, 0, 64, 53
1, 204130, Control_c, 0, 67, 70
1, 204133, Note_off_c, 0, 37, 66
1, 204138, Note_on_c, 0, 39, 66
1, 204143, Note_on_c, 0, 64, 59
1, 204145, Control_c, 0, 64, 65
1, 204159, Control_c, 0, 64, 69
1, 204159, Control_c, 0, 67, 69
1, 204174, Control_c, 0, 64, 74
1, 204174, Control_c, 0, 67, 68
1, 204189, Control_c, 0, 64, 78
1, 204189, Control_c, 0, 67, 66
1, 204203, Note_off_c, 0, 39, 61
1, 204203, Control_c, 0, 64, 81
1, 204203, Control_c, 0, 67, 66
1, 204206, Note_on_c, 0, 37, 64
1, 204218, Control_c, 0, 64, 82
1, 204218, Control_c, 0, 67, 65
1, 204227, Note_on_c, 0, 66, 72
1, 204233, Control_c, 0, 64, 83
1, 204248, Control_c, 0, 64, 83
1, 204262, Note_off_c, 0, 37, 64
1, 204266, Note_on_c, 0, 39, 64
1, 204292, Control_c, 0, 67, 65
1, 204322, Control_c, 0, 67, 65
1, 204323, Note_off_c, 0, 39, 60
1, 204324, Note_on_c, 0, 37, 67
1, 204330, Note_on_c, 0, 70, 71
1, 204345, Note_off_c, 0, 64, 52
1, 204348, Note_off_c, 0, 66, 65
1, 204374, Note_off_c, 0, 37, 63
1, 204391, Note_on_c, 0, 39, 59
1, 204397, Control_c, 0, 67, 66
1, 204411, Control_c, 0, 67, 66
1, 204422, Note_on_c, 0, 66, 71
1, 204427, Note_off_c, 0, 39, 63
1, 204440, Note_on_c, 0, 37, 70
1, 204468, Note_off_c, 0, 70, 55
1, 204471, Control_c, 0, 64, 83
1, 204485, Control_c, 0, 64, 82
1, 204485, Control_c, 0, 67, 67
1, 204492, Note_off_c, 0, 37, 65
1, 204501, Note_on_c, 0, 39, 73
1, 204515, Control_c, 0, 67, 67
1, 204516, Note_on_c, 0, 64, 70
1, 204518, Note_off_c, 0, 66, 64
1, 204531, Control_c, 0, 64, 82
1, 204531, Control_c, 0, 67, 67
1, 204561, Control_c, 0, 67, 66
1, 204564, Note_off_c, 0, 39, 62
1, 204565, Note_on_c, 0, 37, 71
1, 204575, Control_c, 0, 64, 81
1, 204590, Control_c, 0, 64, 81
1, 204590, Control_c, 0, 67, 65
1, 204612, Control_c, 0, 64, 80
1, 204626, Control_c, 0, 64, 80
1, 204635, Note_off_c, 0, 37, 63
1, 204636, Note_on_c, 0, 35, 75
1, 204641, Control_c, 0, 64, 79
1, 204656, Control_c, 0, 64, 79
1, 204671, Control_c, 0, 64, 78
1, 204671, Control_c, 0, 67, 65
1, 204686, Control_c, 0, 64, 78
1, 204701, Control_c, 0, 64, 77
1, 204716, Control_c, 0, 64, 76
1, 204718, Note_on_c, 0, 37, 73
1, 204720, Note_off_c, 0, 35, 63
1, 204731, Control_c, 0, 64, 76
1, 204731, Control_c, 0, 67, 64
1, 204760, Control_c, 0, 64, 75
1, 204775, Control_c, 0, 67, 64
1, 204790, Control_c, 0, 64, 74
1, 204805, Control_c, 0, 64, 74
1, 204805, Control_c, 0, 67, 63
1, 204820, Control_c, 0, 64, 73
1, 204820, Control_c, 0, 67, 63
1, 204834, Control_c, 0, 64, 72
1, 204834, Control_c, 0, 67, 62
1, 204849, Control_c, 0, 64, 71
1, 204849, Control_c, 0, 67, 60
1, 204864, Control_c, 0, 64, 71
1, 204864, Control_c, 0, 67, 58
1, 204879, Control_c, 0, 64, 70
1, 204879, Control_c, 0, 67, 57
1, 204895, Control_c, 0, 64, 68
1, 204895, Control_c, 0, 67, 57
1, 204901, Note_on_c, 0, 76, 88
1, 204909, Control_c, 0, 64, 67
1, 204909, Control_c, 0, 67, 56
1, 204911, Note_off_c, 0, 37, 63
1, 204912, Note_on_c, 0, 35, 65
1, 204924, Control_c, 0, 64, 65
1, 204924, Control_c, 0, 67, 56
1, 204939, Control_c, 0, 64, 62
1, 204948, Note_off_c, 0, 73, 55
1, 204953, Control_c, 0, 64, 53
1, 204953, Control_c, 0, 67, 55
1, 204958, Note_off_c, 0, 64, 43
1, 204968, Control_c, 0, 64, 32
1, 204983, Control_c, 0, 64, 0
1, 204983, Control_c, 0, 67, 55
1, 205057, Control_c, 0, 67, 55
1, 205072, Control_c, 0, 67, 56
1, 205101, Control_c, 0, 67, 56
1, 205116, Control_c, 0, 67, 57
1, 205157, Note_on_c, 0, 64, 66
1, 205175, Control_c, 0, 64, 55
1, 205190, Control_c, 0, 64, 63
1, 205205, Control_c, 0, 64, 65
1, 205220, Control_c, 0, 64, 67
1, 205234, Control_c, 0, 64, 69
1, 205234, Control_c, 0, 67, 56
1, 205249, Control_c, 0, 64, 71
1, 205249, Control_c, 0, 67, 56
1, 205264, Control_c, 0, 64, 75
1, 205279, Control_c, 0, 64, 79
1, 205294, Control_c, 0, 64, 81
1, 205298, Note_on_c, 0, 66, 63
1, 205309, Control_c, 0, 64, 83
1, 205324, Control_c, 0, 64, 84
1, 205339, Control_c, 0, 64, 85
1, 205362, Control_c, 0, 64, 87
1, 205376, Control_c, 0, 64, 88
1, 205376, Control_c, 0, 67, 56
1, 205391, Control_c, 0, 64, 89
1, 205406, Control_c, 0, 64, 90
1, 205406, Control_c, 0, 67, 57
1, 205421, Control_c, 0, 64, 90
1, 205436, Control_c, 0, 64, 91
1, 205450, Control_c, 0, 67, 57
1, 205457, Note_on_c, 0, 73, 67
1, 205465, Control_c, 0, 64, 91
1, 205465, Control_c, 0, 67, 58
1, 205472, Note_off_c, 0, 66, 59
1, 205480, Control_c, 0, 67, 58
1, 205495, Control_c, 0, 67, 59
1, 205504, Note_off_c, 0, 64, 55
1, 205510, Control_c, 0, 67, 60
1, 205524, Control_c, 0, 67, 61
1, 205539, Control_c, 0, 67, 62
1, 205554, Control_c, 0, 67, 63
1, 205569, Control_c, 0, 67, 64
1, 205583, Control_c, 0, 67, 65
1, 205593, Note_on_c, 0, 66, 53
1, 205598, Control_c, 0, 67, 67
1, 205613, Control_c, 0, 67, 69
1, 205628, Control_c, 0, 67, 74
1, 205635, Note_off_c, 0, 66, 44
1, 205643, Control_c, 0, 67, 80
1, 205657, Control_c, 0, 67, 86
1, 205672, Control_c, 0, 67, 90
1, 205687, Control_c, 0, 67, 94
1, 205694, Note_on_c, 0, 64, 25
1, 205702, Control_c, 0, 67, 97
1, 205717, Control_c, 0, 67, 100
1, 205731, Control_c, 0, 67, 104
1, 205746, Control_c, 0, 67, 108
1, 205761, Control_c, 0, 67, 110
1, 205773, Note_off_c, 0, 64, 60
1, 205775, Control_c, 0, 67, 111
1, 205779, Note_on_c, 0, 66, 59
1, 205790, Control_c, 0, 67, 112
1, 205820, Control_c, 0, 67, 112
1, 205835, Control_c, 0, 67, 113
1, 205875, Note_off_c, 0, 66, 62
1, 205904, Note_on_c, 0, 64, 57
1, 205944, Note_off_c, 0, 76, 60
1, 205953, Control_c, 0, 64, 91
1, 205965, Note_off_c, 0, 73, 50
1, 206020, Note_on_c, 0, 66, 40
1, 206085, Note_off_c, 0, 64, 50
1, 206124, Control_c, 0, 64, 90
1, 206126, Note_on_c, 0, 75, 79
1, 206150, Note_on_c, 0, 71, 47
1, 206153, Note_off_c, 0, 66, 48
1, 206169, Control_c, 0, 64, 90
1, 206199, Control_c, 0, 64, 89
1, 206213, Control_c, 0, 64, 89
1, 206228, Control_c, 0, 64, 88
1, 206228, Control_c, 0, 67, 113
1, 206262, Note_on_c, 0, 66, 58
1, 206272, Control_c, 0, 64, 88
1, 206272, Control_c, 0, 67, 114
1, 206300, Note_off_c, 0, 71, 33
1, 206302, Control_c, 0, 64, 87
1, 206302, Control_c, 0, 67, 115
1, 206317, Control_c, 0, 64, 87
1, 206317, Control_c, 0, 67, 117
1, 206332, Control_c, 0, 64, 86
1, 206332, Control_c, 0, 67, 122
1, 206346, Control_c, 0, 64, 86
1, 206346, Control_c, 0, 67, 125
1, 206361, Control_c, 0, 64, 85
1, 206361, Control_c, 0, 67, 127
1, 206367, Note_off_c, 0, 75, 57
1, 206376, Control_c, 0, 64, 85
1, 206381, Note_on_c, 0, 63, 56
1, 206391, Control_c, 0, 64, 84
1, 206406, Control_c, 0, 64, 84
1, 206421, Control_c, 0, 64, 83
1, 206436, Control_c, 0, 64, 83
1, 206451, Control_c, 0, 64, 82
1, 206466, Control_c, 0, 64, 82
1, 206495, Control_c, 0, 64, 81
1, 206510, Control_c, 0, 64, 81
1, 206539, Control_c, 0, 64, 80
1, 206561, Note_off_c, 0, 63, 50
1, 206567, Note_on_c, 0, 75, 72
1, 206569, Control_c, 0, 64, 79
1, 206584, Control_c, 0, 64, 78
1, 206598, Control_c, 0, 64, 74
1, 206613, Control_c, 0, 64, 68
1, 206628, Control_c, 0, 64, 60
1, 206643, Control_c, 0, 64, 0
1, 206714, Note_off_c, 0, 66, 44
1, 206729, Note_on_c, 0, 63, 41
1, 206823, Note_on_c, 0, 66, 51
1, 206835, Control_c, 0, 64, 58
1, 206858, Control_c, 0, 64, 65
1, 206873, Control_c, 0, 64, 67
1, 206887, Control_c, 0, 64, 70
1, 206902, Control_c, 0, 64, 73
1, 206917, Control_c, 0, 64, 76
1, 206920, Note_off_c, 0, 63, 34
1, 206933, Control_c, 0, 64, 79
1, 206943, Note_off_c, 0, 66, 59
1, 206948, Control_c, 0, 64, 81
1, 206963, Control_c, 0, 64, 83
1, 206973, Note_on_c, 0, 71, 38
1, 206977, Control_c, 0, 64, 84
1, 206992, Control_c, 0, 64, 85
1, 207007, Control_c, 0, 64, 87
1, 207022, Control_c, 0, 64, 87
1, 207066, Control_c, 0, 64, 88
1, 207067, Note_off_c, 0, 71, 52
1, 207077, Note_on_c, 0, 66, 53
1, 207156, Note_off_c, 0, 66, 56
1, 207205, Note_on_c, 0, 63, 34
1, 207294, Note_off_c, 0, 63, 37
1, 207309, Note_on_c, 0, 66, 43
1, 207402, Note_off_c, 0, 66, 56
1, 207421, Control_c, 0, 64, 87
1, 207455, Note_on_c, 0, 63, 22
1, 207537, Note_off_c, 0, 35, 40
1, 207548, Note_on_c, 0, 66, 42
1, 207636, Control_c, 0, 64, 87
1, 207680, Note_off_c, 0, 66, 43
1, 207684, Note_off_c, 0, 63, 38
1, 207694, Note_on_c, 0, 71, 36
1, 207724, Note_off_c, 0, 75, 26
1, 207807, Note_on_c, 0, 66, 41
1, 207830, Control_c, 0, 64, 86
1, 207874, Control_c, 0, 64, 86
1, 207905, Control_c, 0, 64, 85
1, 207948, Note_off_c, 0, 66, 41
1, 207949, Control_c, 0, 64, 85
1, 207972, Note_on_c, 0, 63, 23
1, 207978, Control_c, 0, 64, 84
1, 208038, Control_c, 0, 64, 84
1, 208097, Control_c, 0, 64, 83
1, 208126, Control_c, 0, 64, 83
1, 208141, Control_c, 0, 64, 82
1, 208156, Note_off_c, 0, 63, 32
1, 208156, Control_c, 0, 64, 82
1, 208171, Control_c, 0, 64, 81
1, 208174, Note_on_c, 0, 75, 60
1, 208186, Control_c, 0, 64, 80
1, 208200, Control_c, 0, 64, 79
1, 208201, Note_on_c, 0, 54, 36
1, 208215, Control_c, 0, 64, 78
1, 208226, Note_on_c, 0, 47, 35
1, 208230, Control_c, 0, 64, 76
1, 208245, Control_c, 0, 64, 74
1, 208260, Control_c, 0, 64, 71
1, 208275, Control_c, 0, 64, 66
1, 208281, Note_off_c, 0, 71, 2
1, 208290, Control_c, 0, 64, 60
1, 208305, Control_c, 0, 64, 28
1, 208319, Control_c, 0, 64, 0
1, 208394, Note_on_c, 0, 63, 32
1, 208415, Control_c, 0, 64, 44
1, 208430, Control_c, 0, 64, 57
1, 208445, Control_c, 0, 64, 63
1, 208460, Control_c, 0, 64, 65
1, 208475, Control_c, 0, 64, 68
1, 208490, Control_c, 0, 64, 71
1, 208504, Control_c, 0, 64, 74
1, 208519, Control_c, 0, 64, 78
1, 208526, Note_on_c, 0, 66, 34
1, 208535, Control_c, 0, 64, 80
1, 208549, Control_c, 0, 64, 82
1, 208564, Control_c, 0, 64, 84
1, 208579, Control_c, 0, 64, 86
1, 208590, Note_off_c, 0, 63, 29
1, 208594, Control_c, 0, 64, 88
1, 208609, Control_c, 0, 64, 89
1, 208624, Control_c, 0, 64, 90
1, 208633, Note_off_c, 0, 66, 39
1, 208639, Control_c, 0, 64, 91
1, 208643, Note_on_c, 0, 71, 37
1, 208698, Control_c, 0, 64, 91
1, 208746, Note_off_c, 0, 71, 30
1, 208752, Note_on_c, 0, 66, 45
1, 208787, Control_c, 0, 67, 123
1, 208801, Control_c, 0, 67, 117
1, 208803, Note_off_c, 0, 66, 51
1, 208816, Control_c, 0, 67, 112
1, 208831, Control_c, 0, 67, 107
1, 208846, Note_on_c, 0, 63, 37
1, 208846, Control_c, 0, 67, 103
1, 208861, Control_c, 0, 67, 101
1, 208875, Control_c, 0, 67, 100
1, 208890, Control_c, 0, 67, 100
1, 208914, Note_off_c, 0, 63, 42
1, 208949, Control_c, 0, 67, 100
1, 208953, Note_on_c, 0, 66, 40
1, 208964, Control_c, 0, 67, 101
1, 208979, Control_c, 0, 67, 101
1, 208993, Control_c, 0, 67, 102
1, 209008, Control_c, 0, 67, 103
1, 209023, Control_c, 0, 67, 104
1, 209038, Note_off_c, 0, 66, 61
1, 209038, Control_c, 0, 67, 105
1, 209053, Control_c, 0, 67, 106
1, 209062, Note_on_c, 0, 63, 45
1, 209068, Control_c, 0, 67, 107
1, 209083, Control_c, 0, 67, 108
1, 209105, Control_c, 0, 67, 109
1, 209120, Control_c, 0, 67, 112
1, 209134, Control_c, 0, 67, 115
1, 209149, Control_c, 0, 67, 120
1, 209164, Control_c, 0, 67, 126
1, 209179, Control_c, 0, 67, 127
1, 209185, Note_on_c, 0, 66, 49
1, 209231, Note_off_c, 0, 63, 23
1, 209253, Control_c, 0, 64, 91
1, 209292, Note_off_c, 0, 66, 42
1, 209321, Note_on_c, 0, 71, 28
1, 209328, Control_c, 0, 64, 90
1, 209351, Note_off_c, 0, 75, 28
1, 209358, Control_c, 0, 64, 90
1, 209387, Control_c, 0, 64, 89
1, 209390, Note_off_c, 0, 47, 42
1, 209390, Note_off_c, 0, 71, 37
1, 209417, Control_c, 0, 64, 89
1, 209428, Note_on_c, 0, 66, 28
1, 209446, Control_c, 0, 64, 88
1, 209464, Note_off_c, 0, 66, 50
1, 209476, Control_c, 0, 64, 88
1, 209505, Control_c, 0, 64, 87
1, 209510, Note_on_c, 0, 63, 37
1, 209535, Control_c, 0, 64, 87
1, 209549, Control_c, 0, 64, 86
1, 209564, Control_c, 0, 64, 86
1, 209579, Control_c, 0, 64, 85
1, 209594, Control_c, 0, 64, 85
1, 209609, Control_c, 0, 64, 84
1, 209623, Note_off_c, 0, 63, 41
1, 209623, Control_c, 0, 64, 83
1, 209638, Control_c, 0, 64, 81
1, 209652, Note_on_c, 0, 75, 55
1, 209653, Control_c, 0, 64, 80
1, 209666, Note_on_c, 0, 47, 34
1, 209668, Control_c, 0, 64, 77
1, 209669, Note_on_c, 0, 56, 35
1, 209683, Control_c, 0, 64, 75
1, 209697, Control_c, 0, 64, 71
1, 209712, Control_c, 0, 64, 66
1, 209727, Control_c, 0, 64, 59
1, 209742, Control_c, 0, 64, 50
1, 209756, Control_c, 0, 64, 54
1, 209771, Control_c, 0, 64, 57
1, 209774, Note_on_c, 0, 68, 39
1, 209786, Control_c, 0, 64, 60
1, 209801, Control_c, 0, 64, 62
1, 209816, Control_c, 0, 64, 65
1, 209831, Control_c, 0, 64, 67
1, 209853, Control_c, 0, 64, 71
1, 209868, Control_c, 0, 64, 76
1, 209883, Control_c, 0, 64, 80
1, 209897, Control_c, 0, 64, 83
1, 209898, Note_off_c, 0, 68, 31
1, 209906, Note_on_c, 0, 65, 47
1, 209912, Control_c, 0, 64, 85
1, 209918, Note_off_c, 0, 54, 0
1, 209927, Control_c, 0, 64, 86
1, 209942, Control_c, 0, 64, 88
1, 209955, Poly_aftertouch_c, 0, 54, 127
1, 209956, Control_c, 0, 64, 89
1, 209971, Control_c, 0, 64, 90
1, 209986, Control_c, 0, 64, 91
1, 210001, Control_c, 0, 64, 91
1, 210007, Note_off_c, 0, 75, 52
1, 210016, Control_c, 0, 64, 92
1, 210031, Note_on_c, 0, 71, 63
1, 210038, Poly_aftertouch_c, 0, 54, 0
1, 210048, Note_off_c, 0, 65, 45
1, 210149, Note_on_c, 0, 68, 47
1, 210195, Note_off_c, 0, 68, 53
1, 210210, Note_off_c, 0, 71, 0
1, 210236, Note_on_c, 0, 71, 12
1, 210239, Note_on_c, 0, 65, 58
1, 210326, Note_off_c, 0, 65, 60
1, 210366, Note_on_c, 0, 70, 64
1, 210380, Note_off_c, 0, 71, 44
1, 210407, Note_on_c, 0, 53, 35
1, 210480, Note_off_c, 0, 56, 37
1, 210514, Note_on_c, 0, 65, 39
1, 210630, Note_on_c, 0, 61, 45
1, 210646, Note_off_c, 0, 65, 43
1, 210691, Control_c, 0, 64, 91
1, 210720, Control_c, 0, 64, 91
1, 210730, Note_on_c, 0, 68, 64
1, 210740, Note_off_c, 0, 61, 47
1, 210750, Control_c, 0, 64, 90
1, 210794, Control_c, 0, 64, 90
1, 210824, Control_c, 0, 64, 89
1, 210839, Control_c, 0, 64, 89
1, 210868, Control_c, 0, 64, 88
1, 210871, Note_off_c, 0, 70, 26
1, 210877, Note_on_c, 0, 65, 39
1, 210884, Control_c, 0, 64, 88
1, 210895, Note_off_c, 0, 47, 43
1, 210913, Control_c, 0, 64, 87
1, 210930, Control_c, 0, 64, 87
1, 210974, Control_c, 0, 64, 86
1, 210984, Note_on_c, 0, 61, 45
1, 210988, Control_c, 0, 64, 86
1, 210991, Note_off_c, 0, 65, 42
1, 211003, Control_c, 0, 64, 85
1, 211033, Control_c, 0, 64, 84
1, 211048, Control_c, 0, 64, 83
1, 211062, Control_c, 0, 64, 83
1, 211074, Note_off_c, 0, 61, 47
1, 211077, Control_c, 0, 64, 82
1, 211107, Control_c, 0, 64, 82
1, 211122, Control_c, 0, 64, 81
1, 211137, Control_c, 0, 64, 80
1, 211152, Control_c, 0, 64, 80
1, 211166, Control_c, 0, 64, 79
1, 211175, Note_on_c, 0, 73, 63
1, 211196, Control_c, 0, 64, 79
1, 211211, Control_c, 0, 64, 78
1, 211219, Note_on_c, 0, 46, 38
1, 211223, Note_on_c, 0, 54, 35
1, 211226, Control_c, 0, 64, 77
1, 211241, Control_c, 0, 64, 75
1, 211245, Note_off_c, 0, 53, 32
1, 211256, Control_c, 0, 64, 71
1, 211270, Control_c, 0, 64, 66
1, 211285, Control_c, 0, 64, 56
1, 211289, Note_off_c, 0, 68, 36
1, 211300, Control_c, 0, 64, 25
1, 211314, Control_c, 0, 64, 0
1, 211376, Note_on_c, 0, 61, 35
1, 211441, Control_c, 0, 64, 46
1, 211456, Control_c, 0, 64, 59
1, 211470, Control_c, 0, 64, 63
1, 211482, Note_on_c, 0, 66, 40
1, 211485, Control_c, 0, 64, 66
1, 211500, Control_c, 0, 64, 69
1, 211515, Control_c, 0, 64, 73
1, 211529, Control_c, 0, 64, 76
1, 211544, Control_c, 0, 64, 79
1, 211559, Control_c, 0, 64, 81
1, 211574, Control_c, 0, 64, 82
1, 211582, Note_off_c, 0, 66, 49
1, 211589, Control_c, 0, 64, 84
1, 211590, Note_off_c, 0, 61, 28
1, 211594, Note_on_c, 0, 70, 41
1, 211603, Control_c, 0, 64, 85
1, 211618, Control_c, 0, 64, 86
1, 211633, Control_c, 0, 64, 87
1, 211648, Control_c, 0, 64, 87
1, 211727, Note_on_c, 0, 66, 37
1, 211763, Note_off_c, 0, 66, 49
1, 211819, Note_on_c, 0, 61, 40
1, 211882, Note_off_c, 0, 61, 46
1, 211909, Note_off_c, 0, 70, 16
1, 211926, Note_on_c, 0, 66, 34
1, 212015, Note_off_c, 0, 66, 39
1, 212023, Note_on_c, 0, 61, 37
1, 212107, Note_off_c, 0, 61, 35
1, 212143, Note_on_c, 0, 66, 44
1, 212189, Control_c, 0, 64, 87
1, 212221, Note_off_c, 0, 66, 42
1, 212240, Note_on_c, 0, 70, 47
1, 212245, Note_off_c, 0, 73, 34
1, 212249, Control_c, 0, 64, 86
1, 212290, Note_off_c, 0, 46, 35
1, 212293, Control_c, 0, 64, 86
1, 212324, Note_off_c, 0, 70, 46
1, 212338, Control_c, 0, 64, 85
1, 212347, Note_on_c, 0, 66, 48
1, 212367, Control_c, 0, 64, 85
1, 212395, Control_c, 0, 64, 84
1, 212424, Control_c, 0, 64, 84
1, 212439, Control_c, 0, 64, 83
1, 212454, Control_c, 0, 64, 83
1, 212457, Note_off_c, 0, 66, 38
1, 212464, Note_on_c, 0, 61, 37
1, 212469, Control_c, 0, 64, 82
1, 212484, Control_c, 0, 64, 82
1, 212514, Control_c, 0, 64, 81
1, 212529, Control_c, 0, 64, 81
1, 212544, Control_c, 0, 64, 80
1, 212559, Control_c, 0, 64, 80
1, 212573, Control_c, 0, 64, 79
1, 212582, Note_on_c, 0, 73, 62
1, 212588, Control_c, 0, 64, 79
1, 212591, Note_off_c, 0, 61, 25
1, 212603, Control_c, 0, 64, 78
1, 212618, Control_c, 0, 64, 78
1, 212620, Note_on_c, 0, 55, 38
1, 212633, Control_c, 0, 64, 76
1, 212642, Note_on_c, 0, 47, 33
1, 212648, Control_c, 0, 64, 74
1, 212663, Control_c, 0, 64, 72
1, 212678, Control_c, 0, 64, 68
1, 212693, Control_c, 0, 64, 63
1, 212708, Control_c, 0, 64, 51
1, 212722, Note_off_c, 0, 54, 18
1, 212722, Control_c, 0, 64, 0
1, 212732, Note_on_c, 0, 67, 43
1, 212766, Control_c, 0, 64, 31
1, 212781, Control_c, 0, 64, 46
1, 212796, Control_c, 0, 64, 57
1, 212806, Note_off_c, 0, 67, 49
1, 212811, Control_c, 0, 64, 63
1, 212826, Control_c, 0, 64, 66
1, 212842, Note_on_c, 0, 63, 46
1, 212848, Control_c, 0, 64, 69
1, 212863, Control_c, 0, 64, 72
1, 212877, Control_c, 0, 64, 74
1, 212892, Control_c, 0, 64, 77
1, 212907, Control_c, 0, 64, 78
1, 212922, Control_c, 0, 64, 79
1, 212937, Control_c, 0, 64, 80
1, 212949, Note_on_c, 0, 71, 63
1, 212952, Control_c, 0, 64, 80
1, 212960, Note_off_c, 0, 73, 53
1, 212964, Note_off_c, 0, 63, 37
1, 213053, Note_on_c, 0, 68, 53
1, 213104, Note_off_c, 0, 68, 51
1, 213131, Note_off_c, 0, 71, 0
1, 213144, Control_c, 0, 64, 80
1, 213158, Note_on_c, 0, 63, 57
1, 213159, Control_c, 0, 64, 79
1, 213167, Poly_aftertouch_c, 0, 71, 127
1, 213173, Control_c, 0, 64, 79
1, 213203, Control_c, 0, 64, 78
1, 213218, Control_c, 0, 64, 77
1, 213230, Note_off_c, 0, 63, 57
1, 213233, Control_c, 0, 64, 76
1, 213247, Control_c, 0, 64, 75
1, 213262, Control_c, 0, 64, 72
1, 213273, Note_on_c, 0, 68, 66
1, 213277, Poly_aftertouch_c, 0, 71, 0
1, 213277, Control_c, 0, 64, 69
1, 213292, Control_c, 0, 64, 64
1, 213298, Note_on_c, 0, 56, 48
1, 213307, Control_c, 0, 64, 58
1, 213314, Note_off_c, 0, 55, 41
1, 213323, Control_c, 0, 64, 50
1, 213337, Control_c, 0, 64, 53
1, 213352, Control_c, 0, 64, 58
1, 213367, Control_c, 0, 64, 62
1, 213382, Control_c, 0, 64, 64
1, 213396, Control_c, 0, 64, 67
1, 213407, Note_on_c, 0, 63, 48
1, 213411, Control_c, 0, 64, 70
1, 213426, Control_c, 0, 64, 73
1, 213441, Note_off_c, 0, 63, 56
1, 213441, Control_c, 0, 64, 76
1, 213456, Control_c, 0, 64, 79
1, 213471, Control_c, 0, 64, 80
1, 213486, Control_c, 0, 64, 81
1, 213495, Note_on_c, 0, 59, 59
1, 213501, Control_c, 0, 64, 82
1, 213515, Control_c, 0, 64, 83
1, 213536, Note_off_c, 0, 59, 52
1, 213563, Note_off_c, 0, 56, 53
1, 213626, Note_on_c, 0, 63, 63
1, 213647, Note_off_c, 0, 68, 41
1, 213746, Note_on_c, 0, 59, 56
1, 213818, Note_off_c, 0, 47, 43
1, 213819, Control_c, 0, 64, 82
1, 213849, Control_c, 0, 64, 82
1, 213863, Control_c, 0, 64, 81
1, 213882, Note_on_c, 0, 56, 47
1, 213893, Control_c, 0, 64, 81
1, 213907, Control_c, 0, 64, 80
1, 213912, Note_off_c, 0, 59, 28
1, 213922, Control_c, 0, 64, 80
1, 213937, Control_c, 0, 64, 79
1, 213952, Control_c, 0, 64, 79
1, 213967, Control_c, 0, 64, 78
1, 213974, Note_off_c, 0, 56, 35
1, 213981, Control_c, 0, 64, 78
1, 213996, Control_c, 0, 64, 77
1, 214011, Control_c, 0, 64, 77
1, 214026, Control_c, 0, 64, 76
1, 214041, Control_c, 0, 64, 74
1, 214056, Control_c, 0, 64, 73
1, 214057, Note_on_c, 0, 66, 66
1, 214070, Control_c, 0, 64, 71
1, 214081, Note_off_c, 0, 63, 25
1, 214085, Control_c, 0, 64, 70
1, 214091, Note_on_c, 0, 49, 38
1, 214100, Control_c, 0, 64, 68
1, 214116, Control_c, 0, 64, 66
1, 214131, Control_c, 0, 64, 64
1, 214145, Control_c, 0, 64, 61
1, 214160, Control_c, 0, 64, 51
1, 214175, Control_c, 0, 64, 0
1, 214280, Note_on_c, 0, 54, 41
1, 214323, Control_c, 0, 64, 41
1, 214345, Control_c, 0, 64, 61
1, 214360, Control_c, 0, 64, 65
1, 214375, Control_c, 0, 64, 67
1, 214390, Control_c, 0, 64, 68
1, 214405, Control_c, 0, 64, 70
1, 214405, Control_c, 0, 67, 123
1, 214409, Note_on_c, 0, 58, 37
1, 214419, Control_c, 0, 64, 72
1, 214419, Control_c, 0, 67, 116
1, 214434, Control_c, 0, 64, 76
1, 214434, Control_c, 0, 67, 108
1, 214449, Control_c, 0, 64, 80
1, 214449, Control_c, 0, 67, 101
1, 214451, Note_off_c, 0, 54, 31
1, 214464, Control_c, 0, 64, 83
1, 214464, Control_c, 0, 67, 98
1, 214475, Note_off_c, 0, 58, 56
1, 214479, Control_c, 0, 64, 85
1, 214479, Control_c, 0, 67, 96
1, 214493, Control_c, 0, 64, 87
1, 214493, Control_c, 0, 67, 95
1, 214508, Control_c, 0, 64, 89
1, 214508, Control_c, 0, 67, 94
1, 214510, Note_on_c, 0, 61, 42
1, 214523, Control_c, 0, 64, 90
1, 214523, Control_c, 0, 67, 93
1, 214538, Control_c, 0, 64, 92
1, 214538, Control_c, 0, 67, 92
1, 214553, Control_c, 0, 64, 94
1, 214553, Control_c, 0, 67, 91
1, 214568, Control_c, 0, 64, 95
1, 214583, Control_c, 0, 64, 97
1, 214597, Control_c, 0, 64, 98
1, 214600, Note_off_c, 0, 61, 47
1, 214606, Note_on_c, 0, 58, 50
1, 214612, Control_c, 0, 64, 99
1, 214627, Control_c, 0, 64, 100
1, 214642, Control_c, 0, 64, 102
1, 214657, Control_c, 0, 64, 103
1, 214657, Control_c, 0, 67, 90
1, 214672, Control_c, 0, 64, 104
1, 214687, Control_c, 0, 64, 106
1, 214687, Control_c, 0, 67, 90
1, 214699, Note_off_c, 0, 58, 58
1, 214702, Control_c, 0, 64, 108
1, 214702, Control_c, 0, 67, 89
1, 214717, Control_c, 0, 64, 110
1, 214717, Control_c, 0, 67, 87
1, 214729, Note_on_c, 0, 54, 41
1, 214731, Control_c, 0, 64, 112
1, 214731, Control_c, 0, 67, 85
1, 214746, Control_c, 0, 64, 114
1, 214746, Control_c, 0, 67, 83
1, 214761, Control_c, 0, 64, 117
1, 214761, Control_c, 0, 67, 82
1, 214776, Control_c, 0, 64, 119
1, 214776, Control_c, 0, 67, 81
1, 214791, Control_c, 0, 64, 122
1, 214791, Control_c, 0, 67, 81
1, 214799, Note_off_c, 0, 54, 55
1, 214805, Control_c, 0, 64, 127
1, 214805, Control_c, 0, 67, 80
1, 214820, Control_c, 0, 64, 127
1, 214820, Control_c, 0, 67, 79
1, 214833, Note_on_c, 0, 58, 57
1, 214850, Control_c, 0, 67, 78
1, 214894, Control_c, 0, 67, 79
1, 214913, Note_off_c, 0, 58, 62
1, 214925, Control_c, 0, 67, 80
1, 214928, Note_on_c, 0, 54, 55
1, 214940, Control_c, 0, 67, 80
1, 214954, Control_c, 0, 67, 81
1, 214969, Control_c, 0, 67, 82
1, 214984, Control_c, 0, 67, 83
1, 214999, Control_c, 0, 67, 84
1, 215014, Control_c, 0, 67, 86
1, 215029, Control_c, 0, 67, 88
1, 215043, Control_c, 0, 67, 89
1, 215050, Note_on_c, 0, 58, 52
1, 215058, Control_c, 0, 67, 90
1, 215073, Control_c, 0, 67, 90
1, 215095, Control_c, 0, 67, 91
1, 215110, Control_c, 0, 67, 92
1, 215125, Control_c, 0, 67, 93
1, 215137, Note_off_c, 0, 66, 51
1, 215143, Note_on_c, 0, 61, 57
1, 215155, Control_c, 0, 67, 92
1, 215156, Note_off_c, 0, 58, 59
1, 215164, Note_off_c, 0, 54, 34
1, 215169, Control_c, 0, 67, 92
1, 215171, Note_off_c, 0, 49, 0
1, 215209, Poly_aftertouch_c, 0, 49, 127
1, 215214, Control_c, 0, 67, 92
1, 215229, Control_c, 0, 67, 93
1, 215252, Note_off_c, 0, 61, 53
1, 215254, Note_on_c, 0, 58, 58
1, 215258, Control_c, 0, 67, 93
1, 215273, Control_c, 0, 64, 125
1, 215273, Control_c, 0, 67, 94
1, 215288, Control_c, 0, 64, 123
1, 215288, Control_c, 0, 67, 96
1, 215303, Control_c, 0, 64, 121
1, 215303, Control_c, 0, 67, 101
1, 215317, Control_c, 0, 64, 119
1, 215317, Control_c, 0, 67, 107
1, 215318, Poly_aftertouch_c, 0, 49, 0
1, 215322, Note_off_c, 0, 58, 58
1, 215332, Control_c, 0, 64, 117
1, 215332, Control_c, 0, 67, 112
1, 215339, Note_on_c, 0, 54, 62
1, 215347, Control_c, 0, 64, 116
1, 215347, Control_c, 0, 67, 116
1, 215348, Note_on_c, 0, 37, 48
1, 215361, Control_c, 0, 64, 115
1, 215361, Control_c, 0, 67, 117
1, 215376, Control_c, 0, 64, 113
1, 215376, Control_c, 0, 67, 118
1, 215391, Control_c, 0, 64, 112
1, 215391, Control_c, 0, 67, 119
1, 215406, Control_c, 0, 64, 109
1, 215406, Control_c, 0, 67, 120
1, 215421, Control_c, 0, 64, 107
1, 215421, Control_c, 0, 67, 122
1, 215435, Control_c, 0, 64, 104
1, 215435, Control_c, 0, 67, 124
1, 215450, Control_c, 0, 64, 102
1, 215450, Control_c, 0, 67, 125
1, 215465, Control_c, 0, 64, 100
1, 215465, Control_c, 0, 67, 126
1, 215469, Note_on_c, 0, 66, 77
1, 215470, Note_off_c, 0, 54, 53
1, 215480, Control_c, 0, 64, 97
1, 215480, Control_c, 0, 67, 126
1, 215495, Control_c, 0, 64, 93
1, 215500, Note_on_c, 0, 49, 56
1, 215510, Control_c, 0, 64, 89
1, 215510, Control_c, 0, 67, 127
1, 215525, Control_c, 0, 64, 85
1, 215525, Control_c, 0, 67, 127
1, 215539, Control_c, 0, 64, 80
1, 215554, Control_c, 0, 64, 74
1, 215569, Control_c, 0, 64, 67
1, 215584, Control_c, 0, 64, 53
1, 215597, Note_on_c, 0, 59, 63
1, 215599, Control_c, 0, 64, 0
1, 215599, Control_c, 0, 67, 127
1, 215614, Control_c, 0, 67, 126
1, 215629, Control_c, 0, 64, 38
1, 215629, Control_c, 0, 67, 126
1, 215643, Control_c, 0, 64, 55
1, 215643, Control_c, 0, 67, 125
1, 215658, Control_c, 0, 64, 62
1, 215673, Control_c, 0, 64, 65
1, 215687, Control_c, 0, 64, 70
1, 215703, Control_c, 0, 64, 75
1, 215714, Note_on_c, 0, 56, 59
1, 215718, Control_c, 0, 64, 80
1, 215733, Control_c, 0, 64, 83
1, 215748, Control_c, 0, 64, 84
1, 215763, Control_c, 0, 64, 85
1, 215777, Control_c, 0, 64, 86
1, 215781, Note_off_c, 0, 59, 55
1, 215786, Note_off_c, 0, 56, 45
1, 215787, Note_off_c, 0, 37, 60
1, 215792, Control_c, 0, 64, 87
1, 215792, Control_c, 0, 67, 126
1, 215807, Control_c, 0, 64, 88
1, 215807, Control_c, 0, 67, 127
1, 215823, Note_on_c, 0, 65, 77
1, 215844, Control_c, 0, 64, 89
1, 215858, Note_off_c, 0, 66, 59
1, 215858, Control_c, 0, 67, 126
1, 215945, Note_on_c, 0, 59, 60
1, 215963, Control_c, 0, 67, 125
1, 215992, Control_c, 0, 64, 88
1, 215992, Control_c, 0, 67, 126
1, 216007, Control_c, 0, 67, 126
1, 216037, Control_c, 0, 64, 88
1, 216040, Note_off_c, 0, 59, 61
1, 216066, Note_on_c, 0, 56, 72
1, 216066, Control_c, 0, 64, 87
1, 216081, Control_c, 0, 64, 86
1, 216096, Control_c, 0, 64, 86
1, 216110, Control_c, 0, 64, 85
1, 216110, Control_c, 0, 67, 126
1, 216119, Note_off_c, 0, 56, 57
1, 216124, Control_c, 0, 64, 85
1, 216139, Control_c, 0, 64, 84
1, 216154, Control_c, 0, 64, 83
1, 216154, Control_c, 0, 67, 125
1, 216169, Control_c, 0, 64, 81
1, 216184, Control_c, 0, 64, 78
1, 216184, Control_c, 0, 67, 125
1, 216198, Control_c, 0, 64, 76
1, 216210, Note_on_c, 0, 70, 83
1, 216213, Control_c, 0, 64, 72
1, 216225, Note_on_c, 0, 54, 57
1, 216228, Control_c, 0, 64, 67
1, 216228, Control_c, 0, 67, 124
1, 216243, Control_c, 0, 64, 58
1, 216251, Note_off_c, 0, 65, 59
1, 216258, Control_c, 0, 64, 0
1, 216288, Control_c, 0, 67, 124
1, 216303, Control_c, 0, 67, 123
1, 216317, Control_c, 0, 64, 28
1, 216332, Control_c, 0, 64, 54
1, 216338, Note_on_c, 0, 61, 61
1, 216347, Control_c, 0, 64, 62
1, 216347, Control_c, 0, 67, 123
1, 216362, Control_c, 0, 64, 67
1, 216377, Control_c, 0, 64, 71
1, 216391, Control_c, 0, 64, 75
1, 216406, Control_c, 0, 64, 78
1, 216421, Control_c, 0, 64, 80
1, 216421, Control_c, 0, 67, 123
1, 216461, Note_on_c, 0, 59, 72
1, 216470, Note_off_c, 0, 61, 60
1, 216480, Control_c, 0, 67, 124
1, 216495, Control_c, 0, 67, 124
1, 216511, Control_c, 0, 67, 125
1, 216540, Control_c, 0, 64, 79
1, 216540, Control_c, 0, 67, 126
1, 216555, Control_c, 0, 64, 77
1, 216570, Control_c, 0, 64, 75
1, 216570, Control_c, 0, 67, 125
1, 216592, Control_c, 0, 64, 71
1, 216592, Control_c, 0, 67, 125
1, 216607, Control_c, 0, 64, 67
1, 216607, Control_c, 0, 67, 124
1, 216622, Control_c, 0, 64, 63
1, 216623, Note_on_c, 0, 68, 77
1, 216629, Note_off_c, 0, 59, 56
1, 216636, Control_c, 0, 64, 47
1, 216644, Note_on_c, 0, 53, 49
1, 216651, Control_c, 0, 64, 0
1, 216672, Note_off_c, 0, 54, 57
1, 216703, Note_off_c, 0, 70, 44
1, 216740, Control_c, 0, 67, 124
1, 216755, Control_c, 0, 64, 44
1, 216755, Control_c, 0, 67, 123
1, 216770, Control_c, 0, 64, 63
1, 216770, Control_c, 0, 67, 124
1, 216779, Note_on_c, 0, 61, 51
1, 216785, Control_c, 0, 64, 68
1, 216785, Control_c, 0, 67, 125
1, 216800, Control_c, 0, 64, 71
1, 216800, Control_c, 0, 67, 126
1, 216814, Control_c, 0, 64, 73
1, 216814, Control_c, 0, 67, 126
1, 216829, Control_c, 0, 64, 75
1, 216829, Control_c, 0, 67, 127
1, 216844, Control_c, 0, 64, 76
1, 216844, Control_c, 0, 67, 127
1, 216894, Note_off_c, 0, 61, 53
1, 216936, Note_on_c, 0, 59, 49
1, 216947, Control_c, 0, 64, 77
1, 217031, Note_off_c, 0, 49, 23
1, 217081, Control_c, 0, 64, 76
1, 217155, Control_c, 0, 64, 76
1, 217170, Note_off_c, 0, 53, 17
1, 217170, Control_c, 0, 64, 75
1, 217200, Control_c, 0, 64, 75
1, 217214, Control_c, 0, 64, 74
1, 217229, Control_c, 0, 64, 73
1, 217244, Control_c, 0, 64, 72
1, 217255, Note_on_c, 0, 71, 58
1, 217258, Control_c, 0, 64, 71
1, 217259, Note_off_c, 0, 59, 18
1, 217273, Control_c, 0, 64, 69
1, 217280, Note_on_c, 0, 54, 38
1, 217288, Control_c, 0, 64, 68
1, 217290, Note_on_c, 0, 51, 35
1, 217304, Control_c, 0, 64, 66
1, 217319, Control_c, 0, 64, 65
1, 217341, Control_c, 0, 64, 63
1, 217356, Control_c, 0, 64, 59
1, 217370, Control_c, 0, 64, 47
1, 217385, Control_c, 0, 64, 0
1, 217435, Note_off_c, 0, 68, 20
1, 217522, Note_on_c, 0, 59, 33
1, 217608, Control_c, 0, 64, 31
1, 217623, Control_c, 0, 64, 59
1, 217638, Control_c, 0, 64, 64
1, 217653, Note_on_c, 0, 63, 43
1, 217653, Control_c, 0, 64, 67
1, 217668, Control_c, 0, 64, 68
1, 217683, Control_c, 0, 64, 70
1, 217698, Control_c, 0, 64, 73
1, 217712, Control_c, 0, 64, 75
1, 217727, Control_c, 0, 64, 77
1, 217738, Note_off_c, 0, 59, 32
1, 217739, Note_off_c, 0, 63, 59
1, 217742, Control_c, 0, 64, 79
1, 217757, Control_c, 0, 64, 79
1, 217767, Note_on_c, 0, 66, 37
1, 217771, Control_c, 0, 64, 80
1, 217786, Control_c, 0, 64, 81
1, 217801, Control_c, 0, 64, 81
1, 217816, Control_c, 0, 64, 82
1, 217830, Control_c, 0, 64, 82
1, 217871, Note_off_c, 0, 66, 29
1, 217873, Note_on_c, 0, 63, 44
1, 217924, Note_off_c, 0, 63, 44
1, 217960, Note_on_c, 0, 59, 46
1, 217993, Control_c, 0, 64, 83
1, 218052, Note_off_c, 0, 59, 30
1, 218055, Note_on_c, 0, 63, 56
1, 218067, Control_c, 0, 64, 83
1, 218150, Control_c, 0, 64, 84
1, 218150, Control_c, 0, 67, 127
1, 218151, Note_off_c, 0, 63, 59
1, 218165, Control_c, 0, 67, 126
1, 218180, Control_c, 0, 67, 125
1, 218185, Note_on_c, 0, 59, 49
1, 218194, Control_c, 0, 64, 84
1, 218194, Control_c, 0, 67, 123
1, 218209, Control_c, 0, 67, 123
1, 218224, Control_c, 0, 67, 122
1, 218239, Control_c, 0, 64, 85
1, 218239, Control_c, 0, 67, 121
1, 218241, Note_off_c, 0, 59, 37
1, 218254, Control_c, 0, 67, 120
1, 218268, Control_c, 0, 67, 119
1, 218273, Note_on_c, 0, 63, 64
1, 218283, Control_c, 0, 64, 85
1, 218283, Control_c, 0, 67, 117
1, 218298, Control_c, 0, 67, 115
1, 218312, Control_c, 0, 67, 112
1, 218327, Control_c, 0, 64, 86
1, 218327, Control_c, 0, 67, 108
1, 218342, Control_c, 0, 67, 102
1, 218357, Control_c, 0, 67, 96
1, 218372, Control_c, 0, 67, 90
1, 218376, Note_off_c, 0, 63, 60
1, 218378, Note_on_c, 0, 66, 64
1, 218386, Control_c, 0, 67, 85
1, 218401, Control_c, 0, 67, 82
1, 218416, Control_c, 0, 67, 79
1, 218431, Control_c, 0, 67, 76
1, 218446, Control_c, 0, 67, 74
1, 218478, Note_off_c, 0, 54, 38
1, 218486, Note_on_c, 0, 63, 64
1, 218491, Control_c, 0, 67, 75
1, 218505, Control_c, 0, 67, 75
1, 218506, Note_off_c, 0, 71, 35
1, 218520, Control_c, 0, 67, 76
1, 218526, Note_off_c, 0, 66, 55
1, 218535, Control_c, 0, 67, 76
1, 218544, Note_off_c, 0, 63, 45
1, 218565, Control_c, 0, 67, 77
1, 218581, Note_on_c, 0, 59, 67
1, 218594, Control_c, 0, 67, 77
1, 218607, Note_off_c, 0, 59, 64
1, 218624, Control_c, 0, 67, 78
1, 218683, Control_c, 0, 64, 85
1, 218683, Control_c, 0, 67, 77
1, 218698, Control_c, 0, 64, 85
1, 218698, Control_c, 0, 67, 77
1, 218699, Note_on_c, 0, 73, 86
1, 218712, Control_c, 0, 64, 84
1, 218722, Note_on_c, 0, 58, 54
1, 218726, Note_on_c, 0, 54, 52
1, 218727, Control_c, 0, 64, 81
1, 218735, Note_off_c, 0, 51, 41
1, 218742, Control_c, 0, 64, 78
1, 218742, Control_c, 0, 67, 76
1, 218757, Control_c, 0, 64, 72
1, 218772, Control_c, 0, 64, 65
1, 218772, Control_c, 0, 67, 76
1, 218786, Control_c, 0, 64, 33
1, 218801, Control_c, 0, 64, 0
1, 218801, Control_c, 0, 67, 75
1, 218835, Note_on_c, 0, 64, 57
1, 218854, Control_c, 0, 67, 75
1, 218868, Control_c, 0, 67, 74
1, 218898, Control_c, 0, 67, 74
1, 218914, Control_c, 0, 64, 42
1, 218914, Control_c, 0, 67, 73
1, 218929, Control_c, 0, 64, 62
1, 218943, Note_on_c, 0, 66, 58
1, 218943, Control_c, 0, 64, 67
1, 218943, Control_c, 0, 67, 73
1, 218958, Control_c, 0, 64, 71
1, 218958, Control_c, 0, 67, 72
1, 218973, Control_c, 0, 64, 75
1, 218973, Control_c, 0, 67, 69
1, 218988, Control_c, 0, 64, 79
1, 218988, Control_c, 0, 67, 66
1, 219003, Control_c, 0, 64, 82
1, 219003, Control_c, 0, 67, 63
1, 219017, Control_c, 0, 64, 85
1, 219017, Control_c, 0, 67, 59
1, 219032, Control_c, 0, 64, 87
1, 219032, Control_c, 0, 67, 55
1, 219047, Control_c, 0, 64, 89
1, 219047, Control_c, 0, 67, 51
1, 219050, Note_on_c, 0, 70, 71
1, 219062, Control_c, 0, 64, 91
1, 219062, Control_c, 0, 67, 47
1, 219071, Note_off_c, 0, 64, 58
1, 219072, Note_off_c, 0, 66, 62
1, 219077, Control_c, 0, 64, 93
1, 219077, Control_c, 0, 67, 44
1, 219091, Control_c, 0, 64, 94
1, 219091, Control_c, 0, 67, 41
1, 219106, Control_c, 0, 64, 94
1, 219106, Control_c, 0, 67, 39
1, 219121, Control_c, 0, 64, 95
1, 219121, Control_c, 0, 67, 38
1, 219164, Note_on_c, 0, 66, 76
1, 219209, Control_c, 0, 67, 39
1, 219224, Control_c, 0, 67, 39
1, 219236, Note_off_c, 0, 70, 35
1, 219254, Control_c, 0, 67, 40
1, 219269, Note_on_c, 0, 64, 71
1, 219301, Note_off_c, 0, 66, 58
1, 219307, Note_off_c, 0, 73, 53
1, 219358, Control_c, 0, 67, 39
1, 219376, Note_on_c, 0, 74, 87
1, 219388, Note_off_c, 0, 64, 62
1, 219402, Control_c, 0, 67, 39
1, 219432, Control_c, 0, 67, 38
1, 219476, Control_c, 0, 67, 38
1, 219491, Control_c, 0, 67, 37
1, 219508, Note_on_c, 0, 64, 67
1, 219520, Control_c, 0, 67, 37
1, 219565, Control_c, 0, 67, 36
1, 219602, Control_c, 0, 67, 35
1, 219630, Note_on_c, 0, 66, 69
1, 219647, Control_c, 0, 67, 36
1, 219676, Control_c, 0, 67, 36
1, 219691, Control_c, 0, 67, 37
1, 219707, Control_c, 0, 67, 37
1, 219722, Control_c, 0, 67, 38
1, 219737, Control_c, 0, 67, 38
1, 219761, Note_on_c, 0, 70, 69
1, 219766, Control_c, 0, 67, 39
1, 219772, Note_off_c, 0, 64, 37
1, 219781, Control_c, 0, 67, 39
1, 219797, Note_off_c, 0, 66, 61
1, 219805, Note_off_c, 0, 74, 61
1, 219855, Control_c, 0, 67, 40
1, 219877, Note_off_c, 0, 54, 56
1, 219888, Note_on_c, 0, 66, 63
1, 219921, Note_off_c, 0, 58, 58
1, 219928, Control_c, 0, 64, 94
1, 219943, Control_c, 0, 67, 39
1, 219972, Control_c, 0, 64, 94
1, 219973, Note_off_c, 0, 70, 55
1, 219987, Control_c, 0, 64, 93
1, 220017, Note_on_c, 0, 64, 77
1, 220032, Note_off_c, 0, 66, 62
1, 220032, Control_c, 0, 64, 93
1, 220032, Control_c, 0, 67, 39
1, 220061, Control_c, 0, 64, 92
1, 220076, Control_c, 0, 64, 92
1, 220091, Control_c, 0, 67, 38
1, 220120, Note_off_c, 0, 64, 62
1, 220121, Control_c, 0, 64, 91
1, 220136, Control_c, 0, 67, 38
1, 220150, Control_c, 0, 64, 91
1, 220165, Control_c, 0, 64, 90
1, 220165, Control_c, 0, 67, 37
1, 220180, Control_c, 0, 64, 89
1, 220195, Control_c, 0, 64, 88
1, 220195, Control_c, 0, 67, 37
1, 220208, Note_on_c, 0, 59, 57
1, 220210, Control_c, 0, 64, 87
1, 220210, Control_c, 0, 67, 36
1, 220223, Note_on_c, 0, 47, 50
1, 220224, Control_c, 0, 64, 86
1, 220224, Control_c, 0, 67, 36
1, 220226, Note_on_c, 0, 54, 49
1, 220239, Control_c, 0, 64, 85
1, 220254, Control_c, 0, 64, 84
1, 220268, Note_on_c, 0, 75, 83
1, 220269, Control_c, 0, 64, 84
1, 220283, Control_c, 0, 64, 81
1, 220283, Control_c, 0, 67, 35
1, 220298, Control_c, 0, 64, 78
1, 220298, Control_c, 0, 67, 35
1, 220313, Control_c, 0, 64, 73
1, 220313, Control_c, 0, 67, 34
1, 220336, Control_c, 0, 64, 67
1, 220336, Control_c, 0, 67, 33
1, 220351, Control_c, 0, 64, 57
1, 220351, Control_c, 0, 67, 33
1, 220365, Control_c, 0, 64, 0
1, 220365, Control_c, 0, 67, 32
1, 220395, Control_c, 0, 67, 32
1, 220410, Control_c, 0, 67, 31
1, 220439, Control_c, 0, 67, 31
1, 220454, Control_c, 0, 67, 30
1, 220483, Control_c, 0, 67, 29
1, 220500, Control_c, 0, 67, 28
1, 220515, Control_c, 0, 67, 26
1, 220529, Control_c, 0, 64, 54
1, 220529, Control_c, 0, 67, 25
1, 220536, Note_on_c, 0, 63, 53
1, 220544, Control_c, 0, 64, 64
1, 220559, Control_c, 0, 64, 67
1, 220574, Control_c, 0, 64, 70
1, 220588, Control_c, 0, 64, 73
1, 220603, Control_c, 0, 64, 76
1, 220618, Control_c, 0, 64, 80
1, 220633, Control_c, 0, 64, 82
1, 220633, Control_c, 0, 67, 26
1, 220648, Control_c, 0, 64, 84
1, 220648, Control_c, 0, 67, 26
1, 220659, Note_on_c, 0, 66, 54
1, 220662, Control_c, 0, 64, 86
1, 220662, Control_c, 0, 67, 27
1, 220677, Control_c, 0, 64, 87
1, 220677, Control_c, 0, 67, 28
1, 220692, Control_c, 0, 64, 88
1, 220692, Control_c, 0, 67, 29
1, 220706, Control_c, 0, 64, 89
1, 220706, Control_c, 0, 67, 30
1, 220721, Control_c, 0, 64, 89
1, 220721, Control_c, 0, 67, 30
1, 220736, Control_c, 0, 64, 90
1, 220736, Control_c, 0, 67, 31
1, 220751, Control_c, 0, 67, 32
1, 220762, Note_off_c, 0, 66, 61
1, 220766, Control_c, 0, 67, 33
1, 220768, Note_off_c, 0, 63, 49
1, 220780, Control_c, 0, 67, 33
1, 220796, Note_on_c, 0, 71, 40
1, 220869, Control_c, 0, 67, 34
1, 220884, Control_c, 0, 67, 35
1, 220895, Note_on_c, 0, 66, 51
1, 220899, Control_c, 0, 67, 36
1, 220914, Control_c, 0, 67, 37
1, 220929, Control_c, 0, 67, 37
1, 220944, Control_c, 0, 67, 38
1, 220952, Note_off_c, 0, 71, 33
1, 220961, Note_off_c, 0, 66, 59
1, 220988, Control_c, 0, 67, 39
1, 220989, Note_on_c, 0, 63, 47
1, 221003, Control_c, 0, 67, 42
1, 221018, Control_c, 0, 67, 46
1, 221033, Control_c, 0, 67, 51
1, 221039, Note_off_c, 0, 63, 43
1, 221047, Control_c, 0, 67, 57
1, 221062, Control_c, 0, 67, 64
1, 221084, Control_c, 0, 67, 71
1, 221099, Control_c, 0, 67, 78
1, 221108, Note_on_c, 0, 66, 51
1, 221114, Control_c, 0, 67, 86
1, 221129, Control_c, 0, 67, 94
1, 221144, Control_c, 0, 67, 98
1, 221158, Control_c, 0, 67, 99
1, 221199, Note_off_c, 0, 66, 62
1, 221203, Control_c, 0, 67, 99
1, 221218, Control_c, 0, 67, 100
1, 221230, Note_on_c, 0, 63, 45
1, 221233, Control_c, 0, 67, 101
1, 221248, Control_c, 0, 67, 104
1, 221262, Control_c, 0, 67, 108
1, 221277, Control_c, 0, 67, 109
1, 221322, Control_c, 0, 67, 110
1, 221334, Note_on_c, 0, 66, 53
1, 221337, Control_c, 0, 67, 113
1, 221348, Note_off_c, 0, 47, 45
1, 221352, Control_c, 0, 64, 89
1, 221352, Control_c, 0, 67, 118
1, 221358, Note_off_c, 0, 59, 48
1, 221367, Control_c, 0, 67, 123
1, 221368, Note_off_c, 0, 75, 55
1, 221382, Control_c, 0, 67, 127
1, 221427, Control_c, 0, 64, 89
1, 221438, Note_off_c, 0, 66, 62
1, 221439, Note_on_c, 0, 71, 58
1, 221457, Note_off_c, 0, 63, 40
1, 221471, Control_c, 0, 64, 88
1, 221516, Control_c, 0, 64, 88
1, 221567, Note_on_c, 0, 66, 59
1, 221575, Control_c, 0, 64, 87
1, 221604, Control_c, 0, 64, 87
1, 221634, Control_c, 0, 64, 86
1, 221649, Control_c, 0, 64, 86
1, 221664, Control_c, 0, 64, 85
1, 221666, Note_off_c, 0, 66, 61
1, 221673, Note_on_c, 0, 63, 60
1, 221678, Control_c, 0, 64, 85
1, 221693, Control_c, 0, 64, 84
1, 221708, Control_c, 0, 64, 84
1, 221737, Control_c, 0, 64, 83
1, 221752, Control_c, 0, 64, 83
1, 221782, Control_c, 0, 64, 82
1, 221796, Control_c, 0, 64, 82
1, 221811, Control_c, 0, 64, 81
1, 221834, Control_c, 0, 64, 79
1, 221847, Note_on_c, 0, 75, 75
1, 221849, Control_c, 0, 64, 78
1, 221864, Control_c, 0, 64, 76
1, 221865, Note_off_c, 0, 63, 57
1, 221870, Note_on_c, 0, 47, 40
1, 221874, Note_on_c, 0, 56, 39
1, 221878, Control_c, 0, 64, 74
1, 221893, Control_c, 0, 64, 71
1, 221908, Control_c, 0, 64, 67
1, 221923, Control_c, 0, 64, 62
1, 221937, Control_c, 0, 64, 43
1, 221952, Control_c, 0, 64, 0
1, 222006, Note_on_c, 0, 68, 54
1, 222011, Control_c, 0, 64, 41
1, 222026, Control_c, 0, 64, 58
1, 222041, Control_c, 0, 64, 64
1, 222056, Control_c, 0, 64, 67
1, 222071, Control_c, 0, 64, 70
1, 222086, Control_c, 0, 64, 73
1, 222101, Control_c, 0, 64, 77
1, 222116, Control_c, 0, 64, 79
1, 222131, Control_c, 0, 64, 81
1, 222145, Note_on_c, 0, 65, 56
1, 222145, Control_c, 0, 64, 82
1, 222160, Note_off_c, 0, 75, 64
1, 222160, Control_c, 0, 64, 82
1, 222175, Control_c, 0, 64, 83
1, 222190, Control_c, 0, 64, 84
1, 222205, Control_c, 0, 64, 85
1, 222213, Note_off_c, 0, 71, 13
1, 222253, Note_on_c, 0, 74, 70
1, 222273, Note_off_c, 0, 65, 56
1, 222273, Note_off_c, 0, 68, 36
1, 222281, Note_off_c, 0, 54, 36
1, 222328, Poly_aftertouch_c, 0, 71, 127
1, 222380, Note_on_c, 0, 68, 62
1, 222410, Note_off_c, 0, 74, 56
1, 222427, Control_c, 0, 64, 84
1, 222439, Poly_aftertouch_c, 0, 71, 0
1, 222442, Control_c, 0, 64, 84
1, 222457, Control_c, 0, 64, 83
1, 222467, Note_off_c, 0, 68, 63
1, 222471, Control_c, 0, 64, 82
1, 222486, Control_c, 0, 64, 82
1, 222491, Note_on_c, 0, 65, 55
1, 222501, Control_c, 0, 64, 81
1, 222516, Control_c, 0, 64, 80
1, 222531, Control_c, 0, 64, 79
1, 222545, Control_c, 0, 64, 78
1, 222560, Control_c, 0, 64, 76
1, 222583, Control_c, 0, 64, 73
1, 222598, Control_c, 0, 64, 70
1, 222613, Control_c, 0, 64, 66
1, 222619, Note_on_c, 0, 71, 66
1, 222625, Note_off_c, 0, 65, 43
1, 222627, Control_c, 0, 64, 62
1, 222642, Control_c, 0, 64, 57
1, 222644, Note_on_c, 0, 53, 36
1, 222657, Control_c, 0, 64, 53
1, 222672, Control_c, 0, 64, 48
1, 222686, Control_c, 0, 64, 37
1, 222697, Note_off_c, 0, 56, 37
1, 222701, Control_c, 0, 64, 0
1, 222738, Note_on_c, 0, 65, 46
1, 222775, Control_c, 0, 64, 25
1, 222790, Control_c, 0, 64, 49
1, 222805, Control_c, 0, 64, 59
1, 222813, Note_off_c, 0, 65, 56
1, 222820, Control_c, 0, 64, 64
1, 222834, Control_c, 0, 64, 67
1, 222849, Control_c, 0, 64, 70
1, 222864, Control_c, 0, 64, 73
1, 222875, Note_on_c, 0, 62, 40
1, 222878, Control_c, 0, 64, 76
1, 222893, Control_c, 0, 64, 77
1, 222910, Control_c, 0, 64, 79
1, 222924, Control_c, 0, 64, 80
1, 222939, Control_c, 0, 64, 80
1, 222954, Control_c, 0, 64, 81
1, 222969, Control_c, 0, 64, 81
1, 222981, Note_on_c, 0, 68, 65
1, 222983, Control_c, 0, 64, 82
1, 222998, Note_off_c, 0, 62, 37
1, 223001, Note_off_c, 0, 71, 48
1, 223122, Note_off_c, 0, 47, 43
1, 223127, Note_on_c, 0, 65, 43
1, 223234, Note_off_c, 0, 65, 38
1, 223250, Control_c, 0, 64, 81
1, 223260, Note_on_c, 0, 61, 36
1, 223309, Control_c, 0, 64, 81
1, 223346, Control_c, 0, 64, 80
1, 223376, Control_c, 0, 64, 80
1, 223391, Control_c, 0, 64, 79
1, 223406, Control_c, 0, 64, 78
1, 223421, Control_c, 0, 64, 77
1, 223436, Control_c, 0, 64, 77
1, 223448, Note_off_c, 0, 61, 33
1, 223450, Control_c, 0, 64, 76
1, 223454, Note_on_c, 0, 73, 64
1, 223465, Control_c, 0, 64, 74
1, 223480, Control_c, 0, 64, 71
1, 223485, Note_on_c, 0, 46, 34
1, 223489, Note_on_c, 0, 54, 31
1, 223495, Control_c, 0, 64, 68
1, 223509, Control_c, 0, 64, 64
1, 223513, Note_off_c, 0, 53, 39
1, 223524, Control_c, 0, 64, 56
1, 223539, Control_c, 0, 64, 41
1, 223554, Control_c, 0, 64, 33
1, 223569, Control_c, 0, 64, 29
1, 223583, Control_c, 0, 64, 18
1, 223594, Note_off_c, 0, 68, 25
1, 223598, Control_c, 0, 64, 0
1, 223673, Note_on_c, 0, 61, 37
1, 223718, Control_c, 0, 64, 43
1, 223732, Control_c, 0, 64, 61
1, 223747, Control_c, 0, 64, 65
1, 223762, Control_c, 0, 64, 67
1, 223777, Control_c, 0, 64, 70
1, 223792, Control_c, 0, 64, 72
1, 223793, Note_on_c, 0, 66, 28
1, 223806, Control_c, 0, 64, 75
1, 223821, Control_c, 0, 64, 77
1, 223829, Note_off_c, 0, 61, 29
1, 223836, Control_c, 0, 64, 79
1, 223851, Control_c, 0, 64, 81
1, 223866, Control_c, 0, 64, 82
1, 223875, Note_off_c, 0, 66, 40
1, 223880, Control_c, 0, 64, 83
1, 223895, Control_c, 0, 64, 83
1, 223896, Note_on_c, 0, 70, 36
1, 223910, Control_c, 0, 64, 84
1, 223925, Control_c, 0, 64, 84
1, 223984, Control_c, 0, 64, 85
1, 224014, Note_on_c, 0, 66, 34
1, 224038, Note_off_c, 0, 70, 37
1, 224078, Note_off_c, 0, 66, 47
1, 224123, Note_on_c, 0, 61, 33
1, 224173, Note_off_c, 0, 61, 42
1, 224238, Note_on_c, 0, 66, 37
1, 224339, Note_off_c, 0, 66, 38
1, 224349, Note_on_c, 0, 61, 34
1, 224455, Note_on_c, 0, 66, 43
1, 224464, Control_c, 0, 64, 84
1, 224549, Note_off_c, 0, 73, 24
1, 224555, Note_off_c, 0, 61, 26
1, 224566, Note_on_c, 0, 70, 43
1, 224572, Note_off_c, 0, 66, 36
1, 224599, Control_c, 0, 64, 84
1, 224622, Note_off_c, 0, 46, 35
1, 224658, Control_c, 0, 64, 83
1, 224691, Note_on_c, 0, 66, 50
1, 224703, Note_off_c, 0, 70, 38
1, 224747, Control_c, 0, 64, 83
1, 224777, Control_c, 0, 64, 82
1, 224786, Note_on_c, 0, 61, 41
1, 224791, Note_off_c, 0, 66, 38
1, 224807, Control_c, 0, 64, 82
1, 224843, Control_c, 0, 64, 81
1, 224873, Control_c, 0, 64, 81
1, 224902, Control_c, 0, 64, 80
1, 224917, Note_on_c, 0, 73, 64
1, 224917, Control_c, 0, 64, 79
1, 224932, Control_c, 0, 64, 78
1, 224943, Note_on_c, 0, 55, 45
1, 224947, Control_c, 0, 64, 77
1, 224962, Control_c, 0, 64, 76
1, 224968, Note_on_c, 0, 47, 33
1, 224977, Control_c, 0, 64, 73
1, 224989, Note_off_c, 0, 61, 32
1, 224992, Control_c, 0, 64, 70
1, 225007, Control_c, 0, 64, 65
1, 225021, Control_c, 0, 64, 59
1, 225031, Note_off_c, 0, 54, 24
1, 225036, Control_c, 0, 64, 45
1, 225051, Control_c, 0, 64, 39
1, 225066, Control_c, 0, 64, 44
1, 225079, Note_on_c, 0, 67, 38
1, 225080, Control_c, 0, 64, 46
1, 225095, Control_c, 0, 64, 49
1, 225110, Control_c, 0, 64, 54
1, 225125, Control_c, 0, 64, 59
1, 225139, Control_c, 0, 64, 63
1, 225154, Control_c, 0, 64, 64
1, 225167, Note_off_c, 0, 67, 53
1, 225169, Control_c, 0, 64, 65
1, 225184, Control_c, 0, 64, 66
1, 225185, Note_on_c, 0, 63, 41
1, 225199, Control_c, 0, 64, 67
1, 225228, Control_c, 0, 64, 66
1, 225243, Control_c, 0, 64, 66
1, 225258, Control_c, 0, 64, 64
1, 225272, Control_c, 0, 64, 60
1, 225281, Note_off_c, 0, 73, 59
1, 225284, Note_on_c, 0, 71, 64
1, 225287, Control_c, 0, 64, 53
1, 225299, Note_on_c, 0, 56, 43
1, 225303, Control_c, 0, 64, 46
1, 225307, Note_off_c, 0, 63, 47
1, 225318, Control_c, 0, 64, 43
1, 225323, Note_off_c, 0, 55, 38
1, 225333, Control_c, 0, 64, 45
1, 225348, Control_c, 0, 64, 48
1, 225363, Control_c, 0, 64, 54
1, 225377, Control_c, 0, 64, 59
1, 225391, Note_on_c, 0, 68, 54
1, 225392, Control_c, 0, 64, 63
1, 225407, Control_c, 0, 64, 65
1, 225422, Control_c, 0, 64, 66
1, 225425, Note_off_c, 0, 71, 55
1, 225437, Control_c, 0, 64, 68
1, 225451, Control_c, 0, 64, 70
1, 225452, Note_off_c, 0, 68, 60
1, 225466, Control_c, 0, 64, 72
1, 225481, Control_c, 0, 64, 73
1, 225496, Control_c, 0, 64, 74
1, 225502, Note_on_c, 0, 63, 46
1, 225511, Control_c, 0, 64, 74
1, 225520, Poly_aftertouch_c, 0, 71, 127
1, 225525, Control_c, 0, 64, 75
1, 225619, Note_off_c, 0, 63, 37
1, 225621, Note_on_c, 0, 68, 71
1, 225622, Poly_aftertouch_c, 0, 71, 0
1, 225622, Control_c, 0, 64, 74
1, 225624, Note_off_c, 0, 56, 47
1, 225637, Control_c, 0, 64, 72
1, 225651, Control_c, 0, 64, 68
1, 225656, Note_on_c, 0, 51, 47
1, 225666, Control_c, 0, 64, 65
1, 225681, Control_c, 0, 64, 64
1, 225695, Control_c, 0, 64, 65
1, 225710, Control_c, 0, 64, 65
1, 225725, Control_c, 0, 64, 66
1, 225740, Control_c, 0, 64, 67
1, 225747, Note_on_c, 0, 63, 50
1, 225755, Control_c, 0, 64, 68
1, 225770, Control_c, 0, 64, 69
1, 225785, Control_c, 0, 64, 70
1, 225791, Note_off_c, 0, 63, 61
1, 225800, Control_c, 0, 64, 71
1, 225815, Control_c, 0, 64, 71
1, 225855, Note_on_c, 0, 59, 46
1, 225865, Note_off_c, 0, 47, 41
1, 225898, Note_off_c, 0, 59, 46
1, 225918, Control_c, 0, 64, 71
1, 225933, Control_c, 0, 64, 69
1, 225948, Control_c, 0, 64, 66
1, 225963, Control_c, 0, 64, 65
1, 225965, Note_off_c, 0, 68, 57
1, 225974, Note_on_c, 0, 63, 60
1, 225977, Control_c, 0, 64, 64
1, 225999, Note_on_c, 0, 48, 43
1, 226037, Control_c, 0, 64, 65
1, 226051, Control_c, 0, 64, 65
1, 226066, Control_c, 0, 64, 66
1, 226081, Control_c, 0, 64, 68
1, 226097, Control_c, 0, 64, 69
1, 226109, Note_on_c, 0, 60, 47
1, 226112, Control_c, 0, 64, 70
1, 226126, Control_c, 0, 64, 71
1, 226141, Control_c, 0, 64, 72
1, 226156, Control_c, 0, 64, 73
1, 226202, Note_off_c, 0, 60, 42
1, 226238, Note_on_c, 0, 56, 43
1, 226271, Note_off_c, 0, 48, 42
1, 226274, Control_c, 0, 64, 72
1, 226304, Control_c, 0, 64, 72
1, 226326, Control_c, 0, 64, 71
1, 226356, Control_c, 0, 64, 71
1, 226371, Control_c, 0, 64, 70
1, 226386, Control_c, 0, 64, 69
1, 226400, Control_c, 0, 64, 69
1, 226405, Note_off_c, 0, 56, 24
1, 226409, Note_off_c, 0, 63, 25
1, 226415, Control_c, 0, 64, 68
1, 226425, Note_on_c, 0, 66, 61
1, 226430, Control_c, 0, 64, 68
1, 226445, Control_c, 0, 64, 67
1, 226458, Note_on_c, 0, 49, 39
1, 226460, Control_c, 0, 64, 66
1, 226474, Control_c, 0, 64, 65
1, 226487, Note_off_c, 0, 51, 33
1, 226489, Control_c, 0, 64, 63
1, 226504, Control_c, 0, 64, 61
1, 226518, Control_c, 0, 64, 59
1, 226533, Control_c, 0, 64, 55
1, 226548, Control_c, 0, 64, 48
1, 226563, Control_c, 0, 64, 32
1, 226578, Control_c, 0, 64, 0
1, 226619, Note_on_c, 0, 54, 41
1, 226735, Note_on_c, 0, 58, 37
1, 226740, Control_c, 0, 64, 39
1, 226755, Control_c, 0, 64, 59
1, 226770, Control_c, 0, 64, 64
1, 226785, Control_c, 0, 64, 66
1, 226787, Note_off_c, 0, 54, 32
1, 226799, Control_c, 0, 64, 68
1, 226814, Control_c, 0, 64, 71
1, 226818, Note_off_c, 0, 58, 56
1, 226829, Control_c, 0, 64, 74
1, 226838, Note_on_c, 0, 61, 37
1, 226843, Control_c, 0, 64, 77
1, 226858, Control_c, 0, 64, 79
1, 226873, Control_c, 0, 64, 80
1, 226889, Control_c, 0, 64, 81
1, 226904, Control_c, 0, 64, 81
1, 226933, Control_c, 0, 64, 82
1, 226943, Note_off_c, 0, 61, 40
1, 226963, Note_on_c, 0, 58, 38
1, 226978, Control_c, 0, 64, 82
1, 227016, Note_off_c, 0, 58, 43
1, 227083, Note_on_c, 0, 54, 24
1, 227129, Note_off_c, 0, 54, 47
1, 227156, Note_on_c, 0, 58, 43
1, 227242, Note_off_c, 0, 58, 51
1, 227285, Note_on_c, 0, 54, 34
1, 227296, Control_c, 0, 64, 82
1, 227356, Control_c, 0, 64, 81
1, 227386, Note_on_c, 0, 58, 41
1, 227386, Control_c, 0, 64, 81
1, 227460, Control_c, 0, 64, 80
1, 227477, Note_off_c, 0, 49, 38
1, 227478, Note_off_c, 0, 58, 58
1, 227487, Note_off_c, 0, 66, 43
1, 227496, Note_on_c, 0, 61, 51
1, 227502, Note_off_c, 0, 54, 36
1, 227520, Control_c, 0, 64, 80
1, 227564, Control_c, 0, 64, 79
1, 227579, Control_c, 0, 64, 79
1, 227592, Note_off_c, 0, 61, 42
1, 227593, Poly_aftertouch_c, 0, 49, 127
1, 227609, Control_c, 0, 64, 78
1, 227620, Note_on_c, 0, 58, 42
1, 227653, Control_c, 0, 64, 78
1, 227672, Note_off_c, 0, 58, 61
1, 227678, Poly_aftertouch_c, 0, 49, 0
1, 227698, Control_c, 0, 64, 77
1, 227701, Note_on_c, 0, 54, 52
1, 227706, Note_on_c, 0, 37, 43
1, 227728, Control_c, 0, 64, 77
1, 227743, Control_c, 0, 64, 76
1, 227758, Control_c, 0, 64, 76
1, 227772, Control_c, 0, 64, 75
1, 227787, Control_c, 0, 64, 75
1, 227802, Control_c, 0, 64, 74
1, 227824, Control_c, 0, 64, 73
1, 227839, Control_c, 0, 64, 72
1, 227854, Control_c, 0, 64, 69
1, 227854, Note_on_c, 0, 66, 63
1, 227868, Control_c, 0, 64, 67
1, 227883, Control_c, 0, 64, 64
1, 227884, Note_off_c, 0, 54, 39
1, 227889, Note_on_c, 0, 49, 42
1, 227898, Control_c, 0, 64, 59
1, 227913, Control_c, 0, 64, 52
1, 227928, Control_c, 0, 64, 45
1, 227943, Control_c, 0, 64, 46
1, 227958, Control_c, 0, 64, 48
1, 227972, Control_c, 0, 64, 50
1, 227987, Control_c, 0, 64, 55
1, 227991, Note_on_c, 0, 59, 54
1, 228002, Control_c, 0, 64, 60
1, 228017, Control_c, 0, 64, 64
1, 228032, Control_c, 0, 64, 67
1, 228046, Control_c, 0, 64, 69
1, 228061, Control_c, 0, 64, 71
1, 228076, Control_c, 0, 64, 72
1, 228083, Note_on_c, 0, 56, 56
1, 228090, Control_c, 0, 64, 73
1, 228105, Control_c, 0, 64, 74
1, 228107, Note_off_c, 0, 37, 52
1, 228120, Control_c, 0, 64, 75
1, 228150, Control_c, 0, 64, 75
1, 228195, Note_on_c, 0, 65, 69
1, 228209, Note_off_c, 0, 59, 21
1, 228216, Note_off_c, 0, 56, 30
1, 228226, Note_off_c, 0, 66, 59
1, 228336, Note_on_c, 0, 59, 44
1, 228357, Control_c, 0, 64, 75
1, 228372, Control_c, 0, 64, 74
1, 228387, Control_c, 0, 64, 74
1, 228398, Note_off_c, 0, 59, 60
1, 228402, Control_c, 0, 64, 73
1, 228427, Note_on_c, 0, 56, 52
1, 228431, Control_c, 0, 64, 73
1, 228446, Control_c, 0, 64, 72
1, 228461, Control_c, 0, 64, 72
1, 228476, Control_c, 0, 64, 71
1, 228491, Control_c, 0, 64, 70
1, 228494, Note_off_c, 0, 56, 45
1, 228506, Control_c, 0, 64, 69
1, 228521, Control_c, 0, 64, 69
1, 228536, Control_c, 0, 64, 68
1, 228551, Control_c, 0, 64, 67
1, 228573, Control_c, 0, 64, 65
1, 228588, Control_c, 0, 64, 62
1, 228593, Note_on_c, 0, 70, 59
1, 228602, Control_c, 0, 64, 44
1, 228617, Note_on_c, 0, 54, 40
1, 228617, Control_c, 0, 64, 0
1, 228652, Note_off_c, 0, 65, 31
1, 228721, Control_c, 0, 64, 39
1, 228732, Note_on_c, 0, 61, 45
1, 228736, Control_c, 0, 64, 58
1, 228751, Control_c, 0, 64, 63
1, 228766, Control_c, 0, 64, 65
1, 228781, Control_c, 0, 64, 66
1, 228795, Control_c, 0, 64, 67
1, 228810, Control_c, 0, 64, 67
1, 228825, Control_c, 0, 64, 68
1, 228834, Note_off_c, 0, 61, 60
1, 228840, Control_c, 0, 64, 67
1, 228869, Control_c, 0, 64, 67
1, 228870, Note_on_c, 0, 59, 35
1, 228884, Control_c, 0, 64, 66
1, 228899, Control_c, 0, 64, 65
1, 228913, Control_c, 0, 64, 64
1, 228928, Control_c, 0, 64, 62
1, 228943, Control_c, 0, 64, 56
1, 228948, Note_off_c, 0, 59, 36
1, 228958, Control_c, 0, 64, 48
1, 228973, Control_c, 0, 64, 39
1, 228987, Note_off_c, 0, 70, 50
1, 228988, Control_c, 0, 64, 37
1, 228989, Note_on_c, 0, 68, 57
1, 229002, Control_c, 0, 64, 44
1, 229017, Control_c, 0, 64, 51
1, 229023, Note_on_c, 0, 53, 24
1, 229032, Control_c, 0, 64, 59
1, 229046, Control_c, 0, 64, 63
1, 229047, Note_off_c, 0, 54, 39
1, 229061, Control_c, 0, 64, 65
1, 229076, Control_c, 0, 64, 67
1, 229091, Control_c, 0, 64, 69
1, 229106, Control_c, 0, 64, 71
1, 229120, Control_c, 0, 64, 73
1, 229123, Note_on_c, 0, 61, 43
1, 229135, Control_c, 0, 64, 75
1, 229150, Control_c, 0, 64, 76
1, 229165, Note_off_c, 0, 49, 53
1, 229218, Note_off_c, 0, 61, 50
1, 229287, Note_on_c, 0, 59, 40
1, 229299, Control_c, 0, 64, 76
1, 229322, Control_c, 0, 64, 75
1, 229351, Control_c, 0, 64, 75
1, 229354, Note_off_c, 0, 59, 39
1, 229366, Control_c, 0, 64, 74
1, 229381, Control_c, 0, 64, 73
1, 229411, Control_c, 0, 64, 73
1, 229425, Control_c, 0, 64, 72
1, 229440, Control_c, 0, 64, 72
1, 229455, Control_c, 0, 64, 71
1, 229469, Control_c, 0, 64, 70
1, 229484, Control_c, 0, 64, 69
1, 229487, Note_off_c, 0, 68, 42
1, 229499, Control_c, 0, 64, 68
1, 229511, Note_off_c, 0, 53, 25
1, 229512, Note_on_c, 0, 66, 54
1, 229514, Control_c, 0, 64, 68
1, 229532, Note_on_c, 0, 42, 35
1, 229544, Control_c, 0, 64, 67
1, 229559, Control_c, 0, 64, 66
1, 229574, Control_c, 0, 64, 65
1, 229588, Control_c, 0, 64, 64
1, 229603, Control_c, 0, 64, 62
1, 229618, Control_c, 0, 64, 57
1, 229633, Control_c, 0, 64, 49
1, 229648, Control_c, 0, 64, 38
1, 229662, Control_c, 0, 64, 0
1, 229781, Control_c, 0, 64, 11
1, 229796, Control_c, 0, 64, 48
1, 229810, Control_c, 0, 64, 58
1, 229825, Control_c, 0, 64, 62
1, 229826, Note_on_c, 0, 54, 21
1, 229840, Control_c, 0, 64, 64
1, 229855, Control_c, 0, 64, 67
1, 229869, Control_c, 0, 64, 68
1, 229884, Control_c, 0, 64, 70
1, 229899, Control_c, 0, 64, 72
1, 229914, Control_c, 0, 64, 74
1, 229929, Control_c, 0, 64, 76
1, 229943, Control_c, 0, 64, 79
1, 229954, Note_on_c, 0, 58, 34
1, 229958, Control_c, 0, 64, 80
1, 229973, Control_c, 0, 64, 81
1, 229983, Note_off_c, 0, 54, 27
1, 229988, Control_c, 0, 64, 82
1, 230003, Control_c, 0, 64, 83
1, 230018, Control_c, 0, 64, 84
1, 230019, Note_off_c, 0, 58, 40
1, 230033, Control_c, 0, 64, 84
1, 230047, Control_c, 0, 64, 85
1, 230069, Control_c, 0, 64, 85
1, 230077, Note_on_c, 0, 61, 33
1, 230100, Control_c, 0, 64, 86
1, 230190, Note_on_c, 0, 58, 33
1, 230200, Note_off_c, 0, 61, 33
1, 230261, Note_off_c, 0, 58, 42
1, 230318, Note_on_c, 0, 54, 28
1, 230366, Note_off_c, 0, 54, 45
1, 230402, Note_on_c, 0, 58, 39
1, 230474, Note_off_c, 0, 58, 36
1, 230516, Note_on_c, 0, 54, 31
1, 230629, Note_on_c, 0, 58, 34
1, 230715, Note_off_c, 0, 66, 42
1, 230720, Note_off_c, 0, 54, 26
1, 230726, Note_on_c, 0, 61, 47
1, 230739, Note_off_c, 0, 42, 41
1, 230744, Note_off_c, 0, 58, 37
1, 230811, Note_off_c, 0, 61, 39
1, 230859, Note_on_c, 0, 58, 39
1, 230907, Note_off_c, 0, 58, 44
1, 230956, Note_on_c, 0, 54, 46
1, 230996, Control_c, 0, 64, 85
1, 231041, Control_c, 0, 64, 85
1, 231056, Control_c, 0, 64, 84
1, 231082, Note_off_c, 0, 54, 36
1, 231085, Control_c, 0, 64, 83
1, 231101, Control_c, 0, 64, 82
1, 231102, Note_on_c, 0, 66, 63
1, 231115, Control_c, 0, 64, 81
1, 231116, Note_on_c, 0, 40, 55
1, 231130, Control_c, 0, 64, 80
1, 231145, Control_c, 0, 64, 78
1, 231160, Control_c, 0, 64, 76
1, 231175, Control_c, 0, 64, 72
1, 231189, Control_c, 0, 64, 65
1, 231204, Control_c, 0, 64, 48
1, 231219, Control_c, 0, 64, 0
1, 231284, Note_on_c, 0, 54, 39
1, 231353, Control_c, 0, 64, 37
1, 231368, Control_c, 0, 64, 53
1, 231382, Control_c, 0, 64, 61
1, 231395, Note_on_c, 0, 58, 39
1, 231397, Control_c, 0, 64, 64
1, 231412, Control_c, 0, 64, 66
1, 231427, Control_c, 0, 64, 69
1, 231441, Control_c, 0, 64, 72
1, 231456, Control_c, 0, 64, 75
1, 231471, Control_c, 0, 64, 77
1, 231474, Note_off_c, 0, 54, 25
1, 231481, Note_off_c, 0, 58, 54
1, 231486, Control_c, 0, 64, 79
1, 231501, Control_c, 0, 64, 80
1, 231503, Note_on_c, 0, 61, 45
1, 231515, Control_c, 0, 64, 81
1, 231530, Control_c, 0, 64, 82
1, 231545, Control_c, 0, 64, 83
1, 231568, Control_c, 0, 64, 83
1, 231583, Control_c, 0, 64, 84
1, 231621, Note_on_c, 0, 58, 54
1, 231705, Note_off_c, 0, 58, 54
1, 231747, Note_on_c, 0, 54, 48
1, 231818, Note_off_c, 0, 54, 45
1, 231820, Note_off_c, 0, 61, 13
1, 231840, Note_on_c, 0, 58, 52
1, 231942, Note_off_c, 0, 58, 60
1, 231957, Note_on_c, 0, 54, 50
1, 232075, Note_on_c, 0, 58, 52
1, 232200, Note_on_c, 0, 61, 59
1, 232200, Note_off_c, 0, 58, 58
1, 232229, Note_off_c, 0, 54, 38
1, 232235, Control_c, 0, 64, 83
1, 232238, Note_off_c, 0, 66, 37
1, 232264, Control_c, 0, 64, 83
1, 232279, Control_c, 0, 64, 82
1, 232324, Note_on_c, 0, 58, 62
1, 232331, Control_c, 0, 64, 82
1, 232390, Control_c, 0, 64, 81
1, 232425, Note_on_c, 0, 54, 62
1, 232435, Control_c, 0, 64, 81
1, 232464, Control_c, 0, 64, 80
1, 232480, Control_c, 0, 64, 80
1, 232495, Control_c, 0, 64, 79
1, 232508, Note_off_c, 0, 58, 28
1, 232510, Control_c, 0, 64, 79
1, 232525, Control_c, 0, 64, 78
1, 232540, Control_c, 0, 64, 77
1, 232554, Control_c, 0, 64, 76
1, 232560, Note_on_c, 0, 66, 80
1, 232566, Note_off_c, 0, 54, 58
1, 232569, Control_c, 0, 64, 75
1, 232580, Note_on_c, 0, 38, 71
1, 232584, Control_c, 0, 64, 74
1, 232599, Control_c, 0, 64, 72
1, 232614, Control_c, 0, 64, 70
1, 232623, Note_off_c, 0, 40, 57
1, 232628, Control_c, 0, 64, 65
1, 232643, Control_c, 0, 64, 60
1, 232658, Control_c, 0, 64, 31
1, 232673, Control_c, 0, 64, 0
1, 232745, Note_on_c, 0, 54, 48
1, 232757, Note_off_c, 0, 61, 43
1, 232791, Control_c, 0, 64, 27
1, 232806, Control_c, 0, 64, 58
1, 232821, Control_c, 0, 64, 65
1, 232835, Control_c, 0, 64, 67
1, 232850, Control_c, 0, 64, 69
1, 232853, Note_on_c, 0, 59, 56
1, 232865, Control_c, 0, 64, 71
1, 232879, Control_c, 0, 64, 73
1, 232894, Control_c, 0, 64, 75
1, 232894, Control_c, 0, 67, 126
1, 232909, Control_c, 0, 64, 78
1, 232909, Control_c, 0, 67, 125
1, 232924, Control_c, 0, 64, 80
1, 232924, Control_c, 0, 67, 124
1, 232939, Control_c, 0, 64, 81
1, 232939, Control_c, 0, 67, 123
1, 232954, Control_c, 0, 64, 82
1, 232954, Control_c, 0, 67, 122
1, 232957, Note_on_c, 0, 62, 59
1, 232969, Note_off_c, 0, 59, 57
1, 232969, Control_c, 0, 64, 82
1, 232969, Control_c, 0, 67, 121
1, 232984, Control_c, 0, 67, 120
1, 232987, Note_off_c, 0, 54, 34
1, 232999, Control_c, 0, 67, 120
1, 233043, Control_c, 0, 67, 120
1, 233091, Note_on_c, 0, 59, 58
1, 233124, Control_c, 0, 67, 120
1, 233154, Control_c, 0, 67, 119
1, 233169, Control_c, 0, 67, 118
1, 233169, Note_off_c, 0, 59, 61
1, 233171, Note_on_c, 0, 54, 65
1, 233183, Control_c, 0, 67, 115
1, 233198, Control_c, 0, 64, 83
1, 233198, Control_c, 0, 67, 109
1, 233213, Control_c, 0, 67, 103
1, 233228, Control_c, 0, 67, 98
1, 233243, Control_c, 0, 67, 95
1, 233258, Control_c, 0, 64, 83
1, 233258, Control_c, 0, 67, 93
1, 233273, Control_c, 0, 67, 89
1, 233285, Note_on_c, 0, 59, 72
1, 233288, Control_c, 0, 67, 85
1, 233299, Note_off_c, 0, 54, 53
1, 233303, Control_c, 0, 67, 82
1, 233347, Control_c, 0, 67, 83
1, 233377, Control_c, 0, 64, 84
1, 233386, Note_on_c, 0, 54, 64
1, 233392, Control_c, 0, 67, 82
1, 233392, Note_off_c, 0, 59, 60
1, 233422, Control_c, 0, 67, 83
1, 233437, Control_c, 0, 67, 83
1, 233481, Control_c, 0, 64, 84
1, 233498, Note_on_c, 0, 59, 73
1, 233510, Control_c, 0, 67, 84
1, 233520, Note_off_c, 0, 62, 37
1, 233525, Control_c, 0, 67, 85
1, 233540, Control_c, 0, 67, 85
1, 233547, Note_off_c, 0, 38, 58
1, 233555, Control_c, 0, 67, 86
1, 233591, Note_off_c, 0, 59, 56
1, 233596, Note_on_c, 0, 62, 77
1, 233599, Control_c, 0, 67, 87
1, 233628, Control_c, 0, 67, 88
1, 233642, Note_off_c, 0, 54, 35
1, 233643, Control_c, 0, 67, 88
1, 233688, Control_c, 0, 64, 84
1, 233688, Control_c, 0, 67, 89
1, 233689, Note_on_c, 0, 59, 75
1, 233702, Control_c, 0, 67, 90
1, 233717, Control_c, 0, 64, 83
1, 233717, Control_c, 0, 67, 91
1, 233724, Note_on_c, 0, 38, 69
1, 233732, Control_c, 0, 64, 83
1, 233762, Control_c, 0, 64, 82
1, 233787, Note_off_c, 0, 59, 59
1, 233792, Note_on_c, 0, 54, 79
1, 233792, Control_c, 0, 64, 82
1, 233829, Control_c, 0, 64, 81
1, 233843, Control_c, 0, 64, 81
1, 233858, Control_c, 0, 67, 90
1, 233863, Note_off_c, 0, 66, 23
1, 233873, Control_c, 0, 64, 80
1, 233888, Control_c, 0, 67, 90
1, 233903, Control_c, 0, 67, 89
1, 233917, Control_c, 0, 64, 80
1, 233917, Control_c, 0, 67, 89
1, 233932, Control_c, 0, 64, 79
1, 233932, Control_c, 0, 67, 88
1, 233947, Control_c, 0, 64, 78
1, 233955, Note_on_c, 0, 66, 94
1, 233958, Note_off_c, 0, 54, 52
1, 233962, Control_c, 0, 64, 77
1, 233962, Control_c, 0, 67, 88
1, 233968, Note_on_c, 0, 37, 64
1, 233977, Control_c, 0, 64, 74
1, 233977, Control_c, 0, 67, 87
1, 233991, Control_c, 0, 64, 71
1, 233994, Note_off_c, 0, 62, 59
1, 234006, Control_c, 0, 64, 64
1, 234011, Note_off_c, 0, 38, 61
1, 234021, Control_c, 0, 64, 0
1, 234051, Control_c, 0, 67, 87
1, 234112, Control_c, 0, 67, 86
1, 234137, Note_on_c, 0, 38, 69
1, 234137, Note_on_c, 0, 54, 66
1, 234141, Note_off_c, 0, 37, 64
1, 234171, Control_c, 0, 64, 63
1, 234186, Control_c, 0, 64, 68
1, 234201, Control_c, 0, 64, 71
1, 234201, Control_c, 0, 67, 87
1, 234213, Note_off_c, 0, 38, 62
1, 234215, Control_c, 0, 64, 73
1, 234215, Control_c, 0, 67, 87
1, 234220, Note_on_c, 0, 37, 60
1, 234230, Control_c, 0, 64, 76
1, 234230, Control_c, 0, 67, 88
1, 234245, Control_c, 0, 64, 78
1, 234245, Control_c, 0, 67, 89
1, 234248, Note_on_c, 0, 58, 63
1, 234260, Control_c, 0, 64, 80
1, 234260, Control_c, 0, 67, 90
1, 234274, Control_c, 0, 64, 82
1, 234274, Control_c, 0, 67, 90
1, 234288, Note_off_c, 0, 37, 65
1, 234289, Control_c, 0, 64, 83
1, 234289, Control_c, 0, 67, 91
1, 234304, Control_c, 0, 64, 84
1, 234304, Control_c, 0, 67, 92
1, 234308, Note_on_c, 0, 38, 65
1, 234319, Control_c, 0, 64, 85
1, 234319, Control_c, 0, 67, 93
1, 234334, Control_c, 0, 64, 86
1, 234334, Control_c, 0, 67, 94
1, 234349, Control_c, 0, 64, 86
1, 234360, Note_off_c, 0, 38, 61
1, 234370, Note_on_c, 0, 37, 64
1, 234379, Control_c, 0, 67, 94
1, 234382, Note_on_c, 0, 64, 78
1, 234394, Control_c, 0, 67, 95
1, 234397, Note_off_c, 0, 58, 63
1, 234403, Note_off_c, 0, 54, 53
1, 234408, Control_c, 0, 67, 96
1, 234423, Note_off_c, 0, 37, 63
1, 234423, Control_c, 0, 67, 97
1, 234450, Note_on_c, 0, 38, 64
1, 234467, Control_c, 0, 67, 98
1, 234482, Control_c, 0, 67, 99
1, 234486, Note_off_c, 0, 38, 61
1, 234489, Note_on_c, 0, 58, 72
1, 234497, Control_c, 0, 67, 102
1, 234506, Note_on_c, 0, 37, 65
1, 234512, Control_c, 0, 67, 106
1, 234526, Control_c, 0, 67, 110
1, 234541, Control_c, 0, 67, 113
1, 234548, Note_off_c, 0, 66, 51
1, 234562, Note_off_c, 0, 37, 62
1, 234578, Control_c, 0, 67, 113
1, 234579, Note_on_c, 0, 38, 72
1, 234590, Note_on_c, 0, 54, 75
1, 234593, Control_c, 0, 67, 115
1, 234608, Control_c, 0, 67, 119
1, 234616, Note_off_c, 0, 58, 56
1, 234623, Control_c, 0, 67, 125
1, 234634, Note_off_c, 0, 38, 59
1, 234638, Control_c, 0, 67, 127
1, 234653, Note_on_c, 0, 37, 66
1, 234701, Note_off_c, 0, 37, 63
1, 234718, Note_on_c, 0, 38, 70
1, 234734, Note_off_c, 0, 64, 0
1, 234739, Note_on_c, 0, 67, 87
1, 234757, Note_on_c, 0, 64, 43
1, 234759, Note_on_c, 0, 58, 53
1, 234771, Note_off_c, 0, 38, 58
1, 234784, Note_on_c, 0, 37, 66
1, 234837, Note_off_c, 0, 37, 63
1, 234851, Note_on_c, 0, 38, 75
1, 234859, Control_c, 0, 67, 127
1, 234886, Note_off_c, 0, 67, 60
1, 234904, Control_c, 0, 67, 127
1, 234909, Note_off_c, 0, 38, 59
1, 234912, Note_on_c, 0, 37, 70
1, 234913, Note_off_c, 0, 54, 61
1, 234919, Control_c, 0, 64, 87
1, 234957, Note_off_c, 0, 58, 63
1, 234963, Control_c, 0, 64, 87
1, 234971, Note_off_c, 0, 37, 65
1, 234977, Note_off_c, 0, 64, 53
1, 234978, Note_on_c, 0, 38, 78
1, 234978, Control_c, 0, 64, 88
1, 234993, Control_c, 0, 64, 88
1, 235008, Control_c, 0, 64, 89
1, 235031, Note_on_c, 0, 37, 71
1, 235035, Note_off_c, 0, 38, 60
1, 235038, Control_c, 0, 64, 89
1, 235098, Note_off_c, 0, 37, 64
1, 235106, Note_on_c, 0, 66, 87
1, 235111, Note_on_c, 0, 38, 72
1, 235121, Note_on_c, 0, 54, 72
1, 235124, Note_on_c, 0, 64, 67
1, 235165, Note_on_c, 0, 58, 26
1, 235178, Note_on_c, 0, 37, 71
1, 235188, Note_off_c, 0, 38, 56
1, 235246, Note_off_c, 0, 37, 64
1, 235247, Note_on_c, 0, 35, 76
1, 235276, Note_off_c, 0, 64, 61
1, 235313, Note_off_c, 0, 66, 63
1, 235342, Control_c, 0, 64, 89
1, 235348, Note_on_c, 0, 37, 79
1, 235355, Note_off_c, 0, 35, 63
1, 235386, Control_c, 0, 64, 88
1, 235416, Control_c, 0, 64, 88
1, 235430, Control_c, 0, 64, 87
1, 235445, Control_c, 0, 64, 86
1, 235460, Control_c, 0, 64, 86
1, 235475, Control_c, 0, 67, 127
1, 235489, Control_c, 0, 64, 85
1, 235519, Control_c, 0, 64, 85
1, 235534, Control_c, 0, 64, 84
1, 235541, Note_off_c, 0, 54, 52
1, 235549, Control_c, 0, 64, 83
1, 235552, Note_on_c, 0, 66, 92
1, 235560, Note_on_c, 0, 35, 78
1, 235563, Control_c, 0, 64, 82
1, 235563, Control_c, 0, 67, 126
1, 235578, Control_c, 0, 64, 81
1, 235582, Note_off_c, 0, 58, 52
1, 235586, Note_off_c, 0, 37, 64
1, 235593, Control_c, 0, 64, 80
1, 235593, Control_c, 0, 67, 126
1, 235607, Control_c, 0, 64, 78
1, 235607, Control_c, 0, 67, 125
1, 235622, Control_c, 0, 64, 74
1, 235637, Control_c, 0, 64, 69
1, 235652, Control_c, 0, 64, 61
1, 235652, Control_c, 0, 67, 124
1, 235667, Control_c, 0, 64, 0
1, 235683, Control_c, 0, 67, 123
1, 235698, Control_c, 0, 67, 123
1, 235712, Control_c, 0, 67, 122
1, 235727, Control_c, 0, 67, 121
1, 235742, Control_c, 0, 67, 121
1, 235757, Control_c, 0, 67, 120
1, 235772, Control_c, 0, 67, 120
1, 235801, Control_c, 0, 67, 119
1, 235810, Note_on_c, 0, 54, 60
1, 235816, Control_c, 0, 67, 118
1, 235831, Control_c, 0, 67, 116
1, 235846, Control_c, 0, 67, 115
1, 235860, Control_c, 0, 64, 47
1, 235860, Control_c, 0, 67, 115
1, 235875, Control_c, 0, 64, 65
1, 235875, Control_c, 0, 67, 114
1, 235890, Control_c, 0, 64, 69
1, 235890, Control_c, 0, 67, 114
1, 235905, Control_c, 0, 64, 73
1, 235919, Note_on_c, 0, 59, 62
1, 235920, Control_c, 0, 64, 77
1, 235935, Control_c, 0, 64, 82
1, 235935, Control_c, 0, 67, 113
1, 235950, Control_c, 0, 64, 85
1, 235950, Control_c, 0, 67, 113
1, 235965, Control_c, 0, 64, 89
1, 235979, Control_c, 0, 64, 93
1, 235979, Control_c, 0, 67, 112
1, 235994, Control_c, 0, 64, 96
1, 235994, Control_c, 0, 67, 112
1, 236009, Control_c, 0, 64, 99
1, 236023, Control_c, 0, 64, 102
1, 236038, Control_c, 0, 64, 105
1, 236038, Control_c, 0, 67, 111
1, 236041, Note_on_c, 0, 62, 69
1, 236056, Note_off_c, 0, 54, 58
1, 236060, Control_c, 0, 64, 107
1, 236060, Control_c, 0, 67, 111
1, 236065, Note_off_c, 0, 59, 60
1, 236075, Control_c, 0, 64, 110
1, 236075, Control_c, 0, 67, 110
1, 236090, Control_c, 0, 64, 112
1, 236105, Control_c, 0, 64, 114
1, 236105, Control_c, 0, 67, 111
1, 236120, Control_c, 0, 64, 116
1, 236120, Control_c, 0, 67, 111
1, 236135, Control_c, 0, 64, 118
1, 236135, Control_c, 0, 67, 112
1, 236149, Control_c, 0, 64, 121
1, 236149, Control_c, 0, 67, 113
1, 236164, Note_on_c, 0, 59, 72
1, 236164, Control_c, 0, 64, 127
1, 236164, Control_c, 0, 67, 114
1, 236179, Control_c, 0, 64, 127
1, 236179, Control_c, 0, 67, 116
1, 236194, Note_off_c, 0, 62, 47
1, 236194, Control_c, 0, 67, 118
1, 236209, Control_c, 0, 67, 120
1, 236224, Control_c, 0, 67, 121
1, 236238, Control_c, 0, 67, 123
1, 236258, Note_on_c, 0, 54, 67
1, 236258, Note_off_c, 0, 59, 61
1, 236268, Control_c, 0, 67, 122
1, 236283, Control_c, 0, 67, 121
1, 236298, Control_c, 0, 67, 120
1, 236310, Poly_aftertouch_c, 0, 62, 127
1, 236327, Control_c, 0, 67, 121
1, 236368, Note_on_c, 0, 59, 74
1, 236379, Note_off_c, 0, 54, 58
1, 236400, Poly_aftertouch_c, 0, 62, 0
1, 236401, Control_c, 0, 67, 120
1, 236416, Control_c, 0, 67, 119
1, 236430, Control_c, 0, 67, 118
1, 236445, Control_c, 0, 67, 117
1, 236460, Control_c, 0, 67, 116
1, 236476, Control_c, 0, 67, 116
1, 236481, Note_on_c, 0, 54, 76
1, 236486, Note_off_c, 0, 59, 61
1, 236491, Control_c, 0, 67, 114
1, 236506, Control_c, 0, 67, 111
1, 236521, Control_c, 0, 67, 109
1, 236535, Control_c, 0, 67, 105
1, 236550, Control_c, 0, 67, 97
1, 236565, Control_c, 0, 67, 88
1, 236580, Control_c, 0, 67, 77
1, 236589, Note_on_c, 0, 59, 77
1, 236592, Note_off_c, 0, 66, 59
1, 236595, Control_c, 0, 67, 67
1, 236609, Control_c, 0, 67, 59
1, 236624, Control_c, 0, 67, 58
1, 236653, Control_c, 0, 67, 59
1, 236683, Control_c, 0, 67, 60
1, 236698, Control_c, 0, 67, 62
1, 236701, Note_on_c, 0, 62, 82
1, 236713, Control_c, 0, 67, 63
1, 236725, Note_off_c, 0, 59, 58
1, 236728, Control_c, 0, 67, 65
1, 236731, Note_off_c, 0, 54, 43
1, 236758, Control_c, 0, 67, 65
1, 236772, Control_c, 0, 67, 66
1, 236787, Control_c, 0, 67, 67
1, 236809, Control_c, 0, 67, 70
1, 236824, Control_c, 0, 67, 71
1, 236835, Note_on_c, 0, 59, 80
1, 236837, Note_off_c, 0, 62, 62
1, 236839, Control_c, 0, 67, 73
1, 236853, Control_c, 0, 67, 75
1, 236868, Control_c, 0, 67, 76
1, 236927, Control_c, 0, 67, 76
1, 236931, Note_off_c, 0, 59, 58
1, 236948, Note_on_c, 0, 54, 82
1, 236957, Control_c, 0, 67, 77
1, 236972, Control_c, 0, 67, 79
1, 236987, Control_c, 0, 67, 81
1, 237002, Control_c, 0, 64, 124
1, 237002, Control_c, 0, 67, 84
1, 237017, Control_c, 0, 64, 121
1, 237017, Control_c, 0, 67, 86
1, 237032, Control_c, 0, 64, 117
1, 237032, Control_c, 0, 67, 88
1, 237047, Control_c, 0, 64, 115
1, 237047, Control_c, 0, 67, 90
1, 237061, Control_c, 0, 64, 113
1, 237061, Control_c, 0, 67, 90
1, 237076, Control_c, 0, 64, 111
1, 237090, Control_c, 0, 64, 109
1, 237105, Control_c, 0, 64, 107
1, 237120, Control_c, 0, 64, 106
1, 237134, Control_c, 0, 64, 104
1, 237142, Note_on_c, 0, 38, 77
1, 237149, Control_c, 0, 64, 102
1, 237149, Control_c, 0, 67, 90
1, 237160, Note_off_c, 0, 54, 53
1, 237164, Control_c, 0, 64, 100
1, 237179, Control_c, 0, 64, 97
1, 237179, Control_c, 0, 67, 89
1, 237194, Control_c, 0, 64, 94
1, 237208, Note_on_c, 0, 60, 84
1, 237208, Control_c, 0, 64, 90
1, 237208, Control_c, 0, 67, 89
1, 237223, Control_c, 0, 64, 85
1, 237223, Control_c, 0, 67, 88
1, 237225, Note_off_c, 0, 35, 2
1, 237238, Control_c, 0, 64, 81
1, 237252, Control_c, 0, 64, 75
1, 237267, Control_c, 0, 64, 69
1, 237267, Control_c, 0, 67, 88
1, 237283, Control_c, 0, 64, 63
1, 237298, Control_c, 0, 64, 48
1, 237298, Control_c, 0, 67, 87
1, 237313, Control_c, 0, 64, 0
1, 237313, Control_c, 0, 67, 88
1, 237431, Control_c, 0, 67, 88
1, 237446, Control_c, 0, 67, 89
1, 237461, Control_c, 0, 67, 89
1, 237476, Control_c, 0, 67, 90
1, 237483, Note_on_c, 0, 48, 58
1, 237506, Control_c, 0, 67, 91
1, 237572, Control_c, 0, 67, 92
1, 237587, Control_c, 0, 64, 46
1, 237587, Control_c, 0, 67, 92
1, 237602, Control_c, 0, 64, 58
1, 237602, Control_c, 0, 67, 94
1, 237617, Control_c, 0, 64, 62
1, 237617, Control_c, 0, 67, 99
1, 237622, Note_on_c, 0, 54, 50
1, 237631, Control_c, 0, 64, 64
1, 237631, Control_c, 0, 67, 101
1, 237646, Control_c, 0, 64, 66
1, 237646, Control_c, 0, 67, 104
1, 237661, Control_c, 0, 64, 68
1, 237661, Control_c, 0, 67, 107
1, 237676, Control_c, 0, 64, 71
1, 237676, Control_c, 0, 67, 109
1, 237691, Control_c, 0, 64, 74
1, 237691, Control_c, 0, 67, 112
1, 237705, Control_c, 0, 64, 76
1, 237705, Control_c, 0, 67, 115
1, 237720, Control_c, 0, 64, 79
1, 237720, Control_c, 0, 67, 118
1, 237735, Control_c, 0, 64, 80
1, 237735, Control_c, 0, 67, 120
1, 237750, Control_c, 0, 64, 81
1, 237750, Control_c, 0, 67, 123
1, 237760, Note_on_c, 0, 57, 52
1, 237765, Control_c, 0, 64, 82
1, 237765, Control_c, 0, 67, 126
1, 237775, Note_off_c, 0, 48, 39
1, 237780, Control_c, 0, 64, 83
1, 237780, Control_c, 0, 67, 127
1, 237786, Note_off_c, 0, 54, 37
1, 237795, Control_c, 0, 64, 84
1, 237809, Control_c, 0, 64, 85
1, 237824, Control_c, 0, 64, 86
1, 237839, Control_c, 0, 64, 86
1, 237854, Control_c, 0, 64, 87
1, 237883, Control_c, 0, 64, 87
1, 237886, Note_off_c, 0, 57, 55
1, 237912, Note_on_c, 0, 54, 41
1, 237913, Control_c, 0, 64, 88
1, 237943, Control_c, 0, 64, 88
1, 237974, Note_off_c, 0, 54, 52
1, 238003, Note_on_c, 0, 48, 38
1, 238093, Note_off_c, 0, 48, 37
1, 238104, Note_on_c, 0, 54, 50
1, 238200, Note_off_c, 0, 54, 53
1, 238227, Note_on_c, 0, 48, 39
1, 238354, Note_on_c, 0, 54, 40
1, 238444, Note_off_c, 0, 48, 31
1, 238456, Note_off_c, 0, 54, 37
1, 238466, Note_on_c, 0, 57, 44
1, 238480, Note_off_c, 0, 60, 37
1, 238543, Control_c, 0, 64, 88
1, 238573, Control_c, 0, 64, 87
1, 238588, Note_on_c, 0, 54, 41
1, 238591, Note_off_c, 0, 57, 36
1, 238603, Control_c, 0, 64, 87
1, 238647, Control_c, 0, 64, 86
1, 238692, Control_c, 0, 64, 86
1, 238716, Note_off_c, 0, 54, 35
1, 238716, Note_on_c, 0, 48, 42
1, 238751, Control_c, 0, 64, 85
1, 238780, Control_c, 0, 64, 85
1, 238795, Control_c, 0, 64, 84
1, 238810, Control_c, 0, 64, 83
1, 238824, Control_c, 0, 64, 82
1, 238839, Control_c, 0, 64, 81
1, 238854, Control_c, 0, 64, 79
1, 238870, Control_c, 0, 64, 77
1, 238882, Note_off_c, 0, 48, 31
1, 238885, Control_c, 0, 64, 74
1, 238900, Control_c, 0, 64, 72
1, 238907, Note_on_c, 0, 61, 60
1, 238914, Control_c, 0, 64, 69
1, 238929, Control_c, 0, 64, 67
1, 238932, Note_on_c, 0, 37, 47
1, 238944, Control_c, 0, 64, 65
1, 238959, Control_c, 0, 64, 63
1, 238974, Control_c, 0, 64, 61
1, 238989, Control_c, 0, 64, 57
1, 239000, Note_off_c, 0, 38, 58
1, 239003, Control_c, 0, 64, 52
1, 239018, Control_c, 0, 64, 46
1, 239033, Control_c, 0, 64, 38
1, 239055, Control_c, 0, 64, 14
1, 239070, Control_c, 0, 64, 0
1, 239121, Note_on_c, 0, 49, 27
1, 239221, Note_on_c, 0, 54, 33
1, 239277, Control_c, 0, 64, 32
1, 239292, Control_c, 0, 64, 60
1, 239307, Control_c, 0, 64, 65
1, 239316, Note_off_c, 0, 49, 21
1, 239321, Control_c, 0, 64, 69
1, 239333, Note_on_c, 0, 58, 38
1, 239336, Control_c, 0, 64, 71
1, 239340, Note_off_c, 0, 54, 36
1, 239351, Control_c, 0, 64, 74
1, 239366, Control_c, 0, 64, 78
1, 239381, Control_c, 0, 64, 80
1, 239396, Control_c, 0, 64, 81
1, 239411, Control_c, 0, 64, 82
1, 239425, Control_c, 0, 64, 83
1, 239434, Note_off_c, 0, 58, 49
1, 239440, Control_c, 0, 64, 85
1, 239455, Note_on_c, 0, 54, 47
1, 239455, Control_c, 0, 64, 86
1, 239470, Control_c, 0, 64, 87
1, 239485, Control_c, 0, 64, 87
1, 239500, Control_c, 0, 64, 88
1, 239514, Note_off_c, 0, 54, 53
1, 239515, Control_c, 0, 64, 88
1, 239559, Control_c, 0, 64, 89
1, 239569, Note_on_c, 0, 49, 31
1, 239625, Note_off_c, 0, 49, 46
1, 239662, Note_on_c, 0, 54, 36
1, 239752, Note_off_c, 0, 54, 50
1, 239780, Note_on_c, 0, 49, 30
1, 239866, Note_off_c, 0, 49, 38
1, 239898, Note_off_c, 0, 37, 41
1, 239909, Note_on_c, 0, 54, 35
1, 239914, Note_off_c, 0, 61, 34
1, 239955, Note_off_c, 0, 54, 45
1, 240025, Note_on_c, 0, 58, 19
1, 240069, Note_off_c, 0, 58, 48
1, 240085, Control_c, 0, 64, 88
1, 240092, Note_on_c, 0, 54, 38
1, 240159, Control_c, 0, 64, 88
1, 240161, Note_off_c, 0, 54, 36
1, 240203, Control_c, 0, 64, 87
1, 240207, Note_on_c, 0, 49, 38
1, 240233, Control_c, 0, 64, 87
1, 240259, Note_off_c, 0, 49, 42
1, 240263, Control_c, 0, 64, 86
1, 240293, Control_c, 0, 64, 86
1, 240308, Control_c, 0, 64, 85
1, 240323, Control_c, 0, 64, 85
1, 240338, Control_c, 0, 64, 84
1, 240352, Control_c, 0, 64, 83
1, 240364, Note_on_c, 0, 61, 55
1, 240367, Control_c, 0, 64, 81
1, 240382, Control_c, 0, 64, 79
1, 240385, Note_on_c, 0, 37, 34
1, 240396, Control_c, 0, 64, 77
1, 240411, Control_c, 0, 64, 74
1, 240426, Control_c, 0, 64, 68
1, 240441, Control_c, 0, 64, 61
1, 240456, Control_c, 0, 64, 37
1, 240472, Control_c, 0, 64, 48
1, 240487, Control_c, 0, 64, 58
1, 240501, Note_on_c, 0, 53, 33
1, 240501, Control_c, 0, 64, 62
1, 240516, Control_c, 0, 64, 64
1, 240531, Control_c, 0, 64, 67
1, 240553, Control_c, 0, 64, 71
1, 240568, Control_c, 0, 64, 76
1, 240582, Control_c, 0, 64, 80
1, 240587, Note_off_c, 0, 61, 54
1, 240597, Control_c, 0, 64, 83
1, 240612, Note_on_c, 0, 56, 21
1, 240612, Control_c, 0, 64, 84
1, 240618, Note_off_c, 0, 53, 43
1, 240627, Control_c, 0, 64, 86
1, 240642, Control_c, 0, 64, 87
1, 240654, Note_off_c, 0, 56, 40
1, 240657, Control_c, 0, 64, 88
1, 240671, Control_c, 0, 64, 89
1, 240746, Control_c, 0, 64, 89
1, 240758, Note_on_c, 0, 71, 51
1, 240787, Note_on_c, 0, 49, 41
1, 240806, Note_off_c, 0, 37, 41
1, 240890, Note_on_c, 0, 59, 33
1, 240938, Control_c, 0, 64, 90
1, 240982, Control_c, 0, 64, 90
1, 240986, Note_off_c, 0, 71, 34
1, 240997, Control_c, 0, 64, 91
1, 240999, Note_on_c, 0, 61, 43
1, 241011, Control_c, 0, 64, 91
1, 241026, Control_c, 0, 64, 92
1, 241041, Control_c, 0, 64, 92
1, 241056, Control_c, 0, 64, 93
1, 241061, Note_off_c, 0, 49, 34
1, 241071, Control_c, 0, 64, 93
1, 241086, Note_off_c, 0, 59, 37
1, 241101, Control_c, 0, 64, 94
1, 241105, Note_off_c, 0, 61, 46
1, 241106, Note_on_c, 0, 68, 64
1, 241116, Control_c, 0, 64, 94
1, 241157, Note_on_c, 0, 53, 24
1, 241175, Control_c, 0, 64, 95
1, 241222, Note_on_c, 0, 59, 40
1, 241234, Control_c, 0, 64, 95
1, 241340, Note_on_c, 0, 61, 47
1, 241379, Note_off_c, 0, 68, 53
1, 241396, Note_off_c, 0, 59, 41
1, 241476, Note_off_c, 0, 61, 51
1, 241476, Note_on_c, 0, 65, 62
1, 241500, Note_on_c, 0, 56, 36
1, 241569, Control_c, 0, 64, 95
1, 241572, Note_off_c, 0, 53, 30
1, 241598, Control_c, 0, 64, 94
1, 241616, Note_on_c, 0, 59, 34
1, 241628, Control_c, 0, 64, 93
1, 241642, Control_c, 0, 64, 93
1, 241652, Note_off_c, 0, 56, 38
1, 241672, Control_c, 0, 64, 92
1, 241684, Note_off_c, 0, 59, 41
1, 241687, Control_c, 0, 64, 92
1, 241702, Control_c, 0, 64, 91
1, 241709, Note_off_c, 0, 65, 62
1, 241716, Control_c, 0, 64, 91
1, 241746, Control_c, 0, 64, 90
1, 241748, Note_on_c, 0, 61, 44
1, 241761, Control_c, 0, 64, 90
1, 241790, Control_c, 0, 64, 89
1, 241805, Control_c, 0, 64, 89
1, 241835, Control_c, 0, 64, 88
1, 241864, Control_c, 0, 64, 88
1, 241879, Control_c, 0, 64, 87
1, 241887, Note_off_c, 0, 61, 47
1, 241894, Control_c, 0, 64, 87
1, 241909, Control_c, 0, 64, 86
1, 241923, Control_c, 0, 64, 86
1, 241953, Control_c, 0, 64, 85
1, 241963, Note_on_c, 0, 66, 60
1, 241968, Control_c, 0, 64, 84
1, 241983, Control_c, 0, 64, 83
1, 241998, Control_c, 0, 64, 82
1, 242001, Note_on_c, 0, 42, 37
1, 242013, Control_c, 0, 64, 81
1, 242028, Control_c, 0, 64, 80
1, 242049, Control_c, 0, 64, 78
1, 242064, Control_c, 0, 64, 76
1, 242080, Control_c, 0, 64, 72
1, 242095, Control_c, 0, 64, 66
1, 242110, Control_c, 0, 64, 56
1, 242125, Control_c, 0, 64, 16
1, 242140, Control_c, 0, 64, 0
1, 242195, Note_on_c, 0, 54, 39
1, 242258, Control_c, 0, 64, 47
1, 242272, Control_c, 0, 64, 59
1, 242287, Control_c, 0, 64, 63
1, 242302, Control_c, 0, 64, 66
1, 242317, Control_c, 0, 64, 68
1, 242331, Note_on_c, 0, 58, 29
1, 242332, Control_c, 0, 64, 71
1, 242347, Control_c, 0, 64, 75
1, 242362, Control_c, 0, 64, 79
1, 242377, Control_c, 0, 64, 82
1, 242388, Note_off_c, 0, 54, 30
1, 242391, Control_c, 0, 64, 84
1, 242406, Control_c, 0, 64, 86
1, 242410, Note_off_c, 0, 58, 52
1, 242421, Control_c, 0, 64, 87
1, 242436, Control_c, 0, 64, 88
1, 242442, Note_on_c, 0, 61, 34
1, 242451, Control_c, 0, 64, 90
1, 242465, Control_c, 0, 64, 91
1, 242480, Control_c, 0, 64, 92
1, 242495, Control_c, 0, 64, 92
1, 242510, Control_c, 0, 64, 93
1, 242554, Control_c, 0, 64, 93
1, 242555, Note_on_c, 0, 58, 40
1, 242559, Note_off_c, 0, 61, 33
1, 242606, Note_off_c, 0, 58, 50
1, 242615, Note_off_c, 0, 66, 0
1, 242653, Poly_aftertouch_c, 0, 66, 127
1, 242656, Note_on_c, 0, 54, 34
1, 242714, Note_off_c, 0, 54, 41
1, 242744, Note_on_c, 0, 58, 41
1, 242821, Note_off_c, 0, 58, 57
1, 242852, Note_on_c, 0, 54, 41
1, 242959, Note_on_c, 0, 58, 46
1, 243041, Poly_aftertouch_c, 0, 66, 0
1, 243062, Note_off_c, 0, 58, 55
1, 243075, Note_on_c, 0, 61, 47
1, 243083, Note_off_c, 0, 54, 36
1, 243184, Control_c, 0, 64, 93
1, 243195, Note_on_c, 0, 58, 53
1, 243229, Control_c, 0, 64, 92
1, 243274, Control_c, 0, 64, 92
1, 243286, Note_on_c, 0, 54, 58
1, 243318, Control_c, 0, 64, 91
1, 243362, Control_c, 0, 64, 91
1, 243377, Control_c, 0, 64, 90
1, 243392, Control_c, 0, 64, 90
1, 243404, Note_off_c, 0, 54, 28
1, 243407, Control_c, 0, 64, 89
1, 243413, Note_on_c, 0, 66, 71
1, 243421, Control_c, 0, 64, 88
1, 243431, Note_on_c, 0, 40, 61
1, 243436, Control_c, 0, 64, 87
1, 243451, Control_c, 0, 64, 86
1, 243466, Control_c, 0, 64, 84
1, 243470, Note_off_c, 0, 42, 38
1, 243481, Control_c, 0, 64, 82
1, 243495, Control_c, 0, 64, 80
1, 243510, Control_c, 0, 64, 77
1, 243525, Control_c, 0, 64, 73
1, 243548, Control_c, 0, 64, 68
1, 243562, Note_off_c, 0, 58, 14
1, 243563, Control_c, 0, 64, 62
1, 243570, Note_off_c, 0, 61, 8
1, 243577, Control_c, 0, 64, 36
1, 243592, Note_on_c, 0, 54, 48
1, 243592, Control_c, 0, 64, 0
1, 243636, Control_c, 0, 64, 35
1, 243651, Control_c, 0, 64, 52
1, 243667, Control_c, 0, 64, 60
1, 243682, Control_c, 0, 64, 65
1, 243691, Note_on_c, 0, 58, 48
1, 243697, Control_c, 0, 64, 68
1, 243711, Control_c, 0, 64, 72
1, 243726, Control_c, 0, 64, 76
1, 243741, Control_c, 0, 64, 80
1, 243756, Control_c, 0, 64, 83
1, 243771, Control_c, 0, 64, 85
1, 243771, Control_c, 0, 67, 127
1, 243786, Control_c, 0, 64, 87
1, 243786, Control_c, 0, 67, 124
1, 243800, Control_c, 0, 64, 89
1, 243800, Control_c, 0, 67, 123
1, 243810, Note_off_c, 0, 58, 58
1, 243815, Note_on_c, 0, 61, 56
1, 243815, Control_c, 0, 64, 91
1, 243815, Control_c, 0, 67, 122
1, 243816, Note_off_c, 0, 54, 33
1, 243831, Control_c, 0, 64, 93
1, 243845, Control_c, 0, 64, 93
1, 243860, Control_c, 0, 64, 94
1, 243860, Control_c, 0, 67, 121
1, 243875, Control_c, 0, 64, 95
1, 243875, Control_c, 0, 67, 120
1, 243890, Control_c, 0, 64, 96
1, 243890, Control_c, 0, 67, 119
1, 243905, Control_c, 0, 64, 97
1, 243905, Control_c, 0, 67, 117
1, 243919, Control_c, 0, 64, 98
1, 243919, Control_c, 0, 67, 116
1, 243933, Note_on_c, 0, 58, 61
1, 243934, Control_c, 0, 64, 99
1, 243949, Control_c, 0, 64, 99
1, 243949, Control_c, 0, 67, 116
1, 243964, Control_c, 0, 64, 100
1, 243964, Control_c, 0, 67, 115
1, 243979, Control_c, 0, 64, 100
1, 243979, Control_c, 0, 67, 113
1, 243993, Control_c, 0, 64, 101
1, 243993, Control_c, 0, 67, 111
1, 244008, Control_c, 0, 64, 101
1, 244008, Control_c, 0, 67, 110
1, 244022, Note_off_c, 0, 58, 61
1, 244023, Control_c, 0, 64, 102
1, 244023, Control_c, 0, 67, 109
1, 244032, Note_on_c, 0, 54, 57
1, 244037, Control_c, 0, 67, 109
1, 244052, Control_c, 0, 64, 102
1, 244052, Control_c, 0, 67, 108
1, 244067, Control_c, 0, 64, 103
1, 244067, Control_c, 0, 67, 108
1, 244082, Control_c, 0, 64, 103
1, 244082, Control_c, 0, 67, 107
1, 244097, Control_c, 0, 67, 106
1, 244111, Control_c, 0, 64, 104
1, 244111, Control_c, 0, 67, 104
1, 244126, Control_c, 0, 67, 101
1, 244127, Note_off_c, 0, 54, 58
1, 244132, Note_on_c, 0, 58, 71
1, 244141, Control_c, 0, 67, 97
1, 244156, Control_c, 0, 67, 92
1, 244171, Control_c, 0, 67, 86
1, 244186, Control_c, 0, 67, 81
1, 244201, Control_c, 0, 67, 77
1, 244216, Control_c, 0, 67, 74
1, 244226, Note_off_c, 0, 58, 63
1, 244231, Control_c, 0, 67, 73
1, 244233, Note_on_c, 0, 54, 66
1, 244245, Control_c, 0, 67, 73
1, 244260, Control_c, 0, 67, 74
1, 244275, Control_c, 0, 67, 74
1, 244280, Note_off_c, 0, 61, 34
1, 244326, Control_c, 0, 67, 75
1, 244341, Control_c, 0, 67, 75
1, 244350, Note_on_c, 0, 58, 69
1, 244371, Control_c, 0, 67, 76
1, 244442, Note_on_c, 0, 61, 70
1, 244460, Control_c, 0, 67, 77
1, 244463, Note_off_c, 0, 54, 58
1, 244476, Note_off_c, 0, 58, 61
1, 244478, Note_off_c, 0, 66, 52
1, 244520, Control_c, 0, 67, 78
1, 244535, Control_c, 0, 67, 78
1, 244550, Control_c, 0, 67, 79
1, 244562, Note_on_c, 0, 58, 72
1, 244579, Control_c, 0, 64, 103
1, 244594, Control_c, 0, 64, 103
1, 244609, Control_c, 0, 64, 102
1, 244624, Control_c, 0, 64, 102
1, 244639, Control_c, 0, 64, 101
1, 244654, Control_c, 0, 64, 101
1, 244666, Note_on_c, 0, 54, 78
1, 244668, Control_c, 0, 64, 100
1, 244668, Control_c, 0, 67, 78
1, 244683, Control_c, 0, 64, 100
1, 244688, Note_off_c, 0, 58, 58
1, 244698, Control_c, 0, 64, 99
1, 244698, Control_c, 0, 67, 78
1, 244713, Control_c, 0, 64, 98
1, 244728, Control_c, 0, 64, 96
1, 244742, Control_c, 0, 64, 95
1, 244742, Control_c, 0, 67, 77
1, 244757, Control_c, 0, 64, 94
1, 244772, Control_c, 0, 64, 92
1, 244772, Control_c, 0, 67, 77
1, 244786, Control_c, 0, 64, 91
1, 244801, Control_c, 0, 64, 88
1, 244801, Control_c, 0, 67, 76
1, 244815, Note_on_c, 0, 66, 91
1, 244816, Control_c, 0, 64, 86
1, 244821, Note_on_c, 0, 38, 77
1, 244831, Control_c, 0, 64, 84
1, 244846, Control_c, 0, 64, 81
1, 244846, Control_c, 0, 67, 76
1, 244852, Note_off_c, 0, 54, 55
1, 244861, Control_c, 0, 64, 78
1, 244872, Note_off_c, 0, 40, 59
1, 244875, Control_c, 0, 64, 72
1, 244890, Control_c, 0, 64, 66
1, 244890, Control_c, 0, 67, 75
1, 244905, Control_c, 0, 64, 53
1, 244920, Control_c, 0, 64, 0
1, 244920, Control_c, 0, 67, 75
1, 244934, Control_c, 0, 67, 74
1, 244960, Note_off_c, 0, 61, 23
1, 245009, Control_c, 0, 67, 74
1, 245015, Note_on_c, 0, 54, 59
1, 245061, Control_c, 0, 64, 48
1, 245075, Control_c, 0, 64, 62
1, 245090, Control_c, 0, 64, 66
1, 245105, Control_c, 0, 64, 69
1, 245105, Control_c, 0, 67, 74
1, 245120, Control_c, 0, 64, 72
1, 245135, Note_on_c, 0, 59, 65
1, 245135, Control_c, 0, 64, 77
1, 245135, Control_c, 0, 67, 74
1, 245149, Control_c, 0, 64, 83
1, 245164, Control_c, 0, 64, 88
1, 245179, Control_c, 0, 64, 92
1, 245179, Control_c, 0, 67, 74
1, 245193, Control_c, 0, 64, 95
1, 245208, Control_c, 0, 64, 97
1, 245208, Control_c, 0, 67, 74
1, 245223, Control_c, 0, 64, 100
1, 245223, Control_c, 0, 67, 73
1, 245238, Control_c, 0, 64, 102
1, 245238, Control_c, 0, 67, 73
1, 245244, Note_on_c, 0, 62, 66
1, 245253, Control_c, 0, 64, 104
1, 245265, Note_off_c, 0, 54, 57
1, 245269, Control_c, 0, 64, 105
1, 245269, Control_c, 0, 67, 72
1, 245271, Note_off_c, 0, 59, 60
1, 245284, Control_c, 0, 64, 107
1, 245284, Control_c, 0, 67, 72
1, 245298, Control_c, 0, 64, 108
1, 245313, Control_c, 0, 64, 110
1, 245313, Control_c, 0, 67, 71
1, 245328, Control_c, 0, 64, 111
1, 245328, Control_c, 0, 67, 71
1, 245343, Control_c, 0, 64, 113
1, 245343, Control_c, 0, 67, 70
1, 245357, Control_c, 0, 64, 115
1, 245357, Control_c, 0, 67, 69
1, 245370, Note_on_c, 0, 59, 66
1, 245372, Control_c, 0, 64, 116
1, 245387, Control_c, 0, 64, 117
1, 245402, Control_c, 0, 64, 119
1, 245417, Control_c, 0, 64, 120
1, 245432, Control_c, 0, 64, 121
1, 245447, Control_c, 0, 64, 122
1, 245461, Note_off_c, 0, 59, 61
1, 245462, Control_c, 0, 64, 123
1, 245468, Note_on_c, 0, 54, 62
1, 245477, Control_c, 0, 64, 124
1, 245491, Control_c, 0, 64, 124
1, 245506, Control_c, 0, 64, 125
1, 245506, Control_c, 0, 67, 69
1, 245521, Control_c, 0, 67, 70
1, 245551, Control_c, 0, 67, 71
1, 245565, Control_c, 0, 67, 71
1, 245572, Note_on_c, 0, 59, 73
1, 245577, Note_off_c, 0, 54, 58
1, 245580, Control_c, 0, 67, 72
1, 245595, Control_c, 0, 67, 73
1, 245609, Control_c, 0, 67, 74
1, 245624, Control_c, 0, 67, 74
1, 245639, Control_c, 0, 67, 75
1, 245654, Control_c, 0, 67, 77
1, 245669, Control_c, 0, 67, 78
1, 245673, Note_on_c, 0, 54, 72
1, 245683, Note_off_c, 0, 59, 60
1, 245684, Control_c, 0, 67, 80
1, 245698, Control_c, 0, 67, 80
1, 245713, Control_c, 0, 67, 81
1, 245728, Control_c, 0, 67, 83
1, 245743, Control_c, 0, 67, 87
1, 245750, Note_off_c, 0, 38, 62
1, 245757, Control_c, 0, 67, 93
1, 245772, Control_c, 0, 67, 98
1, 245780, Note_on_c, 0, 59, 74
1, 245795, Control_c, 0, 67, 102
1, 245810, Control_c, 0, 67, 103
1, 245822, Note_off_c, 0, 62, 36
1, 245828, Note_off_c, 0, 66, 61
1, 245839, Control_c, 0, 67, 103
1, 245869, Control_c, 0, 67, 102
1, 245881, Note_on_c, 0, 62, 83
1, 245884, Control_c, 0, 67, 101
1, 245891, Note_off_c, 0, 59, 58
1, 245898, Control_c, 0, 67, 101
1, 245913, Note_off_c, 0, 54, 59
1, 245913, Control_c, 0, 67, 100
1, 245943, Control_c, 0, 67, 101
1, 245972, Control_c, 0, 67, 101
1, 245982, Note_on_c, 0, 38, 78
1, 245991, Note_on_c, 0, 59, 76
1, 246002, Control_c, 0, 64, 124
1, 246002, Control_c, 0, 67, 101
1, 246016, Control_c, 0, 64, 123
1, 246031, Control_c, 0, 64, 121
1, 246046, Control_c, 0, 64, 120
1, 246062, Control_c, 0, 64, 118
1, 246062, Control_c, 0, 67, 101
1, 246077, Control_c, 0, 64, 116
1, 246077, Control_c, 0, 67, 100
1, 246090, Note_off_c, 0, 59, 62
1, 246091, Note_on_c, 0, 54, 80
1, 246092, Control_c, 0, 64, 115
1, 246107, Control_c, 0, 64, 114
1, 246121, Control_c, 0, 64, 114
1, 246121, Control_c, 0, 67, 99
1, 246136, Control_c, 0, 64, 113
1, 246151, Control_c, 0, 64, 113
1, 246151, Control_c, 0, 67, 98
1, 246166, Control_c, 0, 64, 112
1, 246166, Control_c, 0, 67, 98
1, 246181, Control_c, 0, 64, 111
1, 246181, Control_c, 0, 67, 97
1, 246195, Control_c, 0, 64, 110
1, 246210, Control_c, 0, 64, 109
1, 246210, Control_c, 0, 67, 96
1, 246225, Control_c, 0, 64, 108
1, 246240, Control_c, 0, 64, 106
1, 246240, Control_c, 0, 67, 96
1, 246255, Control_c, 0, 64, 103
1, 246266, Note_on_c, 0, 66, 92
1, 246270, Control_c, 0, 64, 100
1, 246279, Note_on_c, 0, 36, 75
1, 246284, Control_c, 0, 64, 94
1, 246284, Control_c, 0, 67, 96
1, 246299, Control_c, 0, 64, 87
1, 246302, Note_off_c, 0, 62, 60
1, 246314, Note_off_c, 0, 38, 60
1, 246314, Note_off_c, 0, 54, 54
1, 246314, Control_c, 0, 64, 77
1, 246314, Control_c, 0, 67, 96
1, 246329, Control_c, 0, 64, 65
1, 246344, Control_c, 0, 64, 0
1, 246359, Control_c, 0, 67, 95
1, 246388, Control_c, 0, 67, 96
1, 246403, Control_c, 0, 67, 95
1, 246418, Control_c, 0, 67, 95
1, 246432, Control_c, 0, 64, 46
1, 246447, Control_c, 0, 64, 66
1, 246462, Control_c, 0, 64, 72
1, 246462, Control_c, 0, 67, 95
1, 246464, Note_on_c, 0, 54, 68
1, 246466, Note_off_c, 0, 36, 64
1, 246469, Note_on_c, 0, 38, 68
1, 246477, Control_c, 0, 64, 77
1, 246492, Control_c, 0, 64, 82
1, 246506, Control_c, 0, 64, 83
1, 246521, Control_c, 0, 64, 83
1, 246521, Control_c, 0, 67, 95
1, 246536, Poly_aftertouch_c, 0, 31, 127
1, 246544, Control_c, 0, 64, 84
1, 246546, Note_off_c, 0, 38, 62
1, 246553, Note_on_c, 0, 36, 66
1, 246559, Control_c, 0, 64, 84
1, 246559, Control_c, 0, 67, 95
1, 246581, Note_on_c, 0, 57, 69
1, 246588, Control_c, 0, 67, 96
1, 246598, Poly_aftertouch_c, 0, 31, 0
1, 246615, Note_off_c, 0, 36, 64
1, 246637, Note_on_c, 0, 38, 66
1, 246647, Control_c, 0, 67, 96
1, 246677, Control_c, 0, 67, 97
1, 246679, Note_off_c, 0, 38, 63
1, 246692, Note_on_c, 0, 36, 63
1, 246692, Control_c, 0, 67, 97
1, 246695, Note_on_c, 0, 62, 71
1, 246704, Note_off_c, 0, 57, 61
1, 246735, Note_off_c, 0, 36, 64
1, 246736, Control_c, 0, 67, 98
1, 246751, Control_c, 0, 67, 99
1, 246754, Note_off_c, 0, 54, 43
1, 246764, Note_on_c, 0, 38, 61
1, 246765, Control_c, 0, 67, 100
1, 246780, Control_c, 0, 67, 101
1, 246792, Note_off_c, 0, 38, 57
1, 246795, Control_c, 0, 67, 101
1, 246803, Note_on_c, 0, 57, 70
1, 246809, Note_on_c, 0, 36, 69
1, 246839, Control_c, 0, 67, 101
1, 246862, Note_off_c, 0, 36, 62
1, 246870, Control_c, 0, 67, 100
1, 246872, Note_on_c, 0, 38, 74
1, 246885, Control_c, 0, 67, 99
1, 246890, Note_on_c, 0, 54, 72
1, 246894, Note_off_c, 0, 57, 59
1, 246900, Control_c, 0, 67, 99
1, 246923, Note_off_c, 0, 38, 61
1, 246928, Note_on_c, 0, 36, 71
1, 246959, Control_c, 0, 64, 85
1, 246980, Note_off_c, 0, 36, 60
1, 246989, Control_c, 0, 67, 98
1, 247002, Note_off_c, 0, 54, 60
1, 247003, Note_on_c, 0, 38, 72
1, 247005, Note_on_c, 0, 57, 71
1, 247040, Note_off_c, 0, 38, 63
1, 247048, Note_on_c, 0, 36, 69
1, 247062, Control_c, 0, 67, 98
1, 247101, Note_off_c, 0, 36, 64
1, 247107, Control_c, 0, 64, 85
1, 247111, Note_on_c, 0, 38, 77
1, 247119, Note_on_c, 0, 54, 74
1, 247119, Note_off_c, 0, 57, 61
1, 247137, Control_c, 0, 64, 86
1, 247167, Note_off_c, 0, 38, 62
1, 247171, Note_on_c, 0, 36, 70
1, 247181, Control_c, 0, 64, 86
1, 247181, Control_c, 0, 67, 99
1, 247196, Control_c, 0, 64, 87
1, 247211, Control_c, 0, 67, 99
1, 247225, Note_on_c, 0, 57, 74
1, 247226, Control_c, 0, 67, 100
1, 247235, Note_off_c, 0, 36, 63
1, 247239, Note_on_c, 0, 38, 75
1, 247241, Control_c, 0, 64, 87
1, 247255, Control_c, 0, 67, 99
1, 247259, Note_off_c, 0, 62, 60
1, 247270, Control_c, 0, 64, 88
1, 247307, Control_c, 0, 64, 88
1, 247312, Note_off_c, 0, 38, 60
1, 247325, Note_on_c, 0, 36, 71
1, 247349, Note_off_c, 0, 57, 60
1, 247352, Control_c, 0, 64, 89
1, 247352, Note_on_c, 0, 62, 73
1, 247367, Control_c, 0, 64, 89
1, 247385, Note_off_c, 0, 36, 61
1, 247389, Note_on_c, 0, 38, 76
1, 247396, Control_c, 0, 64, 90
1, 247396, Control_c, 0, 67, 100
1, 247411, Note_off_c, 0, 54, 53
1, 247411, Control_c, 0, 67, 100
1, 247426, Control_c, 0, 64, 90
1, 247441, Control_c, 0, 67, 101
1, 247449, Note_on_c, 0, 57, 78
1, 247458, Note_on_c, 0, 36, 77
1, 247485, Control_c, 0, 67, 100
1, 247488, Note_off_c, 0, 62, 58
1, 247500, Control_c, 0, 67, 100
1, 247515, Note_off_c, 0, 38, 0
1, 247546, Note_on_c, 0, 54, 75
1, 247547, Note_off_c, 0, 57, 61
1, 247549, Note_off_c, 0, 36, 59
1, 247550, Note_on_c, 0, 34, 83
1, 247561, Poly_aftertouch_c, 0, 38, 0
1, 247602, Note_off_c, 0, 66, 59
1, 247619, Control_c, 0, 67, 99
1, 247654, Note_on_c, 0, 36, 86
1, 247665, Control_c, 0, 67, 99
1, 247665, Note_off_c, 0, 34, 64
1, 247724, Control_c, 0, 64, 90
1, 247724, Control_c, 0, 67, 98
1, 247758, Note_off_c, 0, 54, 56
1, 247768, Control_c, 0, 64, 89
1, 247783, Control_c, 0, 64, 89
1, 247783, Control_c, 0, 67, 99
1, 247798, Control_c, 0, 64, 88
1, 247812, Control_c, 0, 64, 87
1, 247827, Control_c, 0, 64, 86
1, 247842, Control_c, 0, 64, 85
1, 247857, Control_c, 0, 64, 85
1, 247872, Control_c, 0, 64, 84
1, 247886, Control_c, 0, 64, 83
1, 247896, Note_on_c, 0, 67, 89
1, 247901, Control_c, 0, 64, 81
1, 247907, Note_on_c, 0, 34, 79
1, 247916, Control_c, 0, 64, 78
1, 247916, Control_c, 0, 67, 98
1, 247931, Control_c, 0, 64, 73
1, 247931, Control_c, 0, 67, 98
1, 247946, Control_c, 0, 64, 67
1, 247946, Control_c, 0, 67, 97
1, 247956, Note_off_c, 0, 36, 61
1, 247960, Control_c, 0, 64, 55
1, 247975, Control_c, 0, 64, 0
1, 247975, Control_c, 0, 67, 97
1, 247990, Control_c, 0, 67, 96
1, 248042, Control_c, 0, 67, 97
1, 248175, Control_c, 0, 67, 97
1, 248233, Note_on_c, 0, 55, 58
1, 248234, Control_c, 0, 67, 98
1, 248249, Control_c, 0, 64, 48
1, 248264, Control_c, 0, 64, 63
1, 248264, Control_c, 0, 67, 98
1, 248279, Control_c, 0, 64, 66
1, 248279, Control_c, 0, 67, 99
1, 248294, Control_c, 0, 64, 69
1, 248309, Control_c, 0, 64, 72
1, 248323, Control_c, 0, 64, 78
1, 248338, Control_c, 0, 64, 84
1, 248338, Control_c, 0, 67, 99
1, 248353, Control_c, 0, 64, 88
1, 248353, Control_c, 0, 67, 100
1, 248368, Control_c, 0, 64, 91
1, 248377, Note_on_c, 0, 58, 60
1, 248383, Control_c, 0, 64, 94
1, 248383, Control_c, 0, 67, 101
1, 248398, Control_c, 0, 64, 97
1, 248398, Control_c, 0, 67, 101
1, 248412, Control_c, 0, 64, 100
1, 248412, Control_c, 0, 67, 102
1, 248427, Control_c, 0, 64, 103
1, 248427, Control_c, 0, 67, 104
1, 248442, Control_c, 0, 64, 105
1, 248442, Control_c, 0, 67, 106
1, 248458, Control_c, 0, 64, 107
1, 248458, Control_c, 0, 67, 108
1, 248472, Control_c, 0, 64, 109
1, 248472, Control_c, 0, 67, 110
1, 248475, Note_off_c, 0, 55, 38
1, 248487, Control_c, 0, 64, 109
1, 248487, Control_c, 0, 67, 110
1, 248502, Control_c, 0, 64, 110
1, 248507, Note_on_c, 0, 62, 62
1, 248516, Note_off_c, 0, 58, 62
1, 248517, Control_c, 0, 64, 111
1, 248517, Control_c, 0, 67, 111
1, 248532, Control_c, 0, 64, 112
1, 248532, Control_c, 0, 67, 111
1, 248547, Control_c, 0, 64, 112
1, 248547, Control_c, 0, 67, 112
1, 248562, Control_c, 0, 67, 114
1, 248577, Control_c, 0, 67, 117
1, 248591, Control_c, 0, 67, 121
1, 248606, Control_c, 0, 64, 113
1, 248606, Control_c, 0, 67, 123
1, 248621, Control_c, 0, 67, 123
1, 248627, Note_off_c, 0, 62, 60
1, 248630, Note_on_c, 0, 58, 63
1, 248650, Control_c, 0, 67, 125
1, 248665, Control_c, 0, 67, 127
1, 248721, Note_off_c, 0, 58, 64
1, 248728, Note_on_c, 0, 55, 65
1, 248806, Control_c, 0, 64, 113
1, 248851, Note_on_c, 0, 58, 67
1, 248851, Note_off_c, 0, 55, 62
1, 248957, Note_off_c, 0, 58, 63
1, 248964, Note_on_c, 0, 55, 61
1, 249003, Note_off_c, 0, 67, 23
1, 249080, Note_on_c, 0, 58, 66
1, 249190, Note_on_c, 0, 62, 74
1, 249219, Note_off_c, 0, 58, 61
1, 249226, Note_off_c, 0, 55, 56
1, 249249, Control_c, 0, 64, 113
1, 249310, Control_c, 0, 64, 112
1, 249334, Note_on_c, 0, 58, 72
1, 249339, Control_c, 0, 64, 112
1, 249349, Note_off_c, 0, 62, 58
1, 249354, Control_c, 0, 64, 111
1, 249369, Control_c, 0, 64, 110
1, 249383, Control_c, 0, 64, 110
1, 249398, Control_c, 0, 64, 109
1, 249413, Control_c, 0, 64, 108
1, 249428, Control_c, 0, 64, 108
1, 249437, Note_off_c, 0, 58, 63
1, 249443, Control_c, 0, 64, 107
1, 249453, Note_on_c, 0, 55, 75
1, 249457, Control_c, 0, 64, 105
1, 249472, Control_c, 0, 64, 104
1, 249487, Control_c, 0, 64, 103
1, 249502, Control_c, 0, 64, 102
1, 249517, Control_c, 0, 64, 101
1, 249539, Control_c, 0, 64, 99
1, 249554, Control_c, 0, 64, 98
1, 249569, Control_c, 0, 64, 96
1, 249583, Control_c, 0, 64, 94
1, 249598, Control_c, 0, 64, 92
1, 249613, Control_c, 0, 64, 90
1, 249628, Control_c, 0, 64, 86
1, 249643, Control_c, 0, 64, 83
1, 249645, Note_on_c, 0, 38, 75
1, 249655, Note_off_c, 0, 55, 56
1, 249657, Control_c, 0, 64, 78
1, 249672, Control_c, 0, 64, 73
1, 249683, Note_off_c, 0, 34, 37
1, 249687, Control_c, 0, 64, 68
1, 249702, Control_c, 0, 64, 61
1, 249710, Note_on_c, 0, 60, 80
1, 249717, Control_c, 0, 64, 46
1, 249731, Control_c, 0, 64, 34
1, 249746, Control_c, 0, 64, 29
1, 249761, Control_c, 0, 64, 22
1, 249776, Control_c, 0, 64, 0
1, 249998, Note_on_c, 0, 48, 46
1, 250012, Control_c, 0, 64, 29
1, 250027, Control_c, 0, 64, 48
1, 250042, Control_c, 0, 64, 60
1, 250058, Control_c, 0, 64, 64
1, 250073, Control_c, 0, 64, 67
1, 250087, Control_c, 0, 64, 69
1, 250102, Control_c, 0, 64, 72
1, 250117, Control_c, 0, 64, 75
1, 250131, Note_on_c, 0, 54, 41
1, 250132, Control_c, 0, 64, 79
1, 250147, Control_c, 0, 64, 82
1, 250161, Control_c, 0, 64, 84
1, 250176, Control_c, 0, 64, 86
1, 250191, Control_c, 0, 64, 88
1, 250205, Control_c, 0, 64, 89
1, 250220, Control_c, 0, 64, 91
1, 250235, Control_c, 0, 64, 92
1, 250237, Note_off_c, 0, 48, 38
1, 250250, Control_c, 0, 64, 93
1, 250261, Note_on_c, 0, 57, 48
1, 250265, Control_c, 0, 64, 94
1, 250271, Note_off_c, 0, 54, 41
1, 250287, Control_c, 0, 64, 95
1, 250383, Note_off_c, 0, 57, 52
1, 250389, Note_on_c, 0, 54, 49
1, 250470, Note_off_c, 0, 54, 54
1, 250511, Note_on_c, 0, 48, 35
1, 250610, Note_on_c, 0, 54, 45
1, 250621, Note_off_c, 0, 48, 36
1, 250708, Note_off_c, 0, 54, 56
1, 250764, Note_on_c, 0, 48, 19
1, 250860, Note_on_c, 0, 54, 35
1, 250932, Note_off_c, 0, 48, 21
1, 250938, Note_off_c, 0, 54, 35
1, 250962, Note_on_c, 0, 57, 41
1, 251004, Note_off_c, 0, 60, 35
1, 251036, Control_c, 0, 64, 94
1, 251074, Note_off_c, 0, 57, 54
1, 251092, Note_on_c, 0, 54, 46
1, 251096, Control_c, 0, 64, 94
1, 251140, Control_c, 0, 64, 93
1, 251170, Control_c, 0, 64, 93
1, 251181, Note_off_c, 0, 54, 56
1, 251200, Control_c, 0, 64, 92
1, 251212, Note_on_c, 0, 48, 44
1, 251244, Control_c, 0, 64, 92
1, 251274, Control_c, 0, 64, 91
1, 251303, Control_c, 0, 64, 91
1, 251307, Poly_aftertouch_c, 0, 33, 127
1, 251332, Control_c, 0, 64, 90
1, 251347, Control_c, 0, 64, 90
1, 251361, Control_c, 0, 64, 89
1, 251376, Control_c, 0, 64, 87
1, 251384, Note_off_c, 0, 48, 40
1, 251391, Control_c, 0, 64, 86
1, 251398, Note_on_c, 0, 61, 59
1, 251406, Control_c, 0, 64, 85
1, 251421, Control_c, 0, 64, 84
1, 251428, Note_on_c, 0, 37, 42
1, 251435, Control_c, 0, 64, 83
1, 251450, Control_c, 0, 64, 82
1, 251465, Control_c, 0, 64, 80
1, 251480, Control_c, 0, 64, 78
1, 251495, Control_c, 0, 64, 74
1, 251510, Control_c, 0, 64, 69
1, 251525, Control_c, 0, 64, 62
1, 251528, Poly_aftertouch_c, 0, 33, 0
1, 251540, Control_c, 0, 64, 34
1, 251545, Note_off_c, 0, 38, 54
1, 251554, Control_c, 0, 64, 0
1, 251634, Note_on_c, 0, 49, 33
1, 251739, Note_on_c, 0, 54, 34
1, 251763, Control_c, 0, 64, 38
1, 251784, Control_c, 0, 64, 64
1, 251799, Control_c, 0, 64, 68
1, 251814, Control_c, 0, 64, 71
1, 251828, Note_off_c, 0, 49, 23
1, 251829, Control_c, 0, 64, 74
1, 251844, Control_c, 0, 64, 77
1, 251856, Note_on_c, 0, 58, 38
1, 251859, Control_c, 0, 64, 79
1, 251861, Note_off_c, 0, 61, 0
1, 251870, Note_off_c, 0, 54, 30
1, 251874, Control_c, 0, 64, 81
1, 251889, Control_c, 0, 64, 82
1, 251898, Poly_aftertouch_c, 0, 61, 127
1, 251903, Control_c, 0, 64, 83
1, 251918, Control_c, 0, 64, 84
1, 251933, Control_c, 0, 64, 85
1, 251948, Control_c, 0, 64, 86
1, 251963, Control_c, 0, 64, 87
1, 251969, Note_off_c, 0, 58, 53
1, 251977, Control_c, 0, 64, 88
1, 252003, Note_on_c, 0, 54, 38
1, 252007, Control_c, 0, 64, 89
1, 252051, Control_c, 0, 64, 89
1, 252061, Note_off_c, 0, 54, 45
1, 252113, Note_on_c, 0, 49, 36
1, 252193, Note_off_c, 0, 49, 39
1, 252206, Note_on_c, 0, 54, 40
1, 252244, Control_c, 0, 64, 90
1, 252293, Note_off_c, 0, 54, 53
1, 252343, Note_on_c, 0, 49, 29
1, 252440, Note_on_c, 0, 54, 41
1, 252506, Note_off_c, 0, 37, 42
1, 252514, Poly_aftertouch_c, 0, 61, 0
1, 252538, Note_off_c, 0, 54, 52
1, 252557, Note_off_c, 0, 49, 18
1, 252568, Note_on_c, 0, 58, 39
1, 252677, Note_off_c, 0, 58, 31
1, 252684, Note_on_c, 0, 54, 36
1, 252741, Control_c, 0, 64, 89
1, 252771, Control_c, 0, 64, 89
1, 252773, Note_off_c, 0, 54, 35
1, 252799, Note_on_c, 0, 49, 37
1, 252800, Control_c, 0, 64, 88
1, 252830, Control_c, 0, 64, 88
1, 252872, Note_off_c, 0, 49, 49
1, 252889, Control_c, 0, 64, 87
1, 252904, Control_c, 0, 64, 87
1, 252934, Control_c, 0, 64, 86
1, 252948, Control_c, 0, 64, 86
1, 252963, Control_c, 0, 64, 85
1, 252965, Note_on_c, 0, 61, 54
1, 252972, Note_on_c, 0, 37, 38
1, 252978, Control_c, 0, 64, 84
1, 252993, Control_c, 0, 64, 82
1, 253007, Control_c, 0, 64, 79
1, 253022, Control_c, 0, 64, 76
1, 253037, Control_c, 0, 64, 71
1, 253052, Control_c, 0, 64, 65
1, 253067, Control_c, 0, 64, 54
1, 253081, Control_c, 0, 64, 52
1, 253096, Control_c, 0, 64, 61
1, 253111, Control_c, 0, 64, 64
1, 253117, Note_on_c, 0, 53, 27
1, 253126, Control_c, 0, 64, 66
1, 253141, Control_c, 0, 64, 69
1, 253155, Control_c, 0, 64, 74
1, 253170, Control_c, 0, 64, 79
1, 253185, Control_c, 0, 64, 84
1, 253200, Control_c, 0, 64, 87
1, 253214, Note_off_c, 0, 61, 37
1, 253215, Control_c, 0, 64, 89
1, 253218, Note_on_c, 0, 56, 30
1, 253230, Control_c, 0, 64, 91
1, 253238, Note_off_c, 0, 53, 41
1, 253245, Control_c, 0, 64, 92
1, 253257, Note_off_c, 0, 56, 42
1, 253260, Control_c, 0, 64, 93
1, 253283, Control_c, 0, 64, 94
1, 253327, Control_c, 0, 64, 95
1, 253388, Note_on_c, 0, 49, 42
1, 253390, Note_on_c, 0, 71, 51
1, 253398, Note_off_c, 0, 37, 40
1, 253519, Note_on_c, 0, 59, 30
1, 253579, Note_off_c, 0, 71, 33
1, 253612, Note_on_c, 0, 61, 45
1, 253612, Note_off_c, 0, 49, 37
1, 253698, Control_c, 0, 64, 95
1, 253701, Note_off_c, 0, 61, 36
1, 253712, Note_off_c, 0, 59, 39
1, 253725, Note_on_c, 0, 68, 68
1, 253781, Note_on_c, 0, 53, 28
1, 253836, Note_on_c, 0, 59, 44
1, 253846, Control_c, 0, 64, 96
1, 253891, Control_c, 0, 64, 96
1, 253920, Control_c, 0, 67, 117
1, 253935, Control_c, 0, 67, 112
1, 253949, Control_c, 0, 67, 109
1, 253964, Control_c, 0, 67, 107
1, 253966, Note_on_c, 0, 61, 46
1, 253974, Note_off_c, 0, 59, 33
1, 253979, Control_c, 0, 67, 106
1, 253990, Note_off_c, 0, 68, 55
1, 253994, Control_c, 0, 64, 97
1, 253994, Control_c, 0, 67, 105
1, 254009, Control_c, 0, 67, 104
1, 254031, Control_c, 0, 67, 105
1, 254062, Control_c, 0, 67, 105
1, 254077, Control_c, 0, 67, 106
1, 254084, Note_off_c, 0, 61, 48
1, 254091, Control_c, 0, 67, 106
1, 254102, Note_on_c, 0, 65, 63
1, 254106, Control_c, 0, 67, 107
1, 254121, Control_c, 0, 67, 108
1, 254124, Note_on_c, 0, 56, 44
1, 254136, Control_c, 0, 67, 108
1, 254145, Note_off_c, 0, 53, 38
1, 254151, Control_c, 0, 67, 109
1, 254166, Control_c, 0, 67, 110
1, 254180, Control_c, 0, 67, 110
1, 254195, Control_c, 0, 67, 111
1, 254210, Control_c, 0, 67, 112
1, 254225, Control_c, 0, 67, 113
1, 254232, Note_on_c, 0, 59, 44
1, 254237, Note_off_c, 0, 56, 31
1, 254240, Control_c, 0, 67, 113
1, 254254, Control_c, 0, 64, 96
1, 254254, Control_c, 0, 67, 114
1, 254261, Note_off_c, 0, 65, 44
1, 254284, Control_c, 0, 64, 96
1, 254293, Note_off_c, 0, 59, 50
1, 254299, Control_c, 0, 64, 95
1, 254299, Control_c, 0, 67, 114
1, 254314, Control_c, 0, 67, 115
1, 254328, Control_c, 0, 64, 95
1, 254343, Control_c, 0, 64, 94
1, 254369, Note_on_c, 0, 61, 38
1, 254372, Control_c, 0, 64, 94
1, 254372, Control_c, 0, 67, 115
1, 254387, Control_c, 0, 64, 93
1, 254402, Control_c, 0, 64, 93
1, 254402, Control_c, 0, 67, 116
1, 254417, Control_c, 0, 64, 92
1, 254446, Control_c, 0, 64, 91
1, 254447, Note_off_c, 0, 61, 48
1, 254461, Control_c, 0, 64, 91
1, 254476, Control_c, 0, 64, 90
1, 254491, Control_c, 0, 64, 89
1, 254506, Control_c, 0, 64, 87
1, 254521, Control_c, 0, 64, 84
1, 254521, Note_on_c, 0, 66, 59
1, 254536, Control_c, 0, 64, 78
1, 254548, Note_on_c, 0, 42, 36
1, 254551, Control_c, 0, 64, 71
1, 254565, Control_c, 0, 64, 63
1, 254580, Control_c, 0, 64, 0
1, 254595, Control_c, 0, 67, 115
1, 254654, Control_c, 0, 67, 116
1, 254666, Note_on_c, 0, 54, 48
1, 254669, Control_c, 0, 64, 26
1, 254684, Control_c, 0, 64, 56
1, 254699, Control_c, 0, 64, 64
1, 254699, Control_c, 0, 67, 116
1, 254714, Control_c, 0, 64, 67
1, 254714, Control_c, 0, 67, 118
1, 254728, Control_c, 0, 64, 72
1, 254728, Control_c, 0, 67, 123
1, 254743, Control_c, 0, 64, 76
1, 254743, Control_c, 0, 67, 127
1, 254758, Control_c, 0, 64, 79
1, 254780, Control_c, 0, 64, 81
1, 254785, Note_on_c, 0, 58, 47
1, 254795, Note_off_c, 0, 54, 48
1, 254795, Control_c, 0, 64, 83
1, 254810, Control_c, 0, 64, 84
1, 254825, Control_c, 0, 64, 84
1, 254896, Note_off_c, 0, 58, 53
1, 254897, Note_on_c, 0, 61, 65
1, 254917, Note_on_c, 0, 46, 35
1, 254923, Note_on_c, 0, 49, 39
1, 255033, Note_on_c, 0, 54, 43
1, 255036, Note_off_c, 0, 46, 33
1, 255107, Control_c, 0, 64, 84
1, 255121, Note_off_c, 0, 61, 53
1, 255136, Control_c, 0, 64, 83
1, 255147, Note_on_c, 0, 58, 43
1, 255196, Control_c, 0, 64, 83
1, 255225, Control_c, 0, 64, 82
1, 255239, Note_off_c, 0, 54, 36
1, 255240, Control_c, 0, 64, 81
1, 255255, Control_c, 0, 64, 79
1, 255269, Note_on_c, 0, 63, 56
1, 255269, Control_c, 0, 64, 76
1, 255279, Note_on_c, 0, 51, 38
1, 255284, Control_c, 0, 64, 73
1, 255287, Note_on_c, 0, 47, 43
1, 255293, Note_off_c, 0, 58, 34
1, 255299, Control_c, 0, 64, 68
1, 255306, Note_off_c, 0, 49, 35
1, 255314, Control_c, 0, 64, 63
1, 255329, Control_c, 0, 64, 42
1, 255343, Control_c, 0, 64, 0
1, 255395, Note_on_c, 0, 54, 31
1, 255403, Control_c, 0, 64, 34
1, 255418, Control_c, 0, 64, 53
1, 255433, Control_c, 0, 64, 61
1, 255448, Control_c, 0, 64, 65
1, 255463, Control_c, 0, 64, 68
1, 255477, Control_c, 0, 64, 70
1, 255492, Control_c, 0, 64, 71
1, 255507, Control_c, 0, 64, 72
1, 255528, Control_c, 0, 64, 73
1, 255543, Control_c, 0, 64, 74
1, 255557, Note_on_c, 0, 59, 23
1, 255558, Control_c, 0, 64, 75
1, 255573, Control_c, 0, 64, 75
1, 255588, Control_c, 0, 64, 76
1, 255633, Note_off_c, 0, 54, 31
1, 255633, Control_c, 0, 64, 75
1, 255647, Note_off_c, 0, 47, 45
1, 255648, Control_c, 0, 64, 74
1, 255663, Control_c, 0, 64, 71
1, 255671, Note_off_c, 0, 63, 30
1, 255674, Note_on_c, 0, 61, 51
1, 255678, Control_c, 0, 64, 67
1, 255683, Note_on_c, 0, 49, 28
1, 255686, Note_on_c, 0, 46, 27
1, 255687, Note_off_c, 0, 51, 34
1, 255693, Control_c, 0, 64, 62
1, 255707, Control_c, 0, 64, 62
1, 255711, Note_off_c, 0, 66, 29
1, 255712, Note_off_c, 0, 59, 36
1, 255722, Control_c, 0, 64, 63
1, 255737, Control_c, 0, 64, 64
1, 255752, Control_c, 0, 64, 65
1, 255767, Control_c, 0, 64, 66
1, 255782, Control_c, 0, 64, 68
1, 255797, Control_c, 0, 64, 70
1, 255811, Control_c, 0, 64, 74
1, 255817, Note_on_c, 0, 54, 25
1, 255825, Control_c, 0, 64, 77
1, 255840, Control_c, 0, 64, 79
1, 255841, Note_off_c, 0, 46, 47
1, 255855, Control_c, 0, 64, 80
1, 255870, Control_c, 0, 64, 81
1, 255882, Note_off_c, 0, 42, 39
1, 255885, Control_c, 0, 64, 81
1, 255932, Note_off_c, 0, 54, 49
1, 255940, Note_off_c, 0, 61, 27
1, 255961, Note_on_c, 0, 58, 25
1, 256010, Note_off_c, 0, 58, 45
1, 256032, Control_c, 0, 64, 81
1, 256047, Control_c, 0, 64, 80
1, 256062, Control_c, 0, 64, 80
1, 256077, Control_c, 0, 64, 79
1, 256092, Control_c, 0, 64, 79
1, 256107, Control_c, 0, 64, 78
1, 256121, Control_c, 0, 64, 77
1, 256127, Note_on_c, 0, 37, 32
1, 256136, Control_c, 0, 64, 77
1, 256151, Control_c, 0, 64, 75
1, 256156, Note_off_c, 0, 49, 27
1, 256159, Note_on_c, 0, 65, 49
1, 256166, Control_c, 0, 64, 73
1, 256181, Control_c, 0, 64, 70
1, 256196, Control_c, 0, 64, 65
1, 256211, Control_c, 0, 64, 58
1, 256225, Control_c, 0, 64, 45
1, 256240, Control_c, 0, 64, 37
1, 256255, Control_c, 0, 64, 39
1, 256277, Control_c, 0, 64, 40
1, 256292, Control_c, 0, 64, 45
1, 256306, Control_c, 0, 64, 53
1, 256321, Control_c, 0, 64, 61
1, 256331, Note_on_c, 0, 59, 40
1, 256336, Control_c, 0, 64, 64
1, 256351, Control_c, 0, 64, 69
1, 256366, Control_c, 0, 64, 74
1, 256381, Control_c, 0, 64, 79
1, 256396, Control_c, 0, 64, 82
1, 256411, Control_c, 0, 64, 84
1, 256425, Control_c, 0, 64, 86
1, 256440, Control_c, 0, 64, 88
1, 256455, Control_c, 0, 64, 90
1, 256462, Note_off_c, 0, 65, 40
1, 256466, Note_on_c, 0, 61, 45
1, 256470, Control_c, 0, 64, 91
1, 256485, Control_c, 0, 64, 92
1, 256515, Control_c, 0, 64, 93
1, 256524, Note_off_c, 0, 61, 53
1, 256560, Note_off_c, 0, 59, 39
1, 256611, Note_on_c, 0, 71, 56
1, 256629, Note_on_c, 0, 49, 39
1, 256641, Note_off_c, 0, 37, 41
1, 256730, Note_on_c, 0, 59, 46
1, 256824, Note_off_c, 0, 71, 36
1, 256838, Note_on_c, 0, 61, 48
1, 256960, Note_on_c, 0, 68, 62
1, 256982, Note_off_c, 0, 59, 39
1, 256986, Note_off_c, 0, 49, 21
1, 256992, Note_on_c, 0, 53, 35
1, 257007, Note_off_c, 0, 61, 30
1, 257105, Note_on_c, 0, 59, 42
1, 257205, Note_off_c, 0, 68, 52
1, 257221, Note_on_c, 0, 61, 42
1, 257255, Note_off_c, 0, 59, 39
1, 257320, Note_off_c, 0, 61, 53
1, 257324, Control_c, 0, 64, 92
1, 257348, Note_on_c, 0, 65, 59
1, 257357, Note_off_c, 0, 53, 40
1, 257359, Note_on_c, 0, 56, 43
1, 257397, Control_c, 0, 64, 92
1, 257457, Control_c, 0, 64, 91
1, 257462, Note_off_c, 0, 56, 53
1, 257483, Note_on_c, 0, 59, 36
1, 257487, Control_c, 0, 64, 91
1, 257502, Control_c, 0, 64, 90
1, 257517, Control_c, 0, 64, 90
1, 257531, Control_c, 0, 64, 89
1, 257534, Note_off_c, 0, 65, 36
1, 257546, Control_c, 0, 64, 89
1, 257561, Control_c, 0, 64, 88
1, 257590, Control_c, 0, 64, 88
1, 257597, Note_off_c, 0, 59, 36
1, 257600, Note_on_c, 0, 61, 42
1, 257605, Control_c, 0, 64, 87
1, 257620, Control_c, 0, 64, 87
1, 257635, Control_c, 0, 64, 86
1, 257650, Control_c, 0, 64, 85
1, 257679, Control_c, 0, 64, 84
1, 257694, Control_c, 0, 64, 84
1, 257702, Note_off_c, 0, 61, 31
1, 257709, Control_c, 0, 64, 83
1, 257723, Control_c, 0, 64, 82
1, 257738, Control_c, 0, 64, 82
1, 257773, Note_on_c, 0, 66, 64
1, 257776, Control_c, 0, 64, 81
1, 257791, Control_c, 0, 64, 78
1, 257792, Note_on_c, 0, 42, 40
1, 257805, Control_c, 0, 64, 74
1, 257820, Control_c, 0, 64, 68
1, 257835, Control_c, 0, 64, 59
1, 257850, Control_c, 0, 64, 0
1, 257909, Control_c, 0, 64, 34
1, 257918, Note_on_c, 0, 54, 36
1, 257923, Control_c, 0, 64, 54
1, 257938, Control_c, 0, 64, 62
1, 257953, Control_c, 0, 64, 66
1, 257968, Control_c, 0, 64, 69
1, 257983, Control_c, 0, 64, 73
1, 257997, Control_c, 0, 64, 76
1, 258012, Control_c, 0, 64, 78
1, 258027, Control_c, 0, 64, 79
1, 258032, Note_on_c, 0, 58, 42
1, 258043, Control_c, 0, 64, 80
1, 258058, Control_c, 0, 64, 80
1, 258073, Control_c, 0, 64, 81
1, 258131, Note_off_c, 0, 54, 29
1, 258181, Note_on_c, 0, 61, 56
1, 258199, Note_on_c, 0, 46, 33
1, 258203, Note_on_c, 0, 49, 32
1, 258208, Note_off_c, 0, 58, 35
1, 258296, Note_off_c, 0, 46, 37
1, 258309, Control_c, 0, 64, 80
1, 258318, Note_on_c, 0, 54, 35
1, 258354, Control_c, 0, 64, 80
1, 258384, Control_c, 0, 64, 79
1, 258404, Note_off_c, 0, 61, 51
1, 258413, Control_c, 0, 64, 79
1, 258441, Note_on_c, 0, 58, 38
1, 258443, Control_c, 0, 64, 78
1, 258473, Control_c, 0, 64, 78
1, 258502, Control_c, 0, 64, 77
1, 258517, Note_off_c, 0, 54, 31
1, 258524, Control_c, 0, 64, 77
1, 258539, Control_c, 0, 64, 76
1, 258553, Note_off_c, 0, 58, 50
1, 258554, Control_c, 0, 64, 75
1, 258569, Control_c, 0, 64, 73
1, 258575, Note_on_c, 0, 63, 56
1, 258584, Control_c, 0, 64, 71
1, 258599, Control_c, 0, 64, 68
1, 258606, Note_on_c, 0, 51, 36
1, 258613, Control_c, 0, 64, 65
1, 258616, Note_on_c, 0, 47, 41
1, 258628, Control_c, 0, 64, 61
1, 258643, Control_c, 0, 64, 54
1, 258646, Note_off_c, 0, 49, 41
1, 258658, Control_c, 0, 64, 48
1, 258688, Control_c, 0, 64, 50
1, 258702, Control_c, 0, 64, 52
1, 258717, Control_c, 0, 64, 56
1, 258732, Control_c, 0, 64, 61
1, 258734, Note_on_c, 0, 54, 41
1, 258746, Control_c, 0, 64, 64
1, 258761, Control_c, 0, 64, 65
1, 258776, Control_c, 0, 64, 66
1, 258791, Control_c, 0, 64, 68
1, 258806, Control_c, 0, 64, 69
1, 258820, Control_c, 0, 64, 71
1, 258835, Control_c, 0, 64, 73
1, 258851, Control_c, 0, 64, 74
1, 258866, Control_c, 0, 64, 75
1, 258869, Note_on_c, 0, 59, 33
1, 258940, Control_c, 0, 64, 75
1, 258946, Note_off_c, 0, 54, 30
1, 258955, Control_c, 0, 64, 74
1, 258969, Control_c, 0, 64, 73
1, 258984, Control_c, 0, 64, 71
1, 258989, Note_off_c, 0, 47, 41
1, 258999, Control_c, 0, 64, 68
1, 259006, Note_off_c, 0, 63, 27
1, 259008, Note_off_c, 0, 51, 40
1, 259014, Control_c, 0, 64, 64
1, 259020, Note_on_c, 0, 61, 43
1, 259029, Note_on_c, 0, 46, 36
1, 259029, Control_c, 0, 64, 59
1, 259034, Note_on_c, 0, 49, 29
1, 259043, Control_c, 0, 64, 58
1, 259052, Note_off_c, 0, 66, 13
1, 259058, Control_c, 0, 64, 59
1, 259073, Control_c, 0, 64, 60
1, 259088, Control_c, 0, 64, 61
1, 259100, Note_off_c, 0, 59, 36
1, 259103, Control_c, 0, 64, 63
1, 259117, Control_c, 0, 64, 65
1, 259132, Control_c, 0, 64, 67
1, 259147, Control_c, 0, 64, 69
1, 259162, Control_c, 0, 64, 72
1, 259172, Note_on_c, 0, 54, 33
1, 259177, Control_c, 0, 64, 74
1, 259192, Control_c, 0, 64, 76
1, 259207, Control_c, 0, 64, 77
1, 259214, Note_off_c, 0, 46, 39
1, 259222, Control_c, 0, 64, 78
1, 259236, Control_c, 0, 64, 78
1, 259238, Note_off_c, 0, 42, 40
1, 259297, Note_off_c, 0, 61, 38
1, 259323, Note_on_c, 0, 58, 40
1, 259328, Note_off_c, 0, 54, 39
1, 259392, Control_c, 0, 64, 78
1, 259429, Note_off_c, 0, 58, 59
1, 259436, Control_c, 0, 64, 77
1, 259451, Control_c, 0, 64, 77
1, 259466, Control_c, 0, 64, 76
1, 259481, Control_c, 0, 64, 75
1, 259487, Note_on_c, 0, 37, 35
1, 259495, Control_c, 0, 64, 74
1, 259504, Note_off_c, 0, 49, 28
1, 259510, Control_c, 0, 64, 72
1, 259525, Control_c, 0, 64, 71
1, 259532, Note_on_c, 0, 65, 54
1, 259540, Control_c, 0, 64, 69
1, 259554, Control_c, 0, 64, 66
1, 259568, Control_c, 0, 64, 62
1, 259583, Control_c, 0, 64, 57
1, 259598, Control_c, 0, 64, 53
1, 259613, Control_c, 0, 64, 51
1, 259628, Control_c, 0, 64, 45
1, 259644, Control_c, 0, 64, 29
1, 259659, Control_c, 0, 64, 0
1, 259703, Control_c, 0, 64, 46
1, 259711, Note_on_c, 0, 59, 38
1, 259718, Control_c, 0, 64, 58
1, 259733, Control_c, 0, 64, 63
1, 259747, Control_c, 0, 64, 67
1, 259762, Control_c, 0, 64, 71
1, 259777, Control_c, 0, 64, 76
1, 259791, Control_c, 0, 64, 80
1, 259806, Control_c, 0, 64, 82
1, 259821, Control_c, 0, 64, 83
1, 259836, Control_c, 0, 64, 84
1, 259851, Control_c, 0, 64, 85
1, 259858, Note_on_c, 0, 61, 44
1, 259865, Control_c, 0, 64, 86
1, 259879, Note_off_c, 0, 59, 39
1, 259880, Control_c, 0, 64, 87
1, 259890, Note_off_c, 0, 61, 55
1, 259895, Control_c, 0, 64, 88
1, 259907, Note_off_c, 0, 65, 38
1, 259910, Control_c, 0, 64, 88
1, 259925, Control_c, 0, 64, 89
1, 259940, Control_c, 0, 64, 89
1, 259955, Control_c, 0, 64, 90
1, 259970, Control_c, 0, 64, 90
1, 259984, Control_c, 0, 64, 91
1, 259999, Control_c, 0, 64, 91
1, 260036, Control_c, 0, 64, 92
1, 260131, Note_on_c, 0, 49, 31
1, 260217, Note_on_c, 0, 75, 60
1, 260278, Note_off_c, 0, 37, 39
1, 260418, Note_off_c, 0, 49, 47
1, 260438, Note_on_c, 0, 65, 36
1, 260569, Note_off_c, 0, 75, 54
1, 260584, Note_on_c, 0, 68, 38
1, 260629, Note_off_c, 0, 65, 39
1, 260731, Note_on_c, 0, 71, 56
1, 260738, Note_off_c, 0, 68, 36
1, 260790, Note_on_c, 0, 56, 29
1, 260915, Note_on_c, 0, 61, 35
1, 261049, Note_off_c, 0, 71, 29
1, 261051, Note_on_c, 0, 65, 37
1, 261052, Note_off_c, 0, 61, 33
1, 261186, Control_c, 0, 64, 91
1, 261228, Note_on_c, 0, 68, 54
1, 261255, Note_on_c, 0, 59, 27
1, 261255, Note_off_c, 0, 65, 38
1, 261275, Note_off_c, 0, 56, 25
1, 261335, Control_c, 0, 64, 91
1, 261376, Note_on_c, 0, 61, 34
1, 261406, Note_off_c, 0, 59, 39
1, 261438, Control_c, 0, 64, 90
1, 261504, Note_off_c, 0, 68, 57
1, 261531, Note_off_c, 0, 61, 53
1, 261535, Control_c, 0, 64, 90
1, 261570, Note_on_c, 0, 65, 41
1, 261594, Control_c, 0, 64, 89
1, 261624, Control_c, 0, 64, 89
1, 261668, Control_c, 0, 64, 88
1, 261713, Control_c, 0, 64, 88
1, 261742, Control_c, 0, 64, 87
1, 261757, Control_c, 0, 64, 87
1, 261786, Control_c, 0, 64, 86
1, 261800, Control_c, 0, 64, 86
1, 261815, Control_c, 0, 64, 85
1, 261830, Control_c, 0, 64, 84
1, 261844, Control_c, 0, 64, 84
1, 261851, Note_off_c, 0, 65, 29
1, 261859, Control_c, 0, 64, 83
1, 261869, Note_on_c, 0, 66, 56
1, 261874, Control_c, 0, 64, 82
1, 261888, Control_c, 0, 64, 81
1, 261894, Note_on_c, 0, 42, 31
1, 261903, Control_c, 0, 64, 79
1, 261910, Note_on_c, 0, 49, 27
1, 261918, Control_c, 0, 64, 78
1, 261933, Control_c, 0, 64, 77
1, 261948, Control_c, 0, 64, 75
1, 261962, Control_c, 0, 64, 73
1, 261977, Control_c, 0, 64, 70
1, 261992, Control_c, 0, 64, 65
1, 262007, Control_c, 0, 64, 62
1, 262022, Control_c, 0, 64, 58
1, 262038, Control_c, 0, 64, 57
1, 262067, Control_c, 0, 64, 56
1, 262082, Control_c, 0, 64, 55
1, 262097, Control_c, 0, 64, 53
1, 262112, Control_c, 0, 64, 52
1, 262127, Control_c, 0, 64, 52
1, 262141, Control_c, 0, 64, 53
1, 262156, Control_c, 0, 64, 55
1, 262171, Control_c, 0, 64, 58
1, 262185, Control_c, 0, 64, 61
1, 262197, Note_on_c, 0, 54, 31
1, 262200, Control_c, 0, 64, 63
1, 262215, Control_c, 0, 64, 64
1, 262230, Control_c, 0, 64, 65
1, 262245, Control_c, 0, 64, 67
1, 262267, Control_c, 0, 64, 69
1, 262282, Control_c, 0, 64, 73
1, 262297, Control_c, 0, 64, 76
1, 262312, Control_c, 0, 64, 78
1, 262327, Control_c, 0, 64, 80
1, 262337, Note_on_c, 0, 58, 34
1, 262341, Control_c, 0, 64, 82
1, 262356, Control_c, 0, 64, 83
1, 262371, Control_c, 0, 64, 85
1, 262373, Note_off_c, 0, 54, 32
1, 262385, Control_c, 0, 64, 87
1, 262400, Control_c, 0, 64, 88
1, 262415, Control_c, 0, 64, 89
1, 262430, Control_c, 0, 64, 90
1, 262445, Control_c, 0, 64, 91
1, 262459, Note_off_c, 0, 58, 38
1, 262460, Control_c, 0, 64, 92
1, 262468, Note_on_c, 0, 61, 40
1, 262474, Control_c, 0, 64, 92
1, 262489, Control_c, 0, 64, 93
1, 262504, Control_c, 0, 64, 93
1, 262565, Note_off_c, 0, 61, 52
1, 262596, Note_on_c, 0, 58, 35
1, 262656, Note_off_c, 0, 58, 46
1, 262712, Note_on_c, 0, 54, 24
1, 262766, Note_off_c, 0, 54, 43
1, 262808, Note_on_c, 0, 58, 38
1, 262888, Note_off_c, 0, 58, 55
1, 262922, Note_on_c, 0, 54, 34
1, 263039, Note_on_c, 0, 58, 40
1, 263058, Note_off_c, 0, 54, 30
1, 263122, Note_off_c, 0, 58, 49
1, 263166, Note_off_c, 0, 66, 33
1, 263173, Note_on_c, 0, 61, 27
1, 263189, Note_off_c, 0, 49, 38
1, 263234, Note_off_c, 0, 42, 39
1, 263239, Note_off_c, 0, 61, 39
1, 263280, Note_on_c, 0, 58, 31
1, 263323, Note_off_c, 0, 58, 50
1, 263418, Poly_aftertouch_c, 0, 54, 127
1, 263467, Poly_aftertouch_c, 0, 54, 0
1, 263491, Note_on_c, 0, 66, 53
1, 263517, Note_on_c, 0, 58, 29
1, 263541, Note_on_c, 0, 42, 22
1, 263547, Note_on_c, 0, 49, 18
1, 263641, Note_off_c, 0, 58, 39
1, 263651, Note_on_c, 0, 54, 38
1, 263764, Note_on_c, 0, 58, 42
1, 263765, Control_c, 0, 64, 94
1, 263780, Control_c, 0, 64, 95
1, 263782, Note_off_c, 0, 54, 33
1, 263795, Control_c, 0, 64, 95
1, 263810, Control_c, 0, 64, 96
1, 263825, Control_c, 0, 64, 97
1, 263839, Control_c, 0, 64, 98
1, 263854, Control_c, 0, 64, 98
1, 263869, Note_off_c, 0, 58, 57
1, 263869, Control_c, 0, 64, 99
1, 263899, Control_c, 0, 64, 99
1, 263913, Note_on_c, 0, 61, 34
1, 263925, Note_off_c, 0, 66, 33
1, 263943, Control_c, 0, 64, 100
1, 264000, Note_off_c, 0, 49, 40
1, 264007, Note_off_c, 0, 61, 48
1, 264015, Note_on_c, 0, 58, 43
1, 264021, Note_off_c, 0, 42, 41
1, 264032, Control_c, 0, 67, 125
1, 264047, Control_c, 0, 67, 124
1, 264062, Control_c, 0, 67, 124
1, 264077, Control_c, 0, 67, 123
1, 264086, Note_off_c, 0, 58, 57
1, 264106, Control_c, 0, 67, 124
1, 264121, Control_c, 0, 67, 124
1, 264136, Control_c, 0, 67, 125
1, 264151, Control_c, 0, 67, 126
1, 264155, Note_on_c, 0, 54, 20
1, 264165, Control_c, 0, 67, 127
1, 264212, Note_off_c, 0, 54, 40
1, 264266, Note_on_c, 0, 66, 51
1, 264286, Note_on_c, 0, 58, 38
1, 264305, Note_on_c, 0, 42, 21
1, 264321, Note_on_c, 0, 49, 25
1, 264393, Note_off_c, 0, 58, 54
1, 264414, Note_on_c, 0, 54, 37
1, 264544, Control_c, 0, 64, 99
1, 264546, Note_on_c, 0, 58, 46
1, 264584, Note_off_c, 0, 54, 28
1, 264669, Note_off_c, 0, 58, 57
1, 264677, Note_off_c, 0, 66, 40
1, 264696, Note_on_c, 0, 61, 40
1, 264796, Control_c, 0, 64, 99
1, 264821, Note_on_c, 0, 58, 44
1, 264826, Control_c, 0, 64, 98
1, 264870, Control_c, 0, 64, 98
1, 264914, Control_c, 0, 64, 97
1, 264926, Note_off_c, 0, 58, 57
1, 264927, Note_off_c, 0, 49, 37
1, 264959, Control_c, 0, 64, 97
1, 264961, Note_on_c, 0, 54, 44
1, 264961, Note_off_c, 0, 61, 0
1, 264998, Poly_aftertouch_c, 0, 61, 127
1, 265000, Note_off_c, 0, 42, 34
1, 265003, Control_c, 0, 64, 96
1, 265007, Note_off_c, 0, 54, 53
1, 265048, Control_c, 0, 64, 96
1, 265077, Control_c, 0, 64, 95
1, 265121, Control_c, 0, 64, 95
1, 265151, Control_c, 0, 64, 94
1, 265180, Control_c, 0, 64, 94
1, 265210, Control_c, 0, 64, 93
1, 265213, Poly_aftertouch_c, 0, 61, 0
1, 265219, Note_on_c, 0, 66, 52
1, 265229, Note_on_c, 0, 54, 41
1, 265238, Note_on_c, 0, 58, 40
1, 265241, Control_c, 0, 64, 93
1, 265279, Control_c, 0, 64, 92
1, 265293, Control_c, 0, 64, 92
1, 265308, Control_c, 0, 64, 91
1, 265323, Control_c, 0, 64, 90
1, 265337, Control_c, 0, 64, 89
1, 265352, Control_c, 0, 64, 88
1, 265367, Control_c, 0, 64, 87
1, 265382, Control_c, 0, 64, 86
1, 265397, Control_c, 0, 64, 86
1, 265411, Control_c, 0, 64, 85
1, 265426, Control_c, 0, 64, 84
1, 265431, Note_on_c, 0, 42, 36
1, 265441, Control_c, 0, 64, 82
1, 265456, Control_c, 0, 64, 81
1, 265471, Control_c, 0, 64, 80
1, 265485, Control_c, 0, 64, 79
1, 265500, Control_c, 0, 64, 78
1, 265515, Control_c, 0, 64, 77
1, 265529, Control_c, 0, 64, 75
1, 265540, Note_off_c, 0, 42, 55
1, 265544, Control_c, 0, 64, 73
1, 265559, Control_c, 0, 64, 71
1, 265560, Note_on_c, 0, 46, 45
1, 265574, Control_c, 0, 64, 70
1, 265589, Control_c, 0, 64, 68
1, 265604, Control_c, 0, 64, 67
1, 265619, Control_c, 0, 64, 66
1, 265634, Control_c, 0, 64, 65
1, 265657, Note_off_c, 0, 46, 56
1, 265685, Note_on_c, 0, 49, 35
1, 265693, Control_c, 0, 64, 65
1, 265708, Control_c, 0, 64, 64
1, 265737, Control_c, 0, 64, 64
1, 265794, Note_on_c, 0, 46, 46
1, 265811, Control_c, 0, 64, 63
1, 265814, Note_off_c, 0, 49, 34
1, 265826, Control_c, 0, 64, 63
1, 265841, Control_c, 0, 64, 62
1, 265858, Note_off_c, 0, 46, 54
1, 265871, Control_c, 0, 64, 62
1, 265885, Control_c, 0, 64, 61
1, 265900, Control_c, 0, 64, 60
1, 265915, Control_c, 0, 64, 59
1, 265917, Note_on_c, 0, 42, 32
1, 265929, Control_c, 0, 64, 58
1, 265944, Control_c, 0, 64, 55
1, 265959, Control_c, 0, 64, 49
1, 265974, Control_c, 0, 64, 42
1, 265989, Control_c, 0, 64, 37
1, 266008, Note_off_c, 0, 42, 57
1, 266011, Control_c, 0, 64, 35
1, 266026, Control_c, 0, 64, 33
1, 266042, Control_c, 0, 64, 30
1, 266042, Note_on_c, 0, 46, 40
1, 266057, Control_c, 0, 64, 27
1, 266072, Control_c, 0, 64, 26
1, 266102, Control_c, 0, 64, 30
1, 266116, Control_c, 0, 64, 36
1, 266131, Control_c, 0, 64, 39
1, 266145, Note_off_c, 0, 46, 56
1, 266146, Control_c, 0, 64, 41
1, 266158, Note_on_c, 0, 42, 32
1, 266160, Control_c, 0, 64, 43
1, 266175, Control_c, 0, 64, 46
1, 266190, Control_c, 0, 64, 49
1, 266205, Control_c, 0, 64, 52
1, 266220, Control_c, 0, 64, 55
1, 266234, Control_c, 0, 64, 58
1, 266249, Control_c, 0, 64, 60
1, 266264, Control_c, 0, 64, 62
1, 266277, Note_off_c, 0, 42, 54
1, 266279, Control_c, 0, 64, 63
1, 266283, Note_on_c, 0, 46, 43
1, 266293, Control_c, 0, 64, 65
1, 266307, Control_c, 0, 64, 67
1, 266322, Control_c, 0, 64, 70
1, 266337, Control_c, 0, 64, 73
1, 266352, Control_c, 0, 64, 75
1, 266367, Control_c, 0, 64, 78
1, 266382, Control_c, 0, 64, 80
1, 266397, Control_c, 0, 64, 81
1, 266409, Note_off_c, 0, 46, 47
1, 266412, Control_c, 0, 64, 83
1, 266426, Control_c, 0, 64, 83
1, 266432, Note_on_c, 0, 49, 39
1, 266438, Note_off_c, 0, 54, 35
1, 266441, Control_c, 0, 64, 84
1, 266459, Note_off_c, 0, 66, 33
1, 266471, Control_c, 0, 64, 85
1, 266495, Note_off_c, 0, 58, 42
1, 266543, Note_on_c, 0, 46, 49
1, 266587, Note_off_c, 0, 49, 34
1, 266648, Control_c, 0, 64, 84
1, 266670, Note_off_c, 0, 46, 47
1, 266677, Control_c, 0, 64, 84
1, 266701, Note_on_c, 0, 42, 36
1, 266707, Control_c, 0, 64, 83
1, 266722, Control_c, 0, 64, 83
1, 266737, Control_c, 0, 64, 82
1, 266759, Control_c, 0, 64, 81
1, 266774, Control_c, 0, 64, 81
1, 266789, Control_c, 0, 64, 79
1, 266804, Control_c, 0, 64, 78
1, 266819, Control_c, 0, 64, 77
1, 266835, Control_c, 0, 64, 76
1, 266837, Note_on_c, 0, 66, 46
1, 266846, Note_on_c, 0, 58, 28
1, 266850, Note_on_c, 0, 46, 44
1, 266850, Control_c, 0, 64, 75
1, 266851, Note_on_c, 0, 54, 38
1, 266854, Note_off_c, 0, 42, 41
1, 266864, Control_c, 0, 64, 73
1, 266879, Control_c, 0, 64, 72
1, 266894, Control_c, 0, 64, 71
1, 266909, Control_c, 0, 64, 69
1, 266924, Control_c, 0, 64, 67
1, 266938, Control_c, 0, 64, 65
1, 266953, Control_c, 0, 64, 64
1, 266968, Control_c, 0, 64, 61
1, 266982, Control_c, 0, 64, 58
1, 266985, Note_off_c, 0, 46, 53
1, 266997, Control_c, 0, 64, 55
1, 267002, Note_on_c, 0, 42, 26
1, 267012, Control_c, 0, 64, 53
1, 267027, Control_c, 0, 64, 52
1, 267043, Control_c, 0, 64, 49
1, 267057, Control_c, 0, 64, 45
1, 267072, Control_c, 0, 64, 41
1, 267087, Control_c, 0, 64, 39
1, 267101, Control_c, 0, 64, 37
1, 267116, Control_c, 0, 64, 35
1, 267129, Note_off_c, 0, 42, 51
1, 267130, Note_on_c, 0, 46, 44
1, 267131, Control_c, 0, 64, 31
1, 267146, Control_c, 0, 64, 26
1, 267161, Control_c, 0, 64, 14
1, 267176, Control_c, 0, 64, 0
1, 267264, Control_c, 0, 64, 11
1, 267267, Note_off_c, 0, 46, 50
1, 267279, Control_c, 0, 64, 28
1, 267294, Control_c, 0, 64, 40
1, 267297, Note_on_c, 0, 49, 39
1, 267309, Control_c, 0, 64, 49
1, 267324, Control_c, 0, 64, 56
1, 267339, Control_c, 0, 64, 61
1, 267354, Control_c, 0, 64, 63
1, 267368, Control_c, 0, 64, 65
1, 267383, Control_c, 0, 64, 67
1, 267398, Control_c, 0, 64, 70
1, 267413, Control_c, 0, 64, 74
1, 267428, Control_c, 0, 64, 76
1, 267441, Note_on_c, 0, 46, 41
1, 267443, Control_c, 0, 64, 78
1, 267453, Note_off_c, 0, 49, 35
1, 267457, Control_c, 0, 64, 79
1, 267460, Note_off_c, 0, 66, 38
1, 267472, Control_c, 0, 64, 79
1, 267487, Control_c, 0, 64, 80
1, 267507, Note_off_c, 0, 54, 39
1, 267541, Note_off_c, 0, 58, 40
1, 267579, Note_off_c, 0, 46, 45
1, 267619, Note_on_c, 0, 42, 38
1, 267702, Control_c, 0, 64, 79
1, 267732, Control_c, 0, 64, 79
1, 267760, Note_off_c, 0, 42, 52
1, 267762, Control_c, 0, 64, 78
1, 267777, Control_c, 0, 64, 78
1, 267792, Control_c, 0, 64, 77
1, 267806, Control_c, 0, 64, 75
1, 267810, Note_on_c, 0, 46, 38
1, 267821, Control_c, 0, 64, 74
1, 267824, Note_on_c, 0, 54, 34
1, 267827, Note_on_c, 0, 66, 40
1, 267836, Control_c, 0, 64, 72
1, 267836, Note_on_c, 0, 58, 31
1, 267851, Control_c, 0, 64, 72
1, 267866, Control_c, 0, 64, 71
1, 267880, Control_c, 0, 64, 70
1, 267895, Control_c, 0, 64, 69
1, 267910, Control_c, 0, 64, 66
1, 267924, Control_c, 0, 64, 63
1, 267939, Control_c, 0, 64, 60
1, 267954, Control_c, 0, 64, 59
1, 267969, Control_c, 0, 64, 58
1, 267984, Control_c, 0, 64, 54
1, 267998, Control_c, 0, 64, 42
1, 268001, Note_on_c, 0, 42, 31
1, 268009, Note_off_c, 0, 46, 40
1, 268013, Control_c, 0, 64, 0
1, 268160, Note_off_c, 0, 42, 52
1, 268190, Note_on_c, 0, 37, 35
1, 268395, Note_off_c, 0, 37, 55
1, 268437, Note_on_c, 0, 42, 40
1, 268703, Note_off_c, 0, 42, 42
1, 268728, Note_on_c, 0, 37, 28
1, 268925, Control_c, 0, 64, 23
1, 268940, Control_c, 0, 64, 34
1, 268954, Control_c, 0, 64, 44
1, 268969, Control_c, 0, 64, 52
1, 268984, Control_c, 0, 64, 56
1, 269007, Control_c, 0, 64, 59
1, 269022, Control_c, 0, 64, 61
1, 269036, Control_c, 0, 64, 62
1, 269048, Note_off_c, 0, 37, 40
1, 269051, Control_c, 0, 64, 63
1, 269066, Control_c, 0, 64, 64
1, 269077, Note_on_c, 0, 34, 26
1, 269080, Control_c, 0, 64, 65
1, 269095, Control_c, 0, 64, 67
1, 269110, Control_c, 0, 64, 68
1, 269125, Control_c, 0, 64, 70
1, 269140, Control_c, 0, 64, 72
1, 269149, Note_off_c, 0, 54, 29
1, 269154, Control_c, 0, 64, 73
1, 269169, Control_c, 0, 64, 75
1, 269184, Control_c, 0, 64, 77
1, 269199, Control_c, 0, 64, 78
1, 269214, Control_c, 0, 64, 79
1, 269220, Note_off_c, 0, 58, 26
1, 269222, Note_off_c, 0, 66, 37
1, 269230, Control_c, 0, 64, 79
1, 269245, Control_c, 0, 64, 80
1, 269259, Control_c, 0, 64, 81
1, 269274, Control_c, 0, 64, 81
1, 269289, Control_c, 0, 64, 82
1, 269304, Control_c, 0, 64, 82
1, 269378, Control_c, 0, 64, 83
1, 269618, Note_off_c, 0, 34, 28
1, 269630, Control_c, 0, 64, 82
1, 269689, Control_c, 0, 64, 82
1, 269733, Control_c, 0, 64, 81
1, 269785, Control_c, 0, 64, 81
1, 269800, Control_c, 0, 64, 80
1, 269830, Control_c, 0, 64, 80
1, 269859, Control_c, 0, 64, 79
1, 269889, Control_c, 0, 64, 79
1, 269903, Control_c, 0, 64, 78
1, 269926, Note_on_c, 0, 66, 38
1, 269929, Note_on_c, 0, 54, 31
1, 269932, Note_on_c, 0, 58, 30
1, 269933, Control_c, 0, 64, 78
1, 269934, Note_on_c, 0, 30, 25
1, 269948, Control_c, 0, 64, 77
1, 269963, Control_c, 0, 64, 77
1, 269965, Note_on_c, 0, 42, 13
1, 269971, Note_on_c, 0, 37, 15
1, 269977, Control_c, 0, 64, 76
1, 269992, Control_c, 0, 64, 76
1, 270007, Control_c, 0, 64, 75
1, 270022, Control_c, 0, 64, 74
1, 270038, Control_c, 0, 64, 73
1, 270053, Control_c, 0, 64, 72
1, 270068, Control_c, 0, 64, 71
1, 270082, Control_c, 0, 64, 69
1, 270097, Control_c, 0, 64, 68
1, 270112, Control_c, 0, 64, 66
1, 270126, Control_c, 0, 64, 64
1, 270141, Control_c, 0, 64, 64
1, 270186, Control_c, 0, 64, 63
1, 270200, Control_c, 0, 64, 63
1, 270215, Control_c, 0, 64, 62
1, 270230, Control_c, 0, 64, 60
1, 270245, Control_c, 0, 64, 60
1, 270290, Control_c, 0, 64, 59
1, 270305, Control_c, 0, 64, 58
1, 270319, Control_c, 0, 64, 56
1, 270334, Control_c, 0, 64, 54
1, 270349, Control_c, 0, 64, 50
1, 270364, Control_c, 0, 64, 46
1, 270379, Control_c, 0, 64, 41
1, 270393, Control_c, 0, 64, 37
1, 270408, Control_c, 0, 64, 33
1, 270423, Control_c, 0, 64, 30
1, 270438, Control_c, 0, 64, 29
1, 270453, Control_c, 0, 64, 26
1, 270467, Control_c, 0, 64, 23
1, 270482, Control_c, 0, 64, 18
1, 270504, Control_c, 0, 64, 14
1, 270519, Control_c, 0, 64, 0
1, 270579, Control_c, 0, 64, 11
1, 270608, Control_c, 0, 64, 14
1, 270623, Control_c, 0, 64, 16
1, 270638, Control_c, 0, 64, 18
1, 270652, Control_c, 0, 64, 20
1, 270667, Control_c, 0, 64, 23
1, 270682, Control_c, 0, 64, 25
1, 270697, Control_c, 0, 64, 26
1, 270712, Control_c, 0, 64, 27
1, 270726, Control_c, 0, 64, 28
1, 270756, Control_c, 0, 64, 30
1, 270771, Control_c, 0, 64, 31
1, 270786, Control_c, 0, 64, 32
1, 270800, Control_c, 0, 64, 33
1, 270815, Control_c, 0, 64, 34
1, 270831, Control_c, 0, 64, 34
1, 270861, Control_c, 0, 64, 35
1, 270891, Control_c, 0, 64, 37
1, 270905, Control_c, 0, 64, 38
1, 270920, Control_c, 0, 64, 39
1, 270935, Control_c, 0, 64, 41
1, 270949, Control_c, 0, 64, 44
1, 270964, Control_c, 0, 64, 47
1, 270979, Control_c, 0, 64, 50
1, 270994, Control_c, 0, 64, 53
1, 271009, Control_c, 0, 64, 55
1, 271023, Control_c, 0, 64, 57
1, 271038, Control_c, 0, 64, 59
1, 271053, Control_c, 0, 64, 60
1, 271068, Control_c, 0, 64, 61
1, 271083, Control_c, 0, 64, 63
1, 271098, Control_c, 0, 64, 64
1, 271112, Control_c, 0, 64, 65
1, 271127, Control_c, 0, 64, 66
1, 271142, Control_c, 0, 64, 67
1, 271157, Control_c, 0, 64, 67
1, 271172, Control_c, 0, 64, 68
1, 271187, Control_c, 0, 64, 70
1, 271202, Control_c, 0, 64, 71
1, 271216, Control_c, 0, 64, 71
1, 271231, Control_c, 0, 64, 72
1, 271268, Control_c, 0, 64, 72
1, 271297, Control_c, 0, 64, 73
1, 271327, Control_c, 0, 64, 73
1, 271549, Control_c, 0, 64, 73
1, 271549, Control_c, 0, 67, 126
1, 271564, Control_c, 0, 67, 124
1, 271579, Control_c, 0, 67, 122
1, 271594, Control_c, 0, 64, 72
1, 271594, Control_c, 0, 67, 121
1, 271609, Control_c, 0, 64, 72
1, 271609, Control_c, 0, 67, 120
1, 271625, Control_c, 0, 67, 119
1, 271640, Control_c, 0, 64, 71
1, 271640, Control_c, 0, 67, 119
1, 271669, Control_c, 0, 67, 119
1, 271714, Control_c, 0, 67, 119
1, 271743, Control_c, 0, 64, 71
1, 271817, Control_c, 0, 67, 118
1, 271846, Control_c, 0, 64, 70
1, 271876, Control_c, 0, 67, 118
1, 271891, Control_c, 0, 64, 70
1, 271935, Control_c, 0, 64, 69
1, 271965, Control_c, 0, 67, 117
1, 271980, Control_c, 0, 64, 69
1, 272032, Control_c, 0, 64, 68
1, 272061, Control_c, 0, 64, 68
1, 272091, Control_c, 0, 67, 116
1, 272105, Control_c, 0, 64, 67
1, 272105, Control_c, 0, 67, 114
1, 272120, Control_c, 0, 67, 113
1, 272135, Control_c, 0, 67, 112
1, 272150, Control_c, 0, 67, 112
1, 272180, Control_c, 0, 67, 111
1, 272209, Control_c, 0, 64, 67
1, 272269, Control_c, 0, 67, 111
1, 272298, Control_c, 0, 67, 110
1, 272343, Control_c, 0, 64, 67
1, 272463, Control_c, 0, 64, 67
1, 272536, Control_c, 0, 64, 66
1, 272551, Control_c, 0, 64, 66
1, 272566, Control_c, 0, 64, 65
1, 272595, Control_c, 0, 64, 65
1, 272610, Control_c, 0, 67, 111
1, 272625, Control_c, 0, 64, 64
1, 272640, Control_c, 0, 64, 64
1, 272655, Control_c, 0, 64, 63
1, 272669, Control_c, 0, 67, 110
1, 272728, Control_c, 0, 64, 63
1, 272751, Control_c, 0, 64, 62
1, 272766, Control_c, 0, 64, 62
1, 272766, Control_c, 0, 67, 111
1, 272840, Control_c, 0, 64, 61
1, 272855, Control_c, 0, 64, 61
1, 272855, Control_c, 0, 67, 110
1, 272884, Control_c, 0, 64, 60
1, 272914, Control_c, 0, 64, 60
1, 272914, Control_c, 0, 67, 110
1, 272928, Control_c, 0, 64, 59
1, 272943, Control_c, 0, 64, 58
1, 272958, Control_c, 0, 67, 109
1, 272973, Control_c, 0, 64, 58
1, 272988, Control_c, 0, 64, 57
1, 272988, Control_c, 0, 67, 109
1, 273002, Control_c, 0, 64, 55
1, 273002, Control_c, 0, 67, 105
1, 273017, Control_c, 0, 64, 52
1, 273017, Control_c, 0, 67, 100
1, 273032, Control_c, 0, 64, 50
1, 273032, Control_c, 0, 67, 94
1, 273047, Control_c, 0, 67, 90
1, 273062, Control_c, 0, 67, 87
1, 273077, Control_c, 0, 67, 84
1, 273092, Control_c, 0, 64, 49
1, 273092, Control_c, 0, 67, 82
1, 273107, Control_c, 0, 64, 48
1, 273107, Control_c, 0, 67, 81
1, 273121, Control_c, 0, 64, 45
1, 273121, Control_c, 0, 67, 80
1, 273136, Control_c, 0, 64, 41
1, 273136, Control_c, 0, 67, 79
1, 273151, Control_c, 0, 64, 40
1, 273166, Control_c, 0, 64, 39
1, 273166, Control_c, 0, 67, 78
1, 273181, Control_c, 0, 67, 78
1, 273195, Control_c, 0, 64, 38
1, 273195, Control_c, 0, 67, 77
1, 273210, Control_c, 0, 64, 35
1, 273210, Control_c, 0, 67, 76
1, 273226, Control_c, 0, 64, 26
1, 273226, Control_c, 0, 67, 73
1, 273241, Control_c, 0, 64, 0
1, 273241, Control_c, 0, 67, 72
1, 273256, Control_c, 0, 67, 70
1, 273271, Control_c, 0, 67, 69
1, 273286, Control_c, 0, 67, 67
1, 273300, Control_c, 0, 67, 65
1, 273315, Control_c, 0, 67, 63
1, 273330, Control_c, 0, 67, 60
1, 273344, Control_c, 0, 67, 55
1, 273359, Control_c, 0, 67, 52
1, 273374, Control_c, 0, 67, 49
1, 273389, Control_c, 0, 67, 46
1, 273404, Control_c, 0, 67, 44
1, 273418, Control_c, 0, 67, 42
1, 273433, Control_c, 0, 67, 39
1, 273443, Note_off_c, 0, 37, 13
1, 273448, Control_c, 0, 67, 35
1, 273463, Control_c, 0, 67, 31
1, 273478, Control_c, 0, 67, 28
1, 273500, Control_c, 0, 67, 24
1, 273515, Control_c, 0, 67, 21
1, 273530, Control_c, 0, 67, 17
1, 273544, Control_c, 0, 67, 13
1, 273559, Control_c, 0, 67, 0
1, 273718, Note_off_c, 0, 66, 31
1, 273786, Note_off_c, 0, 54, 35
1, 273796, Note_off_c, 0, 30, 32
1, 273810, Note_off_c, 0, 42, 29
1, 273840, Note_off_c, 0, 58, 27
1, 273840, End_track
0, 0, End_of_file
