0, 0, Header, 0, 1, 384
1, 0, Start_track
1, 0, Title_t, "Sonata K. 333--Julia Kociuban   "
1, 0, Text_t, "2008 e-Piano Junior Competition recital round"
1, 0, Text_t, "recorded July 2008"
1, 0, Text_t, "http://www.piano-e-competition.com/"
1, 0, Text_t, "File processed for distribution by software from Zenph Studios, Inc., http://www.zenph.com"
1, 0, Instrument_name_t, "Yamaha Disklavier Pro Mark IV concert grand piano, model DCFIIISM4PRO"
1, 0, Sequencer_specific, 39, 67, 113, 0, 1, 0, 1, 0, 83, 111, 110, 97, 116, 97, 32, 75, 46, 32, 51, 51, 51, 32, 32, 32, 74, 117, 108, 105, 97, 32, 75, 111, 99, 105, 117, 98, 97, 110, 32, 32
1, 0, Sequencer_specific, 6, 67, 113, 0, 0, 0, 69
1, 0, System_exclusive, 21, 67, 113, 126, 21, 0, 2, 2, 0, 3, 14, 1, 4, 1, 13, 13, 10, 11, 9, 2, 7, 247
1, 0, Sequencer_specific, 5, 67, 123, 12, 2, 1
1, 0, Tempo, 512820
1, 0, Time_signature, 4, 2, 24, 8
1, 0, System_exclusive, 5, 126, 127, 9, 1, 247
1, 1, System_exclusive, 8, 67, 16, 76, 0, 0, 126, 0, 247
1, 2, System_exclusive, 8, 67, 16, 76, 8, 9, 7, 1, 247
1, 3, Control_c, 0, 0, 0
1, 3, Control_c, 1, 0, 0
1, 3, Control_c, 2, 0, 0
1, 3, Control_c, 3, 0, 0
1, 3, Control_c, 4, 0, 0
1, 3, Control_c, 5, 0, 0
1, 3, Control_c, 6, 0, 0
1, 3, Control_c, 7, 0, 0
1, 3, Control_c, 8, 0, 0
1, 3, Control_c, 9, 0, 127
1, 3, Control_c, 10, 0, 0
1, 3, Control_c, 11, 0, 0
1, 3, Control_c, 12, 0, 0
1, 3, Control_c, 13, 0, 0
1, 3, Control_c, 14, 0, 0
1, 3, Control_c, 15, 0, 0
1, 4, Control_c, 0, 32, 0
1, 4, Control_c, 1, 32, 0
1, 4, Control_c, 2, 32, 0
1, 4, Control_c, 3, 32, 0
1, 4, Control_c, 4, 32, 0
1, 4, Control_c, 5, 32, 0
1, 4, Control_c, 6, 32, 0
1, 4, Control_c, 7, 32, 0
1, 4, Control_c, 8, 32, 0
1, 4, Control_c, 9, 32, 0
1, 4, Control_c, 10, 32, 0
1, 4, Control_c, 11, 32, 0
1, 4, Control_c, 12, 32, 0
1, 4, Control_c, 13, 32, 0
1, 4, Control_c, 14, 32, 0
1, 4, Control_c, 15, 32, 0
1, 5, Program_c, 0, 0
1, 5, Program_c, 1, 0
1, 5, Program_c, 2, 0
1, 5, Program_c, 3, 0
1, 5, Program_c, 4, 0
1, 5, Program_c, 5, 0
1, 5, Program_c, 6, 0
1, 5, Program_c, 7, 0
1, 5, Program_c, 8, 0
1, 5, Program_c, 9, 0
1, 5, Program_c, 10, 0
1, 5, Program_c, 11, 0
1, 5, Program_c, 12, 0
1, 5, Program_c, 13, 0
1, 5, Program_c, 14, 0
1, 5, Program_c, 15, 0
1, 6, Control_c, 0, 7, 100
1, 6, Control_c, 1, 7, 100
1, 6, Control_c, 2, 7, 100
1, 6, Control_c, 3, 7, 100
1, 6, Control_c, 4, 7, 100
1, 6, Control_c, 5, 7, 100
1, 6, Control_c, 6, 7, 100
1, 6, Control_c, 7, 7, 100
1, 6, Control_c, 8, 7, 100
1, 6, Control_c, 9, 7, 100
1, 6, Control_c, 10, 7, 100
1, 6, Control_c, 11, 7, 100
1, 6, Control_c, 12, 7, 100
1, 6, Control_c, 13, 7, 100
1, 6, Control_c, 14, 7, 100
1, 6, Control_c, 15, 7, 100
1, 1123, Control_c, 0, 67, 79
1, 1134, Note_on_c, 0, 79, 33
1, 1138, Control_c, 0, 67, 79
1, 1185, Note_off_c, 0, 79, 49
1, 1197, Note_on_c, 0, 77, 55
1, 1205, Control_c, 0, 67, 78
1, 1220, Control_c, 0, 67, 78
1, 1252, Note_off_c, 0, 77, 43
1, 1265, Control_c, 0, 67, 77
1, 1279, Control_c, 0, 67, 77
1, 1283, Note_on_c, 0, 75, 49
1, 1294, Control_c, 0, 67, 76
1, 1323, Control_c, 0, 67, 76
1, 1337, Note_off_c, 0, 75, 60
1, 1338, Control_c, 0, 67, 75
1, 1353, Note_on_c, 0, 74, 52
1, 1383, Control_c, 0, 67, 75
1, 1442, Note_off_c, 0, 74, 60
1, 1442, Control_c, 0, 67, 74
1, 1460, Note_on_c, 0, 72, 53
1, 1591, Control_c, 0, 67, 75
1, 1622, Note_off_c, 0, 72, 58
1, 1629, Note_on_c, 0, 70, 59
1, 1656, Note_on_c, 0, 58, 31
1, 1668, Note_off_c, 0, 70, 61
1, 1814, Note_on_c, 0, 70, 56
1, 1827, Control_c, 0, 67, 75
1, 1843, Note_on_c, 0, 62, 32
1, 1987, Note_off_c, 0, 62, 50
1, 1997, Note_on_c, 0, 65, 36
1, 2027, Control_c, 0, 64, 47
1, 2042, Control_c, 0, 64, 57
1, 2057, Control_c, 0, 64, 62
1, 2068, Note_off_c, 0, 58, 17
1, 2072, Control_c, 0, 64, 65
1, 2087, Control_c, 0, 64, 68
1, 2101, Control_c, 0, 64, 71
1, 2116, Control_c, 0, 64, 76
1, 2120, Note_off_c, 0, 70, 64
1, 2131, Control_c, 0, 64, 79
1, 2145, Control_c, 0, 64, 81
1, 2151, Note_on_c, 0, 62, 45
1, 2160, Control_c, 0, 64, 83
1, 2175, Control_c, 0, 64, 84
1, 2181, Note_off_c, 0, 65, 39
1, 2190, Control_c, 0, 64, 85
1, 2205, Control_c, 0, 64, 86
1, 2220, Control_c, 0, 64, 87
1, 2235, Control_c, 0, 67, 75
1, 2250, Control_c, 0, 64, 87
1, 2250, Control_c, 0, 67, 74
1, 2280, Control_c, 0, 67, 74
1, 2295, Note_off_c, 0, 62, 50
1, 2295, Control_c, 0, 67, 73
1, 2314, Note_on_c, 0, 74, 62
1, 2339, Note_on_c, 0, 58, 35
1, 2339, Control_c, 0, 67, 73
1, 2369, Control_c, 0, 67, 72
1, 2443, Control_c, 0, 64, 87
1, 2458, Control_c, 0, 67, 71
1, 2488, Control_c, 0, 67, 71
1, 2491, Note_on_c, 0, 79, 74
1, 2493, Note_off_c, 0, 74, 63
1, 2513, Note_on_c, 0, 62, 35
1, 2518, Control_c, 0, 67, 72
1, 2548, Control_c, 0, 64, 86
1, 2548, Control_c, 0, 67, 71
1, 2577, Control_c, 0, 64, 86
1, 2583, Note_off_c, 0, 58, 22
1, 2592, Control_c, 0, 67, 72
1, 2607, Control_c, 0, 64, 85
1, 2637, Control_c, 0, 64, 85
1, 2658, Control_c, 0, 64, 84
1, 2666, Note_on_c, 0, 74, 69
1, 2674, Note_off_c, 0, 79, 57
1, 2688, Control_c, 0, 64, 84
1, 2688, Control_c, 0, 67, 72
1, 2700, Note_on_c, 0, 67, 35
1, 2703, Control_c, 0, 64, 83
1, 2718, Control_c, 0, 64, 82
1, 2718, Control_c, 0, 67, 73
1, 2732, Note_off_c, 0, 62, 41
1, 2747, Control_c, 0, 64, 82
1, 2762, Control_c, 0, 64, 81
1, 2777, Control_c, 0, 64, 81
1, 2792, Control_c, 0, 64, 80
1, 2807, Control_c, 0, 64, 80
1, 2822, Control_c, 0, 64, 79
1, 2837, Control_c, 0, 64, 78
1, 2849, Note_on_c, 0, 77, 72
1, 2851, Control_c, 0, 64, 77
1, 2866, Control_c, 0, 64, 76
1, 2874, Note_off_c, 0, 67, 21
1, 2881, Control_c, 0, 64, 73
1, 2881, Control_c, 0, 67, 72
1, 2895, Control_c, 0, 64, 70
1, 2900, Note_off_c, 0, 74, 61
1, 2910, Control_c, 0, 64, 64
1, 2925, Control_c, 0, 64, 42
1, 2940, Control_c, 0, 64, 0
1, 3013, Note_on_c, 0, 60, 35
1, 3029, Control_c, 0, 67, 73
1, 3104, Control_c, 0, 67, 73
1, 3192, Control_c, 0, 64, 36
1, 3197, Note_on_c, 0, 75, 56
1, 3207, Control_c, 0, 64, 53
1, 3216, Note_on_c, 0, 63, 29
1, 3216, Note_off_c, 0, 77, 54
1, 3222, Control_c, 0, 64, 63
1, 3237, Control_c, 0, 64, 66
1, 3252, Control_c, 0, 64, 70
1, 3266, Control_c, 0, 64, 75
1, 3266, Control_c, 0, 67, 73
1, 3281, Control_c, 0, 64, 78
1, 3296, Control_c, 0, 64, 80
1, 3311, Control_c, 0, 64, 81
1, 3325, Control_c, 0, 64, 82
1, 3338, Note_off_c, 0, 75, 60
1, 3340, Control_c, 0, 64, 82
1, 3360, Note_off_c, 0, 63, 44
1, 3367, Note_on_c, 0, 67, 40
1, 3466, Control_c, 0, 64, 82
1, 3481, Control_c, 0, 64, 80
1, 3496, Control_c, 0, 64, 75
1, 3496, Control_c, 0, 67, 73
1, 3508, Note_off_c, 0, 60, 9
1, 3510, Control_c, 0, 64, 68
1, 3525, Control_c, 0, 64, 24
1, 3532, Note_off_c, 0, 67, 39
1, 3534, Note_on_c, 0, 63, 45
1, 3540, Control_c, 0, 64, 0
1, 3683, Note_off_c, 0, 63, 57
1, 3698, Note_on_c, 0, 77, 61
1, 3710, Note_on_c, 0, 60, 37
1, 3738, Note_off_c, 0, 77, 55
1, 3775, Note_on_c, 0, 79, 67
1, 3791, Control_c, 0, 67, 73
1, 3821, Control_c, 0, 67, 72
1, 3826, Note_off_c, 0, 60, 59
1, 3841, Note_off_c, 0, 79, 58
1, 3850, Note_on_c, 0, 77, 66
1, 3851, Control_c, 0, 67, 72
1, 3859, Note_on_c, 0, 63, 40
1, 3913, Note_off_c, 0, 77, 58
1, 3920, Note_on_c, 0, 75, 69
1, 3926, Control_c, 0, 67, 71
1, 3955, Control_c, 0, 67, 71
1, 3984, Note_off_c, 0, 75, 65
1, 3990, Note_off_c, 0, 63, 57
1, 4000, Control_c, 0, 67, 71
1, 4001, Note_on_c, 0, 74, 66
1, 4014, Note_on_c, 0, 67, 14
1, 4029, Control_c, 0, 67, 72
1, 4038, Note_off_c, 0, 74, 59
1, 4056, Note_off_c, 0, 67, 49
1, 4077, Note_on_c, 0, 72, 62
1, 4151, Note_off_c, 0, 72, 42
1, 4170, Note_on_c, 0, 70, 67
1, 4336, Note_on_c, 0, 53, 26
1, 4377, Control_c, 0, 67, 71
1, 4421, Control_c, 0, 67, 72
1, 4508, Note_on_c, 0, 69, 58
1, 4524, Note_off_c, 0, 70, 55
1, 4527, Note_on_c, 0, 60, 33
1, 4599, Control_c, 0, 67, 72
1, 4658, Control_c, 0, 64, 55
1, 4658, Control_c, 0, 67, 73
1, 4662, Note_off_c, 0, 60, 56
1, 4674, Control_c, 0, 64, 64
1, 4682, Note_on_c, 0, 63, 43
1, 4689, Control_c, 0, 64, 67
1, 4704, Control_c, 0, 64, 71
1, 4718, Control_c, 0, 64, 74
1, 4733, Control_c, 0, 64, 78
1, 4746, Note_off_c, 0, 69, 60
1, 4748, Control_c, 0, 64, 80
1, 4762, Control_c, 0, 64, 82
1, 4777, Control_c, 0, 64, 84
1, 4792, Control_c, 0, 64, 85
1, 4792, Control_c, 0, 67, 73
1, 4807, Control_c, 0, 64, 86
1, 4822, Control_c, 0, 64, 87
1, 4836, Note_off_c, 0, 63, 50
1, 4839, Note_off_c, 0, 53, 41
1, 4843, Note_on_c, 0, 60, 47
1, 4904, Control_c, 0, 67, 74
1, 4948, Control_c, 0, 67, 74
1, 5008, Note_off_c, 0, 60, 54
1, 5013, Note_on_c, 0, 69, 59
1, 5019, Note_on_c, 0, 53, 47
1, 5022, Control_c, 0, 67, 75
1, 5096, Control_c, 0, 67, 75
1, 5192, Note_on_c, 0, 70, 68
1, 5210, Note_on_c, 0, 60, 51
1, 5216, Note_off_c, 0, 69, 60
1, 5303, Control_c, 0, 67, 76
1, 5331, Note_off_c, 0, 53, 39
1, 5368, Note_on_c, 0, 72, 72
1, 5371, Note_off_c, 0, 60, 59
1, 5377, Control_c, 0, 64, 87
1, 5382, Note_on_c, 0, 63, 48
1, 5389, Note_off_c, 0, 70, 60
1, 5392, Control_c, 0, 67, 75
1, 5407, Control_c, 0, 64, 86
1, 5424, Note_off_c, 0, 72, 61
1, 5436, Control_c, 0, 64, 86
1, 5467, Control_c, 0, 64, 85
1, 5467, Control_c, 0, 67, 75
1, 5497, Control_c, 0, 64, 85
1, 5497, Control_c, 0, 67, 74
1, 5498, Note_off_c, 0, 63, 36
1, 5557, Control_c, 0, 64, 84
1, 5575, Note_on_c, 0, 72, 64
1, 5584, Note_on_c, 0, 69, 54
1, 5586, Control_c, 0, 64, 84
1, 5601, Control_c, 0, 64, 83
1, 5616, Control_c, 0, 64, 83
1, 5631, Control_c, 0, 64, 82
1, 5654, Control_c, 0, 64, 82
1, 5668, Control_c, 0, 64, 81
1, 5683, Control_c, 0, 64, 79
1, 5698, Control_c, 0, 64, 77
1, 5713, Control_c, 0, 64, 74
1, 5727, Control_c, 0, 64, 70
1, 5742, Control_c, 0, 64, 63
1, 5757, Control_c, 0, 64, 0
1, 5758, Note_on_c, 0, 58, 42
1, 5895, Note_off_c, 0, 69, 56
1, 5920, Note_off_c, 0, 58, 53
1, 5926, Note_on_c, 0, 74, 53
1, 5927, Note_off_c, 0, 72, 57
1, 5935, Note_on_c, 0, 70, 44
1, 5936, Note_on_c, 0, 62, 43
1, 5949, Control_c, 0, 67, 74
1, 5979, Control_c, 0, 64, 54
1, 5979, Control_c, 0, 67, 73
1, 5985, Note_off_c, 0, 70, 0
1, 5985, Note_on_c, 0, 70, 20
1, 5994, Control_c, 0, 64, 64
1, 6008, Control_c, 0, 64, 67
1, 6008, Control_c, 0, 67, 73
1, 6023, Control_c, 0, 64, 70
1, 6038, Control_c, 0, 64, 74
1, 6053, Control_c, 0, 64, 76
1, 6068, Control_c, 0, 64, 78
1, 6072, Note_off_c, 0, 62, 57
1, 6083, Control_c, 0, 64, 78
1, 6091, Note_on_c, 0, 65, 50
1, 6110, Note_off_c, 0, 74, 62
1, 6113, Note_off_c, 0, 70, 56
1, 6113, Control_c, 0, 64, 79
1, 6128, Control_c, 0, 67, 73
1, 6172, Control_c, 0, 67, 74
1, 6202, Control_c, 0, 64, 78
1, 6217, Control_c, 0, 64, 74
1, 6232, Control_c, 0, 64, 61
1, 6244, Note_off_c, 0, 65, 43
1, 6245, Note_on_c, 0, 62, 55
1, 6247, Control_c, 0, 64, 0
1, 6247, Control_c, 0, 67, 74
1, 6277, Control_c, 0, 67, 75
1, 6321, Control_c, 0, 67, 75
1, 6394, Note_off_c, 0, 62, 59
1, 6417, Control_c, 0, 67, 76
1, 6420, Note_on_c, 0, 77, 56
1, 6426, Note_on_c, 0, 58, 44
1, 6432, Control_c, 0, 67, 76
1, 6452, Note_off_c, 0, 77, 51
1, 6462, Control_c, 0, 67, 77
1, 6488, Note_on_c, 0, 76, 62
1, 6542, Note_off_c, 0, 58, 59
1, 6553, Note_off_c, 0, 76, 62
1, 6565, Note_on_c, 0, 79, 72
1, 6566, Control_c, 0, 67, 76
1, 6581, Control_c, 0, 67, 76
1, 6587, Note_on_c, 0, 62, 36
1, 6596, Control_c, 0, 67, 75
1, 6626, Note_off_c, 0, 79, 53
1, 6640, Control_c, 0, 67, 75
1, 6643, Note_on_c, 0, 77, 65
1, 6670, Control_c, 0, 67, 74
1, 6683, Note_off_c, 0, 77, 58
1, 6689, Note_off_c, 0, 62, 61
1, 6712, Note_on_c, 0, 75, 68
1, 6734, Note_on_c, 0, 65, 38
1, 6750, Note_off_c, 0, 75, 58
1, 6773, Control_c, 0, 67, 74
1, 6790, Note_on_c, 0, 74, 58
1, 6809, Note_off_c, 0, 74, 66
1, 6817, Control_c, 0, 67, 73
1, 6868, Note_off_c, 0, 65, 44
1, 6876, Note_on_c, 0, 74, 71
1, 6894, Note_on_c, 0, 63, 41
1, 6965, Control_c, 0, 67, 74
1, 6980, Control_c, 0, 67, 74
1, 7021, Note_off_c, 0, 74, 61
1, 7024, Note_off_c, 0, 63, 61
1, 7025, Control_c, 0, 67, 75
1, 7037, Note_on_c, 0, 72, 60
1, 7040, Control_c, 0, 67, 75
1, 7049, Note_on_c, 0, 67, 45
1, 7085, Control_c, 0, 67, 76
1, 7152, Control_c, 0, 67, 75
1, 7166, Control_c, 0, 67, 75
1, 7170, Note_off_c, 0, 72, 63
1, 7181, Control_c, 0, 67, 74
1, 7189, Note_off_c, 0, 67, 43
1, 7205, Note_on_c, 0, 62, 57
1, 7314, Control_c, 0, 67, 74
1, 7336, Note_off_c, 0, 62, 54
1, 7345, Note_on_c, 0, 70, 66
1, 7359, Note_on_c, 0, 65, 43
1, 7359, Control_c, 0, 67, 73
1, 7371, Note_off_c, 0, 70, 67
1, 7404, Control_c, 0, 67, 74
1, 7478, Control_c, 0, 67, 73
1, 7498, Note_off_c, 0, 65, 60
1, 7510, Note_on_c, 0, 74, 68
1, 7520, Note_on_c, 0, 63, 50
1, 7537, Control_c, 0, 67, 74
1, 7646, Note_off_c, 0, 63, 63
1, 7669, Note_off_c, 0, 74, 64
1, 7670, Control_c, 0, 67, 75
1, 7676, Note_on_c, 0, 72, 67
1, 7683, Note_on_c, 0, 67, 53
1, 7684, Control_c, 0, 67, 75
1, 7714, Control_c, 0, 67, 76
1, 7758, Control_c, 0, 67, 75
1, 7788, Control_c, 0, 67, 75
1, 7794, Note_off_c, 0, 72, 63
1, 7818, Control_c, 0, 67, 74
1, 7821, Note_off_c, 0, 67, 44
1, 7832, Note_on_c, 0, 60, 58
1, 7901, Control_c, 0, 67, 74
1, 7915, Control_c, 0, 67, 73
1, 7950, Note_off_c, 0, 60, 55
1, 7982, Note_on_c, 0, 69, 67
1, 7988, Note_on_c, 0, 63, 49
1, 8004, Control_c, 0, 67, 74
1, 8009, Note_off_c, 0, 69, 69
1, 8078, Control_c, 0, 67, 73
1, 8117, Note_off_c, 0, 63, 61
1, 8140, Note_on_c, 0, 70, 69
1, 8144, Note_on_c, 0, 62, 48
1, 8149, Note_on_c, 0, 65, 50
1, 8182, Control_c, 0, 67, 74
1, 8196, Note_off_c, 0, 70, 57
1, 8214, Note_on_c, 0, 72, 70
1, 8275, Note_off_c, 0, 72, 60
1, 8289, Note_on_c, 0, 70, 67
1, 8301, Control_c, 0, 67, 74
1, 8334, Note_off_c, 0, 70, 57
1, 8345, Control_c, 0, 67, 75
1, 8361, Note_on_c, 0, 69, 70
1, 8389, Control_c, 0, 67, 74
1, 8411, Note_off_c, 0, 69, 60
1, 8434, Control_c, 0, 67, 73
1, 8443, Note_on_c, 0, 70, 77
1, 8493, Note_off_c, 0, 70, 61
1, 8523, Note_on_c, 0, 72, 73
1, 8567, Note_off_c, 0, 72, 61
1, 8598, Note_on_c, 0, 74, 72
1, 8644, Note_off_c, 0, 74, 65
1, 8664, Control_c, 0, 67, 74
1, 8684, Note_on_c, 0, 75, 74
1, 8708, Control_c, 0, 67, 73
1, 8735, Note_off_c, 0, 75, 61
1, 8758, Note_off_c, 0, 62, 61
1, 8760, Note_on_c, 0, 76, 75
1, 8765, Note_off_c, 0, 65, 58
1, 8801, Note_off_c, 0, 76, 63
1, 8825, Note_on_c, 0, 77, 69
1, 8866, Note_off_c, 0, 77, 58
1, 8885, Control_c, 0, 67, 74
1, 8903, Note_on_c, 0, 76, 68
1, 8930, Note_off_c, 0, 76, 65
1, 8966, Note_on_c, 0, 77, 75
1, 8989, Control_c, 0, 67, 74
1, 9028, Note_off_c, 0, 77, 59
1, 9034, Control_c, 0, 67, 75
1, 9038, Note_on_c, 0, 79, 77
1, 9049, Control_c, 0, 67, 75
1, 9063, Control_c, 0, 67, 76
1, 9078, Control_c, 0, 67, 76
1, 9100, Note_off_c, 0, 79, 58
1, 9106, Note_on_c, 0, 77, 69
1, 9147, Note_off_c, 0, 77, 61
1, 9152, Control_c, 0, 67, 77
1, 9175, Note_on_c, 0, 75, 71
1, 9204, Note_off_c, 0, 75, 63
1, 9238, Note_on_c, 0, 74, 75
1, 9241, Control_c, 0, 67, 76
1, 9263, Note_off_c, 0, 74, 64
1, 9271, Control_c, 0, 67, 76
1, 9286, Control_c, 0, 67, 75
1, 9301, Control_c, 0, 67, 75
1, 9316, Control_c, 0, 67, 74
1, 9325, Note_on_c, 0, 63, 56
1, 9329, Note_on_c, 0, 74, 77
1, 9330, Control_c, 0, 67, 74
1, 9345, Control_c, 0, 67, 73
1, 9360, Control_c, 0, 67, 72
1, 9375, Control_c, 0, 67, 71
1, 9398, Control_c, 0, 67, 70
1, 9412, Control_c, 0, 67, 68
1, 9427, Control_c, 0, 67, 62
1, 9442, Control_c, 0, 67, 53
1, 9457, Control_c, 0, 67, 46
1, 9472, Control_c, 0, 67, 41
1, 9485, Note_off_c, 0, 74, 59
1, 9487, Control_c, 0, 67, 39
1, 9496, Note_off_c, 0, 63, 63
1, 9499, Note_on_c, 0, 72, 72
1, 9518, Note_on_c, 0, 67, 57
1, 9521, Note_off_c, 0, 72, 71
1, 9561, Control_c, 0, 67, 40
1, 9576, Control_c, 0, 67, 40
1, 9606, Control_c, 0, 67, 41
1, 9655, Note_on_c, 0, 72, 84
1, 9666, Note_on_c, 0, 62, 64
1, 9684, Note_off_c, 0, 67, 45
1, 9724, Control_c, 0, 67, 40
1, 9739, Control_c, 0, 67, 40
1, 9754, Control_c, 0, 67, 38
1, 9768, Control_c, 0, 67, 37
1, 9783, Control_c, 0, 67, 35
1, 9798, Control_c, 0, 67, 31
1, 9799, Note_off_c, 0, 72, 58
1, 9809, Note_off_c, 0, 62, 61
1, 9811, Note_on_c, 0, 70, 77
1, 9813, Control_c, 0, 67, 29
1, 9815, Note_on_c, 0, 65, 66
1, 9828, Control_c, 0, 67, 29
1, 9836, Note_off_c, 0, 70, 67
1, 9842, Control_c, 0, 67, 28
1, 9902, Control_c, 0, 67, 28
1, 9916, Control_c, 0, 67, 27
1, 9931, Control_c, 0, 67, 26
1, 9946, Control_c, 0, 67, 18
1, 9961, Control_c, 0, 67, 8
1, 9962, Note_on_c, 0, 74, 82
1, 9973, Note_off_c, 0, 65, 60
1, 9976, Control_c, 0, 67, 0
1, 9979, Note_on_c, 0, 63, 64
1, 10097, Note_off_c, 0, 63, 64
1, 10116, Note_on_c, 0, 67, 64
1, 10122, Note_off_c, 0, 74, 63
1, 10123, Note_on_c, 0, 72, 81
1, 10158, Note_off_c, 0, 72, 65
1, 10269, Note_off_c, 0, 67, 53
1, 10277, Note_on_c, 0, 72, 87
1, 10288, Note_on_c, 0, 60, 68
1, 10404, Note_off_c, 0, 72, 63
1, 10432, Note_off_c, 0, 60, 58
1, 10440, Note_on_c, 0, 69, 83
1, 10442, Note_on_c, 0, 63, 70
1, 10473, Note_off_c, 0, 69, 66
1, 10604, Note_on_c, 0, 70, 88
1, 10605, Note_on_c, 0, 62, 70
1, 10605, Note_off_c, 0, 63, 60
1, 10606, Note_on_c, 0, 65, 76
1, 10742, Note_off_c, 0, 70, 61
1, 10763, Note_on_c, 0, 72, 83
1, 10822, Note_off_c, 0, 72, 58
1, 10835, Note_on_c, 0, 74, 75
1, 10897, Note_off_c, 0, 74, 59
1, 10914, Note_on_c, 0, 75, 83
1, 10971, Note_off_c, 0, 75, 67
1, 10993, Note_on_c, 0, 77, 80
1, 11012, Note_off_c, 0, 65, 58
1, 11027, Note_off_c, 0, 62, 58
1, 11052, Note_off_c, 0, 77, 52
1, 11060, Note_on_c, 0, 79, 86
1, 11127, Note_off_c, 0, 79, 60
1, 11132, Note_on_c, 0, 81, 85
1, 11204, Note_on_c, 0, 82, 83
1, 11210, Note_off_c, 0, 81, 61
1, 11240, Note_off_c, 0, 82, 65
1, 11275, Note_on_c, 0, 84, 85
1, 11281, Control_c, 0, 67, 8
1, 11296, Control_c, 0, 67, 10
1, 11311, Control_c, 0, 67, 11
1, 11340, Control_c, 0, 67, 10
1, 11342, Note_on_c, 0, 86, 86
1, 11348, Note_off_c, 0, 84, 62
1, 11355, Control_c, 0, 67, 9
1, 11370, Control_c, 0, 67, 8
1, 11385, Control_c, 0, 67, 8
1, 11400, Control_c, 0, 67, 0
1, 11404, Note_off_c, 0, 86, 62
1, 11407, Note_on_c, 0, 87, 84
1, 11477, Note_off_c, 0, 87, 64
1, 11493, Note_on_c, 0, 89, 92
1, 11526, Note_off_c, 0, 89, 67
1, 11661, Note_on_c, 0, 89, 85
1, 11685, Note_off_c, 0, 89, 66
1, 11841, Note_on_c, 0, 89, 88
1, 11849, Note_on_c, 0, 57, 57
1, 11850, Note_on_c, 0, 77, 79
1, 12015, Note_on_c, 0, 87, 83
1, 12015, Note_off_c, 0, 57, 62
1, 12084, Note_off_c, 0, 89, 59
1, 12173, Note_on_c, 0, 58, 60
1, 12196, Note_off_c, 0, 87, 61
1, 12327, Note_off_c, 0, 77, 29
1, 12343, Note_on_c, 0, 86, 80
1, 12349, Note_off_c, 0, 58, 43
1, 12412, Note_off_c, 0, 86, 61
1, 12508, Note_on_c, 0, 86, 81
1, 12511, Control_c, 0, 67, 8
1, 12520, Note_on_c, 0, 51, 54
1, 12526, Control_c, 0, 67, 9
1, 12541, Control_c, 0, 67, 0
1, 12626, Note_off_c, 0, 86, 57
1, 12644, Control_c, 0, 67, 8
1, 12674, Note_on_c, 0, 84, 75
1, 12682, Note_off_c, 0, 51, 61
1, 12686, Note_on_c, 0, 75, 47
1, 12690, Control_c, 0, 67, 8
1, 12710, Note_off_c, 0, 75, 50
1, 12710, Note_off_c, 0, 84, 64
1, 12719, Control_c, 0, 67, 0
1, 12835, Note_on_c, 0, 82, 76
1, 12848, Note_on_c, 0, 53, 44
1, 12849, Note_on_c, 0, 74, 58
1, 12867, Control_c, 0, 67, 8
1, 12869, Note_off_c, 0, 74, 65
1, 12872, Note_off_c, 0, 82, 62
1, 12882, Control_c, 0, 67, 8
1, 12897, Control_c, 0, 67, 9
1, 12912, Control_c, 0, 67, 10
1, 12927, Control_c, 0, 67, 10
1, 12942, Control_c, 0, 67, 11
1, 12972, Control_c, 0, 67, 12
1, 12992, Note_off_c, 0, 53, 63
1, 13000, Note_on_c, 0, 81, 74
1, 13012, Note_on_c, 0, 72, 64
1, 13016, Control_c, 0, 67, 12
1, 13024, Note_off_c, 0, 81, 65
1, 13030, Note_off_c, 0, 72, 67
1, 13045, Control_c, 0, 67, 13
1, 13060, Control_c, 0, 67, 14
1, 13075, Control_c, 0, 67, 15
1, 13090, Control_c, 0, 67, 16
1, 13157, Control_c, 0, 67, 16
1, 13172, Control_c, 0, 67, 15
1, 13189, Note_on_c, 0, 82, 71
1, 13195, Note_on_c, 0, 74, 50
1, 13201, Control_c, 0, 67, 15
1, 13216, Control_c, 0, 67, 15
1, 13231, Control_c, 0, 67, 16
1, 13290, Control_c, 0, 67, 15
1, 13304, Control_c, 0, 67, 16
1, 13345, Note_off_c, 0, 74, 62
1, 13349, Control_c, 0, 67, 15
1, 13362, Note_on_c, 0, 46, 54
1, 13364, Control_c, 0, 67, 15
1, 13378, Control_c, 0, 67, 14
1, 13387, Note_off_c, 0, 82, 57
1, 13393, Control_c, 0, 67, 12
1, 13395, Note_off_c, 0, 46, 63
1, 13408, Control_c, 0, 67, 11
1, 13498, Control_c, 0, 67, 10
1, 13531, Note_on_c, 0, 70, 51
1, 13542, Control_c, 0, 67, 10
1, 13544, Note_on_c, 0, 50, 35
1, 13577, Note_off_c, 0, 50, 49
1, 13705, Note_on_c, 0, 53, 48
1, 13736, Note_off_c, 0, 53, 64
1, 13868, Control_c, 0, 67, 11
1, 13890, Control_c, 0, 67, 11
1, 13917, Note_on_c, 0, 58, 43
1, 13920, Control_c, 0, 67, 12
1, 13945, Note_off_c, 0, 70, 60
1, 13950, Control_c, 0, 67, 12
1, 13964, Control_c, 0, 67, 13
1, 13994, Control_c, 0, 67, 14
1, 14024, Control_c, 0, 67, 14
1, 14039, Control_c, 0, 67, 15
1, 14053, Control_c, 0, 67, 15
1, 14068, Control_c, 0, 67, 16
1, 14083, Control_c, 0, 67, 16
1, 14098, Control_c, 0, 67, 18
1, 14113, Control_c, 0, 67, 22
1, 14127, Control_c, 0, 67, 30
1, 14142, Control_c, 0, 67, 38
1, 14157, Control_c, 0, 67, 44
1, 14172, Control_c, 0, 67, 51
1, 14187, Control_c, 0, 67, 56
1, 14201, Control_c, 0, 67, 59
1, 14216, Control_c, 0, 67, 60
1, 14246, Control_c, 0, 67, 61
1, 14277, Control_c, 0, 67, 60
1, 14313, Note_on_c, 0, 67, 51
1, 14321, Control_c, 0, 67, 60
1, 14350, Control_c, 0, 67, 59
1, 14358, Note_off_c, 0, 58, 57
1, 14373, Note_off_c, 0, 67, 55
1, 14398, Note_on_c, 0, 65, 54
1, 14424, Control_c, 0, 67, 60
1, 14439, Control_c, 0, 67, 60
1, 14462, Note_off_c, 0, 65, 60
1, 14481, Note_on_c, 0, 63, 57
1, 14498, Control_c, 0, 67, 61
1, 14513, Control_c, 0, 67, 61
1, 14542, Note_off_c, 0, 63, 62
1, 14546, Note_on_c, 0, 62, 61
1, 14617, Control_c, 0, 67, 61
1, 14631, Note_off_c, 0, 62, 60
1, 14639, Control_c, 0, 67, 60
1, 14657, Note_on_c, 0, 60, 52
1, 14669, Control_c, 0, 67, 60
1, 14683, Control_c, 0, 67, 59
1, 14698, Control_c, 0, 67, 59
1, 14713, Control_c, 0, 67, 58
1, 14728, Control_c, 0, 67, 57
1, 14743, Control_c, 0, 67, 57
1, 14757, Control_c, 0, 67, 56
1, 14772, Control_c, 0, 67, 55
1, 14787, Control_c, 0, 67, 55
1, 14802, Control_c, 0, 67, 54
1, 14813, Note_off_c, 0, 60, 56
1, 14823, Note_on_c, 0, 58, 51
1, 14841, Note_on_c, 0, 46, 39
1, 14867, Note_off_c, 0, 58, 62
1, 14995, Note_on_c, 0, 58, 55
1, 15026, Note_on_c, 0, 50, 26
1, 15049, Note_off_c, 0, 46, 35
1, 15160, Note_off_c, 0, 50, 54
1, 15172, Note_on_c, 0, 53, 40
1, 15188, Control_c, 0, 67, 54
1, 15218, Control_c, 0, 67, 54
1, 15247, Control_c, 0, 64, 24
1, 15262, Control_c, 0, 64, 42
1, 15277, Control_c, 0, 64, 48
1, 15292, Control_c, 0, 64, 54
1, 15306, Control_c, 0, 64, 59
1, 15306, Control_c, 0, 67, 55
1, 15321, Control_c, 0, 64, 62
1, 15335, Note_on_c, 0, 50, 47
1, 15336, Control_c, 0, 64, 64
1, 15340, Note_off_c, 0, 53, 47
1, 15351, Control_c, 0, 64, 66
1, 15363, Note_off_c, 0, 58, 63
1, 15366, Control_c, 0, 64, 68
1, 15366, Control_c, 0, 67, 55
1, 15388, Control_c, 0, 64, 70
1, 15388, Control_c, 0, 67, 56
1, 15403, Control_c, 0, 64, 73
1, 15418, Control_c, 0, 64, 75
1, 15433, Control_c, 0, 64, 75
1, 15448, Control_c, 0, 64, 76
1, 15448, Control_c, 0, 67, 55
1, 15462, Control_c, 0, 64, 76
1, 15477, Control_c, 0, 67, 55
1, 15492, Control_c, 0, 64, 77
1, 15496, Note_off_c, 0, 50, 59
1, 15503, Note_on_c, 0, 70, 71
1, 15515, Note_on_c, 0, 46, 48
1, 15655, Control_c, 0, 64, 76
1, 15681, Note_on_c, 0, 69, 77
1, 15692, Note_on_c, 0, 50, 44
1, 15699, Control_c, 0, 64, 76
1, 15729, Control_c, 0, 64, 75
1, 15729, Control_c, 0, 67, 54
1, 15743, Note_off_c, 0, 46, 31
1, 15756, Note_off_c, 0, 70, 38
1, 15759, Control_c, 0, 64, 75
1, 15774, Control_c, 0, 64, 74
1, 15788, Control_c, 0, 67, 55
1, 15803, Control_c, 0, 64, 74
1, 15818, Control_c, 0, 64, 73
1, 15818, Control_c, 0, 67, 56
1, 15832, Control_c, 0, 67, 56
1, 15848, Control_c, 0, 64, 73
1, 15852, Note_off_c, 0, 50, 62
1, 15861, Note_on_c, 0, 67, 78
1, 15863, Control_c, 0, 64, 72
1, 15863, Control_c, 0, 67, 57
1, 15878, Control_c, 0, 64, 72
1, 15885, Note_on_c, 0, 55, 42
1, 15893, Control_c, 0, 64, 71
1, 15908, Control_c, 0, 64, 70
1, 15913, Note_off_c, 0, 69, 60
1, 15922, Control_c, 0, 64, 68
1, 15937, Control_c, 0, 64, 66
1, 15952, Control_c, 0, 64, 64
1, 15967, Control_c, 0, 64, 64
1, 15996, Note_off_c, 0, 55, 32
1, 16025, Control_c, 0, 64, 63
1, 16052, Note_on_c, 0, 65, 71
1, 16105, Note_off_c, 0, 67, 58
1, 16166, Control_c, 0, 64, 63
1, 16166, Control_c, 0, 67, 56
1, 16196, Control_c, 0, 64, 62
1, 16210, Control_c, 0, 64, 61
1, 16210, Control_c, 0, 67, 56
1, 16225, Control_c, 0, 64, 60
1, 16236, Note_on_c, 0, 48, 43
1, 16240, Control_c, 0, 64, 58
1, 16254, Control_c, 0, 64, 57
1, 16269, Control_c, 0, 64, 55
1, 16284, Control_c, 0, 64, 49
1, 16299, Control_c, 0, 64, 36
1, 16299, Control_c, 0, 67, 56
1, 16314, Control_c, 0, 64, 0
1, 16328, Control_c, 0, 67, 57
1, 16388, Control_c, 0, 67, 57
1, 16391, Note_off_c, 0, 65, 60
1, 16394, Note_on_c, 0, 64, 61
1, 16418, Control_c, 0, 67, 58
1, 16424, Note_on_c, 0, 55, 41
1, 16424, Note_off_c, 0, 48, 40
1, 16477, Control_c, 0, 67, 58
1, 16551, Control_c, 0, 67, 59
1, 16552, Note_off_c, 0, 55, 56
1, 16564, Note_on_c, 0, 58, 52
1, 16566, Control_c, 0, 67, 59
1, 16581, Control_c, 0, 67, 60
1, 16596, Control_c, 0, 67, 60
1, 16610, Control_c, 0, 67, 61
1, 16625, Control_c, 0, 67, 62
1, 16640, Control_c, 0, 67, 63
1, 16656, Control_c, 0, 67, 67
1, 16685, Control_c, 0, 67, 66
1, 16686, Note_off_c, 0, 58, 57
1, 16700, Control_c, 0, 67, 65
1, 16715, Control_c, 0, 67, 65
1, 16722, Note_on_c, 0, 55, 48
1, 16744, Control_c, 0, 67, 66
1, 16758, Note_off_c, 0, 64, 60
1, 16759, Control_c, 0, 67, 64
1, 16813, Note_on_c, 0, 67, 59
1, 16833, Control_c, 0, 67, 64
1, 16859, Note_off_c, 0, 67, 61
1, 16897, Note_on_c, 0, 65, 65
1, 16901, Note_off_c, 0, 55, 36
1, 16907, Note_on_c, 0, 48, 46
1, 16931, Note_off_c, 0, 65, 63
1, 16959, Control_c, 0, 67, 64
1, 16961, Note_on_c, 0, 69, 66
1, 16989, Control_c, 0, 67, 65
1, 16999, Note_off_c, 0, 69, 62
1, 17040, Note_on_c, 0, 67, 70
1, 17061, Note_on_c, 0, 55, 51
1, 17063, Control_c, 0, 67, 64
1, 17080, Note_off_c, 0, 67, 58
1, 17091, Note_off_c, 0, 48, 43
1, 17109, Note_on_c, 0, 70, 64
1, 17122, Control_c, 0, 67, 65
1, 17145, Note_off_c, 0, 70, 61
1, 17174, Note_off_c, 0, 55, 64
1, 17181, Control_c, 0, 67, 65
1, 17186, Note_on_c, 0, 69, 69
1, 17198, Note_on_c, 0, 58, 50
1, 17211, Control_c, 0, 67, 66
1, 17226, Control_c, 0, 67, 68
1, 17230, Note_off_c, 0, 58, 56
1, 17231, Note_off_c, 0, 69, 63
1, 17240, Control_c, 0, 67, 69
1, 17255, Control_c, 0, 67, 72
1, 17268, Note_on_c, 0, 72, 68
1, 17270, Control_c, 0, 67, 73
1, 17285, Control_c, 0, 67, 72
1, 17298, Note_off_c, 0, 72, 62
1, 17300, Control_c, 0, 67, 70
1, 17315, Control_c, 0, 67, 68
1, 17330, Control_c, 0, 67, 67
1, 17345, Control_c, 0, 67, 66
1, 17345, Note_on_c, 0, 70, 73
1, 17374, Control_c, 0, 67, 66
1, 17384, Note_off_c, 0, 70, 64
1, 17403, Control_c, 0, 67, 67
1, 17419, Note_on_c, 0, 67, 72
1, 17449, Control_c, 0, 67, 67
1, 17452, Note_off_c, 0, 67, 60
1, 17501, Note_on_c, 0, 76, 74
1, 17508, Control_c, 0, 67, 66
1, 17509, Note_on_c, 0, 52, 55
1, 17523, Control_c, 0, 67, 66
1, 17538, Control_c, 0, 67, 65
1, 17541, Note_off_c, 0, 76, 62
1, 17576, Note_on_c, 0, 72, 71
1, 17612, Control_c, 0, 67, 66
1, 17625, Note_off_c, 0, 72, 65
1, 17634, Control_c, 0, 67, 66
1, 17649, Control_c, 0, 67, 67
1, 17652, Note_off_c, 0, 52, 63
1, 17662, Note_on_c, 0, 79, 77
1, 17664, Control_c, 0, 67, 67
1, 17667, Note_on_c, 0, 55, 56
1, 17679, Control_c, 0, 67, 68
1, 17694, Control_c, 0, 67, 68
1, 17697, Note_off_c, 0, 79, 54
1, 17708, Control_c, 0, 67, 69
1, 17729, Note_on_c, 0, 76, 77
1, 17738, Control_c, 0, 67, 69
1, 17753, Control_c, 0, 67, 70
1, 17783, Note_off_c, 0, 76, 65
1, 17797, Control_c, 0, 67, 71
1, 17803, Note_on_c, 0, 82, 82
1, 17808, Note_off_c, 0, 55, 62
1, 17826, Note_on_c, 0, 60, 56
1, 17827, Control_c, 0, 67, 71
1, 17842, Control_c, 0, 67, 72
1, 17856, Control_c, 0, 67, 72
1, 17871, Control_c, 0, 67, 73
1, 17877, Note_off_c, 0, 82, 62
1, 17878, Note_on_c, 0, 81, 87
1, 17886, Control_c, 0, 67, 73
1, 17900, Control_c, 0, 67, 74
1, 17915, Control_c, 0, 67, 74
1, 17930, Control_c, 0, 67, 73
1, 17945, Control_c, 0, 67, 73
1, 17959, Note_off_c, 0, 60, 53
1, 17963, Note_on_c, 0, 82, 86
1, 17963, Note_off_c, 0, 81, 60
1, 17976, Note_on_c, 0, 55, 49
1, 17989, Control_c, 0, 67, 72
1, 18004, Control_c, 0, 67, 71
1, 18019, Control_c, 0, 67, 70
1, 18033, Control_c, 0, 67, 69
1, 18041, Note_off_c, 0, 82, 61
1, 18046, Note_on_c, 0, 81, 79
1, 18048, Control_c, 0, 67, 68
1, 18078, Control_c, 0, 67, 68
1, 18093, Note_off_c, 0, 81, 60
1, 18108, Control_c, 0, 67, 67
1, 18118, Note_off_c, 0, 55, 62
1, 18121, Note_on_c, 0, 79, 70
1, 18154, Note_on_c, 0, 52, 38
1, 18164, Note_off_c, 0, 79, 54
1, 18197, Note_on_c, 0, 77, 70
1, 18233, Note_off_c, 0, 77, 58
1, 18257, Control_c, 0, 67, 68
1, 18262, Note_off_c, 0, 52, 57
1, 18272, Control_c, 0, 67, 68
1, 18273, Note_on_c, 0, 76, 70
1, 18284, Note_on_c, 0, 55, 43
1, 18302, Control_c, 0, 67, 69
1, 18314, Note_off_c, 0, 76, 57
1, 18317, Control_c, 0, 67, 70
1, 18331, Control_c, 0, 67, 70
1, 18346, Control_c, 0, 67, 71
1, 18352, Note_on_c, 0, 74, 69
1, 18361, Control_c, 0, 67, 72
1, 18383, Control_c, 0, 67, 72
1, 18389, Note_off_c, 0, 74, 63
1, 18397, Control_c, 0, 67, 73
1, 18398, Note_off_c, 0, 55, 61
1, 18412, Control_c, 0, 67, 73
1, 18434, Note_on_c, 0, 60, 46
1, 18442, Note_on_c, 0, 72, 67
1, 18471, Note_off_c, 0, 60, 58
1, 18472, Control_c, 0, 67, 74
1, 18474, Note_off_c, 0, 72, 61
1, 18498, Note_on_c, 0, 70, 68
1, 18524, Note_off_c, 0, 70, 68
1, 18546, Control_c, 0, 67, 73
1, 18576, Control_c, 0, 67, 73
1, 18591, Note_on_c, 0, 70, 75
1, 18639, Note_off_c, 0, 70, 57
1, 18649, Control_c, 0, 67, 73
1, 18673, Note_on_c, 0, 69, 56
1, 18710, Note_off_c, 0, 69, 65
1, 18738, Control_c, 0, 67, 73
1, 18744, Note_on_c, 0, 74, 61
1, 18760, Note_on_c, 0, 53, 37
1, 18780, Note_off_c, 0, 74, 58
1, 18783, Control_c, 0, 67, 72
1, 18827, Note_on_c, 0, 72, 62
1, 18841, Control_c, 0, 67, 72
1, 18850, Note_off_c, 0, 72, 65
1, 18856, Control_c, 0, 67, 71
1, 18871, Control_c, 0, 67, 71
1, 18886, Control_c, 0, 67, 70
1, 18901, Control_c, 0, 67, 70
1, 18931, Control_c, 0, 67, 69
1, 18931, Note_on_c, 0, 72, 54
1, 18938, Note_on_c, 0, 57, 39
1, 18946, Control_c, 0, 67, 69
1, 18949, Note_off_c, 0, 53, 39
1, 18960, Control_c, 0, 67, 68
1, 18975, Control_c, 0, 67, 68
1, 19004, Note_off_c, 0, 72, 0
1, 19004, Note_on_c, 0, 72, 6
1, 19005, Control_c, 0, 67, 67
1, 19079, Note_off_c, 0, 57, 60
1, 19125, Note_on_c, 0, 60, 38
1, 19132, Control_c, 0, 67, 68
1, 19161, Control_c, 0, 67, 68
1, 19242, Note_off_c, 0, 72, 57
1, 19250, Note_off_c, 0, 60, 30
1, 19265, Control_c, 0, 64, 47
1, 19265, Control_c, 0, 67, 69
1, 19269, Note_on_c, 0, 57, 45
1, 19279, Control_c, 0, 64, 62
1, 19294, Control_c, 0, 64, 66
1, 19309, Control_c, 0, 64, 69
1, 19324, Control_c, 0, 64, 72
1, 19339, Control_c, 0, 64, 75
1, 19354, Control_c, 0, 64, 77
1, 19369, Control_c, 0, 64, 78
1, 19369, Control_c, 0, 67, 68
1, 19384, Control_c, 0, 64, 79
1, 19384, Control_c, 0, 67, 68
1, 19399, Control_c, 0, 64, 79
1, 19399, Control_c, 0, 67, 67
1, 19402, Note_off_c, 0, 57, 59
1, 19414, Control_c, 0, 67, 66
1, 19421, Note_on_c, 0, 53, 56
1, 19443, Control_c, 0, 64, 80
1, 19458, Control_c, 0, 64, 80
1, 19458, Control_c, 0, 67, 66
1, 19472, Control_c, 0, 67, 65
1, 19502, Control_c, 0, 67, 65
1, 19561, Control_c, 0, 67, 64
1, 19572, Note_off_c, 0, 53, 52
1, 19588, Note_on_c, 0, 86, 68
1, 19591, Control_c, 0, 67, 64
1, 19593, Note_on_c, 0, 57, 49
1, 19661, Note_on_c, 0, 84, 75
1, 19664, Note_off_c, 0, 86, 62
1, 19709, Control_c, 0, 64, 80
1, 19742, Note_off_c, 0, 57, 50
1, 19743, Note_on_c, 0, 82, 87
1, 19749, Note_off_c, 0, 84, 65
1, 19753, Control_c, 0, 67, 64
1, 19761, Note_on_c, 0, 60, 45
1, 19768, Control_c, 0, 64, 79
1, 19798, Control_c, 0, 64, 79
1, 19813, Control_c, 0, 64, 78
1, 19820, Note_on_c, 0, 81, 87
1, 19828, Control_c, 0, 67, 65
1, 19829, Note_off_c, 0, 82, 65
1, 19843, Control_c, 0, 64, 78
1, 19858, Control_c, 0, 67, 65
1, 19925, Control_c, 0, 64, 77
1, 19955, Control_c, 0, 67, 66
1, 19968, Note_on_c, 0, 79, 81
1, 19973, Note_off_c, 0, 81, 59
1, 19980, Note_off_c, 0, 60, 37
1, 19981, Note_on_c, 0, 58, 39
1, 19984, Control_c, 0, 64, 77
1, 19999, Control_c, 0, 64, 76
1, 19999, Control_c, 0, 67, 65
1, 20014, Control_c, 0, 64, 74
1, 20029, Control_c, 0, 64, 70
1, 20043, Control_c, 0, 64, 64
1, 20058, Control_c, 0, 64, 0
1, 20073, Control_c, 0, 67, 65
1, 20102, Control_c, 0, 67, 64
1, 20117, Control_c, 0, 67, 64
1, 20132, Control_c, 0, 67, 62
1, 20144, Note_off_c, 0, 58, 60
1, 20147, Control_c, 0, 67, 61
1, 20162, Control_c, 0, 64, 48
1, 20162, Control_c, 0, 67, 57
1, 20166, Note_on_c, 0, 60, 26
1, 20177, Control_c, 0, 64, 64
1, 20177, Control_c, 0, 67, 49
1, 20192, Control_c, 0, 64, 69
1, 20192, Control_c, 0, 67, 42
1, 20206, Control_c, 0, 64, 74
1, 20206, Control_c, 0, 67, 37
1, 20221, Control_c, 0, 64, 77
1, 20221, Control_c, 0, 67, 34
1, 20236, Control_c, 0, 64, 80
1, 20236, Control_c, 0, 67, 30
1, 20251, Control_c, 0, 64, 81
1, 20251, Control_c, 0, 67, 27
1, 20266, Control_c, 0, 64, 82
1, 20266, Control_c, 0, 67, 22
1, 20281, Control_c, 0, 64, 83
1, 20281, Control_c, 0, 67, 21
1, 20295, Control_c, 0, 64, 83
1, 20295, Control_c, 0, 67, 21
1, 20310, Control_c, 0, 67, 22
1, 20323, Note_on_c, 0, 58, 46
1, 20323, Note_off_c, 0, 60, 38
1, 20325, Control_c, 0, 67, 23
1, 20340, Control_c, 0, 67, 23
1, 20355, Control_c, 0, 67, 24
1, 20384, Control_c, 0, 67, 23
1, 20414, Control_c, 0, 64, 83
1, 20433, Note_off_c, 0, 79, 59
1, 20443, Control_c, 0, 67, 23
1, 20449, Note_on_c, 0, 76, 72
1, 20457, Note_off_c, 0, 58, 53
1, 20458, Control_c, 0, 67, 22
1, 20467, Note_on_c, 0, 60, 38
1, 20473, Control_c, 0, 64, 82
1, 20473, Control_c, 0, 67, 22
1, 20475, Note_off_c, 0, 76, 70
1, 20517, Control_c, 0, 64, 82
1, 20517, Control_c, 0, 67, 21
1, 20547, Control_c, 0, 64, 81
1, 20561, Control_c, 0, 64, 81
1, 20561, Control_c, 0, 67, 21
1, 20576, Control_c, 0, 64, 78
1, 20591, Control_c, 0, 64, 74
1, 20591, Control_c, 0, 67, 21
1, 20606, Control_c, 0, 64, 68
1, 20628, Control_c, 0, 64, 46
1, 20628, Control_c, 0, 67, 22
1, 20632, Note_off_c, 0, 60, 38
1, 20636, Note_on_c, 0, 77, 66
1, 20645, Control_c, 0, 64, 0
1, 20646, Note_on_c, 0, 57, 39
1, 20674, Control_c, 0, 64, 44
1, 20674, Control_c, 0, 67, 22
1, 20689, Control_c, 0, 64, 59
1, 20689, Control_c, 0, 67, 24
1, 20701, Note_off_c, 0, 77, 57
1, 20704, Control_c, 0, 64, 65
1, 20704, Control_c, 0, 67, 24
1, 20709, Note_on_c, 0, 84, 72
1, 20718, Control_c, 0, 64, 69
1, 20718, Control_c, 0, 67, 25
1, 20733, Control_c, 0, 64, 73
1, 20733, Control_c, 0, 67, 26
1, 20748, Control_c, 0, 64, 78
1, 20748, Control_c, 0, 67, 26
1, 20763, Control_c, 0, 64, 80
1, 20766, Note_off_c, 0, 57, 59
1, 20767, Note_off_c, 0, 84, 59
1, 20778, Control_c, 0, 64, 82
1, 20778, Control_c, 0, 67, 28
1, 20782, Note_on_c, 0, 60, 42
1, 20785, Note_on_c, 0, 83, 74
1, 20792, Control_c, 0, 64, 82
1, 20792, Control_c, 0, 67, 28
1, 20807, Control_c, 0, 64, 83
1, 20807, Control_c, 0, 67, 29
1, 20822, Control_c, 0, 64, 84
1, 20839, Note_off_c, 0, 83, 57
1, 20851, Control_c, 0, 67, 28
1, 20859, Note_on_c, 0, 84, 82
1, 20866, Control_c, 0, 64, 83
1, 20866, Control_c, 0, 67, 28
1, 20881, Control_c, 0, 64, 82
1, 20896, Control_c, 0, 64, 76
1, 20896, Control_c, 0, 67, 27
1, 20911, Control_c, 0, 64, 64
1, 20911, Control_c, 0, 67, 27
1, 20912, Note_off_c, 0, 84, 56
1, 20913, Note_on_c, 0, 57, 41
1, 20916, Note_off_c, 0, 60, 37
1, 20925, Control_c, 0, 64, 0
1, 20929, Note_on_c, 0, 86, 74
1, 20940, Control_c, 0, 67, 26
1, 20970, Control_c, 0, 67, 25
1, 20982, Note_off_c, 0, 86, 53
1, 21002, Note_on_c, 0, 84, 68
1, 21029, Control_c, 0, 67, 25
1, 21030, Note_off_c, 0, 57, 57
1, 21036, Note_off_c, 0, 84, 63
1, 21044, Control_c, 0, 67, 24
1, 21055, Note_on_c, 0, 60, 33
1, 21065, Note_on_c, 0, 82, 64
1, 21089, Control_c, 0, 67, 25
1, 21102, Note_off_c, 0, 82, 63
1, 21104, Control_c, 0, 67, 25
1, 21141, Note_on_c, 0, 81, 68
1, 21167, Note_off_c, 0, 81, 67
1, 21192, Control_c, 0, 67, 26
1, 21193, Note_off_c, 0, 60, 38
1, 21216, Note_on_c, 0, 79, 80
1, 21232, Note_on_c, 0, 58, 36
1, 21236, Note_off_c, 0, 79, 70
1, 21237, Control_c, 0, 67, 26
1, 21251, Control_c, 0, 67, 27
1, 21266, Control_c, 0, 67, 27
1, 21296, Control_c, 0, 67, 27
1, 21310, Control_c, 0, 67, 26
1, 21393, Control_c, 0, 67, 27
1, 21453, Note_on_c, 0, 79, 63
1, 21467, Note_off_c, 0, 58, 47
1, 21476, Note_on_c, 0, 60, 30
1, 21482, Control_c, 0, 67, 27
1, 21497, Control_c, 0, 67, 28
1, 21556, Control_c, 0, 67, 28
1, 21571, Control_c, 0, 64, 50
1, 21571, Control_c, 0, 67, 29
1, 21586, Control_c, 0, 64, 65
1, 21586, Control_c, 0, 67, 29
1, 21598, Note_off_c, 0, 60, 57
1, 21601, Control_c, 0, 64, 70
1, 21601, Control_c, 0, 67, 30
1, 21615, Control_c, 0, 64, 75
1, 21620, Note_on_c, 0, 58, 40
1, 21630, Control_c, 0, 64, 79
1, 21630, Control_c, 0, 67, 30
1, 21645, Control_c, 0, 64, 81
1, 21660, Control_c, 0, 64, 82
1, 21689, Control_c, 0, 64, 82
1, 21689, Control_c, 0, 67, 30
1, 21719, Control_c, 0, 67, 29
1, 21734, Control_c, 0, 67, 29
1, 21736, Note_off_c, 0, 79, 57
1, 21748, Control_c, 0, 67, 28
1, 21759, Note_on_c, 0, 76, 64
1, 21760, Note_off_c, 0, 58, 52
1, 21762, Note_on_c, 0, 60, 43
1, 21763, Control_c, 0, 64, 82
1, 21763, Control_c, 0, 67, 28
1, 21778, Note_off_c, 0, 76, 67
1, 21793, Control_c, 0, 67, 27
1, 21822, Control_c, 0, 64, 81
1, 21822, Control_c, 0, 67, 27
1, 21852, Control_c, 0, 64, 81
1, 21867, Control_c, 0, 64, 80
1, 21867, Control_c, 0, 67, 26
1, 21882, Control_c, 0, 64, 79
1, 21897, Control_c, 0, 64, 76
1, 21912, Control_c, 0, 64, 72
1, 21926, Note_on_c, 0, 57, 46
1, 21926, Note_on_c, 0, 77, 64
1, 21926, Control_c, 0, 64, 67
1, 21926, Control_c, 0, 67, 26
1, 21929, Note_off_c, 0, 60, 44
1, 21941, Control_c, 0, 64, 57
1, 21941, Control_c, 0, 67, 25
1, 21956, Control_c, 0, 64, 34
1, 21971, Control_c, 0, 64, 45
1, 21984, Note_off_c, 0, 77, 58
1, 21986, Note_on_c, 0, 84, 67
1, 21986, Control_c, 0, 64, 55
1, 21986, Control_c, 0, 67, 25
1, 22001, Control_c, 0, 64, 59
1, 22016, Control_c, 0, 64, 62
1, 22031, Control_c, 0, 64, 63
1, 22040, Note_off_c, 0, 84, 56
1, 22046, Control_c, 0, 64, 65
1, 22046, Control_c, 0, 67, 24
1, 22061, Control_c, 0, 64, 67
1, 22061, Control_c, 0, 67, 23
1, 22064, Note_on_c, 0, 83, 67
1, 22067, Note_off_c, 0, 57, 57
1, 22075, Control_c, 0, 64, 68
1, 22078, Note_on_c, 0, 60, 42
1, 22090, Control_c, 0, 64, 67
1, 22090, Control_c, 0, 67, 23
1, 22105, Control_c, 0, 64, 66
1, 22105, Control_c, 0, 67, 22
1, 22127, Control_c, 0, 64, 65
1, 22127, Control_c, 0, 67, 22
1, 22142, Control_c, 0, 64, 64
1, 22143, Note_off_c, 0, 83, 55
1, 22148, Note_on_c, 0, 84, 78
1, 22186, Control_c, 0, 64, 63
1, 22186, Control_c, 0, 67, 22
1, 22201, Control_c, 0, 64, 59
1, 22201, Control_c, 0, 67, 23
1, 22207, Note_off_c, 0, 84, 59
1, 22216, Control_c, 0, 64, 46
1, 22216, Control_c, 0, 67, 24
1, 22217, Note_off_c, 0, 60, 55
1, 22221, Note_on_c, 0, 86, 77
1, 22231, Control_c, 0, 64, 0
1, 22231, Control_c, 0, 67, 24
1, 22233, Note_on_c, 0, 57, 38
1, 22246, Control_c, 0, 67, 25
1, 22261, Control_c, 0, 67, 25
1, 22276, Control_c, 0, 67, 26
1, 22284, Note_off_c, 0, 86, 50
1, 22290, Control_c, 0, 67, 27
1, 22299, Note_on_c, 0, 84, 74
1, 22305, Control_c, 0, 67, 28
1, 22320, Control_c, 0, 67, 29
1, 22332, Note_off_c, 0, 84, 60
1, 22350, Note_off_c, 0, 57, 58
1, 22350, Control_c, 0, 67, 28
1, 22365, Control_c, 0, 67, 28
1, 22371, Note_on_c, 0, 82, 69
1, 22377, Note_on_c, 0, 60, 42
1, 22394, Control_c, 0, 67, 27
1, 22399, Note_off_c, 0, 82, 67
1, 22409, Control_c, 0, 67, 27
1, 22446, Note_on_c, 0, 81, 72
1, 22454, Control_c, 0, 67, 26
1, 22471, Note_off_c, 0, 81, 68
1, 22484, Control_c, 0, 67, 26
1, 22498, Note_off_c, 0, 60, 54
1, 22513, Control_c, 0, 67, 25
1, 22539, Note_on_c, 0, 81, 66
1, 22551, Note_on_c, 0, 58, 38
1, 22676, Control_c, 0, 67, 26
1, 22690, Control_c, 0, 67, 26
1, 22696, Note_off_c, 0, 81, 61
1, 22703, Note_off_c, 0, 58, 60
1, 22707, Note_on_c, 0, 79, 65
1, 22732, Note_off_c, 0, 79, 64
1, 22735, Note_on_c, 0, 62, 38
1, 22808, Control_c, 0, 67, 27
1, 22838, Control_c, 0, 67, 27
1, 22840, Note_off_c, 0, 62, 57
1, 22853, Control_c, 0, 67, 28
1, 22871, Note_on_c, 0, 58, 45
1, 22890, Control_c, 0, 67, 28
1, 22904, Control_c, 0, 67, 29
1, 22934, Control_c, 0, 67, 29
1, 22994, Control_c, 0, 67, 29
1, 23006, Note_off_c, 0, 58, 61
1, 23023, Control_c, 0, 67, 28
1, 23038, Note_on_c, 0, 79, 65
1, 23041, Note_on_c, 0, 62, 39
1, 23063, Note_off_c, 0, 79, 64
1, 23083, Control_c, 0, 67, 27
1, 23098, Control_c, 0, 67, 27
1, 23113, Control_c, 0, 67, 26
1, 23128, Control_c, 0, 67, 26
1, 23143, Control_c, 0, 67, 25
1, 23158, Control_c, 0, 67, 24
1, 23187, Control_c, 0, 67, 23
1, 23202, Control_c, 0, 67, 22
1, 23206, Note_on_c, 0, 79, 72
1, 23208, Note_off_c, 0, 62, 45
1, 23213, Note_on_c, 0, 59, 51
1, 23217, Control_c, 0, 67, 22
1, 23232, Control_c, 0, 67, 21
1, 23246, Control_c, 0, 67, 20
1, 23261, Control_c, 0, 67, 17
1, 23276, Control_c, 0, 67, 12
1, 23291, Control_c, 0, 67, 0
1, 23360, Note_off_c, 0, 59, 60
1, 23372, Note_on_c, 0, 77, 64
1, 23372, Note_off_c, 0, 79, 61
1, 23396, Note_on_c, 0, 62, 41
1, 23398, Note_off_c, 0, 77, 65
1, 23494, Note_off_c, 0, 62, 47
1, 23535, Note_on_c, 0, 59, 47
1, 23664, Note_off_c, 0, 59, 60
1, 23693, Note_on_c, 0, 77, 60
1, 23709, Note_on_c, 0, 62, 40
1, 23712, Note_off_c, 0, 77, 64
1, 23851, Note_off_c, 0, 62, 58
1, 23858, Note_on_c, 0, 76, 68
1, 23876, Note_on_c, 0, 60, 43
1, 23914, Note_off_c, 0, 76, 63
1, 23936, Note_on_c, 0, 77, 69
1, 23970, Note_off_c, 0, 77, 57
1, 24018, Note_on_c, 0, 76, 70
1, 24047, Note_off_c, 0, 76, 66
1, 24097, Note_on_c, 0, 72, 59
1, 24121, Note_off_c, 0, 72, 61
1, 24162, Note_on_c, 0, 77, 76
1, 24168, Note_off_c, 0, 60, 56
1, 24180, Note_on_c, 0, 62, 54
1, 24238, Note_off_c, 0, 77, 59
1, 24241, Note_on_c, 0, 79, 72
1, 24280, Note_off_c, 0, 79, 53
1, 24320, Note_on_c, 0, 77, 74
1, 24375, Note_off_c, 0, 77, 60
1, 24402, Note_on_c, 0, 72, 73
1, 24436, Note_off_c, 0, 72, 62
1, 24475, Note_on_c, 0, 79, 84
1, 24485, Note_on_c, 0, 64, 60
1, 24485, Note_off_c, 0, 62, 59
1, 24552, Note_on_c, 0, 81, 83
1, 24553, Note_off_c, 0, 79, 61
1, 24610, Note_off_c, 0, 81, 51
1, 24636, Note_on_c, 0, 79, 83
1, 24683, Note_off_c, 0, 79, 62
1, 24718, Note_on_c, 0, 72, 74
1, 24763, Note_off_c, 0, 72, 64
1, 24773, Note_off_c, 0, 64, 63
1, 24791, Note_on_c, 0, 81, 86
1, 24799, Note_on_c, 0, 65, 68
1, 24868, Note_on_c, 0, 82, 81
1, 24871, Note_off_c, 0, 81, 62
1, 24943, Note_on_c, 0, 81, 85
1, 24952, Note_off_c, 0, 82, 62
1, 24994, Note_off_c, 0, 81, 62
1, 25021, Note_on_c, 0, 72, 77
1, 25062, Note_off_c, 0, 72, 65
1, 25080, Note_off_c, 0, 65, 61
1, 25116, Note_on_c, 0, 82, 83
1, 25118, Note_on_c, 0, 67, 62
1, 25154, Note_off_c, 0, 82, 65
1, 25262, Note_off_c, 0, 67, 57
1, 25274, Note_on_c, 0, 82, 93
1, 25291, Note_on_c, 0, 72, 61
1, 25304, Note_off_c, 0, 82, 67
1, 25414, Note_off_c, 0, 72, 54
1, 25439, Note_on_c, 0, 64, 68
1, 25598, Note_on_c, 0, 79, 87
1, 25598, Note_off_c, 0, 64, 62
1, 25605, Note_on_c, 0, 72, 64
1, 25635, Note_off_c, 0, 79, 63
1, 25755, Note_off_c, 0, 72, 58
1, 25772, Note_on_c, 0, 82, 91
1, 25778, Note_on_c, 0, 65, 56
1, 25918, Note_off_c, 0, 65, 62
1, 25939, Note_on_c, 0, 81, 82
1, 25951, Note_off_c, 0, 82, 60
1, 25955, Note_on_c, 0, 72, 54
1, 25974, Note_off_c, 0, 81, 62
1, 26070, Note_off_c, 0, 72, 55
1, 26114, Note_on_c, 0, 62, 43
1, 26114, Note_on_c, 0, 79, 71
1, 26138, Note_off_c, 0, 79, 68
1, 26250, Note_off_c, 0, 62, 59
1, 26279, Note_on_c, 0, 77, 62
1, 26295, Note_on_c, 0, 72, 43
1, 26296, Note_off_c, 0, 77, 64
1, 26361, Note_off_c, 0, 72, 42
1, 26433, Note_on_c, 0, 76, 71
1, 26443, Note_on_c, 0, 60, 37
1, 26486, Note_off_c, 0, 76, 64
1, 26519, Note_on_c, 0, 72, 58
1, 26556, Note_off_c, 0, 72, 59
1, 26589, Note_on_c, 0, 83, 69
1, 26669, Note_off_c, 0, 83, 61
1, 26677, Note_on_c, 0, 84, 65
1, 26721, Note_off_c, 0, 84, 54
1, 26738, Note_off_c, 0, 60, 55
1, 26759, Note_on_c, 0, 77, 69
1, 26761, Note_on_c, 0, 62, 50
1, 26817, Note_off_c, 0, 77, 60
1, 26834, Note_on_c, 0, 72, 72
1, 26889, Note_off_c, 0, 72, 60
1, 26914, Note_on_c, 0, 83, 74
1, 26990, Note_on_c, 0, 84, 79
1, 27000, Note_off_c, 0, 83, 53
1, 27071, Note_off_c, 0, 84, 45
1, 27075, Note_off_c, 0, 62, 62
1, 27077, Note_on_c, 0, 79, 81
1, 27084, Note_on_c, 0, 64, 65
1, 27146, Note_off_c, 0, 79, 61
1, 27164, Note_on_c, 0, 72, 78
1, 27221, Note_off_c, 0, 72, 64
1, 27237, Note_on_c, 0, 83, 86
1, 27322, Note_on_c, 0, 84, 90
1, 27330, Note_off_c, 0, 83, 60
1, 27401, Note_off_c, 0, 64, 60
1, 27408, Note_on_c, 0, 81, 91
1, 27411, Note_on_c, 0, 65, 78
1, 27425, Note_off_c, 0, 84, 66
1, 27486, Note_on_c, 0, 72, 85
1, 27504, Note_off_c, 0, 81, 60
1, 27551, Note_off_c, 0, 72, 64
1, 27566, Note_on_c, 0, 83, 85
1, 27641, Note_off_c, 0, 83, 57
1, 27647, Note_on_c, 0, 84, 85
1, 27687, Note_off_c, 0, 65, 55
1, 27705, Note_on_c, 0, 67, 71
1, 27718, Note_on_c, 0, 81, 80
1, 27721, Note_off_c, 0, 84, 67
1, 27739, Note_off_c, 0, 81, 69
1, 27766, Note_off_c, 0, 67, 62
1, 27790, Note_on_c, 0, 72, 70
1, 27848, Note_off_c, 0, 72, 52
1, 27868, Note_on_c, 0, 82, 94
1, 27882, Note_on_c, 0, 71, 66
1, 27897, Note_off_c, 0, 82, 65
1, 27931, Note_off_c, 0, 71, 60
1, 27962, Note_on_c, 0, 72, 68
1, 27991, Note_off_c, 0, 72, 63
1, 28028, Note_on_c, 0, 64, 72
1, 28098, Note_on_c, 0, 72, 76
1, 28114, Note_off_c, 0, 64, 63
1, 28162, Note_on_c, 0, 81, 63
1, 28165, Note_off_c, 0, 72, 61
1, 28188, Note_on_c, 0, 71, 64
1, 28188, Note_off_c, 0, 81, 67
1, 28193, Note_on_c, 0, 79, 82
1, 28228, Note_on_c, 0, 77, 70
1, 28230, Note_off_c, 0, 79, 64
1, 28245, Note_off_c, 0, 71, 59
1, 28266, Note_on_c, 0, 72, 69
1, 28274, Note_on_c, 0, 79, 80
1, 28292, Note_off_c, 0, 77, 62
1, 28305, Note_off_c, 0, 72, 53
1, 28325, Note_on_c, 0, 82, 92
1, 28332, Note_off_c, 0, 79, 65
1, 28336, Note_on_c, 0, 65, 70
1, 28415, Note_off_c, 0, 65, 63
1, 28416, Note_on_c, 0, 72, 69
1, 28477, Note_off_c, 0, 72, 60
1, 28490, Note_on_c, 0, 81, 89
1, 28504, Note_on_c, 0, 71, 66
1, 28508, Note_off_c, 0, 82, 61
1, 28521, Note_off_c, 0, 81, 65
1, 28553, Note_off_c, 0, 71, 61
1, 28574, Note_on_c, 0, 72, 71
1, 28612, Note_off_c, 0, 72, 57
1, 28648, Note_on_c, 0, 62, 70
1, 28651, Note_on_c, 0, 79, 87
1, 28687, Note_off_c, 0, 79, 65
1, 28719, Note_off_c, 0, 62, 61
1, 28728, Note_on_c, 0, 71, 73
1, 28778, Note_off_c, 0, 71, 56
1, 28807, Note_on_c, 0, 77, 81
1, 28812, Note_on_c, 0, 69, 77
1, 28845, Note_off_c, 0, 77, 63
1, 28875, Note_off_c, 0, 69, 65
1, 28893, Note_on_c, 0, 71, 79
1, 28947, Note_off_c, 0, 71, 54
1, 28982, Note_on_c, 0, 60, 75
1, 28988, Note_on_c, 0, 76, 88
1, 29053, Note_off_c, 0, 76, 65
1, 29067, Note_on_c, 0, 84, 81
1, 29140, Note_on_c, 0, 79, 87
1, 29143, Note_off_c, 0, 84, 63
1, 29205, Note_off_c, 0, 79, 64
1, 29218, Note_on_c, 0, 76, 84
1, 29270, Note_off_c, 0, 76, 67
1, 29291, Note_off_c, 0, 60, 58
1, 29297, Note_on_c, 0, 72, 80
1, 29349, Note_off_c, 0, 72, 65
1, 29373, Note_on_c, 0, 67, 87
1, 29444, Note_off_c, 0, 67, 59
1, 29451, Note_on_c, 0, 64, 82
1, 29510, Note_off_c, 0, 64, 64
1, 29521, Note_on_c, 0, 60, 84
1, 29574, Note_off_c, 0, 60, 62
1, 29622, Note_on_c, 0, 48, 85
1, 29628, Note_on_c, 0, 36, 76
1, 29719, Control_c, 0, 64, 46
1, 29733, Control_c, 0, 64, 56
1, 29748, Control_c, 0, 64, 60
1, 29763, Control_c, 0, 64, 64
1, 29778, Control_c, 0, 64, 66
1, 29793, Control_c, 0, 64, 69
1, 29807, Control_c, 0, 64, 72
1, 29822, Control_c, 0, 64, 74
1, 29837, Control_c, 0, 64, 76
1, 29852, Control_c, 0, 64, 78
1, 29867, Control_c, 0, 64, 79
1, 29881, Control_c, 0, 64, 79
1, 29896, Control_c, 0, 64, 80
1, 29911, Note_off_c, 0, 36, 63
1, 29911, Control_c, 0, 64, 80
1, 29931, Note_off_c, 0, 48, 65
1, 30088, Control_c, 0, 64, 79
1, 30103, Control_c, 0, 64, 76
1, 30118, Control_c, 0, 64, 70
1, 30118, Control_c, 0, 67, 8
1, 30133, Control_c, 0, 64, 58
1, 30133, Control_c, 0, 67, 9
1, 30148, Control_c, 0, 64, 0
1, 30163, Control_c, 0, 67, 9
1, 30193, Control_c, 0, 67, 9
1, 30207, Control_c, 0, 67, 10
1, 30237, Control_c, 0, 67, 11
1, 30252, Control_c, 0, 67, 11
1, 30342, Control_c, 0, 67, 11
1, 30364, Control_c, 0, 67, 10
1, 30393, Control_c, 0, 67, 10
1, 30408, Control_c, 0, 67, 9
1, 30423, Control_c, 0, 67, 9
1, 30437, Control_c, 0, 67, 8
1, 30482, Control_c, 0, 67, 8
1, 30521, Note_on_c, 0, 72, 70
1, 30523, Note_on_c, 0, 69, 65
1, 30526, Control_c, 0, 67, 0
1, 30529, Note_on_c, 0, 65, 63
1, 30529, Note_on_c, 0, 60, 61
1, 30538, Note_on_c, 0, 53, 53
1, 30543, Note_on_c, 0, 41, 52
1, 30690, Control_c, 0, 64, 53
1, 30704, Control_c, 0, 64, 63
1, 30719, Control_c, 0, 64, 66
1, 30734, Control_c, 0, 64, 70
1, 30749, Control_c, 0, 64, 74
1, 30764, Control_c, 0, 64, 78
1, 30778, Control_c, 0, 64, 81
1, 30793, Control_c, 0, 64, 83
1, 30808, Control_c, 0, 64, 84
1, 30822, Control_c, 0, 64, 84
1, 30824, Note_off_c, 0, 60, 61
1, 30839, Note_off_c, 0, 65, 64
1, 30841, Note_off_c, 0, 41, 65
1, 30841, Note_off_c, 0, 69, 66
1, 30846, Note_off_c, 0, 53, 65
1, 30854, Note_off_c, 0, 72, 63
1, 30867, Control_c, 0, 64, 84
1, 30926, Control_c, 0, 64, 83
1, 30941, Control_c, 0, 64, 82
1, 30956, Control_c, 0, 64, 80
1, 30971, Control_c, 0, 64, 79
1, 30985, Control_c, 0, 64, 77
1, 31000, Control_c, 0, 64, 75
1, 31015, Control_c, 0, 64, 72
1, 31031, Control_c, 0, 64, 67
1, 31037, Note_on_c, 0, 74, 69
1, 31045, Control_c, 0, 64, 59
1, 31060, Control_c, 0, 64, 0
1, 31094, Note_off_c, 0, 74, 45
1, 31128, Note_on_c, 0, 72, 75
1, 31194, Note_off_c, 0, 72, 61
1, 31199, Note_on_c, 0, 70, 78
1, 31235, Note_off_c, 0, 70, 64
1, 31373, Note_on_c, 0, 69, 71
1, 31398, Note_off_c, 0, 69, 71
1, 31541, Note_on_c, 0, 67, 67
1, 31569, Note_off_c, 0, 67, 66
1, 31704, Note_on_c, 0, 65, 74
1, 31705, Control_c, 0, 67, 8
1, 31719, Control_c, 0, 67, 8
1, 31733, Note_off_c, 0, 65, 67
1, 31793, Control_c, 0, 67, 9
1, 31808, Control_c, 0, 67, 9
1, 31824, Control_c, 0, 67, 10
1, 31839, Control_c, 0, 67, 10
1, 31891, Control_c, 0, 67, 11
1, 31892, Note_on_c, 0, 65, 66
1, 31921, Control_c, 0, 67, 12
1, 31936, Control_c, 0, 67, 12
1, 31950, Control_c, 0, 64, 51
1, 31950, Control_c, 0, 67, 13
1, 31965, Control_c, 0, 64, 64
1, 31965, Control_c, 0, 67, 17
1, 31980, Control_c, 0, 64, 68
1, 31980, Control_c, 0, 67, 22
1, 31995, Control_c, 0, 64, 72
1, 31995, Control_c, 0, 67, 26
1, 32009, Control_c, 0, 64, 77
1, 32009, Control_c, 0, 67, 34
1, 32024, Control_c, 0, 64, 82
1, 32024, Control_c, 0, 67, 41
1, 32039, Control_c, 0, 64, 85
1, 32039, Control_c, 0, 67, 49
1, 32054, Control_c, 0, 64, 86
1, 32054, Control_c, 0, 67, 55
1, 32069, Control_c, 0, 64, 87
1, 32069, Control_c, 0, 67, 59
1, 32079, Note_on_c, 0, 74, 71
1, 32083, Control_c, 0, 67, 60
1, 32098, Control_c, 0, 64, 88
1, 32113, Control_c, 0, 67, 59
1, 32118, Note_off_c, 0, 74, 58
1, 32126, Note_off_c, 0, 65, 35
1, 32172, Control_c, 0, 67, 59
1, 32187, Control_c, 0, 64, 87
1, 32187, Control_c, 0, 67, 58
1, 32261, Control_c, 0, 64, 87
1, 32261, Control_c, 0, 67, 58
1, 32276, Control_c, 0, 67, 57
1, 32291, Control_c, 0, 64, 86
1, 32291, Control_c, 0, 67, 57
1, 32306, Control_c, 0, 64, 86
1, 32306, Control_c, 0, 67, 56
1, 32321, Control_c, 0, 64, 85
1, 32336, Control_c, 0, 64, 85
1, 32336, Control_c, 0, 67, 56
1, 32350, Control_c, 0, 64, 84
1, 32365, Control_c, 0, 64, 84
1, 32372, Note_on_c, 0, 74, 66
1, 32380, Control_c, 0, 64, 83
1, 32381, Note_on_c, 0, 65, 54
1, 32386, Note_on_c, 0, 58, 46
1, 32395, Control_c, 0, 64, 82
1, 32398, Note_on_c, 0, 46, 41
1, 32409, Control_c, 0, 64, 81
1, 32409, Control_c, 0, 67, 55
1, 32424, Control_c, 0, 64, 80
1, 32439, Control_c, 0, 64, 78
1, 32439, Control_c, 0, 67, 55
1, 32454, Control_c, 0, 64, 76
1, 32470, Control_c, 0, 64, 74
1, 32470, Control_c, 0, 67, 54
1, 32484, Control_c, 0, 64, 73
1, 32499, Control_c, 0, 64, 71
1, 32514, Control_c, 0, 64, 69
1, 32529, Control_c, 0, 64, 64
1, 32529, Control_c, 0, 67, 54
1, 32543, Control_c, 0, 64, 50
1, 32558, Control_c, 0, 64, 0
1, 32558, Control_c, 0, 67, 53
1, 32610, Control_c, 0, 67, 53
1, 32685, Control_c, 0, 64, 35
1, 32699, Control_c, 0, 64, 52
1, 32714, Control_c, 0, 64, 61
1, 32714, Control_c, 0, 67, 53
1, 32720, Note_off_c, 0, 65, 65
1, 32729, Control_c, 0, 64, 66
1, 32734, Note_off_c, 0, 46, 50
1, 32744, Control_c, 0, 64, 70
1, 32759, Control_c, 0, 64, 74
1, 32774, Control_c, 0, 64, 77
1, 32789, Control_c, 0, 64, 78
1, 32819, Control_c, 0, 64, 79
1, 32861, Note_on_c, 0, 72, 71
1, 32866, Note_off_c, 0, 74, 59
1, 32878, Control_c, 0, 67, 52
1, 32893, Control_c, 0, 64, 78
1, 32905, Note_off_c, 0, 58, 51
1, 32922, Control_c, 0, 67, 52
1, 32937, Control_c, 0, 64, 78
1, 32937, Control_c, 0, 67, 51
1, 32952, Control_c, 0, 67, 51
1, 32967, Control_c, 0, 64, 77
1, 32967, Control_c, 0, 67, 50
1, 32981, Control_c, 0, 64, 77
1, 32996, Control_c, 0, 64, 76
1, 33011, Control_c, 0, 64, 76
1, 33025, Control_c, 0, 64, 75
1, 33027, Note_on_c, 0, 76, 75
1, 33040, Control_c, 0, 64, 75
1, 33040, Control_c, 0, 67, 49
1, 33046, Note_on_c, 0, 57, 51
1, 33055, Control_c, 0, 64, 74
1, 33055, Control_c, 0, 67, 49
1, 33069, Note_off_c, 0, 72, 57
1, 33070, Control_c, 0, 64, 72
1, 33085, Control_c, 0, 64, 68
1, 33085, Control_c, 0, 67, 48
1, 33099, Control_c, 0, 64, 61
1, 33099, Control_c, 0, 67, 48
1, 33114, Control_c, 0, 64, 0
1, 33144, Control_c, 0, 64, 39
1, 33159, Control_c, 0, 64, 49
1, 33159, Control_c, 0, 67, 47
1, 33173, Control_c, 0, 64, 56
1, 33188, Control_c, 0, 64, 63
1, 33203, Note_on_c, 0, 77, 75
1, 33203, Control_c, 0, 64, 67
1, 33215, Note_off_c, 0, 76, 57
1, 33218, Control_c, 0, 64, 71
1, 33232, Control_c, 0, 64, 74
1, 33232, Control_c, 0, 67, 47
1, 33247, Control_c, 0, 64, 76
1, 33247, Control_c, 0, 67, 46
1, 33256, Note_off_c, 0, 77, 59
1, 33262, Control_c, 0, 67, 45
1, 33277, Control_c, 0, 67, 44
1, 33292, Control_c, 0, 67, 42
1, 33306, Control_c, 0, 67, 40
1, 33373, Control_c, 0, 64, 75
1, 33373, Control_c, 0, 67, 41
1, 33388, Control_c, 0, 64, 75
1, 33391, Note_on_c, 0, 77, 75
1, 33403, Control_c, 0, 64, 74
1, 33414, Note_off_c, 0, 57, 54
1, 33418, Control_c, 0, 64, 73
1, 33420, Note_on_c, 0, 59, 46
1, 33426, Note_on_c, 0, 62, 41
1, 33433, Control_c, 0, 64, 72
1, 33433, Control_c, 0, 67, 41
1, 33448, Control_c, 0, 64, 70
1, 33463, Control_c, 0, 64, 66
1, 33477, Control_c, 0, 64, 60
1, 33477, Control_c, 0, 67, 41
1, 33492, Control_c, 0, 64, 13
1, 33507, Control_c, 0, 64, 0
1, 33552, Control_c, 0, 67, 41
1, 33578, Note_on_c, 0, 67, 69
1, 33582, Control_c, 0, 67, 42
1, 33611, Control_c, 0, 67, 42
1, 33639, Note_off_c, 0, 77, 59
1, 33655, Control_c, 0, 67, 43
1, 33700, Control_c, 0, 67, 43
1, 33731, Note_off_c, 0, 62, 30
1, 33744, Control_c, 0, 67, 43
1, 33746, Note_off_c, 0, 59, 38
1, 33759, Note_on_c, 0, 60, 47
1, 33803, Control_c, 0, 64, 45
1, 33818, Control_c, 0, 64, 62
1, 33833, Control_c, 0, 64, 67
1, 33847, Control_c, 0, 64, 70
1, 33862, Control_c, 0, 64, 74
1, 33862, Control_c, 0, 67, 42
1, 33877, Control_c, 0, 64, 77
1, 33892, Control_c, 0, 64, 78
1, 33892, Control_c, 0, 67, 42
1, 33906, Note_off_c, 0, 67, 33
1, 33907, Control_c, 0, 64, 79
1, 33910, Note_on_c, 0, 69, 65
1, 33981, Control_c, 0, 67, 42
1, 33996, Control_c, 0, 67, 43
1, 34026, Control_c, 0, 64, 78
1, 34026, Control_c, 0, 67, 43
1, 34055, Control_c, 0, 64, 78
1, 34055, Control_c, 0, 67, 44
1, 34070, Control_c, 0, 64, 77
1, 34070, Control_c, 0, 67, 44
1, 34085, Control_c, 0, 64, 76
1, 34103, Note_on_c, 0, 77, 68
1, 34107, Control_c, 0, 64, 75
1, 34122, Control_c, 0, 64, 74
1, 34136, Note_on_c, 0, 59, 27
1, 34136, Control_c, 0, 64, 73
1, 34138, Note_off_c, 0, 69, 37
1, 34142, Note_on_c, 0, 62, 44
1, 34151, Note_off_c, 0, 60, 35
1, 34151, Control_c, 0, 64, 70
1, 34166, Control_c, 0, 64, 66
1, 34181, Control_c, 0, 64, 55
1, 34196, Control_c, 0, 64, 0
1, 34196, Control_c, 0, 67, 44
1, 34273, Note_on_c, 0, 67, 61
1, 34300, Control_c, 0, 67, 44
1, 34309, Note_off_c, 0, 77, 58
1, 34315, Control_c, 0, 67, 45
1, 34330, Control_c, 0, 67, 45
1, 34419, Control_c, 0, 67, 46
1, 34437, Note_off_c, 0, 59, 56
1, 34448, Note_on_c, 0, 60, 58
1, 34449, Control_c, 0, 64, 54
1, 34449, Control_c, 0, 67, 47
1, 34458, Note_off_c, 0, 62, 51
1, 34464, Control_c, 0, 64, 63
1, 34478, Control_c, 0, 64, 66
1, 34493, Control_c, 0, 64, 68
1, 34508, Control_c, 0, 64, 70
1, 34523, Control_c, 0, 64, 70
1, 34587, Note_on_c, 0, 69, 75
1, 34611, Control_c, 0, 64, 70
1, 34611, Control_c, 0, 67, 46
1, 34621, Note_off_c, 0, 67, 54
1, 34641, Control_c, 0, 64, 69
1, 34656, Control_c, 0, 64, 67
1, 34670, Control_c, 0, 64, 66
1, 34685, Control_c, 0, 64, 65
1, 34685, Control_c, 0, 67, 46
1, 34700, Control_c, 0, 67, 45
1, 34730, Control_c, 0, 64, 65
1, 34744, Control_c, 0, 64, 64
1, 34759, Control_c, 0, 64, 63
1, 34789, Control_c, 0, 67, 45
1, 34790, Note_on_c, 0, 72, 71
1, 34804, Control_c, 0, 64, 62
1, 34805, Note_off_c, 0, 69, 64
1, 34810, Note_on_c, 0, 62, 45
1, 34819, Control_c, 0, 64, 61
1, 34830, Note_off_c, 0, 60, 53
1, 34834, Control_c, 0, 64, 59
1, 34834, Control_c, 0, 67, 44
1, 34856, Control_c, 0, 64, 56
1, 34870, Control_c, 0, 64, 53
1, 34885, Control_c, 0, 64, 52
1, 34900, Control_c, 0, 64, 52
1, 34915, Control_c, 0, 64, 49
1, 34930, Control_c, 0, 64, 42
1, 34930, Control_c, 0, 67, 44
1, 34945, Control_c, 0, 64, 37
1, 34959, Control_c, 0, 64, 36
1, 34959, Control_c, 0, 67, 43
1, 34989, Control_c, 0, 67, 44
1, 35019, Control_c, 0, 64, 36
1, 35034, Control_c, 0, 64, 34
1, 35049, Control_c, 0, 64, 32
1, 35062, Note_off_c, 0, 72, 60
1, 35064, Control_c, 0, 64, 29
1, 35079, Control_c, 0, 64, 26
1, 35079, Control_c, 0, 67, 43
1, 35094, Control_c, 0, 64, 24
1, 35094, Control_c, 0, 67, 43
1, 35102, Note_off_c, 0, 62, 56
1, 35107, Note_on_c, 0, 70, 57
1, 35108, Control_c, 0, 64, 21
1, 35123, Control_c, 0, 64, 16
1, 35123, Control_c, 0, 67, 42
1, 35133, Note_on_c, 0, 64, 30
1, 35138, Control_c, 0, 64, 0
1, 35146, Note_off_c, 0, 70, 64
1, 35153, Control_c, 0, 67, 42
1, 35165, Note_on_c, 0, 72, 58
1, 35183, Control_c, 0, 67, 41
1, 35197, Note_off_c, 0, 72, 64
1, 35218, Note_on_c, 0, 70, 70
1, 35251, Note_off_c, 0, 70, 63
1, 35270, Note_on_c, 0, 72, 66
1, 35296, Note_off_c, 0, 72, 69
1, 35311, Note_on_c, 0, 70, 68
1, 35342, Note_off_c, 0, 70, 65
1, 35350, Note_on_c, 0, 69, 71
1, 35375, Control_c, 0, 67, 41
1, 35390, Note_off_c, 0, 69, 59
1, 35390, Control_c, 0, 67, 42
1, 35406, Note_on_c, 0, 70, 72
1, 35418, Note_off_c, 0, 64, 50
1, 35434, Control_c, 0, 67, 42
1, 35449, Control_c, 0, 67, 43
1, 35451, Note_off_c, 0, 70, 64
1, 35463, Note_on_c, 0, 65, 41
1, 35465, Control_c, 0, 67, 44
1, 35467, Note_on_c, 0, 69, 62
1, 35494, Control_c, 0, 67, 44
1, 35501, Note_off_c, 0, 69, 63
1, 35568, Control_c, 0, 67, 45
1, 35583, Control_c, 0, 67, 45
1, 35606, Control_c, 0, 67, 46
1, 35620, Control_c, 0, 67, 46
1, 35639, Note_on_c, 0, 69, 65
1, 35650, Control_c, 0, 67, 47
1, 35665, Control_c, 0, 67, 47
1, 35680, Control_c, 0, 67, 48
1, 35694, Control_c, 0, 67, 48
1, 35709, Control_c, 0, 67, 49
1, 35724, Control_c, 0, 67, 49
1, 35739, Control_c, 0, 67, 50
1, 35768, Control_c, 0, 67, 50
1, 35783, Control_c, 0, 67, 51
1, 35799, Note_on_c, 0, 70, 80
1, 35809, Note_off_c, 0, 65, 62
1, 35843, Control_c, 0, 67, 50
1, 35844, Note_off_c, 0, 69, 47
1, 35858, Control_c, 0, 67, 50
1, 35888, Control_c, 0, 67, 49
1, 35903, Control_c, 0, 67, 49
1, 35918, Control_c, 0, 67, 48
1, 35932, Control_c, 0, 67, 47
1, 35947, Control_c, 0, 67, 46
1, 35962, Control_c, 0, 67, 45
1, 35976, Note_on_c, 0, 72, 80
1, 35991, Control_c, 0, 67, 45
1, 36002, Note_off_c, 0, 70, 60
1, 36006, Control_c, 0, 67, 44
1, 36110, Control_c, 0, 67, 44
1, 36142, Note_on_c, 0, 73, 77
1, 36154, Note_off_c, 0, 72, 64
1, 36313, Note_on_c, 0, 74, 67
1, 36315, Note_on_c, 0, 46, 58
1, 36348, Note_off_c, 0, 73, 58
1, 36369, Control_c, 0, 67, 43
1, 36384, Control_c, 0, 67, 43
1, 36414, Control_c, 0, 67, 43
1, 36429, Control_c, 0, 67, 44
1, 36472, Note_off_c, 0, 46, 61
1, 36489, Note_on_c, 0, 50, 56
1, 36517, Control_c, 0, 67, 44
1, 36562, Control_c, 0, 67, 44
1, 36591, Control_c, 0, 67, 43
1, 36606, Control_c, 0, 67, 43
1, 36628, Note_off_c, 0, 50, 56
1, 36658, Note_off_c, 0, 74, 63
1, 36664, Note_on_c, 0, 72, 67
1, 36675, Note_on_c, 0, 55, 45
1, 36736, Note_off_c, 0, 72, 63
1, 36741, Note_on_c, 0, 70, 65
1, 36785, Control_c, 0, 67, 42
1, 36800, Note_off_c, 0, 55, 59
1, 36804, Note_off_c, 0, 70, 62
1, 36816, Note_on_c, 0, 69, 60
1, 36831, Note_on_c, 0, 58, 37
1, 36859, Control_c, 0, 67, 42
1, 36888, Control_c, 0, 67, 41
1, 36918, Control_c, 0, 67, 42
1, 36933, Control_c, 0, 67, 43
1, 36947, Control_c, 0, 67, 44
1, 36962, Control_c, 0, 67, 44
1, 36968, Note_off_c, 0, 69, 61
1, 36989, Note_on_c, 0, 67, 57
1, 36992, Control_c, 0, 67, 45
1, 37007, Control_c, 0, 67, 45
1, 37147, Control_c, 0, 67, 45
1, 37155, Note_off_c, 0, 67, 39
1, 37177, Control_c, 0, 67, 44
1, 37180, Note_on_c, 0, 69, 59
1, 37192, Control_c, 0, 67, 44
1, 37207, Control_c, 0, 67, 43
1, 37236, Control_c, 0, 67, 43
1, 37251, Note_off_c, 0, 58, 53
1, 37343, Note_off_c, 0, 69, 62
1, 37347, Note_on_c, 0, 70, 60
1, 37475, Control_c, 0, 67, 43
1, 37515, Note_on_c, 0, 74, 59
1, 37526, Note_off_c, 0, 70, 53
1, 37578, Control_c, 0, 67, 43
1, 37672, Note_off_c, 0, 74, 61
1, 37687, Note_on_c, 0, 72, 62
1, 37694, Note_on_c, 0, 45, 39
1, 37785, Control_c, 0, 67, 43
1, 37854, Note_off_c, 0, 45, 57
1, 37871, Note_on_c, 0, 48, 51
1, 37881, Control_c, 0, 67, 44
1, 37940, Control_c, 0, 67, 43
1, 38010, Note_off_c, 0, 48, 59
1, 38016, Note_off_c, 0, 72, 62
1, 38037, Note_on_c, 0, 70, 61
1, 38042, Note_on_c, 0, 53, 43
1, 38044, Control_c, 0, 67, 43
1, 38093, Note_off_c, 0, 70, 58
1, 38104, Note_on_c, 0, 69, 61
1, 38147, Control_c, 0, 67, 42
1, 38162, Control_c, 0, 67, 42
1, 38177, Note_off_c, 0, 69, 63
1, 38196, Note_off_c, 0, 53, 60
1, 38205, Note_on_c, 0, 67, 52
1, 38219, Note_on_c, 0, 57, 40
1, 38252, Control_c, 0, 67, 41
1, 38297, Control_c, 0, 67, 42
1, 38356, Control_c, 0, 67, 42
1, 38366, Note_off_c, 0, 67, 59
1, 38379, Note_on_c, 0, 65, 56
1, 38385, Control_c, 0, 67, 43
1, 38475, Control_c, 0, 67, 42
1, 38490, Control_c, 0, 67, 42
1, 38530, Note_off_c, 0, 65, 64
1, 38546, Note_on_c, 0, 67, 66
1, 38616, Control_c, 0, 67, 42
1, 38645, Control_c, 0, 67, 43
1, 38675, Control_c, 0, 67, 43
1, 38705, Control_c, 0, 67, 44
1, 38712, Note_off_c, 0, 67, 52
1, 38719, Note_on_c, 0, 69, 66
1, 38734, Control_c, 0, 67, 44
1, 38823, Control_c, 0, 67, 44
1, 38867, Control_c, 0, 67, 43
1, 38876, Note_on_c, 0, 72, 70
1, 38877, Note_off_c, 0, 69, 60
1, 38883, Note_off_c, 0, 57, 57
1, 38896, Note_on_c, 0, 55, 52
1, 38950, Note_off_c, 0, 55, 61
1, 39016, Control_c, 0, 67, 44
1, 39037, Note_off_c, 0, 72, 59
1, 39042, Note_on_c, 0, 70, 67
1, 39061, Control_c, 0, 67, 44
1, 39105, Control_c, 0, 67, 44
1, 39180, Control_c, 0, 67, 43
1, 39194, Control_c, 0, 67, 43
1, 39201, Note_on_c, 0, 52, 60
1, 39239, Control_c, 0, 67, 43
1, 39342, Note_off_c, 0, 52, 66
1, 39346, Note_off_c, 0, 70, 57
1, 39350, Control_c, 0, 67, 44
1, 39363, Note_on_c, 0, 67, 71
1, 39380, Control_c, 0, 67, 44
1, 39389, Note_off_c, 0, 67, 67
1, 39528, Control_c, 0, 67, 44
1, 39530, Note_on_c, 0, 70, 71
1, 39540, Note_on_c, 0, 53, 53
1, 39572, Control_c, 0, 67, 43
1, 39631, Control_c, 0, 67, 43
1, 39661, Control_c, 0, 67, 43
1, 39675, Control_c, 0, 67, 44
1, 39697, Note_off_c, 0, 70, 59
1, 39699, Note_on_c, 0, 69, 67
1, 39705, Control_c, 0, 67, 44
1, 39717, Note_off_c, 0, 53, 37
1, 39749, Control_c, 0, 67, 45
1, 39794, Control_c, 0, 67, 44
1, 39866, Note_on_c, 0, 50, 56
1, 39884, Control_c, 0, 67, 45
1, 39913, Control_c, 0, 67, 44
1, 39973, Control_c, 0, 67, 44
1, 39981, Note_off_c, 0, 69, 64
1, 40013, Note_on_c, 0, 65, 71
1, 40026, Note_off_c, 0, 50, 39
1, 40032, Control_c, 0, 67, 44
1, 40039, Note_off_c, 0, 65, 70
1, 40128, Control_c, 0, 67, 44
1, 40143, Control_c, 0, 67, 43
1, 40173, Control_c, 0, 67, 43
1, 40177, Note_on_c, 0, 64, 72
1, 40182, Note_on_c, 0, 48, 60
1, 40218, Note_off_c, 0, 64, 66
1, 40239, Note_on_c, 0, 65, 75
1, 40277, Control_c, 0, 67, 43
1, 40284, Note_off_c, 0, 65, 61
1, 40317, Note_on_c, 0, 67, 78
1, 40335, Control_c, 0, 67, 44
1, 40365, Control_c, 0, 67, 44
1, 40370, Note_off_c, 0, 67, 60
1, 40391, Note_on_c, 0, 69, 72
1, 40438, Note_off_c, 0, 69, 64
1, 40461, Note_off_c, 0, 48, 62
1, 40462, Note_on_c, 0, 71, 77
1, 40533, Note_off_c, 0, 71, 61
1, 40536, Note_on_c, 0, 72, 77
1, 40557, Control_c, 0, 67, 44
1, 40568, Note_off_c, 0, 72, 58
1, 40587, Control_c, 0, 67, 44
1, 40617, Note_on_c, 0, 71, 70
1, 40683, Note_on_c, 0, 72, 76
1, 40684, Note_off_c, 0, 71, 59
1, 40720, Control_c, 0, 67, 44
1, 40730, Note_off_c, 0, 72, 62
1, 40758, Note_on_c, 0, 60, 78
1, 40761, Note_on_c, 0, 48, 58
1, 40764, Control_c, 0, 67, 43
1, 40809, Control_c, 0, 67, 43
1, 40810, Note_off_c, 0, 48, 64
1, 40843, Note_on_c, 0, 50, 64
1, 40884, Note_off_c, 0, 50, 59
1, 40891, Control_c, 0, 67, 43
1, 40906, Control_c, 0, 67, 44
1, 40918, Note_on_c, 0, 46, 67
1, 40950, Control_c, 0, 67, 44
1, 40966, Note_off_c, 0, 46, 61
1, 40976, Note_off_c, 0, 60, 52
1, 40990, Note_on_c, 0, 48, 75
1, 40994, Control_c, 0, 67, 45
1, 41009, Control_c, 0, 67, 45
1, 41031, Note_off_c, 0, 48, 64
1, 41065, Note_on_c, 0, 45, 69
1, 41139, Note_on_c, 0, 46, 82
1, 41144, Note_off_c, 0, 45, 64
1, 41186, Control_c, 0, 67, 44
1, 41201, Control_c, 0, 67, 44
1, 41203, Note_off_c, 0, 46, 62
1, 41211, Note_on_c, 0, 43, 79
1, 41216, Control_c, 0, 67, 42
1, 41231, Control_c, 0, 67, 42
1, 41279, Note_off_c, 0, 43, 62
1, 41281, Note_on_c, 0, 45, 73
1, 41290, Control_c, 0, 67, 41
1, 41305, Control_c, 0, 67, 41
1, 41320, Control_c, 0, 67, 39
1, 41335, Note_off_c, 0, 45, 62
1, 41335, Control_c, 0, 67, 36
1, 41350, Control_c, 0, 67, 28
1, 41364, Control_c, 0, 67, 17
1, 41379, Control_c, 0, 67, 0
1, 41381, Note_on_c, 0, 72, 76
1, 41383, Note_on_c, 0, 69, 71
1, 41386, Note_on_c, 0, 41, 69
1, 41714, Control_c, 0, 64, 45
1, 41729, Control_c, 0, 64, 65
1, 41743, Control_c, 0, 64, 70
1, 41747, Note_off_c, 0, 69, 60
1, 41758, Control_c, 0, 64, 74
1, 41764, Note_on_c, 0, 53, 68
1, 41765, Note_off_c, 0, 72, 62
1, 41769, Note_off_c, 0, 41, 66
1, 41773, Control_c, 0, 64, 77
1, 41787, Control_c, 0, 64, 78
1, 41791, Note_off_c, 0, 53, 68
1, 41802, Control_c, 0, 64, 78
1, 41891, Control_c, 0, 64, 78
1, 41906, Control_c, 0, 64, 77
1, 41920, Control_c, 0, 64, 76
1, 41928, Note_on_c, 0, 74, 70
1, 41935, Control_c, 0, 64, 76
1, 41950, Control_c, 0, 64, 75
1, 41965, Control_c, 0, 64, 74
1, 41979, Control_c, 0, 64, 71
1, 41994, Control_c, 0, 64, 67
1, 42000, Note_on_c, 0, 72, 77
1, 42006, Note_off_c, 0, 74, 59
1, 42009, Control_c, 0, 64, 53
1, 42024, Control_c, 0, 64, 0
1, 42054, Note_off_c, 0, 72, 57
1, 42087, Note_on_c, 0, 70, 76
1, 42128, Note_off_c, 0, 70, 60
1, 42259, Note_on_c, 0, 69, 71
1, 42286, Note_off_c, 0, 69, 66
1, 42426, Note_on_c, 0, 67, 66
1, 42453, Note_off_c, 0, 67, 67
1, 42602, Note_on_c, 0, 65, 71
1, 42630, Note_off_c, 0, 65, 66
1, 42782, Note_on_c, 0, 65, 62
1, 42804, Control_c, 0, 64, 19
1, 42818, Control_c, 0, 64, 62
1, 42833, Control_c, 0, 64, 67
1, 42848, Control_c, 0, 64, 70
1, 42863, Control_c, 0, 64, 74
1, 42878, Control_c, 0, 64, 76
1, 42892, Control_c, 0, 64, 79
1, 42907, Control_c, 0, 64, 80
1, 42922, Control_c, 0, 64, 80
1, 42964, Note_on_c, 0, 74, 73
1, 42980, Note_off_c, 0, 65, 53
1, 43006, Note_off_c, 0, 74, 62
1, 43108, Control_c, 0, 64, 80
1, 43138, Control_c, 0, 64, 79
1, 43153, Control_c, 0, 64, 79
1, 43167, Control_c, 0, 64, 78
1, 43182, Control_c, 0, 64, 78
1, 43197, Control_c, 0, 64, 77
1, 43227, Control_c, 0, 64, 77
1, 43241, Control_c, 0, 64, 76
1, 43256, Control_c, 0, 64, 76
1, 43280, Note_on_c, 0, 74, 67
1, 43286, Control_c, 0, 64, 75
1, 43294, Note_on_c, 0, 65, 53
1, 43297, Note_on_c, 0, 58, 39
1, 43300, Note_on_c, 0, 46, 42
1, 43301, Control_c, 0, 64, 75
1, 43315, Control_c, 0, 64, 74
1, 43330, Control_c, 0, 64, 73
1, 43345, Control_c, 0, 64, 72
1, 43359, Control_c, 0, 64, 70
1, 43374, Control_c, 0, 64, 69
1, 43389, Control_c, 0, 64, 66
1, 43404, Control_c, 0, 64, 61
1, 43419, Control_c, 0, 64, 44
1, 43434, Control_c, 0, 64, 0
1, 43538, Control_c, 0, 64, 33
1, 43553, Control_c, 0, 64, 53
1, 43567, Control_c, 0, 64, 61
1, 43582, Control_c, 0, 64, 66
1, 43597, Control_c, 0, 64, 70
1, 43612, Control_c, 0, 64, 74
1, 43627, Control_c, 0, 64, 77
1, 43633, Note_off_c, 0, 46, 51
1, 43639, Note_off_c, 0, 65, 63
1, 43641, Control_c, 0, 64, 78
1, 43656, Control_c, 0, 64, 79
1, 43759, Control_c, 0, 64, 78
1, 43774, Control_c, 0, 64, 78
1, 43780, Note_on_c, 0, 72, 68
1, 43788, Control_c, 0, 64, 77
1, 43791, Note_off_c, 0, 74, 57
1, 43804, Control_c, 0, 64, 77
1, 43819, Control_c, 0, 64, 76
1, 43842, Control_c, 0, 64, 75
1, 43854, Note_off_c, 0, 58, 37
1, 43856, Control_c, 0, 64, 74
1, 43871, Control_c, 0, 64, 73
1, 43886, Control_c, 0, 64, 72
1, 43901, Control_c, 0, 64, 71
1, 43916, Control_c, 0, 64, 70
1, 43930, Control_c, 0, 64, 68
1, 43945, Control_c, 0, 64, 64
1, 43960, Control_c, 0, 64, 60
1, 43967, Note_on_c, 0, 76, 69
1, 43975, Control_c, 0, 64, 56
1, 43978, Note_on_c, 0, 57, 40
1, 43988, Note_off_c, 0, 72, 59
1, 43989, Control_c, 0, 64, 57
1, 44019, Control_c, 0, 64, 57
1, 44034, Control_c, 0, 64, 56
1, 44049, Control_c, 0, 64, 54
1, 44063, Control_c, 0, 64, 54
1, 44093, Control_c, 0, 64, 53
1, 44108, Control_c, 0, 64, 51
1, 44123, Control_c, 0, 64, 49
1, 44137, Control_c, 0, 64, 47
1, 44141, Note_on_c, 0, 77, 72
1, 44145, Note_off_c, 0, 76, 65
1, 44152, Control_c, 0, 64, 46
1, 44167, Control_c, 0, 64, 46
1, 44182, Control_c, 0, 64, 44
1, 44197, Control_c, 0, 64, 40
1, 44212, Control_c, 0, 64, 24
1, 44227, Control_c, 0, 64, 0
1, 44295, Note_off_c, 0, 57, 57
1, 44319, Note_on_c, 0, 59, 46
1, 44324, Note_on_c, 0, 62, 41
1, 44388, Note_off_c, 0, 77, 26
1, 44471, Note_on_c, 0, 67, 67
1, 44635, Note_off_c, 0, 67, 39
1, 44638, Note_off_c, 0, 62, 61
1, 44641, Note_on_c, 0, 69, 67
1, 44647, Note_off_c, 0, 59, 59
1, 44662, Note_on_c, 0, 60, 48
1, 44668, Note_off_c, 0, 69, 70
1, 44833, Note_on_c, 0, 77, 65
1, 44989, Note_off_c, 0, 60, 41
1, 44999, Note_on_c, 0, 62, 49
1, 45002, Note_on_c, 0, 59, 41
1, 45139, Note_off_c, 0, 77, 40
1, 45151, Note_on_c, 0, 67, 77
1, 45273, Note_off_c, 0, 67, 54
1, 45301, Note_off_c, 0, 59, 62
1, 45305, Note_off_c, 0, 62, 57
1, 45316, Note_on_c, 0, 60, 64
1, 45318, Note_on_c, 0, 69, 76
1, 45347, Note_off_c, 0, 69, 72
1, 45493, Note_on_c, 0, 77, 64
1, 45511, Note_off_c, 0, 77, 63
1, 45646, Note_off_c, 0, 60, 52
1, 45659, Note_on_c, 0, 72, 77
1, 45677, Note_on_c, 0, 65, 42
1, 45681, Note_on_c, 0, 62, 38
1, 45979, Note_off_c, 0, 62, 58
1, 45996, Note_off_c, 0, 65, 58
1, 46001, Note_on_c, 0, 71, 71
1, 46010, Note_on_c, 0, 67, 49
1, 46023, Note_off_c, 0, 72, 61
1, 46033, Note_on_c, 0, 64, 30
1, 46168, Note_on_c, 0, 70, 67
1, 46203, Note_off_c, 0, 71, 55
1, 46312, Note_off_c, 0, 67, 58
1, 46318, Note_off_c, 0, 70, 61
1, 46319, Note_off_c, 0, 64, 42
1, 46331, Note_on_c, 0, 69, 70
1, 46346, Note_on_c, 0, 65, 50
1, 46358, Note_off_c, 0, 69, 68
1, 46495, Note_on_c, 0, 69, 73
1, 46650, Note_on_c, 0, 70, 83
1, 46667, Note_off_c, 0, 69, 41
1, 46698, Note_off_c, 0, 65, 65
1, 46817, Note_on_c, 0, 72, 83
1, 46835, Note_off_c, 0, 70, 60
1, 46937, Note_off_c, 0, 72, 54
1, 46963, Note_on_c, 0, 73, 81
1, 47013, Note_off_c, 0, 73, 61
1, 47027, Note_on_c, 0, 74, 87
1, 47121, Note_on_c, 0, 50, 77
1, 47251, Note_off_c, 0, 50, 61
1, 47277, Note_on_c, 0, 62, 84
1, 47303, Note_off_c, 0, 62, 65
1, 47374, Note_off_c, 0, 74, 49
1, 47425, Note_on_c, 0, 76, 71
1, 47434, Note_on_c, 0, 60, 72
1, 47458, Note_off_c, 0, 60, 68
1, 47488, Note_off_c, 0, 76, 64
1, 47510, Note_on_c, 0, 78, 80
1, 47567, Note_off_c, 0, 78, 64
1, 47599, Note_on_c, 0, 79, 81
1, 47607, Note_on_c, 0, 58, 69
1, 47635, Note_off_c, 0, 58, 68
1, 47647, Note_off_c, 0, 79, 58
1, 47677, Note_on_c, 0, 81, 84
1, 47728, Note_off_c, 0, 81, 61
1, 47759, Note_on_c, 0, 82, 85
1, 47764, Note_on_c, 0, 46, 73
1, 47832, Note_off_c, 0, 82, 63
1, 47840, Note_on_c, 0, 81, 78
1, 47894, Note_off_c, 0, 81, 59
1, 47917, Note_off_c, 0, 46, 57
1, 47926, Note_on_c, 0, 79, 79
1, 47935, Note_on_c, 0, 58, 80
1, 47953, Note_off_c, 0, 79, 62
1, 47996, Note_on_c, 0, 81, 82
1, 48076, Note_off_c, 0, 81, 58
1, 48089, Note_on_c, 0, 77, 74
1, 48098, Note_off_c, 0, 58, 63
1, 48110, Note_on_c, 0, 57, 68
1, 48137, Note_off_c, 0, 77, 57
1, 48170, Note_on_c, 0, 79, 78
1, 48227, Note_off_c, 0, 79, 61
1, 48236, Note_off_c, 0, 57, 46
1, 48252, Note_on_c, 0, 76, 74
1, 48254, Note_on_c, 0, 55, 71
1, 48278, Note_off_c, 0, 55, 68
1, 48281, Note_off_c, 0, 76, 62
1, 48331, Note_on_c, 0, 77, 66
1, 48386, Note_off_c, 0, 77, 58
1, 48410, Note_on_c, 0, 53, 70
1, 48416, Note_on_c, 0, 74, 70
1, 48439, Note_off_c, 0, 53, 68
1, 48459, Note_off_c, 0, 74, 61
1, 48494, Note_on_c, 0, 76, 68
1, 48553, Note_off_c, 0, 76, 63
1, 48581, Note_on_c, 0, 52, 65
1, 48583, Note_on_c, 0, 72, 74
1, 48612, Note_off_c, 0, 52, 67
1, 48618, Note_off_c, 0, 72, 60
1, 48655, Note_on_c, 0, 74, 70
1, 48713, Note_off_c, 0, 74, 61
1, 48729, Note_on_c, 0, 70, 77
1, 48742, Note_on_c, 0, 48, 57
1, 48770, Note_off_c, 0, 48, 65
1, 48774, Note_off_c, 0, 70, 63
1, 48812, Note_on_c, 0, 72, 78
1, 48868, Note_off_c, 0, 72, 60
1, 48898, Note_on_c, 0, 53, 62
1, 48899, Note_on_c, 0, 69, 75
1, 48938, Note_off_c, 0, 69, 65
1, 48975, Note_on_c, 0, 70, 78
1, 49034, Note_off_c, 0, 70, 64
1, 49055, Note_on_c, 0, 72, 80
1, 49117, Note_off_c, 0, 72, 55
1, 49128, Note_off_c, 0, 53, 61
1, 49138, Note_on_c, 0, 74, 80
1, 49197, Note_off_c, 0, 74, 61
1, 49221, Note_on_c, 0, 76, 80
1, 49232, Note_on_c, 0, 45, 65
1, 49300, Note_on_c, 0, 77, 83
1, 49301, Note_off_c, 0, 76, 63
1, 49335, Control_c, 0, 67, 8
1, 49350, Control_c, 0, 67, 9
1, 49365, Control_c, 0, 67, 11
1, 49373, Note_off_c, 0, 77, 58
1, 49378, Note_on_c, 0, 76, 83
1, 49379, Control_c, 0, 67, 13
1, 49395, Control_c, 0, 67, 14
1, 49410, Control_c, 0, 67, 15
1, 49425, Control_c, 0, 67, 15
1, 49440, Control_c, 0, 67, 19
1, 49453, Note_off_c, 0, 76, 66
1, 49455, Control_c, 0, 67, 24
1, 49464, Note_off_c, 0, 45, 62
1, 49466, Note_on_c, 0, 77, 84
1, 49469, Control_c, 0, 67, 27
1, 49484, Control_c, 0, 67, 28
1, 49514, Control_c, 0, 67, 27
1, 49540, Note_on_c, 0, 46, 59
1, 49540, Note_on_c, 0, 79, 82
1, 49545, Note_off_c, 0, 77, 61
1, 49558, Control_c, 0, 67, 26
1, 49573, Control_c, 0, 67, 26
1, 49588, Control_c, 0, 67, 25
1, 49602, Control_c, 0, 67, 24
1, 49617, Control_c, 0, 67, 24
1, 49624, Note_on_c, 0, 77, 72
1, 49632, Control_c, 0, 67, 23
1, 49642, Note_off_c, 0, 79, 52
1, 49662, Control_c, 0, 67, 23
1, 49676, Control_c, 0, 67, 22
1, 49691, Control_c, 0, 67, 22
1, 49696, Note_on_c, 0, 76, 82
1, 49706, Control_c, 0, 67, 21
1, 49712, Note_off_c, 0, 77, 60
1, 49720, Control_c, 0, 67, 21
1, 49735, Note_off_c, 0, 46, 62
1, 49765, Control_c, 0, 67, 20
1, 49771, Note_off_c, 0, 76, 62
1, 49782, Note_on_c, 0, 74, 76
1, 49832, Control_c, 0, 67, 20
1, 49846, Note_off_c, 0, 74, 56
1, 49866, Note_on_c, 0, 76, 78
1, 49886, Note_on_c, 0, 58, 52
1, 49944, Note_off_c, 0, 76, 61
1, 49948, Note_on_c, 0, 74, 75
1, 49950, Control_c, 0, 67, 19
1, 49965, Control_c, 0, 67, 19
1, 49980, Control_c, 0, 67, 18
1, 50002, Note_off_c, 0, 58, 64
1, 50010, Control_c, 0, 67, 18
1, 50020, Note_on_c, 0, 72, 72
1, 50020, Note_off_c, 0, 74, 63
1, 50024, Control_c, 0, 67, 17
1, 50075, Note_off_c, 0, 72, 59
1, 50101, Note_on_c, 0, 70, 70
1, 50133, Note_off_c, 0, 70, 60
1, 50190, Note_on_c, 0, 69, 69
1, 50203, Control_c, 0, 67, 18
1, 50206, Note_on_c, 0, 60, 47
1, 50233, Control_c, 0, 64, 28
1, 50246, Note_off_c, 0, 69, 55
1, 50248, Control_c, 0, 64, 65
1, 50248, Control_c, 0, 67, 19
1, 50263, Control_c, 0, 64, 71
1, 50278, Control_c, 0, 64, 76
1, 50292, Control_c, 0, 64, 79
1, 50307, Control_c, 0, 64, 79
1, 50337, Control_c, 0, 67, 20
1, 50366, Control_c, 0, 67, 20
1, 50425, Control_c, 0, 64, 79
1, 50440, Control_c, 0, 64, 78
1, 50455, Control_c, 0, 64, 75
1, 50455, Control_c, 0, 67, 20
1, 50469, Control_c, 0, 64, 69
1, 50469, Control_c, 0, 67, 19
1, 50484, Control_c, 0, 64, 0
1, 50484, Control_c, 0, 67, 19
1, 50486, Note_on_c, 0, 69, 62
1, 50499, Control_c, 0, 67, 18
1, 50500, Note_on_c, 0, 64, 44
1, 50512, Note_on_c, 0, 48, 55
1, 50514, Control_c, 0, 67, 18
1, 50517, Note_off_c, 0, 69, 64
1, 50528, Note_off_c, 0, 64, 54
1, 50540, Note_on_c, 0, 67, 70
1, 50543, Control_c, 0, 64, 46
1, 50543, Control_c, 0, 67, 17
1, 50551, Note_off_c, 0, 48, 64
1, 50558, Control_c, 0, 64, 64
1, 50558, Control_c, 0, 67, 18
1, 50581, Control_c, 0, 64, 67
1, 50581, Control_c, 0, 67, 18
1, 50594, Note_off_c, 0, 67, 62
1, 50596, Control_c, 0, 64, 68
1, 50610, Note_on_c, 0, 69, 66
1, 50611, Control_c, 0, 67, 19
1, 50639, Note_off_c, 0, 69, 68
1, 50640, Control_c, 0, 64, 68
1, 50640, Control_c, 0, 67, 19
1, 50655, Control_c, 0, 64, 67
1, 50655, Control_c, 0, 67, 20
1, 50656, Note_on_c, 0, 67, 70
1, 50670, Control_c, 0, 64, 67
1, 50685, Control_c, 0, 67, 20
1, 50692, Note_off_c, 0, 67, 63
1, 50699, Control_c, 0, 67, 21
1, 50712, Note_on_c, 0, 65, 67
1, 50729, Control_c, 0, 64, 66
1, 50744, Control_c, 0, 64, 66
1, 50744, Control_c, 0, 67, 21
1, 50749, Note_off_c, 0, 65, 62
1, 50758, Control_c, 0, 64, 65
1, 50760, Note_on_c, 0, 67, 67
1, 50773, Note_off_c, 0, 60, 47
1, 50773, Control_c, 0, 64, 64
1, 50788, Control_c, 0, 64, 61
1, 50796, Note_off_c, 0, 67, 61
1, 50803, Control_c, 0, 64, 0
1, 50803, Control_c, 0, 67, 21
1, 50818, Control_c, 0, 67, 21
1, 50823, Note_on_c, 0, 53, 40
1, 50832, Note_on_c, 0, 65, 65
1, 50853, Note_off_c, 0, 53, 61
1, 50862, Control_c, 0, 67, 22
1, 50886, Note_on_c, 0, 60, 60
1, 50931, Note_off_c, 0, 60, 61
1, 50975, Note_on_c, 0, 59, 52
1, 51023, Note_off_c, 0, 59, 57
1, 51056, Note_on_c, 0, 60, 60
1, 51071, Control_c, 0, 67, 21
1, 51077, Note_off_c, 0, 65, 36
1, 51086, Control_c, 0, 67, 21
1, 51097, Note_off_c, 0, 60, 61
1, 51100, Control_c, 0, 67, 20
1, 51115, Control_c, 0, 67, 20
1, 51130, Control_c, 0, 67, 19
1, 51142, Note_on_c, 0, 62, 63
1, 51145, Control_c, 0, 67, 19
1, 51176, Note_off_c, 0, 62, 60
1, 51220, Note_on_c, 0, 60, 58
1, 51248, Control_c, 0, 67, 18
1, 51256, Note_off_c, 0, 60, 64
1, 51292, Control_c, 0, 67, 19
1, 51310, Note_on_c, 0, 59, 41
1, 51344, Note_off_c, 0, 59, 55
1, 51373, Note_on_c, 0, 60, 62
1, 51407, Note_off_c, 0, 60, 62
1, 51448, Control_c, 0, 67, 18
1, 51463, Note_on_c, 0, 58, 62
1, 51492, Control_c, 0, 67, 19
1, 51497, Note_off_c, 0, 58, 65
1, 51541, Note_on_c, 0, 60, 56
1, 51566, Control_c, 0, 67, 18
1, 51574, Note_off_c, 0, 60, 64
1, 51581, Control_c, 0, 67, 19
1, 51611, Control_c, 0, 67, 19
1, 51625, Note_on_c, 0, 57, 64
1, 51626, Control_c, 0, 67, 20
1, 51655, Control_c, 0, 67, 20
1, 51658, Note_off_c, 0, 57, 64
1, 51700, Control_c, 0, 67, 20
1, 51713, Note_on_c, 0, 60, 43
1, 51730, Control_c, 0, 67, 19
1, 51742, Note_off_c, 0, 60, 55
1, 51744, Control_c, 0, 67, 19
1, 51774, Control_c, 0, 67, 19
1, 51787, Note_on_c, 0, 55, 64
1, 51789, Control_c, 0, 67, 20
1, 51804, Control_c, 0, 67, 21
1, 51819, Control_c, 0, 67, 22
1, 51822, Note_off_c, 0, 55, 64
1, 51864, Control_c, 0, 67, 21
1, 51871, Note_on_c, 0, 60, 44
1, 51879, Control_c, 0, 67, 20
1, 51893, Control_c, 0, 67, 20
1, 51908, Control_c, 0, 67, 19
1, 51914, Note_off_c, 0, 60, 50
1, 51938, Control_c, 0, 67, 20
1, 51952, Note_on_c, 0, 53, 58
1, 51986, Note_off_c, 0, 53, 66
1, 52024, Note_on_c, 0, 60, 56
1, 52042, Control_c, 0, 67, 19
1, 52069, Note_off_c, 0, 60, 61
1, 52078, Control_c, 0, 67, 18
1, 52093, Control_c, 0, 67, 18
1, 52108, Control_c, 0, 67, 17
1, 52115, Note_on_c, 0, 82, 78
1, 52132, Note_on_c, 0, 52, 47
1, 52138, Control_c, 0, 67, 18
1, 52153, Control_c, 0, 64, 51
1, 52153, Control_c, 0, 67, 19
1, 52167, Note_off_c, 0, 52, 67
1, 52168, Control_c, 0, 64, 62
1, 52168, Control_c, 0, 67, 20
1, 52183, Control_c, 0, 64, 64
1, 52183, Control_c, 0, 67, 20
1, 52197, Control_c, 0, 64, 65
1, 52197, Control_c, 0, 67, 21
1, 52207, Note_on_c, 0, 60, 45
1, 52227, Control_c, 0, 64, 63
1, 52237, Note_off_c, 0, 60, 52
1, 52242, Control_c, 0, 64, 51
1, 52257, Control_c, 0, 64, 0
1, 52271, Control_c, 0, 67, 21
1, 52272, Note_off_c, 0, 82, 61
1, 52286, Control_c, 0, 67, 22
1, 52290, Note_on_c, 0, 79, 61
1, 52301, Note_on_c, 0, 55, 37
1, 52310, Note_off_c, 0, 79, 64
1, 52315, Control_c, 0, 67, 22
1, 52330, Note_off_c, 0, 55, 54
1, 52360, Control_c, 0, 67, 22
1, 52364, Note_on_c, 0, 60, 43
1, 52395, Note_off_c, 0, 60, 55
1, 52404, Control_c, 0, 67, 21
1, 52434, Control_c, 0, 67, 21
1, 52454, Note_on_c, 0, 76, 66
1, 52457, Note_on_c, 0, 58, 45
1, 52480, Note_off_c, 0, 76, 71
1, 52493, Control_c, 0, 67, 21
1, 52499, Note_off_c, 0, 58, 65
1, 52522, Control_c, 0, 67, 21
1, 52529, Note_on_c, 0, 60, 51
1, 52552, Control_c, 0, 67, 20
1, 52570, Note_off_c, 0, 60, 60
1, 52615, Note_on_c, 0, 76, 71
1, 52627, Note_on_c, 0, 58, 46
1, 52627, Control_c, 0, 67, 21
1, 52639, Note_off_c, 0, 76, 71
1, 52654, Note_off_c, 0, 58, 62
1, 52657, Control_c, 0, 67, 20
1, 52687, Control_c, 0, 67, 20
1, 52688, Note_on_c, 0, 60, 59
1, 52726, Note_off_c, 0, 60, 59
1, 52731, Control_c, 0, 67, 19
1, 52761, Control_c, 0, 67, 18
1, 52778, Note_on_c, 0, 82, 81
1, 52791, Control_c, 0, 67, 19
1, 52792, Note_on_c, 0, 52, 51
1, 52827, Control_c, 0, 64, 51
1, 52827, Control_c, 0, 67, 20
1, 52835, Note_off_c, 0, 52, 65
1, 52842, Control_c, 0, 64, 57
1, 52842, Control_c, 0, 67, 21
1, 52857, Control_c, 0, 64, 58
1, 52857, Control_c, 0, 67, 22
1, 52864, Note_on_c, 0, 60, 58
1, 52872, Control_c, 0, 64, 57
1, 52887, Control_c, 0, 64, 51
1, 52901, Control_c, 0, 64, 19
1, 52913, Note_off_c, 0, 60, 53
1, 52916, Control_c, 0, 64, 0
1, 52949, Note_off_c, 0, 82, 58
1, 52961, Control_c, 0, 67, 22
1, 52964, Note_on_c, 0, 79, 61
1, 52970, Note_on_c, 0, 55, 48
1, 52984, Note_off_c, 0, 79, 64
1, 53005, Note_off_c, 0, 55, 65
1, 53031, Note_on_c, 0, 60, 63
1, 53035, Control_c, 0, 67, 22
1, 53050, Control_c, 0, 67, 21
1, 53073, Note_off_c, 0, 60, 54
1, 53079, Control_c, 0, 67, 20
1, 53109, Control_c, 0, 67, 21
1, 53125, Note_on_c, 0, 76, 66
1, 53133, Note_on_c, 0, 58, 48
1, 53149, Note_off_c, 0, 76, 71
1, 53175, Note_off_c, 0, 58, 64
1, 53198, Control_c, 0, 67, 20
1, 53201, Note_on_c, 0, 60, 63
1, 53212, Control_c, 0, 67, 20
1, 53241, Note_off_c, 0, 60, 57
1, 53282, Note_on_c, 0, 76, 72
1, 53286, Control_c, 0, 67, 20
1, 53288, Note_on_c, 0, 58, 56
1, 53304, Note_off_c, 0, 76, 72
1, 53316, Control_c, 0, 67, 20
1, 53327, Note_off_c, 0, 58, 66
1, 53331, Control_c, 0, 67, 19
1, 53345, Control_c, 0, 67, 19
1, 53360, Control_c, 0, 67, 17
1, 53363, Note_on_c, 0, 60, 59
1, 53375, Control_c, 0, 67, 15
1, 53391, Control_c, 0, 67, 11
1, 53403, Note_off_c, 0, 60, 58
1, 53406, Control_c, 0, 67, 0
1, 53441, Note_on_c, 0, 77, 79
1, 53448, Note_on_c, 0, 57, 62
1, 53473, Note_off_c, 0, 77, 58
1, 53485, Note_off_c, 0, 57, 62
1, 53533, Note_on_c, 0, 60, 49
1, 53580, Note_off_c, 0, 60, 61
1, 53617, Note_on_c, 0, 79, 74
1, 53625, Note_on_c, 0, 52, 56
1, 53641, Note_off_c, 0, 79, 67
1, 53657, Note_off_c, 0, 52, 66
1, 53689, Note_on_c, 0, 60, 58
1, 53742, Note_off_c, 0, 60, 51
1, 53775, Note_on_c, 0, 81, 82
1, 53789, Note_on_c, 0, 53, 54
1, 53796, Note_off_c, 0, 81, 66
1, 53821, Note_off_c, 0, 53, 66
1, 53855, Note_on_c, 0, 60, 63
1, 53898, Note_off_c, 0, 60, 54
1, 53941, Note_on_c, 0, 82, 81
1, 53949, Note_on_c, 0, 55, 57
1, 53968, Note_off_c, 0, 82, 62
1, 53986, Note_off_c, 0, 55, 65
1, 54016, Note_on_c, 0, 60, 62
1, 54066, Note_off_c, 0, 60, 54
1, 54104, Note_on_c, 0, 83, 89
1, 54111, Note_on_c, 0, 56, 60
1, 54138, Control_c, 0, 64, 32
1, 54153, Control_c, 0, 64, 57
1, 54162, Note_off_c, 0, 56, 61
1, 54168, Control_c, 0, 64, 61
1, 54183, Control_c, 0, 64, 62
1, 54189, Note_on_c, 0, 60, 62
1, 54198, Control_c, 0, 64, 63
1, 54213, Control_c, 0, 64, 61
1, 54228, Control_c, 0, 64, 54
1, 54236, Note_off_c, 0, 60, 55
1, 54242, Control_c, 0, 64, 0
1, 54271, Note_off_c, 0, 83, 61
1, 54274, Note_on_c, 0, 84, 74
1, 54287, Note_on_c, 0, 57, 52
1, 54296, Note_off_c, 0, 84, 71
1, 54331, Note_off_c, 0, 57, 63
1, 54362, Note_on_c, 0, 60, 64
1, 54406, Note_off_c, 0, 60, 55
1, 54440, Note_on_c, 0, 83, 88
1, 54462, Note_on_c, 0, 56, 59
1, 54472, Control_c, 0, 64, 43
1, 54487, Control_c, 0, 64, 62
1, 54502, Control_c, 0, 64, 66
1, 54507, Note_off_c, 0, 56, 60
1, 54516, Control_c, 0, 64, 69
1, 54526, Note_on_c, 0, 60, 64
1, 54531, Control_c, 0, 64, 72
1, 54546, Control_c, 0, 64, 73
1, 54561, Control_c, 0, 64, 72
1, 54573, Note_off_c, 0, 60, 52
1, 54576, Control_c, 0, 64, 68
1, 54590, Control_c, 0, 64, 55
1, 54605, Control_c, 0, 64, 0
1, 54614, Note_off_c, 0, 83, 58
1, 54615, Note_on_c, 0, 84, 75
1, 54620, Note_on_c, 0, 57, 59
1, 54637, Note_off_c, 0, 84, 71
1, 54658, Note_off_c, 0, 57, 62
1, 54695, Note_on_c, 0, 60, 58
1, 54739, Note_off_c, 0, 60, 53
1, 54770, Note_on_c, 0, 82, 80
1, 54782, Note_on_c, 0, 52, 61
1, 54783, Control_c, 0, 64, 18
1, 54797, Control_c, 0, 64, 63
1, 54812, Control_c, 0, 64, 67
1, 54825, Note_off_c, 0, 52, 63
1, 54827, Control_c, 0, 64, 71
1, 54842, Control_c, 0, 64, 72
1, 54857, Control_c, 0, 64, 71
1, 54857, Note_on_c, 0, 60, 64
1, 54871, Control_c, 0, 64, 69
1, 54886, Control_c, 0, 64, 62
1, 54901, Control_c, 0, 64, 0
1, 54909, Note_off_c, 0, 60, 48
1, 54925, Note_off_c, 0, 82, 60
1, 54939, Note_on_c, 0, 55, 54
1, 54948, Note_on_c, 0, 79, 65
1, 54967, Note_off_c, 0, 79, 65
1, 54977, Note_off_c, 0, 55, 65
1, 55029, Note_on_c, 0, 60, 51
1, 55055, Note_off_c, 0, 60, 55
1, 55115, Note_on_c, 0, 76, 71
1, 55116, Note_on_c, 0, 58, 57
1, 55137, Note_off_c, 0, 76, 72
1, 55155, Note_off_c, 0, 58, 66
1, 55184, Note_on_c, 0, 60, 53
1, 55231, Note_off_c, 0, 60, 57
1, 55278, Note_on_c, 0, 76, 74
1, 55280, Note_on_c, 0, 58, 62
1, 55299, Note_off_c, 0, 76, 72
1, 55313, Note_off_c, 0, 58, 65
1, 55352, Note_on_c, 0, 60, 57
1, 55389, Note_off_c, 0, 60, 62
1, 55438, Note_on_c, 0, 82, 78
1, 55447, Note_on_c, 0, 52, 58
1, 55459, Control_c, 0, 64, 60
1, 55473, Control_c, 0, 64, 66
1, 55484, Note_off_c, 0, 52, 64
1, 55488, Control_c, 0, 64, 69
1, 55503, Control_c, 0, 64, 70
1, 55507, Note_on_c, 0, 60, 64
1, 55518, Control_c, 0, 64, 71
1, 55533, Control_c, 0, 64, 70
1, 55547, Control_c, 0, 64, 68
1, 55557, Note_off_c, 0, 60, 52
1, 55562, Control_c, 0, 64, 62
1, 55577, Control_c, 0, 64, 0
1, 55607, Note_on_c, 0, 55, 58
1, 55608, Note_off_c, 0, 82, 60
1, 55611, Note_on_c, 0, 79, 61
1, 55630, Note_off_c, 0, 79, 65
1, 55644, Note_off_c, 0, 55, 65
1, 55676, Note_on_c, 0, 60, 64
1, 55725, Note_off_c, 0, 60, 55
1, 55762, Note_on_c, 0, 76, 73
1, 55765, Note_on_c, 0, 58, 59
1, 55787, Note_off_c, 0, 76, 69
1, 55816, Note_off_c, 0, 58, 62
1, 55849, Note_on_c, 0, 60, 65
1, 55883, Note_off_c, 0, 60, 60
1, 55936, Note_on_c, 0, 58, 65
1, 55938, Note_on_c, 0, 76, 70
1, 55960, Note_off_c, 0, 76, 71
1, 55974, Note_off_c, 0, 58, 63
1, 56008, Note_on_c, 0, 60, 63
1, 56052, Note_off_c, 0, 60, 60
1, 56097, Note_on_c, 0, 77, 79
1, 56101, Note_on_c, 0, 57, 63
1, 56128, Note_off_c, 0, 77, 58
1, 56156, Note_off_c, 0, 57, 59
1, 56180, Note_on_c, 0, 60, 67
1, 56233, Note_off_c, 0, 60, 52
1, 56266, Note_on_c, 0, 79, 80
1, 56270, Note_on_c, 0, 52, 70
1, 56292, Note_off_c, 0, 79, 62
1, 56336, Note_off_c, 0, 52, 61
1, 56341, Note_on_c, 0, 60, 72
1, 56407, Note_off_c, 0, 60, 54
1, 56421, Note_on_c, 0, 81, 91
1, 56428, Note_on_c, 0, 53, 72
1, 56454, Note_off_c, 0, 81, 65
1, 56466, Note_off_c, 0, 53, 64
1, 56502, Note_on_c, 0, 60, 76
1, 56546, Note_off_c, 0, 60, 53
1, 56591, Note_on_c, 0, 82, 94
1, 56594, Note_on_c, 0, 55, 68
1, 56624, Note_off_c, 0, 82, 65
1, 56646, Note_off_c, 0, 55, 65
1, 56666, Note_on_c, 0, 60, 70
1, 56743, Note_off_c, 0, 60, 55
1, 56756, Note_on_c, 0, 83, 98
1, 56764, Note_on_c, 0, 56, 66
1, 56808, Control_c, 0, 64, 58
1, 56823, Control_c, 0, 64, 64
1, 56827, Note_off_c, 0, 56, 64
1, 56838, Control_c, 0, 64, 67
1, 56850, Note_on_c, 0, 60, 70
1, 56853, Control_c, 0, 64, 68
1, 56882, Control_c, 0, 64, 68
1, 56897, Control_c, 0, 64, 66
1, 56904, Note_off_c, 0, 60, 48
1, 56912, Control_c, 0, 64, 60
1, 56925, Note_off_c, 0, 83, 60
1, 56925, Note_on_c, 0, 84, 85
1, 56926, Control_c, 0, 64, 19
1, 56940, Note_on_c, 0, 57, 54
1, 56941, Control_c, 0, 64, 0
1, 56952, Note_off_c, 0, 84, 65
1, 56979, Note_off_c, 0, 57, 62
1, 57010, Note_on_c, 0, 60, 69
1, 57077, Note_off_c, 0, 60, 54
1, 57089, Note_on_c, 0, 83, 90
1, 57094, Note_on_c, 0, 56, 68
1, 57119, Control_c, 0, 64, 62
1, 57134, Control_c, 0, 64, 70
1, 57149, Control_c, 0, 64, 79
1, 57157, Note_off_c, 0, 56, 61
1, 57164, Control_c, 0, 64, 86
1, 57164, Control_c, 0, 67, 8
1, 57177, Note_on_c, 0, 60, 72
1, 57179, Control_c, 0, 64, 88
1, 57179, Control_c, 0, 67, 9
1, 57194, Control_c, 0, 64, 89
1, 57194, Control_c, 0, 67, 11
1, 57208, Control_c, 0, 64, 88
1, 57208, Control_c, 0, 67, 13
1, 57223, Control_c, 0, 64, 82
1, 57223, Control_c, 0, 67, 15
1, 57232, Note_off_c, 0, 60, 45
1, 57238, Control_c, 0, 64, 70
1, 57238, Control_c, 0, 67, 16
1, 57253, Control_c, 0, 64, 0
1, 57253, Control_c, 0, 67, 18
1, 57255, Note_off_c, 0, 83, 59
1, 57257, Note_on_c, 0, 57, 64
1, 57259, Note_on_c, 0, 84, 78
1, 57268, Control_c, 0, 67, 24
1, 57283, Control_c, 0, 67, 31
1, 57284, Note_off_c, 0, 84, 66
1, 57293, Note_off_c, 0, 57, 64
1, 57298, Control_c, 0, 67, 37
1, 57319, Control_c, 0, 67, 40
1, 57334, Control_c, 0, 67, 41
1, 57349, Note_on_c, 0, 60, 61
1, 57364, Control_c, 0, 67, 40
1, 57371, Note_off_c, 0, 60, 63
1, 57379, Control_c, 0, 67, 39
1, 57410, Control_c, 0, 67, 39
1, 57424, Control_c, 0, 67, 38
1, 57439, Control_c, 0, 67, 37
1, 57454, Control_c, 0, 67, 37
1, 57469, Control_c, 0, 67, 36
1, 57484, Control_c, 0, 67, 36
1, 57513, Control_c, 0, 67, 35
1, 57518, Note_on_c, 0, 86, 56
1, 57528, Control_c, 0, 67, 35
1, 57530, Note_on_c, 0, 74, 46
1, 57632, Control_c, 0, 67, 34
1, 57699, Note_on_c, 0, 58, 34
1, 57735, Control_c, 0, 67, 35
1, 57795, Control_c, 0, 67, 35
1, 57809, Control_c, 0, 67, 36
1, 57824, Control_c, 0, 67, 36
1, 57839, Control_c, 0, 64, 47
1, 57839, Control_c, 0, 67, 37
1, 57853, Control_c, 0, 64, 63
1, 57860, Note_on_c, 0, 57, 46
1, 57868, Control_c, 0, 64, 66
1, 57868, Control_c, 0, 67, 37
1, 57870, Note_off_c, 0, 58, 57
1, 57883, Control_c, 0, 64, 69
1, 57887, Note_off_c, 0, 86, 64
1, 57898, Control_c, 0, 64, 73
1, 57913, Control_c, 0, 64, 77
1, 57913, Control_c, 0, 67, 38
1, 57924, Note_off_c, 0, 74, 62
1, 57927, Control_c, 0, 64, 80
1, 57927, Control_c, 0, 67, 38
1, 57942, Control_c, 0, 64, 81
1, 57957, Control_c, 0, 64, 81
1, 58031, Note_off_c, 0, 57, 50
1, 58039, Note_on_c, 0, 58, 58
1, 58078, Note_off_c, 0, 58, 66
1, 58098, Control_c, 0, 64, 81
1, 58128, Control_c, 0, 64, 80
1, 58142, Control_c, 0, 64, 80
1, 58157, Control_c, 0, 64, 79
1, 58172, Control_c, 0, 64, 79
1, 58172, Control_c, 0, 67, 38
1, 58188, Control_c, 0, 64, 78
1, 58203, Control_c, 0, 64, 77
1, 58203, Control_c, 0, 67, 37
1, 58218, Control_c, 0, 64, 76
1, 58220, Note_on_c, 0, 76, 70
1, 58233, Control_c, 0, 64, 75
1, 58236, Note_on_c, 0, 64, 52
1, 58247, Control_c, 0, 64, 74
1, 58262, Control_c, 0, 64, 72
1, 58262, Control_c, 0, 67, 37
1, 58277, Control_c, 0, 64, 68
1, 58291, Control_c, 0, 64, 62
1, 58306, Control_c, 0, 64, 22
1, 58321, Control_c, 0, 64, 0
1, 58321, Control_c, 0, 67, 36
1, 58365, Control_c, 0, 67, 36
1, 58381, Note_on_c, 0, 60, 58
1, 58410, Control_c, 0, 67, 36
1, 58425, Control_c, 0, 67, 37
1, 58440, Control_c, 0, 67, 37
1, 58469, Control_c, 0, 67, 38
1, 58484, Control_c, 0, 67, 38
1, 58499, Control_c, 0, 67, 39
1, 58514, Control_c, 0, 64, 42
1, 58529, Control_c, 0, 64, 64
1, 58529, Control_c, 0, 67, 40
1, 58544, Control_c, 0, 64, 69
1, 58553, Note_off_c, 0, 64, 64
1, 58557, Note_on_c, 0, 59, 62
1, 58558, Control_c, 0, 64, 74
1, 58559, Note_off_c, 0, 76, 62
1, 58566, Note_off_c, 0, 60, 60
1, 58573, Control_c, 0, 64, 77
1, 58588, Control_c, 0, 64, 80
1, 58603, Control_c, 0, 64, 82
1, 58618, Control_c, 0, 64, 83
1, 58632, Control_c, 0, 64, 83
1, 58632, Control_c, 0, 67, 41
1, 58720, Note_on_c, 0, 60, 70
1, 58736, Control_c, 0, 67, 40
1, 58741, Note_off_c, 0, 59, 52
1, 58750, Control_c, 0, 64, 83
1, 58774, Note_off_c, 0, 60, 59
1, 58780, Control_c, 0, 67, 40
1, 58818, Control_c, 0, 67, 39
1, 58847, Control_c, 0, 64, 82
1, 58862, Control_c, 0, 64, 82
1, 58862, Control_c, 0, 67, 39
1, 58891, Control_c, 0, 64, 81
1, 58891, Control_c, 0, 67, 38
1, 58902, Note_on_c, 0, 82, 80
1, 58906, Control_c, 0, 64, 80
1, 58911, Note_on_c, 0, 70, 66
1, 58921, Control_c, 0, 64, 79
1, 58936, Control_c, 0, 64, 79
1, 58951, Control_c, 0, 64, 78
1, 58965, Control_c, 0, 64, 76
1, 58965, Control_c, 0, 67, 38
1, 58981, Control_c, 0, 64, 74
1, 58981, Control_c, 0, 67, 37
1, 58996, Control_c, 0, 64, 71
1, 59011, Control_c, 0, 64, 67
1, 59026, Control_c, 0, 64, 62
1, 59041, Control_c, 0, 64, 54
1, 59082, Note_on_c, 0, 61, 44
1, 59085, Control_c, 0, 64, 53
1, 59100, Control_c, 0, 64, 48
1, 59114, Control_c, 0, 64, 25
1, 59129, Control_c, 0, 64, 0
1, 59256, Note_on_c, 0, 59, 50
1, 59259, Note_off_c, 0, 61, 57
1, 59292, Control_c, 0, 64, 58
1, 59307, Control_c, 0, 64, 65
1, 59322, Control_c, 0, 64, 70
1, 59337, Control_c, 0, 64, 74
1, 59352, Control_c, 0, 64, 78
1, 59367, Control_c, 0, 64, 80
1, 59367, Control_c, 0, 67, 37
1, 59381, Control_c, 0, 64, 80
1, 59396, Control_c, 0, 67, 36
1, 59408, Note_off_c, 0, 70, 48
1, 59411, Control_c, 0, 67, 36
1, 59433, Note_off_c, 0, 59, 60
1, 59439, Note_on_c, 0, 61, 62
1, 59444, Note_off_c, 0, 82, 47
1, 59470, Control_c, 0, 67, 35
1, 59474, Note_off_c, 0, 61, 63
1, 59485, Control_c, 0, 67, 35
1, 59500, Control_c, 0, 64, 80
1, 59514, Control_c, 0, 64, 79
1, 59514, Control_c, 0, 67, 34
1, 59529, Control_c, 0, 64, 78
1, 59544, Control_c, 0, 64, 77
1, 59544, Control_c, 0, 67, 34
1, 59566, Control_c, 0, 64, 76
1, 59581, Control_c, 0, 64, 75
1, 59596, Control_c, 0, 64, 74
1, 59611, Control_c, 0, 64, 73
1, 59611, Note_on_c, 0, 81, 66
1, 59620, Note_on_c, 0, 69, 54
1, 59626, Control_c, 0, 64, 70
1, 59640, Control_c, 0, 64, 67
1, 59655, Control_c, 0, 64, 61
1, 59670, Control_c, 0, 64, 51
1, 59685, Control_c, 0, 64, 46
1, 59685, Control_c, 0, 67, 34
1, 59714, Control_c, 0, 64, 44
1, 59714, Control_c, 0, 67, 35
1, 59729, Control_c, 0, 64, 40
1, 59744, Control_c, 0, 64, 32
1, 59759, Control_c, 0, 64, 0
1, 59759, Control_c, 0, 67, 35
1, 59774, Control_c, 0, 67, 36
1, 59783, Note_on_c, 0, 62, 44
1, 59804, Control_c, 0, 67, 37
1, 59819, Control_c, 0, 67, 37
1, 59834, Control_c, 0, 67, 38
1, 59849, Control_c, 0, 67, 39
1, 59864, Control_c, 0, 67, 40
1, 59878, Control_c, 0, 67, 42
1, 59893, Control_c, 0, 67, 43
1, 59908, Control_c, 0, 67, 47
1, 59923, Control_c, 0, 67, 57
1, 59937, Control_c, 0, 67, 67
1, 59939, Note_off_c, 0, 62, 58
1, 59952, Control_c, 0, 67, 71
1, 59956, Note_off_c, 0, 69, 60
1, 59959, Note_on_c, 0, 61, 50
1, 59967, Control_c, 0, 67, 72
1, 59982, Control_c, 0, 64, 65
1, 59982, Control_c, 0, 67, 73
1, 59997, Control_c, 0, 64, 69
1, 59999, Note_off_c, 0, 81, 59
1, 60011, Control_c, 0, 64, 72
1, 60026, Control_c, 0, 64, 74
1, 60041, Control_c, 0, 64, 74
1, 60055, Control_c, 0, 67, 72
1, 60070, Control_c, 0, 67, 72
1, 60100, Control_c, 0, 67, 72
1, 60115, Control_c, 0, 64, 74
1, 60115, Control_c, 0, 67, 73
1, 60130, Control_c, 0, 67, 73
1, 60141, Note_on_c, 0, 62, 51
1, 60152, Note_off_c, 0, 61, 35
1, 60160, Control_c, 0, 67, 73
1, 60204, Control_c, 0, 67, 72
1, 60234, Control_c, 0, 64, 73
1, 60234, Control_c, 0, 67, 71
1, 60249, Control_c, 0, 64, 71
1, 60249, Control_c, 0, 67, 71
1, 60249, Note_off_c, 0, 62, 61
1, 60263, Control_c, 0, 64, 65
1, 60278, Control_c, 0, 64, 0
1, 60278, Control_c, 0, 67, 70
1, 60297, Note_on_c, 0, 81, 62
1, 60315, Control_c, 0, 67, 69
1, 60330, Control_c, 0, 67, 68
1, 60344, Control_c, 0, 67, 67
1, 60346, Note_off_c, 0, 81, 58
1, 60380, Note_on_c, 0, 79, 59
1, 60389, Control_c, 0, 67, 68
1, 60404, Control_c, 0, 67, 68
1, 60413, Note_off_c, 0, 79, 52
1, 60449, Control_c, 0, 67, 68
1, 60450, Note_on_c, 0, 82, 69
1, 60478, Control_c, 0, 67, 68
1, 60511, Note_off_c, 0, 82, 62
1, 60519, Note_on_c, 0, 81, 68
1, 60597, Note_off_c, 0, 81, 59
1, 60601, Note_on_c, 0, 84, 69
1, 60607, Note_on_c, 0, 67, 49
1, 60613, Note_on_c, 0, 58, 48
1, 60642, Control_c, 0, 67, 69
1, 60657, Control_c, 0, 67, 70
1, 60662, Note_off_c, 0, 84, 62
1, 60672, Control_c, 0, 67, 70
1, 60677, Note_on_c, 0, 82, 69
1, 60678, Note_off_c, 0, 67, 63
1, 60686, Control_c, 0, 67, 71
1, 60690, Note_off_c, 0, 58, 63
1, 60744, Note_off_c, 0, 82, 62
1, 60759, Note_on_c, 0, 81, 66
1, 60805, Control_c, 0, 67, 70
1, 60808, Note_off_c, 0, 81, 60
1, 60820, Control_c, 0, 67, 70
1, 60834, Control_c, 0, 67, 69
1, 60844, Note_on_c, 0, 79, 63
1, 60849, Control_c, 0, 67, 69
1, 60878, Control_c, 0, 67, 68
1, 60887, Note_off_c, 0, 79, 56
1, 60908, Control_c, 0, 67, 68
1, 60938, Note_on_c, 0, 77, 62
1, 60940, Note_on_c, 0, 69, 42
1, 60941, Note_on_c, 0, 60, 36
1, 61012, Control_c, 0, 67, 67
1, 61093, Control_c, 0, 67, 66
1, 61108, Control_c, 0, 67, 66
1, 61123, Control_c, 0, 67, 65
1, 61138, Control_c, 0, 67, 65
1, 61153, Control_c, 0, 67, 64
1, 61167, Control_c, 0, 67, 63
1, 61182, Control_c, 0, 67, 62
1, 61197, Control_c, 0, 67, 61
1, 61212, Control_c, 0, 67, 60
1, 61227, Control_c, 0, 67, 58
1, 61242, Control_c, 0, 67, 53
1, 61257, Control_c, 0, 67, 48
1, 61271, Control_c, 0, 67, 44
1, 61286, Control_c, 0, 67, 41
1, 61301, Control_c, 0, 67, 37
1, 61316, Control_c, 0, 67, 34
1, 61331, Control_c, 0, 67, 30
1, 61334, Note_off_c, 0, 69, 54
1, 61334, Note_off_c, 0, 77, 56
1, 61339, Note_on_c, 0, 76, 54
1, 61346, Control_c, 0, 67, 29
1, 61348, Note_on_c, 0, 70, 42
1, 61360, Control_c, 0, 67, 29
1, 61406, Control_c, 0, 64, 40
1, 61406, Control_c, 0, 67, 29
1, 61420, Control_c, 0, 64, 57
1, 61435, Control_c, 0, 64, 62
1, 61450, Control_c, 0, 64, 65
1, 61465, Control_c, 0, 64, 68
1, 61480, Control_c, 0, 64, 72
1, 61495, Control_c, 0, 64, 76
1, 61504, Note_off_c, 0, 60, 35
1, 61509, Control_c, 0, 64, 79
1, 61514, Note_off_c, 0, 76, 63
1, 61524, Control_c, 0, 64, 81
1, 61539, Control_c, 0, 64, 82
1, 61554, Control_c, 0, 64, 82
1, 61569, Control_c, 0, 64, 83
1, 61608, Note_off_c, 0, 70, 47
1, 61657, Control_c, 0, 67, 29
1, 61688, Control_c, 0, 64, 82
1, 61688, Control_c, 0, 67, 30
1, 61702, Control_c, 0, 67, 29
1, 61710, Note_on_c, 0, 69, 43
1, 61717, Control_c, 0, 64, 82
1, 61717, Control_c, 0, 67, 29
1, 61722, Note_on_c, 0, 65, 33
1, 61732, Control_c, 0, 64, 81
1, 61747, Control_c, 0, 64, 80
1, 61762, Control_c, 0, 64, 77
1, 61762, Control_c, 0, 67, 28
1, 61776, Control_c, 0, 64, 73
1, 61791, Control_c, 0, 64, 69
1, 61791, Control_c, 0, 67, 28
1, 61814, Control_c, 0, 64, 57
1, 61829, Control_c, 0, 64, 0
1, 61858, Control_c, 0, 67, 27
1, 61882, Note_on_c, 0, 77, 65
1, 61888, Control_c, 0, 67, 26
1, 61902, Control_c, 0, 67, 21
1, 61917, Control_c, 0, 67, 15
1, 61921, Note_off_c, 0, 69, 63
1, 61922, Note_off_c, 0, 65, 56
1, 61932, Control_c, 0, 67, 8
1, 61947, Control_c, 0, 67, 0
1, 62035, Control_c, 0, 67, 8
1, 62049, Note_off_c, 0, 77, 58
1, 62050, Control_c, 0, 67, 9
1, 62055, Note_on_c, 0, 76, 57
1, 62065, Control_c, 0, 67, 11
1, 62080, Control_c, 0, 67, 12
1, 62095, Control_c, 0, 67, 13
1, 62124, Control_c, 0, 67, 12
1, 62169, Control_c, 0, 67, 13
1, 62215, Note_off_c, 0, 76, 63
1, 62219, Note_on_c, 0, 77, 59
1, 62241, Note_off_c, 0, 77, 64
1, 62348, Control_c, 0, 67, 12
1, 62380, Note_on_c, 0, 69, 41
1, 62395, Note_on_c, 0, 65, 38
1, 62421, Control_c, 0, 67, 12
1, 62436, Control_c, 0, 64, 32
1, 62450, Control_c, 0, 64, 60
1, 62450, Control_c, 0, 67, 12
1, 62465, Control_c, 0, 64, 66
1, 62480, Control_c, 0, 64, 70
1, 62480, Control_c, 0, 67, 13
1, 62495, Control_c, 0, 64, 74
1, 62510, Control_c, 0, 64, 79
1, 62524, Control_c, 0, 64, 83
1, 62539, Control_c, 0, 64, 86
1, 62559, Note_on_c, 0, 75, 67
1, 62562, Control_c, 0, 64, 88
1, 62577, Control_c, 0, 64, 90
1, 62589, Note_off_c, 0, 69, 61
1, 62592, Control_c, 0, 64, 91
1, 62605, Note_off_c, 0, 65, 42
1, 62606, Control_c, 0, 64, 92
1, 62621, Control_c, 0, 64, 92
1, 62650, Control_c, 0, 67, 12
1, 62665, Control_c, 0, 67, 12
1, 62680, Control_c, 0, 67, 11
1, 62695, Control_c, 0, 67, 10
1, 62710, Control_c, 0, 64, 92
1, 62710, Control_c, 0, 67, 9
1, 62724, Control_c, 0, 67, 0
1, 62732, Note_on_c, 0, 74, 70
1, 62756, Note_off_c, 0, 75, 60
1, 62799, Control_c, 0, 64, 91
1, 62843, Control_c, 0, 64, 91
1, 62857, Control_c, 0, 64, 90
1, 62902, Control_c, 0, 64, 90
1, 62904, Note_on_c, 0, 75, 81
1, 62915, Note_off_c, 0, 74, 62
1, 62945, Note_off_c, 0, 75, 63
1, 62947, Control_c, 0, 64, 89
1, 62962, Control_c, 0, 64, 89
1, 62977, Control_c, 0, 64, 88
1, 62992, Control_c, 0, 64, 87
1, 62992, Control_c, 0, 67, 9
1, 63007, Control_c, 0, 64, 87
1, 63007, Control_c, 0, 67, 13
1, 63022, Control_c, 0, 64, 86
1, 63022, Control_c, 0, 67, 16
1, 63036, Control_c, 0, 64, 86
1, 63036, Control_c, 0, 67, 19
1, 63051, Control_c, 0, 64, 85
1, 63051, Control_c, 0, 67, 20
1, 63066, Control_c, 0, 64, 85
1, 63066, Control_c, 0, 67, 21
1, 63079, Note_on_c, 0, 57, 54
1, 63081, Control_c, 0, 64, 83
1, 63081, Control_c, 0, 67, 23
1, 63082, Note_on_c, 0, 60, 61
1, 63086, Note_on_c, 0, 54, 56
1, 63096, Control_c, 0, 64, 81
1, 63096, Control_c, 0, 67, 24
1, 63111, Control_c, 0, 64, 77
1, 63126, Control_c, 0, 64, 73
1, 63126, Control_c, 0, 67, 23
1, 63140, Control_c, 0, 64, 66
1, 63140, Control_c, 0, 67, 23
1, 63155, Control_c, 0, 64, 53
1, 63155, Control_c, 0, 67, 22
1, 63170, Control_c, 0, 64, 0
1, 63185, Control_c, 0, 67, 22
1, 63215, Control_c, 0, 67, 21
1, 63236, Note_on_c, 0, 74, 70
1, 63244, Control_c, 0, 67, 22
1, 63273, Control_c, 0, 67, 22
1, 63325, Control_c, 0, 67, 22
1, 63391, Note_off_c, 0, 74, 60
1, 63424, Note_on_c, 0, 86, 70
1, 63429, Control_c, 0, 67, 21
1, 63447, Note_off_c, 0, 86, 67
1, 63473, Control_c, 0, 67, 21
1, 63533, Control_c, 0, 67, 20
1, 63562, Control_c, 0, 67, 20
1, 63577, Control_c, 0, 67, 19
1, 63590, Note_on_c, 0, 86, 70
1, 63592, Control_c, 0, 67, 19
1, 63611, Note_off_c, 0, 86, 69
1, 63666, Control_c, 0, 67, 18
1, 63675, Note_off_c, 0, 57, 47
1, 63740, Control_c, 0, 67, 18
1, 63744, Note_off_c, 0, 60, 52
1, 63766, Note_off_c, 0, 54, 49
1, 63769, Note_on_c, 0, 58, 37
1, 63777, Note_on_c, 0, 55, 42
1, 63830, Control_c, 0, 67, 18
1, 63859, Control_c, 0, 67, 19
1, 63904, Control_c, 0, 67, 19
1, 63918, Control_c, 0, 67, 20
1, 63947, Note_on_c, 0, 86, 58
1, 63996, Note_off_c, 0, 55, 52
1, 64006, Note_off_c, 0, 58, 61
1, 64023, Control_c, 0, 67, 19
1, 64074, Control_c, 0, 67, 19
1, 64097, Note_off_c, 0, 86, 46
1, 64103, Control_c, 0, 67, 18
1, 64123, Note_on_c, 0, 74, 56
1, 64133, Control_c, 0, 67, 18
1, 64148, Control_c, 0, 67, 17
1, 64153, Note_off_c, 0, 74, 66
1, 64163, Control_c, 0, 67, 17
1, 64178, Control_c, 0, 67, 16
1, 64193, Control_c, 0, 67, 16
1, 64208, Control_c, 0, 67, 15
1, 64237, Control_c, 0, 67, 15
1, 64290, Note_on_c, 0, 74, 65
1, 64314, Note_off_c, 0, 74, 70
1, 64341, Control_c, 0, 67, 15
1, 64385, Control_c, 0, 67, 16
1, 64400, Control_c, 0, 67, 16
1, 64444, Control_c, 0, 67, 17
1, 64454, Note_on_c, 0, 55, 52
1, 64455, Note_on_c, 0, 58, 54
1, 64459, Control_c, 0, 67, 17
1, 64474, Control_c, 0, 67, 18
1, 64476, Note_on_c, 0, 52, 54
1, 64503, Control_c, 0, 67, 18
1, 64548, Control_c, 0, 67, 19
1, 64579, Control_c, 0, 67, 19
1, 64593, Control_c, 0, 67, 20
1, 64634, Note_on_c, 0, 72, 74
1, 64668, Control_c, 0, 67, 20
1, 64727, Control_c, 0, 67, 20
1, 64772, Control_c, 0, 67, 19
1, 64786, Note_off_c, 0, 72, 59
1, 64809, Control_c, 0, 67, 19
1, 64816, Note_on_c, 0, 84, 72
1, 64840, Note_off_c, 0, 84, 69
1, 64868, Control_c, 0, 67, 18
1, 64927, Control_c, 0, 67, 18
1, 64942, Control_c, 0, 67, 17
1, 64977, Note_on_c, 0, 84, 77
1, 64987, Control_c, 0, 67, 16
1, 65012, Note_off_c, 0, 84, 67
1, 65016, Control_c, 0, 67, 15
1, 65060, Control_c, 0, 67, 15
1, 65138, Note_on_c, 0, 57, 36
1, 65156, Note_on_c, 0, 53, 41
1, 65158, Note_off_c, 0, 58, 40
1, 65161, Note_off_c, 0, 55, 37
1, 65162, Note_off_c, 0, 52, 57
1, 65194, Control_c, 0, 67, 15
1, 65224, Control_c, 0, 67, 16
1, 65239, Control_c, 0, 67, 16
1, 65298, Control_c, 0, 67, 17
1, 65312, Note_on_c, 0, 84, 63
1, 65313, Control_c, 0, 67, 17
1, 65342, Control_c, 0, 67, 18
1, 65447, Note_off_c, 0, 84, 62
1, 65466, Note_off_c, 0, 53, 57
1, 65472, Note_off_c, 0, 57, 54
1, 65478, Note_on_c, 0, 72, 64
1, 65506, Control_c, 0, 67, 18
1, 65509, Note_off_c, 0, 72, 67
1, 65536, Control_c, 0, 67, 17
1, 65644, Note_on_c, 0, 72, 75
1, 65687, Note_off_c, 0, 72, 62
1, 65811, Note_on_c, 0, 73, 79
1, 65869, Control_c, 0, 67, 18
1, 65898, Control_c, 0, 67, 18
1, 65984, Note_on_c, 0, 74, 81
1, 66002, Control_c, 0, 67, 19
1, 66030, Note_off_c, 0, 73, 63
1, 66047, Control_c, 0, 67, 18
1, 66149, Note_on_c, 0, 76, 82
1, 66162, Note_off_c, 0, 74, 68
1, 66170, Note_on_c, 0, 47, 45
1, 66172, Note_on_c, 0, 55, 38
1, 66194, Control_c, 0, 67, 18
1, 66209, Control_c, 0, 67, 17
1, 66238, Control_c, 0, 64, 44
1, 66253, Control_c, 0, 64, 64
1, 66268, Control_c, 0, 64, 67
1, 66283, Control_c, 0, 64, 70
1, 66305, Control_c, 0, 64, 74
1, 66320, Control_c, 0, 64, 76
1, 66335, Control_c, 0, 64, 77
1, 66340, Note_on_c, 0, 77, 86
1, 66342, Note_off_c, 0, 47, 54
1, 66350, Control_c, 0, 64, 78
1, 66358, Note_off_c, 0, 76, 57
1, 66365, Control_c, 0, 67, 18
1, 66379, Control_c, 0, 64, 79
1, 66409, Control_c, 0, 67, 18
1, 66497, Control_c, 0, 67, 19
1, 66557, Control_c, 0, 64, 78
1, 66577, Note_on_c, 0, 48, 40
1, 66577, Note_on_c, 0, 65, 74
1, 66579, Note_on_c, 0, 57, 40
1, 66584, Note_off_c, 0, 77, 51
1, 66586, Control_c, 0, 64, 78
1, 66601, Control_c, 0, 64, 77
1, 66616, Control_c, 0, 64, 77
1, 66616, Control_c, 0, 67, 19
1, 66631, Control_c, 0, 64, 76
1, 66646, Control_c, 0, 64, 75
1, 66661, Control_c, 0, 64, 74
1, 66661, Control_c, 0, 67, 19
1, 66676, Control_c, 0, 64, 72
1, 66676, Note_off_c, 0, 55, 41
1, 66691, Control_c, 0, 64, 68
1, 66691, Control_c, 0, 67, 19
1, 66705, Control_c, 0, 64, 64
1, 66720, Control_c, 0, 64, 53
1, 66735, Control_c, 0, 64, 39
1, 66750, Control_c, 0, 64, 40
1, 66765, Control_c, 0, 67, 20
1, 66779, Control_c, 0, 64, 38
1, 66794, Control_c, 0, 64, 34
1, 66809, Control_c, 0, 64, 26
1, 66809, Control_c, 0, 67, 21
1, 66823, Control_c, 0, 64, 10
1, 66823, Control_c, 0, 67, 21
1, 66838, Control_c, 0, 64, 0
1, 66838, Control_c, 0, 67, 22
1, 66853, Control_c, 0, 67, 22
1, 66868, Control_c, 0, 67, 23
1, 66883, Control_c, 0, 67, 24
1, 66897, Control_c, 0, 67, 24
1, 66908, Note_off_c, 0, 65, 64
1, 66912, Control_c, 0, 67, 25
1, 66923, Note_off_c, 0, 57, 55
1, 66924, Note_on_c, 0, 69, 63
1, 66927, Control_c, 0, 67, 26
1, 66941, Note_on_c, 0, 64, 52
1, 66942, Control_c, 0, 67, 29
1, 66947, Note_on_c, 0, 58, 49
1, 66957, Control_c, 0, 67, 30
1, 66973, Control_c, 0, 67, 29
1, 66988, Control_c, 0, 67, 28
1, 67002, Control_c, 0, 67, 27
1, 67017, Control_c, 0, 67, 25
1, 67032, Control_c, 0, 67, 26
1, 67054, Control_c, 0, 67, 27
1, 67069, Control_c, 0, 67, 27
1, 67084, Control_c, 0, 67, 28
1, 67092, Note_off_c, 0, 64, 54
1, 67094, Note_off_c, 0, 69, 61
1, 67099, Control_c, 0, 67, 29
1, 67108, Note_off_c, 0, 48, 38
1, 67119, Note_off_c, 0, 58, 64
1, 67121, Note_on_c, 0, 67, 59
1, 67128, Control_c, 0, 67, 30
1, 67143, Control_c, 0, 67, 32
1, 67158, Control_c, 0, 67, 37
1, 67173, Control_c, 0, 67, 43
1, 67188, Control_c, 0, 67, 49
1, 67202, Control_c, 0, 67, 53
1, 67217, Control_c, 0, 67, 55
1, 67243, Note_off_c, 0, 67, 53
1, 67246, Control_c, 0, 67, 54
1, 67261, Control_c, 0, 67, 53
1, 67276, Control_c, 0, 67, 52
1, 67280, Note_on_c, 0, 65, 63
1, 67299, Note_on_c, 0, 53, 37
1, 67306, Control_c, 0, 64, 60
1, 67306, Control_c, 0, 67, 52
1, 67307, Note_on_c, 0, 57, 39
1, 67308, Note_off_c, 0, 65, 68
1, 67320, Control_c, 0, 64, 68
1, 67320, Control_c, 0, 67, 51
1, 67324, Note_off_c, 0, 53, 55
1, 67335, Control_c, 0, 64, 72
1, 67339, Note_off_c, 0, 57, 44
1, 67350, Control_c, 0, 64, 75
1, 67365, Control_c, 0, 64, 76
1, 67365, Control_c, 0, 67, 52
1, 67439, Control_c, 0, 64, 75
1, 67469, Control_c, 0, 64, 75
1, 67471, Note_on_c, 0, 65, 58
1, 67484, Control_c, 0, 64, 74
1, 67494, Note_off_c, 0, 65, 61
1, 67499, Control_c, 0, 64, 73
1, 67499, Control_c, 0, 67, 51
1, 67513, Control_c, 0, 64, 70
1, 67528, Control_c, 0, 64, 66
1, 67528, Control_c, 0, 67, 51
1, 67533, Note_on_c, 0, 69, 65
1, 67543, Control_c, 0, 64, 58
1, 67543, Control_c, 0, 67, 50
1, 67558, Control_c, 0, 64, 16
1, 67558, Control_c, 0, 67, 50
1, 67573, Note_off_c, 0, 69, 60
1, 67573, Control_c, 0, 64, 0
1, 67573, Control_c, 0, 67, 49
1, 67588, Control_c, 0, 67, 49
1, 67615, Note_on_c, 0, 64, 49
1, 67615, Note_on_c, 0, 67, 63
1, 67632, Control_c, 0, 67, 48
1, 67652, Note_off_c, 0, 67, 60
1, 67685, Note_on_c, 0, 70, 60
1, 67720, Control_c, 0, 67, 49
1, 67744, Note_off_c, 0, 70, 60
1, 67750, Note_off_c, 0, 64, 58
1, 67759, Note_on_c, 0, 69, 67
1, 67766, Note_on_c, 0, 63, 48
1, 67781, Control_c, 0, 67, 49
1, 67811, Note_off_c, 0, 63, 61
1, 67811, Note_off_c, 0, 69, 59
1, 67818, Control_c, 0, 67, 50
1, 67844, Note_on_c, 0, 72, 56
1, 67877, Note_off_c, 0, 72, 57
1, 67922, Control_c, 0, 67, 51
1, 67926, Note_on_c, 0, 70, 65
1, 67937, Control_c, 0, 67, 50
1, 67941, Note_on_c, 0, 62, 50
1, 67949, Note_on_c, 0, 53, 41
1, 67951, Control_c, 0, 64, 60
1, 67953, Note_off_c, 0, 70, 68
1, 67966, Control_c, 0, 64, 68
1, 67966, Control_c, 0, 67, 51
1, 67968, Note_off_c, 0, 62, 59
1, 67978, Note_off_c, 0, 53, 47
1, 67981, Control_c, 0, 64, 72
1, 67996, Control_c, 0, 64, 76
1, 67996, Control_c, 0, 67, 51
1, 68011, Control_c, 0, 64, 77
1, 68011, Control_c, 0, 67, 52
1, 68055, Control_c, 0, 64, 76
1, 68069, Control_c, 0, 64, 75
1, 68084, Control_c, 0, 64, 74
1, 68099, Control_c, 0, 64, 73
1, 68099, Control_c, 0, 67, 52
1, 68109, Note_on_c, 0, 65, 65
1, 68114, Control_c, 0, 64, 71
1, 68114, Control_c, 0, 67, 51
1, 68129, Control_c, 0, 64, 70
1, 68141, Note_off_c, 0, 65, 65
1, 68143, Control_c, 0, 64, 67
1, 68143, Control_c, 0, 67, 51
1, 68158, Control_c, 0, 64, 62
1, 68173, Control_c, 0, 64, 56
1, 68173, Control_c, 0, 67, 50
1, 68179, Note_on_c, 0, 69, 74
1, 68188, Control_c, 0, 64, 53
1, 68188, Control_c, 0, 67, 50
1, 68203, Control_c, 0, 64, 54
1, 68217, Control_c, 0, 64, 53
1, 68232, Control_c, 0, 64, 50
1, 68236, Note_off_c, 0, 69, 63
1, 68247, Control_c, 0, 64, 34
1, 68247, Control_c, 0, 67, 49
1, 68262, Control_c, 0, 64, 0
1, 68262, Control_c, 0, 67, 49
1, 68262, Note_on_c, 0, 64, 55
1, 68270, Note_on_c, 0, 67, 69
1, 68291, Control_c, 0, 67, 48
1, 68306, Control_c, 0, 67, 48
1, 68311, Note_off_c, 0, 67, 59
1, 68337, Note_on_c, 0, 70, 65
1, 68410, Note_off_c, 0, 70, 56
1, 68420, Note_off_c, 0, 64, 62
1, 68426, Note_on_c, 0, 69, 67
1, 68427, Note_on_c, 0, 63, 60
1, 68468, Note_off_c, 0, 69, 56
1, 68470, Note_off_c, 0, 63, 62
1, 68492, Note_on_c, 0, 72, 67
1, 68524, Note_off_c, 0, 72, 62
1, 68588, Note_on_c, 0, 70, 73
1, 68597, Control_c, 0, 67, 48
1, 68601, Note_on_c, 0, 53, 49
1, 68601, Note_on_c, 0, 62, 54
1, 68612, Note_off_c, 0, 70, 68
1, 68612, Control_c, 0, 64, 61
1, 68612, Control_c, 0, 67, 49
1, 68626, Note_off_c, 0, 53, 56
1, 68626, Note_off_c, 0, 62, 61
1, 68627, Control_c, 0, 64, 66
1, 68627, Control_c, 0, 67, 50
1, 68642, Control_c, 0, 64, 69
1, 68642, Control_c, 0, 67, 51
1, 68656, Control_c, 0, 64, 70
1, 68656, Control_c, 0, 67, 51
1, 68671, Control_c, 0, 67, 52
1, 68686, Control_c, 0, 64, 69
1, 68700, Control_c, 0, 64, 67
1, 68715, Control_c, 0, 64, 65
1, 68730, Control_c, 0, 64, 64
1, 68745, Control_c, 0, 64, 63
1, 68745, Control_c, 0, 67, 51
1, 68753, Note_on_c, 0, 65, 71
1, 68760, Control_c, 0, 64, 63
1, 68760, Control_c, 0, 67, 51
1, 68774, Control_c, 0, 64, 62
1, 68789, Control_c, 0, 64, 59
1, 68798, Note_off_c, 0, 65, 59
1, 68804, Control_c, 0, 64, 54
1, 68804, Control_c, 0, 67, 50
1, 68819, Control_c, 0, 64, 49
1, 68819, Control_c, 0, 67, 50
1, 68829, Note_on_c, 0, 69, 76
1, 68834, Control_c, 0, 64, 48
1, 68849, Control_c, 0, 64, 48
1, 68849, Control_c, 0, 67, 49
1, 68864, Control_c, 0, 67, 49
1, 68878, Note_off_c, 0, 69, 60
1, 68893, Control_c, 0, 64, 46
1, 68893, Control_c, 0, 67, 48
1, 68894, Note_on_c, 0, 64, 63
1, 68908, Control_c, 0, 64, 41
1, 68908, Control_c, 0, 67, 48
1, 68910, Note_on_c, 0, 67, 76
1, 68923, Control_c, 0, 64, 10
1, 68938, Control_c, 0, 64, 0
1, 68938, Control_c, 0, 67, 47
1, 68956, Note_off_c, 0, 67, 56
1, 68967, Control_c, 0, 67, 47
1, 68977, Note_on_c, 0, 70, 68
1, 69012, Control_c, 0, 67, 47
1, 69017, Note_off_c, 0, 64, 57
1, 69041, Control_c, 0, 67, 48
1, 69056, Note_off_c, 0, 70, 61
1, 69059, Note_on_c, 0, 69, 76
1, 69061, Note_on_c, 0, 63, 61
1, 69105, Note_off_c, 0, 69, 56
1, 69115, Control_c, 0, 67, 48
1, 69124, Note_on_c, 0, 72, 75
1, 69145, Control_c, 0, 67, 48
1, 69174, Control_c, 0, 67, 47
1, 69189, Note_off_c, 0, 63, 62
1, 69195, Note_off_c, 0, 72, 60
1, 69202, Note_on_c, 0, 70, 77
1, 69207, Note_on_c, 0, 62, 78
1, 69232, Note_off_c, 0, 62, 66
1, 69233, Control_c, 0, 67, 48
1, 69248, Control_c, 0, 67, 48
1, 69263, Control_c, 0, 67, 49
1, 69284, Note_off_c, 0, 70, 63
1, 69285, Note_on_c, 0, 74, 69
1, 69299, Control_c, 0, 67, 49
1, 69329, Note_off_c, 0, 74, 61
1, 69344, Control_c, 0, 67, 49
1, 69378, Note_on_c, 0, 72, 72
1, 69379, Note_on_c, 0, 57, 68
1, 69404, Control_c, 0, 67, 49
1, 69406, Note_off_c, 0, 57, 65
1, 69419, Control_c, 0, 67, 50
1, 69423, Note_off_c, 0, 72, 61
1, 69448, Control_c, 0, 67, 50
1, 69450, Note_on_c, 0, 75, 72
1, 69508, Control_c, 0, 67, 51
1, 69510, Note_off_c, 0, 75, 64
1, 69537, Control_c, 0, 67, 52
1, 69539, Note_on_c, 0, 58, 74
1, 69540, Note_on_c, 0, 74, 69
1, 69552, Control_c, 0, 67, 53
1, 69565, Note_off_c, 0, 58, 68
1, 69567, Control_c, 0, 67, 54
1, 69587, Note_off_c, 0, 74, 62
1, 69612, Control_c, 0, 67, 53
1, 69612, Note_on_c, 0, 77, 71
1, 69689, Note_off_c, 0, 77, 59
1, 69695, Note_on_c, 0, 76, 74
1, 69697, Note_on_c, 0, 55, 70
1, 69715, Control_c, 0, 67, 53
1, 69727, Note_off_c, 0, 55, 66
1, 69760, Note_off_c, 0, 76, 65
1, 69785, Note_on_c, 0, 79, 74
1, 69789, Control_c, 0, 67, 52
1, 69819, Control_c, 0, 67, 52
1, 69842, Note_off_c, 0, 79, 58
1, 69848, Control_c, 0, 67, 51
1, 69867, Note_on_c, 0, 77, 77
1, 69876, Note_on_c, 0, 57, 55
1, 69878, Control_c, 0, 67, 51
1, 69908, Control_c, 0, 67, 50
1, 69922, Control_c, 0, 67, 50
1, 69928, Note_off_c, 0, 77, 62
1, 69946, Note_on_c, 0, 79, 77
1, 69967, Control_c, 0, 67, 49
1, 69982, Control_c, 0, 67, 49
1, 70011, Control_c, 0, 67, 48
1, 70016, Note_off_c, 0, 79, 61
1, 70017, Note_on_c, 0, 81, 79
1, 70048, Control_c, 0, 67, 47
1, 70063, Control_c, 0, 67, 47
1, 70078, Control_c, 0, 67, 46
1, 70102, Note_on_c, 0, 79, 78
1, 70105, Note_off_c, 0, 81, 59
1, 70108, Control_c, 0, 67, 46
1, 70122, Control_c, 0, 67, 45
1, 70152, Control_c, 0, 67, 45
1, 70183, Control_c, 0, 67, 45
1, 70190, Note_on_c, 0, 77, 76
1, 70190, Note_off_c, 0, 79, 57
1, 70212, Control_c, 0, 67, 46
1, 70242, Control_c, 0, 67, 47
1, 70258, Note_off_c, 0, 77, 62
1, 70270, Note_on_c, 0, 75, 76
1, 70271, Control_c, 0, 67, 48
1, 70286, Control_c, 0, 67, 48
1, 70316, Control_c, 0, 67, 49
1, 70328, Note_off_c, 0, 75, 63
1, 70342, Note_on_c, 0, 74, 76
1, 70360, Control_c, 0, 67, 49
1, 70389, Note_off_c, 0, 74, 64
1, 70390, Control_c, 0, 67, 49
1, 70420, Control_c, 0, 67, 48
1, 70423, Note_on_c, 0, 73, 78
1, 70435, Control_c, 0, 67, 48
1, 70461, Note_off_c, 0, 57, 58
1, 70487, Note_on_c, 0, 58, 55
1, 70494, Control_c, 0, 67, 47
1, 70494, Note_off_c, 0, 73, 60
1, 70503, Note_on_c, 0, 74, 76
1, 70573, Note_on_c, 0, 72, 77
1, 70578, Note_off_c, 0, 74, 60
1, 70627, Control_c, 0, 67, 48
1, 70652, Note_on_c, 0, 70, 83
1, 70656, Note_off_c, 0, 72, 64
1, 70700, Note_off_c, 0, 70, 65
1, 70730, Note_on_c, 0, 69, 80
1, 70731, Control_c, 0, 67, 47
1, 70745, Control_c, 0, 67, 46
1, 70760, Control_c, 0, 67, 46
1, 70775, Control_c, 0, 67, 45
1, 70796, Note_off_c, 0, 69, 64
1, 70797, Control_c, 0, 67, 44
1, 70812, Control_c, 0, 67, 44
1, 70818, Note_on_c, 0, 67, 82
1, 70826, Note_off_c, 0, 58, 61
1, 70827, Control_c, 0, 67, 43
1, 70842, Control_c, 0, 67, 40
1, 70857, Control_c, 0, 67, 34
1, 70858, Note_off_c, 0, 67, 65
1, 70871, Control_c, 0, 67, 23
1, 70886, Control_c, 0, 67, 9
1, 70895, Note_on_c, 0, 65, 78
1, 70901, Control_c, 0, 67, 0
1, 70970, Note_on_c, 0, 64, 78
1, 70974, Note_off_c, 0, 65, 64
1, 71018, Note_off_c, 0, 64, 63
1, 71038, Note_on_c, 0, 62, 78
1, 71087, Note_off_c, 0, 62, 57
1, 71118, Note_on_c, 0, 60, 72
1, 71129, Note_on_c, 0, 48, 54
1, 71162, Note_off_c, 0, 60, 60
1, 71192, Note_on_c, 0, 65, 81
1, 71251, Note_off_c, 0, 65, 61
1, 71263, Note_off_c, 0, 48, 49
1, 71266, Note_on_c, 0, 69, 85
1, 71280, Note_on_c, 0, 53, 58
1, 71339, Note_on_c, 0, 72, 82
1, 71341, Note_off_c, 0, 69, 63
1, 71415, Note_off_c, 0, 72, 60
1, 71417, Note_on_c, 0, 77, 89
1, 71430, Note_off_c, 0, 53, 63
1, 71433, Note_on_c, 0, 57, 59
1, 71451, Note_off_c, 0, 77, 64
1, 71466, Control_c, 0, 64, 56
1, 71481, Control_c, 0, 64, 60
1, 71495, Control_c, 0, 64, 59
1, 71510, Control_c, 0, 64, 56
1, 71525, Control_c, 0, 64, 51
1, 71547, Control_c, 0, 64, 42
1, 71562, Control_c, 0, 64, 36
1, 71571, Note_off_c, 0, 57, 57
1, 71576, Control_c, 0, 64, 34
1, 71590, Note_on_c, 0, 69, 80
1, 71591, Control_c, 0, 64, 22
1, 71593, Note_on_c, 0, 65, 67
1, 71594, Note_on_c, 0, 53, 53
1, 71606, Control_c, 0, 64, 0
1, 71606, Control_c, 0, 67, 8
1, 71621, Note_off_c, 0, 65, 68
1, 71621, Control_c, 0, 67, 10
1, 71624, Note_off_c, 0, 69, 66
1, 71636, Control_c, 0, 67, 11
1, 71651, Control_c, 0, 67, 12
1, 71681, Control_c, 0, 67, 13
1, 71695, Control_c, 0, 67, 15
1, 71710, Control_c, 0, 67, 16
1, 71725, Control_c, 0, 67, 16
1, 71740, Control_c, 0, 67, 15
1, 71755, Control_c, 0, 67, 15
1, 71761, Note_on_c, 0, 72, 76
1, 71769, Note_on_c, 0, 69, 68
1, 71779, Note_on_c, 0, 48, 45
1, 71785, Control_c, 0, 67, 14
1, 71800, Control_c, 0, 67, 14
1, 71830, Control_c, 0, 67, 13
1, 71844, Control_c, 0, 67, 13
1, 71874, Control_c, 0, 67, 12
1, 71889, Control_c, 0, 67, 12
1, 71897, Note_off_c, 0, 53, 19
1, 71918, Control_c, 0, 67, 11
1, 71920, Note_on_c, 0, 70, 76
1, 71923, Note_off_c, 0, 69, 65
1, 71928, Note_off_c, 0, 72, 63
1, 71928, Note_on_c, 0, 67, 69
1, 71933, Control_c, 0, 67, 10
1, 71939, Note_off_c, 0, 48, 53
1, 71948, Control_c, 0, 67, 9
1, 71951, Note_on_c, 0, 55, 47
1, 71953, Note_off_c, 0, 70, 63
1, 71955, Note_off_c, 0, 67, 67
1, 71963, Control_c, 0, 67, 8
1, 71992, Control_c, 0, 67, 8
1, 72022, Control_c, 0, 67, 0
1, 72087, Note_on_c, 0, 69, 68
1, 72093, Note_off_c, 0, 55, 61
1, 72095, Note_on_c, 0, 65, 58
1, 72104, Note_on_c, 0, 58, 51
1, 72116, Note_off_c, 0, 69, 69
1, 72116, Note_off_c, 0, 65, 66
1, 72125, Control_c, 0, 67, 8
1, 72209, Note_off_c, 0, 58, 60
1, 72244, Control_c, 0, 67, 8
1, 72250, Note_on_c, 0, 64, 60
1, 72257, Note_on_c, 0, 67, 57
1, 72272, Note_on_c, 0, 55, 45
1, 72274, Control_c, 0, 67, 9
1, 72280, Note_off_c, 0, 64, 66
1, 72283, Note_off_c, 0, 67, 59
1, 72306, Note_off_c, 0, 55, 62
1, 72311, Control_c, 0, 67, 9
1, 72414, Control_c, 0, 67, 10
1, 72426, Note_on_c, 0, 65, 66
1, 72433, Note_on_c, 0, 57, 50
1, 72434, Note_on_c, 0, 53, 49
1, 72444, Note_off_c, 0, 65, 65
1, 72444, Control_c, 0, 67, 11
1, 72459, Note_off_c, 0, 53, 60
1, 72459, Control_c, 0, 64, 44
1, 72460, Note_off_c, 0, 57, 63
1, 72474, Control_c, 0, 64, 63
1, 72474, Control_c, 0, 67, 12
1, 72489, Control_c, 0, 64, 65
1, 72489, Control_c, 0, 67, 12
1, 72503, Control_c, 0, 67, 13
1, 72533, Control_c, 0, 64, 65
1, 72548, Control_c, 0, 64, 64
1, 72563, Control_c, 0, 64, 63
1, 72578, Control_c, 0, 64, 63
1, 72593, Control_c, 0, 64, 62
1, 72605, Note_on_c, 0, 77, 72
1, 72608, Control_c, 0, 64, 61
1, 72623, Control_c, 0, 64, 59
1, 72632, Note_on_c, 0, 65, 30
1, 72634, Note_off_c, 0, 77, 61
1, 72638, Control_c, 0, 64, 54
1, 72653, Control_c, 0, 64, 49
1, 72653, Control_c, 0, 67, 12
1, 72667, Control_c, 0, 64, 45
1, 72667, Control_c, 0, 67, 12
1, 72678, Note_on_c, 0, 81, 73
1, 72682, Control_c, 0, 64, 42
1, 72697, Control_c, 0, 64, 38
1, 72697, Control_c, 0, 67, 11
1, 72712, Control_c, 0, 64, 19
1, 72727, Control_c, 0, 64, 0
1, 72728, Note_off_c, 0, 81, 59
1, 72760, Note_on_c, 0, 79, 72
1, 72765, Note_on_c, 0, 64, 55
1, 72781, Note_off_c, 0, 65, 39
1, 72800, Note_off_c, 0, 79, 61
1, 72815, Control_c, 0, 67, 12
1, 72833, Note_on_c, 0, 82, 68
1, 72867, Note_off_c, 0, 64, 55
1, 72874, Control_c, 0, 67, 12
1, 72894, Note_off_c, 0, 82, 61
1, 72909, Note_on_c, 0, 63, 54
1, 72912, Note_on_c, 0, 81, 70
1, 72932, Note_off_c, 0, 63, 63
1, 72948, Control_c, 0, 67, 12
1, 72961, Note_off_c, 0, 81, 57
1, 72982, Note_on_c, 0, 84, 69
1, 73007, Note_off_c, 0, 84, 68
1, 73044, Control_c, 0, 67, 11
1, 73073, Control_c, 0, 67, 12
1, 73078, Note_on_c, 0, 82, 74
1, 73088, Control_c, 0, 67, 12
1, 73091, Note_on_c, 0, 62, 59
1, 73100, Note_off_c, 0, 82, 68
1, 73103, Note_on_c, 0, 53, 34
1, 73103, Control_c, 0, 64, 21
1, 73103, Control_c, 0, 67, 13
1, 73118, Control_c, 0, 64, 63
1, 73118, Control_c, 0, 67, 13
1, 73122, Note_off_c, 0, 62, 64
1, 73133, Control_c, 0, 64, 68
1, 73133, Control_c, 0, 67, 14
1, 73135, Note_off_c, 0, 53, 44
1, 73147, Control_c, 0, 64, 72
1, 73162, Control_c, 0, 64, 73
1, 73162, Control_c, 0, 67, 15
1, 73192, Control_c, 0, 67, 15
1, 73207, Control_c, 0, 64, 72
1, 73207, Control_c, 0, 67, 16
1, 73222, Control_c, 0, 64, 71
1, 73237, Control_c, 0, 64, 70
1, 73237, Control_c, 0, 67, 16
1, 73252, Control_c, 0, 64, 70
1, 73253, Note_on_c, 0, 77, 76
1, 73255, Note_on_c, 0, 65, 72
1, 73266, Control_c, 0, 64, 69
1, 73266, Control_c, 0, 67, 17
1, 73281, Control_c, 0, 64, 68
1, 73281, Control_c, 0, 67, 17
1, 73296, Control_c, 0, 64, 65
1, 73297, Note_off_c, 0, 77, 58
1, 73311, Control_c, 0, 64, 62
1, 73311, Control_c, 0, 67, 17
1, 73326, Control_c, 0, 64, 55
1, 73326, Control_c, 0, 67, 16
1, 73331, Note_on_c, 0, 81, 79
1, 73340, Control_c, 0, 64, 41
1, 73340, Control_c, 0, 67, 16
1, 73355, Control_c, 0, 64, 19
1, 73355, Control_c, 0, 67, 15
1, 73371, Control_c, 0, 64, 0
1, 73371, Control_c, 0, 67, 15
1, 73390, Note_off_c, 0, 81, 61
1, 73401, Control_c, 0, 67, 14
1, 73416, Control_c, 0, 67, 14
1, 73419, Note_on_c, 0, 79, 77
1, 73427, Note_on_c, 0, 64, 69
1, 73431, Control_c, 0, 67, 13
1, 73434, Note_off_c, 0, 65, 53
1, 73445, Control_c, 0, 67, 13
1, 73470, Note_off_c, 0, 79, 59
1, 73489, Control_c, 0, 67, 12
1, 73490, Note_on_c, 0, 82, 71
1, 73534, Control_c, 0, 67, 12
1, 73568, Note_off_c, 0, 82, 61
1, 73570, Note_off_c, 0, 64, 62
1, 73571, Note_on_c, 0, 63, 72
1, 73575, Note_on_c, 0, 81, 77
1, 73615, Note_off_c, 0, 63, 60
1, 73630, Note_off_c, 0, 81, 56
1, 73648, Note_on_c, 0, 84, 77
1, 73684, Note_off_c, 0, 84, 62
1, 73696, Control_c, 0, 67, 11
1, 73732, Note_on_c, 0, 82, 90
1, 73741, Control_c, 0, 67, 12
1, 73744, Note_on_c, 0, 62, 60
1, 73746, Note_on_c, 0, 53, 55
1, 73755, Control_c, 0, 64, 61
1, 73755, Control_c, 0, 67, 12
1, 73765, Note_off_c, 0, 82, 64
1, 73768, Note_off_c, 0, 53, 60
1, 73770, Control_c, 0, 64, 68
1, 73770, Control_c, 0, 67, 13
1, 73775, Note_off_c, 0, 62, 64
1, 73793, Control_c, 0, 64, 72
1, 73793, Control_c, 0, 67, 14
1, 73807, Control_c, 0, 64, 77
1, 73807, Control_c, 0, 67, 14
1, 73822, Control_c, 0, 64, 79
1, 73822, Control_c, 0, 67, 15
1, 73867, Control_c, 0, 64, 78
1, 73881, Control_c, 0, 64, 77
1, 73896, Control_c, 0, 64, 76
1, 73903, Note_on_c, 0, 77, 82
1, 73904, Note_on_c, 0, 65, 80
1, 73911, Control_c, 0, 64, 74
1, 73926, Control_c, 0, 64, 73
1, 73941, Control_c, 0, 64, 70
1, 73950, Note_off_c, 0, 77, 61
1, 73956, Control_c, 0, 64, 66
1, 73970, Control_c, 0, 64, 59
1, 73970, Control_c, 0, 67, 14
1, 73981, Note_on_c, 0, 81, 86
1, 73985, Control_c, 0, 64, 32
1, 73985, Control_c, 0, 67, 14
1, 74000, Control_c, 0, 64, 0
1, 74000, Control_c, 0, 67, 13
1, 74015, Control_c, 0, 67, 12
1, 74039, Note_off_c, 0, 81, 61
1, 74059, Control_c, 0, 67, 11
1, 74063, Note_on_c, 0, 64, 78
1, 74067, Note_on_c, 0, 79, 82
1, 74068, Note_off_c, 0, 65, 64
1, 74117, Note_off_c, 0, 79, 60
1, 74132, Note_on_c, 0, 82, 81
1, 74209, Note_off_c, 0, 82, 58
1, 74209, Control_c, 0, 67, 12
1, 74211, Note_off_c, 0, 64, 61
1, 74223, Note_on_c, 0, 81, 80
1, 74225, Note_on_c, 0, 63, 77
1, 74238, Control_c, 0, 67, 12
1, 74253, Control_c, 0, 67, 13
1, 74268, Control_c, 0, 67, 14
1, 74288, Note_off_c, 0, 81, 58
1, 74298, Control_c, 0, 67, 15
1, 74302, Note_on_c, 0, 84, 81
1, 74342, Control_c, 0, 67, 14
1, 74352, Note_off_c, 0, 63, 63
1, 74357, Control_c, 0, 67, 14
1, 74360, Note_off_c, 0, 84, 50
1, 74372, Control_c, 0, 67, 13
1, 74378, Note_on_c, 0, 62, 75
1, 74381, Note_on_c, 0, 82, 88
1, 74386, Control_c, 0, 67, 13
1, 74402, Control_c, 0, 67, 12
1, 74408, Note_off_c, 0, 62, 65
1, 74431, Control_c, 0, 67, 13
1, 74438, Note_off_c, 0, 82, 64
1, 74461, Control_c, 0, 67, 13
1, 74466, Note_on_c, 0, 77, 72
1, 74491, Control_c, 0, 67, 13
1, 74505, Control_c, 0, 67, 12
1, 74506, Note_off_c, 0, 77, 56
1, 74520, Control_c, 0, 67, 11
1, 74551, Note_on_c, 0, 57, 73
1, 74552, Note_on_c, 0, 84, 92
1, 74557, Control_c, 0, 67, 12
1, 74572, Control_c, 0, 67, 12
1, 74582, Note_off_c, 0, 57, 65
1, 74587, Control_c, 0, 67, 13
1, 74602, Note_off_c, 0, 84, 62
1, 74617, Control_c, 0, 67, 12
1, 74632, Control_c, 0, 67, 12
1, 74635, Note_on_c, 0, 77, 77
1, 74661, Control_c, 0, 67, 11
1, 74684, Note_off_c, 0, 77, 56
1, 74705, Control_c, 0, 67, 12
1, 74710, Note_on_c, 0, 58, 76
1, 74714, Note_on_c, 0, 86, 96
1, 74720, Control_c, 0, 67, 13
1, 74735, Control_c, 0, 67, 13
1, 74739, Note_off_c, 0, 58, 66
1, 74750, Control_c, 0, 67, 14
1, 74764, Control_c, 0, 67, 13
1, 74769, Note_off_c, 0, 86, 63
1, 74787, Note_on_c, 0, 77, 84
1, 74794, Control_c, 0, 67, 13
1, 74824, Control_c, 0, 67, 12
1, 74845, Note_off_c, 0, 77, 61
1, 74853, Control_c, 0, 67, 13
1, 74868, Control_c, 0, 67, 14
1, 74874, Note_on_c, 0, 55, 69
1, 74874, Note_on_c, 0, 88, 93
1, 74898, Control_c, 0, 67, 14
1, 74901, Note_off_c, 0, 55, 65
1, 74912, Control_c, 0, 67, 14
1, 74927, Note_off_c, 0, 88, 61
1, 74942, Note_on_c, 0, 77, 88
1, 74942, Control_c, 0, 67, 13
1, 74958, Control_c, 0, 67, 13
1, 74973, Control_c, 0, 67, 12
1, 74994, Note_off_c, 0, 77, 61
1, 75003, Control_c, 0, 67, 12
1, 75022, Note_on_c, 0, 89, 91
1, 75043, Note_on_c, 0, 57, 65
1, 75047, Control_c, 0, 67, 11
1, 75050, Note_on_c, 0, 45, 69
1, 75076, Control_c, 0, 67, 11
1, 75091, Control_c, 0, 67, 10
1, 75104, Note_on_c, 0, 88, 82
1, 75106, Control_c, 0, 67, 9
1, 75129, Note_off_c, 0, 89, 64
1, 75177, Note_on_c, 0, 86, 84
1, 75180, Control_c, 0, 67, 10
1, 75190, Note_off_c, 0, 88, 62
1, 75210, Control_c, 0, 67, 10
1, 75227, Note_off_c, 0, 86, 63
1, 75254, Control_c, 0, 67, 11
1, 75263, Note_on_c, 0, 84, 83
1, 75306, Control_c, 0, 67, 10
1, 75335, Control_c, 0, 67, 10
1, 75341, Note_off_c, 0, 84, 44
1, 75345, Note_on_c, 0, 82, 86
1, 75380, Control_c, 0, 67, 10
1, 75404, Note_off_c, 0, 57, 62
1, 75410, Control_c, 0, 67, 11
1, 75422, Note_on_c, 0, 81, 82
1, 75436, Note_off_c, 0, 82, 63
1, 75440, Control_c, 0, 67, 11
1, 75484, Control_c, 0, 67, 12
1, 75498, Note_off_c, 0, 81, 61
1, 75502, Note_on_c, 0, 79, 82
1, 75514, Control_c, 0, 67, 12
1, 75529, Control_c, 0, 67, 13
1, 75570, Note_off_c, 0, 79, 62
1, 75578, Note_on_c, 0, 77, 81
1, 75622, Note_off_c, 0, 77, 60
1, 75632, Control_c, 0, 67, 13
1, 75647, Control_c, 0, 67, 14
1, 75654, Note_on_c, 0, 86, 89
1, 75661, Control_c, 0, 67, 15
1, 75675, Note_on_c, 0, 46, 63
1, 75675, Note_on_c, 0, 58, 63
1, 75678, Note_off_c, 0, 45, 43
1, 75742, Note_on_c, 0, 84, 81
1, 75759, Note_off_c, 0, 86, 55
1, 75824, Note_on_c, 0, 82, 79
1, 75830, Note_off_c, 0, 84, 64
1, 75893, Note_off_c, 0, 82, 64
1, 75904, Note_on_c, 0, 81, 76
1, 75958, Note_off_c, 0, 81, 59
1, 75985, Note_off_c, 0, 46, 63
1, 75986, Note_on_c, 0, 79, 76
1, 75988, Control_c, 0, 67, 15
1, 75991, Note_off_c, 0, 58, 63
1, 76018, Control_c, 0, 67, 16
1, 76021, Note_off_c, 0, 79, 64
1, 76040, Control_c, 0, 67, 16
1, 76063, Note_on_c, 0, 77, 79
1, 76099, Control_c, 0, 67, 17
1, 76114, Control_c, 0, 67, 17
1, 76136, Note_off_c, 0, 77, 57
1, 76143, Note_on_c, 0, 76, 71
1, 76144, Control_c, 0, 67, 17
1, 76173, Control_c, 0, 67, 17
1, 76177, Note_off_c, 0, 76, 58
1, 76188, Control_c, 0, 67, 18
1, 76203, Control_c, 0, 67, 19
1, 76213, Note_on_c, 0, 74, 71
1, 76218, Control_c, 0, 67, 22
1, 76233, Control_c, 0, 67, 29
1, 76247, Control_c, 0, 67, 34
1, 76250, Note_off_c, 0, 74, 63
1, 76262, Control_c, 0, 67, 37
1, 76277, Control_c, 0, 67, 38
1, 76292, Control_c, 0, 67, 39
1, 76302, Note_on_c, 0, 72, 77
1, 76307, Control_c, 0, 67, 38
1, 76315, Note_on_c, 0, 48, 49
1, 76322, Control_c, 0, 67, 39
1, 76324, Note_off_c, 0, 72, 72
1, 76337, Control_c, 0, 67, 38
1, 76348, Note_off_c, 0, 48, 66
1, 76352, Control_c, 0, 67, 37
1, 76381, Control_c, 0, 67, 37
1, 76384, Note_on_c, 0, 57, 52
1, 76410, Control_c, 0, 67, 36
1, 76439, Note_off_c, 0, 57, 51
1, 76440, Control_c, 0, 67, 36
1, 76455, Control_c, 0, 67, 37
1, 76461, Note_on_c, 0, 84, 77
1, 76470, Control_c, 0, 67, 37
1, 76481, Note_on_c, 0, 53, 45
1, 76484, Control_c, 0, 67, 38
1, 76486, Note_off_c, 0, 84, 67
1, 76525, Note_off_c, 0, 53, 65
1, 76557, Note_on_c, 0, 57, 61
1, 76600, Note_off_c, 0, 57, 56
1, 76632, Note_on_c, 0, 84, 85
1, 76648, Control_c, 0, 67, 37
1, 76650, Note_on_c, 0, 48, 58
1, 76660, Note_off_c, 0, 84, 63
1, 76663, Control_c, 0, 67, 37
1, 76686, Note_off_c, 0, 48, 62
1, 76710, Note_on_c, 0, 57, 67
1, 76757, Note_off_c, 0, 57, 53
1, 76767, Control_c, 0, 67, 37
1, 76789, Control_c, 0, 67, 38
1, 76800, Note_on_c, 0, 84, 87
1, 76809, Note_on_c, 0, 53, 62
1, 76832, Note_off_c, 0, 84, 64
1, 76833, Control_c, 0, 67, 38
1, 76846, Note_off_c, 0, 53, 66
1, 76848, Control_c, 0, 67, 37
1, 76872, Note_on_c, 0, 57, 67
1, 76878, Control_c, 0, 67, 37
1, 76893, Control_c, 0, 67, 36
1, 76907, Control_c, 0, 67, 35
1, 76922, Note_off_c, 0, 57, 55
1, 76922, Control_c, 0, 67, 34
1, 76937, Control_c, 0, 67, 33
1, 76957, Note_on_c, 0, 84, 90
1, 76967, Control_c, 0, 67, 34
1, 76969, Note_on_c, 0, 48, 66
1, 76981, Control_c, 0, 67, 35
1, 77014, Note_off_c, 0, 48, 63
1, 77029, Note_on_c, 0, 57, 66
1, 77034, Note_off_c, 0, 84, 51
1, 77039, Note_on_c, 0, 81, 83
1, 77082, Note_off_c, 0, 57, 55
1, 77100, Control_c, 0, 67, 36
1, 77108, Note_on_c, 0, 77, 86
1, 77111, Note_off_c, 0, 81, 60
1, 77124, Note_on_c, 0, 53, 57
1, 77145, Control_c, 0, 67, 36
1, 77159, Control_c, 0, 67, 37
1, 77165, Note_off_c, 0, 77, 61
1, 77172, Note_off_c, 0, 53, 64
1, 77189, Note_on_c, 0, 72, 81
1, 77196, Note_on_c, 0, 57, 63
1, 77219, Control_c, 0, 67, 37
1, 77223, Note_off_c, 0, 72, 66
1, 77247, Note_off_c, 0, 57, 54
1, 77262, Note_on_c, 0, 77, 92
1, 77278, Control_c, 0, 67, 38
1, 77285, Note_on_c, 0, 48, 63
1, 77322, Control_c, 0, 67, 38
1, 77333, Note_on_c, 0, 72, 83
1, 77336, Note_off_c, 0, 77, 61
1, 77337, Note_off_c, 0, 48, 60
1, 77337, Control_c, 0, 67, 37
1, 77354, Note_on_c, 0, 57, 64
1, 77383, Control_c, 0, 67, 38
1, 77392, Note_off_c, 0, 57, 61
1, 77396, Control_c, 0, 67, 38
1, 77405, Note_on_c, 0, 69, 82
1, 77407, Note_off_c, 0, 72, 63
1, 77431, Note_on_c, 0, 53, 58
1, 77441, Control_c, 0, 67, 39
1, 77452, Note_off_c, 0, 69, 64
1, 77466, Note_off_c, 0, 53, 66
1, 77470, Control_c, 0, 67, 38
1, 77475, Note_on_c, 0, 65, 81
1, 77491, Note_on_c, 0, 57, 67
1, 77500, Control_c, 0, 67, 38
1, 77515, Control_c, 0, 67, 37
1, 77518, Note_off_c, 0, 65, 64
1, 77529, Note_off_c, 0, 57, 64
1, 77552, Control_c, 0, 67, 37
1, 77567, Control_c, 0, 67, 36
1, 77568, Note_on_c, 0, 69, 90
1, 77580, Note_on_c, 0, 48, 68
1, 77581, Control_c, 0, 67, 35
1, 77596, Control_c, 0, 67, 35
1, 77611, Control_c, 0, 67, 34
1, 77613, Note_off_c, 0, 69, 63
1, 77620, Note_on_c, 0, 67, 77
1, 77626, Control_c, 0, 67, 34
1, 77644, Note_off_c, 0, 48, 50
1, 77652, Note_on_c, 0, 58, 67
1, 77656, Control_c, 0, 67, 34
1, 77682, Note_off_c, 0, 67, 62
1, 77686, Control_c, 0, 67, 35
1, 77687, Note_on_c, 0, 69, 78
1, 77699, Note_off_c, 0, 58, 55
1, 77726, Note_on_c, 0, 52, 66
1, 77736, Note_off_c, 0, 69, 63
1, 77745, Control_c, 0, 67, 35
1, 77752, Note_on_c, 0, 67, 77
1, 77774, Note_off_c, 0, 52, 66
1, 77775, Control_c, 0, 67, 36
1, 77804, Note_on_c, 0, 58, 66
1, 77807, Note_off_c, 0, 67, 60
1, 77818, Note_on_c, 0, 69, 70
1, 77847, Note_off_c, 0, 69, 66
1, 77848, Note_off_c, 0, 58, 56
1, 77849, Control_c, 0, 67, 35
1, 77863, Control_c, 0, 67, 35
1, 77870, Note_on_c, 0, 67, 70
1, 77878, Control_c, 0, 67, 34
1, 77892, Note_on_c, 0, 48, 67
1, 77893, Control_c, 0, 67, 34
1, 77908, Control_c, 0, 67, 34
1, 77923, Control_c, 0, 67, 35
1, 77925, Note_off_c, 0, 67, 61
1, 77930, Note_on_c, 0, 69, 74
1, 77938, Control_c, 0, 67, 35
1, 77938, Note_off_c, 0, 48, 62
1, 77953, Control_c, 0, 67, 36
1, 77961, Note_off_c, 0, 69, 62
1, 77963, Note_on_c, 0, 58, 65
1, 77984, Note_on_c, 0, 67, 69
1, 78012, Control_c, 0, 67, 36
1, 78015, Note_off_c, 0, 58, 59
1, 78042, Control_c, 0, 67, 37
1, 78043, Note_on_c, 0, 52, 54
1, 78045, Note_off_c, 0, 67, 62
1, 78051, Note_on_c, 0, 69, 71
1, 78056, Control_c, 0, 67, 37
1, 78071, Control_c, 0, 67, 38
1, 78081, Note_off_c, 0, 52, 68
1, 78084, Note_off_c, 0, 69, 64
1, 78086, Control_c, 0, 67, 39
1, 78101, Control_c, 0, 67, 39
1, 78104, Note_on_c, 0, 67, 63
1, 78122, Note_on_c, 0, 58, 61
1, 78130, Control_c, 0, 67, 39
1, 78145, Control_c, 0, 67, 38
1, 78153, Note_off_c, 0, 67, 62
1, 78157, Note_off_c, 0, 58, 65
1, 78161, Control_c, 0, 67, 38
1, 78167, Note_on_c, 0, 69, 72
1, 78176, Control_c, 0, 67, 37
1, 78191, Control_c, 0, 67, 37
1, 78200, Note_on_c, 0, 48, 66
1, 78203, Note_off_c, 0, 69, 59
1, 78205, Control_c, 0, 67, 38
1, 78220, Control_c, 0, 67, 37
1, 78225, Note_on_c, 0, 67, 72
1, 78235, Note_off_c, 0, 48, 63
1, 78250, Control_c, 0, 67, 37
1, 78266, Note_on_c, 0, 58, 58
1, 78288, Note_off_c, 0, 67, 62
1, 78297, Note_on_c, 0, 69, 67
1, 78301, Control_c, 0, 67, 37
1, 78314, Note_off_c, 0, 58, 64
1, 78328, Note_off_c, 0, 69, 67
1, 78331, Control_c, 0, 67, 38
1, 78346, Control_c, 0, 67, 38
1, 78347, Note_on_c, 0, 67, 64
1, 78352, Note_on_c, 0, 52, 51
1, 78361, Control_c, 0, 67, 39
1, 78389, Note_off_c, 0, 52, 65
1, 78398, Note_off_c, 0, 67, 63
1, 78405, Control_c, 0, 67, 38
1, 78409, Note_on_c, 0, 69, 68
1, 78424, Note_on_c, 0, 58, 60
1, 78441, Note_off_c, 0, 69, 66
1, 78450, Control_c, 0, 67, 37
1, 78460, Note_on_c, 0, 67, 67
1, 78462, Note_off_c, 0, 58, 63
1, 78479, Control_c, 0, 67, 37
1, 78499, Note_on_c, 0, 48, 54
1, 78509, Note_off_c, 0, 67, 64
1, 78509, Control_c, 0, 67, 36
1, 78516, Note_on_c, 0, 69, 70
1, 78524, Control_c, 0, 67, 36
1, 78538, Note_off_c, 0, 48, 62
1, 78557, Note_off_c, 0, 69, 58
1, 78558, Note_on_c, 0, 58, 60
1, 78568, Control_c, 0, 67, 35
1, 78569, Note_on_c, 0, 67, 72
1, 78597, Note_off_c, 0, 58, 63
1, 78598, Control_c, 0, 67, 35
1, 78627, Note_off_c, 0, 67, 62
1, 78639, Note_on_c, 0, 52, 47
1, 78655, Note_on_c, 0, 65, 71
1, 78657, Control_c, 0, 67, 34
1, 78671, Note_off_c, 0, 52, 67
1, 78686, Control_c, 0, 67, 34
1, 78696, Note_off_c, 0, 65, 61
1, 78716, Note_on_c, 0, 67, 62
1, 78722, Note_on_c, 0, 58, 35
1, 78747, Note_off_c, 0, 58, 50
1, 78760, Control_c, 0, 67, 33
1, 78805, Note_off_c, 0, 67, 57
1, 78846, Note_on_c, 0, 65, 44
1, 78865, Note_on_c, 0, 53, 45
1, 78879, Control_c, 0, 67, 33
1, 78909, Control_c, 0, 67, 32
1, 78939, Control_c, 0, 64, 58
1, 78954, Control_c, 0, 64, 64
1, 78966, Note_off_c, 0, 65, 61
1, 78967, Note_off_c, 0, 53, 56
1, 78969, Control_c, 0, 64, 66
1, 78969, Control_c, 0, 67, 32
1, 78984, Control_c, 0, 64, 67
1, 78999, Control_c, 0, 64, 69
1, 78999, Control_c, 0, 67, 31
1, 79014, Control_c, 0, 64, 71
1, 79032, Note_on_c, 0, 77, 58
1, 79035, Note_on_c, 0, 65, 40
1, 79035, Control_c, 0, 64, 72
1, 79035, Control_c, 0, 67, 31
1, 79050, Control_c, 0, 64, 73
1, 79050, Control_c, 0, 67, 30
1, 79074, Note_off_c, 0, 77, 59
1, 79080, Control_c, 0, 67, 31
1, 79095, Control_c, 0, 67, 31
1, 79109, Control_c, 0, 67, 32
1, 79139, Control_c, 0, 67, 33
1, 79154, Control_c, 0, 64, 72
1, 79154, Control_c, 0, 67, 34
1, 79169, Control_c, 0, 64, 71
1, 79169, Control_c, 0, 67, 35
1, 79184, Control_c, 0, 64, 70
1, 79184, Control_c, 0, 67, 35
1, 79196, Note_off_c, 0, 65, 36
1, 79199, Control_c, 0, 64, 68
1, 79199, Control_c, 0, 67, 36
1, 79201, Note_on_c, 0, 64, 51
1, 79213, Control_c, 0, 64, 63
1, 79213, Control_c, 0, 67, 36
1, 79228, Control_c, 0, 64, 50
1, 79243, Control_c, 0, 64, 19
1, 79243, Control_c, 0, 67, 37
1, 79258, Control_c, 0, 64, 0
1, 79342, Note_off_c, 0, 64, 55
1, 79360, Note_on_c, 0, 77, 59
1, 79364, Note_on_c, 0, 65, 41
1, 79376, Control_c, 0, 67, 37
1, 79420, Control_c, 0, 67, 38
1, 79435, Control_c, 0, 67, 39
1, 79450, Control_c, 0, 67, 40
1, 79465, Control_c, 0, 67, 41
1, 79480, Control_c, 0, 67, 47
1, 79494, Control_c, 0, 67, 57
1, 79509, Control_c, 0, 67, 65
1, 79524, Control_c, 0, 67, 70
1, 79539, Control_c, 0, 67, 72
1, 79542, Note_off_c, 0, 77, 59
1, 79543, Note_on_c, 0, 76, 65
1, 79547, Note_off_c, 0, 65, 53
1, 79548, Note_on_c, 0, 67, 47
1, 79553, Control_c, 0, 67, 71
1, 79568, Control_c, 0, 67, 70
1, 79583, Control_c, 0, 67, 69
1, 79613, Control_c, 0, 67, 68
1, 79642, Control_c, 0, 67, 68
1, 79657, Control_c, 0, 67, 67
1, 79672, Control_c, 0, 67, 65
1, 79714, Note_on_c, 0, 77, 75
1, 79729, Note_on_c, 0, 65, 51
1, 79744, Note_off_c, 0, 67, 47
1, 79747, Control_c, 0, 67, 65
1, 79749, Note_off_c, 0, 76, 60
1, 79762, Control_c, 0, 67, 64
1, 79784, Control_c, 0, 67, 64
1, 79799, Control_c, 0, 67, 63
1, 79828, Control_c, 0, 67, 62
1, 79857, Control_c, 0, 67, 61
1, 79872, Control_c, 0, 67, 60
1, 79887, Control_c, 0, 67, 60
1, 79899, Note_on_c, 0, 79, 81
1, 79902, Control_c, 0, 67, 58
1, 79909, Note_on_c, 0, 64, 54
1, 79912, Note_off_c, 0, 65, 64
1, 79917, Control_c, 0, 67, 57
1, 79930, Note_off_c, 0, 77, 61
1, 79932, Control_c, 0, 67, 55
1, 79947, Control_c, 0, 67, 53
1, 79962, Control_c, 0, 67, 51
1, 79976, Control_c, 0, 67, 48
1, 79991, Control_c, 0, 64, 52
1, 79991, Control_c, 0, 67, 44
1, 80006, Control_c, 0, 64, 64
1, 80006, Control_c, 0, 67, 41
1, 80021, Control_c, 0, 64, 67
1, 80021, Control_c, 0, 67, 41
1, 80036, Control_c, 0, 64, 70
1, 80043, Note_off_c, 0, 64, 65
1, 80050, Control_c, 0, 64, 73
1, 80055, Note_on_c, 0, 81, 85
1, 80056, Note_off_c, 0, 79, 63
1, 80065, Control_c, 0, 64, 75
1, 80067, Note_on_c, 0, 63, 62
1, 80080, Control_c, 0, 64, 77
1, 80095, Control_c, 0, 67, 42
1, 80110, Control_c, 0, 64, 78
1, 80124, Control_c, 0, 67, 43
1, 80169, Control_c, 0, 64, 77
1, 80183, Control_c, 0, 64, 77
1, 80191, Note_off_c, 0, 81, 54
1, 80197, Note_off_c, 0, 63, 63
1, 80198, Control_c, 0, 64, 76
1, 80213, Control_c, 0, 64, 74
1, 80225, Note_on_c, 0, 82, 77
1, 80228, Control_c, 0, 64, 70
1, 80232, Note_on_c, 0, 62, 65
1, 80242, Control_c, 0, 64, 64
1, 80257, Control_c, 0, 64, 22
1, 80257, Control_c, 0, 67, 42
1, 80272, Control_c, 0, 64, 0
1, 80272, Control_c, 0, 67, 42
1, 80297, Note_off_c, 0, 82, 65
1, 80317, Note_on_c, 0, 84, 75
1, 80376, Control_c, 0, 67, 42
1, 80379, Note_off_c, 0, 84, 65
1, 80385, Note_on_c, 0, 53, 51
1, 80385, Note_off_c, 0, 62, 41
1, 80388, Note_on_c, 0, 86, 70
1, 80391, Control_c, 0, 67, 43
1, 80421, Control_c, 0, 67, 44
1, 80423, Note_off_c, 0, 53, 66
1, 80450, Control_c, 0, 67, 44
1, 80474, Note_on_c, 0, 84, 73
1, 80480, Control_c, 0, 67, 45
1, 80495, Control_c, 0, 67, 45
1, 80510, Note_off_c, 0, 86, 39
1, 80510, Control_c, 0, 67, 46
1, 80531, Control_c, 0, 67, 46
1, 80558, Note_off_c, 0, 84, 62
1, 80562, Control_c, 0, 67, 47
1, 80564, Note_on_c, 0, 82, 70
1, 80569, Note_on_c, 0, 61, 54
1, 80592, Control_c, 0, 67, 47
1, 80606, Control_c, 0, 67, 47
1, 80621, Control_c, 0, 67, 46
1, 80635, Note_off_c, 0, 82, 63
1, 80639, Note_on_c, 0, 80, 72
1, 80666, Control_c, 0, 67, 46
1, 80680, Control_c, 0, 67, 45
1, 80695, Control_c, 0, 67, 44
1, 80701, Note_off_c, 0, 80, 62
1, 80722, Note_off_c, 0, 61, 61
1, 80725, Control_c, 0, 67, 44
1, 80728, Note_on_c, 0, 79, 66
1, 80737, Note_on_c, 0, 53, 43
1, 80740, Control_c, 0, 67, 43
1, 80755, Control_c, 0, 67, 42
1, 80759, Note_off_c, 0, 79, 62
1, 80763, Note_off_c, 0, 53, 59
1, 80770, Control_c, 0, 67, 42
1, 80796, Note_on_c, 0, 77, 71
1, 80829, Control_c, 0, 67, 42
1, 80850, Note_off_c, 0, 77, 55
1, 80886, Note_on_c, 0, 76, 72
1, 80888, Control_c, 0, 67, 43
1, 80903, Note_on_c, 0, 60, 48
1, 80930, Note_off_c, 0, 76, 62
1, 80947, Control_c, 0, 67, 43
1, 80962, Control_c, 0, 67, 44
1, 80966, Note_on_c, 0, 77, 69
1, 81023, Note_off_c, 0, 77, 55
1, 81031, Note_off_c, 0, 60, 57
1, 81041, Note_on_c, 0, 79, 71
1, 81066, Note_on_c, 0, 53, 41
1, 81080, Note_off_c, 0, 79, 53
1, 81080, Control_c, 0, 67, 44
1, 81095, Control_c, 0, 67, 45
1, 81102, Note_off_c, 0, 53, 52
1, 81110, Control_c, 0, 67, 45
1, 81130, Note_on_c, 0, 77, 62
1, 81140, Control_c, 0, 67, 46
1, 81155, Note_off_c, 0, 77, 58
1, 81185, Control_c, 0, 67, 47
1, 81196, Note_on_c, 0, 76, 68
1, 81221, Note_on_c, 0, 64, 45
1, 81236, Note_off_c, 0, 76, 57
1, 81259, Control_c, 0, 67, 46
1, 81291, Note_on_c, 0, 74, 67
1, 81296, Control_c, 0, 67, 46
1, 81311, Control_c, 0, 67, 45
1, 81319, Note_off_c, 0, 64, 52
1, 81339, Note_off_c, 0, 74, 60
1, 81340, Control_c, 0, 67, 45
1, 81357, Control_c, 0, 67, 44
1, 81372, Note_on_c, 0, 72, 68
1, 81372, Note_on_c, 0, 53, 37
1, 81386, Control_c, 0, 67, 44
1, 81401, Control_c, 0, 67, 43
1, 81415, Note_off_c, 0, 72, 60
1, 81430, Control_c, 0, 67, 43
1, 81445, Control_c, 0, 67, 43
1, 81446, Note_on_c, 0, 70, 68
1, 81475, Control_c, 0, 67, 44
1, 81479, Note_off_c, 0, 70, 63
1, 81497, Note_off_c, 0, 53, 28
1, 81519, Control_c, 0, 67, 44
1, 81539, Note_on_c, 0, 69, 63
1, 81542, Note_on_c, 0, 65, 43
1, 81568, Note_off_c, 0, 69, 67
1, 81608, Control_c, 0, 67, 45
1, 81637, Control_c, 0, 67, 45
1, 81681, Note_off_c, 0, 65, 50
1, 81707, Note_on_c, 0, 69, 60
1, 81711, Note_on_c, 0, 53, 49
1, 81711, Control_c, 0, 67, 46
1, 81726, Control_c, 0, 67, 46
1, 81845, Control_c, 0, 67, 47
1, 81860, Control_c, 0, 67, 47
1, 81885, Note_off_c, 0, 53, 62
1, 81888, Note_on_c, 0, 52, 57
1, 81890, Control_c, 0, 67, 48
1, 81893, Note_off_c, 0, 69, 64
1, 82008, Control_c, 0, 67, 48
1, 82030, Control_c, 0, 67, 49
1, 82059, Note_off_c, 0, 52, 60
1, 82060, Control_c, 0, 67, 49
1, 82066, Note_on_c, 0, 65, 68
1, 82090, Note_on_c, 0, 53, 42
1, 82119, Control_c, 0, 67, 50
1, 82253, Note_off_c, 0, 53, 61
1, 82264, Note_on_c, 0, 64, 66
1, 82275, Note_on_c, 0, 55, 43
1, 82286, Note_off_c, 0, 65, 59
1, 82342, Control_c, 0, 67, 49
1, 82445, Control_c, 0, 67, 50
1, 82448, Note_on_c, 0, 65, 70
1, 82469, Note_on_c, 0, 53, 50
1, 82483, Note_off_c, 0, 64, 63
1, 82492, Note_off_c, 0, 55, 37
1, 82564, Control_c, 0, 67, 50
1, 82594, Control_c, 0, 67, 51
1, 82615, Note_off_c, 0, 65, 65
1, 82624, Control_c, 0, 67, 51
1, 82628, Note_on_c, 0, 67, 75
1, 82630, Note_off_c, 0, 53, 63
1, 82639, Control_c, 0, 67, 52
1, 82646, Note_on_c, 0, 52, 45
1, 82653, Control_c, 0, 67, 53
1, 82668, Control_c, 0, 67, 55
1, 82683, Control_c, 0, 67, 59
1, 82698, Control_c, 0, 67, 64
1, 82713, Control_c, 0, 67, 68
1, 82727, Control_c, 0, 67, 73
1, 82742, Control_c, 0, 67, 78
1, 82757, Control_c, 0, 67, 82
1, 82779, Control_c, 0, 67, 84
1, 82782, Note_off_c, 0, 52, 58
1, 82792, Note_off_c, 0, 67, 57
1, 82802, Note_on_c, 0, 69, 68
1, 82817, Note_on_c, 0, 51, 47
1, 82838, Control_c, 0, 67, 84
1, 82883, Control_c, 0, 67, 83
1, 82898, Control_c, 0, 67, 83
1, 82913, Control_c, 0, 67, 82
1, 82942, Control_c, 0, 67, 82
1, 82957, Control_c, 0, 67, 81
1, 82964, Note_off_c, 0, 51, 54
1, 82972, Control_c, 0, 67, 81
1, 82973, Note_off_c, 0, 69, 64
1, 82983, Note_on_c, 0, 70, 68
1, 82987, Control_c, 0, 67, 80
1, 83001, Note_on_c, 0, 50, 43
1, 83017, Control_c, 0, 67, 80
1, 83100, Note_off_c, 0, 70, 56
1, 83121, Control_c, 0, 67, 80
1, 83141, Note_on_c, 0, 72, 56
1, 83150, Control_c, 0, 67, 81
1, 83165, Control_c, 0, 67, 81
1, 83167, Note_off_c, 0, 72, 59
1, 83193, Note_on_c, 0, 70, 65
1, 83209, Control_c, 0, 67, 82
1, 83220, Note_off_c, 0, 70, 66
1, 83224, Control_c, 0, 67, 82
1, 83231, Note_on_c, 0, 69, 68
1, 83239, Control_c, 0, 67, 83
1, 83254, Control_c, 0, 67, 83
1, 83278, Note_off_c, 0, 69, 63
1, 83282, Note_on_c, 0, 70, 71
1, 83323, Note_off_c, 0, 70, 65
1, 83332, Note_on_c, 0, 72, 68
1, 83336, Note_off_c, 0, 50, 41
1, 83353, Note_on_c, 0, 46, 42
1, 83431, Control_c, 0, 67, 83
1, 83505, Control_c, 0, 67, 83
1, 83506, Note_off_c, 0, 72, 60
1, 83507, Note_on_c, 0, 74, 63
1, 83542, Note_off_c, 0, 74, 67
1, 83717, Note_on_c, 0, 70, 54
1, 83726, Note_off_c, 0, 46, 40
1, 83727, Note_on_c, 0, 74, 56
1, 83733, Note_on_c, 0, 48, 35
1, 83734, Control_c, 0, 67, 83
1, 83750, Control_c, 0, 67, 82
1, 83780, Control_c, 0, 67, 82
1, 83795, Control_c, 0, 67, 81
1, 83867, Note_off_c, 0, 48, 56
1, 83875, Note_off_c, 0, 74, 54
1, 83895, Note_off_c, 0, 70, 59
1, 83898, Control_c, 0, 67, 81
1, 83908, Note_on_c, 0, 72, 57
1, 83915, Note_on_c, 0, 69, 48
1, 83949, Note_off_c, 0, 72, 65
1, 83955, Note_off_c, 0, 69, 67
1, 84016, Control_c, 0, 67, 81
1, 84046, Control_c, 0, 67, 82
1, 84106, Note_on_c, 0, 48, 43
1, 84120, Control_c, 0, 67, 81
1, 84165, Control_c, 0, 67, 81
1, 84210, Control_c, 0, 67, 80
1, 84257, Note_off_c, 0, 48, 57
1, 84271, Note_on_c, 0, 64, 52
1, 84287, Note_on_c, 0, 58, 49
1, 84311, Note_off_c, 0, 58, 61
1, 84380, Control_c, 0, 67, 81
1, 84395, Control_c, 0, 67, 81
1, 84454, Control_c, 0, 67, 82
1, 84520, Note_on_c, 0, 67, 59
1, 84528, Control_c, 0, 67, 82
1, 84531, Note_off_c, 0, 64, 51
1, 84532, Note_on_c, 0, 58, 47
1, 84544, Note_on_c, 0, 53, 30
1, 84618, Control_c, 0, 67, 83
1, 84648, Control_c, 0, 67, 83
1, 84651, Note_off_c, 0, 53, 56
1, 84826, Control_c, 0, 67, 83
1, 84840, Control_c, 0, 67, 82
1, 84855, Control_c, 0, 67, 81
1, 84929, Control_c, 0, 67, 82
1, 84943, Note_on_c, 0, 48, 45
1, 84944, Control_c, 0, 67, 82
1, 85034, Note_off_c, 0, 48, 63
1, 85041, Control_c, 0, 67, 83
1, 85055, Control_c, 0, 67, 83
1, 85218, Control_c, 0, 67, 83
1, 85233, Control_c, 0, 67, 82
1, 85414, Note_off_c, 0, 67, 30
1, 85416, Note_on_c, 0, 57, 22
1, 85424, Note_on_c, 0, 65, 30
1, 85427, Note_off_c, 0, 58, 41
1, 85447, Note_on_c, 0, 41, 22
1, 85560, Control_c, 0, 67, 82
1, 85708, Control_c, 0, 64, 42
1, 85723, Control_c, 0, 64, 63
1, 85723, Control_c, 0, 67, 82
1, 85737, Control_c, 0, 64, 66
1, 85752, Control_c, 0, 64, 69
1, 85769, Note_off_c, 0, 57, 57
1, 85774, Control_c, 0, 64, 72
1, 85789, Control_c, 0, 64, 74
1, 85804, Control_c, 0, 64, 76
1, 85819, Control_c, 0, 64, 76
1, 85822, Note_off_c, 0, 65, 57
1, 85869, Note_off_c, 0, 41, 41
1, 85893, Control_c, 0, 64, 75
1, 85908, Control_c, 0, 64, 73
1, 85922, Control_c, 0, 64, 70
1, 85922, Control_c, 0, 67, 82
1, 85937, Control_c, 0, 64, 68
1, 85937, Control_c, 0, 67, 81
1, 85952, Control_c, 0, 64, 68
1, 85967, Control_c, 0, 67, 81
1, 86041, Control_c, 0, 64, 67
1, 86056, Control_c, 0, 64, 67
1, 86070, Control_c, 0, 64, 66
1, 86085, Control_c, 0, 64, 64
1, 86089, Note_on_c, 0, 74, 47
1, 86100, Control_c, 0, 64, 62
1, 86114, Control_c, 0, 64, 59
1, 86129, Control_c, 0, 64, 57
1, 86129, Control_c, 0, 67, 80
1, 86146, Control_c, 0, 64, 52
1, 86148, Note_off_c, 0, 74, 58
1, 86161, Control_c, 0, 64, 31
1, 86172, Note_on_c, 0, 72, 50
1, 86175, Control_c, 0, 64, 0
1, 86218, Note_off_c, 0, 72, 45
1, 86219, Control_c, 0, 67, 81
1, 86248, Note_on_c, 0, 70, 59
1, 86314, Note_off_c, 0, 70, 52
1, 86321, Note_on_c, 0, 69, 65
1, 86420, Note_off_c, 0, 69, 64
1, 86436, Note_on_c, 0, 67, 55
1, 86442, Control_c, 0, 67, 80
1, 86538, Control_c, 0, 67, 81
1, 86567, Control_c, 0, 67, 81
1, 86582, Note_off_c, 0, 67, 57
1, 86614, Note_on_c, 0, 65, 53
1, 86646, Note_on_c, 0, 41, 22
1, 86664, Note_off_c, 0, 65, 62
1, 86701, Control_c, 0, 67, 82
1, 86805, Control_c, 0, 67, 81
1, 86811, Note_on_c, 0, 65, 45
1, 86812, Note_off_c, 0, 41, 43
1, 86819, Note_on_c, 0, 45, 35
1, 86864, Control_c, 0, 67, 81
1, 86893, Control_c, 0, 67, 80
1, 86923, Control_c, 0, 67, 80
1, 86954, Control_c, 0, 67, 79
1, 86961, Note_off_c, 0, 45, 53
1, 86968, Control_c, 0, 64, 24
1, 86983, Control_c, 0, 64, 62
1, 86983, Control_c, 0, 67, 79
1, 86988, Note_on_c, 0, 48, 36
1, 86998, Control_c, 0, 64, 67
1, 87013, Control_c, 0, 64, 70
1, 87028, Note_off_c, 0, 65, 66
1, 87028, Control_c, 0, 64, 74
1, 87042, Control_c, 0, 64, 77
1, 87057, Control_c, 0, 64, 81
1, 87072, Control_c, 0, 64, 82
1, 87072, Control_c, 0, 67, 79
1, 87087, Control_c, 0, 64, 83
1, 87143, Note_on_c, 0, 45, 45
1, 87158, Note_off_c, 0, 48, 44
1, 87161, Control_c, 0, 67, 79
1, 87205, Control_c, 0, 67, 78
1, 87220, Control_c, 0, 67, 78
1, 87235, Control_c, 0, 64, 83
1, 87272, Control_c, 0, 64, 82
1, 87272, Control_c, 0, 67, 77
1, 87287, Control_c, 0, 64, 82
1, 87287, Control_c, 0, 67, 76
1, 87302, Control_c, 0, 64, 81
1, 87316, Note_on_c, 0, 77, 72
1, 87316, Control_c, 0, 64, 79
1, 87316, Control_c, 0, 67, 76
1, 87319, Note_off_c, 0, 45, 49
1, 87331, Control_c, 0, 64, 77
1, 87331, Control_c, 0, 67, 75
1, 87341, Note_on_c, 0, 41, 45
1, 87346, Control_c, 0, 64, 74
1, 87361, Control_c, 0, 64, 71
1, 87375, Control_c, 0, 64, 67
1, 87390, Control_c, 0, 64, 58
1, 87405, Control_c, 0, 64, 18
1, 87405, Control_c, 0, 67, 75
1, 87420, Control_c, 0, 64, 22
1, 87435, Control_c, 0, 64, 48
1, 87435, Control_c, 0, 67, 74
1, 87450, Control_c, 0, 64, 56
1, 87465, Control_c, 0, 64, 61
1, 87480, Control_c, 0, 64, 65
1, 87491, Note_on_c, 0, 79, 78
1, 87494, Control_c, 0, 64, 70
1, 87505, Note_on_c, 0, 45, 47
1, 87509, Control_c, 0, 64, 76
1, 87513, Note_off_c, 0, 41, 40
1, 87524, Control_c, 0, 64, 81
1, 87524, Control_c, 0, 67, 74
1, 87530, Note_off_c, 0, 77, 59
1, 87539, Control_c, 0, 64, 83
1, 87554, Control_c, 0, 64, 84
1, 87554, Control_c, 0, 67, 73
1, 87568, Control_c, 0, 64, 85
1, 87568, Control_c, 0, 67, 73
1, 87583, Control_c, 0, 64, 85
1, 87598, Control_c, 0, 64, 86
1, 87598, Control_c, 0, 67, 72
1, 87628, Control_c, 0, 67, 73
1, 87657, Control_c, 0, 67, 73
1, 87667, Note_on_c, 0, 81, 86
1, 87667, Note_off_c, 0, 45, 62
1, 87671, Note_off_c, 0, 79, 63
1, 87684, Note_on_c, 0, 48, 45
1, 87686, Control_c, 0, 67, 73
1, 87712, Note_off_c, 0, 48, 53
1, 87747, Control_c, 0, 64, 85
1, 87765, Note_on_c, 0, 76, 74
1, 87777, Control_c, 0, 64, 85
1, 87777, Control_c, 0, 67, 73
1, 87783, Note_off_c, 0, 81, 55
1, 87791, Control_c, 0, 64, 84
1, 87806, Control_c, 0, 64, 84
1, 87821, Control_c, 0, 64, 83
1, 87836, Control_c, 0, 64, 82
1, 87851, Control_c, 0, 64, 81
1, 87865, Note_on_c, 0, 82, 84
1, 87865, Control_c, 0, 64, 80
1, 87880, Control_c, 0, 64, 80
1, 87888, Note_off_c, 0, 76, 60
1, 87895, Control_c, 0, 64, 79
1, 87895, Control_c, 0, 67, 73
1, 87910, Control_c, 0, 64, 77
1, 87925, Control_c, 0, 64, 75
1, 87939, Control_c, 0, 64, 73
1, 87954, Control_c, 0, 64, 70
1, 87969, Control_c, 0, 64, 64
1, 87969, Control_c, 0, 67, 72
1, 87983, Control_c, 0, 64, 43
1, 87983, Control_c, 0, 67, 72
1, 87998, Control_c, 0, 64, 0
1, 88021, Control_c, 0, 67, 71
1, 88036, Control_c, 0, 67, 71
1, 88051, Control_c, 0, 67, 69
1, 88053, Note_on_c, 0, 55, 34
1, 88065, Control_c, 0, 67, 65
1, 88080, Control_c, 0, 67, 61
1, 88095, Control_c, 0, 67, 56
1, 88110, Control_c, 0, 67, 50
1, 88125, Control_c, 0, 67, 44
1, 88139, Control_c, 0, 67, 39
1, 88146, Note_on_c, 0, 79, 65
1, 88147, Note_off_c, 0, 82, 62
1, 88154, Control_c, 0, 67, 35
1, 88169, Control_c, 0, 67, 32
1, 88184, Control_c, 0, 67, 31
1, 88198, Control_c, 0, 67, 32
1, 88213, Note_off_c, 0, 79, 62
1, 88228, Control_c, 0, 67, 33
1, 88234, Note_on_c, 0, 76, 59
1, 88245, Note_off_c, 0, 55, 41
1, 88249, Note_on_c, 0, 58, 39
1, 88272, Control_c, 0, 67, 34
1, 88287, Control_c, 0, 67, 35
1, 88302, Control_c, 0, 64, 13
1, 88302, Control_c, 0, 67, 36
1, 88317, Control_c, 0, 64, 40
1, 88317, Control_c, 0, 67, 37
1, 88332, Control_c, 0, 64, 54
1, 88332, Control_c, 0, 67, 38
1, 88347, Control_c, 0, 64, 62
1, 88347, Control_c, 0, 67, 39
1, 88362, Control_c, 0, 64, 65
1, 88362, Control_c, 0, 67, 39
1, 88377, Control_c, 0, 64, 70
1, 88377, Control_c, 0, 67, 40
1, 88383, Note_off_c, 0, 58, 58
1, 88391, Control_c, 0, 64, 74
1, 88391, Control_c, 0, 67, 42
1, 88406, Control_c, 0, 64, 79
1, 88406, Control_c, 0, 67, 43
1, 88416, Note_on_c, 0, 64, 43
1, 88421, Control_c, 0, 64, 81
1, 88421, Control_c, 0, 67, 44
1, 88422, Note_off_c, 0, 76, 63
1, 88436, Control_c, 0, 64, 83
1, 88436, Control_c, 0, 67, 48
1, 88451, Control_c, 0, 64, 84
1, 88451, Control_c, 0, 67, 51
1, 88465, Control_c, 0, 64, 86
1, 88465, Control_c, 0, 67, 54
1, 88480, Control_c, 0, 64, 87
1, 88480, Control_c, 0, 67, 56
1, 88495, Control_c, 0, 64, 87
1, 88495, Control_c, 0, 67, 57
1, 88540, Control_c, 0, 67, 58
1, 88555, Control_c, 0, 67, 58
1, 88568, Note_off_c, 0, 64, 40
1, 88570, Control_c, 0, 67, 61
1, 88574, Note_on_c, 0, 58, 47
1, 88585, Control_c, 0, 67, 65
1, 88600, Control_c, 0, 64, 86
1, 88600, Control_c, 0, 67, 67
1, 88614, Control_c, 0, 64, 85
1, 88629, Control_c, 0, 64, 83
1, 88629, Control_c, 0, 67, 67
1, 88644, Control_c, 0, 64, 81
1, 88644, Control_c, 0, 67, 66
1, 88659, Control_c, 0, 64, 77
1, 88659, Control_c, 0, 67, 65
1, 88674, Control_c, 0, 64, 73
1, 88674, Control_c, 0, 67, 63
1, 88688, Control_c, 0, 64, 68
1, 88688, Control_c, 0, 67, 60
1, 88703, Control_c, 0, 64, 63
1, 88703, Control_c, 0, 67, 58
1, 88718, Control_c, 0, 64, 60
1, 88721, Note_off_c, 0, 58, 59
1, 88732, Control_c, 0, 67, 59
1, 88747, Control_c, 0, 67, 60
1, 88749, Note_on_c, 0, 55, 46
1, 88770, Control_c, 0, 64, 58
1, 88785, Control_c, 0, 64, 54
1, 88800, Control_c, 0, 64, 45
1, 88814, Control_c, 0, 64, 36
1, 88829, Control_c, 0, 64, 31
1, 88844, Control_c, 0, 64, 27
1, 88859, Control_c, 0, 64, 0
1, 88859, Control_c, 0, 67, 60
1, 88886, Note_off_c, 0, 55, 51
1, 88913, Note_on_c, 0, 58, 43
1, 88923, Note_on_c, 0, 72, 54
1, 88947, Control_c, 0, 67, 60
1, 88982, Note_off_c, 0, 72, 61
1, 88986, Note_on_c, 0, 70, 65
1, 89062, Note_off_c, 0, 70, 60
1, 89070, Note_on_c, 0, 69, 62
1, 89076, Note_off_c, 0, 58, 61
1, 89081, Control_c, 0, 67, 60
1, 89103, Note_on_c, 0, 64, 34
1, 89134, Note_off_c, 0, 64, 57
1, 89143, Note_on_c, 0, 67, 69
1, 89145, Note_off_c, 0, 69, 63
1, 89185, Control_c, 0, 67, 59
1, 89240, Note_off_c, 0, 67, 61
1, 89247, Note_on_c, 0, 65, 62
1, 89303, Control_c, 0, 67, 60
1, 89349, Control_c, 0, 67, 60
1, 89411, Note_off_c, 0, 65, 61
1, 89423, Note_on_c, 0, 64, 56
1, 89449, Note_on_c, 0, 43, 33
1, 89484, Note_off_c, 0, 64, 62
1, 89578, Control_c, 0, 67, 61
1, 89627, Note_off_c, 0, 43, 41
1, 89630, Note_on_c, 0, 64, 50
1, 89637, Control_c, 0, 67, 60
1, 89638, Note_on_c, 0, 46, 37
1, 89667, Control_c, 0, 67, 59
1, 89682, Control_c, 0, 67, 59
1, 89697, Control_c, 0, 67, 58
1, 89711, Control_c, 0, 67, 57
1, 89726, Control_c, 0, 67, 56
1, 89741, Control_c, 0, 67, 55
1, 89756, Control_c, 0, 67, 53
1, 89770, Control_c, 0, 67, 49
1, 89782, Note_off_c, 0, 46, 52
1, 89785, Control_c, 0, 67, 44
1, 89790, Note_on_c, 0, 52, 45
1, 89800, Control_c, 0, 64, 58
1, 89800, Control_c, 0, 67, 36
1, 89815, Control_c, 0, 64, 66
1, 89815, Control_c, 0, 67, 26
1, 89830, Control_c, 0, 64, 71
1, 89830, Control_c, 0, 67, 17
1, 89844, Control_c, 0, 64, 75
1, 89844, Control_c, 0, 67, 9
1, 89846, Note_off_c, 0, 64, 64
1, 89859, Control_c, 0, 64, 78
1, 89859, Control_c, 0, 67, 0
1, 89874, Control_c, 0, 64, 80
1, 89889, Control_c, 0, 64, 80
1, 89963, Note_on_c, 0, 46, 52
1, 89975, Note_off_c, 0, 52, 35
1, 90037, Control_c, 0, 64, 80
1, 90067, Control_c, 0, 64, 79
1, 90081, Control_c, 0, 64, 79
1, 90096, Control_c, 0, 64, 78
1, 90111, Control_c, 0, 64, 77
1, 90118, Note_on_c, 0, 79, 76
1, 90126, Control_c, 0, 64, 75
1, 90141, Control_c, 0, 64, 73
1, 90149, Note_on_c, 0, 43, 46
1, 90156, Control_c, 0, 64, 70
1, 90160, Note_off_c, 0, 46, 34
1, 90171, Control_c, 0, 64, 66
1, 90186, Control_c, 0, 64, 57
1, 90201, Control_c, 0, 64, 0
1, 90297, Control_c, 0, 64, 36
1, 90310, Note_on_c, 0, 81, 87
1, 90312, Control_c, 0, 64, 58
1, 90322, Note_on_c, 0, 46, 50
1, 90327, Control_c, 0, 64, 65
1, 90341, Control_c, 0, 64, 69
1, 90344, Note_off_c, 0, 43, 40
1, 90344, Note_off_c, 0, 79, 63
1, 90356, Control_c, 0, 64, 73
1, 90371, Control_c, 0, 64, 77
1, 90386, Control_c, 0, 64, 78
1, 90401, Control_c, 0, 64, 79
1, 90416, Control_c, 0, 64, 79
1, 90484, Note_on_c, 0, 82, 85
1, 90487, Note_off_c, 0, 81, 61
1, 90496, Note_off_c, 0, 46, 61
1, 90505, Note_on_c, 0, 52, 44
1, 90533, Note_off_c, 0, 52, 59
1, 90549, Control_c, 0, 64, 79
1, 90564, Control_c, 0, 64, 78
1, 90568, Note_off_c, 0, 82, 65
1, 90568, Note_on_c, 0, 78, 86
1, 90578, Control_c, 0, 64, 78
1, 90593, Control_c, 0, 64, 77
1, 90608, Control_c, 0, 64, 76
1, 90623, Control_c, 0, 64, 75
1, 90638, Control_c, 0, 64, 74
1, 90653, Control_c, 0, 64, 72
1, 90657, Note_on_c, 0, 84, 82
1, 90667, Control_c, 0, 64, 69
1, 90678, Note_off_c, 0, 78, 61
1, 90682, Control_c, 0, 64, 65
1, 90697, Control_c, 0, 64, 59
1, 90711, Control_c, 0, 64, 52
1, 90726, Control_c, 0, 64, 49
1, 90741, Control_c, 0, 64, 47
1, 90756, Control_c, 0, 64, 43
1, 90771, Control_c, 0, 64, 34
1, 90785, Control_c, 0, 64, 0
1, 90852, Note_on_c, 0, 57, 44
1, 90943, Note_on_c, 0, 81, 75
1, 90946, Note_off_c, 0, 84, 61
1, 90995, Note_off_c, 0, 57, 58
1, 91032, Note_off_c, 0, 81, 59
1, 91038, Note_on_c, 0, 78, 73
1, 91054, Note_on_c, 0, 60, 40
1, 91149, Control_c, 0, 64, 53
1, 91164, Control_c, 0, 64, 64
1, 91179, Control_c, 0, 64, 67
1, 91192, Note_off_c, 0, 60, 60
1, 91194, Control_c, 0, 64, 71
1, 91203, Note_on_c, 0, 63, 56
1, 91208, Control_c, 0, 64, 75
1, 91223, Control_c, 0, 64, 79
1, 91236, Note_off_c, 0, 78, 62
1, 91238, Control_c, 0, 64, 82
1, 91253, Control_c, 0, 64, 83
1, 91268, Control_c, 0, 64, 84
1, 91282, Control_c, 0, 64, 85
1, 91352, Note_off_c, 0, 63, 52
1, 91378, Note_on_c, 0, 60, 64
1, 91386, Control_c, 0, 64, 84
1, 91415, Control_c, 0, 64, 84
1, 91430, Control_c, 0, 64, 83
1, 91445, Control_c, 0, 64, 82
1, 91460, Control_c, 0, 64, 82
1, 91475, Control_c, 0, 64, 81
1, 91489, Control_c, 0, 64, 80
1, 91504, Control_c, 0, 64, 79
1, 91519, Control_c, 0, 64, 78
1, 91531, Note_off_c, 0, 60, 59
1, 91534, Control_c, 0, 64, 77
1, 91535, Note_on_c, 0, 81, 86
1, 91548, Control_c, 0, 64, 76
1, 91556, Note_on_c, 0, 57, 47
1, 91563, Control_c, 0, 64, 74
1, 91578, Control_c, 0, 64, 72
1, 91593, Control_c, 0, 64, 68
1, 91608, Control_c, 0, 64, 59
1, 91623, Control_c, 0, 64, 0
1, 91668, Control_c, 0, 67, 8
1, 91695, Note_off_c, 0, 57, 61
1, 91697, Control_c, 0, 67, 9
1, 91706, Note_on_c, 0, 82, 87
1, 91712, Control_c, 0, 64, 60
1, 91722, Note_on_c, 0, 60, 53
1, 91727, Control_c, 0, 64, 67
1, 91727, Control_c, 0, 67, 9
1, 91733, Note_off_c, 0, 81, 62
1, 91742, Control_c, 0, 64, 73
1, 91742, Control_c, 0, 67, 10
1, 91764, Control_c, 0, 64, 78
1, 91764, Control_c, 0, 67, 11
1, 91779, Control_c, 0, 64, 80
1, 91779, Control_c, 0, 67, 12
1, 91794, Control_c, 0, 64, 81
1, 91794, Control_c, 0, 67, 14
1, 91809, Control_c, 0, 67, 15
1, 91824, Control_c, 0, 67, 17
1, 91838, Control_c, 0, 67, 18
1, 91853, Control_c, 0, 67, 18
1, 91865, Note_off_c, 0, 60, 61
1, 91882, Note_on_c, 0, 84, 87
1, 91885, Note_on_c, 0, 63, 64
1, 91886, Note_off_c, 0, 82, 63
1, 91898, Control_c, 0, 64, 80
1, 91912, Control_c, 0, 64, 80
1, 91913, Note_off_c, 0, 63, 66
1, 91927, Control_c, 0, 64, 79
1, 91927, Control_c, 0, 67, 18
1, 91941, Note_off_c, 0, 84, 56
1, 91942, Control_c, 0, 64, 78
1, 91957, Control_c, 0, 64, 76
1, 91957, Control_c, 0, 67, 17
1, 91972, Control_c, 0, 64, 75
1, 91978, Note_on_c, 0, 79, 81
1, 91987, Control_c, 0, 64, 74
1, 91987, Control_c, 0, 67, 16
1, 92002, Control_c, 0, 64, 72
1, 92016, Control_c, 0, 64, 69
1, 92016, Control_c, 0, 67, 16
1, 92031, Control_c, 0, 64, 63
1, 92031, Control_c, 0, 67, 15
1, 92046, Control_c, 0, 64, 49
1, 92057, Note_on_c, 0, 86, 82
1, 92061, Control_c, 0, 64, 0
1, 92071, Note_off_c, 0, 79, 62
1, 92076, Control_c, 0, 67, 15
1, 92091, Control_c, 0, 67, 14
1, 92105, Control_c, 0, 67, 14
1, 92150, Control_c, 0, 67, 13
1, 92194, Control_c, 0, 67, 13
1, 92240, Note_on_c, 0, 46, 48
1, 92311, Note_on_c, 0, 82, 70
1, 92327, Control_c, 0, 67, 12
1, 92331, Note_off_c, 0, 86, 62
1, 92371, Control_c, 0, 67, 12
1, 92392, Note_off_c, 0, 82, 62
1, 92393, Note_on_c, 0, 79, 70
1, 92401, Control_c, 0, 67, 11
1, 92407, Note_off_c, 0, 46, 47
1, 92416, Note_on_c, 0, 50, 49
1, 92416, Control_c, 0, 64, 29
1, 92431, Control_c, 0, 64, 62
1, 92446, Control_c, 0, 64, 68
1, 92461, Control_c, 0, 64, 72
1, 92475, Control_c, 0, 64, 77
1, 92475, Control_c, 0, 67, 12
1, 92490, Control_c, 0, 64, 80
1, 92505, Note_off_c, 0, 79, 44
1, 92512, Control_c, 0, 64, 81
1, 92565, Note_off_c, 0, 50, 63
1, 92588, Note_on_c, 0, 55, 56
1, 92602, Control_c, 0, 64, 80
1, 92617, Control_c, 0, 64, 80
1, 92628, Note_off_c, 0, 55, 62
1, 92632, Control_c, 0, 64, 79
1, 92647, Control_c, 0, 64, 78
1, 92661, Control_c, 0, 64, 77
1, 92676, Note_on_c, 0, 76, 72
1, 92676, Control_c, 0, 64, 77
1, 92691, Control_c, 0, 64, 75
1, 92691, Control_c, 0, 67, 12
1, 92706, Control_c, 0, 64, 74
1, 92706, Control_c, 0, 67, 13
1, 92721, Control_c, 0, 64, 72
1, 92721, Control_c, 0, 67, 14
1, 92735, Control_c, 0, 64, 70
1, 92750, Control_c, 0, 64, 68
1, 92750, Control_c, 0, 67, 14
1, 92764, Note_off_c, 0, 76, 58
1, 92765, Control_c, 0, 64, 63
1, 92765, Control_c, 0, 67, 15
1, 92770, Note_on_c, 0, 82, 82
1, 92780, Control_c, 0, 64, 50
1, 92794, Control_c, 0, 64, 0
1, 92794, Control_c, 0, 67, 15
1, 92824, Control_c, 0, 67, 16
1, 92839, Control_c, 0, 67, 16
1, 92854, Control_c, 0, 67, 17
1, 92869, Control_c, 0, 67, 19
1, 92884, Control_c, 0, 67, 20
1, 92899, Control_c, 0, 67, 23
1, 92913, Control_c, 0, 67, 27
1, 92928, Control_c, 0, 67, 28
1, 92943, Control_c, 0, 67, 27
1, 92958, Control_c, 0, 67, 26
1, 92969, Note_on_c, 0, 48, 49
1, 93017, Control_c, 0, 67, 27
1, 93047, Control_c, 0, 67, 26
1, 93075, Note_on_c, 0, 79, 63
1, 93076, Control_c, 0, 67, 26
1, 93079, Note_off_c, 0, 82, 62
1, 93105, Control_c, 0, 67, 26
1, 93120, Control_c, 0, 67, 27
1, 93135, Control_c, 0, 67, 27
1, 93150, Control_c, 0, 67, 28
1, 93161, Note_off_c, 0, 79, 61
1, 93179, Control_c, 0, 64, 39
1, 93179, Control_c, 0, 67, 27
1, 93182, Note_on_c, 0, 55, 37
1, 93188, Note_on_c, 0, 76, 62
1, 93194, Control_c, 0, 64, 57
1, 93194, Control_c, 0, 67, 27
1, 93209, Control_c, 0, 64, 63
1, 93224, Control_c, 0, 64, 66
1, 93239, Control_c, 0, 64, 71
1, 93261, Control_c, 0, 64, 77
1, 93261, Control_c, 0, 67, 27
1, 93276, Control_c, 0, 64, 81
1, 93276, Control_c, 0, 67, 28
1, 93291, Control_c, 0, 64, 83
1, 93305, Control_c, 0, 67, 28
1, 93320, Control_c, 0, 64, 83
1, 93320, Control_c, 0, 67, 29
1, 93323, Note_off_c, 0, 76, 36
1, 93336, Control_c, 0, 67, 29
1, 93351, Control_c, 0, 67, 30
1, 93364, Note_off_c, 0, 48, 39
1, 93366, Control_c, 0, 67, 35
1, 93381, Control_c, 0, 67, 41
1, 93382, Note_on_c, 0, 58, 40
1, 93391, Note_off_c, 0, 55, 41
1, 93396, Control_c, 0, 67, 47
1, 93410, Control_c, 0, 67, 51
1, 93425, Control_c, 0, 64, 83
1, 93425, Control_c, 0, 67, 54
1, 93440, Control_c, 0, 64, 82
1, 93440, Control_c, 0, 67, 55
1, 93455, Control_c, 0, 64, 82
1, 93455, Control_c, 0, 67, 55
1, 93470, Control_c, 0, 64, 81
1, 93470, Control_c, 0, 67, 56
1, 93484, Control_c, 0, 64, 80
1, 93499, Control_c, 0, 64, 79
1, 93510, Note_on_c, 0, 71, 53
1, 93514, Control_c, 0, 64, 78
1, 93515, Note_off_c, 0, 58, 40
1, 93528, Control_c, 0, 64, 77
1, 93543, Control_c, 0, 64, 76
1, 93558, Control_c, 0, 64, 75
1, 93573, Control_c, 0, 64, 73
1, 93588, Control_c, 0, 64, 72
1, 93602, Control_c, 0, 64, 70
1, 93617, Control_c, 0, 64, 67
1, 93632, Control_c, 0, 64, 62
1, 93647, Control_c, 0, 64, 51
1, 93650, Note_on_c, 0, 77, 67
1, 93662, Control_c, 0, 64, 47
1, 93677, Control_c, 0, 64, 49
1, 93677, Control_c, 0, 67, 55
1, 93692, Control_c, 0, 64, 48
1, 93692, Control_c, 0, 67, 55
1, 93707, Control_c, 0, 64, 47
1, 93722, Control_c, 0, 64, 44
1, 93736, Control_c, 0, 64, 35
1, 93736, Control_c, 0, 67, 54
1, 93738, Note_off_c, 0, 71, 26
1, 93751, Control_c, 0, 64, 0
1, 93781, Control_c, 0, 67, 54
1, 93796, Control_c, 0, 67, 53
1, 93810, Control_c, 0, 67, 52
1, 93840, Control_c, 0, 67, 51
1, 93845, Note_on_c, 0, 50, 34
1, 93935, Note_on_c, 0, 74, 57
1, 93942, Control_c, 0, 67, 52
1, 93950, Note_off_c, 0, 77, 57
1, 94029, Note_off_c, 0, 50, 41
1, 94035, Note_off_c, 0, 74, 60
1, 94054, Control_c, 0, 67, 51
1, 94058, Note_on_c, 0, 71, 57
1, 94061, Note_on_c, 0, 53, 28
1, 94083, Control_c, 0, 67, 51
1, 94129, Control_c, 0, 67, 50
1, 94144, Control_c, 0, 67, 50
1, 94173, Control_c, 0, 67, 49
1, 94207, Note_off_c, 0, 53, 49
1, 94218, Note_on_c, 0, 56, 52
1, 94247, Control_c, 0, 67, 50
1, 94292, Control_c, 0, 67, 49
1, 94306, Control_c, 0, 67, 49
1, 94330, Note_off_c, 0, 71, 51
1, 94336, Control_c, 0, 67, 48
1, 94350, Control_c, 0, 67, 47
1, 94374, Note_off_c, 0, 56, 62
1, 94389, Note_on_c, 0, 53, 57
1, 94395, Control_c, 0, 67, 48
1, 94410, Control_c, 0, 67, 49
1, 94440, Control_c, 0, 67, 49
1, 94529, Control_c, 0, 67, 50
1, 94543, Note_off_c, 0, 53, 63
1, 94544, Control_c, 0, 67, 51
1, 94556, Note_on_c, 0, 71, 71
1, 94558, Control_c, 0, 67, 51
1, 94562, Note_on_c, 0, 50, 56
1, 94580, Note_off_c, 0, 71, 68
1, 94588, Control_c, 0, 67, 52
1, 94603, Control_c, 0, 67, 52
1, 94648, Control_c, 0, 67, 52
1, 94663, Control_c, 0, 67, 51
1, 94692, Control_c, 0, 67, 51
1, 94721, Note_off_c, 0, 50, 56
1, 94722, Note_on_c, 0, 71, 80
1, 94731, Note_on_c, 0, 53, 55
1, 94737, Control_c, 0, 67, 51
1, 94762, Note_off_c, 0, 71, 63
1, 94804, Control_c, 0, 67, 51
1, 94878, Note_off_c, 0, 53, 62
1, 94889, Note_on_c, 0, 56, 54
1, 94890, Note_on_c, 0, 71, 78
1, 94918, Note_off_c, 0, 71, 62
1, 94922, Control_c, 0, 67, 51
1, 94968, Control_c, 0, 67, 51
1, 94982, Control_c, 0, 67, 50
1, 94997, Control_c, 0, 67, 49
1, 95012, Control_c, 0, 67, 49
1, 95027, Control_c, 0, 67, 48
1, 95035, Note_off_c, 0, 56, 57
1, 95057, Note_on_c, 0, 72, 78
1, 95070, Note_on_c, 0, 57, 53
1, 95071, Control_c, 0, 67, 48
1, 95072, Note_on_c, 0, 48, 55
1, 95086, Control_c, 0, 67, 49
1, 95113, Note_off_c, 0, 72, 63
1, 95116, Control_c, 0, 67, 49
1, 95130, Control_c, 0, 67, 50
1, 95131, Note_on_c, 0, 81, 75
1, 95160, Control_c, 0, 67, 50
1, 95174, Control_c, 0, 67, 51
1, 95180, Note_off_c, 0, 57, 0
1, 95180, Note_on_c, 0, 57, 11
1, 95186, Note_off_c, 0, 81, 40
1, 95208, Note_on_c, 0, 77, 70
1, 95248, Control_c, 0, 67, 51
1, 95272, Note_off_c, 0, 77, 58
1, 95278, Control_c, 0, 67, 52
1, 95280, Note_on_c, 0, 72, 76
1, 95322, Control_c, 0, 67, 52
1, 95326, Note_off_c, 0, 72, 62
1, 95361, Note_on_c, 0, 69, 78
1, 95367, Control_c, 0, 67, 53
1, 95393, Note_off_c, 0, 69, 61
1, 95397, Control_c, 0, 67, 52
1, 95427, Note_on_c, 0, 77, 75
1, 95456, Control_c, 0, 67, 52
1, 95489, Note_off_c, 0, 77, 58
1, 95516, Note_on_c, 0, 72, 73
1, 95570, Note_off_c, 0, 72, 61
1, 95588, Note_on_c, 0, 69, 63
1, 95606, Note_off_c, 0, 69, 67
1, 95608, Note_off_c, 0, 48, 27
1, 95626, Control_c, 0, 67, 51
1, 95673, Note_on_c, 0, 69, 75
1, 95682, Note_on_c, 0, 72, 70
1, 95689, Note_on_c, 0, 60, 55
1, 95695, Note_off_c, 0, 57, 56
1, 95715, Control_c, 0, 67, 52
1, 95722, Note_off_c, 0, 69, 0
1, 95746, Control_c, 0, 67, 51
1, 95760, Poly_aftertouch_c, 0, 69, 127
1, 95769, Note_on_c, 0, 69, 22
1, 95802, Note_off_c, 0, 72, 62
1, 95810, Note_off_c, 0, 69, 64
1, 95842, Note_on_c, 0, 70, 67
1, 95847, Note_on_c, 0, 67, 71
1, 95850, Control_c, 0, 67, 52
1, 95869, Note_off_c, 0, 70, 68
1, 95871, Note_off_c, 0, 67, 67
1, 95879, Control_c, 0, 67, 52
1, 96000, Note_on_c, 0, 69, 69
1, 96012, Note_on_c, 0, 65, 55
1, 96025, Note_off_c, 0, 69, 72
1, 96033, Note_off_c, 0, 65, 63
1, 96048, Note_on_c, 0, 48, 42
1, 96057, Control_c, 0, 67, 52
1, 96071, Control_c, 0, 67, 51
1, 96086, Control_c, 0, 67, 51
1, 96121, Note_off_c, 0, 48, 59
1, 96167, Note_on_c, 0, 67, 64
1, 96175, Control_c, 0, 67, 51
1, 96179, Note_on_c, 0, 64, 46
1, 96197, Note_off_c, 0, 67, 65
1, 96203, Note_off_c, 0, 64, 52
1, 96272, Control_c, 0, 67, 51
1, 96300, Note_off_c, 0, 60, 55
1, 96301, Control_c, 0, 67, 51
1, 96330, Control_c, 0, 67, 52
1, 96332, Note_on_c, 0, 65, 55
1, 96341, Note_on_c, 0, 53, 41
1, 96345, Control_c, 0, 67, 52
1, 96376, Note_off_c, 0, 53, 58
1, 96423, Note_on_c, 0, 60, 54
1, 96434, Control_c, 0, 67, 53
1, 96453, Note_off_c, 0, 60, 59
1, 96464, Control_c, 0, 67, 53
1, 96479, Control_c, 0, 67, 54
1, 96494, Control_c, 0, 67, 54
1, 96494, Note_on_c, 0, 56, 53
1, 96524, Control_c, 0, 67, 55
1, 96530, Note_off_c, 0, 56, 64
1, 96553, Control_c, 0, 67, 55
1, 96565, Note_on_c, 0, 60, 50
1, 96568, Control_c, 0, 67, 56
1, 96583, Control_c, 0, 67, 56
1, 96598, Control_c, 0, 67, 57
1, 96610, Note_off_c, 0, 60, 59
1, 96613, Control_c, 0, 67, 58
1, 96628, Control_c, 0, 67, 58
1, 96643, Control_c, 0, 67, 63
1, 96652, Note_on_c, 0, 53, 55
1, 96658, Control_c, 0, 67, 65
1, 96688, Control_c, 0, 67, 65
1, 96688, Note_off_c, 0, 65, 63
1, 96693, Note_off_c, 0, 53, 65
1, 96702, Control_c, 0, 67, 66
1, 96717, Control_c, 0, 67, 67
1, 96729, Note_on_c, 0, 60, 55
1, 96732, Control_c, 0, 67, 68
1, 96768, Note_off_c, 0, 60, 62
1, 96816, Note_on_c, 0, 56, 52
1, 96849, Note_off_c, 0, 56, 64
1, 96878, Note_on_c, 0, 60, 57
1, 96894, Control_c, 0, 67, 67
1, 96909, Control_c, 0, 67, 66
1, 96917, Note_off_c, 0, 60, 60
1, 96968, Note_on_c, 0, 53, 54
1, 96968, Control_c, 0, 67, 67
1, 96983, Control_c, 0, 67, 67
1, 97015, Note_off_c, 0, 53, 66
1, 97033, Note_on_c, 0, 65, 60
1, 97051, Note_on_c, 0, 60, 57
1, 97070, Note_off_c, 0, 65, 63
1, 97088, Note_off_c, 0, 60, 60
1, 97106, Note_on_c, 0, 67, 65
1, 97135, Note_on_c, 0, 56, 44
1, 97146, Note_off_c, 0, 67, 56
1, 97161, Note_off_c, 0, 56, 60
1, 97188, Note_on_c, 0, 68, 70
1, 97203, Note_on_c, 0, 60, 53
1, 97227, Control_c, 0, 67, 67
1, 97236, Note_off_c, 0, 68, 52
1, 97239, Note_off_c, 0, 60, 60
1, 97242, Control_c, 0, 67, 66
1, 97257, Control_c, 0, 67, 66
1, 97269, Note_on_c, 0, 70, 71
1, 97284, Note_on_c, 0, 53, 48
1, 97287, Control_c, 0, 67, 65
1, 97307, Note_off_c, 0, 70, 65
1, 97322, Note_off_c, 0, 53, 65
1, 97347, Note_on_c, 0, 60, 57
1, 97355, Note_on_c, 0, 72, 67
1, 97386, Note_off_c, 0, 72, 65
1, 97388, Note_off_c, 0, 60, 58
1, 97433, Note_on_c, 0, 74, 70
1, 97435, Note_on_c, 0, 56, 47
1, 97464, Note_off_c, 0, 74, 61
1, 97471, Note_off_c, 0, 56, 64
1, 97506, Note_on_c, 0, 76, 75
1, 97507, Note_on_c, 0, 60, 56
1, 97545, Note_off_c, 0, 60, 63
1, 97549, Note_off_c, 0, 76, 65
1, 97555, Control_c, 0, 67, 65
1, 97584, Control_c, 0, 67, 64
1, 97591, Note_on_c, 0, 77, 75
1, 97599, Note_on_c, 0, 53, 58
1, 97621, Note_off_c, 0, 77, 60
1, 97629, Control_c, 0, 67, 65
1, 97641, Note_off_c, 0, 53, 64
1, 97671, Note_on_c, 0, 72, 61
1, 97680, Note_on_c, 0, 60, 56
1, 97700, Note_off_c, 0, 72, 58
1, 97717, Note_off_c, 0, 60, 63
1, 97756, Note_on_c, 0, 80, 70
1, 97770, Note_on_c, 0, 56, 50
1, 97770, Control_c, 0, 67, 65
1, 97804, Note_off_c, 0, 56, 63
1, 97814, Note_off_c, 0, 80, 49
1, 97836, Note_on_c, 0, 79, 68
1, 97840, Note_on_c, 0, 60, 54
1, 97859, Control_c, 0, 67, 65
1, 97880, Note_off_c, 0, 60, 61
1, 97883, Note_off_c, 0, 79, 50
1, 97914, Note_on_c, 0, 77, 78
1, 97918, Control_c, 0, 67, 64
1, 97922, Note_on_c, 0, 53, 61
1, 97963, Control_c, 0, 67, 64
1, 97968, Note_off_c, 0, 77, 60
1, 97969, Note_off_c, 0, 53, 62
1, 97992, Control_c, 0, 67, 63
1, 97993, Note_on_c, 0, 72, 75
1, 98002, Note_on_c, 0, 60, 59
1, 98039, Note_off_c, 0, 60, 62
1, 98040, Note_off_c, 0, 72, 63
1, 98051, Control_c, 0, 67, 64
1, 98075, Note_on_c, 0, 80, 70
1, 98092, Note_on_c, 0, 56, 51
1, 98095, Control_c, 0, 67, 64
1, 98110, Control_c, 0, 67, 65
1, 98116, Note_off_c, 0, 80, 55
1, 98127, Note_off_c, 0, 56, 63
1, 98151, Note_on_c, 0, 60, 64
1, 98151, Note_on_c, 0, 79, 80
1, 98194, Note_off_c, 0, 60, 58
1, 98200, Control_c, 0, 67, 64
1, 98215, Control_c, 0, 67, 64
1, 98228, Note_off_c, 0, 79, 59
1, 98232, Note_on_c, 0, 77, 82
1, 98247, Note_on_c, 0, 53, 53
1, 98283, Note_off_c, 0, 77, 59
1, 98289, Control_c, 0, 67, 63
1, 98291, Note_off_c, 0, 53, 58
1, 98311, Note_on_c, 0, 79, 82
1, 98312, Note_on_c, 0, 60, 63
1, 98318, Control_c, 0, 67, 63
1, 98348, Control_c, 0, 67, 63
1, 98351, Note_off_c, 0, 60, 58
1, 98363, Control_c, 0, 67, 64
1, 98387, Note_on_c, 0, 75, 82
1, 98387, Note_off_c, 0, 79, 60
1, 98398, Note_on_c, 0, 56, 56
1, 98407, Control_c, 0, 67, 63
1, 98422, Control_c, 0, 67, 60
1, 98437, Control_c, 0, 67, 56
1, 98438, Note_off_c, 0, 56, 63
1, 98445, Note_off_c, 0, 75, 65
1, 98452, Control_c, 0, 67, 45
1, 98462, Note_on_c, 0, 60, 71
1, 98464, Note_on_c, 0, 77, 86
1, 98466, Control_c, 0, 67, 21
1, 98481, Control_c, 0, 67, 0
1, 98515, Note_off_c, 0, 60, 55
1, 98527, Note_off_c, 0, 77, 61
1, 98550, Note_on_c, 0, 74, 81
1, 98558, Note_on_c, 0, 53, 63
1, 98592, Note_off_c, 0, 74, 64
1, 98616, Note_off_c, 0, 53, 60
1, 98628, Note_on_c, 0, 75, 86
1, 98631, Note_on_c, 0, 60, 64
1, 98667, Note_off_c, 0, 60, 60
1, 98679, Note_off_c, 0, 75, 64
1, 98697, Note_on_c, 0, 56, 56
1, 98706, Note_on_c, 0, 72, 88
1, 98735, Note_off_c, 0, 56, 64
1, 98741, Note_off_c, 0, 72, 66
1, 98765, Note_on_c, 0, 60, 66
1, 98785, Note_on_c, 0, 74, 83
1, 98797, Note_off_c, 0, 60, 61
1, 98826, Note_off_c, 0, 74, 62
1, 98862, Note_on_c, 0, 71, 85
1, 98869, Note_on_c, 0, 55, 62
1, 98888, Control_c, 0, 64, 59
1, 98893, Note_off_c, 0, 71, 64
1, 98903, Control_c, 0, 64, 69
1, 98919, Control_c, 0, 64, 77
1, 98926, Note_off_c, 0, 55, 59
1, 98934, Control_c, 0, 64, 82
1, 98948, Control_c, 0, 64, 83
1, 98963, Control_c, 0, 64, 83
1, 98966, Note_on_c, 0, 65, 60
1, 99008, Control_c, 0, 64, 83
1, 99067, Control_c, 0, 64, 82
1, 99076, Note_off_c, 0, 65, 38
1, 99082, Control_c, 0, 64, 82
1, 99096, Note_on_c, 0, 89, 91
1, 99096, Control_c, 0, 64, 81
1, 99103, Note_on_c, 0, 62, 48
1, 99111, Control_c, 0, 64, 80
1, 99126, Control_c, 0, 64, 79
1, 99141, Control_c, 0, 64, 78
1, 99156, Control_c, 0, 64, 77
1, 99171, Control_c, 0, 64, 76
1, 99176, Note_off_c, 0, 62, 60
1, 99186, Control_c, 0, 64, 73
1, 99196, Note_on_c, 0, 65, 61
1, 99200, Control_c, 0, 64, 70
1, 99215, Control_c, 0, 64, 66
1, 99230, Control_c, 0, 64, 64
1, 99236, Note_off_c, 0, 65, 61
1, 99252, Control_c, 0, 64, 61
1, 99267, Control_c, 0, 64, 59
1, 99282, Note_on_c, 0, 55, 58
1, 99282, Control_c, 0, 64, 56
1, 99296, Control_c, 0, 64, 48
1, 99311, Control_c, 0, 64, 34
1, 99324, Note_off_c, 0, 55, 64
1, 99326, Control_c, 0, 64, 29
1, 99355, Control_c, 0, 64, 30
1, 99360, Note_on_c, 0, 65, 67
1, 99385, Control_c, 0, 64, 28
1, 99400, Control_c, 0, 64, 22
1, 99406, Note_off_c, 0, 65, 56
1, 99415, Control_c, 0, 64, 16
1, 99430, Control_c, 0, 64, 0
1, 99438, Note_on_c, 0, 87, 89
1, 99451, Note_on_c, 0, 62, 55
1, 99493, Note_off_c, 0, 89, 63
1, 99510, Note_off_c, 0, 62, 59
1, 99537, Note_on_c, 0, 65, 64
1, 99573, Note_off_c, 0, 65, 61
1, 99621, Note_on_c, 0, 55, 53
1, 99659, Note_off_c, 0, 55, 63
1, 99691, Note_on_c, 0, 65, 65
1, 99733, Note_off_c, 0, 65, 59
1, 99766, Note_on_c, 0, 86, 86
1, 99788, Note_on_c, 0, 62, 53
1, 99810, Note_off_c, 0, 87, 58
1, 99834, Note_off_c, 0, 62, 61
1, 99860, Note_on_c, 0, 65, 62
1, 99910, Note_off_c, 0, 65, 53
1, 99940, Note_on_c, 0, 55, 59
1, 99982, Note_off_c, 0, 55, 65
1, 100035, Note_on_c, 0, 65, 65
1, 100071, Note_off_c, 0, 65, 61
1, 100114, Note_on_c, 0, 84, 85
1, 100124, Note_off_c, 0, 86, 60
1, 100127, Note_on_c, 0, 62, 49
1, 100169, Note_off_c, 0, 62, 62
1, 100198, Note_on_c, 0, 65, 59
1, 100244, Note_off_c, 0, 65, 55
1, 100285, Note_on_c, 0, 55, 51
1, 100321, Note_off_c, 0, 55, 64
1, 100372, Note_on_c, 0, 65, 47
1, 100403, Note_off_c, 0, 65, 56
1, 100440, Note_on_c, 0, 83, 78
1, 100452, Note_on_c, 0, 62, 46
1, 100458, Note_off_c, 0, 84, 62
1, 100505, Note_off_c, 0, 62, 60
1, 100532, Note_on_c, 0, 65, 46
1, 100564, Note_off_c, 0, 65, 59
1, 100610, Note_on_c, 0, 55, 54
1, 100649, Note_off_c, 0, 55, 62
1, 100682, Note_on_c, 0, 65, 55
1, 100725, Note_off_c, 0, 65, 61
1, 100774, Note_on_c, 0, 80, 81
1, 100786, Note_on_c, 0, 62, 45
1, 100789, Note_off_c, 0, 83, 57
1, 100821, Note_off_c, 0, 62, 62
1, 100852, Note_on_c, 0, 65, 55
1, 100887, Note_off_c, 0, 65, 65
1, 100946, Note_on_c, 0, 55, 52
1, 100986, Note_off_c, 0, 55, 62
1, 101022, Note_on_c, 0, 62, 60
1, 101065, Note_off_c, 0, 62, 59
1, 101112, Note_on_c, 0, 79, 77
1, 101114, Note_on_c, 0, 59, 51
1, 101115, Note_off_c, 0, 80, 62
1, 101161, Note_off_c, 0, 59, 59
1, 101187, Note_on_c, 0, 62, 59
1, 101249, Note_off_c, 0, 62, 52
1, 101281, Note_on_c, 0, 55, 51
1, 101320, Note_off_c, 0, 55, 63
1, 101358, Note_on_c, 0, 62, 57
1, 101386, Note_off_c, 0, 62, 59
1, 101407, Note_off_c, 0, 79, 59
1, 101426, Note_on_c, 0, 77, 76
1, 101442, Note_on_c, 0, 59, 44
1, 101449, Note_off_c, 0, 77, 67
1, 101472, Note_off_c, 0, 59, 58
1, 101517, Note_on_c, 0, 62, 56
1, 101560, Note_off_c, 0, 62, 58
1, 101603, Note_on_c, 0, 77, 77
1, 101615, Note_on_c, 0, 55, 53
1, 101653, Note_off_c, 0, 55, 63
1, 101696, Note_on_c, 0, 64, 59
1, 101735, Note_off_c, 0, 64, 63
1, 101751, Note_off_c, 0, 77, 57
1, 101768, Note_on_c, 0, 76, 70
1, 101777, Note_on_c, 0, 60, 47
1, 101792, Note_off_c, 0, 76, 71
1, 101801, Note_off_c, 0, 60, 60
1, 101845, Note_on_c, 0, 64, 53
1, 101880, Note_off_c, 0, 64, 65
1, 101934, Note_on_c, 0, 55, 48
1, 101936, Note_on_c, 0, 75, 62
1, 101971, Note_off_c, 0, 55, 64
1, 102011, Note_on_c, 0, 63, 62
1, 102049, Note_off_c, 0, 63, 60
1, 102101, Note_on_c, 0, 60, 53
1, 102141, Note_off_c, 0, 60, 62
1, 102175, Note_on_c, 0, 63, 60
1, 102178, Note_off_c, 0, 75, 62
1, 102211, Note_off_c, 0, 63, 64
1, 102264, Note_on_c, 0, 55, 55
1, 102301, Note_off_c, 0, 55, 62
1, 102321, Note_on_c, 0, 75, 66
1, 102343, Note_on_c, 0, 63, 52
1, 102364, Note_off_c, 0, 75, 63
1, 102372, Note_off_c, 0, 63, 59
1, 102398, Note_on_c, 0, 74, 65
1, 102420, Note_on_c, 0, 60, 57
1, 102449, Note_off_c, 0, 74, 56
1, 102456, Note_off_c, 0, 60, 62
1, 102481, Note_on_c, 0, 75, 67
1, 102488, Note_on_c, 0, 63, 56
1, 102527, Note_off_c, 0, 63, 64
1, 102531, Note_off_c, 0, 75, 63
1, 102550, Note_on_c, 0, 77, 75
1, 102557, Note_on_c, 0, 55, 57
1, 102592, Note_off_c, 0, 55, 64
1, 102596, Note_off_c, 0, 77, 60
1, 102630, Note_on_c, 0, 63, 60
1, 102636, Note_on_c, 0, 75, 72
1, 102669, Note_off_c, 0, 63, 63
1, 102669, Note_off_c, 0, 75, 63
1, 102700, Note_on_c, 0, 60, 56
1, 102706, Note_on_c, 0, 74, 70
1, 102739, Note_off_c, 0, 60, 62
1, 102764, Note_off_c, 0, 74, 55
1, 102775, Note_on_c, 0, 63, 62
1, 102783, Note_on_c, 0, 75, 73
1, 102819, Note_off_c, 0, 63, 57
1, 102827, Note_off_c, 0, 75, 65
1, 102866, Note_on_c, 0, 78, 80
1, 102878, Note_on_c, 0, 54, 47
1, 102915, Control_c, 0, 64, 63
1, 102919, Note_off_c, 0, 54, 63
1, 102930, Control_c, 0, 64, 71
1, 102944, Control_c, 0, 64, 78
1, 102950, Note_on_c, 0, 63, 63
1, 102959, Control_c, 0, 64, 85
1, 102974, Control_c, 0, 64, 92
1, 102994, Note_off_c, 0, 63, 61
1, 102996, Control_c, 0, 64, 96
1, 103011, Control_c, 0, 64, 99
1, 103026, Control_c, 0, 64, 102
1, 103034, Note_on_c, 0, 58, 61
1, 103041, Control_c, 0, 64, 104
1, 103056, Control_c, 0, 64, 106
1, 103068, Note_off_c, 0, 58, 65
1, 103070, Control_c, 0, 64, 107
1, 103085, Control_c, 0, 64, 108
1, 103091, Note_on_c, 0, 75, 70
1, 103099, Note_on_c, 0, 63, 66
1, 103117, Note_off_c, 0, 75, 69
1, 103119, Note_off_c, 0, 78, 31
1, 103134, Note_off_c, 0, 63, 59
1, 103144, Control_c, 0, 64, 106
1, 103159, Control_c, 0, 64, 95
1, 103174, Control_c, 0, 64, 74
1, 103178, Note_on_c, 0, 75, 79
1, 103180, Note_on_c, 0, 54, 58
1, 103189, Control_c, 0, 64, 0
1, 103210, Note_off_c, 0, 54, 56
1, 103225, Note_off_c, 0, 75, 63
1, 103231, Note_on_c, 0, 77, 76
1, 103237, Note_on_c, 0, 63, 72
1, 103269, Note_off_c, 0, 77, 65
1, 103275, Note_off_c, 0, 63, 59
1, 103287, Note_on_c, 0, 75, 68
1, 103317, Note_on_c, 0, 58, 58
1, 103342, Note_off_c, 0, 75, 65
1, 103344, Note_on_c, 0, 74, 75
1, 103365, Note_off_c, 0, 58, 61
1, 103391, Note_on_c, 0, 63, 65
1, 103399, Note_on_c, 0, 75, 76
1, 103409, Note_off_c, 0, 74, 62
1, 103430, Note_off_c, 0, 63, 59
1, 103457, Note_off_c, 0, 75, 66
1, 103474, Note_on_c, 0, 82, 92
1, 103481, Note_on_c, 0, 54, 54
1, 103527, Note_off_c, 0, 54, 61
1, 103559, Control_c, 0, 64, 65
1, 103564, Note_on_c, 0, 63, 62
1, 103574, Control_c, 0, 64, 74
1, 103588, Control_c, 0, 64, 85
1, 103603, Control_c, 0, 64, 98
1, 103618, Control_c, 0, 64, 107
1, 103630, Note_off_c, 0, 63, 57
1, 103632, Control_c, 0, 64, 113
1, 103647, Control_c, 0, 64, 116
1, 103653, Note_on_c, 0, 58, 53
1, 103662, Control_c, 0, 64, 117
1, 103679, Note_off_c, 0, 58, 61
1, 103714, Note_on_c, 0, 75, 61
1, 103723, Note_on_c, 0, 63, 66
1, 103739, Note_off_c, 0, 75, 65
1, 103758, Note_off_c, 0, 63, 64
1, 103759, Control_c, 0, 64, 116
1, 103774, Control_c, 0, 64, 115
1, 103789, Control_c, 0, 64, 113
1, 103796, Note_off_c, 0, 82, 17
1, 103799, Note_on_c, 0, 75, 84
1, 103804, Control_c, 0, 64, 111
1, 103807, Note_on_c, 0, 54, 58
1, 103818, Control_c, 0, 64, 109
1, 103833, Control_c, 0, 64, 108
1, 103843, Note_off_c, 0, 54, 60
1, 103848, Control_c, 0, 64, 108
1, 103849, Note_off_c, 0, 75, 64
1, 103856, Note_on_c, 0, 77, 83
1, 103863, Note_on_c, 0, 63, 68
1, 103863, Control_c, 0, 64, 107
1, 103877, Control_c, 0, 64, 107
1, 103892, Control_c, 0, 64, 106
1, 103899, Note_off_c, 0, 77, 65
1, 103908, Note_off_c, 0, 63, 59
1, 103910, Note_on_c, 0, 75, 68
1, 103937, Control_c, 0, 64, 106
1, 103943, Note_on_c, 0, 58, 68
1, 103955, Note_on_c, 0, 74, 70
1, 103958, Note_off_c, 0, 75, 65
1, 103979, Note_off_c, 0, 58, 60
1, 104010, Note_off_c, 0, 74, 63
1, 104011, Control_c, 0, 64, 104
1, 104015, Note_on_c, 0, 63, 68
1, 104017, Note_on_c, 0, 75, 74
1, 104026, Control_c, 0, 64, 96
1, 104038, Note_off_c, 0, 75, 72
1, 104041, Control_c, 0, 64, 78
1, 104056, Control_c, 0, 64, 0
1, 104056, Note_off_c, 0, 63, 59
1, 104081, Note_on_c, 0, 81, 94
1, 104092, Note_on_c, 0, 53, 65
1, 104117, Note_off_c, 0, 81, 62
1, 104133, Note_off_c, 0, 53, 62
1, 104157, Note_on_c, 0, 63, 67
1, 104222, Note_off_c, 0, 63, 57
1, 104253, Note_on_c, 0, 60, 50
1, 104259, Note_on_c, 0, 84, 85
1, 104283, Note_off_c, 0, 84, 66
1, 104307, Note_off_c, 0, 60, 60
1, 104334, Note_on_c, 0, 63, 64
1, 104378, Note_off_c, 0, 63, 55
1, 104429, Note_on_c, 0, 87, 92
1, 104438, Note_on_c, 0, 53, 58
1, 104455, Control_c, 0, 64, 18
1, 104470, Control_c, 0, 64, 68
1, 104492, Control_c, 0, 64, 76
1, 104496, Note_off_c, 0, 53, 58
1, 104508, Control_c, 0, 64, 82
1, 104515, Note_on_c, 0, 63, 61
1, 104523, Control_c, 0, 64, 84
1, 104557, Note_off_c, 0, 63, 62
1, 104589, Note_on_c, 0, 60, 58
1, 104632, Note_off_c, 0, 60, 59
1, 104665, Note_on_c, 0, 63, 65
1, 104700, Note_off_c, 0, 63, 56
1, 104700, Control_c, 0, 64, 83
1, 104715, Control_c, 0, 64, 78
1, 104730, Control_c, 0, 64, 65
1, 104745, Control_c, 0, 64, 0
1, 104748, Note_on_c, 0, 53, 54
1, 104784, Note_off_c, 0, 53, 65
1, 104814, Note_off_c, 0, 87, 59
1, 104820, Note_on_c, 0, 63, 65
1, 104831, Note_on_c, 0, 89, 73
1, 104860, Note_off_c, 0, 63, 59
1, 104879, Note_off_c, 0, 89, 60
1, 104898, Note_on_c, 0, 86, 73
1, 104900, Note_on_c, 0, 60, 50
1, 104940, Note_off_c, 0, 60, 63
1, 104951, Note_off_c, 0, 86, 60
1, 104974, Note_on_c, 0, 87, 78
1, 104975, Note_on_c, 0, 63, 56
1, 105012, Note_off_c, 0, 63, 64
1, 105042, Note_off_c, 0, 87, 63
1, 105057, Note_on_c, 0, 84, 78
1, 105060, Note_on_c, 0, 53, 55
1, 105096, Note_off_c, 0, 53, 65
1, 105106, Note_off_c, 0, 84, 61
1, 105128, Note_on_c, 0, 63, 61
1, 105135, Note_on_c, 0, 86, 77
1, 105168, Note_off_c, 0, 63, 60
1, 105196, Note_off_c, 0, 86, 57
1, 105213, Note_on_c, 0, 60, 51
1, 105213, Note_on_c, 0, 82, 78
1, 105260, Note_off_c, 0, 60, 63
1, 105278, Note_off_c, 0, 82, 62
1, 105297, Note_on_c, 0, 84, 78
1, 105301, Note_on_c, 0, 63, 57
1, 105339, Note_off_c, 0, 63, 64
1, 105356, Note_off_c, 0, 84, 62
1, 105376, Note_on_c, 0, 81, 82
1, 105385, Note_on_c, 0, 53, 57
1, 105419, Note_off_c, 0, 81, 60
1, 105427, Note_off_c, 0, 53, 64
1, 105457, Note_on_c, 0, 82, 82
1, 105460, Note_on_c, 0, 63, 54
1, 105499, Note_off_c, 0, 63, 62
1, 105530, Note_on_c, 0, 84, 83
1, 105531, Note_off_c, 0, 82, 63
1, 105533, Note_on_c, 0, 60, 60
1, 105578, Note_off_c, 0, 60, 60
1, 105607, Note_on_c, 0, 82, 81
1, 105609, Note_off_c, 0, 84, 62
1, 105624, Note_on_c, 0, 63, 49
1, 105654, Note_off_c, 0, 63, 54
1, 105677, Note_off_c, 0, 82, 60
1, 105689, Note_on_c, 0, 53, 60
1, 105690, Note_on_c, 0, 81, 87
1, 105731, Note_off_c, 0, 53, 62
1, 105756, Note_on_c, 0, 63, 62
1, 105771, Note_on_c, 0, 82, 87
1, 105773, Note_off_c, 0, 81, 58
1, 105806, Note_off_c, 0, 63, 62
1, 105824, Note_off_c, 0, 82, 66
1, 105824, Note_on_c, 0, 60, 51
1, 105844, Note_on_c, 0, 84, 82
1, 105877, Note_off_c, 0, 60, 59
1, 105913, Note_on_c, 0, 63, 67
1, 105919, Note_on_c, 0, 86, 87
1, 105922, Note_off_c, 0, 84, 65
1, 105946, Note_off_c, 0, 63, 64
1, 105993, Note_off_c, 0, 86, 59
1, 106006, Note_on_c, 0, 87, 89
1, 106018, Note_on_c, 0, 53, 62
1, 106070, Note_off_c, 0, 53, 62
1, 106075, Note_off_c, 0, 87, 64
1, 106087, Note_on_c, 0, 86, 84
1, 106098, Note_on_c, 0, 60, 66
1, 106128, Note_off_c, 0, 86, 63
1, 106134, Note_off_c, 0, 60, 59
1, 106165, Note_on_c, 0, 84, 80
1, 106178, Note_on_c, 0, 57, 56
1, 106202, Note_off_c, 0, 84, 65
1, 106219, Note_off_c, 0, 57, 62
1, 106241, Note_on_c, 0, 82, 70
1, 106244, Note_on_c, 0, 60, 68
1, 106290, Note_off_c, 0, 60, 56
1, 106316, Note_on_c, 0, 81, 77
1, 106331, Note_off_c, 0, 82, 59
1, 106340, Note_on_c, 0, 53, 56
1, 106375, Note_off_c, 0, 81, 62
1, 106377, Note_off_c, 0, 53, 63
1, 106389, Note_on_c, 0, 79, 80
1, 106401, Note_on_c, 0, 60, 65
1, 106428, Note_off_c, 0, 79, 62
1, 106441, Note_off_c, 0, 60, 55
1, 106466, Note_on_c, 0, 77, 71
1, 106489, Note_on_c, 0, 57, 53
1, 106509, Note_off_c, 0, 77, 58
1, 106525, Note_off_c, 0, 57, 63
1, 106531, Note_on_c, 0, 75, 60
1, 106551, Note_off_c, 0, 75, 66
1, 106561, Note_on_c, 0, 60, 62
1, 106599, Note_off_c, 0, 60, 57
1, 106611, Note_on_c, 0, 75, 76
1, 106641, Note_on_c, 0, 54, 55
1, 106662, Note_off_c, 0, 75, 62
1, 106665, Note_on_c, 0, 77, 62
1, 106673, Note_off_c, 0, 54, 63
1, 106684, Note_off_c, 0, 77, 63
1, 106697, Note_on_c, 0, 75, 60
1, 106706, Note_on_c, 0, 60, 63
1, 106754, Note_off_c, 0, 60, 55
1, 106780, Note_off_c, 0, 75, 65
1, 106783, Note_on_c, 0, 74, 73
1, 106796, Note_on_c, 0, 57, 57
1, 106804, Note_off_c, 0, 74, 73
1, 106832, Note_off_c, 0, 57, 62
1, 106877, Note_on_c, 0, 60, 55
1, 106926, Note_off_c, 0, 60, 51
1, 106958, Note_on_c, 0, 74, 66
1, 106969, Note_on_c, 0, 54, 53
1, 107004, Note_off_c, 0, 54, 63
1, 107061, Note_on_c, 0, 60, 46
1, 107086, Note_off_c, 0, 60, 56
1, 107121, Note_on_c, 0, 57, 52
1, 107156, Note_off_c, 0, 57, 63
1, 107192, Note_on_c, 0, 60, 55
1, 107233, Note_off_c, 0, 60, 60
1, 107276, Note_on_c, 0, 54, 55
1, 107287, Note_off_c, 0, 74, 56
1, 107314, Note_off_c, 0, 54, 61
1, 107344, Note_on_c, 0, 60, 61
1, 107392, Note_off_c, 0, 60, 55
1, 107429, Note_on_c, 0, 74, 74
1, 107438, Note_on_c, 0, 57, 53
1, 107484, Note_off_c, 0, 57, 63
1, 107514, Note_on_c, 0, 60, 65
1, 107556, Note_off_c, 0, 60, 52
1, 107574, Note_off_c, 0, 74, 55
1, 107600, Note_on_c, 0, 86, 75
1, 107608, Note_on_c, 0, 54, 57
1, 107620, Note_off_c, 0, 86, 71
1, 107690, Note_on_c, 0, 62, 59
1, 107754, Note_off_c, 0, 62, 45
1, 107770, Note_on_c, 0, 84, 83
1, 107779, Note_on_c, 0, 57, 55
1, 107824, Note_off_c, 0, 57, 57
1, 107862, Note_on_c, 0, 62, 64
1, 107877, Note_off_c, 0, 54, 53
1, 107937, Note_on_c, 0, 55, 63
1, 107938, Note_off_c, 0, 62, 52
1, 108024, Note_on_c, 0, 62, 59
1, 108086, Note_off_c, 0, 62, 50
1, 108098, Note_on_c, 0, 82, 90
1, 108104, Note_on_c, 0, 58, 67
1, 108117, Note_off_c, 0, 55, 0
1, 108117, Note_on_c, 0, 55, 3
1, 108141, Note_off_c, 0, 84, 62
1, 108167, Note_off_c, 0, 58, 63
1, 108191, Note_on_c, 0, 62, 72
1, 108262, Note_off_c, 0, 62, 58
1, 108277, Note_on_c, 0, 53, 72
1, 108287, Note_off_c, 0, 55, 51
1, 108341, Control_c, 0, 64, 34
1, 108356, Control_c, 0, 64, 58
1, 108359, Note_on_c, 0, 62, 75
1, 108371, Control_c, 0, 64, 62
1, 108385, Control_c, 0, 64, 63
1, 108408, Note_off_c, 0, 62, 56
1, 108436, Note_on_c, 0, 81, 91
1, 108444, Note_on_c, 0, 57, 70
1, 108470, Note_off_c, 0, 82, 61
1, 108501, Note_off_c, 0, 53, 47
1, 108504, Note_off_c, 0, 57, 62
1, 108504, Control_c, 0, 64, 62
1, 108517, Note_on_c, 0, 62, 75
1, 108520, Control_c, 0, 64, 62
1, 108534, Control_c, 0, 64, 60
1, 108549, Control_c, 0, 64, 58
1, 108564, Control_c, 0, 64, 52
1, 108579, Control_c, 0, 64, 0
1, 108589, Note_off_c, 0, 62, 50
1, 108596, Note_on_c, 0, 52, 73
1, 108683, Note_off_c, 0, 81, 59
1, 108688, Note_on_c, 0, 79, 85
1, 108698, Note_on_c, 0, 55, 66
1, 108698, Control_c, 0, 64, 61
1, 108712, Control_c, 0, 64, 65
1, 108741, Note_off_c, 0, 79, 56
1, 108763, Note_on_c, 0, 82, 84
1, 108772, Control_c, 0, 64, 64
1, 108779, Note_on_c, 0, 62, 68
1, 108785, Note_off_c, 0, 55, 64
1, 108787, Control_c, 0, 64, 63
1, 108801, Control_c, 0, 64, 62
1, 108811, Note_off_c, 0, 52, 31
1, 108816, Control_c, 0, 64, 56
1, 108831, Control_c, 0, 64, 18
1, 108840, Note_off_c, 0, 82, 64
1, 108842, Note_on_c, 0, 81, 83
1, 108845, Control_c, 0, 64, 0
1, 108887, Note_off_c, 0, 62, 62
1, 108888, Note_on_c, 0, 51, 66
1, 108889, Control_c, 0, 64, 36
1, 108904, Control_c, 0, 64, 60
1, 108912, Note_on_c, 0, 84, 86
1, 108918, Note_off_c, 0, 81, 62
1, 108919, Control_c, 0, 64, 65
1, 108933, Control_c, 0, 64, 66
1, 108948, Control_c, 0, 64, 67
1, 108963, Control_c, 0, 64, 67
1, 108986, Control_c, 0, 64, 66
1, 108995, Note_on_c, 0, 61, 71
1, 108999, Note_off_c, 0, 84, 62
1, 109001, Note_on_c, 0, 82, 81
1, 109030, Control_c, 0, 64, 66
1, 109034, Note_off_c, 0, 51, 63
1, 109050, Note_off_c, 0, 61, 60
1, 109058, Note_on_c, 0, 55, 64
1, 109059, Control_c, 0, 64, 65
1, 109064, Note_off_c, 0, 82, 66
1, 109079, Note_on_c, 0, 81, 78
1, 109127, Note_off_c, 0, 81, 59
1, 109131, Note_off_c, 0, 55, 64
1, 109133, Control_c, 0, 64, 65
1, 109144, Note_on_c, 0, 61, 73
1, 109148, Control_c, 0, 64, 64
1, 109151, Note_on_c, 0, 79, 77
1, 109163, Control_c, 0, 64, 63
1, 109178, Control_c, 0, 64, 59
1, 109186, Note_off_c, 0, 61, 62
1, 109193, Control_c, 0, 64, 49
1, 109200, Note_off_c, 0, 79, 63
1, 109207, Control_c, 0, 64, 0
1, 109231, Note_on_c, 0, 78, 82
1, 109237, Control_c, 0, 67, 8
1, 109246, Note_on_c, 0, 62, 69
1, 109250, Note_on_c, 0, 50, 62
1, 109252, Control_c, 0, 67, 9
1, 109267, Control_c, 0, 67, 10
1, 109282, Control_c, 0, 67, 12
1, 109297, Control_c, 0, 67, 14
1, 109303, Note_off_c, 0, 78, 63
1, 109312, Control_c, 0, 67, 15
1, 109317, Note_on_c, 0, 74, 77
1, 109327, Control_c, 0, 67, 17
1, 109342, Control_c, 0, 67, 19
1, 109356, Note_off_c, 0, 74, 61
1, 109356, Control_c, 0, 67, 18
1, 109371, Control_c, 0, 67, 17
1, 109386, Control_c, 0, 67, 17
1, 109392, Note_on_c, 0, 86, 82
1, 109401, Control_c, 0, 67, 16
1, 109416, Control_c, 0, 67, 15
1, 109465, Note_on_c, 0, 85, 81
1, 109467, Note_off_c, 0, 86, 60
1, 109491, Note_off_c, 0, 50, 63
1, 109517, Note_off_c, 0, 62, 63
1, 109520, Control_c, 0, 67, 16
1, 109532, Note_off_c, 0, 85, 59
1, 109535, Control_c, 0, 67, 16
1, 109544, Note_on_c, 0, 86, 87
1, 109564, Control_c, 0, 67, 17
1, 109579, Control_c, 0, 67, 17
1, 109626, Note_on_c, 0, 85, 86
1, 109628, Note_off_c, 0, 86, 62
1, 109693, Note_off_c, 0, 85, 63
1, 109696, Note_on_c, 0, 86, 83
1, 109735, Control_c, 0, 67, 17
1, 109775, Note_off_c, 0, 86, 58
1, 109779, Control_c, 0, 67, 17
1, 109789, Note_on_c, 0, 85, 86
1, 109853, Control_c, 0, 67, 18
1, 109860, Note_off_c, 0, 85, 65
1, 109868, Note_on_c, 0, 86, 89
1, 109882, Control_c, 0, 67, 18
1, 109912, Control_c, 0, 67, 19
1, 109940, Note_on_c, 0, 87, 88
1, 109942, Control_c, 0, 67, 19
1, 109950, Note_off_c, 0, 86, 62
1, 109956, Control_c, 0, 67, 20
1, 109971, Control_c, 0, 67, 22
1, 110009, Note_off_c, 0, 87, 61
1, 110018, Note_on_c, 0, 84, 88
1, 110030, Control_c, 0, 67, 22
1, 110060, Control_c, 0, 67, 23
1, 110088, Note_off_c, 0, 84, 59
1, 110095, Note_on_c, 0, 86, 89
1, 110165, Control_c, 0, 67, 23
1, 110173, Note_on_c, 0, 66, 88
1, 110182, Note_on_c, 0, 82, 86
1, 110185, Note_on_c, 0, 62, 68
1, 110187, Note_off_c, 0, 86, 62
1, 110210, Control_c, 0, 67, 24
1, 110224, Control_c, 0, 67, 23
1, 110235, Note_off_c, 0, 82, 66
1, 110269, Note_on_c, 0, 84, 84
1, 110269, Control_c, 0, 67, 23
1, 110328, Control_c, 0, 67, 22
1, 110350, Note_on_c, 0, 81, 81
1, 110350, Note_off_c, 0, 84, 62
1, 110388, Control_c, 0, 67, 23
1, 110417, Note_off_c, 0, 81, 52
1, 110418, Control_c, 0, 67, 23
1, 110427, Note_on_c, 0, 82, 83
1, 110432, Control_c, 0, 67, 24
1, 110447, Control_c, 0, 67, 24
1, 110462, Control_c, 0, 67, 25
1, 110467, Note_off_c, 0, 62, 61
1, 110485, Control_c, 0, 67, 26
1, 110495, Note_off_c, 0, 82, 62
1, 110500, Control_c, 0, 67, 30
1, 110514, Control_c, 0, 67, 35
1, 110519, Note_on_c, 0, 79, 77
1, 110523, Note_on_c, 0, 67, 66
1, 110529, Control_c, 0, 67, 41
1, 110539, Note_on_c, 0, 63, 58
1, 110544, Control_c, 0, 67, 48
1, 110547, Note_off_c, 0, 66, 64
1, 110555, Note_off_c, 0, 79, 63
1, 110559, Control_c, 0, 67, 54
1, 110574, Control_c, 0, 67, 60
1, 110588, Control_c, 0, 67, 65
1, 110598, Note_on_c, 0, 81, 84
1, 110603, Control_c, 0, 67, 71
1, 110618, Control_c, 0, 67, 79
1, 110632, Control_c, 0, 67, 87
1, 110647, Control_c, 0, 67, 94
1, 110662, Control_c, 0, 67, 95
1, 110663, Note_off_c, 0, 81, 60
1, 110685, Note_on_c, 0, 77, 74
1, 110707, Control_c, 0, 67, 94
1, 110726, Note_off_c, 0, 77, 58
1, 110737, Control_c, 0, 67, 94
1, 110751, Control_c, 0, 67, 93
1, 110758, Note_on_c, 0, 79, 79
1, 110766, Control_c, 0, 67, 92
1, 110821, Note_off_c, 0, 79, 55
1, 110825, Control_c, 0, 67, 91
1, 110840, Note_on_c, 0, 75, 76
1, 110840, Control_c, 0, 67, 91
1, 110881, Note_off_c, 0, 67, 56
1, 110885, Control_c, 0, 67, 92
1, 110909, Note_off_c, 0, 75, 64
1, 110912, Note_off_c, 0, 63, 62
1, 110915, Control_c, 0, 67, 92
1, 110922, Note_on_c, 0, 77, 73
1, 110930, Control_c, 0, 67, 93
1, 110960, Control_c, 0, 67, 93
1, 110975, Control_c, 0, 67, 94
1, 110988, Note_off_c, 0, 77, 61
1, 110993, Note_on_c, 0, 74, 73
1, 111004, Control_c, 0, 67, 94
1, 111048, Control_c, 0, 67, 95
1, 111057, Note_off_c, 0, 74, 56
1, 111063, Control_c, 0, 67, 96
1, 111076, Note_on_c, 0, 75, 78
1, 111078, Control_c, 0, 67, 97
1, 111093, Control_c, 0, 67, 100
1, 111108, Control_c, 0, 67, 104
1, 111122, Control_c, 0, 67, 106
1, 111135, Note_off_c, 0, 75, 62
1, 111137, Control_c, 0, 67, 107
1, 111152, Control_c, 0, 67, 107
1, 111165, Note_on_c, 0, 73, 76
1, 111196, Control_c, 0, 64, 39
1, 111211, Control_c, 0, 64, 59
1, 111234, Control_c, 0, 64, 64
1, 111234, Control_c, 0, 67, 107
1, 111249, Control_c, 0, 64, 66
1, 111263, Control_c, 0, 64, 69
1, 111263, Control_c, 0, 67, 106
1, 111278, Control_c, 0, 64, 71
1, 111278, Control_c, 0, 67, 105
1, 111293, Control_c, 0, 64, 74
1, 111293, Control_c, 0, 67, 105
1, 111308, Control_c, 0, 64, 76
1, 111323, Control_c, 0, 64, 78
1, 111337, Control_c, 0, 64, 79
1, 111339, Note_on_c, 0, 82, 84
1, 111348, Note_off_c, 0, 73, 54
1, 111352, Control_c, 0, 64, 79
1, 111352, Control_c, 0, 67, 104
1, 111382, Control_c, 0, 67, 103
1, 111411, Control_c, 0, 67, 103
1, 111426, Control_c, 0, 67, 102
1, 111441, Control_c, 0, 67, 102
1, 111455, Control_c, 0, 67, 101
1, 111465, Note_off_c, 0, 82, 56
1, 111500, Control_c, 0, 67, 101
1, 111526, Note_on_c, 0, 81, 81
1, 111529, Control_c, 0, 64, 79
1, 111538, Note_on_c, 0, 61, 56
1, 111540, Note_on_c, 0, 51, 53
1, 111544, Control_c, 0, 64, 76
1, 111559, Control_c, 0, 64, 72
1, 111574, Control_c, 0, 64, 67
1, 111589, Control_c, 0, 64, 60
1, 111604, Control_c, 0, 64, 56
1, 111619, Control_c, 0, 64, 60
1, 111634, Control_c, 0, 64, 63
1, 111648, Control_c, 0, 64, 65
1, 111663, Control_c, 0, 64, 66
1, 111678, Control_c, 0, 64, 68
1, 111693, Control_c, 0, 64, 71
1, 111708, Control_c, 0, 64, 74
1, 111708, Control_c, 0, 67, 101
1, 111721, Note_on_c, 0, 79, 80
1, 111723, Control_c, 0, 64, 76
1, 111738, Control_c, 0, 64, 79
1, 111749, Note_off_c, 0, 81, 58
1, 111753, Control_c, 0, 64, 79
1, 111753, Control_c, 0, 67, 102
1, 111768, Control_c, 0, 64, 80
1, 111768, Control_c, 0, 67, 102
1, 111789, Note_off_c, 0, 61, 63
1, 111813, Control_c, 0, 67, 102
1, 111827, Control_c, 0, 67, 101
1, 111842, Control_c, 0, 64, 79
1, 111853, Note_off_c, 0, 51, 58
1, 111857, Control_c, 0, 64, 77
1, 111857, Control_c, 0, 67, 101
1, 111871, Control_c, 0, 64, 73
1, 111871, Control_c, 0, 67, 100
1, 111875, Note_on_c, 0, 78, 68
1, 111876, Note_off_c, 0, 79, 58
1, 111886, Control_c, 0, 64, 65
1, 111886, Control_c, 0, 67, 100
1, 111895, Note_on_c, 0, 62, 55
1, 111901, Control_c, 0, 64, 26
1, 111901, Control_c, 0, 67, 99
1, 111904, Note_on_c, 0, 50, 47
1, 111916, Control_c, 0, 64, 0
1, 111916, Control_c, 0, 67, 98
1, 111931, Control_c, 0, 67, 97
1, 111938, Note_off_c, 0, 78, 62
1, 111945, Control_c, 0, 64, 42
1, 111945, Control_c, 0, 67, 96
1, 111955, Note_on_c, 0, 73, 67
1, 111960, Control_c, 0, 64, 57
1, 111960, Control_c, 0, 67, 96
1, 111983, Control_c, 0, 64, 62
1, 111983, Control_c, 0, 67, 95
1, 111997, Control_c, 0, 64, 64
1, 111997, Control_c, 0, 67, 95
1, 112004, Note_off_c, 0, 73, 63
1, 112012, Control_c, 0, 64, 65
1, 112012, Control_c, 0, 67, 94
1, 112027, Control_c, 0, 64, 66
1, 112042, Control_c, 0, 64, 67
1, 112042, Control_c, 0, 67, 94
1, 112044, Note_on_c, 0, 74, 74
1, 112057, Control_c, 0, 64, 68
1, 112072, Control_c, 0, 64, 68
1, 112076, Note_off_c, 0, 50, 64
1, 112081, Note_off_c, 0, 62, 62
1, 112086, Control_c, 0, 67, 94
1, 112101, Control_c, 0, 67, 95
1, 112108, Note_off_c, 0, 74, 59
1, 112116, Control_c, 0, 67, 96
1, 112120, Note_on_c, 0, 73, 76
1, 112131, Control_c, 0, 67, 97
1, 112146, Control_c, 0, 64, 68
1, 112146, Control_c, 0, 67, 97
1, 112160, Control_c, 0, 64, 65
1, 112160, Control_c, 0, 67, 98
1, 112173, Note_off_c, 0, 73, 63
1, 112175, Control_c, 0, 64, 46
1, 112190, Control_c, 0, 64, 0
1, 112190, Control_c, 0, 67, 99
1, 112215, Note_on_c, 0, 74, 68
1, 112268, Note_off_c, 0, 74, 59
1, 112289, Note_on_c, 0, 73, 69
1, 112353, Note_off_c, 0, 73, 58
1, 112373, Note_on_c, 0, 74, 69
1, 112412, Control_c, 0, 67, 99
1, 112421, Note_off_c, 0, 74, 59
1, 112442, Control_c, 0, 67, 100
1, 112457, Note_on_c, 0, 73, 67
1, 112508, Note_off_c, 0, 73, 56
1, 112528, Note_on_c, 0, 74, 67
1, 112531, Control_c, 0, 67, 100
1, 112546, Control_c, 0, 67, 101
1, 112561, Control_c, 0, 67, 101
1, 112576, Control_c, 0, 67, 102
1, 112587, Note_off_c, 0, 74, 52
1, 112605, Control_c, 0, 67, 103
1, 112608, Note_on_c, 0, 75, 67
1, 112620, Control_c, 0, 67, 103
1, 112635, Control_c, 0, 67, 104
1, 112649, Note_off_c, 0, 75, 56
1, 112649, Control_c, 0, 67, 104
1, 112664, Control_c, 0, 67, 105
1, 112690, Note_on_c, 0, 72, 67
1, 112732, Note_off_c, 0, 72, 58
1, 112761, Control_c, 0, 67, 104
1, 112769, Note_on_c, 0, 74, 69
1, 112790, Control_c, 0, 67, 103
1, 112805, Control_c, 0, 67, 103
1, 112820, Control_c, 0, 67, 102
1, 112834, Control_c, 0, 67, 101
1, 112835, Note_off_c, 0, 74, 62
1, 112844, Note_on_c, 0, 60, 56
1, 112849, Control_c, 0, 67, 101
1, 112852, Note_on_c, 0, 70, 69
1, 112874, Note_on_c, 0, 50, 32
1, 112879, Control_c, 0, 67, 100
1, 112897, Note_off_c, 0, 70, 64
1, 112923, Control_c, 0, 67, 99
1, 112929, Note_on_c, 0, 72, 68
1, 112982, Control_c, 0, 67, 100
1, 112987, Note_off_c, 0, 72, 59
1, 112997, Control_c, 0, 67, 100
1, 113012, Control_c, 0, 67, 101
1, 113017, Note_on_c, 0, 69, 67
1, 113026, Control_c, 0, 67, 101
1, 113041, Control_c, 0, 67, 102
1, 113047, Note_off_c, 0, 69, 66
1, 113056, Control_c, 0, 67, 102
1, 113092, Note_on_c, 0, 70, 70
1, 113100, Control_c, 0, 67, 103
1, 113115, Control_c, 0, 67, 103
1, 113134, Note_off_c, 0, 70, 63
1, 113145, Control_c, 0, 67, 104
1, 113160, Control_c, 0, 67, 104
1, 113171, Note_off_c, 0, 60, 54
1, 113175, Note_on_c, 0, 58, 43
1, 113177, Note_on_c, 0, 51, 40
1, 113178, Note_on_c, 0, 67, 66
1, 113184, Note_off_c, 0, 50, 39
1, 113205, Control_c, 0, 67, 105
1, 113207, Note_off_c, 0, 67, 66
1, 113249, Note_on_c, 0, 69, 67
1, 113249, Control_c, 0, 67, 105
1, 113294, Control_c, 0, 67, 106
1, 113306, Note_off_c, 0, 69, 62
1, 113341, Note_on_c, 0, 65, 63
1, 113369, Control_c, 0, 67, 106
1, 113374, Note_off_c, 0, 65, 64
1, 113384, Control_c, 0, 67, 107
1, 113398, Control_c, 0, 67, 110
1, 113407, Note_on_c, 0, 67, 72
1, 113413, Control_c, 0, 67, 114
1, 113428, Control_c, 0, 67, 116
1, 113446, Note_off_c, 0, 58, 59
1, 113448, Note_off_c, 0, 51, 57
1, 113460, Note_off_c, 0, 67, 57
1, 113494, Control_c, 0, 67, 115
1, 113502, Note_on_c, 0, 63, 66
1, 113509, Control_c, 0, 67, 115
1, 113524, Control_c, 0, 67, 114
1, 113539, Control_c, 0, 67, 114
1, 113553, Control_c, 0, 67, 113
1, 113568, Note_off_c, 0, 63, 61
1, 113574, Note_on_c, 0, 65, 71
1, 113628, Control_c, 0, 67, 114
1, 113656, Note_off_c, 0, 65, 64
1, 113663, Note_on_c, 0, 62, 71
1, 113687, Control_c, 0, 67, 114
1, 113717, Control_c, 0, 67, 115
1, 113721, Note_off_c, 0, 62, 59
1, 113729, Note_on_c, 0, 63, 71
1, 113805, Note_off_c, 0, 63, 63
1, 113825, Note_on_c, 0, 61, 73
1, 113849, Control_c, 0, 67, 115
1, 113879, Control_c, 0, 67, 116
1, 113923, Control_c, 0, 67, 115
1, 113938, Control_c, 0, 67, 115
1, 113992, Note_off_c, 0, 61, 59
1, 113998, Control_c, 0, 67, 114
1, 113998, Note_on_c, 0, 67, 72
1, 114013, Control_c, 0, 67, 114
1, 114034, Note_on_c, 0, 55, 42
1, 114042, Control_c, 0, 67, 113
1, 114057, Control_c, 0, 67, 112
1, 114072, Control_c, 0, 67, 111
1, 114087, Control_c, 0, 67, 111
1, 114107, Poly_aftertouch_c, 0, 51, 127
1, 114118, Control_c, 0, 67, 110
1, 114147, Note_off_c, 0, 67, 60
1, 114152, Note_on_c, 0, 70, 71
1, 114199, Poly_aftertouch_c, 0, 51, 0
1, 114243, Poly_aftertouch_c, 0, 51, 127
1, 114248, Note_on_c, 0, 51, 3
1, 114288, Control_c, 0, 67, 110
1, 114303, Note_off_c, 0, 70, 59
1, 114303, Control_c, 0, 67, 109
1, 114329, Note_on_c, 0, 61, 64
1, 114333, Note_off_c, 0, 51, 55
1, 114377, Control_c, 0, 67, 108
1, 114407, Control_c, 0, 67, 108
1, 114421, Control_c, 0, 67, 107
1, 114443, Note_off_c, 0, 61, 60
1, 114451, Control_c, 0, 67, 106
1, 114481, Control_c, 0, 67, 105
1, 114498, Note_on_c, 0, 62, 56
1, 114501, Note_on_c, 0, 54, 49
1, 114509, Note_off_c, 0, 55, 52
1, 114524, Note_on_c, 0, 50, 27
1, 114529, Note_off_c, 0, 62, 62
1, 114541, Note_off_c, 0, 54, 62
1, 114551, Note_off_c, 0, 50, 49
1, 114585, Control_c, 0, 67, 106
1, 114599, Control_c, 0, 67, 106
1, 114614, Control_c, 0, 67, 107
1, 114629, Control_c, 0, 67, 107
1, 114644, Control_c, 0, 67, 108
1, 114652, Note_on_c, 0, 74, 60
1, 114659, Control_c, 0, 67, 108
1, 114673, Control_c, 0, 67, 109
1, 114679, Note_off_c, 0, 74, 69
1, 114762, Control_c, 0, 67, 109
1, 114811, Note_on_c, 0, 58, 48
1, 114817, Note_on_c, 0, 55, 30
1, 114835, Note_on_c, 0, 50, 28
1, 114895, Note_off_c, 0, 55, 57
1, 114898, Note_off_c, 0, 50, 55
1, 114898, Note_off_c, 0, 58, 61
1, 114992, Note_on_c, 0, 74, 65
1, 115015, Note_off_c, 0, 74, 72
1, 115111, Control_c, 0, 67, 109
1, 115126, Control_c, 0, 67, 108
1, 115156, Note_on_c, 0, 57, 51
1, 115169, Note_on_c, 0, 54, 44
1, 115176, Note_on_c, 0, 50, 45
1, 115253, Note_off_c, 0, 50, 62
1, 115258, Note_off_c, 0, 57, 59
1, 115290, Note_off_c, 0, 54, 60
1, 115317, Note_on_c, 0, 74, 69
1, 115343, Note_off_c, 0, 74, 67
1, 115363, Control_c, 0, 67, 108
1, 115393, Control_c, 0, 67, 107
1, 115408, Control_c, 0, 67, 107
1, 115480, Note_on_c, 0, 58, 52
1, 115482, Control_c, 0, 67, 106
1, 115492, Note_on_c, 0, 55, 41
1, 115502, Note_on_c, 0, 50, 31
1, 115526, Control_c, 0, 67, 107
1, 115570, Control_c, 0, 67, 106
1, 115583, Control_c, 0, 67, 106
1, 115611, Note_off_c, 0, 55, 56
1, 115613, Control_c, 0, 67, 105
1, 115619, Note_off_c, 0, 58, 56
1, 115624, Note_off_c, 0, 50, 47
1, 115651, Note_on_c, 0, 74, 62
1, 115678, Note_off_c, 0, 74, 70
1, 115688, Control_c, 0, 67, 105
1, 115740, Control_c, 0, 67, 104
1, 115864, Note_on_c, 0, 57, 36
1, 115873, Control_c, 0, 67, 105
1, 115876, Note_on_c, 0, 50, 26
1, 115876, Note_on_c, 0, 54, 39
1, 115992, Control_c, 0, 67, 105
1, 116007, Control_c, 0, 67, 106
1, 116049, Note_on_c, 0, 74, 48
1, 116066, Control_c, 0, 67, 106
1, 116081, Control_c, 0, 67, 107
1, 116111, Control_c, 0, 67, 108
1, 116140, Control_c, 0, 67, 108
1, 116221, Note_off_c, 0, 74, 60
1, 116225, Note_on_c, 0, 73, 59
1, 116229, Control_c, 0, 67, 109
1, 116273, Control_c, 0, 67, 108
1, 116303, Control_c, 0, 67, 108
1, 116391, Control_c, 0, 67, 108
1, 116394, Note_off_c, 0, 73, 61
1, 116400, Note_on_c, 0, 74, 66
1, 116473, Control_c, 0, 67, 109
1, 116488, Control_c, 0, 67, 109
1, 116519, Control_c, 0, 67, 110
1, 116576, Note_on_c, 0, 73, 71
1, 116600, Note_off_c, 0, 74, 59
1, 116740, Control_c, 0, 67, 110
1, 116746, Note_on_c, 0, 74, 71
1, 116767, Note_off_c, 0, 73, 61
1, 116770, Control_c, 0, 67, 111
1, 116785, Control_c, 0, 64, 45
1, 116794, Note_off_c, 0, 50, 46
1, 116800, Control_c, 0, 64, 58
1, 116800, Control_c, 0, 67, 112
1, 116815, Control_c, 0, 64, 62
1, 116829, Note_off_c, 0, 57, 55
1, 116829, Control_c, 0, 64, 64
1, 116844, Control_c, 0, 64, 66
1, 116859, Control_c, 0, 64, 67
1, 116874, Control_c, 0, 64, 68
1, 116888, Note_off_c, 0, 54, 43
1, 116889, Control_c, 0, 64, 69
1, 116916, Note_on_c, 0, 73, 79
1, 116934, Control_c, 0, 64, 68
1, 116937, Note_off_c, 0, 74, 64
1, 116948, Control_c, 0, 64, 68
1, 116978, Control_c, 0, 64, 67
1, 116978, Control_c, 0, 67, 111
1, 116992, Control_c, 0, 64, 67
1, 117007, Control_c, 0, 64, 66
1, 117022, Control_c, 0, 64, 65
1, 117037, Control_c, 0, 64, 65
1, 117052, Control_c, 0, 64, 64
1, 117052, Control_c, 0, 67, 111
1, 117066, Control_c, 0, 64, 64
1, 117066, Control_c, 0, 67, 110
1, 117082, Control_c, 0, 64, 63
1, 117082, Control_c, 0, 67, 110
1, 117085, Note_on_c, 0, 74, 81
1, 117097, Control_c, 0, 64, 62
1, 117097, Control_c, 0, 67, 109
1, 117112, Control_c, 0, 64, 61
1, 117127, Control_c, 0, 64, 59
1, 117127, Control_c, 0, 67, 109
1, 117141, Control_c, 0, 64, 58
1, 117151, Note_off_c, 0, 73, 62
1, 117156, Control_c, 0, 64, 57
1, 117171, Control_c, 0, 64, 56
1, 117185, Control_c, 0, 64, 55
1, 117200, Control_c, 0, 64, 54
1, 117223, Control_c, 0, 64, 53
1, 117223, Control_c, 0, 67, 108
1, 117238, Control_c, 0, 64, 50
1, 117253, Control_c, 0, 64, 45
1, 117265, Note_on_c, 0, 77, 74
1, 117267, Control_c, 0, 64, 36
1, 117267, Control_c, 0, 67, 108
1, 117282, Control_c, 0, 64, 18
1, 117293, Note_off_c, 0, 74, 61
1, 117297, Control_c, 0, 64, 0
1, 117312, Control_c, 0, 67, 107
1, 117327, Control_c, 0, 67, 107
1, 117357, Control_c, 0, 67, 106
1, 117387, Control_c, 0, 67, 105
1, 117402, Control_c, 0, 67, 104
1, 117416, Control_c, 0, 67, 104
1, 117431, Control_c, 0, 67, 103
1, 117437, Note_on_c, 0, 69, 51
1, 117438, Note_on_c, 0, 60, 43
1, 117441, Note_on_c, 0, 65, 43
1, 117446, Control_c, 0, 67, 102
1, 117459, Note_off_c, 0, 69, 60
1, 117461, Control_c, 0, 67, 101
1, 117463, Note_off_c, 0, 60, 53
1, 117466, Note_off_c, 0, 65, 58
1, 117476, Control_c, 0, 67, 97
1, 117490, Control_c, 0, 67, 94
1, 117505, Control_c, 0, 67, 91
1, 117520, Control_c, 0, 67, 87
1, 117535, Control_c, 0, 67, 84
1, 117550, Control_c, 0, 67, 83
1, 117564, Control_c, 0, 67, 84
1, 117579, Control_c, 0, 67, 85
1, 117594, Control_c, 0, 67, 86
1, 117597, Note_on_c, 0, 69, 52
1, 117599, Note_on_c, 0, 60, 40
1, 117603, Note_on_c, 0, 65, 47
1, 117603, Note_on_c, 0, 75, 57
1, 117609, Control_c, 0, 67, 86
1, 117610, Note_off_c, 0, 77, 52
1, 117623, Control_c, 0, 67, 87
1, 117637, Note_off_c, 0, 60, 63
1, 117638, Control_c, 0, 67, 87
1, 117640, Note_off_c, 0, 65, 66
1, 117640, Note_off_c, 0, 69, 65
1, 117683, Control_c, 0, 67, 88
1, 117727, Control_c, 0, 67, 88
1, 117757, Control_c, 0, 67, 89
1, 117771, Note_on_c, 0, 69, 65
1, 117771, Control_c, 0, 67, 89
1, 117781, Note_on_c, 0, 65, 53
1, 117783, Note_on_c, 0, 60, 43
1, 117801, Note_off_c, 0, 69, 68
1, 117801, Control_c, 0, 67, 90
1, 117804, Note_off_c, 0, 75, 61
1, 117805, Note_off_c, 0, 65, 66
1, 117808, Note_off_c, 0, 60, 57
1, 117816, Control_c, 0, 67, 90
1, 117846, Control_c, 0, 67, 91
1, 117890, Control_c, 0, 67, 90
1, 117935, Control_c, 0, 67, 90
1, 117945, Note_on_c, 0, 60, 31
1, 117945, Note_on_c, 0, 69, 54
1, 117953, Note_on_c, 0, 65, 44
1, 118016, Control_c, 0, 67, 90
1, 118028, Note_on_c, 0, 75, 59
1, 118076, Note_off_c, 0, 75, 63
1, 118091, Control_c, 0, 67, 91
1, 118102, Note_on_c, 0, 74, 65
1, 118120, Control_c, 0, 67, 91
1, 118135, Control_c, 0, 67, 93
1, 118150, Control_c, 0, 67, 95
1, 118164, Note_off_c, 0, 74, 54
1, 118165, Control_c, 0, 67, 96
1, 118180, Control_c, 0, 67, 96
1, 118181, Note_on_c, 0, 75, 69
1, 118210, Control_c, 0, 67, 96
1, 118237, Note_off_c, 0, 75, 63
1, 118254, Control_c, 0, 67, 95
1, 118254, Note_on_c, 0, 77, 74
1, 118313, Note_off_c, 0, 60, 45
1, 118313, Control_c, 0, 67, 95
1, 118318, Note_off_c, 0, 77, 59
1, 118320, Note_off_c, 0, 69, 38
1, 118328, Control_c, 0, 67, 94
1, 118335, Note_on_c, 0, 75, 73
1, 118337, Note_off_c, 0, 65, 58
1, 118372, Note_off_c, 0, 75, 64
1, 118402, Control_c, 0, 67, 94
1, 118404, Note_on_c, 0, 74, 65
1, 118432, Control_c, 0, 67, 93
1, 118446, Control_c, 0, 67, 93
1, 118460, Note_off_c, 0, 74, 53
1, 118474, Note_on_c, 0, 75, 72
1, 118491, Control_c, 0, 67, 92
1, 118506, Control_c, 0, 67, 92
1, 118538, Note_off_c, 0, 75, 63
1, 118562, Note_on_c, 0, 82, 79
1, 118734, Note_on_c, 0, 72, 56
1, 118738, Note_on_c, 0, 75, 52
1, 118750, Control_c, 0, 67, 91
1, 118755, Note_on_c, 0, 65, 27
1, 118759, Note_off_c, 0, 75, 62
1, 118763, Note_off_c, 0, 72, 62
1, 118765, Control_c, 0, 67, 91
1, 118779, Control_c, 0, 67, 90
1, 118780, Note_off_c, 0, 65, 48
1, 118794, Control_c, 0, 67, 90
1, 118839, Control_c, 0, 67, 90
1, 118910, Note_on_c, 0, 72, 43
1, 118910, Note_on_c, 0, 81, 68
1, 118912, Note_off_c, 0, 82, 60
1, 118913, Note_on_c, 0, 65, 44
1, 118916, Note_on_c, 0, 75, 53
1, 118942, Note_off_c, 0, 75, 63
1, 118952, Note_off_c, 0, 65, 64
1, 118957, Note_off_c, 0, 72, 62
1, 118973, Control_c, 0, 67, 90
1, 118988, Control_c, 0, 67, 89
1, 119003, Control_c, 0, 67, 89
1, 119017, Control_c, 0, 67, 88
1, 119032, Control_c, 0, 67, 87
1, 119047, Control_c, 0, 67, 87
1, 119077, Control_c, 0, 67, 86
1, 119084, Note_on_c, 0, 65, 49
1, 119085, Note_on_c, 0, 72, 49
1, 119086, Note_on_c, 0, 75, 52
1, 119092, Control_c, 0, 67, 86
1, 119099, Note_off_c, 0, 81, 33
1, 119107, Control_c, 0, 67, 85
1, 119110, Note_off_c, 0, 75, 61
1, 119113, Note_off_c, 0, 72, 59
1, 119116, Note_off_c, 0, 65, 55
1, 119136, Control_c, 0, 67, 86
1, 119240, Control_c, 0, 67, 86
1, 119247, Note_on_c, 0, 72, 37
1, 119247, Note_on_c, 0, 75, 46
1, 119250, Note_on_c, 0, 65, 51
1, 119269, Control_c, 0, 67, 87
1, 119325, Note_on_c, 0, 81, 68
1, 119328, Control_c, 0, 67, 87
1, 119372, Control_c, 0, 67, 88
1, 119376, Note_off_c, 0, 81, 60
1, 119387, Control_c, 0, 67, 88
1, 119401, Note_on_c, 0, 79, 66
1, 119446, Note_off_c, 0, 79, 52
1, 119447, Control_c, 0, 67, 89
1, 119468, Control_c, 0, 67, 90
1, 119481, Note_on_c, 0, 81, 71
1, 119483, Control_c, 0, 67, 90
1, 119528, Control_c, 0, 67, 91
1, 119530, Note_off_c, 0, 81, 59
1, 119542, Control_c, 0, 67, 91
1, 119554, Note_on_c, 0, 82, 77
1, 119587, Control_c, 0, 67, 91
1, 119596, Note_off_c, 0, 72, 54
1, 119605, Note_off_c, 0, 75, 45
1, 119619, Note_off_c, 0, 82, 61
1, 119628, Note_on_c, 0, 81, 78
1, 119632, Control_c, 0, 67, 90
1, 119645, Note_off_c, 0, 65, 38
1, 119646, Control_c, 0, 67, 90
1, 119661, Control_c, 0, 67, 89
1, 119664, Note_off_c, 0, 81, 62
1, 119676, Control_c, 0, 67, 89
1, 119691, Control_c, 0, 67, 88
1, 119706, Note_on_c, 0, 79, 67
1, 119721, Control_c, 0, 67, 88
1, 119736, Control_c, 0, 67, 87
1, 119757, Note_off_c, 0, 79, 52
1, 119776, Note_on_c, 0, 81, 74
1, 119781, Control_c, 0, 67, 87
1, 119846, Note_off_c, 0, 81, 55
1, 119863, Note_on_c, 0, 89, 73
1, 119929, Control_c, 0, 67, 86
1, 119944, Control_c, 0, 67, 86
1, 119958, Control_c, 0, 67, 85
1, 119973, Control_c, 0, 67, 84
1, 119988, Control_c, 0, 67, 83
1, 120003, Control_c, 0, 67, 81
1, 120017, Control_c, 0, 67, 79
1, 120047, Control_c, 0, 64, 62
1, 120062, Control_c, 0, 64, 69
1, 120067, Note_on_c, 0, 65, 43
1, 120077, Control_c, 0, 64, 74
1, 120091, Control_c, 0, 64, 77
1, 120106, Control_c, 0, 64, 79
1, 120106, Control_c, 0, 67, 78
1, 120121, Control_c, 0, 64, 80
1, 120121, Control_c, 0, 67, 77
1, 120136, Control_c, 0, 64, 81
1, 120136, Control_c, 0, 67, 76
1, 120151, Control_c, 0, 64, 84
1, 120151, Control_c, 0, 67, 72
1, 120165, Control_c, 0, 64, 87
1, 120165, Control_c, 0, 67, 64
1, 120180, Control_c, 0, 64, 90
1, 120180, Control_c, 0, 67, 57
1, 120195, Control_c, 0, 64, 92
1, 120195, Control_c, 0, 67, 51
1, 120196, Note_on_c, 0, 87, 77
1, 120217, Control_c, 0, 64, 94
1, 120217, Control_c, 0, 67, 45
1, 120228, Note_off_c, 0, 89, 57
1, 120232, Control_c, 0, 64, 96
1, 120232, Control_c, 0, 67, 39
1, 120243, Note_on_c, 0, 72, 45
1, 120247, Control_c, 0, 64, 97
1, 120247, Control_c, 0, 67, 34
1, 120262, Control_c, 0, 64, 98
1, 120262, Control_c, 0, 67, 27
1, 120277, Control_c, 0, 64, 98
1, 120277, Control_c, 0, 67, 22
1, 120291, Control_c, 0, 67, 17
1, 120295, Note_off_c, 0, 87, 63
1, 120306, Control_c, 0, 67, 12
1, 120321, Control_c, 0, 67, 9
1, 120336, Control_c, 0, 67, 0
1, 120365, Note_off_c, 0, 72, 62
1, 120375, Note_off_c, 0, 65, 41
1, 120383, Note_on_c, 0, 75, 57
1, 120469, Control_c, 0, 64, 98
1, 120485, Control_c, 0, 67, 8
1, 120500, Control_c, 0, 67, 9
1, 120514, Control_c, 0, 64, 97
1, 120514, Control_c, 0, 67, 10
1, 120529, Control_c, 0, 64, 96
1, 120529, Control_c, 0, 67, 11
1, 120532, Note_on_c, 0, 66, 65
1, 120544, Control_c, 0, 64, 95
1, 120544, Control_c, 0, 67, 12
1, 120559, Control_c, 0, 64, 92
1, 120559, Control_c, 0, 67, 12
1, 120574, Control_c, 0, 64, 90
1, 120574, Control_c, 0, 67, 13
1, 120588, Control_c, 0, 64, 87
1, 120588, Control_c, 0, 67, 14
1, 120603, Control_c, 0, 64, 85
1, 120603, Control_c, 0, 67, 15
1, 120611, Note_off_c, 0, 75, 28
1, 120618, Control_c, 0, 64, 81
1, 120621, Note_on_c, 0, 87, 73
1, 120633, Control_c, 0, 64, 75
1, 120633, Control_c, 0, 67, 15
1, 120648, Control_c, 0, 64, 67
1, 120663, Control_c, 0, 64, 50
1, 120663, Control_c, 0, 67, 16
1, 120672, Note_off_c, 0, 87, 60
1, 120678, Control_c, 0, 64, 0
1, 120693, Control_c, 0, 67, 15
1, 120695, Note_on_c, 0, 86, 73
1, 120707, Control_c, 0, 67, 16
1, 120722, Control_c, 0, 67, 16
1, 120737, Control_c, 0, 67, 17
1, 120752, Control_c, 0, 67, 19
1, 120764, Note_on_c, 0, 87, 78
1, 120765, Note_off_c, 0, 86, 62
1, 120767, Control_c, 0, 67, 22
1, 120781, Control_c, 0, 67, 23
1, 120796, Control_c, 0, 67, 24
1, 120838, Note_on_c, 0, 89, 81
1, 120841, Note_off_c, 0, 87, 62
1, 120856, Control_c, 0, 67, 25
1, 120871, Control_c, 0, 67, 25
1, 120913, Note_on_c, 0, 87, 75
1, 120915, Control_c, 0, 67, 26
1, 120924, Note_off_c, 0, 89, 64
1, 120945, Control_c, 0, 67, 26
1, 120967, Control_c, 0, 67, 28
1, 120968, Note_off_c, 0, 66, 51
1, 120982, Control_c, 0, 67, 29
1, 120995, Note_off_c, 0, 87, 64
1, 120997, Note_on_c, 0, 85, 82
1, 120997, Control_c, 0, 67, 30
1, 121012, Control_c, 0, 67, 30
1, 121041, Control_c, 0, 67, 30
1, 121065, Note_off_c, 0, 85, 64
1, 121068, Note_on_c, 0, 84, 79
1, 121071, Control_c, 0, 67, 29
1, 121086, Control_c, 0, 67, 29
1, 121101, Control_c, 0, 67, 28
1, 121115, Control_c, 0, 67, 28
1, 121145, Control_c, 0, 67, 27
1, 121158, Note_on_c, 0, 82, 86
1, 121159, Control_c, 0, 67, 26
1, 121174, Control_c, 0, 67, 26
1, 121177, Note_off_c, 0, 84, 57
1, 121189, Control_c, 0, 67, 25
1, 121204, Control_c, 0, 67, 24
1, 121233, Control_c, 0, 67, 24
1, 121248, Control_c, 0, 67, 23
1, 121309, Control_c, 0, 67, 24
1, 121324, Control_c, 0, 67, 24
1, 121344, Note_on_c, 0, 65, 55
1, 121412, Control_c, 0, 67, 25
1, 121427, Control_c, 0, 67, 25
1, 121456, Control_c, 0, 67, 26
1, 121471, Control_c, 0, 67, 26
1, 121486, Control_c, 0, 67, 27
1, 121495, Note_on_c, 0, 81, 83
1, 121506, Note_off_c, 0, 82, 61
1, 121513, Note_on_c, 0, 72, 53
1, 121531, Control_c, 0, 64, 57
1, 121545, Control_c, 0, 64, 66
1, 121560, Control_c, 0, 64, 71
1, 121560, Control_c, 0, 67, 28
1, 121575, Control_c, 0, 64, 75
1, 121575, Control_c, 0, 67, 29
1, 121590, Control_c, 0, 64, 78
1, 121590, Control_c, 0, 67, 29
1, 121605, Control_c, 0, 64, 79
1, 121605, Control_c, 0, 67, 30
1, 121620, Control_c, 0, 64, 80
1, 121626, Note_off_c, 0, 81, 58
1, 121635, Control_c, 0, 67, 29
1, 121650, Control_c, 0, 64, 80
1, 121660, Note_off_c, 0, 72, 61
1, 121664, Control_c, 0, 67, 29
1, 121675, Note_on_c, 0, 75, 66
1, 121691, Note_off_c, 0, 65, 40
1, 121731, Control_c, 0, 67, 29
1, 121745, Control_c, 0, 67, 30
1, 121775, Control_c, 0, 67, 30
1, 121790, Control_c, 0, 64, 80
1, 121790, Control_c, 0, 67, 31
1, 121805, Control_c, 0, 64, 78
1, 121805, Control_c, 0, 67, 31
1, 121820, Control_c, 0, 64, 74
1, 121820, Control_c, 0, 67, 33
1, 121832, Note_on_c, 0, 66, 80
1, 121834, Control_c, 0, 64, 66
1, 121834, Control_c, 0, 67, 40
1, 121836, Note_off_c, 0, 75, 48
1, 121849, Control_c, 0, 64, 26
1, 121849, Control_c, 0, 67, 55
1, 121864, Control_c, 0, 64, 0
1, 121864, Control_c, 0, 67, 73
1, 121879, Control_c, 0, 67, 78
1, 121894, Control_c, 0, 67, 76
1, 121909, Control_c, 0, 67, 76
1, 121917, Note_on_c, 0, 87, 73
1, 121924, Control_c, 0, 67, 75
1, 121938, Control_c, 0, 67, 76
1, 121968, Control_c, 0, 67, 77
1, 121975, Note_off_c, 0, 87, 63
1, 121989, Note_on_c, 0, 86, 75
1, 121997, Control_c, 0, 67, 77
1, 122042, Control_c, 0, 67, 77
1, 122061, Note_on_c, 0, 87, 77
1, 122067, Note_off_c, 0, 86, 63
1, 122087, Control_c, 0, 67, 76
1, 122102, Control_c, 0, 67, 75
1, 122117, Control_c, 0, 67, 75
1, 122131, Note_off_c, 0, 87, 62
1, 122132, Note_on_c, 0, 89, 82
1, 122132, Control_c, 0, 67, 74
1, 122147, Control_c, 0, 67, 73
1, 122161, Control_c, 0, 67, 72
1, 122176, Control_c, 0, 67, 71
1, 122191, Control_c, 0, 67, 70
1, 122205, Control_c, 0, 67, 69
1, 122210, Note_off_c, 0, 89, 62
1, 122212, Note_on_c, 0, 87, 80
1, 122250, Control_c, 0, 67, 70
1, 122267, Note_off_c, 0, 87, 65
1, 122285, Note_on_c, 0, 85, 74
1, 122339, Control_c, 0, 67, 70
1, 122344, Note_off_c, 0, 85, 64
1, 122352, Note_on_c, 0, 84, 71
1, 122354, Control_c, 0, 67, 71
1, 122362, Note_off_c, 0, 66, 53
1, 122395, Note_off_c, 0, 84, 65
1, 122398, Control_c, 0, 67, 72
1, 122413, Control_c, 0, 67, 72
1, 122428, Control_c, 0, 67, 73
1, 122437, Note_on_c, 0, 82, 77
1, 122443, Control_c, 0, 67, 74
1, 122465, Control_c, 0, 67, 74
1, 122466, Note_on_c, 0, 65, 35
1, 122495, Poly_aftertouch_c, 0, 66, 0
1, 122496, Note_off_c, 0, 65, 43
1, 122507, Note_off_c, 0, 82, 64
1, 122514, Note_on_c, 0, 81, 83
1, 122524, Control_c, 0, 67, 74
1, 122554, Control_c, 0, 67, 73
1, 122571, Note_off_c, 0, 81, 59
1, 122597, Note_on_c, 0, 87, 76
1, 122598, Control_c, 0, 67, 73
1, 122664, Note_off_c, 0, 87, 63
1, 122669, Note_on_c, 0, 86, 78
1, 122687, Control_c, 0, 67, 72
1, 122717, Control_c, 0, 67, 71
1, 122732, Control_c, 0, 67, 71
1, 122744, Note_on_c, 0, 66, 65
1, 122747, Control_c, 0, 67, 70
1, 122748, Note_on_c, 0, 75, 65
1, 122748, Note_on_c, 0, 89, 80
1, 122750, Note_on_c, 0, 72, 60
1, 122750, Note_off_c, 0, 86, 63
1, 122761, Control_c, 0, 67, 70
1, 122820, Control_c, 0, 67, 71
1, 122827, Note_on_c, 0, 87, 79
1, 122833, Note_off_c, 0, 89, 65
1, 122850, Control_c, 0, 67, 71
1, 122881, Control_c, 0, 67, 72
1, 122892, Note_off_c, 0, 87, 64
1, 122911, Note_on_c, 0, 85, 74
1, 122925, Control_c, 0, 67, 71
1, 122940, Control_c, 0, 67, 71
1, 122957, Note_off_c, 0, 85, 61
1, 122976, Note_on_c, 0, 84, 68
1, 123018, Note_off_c, 0, 84, 62
1, 123028, Control_c, 0, 67, 71
1, 123043, Control_c, 0, 67, 72
1, 123054, Note_on_c, 0, 82, 78
1, 123054, Note_off_c, 0, 66, 52
1, 123058, Control_c, 0, 67, 73
1, 123059, Note_off_c, 0, 75, 50
1, 123060, Note_on_c, 0, 65, 62
1, 123072, Control_c, 0, 67, 74
1, 123074, Note_off_c, 0, 72, 61
1, 123087, Control_c, 0, 67, 75
1, 123088, Note_off_c, 0, 65, 68
1, 123101, Control_c, 0, 67, 75
1, 123110, Note_off_c, 0, 82, 64
1, 123116, Control_c, 0, 67, 76
1, 123127, Note_on_c, 0, 81, 80
1, 123146, Control_c, 0, 67, 77
1, 123189, Note_off_c, 0, 81, 57
1, 123216, Note_on_c, 0, 87, 74
1, 123228, Control_c, 0, 67, 76
1, 123272, Control_c, 0, 67, 76
1, 123284, Note_off_c, 0, 87, 61
1, 123287, Control_c, 0, 67, 75
1, 123297, Note_on_c, 0, 86, 73
1, 123316, Control_c, 0, 67, 75
1, 123331, Control_c, 0, 67, 74
1, 123346, Control_c, 0, 67, 74
1, 123361, Control_c, 0, 67, 73
1, 123363, Note_on_c, 0, 89, 85
1, 123367, Note_off_c, 0, 86, 65
1, 123369, Note_on_c, 0, 72, 62
1, 123370, Note_on_c, 0, 66, 63
1, 123373, Note_on_c, 0, 75, 62
1, 123376, Control_c, 0, 67, 73
1, 123390, Control_c, 0, 67, 72
1, 123420, Control_c, 0, 67, 72
1, 123435, Control_c, 0, 67, 73
1, 123445, Note_on_c, 0, 87, 76
1, 123447, Note_off_c, 0, 89, 65
1, 123450, Control_c, 0, 67, 73
1, 123465, Control_c, 0, 67, 74
1, 123480, Control_c, 0, 67, 75
1, 123495, Control_c, 0, 67, 76
1, 123504, Note_off_c, 0, 87, 65
1, 123518, Note_on_c, 0, 85, 76
1, 123524, Control_c, 0, 67, 76
1, 123539, Control_c, 0, 67, 77
1, 123568, Control_c, 0, 67, 77
1, 123583, Control_c, 0, 67, 78
1, 123586, Note_off_c, 0, 85, 64
1, 123592, Note_on_c, 0, 84, 71
1, 123628, Control_c, 0, 67, 77
1, 123639, Note_off_c, 0, 84, 63
1, 123642, Control_c, 0, 67, 77
1, 123654, Note_off_c, 0, 66, 60
1, 123657, Control_c, 0, 67, 76
1, 123672, Control_c, 0, 67, 75
1, 123676, Note_on_c, 0, 82, 72
1, 123688, Control_c, 0, 67, 74
1, 123693, Note_on_c, 0, 65, 48
1, 123703, Control_c, 0, 67, 71
1, 123718, Control_c, 0, 67, 69
1, 123742, Note_off_c, 0, 82, 62
1, 123755, Note_on_c, 0, 81, 73
1, 123820, Note_off_c, 0, 81, 52
1, 123822, Control_c, 0, 67, 68
1, 123837, Control_c, 0, 67, 68
1, 123839, Note_on_c, 0, 84, 73
1, 123851, Control_c, 0, 67, 67
1, 123866, Control_c, 0, 67, 66
1, 123881, Control_c, 0, 67, 64
1, 123896, Control_c, 0, 67, 63
1, 123913, Note_on_c, 0, 83, 77
1, 123915, Note_off_c, 0, 84, 62
1, 123963, Control_c, 0, 67, 63
1, 123992, Control_c, 0, 67, 63
1, 123993, Note_off_c, 0, 83, 58
1, 124006, Note_on_c, 0, 86, 74
1, 124040, Note_off_c, 0, 65, 40
1, 124049, Note_off_c, 0, 75, 63
1, 124070, Note_off_c, 0, 86, 61
1, 124073, Note_on_c, 0, 84, 72
1, 124081, Control_c, 0, 67, 63
1, 124082, Note_off_c, 0, 72, 58
1, 124140, Control_c, 0, 67, 63
1, 124154, Note_on_c, 0, 82, 75
1, 124154, Note_off_c, 0, 84, 63
1, 124170, Control_c, 0, 67, 64
1, 124216, Note_off_c, 0, 82, 65
1, 124234, Note_on_c, 0, 81, 74
1, 124285, Note_off_c, 0, 81, 59
1, 124312, Note_on_c, 0, 79, 67
1, 124318, Control_c, 0, 67, 64
1, 124347, Control_c, 0, 67, 65
1, 124360, Note_off_c, 0, 79, 57
1, 124390, Note_on_c, 0, 77, 71
1, 124437, Control_c, 0, 67, 65
1, 124467, Note_off_c, 0, 77, 55
1, 124477, Note_on_c, 0, 79, 72
1, 124553, Note_on_c, 0, 78, 72
1, 124554, Note_off_c, 0, 79, 60
1, 124586, Control_c, 0, 67, 66
1, 124630, Control_c, 0, 67, 66
1, 124636, Note_on_c, 0, 81, 74
1, 124636, Note_off_c, 0, 78, 62
1, 124689, Control_c, 0, 67, 67
1, 124722, Note_off_c, 0, 81, 57
1, 124723, Note_on_c, 0, 79, 68
1, 124756, Control_c, 0, 67, 67
1, 124807, Note_off_c, 0, 79, 60
1, 124812, Note_on_c, 0, 77, 66
1, 124830, Control_c, 0, 67, 68
1, 124879, Note_off_c, 0, 77, 56
1, 124888, Note_on_c, 0, 75, 68
1, 124980, Note_off_c, 0, 75, 61
1, 124991, Note_on_c, 0, 74, 61
1, 125022, Control_c, 0, 67, 67
1, 125081, Control_c, 0, 67, 68
1, 125151, Note_off_c, 0, 74, 63
1, 125158, Note_on_c, 0, 72, 63
1, 125185, Control_c, 0, 67, 67
1, 125230, Control_c, 0, 67, 67
1, 125245, Control_c, 0, 67, 66
1, 125259, Control_c, 0, 67, 66
1, 125334, Control_c, 0, 67, 66
1, 125342, Note_off_c, 0, 72, 64
1, 125352, Note_on_c, 0, 74, 59
1, 125379, Control_c, 0, 67, 67
1, 125394, Control_c, 0, 67, 67
1, 125490, Control_c, 0, 67, 68
1, 125504, Control_c, 0, 67, 68
1, 125519, Control_c, 0, 67, 69
1, 125549, Control_c, 0, 67, 69
1, 125552, Note_off_c, 0, 74, 55
1, 125553, Note_on_c, 0, 75, 56
1, 125578, Control_c, 0, 67, 70
1, 125608, Control_c, 0, 67, 70
1, 125623, Control_c, 0, 67, 71
1, 125638, Control_c, 0, 67, 71
1, 125653, Control_c, 0, 67, 72
1, 125727, Control_c, 0, 67, 73
1, 125742, Control_c, 0, 67, 75
1, 125756, Control_c, 0, 67, 77
1, 125771, Control_c, 0, 67, 80
1, 125773, Note_on_c, 0, 76, 56
1, 125777, Note_off_c, 0, 75, 56
1, 125786, Control_c, 0, 67, 83
1, 125801, Control_c, 0, 67, 85
1, 125816, Control_c, 0, 67, 87
1, 125830, Control_c, 0, 67, 87
1, 125875, Control_c, 0, 67, 88
1, 125948, Control_c, 0, 67, 88
1, 125978, Control_c, 0, 67, 89
1, 125993, Control_c, 0, 67, 91
1, 126008, Control_c, 0, 67, 94
1, 126023, Control_c, 0, 67, 97
1, 126038, Control_c, 0, 67, 98
1, 126064, Note_off_c, 0, 76, 58
1, 126085, Note_on_c, 0, 77, 50
1, 126187, Control_c, 0, 64, 24
1, 126209, Control_c, 0, 64, 55
1, 126224, Control_c, 0, 64, 63
1, 126239, Control_c, 0, 64, 66
1, 126253, Control_c, 0, 64, 68
1, 126268, Control_c, 0, 64, 71
1, 126283, Control_c, 0, 64, 75
1, 126283, Control_c, 0, 67, 98
1, 126291, Note_off_c, 0, 77, 56
1, 126298, Control_c, 0, 64, 78
1, 126298, Control_c, 0, 67, 99
1, 126313, Control_c, 0, 64, 80
1, 126313, Control_c, 0, 67, 99
1, 126327, Control_c, 0, 64, 82
1, 126327, Control_c, 0, 67, 100
1, 126342, Control_c, 0, 64, 83
1, 126342, Control_c, 0, 67, 101
1, 126357, Control_c, 0, 64, 84
1, 126357, Control_c, 0, 67, 103
1, 126372, Control_c, 0, 64, 85
1, 126372, Control_c, 0, 67, 105
1, 126386, Control_c, 0, 67, 106
1, 126401, Control_c, 0, 67, 106
1, 126491, Control_c, 0, 67, 107
1, 126565, Control_c, 0, 64, 84
1, 126579, Control_c, 0, 67, 106
1, 126594, Control_c, 0, 64, 84
1, 126594, Control_c, 0, 67, 106
1, 126624, Control_c, 0, 64, 83
1, 126639, Control_c, 0, 67, 105
1, 126653, Control_c, 0, 64, 83
1, 126653, Control_c, 0, 67, 105
1, 126663, Note_on_c, 0, 79, 33
1, 126668, Control_c, 0, 64, 82
1, 126668, Control_c, 0, 67, 104
1, 126683, Control_c, 0, 64, 81
1, 126698, Control_c, 0, 64, 79
1, 126713, Control_c, 0, 64, 78
1, 126727, Control_c, 0, 64, 76
1, 126741, Note_on_c, 0, 77, 52
1, 126742, Control_c, 0, 64, 74
1, 126750, Note_off_c, 0, 79, 40
1, 126757, Control_c, 0, 64, 72
1, 126757, Control_c, 0, 67, 104
1, 126771, Control_c, 0, 64, 69
1, 126786, Control_c, 0, 64, 65
1, 126798, Note_off_c, 0, 77, 45
1, 126801, Control_c, 0, 64, 61
1, 126801, Control_c, 0, 67, 103
1, 126817, Control_c, 0, 64, 56
1, 126823, Note_on_c, 0, 75, 52
1, 126832, Control_c, 0, 64, 56
1, 126832, Control_c, 0, 67, 103
1, 126877, Control_c, 0, 64, 55
1, 126882, Note_off_c, 0, 75, 57
1, 126892, Control_c, 0, 64, 53
1, 126894, Note_on_c, 0, 74, 52
1, 126907, Control_c, 0, 64, 50
1, 126907, Control_c, 0, 67, 102
1, 126922, Control_c, 0, 64, 45
1, 126937, Control_c, 0, 64, 39
1, 126959, Control_c, 0, 64, 37
1, 126974, Control_c, 0, 64, 36
1, 126974, Control_c, 0, 67, 103
1, 126988, Control_c, 0, 64, 36
1, 126990, Note_off_c, 0, 74, 61
1, 127003, Control_c, 0, 64, 34
1, 127009, Note_on_c, 0, 72, 46
1, 127018, Control_c, 0, 64, 32
1, 127033, Control_c, 0, 64, 32
1, 127048, Control_c, 0, 67, 104
1, 127137, Control_c, 0, 64, 31
1, 127166, Control_c, 0, 64, 29
1, 127174, Note_off_c, 0, 72, 58
1, 127176, Note_on_c, 0, 70, 52
1, 127181, Control_c, 0, 64, 27
1, 127186, Note_on_c, 0, 58, 25
1, 127196, Control_c, 0, 64, 25
1, 127225, Control_c, 0, 64, 22
1, 127226, Note_off_c, 0, 70, 58
1, 127240, Control_c, 0, 64, 18
1, 127255, Control_c, 0, 64, 0
1, 127358, Control_c, 0, 67, 103
1, 127360, Note_on_c, 0, 70, 53
1, 127391, Note_on_c, 0, 62, 26
1, 127418, Control_c, 0, 67, 103
1, 127447, Control_c, 0, 67, 102
1, 127453, Note_off_c, 0, 58, 31
1, 127477, Control_c, 0, 67, 102
1, 127492, Control_c, 0, 67, 101
1, 127523, Note_off_c, 0, 62, 52
1, 127536, Control_c, 0, 64, 19
1, 127539, Note_on_c, 0, 65, 41
1, 127551, Control_c, 0, 64, 39
1, 127565, Control_c, 0, 64, 52
1, 127580, Control_c, 0, 64, 60
1, 127594, Control_c, 0, 64, 65
1, 127609, Control_c, 0, 64, 70
1, 127624, Control_c, 0, 64, 75
1, 127639, Control_c, 0, 64, 79
1, 127654, Control_c, 0, 64, 83
1, 127670, Control_c, 0, 64, 84
1, 127685, Control_c, 0, 64, 85
1, 127707, Control_c, 0, 64, 86
1, 127707, Control_c, 0, 67, 101
1, 127711, Note_on_c, 0, 62, 45
1, 127722, Control_c, 0, 64, 87
1, 127729, Note_off_c, 0, 65, 42
1, 127737, Control_c, 0, 67, 100
1, 127749, Note_off_c, 0, 70, 34
1, 127752, Control_c, 0, 67, 99
1, 127766, Control_c, 0, 67, 98
1, 127781, Control_c, 0, 67, 97
1, 127796, Control_c, 0, 67, 96
1, 127811, Control_c, 0, 67, 95
1, 127825, Control_c, 0, 67, 95
1, 127840, Control_c, 0, 67, 94
1, 127852, Note_off_c, 0, 62, 53
1, 127855, Control_c, 0, 67, 93
1, 127870, Note_on_c, 0, 74, 65
1, 127870, Control_c, 0, 67, 92
1, 127885, Control_c, 0, 67, 88
1, 127897, Note_on_c, 0, 58, 34
1, 127900, Control_c, 0, 67, 86
1, 127914, Control_c, 0, 67, 84
1, 127929, Control_c, 0, 67, 84
1, 127944, Control_c, 0, 67, 84
1, 127958, Control_c, 0, 67, 85
1, 127988, Control_c, 0, 64, 86
1, 128003, Control_c, 0, 67, 85
1, 128047, Control_c, 0, 67, 86
1, 128048, Note_on_c, 0, 79, 75
1, 128050, Note_off_c, 0, 74, 63
1, 128062, Note_on_c, 0, 62, 48
1, 128077, Control_c, 0, 64, 86
1, 128103, Note_off_c, 0, 58, 27
1, 128121, Control_c, 0, 64, 85
1, 128121, Control_c, 0, 67, 86
1, 128136, Control_c, 0, 67, 87
1, 128166, Control_c, 0, 64, 85
1, 128181, Control_c, 0, 67, 87
1, 128196, Control_c, 0, 64, 84
1, 128196, Control_c, 0, 67, 88
1, 128211, Control_c, 0, 64, 84
1, 128211, Control_c, 0, 67, 88
1, 128220, Note_on_c, 0, 74, 71
1, 128225, Control_c, 0, 64, 83
1, 128225, Note_off_c, 0, 79, 57
1, 128240, Control_c, 0, 64, 83
1, 128240, Control_c, 0, 67, 89
1, 128255, Control_c, 0, 64, 82
1, 128256, Note_on_c, 0, 67, 35
1, 128270, Control_c, 0, 64, 81
1, 128270, Control_c, 0, 67, 89
1, 128285, Control_c, 0, 64, 81
1, 128299, Control_c, 0, 64, 80
1, 128321, Note_off_c, 0, 62, 34
1, 128328, Control_c, 0, 64, 80
1, 128342, Control_c, 0, 64, 79
1, 128349, Note_off_c, 0, 67, 35
1, 128357, Control_c, 0, 64, 79
1, 128372, Control_c, 0, 67, 89
1, 128387, Control_c, 0, 64, 78
1, 128402, Control_c, 0, 64, 78
1, 128402, Control_c, 0, 67, 88
1, 128406, Note_on_c, 0, 77, 70
1, 128416, Control_c, 0, 64, 77
1, 128431, Control_c, 0, 64, 77
1, 128453, Note_off_c, 0, 74, 65
1, 128454, Control_c, 0, 64, 75
1, 128469, Control_c, 0, 64, 73
1, 128485, Control_c, 0, 64, 69
1, 128500, Control_c, 0, 64, 63
1, 128500, Control_c, 0, 67, 88
1, 128515, Control_c, 0, 64, 48
1, 128529, Control_c, 0, 64, 16
1, 128544, Control_c, 0, 64, 0
1, 128587, Note_on_c, 0, 60, 39
1, 128736, Control_c, 0, 64, 25
1, 128736, Control_c, 0, 67, 88
1, 128751, Control_c, 0, 64, 46
1, 128762, Note_on_c, 0, 75, 53
1, 128766, Control_c, 0, 64, 58
1, 128771, Note_off_c, 0, 77, 58
1, 128780, Control_c, 0, 64, 62
1, 128794, Note_on_c, 0, 63, 24
1, 128795, Control_c, 0, 64, 65
1, 128810, Control_c, 0, 64, 68
1, 128825, Control_c, 0, 64, 73
1, 128840, Control_c, 0, 64, 78
1, 128854, Control_c, 0, 64, 82
1, 128857, Note_off_c, 0, 60, 24
1, 128869, Control_c, 0, 64, 84
1, 128884, Control_c, 0, 64, 85
1, 128899, Control_c, 0, 64, 86
1, 128899, Control_c, 0, 67, 89
1, 128923, Note_off_c, 0, 63, 48
1, 128926, Note_off_c, 0, 75, 59
1, 128929, Control_c, 0, 64, 86
1, 128929, Control_c, 0, 67, 90
1, 128935, Note_on_c, 0, 67, 42
1, 129003, Control_c, 0, 67, 91
1, 129033, Control_c, 0, 64, 86
1, 129047, Control_c, 0, 64, 85
1, 129062, Control_c, 0, 64, 82
1, 129077, Control_c, 0, 64, 78
1, 129077, Control_c, 0, 67, 91
1, 129092, Control_c, 0, 64, 74
1, 129104, Note_on_c, 0, 63, 46
1, 129107, Note_off_c, 0, 67, 35
1, 129107, Control_c, 0, 64, 68
1, 129121, Control_c, 0, 64, 58
1, 129136, Control_c, 0, 64, 0
1, 129218, Control_c, 0, 67, 91
1, 129260, Note_off_c, 0, 63, 58
1, 129262, Control_c, 0, 67, 90
1, 129283, Note_on_c, 0, 77, 60
1, 129293, Control_c, 0, 67, 90
1, 129293, Note_on_c, 0, 60, 36
1, 129319, Note_off_c, 0, 77, 51
1, 129322, Control_c, 0, 67, 89
1, 129352, Control_c, 0, 67, 88
1, 129358, Note_on_c, 0, 79, 59
1, 129396, Control_c, 0, 67, 88
1, 129400, Note_off_c, 0, 60, 58
1, 129411, Note_off_c, 0, 79, 45
1, 129411, Control_c, 0, 67, 87
1, 129433, Note_on_c, 0, 77, 52
1, 129452, Note_on_c, 0, 63, 35
1, 129485, Control_c, 0, 67, 87
1, 129491, Note_off_c, 0, 77, 48
1, 129511, Note_on_c, 0, 75, 60
1, 129572, Note_off_c, 0, 75, 61
1, 129579, Note_on_c, 0, 74, 63
1, 129591, Note_off_c, 0, 63, 53
1, 129605, Note_on_c, 0, 67, 39
1, 129623, Note_off_c, 0, 74, 63
1, 129640, Note_off_c, 0, 67, 56
1, 129666, Note_on_c, 0, 72, 59
1, 129714, Note_off_c, 0, 72, 53
1, 129722, Control_c, 0, 67, 87
1, 129752, Note_on_c, 0, 70, 67
1, 129899, Control_c, 0, 67, 87
1, 129923, Note_on_c, 0, 53, 34
1, 129996, Control_c, 0, 67, 87
1, 130108, Note_on_c, 0, 69, 57
1, 130113, Note_off_c, 0, 70, 56
1, 130127, Note_on_c, 0, 60, 34
1, 130260, Note_off_c, 0, 60, 56
1, 130278, Control_c, 0, 64, 48
1, 130285, Note_on_c, 0, 63, 35
1, 130292, Control_c, 0, 64, 62
1, 130307, Control_c, 0, 64, 65
1, 130322, Control_c, 0, 64, 67
1, 130337, Control_c, 0, 64, 70
1, 130351, Control_c, 0, 64, 74
1, 130366, Control_c, 0, 64, 77
1, 130366, Control_c, 0, 67, 88
1, 130368, Note_off_c, 0, 69, 55
1, 130381, Control_c, 0, 64, 79
1, 130381, Control_c, 0, 67, 88
1, 130396, Control_c, 0, 64, 80
1, 130411, Control_c, 0, 64, 81
1, 130421, Note_off_c, 0, 53, 34
1, 130425, Control_c, 0, 64, 82
1, 130425, Control_c, 0, 67, 89
1, 130440, Control_c, 0, 64, 83
1, 130440, Control_c, 0, 67, 89
1, 130445, Note_on_c, 0, 60, 47
1, 130455, Control_c, 0, 64, 84
1, 130466, Note_off_c, 0, 63, 38
1, 130470, Control_c, 0, 67, 90
1, 130485, Control_c, 0, 67, 90
1, 130589, Control_c, 0, 67, 91
1, 130601, Note_off_c, 0, 60, 57
1, 130602, Note_on_c, 0, 69, 67
1, 130626, Note_on_c, 0, 53, 40
1, 130759, Control_c, 0, 67, 91
1, 130784, Note_on_c, 0, 70, 71
1, 130789, Control_c, 0, 67, 92
1, 130804, Note_on_c, 0, 60, 40
1, 130816, Note_off_c, 0, 69, 60
1, 130834, Control_c, 0, 67, 92
1, 130840, Note_off_c, 0, 53, 34
1, 130864, Control_c, 0, 67, 92
1, 130909, Control_c, 0, 64, 83
1, 130938, Control_c, 0, 67, 91
1, 130952, Note_on_c, 0, 72, 80
1, 130968, Note_off_c, 0, 60, 52
1, 130968, Control_c, 0, 67, 90
1, 130983, Note_on_c, 0, 63, 45
1, 130983, Control_c, 0, 64, 83
1, 130983, Control_c, 0, 67, 89
1, 130986, Note_off_c, 0, 70, 62
1, 131010, Note_off_c, 0, 72, 64
1, 131013, Control_c, 0, 67, 88
1, 131028, Control_c, 0, 64, 82
1, 131042, Control_c, 0, 64, 82
1, 131042, Control_c, 0, 67, 88
1, 131048, Note_off_c, 0, 63, 0
1, 131057, Control_c, 0, 67, 87
1, 131072, Control_c, 0, 64, 81
1, 131086, Poly_aftertouch_c, 0, 63, 127
1, 131125, Poly_aftertouch_c, 0, 63, 0
1, 131131, Control_c, 0, 64, 81
1, 131146, Control_c, 0, 67, 87
1, 131161, Control_c, 0, 64, 80
1, 131176, Note_on_c, 0, 72, 64
1, 131180, Note_on_c, 0, 69, 52
1, 131190, Control_c, 0, 64, 80
1, 131220, Control_c, 0, 64, 79
1, 131235, Control_c, 0, 64, 79
1, 131249, Control_c, 0, 64, 78
1, 131264, Control_c, 0, 64, 77
1, 131279, Control_c, 0, 64, 76
1, 131294, Control_c, 0, 64, 74
1, 131309, Control_c, 0, 64, 72
1, 131323, Control_c, 0, 64, 70
1, 131338, Control_c, 0, 64, 67
1, 131338, Control_c, 0, 67, 87
1, 131350, Note_on_c, 0, 58, 32
1, 131353, Control_c, 0, 64, 62
1, 131367, Control_c, 0, 64, 49
1, 131367, Control_c, 0, 67, 88
1, 131382, Control_c, 0, 64, 30
1, 131397, Control_c, 0, 64, 32
1, 131397, Control_c, 0, 67, 88
1, 131412, Control_c, 0, 64, 36
1, 131427, Control_c, 0, 64, 35
1, 131427, Control_c, 0, 67, 89
1, 131449, Control_c, 0, 64, 32
1, 131449, Control_c, 0, 67, 89
1, 131464, Control_c, 0, 64, 27
1, 131479, Control_c, 0, 64, 0
1, 131479, Control_c, 0, 67, 90
1, 131491, Note_off_c, 0, 69, 59
1, 131524, Note_off_c, 0, 72, 59
1, 131534, Note_on_c, 0, 70, 44
1, 131537, Note_on_c, 0, 74, 52
1, 131545, Note_on_c, 0, 62, 41
1, 131572, Note_off_c, 0, 58, 38
1, 131582, Control_c, 0, 67, 89
1, 131597, Control_c, 0, 64, 27
1, 131612, Control_c, 0, 64, 48
1, 131627, Control_c, 0, 64, 58
1, 131642, Control_c, 0, 64, 64
1, 131657, Control_c, 0, 64, 67
1, 131672, Control_c, 0, 64, 70
1, 131687, Control_c, 0, 64, 74
1, 131692, Note_off_c, 0, 62, 58
1, 131702, Control_c, 0, 64, 76
1, 131714, Note_on_c, 0, 65, 42
1, 131717, Control_c, 0, 64, 78
1, 131727, Note_off_c, 0, 70, 62
1, 131732, Control_c, 0, 64, 79
1, 131736, Note_off_c, 0, 74, 62
1, 131746, Control_c, 0, 64, 79
1, 131761, Control_c, 0, 64, 80
1, 131835, Control_c, 0, 64, 77
1, 131835, Control_c, 0, 67, 90
1, 131850, Control_c, 0, 64, 70
1, 131850, Control_c, 0, 67, 91
1, 131865, Control_c, 0, 64, 13
1, 131868, Note_on_c, 0, 62, 50
1, 131871, Note_off_c, 0, 65, 37
1, 131880, Control_c, 0, 64, 0
1, 131880, Control_c, 0, 67, 91
1, 131895, Control_c, 0, 67, 92
1, 131940, Control_c, 0, 67, 92
1, 131969, Control_c, 0, 67, 93
1, 132008, Note_off_c, 0, 62, 59
1, 132024, Note_on_c, 0, 77, 59
1, 132041, Note_on_c, 0, 58, 39
1, 132061, Note_off_c, 0, 77, 56
1, 132083, Note_on_c, 0, 76, 65
1, 132152, Note_off_c, 0, 76, 62
1, 132166, Note_on_c, 0, 79, 67
1, 132180, Note_off_c, 0, 58, 44
1, 132198, Control_c, 0, 67, 92
1, 132202, Note_on_c, 0, 62, 43
1, 132213, Control_c, 0, 67, 92
1, 132236, Note_off_c, 0, 79, 52
1, 132248, Note_on_c, 0, 77, 67
1, 132258, Control_c, 0, 67, 91
1, 132272, Control_c, 0, 67, 91
1, 132297, Note_off_c, 0, 77, 58
1, 132302, Control_c, 0, 67, 90
1, 132322, Note_on_c, 0, 75, 69
1, 132322, Note_off_c, 0, 62, 61
1, 132362, Note_off_c, 0, 75, 62
1, 132363, Note_on_c, 0, 65, 39
1, 132398, Note_on_c, 0, 74, 66
1, 132405, Control_c, 0, 67, 89
1, 132420, Control_c, 0, 67, 88
1, 132423, Note_off_c, 0, 74, 69
1, 132435, Control_c, 0, 67, 86
1, 132450, Control_c, 0, 67, 84
1, 132466, Control_c, 0, 67, 83
1, 132481, Control_c, 0, 67, 82
1, 132485, Note_on_c, 0, 74, 67
1, 132493, Note_off_c, 0, 65, 40
1, 132495, Control_c, 0, 67, 80
1, 132510, Control_c, 0, 67, 76
1, 132515, Note_on_c, 0, 63, 39
1, 132525, Control_c, 0, 67, 74
1, 132539, Control_c, 0, 67, 72
1, 132554, Control_c, 0, 67, 72
1, 132584, Control_c, 0, 67, 72
1, 132613, Control_c, 0, 67, 73
1, 132643, Control_c, 0, 67, 73
1, 132655, Note_off_c, 0, 74, 61
1, 132655, Note_off_c, 0, 63, 56
1, 132658, Control_c, 0, 67, 74
1, 132665, Note_on_c, 0, 72, 64
1, 132673, Control_c, 0, 67, 74
1, 132685, Note_on_c, 0, 67, 40
1, 132772, Note_off_c, 0, 72, 63
1, 132777, Control_c, 0, 67, 74
1, 132783, Note_off_c, 0, 67, 53
1, 132792, Control_c, 0, 67, 73
1, 132807, Control_c, 0, 67, 73
1, 132813, Note_on_c, 0, 62, 51
1, 132866, Control_c, 0, 67, 72
1, 132895, Control_c, 0, 67, 72
1, 132925, Control_c, 0, 67, 71
1, 132957, Note_off_c, 0, 62, 58
1, 132962, Control_c, 0, 67, 72
1, 132965, Note_on_c, 0, 70, 68
1, 132987, Note_on_c, 0, 65, 41
1, 132992, Note_off_c, 0, 70, 67
1, 133125, Control_c, 0, 67, 72
1, 133136, Note_on_c, 0, 74, 68
1, 133136, Note_off_c, 0, 65, 45
1, 133139, Control_c, 0, 67, 73
1, 133151, Note_on_c, 0, 63, 47
1, 133154, Control_c, 0, 67, 73
1, 133169, Control_c, 0, 67, 74
1, 133228, Control_c, 0, 67, 74
1, 133258, Control_c, 0, 67, 75
1, 133274, Control_c, 0, 67, 75
1, 133281, Note_off_c, 0, 63, 62
1, 133289, Control_c, 0, 67, 76
1, 133293, Note_off_c, 0, 74, 62
1, 133298, Note_on_c, 0, 72, 64
1, 133310, Note_on_c, 0, 67, 46
1, 133318, Control_c, 0, 67, 77
1, 133392, Control_c, 0, 67, 76
1, 133407, Control_c, 0, 67, 75
1, 133419, Note_off_c, 0, 72, 63
1, 133434, Note_off_c, 0, 67, 48
1, 133453, Note_on_c, 0, 60, 58
1, 133511, Control_c, 0, 67, 75
1, 133526, Control_c, 0, 67, 74
1, 133560, Note_off_c, 0, 60, 56
1, 133596, Note_on_c, 0, 69, 71
1, 133600, Control_c, 0, 67, 75
1, 133606, Note_on_c, 0, 63, 47
1, 133621, Note_off_c, 0, 69, 71
1, 133630, Control_c, 0, 67, 76
1, 133711, Control_c, 0, 67, 75
1, 133739, Note_off_c, 0, 63, 60
1, 133740, Control_c, 0, 67, 75
1, 133755, Control_c, 0, 67, 74
1, 133761, Note_on_c, 0, 70, 70
1, 133763, Note_on_c, 0, 62, 54
1, 133773, Note_on_c, 0, 65, 53
1, 133785, Control_c, 0, 67, 74
1, 133815, Control_c, 0, 67, 73
1, 133825, Note_off_c, 0, 70, 61
1, 133835, Note_on_c, 0, 72, 71
1, 133844, Control_c, 0, 67, 73
1, 133898, Note_off_c, 0, 72, 64
1, 133902, Note_on_c, 0, 70, 70
1, 133903, Control_c, 0, 67, 73
1, 133949, Note_off_c, 0, 70, 60
1, 133976, Note_on_c, 0, 69, 70
1, 134022, Control_c, 0, 67, 73
1, 134032, Note_off_c, 0, 69, 55
1, 134055, Note_on_c, 0, 70, 76
1, 134101, Note_off_c, 0, 70, 62
1, 134128, Note_on_c, 0, 72, 71
1, 134156, Control_c, 0, 67, 72
1, 134173, Note_off_c, 0, 72, 64
1, 134204, Note_on_c, 0, 74, 75
1, 134243, Note_off_c, 0, 74, 65
1, 134276, Note_on_c, 0, 75, 79
1, 134319, Control_c, 0, 67, 72
1, 134330, Note_off_c, 0, 75, 64
1, 134354, Note_on_c, 0, 76, 81
1, 134363, Control_c, 0, 67, 71
1, 134369, Note_off_c, 0, 62, 62
1, 134376, Note_off_c, 0, 65, 59
1, 134378, Control_c, 0, 67, 72
1, 134390, Note_off_c, 0, 76, 64
1, 134421, Note_on_c, 0, 77, 78
1, 134467, Note_off_c, 0, 77, 61
1, 134501, Note_on_c, 0, 76, 80
1, 134533, Control_c, 0, 67, 72
1, 134536, Note_off_c, 0, 76, 62
1, 134548, Control_c, 0, 67, 73
1, 134572, Note_on_c, 0, 77, 78
1, 134623, Control_c, 0, 67, 73
1, 134631, Note_off_c, 0, 77, 55
1, 134637, Control_c, 0, 67, 74
1, 134640, Note_on_c, 0, 79, 83
1, 134652, Control_c, 0, 67, 74
1, 134667, Control_c, 0, 67, 75
1, 134682, Control_c, 0, 67, 75
1, 134709, Note_off_c, 0, 79, 60
1, 134709, Note_on_c, 0, 77, 77
1, 134712, Control_c, 0, 67, 76
1, 134741, Control_c, 0, 67, 76
1, 134756, Control_c, 0, 67, 77
1, 134759, Note_off_c, 0, 77, 61
1, 134780, Note_on_c, 0, 75, 74
1, 134785, Control_c, 0, 67, 77
1, 134800, Control_c, 0, 67, 78
1, 134813, Note_off_c, 0, 75, 63
1, 134830, Control_c, 0, 67, 79
1, 134849, Note_on_c, 0, 74, 76
1, 134861, Control_c, 0, 67, 78
1, 134873, Note_off_c, 0, 74, 72
1, 134876, Control_c, 0, 67, 78
1, 134890, Control_c, 0, 67, 77
1, 134905, Control_c, 0, 67, 77
1, 134920, Control_c, 0, 67, 76
1, 134934, Control_c, 0, 67, 75
1, 134937, Note_on_c, 0, 74, 77
1, 134949, Control_c, 0, 67, 74
1, 134952, Note_on_c, 0, 63, 51
1, 134964, Control_c, 0, 67, 73
1, 134979, Control_c, 0, 67, 72
1, 134994, Control_c, 0, 67, 71
1, 135008, Control_c, 0, 67, 71
1, 135083, Control_c, 0, 67, 70
1, 135093, Note_off_c, 0, 74, 61
1, 135097, Control_c, 0, 67, 70
1, 135102, Note_on_c, 0, 72, 74
1, 135105, Note_off_c, 0, 63, 63
1, 135124, Note_on_c, 0, 67, 57
1, 135126, Note_off_c, 0, 72, 71
1, 135127, Control_c, 0, 67, 69
1, 135141, Control_c, 0, 67, 66
1, 135156, Control_c, 0, 67, 64
1, 135171, Control_c, 0, 67, 63
1, 135194, Control_c, 0, 67, 63
1, 135209, Control_c, 0, 67, 62
1, 135223, Control_c, 0, 67, 62
1, 135265, Note_on_c, 0, 72, 87
1, 135268, Control_c, 0, 67, 61
1, 135278, Note_on_c, 0, 62, 59
1, 135283, Control_c, 0, 67, 61
1, 135290, Note_off_c, 0, 67, 42
1, 135297, Control_c, 0, 67, 59
1, 135312, Control_c, 0, 67, 58
1, 135327, Control_c, 0, 67, 58
1, 135341, Control_c, 0, 67, 57
1, 135356, Control_c, 0, 67, 57
1, 135371, Control_c, 0, 67, 56
1, 135386, Control_c, 0, 67, 56
1, 135418, Note_off_c, 0, 62, 61
1, 135424, Note_off_c, 0, 72, 61
1, 135427, Note_on_c, 0, 70, 80
1, 135433, Note_on_c, 0, 65, 58
1, 135456, Note_off_c, 0, 70, 63
1, 135579, Note_off_c, 0, 65, 60
1, 135582, Note_on_c, 0, 74, 82
1, 135591, Note_on_c, 0, 63, 56
1, 135623, Control_c, 0, 67, 56
1, 135684, Control_c, 0, 67, 56
1, 135713, Control_c, 0, 67, 55
1, 135728, Note_off_c, 0, 63, 63
1, 135728, Control_c, 0, 67, 54
1, 135736, Note_on_c, 0, 72, 82
1, 135739, Note_off_c, 0, 74, 65
1, 135743, Control_c, 0, 67, 51
1, 135749, Note_on_c, 0, 67, 59
1, 135757, Control_c, 0, 67, 45
1, 135764, Note_off_c, 0, 72, 64
1, 135772, Control_c, 0, 67, 37
1, 135787, Control_c, 0, 67, 30
1, 135802, Control_c, 0, 67, 24
1, 135817, Control_c, 0, 67, 22
1, 135846, Control_c, 0, 67, 22
1, 135903, Note_on_c, 0, 72, 89
1, 135905, Control_c, 0, 67, 22
1, 135916, Note_on_c, 0, 60, 67
1, 135919, Note_off_c, 0, 67, 48
1, 135920, Control_c, 0, 67, 23
1, 135943, Control_c, 0, 67, 24
1, 135958, Control_c, 0, 67, 25
1, 135972, Control_c, 0, 67, 25
1, 136002, Control_c, 0, 67, 26
1, 136017, Control_c, 0, 67, 26
1, 136032, Control_c, 0, 67, 27
1, 136041, Note_off_c, 0, 72, 63
1, 136046, Control_c, 0, 67, 28
1, 136050, Note_off_c, 0, 60, 59
1, 136061, Control_c, 0, 67, 29
1, 136062, Note_on_c, 0, 69, 86
1, 136071, Note_on_c, 0, 63, 63
1, 136091, Control_c, 0, 67, 29
1, 136093, Note_off_c, 0, 69, 66
1, 136120, Control_c, 0, 67, 30
1, 136164, Control_c, 0, 67, 29
1, 136194, Control_c, 0, 67, 28
1, 136209, Control_c, 0, 67, 27
1, 136224, Control_c, 0, 67, 26
1, 136229, Note_on_c, 0, 70, 88
1, 136229, Note_off_c, 0, 63, 60
1, 136233, Note_on_c, 0, 65, 75
1, 136238, Control_c, 0, 67, 25
1, 136241, Note_on_c, 0, 62, 63
1, 136253, Control_c, 0, 67, 24
1, 136268, Control_c, 0, 67, 23
1, 136298, Control_c, 0, 67, 24
1, 136313, Control_c, 0, 67, 24
1, 136328, Control_c, 0, 67, 25
1, 136357, Control_c, 0, 67, 26
1, 136378, Note_off_c, 0, 70, 61
1, 136399, Note_on_c, 0, 72, 79
1, 136454, Note_off_c, 0, 72, 61
1, 136462, Control_c, 0, 67, 25
1, 136467, Note_on_c, 0, 74, 79
1, 136506, Control_c, 0, 67, 25
1, 136521, Note_off_c, 0, 74, 58
1, 136536, Control_c, 0, 67, 25
1, 136542, Note_on_c, 0, 75, 85
1, 136566, Control_c, 0, 67, 26
1, 136595, Note_off_c, 0, 75, 68
1, 136621, Note_on_c, 0, 77, 81
1, 136626, Note_off_c, 0, 65, 60
1, 136641, Note_off_c, 0, 62, 61
1, 136695, Note_on_c, 0, 79, 87
1, 136697, Note_off_c, 0, 77, 58
1, 136706, Control_c, 0, 67, 25
1, 136764, Note_on_c, 0, 81, 87
1, 136764, Note_off_c, 0, 79, 60
1, 136838, Note_on_c, 0, 82, 83
1, 136841, Note_off_c, 0, 81, 62
1, 136875, Note_off_c, 0, 82, 66
1, 136909, Note_on_c, 0, 84, 82
1, 136943, Control_c, 0, 67, 26
1, 136958, Control_c, 0, 67, 26
1, 136976, Note_on_c, 0, 86, 85
1, 136980, Note_off_c, 0, 84, 64
1, 137043, Note_on_c, 0, 87, 88
1, 137047, Note_off_c, 0, 86, 62
1, 137106, Control_c, 0, 67, 27
1, 137119, Note_off_c, 0, 87, 62
1, 137130, Note_on_c, 0, 89, 96
1, 137163, Note_off_c, 0, 89, 69
1, 137165, Control_c, 0, 67, 26
1, 137180, Control_c, 0, 67, 25
1, 137195, Control_c, 0, 67, 23
1, 137210, Control_c, 0, 67, 23
1, 137240, Control_c, 0, 67, 23
1, 137270, Control_c, 0, 67, 24
1, 137284, Control_c, 0, 67, 25
1, 137288, Note_on_c, 0, 89, 92
1, 137300, Control_c, 0, 67, 25
1, 137312, Note_off_c, 0, 89, 66
1, 137330, Control_c, 0, 67, 25
1, 137389, Control_c, 0, 67, 25
1, 137404, Control_c, 0, 67, 26
1, 137441, Control_c, 0, 67, 26
1, 137472, Note_on_c, 0, 89, 91
1, 137481, Note_on_c, 0, 57, 60
1, 137481, Note_on_c, 0, 77, 83
1, 137515, Control_c, 0, 67, 26
1, 137644, Note_on_c, 0, 87, 88
1, 137663, Control_c, 0, 67, 25
1, 137674, Note_off_c, 0, 57, 63
1, 137708, Control_c, 0, 67, 25
1, 137717, Note_off_c, 0, 89, 61
1, 137737, Control_c, 0, 67, 24
1, 137797, Control_c, 0, 67, 24
1, 137806, Note_on_c, 0, 58, 68
1, 137811, Control_c, 0, 67, 23
1, 137824, Note_off_c, 0, 87, 60
1, 137855, Control_c, 0, 67, 23
1, 137959, Control_c, 0, 67, 24
1, 137970, Note_on_c, 0, 86, 82
1, 137974, Note_off_c, 0, 58, 63
1, 137974, Control_c, 0, 67, 25
1, 137977, Note_off_c, 0, 77, 41
1, 137989, Control_c, 0, 67, 25
1, 138003, Control_c, 0, 67, 26
1, 138016, Note_off_c, 0, 86, 62
1, 138033, Control_c, 0, 67, 25
1, 138137, Note_on_c, 0, 86, 83
1, 138149, Note_on_c, 0, 51, 51
1, 138152, Control_c, 0, 67, 26
1, 138167, Control_c, 0, 67, 26
1, 138189, Control_c, 0, 67, 25
1, 138204, Control_c, 0, 67, 26
1, 138219, Control_c, 0, 67, 26
1, 138233, Control_c, 0, 67, 27
1, 138291, Note_off_c, 0, 86, 61
1, 138304, Note_on_c, 0, 84, 76
1, 138310, Note_on_c, 0, 75, 71
1, 138326, Note_off_c, 0, 51, 60
1, 138338, Note_off_c, 0, 75, 68
1, 138342, Note_off_c, 0, 84, 63
1, 138441, Control_c, 0, 67, 28
1, 138456, Control_c, 0, 67, 28
1, 138471, Control_c, 0, 67, 29
1, 138472, Note_on_c, 0, 82, 70
1, 138480, Note_on_c, 0, 74, 59
1, 138483, Note_on_c, 0, 53, 50
1, 138485, Control_c, 0, 67, 29
1, 138500, Control_c, 0, 67, 30
1, 138501, Note_off_c, 0, 74, 65
1, 138501, Note_off_c, 0, 82, 62
1, 138515, Control_c, 0, 67, 30
1, 138530, Control_c, 0, 67, 31
1, 138545, Control_c, 0, 67, 32
1, 138559, Control_c, 0, 67, 33
1, 138574, Control_c, 0, 67, 34
1, 138589, Control_c, 0, 67, 35
1, 138604, Control_c, 0, 67, 37
1, 138619, Control_c, 0, 67, 37
1, 138633, Control_c, 0, 67, 38
1, 138636, Note_on_c, 0, 81, 74
1, 138648, Control_c, 0, 67, 40
1, 138650, Note_on_c, 0, 72, 57
1, 138663, Control_c, 0, 67, 42
1, 138664, Note_off_c, 0, 81, 63
1, 138668, Note_off_c, 0, 72, 64
1, 138677, Control_c, 0, 67, 44
1, 138685, Note_off_c, 0, 53, 61
1, 138692, Control_c, 0, 67, 44
1, 138737, Control_c, 0, 67, 44
1, 138781, Control_c, 0, 67, 43
1, 138796, Control_c, 0, 67, 43
1, 138814, Note_on_c, 0, 82, 70
1, 138817, Note_on_c, 0, 74, 55
1, 138826, Control_c, 0, 67, 42
1, 138840, Control_c, 0, 67, 42
1, 138886, Control_c, 0, 67, 41
1, 138901, Control_c, 0, 67, 41
1, 138938, Control_c, 0, 67, 40
1, 138968, Control_c, 0, 67, 40
1, 138982, Control_c, 0, 67, 39
1, 138994, Note_on_c, 0, 46, 57
1, 138997, Control_c, 0, 67, 39
1, 139009, Note_off_c, 0, 74, 60
1, 139012, Control_c, 0, 67, 38
1, 139025, Note_off_c, 0, 46, 63
1, 139042, Control_c, 0, 67, 38
1, 139056, Control_c, 0, 67, 37
1, 139071, Control_c, 0, 67, 37
1, 139085, Note_off_c, 0, 82, 45
1, 139115, Control_c, 0, 67, 36
1, 139166, Note_on_c, 0, 70, 48
1, 139177, Note_on_c, 0, 50, 37
1, 139189, Control_c, 0, 67, 37
1, 139209, Note_off_c, 0, 50, 49
1, 139338, Control_c, 0, 67, 37
1, 139343, Note_on_c, 0, 53, 44
1, 139368, Control_c, 0, 67, 38
1, 139371, Note_off_c, 0, 53, 60
1, 139382, Control_c, 0, 67, 38
1, 139397, Control_c, 0, 67, 39
1, 139412, Control_c, 0, 67, 40
1, 139427, Control_c, 0, 67, 41
1, 139442, Control_c, 0, 67, 42
1, 139456, Control_c, 0, 67, 42
1, 139471, Control_c, 0, 67, 43
1, 139486, Control_c, 0, 67, 44
1, 139515, Control_c, 0, 67, 44
1, 139530, Control_c, 0, 67, 45
1, 139533, Note_on_c, 0, 58, 41
1, 139560, Control_c, 0, 67, 45
1, 139574, Note_off_c, 0, 70, 61
1, 139589, Control_c, 0, 67, 46
1, 139604, Control_c, 0, 67, 46
1, 139619, Control_c, 0, 67, 51
1, 139634, Control_c, 0, 64, 32
1, 139634, Control_c, 0, 67, 56
1, 139650, Control_c, 0, 64, 58
1, 139650, Control_c, 0, 67, 60
1, 139665, Control_c, 0, 64, 63
1, 139665, Control_c, 0, 67, 63
1, 139687, Control_c, 0, 64, 64
1, 139687, Control_c, 0, 67, 65
1, 139702, Control_c, 0, 64, 64
1, 139702, Control_c, 0, 67, 65
1, 139717, Control_c, 0, 64, 65
1, 139717, Control_c, 0, 67, 66
1, 139761, Control_c, 0, 64, 64
1, 139761, Control_c, 0, 67, 65
1, 139776, Control_c, 0, 64, 64
1, 139791, Control_c, 0, 64, 63
1, 139791, Control_c, 0, 67, 66
1, 139820, Control_c, 0, 64, 62
1, 139820, Control_c, 0, 67, 65
1, 139835, Control_c, 0, 64, 61
1, 139850, Control_c, 0, 64, 60
1, 139850, Control_c, 0, 67, 65
1, 139865, Control_c, 0, 64, 59
1, 139879, Control_c, 0, 64, 57
1, 139894, Control_c, 0, 64, 54
1, 139894, Control_c, 0, 67, 64
1, 139909, Control_c, 0, 64, 51
1, 139909, Control_c, 0, 67, 64
1, 139924, Control_c, 0, 64, 49
1, 139938, Control_c, 0, 64, 48
1, 139938, Control_c, 0, 67, 63
1, 139939, Note_on_c, 0, 67, 49
1, 139953, Control_c, 0, 64, 48
1, 139968, Control_c, 0, 64, 46
1, 139983, Control_c, 0, 64, 42
1, 139993, Note_off_c, 0, 67, 56
1, 139998, Control_c, 0, 64, 34
1, 139998, Control_c, 0, 67, 62
1, 140012, Control_c, 0, 64, 18
1, 140026, Note_on_c, 0, 65, 51
1, 140027, Control_c, 0, 64, 0
1, 140027, Control_c, 0, 67, 62
1, 140045, Note_off_c, 0, 58, 32
1, 140083, Note_off_c, 0, 65, 59
1, 140087, Control_c, 0, 67, 61
1, 140105, Note_on_c, 0, 63, 56
1, 140155, Note_off_c, 0, 63, 60
1, 140171, Note_on_c, 0, 62, 58
1, 140220, Control_c, 0, 67, 61
1, 140235, Control_c, 0, 67, 60
1, 140252, Note_off_c, 0, 62, 60
1, 140264, Control_c, 0, 67, 60
1, 140274, Note_on_c, 0, 60, 54
1, 140279, Control_c, 0, 67, 59
1, 140339, Control_c, 0, 67, 59
1, 140369, Control_c, 0, 67, 58
1, 140440, Note_off_c, 0, 60, 58
1, 140457, Note_on_c, 0, 58, 49
1, 140467, Note_on_c, 0, 46, 34
1, 140501, Note_off_c, 0, 58, 62
1, 140614, Control_c, 0, 67, 58
1, 140620, Note_on_c, 0, 58, 56
1, 140644, Control_c, 0, 67, 57
1, 140647, Note_off_c, 0, 46, 38
1, 140653, Note_on_c, 0, 50, 33
1, 140659, Control_c, 0, 67, 57
1, 140718, Control_c, 0, 67, 56
1, 140748, Control_c, 0, 67, 56
1, 140781, Note_off_c, 0, 50, 54
1, 140802, Note_on_c, 0, 53, 42
1, 140866, Control_c, 0, 67, 56
1, 140880, Control_c, 0, 67, 57
1, 140925, Control_c, 0, 64, 39
1, 140940, Control_c, 0, 64, 58
1, 140954, Control_c, 0, 64, 63
1, 140956, Note_off_c, 0, 53, 53
1, 140969, Control_c, 0, 64, 65
1, 140984, Control_c, 0, 64, 66
1, 140985, Note_on_c, 0, 50, 42
1, 140996, Note_off_c, 0, 58, 65
1, 140999, Control_c, 0, 64, 67
1, 140999, Control_c, 0, 67, 57
1, 141014, Control_c, 0, 64, 68
1, 141014, Control_c, 0, 67, 58
1, 141028, Control_c, 0, 64, 69
1, 141057, Control_c, 0, 67, 58
1, 141086, Control_c, 0, 67, 59
1, 141101, Control_c, 0, 64, 68
1, 141116, Control_c, 0, 67, 59
1, 141131, Control_c, 0, 64, 68
1, 141131, Control_c, 0, 67, 60
1, 141135, Note_off_c, 0, 50, 47
1, 141144, Note_on_c, 0, 70, 71
1, 141146, Control_c, 0, 67, 60
1, 141150, Note_on_c, 0, 46, 48
1, 141160, Control_c, 0, 67, 61
1, 141183, Control_c, 0, 64, 68
1, 141198, Control_c, 0, 64, 69
1, 141198, Control_c, 0, 67, 62
1, 141213, Control_c, 0, 64, 69
1, 141223, Note_off_c, 0, 70, 61
1, 141228, Control_c, 0, 64, 70
1, 141228, Control_c, 0, 67, 62
1, 141242, Control_c, 0, 64, 71
1, 141242, Control_c, 0, 67, 63
1, 141258, Control_c, 0, 64, 71
1, 141273, Control_c, 0, 64, 72
1, 141328, Note_on_c, 0, 70, 79
1, 141341, Note_on_c, 0, 50, 44
1, 141353, Note_off_c, 0, 46, 37
1, 141362, Control_c, 0, 67, 63
1, 141406, Control_c, 0, 67, 63
1, 141436, Control_c, 0, 64, 71
1, 141465, Control_c, 0, 64, 71
1, 141465, Control_c, 0, 67, 62
1, 141480, Control_c, 0, 64, 70
1, 141480, Control_c, 0, 67, 62
1, 141504, Note_on_c, 0, 72, 81
1, 141509, Control_c, 0, 64, 70
1, 141524, Control_c, 0, 64, 69
1, 141526, Note_on_c, 0, 53, 48
1, 141538, Note_off_c, 0, 70, 62
1, 141539, Control_c, 0, 64, 69
1, 141539, Control_c, 0, 67, 61
1, 141555, Note_off_c, 0, 50, 38
1, 141569, Control_c, 0, 64, 68
1, 141569, Control_c, 0, 67, 61
1, 141572, Note_off_c, 0, 53, 52
1, 141583, Control_c, 0, 64, 68
1, 141598, Control_c, 0, 64, 67
1, 141598, Control_c, 0, 67, 60
1, 141613, Control_c, 0, 64, 66
1, 141628, Control_c, 0, 64, 66
1, 141643, Control_c, 0, 64, 65
1, 141643, Control_c, 0, 67, 60
1, 141657, Control_c, 0, 64, 65
1, 141672, Control_c, 0, 64, 64
1, 141672, Control_c, 0, 67, 59
1, 141682, Note_on_c, 0, 70, 76
1, 141687, Control_c, 0, 64, 63
1, 141702, Control_c, 0, 64, 61
1, 141717, Control_c, 0, 64, 60
1, 141762, Control_c, 0, 64, 60
1, 141762, Control_c, 0, 67, 59
1, 141776, Control_c, 0, 64, 59
1, 141781, Note_off_c, 0, 72, 52
1, 141791, Control_c, 0, 64, 58
1, 141806, Control_c, 0, 64, 57
1, 141806, Control_c, 0, 67, 58
1, 141821, Control_c, 0, 64, 57
1, 141847, Note_on_c, 0, 69, 69
1, 141850, Control_c, 0, 64, 56
1, 141865, Control_c, 0, 64, 54
1, 141878, Note_on_c, 0, 46, 39
1, 141880, Control_c, 0, 64, 50
1, 141894, Control_c, 0, 64, 38
1, 141898, Note_off_c, 0, 70, 57
1, 141909, Control_c, 0, 64, 0
1, 142006, Control_c, 0, 67, 58
1, 142051, Note_on_c, 0, 68, 62
1, 142051, Note_off_c, 0, 69, 63
1, 142071, Note_on_c, 0, 50, 32
1, 142078, Note_off_c, 0, 46, 36
1, 142081, Control_c, 0, 67, 57
1, 142125, Control_c, 0, 67, 57
1, 142201, Note_off_c, 0, 50, 55
1, 142214, Control_c, 0, 67, 57
1, 142220, Note_on_c, 0, 53, 46
1, 142229, Control_c, 0, 67, 58
1, 142259, Control_c, 0, 67, 59
1, 142273, Control_c, 0, 67, 59
1, 142318, Control_c, 0, 67, 59
1, 142332, Control_c, 0, 67, 58
1, 142347, Note_off_c, 0, 53, 58
1, 142347, Control_c, 0, 67, 57
1, 142362, Control_c, 0, 67, 57
1, 142364, Note_off_c, 0, 68, 61
1, 142392, Note_on_c, 0, 50, 49
1, 142406, Control_c, 0, 67, 57
1, 142421, Control_c, 0, 67, 58
1, 142436, Control_c, 0, 67, 58
1, 142466, Control_c, 0, 67, 59
1, 142510, Control_c, 0, 67, 59
1, 142522, Note_off_c, 0, 50, 59
1, 142525, Control_c, 0, 67, 60
1, 142540, Control_c, 0, 67, 60
1, 142540, Note_on_c, 0, 68, 68
1, 142546, Note_on_c, 0, 46, 54
1, 142555, Control_c, 0, 67, 61
1, 142569, Note_off_c, 0, 68, 68
1, 142585, Control_c, 0, 67, 61
1, 142644, Control_c, 0, 67, 61
1, 142659, Control_c, 0, 67, 60
1, 142695, Control_c, 0, 67, 60
1, 142707, Note_on_c, 0, 68, 79
1, 142710, Control_c, 0, 67, 59
1, 142717, Note_on_c, 0, 50, 56
1, 142733, Note_off_c, 0, 68, 65
1, 142814, Control_c, 0, 67, 58
1, 142844, Control_c, 0, 67, 58
1, 142859, Control_c, 0, 64, 22
1, 142859, Control_c, 0, 67, 57
1, 142874, Control_c, 0, 64, 62
1, 142874, Control_c, 0, 67, 57
1, 142875, Note_on_c, 0, 68, 75
1, 142887, Note_on_c, 0, 53, 54
1, 142889, Control_c, 0, 64, 65
1, 142890, Note_off_c, 0, 50, 52
1, 142897, Note_off_c, 0, 68, 70
1, 142903, Control_c, 0, 64, 67
1, 142918, Note_off_c, 0, 46, 20
1, 142918, Control_c, 0, 64, 68
1, 142930, Note_off_c, 0, 53, 60
1, 142933, Control_c, 0, 64, 68
1, 142948, Control_c, 0, 64, 69
1, 142963, Control_c, 0, 64, 69
1, 143008, Control_c, 0, 64, 68
1, 143023, Control_c, 0, 64, 64
1, 143037, Control_c, 0, 64, 39
1, 143039, Note_on_c, 0, 80, 66
1, 143052, Control_c, 0, 64, 0
1, 143078, Note_off_c, 0, 80, 43
1, 143111, Control_c, 0, 67, 57
1, 143121, Note_on_c, 0, 82, 53
1, 143141, Control_c, 0, 67, 58
1, 143152, Note_off_c, 0, 82, 52
1, 143183, Note_on_c, 0, 79, 77
1, 143202, Note_on_c, 0, 46, 60
1, 143215, Control_c, 0, 67, 58
1, 143229, Control_c, 0, 67, 59
1, 143244, Control_c, 0, 67, 59
1, 143253, Note_off_c, 0, 79, 60
1, 143259, Control_c, 0, 67, 60
1, 143273, Note_on_c, 0, 80, 71
1, 143273, Control_c, 0, 67, 60
1, 143334, Control_c, 0, 67, 60
1, 143339, Note_off_c, 0, 46, 55
1, 143340, Note_off_c, 0, 80, 61
1, 143346, Note_on_c, 0, 50, 59
1, 143348, Control_c, 0, 67, 59
1, 143354, Note_on_c, 0, 77, 71
1, 143393, Control_c, 0, 67, 59
1, 143401, Note_off_c, 0, 77, 62
1, 143430, Control_c, 0, 67, 58
1, 143434, Note_on_c, 0, 79, 73
1, 143460, Control_c, 0, 67, 58
1, 143499, Note_off_c, 0, 79, 62
1, 143517, Note_on_c, 0, 75, 75
1, 143518, Note_off_c, 0, 50, 57
1, 143519, Control_c, 0, 67, 58
1, 143534, Note_on_c, 0, 53, 56
1, 143576, Note_off_c, 0, 75, 64
1, 143594, Note_on_c, 0, 77, 74
1, 143637, Control_c, 0, 67, 58
1, 143653, Control_c, 0, 67, 57
1, 143655, Note_off_c, 0, 77, 62
1, 143668, Control_c, 0, 67, 57
1, 143675, Note_on_c, 0, 74, 72
1, 143677, Note_off_c, 0, 53, 63
1, 143683, Control_c, 0, 67, 56
1, 143697, Note_on_c, 0, 56, 60
1, 143717, Note_off_c, 0, 74, 62
1, 143742, Control_c, 0, 67, 57
1, 143755, Note_on_c, 0, 75, 76
1, 143772, Control_c, 0, 67, 57
1, 143786, Control_c, 0, 67, 58
1, 143797, Note_off_c, 0, 75, 61
1, 143831, Note_on_c, 0, 72, 69
1, 143836, Note_off_c, 0, 56, 58
1, 143847, Note_on_c, 0, 53, 49
1, 143869, Note_off_c, 0, 72, 55
1, 143875, Control_c, 0, 67, 58
1, 143905, Note_on_c, 0, 74, 69
1, 143905, Control_c, 0, 67, 59
1, 143920, Control_c, 0, 67, 59
1, 143950, Control_c, 0, 67, 60
1, 143953, Note_off_c, 0, 53, 58
1, 143966, Note_off_c, 0, 74, 62
1, 143979, Control_c, 0, 67, 60
1, 143982, Note_on_c, 0, 70, 75
1, 144007, Note_on_c, 0, 50, 39
1, 144009, Control_c, 0, 67, 61
1, 144024, Control_c, 0, 67, 62
1, 144038, Control_c, 0, 67, 62
1, 144052, Control_c, 0, 67, 63
1, 144054, Note_off_c, 0, 70, 62
1, 144066, Note_on_c, 0, 72, 71
1, 144067, Control_c, 0, 67, 63
1, 144082, Control_c, 0, 67, 64
1, 144096, Control_c, 0, 67, 64
1, 144111, Control_c, 0, 67, 65
1, 144126, Control_c, 0, 67, 65
1, 144130, Note_off_c, 0, 50, 52
1, 144130, Note_off_c, 0, 72, 63
1, 144146, Note_on_c, 0, 46, 46
1, 144149, Note_on_c, 0, 68, 72
1, 144178, Control_c, 0, 67, 66
1, 144208, Control_c, 0, 67, 65
1, 144209, Note_off_c, 0, 46, 55
1, 144217, Note_off_c, 0, 68, 62
1, 144233, Note_on_c, 0, 70, 74
1, 144252, Control_c, 0, 67, 65
1, 144296, Control_c, 0, 67, 64
1, 144311, Control_c, 0, 67, 64
1, 144353, Note_on_c, 0, 68, 74
1, 144356, Control_c, 0, 67, 63
1, 144368, Note_off_c, 0, 70, 55
1, 144385, Control_c, 0, 67, 63
1, 144430, Control_c, 0, 67, 62
1, 144461, Control_c, 0, 67, 62
1, 144490, Control_c, 0, 67, 61
1, 144505, Control_c, 0, 67, 61
1, 144519, Control_c, 0, 67, 60
1, 144534, Note_on_c, 0, 67, 62
1, 144534, Control_c, 0, 67, 60
1, 144549, Note_off_c, 0, 68, 59
1, 144549, Control_c, 0, 67, 59
1, 144555, Note_on_c, 0, 47, 41
1, 144585, Note_off_c, 0, 67, 59
1, 144609, Control_c, 0, 67, 59
1, 144623, Control_c, 0, 67, 58
1, 144638, Control_c, 0, 67, 58
1, 144713, Control_c, 0, 67, 57
1, 144722, Note_on_c, 0, 67, 56
1, 144737, Note_off_c, 0, 47, 40
1, 144762, Note_on_c, 0, 50, 18
1, 144875, Control_c, 0, 67, 57
1, 144907, Note_on_c, 0, 53, 39
1, 144913, Note_off_c, 0, 50, 39
1, 144951, Note_off_c, 0, 67, 64
1, 144957, Control_c, 0, 67, 56
1, 144987, Control_c, 0, 64, 46
1, 145001, Control_c, 0, 64, 63
1, 145001, Control_c, 0, 67, 57
1, 145016, Control_c, 0, 64, 66
1, 145031, Control_c, 0, 64, 67
1, 145045, Control_c, 0, 64, 68
1, 145054, Note_off_c, 0, 53, 56
1, 145060, Control_c, 0, 67, 56
1, 145080, Note_on_c, 0, 55, 45
1, 145120, Control_c, 0, 64, 67
1, 145134, Control_c, 0, 64, 67
1, 145149, Control_c, 0, 64, 66
1, 145164, Control_c, 0, 64, 65
1, 145179, Control_c, 0, 64, 62
1, 145179, Control_c, 0, 67, 56
1, 145193, Control_c, 0, 64, 56
1, 145208, Control_c, 0, 64, 54
1, 145222, Note_off_c, 0, 55, 58
1, 145223, Control_c, 0, 64, 59
1, 145223, Control_c, 0, 67, 55
1, 145224, Note_on_c, 0, 79, 67
1, 145238, Control_c, 0, 64, 62
1, 145238, Control_c, 0, 67, 55
1, 145243, Note_on_c, 0, 53, 48
1, 145254, Control_c, 0, 64, 65
1, 145254, Control_c, 0, 67, 54
1, 145269, Control_c, 0, 64, 67
1, 145269, Control_c, 0, 67, 54
1, 145284, Control_c, 0, 64, 71
1, 145284, Control_c, 0, 67, 53
1, 145298, Control_c, 0, 64, 74
1, 145298, Control_c, 0, 67, 52
1, 145313, Control_c, 0, 64, 77
1, 145313, Control_c, 0, 67, 50
1, 145316, Note_off_c, 0, 79, 59
1, 145328, Control_c, 0, 64, 78
1, 145328, Control_c, 0, 67, 48
1, 145342, Control_c, 0, 67, 46
1, 145357, Control_c, 0, 67, 45
1, 145384, Note_off_c, 0, 53, 63
1, 145387, Control_c, 0, 67, 45
1, 145412, Note_on_c, 0, 50, 46
1, 145416, Note_on_c, 0, 79, 80
1, 145416, Control_c, 0, 64, 76
1, 145431, Control_c, 0, 64, 73
1, 145446, Control_c, 0, 64, 70
1, 145461, Control_c, 0, 64, 68
1, 145461, Control_c, 0, 67, 45
1, 145476, Control_c, 0, 64, 68
1, 145491, Control_c, 0, 64, 70
1, 145506, Control_c, 0, 64, 73
1, 145521, Control_c, 0, 64, 75
1, 145536, Control_c, 0, 64, 76
1, 145550, Control_c, 0, 64, 77
1, 145565, Control_c, 0, 64, 77
1, 145570, Note_on_c, 0, 77, 79
1, 145579, Note_on_c, 0, 47, 52
1, 145608, Note_off_c, 0, 47, 57
1, 145609, Note_off_c, 0, 79, 56
1, 145615, Note_off_c, 0, 50, 36
1, 145636, Note_off_c, 0, 77, 61
1, 145639, Control_c, 0, 67, 46
1, 145654, Control_c, 0, 67, 46
1, 145676, Control_c, 0, 67, 47
1, 145691, Control_c, 0, 67, 47
1, 145706, Control_c, 0, 64, 77
1, 145706, Control_c, 0, 67, 48
1, 145720, Control_c, 0, 67, 49
1, 145735, Control_c, 0, 64, 76
1, 145750, Control_c, 0, 64, 75
1, 145756, Note_on_c, 0, 77, 81
1, 145765, Control_c, 0, 64, 73
1, 145780, Control_c, 0, 64, 71
1, 145795, Control_c, 0, 64, 67
1, 145795, Control_c, 0, 67, 49
1, 145810, Control_c, 0, 64, 57
1, 145810, Control_c, 0, 67, 50
1, 145824, Control_c, 0, 64, 0
1, 145869, Control_c, 0, 67, 49
1, 145883, Control_c, 0, 67, 49
1, 145913, Control_c, 0, 67, 48
1, 145921, Note_on_c, 0, 76, 63
1, 145921, Note_off_c, 0, 77, 57
1, 145928, Control_c, 0, 67, 48
1, 145932, Note_on_c, 0, 58, 41
1, 145972, Control_c, 0, 67, 47
1, 145989, Note_off_c, 0, 76, 61
1, 146002, Control_c, 0, 67, 47
1, 146031, Control_c, 0, 67, 46
1, 146073, Note_off_c, 0, 58, 57
1, 146106, Note_on_c, 0, 76, 58
1, 146106, Control_c, 0, 67, 46
1, 146117, Note_on_c, 0, 61, 37
1, 146121, Control_c, 0, 67, 45
1, 146165, Control_c, 0, 67, 45
1, 146210, Control_c, 0, 67, 44
1, 146239, Control_c, 0, 67, 44
1, 146242, Note_off_c, 0, 61, 52
1, 146269, Control_c, 0, 67, 43
1, 146284, Control_c, 0, 67, 42
1, 146299, Control_c, 0, 67, 39
1, 146307, Note_on_c, 0, 64, 38
1, 146314, Control_c, 0, 67, 37
1, 146329, Control_c, 0, 67, 34
1, 146343, Control_c, 0, 67, 32
1, 146351, Note_off_c, 0, 76, 48
1, 146358, Control_c, 0, 67, 31
1, 146484, Control_c, 0, 67, 32
1, 146495, Note_on_c, 0, 67, 45
1, 146498, Control_c, 0, 67, 32
1, 146513, Control_c, 0, 67, 33
1, 146528, Control_c, 0, 67, 34
1, 146534, Note_off_c, 0, 64, 37
1, 146543, Control_c, 0, 67, 35
1, 146573, Control_c, 0, 67, 35
1, 146588, Control_c, 0, 64, 29
1, 146603, Control_c, 0, 64, 50
1, 146603, Control_c, 0, 67, 36
1, 146618, Control_c, 0, 64, 61
1, 146633, Control_c, 0, 64, 66
1, 146647, Control_c, 0, 64, 70
1, 146648, Note_on_c, 0, 85, 73
1, 146662, Control_c, 0, 64, 76
1, 146677, Control_c, 0, 64, 80
1, 146677, Control_c, 0, 67, 35
1, 146692, Control_c, 0, 64, 83
1, 146692, Control_c, 0, 67, 35
1, 146706, Control_c, 0, 64, 84
1, 146706, Control_c, 0, 67, 34
1, 146721, Control_c, 0, 64, 85
1, 146723, Note_off_c, 0, 85, 63
1, 146736, Control_c, 0, 64, 86
1, 146736, Control_c, 0, 67, 34
1, 146751, Control_c, 0, 64, 86
1, 146766, Control_c, 0, 64, 87
1, 146766, Control_c, 0, 67, 33
1, 146780, Control_c, 0, 64, 88
1, 146780, Control_c, 0, 67, 33
1, 146795, Control_c, 0, 64, 88
1, 146795, Control_c, 0, 67, 32
1, 146810, Control_c, 0, 67, 31
1, 146817, Note_on_c, 0, 85, 81
1, 146929, Control_c, 0, 67, 32
1, 146944, Control_c, 0, 64, 88
1, 146944, Control_c, 0, 67, 32
1, 146957, Note_off_c, 0, 67, 40
1, 146957, Note_off_c, 0, 85, 55
1, 146959, Control_c, 0, 67, 33
1, 146974, Control_c, 0, 64, 87
1, 146981, Note_on_c, 0, 76, 81
1, 146988, Control_c, 0, 64, 87
1, 146988, Control_c, 0, 67, 33
1, 147003, Control_c, 0, 64, 86
1, 147018, Control_c, 0, 64, 86
1, 147018, Control_c, 0, 67, 34
1, 147034, Control_c, 0, 64, 85
1, 147034, Control_c, 0, 67, 34
1, 147049, Control_c, 0, 64, 85
1, 147049, Control_c, 0, 67, 35
1, 147063, Control_c, 0, 64, 84
1, 147063, Control_c, 0, 67, 36
1, 147078, Control_c, 0, 64, 83
1, 147093, Control_c, 0, 64, 83
1, 147108, Control_c, 0, 64, 82
1, 147122, Control_c, 0, 64, 81
1, 147137, Control_c, 0, 64, 80
1, 147137, Control_c, 0, 67, 37
1, 147152, Control_c, 0, 64, 79
1, 147156, Note_on_c, 0, 79, 80
1, 147175, Control_c, 0, 64, 78
1, 147184, Note_off_c, 0, 76, 63
1, 147190, Control_c, 0, 64, 75
1, 147204, Control_c, 0, 64, 71
1, 147219, Control_c, 0, 64, 65
1, 147234, Control_c, 0, 64, 27
1, 147248, Control_c, 0, 64, 0
1, 147293, Control_c, 0, 67, 36
1, 147337, Control_c, 0, 67, 36
1, 147341, Note_on_c, 0, 77, 73
1, 147356, Note_on_c, 0, 57, 42
1, 147367, Control_c, 0, 67, 36
1, 147377, Note_off_c, 0, 79, 57
1, 147399, Note_off_c, 0, 77, 62
1, 147411, Control_c, 0, 67, 37
1, 147500, Control_c, 0, 67, 36
1, 147502, Note_off_c, 0, 57, 55
1, 147526, Note_on_c, 0, 77, 64
1, 147535, Note_on_c, 0, 60, 43
1, 147619, Control_c, 0, 67, 36
1, 147664, Note_off_c, 0, 60, 57
1, 147694, Control_c, 0, 67, 36
1, 147707, Note_on_c, 0, 65, 48
1, 147753, Control_c, 0, 67, 37
1, 147783, Control_c, 0, 67, 37
1, 147798, Control_c, 0, 67, 38
1, 147812, Control_c, 0, 67, 38
1, 147827, Control_c, 0, 67, 39
1, 147857, Control_c, 0, 67, 39
1, 147868, Note_off_c, 0, 65, 63
1, 147890, Note_on_c, 0, 69, 52
1, 147923, Control_c, 0, 67, 40
1, 147938, Control_c, 0, 67, 40
1, 147998, Control_c, 0, 67, 41
1, 148042, Control_c, 0, 67, 41
1, 148071, Control_c, 0, 67, 42
1, 148078, Note_on_c, 0, 78, 67
1, 148091, Note_off_c, 0, 77, 51
1, 148101, Control_c, 0, 67, 42
1, 148145, Control_c, 0, 67, 43
1, 148261, Note_on_c, 0, 79, 68
1, 148264, Note_off_c, 0, 78, 59
1, 148323, Control_c, 0, 67, 42
1, 148344, Note_off_c, 0, 69, 60
1, 148397, Control_c, 0, 67, 43
1, 148430, Note_off_c, 0, 79, 59
1, 148435, Note_on_c, 0, 75, 64
1, 148457, Control_c, 0, 67, 43
1, 148636, Note_on_c, 0, 73, 58
1, 148641, Note_off_c, 0, 75, 59
1, 148649, Control_c, 0, 67, 44
1, 148686, Control_c, 0, 67, 44
1, 148731, Control_c, 0, 67, 44
1, 148761, Control_c, 0, 67, 43
1, 148775, Control_c, 0, 67, 43
1, 148790, Control_c, 0, 67, 42
1, 148805, Control_c, 0, 67, 42
1, 148820, Control_c, 0, 67, 41
1, 148835, Control_c, 0, 67, 41
1, 148836, Note_on_c, 0, 74, 57
1, 148841, Note_on_c, 0, 58, 39
1, 148861, Note_off_c, 0, 73, 58
1, 148879, Control_c, 0, 67, 40
1, 148895, Note_off_c, 0, 74, 57
1, 148923, Control_c, 0, 67, 41
1, 148953, Control_c, 0, 67, 41
1, 148967, Control_c, 0, 67, 41
1, 148982, Control_c, 0, 67, 40
1, 149050, Note_on_c, 0, 74, 34
1, 149052, Note_off_c, 0, 58, 50
1, 149067, Note_on_c, 0, 62, 36
1, 149309, Note_off_c, 0, 62, 41
1, 149312, Note_on_c, 0, 65, 37
1, 149369, Control_c, 0, 67, 40
1, 149435, Control_c, 0, 67, 39
1, 149590, Note_on_c, 0, 70, 35
1, 149599, Note_off_c, 0, 65, 41
1, 149628, Control_c, 0, 64, 25
1, 149629, Note_off_c, 0, 74, 60
1, 149642, Control_c, 0, 64, 61
1, 149657, Control_c, 0, 64, 67
1, 149672, Control_c, 0, 64, 73
1, 149672, Control_c, 0, 67, 39
1, 149687, Control_c, 0, 64, 79
1, 149702, Control_c, 0, 64, 83
1, 149716, Control_c, 0, 64, 85
1, 149731, Control_c, 0, 64, 86
1, 149746, Control_c, 0, 64, 87
1, 149761, Control_c, 0, 64, 88
1, 149761, Control_c, 0, 67, 39
1, 149776, Control_c, 0, 64, 89
1, 149790, Control_c, 0, 64, 90
1, 149805, Control_c, 0, 64, 91
1, 149820, Control_c, 0, 64, 91
1, 149895, Note_on_c, 0, 77, 49
1, 149909, Control_c, 0, 67, 39
1, 149931, Note_off_c, 0, 70, 40
1, 149938, Control_c, 0, 67, 38
1, 149968, Control_c, 0, 67, 39
1, 149983, Control_c, 0, 67, 39
1, 150018, Note_off_c, 0, 77, 39
1, 150074, Control_c, 0, 67, 39
1, 150103, Control_c, 0, 64, 91
1, 150103, Control_c, 0, 67, 38
1, 150132, Control_c, 0, 64, 90
1, 150132, Control_c, 0, 67, 38
1, 150147, Control_c, 0, 64, 89
1, 150147, Control_c, 0, 67, 37
1, 150170, Control_c, 0, 64, 89
1, 150185, Control_c, 0, 64, 88
1, 150185, Control_c, 0, 67, 38
1, 150191, Note_on_c, 0, 79, 45
1, 150200, Control_c, 0, 64, 87
1, 150214, Control_c, 0, 64, 85
1, 150229, Control_c, 0, 64, 84
1, 150244, Control_c, 0, 64, 82
1, 150244, Control_c, 0, 67, 37
1, 150258, Note_on_c, 0, 77, 66
1, 150259, Control_c, 0, 64, 81
1, 150260, Note_off_c, 0, 79, 40
1, 150273, Control_c, 0, 64, 79
1, 150288, Control_c, 0, 64, 76
1, 150303, Control_c, 0, 64, 72
1, 150318, Control_c, 0, 64, 67
1, 150323, Note_off_c, 0, 77, 54
1, 150333, Control_c, 0, 64, 60
1, 150345, Note_on_c, 0, 75, 59
1, 150347, Control_c, 0, 64, 52
1, 150347, Control_c, 0, 67, 37
1, 150377, Control_c, 0, 64, 53
1, 150392, Control_c, 0, 64, 51
1, 150403, Note_off_c, 0, 75, 59
1, 150407, Control_c, 0, 64, 47
1, 150411, Note_on_c, 0, 74, 59
1, 150421, Control_c, 0, 64, 40
1, 150436, Control_c, 0, 64, 37
1, 150466, Control_c, 0, 64, 36
1, 150466, Control_c, 0, 67, 37
1, 150481, Control_c, 0, 64, 29
1, 150496, Control_c, 0, 64, 0
1, 150504, Note_off_c, 0, 74, 57
1, 150513, Note_on_c, 0, 72, 57
1, 150532, Note_on_c, 0, 63, 38
1, 150600, Control_c, 0, 64, 21
1, 150600, Control_c, 0, 67, 37
1, 150614, Control_c, 0, 64, 47
1, 150629, Control_c, 0, 64, 60
1, 150644, Control_c, 0, 64, 65
1, 150658, Control_c, 0, 64, 68
1, 150673, Control_c, 0, 64, 71
1, 150688, Control_c, 0, 64, 74
1, 150688, Control_c, 0, 67, 36
1, 150692, Note_off_c, 0, 63, 53
1, 150693, Note_on_c, 0, 65, 42
1, 150703, Control_c, 0, 64, 77
1, 150718, Control_c, 0, 64, 80
1, 150718, Control_c, 0, 67, 35
1, 150733, Control_c, 0, 64, 82
1, 150733, Control_c, 0, 67, 35
1, 150747, Control_c, 0, 64, 82
1, 150747, Control_c, 0, 67, 34
1, 150762, Control_c, 0, 64, 83
1, 150792, Control_c, 0, 67, 34
1, 150806, Control_c, 0, 67, 35
1, 150821, Control_c, 0, 67, 36
1, 150837, Control_c, 0, 67, 37
1, 150847, Note_off_c, 0, 65, 41
1, 150852, Control_c, 0, 67, 38
1, 150863, Note_on_c, 0, 63, 51
1, 150867, Control_c, 0, 67, 39
1, 150881, Control_c, 0, 67, 39
1, 150896, Control_c, 0, 67, 40
1, 150919, Control_c, 0, 67, 41
1, 150934, Control_c, 0, 64, 83
1, 150934, Control_c, 0, 67, 41
1, 150949, Control_c, 0, 67, 42
1, 150963, Control_c, 0, 64, 82
1, 150978, Control_c, 0, 64, 82
1, 150993, Control_c, 0, 67, 42
1, 151007, Note_off_c, 0, 63, 53
1, 151008, Control_c, 0, 64, 81
1, 151008, Control_c, 0, 67, 43
1, 151010, Note_off_c, 0, 72, 35
1, 151020, Note_on_c, 0, 69, 62
1, 151023, Control_c, 0, 64, 81
1, 151023, Control_c, 0, 67, 44
1, 151037, Control_c, 0, 64, 80
1, 151037, Control_c, 0, 67, 45
1, 151041, Note_on_c, 0, 65, 39
1, 151052, Control_c, 0, 67, 46
1, 151067, Control_c, 0, 64, 80
1, 151067, Control_c, 0, 67, 52
1, 151082, Control_c, 0, 64, 79
1, 151082, Control_c, 0, 67, 58
1, 151096, Control_c, 0, 64, 79
1, 151096, Control_c, 0, 67, 63
1, 151111, Control_c, 0, 64, 77
1, 151111, Control_c, 0, 67, 66
1, 151126, Control_c, 0, 64, 74
1, 151126, Control_c, 0, 67, 71
1, 151141, Control_c, 0, 64, 67
1, 151141, Control_c, 0, 67, 72
1, 151156, Control_c, 0, 64, 13
1, 151156, Control_c, 0, 67, 72
1, 151164, Note_off_c, 0, 69, 37
1, 151170, Control_c, 0, 64, 0
1, 151170, Control_c, 0, 67, 71
1, 151185, Control_c, 0, 67, 70
1, 151186, Note_off_c, 0, 65, 41
1, 151187, Note_on_c, 0, 70, 60
1, 151200, Control_c, 0, 64, 39
1, 151200, Control_c, 0, 67, 69
1, 151206, Note_on_c, 0, 62, 40
1, 151215, Control_c, 0, 64, 56
1, 151215, Control_c, 0, 67, 69
1, 151217, Note_off_c, 0, 70, 66
1, 151230, Control_c, 0, 64, 62
1, 151230, Control_c, 0, 67, 68
1, 151244, Control_c, 0, 64, 64
1, 151244, Control_c, 0, 67, 67
1, 151259, Note_on_c, 0, 77, 64
1, 151259, Control_c, 0, 64, 65
1, 151274, Control_c, 0, 64, 66
1, 151274, Control_c, 0, 67, 67
1, 151289, Control_c, 0, 64, 66
1, 151304, Control_c, 0, 67, 67
1, 151306, Note_off_c, 0, 77, 56
1, 151310, Note_off_c, 0, 62, 60
1, 151328, Note_on_c, 0, 76, 66
1, 151339, Note_on_c, 0, 65, 38
1, 151363, Control_c, 0, 64, 67
1, 151363, Control_c, 0, 67, 68
1, 151378, Control_c, 0, 67, 68
1, 151378, Note_off_c, 0, 76, 62
1, 151413, Note_on_c, 0, 77, 70
1, 151437, Control_c, 0, 64, 66
1, 151452, Control_c, 0, 64, 65
1, 151452, Control_c, 0, 67, 68
1, 151457, Note_off_c, 0, 77, 58
1, 151467, Control_c, 0, 64, 54
1, 151468, Note_off_c, 0, 65, 47
1, 151478, Note_on_c, 0, 79, 69
1, 151482, Control_c, 0, 64, 0
1, 151482, Control_c, 0, 67, 67
1, 151503, Note_on_c, 0, 62, 30
1, 151540, Note_off_c, 0, 79, 53
1, 151552, Note_on_c, 0, 77, 64
1, 151606, Note_off_c, 0, 77, 59
1, 151617, Note_on_c, 0, 75, 69
1, 151621, Note_off_c, 0, 62, 52
1, 151649, Note_on_c, 0, 65, 29
1, 151676, Note_off_c, 0, 75, 60
1, 151697, Control_c, 0, 67, 67
1, 151699, Note_on_c, 0, 74, 65
1, 151730, Note_off_c, 0, 74, 62
1, 151742, Control_c, 0, 67, 66
1, 151773, Note_on_c, 0, 72, 70
1, 151783, Note_off_c, 0, 65, 46
1, 151798, Note_off_c, 0, 72, 69
1, 151803, Note_on_c, 0, 63, 47
1, 151816, Control_c, 0, 67, 66
1, 151831, Control_c, 0, 67, 64
1, 151846, Control_c, 0, 67, 63
1, 151875, Control_c, 0, 67, 64
1, 151890, Control_c, 0, 67, 65
1, 151905, Control_c, 0, 67, 65
1, 151919, Control_c, 0, 67, 66
1, 151934, Control_c, 0, 67, 66
1, 151979, Control_c, 0, 67, 66
1, 151998, Note_off_c, 0, 63, 52
1, 152001, Note_on_c, 0, 72, 65
1, 152008, Control_c, 0, 67, 65
1, 152026, Note_on_c, 0, 65, 42
1, 152037, Control_c, 0, 67, 66
1, 152052, Control_c, 0, 67, 66
1, 152067, Control_c, 0, 67, 67
1, 152082, Control_c, 0, 67, 67
1, 152097, Control_c, 0, 67, 68
1, 152111, Control_c, 0, 67, 68
1, 152126, Control_c, 0, 64, 59
1, 152141, Control_c, 0, 64, 66
1, 152141, Control_c, 0, 67, 69
1, 152148, Note_off_c, 0, 65, 58
1, 152156, Control_c, 0, 64, 69
1, 152168, Note_on_c, 0, 63, 47
1, 152171, Control_c, 0, 64, 73
1, 152186, Control_c, 0, 64, 77
1, 152201, Control_c, 0, 64, 80
1, 152201, Control_c, 0, 67, 68
1, 152216, Control_c, 0, 64, 80
1, 152216, Control_c, 0, 67, 68
1, 152231, Control_c, 0, 64, 81
1, 152231, Control_c, 0, 67, 67
1, 152245, Control_c, 0, 67, 66
1, 152260, Control_c, 0, 67, 65
1, 152274, Control_c, 0, 64, 80
1, 152289, Control_c, 0, 67, 65
1, 152291, Note_off_c, 0, 72, 63
1, 152304, Control_c, 0, 67, 64
1, 152308, Note_on_c, 0, 69, 71
1, 152317, Note_on_c, 0, 65, 51
1, 152317, Note_off_c, 0, 63, 55
1, 152318, Control_c, 0, 67, 64
1, 152348, Control_c, 0, 67, 63
1, 152363, Control_c, 0, 64, 80
1, 152378, Control_c, 0, 67, 62
1, 152392, Control_c, 0, 64, 79
1, 152392, Control_c, 0, 67, 61
1, 152415, Control_c, 0, 64, 78
1, 152415, Control_c, 0, 67, 61
1, 152430, Control_c, 0, 64, 76
1, 152430, Control_c, 0, 67, 60
1, 152445, Control_c, 0, 64, 72
1, 152445, Control_c, 0, 67, 59
1, 152460, Control_c, 0, 64, 64
1, 152460, Control_c, 0, 67, 57
1, 152475, Control_c, 0, 64, 0
1, 152475, Control_c, 0, 67, 56
1, 152487, Note_on_c, 0, 70, 73
1, 152490, Control_c, 0, 67, 56
1, 152491, Note_off_c, 0, 65, 60
1, 152501, Note_off_c, 0, 69, 57
1, 152505, Control_c, 0, 67, 55
1, 152511, Note_on_c, 0, 62, 46
1, 152520, Control_c, 0, 64, 28
1, 152520, Control_c, 0, 67, 54
1, 152526, Note_off_c, 0, 70, 66
1, 152534, Control_c, 0, 64, 49
1, 152534, Control_c, 0, 67, 52
1, 152549, Control_c, 0, 64, 59
1, 152549, Control_c, 0, 67, 48
1, 152564, Control_c, 0, 64, 63
1, 152564, Control_c, 0, 67, 45
1, 152565, Note_on_c, 0, 77, 72
1, 152579, Control_c, 0, 64, 65
1, 152579, Control_c, 0, 67, 42
1, 152594, Control_c, 0, 64, 66
1, 152594, Control_c, 0, 67, 39
1, 152608, Control_c, 0, 64, 67
1, 152608, Control_c, 0, 67, 37
1, 152623, Control_c, 0, 67, 36
1, 152636, Note_on_c, 0, 76, 76
1, 152636, Note_off_c, 0, 77, 60
1, 152638, Control_c, 0, 64, 66
1, 152638, Control_c, 0, 67, 34
1, 152647, Note_off_c, 0, 62, 58
1, 152653, Control_c, 0, 64, 66
1, 152653, Control_c, 0, 67, 33
1, 152663, Note_on_c, 0, 65, 52
1, 152667, Control_c, 0, 64, 65
1, 152667, Control_c, 0, 67, 32
1, 152682, Control_c, 0, 64, 64
1, 152697, Note_off_c, 0, 76, 63
1, 152697, Control_c, 0, 64, 63
1, 152712, Control_c, 0, 64, 61
1, 152718, Note_on_c, 0, 77, 72
1, 152727, Control_c, 0, 64, 56
1, 152741, Control_c, 0, 64, 45
1, 152741, Control_c, 0, 67, 32
1, 152756, Control_c, 0, 64, 25
1, 152756, Control_c, 0, 67, 32
1, 152771, Control_c, 0, 64, 0
1, 152781, Note_off_c, 0, 77, 63
1, 152784, Note_on_c, 0, 79, 76
1, 152786, Control_c, 0, 67, 33
1, 152787, Note_off_c, 0, 65, 62
1, 152794, Note_on_c, 0, 62, 48
1, 152801, Control_c, 0, 67, 34
1, 152815, Control_c, 0, 67, 35
1, 152830, Control_c, 0, 67, 36
1, 152845, Control_c, 0, 67, 37
1, 152861, Note_on_c, 0, 77, 72
1, 152871, Note_off_c, 0, 79, 53
1, 152875, Control_c, 0, 67, 37
1, 152889, Control_c, 0, 67, 38
1, 152908, Note_off_c, 0, 62, 62
1, 152931, Note_off_c, 0, 77, 61
1, 152932, Note_on_c, 0, 75, 74
1, 152934, Control_c, 0, 67, 38
1, 152940, Note_on_c, 0, 65, 52
1, 152949, Control_c, 0, 67, 37
1, 152964, Control_c, 0, 67, 36
1, 152979, Control_c, 0, 67, 36
1, 152998, Note_off_c, 0, 75, 63
1, 153004, Note_on_c, 0, 74, 67
1, 153008, Control_c, 0, 67, 35
1, 153023, Control_c, 0, 67, 35
1, 153028, Note_off_c, 0, 74, 71
1, 153038, Control_c, 0, 67, 34
1, 153049, Note_off_c, 0, 65, 56
1, 153053, Control_c, 0, 67, 34
1, 153067, Control_c, 0, 67, 33
1, 153082, Control_c, 0, 67, 32
1, 153097, Control_c, 0, 67, 31
1, 153100, Note_on_c, 0, 74, 68
1, 153110, Note_on_c, 0, 63, 32
1, 153141, Control_c, 0, 67, 32
1, 153179, Control_c, 0, 67, 32
1, 153223, Control_c, 0, 67, 33
1, 153238, Control_c, 0, 67, 33
1, 153253, Control_c, 0, 67, 34
1, 153275, Note_off_c, 0, 63, 54
1, 153275, Note_off_c, 0, 74, 63
1, 153281, Note_on_c, 0, 72, 71
1, 153283, Control_c, 0, 67, 35
1, 153296, Note_on_c, 0, 67, 48
1, 153306, Note_off_c, 0, 72, 69
1, 153313, Control_c, 0, 67, 36
1, 153343, Control_c, 0, 67, 36
1, 153357, Control_c, 0, 67, 37
1, 153402, Control_c, 0, 67, 37
1, 153424, Note_off_c, 0, 67, 44
1, 153445, Note_on_c, 0, 63, 48
1, 153446, Control_c, 0, 67, 38
1, 153461, Control_c, 0, 67, 38
1, 153476, Control_c, 0, 67, 39
1, 153505, Control_c, 0, 67, 39
1, 153535, Control_c, 0, 67, 39
1, 153550, Control_c, 0, 67, 38
1, 153564, Control_c, 0, 67, 38
1, 153579, Control_c, 0, 67, 37
1, 153587, Note_off_c, 0, 63, 60
1, 153594, Control_c, 0, 67, 37
1, 153603, Note_on_c, 0, 72, 68
1, 153609, Control_c, 0, 67, 36
1, 153620, Note_on_c, 0, 67, 37
1, 153624, Control_c, 0, 67, 36
1, 153629, Note_off_c, 0, 72, 70
1, 153638, Control_c, 0, 67, 35
1, 153653, Control_c, 0, 67, 34
1, 153682, Control_c, 0, 67, 33
1, 153712, Control_c, 0, 67, 33
1, 153727, Control_c, 0, 67, 32
1, 153742, Control_c, 0, 67, 32
1, 153757, Control_c, 0, 67, 31
1, 153766, Note_on_c, 0, 72, 69
1, 153772, Control_c, 0, 67, 31
1, 153781, Note_off_c, 0, 67, 41
1, 153788, Note_on_c, 0, 64, 47
1, 153912, Control_c, 0, 67, 31
1, 153930, Note_off_c, 0, 64, 62
1, 153935, Note_off_c, 0, 72, 63
1, 153942, Control_c, 0, 67, 32
1, 153943, Note_on_c, 0, 70, 62
1, 153957, Note_on_c, 0, 67, 39
1, 153957, Control_c, 0, 67, 32
1, 153972, Control_c, 0, 67, 33
1, 153974, Note_off_c, 0, 70, 64
1, 154001, Control_c, 0, 67, 34
1, 154055, Note_off_c, 0, 67, 46
1, 154061, Control_c, 0, 67, 35
1, 154110, Note_on_c, 0, 64, 44
1, 154210, Control_c, 0, 67, 34
1, 154216, Note_off_c, 0, 64, 64
1, 154254, Control_c, 0, 67, 35
1, 154256, Note_on_c, 0, 70, 61
1, 154264, Note_on_c, 0, 67, 49
1, 154277, Note_off_c, 0, 70, 65
1, 154307, Note_off_c, 0, 67, 51
1, 154313, Control_c, 0, 67, 35
1, 154328, Control_c, 0, 67, 36
1, 154402, Control_c, 0, 67, 35
1, 154416, Note_on_c, 0, 69, 70
1, 154417, Control_c, 0, 67, 35
1, 154440, Note_on_c, 0, 53, 33
1, 154446, Control_c, 0, 67, 34
1, 154463, Note_off_c, 0, 69, 62
1, 154476, Control_c, 0, 67, 34
1, 154494, Note_on_c, 0, 70, 62
1, 154539, Note_off_c, 0, 70, 63
1, 154573, Note_on_c, 0, 69, 63
1, 154606, Note_off_c, 0, 69, 66
1, 154623, Control_c, 0, 67, 34
1, 154638, Control_c, 0, 67, 35
1, 154645, Note_on_c, 0, 65, 62
1, 154699, Note_off_c, 0, 65, 60
1, 154726, Note_on_c, 0, 70, 74
1, 154735, Control_c, 0, 67, 35
1, 154748, Note_off_c, 0, 53, 41
1, 154750, Note_on_c, 0, 55, 45
1, 154794, Control_c, 0, 67, 35
1, 154813, Note_off_c, 0, 70, 62
1, 154814, Note_on_c, 0, 72, 72
1, 154892, Note_off_c, 0, 72, 58
1, 154908, Note_on_c, 0, 71, 66
1, 154943, Control_c, 0, 67, 35
1, 154950, Note_off_c, 0, 71, 62
1, 154984, Note_on_c, 0, 65, 68
1, 155027, Note_off_c, 0, 65, 58
1, 155046, Note_off_c, 0, 55, 61
1, 155057, Note_on_c, 0, 57, 63
1, 155059, Note_on_c, 0, 72, 83
1, 155076, Control_c, 0, 67, 36
1, 155136, Note_on_c, 0, 74, 76
1, 155138, Note_off_c, 0, 72, 64
1, 155206, Note_on_c, 0, 72, 75
1, 155212, Note_off_c, 0, 74, 64
1, 155239, Control_c, 0, 67, 36
1, 155250, Note_off_c, 0, 72, 65
1, 155253, Control_c, 0, 67, 37
1, 155275, Note_on_c, 0, 65, 76
1, 155343, Control_c, 0, 67, 37
1, 155350, Note_off_c, 0, 65, 60
1, 155358, Note_on_c, 0, 74, 82
1, 155373, Note_on_c, 0, 58, 74
1, 155373, Control_c, 0, 67, 38
1, 155377, Note_off_c, 0, 57, 61
1, 155441, Note_on_c, 0, 75, 82
1, 155441, Note_off_c, 0, 74, 64
1, 155468, Control_c, 0, 67, 38
1, 155498, Control_c, 0, 67, 37
1, 155516, Note_on_c, 0, 74, 80
1, 155522, Note_off_c, 0, 75, 65
1, 155569, Note_off_c, 0, 74, 66
1, 155587, Control_c, 0, 67, 37
1, 155588, Note_on_c, 0, 65, 79
1, 155602, Control_c, 0, 67, 36
1, 155617, Control_c, 0, 67, 36
1, 155632, Control_c, 0, 67, 35
1, 155635, Note_off_c, 0, 58, 53
1, 155647, Note_off_c, 0, 65, 64
1, 155647, Control_c, 0, 67, 35
1, 155671, Note_on_c, 0, 75, 86
1, 155677, Control_c, 0, 67, 34
1, 155683, Note_on_c, 0, 60, 60
1, 155692, Control_c, 0, 67, 34
1, 155710, Note_off_c, 0, 75, 64
1, 155721, Control_c, 0, 67, 33
1, 155736, Control_c, 0, 67, 32
1, 155751, Control_c, 0, 67, 31
1, 155766, Control_c, 0, 67, 30
1, 155781, Control_c, 0, 67, 30
1, 155796, Control_c, 0, 67, 26
1, 155811, Control_c, 0, 67, 18
1, 155820, Note_on_c, 0, 75, 87
1, 155822, Note_off_c, 0, 60, 53
1, 155826, Control_c, 0, 67, 10
1, 155838, Note_on_c, 0, 65, 61
1, 155840, Control_c, 0, 67, 0
1, 155847, Note_off_c, 0, 75, 67
1, 155956, Note_off_c, 0, 65, 58
1, 155985, Note_on_c, 0, 57, 71
1, 156140, Note_on_c, 0, 72, 84
1, 156141, Note_off_c, 0, 57, 62
1, 156154, Note_on_c, 0, 65, 63
1, 156180, Note_off_c, 0, 72, 66
1, 156247, Control_c, 0, 67, 8
1, 156315, Note_off_c, 0, 65, 55
1, 156318, Note_on_c, 0, 75, 85
1, 156324, Note_on_c, 0, 58, 53
1, 156365, Control_c, 0, 67, 0
1, 156467, Note_off_c, 0, 58, 62
1, 156486, Note_on_c, 0, 74, 80
1, 156499, Note_on_c, 0, 65, 55
1, 156503, Note_off_c, 0, 75, 63
1, 156518, Note_off_c, 0, 74, 67
1, 156622, Note_off_c, 0, 65, 54
1, 156643, Note_on_c, 0, 72, 76
1, 156651, Note_on_c, 0, 55, 48
1, 156672, Note_off_c, 0, 72, 63
1, 156783, Note_off_c, 0, 55, 62
1, 156797, Control_c, 0, 67, 8
1, 156808, Note_on_c, 0, 70, 74
1, 156812, Control_c, 0, 67, 9
1, 156826, Control_c, 0, 67, 11
1, 156831, Note_on_c, 0, 65, 44
1, 156836, Note_off_c, 0, 70, 64
1, 156841, Control_c, 0, 67, 16
1, 156856, Control_c, 0, 67, 23
1, 156871, Control_c, 0, 67, 28
1, 156886, Control_c, 0, 67, 33
1, 156893, Note_off_c, 0, 65, 41
1, 156908, Control_c, 0, 67, 36
1, 156938, Control_c, 0, 67, 35
1, 156952, Control_c, 0, 67, 35
1, 156967, Control_c, 0, 67, 34
1, 156979, Note_on_c, 0, 69, 68
1, 156982, Control_c, 0, 67, 33
1, 156992, Note_on_c, 0, 53, 41
1, 157012, Control_c, 0, 67, 33
1, 157022, Note_off_c, 0, 69, 66
1, 157041, Control_c, 0, 67, 32
1, 157052, Note_on_c, 0, 65, 66
1, 157100, Note_off_c, 0, 65, 62
1, 157127, Note_on_c, 0, 76, 73
1, 157187, Note_off_c, 0, 76, 65
1, 157190, Note_on_c, 0, 77, 75
1, 157219, Control_c, 0, 67, 32
1, 157249, Control_c, 0, 67, 31
1, 157295, Note_on_c, 0, 70, 71
1, 157295, Note_off_c, 0, 53, 48
1, 157301, Note_off_c, 0, 77, 59
1, 157315, Note_on_c, 0, 55, 43
1, 157358, Note_off_c, 0, 70, 61
1, 157363, Note_on_c, 0, 65, 79
1, 157368, Control_c, 0, 67, 31
1, 157412, Control_c, 0, 67, 31
1, 157430, Note_off_c, 0, 65, 62
1, 157443, Note_on_c, 0, 76, 86
1, 157523, Note_on_c, 0, 77, 88
1, 157533, Note_off_c, 0, 76, 65
1, 157605, Note_off_c, 0, 55, 63
1, 157606, Note_on_c, 0, 72, 84
1, 157608, Note_on_c, 0, 57, 68
1, 157614, Note_off_c, 0, 77, 62
1, 157635, Control_c, 0, 67, 32
1, 157656, Control_c, 0, 67, 31
1, 157686, Note_off_c, 0, 72, 62
1, 157695, Note_on_c, 0, 65, 82
1, 157701, Control_c, 0, 67, 30
1, 157716, Control_c, 0, 67, 30
1, 157730, Control_c, 0, 67, 29
1, 157745, Control_c, 0, 67, 29
1, 157754, Note_off_c, 0, 65, 65
1, 157770, Note_on_c, 0, 76, 90
1, 157775, Control_c, 0, 67, 28
1, 157812, Note_off_c, 0, 57, 56
1, 157835, Control_c, 0, 67, 29
1, 157847, Note_on_c, 0, 77, 91
1, 157864, Control_c, 0, 67, 29
1, 157868, Note_off_c, 0, 76, 66
1, 157894, Control_c, 0, 67, 30
1, 157909, Control_c, 0, 67, 31
1, 157924, Control_c, 0, 67, 31
1, 157927, Note_on_c, 0, 74, 86
1, 157938, Control_c, 0, 67, 32
1, 157942, Note_on_c, 0, 58, 71
1, 157948, Note_off_c, 0, 77, 62
1, 157953, Control_c, 0, 67, 32
1, 157996, Note_on_c, 0, 65, 80
1, 157997, Control_c, 0, 67, 32
1, 158002, Note_off_c, 0, 74, 61
1, 158012, Control_c, 0, 67, 31
1, 158028, Control_c, 0, 67, 30
1, 158043, Control_c, 0, 67, 30
1, 158058, Control_c, 0, 67, 29
1, 158071, Note_off_c, 0, 65, 65
1, 158079, Note_on_c, 0, 76, 87
1, 158087, Control_c, 0, 67, 28
1, 158117, Control_c, 0, 67, 29
1, 158146, Control_c, 0, 67, 29
1, 158156, Note_off_c, 0, 76, 65
1, 158157, Note_on_c, 0, 77, 87
1, 158180, Note_off_c, 0, 58, 49
1, 158191, Control_c, 0, 67, 29
1, 158206, Control_c, 0, 67, 28
1, 158220, Control_c, 0, 67, 28
1, 158223, Note_on_c, 0, 75, 91
1, 158227, Note_on_c, 0, 60, 69
1, 158231, Note_off_c, 0, 77, 64
1, 158249, Note_off_c, 0, 75, 68
1, 158281, Note_off_c, 0, 60, 61
1, 158294, Control_c, 0, 67, 27
1, 158309, Note_on_c, 0, 65, 68
1, 158309, Control_c, 0, 67, 27
1, 158324, Control_c, 0, 67, 26
1, 158339, Control_c, 0, 67, 25
1, 158353, Control_c, 0, 67, 25
1, 158368, Control_c, 0, 67, 24
1, 158383, Control_c, 0, 67, 25
1, 158385, Note_on_c, 0, 75, 91
1, 158389, Note_off_c, 0, 65, 62
1, 158405, Control_c, 0, 67, 26
1, 158408, Note_on_c, 0, 64, 71
1, 158416, Note_off_c, 0, 75, 65
1, 158420, Control_c, 0, 67, 27
1, 158435, Control_c, 0, 67, 27
1, 158455, Note_off_c, 0, 64, 62
1, 158479, Control_c, 0, 67, 27
1, 158486, Note_on_c, 0, 65, 72
1, 158494, Control_c, 0, 67, 26
1, 158509, Control_c, 0, 67, 26
1, 158524, Control_c, 0, 67, 25
1, 158534, Note_off_c, 0, 65, 54
1, 158553, Note_on_c, 0, 57, 75
1, 158553, Control_c, 0, 67, 26
1, 158568, Control_c, 0, 67, 27
1, 158626, Note_off_c, 0, 57, 61
1, 158629, Note_on_c, 0, 65, 77
1, 158670, Note_on_c, 0, 74, 67
1, 158687, Control_c, 0, 67, 28
1, 158694, Note_off_c, 0, 65, 60
1, 158702, Note_on_c, 0, 64, 72
1, 158714, Note_off_c, 0, 74, 65
1, 158716, Note_on_c, 0, 72, 82
1, 158717, Control_c, 0, 67, 28
1, 158732, Control_c, 0, 67, 29
1, 158753, Note_on_c, 0, 70, 72
1, 158757, Note_off_c, 0, 72, 64
1, 158759, Note_off_c, 0, 64, 64
1, 158774, Note_on_c, 0, 65, 62
1, 158791, Control_c, 0, 67, 28
1, 158802, Note_on_c, 0, 72, 69
1, 158805, Control_c, 0, 67, 28
1, 158820, Note_off_c, 0, 70, 62
1, 158820, Control_c, 0, 67, 27
1, 158833, Note_off_c, 0, 65, 52
1, 158836, Control_c, 0, 67, 26
1, 158845, Note_on_c, 0, 58, 72
1, 158850, Note_on_c, 0, 75, 88
1, 158851, Control_c, 0, 67, 25
1, 158860, Note_off_c, 0, 72, 66
1, 158866, Control_c, 0, 67, 24
1, 158881, Control_c, 0, 67, 22
1, 158896, Control_c, 0, 67, 18
1, 158910, Control_c, 0, 67, 14
1, 158911, Note_off_c, 0, 58, 63
1, 158925, Control_c, 0, 67, 11
1, 158926, Note_on_c, 0, 65, 76
1, 158940, Control_c, 0, 67, 8
1, 158955, Control_c, 0, 67, 0
1, 158978, Note_off_c, 0, 65, 57
1, 159000, Note_off_c, 0, 75, 52
1, 159012, Note_on_c, 0, 74, 90
1, 159015, Note_on_c, 0, 64, 69
1, 159045, Note_off_c, 0, 74, 68
1, 159063, Note_off_c, 0, 64, 63
1, 159086, Note_on_c, 0, 65, 75
1, 159155, Note_off_c, 0, 65, 56
1, 159173, Note_on_c, 0, 72, 89
1, 159173, Note_on_c, 0, 55, 66
1, 159204, Note_off_c, 0, 72, 66
1, 159239, Note_off_c, 0, 55, 60
1, 159240, Note_on_c, 0, 64, 74
1, 159299, Note_off_c, 0, 64, 60
1, 159326, Note_on_c, 0, 62, 71
1, 159330, Note_on_c, 0, 70, 83
1, 159364, Note_off_c, 0, 70, 63
1, 159379, Note_off_c, 0, 62, 60
1, 159400, Note_on_c, 0, 64, 76
1, 159450, Note_off_c, 0, 64, 55
1, 159489, Note_on_c, 0, 69, 92
1, 159494, Note_on_c, 0, 53, 74
1, 159552, Note_off_c, 0, 69, 64
1, 159570, Note_on_c, 0, 77, 86
1, 159645, Note_on_c, 0, 72, 82
1, 159645, Note_off_c, 0, 77, 60
1, 159703, Note_off_c, 0, 72, 67
1, 159719, Note_on_c, 0, 69, 84
1, 159773, Note_off_c, 0, 69, 65
1, 159800, Note_on_c, 0, 65, 81
1, 159802, Note_off_c, 0, 53, 64
1, 159858, Note_off_c, 0, 65, 65
1, 159880, Note_on_c, 0, 60, 86
1, 159957, Note_off_c, 0, 60, 57
1, 159969, Note_on_c, 0, 57, 81
1, 160038, Note_off_c, 0, 57, 63
1, 160049, Note_on_c, 0, 53, 80
1, 160118, Note_off_c, 0, 53, 65
1, 160133, Note_on_c, 0, 41, 80
1, 160140, Note_on_c, 0, 29, 69
1, 160185, Control_c, 0, 64, 62
1, 160199, Control_c, 0, 64, 68
1, 160214, Control_c, 0, 64, 73
1, 160229, Control_c, 0, 64, 78
1, 160243, Control_c, 0, 64, 80
1, 160258, Control_c, 0, 64, 81
1, 160264, Note_off_c, 0, 29, 61
1, 160273, Control_c, 0, 64, 82
1, 160288, Control_c, 0, 64, 82
1, 160295, Note_off_c, 0, 41, 66
1, 160303, Control_c, 0, 64, 83
1, 160318, Control_c, 0, 64, 84
1, 160333, Control_c, 0, 64, 84
1, 160348, Control_c, 0, 64, 85
1, 160422, Control_c, 0, 64, 85
1, 160437, Control_c, 0, 64, 86
1, 160452, Control_c, 0, 64, 86
1, 160467, Control_c, 0, 64, 87
1, 160497, Control_c, 0, 64, 87
1, 160527, Control_c, 0, 64, 87
1, 160541, Control_c, 0, 64, 83
1, 160556, Control_c, 0, 64, 74
1, 160556, Control_c, 0, 67, 9
1, 160571, Control_c, 0, 64, 51
1, 160571, Control_c, 0, 67, 11
1, 160586, Control_c, 0, 64, 0
1, 160586, Control_c, 0, 67, 13
1, 160601, Control_c, 0, 67, 14
1, 160630, Control_c, 0, 67, 14
1, 160645, Control_c, 0, 67, 15
1, 160667, Control_c, 0, 67, 15
1, 160682, Control_c, 0, 67, 16
1, 160696, Control_c, 0, 67, 20
1, 160711, Control_c, 0, 67, 24
1, 160726, Control_c, 0, 67, 26
1, 160741, Control_c, 0, 67, 27
1, 160786, Control_c, 0, 67, 26
1, 160800, Control_c, 0, 67, 26
1, 160815, Control_c, 0, 67, 25
1, 160830, Control_c, 0, 67, 24
1, 160845, Control_c, 0, 67, 23
1, 160860, Control_c, 0, 67, 22
1, 160874, Control_c, 0, 67, 22
1, 160889, Control_c, 0, 67, 21
1, 160923, Note_on_c, 0, 65, 79
1, 160928, Note_on_c, 0, 53, 73
1, 160928, Note_on_c, 0, 58, 67
1, 160931, Note_on_c, 0, 62, 70
1, 160933, Note_on_c, 0, 34, 64
1, 160934, Control_c, 0, 67, 20
1, 160936, Note_on_c, 0, 46, 69
1, 160948, Control_c, 0, 67, 19
1, 160963, Control_c, 0, 67, 18
1, 160978, Control_c, 0, 67, 18
1, 160993, Control_c, 0, 67, 17
1, 161007, Control_c, 0, 67, 16
1, 161022, Control_c, 0, 67, 16
1, 161037, Control_c, 0, 67, 15
1, 161066, Control_c, 0, 67, 16
1, 161081, Control_c, 0, 64, 58
1, 161096, Control_c, 0, 64, 66
1, 161096, Control_c, 0, 67, 16
1, 161111, Control_c, 0, 64, 69
1, 161126, Control_c, 0, 64, 74
1, 161126, Control_c, 0, 67, 17
1, 161141, Control_c, 0, 64, 79
1, 161156, Control_c, 0, 64, 81
1, 161156, Control_c, 0, 67, 18
1, 161170, Control_c, 0, 64, 83
1, 161170, Control_c, 0, 67, 19
1, 161185, Control_c, 0, 64, 85
1, 161185, Control_c, 0, 67, 20
1, 161200, Control_c, 0, 64, 86
1, 161211, Note_off_c, 0, 53, 65
1, 161216, Control_c, 0, 64, 87
1, 161231, Control_c, 0, 64, 88
1, 161242, Note_off_c, 0, 34, 65
1, 161244, Note_off_c, 0, 65, 59
1, 161245, Note_off_c, 0, 62, 61
1, 161245, Control_c, 0, 67, 19
1, 161246, Note_off_c, 0, 46, 63
1, 161248, Note_off_c, 0, 58, 63
1, 161260, Control_c, 0, 67, 18
1, 161319, Control_c, 0, 64, 87
1, 161334, Control_c, 0, 64, 87
1, 161349, Control_c, 0, 64, 86
1, 161364, Control_c, 0, 64, 85
1, 161379, Control_c, 0, 64, 83
1, 161401, Control_c, 0, 64, 82
1, 161416, Control_c, 0, 64, 81
1, 161430, Control_c, 0, 64, 80
1, 161430, Control_c, 0, 67, 19
1, 161445, Control_c, 0, 64, 78
1, 161450, Note_on_c, 0, 67, 77
1, 161460, Control_c, 0, 64, 76
1, 161460, Control_c, 0, 67, 18
1, 161475, Control_c, 0, 64, 75
1, 161490, Control_c, 0, 64, 72
1, 161504, Control_c, 0, 64, 70
1, 161519, Control_c, 0, 64, 67
1, 161528, Note_off_c, 0, 67, 56
1, 161530, Note_on_c, 0, 65, 77
1, 161534, Control_c, 0, 64, 60
1, 161549, Control_c, 0, 64, 0
1, 161564, Control_c, 0, 67, 18
1, 161579, Control_c, 0, 67, 17
1, 161600, Note_off_c, 0, 65, 44
1, 161606, Note_on_c, 0, 63, 83
1, 161623, Control_c, 0, 67, 18
1, 161636, Note_off_c, 0, 63, 67
1, 161668, Control_c, 0, 67, 17
1, 161786, Control_c, 0, 67, 17
1, 161787, Note_on_c, 0, 62, 71
1, 161814, Note_off_c, 0, 62, 65
1, 161875, Control_c, 0, 67, 17
1, 161904, Control_c, 0, 67, 18
1, 161919, Control_c, 0, 67, 18
1, 161934, Control_c, 0, 67, 19
1, 161936, Note_on_c, 0, 60, 70
1, 161949, Control_c, 0, 67, 19
1, 161962, Note_off_c, 0, 60, 67
1, 161964, Control_c, 0, 67, 20
1, 162092, Note_on_c, 0, 58, 76
1, 162124, Note_off_c, 0, 58, 66
1, 162209, Control_c, 0, 67, 20
1, 162224, Control_c, 0, 67, 21
1, 162239, Control_c, 0, 67, 21
1, 162274, Note_on_c, 0, 58, 76
1, 162283, Control_c, 0, 67, 22
1, 162313, Control_c, 0, 67, 22
1, 162327, Control_c, 0, 67, 23
1, 162342, Control_c, 0, 64, 61
1, 162342, Control_c, 0, 67, 24
1, 162357, Control_c, 0, 64, 66
1, 162357, Control_c, 0, 67, 25
1, 162372, Control_c, 0, 64, 68
1, 162372, Control_c, 0, 67, 26
1, 162387, Control_c, 0, 64, 70
1, 162387, Control_c, 0, 67, 26
1, 162402, Control_c, 0, 64, 72
1, 162416, Control_c, 0, 64, 74
1, 162431, Control_c, 0, 64, 77
1, 162431, Control_c, 0, 67, 27
1, 162436, Note_off_c, 0, 58, 38
1, 162446, Control_c, 0, 64, 80
1, 162452, Note_on_c, 0, 67, 79
1, 162461, Control_c, 0, 64, 81
1, 162461, Control_c, 0, 67, 28
1, 162476, Control_c, 0, 64, 81
1, 162476, Control_c, 0, 67, 32
1, 162491, Control_c, 0, 67, 39
1, 162506, Control_c, 0, 67, 45
1, 162509, Note_off_c, 0, 67, 59
1, 162520, Control_c, 0, 67, 48
1, 162579, Control_c, 0, 67, 49
1, 162594, Control_c, 0, 64, 81
1, 162624, Control_c, 0, 64, 80
1, 162639, Control_c, 0, 67, 48
1, 162653, Control_c, 0, 64, 80
1, 162668, Control_c, 0, 64, 79
1, 162668, Control_c, 0, 67, 47
1, 162683, Control_c, 0, 64, 79
1, 162698, Control_c, 0, 64, 78
1, 162698, Control_c, 0, 67, 47
1, 162713, Control_c, 0, 64, 78
1, 162713, Control_c, 0, 67, 46
1, 162727, Control_c, 0, 64, 77
1, 162727, Control_c, 0, 67, 46
1, 162742, Note_on_c, 0, 67, 72
1, 162742, Control_c, 0, 64, 76
1, 162742, Control_c, 0, 67, 45
1, 162757, Control_c, 0, 64, 75
1, 162763, Note_on_c, 0, 58, 57
1, 162764, Note_on_c, 0, 51, 49
1, 162770, Note_on_c, 0, 39, 41
1, 162772, Control_c, 0, 64, 74
1, 162772, Control_c, 0, 67, 45
1, 162787, Control_c, 0, 64, 73
1, 162787, Control_c, 0, 67, 44
1, 162802, Control_c, 0, 64, 71
1, 162802, Control_c, 0, 67, 44
1, 162818, Control_c, 0, 64, 68
1, 162833, Control_c, 0, 64, 65
1, 162833, Control_c, 0, 67, 43
1, 162848, Control_c, 0, 64, 61
1, 162862, Control_c, 0, 64, 54
1, 162862, Control_c, 0, 67, 43
1, 162877, Control_c, 0, 64, 50
1, 162899, Control_c, 0, 64, 48
1, 162914, Control_c, 0, 64, 44
1, 162929, Control_c, 0, 64, 32
1, 162929, Control_c, 0, 67, 42
1, 162944, Control_c, 0, 64, 0
1, 162974, Control_c, 0, 67, 42
1, 163048, Control_c, 0, 64, 28
1, 163048, Control_c, 0, 67, 42
1, 163063, Control_c, 0, 64, 55
1, 163077, Control_c, 0, 64, 63
1, 163077, Control_c, 0, 67, 43
1, 163092, Control_c, 0, 64, 66
1, 163107, Control_c, 0, 64, 69
1, 163122, Control_c, 0, 64, 71
1, 163123, Note_off_c, 0, 39, 57
1, 163137, Control_c, 0, 64, 72
1, 163151, Control_c, 0, 64, 73
1, 163157, Note_off_c, 0, 58, 60
1, 163181, Control_c, 0, 64, 73
1, 163181, Control_c, 0, 67, 42
1, 163225, Control_c, 0, 67, 42
1, 163238, Note_off_c, 0, 67, 39
1, 163255, Control_c, 0, 64, 73
1, 163255, Control_c, 0, 67, 41
1, 163268, Note_on_c, 0, 65, 73
1, 163269, Control_c, 0, 67, 41
1, 163284, Control_c, 0, 64, 72
1, 163284, Control_c, 0, 67, 40
1, 163299, Control_c, 0, 64, 72
1, 163314, Control_c, 0, 67, 40
1, 163329, Control_c, 0, 64, 71
1, 163329, Control_c, 0, 67, 39
1, 163344, Control_c, 0, 64, 71
1, 163358, Control_c, 0, 67, 39
1, 163366, Note_off_c, 0, 51, 35
1, 163373, Control_c, 0, 64, 70
1, 163373, Control_c, 0, 67, 38
1, 163388, Control_c, 0, 64, 69
1, 163388, Control_c, 0, 67, 37
1, 163403, Control_c, 0, 64, 68
1, 163418, Control_c, 0, 64, 67
1, 163418, Control_c, 0, 67, 37
1, 163433, Control_c, 0, 64, 66
1, 163442, Note_on_c, 0, 69, 77
1, 163448, Control_c, 0, 64, 64
1, 163448, Control_c, 0, 67, 36
1, 163455, Note_on_c, 0, 50, 46
1, 163463, Control_c, 0, 64, 60
1, 163463, Control_c, 0, 67, 35
1, 163477, Control_c, 0, 64, 49
1, 163477, Control_c, 0, 67, 33
1, 163478, Note_off_c, 0, 65, 63
1, 163492, Control_c, 0, 64, 28
1, 163492, Control_c, 0, 67, 30
1, 163507, Control_c, 0, 64, 29
1, 163507, Control_c, 0, 67, 26
1, 163522, Control_c, 0, 64, 36
1, 163522, Control_c, 0, 67, 22
1, 163537, Control_c, 0, 64, 42
1, 163537, Control_c, 0, 67, 19
1, 163551, Control_c, 0, 64, 51
1, 163551, Control_c, 0, 67, 17
1, 163566, Control_c, 0, 64, 58
1, 163566, Control_c, 0, 67, 16
1, 163581, Control_c, 0, 64, 64
1, 163581, Control_c, 0, 67, 14
1, 163595, Control_c, 0, 64, 67
1, 163595, Control_c, 0, 67, 12
1, 163603, Note_on_c, 0, 70, 82
1, 163611, Control_c, 0, 64, 71
1, 163611, Control_c, 0, 67, 10
1, 163612, Note_off_c, 0, 69, 63
1, 163626, Control_c, 0, 64, 73
1, 163626, Control_c, 0, 67, 9
1, 163648, Control_c, 0, 64, 75
1, 163648, Control_c, 0, 67, 8
1, 163663, Control_c, 0, 64, 75
1, 163680, Note_off_c, 0, 70, 59
1, 163692, Control_c, 0, 67, 8
1, 163722, Control_c, 0, 67, 9
1, 163737, Control_c, 0, 67, 9
1, 163752, Control_c, 0, 67, 10
1, 163767, Control_c, 0, 64, 75
1, 163782, Control_c, 0, 64, 74
1, 163782, Control_c, 0, 67, 11
1, 163797, Control_c, 0, 64, 73
1, 163800, Note_on_c, 0, 70, 74
1, 163812, Control_c, 0, 64, 72
1, 163817, Note_on_c, 0, 55, 40
1, 163821, Note_on_c, 0, 52, 44
1, 163826, Control_c, 0, 64, 72
1, 163826, Control_c, 0, 67, 11
1, 163841, Control_c, 0, 64, 71
1, 163841, Control_c, 0, 67, 12
1, 163856, Control_c, 0, 64, 70
1, 163856, Control_c, 0, 67, 12
1, 163871, Control_c, 0, 64, 68
1, 163871, Control_c, 0, 67, 13
1, 163877, Note_off_c, 0, 50, 33
1, 163886, Control_c, 0, 64, 64
1, 163900, Control_c, 0, 64, 55
1, 163915, Control_c, 0, 64, 40
1, 163930, Control_c, 0, 64, 40
1, 163945, Control_c, 0, 64, 41
1, 163960, Control_c, 0, 64, 40
1, 163960, Control_c, 0, 67, 13
1, 163974, Control_c, 0, 64, 36
1, 163974, Control_c, 0, 67, 14
1, 163979, Note_on_c, 0, 60, 74
1, 163989, Control_c, 0, 64, 26
1, 163989, Control_c, 0, 67, 14
1, 164004, Control_c, 0, 64, 0
1, 164004, Control_c, 0, 67, 15
1, 164018, Control_c, 0, 67, 15
1, 164033, Control_c, 0, 67, 16
1, 164048, Control_c, 0, 67, 16
1, 164070, Note_off_c, 0, 70, 61
1, 164137, Control_c, 0, 67, 17
1, 164145, Note_off_c, 0, 55, 34
1, 164147, Note_off_c, 0, 52, 55
1, 164152, Control_c, 0, 67, 17
1, 164160, Note_on_c, 0, 53, 46
1, 164166, Control_c, 0, 67, 18
1, 164181, Control_c, 0, 67, 18
1, 164211, Control_c, 0, 67, 19
1, 164226, Control_c, 0, 64, 57
1, 164226, Control_c, 0, 67, 19
1, 164241, Control_c, 0, 64, 65
1, 164241, Control_c, 0, 67, 20
1, 164256, Control_c, 0, 64, 70
1, 164256, Control_c, 0, 67, 21
1, 164271, Control_c, 0, 64, 73
1, 164271, Control_c, 0, 67, 23
1, 164285, Control_c, 0, 64, 75
1, 164285, Control_c, 0, 67, 26
1, 164300, Control_c, 0, 64, 76
1, 164300, Control_c, 0, 67, 28
1, 164301, Note_on_c, 0, 62, 67
1, 164306, Note_off_c, 0, 60, 33
1, 164315, Control_c, 0, 64, 77
1, 164315, Control_c, 0, 67, 30
1, 164330, Control_c, 0, 67, 31
1, 164345, Control_c, 0, 67, 32
1, 164360, Control_c, 0, 67, 33
1, 164374, Control_c, 0, 64, 76
1, 164374, Control_c, 0, 67, 34
1, 164411, Control_c, 0, 64, 76
1, 164411, Control_c, 0, 67, 34
1, 164427, Control_c, 0, 64, 75
1, 164442, Control_c, 0, 64, 74
1, 164456, Control_c, 0, 64, 72
1, 164456, Control_c, 0, 67, 34
1, 164471, Control_c, 0, 64, 70
1, 164486, Control_c, 0, 64, 67
1, 164493, Note_on_c, 0, 70, 71
1, 164501, Control_c, 0, 64, 63
1, 164501, Control_c, 0, 67, 33
1, 164514, Note_on_c, 0, 52, 42
1, 164515, Note_off_c, 0, 62, 26
1, 164516, Control_c, 0, 64, 59
1, 164517, Note_off_c, 0, 53, 35
1, 164530, Control_c, 0, 64, 55
1, 164530, Control_c, 0, 67, 33
1, 164533, Note_on_c, 0, 55, 36
1, 164545, Control_c, 0, 64, 52
1, 164545, Control_c, 0, 67, 32
1, 164560, Control_c, 0, 64, 49
1, 164560, Control_c, 0, 67, 32
1, 164575, Control_c, 0, 64, 44
1, 164575, Control_c, 0, 67, 31
1, 164590, Control_c, 0, 64, 30
1, 164590, Control_c, 0, 67, 31
1, 164604, Control_c, 0, 64, 0
1, 164604, Control_c, 0, 67, 30
1, 164619, Control_c, 0, 67, 30
1, 164634, Control_c, 0, 67, 30
1, 164667, Note_on_c, 0, 60, 68
1, 164719, Note_off_c, 0, 70, 60
1, 164738, Control_c, 0, 67, 30
1, 164767, Control_c, 0, 67, 29
1, 164810, Note_off_c, 0, 52, 64
1, 164828, Note_on_c, 0, 53, 58
1, 164841, Control_c, 0, 67, 29
1, 164842, Note_off_c, 0, 55, 40
1, 164871, Control_c, 0, 67, 28
1, 164886, Control_c, 0, 67, 28
1, 164901, Control_c, 0, 67, 27
1, 164915, Control_c, 0, 67, 27
1, 164930, Control_c, 0, 67, 26
1, 164980, Note_on_c, 0, 62, 67
1, 164994, Note_off_c, 0, 60, 52
1, 165004, Control_c, 0, 67, 27
1, 165180, Note_off_c, 0, 62, 60
1, 165182, Note_on_c, 0, 65, 64
1, 165183, Note_off_c, 0, 53, 51
1, 165183, Note_on_c, 0, 55, 50
1, 165353, Control_c, 0, 67, 27
1, 165417, Note_off_c, 0, 65, 62
1, 165427, Control_c, 0, 67, 27
1, 165469, Note_on_c, 0, 63, 55
1, 165474, Note_off_c, 0, 55, 60
1, 165487, Control_c, 0, 67, 26
1, 165493, Note_on_c, 0, 57, 42
1, 165505, Note_off_c, 0, 63, 65
1, 165517, Control_c, 0, 67, 26
1, 165519, Note_on_c, 0, 65, 68
1, 165531, Control_c, 0, 67, 25
1, 165557, Note_off_c, 0, 65, 59
1, 165576, Control_c, 0, 67, 26
1, 165584, Note_on_c, 0, 63, 73
1, 165605, Control_c, 0, 67, 26
1, 165612, Note_off_c, 0, 63, 65
1, 165630, Note_on_c, 0, 65, 59
1, 165635, Control_c, 0, 67, 27
1, 165659, Note_off_c, 0, 65, 67
1, 165679, Control_c, 0, 67, 27
1, 165681, Note_on_c, 0, 63, 66
1, 165694, Control_c, 0, 67, 28
1, 165709, Note_off_c, 0, 63, 66
1, 165725, Note_on_c, 0, 62, 61
1, 165738, Control_c, 0, 67, 29
1, 165748, Note_off_c, 0, 62, 63
1, 165761, Note_on_c, 0, 63, 70
1, 165767, Control_c, 0, 67, 29
1, 165781, Control_c, 0, 67, 30
1, 165791, Note_off_c, 0, 63, 63
1, 165796, Control_c, 0, 67, 30
1, 165801, Note_off_c, 0, 57, 55
1, 165818, Note_on_c, 0, 62, 75
1, 165826, Control_c, 0, 67, 31
1, 165833, Note_on_c, 0, 58, 46
1, 165841, Control_c, 0, 67, 32
1, 165855, Control_c, 0, 67, 32
1, 165867, Note_off_c, 0, 62, 54
1, 165892, Control_c, 0, 67, 33
1, 165922, Control_c, 0, 67, 32
1, 165937, Control_c, 0, 67, 32
1, 165952, Control_c, 0, 67, 31
1, 165967, Control_c, 0, 67, 32
1, 165982, Control_c, 0, 67, 32
1, 165994, Note_on_c, 0, 62, 72
1, 165996, Control_c, 0, 67, 33
1, 166026, Control_c, 0, 67, 33
1, 166041, Control_c, 0, 67, 32
1, 166056, Control_c, 0, 67, 32
1, 166086, Control_c, 0, 67, 31
1, 166131, Control_c, 0, 67, 31
1, 166160, Note_on_c, 0, 63, 79
1, 166175, Control_c, 0, 67, 30
1, 166177, Note_off_c, 0, 58, 63
1, 166210, Note_off_c, 0, 62, 52
1, 166219, Control_c, 0, 67, 30
1, 166249, Control_c, 0, 67, 29
1, 166279, Control_c, 0, 67, 28
1, 166293, Control_c, 0, 67, 27
1, 166308, Control_c, 0, 67, 26
1, 166319, Note_on_c, 0, 65, 83
1, 166323, Control_c, 0, 67, 25
1, 166342, Note_off_c, 0, 63, 64
1, 166367, Control_c, 0, 67, 25
1, 166382, Control_c, 0, 67, 24
1, 166397, Control_c, 0, 67, 24
1, 166411, Control_c, 0, 67, 23
1, 166488, Note_on_c, 0, 66, 78
1, 166501, Control_c, 0, 67, 23
1, 166505, Note_off_c, 0, 65, 63
1, 166531, Control_c, 0, 67, 23
1, 166575, Control_c, 0, 67, 24
1, 166620, Control_c, 0, 67, 23
1, 166657, Control_c, 0, 67, 23
1, 166672, Control_c, 0, 67, 22
1, 166678, Note_on_c, 0, 67, 72
1, 166681, Note_on_c, 0, 39, 52
1, 166686, Control_c, 0, 67, 21
1, 166691, Note_off_c, 0, 66, 64
1, 166701, Control_c, 0, 67, 18
1, 166716, Control_c, 0, 67, 14
1, 166731, Control_c, 0, 67, 13
1, 166790, Control_c, 0, 67, 13
1, 166805, Control_c, 0, 67, 14
1, 166835, Control_c, 0, 67, 14
1, 166836, Note_off_c, 0, 39, 59
1, 166843, Note_on_c, 0, 43, 55
1, 166850, Control_c, 0, 67, 15
1, 166909, Control_c, 0, 67, 15
1, 166954, Control_c, 0, 67, 16
1, 166984, Control_c, 0, 67, 17
1, 166991, Note_off_c, 0, 43, 57
1, 166997, Note_off_c, 0, 67, 58
1, 166998, Control_c, 0, 67, 17
1, 167006, Note_on_c, 0, 65, 59
1, 167013, Control_c, 0, 67, 18
1, 167025, Note_on_c, 0, 48, 49
1, 167028, Control_c, 0, 67, 19
1, 167043, Control_c, 0, 67, 19
1, 167058, Control_c, 0, 67, 20
1, 167073, Control_c, 0, 67, 22
1, 167076, Note_off_c, 0, 65, 63
1, 167084, Note_on_c, 0, 63, 62
1, 167088, Control_c, 0, 67, 23
1, 167102, Control_c, 0, 67, 24
1, 167117, Control_c, 0, 67, 25
1, 167132, Control_c, 0, 67, 25
1, 167144, Note_off_c, 0, 48, 54
1, 167165, Note_off_c, 0, 63, 60
1, 167177, Note_on_c, 0, 62, 54
1, 167180, Note_on_c, 0, 51, 39
1, 167191, Control_c, 0, 67, 24
1, 167206, Control_c, 0, 67, 22
1, 167221, Control_c, 0, 67, 18
1, 167235, Control_c, 0, 67, 17
1, 167265, Control_c, 0, 67, 18
1, 167280, Control_c, 0, 67, 19
1, 167295, Control_c, 0, 67, 20
1, 167309, Control_c, 0, 67, 22
1, 167324, Control_c, 0, 67, 23
1, 167332, Note_off_c, 0, 62, 57
1, 167339, Control_c, 0, 67, 23
1, 167356, Note_on_c, 0, 60, 53
1, 167368, Control_c, 0, 67, 24
1, 167391, Control_c, 0, 67, 24
1, 167406, Control_c, 0, 67, 25
1, 167421, Control_c, 0, 67, 26
1, 167436, Control_c, 0, 67, 27
1, 167450, Control_c, 0, 67, 30
1, 167465, Control_c, 0, 67, 35
1, 167480, Control_c, 0, 67, 37
1, 167508, Note_off_c, 0, 60, 51
1, 167510, Control_c, 0, 67, 36
1, 167521, Note_off_c, 0, 51, 39
1, 167524, Control_c, 0, 67, 35
1, 167529, Note_on_c, 0, 62, 58
1, 167539, Control_c, 0, 67, 35
1, 167598, Control_c, 0, 67, 34
1, 167629, Control_c, 0, 67, 34
1, 167658, Control_c, 0, 67, 33
1, 167673, Control_c, 0, 67, 33
1, 167693, Note_off_c, 0, 62, 59
1, 167700, Note_on_c, 0, 63, 54
1, 167762, Control_c, 0, 67, 32
1, 167806, Control_c, 0, 67, 32
1, 167821, Control_c, 0, 67, 31
1, 167851, Control_c, 0, 67, 31
1, 167862, Note_off_c, 0, 63, 55
1, 167864, Note_on_c, 0, 67, 52
1, 167880, Control_c, 0, 67, 30
1, 167910, Control_c, 0, 67, 30
1, 167925, Control_c, 0, 67, 29
1, 167999, Control_c, 0, 67, 29
1, 168013, Note_off_c, 0, 67, 61
1, 168029, Note_on_c, 0, 65, 55
1, 168029, Control_c, 0, 67, 28
1, 168031, Note_on_c, 0, 38, 39
1, 168058, Control_c, 0, 67, 28
1, 168088, Control_c, 0, 67, 27
1, 168140, Control_c, 0, 67, 28
1, 168188, Note_off_c, 0, 38, 54
1, 168199, Control_c, 0, 67, 27
1, 168204, Note_on_c, 0, 41, 51
1, 168229, Control_c, 0, 67, 27
1, 168288, Control_c, 0, 67, 27
1, 168360, Note_off_c, 0, 65, 61
1, 168372, Note_off_c, 0, 41, 37
1, 168376, Note_on_c, 0, 46, 47
1, 168378, Note_on_c, 0, 63, 57
1, 168407, Control_c, 0, 67, 28
1, 168438, Note_off_c, 0, 63, 62
1, 168445, Note_on_c, 0, 62, 63
1, 168509, Note_off_c, 0, 62, 57
1, 168530, Note_off_c, 0, 46, 51
1, 168548, Note_on_c, 0, 60, 53
1, 168558, Note_on_c, 0, 50, 43
1, 168585, Control_c, 0, 67, 29
1, 168644, Control_c, 0, 67, 29
1, 168674, Control_c, 0, 67, 30
1, 168684, Note_off_c, 0, 60, 59
1, 168705, Note_on_c, 0, 58, 56
1, 168733, Control_c, 0, 67, 30
1, 168763, Control_c, 0, 67, 31
1, 168778, Control_c, 0, 67, 31
1, 168837, Control_c, 0, 67, 31
1, 168849, Note_off_c, 0, 58, 64
1, 168852, Control_c, 0, 67, 30
1, 168871, Note_on_c, 0, 60, 60
1, 168888, Control_c, 0, 67, 30
1, 168933, Control_c, 0, 67, 29
1, 168977, Control_c, 0, 67, 29
1, 169028, Note_off_c, 0, 60, 50
1, 169037, Control_c, 0, 67, 29
1, 169038, Note_on_c, 0, 62, 60
1, 169052, Control_c, 0, 67, 30
1, 169082, Control_c, 0, 67, 30
1, 169140, Control_c, 0, 67, 30
1, 169209, Note_off_c, 0, 62, 56
1, 169212, Note_on_c, 0, 65, 64
1, 169224, Note_on_c, 0, 48, 50
1, 169231, Control_c, 0, 67, 29
1, 169235, Note_off_c, 0, 50, 42
1, 169305, Control_c, 0, 67, 30
1, 169342, Note_off_c, 0, 48, 60
1, 169349, Control_c, 0, 67, 30
1, 169357, Note_off_c, 0, 65, 62
1, 169366, Note_on_c, 0, 63, 61
1, 169393, Control_c, 0, 67, 31
1, 169408, Control_c, 0, 67, 31
1, 169437, Control_c, 0, 67, 32
1, 169452, Control_c, 0, 67, 32
1, 169511, Control_c, 0, 67, 32
1, 169529, Note_on_c, 0, 45, 56
1, 169571, Control_c, 0, 67, 31
1, 169652, Control_c, 0, 67, 31
1, 169666, Note_off_c, 0, 63, 63
1, 169686, Note_off_c, 0, 45, 62
1, 169693, Note_on_c, 0, 60, 67
1, 169720, Note_off_c, 0, 60, 66
1, 169741, Control_c, 0, 67, 31
1, 169815, Control_c, 0, 67, 31
1, 169845, Control_c, 0, 67, 30
1, 169855, Note_on_c, 0, 63, 69
1, 169863, Note_on_c, 0, 46, 54
1, 169919, Control_c, 0, 67, 31
1, 169934, Control_c, 0, 67, 31
1, 169993, Control_c, 0, 67, 32
1, 170021, Note_off_c, 0, 63, 61
1, 170024, Note_on_c, 0, 62, 68
1, 170024, Control_c, 0, 67, 32
1, 170029, Note_off_c, 0, 46, 61
1, 170197, Note_on_c, 0, 43, 59
1, 170260, Control_c, 0, 67, 32
1, 170275, Control_c, 0, 67, 31
1, 170314, Note_off_c, 0, 62, 61
1, 170315, Note_off_c, 0, 43, 55
1, 170331, Note_on_c, 0, 58, 72
1, 170360, Note_off_c, 0, 58, 65
1, 170386, Control_c, 0, 67, 31
1, 170460, Control_c, 0, 67, 30
1, 170505, Note_on_c, 0, 57, 69
1, 170505, Control_c, 0, 67, 31
1, 170507, Note_on_c, 0, 41, 54
1, 170534, Control_c, 0, 67, 31
1, 170540, Note_off_c, 0, 57, 59
1, 170564, Control_c, 0, 67, 31
1, 170572, Note_on_c, 0, 58, 65
1, 170629, Note_off_c, 0, 58, 62
1, 170647, Note_on_c, 0, 59, 76
1, 170682, Control_c, 0, 67, 31
1, 170697, Note_off_c, 0, 59, 57
1, 170721, Note_on_c, 0, 60, 72
1, 170742, Control_c, 0, 67, 31
1, 170757, Control_c, 0, 67, 30
1, 170766, Note_off_c, 0, 60, 54
1, 170772, Control_c, 0, 67, 30
1, 170790, Note_on_c, 0, 61, 79
1, 170801, Control_c, 0, 67, 29
1, 170817, Control_c, 0, 67, 28
1, 170832, Control_c, 0, 67, 27
1, 170837, Note_off_c, 0, 41, 63
1, 170844, Note_off_c, 0, 61, 62
1, 170846, Control_c, 0, 67, 25
1, 170861, Control_c, 0, 67, 22
1, 170866, Note_on_c, 0, 62, 76
1, 170876, Control_c, 0, 67, 18
1, 170891, Control_c, 0, 67, 14
1, 170906, Control_c, 0, 67, 12
1, 170921, Control_c, 0, 67, 12
1, 170942, Note_on_c, 0, 63, 79
1, 170942, Note_off_c, 0, 62, 59
1, 170951, Control_c, 0, 67, 11
1, 170965, Control_c, 0, 67, 11
1, 170980, Control_c, 0, 67, 9
1, 170990, Note_off_c, 0, 63, 65
1, 170995, Control_c, 0, 67, 8
1, 171009, Control_c, 0, 67, 0
1, 171010, Note_on_c, 0, 64, 78
1, 171091, Note_on_c, 0, 65, 79
1, 171096, Note_off_c, 0, 64, 62
1, 171102, Note_on_c, 0, 53, 69
1, 171156, Note_off_c, 0, 53, 66
1, 171183, Note_on_c, 0, 55, 69
1, 171233, Note_off_c, 0, 55, 61
1, 171253, Note_on_c, 0, 51, 72
1, 171320, Note_off_c, 0, 51, 62
1, 171336, Note_on_c, 0, 53, 74
1, 171382, Note_off_c, 0, 53, 60
1, 171384, Note_off_c, 0, 65, 62
1, 171411, Note_on_c, 0, 50, 75
1, 171487, Note_on_c, 0, 51, 79
1, 171495, Note_off_c, 0, 50, 62
1, 171544, Note_off_c, 0, 51, 63
1, 171552, Note_on_c, 0, 48, 68
1, 171627, Note_on_c, 0, 50, 77
1, 171628, Note_off_c, 0, 48, 64
1, 171692, Note_off_c, 0, 50, 59
1, 171729, Note_on_c, 0, 77, 78
1, 171735, Note_on_c, 0, 74, 68
1, 171736, Note_on_c, 0, 65, 65
1, 171736, Note_on_c, 0, 70, 64
1, 171744, Note_on_c, 0, 46, 73
1, 171929, Control_c, 0, 64, 47
1, 171943, Control_c, 0, 64, 64
1, 171958, Control_c, 0, 64, 68
1, 171973, Control_c, 0, 64, 72
1, 171988, Control_c, 0, 64, 77
1, 172003, Control_c, 0, 64, 81
1, 172018, Control_c, 0, 64, 83
1, 172021, Note_off_c, 0, 74, 66
1, 172032, Control_c, 0, 64, 84
1, 172044, Note_off_c, 0, 65, 64
1, 172070, Note_off_c, 0, 70, 63
1, 172075, Note_off_c, 0, 77, 58
1, 172089, Note_off_c, 0, 46, 63
1, 172093, Note_on_c, 0, 58, 77
1, 172120, Note_off_c, 0, 58, 68
1, 172165, Control_c, 0, 64, 83
1, 172180, Control_c, 0, 64, 82
1, 172195, Control_c, 0, 64, 81
1, 172210, Control_c, 0, 64, 80
1, 172225, Control_c, 0, 64, 79
1, 172239, Control_c, 0, 64, 77
1, 172254, Control_c, 0, 64, 76
1, 172255, Note_on_c, 0, 79, 75
1, 172269, Control_c, 0, 64, 75
1, 172284, Control_c, 0, 64, 74
1, 172298, Control_c, 0, 64, 71
1, 172313, Control_c, 0, 64, 68
1, 172326, Note_on_c, 0, 77, 77
1, 172328, Control_c, 0, 64, 64
1, 172331, Note_off_c, 0, 79, 60
1, 172343, Control_c, 0, 64, 51
1, 172358, Control_c, 0, 64, 0
1, 172404, Note_on_c, 0, 75, 79
1, 172409, Note_off_c, 0, 77, 58
1, 172440, Note_off_c, 0, 75, 62
1, 172570, Note_on_c, 0, 74, 74
1, 172596, Note_off_c, 0, 74, 65
1, 172734, Note_on_c, 0, 72, 74
1, 172759, Note_off_c, 0, 72, 69
1, 172891, Note_on_c, 0, 70, 74
1, 172921, Note_off_c, 0, 70, 63
1, 173067, Note_on_c, 0, 70, 73
1, 173106, Control_c, 0, 64, 61
1, 173121, Control_c, 0, 64, 67
1, 173136, Control_c, 0, 64, 70
1, 173151, Control_c, 0, 64, 73
1, 173166, Control_c, 0, 64, 76
1, 173180, Control_c, 0, 64, 78
1, 173196, Control_c, 0, 64, 79
1, 173211, Control_c, 0, 64, 80
1, 173226, Control_c, 0, 64, 80
1, 173246, Note_on_c, 0, 79, 80
1, 173265, Note_off_c, 0, 70, 50
1, 173291, Note_off_c, 0, 79, 62
1, 173397, Control_c, 0, 64, 80
1, 173426, Control_c, 0, 64, 79
1, 173441, Control_c, 0, 64, 79
1, 173456, Control_c, 0, 64, 78
1, 173471, Control_c, 0, 64, 78
1, 173485, Control_c, 0, 64, 77
1, 173500, Control_c, 0, 64, 76
1, 173515, Control_c, 0, 64, 76
1, 173530, Control_c, 0, 64, 75
1, 173541, Note_on_c, 0, 79, 73
1, 173545, Control_c, 0, 64, 73
1, 173553, Note_on_c, 0, 70, 57
1, 173559, Control_c, 0, 64, 72
1, 173567, Note_on_c, 0, 63, 40
1, 173574, Control_c, 0, 64, 71
1, 173583, Note_on_c, 0, 51, 36
1, 173589, Control_c, 0, 64, 69
1, 173604, Control_c, 0, 64, 66
1, 173619, Control_c, 0, 64, 63
1, 173634, Control_c, 0, 64, 57
1, 173648, Control_c, 0, 64, 47
1, 173663, Control_c, 0, 64, 30
1, 173678, Control_c, 0, 64, 0
1, 173782, Control_c, 0, 64, 34
1, 173797, Control_c, 0, 64, 49
1, 173811, Control_c, 0, 64, 60
1, 173826, Control_c, 0, 64, 64
1, 173841, Control_c, 0, 64, 67
1, 173856, Control_c, 0, 64, 71
1, 173871, Control_c, 0, 64, 75
1, 173885, Control_c, 0, 64, 78
1, 173900, Note_off_c, 0, 51, 54
1, 173900, Control_c, 0, 64, 79
1, 173915, Control_c, 0, 64, 80
1, 173964, Note_off_c, 0, 70, 55
1, 174033, Note_off_c, 0, 79, 54
1, 174034, Control_c, 0, 64, 79
1, 174049, Control_c, 0, 64, 79
1, 174052, Note_on_c, 0, 77, 79
1, 174064, Control_c, 0, 64, 78
1, 174079, Control_c, 0, 64, 78
1, 174108, Control_c, 0, 64, 77
1, 174131, Control_c, 0, 64, 76
1, 174134, Note_off_c, 0, 63, 41
1, 174146, Control_c, 0, 64, 76
1, 174160, Control_c, 0, 64, 75
1, 174175, Control_c, 0, 64, 75
1, 174190, Control_c, 0, 64, 74
1, 174205, Control_c, 0, 64, 73
1, 174220, Control_c, 0, 64, 71
1, 174234, Control_c, 0, 64, 69
1, 174243, Note_on_c, 0, 81, 76
1, 174249, Control_c, 0, 64, 66
1, 174258, Note_on_c, 0, 62, 43
1, 174264, Control_c, 0, 64, 62
1, 174266, Note_off_c, 0, 77, 52
1, 174279, Control_c, 0, 64, 56
1, 174294, Control_c, 0, 64, 54
1, 174308, Control_c, 0, 64, 55
1, 174323, Control_c, 0, 64, 54
1, 174338, Control_c, 0, 64, 51
1, 174352, Control_c, 0, 64, 48
1, 174367, Control_c, 0, 64, 44
1, 174382, Control_c, 0, 64, 41
1, 174397, Control_c, 0, 64, 39
1, 174412, Control_c, 0, 64, 36
1, 174418, Note_on_c, 0, 82, 74
1, 174427, Control_c, 0, 64, 32
1, 174429, Note_off_c, 0, 81, 58
1, 174441, Control_c, 0, 64, 25
1, 174456, Control_c, 0, 64, 19
1, 174471, Control_c, 0, 64, 16
1, 174486, Control_c, 0, 64, 13
1, 174501, Control_c, 0, 64, 10
1, 174560, Control_c, 0, 64, 0
1, 174570, Note_off_c, 0, 62, 55
1, 174589, Note_on_c, 0, 64, 43
1, 174599, Note_on_c, 0, 67, 43
1, 174755, Note_on_c, 0, 72, 67
1, 174832, Note_off_c, 0, 82, 38
1, 174853, Note_off_c, 0, 72, 55
1, 174920, Note_off_c, 0, 67, 60
1, 174921, Note_on_c, 0, 74, 60
1, 174925, Note_off_c, 0, 64, 63
1, 174928, Note_on_c, 0, 65, 54
1, 174939, Note_off_c, 0, 74, 67
1, 175056, Note_off_c, 0, 65, 0
1, 175056, Note_on_c, 0, 65, 3
1, 175091, Note_on_c, 0, 82, 68
1, 175270, Note_off_c, 0, 65, 52
1, 175282, Note_on_c, 0, 67, 52
1, 175284, Note_on_c, 0, 64, 45
1, 175426, Note_on_c, 0, 72, 81
1, 175431, Note_off_c, 0, 82, 31
1, 175556, Note_off_c, 0, 72, 59
1, 175586, Note_off_c, 0, 64, 64
1, 175595, Note_off_c, 0, 67, 59
1, 175596, Note_on_c, 0, 74, 78
1, 175597, Note_on_c, 0, 65, 62
1, 175636, Note_off_c, 0, 74, 66
1, 175753, Note_on_c, 0, 82, 84
1, 175783, Note_off_c, 0, 82, 61
1, 175929, Note_on_c, 0, 77, 78
1, 175941, Note_on_c, 0, 70, 52
1, 175948, Note_on_c, 0, 67, 39
1, 176012, Note_off_c, 0, 65, 24
1, 176263, Note_on_c, 0, 76, 73
1, 176278, Note_on_c, 0, 69, 50
1, 176281, Note_off_c, 0, 67, 57
1, 176297, Note_off_c, 0, 70, 57
1, 176302, Note_off_c, 0, 77, 57
1, 176304, Note_on_c, 0, 72, 26
1, 176442, Note_on_c, 0, 75, 66
1, 176442, Note_off_c, 0, 76, 61
1, 176585, Note_off_c, 0, 72, 61
1, 176588, Note_off_c, 0, 75, 65
1, 176597, Note_off_c, 0, 69, 61
1, 176605, Note_on_c, 0, 74, 64
1, 176609, Note_on_c, 0, 70, 53
1, 176630, Note_off_c, 0, 74, 69
1, 176767, Note_on_c, 0, 74, 69
1, 176928, Note_off_c, 0, 70, 62
1, 176938, Note_on_c, 0, 75, 82
1, 176967, Note_off_c, 0, 74, 59
1, 177092, Note_on_c, 0, 77, 89
1, 177106, Note_off_c, 0, 75, 64
1, 177259, Note_on_c, 0, 79, 79
1, 177261, Note_off_c, 0, 77, 60
1, 177443, Note_on_c, 0, 55, 74
1, 177579, Note_off_c, 0, 55, 62
1, 177588, Note_on_c, 0, 67, 85
1, 177610, Note_off_c, 0, 67, 68
1, 177693, Note_off_c, 0, 79, 50
1, 177739, Note_on_c, 0, 65, 77
1, 177743, Note_on_c, 0, 81, 79
1, 177759, Note_off_c, 0, 65, 69
1, 177801, Note_off_c, 0, 81, 57
1, 177819, Note_on_c, 0, 83, 81
1, 177878, Note_off_c, 0, 83, 58
1, 177901, Note_on_c, 0, 63, 73
1, 177904, Note_on_c, 0, 84, 81
1, 177926, Note_off_c, 0, 63, 67
1, 177950, Note_off_c, 0, 84, 61
1, 177976, Note_on_c, 0, 86, 84
1, 178028, Note_off_c, 0, 86, 63
1, 178052, Note_on_c, 0, 51, 73
1, 178054, Note_on_c, 0, 87, 86
1, 178106, Note_off_c, 0, 87, 65
1, 178135, Note_on_c, 0, 86, 82
1, 178188, Note_off_c, 0, 86, 63
1, 178215, Note_on_c, 0, 63, 72
1, 178223, Note_on_c, 0, 84, 82
1, 178227, Note_off_c, 0, 51, 63
1, 178260, Note_off_c, 0, 84, 66
1, 178297, Note_on_c, 0, 86, 72
1, 178364, Note_off_c, 0, 86, 61
1, 178373, Note_on_c, 0, 82, 78
1, 178375, Note_off_c, 0, 63, 64
1, 178388, Note_on_c, 0, 62, 65
1, 178442, Note_off_c, 0, 82, 63
1, 178459, Note_on_c, 0, 84, 76
1, 178516, Note_off_c, 0, 62, 51
1, 178516, Note_off_c, 0, 84, 64
1, 178530, Note_on_c, 0, 60, 73
1, 178533, Note_on_c, 0, 81, 78
1, 178555, Note_off_c, 0, 60, 68
1, 178579, Note_off_c, 0, 81, 58
1, 178622, Note_on_c, 0, 82, 81
1, 178674, Note_off_c, 0, 82, 63
1, 178703, Note_on_c, 0, 79, 76
1, 178706, Note_on_c, 0, 58, 65
1, 178735, Note_off_c, 0, 79, 56
1, 178735, Note_off_c, 0, 58, 67
1, 178771, Note_on_c, 0, 81, 75
1, 178838, Note_off_c, 0, 81, 59
1, 178848, Note_on_c, 0, 57, 61
1, 178859, Note_on_c, 0, 77, 75
1, 178877, Note_off_c, 0, 57, 65
1, 178905, Note_off_c, 0, 77, 58
1, 178938, Note_on_c, 0, 79, 72
1, 179002, Note_off_c, 0, 79, 61
1, 179010, Note_on_c, 0, 53, 63
1, 179020, Note_on_c, 0, 75, 72
1, 179041, Note_off_c, 0, 53, 65
1, 179076, Note_off_c, 0, 75, 61
1, 179095, Note_on_c, 0, 77, 78
1, 179146, Note_off_c, 0, 77, 58
1, 179170, Note_on_c, 0, 74, 71
1, 179190, Note_on_c, 0, 58, 60
1, 179220, Note_off_c, 0, 74, 62
1, 179255, Note_on_c, 0, 75, 75
1, 179311, Note_off_c, 0, 75, 65
1, 179330, Note_on_c, 0, 77, 82
1, 179387, Note_off_c, 0, 77, 63
1, 179403, Note_off_c, 0, 58, 61
1, 179419, Note_on_c, 0, 79, 84
1, 179488, Note_off_c, 0, 79, 55
1, 179496, Note_on_c, 0, 81, 89
1, 179517, Note_on_c, 0, 50, 61
1, 179572, Note_off_c, 0, 81, 55
1, 179579, Note_on_c, 0, 82, 88
1, 179658, Note_on_c, 0, 81, 87
1, 179661, Note_off_c, 0, 82, 65
1, 179734, Note_off_c, 0, 81, 60
1, 179736, Note_on_c, 0, 82, 87
1, 179751, Note_off_c, 0, 50, 45
1, 179825, Note_on_c, 0, 84, 83
1, 179831, Note_off_c, 0, 82, 64
1, 179837, Note_on_c, 0, 51, 55
1, 179903, Note_on_c, 0, 82, 79
1, 179934, Note_off_c, 0, 84, 62
1, 179982, Note_on_c, 0, 81, 82
1, 179996, Note_off_c, 0, 82, 61
1, 180047, Note_off_c, 0, 81, 62
1, 180054, Note_on_c, 0, 79, 77
1, 180120, Note_off_c, 0, 51, 34
1, 180138, Note_on_c, 0, 81, 85
1, 180147, Note_off_c, 0, 79, 60
1, 180168, Note_on_c, 0, 63, 54
1, 180222, Note_on_c, 0, 79, 72
1, 180230, Note_off_c, 0, 81, 55
1, 180275, Note_off_c, 0, 63, 63
1, 180298, Note_on_c, 0, 77, 71
1, 180302, Note_off_c, 0, 79, 61
1, 180361, Note_off_c, 0, 77, 59
1, 180378, Note_on_c, 0, 75, 69
1, 180427, Note_off_c, 0, 75, 58
1, 180472, Note_on_c, 0, 74, 66
1, 180486, Note_on_c, 0, 65, 54
1, 180506, Control_c, 0, 64, 40
1, 180520, Control_c, 0, 64, 65
1, 180535, Control_c, 0, 64, 69
1, 180550, Control_c, 0, 64, 72
1, 180561, Note_off_c, 0, 74, 57
1, 180565, Control_c, 0, 64, 74
1, 180580, Control_c, 0, 64, 74
1, 180713, Control_c, 0, 64, 73
1, 180728, Control_c, 0, 64, 70
1, 180743, Control_c, 0, 64, 63
1, 180758, Control_c, 0, 64, 0
1, 180765, Note_on_c, 0, 74, 63
1, 180772, Note_on_c, 0, 69, 59
1, 180794, Note_on_c, 0, 53, 43
1, 180800, Note_off_c, 0, 74, 60
1, 180804, Note_off_c, 0, 69, 63
1, 180817, Control_c, 0, 64, 51
1, 180819, Note_on_c, 0, 72, 70
1, 180822, Note_off_c, 0, 53, 59
1, 180832, Control_c, 0, 64, 63
1, 180847, Control_c, 0, 64, 66
1, 180868, Note_off_c, 0, 72, 65
1, 180868, Control_c, 0, 64, 67
1, 180877, Note_on_c, 0, 74, 62
1, 180898, Control_c, 0, 64, 66
1, 180913, Control_c, 0, 64, 66
1, 180922, Note_off_c, 0, 74, 65
1, 180928, Control_c, 0, 64, 65
1, 180931, Note_on_c, 0, 72, 69
1, 180970, Note_off_c, 0, 72, 57
1, 180982, Note_on_c, 0, 70, 62
1, 181013, Note_off_c, 0, 70, 61
1, 181017, Control_c, 0, 64, 64
1, 181027, Note_on_c, 0, 72, 62
1, 181032, Control_c, 0, 64, 63
1, 181047, Control_c, 0, 64, 60
1, 181058, Note_off_c, 0, 65, 50
1, 181062, Control_c, 0, 64, 46
1, 181068, Note_off_c, 0, 72, 60
1, 181076, Control_c, 0, 64, 0
1, 181080, Note_on_c, 0, 70, 76
1, 181098, Note_on_c, 0, 58, 45
1, 181131, Note_off_c, 0, 58, 60
1, 181165, Note_on_c, 0, 65, 60
1, 181210, Note_off_c, 0, 70, 0
1, 181210, Note_on_c, 0, 70, 29
1, 181210, Note_off_c, 0, 65, 62
1, 181255, Note_on_c, 0, 64, 55
1, 181307, Note_off_c, 0, 64, 57
1, 181338, Note_on_c, 0, 65, 57
1, 181371, Note_off_c, 0, 70, 41
1, 181374, Note_off_c, 0, 65, 66
1, 181411, Note_on_c, 0, 67, 55
1, 181447, Note_off_c, 0, 67, 57
1, 181480, Note_on_c, 0, 65, 55
1, 181539, Note_off_c, 0, 65, 58
1, 181566, Note_on_c, 0, 64, 49
1, 181601, Note_off_c, 0, 64, 65
1, 181650, Note_on_c, 0, 65, 54
1, 181675, Note_off_c, 0, 65, 62
1, 181722, Note_on_c, 0, 63, 67
1, 181757, Note_off_c, 0, 63, 65
1, 181810, Note_on_c, 0, 65, 40
1, 181845, Note_off_c, 0, 65, 54
1, 181889, Note_on_c, 0, 62, 62
1, 181925, Note_off_c, 0, 62, 62
1, 181970, Note_on_c, 0, 65, 49
1, 182004, Note_off_c, 0, 65, 56
1, 182058, Note_on_c, 0, 60, 63
1, 182089, Note_off_c, 0, 60, 64
1, 182141, Note_on_c, 0, 65, 51
1, 182172, Note_off_c, 0, 65, 56
1, 182217, Note_on_c, 0, 58, 61
1, 182251, Note_off_c, 0, 58, 65
1, 182295, Note_on_c, 0, 65, 56
1, 182332, Note_off_c, 0, 65, 65
1, 182391, Note_on_c, 0, 57, 59
1, 182394, Note_on_c, 0, 75, 74
1, 182426, Note_off_c, 0, 57, 61
1, 182426, Control_c, 0, 64, 39
1, 182440, Control_c, 0, 64, 60
1, 182455, Control_c, 0, 64, 62
1, 182469, Note_on_c, 0, 65, 49
1, 182470, Control_c, 0, 64, 61
1, 182485, Control_c, 0, 64, 59
1, 182499, Control_c, 0, 64, 53
1, 182514, Note_off_c, 0, 65, 59
1, 182514, Control_c, 0, 64, 31
1, 182529, Control_c, 0, 64, 0
1, 182538, Note_off_c, 0, 75, 59
1, 182562, Note_on_c, 0, 60, 43
1, 182563, Note_on_c, 0, 72, 57
1, 182582, Note_off_c, 0, 72, 62
1, 182588, Note_off_c, 0, 60, 60
1, 182629, Note_on_c, 0, 65, 51
1, 182672, Note_off_c, 0, 65, 62
1, 182720, Note_on_c, 0, 69, 74
1, 182726, Note_on_c, 0, 63, 47
1, 182745, Note_off_c, 0, 69, 71
1, 182767, Note_off_c, 0, 63, 65
1, 182810, Note_on_c, 0, 65, 47
1, 182844, Note_off_c, 0, 65, 55
1, 182889, Note_on_c, 0, 63, 60
1, 182890, Note_on_c, 0, 69, 69
1, 182916, Note_off_c, 0, 69, 71
1, 182928, Note_off_c, 0, 63, 65
1, 182967, Note_on_c, 0, 65, 54
1, 183011, Note_off_c, 0, 65, 61
1, 183053, Note_on_c, 0, 75, 72
1, 183056, Note_on_c, 0, 57, 54
1, 183095, Note_off_c, 0, 57, 62
1, 183116, Control_c, 0, 64, 18
1, 183131, Control_c, 0, 64, 53
1, 183136, Note_on_c, 0, 65, 62
1, 183146, Control_c, 0, 64, 57
1, 183161, Control_c, 0, 64, 53
1, 183175, Control_c, 0, 64, 44
1, 183185, Note_off_c, 0, 65, 57
1, 183190, Control_c, 0, 64, 0
1, 183208, Note_off_c, 0, 75, 59
1, 183229, Note_on_c, 0, 72, 63
1, 183235, Note_on_c, 0, 60, 49
1, 183249, Note_off_c, 0, 72, 67
1, 183272, Note_off_c, 0, 60, 65
1, 183313, Note_on_c, 0, 65, 53
1, 183349, Note_off_c, 0, 65, 61
1, 183387, Note_on_c, 0, 69, 67
1, 183393, Note_on_c, 0, 63, 56
1, 183414, Note_off_c, 0, 69, 69
1, 183431, Note_off_c, 0, 63, 65
1, 183459, Note_on_c, 0, 65, 59
1, 183506, Note_off_c, 0, 65, 59
1, 183545, Note_on_c, 0, 69, 66
1, 183547, Note_on_c, 0, 63, 58
1, 183573, Note_off_c, 0, 69, 69
1, 183587, Note_off_c, 0, 63, 64
1, 183628, Note_on_c, 0, 65, 60
1, 183667, Note_off_c, 0, 65, 63
1, 183706, Note_on_c, 0, 70, 71
1, 183709, Note_on_c, 0, 62, 61
1, 183735, Note_off_c, 0, 70, 63
1, 183746, Note_off_c, 0, 62, 62
1, 183792, Note_on_c, 0, 65, 53
1, 183829, Note_off_c, 0, 65, 58
1, 183873, Note_on_c, 0, 72, 78
1, 183884, Note_on_c, 0, 57, 57
1, 183897, Note_off_c, 0, 72, 68
1, 183918, Note_off_c, 0, 57, 61
1, 183955, Note_on_c, 0, 65, 59
1, 184009, Note_off_c, 0, 65, 55
1, 184038, Note_on_c, 0, 74, 75
1, 184053, Note_on_c, 0, 58, 53
1, 184060, Note_off_c, 0, 74, 72
1, 184079, Note_off_c, 0, 58, 63
1, 184121, Note_on_c, 0, 65, 60
1, 184156, Note_off_c, 0, 65, 65
1, 184197, Note_on_c, 0, 75, 79
1, 184201, Note_on_c, 0, 60, 58
1, 184228, Note_off_c, 0, 75, 65
1, 184240, Note_off_c, 0, 60, 64
1, 184273, Note_on_c, 0, 65, 55
1, 184320, Note_off_c, 0, 65, 62
1, 184357, Note_on_c, 0, 76, 87
1, 184365, Note_on_c, 0, 61, 58
1, 184383, Control_c, 0, 64, 45
1, 184398, Control_c, 0, 64, 59
1, 184412, Note_off_c, 0, 61, 62
1, 184413, Control_c, 0, 64, 62
1, 184427, Control_c, 0, 64, 63
1, 184442, Note_on_c, 0, 65, 62
1, 184442, Control_c, 0, 64, 65
1, 184472, Control_c, 0, 64, 63
1, 184484, Note_off_c, 0, 65, 61
1, 184487, Control_c, 0, 64, 58
1, 184502, Control_c, 0, 64, 34
1, 184517, Control_c, 0, 64, 0
1, 184531, Note_off_c, 0, 76, 66
1, 184532, Note_on_c, 0, 77, 76
1, 184535, Note_on_c, 0, 62, 55
1, 184553, Note_off_c, 0, 77, 69
1, 184572, Note_off_c, 0, 62, 64
1, 184600, Note_on_c, 0, 65, 62
1, 184649, Note_off_c, 0, 65, 60
1, 184698, Note_on_c, 0, 61, 61
1, 184698, Note_on_c, 0, 76, 84
1, 184717, Control_c, 0, 64, 61
1, 184731, Control_c, 0, 64, 71
1, 184739, Note_off_c, 0, 61, 63
1, 184746, Control_c, 0, 64, 79
1, 184761, Control_c, 0, 64, 87
1, 184769, Note_on_c, 0, 65, 69
1, 184776, Control_c, 0, 64, 89
1, 184821, Control_c, 0, 64, 88
1, 184835, Control_c, 0, 64, 83
1, 184841, Note_off_c, 0, 65, 49
1, 184850, Control_c, 0, 64, 73
1, 184860, Note_on_c, 0, 77, 79
1, 184861, Note_off_c, 0, 76, 64
1, 184863, Note_on_c, 0, 62, 56
1, 184865, Control_c, 0, 64, 51
1, 184880, Control_c, 0, 64, 0
1, 184881, Note_off_c, 0, 77, 67
1, 184900, Note_off_c, 0, 62, 63
1, 184945, Note_on_c, 0, 65, 57
1, 184982, Note_off_c, 0, 65, 63
1, 185018, Note_on_c, 0, 87, 93
1, 185021, Note_on_c, 0, 57, 57
1, 185023, Note_on_c, 0, 75, 87
1, 185028, Control_c, 0, 64, 65
1, 185042, Control_c, 0, 64, 73
1, 185047, Note_off_c, 0, 75, 65
1, 185057, Control_c, 0, 64, 80
1, 185062, Note_off_c, 0, 87, 63
1, 185068, Note_off_c, 0, 57, 53
1, 185072, Control_c, 0, 64, 86
1, 185086, Note_on_c, 0, 65, 67
1, 185086, Control_c, 0, 64, 89
1, 185101, Control_c, 0, 64, 90
1, 185131, Control_c, 0, 64, 89
1, 185146, Control_c, 0, 64, 85
1, 185158, Note_off_c, 0, 65, 56
1, 185161, Control_c, 0, 64, 77
1, 185176, Control_c, 0, 64, 64
1, 185185, Note_on_c, 0, 60, 56
1, 185187, Note_on_c, 0, 72, 74
1, 185189, Note_on_c, 0, 84, 72
1, 185191, Control_c, 0, 64, 0
1, 185208, Note_off_c, 0, 72, 71
1, 185211, Note_off_c, 0, 84, 71
1, 185220, Note_off_c, 0, 60, 62
1, 185259, Note_on_c, 0, 65, 52
1, 185301, Note_off_c, 0, 65, 63
1, 185343, Note_on_c, 0, 63, 56
1, 185349, Note_on_c, 0, 81, 77
1, 185360, Note_on_c, 0, 69, 73
1, 185377, Note_off_c, 0, 81, 69
1, 185384, Note_off_c, 0, 69, 71
1, 185391, Note_off_c, 0, 63, 64
1, 185422, Note_on_c, 0, 65, 64
1, 185481, Note_off_c, 0, 65, 52
1, 185511, Note_on_c, 0, 69, 70
1, 185511, Note_on_c, 0, 81, 81
1, 185513, Note_on_c, 0, 63, 59
1, 185529, Note_off_c, 0, 81, 70
1, 185530, Note_off_c, 0, 69, 68
1, 185553, Note_off_c, 0, 63, 66
1, 185595, Note_on_c, 0, 65, 61
1, 185631, Note_off_c, 0, 65, 64
1, 185672, Note_on_c, 0, 57, 61
1, 185673, Note_on_c, 0, 87, 87
1, 185679, Note_on_c, 0, 75, 84
1, 185688, Control_c, 0, 64, 46
1, 185701, Note_off_c, 0, 75, 70
1, 185703, Control_c, 0, 64, 65
1, 185706, Note_off_c, 0, 87, 60
1, 185715, Note_off_c, 0, 57, 58
1, 185717, Control_c, 0, 64, 69
1, 185732, Control_c, 0, 64, 71
1, 185742, Note_on_c, 0, 65, 62
1, 185747, Control_c, 0, 64, 74
1, 185762, Control_c, 0, 64, 76
1, 185791, Control_c, 0, 64, 75
1, 185802, Note_off_c, 0, 65, 53
1, 185806, Control_c, 0, 64, 71
1, 185821, Control_c, 0, 64, 62
1, 185836, Control_c, 0, 64, 0
1, 185843, Note_on_c, 0, 60, 49
1, 185843, Note_on_c, 0, 84, 77
1, 185846, Note_on_c, 0, 72, 74
1, 185863, Note_off_c, 0, 84, 72
1, 185869, Note_off_c, 0, 72, 71
1, 185880, Note_off_c, 0, 60, 64
1, 185914, Note_on_c, 0, 65, 65
1, 185960, Note_off_c, 0, 65, 57
1, 186004, Note_on_c, 0, 81, 77
1, 186004, Note_on_c, 0, 63, 55
1, 186008, Note_on_c, 0, 69, 67
1, 186024, Note_off_c, 0, 81, 69
1, 186034, Note_off_c, 0, 69, 68
1, 186046, Note_off_c, 0, 63, 65
1, 186079, Note_on_c, 0, 65, 62
1, 186129, Note_off_c, 0, 65, 57
1, 186170, Note_on_c, 0, 63, 62
1, 186172, Note_on_c, 0, 81, 79
1, 186174, Note_on_c, 0, 69, 69
1, 186193, Note_off_c, 0, 81, 68
1, 186200, Note_off_c, 0, 69, 66
1, 186212, Note_off_c, 0, 63, 62
1, 186247, Note_on_c, 0, 65, 66
1, 186299, Note_off_c, 0, 65, 56
1, 186324, Note_on_c, 0, 82, 89
1, 186326, Note_on_c, 0, 70, 85
1, 186332, Note_on_c, 0, 62, 64
1, 186349, Note_off_c, 0, 70, 66
1, 186371, Note_off_c, 0, 82, 61
1, 186377, Note_off_c, 0, 62, 61
1, 186410, Note_on_c, 0, 65, 70
1, 186465, Note_off_c, 0, 65, 55
1, 186483, Note_on_c, 0, 57, 64
1, 186492, Note_on_c, 0, 84, 86
1, 186493, Note_on_c, 0, 72, 81
1, 186514, Note_off_c, 0, 72, 70
1, 186524, Note_off_c, 0, 84, 64
1, 186529, Note_off_c, 0, 57, 56
1, 186565, Note_on_c, 0, 65, 70
1, 186606, Note_off_c, 0, 65, 54
1, 186649, Note_on_c, 0, 86, 88
1, 186650, Note_on_c, 0, 58, 69
1, 186651, Note_on_c, 0, 74, 86
1, 186667, Note_off_c, 0, 74, 73
1, 186670, Note_off_c, 0, 86, 66
1, 186687, Note_off_c, 0, 58, 62
1, 186723, Note_on_c, 0, 65, 69
1, 186785, Note_off_c, 0, 65, 55
1, 186801, Note_on_c, 0, 87, 93
1, 186804, Note_on_c, 0, 75, 90
1, 186811, Note_on_c, 0, 60, 68
1, 186827, Note_off_c, 0, 75, 65
1, 186839, Note_off_c, 0, 87, 61
1, 186845, Note_off_c, 0, 60, 60
1, 186905, Note_on_c, 0, 65, 61
1, 186942, Note_off_c, 0, 65, 60
1, 186971, Note_on_c, 0, 88, 94
1, 186975, Note_on_c, 0, 76, 93
1, 186980, Note_on_c, 0, 61, 69
1, 187009, Control_c, 0, 64, 64
1, 187010, Note_off_c, 0, 76, 67
1, 187024, Control_c, 0, 64, 72
1, 187029, Note_off_c, 0, 88, 63
1, 187033, Note_off_c, 0, 61, 60
1, 187038, Control_c, 0, 64, 79
1, 187053, Control_c, 0, 64, 89
1, 187060, Note_on_c, 0, 65, 69
1, 187068, Control_c, 0, 64, 96
1, 187082, Control_c, 0, 64, 100
1, 187127, Control_c, 0, 64, 98
1, 187131, Note_off_c, 0, 65, 61
1, 187140, Note_on_c, 0, 62, 66
1, 187142, Note_on_c, 0, 89, 81
1, 187142, Control_c, 0, 64, 91
1, 187145, Note_on_c, 0, 77, 71
1, 187156, Control_c, 0, 64, 81
1, 187160, Note_off_c, 0, 77, 66
1, 187163, Note_off_c, 0, 89, 71
1, 187171, Control_c, 0, 64, 67
1, 187182, Note_off_c, 0, 62, 56
1, 187186, Control_c, 0, 64, 0
1, 187226, Note_on_c, 0, 65, 62
1, 187279, Note_off_c, 0, 65, 47
1, 187296, Note_on_c, 0, 88, 92
1, 187298, Note_on_c, 0, 61, 63
1, 187298, Note_on_c, 0, 76, 90
1, 187319, Control_c, 0, 64, 63
1, 187334, Note_off_c, 0, 76, 66
1, 187334, Control_c, 0, 64, 72
1, 187349, Control_c, 0, 64, 84
1, 187358, Note_off_c, 0, 61, 55
1, 187364, Control_c, 0, 64, 96
1, 187379, Control_c, 0, 64, 107
1, 187385, Note_off_c, 0, 88, 62
1, 187392, Note_on_c, 0, 65, 61
1, 187393, Control_c, 0, 64, 112
1, 187408, Control_c, 0, 64, 113
1, 187419, Note_off_c, 0, 65, 60
1, 187438, Control_c, 0, 64, 112
1, 187446, Note_on_c, 0, 62, 63
1, 187453, Control_c, 0, 64, 107
1, 187454, Note_on_c, 0, 89, 86
1, 187459, Note_on_c, 0, 77, 83
1, 187468, Control_c, 0, 64, 99
1, 187473, Note_off_c, 0, 89, 73
1, 187480, Note_off_c, 0, 77, 69
1, 187482, Control_c, 0, 64, 88
1, 187497, Control_c, 0, 64, 74
1, 187504, Note_off_c, 0, 62, 61
1, 187512, Control_c, 0, 64, 57
1, 187527, Control_c, 0, 64, 0
1, 187535, Note_on_c, 0, 65, 54
1, 187568, Note_off_c, 0, 65, 67
1, 187736, Note_on_c, 0, 79, 62
1, 187755, Note_on_c, 0, 67, 46
1, 187926, Note_on_c, 0, 51, 32
1, 188079, Note_off_c, 0, 51, 53
1, 188083, Control_c, 0, 64, 51
1, 188086, Note_on_c, 0, 50, 41
1, 188098, Control_c, 0, 64, 65
1, 188112, Note_off_c, 0, 79, 62
1, 188112, Control_c, 0, 64, 70
1, 188127, Control_c, 0, 64, 76
1, 188142, Control_c, 0, 64, 81
1, 188148, Note_off_c, 0, 67, 58
1, 188157, Control_c, 0, 64, 84
1, 188171, Control_c, 0, 64, 86
1, 188186, Control_c, 0, 64, 87
1, 188250, Note_on_c, 0, 51, 60
1, 188260, Note_off_c, 0, 50, 40
1, 188288, Note_off_c, 0, 51, 63
1, 188334, Control_c, 0, 64, 86
1, 188371, Control_c, 0, 64, 85
1, 188387, Control_c, 0, 64, 84
1, 188402, Control_c, 0, 64, 83
1, 188416, Control_c, 0, 64, 82
1, 188431, Note_on_c, 0, 69, 74
1, 188431, Control_c, 0, 64, 80
1, 188444, Note_on_c, 0, 57, 60
1, 188446, Control_c, 0, 64, 79
1, 188461, Control_c, 0, 64, 76
1, 188476, Control_c, 0, 64, 72
1, 188490, Control_c, 0, 64, 65
1, 188505, Control_c, 0, 64, 25
1, 188520, Control_c, 0, 64, 0
1, 188606, Note_on_c, 0, 53, 52
1, 188698, Control_c, 0, 64, 13
1, 188713, Control_c, 0, 64, 61
1, 188727, Control_c, 0, 64, 67
1, 188742, Control_c, 0, 64, 72
1, 188754, Note_off_c, 0, 69, 45
1, 188754, Note_off_c, 0, 57, 63
1, 188757, Control_c, 0, 64, 76
1, 188772, Control_c, 0, 64, 80
1, 188776, Note_on_c, 0, 52, 65
1, 188787, Control_c, 0, 64, 83
1, 188801, Control_c, 0, 64, 86
1, 188814, Note_off_c, 0, 53, 37
1, 188816, Control_c, 0, 64, 88
1, 188831, Control_c, 0, 64, 89
1, 188953, Note_on_c, 0, 53, 70
1, 188961, Note_off_c, 0, 52, 58
1, 188995, Control_c, 0, 64, 89
1, 188999, Note_off_c, 0, 53, 63
1, 189024, Control_c, 0, 64, 88
1, 189039, Control_c, 0, 64, 88
1, 189054, Control_c, 0, 64, 87
1, 189069, Control_c, 0, 64, 86
1, 189084, Control_c, 0, 64, 85
1, 189106, Control_c, 0, 64, 84
1, 189121, Control_c, 0, 64, 83
1, 189134, Note_on_c, 0, 87, 81
1, 189135, Control_c, 0, 64, 82
1, 189145, Note_on_c, 0, 75, 70
1, 189150, Control_c, 0, 64, 80
1, 189165, Control_c, 0, 64, 77
1, 189181, Control_c, 0, 64, 75
1, 189196, Control_c, 0, 64, 73
1, 189211, Control_c, 0, 64, 70
1, 189225, Control_c, 0, 64, 66
1, 189240, Control_c, 0, 64, 60
1, 189255, Control_c, 0, 64, 28
1, 189270, Control_c, 0, 64, 0
1, 189311, Note_on_c, 0, 54, 49
1, 189485, Note_off_c, 0, 54, 58
1, 189487, Note_on_c, 0, 52, 56
1, 189522, Control_c, 0, 64, 36
1, 189537, Control_c, 0, 64, 63
1, 189551, Control_c, 0, 64, 68
1, 189566, Control_c, 0, 64, 73
1, 189581, Control_c, 0, 64, 77
1, 189596, Control_c, 0, 64, 80
1, 189611, Control_c, 0, 64, 81
1, 189625, Control_c, 0, 64, 81
1, 189657, Note_off_c, 0, 52, 63
1, 189662, Note_on_c, 0, 54, 58
1, 189672, Note_off_c, 0, 75, 36
1, 189690, Note_off_c, 0, 87, 36
1, 189704, Note_off_c, 0, 54, 61
1, 189758, Control_c, 0, 64, 81
1, 189773, Control_c, 0, 64, 80
1, 189788, Control_c, 0, 64, 80
1, 189803, Control_c, 0, 64, 79
1, 189818, Control_c, 0, 64, 78
1, 189832, Control_c, 0, 64, 77
1, 189836, Note_on_c, 0, 86, 66
1, 189844, Note_on_c, 0, 74, 54
1, 189855, Control_c, 0, 64, 75
1, 189870, Control_c, 0, 64, 72
1, 189884, Control_c, 0, 64, 69
1, 189899, Control_c, 0, 64, 64
1, 189914, Control_c, 0, 64, 53
1, 189929, Control_c, 0, 64, 30
1, 189944, Control_c, 0, 64, 25
1, 189973, Control_c, 0, 64, 22
1, 189989, Control_c, 0, 64, 0
1, 190014, Note_on_c, 0, 55, 41
1, 190107, Control_c, 0, 67, 9
1, 190122, Control_c, 0, 67, 13
1, 190137, Control_c, 0, 67, 18
1, 190152, Control_c, 0, 67, 24
1, 190167, Control_c, 0, 67, 30
1, 190178, Note_off_c, 0, 55, 51
1, 190181, Control_c, 0, 67, 37
1, 190186, Note_on_c, 0, 54, 39
1, 190195, Note_off_c, 0, 74, 62
1, 190196, Control_c, 0, 67, 44
1, 190210, Note_off_c, 0, 86, 62
1, 190211, Control_c, 0, 67, 51
1, 190226, Control_c, 0, 64, 59
1, 190226, Control_c, 0, 67, 54
1, 190241, Control_c, 0, 64, 66
1, 190241, Control_c, 0, 67, 54
1, 190255, Control_c, 0, 64, 69
1, 190255, Control_c, 0, 67, 53
1, 190270, Control_c, 0, 64, 71
1, 190270, Control_c, 0, 67, 52
1, 190285, Control_c, 0, 64, 72
1, 190285, Control_c, 0, 67, 51
1, 190334, Note_off_c, 0, 54, 52
1, 190350, Note_on_c, 0, 55, 56
1, 190374, Control_c, 0, 67, 51
1, 190404, Control_c, 0, 67, 50
1, 190434, Control_c, 0, 64, 71
1, 190434, Control_c, 0, 67, 50
1, 190448, Control_c, 0, 64, 70
1, 190461, Control_c, 0, 64, 68
1, 190461, Control_c, 0, 67, 49
1, 190476, Control_c, 0, 64, 61
1, 190476, Control_c, 0, 67, 48
1, 190491, Control_c, 0, 64, 0
1, 190491, Control_c, 0, 67, 47
1, 190506, Control_c, 0, 67, 47
1, 190520, Note_off_c, 0, 55, 64
1, 190520, Control_c, 0, 67, 46
1, 190527, Note_on_c, 0, 86, 64
1, 190535, Control_c, 0, 67, 45
1, 190565, Control_c, 0, 67, 45
1, 190580, Control_c, 0, 67, 44
1, 190581, Note_off_c, 0, 86, 62
1, 190602, Control_c, 0, 67, 44
1, 190614, Note_on_c, 0, 84, 64
1, 190617, Control_c, 0, 67, 43
1, 190657, Note_off_c, 0, 84, 58
1, 190676, Control_c, 0, 67, 44
1, 190682, Note_on_c, 0, 87, 66
1, 190750, Note_off_c, 0, 87, 61
1, 190757, Note_on_c, 0, 86, 69
1, 190833, Note_off_c, 0, 86, 63
1, 190836, Note_on_c, 0, 89, 74
1, 190845, Note_on_c, 0, 72, 59
1, 190859, Note_on_c, 0, 63, 52
1, 190869, Control_c, 0, 67, 43
1, 190884, Control_c, 0, 67, 43
1, 190906, Note_off_c, 0, 72, 64
1, 190907, Note_off_c, 0, 63, 62
1, 190909, Note_off_c, 0, 89, 63
1, 190914, Control_c, 0, 67, 42
1, 190917, Note_on_c, 0, 87, 69
1, 190944, Control_c, 0, 67, 41
1, 190959, Control_c, 0, 67, 40
1, 190974, Control_c, 0, 67, 39
1, 190977, Note_off_c, 0, 87, 64
1, 190988, Control_c, 0, 67, 38
1, 190991, Note_on_c, 0, 86, 70
1, 191003, Control_c, 0, 67, 38
1, 191018, Control_c, 0, 67, 37
1, 191033, Control_c, 0, 67, 37
1, 191040, Note_off_c, 0, 86, 61
1, 191048, Control_c, 0, 67, 36
1, 191063, Control_c, 0, 67, 35
1, 191072, Note_on_c, 0, 84, 71
1, 191077, Control_c, 0, 67, 33
1, 191092, Control_c, 0, 67, 30
1, 191107, Control_c, 0, 67, 27
1, 191118, Note_off_c, 0, 84, 61
1, 191121, Control_c, 0, 67, 24
1, 191136, Control_c, 0, 67, 22
1, 191151, Control_c, 0, 67, 22
1, 191164, Note_on_c, 0, 82, 72
1, 191166, Control_c, 0, 67, 21
1, 191179, Note_on_c, 0, 74, 45
1, 191181, Control_c, 0, 67, 20
1, 191185, Note_on_c, 0, 65, 40
1, 191195, Control_c, 0, 67, 17
1, 191210, Control_c, 0, 67, 14
1, 191225, Control_c, 0, 67, 12
1, 191240, Control_c, 0, 67, 11
1, 191284, Control_c, 0, 67, 12
1, 191351, Control_c, 0, 67, 13
1, 191366, Control_c, 0, 67, 13
1, 191381, Control_c, 0, 67, 14
1, 191396, Control_c, 0, 67, 15
1, 191410, Control_c, 0, 67, 15
1, 191425, Control_c, 0, 67, 16
1, 191528, Control_c, 0, 67, 17
1, 191543, Control_c, 0, 67, 17
1, 191558, Control_c, 0, 67, 17
1, 191586, Note_off_c, 0, 82, 56
1, 191593, Note_off_c, 0, 74, 53
1, 191597, Note_on_c, 0, 81, 59
1, 191604, Control_c, 0, 67, 16
1, 191615, Note_on_c, 0, 75, 34
1, 191692, Control_c, 0, 64, 44
1, 191692, Control_c, 0, 67, 16
1, 191707, Control_c, 0, 64, 63
1, 191707, Control_c, 0, 67, 15
1, 191722, Control_c, 0, 64, 66
1, 191737, Control_c, 0, 64, 68
1, 191737, Control_c, 0, 67, 15
1, 191752, Control_c, 0, 64, 69
1, 191766, Note_off_c, 0, 81, 60
1, 191766, Control_c, 0, 64, 69
1, 191781, Control_c, 0, 64, 70
1, 191796, Control_c, 0, 64, 71
1, 191796, Control_c, 0, 67, 15
1, 191811, Control_c, 0, 64, 73
1, 191826, Control_c, 0, 64, 74
1, 191841, Control_c, 0, 64, 74
1, 191841, Control_c, 0, 67, 16
1, 191856, Control_c, 0, 64, 75
1, 191870, Control_c, 0, 67, 16
1, 191877, Note_off_c, 0, 75, 30
1, 191915, Control_c, 0, 64, 75
1, 191915, Control_c, 0, 67, 17
1, 191930, Control_c, 0, 64, 74
1, 191930, Control_c, 0, 67, 17
1, 191944, Control_c, 0, 64, 73
1, 191955, Note_on_c, 0, 70, 41
1, 191959, Control_c, 0, 64, 72
1, 191963, Note_on_c, 0, 74, 35
1, 191974, Control_c, 0, 64, 69
1, 191989, Control_c, 0, 64, 64
1, 192004, Control_c, 0, 64, 47
1, 192018, Control_c, 0, 64, 0
1, 192018, Control_c, 0, 67, 18
1, 192033, Note_off_c, 0, 65, 35
1, 192048, Control_c, 0, 67, 19
1, 192100, Control_c, 0, 67, 18
1, 192131, Note_on_c, 0, 82, 55
1, 192136, Note_off_c, 0, 74, 64
1, 192138, Note_off_c, 0, 70, 59
1, 192189, Control_c, 0, 67, 18
1, 192219, Control_c, 0, 67, 19
1, 192233, Control_c, 0, 67, 19
1, 192248, Control_c, 0, 67, 20
1, 192263, Control_c, 0, 67, 19
1, 192292, Control_c, 0, 67, 19
1, 192293, Note_off_c, 0, 82, 59
1, 192309, Note_on_c, 0, 81, 54
1, 192397, Control_c, 0, 67, 18
1, 192456, Control_c, 0, 67, 18
1, 192473, Note_on_c, 0, 82, 64
1, 192475, Note_off_c, 0, 81, 56
1, 192486, Control_c, 0, 67, 17
1, 192500, Note_off_c, 0, 82, 67
1, 192604, Control_c, 0, 67, 17
1, 192641, Note_on_c, 0, 70, 36
1, 192649, Note_on_c, 0, 74, 44
1, 192693, Control_c, 0, 64, 42
1, 192693, Control_c, 0, 67, 17
1, 192708, Control_c, 0, 64, 61
1, 192723, Control_c, 0, 64, 65
1, 192738, Control_c, 0, 64, 68
1, 192738, Control_c, 0, 67, 18
1, 192753, Control_c, 0, 64, 71
1, 192768, Control_c, 0, 64, 76
1, 192783, Control_c, 0, 64, 81
1, 192798, Note_off_c, 0, 74, 59
1, 192798, Control_c, 0, 64, 84
1, 192803, Note_on_c, 0, 80, 71
1, 192813, Control_c, 0, 64, 86
1, 192814, Note_off_c, 0, 70, 47
1, 192828, Control_c, 0, 64, 87
1, 192849, Control_c, 0, 64, 88
1, 192849, Control_c, 0, 67, 17
1, 192864, Control_c, 0, 64, 89
1, 192879, Control_c, 0, 64, 90
1, 192908, Control_c, 0, 67, 17
1, 192953, Control_c, 0, 67, 16
1, 192990, Note_on_c, 0, 79, 76
1, 193018, Note_off_c, 0, 80, 60
1, 193057, Control_c, 0, 67, 16
1, 193087, Control_c, 0, 67, 15
1, 193131, Control_c, 0, 64, 89
1, 193159, Note_on_c, 0, 80, 84
1, 193161, Control_c, 0, 64, 89
1, 193164, Note_off_c, 0, 79, 63
1, 193191, Control_c, 0, 64, 88
1, 193196, Note_off_c, 0, 80, 63
1, 193206, Control_c, 0, 64, 88
1, 193221, Control_c, 0, 64, 87
1, 193236, Control_c, 0, 64, 86
1, 193236, Control_c, 0, 67, 16
1, 193251, Control_c, 0, 64, 85
1, 193266, Control_c, 0, 64, 84
1, 193266, Control_c, 0, 67, 16
1, 193280, Control_c, 0, 64, 83
1, 193295, Control_c, 0, 64, 82
1, 193310, Control_c, 0, 64, 81
1, 193324, Control_c, 0, 64, 79
1, 193337, Note_on_c, 0, 74, 50
1, 193339, Note_on_c, 0, 77, 64
1, 193339, Control_c, 0, 64, 77
1, 193343, Note_on_c, 0, 71, 56
1, 193354, Control_c, 0, 64, 75
1, 193369, Control_c, 0, 64, 72
1, 193384, Control_c, 0, 64, 68
1, 193398, Control_c, 0, 64, 62
1, 193413, Control_c, 0, 64, 37
1, 193428, Control_c, 0, 64, 0
1, 193503, Note_on_c, 0, 79, 82
1, 193531, Control_c, 0, 67, 17
1, 193546, Control_c, 0, 67, 17
1, 193561, Control_c, 0, 67, 18
1, 193576, Control_c, 0, 67, 18
1, 193613, Control_c, 0, 67, 18
1, 193628, Control_c, 0, 67, 17
1, 193643, Control_c, 0, 67, 17
1, 193657, Control_c, 0, 67, 16
1, 193687, Control_c, 0, 67, 16
1, 193699, Note_on_c, 0, 78, 74
1, 193702, Control_c, 0, 67, 15
1, 193716, Note_off_c, 0, 79, 56
1, 193731, Control_c, 0, 67, 15
1, 193790, Control_c, 0, 67, 14
1, 193850, Note_off_c, 0, 78, 65
1, 193871, Note_on_c, 0, 79, 64
1, 193880, Control_c, 0, 67, 15
1, 193889, Note_off_c, 0, 79, 65
1, 193939, Control_c, 0, 67, 15
1, 193998, Note_off_c, 0, 74, 51
1, 194017, Note_off_c, 0, 77, 54
1, 194023, Note_off_c, 0, 71, 52
1, 194040, Note_on_c, 0, 75, 35
1, 194052, Note_on_c, 0, 72, 42
1, 194073, Control_c, 0, 67, 16
1, 194103, Control_c, 0, 67, 16
1, 194147, Control_c, 0, 67, 17
1, 194177, Control_c, 0, 67, 17
1, 194202, Note_on_c, 0, 79, 56
1, 194202, Note_off_c, 0, 72, 62
1, 194208, Note_off_c, 0, 75, 64
1, 194220, Control_c, 0, 67, 18
1, 194235, Control_c, 0, 67, 18
1, 194279, Control_c, 0, 67, 18
1, 194294, Control_c, 0, 67, 17
1, 194309, Control_c, 0, 67, 17
1, 194318, Note_off_c, 0, 79, 51
1, 194324, Control_c, 0, 67, 16
1, 194346, Control_c, 0, 67, 15
1, 194361, Control_c, 0, 67, 15
1, 194376, Control_c, 0, 67, 14
1, 194378, Note_on_c, 0, 87, 67
1, 194404, Note_off_c, 0, 87, 70
1, 194450, Control_c, 0, 67, 15
1, 194509, Control_c, 0, 67, 14
1, 194539, Control_c, 0, 67, 15
1, 194548, Note_on_c, 0, 87, 63
1, 194566, Note_off_c, 0, 87, 65
1, 194721, Note_on_c, 0, 72, 51
1, 194729, Note_on_c, 0, 69, 53
1, 194730, Note_on_c, 0, 75, 50
1, 194762, Control_c, 0, 67, 15
1, 194792, Control_c, 0, 67, 16
1, 194807, Control_c, 0, 67, 16
1, 194884, Note_on_c, 0, 87, 78
1, 194969, Control_c, 0, 67, 16
1, 194984, Control_c, 0, 67, 15
1, 195014, Control_c, 0, 67, 15
1, 195043, Control_c, 0, 67, 14
1, 195054, Note_off_c, 0, 87, 55
1, 195057, Note_on_c, 0, 77, 67
1, 195058, Control_c, 0, 67, 14
1, 195092, Note_off_c, 0, 77, 65
1, 195095, Control_c, 0, 67, 13
1, 195110, Control_c, 0, 67, 13
1, 195140, Control_c, 0, 67, 12
1, 195184, Control_c, 0, 67, 12
1, 195235, Note_on_c, 0, 77, 66
1, 195260, Note_off_c, 0, 77, 67
1, 195332, Control_c, 0, 67, 12
1, 195347, Control_c, 0, 67, 13
1, 195356, Note_off_c, 0, 69, 60
1, 195388, Note_off_c, 0, 72, 59
1, 195391, Control_c, 0, 67, 13
1, 195406, Note_on_c, 0, 74, 43
1, 195406, Control_c, 0, 67, 14
1, 195415, Note_on_c, 0, 70, 38
1, 195425, Note_off_c, 0, 75, 56
1, 195481, Control_c, 0, 67, 14
1, 195495, Control_c, 0, 67, 15
1, 195525, Control_c, 0, 67, 15
1, 195555, Control_c, 0, 67, 16
1, 195570, Control_c, 0, 67, 16
1, 195576, Note_on_c, 0, 77, 63
1, 195600, Control_c, 0, 67, 17
1, 195612, Note_off_c, 0, 74, 59
1, 195628, Note_off_c, 0, 70, 56
1, 195630, Control_c, 0, 67, 16
1, 195645, Control_c, 0, 67, 15
1, 195659, Control_c, 0, 67, 15
1, 195689, Control_c, 0, 67, 14
1, 195749, Note_on_c, 0, 86, 67
1, 195749, Control_c, 0, 67, 15
1, 195749, Note_off_c, 0, 77, 44
1, 195776, Note_off_c, 0, 86, 65
1, 195779, Control_c, 0, 67, 15
1, 195844, Control_c, 0, 67, 15
1, 195889, Control_c, 0, 67, 14
1, 195926, Note_on_c, 0, 86, 68
1, 195946, Note_off_c, 0, 86, 66
1, 195964, Control_c, 0, 67, 14
1, 195978, Control_c, 0, 67, 15
1, 196052, Control_c, 0, 67, 15
1, 196082, Control_c, 0, 67, 16
1, 196102, Note_on_c, 0, 70, 48
1, 196104, Note_on_c, 0, 74, 49
1, 196111, Note_on_c, 0, 67, 42
1, 196126, Control_c, 0, 67, 16
1, 196259, Control_c, 0, 67, 16
1, 196268, Note_on_c, 0, 86, 73
1, 196304, Control_c, 0, 67, 15
1, 196364, Control_c, 0, 67, 15
1, 196416, Note_off_c, 0, 86, 57
1, 196423, Control_c, 0, 67, 14
1, 196434, Note_on_c, 0, 75, 64
1, 196438, Control_c, 0, 67, 14
1, 196464, Note_off_c, 0, 75, 65
1, 196467, Control_c, 0, 67, 13
1, 196482, Control_c, 0, 67, 13
1, 196512, Control_c, 0, 67, 12
1, 196542, Control_c, 0, 67, 12
1, 196617, Note_on_c, 0, 75, 65
1, 196646, Note_off_c, 0, 75, 67
1, 196697, Control_c, 0, 67, 12
1, 196727, Control_c, 0, 67, 13
1, 196756, Note_off_c, 0, 67, 47
1, 196772, Note_on_c, 0, 69, 40
1, 196786, Note_off_c, 0, 70, 54
1, 196789, Note_on_c, 0, 72, 39
1, 196801, Note_off_c, 0, 74, 60
1, 196831, Control_c, 0, 67, 13
1, 196861, Control_c, 0, 67, 14
1, 196935, Control_c, 0, 67, 14
1, 196946, Note_on_c, 0, 75, 56
1, 196949, Control_c, 0, 67, 15
1, 196979, Control_c, 0, 67, 15
1, 197009, Control_c, 0, 67, 16
1, 197011, Note_off_c, 0, 69, 58
1, 197022, Note_off_c, 0, 72, 61
1, 197023, Control_c, 0, 67, 16
1, 197038, Control_c, 0, 67, 17
1, 197067, Control_c, 0, 67, 17
1, 197082, Control_c, 0, 67, 16
1, 197097, Control_c, 0, 67, 16
1, 197107, Note_off_c, 0, 75, 61
1, 197112, Control_c, 0, 67, 15
1, 197123, Note_on_c, 0, 84, 62
1, 197127, Control_c, 0, 67, 15
1, 197151, Note_off_c, 0, 84, 68
1, 197202, Control_c, 0, 67, 15
1, 197294, Note_on_c, 0, 84, 60
1, 197311, Note_off_c, 0, 84, 65
1, 197320, Control_c, 0, 67, 16
1, 197472, Note_on_c, 0, 69, 45
1, 197476, Control_c, 0, 67, 16
1, 197477, Note_on_c, 0, 72, 49
1, 197480, Note_on_c, 0, 66, 44
1, 197505, Control_c, 0, 67, 16
1, 197535, Control_c, 0, 67, 15
1, 197624, Control_c, 0, 67, 15
1, 197639, Note_on_c, 0, 84, 65
1, 197669, Control_c, 0, 67, 14
1, 197698, Control_c, 0, 67, 14
1, 197782, Note_off_c, 0, 84, 54
1, 197802, Control_c, 0, 67, 13
1, 197809, Note_on_c, 0, 74, 57
1, 197816, Control_c, 0, 67, 13
1, 197838, Note_off_c, 0, 74, 68
1, 197846, Control_c, 0, 67, 12
1, 197876, Control_c, 0, 67, 11
1, 197905, Control_c, 0, 67, 10
1, 197950, Control_c, 0, 67, 10
1, 197982, Note_on_c, 0, 74, 63
1, 198007, Note_off_c, 0, 74, 69
1, 198040, Control_c, 0, 67, 9
1, 198104, Note_off_c, 0, 69, 37
1, 198136, Control_c, 0, 67, 10
1, 198162, Note_on_c, 0, 70, 41
1, 198169, Note_off_c, 0, 72, 35
1, 198174, Note_off_c, 0, 66, 38
1, 198181, Control_c, 0, 67, 10
1, 198189, Note_on_c, 0, 67, 32
1, 198269, Control_c, 0, 67, 11
1, 198299, Control_c, 0, 67, 11
1, 198325, Note_on_c, 0, 74, 51
1, 198343, Control_c, 0, 67, 12
1, 198373, Control_c, 0, 67, 13
1, 198400, Note_off_c, 0, 67, 46
1, 198402, Control_c, 0, 67, 14
1, 198430, Note_off_c, 0, 70, 52
1, 198432, Control_c, 0, 67, 15
1, 198447, Control_c, 0, 67, 15
1, 198462, Control_c, 0, 67, 16
1, 198476, Control_c, 0, 67, 16
1, 198491, Control_c, 0, 67, 17
1, 198492, Note_on_c, 0, 82, 62
1, 198497, Note_off_c, 0, 74, 45
1, 198518, Note_off_c, 0, 82, 66
1, 198551, Control_c, 0, 67, 16
1, 198610, Control_c, 0, 67, 16
1, 198625, Control_c, 0, 67, 15
1, 198654, Control_c, 0, 67, 15
1, 198667, Note_on_c, 0, 82, 63
1, 198684, Control_c, 0, 67, 14
1, 198697, Note_off_c, 0, 82, 64
1, 198698, Control_c, 0, 67, 14
1, 198712, Control_c, 0, 67, 13
1, 198727, Control_c, 0, 67, 13
1, 198758, Control_c, 0, 67, 12
1, 198773, Control_c, 0, 67, 12
1, 198803, Control_c, 0, 67, 11
1, 198826, Note_on_c, 0, 82, 62
1, 198855, Control_c, 0, 67, 11
1, 198962, Note_off_c, 0, 82, 55
1, 198988, Control_c, 0, 67, 11
1, 198998, Note_on_c, 0, 70, 52
1, 199000, Note_on_c, 0, 72, 48
1, 199001, Note_on_c, 0, 64, 44
1, 199003, Control_c, 0, 67, 12
1, 199021, Note_off_c, 0, 72, 60
1, 199031, Note_off_c, 0, 70, 57
1, 199032, Note_off_c, 0, 64, 60
1, 199032, Control_c, 0, 67, 13
1, 199061, Control_c, 0, 67, 13
1, 199091, Control_c, 0, 67, 14
1, 199147, Note_on_c, 0, 70, 57
1, 199150, Note_on_c, 0, 64, 49
1, 199165, Control_c, 0, 67, 14
1, 199180, Control_c, 0, 67, 15
1, 199183, Note_off_c, 0, 70, 64
1, 199188, Note_off_c, 0, 64, 64
1, 199210, Control_c, 0, 67, 15
1, 199240, Control_c, 0, 67, 15
1, 199269, Control_c, 0, 67, 14
1, 199284, Control_c, 0, 67, 14
1, 199324, Note_on_c, 0, 64, 51
1, 199329, Note_on_c, 0, 70, 54
1, 199347, Note_off_c, 0, 64, 63
1, 199351, Note_off_c, 0, 70, 59
1, 199402, Control_c, 0, 67, 13
1, 199417, Control_c, 0, 67, 13
1, 199432, Control_c, 0, 67, 12
1, 199448, Control_c, 0, 67, 12
1, 199469, Note_on_c, 0, 82, 73
1, 199477, Control_c, 0, 67, 11
1, 199647, Note_on_c, 0, 74, 62
1, 199648, Control_c, 0, 67, 12
1, 199651, Note_on_c, 0, 65, 54
1, 199657, Note_on_c, 0, 70, 48
1, 199662, Note_off_c, 0, 82, 60
1, 199675, Note_off_c, 0, 74, 68
1, 199678, Control_c, 0, 67, 12
1, 199681, Note_off_c, 0, 65, 65
1, 199687, Note_off_c, 0, 70, 54
1, 199693, Control_c, 0, 67, 13
1, 199797, Control_c, 0, 67, 13
1, 199812, Note_on_c, 0, 65, 64
1, 199812, Note_on_c, 0, 70, 63
1, 199812, Control_c, 0, 67, 14
1, 199827, Control_c, 0, 67, 15
1, 199841, Note_off_c, 0, 70, 66
1, 199842, Note_off_c, 0, 65, 67
1, 199885, Control_c, 0, 67, 14
1, 199900, Control_c, 0, 67, 14
1, 199959, Control_c, 0, 67, 14
1, 199974, Control_c, 0, 67, 15
1, 199977, Note_on_c, 0, 70, 69
1, 199987, Note_on_c, 0, 65, 56
1, 200003, Note_off_c, 0, 70, 68
1, 200011, Note_off_c, 0, 65, 65
1, 200063, Control_c, 0, 67, 14
1, 200078, Control_c, 0, 67, 14
1, 200092, Control_c, 0, 67, 13
1, 200107, Control_c, 0, 67, 13
1, 200122, Control_c, 0, 67, 12
1, 200123, Note_on_c, 0, 82, 87
1, 200137, Control_c, 0, 67, 12
1, 200277, Note_off_c, 0, 82, 63
1, 200288, Note_on_c, 0, 67, 62
1, 200288, Note_on_c, 0, 75, 83
1, 200295, Note_on_c, 0, 70, 58
1, 200315, Control_c, 0, 67, 12
1, 200324, Note_off_c, 0, 67, 62
1, 200328, Note_off_c, 0, 70, 66
1, 200350, Note_off_c, 0, 75, 65
1, 200352, Control_c, 0, 67, 13
1, 200412, Control_c, 0, 67, 13
1, 200427, Control_c, 0, 67, 14
1, 200442, Control_c, 0, 67, 14
1, 200455, Note_on_c, 0, 70, 76
1, 200457, Control_c, 0, 67, 15
1, 200465, Note_on_c, 0, 67, 66
1, 200483, Note_off_c, 0, 70, 63
1, 200486, Control_c, 0, 67, 15
1, 200495, Note_off_c, 0, 67, 65
1, 200515, Control_c, 0, 67, 16
1, 200590, Control_c, 0, 67, 16
1, 200605, Control_c, 0, 67, 17
1, 200613, Note_on_c, 0, 70, 78
1, 200618, Note_on_c, 0, 67, 64
1, 200620, Control_c, 0, 67, 18
1, 200634, Control_c, 0, 67, 18
1, 200638, Note_off_c, 0, 70, 66
1, 200647, Note_off_c, 0, 67, 64
1, 200708, Control_c, 0, 67, 18
1, 200738, Control_c, 0, 67, 17
1, 200753, Control_c, 0, 67, 17
1, 200768, Control_c, 0, 67, 16
1, 200770, Note_on_c, 0, 82, 88
1, 200782, Control_c, 0, 67, 15
1, 200797, Control_c, 0, 67, 15
1, 200812, Control_c, 0, 67, 14
1, 200827, Control_c, 0, 67, 13
1, 200841, Control_c, 0, 67, 12
1, 200856, Control_c, 0, 67, 12
1, 200886, Control_c, 0, 67, 11
1, 200930, Control_c, 0, 67, 12
1, 200933, Note_on_c, 0, 76, 80
1, 200937, Note_on_c, 0, 66, 66
1, 200938, Note_off_c, 0, 82, 52
1, 200939, Note_on_c, 0, 70, 64
1, 200967, Note_off_c, 0, 66, 67
1, 200968, Note_off_c, 0, 70, 67
1, 200968, Note_off_c, 0, 76, 67
1, 201004, Control_c, 0, 67, 12
1, 201034, Control_c, 0, 67, 13
1, 201064, Control_c, 0, 67, 13
1, 201085, Note_on_c, 0, 70, 74
1, 201086, Control_c, 0, 67, 14
1, 201093, Note_on_c, 0, 66, 69
1, 201101, Control_c, 0, 67, 15
1, 201113, Note_off_c, 0, 70, 65
1, 201115, Control_c, 0, 67, 15
1, 201121, Note_off_c, 0, 66, 69
1, 201130, Control_c, 0, 67, 16
1, 201145, Control_c, 0, 67, 16
1, 201191, Control_c, 0, 67, 17
1, 201220, Control_c, 0, 67, 17
1, 201235, Control_c, 0, 67, 18
1, 201250, Control_c, 0, 67, 18
1, 201253, Note_on_c, 0, 70, 69
1, 201257, Note_on_c, 0, 66, 60
1, 201264, Control_c, 0, 67, 19
1, 201278, Note_off_c, 0, 70, 69
1, 201285, Note_off_c, 0, 66, 68
1, 201294, Control_c, 0, 67, 19
1, 201309, Control_c, 0, 67, 20
1, 201353, Control_c, 0, 67, 19
1, 201368, Control_c, 0, 67, 19
1, 201398, Control_c, 0, 67, 18
1, 201412, Note_on_c, 0, 82, 80
1, 201428, Control_c, 0, 67, 17
1, 201433, Note_on_c, 0, 65, 48
1, 201434, Note_on_c, 0, 70, 48
1, 201442, Control_c, 0, 67, 17
1, 201457, Control_c, 0, 67, 16
1, 201472, Control_c, 0, 67, 16
1, 201487, Control_c, 0, 67, 15
1, 201502, Control_c, 0, 67, 15
1, 201517, Control_c, 0, 64, 65
1, 201517, Control_c, 0, 67, 14
1, 201531, Control_c, 0, 64, 71
1, 201531, Control_c, 0, 67, 13
1, 201546, Control_c, 0, 64, 77
1, 201546, Control_c, 0, 67, 12
1, 201561, Control_c, 0, 64, 81
1, 201561, Control_c, 0, 67, 12
1, 201571, Note_off_c, 0, 82, 62
1, 201572, Note_off_c, 0, 65, 65
1, 201574, Note_on_c, 0, 77, 85
1, 201576, Control_c, 0, 64, 83
1, 201576, Control_c, 0, 67, 11
1, 201585, Note_off_c, 0, 70, 56
1, 201620, Control_c, 0, 67, 11
1, 201621, Note_off_c, 0, 77, 62
1, 201635, Control_c, 0, 67, 10
1, 201664, Control_c, 0, 67, 10
1, 201725, Note_on_c, 0, 82, 94
1, 201738, Control_c, 0, 64, 81
1, 201738, Control_c, 0, 67, 9
1, 201741, Note_on_c, 0, 62, 70
1, 201745, Note_on_c, 0, 70, 72
1, 201753, Control_c, 0, 64, 74
1, 201753, Control_c, 0, 67, 8
1, 201768, Control_c, 0, 64, 65
1, 201768, Control_c, 0, 67, 0
1, 201783, Control_c, 0, 64, 0
1, 201812, Control_c, 0, 64, 56
1, 201835, Control_c, 0, 64, 66
1, 201850, Control_c, 0, 64, 72
1, 201864, Control_c, 0, 64, 78
1, 201879, Control_c, 0, 64, 82
1, 201884, Note_off_c, 0, 82, 60
1, 201894, Control_c, 0, 64, 84
1, 201899, Note_on_c, 0, 78, 98
1, 201901, Note_off_c, 0, 62, 59
1, 201901, Note_off_c, 0, 70, 58
1, 201909, Control_c, 0, 64, 84
1, 201979, Note_off_c, 0, 78, 54
1, 202029, Control_c, 0, 64, 84
1, 202043, Control_c, 0, 64, 80
1, 202058, Control_c, 0, 64, 73
1, 202060, Note_on_c, 0, 82, 101
1, 202066, Note_on_c, 0, 70, 76
1, 202071, Note_on_c, 0, 63, 70
1, 202073, Control_c, 0, 64, 62
1, 202087, Control_c, 0, 64, 30
1, 202102, Control_c, 0, 64, 54
1, 202117, Control_c, 0, 64, 65
1, 202132, Control_c, 0, 64, 71
1, 202147, Control_c, 0, 64, 78
1, 202161, Control_c, 0, 64, 82
1, 202176, Control_c, 0, 64, 84
1, 202185, Note_off_c, 0, 70, 62
1, 202191, Control_c, 0, 64, 84
1, 202200, Note_off_c, 0, 82, 63
1, 202217, Note_on_c, 0, 79, 95
1, 202223, Note_off_c, 0, 63, 54
1, 202274, Note_off_c, 0, 79, 62
1, 202325, Control_c, 0, 64, 84
1, 202340, Control_c, 0, 64, 81
1, 202354, Control_c, 0, 64, 74
1, 202369, Control_c, 0, 64, 59
1, 202372, Note_on_c, 0, 87, 102
1, 202381, Note_on_c, 0, 65, 72
1, 202384, Control_c, 0, 64, 0
1, 202393, Note_on_c, 0, 60, 58
1, 202428, Control_c, 0, 64, 55
1, 202433, Note_off_c, 0, 60, 62
1, 202443, Control_c, 0, 64, 66
1, 202458, Control_c, 0, 64, 70
1, 202473, Control_c, 0, 64, 73
1, 202487, Control_c, 0, 64, 74
1, 202500, Note_off_c, 0, 87, 62
1, 202533, Note_on_c, 0, 81, 82
1, 202551, Note_off_c, 0, 65, 40
1, 202561, Note_off_c, 0, 81, 61
1, 202628, Control_c, 0, 64, 74
1, 202643, Control_c, 0, 64, 72
1, 202658, Control_c, 0, 64, 64
1, 202673, Control_c, 0, 64, 0
1, 202681, Note_on_c, 0, 86, 73
1, 202685, Note_on_c, 0, 65, 56
1, 202693, Note_on_c, 0, 58, 53
1, 202706, Note_off_c, 0, 65, 62
1, 202707, Note_off_c, 0, 86, 62
1, 202715, Note_off_c, 0, 58, 60
1, 202731, Note_on_c, 0, 87, 68
1, 202756, Note_off_c, 0, 87, 68
1, 202780, Note_on_c, 0, 86, 70
1, 202811, Note_off_c, 0, 86, 62
1, 202825, Note_on_c, 0, 89, 76
1, 202845, Note_off_c, 0, 89, 72
1, 202987, Note_on_c, 0, 82, 63
1, 203005, Note_on_c, 0, 53, 36
1, 203008, Note_off_c, 0, 82, 66
1, 203010, Note_on_c, 0, 50, 41
1, 203020, Note_on_c, 0, 85, 58
1, 203038, Note_off_c, 0, 85, 39
1, 203058, Note_on_c, 0, 84, 43
1, 203073, Note_on_c, 0, 82, 85
1, 203088, Note_off_c, 0, 84, 34
1, 203091, Note_off_c, 0, 53, 61
1, 203115, Note_off_c, 0, 50, 53
1, 203125, Note_off_c, 0, 82, 65
1, 203129, Note_on_c, 0, 86, 82
1, 203148, Note_off_c, 0, 86, 72
1, 203292, Note_on_c, 0, 79, 69
1, 203303, Note_on_c, 0, 58, 49
1, 203312, Note_on_c, 0, 51, 44
1, 203318, Note_off_c, 0, 79, 65
1, 203349, Note_on_c, 0, 81, 63
1, 203380, Note_off_c, 0, 81, 64
1, 203394, Note_on_c, 0, 79, 69
1, 203408, Note_off_c, 0, 51, 58
1, 203429, Note_off_c, 0, 79, 58
1, 203439, Note_off_c, 0, 58, 63
1, 203442, Note_on_c, 0, 82, 81
1, 203461, Note_off_c, 0, 82, 71
1, 203621, Note_on_c, 0, 72, 65
1, 203632, Note_on_c, 0, 51, 29
1, 203639, Note_on_c, 0, 55, 43
1, 203641, Note_off_c, 0, 72, 64
1, 203670, Note_on_c, 0, 74, 62
1, 203697, Note_off_c, 0, 74, 70
1, 203709, Note_on_c, 0, 72, 75
1, 203744, Note_off_c, 0, 72, 57
1, 203768, Note_on_c, 0, 75, 78
1, 203792, Control_c, 0, 67, 8
1, 203806, Control_c, 0, 67, 9
1, 203821, Control_c, 0, 67, 10
1, 203836, Control_c, 0, 67, 14
1, 203851, Control_c, 0, 67, 17
1, 203866, Control_c, 0, 67, 18
1, 203896, Control_c, 0, 67, 18
1, 203909, Note_off_c, 0, 51, 39
1, 203911, Control_c, 0, 67, 17
1, 203925, Note_off_c, 0, 75, 63
1, 203925, Control_c, 0, 67, 17
1, 203937, Note_on_c, 0, 65, 77
1, 203940, Control_c, 0, 67, 16
1, 203955, Note_off_c, 0, 55, 36
1, 203996, Note_off_c, 0, 65, 63
1, 203999, Control_c, 0, 67, 16
1, 204012, Note_on_c, 0, 77, 79
1, 204043, Control_c, 0, 67, 16
1, 204101, Note_off_c, 0, 77, 61
1, 204102, Note_on_c, 0, 79, 79
1, 204173, Note_on_c, 0, 77, 75
1, 204184, Control_c, 0, 67, 16
1, 204187, Note_off_c, 0, 79, 56
1, 204214, Control_c, 0, 67, 15
1, 204244, Control_c, 0, 67, 15
1, 204259, Note_on_c, 0, 75, 78
1, 204265, Note_on_c, 0, 58, 70
1, 204265, Note_off_c, 0, 77, 61
1, 204288, Control_c, 0, 67, 14
1, 204290, Note_on_c, 0, 50, 54
1, 204303, Control_c, 0, 67, 14
1, 204315, Note_off_c, 0, 75, 67
1, 204318, Control_c, 0, 67, 13
1, 204332, Control_c, 0, 67, 13
1, 204333, Note_on_c, 0, 74, 73
1, 204347, Control_c, 0, 67, 12
1, 204363, Control_c, 0, 64, 42
1, 204363, Control_c, 0, 67, 12
1, 204378, Control_c, 0, 64, 62
1, 204382, Note_off_c, 0, 74, 62
1, 204393, Control_c, 0, 64, 65
1, 204408, Control_c, 0, 64, 66
1, 204410, Note_on_c, 0, 72, 69
1, 204423, Control_c, 0, 64, 67
1, 204437, Control_c, 0, 64, 67
1, 204452, Control_c, 0, 64, 68
1, 204462, Note_off_c, 0, 72, 61
1, 204467, Control_c, 0, 67, 13
1, 204471, Note_on_c, 0, 70, 73
1, 204481, Control_c, 0, 64, 68
1, 204496, Note_off_c, 0, 50, 61
1, 204498, Note_off_c, 0, 70, 68
1, 204511, Control_c, 0, 64, 68
1, 204526, Control_c, 0, 64, 67
1, 204526, Control_c, 0, 67, 13
1, 204541, Control_c, 0, 64, 66
1, 204541, Control_c, 0, 67, 14
1, 204550, Note_on_c, 0, 74, 71
1, 204555, Control_c, 0, 64, 65
1, 204570, Control_c, 0, 64, 63
1, 204570, Control_c, 0, 67, 14
1, 204581, Note_off_c, 0, 74, 62
1, 204585, Control_c, 0, 64, 59
1, 204585, Control_c, 0, 67, 15
1, 204599, Note_on_c, 0, 72, 72
1, 204600, Note_on_c, 0, 51, 49
1, 204600, Control_c, 0, 64, 43
1, 204615, Control_c, 0, 64, 0
1, 204644, Note_off_c, 0, 72, 62
1, 204652, Note_on_c, 0, 74, 69
1, 204659, Control_c, 0, 67, 15
1, 204680, Note_off_c, 0, 74, 63
1, 204703, Control_c, 0, 67, 16
1, 204704, Note_on_c, 0, 72, 69
1, 204733, Control_c, 0, 67, 16
1, 204745, Note_off_c, 0, 72, 64
1, 204753, Note_on_c, 0, 74, 74
1, 204762, Control_c, 0, 67, 17
1, 204777, Control_c, 0, 67, 17
1, 204782, Note_off_c, 0, 74, 59
1, 204802, Note_on_c, 0, 72, 71
1, 204806, Control_c, 0, 67, 18
1, 204829, Control_c, 0, 67, 18
1, 204849, Note_off_c, 0, 51, 61
1, 204853, Note_off_c, 0, 72, 65
1, 204863, Note_on_c, 0, 74, 70
1, 204873, Control_c, 0, 67, 19
1, 204883, Note_off_c, 0, 58, 64
1, 204885, Note_off_c, 0, 74, 68
1, 204903, Note_on_c, 0, 57, 53
1, 204905, Note_on_c, 0, 53, 52
1, 204910, Note_on_c, 0, 72, 66
1, 204918, Control_c, 0, 67, 20
1, 204933, Control_c, 0, 67, 22
1, 204941, Note_off_c, 0, 57, 50
1, 204947, Control_c, 0, 67, 27
1, 204955, Note_off_c, 0, 72, 61
1, 204962, Control_c, 0, 67, 33
1, 204977, Control_c, 0, 67, 37
1, 204982, Note_on_c, 0, 74, 18
1, 204992, Control_c, 0, 67, 39
1, 204998, Note_on_c, 0, 72, 55
1, 205022, Note_off_c, 0, 74, 34
1, 205048, Note_off_c, 0, 72, 65
1, 205055, Note_on_c, 0, 70, 64
1, 205066, Control_c, 0, 67, 40
1, 205067, Note_off_c, 0, 53, 37
1, 205094, Note_off_c, 0, 70, 58
1, 205095, Control_c, 0, 67, 41
1, 205110, Control_c, 0, 67, 43
1, 205118, Note_on_c, 0, 72, 52
1, 205125, Control_c, 0, 67, 45
1, 205140, Control_c, 0, 67, 46
1, 205150, Note_off_c, 0, 72, 60
1, 205171, Control_c, 0, 67, 46
1, 205210, Note_on_c, 0, 70, 59
1, 205225, Note_on_c, 0, 46, 39
1, 205230, Note_on_c, 0, 58, 48
1, 205233, Note_off_c, 0, 70, 65
1, 205244, Control_c, 0, 64, 63
1, 205255, Note_off_c, 0, 46, 55
1, 205255, Note_off_c, 0, 58, 58
1, 205259, Control_c, 0, 64, 70
1, 205259, Control_c, 0, 67, 46
1, 205274, Control_c, 0, 64, 76
1, 205274, Control_c, 0, 67, 47
1, 205289, Control_c, 0, 64, 81
1, 205303, Control_c, 0, 64, 82
1, 205303, Control_c, 0, 67, 47
1, 205318, Control_c, 0, 67, 48
1, 205333, Control_c, 0, 67, 48
1, 205348, Control_c, 0, 67, 50
1, 205363, Control_c, 0, 67, 51
1, 205377, Control_c, 0, 67, 53
1, 205392, Control_c, 0, 64, 81
1, 205392, Control_c, 0, 67, 54
1, 205397, Note_on_c, 0, 58, 54
1, 205407, Control_c, 0, 64, 80
1, 205407, Control_c, 0, 67, 54
1, 205422, Control_c, 0, 64, 79
1, 205437, Control_c, 0, 64, 77
1, 205442, Note_off_c, 0, 58, 60
1, 205452, Control_c, 0, 64, 75
1, 205452, Control_c, 0, 67, 53
1, 205467, Control_c, 0, 64, 72
1, 205467, Control_c, 0, 67, 52
1, 205468, Note_on_c, 0, 62, 64
1, 205482, Control_c, 0, 64, 67
1, 205482, Control_c, 0, 67, 52
1, 205496, Control_c, 0, 64, 58
1, 205496, Control_c, 0, 67, 51
1, 205511, Control_c, 0, 64, 0
1, 205511, Control_c, 0, 67, 51
1, 205515, Note_off_c, 0, 62, 55
1, 205526, Control_c, 0, 67, 50
1, 205541, Control_c, 0, 67, 50
1, 205558, Note_on_c, 0, 60, 64
1, 205559, Note_on_c, 0, 57, 51
1, 205578, Control_c, 0, 67, 49
1, 205593, Control_c, 0, 67, 49
1, 205601, Note_off_c, 0, 60, 58
1, 205643, Note_on_c, 0, 63, 60
1, 205684, Note_off_c, 0, 57, 53
1, 205692, Note_off_c, 0, 63, 56
1, 205707, Note_on_c, 0, 56, 53
1, 205711, Control_c, 0, 67, 49
1, 205714, Note_on_c, 0, 62, 59
1, 205749, Note_off_c, 0, 56, 61
1, 205756, Note_off_c, 0, 62, 60
1, 205771, Control_c, 0, 67, 50
1, 205780, Note_on_c, 0, 65, 63
1, 205801, Control_c, 0, 67, 50
1, 205815, Control_c, 0, 67, 51
1, 205816, Note_off_c, 0, 65, 62
1, 205845, Control_c, 0, 67, 51
1, 205860, Control_c, 0, 67, 52
1, 205875, Note_on_c, 0, 63, 61
1, 205888, Note_on_c, 0, 46, 45
1, 205888, Note_on_c, 0, 55, 42
1, 205890, Control_c, 0, 64, 55
1, 205890, Control_c, 0, 67, 53
1, 205904, Control_c, 0, 64, 66
1, 205914, Note_off_c, 0, 63, 63
1, 205914, Note_off_c, 0, 46, 50
1, 205916, Note_off_c, 0, 55, 52
1, 205919, Control_c, 0, 64, 71
1, 205919, Control_c, 0, 67, 51
1, 205934, Control_c, 0, 64, 75
1, 205934, Control_c, 0, 67, 49
1, 205950, Control_c, 0, 64, 77
1, 205950, Control_c, 0, 67, 49
1, 205979, Control_c, 0, 67, 50
1, 205994, Control_c, 0, 67, 51
1, 206009, Control_c, 0, 64, 76
1, 206009, Control_c, 0, 67, 51
1, 206024, Control_c, 0, 64, 76
1, 206024, Control_c, 0, 67, 52
1, 206039, Control_c, 0, 64, 75
1, 206039, Control_c, 0, 67, 53
1, 206053, Control_c, 0, 64, 74
1, 206056, Note_on_c, 0, 58, 61
1, 206068, Control_c, 0, 64, 73
1, 206083, Control_c, 0, 64, 71
1, 206095, Note_off_c, 0, 58, 59
1, 206098, Control_c, 0, 64, 69
1, 206113, Control_c, 0, 64, 68
1, 206113, Control_c, 0, 67, 52
1, 206125, Note_on_c, 0, 62, 62
1, 206127, Control_c, 0, 64, 67
1, 206142, Control_c, 0, 64, 66
1, 206142, Control_c, 0, 67, 51
1, 206157, Control_c, 0, 64, 66
1, 206172, Control_c, 0, 64, 65
1, 206172, Control_c, 0, 67, 51
1, 206185, Note_off_c, 0, 62, 60
1, 206187, Control_c, 0, 64, 64
1, 206187, Control_c, 0, 67, 50
1, 206201, Control_c, 0, 64, 61
1, 206201, Control_c, 0, 67, 49
1, 206208, Note_on_c, 0, 60, 77
1, 206216, Control_c, 0, 64, 34
1, 206216, Control_c, 0, 67, 49
1, 206223, Note_on_c, 0, 57, 59
1, 206231, Control_c, 0, 64, 0
1, 206231, Control_c, 0, 67, 48
1, 206245, Control_c, 0, 67, 47
1, 206264, Note_off_c, 0, 60, 60
1, 206292, Note_on_c, 0, 63, 63
1, 206327, Control_c, 0, 67, 48
1, 206372, Control_c, 0, 67, 48
1, 206374, Note_off_c, 0, 57, 58
1, 206375, Note_on_c, 0, 62, 70
1, 206379, Note_off_c, 0, 63, 63
1, 206385, Note_on_c, 0, 56, 60
1, 206387, Control_c, 0, 67, 49
1, 206427, Note_off_c, 0, 56, 58
1, 206437, Note_off_c, 0, 62, 59
1, 206446, Control_c, 0, 67, 49
1, 206451, Note_on_c, 0, 65, 65
1, 206483, Note_off_c, 0, 65, 66
1, 206520, Control_c, 0, 67, 50
1, 206534, Control_c, 0, 67, 51
1, 206536, Note_on_c, 0, 63, 78
1, 206539, Note_on_c, 0, 46, 63
1, 206542, Note_on_c, 0, 55, 60
1, 206549, Control_c, 0, 64, 45
1, 206564, Control_c, 0, 64, 61
1, 206564, Control_c, 0, 67, 52
1, 206567, Note_off_c, 0, 46, 63
1, 206570, Note_off_c, 0, 63, 64
1, 206570, Note_off_c, 0, 55, 65
1, 206579, Control_c, 0, 64, 65
1, 206579, Control_c, 0, 67, 52
1, 206593, Control_c, 0, 64, 68
1, 206593, Control_c, 0, 67, 53
1, 206608, Control_c, 0, 64, 71
1, 206608, Control_c, 0, 67, 53
1, 206623, Control_c, 0, 64, 73
1, 206638, Control_c, 0, 64, 73
1, 206683, Control_c, 0, 64, 73
1, 206698, Control_c, 0, 64, 72
1, 206698, Control_c, 0, 67, 54
1, 206710, Note_on_c, 0, 58, 69
1, 206713, Control_c, 0, 64, 72
1, 206713, Control_c, 0, 67, 54
1, 206727, Control_c, 0, 64, 71
1, 206742, Control_c, 0, 64, 71
1, 206742, Control_c, 0, 67, 54
1, 206748, Note_off_c, 0, 58, 60
1, 206757, Control_c, 0, 64, 70
1, 206757, Control_c, 0, 67, 53
1, 206772, Control_c, 0, 64, 69
1, 206772, Control_c, 0, 67, 52
1, 206779, Note_on_c, 0, 62, 72
1, 206787, Control_c, 0, 64, 69
1, 206787, Control_c, 0, 67, 51
1, 206802, Control_c, 0, 64, 68
1, 206802, Control_c, 0, 67, 51
1, 206817, Control_c, 0, 67, 49
1, 206832, Control_c, 0, 64, 67
1, 206832, Control_c, 0, 67, 48
1, 206840, Note_off_c, 0, 62, 62
1, 206847, Control_c, 0, 64, 63
1, 206847, Control_c, 0, 67, 47
1, 206862, Control_c, 0, 64, 0
1, 206862, Control_c, 0, 67, 46
1, 206868, Note_on_c, 0, 57, 67
1, 206872, Note_on_c, 0, 60, 75
1, 206876, Control_c, 0, 67, 46
1, 206891, Control_c, 0, 67, 45
1, 206906, Control_c, 0, 67, 45
1, 206927, Note_off_c, 0, 60, 58
1, 206936, Control_c, 0, 67, 45
1, 206948, Note_on_c, 0, 63, 68
1, 206950, Control_c, 0, 67, 46
1, 206994, Control_c, 0, 67, 46
1, 207026, Note_off_c, 0, 57, 57
1, 207027, Note_on_c, 0, 56, 62
1, 207032, Note_on_c, 0, 62, 74
1, 207032, Note_off_c, 0, 63, 63
1, 207054, Control_c, 0, 67, 47
1, 207076, Control_c, 0, 67, 47
1, 207099, Note_off_c, 0, 62, 58
1, 207106, Note_on_c, 0, 65, 75
1, 207150, Control_c, 0, 67, 47
1, 207165, Control_c, 0, 67, 46
1, 207170, Note_off_c, 0, 56, 63
1, 207186, Note_on_c, 0, 63, 80
1, 207186, Note_off_c, 0, 65, 61
1, 207194, Note_on_c, 0, 55, 75
1, 207220, Note_off_c, 0, 55, 67
1, 207253, Note_off_c, 0, 63, 64
1, 207254, Control_c, 0, 67, 46
1, 207264, Note_on_c, 0, 67, 76
1, 207269, Control_c, 0, 67, 45
1, 207283, Control_c, 0, 67, 44
1, 207300, Note_off_c, 0, 67, 59
1, 207341, Note_on_c, 0, 65, 77
1, 207343, Control_c, 0, 67, 45
1, 207350, Note_on_c, 0, 50, 72
1, 207357, Control_c, 0, 67, 45
1, 207380, Note_off_c, 0, 50, 64
1, 207392, Note_off_c, 0, 65, 63
1, 207422, Note_on_c, 0, 68, 75
1, 207446, Control_c, 0, 67, 46
1, 207461, Control_c, 0, 67, 46
1, 207476, Control_c, 0, 67, 47
1, 207488, Note_off_c, 0, 68, 62
1, 207491, Control_c, 0, 67, 48
1, 207503, Note_on_c, 0, 67, 76
1, 207503, Note_on_c, 0, 51, 75
1, 207506, Control_c, 0, 67, 49
1, 207521, Control_c, 0, 67, 50
1, 207533, Note_off_c, 0, 51, 66
1, 207535, Control_c, 0, 67, 51
1, 207549, Note_off_c, 0, 67, 61
1, 207551, Control_c, 0, 67, 51
1, 207566, Control_c, 0, 67, 52
1, 207576, Note_on_c, 0, 70, 75
1, 207625, Control_c, 0, 67, 52
1, 207655, Control_c, 0, 67, 53
1, 207659, Note_off_c, 0, 70, 60
1, 207664, Note_on_c, 0, 69, 73
1, 207668, Note_on_c, 0, 48, 66
1, 207684, Control_c, 0, 67, 52
1, 207696, Note_off_c, 0, 48, 66
1, 207716, Note_off_c, 0, 69, 60
1, 207729, Control_c, 0, 67, 52
1, 207738, Note_on_c, 0, 72, 73
1, 207744, Control_c, 0, 67, 51
1, 207759, Control_c, 0, 67, 51
1, 207788, Control_c, 0, 67, 50
1, 207803, Control_c, 0, 67, 49
1, 207812, Note_off_c, 0, 72, 62
1, 207825, Control_c, 0, 67, 49
1, 207836, Note_on_c, 0, 70, 73
1, 207839, Control_c, 0, 67, 48
1, 207852, Note_on_c, 0, 50, 52
1, 207854, Control_c, 0, 67, 47
1, 207869, Control_c, 0, 67, 47
1, 207884, Control_c, 0, 67, 46
1, 207893, Note_off_c, 0, 70, 63
1, 207899, Control_c, 0, 67, 45
1, 207914, Control_c, 0, 67, 45
1, 207923, Note_on_c, 0, 72, 77
1, 207929, Control_c, 0, 67, 44
1, 207944, Control_c, 0, 67, 43
1, 207959, Control_c, 0, 67, 43
1, 207988, Control_c, 0, 67, 42
1, 207990, Note_off_c, 0, 72, 64
1, 207994, Note_on_c, 0, 74, 73
1, 208003, Control_c, 0, 67, 42
1, 208032, Control_c, 0, 67, 41
1, 208062, Control_c, 0, 67, 40
1, 208063, Note_on_c, 0, 72, 76
1, 208077, Control_c, 0, 67, 38
1, 208084, Note_off_c, 0, 74, 60
1, 208092, Control_c, 0, 67, 36
1, 208106, Control_c, 0, 67, 34
1, 208121, Control_c, 0, 67, 32
1, 208136, Control_c, 0, 67, 30
1, 208138, Note_on_c, 0, 70, 84
1, 208138, Note_off_c, 0, 72, 62
1, 208151, Control_c, 0, 67, 30
1, 208166, Control_c, 0, 67, 30
1, 208195, Control_c, 0, 67, 31
1, 208200, Note_off_c, 0, 70, 65
1, 208210, Control_c, 0, 67, 31
1, 208214, Note_on_c, 0, 68, 80
1, 208254, Control_c, 0, 67, 32
1, 208269, Control_c, 0, 67, 32
1, 208284, Note_off_c, 0, 68, 62
1, 208284, Control_c, 0, 67, 33
1, 208293, Note_on_c, 0, 67, 79
1, 208328, Control_c, 0, 67, 34
1, 208342, Note_off_c, 0, 67, 62
1, 208376, Note_on_c, 0, 66, 80
1, 208403, Control_c, 0, 67, 33
1, 208427, Note_off_c, 0, 50, 44
1, 208433, Control_c, 0, 67, 33
1, 208437, Note_off_c, 0, 66, 65
1, 208448, Control_c, 0, 67, 32
1, 208450, Note_on_c, 0, 67, 85
1, 208458, Note_on_c, 0, 51, 57
1, 208501, Note_off_c, 0, 67, 61
1, 208507, Control_c, 0, 67, 32
1, 208530, Note_on_c, 0, 72, 81
1, 208552, Control_c, 0, 67, 32
1, 208603, Control_c, 0, 67, 33
1, 208611, Note_on_c, 0, 75, 84
1, 208612, Note_off_c, 0, 72, 63
1, 208618, Control_c, 0, 67, 33
1, 208647, Control_c, 0, 67, 34
1, 208677, Control_c, 0, 67, 34
1, 208689, Note_on_c, 0, 74, 80
1, 208692, Control_c, 0, 67, 35
1, 208698, Note_off_c, 0, 75, 62
1, 208707, Control_c, 0, 67, 35
1, 208737, Control_c, 0, 67, 36
1, 208743, Note_off_c, 0, 74, 65
1, 208770, Note_on_c, 0, 72, 80
1, 208781, Control_c, 0, 67, 36
1, 208795, Note_off_c, 0, 51, 61
1, 208796, Control_c, 0, 67, 37
1, 208808, Note_off_c, 0, 72, 64
1, 208826, Control_c, 0, 67, 37
1, 208845, Note_on_c, 0, 70, 80
1, 208885, Control_c, 0, 67, 37
1, 208906, Note_off_c, 0, 70, 65
1, 208915, Control_c, 0, 67, 36
1, 208916, Note_on_c, 0, 69, 83
1, 208929, Control_c, 0, 67, 35
1, 208944, Control_c, 0, 67, 34
1, 208959, Note_off_c, 0, 69, 65
1, 208959, Control_c, 0, 67, 34
1, 208973, Control_c, 0, 67, 33
1, 208987, Note_on_c, 0, 67, 83
1, 208988, Control_c, 0, 67, 33
1, 209003, Control_c, 0, 67, 32
1, 209018, Control_c, 0, 67, 31
1, 209047, Control_c, 0, 67, 30
1, 209060, Note_off_c, 0, 67, 38
1, 209065, Note_on_c, 0, 65, 81
1, 209077, Control_c, 0, 67, 30
1, 209082, Note_on_c, 0, 53, 52
1, 209107, Control_c, 0, 67, 29
1, 209136, Note_off_c, 0, 65, 57
1, 209160, Note_on_c, 0, 71, 62
1, 209167, Control_c, 0, 67, 30
1, 209179, Note_off_c, 0, 71, 63
1, 209197, Control_c, 0, 67, 30
1, 209205, Note_off_c, 0, 53, 58
1, 209212, Control_c, 0, 67, 32
1, 209222, Note_on_c, 0, 74, 79
1, 209226, Control_c, 0, 67, 33
1, 209241, Control_c, 0, 67, 34
1, 209249, Note_on_c, 0, 58, 48
1, 209270, Control_c, 0, 67, 34
1, 209279, Note_off_c, 0, 74, 60
1, 209285, Control_c, 0, 67, 35
1, 209301, Note_on_c, 0, 77, 80
1, 209338, Control_c, 0, 67, 35
1, 209352, Control_c, 0, 67, 36
1, 209367, Control_c, 0, 67, 36
1, 209382, Note_on_c, 0, 82, 85
1, 209382, Control_c, 0, 67, 37
1, 209388, Note_off_c, 0, 77, 61
1, 209396, Control_c, 0, 67, 38
1, 209410, Note_on_c, 0, 62, 59
1, 209410, Note_off_c, 0, 82, 63
1, 209411, Note_off_c, 0, 58, 63
1, 209411, Control_c, 0, 67, 40
1, 209426, Control_c, 0, 64, 40
1, 209426, Control_c, 0, 67, 41
1, 209441, Control_c, 0, 64, 60
1, 209441, Control_c, 0, 67, 42
1, 209456, Control_c, 0, 64, 61
1, 209456, Control_c, 0, 67, 43
1, 209470, Control_c, 0, 64, 60
1, 209485, Control_c, 0, 64, 54
1, 209500, Control_c, 0, 64, 34
1, 209515, Control_c, 0, 64, 0
1, 209515, Control_c, 0, 67, 44
1, 209545, Control_c, 0, 67, 44
1, 209546, Note_on_c, 0, 74, 81
1, 209547, Note_off_c, 0, 62, 53
1, 209555, Note_on_c, 0, 58, 59
1, 209556, Note_on_c, 0, 70, 59
1, 209574, Control_c, 0, 67, 45
1, 209576, Note_off_c, 0, 70, 60
1, 209581, Note_off_c, 0, 74, 65
1, 209589, Control_c, 0, 67, 44
1, 209604, Control_c, 0, 67, 44
1, 209634, Control_c, 0, 67, 43
1, 209664, Control_c, 0, 67, 42
1, 209678, Control_c, 0, 67, 42
1, 209693, Control_c, 0, 67, 41
1, 209721, Note_on_c, 0, 77, 80
1, 209723, Control_c, 0, 67, 41
1, 209728, Note_off_c, 0, 58, 58
1, 209735, Note_on_c, 0, 74, 61
1, 209738, Control_c, 0, 67, 40
1, 209741, Note_on_c, 0, 53, 49
1, 209767, Control_c, 0, 67, 40
1, 209782, Control_c, 0, 67, 39
1, 209811, Control_c, 0, 67, 39
1, 209826, Control_c, 0, 67, 38
1, 209856, Control_c, 0, 67, 38
1, 209870, Control_c, 0, 67, 37
1, 209878, Note_off_c, 0, 74, 63
1, 209881, Note_on_c, 0, 75, 72
1, 209882, Note_off_c, 0, 53, 63
1, 209886, Note_on_c, 0, 72, 63
1, 209891, Note_off_c, 0, 77, 62
1, 209900, Control_c, 0, 67, 37
1, 209910, Note_on_c, 0, 60, 58
1, 209910, Note_off_c, 0, 75, 66
1, 209914, Note_off_c, 0, 72, 69
1, 209961, Control_c, 0, 67, 36
1, 209990, Control_c, 0, 67, 36
1, 210005, Control_c, 0, 67, 35
1, 210019, Control_c, 0, 67, 35
1, 210044, Note_off_c, 0, 60, 58
1, 210048, Note_on_c, 0, 74, 66
1, 210069, Note_on_c, 0, 70, 54
1, 210082, Note_on_c, 0, 63, 42
1, 210087, Note_off_c, 0, 74, 63
1, 210090, Note_off_c, 0, 70, 60
1, 210161, Control_c, 0, 67, 35
1, 210182, Note_off_c, 0, 63, 48
1, 210190, Control_c, 0, 67, 36
1, 210220, Note_on_c, 0, 72, 66
1, 210229, Note_on_c, 0, 69, 50
1, 210243, Note_on_c, 0, 60, 30
1, 210249, Note_off_c, 0, 72, 66
1, 210251, Note_off_c, 0, 69, 59
1, 210277, Note_off_c, 0, 60, 50
1, 210323, Control_c, 0, 67, 36
1, 210338, Control_c, 0, 67, 37
1, 210353, Control_c, 0, 67, 37
1, 210367, Control_c, 0, 67, 38
1, 210382, Control_c, 0, 67, 39
1, 210385, Note_on_c, 0, 58, 44
1, 210388, Note_on_c, 0, 70, 66
1, 210397, Control_c, 0, 67, 40
1, 210406, Note_on_c, 0, 62, 32
1, 210412, Control_c, 0, 64, 61
1, 210412, Control_c, 0, 67, 41
1, 210416, Note_off_c, 0, 70, 65
1, 210425, Note_off_c, 0, 58, 65
1, 210427, Control_c, 0, 64, 67
1, 210427, Control_c, 0, 67, 42
1, 210434, Note_off_c, 0, 62, 52
1, 210442, Control_c, 0, 64, 71
1, 210442, Control_c, 0, 67, 43
1, 210457, Control_c, 0, 64, 74
1, 210457, Control_c, 0, 67, 43
1, 210472, Control_c, 0, 64, 75
1, 210472, Control_c, 0, 67, 44
1, 210501, Control_c, 0, 67, 44
1, 210516, Control_c, 0, 67, 45
1, 210546, Control_c, 0, 64, 75
1, 210561, Control_c, 0, 64, 74
1, 210564, Note_on_c, 0, 70, 65
1, 210575, Control_c, 0, 64, 73
1, 210575, Control_c, 0, 67, 44
1, 210590, Control_c, 0, 64, 72
1, 210591, Note_off_c, 0, 70, 66
1, 210605, Control_c, 0, 64, 72
1, 210605, Control_c, 0, 67, 44
1, 210619, Control_c, 0, 64, 71
1, 210619, Control_c, 0, 67, 43
1, 210627, Note_on_c, 0, 74, 71
1, 210634, Control_c, 0, 64, 71
1, 210634, Control_c, 0, 67, 42
1, 210649, Control_c, 0, 64, 70
1, 210649, Control_c, 0, 67, 41
1, 210664, Control_c, 0, 64, 69
1, 210664, Control_c, 0, 67, 40
1, 210679, Control_c, 0, 64, 67
1, 210679, Control_c, 0, 67, 40
1, 210685, Note_off_c, 0, 74, 66
1, 210693, Control_c, 0, 64, 66
1, 210693, Control_c, 0, 67, 39
1, 210708, Control_c, 0, 64, 64
1, 210708, Control_c, 0, 67, 38
1, 210715, Note_on_c, 0, 69, 60
1, 210716, Note_on_c, 0, 72, 73
1, 210723, Control_c, 0, 64, 61
1, 210739, Control_c, 0, 64, 36
1, 210739, Control_c, 0, 67, 38
1, 210754, Control_c, 0, 64, 0
1, 210754, Control_c, 0, 67, 37
1, 210764, Note_off_c, 0, 72, 62
1, 210797, Note_on_c, 0, 75, 67
1, 210854, Note_off_c, 0, 75, 58
1, 210861, Note_off_c, 0, 69, 57
1, 210880, Note_on_c, 0, 68, 59
1, 210880, Note_on_c, 0, 74, 70
1, 210917, Note_off_c, 0, 68, 64
1, 210936, Note_off_c, 0, 74, 59
1, 210949, Note_on_c, 0, 77, 70
1, 210983, Note_off_c, 0, 77, 56
1, 211028, Control_c, 0, 67, 38
1, 211035, Note_on_c, 0, 75, 72
1, 211042, Control_c, 0, 67, 39
1, 211046, Note_on_c, 0, 58, 51
1, 211050, Note_on_c, 0, 67, 51
1, 211057, Control_c, 0, 64, 51
1, 211060, Note_off_c, 0, 75, 69
1, 211072, Control_c, 0, 64, 64
1, 211072, Control_c, 0, 67, 40
1, 211076, Note_off_c, 0, 67, 58
1, 211077, Note_off_c, 0, 58, 54
1, 211087, Control_c, 0, 64, 68
1, 211087, Control_c, 0, 67, 41
1, 211102, Control_c, 0, 64, 71
1, 211116, Control_c, 0, 64, 74
1, 211131, Control_c, 0, 64, 75
1, 211131, Control_c, 0, 67, 42
1, 211161, Control_c, 0, 67, 42
1, 211191, Note_on_c, 0, 70, 75
1, 211193, Note_on_c, 0, 82, 83
1, 211220, Control_c, 0, 64, 74
1, 211235, Control_c, 0, 64, 73
1, 211250, Control_c, 0, 64, 71
1, 211250, Control_c, 0, 67, 42
1, 211262, Note_off_c, 0, 82, 61
1, 211265, Control_c, 0, 64, 68
1, 211266, Note_on_c, 0, 86, 84
1, 211279, Control_c, 0, 64, 66
1, 211294, Control_c, 0, 64, 64
1, 211309, Control_c, 0, 64, 63
1, 211309, Control_c, 0, 67, 42
1, 211324, Control_c, 0, 64, 62
1, 211324, Control_c, 0, 67, 43
1, 211333, Note_off_c, 0, 86, 59
1, 211339, Control_c, 0, 64, 59
1, 211352, Note_off_c, 0, 70, 60
1, 211354, Note_on_c, 0, 69, 62
1, 211354, Control_c, 0, 64, 48
1, 211356, Note_on_c, 0, 84, 78
1, 211368, Control_c, 0, 64, 0
1, 211383, Control_c, 0, 67, 43
1, 211400, Note_off_c, 0, 84, 63
1, 211428, Note_on_c, 0, 87, 79
1, 211457, Control_c, 0, 67, 43
1, 211498, Note_off_c, 0, 87, 61
1, 211500, Note_off_c, 0, 69, 52
1, 211510, Note_on_c, 0, 86, 75
1, 211527, Note_on_c, 0, 68, 55
1, 211553, Note_off_c, 0, 68, 60
1, 211571, Note_off_c, 0, 86, 60
1, 211584, Control_c, 0, 67, 43
1, 211589, Note_on_c, 0, 89, 70
1, 211622, Note_off_c, 0, 89, 61
1, 211628, Control_c, 0, 67, 43
1, 211673, Control_c, 0, 67, 43
1, 211676, Note_on_c, 0, 87, 79
1, 211688, Control_c, 0, 64, 22
1, 211688, Control_c, 0, 67, 44
1, 211696, Note_on_c, 0, 67, 51
1, 211697, Note_off_c, 0, 87, 70
1, 211700, Note_on_c, 0, 58, 52
1, 211703, Control_c, 0, 64, 65
1, 211703, Control_c, 0, 67, 44
1, 211718, Control_c, 0, 64, 72
1, 211727, Note_off_c, 0, 58, 64
1, 211730, Note_off_c, 0, 67, 64
1, 211733, Control_c, 0, 64, 79
1, 211733, Control_c, 0, 67, 45
1, 211747, Control_c, 0, 64, 85
1, 211747, Control_c, 0, 67, 45
1, 211762, Control_c, 0, 64, 86
1, 211762, Control_c, 0, 67, 47
1, 211777, Control_c, 0, 67, 49
1, 211791, Control_c, 0, 67, 54
1, 211806, Control_c, 0, 67, 56
1, 211821, Control_c, 0, 67, 57
1, 211836, Control_c, 0, 67, 58
1, 211844, Note_on_c, 0, 70, 74
1, 211851, Control_c, 0, 67, 60
1, 211865, Control_c, 0, 64, 86
1, 211865, Control_c, 0, 67, 62
1, 211880, Control_c, 0, 64, 85
1, 211880, Control_c, 0, 67, 62
1, 211895, Control_c, 0, 64, 84
1, 211895, Control_c, 0, 67, 62
1, 211896, Note_off_c, 0, 70, 53
1, 211910, Control_c, 0, 64, 83
1, 211910, Control_c, 0, 67, 61
1, 211920, Note_on_c, 0, 74, 73
1, 211925, Control_c, 0, 64, 82
1, 211925, Control_c, 0, 67, 60
1, 211939, Control_c, 0, 64, 81
1, 211939, Control_c, 0, 67, 59
1, 211954, Control_c, 0, 64, 80
1, 211954, Control_c, 0, 67, 58
1, 211969, Control_c, 0, 67, 57
1, 211977, Note_off_c, 0, 74, 64
1, 211984, Control_c, 0, 64, 80
1, 211984, Control_c, 0, 67, 56
1, 211995, Note_on_c, 0, 69, 75
1, 211998, Control_c, 0, 64, 78
1, 211998, Control_c, 0, 67, 55
1, 212006, Note_on_c, 0, 72, 80
1, 212013, Control_c, 0, 64, 75
1, 212013, Control_c, 0, 67, 54
1, 212028, Control_c, 0, 64, 67
1, 212028, Control_c, 0, 67, 52
1, 212043, Control_c, 0, 64, 0
1, 212043, Control_c, 0, 67, 51
1, 212058, Control_c, 0, 67, 49
1, 212059, Note_off_c, 0, 72, 63
1, 212072, Note_on_c, 0, 75, 73
1, 212072, Control_c, 0, 67, 48
1, 212087, Control_c, 0, 67, 46
1, 212102, Control_c, 0, 67, 45
1, 212117, Control_c, 0, 67, 45
1, 212132, Control_c, 0, 67, 45
1, 212153, Note_on_c, 0, 68, 72
1, 212155, Note_off_c, 0, 69, 62
1, 212157, Note_on_c, 0, 74, 75
1, 212162, Note_off_c, 0, 75, 64
1, 212192, Control_c, 0, 67, 46
1, 212224, Note_off_c, 0, 74, 63
1, 212225, Note_on_c, 0, 77, 83
1, 212266, Control_c, 0, 67, 46
1, 212281, Control_c, 0, 67, 45
1, 212293, Note_off_c, 0, 68, 63
1, 212306, Note_on_c, 0, 75, 81
1, 212307, Note_off_c, 0, 77, 52
1, 212318, Control_c, 0, 67, 45
1, 212320, Note_on_c, 0, 67, 79
1, 212333, Control_c, 0, 67, 44
1, 212344, Note_off_c, 0, 67, 66
1, 212372, Note_off_c, 0, 75, 65
1, 212390, Note_on_c, 0, 70, 77
1, 212393, Control_c, 0, 67, 44
1, 212408, Control_c, 0, 67, 43
1, 212422, Control_c, 0, 67, 39
1, 212436, Note_off_c, 0, 70, 60
1, 212437, Control_c, 0, 67, 34
1, 212452, Control_c, 0, 67, 25
1, 212467, Control_c, 0, 67, 16
1, 212475, Note_on_c, 0, 77, 72
1, 212478, Note_on_c, 0, 62, 78
1, 212482, Control_c, 0, 67, 9
1, 212487, Note_on_c, 0, 76, 64
1, 212496, Control_c, 0, 67, 0
1, 212511, Note_off_c, 0, 76, 57
1, 212513, Note_off_c, 0, 62, 64
1, 212523, Note_off_c, 0, 77, 58
1, 212544, Note_on_c, 0, 70, 84
1, 212598, Note_off_c, 0, 70, 61
1, 212634, Note_on_c, 0, 79, 88
1, 212638, Note_on_c, 0, 63, 73
1, 212669, Note_off_c, 0, 63, 64
1, 212685, Note_off_c, 0, 79, 60
1, 212706, Note_on_c, 0, 70, 84
1, 212768, Note_off_c, 0, 70, 61
1, 212793, Note_on_c, 0, 60, 65
1, 212799, Note_on_c, 0, 81, 70
1, 212801, Note_on_c, 0, 83, 76
1, 212822, Note_off_c, 0, 60, 64
1, 212829, Note_off_c, 0, 83, 54
1, 212841, Note_off_c, 0, 81, 59
1, 212860, Note_on_c, 0, 70, 87
1, 212923, Note_off_c, 0, 70, 61
1, 212951, Note_on_c, 0, 82, 80
1, 212954, Note_on_c, 0, 62, 66
1, 212964, Note_on_c, 0, 50, 62
1, 213005, Note_off_c, 0, 82, 68
1, 213031, Note_on_c, 0, 84, 70
1, 213124, Note_off_c, 0, 84, 65
1, 213125, Note_on_c, 0, 86, 73
1, 213185, Note_on_c, 0, 84, 74
1, 213205, Note_off_c, 0, 86, 60
1, 213267, Note_on_c, 0, 82, 86
1, 213277, Note_off_c, 0, 84, 63
1, 213320, Note_off_c, 0, 62, 54
1, 213339, Note_off_c, 0, 82, 66
1, 213347, Note_on_c, 0, 80, 81
1, 213407, Note_off_c, 0, 80, 63
1, 213425, Note_on_c, 0, 79, 77
1, 213485, Note_off_c, 0, 79, 49
1, 213498, Note_on_c, 0, 78, 80
1, 213554, Note_off_c, 0, 50, 29
1, 213559, Note_off_c, 0, 78, 60
1, 213578, Note_on_c, 0, 79, 82
1, 213587, Note_on_c, 0, 51, 51
1, 213588, Note_on_c, 0, 63, 54
1, 213650, Note_off_c, 0, 79, 60
1, 213651, Note_on_c, 0, 77, 78
1, 213724, Note_off_c, 0, 77, 57
1, 213734, Note_on_c, 0, 75, 76
1, 213789, Note_off_c, 0, 75, 64
1, 213819, Note_on_c, 0, 74, 72
1, 213863, Note_off_c, 0, 74, 65
1, 213901, Note_on_c, 0, 72, 73
1, 213909, Note_off_c, 0, 51, 60
1, 213915, Note_off_c, 0, 63, 62
1, 213933, Note_off_c, 0, 72, 63
1, 213969, Note_on_c, 0, 70, 70
1, 213999, Note_off_c, 0, 70, 62
1, 214043, Note_on_c, 0, 69, 75
1, 214082, Note_off_c, 0, 69, 55
1, 214125, Note_on_c, 0, 67, 68
1, 214164, Note_off_c, 0, 67, 58
1, 214218, Note_on_c, 0, 65, 62
1, 214225, Note_on_c, 0, 53, 38
1, 214236, Note_off_c, 0, 65, 65
1, 214245, Control_c, 0, 64, 55
1, 214256, Note_off_c, 0, 53, 59
1, 214260, Control_c, 0, 64, 64
1, 214275, Control_c, 0, 64, 67
1, 214290, Control_c, 0, 64, 71
1, 214295, Note_on_c, 0, 62, 50
1, 214305, Control_c, 0, 64, 73
1, 214320, Control_c, 0, 64, 73
1, 214343, Note_off_c, 0, 62, 56
1, 214349, Control_c, 0, 64, 73
1, 214364, Control_c, 0, 64, 72
1, 214375, Note_on_c, 0, 86, 80
1, 214379, Control_c, 0, 64, 71
1, 214385, Note_on_c, 0, 58, 47
1, 214398, Note_off_c, 0, 86, 66
1, 214424, Note_off_c, 0, 58, 65
1, 214452, Note_on_c, 0, 62, 58
1, 214482, Control_c, 0, 64, 70
1, 214490, Note_off_c, 0, 62, 60
1, 214497, Control_c, 0, 64, 68
1, 214512, Control_c, 0, 64, 60
1, 214527, Control_c, 0, 64, 0
1, 214535, Note_on_c, 0, 86, 88
1, 214547, Note_on_c, 0, 53, 52
1, 214567, Note_off_c, 0, 86, 65
1, 214588, Note_off_c, 0, 53, 66
1, 214613, Note_on_c, 0, 62, 61
1, 214681, Note_off_c, 0, 62, 49
1, 214704, Note_on_c, 0, 86, 84
1, 214713, Note_on_c, 0, 58, 51
1, 214724, Note_off_c, 0, 86, 70
1, 214751, Note_off_c, 0, 58, 66
1, 214779, Note_on_c, 0, 62, 62
1, 214816, Note_off_c, 0, 62, 60
1, 214860, Note_on_c, 0, 86, 85
1, 214864, Note_on_c, 0, 53, 58
1, 214906, Note_off_c, 0, 53, 63
1, 214936, Note_on_c, 0, 82, 83
1, 214938, Note_on_c, 0, 62, 62
1, 214940, Note_off_c, 0, 86, 63
1, 214977, Note_off_c, 0, 62, 60
1, 215009, Note_off_c, 0, 82, 63
1, 215012, Note_on_c, 0, 77, 81
1, 215018, Note_on_c, 0, 58, 57
1, 215058, Note_off_c, 0, 58, 65
1, 215064, Note_off_c, 0, 77, 61
1, 215086, Note_on_c, 0, 74, 77
1, 215095, Note_on_c, 0, 62, 58
1, 215133, Note_off_c, 0, 62, 60
1, 215140, Note_off_c, 0, 74, 61
1, 215158, Note_on_c, 0, 82, 93
1, 215172, Note_on_c, 0, 53, 63
1, 215212, Note_off_c, 0, 53, 61
1, 215237, Note_on_c, 0, 62, 61
1, 215238, Note_on_c, 0, 77, 85
1, 215241, Note_off_c, 0, 82, 62
1, 215278, Note_off_c, 0, 62, 62
1, 215282, Note_off_c, 0, 77, 61
1, 215306, Note_on_c, 0, 74, 79
1, 215330, Note_on_c, 0, 58, 60
1, 215366, Note_off_c, 0, 58, 65
1, 215382, Note_off_c, 0, 74, 62
1, 215387, Note_on_c, 0, 70, 75
1, 215399, Note_on_c, 0, 62, 61
1, 215410, Note_off_c, 0, 70, 68
1, 215430, Note_off_c, 0, 62, 64
1, 215466, Note_on_c, 0, 74, 86
1, 215474, Note_on_c, 0, 53, 62
1, 215503, Note_off_c, 0, 74, 65
1, 215525, Note_on_c, 0, 72, 80
1, 215549, Note_off_c, 0, 53, 58
1, 215562, Note_on_c, 0, 63, 56
1, 215564, Note_off_c, 0, 72, 61
1, 215589, Note_on_c, 0, 74, 75
1, 215596, Note_off_c, 0, 63, 60
1, 215617, Note_on_c, 0, 57, 59
1, 215621, Note_off_c, 0, 74, 61
1, 215643, Note_on_c, 0, 72, 77
1, 215662, Note_off_c, 0, 57, 61
1, 215670, Note_off_c, 0, 72, 63
1, 215696, Note_on_c, 0, 63, 60
1, 215705, Note_on_c, 0, 74, 70
1, 215727, Note_off_c, 0, 74, 70
1, 215753, Note_off_c, 0, 63, 57
1, 215755, Note_on_c, 0, 72, 79
1, 215781, Note_on_c, 0, 53, 56
1, 215788, Note_off_c, 0, 72, 62
1, 215807, Note_on_c, 0, 74, 73
1, 215818, Note_off_c, 0, 53, 64
1, 215831, Note_off_c, 0, 74, 65
1, 215862, Note_on_c, 0, 72, 75
1, 215867, Note_on_c, 0, 63, 54
1, 215891, Note_off_c, 0, 63, 60
1, 215900, Note_off_c, 0, 72, 61
1, 215921, Note_on_c, 0, 74, 72
1, 215927, Note_on_c, 0, 57, 48
1, 215943, Note_off_c, 0, 74, 67
1, 215969, Note_off_c, 0, 57, 59
1, 215971, Note_on_c, 0, 72, 74
1, 215998, Note_on_c, 0, 63, 53
1, 216013, Note_off_c, 0, 72, 65
1, 216029, Note_on_c, 0, 74, 65
1, 216034, Note_off_c, 0, 63, 62
1, 216046, Note_off_c, 0, 74, 68
1, 216086, Note_on_c, 0, 72, 74
1, 216091, Note_on_c, 0, 53, 56
1, 216122, Note_off_c, 0, 53, 66
1, 216129, Note_off_c, 0, 72, 65
1, 216135, Note_on_c, 0, 74, 67
1, 216157, Note_on_c, 0, 63, 56
1, 216162, Note_off_c, 0, 74, 64
1, 216189, Note_on_c, 0, 72, 63
1, 216199, Note_off_c, 0, 63, 63
1, 216226, Note_off_c, 0, 72, 64
1, 216239, Note_on_c, 0, 57, 44
1, 216239, Note_on_c, 0, 74, 66
1, 216266, Note_off_c, 0, 74, 67
1, 216272, Note_off_c, 0, 57, 59
1, 216290, Note_on_c, 0, 72, 69
1, 216311, Note_on_c, 0, 63, 48
1, 216330, Note_off_c, 0, 72, 64
1, 216341, Note_on_c, 0, 74, 67
1, 216343, Note_off_c, 0, 63, 55
1, 216364, Note_off_c, 0, 74, 65
1, 216381, Note_on_c, 0, 53, 45
1, 216388, Note_on_c, 0, 72, 71
1, 216422, Note_off_c, 0, 53, 57
1, 216424, Note_off_c, 0, 72, 59
1, 216427, Note_on_c, 0, 74, 72
1, 216457, Note_on_c, 0, 63, 22
1, 216462, Note_off_c, 0, 74, 66
1, 216489, Note_off_c, 0, 63, 49
1, 216491, Note_on_c, 0, 72, 76
1, 216500, Note_on_c, 0, 57, 54
1, 216539, Note_off_c, 0, 57, 63
1, 216557, Note_off_c, 0, 72, 62
1, 216575, Note_on_c, 0, 70, 63
1, 216583, Note_on_c, 0, 63, 51
1, 216619, Note_off_c, 0, 70, 63
1, 216627, Note_off_c, 0, 63, 45
1, 216633, Note_on_c, 0, 72, 59
1, 216711, Note_off_c, 0, 72, 59
1, 216752, Note_on_c, 0, 70, 57
1, 216757, Note_on_c, 0, 58, 41
1, 216854, Control_c, 0, 64, 50
1, 216869, Control_c, 0, 64, 64
1, 216884, Control_c, 0, 64, 66
1, 216898, Control_c, 0, 64, 68
1, 216908, Note_off_c, 0, 70, 62
1, 216913, Control_c, 0, 64, 71
1, 216923, Note_off_c, 0, 58, 61
1, 216928, Control_c, 0, 64, 74
1, 216943, Control_c, 0, 64, 75
1, 216955, Note_on_c, 0, 70, 37
1, 216958, Control_c, 0, 64, 76
1, 216964, Note_on_c, 0, 82, 60
1, 217017, Control_c, 0, 64, 75
1, 217017, Control_c, 0, 67, 9
1, 217025, Note_off_c, 0, 82, 61
1, 217032, Control_c, 0, 67, 12
1, 217047, Control_c, 0, 67, 16
1, 217061, Control_c, 0, 64, 75
1, 217061, Control_c, 0, 67, 21
1, 217076, Control_c, 0, 67, 26
1, 217091, Control_c, 0, 64, 74
1, 217091, Control_c, 0, 67, 31
1, 217102, Note_off_c, 0, 70, 32
1, 217105, Control_c, 0, 64, 74
1, 217105, Control_c, 0, 67, 38
1, 217120, Control_c, 0, 64, 73
1, 217120, Control_c, 0, 67, 44
1, 217137, Control_c, 0, 64, 72
1, 217137, Control_c, 0, 67, 48
1, 217138, Note_on_c, 0, 69, 48
1, 217151, Control_c, 0, 64, 71
1, 217151, Control_c, 0, 67, 50
1, 217166, Control_c, 0, 64, 70
1, 217181, Control_c, 0, 64, 69
1, 217196, Control_c, 0, 64, 68
1, 217210, Control_c, 0, 64, 67
1, 217225, Control_c, 0, 64, 65
1, 217240, Control_c, 0, 64, 63
1, 217240, Control_c, 0, 67, 49
1, 217255, Control_c, 0, 64, 61
1, 217270, Control_c, 0, 64, 60
1, 217274, Note_off_c, 0, 69, 60
1, 217299, Control_c, 0, 64, 60
1, 217305, Note_on_c, 0, 70, 44
1, 217307, Note_on_c, 0, 82, 60
1, 217314, Control_c, 0, 64, 59
1, 217329, Control_c, 0, 64, 56
1, 217329, Control_c, 0, 67, 50
1, 217344, Control_c, 0, 64, 53
1, 217358, Control_c, 0, 64, 53
1, 217358, Control_c, 0, 67, 50
1, 217388, Control_c, 0, 64, 52
1, 217402, Control_c, 0, 64, 47
1, 217417, Control_c, 0, 64, 38
1, 217432, Control_c, 0, 64, 16
1, 217447, Control_c, 0, 64, 0
1, 217474, Note_on_c, 0, 81, 69
1, 217480, Note_off_c, 0, 70, 57
1, 217481, Note_on_c, 0, 72, 52
1, 217487, Note_off_c, 0, 82, 62
1, 217507, Control_c, 0, 67, 50
1, 217536, Control_c, 0, 67, 49
1, 217573, Control_c, 0, 67, 49
1, 217632, Control_c, 0, 67, 48
1, 217647, Control_c, 0, 67, 47
1, 217657, Note_on_c, 0, 82, 78
1, 217662, Note_on_c, 0, 70, 55
1, 217721, Control_c, 0, 67, 47
1, 217727, Note_off_c, 0, 72, 37
1, 217736, Control_c, 0, 67, 46
1, 217751, Control_c, 0, 67, 45
1, 217766, Control_c, 0, 67, 45
1, 217781, Control_c, 0, 67, 44
1, 217796, Control_c, 0, 67, 44
1, 217823, Note_on_c, 0, 84, 82
1, 217825, Control_c, 0, 64, 21
1, 217832, Note_on_c, 0, 69, 63
1, 217834, Note_off_c, 0, 81, 21
1, 217840, Control_c, 0, 64, 40
1, 217849, Note_off_c, 0, 70, 61
1, 217855, Control_c, 0, 64, 53
1, 217860, Note_off_c, 0, 82, 64
1, 217870, Control_c, 0, 64, 60
1, 217870, Control_c, 0, 67, 43
1, 217884, Control_c, 0, 64, 63
1, 217884, Control_c, 0, 67, 43
1, 217899, Control_c, 0, 64, 64
1, 217914, Control_c, 0, 64, 65
1, 217930, Control_c, 0, 64, 66
1, 217960, Control_c, 0, 64, 67
1, 217974, Control_c, 0, 64, 66
1, 217974, Control_c, 0, 67, 44
1, 217989, Control_c, 0, 64, 66
1, 217989, Control_c, 0, 67, 44
1, 218001, Note_off_c, 0, 69, 65
1, 218001, Note_off_c, 0, 84, 65
1, 218004, Control_c, 0, 64, 65
1, 218004, Note_on_c, 0, 86, 81
1, 218016, Note_on_c, 0, 68, 53
1, 218019, Control_c, 0, 64, 65
1, 218019, Control_c, 0, 67, 45
1, 218033, Control_c, 0, 64, 64
1, 218048, Control_c, 0, 64, 64
1, 218048, Control_c, 0, 67, 46
1, 218063, Control_c, 0, 67, 46
1, 218078, Control_c, 0, 64, 63
1, 218093, Control_c, 0, 64, 63
1, 218107, Control_c, 0, 64, 62
1, 218107, Control_c, 0, 67, 47
1, 218122, Control_c, 0, 64, 60
1, 218132, Note_off_c, 0, 68, 64
1, 218137, Control_c, 0, 64, 57
1, 218137, Control_c, 0, 67, 47
1, 218151, Control_c, 0, 64, 43
1, 218161, Note_on_c, 0, 87, 75
1, 218161, Note_off_c, 0, 86, 63
1, 218166, Control_c, 0, 64, 0
1, 218166, Control_c, 0, 67, 48
1, 218167, Note_on_c, 0, 67, 57
1, 218181, Control_c, 0, 67, 48
1, 218196, Control_c, 0, 67, 49
1, 218241, Note_off_c, 0, 87, 64
1, 218246, Note_on_c, 0, 86, 70
1, 218285, Control_c, 0, 67, 49
1, 218319, Note_on_c, 0, 58, 54
1, 218320, Note_off_c, 0, 67, 34
1, 218327, Note_off_c, 0, 86, 62
1, 218332, Note_on_c, 0, 87, 68
1, 218352, Control_c, 0, 67, 50
1, 218354, Note_off_c, 0, 58, 64
1, 218392, Note_off_c, 0, 87, 63
1, 218399, Note_on_c, 0, 86, 63
1, 218411, Control_c, 0, 67, 51
1, 218447, Note_off_c, 0, 86, 62
1, 218455, Control_c, 0, 67, 51
1, 218488, Note_on_c, 0, 66, 64
1, 218490, Note_on_c, 0, 87, 66
1, 218560, Note_off_c, 0, 87, 62
1, 218589, Control_c, 0, 67, 51
1, 218607, Note_on_c, 0, 84, 20
1, 218618, Control_c, 0, 67, 50
1, 218631, Note_off_c, 0, 84, 0
1, 218637, Note_off_c, 0, 66, 60
1, 218645, Note_on_c, 0, 58, 55
1, 218648, Control_c, 0, 67, 50
1, 218651, Note_on_c, 0, 84, 34
1, 218684, Note_off_c, 0, 58, 65
1, 218702, Note_off_c, 0, 84, 65
1, 218738, Note_on_c, 0, 82, 58
1, 218797, Note_off_c, 0, 82, 59
1, 218817, Note_on_c, 0, 65, 61
1, 218818, Note_on_c, 0, 81, 73
1, 218886, Note_off_c, 0, 81, 57
1, 218901, Control_c, 0, 67, 49
1, 218906, Note_on_c, 0, 82, 71
1, 218916, Control_c, 0, 67, 49
1, 218931, Control_c, 0, 67, 48
1, 218943, Note_off_c, 0, 65, 61
1, 218946, Control_c, 0, 67, 48
1, 218976, Note_off_c, 0, 82, 62
1, 218980, Note_on_c, 0, 84, 71
1, 218984, Note_on_c, 0, 58, 47
1, 219005, Control_c, 0, 67, 49
1, 219028, Note_off_c, 0, 58, 63
1, 219035, Control_c, 0, 67, 50
1, 219042, Note_off_c, 0, 84, 49
1, 219072, Note_on_c, 0, 82, 69
1, 219072, Control_c, 0, 67, 50
1, 219131, Note_off_c, 0, 82, 63
1, 219149, Note_on_c, 0, 81, 72
1, 219161, Control_c, 0, 67, 50
1, 219169, Note_on_c, 0, 69, 51
1, 219190, Control_c, 0, 67, 49
1, 219195, Note_off_c, 0, 81, 59
1, 219205, Control_c, 0, 67, 49
1, 219232, Note_on_c, 0, 79, 65
1, 219235, Control_c, 0, 67, 48
1, 219250, Control_c, 0, 67, 48
1, 219270, Note_off_c, 0, 69, 52
1, 219277, Note_off_c, 0, 79, 62
1, 219294, Control_c, 0, 67, 47
1, 219313, Note_on_c, 0, 77, 67
1, 219318, Note_on_c, 0, 58, 45
1, 219371, Note_off_c, 0, 77, 60
1, 219387, Note_on_c, 0, 75, 71
1, 219389, Note_off_c, 0, 58, 51
1, 219412, Control_c, 0, 67, 48
1, 219415, Note_off_c, 0, 75, 67
1, 219486, Note_on_c, 0, 74, 69
1, 219490, Note_on_c, 0, 70, 57
1, 219516, Control_c, 0, 67, 48
1, 219533, Note_off_c, 0, 74, 63
1, 219638, Note_off_c, 0, 70, 59
1, 219665, Note_on_c, 0, 74, 59
1, 219671, Note_on_c, 0, 58, 46
1, 219694, Control_c, 0, 67, 48
1, 219835, Control_c, 0, 67, 49
1, 219836, Note_off_c, 0, 74, 62
1, 219838, Note_on_c, 0, 57, 60
1, 219846, Note_off_c, 0, 58, 60
1, 219864, Control_c, 0, 67, 49
1, 219894, Control_c, 0, 67, 50
1, 219909, Control_c, 0, 67, 50
1, 219924, Control_c, 0, 67, 51
1, 219997, Note_off_c, 0, 57, 57
1, 220024, Note_on_c, 0, 70, 68
1, 220027, Control_c, 0, 67, 50
1, 220035, Note_on_c, 0, 58, 44
1, 220057, Control_c, 0, 67, 50
1, 220204, Control_c, 0, 67, 49
1, 220205, Note_on_c, 0, 69, 67
1, 220230, Note_off_c, 0, 58, 59
1, 220234, Note_on_c, 0, 60, 45
1, 220234, Control_c, 0, 67, 49
1, 220241, Note_off_c, 0, 70, 61
1, 220264, Control_c, 0, 67, 48
1, 220279, Control_c, 0, 67, 48
1, 220354, Control_c, 0, 67, 47
1, 220386, Note_on_c, 0, 58, 51
1, 220386, Note_on_c, 0, 70, 76
1, 220413, Control_c, 0, 67, 47
1, 220423, Note_off_c, 0, 69, 65
1, 220443, Control_c, 0, 67, 46
1, 220456, Note_off_c, 0, 60, 38
1, 220517, Control_c, 0, 67, 46
1, 220532, Control_c, 0, 67, 45
1, 220566, Note_off_c, 0, 70, 62
1, 220568, Control_c, 0, 67, 45
1, 220574, Note_on_c, 0, 72, 74
1, 220575, Note_on_c, 0, 57, 49
1, 220579, Note_off_c, 0, 58, 61
1, 220598, Control_c, 0, 67, 44
1, 220642, Control_c, 0, 67, 44
1, 220672, Control_c, 0, 67, 43
1, 220687, Control_c, 0, 67, 43
1, 220726, Note_off_c, 0, 57, 57
1, 220730, Note_off_c, 0, 72, 62
1, 220742, Note_on_c, 0, 74, 69
1, 220759, Note_on_c, 0, 56, 43
1, 220776, Control_c, 0, 67, 43
1, 220821, Control_c, 0, 67, 44
1, 220850, Control_c, 0, 67, 44
1, 220880, Control_c, 0, 67, 45
1, 220903, Note_off_c, 0, 56, 56
1, 220916, Note_off_c, 0, 74, 62
1, 220931, Note_on_c, 0, 75, 63
1, 220932, Note_on_c, 0, 55, 46
1, 220939, Control_c, 0, 67, 45
1, 220953, Control_c, 0, 67, 46
1, 220968, Control_c, 0, 67, 46
1, 220983, Control_c, 0, 67, 47
1, 220998, Control_c, 0, 67, 47
1, 221042, Control_c, 0, 67, 48
1, 221043, Note_off_c, 0, 75, 59
1, 221072, Control_c, 0, 67, 48
1, 221078, Note_on_c, 0, 77, 58
1, 221102, Control_c, 0, 67, 49
1, 221108, Note_off_c, 0, 77, 56
1, 221116, Control_c, 0, 67, 49
1, 221130, Note_on_c, 0, 75, 59
1, 221132, Control_c, 0, 67, 50
1, 221147, Control_c, 0, 67, 50
1, 221162, Control_c, 0, 67, 51
1, 221163, Note_off_c, 0, 75, 67
1, 221176, Control_c, 0, 67, 51
1, 221184, Note_on_c, 0, 74, 66
1, 221206, Control_c, 0, 67, 52
1, 221212, Note_off_c, 0, 74, 66
1, 221221, Note_on_c, 0, 75, 73
1, 221221, Control_c, 0, 67, 52
1, 221248, Note_off_c, 0, 55, 59
1, 221251, Control_c, 0, 67, 53
1, 221257, Note_off_c, 0, 75, 67
1, 221265, Control_c, 0, 67, 55
1, 221271, Note_on_c, 0, 77, 73
1, 221280, Note_on_c, 0, 51, 34
1, 221280, Control_c, 0, 67, 58
1, 221303, Control_c, 0, 67, 61
1, 221318, Control_c, 0, 67, 63
1, 221332, Control_c, 0, 67, 65
1, 221347, Control_c, 0, 67, 66
1, 221391, Control_c, 0, 67, 65
1, 221421, Control_c, 0, 67, 65
1, 221436, Control_c, 0, 67, 64
1, 221450, Control_c, 0, 67, 64
1, 221465, Note_off_c, 0, 77, 50
1, 221465, Control_c, 0, 67, 63
1, 221468, Note_on_c, 0, 79, 71
1, 221495, Control_c, 0, 67, 63
1, 221498, Note_off_c, 0, 79, 62
1, 221555, Control_c, 0, 67, 62
1, 221673, Control_c, 0, 67, 62
1, 221677, Note_on_c, 0, 79, 60
1, 221681, Note_on_c, 0, 75, 49
1, 221695, Note_on_c, 0, 53, 29
1, 221732, Control_c, 0, 67, 61
1, 221762, Control_c, 0, 67, 61
1, 221776, Control_c, 0, 67, 60
1, 221778, Note_off_c, 0, 51, 21
1, 221836, Note_off_c, 0, 53, 57
1, 221845, Note_off_c, 0, 79, 55
1, 221856, Note_off_c, 0, 75, 59
1, 221861, Note_on_c, 0, 77, 60
1, 221867, Note_on_c, 0, 74, 50
1, 221907, Note_off_c, 0, 74, 62
1, 221922, Note_off_c, 0, 77, 61
1, 222030, Control_c, 0, 67, 61
1, 222064, Note_on_c, 0, 53, 48
1, 222082, Control_c, 0, 67, 60
1, 222186, Control_c, 0, 67, 59
1, 222200, Control_c, 0, 67, 59
1, 222215, Control_c, 0, 67, 58
1, 222245, Control_c, 0, 67, 58
1, 222250, Note_on_c, 0, 69, 60
1, 222255, Note_off_c, 0, 53, 62
1, 222267, Note_on_c, 0, 63, 48
1, 222289, Note_off_c, 0, 63, 59
1, 222393, Control_c, 0, 67, 57
1, 222437, Control_c, 0, 67, 58
1, 222524, Note_on_c, 0, 72, 57
1, 222539, Note_on_c, 0, 63, 43
1, 222550, Note_on_c, 0, 58, 34
1, 222586, Control_c, 0, 67, 58
1, 222590, Note_off_c, 0, 69, 57
1, 222644, Note_off_c, 0, 58, 60
1, 222779, Control_c, 0, 67, 59
1, 222794, Control_c, 0, 67, 59
1, 222978, Note_on_c, 0, 53, 40
1, 223085, Note_off_c, 0, 53, 65
1, 223127, Control_c, 0, 67, 60
1, 223142, Control_c, 0, 67, 61
1, 223156, Control_c, 0, 67, 61
1, 223171, Control_c, 0, 67, 62
1, 223201, Control_c, 0, 67, 62
1, 223216, Control_c, 0, 67, 63
1, 223230, Control_c, 0, 67, 63
1, 223245, Control_c, 0, 67, 64
1, 223260, Control_c, 0, 67, 65
1, 223275, Control_c, 0, 67, 65
1, 223394, Control_c, 0, 67, 65
1, 223511, Control_c, 0, 67, 64
1, 223525, Note_on_c, 0, 46, 35
1, 223528, Note_on_c, 0, 62, 28
1, 223538, Note_on_c, 0, 70, 41
1, 223588, Note_off_c, 0, 72, 29
1, 223593, Note_off_c, 0, 63, 36
1, 223594, Control_c, 0, 67, 64
1, 223698, Control_c, 0, 67, 63
1, 223772, Control_c, 0, 67, 63
1, 223860, Control_c, 0, 67, 62
1, 223875, Control_c, 0, 67, 62
1, 223905, Control_c, 0, 67, 61
1, 223919, Control_c, 0, 67, 61
1, 223934, Control_c, 0, 67, 60
1, 223964, Control_c, 0, 67, 59
1, 223978, Control_c, 0, 67, 59
1, 223993, Control_c, 0, 67, 58
1, 224023, Control_c, 0, 67, 57
1, 224053, Control_c, 0, 67, 56
1, 224067, Control_c, 0, 67, 56
1, 224097, Control_c, 0, 67, 55
1, 224127, Control_c, 0, 67, 54
1, 224201, Control_c, 0, 67, 54
1, 224216, Control_c, 0, 67, 53
1, 224245, Control_c, 0, 67, 53
1, 224260, Control_c, 0, 67, 52
1, 224275, Control_c, 0, 67, 50
1, 224297, Control_c, 0, 67, 46
1, 224312, Control_c, 0, 67, 44
1, 224328, Control_c, 0, 67, 40
1, 224343, Control_c, 0, 67, 37
1, 224357, Control_c, 0, 67, 33
1, 224372, Control_c, 0, 67, 30
1, 224387, Control_c, 0, 67, 27
1, 224392, Note_off_c, 0, 62, 44
1, 224401, Control_c, 0, 67, 24
1, 224408, Note_off_c, 0, 70, 57
1, 224411, Note_off_c, 0, 46, 51
1, 224416, Control_c, 0, 67, 22
1, 224431, Control_c, 0, 67, 19
1, 224446, Control_c, 0, 67, 17
1, 224461, Control_c, 0, 67, 15
1, 224476, Control_c, 0, 67, 13
1, 224491, Control_c, 0, 67, 10
1, 224506, Control_c, 0, 67, 8
1, 224520, Control_c, 0, 67, 0
1, 224520, End_track
0, 0, End_of_file
