0, 0, Header, 0, 1, 384
1, 0, Start_track
1, 0, Title_t, "Faust Waltz--V. Korch.-Kogan    "
1, 0, Text_t, "2006 International Piano-e-Competition Recital Round"
1, 0, Text_t, "St. Paul, Minnesota, July 2006"
1, 0, Text_t, "http://www.piano-e-competition.com/"
1, 0, Instrument_name_t, "Yamaha Disklavier Pro Mark IV concert grand piano"
1, 0, Sequencer_specific, 39, 67, 113, 0, 1, 0, 1, 0, 70, 97, 117, 115, 116, 32, 87, 97, 108, 116, 122, 32, 32, 32, 32, 32, 86, 46, 75, 111, 114, 99, 104, 46, 45, 75, 111, 103, 97, 110, 32, 32
1, 0, Sequencer_specific, 6, 67, 113, 0, 0, 0, 69
1, 0, System_exclusive, 21, 67, 113, 126, 21, 0, 2, 2, 0, 14, 5, 1, 4, 4, 10, 9, 7, 13, 5, 8, 4, 247
1, 0, Sequencer_specific, 5, 67, 123, 12, 2, 1
1, 0, Tempo, 512820
1, 0, Time_signature, 4, 2, 24, 8
1, 0, System_exclusive, 5, 126, 127, 9, 1, 247
1, 1, System_exclusive, 8, 67, 16, 76, 0, 0, 126, 0, 247
1, 2, System_exclusive, 8, 67, 16, 76, 8, 9, 7, 1, 247
1, 3, Control_c, 0, 0, 0
1, 4, Control_c, 0, 32, 0
1, 5, Program_c, 0, 0
1, 6, Control_c, 0, 7, 100
1, 95, Control_c, 0, 64, 15
1, 184, Control_c, 0, 64, 31
1, 273, Control_c, 0, 64, 46
1, 362, Control_c, 0, 64, 63
1, 452, Control_c, 0, 64, 77
1, 541, Control_c, 0, 64, 94
1, 630, Control_c, 0, 64, 108
1, 719, Control_c, 0, 64, 127
1, 903, Note_on_c, 0, 76, 86
1, 929, Note_on_c, 0, 69, 59
1, 932, Note_on_c, 0, 64, 52
1, 934, Note_on_c, 0, 57, 53
1, 981, Note_off_c, 0, 64, 59
1, 982, Note_off_c, 0, 69, 50
1, 993, Note_off_c, 0, 57, 55
1, 1015, Note_off_c, 0, 76, 59
1, 1096, Note_on_c, 0, 76, 105
1, 1105, Note_on_c, 0, 69, 86
1, 1109, Note_on_c, 0, 57, 77
1, 1109, Note_on_c, 0, 64, 80
1, 1135, Note_off_c, 0, 76, 69
1, 1150, Note_off_c, 0, 69, 63
1, 1164, Note_off_c, 0, 57, 62
1, 1183, Note_off_c, 0, 64, 59
1, 1421, Note_on_c, 0, 76, 92
1, 1427, Note_on_c, 0, 57, 61
1, 1429, Note_on_c, 0, 69, 67
1, 1437, Note_on_c, 0, 64, 54
1, 1476, Note_off_c, 0, 64, 58
1, 1483, Note_off_c, 0, 69, 53
1, 1485, Note_off_c, 0, 57, 55
1, 1512, Note_off_c, 0, 76, 58
1, 1589, Note_on_c, 0, 76, 102
1, 1597, Note_on_c, 0, 69, 87
1, 1602, Note_on_c, 0, 64, 79
1, 1605, Note_on_c, 0, 57, 74
1, 1615, Note_off_c, 0, 76, 72
1, 1632, Note_off_c, 0, 57, 68
1, 1640, Note_off_c, 0, 69, 60
1, 1651, Note_off_c, 0, 64, 62
1, 1913, Note_on_c, 0, 76, 89
1, 1922, Note_on_c, 0, 57, 58
1, 1922, Note_on_c, 0, 69, 63
1, 1929, Note_on_c, 0, 64, 57
1, 1978, Note_off_c, 0, 57, 56
1, 1988, Note_off_c, 0, 69, 52
1, 1994, Note_off_c, 0, 64, 42
1, 2006, Note_off_c, 0, 76, 60
1, 2090, Note_on_c, 0, 69, 90
1, 2090, Note_on_c, 0, 76, 101
1, 2095, Note_on_c, 0, 57, 72
1, 2101, Note_on_c, 0, 64, 77
1, 2107, Note_off_c, 0, 76, 70
1, 2107, Note_off_c, 0, 69, 72
1, 2123, Note_off_c, 0, 64, 71
1, 2133, Note_off_c, 0, 57, 66
1, 2266, Control_c, 0, 67, 37
1, 2281, Control_c, 0, 67, 64
1, 2295, Control_c, 0, 67, 90
1, 2310, Control_c, 0, 67, 126
1, 2385, Control_c, 0, 64, 114
1, 2400, Control_c, 0, 64, 85
1, 2415, Control_c, 0, 64, 66
1, 2429, Control_c, 0, 64, 45
1, 2444, Control_c, 0, 64, 0
1, 2492, Note_on_c, 0, 57, 41
1, 2508, Note_on_c, 0, 52, 31
1, 2516, Note_on_c, 0, 33, 55
1, 2542, Poly_aftertouch_c, 0, 49, 127
1, 2552, Note_off_c, 0, 33, 63
1, 2578, Poly_aftertouch_c, 0, 49, 0
1, 2596, Note_on_c, 0, 45, 56
1, 2631, Note_off_c, 0, 45, 64
1, 2654, Note_on_c, 0, 33, 66
1, 2654, Note_on_c, 0, 50, 53
1, 2656, Note_off_c, 0, 57, 32
1, 2658, Note_on_c, 0, 53, 50
1, 2660, Note_on_c, 0, 58, 55
1, 2678, Note_off_c, 0, 52, 54
1, 2680, Note_off_c, 0, 50, 62
1, 2683, Note_off_c, 0, 53, 62
1, 2686, Note_off_c, 0, 58, 63
1, 2693, Note_off_c, 0, 33, 65
1, 2713, Note_on_c, 0, 45, 59
1, 2748, Note_off_c, 0, 45, 63
1, 2794, Note_on_c, 0, 32, 70
1, 2835, Note_off_c, 0, 32, 62
1, 2868, Note_on_c, 0, 44, 53
1, 2906, Note_off_c, 0, 44, 63
1, 2957, Note_on_c, 0, 58, 50
1, 2959, Note_on_c, 0, 50, 42
1, 2960, Note_on_c, 0, 53, 41
1, 2971, Note_on_c, 0, 31, 47
1, 3001, Control_c, 0, 64, 42
1, 3006, Note_off_c, 0, 31, 62
1, 3016, Control_c, 0, 64, 53
1, 3027, Note_on_c, 0, 43, 58
1, 3031, Control_c, 0, 64, 58
1, 3045, Control_c, 0, 64, 61
1, 3059, Note_off_c, 0, 43, 64
1, 3060, Control_c, 0, 64, 63
1, 3075, Control_c, 0, 64, 66
1, 3090, Control_c, 0, 64, 70
1, 3103, Note_on_c, 0, 29, 66
1, 3105, Control_c, 0, 64, 75
1, 3119, Control_c, 0, 64, 79
1, 3133, Note_off_c, 0, 50, 57
1, 3134, Control_c, 0, 64, 85
1, 3134, Control_c, 0, 67, 98
1, 3145, Note_off_c, 0, 53, 38
1, 3149, Control_c, 0, 64, 92
1, 3149, Control_c, 0, 67, 50
1, 3160, Note_off_c, 0, 29, 58
1, 3164, Control_c, 0, 64, 103
1, 3164, Control_c, 0, 67, 0
1, 3176, Note_on_c, 0, 41, 60
1, 3179, Note_off_c, 0, 58, 36
1, 3179, Control_c, 0, 64, 127
1, 3207, Note_off_c, 0, 41, 65
1, 3250, Note_on_c, 0, 58, 48
1, 3252, Note_on_c, 0, 31, 66
1, 3255, Note_on_c, 0, 53, 60
1, 3255, Note_on_c, 0, 62, 59
1, 3285, Note_off_c, 0, 53, 65
1, 3285, Note_off_c, 0, 58, 64
1, 3286, Note_off_c, 0, 62, 64
1, 3317, Note_on_c, 0, 43, 60
1, 3317, Note_off_c, 0, 31, 62
1, 3359, Note_off_c, 0, 43, 64
1, 3401, Note_on_c, 0, 32, 78
1, 3455, Note_on_c, 0, 53, 65
1, 3458, Note_on_c, 0, 50, 58
1, 3464, Note_off_c, 0, 32, 58
1, 3475, Note_on_c, 0, 44, 66
1, 3488, Note_off_c, 0, 50, 61
1, 3495, Note_off_c, 0, 53, 64
1, 3513, Control_c, 0, 64, 91
1, 3514, Note_off_c, 0, 44, 64
1, 3522, Note_on_c, 0, 53, 66
1, 3523, Note_on_c, 0, 58, 84
1, 3523, Note_on_c, 0, 50, 71
1, 3528, Control_c, 0, 64, 51
1, 3539, Note_on_c, 0, 33, 82
1, 3543, Control_c, 0, 64, 0
1, 3544, Note_off_c, 0, 58, 71
1, 3550, Note_off_c, 0, 53, 62
1, 3553, Note_off_c, 0, 50, 67
1, 3594, Note_off_c, 0, 33, 59
1, 3612, Note_on_c, 0, 45, 64
1, 3644, Note_off_c, 0, 45, 64
1, 3681, Note_on_c, 0, 32, 70
1, 3723, Note_off_c, 0, 32, 61
1, 3753, Note_on_c, 0, 44, 64
1, 3800, Note_off_c, 0, 44, 62
1, 3836, Note_on_c, 0, 58, 60
1, 3843, Note_on_c, 0, 53, 49
1, 3848, Note_on_c, 0, 50, 44
1, 3857, Note_on_c, 0, 31, 56
1, 3883, Control_c, 0, 64, 39
1, 3898, Control_c, 0, 64, 59
1, 3905, Note_off_c, 0, 31, 61
1, 3913, Control_c, 0, 64, 67
1, 3920, Note_on_c, 0, 43, 64
1, 3928, Control_c, 0, 64, 75
1, 3933, Note_off_c, 0, 53, 62
1, 3942, Control_c, 0, 64, 89
1, 3947, Note_off_c, 0, 58, 63
1, 3947, Note_off_c, 0, 43, 64
1, 3957, Control_c, 0, 64, 127
1, 3987, Note_on_c, 0, 29, 78
1, 3988, Note_off_c, 0, 50, 61
1, 4045, Note_on_c, 0, 41, 84
1, 4045, Note_off_c, 0, 29, 62
1, 4087, Note_off_c, 0, 41, 64
1, 4118, Note_on_c, 0, 58, 95
1, 4120, Note_on_c, 0, 65, 78
1, 4120, Note_on_c, 0, 62, 78
1, 4128, Note_on_c, 0, 31, 84
1, 4164, Note_off_c, 0, 65, 58
1, 4167, Note_off_c, 0, 62, 62
1, 4173, Note_off_c, 0, 58, 54
1, 4174, Note_on_c, 0, 43, 77
1, 4185, Note_off_c, 0, 31, 64
1, 4246, Note_off_c, 0, 43, 62
1, 4313, Note_on_c, 0, 32, 81
1, 4328, Note_on_c, 0, 62, 67
1, 4328, Note_on_c, 0, 58, 68
1, 4330, Note_on_c, 0, 53, 64
1, 4332, Note_on_c, 0, 44, 75
1, 4350, Note_off_c, 0, 53, 64
1, 4355, Note_off_c, 0, 32, 62
1, 4355, Note_off_c, 0, 58, 66
1, 4355, Note_off_c, 0, 62, 65
1, 4360, Note_off_c, 0, 44, 65
1, 4366, Control_c, 0, 64, 79
1, 4380, Control_c, 0, 64, 36
1, 4395, Control_c, 0, 64, 0
1, 4396, Note_on_c, 0, 61, 91
1, 4401, Note_on_c, 0, 45, 102
1, 4402, Note_on_c, 0, 57, 90
1, 4403, Note_on_c, 0, 52, 99
1, 4408, Note_on_c, 0, 33, 95
1, 4413, Note_on_c, 0, 58, 60
1, 4430, Note_off_c, 0, 58, 66
1, 4439, Note_on_c, 0, 34, 54
1, 4444, Note_off_c, 0, 52, 66
1, 4454, Control_c, 0, 64, 47
1, 4462, Note_off_c, 0, 57, 64
1, 4466, Note_off_c, 0, 33, 64
1, 4469, Control_c, 0, 64, 127
1, 4473, Note_off_c, 0, 61, 66
1, 4475, Note_off_c, 0, 34, 56
1, 4480, Note_off_c, 0, 45, 64
1, 4801, Note_on_c, 0, 88, 90
1, 4807, Note_on_c, 0, 81, 84
1, 4811, Note_on_c, 0, 69, 72
1, 4813, Note_on_c, 0, 76, 76
1, 4814, Note_on_c, 0, 57, 64
1, 4822, Note_on_c, 0, 64, 60
1, 4872, Note_off_c, 0, 69, 59
1, 4899, Note_off_c, 0, 57, 57
1, 4911, Note_off_c, 0, 64, 49
1, 4918, Note_off_c, 0, 76, 57
1, 4926, Note_off_c, 0, 81, 56
1, 4936, Note_off_c, 0, 88, 63
1, 4996, Control_c, 0, 64, 76
1, 5011, Control_c, 0, 64, 57
1, 5015, Note_on_c, 0, 69, 98
1, 5016, Note_on_c, 0, 88, 103
1, 5017, Note_on_c, 0, 57, 79
1, 5019, Note_on_c, 0, 76, 96
1, 5022, Note_on_c, 0, 64, 93
1, 5022, Note_on_c, 0, 81, 100
1, 5026, Control_c, 0, 64, 62
1, 5041, Control_c, 0, 64, 79
1, 5044, Note_off_c, 0, 76, 67
1, 5046, Note_off_c, 0, 69, 65
1, 5048, Note_off_c, 0, 57, 65
1, 5056, Control_c, 0, 64, 127
1, 5060, Note_off_c, 0, 88, 68
1, 5061, Note_off_c, 0, 81, 60
1, 5066, Note_off_c, 0, 64, 64
1, 5345, Note_on_c, 0, 88, 87
1, 5348, Note_on_c, 0, 81, 76
1, 5352, Note_on_c, 0, 76, 78
1, 5355, Note_on_c, 0, 69, 72
1, 5361, Note_on_c, 0, 57, 61
1, 5365, Note_on_c, 0, 64, 56
1, 5414, Note_off_c, 0, 57, 55
1, 5416, Note_off_c, 0, 69, 59
1, 5423, Note_off_c, 0, 76, 58
1, 5440, Note_off_c, 0, 64, 59
1, 5446, Note_off_c, 0, 88, 62
1, 5452, Note_off_c, 0, 81, 58
1, 5500, Control_c, 0, 64, 103
1, 5514, Control_c, 0, 64, 86
1, 5527, Note_on_c, 0, 88, 95
1, 5528, Note_on_c, 0, 69, 95
1, 5528, Note_on_c, 0, 76, 96
1, 5529, Control_c, 0, 64, 87
1, 5533, Note_on_c, 0, 57, 82
1, 5534, Note_on_c, 0, 81, 93
1, 5536, Note_on_c, 0, 64, 89
1, 5544, Control_c, 0, 64, 109
1, 5559, Control_c, 0, 64, 127
1, 5564, Note_off_c, 0, 76, 66
1, 5568, Note_off_c, 0, 57, 61
1, 5570, Note_off_c, 0, 69, 63
1, 5578, Note_off_c, 0, 88, 67
1, 5582, Note_off_c, 0, 81, 63
1, 5587, Note_off_c, 0, 64, 63
1, 5846, Note_on_c, 0, 88, 88
1, 5851, Note_on_c, 0, 69, 73
1, 5851, Note_on_c, 0, 81, 79
1, 5853, Note_on_c, 0, 76, 81
1, 5858, Note_on_c, 0, 57, 61
1, 5865, Note_on_c, 0, 64, 63
1, 5900, Note_off_c, 0, 57, 54
1, 5915, Note_off_c, 0, 69, 57
1, 5918, Note_off_c, 0, 64, 54
1, 5926, Note_off_c, 0, 76, 56
1, 5947, Note_off_c, 0, 81, 57
1, 5952, Note_off_c, 0, 88, 60
1, 6012, Control_c, 0, 64, 87
1, 6026, Control_c, 0, 64, 67
1, 6031, Note_on_c, 0, 88, 97
1, 6034, Note_on_c, 0, 76, 88
1, 6036, Note_on_c, 0, 81, 91
1, 6036, Note_on_c, 0, 69, 91
1, 6039, Note_on_c, 0, 57, 79
1, 6040, Note_on_c, 0, 64, 86
1, 6041, Control_c, 0, 64, 65
1, 6054, Note_off_c, 0, 69, 72
1, 6055, Note_off_c, 0, 76, 69
1, 6056, Control_c, 0, 64, 78
1, 6061, Note_off_c, 0, 88, 66
1, 6065, Note_off_c, 0, 81, 65
1, 6070, Control_c, 0, 64, 120
1, 6075, Note_off_c, 0, 57, 65
1, 6079, Note_off_c, 0, 64, 63
1, 6085, Control_c, 0, 64, 127
1, 6189, Control_c, 0, 67, 60
1, 6204, Control_c, 0, 67, 98
1, 6218, Control_c, 0, 67, 120
1, 6233, Control_c, 0, 67, 127
1, 6352, Control_c, 0, 64, 94
1, 6367, Control_c, 0, 64, 77
1, 6382, Control_c, 0, 64, 65
1, 6397, Control_c, 0, 64, 51
1, 6411, Control_c, 0, 64, 0
1, 6430, Note_on_c, 0, 69, 52
1, 6443, Note_on_c, 0, 64, 38
1, 6453, Note_on_c, 0, 33, 59
1, 6492, Control_c, 0, 64, 33
1, 6507, Control_c, 0, 64, 54
1, 6510, Note_off_c, 0, 33, 60
1, 6522, Control_c, 0, 64, 63
1, 6522, Control_c, 0, 67, 124
1, 6537, Control_c, 0, 64, 65
1, 6537, Control_c, 0, 67, 122
1, 6548, Note_on_c, 0, 45, 57
1, 6551, Note_off_c, 0, 69, 53
1, 6552, Control_c, 0, 64, 67
1, 6552, Control_c, 0, 67, 119
1, 6552, Poly_aftertouch_c, 0, 61, 0
1, 6567, Control_c, 0, 64, 74
1, 6567, Control_c, 0, 67, 115
1, 6577, Note_off_c, 0, 64, 0
1, 6582, Control_c, 0, 64, 87
1, 6582, Control_c, 0, 67, 105
1, 6582, Note_off_c, 0, 45, 64
1, 6597, Control_c, 0, 64, 127
1, 6597, Control_c, 0, 67, 68
1, 6604, Note_on_c, 0, 70, 61
1, 6606, Note_on_c, 0, 62, 55
1, 6612, Control_c, 0, 67, 0
1, 6615, Note_on_c, 0, 65, 49
1, 6615, Poly_aftertouch_c, 0, 64, 127
1, 6621, Note_on_c, 0, 33, 65
1, 6633, Note_off_c, 0, 70, 67
1, 6634, Note_off_c, 0, 62, 64
1, 6638, Note_off_c, 0, 65, 62
1, 6641, Control_c, 0, 64, 84
1, 6648, Note_off_c, 0, 33, 64
1, 6656, Control_c, 0, 64, 55
1, 6660, Poly_aftertouch_c, 0, 64, 0
1, 6671, Control_c, 0, 64, 0
1, 6678, Note_on_c, 0, 45, 53
1, 6703, Note_off_c, 0, 45, 58
1, 6749, Note_on_c, 0, 32, 70
1, 6790, Note_off_c, 0, 32, 61
1, 6832, Note_on_c, 0, 44, 47
1, 6860, Note_off_c, 0, 44, 58
1, 6908, Control_c, 0, 67, 42
1, 6921, Note_on_c, 0, 31, 54
1, 6923, Note_on_c, 0, 70, 56
1, 6923, Control_c, 0, 67, 60
1, 6930, Note_on_c, 0, 65, 45
1, 6938, Control_c, 0, 64, 38
1, 6938, Control_c, 0, 67, 72
1, 6942, Note_on_c, 0, 58, 43
1, 6948, Note_on_c, 0, 62, 35
1, 6953, Control_c, 0, 64, 55
1, 6953, Control_c, 0, 67, 78
1, 6961, Note_off_c, 0, 31, 62
1, 6967, Control_c, 0, 64, 62
1, 6967, Control_c, 0, 67, 79
1, 6982, Control_c, 0, 64, 64
1, 6992, Note_off_c, 0, 62, 62
1, 6993, Note_on_c, 0, 43, 59
1, 6997, Control_c, 0, 64, 67
1, 7002, Note_off_c, 0, 58, 60
1, 7011, Note_off_c, 0, 65, 61
1, 7012, Control_c, 0, 64, 71
1, 7025, Note_off_c, 0, 43, 64
1, 7027, Control_c, 0, 64, 76
1, 7027, Control_c, 0, 67, 77
1, 7041, Control_c, 0, 64, 80
1, 7041, Control_c, 0, 67, 75
1, 7053, Note_off_c, 0, 70, 63
1, 7056, Control_c, 0, 64, 84
1, 7056, Control_c, 0, 67, 73
1, 7064, Note_on_c, 0, 29, 70
1, 7071, Control_c, 0, 64, 89
1, 7071, Control_c, 0, 67, 71
1, 7086, Control_c, 0, 64, 95
1, 7086, Control_c, 0, 67, 68
1, 7100, Control_c, 0, 64, 103
1, 7100, Control_c, 0, 67, 65
1, 7115, Control_c, 0, 64, 118
1, 7115, Control_c, 0, 67, 62
1, 7121, Note_off_c, 0, 29, 60
1, 7130, Control_c, 0, 64, 127
1, 7130, Control_c, 0, 67, 57
1, 7133, Note_on_c, 0, 41, 69
1, 7145, Control_c, 0, 67, 53
1, 7160, Control_c, 0, 67, 47
1, 7170, Note_off_c, 0, 41, 64
1, 7175, Control_c, 0, 67, 39
1, 7190, Control_c, 0, 67, 0
1, 7220, Note_on_c, 0, 70, 68
1, 7220, Note_on_c, 0, 74, 76
1, 7223, Note_on_c, 0, 31, 67
1, 7225, Note_on_c, 0, 62, 69
1, 7226, Note_on_c, 0, 65, 61
1, 7243, Note_off_c, 0, 74, 68
1, 7255, Note_off_c, 0, 65, 65
1, 7255, Note_off_c, 0, 70, 64
1, 7256, Note_off_c, 0, 62, 64
1, 7278, Note_on_c, 0, 43, 74
1, 7290, Note_off_c, 0, 31, 62
1, 7328, Note_off_c, 0, 43, 60
1, 7374, Note_on_c, 0, 32, 78
1, 7443, Note_on_c, 0, 65, 60
1, 7443, Note_on_c, 0, 58, 54
1, 7444, Note_on_c, 0, 44, 72
1, 7445, Note_on_c, 0, 62, 55
1, 7452, Note_off_c, 0, 32, 60
1, 7464, Note_off_c, 0, 65, 64
1, 7467, Note_off_c, 0, 58, 58
1, 7487, Note_off_c, 0, 62, 0
1, 7489, Note_off_c, 0, 44, 62
1, 7497, Note_on_c, 0, 58, 81
1, 7499, Note_on_c, 0, 62, 66
1, 7504, Note_on_c, 0, 70, 79
1, 7506, Note_on_c, 0, 65, 73
1, 7509, Control_c, 0, 64, 75
1, 7518, Note_off_c, 0, 58, 69
1, 7520, Note_on_c, 0, 33, 84
1, 7524, Note_off_c, 0, 70, 71
1, 7524, Control_c, 0, 64, 0
1, 7530, Note_off_c, 0, 65, 69
1, 7533, Note_off_c, 0, 62, 66
1, 7579, Note_off_c, 0, 33, 62
1, 7584, Note_on_c, 0, 45, 66
1, 7616, Note_off_c, 0, 45, 64
1, 7655, Note_on_c, 0, 32, 81
1, 7703, Note_off_c, 0, 32, 57
1, 7740, Note_on_c, 0, 44, 63
1, 7782, Note_off_c, 0, 44, 65
1, 7828, Note_on_c, 0, 70, 63
1, 7828, Note_on_c, 0, 31, 61
1, 7828, Note_on_c, 0, 58, 59
1, 7831, Note_on_c, 0, 65, 60
1, 7839, Note_on_c, 0, 62, 49
1, 7864, Control_c, 0, 64, 54
1, 7878, Note_off_c, 0, 31, 61
1, 7879, Control_c, 0, 64, 65
1, 7886, Note_off_c, 0, 62, 63
1, 7888, Note_off_c, 0, 58, 62
1, 7889, Note_on_c, 0, 43, 77
1, 7894, Control_c, 0, 64, 77
1, 7899, Note_off_c, 0, 65, 63
1, 7908, Control_c, 0, 64, 96
1, 7923, Control_c, 0, 64, 127
1, 7932, Note_off_c, 0, 43, 61
1, 7933, Note_off_c, 0, 70, 64
1, 7980, Note_on_c, 0, 29, 84
1, 8039, Note_on_c, 0, 41, 82
1, 8046, Note_off_c, 0, 29, 62
1, 8090, Note_off_c, 0, 41, 64
1, 8120, Note_on_c, 0, 77, 94
1, 8121, Note_on_c, 0, 65, 90
1, 8121, Note_on_c, 0, 70, 91
1, 8122, Note_on_c, 0, 74, 89
1, 8125, Note_on_c, 0, 31, 84
1, 8164, Note_off_c, 0, 65, 60
1, 8169, Note_on_c, 0, 32, 34
1, 8169, Note_off_c, 0, 74, 61
1, 8177, Note_off_c, 0, 77, 59
1, 8179, Note_off_c, 0, 70, 57
1, 8192, Note_on_c, 0, 43, 81
1, 8196, Note_off_c, 0, 31, 65
1, 8215, Note_off_c, 0, 32, 51
1, 8257, Note_off_c, 0, 43, 63
1, 8323, Note_on_c, 0, 32, 71
1, 8339, Note_on_c, 0, 65, 77
1, 8341, Note_on_c, 0, 74, 76
1, 8347, Note_on_c, 0, 44, 74
1, 8349, Note_on_c, 0, 70, 66
1, 8358, Note_off_c, 0, 65, 68
1, 8366, Note_off_c, 0, 74, 64
1, 8374, Note_off_c, 0, 70, 68
1, 8376, Note_off_c, 0, 44, 65
1, 8384, Note_off_c, 0, 32, 59
1, 8406, Control_c, 0, 64, 119
1, 8421, Control_c, 0, 64, 70
1, 8424, Note_on_c, 0, 73, 92
1, 8435, Note_on_c, 0, 64, 85
1, 8436, Control_c, 0, 64, 0
1, 8437, Note_on_c, 0, 45, 91
1, 8438, Note_on_c, 0, 69, 74
1, 8445, Note_on_c, 0, 33, 89
1, 8489, Note_on_c, 0, 74, 14
1, 8533, Note_off_c, 0, 74, 31
1, 8567, Note_off_c, 0, 33, 61
1, 8579, Note_off_c, 0, 64, 61
1, 8584, Control_c, 0, 64, 59
1, 8596, Note_off_c, 0, 69, 53
1, 8599, Control_c, 0, 64, 97
1, 8613, Control_c, 0, 64, 127
1, 8621, Note_off_c, 0, 45, 63
1, 8665, Note_off_c, 0, 73, 62
1, 8929, Note_on_c, 0, 88, 75
1, 8936, Note_on_c, 0, 81, 66
1, 8943, Note_on_c, 0, 57, 50
1, 8944, Note_on_c, 0, 76, 60
1, 8948, Note_on_c, 0, 69, 48
1, 8977, Note_on_c, 0, 64, 47
1, 9032, Note_off_c, 0, 69, 53
1, 9038, Note_off_c, 0, 64, 54
1, 9038, Note_off_c, 0, 57, 55
1, 9058, Note_off_c, 0, 81, 56
1, 9071, Note_off_c, 0, 76, 57
1, 9103, Note_off_c, 0, 88, 59
1, 9190, Note_on_c, 0, 57, 63
1, 9190, Note_on_c, 0, 69, 61
1, 9196, Note_on_c, 0, 88, 83
1, 9198, Note_on_c, 0, 76, 71
1, 9198, Note_on_c, 0, 81, 73
1, 9199, Note_on_c, 0, 64, 66
1, 9214, Note_off_c, 0, 69, 65
1, 9235, Note_off_c, 0, 64, 65
1, 9259, Note_off_c, 0, 57, 64
1, 9303, Note_off_c, 0, 76, 55
1, 9327, Note_off_c, 0, 88, 55
1, 9348, Note_off_c, 0, 81, 60
1, 9524, Note_on_c, 0, 88, 77
1, 9525, Note_on_c, 0, 57, 58
1, 9528, Note_on_c, 0, 45, 56
1, 9530, Note_on_c, 0, 81, 72
1, 9531, Note_on_c, 0, 76, 75
1, 9547, Note_on_c, 0, 52, 40
1, 9561, Note_on_c, 0, 86, 40
1, 9575, Note_off_c, 0, 57, 55
1, 9580, Note_off_c, 0, 52, 47
1, 9590, Note_off_c, 0, 86, 57
1, 9598, Note_off_c, 0, 76, 61
1, 9610, Note_off_c, 0, 45, 54
1, 9623, Note_off_c, 0, 88, 64
1, 9643, Note_off_c, 0, 81, 54
1, 9667, Control_c, 0, 64, 73
1, 9682, Control_c, 0, 64, 0
1, 9706, Note_on_c, 0, 89, 87
1, 9706, Note_on_c, 0, 84, 76
1, 9712, Note_on_c, 0, 77, 83
1, 9712, Control_c, 0, 64, 49
1, 9715, Note_on_c, 0, 57, 80
1, 9719, Note_on_c, 0, 53, 73
1, 9720, Note_on_c, 0, 45, 74
1, 9727, Control_c, 0, 64, 70
1, 9728, Note_on_c, 0, 81, 59
1, 9742, Control_c, 0, 64, 108
1, 9746, Note_off_c, 0, 57, 65
1, 9749, Note_off_c, 0, 45, 64
1, 9756, Control_c, 0, 64, 127
1, 9775, Note_off_c, 0, 53, 61
1, 9816, Note_off_c, 0, 77, 56
1, 9841, Note_off_c, 0, 89, 54
1, 9851, Note_off_c, 0, 81, 54
1, 9856, Note_off_c, 0, 84, 55
1, 9991, Note_on_c, 0, 89, 84
1, 9992, Note_on_c, 0, 77, 88
1, 9998, Note_on_c, 0, 57, 78
1, 10000, Note_on_c, 0, 69, 83
1, 10004, Note_on_c, 0, 65, 64
1, 10034, Note_off_c, 0, 65, 63
1, 10039, Note_off_c, 0, 77, 64
1, 10055, Note_off_c, 0, 89, 63
1, 10055, Poly_aftertouch_c, 0, 81, 127
1, 10068, Note_off_c, 0, 69, 57
1, 10069, Poly_aftertouch_c, 0, 84, 0
1, 10085, Poly_aftertouch_c, 0, 81, 0
1, 10093, Note_off_c, 0, 57, 61
1, 10141, Control_c, 0, 64, 104
1, 10156, Note_on_c, 0, 69, 98
1, 10156, Control_c, 0, 64, 62
1, 10158, Note_on_c, 0, 90, 98
1, 10160, Note_on_c, 0, 78, 91
1, 10161, Note_on_c, 0, 57, 77
1, 10162, Note_on_c, 0, 63, 87
1, 10165, Note_on_c, 0, 66, 86
1, 10171, Control_c, 0, 64, 0
1, 10176, Note_on_c, 0, 84, 51
1, 10176, Note_on_c, 0, 86, 67
1, 10183, Note_on_c, 0, 83, 59
1, 10186, Control_c, 0, 64, 43
1, 10195, Note_off_c, 0, 69, 62
1, 10201, Control_c, 0, 64, 63
1, 10223, Control_c, 0, 64, 79
1, 10224, Note_off_c, 0, 83, 50
1, 10233, Note_off_c, 0, 57, 64
1, 10237, Control_c, 0, 64, 127
1, 10239, Note_off_c, 0, 66, 64
1, 10240, Note_off_c, 0, 86, 63
1, 10242, Note_off_c, 0, 78, 58
1, 10245, Note_off_c, 0, 63, 62
1, 10260, Note_off_c, 0, 84, 48
1, 10266, Note_off_c, 0, 90, 62
1, 10436, Note_on_c, 0, 90, 88
1, 10437, Note_on_c, 0, 78, 90
1, 10438, Note_on_c, 0, 87, 80
1, 10445, Note_on_c, 0, 57, 90
1, 10449, Note_on_c, 0, 84, 63
1, 10453, Note_on_c, 0, 45, 82
1, 10457, Note_on_c, 0, 54, 71
1, 10472, Note_off_c, 0, 84, 70
1, 10484, Note_off_c, 0, 54, 66
1, 10500, Note_off_c, 0, 57, 59
1, 10514, Note_off_c, 0, 90, 62
1, 10523, Note_off_c, 0, 78, 59
1, 10529, Note_off_c, 0, 45, 60
1, 10529, Note_off_c, 0, 87, 62
1, 10563, Control_c, 0, 64, 88
1, 10578, Control_c, 0, 64, 54
1, 10593, Note_on_c, 0, 57, 95
1, 10594, Note_on_c, 0, 93, 109
1, 10594, Control_c, 0, 64, 0
1, 10595, Note_on_c, 0, 52, 86
1, 10598, Note_on_c, 0, 45, 72
1, 10599, Note_on_c, 0, 79, 86
1, 10600, Note_on_c, 0, 85, 89
1, 10600, Note_on_c, 0, 81, 87
1, 10609, Control_c, 0, 64, 49
1, 10615, Note_off_c, 0, 57, 71
1, 10616, Note_off_c, 0, 81, 76
1, 10621, Note_off_c, 0, 79, 64
1, 10624, Control_c, 0, 64, 67
1, 10624, Note_off_c, 0, 45, 65
1, 10624, Note_off_c, 0, 93, 67
1, 10639, Control_c, 0, 64, 91
1, 10641, Note_off_c, 0, 52, 63
1, 10645, Note_off_c, 0, 85, 66
1, 10654, Control_c, 0, 64, 127
1, 10856, Note_on_c, 0, 69, 78
1, 10859, Note_on_c, 0, 57, 69
1, 10863, Note_on_c, 0, 81, 75
1, 10865, Note_on_c, 0, 88, 74
1, 10865, Note_on_c, 0, 76, 78
1, 10876, Note_on_c, 0, 64, 62
1, 10921, Note_off_c, 0, 69, 60
1, 10922, Note_off_c, 0, 76, 62
1, 10926, Note_off_c, 0, 88, 62
1, 10928, Note_off_c, 0, 57, 62
1, 10940, Note_off_c, 0, 81, 62
1, 10962, Note_off_c, 0, 64, 61
1, 10971, Control_c, 0, 64, 120
1, 10986, Control_c, 0, 64, 76
1, 11001, Control_c, 0, 64, 71
1, 11011, Note_on_c, 0, 64, 75
1, 11014, Note_on_c, 0, 69, 86
1, 11015, Control_c, 0, 64, 78
1, 11017, Note_on_c, 0, 88, 94
1, 11019, Note_on_c, 0, 76, 101
1, 11023, Note_on_c, 0, 57, 75
1, 11025, Note_on_c, 0, 81, 84
1, 11028, Note_off_c, 0, 69, 77
1, 11030, Control_c, 0, 64, 101
1, 11045, Control_c, 0, 64, 127
1, 11058, Note_off_c, 0, 64, 67
1, 11070, Note_off_c, 0, 57, 62
1, 11071, Note_off_c, 0, 76, 62
1, 11081, Note_off_c, 0, 88, 63
1, 11126, Note_off_c, 0, 81, 57
1, 11268, Note_on_c, 0, 88, 93
1, 11271, Note_on_c, 0, 81, 71
1, 11273, Note_on_c, 0, 57, 69
1, 11273, Note_on_c, 0, 76, 94
1, 11277, Note_on_c, 0, 52, 64
1, 11282, Note_on_c, 0, 45, 62
1, 11336, Note_off_c, 0, 57, 61
1, 11348, Note_off_c, 0, 45, 62
1, 11348, Note_off_c, 0, 76, 61
1, 11358, Note_off_c, 0, 52, 54
1, 11358, Note_off_c, 0, 88, 65
1, 11378, Note_off_c, 0, 81, 61
1, 11387, Control_c, 0, 64, 104
1, 11402, Control_c, 0, 64, 63
1, 11417, Control_c, 0, 64, 0
1, 11419, Note_on_c, 0, 84, 71
1, 11422, Note_on_c, 0, 89, 98
1, 11423, Note_on_c, 0, 57, 93
1, 11423, Note_on_c, 0, 77, 112
1, 11426, Note_on_c, 0, 45, 80
1, 11429, Note_on_c, 0, 53, 79
1, 11430, Note_on_c, 0, 81, 69
1, 11431, Control_c, 0, 64, 43
1, 11444, Note_off_c, 0, 57, 72
1, 11446, Control_c, 0, 64, 65
1, 11451, Note_off_c, 0, 45, 68
1, 11459, Note_on_c, 0, 87, 37
1, 11461, Control_c, 0, 64, 112
1, 11462, Note_off_c, 0, 53, 64
1, 11476, Control_c, 0, 64, 127
1, 11494, Note_off_c, 0, 87, 52
1, 11503, Note_off_c, 0, 77, 54
1, 11505, Note_off_c, 0, 89, 59
1, 11536, Note_off_c, 0, 84, 62
1, 11555, Note_off_c, 0, 81, 54
1, 11672, Note_on_c, 0, 77, 98
1, 11673, Note_on_c, 0, 89, 93
1, 11676, Note_on_c, 0, 69, 89
1, 11676, Note_on_c, 0, 84, 52
1, 11678, Note_on_c, 0, 81, 64
1, 11678, Note_on_c, 0, 57, 82
1, 11678, Note_on_c, 0, 65, 74
1, 11698, Note_off_c, 0, 84, 60
1, 11711, Note_off_c, 0, 81, 68
1, 11712, Note_off_c, 0, 65, 63
1, 11725, Note_off_c, 0, 77, 66
1, 11730, Note_off_c, 0, 69, 60
1, 11738, Note_off_c, 0, 89, 64
1, 11757, Note_off_c, 0, 57, 49
1, 11794, Control_c, 0, 64, 64
1, 11808, Control_c, 0, 64, 0
1, 11820, Note_on_c, 0, 69, 98
1, 11822, Note_on_c, 0, 78, 100
1, 11822, Note_on_c, 0, 84, 70
1, 11823, Note_on_c, 0, 87, 84
1, 11823, Control_c, 0, 64, 40
1, 11825, Note_on_c, 0, 57, 84
1, 11825, Note_on_c, 0, 63, 91
1, 11826, Note_on_c, 0, 90, 94
1, 11831, Note_on_c, 0, 66, 91
1, 11838, Control_c, 0, 64, 67
1, 11847, Note_off_c, 0, 69, 67
1, 11853, Control_c, 0, 64, 127
1, 11870, Note_off_c, 0, 57, 61
1, 11874, Note_off_c, 0, 66, 66
1, 11876, Note_off_c, 0, 63, 65
1, 11891, Note_off_c, 0, 90, 64
1, 11903, Note_off_c, 0, 78, 56
1, 11909, Note_off_c, 0, 87, 62
1, 11915, Note_off_c, 0, 84, 56
1, 12079, Note_on_c, 0, 78, 97
1, 12080, Note_on_c, 0, 87, 88
1, 12081, Note_on_c, 0, 90, 93
1, 12085, Note_on_c, 0, 57, 91
1, 12091, Note_on_c, 0, 45, 82
1, 12099, Note_on_c, 0, 54, 59
1, 12104, Note_on_c, 0, 84, 52
1, 12123, Note_off_c, 0, 54, 58
1, 12128, Note_off_c, 0, 84, 59
1, 12140, Note_off_c, 0, 57, 62
1, 12153, Note_off_c, 0, 90, 63
1, 12154, Note_off_c, 0, 45, 60
1, 12154, Note_off_c, 0, 78, 58
1, 12159, Note_off_c, 0, 87, 61
1, 12195, Control_c, 0, 64, 83
1, 12210, Control_c, 0, 64, 49
1, 12225, Control_c, 0, 64, 0
1, 12228, Note_on_c, 0, 57, 100
1, 12228, Note_on_c, 0, 93, 106
1, 12229, Note_on_c, 0, 52, 87
1, 12234, Note_on_c, 0, 81, 96
1, 12235, Note_on_c, 0, 79, 89
1, 12237, Note_on_c, 0, 45, 78
1, 12237, Note_on_c, 0, 85, 91
1, 12239, Control_c, 0, 64, 58
1, 12254, Control_c, 0, 64, 79
1, 12256, Note_off_c, 0, 57, 64
1, 12257, Note_off_c, 0, 45, 68
1, 12259, Note_off_c, 0, 81, 62
1, 12266, Note_off_c, 0, 93, 66
1, 12269, Control_c, 0, 64, 127
1, 12271, Note_off_c, 0, 79, 54
1, 12277, Note_off_c, 0, 52, 65
1, 12286, Note_off_c, 0, 85, 66
1, 12495, Note_on_c, 0, 78, 104
1, 12498, Note_on_c, 0, 87, 88
1, 12499, Note_on_c, 0, 90, 99
1, 12501, Note_on_c, 0, 69, 97
1, 12504, Note_on_c, 0, 57, 92
1, 12508, Note_on_c, 0, 84, 70
1, 12514, Note_on_c, 0, 66, 70
1, 12529, Note_off_c, 0, 84, 73
1, 12541, Note_off_c, 0, 69, 65
1, 12542, Note_off_c, 0, 66, 68
1, 12548, Note_off_c, 0, 57, 57
1, 12556, Note_off_c, 0, 78, 56
1, 12562, Note_off_c, 0, 90, 63
1, 12575, Note_off_c, 0, 87, 61
1, 12587, Control_c, 0, 64, 99
1, 12602, Control_c, 0, 64, 55
1, 12617, Control_c, 0, 64, 0
1, 12629, Note_on_c, 0, 64, 95
1, 12629, Note_on_c, 0, 69, 103
1, 12632, Note_on_c, 0, 93, 109
1, 12632, Control_c, 0, 64, 47
1, 12633, Note_on_c, 0, 57, 88
1, 12634, Note_on_c, 0, 79, 97
1, 12634, Note_on_c, 0, 81, 102
1, 12639, Note_on_c, 0, 85, 90
1, 12647, Control_c, 0, 64, 69
1, 12651, Note_off_c, 0, 69, 69
1, 12655, Note_off_c, 0, 81, 58
1, 12662, Control_c, 0, 64, 108
1, 12663, Note_off_c, 0, 79, 59
1, 12663, Note_off_c, 0, 93, 67
1, 12666, Note_off_c, 0, 57, 62
1, 12675, Note_off_c, 0, 64, 68
1, 12677, Control_c, 0, 64, 127
1, 12687, Note_off_c, 0, 85, 64
1, 12895, Note_on_c, 0, 78, 102
1, 12900, Note_on_c, 0, 90, 93
1, 12901, Note_on_c, 0, 87, 83
1, 12907, Note_on_c, 0, 57, 94
1, 12909, Note_on_c, 0, 84, 69
1, 12915, Note_on_c, 0, 45, 88
1, 12919, Note_on_c, 0, 54, 76
1, 12932, Note_off_c, 0, 84, 71
1, 12946, Note_off_c, 0, 54, 66
1, 12955, Note_off_c, 0, 57, 65
1, 12956, Note_off_c, 0, 90, 63
1, 12956, Note_off_c, 0, 78, 60
1, 12967, Note_off_c, 0, 45, 61
1, 12969, Note_off_c, 0, 87, 63
1, 12973, Control_c, 0, 64, 107
1, 12989, Control_c, 0, 64, 55
1, 13003, Control_c, 0, 64, 0
1, 13024, Note_on_c, 0, 45, 73
1, 13024, Note_on_c, 0, 52, 86
1, 13024, Note_on_c, 0, 57, 100
1, 13027, Note_on_c, 0, 93, 104
1, 13030, Note_on_c, 0, 79, 101
1, 13031, Note_on_c, 0, 81, 101
1, 13033, Control_c, 0, 64, 44
1, 13035, Note_on_c, 0, 85, 106
1, 13047, Control_c, 0, 64, 67
1, 13049, Note_off_c, 0, 57, 67
1, 13052, Note_on_c, 0, 91, 60
1, 13052, Note_off_c, 0, 91, 127
1, 13053, Note_off_c, 0, 45, 68
1, 13057, Note_off_c, 0, 81, 51
1, 13062, Control_c, 0, 64, 88
1, 13063, Note_off_c, 0, 93, 68
1, 13070, Note_off_c, 0, 52, 65
1, 13070, Note_off_c, 0, 79, 57
1, 13077, Control_c, 0, 64, 127
1, 13086, Note_off_c, 0, 85, 64
1, 13317, Note_on_c, 0, 78, 101
1, 13321, Note_on_c, 0, 87, 90
1, 13322, Note_on_c, 0, 90, 96
1, 13329, Note_on_c, 0, 84, 72
1, 13334, Note_on_c, 0, 69, 100
1, 13338, Note_on_c, 0, 57, 89
1, 13346, Note_on_c, 0, 66, 71
1, 13349, Note_off_c, 0, 84, 70
1, 13375, Note_off_c, 0, 66, 67
1, 13381, Note_off_c, 0, 69, 59
1, 13397, Note_off_c, 0, 78, 56
1, 13399, Note_off_c, 0, 57, 50
1, 13400, Note_off_c, 0, 90, 63
1, 13412, Note_off_c, 0, 87, 62
1, 13441, Control_c, 0, 64, 114
1, 13455, Control_c, 0, 64, 63
1, 13470, Control_c, 0, 64, 0
1, 13476, Note_on_c, 0, 93, 109
1, 13477, Note_on_c, 0, 69, 103
1, 13477, Note_on_c, 0, 79, 100
1, 13479, Note_on_c, 0, 64, 93
1, 13480, Note_on_c, 0, 81, 106
1, 13480, Note_on_c, 0, 57, 84
1, 13480, Note_on_c, 0, 85, 99
1, 13500, Control_c, 0, 64, 40
1, 13506, Note_off_c, 0, 81, 49
1, 13510, Note_off_c, 0, 69, 69
1, 13515, Control_c, 0, 64, 65
1, 13515, Note_off_c, 0, 79, 58
1, 13518, Note_off_c, 0, 93, 65
1, 13520, Note_on_c, 0, 91, 23
1, 13520, Note_off_c, 0, 91, 127
1, 13525, Note_off_c, 0, 57, 65
1, 13529, Control_c, 0, 64, 84
1, 13536, Note_off_c, 0, 64, 68
1, 13542, Note_off_c, 0, 85, 63
1, 13544, Control_c, 0, 64, 127
1, 13811, Control_c, 0, 64, 90
1, 13826, Control_c, 0, 64, 60
1, 13828, Note_on_c, 0, 78, 105
1, 13829, Note_on_c, 0, 87, 86
1, 13829, Note_on_c, 0, 90, 93
1, 13839, Note_on_c, 0, 84, 75
1, 13840, Note_on_c, 0, 57, 102
1, 13841, Control_c, 0, 64, 42
1, 13848, Note_on_c, 0, 45, 93
1, 13848, Note_on_c, 0, 54, 79
1, 13856, Control_c, 0, 64, 57
1, 13861, Note_off_c, 0, 84, 70
1, 13870, Note_off_c, 0, 54, 70
1, 13870, Control_c, 0, 64, 70
1, 13885, Control_c, 0, 64, 105
1, 13900, Control_c, 0, 64, 127
1, 13931, Note_off_c, 0, 78, 56
1, 13939, Note_off_c, 0, 57, 57
1, 13941, Note_off_c, 0, 90, 63
1, 13942, Poly_aftertouch_c, 0, 77, 0
1, 13945, Note_off_c, 0, 45, 60
1, 13980, Note_off_c, 0, 87, 61
1, 14011, Control_c, 0, 64, 67
1, 14026, Control_c, 0, 64, 0
1, 14033, Note_on_c, 0, 93, 103
1, 14036, Note_on_c, 0, 57, 111
1, 14036, Note_on_c, 0, 79, 98
1, 14037, Note_on_c, 0, 81, 99
1, 14037, Note_on_c, 0, 85, 99
1, 14037, Note_on_c, 0, 52, 87
1, 14041, Control_c, 0, 64, 30
1, 14042, Note_on_c, 0, 45, 95
1, 14056, Control_c, 0, 64, 59
1, 14067, Note_off_c, 0, 81, 58
1, 14069, Note_off_c, 0, 57, 70
1, 14070, Note_off_c, 0, 79, 65
1, 14070, Note_off_c, 0, 93, 68
1, 14071, Control_c, 0, 64, 108
1, 14079, Note_on_c, 0, 91, 30
1, 14079, Note_off_c, 0, 91, 127
1, 14085, Control_c, 0, 64, 127
1, 14094, Note_off_c, 0, 45, 64
1, 14094, Note_off_c, 0, 85, 66
1, 14099, Note_off_c, 0, 52, 64
1, 14308, Control_c, 0, 64, 99
1, 14323, Control_c, 0, 64, 66
1, 14338, Control_c, 0, 64, 33
1, 14352, Control_c, 0, 64, 0
1, 14537, Note_on_c, 0, 57, 102
1, 14539, Note_on_c, 0, 69, 105
1, 14543, Note_on_c, 0, 45, 97
1, 14545, Control_c, 0, 64, 76
1, 14547, Note_on_c, 0, 33, 90
1, 14559, Control_c, 0, 64, 127
1, 14583, Note_off_c, 0, 57, 66
1, 14594, Note_off_c, 0, 45, 64
1, 14595, Note_off_c, 0, 33, 63
1, 14597, Note_off_c, 0, 69, 61
1, 14687, Note_on_c, 0, 57, 93
1, 14689, Note_on_c, 0, 69, 100
1, 14692, Note_on_c, 0, 45, 99
1, 14696, Note_on_c, 0, 33, 93
1, 14729, Note_off_c, 0, 57, 69
1, 14735, Note_off_c, 0, 33, 64
1, 14740, Note_off_c, 0, 45, 66
1, 14746, Note_off_c, 0, 69, 67
1, 14805, Control_c, 0, 64, 70
1, 14820, Control_c, 0, 64, 36
1, 14821, Note_on_c, 0, 64, 105
1, 14822, Note_on_c, 0, 76, 106
1, 14824, Note_on_c, 0, 52, 103
1, 14826, Note_on_c, 0, 40, 95
1, 14834, Control_c, 0, 64, 53
1, 14849, Note_off_c, 0, 76, 69
1, 14849, Control_c, 0, 64, 73
1, 14853, Note_off_c, 0, 64, 69
1, 14859, Note_off_c, 0, 52, 66
1, 14864, Control_c, 0, 64, 127
1, 14865, Note_off_c, 0, 40, 66
1, 14934, Poly_aftertouch_c, 0, 74, 0
1, 15018, Note_on_c, 0, 49, 96
1, 15024, Note_on_c, 0, 61, 85
1, 15024, Note_on_c, 0, 37, 88
1, 15027, Control_c, 0, 64, 77
1, 15032, Note_on_c, 0, 73, 70
1, 15039, Note_off_c, 0, 49, 73
1, 15042, Control_c, 0, 64, 0
1, 15043, Note_off_c, 0, 61, 72
1, 15048, Note_off_c, 0, 73, 65
1, 15049, Note_off_c, 0, 37, 68
1, 15057, Control_c, 0, 64, 30
1, 15071, Control_c, 0, 64, 64
1, 15086, Note_on_c, 0, 57, 104
1, 15086, Control_c, 0, 64, 127
1, 15088, Note_on_c, 0, 69, 101
1, 15096, Note_on_c, 0, 45, 97
1, 15103, Note_on_c, 0, 33, 100
1, 15119, Note_on_c, 0, 68, 45
1, 15119, Note_off_c, 0, 68, 127
1, 15128, Note_off_c, 0, 33, 68
1, 15128, Note_off_c, 0, 45, 68
1, 15128, Note_off_c, 0, 57, 68
1, 15131, Note_off_c, 0, 69, 66
1, 15149, Poly_aftertouch_c, 0, 68, 0
1, 15180, Poly_aftertouch_c, 0, 37, 127
1, 15212, Poly_aftertouch_c, 0, 37, 0
1, 15220, Control_c, 0, 64, 114
1, 15234, Control_c, 0, 64, 63
1, 15249, Control_c, 0, 64, 0
1, 15613, Control_c, 0, 64, 64
1, 15619, Note_on_c, 0, 69, 99
1, 15620, Note_on_c, 0, 57, 101
1, 15621, Note_on_c, 0, 45, 99
1, 15623, Note_on_c, 0, 33, 107
1, 15628, Control_c, 0, 64, 127
1, 15655, Note_off_c, 0, 45, 67
1, 15661, Note_off_c, 0, 33, 62
1, 15668, Note_off_c, 0, 57, 67
1, 15673, Note_off_c, 0, 69, 62
1, 15781, Note_on_c, 0, 57, 95
1, 15784, Note_on_c, 0, 69, 96
1, 15790, Note_on_c, 0, 45, 98
1, 15790, Note_on_c, 0, 33, 95
1, 15815, Note_off_c, 0, 57, 68
1, 15816, Note_off_c, 0, 33, 64
1, 15822, Note_off_c, 0, 45, 67
1, 15834, Note_off_c, 0, 69, 67
1, 15939, Control_c, 0, 64, 75
1, 15954, Control_c, 0, 64, 0
1, 15971, Note_on_c, 0, 55, 98
1, 15972, Note_on_c, 0, 67, 102
1, 15975, Note_on_c, 0, 79, 97
1, 15975, Note_on_c, 0, 43, 100
1, 15983, Control_c, 0, 64, 47
1, 15984, Note_on_c, 0, 77, 71
1, 15998, Control_c, 0, 64, 69
1, 16001, Note_off_c, 0, 77, 65
1, 16006, Note_off_c, 0, 43, 67
1, 16006, Note_off_c, 0, 55, 68
1, 16007, Note_off_c, 0, 67, 69
1, 16007, Note_off_c, 0, 79, 68
1, 16013, Control_c, 0, 64, 124
1, 16028, Control_c, 0, 64, 127
1, 16183, Note_on_c, 0, 52, 91
1, 16186, Note_on_c, 0, 76, 91
1, 16189, Note_on_c, 0, 64, 81
1, 16190, Note_on_c, 0, 40, 83
1, 16192, Control_c, 0, 64, 92
1, 16210, Note_off_c, 0, 52, 72
1, 16210, Note_off_c, 0, 76, 72
1, 16214, Control_c, 0, 64, 53
1, 16216, Note_off_c, 0, 64, 73
1, 16221, Note_off_c, 0, 40, 66
1, 16229, Control_c, 0, 64, 0
1, 16244, Control_c, 0, 64, 37
1, 16259, Control_c, 0, 64, 59
1, 16266, Note_on_c, 0, 61, 98
1, 16270, Note_on_c, 0, 73, 92
1, 16274, Control_c, 0, 64, 96
1, 16275, Note_on_c, 0, 49, 104
1, 16280, Note_on_c, 0, 75, 66
1, 16281, Note_on_c, 0, 37, 96
1, 16288, Control_c, 0, 64, 127
1, 16298, Note_off_c, 0, 75, 64
1, 16300, Note_off_c, 0, 61, 61
1, 16305, Note_off_c, 0, 37, 67
1, 16308, Note_off_c, 0, 49, 63
1, 16320, Note_off_c, 0, 73, 61
1, 16377, Control_c, 0, 64, 99
1, 16392, Control_c, 0, 64, 64
1, 16407, Control_c, 0, 64, 60
1, 16422, Control_c, 0, 64, 79
1, 16424, Note_on_c, 0, 71, 107
1, 16424, Note_on_c, 0, 83, 104
1, 16425, Note_on_c, 0, 59, 100
1, 16433, Note_on_c, 0, 47, 90
1, 16437, Control_c, 0, 64, 127
1, 16453, Note_off_c, 0, 71, 68
1, 16456, Note_off_c, 0, 83, 67
1, 16457, Note_on_c, 0, 48, 62
1, 16457, Note_off_c, 0, 47, 70
1, 16457, Note_off_c, 0, 59, 65
1, 16481, Note_off_c, 0, 48, 61
1, 16594, Note_on_c, 0, 79, 87
1, 16598, Note_on_c, 0, 55, 86
1, 16600, Note_on_c, 0, 67, 83
1, 16604, Note_on_c, 0, 43, 78
1, 16607, Note_off_c, 0, 79, 76
1, 16612, Note_on_c, 0, 45, 55
1, 16614, Control_c, 0, 64, 65
1, 16618, Note_off_c, 0, 55, 70
1, 16619, Note_off_c, 0, 67, 72
1, 16624, Note_on_c, 0, 69, 32
1, 16624, Note_off_c, 0, 69, 127
1, 16629, Control_c, 0, 64, 0
1, 16633, Note_off_c, 0, 43, 64
1, 16636, Note_off_c, 0, 45, 53
1, 16661, Note_on_c, 0, 64, 95
1, 16663, Note_on_c, 0, 76, 93
1, 16673, Control_c, 0, 64, 52
1, 16678, Note_on_c, 0, 52, 93
1, 16681, Note_on_c, 0, 40, 88
1, 16688, Control_c, 0, 64, 78
1, 16703, Note_off_c, 0, 64, 66
1, 16703, Control_c, 0, 64, 127
1, 16705, Note_off_c, 0, 52, 66
1, 16706, Note_off_c, 0, 40, 68
1, 16714, Note_off_c, 0, 76, 64
1, 16777, Control_c, 0, 64, 81
1, 16792, Control_c, 0, 64, 71
1, 16806, Control_c, 0, 64, 85
1, 16821, Control_c, 0, 64, 127
1, 16835, Note_on_c, 0, 73, 100
1, 16835, Note_on_c, 0, 85, 100
1, 16836, Note_on_c, 0, 61, 95
1, 16846, Note_on_c, 0, 49, 82
1, 16865, Note_off_c, 0, 61, 63
1, 16869, Note_off_c, 0, 49, 69
1, 16869, Note_off_c, 0, 73, 65
1, 16874, Note_off_c, 0, 85, 63
1, 17015, Note_on_c, 0, 59, 76
1, 17021, Note_on_c, 0, 47, 73
1, 17027, Note_on_c, 0, 71, 61
1, 17030, Note_on_c, 0, 83, 52
1, 17036, Control_c, 0, 64, 105
1, 17039, Note_off_c, 0, 59, 68
1, 17045, Note_off_c, 0, 71, 63
1, 17046, Note_off_c, 0, 47, 67
1, 17051, Note_off_c, 0, 83, 60
1, 17051, Control_c, 0, 64, 60
1, 17066, Control_c, 0, 64, 0
1, 17079, Note_on_c, 0, 81, 88
1, 17081, Note_on_c, 0, 69, 90
1, 17101, Note_on_c, 0, 45, 84
1, 17107, Note_on_c, 0, 57, 81
1, 17125, Control_c, 0, 64, 39
1, 17127, Note_off_c, 0, 69, 62
1, 17131, Note_off_c, 0, 57, 69
1, 17132, Note_off_c, 0, 45, 67
1, 17133, Note_off_c, 0, 81, 64
1, 17140, Control_c, 0, 64, 62
1, 17155, Control_c, 0, 64, 76
1, 17170, Control_c, 0, 64, 127
1, 17271, Note_on_c, 0, 88, 80
1, 17274, Note_on_c, 0, 64, 75
1, 17280, Note_on_c, 0, 76, 69
1, 17289, Note_on_c, 0, 52, 65
1, 17292, Note_off_c, 0, 88, 69
1, 17298, Note_off_c, 0, 64, 70
1, 17303, Note_off_c, 0, 76, 69
1, 17318, Note_off_c, 0, 52, 65
1, 17423, Note_on_c, 0, 61, 69
1, 17424, Note_on_c, 0, 85, 65
1, 17425, Note_on_c, 0, 49, 72
1, 17427, Note_on_c, 0, 73, 75
1, 17450, Note_off_c, 0, 49, 66
1, 17452, Note_off_c, 0, 61, 66
1, 17453, Note_off_c, 0, 73, 65
1, 17454, Note_off_c, 0, 85, 65
1, 17525, Control_c, 0, 64, 69
1, 17540, Control_c, 0, 64, 44
1, 17546, Note_on_c, 0, 81, 85
1, 17549, Note_on_c, 0, 45, 78
1, 17551, Note_on_c, 0, 69, 69
1, 17555, Control_c, 0, 64, 48
1, 17555, Note_on_c, 0, 57, 69
1, 17569, Control_c, 0, 64, 61
1, 17571, Note_off_c, 0, 45, 67
1, 17571, Note_off_c, 0, 69, 64
1, 17581, Note_off_c, 0, 57, 67
1, 17584, Control_c, 0, 64, 77
1, 17585, Note_off_c, 0, 81, 65
1, 17599, Control_c, 0, 64, 127
1, 17688, Note_on_c, 0, 91, 85
1, 17704, Note_on_c, 0, 55, 79
1, 17709, Note_on_c, 0, 79, 67
1, 17711, Note_on_c, 0, 67, 59
1, 17719, Note_on_c, 0, 65, 56
1, 17721, Note_off_c, 0, 91, 65
1, 17731, Note_off_c, 0, 55, 68
1, 17732, Note_off_c, 0, 79, 71
1, 17733, Note_off_c, 0, 67, 64
1, 17742, Note_off_c, 0, 65, 59
1, 17823, Note_on_c, 0, 88, 91
1, 17823, Note_on_c, 0, 64, 84
1, 17830, Note_on_c, 0, 76, 83
1, 17831, Note_on_c, 0, 52, 82
1, 17851, Note_off_c, 0, 64, 64
1, 17853, Note_off_c, 0, 76, 68
1, 17860, Note_off_c, 0, 52, 66
1, 17864, Note_off_c, 0, 88, 64
1, 17874, Control_c, 0, 64, 87
1, 17889, Control_c, 0, 64, 63
1, 17904, Control_c, 0, 64, 62
1, 17919, Control_c, 0, 64, 70
1, 17933, Note_on_c, 0, 73, 89
1, 17933, Control_c, 0, 64, 90
1, 17938, Note_on_c, 0, 85, 89
1, 17942, Note_on_c, 0, 61, 90
1, 17948, Note_on_c, 0, 49, 74
1, 17948, Control_c, 0, 64, 127
1, 17957, Note_off_c, 0, 73, 66
1, 17966, Note_off_c, 0, 61, 65
1, 17977, Note_off_c, 0, 49, 64
1, 17980, Note_off_c, 0, 85, 65
1, 18061, Note_on_c, 0, 95, 94
1, 18066, Note_on_c, 0, 83, 90
1, 18069, Note_on_c, 0, 71, 94
1, 18073, Note_on_c, 0, 59, 84
1, 18087, Note_off_c, 0, 83, 66
1, 18095, Note_off_c, 0, 71, 61
1, 18097, Note_off_c, 0, 95, 66
1, 18097, Note_off_c, 0, 59, 71
1, 18173, Note_on_c, 0, 91, 93
1, 18175, Note_on_c, 0, 79, 92
1, 18178, Note_on_c, 0, 67, 92
1, 18184, Note_on_c, 0, 55, 83
1, 18209, Note_off_c, 0, 91, 69
1, 18210, Note_off_c, 0, 67, 60
1, 18211, Note_off_c, 0, 55, 66
1, 18213, Note_off_c, 0, 79, 67
1, 18244, Control_c, 0, 64, 78
1, 18259, Control_c, 0, 64, 49
1, 18274, Control_c, 0, 64, 45
1, 18279, Note_on_c, 0, 76, 99
1, 18280, Note_on_c, 0, 88, 99
1, 18285, Note_on_c, 0, 64, 90
1, 18287, Note_on_c, 0, 52, 85
1, 18289, Control_c, 0, 64, 58
1, 18303, Note_off_c, 0, 64, 73
1, 18304, Control_c, 0, 64, 70
1, 18306, Note_off_c, 0, 76, 67
1, 18307, Note_off_c, 0, 52, 72
1, 18317, Note_off_c, 0, 88, 68
1, 18318, Control_c, 0, 64, 98
1, 18333, Control_c, 0, 64, 127
1, 18395, Note_on_c, 0, 73, 95
1, 18396, Note_on_c, 0, 85, 93
1, 18398, Note_on_c, 0, 97, 94
1, 18409, Note_on_c, 0, 61, 81
1, 18430, Note_off_c, 0, 73, 61
1, 18432, Note_off_c, 0, 61, 67
1, 18436, Note_off_c, 0, 85, 63
1, 18438, Note_off_c, 0, 97, 64
1, 18508, Note_on_c, 0, 95, 96
1, 18511, Note_on_c, 0, 83, 94
1, 18514, Note_on_c, 0, 71, 90
1, 18522, Note_on_c, 0, 59, 84
1, 18549, Note_off_c, 0, 83, 66
1, 18552, Note_off_c, 0, 95, 67
1, 18553, Note_off_c, 0, 71, 64
1, 18560, Note_off_c, 0, 59, 64
1, 18579, Control_c, 0, 64, 103
1, 18594, Control_c, 0, 64, 60
1, 18608, Control_c, 0, 64, 0
1, 18633, Note_on_c, 0, 93, 104
1, 18637, Note_on_c, 0, 57, 80
1, 18638, Control_c, 0, 64, 40
1, 18640, Note_on_c, 0, 81, 74
1, 18643, Note_on_c, 0, 69, 77
1, 18653, Control_c, 0, 64, 63
1, 18659, Note_off_c, 0, 57, 69
1, 18663, Note_off_c, 0, 81, 71
1, 18663, Note_off_c, 0, 69, 71
1, 18668, Control_c, 0, 64, 84
1, 18678, Note_off_c, 0, 93, 66
1, 18682, Control_c, 0, 64, 127
1, 18781, Note_on_c, 0, 103, 89
1, 18796, Note_on_c, 0, 79, 76
1, 18797, Note_on_c, 0, 91, 61
1, 18801, Note_on_c, 0, 67, 79
1, 18809, Note_off_c, 0, 103, 59
1, 18814, Note_off_c, 0, 91, 65
1, 18820, Note_off_c, 0, 79, 65
1, 18829, Note_off_c, 0, 67, 65
1, 18907, Note_on_c, 0, 100, 90
1, 18917, Note_on_c, 0, 88, 76
1, 18917, Note_on_c, 0, 76, 76
1, 18920, Note_on_c, 0, 64, 78
1, 18937, Note_off_c, 0, 76, 73
1, 18939, Note_off_c, 0, 88, 70
1, 18941, Note_off_c, 0, 64, 70
1, 18951, Note_off_c, 0, 100, 66
1, 19022, Note_on_c, 0, 85, 85
1, 19024, Note_on_c, 0, 97, 87
1, 19026, Note_on_c, 0, 73, 77
1, 19029, Note_on_c, 0, 61, 82
1, 19045, Note_off_c, 0, 73, 71
1, 19051, Note_off_c, 0, 61, 69
1, 19058, Note_off_c, 0, 97, 63
1, 19063, Note_off_c, 0, 85, 60
1, 19125, Note_on_c, 0, 59, 84
1, 19128, Note_on_c, 0, 71, 81
1, 19128, Note_on_c, 0, 95, 88
1, 19131, Note_on_c, 0, 83, 86
1, 19148, Note_off_c, 0, 71, 68
1, 19159, Note_off_c, 0, 59, 64
1, 19159, Note_off_c, 0, 95, 61
1, 19164, Note_off_c, 0, 83, 61
1, 19239, Note_on_c, 0, 57, 82
1, 19240, Note_on_c, 0, 69, 80
1, 19240, Note_on_c, 0, 81, 85
1, 19241, Note_on_c, 0, 93, 84
1, 19262, Note_off_c, 0, 93, 68
1, 19265, Note_off_c, 0, 69, 64
1, 19270, Note_off_c, 0, 81, 60
1, 19276, Note_off_c, 0, 57, 64
1, 19346, Note_on_c, 0, 79, 84
1, 19346, Note_on_c, 0, 55, 86
1, 19346, Note_on_c, 0, 91, 84
1, 19349, Note_on_c, 0, 67, 79
1, 19375, Note_off_c, 0, 67, 65
1, 19380, Note_off_c, 0, 91, 63
1, 19386, Note_off_c, 0, 79, 62
1, 19392, Note_off_c, 0, 55, 65
1, 19455, Note_on_c, 0, 88, 84
1, 19456, Note_on_c, 0, 64, 91
1, 19456, Note_on_c, 0, 76, 87
1, 19461, Note_on_c, 0, 52, 87
1, 19475, Note_off_c, 0, 64, 74
1, 19482, Note_off_c, 0, 76, 65
1, 19486, Note_off_c, 0, 52, 66
1, 19493, Note_off_c, 0, 88, 61
1, 19553, Note_on_c, 0, 73, 93
1, 19555, Note_on_c, 0, 61, 94
1, 19558, Note_on_c, 0, 85, 82
1, 19562, Note_on_c, 0, 49, 92
1, 19582, Note_off_c, 0, 85, 66
1, 19587, Note_off_c, 0, 49, 67
1, 19589, Note_off_c, 0, 73, 59
1, 19593, Note_off_c, 0, 61, 62
1, 19653, Note_on_c, 0, 83, 96
1, 19656, Note_on_c, 0, 71, 95
1, 19658, Note_on_c, 0, 59, 97
1, 19663, Note_on_c, 0, 47, 90
1, 19687, Note_off_c, 0, 83, 68
1, 19689, Note_off_c, 0, 71, 67
1, 19690, Note_off_c, 0, 59, 63
1, 19692, Note_off_c, 0, 47, 66
1, 19755, Note_on_c, 0, 69, 98
1, 19757, Note_on_c, 0, 81, 96
1, 19760, Note_on_c, 0, 57, 92
1, 19760, Note_on_c, 0, 45, 91
1, 19790, Note_off_c, 0, 57, 64
1, 19790, Note_off_c, 0, 81, 62
1, 19791, Note_off_c, 0, 69, 67
1, 19798, Note_off_c, 0, 45, 67
1, 19860, Note_on_c, 0, 67, 98
1, 19862, Note_on_c, 0, 55, 97
1, 19862, Note_on_c, 0, 79, 94
1, 19865, Note_on_c, 0, 43, 96
1, 19894, Note_off_c, 0, 79, 70
1, 19897, Note_off_c, 0, 55, 66
1, 19898, Note_off_c, 0, 67, 67
1, 19906, Note_off_c, 0, 43, 64
1, 19975, Note_on_c, 0, 64, 98
1, 19978, Note_on_c, 0, 76, 93
1, 19980, Note_on_c, 0, 52, 96
1, 19990, Note_on_c, 0, 40, 78
1, 20005, Note_off_c, 0, 52, 69
1, 20011, Note_off_c, 0, 64, 69
1, 20012, Note_off_c, 0, 76, 63
1, 20013, Note_off_c, 0, 40, 66
1, 20079, Note_on_c, 0, 49, 102
1, 20085, Note_on_c, 0, 61, 95
1, 20087, Note_on_c, 0, 37, 94
1, 20092, Note_on_c, 0, 73, 76
1, 20111, Note_off_c, 0, 61, 59
1, 20112, Note_off_c, 0, 37, 69
1, 20114, Note_off_c, 0, 73, 70
1, 20115, Note_off_c, 0, 49, 68
1, 20175, Poly_aftertouch_c, 0, 36, 127
1, 20181, Note_on_c, 0, 59, 104
1, 20188, Note_on_c, 0, 47, 97
1, 20188, Note_on_c, 0, 71, 78
1, 20190, Note_on_c, 0, 72, 83
1, 20193, Note_on_c, 0, 35, 94
1, 20208, Note_off_c, 0, 72, 72
1, 20219, Poly_aftertouch_c, 0, 36, 0
1, 20219, Note_off_c, 0, 59, 67
1, 20222, Note_off_c, 0, 71, 62
1, 20225, Note_off_c, 0, 35, 65
1, 20225, Note_off_c, 0, 47, 67
1, 20255, Control_c, 0, 64, 72
1, 20270, Control_c, 0, 64, 52
1, 20285, Control_c, 0, 64, 46
1, 20296, Note_on_c, 0, 69, 98
1, 20297, Note_on_c, 0, 57, 95
1, 20298, Note_on_c, 0, 45, 102
1, 20300, Control_c, 0, 64, 76
1, 20306, Note_on_c, 0, 33, 91
1, 20315, Control_c, 0, 64, 127
1, 20333, Note_off_c, 0, 69, 65
1, 20335, Note_off_c, 0, 57, 67
1, 20341, Note_off_c, 0, 45, 65
1, 20345, Note_off_c, 0, 33, 62
1, 20407, Note_on_c, 0, 55, 98
1, 20409, Note_on_c, 0, 43, 96
1, 20409, Note_on_c, 0, 67, 94
1, 20453, Note_off_c, 0, 67, 64
1, 20455, Note_off_c, 0, 43, 63
1, 20455, Note_off_c, 0, 55, 64
1, 20513, Note_on_c, 0, 64, 87
1, 20514, Note_on_c, 0, 52, 99
1, 20522, Note_on_c, 0, 40, 91
1, 20549, Note_off_c, 0, 40, 69
1, 20549, Note_off_c, 0, 52, 69
1, 20561, Note_off_c, 0, 64, 65
1, 20625, Control_c, 0, 64, 68
1, 20635, Note_on_c, 0, 49, 99
1, 20640, Control_c, 0, 64, 37
1, 20644, Note_on_c, 0, 37, 91
1, 20644, Note_on_c, 0, 61, 85
1, 20654, Control_c, 0, 64, 55
1, 20668, Note_off_c, 0, 37, 70
1, 20669, Control_c, 0, 64, 79
1, 20673, Note_off_c, 0, 49, 66
1, 20684, Control_c, 0, 64, 127
1, 20707, Note_off_c, 0, 61, 62
1, 20764, Note_on_c, 0, 47, 102
1, 20768, Note_on_c, 0, 35, 103
1, 20770, Note_on_c, 0, 59, 101
1, 20804, Note_off_c, 0, 47, 65
1, 20810, Note_off_c, 0, 35, 65
1, 20818, Note_off_c, 0, 59, 66
1, 20869, Control_c, 0, 64, 114
1, 20884, Control_c, 0, 64, 79
1, 20894, Note_on_c, 0, 57, 100
1, 20895, Note_on_c, 0, 45, 104
1, 20898, Note_on_c, 0, 33, 96
1, 20899, Control_c, 0, 64, 127
1, 20933, Note_off_c, 0, 45, 66
1, 20935, Note_off_c, 0, 57, 66
1, 20946, Note_off_c, 0, 33, 61
1, 20974, Control_c, 0, 64, 97
1, 20989, Control_c, 0, 64, 67
1, 21003, Control_c, 0, 64, 55
1, 21018, Control_c, 0, 64, 82
1, 21030, Note_on_c, 0, 55, 95
1, 21033, Control_c, 0, 64, 127
1, 21036, Note_on_c, 0, 43, 109
1, 21041, Note_on_c, 0, 31, 91
1, 21075, Note_off_c, 0, 43, 66
1, 21078, Note_off_c, 0, 55, 66
1, 21079, Note_off_c, 0, 31, 65
1, 21092, Control_c, 0, 64, 107
1, 21107, Control_c, 0, 64, 69
1, 21122, Control_c, 0, 64, 53
1, 21137, Control_c, 0, 64, 65
1, 21151, Control_c, 0, 64, 127
1, 21188, Note_on_c, 0, 52, 94
1, 21190, Note_on_c, 0, 40, 99
1, 21196, Note_on_c, 0, 28, 99
1, 21221, Note_off_c, 0, 28, 71
1, 21227, Note_off_c, 0, 40, 67
1, 21254, Note_off_c, 0, 52, 56
1, 21329, Control_c, 0, 64, 87
1, 21343, Control_c, 0, 64, 61
1, 21358, Control_c, 0, 64, 38
1, 21369, Note_on_c, 0, 57, 88
1, 21370, Note_on_c, 0, 45, 102
1, 21373, Control_c, 0, 64, 64
1, 21374, Note_on_c, 0, 33, 102
1, 21388, Control_c, 0, 64, 108
1, 21403, Control_c, 0, 64, 127
1, 21405, Note_off_c, 0, 45, 65
1, 21411, Note_off_c, 0, 33, 65
1, 21468, Note_off_c, 0, 57, 60
1, 21603, Control_c, 0, 64, 77
1, 21617, Control_c, 0, 64, 34
1, 21632, Control_c, 0, 64, 0
1, 21638, Note_on_c, 0, 50, 81
1, 21662, Note_on_c, 0, 38, 110
1, 21662, Control_c, 0, 64, 46
1, 21665, Note_on_c, 0, 26, 97
1, 21673, Note_off_c, 0, 50, 67
1, 21677, Control_c, 0, 64, 86
1, 21692, Control_c, 0, 64, 127
1, 21698, Note_off_c, 0, 26, 66
1, 21734, Note_off_c, 0, 38, 63
1, 21957, Note_on_c, 0, 57, 75
1, 21959, Control_c, 0, 64, 80
1, 21961, Note_on_c, 0, 54, 65
1, 21962, Note_on_c, 0, 66, 71
1, 21968, Note_on_c, 0, 62, 65
1, 21974, Control_c, 0, 64, 50
1, 21982, Note_off_c, 0, 54, 62
1, 21982, Note_off_c, 0, 57, 69
1, 21989, Control_c, 0, 64, 0
1, 21993, Note_off_c, 0, 66, 63
1, 22000, Note_off_c, 0, 62, 65
1, 22208, Note_on_c, 0, 57, 81
1, 22210, Note_on_c, 0, 54, 73
1, 22211, Note_on_c, 0, 66, 79
1, 22213, Note_on_c, 0, 62, 71
1, 22234, Note_off_c, 0, 57, 68
1, 22234, Note_off_c, 0, 54, 67
1, 22241, Note_off_c, 0, 62, 67
1, 22256, Note_off_c, 0, 66, 58
1, 22434, Note_on_c, 0, 33, 96
1, 22436, Note_on_c, 0, 21, 98
1, 22441, Control_c, 0, 64, 40
1, 22456, Control_c, 0, 64, 84
1, 22471, Control_c, 0, 64, 127
1, 22472, Note_off_c, 0, 33, 65
1, 22475, Note_on_c, 0, 66, 42
1, 22489, Note_off_c, 0, 21, 63
1, 22510, Note_off_c, 0, 66, 50
1, 22679, Control_c, 0, 64, 116
1, 22693, Note_on_c, 0, 57, 68
1, 22694, Note_on_c, 0, 66, 72
1, 22694, Control_c, 0, 64, 58
1, 22697, Note_on_c, 0, 54, 62
1, 22700, Note_on_c, 0, 62, 61
1, 22709, Control_c, 0, 64, 0
1, 22718, Note_off_c, 0, 54, 59
1, 22724, Note_off_c, 0, 57, 66
1, 22727, Note_off_c, 0, 66, 64
1, 22733, Note_off_c, 0, 62, 63
1, 22907, Note_on_c, 0, 54, 70
1, 22908, Note_on_c, 0, 57, 69
1, 22911, Note_on_c, 0, 66, 73
1, 22914, Note_on_c, 0, 62, 64
1, 22942, Note_off_c, 0, 54, 66
1, 22944, Note_off_c, 0, 57, 66
1, 22950, Note_off_c, 0, 62, 65
1, 22956, Note_off_c, 0, 66, 59
1, 23135, Note_on_c, 0, 38, 107
1, 23137, Note_on_c, 0, 26, 99
1, 23146, Control_c, 0, 64, 39
1, 23161, Control_c, 0, 64, 80
1, 23168, Note_off_c, 0, 26, 68
1, 23175, Control_c, 0, 64, 127
1, 23177, Note_off_c, 0, 38, 61
1, 23191, Note_on_c, 0, 66, 43
1, 23231, Note_off_c, 0, 66, 50
1, 23369, Control_c, 0, 64, 108
1, 23370, Note_on_c, 0, 54, 65
1, 23370, Note_on_c, 0, 57, 59
1, 23373, Note_on_c, 0, 66, 62
1, 23378, Note_on_c, 0, 62, 57
1, 23383, Control_c, 0, 64, 68
1, 23398, Control_c, 0, 64, 0
1, 23399, Note_off_c, 0, 54, 64
1, 23410, Note_off_c, 0, 66, 63
1, 23415, Note_off_c, 0, 57, 62
1, 23415, Note_off_c, 0, 62, 62
1, 23576, Note_on_c, 0, 66, 77
1, 23578, Note_on_c, 0, 54, 67
1, 23578, Note_on_c, 0, 57, 59
1, 23579, Note_on_c, 0, 62, 62
1, 23603, Note_off_c, 0, 54, 66
1, 23606, Note_off_c, 0, 57, 64
1, 23609, Note_off_c, 0, 62, 64
1, 23636, Note_off_c, 0, 66, 62
1, 23776, Note_on_c, 0, 33, 94
1, 23778, Note_on_c, 0, 21, 95
1, 23804, Control_c, 0, 64, 35
1, 23808, Note_off_c, 0, 33, 62
1, 23811, Note_off_c, 0, 21, 65
1, 23819, Control_c, 0, 64, 69
1, 23834, Control_c, 0, 64, 83
1, 23849, Control_c, 0, 64, 118
1, 23863, Control_c, 0, 64, 127
1, 23946, Note_on_c, 0, 54, 79
1, 23951, Note_on_c, 0, 66, 88
1, 23952, Note_on_c, 0, 57, 61
1, 23956, Note_on_c, 0, 62, 69
1, 23977, Note_off_c, 0, 57, 64
1, 23982, Note_off_c, 0, 62, 65
1, 23990, Note_off_c, 0, 54, 57
1, 24014, Note_off_c, 0, 66, 61
1, 24145, Control_c, 0, 64, 76
1, 24160, Control_c, 0, 64, 45
1, 24166, Note_on_c, 0, 57, 95
1, 24166, Note_on_c, 0, 66, 90
1, 24166, Note_on_c, 0, 69, 98
1, 24175, Control_c, 0, 64, 0
1, 24185, Note_on_c, 0, 62, 56
1, 24190, Control_c, 0, 64, 50
1, 24205, Control_c, 0, 64, 67
1, 24208, Note_off_c, 0, 57, 60
1, 24208, Note_off_c, 0, 62, 59
1, 24217, Note_off_c, 0, 66, 64
1, 24220, Control_c, 0, 64, 89
1, 24235, Control_c, 0, 64, 127
1, 24244, Note_off_c, 0, 69, 59
1, 24427, Control_c, 0, 64, 61
1, 24437, Note_on_c, 0, 74, 99
1, 24440, Note_on_c, 0, 69, 82
1, 24441, Note_on_c, 0, 26, 82
1, 24441, Note_on_c, 0, 38, 97
1, 24441, Note_on_c, 0, 62, 90
1, 24446, Note_on_c, 0, 66, 88
1, 24449, Control_c, 0, 64, 0
1, 24464, Note_off_c, 0, 26, 66
1, 24464, Control_c, 0, 64, 35
1, 24479, Control_c, 0, 64, 58
1, 24483, Note_off_c, 0, 38, 64
1, 24485, Note_off_c, 0, 62, 66
1, 24494, Control_c, 0, 64, 78
1, 24504, Note_off_c, 0, 74, 67
1, 24509, Control_c, 0, 64, 127
1, 24513, Note_off_c, 0, 66, 65
1, 24514, Note_off_c, 0, 69, 62
1, 24564, Poly_aftertouch_c, 0, 64, 0
1, 24679, Note_on_c, 0, 57, 76
1, 24686, Control_c, 0, 64, 80
1, 24693, Note_on_c, 0, 54, 58
1, 24701, Control_c, 0, 64, 48
1, 24707, Note_off_c, 0, 57, 67
1, 24716, Control_c, 0, 64, 0
1, 24727, Note_off_c, 0, 54, 66
1, 24864, Note_on_c, 0, 74, 95
1, 24874, Note_on_c, 0, 69, 78
1, 24876, Note_on_c, 0, 57, 64
1, 24878, Note_on_c, 0, 62, 84
1, 24880, Note_on_c, 0, 54, 70
1, 24886, Note_on_c, 0, 66, 74
1, 24894, Note_off_c, 0, 57, 66
1, 24905, Note_off_c, 0, 54, 67
1, 25010, Note_off_c, 0, 62, 63
1, 25022, Note_off_c, 0, 69, 62
1, 25034, Note_off_c, 0, 66, 64
1, 25039, Note_off_c, 0, 74, 66
1, 25043, Control_c, 0, 64, 40
1, 25057, Control_c, 0, 64, 74
1, 25060, Note_on_c, 0, 33, 90
1, 25060, Note_on_c, 0, 45, 92
1, 25072, Control_c, 0, 64, 127
1, 25088, Note_off_c, 0, 33, 68
1, 25093, Note_off_c, 0, 45, 64
1, 25237, Note_on_c, 0, 78, 98
1, 25244, Note_on_c, 0, 66, 98
1, 25255, Note_on_c, 0, 57, 79
1, 25263, Note_off_c, 0, 66, 72
1, 25263, Note_on_c, 0, 54, 68
1, 25273, Note_off_c, 0, 78, 67
1, 25281, Note_off_c, 0, 57, 69
1, 25292, Note_off_c, 0, 54, 65
1, 25427, Note_on_c, 0, 54, 79
1, 25432, Note_on_c, 0, 57, 66
1, 25457, Note_off_c, 0, 57, 69
1, 25465, Note_off_c, 0, 54, 62
1, 25510, Note_on_c, 0, 69, 84
1, 25515, Note_on_c, 0, 62, 77
1, 25534, Note_off_c, 0, 69, 65
1, 25539, Note_off_c, 0, 62, 69
1, 25549, Note_on_c, 0, 66, 30
1, 25568, Control_c, 0, 64, 95
1, 25570, Note_off_c, 0, 66, 0
1, 25581, Note_on_c, 0, 74, 101
1, 25583, Control_c, 0, 64, 58
1, 25585, Note_on_c, 0, 62, 93
1, 25585, Note_on_c, 0, 66, 71
1, 25597, Note_on_c, 0, 50, 90
1, 25598, Control_c, 0, 64, 0
1, 25600, Note_on_c, 0, 38, 85
1, 25611, Note_off_c, 0, 62, 66
1, 25613, Control_c, 0, 64, 33
1, 25624, Note_off_c, 0, 74, 69
1, 25628, Control_c, 0, 64, 55
1, 25630, Note_off_c, 0, 38, 69
1, 25636, Note_off_c, 0, 50, 65
1, 25636, Note_off_c, 0, 66, 65
1, 25642, Control_c, 0, 64, 68
1, 25657, Control_c, 0, 64, 106
1, 25672, Control_c, 0, 64, 127
1, 25786, Note_on_c, 0, 57, 76
1, 25797, Note_on_c, 0, 54, 63
1, 25806, Control_c, 0, 64, 89
1, 25818, Note_off_c, 0, 57, 64
1, 25821, Control_c, 0, 64, 58
1, 25827, Note_off_c, 0, 54, 64
1, 25836, Control_c, 0, 64, 0
1, 25988, Note_on_c, 0, 54, 72
1, 25990, Note_on_c, 0, 74, 92
1, 25994, Note_on_c, 0, 69, 79
1, 26002, Note_on_c, 0, 62, 80
1, 26002, Note_on_c, 0, 66, 78
1, 26011, Note_off_c, 0, 54, 66
1, 26129, Note_off_c, 0, 62, 63
1, 26137, Note_off_c, 0, 66, 64
1, 26140, Note_off_c, 0, 69, 63
1, 26163, Note_off_c, 0, 74, 66
1, 26177, Note_on_c, 0, 45, 91
1, 26181, Note_on_c, 0, 33, 83
1, 26184, Control_c, 0, 64, 64
1, 26199, Control_c, 0, 64, 127
1, 26208, Note_off_c, 0, 33, 66
1, 26220, Note_off_c, 0, 45, 65
1, 26348, Note_on_c, 0, 81, 97
1, 26355, Note_on_c, 0, 69, 93
1, 26360, Note_on_c, 0, 74, 79
1, 26366, Note_on_c, 0, 57, 71
1, 26369, Note_on_c, 0, 62, 72
1, 26375, Note_on_c, 0, 54, 65
1, 26380, Note_off_c, 0, 74, 71
1, 26384, Note_off_c, 0, 69, 59
1, 26386, Note_off_c, 0, 81, 67
1, 26396, Note_off_c, 0, 62, 65
1, 26398, Note_off_c, 0, 57, 65
1, 26410, Note_off_c, 0, 54, 60
1, 26527, Note_on_c, 0, 57, 72
1, 26529, Note_on_c, 0, 54, 70
1, 26531, Note_on_c, 0, 62, 62
1, 26553, Note_off_c, 0, 57, 67
1, 26554, Note_off_c, 0, 62, 65
1, 26579, Note_off_c, 0, 54, 61
1, 26605, Note_on_c, 0, 66, 85
1, 26611, Note_on_c, 0, 78, 78
1, 26631, Note_off_c, 0, 78, 71
1, 26632, Note_off_c, 0, 66, 66
1, 26660, Control_c, 0, 64, 110
1, 26675, Control_c, 0, 64, 57
1, 26697, Control_c, 0, 64, 0
1, 26700, Note_on_c, 0, 74, 101
1, 26701, Note_on_c, 0, 62, 90
1, 26706, Note_on_c, 0, 50, 92
1, 26709, Note_on_c, 0, 38, 88
1, 26712, Control_c, 0, 64, 28
1, 26727, Control_c, 0, 64, 47
1, 26734, Note_off_c, 0, 74, 68
1, 26735, Note_off_c, 0, 62, 67
1, 26738, Note_off_c, 0, 38, 70
1, 26739, Note_off_c, 0, 50, 66
1, 26741, Control_c, 0, 64, 64
1, 26756, Control_c, 0, 64, 78
1, 26771, Control_c, 0, 64, 127
1, 26909, Note_on_c, 0, 54, 60
1, 26909, Note_on_c, 0, 57, 56
1, 26915, Note_on_c, 0, 55, 54
1, 26932, Note_off_c, 0, 54, 60
1, 26932, Note_off_c, 0, 57, 62
1, 26933, Control_c, 0, 64, 74
1, 26940, Note_off_c, 0, 55, 58
1, 26948, Control_c, 0, 64, 38
1, 26963, Control_c, 0, 64, 0
1, 27079, Note_on_c, 0, 54, 72
1, 27084, Note_on_c, 0, 57, 27
1, 27084, Note_on_c, 0, 74, 88
1, 27089, Note_on_c, 0, 69, 73
1, 27093, Note_on_c, 0, 62, 80
1, 27094, Note_on_c, 0, 66, 77
1, 27101, Note_off_c, 0, 54, 66
1, 27124, Note_off_c, 0, 57, 29
1, 27216, Note_off_c, 0, 62, 63
1, 27232, Note_off_c, 0, 69, 62
1, 27233, Note_off_c, 0, 66, 64
1, 27257, Note_off_c, 0, 74, 66
1, 27269, Note_on_c, 0, 45, 93
1, 27273, Note_on_c, 0, 33, 82
1, 27290, Control_c, 0, 64, 80
1, 27301, Note_off_c, 0, 33, 68
1, 27305, Control_c, 0, 64, 127
1, 27313, Note_off_c, 0, 45, 66
1, 27447, Note_on_c, 0, 86, 93
1, 27453, Note_on_c, 0, 74, 94
1, 27466, Note_on_c, 0, 57, 76
1, 27466, Note_on_c, 0, 62, 72
1, 27474, Note_on_c, 0, 54, 61
1, 27478, Note_off_c, 0, 74, 64
1, 27489, Note_off_c, 0, 86, 69
1, 27493, Note_off_c, 0, 57, 66
1, 27495, Note_off_c, 0, 62, 65
1, 27505, Note_off_c, 0, 54, 64
1, 27607, Note_on_c, 0, 62, 63
1, 27609, Note_on_c, 0, 57, 60
1, 27634, Note_off_c, 0, 62, 67
1, 27635, Note_off_c, 0, 57, 66
1, 27649, Note_on_c, 0, 55, 40
1, 27682, Note_off_c, 0, 55, 53
1, 27684, Note_on_c, 0, 73, 86
1, 27686, Note_on_c, 0, 85, 79
1, 27710, Note_off_c, 0, 85, 65
1, 27722, Note_off_c, 0, 73, 61
1, 27727, Control_c, 0, 64, 71
1, 27742, Control_c, 0, 64, 30
1, 27756, Control_c, 0, 64, 0
1, 27763, Note_on_c, 0, 83, 102
1, 27765, Note_on_c, 0, 71, 100
1, 27771, Control_c, 0, 64, 46
1, 27773, Note_on_c, 0, 49, 93
1, 27779, Note_on_c, 0, 37, 85
1, 27786, Control_c, 0, 64, 62
1, 27797, Note_off_c, 0, 49, 68
1, 27799, Note_off_c, 0, 71, 66
1, 27801, Control_c, 0, 64, 75
1, 27803, Note_off_c, 0, 83, 67
1, 27806, Note_off_c, 0, 37, 68
1, 27816, Control_c, 0, 64, 108
1, 27830, Control_c, 0, 64, 127
1, 27953, Note_on_c, 0, 64, 81
1, 27955, Note_on_c, 0, 55, 74
1, 27955, Note_on_c, 0, 57, 70
1, 27964, Control_c, 0, 64, 86
1, 27975, Note_off_c, 0, 64, 70
1, 27979, Control_c, 0, 64, 55
1, 27985, Note_off_c, 0, 57, 66
1, 27987, Note_off_c, 0, 55, 64
1, 27994, Control_c, 0, 64, 0
1, 28126, Note_on_c, 0, 64, 63
1, 28127, Note_on_c, 0, 57, 61
1, 28129, Note_on_c, 0, 81, 93
1, 28133, Note_on_c, 0, 55, 70
1, 28134, Note_on_c, 0, 69, 88
1, 28148, Note_off_c, 0, 64, 65
1, 28153, Note_off_c, 0, 57, 67
1, 28160, Note_off_c, 0, 55, 66
1, 28298, Control_c, 0, 64, 52
1, 28301, Note_off_c, 0, 81, 65
1, 28311, Note_off_c, 0, 69, 63
1, 28313, Control_c, 0, 64, 75
1, 28325, Note_on_c, 0, 33, 87
1, 28325, Note_on_c, 0, 45, 88
1, 28328, Control_c, 0, 64, 99
1, 28342, Control_c, 0, 64, 127
1, 28351, Note_off_c, 0, 33, 65
1, 28360, Note_off_c, 0, 45, 63
1, 28402, Note_on_c, 0, 76, 88
1, 28408, Note_on_c, 0, 64, 79
1, 28429, Note_off_c, 0, 64, 72
1, 28432, Note_off_c, 0, 76, 61
1, 28503, Note_on_c, 0, 63, 86
1, 28503, Note_on_c, 0, 75, 87
1, 28513, Note_on_c, 0, 52, 56
1, 28515, Note_on_c, 0, 61, 78
1, 28525, Note_on_c, 0, 55, 66
1, 28546, Note_off_c, 0, 63, 62
1, 28553, Note_off_c, 0, 75, 59
1, 28567, Note_off_c, 0, 55, 63
1, 28571, Note_off_c, 0, 61, 62
1, 28579, Note_off_c, 0, 52, 61
1, 28584, Note_on_c, 0, 76, 86
1, 28587, Note_on_c, 0, 64, 69
1, 28610, Note_off_c, 0, 64, 71
1, 28614, Note_off_c, 0, 76, 58
1, 28671, Note_on_c, 0, 52, 81
1, 28674, Note_on_c, 0, 55, 69
1, 28676, Note_on_c, 0, 57, 67
1, 28677, Note_on_c, 0, 79, 91
1, 28679, Note_on_c, 0, 67, 83
1, 28696, Note_off_c, 0, 79, 66
1, 28698, Note_off_c, 0, 67, 73
1, 28700, Note_off_c, 0, 55, 68
1, 28703, Note_off_c, 0, 57, 64
1, 28706, Note_off_c, 0, 52, 63
1, 28794, Note_on_c, 0, 61, 73
1, 28803, Note_on_c, 0, 73, 54
1, 28816, Control_c, 0, 64, 117
1, 28822, Note_off_c, 0, 61, 67
1, 28822, Note_off_c, 0, 73, 62
1, 28831, Control_c, 0, 64, 65
1, 28847, Control_c, 0, 64, 0
1, 28851, Note_on_c, 0, 50, 98
1, 28852, Note_on_c, 0, 38, 93
1, 28853, Note_on_c, 0, 62, 94
1, 28854, Note_on_c, 0, 74, 97
1, 28861, Control_c, 0, 64, 30
1, 28876, Control_c, 0, 64, 55
1, 28880, Note_off_c, 0, 38, 69
1, 28887, Note_off_c, 0, 50, 67
1, 28891, Control_c, 0, 64, 68
1, 28894, Note_off_c, 0, 62, 66
1, 28895, Note_off_c, 0, 74, 68
1, 28906, Control_c, 0, 64, 87
1, 28921, Control_c, 0, 64, 127
1, 29064, Note_on_c, 0, 57, 75
1, 29073, Note_on_c, 0, 54, 64
1, 29090, Note_off_c, 0, 57, 68
1, 29092, Control_c, 0, 64, 108
1, 29101, Note_off_c, 0, 54, 64
1, 29107, Control_c, 0, 64, 67
1, 29122, Control_c, 0, 64, 0
1, 29281, Note_on_c, 0, 74, 93
1, 29289, Note_on_c, 0, 54, 75
1, 29291, Note_on_c, 0, 69, 79
1, 29292, Note_on_c, 0, 57, 61
1, 29296, Note_on_c, 0, 62, 84
1, 29298, Note_on_c, 0, 66, 78
1, 29312, Note_off_c, 0, 57, 61
1, 29313, Note_off_c, 0, 54, 70
1, 29435, Note_off_c, 0, 62, 63
1, 29442, Note_off_c, 0, 69, 63
1, 29449, Note_off_c, 0, 66, 64
1, 29463, Control_c, 0, 64, 69
1, 29463, Note_off_c, 0, 74, 64
1, 29470, Note_on_c, 0, 45, 93
1, 29472, Note_on_c, 0, 33, 85
1, 29477, Control_c, 0, 64, 97
1, 29492, Control_c, 0, 64, 127
1, 29497, Note_off_c, 0, 33, 66
1, 29508, Note_off_c, 0, 45, 63
1, 29636, Note_on_c, 0, 66, 82
1, 29638, Note_on_c, 0, 78, 93
1, 29648, Note_on_c, 0, 57, 79
1, 29659, Note_on_c, 0, 54, 59
1, 29667, Note_off_c, 0, 66, 64
1, 29670, Note_off_c, 0, 78, 63
1, 29673, Note_off_c, 0, 57, 68
1, 29693, Note_off_c, 0, 54, 62
1, 29803, Note_on_c, 0, 57, 58
1, 29806, Note_on_c, 0, 54, 77
1, 29831, Note_off_c, 0, 57, 67
1, 29842, Note_off_c, 0, 54, 61
1, 29869, Note_on_c, 0, 69, 86
1, 29871, Note_on_c, 0, 62, 80
1, 29890, Note_off_c, 0, 69, 68
1, 29892, Note_off_c, 0, 62, 70
1, 29901, Control_c, 0, 64, 88
1, 29907, Note_on_c, 0, 66, 22
1, 29915, Control_c, 0, 64, 54
1, 29930, Control_c, 0, 64, 0
1, 29931, Note_on_c, 0, 74, 98
1, 29936, Note_on_c, 0, 62, 92
1, 29951, Note_on_c, 0, 50, 92
1, 29955, Note_on_c, 0, 38, 85
1, 29959, Control_c, 0, 64, 38
1, 29960, Note_off_c, 0, 62, 66
1, 29970, Note_off_c, 0, 74, 68
1, 29974, Control_c, 0, 64, 60
1, 29984, Note_off_c, 0, 38, 69
1, 29989, Control_c, 0, 64, 75
1, 29990, Note_off_c, 0, 50, 65
1, 29991, Note_off_c, 0, 66, 59
1, 30004, Control_c, 0, 64, 127
1, 30126, Note_on_c, 0, 57, 83
1, 30137, Note_on_c, 0, 54, 66
1, 30152, Control_c, 0, 64, 108
1, 30152, Note_off_c, 0, 57, 66
1, 30164, Note_off_c, 0, 54, 66
1, 30167, Control_c, 0, 64, 65
1, 30182, Control_c, 0, 64, 0
1, 30286, Note_on_c, 0, 54, 73
1, 30304, Note_on_c, 0, 74, 89
1, 30308, Note_on_c, 0, 69, 77
1, 30309, Note_off_c, 0, 54, 67
1, 30310, Note_on_c, 0, 62, 81
1, 30311, Note_on_c, 0, 66, 81
1, 30315, Note_on_c, 0, 57, 15
1, 30315, Note_off_c, 0, 57, 127
1, 30413, Note_off_c, 0, 62, 64
1, 30434, Note_off_c, 0, 69, 63
1, 30436, Note_off_c, 0, 66, 64
1, 30455, Note_off_c, 0, 74, 68
1, 30478, Note_on_c, 0, 45, 89
1, 30480, Note_on_c, 0, 33, 81
1, 30485, Control_c, 0, 64, 64
1, 30500, Control_c, 0, 64, 103
1, 30508, Note_off_c, 0, 33, 68
1, 30515, Control_c, 0, 64, 127
1, 30525, Note_off_c, 0, 45, 64
1, 30643, Note_on_c, 0, 81, 95
1, 30646, Note_on_c, 0, 69, 95
1, 30659, Note_on_c, 0, 62, 77
1, 30662, Note_on_c, 0, 57, 75
1, 30666, Note_on_c, 0, 54, 63
1, 30678, Note_off_c, 0, 81, 67
1, 30682, Note_off_c, 0, 69, 61
1, 30685, Note_off_c, 0, 62, 68
1, 30689, Note_off_c, 0, 57, 66
1, 30698, Note_off_c, 0, 54, 62
1, 30783, Note_on_c, 0, 57, 67
1, 30784, Note_on_c, 0, 62, 73
1, 30792, Note_on_c, 0, 54, 69
1, 30806, Note_off_c, 0, 62, 71
1, 30807, Note_off_c, 0, 57, 67
1, 30834, Note_off_c, 0, 54, 61
1, 30846, Note_on_c, 0, 66, 89
1, 30850, Note_on_c, 0, 78, 77
1, 30870, Note_off_c, 0, 78, 68
1, 30878, Note_off_c, 0, 66, 63
1, 30900, Control_c, 0, 64, 79
1, 30915, Control_c, 0, 64, 33
1, 30929, Note_on_c, 0, 76, 99
1, 30930, Note_on_c, 0, 64, 104
1, 30930, Control_c, 0, 64, 0
1, 30937, Note_on_c, 0, 47, 99
1, 30940, Note_on_c, 0, 35, 93
1, 30969, Note_off_c, 0, 35, 69
1, 30975, Note_off_c, 0, 47, 65
1, 30989, Control_c, 0, 64, 54
1, 31004, Control_c, 0, 64, 72
1, 31019, Control_c, 0, 64, 107
1, 31034, Control_c, 0, 64, 127
1, 31064, Note_off_c, 0, 64, 58
1, 31097, Note_off_c, 0, 76, 62
1, 31105, Note_on_c, 0, 62, 93
1, 31109, Note_on_c, 0, 52, 85
1, 31118, Note_on_c, 0, 56, 70
1, 31144, Note_off_c, 0, 52, 56
1, 31144, Note_off_c, 0, 62, 60
1, 31148, Note_off_c, 0, 56, 66
1, 31287, Note_on_c, 0, 56, 68
1, 31288, Note_on_c, 0, 52, 76
1, 31289, Note_on_c, 0, 71, 88
1, 31290, Note_on_c, 0, 76, 96
1, 31292, Note_on_c, 0, 64, 99
1, 31293, Note_on_c, 0, 68, 86
1, 31302, Note_on_c, 0, 62, 42
1, 31309, Note_off_c, 0, 52, 69
1, 31314, Note_off_c, 0, 56, 66
1, 31330, Note_off_c, 0, 62, 54
1, 31452, Note_off_c, 0, 64, 61
1, 31457, Control_c, 0, 64, 71
1, 31467, Note_off_c, 0, 71, 60
1, 31472, Control_c, 0, 64, 43
1, 31474, Note_off_c, 0, 68, 61
1, 31486, Control_c, 0, 64, 49
1, 31495, Note_on_c, 0, 40, 93
1, 31496, Note_on_c, 0, 28, 101
1, 31498, Note_off_c, 0, 76, 64
1, 31501, Control_c, 0, 64, 61
1, 31516, Control_c, 0, 64, 71
1, 31528, Note_off_c, 0, 28, 67
1, 31530, Control_c, 0, 64, 94
1, 31534, Note_off_c, 0, 40, 66
1, 31545, Control_c, 0, 64, 127
1, 31678, Control_c, 0, 64, 102
1, 31693, Control_c, 0, 64, 65
1, 31708, Control_c, 0, 64, 41
1, 31710, Note_on_c, 0, 74, 98
1, 31710, Note_on_c, 0, 86, 97
1, 31720, Note_on_c, 0, 62, 80
1, 31723, Control_c, 0, 64, 51
1, 31725, Note_on_c, 0, 52, 76
1, 31726, Note_on_c, 0, 59, 76
1, 31738, Control_c, 0, 64, 64
1, 31747, Note_off_c, 0, 74, 69
1, 31751, Note_off_c, 0, 59, 66
1, 31752, Note_off_c, 0, 86, 66
1, 31753, Control_c, 0, 64, 77
1, 31753, Note_off_c, 0, 62, 61
1, 31764, Note_off_c, 0, 52, 60
1, 31767, Control_c, 0, 64, 120
1, 31782, Control_c, 0, 64, 127
1, 31901, Note_on_c, 0, 59, 66
1, 31902, Control_c, 0, 64, 84
1, 31902, Note_on_c, 0, 62, 77
1, 31912, Note_on_c, 0, 52, 78
1, 31917, Control_c, 0, 64, 63
1, 31934, Note_off_c, 0, 59, 69
1, 31934, Note_off_c, 0, 62, 66
1, 31938, Control_c, 0, 64, 60
1, 31953, Control_c, 0, 64, 69
1, 31955, Note_off_c, 0, 52, 64
1, 31968, Control_c, 0, 64, 79
1, 31983, Control_c, 0, 64, 93
1, 31998, Control_c, 0, 64, 127
1, 32000, Note_on_c, 0, 80, 91
1, 32005, Note_on_c, 0, 68, 86
1, 32084, Note_off_c, 0, 68, 59
1, 32146, Control_c, 0, 64, 118
1, 32161, Control_c, 0, 64, 65
1, 32176, Control_c, 0, 64, 0
1, 32177, Note_on_c, 0, 33, 77
1, 32178, Note_on_c, 0, 45, 85
1, 32211, Note_off_c, 0, 33, 66
1, 32218, Note_on_c, 0, 83, 95
1, 32221, Control_c, 0, 64, 33
1, 32222, Note_on_c, 0, 71, 94
1, 32227, Note_off_c, 0, 45, 65
1, 32235, Control_c, 0, 64, 56
1, 32247, Note_off_c, 0, 80, 66
1, 32248, Note_off_c, 0, 71, 66
1, 32250, Control_c, 0, 64, 72
1, 32259, Note_off_c, 0, 83, 67
1, 32265, Control_c, 0, 64, 105
1, 32280, Control_c, 0, 64, 127
1, 32444, Note_on_c, 0, 52, 67
1, 32450, Note_on_c, 0, 57, 55
1, 32451, Note_on_c, 0, 61, 70
1, 32497, Note_off_c, 0, 61, 56
1, 32501, Note_on_c, 0, 76, 82
1, 32502, Control_c, 0, 64, 64
1, 32503, Note_on_c, 0, 69, 79
1, 32503, Note_off_c, 0, 57, 62
1, 32517, Control_c, 0, 64, 0
1, 32519, Note_off_c, 0, 69, 70
1, 32522, Note_off_c, 0, 76, 64
1, 32528, Note_on_c, 0, 73, 31
1, 32539, Note_on_c, 0, 81, 27
1, 32546, Control_c, 0, 64, 53
1, 32554, Note_off_c, 0, 73, 0
1, 32554, Note_on_c, 0, 73, 34
1, 32559, Note_on_c, 0, 69, 91
1, 32561, Control_c, 0, 64, 63
1, 32575, Poly_aftertouch_c, 0, 76, 127
1, 32576, Note_on_c, 0, 64, 74
1, 32576, Control_c, 0, 64, 75
1, 32580, Note_off_c, 0, 69, 65
1, 32585, Note_on_c, 0, 57, 51
1, 32587, Note_on_c, 0, 61, 57
1, 32590, Poly_aftertouch_c, 0, 76, 0
1, 32591, Note_off_c, 0, 52, 57
1, 32591, Control_c, 0, 64, 110
1, 32606, Control_c, 0, 64, 127
1, 32613, Note_off_c, 0, 73, 63
1, 32617, Note_off_c, 0, 57, 65
1, 32617, Note_off_c, 0, 61, 66
1, 32619, Note_off_c, 0, 64, 60
1, 32620, Note_off_c, 0, 81, 62
1, 32860, Note_on_c, 0, 57, 48
1, 32863, Note_on_c, 0, 69, 62
1, 32870, Note_on_c, 0, 61, 54
1, 32882, Note_on_c, 0, 64, 53
1, 32883, Note_off_c, 0, 57, 62
1, 32887, Note_off_c, 0, 69, 69
1, 32909, Control_c, 0, 64, 93
1, 32914, Note_off_c, 0, 64, 66
1, 32917, Note_off_c, 0, 61, 60
1, 32924, Control_c, 0, 64, 66
1, 32939, Control_c, 0, 64, 34
1, 32955, Control_c, 0, 64, 0
1, 33410, Note_on_c, 0, 81, 59
1, 33434, Note_on_c, 0, 69, 39
1, 33449, Note_off_c, 0, 81, 66
1, 33466, Note_off_c, 0, 69, 51
1, 33606, Note_on_c, 0, 86, 71
1, 33619, Note_on_c, 0, 74, 59
1, 33628, Note_off_c, 0, 86, 71
1, 33639, Note_off_c, 0, 74, 60
1, 33763, Control_c, 0, 67, 37
1, 33778, Control_c, 0, 67, 54
1, 33779, Note_on_c, 0, 57, 46
1, 33780, Note_on_c, 0, 50, 50
1, 33793, Control_c, 0, 67, 75
1, 33800, Note_on_c, 0, 54, 16
1, 33803, Note_off_c, 0, 57, 58
1, 33807, Control_c, 0, 67, 90
1, 33809, Note_off_c, 0, 50, 61
1, 33822, Control_c, 0, 67, 100
1, 33837, Control_c, 0, 67, 104
1, 33842, Note_off_c, 0, 54, 39
1, 33867, Control_c, 0, 67, 106
1, 33941, Note_on_c, 0, 54, 54
1, 33957, Note_on_c, 0, 74, 35
1, 33967, Note_on_c, 0, 81, 56
1, 33979, Note_off_c, 0, 54, 64
1, 33989, Note_on_c, 0, 86, 69
1, 33992, Note_on_c, 0, 78, 35
1, 33994, Poly_aftertouch_c, 0, 57, 0
1, 34015, Control_c, 0, 64, 41
1, 34017, Poly_aftertouch_c, 0, 62, 127
1, 34030, Control_c, 0, 64, 58
1, 34045, Poly_aftertouch_c, 0, 62, 0
1, 34045, Control_c, 0, 64, 62
1, 34045, Control_c, 0, 67, 103
1, 34060, Control_c, 0, 64, 64
1, 34074, Control_c, 0, 64, 66
1, 34074, Control_c, 0, 67, 100
1, 34089, Control_c, 0, 64, 69
1, 34104, Control_c, 0, 64, 72
1, 34104, Control_c, 0, 67, 98
1, 34111, Note_off_c, 0, 81, 65
1, 34116, Note_off_c, 0, 74, 41
1, 34116, Note_off_c, 0, 78, 61
1, 34118, Control_c, 0, 64, 75
1, 34131, Note_on_c, 0, 57, 43
1, 34133, Control_c, 0, 64, 78
1, 34138, Note_off_c, 0, 86, 64
1, 34139, Note_on_c, 0, 66, 52
1, 34147, Note_on_c, 0, 62, 42
1, 34148, Control_c, 0, 64, 82
1, 34148, Control_c, 0, 67, 96
1, 34163, Control_c, 0, 64, 86
1, 34176, Note_off_c, 0, 57, 57
1, 34176, Note_off_c, 0, 66, 53
1, 34184, Note_off_c, 0, 62, 53
1, 34185, Control_c, 0, 64, 89
1, 34200, Control_c, 0, 64, 93
1, 34215, Control_c, 0, 64, 97
1, 34230, Control_c, 0, 64, 103
1, 34230, Control_c, 0, 67, 95
1, 34245, Control_c, 0, 64, 108
1, 34259, Control_c, 0, 64, 119
1, 34274, Control_c, 0, 64, 127
1, 34288, Note_on_c, 0, 90, 77
1, 34289, Note_on_c, 0, 62, 51
1, 34299, Note_on_c, 0, 69, 55
1, 34301, Note_on_c, 0, 66, 41
1, 34304, Control_c, 0, 67, 94
1, 34304, Note_on_c, 0, 78, 59
1, 34309, Note_off_c, 0, 90, 71
1, 34322, Note_off_c, 0, 69, 62
1, 34324, Note_off_c, 0, 78, 60
1, 34331, Note_off_c, 0, 66, 55
1, 34333, Control_c, 0, 67, 94
1, 34341, Note_off_c, 0, 62, 56
1, 34363, Control_c, 0, 67, 93
1, 34393, Control_c, 0, 67, 92
1, 34407, Control_c, 0, 67, 92
1, 34422, Control_c, 0, 67, 91
1, 34437, Control_c, 0, 67, 90
1, 34447, Note_on_c, 0, 62, 58
1, 34450, Note_on_c, 0, 66, 48
1, 34466, Control_c, 0, 67, 90
1, 34474, Note_off_c, 0, 66, 60
1, 34477, Note_off_c, 0, 62, 64
1, 34481, Control_c, 0, 67, 89
1, 34496, Control_c, 0, 67, 88
1, 34511, Control_c, 0, 67, 86
1, 34513, Note_on_c, 0, 81, 73
1, 34516, Note_on_c, 0, 74, 66
1, 34525, Control_c, 0, 67, 83
1, 34529, Poly_aftertouch_c, 0, 57, 0
1, 34532, Note_off_c, 0, 74, 64
1, 34535, Note_off_c, 0, 81, 70
1, 34540, Control_c, 0, 64, 94
1, 34540, Control_c, 0, 67, 76
1, 34555, Poly_aftertouch_c, 0, 57, 0
1, 34556, Control_c, 0, 64, 65
1, 34556, Control_c, 0, 67, 64
1, 34567, Note_on_c, 0, 78, 49
1, 34571, Control_c, 0, 64, 0
1, 34571, Control_c, 0, 67, 0
1, 34574, Note_on_c, 0, 86, 81
1, 34585, Note_on_c, 0, 74, 64
1, 34593, Note_off_c, 0, 86, 73
1, 34602, Note_off_c, 0, 78, 65
1, 34605, Note_off_c, 0, 74, 62
1, 34722, Note_on_c, 0, 57, 52
1, 34736, Note_on_c, 0, 50, 50
1, 34739, Note_on_c, 0, 54, 40
1, 34754, Note_off_c, 0, 57, 65
1, 34766, Note_off_c, 0, 50, 63
1, 34766, Note_off_c, 0, 54, 56
1, 34887, Note_on_c, 0, 54, 51
1, 34900, Note_on_c, 0, 74, 56
1, 34900, Note_on_c, 0, 81, 67
1, 34904, Note_on_c, 0, 57, 28
1, 34909, Note_on_c, 0, 78, 57
1, 34914, Note_on_c, 0, 62, 34
1, 34924, Note_off_c, 0, 54, 65
1, 34933, Note_on_c, 0, 86, 77
1, 34948, Note_off_c, 0, 57, 41
1, 34948, Control_c, 0, 64, 35
1, 34953, Note_off_c, 0, 62, 46
1, 34963, Control_c, 0, 64, 55
1, 34978, Control_c, 0, 64, 62
1, 34993, Control_c, 0, 64, 65
1, 35008, Control_c, 0, 64, 68
1, 35023, Control_c, 0, 64, 73
1, 35025, Note_off_c, 0, 74, 64
1, 35038, Control_c, 0, 64, 78
1, 35052, Control_c, 0, 64, 85
1, 35055, Note_off_c, 0, 81, 64
1, 35060, Note_off_c, 0, 78, 61
1, 35063, Note_on_c, 0, 62, 51
1, 35067, Control_c, 0, 64, 91
1, 35070, Note_on_c, 0, 57, 45
1, 35076, Note_on_c, 0, 66, 65
1, 35082, Control_c, 0, 64, 98
1, 35091, Note_off_c, 0, 86, 64
1, 35097, Control_c, 0, 64, 106
1, 35109, Note_off_c, 0, 62, 60
1, 35109, Note_off_c, 0, 66, 65
1, 35112, Control_c, 0, 64, 127
1, 35120, Note_off_c, 0, 57, 56
1, 35216, Control_c, 0, 67, 40
1, 35228, Note_on_c, 0, 93, 86
1, 35230, Control_c, 0, 67, 41
1, 35232, Note_on_c, 0, 62, 57
1, 35234, Note_on_c, 0, 69, 58
1, 35260, Note_off_c, 0, 69, 65
1, 35261, Note_on_c, 0, 66, 22
1, 35262, Note_on_c, 0, 81, 40
1, 35270, Note_off_c, 0, 93, 60
1, 35274, Control_c, 0, 67, 40
1, 35286, Note_off_c, 0, 62, 60
1, 35291, Note_off_c, 0, 81, 54
1, 35294, Note_off_c, 0, 66, 51
1, 35304, Control_c, 0, 67, 39
1, 35319, Control_c, 0, 67, 39
1, 35373, Note_on_c, 0, 66, 68
1, 35379, Control_c, 0, 67, 38
1, 35388, Note_on_c, 0, 62, 46
1, 35394, Control_c, 0, 67, 37
1, 35401, Note_on_c, 0, 57, 42
1, 35402, Note_off_c, 0, 66, 66
1, 35409, Control_c, 0, 67, 0
1, 35413, Note_off_c, 0, 62, 57
1, 35428, Note_off_c, 0, 57, 55
1, 35440, Note_on_c, 0, 90, 65
1, 35447, Note_on_c, 0, 78, 62
1, 35467, Note_off_c, 0, 78, 63
1, 35467, Note_off_c, 0, 90, 66
1, 35497, Control_c, 0, 64, 77
1, 35506, Note_on_c, 0, 86, 86
1, 35512, Control_c, 0, 64, 43
1, 35512, Control_c, 0, 67, 38
1, 35514, Note_on_c, 0, 74, 83
1, 35527, Control_c, 0, 64, 0
1, 35527, Control_c, 0, 67, 39
1, 35529, Note_off_c, 0, 86, 67
1, 35536, Note_off_c, 0, 74, 71
1, 35542, Control_c, 0, 67, 41
1, 35557, Control_c, 0, 67, 41
1, 35586, Control_c, 0, 67, 42
1, 35616, Control_c, 0, 67, 43
1, 35631, Control_c, 0, 67, 42
1, 35661, Control_c, 0, 67, 41
1, 35663, Note_on_c, 0, 57, 60
1, 35682, Note_on_c, 0, 54, 46
1, 35683, Note_on_c, 0, 50, 48
1, 35699, Note_off_c, 0, 57, 64
1, 35708, Note_off_c, 0, 54, 58
1, 35711, Note_off_c, 0, 50, 59
1, 35712, Control_c, 0, 67, 41
1, 35786, Control_c, 0, 67, 40
1, 35830, Control_c, 0, 67, 41
1, 35839, Note_on_c, 0, 80, 48
1, 35843, Note_on_c, 0, 54, 48
1, 35846, Note_on_c, 0, 86, 68
1, 35854, Note_on_c, 0, 62, 41
1, 35860, Control_c, 0, 64, 46
1, 35860, Control_c, 0, 67, 41
1, 35866, Note_on_c, 0, 84, 57
1, 35869, Note_off_c, 0, 54, 60
1, 35869, Note_off_c, 0, 80, 51
1, 35875, Control_c, 0, 64, 56
1, 35875, Control_c, 0, 67, 42
1, 35881, Note_on_c, 0, 81, 50
1, 35883, Note_off_c, 0, 62, 51
1, 35887, Note_on_c, 0, 74, 45
1, 35887, Note_off_c, 0, 84, 62
1, 35890, Control_c, 0, 64, 61
1, 35890, Control_c, 0, 67, 43
1, 35905, Control_c, 0, 64, 64
1, 35905, Control_c, 0, 67, 45
1, 35920, Control_c, 0, 64, 66
1, 35920, Control_c, 0, 67, 46
1, 35935, Control_c, 0, 64, 69
1, 35935, Control_c, 0, 67, 48
1, 35939, Note_off_c, 0, 74, 60
1, 35950, Control_c, 0, 64, 73
1, 35950, Control_c, 0, 67, 61
1, 35965, Control_c, 0, 64, 78
1, 35965, Control_c, 0, 67, 94
1, 35979, Control_c, 0, 64, 81
1, 35979, Control_c, 0, 67, 121
1, 35979, Note_off_c, 0, 81, 65
1, 35994, Control_c, 0, 64, 84
1, 35994, Control_c, 0, 67, 127
1, 36009, Control_c, 0, 64, 88
1, 36010, Note_on_c, 0, 62, 37
1, 36012, Note_off_c, 0, 86, 65
1, 36023, Control_c, 0, 64, 91
1, 36026, Note_on_c, 0, 57, 53
1, 36033, Note_on_c, 0, 66, 63
1, 36038, Control_c, 0, 64, 95
1, 36053, Control_c, 0, 64, 99
1, 36068, Control_c, 0, 64, 103
1, 36070, Note_off_c, 0, 66, 60
1, 36076, Note_off_c, 0, 62, 62
1, 36081, Note_off_c, 0, 57, 54
1, 36083, Control_c, 0, 64, 106
1, 36097, Control_c, 0, 64, 108
1, 36127, Control_c, 0, 64, 110
1, 36158, Control_c, 0, 64, 112
1, 36175, Note_on_c, 0, 98, 84
1, 36194, Note_on_c, 0, 62, 63
1, 36200, Note_on_c, 0, 69, 53
1, 36202, Control_c, 0, 64, 114
1, 36203, Note_on_c, 0, 66, 54
1, 36220, Note_off_c, 0, 98, 66
1, 36222, Note_off_c, 0, 62, 65
1, 36227, Note_off_c, 0, 69, 64
1, 36231, Note_off_c, 0, 66, 64
1, 36262, Control_c, 0, 64, 116
1, 36306, Control_c, 0, 64, 118
1, 36320, Control_c, 0, 64, 120
1, 36334, Note_on_c, 0, 69, 60
1, 36334, Control_c, 0, 64, 127
1, 36336, Note_on_c, 0, 66, 59
1, 36345, Note_on_c, 0, 74, 56
1, 36349, Control_c, 0, 67, 125
1, 36364, Control_c, 0, 67, 116
1, 36367, Note_off_c, 0, 69, 66
1, 36367, Note_off_c, 0, 74, 59
1, 36373, Note_off_c, 0, 66, 64
1, 36379, Control_c, 0, 67, 97
1, 36387, Note_on_c, 0, 97, 75
1, 36394, Control_c, 0, 67, 47
1, 36394, Note_on_c, 0, 85, 68
1, 36409, Control_c, 0, 64, 120
1, 36409, Control_c, 0, 67, 0
1, 36412, Note_off_c, 0, 97, 67
1, 36425, Note_off_c, 0, 85, 70
1, 36431, Control_c, 0, 64, 72
1, 36445, Control_c, 0, 64, 38
1, 36460, Control_c, 0, 64, 0
1, 36463, Note_on_c, 0, 95, 91
1, 36479, Note_on_c, 0, 83, 73
1, 36500, Note_off_c, 0, 83, 70
1, 36503, Note_off_c, 0, 95, 66
1, 36614, Note_on_c, 0, 49, 52
1, 36640, Note_off_c, 0, 49, 56
1, 36785, Note_on_c, 0, 93, 78
1, 36788, Note_on_c, 0, 57, 42
1, 36788, Note_on_c, 0, 64, 36
1, 36790, Note_on_c, 0, 55, 57
1, 36792, Note_on_c, 0, 81, 69
1, 36814, Note_off_c, 0, 57, 51
1, 36816, Control_c, 0, 64, 29
1, 36820, Note_off_c, 0, 64, 56
1, 36821, Note_off_c, 0, 55, 63
1, 36831, Control_c, 0, 64, 53
1, 36845, Control_c, 0, 64, 62
1, 36860, Control_c, 0, 64, 67
1, 36875, Control_c, 0, 64, 72
1, 36890, Control_c, 0, 64, 78
1, 36898, Note_off_c, 0, 93, 62
1, 36905, Control_c, 0, 64, 83
1, 36915, Note_off_c, 0, 81, 62
1, 36919, Control_c, 0, 64, 87
1, 36934, Control_c, 0, 64, 90
1, 36950, Control_c, 0, 64, 93
1, 36965, Control_c, 0, 64, 95
1, 36967, Note_on_c, 0, 45, 61
1, 36980, Control_c, 0, 64, 98
1, 36995, Control_c, 0, 64, 100
1, 36997, Note_off_c, 0, 45, 64
1, 37024, Control_c, 0, 64, 103
1, 37036, Note_on_c, 0, 88, 79
1, 37039, Control_c, 0, 67, 51
1, 37044, Note_on_c, 0, 76, 69
1, 37054, Control_c, 0, 67, 73
1, 37067, Note_off_c, 0, 88, 62
1, 37068, Note_off_c, 0, 76, 68
1, 37068, Control_c, 0, 64, 105
1, 37068, Control_c, 0, 67, 92
1, 37083, Control_c, 0, 64, 107
1, 37083, Control_c, 0, 67, 100
1, 37098, Control_c, 0, 67, 105
1, 37113, Control_c, 0, 64, 111
1, 37128, Control_c, 0, 64, 114
1, 37133, Note_on_c, 0, 75, 79
1, 37133, Note_on_c, 0, 87, 75
1, 37142, Control_c, 0, 64, 119
1, 37145, Note_on_c, 0, 71, 62
1, 37150, Note_on_c, 0, 61, 59
1, 37157, Control_c, 0, 64, 127
1, 37160, Note_off_c, 0, 75, 65
1, 37161, Note_off_c, 0, 87, 61
1, 37175, Note_off_c, 0, 71, 64
1, 37197, Note_off_c, 0, 61, 60
1, 37212, Poly_aftertouch_c, 0, 67, 127
1, 37217, Note_on_c, 0, 88, 85
1, 37224, Note_on_c, 0, 76, 68
1, 37249, Poly_aftertouch_c, 0, 67, 0
1, 37250, Note_off_c, 0, 76, 67
1, 37259, Note_off_c, 0, 88, 64
1, 37298, Control_c, 0, 67, 103
1, 37320, Note_on_c, 0, 91, 82
1, 37329, Note_on_c, 0, 79, 63
1, 37333, Note_on_c, 0, 64, 50
1, 37339, Note_off_c, 0, 91, 74
1, 37347, Note_off_c, 0, 79, 66
1, 37357, Note_off_c, 0, 64, 61
1, 37375, Poly_aftertouch_c, 0, 67, 127
1, 37376, Poly_aftertouch_c, 0, 69, 127
1, 37406, Poly_aftertouch_c, 0, 69, 0
1, 37416, Poly_aftertouch_c, 0, 67, 0
1, 37431, Note_on_c, 0, 73, 82
1, 37431, Note_on_c, 0, 85, 77
1, 37446, Control_c, 0, 64, 85
1, 37458, Note_off_c, 0, 73, 65
1, 37461, Control_c, 0, 64, 63
1, 37464, Note_off_c, 0, 85, 56
1, 37476, Control_c, 0, 64, 30
1, 37491, Control_c, 0, 64, 0
1, 37504, Note_on_c, 0, 86, 86
1, 37509, Note_on_c, 0, 74, 77
1, 37526, Note_off_c, 0, 86, 67
1, 37529, Note_off_c, 0, 74, 72
1, 37646, Note_on_c, 0, 57, 52
1, 37647, Note_on_c, 0, 50, 52
1, 37662, Note_on_c, 0, 54, 36
1, 37672, Note_off_c, 0, 57, 63
1, 37680, Note_off_c, 0, 50, 65
1, 37692, Note_off_c, 0, 54, 50
1, 37713, Control_c, 0, 67, 100
1, 37744, Control_c, 0, 67, 98
1, 37759, Control_c, 0, 67, 94
1, 37773, Control_c, 0, 67, 90
1, 37788, Control_c, 0, 67, 85
1, 37803, Control_c, 0, 67, 79
1, 37818, Control_c, 0, 67, 72
1, 37822, Note_on_c, 0, 86, 77
1, 37823, Note_on_c, 0, 54, 51
1, 37828, Note_on_c, 0, 81, 65
1, 37832, Control_c, 0, 64, 45
1, 37832, Control_c, 0, 67, 59
1, 37844, Note_on_c, 0, 62, 43
1, 37846, Control_c, 0, 64, 57
1, 37846, Control_c, 0, 67, 0
1, 37847, Note_on_c, 0, 74, 52
1, 37849, Note_on_c, 0, 78, 53
1, 37853, Note_off_c, 0, 54, 64
1, 37861, Control_c, 0, 64, 63
1, 37872, Note_off_c, 0, 62, 52
1, 37876, Control_c, 0, 64, 66
1, 37890, Control_c, 0, 64, 70
1, 37905, Control_c, 0, 64, 74
1, 37928, Control_c, 0, 64, 77
1, 37940, Note_off_c, 0, 74, 61
1, 37943, Control_c, 0, 64, 80
1, 37958, Control_c, 0, 64, 82
1, 37965, Note_off_c, 0, 78, 58
1, 37972, Control_c, 0, 64, 84
1, 37979, Note_off_c, 0, 81, 62
1, 37987, Control_c, 0, 64, 85
1, 37992, Note_off_c, 0, 86, 62
1, 37996, Note_on_c, 0, 62, 44
1, 38002, Control_c, 0, 64, 86
1, 38009, Note_on_c, 0, 57, 55
1, 38011, Note_on_c, 0, 66, 52
1, 38017, Control_c, 0, 64, 87
1, 38032, Control_c, 0, 64, 88
1, 38033, Note_off_c, 0, 62, 61
1, 38034, Note_off_c, 0, 66, 60
1, 38036, Note_off_c, 0, 57, 62
1, 38046, Control_c, 0, 64, 89
1, 38061, Control_c, 0, 64, 89
1, 38076, Control_c, 0, 64, 90
1, 38090, Control_c, 0, 64, 91
1, 38105, Control_c, 0, 64, 91
1, 38120, Control_c, 0, 64, 92
1, 38135, Note_on_c, 0, 90, 77
1, 38144, Note_on_c, 0, 69, 63
1, 38144, Note_on_c, 0, 78, 77
1, 38145, Note_on_c, 0, 62, 53
1, 38147, Note_on_c, 0, 66, 39
1, 38159, Note_off_c, 0, 90, 67
1, 38164, Note_off_c, 0, 78, 70
1, 38164, Control_c, 0, 64, 92
1, 38170, Note_off_c, 0, 69, 66
1, 38179, Note_off_c, 0, 66, 57
1, 38194, Note_off_c, 0, 62, 59
1, 38209, Control_c, 0, 64, 93
1, 38286, Note_on_c, 0, 66, 56
1, 38293, Note_on_c, 0, 62, 56
1, 38307, Note_off_c, 0, 66, 64
1, 38312, Note_on_c, 0, 57, 48
1, 38316, Note_off_c, 0, 62, 59
1, 38328, Control_c, 0, 64, 94
1, 38335, Note_off_c, 0, 57, 58
1, 38343, Note_on_c, 0, 74, 76
1, 38343, Control_c, 0, 64, 94
1, 38343, Note_on_c, 0, 81, 75
1, 38358, Control_c, 0, 64, 94
1, 38364, Note_off_c, 0, 81, 72
1, 38365, Note_off_c, 0, 74, 67
1, 38372, Control_c, 0, 64, 84
1, 38387, Control_c, 0, 64, 65
1, 38402, Control_c, 0, 64, 0
1, 38405, Note_on_c, 0, 78, 51
1, 38406, Note_on_c, 0, 86, 85
1, 38419, Note_on_c, 0, 74, 69
1, 38424, Note_off_c, 0, 86, 72
1, 38436, Note_off_c, 0, 74, 66
1, 38438, Note_off_c, 0, 78, 64
1, 38561, Note_on_c, 0, 57, 54
1, 38565, Note_on_c, 0, 50, 54
1, 38566, Control_c, 0, 67, 54
1, 38582, Control_c, 0, 67, 76
1, 38583, Note_on_c, 0, 54, 31
1, 38591, Note_off_c, 0, 57, 64
1, 38596, Control_c, 0, 67, 92
1, 38601, Note_off_c, 0, 50, 64
1, 38611, Control_c, 0, 67, 102
1, 38615, Note_off_c, 0, 54, 45
1, 38626, Control_c, 0, 67, 107
1, 38725, Note_on_c, 0, 86, 79
1, 38731, Note_on_c, 0, 54, 51
1, 38737, Control_c, 0, 64, 33
1, 38740, Note_on_c, 0, 57, 25
1, 38740, Note_on_c, 0, 81, 61
1, 38752, Control_c, 0, 64, 52
1, 38761, Note_off_c, 0, 54, 63
1, 38765, Note_on_c, 0, 74, 51
1, 38767, Control_c, 0, 64, 58
1, 38768, Note_off_c, 0, 57, 45
1, 38770, Note_on_c, 0, 62, 14
1, 38782, Control_c, 0, 64, 63
1, 38782, Control_c, 0, 67, 104
1, 38785, Note_on_c, 0, 78, 37
1, 38796, Control_c, 0, 64, 66
1, 38811, Note_off_c, 0, 62, 44
1, 38811, Control_c, 0, 64, 70
1, 38811, Control_c, 0, 67, 102
1, 38826, Control_c, 0, 64, 74
1, 38832, Note_off_c, 0, 74, 62
1, 38840, Control_c, 0, 64, 77
1, 38840, Control_c, 0, 67, 100
1, 38854, Note_off_c, 0, 81, 61
1, 38855, Note_off_c, 0, 78, 54
1, 38855, Control_c, 0, 64, 80
1, 38870, Control_c, 0, 64, 83
1, 38885, Control_c, 0, 64, 86
1, 38885, Control_c, 0, 67, 98
1, 38900, Control_c, 0, 64, 89
1, 38909, Note_on_c, 0, 62, 51
1, 38914, Control_c, 0, 64, 92
1, 38919, Note_off_c, 0, 86, 64
1, 38922, Note_on_c, 0, 57, 42
1, 38924, Note_on_c, 0, 66, 55
1, 38929, Control_c, 0, 64, 95
1, 38959, Control_c, 0, 64, 97
1, 38967, Note_off_c, 0, 62, 52
1, 38971, Note_off_c, 0, 66, 57
1, 38978, Note_off_c, 0, 57, 54
1, 39018, Control_c, 0, 64, 99
1, 39090, Note_on_c, 0, 93, 81
1, 39105, Note_on_c, 0, 69, 52
1, 39109, Note_on_c, 0, 62, 49
1, 39130, Note_off_c, 0, 69, 57
1, 39139, Note_off_c, 0, 93, 62
1, 39156, Note_off_c, 0, 62, 54
1, 39247, Note_on_c, 0, 66, 45
1, 39250, Note_on_c, 0, 62, 30
1, 39270, Note_on_c, 0, 57, 36
1, 39279, Note_off_c, 0, 66, 50
1, 39285, Note_off_c, 0, 62, 55
1, 39300, Note_off_c, 0, 57, 49
1, 39301, Note_on_c, 0, 90, 64
1, 39314, Control_c, 0, 64, 102
1, 39323, Note_on_c, 0, 78, 46
1, 39327, Note_off_c, 0, 90, 66
1, 39345, Control_c, 0, 64, 92
1, 39345, Control_c, 0, 67, 100
1, 39349, Note_off_c, 0, 78, 54
1, 39360, Control_c, 0, 64, 72
1, 39372, Note_on_c, 0, 88, 78
1, 39375, Control_c, 0, 64, 49
1, 39390, Control_c, 0, 64, 0
1, 39393, Note_on_c, 0, 76, 50
1, 39393, Note_off_c, 0, 88, 71
1, 39405, Control_c, 0, 67, 102
1, 39422, Note_off_c, 0, 76, 58
1, 39528, Note_on_c, 0, 47, 52
1, 39554, Note_off_c, 0, 47, 55
1, 39696, Note_on_c, 0, 88, 67
1, 39707, Note_on_c, 0, 83, 58
1, 39709, Note_on_c, 0, 56, 60
1, 39717, Note_on_c, 0, 76, 46
1, 39721, Note_on_c, 0, 80, 49
1, 39737, Control_c, 0, 64, 33
1, 39737, Control_c, 0, 67, 100
1, 39738, Note_off_c, 0, 56, 65
1, 39752, Control_c, 0, 64, 49
1, 39767, Control_c, 0, 64, 58
1, 39782, Control_c, 0, 64, 63
1, 39797, Control_c, 0, 64, 65
1, 39811, Control_c, 0, 64, 67
1, 39826, Control_c, 0, 64, 69
1, 39841, Control_c, 0, 64, 72
1, 39856, Control_c, 0, 64, 75
1, 39870, Control_c, 0, 64, 78
1, 39876, Note_off_c, 0, 76, 62
1, 39885, Control_c, 0, 64, 80
1, 39892, Note_off_c, 0, 83, 62
1, 39894, Note_off_c, 0, 80, 63
1, 39900, Control_c, 0, 64, 82
1, 39915, Control_c, 0, 64, 84
1, 39927, Note_off_c, 0, 88, 64
1, 39930, Note_on_c, 0, 40, 45
1, 39930, Control_c, 0, 64, 86
1, 39944, Control_c, 0, 64, 88
1, 39959, Control_c, 0, 64, 89
1, 39959, Control_c, 0, 67, 98
1, 39963, Note_off_c, 0, 40, 49
1, 39974, Control_c, 0, 64, 90
1, 39989, Control_c, 0, 64, 91
1, 40004, Control_c, 0, 64, 92
1, 40019, Control_c, 0, 64, 93
1, 40034, Control_c, 0, 64, 93
1, 40048, Control_c, 0, 64, 94
1, 40063, Control_c, 0, 64, 95
1, 40078, Control_c, 0, 64, 95
1, 40138, Control_c, 0, 64, 96
1, 40171, Note_on_c, 0, 98, 75
1, 40192, Note_on_c, 0, 57, 47
1, 40206, Note_on_c, 0, 86, 17
1, 40218, Note_on_c, 0, 66, 32
1, 40218, Note_off_c, 0, 98, 63
1, 40236, Note_off_c, 0, 57, 60
1, 40248, Note_off_c, 0, 86, 41
1, 40249, Control_c, 0, 67, 100
1, 40253, Note_off_c, 0, 66, 52
1, 40270, Note_on_c, 0, 62, 3
1, 40317, Note_off_c, 0, 62, 44
1, 40379, Note_on_c, 0, 62, 28
1, 40384, Note_on_c, 0, 59, 61
1, 40385, Note_on_c, 0, 64, 42
1, 40413, Note_off_c, 0, 64, 55
1, 40415, Note_off_c, 0, 62, 45
1, 40416, Note_off_c, 0, 59, 66
1, 40455, Note_on_c, 0, 92, 81
1, 40463, Note_on_c, 0, 80, 61
1, 40507, Note_off_c, 0, 80, 54
1, 40590, Control_c, 0, 64, 95
1, 40605, Control_c, 0, 64, 94
1, 40619, Control_c, 0, 64, 89
1, 40634, Note_on_c, 0, 45, 55
1, 40634, Control_c, 0, 64, 78
1, 40649, Control_c, 0, 64, 64
1, 40664, Control_c, 0, 64, 43
1, 40679, Control_c, 0, 64, 37
1, 40693, Control_c, 0, 64, 44
1, 40706, Note_off_c, 0, 92, 60
1, 40708, Control_c, 0, 64, 54
1, 40723, Control_c, 0, 64, 60
1, 40724, Note_on_c, 0, 95, 69
1, 40736, Note_off_c, 0, 45, 62
1, 40738, Control_c, 0, 64, 65
1, 40741, Note_on_c, 0, 83, 58
1, 40753, Control_c, 0, 64, 71
1, 40767, Note_off_c, 0, 83, 64
1, 40767, Control_c, 0, 64, 78
1, 40773, Note_off_c, 0, 95, 64
1, 40782, Control_c, 0, 64, 83
1, 40797, Control_c, 0, 64, 87
1, 40812, Control_c, 0, 64, 89
1, 40826, Control_c, 0, 64, 91
1, 40841, Control_c, 0, 64, 93
1, 40856, Control_c, 0, 64, 93
1, 40871, Control_c, 0, 64, 94
1, 40988, Note_on_c, 0, 61, 43
1, 41006, Note_on_c, 0, 57, 11
1, 41011, Note_on_c, 0, 52, 35
1, 41033, Note_off_c, 0, 61, 47
1, 41047, Note_on_c, 0, 93, 66
1, 41050, Note_off_c, 0, 57, 52
1, 41050, Note_on_c, 0, 81, 63
1, 41066, Note_off_c, 0, 52, 42
1, 41066, Note_off_c, 0, 93, 61
1, 41068, Note_off_c, 0, 81, 65
1, 41124, Note_on_c, 0, 93, 73
1, 41132, Note_on_c, 0, 81, 61
1, 41148, Note_off_c, 0, 81, 66
1, 41150, Note_off_c, 0, 93, 66
1, 41156, Note_on_c, 0, 61, 43
1, 41157, Note_on_c, 0, 57, 44
1, 41183, Note_off_c, 0, 57, 60
1, 41187, Note_on_c, 0, 64, 23
1, 41199, Note_off_c, 0, 61, 46
1, 41226, Note_off_c, 0, 64, 49
1, 41428, Control_c, 0, 67, 98
1, 41442, Control_c, 0, 64, 93
1, 41493, Note_on_c, 0, 61, 33
1, 41501, Note_on_c, 0, 69, 29
1, 41515, Note_on_c, 0, 64, 21
1, 41516, Control_c, 0, 67, 96
1, 41531, Control_c, 0, 67, 95
1, 41546, Control_c, 0, 64, 93
1, 41546, Control_c, 0, 67, 93
1, 41558, Note_off_c, 0, 64, 50
1, 41561, Control_c, 0, 64, 92
1, 41561, Control_c, 0, 67, 90
1, 41565, Note_off_c, 0, 69, 60
1, 41568, Note_off_c, 0, 61, 51
1, 41576, Control_c, 0, 64, 90
1, 41576, Control_c, 0, 67, 88
1, 41590, Control_c, 0, 64, 87
1, 41590, Control_c, 0, 67, 86
1, 41605, Control_c, 0, 64, 83
1, 41605, Control_c, 0, 67, 83
1, 41620, Control_c, 0, 64, 79
1, 41620, Control_c, 0, 67, 80
1, 41634, Control_c, 0, 64, 73
1, 41634, Control_c, 0, 67, 76
1, 41649, Control_c, 0, 64, 67
1, 41649, Control_c, 0, 67, 69
1, 41672, Control_c, 0, 64, 61
1, 41672, Control_c, 0, 67, 53
1, 41687, Control_c, 0, 64, 54
1, 41687, Control_c, 0, 67, 0
1, 41702, Control_c, 0, 64, 48
1, 41716, Control_c, 0, 64, 39
1, 41731, Control_c, 0, 64, 0
1, 42162, Control_c, 0, 64, 29
1, 42177, Control_c, 0, 64, 41
1, 42191, Control_c, 0, 64, 54
1, 42206, Control_c, 0, 64, 59
1, 42221, Control_c, 0, 64, 62
1, 42236, Control_c, 0, 64, 64
1, 42251, Control_c, 0, 64, 66
1, 42265, Control_c, 0, 64, 69
1, 42272, Note_on_c, 0, 69, 64
1, 42280, Control_c, 0, 64, 73
1, 42295, Control_c, 0, 64, 77
1, 42310, Control_c, 0, 64, 80
1, 42325, Control_c, 0, 64, 83
1, 42339, Control_c, 0, 64, 86
1, 42354, Control_c, 0, 64, 89
1, 42369, Control_c, 0, 64, 91
1, 42383, Control_c, 0, 64, 94
1, 42398, Control_c, 0, 64, 96
1, 42412, Note_off_c, 0, 69, 52
1, 42436, Control_c, 0, 64, 98
1, 42465, Control_c, 0, 64, 100
1, 42633, Note_on_c, 0, 70, 50
1, 42644, Control_c, 0, 64, 90
1, 42659, Control_c, 0, 64, 75
1, 42668, Note_on_c, 0, 56, 24
1, 42674, Control_c, 0, 64, 61
1, 42682, Note_on_c, 0, 65, 24
1, 42688, Control_c, 0, 64, 46
1, 42703, Control_c, 0, 64, 48
1, 42718, Control_c, 0, 64, 56
1, 42733, Control_c, 0, 64, 61
1, 42746, Note_off_c, 0, 65, 42
1, 42747, Note_off_c, 0, 56, 36
1, 42748, Control_c, 0, 64, 65
1, 42762, Control_c, 0, 64, 70
1, 42775, Note_on_c, 0, 74, 50
1, 42777, Control_c, 0, 64, 76
1, 42792, Control_c, 0, 64, 82
1, 42806, Control_c, 0, 64, 87
1, 42818, Note_off_c, 0, 74, 62
1, 42821, Control_c, 0, 64, 89
1, 42832, Note_off_c, 0, 70, 59
1, 42836, Control_c, 0, 64, 91
1, 42847, Note_on_c, 0, 77, 63
1, 42851, Control_c, 0, 64, 93
1, 42866, Control_c, 0, 64, 94
1, 42881, Note_off_c, 0, 77, 62
1, 42910, Control_c, 0, 67, 41
1, 42911, Note_on_c, 0, 82, 73
1, 42925, Control_c, 0, 67, 49
1, 42932, Note_off_c, 0, 82, 73
1, 42940, Control_c, 0, 67, 53
1, 42955, Control_c, 0, 67, 54
1, 42970, Control_c, 0, 67, 54
1, 43000, Control_c, 0, 67, 55
1, 43000, Note_on_c, 0, 86, 78
1, 43018, Note_on_c, 0, 70, 56
1, 43065, Note_off_c, 0, 86, 62
1, 43080, Note_on_c, 0, 89, 64
1, 43169, Control_c, 0, 67, 54
1, 43214, Control_c, 0, 64, 93
1, 43229, Control_c, 0, 64, 91
1, 43235, Note_on_c, 0, 94, 61
1, 43244, Control_c, 0, 64, 84
1, 43257, Note_off_c, 0, 89, 54
1, 43259, Control_c, 0, 64, 73
1, 43274, Control_c, 0, 64, 61
1, 43288, Control_c, 0, 64, 47
1, 43303, Control_c, 0, 64, 44
1, 43318, Control_c, 0, 64, 48
1, 43333, Control_c, 0, 64, 54
1, 43333, Control_c, 0, 67, 54
1, 43348, Control_c, 0, 64, 58
1, 43354, Note_off_c, 0, 94, 59
1, 43363, Control_c, 0, 64, 62
1, 43378, Control_c, 0, 64, 65
1, 43378, Control_c, 0, 67, 53
1, 43393, Control_c, 0, 64, 69
1, 43408, Control_c, 0, 64, 73
1, 43423, Control_c, 0, 64, 76
1, 43437, Control_c, 0, 64, 79
1, 43452, Control_c, 0, 64, 81
1, 43467, Control_c, 0, 64, 82
1, 43482, Control_c, 0, 64, 83
1, 43497, Control_c, 0, 64, 83
1, 43511, Control_c, 0, 64, 84
1, 43541, Note_off_c, 0, 70, 37
1, 43576, Note_on_c, 0, 74, 46
1, 43585, Control_c, 0, 67, 54
1, 43625, Note_off_c, 0, 74, 61
1, 43629, Control_c, 0, 67, 54
1, 43659, Control_c, 0, 67, 55
1, 43674, Control_c, 0, 67, 56
1, 43689, Control_c, 0, 67, 57
1, 43703, Control_c, 0, 67, 58
1, 43718, Control_c, 0, 64, 83
1, 43718, Control_c, 0, 67, 58
1, 43733, Control_c, 0, 64, 83
1, 43733, Control_c, 0, 67, 60
1, 43748, Control_c, 0, 64, 80
1, 43748, Control_c, 0, 67, 62
1, 43763, Control_c, 0, 64, 75
1, 43763, Control_c, 0, 67, 68
1, 43778, Control_c, 0, 64, 67
1, 43778, Control_c, 0, 67, 97
1, 43792, Control_c, 0, 64, 58
1, 43792, Control_c, 0, 67, 124
1, 43807, Control_c, 0, 64, 45
1, 43807, Control_c, 0, 67, 127
1, 43822, Control_c, 0, 64, 0
1, 44095, Note_on_c, 0, 65, 37
1, 44124, Note_off_c, 0, 65, 53
1, 44171, Control_c, 0, 64, 32
1, 44186, Control_c, 0, 64, 46
1, 44201, Control_c, 0, 64, 57
1, 44211, Note_on_c, 0, 71, 49
1, 44216, Control_c, 0, 64, 61
1, 44227, Note_on_c, 0, 65, 41
1, 44228, Note_on_c, 0, 55, 44
1, 44231, Control_c, 0, 64, 64
1, 44246, Control_c, 0, 64, 65
1, 44246, Note_on_c, 0, 62, 35
1, 44260, Note_off_c, 0, 71, 60
1, 44260, Control_c, 0, 64, 67
1, 44275, Control_c, 0, 64, 70
1, 44284, Note_off_c, 0, 65, 57
1, 44285, Note_off_c, 0, 55, 61
1, 44287, Note_off_c, 0, 62, 60
1, 44290, Control_c, 0, 64, 72
1, 44305, Control_c, 0, 64, 74
1, 44308, Note_on_c, 0, 74, 62
1, 44320, Control_c, 0, 64, 75
1, 44334, Control_c, 0, 64, 77
1, 44345, Note_off_c, 0, 74, 61
1, 44349, Control_c, 0, 64, 79
1, 44364, Control_c, 0, 64, 80
1, 44378, Control_c, 0, 64, 80
1, 44383, Note_on_c, 0, 77, 60
1, 44393, Control_c, 0, 64, 81
1, 44407, Note_off_c, 0, 77, 64
1, 44408, Control_c, 0, 64, 82
1, 44423, Control_c, 0, 64, 82
1, 44438, Control_c, 0, 64, 83
1, 44466, Note_on_c, 0, 83, 65
1, 44467, Control_c, 0, 64, 83
1, 44482, Control_c, 0, 64, 84
1, 44497, Control_c, 0, 64, 84
1, 44505, Note_off_c, 0, 83, 56
1, 44512, Control_c, 0, 64, 85
1, 44526, Control_c, 0, 64, 86
1, 44539, Note_on_c, 0, 86, 77
1, 44556, Control_c, 0, 64, 85
1, 44556, Control_c, 0, 67, 125
1, 44564, Note_on_c, 0, 71, 60
1, 44571, Control_c, 0, 64, 83
1, 44585, Control_c, 0, 64, 75
1, 44600, Control_c, 0, 64, 65
1, 44600, Control_c, 0, 67, 122
1, 44615, Control_c, 0, 64, 55
1, 44623, Note_off_c, 0, 86, 63
1, 44624, Note_on_c, 0, 89, 78
1, 44630, Control_c, 0, 64, 53
1, 44630, Control_c, 0, 67, 120
1, 44645, Control_c, 0, 64, 56
1, 44645, Control_c, 0, 67, 117
1, 44667, Control_c, 0, 64, 58
1, 44682, Control_c, 0, 64, 60
1, 44682, Control_c, 0, 67, 112
1, 44697, Control_c, 0, 64, 62
1, 44697, Control_c, 0, 67, 105
1, 44712, Control_c, 0, 64, 65
1, 44712, Control_c, 0, 67, 94
1, 44723, Note_on_c, 0, 95, 82
1, 44727, Control_c, 0, 64, 68
1, 44727, Control_c, 0, 67, 62
1, 44741, Control_c, 0, 64, 71
1, 44741, Control_c, 0, 67, 0
1, 44749, Note_off_c, 0, 89, 61
1, 44756, Control_c, 0, 64, 72
1, 44771, Control_c, 0, 64, 72
1, 44790, Note_off_c, 0, 95, 66
1, 44830, Control_c, 0, 64, 73
1, 44860, Control_c, 0, 64, 73
1, 44875, Control_c, 0, 64, 74
1, 44882, Note_on_c, 0, 77, 66
1, 44904, Control_c, 0, 64, 74
1, 44907, Note_off_c, 0, 77, 70
1, 44934, Note_off_c, 0, 71, 61
1, 44979, Control_c, 0, 64, 73
1, 44994, Control_c, 0, 64, 71
1, 45009, Control_c, 0, 64, 67
1, 45024, Control_c, 0, 64, 62
1, 45038, Control_c, 0, 64, 57
1, 45053, Control_c, 0, 64, 50
1, 45068, Control_c, 0, 64, 41
1, 45083, Control_c, 0, 64, 0
1, 45131, Note_on_c, 0, 74, 63
1, 45170, Note_off_c, 0, 74, 63
1, 45202, Note_on_c, 0, 72, 65
1, 45220, Note_on_c, 0, 67, 47
1, 45222, Note_on_c, 0, 58, 47
1, 45223, Note_on_c, 0, 64, 50
1, 45229, Note_off_c, 0, 72, 67
1, 45231, Control_c, 0, 64, 31
1, 45246, Control_c, 0, 64, 49
1, 45247, Note_off_c, 0, 67, 57
1, 45247, Note_off_c, 0, 64, 62
1, 45250, Note_off_c, 0, 58, 51
1, 45261, Control_c, 0, 64, 63
1, 45270, Note_on_c, 0, 76, 73
1, 45275, Control_c, 0, 64, 66
1, 45290, Control_c, 0, 64, 69
1, 45305, Control_c, 0, 64, 71
1, 45319, Note_off_c, 0, 76, 63
1, 45321, Control_c, 0, 64, 74
1, 45336, Control_c, 0, 64, 77
1, 45346, Note_on_c, 0, 79, 64
1, 45350, Control_c, 0, 64, 79
1, 45365, Control_c, 0, 64, 80
1, 45369, Note_off_c, 0, 79, 70
1, 45380, Control_c, 0, 64, 81
1, 45395, Control_c, 0, 64, 82
1, 45417, Control_c, 0, 64, 83
1, 45417, Note_on_c, 0, 84, 82
1, 45432, Control_c, 0, 64, 84
1, 45447, Control_c, 0, 64, 84
1, 45478, Note_off_c, 0, 84, 61
1, 45498, Note_on_c, 0, 88, 80
1, 45534, Note_on_c, 0, 72, 68
1, 45565, Control_c, 0, 64, 84
1, 45580, Control_c, 0, 64, 83
1, 45593, Note_on_c, 0, 91, 78
1, 45595, Control_c, 0, 64, 81
1, 45609, Control_c, 0, 64, 76
1, 45611, Note_off_c, 0, 88, 60
1, 45624, Control_c, 0, 64, 67
1, 45639, Control_c, 0, 64, 54
1, 45654, Control_c, 0, 64, 34
1, 45669, Control_c, 0, 64, 0
1, 45694, Note_on_c, 0, 96, 83
1, 45698, Control_c, 0, 64, 34
1, 45713, Control_c, 0, 64, 45
1, 45729, Control_c, 0, 64, 56
1, 45733, Note_off_c, 0, 91, 62
1, 45744, Control_c, 0, 64, 62
1, 45759, Control_c, 0, 64, 66
1, 45772, Note_off_c, 0, 96, 66
1, 45774, Control_c, 0, 64, 70
1, 45788, Control_c, 0, 64, 74
1, 45803, Control_c, 0, 64, 79
1, 45818, Control_c, 0, 64, 86
1, 45832, Control_c, 0, 64, 95
1, 45847, Control_c, 0, 64, 106
1, 45862, Control_c, 0, 64, 127
1, 45874, Note_on_c, 0, 76, 71
1, 45889, Note_off_c, 0, 72, 62
1, 45897, Note_off_c, 0, 76, 68
1, 46060, Note_on_c, 0, 67, 68
1, 46091, Note_off_c, 0, 67, 62
1, 46099, Control_c, 0, 64, 89
1, 46113, Control_c, 0, 64, 64
1, 46128, Control_c, 0, 64, 38
1, 46140, Note_on_c, 0, 73, 68
1, 46143, Control_c, 0, 64, 0
1, 46161, Note_on_c, 0, 64, 61
1, 46165, Control_c, 0, 64, 44
1, 46177, Note_off_c, 0, 73, 65
1, 46180, Note_on_c, 0, 57, 38
1, 46180, Control_c, 0, 64, 61
1, 46182, Note_off_c, 0, 64, 65
1, 46195, Control_c, 0, 64, 68
1, 46210, Note_off_c, 0, 57, 47
1, 46210, Control_c, 0, 64, 78
1, 46218, Note_on_c, 0, 76, 71
1, 46225, Control_c, 0, 64, 88
1, 46239, Control_c, 0, 64, 98
1, 46246, Note_off_c, 0, 76, 63
1, 46254, Control_c, 0, 64, 109
1, 46269, Control_c, 0, 64, 127
1, 46282, Note_on_c, 0, 79, 76
1, 46336, Note_off_c, 0, 79, 64
1, 46353, Note_on_c, 0, 85, 78
1, 46397, Note_off_c, 0, 85, 65
1, 46428, Note_on_c, 0, 88, 80
1, 46451, Note_on_c, 0, 73, 86
1, 46500, Note_on_c, 0, 91, 82
1, 46508, Note_off_c, 0, 88, 62
1, 46551, Control_c, 0, 64, 88
1, 46566, Control_c, 0, 64, 66
1, 46581, Control_c, 0, 64, 38
1, 46596, Control_c, 0, 64, 0
1, 46600, Note_on_c, 0, 97, 93
1, 46614, Note_off_c, 0, 91, 66
1, 46625, Control_c, 0, 64, 37
1, 46640, Control_c, 0, 64, 57
1, 46651, Note_off_c, 0, 97, 66
1, 46654, Control_c, 0, 64, 66
1, 46669, Control_c, 0, 64, 75
1, 46684, Control_c, 0, 64, 96
1, 46699, Control_c, 0, 64, 127
1, 46755, Note_on_c, 0, 79, 75
1, 46773, Note_off_c, 0, 79, 72
1, 46797, Note_off_c, 0, 73, 64
1, 46962, Note_on_c, 0, 76, 70
1, 46988, Note_off_c, 0, 76, 66
1, 46988, Control_c, 0, 64, 85
1, 47003, Control_c, 0, 64, 59
1, 47018, Control_c, 0, 64, 0
1, 47033, Note_on_c, 0, 68, 71
1, 47035, Note_on_c, 0, 73, 67
1, 47036, Note_on_c, 0, 64, 71
1, 47041, Note_on_c, 0, 56, 58
1, 47048, Control_c, 0, 64, 35
1, 47057, Note_off_c, 0, 68, 70
1, 47060, Note_off_c, 0, 64, 67
1, 47060, Note_off_c, 0, 73, 68
1, 47062, Control_c, 0, 64, 53
1, 47063, Note_off_c, 0, 56, 62
1, 47077, Control_c, 0, 64, 64
1, 47092, Control_c, 0, 64, 74
1, 47098, Note_on_c, 0, 76, 69
1, 47107, Control_c, 0, 64, 86
1, 47122, Control_c, 0, 64, 98
1, 47136, Control_c, 0, 64, 111
1, 47140, Note_off_c, 0, 76, 58
1, 47151, Control_c, 0, 64, 127
1, 47176, Note_on_c, 0, 80, 75
1, 47224, Note_off_c, 0, 80, 64
1, 47252, Note_on_c, 0, 85, 76
1, 47284, Note_off_c, 0, 85, 62
1, 47331, Note_on_c, 0, 88, 74
1, 47345, Note_on_c, 0, 73, 74
1, 47393, Note_off_c, 0, 88, 57
1, 47417, Note_on_c, 0, 92, 77
1, 47419, Control_c, 0, 64, 109
1, 47434, Control_c, 0, 64, 91
1, 47449, Control_c, 0, 64, 73
1, 47464, Control_c, 0, 64, 58
1, 47478, Control_c, 0, 64, 0
1, 47520, Note_on_c, 0, 97, 83
1, 47546, Note_off_c, 0, 92, 62
1, 47552, Control_c, 0, 64, 38
1, 47567, Control_c, 0, 64, 54
1, 47582, Control_c, 0, 64, 64
1, 47584, Note_off_c, 0, 97, 64
1, 47596, Control_c, 0, 64, 70
1, 47611, Control_c, 0, 64, 76
1, 47626, Control_c, 0, 64, 81
1, 47641, Control_c, 0, 64, 88
1, 47664, Control_c, 0, 64, 94
1, 47678, Control_c, 0, 64, 98
1, 47693, Control_c, 0, 64, 101
1, 47693, Control_c, 0, 67, 46
1, 47698, Note_on_c, 0, 80, 72
1, 47708, Control_c, 0, 64, 104
1, 47708, Control_c, 0, 67, 62
1, 47718, Note_off_c, 0, 80, 72
1, 47723, Control_c, 0, 67, 76
1, 47733, Note_off_c, 0, 73, 62
1, 47738, Control_c, 0, 67, 88
1, 47753, Control_c, 0, 64, 106
1, 47753, Control_c, 0, 67, 94
1, 47767, Control_c, 0, 67, 96
1, 47841, Control_c, 0, 67, 95
1, 47856, Control_c, 0, 67, 94
1, 47871, Control_c, 0, 67, 94
1, 47885, Control_c, 0, 67, 93
1, 47915, Control_c, 0, 67, 92
1, 47972, Note_on_c, 0, 76, 67
1, 48003, Note_off_c, 0, 76, 60
1, 48049, Control_c, 0, 67, 93
1, 48058, Note_on_c, 0, 55, 50
1, 48078, Control_c, 0, 67, 94
1, 48093, Control_c, 0, 64, 95
1, 48106, Note_on_c, 0, 64, 50
1, 48108, Control_c, 0, 64, 78
1, 48108, Control_c, 0, 67, 94
1, 48124, Control_c, 0, 64, 58
1, 48124, Control_c, 0, 67, 95
1, 48139, Control_c, 0, 64, 0
1, 48154, Control_c, 0, 67, 96
1, 48183, Control_c, 0, 64, 30
1, 48183, Note_on_c, 0, 73, 58
1, 48198, Control_c, 0, 64, 43
1, 48213, Control_c, 0, 64, 59
1, 48213, Control_c, 0, 67, 98
1, 48227, Control_c, 0, 64, 64
1, 48229, Note_off_c, 0, 73, 63
1, 48242, Note_on_c, 0, 69, 46
1, 48242, Note_off_c, 0, 55, 56
1, 48242, Control_c, 0, 64, 67
1, 48257, Control_c, 0, 64, 70
1, 48272, Control_c, 0, 64, 72
1, 48287, Control_c, 0, 64, 74
1, 48293, Note_on_c, 0, 76, 59
1, 48301, Control_c, 0, 64, 76
1, 48301, Control_c, 0, 67, 102
1, 48317, Control_c, 0, 64, 78
1, 48329, Note_off_c, 0, 76, 51
1, 48329, Note_off_c, 0, 69, 64
1, 48332, Control_c, 0, 64, 79
1, 48332, Control_c, 0, 67, 119
1, 48335, Note_off_c, 0, 64, 38
1, 48347, Control_c, 0, 64, 80
1, 48347, Control_c, 0, 67, 127
1, 48362, Control_c, 0, 64, 81
1, 48375, Note_on_c, 0, 81, 69
1, 48376, Control_c, 0, 64, 82
1, 48391, Control_c, 0, 64, 82
1, 48413, Control_c, 0, 64, 83
1, 48428, Control_c, 0, 64, 84
1, 48442, Note_off_c, 0, 81, 64
1, 48458, Control_c, 0, 64, 84
1, 48462, Note_on_c, 0, 85, 73
1, 48487, Control_c, 0, 64, 85
1, 48493, Note_off_c, 0, 85, 65
1, 48550, Note_on_c, 0, 88, 75
1, 48604, Note_off_c, 0, 88, 64
1, 48634, Note_on_c, 0, 93, 72
1, 48693, Note_off_c, 0, 93, 62
1, 48709, Control_c, 0, 64, 84
1, 48714, Note_on_c, 0, 97, 68
1, 48724, Control_c, 0, 64, 83
1, 48739, Control_c, 0, 64, 80
1, 48753, Control_c, 0, 64, 74
1, 48768, Control_c, 0, 64, 66
1, 48771, Note_off_c, 0, 97, 64
1, 48783, Control_c, 0, 64, 55
1, 48798, Control_c, 0, 64, 37
1, 48800, Note_on_c, 0, 93, 78
1, 48813, Control_c, 0, 64, 0
1, 48839, Note_off_c, 0, 93, 59
1, 48858, Note_on_c, 0, 81, 41
1, 48881, Note_on_c, 0, 97, 72
1, 48885, Note_off_c, 0, 81, 55
1, 48909, Note_off_c, 0, 97, 65
1, 48947, Note_on_c, 0, 94, 71
1, 48983, Note_off_c, 0, 94, 61
1, 49021, Note_on_c, 0, 97, 66
1, 49027, Note_on_c, 0, 76, 56
1, 49048, Note_off_c, 0, 76, 65
1, 49077, Note_off_c, 0, 97, 62
1, 49079, Control_c, 0, 64, 41
1, 49090, Note_on_c, 0, 93, 64
1, 49094, Control_c, 0, 64, 56
1, 49109, Control_c, 0, 64, 63
1, 49123, Control_c, 0, 64, 64
1, 49125, Note_off_c, 0, 93, 60
1, 49138, Control_c, 0, 64, 67
1, 49161, Control_c, 0, 64, 70
1, 49175, Control_c, 0, 64, 73
1, 49182, Note_on_c, 0, 100, 65
1, 49186, Note_on_c, 0, 73, 48
1, 49190, Control_c, 0, 64, 75
1, 49205, Control_c, 0, 64, 76
1, 49209, Note_off_c, 0, 73, 59
1, 49220, Control_c, 0, 64, 78
1, 49224, Note_off_c, 0, 100, 65
1, 49235, Control_c, 0, 64, 80
1, 49243, Note_on_c, 0, 94, 63
1, 49249, Control_c, 0, 64, 83
1, 49264, Control_c, 0, 64, 84
1, 49280, Note_off_c, 0, 94, 61
1, 49309, Control_c, 0, 64, 83
1, 49316, Note_on_c, 0, 97, 70
1, 49323, Control_c, 0, 64, 74
1, 49334, Note_on_c, 0, 81, 58
1, 49338, Control_c, 0, 64, 57
1, 49345, Note_off_c, 0, 97, 65
1, 49353, Control_c, 0, 64, 0
1, 49355, Note_off_c, 0, 81, 61
1, 49376, Note_on_c, 0, 93, 67
1, 49403, Note_off_c, 0, 93, 66
1, 49427, Note_on_c, 0, 97, 73
1, 49447, Note_on_c, 0, 76, 51
1, 49467, Note_off_c, 0, 76, 60
1, 49484, Note_off_c, 0, 97, 64
1, 49494, Note_on_c, 0, 94, 70
1, 49531, Control_c, 0, 64, 49
1, 49531, Note_off_c, 0, 94, 61
1, 49543, Note_on_c, 0, 100, 76
1, 49546, Control_c, 0, 64, 64
1, 49560, Note_on_c, 0, 73, 58
1, 49560, Control_c, 0, 64, 70
1, 49575, Control_c, 0, 64, 75
1, 49587, Note_off_c, 0, 73, 65
1, 49590, Control_c, 0, 64, 81
1, 49596, Note_off_c, 0, 100, 66
1, 49601, Note_on_c, 0, 93, 74
1, 49605, Control_c, 0, 64, 87
1, 49620, Control_c, 0, 64, 92
1, 49632, Note_off_c, 0, 93, 62
1, 49635, Control_c, 0, 64, 97
1, 49649, Control_c, 0, 64, 102
1, 49659, Note_on_c, 0, 97, 77
1, 49660, Note_on_c, 0, 81, 54
1, 49664, Control_c, 0, 64, 104
1, 49681, Note_off_c, 0, 81, 62
1, 49696, Note_off_c, 0, 97, 61
1, 49719, Note_on_c, 0, 94, 73
1, 49739, Note_on_c, 0, 76, 53
1, 49739, Control_c, 0, 64, 106
1, 49757, Note_off_c, 0, 76, 60
1, 49763, Note_off_c, 0, 94, 59
1, 49783, Note_on_c, 0, 97, 72
1, 49812, Note_off_c, 0, 97, 64
1, 49813, Control_c, 0, 64, 97
1, 49821, Note_on_c, 0, 93, 75
1, 49828, Control_c, 0, 64, 77
1, 49843, Control_c, 0, 64, 52
1, 49858, Control_c, 0, 64, 0
1, 49862, Note_off_c, 0, 93, 62
1, 49865, Note_on_c, 0, 73, 50
1, 49886, Note_on_c, 0, 100, 75
1, 49887, Control_c, 0, 64, 31
1, 49909, Control_c, 0, 64, 46
1, 49924, Control_c, 0, 64, 59
1, 49934, Note_off_c, 0, 100, 63
1, 49937, Note_on_c, 0, 98, 68
1, 49939, Control_c, 0, 64, 66
1, 49954, Control_c, 0, 64, 74
1, 49966, Note_on_c, 0, 97, 74
1, 49969, Control_c, 0, 64, 80
1, 49969, Note_off_c, 0, 98, 65
1, 49984, Control_c, 0, 64, 83
1, 49998, Control_c, 0, 64, 86
1, 50009, Note_off_c, 0, 97, 65
1, 50013, Control_c, 0, 64, 89
1, 50016, Note_on_c, 0, 95, 66
1, 50028, Control_c, 0, 64, 92
1, 50043, Control_c, 0, 64, 95
1, 50043, Note_off_c, 0, 95, 68
1, 50058, Control_c, 0, 64, 99
1, 50065, Note_on_c, 0, 93, 63
1, 50072, Control_c, 0, 64, 101
1, 50083, Note_off_c, 0, 93, 62
1, 50087, Control_c, 0, 64, 104
1, 50102, Control_c, 0, 64, 106
1, 50111, Note_on_c, 0, 92, 79
1, 50117, Control_c, 0, 64, 109
1, 50132, Control_c, 0, 64, 111
1, 50158, Note_off_c, 0, 73, 61
1, 50171, Note_off_c, 0, 92, 65
1, 50178, Note_on_c, 0, 91, 75
1, 50205, Note_off_c, 0, 91, 64
1, 50225, Note_on_c, 0, 90, 74
1, 50270, Note_on_c, 0, 88, 82
1, 50279, Note_off_c, 0, 90, 66
1, 50314, Note_off_c, 0, 88, 65
1, 50328, Note_on_c, 0, 86, 69
1, 50346, Note_off_c, 0, 86, 66
1, 50371, Note_on_c, 0, 85, 73
1, 50415, Note_on_c, 0, 83, 78
1, 50422, Note_off_c, 0, 85, 66
1, 50458, Control_c, 0, 64, 93
1, 50459, Note_off_c, 0, 83, 65
1, 50468, Note_on_c, 0, 81, 76
1, 50472, Control_c, 0, 64, 72
1, 50487, Control_c, 0, 64, 55
1, 50502, Control_c, 0, 64, 42
1, 50517, Control_c, 0, 64, 46
1, 50523, Note_off_c, 0, 81, 64
1, 50528, Note_on_c, 0, 83, 75
1, 50532, Control_c, 0, 64, 56
1, 50547, Control_c, 0, 64, 62
1, 50551, Note_off_c, 0, 83, 64
1, 50562, Control_c, 0, 64, 67
1, 50577, Control_c, 0, 64, 72
1, 50582, Note_on_c, 0, 85, 73
1, 50592, Control_c, 0, 64, 77
1, 50607, Control_c, 0, 64, 80
1, 50616, Note_off_c, 0, 85, 63
1, 50621, Control_c, 0, 64, 82
1, 50628, Note_on_c, 0, 83, 72
1, 50636, Control_c, 0, 64, 84
1, 50658, Note_off_c, 0, 83, 68
1, 50658, Control_c, 0, 64, 85
1, 50673, Control_c, 0, 64, 87
1, 50687, Note_on_c, 0, 81, 66
1, 50688, Control_c, 0, 64, 90
1, 50702, Control_c, 0, 64, 93
1, 50705, Note_off_c, 0, 81, 61
1, 50717, Control_c, 0, 64, 96
1, 50741, Note_on_c, 0, 80, 78
1, 50762, Control_c, 0, 64, 92
1, 50777, Control_c, 0, 64, 73
1, 50790, Note_off_c, 0, 80, 63
1, 50792, Control_c, 0, 64, 56
1, 50803, Note_on_c, 0, 79, 57
1, 50807, Control_c, 0, 64, 42
1, 50821, Control_c, 0, 64, 47
1, 50828, Note_off_c, 0, 79, 65
1, 50832, Note_on_c, 0, 81, 62
1, 50836, Control_c, 0, 64, 57
1, 50851, Control_c, 0, 64, 63
1, 50866, Control_c, 0, 64, 67
1, 50872, Note_off_c, 0, 81, 57
1, 50881, Control_c, 0, 64, 73
1, 50895, Control_c, 0, 64, 78
1, 50899, Note_on_c, 0, 83, 76
1, 50910, Control_c, 0, 64, 82
1, 50925, Control_c, 0, 64, 83
1, 50933, Note_off_c, 0, 83, 61
1, 50940, Control_c, 0, 64, 85
1, 50951, Note_on_c, 0, 81, 72
1, 50954, Control_c, 0, 64, 86
1, 50969, Control_c, 0, 64, 87
1, 50976, Note_off_c, 0, 81, 68
1, 50984, Control_c, 0, 64, 89
1, 50993, Note_on_c, 0, 79, 68
1, 50999, Control_c, 0, 64, 91
1, 51014, Control_c, 0, 64, 94
1, 51018, Note_off_c, 0, 79, 64
1, 51028, Control_c, 0, 64, 97
1, 51045, Note_on_c, 0, 78, 73
1, 51073, Control_c, 0, 64, 89
1, 51083, Note_off_c, 0, 78, 60
1, 51088, Control_c, 0, 64, 72
1, 51089, Note_on_c, 0, 76, 75
1, 51102, Control_c, 0, 64, 53
1, 51117, Control_c, 0, 64, 39
1, 51132, Control_c, 0, 64, 49
1, 51146, Note_off_c, 0, 76, 61
1, 51146, Control_c, 0, 64, 60
1, 51152, Note_on_c, 0, 78, 79
1, 51161, Control_c, 0, 64, 65
1, 51176, Control_c, 0, 64, 71
1, 51191, Control_c, 0, 64, 78
1, 51203, Note_on_c, 0, 79, 67
1, 51203, Note_off_c, 0, 78, 61
1, 51206, Control_c, 0, 64, 85
1, 51221, Control_c, 0, 64, 88
1, 51236, Control_c, 0, 64, 90
1, 51248, Note_on_c, 0, 78, 66
1, 51251, Control_c, 0, 64, 93
1, 51261, Note_off_c, 0, 79, 62
1, 51266, Control_c, 0, 64, 96
1, 51280, Control_c, 0, 64, 98
1, 51290, Note_off_c, 0, 78, 64
1, 51295, Note_on_c, 0, 76, 78
1, 51325, Note_off_c, 0, 76, 63
1, 51343, Note_on_c, 0, 74, 76
1, 51407, Control_c, 0, 64, 96
1, 51411, Note_on_c, 0, 73, 83
1, 51415, Note_off_c, 0, 74, 56
1, 51422, Control_c, 0, 64, 90
1, 51437, Control_c, 0, 64, 85
1, 51451, Note_on_c, 0, 74, 50
1, 51451, Control_c, 0, 64, 83
1, 51456, Note_off_c, 0, 73, 65
1, 51466, Control_c, 0, 64, 82
1, 51481, Control_c, 0, 64, 82
1, 51496, Control_c, 0, 64, 81
1, 51504, Note_off_c, 0, 74, 64
1, 51511, Note_on_c, 0, 76, 78
1, 51511, Control_c, 0, 64, 79
1, 51525, Control_c, 0, 64, 76
1, 51540, Control_c, 0, 64, 72
1, 51555, Control_c, 0, 64, 68
1, 51566, Note_off_c, 0, 76, 66
1, 51570, Control_c, 0, 64, 64
1, 51573, Note_on_c, 0, 74, 65
1, 51585, Control_c, 0, 64, 62
1, 51599, Control_c, 0, 64, 60
1, 51608, Note_on_c, 0, 73, 69
1, 51614, Control_c, 0, 64, 58
1, 51616, Note_off_c, 0, 74, 60
1, 51629, Control_c, 0, 64, 55
1, 51644, Control_c, 0, 64, 50
1, 51648, Note_off_c, 0, 73, 64
1, 51652, Note_on_c, 0, 71, 71
1, 51659, Control_c, 0, 64, 43
1, 51674, Control_c, 0, 64, 31
1, 51689, Control_c, 0, 64, 0
1, 51692, Note_off_c, 0, 71, 63
1, 51714, Note_on_c, 0, 69, 72
1, 51752, Note_off_c, 0, 69, 56
1, 51771, Note_on_c, 0, 71, 69
1, 51798, Note_off_c, 0, 71, 62
1, 51824, Note_on_c, 0, 73, 72
1, 51870, Note_off_c, 0, 73, 63
1, 51888, Note_on_c, 0, 71, 64
1, 51915, Note_off_c, 0, 71, 66
1, 51937, Note_on_c, 0, 69, 61
1, 51970, Note_off_c, 0, 69, 59
1, 52001, Note_on_c, 0, 68, 60
1, 52053, Note_off_c, 0, 68, 57
1, 52074, Note_on_c, 0, 67, 62
1, 52106, Note_off_c, 0, 67, 65
1, 52148, Note_on_c, 0, 69, 63
1, 52186, Note_off_c, 0, 69, 58
1, 52235, Note_on_c, 0, 71, 59
1, 52266, Note_off_c, 0, 71, 65
1, 52292, Note_on_c, 0, 69, 60
1, 52320, Note_off_c, 0, 69, 65
1, 52346, Note_on_c, 0, 67, 61
1, 52378, Note_off_c, 0, 67, 62
1, 52411, Note_on_c, 0, 66, 65
1, 52453, Note_off_c, 0, 66, 65
1, 52480, Note_on_c, 0, 64, 59
1, 52516, Note_off_c, 0, 64, 62
1, 52544, Note_on_c, 0, 66, 78
1, 52578, Note_off_c, 0, 66, 66
1, 52607, Note_on_c, 0, 67, 74
1, 52661, Note_off_c, 0, 67, 48
1, 52669, Note_on_c, 0, 69, 79
1, 52703, Note_off_c, 0, 69, 56
1, 52735, Note_on_c, 0, 71, 75
1, 52783, Note_off_c, 0, 71, 60
1, 52802, Note_on_c, 0, 70, 74
1, 52823, Note_off_c, 0, 70, 72
1, 52920, Note_on_c, 0, 73, 56
1, 52941, Note_off_c, 0, 73, 65
1, 53009, Note_on_c, 0, 81, 76
1, 53033, Note_on_c, 0, 71, 51
1, 53039, Note_off_c, 0, 81, 62
1, 53056, Note_off_c, 0, 71, 58
1, 53146, Note_on_c, 0, 83, 76
1, 53161, Note_on_c, 0, 69, 61
1, 53177, Note_off_c, 0, 83, 60
1, 53190, Note_off_c, 0, 69, 67
1, 53201, Control_c, 0, 67, 113
1, 53216, Control_c, 0, 67, 59
1, 53230, Control_c, 0, 67, 0
1, 53283, Note_on_c, 0, 85, 76
1, 53303, Note_on_c, 0, 67, 49
1, 53316, Note_off_c, 0, 85, 63
1, 53328, Note_off_c, 0, 67, 60
1, 53422, Note_on_c, 0, 86, 72
1, 53430, Note_on_c, 0, 66, 47
1, 53454, Note_off_c, 0, 86, 61
1, 53457, Note_off_c, 0, 66, 53
1, 53568, Note_on_c, 0, 64, 50
1, 53571, Note_on_c, 0, 88, 56
1, 53602, Note_off_c, 0, 64, 66
1, 53602, Note_off_c, 0, 88, 65
1, 53755, Note_on_c, 0, 90, 74
1, 53770, Note_on_c, 0, 62, 53
1, 53772, Control_c, 0, 64, 45
1, 53777, Note_off_c, 0, 90, 71
1, 53787, Control_c, 0, 64, 61
1, 53799, Note_off_c, 0, 62, 64
1, 53802, Control_c, 0, 64, 66
1, 53817, Control_c, 0, 64, 70
1, 53832, Control_c, 0, 64, 75
1, 53846, Control_c, 0, 64, 80
1, 53861, Control_c, 0, 64, 82
1, 53876, Control_c, 0, 64, 84
1, 53891, Control_c, 0, 64, 85
1, 53979, Control_c, 0, 64, 84
1, 53994, Control_c, 0, 64, 80
1, 54009, Control_c, 0, 64, 73
1, 54024, Control_c, 0, 64, 66
1, 54034, Note_on_c, 0, 69, 45
1, 54038, Control_c, 0, 64, 59
1, 54040, Note_on_c, 0, 66, 45
1, 54053, Control_c, 0, 64, 47
1, 54060, Note_off_c, 0, 69, 59
1, 54068, Note_off_c, 0, 66, 54
1, 54068, Control_c, 0, 64, 31
1, 54083, Control_c, 0, 64, 0
1, 54125, Note_on_c, 0, 85, 66
1, 54126, Note_on_c, 0, 73, 66
1, 54151, Note_off_c, 0, 73, 68
1, 54154, Note_off_c, 0, 85, 66
1, 54217, Note_on_c, 0, 86, 66
1, 54231, Note_on_c, 0, 66, 44
1, 54238, Note_on_c, 0, 69, 39
1, 54258, Note_off_c, 0, 66, 62
1, 54270, Note_off_c, 0, 69, 50
1, 54431, Control_c, 0, 64, 35
1, 54440, Note_on_c, 0, 57, 60
1, 54446, Control_c, 0, 64, 54
1, 54461, Control_c, 0, 64, 65
1, 54470, Note_off_c, 0, 57, 66
1, 54476, Control_c, 0, 64, 67
1, 54491, Control_c, 0, 64, 70
1, 54494, Note_off_c, 0, 86, 56
1, 54505, Control_c, 0, 64, 74
1, 54521, Control_c, 0, 64, 77
1, 54536, Control_c, 0, 64, 78
1, 54539, Note_on_c, 0, 81, 63
1, 54577, Note_off_c, 0, 81, 61
1, 54595, Control_c, 0, 64, 76
1, 54610, Control_c, 0, 64, 69
1, 54622, Note_on_c, 0, 83, 68
1, 54625, Control_c, 0, 64, 58
1, 54640, Control_c, 0, 64, 30
1, 54652, Note_on_c, 0, 66, 56
1, 54652, Note_on_c, 0, 69, 48
1, 54655, Control_c, 0, 64, 0
1, 54675, Note_off_c, 0, 66, 63
1, 54677, Note_off_c, 0, 69, 59
1, 54688, Note_off_c, 0, 83, 53
1, 54711, Note_on_c, 0, 85, 68
1, 54790, Note_off_c, 0, 85, 54
1, 54803, Note_on_c, 0, 86, 74
1, 54829, Note_on_c, 0, 66, 49
1, 54831, Note_on_c, 0, 69, 41
1, 54853, Note_off_c, 0, 66, 59
1, 54860, Note_off_c, 0, 69, 54
1, 54888, Note_on_c, 0, 88, 76
1, 54899, Note_off_c, 0, 86, 56
1, 54979, Note_off_c, 0, 88, 61
1, 54987, Note_on_c, 0, 90, 77
1, 54995, Control_c, 0, 64, 49
1, 55007, Note_on_c, 0, 62, 67
1, 55010, Control_c, 0, 64, 64
1, 55010, Note_on_c, 0, 78, 48
1, 55016, Note_off_c, 0, 90, 67
1, 55024, Control_c, 0, 64, 71
1, 55033, Note_off_c, 0, 62, 66
1, 55037, Note_off_c, 0, 78, 36
1, 55039, Control_c, 0, 64, 79
1, 55055, Control_c, 0, 64, 87
1, 55069, Control_c, 0, 64, 94
1, 55084, Control_c, 0, 64, 98
1, 55099, Control_c, 0, 64, 100
1, 55195, Control_c, 0, 64, 92
1, 55210, Control_c, 0, 64, 80
1, 55224, Note_on_c, 0, 69, 59
1, 55225, Control_c, 0, 64, 67
1, 55233, Note_on_c, 0, 66, 55
1, 55240, Control_c, 0, 64, 55
1, 55255, Note_off_c, 0, 69, 67
1, 55255, Control_c, 0, 64, 37
1, 55259, Note_off_c, 0, 66, 62
1, 55269, Control_c, 0, 64, 0
1, 55302, Note_on_c, 0, 85, 67
1, 55304, Note_on_c, 0, 73, 67
1, 55330, Note_off_c, 0, 73, 68
1, 55331, Note_off_c, 0, 85, 64
1, 55387, Note_on_c, 0, 86, 73
1, 55406, Note_on_c, 0, 69, 52
1, 55412, Note_on_c, 0, 66, 44
1, 55430, Note_off_c, 0, 69, 60
1, 55439, Note_off_c, 0, 66, 52
1, 55553, Note_off_c, 0, 86, 62
1, 55573, Note_on_c, 0, 57, 65
1, 55597, Control_c, 0, 64, 57
1, 55602, Note_off_c, 0, 57, 66
1, 55611, Control_c, 0, 64, 64
1, 55626, Control_c, 0, 64, 69
1, 55641, Control_c, 0, 64, 75
1, 55656, Control_c, 0, 64, 81
1, 55657, Note_on_c, 0, 86, 76
1, 55671, Control_c, 0, 64, 85
1, 55685, Control_c, 0, 64, 88
1, 55700, Control_c, 0, 64, 89
1, 55707, Note_off_c, 0, 86, 63
1, 55740, Note_on_c, 0, 88, 74
1, 55751, Note_on_c, 0, 69, 60
1, 55758, Note_on_c, 0, 66, 58
1, 55759, Control_c, 0, 64, 89
1, 55774, Control_c, 0, 64, 84
1, 55781, Note_off_c, 0, 69, 67
1, 55782, Note_off_c, 0, 66, 62
1, 55789, Control_c, 0, 64, 72
1, 55803, Note_off_c, 0, 88, 58
1, 55804, Control_c, 0, 64, 59
1, 55818, Control_c, 0, 64, 37
1, 55826, Note_on_c, 0, 90, 73
1, 55833, Control_c, 0, 64, 0
1, 55911, Note_off_c, 0, 90, 57
1, 55913, Note_on_c, 0, 91, 83
1, 55924, Note_on_c, 0, 66, 46
1, 55924, Note_on_c, 0, 69, 52
1, 55949, Note_off_c, 0, 66, 58
1, 55952, Note_off_c, 0, 69, 64
1, 55996, Note_on_c, 0, 93, 88
1, 56021, Note_off_c, 0, 91, 59
1, 56080, Note_on_c, 0, 95, 84
1, 56083, Note_off_c, 0, 93, 63
1, 56092, Control_c, 0, 64, 52
1, 56096, Note_on_c, 0, 61, 64
1, 56101, Note_on_c, 0, 83, 67
1, 56107, Control_c, 0, 64, 69
1, 56118, Note_off_c, 0, 83, 67
1, 56121, Note_off_c, 0, 95, 64
1, 56123, Control_c, 0, 64, 82
1, 56128, Note_off_c, 0, 61, 66
1, 56138, Control_c, 0, 64, 106
1, 56153, Control_c, 0, 64, 127
1, 56290, Note_on_c, 0, 64, 56
1, 56290, Note_on_c, 0, 69, 50
1, 56292, Note_on_c, 0, 67, 48
1, 56315, Note_off_c, 0, 69, 58
1, 56315, Control_c, 0, 64, 89
1, 56323, Note_off_c, 0, 67, 60
1, 56325, Note_off_c, 0, 64, 63
1, 56330, Control_c, 0, 64, 69
1, 56345, Control_c, 0, 64, 49
1, 56360, Control_c, 0, 64, 0
1, 56366, Note_on_c, 0, 80, 73
1, 56368, Note_on_c, 0, 92, 72
1, 56386, Note_off_c, 0, 80, 73
1, 56397, Note_off_c, 0, 92, 64
1, 56443, Note_on_c, 0, 93, 70
1, 56457, Note_on_c, 0, 64, 52
1, 56460, Note_on_c, 0, 69, 46
1, 56471, Note_on_c, 0, 91, 55
1, 56486, Note_off_c, 0, 69, 60
1, 56497, Note_off_c, 0, 91, 54
1, 56506, Poly_aftertouch_c, 0, 67, 127
1, 56507, Note_off_c, 0, 64, 63
1, 56551, Poly_aftertouch_c, 0, 67, 0
1, 56596, Control_c, 0, 64, 44
1, 56611, Control_c, 0, 64, 61
1, 56622, Note_on_c, 0, 57, 66
1, 56626, Control_c, 0, 64, 67
1, 56639, Note_off_c, 0, 93, 58
1, 56648, Control_c, 0, 64, 77
1, 56659, Note_off_c, 0, 57, 65
1, 56663, Control_c, 0, 64, 92
1, 56678, Control_c, 0, 64, 108
1, 56693, Control_c, 0, 64, 127
1, 56732, Note_on_c, 0, 87, 73
1, 56787, Note_off_c, 0, 87, 64
1, 56807, Note_on_c, 0, 88, 80
1, 56811, Control_c, 0, 64, 103
1, 56826, Control_c, 0, 64, 85
1, 56828, Note_on_c, 0, 64, 57
1, 56828, Note_on_c, 0, 73, 51
1, 56840, Control_c, 0, 64, 71
1, 56850, Note_off_c, 0, 73, 58
1, 56854, Note_off_c, 0, 88, 62
1, 56855, Control_c, 0, 64, 59
1, 56859, Note_off_c, 0, 64, 64
1, 56870, Control_c, 0, 64, 44
1, 56879, Poly_aftertouch_c, 0, 67, 127
1, 56885, Control_c, 0, 64, 0
1, 56890, Note_on_c, 0, 90, 80
1, 56916, Poly_aftertouch_c, 0, 67, 0
1, 56973, Note_on_c, 0, 91, 81
1, 56986, Note_off_c, 0, 90, 59
1, 56997, Note_on_c, 0, 64, 42
1, 57007, Note_on_c, 0, 73, 18
1, 57028, Note_off_c, 0, 64, 63
1, 57033, Note_off_c, 0, 73, 45
1, 57052, Poly_aftertouch_c, 0, 67, 127
1, 57060, Note_on_c, 0, 93, 82
1, 57091, Poly_aftertouch_c, 0, 67, 0
1, 57105, Note_off_c, 0, 91, 64
1, 57123, Control_c, 0, 64, 29
1, 57138, Control_c, 0, 64, 52
1, 57153, Control_c, 0, 64, 60
1, 57156, Note_on_c, 0, 95, 78
1, 57156, Note_off_c, 0, 93, 62
1, 57168, Control_c, 0, 64, 64
1, 57172, Note_on_c, 0, 61, 56
1, 57183, Control_c, 0, 64, 67
1, 57189, Note_off_c, 0, 95, 62
1, 57197, Control_c, 0, 64, 71
1, 57205, Note_off_c, 0, 61, 64
1, 57212, Control_c, 0, 64, 75
1, 57227, Control_c, 0, 64, 78
1, 57242, Control_c, 0, 64, 80
1, 57256, Control_c, 0, 64, 81
1, 57345, Control_c, 0, 64, 79
1, 57360, Control_c, 0, 64, 74
1, 57366, Note_on_c, 0, 69, 50
1, 57375, Control_c, 0, 64, 67
1, 57397, Note_on_c, 0, 67, 28
1, 57397, Control_c, 0, 64, 60
1, 57399, Note_off_c, 0, 69, 57
1, 57400, Note_on_c, 0, 64, 38
1, 57412, Control_c, 0, 64, 50
1, 57427, Control_c, 0, 64, 36
1, 57430, Note_off_c, 0, 64, 56
1, 57433, Note_off_c, 0, 67, 50
1, 57442, Control_c, 0, 64, 0
1, 57479, Note_on_c, 0, 91, 69
1, 57509, Note_off_c, 0, 91, 68
1, 57588, Note_on_c, 0, 97, 76
1, 57597, Note_on_c, 0, 64, 41
1, 57610, Note_on_c, 0, 69, 35
1, 57642, Poly_aftertouch_c, 0, 67, 127
1, 57645, Note_off_c, 0, 69, 47
1, 57648, Note_off_c, 0, 64, 61
1, 57680, Poly_aftertouch_c, 0, 67, 0
1, 57753, Control_c, 0, 64, 29
1, 57768, Control_c, 0, 64, 47
1, 57779, Note_on_c, 0, 57, 53
1, 57783, Control_c, 0, 64, 60
1, 57798, Control_c, 0, 64, 66
1, 57812, Control_c, 0, 64, 70
1, 57815, Note_off_c, 0, 57, 65
1, 57827, Note_off_c, 0, 97, 64
1, 57827, Control_c, 0, 64, 72
1, 57842, Control_c, 0, 64, 74
1, 57857, Control_c, 0, 64, 77
1, 57872, Control_c, 0, 64, 79
1, 57874, Note_on_c, 0, 95, 72
1, 57886, Control_c, 0, 64, 79
1, 57901, Control_c, 0, 64, 80
1, 57931, Control_c, 0, 64, 79
1, 57934, Note_off_c, 0, 95, 62
1, 57946, Control_c, 0, 64, 78
1, 57947, Note_on_c, 0, 93, 70
1, 57961, Control_c, 0, 64, 72
1, 57967, Note_on_c, 0, 73, 51
1, 57976, Control_c, 0, 64, 61
1, 57979, Note_on_c, 0, 64, 45
1, 57988, Note_off_c, 0, 73, 58
1, 57990, Note_on_c, 0, 67, 23
1, 57990, Control_c, 0, 64, 36
1, 57999, Note_off_c, 0, 93, 63
1, 58005, Control_c, 0, 64, 0
1, 58006, Note_off_c, 0, 64, 58
1, 58026, Note_on_c, 0, 88, 66
1, 58032, Note_off_c, 0, 67, 43
1, 58101, Note_on_c, 0, 64, 48
1, 58105, Note_on_c, 0, 90, 68
1, 58105, Note_off_c, 0, 88, 59
1, 58143, Note_off_c, 0, 64, 65
1, 58154, Poly_aftertouch_c, 0, 73, 0
1, 58169, Note_off_c, 0, 90, 65
1, 58176, Control_c, 0, 64, 44
1, 58186, Note_on_c, 0, 91, 71
1, 58191, Control_c, 0, 64, 52
1, 58206, Control_c, 0, 64, 57
1, 58220, Control_c, 0, 64, 61
1, 58235, Control_c, 0, 64, 65
1, 58250, Control_c, 0, 64, 68
1, 58263, Note_off_c, 0, 91, 63
1, 58265, Control_c, 0, 64, 71
1, 58270, Note_on_c, 0, 90, 70
1, 58280, Control_c, 0, 64, 74
1, 58286, Note_on_c, 0, 62, 49
1, 58295, Note_off_c, 0, 90, 70
1, 58295, Control_c, 0, 64, 77
1, 58309, Control_c, 0, 64, 79
1, 58321, Note_off_c, 0, 62, 63
1, 58384, Control_c, 0, 64, 78
1, 58399, Control_c, 0, 64, 76
1, 58413, Control_c, 0, 64, 72
1, 58428, Control_c, 0, 64, 66
1, 58443, Control_c, 0, 64, 59
1, 58457, Control_c, 0, 64, 51
1, 58472, Control_c, 0, 64, 41
1, 58479, Note_on_c, 0, 69, 43
1, 58483, Note_on_c, 0, 66, 40
1, 58487, Control_c, 0, 64, 0
1, 58509, Note_off_c, 0, 69, 53
1, 58512, Note_off_c, 0, 66, 52
1, 58551, Note_on_c, 0, 85, 65
1, 58551, Note_on_c, 0, 73, 66
1, 58577, Note_off_c, 0, 73, 67
1, 58584, Note_off_c, 0, 85, 58
1, 58622, Note_on_c, 0, 86, 72
1, 58624, Note_on_c, 0, 66, 50
1, 58628, Note_on_c, 0, 69, 45
1, 58663, Note_off_c, 0, 66, 63
1, 58664, Note_off_c, 0, 69, 64
1, 58740, Control_c, 0, 64, 29
1, 58754, Control_c, 0, 64, 45
1, 58769, Control_c, 0, 64, 55
1, 58784, Control_c, 0, 64, 61
1, 58791, Note_on_c, 0, 57, 53
1, 58799, Control_c, 0, 64, 64
1, 58814, Control_c, 0, 64, 67
1, 58820, Note_off_c, 0, 86, 57
1, 58822, Note_off_c, 0, 57, 65
1, 58829, Control_c, 0, 64, 70
1, 58843, Control_c, 0, 64, 73
1, 58858, Control_c, 0, 64, 76
1, 58859, Note_on_c, 0, 81, 69
1, 58873, Control_c, 0, 64, 78
1, 58895, Note_off_c, 0, 81, 65
1, 58896, Control_c, 0, 64, 79
1, 58911, Control_c, 0, 64, 79
1, 58946, Note_on_c, 0, 83, 68
1, 58960, Note_on_c, 0, 66, 57
1, 58961, Note_on_c, 0, 69, 53
1, 58977, Note_off_c, 0, 83, 61
1, 58983, Note_off_c, 0, 66, 61
1, 58985, Note_off_c, 0, 69, 60
1, 59013, Note_on_c, 0, 85, 75
1, 59043, Control_c, 0, 64, 78
1, 59058, Control_c, 0, 64, 76
1, 59073, Control_c, 0, 64, 73
1, 59084, Note_off_c, 0, 85, 56
1, 59087, Control_c, 0, 64, 71
1, 59092, Note_on_c, 0, 69, 47
1, 59094, Note_on_c, 0, 66, 49
1, 59099, Note_on_c, 0, 86, 79
1, 59102, Control_c, 0, 64, 67
1, 59117, Control_c, 0, 64, 65
1, 59130, Note_off_c, 0, 69, 65
1, 59132, Note_off_c, 0, 66, 65
1, 59132, Control_c, 0, 64, 61
1, 59147, Control_c, 0, 64, 56
1, 59162, Control_c, 0, 64, 44
1, 59177, Note_on_c, 0, 88, 75
1, 59177, Control_c, 0, 64, 0
1, 59191, Note_off_c, 0, 86, 60
1, 59242, Note_on_c, 0, 90, 78
1, 59246, Note_off_c, 0, 88, 65
1, 59259, Note_on_c, 0, 62, 50
1, 59266, Note_off_c, 0, 90, 69
1, 59284, Note_off_c, 0, 62, 63
1, 59473, Note_on_c, 0, 69, 46
1, 59475, Note_on_c, 0, 66, 47
1, 59499, Note_off_c, 0, 66, 59
1, 59499, Note_off_c, 0, 69, 58
1, 59547, Note_on_c, 0, 73, 60
1, 59550, Note_on_c, 0, 85, 58
1, 59576, Note_off_c, 0, 73, 65
1, 59585, Note_off_c, 0, 85, 62
1, 59610, Note_on_c, 0, 69, 43
1, 59610, Note_on_c, 0, 86, 68
1, 59612, Note_on_c, 0, 66, 43
1, 59648, Note_off_c, 0, 69, 62
1, 59656, Note_off_c, 0, 66, 65
1, 59734, Note_off_c, 0, 86, 64
1, 59775, Note_on_c, 0, 57, 57
1, 59778, Control_c, 0, 64, 42
1, 59792, Control_c, 0, 64, 61
1, 59806, Note_off_c, 0, 57, 65
1, 59807, Control_c, 0, 64, 64
1, 59822, Control_c, 0, 64, 67
1, 59837, Control_c, 0, 64, 71
1, 59838, Note_on_c, 0, 86, 76
1, 59852, Control_c, 0, 64, 74
1, 59866, Control_c, 0, 64, 75
1, 59867, Note_off_c, 0, 86, 60
1, 59896, Control_c, 0, 64, 76
1, 59898, Note_on_c, 0, 88, 79
1, 59928, Note_on_c, 0, 69, 58
1, 59929, Note_on_c, 0, 66, 60
1, 59951, Note_off_c, 0, 88, 57
1, 59953, Note_off_c, 0, 69, 63
1, 59961, Note_off_c, 0, 66, 64
1, 59968, Note_on_c, 0, 90, 80
1, 59985, Control_c, 0, 64, 75
1, 60041, Note_on_c, 0, 91, 85
1, 60059, Control_c, 0, 64, 74
1, 60065, Note_on_c, 0, 69, 48
1, 60074, Control_c, 0, 64, 72
1, 60074, Note_off_c, 0, 90, 60
1, 60079, Note_on_c, 0, 66, 46
1, 60089, Control_c, 0, 64, 66
1, 60099, Note_off_c, 0, 69, 66
1, 60104, Control_c, 0, 64, 61
1, 60107, Note_off_c, 0, 66, 58
1, 60119, Control_c, 0, 64, 59
1, 60123, Note_on_c, 0, 93, 86
1, 60134, Control_c, 0, 64, 61
1, 60149, Note_off_c, 0, 91, 64
1, 60149, Control_c, 0, 64, 63
1, 60164, Control_c, 0, 64, 62
1, 60178, Control_c, 0, 64, 55
1, 60188, Note_on_c, 0, 95, 88
1, 60193, Control_c, 0, 64, 46
1, 60202, Note_on_c, 0, 61, 69
1, 60205, Note_off_c, 0, 93, 63
1, 60208, Control_c, 0, 64, 38
1, 60238, Control_c, 0, 64, 45
1, 60239, Note_off_c, 0, 95, 66
1, 60253, Control_c, 0, 64, 54
1, 60256, Note_off_c, 0, 61, 60
1, 60268, Control_c, 0, 64, 62
1, 60282, Control_c, 0, 64, 70
1, 60296, Control_c, 0, 64, 76
1, 60311, Control_c, 0, 64, 79
1, 60325, Control_c, 0, 64, 81
1, 60340, Control_c, 0, 64, 83
1, 60345, Note_on_c, 0, 69, 61
1, 60354, Note_on_c, 0, 64, 59
1, 60355, Control_c, 0, 64, 84
1, 60357, Note_on_c, 0, 67, 53
1, 60370, Control_c, 0, 64, 84
1, 60375, Note_off_c, 0, 69, 67
1, 60395, Note_off_c, 0, 67, 60
1, 60402, Note_off_c, 0, 64, 63
1, 60407, Control_c, 0, 64, 85
1, 60410, Note_on_c, 0, 91, 80
1, 60422, Control_c, 0, 64, 85
1, 60437, Control_c, 0, 64, 86
1, 60460, Note_off_c, 0, 91, 67
1, 60467, Control_c, 0, 64, 84
1, 60481, Control_c, 0, 64, 67
1, 60481, Control_c, 0, 67, 37
1, 60496, Control_c, 0, 64, 39
1, 60496, Control_c, 0, 67, 73
1, 60497, Note_on_c, 0, 97, 93
1, 60503, Note_on_c, 0, 69, 61
1, 60511, Note_on_c, 0, 67, 46
1, 60511, Control_c, 0, 64, 0
1, 60511, Control_c, 0, 67, 98
1, 60513, Note_on_c, 0, 64, 62
1, 60526, Control_c, 0, 67, 112
1, 60530, Note_off_c, 0, 69, 68
1, 60540, Control_c, 0, 64, 48
1, 60540, Control_c, 0, 67, 115
1, 60545, Note_off_c, 0, 67, 63
1, 60554, Note_off_c, 0, 64, 61
1, 60555, Control_c, 0, 64, 61
1, 60570, Control_c, 0, 64, 69
1, 60585, Control_c, 0, 64, 79
1, 60600, Control_c, 0, 64, 89
1, 60600, Control_c, 0, 67, 111
1, 60602, Note_off_c, 0, 97, 63
1, 60614, Control_c, 0, 64, 97
1, 60614, Control_c, 0, 67, 109
1, 60629, Control_c, 0, 64, 103
1, 60629, Control_c, 0, 67, 107
1, 60633, Note_on_c, 0, 57, 67
1, 60644, Control_c, 0, 64, 109
1, 60644, Control_c, 0, 67, 105
1, 60658, Control_c, 0, 64, 118
1, 60658, Control_c, 0, 67, 102
1, 60662, Note_off_c, 0, 57, 66
1, 60667, Note_on_c, 0, 95, 76
1, 60673, Control_c, 0, 64, 127
1, 60688, Control_c, 0, 67, 100
1, 60700, Note_off_c, 0, 95, 63
1, 60709, Note_on_c, 0, 97, 75
1, 60718, Control_c, 0, 64, 101
1, 60733, Control_c, 0, 64, 74
1, 60748, Control_c, 0, 64, 49
1, 60749, Note_on_c, 0, 95, 72
1, 60762, Note_off_c, 0, 97, 65
1, 60763, Control_c, 0, 64, 0
1, 60778, Control_c, 0, 67, 102
1, 60779, Note_on_c, 0, 73, 61
1, 60801, Note_on_c, 0, 64, 42
1, 60807, Note_on_c, 0, 67, 24
1, 60807, Note_off_c, 0, 73, 67
1, 60807, Note_off_c, 0, 95, 67
1, 60808, Note_on_c, 0, 93, 80
1, 60831, Note_off_c, 0, 64, 56
1, 60847, Note_off_c, 0, 67, 43
1, 60864, Note_off_c, 0, 93, 63
1, 60866, Control_c, 0, 67, 100
1, 60924, Note_on_c, 0, 100, 67
1, 60965, Note_on_c, 0, 64, 42
1, 60983, Note_off_c, 0, 100, 66
1, 60989, Note_on_c, 0, 67, 19
1, 60991, Note_on_c, 0, 73, 41
1, 60997, Note_on_c, 0, 95, 67
1, 61007, Note_off_c, 0, 64, 66
1, 61016, Note_off_c, 0, 73, 57
1, 61024, Note_off_c, 0, 67, 45
1, 61028, Note_off_c, 0, 95, 64
1, 61079, Note_on_c, 0, 97, 68
1, 61120, Control_c, 0, 67, 102
1, 61146, Note_off_c, 0, 97, 63
1, 61156, Control_c, 0, 67, 104
1, 61158, Note_on_c, 0, 62, 51
1, 61167, Note_on_c, 0, 98, 74
1, 61186, Control_c, 0, 64, 41
1, 61186, Control_c, 0, 67, 106
1, 61192, Note_off_c, 0, 62, 64
1, 61201, Control_c, 0, 64, 57
1, 61216, Control_c, 0, 64, 63
1, 61216, Control_c, 0, 67, 109
1, 61222, Note_off_c, 0, 98, 64
1, 61231, Control_c, 0, 64, 66
1, 61235, Note_on_c, 0, 93, 71
1, 61246, Control_c, 0, 64, 69
1, 61246, Control_c, 0, 67, 111
1, 61261, Control_c, 0, 64, 72
1, 61275, Control_c, 0, 64, 75
1, 61275, Control_c, 0, 67, 113
1, 61286, Note_off_c, 0, 93, 61
1, 61290, Control_c, 0, 64, 78
1, 61290, Control_c, 0, 67, 116
1, 61292, Note_on_c, 0, 90, 69
1, 61303, Note_on_c, 0, 66, 56
1, 61305, Control_c, 0, 64, 82
1, 61315, Note_on_c, 0, 69, 43
1, 61319, Note_on_c, 0, 74, 40
1, 61320, Control_c, 0, 64, 85
1, 61320, Control_c, 0, 67, 118
1, 61329, Note_off_c, 0, 90, 61
1, 61335, Control_c, 0, 64, 88
1, 61338, Note_off_c, 0, 66, 66
1, 61344, Note_off_c, 0, 69, 56
1, 61349, Note_off_c, 0, 74, 48
1, 61350, Control_c, 0, 64, 90
1, 61354, Note_on_c, 0, 86, 69
1, 61364, Control_c, 0, 64, 93
1, 61377, Note_off_c, 0, 86, 69
1, 61379, Control_c, 0, 64, 94
1, 61379, Control_c, 0, 67, 120
1, 61394, Control_c, 0, 64, 95
1, 61409, Control_c, 0, 64, 95
1, 61424, Control_c, 0, 64, 96
1, 61424, Control_c, 0, 67, 122
1, 61431, Note_on_c, 0, 69, 53
1, 61432, Note_on_c, 0, 81, 72
1, 61433, Note_on_c, 0, 74, 55
1, 61435, Note_on_c, 0, 66, 57
1, 61438, Control_c, 0, 67, 127
1, 61453, Note_off_c, 0, 74, 61
1, 61460, Note_off_c, 0, 69, 65
1, 61466, Note_off_c, 0, 81, 59
1, 61472, Note_off_c, 0, 66, 66
1, 61492, Note_on_c, 0, 78, 73
1, 61529, Note_off_c, 0, 78, 55
1, 61561, Note_on_c, 0, 74, 50
1, 61616, Control_c, 0, 64, 95
1, 61629, Note_on_c, 0, 78, 67
1, 61630, Control_c, 0, 64, 95
1, 61631, Note_off_c, 0, 74, 57
1, 61645, Control_c, 0, 64, 94
1, 61657, Note_on_c, 0, 81, 69
1, 61660, Control_c, 0, 64, 92
1, 61675, Control_c, 0, 64, 90
1, 61687, Note_off_c, 0, 78, 56
1, 61690, Control_c, 0, 64, 87
1, 61705, Note_on_c, 0, 86, 75
1, 61705, Control_c, 0, 64, 82
1, 61709, Note_off_c, 0, 81, 65
1, 61720, Control_c, 0, 64, 78
1, 61726, Note_off_c, 0, 86, 71
1, 61735, Control_c, 0, 64, 74
1, 61750, Control_c, 0, 64, 69
1, 61765, Control_c, 0, 64, 63
1, 61779, Control_c, 0, 64, 54
1, 61794, Control_c, 0, 64, 45
1, 61795, Note_on_c, 0, 57, 55
1, 61809, Control_c, 0, 64, 0
1, 61840, Note_off_c, 0, 57, 62
1, 61879, Note_on_c, 0, 59, 67
1, 61940, Note_off_c, 0, 59, 62
1, 61964, Note_on_c, 0, 61, 72
1, 61994, Note_off_c, 0, 61, 68
1, 62036, Note_on_c, 0, 62, 73
1, 62064, Note_off_c, 0, 62, 66
1, 62108, Note_on_c, 0, 64, 74
1, 62147, Note_off_c, 0, 64, 64
1, 62185, Note_on_c, 0, 66, 89
1, 62208, Note_off_c, 0, 66, 69
1, 62266, Note_on_c, 0, 81, 69
1, 62274, Note_on_c, 0, 74, 58
1, 62294, Note_off_c, 0, 74, 62
1, 62314, Note_off_c, 0, 81, 60
1, 62349, Note_on_c, 0, 83, 67
1, 62358, Note_on_c, 0, 78, 60
1, 62390, Note_off_c, 0, 78, 62
1, 62414, Note_on_c, 0, 61, 73
1, 62427, Note_on_c, 0, 81, 77
1, 62428, Note_off_c, 0, 83, 64
1, 62430, Note_on_c, 0, 74, 61
1, 62440, Note_off_c, 0, 61, 67
1, 62461, Note_off_c, 0, 74, 66
1, 62483, Note_off_c, 0, 81, 61
1, 62492, Note_on_c, 0, 62, 84
1, 62513, Note_on_c, 0, 83, 64
1, 62548, Note_on_c, 0, 78, 22
1, 62559, Note_on_c, 0, 74, 74
1, 62577, Note_off_c, 0, 78, 43
1, 62578, Note_off_c, 0, 83, 64
1, 62579, Note_on_c, 0, 81, 73
1, 62590, Note_off_c, 0, 74, 65
1, 62599, Note_off_c, 0, 81, 72
1, 62666, Note_off_c, 0, 62, 63
1, 62675, Note_on_c, 0, 90, 72
1, 62676, Note_on_c, 0, 86, 73
1, 62697, Note_off_c, 0, 86, 70
1, 62709, Note_off_c, 0, 90, 61
1, 62767, Note_on_c, 0, 57, 66
1, 62802, Note_off_c, 0, 57, 66
1, 62843, Note_on_c, 0, 59, 68
1, 62894, Note_off_c, 0, 59, 61
1, 62923, Note_on_c, 0, 61, 76
1, 62923, Note_on_c, 0, 86, 72
1, 62924, Note_on_c, 0, 81, 69
1, 62925, Note_on_c, 0, 78, 66
1, 62945, Note_off_c, 0, 86, 68
1, 62948, Note_off_c, 0, 81, 70
1, 62951, Note_off_c, 0, 78, 68
1, 62952, Note_off_c, 0, 61, 68
1, 62996, Note_on_c, 0, 86, 80
1, 62998, Note_on_c, 0, 62, 74
1, 63004, Note_on_c, 0, 81, 73
1, 63022, Note_on_c, 0, 78, 52
1, 63031, Note_off_c, 0, 81, 64
1, 63037, Note_off_c, 0, 62, 64
1, 63041, Note_off_c, 0, 86, 65
1, 63046, Note_off_c, 0, 78, 56
1, 63084, Note_on_c, 0, 64, 77
1, 63142, Note_off_c, 0, 64, 58
1, 63164, Note_on_c, 0, 66, 90
1, 63195, Note_off_c, 0, 66, 67
1, 63231, Note_on_c, 0, 81, 75
1, 63243, Note_on_c, 0, 74, 64
1, 63264, Note_off_c, 0, 81, 63
1, 63266, Note_off_c, 0, 74, 65
1, 63323, Note_on_c, 0, 83, 73
1, 63330, Note_on_c, 0, 78, 62
1, 63368, Note_off_c, 0, 78, 53
1, 63395, Note_on_c, 0, 61, 74
1, 63408, Note_off_c, 0, 83, 62
1, 63412, Note_on_c, 0, 74, 66
1, 63414, Note_on_c, 0, 81, 73
1, 63422, Note_off_c, 0, 61, 67
1, 63440, Note_off_c, 0, 74, 65
1, 63449, Note_off_c, 0, 81, 58
1, 63480, Note_on_c, 0, 62, 85
1, 63486, Note_on_c, 0, 83, 62
1, 63535, Note_on_c, 0, 74, 59
1, 63547, Note_on_c, 0, 81, 78
1, 63553, Note_off_c, 0, 74, 64
1, 63565, Note_off_c, 0, 83, 62
1, 63569, Note_off_c, 0, 81, 65
1, 63638, Note_off_c, 0, 62, 62
1, 63643, Note_on_c, 0, 90, 83
1, 63647, Note_on_c, 0, 86, 75
1, 63669, Note_off_c, 0, 86, 71
1, 63675, Note_off_c, 0, 90, 66
1, 63734, Note_on_c, 0, 62, 75
1, 63794, Note_off_c, 0, 62, 62
1, 63807, Note_on_c, 0, 64, 73
1, 63861, Note_off_c, 0, 64, 62
1, 63880, Note_on_c, 0, 86, 69
1, 63883, Note_on_c, 0, 66, 83
1, 63883, Note_on_c, 0, 81, 67
1, 63890, Note_on_c, 0, 78, 58
1, 63905, Note_off_c, 0, 86, 67
1, 63908, Note_off_c, 0, 81, 70
1, 63909, Note_off_c, 0, 78, 59
1, 63937, Note_off_c, 0, 66, 63
1, 63955, Note_on_c, 0, 86, 72
1, 63967, Note_on_c, 0, 81, 68
1, 63975, Note_on_c, 0, 67, 72
1, 63986, Note_on_c, 0, 78, 47
1, 63993, Note_off_c, 0, 86, 60
1, 63994, Note_off_c, 0, 81, 67
1, 64005, Note_off_c, 0, 67, 58
1, 64012, Note_off_c, 0, 78, 54
1, 64042, Note_on_c, 0, 69, 72
1, 64099, Note_off_c, 0, 69, 58
1, 64131, Note_on_c, 0, 71, 74
1, 64144, Note_on_c, 0, 61, 62
1, 64152, Note_off_c, 0, 71, 70
1, 64164, Note_off_c, 0, 61, 63
1, 64205, Note_on_c, 0, 81, 65
1, 64224, Note_on_c, 0, 76, 39
1, 64230, Note_off_c, 0, 81, 69
1, 64251, Note_off_c, 0, 76, 55
1, 64291, Note_on_c, 0, 83, 71
1, 64310, Note_on_c, 0, 79, 31
1, 64344, Note_off_c, 0, 79, 50
1, 64356, Note_on_c, 0, 81, 76
1, 64361, Note_off_c, 0, 83, 64
1, 64364, Note_on_c, 0, 68, 79
1, 64364, Note_on_c, 0, 76, 55
1, 64390, Note_off_c, 0, 68, 67
1, 64400, Note_off_c, 0, 76, 60
1, 64405, Note_off_c, 0, 81, 64
1, 64435, Note_on_c, 0, 79, 44
1, 64438, Note_on_c, 0, 69, 81
1, 64450, Note_on_c, 0, 83, 70
1, 64459, Note_off_c, 0, 79, 55
1, 64507, Note_on_c, 0, 81, 71
1, 64514, Note_off_c, 0, 83, 64
1, 64530, Note_off_c, 0, 81, 69
1, 64532, Note_off_c, 0, 69, 51
1, 64602, Note_on_c, 0, 95, 94
1, 64603, Note_on_c, 0, 57, 68
1, 64618, Note_on_c, 0, 91, 65
1, 64636, Note_off_c, 0, 91, 41
1, 64636, Note_off_c, 0, 95, 65
1, 64643, Note_on_c, 0, 85, 29
1, 64649, Note_off_c, 0, 85, 45
1, 64674, Note_off_c, 0, 57, 63
1, 64685, Note_on_c, 0, 63, 75
1, 64735, Note_off_c, 0, 63, 64
1, 64768, Note_on_c, 0, 64, 69
1, 64798, Note_off_c, 0, 64, 69
1, 64836, Note_on_c, 0, 93, 80
1, 64838, Note_on_c, 0, 88, 75
1, 64840, Note_on_c, 0, 85, 73
1, 64844, Note_on_c, 0, 66, 70
1, 64857, Note_off_c, 0, 93, 70
1, 64858, Note_off_c, 0, 88, 73
1, 64861, Note_off_c, 0, 85, 68
1, 64917, Note_on_c, 0, 93, 85
1, 64920, Note_on_c, 0, 67, 75
1, 64925, Note_on_c, 0, 85, 76
1, 64927, Note_on_c, 0, 88, 70
1, 64927, Note_off_c, 0, 66, 62
1, 64945, Note_off_c, 0, 85, 71
1, 64948, Note_off_c, 0, 88, 72
1, 64951, Note_off_c, 0, 93, 58
1, 64967, Note_off_c, 0, 67, 63
1, 64987, Note_on_c, 0, 69, 77
1, 65046, Note_off_c, 0, 69, 62
1, 65064, Note_on_c, 0, 71, 79
1, 65080, Note_on_c, 0, 61, 62
1, 65084, Note_off_c, 0, 71, 69
1, 65100, Note_off_c, 0, 61, 63
1, 65138, Note_on_c, 0, 81, 79
1, 65147, Note_on_c, 0, 76, 66
1, 65173, Note_off_c, 0, 76, 68
1, 65185, Note_off_c, 0, 81, 61
1, 65215, Note_on_c, 0, 83, 77
1, 65224, Note_on_c, 0, 79, 60
1, 65291, Note_off_c, 0, 79, 38
1, 65295, Note_on_c, 0, 76, 61
1, 65295, Note_off_c, 0, 83, 64
1, 65296, Note_on_c, 0, 81, 77
1, 65320, Note_on_c, 0, 67, 71
1, 65341, Note_off_c, 0, 81, 63
1, 65364, Note_off_c, 0, 76, 0
1, 65384, Note_on_c, 0, 83, 70
1, 65402, Poly_aftertouch_c, 0, 76, 0
1, 65408, Note_off_c, 0, 67, 59
1, 65423, Note_on_c, 0, 73, 80
1, 65436, Note_off_c, 0, 83, 66
1, 65447, Note_on_c, 0, 81, 49
1, 65451, Poly_aftertouch_c, 0, 79, 0
1, 65470, Note_off_c, 0, 81, 39
1, 65494, Note_off_c, 0, 73, 62
1, 65544, Note_on_c, 0, 97, 91
1, 65560, Note_on_c, 0, 88, 63
1, 65571, Note_on_c, 0, 57, 68
1, 65571, Note_off_c, 0, 97, 62
1, 65579, Note_off_c, 0, 88, 64
1, 65627, Note_off_c, 0, 57, 63
1, 65667, Note_on_c, 0, 71, 67
1, 65735, Note_off_c, 0, 71, 40
1, 65744, Note_on_c, 0, 69, 78
1, 65780, Note_on_c, 0, 95, 77
1, 65789, Note_on_c, 0, 85, 69
1, 65789, Note_on_c, 0, 88, 62
1, 65812, Note_off_c, 0, 85, 68
1, 65813, Note_off_c, 0, 69, 61
1, 65828, Note_off_c, 0, 88, 54
1, 65833, Note_on_c, 0, 64, 62
1, 65875, Note_on_c, 0, 93, 72
1, 65878, Note_on_c, 0, 88, 30
1, 65880, Note_off_c, 0, 95, 66
1, 65881, Note_on_c, 0, 85, 45
1, 65899, Note_off_c, 0, 93, 65
1, 65901, Note_off_c, 0, 88, 50
1, 65905, Note_off_c, 0, 85, 50
1, 65905, Note_on_c, 0, 66, 82
1, 65911, Note_off_c, 0, 64, 66
1, 65963, Note_off_c, 0, 66, 67
1, 65985, Note_on_c, 0, 67, 77
1, 66047, Note_off_c, 0, 67, 59
1, 66051, Note_on_c, 0, 66, 85
1, 66071, Note_off_c, 0, 66, 72
1, 66094, Note_on_c, 0, 81, 79
1, 66100, Note_on_c, 0, 74, 72
1, 66123, Note_off_c, 0, 74, 71
1, 66135, Note_off_c, 0, 81, 61
1, 66179, Note_on_c, 0, 78, 67
1, 66183, Note_on_c, 0, 83, 65
1, 66253, Note_on_c, 0, 81, 73
1, 66253, Note_off_c, 0, 78, 58
1, 66254, Note_off_c, 0, 83, 64
1, 66264, Note_on_c, 0, 74, 58
1, 66286, Note_off_c, 0, 74, 57
1, 66293, Note_on_c, 0, 61, 71
1, 66302, Note_off_c, 0, 81, 61
1, 66319, Note_off_c, 0, 61, 68
1, 66325, Note_on_c, 0, 83, 67
1, 66364, Note_on_c, 0, 62, 87
1, 66400, Note_off_c, 0, 83, 64
1, 66411, Note_on_c, 0, 74, 3
1, 66414, Note_on_c, 0, 81, 66
1, 66420, Note_on_c, 0, 78, 30
1, 66428, Note_off_c, 0, 81, 68
1, 66443, Note_off_c, 0, 74, 35
1, 66455, Note_off_c, 0, 78, 31
1, 66504, Note_off_c, 0, 62, 63
1, 66507, Note_on_c, 0, 90, 82
1, 66516, Note_on_c, 0, 86, 71
1, 66517, Note_on_c, 0, 81, 50
1, 66537, Note_off_c, 0, 86, 72
1, 66537, Note_off_c, 0, 90, 66
1, 66540, Note_off_c, 0, 81, 59
1, 66610, Note_on_c, 0, 57, 66
1, 66655, Note_off_c, 0, 57, 62
1, 66688, Note_on_c, 0, 59, 69
1, 66744, Note_off_c, 0, 59, 64
1, 66748, Note_on_c, 0, 81, 74
1, 66755, Note_on_c, 0, 78, 70
1, 66760, Note_on_c, 0, 86, 64
1, 66761, Note_on_c, 0, 61, 77
1, 66769, Note_off_c, 0, 81, 70
1, 66778, Note_off_c, 0, 78, 68
1, 66781, Note_off_c, 0, 86, 65
1, 66805, Note_off_c, 0, 61, 65
1, 66831, Note_on_c, 0, 62, 80
1, 66835, Note_on_c, 0, 81, 74
1, 66840, Note_on_c, 0, 86, 70
1, 66841, Note_on_c, 0, 78, 64
1, 66856, Note_off_c, 0, 81, 70
1, 66861, Note_off_c, 0, 86, 71
1, 66865, Note_off_c, 0, 78, 63
1, 66865, Note_off_c, 0, 62, 66
1, 66918, Note_on_c, 0, 64, 75
1, 66969, Note_off_c, 0, 64, 62
1, 66996, Note_on_c, 0, 66, 85
1, 67017, Note_off_c, 0, 66, 72
1, 67067, Note_on_c, 0, 81, 72
1, 67070, Note_on_c, 0, 74, 73
1, 67091, Note_off_c, 0, 81, 67
1, 67093, Note_off_c, 0, 74, 71
1, 67157, Note_on_c, 0, 83, 73
1, 67166, Note_on_c, 0, 78, 61
1, 67203, Note_off_c, 0, 78, 53
1, 67234, Note_on_c, 0, 61, 73
1, 67235, Note_off_c, 0, 83, 64
1, 67237, Note_on_c, 0, 81, 75
1, 67242, Note_on_c, 0, 74, 60
1, 67270, Note_off_c, 0, 61, 65
1, 67271, Note_off_c, 0, 74, 56
1, 67276, Note_off_c, 0, 81, 62
1, 67305, Note_on_c, 0, 62, 86
1, 67314, Note_on_c, 0, 83, 65
1, 67373, Note_on_c, 0, 78, 63
1, 67377, Note_on_c, 0, 81, 80
1, 67389, Note_off_c, 0, 83, 60
1, 67397, Note_off_c, 0, 78, 67
1, 67400, Note_off_c, 0, 81, 67
1, 67443, Note_off_c, 0, 62, 63
1, 67476, Note_on_c, 0, 90, 79
1, 67488, Note_on_c, 0, 86, 68
1, 67511, Note_off_c, 0, 86, 71
1, 67514, Note_off_c, 0, 90, 65
1, 67547, Note_on_c, 0, 62, 72
1, 67607, Note_off_c, 0, 62, 61
1, 67623, Note_on_c, 0, 64, 73
1, 67684, Note_off_c, 0, 64, 62
1, 67703, Note_on_c, 0, 66, 83
1, 67705, Note_on_c, 0, 81, 75
1, 67710, Note_on_c, 0, 78, 73
1, 67723, Note_off_c, 0, 81, 72
1, 67731, Note_off_c, 0, 78, 69
1, 67733, Note_on_c, 0, 86, 40
1, 67747, Note_off_c, 0, 66, 67
1, 67777, Note_off_c, 0, 86, 0
1, 67777, Note_on_c, 0, 86, 56
1, 67786, Note_on_c, 0, 81, 78
1, 67786, Note_on_c, 0, 67, 72
1, 67793, Note_on_c, 0, 78, 65
1, 67819, Note_off_c, 0, 81, 54
1, 67819, Note_off_c, 0, 78, 65
1, 67820, Note_off_c, 0, 86, 66
1, 67826, Note_off_c, 0, 67, 62
1, 67857, Control_c, 0, 67, 83
1, 67873, Note_on_c, 0, 69, 75
1, 67880, Control_c, 0, 67, 0
1, 67932, Note_off_c, 0, 69, 63
1, 67971, Note_on_c, 0, 71, 70
1, 67986, Note_on_c, 0, 61, 57
1, 67994, Note_off_c, 0, 71, 68
1, 68007, Note_off_c, 0, 61, 60
1, 68031, Note_on_c, 0, 81, 68
1, 68046, Note_on_c, 0, 76, 44
1, 68060, Note_off_c, 0, 81, 64
1, 68072, Note_off_c, 0, 76, 56
1, 68121, Note_on_c, 0, 83, 69
1, 68132, Note_on_c, 0, 79, 49
1, 68158, Note_off_c, 0, 79, 56
1, 68188, Note_on_c, 0, 76, 57
1, 68188, Note_off_c, 0, 83, 64
1, 68197, Note_on_c, 0, 81, 66
1, 68211, Note_on_c, 0, 67, 76
1, 68236, Note_off_c, 0, 81, 65
1, 68266, Control_c, 0, 64, 38
1, 68267, Note_off_c, 0, 76, 38
1, 68281, Control_c, 0, 64, 53
1, 68292, Note_on_c, 0, 83, 63
1, 68295, Control_c, 0, 64, 61
1, 68310, Note_off_c, 0, 67, 58
1, 68310, Control_c, 0, 64, 62
1, 68313, Note_on_c, 0, 73, 70
1, 68325, Control_c, 0, 64, 63
1, 68340, Control_c, 0, 64, 65
1, 68340, Control_c, 0, 67, 46
1, 68346, Note_on_c, 0, 81, 78
1, 68355, Control_c, 0, 64, 66
1, 68355, Control_c, 0, 67, 67
1, 68364, Note_off_c, 0, 83, 63
1, 68367, Note_off_c, 0, 81, 71
1, 68370, Control_c, 0, 64, 68
1, 68370, Control_c, 0, 67, 88
1, 68385, Control_c, 0, 64, 69
1, 68385, Control_c, 0, 67, 101
1, 68400, Note_off_c, 0, 73, 53
1, 68400, Control_c, 0, 64, 72
1, 68400, Control_c, 0, 67, 111
1, 68415, Control_c, 0, 64, 72
1, 68415, Control_c, 0, 67, 120
1, 68429, Control_c, 0, 64, 72
1, 68429, Control_c, 0, 67, 127
1, 68444, Control_c, 0, 64, 66
1, 68459, Control_c, 0, 64, 54
1, 68473, Control_c, 0, 64, 34
1, 68488, Control_c, 0, 64, 33
1, 68503, Control_c, 0, 64, 42
1, 68505, Note_on_c, 0, 95, 88
1, 68518, Control_c, 0, 64, 52
1, 68521, Note_on_c, 0, 91, 61
1, 68526, Note_on_c, 0, 57, 60
1, 68528, Note_on_c, 0, 85, 55
1, 68533, Control_c, 0, 64, 59
1, 68540, Note_off_c, 0, 91, 59
1, 68540, Note_off_c, 0, 95, 63
1, 68547, Control_c, 0, 64, 64
1, 68548, Note_off_c, 0, 85, 58
1, 68562, Control_c, 0, 64, 66
1, 68567, Note_off_c, 0, 57, 65
1, 68577, Control_c, 0, 64, 67
1, 68592, Control_c, 0, 64, 68
1, 68607, Control_c, 0, 64, 68
1, 68609, Note_on_c, 0, 71, 70
1, 68644, Control_c, 0, 64, 69
1, 68644, Note_off_c, 0, 71, 65
1, 68715, Note_on_c, 0, 69, 78
1, 68763, Note_on_c, 0, 85, 76
1, 68769, Note_on_c, 0, 88, 71
1, 68773, Note_off_c, 0, 69, 62
1, 68781, Note_on_c, 0, 93, 47
1, 68783, Note_off_c, 0, 85, 71
1, 68786, Note_off_c, 0, 88, 68
1, 68796, Note_on_c, 0, 79, 70
1, 68806, Control_c, 0, 64, 69
1, 68817, Note_off_c, 0, 93, 0
1, 68817, Note_on_c, 0, 93, 63
1, 68836, Control_c, 0, 64, 70
1, 68846, Note_on_c, 0, 85, 37
1, 68847, Note_on_c, 0, 88, 55
1, 68852, Note_off_c, 0, 79, 62
1, 68862, Note_on_c, 0, 76, 77
1, 68866, Note_off_c, 0, 88, 62
1, 68872, Note_off_c, 0, 85, 34
1, 68872, Note_off_c, 0, 93, 64
1, 68880, Control_c, 0, 64, 70
1, 68936, Note_on_c, 0, 73, 79
1, 68963, Note_off_c, 0, 76, 60
1, 68998, Note_on_c, 0, 97, 96
1, 69013, Note_on_c, 0, 88, 62
1, 69013, Note_off_c, 0, 73, 66
1, 69014, Note_on_c, 0, 71, 76
1, 69022, Note_on_c, 0, 91, 51
1, 69032, Note_off_c, 0, 88, 66
1, 69044, Note_off_c, 0, 91, 54
1, 69061, Note_off_c, 0, 97, 63
1, 69082, Note_on_c, 0, 69, 75
1, 69108, Note_off_c, 0, 71, 47
1, 69109, Note_off_c, 0, 69, 67
1, 69170, Note_on_c, 0, 67, 74
1, 69194, Note_off_c, 0, 67, 68
1, 69210, Note_on_c, 0, 95, 84
1, 69220, Note_on_c, 0, 88, 71
1, 69237, Control_c, 0, 64, 68
1, 69243, Note_on_c, 0, 64, 75
1, 69252, Control_c, 0, 64, 57
1, 69267, Control_c, 0, 64, 0
1, 69268, Note_on_c, 0, 93, 87
1, 69273, Note_off_c, 0, 95, 67
1, 69276, Note_off_c, 0, 88, 61
1, 69287, Note_off_c, 0, 93, 70
1, 69300, Note_on_c, 0, 61, 71
1, 69301, Note_off_c, 0, 64, 65
1, 69352, Note_off_c, 0, 61, 65
1, 69379, Note_on_c, 0, 59, 73
1, 69446, Note_off_c, 0, 59, 64
1, 69448, Note_on_c, 0, 100, 79
1, 69460, Note_on_c, 0, 57, 69
1, 69480, Note_on_c, 0, 88, 40
1, 69484, Note_off_c, 0, 100, 60
1, 69511, Note_off_c, 0, 88, 34
1, 69529, Note_off_c, 0, 57, 63
1, 69556, Note_on_c, 0, 61, 58
1, 69590, Note_off_c, 0, 61, 65
1, 69610, Note_on_c, 0, 95, 74
1, 69620, Note_on_c, 0, 64, 67
1, 69623, Note_on_c, 0, 88, 38
1, 69636, Note_off_c, 0, 95, 64
1, 69646, Note_on_c, 0, 91, 27
1, 69650, Note_off_c, 0, 64, 66
1, 69654, Note_off_c, 0, 88, 50
1, 69684, Note_off_c, 0, 91, 31
1, 69714, Note_on_c, 0, 67, 58
1, 69759, Note_off_c, 0, 67, 59
1, 69789, Note_on_c, 0, 97, 74
1, 69792, Note_on_c, 0, 68, 58
1, 69822, Note_off_c, 0, 68, 66
1, 69828, Note_off_c, 0, 97, 53
1, 69850, Poly_aftertouch_c, 0, 88, 0
1, 69882, Note_on_c, 0, 69, 52
1, 70029, Note_on_c, 0, 98, 67
1, 70060, Control_c, 0, 64, 37
1, 70064, Note_on_c, 0, 56, 39
1, 70072, Note_off_c, 0, 69, 42
1, 70075, Control_c, 0, 64, 48
1, 70090, Control_c, 0, 64, 53
1, 70090, Control_c, 0, 67, 121
1, 70105, Control_c, 0, 64, 56
1, 70105, Control_c, 0, 67, 101
1, 70126, Control_c, 0, 64, 58
1, 70126, Control_c, 0, 67, 68
1, 70141, Control_c, 0, 64, 60
1, 70141, Control_c, 0, 67, 0
1, 70156, Note_off_c, 0, 98, 60
1, 70156, Control_c, 0, 64, 62
1, 70161, Note_on_c, 0, 95, 63
1, 70171, Control_c, 0, 64, 63
1, 70175, Note_off_c, 0, 56, 61
1, 70186, Control_c, 0, 64, 65
1, 70200, Control_c, 0, 64, 66
1, 70215, Control_c, 0, 64, 68
1, 70225, Note_off_c, 0, 95, 65
1, 70230, Control_c, 0, 64, 69
1, 70245, Control_c, 0, 64, 72
1, 70257, Note_on_c, 0, 89, 56
1, 70260, Control_c, 0, 64, 74
1, 70275, Control_c, 0, 64, 76
1, 70290, Control_c, 0, 64, 78
1, 70291, Note_off_c, 0, 89, 65
1, 70305, Control_c, 0, 64, 79
1, 70319, Control_c, 0, 64, 80
1, 70334, Control_c, 0, 64, 81
1, 70345, Note_on_c, 0, 86, 60
1, 70349, Control_c, 0, 64, 82
1, 70361, Note_on_c, 0, 70, 48
1, 70364, Control_c, 0, 64, 82
1, 70373, Note_off_c, 0, 86, 66
1, 70376, Note_on_c, 0, 65, 40
1, 70379, Control_c, 0, 64, 83
1, 70391, Note_off_c, 0, 70, 58
1, 70395, Note_on_c, 0, 62, 32
1, 70405, Note_off_c, 0, 65, 53
1, 70408, Control_c, 0, 64, 83
1, 70436, Note_on_c, 0, 83, 66
1, 70440, Note_off_c, 0, 62, 44
1, 70489, Note_off_c, 0, 83, 58
1, 70492, Note_on_c, 0, 62, 28
1, 70528, Note_off_c, 0, 62, 45
1, 70531, Note_on_c, 0, 77, 61
1, 70542, Control_c, 0, 64, 84
1, 70587, Control_c, 0, 64, 83
1, 70602, Control_c, 0, 64, 77
1, 70616, Control_c, 0, 64, 67
1, 70625, Note_off_c, 0, 77, 51
1, 70631, Control_c, 0, 64, 55
1, 70646, Control_c, 0, 64, 47
1, 70660, Control_c, 0, 64, 49
1, 70665, Note_on_c, 0, 55, 55
1, 70665, Note_on_c, 0, 74, 55
1, 70675, Control_c, 0, 64, 53
1, 70690, Control_c, 0, 64, 57
1, 70705, Control_c, 0, 64, 60
1, 70709, Note_off_c, 0, 55, 64
1, 70720, Control_c, 0, 64, 63
1, 70725, Note_off_c, 0, 74, 53
1, 70734, Control_c, 0, 64, 67
1, 70749, Control_c, 0, 64, 70
1, 70761, Note_on_c, 0, 77, 59
1, 70764, Control_c, 0, 64, 72
1, 70779, Control_c, 0, 64, 74
1, 70794, Control_c, 0, 64, 75
1, 70808, Control_c, 0, 64, 77
1, 70817, Note_off_c, 0, 77, 59
1, 70823, Control_c, 0, 64, 78
1, 70838, Control_c, 0, 64, 80
1, 70853, Control_c, 0, 64, 81
1, 70856, Note_on_c, 0, 83, 65
1, 70875, Control_c, 0, 64, 82
1, 70878, Note_on_c, 0, 71, 54
1, 70886, Note_off_c, 0, 83, 65
1, 70887, Note_on_c, 0, 62, 46
1, 70890, Control_c, 0, 64, 84
1, 70895, Note_on_c, 0, 65, 41
1, 70903, Note_off_c, 0, 71, 58
1, 70905, Control_c, 0, 64, 85
1, 70915, Note_off_c, 0, 62, 57
1, 70920, Control_c, 0, 64, 87
1, 70925, Note_off_c, 0, 65, 53
1, 70935, Control_c, 0, 64, 89
1, 70942, Note_on_c, 0, 86, 70
1, 70949, Control_c, 0, 64, 91
1, 70964, Control_c, 0, 64, 92
1, 70979, Control_c, 0, 64, 94
1, 70988, Note_off_c, 0, 86, 50
1, 70994, Control_c, 0, 64, 96
1, 71011, Note_on_c, 0, 89, 74
1, 71022, Note_on_c, 0, 62, 54
1, 71023, Control_c, 0, 64, 100
1, 71026, Note_on_c, 0, 65, 43
1, 71053, Control_c, 0, 64, 102
1, 71057, Note_off_c, 0, 65, 53
1, 71062, Note_off_c, 0, 62, 65
1, 71065, Note_off_c, 0, 89, 61
1, 71066, Poly_aftertouch_c, 0, 71, 127
1, 71098, Note_on_c, 0, 95, 71
1, 71098, Control_c, 0, 64, 105
1, 71103, Poly_aftertouch_c, 0, 71, 0
1, 71127, Control_c, 0, 64, 109
1, 71172, Control_c, 0, 64, 107
1, 71187, Control_c, 0, 64, 87
1, 71201, Control_c, 0, 64, 64
1, 71207, Note_on_c, 0, 99, 81
1, 71216, Control_c, 0, 64, 37
1, 71218, Note_off_c, 0, 95, 60
1, 71221, Note_on_c, 0, 54, 63
1, 71231, Control_c, 0, 64, 0
1, 71258, Note_off_c, 0, 54, 57
1, 71261, Control_c, 0, 64, 42
1, 71275, Control_c, 0, 64, 54
1, 71291, Control_c, 0, 64, 62
1, 71306, Control_c, 0, 64, 67
1, 71307, Note_on_c, 0, 95, 72
1, 71321, Control_c, 0, 64, 71
1, 71336, Control_c, 0, 64, 76
1, 71336, Note_off_c, 0, 99, 61
1, 71351, Control_c, 0, 64, 80
1, 71365, Control_c, 0, 64, 84
1, 71380, Control_c, 0, 64, 87
1, 71388, Note_off_c, 0, 95, 66
1, 71393, Note_on_c, 0, 90, 64
1, 71395, Control_c, 0, 64, 92
1, 71410, Control_c, 0, 64, 97
1, 71425, Control_c, 0, 64, 105
1, 71439, Control_c, 0, 64, 119
1, 71446, Note_off_c, 0, 90, 62
1, 71448, Note_on_c, 0, 70, 67
1, 71454, Note_on_c, 0, 63, 58
1, 71454, Control_c, 0, 64, 127
1, 71459, Note_on_c, 0, 87, 67
1, 71465, Note_on_c, 0, 66, 51
1, 71473, Note_off_c, 0, 70, 69
1, 71482, Note_off_c, 0, 63, 64
1, 71484, Note_off_c, 0, 87, 69
1, 71489, Note_off_c, 0, 66, 59
1, 71533, Note_on_c, 0, 83, 76
1, 71543, Note_on_c, 0, 66, 60
1, 71548, Note_on_c, 0, 63, 65
1, 71550, Note_on_c, 0, 71, 42
1, 71571, Note_off_c, 0, 63, 64
1, 71571, Note_off_c, 0, 66, 66
1, 71579, Note_off_c, 0, 71, 52
1, 71598, Note_off_c, 0, 83, 65
1, 71604, Note_on_c, 0, 78, 80
1, 71679, Note_off_c, 0, 78, 60
1, 71695, Note_on_c, 0, 75, 79
1, 71728, Control_c, 0, 64, 83
1, 71743, Control_c, 0, 64, 61
1, 71752, Note_off_c, 0, 75, 63
1, 71758, Control_c, 0, 64, 0
1, 71763, Note_on_c, 0, 78, 78
1, 71802, Control_c, 0, 64, 41
1, 71816, Control_c, 0, 64, 59
1, 71828, Note_off_c, 0, 78, 61
1, 71830, Note_on_c, 0, 83, 76
1, 71831, Control_c, 0, 64, 66
1, 71839, Note_on_c, 0, 59, 65
1, 71840, Note_on_c, 0, 68, 60
1, 71846, Note_on_c, 0, 63, 59
1, 71846, Control_c, 0, 64, 73
1, 71851, Note_off_c, 0, 83, 70
1, 71861, Control_c, 0, 64, 81
1, 71874, Note_off_c, 0, 68, 62
1, 71876, Note_off_c, 0, 59, 62
1, 71876, Control_c, 0, 64, 90
1, 71881, Note_off_c, 0, 63, 63
1, 71890, Control_c, 0, 64, 101
1, 71905, Control_c, 0, 64, 119
1, 71912, Note_on_c, 0, 87, 84
1, 71920, Control_c, 0, 64, 127
1, 71965, Note_off_c, 0, 87, 62
1, 71986, Note_on_c, 0, 59, 66
1, 71988, Note_on_c, 0, 90, 78
1, 71990, Note_on_c, 0, 69, 64
1, 71994, Note_on_c, 0, 63, 57
1, 72017, Note_off_c, 0, 69, 68
1, 72027, Note_off_c, 0, 63, 65
1, 72028, Note_off_c, 0, 59, 63
1, 72061, Note_on_c, 0, 95, 76
1, 72076, Note_off_c, 0, 90, 62
1, 72114, Control_c, 0, 64, 74
1, 72129, Control_c, 0, 64, 39
1, 72144, Note_off_c, 0, 95, 61
1, 72144, Control_c, 0, 64, 0
1, 72155, Note_on_c, 0, 52, 80
1, 72155, Note_on_c, 0, 100, 95
1, 72162, Note_on_c, 0, 88, 84
1, 72174, Control_c, 0, 64, 36
1, 72183, Note_off_c, 0, 52, 66
1, 72188, Control_c, 0, 64, 53
1, 72203, Control_c, 0, 64, 64
1, 72218, Control_c, 0, 64, 75
1, 72233, Control_c, 0, 64, 86
1, 72241, Note_on_c, 0, 96, 82
1, 72247, Control_c, 0, 64, 96
1, 72249, Note_off_c, 0, 88, 64
1, 72262, Control_c, 0, 64, 105
1, 72277, Control_c, 0, 64, 115
1, 72278, Note_off_c, 0, 100, 65
1, 72292, Control_c, 0, 64, 127
1, 72314, Note_on_c, 0, 91, 75
1, 72324, Note_off_c, 0, 96, 66
1, 72375, Note_off_c, 0, 91, 66
1, 72382, Note_on_c, 0, 63, 13
1, 72384, Note_on_c, 0, 66, 74
1, 72397, Note_on_c, 0, 88, 71
1, 72400, Note_on_c, 0, 60, 54
1, 72403, Note_on_c, 0, 64, 52
1, 72408, Note_off_c, 0, 66, 70
1, 72420, Note_off_c, 0, 88, 72
1, 72436, Note_off_c, 0, 63, 50
1, 72437, Note_off_c, 0, 60, 55
1, 72451, Note_off_c, 0, 64, 0
1, 72462, Note_on_c, 0, 64, 63
1, 72465, Note_on_c, 0, 67, 73
1, 72469, Note_on_c, 0, 84, 81
1, 72488, Note_off_c, 0, 67, 70
1, 72491, Poly_aftertouch_c, 0, 60, 127
1, 72504, Note_off_c, 0, 64, 65
1, 72508, Poly_aftertouch_c, 0, 60, 0
1, 72540, Note_off_c, 0, 84, 61
1, 72546, Note_on_c, 0, 79, 73
1, 72581, Control_c, 0, 64, 97
1, 72595, Control_c, 0, 64, 67
1, 72610, Control_c, 0, 64, 40
1, 72614, Note_off_c, 0, 79, 61
1, 72618, Note_on_c, 0, 76, 84
1, 72625, Control_c, 0, 64, 0
1, 72639, Control_c, 0, 64, 42
1, 72654, Control_c, 0, 64, 56
1, 72669, Control_c, 0, 64, 65
1, 72672, Note_off_c, 0, 76, 65
1, 72684, Control_c, 0, 64, 71
1, 72695, Note_on_c, 0, 79, 80
1, 72699, Control_c, 0, 64, 79
1, 72713, Control_c, 0, 64, 87
1, 72728, Control_c, 0, 64, 94
1, 72743, Control_c, 0, 64, 104
1, 72756, Note_on_c, 0, 63, 71
1, 72758, Control_c, 0, 64, 127
1, 72760, Note_off_c, 0, 79, 63
1, 72762, Note_on_c, 0, 84, 81
1, 72770, Note_on_c, 0, 55, 62
1, 72777, Note_on_c, 0, 60, 53
1, 72794, Note_off_c, 0, 84, 62
1, 72799, Note_off_c, 0, 63, 53
1, 72809, Note_off_c, 0, 55, 61
1, 72809, Note_off_c, 0, 60, 65
1, 72841, Note_on_c, 0, 88, 90
1, 72902, Note_on_c, 0, 55, 68
1, 72902, Note_on_c, 0, 60, 56
1, 72913, Note_on_c, 0, 91, 89
1, 72915, Note_on_c, 0, 64, 47
1, 72919, Note_off_c, 0, 88, 60
1, 72931, Note_off_c, 0, 60, 65
1, 72940, Note_off_c, 0, 64, 57
1, 72945, Note_off_c, 0, 55, 62
1, 72990, Note_on_c, 0, 96, 86
1, 72991, Note_off_c, 0, 91, 63
1, 73026, Control_c, 0, 64, 78
1, 73041, Control_c, 0, 64, 30
1, 73056, Control_c, 0, 64, 0
1, 73062, Note_on_c, 0, 101, 98
1, 73065, Note_on_c, 0, 50, 75
1, 73071, Note_on_c, 0, 89, 90
1, 73085, Control_c, 0, 64, 39
1, 73093, Note_off_c, 0, 96, 66
1, 73099, Note_off_c, 0, 50, 67
1, 73100, Control_c, 0, 64, 59
1, 73122, Control_c, 0, 64, 71
1, 73136, Control_c, 0, 64, 88
1, 73151, Control_c, 0, 64, 127
1, 73156, Note_on_c, 0, 95, 86
1, 73164, Note_off_c, 0, 101, 67
1, 73179, Note_off_c, 0, 89, 61
1, 73217, Note_on_c, 0, 65, 62
1, 73231, Note_on_c, 0, 56, 68
1, 73235, Note_on_c, 0, 92, 86
1, 73243, Note_off_c, 0, 95, 65
1, 73245, Note_off_c, 0, 65, 66
1, 73262, Note_off_c, 0, 56, 66
1, 73300, Note_on_c, 0, 89, 84
1, 73303, Note_off_c, 0, 92, 67
1, 73318, Poly_aftertouch_c, 0, 59, 0
1, 73353, Note_on_c, 0, 49, 77
1, 73379, Note_on_c, 0, 92, 93
1, 73383, Note_off_c, 0, 49, 66
1, 73388, Note_off_c, 0, 89, 59
1, 73446, Note_on_c, 0, 97, 87
1, 73462, Note_off_c, 0, 92, 65
1, 73492, Control_c, 0, 64, 87
1, 73507, Control_c, 0, 64, 55
1, 73511, Note_on_c, 0, 47, 73
1, 73521, Note_on_c, 0, 101, 101
1, 73522, Control_c, 0, 64, 0
1, 73530, Note_off_c, 0, 97, 64
1, 73530, Note_on_c, 0, 89, 88
1, 73542, Note_off_c, 0, 47, 67
1, 73551, Control_c, 0, 64, 31
1, 73566, Control_c, 0, 64, 53
1, 73581, Control_c, 0, 64, 67
1, 73596, Control_c, 0, 64, 80
1, 73600, Note_on_c, 0, 98, 89
1, 73610, Control_c, 0, 64, 103
1, 73625, Control_c, 0, 64, 127
1, 73631, Note_off_c, 0, 89, 60
1, 73660, Note_on_c, 0, 62, 72
1, 73661, Note_on_c, 0, 65, 67
1, 73667, Note_on_c, 0, 56, 76
1, 73681, Note_off_c, 0, 101, 66
1, 73682, Note_off_c, 0, 65, 64
1, 73682, Note_off_c, 0, 62, 65
1, 73695, Note_off_c, 0, 56, 68
1, 73697, Note_on_c, 0, 92, 91
1, 73714, Note_off_c, 0, 98, 67
1, 73788, Note_on_c, 0, 98, 91
1, 73801, Note_on_c, 0, 46, 77
1, 73822, Note_off_c, 0, 92, 64
1, 73844, Note_off_c, 0, 46, 53
1, 73952, Note_on_c, 0, 102, 90
1, 73960, Control_c, 0, 64, 100
1, 73963, Note_on_c, 0, 45, 78
1, 73974, Control_c, 0, 64, 62
1, 73974, Control_c, 0, 67, 64
1, 73978, Note_off_c, 0, 98, 63
1, 73989, Control_c, 0, 64, 0
1, 73989, Control_c, 0, 67, 90
1, 74004, Control_c, 0, 64, 30
1, 74004, Control_c, 0, 67, 116
1, 74017, Note_off_c, 0, 102, 67
1, 74019, Control_c, 0, 64, 54
1, 74019, Control_c, 0, 67, 127
1, 74034, Control_c, 0, 64, 65
1, 74044, Note_on_c, 0, 54, 74
1, 74049, Control_c, 0, 64, 78
1, 74054, Note_off_c, 0, 45, 60
1, 74064, Control_c, 0, 64, 100
1, 74078, Control_c, 0, 64, 127
1, 74108, Note_off_c, 0, 54, 59
1, 74113, Note_on_c, 0, 57, 77
1, 74150, Note_off_c, 0, 57, 64
1, 74198, Note_on_c, 0, 62, 74
1, 74198, Note_on_c, 0, 97, 73
1, 74209, Note_on_c, 0, 85, 61
1, 74226, Control_c, 0, 67, 124
1, 74231, Note_off_c, 0, 62, 60
1, 74237, Note_off_c, 0, 85, 66
1, 74241, Control_c, 0, 67, 120
1, 74256, Control_c, 0, 67, 117
1, 74262, Note_on_c, 0, 98, 86
1, 74271, Control_c, 0, 67, 115
1, 74282, Note_off_c, 0, 97, 63
1, 74285, Control_c, 0, 67, 111
1, 74289, Note_on_c, 0, 65, 52
1, 74300, Control_c, 0, 67, 107
1, 74305, Note_off_c, 0, 98, 67
1, 74311, Note_off_c, 0, 65, 60
1, 74315, Control_c, 0, 67, 101
1, 74330, Note_on_c, 0, 69, 71
1, 74330, Control_c, 0, 67, 89
1, 74345, Control_c, 0, 67, 83
1, 74359, Control_c, 0, 67, 83
1, 74374, Control_c, 0, 67, 84
1, 74384, Note_off_c, 0, 69, 63
1, 74389, Control_c, 0, 67, 85
1, 74418, Control_c, 0, 67, 85
1, 74424, Note_on_c, 0, 74, 89
1, 74448, Control_c, 0, 67, 81
1, 74460, Note_off_c, 0, 74, 62
1, 74463, Control_c, 0, 67, 67
1, 74479, Control_c, 0, 67, 0
1, 74505, Note_on_c, 0, 81, 82
1, 74534, Note_off_c, 0, 81, 58
1, 74564, Note_on_c, 0, 83, 77
1, 74634, Note_on_c, 0, 85, 84
1, 74634, Note_off_c, 0, 83, 58
1, 74634, Control_c, 0, 64, 82
1, 74648, Control_c, 0, 64, 63
1, 74663, Control_c, 0, 64, 41
1, 74678, Control_c, 0, 64, 0
1, 74684, Note_on_c, 0, 86, 71
1, 74722, Note_off_c, 0, 85, 62
1, 74776, Note_on_c, 0, 88, 75
1, 74802, Note_off_c, 0, 86, 65
1, 74822, Note_on_c, 0, 90, 84
1, 74826, Note_on_c, 0, 44, 64
1, 74827, Control_c, 0, 64, 41
1, 74839, Note_off_c, 0, 88, 63
1, 74841, Control_c, 0, 64, 60
1, 74856, Control_c, 0, 64, 68
1, 74867, Note_off_c, 0, 90, 64
1, 74871, Control_c, 0, 64, 77
1, 74886, Control_c, 0, 64, 82
1, 74901, Control_c, 0, 64, 87
1, 74901, Note_off_c, 0, 44, 61
1, 74904, Note_on_c, 0, 54, 71
1, 74916, Control_c, 0, 64, 92
1, 74931, Control_c, 0, 64, 96
1, 74934, Note_off_c, 0, 54, 64
1, 74946, Control_c, 0, 64, 98
1, 74961, Control_c, 0, 64, 101
1, 74974, Note_on_c, 0, 59, 67
1, 74990, Control_c, 0, 64, 103
1, 75000, Note_off_c, 0, 59, 66
1, 75038, Note_on_c, 0, 85, 75
1, 75042, Note_on_c, 0, 62, 72
1, 75074, Note_off_c, 0, 62, 62
1, 75110, Note_on_c, 0, 86, 74
1, 75114, Note_off_c, 0, 85, 61
1, 75126, Note_on_c, 0, 66, 38
1, 75150, Note_off_c, 0, 86, 58
1, 75160, Note_off_c, 0, 66, 36
1, 75188, Note_on_c, 0, 69, 57
1, 75190, Note_on_c, 0, 71, 54
1, 75211, Note_off_c, 0, 71, 59
1, 75217, Note_off_c, 0, 69, 66
1, 75266, Note_on_c, 0, 74, 75
1, 75289, Note_on_c, 0, 72, 38
1, 75293, Note_off_c, 0, 74, 67
1, 75302, Control_c, 0, 64, 105
1, 75318, Note_off_c, 0, 72, 53
1, 75323, Note_on_c, 0, 82, 77
1, 75346, Control_c, 0, 64, 101
1, 75369, Control_c, 0, 64, 81
1, 75380, Note_off_c, 0, 82, 63
1, 75384, Control_c, 0, 64, 58
1, 75395, Note_on_c, 0, 83, 81
1, 75399, Control_c, 0, 64, 0
1, 75466, Note_on_c, 0, 85, 83
1, 75471, Note_off_c, 0, 83, 63
1, 75540, Note_on_c, 0, 86, 71
1, 75542, Note_off_c, 0, 85, 63
1, 75608, Note_off_c, 0, 86, 64
1, 75611, Note_on_c, 0, 90, 69
1, 75626, Note_off_c, 0, 90, 65
1, 75642, Note_on_c, 0, 89, 63
1, 75664, Control_c, 0, 64, 44
1, 75670, Note_off_c, 0, 89, 66
1, 75676, Note_on_c, 0, 45, 52
1, 75679, Control_c, 0, 64, 61
1, 75680, Note_on_c, 0, 95, 73
1, 75694, Control_c, 0, 64, 68
1, 75706, Note_on_c, 0, 93, 54
1, 75709, Control_c, 0, 64, 73
1, 75724, Control_c, 0, 64, 77
1, 75727, Note_off_c, 0, 95, 65
1, 75732, Note_off_c, 0, 93, 58
1, 75736, Note_off_c, 0, 45, 57
1, 75739, Control_c, 0, 64, 80
1, 75751, Note_on_c, 0, 52, 61
1, 75754, Control_c, 0, 64, 84
1, 75769, Control_c, 0, 64, 87
1, 75783, Note_off_c, 0, 52, 65
1, 75783, Control_c, 0, 64, 90
1, 75798, Control_c, 0, 64, 92
1, 75813, Control_c, 0, 64, 94
1, 75828, Note_on_c, 0, 55, 58
1, 75828, Control_c, 0, 64, 94
1, 75843, Control_c, 0, 64, 95
1, 75856, Note_off_c, 0, 55, 64
1, 75857, Control_c, 0, 64, 95
1, 75872, Control_c, 0, 64, 96
1, 75872, Control_c, 0, 67, 39
1, 75887, Control_c, 0, 67, 40
1, 75897, Note_on_c, 0, 92, 75
1, 75902, Control_c, 0, 67, 41
1, 75905, Note_on_c, 0, 80, 66
1, 75921, Note_on_c, 0, 61, 61
1, 75927, Note_off_c, 0, 80, 65
1, 75956, Note_off_c, 0, 61, 65
1, 75972, Note_off_c, 0, 92, 65
1, 75975, Note_on_c, 0, 93, 66
1, 75976, Control_c, 0, 67, 40
1, 75979, Note_on_c, 0, 64, 68
1, 76005, Control_c, 0, 67, 39
1, 76007, Note_off_c, 0, 64, 67
1, 76020, Control_c, 0, 67, 39
1, 76021, Note_off_c, 0, 93, 61
1, 76035, Control_c, 0, 67, 38
1, 76050, Control_c, 0, 67, 37
1, 76052, Note_on_c, 0, 67, 61
1, 76080, Control_c, 0, 67, 0
1, 76084, Note_off_c, 0, 67, 61
1, 76135, Note_on_c, 0, 73, 71
1, 76157, Note_off_c, 0, 73, 70
1, 76206, Control_c, 0, 64, 85
1, 76211, Note_on_c, 0, 87, 73
1, 76221, Control_c, 0, 64, 65
1, 76236, Control_c, 0, 64, 33
1, 76251, Control_c, 0, 64, 0
1, 76257, Note_off_c, 0, 87, 61
1, 76279, Note_on_c, 0, 88, 65
1, 76335, Note_off_c, 0, 88, 46
1, 76345, Note_on_c, 0, 90, 79
1, 76409, Note_on_c, 0, 91, 78
1, 76429, Note_off_c, 0, 90, 62
1, 76485, Note_on_c, 0, 93, 80
1, 76502, Control_c, 0, 64, 34
1, 76517, Note_off_c, 0, 91, 66
1, 76517, Control_c, 0, 64, 49
1, 76532, Control_c, 0, 64, 60
1, 76546, Note_on_c, 0, 57, 56
1, 76547, Control_c, 0, 64, 64
1, 76561, Note_on_c, 0, 95, 74
1, 76562, Control_c, 0, 64, 66
1, 76576, Note_off_c, 0, 93, 63
1, 76576, Control_c, 0, 64, 68
1, 76591, Control_c, 0, 64, 70
1, 76594, Note_off_c, 0, 57, 61
1, 76604, Note_off_c, 0, 95, 66
1, 76606, Control_c, 0, 64, 74
1, 76616, Note_on_c, 0, 64, 58
1, 76621, Control_c, 0, 64, 76
1, 76636, Control_c, 0, 64, 78
1, 76651, Control_c, 0, 64, 79
1, 76654, Note_off_c, 0, 64, 64
1, 76666, Control_c, 0, 64, 81
1, 76680, Control_c, 0, 64, 82
1, 76695, Control_c, 0, 64, 83
1, 76705, Note_on_c, 0, 67, 51
1, 76710, Control_c, 0, 64, 83
1, 76725, Control_c, 0, 64, 84
1, 76729, Note_off_c, 0, 67, 60
1, 76740, Control_c, 0, 64, 84
1, 76769, Control_c, 0, 64, 85
1, 76785, Note_on_c, 0, 91, 66
1, 76794, Note_on_c, 0, 73, 60
1, 76799, Control_c, 0, 64, 85
1, 76813, Control_c, 0, 64, 86
1, 76825, Note_off_c, 0, 91, 65
1, 76829, Note_off_c, 0, 73, 64
1, 76869, Note_on_c, 0, 76, 69
1, 76878, Note_on_c, 0, 97, 75
1, 76881, Control_c, 0, 64, 86
1, 76897, Note_off_c, 0, 76, 66
1, 76910, Control_c, 0, 64, 87
1, 76934, Note_off_c, 0, 97, 62
1, 76940, Control_c, 0, 64, 87
1, 76962, Note_on_c, 0, 79, 61
1, 76985, Control_c, 0, 64, 88
1, 76997, Note_off_c, 0, 79, 63
1, 77044, Note_on_c, 0, 85, 78
1, 77059, Control_c, 0, 64, 88
1, 77078, Note_off_c, 0, 85, 60
1, 77128, Note_on_c, 0, 95, 79
1, 77217, Note_on_c, 0, 93, 84
1, 77232, Note_off_c, 0, 95, 62
1, 77298, Note_on_c, 0, 91, 76
1, 77310, Control_c, 0, 64, 88
1, 77323, Note_off_c, 0, 93, 61
1, 77325, Control_c, 0, 64, 85
1, 77340, Control_c, 0, 64, 75
1, 77351, Note_off_c, 0, 91, 67
1, 77355, Control_c, 0, 64, 61
1, 77370, Control_c, 0, 64, 0
1, 77376, Note_on_c, 0, 83, 77
1, 77411, Note_off_c, 0, 83, 63
1, 77462, Note_on_c, 0, 85, 78
1, 77517, Note_off_c, 0, 85, 62
1, 77611, Note_on_c, 0, 86, 83
1, 77614, Control_c, 0, 64, 42
1, 77615, Note_on_c, 0, 44, 73
1, 77624, Note_on_c, 0, 74, 72
1, 77629, Control_c, 0, 64, 67
1, 77644, Control_c, 0, 64, 77
1, 77644, Note_off_c, 0, 44, 64
1, 77658, Control_c, 0, 64, 89
1, 77664, Note_off_c, 0, 74, 54
1, 77673, Control_c, 0, 64, 98
1, 77689, Control_c, 0, 64, 110
1, 77690, Note_on_c, 0, 83, 78
1, 77696, Poly_aftertouch_c, 0, 48, 127
1, 77704, Control_c, 0, 64, 127
1, 77708, Note_off_c, 0, 86, 60
1, 77731, Poly_aftertouch_c, 0, 48, 0
1, 77767, Note_off_c, 0, 83, 62
1, 77773, Note_on_c, 0, 77, 77
1, 77819, Note_off_c, 0, 77, 62
1, 77837, Note_on_c, 0, 53, 57
1, 77838, Note_on_c, 0, 58, 60
1, 77847, Note_on_c, 0, 74, 75
1, 77869, Note_off_c, 0, 74, 71
1, 77870, Note_off_c, 0, 58, 63
1, 77875, Note_off_c, 0, 53, 63
1, 77897, Control_c, 0, 64, 99
1, 77912, Control_c, 0, 64, 70
1, 77926, Control_c, 0, 64, 42
1, 77927, Note_on_c, 0, 71, 77
1, 77939, Note_on_c, 0, 53, 63
1, 77940, Note_on_c, 0, 59, 64
1, 77941, Control_c, 0, 64, 0
1, 77956, Control_c, 0, 67, 37
1, 77961, Note_off_c, 0, 59, 63
1, 77966, Note_off_c, 0, 53, 66
1, 77971, Control_c, 0, 67, 38
1, 77985, Control_c, 0, 67, 39
1, 77992, Note_off_c, 0, 71, 61
1, 77995, Note_on_c, 0, 65, 70
1, 78000, Control_c, 0, 67, 39
1, 78030, Control_c, 0, 67, 39
1, 78045, Control_c, 0, 67, 37
1, 78049, Note_off_c, 0, 65, 60
1, 78059, Control_c, 0, 67, 0
1, 78081, Note_on_c, 0, 62, 83
1, 78089, Note_on_c, 0, 43, 83
1, 78104, Control_c, 0, 64, 45
1, 78118, Note_off_c, 0, 43, 68
1, 78119, Control_c, 0, 64, 69
1, 78133, Control_c, 0, 64, 83
1, 78138, Note_off_c, 0, 62, 64
1, 78148, Control_c, 0, 64, 102
1, 78162, Note_on_c, 0, 65, 78
1, 78163, Control_c, 0, 64, 127
1, 78222, Note_off_c, 0, 65, 61
1, 78251, Note_on_c, 0, 71, 80
1, 78252, Note_on_c, 0, 61, 78
1, 78252, Note_on_c, 0, 53, 77
1, 78270, Note_off_c, 0, 71, 70
1, 78279, Note_off_c, 0, 61, 67
1, 78281, Control_c, 0, 64, 89
1, 78285, Note_off_c, 0, 53, 63
1, 78296, Control_c, 0, 64, 61
1, 78311, Control_c, 0, 64, 0
1, 78320, Note_on_c, 0, 74, 90
1, 78383, Note_off_c, 0, 74, 57
1, 78400, Note_on_c, 0, 77, 83
1, 78407, Note_on_c, 0, 62, 63
1, 78424, Note_on_c, 0, 59, 56
1, 78428, Note_off_c, 0, 62, 63
1, 78428, Note_on_c, 0, 57, 48
1, 78445, Note_off_c, 0, 77, 62
1, 78445, Note_off_c, 0, 59, 61
1, 78454, Note_off_c, 0, 57, 37
1, 78480, Note_on_c, 0, 83, 71
1, 78562, Note_on_c, 0, 87, 90
1, 78568, Note_on_c, 0, 42, 90
1, 78568, Note_on_c, 0, 75, 93
1, 78586, Control_c, 0, 64, 60
1, 78593, Note_off_c, 0, 42, 66
1, 78593, Note_off_c, 0, 83, 64
1, 78601, Control_c, 0, 64, 92
1, 78615, Control_c, 0, 64, 127
1, 78641, Note_on_c, 0, 83, 66
1, 78652, Note_off_c, 0, 75, 60
1, 78676, Note_off_c, 0, 87, 61
1, 78733, Note_on_c, 0, 78, 76
1, 78733, Note_off_c, 0, 83, 64
1, 78769, Note_on_c, 0, 58, 80
1, 78777, Note_on_c, 0, 54, 71
1, 78782, Note_on_c, 0, 75, 74
1, 78784, Note_off_c, 0, 78, 62
1, 78794, Note_off_c, 0, 58, 66
1, 78804, Note_off_c, 0, 75, 68
1, 78806, Note_off_c, 0, 54, 64
1, 78857, Note_on_c, 0, 59, 81
1, 78858, Note_on_c, 0, 54, 83
1, 78864, Note_on_c, 0, 71, 81
1, 78881, Note_off_c, 0, 59, 70
1, 78893, Note_off_c, 0, 54, 63
1, 78931, Note_on_c, 0, 66, 84
1, 78932, Note_off_c, 0, 71, 64
1, 78986, Control_c, 0, 64, 105
1, 78997, Note_off_c, 0, 66, 64
1, 79000, Control_c, 0, 64, 62
1, 79009, Note_on_c, 0, 63, 84
1, 79015, Control_c, 0, 64, 0
1, 79067, Note_off_c, 0, 63, 63
1, 79082, Note_on_c, 0, 66, 77
1, 79148, Note_off_c, 0, 66, 65
1, 79159, Note_on_c, 0, 71, 77
1, 79175, Note_on_c, 0, 54, 67
1, 79178, Note_on_c, 0, 62, 67
1, 79183, Note_off_c, 0, 71, 68
1, 79206, Note_off_c, 0, 62, 65
1, 79214, Note_off_c, 0, 54, 60
1, 79241, Note_on_c, 0, 75, 82
1, 79285, Note_off_c, 0, 75, 59
1, 79307, Note_on_c, 0, 57, 76
1, 79312, Note_on_c, 0, 63, 68
1, 79318, Note_on_c, 0, 78, 80
1, 79334, Note_off_c, 0, 57, 70
1, 79337, Note_off_c, 0, 63, 64
1, 79390, Note_off_c, 0, 78, 52
1, 79407, Note_on_c, 0, 84, 50
1, 79408, Note_on_c, 0, 83, 63
1, 79423, Note_on_c, 0, 82, 48
1, 79435, Note_off_c, 0, 84, 67
1, 79437, Note_off_c, 0, 83, 67
1, 79447, Note_off_c, 0, 82, 53
1, 79463, Note_on_c, 0, 40, 90
1, 79469, Note_on_c, 0, 88, 95
1, 79471, Note_on_c, 0, 76, 98
1, 79483, Control_c, 0, 64, 65
1, 79494, Note_off_c, 0, 40, 67
1, 79498, Control_c, 0, 64, 98
1, 79513, Control_c, 0, 64, 127
1, 79545, Note_on_c, 0, 84, 79
1, 79564, Note_off_c, 0, 76, 62
1, 79586, Note_off_c, 0, 88, 64
1, 79620, Note_on_c, 0, 79, 74
1, 79626, Note_off_c, 0, 84, 65
1, 79677, Note_off_c, 0, 79, 61
1, 79686, Note_on_c, 0, 59, 77
1, 79686, Note_on_c, 0, 76, 81
1, 79695, Note_on_c, 0, 55, 62
1, 79713, Note_off_c, 0, 59, 67
1, 79718, Note_off_c, 0, 76, 62
1, 79729, Note_off_c, 0, 55, 64
1, 79767, Note_on_c, 0, 72, 86
1, 79778, Note_on_c, 0, 60, 78
1, 79779, Note_on_c, 0, 55, 81
1, 79802, Note_off_c, 0, 60, 70
1, 79806, Note_off_c, 0, 55, 65
1, 79829, Note_off_c, 0, 72, 66
1, 79832, Note_on_c, 0, 67, 75
1, 79907, Note_off_c, 0, 67, 57
1, 79920, Note_on_c, 0, 64, 84
1, 79971, Note_off_c, 0, 64, 67
1, 79979, Control_c, 0, 64, 66
1, 79992, Note_on_c, 0, 67, 84
1, 79994, Control_c, 0, 64, 0
1, 80045, Note_off_c, 0, 67, 63
1, 80073, Note_on_c, 0, 72, 73
1, 80082, Note_on_c, 0, 63, 76
1, 80086, Note_on_c, 0, 55, 71
1, 80094, Note_off_c, 0, 72, 69
1, 80122, Note_off_c, 0, 55, 63
1, 80123, Note_off_c, 0, 63, 62
1, 80142, Note_on_c, 0, 76, 88
1, 80206, Note_on_c, 0, 64, 63
1, 80207, Note_on_c, 0, 60, 70
1, 80214, Note_on_c, 0, 79, 84
1, 80216, Note_off_c, 0, 76, 46
1, 80226, Note_off_c, 0, 64, 65
1, 80233, Note_off_c, 0, 60, 67
1, 80282, Note_off_c, 0, 79, 62
1, 80287, Note_on_c, 0, 84, 81
1, 80365, Control_c, 0, 64, 53
1, 80373, Note_on_c, 0, 50, 94
1, 80374, Note_on_c, 0, 38, 80
1, 80375, Note_on_c, 0, 89, 95
1, 80377, Note_on_c, 0, 77, 100
1, 80380, Control_c, 0, 64, 77
1, 80395, Control_c, 0, 64, 98
1, 80398, Note_off_c, 0, 38, 66
1, 80401, Note_off_c, 0, 50, 67
1, 80410, Note_off_c, 0, 84, 58
1, 80410, Control_c, 0, 64, 127
1, 80464, Note_on_c, 0, 83, 78
1, 80468, Note_off_c, 0, 89, 61
1, 80490, Note_off_c, 0, 77, 61
1, 80544, Note_on_c, 0, 65, 82
1, 80546, Note_on_c, 0, 59, 81
1, 80547, Note_on_c, 0, 56, 81
1, 80550, Note_on_c, 0, 80, 88
1, 80550, Note_off_c, 0, 83, 62
1, 80564, Note_off_c, 0, 65, 71
1, 80572, Note_off_c, 0, 59, 67
1, 80602, Note_off_c, 0, 56, 62
1, 80628, Note_off_c, 0, 80, 62
1, 80633, Note_on_c, 0, 77, 89
1, 80720, Note_on_c, 0, 49, 86
1, 80720, Note_on_c, 0, 39, 83
1, 80721, Note_on_c, 0, 80, 89
1, 80725, Note_on_c, 0, 51, 78
1, 80731, Note_off_c, 0, 77, 58
1, 80735, Note_on_c, 0, 38, 66
1, 80743, Note_off_c, 0, 49, 69
1, 80748, Note_off_c, 0, 39, 65
1, 80753, Note_off_c, 0, 51, 64
1, 80765, Note_off_c, 0, 38, 64
1, 80784, Note_on_c, 0, 85, 77
1, 80799, Note_off_c, 0, 80, 58
1, 80832, Control_c, 0, 64, 115
1, 80846, Control_c, 0, 64, 65
1, 80861, Control_c, 0, 64, 0
1, 80866, Note_off_c, 0, 85, 61
1, 80882, Note_on_c, 0, 47, 104
1, 80885, Note_on_c, 0, 35, 96
1, 80887, Note_on_c, 0, 89, 98
1, 80891, Note_on_c, 0, 77, 101
1, 80907, Control_c, 0, 64, 60
1, 80908, Note_off_c, 0, 35, 71
1, 80915, Note_on_c, 0, 45, 42
1, 80915, Note_off_c, 0, 45, 127
1, 80920, Note_off_c, 0, 47, 66
1, 80922, Control_c, 0, 64, 86
1, 80937, Control_c, 0, 64, 127
1, 80968, Note_on_c, 0, 86, 79
1, 80999, Note_off_c, 0, 77, 61
1, 81027, Note_off_c, 0, 89, 57
1, 81045, Note_on_c, 0, 65, 92
1, 81051, Note_on_c, 0, 62, 73
1, 81052, Note_on_c, 0, 56, 90
1, 81057, Note_on_c, 0, 80, 79
1, 81063, Note_off_c, 0, 65, 74
1, 81075, Note_off_c, 0, 62, 67
1, 81078, Note_off_c, 0, 86, 63
1, 81090, Note_off_c, 0, 56, 65
1, 81119, Note_on_c, 0, 77, 78
1, 81122, Note_off_c, 0, 80, 65
1, 81196, Note_off_c, 0, 77, 61
1, 81212, Note_on_c, 0, 46, 96
1, 81219, Note_on_c, 0, 80, 70
1, 81222, Note_on_c, 0, 34, 95
1, 81241, Note_on_c, 0, 86, 74
1, 81246, Note_off_c, 0, 34, 66
1, 81246, Note_off_c, 0, 46, 64
1, 81253, Note_off_c, 0, 80, 59
1, 81260, Note_on_c, 0, 35, 26
1, 81306, Note_off_c, 0, 35, 39
1, 81307, Poly_aftertouch_c, 0, 47, 0
1, 81330, Poly_aftertouch_c, 0, 47, 0
1, 81358, Control_c, 0, 64, 80
1, 81373, Control_c, 0, 64, 30
1, 81388, Control_c, 0, 64, 0
1, 81391, Note_off_c, 0, 86, 64
1, 81418, Note_on_c, 0, 90, 84
1, 81421, Note_on_c, 0, 78, 100
1, 81425, Note_on_c, 0, 45, 109
1, 81426, Note_on_c, 0, 33, 85
1, 81447, Control_c, 0, 64, 56
1, 81450, Note_off_c, 0, 33, 65
1, 81459, Note_off_c, 0, 45, 67
1, 81459, Note_off_c, 0, 78, 67
1, 81460, Note_off_c, 0, 90, 68
1, 81462, Control_c, 0, 64, 73
1, 81477, Control_c, 0, 64, 97
1, 81492, Control_c, 0, 64, 127
1, 81660, Note_on_c, 0, 85, 72
1, 81662, Note_on_c, 0, 73, 70
1, 81662, Note_on_c, 0, 62, 73
1, 81662, Note_on_c, 0, 66, 80
1, 81664, Note_on_c, 0, 54, 67
1, 81674, Note_on_c, 0, 57, 60
1, 81685, Note_off_c, 0, 66, 72
1, 81685, Note_off_c, 0, 85, 65
1, 81687, Note_off_c, 0, 73, 68
1, 81690, Note_off_c, 0, 62, 66
1, 81693, Note_off_c, 0, 54, 66
1, 81700, Control_c, 0, 64, 71
1, 81704, Note_off_c, 0, 57, 65
1, 81715, Control_c, 0, 64, 45
1, 81719, Note_on_c, 0, 86, 94
1, 81721, Note_on_c, 0, 74, 98
1, 81730, Control_c, 0, 64, 56
1, 81734, Note_on_c, 0, 66, 91
1, 81735, Note_on_c, 0, 85, 55
1, 81739, Note_on_c, 0, 54, 80
1, 81745, Control_c, 0, 64, 69
1, 81755, Note_off_c, 0, 85, 57
1, 81760, Note_off_c, 0, 74, 67
1, 81760, Control_c, 0, 64, 90
1, 81764, Note_off_c, 0, 66, 57
1, 81769, Poly_aftertouch_c, 0, 57, 0
1, 81772, Note_off_c, 0, 86, 67
1, 81774, Control_c, 0, 64, 127
1, 81784, Note_off_c, 0, 54, 61
1, 81814, Poly_aftertouch_c, 0, 62, 127
1, 81847, Poly_aftertouch_c, 0, 62, 0
1, 81863, Control_c, 0, 64, 114
1, 81878, Control_c, 0, 64, 64
1, 81892, Control_c, 0, 64, 0
1, 81903, Note_on_c, 0, 69, 107
1, 81906, Note_on_c, 0, 66, 97
1, 81909, Note_on_c, 0, 62, 90
1, 81911, Note_on_c, 0, 57, 87
1, 81922, Control_c, 0, 64, 44
1, 81936, Note_off_c, 0, 69, 68
1, 81937, Control_c, 0, 64, 65
1, 81951, Control_c, 0, 64, 87
1, 81960, Note_off_c, 0, 57, 62
1, 81966, Control_c, 0, 64, 127
1, 81971, Note_off_c, 0, 62, 61
1, 81976, Note_off_c, 0, 66, 62
1, 82076, Note_on_c, 0, 83, 88
1, 82079, Note_on_c, 0, 71, 80
1, 82100, Note_off_c, 0, 83, 70
1, 82106, Note_off_c, 0, 71, 70
1, 82163, Note_on_c, 0, 73, 88
1, 82169, Note_on_c, 0, 85, 89
1, 82201, Note_off_c, 0, 73, 66
1, 82203, Note_off_c, 0, 85, 58
1, 82252, Note_on_c, 0, 86, 92
1, 82255, Note_on_c, 0, 74, 89
1, 82279, Note_off_c, 0, 74, 65
1, 82289, Note_off_c, 0, 86, 67
1, 82339, Note_on_c, 0, 88, 83
1, 82344, Note_on_c, 0, 76, 70
1, 82359, Note_off_c, 0, 88, 68
1, 82368, Note_off_c, 0, 76, 69
1, 82404, Control_c, 0, 64, 84
1, 82416, Note_on_c, 0, 44, 115
1, 82419, Control_c, 0, 64, 37
1, 82419, Note_on_c, 0, 78, 99
1, 82420, Note_on_c, 0, 90, 101
1, 82421, Note_on_c, 0, 32, 98
1, 82433, Control_c, 0, 64, 0
1, 82438, Note_off_c, 0, 32, 68
1, 82443, Note_off_c, 0, 44, 65
1, 82444, Note_off_c, 0, 90, 71
1, 82446, Note_off_c, 0, 78, 66
1, 82463, Control_c, 0, 64, 53
1, 82479, Control_c, 0, 64, 66
1, 82494, Control_c, 0, 64, 87
1, 82508, Control_c, 0, 64, 127
1, 82547, Poly_aftertouch_c, 0, 34, 0
1, 82556, Poly_aftertouch_c, 0, 32, 127
1, 82598, Poly_aftertouch_c, 0, 32, 0
1, 82644, Note_on_c, 0, 73, 80
1, 82650, Note_on_c, 0, 85, 81
1, 82654, Note_on_c, 0, 62, 75
1, 82665, Note_on_c, 0, 59, 67
1, 82666, Note_on_c, 0, 66, 72
1, 82671, Control_c, 0, 64, 94
1, 82672, Note_off_c, 0, 85, 68
1, 82686, Note_off_c, 0, 73, 61
1, 82686, Control_c, 0, 64, 56
1, 82687, Note_off_c, 0, 66, 65
1, 82688, Note_off_c, 0, 62, 60
1, 82701, Control_c, 0, 64, 0
1, 82715, Control_c, 0, 64, 41
1, 82718, Note_on_c, 0, 86, 108
1, 82720, Note_on_c, 0, 74, 106
1, 82721, Note_on_c, 0, 54, 81
1, 82729, Note_on_c, 0, 62, 57
1, 82730, Control_c, 0, 64, 63
1, 82734, Note_on_c, 0, 66, 79
1, 82745, Control_c, 0, 64, 77
1, 82756, Note_off_c, 0, 59, 62
1, 82756, Note_off_c, 0, 62, 64
1, 82759, Note_off_c, 0, 74, 66
1, 82760, Control_c, 0, 64, 127
1, 82768, Note_off_c, 0, 66, 63
1, 82779, Note_off_c, 0, 54, 63
1, 82783, Note_off_c, 0, 86, 65
1, 82871, Control_c, 0, 64, 80
1, 82886, Control_c, 0, 64, 46
1, 82892, Note_on_c, 0, 71, 107
1, 82893, Note_on_c, 0, 59, 90
1, 82899, Note_on_c, 0, 66, 88
1, 82900, Note_on_c, 0, 62, 77
1, 82901, Control_c, 0, 64, 36
1, 82916, Control_c, 0, 64, 58
1, 82918, Note_off_c, 0, 71, 67
1, 82930, Control_c, 0, 64, 72
1, 82935, Note_off_c, 0, 59, 65
1, 82936, Note_off_c, 0, 66, 58
1, 82945, Control_c, 0, 64, 109
1, 82950, Note_off_c, 0, 62, 62
1, 82960, Control_c, 0, 64, 127
1, 83054, Note_on_c, 0, 74, 80
1, 83057, Note_on_c, 0, 86, 77
1, 83075, Note_off_c, 0, 74, 71
1, 83078, Note_off_c, 0, 86, 71
1, 83131, Note_on_c, 0, 88, 89
1, 83140, Note_on_c, 0, 76, 77
1, 83158, Note_off_c, 0, 88, 63
1, 83161, Note_off_c, 0, 76, 71
1, 83218, Note_on_c, 0, 89, 83
1, 83224, Note_on_c, 0, 77, 71
1, 83238, Note_off_c, 0, 89, 68
1, 83239, Note_off_c, 0, 77, 68
1, 83299, Note_on_c, 0, 78, 78
1, 83301, Note_on_c, 0, 90, 86
1, 83319, Note_off_c, 0, 78, 71
1, 83344, Note_off_c, 0, 90, 62
1, 83361, Control_c, 0, 64, 93
1, 83376, Control_c, 0, 64, 53
1, 83391, Control_c, 0, 64, 0
1, 83392, Note_on_c, 0, 95, 108
1, 83393, Note_on_c, 0, 83, 102
1, 83394, Note_on_c, 0, 33, 90
1, 83394, Note_on_c, 0, 45, 102
1, 83421, Note_off_c, 0, 33, 69
1, 83434, Note_off_c, 0, 45, 65
1, 83435, Control_c, 0, 64, 56
1, 83436, Note_off_c, 0, 83, 66
1, 83447, Note_off_c, 0, 95, 70
1, 83450, Control_c, 0, 64, 72
1, 83465, Control_c, 0, 64, 104
1, 83479, Control_c, 0, 64, 127
1, 83623, Note_on_c, 0, 80, 78
1, 83626, Note_on_c, 0, 64, 80
1, 83628, Note_on_c, 0, 92, 77
1, 83638, Note_on_c, 0, 61, 61
1, 83646, Note_off_c, 0, 64, 73
1, 83647, Note_off_c, 0, 80, 67
1, 83651, Note_off_c, 0, 92, 70
1, 83659, Note_on_c, 0, 57, 32
1, 83659, Note_off_c, 0, 61, 63
1, 83675, Note_off_c, 0, 57, 0
1, 83686, Note_on_c, 0, 81, 96
1, 83686, Note_on_c, 0, 93, 95
1, 83693, Note_on_c, 0, 55, 80
1, 83694, Note_on_c, 0, 57, 30
1, 83694, Note_on_c, 0, 64, 93
1, 83707, Note_on_c, 0, 61, 78
1, 83715, Note_on_c, 0, 91, 52
1, 83725, Note_off_c, 0, 81, 68
1, 83729, Note_on_c, 0, 92, 29
1, 83729, Note_off_c, 0, 92, 127
1, 83730, Note_off_c, 0, 61, 67
1, 83731, Note_off_c, 0, 93, 66
1, 83737, Note_off_c, 0, 64, 61
1, 83741, Note_off_c, 0, 55, 64
1, 83743, Note_off_c, 0, 91, 40
1, 83795, Note_off_c, 0, 57, 51
1, 83842, Control_c, 0, 64, 103
1, 83857, Control_c, 0, 64, 56
1, 83871, Control_c, 0, 64, 0
1, 83874, Note_on_c, 0, 57, 85
1, 83876, Note_on_c, 0, 69, 99
1, 83877, Note_on_c, 0, 64, 91
1, 83881, Note_on_c, 0, 61, 83
1, 83886, Control_c, 0, 64, 41
1, 83901, Control_c, 0, 64, 62
1, 83907, Note_off_c, 0, 69, 65
1, 83915, Control_c, 0, 64, 74
1, 83921, Note_off_c, 0, 57, 65
1, 83930, Control_c, 0, 64, 107
1, 83931, Note_off_c, 0, 64, 64
1, 83942, Note_off_c, 0, 61, 63
1, 83945, Control_c, 0, 64, 127
1, 84040, Note_on_c, 0, 88, 85
1, 84045, Note_on_c, 0, 76, 77
1, 84067, Note_off_c, 0, 76, 66
1, 84070, Note_off_c, 0, 88, 65
1, 84123, Note_on_c, 0, 78, 86
1, 84130, Note_on_c, 0, 90, 86
1, 84157, Note_off_c, 0, 90, 62
1, 84162, Note_off_c, 0, 78, 63
1, 84202, Note_on_c, 0, 79, 76
1, 84202, Note_on_c, 0, 91, 90
1, 84219, Note_off_c, 0, 79, 73
1, 84234, Note_off_c, 0, 91, 69
1, 84290, Note_on_c, 0, 85, 90
1, 84298, Note_on_c, 0, 97, 87
1, 84334, Note_off_c, 0, 85, 62
1, 84336, Note_off_c, 0, 97, 63
1, 84369, Control_c, 0, 64, 98
1, 84384, Control_c, 0, 64, 58
1, 84392, Note_on_c, 0, 45, 104
1, 84398, Note_on_c, 0, 33, 83
1, 84398, Note_on_c, 0, 95, 105
1, 84399, Control_c, 0, 64, 0
1, 84400, Note_on_c, 0, 83, 111
1, 84419, Note_off_c, 0, 33, 65
1, 84423, Note_off_c, 0, 45, 68
1, 84425, Note_on_c, 0, 94, 58
1, 84428, Control_c, 0, 64, 35
1, 84435, Note_off_c, 0, 83, 69
1, 84443, Control_c, 0, 64, 60
1, 84445, Note_off_c, 0, 94, 59
1, 84446, Note_off_c, 0, 95, 64
1, 84458, Control_c, 0, 64, 71
1, 84473, Control_c, 0, 64, 99
1, 84488, Control_c, 0, 64, 127
1, 84582, Poly_aftertouch_c, 0, 33, 0
1, 84635, Note_on_c, 0, 82, 77
1, 84638, Note_on_c, 0, 64, 83
1, 84638, Note_on_c, 0, 94, 70
1, 84646, Note_on_c, 0, 57, 64
1, 84651, Note_on_c, 0, 61, 55
1, 84657, Note_off_c, 0, 82, 70
1, 84658, Note_off_c, 0, 64, 72
1, 84666, Note_off_c, 0, 94, 67
1, 84667, Note_off_c, 0, 57, 62
1, 84674, Note_off_c, 0, 61, 60
1, 84693, Note_on_c, 0, 93, 101
1, 84694, Note_on_c, 0, 81, 95
1, 84700, Note_on_c, 0, 64, 101
1, 84706, Note_on_c, 0, 55, 9
1, 84709, Note_on_c, 0, 57, 74
1, 84717, Note_on_c, 0, 61, 72
1, 84731, Note_off_c, 0, 81, 67
1, 84738, Note_off_c, 0, 93, 65
1, 84743, Note_off_c, 0, 64, 63
1, 84744, Note_off_c, 0, 57, 62
1, 84744, Note_off_c, 0, 61, 65
1, 84752, Note_off_c, 0, 55, 61
1, 84904, Control_c, 0, 64, 71
1, 84918, Control_c, 0, 64, 0
1, 84921, Note_on_c, 0, 69, 100
1, 84923, Note_on_c, 0, 64, 90
1, 84923, Note_on_c, 0, 61, 90
1, 84929, Note_on_c, 0, 57, 83
1, 84947, Note_off_c, 0, 69, 67
1, 84959, Note_off_c, 0, 64, 68
1, 84963, Control_c, 0, 64, 62
1, 84968, Note_off_c, 0, 57, 67
1, 84973, Note_off_c, 0, 61, 68
1, 84977, Control_c, 0, 64, 104
1, 84992, Control_c, 0, 64, 127
1, 85163, Control_c, 0, 64, 105
1, 85177, Control_c, 0, 64, 66
1, 85192, Control_c, 0, 64, 0
1, 85212, Note_on_c, 0, 56, 80
1, 85230, Note_on_c, 0, 44, 56
1, 85260, Note_off_c, 0, 44, 54
1, 85268, Note_off_c, 0, 56, 64
1, 85285, Note_on_c, 0, 57, 68
1, 85290, Note_on_c, 0, 45, 72
1, 85316, Note_off_c, 0, 45, 65
1, 85326, Note_off_c, 0, 57, 53
1, 85353, Note_on_c, 0, 59, 80
1, 85374, Note_on_c, 0, 47, 65
1, 85403, Note_off_c, 0, 47, 64
1, 85403, Note_off_c, 0, 59, 55
1, 85433, Note_on_c, 0, 61, 74
1, 85438, Note_on_c, 0, 49, 69
1, 85464, Note_off_c, 0, 49, 65
1, 85483, Note_off_c, 0, 61, 63
1, 85504, Note_on_c, 0, 62, 99
1, 85510, Note_on_c, 0, 50, 92
1, 85513, Note_on_c, 0, 38, 81
1, 85533, Control_c, 0, 64, 63
1, 85536, Note_off_c, 0, 38, 66
1, 85543, Note_off_c, 0, 62, 69
1, 85544, Note_off_c, 0, 50, 67
1, 85548, Control_c, 0, 64, 127
1, 85761, Note_on_c, 0, 62, 98
1, 85763, Note_on_c, 0, 78, 90
1, 85764, Note_on_c, 0, 57, 90
1, 85766, Note_on_c, 0, 69, 75
1, 85766, Note_on_c, 0, 74, 87
1, 85768, Note_on_c, 0, 66, 96
1, 85769, Note_on_c, 0, 54, 84
1, 85788, Note_off_c, 0, 62, 66
1, 85790, Note_off_c, 0, 69, 67
1, 85796, Note_off_c, 0, 78, 66
1, 85802, Note_off_c, 0, 74, 63
1, 85803, Note_off_c, 0, 57, 67
1, 85808, Note_off_c, 0, 54, 64
1, 85809, Note_off_c, 0, 66, 62
1, 85884, Poly_aftertouch_c, 0, 56, 0
1, 86027, Note_on_c, 0, 62, 81
1, 86028, Note_on_c, 0, 50, 83
1, 86032, Note_on_c, 0, 38, 82
1, 86044, Note_off_c, 0, 62, 74
1, 86050, Note_off_c, 0, 50, 72
1, 86054, Note_off_c, 0, 38, 67
1, 86084, Note_on_c, 0, 62, 92
1, 86094, Note_on_c, 0, 38, 91
1, 86097, Note_on_c, 0, 50, 91
1, 86103, Control_c, 0, 64, 79
1, 86114, Note_off_c, 0, 38, 70
1, 86118, Control_c, 0, 64, 39
1, 86122, Note_off_c, 0, 62, 60
1, 86126, Note_off_c, 0, 50, 66
1, 86133, Control_c, 0, 64, 0
1, 86253, Note_on_c, 0, 54, 83
1, 86254, Note_on_c, 0, 42, 88
1, 86259, Note_on_c, 0, 66, 79
1, 86273, Note_off_c, 0, 54, 70
1, 86279, Note_off_c, 0, 42, 65
1, 86319, Note_off_c, 0, 66, 61
1, 86411, Note_on_c, 0, 57, 87
1, 86417, Note_on_c, 0, 33, 93
1, 86422, Note_on_c, 0, 45, 95
1, 86442, Note_off_c, 0, 33, 71
1, 86443, Note_off_c, 0, 45, 70
1, 86463, Note_off_c, 0, 57, 64
1, 86609, Note_on_c, 0, 62, 98
1, 86611, Note_on_c, 0, 50, 100
1, 86616, Note_on_c, 0, 38, 100
1, 86630, Control_c, 0, 64, 61
1, 86637, Note_off_c, 0, 38, 71
1, 86642, Note_off_c, 0, 62, 65
1, 86645, Control_c, 0, 64, 127
1, 86649, Note_off_c, 0, 50, 68
1, 86850, Note_on_c, 0, 81, 99
1, 86851, Note_on_c, 0, 57, 90
1, 86852, Note_on_c, 0, 66, 101
1, 86852, Note_on_c, 0, 69, 102
1, 86853, Note_on_c, 0, 62, 83
1, 86854, Note_on_c, 0, 78, 91
1, 86858, Note_on_c, 0, 74, 91
1, 86875, Note_off_c, 0, 66, 67
1, 86875, Note_off_c, 0, 74, 72
1, 86884, Note_off_c, 0, 81, 69
1, 86885, Note_off_c, 0, 69, 67
1, 86887, Note_off_c, 0, 62, 66
1, 86891, Note_off_c, 0, 57, 66
1, 86891, Note_off_c, 0, 78, 65
1, 87093, Note_on_c, 0, 50, 84
1, 87099, Note_on_c, 0, 62, 66
1, 87106, Note_on_c, 0, 38, 63
1, 87115, Note_off_c, 0, 62, 67
1, 87117, Note_off_c, 0, 50, 67
1, 87132, Note_off_c, 0, 38, 0
1, 87146, Note_on_c, 0, 62, 91
1, 87147, Note_on_c, 0, 38, 68
1, 87155, Note_on_c, 0, 50, 90
1, 87178, Control_c, 0, 64, 69
1, 87180, Note_off_c, 0, 38, 65
1, 87186, Note_off_c, 0, 50, 66
1, 87193, Control_c, 0, 64, 0
1, 87197, Note_off_c, 0, 62, 65
1, 87316, Note_on_c, 0, 57, 95
1, 87319, Note_on_c, 0, 69, 79
1, 87324, Note_on_c, 0, 45, 85
1, 87347, Note_off_c, 0, 57, 69
1, 87353, Note_off_c, 0, 45, 67
1, 87364, Note_off_c, 0, 69, 60
1, 87477, Note_on_c, 0, 66, 86
1, 87478, Note_on_c, 0, 54, 94
1, 87483, Note_on_c, 0, 42, 92
1, 87505, Note_off_c, 0, 54, 60
1, 87510, Note_off_c, 0, 42, 66
1, 87524, Note_off_c, 0, 66, 61
1, 87635, Note_on_c, 0, 62, 74
1, 87639, Note_on_c, 0, 50, 95
1, 87642, Note_on_c, 0, 38, 91
1, 87659, Note_off_c, 0, 62, 65
1, 87661, Control_c, 0, 64, 70
1, 87668, Note_off_c, 0, 38, 68
1, 87672, Note_off_c, 0, 50, 65
1, 87676, Control_c, 0, 64, 127
1, 87838, Note_on_c, 0, 82, 93
1, 87838, Note_on_c, 0, 67, 96
1, 87838, Note_on_c, 0, 70, 95
1, 87839, Note_on_c, 0, 58, 94
1, 87839, Note_on_c, 0, 79, 81
1, 87840, Note_on_c, 0, 62, 86
1, 87843, Note_on_c, 0, 74, 77
1, 87856, Note_off_c, 0, 67, 68
1, 87865, Note_off_c, 0, 74, 69
1, 87871, Note_off_c, 0, 82, 67
1, 87872, Note_off_c, 0, 79, 63
1, 87873, Note_off_c, 0, 62, 68
1, 87875, Note_off_c, 0, 70, 65
1, 87883, Note_off_c, 0, 58, 66
1, 88068, Note_on_c, 0, 62, 79
1, 88074, Note_on_c, 0, 50, 89
1, 88078, Note_on_c, 0, 38, 83
1, 88096, Note_off_c, 0, 62, 72
1, 88104, Note_off_c, 0, 50, 71
1, 88115, Note_off_c, 0, 38, 65
1, 88125, Note_on_c, 0, 62, 92
1, 88142, Note_on_c, 0, 38, 83
1, 88147, Note_on_c, 0, 50, 89
1, 88163, Note_off_c, 0, 62, 67
1, 88172, Control_c, 0, 64, 76
1, 88172, Note_off_c, 0, 38, 66
1, 88178, Note_off_c, 0, 50, 65
1, 88186, Control_c, 0, 64, 34
1, 88201, Control_c, 0, 64, 0
1, 88294, Note_on_c, 0, 55, 95
1, 88300, Note_on_c, 0, 67, 82
1, 88303, Note_on_c, 0, 43, 86
1, 88316, Note_off_c, 0, 55, 70
1, 88333, Note_off_c, 0, 43, 68
1, 88347, Note_off_c, 0, 67, 63
1, 88463, Note_on_c, 0, 58, 94
1, 88468, Note_on_c, 0, 46, 102
1, 88470, Note_on_c, 0, 34, 94
1, 88492, Note_off_c, 0, 46, 68
1, 88497, Note_off_c, 0, 34, 71
1, 88508, Note_off_c, 0, 58, 64
1, 88644, Note_on_c, 0, 62, 86
1, 88646, Note_on_c, 0, 50, 96
1, 88650, Note_on_c, 0, 38, 93
1, 88660, Control_c, 0, 64, 55
1, 88663, Note_off_c, 0, 62, 70
1, 88672, Note_off_c, 0, 38, 67
1, 88675, Control_c, 0, 64, 102
1, 88679, Note_off_c, 0, 50, 68
1, 88680, Note_on_c, 0, 40, 52
1, 88690, Control_c, 0, 64, 127
1, 88712, Note_off_c, 0, 40, 55
1, 88793, Poly_aftertouch_c, 0, 38, 127
1, 88843, Poly_aftertouch_c, 0, 38, 0
1, 88891, Note_on_c, 0, 86, 96
1, 88892, Note_on_c, 0, 82, 97
1, 88893, Note_on_c, 0, 74, 102
1, 88894, Note_on_c, 0, 62, 89
1, 88895, Note_on_c, 0, 67, 87
1, 88896, Note_on_c, 0, 70, 90
1, 88896, Note_on_c, 0, 79, 84
1, 88913, Note_off_c, 0, 70, 73
1, 88917, Note_off_c, 0, 79, 67
1, 88923, Note_off_c, 0, 86, 69
1, 88924, Note_off_c, 0, 74, 68
1, 88929, Note_off_c, 0, 67, 69
1, 88929, Note_off_c, 0, 82, 67
1, 88935, Note_off_c, 0, 62, 67
1, 89123, Note_on_c, 0, 62, 89
1, 89129, Note_on_c, 0, 50, 86
1, 89134, Note_on_c, 0, 38, 78
1, 89144, Note_off_c, 0, 62, 71
1, 89149, Note_off_c, 0, 50, 72
1, 89171, Note_off_c, 0, 38, 0
1, 89187, Control_c, 0, 64, 65
1, 89194, Note_on_c, 0, 50, 87
1, 89196, Note_on_c, 0, 62, 85
1, 89202, Control_c, 0, 64, 0
1, 89208, Poly_aftertouch_c, 0, 38, 0
1, 89225, Note_off_c, 0, 50, 68
1, 89242, Note_off_c, 0, 62, 64
1, 89356, Note_on_c, 0, 58, 102
1, 89363, Note_on_c, 0, 46, 90
1, 89366, Note_on_c, 0, 70, 86
1, 89389, Note_off_c, 0, 46, 66
1, 89391, Note_off_c, 0, 58, 67
1, 89406, Note_on_c, 0, 45, 35
1, 89428, Note_off_c, 0, 70, 63
1, 89453, Note_off_c, 0, 45, 32
1, 89528, Note_on_c, 0, 55, 99
1, 89529, Note_on_c, 0, 43, 96
1, 89530, Note_on_c, 0, 67, 81
1, 89555, Note_off_c, 0, 55, 66
1, 89560, Note_off_c, 0, 43, 67
1, 89592, Note_off_c, 0, 67, 62
1, 89698, Note_on_c, 0, 38, 90
1, 89700, Note_on_c, 0, 50, 96
1, 89713, Control_c, 0, 64, 61
1, 89720, Note_off_c, 0, 38, 66
1, 89726, Note_off_c, 0, 50, 70
1, 89728, Control_c, 0, 64, 127
1, 89891, Note_on_c, 0, 86, 102
1, 89893, Note_on_c, 0, 74, 100
1, 89893, Note_on_c, 0, 78, 98
1, 89902, Note_on_c, 0, 69, 95
1, 89903, Note_on_c, 0, 66, 97
1, 89904, Note_on_c, 0, 57, 85
1, 89904, Note_on_c, 0, 81, 72
1, 89905, Note_on_c, 0, 62, 81
1, 89917, Note_off_c, 0, 69, 76
1, 89921, Note_off_c, 0, 86, 71
1, 89924, Note_off_c, 0, 81, 64
1, 89925, Note_off_c, 0, 74, 67
1, 89933, Note_off_c, 0, 78, 66
1, 89937, Note_off_c, 0, 66, 66
1, 89939, Note_off_c, 0, 62, 65
1, 89946, Note_off_c, 0, 57, 62
1, 90123, Note_on_c, 0, 62, 87
1, 90134, Note_on_c, 0, 50, 82
1, 90140, Note_off_c, 0, 62, 74
1, 90147, Note_on_c, 0, 38, 65
1, 90157, Note_off_c, 0, 50, 70
1, 90169, Note_off_c, 0, 38, 62
1, 90187, Note_on_c, 0, 62, 97
1, 90202, Note_on_c, 0, 38, 80
1, 90202, Control_c, 0, 64, 101
1, 90205, Note_on_c, 0, 50, 91
1, 90217, Control_c, 0, 64, 60
1, 90224, Note_off_c, 0, 62, 62
1, 90232, Control_c, 0, 64, 0
1, 90235, Note_off_c, 0, 38, 65
1, 90235, Note_off_c, 0, 50, 67
1, 90358, Note_on_c, 0, 54, 88
1, 90361, Note_on_c, 0, 42, 91
1, 90364, Note_on_c, 0, 66, 82
1, 90378, Note_off_c, 0, 54, 70
1, 90389, Note_off_c, 0, 42, 70
1, 90428, Note_off_c, 0, 66, 60
1, 90529, Note_on_c, 0, 57, 92
1, 90539, Note_on_c, 0, 33, 94
1, 90539, Note_on_c, 0, 45, 98
1, 90562, Note_off_c, 0, 33, 68
1, 90566, Note_off_c, 0, 45, 68
1, 90575, Note_off_c, 0, 57, 65
1, 90685, Control_c, 0, 64, 41
1, 90696, Note_on_c, 0, 62, 84
1, 90697, Note_on_c, 0, 50, 96
1, 90700, Control_c, 0, 64, 81
1, 90703, Note_on_c, 0, 38, 85
1, 90714, Control_c, 0, 64, 127
1, 90716, Note_off_c, 0, 62, 71
1, 90726, Note_off_c, 0, 50, 67
1, 90727, Note_off_c, 0, 38, 66
1, 90923, Note_on_c, 0, 74, 100
1, 90924, Note_on_c, 0, 90, 97
1, 90925, Note_on_c, 0, 78, 104
1, 90926, Note_on_c, 0, 69, 91
1, 90927, Note_on_c, 0, 62, 79
1, 90928, Note_on_c, 0, 81, 94
1, 90930, Note_on_c, 0, 86, 93
1, 90931, Note_on_c, 0, 66, 85
1, 90946, Note_off_c, 0, 74, 66
1, 90953, Note_off_c, 0, 90, 71
1, 90955, Note_off_c, 0, 78, 64
1, 90961, Note_off_c, 0, 69, 68
1, 90962, Note_off_c, 0, 81, 68
1, 90963, Note_off_c, 0, 86, 63
1, 90972, Note_off_c, 0, 62, 63
1, 90972, Note_off_c, 0, 66, 66
1, 91164, Note_on_c, 0, 62, 78
1, 91166, Note_on_c, 0, 50, 80
1, 91177, Note_on_c, 0, 38, 67
1, 91183, Note_off_c, 0, 62, 73
1, 91192, Note_off_c, 0, 50, 66
1, 91207, Note_off_c, 0, 38, 0
1, 91216, Note_on_c, 0, 62, 86
1, 91221, Note_on_c, 0, 38, 74
1, 91228, Note_on_c, 0, 50, 97
1, 91241, Control_c, 0, 64, 64
1, 91257, Note_off_c, 0, 50, 65
1, 91257, Control_c, 0, 64, 0
1, 91261, Note_off_c, 0, 38, 62
1, 91270, Note_off_c, 0, 62, 65
1, 91388, Note_on_c, 0, 57, 95
1, 91397, Note_on_c, 0, 45, 84
1, 91400, Note_on_c, 0, 69, 78
1, 91416, Note_off_c, 0, 57, 68
1, 91421, Note_off_c, 0, 45, 69
1, 91425, Note_on_c, 0, 67, 40
1, 91446, Note_off_c, 0, 69, 59
1, 91457, Note_off_c, 0, 67, 36
1, 91551, Note_on_c, 0, 54, 91
1, 91552, Note_on_c, 0, 66, 83
1, 91556, Note_on_c, 0, 42, 86
1, 91576, Note_off_c, 0, 54, 65
1, 91582, Note_off_c, 0, 42, 65
1, 91609, Note_off_c, 0, 66, 60
1, 91710, Note_on_c, 0, 62, 44
1, 91713, Note_on_c, 0, 38, 90
1, 91716, Note_on_c, 0, 50, 88
1, 91730, Control_c, 0, 64, 56
1, 91737, Note_off_c, 0, 38, 66
1, 91738, Note_off_c, 0, 50, 71
1, 91738, Note_off_c, 0, 62, 36
1, 91744, Control_c, 0, 64, 97
1, 91759, Control_c, 0, 64, 127
1, 91923, Note_on_c, 0, 91, 97
1, 91925, Note_on_c, 0, 79, 96
1, 91926, Note_on_c, 0, 82, 97
1, 91928, Note_on_c, 0, 86, 88
1, 91928, Note_on_c, 0, 67, 100
1, 91929, Note_on_c, 0, 70, 102
1, 91938, Note_on_c, 0, 58, 91
1, 91949, Note_off_c, 0, 86, 67
1, 91950, Note_off_c, 0, 70, 65
1, 91953, Note_off_c, 0, 91, 71
1, 91954, Note_off_c, 0, 79, 69
1, 91963, Note_off_c, 0, 67, 69
1, 91966, Note_off_c, 0, 82, 68
1, 91976, Note_off_c, 0, 58, 63
1, 92170, Note_on_c, 0, 62, 84
1, 92189, Note_off_c, 0, 62, 72
1, 92193, Note_on_c, 0, 52, 65
1, 92200, Note_on_c, 0, 50, 53
1, 92211, Note_on_c, 0, 38, 43
1, 92217, Note_off_c, 0, 52, 63
1, 92224, Note_on_c, 0, 62, 97
1, 92236, Note_off_c, 0, 50, 0
1, 92236, Note_on_c, 0, 50, 66
1, 92263, Note_off_c, 0, 62, 66
1, 92271, Control_c, 0, 64, 72
1, 92281, Note_off_c, 0, 50, 64
1, 92283, Note_off_c, 0, 38, 63
1, 92286, Control_c, 0, 64, 0
1, 92401, Note_on_c, 0, 67, 92
1, 92402, Note_on_c, 0, 55, 96
1, 92408, Note_on_c, 0, 43, 90
1, 92427, Note_off_c, 0, 55, 66
1, 92436, Note_off_c, 0, 43, 69
1, 92455, Note_off_c, 0, 67, 65
1, 92570, Note_on_c, 0, 58, 89
1, 92571, Note_on_c, 0, 46, 104
1, 92574, Note_on_c, 0, 34, 97
1, 92603, Note_off_c, 0, 46, 66
1, 92605, Note_off_c, 0, 34, 72
1, 92621, Note_off_c, 0, 58, 65
1, 92763, Note_on_c, 0, 62, 87
1, 92770, Note_on_c, 0, 50, 108
1, 92775, Note_on_c, 0, 38, 97
1, 92782, Control_c, 0, 64, 51
1, 92784, Note_off_c, 0, 62, 72
1, 92797, Note_off_c, 0, 38, 67
1, 92797, Control_c, 0, 64, 112
1, 92804, Note_off_c, 0, 50, 69
1, 92812, Control_c, 0, 64, 127
1, 92915, Poly_aftertouch_c, 0, 38, 127
1, 92951, Poly_aftertouch_c, 0, 38, 0
1, 93037, Note_on_c, 0, 74, 100
1, 93037, Note_on_c, 0, 86, 96
1, 93038, Note_on_c, 0, 91, 90
1, 93038, Note_on_c, 0, 94, 98
1, 93039, Note_on_c, 0, 62, 83
1, 93039, Note_on_c, 0, 82, 100
1, 93040, Note_on_c, 0, 70, 96
1, 93044, Note_on_c, 0, 67, 84
1, 93055, Note_off_c, 0, 74, 70
1, 93070, Note_off_c, 0, 94, 68
1, 93071, Note_off_c, 0, 82, 61
1, 93071, Note_off_c, 0, 91, 69
1, 93072, Note_off_c, 0, 86, 67
1, 93080, Note_off_c, 0, 70, 66
1, 93082, Note_off_c, 0, 62, 62
1, 93082, Note_off_c, 0, 67, 67
1, 93299, Note_on_c, 0, 50, 85
1, 93306, Note_on_c, 0, 62, 73
1, 93309, Note_on_c, 0, 38, 74
1, 93323, Note_off_c, 0, 62, 68
1, 93324, Note_off_c, 0, 50, 66
1, 93345, Note_off_c, 0, 38, 60
1, 93365, Note_on_c, 0, 62, 93
1, 93370, Note_on_c, 0, 38, 74
1, 93374, Note_on_c, 0, 50, 99
1, 93383, Control_c, 0, 64, 92
1, 93398, Control_c, 0, 64, 56
1, 93401, Note_off_c, 0, 38, 67
1, 93407, Note_off_c, 0, 50, 65
1, 93413, Control_c, 0, 64, 0
1, 93413, Note_off_c, 0, 62, 65
1, 93557, Note_on_c, 0, 58, 97
1, 93563, Note_on_c, 0, 70, 87
1, 93565, Note_on_c, 0, 46, 86
1, 93588, Note_off_c, 0, 46, 67
1, 93593, Note_off_c, 0, 58, 63
1, 93618, Note_off_c, 0, 70, 63
1, 93733, Note_on_c, 0, 55, 96
1, 93734, Note_on_c, 0, 67, 61
1, 93736, Note_on_c, 0, 43, 93
1, 93755, Note_off_c, 0, 55, 70
1, 93758, Note_off_c, 0, 67, 65
1, 93765, Note_off_c, 0, 43, 68
1, 93901, Note_on_c, 0, 38, 85
1, 93904, Note_on_c, 0, 50, 83
1, 93911, Note_on_c, 0, 62, 68
1, 93917, Control_c, 0, 64, 47
1, 93930, Note_off_c, 0, 38, 67
1, 93930, Note_off_c, 0, 50, 69
1, 93931, Control_c, 0, 64, 73
1, 93939, Note_off_c, 0, 62, 67
1, 93946, Control_c, 0, 64, 98
1, 93961, Control_c, 0, 64, 127
1, 93991, Note_on_c, 0, 66, 72
1, 94016, Note_off_c, 0, 66, 70
1, 94053, Note_on_c, 0, 69, 64
1, 94063, Note_on_c, 0, 57, 82
1, 94072, Note_on_c, 0, 45, 74
1, 94083, Note_off_c, 0, 69, 65
1, 94093, Note_off_c, 0, 57, 70
1, 94101, Note_off_c, 0, 45, 67
1, 94137, Note_on_c, 0, 74, 74
1, 94173, Note_off_c, 0, 74, 55
1, 94205, Note_on_c, 0, 42, 87
1, 94205, Note_on_c, 0, 54, 77
1, 94211, Note_on_c, 0, 78, 76
1, 94228, Note_off_c, 0, 54, 69
1, 94230, Note_off_c, 0, 42, 65
1, 94236, Control_c, 0, 64, 90
1, 94251, Control_c, 0, 64, 67
1, 94265, Control_c, 0, 64, 0
1, 94271, Note_on_c, 0, 81, 77
1, 94280, Note_off_c, 0, 78, 61
1, 94334, Note_on_c, 0, 86, 81
1, 94340, Note_off_c, 0, 81, 65
1, 94344, Note_on_c, 0, 74, 85
1, 94350, Note_on_c, 0, 38, 81
1, 94354, Note_on_c, 0, 50, 82
1, 94369, Control_c, 0, 64, 60
1, 94372, Note_off_c, 0, 38, 66
1, 94377, Note_off_c, 0, 50, 68
1, 94384, Control_c, 0, 64, 78
1, 94389, Note_off_c, 0, 86, 64
1, 94394, Note_off_c, 0, 74, 60
1, 94399, Control_c, 0, 64, 116
1, 94414, Control_c, 0, 64, 127
1, 94420, Note_on_c, 0, 79, 77
1, 94469, Note_off_c, 0, 79, 64
1, 94483, Note_on_c, 0, 82, 79
1, 94489, Note_on_c, 0, 58, 91
1, 94491, Note_on_c, 0, 46, 83
1, 94499, Note_off_c, 0, 82, 74
1, 94513, Note_off_c, 0, 58, 66
1, 94515, Note_off_c, 0, 46, 67
1, 94556, Note_on_c, 0, 86, 87
1, 94612, Note_on_c, 0, 55, 83
1, 94619, Note_off_c, 0, 86, 53
1, 94620, Note_on_c, 0, 43, 79
1, 94622, Note_on_c, 0, 91, 86
1, 94635, Note_off_c, 0, 55, 70
1, 94653, Note_off_c, 0, 43, 66
1, 94678, Note_on_c, 0, 94, 83
1, 94699, Note_off_c, 0, 91, 65
1, 94711, Control_c, 0, 64, 68
1, 94726, Control_c, 0, 64, 0
1, 94745, Note_on_c, 0, 98, 99
1, 94751, Note_on_c, 0, 86, 94
1, 94751, Note_on_c, 0, 38, 86
1, 94754, Note_on_c, 0, 50, 91
1, 94757, Note_off_c, 0, 94, 59
1, 94780, Note_off_c, 0, 38, 68
1, 94785, Control_c, 0, 64, 40
1, 94786, Note_off_c, 0, 50, 65
1, 94800, Control_c, 0, 64, 64
1, 94815, Control_c, 0, 64, 82
1, 94834, Note_on_c, 0, 93, 92
1, 94837, Control_c, 0, 64, 127
1, 94844, Note_off_c, 0, 86, 64
1, 94853, Note_off_c, 0, 98, 66
1, 94894, Note_on_c, 0, 90, 87
1, 94895, Note_on_c, 0, 57, 91
1, 94904, Note_on_c, 0, 45, 80
1, 94916, Note_off_c, 0, 93, 63
1, 94920, Note_off_c, 0, 57, 68
1, 94926, Note_off_c, 0, 45, 67
1, 94952, Note_on_c, 0, 86, 78
1, 94957, Note_off_c, 0, 90, 66
1, 95016, Note_on_c, 0, 93, 89
1, 95020, Note_on_c, 0, 54, 83
1, 95023, Note_on_c, 0, 42, 88
1, 95025, Note_off_c, 0, 86, 64
1, 95044, Note_off_c, 0, 54, 68
1, 95051, Note_off_c, 0, 42, 65
1, 95078, Note_on_c, 0, 90, 87
1, 95103, Note_off_c, 0, 93, 63
1, 95118, Control_c, 0, 64, 88
1, 95133, Control_c, 0, 64, 52
1, 95148, Control_c, 0, 64, 0
1, 95153, Note_on_c, 0, 38, 96
1, 95156, Note_on_c, 0, 50, 96
1, 95156, Note_on_c, 0, 86, 101
1, 95156, Note_on_c, 0, 98, 105
1, 95179, Note_off_c, 0, 90, 65
1, 95180, Note_off_c, 0, 50, 69
1, 95183, Note_off_c, 0, 38, 67
1, 95192, Control_c, 0, 64, 61
1, 95207, Control_c, 0, 64, 96
1, 95222, Control_c, 0, 64, 127
1, 95230, Note_on_c, 0, 94, 94
1, 95252, Note_off_c, 0, 86, 64
1, 95261, Note_off_c, 0, 98, 66
1, 95302, Note_on_c, 0, 58, 93
1, 95306, Note_on_c, 0, 46, 83
1, 95306, Note_on_c, 0, 91, 85
1, 95324, Note_off_c, 0, 58, 66
1, 95326, Note_off_c, 0, 94, 65
1, 95330, Note_off_c, 0, 46, 67
1, 95364, Note_on_c, 0, 86, 77
1, 95377, Note_off_c, 0, 91, 67
1, 95428, Note_on_c, 0, 55, 88
1, 95429, Note_on_c, 0, 94, 91
1, 95436, Note_on_c, 0, 43, 84
1, 95446, Control_c, 0, 64, 67
1, 95449, Note_off_c, 0, 86, 63
1, 95451, Note_off_c, 0, 55, 69
1, 95460, Control_c, 0, 64, 35
1, 95466, Note_off_c, 0, 43, 67
1, 95475, Control_c, 0, 64, 39
1, 95484, Note_on_c, 0, 91, 81
1, 95490, Control_c, 0, 64, 61
1, 95504, Control_c, 0, 64, 76
1, 95516, Note_on_c, 0, 98, 98
1, 95519, Control_c, 0, 64, 127
1, 95523, Note_off_c, 0, 94, 64
1, 95542, Note_off_c, 0, 91, 69
1, 95546, Note_on_c, 0, 50, 96
1, 95547, Note_on_c, 0, 38, 92
1, 95551, Note_off_c, 0, 98, 68
1, 95557, Note_on_c, 0, 86, 38
1, 95565, Note_off_c, 0, 50, 73
1, 95569, Note_off_c, 0, 38, 67
1, 95592, Note_off_c, 0, 86, 59
1, 95615, Control_c, 0, 64, 99
1, 95630, Control_c, 0, 64, 64
1, 95645, Control_c, 0, 64, 0
1, 95753, Note_on_c, 0, 74, 100
1, 95755, Note_on_c, 0, 80, 90
1, 95755, Note_on_c, 0, 86, 99
1, 95758, Note_on_c, 0, 77, 88
1, 95760, Note_on_c, 0, 68, 97
1, 95764, Note_on_c, 0, 58, 81
1, 95772, Note_on_c, 0, 65, 69
1, 95776, Note_off_c, 0, 77, 70
1, 95777, Note_off_c, 0, 68, 65
1, 95778, Control_c, 0, 64, 55
1, 95779, Note_on_c, 0, 63, 53
1, 95793, Control_c, 0, 64, 89
1, 95794, Note_off_c, 0, 74, 60
1, 95796, Note_off_c, 0, 80, 63
1, 95799, Note_off_c, 0, 65, 66
1, 95803, Note_off_c, 0, 58, 58
1, 95805, Note_off_c, 0, 63, 59
1, 95808, Note_off_c, 0, 86, 59
1, 95808, Control_c, 0, 64, 127
1, 95963, Note_on_c, 0, 74, 94
1, 95964, Note_on_c, 0, 78, 74
1, 95966, Note_on_c, 0, 86, 80
1, 95967, Note_on_c, 0, 62, 86
1, 95967, Note_on_c, 0, 69, 84
1, 95977, Note_on_c, 0, 81, 46
1, 95984, Note_off_c, 0, 69, 73
1, 95985, Note_off_c, 0, 78, 67
1, 95985, Note_off_c, 0, 86, 71
1, 95985, Control_c, 0, 64, 89
1, 95986, Note_on_c, 0, 67, 60
1, 95997, Note_off_c, 0, 74, 64
1, 96000, Note_off_c, 0, 81, 60
1, 96000, Control_c, 0, 64, 48
1, 96006, Note_off_c, 0, 67, 62
1, 96008, Note_off_c, 0, 62, 66
1, 96015, Control_c, 0, 64, 0
1, 96167, Note_on_c, 0, 62, 98
1, 96170, Note_on_c, 0, 68, 82
1, 96171, Note_on_c, 0, 54, 85
1, 96171, Note_on_c, 0, 56, 99
1, 96171, Note_on_c, 0, 74, 94
1, 96172, Note_on_c, 0, 65, 76
1, 96174, Note_on_c, 0, 46, 82
1, 96193, Note_off_c, 0, 65, 70
1, 96194, Note_off_c, 0, 56, 67
1, 96194, Control_c, 0, 64, 58
1, 96199, Note_off_c, 0, 46, 68
1, 96200, Note_off_c, 0, 54, 57
1, 96209, Control_c, 0, 64, 87
1, 96209, Note_off_c, 0, 74, 55
1, 96210, Note_off_c, 0, 68, 59
1, 96212, Note_off_c, 0, 62, 63
1, 96224, Control_c, 0, 64, 127
1, 96283, Poly_aftertouch_c, 0, 57, 0
1, 96394, Note_on_c, 0, 62, 92
1, 96396, Note_on_c, 0, 74, 86
1, 96397, Note_on_c, 0, 50, 83
1, 96397, Note_on_c, 0, 57, 83
1, 96400, Note_on_c, 0, 66, 73
1, 96402, Note_on_c, 0, 69, 59
1, 96405, Note_on_c, 0, 54, 79
1, 96408, Control_c, 0, 64, 93
1, 96414, Note_off_c, 0, 74, 72
1, 96420, Note_off_c, 0, 57, 71
1, 96423, Control_c, 0, 64, 47
1, 96423, Note_off_c, 0, 69, 63
1, 96426, Note_off_c, 0, 54, 64
1, 96426, Note_off_c, 0, 66, 69
1, 96434, Note_off_c, 0, 62, 65
1, 96438, Control_c, 0, 64, 0
1, 96440, Note_off_c, 0, 50, 65
1, 96587, Note_on_c, 0, 62, 87
1, 96592, Note_on_c, 0, 56, 81
1, 96593, Note_on_c, 0, 46, 107
1, 96596, Note_on_c, 0, 53, 75
1, 96597, Note_on_c, 0, 34, 100
1, 96600, Control_c, 0, 64, 56
1, 96606, Note_on_c, 0, 55, 66
1, 96613, Note_off_c, 0, 46, 70
1, 96615, Control_c, 0, 64, 106
1, 96618, Note_off_c, 0, 34, 72
1, 96620, Note_off_c, 0, 53, 69
1, 96620, Note_off_c, 0, 62, 63
1, 96628, Note_off_c, 0, 55, 63
1, 96629, Note_off_c, 0, 56, 59
1, 96630, Control_c, 0, 64, 127
1, 96838, Control_c, 0, 64, 78
1, 96843, Note_on_c, 0, 57, 72
1, 96843, Note_on_c, 0, 62, 80
1, 96844, Note_on_c, 0, 54, 81
1, 96852, Note_on_c, 0, 50, 90
1, 96853, Control_c, 0, 64, 37
1, 96860, Note_on_c, 0, 38, 78
1, 96868, Control_c, 0, 64, 0
1, 96871, Note_off_c, 0, 54, 63
1, 96873, Note_off_c, 0, 50, 72
1, 96874, Note_off_c, 0, 57, 68
1, 96882, Note_off_c, 0, 38, 68
1, 96883, Note_off_c, 0, 62, 62
1, 97035, Note_on_c, 0, 62, 91
1, 97036, Note_on_c, 0, 53, 89
1, 97036, Note_on_c, 0, 56, 91
1, 97041, Note_on_c, 0, 46, 99
1, 97047, Note_on_c, 0, 34, 82
1, 97061, Control_c, 0, 64, 60
1, 97063, Note_off_c, 0, 46, 70
1, 97063, Note_off_c, 0, 53, 64
1, 97077, Note_off_c, 0, 62, 65
1, 97077, Note_off_c, 0, 34, 62
1, 97077, Note_off_c, 0, 56, 62
1, 97083, Control_c, 0, 64, 93
1, 97098, Control_c, 0, 64, 127
1, 97100, Note_on_c, 0, 33, 10
1, 97150, Note_off_c, 0, 33, 47
1, 97159, Poly_aftertouch_c, 0, 44, 0
1, 97201, Note_on_c, 0, 56, 45
1, 97252, Note_off_c, 0, 56, 0
1, 97290, Note_on_c, 0, 54, 67
1, 97292, Note_on_c, 0, 50, 78
1, 97298, Note_on_c, 0, 62, 56
1, 97304, Note_on_c, 0, 38, 68
1, 97306, Control_c, 0, 64, 83
1, 97314, Note_on_c, 0, 57, 31
1, 97318, Poly_aftertouch_c, 0, 56, 0
1, 97320, Note_off_c, 0, 50, 67
1, 97321, Control_c, 0, 64, 66
1, 97321, Note_off_c, 0, 54, 63
1, 97326, Note_off_c, 0, 62, 67
1, 97332, Note_off_c, 0, 38, 57
1, 97335, Control_c, 0, 64, 52
1, 97347, Note_off_c, 0, 57, 43
1, 97350, Control_c, 0, 64, 45
1, 97365, Control_c, 0, 64, 39
1, 97380, Control_c, 0, 64, 35
1, 97395, Control_c, 0, 64, 35
1, 97417, Note_on_c, 0, 46, 92
1, 97417, Note_on_c, 0, 62, 72
1, 97420, Note_on_c, 0, 34, 86
1, 97423, Note_on_c, 0, 53, 69
1, 97443, Note_on_c, 0, 56, 49
1, 97447, Note_off_c, 0, 46, 64
1, 97450, Note_off_c, 0, 34, 69
1, 97452, Note_off_c, 0, 53, 66
1, 97469, Control_c, 0, 64, 35
1, 97472, Note_off_c, 0, 56, 60
1, 97483, Note_off_c, 0, 62, 59
1, 97483, Control_c, 0, 64, 36
1, 97498, Control_c, 0, 64, 36
1, 97528, Control_c, 0, 64, 37
1, 97532, Note_on_c, 0, 62, 62
1, 97534, Note_on_c, 0, 57, 72
1, 97536, Note_on_c, 0, 54, 77
1, 97541, Note_on_c, 0, 50, 93
1, 97542, Control_c, 0, 64, 37
1, 97545, Note_on_c, 0, 38, 85
1, 97557, Control_c, 0, 64, 38
1, 97565, Note_off_c, 0, 50, 68
1, 97568, Note_off_c, 0, 57, 65
1, 97568, Note_off_c, 0, 54, 61
1, 97572, Control_c, 0, 64, 38
1, 97574, Note_off_c, 0, 62, 64
1, 97574, Note_off_c, 0, 38, 67
1, 97602, Control_c, 0, 64, 39
1, 97617, Control_c, 0, 64, 39
1, 97631, Control_c, 0, 64, 40
1, 97647, Control_c, 0, 64, 42
1, 97657, Note_on_c, 0, 46, 102
1, 97661, Note_on_c, 0, 53, 86
1, 97662, Note_on_c, 0, 34, 95
1, 97662, Note_on_c, 0, 62, 89
1, 97662, Control_c, 0, 64, 44
1, 97664, Note_on_c, 0, 56, 83
1, 97677, Control_c, 0, 64, 44
1, 97688, Note_off_c, 0, 34, 70
1, 97690, Note_off_c, 0, 46, 60
1, 97692, Control_c, 0, 64, 45
1, 97692, Note_off_c, 0, 53, 67
1, 97695, Note_off_c, 0, 56, 63
1, 97706, Note_off_c, 0, 62, 63
1, 97706, Control_c, 0, 64, 46
1, 97721, Control_c, 0, 64, 47
1, 97736, Control_c, 0, 64, 47
1, 97751, Control_c, 0, 64, 48
1, 97764, Note_on_c, 0, 57, 77
1, 97766, Control_c, 0, 64, 48
1, 97766, Note_on_c, 0, 54, 83
1, 97768, Note_on_c, 0, 62, 74
1, 97770, Note_on_c, 0, 50, 102
1, 97774, Note_on_c, 0, 38, 94
1, 97780, Control_c, 0, 64, 50
1, 97795, Control_c, 0, 64, 50
1, 97799, Note_off_c, 0, 50, 68
1, 97800, Note_off_c, 0, 38, 70
1, 97800, Note_off_c, 0, 54, 59
1, 97802, Note_off_c, 0, 57, 63
1, 97804, Note_off_c, 0, 62, 62
1, 97810, Control_c, 0, 64, 51
1, 97862, Control_c, 0, 64, 52
1, 97877, Control_c, 0, 64, 53
1, 97882, Note_on_c, 0, 62, 89
1, 97884, Note_on_c, 0, 46, 104
1, 97884, Note_on_c, 0, 53, 87
1, 97888, Note_on_c, 0, 56, 79
1, 97890, Note_on_c, 0, 34, 97
1, 97892, Control_c, 0, 64, 54
1, 97914, Note_off_c, 0, 34, 70
1, 97916, Note_off_c, 0, 56, 66
1, 97921, Control_c, 0, 64, 55
1, 97922, Note_off_c, 0, 46, 64
1, 97922, Note_off_c, 0, 53, 63
1, 97936, Control_c, 0, 64, 56
1, 97944, Note_off_c, 0, 62, 61
1, 97951, Control_c, 0, 64, 57
1, 97966, Control_c, 0, 64, 58
1, 97980, Control_c, 0, 64, 57
1, 97995, Control_c, 0, 64, 42
1, 98010, Control_c, 0, 64, 0
1, 98015, Note_on_c, 0, 54, 103
1, 98015, Note_on_c, 0, 62, 95
1, 98016, Note_on_c, 0, 50, 112
1, 98018, Note_on_c, 0, 57, 84
1, 98021, Note_on_c, 0, 38, 102
1, 98055, Note_off_c, 0, 50, 68
1, 98056, Note_off_c, 0, 38, 64
1, 98057, Note_off_c, 0, 54, 63
1, 98071, Note_off_c, 0, 62, 66
1, 98074, Note_off_c, 0, 57, 65
1, 99537, Note_on_c, 0, 62, 40
1, 100108, Control_c, 0, 64, 29
1, 100123, Control_c, 0, 64, 40
1, 100137, Control_c, 0, 64, 49
1, 100152, Control_c, 0, 64, 54
1, 100167, Control_c, 0, 64, 56
1, 100182, Control_c, 0, 64, 58
1, 100197, Control_c, 0, 64, 61
1, 100212, Control_c, 0, 64, 63
1, 100227, Control_c, 0, 64, 64
1, 100242, Control_c, 0, 64, 66
1, 100256, Control_c, 0, 64, 68
1, 100271, Control_c, 0, 64, 70
1, 100286, Control_c, 0, 64, 75
1, 100300, Control_c, 0, 64, 79
1, 100315, Control_c, 0, 64, 84
1, 100330, Control_c, 0, 64, 89
1, 100345, Control_c, 0, 64, 97
1, 100360, Control_c, 0, 64, 105
1, 100374, Control_c, 0, 64, 120
1, 100389, Control_c, 0, 64, 127
1, 100565, Note_off_c, 0, 62, 34
1, 101122, Note_on_c, 0, 62, 35
1, 101315, Note_off_c, 0, 62, 43
1, 101404, Control_c, 0, 67, 41
1, 101419, Control_c, 0, 67, 56
1, 101434, Control_c, 0, 67, 71
1, 101449, Control_c, 0, 67, 81
1, 101464, Control_c, 0, 67, 90
1, 101473, Note_on_c, 0, 62, 48
1, 101479, Control_c, 0, 67, 99
1, 101494, Control_c, 0, 67, 107
1, 101508, Control_c, 0, 67, 113
1, 101523, Control_c, 0, 67, 117
1, 101538, Control_c, 0, 67, 119
1, 101595, Note_off_c, 0, 62, 58
1, 101739, Control_c, 0, 67, 117
1, 101759, Note_on_c, 0, 62, 59
1, 101872, Control_c, 0, 67, 115
1, 101932, Control_c, 0, 64, 114
1, 101946, Control_c, 0, 64, 100
1, 101961, Control_c, 0, 64, 92
1, 101976, Control_c, 0, 64, 84
1, 101991, Control_c, 0, 64, 77
1, 102006, Control_c, 0, 64, 71
1, 102007, Note_on_c, 0, 61, 66
1, 102020, Control_c, 0, 64, 65
1, 102035, Control_c, 0, 64, 58
1, 102039, Note_off_c, 0, 62, 59
1, 102050, Control_c, 0, 64, 53
1, 102064, Control_c, 0, 64, 47
1, 102079, Control_c, 0, 64, 33
1, 102094, Control_c, 0, 64, 0
1, 102183, Control_c, 0, 67, 113
1, 102212, Control_c, 0, 64, 43
1, 102227, Control_c, 0, 64, 58
1, 102240, Note_on_c, 0, 62, 70
1, 102242, Control_c, 0, 64, 63
1, 102242, Control_c, 0, 67, 111
1, 102257, Control_c, 0, 64, 65
1, 102271, Control_c, 0, 64, 69
1, 102286, Control_c, 0, 64, 73
1, 102287, Note_off_c, 0, 61, 59
1, 102301, Control_c, 0, 64, 78
1, 102323, Control_c, 0, 64, 81
1, 102323, Control_c, 0, 67, 109
1, 102337, Control_c, 0, 64, 86
1, 102352, Control_c, 0, 64, 89
1, 102367, Control_c, 0, 64, 92
1, 102373, Note_off_c, 0, 62, 60
1, 102382, Control_c, 0, 64, 94
1, 102397, Control_c, 0, 64, 96
1, 102538, Note_on_c, 0, 61, 56
1, 102561, Control_c, 0, 64, 95
1, 102576, Control_c, 0, 64, 92
1, 102591, Control_c, 0, 64, 87
1, 102606, Control_c, 0, 64, 79
1, 102620, Control_c, 0, 64, 71
1, 102635, Control_c, 0, 64, 62
1, 102650, Control_c, 0, 64, 50
1, 102665, Control_c, 0, 64, 36
1, 102680, Control_c, 0, 64, 0
1, 102876, Note_on_c, 0, 62, 49
1, 102900, Note_off_c, 0, 61, 54
1, 102946, Control_c, 0, 67, 107
1, 102990, Control_c, 0, 64, 44
1, 103005, Control_c, 0, 64, 58
1, 103005, Control_c, 0, 67, 105
1, 103020, Control_c, 0, 64, 63
1, 103035, Control_c, 0, 64, 66
1, 103050, Control_c, 0, 64, 70
1, 103072, Note_off_c, 0, 62, 62
1, 103072, Control_c, 0, 64, 73
1, 103087, Control_c, 0, 64, 75
1, 103087, Control_c, 0, 67, 103
1, 103101, Control_c, 0, 64, 78
1, 103116, Control_c, 0, 64, 80
1, 103131, Control_c, 0, 64, 81
1, 103146, Control_c, 0, 64, 82
1, 103161, Control_c, 0, 64, 82
1, 103229, Note_on_c, 0, 61, 50
1, 103339, Control_c, 0, 64, 82
1, 103354, Control_c, 0, 64, 81
1, 103369, Control_c, 0, 64, 80
1, 103384, Control_c, 0, 64, 79
1, 103399, Control_c, 0, 64, 77
1, 103413, Control_c, 0, 64, 75
1, 103428, Control_c, 0, 64, 73
1, 103443, Control_c, 0, 64, 71
1, 103458, Control_c, 0, 64, 68
1, 103473, Control_c, 0, 64, 66
1, 103488, Control_c, 0, 64, 64
1, 103503, Control_c, 0, 64, 62
1, 103517, Control_c, 0, 64, 59
1, 103532, Control_c, 0, 64, 58
1, 103547, Control_c, 0, 64, 56
1, 103562, Control_c, 0, 64, 54
1, 103577, Control_c, 0, 64, 52
1, 103591, Control_c, 0, 64, 50
1, 103606, Control_c, 0, 64, 47
1, 103621, Control_c, 0, 64, 45
1, 103635, Control_c, 0, 64, 42
1, 103650, Control_c, 0, 64, 39
1, 103665, Control_c, 0, 64, 34
1, 103680, Control_c, 0, 64, 30
1, 103695, Control_c, 0, 64, 0
1, 103817, Note_on_c, 0, 62, 40
1, 103940, Control_c, 0, 67, 101
1, 103965, Note_off_c, 0, 61, 37
1, 103984, Control_c, 0, 67, 99
1, 104163, Control_c, 0, 67, 97
1, 104222, Control_c, 0, 67, 96
1, 104266, Control_c, 0, 67, 95
1, 104281, Control_c, 0, 67, 94
1, 104296, Control_c, 0, 67, 94
1, 104341, Control_c, 0, 67, 93
1, 104367, Note_off_c, 0, 62, 36
1, 104370, Control_c, 0, 67, 92
1, 104400, Control_c, 0, 67, 90
1, 104415, Control_c, 0, 67, 90
1, 104430, Control_c, 0, 67, 89
1, 104445, Control_c, 0, 67, 88
1, 104459, Control_c, 0, 67, 88
1, 104474, Control_c, 0, 67, 87
1, 104489, Control_c, 0, 67, 86
1, 104504, Control_c, 0, 67, 86
1, 104519, Control_c, 0, 67, 84
1, 104533, Control_c, 0, 67, 81
1, 104548, Control_c, 0, 67, 77
1, 104570, Control_c, 0, 67, 71
1, 104585, Control_c, 0, 67, 63
1, 104600, Control_c, 0, 67, 54
1, 104615, Control_c, 0, 67, 43
1, 104630, Control_c, 0, 67, 0
1, 104942, Control_c, 0, 64, 36
1, 104957, Control_c, 0, 64, 45
1, 104971, Control_c, 0, 64, 53
1, 104986, Control_c, 0, 64, 57
1, 105001, Control_c, 0, 64, 59
1, 105015, Control_c, 0, 64, 61
1, 105030, Control_c, 0, 64, 63
1, 105045, Control_c, 0, 64, 65
1, 105060, Control_c, 0, 64, 67
1, 105075, Control_c, 0, 64, 70
1, 105089, Control_c, 0, 64, 73
1, 105104, Control_c, 0, 64, 77
1, 105119, Control_c, 0, 64, 82
1, 105134, Control_c, 0, 64, 88
1, 105149, Control_c, 0, 64, 96
1, 105163, Control_c, 0, 64, 107
1, 105178, Control_c, 0, 64, 127
1, 105424, Note_on_c, 0, 63, 43
1, 105670, Note_off_c, 0, 63, 61
1, 105750, Control_c, 0, 67, 39
1, 105765, Control_c, 0, 67, 56
1, 105780, Control_c, 0, 67, 74
1, 105794, Control_c, 0, 67, 92
1, 105809, Control_c, 0, 67, 109
1, 105824, Control_c, 0, 67, 126
1, 105937, Note_on_c, 0, 63, 56
1, 106472, Note_on_c, 0, 59, 26
1, 106481, Note_on_c, 0, 56, 13
1, 106484, Note_on_c, 0, 53, 21
1, 106512, Note_on_c, 0, 49, 17
1, 106651, Note_off_c, 0, 49, 35
1, 106654, Note_off_c, 0, 59, 41
1, 106659, Note_off_c, 0, 56, 40
1, 106665, Note_off_c, 0, 53, 41
1, 106876, Note_on_c, 0, 59, 29
1, 106901, Note_on_c, 0, 49, 27
1, 106910, Note_on_c, 0, 53, 8
1, 106922, Poly_aftertouch_c, 0, 56, 127
1, 106923, Note_on_c, 0, 56, 3
1, 106955, Note_off_c, 0, 53, 49
1, 107010, Note_off_c, 0, 49, 55
1, 107062, Note_off_c, 0, 59, 44
1, 107080, Note_off_c, 0, 56, 31
1, 107223, Note_on_c, 0, 37, 37
1, 107479, Note_on_c, 0, 65, 51
1, 107511, Note_off_c, 0, 37, 42
1, 107523, Note_off_c, 0, 63, 62
1, 107688, Note_off_c, 0, 65, 61
1, 107692, Note_on_c, 0, 66, 69
1, 107962, Note_on_c, 0, 68, 64
1, 107980, Control_c, 0, 64, 106
1, 107995, Control_c, 0, 64, 97
1, 108010, Control_c, 0, 64, 88
1, 108015, Note_off_c, 0, 66, 55
1, 108025, Control_c, 0, 64, 80
1, 108040, Control_c, 0, 64, 72
1, 108055, Control_c, 0, 64, 63
1, 108070, Control_c, 0, 64, 53
1, 108085, Control_c, 0, 64, 46
1, 108100, Control_c, 0, 64, 41
1, 108114, Control_c, 0, 64, 34
1, 108129, Control_c, 0, 64, 33
1, 108144, Control_c, 0, 64, 34
1, 108159, Control_c, 0, 64, 41
1, 108174, Control_c, 0, 64, 49
1, 108189, Control_c, 0, 64, 56
1, 108204, Control_c, 0, 64, 60
1, 108219, Control_c, 0, 64, 63
1, 108233, Control_c, 0, 64, 65
1, 108248, Control_c, 0, 64, 68
1, 108252, Note_on_c, 0, 59, 26
1, 108254, Note_on_c, 0, 56, 32
1, 108258, Note_on_c, 0, 61, 25
1, 108263, Control_c, 0, 64, 71
1, 108276, Note_on_c, 0, 53, 31
1, 108278, Control_c, 0, 64, 74
1, 108293, Control_c, 0, 64, 77
1, 108314, Control_c, 0, 64, 80
1, 108327, Note_off_c, 0, 61, 40
1, 108329, Control_c, 0, 64, 85
1, 108344, Control_c, 0, 64, 91
1, 108357, Note_off_c, 0, 59, 38
1, 108359, Control_c, 0, 64, 97
1, 108362, Note_off_c, 0, 53, 54
1, 108374, Control_c, 0, 64, 104
1, 108377, Note_off_c, 0, 56, 37
1, 108389, Control_c, 0, 64, 119
1, 108404, Control_c, 0, 64, 127
1, 108479, Note_on_c, 0, 56, 40
1, 108481, Note_on_c, 0, 61, 39
1, 108490, Note_on_c, 0, 53, 40
1, 108493, Note_on_c, 0, 59, 24
1, 108514, Note_off_c, 0, 56, 58
1, 108523, Note_off_c, 0, 53, 64
1, 108556, Note_off_c, 0, 61, 48
1, 108656, Note_off_c, 0, 59, 25
1, 108693, Note_on_c, 0, 37, 52
1, 108870, Note_off_c, 0, 37, 36
1, 108884, Note_on_c, 0, 66, 64
1, 108982, Control_c, 0, 67, 123
1, 108997, Control_c, 0, 67, 120
1, 109012, Control_c, 0, 67, 115
1, 109027, Control_c, 0, 67, 102
1, 109041, Control_c, 0, 67, 82
1, 109063, Control_c, 0, 67, 61
1, 109072, Note_on_c, 0, 65, 68
1, 109078, Control_c, 0, 67, 39
1, 109093, Control_c, 0, 67, 0
1, 109099, Note_off_c, 0, 68, 57
1, 109155, Note_off_c, 0, 66, 53
1, 109275, Note_on_c, 0, 70, 65
1, 109301, Control_c, 0, 64, 110
1, 109316, Control_c, 0, 64, 97
1, 109330, Control_c, 0, 64, 86
1, 109345, Control_c, 0, 64, 74
1, 109350, Note_off_c, 0, 65, 57
1, 109360, Control_c, 0, 64, 62
1, 109375, Control_c, 0, 64, 42
1, 109389, Control_c, 0, 64, 0
1, 109449, Control_c, 0, 64, 34
1, 109461, Note_on_c, 0, 61, 45
1, 109463, Control_c, 0, 64, 49
1, 109478, Control_c, 0, 64, 62
1, 109481, Note_on_c, 0, 54, 35
1, 109483, Note_on_c, 0, 58, 25
1, 109493, Control_c, 0, 64, 67
1, 109502, Note_on_c, 0, 49, 31
1, 109508, Control_c, 0, 64, 71
1, 109515, Note_off_c, 0, 61, 57
1, 109523, Control_c, 0, 64, 76
1, 109524, Note_off_c, 0, 58, 49
1, 109534, Note_off_c, 0, 54, 57
1, 109537, Control_c, 0, 64, 81
1, 109552, Note_off_c, 0, 49, 56
1, 109552, Control_c, 0, 64, 87
1, 109567, Control_c, 0, 64, 95
1, 109581, Control_c, 0, 64, 107
1, 109596, Control_c, 0, 64, 127
1, 109636, Note_on_c, 0, 61, 46
1, 109652, Note_on_c, 0, 54, 40
1, 109656, Note_on_c, 0, 58, 13
1, 109682, Note_off_c, 0, 54, 50
1, 109685, Note_on_c, 0, 49, 27
1, 109692, Note_off_c, 0, 61, 56
1, 109700, Note_off_c, 0, 58, 51
1, 109726, Note_off_c, 0, 49, 54
1, 109837, Note_on_c, 0, 37, 58
1, 109924, Note_off_c, 0, 37, 56
1, 110018, Note_on_c, 0, 68, 65
1, 110097, Note_off_c, 0, 70, 56
1, 110190, Note_on_c, 0, 66, 76
1, 110281, Note_off_c, 0, 68, 59
1, 110380, Note_on_c, 0, 73, 74
1, 110416, Note_off_c, 0, 66, 61
1, 110450, Control_c, 0, 64, 112
1, 110465, Control_c, 0, 64, 87
1, 110480, Control_c, 0, 64, 67
1, 110495, Control_c, 0, 64, 39
1, 110509, Control_c, 0, 64, 0
1, 110560, Note_on_c, 0, 66, 52
1, 110562, Control_c, 0, 64, 36
1, 110577, Control_c, 0, 64, 52
1, 110580, Note_on_c, 0, 49, 44
1, 110585, Note_on_c, 0, 58, 36
1, 110589, Note_on_c, 0, 61, 26
1, 110591, Control_c, 0, 64, 63
1, 110594, Note_on_c, 0, 54, 30
1, 110606, Control_c, 0, 64, 70
1, 110621, Control_c, 0, 64, 83
1, 110626, Note_off_c, 0, 66, 48
1, 110630, Note_off_c, 0, 61, 49
1, 110634, Note_off_c, 0, 49, 58
1, 110634, Note_off_c, 0, 58, 55
1, 110635, Control_c, 0, 64, 99
1, 110636, Note_off_c, 0, 54, 52
1, 110650, Control_c, 0, 64, 127
1, 110742, Note_on_c, 0, 66, 56
1, 110743, Note_on_c, 0, 49, 50
1, 110752, Note_on_c, 0, 61, 25
1, 110758, Note_on_c, 0, 54, 15
1, 110773, Note_off_c, 0, 49, 64
1, 110794, Note_off_c, 0, 61, 43
1, 110806, Note_off_c, 0, 54, 51
1, 110812, Note_off_c, 0, 66, 57
1, 110905, Note_on_c, 0, 37, 64
1, 110916, Control_c, 0, 67, 41
1, 110931, Control_c, 0, 67, 51
1, 110946, Control_c, 0, 67, 62
1, 110961, Control_c, 0, 67, 74
1, 110965, Note_off_c, 0, 37, 57
1, 110976, Control_c, 0, 67, 85
1, 110991, Control_c, 0, 67, 96
1, 111006, Control_c, 0, 67, 100
1, 111021, Control_c, 0, 67, 102
1, 111083, Note_on_c, 0, 75, 75
1, 111209, Note_off_c, 0, 73, 35
1, 111258, Note_on_c, 0, 70, 75
1, 111262, Note_off_c, 0, 75, 64
1, 111326, Note_off_c, 0, 70, 62
1, 111444, Control_c, 0, 67, 100
1, 111472, Note_on_c, 0, 71, 74
1, 111518, Control_c, 0, 64, 109
1, 111532, Control_c, 0, 64, 85
1, 111547, Control_c, 0, 64, 67
1, 111562, Control_c, 0, 64, 42
1, 111576, Control_c, 0, 64, 0
1, 111591, Control_c, 0, 67, 102
1, 111621, Control_c, 0, 67, 105
1, 111636, Control_c, 0, 64, 32
1, 111650, Note_on_c, 0, 59, 37
1, 111650, Control_c, 0, 64, 48
1, 111650, Control_c, 0, 67, 108
1, 111658, Note_on_c, 0, 49, 41
1, 111658, Note_on_c, 0, 66, 47
1, 111665, Control_c, 0, 64, 61
1, 111665, Control_c, 0, 67, 111
1, 111668, Note_on_c, 0, 56, 36
1, 111680, Control_c, 0, 64, 67
1, 111680, Control_c, 0, 67, 127
1, 111695, Control_c, 0, 64, 73
1, 111710, Control_c, 0, 64, 79
1, 111715, Note_off_c, 0, 66, 57
1, 111717, Note_off_c, 0, 56, 55
1, 111721, Note_off_c, 0, 49, 57
1, 111724, Note_off_c, 0, 59, 55
1, 111724, Control_c, 0, 64, 85
1, 111735, Poly_aftertouch_c, 0, 63, 0
1, 111739, Control_c, 0, 64, 89
1, 111754, Control_c, 0, 64, 93
1, 111760, Poly_aftertouch_c, 0, 63, 0
1, 111769, Control_c, 0, 64, 96
1, 111784, Control_c, 0, 64, 100
1, 111799, Control_c, 0, 64, 104
1, 111814, Control_c, 0, 64, 107
1, 111829, Control_c, 0, 64, 110
1, 111842, Note_on_c, 0, 66, 45
1, 111843, Control_c, 0, 64, 113
1, 111857, Note_on_c, 0, 56, 28
1, 111858, Control_c, 0, 64, 115
1, 111879, Note_on_c, 0, 49, 10
1, 111879, Note_on_c, 0, 59, 26
1, 111885, Note_off_c, 0, 66, 61
1, 111888, Control_c, 0, 64, 118
1, 111912, Note_off_c, 0, 56, 44
1, 111917, Note_off_c, 0, 59, 50
1, 111925, Note_off_c, 0, 49, 49
1, 112082, Note_on_c, 0, 56, 34
1, 112095, Note_on_c, 0, 59, 34
1, 112101, Note_on_c, 0, 49, 26
1, 112164, Note_off_c, 0, 49, 52
1, 112182, Note_off_c, 0, 56, 53
1, 112190, Note_off_c, 0, 59, 39
1, 112281, Control_c, 0, 64, 116
1, 112311, Control_c, 0, 64, 112
1, 112326, Control_c, 0, 64, 110
1, 112341, Control_c, 0, 64, 107
1, 112355, Control_c, 0, 64, 104
1, 112368, Note_on_c, 0, 68, 54
1, 112370, Control_c, 0, 64, 101
1, 112385, Control_c, 0, 64, 98
1, 112399, Control_c, 0, 64, 94
1, 112414, Control_c, 0, 64, 89
1, 112429, Control_c, 0, 64, 84
1, 112444, Control_c, 0, 64, 78
1, 112459, Control_c, 0, 64, 73
1, 112473, Control_c, 0, 64, 66
1, 112478, Note_off_c, 0, 71, 55
1, 112488, Control_c, 0, 64, 57
1, 112503, Control_c, 0, 64, 43
1, 112518, Control_c, 0, 64, 0
1, 112592, Control_c, 0, 64, 37
1, 112607, Control_c, 0, 64, 51
1, 112622, Control_c, 0, 64, 61
1, 112636, Control_c, 0, 64, 65
1, 112651, Control_c, 0, 64, 68
1, 112666, Control_c, 0, 64, 71
1, 112681, Control_c, 0, 64, 75
1, 112696, Control_c, 0, 64, 78
1, 112711, Control_c, 0, 64, 82
1, 112725, Control_c, 0, 64, 85
1, 112734, Note_off_c, 0, 68, 53
1, 112740, Control_c, 0, 64, 88
1, 112755, Control_c, 0, 64, 89
1, 112770, Control_c, 0, 64, 90
1, 112773, Note_on_c, 0, 73, 57
1, 112785, Control_c, 0, 64, 91
1, 112811, Note_off_c, 0, 73, 65
1, 112897, Note_on_c, 0, 73, 62
1, 112955, Control_c, 0, 64, 90
1, 112985, Control_c, 0, 64, 90
1, 113000, Control_c, 0, 64, 89
1, 113015, Control_c, 0, 64, 86
1, 113030, Control_c, 0, 64, 81
1, 113045, Control_c, 0, 64, 74
1, 113060, Control_c, 0, 64, 63
1, 113075, Control_c, 0, 64, 46
1, 113090, Control_c, 0, 64, 0
1, 113148, Control_c, 0, 64, 30
1, 113163, Control_c, 0, 64, 41
1, 113178, Control_c, 0, 64, 51
1, 113193, Control_c, 0, 64, 59
1, 113206, Note_on_c, 0, 65, 37
1, 113208, Control_c, 0, 64, 62
1, 113222, Control_c, 0, 64, 64
1, 113229, Note_on_c, 0, 59, 30
1, 113230, Note_on_c, 0, 56, 31
1, 113231, Note_on_c, 0, 49, 30
1, 113231, Note_on_c, 0, 61, 22
1, 113237, Control_c, 0, 64, 66
1, 113252, Control_c, 0, 64, 70
1, 113267, Control_c, 0, 64, 74
1, 113282, Control_c, 0, 64, 77
1, 113296, Control_c, 0, 64, 79
1, 113301, Note_off_c, 0, 61, 38
1, 113304, Note_off_c, 0, 65, 50
1, 113310, Note_off_c, 0, 56, 52
1, 113311, Control_c, 0, 64, 83
1, 113322, Note_off_c, 0, 49, 48
1, 113326, Control_c, 0, 64, 86
1, 113340, Note_off_c, 0, 59, 38
1, 113341, Control_c, 0, 64, 89
1, 113355, Control_c, 0, 64, 91
1, 113370, Control_c, 0, 64, 92
1, 113385, Control_c, 0, 64, 93
1, 113400, Control_c, 0, 64, 93
1, 113415, Control_c, 0, 64, 94
1, 113429, Control_c, 0, 64, 94
1, 113450, Note_on_c, 0, 65, 46
1, 113459, Control_c, 0, 64, 95
1, 113464, Note_on_c, 0, 56, 38
1, 113468, Note_on_c, 0, 59, 35
1, 113471, Note_on_c, 0, 49, 32
1, 113491, Poly_aftertouch_c, 0, 61, 127
1, 113515, Note_off_c, 0, 56, 45
1, 113518, Control_c, 0, 64, 95
1, 113523, Note_off_c, 0, 49, 46
1, 113524, Note_off_c, 0, 59, 44
1, 113603, Note_off_c, 0, 65, 35
1, 113614, Control_c, 0, 64, 96
1, 113659, Poly_aftertouch_c, 0, 61, 0
1, 113663, Note_on_c, 0, 49, 45
1, 113667, Note_on_c, 0, 56, 40
1, 113678, Note_on_c, 0, 59, 36
1, 113763, Note_off_c, 0, 59, 38
1, 113808, Control_c, 0, 64, 95
1, 113819, Note_off_c, 0, 49, 34
1, 113847, Note_on_c, 0, 68, 64
1, 113926, Control_c, 0, 64, 95
1, 113927, Note_off_c, 0, 56, 38
1, 113943, Note_off_c, 0, 73, 58
1, 113970, Control_c, 0, 64, 94
1, 113985, Control_c, 0, 64, 94
1, 114015, Control_c, 0, 64, 93
1, 114030, Note_on_c, 0, 69, 70
1, 114030, Control_c, 0, 64, 92
1, 114044, Control_c, 0, 64, 91
1, 114059, Control_c, 0, 64, 89
1, 114074, Control_c, 0, 64, 88
1, 114089, Control_c, 0, 64, 87
1, 114089, Control_c, 0, 67, 118
1, 114104, Control_c, 0, 64, 85
1, 114104, Control_c, 0, 67, 100
1, 114118, Control_c, 0, 64, 83
1, 114118, Control_c, 0, 67, 80
1, 114133, Control_c, 0, 64, 80
1, 114133, Control_c, 0, 67, 55
1, 114145, Note_off_c, 0, 68, 35
1, 114148, Control_c, 0, 64, 78
1, 114148, Control_c, 0, 67, 0
1, 114163, Control_c, 0, 64, 75
1, 114178, Control_c, 0, 64, 71
1, 114192, Control_c, 0, 64, 67
1, 114207, Control_c, 0, 64, 62
1, 114219, Note_on_c, 0, 70, 69
1, 114222, Control_c, 0, 64, 57
1, 114237, Control_c, 0, 64, 51
1, 114252, Control_c, 0, 64, 45
1, 114267, Note_off_c, 0, 69, 55
1, 114267, Control_c, 0, 64, 0
1, 114416, Note_on_c, 0, 61, 35
1, 114417, Note_on_c, 0, 66, 42
1, 114420, Note_on_c, 0, 58, 34
1, 114423, Control_c, 0, 64, 43
1, 114432, Note_on_c, 0, 49, 33
1, 114438, Control_c, 0, 64, 56
1, 114450, Note_on_c, 0, 54, 27
1, 114453, Control_c, 0, 64, 63
1, 114464, Note_off_c, 0, 61, 46
1, 114468, Control_c, 0, 64, 66
1, 114468, Note_off_c, 0, 66, 60
1, 114480, Note_off_c, 0, 58, 56
1, 114482, Note_off_c, 0, 49, 59
1, 114482, Control_c, 0, 64, 69
1, 114488, Note_off_c, 0, 54, 53
1, 114497, Control_c, 0, 64, 72
1, 114512, Control_c, 0, 64, 76
1, 114527, Control_c, 0, 64, 79
1, 114542, Control_c, 0, 64, 84
1, 114556, Control_c, 0, 64, 89
1, 114571, Control_c, 0, 64, 94
1, 114586, Control_c, 0, 64, 100
1, 114601, Control_c, 0, 64, 105
1, 114603, Note_on_c, 0, 66, 42
1, 114611, Note_on_c, 0, 54, 29
1, 114616, Note_on_c, 0, 49, 30
1, 114616, Control_c, 0, 64, 111
1, 114619, Note_on_c, 0, 58, 33
1, 114631, Control_c, 0, 64, 118
1, 114646, Control_c, 0, 64, 127
1, 114647, Poly_aftertouch_c, 0, 61, 127
1, 114660, Note_off_c, 0, 49, 49
1, 114664, Note_off_c, 0, 54, 51
1, 114669, Note_off_c, 0, 58, 46
1, 114689, Poly_aftertouch_c, 0, 61, 0
1, 114701, Note_off_c, 0, 66, 48
1, 114768, Note_off_c, 0, 70, 59
1, 114899, Note_on_c, 0, 58, 11
1, 114904, Note_on_c, 0, 54, 22
1, 114908, Note_on_c, 0, 49, 23
1, 114988, Note_off_c, 0, 49, 48
1, 115063, Note_off_c, 0, 58, 40
1, 115130, Note_off_c, 0, 54, 38
1, 115131, Note_on_c, 0, 69, 45
1, 115213, Note_on_c, 0, 70, 64
1, 115260, Note_off_c, 0, 69, 37
1, 115305, Control_c, 0, 64, 119
1, 115307, Note_on_c, 0, 80, 68
1, 115320, Control_c, 0, 64, 116
1, 115322, Note_off_c, 0, 70, 61
1, 115335, Control_c, 0, 64, 113
1, 115349, Control_c, 0, 64, 110
1, 115364, Control_c, 0, 64, 108
1, 115379, Control_c, 0, 64, 106
1, 115394, Control_c, 0, 64, 103
1, 115406, Note_on_c, 0, 78, 70
1, 115409, Control_c, 0, 64, 101
1, 115424, Control_c, 0, 64, 99
1, 115436, Note_off_c, 0, 80, 60
1, 115438, Control_c, 0, 64, 97
1, 115453, Control_c, 0, 64, 95
1, 115468, Control_c, 0, 64, 92
1, 115483, Control_c, 0, 64, 88
1, 115498, Control_c, 0, 64, 85
1, 115506, Note_on_c, 0, 73, 67
1, 115513, Control_c, 0, 64, 79
1, 115528, Control_c, 0, 64, 73
1, 115542, Control_c, 0, 64, 66
1, 115553, Note_off_c, 0, 78, 53
1, 115557, Control_c, 0, 64, 60
1, 115572, Control_c, 0, 64, 53
1, 115587, Control_c, 0, 64, 44
1, 115602, Control_c, 0, 64, 28
1, 115616, Control_c, 0, 64, 0
1, 115705, Control_c, 0, 64, 43
1, 115715, Note_on_c, 0, 70, 43
1, 115720, Control_c, 0, 64, 57
1, 115722, Note_on_c, 0, 66, 38
1, 115725, Note_on_c, 0, 61, 33
1, 115732, Note_on_c, 0, 49, 33
1, 115735, Control_c, 0, 64, 64
1, 115741, Note_on_c, 0, 58, 29
1, 115749, Control_c, 0, 64, 67
1, 115763, Note_off_c, 0, 70, 60
1, 115764, Control_c, 0, 64, 70
1, 115779, Control_c, 0, 64, 73
1, 115787, Note_off_c, 0, 66, 41
1, 115802, Control_c, 0, 64, 78
1, 115802, Note_off_c, 0, 58, 55
1, 115816, Note_off_c, 0, 61, 51
1, 115817, Control_c, 0, 64, 82
1, 115819, Note_off_c, 0, 49, 50
1, 115831, Control_c, 0, 64, 86
1, 115846, Control_c, 0, 64, 89
1, 115861, Control_c, 0, 64, 93
1, 115876, Control_c, 0, 64, 96
1, 115891, Control_c, 0, 64, 98
1, 115905, Control_c, 0, 64, 100
1, 115938, Note_on_c, 0, 70, 46
1, 115941, Note_on_c, 0, 61, 36
1, 115948, Note_on_c, 0, 58, 31
1, 115950, Note_on_c, 0, 49, 26
1, 115975, Note_on_c, 0, 66, 12
1, 116052, Note_off_c, 0, 66, 48
1, 116062, Note_off_c, 0, 61, 35
1, 116083, Note_off_c, 0, 49, 37
1, 116085, Note_off_c, 0, 58, 36
1, 116105, Note_off_c, 0, 73, 36
1, 116117, Note_off_c, 0, 70, 42
1, 116242, Note_on_c, 0, 49, 39
1, 116256, Note_on_c, 0, 61, 30
1, 116261, Note_on_c, 0, 58, 31
1, 116342, Note_off_c, 0, 61, 56
1, 116386, Note_off_c, 0, 49, 37
1, 116494, Note_off_c, 0, 58, 36
1, 116529, Note_on_c, 0, 73, 59
1, 116551, Control_c, 0, 64, 98
1, 116580, Control_c, 0, 64, 95
1, 116586, Note_on_c, 0, 61, 45
1, 116595, Control_c, 0, 64, 94
1, 116610, Control_c, 0, 64, 92
1, 116625, Control_c, 0, 64, 88
1, 116640, Control_c, 0, 64, 81
1, 116655, Control_c, 0, 64, 69
1, 116670, Control_c, 0, 64, 56
1, 116684, Control_c, 0, 64, 36
1, 116699, Control_c, 0, 64, 0
1, 116716, Note_off_c, 0, 61, 63
1, 116729, Control_c, 0, 64, 39
1, 116744, Control_c, 0, 64, 50
1, 116747, Note_on_c, 0, 74, 79
1, 116759, Control_c, 0, 64, 59
1, 116767, Note_on_c, 0, 62, 59
1, 116773, Control_c, 0, 64, 64
1, 116788, Control_c, 0, 64, 68
1, 116803, Control_c, 0, 64, 71
1, 116816, Note_off_c, 0, 73, 61
1, 116819, Control_c, 0, 64, 73
1, 116834, Control_c, 0, 64, 76
1, 116846, Note_off_c, 0, 62, 60
1, 116848, Control_c, 0, 64, 78
1, 116863, Control_c, 0, 64, 79
1, 116893, Control_c, 0, 64, 79
1, 116911, Note_off_c, 0, 74, 58
1, 116996, Control_c, 0, 64, 79
1, 117006, Note_on_c, 0, 75, 70
1, 117026, Control_c, 0, 64, 78
1, 117027, Note_on_c, 0, 63, 53
1, 117041, Control_c, 0, 64, 75
1, 117056, Control_c, 0, 64, 70
1, 117070, Control_c, 0, 64, 62
1, 117085, Control_c, 0, 64, 44
1, 117100, Control_c, 0, 64, 0
1, 117188, Control_c, 0, 64, 33
1, 117203, Control_c, 0, 64, 51
1, 117218, Control_c, 0, 64, 62
1, 117233, Control_c, 0, 64, 66
1, 117234, Note_on_c, 0, 71, 45
1, 117243, Note_on_c, 0, 59, 40
1, 117248, Control_c, 0, 64, 69
1, 117252, Note_on_c, 0, 53, 34
1, 117255, Note_on_c, 0, 56, 32
1, 117257, Note_on_c, 0, 68, 15
1, 117262, Control_c, 0, 64, 73
1, 117277, Control_c, 0, 64, 78
1, 117299, Control_c, 0, 64, 83
1, 117313, Note_off_c, 0, 59, 55
1, 117314, Control_c, 0, 64, 87
1, 117315, Note_off_c, 0, 53, 56
1, 117316, Note_off_c, 0, 56, 44
1, 117318, Note_off_c, 0, 68, 46
1, 117328, Control_c, 0, 64, 92
1, 117336, Note_off_c, 0, 71, 37
1, 117343, Control_c, 0, 64, 97
1, 117358, Control_c, 0, 64, 105
1, 117373, Control_c, 0, 64, 127
1, 117427, Note_on_c, 0, 56, 51
1, 117446, Note_on_c, 0, 53, 37
1, 117448, Control_c, 0, 64, 81
1, 117454, Note_on_c, 0, 71, 44
1, 117457, Note_off_c, 0, 56, 61
1, 117461, Note_on_c, 0, 68, 21
1, 117462, Control_c, 0, 64, 69
1, 117477, Control_c, 0, 64, 70
1, 117477, Note_off_c, 0, 53, 44
1, 117492, Control_c, 0, 64, 78
1, 117507, Control_c, 0, 64, 88
1, 117521, Control_c, 0, 64, 127
1, 117570, Note_off_c, 0, 68, 29
1, 117572, Note_off_c, 0, 63, 62
1, 117594, Note_off_c, 0, 71, 41
1, 117600, Note_on_c, 0, 37, 64
1, 117610, Control_c, 0, 64, 105
1, 117626, Control_c, 0, 64, 110
1, 117631, Note_off_c, 0, 37, 63
1, 117641, Control_c, 0, 64, 127
1, 117770, Note_on_c, 0, 77, 78
1, 117789, Control_c, 0, 64, 91
1, 117790, Note_on_c, 0, 65, 59
1, 117796, Note_on_c, 0, 49, 54
1, 117800, Note_off_c, 0, 75, 62
1, 117804, Control_c, 0, 64, 66
1, 117805, Note_on_c, 0, 59, 45
1, 117818, Control_c, 0, 64, 52
1, 117826, Note_off_c, 0, 65, 62
1, 117832, Note_off_c, 0, 59, 58
1, 117833, Control_c, 0, 64, 58
1, 117848, Control_c, 0, 64, 68
1, 117863, Control_c, 0, 64, 80
1, 117878, Control_c, 0, 64, 100
1, 117892, Control_c, 0, 64, 127
1, 117924, Note_off_c, 0, 49, 40
1, 117925, Note_off_c, 0, 77, 63
1, 117935, Note_on_c, 0, 78, 80
1, 117939, Note_on_c, 0, 59, 51
1, 117953, Note_on_c, 0, 66, 69
1, 117960, Note_on_c, 0, 51, 55
1, 117983, Note_off_c, 0, 66, 65
1, 117988, Note_off_c, 0, 59, 64
1, 118003, Note_off_c, 0, 51, 60
1, 118086, Note_off_c, 0, 78, 54
1, 118138, Control_c, 0, 64, 96
1, 118143, Note_on_c, 0, 82, 67
1, 118152, Control_c, 0, 64, 75
1, 118167, Note_on_c, 0, 70, 40
1, 118167, Control_c, 0, 64, 58
1, 118182, Control_c, 0, 64, 41
1, 118187, Note_off_c, 0, 82, 56
1, 118196, Note_off_c, 0, 70, 53
1, 118197, Control_c, 0, 64, 0
1, 118313, Note_on_c, 0, 61, 41
1, 118314, Note_on_c, 0, 53, 45
1, 118327, Note_on_c, 0, 59, 38
1, 118343, Note_off_c, 0, 61, 54
1, 118355, Note_off_c, 0, 59, 56
1, 118356, Note_off_c, 0, 53, 60
1, 118473, Note_on_c, 0, 61, 37
1, 118478, Note_on_c, 0, 59, 31
1, 118480, Note_on_c, 0, 53, 51
1, 118485, Note_on_c, 0, 80, 65
1, 118494, Note_on_c, 0, 68, 52
1, 118502, Note_off_c, 0, 61, 54
1, 118507, Note_off_c, 0, 59, 50
1, 118521, Note_off_c, 0, 53, 64
1, 118554, Control_c, 0, 64, 34
1, 118568, Control_c, 0, 64, 53
1, 118583, Note_off_c, 0, 68, 54
1, 118583, Control_c, 0, 64, 60
1, 118598, Control_c, 0, 64, 66
1, 118613, Control_c, 0, 64, 73
1, 118628, Control_c, 0, 64, 81
1, 118642, Control_c, 0, 64, 88
1, 118648, Note_on_c, 0, 37, 70
1, 118657, Control_c, 0, 64, 97
1, 118672, Control_c, 0, 64, 119
1, 118677, Note_off_c, 0, 37, 63
1, 118687, Control_c, 0, 64, 127
1, 118816, Note_on_c, 0, 82, 77
1, 118837, Note_on_c, 0, 70, 65
1, 118839, Note_on_c, 0, 54, 61
1, 118851, Note_on_c, 0, 61, 45
1, 118861, Note_off_c, 0, 80, 59
1, 118884, Note_off_c, 0, 61, 51
1, 118912, Note_off_c, 0, 70, 63
1, 118918, Note_off_c, 0, 54, 57
1, 118979, Note_on_c, 0, 83, 83
1, 118983, Note_on_c, 0, 61, 55
1, 118992, Note_on_c, 0, 56, 62
1, 118993, Note_on_c, 0, 71, 70
1, 118995, Note_off_c, 0, 82, 59
1, 119018, Note_off_c, 0, 71, 68
1, 119028, Note_off_c, 0, 61, 62
1, 119031, Note_off_c, 0, 56, 61
1, 119048, Note_off_c, 0, 83, 63
1, 119153, Control_c, 0, 64, 117
1, 119165, Note_on_c, 0, 87, 77
1, 119168, Control_c, 0, 64, 84
1, 119178, Note_on_c, 0, 75, 64
1, 119182, Control_c, 0, 64, 62
1, 119197, Control_c, 0, 64, 41
1, 119210, Note_off_c, 0, 87, 52
1, 119212, Note_off_c, 0, 75, 65
1, 119213, Control_c, 0, 64, 0
1, 119319, Note_on_c, 0, 57, 51
1, 119329, Note_on_c, 0, 60, 45
1, 119332, Note_on_c, 0, 66, 49
1, 119354, Note_off_c, 0, 57, 64
1, 119357, Note_off_c, 0, 60, 61
1, 119358, Note_off_c, 0, 66, 61
1, 119484, Note_on_c, 0, 66, 47
1, 119485, Note_on_c, 0, 85, 74
1, 119495, Note_on_c, 0, 58, 55
1, 119500, Note_on_c, 0, 73, 57
1, 119501, Note_on_c, 0, 61, 45
1, 119509, Note_off_c, 0, 66, 59
1, 119528, Note_off_c, 0, 61, 58
1, 119531, Note_off_c, 0, 58, 64
1, 119591, Control_c, 0, 64, 41
1, 119603, Note_off_c, 0, 73, 53
1, 119606, Control_c, 0, 64, 57
1, 119621, Control_c, 0, 64, 65
1, 119636, Control_c, 0, 64, 72
1, 119650, Control_c, 0, 64, 79
1, 119663, Note_on_c, 0, 49, 63
1, 119665, Control_c, 0, 64, 86
1, 119680, Control_c, 0, 64, 95
1, 119692, Note_off_c, 0, 49, 63
1, 119695, Control_c, 0, 64, 108
1, 119710, Control_c, 0, 64, 127
1, 119823, Note_on_c, 0, 87, 80
1, 119846, Note_on_c, 0, 58, 51
1, 119859, Note_on_c, 0, 75, 52
1, 119863, Note_on_c, 0, 61, 33
1, 119868, Note_off_c, 0, 85, 55
1, 119876, Note_off_c, 0, 58, 55
1, 119895, Note_off_c, 0, 61, 51
1, 119897, Note_off_c, 0, 75, 61
1, 119898, Poly_aftertouch_c, 0, 66, 127
1, 119939, Poly_aftertouch_c, 0, 66, 0
1, 119993, Note_on_c, 0, 89, 83
1, 119998, Note_on_c, 0, 61, 47
1, 120011, Note_on_c, 0, 58, 48
1, 120015, Note_off_c, 0, 87, 59
1, 120017, Note_on_c, 0, 77, 61
1, 120043, Note_off_c, 0, 77, 65
1, 120046, Note_off_c, 0, 61, 61
1, 120054, Note_off_c, 0, 58, 59
1, 120071, Poly_aftertouch_c, 0, 66, 127
1, 120079, Note_off_c, 0, 89, 63
1, 120104, Poly_aftertouch_c, 0, 66, 0
1, 120199, Note_on_c, 0, 92, 78
1, 120212, Note_on_c, 0, 80, 61
1, 120214, Control_c, 0, 64, 112
1, 120229, Control_c, 0, 64, 88
1, 120244, Note_off_c, 0, 80, 63
1, 120244, Control_c, 0, 64, 71
1, 120259, Control_c, 0, 64, 57
1, 120262, Note_off_c, 0, 92, 63
1, 120274, Control_c, 0, 64, 38
1, 120296, Control_c, 0, 64, 0
1, 120378, Note_on_c, 0, 69, 43
1, 120380, Note_on_c, 0, 60, 38
1, 120388, Note_on_c, 0, 63, 37
1, 120410, Note_off_c, 0, 60, 59
1, 120414, Note_off_c, 0, 69, 64
1, 120417, Note_off_c, 0, 63, 57
1, 120591, Note_on_c, 0, 90, 56
1, 120604, Note_on_c, 0, 61, 40
1, 120607, Control_c, 0, 64, 38
1, 120612, Note_on_c, 0, 78, 46
1, 120613, Note_on_c, 0, 66, 39
1, 120613, Note_on_c, 0, 70, 20
1, 120622, Control_c, 0, 64, 53
1, 120637, Control_c, 0, 64, 62
1, 120646, Note_off_c, 0, 70, 49
1, 120648, Note_off_c, 0, 66, 63
1, 120652, Control_c, 0, 64, 67
1, 120662, Note_off_c, 0, 61, 62
1, 120666, Control_c, 0, 64, 70
1, 120681, Control_c, 0, 64, 75
1, 120696, Control_c, 0, 64, 79
1, 120711, Control_c, 0, 64, 85
1, 120719, Note_off_c, 0, 90, 63
1, 120726, Control_c, 0, 64, 90
1, 120740, Control_c, 0, 64, 94
1, 120755, Control_c, 0, 64, 100
1, 120770, Control_c, 0, 64, 108
1, 120785, Note_off_c, 0, 78, 61
1, 120785, Control_c, 0, 64, 122
1, 120800, Control_c, 0, 64, 127
1, 120830, Note_on_c, 0, 49, 48
1, 120860, Note_off_c, 0, 49, 57
1, 121057, Note_on_c, 0, 85, 72
1, 121090, Note_on_c, 0, 61, 35
1, 121102, Note_on_c, 0, 66, 8
1, 121105, Note_on_c, 0, 58, 31
1, 121118, Note_on_c, 0, 73, 26
1, 121130, Note_off_c, 0, 61, 48
1, 121140, Note_off_c, 0, 58, 49
1, 121153, Note_off_c, 0, 73, 52
1, 121156, Note_off_c, 0, 66, 51
1, 121184, Note_off_c, 0, 85, 62
1, 121251, Note_on_c, 0, 82, 80
1, 121257, Note_on_c, 0, 58, 43
1, 121259, Note_on_c, 0, 66, 52
1, 121269, Note_on_c, 0, 61, 36
1, 121287, Note_on_c, 0, 70, 55
1, 121302, Note_off_c, 0, 66, 62
1, 121306, Note_off_c, 0, 61, 58
1, 121320, Note_off_c, 0, 58, 60
1, 121336, Note_off_c, 0, 70, 52
1, 121355, Note_off_c, 0, 82, 62
1, 121459, Note_on_c, 0, 83, 81
1, 121503, Control_c, 0, 64, 117
1, 121513, Note_on_c, 0, 71, 34
1, 121518, Control_c, 0, 64, 100
1, 121533, Control_c, 0, 64, 86
1, 121548, Control_c, 0, 64, 75
1, 121562, Control_c, 0, 64, 62
1, 121577, Control_c, 0, 64, 39
1, 121592, Control_c, 0, 64, 0
1, 121640, Note_on_c, 0, 56, 51
1, 121649, Note_on_c, 0, 66, 44
1, 121653, Control_c, 0, 64, 33
1, 121667, Control_c, 0, 64, 48
1, 121668, Note_on_c, 0, 62, 33
1, 121682, Control_c, 0, 64, 60
1, 121690, Note_off_c, 0, 56, 59
1, 121695, Note_off_c, 0, 66, 55
1, 121697, Control_c, 0, 64, 65
1, 121706, Note_off_c, 0, 62, 51
1, 121711, Control_c, 0, 64, 68
1, 121726, Control_c, 0, 64, 72
1, 121741, Control_c, 0, 64, 75
1, 121756, Control_c, 0, 64, 78
1, 121771, Control_c, 0, 64, 82
1, 121793, Control_c, 0, 64, 84
1, 121808, Control_c, 0, 64, 86
1, 121823, Control_c, 0, 64, 87
1, 121829, Note_on_c, 0, 62, 43
1, 121834, Note_on_c, 0, 56, 51
1, 121838, Control_c, 0, 64, 87
1, 121842, Note_on_c, 0, 66, 33
1, 121853, Control_c, 0, 64, 88
1, 121856, Note_off_c, 0, 62, 60
1, 121867, Control_c, 0, 64, 89
1, 121876, Note_off_c, 0, 56, 62
1, 121878, Note_off_c, 0, 66, 45
1, 121882, Control_c, 0, 64, 89
1, 121897, Control_c, 0, 64, 90
1, 121926, Control_c, 0, 64, 91
1, 121941, Control_c, 0, 64, 92
1, 121956, Control_c, 0, 64, 93
1, 121963, Note_off_c, 0, 71, 53
1, 121971, Control_c, 0, 64, 94
1, 121985, Control_c, 0, 64, 93
1, 122000, Control_c, 0, 64, 87
1, 122015, Control_c, 0, 64, 74
1, 122027, Note_on_c, 0, 49, 57
1, 122030, Control_c, 0, 64, 65
1, 122045, Control_c, 0, 64, 63
1, 122059, Control_c, 0, 64, 65
1, 122074, Note_off_c, 0, 49, 60
1, 122074, Control_c, 0, 64, 68
1, 122089, Control_c, 0, 64, 72
1, 122104, Control_c, 0, 64, 77
1, 122119, Control_c, 0, 64, 83
1, 122134, Control_c, 0, 64, 86
1, 122148, Control_c, 0, 64, 89
1, 122163, Control_c, 0, 64, 91
1, 122178, Control_c, 0, 64, 94
1, 122193, Control_c, 0, 64, 95
1, 122208, Control_c, 0, 64, 94
1, 122223, Control_c, 0, 64, 93
1, 122238, Control_c, 0, 64, 80
1, 122251, Note_on_c, 0, 80, 64
1, 122253, Control_c, 0, 64, 65
1, 122267, Control_c, 0, 64, 44
1, 122270, Note_on_c, 0, 68, 47
1, 122282, Control_c, 0, 64, 0
1, 122284, Note_on_c, 0, 62, 37
1, 122310, Note_on_c, 0, 66, 15
1, 122311, Control_c, 0, 64, 43
1, 122314, Note_on_c, 0, 59, 37
1, 122326, Control_c, 0, 64, 56
1, 122327, Note_off_c, 0, 83, 55
1, 122341, Control_c, 0, 64, 64
1, 122356, Control_c, 0, 64, 69
1, 122357, Note_off_c, 0, 68, 63
1, 122371, Control_c, 0, 64, 73
1, 122385, Control_c, 0, 64, 78
1, 122395, Note_off_c, 0, 66, 40
1, 122400, Control_c, 0, 64, 84
1, 122403, Note_off_c, 0, 59, 40
1, 122405, Note_off_c, 0, 62, 54
1, 122409, Note_off_c, 0, 80, 61
1, 122416, Control_c, 0, 64, 88
1, 122431, Control_c, 0, 64, 92
1, 122446, Control_c, 0, 64, 94
1, 122461, Control_c, 0, 64, 95
1, 122503, Note_on_c, 0, 66, 48
1, 122505, Control_c, 0, 64, 97
1, 122515, Note_on_c, 0, 56, 43
1, 122567, Note_on_c, 0, 59, 15
1, 122571, Note_off_c, 0, 66, 56
1, 122591, Note_off_c, 0, 56, 51
1, 122595, Note_on_c, 0, 73, 58
1, 122598, Note_on_c, 0, 85, 65
1, 122613, Note_off_c, 0, 59, 50
1, 122613, Note_off_c, 0, 73, 63
1, 122644, Note_off_c, 0, 85, 59
1, 122691, Note_on_c, 0, 73, 59
1, 122749, Control_c, 0, 64, 96
1, 122764, Control_c, 0, 64, 95
1, 122779, Control_c, 0, 64, 94
1, 122794, Control_c, 0, 64, 92
1, 122808, Control_c, 0, 64, 90
1, 122823, Control_c, 0, 64, 88
1, 122834, Note_on_c, 0, 85, 68
1, 122838, Control_c, 0, 64, 86
1, 122853, Control_c, 0, 64, 83
1, 122868, Control_c, 0, 64, 80
1, 122882, Control_c, 0, 64, 76
1, 122897, Control_c, 0, 64, 72
1, 122912, Control_c, 0, 64, 65
1, 122926, Control_c, 0, 64, 56
1, 122941, Control_c, 0, 64, 42
1, 122956, Control_c, 0, 64, 0
1, 123031, Control_c, 0, 64, 31
1, 123046, Control_c, 0, 64, 48
1, 123060, Control_c, 0, 64, 61
1, 123075, Control_c, 0, 64, 65
1, 123079, Note_on_c, 0, 65, 26
1, 123081, Note_on_c, 0, 56, 29
1, 123090, Control_c, 0, 64, 69
1, 123099, Note_on_c, 0, 59, 29
1, 123105, Control_c, 0, 64, 74
1, 123120, Control_c, 0, 64, 80
1, 123134, Control_c, 0, 64, 85
1, 123149, Control_c, 0, 64, 91
1, 123164, Control_c, 0, 64, 102
1, 123179, Control_c, 0, 64, 120
1, 123195, Control_c, 0, 64, 127
1, 123213, Note_off_c, 0, 56, 37
1, 123221, Note_off_c, 0, 59, 44
1, 123232, Note_off_c, 0, 65, 34
1, 123310, Note_off_c, 0, 85, 53
1, 123352, Note_on_c, 0, 56, 46
1, 123357, Note_on_c, 0, 65, 21
1, 123400, Note_off_c, 0, 65, 48
1, 123420, Note_off_c, 0, 56, 59
1, 123450, Note_off_c, 0, 73, 52
1, 123469, Control_c, 0, 67, 40
1, 123484, Control_c, 0, 67, 45
1, 123499, Control_c, 0, 67, 49
1, 123514, Control_c, 0, 67, 51
1, 123585, Note_on_c, 0, 49, 48
1, 123603, Control_c, 0, 67, 51
1, 123618, Control_c, 0, 67, 49
1, 123618, Note_off_c, 0, 49, 60
1, 123632, Control_c, 0, 67, 49
1, 123647, Control_c, 0, 67, 48
1, 123662, Control_c, 0, 67, 47
1, 123677, Control_c, 0, 67, 47
1, 123691, Control_c, 0, 67, 46
1, 123706, Control_c, 0, 67, 45
1, 123721, Control_c, 0, 67, 45
1, 123736, Control_c, 0, 67, 44
1, 123751, Control_c, 0, 67, 43
1, 123765, Control_c, 0, 67, 43
1, 123808, Note_on_c, 0, 80, 66
1, 123846, Note_on_c, 0, 68, 45
1, 123848, Note_on_c, 0, 54, 41
1, 123850, Note_on_c, 0, 63, 36
1, 123854, Control_c, 0, 64, 88
1, 123854, Control_c, 0, 67, 42
1, 123869, Note_on_c, 0, 59, 34
1, 123869, Control_c, 0, 64, 73
1, 123869, Control_c, 0, 67, 41
1, 123883, Control_c, 0, 64, 69
1, 123883, Control_c, 0, 67, 40
1, 123898, Control_c, 0, 64, 71
1, 123898, Control_c, 0, 67, 39
1, 123913, Control_c, 0, 64, 76
1, 123913, Control_c, 0, 67, 0
1, 123928, Control_c, 0, 64, 84
1, 123943, Control_c, 0, 64, 97
1, 123955, Note_off_c, 0, 63, 52
1, 123958, Control_c, 0, 64, 124
1, 123973, Control_c, 0, 64, 127
1, 124000, Note_off_c, 0, 59, 43
1, 124009, Note_off_c, 0, 68, 34
1, 124041, Control_c, 0, 64, 112
1, 124056, Control_c, 0, 64, 84
1, 124070, Control_c, 0, 64, 65
1, 124085, Control_c, 0, 64, 47
1, 124089, Note_on_c, 0, 81, 71
1, 124100, Control_c, 0, 64, 47
1, 124114, Control_c, 0, 64, 55
1, 124129, Control_c, 0, 64, 60
1, 124133, Note_on_c, 0, 53, 51
1, 124144, Control_c, 0, 64, 65
1, 124151, Note_on_c, 0, 69, 20
1, 124159, Control_c, 0, 64, 72
1, 124174, Control_c, 0, 64, 81
1, 124176, Note_off_c, 0, 80, 40
1, 124178, Poly_aftertouch_c, 0, 59, 127
1, 124188, Control_c, 0, 64, 88
1, 124194, Note_off_c, 0, 69, 51
1, 124203, Control_c, 0, 64, 92
1, 124205, Poly_aftertouch_c, 0, 61, 127
1, 124218, Control_c, 0, 64, 96
1, 124223, Poly_aftertouch_c, 0, 59, 0
1, 124233, Control_c, 0, 64, 98
1, 124236, Note_off_c, 0, 54, 29
1, 124237, Poly_aftertouch_c, 0, 61, 0
1, 124239, Note_off_c, 0, 53, 62
1, 124411, Control_c, 0, 64, 95
1, 124426, Control_c, 0, 64, 93
1, 124441, Control_c, 0, 64, 90
1, 124455, Control_c, 0, 64, 87
1, 124470, Control_c, 0, 64, 84
1, 124476, Note_on_c, 0, 82, 57
1, 124485, Control_c, 0, 64, 80
1, 124485, Control_c, 0, 67, 37
1, 124500, Control_c, 0, 64, 76
1, 124500, Control_c, 0, 67, 38
1, 124514, Control_c, 0, 64, 70
1, 124514, Control_c, 0, 67, 39
1, 124516, Note_on_c, 0, 70, 35
1, 124529, Control_c, 0, 64, 63
1, 124529, Control_c, 0, 67, 41
1, 124537, Note_off_c, 0, 81, 50
1, 124544, Control_c, 0, 64, 49
1, 124544, Control_c, 0, 67, 42
1, 124548, Note_on_c, 0, 42, 41
1, 124559, Control_c, 0, 64, 0
1, 124559, Control_c, 0, 67, 43
1, 124588, Control_c, 0, 67, 43
1, 124633, Control_c, 0, 64, 46
1, 124633, Control_c, 0, 67, 42
1, 124648, Control_c, 0, 64, 63
1, 124648, Control_c, 0, 67, 41
1, 124662, Control_c, 0, 64, 72
1, 124662, Control_c, 0, 67, 41
1, 124667, Note_off_c, 0, 70, 58
1, 124669, Note_off_c, 0, 42, 62
1, 124677, Control_c, 0, 64, 84
1, 124677, Control_c, 0, 67, 40
1, 124692, Control_c, 0, 64, 103
1, 124692, Control_c, 0, 67, 39
1, 124706, Control_c, 0, 64, 127
1, 124706, Control_c, 0, 67, 38
1, 124721, Control_c, 0, 67, 37
1, 124736, Control_c, 0, 67, 0
1, 124800, Note_off_c, 0, 82, 45
1, 124930, Note_on_c, 0, 54, 32
1, 124933, Note_on_c, 0, 58, 36
1, 124937, Note_on_c, 0, 61, 34
1, 125006, Note_on_c, 0, 82, 53
1, 125040, Note_off_c, 0, 82, 65
1, 125088, Note_on_c, 0, 83, 62
1, 125125, Note_on_c, 0, 62, 41
1, 125144, Note_on_c, 0, 82, 71
1, 125144, Note_off_c, 0, 83, 62
1, 125194, Note_off_c, 0, 82, 63
1, 125204, Note_off_c, 0, 61, 40
1, 125210, Note_on_c, 0, 81, 68
1, 125274, Note_off_c, 0, 81, 63
1, 125285, Note_on_c, 0, 82, 72
1, 125333, Note_off_c, 0, 54, 34
1, 125350, Note_off_c, 0, 62, 35
1, 125397, Note_off_c, 0, 58, 35
1, 125403, Note_on_c, 0, 87, 61
1, 125413, Note_off_c, 0, 82, 55
1, 125422, Note_on_c, 0, 75, 47
1, 125426, Control_c, 0, 64, 105
1, 125440, Control_c, 0, 64, 90
1, 125454, Control_c, 0, 64, 78
1, 125469, Control_c, 0, 64, 66
1, 125484, Control_c, 0, 64, 54
1, 125499, Control_c, 0, 64, 37
1, 125514, Control_c, 0, 64, 33
1, 125536, Control_c, 0, 64, 35
1, 125551, Control_c, 0, 64, 46
1, 125566, Control_c, 0, 64, 56
1, 125581, Control_c, 0, 64, 63
1, 125596, Control_c, 0, 64, 69
1, 125612, Control_c, 0, 64, 81
1, 125626, Control_c, 0, 64, 98
1, 125639, Note_on_c, 0, 63, 50
1, 125641, Control_c, 0, 64, 127
1, 125655, Note_on_c, 0, 58, 44
1, 125660, Note_on_c, 0, 54, 40
1, 125691, Note_off_c, 0, 75, 61
1, 125703, Note_off_c, 0, 54, 59
1, 125716, Note_off_c, 0, 58, 55
1, 125803, Note_on_c, 0, 54, 57
1, 125815, Note_off_c, 0, 63, 23
1, 125832, Note_off_c, 0, 54, 63
1, 125850, Note_on_c, 0, 85, 69
1, 125872, Note_on_c, 0, 73, 50
1, 125898, Note_off_c, 0, 87, 62
1, 125968, Note_off_c, 0, 73, 60
1, 125997, Control_c, 0, 64, 70
1, 125998, Note_off_c, 0, 85, 58
1, 126006, Note_on_c, 0, 45, 51
1, 126012, Control_c, 0, 64, 41
1, 126026, Control_c, 0, 64, 43
1, 126041, Control_c, 0, 64, 57
1, 126056, Control_c, 0, 64, 65
1, 126071, Control_c, 0, 64, 75
1, 126080, Note_on_c, 0, 85, 75
1, 126081, Note_off_c, 0, 45, 63
1, 126085, Control_c, 0, 64, 97
1, 126100, Control_c, 0, 64, 127
1, 126121, Note_on_c, 0, 73, 51
1, 126243, Note_on_c, 0, 63, 59
1, 126243, Note_off_c, 0, 73, 62
1, 126243, Note_off_c, 0, 85, 61
1, 126264, Note_on_c, 0, 57, 43
1, 126288, Note_on_c, 0, 53, 53
1, 126357, Note_off_c, 0, 63, 58
1, 126420, Note_on_c, 0, 84, 83
1, 126432, Note_off_c, 0, 53, 37
1, 126449, Note_on_c, 0, 64, 53
1, 126483, Note_off_c, 0, 57, 59
1, 126504, Note_off_c, 0, 64, 55
1, 126648, Note_on_c, 0, 89, 76
1, 126671, Control_c, 0, 64, 119
1, 126686, Control_c, 0, 64, 76
1, 126688, Note_off_c, 0, 84, 61
1, 126700, Control_c, 0, 64, 56
1, 126715, Control_c, 0, 64, 38
1, 126730, Control_c, 0, 64, 46
1, 126745, Control_c, 0, 64, 58
1, 126760, Control_c, 0, 64, 68
1, 126775, Control_c, 0, 64, 82
1, 126790, Control_c, 0, 64, 120
1, 126805, Control_c, 0, 64, 127
1, 126821, Note_on_c, 0, 57, 53
1, 126822, Note_on_c, 0, 88, 83
1, 126826, Note_on_c, 0, 65, 45
1, 126829, Note_on_c, 0, 60, 45
1, 126858, Note_off_c, 0, 89, 62
1, 126868, Note_off_c, 0, 65, 60
1, 126878, Note_off_c, 0, 60, 60
1, 126888, Note_off_c, 0, 57, 53
1, 126980, Note_on_c, 0, 65, 43
1, 126987, Note_on_c, 0, 57, 61
1, 126996, Note_on_c, 0, 60, 35
1, 127004, Note_on_c, 0, 87, 83
1, 127010, Note_off_c, 0, 65, 52
1, 127020, Note_off_c, 0, 57, 66
1, 127039, Note_off_c, 0, 60, 47
1, 127147, Note_off_c, 0, 88, 32
1, 127186, Note_on_c, 0, 46, 55
1, 127228, Control_c, 0, 64, 75
1, 127243, Control_c, 0, 64, 44
1, 127258, Control_c, 0, 64, 0
1, 127279, Note_on_c, 0, 85, 69
1, 127287, Control_c, 0, 64, 38
1, 127292, Note_off_c, 0, 46, 61
1, 127299, Note_on_c, 0, 73, 48
1, 127302, Control_c, 0, 64, 57
1, 127317, Control_c, 0, 64, 69
1, 127323, Note_off_c, 0, 87, 60
1, 127331, Control_c, 0, 64, 82
1, 127346, Control_c, 0, 64, 118
1, 127361, Control_c, 0, 64, 127
1, 127368, Note_off_c, 0, 73, 62
1, 127437, Note_off_c, 0, 85, 62
1, 127462, Note_on_c, 0, 64, 62
1, 127474, Note_on_c, 0, 58, 54
1, 127517, Note_on_c, 0, 61, 36
1, 127545, Note_on_c, 0, 85, 69
1, 127588, Note_off_c, 0, 85, 60
1, 127605, Note_on_c, 0, 87, 70
1, 127613, Note_on_c, 0, 65, 66
1, 127660, Note_off_c, 0, 64, 58
1, 127668, Note_on_c, 0, 85, 77
1, 127681, Note_off_c, 0, 87, 64
1, 127711, Note_off_c, 0, 85, 64
1, 127716, Note_on_c, 0, 84, 78
1, 127770, Note_on_c, 0, 85, 75
1, 127782, Note_off_c, 0, 65, 58
1, 127783, Note_off_c, 0, 58, 47
1, 127798, Note_off_c, 0, 84, 61
1, 127827, Control_c, 0, 64, 124
1, 127830, Note_on_c, 0, 90, 91
1, 127842, Control_c, 0, 64, 73
1, 127856, Control_c, 0, 64, 48
1, 127858, Note_off_c, 0, 61, 50
1, 127860, Note_on_c, 0, 78, 65
1, 127866, Note_off_c, 0, 85, 63
1, 127871, Control_c, 0, 64, 47
1, 127886, Control_c, 0, 64, 59
1, 127901, Control_c, 0, 64, 68
1, 127916, Control_c, 0, 64, 86
1, 127930, Control_c, 0, 64, 127
1, 127991, Note_on_c, 0, 58, 64
1, 127996, Note_on_c, 0, 66, 66
1, 128003, Note_on_c, 0, 61, 50
1, 128012, Note_off_c, 0, 90, 61
1, 128030, Note_off_c, 0, 78, 62
1, 128038, Note_off_c, 0, 66, 58
1, 128046, Note_off_c, 0, 61, 61
1, 128050, Note_off_c, 0, 58, 61
1, 128128, Note_on_c, 0, 89, 94
1, 128137, Note_on_c, 0, 77, 83
1, 128140, Note_on_c, 0, 61, 55
1, 128146, Note_on_c, 0, 58, 59
1, 128154, Note_on_c, 0, 66, 39
1, 128161, Note_off_c, 0, 61, 62
1, 128170, Note_off_c, 0, 58, 62
1, 128188, Note_off_c, 0, 66, 51
1, 128224, Note_off_c, 0, 77, 58
1, 128271, Control_c, 0, 64, 104
1, 128277, Note_off_c, 0, 89, 57
1, 128286, Control_c, 0, 64, 63
1, 128292, Note_on_c, 0, 48, 82
1, 128301, Control_c, 0, 64, 0
1, 128316, Control_c, 0, 64, 32
1, 128331, Control_c, 0, 64, 53
1, 128337, Note_on_c, 0, 89, 83
1, 128346, Control_c, 0, 64, 64
1, 128349, Note_off_c, 0, 48, 62
1, 128356, Note_on_c, 0, 77, 68
1, 128361, Control_c, 0, 64, 79
1, 128376, Control_c, 0, 64, 127
1, 128458, Note_off_c, 0, 77, 60
1, 128480, Note_on_c, 0, 66, 76
1, 128486, Note_on_c, 0, 56, 62
1, 128502, Note_on_c, 0, 63, 52
1, 128556, Note_off_c, 0, 66, 60
1, 128617, Note_off_c, 0, 89, 57
1, 128634, Note_on_c, 0, 87, 85
1, 128639, Note_on_c, 0, 67, 69
1, 128647, Note_on_c, 0, 75, 73
1, 128669, Note_off_c, 0, 75, 71
1, 128683, Note_off_c, 0, 67, 62
1, 128690, Note_off_c, 0, 56, 61
1, 128757, Note_off_c, 0, 87, 62
1, 128835, Note_on_c, 0, 92, 83
1, 128841, Note_on_c, 0, 80, 78
1, 128856, Note_off_c, 0, 63, 35
1, 128858, Control_c, 0, 64, 76
1, 128873, Control_c, 0, 64, 46
1, 128888, Control_c, 0, 64, 0
1, 128902, Control_c, 0, 64, 33
1, 128917, Control_c, 0, 64, 54
1, 128932, Control_c, 0, 64, 66
1, 128947, Control_c, 0, 64, 78
1, 128951, Note_off_c, 0, 80, 66
1, 128962, Control_c, 0, 64, 114
1, 128974, Note_off_c, 0, 92, 62
1, 128976, Control_c, 0, 64, 127
1, 128999, Note_on_c, 0, 91, 92
1, 129006, Note_on_c, 0, 79, 84
1, 129011, Note_on_c, 0, 68, 59
1, 129019, Note_on_c, 0, 63, 47
1, 129020, Note_on_c, 0, 60, 54
1, 129070, Note_off_c, 0, 68, 53
1, 129072, Note_off_c, 0, 63, 56
1, 129081, Note_off_c, 0, 79, 63
1, 129090, Note_off_c, 0, 60, 60
1, 129169, Note_on_c, 0, 60, 56
1, 129169, Note_on_c, 0, 68, 36
1, 129170, Note_on_c, 0, 90, 89
1, 129171, Note_on_c, 0, 78, 93
1, 129174, Note_on_c, 0, 63, 54
1, 129198, Note_off_c, 0, 63, 57
1, 129200, Note_off_c, 0, 68, 51
1, 129201, Note_off_c, 0, 60, 65
1, 129231, Note_off_c, 0, 91, 61
1, 129301, Note_off_c, 0, 78, 57
1, 129327, Note_off_c, 0, 90, 60
1, 129347, Note_on_c, 0, 49, 78
1, 129369, Control_c, 0, 64, 95
1, 129383, Control_c, 0, 64, 56
1, 129398, Control_c, 0, 64, 0
1, 129422, Note_on_c, 0, 90, 94
1, 129428, Control_c, 0, 64, 38
1, 129432, Note_on_c, 0, 78, 86
1, 129443, Control_c, 0, 64, 61
1, 129458, Control_c, 0, 64, 75
1, 129461, Note_off_c, 0, 49, 64
1, 129473, Control_c, 0, 64, 117
1, 129488, Control_c, 0, 64, 127
1, 129628, Note_on_c, 0, 59, 65
1, 129630, Note_on_c, 0, 68, 57
1, 129651, Note_on_c, 0, 65, 47
1, 129663, Note_off_c, 0, 90, 60
1, 129684, Note_off_c, 0, 78, 59
1, 129705, Note_off_c, 0, 68, 59
1, 129705, Note_off_c, 0, 65, 52
1, 129720, Note_off_c, 0, 59, 59
1, 129831, Note_on_c, 0, 89, 88
1, 129834, Note_on_c, 0, 59, 63
1, 129840, Note_on_c, 0, 77, 77
1, 129863, Note_off_c, 0, 59, 66
1, 129886, Poly_aftertouch_c, 0, 68, 0
1, 129890, Note_off_c, 0, 77, 62
1, 129914, Poly_aftertouch_c, 0, 68, 0
1, 130155, Note_on_c, 0, 95, 84
1, 130173, Note_on_c, 0, 83, 73
1, 130194, Control_c, 0, 64, 89
1, 130195, Note_on_c, 0, 50, 66
1, 130208, Control_c, 0, 64, 57
1, 130221, Note_off_c, 0, 89, 55
1, 130223, Control_c, 0, 64, 0
1, 130282, Control_c, 0, 64, 46
1, 130297, Control_c, 0, 64, 63
1, 130312, Control_c, 0, 64, 80
1, 130326, Control_c, 0, 64, 127
1, 130337, Note_off_c, 0, 50, 63
1, 130504, Note_on_c, 0, 68, 36
1, 130512, Note_on_c, 0, 58, 46
1, 130523, Note_on_c, 0, 65, 27
1, 130543, Note_off_c, 0, 83, 59
1, 130558, Note_off_c, 0, 68, 45
1, 130563, Note_off_c, 0, 58, 59
1, 130568, Note_off_c, 0, 65, 46
1, 130722, Note_on_c, 0, 94, 77
1, 130739, Note_on_c, 0, 82, 61
1, 130747, Note_on_c, 0, 68, 38
1, 130757, Note_on_c, 0, 58, 48
1, 130783, Note_off_c, 0, 68, 54
1, 130800, Note_off_c, 0, 58, 63
1, 130841, Note_off_c, 0, 82, 53
1, 130927, Note_off_c, 0, 95, 31
1, 131108, Note_on_c, 0, 92, 67
1, 131124, Note_on_c, 0, 80, 50
1, 131149, Control_c, 0, 64, 108
1, 131164, Control_c, 0, 64, 80
1, 131165, Note_off_c, 0, 94, 61
1, 131176, Note_on_c, 0, 51, 46
1, 131179, Control_c, 0, 64, 60
1, 131195, Control_c, 0, 64, 0
1, 131254, Control_c, 0, 64, 36
1, 131269, Control_c, 0, 64, 54
1, 131284, Control_c, 0, 64, 65
1, 131298, Control_c, 0, 64, 74
1, 131313, Note_off_c, 0, 51, 61
1, 131313, Control_c, 0, 64, 86
1, 131328, Control_c, 0, 64, 100
1, 131343, Control_c, 0, 64, 114
1, 131358, Control_c, 0, 64, 127
1, 131543, Note_on_c, 0, 68, 28
1, 131544, Note_on_c, 0, 63, 37
1, 131549, Note_on_c, 0, 58, 31
1, 131609, Note_off_c, 0, 58, 46
1, 131609, Note_off_c, 0, 63, 52
1, 131621, Note_off_c, 0, 68, 50
1, 131646, Control_c, 0, 67, 47
1, 131661, Control_c, 0, 67, 59
1, 131675, Control_c, 0, 67, 67
1, 131690, Control_c, 0, 67, 72
1, 131705, Control_c, 0, 67, 75
1, 131720, Control_c, 0, 67, 79
1, 131735, Control_c, 0, 67, 80
1, 131790, Note_on_c, 0, 68, 39
1, 131808, Note_on_c, 0, 58, 39
1, 131821, Note_on_c, 0, 63, 35
1, 131867, Note_off_c, 0, 58, 53
1, 131868, Note_off_c, 0, 63, 54
1, 131887, Note_off_c, 0, 68, 48
1, 131949, Note_off_c, 0, 80, 59
1, 131971, Control_c, 0, 67, 79
1, 132017, Control_c, 0, 67, 79
1, 132061, Control_c, 0, 67, 78
1, 132115, Note_on_c, 0, 58, 38
1, 132125, Note_on_c, 0, 68, 28
1, 132128, Note_on_c, 0, 63, 36
1, 132224, Control_c, 0, 67, 79
1, 132291, Control_c, 0, 67, 79
1, 132365, Control_c, 0, 67, 80
1, 132439, Note_on_c, 0, 90, 49
1, 132454, Note_on_c, 0, 78, 31
1, 132496, Note_on_c, 0, 66, 34
1, 132569, Note_off_c, 0, 92, 36
1, 132573, Control_c, 0, 64, 120
1, 132577, Note_off_c, 0, 68, 40
1, 132588, Control_c, 0, 64, 106
1, 132602, Control_c, 0, 64, 99
1, 132602, Control_c, 0, 67, 79
1, 132617, Control_c, 0, 64, 93
1, 132632, Note_off_c, 0, 78, 58
1, 132632, Control_c, 0, 64, 85
1, 132646, Control_c, 0, 64, 75
1, 132661, Control_c, 0, 64, 62
1, 132661, Control_c, 0, 67, 79
1, 132676, Control_c, 0, 64, 50
1, 132691, Control_c, 0, 64, 47
1, 132706, Control_c, 0, 64, 49
1, 132706, Control_c, 0, 67, 78
1, 132715, Note_on_c, 0, 89, 51
1, 132720, Control_c, 0, 64, 55
1, 132720, Control_c, 0, 67, 77
1, 132735, Control_c, 0, 64, 60
1, 132740, Note_on_c, 0, 77, 45
1, 132750, Control_c, 0, 64, 66
1, 132765, Control_c, 0, 64, 72
1, 132765, Control_c, 0, 67, 77
1, 132775, Note_off_c, 0, 90, 47
1, 132780, Control_c, 0, 64, 78
1, 132796, Control_c, 0, 64, 83
1, 132811, Control_c, 0, 64, 86
1, 132811, Control_c, 0, 67, 76
1, 132818, Note_off_c, 0, 77, 61
1, 132820, Note_off_c, 0, 89, 60
1, 132825, Control_c, 0, 64, 88
1, 132840, Control_c, 0, 64, 90
1, 132855, Control_c, 0, 64, 91
1, 132869, Control_c, 0, 64, 92
1, 132884, Control_c, 0, 67, 75
1, 132914, Control_c, 0, 67, 75
1, 132933, Note_off_c, 0, 58, 38
1, 132957, Note_off_c, 0, 66, 42
1, 132958, Note_off_c, 0, 63, 36
1, 133041, Control_c, 0, 64, 91
1, 133085, Control_c, 0, 64, 91
1, 133100, Control_c, 0, 64, 90
1, 133115, Control_c, 0, 64, 89
1, 133116, Note_on_c, 0, 87, 39
1, 133118, Note_on_c, 0, 75, 39
1, 133130, Control_c, 0, 64, 86
1, 133144, Control_c, 0, 64, 82
1, 133159, Control_c, 0, 64, 75
1, 133174, Control_c, 0, 64, 69
1, 133189, Control_c, 0, 64, 60
1, 133204, Control_c, 0, 64, 46
1, 133218, Control_c, 0, 64, 0
1, 133233, Control_c, 0, 67, 74
1, 133248, Control_c, 0, 67, 73
1, 133263, Control_c, 0, 64, 29
1, 133263, Control_c, 0, 67, 73
1, 133277, Control_c, 0, 64, 47
1, 133277, Control_c, 0, 67, 72
1, 133286, Note_off_c, 0, 87, 62
1, 133292, Control_c, 0, 64, 60
1, 133292, Control_c, 0, 67, 71
1, 133307, Control_c, 0, 64, 66
1, 133307, Control_c, 0, 67, 70
1, 133322, Control_c, 0, 64, 71
1, 133322, Control_c, 0, 67, 69
1, 133337, Control_c, 0, 64, 75
1, 133337, Control_c, 0, 67, 68
1, 133351, Note_off_c, 0, 75, 65
1, 133351, Control_c, 0, 64, 80
1, 133351, Control_c, 0, 67, 67
1, 133366, Control_c, 0, 64, 86
1, 133366, Control_c, 0, 67, 66
1, 133381, Control_c, 0, 64, 90
1, 133381, Control_c, 0, 67, 64
1, 133395, Control_c, 0, 64, 93
1, 133395, Control_c, 0, 67, 62
1, 133410, Control_c, 0, 64, 94
1, 133410, Control_c, 0, 67, 59
1, 133425, Control_c, 0, 64, 94
1, 133425, Control_c, 0, 67, 57
1, 133440, Control_c, 0, 67, 55
1, 133455, Control_c, 0, 67, 53
1, 133470, Control_c, 0, 67, 49
1, 133485, Control_c, 0, 67, 46
1, 133500, Control_c, 0, 67, 40
1, 133515, Control_c, 0, 67, 0
1, 133544, Control_c, 0, 64, 94
1, 133574, Control_c, 0, 64, 91
1, 133589, Control_c, 0, 64, 85
1, 133604, Control_c, 0, 64, 76
1, 133619, Control_c, 0, 64, 66
1, 133634, Control_c, 0, 64, 54
1, 133649, Control_c, 0, 64, 39
1, 133650, Note_on_c, 0, 81, 62
1, 133664, Control_c, 0, 64, 33
1, 133679, Control_c, 0, 64, 35
1, 133693, Control_c, 0, 64, 41
1, 133694, Note_on_c, 0, 69, 36
1, 133708, Control_c, 0, 64, 47
1, 133723, Control_c, 0, 64, 53
1, 133738, Control_c, 0, 64, 59
1, 133753, Control_c, 0, 64, 64
1, 133753, Note_off_c, 0, 69, 54
1, 133774, Control_c, 0, 64, 69
1, 133789, Control_c, 0, 64, 74
1, 133804, Control_c, 0, 64, 79
1, 133819, Control_c, 0, 64, 84
1, 133834, Control_c, 0, 64, 90
1, 133849, Control_c, 0, 64, 98
1, 133863, Control_c, 0, 64, 108
1, 133878, Control_c, 0, 64, 127
1, 133890, Note_off_c, 0, 81, 61
1, 133903, Note_on_c, 0, 82, 74
1, 133932, Note_on_c, 0, 70, 52
1, 133968, Note_off_c, 0, 70, 64
1, 134007, Note_on_c, 0, 52, 45
1, 134024, Note_off_c, 0, 82, 61
1, 134051, Note_on_c, 0, 58, 50
1, 134156, Note_on_c, 0, 61, 42
1, 134227, Note_on_c, 0, 85, 66
1, 134248, Control_c, 0, 64, 98
1, 134259, Note_on_c, 0, 73, 50
1, 134263, Control_c, 0, 64, 78
1, 134278, Control_c, 0, 64, 64
1, 134293, Control_c, 0, 64, 51
1, 134301, Note_off_c, 0, 52, 22
1, 134308, Control_c, 0, 64, 52
1, 134321, Note_on_c, 0, 66, 47
1, 134322, Control_c, 0, 64, 57
1, 134337, Control_c, 0, 64, 61
1, 134352, Control_c, 0, 64, 65
1, 134367, Control_c, 0, 64, 72
1, 134376, Note_off_c, 0, 73, 63
1, 134382, Control_c, 0, 64, 79
1, 134391, Note_off_c, 0, 85, 64
1, 134397, Control_c, 0, 64, 85
1, 134412, Control_c, 0, 64, 89
1, 134427, Control_c, 0, 64, 93
1, 134442, Control_c, 0, 64, 98
1, 134444, Note_on_c, 0, 84, 77
1, 134457, Control_c, 0, 64, 102
1, 134470, Note_on_c, 0, 72, 55
1, 134472, Control_c, 0, 64, 106
1, 134486, Control_c, 0, 64, 108
1, 134501, Note_off_c, 0, 72, 64
1, 134538, Control_c, 0, 64, 110
1, 134578, Note_off_c, 0, 66, 56
1, 134620, Note_off_c, 0, 58, 60
1, 134627, Note_on_c, 0, 82, 80
1, 134653, Note_on_c, 0, 70, 47
1, 134653, Note_off_c, 0, 61, 34
1, 134679, Note_off_c, 0, 70, 57
1, 134784, Note_off_c, 0, 84, 49
1, 134820, Control_c, 0, 64, 108
1, 134835, Control_c, 0, 64, 105
1, 134849, Control_c, 0, 64, 102
1, 134864, Control_c, 0, 64, 98
1, 134867, Note_on_c, 0, 78, 77
1, 134879, Control_c, 0, 64, 94
1, 134894, Control_c, 0, 64, 88
1, 134909, Control_c, 0, 64, 83
1, 134923, Control_c, 0, 64, 79
1, 134938, Control_c, 0, 64, 74
1, 134953, Control_c, 0, 64, 68
1, 134968, Control_c, 0, 64, 62
1, 134983, Control_c, 0, 64, 53
1, 134984, Note_off_c, 0, 82, 38
1, 134997, Control_c, 0, 64, 39
1, 135012, Control_c, 0, 64, 0
1, 135069, Note_on_c, 0, 66, 45
1, 135083, Note_on_c, 0, 61, 39
1, 135083, Note_on_c, 0, 58, 39
1, 135087, Note_on_c, 0, 53, 35
1, 135101, Control_c, 0, 64, 40
1, 135115, Control_c, 0, 64, 54
1, 135130, Control_c, 0, 64, 62
1, 135145, Control_c, 0, 64, 66
1, 135156, Note_off_c, 0, 58, 56
1, 135157, Note_off_c, 0, 53, 56
1, 135157, Note_off_c, 0, 66, 56
1, 135160, Note_off_c, 0, 61, 56
1, 135160, Control_c, 0, 64, 69
1, 135175, Control_c, 0, 64, 71
1, 135191, Control_c, 0, 64, 74
1, 135206, Control_c, 0, 64, 78
1, 135220, Control_c, 0, 64, 82
1, 135235, Control_c, 0, 64, 84
1, 135250, Control_c, 0, 64, 87
1, 135272, Control_c, 0, 64, 89
1, 135287, Control_c, 0, 64, 90
1, 135302, Control_c, 0, 64, 91
1, 135310, Note_on_c, 0, 66, 52
1, 135315, Note_on_c, 0, 58, 43
1, 135317, Note_on_c, 0, 53, 44
1, 135317, Control_c, 0, 64, 92
1, 135321, Note_on_c, 0, 61, 43
1, 135332, Control_c, 0, 64, 92
1, 135346, Control_c, 0, 64, 93
1, 135361, Control_c, 0, 64, 93
1, 135386, Note_off_c, 0, 61, 55
1, 135387, Note_off_c, 0, 58, 54
1, 135393, Note_off_c, 0, 53, 48
1, 135396, Note_off_c, 0, 66, 52
1, 135578, Note_on_c, 0, 66, 42
1, 135592, Note_on_c, 0, 58, 38
1, 135595, Note_on_c, 0, 53, 36
1, 135605, Note_on_c, 0, 61, 40
1, 135658, Control_c, 0, 64, 93
1, 135732, Control_c, 0, 64, 92
1, 135735, Note_off_c, 0, 66, 57
1, 135746, Control_c, 0, 64, 92
1, 135761, Control_c, 0, 64, 91
1, 135776, Control_c, 0, 64, 91
1, 135790, Control_c, 0, 64, 90
1, 135805, Control_c, 0, 64, 90
1, 135820, Control_c, 0, 64, 89
1, 135835, Control_c, 0, 64, 88
1, 135843, Note_on_c, 0, 77, 65
1, 135850, Control_c, 0, 64, 88
1, 135864, Control_c, 0, 64, 86
1, 135870, Note_off_c, 0, 78, 59
1, 135879, Control_c, 0, 64, 85
1, 135890, Note_on_c, 0, 65, 41
1, 135894, Control_c, 0, 64, 83
1, 135909, Control_c, 0, 64, 82
1, 135924, Control_c, 0, 64, 79
1, 135938, Control_c, 0, 64, 76
1, 135953, Control_c, 0, 64, 72
1, 135968, Control_c, 0, 64, 66
1, 135984, Control_c, 0, 64, 58
1, 135999, Control_c, 0, 64, 45
1, 136021, Control_c, 0, 64, 0
1, 136070, Note_on_c, 0, 75, 70
1, 136095, Control_c, 0, 64, 39
1, 136099, Note_off_c, 0, 77, 60
1, 136110, Control_c, 0, 64, 53
1, 136125, Control_c, 0, 64, 64
1, 136140, Control_c, 0, 64, 67
1, 136155, Control_c, 0, 64, 70
1, 136169, Control_c, 0, 64, 73
1, 136179, Note_off_c, 0, 53, 35
1, 136184, Control_c, 0, 64, 78
1, 136199, Control_c, 0, 64, 81
1, 136200, Note_off_c, 0, 65, 63
1, 136213, Control_c, 0, 64, 84
1, 136228, Control_c, 0, 64, 86
1, 136243, Control_c, 0, 64, 89
1, 136258, Control_c, 0, 64, 90
1, 136273, Control_c, 0, 64, 91
1, 136287, Control_c, 0, 64, 92
1, 136347, Control_c, 0, 64, 92
1, 136349, Note_off_c, 0, 58, 34
1, 136376, Note_off_c, 0, 61, 29
1, 136379, Note_on_c, 0, 73, 60
1, 136451, Control_c, 0, 64, 92
1, 136464, Note_off_c, 0, 75, 63
1, 136525, Control_c, 0, 64, 91
1, 136540, Control_c, 0, 64, 91
1, 136555, Control_c, 0, 64, 89
1, 136569, Control_c, 0, 64, 88
1, 136584, Control_c, 0, 64, 86
1, 136599, Control_c, 0, 64, 83
1, 136613, Control_c, 0, 64, 80
1, 136628, Control_c, 0, 64, 77
1, 136643, Control_c, 0, 64, 74
1, 136658, Control_c, 0, 64, 72
1, 136673, Control_c, 0, 64, 69
1, 136681, Note_on_c, 0, 69, 58
1, 136687, Control_c, 0, 64, 65
1, 136702, Control_c, 0, 64, 62
1, 136717, Control_c, 0, 64, 59
1, 136721, Note_off_c, 0, 73, 60
1, 136732, Control_c, 0, 64, 56
1, 136747, Control_c, 0, 64, 53
1, 136769, Control_c, 0, 64, 48
1, 136785, Control_c, 0, 64, 40
1, 136800, Control_c, 0, 64, 0
1, 136815, Control_c, 0, 67, 45
1, 136829, Control_c, 0, 67, 58
1, 136844, Control_c, 0, 67, 71
1, 136859, Control_c, 0, 67, 85
1, 136874, Control_c, 0, 67, 98
1, 136889, Control_c, 0, 67, 113
1, 136904, Control_c, 0, 67, 127
1, 136961, Note_off_c, 0, 69, 58
1, 136983, Note_on_c, 0, 70, 54
1, 137029, Note_off_c, 0, 70, 63
1, 137059, Note_on_c, 0, 72, 60
1, 137095, Note_off_c, 0, 72, 56
1, 137135, Note_on_c, 0, 70, 58
1, 137166, Note_off_c, 0, 70, 68
1, 137205, Note_on_c, 0, 69, 57
1, 137249, Note_off_c, 0, 69, 59
1, 137262, Note_on_c, 0, 70, 63
1, 137379, Note_off_c, 0, 70, 62
1, 137387, Note_on_c, 0, 73, 61
1, 137388, Note_on_c, 0, 64, 46
1, 137412, Note_on_c, 0, 58, 41
1, 137426, Note_on_c, 0, 54, 36
1, 137674, Note_on_c, 0, 72, 63
1, 137708, Note_on_c, 0, 57, 39
1, 137720, Note_off_c, 0, 58, 51
1, 137736, Note_off_c, 0, 73, 57
1, 137874, Control_c, 0, 64, 37
1, 137889, Control_c, 0, 64, 49
1, 137904, Control_c, 0, 64, 58
1, 137919, Control_c, 0, 64, 60
1, 137933, Control_c, 0, 64, 62
1, 137948, Control_c, 0, 64, 63
1, 137962, Note_on_c, 0, 70, 62
1, 137963, Control_c, 0, 64, 66
1, 137978, Control_c, 0, 64, 69
1, 137992, Control_c, 0, 64, 71
1, 137993, Note_on_c, 0, 58, 47
1, 138007, Control_c, 0, 64, 74
1, 138018, Note_off_c, 0, 64, 57
1, 138020, Note_off_c, 0, 57, 59
1, 138022, Control_c, 0, 64, 76
1, 138027, Note_off_c, 0, 72, 47
1, 138037, Control_c, 0, 64, 79
1, 138052, Note_off_c, 0, 54, 37
1, 138052, Control_c, 0, 64, 82
1, 138066, Control_c, 0, 64, 85
1, 138081, Control_c, 0, 64, 87
1, 138088, Note_off_c, 0, 58, 58
1, 138096, Control_c, 0, 64, 89
1, 138107, Note_off_c, 0, 70, 63
1, 138111, Control_c, 0, 64, 90
1, 138126, Control_c, 0, 64, 91
1, 138141, Control_c, 0, 64, 91
1, 138171, Control_c, 0, 64, 92
1, 138371, Control_c, 0, 64, 91
1, 138388, Note_on_c, 0, 69, 50
1, 138401, Control_c, 0, 64, 91
1, 138415, Control_c, 0, 64, 90
1, 138425, Note_on_c, 0, 53, 28
1, 138427, Note_on_c, 0, 64, 39
1, 138430, Control_c, 0, 64, 87
1, 138433, Note_on_c, 0, 61, 36
1, 138445, Control_c, 0, 64, 81
1, 138460, Control_c, 0, 64, 72
1, 138475, Control_c, 0, 64, 58
1, 138490, Control_c, 0, 64, 40
1, 138505, Control_c, 0, 64, 0
1, 138534, Control_c, 0, 64, 37
1, 138549, Control_c, 0, 64, 49
1, 138564, Control_c, 0, 64, 59
1, 138579, Control_c, 0, 64, 65
1, 138588, Note_off_c, 0, 69, 53
1, 138594, Control_c, 0, 64, 68
1, 138608, Control_c, 0, 64, 72
1, 138610, Note_on_c, 0, 70, 51
1, 138623, Control_c, 0, 64, 77
1, 138638, Control_c, 0, 64, 80
1, 138653, Control_c, 0, 64, 82
1, 138668, Control_c, 0, 64, 84
1, 138682, Control_c, 0, 64, 86
1, 138685, Note_off_c, 0, 70, 62
1, 138697, Control_c, 0, 64, 87
1, 138712, Control_c, 0, 64, 88
1, 138727, Control_c, 0, 64, 88
1, 138737, Note_on_c, 0, 73, 51
1, 138770, Note_off_c, 0, 73, 65
1, 138839, Note_on_c, 0, 76, 50
1, 138873, Note_off_c, 0, 76, 52
1, 138928, Note_on_c, 0, 79, 57
1, 138986, Note_off_c, 0, 79, 61
1, 139027, Note_on_c, 0, 82, 57
1, 139065, Note_off_c, 0, 82, 61
1, 139105, Note_on_c, 0, 81, 59
1, 139146, Note_off_c, 0, 81, 57
1, 139181, Note_on_c, 0, 82, 61
1, 139233, Note_off_c, 0, 82, 64
1, 139263, Note_on_c, 0, 85, 62
1, 139289, Note_off_c, 0, 85, 69
1, 139333, Note_on_c, 0, 88, 69
1, 139385, Control_c, 0, 64, 88
1, 139411, Note_off_c, 0, 88, 41
1, 139419, Note_on_c, 0, 91, 72
1, 139429, Control_c, 0, 64, 87
1, 139444, Control_c, 0, 64, 86
1, 139459, Control_c, 0, 64, 83
1, 139474, Control_c, 0, 64, 77
1, 139481, Note_off_c, 0, 91, 60
1, 139489, Control_c, 0, 64, 66
1, 139494, Note_on_c, 0, 94, 72
1, 139503, Control_c, 0, 64, 58
1, 139518, Control_c, 0, 64, 53
1, 139533, Control_c, 0, 64, 54
1, 139548, Control_c, 0, 64, 57
1, 139553, Note_off_c, 0, 94, 63
1, 139563, Control_c, 0, 64, 59
1, 139572, Note_on_c, 0, 97, 66
1, 139578, Control_c, 0, 64, 62
1, 139593, Control_c, 0, 64, 65
1, 139608, Control_c, 0, 64, 68
1, 139623, Control_c, 0, 64, 71
1, 139635, Note_off_c, 0, 97, 62
1, 139637, Control_c, 0, 64, 74
1, 139645, Note_on_c, 0, 94, 66
1, 139652, Control_c, 0, 64, 77
1, 139667, Control_c, 0, 64, 79
1, 139682, Control_c, 0, 64, 82
1, 139697, Control_c, 0, 64, 84
1, 139702, Note_off_c, 0, 94, 63
1, 139712, Control_c, 0, 64, 86
1, 139715, Note_on_c, 0, 91, 60
1, 139727, Control_c, 0, 64, 87
1, 139740, Note_off_c, 0, 91, 66
1, 139742, Control_c, 0, 64, 87
1, 139784, Note_on_c, 0, 88, 62
1, 139825, Note_off_c, 0, 88, 58
1, 139870, Note_on_c, 0, 85, 66
1, 139942, Note_on_c, 0, 82, 65
1, 139959, Note_off_c, 0, 85, 63
1, 140016, Note_off_c, 0, 64, 38
1, 140021, Note_off_c, 0, 82, 63
1, 140029, Note_on_c, 0, 79, 58
1, 140031, Control_c, 0, 64, 87
1, 140058, Note_off_c, 0, 79, 65
1, 140061, Control_c, 0, 64, 86
1, 140076, Control_c, 0, 64, 86
1, 140091, Control_c, 0, 64, 85
1, 140104, Note_off_c, 0, 53, 34
1, 140105, Control_c, 0, 64, 84
1, 140108, Note_on_c, 0, 76, 60
1, 140115, Note_off_c, 0, 61, 39
1, 140120, Control_c, 0, 64, 82
1, 140135, Control_c, 0, 64, 81
1, 140137, Note_off_c, 0, 76, 65
1, 140150, Control_c, 0, 64, 80
1, 140165, Control_c, 0, 64, 78
1, 140179, Control_c, 0, 64, 76
1, 140194, Control_c, 0, 64, 73
1, 140201, Note_on_c, 0, 73, 61
1, 140209, Control_c, 0, 64, 70
1, 140224, Control_c, 0, 64, 66
1, 140239, Control_c, 0, 64, 63
1, 140253, Control_c, 0, 64, 60
1, 140268, Control_c, 0, 64, 57
1, 140272, Note_off_c, 0, 73, 62
1, 140283, Control_c, 0, 64, 55
1, 140298, Note_on_c, 0, 69, 50
1, 140298, Control_c, 0, 64, 51
1, 140313, Control_c, 0, 64, 42
1, 140327, Control_c, 0, 64, 0
1, 140386, Note_off_c, 0, 69, 58
1, 140414, Note_on_c, 0, 72, 58
1, 140536, Note_off_c, 0, 72, 56
1, 140551, Note_on_c, 0, 70, 53
1, 140810, Note_off_c, 0, 70, 54
1, 140821, Note_on_c, 0, 69, 39
1, 140827, Note_on_c, 0, 65, 33
1, 140854, Note_on_c, 0, 53, 31
1, 140860, Note_on_c, 0, 60, 28
1, 141062, Control_c, 0, 64, 30
1, 141076, Control_c, 0, 64, 41
1, 141091, Control_c, 0, 64, 51
1, 141106, Control_c, 0, 64, 57
1, 141121, Control_c, 0, 64, 61
1, 141136, Control_c, 0, 64, 63
1, 141150, Control_c, 0, 64, 65
1, 141165, Control_c, 0, 64, 67
1, 141180, Control_c, 0, 64, 70
1, 141195, Control_c, 0, 64, 72
1, 141209, Control_c, 0, 64, 75
1, 141224, Control_c, 0, 64, 77
1, 141239, Control_c, 0, 64, 80
1, 141258, Note_off_c, 0, 69, 35
1, 141262, Control_c, 0, 64, 83
1, 141277, Control_c, 0, 64, 85
1, 141281, Note_off_c, 0, 65, 33
1, 141291, Control_c, 0, 64, 87
1, 141306, Control_c, 0, 64, 88
1, 141321, Control_c, 0, 64, 89
1, 141336, Control_c, 0, 64, 89
1, 141350, Note_off_c, 0, 60, 40
1, 141365, Control_c, 0, 64, 90
1, 141457, Note_off_c, 0, 53, 34
1, 141527, Control_c, 0, 64, 89
1, 141527, Control_c, 0, 67, 117
1, 141542, Control_c, 0, 67, 108
1, 141557, Control_c, 0, 67, 98
1, 141572, Control_c, 0, 67, 85
1, 141588, Control_c, 0, 67, 74
1, 141603, Control_c, 0, 64, 89
1, 141603, Control_c, 0, 67, 64
1, 141618, Control_c, 0, 67, 53
1, 141632, Control_c, 0, 64, 88
1, 141632, Control_c, 0, 67, 43
1, 141647, Control_c, 0, 64, 87
1, 141647, Control_c, 0, 67, 0
1, 141662, Control_c, 0, 64, 86
1, 141677, Control_c, 0, 64, 86
1, 141692, Control_c, 0, 64, 85
1, 141706, Control_c, 0, 64, 84
1, 141721, Control_c, 0, 64, 83
1, 141736, Control_c, 0, 64, 82
1, 141751, Control_c, 0, 64, 81
1, 141766, Control_c, 0, 64, 80
1, 141781, Control_c, 0, 64, 78
1, 141796, Control_c, 0, 64, 77
1, 141811, Control_c, 0, 64, 75
1, 141825, Control_c, 0, 64, 73
1, 141840, Control_c, 0, 64, 71
1, 141855, Control_c, 0, 64, 68
1, 141870, Control_c, 0, 64, 66
1, 141885, Control_c, 0, 64, 63
1, 141899, Control_c, 0, 64, 60
1, 141913, Control_c, 0, 64, 58
1, 141928, Control_c, 0, 64, 56
1, 141943, Control_c, 0, 64, 53
1, 141957, Control_c, 0, 64, 50
1, 141972, Control_c, 0, 64, 44
1, 141987, Control_c, 0, 64, 36
1, 142010, Control_c, 0, 64, 0
1, 142195, Note_on_c, 0, 59, 39
1, 142603, Note_on_c, 0, 60, 47
1, 142825, Note_off_c, 0, 59, 33
1, 142883, Note_on_c, 0, 61, 59
1, 143002, Note_off_c, 0, 60, 51
1, 143099, Note_on_c, 0, 62, 64
1, 143142, Note_off_c, 0, 61, 61
1, 143295, Note_on_c, 0, 61, 60
1, 143361, Note_off_c, 0, 62, 55
1, 143477, Note_on_c, 0, 62, 65
1, 143485, Note_off_c, 0, 61, 58
1, 143659, Note_on_c, 0, 63, 63
1, 143686, Note_off_c, 0, 62, 54
1, 143842, Note_off_c, 0, 63, 62
1, 143843, Note_on_c, 0, 64, 59
1, 144016, Note_off_c, 0, 64, 61
1, 144023, Note_on_c, 0, 65, 59
1, 144216, Note_on_c, 0, 66, 61
1, 144273, Note_off_c, 0, 65, 58
1, 144540, Note_on_c, 0, 67, 55
1, 144585, Note_off_c, 0, 66, 55
1, 144929, Note_on_c, 0, 53, 29
1, 144933, Note_on_c, 0, 63, 28
1, 144934, Note_on_c, 0, 60, 25
1, 144940, Note_on_c, 0, 57, 25
1, 144985, Note_off_c, 0, 63, 51
1, 144999, Note_off_c, 0, 60, 49
1, 145003, Note_off_c, 0, 53, 60
1, 145006, Note_off_c, 0, 57, 58
1, 145050, Control_c, 0, 67, 43
1, 145065, Control_c, 0, 67, 66
1, 145080, Control_c, 0, 67, 84
1, 145095, Control_c, 0, 67, 99
1, 145110, Control_c, 0, 67, 113
1, 145124, Control_c, 0, 67, 127
1, 145215, Note_on_c, 0, 63, 39
1, 145219, Note_on_c, 0, 57, 37
1, 145228, Note_on_c, 0, 53, 22
1, 145232, Note_on_c, 0, 60, 15
1, 145262, Note_off_c, 0, 53, 58
1, 145268, Note_off_c, 0, 57, 60
1, 145268, Note_off_c, 0, 63, 58
1, 145282, Note_off_c, 0, 60, 48
1, 145481, Note_on_c, 0, 41, 39
1, 145532, Note_off_c, 0, 41, 60
1, 145701, Note_on_c, 0, 69, 55
1, 145716, Note_off_c, 0, 67, 53
1, 145889, Note_off_c, 0, 69, 62
1, 145902, Note_on_c, 0, 70, 62
1, 146169, Note_on_c, 0, 72, 56
1, 146215, Note_off_c, 0, 70, 58
1, 146479, Note_on_c, 0, 57, 35
1, 146481, Note_on_c, 0, 60, 28
1, 146511, Note_on_c, 0, 65, 3
1, 146518, Poly_aftertouch_c, 0, 63, 127
1, 146535, Note_off_c, 0, 57, 60
1, 146539, Note_off_c, 0, 60, 56
1, 146548, Poly_aftertouch_c, 0, 63, 0
1, 146548, Note_off_c, 0, 65, 47
1, 146681, Note_on_c, 0, 65, 37
1, 146681, Note_on_c, 0, 63, 40
1, 146684, Note_on_c, 0, 60, 47
1, 146697, Note_on_c, 0, 57, 38
1, 146723, Note_off_c, 0, 60, 65
1, 146724, Note_off_c, 0, 63, 56
1, 146729, Note_off_c, 0, 57, 63
1, 146732, Note_off_c, 0, 65, 60
1, 146892, Note_on_c, 0, 41, 54
1, 146938, Note_off_c, 0, 41, 59
1, 147088, Note_on_c, 0, 70, 65
1, 147250, Note_off_c, 0, 72, 56
1, 147281, Note_on_c, 0, 69, 69
1, 147334, Note_off_c, 0, 70, 57
1, 147356, Control_c, 0, 67, 107
1, 147370, Control_c, 0, 67, 80
1, 147385, Control_c, 0, 67, 49
1, 147400, Control_c, 0, 67, 0
1, 147469, Note_on_c, 0, 74, 63
1, 147513, Note_off_c, 0, 69, 60
1, 147647, Note_on_c, 0, 65, 39
1, 147660, Note_on_c, 0, 62, 32
1, 147663, Note_on_c, 0, 58, 34
1, 147664, Note_on_c, 0, 53, 35
1, 147694, Note_off_c, 0, 65, 51
1, 147699, Note_off_c, 0, 58, 51
1, 147700, Note_off_c, 0, 62, 51
1, 147707, Note_off_c, 0, 53, 58
1, 147820, Note_on_c, 0, 58, 40
1, 147821, Note_on_c, 0, 65, 47
1, 147824, Note_on_c, 0, 53, 46
1, 147828, Note_on_c, 0, 62, 38
1, 147846, Note_off_c, 0, 58, 57
1, 147854, Note_off_c, 0, 65, 62
1, 147856, Note_off_c, 0, 53, 64
1, 147865, Note_off_c, 0, 62, 51
1, 148004, Note_on_c, 0, 41, 58
1, 148041, Note_off_c, 0, 41, 64
1, 148178, Note_on_c, 0, 72, 60
1, 148243, Note_off_c, 0, 74, 60
1, 148350, Note_on_c, 0, 70, 72
1, 148422, Note_off_c, 0, 72, 60
1, 148524, Note_on_c, 0, 77, 76
1, 148529, Note_off_c, 0, 70, 59
1, 148697, Control_c, 0, 67, 37
1, 148705, Note_on_c, 0, 65, 48
1, 148707, Note_on_c, 0, 70, 45
1, 148709, Note_on_c, 0, 53, 35
1, 148710, Note_on_c, 0, 58, 38
1, 148711, Control_c, 0, 67, 43
1, 148726, Control_c, 0, 67, 48
1, 148727, Note_on_c, 0, 62, 10
1, 148749, Note_off_c, 0, 58, 55
1, 148749, Control_c, 0, 67, 53
1, 148750, Note_off_c, 0, 65, 54
1, 148750, Note_off_c, 0, 70, 63
1, 148753, Note_off_c, 0, 53, 57
1, 148764, Control_c, 0, 67, 54
1, 148786, Note_off_c, 0, 62, 35
1, 148839, Control_c, 0, 67, 53
1, 148854, Control_c, 0, 67, 53
1, 148872, Note_on_c, 0, 65, 48
1, 148874, Note_on_c, 0, 53, 40
1, 148876, Note_on_c, 0, 58, 30
1, 148878, Note_on_c, 0, 70, 51
1, 148884, Control_c, 0, 67, 52
1, 148885, Note_on_c, 0, 62, 34
1, 148898, Control_c, 0, 67, 51
1, 148903, Note_off_c, 0, 58, 47
1, 148904, Note_off_c, 0, 53, 61
1, 148913, Control_c, 0, 67, 51
1, 148914, Note_off_c, 0, 65, 54
1, 148920, Note_off_c, 0, 62, 33
1, 148928, Control_c, 0, 67, 50
1, 148942, Control_c, 0, 67, 49
1, 148946, Note_off_c, 0, 70, 54
1, 148957, Control_c, 0, 67, 49
1, 148987, Control_c, 0, 67, 48
1, 149016, Control_c, 0, 67, 47
1, 149040, Note_on_c, 0, 41, 60
1, 149046, Control_c, 0, 67, 47
1, 149078, Note_off_c, 0, 41, 64
1, 149149, Control_c, 0, 67, 47
1, 149179, Control_c, 0, 67, 48
1, 149209, Control_c, 0, 67, 49
1, 149214, Note_on_c, 0, 79, 70
1, 149293, Note_off_c, 0, 77, 59
1, 149357, Control_c, 0, 67, 48
1, 149391, Note_on_c, 0, 74, 77
1, 149403, Control_c, 0, 67, 47
1, 149432, Control_c, 0, 67, 47
1, 149446, Note_off_c, 0, 79, 61
1, 149528, Control_c, 0, 67, 46
1, 149589, Note_on_c, 0, 75, 75
1, 149633, Control_c, 0, 67, 47
1, 149635, Note_off_c, 0, 74, 61
1, 149759, Note_on_c, 0, 67, 52
1, 149770, Note_on_c, 0, 53, 33
1, 149776, Note_on_c, 0, 63, 27
1, 149779, Note_on_c, 0, 60, 31
1, 149779, Note_on_c, 0, 70, 46
1, 149810, Note_off_c, 0, 53, 55
1, 149814, Note_off_c, 0, 63, 49
1, 149814, Note_off_c, 0, 67, 53
1, 149815, Note_off_c, 0, 60, 54
1, 149820, Note_off_c, 0, 70, 63
1, 149826, Control_c, 0, 67, 47
1, 149870, Control_c, 0, 67, 48
1, 149900, Control_c, 0, 67, 49
1, 149914, Control_c, 0, 67, 49
1, 149929, Control_c, 0, 67, 50
1, 149935, Note_on_c, 0, 70, 52
1, 149944, Control_c, 0, 67, 51
1, 149945, Note_on_c, 0, 67, 52
1, 149951, Note_on_c, 0, 60, 35
1, 149956, Note_on_c, 0, 63, 34
1, 149959, Note_on_c, 0, 53, 34
1, 149973, Control_c, 0, 67, 51
1, 149985, Note_off_c, 0, 67, 60
1, 149988, Control_c, 0, 67, 52
1, 149996, Note_off_c, 0, 63, 49
1, 149996, Note_off_c, 0, 70, 63
1, 149997, Note_off_c, 0, 60, 60
1, 150000, Note_off_c, 0, 53, 54
1, 150003, Control_c, 0, 67, 53
1, 150018, Control_c, 0, 67, 53
1, 150033, Control_c, 0, 67, 54
1, 150047, Control_c, 0, 67, 54
1, 150077, Control_c, 0, 67, 56
1, 150091, Control_c, 0, 67, 56
1, 150121, Control_c, 0, 67, 58
1, 150136, Control_c, 0, 67, 58
1, 150151, Control_c, 0, 67, 59
1, 150159, Note_on_c, 0, 63, 42
1, 150160, Note_on_c, 0, 53, 39
1, 150160, Note_on_c, 0, 60, 37
1, 150165, Control_c, 0, 67, 60
1, 150180, Control_c, 0, 67, 61
1, 150195, Control_c, 0, 67, 62
1, 150200, Note_off_c, 0, 63, 50
1, 150204, Note_off_c, 0, 53, 60
1, 150204, Note_off_c, 0, 60, 60
1, 150210, Control_c, 0, 67, 72
1, 150225, Control_c, 0, 67, 102
1, 150246, Control_c, 0, 67, 127
1, 150428, Note_on_c, 0, 72, 53
1, 150527, Note_off_c, 0, 75, 63
1, 150559, Control_c, 0, 64, 38
1, 150574, Control_c, 0, 64, 51
1, 150588, Control_c, 0, 64, 59
1, 150603, Control_c, 0, 64, 61
1, 150618, Control_c, 0, 64, 62
1, 150633, Control_c, 0, 64, 64
1, 150648, Control_c, 0, 64, 66
1, 150662, Control_c, 0, 64, 67
1, 150677, Control_c, 0, 64, 68
1, 150692, Control_c, 0, 64, 69
1, 150707, Control_c, 0, 64, 70
1, 150721, Control_c, 0, 64, 72
1, 150736, Control_c, 0, 64, 72
1, 150751, Note_off_c, 0, 72, 52
1, 150751, Control_c, 0, 64, 73
1, 150792, Note_on_c, 0, 77, 63
1, 150810, Control_c, 0, 64, 74
1, 150828, Note_off_c, 0, 77, 61
1, 150899, Control_c, 0, 64, 73
1, 150905, Note_on_c, 0, 77, 59
1, 150944, Control_c, 0, 64, 72
1, 150959, Control_c, 0, 64, 69
1, 150974, Control_c, 0, 64, 64
1, 150995, Control_c, 0, 64, 56
1, 151010, Control_c, 0, 64, 45
1, 151025, Control_c, 0, 64, 31
1, 151040, Control_c, 0, 64, 0
1, 151183, Note_on_c, 0, 69, 41
1, 151186, Note_on_c, 0, 65, 39
1, 151205, Note_on_c, 0, 53, 30
1, 151205, Note_on_c, 0, 63, 24
1, 151210, Note_on_c, 0, 60, 27
1, 151228, Note_off_c, 0, 69, 60
1, 151230, Note_off_c, 0, 65, 48
1, 151246, Note_off_c, 0, 53, 58
1, 151247, Note_off_c, 0, 60, 54
1, 151251, Note_off_c, 0, 63, 48
1, 151402, Note_on_c, 0, 63, 35
1, 151404, Note_on_c, 0, 69, 44
1, 151412, Note_on_c, 0, 65, 26
1, 151425, Note_on_c, 0, 60, 13
1, 151429, Note_on_c, 0, 53, 20
1, 151443, Note_off_c, 0, 69, 60
1, 151451, Note_off_c, 0, 63, 49
1, 151451, Note_off_c, 0, 65, 49
1, 151466, Note_off_c, 0, 60, 46
1, 151469, Note_off_c, 0, 53, 52
1, 151591, Note_on_c, 0, 60, 37
1, 151598, Note_on_c, 0, 63, 40
1, 151600, Note_on_c, 0, 53, 36
1, 151653, Note_off_c, 0, 53, 57
1, 151654, Note_off_c, 0, 63, 57
1, 151657, Note_off_c, 0, 60, 58
1, 151677, Control_c, 0, 67, 100
1, 151692, Control_c, 0, 67, 66
1, 151707, Control_c, 0, 67, 0
1, 151809, Note_on_c, 0, 72, 48
1, 151898, Note_off_c, 0, 77, 43
1, 151990, Note_on_c, 0, 73, 54
1, 152026, Note_off_c, 0, 72, 57
1, 152176, Note_on_c, 0, 74, 66
1, 152196, Note_off_c, 0, 73, 55
1, 152360, Note_on_c, 0, 65, 41
1, 152362, Note_on_c, 0, 70, 43
1, 152366, Note_on_c, 0, 62, 38
1, 152367, Note_on_c, 0, 53, 35
1, 152375, Note_on_c, 0, 58, 37
1, 152402, Note_off_c, 0, 62, 55
1, 152402, Note_off_c, 0, 65, 52
1, 152405, Note_off_c, 0, 53, 58
1, 152405, Note_off_c, 0, 58, 57
1, 152406, Note_off_c, 0, 70, 62
1, 152522, Control_c, 0, 67, 45
1, 152537, Control_c, 0, 67, 64
1, 152545, Note_on_c, 0, 70, 44
1, 152552, Control_c, 0, 67, 84
1, 152557, Note_on_c, 0, 65, 34
1, 152560, Note_on_c, 0, 53, 37
1, 152563, Note_on_c, 0, 58, 25
1, 152566, Note_on_c, 0, 62, 25
1, 152567, Control_c, 0, 67, 105
1, 152582, Control_c, 0, 67, 127
1, 152593, Note_off_c, 0, 53, 57
1, 152598, Note_off_c, 0, 58, 52
1, 152602, Note_off_c, 0, 62, 50
1, 152607, Note_off_c, 0, 70, 55
1, 152608, Note_off_c, 0, 65, 48
1, 152740, Note_on_c, 0, 62, 37
1, 152748, Note_on_c, 0, 58, 35
1, 152763, Note_on_c, 0, 53, 29
1, 152769, Note_off_c, 0, 74, 64
1, 152818, Note_off_c, 0, 53, 58
1, 152827, Note_off_c, 0, 62, 58
1, 152833, Note_off_c, 0, 58, 59
1, 152942, Note_on_c, 0, 73, 61
1, 152972, Note_off_c, 0, 73, 67
1, 153026, Note_on_c, 0, 74, 69
1, 153054, Note_off_c, 0, 74, 66
1, 153122, Note_on_c, 0, 84, 73
1, 153206, Note_off_c, 0, 84, 60
1, 153211, Note_on_c, 0, 82, 68
1, 153254, Note_off_c, 0, 82, 54
1, 153332, Note_on_c, 0, 77, 66
1, 153528, Note_on_c, 0, 74, 51
1, 153536, Note_on_c, 0, 62, 40
1, 153537, Note_on_c, 0, 70, 36
1, 153542, Note_on_c, 0, 65, 37
1, 153543, Note_on_c, 0, 53, 39
1, 153568, Note_off_c, 0, 70, 53
1, 153570, Note_off_c, 0, 74, 62
1, 153578, Note_off_c, 0, 62, 61
1, 153580, Note_off_c, 0, 65, 51
1, 153588, Note_off_c, 0, 53, 62
1, 153731, Note_on_c, 0, 70, 46
1, 153734, Note_on_c, 0, 74, 48
1, 153737, Note_on_c, 0, 65, 41
1, 153747, Note_on_c, 0, 62, 38
1, 153749, Note_on_c, 0, 53, 33
1, 153778, Note_off_c, 0, 65, 50
1, 153780, Note_off_c, 0, 62, 55
1, 153789, Note_off_c, 0, 53, 58
1, 153939, Control_c, 0, 64, 32
1, 153954, Control_c, 0, 64, 37
1, 153969, Control_c, 0, 64, 43
1, 153991, Control_c, 0, 64, 51
1, 153998, Note_on_c, 0, 65, 32
1, 154001, Note_on_c, 0, 53, 29
1, 154006, Control_c, 0, 64, 56
1, 154011, Note_on_c, 0, 62, 27
1, 154020, Control_c, 0, 64, 58
1, 154035, Control_c, 0, 64, 61
1, 154050, Control_c, 0, 64, 63
1, 154052, Note_off_c, 0, 77, 61
1, 154055, Note_off_c, 0, 74, 60
1, 154065, Control_c, 0, 64, 66
1, 154080, Control_c, 0, 64, 68
1, 154086, Note_off_c, 0, 65, 62
1, 154094, Note_off_c, 0, 53, 60
1, 154095, Control_c, 0, 64, 71
1, 154110, Control_c, 0, 64, 72
1, 154113, Note_off_c, 0, 62, 38
1, 154116, Note_off_c, 0, 70, 62
1, 154125, Control_c, 0, 64, 72
1, 154139, Control_c, 0, 64, 73
1, 154169, Control_c, 0, 64, 74
1, 154287, Control_c, 0, 64, 73
1, 154287, Control_c, 0, 67, 117
1, 154302, Control_c, 0, 67, 102
1, 154310, Note_on_c, 0, 77, 67
1, 154317, Control_c, 0, 64, 72
1, 154317, Control_c, 0, 67, 89
1, 154331, Control_c, 0, 64, 70
1, 154331, Control_c, 0, 67, 78
1, 154346, Control_c, 0, 64, 65
1, 154346, Control_c, 0, 67, 67
1, 154357, Note_on_c, 0, 65, 35
1, 154362, Control_c, 0, 64, 59
1, 154362, Control_c, 0, 67, 53
1, 154377, Control_c, 0, 64, 49
1, 154377, Control_c, 0, 67, 0
1, 154392, Control_c, 0, 64, 32
1, 154407, Control_c, 0, 64, 0
1, 154414, Note_off_c, 0, 65, 60
1, 154466, Control_c, 0, 64, 39
1, 154481, Control_c, 0, 64, 52
1, 154496, Control_c, 0, 64, 62
1, 154510, Control_c, 0, 64, 65
1, 154525, Control_c, 0, 64, 67
1, 154527, Note_on_c, 0, 78, 77
1, 154540, Control_c, 0, 64, 69
1, 154551, Note_on_c, 0, 66, 49
1, 154551, Note_off_c, 0, 77, 59
1, 154555, Control_c, 0, 64, 73
1, 154569, Control_c, 0, 64, 76
1, 154584, Control_c, 0, 64, 79
1, 154599, Control_c, 0, 64, 82
1, 154614, Control_c, 0, 64, 84
1, 154628, Control_c, 0, 64, 85
1, 154633, Note_off_c, 0, 66, 59
1, 154643, Control_c, 0, 64, 85
1, 154658, Control_c, 0, 64, 86
1, 154701, Note_off_c, 0, 78, 48
1, 154769, Control_c, 0, 64, 85
1, 154784, Control_c, 0, 64, 85
1, 154799, Control_c, 0, 64, 83
1, 154814, Control_c, 0, 64, 78
1, 154816, Note_on_c, 0, 79, 61
1, 154829, Control_c, 0, 64, 73
1, 154837, Note_on_c, 0, 67, 45
1, 154843, Control_c, 0, 64, 66
1, 154858, Control_c, 0, 64, 56
1, 154873, Control_c, 0, 64, 40
1, 154888, Control_c, 0, 64, 0
1, 155079, Note_on_c, 0, 75, 46
1, 155090, Note_on_c, 0, 72, 35
1, 155111, Note_on_c, 0, 60, 33
1, 155119, Note_on_c, 0, 53, 39
1, 155120, Note_on_c, 0, 57, 37
1, 155126, Note_off_c, 0, 75, 59
1, 155132, Note_off_c, 0, 72, 51
1, 155152, Note_off_c, 0, 60, 53
1, 155156, Note_off_c, 0, 57, 57
1, 155165, Note_off_c, 0, 53, 59
1, 155291, Note_on_c, 0, 75, 54
1, 155301, Note_on_c, 0, 57, 30
1, 155302, Note_on_c, 0, 53, 43
1, 155326, Note_off_c, 0, 57, 50
1, 155334, Note_off_c, 0, 53, 64
1, 155350, Note_off_c, 0, 75, 53
1, 155366, Poly_aftertouch_c, 0, 72, 0
1, 155371, Poly_aftertouch_c, 0, 60, 0
1, 155452, Control_c, 0, 64, 42
1, 155467, Control_c, 0, 64, 57
1, 155470, Note_on_c, 0, 41, 61
1, 155490, Control_c, 0, 64, 64
1, 155505, Control_c, 0, 64, 68
1, 155510, Note_off_c, 0, 41, 65
1, 155519, Control_c, 0, 64, 71
1, 155534, Control_c, 0, 64, 75
1, 155549, Control_c, 0, 64, 78
1, 155564, Control_c, 0, 64, 82
1, 155579, Control_c, 0, 64, 86
1, 155593, Control_c, 0, 64, 90
1, 155598, Note_off_c, 0, 79, 62
1, 155605, Note_off_c, 0, 67, 43
1, 155608, Control_c, 0, 64, 96
1, 155623, Control_c, 0, 64, 108
1, 155638, Control_c, 0, 64, 127
1, 155675, Note_on_c, 0, 81, 75
1, 155699, Note_on_c, 0, 53, 53
1, 155711, Control_c, 0, 64, 96
1, 155726, Control_c, 0, 64, 75
1, 155741, Control_c, 0, 64, 68
1, 155756, Control_c, 0, 64, 68
1, 155771, Control_c, 0, 64, 73
1, 155785, Control_c, 0, 64, 79
1, 155788, Poly_aftertouch_c, 0, 69, 0
1, 155789, Poly_aftertouch_c, 0, 63, 0
1, 155794, Note_off_c, 0, 53, 57
1, 155800, Control_c, 0, 64, 88
1, 155815, Control_c, 0, 64, 101
1, 155830, Control_c, 0, 64, 127
1, 155842, Note_off_c, 0, 81, 63
1, 155847, Note_on_c, 0, 82, 81
1, 155859, Note_on_c, 0, 55, 56
1, 155860, Note_on_c, 0, 63, 39
1, 155874, Note_on_c, 0, 70, 55
1, 155894, Note_off_c, 0, 55, 62
1, 155894, Note_off_c, 0, 63, 58
1, 155897, Note_off_c, 0, 70, 64
1, 156036, Note_off_c, 0, 82, 61
1, 156038, Control_c, 0, 64, 113
1, 156041, Note_on_c, 0, 86, 75
1, 156053, Control_c, 0, 64, 84
1, 156068, Control_c, 0, 64, 66
1, 156069, Note_on_c, 0, 74, 58
1, 156083, Control_c, 0, 64, 48
1, 156090, Note_off_c, 0, 74, 59
1, 156098, Control_c, 0, 64, 0
1, 156110, Note_off_c, 0, 86, 59
1, 156199, Note_on_c, 0, 56, 52
1, 156210, Note_on_c, 0, 65, 46
1, 156235, Note_on_c, 0, 63, 36
1, 156249, Note_off_c, 0, 56, 61
1, 156254, Note_off_c, 0, 65, 61
1, 156262, Note_off_c, 0, 63, 48
1, 156371, Note_on_c, 0, 63, 43
1, 156378, Note_on_c, 0, 65, 37
1, 156387, Note_on_c, 0, 57, 56
1, 156390, Note_on_c, 0, 84, 67
1, 156405, Note_off_c, 0, 63, 65
1, 156406, Note_on_c, 0, 72, 53
1, 156408, Note_off_c, 0, 65, 49
1, 156417, Note_off_c, 0, 57, 66
1, 156505, Control_c, 0, 64, 39
1, 156520, Control_c, 0, 64, 52
1, 156534, Control_c, 0, 64, 60
1, 156549, Control_c, 0, 64, 66
1, 156557, Note_on_c, 0, 41, 65
1, 156564, Control_c, 0, 64, 70
1, 156575, Note_off_c, 0, 72, 34
1, 156579, Control_c, 0, 64, 75
1, 156583, Note_off_c, 0, 41, 67
1, 156594, Control_c, 0, 64, 79
1, 156608, Control_c, 0, 64, 83
1, 156623, Control_c, 0, 64, 87
1, 156638, Control_c, 0, 64, 91
1, 156653, Control_c, 0, 64, 95
1, 156667, Control_c, 0, 64, 99
1, 156682, Control_c, 0, 64, 103
1, 156697, Control_c, 0, 64, 108
1, 156698, Note_on_c, 0, 86, 79
1, 156705, Note_off_c, 0, 84, 62
1, 156712, Control_c, 0, 64, 114
1, 156727, Control_c, 0, 64, 122
1, 156732, Note_on_c, 0, 74, 52
1, 156733, Note_on_c, 0, 59, 60
1, 156740, Note_on_c, 0, 65, 52
1, 156742, Control_c, 0, 64, 127
1, 156755, Note_off_c, 0, 74, 58
1, 156775, Note_off_c, 0, 65, 63
1, 156804, Note_off_c, 0, 59, 63
1, 156833, Note_off_c, 0, 86, 62
1, 156867, Note_on_c, 0, 87, 82
1, 156870, Note_on_c, 0, 65, 57
1, 156876, Note_on_c, 0, 60, 59
1, 156881, Note_on_c, 0, 75, 67
1, 156897, Note_off_c, 0, 65, 67
1, 156906, Note_off_c, 0, 60, 67
1, 156906, Note_off_c, 0, 75, 70
1, 156964, Control_c, 0, 64, 111
1, 156986, Control_c, 0, 64, 94
1, 157001, Control_c, 0, 64, 78
1, 157016, Control_c, 0, 64, 64
1, 157019, Note_off_c, 0, 87, 62
1, 157031, Control_c, 0, 64, 46
1, 157045, Note_on_c, 0, 91, 81
1, 157046, Control_c, 0, 64, 0
1, 157085, Note_on_c, 0, 79, 25
1, 157093, Note_off_c, 0, 91, 66
1, 157121, Note_off_c, 0, 79, 50
1, 157204, Note_on_c, 0, 64, 50
1, 157210, Note_on_c, 0, 61, 60
1, 157215, Note_on_c, 0, 70, 48
1, 157238, Note_off_c, 0, 70, 60
1, 157240, Note_off_c, 0, 64, 65
1, 157243, Note_off_c, 0, 61, 64
1, 157356, Note_on_c, 0, 70, 46
1, 157358, Note_on_c, 0, 62, 64
1, 157367, Note_on_c, 0, 89, 77
1, 157377, Note_on_c, 0, 77, 64
1, 157382, Note_off_c, 0, 70, 62
1, 157386, Note_off_c, 0, 62, 65
1, 157401, Note_on_c, 0, 65, 6
1, 157457, Note_off_c, 0, 65, 25
1, 157461, Control_c, 0, 64, 34
1, 157475, Control_c, 0, 64, 46
1, 157490, Control_c, 0, 64, 57
1, 157505, Control_c, 0, 64, 63
1, 157516, Note_on_c, 0, 53, 66
1, 157520, Control_c, 0, 64, 66
1, 157531, Note_off_c, 0, 77, 47
1, 157535, Control_c, 0, 64, 69
1, 157547, Note_off_c, 0, 53, 65
1, 157551, Control_c, 0, 64, 73
1, 157566, Control_c, 0, 64, 77
1, 157580, Control_c, 0, 64, 82
1, 157595, Control_c, 0, 64, 86
1, 157610, Control_c, 0, 64, 91
1, 157625, Control_c, 0, 64, 99
1, 157640, Control_c, 0, 64, 109
1, 157654, Control_c, 0, 64, 127
1, 157666, Note_on_c, 0, 91, 81
1, 157679, Note_on_c, 0, 70, 63
1, 157687, Note_off_c, 0, 89, 56
1, 157687, Note_on_c, 0, 65, 47
1, 157705, Note_on_c, 0, 79, 39
1, 157707, Note_off_c, 0, 70, 67
1, 157723, Note_on_c, 0, 62, 27
1, 157734, Note_off_c, 0, 65, 60
1, 157740, Note_off_c, 0, 79, 56
1, 157769, Note_off_c, 0, 62, 53
1, 157833, Note_off_c, 0, 91, 62
1, 157837, Note_on_c, 0, 93, 90
1, 157856, Note_on_c, 0, 62, 60
1, 157866, Note_on_c, 0, 81, 53
1, 157880, Note_on_c, 0, 65, 12
1, 157887, Note_off_c, 0, 62, 65
1, 157887, Note_off_c, 0, 81, 59
1, 157888, Note_on_c, 0, 70, 21
1, 157919, Note_off_c, 0, 65, 52
1, 157924, Note_off_c, 0, 70, 52
1, 158003, Control_c, 0, 64, 105
1, 158018, Control_c, 0, 64, 93
1, 158033, Control_c, 0, 64, 81
1, 158047, Control_c, 0, 64, 69
1, 158054, Note_on_c, 0, 96, 71
1, 158062, Note_off_c, 0, 93, 56
1, 158062, Control_c, 0, 64, 58
1, 158077, Control_c, 0, 64, 43
1, 158085, Note_on_c, 0, 84, 42
1, 158092, Control_c, 0, 64, 0
1, 158110, Note_off_c, 0, 96, 65
1, 158112, Note_off_c, 0, 84, 51
1, 158230, Note_on_c, 0, 64, 51
1, 158252, Note_on_c, 0, 73, 24
1, 158270, Note_off_c, 0, 64, 64
1, 158289, Note_off_c, 0, 73, 48
1, 158311, Poly_aftertouch_c, 0, 67, 0
1, 158439, Note_on_c, 0, 94, 61
1, 158463, Control_c, 0, 64, 36
1, 158464, Note_on_c, 0, 65, 48
1, 158464, Note_on_c, 0, 82, 31
1, 158468, Note_on_c, 0, 74, 35
1, 158485, Control_c, 0, 64, 55
1, 158492, Note_on_c, 0, 70, 24
1, 158500, Control_c, 0, 64, 63
1, 158507, Note_off_c, 0, 65, 64
1, 158507, Note_off_c, 0, 74, 44
1, 158515, Control_c, 0, 64, 68
1, 158522, Note_off_c, 0, 70, 44
1, 158529, Control_c, 0, 64, 72
1, 158544, Control_c, 0, 64, 76
1, 158559, Control_c, 0, 64, 80
1, 158559, Control_c, 0, 67, 48
1, 158566, Note_off_c, 0, 94, 62
1, 158574, Control_c, 0, 64, 84
1, 158574, Control_c, 0, 67, 83
1, 158589, Control_c, 0, 64, 90
1, 158589, Control_c, 0, 67, 115
1, 158603, Control_c, 0, 64, 94
1, 158603, Control_c, 0, 67, 127
1, 158618, Control_c, 0, 64, 99
1, 158633, Control_c, 0, 64, 105
1, 158642, Note_off_c, 0, 82, 63
1, 158648, Control_c, 0, 64, 111
1, 158662, Control_c, 0, 64, 120
1, 158677, Control_c, 0, 64, 127
1, 158861, Note_on_c, 0, 89, 70
1, 158882, Note_on_c, 0, 77, 60
1, 158894, Note_on_c, 0, 70, 29
1, 158897, Note_on_c, 0, 65, 38
1, 158928, Note_off_c, 0, 70, 54
1, 158939, Note_off_c, 0, 77, 62
1, 158939, Note_off_c, 0, 89, 58
1, 158940, Note_on_c, 0, 62, 3
1, 158945, Note_off_c, 0, 65, 47
1, 158981, Note_off_c, 0, 62, 50
1, 159049, Note_on_c, 0, 86, 79
1, 159063, Note_on_c, 0, 65, 41
1, 159064, Note_on_c, 0, 74, 70
1, 159075, Note_on_c, 0, 70, 31
1, 159082, Note_on_c, 0, 62, 50
1, 159091, Note_off_c, 0, 65, 57
1, 159097, Note_off_c, 0, 74, 60
1, 159111, Note_off_c, 0, 70, 53
1, 159121, Note_off_c, 0, 62, 60
1, 159122, Note_off_c, 0, 86, 61
1, 159258, Note_on_c, 0, 87, 76
1, 159280, Note_on_c, 0, 75, 62
1, 159308, Control_c, 0, 64, 115
1, 159323, Control_c, 0, 64, 104
1, 159338, Control_c, 0, 64, 91
1, 159338, Control_c, 0, 67, 116
1, 159353, Control_c, 0, 64, 76
1, 159353, Control_c, 0, 67, 100
1, 159368, Control_c, 0, 64, 61
1, 159368, Control_c, 0, 67, 79
1, 159383, Control_c, 0, 64, 39
1, 159383, Control_c, 0, 67, 54
1, 159398, Control_c, 0, 64, 0
1, 159398, Control_c, 0, 67, 0
1, 159413, Control_c, 0, 64, 28
1, 159428, Control_c, 0, 64, 43
1, 159431, Note_on_c, 0, 60, 48
1, 159437, Note_on_c, 0, 66, 49
1, 159442, Control_c, 0, 64, 55
1, 159457, Control_c, 0, 64, 62
1, 159457, Note_on_c, 0, 70, 22
1, 159472, Control_c, 0, 64, 66
1, 159478, Note_off_c, 0, 66, 62
1, 159479, Note_off_c, 0, 60, 58
1, 159486, Control_c, 0, 64, 68
1, 159496, Note_off_c, 0, 70, 43
1, 159501, Control_c, 0, 64, 72
1, 159516, Control_c, 0, 64, 74
1, 159531, Control_c, 0, 64, 77
1, 159546, Control_c, 0, 64, 80
1, 159560, Control_c, 0, 64, 82
1, 159575, Control_c, 0, 64, 81
1, 159590, Control_c, 0, 64, 79
1, 159595, Note_on_c, 0, 60, 58
1, 159598, Note_on_c, 0, 70, 39
1, 159605, Control_c, 0, 64, 70
1, 159612, Note_on_c, 0, 66, 35
1, 159620, Control_c, 0, 64, 65
1, 159624, Note_off_c, 0, 70, 50
1, 159627, Note_off_c, 0, 60, 66
1, 159634, Control_c, 0, 64, 64
1, 159641, Note_off_c, 0, 66, 49
1, 159649, Control_c, 0, 64, 67
1, 159664, Control_c, 0, 64, 70
1, 159678, Control_c, 0, 64, 76
1, 159693, Control_c, 0, 64, 83
1, 159708, Control_c, 0, 64, 94
1, 159723, Control_c, 0, 64, 97
1, 159769, Note_on_c, 0, 53, 61
1, 159790, Note_off_c, 0, 75, 54
1, 159803, Note_off_c, 0, 53, 63
1, 159863, Note_off_c, 0, 87, 64
1, 159901, Control_c, 0, 64, 99
1, 159946, Control_c, 0, 64, 87
1, 159958, Note_on_c, 0, 84, 75
1, 159961, Control_c, 0, 64, 71
1, 159983, Control_c, 0, 64, 57
1, 159987, Note_on_c, 0, 66, 47
1, 159993, Note_on_c, 0, 70, 34
1, 159997, Note_on_c, 0, 63, 47
1, 159998, Control_c, 0, 64, 50
1, 160004, Note_on_c, 0, 72, 14
1, 160013, Control_c, 0, 64, 54
1, 160028, Control_c, 0, 64, 60
1, 160043, Control_c, 0, 64, 64
1, 160049, Note_off_c, 0, 72, 28
1, 160050, Note_off_c, 0, 84, 61
1, 160057, Control_c, 0, 64, 68
1, 160060, Note_off_c, 0, 70, 55
1, 160067, Note_off_c, 0, 63, 52
1, 160072, Note_off_c, 0, 66, 61
1, 160072, Control_c, 0, 64, 72
1, 160087, Control_c, 0, 64, 75
1, 160101, Control_c, 0, 64, 78
1, 160116, Control_c, 0, 64, 81
1, 160131, Control_c, 0, 64, 82
1, 160146, Control_c, 0, 64, 82
1, 160161, Control_c, 0, 64, 83
1, 160218, Note_on_c, 0, 63, 41
1, 160221, Note_on_c, 0, 70, 46
1, 160229, Note_on_c, 0, 60, 47
1, 160283, Note_on_c, 0, 90, 76
1, 160285, Note_off_c, 0, 70, 54
1, 160293, Note_on_c, 0, 78, 69
1, 160298, Note_off_c, 0, 63, 44
1, 160308, Note_off_c, 0, 90, 65
1, 160313, Note_off_c, 0, 60, 51
1, 160318, Note_off_c, 0, 78, 66
1, 160369, Control_c, 0, 64, 82
1, 160383, Control_c, 0, 64, 82
1, 160388, Note_on_c, 0, 90, 72
1, 160397, Note_on_c, 0, 78, 63
1, 160398, Control_c, 0, 64, 81
1, 160413, Control_c, 0, 64, 78
1, 160427, Control_c, 0, 64, 74
1, 160442, Control_c, 0, 64, 69
1, 160457, Control_c, 0, 64, 63
1, 160472, Control_c, 0, 64, 55
1, 160487, Control_c, 0, 64, 43
1, 160501, Control_c, 0, 64, 0
1, 160561, Control_c, 0, 64, 36
1, 160575, Control_c, 0, 64, 54
1, 160576, Note_off_c, 0, 90, 61
1, 160590, Control_c, 0, 64, 63
1, 160595, Note_on_c, 0, 60, 49
1, 160601, Note_on_c, 0, 70, 43
1, 160605, Control_c, 0, 64, 67
1, 160611, Note_on_c, 0, 63, 39
1, 160620, Control_c, 0, 64, 71
1, 160634, Control_c, 0, 64, 73
1, 160649, Control_c, 0, 64, 76
1, 160651, Note_off_c, 0, 63, 55
1, 160664, Control_c, 0, 64, 78
1, 160674, Note_off_c, 0, 60, 55
1, 160679, Control_c, 0, 64, 81
1, 160683, Note_off_c, 0, 78, 28
1, 160686, Note_off_c, 0, 70, 39
1, 160693, Control_c, 0, 64, 84
1, 160708, Control_c, 0, 64, 86
1, 160730, Control_c, 0, 64, 88
1, 160745, Control_c, 0, 64, 89
1, 160761, Control_c, 0, 64, 90
1, 160776, Control_c, 0, 64, 91
1, 160791, Control_c, 0, 64, 92
1, 160794, Note_on_c, 0, 89, 60
1, 160805, Control_c, 0, 64, 93
1, 160808, Note_on_c, 0, 60, 50
1, 160809, Note_on_c, 0, 63, 24
1, 160817, Note_on_c, 0, 77, 58
1, 160820, Control_c, 0, 64, 93
1, 160832, Note_off_c, 0, 60, 64
1, 160835, Control_c, 0, 64, 94
1, 160848, Note_off_c, 0, 63, 40
1, 160864, Control_c, 0, 64, 94
1, 160906, Note_off_c, 0, 89, 61
1, 160909, Control_c, 0, 64, 95
1, 160984, Control_c, 0, 64, 94
1, 160998, Control_c, 0, 64, 89
1, 161013, Control_c, 0, 64, 77
1, 161028, Control_c, 0, 64, 62
1, 161036, Note_on_c, 0, 53, 52
1, 161042, Control_c, 0, 64, 51
1, 161057, Control_c, 0, 64, 52
1, 161072, Control_c, 0, 64, 57
1, 161087, Control_c, 0, 64, 62
1, 161102, Control_c, 0, 64, 67
1, 161117, Control_c, 0, 64, 73
1, 161120, Note_off_c, 0, 77, 61
1, 161131, Control_c, 0, 64, 80
1, 161132, Note_off_c, 0, 53, 62
1, 161146, Control_c, 0, 64, 83
1, 161161, Control_c, 0, 64, 84
1, 161176, Control_c, 0, 64, 87
1, 161191, Control_c, 0, 64, 89
1, 161205, Control_c, 0, 64, 90
1, 161220, Control_c, 0, 64, 91
1, 161235, Control_c, 0, 64, 91
1, 161249, Control_c, 0, 64, 92
1, 161256, Note_on_c, 0, 84, 68
1, 161279, Note_on_c, 0, 67, 49
1, 161293, Note_on_c, 0, 72, 51
1, 161294, Control_c, 0, 64, 91
1, 161297, Note_on_c, 0, 58, 50
1, 161309, Control_c, 0, 64, 88
1, 161321, Note_on_c, 0, 63, 40
1, 161324, Control_c, 0, 64, 79
1, 161338, Note_off_c, 0, 72, 57
1, 161338, Control_c, 0, 64, 68
1, 161353, Control_c, 0, 64, 65
1, 161367, Note_off_c, 0, 67, 58
1, 161368, Control_c, 0, 64, 67
1, 161380, Note_off_c, 0, 63, 45
1, 161383, Control_c, 0, 64, 71
1, 161398, Control_c, 0, 64, 76
1, 161413, Control_c, 0, 64, 82
1, 161416, Note_off_c, 0, 58, 58
1, 161428, Control_c, 0, 64, 88
1, 161442, Control_c, 0, 64, 95
1, 161457, Control_c, 0, 64, 99
1, 161479, Control_c, 0, 64, 102
1, 161502, Note_on_c, 0, 85, 74
1, 161514, Note_off_c, 0, 84, 61
1, 161520, Note_on_c, 0, 57, 55
1, 161530, Note_on_c, 0, 73, 49
1, 161535, Note_on_c, 0, 65, 24
1, 161538, Control_c, 0, 64, 104
1, 161544, Note_on_c, 0, 63, 20
1, 161565, Note_off_c, 0, 57, 62
1, 161572, Note_off_c, 0, 65, 52
1, 161583, Note_off_c, 0, 63, 41
1, 161640, Note_off_c, 0, 73, 46
1, 161672, Control_c, 0, 64, 102
1, 161687, Control_c, 0, 64, 100
1, 161702, Control_c, 0, 64, 97
1, 161717, Control_c, 0, 64, 93
1, 161732, Control_c, 0, 64, 88
1, 161747, Control_c, 0, 64, 82
1, 161762, Control_c, 0, 64, 77
1, 161777, Control_c, 0, 64, 70
1, 161792, Control_c, 0, 64, 62
1, 161806, Control_c, 0, 64, 47
1, 161815, Note_on_c, 0, 46, 42
1, 161821, Control_c, 0, 64, 0
1, 161845, Note_on_c, 0, 86, 66
1, 161873, Note_off_c, 0, 85, 57
1, 161878, Note_on_c, 0, 74, 52
1, 161895, Control_c, 0, 64, 49
1, 161910, Control_c, 0, 64, 62
1, 161925, Control_c, 0, 64, 69
1, 161938, Note_off_c, 0, 46, 62
1, 161940, Control_c, 0, 64, 77
1, 161954, Control_c, 0, 64, 89
1, 161964, Note_off_c, 0, 74, 56
1, 161969, Control_c, 0, 64, 102
1, 161984, Control_c, 0, 64, 127
1, 162057, Note_off_c, 0, 86, 64
1, 162149, Note_on_c, 0, 65, 46
1, 162171, Note_on_c, 0, 58, 46
1, 162175, Note_on_c, 0, 62, 31
1, 162245, Note_on_c, 0, 86, 64
1, 162278, Note_off_c, 0, 86, 64
1, 162318, Note_on_c, 0, 87, 66
1, 162320, Note_on_c, 0, 66, 61
1, 162373, Note_on_c, 0, 86, 74
1, 162380, Note_off_c, 0, 87, 58
1, 162386, Note_off_c, 0, 65, 54
1, 162418, Note_off_c, 0, 86, 64
1, 162429, Note_on_c, 0, 85, 76
1, 162487, Note_off_c, 0, 58, 38
1, 162491, Note_on_c, 0, 86, 78
1, 162499, Note_off_c, 0, 85, 62
1, 162503, Note_off_c, 0, 62, 31
1, 162565, Note_on_c, 0, 91, 81
1, 162580, Note_off_c, 0, 66, 59
1, 162585, Control_c, 0, 64, 119
1, 162588, Note_on_c, 0, 79, 55
1, 162590, Note_off_c, 0, 86, 58
1, 162600, Control_c, 0, 64, 89
1, 162615, Control_c, 0, 64, 71
1, 162629, Control_c, 0, 64, 53
1, 162644, Control_c, 0, 64, 0
1, 162689, Control_c, 0, 64, 37
1, 162704, Control_c, 0, 64, 55
1, 162719, Control_c, 0, 64, 65
1, 162733, Control_c, 0, 64, 72
1, 162748, Control_c, 0, 64, 82
1, 162754, Note_on_c, 0, 62, 49
1, 162755, Note_on_c, 0, 67, 58
1, 162760, Note_on_c, 0, 58, 52
1, 162763, Control_c, 0, 64, 101
1, 162778, Control_c, 0, 64, 127
1, 162787, Note_off_c, 0, 67, 64
1, 162792, Note_off_c, 0, 58, 58
1, 162801, Note_off_c, 0, 62, 59
1, 162818, Note_off_c, 0, 79, 61
1, 162891, Note_on_c, 0, 58, 63
1, 162925, Note_on_c, 0, 89, 76
1, 162925, Note_off_c, 0, 58, 64
1, 162948, Note_on_c, 0, 77, 63
1, 162951, Note_off_c, 0, 91, 61
1, 163032, Note_off_c, 0, 77, 56
1, 163075, Note_on_c, 0, 49, 67
1, 163082, Control_c, 0, 64, 112
1, 163085, Note_off_c, 0, 89, 60
1, 163096, Control_c, 0, 64, 70
1, 163111, Control_c, 0, 64, 41
1, 163126, Control_c, 0, 64, 0
1, 163141, Control_c, 0, 64, 30
1, 163157, Control_c, 0, 64, 50
1, 163172, Control_c, 0, 64, 63
1, 163172, Note_off_c, 0, 49, 62
1, 163181, Note_on_c, 0, 89, 80
1, 163187, Control_c, 0, 64, 75
1, 163201, Control_c, 0, 64, 89
1, 163211, Note_on_c, 0, 77, 52
1, 163216, Control_c, 0, 64, 103
1, 163231, Control_c, 0, 64, 122
1, 163245, Control_c, 0, 64, 127
1, 163315, Note_off_c, 0, 77, 40
1, 163325, Note_on_c, 0, 67, 66
1, 163347, Note_on_c, 0, 57, 51
1, 163368, Note_on_c, 0, 61, 50
1, 163448, Note_off_c, 0, 57, 57
1, 163456, Note_off_c, 0, 89, 57
1, 163473, Note_on_c, 0, 88, 80
1, 163476, Note_off_c, 0, 67, 64
1, 163491, Note_on_c, 0, 76, 51
1, 163500, Note_on_c, 0, 68, 65
1, 163514, Note_off_c, 0, 76, 59
1, 163517, Note_off_c, 0, 61, 61
1, 163551, Note_off_c, 0, 68, 60
1, 163649, Note_on_c, 0, 93, 85
1, 163652, Note_off_c, 0, 88, 63
1, 163679, Note_on_c, 0, 81, 59
1, 163690, Control_c, 0, 64, 112
1, 163705, Control_c, 0, 64, 74
1, 163708, Note_off_c, 0, 81, 66
1, 163726, Control_c, 0, 64, 53
1, 163741, Control_c, 0, 64, 33
1, 163756, Control_c, 0, 64, 38
1, 163771, Control_c, 0, 64, 56
1, 163786, Control_c, 0, 64, 70
1, 163801, Control_c, 0, 64, 97
1, 163807, Note_on_c, 0, 61, 56
1, 163807, Note_on_c, 0, 92, 87
1, 163808, Note_on_c, 0, 69, 55
1, 163816, Control_c, 0, 64, 127
1, 163820, Note_on_c, 0, 64, 54
1, 163824, Note_on_c, 0, 80, 72
1, 163851, Note_off_c, 0, 93, 60
1, 163866, Note_off_c, 0, 61, 61
1, 163870, Note_off_c, 0, 69, 56
1, 163880, Note_off_c, 0, 64, 57
1, 163896, Note_off_c, 0, 80, 61
1, 163933, Note_off_c, 0, 92, 64
1, 163965, Note_on_c, 0, 91, 84
1, 163970, Note_on_c, 0, 61, 43
1, 163980, Note_on_c, 0, 79, 65
1, 164001, Note_off_c, 0, 61, 51
1, 164060, Note_off_c, 0, 79, 54
1, 164113, Control_c, 0, 64, 80
1, 164127, Note_on_c, 0, 50, 70
1, 164128, Control_c, 0, 64, 54
1, 164142, Control_c, 0, 64, 0
1, 164157, Control_c, 0, 64, 30
1, 164172, Control_c, 0, 64, 52
1, 164183, Note_off_c, 0, 50, 64
1, 164187, Control_c, 0, 64, 66
1, 164190, Note_on_c, 0, 89, 76
1, 164201, Note_on_c, 0, 77, 68
1, 164202, Control_c, 0, 64, 85
1, 164214, Note_off_c, 0, 91, 64
1, 164217, Control_c, 0, 64, 127
1, 164241, Note_off_c, 0, 77, 56
1, 164301, Note_off_c, 0, 89, 62
1, 164337, Note_on_c, 0, 68, 70
1, 164343, Note_on_c, 0, 65, 62
1, 164348, Note_on_c, 0, 62, 60
1, 164409, Note_on_c, 0, 89, 74
1, 164444, Note_off_c, 0, 89, 62
1, 164471, Note_on_c, 0, 69, 74
1, 164479, Note_on_c, 0, 91, 66
1, 164535, Note_off_c, 0, 91, 67
1, 164536, Note_on_c, 0, 89, 70
1, 164561, Note_off_c, 0, 89, 69
1, 164564, Note_on_c, 0, 88, 79
1, 164588, Note_off_c, 0, 65, 57
1, 164600, Note_off_c, 0, 88, 51
1, 164622, Note_on_c, 0, 89, 70
1, 164647, Note_off_c, 0, 69, 59
1, 164649, Note_off_c, 0, 68, 59
1, 164656, Note_off_c, 0, 62, 52
1, 164667, Note_off_c, 0, 89, 62
1, 164686, Note_on_c, 0, 94, 92
1, 164692, Note_on_c, 0, 82, 81
1, 164698, Control_c, 0, 64, 89
1, 164713, Control_c, 0, 64, 54
1, 164728, Control_c, 0, 64, 0
1, 164743, Control_c, 0, 64, 33
1, 164758, Control_c, 0, 64, 56
1, 164772, Control_c, 0, 64, 71
1, 164787, Control_c, 0, 64, 98
1, 164802, Control_c, 0, 64, 127
1, 164837, Note_on_c, 0, 62, 71
1, 164841, Note_on_c, 0, 70, 72
1, 164851, Note_on_c, 0, 65, 60
1, 164872, Note_off_c, 0, 82, 62
1, 164879, Note_off_c, 0, 70, 57
1, 164880, Note_off_c, 0, 94, 54
1, 164892, Note_off_c, 0, 65, 58
1, 164895, Note_off_c, 0, 62, 63
1, 164975, Note_on_c, 0, 62, 72
1, 164978, Note_on_c, 0, 93, 95
1, 164990, Note_on_c, 0, 81, 82
1, 164997, Note_off_c, 0, 62, 70
1, 165066, Poly_aftertouch_c, 0, 70, 0
1, 165073, Note_off_c, 0, 81, 43
1, 165109, Note_off_c, 0, 93, 61
1, 165127, Control_c, 0, 64, 104
1, 165140, Note_on_c, 0, 52, 72
1, 165142, Control_c, 0, 64, 62
1, 165157, Control_c, 0, 64, 0
1, 165175, Note_on_c, 0, 93, 95
1, 165187, Control_c, 0, 64, 43
1, 165200, Note_on_c, 0, 81, 65
1, 165202, Control_c, 0, 64, 62
1, 165206, Note_off_c, 0, 52, 63
1, 165223, Control_c, 0, 64, 77
1, 165238, Control_c, 0, 64, 127
1, 165286, Note_off_c, 0, 81, 54
1, 165344, Note_on_c, 0, 70, 70
1, 165369, Note_on_c, 0, 60, 62
1, 165370, Note_on_c, 0, 67, 55
1, 165415, Note_off_c, 0, 70, 63
1, 165437, Note_off_c, 0, 93, 63
1, 165491, Note_on_c, 0, 71, 72
1, 165500, Note_on_c, 0, 91, 90
1, 165517, Note_on_c, 0, 79, 57
1, 165541, Note_off_c, 0, 79, 64
1, 165544, Note_off_c, 0, 60, 35
1, 165558, Note_off_c, 0, 71, 58
1, 165654, Note_off_c, 0, 67, 28
1, 165701, Note_on_c, 0, 96, 89
1, 165732, Note_on_c, 0, 84, 71
1, 165736, Note_off_c, 0, 91, 63
1, 165743, Control_c, 0, 64, 76
1, 165758, Control_c, 0, 64, 53
1, 165773, Control_c, 0, 64, 29
1, 165787, Control_c, 0, 64, 39
1, 165791, Note_off_c, 0, 84, 63
1, 165802, Control_c, 0, 64, 56
1, 165817, Control_c, 0, 64, 67
1, 165832, Control_c, 0, 64, 86
1, 165846, Control_c, 0, 64, 127
1, 165881, Note_on_c, 0, 95, 89
1, 165893, Note_on_c, 0, 72, 60
1, 165899, Note_on_c, 0, 67, 55
1, 165902, Note_on_c, 0, 64, 54
1, 165906, Note_on_c, 0, 83, 62
1, 165923, Note_off_c, 0, 83, 64
1, 165952, Note_off_c, 0, 72, 54
1, 165976, Note_off_c, 0, 96, 58
1, 165991, Note_off_c, 0, 64, 58
1, 165991, Note_off_c, 0, 67, 45
1, 166063, Note_on_c, 0, 94, 93
1, 166066, Note_on_c, 0, 64, 59
1, 166089, Note_off_c, 0, 95, 61
1, 166093, Note_on_c, 0, 82, 72
1, 166102, Note_off_c, 0, 64, 66
1, 166133, Poly_aftertouch_c, 0, 72, 0
1, 166156, Note_off_c, 0, 82, 58
1, 166158, Poly_aftertouch_c, 0, 72, 0
1, 166192, Note_off_c, 0, 94, 62
1, 166284, Control_c, 0, 64, 82
1, 166291, Note_on_c, 0, 53, 72
1, 166299, Control_c, 0, 64, 56
1, 166307, Note_on_c, 0, 94, 93
1, 166313, Control_c, 0, 64, 0
1, 166328, Control_c, 0, 64, 30
1, 166332, Note_on_c, 0, 82, 72
1, 166343, Control_c, 0, 64, 56
1, 166358, Control_c, 0, 64, 69
1, 166373, Control_c, 0, 64, 88
1, 166388, Control_c, 0, 64, 127
1, 166402, Note_off_c, 0, 53, 63
1, 166534, Note_on_c, 0, 70, 81
1, 166561, Note_on_c, 0, 60, 61
1, 166579, Note_on_c, 0, 65, 43
1, 166627, Note_off_c, 0, 82, 54
1, 166667, Note_off_c, 0, 70, 59
1, 166668, Note_off_c, 0, 94, 59
1, 166686, Note_off_c, 0, 60, 58
1, 166728, Note_off_c, 0, 65, 33
1, 166788, Note_on_c, 0, 92, 98
1, 166796, Note_on_c, 0, 80, 89
1, 166815, Note_on_c, 0, 68, 58
1, 166817, Note_on_c, 0, 60, 60
1, 166821, Note_on_c, 0, 65, 38
1, 166846, Note_off_c, 0, 68, 65
1, 166847, Note_off_c, 0, 65, 58
1, 166853, Note_off_c, 0, 60, 66
1, 166856, Note_off_c, 0, 80, 58
1, 167211, Note_on_c, 0, 97, 93
1, 167216, Note_on_c, 0, 85, 91
1, 167251, Note_off_c, 0, 92, 64
1, 167270, Control_c, 0, 64, 96
1, 167285, Control_c, 0, 64, 69
1, 167291, Note_on_c, 0, 53, 64
1, 167300, Control_c, 0, 64, 38
1, 167315, Control_c, 0, 64, 0
1, 167373, Control_c, 0, 64, 43
1, 167388, Control_c, 0, 64, 62
1, 167403, Control_c, 0, 64, 74
1, 167417, Control_c, 0, 64, 109
1, 167432, Control_c, 0, 64, 127
1, 167448, Note_off_c, 0, 53, 62
1, 167718, Note_on_c, 0, 73, 60
1, 167759, Note_on_c, 0, 61, 38
1, 167795, Note_on_c, 0, 68, 25
1, 167870, Note_off_c, 0, 68, 38
1, 167894, Note_off_c, 0, 61, 36
1, 167914, Note_off_c, 0, 73, 57
1, 168055, Note_on_c, 0, 73, 55
1, 168093, Note_on_c, 0, 61, 42
1, 168105, Note_on_c, 0, 68, 34
1, 168157, Note_off_c, 0, 68, 51
1, 168158, Note_off_c, 0, 61, 53
1, 168194, Note_off_c, 0, 73, 58
1, 168323, Note_on_c, 0, 73, 57
1, 168359, Note_on_c, 0, 61, 41
1, 168382, Note_on_c, 0, 68, 22
1, 168416, Note_off_c, 0, 61, 56
1, 168423, Note_off_c, 0, 68, 49
1, 168432, Note_off_c, 0, 73, 58
1, 168540, Note_on_c, 0, 73, 63
1, 168549, Note_on_c, 0, 61, 46
1, 168564, Note_on_c, 0, 68, 33
1, 168607, Note_off_c, 0, 61, 58
1, 168607, Note_off_c, 0, 73, 57
1, 168609, Note_off_c, 0, 68, 57
1, 168636, Note_off_c, 0, 85, 61
1, 168648, Note_off_c, 0, 97, 63
1, 168662, Control_c, 0, 67, 51
1, 168677, Control_c, 0, 67, 71
1, 168692, Control_c, 0, 67, 89
1, 168705, Note_on_c, 0, 96, 89
1, 168707, Control_c, 0, 67, 102
1, 168722, Control_c, 0, 67, 112
1, 168728, Note_on_c, 0, 84, 75
1, 168731, Note_on_c, 0, 73, 46
1, 168734, Note_on_c, 0, 61, 52
1, 168737, Note_on_c, 0, 68, 40
1, 168737, Control_c, 0, 67, 119
1, 168752, Control_c, 0, 67, 122
1, 168754, Note_off_c, 0, 73, 58
1, 168766, Note_off_c, 0, 68, 51
1, 168767, Note_off_c, 0, 61, 64
1, 168901, Control_c, 0, 67, 120
1, 168934, Note_on_c, 0, 53, 62
1, 168975, Note_off_c, 0, 53, 64
1, 169161, Note_on_c, 0, 73, 59
1, 169179, Note_on_c, 0, 61, 46
1, 169221, Note_on_c, 0, 68, 21
1, 169251, Note_off_c, 0, 73, 62
1, 169257, Note_off_c, 0, 96, 54
1, 169259, Note_off_c, 0, 84, 56
1, 169274, Note_off_c, 0, 61, 58
1, 169274, Note_off_c, 0, 68, 45
1, 169381, Note_on_c, 0, 95, 78
1, 169405, Note_on_c, 0, 83, 58
1, 169414, Note_on_c, 0, 61, 48
1, 169414, Note_on_c, 0, 71, 44
1, 169432, Note_off_c, 0, 83, 62
1, 169441, Note_off_c, 0, 71, 54
1, 169449, Note_off_c, 0, 61, 62
1, 169452, Poly_aftertouch_c, 0, 68, 127
1, 169477, Note_off_c, 0, 95, 65
1, 169494, Poly_aftertouch_c, 0, 68, 0
1, 169511, Note_on_c, 0, 83, 69
1, 169666, Note_on_c, 0, 54, 48
1, 169747, Control_c, 0, 64, 99
1, 169761, Control_c, 0, 64, 84
1, 169776, Control_c, 0, 64, 69
1, 169791, Control_c, 0, 64, 54
1, 169806, Control_c, 0, 64, 0
1, 169813, Note_on_c, 0, 95, 74
1, 169880, Control_c, 0, 64, 42
1, 169894, Control_c, 0, 64, 57
1, 169909, Control_c, 0, 64, 65
1, 169924, Control_c, 0, 64, 72
1, 169932, Note_off_c, 0, 54, 60
1, 169939, Control_c, 0, 64, 79
1, 169954, Control_c, 0, 64, 86
1, 169968, Control_c, 0, 64, 92
1, 169968, Control_c, 0, 67, 124
1, 169983, Control_c, 0, 64, 97
1, 169998, Control_c, 0, 64, 102
1, 169998, Control_c, 0, 67, 126
1, 170013, Control_c, 0, 64, 107
1, 170028, Control_c, 0, 64, 117
1, 170043, Control_c, 0, 64, 127
1, 170141, Note_on_c, 0, 71, 47
1, 170162, Note_on_c, 0, 61, 40
1, 170186, Note_on_c, 0, 66, 39
1, 170228, Note_off_c, 0, 61, 56
1, 170230, Note_off_c, 0, 66, 52
1, 170230, Note_off_c, 0, 71, 59
1, 170233, Note_off_c, 0, 83, 59
1, 170463, Note_on_c, 0, 94, 58
1, 170469, Note_on_c, 0, 82, 48
1, 170487, Note_on_c, 0, 70, 39
1, 170506, Note_on_c, 0, 66, 33
1, 170508, Note_on_c, 0, 61, 31
1, 170541, Note_off_c, 0, 95, 60
1, 170558, Note_off_c, 0, 61, 53
1, 170574, Note_off_c, 0, 66, 54
1, 170576, Note_off_c, 0, 70, 54
1, 170585, Note_off_c, 0, 94, 58
1, 170612, Note_off_c, 0, 82, 56
1, 170845, Note_on_c, 0, 93, 58
1, 170863, Note_on_c, 0, 81, 43
1, 170899, Note_on_c, 0, 69, 31
1, 170908, Note_on_c, 0, 61, 32
1, 170911, Note_on_c, 0, 66, 34
1, 170954, Control_c, 0, 64, 109
1, 170969, Control_c, 0, 64, 81
1, 170984, Control_c, 0, 64, 65
1, 170999, Control_c, 0, 64, 55
1, 171028, Control_c, 0, 64, 59
1, 171043, Control_c, 0, 64, 62
1, 171058, Control_c, 0, 64, 66
1, 171073, Control_c, 0, 64, 71
1, 171075, Note_off_c, 0, 66, 45
1, 171082, Note_off_c, 0, 61, 44
1, 171088, Control_c, 0, 64, 77
1, 171100, Note_off_c, 0, 69, 37
1, 171102, Control_c, 0, 64, 82
1, 171116, Control_c, 0, 64, 84
1, 171132, Control_c, 0, 64, 86
1, 171147, Control_c, 0, 64, 88
1, 171162, Control_c, 0, 64, 91
1, 171177, Control_c, 0, 64, 94
1, 171192, Control_c, 0, 64, 97
1, 171214, Control_c, 0, 64, 100
1, 171216, Note_on_c, 0, 61, 38
1, 171229, Control_c, 0, 64, 104
1, 171232, Note_on_c, 0, 69, 40
1, 171240, Note_on_c, 0, 66, 39
1, 171244, Control_c, 0, 64, 108
1, 171258, Control_c, 0, 64, 112
1, 171273, Control_c, 0, 64, 116
1, 171288, Control_c, 0, 64, 119
1, 171302, Note_off_c, 0, 66, 48
1, 171303, Control_c, 0, 64, 124
1, 171308, Note_off_c, 0, 61, 49
1, 171314, Note_off_c, 0, 69, 49
1, 171318, Control_c, 0, 64, 127
1, 171453, Note_on_c, 0, 61, 47
1, 171461, Note_on_c, 0, 69, 42
1, 171469, Note_on_c, 0, 66, 30
1, 171523, Note_off_c, 0, 69, 52
1, 171530, Note_off_c, 0, 61, 51
1, 171531, Note_off_c, 0, 66, 45
1, 171671, Note_on_c, 0, 61, 44
1, 171677, Note_on_c, 0, 69, 34
1, 171679, Note_on_c, 0, 66, 34
1, 171721, Note_off_c, 0, 61, 55
1, 171723, Note_off_c, 0, 66, 48
1, 171727, Note_off_c, 0, 69, 46
1, 171836, Control_c, 0, 64, 110
1, 171850, Control_c, 0, 64, 103
1, 171853, Note_on_c, 0, 69, 42
1, 171855, Note_on_c, 0, 60, 54
1, 171868, Note_on_c, 0, 66, 33
1, 171912, Note_off_c, 0, 66, 48
1, 171918, Note_off_c, 0, 69, 54
1, 171941, Control_c, 0, 64, 105
1, 171974, Note_off_c, 0, 60, 51
1, 171978, Control_c, 0, 64, 107
1, 172070, Note_on_c, 0, 69, 36
1, 172072, Note_on_c, 0, 66, 42
1, 172079, Note_on_c, 0, 61, 50
1, 172100, Note_off_c, 0, 66, 56
1, 172102, Note_off_c, 0, 69, 54
1, 172105, Note_off_c, 0, 93, 47
1, 172114, Note_off_c, 0, 61, 64
1, 172129, Note_off_c, 0, 81, 34
1, 172260, Control_c, 0, 64, 105
1, 172275, Control_c, 0, 64, 100
1, 172289, Control_c, 0, 64, 93
1, 172304, Control_c, 0, 64, 82
1, 172319, Control_c, 0, 64, 69
1, 172321, Note_on_c, 0, 93, 68
1, 172334, Control_c, 0, 64, 56
1, 172344, Note_on_c, 0, 81, 39
1, 172349, Control_c, 0, 64, 39
1, 172354, Note_on_c, 0, 54, 45
1, 172363, Control_c, 0, 64, 38
1, 172378, Control_c, 0, 64, 48
1, 172393, Control_c, 0, 64, 58
1, 172407, Control_c, 0, 64, 64
1, 172419, Note_off_c, 0, 54, 60
1, 172422, Control_c, 0, 64, 70
1, 172437, Control_c, 0, 64, 75
1, 172452, Control_c, 0, 64, 79
1, 172467, Control_c, 0, 64, 85
1, 172481, Control_c, 0, 64, 89
1, 172496, Control_c, 0, 64, 93
1, 172511, Control_c, 0, 64, 96
1, 172526, Control_c, 0, 64, 99
1, 172529, Note_off_c, 0, 81, 39
1, 172541, Control_c, 0, 64, 102
1, 172556, Control_c, 0, 64, 104
1, 172585, Control_c, 0, 64, 107
1, 172608, Note_on_c, 0, 69, 45
1, 172615, Control_c, 0, 64, 109
1, 172616, Note_on_c, 0, 61, 49
1, 172690, Poly_aftertouch_c, 0, 66, 127
1, 172721, Note_off_c, 0, 69, 38
1, 172740, Poly_aftertouch_c, 0, 66, 0
1, 172979, Control_c, 0, 64, 104
1, 172986, Note_on_c, 0, 62, 40
1, 172988, Note_on_c, 0, 66, 29
1, 172994, Control_c, 0, 64, 97
1, 172997, Note_off_c, 0, 61, 36
1, 173003, Note_on_c, 0, 69, 27
1, 173009, Control_c, 0, 64, 87
1, 173024, Control_c, 0, 64, 76
1, 173038, Control_c, 0, 64, 65
1, 173053, Control_c, 0, 64, 57
1, 173068, Control_c, 0, 64, 55
1, 173083, Control_c, 0, 64, 59
1, 173090, Note_off_c, 0, 93, 48
1, 173098, Control_c, 0, 64, 62
1, 173112, Control_c, 0, 64, 65
1, 173127, Control_c, 0, 64, 69
1, 173137, Note_on_c, 0, 92, 56
1, 173142, Control_c, 0, 64, 74
1, 173150, Note_off_c, 0, 69, 36
1, 173156, Control_c, 0, 64, 79
1, 173171, Control_c, 0, 64, 83
1, 173186, Control_c, 0, 64, 86
1, 173187, Note_off_c, 0, 62, 61
1, 173188, Note_off_c, 0, 66, 39
1, 173201, Control_c, 0, 64, 90
1, 173216, Control_c, 0, 64, 93
1, 173230, Control_c, 0, 64, 97
1, 173257, Note_off_c, 0, 92, 62
1, 173260, Control_c, 0, 64, 99
1, 173263, Note_on_c, 0, 93, 66
1, 173356, Note_off_c, 0, 93, 58
1, 173378, Note_on_c, 0, 94, 58
1, 173494, Note_on_c, 0, 54, 43
1, 173505, Control_c, 0, 64, 94
1, 173519, Control_c, 0, 64, 82
1, 173535, Control_c, 0, 64, 69
1, 173550, Control_c, 0, 64, 54
1, 173565, Control_c, 0, 64, 39
1, 173580, Note_off_c, 0, 94, 62
1, 173593, Note_on_c, 0, 93, 63
1, 173594, Control_c, 0, 64, 48
1, 173609, Control_c, 0, 64, 56
1, 173624, Control_c, 0, 64, 62
1, 173639, Control_c, 0, 64, 68
1, 173653, Control_c, 0, 64, 75
1, 173668, Control_c, 0, 64, 81
1, 173683, Control_c, 0, 64, 87
1, 173688, Note_off_c, 0, 93, 56
1, 173698, Control_c, 0, 64, 97
1, 173703, Note_off_c, 0, 54, 58
1, 173713, Control_c, 0, 64, 108
1, 173718, Note_on_c, 0, 94, 62
1, 173727, Control_c, 0, 64, 127
1, 173777, Note_off_c, 0, 94, 63
1, 173808, Note_on_c, 0, 93, 63
1, 173846, Note_off_c, 0, 93, 62
1, 173889, Note_on_c, 0, 94, 62
1, 173908, Note_off_c, 0, 94, 61
1, 173948, Note_on_c, 0, 93, 51
1, 173975, Note_off_c, 0, 93, 54
1, 173992, Note_on_c, 0, 94, 62
1, 174012, Note_off_c, 0, 94, 61
1, 174037, Note_on_c, 0, 69, 42
1, 174051, Note_on_c, 0, 93, 45
1, 174073, Note_on_c, 0, 60, 32
1, 174079, Note_off_c, 0, 93, 52
1, 174096, Note_on_c, 0, 94, 50
1, 174097, Note_on_c, 0, 63, 32
1, 174120, Note_off_c, 0, 94, 53
1, 174137, Note_on_c, 0, 93, 52
1, 174161, Note_off_c, 0, 93, 56
1, 174204, Note_on_c, 0, 94, 44
1, 174232, Note_off_c, 0, 94, 50
1, 174246, Note_on_c, 0, 93, 52
1, 174255, Note_off_c, 0, 69, 58
1, 174268, Note_off_c, 0, 93, 56
1, 174281, Note_on_c, 0, 94, 54
1, 174281, Note_off_c, 0, 60, 38
1, 174293, Note_off_c, 0, 63, 38
1, 174303, Note_off_c, 0, 94, 57
1, 174331, Note_on_c, 0, 93, 59
1, 174351, Note_off_c, 0, 93, 59
1, 174370, Note_on_c, 0, 94, 66
1, 174389, Note_on_c, 0, 69, 62
1, 174392, Note_off_c, 0, 94, 55
1, 174419, Note_on_c, 0, 93, 72
1, 174422, Note_on_c, 0, 60, 45
1, 174440, Note_on_c, 0, 63, 38
1, 174448, Note_off_c, 0, 93, 63
1, 174461, Note_on_c, 0, 94, 75
1, 174497, Note_off_c, 0, 94, 57
1, 174517, Note_on_c, 0, 93, 71
1, 174536, Control_c, 0, 67, 96
1, 174543, Note_off_c, 0, 63, 48
1, 174546, Note_off_c, 0, 93, 66
1, 174550, Control_c, 0, 67, 0
1, 174553, Note_off_c, 0, 60, 49
1, 174559, Note_on_c, 0, 94, 72
1, 174568, Note_off_c, 0, 69, 60
1, 174594, Note_off_c, 0, 94, 56
1, 174615, Note_on_c, 0, 93, 71
1, 174642, Note_off_c, 0, 93, 67
1, 174647, Note_on_c, 0, 69, 69
1, 174654, Note_on_c, 0, 94, 77
1, 174685, Note_on_c, 0, 60, 33
1, 174690, Note_off_c, 0, 94, 56
1, 174690, Note_on_c, 0, 63, 38
1, 174713, Note_on_c, 0, 93, 75
1, 174741, Note_off_c, 0, 93, 65
1, 174751, Note_off_c, 0, 63, 51
1, 174758, Note_on_c, 0, 94, 75
1, 174785, Note_off_c, 0, 60, 38
1, 174790, Note_off_c, 0, 69, 59
1, 174791, Note_off_c, 0, 94, 56
1, 174815, Note_on_c, 0, 93, 71
1, 174838, Note_off_c, 0, 93, 64
1, 174851, Note_on_c, 0, 94, 75
1, 174886, Note_on_c, 0, 70, 72
1, 174887, Note_off_c, 0, 94, 56
1, 174902, Note_on_c, 0, 93, 76
1, 174918, Note_on_c, 0, 60, 51
1, 174919, Note_on_c, 0, 63, 54
1, 174937, Note_off_c, 0, 93, 59
1, 174960, Note_on_c, 0, 94, 75
1, 174973, Control_c, 0, 64, 87
1, 174988, Control_c, 0, 64, 67
1, 174988, Note_off_c, 0, 94, 54
1, 175002, Control_c, 0, 64, 57
1, 175016, Note_on_c, 0, 93, 68
1, 175017, Control_c, 0, 64, 59
1, 175032, Control_c, 0, 64, 64
1, 175046, Note_off_c, 0, 93, 65
1, 175047, Control_c, 0, 64, 68
1, 175055, Note_on_c, 0, 94, 72
1, 175062, Control_c, 0, 64, 76
1, 175076, Control_c, 0, 64, 88
1, 175079, Note_off_c, 0, 63, 54
1, 175089, Note_off_c, 0, 70, 59
1, 175091, Note_off_c, 0, 94, 58
1, 175091, Control_c, 0, 64, 97
1, 175099, Note_off_c, 0, 60, 37
1, 175106, Control_c, 0, 64, 101
1, 175110, Note_on_c, 0, 93, 73
1, 175121, Control_c, 0, 64, 105
1, 175137, Control_c, 0, 64, 109
1, 175141, Note_off_c, 0, 93, 63
1, 175161, Note_on_c, 0, 94, 73
1, 175186, Note_off_c, 0, 94, 51
1, 175196, Control_c, 0, 64, 98
1, 175206, Note_on_c, 0, 69, 73
1, 175211, Control_c, 0, 64, 78
1, 175215, Note_on_c, 0, 93, 70
1, 175226, Control_c, 0, 64, 58
1, 175231, Note_on_c, 0, 60, 51
1, 175238, Note_on_c, 0, 63, 45
1, 175240, Control_c, 0, 64, 46
1, 175241, Note_off_c, 0, 93, 66
1, 175255, Control_c, 0, 64, 49
1, 175256, Note_on_c, 0, 94, 71
1, 175270, Control_c, 0, 64, 56
1, 175279, Note_off_c, 0, 94, 54
1, 175285, Control_c, 0, 64, 60
1, 175300, Control_c, 0, 64, 65
1, 175310, Note_on_c, 0, 93, 70
1, 175311, Note_off_c, 0, 60, 60
1, 175314, Control_c, 0, 64, 71
1, 175321, Note_off_c, 0, 63, 44
1, 175329, Control_c, 0, 64, 78
1, 175338, Note_off_c, 0, 93, 66
1, 175344, Control_c, 0, 64, 82
1, 175349, Note_on_c, 0, 94, 72
1, 175352, Note_off_c, 0, 69, 62
1, 175358, Control_c, 0, 64, 83
1, 175373, Control_c, 0, 64, 84
1, 175377, Note_off_c, 0, 94, 52
1, 175388, Control_c, 0, 64, 86
1, 175403, Control_c, 0, 64, 87
1, 175405, Note_on_c, 0, 93, 69
1, 175418, Control_c, 0, 64, 88
1, 175432, Control_c, 0, 64, 89
1, 175436, Note_off_c, 0, 93, 65
1, 175449, Note_on_c, 0, 94, 69
1, 175476, Note_off_c, 0, 94, 51
1, 175505, Note_on_c, 0, 93, 68
1, 175536, Note_off_c, 0, 93, 64
1, 175549, Note_on_c, 0, 94, 71
1, 175576, Note_off_c, 0, 94, 51
1, 175605, Note_on_c, 0, 93, 67
1, 175634, Note_off_c, 0, 93, 64
1, 175649, Note_on_c, 0, 94, 68
1, 175674, Note_off_c, 0, 94, 52
1, 175712, Note_on_c, 0, 93, 66
1, 175712, Note_on_c, 0, 75, 64
1, 175742, Note_off_c, 0, 93, 64
1, 175757, Note_on_c, 0, 94, 63
1, 175763, Note_on_c, 0, 69, 41
1, 175777, Note_off_c, 0, 94, 57
1, 175781, Control_c, 0, 64, 88
1, 175803, Note_on_c, 0, 66, 31
1, 175811, Control_c, 0, 64, 88
1, 175812, Note_on_c, 0, 93, 63
1, 175825, Control_c, 0, 64, 87
1, 175833, Note_off_c, 0, 93, 60
1, 175840, Control_c, 0, 64, 86
1, 175850, Note_on_c, 0, 94, 63
1, 175855, Control_c, 0, 64, 85
1, 175870, Control_c, 0, 64, 83
1, 175876, Note_off_c, 0, 94, 53
1, 175885, Control_c, 0, 64, 80
1, 175899, Control_c, 0, 64, 74
1, 175906, Note_on_c, 0, 93, 62
1, 175914, Control_c, 0, 64, 65
1, 175930, Control_c, 0, 64, 54
1, 175930, Note_off_c, 0, 93, 56
1, 175945, Control_c, 0, 64, 37
1, 175949, Note_on_c, 0, 94, 65
1, 175960, Control_c, 0, 64, 29
1, 175972, Note_off_c, 0, 94, 54
1, 175975, Control_c, 0, 64, 31
1, 175989, Control_c, 0, 64, 38
1, 176001, Note_on_c, 0, 93, 63
1, 176004, Control_c, 0, 64, 45
1, 176019, Control_c, 0, 64, 52
1, 176026, Note_off_c, 0, 93, 56
1, 176034, Control_c, 0, 64, 58
1, 176043, Note_on_c, 0, 94, 61
1, 176049, Control_c, 0, 64, 64
1, 176063, Control_c, 0, 64, 68
1, 176066, Note_off_c, 0, 94, 53
1, 176078, Control_c, 0, 64, 71
1, 176093, Control_c, 0, 64, 73
1, 176097, Note_on_c, 0, 93, 60
1, 176108, Control_c, 0, 64, 77
1, 176121, Note_off_c, 0, 93, 57
1, 176123, Control_c, 0, 64, 82
1, 176137, Control_c, 0, 64, 87
1, 176142, Note_on_c, 0, 94, 54
1, 176152, Control_c, 0, 64, 94
1, 176165, Note_off_c, 0, 94, 55
1, 176167, Control_c, 0, 64, 99
1, 176181, Control_c, 0, 64, 107
1, 176190, Note_on_c, 0, 93, 62
1, 176196, Control_c, 0, 64, 118
1, 176211, Control_c, 0, 64, 127
1, 176214, Note_off_c, 0, 93, 56
1, 176239, Note_on_c, 0, 94, 52
1, 176264, Note_off_c, 0, 94, 53
1, 176285, Control_c, 0, 67, 51
1, 176288, Note_on_c, 0, 93, 57
1, 176300, Control_c, 0, 67, 82
1, 176311, Note_off_c, 0, 93, 56
1, 176315, Control_c, 0, 67, 113
1, 176327, Note_on_c, 0, 94, 53
1, 176329, Control_c, 0, 67, 127
1, 176350, Note_off_c, 0, 94, 55
1, 176363, Note_off_c, 0, 75, 51
1, 176378, Note_on_c, 0, 93, 58
1, 176398, Note_off_c, 0, 93, 60
1, 176419, Note_on_c, 0, 94, 52
1, 176443, Note_off_c, 0, 94, 54
1, 176476, Note_on_c, 0, 93, 65
1, 176495, Note_off_c, 0, 69, 42
1, 176497, Note_off_c, 0, 93, 58
1, 176515, Note_off_c, 0, 66, 39
1, 176527, Note_on_c, 0, 94, 43
1, 176554, Note_off_c, 0, 94, 48
1, 176568, Note_on_c, 0, 93, 66
1, 176593, Note_off_c, 0, 93, 57
1, 176617, Note_on_c, 0, 94, 47
1, 176642, Note_off_c, 0, 94, 50
1, 176666, Note_on_c, 0, 93, 64
1, 176686, Note_off_c, 0, 93, 60
1, 176705, Note_on_c, 0, 94, 59
1, 176736, Note_off_c, 0, 94, 49
1, 176761, Note_on_c, 0, 93, 65
1, 176791, Note_off_c, 0, 93, 61
1, 176809, Note_on_c, 0, 94, 52
1, 176833, Note_off_c, 0, 94, 51
1, 176866, Note_on_c, 0, 93, 61
1, 176885, Note_off_c, 0, 93, 59
1, 176902, Note_on_c, 0, 72, 45
1, 176914, Note_on_c, 0, 94, 50
1, 176937, Note_off_c, 0, 94, 53
1, 176944, Note_on_c, 0, 63, 38
1, 176945, Note_on_c, 0, 66, 28
1, 176958, Note_on_c, 0, 93, 65
1, 176984, Note_off_c, 0, 93, 59
1, 177013, Note_on_c, 0, 94, 47
1, 177032, Note_off_c, 0, 66, 51
1, 177038, Note_off_c, 0, 94, 51
1, 177056, Note_on_c, 0, 93, 68
1, 177083, Note_off_c, 0, 93, 62
1, 177103, Note_on_c, 0, 94, 57
1, 177109, Note_off_c, 0, 63, 34
1, 177131, Note_off_c, 0, 94, 49
1, 177155, Note_on_c, 0, 93, 65
1, 177182, Note_off_c, 0, 93, 59
1, 177203, Note_on_c, 0, 94, 57
1, 177237, Note_off_c, 0, 94, 48
1, 177267, Note_on_c, 0, 93, 59
1, 177289, Note_off_c, 0, 93, 57
1, 177313, Note_on_c, 0, 94, 52
1, 177315, Note_off_c, 0, 72, 58
1, 177335, Note_off_c, 0, 94, 54
1, 177361, Note_on_c, 0, 93, 62
1, 177379, Note_on_c, 0, 69, 39
1, 177385, Note_off_c, 0, 93, 55
1, 177412, Note_on_c, 0, 94, 52
1, 177430, Note_on_c, 0, 60, 21
1, 177433, Note_on_c, 0, 63, 27
1, 177435, Note_off_c, 0, 94, 53
1, 177460, Note_on_c, 0, 93, 60
1, 177483, Note_off_c, 0, 93, 56
1, 177504, Note_on_c, 0, 94, 55
1, 177531, Note_off_c, 0, 94, 52
1, 177558, Note_on_c, 0, 93, 60
1, 177578, Note_off_c, 0, 93, 59
1, 177604, Note_on_c, 0, 94, 52
1, 177627, Note_off_c, 0, 94, 53
1, 177640, Note_off_c, 0, 60, 42
1, 177641, Note_off_c, 0, 69, 58
1, 177653, Note_on_c, 0, 93, 62
1, 177663, Note_off_c, 0, 63, 41
1, 177677, Note_off_c, 0, 93, 56
1, 177695, Note_on_c, 0, 94, 59
1, 177724, Note_off_c, 0, 94, 49
1, 177754, Note_on_c, 0, 93, 60
1, 177775, Note_off_c, 0, 93, 58
1, 177790, Note_on_c, 0, 94, 58
1, 177816, Note_off_c, 0, 94, 52
1, 177851, Note_on_c, 0, 93, 55
1, 177870, Note_off_c, 0, 93, 58
1, 177891, Note_on_c, 0, 94, 51
1, 177913, Note_off_c, 0, 94, 53
1, 177948, Note_on_c, 0, 93, 62
1, 177969, Note_off_c, 0, 93, 58
1, 177995, Note_on_c, 0, 94, 46
1, 178020, Note_off_c, 0, 94, 51
1, 178041, Note_on_c, 0, 93, 61
1, 178064, Note_off_c, 0, 93, 55
1, 178085, Note_on_c, 0, 94, 50
1, 178110, Note_off_c, 0, 94, 53
1, 178137, Note_on_c, 0, 93, 56
1, 178160, Note_off_c, 0, 93, 55
1, 178176, Note_on_c, 0, 94, 49
1, 178204, Note_off_c, 0, 94, 51
1, 178234, Note_on_c, 0, 93, 53
1, 178258, Note_off_c, 0, 93, 56
1, 178275, Note_on_c, 0, 94, 52
1, 178299, Note_off_c, 0, 94, 53
1, 178333, Note_on_c, 0, 93, 55
1, 178353, Note_off_c, 0, 93, 58
1, 178384, Note_on_c, 0, 94, 30
1, 178419, Note_off_c, 0, 94, 42
1, 178425, Note_on_c, 0, 93, 60
1, 178448, Note_off_c, 0, 93, 54
1, 178468, Note_on_c, 0, 94, 40
1, 178497, Note_off_c, 0, 94, 52
1, 178520, Note_on_c, 0, 93, 53
1, 178541, Note_off_c, 0, 93, 57
1, 178550, Note_on_c, 0, 94, 48
1, 178587, Note_off_c, 0, 94, 46
1, 178605, Control_c, 0, 64, 97
1, 178613, Note_on_c, 0, 93, 53
1, 178620, Control_c, 0, 64, 83
1, 178635, Control_c, 0, 64, 77
1, 178637, Note_off_c, 0, 93, 53
1, 178639, Note_on_c, 0, 94, 49
1, 178649, Control_c, 0, 64, 77
1, 178679, Control_c, 0, 64, 79
1, 178684, Note_off_c, 0, 94, 45
1, 178701, Control_c, 0, 64, 84
1, 178705, Note_on_c, 0, 93, 53
1, 178716, Control_c, 0, 64, 91
1, 178731, Control_c, 0, 64, 99
1, 178732, Note_off_c, 0, 93, 53
1, 178744, Note_on_c, 0, 94, 40
1, 178746, Control_c, 0, 64, 110
1, 178761, Control_c, 0, 64, 127
1, 178778, Note_off_c, 0, 94, 49
1, 178804, Note_on_c, 0, 93, 52
1, 178825, Note_off_c, 0, 93, 57
1, 178844, Note_on_c, 0, 94, 39
1, 178875, Note_off_c, 0, 94, 46
1, 178902, Note_on_c, 0, 93, 50
1, 178926, Note_off_c, 0, 93, 55
1, 178948, Note_on_c, 0, 94, 42
1, 178975, Note_off_c, 0, 94, 50
1, 178998, Note_on_c, 0, 93, 58
1, 179018, Note_off_c, 0, 93, 59
1, 179040, Note_on_c, 0, 94, 53
1, 179062, Note_off_c, 0, 94, 55
1, 179091, Note_on_c, 0, 93, 59
1, 179109, Note_off_c, 0, 93, 60
1, 179137, Note_on_c, 0, 94, 52
1, 179158, Note_off_c, 0, 94, 56
1, 179182, Note_on_c, 0, 93, 66
1, 179206, Note_off_c, 0, 93, 58
1, 179235, Note_on_c, 0, 94, 48
1, 179261, Note_off_c, 0, 94, 51
1, 179278, Note_on_c, 0, 93, 64
1, 179298, Note_off_c, 0, 93, 60
1, 179318, Note_on_c, 0, 94, 54
1, 179355, Note_off_c, 0, 94, 46
1, 179373, Note_on_c, 0, 93, 55
1, 179393, Note_off_c, 0, 93, 58
1, 179415, Note_on_c, 0, 94, 38
1, 179462, Note_off_c, 0, 94, 47
1, 179473, Note_on_c, 0, 93, 65
1, 179517, Note_off_c, 0, 93, 54
1, 179605, Note_on_c, 0, 92, 52
1, 179759, Note_off_c, 0, 92, 46
1, 179774, Note_on_c, 0, 93, 49
1, 179948, Note_off_c, 0, 93, 33
1, 179969, Note_on_c, 0, 99, 51
1, 180095, Note_off_c, 0, 99, 56
1, 180112, Note_on_c, 0, 97, 52
1, 180170, Note_off_c, 0, 97, 59
1, 180246, Note_on_c, 0, 98, 58
1, 180306, Note_off_c, 0, 98, 61
1, 180342, Note_on_c, 0, 96, 58
1, 180395, Note_off_c, 0, 96, 57
1, 180442, Note_on_c, 0, 97, 61
1, 180502, Note_off_c, 0, 97, 63
1, 180534, Note_on_c, 0, 95, 60
1, 180577, Note_off_c, 0, 95, 51
1, 180619, Note_on_c, 0, 96, 59
1, 180658, Note_off_c, 0, 96, 63
1, 180698, Note_on_c, 0, 94, 53
1, 180720, Note_off_c, 0, 94, 63
1, 180765, Note_on_c, 0, 95, 60
1, 180796, Note_off_c, 0, 95, 67
1, 180837, Note_on_c, 0, 93, 59
1, 180855, Note_off_c, 0, 93, 60
1, 180905, Note_on_c, 0, 94, 58
1, 180930, Note_off_c, 0, 94, 64
1, 180986, Note_on_c, 0, 92, 43
1, 181012, Note_off_c, 0, 92, 51
1, 181054, Note_on_c, 0, 93, 55
1, 181076, Note_off_c, 0, 93, 58
1, 181108, Note_on_c, 0, 91, 58
1, 181126, Note_off_c, 0, 91, 63
1, 181177, Note_on_c, 0, 92, 53
1, 181212, Note_off_c, 0, 92, 62
1, 181241, Note_on_c, 0, 90, 44
1, 181265, Note_off_c, 0, 90, 52
1, 181293, Note_on_c, 0, 91, 51
1, 181324, Note_off_c, 0, 91, 67
1, 181350, Note_on_c, 0, 89, 58
1, 181378, Note_off_c, 0, 89, 66
1, 181418, Note_on_c, 0, 90, 58
1, 181448, Note_off_c, 0, 90, 68
1, 181472, Note_on_c, 0, 88, 59
1, 181498, Note_off_c, 0, 88, 56
1, 181536, Note_on_c, 0, 89, 59
1, 181566, Note_off_c, 0, 89, 64
1, 181599, Note_on_c, 0, 87, 51
1, 181621, Note_off_c, 0, 87, 56
1, 181633, Note_on_c, 0, 88, 61
1, 181660, Note_off_c, 0, 88, 68
1, 181705, Note_on_c, 0, 86, 64
1, 181731, Note_off_c, 0, 86, 66
1, 181761, Note_on_c, 0, 87, 50
1, 181798, Note_off_c, 0, 87, 66
1, 181818, Note_on_c, 0, 85, 59
1, 181840, Note_off_c, 0, 85, 64
1, 181857, Note_on_c, 0, 86, 60
1, 181890, Note_off_c, 0, 86, 65
1, 181922, Note_on_c, 0, 84, 65
1, 181948, Note_off_c, 0, 84, 65
1, 181987, Note_on_c, 0, 85, 61
1, 182014, Note_off_c, 0, 85, 67
1, 182037, Note_on_c, 0, 83, 60
1, 182067, Control_c, 0, 64, 98
1, 182070, Note_off_c, 0, 83, 49
1, 182082, Control_c, 0, 64, 88
1, 182091, Note_on_c, 0, 84, 68
1, 182097, Control_c, 0, 64, 88
1, 182111, Control_c, 0, 64, 89
1, 182126, Control_c, 0, 64, 94
1, 182133, Note_off_c, 0, 84, 51
1, 182141, Control_c, 0, 64, 106
1, 182156, Control_c, 0, 64, 127
1, 182160, Note_on_c, 0, 82, 55
1, 182181, Note_off_c, 0, 82, 65
1, 182190, Note_on_c, 0, 83, 68
1, 182229, Note_off_c, 0, 83, 62
1, 182257, Note_on_c, 0, 81, 73
1, 182294, Note_off_c, 0, 81, 53
1, 182315, Note_on_c, 0, 82, 62
1, 182334, Control_c, 0, 64, 91
1, 182348, Note_off_c, 0, 82, 61
1, 182349, Control_c, 0, 64, 78
1, 182364, Control_c, 0, 64, 77
1, 182369, Note_on_c, 0, 80, 61
1, 182379, Control_c, 0, 64, 82
1, 182387, Note_off_c, 0, 80, 66
1, 182394, Control_c, 0, 64, 92
1, 182408, Control_c, 0, 64, 127
1, 182416, Note_on_c, 0, 81, 70
1, 182458, Note_off_c, 0, 81, 56
1, 182487, Note_on_c, 0, 79, 56
1, 182513, Note_off_c, 0, 79, 63
1, 182520, Control_c, 0, 64, 96
1, 182535, Note_on_c, 0, 80, 59
1, 182535, Control_c, 0, 64, 94
1, 182549, Control_c, 0, 64, 107
1, 182564, Control_c, 0, 64, 127
1, 182586, Note_on_c, 0, 78, 56
1, 182594, Note_off_c, 0, 80, 61
1, 182607, Note_off_c, 0, 78, 59
1, 182623, Control_c, 0, 64, 104
1, 182631, Note_on_c, 0, 79, 51
1, 182638, Control_c, 0, 64, 100
1, 182653, Control_c, 0, 64, 127
1, 182670, Note_off_c, 0, 79, 64
1, 182686, Note_on_c, 0, 77, 67
1, 182714, Note_off_c, 0, 77, 63
1, 182760, Note_on_c, 0, 78, 59
1, 182790, Note_off_c, 0, 78, 66
1, 182799, Note_on_c, 0, 76, 54
1, 182831, Note_off_c, 0, 76, 49
1, 182866, Note_on_c, 0, 77, 63
1, 182909, Note_off_c, 0, 77, 54
1, 182932, Note_on_c, 0, 75, 56
1, 182951, Note_off_c, 0, 75, 61
1, 182954, Note_on_c, 0, 76, 66
1, 182979, Control_c, 0, 64, 102
1, 182998, Note_off_c, 0, 76, 63
1, 183008, Control_c, 0, 64, 127
1, 183022, Note_on_c, 0, 74, 75
1, 183057, Note_off_c, 0, 74, 54
1, 183076, Note_on_c, 0, 75, 62
1, 183130, Note_off_c, 0, 75, 64
1, 183132, Note_on_c, 0, 73, 68
1, 183156, Note_off_c, 0, 73, 69
1, 183157, Control_c, 0, 64, 95
1, 183171, Note_on_c, 0, 74, 75
1, 183172, Control_c, 0, 64, 98
1, 183194, Control_c, 0, 64, 127
1, 183221, Note_off_c, 0, 74, 62
1, 183240, Note_on_c, 0, 72, 70
1, 183263, Note_off_c, 0, 72, 67
1, 183305, Note_on_c, 0, 73, 69
1, 183330, Note_off_c, 0, 73, 68
1, 183350, Note_on_c, 0, 71, 62
1, 183385, Note_off_c, 0, 71, 58
1, 183392, Note_on_c, 0, 72, 67
1, 183432, Control_c, 0, 64, 103
1, 183447, Note_off_c, 0, 72, 59
1, 183457, Note_on_c, 0, 70, 66
1, 183461, Control_c, 0, 64, 127
1, 183482, Note_off_c, 0, 70, 69
1, 183498, Note_on_c, 0, 71, 65
1, 183505, Control_c, 0, 64, 98
1, 183520, Control_c, 0, 64, 84
1, 183533, Note_off_c, 0, 71, 61
1, 183535, Control_c, 0, 64, 87
1, 183550, Control_c, 0, 64, 127
1, 183555, Note_on_c, 0, 69, 70
1, 183591, Note_off_c, 0, 69, 55
1, 183621, Note_on_c, 0, 70, 67
1, 183650, Note_off_c, 0, 70, 66
1, 183665, Note_on_c, 0, 68, 65
1, 183689, Note_off_c, 0, 68, 69
1, 183698, Control_c, 0, 64, 96
1, 183713, Control_c, 0, 64, 114
1, 183721, Note_on_c, 0, 69, 64
1, 183728, Control_c, 0, 64, 127
1, 183758, Note_off_c, 0, 69, 62
1, 183761, Note_on_c, 0, 67, 67
1, 183787, Control_c, 0, 64, 114
1, 183802, Control_c, 0, 64, 127
1, 183806, Note_off_c, 0, 67, 59
1, 183821, Note_on_c, 0, 68, 64
1, 183859, Note_off_c, 0, 68, 63
1, 183867, Note_on_c, 0, 66, 71
1, 183876, Control_c, 0, 64, 86
1, 183890, Control_c, 0, 64, 92
1, 183906, Control_c, 0, 64, 127
1, 183911, Note_on_c, 0, 69, 68
1, 183925, Note_off_c, 0, 66, 61
1, 183972, Note_on_c, 0, 65, 69
1, 183973, Control_c, 0, 64, 112
1, 183975, Note_off_c, 0, 69, 63
1, 183987, Control_c, 0, 64, 93
1, 184001, Note_off_c, 0, 65, 62
1, 184002, Control_c, 0, 64, 127
1, 184029, Note_on_c, 0, 66, 73
1, 184086, Note_on_c, 0, 64, 70
1, 184088, Note_off_c, 0, 66, 63
1, 184127, Note_off_c, 0, 64, 62
1, 184129, Note_on_c, 0, 69, 73
1, 184189, Note_on_c, 0, 63, 68
1, 184201, Note_off_c, 0, 69, 59
1, 184241, Note_off_c, 0, 63, 63
1, 184245, Note_on_c, 0, 66, 69
1, 184269, Control_c, 0, 64, 87
1, 184271, Note_on_c, 0, 62, 67
1, 184299, Control_c, 0, 64, 127
1, 184315, Note_off_c, 0, 62, 51
1, 184315, Note_off_c, 0, 66, 63
1, 184340, Note_on_c, 0, 69, 70
1, 184373, Control_c, 0, 64, 105
1, 184374, Note_on_c, 0, 61, 64
1, 184387, Control_c, 0, 64, 99
1, 184394, Note_off_c, 0, 61, 64
1, 184402, Control_c, 0, 64, 105
1, 184405, Note_off_c, 0, 69, 62
1, 184417, Control_c, 0, 64, 127
1, 184448, Note_on_c, 0, 66, 20
1, 184481, Note_on_c, 0, 60, 56
1, 184483, Note_off_c, 0, 66, 52
1, 184491, Control_c, 0, 64, 89
1, 184506, Control_c, 0, 64, 79
1, 184518, Note_off_c, 0, 60, 65
1, 184521, Control_c, 0, 64, 78
1, 184521, Note_on_c, 0, 63, 63
1, 184536, Control_c, 0, 64, 81
1, 184551, Control_c, 0, 64, 93
1, 184556, Note_on_c, 0, 66, 70
1, 184556, Note_off_c, 0, 63, 66
1, 184566, Control_c, 0, 64, 127
1, 184581, Note_on_c, 0, 69, 72
1, 184583, Note_off_c, 0, 66, 67
1, 184606, Note_off_c, 0, 69, 69
1, 184610, Note_on_c, 0, 72, 68
1, 184658, Note_on_c, 0, 75, 68
1, 184673, Note_on_c, 0, 78, 72
1, 184693, Note_off_c, 0, 72, 60
1, 184716, Note_off_c, 0, 75, 62
1, 184720, Note_on_c, 0, 81, 69
1, 184733, Note_off_c, 0, 78, 62
1, 184767, Note_off_c, 0, 81, 62
1, 184770, Note_on_c, 0, 84, 70
1, 184817, Note_off_c, 0, 84, 65
1, 184826, Note_on_c, 0, 87, 58
1, 184853, Note_off_c, 0, 87, 69
1, 184858, Note_on_c, 0, 90, 54
1, 184873, Note_on_c, 0, 93, 76
1, 184887, Note_off_c, 0, 90, 67
1, 184902, Note_off_c, 0, 93, 64
1, 184909, Note_on_c, 0, 96, 63
1, 184931, Note_off_c, 0, 96, 60
1, 184944, Note_on_c, 0, 99, 71
1, 185004, Control_c, 0, 64, 124
1, 185007, Note_on_c, 0, 98, 75
1, 185014, Note_off_c, 0, 99, 63
1, 185018, Control_c, 0, 64, 103
1, 185033, Control_c, 0, 64, 98
1, 185041, Note_on_c, 0, 101, 83
1, 185048, Note_off_c, 0, 98, 64
1, 185048, Control_c, 0, 64, 94
1, 185063, Control_c, 0, 64, 89
1, 185078, Control_c, 0, 64, 81
1, 185092, Control_c, 0, 64, 73
1, 185106, Note_off_c, 0, 101, 66
1, 185107, Control_c, 0, 64, 67
1, 185113, Note_on_c, 0, 99, 65
1, 185122, Control_c, 0, 64, 63
1, 185136, Control_c, 0, 64, 60
1, 185140, Note_off_c, 0, 99, 66
1, 185144, Note_on_c, 0, 96, 65
1, 185151, Control_c, 0, 64, 58
1, 185165, Note_off_c, 0, 96, 68
1, 185166, Control_c, 0, 64, 55
1, 185181, Control_c, 0, 64, 53
1, 185183, Note_on_c, 0, 93, 69
1, 185196, Control_c, 0, 64, 50
1, 185210, Control_c, 0, 64, 49
1, 185211, Note_off_c, 0, 93, 66
1, 185257, Note_on_c, 0, 90, 74
1, 185289, Note_on_c, 0, 87, 69
1, 185302, Note_off_c, 0, 90, 63
1, 185334, Note_on_c, 0, 84, 73
1, 185341, Note_off_c, 0, 87, 66
1, 185344, Control_c, 0, 64, 49
1, 185364, Note_off_c, 0, 84, 62
1, 185384, Note_on_c, 0, 81, 72
1, 185406, Note_off_c, 0, 81, 71
1, 185414, Note_on_c, 0, 78, 62
1, 185450, Note_off_c, 0, 78, 65
1, 185456, Control_c, 0, 64, 48
1, 185470, Control_c, 0, 64, 44
1, 185479, Note_on_c, 0, 75, 65
1, 185485, Control_c, 0, 64, 39
1, 185500, Control_c, 0, 64, 32
1, 185516, Control_c, 0, 64, 0
1, 185537, Note_off_c, 0, 75, 63
1, 185544, Note_on_c, 0, 72, 65
1, 185613, Note_off_c, 0, 72, 59
1, 185624, Note_on_c, 0, 69, 54
1, 185661, Note_off_c, 0, 69, 63
1, 185705, Note_on_c, 0, 66, 64
1, 185744, Note_off_c, 0, 66, 59
1, 185857, Note_on_c, 0, 62, 58
1, 185903, Note_off_c, 0, 62, 56
1, 186010, Note_on_c, 0, 63, 67
1, 186068, Note_off_c, 0, 63, 62
1, 186152, Note_on_c, 0, 64, 72
1, 186217, Note_off_c, 0, 64, 63
1, 186292, Control_c, 0, 67, 82
1, 186308, Control_c, 0, 67, 0
1, 186324, Note_on_c, 0, 65, 66
1, 186373, Note_off_c, 0, 65, 58
1, 186506, Note_on_c, 0, 66, 59
1, 186577, Note_off_c, 0, 66, 58
1, 186760, Note_on_c, 0, 67, 48
1, 186872, Note_off_c, 0, 67, 58
1, 187083, Note_on_c, 0, 68, 47
1, 187195, Note_off_c, 0, 68, 62
1, 187476, Note_on_c, 0, 69, 44
1, 187642, Note_off_c, 0, 69, 62
1, 187702, Control_c, 0, 67, 47
1, 187716, Control_c, 0, 67, 59
1, 187731, Control_c, 0, 67, 71
1, 187746, Control_c, 0, 67, 81
1, 187761, Control_c, 0, 67, 90
1, 187776, Control_c, 0, 67, 101
1, 187791, Control_c, 0, 67, 112
1, 187805, Control_c, 0, 67, 123
1, 187820, Control_c, 0, 67, 127
1, 188063, Note_on_c, 0, 70, 51
1, 188099, Note_on_c, 0, 63, 37
1, 188116, Note_on_c, 0, 61, 25
1, 188124, Note_on_c, 0, 55, 31
1, 188295, Control_c, 0, 64, 39
1, 188310, Control_c, 0, 64, 49
1, 188325, Control_c, 0, 64, 56
1, 188340, Control_c, 0, 64, 59
1, 188354, Control_c, 0, 64, 61
1, 188369, Control_c, 0, 64, 63
1, 188384, Control_c, 0, 64, 67
1, 188399, Control_c, 0, 64, 70
1, 188414, Control_c, 0, 64, 74
1, 188436, Control_c, 0, 64, 79
1, 188451, Control_c, 0, 64, 85
1, 188466, Control_c, 0, 64, 92
1, 188481, Control_c, 0, 64, 100
1, 188486, Note_off_c, 0, 61, 40
1, 188495, Control_c, 0, 64, 112
1, 188501, Note_off_c, 0, 63, 36
1, 188510, Control_c, 0, 64, 127
1, 188768, Note_on_c, 0, 63, 37
1, 188782, Note_on_c, 0, 61, 26
1, 188947, Note_off_c, 0, 63, 35
1, 188989, Note_off_c, 0, 61, 40
1, 189234, Note_on_c, 0, 67, 43
1, 189261, Note_on_c, 0, 61, 23
1, 189266, Note_on_c, 0, 63, 29
1, 189275, Note_on_c, 0, 51, 36
1, 189378, Control_c, 0, 64, 94
1, 189392, Control_c, 0, 64, 80
1, 189407, Control_c, 0, 64, 73
1, 189419, Note_off_c, 0, 70, 34
1, 189422, Control_c, 0, 64, 72
1, 189447, Note_off_c, 0, 63, 40
1, 189451, Control_c, 0, 64, 74
1, 189463, Note_off_c, 0, 61, 41
1, 189466, Control_c, 0, 64, 77
1, 189481, Control_c, 0, 64, 80
1, 189483, Note_off_c, 0, 55, 41
1, 189496, Control_c, 0, 64, 84
1, 189512, Control_c, 0, 64, 87
1, 189526, Control_c, 0, 64, 89
1, 189541, Control_c, 0, 64, 91
1, 189556, Control_c, 0, 64, 92
1, 189571, Control_c, 0, 64, 93
1, 189639, Note_on_c, 0, 68, 66
1, 189660, Control_c, 0, 64, 93
1, 189661, Note_on_c, 0, 63, 50
1, 189663, Note_on_c, 0, 61, 45
1, 189675, Control_c, 0, 64, 88
1, 189684, Note_on_c, 0, 53, 47
1, 189690, Control_c, 0, 64, 77
1, 189705, Control_c, 0, 64, 65
1, 189716, Note_off_c, 0, 67, 36
1, 189720, Control_c, 0, 64, 48
1, 189734, Control_c, 0, 64, 39
1, 189739, Note_off_c, 0, 51, 35
1, 189764, Control_c, 0, 64, 44
1, 189779, Control_c, 0, 64, 51
1, 189794, Control_c, 0, 64, 57
1, 189808, Control_c, 0, 64, 61
1, 189823, Control_c, 0, 64, 64
1, 189836, Note_off_c, 0, 63, 48
1, 189837, Control_c, 0, 64, 67
1, 189851, Control_c, 0, 64, 68
1, 189852, Note_off_c, 0, 61, 37
1, 189866, Control_c, 0, 64, 71
1, 189881, Control_c, 0, 64, 73
1, 189896, Control_c, 0, 64, 75
1, 189911, Control_c, 0, 64, 76
1, 189933, Control_c, 0, 64, 77
1, 189979, Note_on_c, 0, 70, 73
1, 189993, Control_c, 0, 64, 76
1, 190007, Control_c, 0, 64, 70
1, 190012, Note_on_c, 0, 63, 46
1, 190016, Note_on_c, 0, 55, 50
1, 190018, Note_on_c, 0, 61, 33
1, 190022, Control_c, 0, 64, 55
1, 190037, Control_c, 0, 64, 30
1, 190052, Control_c, 0, 64, 0
1, 190067, Note_off_c, 0, 53, 38
1, 190068, Note_off_c, 0, 61, 44
1, 190071, Note_off_c, 0, 68, 37
1, 190088, Note_off_c, 0, 63, 49
1, 190111, Control_c, 0, 64, 30
1, 190126, Control_c, 0, 64, 47
1, 190140, Control_c, 0, 64, 58
1, 190155, Control_c, 0, 64, 62
1, 190170, Control_c, 0, 64, 64
1, 190185, Control_c, 0, 64, 66
1, 190200, Control_c, 0, 64, 68
1, 190214, Control_c, 0, 64, 71
1, 190229, Control_c, 0, 64, 73
1, 190244, Control_c, 0, 64, 72
1, 190259, Control_c, 0, 64, 71
1, 190274, Control_c, 0, 64, 64
1, 190289, Control_c, 0, 64, 49
1, 190298, Note_on_c, 0, 67, 74
1, 190301, Note_off_c, 0, 70, 59
1, 190304, Control_c, 0, 64, 28
1, 190334, Control_c, 0, 64, 46
1, 190335, Note_on_c, 0, 51, 47
1, 190343, Note_on_c, 0, 61, 42
1, 190349, Control_c, 0, 64, 59
1, 190363, Control_c, 0, 64, 64
1, 190378, Control_c, 0, 64, 67
1, 190393, Control_c, 0, 64, 71
1, 190408, Control_c, 0, 64, 76
1, 190423, Control_c, 0, 64, 79
1, 190431, Note_off_c, 0, 61, 31
1, 190438, Control_c, 0, 64, 82
1, 190453, Control_c, 0, 64, 84
1, 190468, Control_c, 0, 64, 86
1, 190482, Control_c, 0, 64, 87
1, 190497, Control_c, 0, 64, 88
1, 190520, Note_off_c, 0, 55, 27
1, 190692, Note_on_c, 0, 72, 67
1, 190711, Control_c, 0, 64, 87
1, 190726, Control_c, 0, 64, 86
1, 190741, Control_c, 0, 64, 83
1, 190742, Note_off_c, 0, 67, 56
1, 190751, Note_on_c, 0, 56, 49
1, 190755, Control_c, 0, 64, 80
1, 190770, Control_c, 0, 64, 75
1, 190772, Note_on_c, 0, 60, 24
1, 190785, Control_c, 0, 64, 68
1, 190800, Control_c, 0, 64, 60
1, 190805, Poly_aftertouch_c, 0, 63, 127
1, 190815, Control_c, 0, 64, 45
1, 190829, Control_c, 0, 64, 0
1, 190841, Note_off_c, 0, 51, 36
1, 190927, Note_off_c, 0, 60, 40
1, 190945, Poly_aftertouch_c, 0, 63, 0
1, 190948, Control_c, 0, 64, 32
1, 190963, Control_c, 0, 64, 43
1, 190978, Control_c, 0, 64, 53
1, 190992, Control_c, 0, 64, 59
1, 191007, Control_c, 0, 64, 61
1, 191022, Control_c, 0, 64, 63
1, 191037, Control_c, 0, 64, 65
1, 191052, Control_c, 0, 64, 67
1, 191067, Control_c, 0, 64, 70
1, 191081, Control_c, 0, 64, 73
1, 191090, Note_on_c, 0, 63, 40
1, 191096, Control_c, 0, 64, 75
1, 191112, Control_c, 0, 64, 77
1, 191119, Note_on_c, 0, 60, 38
1, 191127, Control_c, 0, 64, 80
1, 191141, Control_c, 0, 64, 82
1, 191156, Control_c, 0, 64, 84
1, 191171, Control_c, 0, 64, 85
1, 191186, Control_c, 0, 64, 86
1, 191207, Note_off_c, 0, 63, 38
1, 191216, Control_c, 0, 64, 86
1, 191222, Note_off_c, 0, 60, 39
1, 191392, Note_on_c, 0, 63, 38
1, 191404, Note_on_c, 0, 60, 33
1, 191409, Control_c, 0, 64, 85
1, 191431, Control_c, 0, 64, 78
1, 191440, Note_on_c, 0, 51, 32
1, 191446, Control_c, 0, 64, 68
1, 191460, Control_c, 0, 64, 53
1, 191475, Control_c, 0, 64, 37
1, 191490, Control_c, 0, 64, 34
1, 191493, Note_off_c, 0, 56, 47
1, 191505, Control_c, 0, 64, 41
1, 191520, Control_c, 0, 64, 52
1, 191535, Control_c, 0, 64, 60
1, 191550, Control_c, 0, 64, 65
1, 191553, Note_off_c, 0, 60, 39
1, 191554, Note_off_c, 0, 63, 36
1, 191565, Control_c, 0, 64, 70
1, 191579, Control_c, 0, 64, 74
1, 191579, Control_c, 0, 67, 111
1, 191594, Control_c, 0, 64, 78
1, 191594, Control_c, 0, 67, 77
1, 191609, Control_c, 0, 64, 82
1, 191609, Control_c, 0, 67, 39
1, 191623, Control_c, 0, 64, 87
1, 191623, Control_c, 0, 67, 0
1, 191636, Note_off_c, 0, 51, 51
1, 191638, Control_c, 0, 64, 91
1, 191653, Control_c, 0, 64, 96
1, 191668, Control_c, 0, 64, 102
1, 191682, Note_on_c, 0, 63, 40
1, 191683, Control_c, 0, 64, 108
1, 191695, Note_on_c, 0, 60, 34
1, 191697, Control_c, 0, 64, 119
1, 191712, Control_c, 0, 64, 127
1, 191738, Note_off_c, 0, 63, 55
1, 191749, Note_off_c, 0, 60, 60
1, 191766, Note_off_c, 0, 72, 62
1, 191986, Note_on_c, 0, 75, 64
1, 192044, Note_on_c, 0, 63, 25
1, 192045, Note_on_c, 0, 58, 37
1, 192054, Control_c, 0, 64, 87
1, 192060, Note_on_c, 0, 61, 31
1, 192069, Control_c, 0, 64, 64
1, 192083, Control_c, 0, 64, 48
1, 192098, Control_c, 0, 64, 41
1, 192113, Control_c, 0, 64, 45
1, 192127, Control_c, 0, 64, 55
1, 192139, Note_off_c, 0, 61, 52
1, 192142, Control_c, 0, 64, 63
1, 192157, Control_c, 0, 64, 69
1, 192179, Control_c, 0, 64, 77
1, 192194, Control_c, 0, 64, 83
1, 192195, Note_off_c, 0, 63, 35
1, 192209, Control_c, 0, 64, 89
1, 192224, Control_c, 0, 64, 96
1, 192238, Control_c, 0, 64, 103
1, 192253, Control_c, 0, 64, 114
1, 192268, Control_c, 0, 64, 127
1, 192311, Note_on_c, 0, 63, 47
1, 192315, Note_on_c, 0, 61, 34
1, 192391, Note_off_c, 0, 63, 54
1, 192399, Note_off_c, 0, 61, 55
1, 192614, Note_on_c, 0, 60, 49
1, 192617, Note_on_c, 0, 63, 41
1, 192638, Control_c, 0, 64, 117
1, 192653, Control_c, 0, 64, 89
1, 192668, Control_c, 0, 64, 71
1, 192680, Note_off_c, 0, 58, 52
1, 192683, Control_c, 0, 64, 53
1, 192698, Control_c, 0, 64, 39
1, 192713, Control_c, 0, 64, 36
1, 192728, Control_c, 0, 64, 41
1, 192742, Control_c, 0, 64, 53
1, 192757, Control_c, 0, 64, 61
1, 192772, Control_c, 0, 64, 66
1, 192787, Control_c, 0, 64, 71
1, 192802, Control_c, 0, 64, 76
1, 192805, Note_off_c, 0, 63, 52
1, 192817, Control_c, 0, 64, 80
1, 192832, Control_c, 0, 64, 84
1, 192847, Control_c, 0, 64, 90
1, 192861, Control_c, 0, 64, 94
1, 192876, Control_c, 0, 64, 100
1, 192891, Control_c, 0, 64, 106
1, 192906, Control_c, 0, 64, 114
1, 192912, Note_on_c, 0, 80, 64
1, 192928, Control_c, 0, 64, 127
1, 192966, Note_on_c, 0, 63, 40
1, 192978, Note_on_c, 0, 68, 22
1, 193051, Note_off_c, 0, 68, 49
1, 193058, Note_off_c, 0, 80, 55
1, 193065, Note_off_c, 0, 75, 60
1, 193169, Note_off_c, 0, 63, 34
1, 193221, Note_on_c, 0, 79, 64
1, 193269, Control_c, 0, 64, 97
1, 193279, Note_on_c, 0, 68, 34
1, 193279, Note_on_c, 0, 51, 43
1, 193283, Control_c, 0, 64, 73
1, 193298, Control_c, 0, 64, 59
1, 193313, Control_c, 0, 64, 47
1, 193321, Note_off_c, 0, 60, 42
1, 193328, Control_c, 0, 64, 47
1, 193342, Control_c, 0, 64, 54
1, 193357, Control_c, 0, 64, 62
1, 193372, Control_c, 0, 64, 69
1, 193377, Note_off_c, 0, 68, 47
1, 193387, Control_c, 0, 64, 77
1, 193401, Control_c, 0, 64, 87
1, 193402, Note_off_c, 0, 79, 61
1, 193416, Control_c, 0, 64, 91
1, 193431, Control_c, 0, 64, 96
1, 193446, Control_c, 0, 64, 100
1, 193461, Control_c, 0, 64, 102
1, 193532, Note_on_c, 0, 77, 70
1, 193551, Control_c, 0, 64, 100
1, 193565, Note_on_c, 0, 61, 47
1, 193566, Control_c, 0, 64, 86
1, 193571, Note_on_c, 0, 63, 48
1, 193580, Control_c, 0, 64, 69
1, 193595, Control_c, 0, 64, 49
1, 193610, Control_c, 0, 64, 0
1, 193639, Control_c, 0, 64, 40
1, 193642, Poly_aftertouch_c, 0, 68, 127
1, 193654, Control_c, 0, 64, 57
1, 193672, Note_off_c, 0, 61, 62
1, 193677, Control_c, 0, 64, 65
1, 193682, Note_off_c, 0, 63, 59
1, 193685, Poly_aftertouch_c, 0, 68, 0
1, 193692, Control_c, 0, 64, 70
1, 193706, Control_c, 0, 64, 76
1, 193707, Note_off_c, 0, 77, 61
1, 193721, Control_c, 0, 64, 82
1, 193736, Control_c, 0, 64, 87
1, 193751, Control_c, 0, 64, 92
1, 193766, Control_c, 0, 64, 95
1, 193795, Control_c, 0, 64, 97
1, 193845, Note_on_c, 0, 75, 70
1, 193854, Control_c, 0, 64, 90
1, 193856, Note_on_c, 0, 63, 54
1, 193869, Control_c, 0, 64, 72
1, 193881, Note_on_c, 0, 60, 45
1, 193884, Control_c, 0, 64, 52
1, 193888, Note_on_c, 0, 68, 37
1, 193899, Control_c, 0, 64, 0
1, 193944, Control_c, 0, 64, 38
1, 193958, Control_c, 0, 64, 58
1, 193973, Control_c, 0, 64, 65
1, 193975, Note_off_c, 0, 60, 59
1, 193978, Note_off_c, 0, 68, 35
1, 193982, Note_off_c, 0, 63, 62
1, 193988, Control_c, 0, 64, 69
1, 194003, Control_c, 0, 64, 74
1, 194010, Note_off_c, 0, 75, 61
1, 194018, Control_c, 0, 64, 80
1, 194028, Note_off_c, 0, 51, 38
1, 194032, Control_c, 0, 64, 86
1, 194047, Control_c, 0, 64, 92
1, 194062, Control_c, 0, 64, 95
1, 194106, Control_c, 0, 64, 97
1, 194136, Control_c, 0, 67, 46
1, 194151, Control_c, 0, 64, 95
1, 194151, Control_c, 0, 67, 61
1, 194159, Note_on_c, 0, 73, 60
1, 194166, Control_c, 0, 64, 81
1, 194166, Control_c, 0, 67, 79
1, 194174, Note_on_c, 0, 68, 50
1, 194180, Control_c, 0, 64, 63
1, 194180, Control_c, 0, 67, 90
1, 194189, Note_on_c, 0, 65, 46
1, 194195, Control_c, 0, 64, 39
1, 194195, Control_c, 0, 67, 102
1, 194210, Note_on_c, 0, 58, 36
1, 194210, Control_c, 0, 64, 0
1, 194210, Control_c, 0, 67, 113
1, 194224, Control_c, 0, 67, 126
1, 194239, Control_c, 0, 64, 34
1, 194254, Control_c, 0, 64, 54
1, 194269, Control_c, 0, 64, 64
1, 194284, Control_c, 0, 64, 68
1, 194285, Note_off_c, 0, 73, 62
1, 194300, Control_c, 0, 64, 73
1, 194314, Control_c, 0, 64, 78
1, 194317, Note_off_c, 0, 58, 58
1, 194329, Control_c, 0, 64, 83
1, 194343, Note_off_c, 0, 68, 59
1, 194344, Control_c, 0, 64, 87
1, 194353, Note_off_c, 0, 65, 57
1, 194359, Control_c, 0, 64, 91
1, 194374, Control_c, 0, 64, 93
1, 194388, Control_c, 0, 64, 94
1, 194515, Control_c, 0, 64, 93
1, 194544, Control_c, 0, 64, 93
1, 194559, Control_c, 0, 64, 91
1, 194574, Control_c, 0, 64, 87
1, 194581, Note_on_c, 0, 72, 52
1, 194589, Control_c, 0, 64, 81
1, 194590, Note_on_c, 0, 68, 45
1, 194603, Control_c, 0, 64, 75
1, 194608, Note_on_c, 0, 63, 41
1, 194618, Control_c, 0, 64, 66
1, 194633, Control_c, 0, 64, 58
1, 194647, Control_c, 0, 64, 45
1, 194662, Control_c, 0, 64, 0
1, 194766, Control_c, 0, 64, 33
1, 194781, Control_c, 0, 64, 49
1, 194796, Control_c, 0, 64, 60
1, 194811, Control_c, 0, 64, 65
1, 194813, Note_off_c, 0, 63, 58
1, 194826, Control_c, 0, 64, 69
1, 194841, Control_c, 0, 64, 73
1, 194855, Control_c, 0, 64, 76
1, 194870, Control_c, 0, 64, 80
1, 194885, Control_c, 0, 64, 84
1, 194900, Control_c, 0, 64, 88
1, 194915, Control_c, 0, 64, 91
1, 194929, Control_c, 0, 64, 94
1, 194944, Control_c, 0, 64, 96
1, 194974, Control_c, 0, 64, 98
1, 195026, Note_on_c, 0, 63, 40
1, 195100, Note_off_c, 0, 63, 51
1, 195115, Note_off_c, 0, 72, 43
1, 195124, Note_off_c, 0, 68, 53
1, 195339, Note_on_c, 0, 70, 43
1, 195359, Note_on_c, 0, 63, 40
1, 195367, Note_on_c, 0, 67, 29
1, 195383, Control_c, 0, 64, 96
1, 195398, Control_c, 0, 64, 84
1, 195413, Control_c, 0, 64, 67
1, 195427, Control_c, 0, 64, 50
1, 195442, Control_c, 0, 64, 31
1, 195457, Control_c, 0, 64, 34
1, 195471, Control_c, 0, 64, 48
1, 195486, Control_c, 0, 64, 62
1, 195494, Note_off_c, 0, 63, 56
1, 195501, Control_c, 0, 64, 72
1, 195516, Control_c, 0, 64, 79
1, 195545, Control_c, 0, 64, 72
1, 195560, Control_c, 0, 64, 63
1, 195575, Control_c, 0, 64, 54
1, 195590, Control_c, 0, 64, 53
1, 195604, Control_c, 0, 64, 56
1, 195619, Control_c, 0, 64, 60
1, 195634, Control_c, 0, 64, 65
1, 195640, Note_on_c, 0, 63, 45
1, 195649, Control_c, 0, 64, 70
1, 195664, Control_c, 0, 64, 75
1, 195678, Control_c, 0, 64, 78
1, 195693, Control_c, 0, 64, 81
1, 195700, Note_off_c, 0, 67, 41
1, 195708, Control_c, 0, 64, 84
1, 195710, Note_off_c, 0, 70, 53
1, 195723, Control_c, 0, 64, 87
1, 195737, Note_off_c, 0, 63, 46
1, 195738, Control_c, 0, 64, 89
1, 195753, Control_c, 0, 64, 91
1, 195797, Control_c, 0, 64, 91
1, 195909, Note_on_c, 0, 63, 35
1, 195924, Control_c, 0, 64, 91
1, 195939, Control_c, 0, 64, 86
1, 195954, Control_c, 0, 64, 69
1, 195969, Control_c, 0, 64, 51
1, 195983, Control_c, 0, 64, 0
1, 196027, Control_c, 0, 64, 45
1, 196042, Control_c, 0, 64, 58
1, 196057, Control_c, 0, 64, 64
1, 196072, Control_c, 0, 64, 67
1, 196078, Note_off_c, 0, 63, 51
1, 196087, Control_c, 0, 64, 71
1, 196102, Control_c, 0, 64, 74
1, 196117, Control_c, 0, 64, 77
1, 196132, Control_c, 0, 64, 80
1, 196146, Control_c, 0, 64, 82
1, 196161, Control_c, 0, 64, 84
1, 196176, Control_c, 0, 64, 85
1, 196191, Control_c, 0, 64, 86
1, 196206, Control_c, 0, 64, 88
1, 196216, Note_on_c, 0, 63, 41
1, 196220, Control_c, 0, 64, 89
1, 196235, Control_c, 0, 64, 90
1, 196250, Control_c, 0, 64, 91
1, 196265, Control_c, 0, 64, 92
1, 196280, Control_c, 0, 64, 93
1, 196294, Note_off_c, 0, 63, 55
1, 196294, Control_c, 0, 64, 93
1, 196309, Control_c, 0, 64, 94
1, 196324, Control_c, 0, 64, 94
1, 196339, Control_c, 0, 64, 95
1, 196368, Control_c, 0, 64, 96
1, 196604, Note_on_c, 0, 70, 62
1, 196641, Note_on_c, 0, 55, 40
1, 196675, Note_on_c, 0, 63, 27
1, 196705, Poly_aftertouch_c, 0, 61, 127
1, 196717, Control_c, 0, 64, 95
1, 196731, Control_c, 0, 64, 92
1, 196746, Control_c, 0, 64, 84
1, 196761, Control_c, 0, 64, 73
1, 196776, Control_c, 0, 64, 60
1, 196791, Control_c, 0, 64, 48
1, 196791, Control_c, 0, 67, 111
1, 196805, Control_c, 0, 64, 45
1, 196805, Control_c, 0, 67, 84
1, 196820, Control_c, 0, 64, 50
1, 196820, Control_c, 0, 67, 47
1, 196835, Control_c, 0, 64, 57
1, 196835, Control_c, 0, 67, 0
1, 196850, Control_c, 0, 64, 62
1, 196865, Control_c, 0, 64, 68
1, 196880, Control_c, 0, 64, 74
1, 196895, Control_c, 0, 64, 80
1, 196910, Control_c, 0, 64, 84
1, 196921, Poly_aftertouch_c, 0, 61, 0
1, 196922, Note_off_c, 0, 63, 40
1, 196924, Control_c, 0, 64, 88
1, 196939, Control_c, 0, 64, 92
1, 196954, Control_c, 0, 64, 97
1, 196969, Control_c, 0, 64, 103
1, 196984, Control_c, 0, 64, 108
1, 196998, Control_c, 0, 64, 112
1, 197013, Control_c, 0, 64, 114
1, 197028, Control_c, 0, 64, 117
1, 197042, Control_c, 0, 64, 120
1, 197057, Control_c, 0, 64, 127
1, 197083, Note_on_c, 0, 63, 38
1, 197100, Note_on_c, 0, 61, 33
1, 197223, Note_off_c, 0, 63, 35
1, 197258, Note_off_c, 0, 61, 41
1, 197413, Note_on_c, 0, 67, 53
1, 197442, Note_on_c, 0, 61, 17
1, 197449, Control_c, 0, 64, 95
1, 197452, Note_on_c, 0, 63, 32
1, 197464, Control_c, 0, 64, 77
1, 197479, Control_c, 0, 64, 64
1, 197494, Note_on_c, 0, 51, 28
1, 197495, Control_c, 0, 64, 62
1, 197510, Control_c, 0, 64, 63
1, 197525, Control_c, 0, 64, 65
1, 197540, Control_c, 0, 64, 69
1, 197554, Control_c, 0, 64, 75
1, 197562, Note_off_c, 0, 70, 38
1, 197569, Control_c, 0, 64, 83
1, 197584, Control_c, 0, 64, 93
1, 197595, Note_off_c, 0, 63, 34
1, 197599, Control_c, 0, 64, 106
1, 197602, Note_off_c, 0, 61, 39
1, 197614, Control_c, 0, 64, 127
1, 197702, Control_c, 0, 64, 84
1, 197707, Note_on_c, 0, 68, 71
1, 197714, Note_off_c, 0, 55, 31
1, 197717, Control_c, 0, 64, 65
1, 197723, Note_on_c, 0, 61, 40
1, 197725, Note_on_c, 0, 63, 46
1, 197732, Control_c, 0, 64, 47
1, 197733, Note_on_c, 0, 53, 50
1, 197747, Control_c, 0, 64, 34
1, 197762, Control_c, 0, 64, 40
1, 197777, Control_c, 0, 64, 52
1, 197785, Note_off_c, 0, 67, 56
1, 197791, Control_c, 0, 64, 61
1, 197806, Control_c, 0, 64, 67
1, 197821, Control_c, 0, 64, 72
1, 197836, Control_c, 0, 64, 77
1, 197842, Note_off_c, 0, 51, 41
1, 197851, Control_c, 0, 64, 82
1, 197865, Control_c, 0, 64, 87
1, 197879, Note_off_c, 0, 63, 53
1, 197880, Control_c, 0, 64, 93
1, 197888, Note_off_c, 0, 61, 37
1, 197895, Control_c, 0, 64, 98
1, 197910, Control_c, 0, 64, 105
1, 197925, Control_c, 0, 64, 114
1, 197954, Control_c, 0, 64, 109
1, 197961, Note_on_c, 0, 70, 76
1, 197969, Control_c, 0, 64, 85
1, 197983, Note_on_c, 0, 55, 61
1, 197983, Control_c, 0, 64, 60
1, 197998, Control_c, 0, 64, 0
1, 198004, Note_off_c, 0, 68, 57
1, 198011, Note_on_c, 0, 61, 31
1, 198014, Note_on_c, 0, 63, 35
1, 198055, Note_off_c, 0, 53, 50
1, 198057, Control_c, 0, 64, 49
1, 198068, Note_off_c, 0, 61, 42
1, 198073, Control_c, 0, 64, 61
1, 198078, Note_off_c, 0, 63, 52
1, 198088, Control_c, 0, 64, 68
1, 198103, Control_c, 0, 64, 77
1, 198118, Control_c, 0, 64, 88
1, 198132, Control_c, 0, 64, 97
1, 198147, Control_c, 0, 64, 101
1, 198185, Control_c, 0, 64, 93
1, 198199, Control_c, 0, 64, 69
1, 198214, Control_c, 0, 64, 44
1, 198229, Control_c, 0, 64, 0
1, 198238, Note_on_c, 0, 67, 75
1, 198245, Note_off_c, 0, 70, 58
1, 198263, Note_on_c, 0, 51, 59
1, 198266, Note_on_c, 0, 61, 58
1, 198273, Control_c, 0, 64, 32
1, 198289, Control_c, 0, 64, 54
1, 198304, Control_c, 0, 64, 62
1, 198319, Control_c, 0, 64, 67
1, 198334, Control_c, 0, 64, 71
1, 198349, Control_c, 0, 64, 76
1, 198363, Control_c, 0, 64, 80
1, 198366, Note_off_c, 0, 61, 62
1, 198378, Control_c, 0, 64, 82
1, 198383, Note_off_c, 0, 55, 29
1, 198393, Control_c, 0, 64, 84
1, 198408, Control_c, 0, 64, 84
1, 198422, Control_c, 0, 64, 85
1, 198511, Control_c, 0, 64, 84
1, 198582, Note_on_c, 0, 72, 70
1, 198585, Control_c, 0, 64, 84
1, 198600, Control_c, 0, 64, 82
1, 198615, Control_c, 0, 64, 79
1, 198630, Control_c, 0, 64, 75
1, 198644, Control_c, 0, 64, 69
1, 198645, Note_on_c, 0, 63, 29
1, 198646, Note_on_c, 0, 56, 58
1, 198646, Note_off_c, 0, 67, 53
1, 198648, Note_on_c, 0, 60, 24
1, 198659, Control_c, 0, 64, 64
1, 198674, Control_c, 0, 64, 56
1, 198689, Control_c, 0, 64, 43
1, 198704, Control_c, 0, 64, 0
1, 198738, Note_off_c, 0, 51, 37
1, 198805, Note_off_c, 0, 63, 22
1, 198815, Note_off_c, 0, 60, 42
1, 198852, Control_c, 0, 64, 41
1, 198867, Control_c, 0, 64, 56
1, 198882, Control_c, 0, 64, 63
1, 198896, Control_c, 0, 64, 65
1, 198919, Control_c, 0, 64, 66
1, 198934, Control_c, 0, 64, 69
1, 198948, Control_c, 0, 64, 72
1, 198951, Note_on_c, 0, 63, 39
1, 198957, Note_on_c, 0, 60, 33
1, 198963, Control_c, 0, 64, 75
1, 198978, Control_c, 0, 64, 77
1, 198993, Control_c, 0, 64, 79
1, 199008, Control_c, 0, 64, 81
1, 199022, Control_c, 0, 64, 84
1, 199037, Control_c, 0, 64, 88
1, 199052, Control_c, 0, 64, 93
1, 199067, Control_c, 0, 64, 96
1, 199078, Note_off_c, 0, 63, 36
1, 199082, Control_c, 0, 64, 99
1, 199098, Control_c, 0, 64, 103
1, 199108, Note_off_c, 0, 60, 34
1, 199112, Control_c, 0, 64, 106
1, 199127, Control_c, 0, 64, 108
1, 199142, Control_c, 0, 64, 111
1, 199157, Control_c, 0, 64, 114
1, 199172, Control_c, 0, 64, 117
1, 199201, Control_c, 0, 64, 120
1, 199231, Control_c, 0, 64, 124
1, 199247, Note_on_c, 0, 60, 36
1, 199247, Note_on_c, 0, 63, 34
1, 199260, Control_c, 0, 64, 127
1, 199328, Note_off_c, 0, 63, 45
1, 199380, Note_off_c, 0, 56, 49
1, 199393, Note_off_c, 0, 60, 34
1, 199589, Note_on_c, 0, 60, 32
1, 199593, Note_on_c, 0, 63, 39
1, 199652, Note_off_c, 0, 60, 61
1, 199674, Note_off_c, 0, 63, 59
1, 199724, Note_off_c, 0, 72, 62
1, 199904, Note_on_c, 0, 50, 34
1, 199984, Note_on_c, 0, 60, 40
1, 200022, Note_on_c, 0, 65, 36
1, 200084, Note_on_c, 0, 68, 44
1, 200113, Control_c, 0, 64, 114
1, 200128, Control_c, 0, 64, 99
1, 200142, Control_c, 0, 64, 91
1, 200157, Control_c, 0, 64, 83
1, 200172, Control_c, 0, 64, 76
1, 200186, Control_c, 0, 64, 69
1, 200201, Control_c, 0, 64, 63
1, 200216, Control_c, 0, 64, 56
1, 200218, Note_on_c, 0, 77, 69
1, 200231, Control_c, 0, 64, 44
1, 200246, Control_c, 0, 64, 0
1, 200334, Control_c, 0, 64, 49
1, 200349, Control_c, 0, 64, 61
1, 200364, Control_c, 0, 64, 67
1, 200379, Control_c, 0, 64, 73
1, 200393, Control_c, 0, 64, 79
1, 200415, Control_c, 0, 64, 85
1, 200430, Control_c, 0, 64, 94
1, 200445, Note_off_c, 0, 65, 40
1, 200445, Control_c, 0, 64, 108
1, 200460, Control_c, 0, 64, 127
1, 200463, Note_off_c, 0, 68, 33
1, 200737, Note_off_c, 0, 60, 23
1, 200741, Note_on_c, 0, 65, 32
1, 200744, Note_on_c, 0, 68, 34
1, 200747, Note_off_c, 0, 50, 37
1, 200816, Control_c, 0, 67, 43
1, 200831, Control_c, 0, 67, 60
1, 200846, Control_c, 0, 67, 79
1, 200861, Control_c, 0, 67, 95
1, 200862, Note_off_c, 0, 77, 40
1, 200876, Control_c, 0, 67, 111
1, 200890, Control_c, 0, 67, 126
1, 200897, Note_off_c, 0, 68, 35
1, 200936, Note_off_c, 0, 65, 36
1, 201166, Note_on_c, 0, 76, 60
1, 201214, Note_on_c, 0, 55, 33
1, 201216, Note_on_c, 0, 67, 31
1, 201226, Note_on_c, 0, 60, 33
1, 201229, Note_on_c, 0, 64, 30
1, 201284, Control_c, 0, 64, 112
1, 201298, Control_c, 0, 64, 93
1, 201313, Control_c, 0, 64, 77
1, 201328, Control_c, 0, 64, 62
1, 201342, Control_c, 0, 64, 37
1, 201357, Control_c, 0, 64, 0
1, 201432, Control_c, 0, 64, 42
1, 201446, Control_c, 0, 64, 58
1, 201461, Control_c, 0, 64, 66
1, 201476, Control_c, 0, 64, 70
1, 201492, Control_c, 0, 64, 75
1, 201507, Control_c, 0, 64, 79
1, 201521, Control_c, 0, 64, 84
1, 201530, Note_off_c, 0, 64, 43
1, 201530, Note_off_c, 0, 67, 39
1, 201536, Control_c, 0, 64, 89
1, 201551, Control_c, 0, 64, 94
1, 201566, Control_c, 0, 64, 99
1, 201581, Control_c, 0, 64, 104
1, 201596, Control_c, 0, 64, 111
1, 201610, Control_c, 0, 64, 124
1, 201625, Control_c, 0, 64, 127
1, 201689, Note_on_c, 0, 67, 33
1, 201692, Note_on_c, 0, 64, 35
1, 201840, Note_off_c, 0, 60, 39
1, 201875, Note_off_c, 0, 67, 43
1, 201879, Note_off_c, 0, 64, 45
1, 202023, Note_on_c, 0, 64, 37
1, 202024, Note_on_c, 0, 67, 40
1, 202061, Note_off_c, 0, 55, 40
1, 202162, Note_off_c, 0, 67, 36
1, 202186, Note_off_c, 0, 64, 35
1, 202314, Note_on_c, 0, 72, 59
1, 202344, Note_on_c, 0, 64, 37
1, 202344, Note_on_c, 0, 67, 34
1, 202388, Note_off_c, 0, 67, 49
1, 202423, Note_off_c, 0, 64, 58
1, 202473, Note_off_c, 0, 72, 59
1, 202505, Note_off_c, 0, 76, 52
1, 202690, Note_on_c, 0, 74, 63
1, 202752, Note_on_c, 0, 59, 38
1, 202763, Note_on_c, 0, 65, 31
1, 202764, Note_on_c, 0, 43, 41
1, 202765, Note_on_c, 0, 67, 36
1, 202781, Control_c, 0, 64, 108
1, 202796, Control_c, 0, 64, 75
1, 202811, Control_c, 0, 64, 56
1, 202826, Control_c, 0, 64, 40
1, 202841, Control_c, 0, 64, 45
1, 202855, Control_c, 0, 64, 56
1, 202870, Control_c, 0, 64, 63
1, 202885, Control_c, 0, 64, 70
1, 202893, Note_off_c, 0, 43, 60
1, 202900, Control_c, 0, 64, 80
1, 202915, Control_c, 0, 64, 92
1, 202929, Control_c, 0, 64, 103
1, 202944, Control_c, 0, 64, 117
1, 202959, Control_c, 0, 64, 127
1, 202992, Note_off_c, 0, 59, 62
1, 202995, Note_off_c, 0, 65, 30
1, 202999, Note_off_c, 0, 67, 30
1, 203098, Note_on_c, 0, 79, 59
1, 203136, Note_on_c, 0, 71, 34
1, 203176, Note_on_c, 0, 62, 42
1, 203214, Note_off_c, 0, 71, 34
1, 203232, Note_off_c, 0, 62, 60
1, 203358, Note_off_c, 0, 79, 31
1, 203369, Note_on_c, 0, 64, 42
1, 203370, Note_off_c, 0, 74, 27
1, 203470, Note_on_c, 0, 72, 42
1, 203578, Note_on_c, 0, 48, 43
1, 203721, Control_c, 0, 64, 113
1, 203736, Control_c, 0, 64, 102
1, 203751, Control_c, 0, 64, 94
1, 203766, Control_c, 0, 64, 87
1, 203768, Note_on_c, 0, 79, 54
1, 203781, Control_c, 0, 64, 80
1, 203795, Control_c, 0, 64, 73
1, 203810, Control_c, 0, 64, 65
1, 203825, Control_c, 0, 64, 59
1, 203840, Control_c, 0, 64, 53
1, 203855, Control_c, 0, 64, 46
1, 203870, Control_c, 0, 64, 32
1, 203885, Control_c, 0, 64, 0
1, 203959, Control_c, 0, 64, 37
1, 203974, Control_c, 0, 64, 52
1, 203989, Control_c, 0, 64, 61
1, 204004, Control_c, 0, 64, 66
1, 204010, Note_off_c, 0, 64, 39
1, 204019, Control_c, 0, 64, 70
1, 204033, Control_c, 0, 64, 74
1, 204048, Control_c, 0, 64, 78
1, 204063, Control_c, 0, 64, 82
1, 204078, Control_c, 0, 64, 87
1, 204093, Control_c, 0, 64, 91
1, 204107, Control_c, 0, 64, 96
1, 204122, Control_c, 0, 64, 100
1, 204137, Control_c, 0, 64, 103
1, 204159, Control_c, 0, 64, 106
1, 204168, Note_off_c, 0, 79, 56
1, 204174, Control_c, 0, 64, 109
1, 204189, Control_c, 0, 64, 112
1, 204204, Note_off_c, 0, 72, 37
1, 204204, Control_c, 0, 64, 117
1, 204219, Control_c, 0, 64, 127
1, 204269, Note_on_c, 0, 55, 31
1, 204307, Note_off_c, 0, 48, 40
1, 204446, Note_off_c, 0, 55, 37
1, 204621, Note_on_c, 0, 64, 44
1, 204758, Note_off_c, 0, 64, 64
1, 204925, Note_on_c, 0, 67, 56
1, 204953, Control_c, 0, 64, 92
1, 204968, Control_c, 0, 64, 73
1, 204982, Control_c, 0, 64, 59
1, 204997, Control_c, 0, 64, 53
1, 205012, Control_c, 0, 64, 54
1, 205027, Control_c, 0, 64, 57
1, 205042, Control_c, 0, 64, 60
1, 205056, Control_c, 0, 64, 63
1, 205071, Control_c, 0, 64, 66
1, 205086, Control_c, 0, 64, 71
1, 205086, Control_c, 0, 67, 111
1, 205091, Note_off_c, 0, 67, 62
1, 205101, Control_c, 0, 64, 76
1, 205101, Control_c, 0, 67, 81
1, 205116, Control_c, 0, 64, 79
1, 205116, Control_c, 0, 67, 44
1, 205131, Control_c, 0, 64, 81
1, 205131, Control_c, 0, 67, 0
1, 205146, Control_c, 0, 64, 84
1, 205161, Control_c, 0, 64, 89
1, 205176, Control_c, 0, 64, 94
1, 205190, Control_c, 0, 64, 95
1, 205205, Control_c, 0, 64, 94
1, 205217, Note_on_c, 0, 72, 59
1, 205220, Control_c, 0, 64, 87
1, 205235, Control_c, 0, 64, 71
1, 205250, Control_c, 0, 64, 58
1, 205264, Control_c, 0, 64, 49
1, 205279, Control_c, 0, 64, 50
1, 205294, Control_c, 0, 64, 55
1, 205309, Control_c, 0, 64, 61
1, 205324, Control_c, 0, 64, 65
1, 205338, Control_c, 0, 64, 71
1, 205353, Control_c, 0, 64, 76
1, 205368, Control_c, 0, 64, 79
1, 205372, Note_off_c, 0, 72, 59
1, 205382, Control_c, 0, 64, 81
1, 205397, Control_c, 0, 64, 83
1, 205412, Control_c, 0, 64, 85
1, 205427, Control_c, 0, 64, 86
1, 205442, Control_c, 0, 64, 88
1, 205456, Control_c, 0, 64, 89
1, 205487, Control_c, 0, 64, 89
1, 205530, Note_on_c, 0, 71, 59
1, 205532, Control_c, 0, 64, 88
1, 205546, Control_c, 0, 64, 77
1, 205561, Control_c, 0, 64, 63
1, 205576, Control_c, 0, 64, 47
1, 205591, Control_c, 0, 64, 40
1, 205605, Control_c, 0, 64, 44
1, 205620, Control_c, 0, 64, 54
1, 205635, Control_c, 0, 64, 62
1, 205658, Control_c, 0, 64, 67
1, 205659, Note_off_c, 0, 71, 63
1, 205673, Control_c, 0, 64, 72
1, 205687, Control_c, 0, 64, 76
1, 205702, Control_c, 0, 64, 79
1, 205717, Control_c, 0, 64, 82
1, 205732, Control_c, 0, 64, 84
1, 205747, Control_c, 0, 64, 87
1, 205761, Control_c, 0, 64, 87
1, 205932, Note_on_c, 0, 70, 51
1, 205954, Control_c, 0, 64, 86
1, 205964, Note_on_c, 0, 61, 38
1, 205969, Control_c, 0, 64, 85
1, 205983, Control_c, 0, 64, 84
1, 205998, Control_c, 0, 64, 82
1, 206001, Note_on_c, 0, 67, 27
1, 206013, Control_c, 0, 64, 79
1, 206028, Control_c, 0, 64, 76
1, 206043, Control_c, 0, 64, 72
1, 206058, Control_c, 0, 64, 67
1, 206073, Control_c, 0, 64, 62
1, 206087, Control_c, 0, 64, 57
1, 206102, Control_c, 0, 64, 50
1, 206117, Control_c, 0, 64, 37
1, 206131, Control_c, 0, 64, 0
1, 206220, Control_c, 0, 64, 38
1, 206235, Control_c, 0, 64, 54
1, 206250, Control_c, 0, 64, 63
1, 206265, Control_c, 0, 64, 66
1, 206281, Control_c, 0, 64, 69
1, 206295, Control_c, 0, 64, 72
1, 206310, Control_c, 0, 64, 76
1, 206325, Control_c, 0, 64, 81
1, 206340, Control_c, 0, 64, 87
1, 206354, Note_off_c, 0, 67, 43
1, 206355, Control_c, 0, 64, 93
1, 206369, Control_c, 0, 64, 100
1, 206372, Note_on_c, 0, 87, 54
1, 206384, Control_c, 0, 64, 109
1, 206407, Note_on_c, 0, 75, 36
1, 206407, Control_c, 0, 64, 127
1, 206693, Note_on_c, 0, 67, 46
1, 206701, Note_on_c, 0, 63, 46
1, 206726, Note_off_c, 0, 75, 51
1, 206801, Note_off_c, 0, 70, 49
1, 206806, Note_off_c, 0, 87, 54
1, 206961, Note_on_c, 0, 87, 64
1, 206973, Note_off_c, 0, 67, 61
1, 206976, Note_on_c, 0, 75, 60
1, 206979, Note_on_c, 0, 68, 54
1, 207004, Note_on_c, 0, 65, 41
1, 207113, Note_off_c, 0, 65, 54
1, 207119, Note_off_c, 0, 68, 37
1, 207122, Note_off_c, 0, 63, 36
1, 207125, Note_off_c, 0, 61, 36
1, 207235, Note_on_c, 0, 69, 67
1, 207244, Control_c, 0, 64, 85
1, 207249, Note_on_c, 0, 66, 52
1, 207254, Note_on_c, 0, 61, 57
1, 207258, Control_c, 0, 64, 67
1, 207273, Control_c, 0, 64, 58
1, 207288, Control_c, 0, 64, 60
1, 207303, Control_c, 0, 64, 65
1, 207318, Control_c, 0, 64, 70
1, 207332, Control_c, 0, 64, 79
1, 207338, Note_off_c, 0, 75, 56
1, 207343, Note_off_c, 0, 87, 57
1, 207347, Control_c, 0, 64, 88
1, 207362, Control_c, 0, 64, 95
1, 207372, Note_off_c, 0, 66, 62
1, 207373, Note_off_c, 0, 69, 59
1, 207376, Control_c, 0, 64, 101
1, 207391, Control_c, 0, 64, 108
1, 207406, Control_c, 0, 64, 117
1, 207421, Control_c, 0, 64, 127
1, 207493, Note_on_c, 0, 87, 74
1, 207504, Note_on_c, 0, 70, 78
1, 207504, Note_on_c, 0, 75, 70
1, 207510, Control_c, 0, 64, 102
1, 207522, Note_on_c, 0, 67, 56
1, 207525, Control_c, 0, 64, 77
1, 207539, Control_c, 0, 64, 61
1, 207554, Control_c, 0, 64, 48
1, 207569, Control_c, 0, 64, 49
1, 207584, Control_c, 0, 64, 58
1, 207599, Control_c, 0, 64, 65
1, 207614, Control_c, 0, 64, 75
1, 207620, Note_off_c, 0, 67, 62
1, 207629, Control_c, 0, 64, 86
1, 207635, Note_off_c, 0, 70, 65
1, 207644, Control_c, 0, 64, 96
1, 207658, Control_c, 0, 64, 104
1, 207663, Note_off_c, 0, 75, 63
1, 207673, Control_c, 0, 64, 118
1, 207688, Control_c, 0, 64, 127
1, 207734, Note_off_c, 0, 61, 39
1, 207734, Note_off_c, 0, 87, 57
1, 207789, Note_on_c, 0, 72, 72
1, 207843, Note_on_c, 0, 60, 38
1, 207847, Note_on_c, 0, 68, 42
1, 207866, Control_c, 0, 64, 119
1, 207882, Control_c, 0, 64, 103
1, 207904, Control_c, 0, 64, 91
1, 207919, Control_c, 0, 64, 79
1, 207934, Control_c, 0, 64, 65
1, 207949, Control_c, 0, 64, 46
1, 207963, Control_c, 0, 64, 0
1, 208022, Control_c, 0, 64, 31
1, 208037, Control_c, 0, 64, 52
1, 208052, Control_c, 0, 64, 65
1, 208064, Note_on_c, 0, 80, 70
1, 208067, Control_c, 0, 64, 74
1, 208082, Control_c, 0, 64, 87
1, 208097, Control_c, 0, 64, 113
1, 208112, Control_c, 0, 64, 127
1, 208190, Note_off_c, 0, 60, 58
1, 208250, Note_off_c, 0, 72, 58
1, 208260, Note_off_c, 0, 68, 61
1, 208288, Note_off_c, 0, 80, 62
1, 208297, Note_on_c, 0, 84, 73
1, 208340, Note_off_c, 0, 84, 62
1, 208348, Control_c, 0, 67, 43
1, 208363, Control_c, 0, 67, 73
1, 208378, Control_c, 0, 67, 103
1, 208392, Control_c, 0, 67, 127
1, 208513, Note_on_c, 0, 87, 67
1, 208523, Note_on_c, 0, 72, 43
1, 208532, Note_on_c, 0, 75, 52
1, 208540, Note_off_c, 0, 87, 65
1, 208541, Note_on_c, 0, 80, 31
1, 208584, Note_on_c, 0, 89, 66
1, 208602, Note_off_c, 0, 80, 41
1, 208617, Note_off_c, 0, 89, 62
1, 208630, Note_on_c, 0, 87, 70
1, 208663, Note_off_c, 0, 87, 66
1, 208715, Note_on_c, 0, 86, 61
1, 208749, Note_off_c, 0, 86, 64
1, 208751, Note_on_c, 0, 87, 78
1, 208821, Note_on_c, 0, 79, 43
1, 208835, Note_on_c, 0, 91, 78
1, 208843, Note_off_c, 0, 72, 55
1, 208846, Note_off_c, 0, 87, 61
1, 208853, Note_on_c, 0, 70, 49
1, 208875, Control_c, 0, 64, 118
1, 208890, Control_c, 0, 64, 95
1, 208905, Control_c, 0, 64, 79
1, 208920, Control_c, 0, 64, 63
1, 208934, Control_c, 0, 64, 43
1, 208949, Control_c, 0, 64, 0
1, 209053, Control_c, 0, 64, 41
1, 209068, Control_c, 0, 64, 56
1, 209083, Control_c, 0, 64, 63
1, 209095, Note_on_c, 0, 89, 76
1, 209097, Control_c, 0, 64, 67
1, 209112, Control_c, 0, 64, 70
1, 209114, Note_off_c, 0, 79, 60
1, 209117, Note_on_c, 0, 73, 51
1, 209122, Note_off_c, 0, 91, 66
1, 209127, Control_c, 0, 64, 73
1, 209142, Control_c, 0, 64, 78
1, 209156, Control_c, 0, 64, 84
1, 209171, Control_c, 0, 64, 90
1, 209186, Control_c, 0, 64, 94
1, 209187, Note_off_c, 0, 70, 27
1, 209193, Note_off_c, 0, 75, 58
1, 209197, Note_off_c, 0, 73, 60
1, 209201, Control_c, 0, 64, 98
1, 209215, Control_c, 0, 64, 104
1, 209230, Control_c, 0, 64, 107
1, 209247, Note_off_c, 0, 89, 58
1, 209260, Control_c, 0, 64, 109
1, 209449, Note_on_c, 0, 87, 53
1, 209453, Note_on_c, 0, 80, 49
1, 209460, Control_c, 0, 64, 107
1, 209476, Control_c, 0, 64, 104
1, 209478, Note_on_c, 0, 72, 41
1, 209491, Control_c, 0, 64, 100
1, 209506, Control_c, 0, 64, 96
1, 209521, Control_c, 0, 64, 91
1, 209535, Control_c, 0, 64, 84
1, 209550, Control_c, 0, 64, 77
1, 209565, Control_c, 0, 64, 70
1, 209579, Control_c, 0, 64, 63
1, 209594, Control_c, 0, 64, 55
1, 209609, Control_c, 0, 64, 46
1, 209624, Control_c, 0, 64, 30
1, 209639, Control_c, 0, 64, 0
1, 209757, Control_c, 0, 64, 33
1, 209772, Control_c, 0, 64, 48
1, 209787, Control_c, 0, 64, 59
1, 209799, Note_on_c, 0, 92, 62
1, 209802, Control_c, 0, 64, 63
1, 209817, Control_c, 0, 64, 66
1, 209818, Note_on_c, 0, 77, 48
1, 209832, Control_c, 0, 64, 69
1, 209846, Control_c, 0, 64, 72
1, 209861, Control_c, 0, 64, 76
1, 209876, Control_c, 0, 64, 79
1, 209891, Control_c, 0, 64, 81
1, 209905, Control_c, 0, 64, 84
1, 209920, Control_c, 0, 64, 86
1, 209923, Note_off_c, 0, 72, 41
1, 209929, Note_off_c, 0, 77, 35
1, 209935, Control_c, 0, 64, 89
1, 209950, Control_c, 0, 64, 92
1, 209965, Control_c, 0, 64, 93
1, 209969, Note_off_c, 0, 92, 64
1, 209979, Control_c, 0, 64, 93
1, 209994, Control_c, 0, 64, 94
1, 210049, Note_on_c, 0, 91, 65
1, 210066, Note_on_c, 0, 75, 48
1, 210081, Note_off_c, 0, 87, 57
1, 210083, Control_c, 0, 64, 93
1, 210094, Note_off_c, 0, 75, 59
1, 210097, Control_c, 0, 64, 90
1, 210106, Note_off_c, 0, 80, 59
1, 210112, Control_c, 0, 64, 83
1, 210127, Control_c, 0, 64, 74
1, 210149, Note_off_c, 0, 91, 60
1, 210150, Control_c, 0, 64, 67
1, 210165, Control_c, 0, 64, 61
1, 210179, Control_c, 0, 64, 54
1, 210194, Control_c, 0, 64, 48
1, 210209, Control_c, 0, 64, 38
1, 210224, Control_c, 0, 64, 0
1, 210288, Note_on_c, 0, 89, 63
1, 210300, Note_on_c, 0, 73, 52
1, 210308, Note_on_c, 0, 80, 52
1, 210350, Note_off_c, 0, 80, 58
1, 210355, Note_off_c, 0, 73, 58
1, 210371, Note_off_c, 0, 89, 61
1, 210544, Note_on_c, 0, 87, 68
1, 210553, Note_on_c, 0, 75, 52
1, 210557, Note_on_c, 0, 72, 43
1, 210566, Note_on_c, 0, 80, 46
1, 210588, Note_off_c, 0, 72, 60
1, 210599, Note_off_c, 0, 75, 58
1, 210606, Note_off_c, 0, 80, 55
1, 210616, Note_off_c, 0, 87, 61
1, 210830, Note_on_c, 0, 85, 67
1, 210834, Note_on_c, 0, 77, 46
1, 210844, Note_on_c, 0, 70, 49
1, 210863, Note_on_c, 0, 80, 48
1, 210917, Note_off_c, 0, 77, 64
1, 210917, Note_off_c, 0, 85, 63
1, 210926, Note_off_c, 0, 70, 62
1, 210939, Note_off_c, 0, 80, 62
1, 211224, Note_on_c, 0, 84, 62
1, 211252, Note_on_c, 0, 80, 45
1, 211266, Note_on_c, 0, 63, 42
1, 211269, Note_on_c, 0, 72, 34
1, 211280, Note_on_c, 0, 68, 34
1, 211313, Note_on_c, 0, 75, 6
1, 211329, Control_c, 0, 64, 29
1, 211343, Control_c, 0, 64, 39
1, 211358, Control_c, 0, 64, 50
1, 211373, Control_c, 0, 64, 57
1, 211388, Control_c, 0, 64, 60
1, 211403, Control_c, 0, 64, 62
1, 211418, Control_c, 0, 64, 64
1, 211422, Note_off_c, 0, 80, 61
1, 211432, Control_c, 0, 64, 67
1, 211447, Control_c, 0, 64, 70
1, 211462, Control_c, 0, 64, 74
1, 211474, Note_off_c, 0, 75, 41
1, 211477, Control_c, 0, 64, 77
1, 211492, Control_c, 0, 64, 80
1, 211507, Control_c, 0, 64, 83
1, 211522, Control_c, 0, 64, 86
1, 211537, Control_c, 0, 64, 89
1, 211547, Note_off_c, 0, 72, 37
1, 211551, Control_c, 0, 64, 92
1, 211566, Control_c, 0, 64, 96
1, 211581, Control_c, 0, 64, 99
1, 211582, Note_off_c, 0, 68, 54
1, 211596, Control_c, 0, 64, 101
1, 211611, Control_c, 0, 64, 104
1, 211625, Control_c, 0, 64, 106
1, 211647, Control_c, 0, 64, 108
1, 211677, Control_c, 0, 64, 112
1, 211692, Control_c, 0, 64, 114
1, 211722, Control_c, 0, 64, 117
1, 211725, Note_off_c, 0, 84, 38
1, 211737, Control_c, 0, 64, 119
1, 211766, Control_c, 0, 64, 122
1, 211781, Control_c, 0, 64, 124
1, 212048, Control_c, 0, 64, 122
1, 212142, Note_on_c, 0, 82, 37
1, 212152, Control_c, 0, 64, 119
1, 212154, Note_on_c, 0, 79, 33
1, 212160, Note_on_c, 0, 70, 32
1, 212168, Note_on_c, 0, 67, 32
1, 212181, Control_c, 0, 64, 117
1, 212211, Control_c, 0, 64, 114
1, 212226, Control_c, 0, 64, 111
1, 212240, Control_c, 0, 64, 108
1, 212255, Control_c, 0, 64, 105
1, 212270, Control_c, 0, 64, 101
1, 212285, Control_c, 0, 64, 95
1, 212300, Control_c, 0, 64, 89
1, 212315, Control_c, 0, 64, 82
1, 212330, Control_c, 0, 64, 72
1, 212345, Control_c, 0, 64, 61
1, 212360, Control_c, 0, 64, 46
1, 212374, Control_c, 0, 64, 0
1, 212470, Control_c, 0, 64, 30
1, 212485, Control_c, 0, 64, 44
1, 212500, Control_c, 0, 64, 54
1, 212515, Control_c, 0, 64, 59
1, 212529, Control_c, 0, 64, 61
1, 212544, Control_c, 0, 64, 63
1, 212559, Control_c, 0, 64, 66
1, 212574, Control_c, 0, 64, 68
1, 212589, Control_c, 0, 64, 71
1, 212604, Control_c, 0, 64, 74
1, 212619, Control_c, 0, 64, 76
1, 212631, Note_off_c, 0, 79, 34
1, 212634, Control_c, 0, 64, 78
1, 212648, Control_c, 0, 64, 81
1, 212663, Control_c, 0, 64, 83
1, 212668, Note_off_c, 0, 82, 30
1, 212679, Control_c, 0, 64, 84
1, 212684, Note_off_c, 0, 63, 31
1, 212693, Control_c, 0, 64, 86
1, 212694, Note_off_c, 0, 67, 35
1, 212708, Control_c, 0, 64, 87
1, 212723, Control_c, 0, 64, 88
1, 212738, Control_c, 0, 64, 88
1, 212748, Note_off_c, 0, 70, 40
1, 212753, Control_c, 0, 64, 89
1, 212783, Control_c, 0, 64, 89
1, 212783, Control_c, 0, 67, 123
1, 212797, Control_c, 0, 67, 114
1, 212812, Control_c, 0, 67, 103
1, 212827, Control_c, 0, 67, 91
1, 212842, Control_c, 0, 67, 79
1, 212857, Control_c, 0, 67, 68
1, 212871, Control_c, 0, 67, 60
1, 212886, Control_c, 0, 67, 53
1, 212901, Control_c, 0, 67, 41
1, 212915, Control_c, 0, 67, 0
1, 213078, Control_c, 0, 64, 89
1, 213123, Control_c, 0, 64, 88
1, 213145, Control_c, 0, 64, 88
1, 213160, Control_c, 0, 64, 87
1, 213175, Control_c, 0, 64, 85
1, 213189, Control_c, 0, 64, 83
1, 213204, Control_c, 0, 64, 80
1, 213219, Control_c, 0, 64, 78
1, 213234, Control_c, 0, 64, 76
1, 213249, Control_c, 0, 64, 74
1, 213264, Control_c, 0, 64, 71
1, 213278, Control_c, 0, 64, 67
1, 213293, Control_c, 0, 64, 63
1, 213308, Control_c, 0, 64, 60
1, 213322, Control_c, 0, 64, 57
1, 213337, Control_c, 0, 64, 54
1, 213352, Control_c, 0, 64, 51
1, 213367, Control_c, 0, 64, 45
1, 213382, Control_c, 0, 64, 37
1, 213397, Control_c, 0, 64, 0
1, 213953, Control_c, 0, 64, 30
1, 213968, Control_c, 0, 64, 37
1, 213983, Control_c, 0, 64, 43
1, 213998, Control_c, 0, 64, 49
1, 214012, Control_c, 0, 64, 53
1, 214027, Control_c, 0, 64, 55
1, 214042, Control_c, 0, 64, 57
1, 214057, Control_c, 0, 64, 59
1, 214071, Control_c, 0, 64, 60
1, 214086, Control_c, 0, 64, 62
1, 214101, Control_c, 0, 64, 63
1, 214116, Control_c, 0, 64, 64
1, 214131, Control_c, 0, 64, 65
1, 214145, Control_c, 0, 64, 66
1, 214160, Control_c, 0, 64, 67
1, 214175, Control_c, 0, 64, 69
1, 214190, Control_c, 0, 64, 70
1, 214201, Note_on_c, 0, 75, 60
1, 214205, Control_c, 0, 64, 72
1, 214220, Control_c, 0, 64, 73
1, 214235, Control_c, 0, 64, 75
1, 214249, Control_c, 0, 64, 77
1, 214265, Control_c, 0, 64, 78
1, 214280, Control_c, 0, 64, 80
1, 214295, Control_c, 0, 64, 82
1, 214310, Control_c, 0, 64, 84
1, 214324, Control_c, 0, 64, 86
1, 214339, Control_c, 0, 64, 88
1, 214354, Control_c, 0, 64, 91
1, 214362, Note_off_c, 0, 75, 64
1, 214369, Control_c, 0, 64, 93
1, 214384, Control_c, 0, 64, 95
1, 214398, Control_c, 0, 64, 97
1, 214428, Control_c, 0, 64, 100
1, 214487, Control_c, 0, 64, 102
1, 214669, Note_on_c, 0, 77, 64
1, 214765, Note_off_c, 0, 77, 39
1, 214772, Note_on_c, 0, 75, 73
1, 214802, Note_on_c, 0, 72, 41
1, 214819, Note_on_c, 0, 57, 35
1, 214819, Note_on_c, 0, 66, 40
1, 214822, Control_c, 0, 64, 98
1, 214836, Control_c, 0, 64, 91
1, 214851, Control_c, 0, 64, 82
1, 214866, Control_c, 0, 64, 70
1, 214881, Control_c, 0, 64, 57
1, 214895, Control_c, 0, 64, 0
1, 214955, Control_c, 0, 64, 35
1, 214969, Control_c, 0, 64, 50
1, 214984, Control_c, 0, 64, 61
1, 214999, Control_c, 0, 64, 66
1, 215014, Control_c, 0, 64, 71
1, 215029, Control_c, 0, 64, 75
1, 215043, Control_c, 0, 64, 79
1, 215058, Control_c, 0, 64, 83
1, 215074, Control_c, 0, 64, 86
1, 215089, Control_c, 0, 64, 89
1, 215104, Control_c, 0, 64, 91
1, 215118, Control_c, 0, 64, 92
1, 215127, Note_off_c, 0, 72, 50
1, 215133, Control_c, 0, 64, 93
1, 215147, Note_off_c, 0, 57, 40
1, 215148, Control_c, 0, 64, 94
1, 215171, Note_off_c, 0, 66, 38
1, 215173, Note_off_c, 0, 75, 62
1, 215391, Control_c, 0, 67, 43
1, 215406, Control_c, 0, 67, 49
1, 215421, Control_c, 0, 67, 52
1, 215436, Control_c, 0, 67, 54
1, 215451, Control_c, 0, 67, 55
1, 215466, Control_c, 0, 67, 56
1, 215481, Control_c, 0, 64, 93
1, 215481, Control_c, 0, 67, 56
1, 215510, Control_c, 0, 67, 57
1, 215525, Control_c, 0, 64, 93
1, 215540, Control_c, 0, 64, 92
1, 215540, Control_c, 0, 67, 58
1, 215543, Note_on_c, 0, 74, 54
1, 215555, Control_c, 0, 64, 92
1, 215569, Note_on_c, 0, 58, 34
1, 215570, Control_c, 0, 64, 91
1, 215578, Note_on_c, 0, 65, 30
1, 215578, Note_on_c, 0, 70, 36
1, 215585, Control_c, 0, 64, 89
1, 215585, Control_c, 0, 67, 58
1, 215599, Control_c, 0, 64, 88
1, 215614, Control_c, 0, 64, 86
1, 215629, Control_c, 0, 64, 84
1, 215644, Control_c, 0, 64, 79
1, 215644, Control_c, 0, 67, 59
1, 215659, Control_c, 0, 64, 75
1, 215673, Control_c, 0, 64, 68
1, 215688, Control_c, 0, 64, 60
1, 215688, Control_c, 0, 67, 60
1, 215703, Control_c, 0, 64, 45
1, 215703, Control_c, 0, 67, 60
1, 215717, Control_c, 0, 64, 0
1, 215747, Control_c, 0, 67, 60
1, 215777, Control_c, 0, 67, 59
1, 215791, Control_c, 0, 67, 58
1, 215806, Control_c, 0, 64, 32
1, 215806, Control_c, 0, 67, 58
1, 215821, Control_c, 0, 64, 45
1, 215821, Control_c, 0, 67, 57
1, 215835, Control_c, 0, 64, 56
1, 215835, Control_c, 0, 67, 56
1, 215850, Control_c, 0, 64, 61
1, 215850, Control_c, 0, 67, 56
1, 215867, Control_c, 0, 64, 63
1, 215867, Control_c, 0, 67, 55
1, 215881, Control_c, 0, 64, 65
1, 215881, Control_c, 0, 67, 54
1, 215896, Control_c, 0, 64, 68
1, 215896, Control_c, 0, 67, 54
1, 215911, Control_c, 0, 64, 71
1, 215926, Control_c, 0, 64, 74
1, 215940, Control_c, 0, 64, 76
1, 215940, Control_c, 0, 67, 53
1, 215955, Control_c, 0, 64, 78
1, 215970, Control_c, 0, 64, 79
1, 215972, Note_off_c, 0, 70, 43
1, 215981, Note_off_c, 0, 74, 50
1, 215985, Control_c, 0, 64, 79
1, 215985, Control_c, 0, 67, 53
1, 216000, Control_c, 0, 64, 80
1, 216014, Control_c, 0, 64, 80
1, 216033, Note_off_c, 0, 58, 38
1, 216066, Note_off_c, 0, 65, 37
1, 216184, Control_c, 0, 64, 80
1, 216259, Control_c, 0, 64, 79
1, 216273, Control_c, 0, 64, 78
1, 216288, Control_c, 0, 64, 77
1, 216303, Control_c, 0, 64, 76
1, 216318, Control_c, 0, 64, 75
1, 216333, Control_c, 0, 64, 74
1, 216347, Control_c, 0, 64, 72
1, 216362, Control_c, 0, 64, 71
1, 216377, Control_c, 0, 64, 70
1, 216392, Control_c, 0, 64, 68
1, 216407, Control_c, 0, 64, 66
1, 216421, Control_c, 0, 64, 64
1, 216436, Control_c, 0, 64, 62
1, 216451, Control_c, 0, 64, 61
1, 216465, Control_c, 0, 64, 59
1, 216480, Control_c, 0, 64, 57
1, 216495, Control_c, 0, 64, 55
1, 216510, Control_c, 0, 64, 51
1, 216525, Control_c, 0, 64, 48
1, 216539, Control_c, 0, 64, 44
1, 216554, Control_c, 0, 64, 40
1, 216569, Control_c, 0, 64, 36
1, 216584, Control_c, 0, 64, 33
1, 216599, Control_c, 0, 64, 32
1, 216628, Control_c, 0, 64, 29
1, 216948, Control_c, 0, 67, 53
1, 216962, Control_c, 0, 67, 54
1, 216977, Control_c, 0, 64, 0
1, 216977, Control_c, 0, 67, 57
1, 216992, Control_c, 0, 67, 58
1, 217007, Control_c, 0, 67, 60
1, 217022, Control_c, 0, 67, 61
1, 217037, Control_c, 0, 67, 63
1, 217052, Control_c, 0, 67, 65
1, 217066, Control_c, 0, 67, 70
1, 217081, Control_c, 0, 67, 119
1, 217096, Control_c, 0, 67, 127
1, 217427, Note_on_c, 0, 70, 48
1, 217438, Note_on_c, 0, 67, 37
1, 217451, Control_c, 0, 64, 31
1, 217453, Note_on_c, 0, 64, 27
1, 217460, Note_on_c, 0, 61, 32
1, 217467, Control_c, 0, 64, 36
1, 217482, Control_c, 0, 64, 45
1, 217497, Control_c, 0, 64, 54
1, 217511, Control_c, 0, 64, 59
1, 217526, Control_c, 0, 64, 62
1, 217541, Control_c, 0, 64, 64
1, 217556, Control_c, 0, 64, 67
1, 217571, Control_c, 0, 64, 70
1, 217585, Control_c, 0, 64, 74
1, 217586, Note_off_c, 0, 70, 60
1, 217600, Control_c, 0, 64, 77
1, 217606, Note_off_c, 0, 61, 48
1, 217615, Control_c, 0, 64, 78
1, 217623, Note_off_c, 0, 67, 37
1, 217638, Note_off_c, 0, 64, 45
1, 217638, Control_c, 0, 64, 80
1, 217653, Control_c, 0, 64, 82
1, 217667, Control_c, 0, 64, 84
1, 217682, Control_c, 0, 64, 85
1, 217697, Control_c, 0, 64, 85
1, 217711, Control_c, 0, 64, 86
1, 217838, Note_on_c, 0, 73, 47
1, 217865, Note_on_c, 0, 67, 39
1, 217873, Note_on_c, 0, 64, 34
1, 217882, Note_on_c, 0, 58, 37
1, 217889, Control_c, 0, 64, 85
1, 217904, Control_c, 0, 64, 85
1, 217919, Control_c, 0, 64, 83
1, 217934, Control_c, 0, 64, 80
1, 217949, Control_c, 0, 64, 76
1, 217964, Control_c, 0, 64, 70
1, 217979, Control_c, 0, 64, 61
1, 217993, Control_c, 0, 64, 46
1, 218008, Control_c, 0, 64, 35
1, 218023, Control_c, 0, 64, 34
1, 218037, Control_c, 0, 64, 36
1, 218052, Control_c, 0, 64, 40
1, 218067, Control_c, 0, 64, 44
1, 218082, Control_c, 0, 64, 50
1, 218097, Control_c, 0, 64, 58
1, 218111, Control_c, 0, 64, 62
1, 218126, Control_c, 0, 64, 65
1, 218141, Control_c, 0, 64, 67
1, 218156, Control_c, 0, 64, 69
1, 218171, Control_c, 0, 64, 72
1, 218185, Control_c, 0, 64, 74
1, 218200, Control_c, 0, 64, 76
1, 218215, Control_c, 0, 64, 78
1, 218229, Control_c, 0, 64, 80
1, 218244, Control_c, 0, 64, 81
1, 218261, Control_c, 0, 64, 82
1, 218276, Control_c, 0, 64, 83
1, 218290, Control_c, 0, 64, 84
1, 218305, Control_c, 0, 64, 84
1, 218349, Control_c, 0, 64, 85
1, 218359, Note_off_c, 0, 64, 43
1, 218387, Note_off_c, 0, 58, 37
1, 218415, Note_off_c, 0, 73, 45
1, 218435, Note_off_c, 0, 67, 40
1, 218811, Note_on_c, 0, 72, 37
1, 218837, Note_on_c, 0, 68, 29
1, 218842, Note_on_c, 0, 56, 27
1, 218846, Control_c, 0, 64, 84
1, 218846, Note_on_c, 0, 65, 27
1, 218875, Control_c, 0, 64, 84
1, 218890, Control_c, 0, 64, 83
1, 218905, Control_c, 0, 64, 82
1, 218920, Control_c, 0, 64, 79
1, 218934, Control_c, 0, 64, 75
1, 218949, Control_c, 0, 64, 68
1, 218964, Control_c, 0, 64, 58
1, 218979, Control_c, 0, 64, 39
1, 218994, Control_c, 0, 64, 0
1, 219038, Control_c, 0, 64, 31
1, 219054, Control_c, 0, 64, 41
1, 219069, Control_c, 0, 64, 53
1, 219083, Control_c, 0, 64, 61
1, 219098, Control_c, 0, 64, 64
1, 219113, Control_c, 0, 64, 67
1, 219135, Control_c, 0, 64, 70
1, 219150, Control_c, 0, 64, 72
1, 219165, Control_c, 0, 64, 74
1, 219180, Control_c, 0, 64, 75
1, 219195, Control_c, 0, 64, 76
1, 219202, Note_off_c, 0, 68, 34
1, 219212, Note_off_c, 0, 72, 31
1, 219215, Note_off_c, 0, 56, 39
1, 219225, Control_c, 0, 64, 77
1, 219230, Note_off_c, 0, 65, 41
1, 219283, Control_c, 0, 64, 76
1, 219372, Control_c, 0, 64, 76
1, 219387, Control_c, 0, 64, 75
1, 219402, Control_c, 0, 64, 73
1, 219417, Control_c, 0, 64, 70
1, 219431, Control_c, 0, 64, 67
1, 219446, Control_c, 0, 64, 63
1, 219461, Control_c, 0, 64, 60
1, 219475, Control_c, 0, 64, 56
1, 219490, Control_c, 0, 64, 54
1, 219505, Control_c, 0, 64, 52
1, 219520, Control_c, 0, 64, 51
1, 219535, Control_c, 0, 64, 48
1, 219549, Control_c, 0, 64, 46
1, 219564, Control_c, 0, 64, 44
1, 219579, Control_c, 0, 64, 43
1, 219594, Control_c, 0, 64, 43
1, 219609, Control_c, 0, 64, 42
1, 219624, Control_c, 0, 64, 41
1, 219639, Control_c, 0, 64, 40
1, 219654, Control_c, 0, 64, 40
1, 219669, Control_c, 0, 64, 39
1, 219683, Control_c, 0, 64, 39
1, 219698, Control_c, 0, 64, 38
1, 219743, Control_c, 0, 64, 38
1, 220166, Control_c, 0, 64, 38
1, 220462, Control_c, 0, 64, 39
1, 220477, Control_c, 0, 64, 39
1, 220506, Control_c, 0, 64, 40
1, 220521, Control_c, 0, 64, 41
1, 220536, Control_c, 0, 64, 42
1, 220551, Control_c, 0, 64, 43
1, 220566, Control_c, 0, 64, 44
1, 220581, Control_c, 0, 64, 45
1, 220596, Control_c, 0, 64, 46
1, 220611, Control_c, 0, 64, 48
1, 220632, Control_c, 0, 64, 49
1, 220647, Control_c, 0, 64, 51
1, 220664, Control_c, 0, 64, 52
1, 220664, Control_c, 0, 67, 122
1, 220679, Control_c, 0, 64, 53
1, 220679, Control_c, 0, 67, 120
1, 220685, Note_on_c, 0, 69, 59
1, 220693, Control_c, 0, 64, 53
1, 220708, Control_c, 0, 64, 54
1, 220723, Control_c, 0, 64, 55
1, 220737, Control_c, 0, 64, 57
1, 220738, Note_on_c, 0, 51, 36
1, 220752, Note_on_c, 0, 66, 23
1, 220752, Control_c, 0, 64, 58
1, 220763, Note_on_c, 0, 60, 17
1, 220767, Control_c, 0, 64, 59
1, 220782, Control_c, 0, 64, 60
1, 220797, Control_c, 0, 64, 62
1, 220811, Control_c, 0, 64, 63
1, 220826, Control_c, 0, 64, 65
1, 220841, Control_c, 0, 64, 66
1, 220855, Control_c, 0, 64, 70
1, 220870, Control_c, 0, 64, 73
1, 220885, Control_c, 0, 64, 76
1, 220900, Control_c, 0, 64, 78
1, 220915, Control_c, 0, 64, 81
1, 220930, Control_c, 0, 64, 84
1, 220945, Control_c, 0, 64, 87
1, 220959, Control_c, 0, 64, 90
1, 220972, Note_off_c, 0, 60, 42
1, 220974, Control_c, 0, 64, 92
1, 220989, Control_c, 0, 64, 94
1, 221004, Control_c, 0, 64, 95
1, 221034, Control_c, 0, 64, 97
1, 221034, Control_c, 0, 67, 122
1, 221078, Control_c, 0, 64, 99
1, 221155, Note_off_c, 0, 66, 43
1, 221213, Note_off_c, 0, 51, 39
1, 221381, Control_c, 0, 67, 124
1, 221476, Note_on_c, 0, 65, 30
1, 221516, Note_on_c, 0, 49, 32
1, 221526, Note_on_c, 0, 61, 20
1, 221530, Control_c, 0, 64, 97
1, 221559, Control_c, 0, 64, 94
1, 221574, Control_c, 0, 64, 93
1, 221574, Control_c, 0, 67, 126
1, 221589, Control_c, 0, 64, 91
1, 221604, Control_c, 0, 64, 88
1, 221619, Control_c, 0, 64, 85
1, 221633, Control_c, 0, 64, 80
1, 221648, Control_c, 0, 64, 76
1, 221663, Control_c, 0, 64, 70
1, 221678, Control_c, 0, 64, 62
1, 221693, Control_c, 0, 64, 54
1, 221708, Control_c, 0, 64, 48
1, 221723, Control_c, 0, 64, 47
1, 221737, Control_c, 0, 64, 48
1, 221752, Control_c, 0, 64, 49
1, 221767, Control_c, 0, 64, 52
1, 221782, Control_c, 0, 64, 56
1, 221797, Control_c, 0, 64, 59
1, 221812, Control_c, 0, 64, 62
1, 221826, Control_c, 0, 64, 63
1, 221841, Control_c, 0, 64, 66
1, 221856, Control_c, 0, 64, 69
1, 221871, Control_c, 0, 64, 73
1, 221885, Control_c, 0, 64, 74
1, 221900, Control_c, 0, 64, 76
1, 221915, Control_c, 0, 64, 78
1, 221930, Control_c, 0, 64, 80
1, 221945, Control_c, 0, 64, 82
1, 221954, Note_off_c, 0, 65, 42
1, 221959, Control_c, 0, 64, 83
1, 221974, Control_c, 0, 64, 85
1, 221978, Note_off_c, 0, 61, 37
1, 221989, Control_c, 0, 64, 86
1, 221991, Note_off_c, 0, 49, 36
1, 222003, Control_c, 0, 64, 86
1, 222014, Note_off_c, 0, 69, 37
1, 222018, Control_c, 0, 64, 87
1, 222233, Control_c, 0, 67, 124
1, 222279, Control_c, 0, 64, 86
1, 222308, Control_c, 0, 64, 86
1, 222323, Control_c, 0, 64, 85
1, 222338, Control_c, 0, 64, 84
1, 222353, Control_c, 0, 64, 83
1, 222362, Note_on_c, 0, 70, 44
1, 222368, Control_c, 0, 64, 81
1, 222382, Control_c, 0, 64, 78
1, 222397, Control_c, 0, 64, 76
1, 222412, Control_c, 0, 64, 73
1, 222427, Control_c, 0, 64, 69
1, 222442, Control_c, 0, 64, 65
1, 222456, Control_c, 0, 64, 58
1, 222456, Control_c, 0, 67, 121
1, 222471, Control_c, 0, 64, 49
1, 222486, Control_c, 0, 64, 29
1, 222486, Control_c, 0, 67, 119
1, 222501, Control_c, 0, 64, 0
1, 222501, Control_c, 0, 67, 117
1, 222530, Control_c, 0, 64, 30
1, 222530, Control_c, 0, 67, 115
1, 222545, Control_c, 0, 64, 41
1, 222560, Control_c, 0, 64, 52
1, 222575, Control_c, 0, 64, 60
1, 222575, Control_c, 0, 67, 111
1, 222590, Control_c, 0, 64, 65
1, 222605, Control_c, 0, 64, 68
1, 222605, Control_c, 0, 67, 106
1, 222614, Note_off_c, 0, 70, 62
1, 222620, Control_c, 0, 64, 71
1, 222620, Control_c, 0, 67, 83
1, 222634, Control_c, 0, 64, 75
1, 222634, Control_c, 0, 67, 66
1, 222649, Control_c, 0, 64, 80
1, 222649, Control_c, 0, 67, 56
1, 222664, Control_c, 0, 64, 83
1, 222664, Control_c, 0, 67, 50
1, 222679, Control_c, 0, 64, 86
1, 222679, Control_c, 0, 67, 46
1, 222694, Control_c, 0, 64, 87
1, 222694, Control_c, 0, 67, 44
1, 222708, Control_c, 0, 64, 88
1, 222708, Control_c, 0, 67, 41
1, 222723, Control_c, 0, 64, 89
1, 222723, Control_c, 0, 67, 0
1, 222738, Control_c, 0, 64, 89
1, 222786, Note_on_c, 0, 79, 48
1, 222879, Control_c, 0, 64, 88
1, 222894, Control_c, 0, 64, 83
1, 222908, Control_c, 0, 64, 69
1, 222923, Control_c, 0, 64, 58
1, 222938, Control_c, 0, 64, 47
1, 222953, Control_c, 0, 64, 46
1, 222968, Control_c, 0, 64, 47
1, 222982, Control_c, 0, 64, 53
1, 222997, Control_c, 0, 64, 60
1, 223012, Control_c, 0, 64, 64
1, 223026, Control_c, 0, 64, 68
1, 223041, Control_c, 0, 64, 74
1, 223057, Control_c, 0, 64, 80
1, 223072, Control_c, 0, 64, 83
1, 223076, Note_off_c, 0, 79, 39
1, 223087, Control_c, 0, 64, 85
1, 223102, Control_c, 0, 64, 88
1, 223117, Control_c, 0, 64, 90
1, 223131, Control_c, 0, 64, 92
1, 223146, Control_c, 0, 64, 92
1, 223161, Control_c, 0, 64, 93
1, 223169, Note_on_c, 0, 77, 49
1, 223176, Control_c, 0, 64, 93
1, 223191, Control_c, 0, 64, 94
1, 223235, Control_c, 0, 64, 92
1, 223249, Control_c, 0, 64, 82
1, 223264, Control_c, 0, 64, 70
1, 223279, Control_c, 0, 64, 60
1, 223294, Control_c, 0, 64, 58
1, 223309, Control_c, 0, 64, 62
1, 223323, Control_c, 0, 64, 65
1, 223338, Note_off_c, 0, 77, 58
1, 223338, Control_c, 0, 64, 69
1, 223353, Control_c, 0, 64, 73
1, 223368, Control_c, 0, 64, 78
1, 223383, Control_c, 0, 64, 81
1, 223398, Control_c, 0, 64, 84
1, 223413, Control_c, 0, 64, 87
1, 223428, Control_c, 0, 64, 91
1, 223443, Control_c, 0, 64, 96
1, 223457, Control_c, 0, 64, 103
1, 223460, Note_on_c, 0, 75, 57
1, 223472, Control_c, 0, 64, 108
1, 223502, Control_c, 0, 64, 99
1, 223517, Control_c, 0, 64, 81
1, 223531, Control_c, 0, 64, 66
1, 223546, Control_c, 0, 64, 55
1, 223561, Control_c, 0, 64, 54
1, 223576, Control_c, 0, 64, 58
1, 223591, Control_c, 0, 64, 63
1, 223605, Control_c, 0, 64, 69
1, 223627, Control_c, 0, 64, 77
1, 223642, Control_c, 0, 64, 87
1, 223653, Note_off_c, 0, 75, 57
1, 223657, Control_c, 0, 64, 104
1, 223672, Control_c, 0, 64, 127
1, 223720, Note_on_c, 0, 73, 61
1, 223731, Control_c, 0, 64, 91
1, 223746, Control_c, 0, 64, 72
1, 223761, Control_c, 0, 64, 62
1, 223776, Control_c, 0, 64, 62
1, 223791, Control_c, 0, 64, 66
1, 223805, Control_c, 0, 64, 72
1, 223820, Control_c, 0, 64, 80
1, 223835, Control_c, 0, 64, 84
1, 223851, Control_c, 0, 64, 86
1, 223866, Control_c, 0, 64, 90
1, 223866, Note_off_c, 0, 73, 55
1, 223880, Control_c, 0, 64, 93
1, 223895, Control_c, 0, 64, 94
1, 223910, Control_c, 0, 64, 94
1, 224009, Note_on_c, 0, 72, 55
1, 224014, Control_c, 0, 64, 94
1, 224028, Control_c, 0, 64, 92
1, 224043, Control_c, 0, 64, 87
1, 224058, Control_c, 0, 64, 78
1, 224072, Control_c, 0, 64, 66
1, 224087, Control_c, 0, 64, 52
1, 224102, Control_c, 0, 64, 0
1, 224161, Control_c, 0, 64, 40
1, 224176, Control_c, 0, 64, 56
1, 224191, Control_c, 0, 64, 64
1, 224206, Control_c, 0, 64, 69
1, 224218, Note_off_c, 0, 72, 58
1, 224221, Control_c, 0, 64, 74
1, 224235, Control_c, 0, 64, 77
1, 224250, Control_c, 0, 64, 82
1, 224265, Control_c, 0, 64, 89
1, 224280, Control_c, 0, 64, 97
1, 224295, Control_c, 0, 64, 102
1, 224304, Note_on_c, 0, 75, 53
1, 224310, Control_c, 0, 64, 105
1, 224325, Control_c, 0, 64, 108
1, 224340, Control_c, 0, 64, 110
1, 224355, Control_c, 0, 64, 113
1, 224355, Note_on_c, 0, 73, 55
1, 224396, Note_off_c, 0, 75, 60
1, 224423, Note_off_c, 0, 73, 60
1, 224689, Control_c, 0, 64, 108
1, 224703, Control_c, 0, 64, 105
1, 224718, Control_c, 0, 64, 101
1, 224723, Note_on_c, 0, 65, 42
1, 224733, Control_c, 0, 64, 95
1, 224734, Note_on_c, 0, 61, 21
1, 224748, Control_c, 0, 64, 89
1, 224751, Note_on_c, 0, 56, 30
1, 224763, Note_on_c, 0, 46, 32
1, 224763, Control_c, 0, 64, 82
1, 224778, Control_c, 0, 64, 73
1, 224793, Control_c, 0, 64, 62
1, 224793, Control_c, 0, 67, 45
1, 224808, Control_c, 0, 64, 48
1, 224808, Control_c, 0, 67, 56
1, 224823, Control_c, 0, 64, 0
1, 224823, Control_c, 0, 67, 67
1, 224838, Control_c, 0, 67, 74
1, 224852, Control_c, 0, 67, 77
1, 224867, Control_c, 0, 64, 30
1, 224867, Control_c, 0, 67, 81
1, 224882, Control_c, 0, 64, 46
1, 224882, Control_c, 0, 67, 88
1, 224896, Control_c, 0, 64, 58
1, 224896, Control_c, 0, 67, 100
1, 224911, Control_c, 0, 64, 64
1, 224911, Control_c, 0, 67, 109
1, 224926, Control_c, 0, 64, 69
1, 224926, Control_c, 0, 67, 115
1, 224941, Control_c, 0, 64, 74
1, 224941, Control_c, 0, 67, 120
1, 224956, Control_c, 0, 64, 79
1, 224956, Control_c, 0, 67, 122
1, 224970, Control_c, 0, 64, 84
1, 224985, Control_c, 0, 64, 90
1, 225000, Control_c, 0, 64, 96
1, 225015, Control_c, 0, 64, 101
1, 225016, Note_off_c, 0, 46, 40
1, 225029, Control_c, 0, 64, 106
1, 225040, Note_off_c, 0, 56, 41
1, 225044, Control_c, 0, 64, 112
1, 225059, Control_c, 0, 64, 118
1, 225074, Control_c, 0, 64, 127
1, 225074, Control_c, 0, 67, 124
1, 225076, Note_on_c, 0, 68, 56
1, 225142, Note_off_c, 0, 61, 25
1, 225150, Note_off_c, 0, 65, 39
1, 225185, Control_c, 0, 67, 126
1, 225219, Note_off_c, 0, 68, 57
1, 225377, Control_c, 0, 64, 119
1, 225392, Control_c, 0, 64, 114
1, 225407, Control_c, 0, 64, 109
1, 225422, Control_c, 0, 64, 106
1, 225437, Control_c, 0, 64, 103
1, 225452, Control_c, 0, 64, 100
1, 225454, Note_on_c, 0, 67, 47
1, 225467, Control_c, 0, 64, 97
1, 225470, Note_on_c, 0, 61, 36
1, 225482, Control_c, 0, 64, 94
1, 225492, Note_on_c, 0, 51, 36
1, 225497, Note_on_c, 0, 58, 32
1, 225497, Control_c, 0, 64, 90
1, 225512, Control_c, 0, 64, 85
1, 225526, Control_c, 0, 64, 77
1, 225541, Control_c, 0, 64, 66
1, 225556, Control_c, 0, 64, 46
1, 225571, Control_c, 0, 64, 0
1, 225645, Control_c, 0, 64, 35
1, 225660, Control_c, 0, 64, 54
1, 225675, Control_c, 0, 64, 63
1, 225690, Control_c, 0, 64, 68
1, 225705, Control_c, 0, 64, 72
1, 225719, Control_c, 0, 64, 76
1, 225732, Note_off_c, 0, 58, 49
1, 225734, Note_off_c, 0, 67, 60
1, 225734, Control_c, 0, 64, 80
1, 225749, Control_c, 0, 64, 86
1, 225764, Control_c, 0, 64, 92
1, 225778, Control_c, 0, 64, 98
1, 225792, Control_c, 0, 64, 103
1, 225807, Control_c, 0, 64, 108
1, 225822, Control_c, 0, 64, 114
1, 225831, Note_off_c, 0, 51, 43
1, 225837, Control_c, 0, 64, 119
1, 225851, Control_c, 0, 64, 124
1, 225874, Control_c, 0, 64, 127
1, 225942, Note_on_c, 0, 70, 51
1, 226075, Note_off_c, 0, 61, 40
1, 226205, Note_off_c, 0, 70, 33
1, 226298, Note_on_c, 0, 32, 46
1, 226364, Control_c, 0, 64, 124
1, 226379, Control_c, 0, 64, 122
1, 226394, Control_c, 0, 64, 119
1, 226409, Control_c, 0, 64, 116
1, 226423, Control_c, 0, 64, 113
1, 226438, Control_c, 0, 64, 110
1, 226438, Note_on_c, 0, 60, 45
1, 226453, Control_c, 0, 64, 107
1, 226467, Control_c, 0, 64, 104
1, 226482, Control_c, 0, 64, 101
1, 226497, Control_c, 0, 64, 98
1, 226512, Control_c, 0, 64, 96
1, 226527, Control_c, 0, 64, 94
1, 226541, Control_c, 0, 64, 91
1, 226543, Note_on_c, 0, 63, 53
1, 226556, Control_c, 0, 64, 89
1, 226571, Control_c, 0, 64, 87
1, 226586, Control_c, 0, 64, 84
1, 226600, Control_c, 0, 64, 83
1, 226623, Control_c, 0, 64, 81
1, 226638, Control_c, 0, 64, 80
1, 226653, Control_c, 0, 64, 78
1, 226668, Control_c, 0, 64, 77
1, 226682, Control_c, 0, 64, 75
1, 226697, Control_c, 0, 64, 73
1, 226712, Control_c, 0, 64, 72
1, 226727, Control_c, 0, 64, 71
1, 226742, Control_c, 0, 64, 69
1, 226756, Control_c, 0, 64, 68
1, 226771, Control_c, 0, 64, 67
1, 226786, Control_c, 0, 64, 66
1, 226800, Control_c, 0, 64, 65
1, 226815, Control_c, 0, 64, 64
1, 226830, Control_c, 0, 64, 64
1, 226860, Control_c, 0, 64, 63
1, 226874, Note_on_c, 0, 68, 58
1, 226874, Control_c, 0, 64, 60
1, 226889, Control_c, 0, 64, 58
1, 226904, Control_c, 0, 64, 55
1, 226919, Control_c, 0, 64, 49
1, 226934, Control_c, 0, 64, 40
1, 226948, Control_c, 0, 64, 30
1, 226963, Control_c, 0, 64, 0
1, 226978, Control_c, 0, 64, 33
1, 226993, Control_c, 0, 64, 42
1, 227008, Control_c, 0, 64, 51
1, 227023, Control_c, 0, 64, 58
1, 227038, Control_c, 0, 64, 62
1, 227053, Control_c, 0, 64, 66
1, 227068, Control_c, 0, 64, 71
1, 227083, Control_c, 0, 64, 79
1, 227097, Control_c, 0, 64, 87
1, 227112, Control_c, 0, 64, 99
1, 227127, Control_c, 0, 64, 127
1, 227339, Note_off_c, 0, 32, 38
1, 227383, Note_on_c, 0, 44, 35
1, 227464, Note_off_c, 0, 60, 32
1, 227468, Note_off_c, 0, 44, 61
1, 227570, Note_off_c, 0, 63, 35
1, 227736, Note_on_c, 0, 51, 41
1, 227967, Note_off_c, 0, 51, 40
1, 227985, Note_on_c, 0, 56, 47
1, 228106, Note_off_c, 0, 56, 56
1, 228186, Note_on_c, 0, 60, 45
1, 228302, Note_off_c, 0, 68, 54
1, 228339, Note_off_c, 0, 60, 38
1, 228371, Note_on_c, 0, 63, 53
1, 228606, Note_on_c, 0, 68, 53
1, 228641, Control_c, 0, 67, 117
1, 228656, Control_c, 0, 67, 102
1, 228670, Control_c, 0, 67, 86
1, 228672, Note_off_c, 0, 63, 49
1, 228685, Control_c, 0, 67, 70
1, 228700, Control_c, 0, 67, 53
1, 228715, Control_c, 0, 67, 0
1, 228858, Note_off_c, 0, 68, 52
1, 228877, Note_on_c, 0, 70, 64
1, 229085, Note_off_c, 0, 70, 61
1, 229124, Note_on_c, 0, 72, 76
1, 229286, Note_off_c, 0, 72, 61
1, 229358, Note_on_c, 0, 73, 79
1, 229464, Note_off_c, 0, 73, 57
1, 229526, Note_on_c, 0, 32, 57
1, 229599, Note_on_c, 0, 60, 47
1, 229661, Note_on_c, 0, 66, 57
1, 229723, Note_on_c, 0, 69, 45
1, 229810, Control_c, 0, 64, 110
1, 229825, Control_c, 0, 64, 103
1, 229840, Control_c, 0, 64, 96
1, 229854, Control_c, 0, 64, 91
1, 229869, Control_c, 0, 64, 86
1, 229884, Control_c, 0, 64, 81
1, 229899, Control_c, 0, 64, 77
1, 229914, Control_c, 0, 64, 72
1, 229917, Note_on_c, 0, 74, 77
1, 229929, Control_c, 0, 64, 66
1, 229944, Control_c, 0, 64, 60
1, 229959, Control_c, 0, 64, 55
1, 229973, Control_c, 0, 64, 50
1, 229988, Control_c, 0, 64, 44
1, 230003, Control_c, 0, 64, 41
1, 230017, Control_c, 0, 64, 44
1, 230032, Control_c, 0, 64, 52
1, 230047, Control_c, 0, 64, 60
1, 230062, Control_c, 0, 64, 66
1, 230077, Control_c, 0, 64, 73
1, 230091, Control_c, 0, 64, 84
1, 230106, Control_c, 0, 64, 97
1, 230121, Control_c, 0, 64, 127
1, 230147, Note_off_c, 0, 32, 50
1, 230156, Note_off_c, 0, 69, 62
1, 230172, Note_on_c, 0, 44, 45
1, 230213, Note_off_c, 0, 44, 62
1, 230220, Note_off_c, 0, 60, 61
1, 230229, Note_off_c, 0, 66, 62
1, 230458, Note_on_c, 0, 54, 42
1, 230617, Note_on_c, 0, 75, 67
1, 230668, Note_off_c, 0, 54, 51
1, 230677, Note_on_c, 0, 57, 45
1, 230742, Note_off_c, 0, 57, 63
1, 230801, Note_on_c, 0, 60, 47
1, 230803, Note_off_c, 0, 74, 52
1, 230837, Note_off_c, 0, 60, 64
1, 230948, Note_on_c, 0, 66, 57
1, 231145, Note_on_c, 0, 69, 57
1, 231164, Note_off_c, 0, 66, 38
1, 231306, Note_off_c, 0, 69, 62
1, 231373, Note_off_c, 0, 75, 49
1, 231639, Note_on_c, 0, 75, 81
1, 231839, Note_off_c, 0, 75, 59
1, 232036, Note_on_c, 0, 32, 52
1, 232121, Note_on_c, 0, 64, 46
1, 232174, Note_on_c, 0, 68, 50
1, 232235, Note_on_c, 0, 71, 60
1, 232293, Control_c, 0, 64, 107
1, 232308, Control_c, 0, 64, 93
1, 232323, Control_c, 0, 64, 82
1, 232338, Control_c, 0, 64, 71
1, 232344, Note_on_c, 0, 76, 76
1, 232353, Control_c, 0, 64, 60
1, 232367, Control_c, 0, 64, 44
1, 232382, Control_c, 0, 64, 0
1, 232442, Control_c, 0, 64, 36
1, 232457, Control_c, 0, 64, 53
1, 232472, Control_c, 0, 64, 63
1, 232486, Control_c, 0, 64, 71
1, 232501, Control_c, 0, 64, 81
1, 232516, Control_c, 0, 64, 96
1, 232530, Control_c, 0, 64, 127
1, 232586, Note_off_c, 0, 32, 32
1, 232601, Note_on_c, 0, 44, 50
1, 232644, Note_off_c, 0, 44, 64
1, 232817, Note_on_c, 0, 52, 51
1, 232932, Note_off_c, 0, 52, 36
1, 232981, Note_on_c, 0, 56, 50
1, 233023, Note_off_c, 0, 64, 36
1, 233051, Note_off_c, 0, 56, 52
1, 233120, Note_on_c, 0, 59, 56
1, 233155, Note_off_c, 0, 59, 62
1, 233254, Note_off_c, 0, 68, 26
1, 233264, Note_off_c, 0, 71, 35
1, 233273, Note_on_c, 0, 64, 53
1, 233358, Note_off_c, 0, 64, 61
1, 233467, Note_off_c, 0, 76, 60
1, 233482, Note_on_c, 0, 71, 46
1, 233497, Note_on_c, 0, 68, 41
1, 233643, Note_off_c, 0, 71, 60
1, 233743, Note_on_c, 0, 78, 62
1, 233814, Note_off_c, 0, 68, 60
1, 233904, Note_off_c, 0, 78, 58
1, 233969, Note_on_c, 0, 79, 74
1, 234094, Note_off_c, 0, 79, 62
1, 234189, Note_on_c, 0, 80, 85
1, 234284, Note_off_c, 0, 80, 60
1, 234345, Note_on_c, 0, 67, 57
1, 234409, Note_on_c, 0, 73, 56
1, 234445, Note_on_c, 0, 76, 59
1, 234502, Note_on_c, 0, 32, 51
1, 234511, Control_c, 0, 64, 117
1, 234526, Control_c, 0, 64, 102
1, 234541, Control_c, 0, 64, 91
1, 234555, Control_c, 0, 64, 83
1, 234570, Control_c, 0, 64, 75
1, 234585, Control_c, 0, 64, 66
1, 234600, Control_c, 0, 64, 56
1, 234615, Control_c, 0, 64, 43
1, 234630, Control_c, 0, 64, 0
1, 234644, Note_on_c, 0, 81, 84
1, 234675, Control_c, 0, 64, 29
1, 234689, Control_c, 0, 64, 46
1, 234704, Control_c, 0, 64, 61
1, 234719, Control_c, 0, 64, 69
1, 234733, Control_c, 0, 64, 80
1, 234748, Control_c, 0, 64, 94
1, 234763, Control_c, 0, 64, 127
1, 234823, Note_on_c, 0, 44, 51
1, 234824, Note_off_c, 0, 32, 43
1, 234867, Note_off_c, 0, 44, 63
1, 235028, Note_on_c, 0, 52, 49
1, 235081, Note_off_c, 0, 81, 61
1, 235117, Note_off_c, 0, 67, 33
1, 235159, Note_off_c, 0, 52, 36
1, 235212, Note_on_c, 0, 82, 70
1, 235251, Note_on_c, 0, 55, 42
1, 235321, Note_off_c, 0, 55, 61
1, 235384, Note_on_c, 0, 61, 43
1, 235411, Note_off_c, 0, 61, 59
1, 235542, Note_on_c, 0, 64, 47
1, 235593, Note_off_c, 0, 64, 54
1, 235761, Note_on_c, 0, 67, 43
1, 235870, Note_off_c, 0, 67, 58
1, 235877, Note_off_c, 0, 73, 27
1, 236016, Note_off_c, 0, 76, 38
1, 236104, Note_off_c, 0, 82, 38
1, 236311, Note_on_c, 0, 83, 66
1, 236387, Note_on_c, 0, 71, 33
1, 236490, Control_c, 0, 67, 37
1, 236504, Control_c, 0, 67, 45
1, 236519, Control_c, 0, 67, 51
1, 236527, Note_off_c, 0, 71, 35
1, 236534, Control_c, 0, 67, 56
1, 236549, Control_c, 0, 67, 61
1, 236564, Control_c, 0, 67, 68
1, 236578, Control_c, 0, 67, 73
1, 236593, Control_c, 0, 67, 79
1, 236608, Control_c, 0, 67, 83
1, 236615, Note_off_c, 0, 83, 52
1, 236623, Control_c, 0, 67, 86
1, 236639, Control_c, 0, 67, 89
1, 236654, Control_c, 0, 67, 90
1, 236669, Control_c, 0, 67, 91
1, 236730, Note_on_c, 0, 32, 35
1, 236805, Note_on_c, 0, 72, 38
1, 236854, Note_on_c, 0, 75, 53
1, 236890, Control_c, 0, 64, 99
1, 236905, Control_c, 0, 64, 86
1, 236920, Control_c, 0, 64, 76
1, 236928, Note_on_c, 0, 80, 46
1, 236935, Control_c, 0, 64, 67
1, 236949, Control_c, 0, 64, 60
1, 236964, Control_c, 0, 64, 52
1, 236979, Control_c, 0, 64, 38
1, 236994, Control_c, 0, 64, 0
1, 237069, Control_c, 0, 64, 29
1, 237074, Note_on_c, 0, 84, 66
1, 237083, Control_c, 0, 64, 49
1, 237106, Control_c, 0, 64, 60
1, 237106, Control_c, 0, 67, 92
1, 237121, Control_c, 0, 64, 67
1, 237135, Control_c, 0, 64, 74
1, 237135, Control_c, 0, 67, 92
1, 237150, Control_c, 0, 64, 84
1, 237150, Control_c, 0, 67, 94
1, 237157, Note_off_c, 0, 72, 43
1, 237165, Control_c, 0, 64, 99
1, 237165, Control_c, 0, 67, 95
1, 237170, Note_off_c, 0, 75, 54
1, 237180, Control_c, 0, 64, 127
1, 237195, Control_c, 0, 67, 100
1, 237208, Note_off_c, 0, 80, 51
1, 237209, Control_c, 0, 67, 127
1, 237327, Note_off_c, 0, 32, 41
1, 237366, Note_on_c, 0, 44, 43
1, 237405, Note_off_c, 0, 44, 61
1, 237620, Note_on_c, 0, 51, 32
1, 237783, Note_off_c, 0, 51, 35
1, 237786, Note_on_c, 0, 56, 46
1, 237868, Note_off_c, 0, 56, 51
1, 237942, Note_on_c, 0, 60, 50
1, 237977, Note_off_c, 0, 60, 64
1, 238090, Note_on_c, 0, 63, 51
1, 238165, Note_off_c, 0, 63, 62
1, 238371, Note_on_c, 0, 72, 36
1, 238377, Note_on_c, 0, 68, 35
1, 238502, Note_off_c, 0, 84, 48
1, 238572, Note_off_c, 0, 72, 35
1, 238636, Note_on_c, 0, 85, 58
1, 238660, Note_on_c, 0, 73, 40
1, 238687, Note_off_c, 0, 68, 31
1, 238747, Note_off_c, 0, 73, 58
1, 238832, Note_off_c, 0, 85, 56
1, 238865, Note_on_c, 0, 86, 72
1, 238881, Note_on_c, 0, 74, 54
1, 238885, Control_c, 0, 67, 98
1, 238899, Control_c, 0, 67, 49
1, 238914, Control_c, 0, 67, 0
1, 238915, Note_off_c, 0, 74, 60
1, 239047, Note_off_c, 0, 86, 61
1, 239062, Note_on_c, 0, 87, 73
1, 239086, Note_on_c, 0, 75, 59
1, 239128, Note_off_c, 0, 75, 61
1, 239131, Note_off_c, 0, 87, 64
1, 239218, Note_on_c, 0, 74, 47
1, 239310, Note_on_c, 0, 78, 51
1, 239357, Note_on_c, 0, 32, 41
1, 239367, Control_c, 0, 64, 104
1, 239382, Control_c, 0, 64, 88
1, 239396, Note_on_c, 0, 81, 48
1, 239397, Control_c, 0, 64, 72
1, 239411, Control_c, 0, 64, 58
1, 239426, Control_c, 0, 64, 37
1, 239441, Control_c, 0, 64, 0
1, 239464, Note_on_c, 0, 86, 72
1, 239471, Control_c, 0, 64, 40
1, 239486, Control_c, 0, 64, 52
1, 239501, Control_c, 0, 64, 64
1, 239516, Control_c, 0, 64, 73
1, 239530, Control_c, 0, 64, 87
1, 239545, Control_c, 0, 64, 110
1, 239560, Control_c, 0, 64, 127
1, 239603, Note_off_c, 0, 32, 42
1, 239616, Note_on_c, 0, 44, 49
1, 239653, Note_off_c, 0, 44, 63
1, 239664, Control_c, 0, 67, 45
1, 239678, Control_c, 0, 67, 75
1, 239693, Control_c, 0, 67, 116
1, 239708, Control_c, 0, 67, 127
1, 239717, Note_off_c, 0, 86, 63
1, 239720, Note_off_c, 0, 74, 60
1, 239829, Note_on_c, 0, 54, 43
1, 239946, Note_on_c, 0, 87, 70
1, 239948, Note_off_c, 0, 54, 56
1, 239981, Note_on_c, 0, 75, 44
1, 239992, Note_on_c, 0, 57, 46
1, 240039, Note_off_c, 0, 57, 59
1, 240109, Note_on_c, 0, 60, 52
1, 240142, Note_off_c, 0, 60, 65
1, 240249, Note_on_c, 0, 66, 53
1, 240325, Note_off_c, 0, 66, 57
1, 240461, Note_on_c, 0, 72, 42
1, 240474, Note_on_c, 0, 69, 42
1, 240559, Note_off_c, 0, 87, 40
1, 240570, Note_off_c, 0, 72, 62
1, 240571, Note_off_c, 0, 75, 34
1, 240661, Note_off_c, 0, 69, 37
1, 240677, Note_off_c, 0, 81, 59
1, 240707, Note_off_c, 0, 78, 31
1, 240969, Note_on_c, 0, 87, 69
1, 241006, Note_on_c, 0, 75, 47
1, 241072, Note_off_c, 0, 75, 53
1, 241161, Note_off_c, 0, 87, 36
1, 241364, Note_on_c, 0, 32, 40
1, 241438, Note_on_c, 0, 76, 40
1, 241459, Control_c, 0, 64, 110
1, 241473, Control_c, 0, 64, 94
1, 241477, Note_on_c, 0, 80, 55
1, 241488, Control_c, 0, 64, 80
1, 241503, Control_c, 0, 64, 66
1, 241517, Control_c, 0, 64, 48
1, 241531, Note_on_c, 0, 83, 58
1, 241532, Control_c, 0, 64, 0
1, 241575, Note_on_c, 0, 88, 76
1, 241577, Control_c, 0, 64, 37
1, 241599, Control_c, 0, 64, 54
1, 241614, Control_c, 0, 64, 64
1, 241629, Control_c, 0, 64, 71
1, 241644, Control_c, 0, 64, 82
1, 241659, Control_c, 0, 64, 97
1, 241673, Control_c, 0, 64, 127
1, 241704, Note_off_c, 0, 32, 40
1, 241762, Note_on_c, 0, 44, 40
1, 241795, Note_off_c, 0, 44, 50
1, 241937, Note_on_c, 0, 52, 40
1, 241992, Note_off_c, 0, 52, 54
1, 242060, Note_on_c, 0, 56, 50
1, 242128, Note_off_c, 0, 56, 53
1, 242200, Note_on_c, 0, 59, 51
1, 242230, Note_off_c, 0, 59, 65
1, 242351, Note_on_c, 0, 64, 45
1, 242362, Note_off_c, 0, 76, 38
1, 242399, Note_off_c, 0, 64, 57
1, 242441, Note_off_c, 0, 83, 48
1, 242499, Note_off_c, 0, 80, 39
1, 242509, Control_c, 0, 67, 117
1, 242524, Control_c, 0, 67, 91
1, 242539, Control_c, 0, 67, 62
1, 242553, Control_c, 0, 67, 0
1, 242569, Note_off_c, 0, 88, 57
1, 242641, Note_on_c, 0, 71, 18
1, 242646, Note_on_c, 0, 68, 36
1, 242860, Note_off_c, 0, 71, 41
1, 242893, Note_on_c, 0, 90, 58
1, 242926, Note_on_c, 0, 78, 42
1, 242997, Note_off_c, 0, 78, 50
1, 243009, Note_off_c, 0, 68, 35
1, 243098, Note_off_c, 0, 90, 58
1, 243158, Note_on_c, 0, 91, 76
1, 243200, Note_on_c, 0, 79, 37
1, 243229, Note_off_c, 0, 79, 54
1, 243330, Note_off_c, 0, 91, 64
1, 243391, Note_on_c, 0, 92, 76
1, 243406, Note_on_c, 0, 80, 59
1, 243470, Note_off_c, 0, 80, 62
1, 243494, Note_off_c, 0, 92, 64
1, 243537, Note_on_c, 0, 81, 52
1, 243627, Note_on_c, 0, 85, 50
1, 243688, Note_on_c, 0, 88, 45
1, 243748, Control_c, 0, 64, 108
1, 243760, Note_on_c, 0, 32, 36
1, 243762, Control_c, 0, 64, 94
1, 243777, Control_c, 0, 64, 84
1, 243792, Control_c, 0, 64, 75
1, 243808, Control_c, 0, 64, 65
1, 243823, Control_c, 0, 64, 52
1, 243845, Control_c, 0, 64, 40
1, 243860, Control_c, 0, 64, 0
1, 243904, Control_c, 0, 64, 40
1, 243918, Note_on_c, 0, 93, 78
1, 243918, Control_c, 0, 64, 54
1, 243918, Control_c, 0, 67, 54
1, 243933, Control_c, 0, 64, 66
1, 243933, Control_c, 0, 67, 77
1, 243948, Control_c, 0, 64, 72
1, 243948, Control_c, 0, 67, 105
1, 243963, Control_c, 0, 64, 80
1, 243963, Control_c, 0, 67, 127
1, 243978, Control_c, 0, 64, 87
1, 243993, Control_c, 0, 64, 100
1, 244008, Control_c, 0, 64, 127
1, 244112, Note_off_c, 0, 32, 41
1, 244146, Note_on_c, 0, 44, 36
1, 244193, Note_off_c, 0, 44, 60
1, 244285, Note_off_c, 0, 93, 61
1, 244352, Note_off_c, 0, 81, 58
1, 244399, Note_on_c, 0, 52, 43
1, 244454, Note_off_c, 0, 52, 49
1, 244633, Note_on_c, 0, 94, 72
1, 244667, Note_on_c, 0, 82, 40
1, 244701, Note_on_c, 0, 55, 36
1, 244765, Note_off_c, 0, 55, 59
1, 244834, Note_on_c, 0, 61, 49
1, 244870, Note_off_c, 0, 61, 64
1, 244924, Note_off_c, 0, 82, 33
1, 244965, Note_off_c, 0, 85, 27
1, 245036, Note_on_c, 0, 64, 46
1, 245080, Note_off_c, 0, 88, 15
1, 245085, Note_off_c, 0, 64, 57
1, 245263, Note_off_c, 0, 94, 46
1, 245347, Note_on_c, 0, 76, 37
1, 245352, Note_on_c, 0, 73, 39
1, 245377, Note_on_c, 0, 67, 30
1, 245462, Note_off_c, 0, 67, 53
1, 245558, Note_off_c, 0, 73, 46
1, 245579, Note_off_c, 0, 76, 65
1, 245787, Control_c, 0, 67, 113
1, 245802, Control_c, 0, 67, 86
1, 245817, Control_c, 0, 67, 58
1, 245832, Control_c, 0, 67, 0
1, 246214, Note_on_c, 0, 95, 66
1, 246265, Note_on_c, 0, 83, 39
1, 246434, Note_off_c, 0, 83, 51
1, 246492, Note_off_c, 0, 95, 58
1, 246866, Note_on_c, 0, 75, 36
1, 246869, Note_on_c, 0, 68, 29
1, 246876, Note_on_c, 0, 72, 23
1, 246914, Control_c, 0, 64, 108
1, 246914, Control_c, 0, 67, 38
1, 246928, Control_c, 0, 64, 89
1, 246928, Control_c, 0, 67, 71
1, 246943, Control_c, 0, 64, 71
1, 246943, Control_c, 0, 67, 109
1, 246958, Control_c, 0, 64, 56
1, 246958, Control_c, 0, 67, 127
1, 246973, Control_c, 0, 64, 39
1, 246987, Control_c, 0, 64, 37
1, 247002, Control_c, 0, 64, 44
1, 247018, Control_c, 0, 64, 52
1, 247033, Control_c, 0, 64, 60
1, 247048, Control_c, 0, 64, 66
1, 247063, Control_c, 0, 64, 71
1, 247078, Control_c, 0, 64, 76
1, 247092, Control_c, 0, 64, 82
1, 247107, Control_c, 0, 64, 87
1, 247117, Note_off_c, 0, 72, 49
1, 247117, Note_off_c, 0, 75, 61
1, 247122, Control_c, 0, 64, 93
1, 247129, Note_off_c, 0, 68, 45
1, 247136, Control_c, 0, 64, 102
1, 247151, Control_c, 0, 64, 117
1, 247166, Control_c, 0, 64, 127
1, 247191, Note_on_c, 0, 96, 62
1, 247268, Note_on_c, 0, 84, 49
1, 247341, Note_off_c, 0, 96, 54
1, 247384, Note_on_c, 0, 87, 45
1, 247428, Note_off_c, 0, 87, 62
1, 247479, Note_on_c, 0, 89, 37
1, 247510, Note_off_c, 0, 89, 54
1, 247543, Note_on_c, 0, 87, 41
1, 247570, Note_off_c, 0, 87, 57
1, 247606, Note_on_c, 0, 89, 53
1, 247642, Note_off_c, 0, 89, 62
1, 247662, Note_on_c, 0, 87, 52
1, 247696, Note_off_c, 0, 87, 65
1, 247741, Note_on_c, 0, 89, 38
1, 247771, Note_off_c, 0, 89, 47
1, 247785, Note_on_c, 0, 87, 48
1, 247811, Note_off_c, 0, 87, 61
1, 247865, Note_on_c, 0, 89, 34
1, 247894, Note_on_c, 0, 87, 57
1, 247900, Note_off_c, 0, 89, 41
1, 247928, Note_off_c, 0, 87, 63
1, 247975, Note_on_c, 0, 89, 34
1, 248011, Note_off_c, 0, 89, 41
1, 248017, Note_on_c, 0, 87, 52
1, 248041, Note_off_c, 0, 87, 59
1, 248080, Note_on_c, 0, 89, 48
1, 248104, Note_off_c, 0, 89, 59
1, 248118, Note_on_c, 0, 87, 58
1, 248151, Note_off_c, 0, 87, 65
1, 248181, Note_on_c, 0, 89, 61
1, 248199, Note_off_c, 0, 84, 33
1, 248211, Note_off_c, 0, 89, 65
1, 248231, Note_on_c, 0, 87, 50
1, 248260, Note_off_c, 0, 87, 64
1, 248283, Note_on_c, 0, 89, 61
1, 248313, Note_off_c, 0, 89, 64
1, 248346, Note_on_c, 0, 87, 58
1, 248379, Note_off_c, 0, 87, 63
1, 248407, Note_on_c, 0, 89, 60
1, 248427, Note_on_c, 0, 80, 57
1, 248449, Note_off_c, 0, 89, 62
1, 248451, Note_on_c, 0, 72, 35
1, 248463, Note_on_c, 0, 75, 42
1, 248480, Note_on_c, 0, 87, 57
1, 248508, Note_off_c, 0, 87, 63
1, 248537, Note_on_c, 0, 89, 54
1, 248575, Note_off_c, 0, 89, 64
1, 248595, Note_on_c, 0, 87, 59
1, 248631, Note_off_c, 0, 87, 62
1, 248661, Note_on_c, 0, 89, 55
1, 248697, Note_off_c, 0, 89, 66
1, 248719, Note_on_c, 0, 87, 60
1, 248744, Note_off_c, 0, 87, 63
1, 248756, Note_off_c, 0, 72, 40
1, 248786, Note_on_c, 0, 89, 49
1, 248788, Note_off_c, 0, 75, 48
1, 248819, Note_off_c, 0, 89, 54
1, 248829, Note_on_c, 0, 87, 56
1, 248831, Note_off_c, 0, 80, 59
1, 248912, Note_off_c, 0, 87, 58
1, 248944, Note_on_c, 0, 96, 71
1, 248953, Note_on_c, 0, 92, 62
1, 248966, Note_on_c, 0, 84, 77
1, 248996, Note_on_c, 0, 80, 50
1, 249001, Note_on_c, 0, 75, 56
1, 249019, Note_off_c, 0, 92, 55
1, 249028, Note_off_c, 0, 96, 65
1, 249057, Note_on_c, 0, 87, 46
1, 249091, Note_off_c, 0, 87, 61
1, 249117, Note_on_c, 0, 89, 61
1, 249162, Note_off_c, 0, 89, 63
1, 249167, Note_on_c, 0, 87, 69
1, 249202, Note_off_c, 0, 75, 57
1, 249212, Note_off_c, 0, 87, 57
1, 249232, Note_off_c, 0, 84, 59
1, 249233, Control_c, 0, 67, 122
1, 249240, Note_on_c, 0, 89, 53
1, 249242, Note_off_c, 0, 80, 59
1, 249248, Control_c, 0, 67, 83
1, 249262, Note_off_c, 0, 89, 61
1, 249263, Control_c, 0, 67, 41
1, 249278, Note_on_c, 0, 87, 59
1, 249278, Control_c, 0, 67, 0
1, 249313, Note_off_c, 0, 87, 65
1, 249335, Note_on_c, 0, 89, 68
1, 249381, Note_off_c, 0, 89, 58
1, 249423, Note_on_c, 0, 87, 47
1, 249450, Note_on_c, 0, 75, 53
1, 249460, Note_on_c, 0, 73, 42
1, 249496, Note_on_c, 0, 79, 51
1, 249562, Note_off_c, 0, 87, 64
1, 249576, Control_c, 0, 64, 84
1, 249583, Note_on_c, 0, 84, 62
1, 249586, Note_on_c, 0, 99, 79
1, 249591, Control_c, 0, 64, 64
1, 249605, Control_c, 0, 64, 45
1, 249620, Control_c, 0, 64, 39
1, 249635, Control_c, 0, 64, 49
1, 249650, Note_off_c, 0, 99, 63
1, 249650, Control_c, 0, 64, 58
1, 249664, Control_c, 0, 64, 65
1, 249679, Control_c, 0, 64, 72
1, 249694, Control_c, 0, 64, 82
1, 249698, Note_on_c, 0, 87, 46
1, 249709, Control_c, 0, 64, 90
1, 249724, Control_c, 0, 64, 98
1, 249737, Note_off_c, 0, 87, 63
1, 249739, Control_c, 0, 64, 109
1, 249754, Control_c, 0, 64, 127
1, 249759, Note_on_c, 0, 89, 62
1, 249769, Control_c, 0, 67, 64
1, 249784, Control_c, 0, 67, 100
1, 249799, Control_c, 0, 67, 124
1, 249806, Note_off_c, 0, 89, 63
1, 249813, Control_c, 0, 67, 127
1, 249821, Note_on_c, 0, 87, 62
1, 249859, Note_off_c, 0, 87, 63
1, 249886, Note_on_c, 0, 89, 53
1, 249925, Note_off_c, 0, 89, 64
1, 249953, Note_on_c, 0, 87, 56
1, 249973, Note_off_c, 0, 87, 61
1, 250011, Note_on_c, 0, 89, 51
1, 250046, Note_off_c, 0, 89, 62
1, 250050, Note_on_c, 0, 87, 63
1, 250103, Note_off_c, 0, 87, 63
1, 250116, Note_on_c, 0, 96, 77
1, 250169, Note_off_c, 0, 96, 64
1, 250193, Note_on_c, 0, 87, 60
1, 250225, Note_off_c, 0, 87, 66
1, 250249, Note_on_c, 0, 89, 55
1, 250286, Note_off_c, 0, 89, 64
1, 250309, Note_on_c, 0, 87, 66
1, 250338, Note_off_c, 0, 87, 65
1, 250378, Note_on_c, 0, 89, 50
1, 250402, Note_off_c, 0, 89, 62
1, 250437, Note_on_c, 0, 87, 49
1, 250459, Note_off_c, 0, 87, 58
1, 250485, Note_on_c, 0, 89, 59
1, 250518, Note_off_c, 0, 89, 64
1, 250527, Note_on_c, 0, 87, 70
1, 250572, Note_off_c, 0, 87, 60
1, 250612, Note_on_c, 0, 93, 78
1, 250618, Note_off_c, 0, 84, 56
1, 250632, Note_off_c, 0, 73, 57
1, 250651, Note_off_c, 0, 75, 58
1, 250652, Note_on_c, 0, 87, 51
1, 250668, Note_off_c, 0, 93, 59
1, 250674, Note_off_c, 0, 79, 41
1, 250706, Note_off_c, 0, 87, 62
1, 250745, Note_on_c, 0, 89, 49
1, 250779, Note_off_c, 0, 89, 62
1, 250801, Note_on_c, 0, 87, 57
1, 250833, Note_off_c, 0, 87, 63
1, 250863, Note_on_c, 0, 89, 65
1, 250865, Control_c, 0, 64, 92
1, 250868, Note_on_c, 0, 82, 53
1, 250879, Note_on_c, 0, 75, 45
1, 250879, Control_c, 0, 64, 79
1, 250884, Note_on_c, 0, 73, 39
1, 250885, Note_on_c, 0, 79, 33
1, 250891, Note_off_c, 0, 89, 66
1, 250894, Control_c, 0, 64, 75
1, 250923, Note_off_c, 0, 79, 55
1, 250924, Control_c, 0, 64, 76
1, 250927, Note_on_c, 0, 87, 56
1, 250939, Control_c, 0, 64, 78
1, 250947, Note_off_c, 0, 87, 61
1, 250953, Control_c, 0, 64, 81
1, 250961, Note_off_c, 0, 82, 58
1, 250962, Note_off_c, 0, 75, 41
1, 250968, Control_c, 0, 64, 86
1, 250969, Note_off_c, 0, 73, 46
1, 250983, Control_c, 0, 64, 90
1, 250996, Note_on_c, 0, 89, 54
1, 250999, Control_c, 0, 64, 93
1, 251014, Control_c, 0, 64, 95
1, 251021, Note_off_c, 0, 89, 60
1, 251031, Note_on_c, 0, 87, 61
1, 251058, Control_c, 0, 64, 98
1, 251088, Control_c, 0, 64, 100
1, 251090, Note_off_c, 0, 87, 59
1, 251132, Control_c, 0, 64, 96
1, 251141, Note_on_c, 0, 94, 72
1, 251147, Control_c, 0, 64, 84
1, 251154, Note_on_c, 0, 80, 65
1, 251162, Control_c, 0, 64, 69
1, 251171, Note_on_c, 0, 73, 45
1, 251177, Control_c, 0, 64, 59
1, 251183, Note_on_c, 0, 77, 44
1, 251189, Note_off_c, 0, 94, 61
1, 251192, Control_c, 0, 64, 59
1, 251207, Control_c, 0, 64, 61
1, 251209, Note_on_c, 0, 87, 52
1, 251212, Note_on_c, 0, 75, 14
1, 251222, Control_c, 0, 64, 64
1, 251224, Note_off_c, 0, 77, 64
1, 251237, Control_c, 0, 64, 66
1, 251246, Note_off_c, 0, 87, 63
1, 251251, Control_c, 0, 64, 70
1, 251254, Note_off_c, 0, 75, 52
1, 251266, Control_c, 0, 64, 76
1, 251270, Note_off_c, 0, 73, 62
1, 251281, Note_on_c, 0, 89, 55
1, 251281, Control_c, 0, 64, 84
1, 251287, Note_off_c, 0, 80, 63
1, 251296, Control_c, 0, 64, 88
1, 251311, Control_c, 0, 64, 93
1, 251325, Note_off_c, 0, 89, 61
1, 251326, Control_c, 0, 64, 99
1, 251348, Control_c, 0, 64, 105
1, 251360, Note_on_c, 0, 87, 57
1, 251363, Control_c, 0, 64, 112
1, 251378, Control_c, 0, 64, 127
1, 251392, Note_off_c, 0, 87, 58
1, 251419, Note_on_c, 0, 89, 57
1, 251430, Note_on_c, 0, 82, 56
1, 251448, Note_on_c, 0, 75, 46
1, 251450, Note_on_c, 0, 73, 45
1, 251451, Note_on_c, 0, 79, 39
1, 251453, Note_off_c, 0, 89, 65
1, 251462, Note_on_c, 0, 87, 69
1, 251470, Note_off_c, 0, 82, 58
1, 251482, Note_off_c, 0, 79, 62
1, 251489, Note_off_c, 0, 75, 63
1, 251492, Note_off_c, 0, 73, 62
1, 251505, Note_off_c, 0, 87, 61
1, 251547, Note_on_c, 0, 89, 58
1, 251603, Note_off_c, 0, 89, 55
1, 251609, Note_on_c, 0, 87, 63
1, 251734, Note_off_c, 0, 87, 60
1, 251741, Note_on_c, 0, 96, 63
1, 251756, Note_on_c, 0, 92, 51
1, 251757, Note_on_c, 0, 75, 57
1, 251778, Note_on_c, 0, 68, 44
1, 251792, Control_c, 0, 64, 93
1, 251808, Control_c, 0, 64, 73
1, 251823, Control_c, 0, 64, 57
1, 251838, Control_c, 0, 64, 34
1, 251852, Control_c, 0, 64, 32
1, 251864, Note_off_c, 0, 96, 61
1, 251867, Poly_aftertouch_c, 0, 72, 127
1, 251867, Control_c, 0, 64, 43
1, 251875, Note_off_c, 0, 92, 55
1, 251878, Note_on_c, 0, 87, 34
1, 251882, Control_c, 0, 64, 57
1, 251897, Control_c, 0, 64, 64
1, 251912, Control_c, 0, 64, 70
1, 251916, Note_off_c, 0, 87, 61
1, 251926, Control_c, 0, 64, 76
1, 251941, Control_c, 0, 64, 82
1, 251948, Note_on_c, 0, 89, 50
1, 251956, Control_c, 0, 64, 88
1, 251971, Control_c, 0, 64, 96
1, 251986, Control_c, 0, 64, 105
1, 251989, Note_off_c, 0, 89, 61
1, 252000, Control_c, 0, 64, 124
1, 252009, Note_on_c, 0, 87, 58
1, 252015, Control_c, 0, 64, 127
1, 252041, Note_off_c, 0, 87, 64
1, 252087, Note_on_c, 0, 89, 47
1, 252092, Note_off_c, 0, 68, 34
1, 252116, Note_off_c, 0, 89, 63
1, 252137, Note_on_c, 0, 87, 60
1, 252170, Note_off_c, 0, 87, 64
1, 252205, Note_on_c, 0, 89, 57
1, 252238, Note_off_c, 0, 89, 65
1, 252252, Note_on_c, 0, 87, 63
1, 252257, Poly_aftertouch_c, 0, 72, 0
1, 252291, Note_off_c, 0, 87, 60
1, 252317, Note_on_c, 0, 89, 63
1, 252360, Note_off_c, 0, 89, 62
1, 252367, Note_off_c, 0, 75, 39
1, 252381, Note_on_c, 0, 87, 56
1, 252413, Note_off_c, 0, 87, 64
1, 252439, Note_on_c, 0, 89, 54
1, 252478, Note_off_c, 0, 89, 64
1, 252500, Note_on_c, 0, 87, 62
1, 252530, Note_off_c, 0, 87, 63
1, 252560, Note_on_c, 0, 89, 55
1, 252595, Note_off_c, 0, 89, 65
1, 252624, Note_on_c, 0, 87, 62
1, 252652, Note_off_c, 0, 87, 64
1, 252688, Note_on_c, 0, 89, 54
1, 252712, Note_off_c, 0, 89, 61
1, 252731, Note_on_c, 0, 87, 62
1, 252769, Note_off_c, 0, 87, 60
1, 252801, Note_on_c, 0, 89, 56
1, 252850, Note_off_c, 0, 89, 62
1, 252866, Note_on_c, 0, 80, 68
1, 252876, Note_on_c, 0, 87, 63
1, 252895, Note_on_c, 0, 72, 44
1, 252905, Note_off_c, 0, 87, 65
1, 252921, Note_on_c, 0, 75, 42
1, 252958, Note_on_c, 0, 89, 45
1, 252986, Note_off_c, 0, 89, 59
1, 253011, Note_on_c, 0, 87, 63
1, 253045, Note_off_c, 0, 87, 61
1, 253077, Note_on_c, 0, 89, 61
1, 253118, Note_off_c, 0, 89, 61
1, 253141, Note_on_c, 0, 87, 67
1, 253176, Note_off_c, 0, 87, 59
1, 253177, Note_off_c, 0, 72, 34
1, 253207, Note_on_c, 0, 89, 54
1, 253230, Note_off_c, 0, 80, 57
1, 253235, Note_off_c, 0, 89, 60
1, 253263, Note_on_c, 0, 87, 61
1, 253288, Note_off_c, 0, 87, 63
1, 253289, Note_off_c, 0, 75, 39
1, 253319, Note_on_c, 0, 89, 58
1, 253350, Note_off_c, 0, 89, 65
1, 253357, Note_on_c, 0, 87, 63
1, 253394, Note_on_c, 0, 96, 76
1, 253395, Note_on_c, 0, 84, 83
1, 253396, Note_off_c, 0, 87, 62
1, 253428, Note_on_c, 0, 92, 45
1, 253442, Note_on_c, 0, 75, 42
1, 253448, Note_on_c, 0, 80, 50
1, 253450, Note_off_c, 0, 96, 65
1, 253458, Note_off_c, 0, 92, 52
1, 253508, Note_on_c, 0, 87, 41
1, 253535, Note_off_c, 0, 87, 51
1, 253543, Note_on_c, 0, 89, 64
1, 253591, Note_off_c, 0, 89, 61
1, 253591, Note_off_c, 0, 84, 61
1, 253592, Note_off_c, 0, 75, 61
1, 253611, Note_on_c, 0, 87, 68
1, 253612, Note_off_c, 0, 80, 61
1, 253641, Note_off_c, 0, 87, 61
1, 253674, Note_on_c, 0, 89, 56
1, 253695, Note_off_c, 0, 89, 61
1, 253727, Note_on_c, 0, 87, 55
1, 253746, Note_off_c, 0, 87, 64
1, 253766, Note_on_c, 0, 89, 69
1, 253827, Note_off_c, 0, 89, 58
1, 253831, Note_on_c, 0, 87, 52
1, 253874, Note_on_c, 0, 75, 50
1, 253883, Note_on_c, 0, 73, 45
1, 253909, Note_on_c, 0, 79, 50
1, 253956, Note_off_c, 0, 87, 63
1, 253988, Note_on_c, 0, 99, 80
1, 253995, Control_c, 0, 64, 97
1, 254005, Note_on_c, 0, 84, 59
1, 254010, Control_c, 0, 64, 72
1, 254024, Control_c, 0, 64, 53
1, 254039, Control_c, 0, 64, 45
1, 254054, Control_c, 0, 64, 51
1, 254057, Note_off_c, 0, 99, 63
1, 254069, Control_c, 0, 64, 58
1, 254078, Note_on_c, 0, 87, 53
1, 254084, Control_c, 0, 64, 65
1, 254098, Control_c, 0, 64, 74
1, 254113, Control_c, 0, 64, 87
1, 254116, Note_off_c, 0, 87, 62
1, 254128, Control_c, 0, 64, 104
1, 254143, Control_c, 0, 64, 127
1, 254147, Note_on_c, 0, 89, 53
1, 254185, Note_off_c, 0, 89, 63
1, 254207, Note_on_c, 0, 87, 63
1, 254241, Note_off_c, 0, 87, 61
1, 254276, Note_on_c, 0, 89, 53
1, 254298, Note_off_c, 0, 89, 60
1, 254337, Note_on_c, 0, 87, 52
1, 254358, Note_off_c, 0, 87, 60
1, 254382, Note_on_c, 0, 89, 63
1, 254435, Note_off_c, 0, 89, 54
1, 254442, Note_on_c, 0, 87, 64
1, 254486, Note_off_c, 0, 87, 62
1, 254506, Note_on_c, 0, 96, 75
1, 254557, Note_off_c, 0, 96, 65
1, 254578, Note_on_c, 0, 87, 56
1, 254608, Note_off_c, 0, 87, 64
1, 254650, Note_on_c, 0, 89, 42
1, 254677, Note_off_c, 0, 89, 55
1, 254683, Note_on_c, 0, 87, 68
1, 254730, Note_off_c, 0, 87, 61
1, 254756, Note_on_c, 0, 89, 60
1, 254786, Note_off_c, 0, 89, 64
1, 254814, Note_on_c, 0, 87, 59
1, 254843, Note_off_c, 0, 87, 66
1, 254873, Note_on_c, 0, 89, 59
1, 254909, Note_off_c, 0, 89, 62
1, 254937, Note_on_c, 0, 87, 63
1, 254969, Note_off_c, 0, 87, 59
1, 254982, Note_on_c, 0, 93, 80
1, 254984, Note_off_c, 0, 84, 61
1, 255000, Note_off_c, 0, 73, 54
1, 255017, Note_off_c, 0, 75, 58
1, 255042, Note_off_c, 0, 93, 61
1, 255052, Note_off_c, 0, 79, 43
1, 255058, Note_on_c, 0, 87, 53
1, 255090, Note_off_c, 0, 87, 61
1, 255125, Note_on_c, 0, 89, 50
1, 255159, Note_off_c, 0, 89, 64
1, 255171, Note_on_c, 0, 87, 63
1, 255209, Note_off_c, 0, 87, 58
1, 255240, Control_c, 0, 64, 95
1, 255249, Note_on_c, 0, 89, 56
1, 255251, Note_on_c, 0, 82, 49
1, 255255, Control_c, 0, 64, 71
1, 255260, Note_on_c, 0, 73, 43
1, 255270, Control_c, 0, 64, 62
1, 255273, Note_off_c, 0, 89, 59
1, 255277, Note_on_c, 0, 79, 17
1, 255284, Control_c, 0, 64, 62
1, 255287, Note_on_c, 0, 75, 33
1, 255299, Control_c, 0, 64, 65
1, 255308, Note_on_c, 0, 87, 57
1, 255314, Control_c, 0, 64, 70
1, 255315, Note_off_c, 0, 79, 47
1, 255329, Control_c, 0, 64, 77
1, 255332, Note_off_c, 0, 87, 57
1, 255336, Note_off_c, 0, 75, 60
1, 255341, Note_off_c, 0, 82, 61
1, 255344, Control_c, 0, 64, 86
1, 255351, Note_off_c, 0, 73, 42
1, 255358, Control_c, 0, 64, 97
1, 255364, Note_on_c, 0, 89, 55
1, 255373, Control_c, 0, 64, 107
1, 255388, Control_c, 0, 64, 127
1, 255403, Note_off_c, 0, 89, 62
1, 255417, Note_on_c, 0, 87, 62
1, 255477, Note_off_c, 0, 87, 62
1, 255505, Note_on_c, 0, 94, 78
1, 255521, Control_c, 0, 64, 105
1, 255529, Note_on_c, 0, 77, 49
1, 255532, Note_on_c, 0, 80, 52
1, 255536, Control_c, 0, 64, 76
1, 255537, Note_on_c, 0, 73, 36
1, 255545, Note_off_c, 0, 94, 59
1, 255547, Note_on_c, 0, 75, 36
1, 255550, Control_c, 0, 64, 64
1, 255565, Control_c, 0, 64, 61
1, 255569, Note_off_c, 0, 77, 64
1, 255580, Control_c, 0, 64, 63
1, 255582, Note_on_c, 0, 87, 55
1, 255595, Control_c, 0, 64, 67
1, 255601, Note_off_c, 0, 75, 59
1, 255609, Control_c, 0, 64, 72
1, 255612, Note_off_c, 0, 87, 63
1, 255613, Note_off_c, 0, 73, 59
1, 255624, Note_off_c, 0, 80, 63
1, 255624, Control_c, 0, 64, 79
1, 255639, Control_c, 0, 64, 87
1, 255654, Control_c, 0, 64, 93
1, 255660, Note_on_c, 0, 89, 45
1, 255669, Control_c, 0, 64, 99
1, 255684, Control_c, 0, 64, 104
1, 255687, Note_off_c, 0, 89, 59
1, 255699, Control_c, 0, 64, 109
1, 255703, Note_on_c, 0, 87, 60
1, 255714, Control_c, 0, 64, 114
1, 255729, Control_c, 0, 64, 117
1, 255741, Note_off_c, 0, 87, 60
1, 255743, Control_c, 0, 64, 119
1, 255758, Control_c, 0, 64, 122
1, 255773, Control_c, 0, 64, 127
1, 255781, Note_on_c, 0, 82, 51
1, 255782, Note_on_c, 0, 89, 55
1, 255792, Note_on_c, 0, 79, 38
1, 255825, Note_on_c, 0, 75, 35
1, 255827, Note_off_c, 0, 82, 59
1, 255827, Note_off_c, 0, 89, 65
1, 255830, Note_off_c, 0, 79, 61
1, 255839, Note_on_c, 0, 73, 12
1, 255848, Note_on_c, 0, 87, 61
1, 255854, Note_off_c, 0, 75, 55
1, 255871, Note_off_c, 0, 87, 65
1, 255881, Note_off_c, 0, 73, 42
1, 255926, Note_on_c, 0, 89, 41
1, 255962, Note_off_c, 0, 89, 60
1, 255964, Note_on_c, 0, 87, 53
1, 256071, Note_off_c, 0, 87, 56
1, 256100, Note_on_c, 0, 96, 55
1, 256107, Control_c, 0, 64, 122
1, 256110, Note_on_c, 0, 92, 47
1, 256122, Control_c, 0, 64, 114
1, 256131, Note_on_c, 0, 75, 49
1, 256137, Control_c, 0, 64, 107
1, 256152, Control_c, 0, 64, 100
1, 256155, Note_on_c, 0, 68, 34
1, 256167, Control_c, 0, 64, 92
1, 256182, Control_c, 0, 64, 81
1, 256197, Control_c, 0, 64, 69
1, 256202, Note_off_c, 0, 96, 62
1, 256212, Control_c, 0, 64, 57
1, 256220, Poly_aftertouch_c, 0, 72, 127
1, 256226, Control_c, 0, 64, 34
1, 256240, Note_off_c, 0, 92, 61
1, 256241, Control_c, 0, 64, 0
1, 256249, Note_on_c, 0, 87, 42
1, 256285, Note_off_c, 0, 87, 61
1, 256286, Control_c, 0, 64, 41
1, 256300, Control_c, 0, 64, 56
1, 256315, Control_c, 0, 64, 65
1, 256330, Control_c, 0, 64, 70
1, 256336, Note_on_c, 0, 89, 36
1, 256345, Control_c, 0, 64, 76
1, 256360, Control_c, 0, 64, 83
1, 256367, Note_off_c, 0, 89, 53
1, 256374, Control_c, 0, 64, 93
1, 256376, Note_on_c, 0, 87, 59
1, 256389, Control_c, 0, 64, 103
1, 256404, Control_c, 0, 64, 118
1, 256411, Note_off_c, 0, 87, 60
1, 256418, Control_c, 0, 64, 127
1, 256452, Note_on_c, 0, 89, 55
1, 256482, Note_off_c, 0, 68, 33
1, 256486, Note_off_c, 0, 89, 66
1, 256508, Note_on_c, 0, 87, 61
1, 256541, Note_off_c, 0, 87, 62
1, 256582, Note_on_c, 0, 89, 60
1, 256612, Poly_aftertouch_c, 0, 72, 0
1, 256616, Note_off_c, 0, 89, 64
1, 256641, Note_on_c, 0, 87, 59
1, 256671, Note_off_c, 0, 87, 63
1, 256695, Note_off_c, 0, 75, 37
1, 256705, Note_on_c, 0, 89, 57
1, 256736, Note_off_c, 0, 89, 66
1, 256753, Note_on_c, 0, 87, 67
1, 256791, Note_off_c, 0, 87, 57
1, 256822, Note_on_c, 0, 89, 60
1, 256854, Note_off_c, 0, 89, 64
1, 256880, Note_on_c, 0, 87, 62
1, 256914, Note_off_c, 0, 87, 60
1, 256943, Note_on_c, 0, 89, 62
1, 256975, Note_off_c, 0, 89, 65
1, 256996, Note_on_c, 0, 87, 67
1, 257033, Note_off_c, 0, 87, 56
1, 257070, Note_on_c, 0, 89, 57
1, 257100, Note_off_c, 0, 89, 62
1, 257124, Note_on_c, 0, 87, 64
1, 257155, Note_off_c, 0, 87, 62
1, 257192, Note_on_c, 0, 89, 57
1, 257203, Note_on_c, 0, 80, 64
1, 257236, Note_off_c, 0, 89, 60
1, 257249, Note_on_c, 0, 72, 35
1, 257250, Note_on_c, 0, 75, 44
1, 257255, Note_on_c, 0, 87, 63
1, 257291, Note_off_c, 0, 87, 60
1, 257349, Note_on_c, 0, 89, 52
1, 257383, Note_off_c, 0, 89, 64
1, 257398, Note_on_c, 0, 87, 66
1, 257430, Note_off_c, 0, 87, 60
1, 257469, Note_on_c, 0, 89, 64
1, 257498, Note_off_c, 0, 89, 66
1, 257525, Note_on_c, 0, 87, 59
1, 257548, Note_off_c, 0, 87, 61
1, 257590, Note_on_c, 0, 89, 60
1, 257601, Note_off_c, 0, 80, 57
1, 257602, Note_off_c, 0, 72, 39
1, 257622, Note_off_c, 0, 89, 64
1, 257633, Note_off_c, 0, 75, 37
1, 257635, Note_on_c, 0, 87, 55
1, 257722, Note_on_c, 0, 96, 71
1, 257727, Note_on_c, 0, 84, 78
1, 257729, Note_off_c, 0, 87, 63
1, 257738, Control_c, 0, 67, 92
1, 257753, Control_c, 0, 67, 53
1, 257764, Note_on_c, 0, 92, 35
1, 257768, Control_c, 0, 67, 0
1, 257777, Note_on_c, 0, 75, 37
1, 257787, Note_on_c, 0, 80, 42
1, 257790, Note_off_c, 0, 96, 65
1, 257809, Note_off_c, 0, 92, 45
1, 257841, Note_on_c, 0, 87, 52
1, 257864, Note_off_c, 0, 87, 61
1, 257884, Note_off_c, 0, 75, 60
1, 257900, Note_on_c, 0, 89, 46
1, 257925, Note_off_c, 0, 80, 62
1, 257928, Note_off_c, 0, 89, 58
1, 257929, Note_off_c, 0, 84, 61
1, 257939, Note_on_c, 0, 87, 67
1, 257985, Note_off_c, 0, 87, 55
1, 258008, Note_on_c, 0, 89, 66
1, 258040, Note_off_c, 0, 89, 65
1, 258073, Note_on_c, 0, 87, 51
1, 258105, Note_off_c, 0, 87, 61
1, 258130, Note_on_c, 0, 89, 58
1, 258187, Note_off_c, 0, 89, 63
1, 258198, Note_on_c, 0, 87, 58
1, 258310, Note_off_c, 0, 87, 64
1, 258353, Note_on_c, 0, 99, 81
1, 258399, Control_c, 0, 64, 91
1, 258414, Control_c, 0, 64, 65
1, 258423, Note_on_c, 0, 87, 50
1, 258428, Control_c, 0, 64, 52
1, 258432, Note_on_c, 0, 78, 21
1, 258440, Note_on_c, 0, 80, 29
1, 258443, Control_c, 0, 64, 51
1, 258458, Control_c, 0, 64, 57
1, 258460, Note_off_c, 0, 99, 61
1, 258473, Control_c, 0, 64, 62
1, 258488, Control_c, 0, 64, 67
1, 258502, Control_c, 0, 64, 78
1, 258507, Note_on_c, 0, 92, 60
1, 258517, Control_c, 0, 64, 95
1, 258532, Control_c, 0, 64, 105
1, 258540, Note_off_c, 0, 92, 64
1, 258547, Control_c, 0, 64, 115
1, 258562, Control_c, 0, 64, 127
1, 258599, Note_on_c, 0, 94, 49
1, 258624, Note_off_c, 0, 94, 54
1, 258635, Control_c, 0, 67, 39
1, 258638, Note_on_c, 0, 92, 61
1, 258650, Control_c, 0, 67, 58
1, 258665, Control_c, 0, 67, 79
1, 258667, Note_off_c, 0, 92, 67
1, 258680, Control_c, 0, 67, 98
1, 258694, Note_on_c, 0, 94, 74
1, 258695, Control_c, 0, 67, 117
1, 258710, Control_c, 0, 67, 127
1, 258720, Note_off_c, 0, 94, 63
1, 258753, Note_on_c, 0, 92, 65
1, 258769, Note_off_c, 0, 92, 64
1, 258791, Note_on_c, 0, 94, 74
1, 258834, Note_off_c, 0, 94, 61
1, 258845, Note_on_c, 0, 92, 73
1, 258873, Note_off_c, 0, 92, 67
1, 258922, Note_on_c, 0, 91, 72
1, 258944, Note_off_c, 0, 91, 72
1, 258984, Note_on_c, 0, 92, 73
1, 259012, Note_off_c, 0, 92, 67
1, 259049, Note_on_c, 0, 94, 70
1, 259076, Note_off_c, 0, 94, 67
1, 259100, Note_on_c, 0, 92, 78
1, 259107, Note_off_c, 0, 87, 34
1, 259125, Note_off_c, 0, 78, 39
1, 259125, Note_off_c, 0, 92, 66
1, 259153, Note_off_c, 0, 80, 45
1, 259162, Note_on_c, 0, 94, 72
1, 259187, Note_off_c, 0, 94, 68
1, 259210, Note_on_c, 0, 92, 79
1, 259233, Note_off_c, 0, 92, 70
1, 259270, Note_on_c, 0, 94, 72
1, 259309, Note_off_c, 0, 94, 59
1, 259320, Note_on_c, 0, 92, 70
1, 259392, Note_off_c, 0, 92, 65
1, 259406, Note_on_c, 0, 97, 77
1, 259413, Note_on_c, 0, 85, 59
1, 259423, Note_on_c, 0, 80, 51
1, 259429, Note_on_c, 0, 77, 53
1, 259429, Control_c, 0, 64, 110
1, 259443, Control_c, 0, 64, 79
1, 259458, Control_c, 0, 64, 61
1, 259474, Control_c, 0, 64, 49
1, 259476, Note_off_c, 0, 97, 63
1, 259482, Note_on_c, 0, 92, 65
1, 259489, Control_c, 0, 64, 52
1, 259504, Control_c, 0, 64, 57
1, 259518, Control_c, 0, 64, 62
1, 259520, Note_off_c, 0, 92, 64
1, 259533, Control_c, 0, 64, 67
1, 259548, Control_c, 0, 64, 77
1, 259561, Note_on_c, 0, 91, 67
1, 259570, Control_c, 0, 64, 87
1, 259585, Control_c, 0, 64, 92
1, 259599, Note_off_c, 0, 91, 65
1, 259600, Control_c, 0, 64, 96
1, 259613, Note_off_c, 0, 77, 59
1, 259615, Control_c, 0, 64, 100
1, 259630, Control_c, 0, 64, 106
1, 259633, Note_off_c, 0, 85, 61
1, 259635, Note_off_c, 0, 80, 59
1, 259636, Note_on_c, 0, 92, 63
1, 259644, Control_c, 0, 64, 114
1, 259659, Control_c, 0, 64, 127
1, 259663, Note_off_c, 0, 92, 67
1, 259693, Note_on_c, 0, 91, 62
1, 259718, Note_off_c, 0, 91, 66
1, 259742, Note_on_c, 0, 92, 73
1, 259767, Note_off_c, 0, 92, 68
1, 259810, Note_on_c, 0, 91, 64
1, 259847, Note_off_c, 0, 91, 60
1, 259866, Note_on_c, 0, 92, 72
1, 259910, Note_off_c, 0, 92, 60
1, 259930, Note_on_c, 0, 96, 86
1, 259941, Control_c, 0, 64, 110
1, 259948, Note_on_c, 0, 84, 56
1, 259956, Control_c, 0, 64, 79
1, 259963, Note_on_c, 0, 80, 46
1, 259965, Note_on_c, 0, 75, 48
1, 259971, Control_c, 0, 64, 60
1, 259986, Control_c, 0, 64, 34
1, 259996, Note_off_c, 0, 96, 66
1, 260000, Control_c, 0, 64, 29
1, 260012, Note_on_c, 0, 92, 60
1, 260015, Control_c, 0, 64, 39
1, 260030, Control_c, 0, 64, 50
1, 260044, Note_off_c, 0, 92, 68
1, 260045, Control_c, 0, 64, 61
1, 260060, Control_c, 0, 64, 67
1, 260074, Note_on_c, 0, 91, 62
1, 260075, Control_c, 0, 64, 72
1, 260090, Control_c, 0, 64, 76
1, 260105, Control_c, 0, 64, 79
1, 260106, Note_off_c, 0, 91, 65
1, 260120, Control_c, 0, 64, 84
1, 260129, Note_on_c, 0, 92, 64
1, 260134, Control_c, 0, 64, 89
1, 260149, Control_c, 0, 64, 95
1, 260161, Note_off_c, 0, 92, 67
1, 260164, Control_c, 0, 64, 101
1, 260179, Control_c, 0, 64, 107
1, 260193, Note_on_c, 0, 91, 66
1, 260193, Control_c, 0, 64, 115
1, 260208, Control_c, 0, 64, 127
1, 260223, Note_off_c, 0, 84, 57
1, 260224, Note_off_c, 0, 91, 66
1, 260234, Note_off_c, 0, 80, 55
1, 260236, Note_off_c, 0, 75, 55
1, 260257, Note_on_c, 0, 92, 63
1, 260277, Note_off_c, 0, 92, 66
1, 260329, Note_on_c, 0, 91, 62
1, 260388, Note_on_c, 0, 92, 57
1, 260391, Note_off_c, 0, 91, 50
1, 260468, Note_off_c, 0, 92, 65
1, 260489, Note_on_c, 0, 94, 71
1, 260516, Note_on_c, 0, 82, 48
1, 260527, Control_c, 0, 64, 120
1, 260531, Note_on_c, 0, 73, 44
1, 260541, Control_c, 0, 64, 83
1, 260543, Note_on_c, 0, 80, 44
1, 260556, Control_c, 0, 64, 63
1, 260558, Note_off_c, 0, 94, 56
1, 260571, Control_c, 0, 64, 32
1, 260586, Control_c, 0, 64, 0
1, 260602, Control_c, 0, 64, 35
1, 260617, Control_c, 0, 64, 48
1, 260619, Note_on_c, 0, 89, 47
1, 260631, Control_c, 0, 64, 60
1, 260646, Control_c, 0, 64, 67
1, 260650, Note_off_c, 0, 89, 64
1, 260661, Control_c, 0, 64, 73
1, 260676, Control_c, 0, 64, 79
1, 260690, Control_c, 0, 64, 84
1, 260692, Note_on_c, 0, 88, 62
1, 260705, Control_c, 0, 64, 88
1, 260719, Note_off_c, 0, 88, 65
1, 260720, Control_c, 0, 64, 92
1, 260735, Control_c, 0, 64, 96
1, 260750, Control_c, 0, 64, 100
1, 260756, Note_on_c, 0, 89, 49
1, 260764, Control_c, 0, 64, 104
1, 260782, Note_off_c, 0, 89, 64
1, 260794, Control_c, 0, 64, 107
1, 260807, Note_on_c, 0, 88, 63
1, 260836, Note_off_c, 0, 88, 64
1, 260838, Control_c, 0, 64, 109
1, 260868, Note_on_c, 0, 89, 58
1, 260898, Note_off_c, 0, 89, 66
1, 260932, Note_on_c, 0, 88, 65
1, 260957, Note_off_c, 0, 88, 69
1, 260975, Note_on_c, 0, 89, 66
1, 261005, Note_off_c, 0, 89, 64
1, 261040, Note_on_c, 0, 88, 66
1, 261075, Note_off_c, 0, 88, 66
1, 261112, Note_on_c, 0, 89, 51
1, 261134, Note_off_c, 0, 89, 57
1, 261172, Note_on_c, 0, 88, 55
1, 261193, Note_off_c, 0, 88, 61
1, 261214, Note_on_c, 0, 89, 58
1, 261251, Note_off_c, 0, 89, 60
1, 261297, Note_on_c, 0, 91, 60
1, 261321, Note_off_c, 0, 73, 50
1, 261325, Note_off_c, 0, 82, 55
1, 261328, Note_off_c, 0, 80, 42
1, 261337, Note_off_c, 0, 91, 62
1, 261410, Note_on_c, 0, 88, 56
1, 261446, Note_off_c, 0, 88, 63
1, 261474, Note_on_c, 0, 89, 40
1, 261574, Note_off_c, 0, 89, 60
1, 261589, Note_on_c, 0, 96, 67
1, 261615, Note_on_c, 0, 84, 46
1, 261616, Control_c, 0, 64, 100
1, 261631, Control_c, 0, 64, 87
1, 261642, Note_on_c, 0, 76, 40
1, 261643, Note_on_c, 0, 80, 32
1, 261646, Control_c, 0, 64, 71
1, 261661, Control_c, 0, 64, 56
1, 261676, Control_c, 0, 64, 39
1, 261691, Control_c, 0, 64, 37
1, 261699, Note_off_c, 0, 96, 60
1, 261705, Control_c, 0, 64, 44
1, 261718, Note_on_c, 0, 92, 53
1, 261720, Control_c, 0, 64, 52
1, 261735, Control_c, 0, 64, 60
1, 261743, Note_off_c, 0, 92, 60
1, 261750, Control_c, 0, 64, 65
1, 261764, Control_c, 0, 64, 70
1, 261779, Control_c, 0, 64, 74
1, 261782, Note_on_c, 0, 91, 60
1, 261794, Control_c, 0, 64, 78
1, 261816, Control_c, 0, 64, 81
1, 261820, Note_off_c, 0, 91, 64
1, 261831, Control_c, 0, 64, 85
1, 261846, Control_c, 0, 64, 89
1, 261846, Note_on_c, 0, 92, 65
1, 261860, Control_c, 0, 64, 93
1, 261875, Control_c, 0, 64, 95
1, 261878, Note_off_c, 0, 92, 66
1, 261890, Control_c, 0, 64, 97
1, 261909, Note_on_c, 0, 91, 64
1, 261920, Control_c, 0, 64, 99
1, 261941, Note_off_c, 0, 91, 65
1, 261950, Control_c, 0, 64, 102
1, 261972, Note_on_c, 0, 92, 65
1, 261979, Control_c, 0, 64, 105
1, 262000, Note_off_c, 0, 92, 68
1, 262009, Control_c, 0, 64, 107
1, 262039, Note_on_c, 0, 91, 58
1, 262064, Note_off_c, 0, 91, 67
1, 262084, Note_on_c, 0, 92, 72
1, 262111, Note_off_c, 0, 92, 67
1, 262143, Note_on_c, 0, 91, 67
1, 262170, Note_off_c, 0, 91, 67
1, 262202, Control_c, 0, 64, 109
1, 262205, Note_on_c, 0, 92, 60
1, 262223, Note_off_c, 0, 92, 62
1, 262247, Control_c, 0, 64, 112
1, 262257, Note_on_c, 0, 91, 65
1, 262261, Control_c, 0, 64, 116
1, 262276, Control_c, 0, 64, 124
1, 262287, Note_off_c, 0, 91, 66
1, 262291, Control_c, 0, 64, 127
1, 262297, Note_on_c, 0, 92, 71
1, 262331, Note_off_c, 0, 92, 62
1, 262349, Note_off_c, 0, 76, 55
1, 262357, Note_off_c, 0, 84, 60
1, 262362, Note_on_c, 0, 94, 72
1, 262383, Note_off_c, 0, 80, 55
1, 262403, Note_off_c, 0, 94, 61
1, 262418, Note_on_c, 0, 92, 80
1, 262458, Note_off_c, 0, 92, 61
1, 262478, Note_on_c, 0, 91, 68
1, 262531, Note_off_c, 0, 91, 66
1, 262532, Note_on_c, 0, 92, 77
1, 262580, Control_c, 0, 64, 96
1, 262594, Control_c, 0, 64, 70
1, 262603, Note_off_c, 0, 92, 66
1, 262603, Note_on_c, 0, 97, 89
1, 262606, Note_on_c, 0, 85, 53
1, 262609, Control_c, 0, 64, 45
1, 262624, Note_on_c, 0, 80, 44
1, 262624, Control_c, 0, 64, 36
1, 262633, Note_on_c, 0, 77, 44
1, 262639, Control_c, 0, 64, 42
1, 262654, Control_c, 0, 64, 51
1, 262668, Control_c, 0, 64, 60
1, 262671, Note_off_c, 0, 97, 64
1, 262677, Note_on_c, 0, 92, 71
1, 262683, Control_c, 0, 64, 67
1, 262698, Control_c, 0, 64, 73
1, 262713, Control_c, 0, 64, 80
1, 262716, Note_off_c, 0, 92, 64
1, 262728, Control_c, 0, 64, 85
1, 262737, Note_on_c, 0, 91, 55
1, 262743, Control_c, 0, 64, 90
1, 262758, Control_c, 0, 64, 95
1, 262770, Note_off_c, 0, 91, 63
1, 262773, Control_c, 0, 64, 100
1, 262787, Control_c, 0, 64, 105
1, 262798, Note_on_c, 0, 92, 65
1, 262802, Control_c, 0, 64, 109
1, 262817, Control_c, 0, 64, 114
1, 262826, Note_off_c, 0, 77, 61
1, 262827, Note_off_c, 0, 92, 68
1, 262832, Control_c, 0, 64, 116
1, 262847, Control_c, 0, 64, 119
1, 262855, Note_on_c, 0, 91, 67
1, 262861, Note_off_c, 0, 85, 39
1, 262861, Control_c, 0, 64, 122
1, 262869, Note_off_c, 0, 80, 38
1, 262876, Control_c, 0, 64, 127
1, 262883, Note_off_c, 0, 91, 65
1, 262915, Note_on_c, 0, 92, 63
1, 262937, Note_off_c, 0, 92, 67
1, 262975, Note_on_c, 0, 91, 70
1, 263021, Note_off_c, 0, 91, 61
1, 263027, Note_on_c, 0, 92, 69
1, 263078, Note_off_c, 0, 92, 64
1, 263098, Note_on_c, 0, 96, 82
1, 263114, Control_c, 0, 64, 105
1, 263118, Note_on_c, 0, 84, 48
1, 263126, Note_on_c, 0, 80, 40
1, 263127, Note_on_c, 0, 75, 46
1, 263129, Control_c, 0, 64, 81
1, 263144, Control_c, 0, 64, 62
1, 263158, Control_c, 0, 64, 34
1, 263160, Note_off_c, 0, 96, 66
1, 263173, Control_c, 0, 64, 0
1, 263178, Note_on_c, 0, 92, 59
1, 263188, Control_c, 0, 64, 30
1, 263203, Control_c, 0, 64, 42
1, 263212, Note_off_c, 0, 92, 67
1, 263218, Control_c, 0, 64, 57
1, 263233, Control_c, 0, 64, 65
1, 263237, Note_on_c, 0, 91, 66
1, 263248, Control_c, 0, 64, 70
1, 263263, Control_c, 0, 64, 75
1, 263270, Note_off_c, 0, 91, 63
1, 263277, Control_c, 0, 64, 78
1, 263291, Note_off_c, 0, 84, 58
1, 263292, Control_c, 0, 64, 83
1, 263294, Note_on_c, 0, 92, 72
1, 263315, Control_c, 0, 64, 87
1, 263328, Note_off_c, 0, 75, 61
1, 263330, Control_c, 0, 64, 91
1, 263336, Note_off_c, 0, 92, 64
1, 263345, Control_c, 0, 64, 94
1, 263351, Note_off_c, 0, 80, 54
1, 263360, Control_c, 0, 64, 97
1, 263374, Control_c, 0, 64, 99
1, 263375, Note_on_c, 0, 91, 66
1, 263403, Note_off_c, 0, 91, 69
1, 263404, Control_c, 0, 64, 102
1, 263418, Note_on_c, 0, 92, 69
1, 263418, Control_c, 0, 64, 105
1, 263433, Control_c, 0, 64, 107
1, 263444, Note_off_c, 0, 92, 69
1, 263463, Control_c, 0, 64, 110
1, 263487, Note_on_c, 0, 91, 65
1, 263535, Note_on_c, 0, 92, 64
1, 263537, Note_off_c, 0, 91, 62
1, 263601, Note_off_c, 0, 92, 65
1, 263620, Note_on_c, 0, 94, 65
1, 263625, Control_c, 0, 64, 105
1, 263640, Control_c, 0, 64, 88
1, 263652, Note_on_c, 0, 82, 49
1, 263655, Control_c, 0, 64, 69
1, 263662, Note_on_c, 0, 80, 41
1, 263663, Note_on_c, 0, 73, 46
1, 263670, Note_off_c, 0, 94, 52
1, 263670, Control_c, 0, 64, 51
1, 263685, Control_c, 0, 64, 0
1, 263700, Control_c, 0, 64, 30
1, 263715, Control_c, 0, 64, 40
1, 263729, Control_c, 0, 64, 53
1, 263732, Note_on_c, 0, 89, 57
1, 263738, Note_off_c, 0, 82, 61
1, 263744, Control_c, 0, 64, 63
1, 263754, Note_off_c, 0, 80, 61
1, 263759, Control_c, 0, 64, 71
1, 263766, Note_off_c, 0, 89, 62
1, 263774, Control_c, 0, 64, 79
1, 263789, Control_c, 0, 64, 87
1, 263790, Note_off_c, 0, 73, 62
1, 263804, Control_c, 0, 64, 93
1, 263805, Note_on_c, 0, 88, 52
1, 263819, Control_c, 0, 64, 100
1, 263832, Note_off_c, 0, 88, 60
1, 263834, Control_c, 0, 64, 109
1, 263849, Control_c, 0, 64, 122
1, 263864, Control_c, 0, 64, 127
1, 263867, Note_on_c, 0, 89, 58
1, 263900, Note_off_c, 0, 89, 64
1, 263929, Note_on_c, 0, 88, 57
1, 263962, Note_off_c, 0, 88, 65
1, 263994, Note_on_c, 0, 89, 60
1, 264026, Note_off_c, 0, 89, 64
1, 264052, Note_on_c, 0, 88, 66
1, 264078, Note_on_c, 0, 63, 51
1, 264102, Note_on_c, 0, 73, 25
1, 264113, Note_off_c, 0, 63, 65
1, 264123, Note_off_c, 0, 88, 46
1, 264137, Note_off_c, 0, 73, 45
1, 264140, Note_on_c, 0, 89, 57
1, 264304, Note_on_c, 0, 95, 66
1, 264344, Note_on_c, 0, 83, 53
1, 264365, Note_off_c, 0, 89, 32
1, 264367, Note_on_c, 0, 79, 36
1, 264412, Note_off_c, 0, 79, 48
1, 264420, Note_off_c, 0, 83, 55
1, 264455, Note_on_c, 0, 87, 54
1, 264496, Note_off_c, 0, 87, 59
1, 264538, Note_on_c, 0, 89, 46
1, 264581, Note_off_c, 0, 89, 62
1, 264608, Note_on_c, 0, 87, 57
1, 264646, Note_off_c, 0, 87, 58
1, 264683, Note_on_c, 0, 89, 57
1, 264723, Note_off_c, 0, 89, 59
1, 264752, Note_on_c, 0, 87, 50
1, 264778, Note_off_c, 0, 87, 60
1, 264833, Note_on_c, 0, 89, 45
1, 264869, Note_off_c, 0, 95, 52
1, 264902, Note_on_c, 0, 87, 40
1, 264949, Note_off_c, 0, 89, 36
1, 265040, Note_off_c, 0, 87, 58
1, 265062, Note_on_c, 0, 96, 58
1, 265072, Note_on_c, 0, 92, 49
1, 265102, Note_on_c, 0, 56, 36
1, 265153, Control_c, 0, 64, 103
1, 265168, Control_c, 0, 64, 87
1, 265182, Control_c, 0, 64, 73
1, 265196, Note_on_c, 0, 87, 48
1, 265197, Control_c, 0, 64, 61
1, 265212, Control_c, 0, 64, 48
1, 265227, Control_c, 0, 64, 37
1, 265242, Control_c, 0, 64, 32
1, 265271, Control_c, 0, 64, 35
1, 265272, Note_off_c, 0, 87, 62
1, 265277, Note_off_c, 0, 92, 35
1, 265278, Note_off_c, 0, 96, 55
1, 265286, Control_c, 0, 64, 44
1, 265301, Control_c, 0, 64, 54
1, 265303, Note_on_c, 0, 89, 49
1, 265316, Control_c, 0, 64, 62
1, 265330, Control_c, 0, 64, 67
1, 265345, Control_c, 0, 64, 71
1, 265354, Note_off_c, 0, 89, 61
1, 265360, Control_c, 0, 64, 77
1, 265375, Control_c, 0, 64, 83
1, 265387, Note_on_c, 0, 87, 56
1, 265391, Control_c, 0, 64, 92
1, 265405, Control_c, 0, 64, 102
1, 265420, Note_off_c, 0, 87, 59
1, 265420, Control_c, 0, 64, 118
1, 265435, Control_c, 0, 64, 127
1, 265467, Note_on_c, 0, 89, 57
1, 265485, Note_off_c, 0, 56, 41
1, 265499, Note_on_c, 0, 63, 43
1, 265503, Note_off_c, 0, 89, 65
1, 265516, Note_on_c, 0, 87, 58
1, 265545, Note_off_c, 0, 63, 60
1, 265579, Note_off_c, 0, 87, 59
1, 265617, Note_on_c, 0, 89, 60
1, 265658, Note_off_c, 0, 89, 62
1, 265681, Note_on_c, 0, 87, 63
1, 265718, Note_off_c, 0, 87, 57
1, 265750, Note_on_c, 0, 89, 65
1, 265755, Note_on_c, 0, 72, 48
1, 265768, Note_on_c, 0, 68, 40
1, 265789, Note_off_c, 0, 89, 61
1, 265794, Note_off_c, 0, 68, 57
1, 265795, Note_off_c, 0, 72, 60
1, 265807, Note_on_c, 0, 87, 71
1, 265853, Note_off_c, 0, 87, 56
1, 265884, Note_on_c, 0, 89, 64
1, 265920, Note_off_c, 0, 89, 61
1, 265946, Note_on_c, 0, 87, 68
1, 265979, Note_on_c, 0, 68, 48
1, 265985, Note_off_c, 0, 87, 56
1, 265998, Note_on_c, 0, 75, 47
1, 266007, Note_on_c, 0, 89, 69
1, 266023, Note_off_c, 0, 75, 61
1, 266025, Note_off_c, 0, 68, 55
1, 266055, Note_off_c, 0, 89, 60
1, 266072, Note_on_c, 0, 87, 68
1, 266115, Note_off_c, 0, 87, 56
1, 266150, Note_on_c, 0, 89, 63
1, 266186, Note_off_c, 0, 89, 62
1, 266216, Note_on_c, 0, 87, 67
1, 266251, Note_off_c, 0, 87, 58
1, 266296, Note_on_c, 0, 89, 59
1, 266310, Note_on_c, 0, 80, 52
1, 266345, Note_off_c, 0, 89, 61
1, 266354, Note_on_c, 0, 75, 39
1, 266368, Note_on_c, 0, 87, 59
1, 266377, Note_on_c, 0, 72, 31
1, 266408, Note_off_c, 0, 87, 59
1, 266457, Note_on_c, 0, 89, 54
1, 266493, Note_off_c, 0, 89, 64
1, 266511, Note_on_c, 0, 87, 64
1, 266522, Note_off_c, 0, 72, 40
1, 266550, Note_off_c, 0, 87, 58
1, 266561, Note_off_c, 0, 75, 61
1, 266580, Note_on_c, 0, 89, 63
1, 266612, Note_off_c, 0, 89, 65
1, 266615, Note_off_c, 0, 80, 63
1, 266639, Note_on_c, 0, 87, 64
1, 266667, Note_off_c, 0, 87, 64
1, 266713, Note_on_c, 0, 89, 49
1, 266737, Note_off_c, 0, 89, 59
1, 266737, Note_on_c, 0, 87, 69
1, 266754, Control_c, 0, 67, 88
1, 266769, Control_c, 0, 67, 0
1, 266785, Note_off_c, 0, 87, 63
1, 266798, Note_on_c, 0, 96, 77
1, 266808, Note_on_c, 0, 92, 68
1, 266813, Note_on_c, 0, 84, 66
1, 266835, Note_on_c, 0, 75, 51
1, 266848, Note_off_c, 0, 96, 66
1, 266850, Note_on_c, 0, 80, 46
1, 266854, Note_off_c, 0, 92, 58
1, 266891, Note_on_c, 0, 87, 59
1, 266913, Note_off_c, 0, 87, 65
1, 266961, Note_on_c, 0, 89, 45
1, 266987, Note_off_c, 0, 89, 58
1, 266990, Note_off_c, 0, 84, 58
1, 266991, Note_off_c, 0, 75, 62
1, 266991, Note_on_c, 0, 87, 69
1, 267011, Note_off_c, 0, 80, 59
1, 267032, Note_off_c, 0, 87, 62
1, 267068, Note_on_c, 0, 89, 65
1, 267096, Note_off_c, 0, 89, 63
1, 267125, Note_on_c, 0, 87, 49
1, 267147, Note_off_c, 0, 87, 56
1, 267158, Note_on_c, 0, 89, 68
1, 267201, Note_off_c, 0, 89, 61
1, 267221, Note_on_c, 0, 87, 56
1, 267238, Note_on_c, 0, 73, 43
1, 267250, Note_on_c, 0, 75, 45
1, 267289, Note_on_c, 0, 79, 44
1, 267336, Note_off_c, 0, 87, 64
1, 267340, Control_c, 0, 64, 94
1, 267355, Control_c, 0, 64, 66
1, 267366, Note_on_c, 0, 99, 87
1, 267370, Control_c, 0, 64, 42
1, 267372, Note_on_c, 0, 84, 54
1, 267384, Control_c, 0, 64, 0
1, 267399, Control_c, 0, 64, 41
1, 267414, Control_c, 0, 64, 57
1, 267429, Control_c, 0, 64, 67
1, 267435, Note_off_c, 0, 99, 63
1, 267444, Control_c, 0, 64, 78
1, 267453, Note_on_c, 0, 87, 55
1, 267459, Control_c, 0, 64, 96
1, 267473, Control_c, 0, 64, 127
1, 267494, Note_off_c, 0, 87, 60
1, 267529, Note_on_c, 0, 89, 51
1, 267561, Note_off_c, 0, 89, 63
1, 267581, Note_on_c, 0, 87, 62
1, 267592, Control_c, 0, 67, 49
1, 267607, Control_c, 0, 67, 81
1, 267615, Note_off_c, 0, 87, 62
1, 267622, Control_c, 0, 67, 113
1, 267637, Control_c, 0, 67, 127
1, 267645, Note_on_c, 0, 89, 63
1, 267673, Note_off_c, 0, 89, 65
1, 267697, Note_on_c, 0, 87, 63
1, 267727, Note_off_c, 0, 87, 62
1, 267750, Note_on_c, 0, 89, 62
1, 267792, Note_off_c, 0, 89, 59
1, 267830, Note_on_c, 0, 87, 53
1, 267852, Note_off_c, 0, 87, 58
1, 267861, Note_on_c, 0, 96, 79
1, 267903, Note_off_c, 0, 96, 67
1, 267932, Note_on_c, 0, 87, 58
1, 267965, Note_off_c, 0, 87, 63
1, 267998, Note_on_c, 0, 89, 49
1, 268023, Note_off_c, 0, 89, 59
1, 268050, Note_on_c, 0, 87, 56
1, 268079, Note_off_c, 0, 87, 60
1, 268104, Note_on_c, 0, 89, 64
1, 268134, Note_off_c, 0, 89, 65
1, 268152, Note_on_c, 0, 87, 66
1, 268191, Note_off_c, 0, 87, 57
1, 268257, Note_on_c, 0, 89, 23
1, 268276, Note_on_c, 0, 87, 63
1, 268299, Note_off_c, 0, 89, 37
1, 268315, Note_off_c, 0, 87, 57
1, 268333, Note_on_c, 0, 93, 80
1, 268341, Note_off_c, 0, 84, 58
1, 268360, Note_off_c, 0, 73, 56
1, 268368, Note_off_c, 0, 75, 56
1, 268392, Note_off_c, 0, 93, 61
1, 268395, Note_off_c, 0, 79, 41
1, 268415, Note_on_c, 0, 87, 32
1, 268447, Note_off_c, 0, 87, 53
1, 268479, Note_on_c, 0, 89, 48
1, 268503, Note_off_c, 0, 89, 62
1, 268525, Note_on_c, 0, 87, 60
1, 268568, Note_off_c, 0, 87, 59
1, 268585, Control_c, 0, 64, 97
1, 268592, Note_on_c, 0, 89, 66
1, 268594, Note_on_c, 0, 82, 48
1, 268600, Control_c, 0, 64, 78
1, 268608, Note_on_c, 0, 79, 33
1, 268613, Note_on_c, 0, 73, 43
1, 268615, Control_c, 0, 64, 72
1, 268629, Note_on_c, 0, 75, 38
1, 268629, Control_c, 0, 64, 73
1, 268630, Note_off_c, 0, 89, 60
1, 268642, Note_off_c, 0, 79, 59
1, 268644, Control_c, 0, 64, 77
1, 268659, Control_c, 0, 64, 82
1, 268660, Note_on_c, 0, 87, 55
1, 268666, Note_off_c, 0, 73, 56
1, 268666, Note_off_c, 0, 82, 55
1, 268669, Note_off_c, 0, 75, 61
1, 268674, Control_c, 0, 64, 88
1, 268683, Note_off_c, 0, 87, 57
1, 268689, Control_c, 0, 64, 95
1, 268703, Control_c, 0, 64, 101
1, 268718, Control_c, 0, 64, 104
1, 268733, Control_c, 0, 64, 107
1, 268745, Note_on_c, 0, 89, 36
1, 268762, Control_c, 0, 64, 109
1, 268768, Note_on_c, 0, 87, 64
1, 268776, Note_off_c, 0, 89, 44
1, 268777, Control_c, 0, 64, 113
1, 268792, Control_c, 0, 64, 117
1, 268820, Note_off_c, 0, 87, 59
1, 268822, Control_c, 0, 64, 112
1, 268836, Control_c, 0, 64, 92
1, 268851, Note_on_c, 0, 94, 74
1, 268851, Control_c, 0, 64, 74
1, 268866, Note_on_c, 0, 80, 46
1, 268866, Control_c, 0, 64, 60
1, 268868, Note_on_c, 0, 73, 42
1, 268872, Note_on_c, 0, 77, 42
1, 268881, Control_c, 0, 64, 56
1, 268883, Note_off_c, 0, 94, 61
1, 268888, Note_on_c, 0, 75, 30
1, 268895, Control_c, 0, 64, 59
1, 268909, Note_off_c, 0, 77, 64
1, 268910, Note_on_c, 0, 87, 63
1, 268910, Control_c, 0, 64, 62
1, 268925, Control_c, 0, 64, 66
1, 268933, Note_off_c, 0, 73, 54
1, 268936, Note_off_c, 0, 75, 49
1, 268940, Note_off_c, 0, 80, 63
1, 268940, Control_c, 0, 64, 74
1, 268953, Note_off_c, 0, 87, 60
1, 268955, Control_c, 0, 64, 81
1, 268970, Control_c, 0, 64, 87
1, 268985, Control_c, 0, 64, 92
1, 268988, Note_on_c, 0, 89, 52
1, 269000, Control_c, 0, 64, 98
1, 269015, Control_c, 0, 64, 105
1, 269028, Note_off_c, 0, 89, 65
1, 269029, Control_c, 0, 64, 115
1, 269044, Control_c, 0, 64, 127
1, 269050, Note_on_c, 0, 87, 58
1, 269085, Note_off_c, 0, 87, 60
1, 269100, Note_on_c, 0, 75, 51
1, 269101, Note_on_c, 0, 82, 45
1, 269113, Note_on_c, 0, 79, 30
1, 269125, Note_on_c, 0, 89, 55
1, 269125, Note_off_c, 0, 82, 54
1, 269138, Note_off_c, 0, 75, 63
1, 269146, Note_off_c, 0, 79, 54
1, 269150, Note_off_c, 0, 89, 63
1, 269180, Note_on_c, 0, 87, 51
1, 269202, Note_off_c, 0, 87, 58
1, 269235, Note_on_c, 0, 89, 58
1, 269270, Note_off_c, 0, 89, 62
1, 269280, Note_on_c, 0, 87, 61
1, 269360, Note_off_c, 0, 87, 55
1, 269382, Note_on_c, 0, 96, 60
1, 269387, Note_on_c, 0, 92, 55
1, 269423, Note_on_c, 0, 56, 42
1, 269423, Control_c, 0, 64, 88
1, 269438, Control_c, 0, 64, 64
1, 269453, Control_c, 0, 64, 33
1, 269468, Control_c, 0, 64, 0
1, 269468, Note_off_c, 0, 96, 65
1, 269483, Control_c, 0, 64, 37
1, 269496, Note_on_c, 0, 87, 51
1, 269498, Control_c, 0, 64, 52
1, 269498, Note_off_c, 0, 92, 60
1, 269512, Control_c, 0, 64, 63
1, 269527, Control_c, 0, 64, 70
1, 269535, Note_off_c, 0, 87, 62
1, 269542, Control_c, 0, 64, 76
1, 269557, Control_c, 0, 64, 82
1, 269572, Control_c, 0, 64, 89
1, 269581, Note_on_c, 0, 89, 44
1, 269586, Control_c, 0, 64, 98
1, 269588, Note_off_c, 0, 56, 37
1, 269601, Control_c, 0, 64, 107
1, 269608, Note_off_c, 0, 89, 59
1, 269616, Control_c, 0, 64, 124
1, 269631, Control_c, 0, 64, 127
1, 269633, Note_on_c, 0, 87, 59
1, 269664, Note_off_c, 0, 87, 60
1, 269673, Note_on_c, 0, 63, 55
1, 269692, Note_on_c, 0, 89, 64
1, 269712, Note_off_c, 0, 63, 62
1, 269725, Note_off_c, 0, 89, 62
1, 269742, Note_on_c, 0, 87, 62
1, 269790, Note_off_c, 0, 87, 57
1, 269808, Control_c, 0, 67, 105
1, 269822, Note_on_c, 0, 89, 56
1, 269823, Control_c, 0, 67, 71
1, 269838, Control_c, 0, 67, 0
1, 269855, Note_off_c, 0, 89, 63
1, 269876, Note_on_c, 0, 87, 60
1, 269912, Note_on_c, 0, 72, 53
1, 269912, Note_off_c, 0, 87, 62
1, 269915, Note_on_c, 0, 68, 45
1, 269933, Note_on_c, 0, 89, 67
1, 269942, Note_off_c, 0, 68, 56
1, 269951, Note_off_c, 0, 72, 59
1, 269971, Note_off_c, 0, 89, 61
1, 269988, Note_on_c, 0, 87, 60
1, 270041, Note_off_c, 0, 87, 61
1, 270075, Note_on_c, 0, 89, 53
1, 270101, Note_off_c, 0, 89, 59
1, 270117, Note_on_c, 0, 87, 53
1, 270158, Note_off_c, 0, 87, 64
1, 270174, Note_on_c, 0, 75, 47
1, 270177, Note_on_c, 0, 68, 37
1, 270185, Note_on_c, 0, 89, 61
1, 270219, Note_off_c, 0, 68, 49
1, 270219, Note_off_c, 0, 89, 65
1, 270219, Note_off_c, 0, 75, 55
1, 270222, Note_on_c, 0, 72, 15
1, 270242, Note_on_c, 0, 87, 52
1, 270268, Note_off_c, 0, 72, 49
1, 270282, Note_off_c, 0, 87, 60
1, 270329, Note_on_c, 0, 89, 42
1, 270358, Note_off_c, 0, 89, 47
1, 270371, Note_on_c, 0, 87, 54
1, 270399, Note_off_c, 0, 87, 59
1, 270448, Note_on_c, 0, 89, 51
1, 270454, Note_on_c, 0, 80, 50
1, 270484, Note_off_c, 0, 89, 63
1, 270491, Note_on_c, 0, 75, 37
1, 270496, Note_on_c, 0, 87, 48
1, 270539, Note_off_c, 0, 87, 61
1, 270567, Poly_aftertouch_c, 0, 72, 127
1, 270581, Note_on_c, 0, 89, 55
1, 270587, Control_c, 0, 67, 38
1, 270601, Control_c, 0, 67, 59
1, 270606, Poly_aftertouch_c, 0, 72, 0
1, 270616, Control_c, 0, 67, 82
1, 270618, Note_off_c, 0, 89, 64
1, 270631, Note_on_c, 0, 87, 58
1, 270631, Control_c, 0, 67, 109
1, 270643, Note_off_c, 0, 75, 59
1, 270646, Control_c, 0, 67, 127
1, 270676, Note_off_c, 0, 87, 59
1, 270702, Note_off_c, 0, 80, 62
1, 270705, Note_on_c, 0, 89, 59
1, 270735, Note_off_c, 0, 89, 65
1, 270752, Note_on_c, 0, 87, 62
1, 270793, Note_off_c, 0, 87, 58
1, 270822, Note_on_c, 0, 89, 63
1, 270858, Note_off_c, 0, 89, 60
1, 270884, Note_on_c, 0, 87, 57
1, 270937, Note_off_c, 0, 87, 54
1, 270967, Note_on_c, 0, 96, 70
1, 270997, Note_on_c, 0, 92, 56
1, 271001, Note_on_c, 0, 75, 47
1, 271002, Note_on_c, 0, 84, 53
1, 271027, Note_on_c, 0, 80, 42
1, 271030, Note_off_c, 0, 96, 66
1, 271039, Note_off_c, 0, 92, 61
1, 271071, Note_on_c, 0, 87, 54
1, 271083, Note_off_c, 0, 84, 58
1, 271097, Note_off_c, 0, 75, 54
1, 271104, Note_off_c, 0, 87, 64
1, 271109, Note_off_c, 0, 80, 53
1, 271149, Note_on_c, 0, 89, 35
1, 271182, Note_off_c, 0, 89, 44
1, 271191, Note_on_c, 0, 87, 56
1, 271220, Note_off_c, 0, 87, 61
1, 271270, Note_on_c, 0, 89, 34
1, 271291, Note_on_c, 0, 87, 66
1, 271304, Note_off_c, 0, 89, 43
1, 271330, Note_off_c, 0, 87, 60
1, 271355, Note_on_c, 0, 89, 47
1, 271398, Note_off_c, 0, 89, 49
1, 271425, Note_on_c, 0, 87, 44
1, 271440, Note_on_c, 0, 73, 41
1, 271453, Note_on_c, 0, 75, 46
1, 271504, Note_on_c, 0, 79, 38
1, 271533, Note_off_c, 0, 87, 61
1, 271549, Control_c, 0, 64, 92
1, 271564, Control_c, 0, 64, 72
1, 271568, Note_on_c, 0, 99, 80
1, 271579, Control_c, 0, 64, 57
1, 271590, Note_on_c, 0, 84, 45
1, 271594, Control_c, 0, 64, 39
1, 271609, Control_c, 0, 64, 40
1, 271610, Note_off_c, 0, 73, 55
1, 271623, Control_c, 0, 64, 48
1, 271631, Note_off_c, 0, 99, 63
1, 271638, Control_c, 0, 64, 58
1, 271653, Control_c, 0, 64, 66
1, 271660, Note_on_c, 0, 87, 51
1, 271668, Control_c, 0, 64, 75
1, 271683, Control_c, 0, 64, 87
1, 271697, Control_c, 0, 64, 100
1, 271700, Note_off_c, 0, 87, 61
1, 271712, Control_c, 0, 64, 114
1, 271727, Control_c, 0, 64, 127
1, 271734, Note_on_c, 0, 89, 51
1, 271766, Note_off_c, 0, 89, 63
1, 271786, Note_on_c, 0, 87, 61
1, 271818, Note_off_c, 0, 87, 61
1, 271852, Note_on_c, 0, 89, 60
1, 271855, Note_on_c, 0, 73, 32
1, 271883, Note_off_c, 0, 89, 63
1, 271911, Note_on_c, 0, 87, 58
1, 271939, Note_off_c, 0, 87, 60
1, 271970, Note_on_c, 0, 89, 53
1, 272007, Note_off_c, 0, 89, 63
1, 272013, Note_on_c, 0, 87, 64
1, 272053, Note_off_c, 0, 87, 60
1, 272071, Note_on_c, 0, 96, 76
1, 272118, Note_off_c, 0, 96, 65
1, 272139, Note_on_c, 0, 87, 65
1, 272174, Note_off_c, 0, 87, 62
1, 272216, Note_on_c, 0, 89, 39
1, 272245, Note_off_c, 0, 89, 49
1, 272252, Note_on_c, 0, 87, 63
1, 272285, Note_off_c, 0, 87, 60
1, 272335, Note_on_c, 0, 89, 50
1, 272359, Note_off_c, 0, 89, 56
1, 272377, Note_on_c, 0, 87, 58
1, 272403, Note_off_c, 0, 87, 60
1, 272433, Note_on_c, 0, 89, 58
1, 272467, Note_off_c, 0, 89, 62
1, 272486, Note_on_c, 0, 87, 60
1, 272556, Note_on_c, 0, 93, 74
1, 272575, Note_off_c, 0, 87, 61
1, 272593, Note_off_c, 0, 84, 55
1, 272608, Note_off_c, 0, 93, 61
1, 272622, Note_off_c, 0, 75, 54
1, 272636, Note_off_c, 0, 73, 41
1, 272640, Note_on_c, 0, 87, 36
1, 272649, Note_off_c, 0, 79, 43
1, 272684, Note_off_c, 0, 87, 59
1, 272762, Note_on_c, 0, 87, 44
1, 272791, Note_off_c, 0, 87, 55
1, 272805, Note_on_c, 0, 89, 42
1, 272827, Note_on_c, 0, 82, 42
1, 272828, Note_on_c, 0, 73, 42
1, 272848, Note_off_c, 0, 89, 64
1, 272853, Note_on_c, 0, 79, 7
1, 272857, Note_on_c, 0, 75, 35
1, 272872, Note_on_c, 0, 87, 60
1, 272883, Note_off_c, 0, 73, 52
1, 272895, Note_off_c, 0, 75, 57
1, 272896, Note_off_c, 0, 82, 51
1, 272897, Note_off_c, 0, 79, 53
1, 272907, Note_off_c, 0, 87, 59
1, 272982, Note_on_c, 0, 89, 4
1, 272997, Note_on_c, 0, 87, 61
1, 273041, Note_off_c, 0, 89, 30
1, 273065, Note_off_c, 0, 87, 56
1, 273087, Note_on_c, 0, 94, 69
1, 273105, Note_on_c, 0, 77, 42
1, 273105, Note_on_c, 0, 80, 42
1, 273112, Note_on_c, 0, 73, 37
1, 273116, Note_off_c, 0, 94, 65
1, 273122, Note_on_c, 0, 75, 26
1, 273133, Note_off_c, 0, 77, 56
1, 273159, Note_on_c, 0, 87, 53
1, 273164, Note_off_c, 0, 73, 52
1, 273167, Note_off_c, 0, 75, 53
1, 273167, Note_off_c, 0, 80, 56
1, 273196, Note_off_c, 0, 87, 63
1, 273256, Note_on_c, 0, 89, 24
1, 273289, Note_on_c, 0, 87, 62
1, 273289, Note_off_c, 0, 89, 42
1, 273331, Note_off_c, 0, 87, 54
1, 273349, Note_on_c, 0, 82, 47
1, 273359, Note_on_c, 0, 75, 50
1, 273371, Note_off_c, 0, 82, 61
1, 273387, Note_on_c, 0, 89, 41
1, 273397, Note_off_c, 0, 75, 64
1, 273415, Poly_aftertouch_c, 0, 79, 127
1, 273417, Note_off_c, 0, 89, 46
1, 273421, Note_on_c, 0, 87, 55
1, 273441, Poly_aftertouch_c, 0, 79, 0
1, 273450, Note_off_c, 0, 87, 56
1, 273497, Note_on_c, 0, 89, 53
1, 273532, Note_off_c, 0, 89, 60
1, 273533, Note_on_c, 0, 87, 57
1, 273638, Note_on_c, 0, 96, 64
1, 273647, Note_off_c, 0, 87, 52
1, 273669, Note_on_c, 0, 92, 45
1, 273671, Control_c, 0, 64, 117
1, 273683, Note_on_c, 0, 56, 46
1, 273686, Control_c, 0, 64, 82
1, 273701, Control_c, 0, 64, 61
1, 273715, Control_c, 0, 64, 40
1, 273730, Control_c, 0, 64, 39
1, 273742, Note_off_c, 0, 96, 63
1, 273745, Control_c, 0, 64, 46
1, 273760, Control_c, 0, 64, 54
1, 273765, Note_on_c, 0, 87, 56
1, 273775, Control_c, 0, 64, 62
1, 273788, Note_off_c, 0, 92, 42
1, 273790, Control_c, 0, 64, 68
1, 273812, Control_c, 0, 64, 74
1, 273823, Note_off_c, 0, 87, 58
1, 273826, Control_c, 0, 64, 81
1, 273841, Control_c, 0, 64, 90
1, 273856, Control_c, 0, 64, 97
1, 273860, Note_on_c, 0, 89, 49
1, 273867, Note_off_c, 0, 56, 37
1, 273871, Control_c, 0, 64, 107
1, 273885, Control_c, 0, 64, 127
1, 273893, Note_off_c, 0, 89, 63
1, 273925, Note_on_c, 0, 87, 46
1, 273946, Note_on_c, 0, 63, 49
1, 273951, Note_off_c, 0, 87, 55
1, 273981, Note_on_c, 0, 89, 61
1, 273983, Note_off_c, 0, 63, 62
1, 274014, Note_off_c, 0, 89, 63
1, 274028, Note_on_c, 0, 87, 59
1, 274079, Note_off_c, 0, 87, 57
1, 274119, Note_on_c, 0, 89, 51
1, 274144, Note_off_c, 0, 89, 62
1, 274172, Note_on_c, 0, 87, 53
1, 274201, Note_off_c, 0, 87, 59
1, 274208, Note_on_c, 0, 68, 42
1, 274211, Note_on_c, 0, 72, 44
1, 274229, Note_on_c, 0, 89, 61
1, 274234, Note_off_c, 0, 68, 58
1, 274253, Note_off_c, 0, 72, 57
1, 274261, Note_off_c, 0, 89, 64
1, 274277, Note_on_c, 0, 87, 61
1, 274327, Note_off_c, 0, 87, 60
1, 274365, Note_on_c, 0, 89, 50
1, 274389, Note_off_c, 0, 89, 61
1, 274413, Note_on_c, 0, 87, 46
1, 274446, Note_off_c, 0, 87, 62
1, 274454, Note_on_c, 0, 68, 42
1, 274470, Note_on_c, 0, 75, 46
1, 274473, Note_on_c, 0, 89, 58
1, 274503, Note_off_c, 0, 89, 64
1, 274520, Note_off_c, 0, 75, 55
1, 274523, Note_on_c, 0, 87, 58
1, 274529, Note_off_c, 0, 68, 46
1, 274553, Poly_aftertouch_c, 0, 72, 127
1, 274576, Note_off_c, 0, 87, 59
1, 274591, Poly_aftertouch_c, 0, 72, 0
1, 274605, Note_on_c, 0, 89, 48
1, 274643, Note_off_c, 0, 89, 63
1, 274660, Note_on_c, 0, 87, 49
1, 274705, Note_off_c, 0, 87, 57
1, 274748, Note_on_c, 0, 89, 50
1, 274756, Note_on_c, 0, 80, 54
1, 274783, Note_off_c, 0, 89, 64
1, 274801, Note_on_c, 0, 75, 25
1, 274818, Note_on_c, 0, 87, 41
1, 274845, Note_off_c, 0, 87, 57
1, 274876, Note_on_c, 0, 89, 55
1, 274896, Poly_aftertouch_c, 0, 72, 0
1, 274918, Note_off_c, 0, 89, 63
1, 274924, Note_off_c, 0, 75, 35
1, 274929, Note_on_c, 0, 87, 57
1, 274982, Note_off_c, 0, 87, 60
1, 275006, Note_on_c, 0, 89, 52
1, 275014, Note_off_c, 0, 80, 62
1, 275044, Note_off_c, 0, 89, 66
1, 275061, Note_on_c, 0, 87, 55
1, 275096, Note_off_c, 0, 87, 62
1, 275134, Note_on_c, 0, 89, 46
1, 275159, Note_off_c, 0, 89, 57
1, 275178, Note_on_c, 0, 87, 62
1, 275263, Note_on_c, 0, 89, 21
1, 275263, Note_off_c, 0, 87, 57
1, 275271, Note_on_c, 0, 96, 65
1, 275312, Note_on_c, 0, 84, 53
1, 275313, Note_on_c, 0, 92, 54
1, 275315, Note_on_c, 0, 75, 49
1, 275316, Note_off_c, 0, 89, 37
1, 275340, Note_off_c, 0, 96, 67
1, 275343, Note_on_c, 0, 80, 36
1, 275346, Note_off_c, 0, 84, 63
1, 275356, Note_off_c, 0, 92, 63
1, 275365, Note_off_c, 0, 75, 55
1, 275372, Note_off_c, 0, 80, 57
1, 275383, Note_on_c, 0, 87, 52
1, 275407, Note_off_c, 0, 87, 58
1, 275439, Note_on_c, 0, 89, 47
1, 275474, Note_off_c, 0, 89, 63
1, 275486, Note_on_c, 0, 87, 61
1, 275529, Note_off_c, 0, 87, 56
1, 275567, Note_on_c, 0, 89, 51
1, 275590, Note_off_c, 0, 89, 61
1, 275611, Note_on_c, 0, 87, 54
1, 275644, Note_off_c, 0, 87, 61
1, 275669, Note_on_c, 0, 89, 60
1, 275722, Note_off_c, 0, 89, 54
1, 275725, Note_on_c, 0, 87, 57
1, 275817, Note_off_c, 0, 87, 59
1, 275824, Note_on_c, 0, 96, 66
1, 275834, Note_on_c, 0, 92, 54
1, 275846, Note_on_c, 0, 56, 44
1, 275871, Note_off_c, 0, 96, 63
1, 275880, Note_off_c, 0, 92, 60
1, 275932, Note_off_c, 0, 56, 52
1, 275944, Note_on_c, 0, 87, 20
1, 275984, Note_off_c, 0, 87, 38
1, 275995, Note_on_c, 0, 89, 44
1, 276023, Note_off_c, 0, 89, 58
1, 276074, Note_on_c, 0, 87, 34
1, 276104, Note_off_c, 0, 87, 50
1, 276118, Note_on_c, 0, 89, 63
1, 276131, Note_on_c, 0, 63, 40
1, 276150, Note_off_c, 0, 89, 65
1, 276166, Note_off_c, 0, 63, 58
1, 276179, Note_on_c, 0, 87, 59
1, 276213, Note_off_c, 0, 87, 60
1, 276252, Note_on_c, 0, 89, 51
1, 276277, Note_off_c, 0, 89, 62
1, 276297, Note_on_c, 0, 87, 57
1, 276333, Note_off_c, 0, 87, 61
1, 276358, Note_on_c, 0, 89, 65
1, 276382, Note_on_c, 0, 72, 49
1, 276400, Note_off_c, 0, 89, 61
1, 276403, Note_on_c, 0, 68, 25
1, 276418, Note_on_c, 0, 87, 58
1, 276434, Note_off_c, 0, 72, 52
1, 276439, Note_off_c, 0, 68, 44
1, 276463, Note_off_c, 0, 87, 56
1, 276502, Note_on_c, 0, 89, 47
1, 276528, Note_off_c, 0, 89, 59
1, 276553, Note_on_c, 0, 87, 56
1, 276595, Note_off_c, 0, 87, 58
1, 276612, Note_on_c, 0, 89, 66
1, 276627, Note_on_c, 0, 68, 46
1, 276635, Note_on_c, 0, 75, 51
1, 276663, Note_off_c, 0, 89, 62
1, 276676, Note_on_c, 0, 87, 58
1, 276679, Note_off_c, 0, 75, 56
1, 276681, Note_off_c, 0, 68, 50
1, 276726, Note_off_c, 0, 87, 59
1, 276753, Note_on_c, 0, 89, 52
1, 276798, Note_off_c, 0, 89, 65
1, 276818, Note_on_c, 0, 87, 55
1, 276869, Note_off_c, 0, 87, 57
1, 276902, Note_on_c, 0, 89, 63
1, 276902, Note_on_c, 0, 80, 50
1, 276932, Note_on_c, 0, 75, 41
1, 276938, Note_off_c, 0, 89, 63
1, 276969, Note_on_c, 0, 87, 60
1, 276995, Poly_aftertouch_c, 0, 72, 127
1, 277008, Note_off_c, 0, 87, 58
1, 277040, Note_on_c, 0, 89, 59
1, 277071, Note_off_c, 0, 89, 64
1, 277099, Note_on_c, 0, 87, 62
1, 277132, Poly_aftertouch_c, 0, 72, 0
1, 277136, Note_off_c, 0, 87, 59
1, 277140, Note_off_c, 0, 75, 56
1, 277154, Note_on_c, 0, 89, 64
1, 277186, Note_off_c, 0, 89, 60
1, 277216, Note_off_c, 0, 80, 62
1, 277221, Note_on_c, 0, 87, 58
1, 277254, Note_off_c, 0, 87, 61
1, 277292, Note_on_c, 0, 89, 51
1, 277322, Note_off_c, 0, 89, 58
1, 277331, Note_on_c, 0, 87, 69
1, 277380, Note_off_c, 0, 87, 62
1, 277394, Note_on_c, 0, 96, 72
1, 277408, Note_on_c, 0, 92, 61
1, 277446, Note_on_c, 0, 84, 55
1, 277453, Note_off_c, 0, 92, 56
1, 277455, Note_on_c, 0, 75, 47
1, 277456, Note_off_c, 0, 96, 66
1, 277468, Note_on_c, 0, 80, 39
1, 277486, Note_on_c, 0, 87, 62
1, 277489, Note_off_c, 0, 84, 55
1, 277512, Note_off_c, 0, 87, 66
1, 277522, Note_off_c, 0, 80, 56
1, 277526, Note_off_c, 0, 75, 56
1, 277579, Note_on_c, 0, 89, 39
1, 277607, Note_off_c, 0, 89, 53
1, 277609, Note_on_c, 0, 87, 65
1, 277655, Note_off_c, 0, 87, 58
1, 277683, Note_on_c, 0, 89, 60
1, 277714, Note_off_c, 0, 89, 65
1, 277731, Note_on_c, 0, 87, 58
1, 277770, Note_off_c, 0, 87, 63
1, 277793, Note_on_c, 0, 89, 64
1, 277829, Note_off_c, 0, 89, 58
1, 277859, Note_on_c, 0, 87, 69
1, 277967, Note_on_c, 0, 99, 68
1, 277970, Note_off_c, 0, 87, 52
1, 277981, Note_on_c, 0, 95, 61
1, 278026, Note_on_c, 0, 54, 29
1, 278059, Control_c, 0, 64, 80
1, 278074, Control_c, 0, 64, 59
1, 278089, Control_c, 0, 64, 32
1, 278100, Note_on_c, 0, 87, 52
1, 278104, Control_c, 0, 64, 29
1, 278106, Note_off_c, 0, 95, 59
1, 278118, Control_c, 0, 64, 42
1, 278133, Control_c, 0, 64, 54
1, 278148, Control_c, 0, 64, 64
1, 278153, Note_off_c, 0, 87, 62
1, 278163, Note_off_c, 0, 99, 36
1, 278164, Control_c, 0, 64, 70
1, 278179, Control_c, 0, 64, 78
1, 278194, Control_c, 0, 64, 87
1, 278202, Note_on_c, 0, 92, 57
1, 278208, Control_c, 0, 64, 97
1, 278223, Control_c, 0, 64, 116
1, 278238, Note_off_c, 0, 92, 65
1, 278238, Control_c, 0, 64, 127
1, 278258, Note_off_c, 0, 54, 35
1, 278272, Note_on_c, 0, 90, 66
1, 278314, Note_off_c, 0, 90, 59
1, 278331, Note_on_c, 0, 63, 42
1, 278352, Note_on_c, 0, 92, 66
1, 278373, Note_off_c, 0, 63, 59
1, 278384, Note_off_c, 0, 92, 66
1, 278416, Note_on_c, 0, 90, 66
1, 278446, Note_off_c, 0, 90, 62
1, 278481, Note_on_c, 0, 92, 71
1, 278510, Note_off_c, 0, 92, 65
1, 278541, Note_on_c, 0, 90, 65
1, 278575, Note_off_c, 0, 90, 58
1, 278593, Note_on_c, 0, 71, 49
1, 278596, Note_on_c, 0, 92, 79
1, 278616, Note_off_c, 0, 71, 61
1, 278629, Note_off_c, 0, 92, 59
1, 278663, Note_on_c, 0, 90, 65
1, 278703, Note_off_c, 0, 90, 58
1, 278721, Note_on_c, 0, 92, 75
1, 278734, Control_c, 0, 67, 111
1, 278749, Control_c, 0, 67, 84
1, 278753, Note_off_c, 0, 92, 64
1, 278764, Control_c, 0, 67, 53
1, 278779, Control_c, 0, 67, 0
1, 278780, Note_on_c, 0, 90, 65
1, 278830, Note_off_c, 0, 90, 61
1, 278834, Note_on_c, 0, 78, 45
1, 278841, Note_on_c, 0, 92, 73
1, 278847, Note_on_c, 0, 71, 30
1, 278873, Note_off_c, 0, 92, 64
1, 278881, Note_off_c, 0, 71, 49
1, 278881, Note_off_c, 0, 78, 55
1, 278894, Note_on_c, 0, 90, 60
1, 278957, Note_off_c, 0, 90, 62
1, 278972, Note_on_c, 0, 92, 68
1, 279005, Note_off_c, 0, 92, 67
1, 279037, Note_on_c, 0, 90, 56
1, 279089, Note_off_c, 0, 90, 60
1, 279117, Note_on_c, 0, 83, 61
1, 279124, Note_on_c, 0, 92, 67
1, 279159, Note_off_c, 0, 92, 67
1, 279188, Note_on_c, 0, 75, 36
1, 279199, Note_on_c, 0, 90, 60
1, 279232, Note_off_c, 0, 90, 65
1, 279256, Note_on_c, 0, 92, 68
1, 279290, Note_off_c, 0, 92, 66
1, 279294, Note_off_c, 0, 75, 59
1, 279327, Note_on_c, 0, 90, 63
1, 279361, Note_off_c, 0, 90, 64
1, 279376, Note_off_c, 0, 83, 56
1, 279390, Note_on_c, 0, 92, 65
1, 279418, Note_off_c, 0, 92, 67
1, 279451, Note_on_c, 0, 90, 62
1, 279481, Note_off_c, 0, 90, 65
1, 279484, Control_c, 0, 67, 43
1, 279498, Control_c, 0, 67, 51
1, 279500, Note_on_c, 0, 92, 71
1, 279513, Control_c, 0, 67, 56
1, 279528, Control_c, 0, 67, 58
1, 279543, Note_off_c, 0, 92, 62
1, 279557, Control_c, 0, 67, 59
1, 279564, Note_on_c, 0, 90, 67
1, 279596, Note_off_c, 0, 90, 66
1, 279617, Control_c, 0, 67, 60
1, 279628, Note_on_c, 0, 99, 74
1, 279639, Note_on_c, 0, 95, 59
1, 279653, Note_on_c, 0, 87, 53
1, 279660, Note_on_c, 0, 78, 44
1, 279674, Note_off_c, 0, 95, 62
1, 279689, Note_off_c, 0, 87, 65
1, 279691, Note_off_c, 0, 99, 60
1, 279700, Note_on_c, 0, 83, 25
1, 279705, Control_c, 0, 67, 60
1, 279711, Note_on_c, 0, 90, 56
1, 279720, Control_c, 0, 67, 62
1, 279731, Note_off_c, 0, 78, 54
1, 279735, Control_c, 0, 67, 62
1, 279741, Note_off_c, 0, 83, 44
1, 279746, Note_off_c, 0, 90, 65
1, 279750, Control_c, 0, 67, 63
1, 279766, Control_c, 0, 67, 64
1, 279788, Note_on_c, 0, 92, 64
1, 279788, Control_c, 0, 67, 66
1, 279803, Control_c, 0, 67, 83
1, 279817, Control_c, 0, 67, 109
1, 279821, Note_off_c, 0, 92, 66
1, 279832, Control_c, 0, 67, 127
1, 279848, Note_on_c, 0, 90, 67
1, 279884, Note_off_c, 0, 90, 62
1, 279907, Note_on_c, 0, 92, 70
1, 279934, Note_off_c, 0, 92, 67
1, 279972, Note_on_c, 0, 90, 60
1, 279991, Note_off_c, 0, 90, 63
1, 280023, Note_on_c, 0, 92, 64
1, 280068, Note_on_c, 0, 90, 70
1, 280085, Note_off_c, 0, 92, 54
1, 280110, Note_off_c, 0, 90, 59
1, 280145, Note_on_c, 0, 99, 71
1, 280163, Note_on_c, 0, 95, 54
1, 280174, Note_on_c, 0, 54, 48
1, 280209, Note_off_c, 0, 95, 60
1, 280212, Note_off_c, 0, 99, 59
1, 280237, Note_on_c, 0, 87, 54
1, 280264, Note_off_c, 0, 87, 62
1, 280273, Note_off_c, 0, 54, 54
1, 280306, Note_on_c, 0, 92, 59
1, 280338, Note_off_c, 0, 92, 67
1, 280375, Note_on_c, 0, 90, 62
1, 280408, Note_off_c, 0, 90, 63
1, 280433, Note_on_c, 0, 92, 71
1, 280454, Note_on_c, 0, 63, 46
1, 280476, Note_off_c, 0, 92, 61
1, 280495, Note_off_c, 0, 63, 61
1, 280500, Note_on_c, 0, 90, 67
1, 280545, Note_off_c, 0, 90, 59
1, 280583, Note_on_c, 0, 92, 68
1, 280613, Note_off_c, 0, 92, 66
1, 280647, Note_on_c, 0, 90, 65
1, 280678, Note_off_c, 0, 90, 63
1, 280712, Note_on_c, 0, 92, 75
1, 280727, Note_on_c, 0, 71, 49
1, 280745, Note_off_c, 0, 92, 61
1, 280756, Note_off_c, 0, 71, 64
1, 280777, Note_on_c, 0, 90, 63
1, 280813, Note_off_c, 0, 90, 60
1, 280849, Note_on_c, 0, 92, 71
1, 280877, Note_off_c, 0, 92, 67
1, 280914, Note_on_c, 0, 90, 63
1, 280948, Note_off_c, 0, 90, 58
1, 280971, Note_on_c, 0, 92, 74
1, 280992, Note_on_c, 0, 78, 38
1, 281001, Note_off_c, 0, 92, 64
1, 281004, Note_on_c, 0, 71, 15
1, 281025, Note_off_c, 0, 78, 50
1, 281041, Note_on_c, 0, 90, 66
1, 281049, Note_off_c, 0, 71, 38
1, 281063, Poly_aftertouch_c, 0, 75, 0
1, 281073, Note_off_c, 0, 90, 60
1, 281108, Note_on_c, 0, 92, 64
1, 281132, Note_off_c, 0, 92, 66
1, 281174, Note_on_c, 0, 90, 62
1, 281203, Note_off_c, 0, 90, 65
1, 281240, Note_on_c, 0, 92, 63
1, 281263, Note_on_c, 0, 83, 49
1, 281271, Note_off_c, 0, 92, 67
1, 281318, Note_on_c, 0, 75, 36
1, 281319, Poly_aftertouch_c, 0, 78, 127
1, 281320, Note_on_c, 0, 90, 56
1, 281353, Note_off_c, 0, 90, 65
1, 281361, Poly_aftertouch_c, 0, 78, 0
1, 281388, Note_on_c, 0, 92, 64
1, 281419, Note_off_c, 0, 92, 67
1, 281453, Note_on_c, 0, 90, 65
1, 281461, Note_off_c, 0, 83, 57
1, 281488, Note_off_c, 0, 90, 60
1, 281525, Note_on_c, 0, 92, 58
1, 281555, Note_off_c, 0, 92, 68
1, 281594, Note_on_c, 0, 90, 52
1, 281615, Note_off_c, 0, 90, 59
1, 281645, Note_on_c, 0, 92, 60
1, 281683, Note_off_c, 0, 92, 61
1, 281702, Note_on_c, 0, 90, 62
1, 281734, Note_off_c, 0, 75, 34
1, 281742, Note_off_c, 0, 90, 61
1, 281786, Note_on_c, 0, 99, 66
1, 281811, Note_on_c, 0, 95, 35
1, 281813, Note_on_c, 0, 87, 35
1, 281823, Note_on_c, 0, 78, 41
1, 281838, Note_off_c, 0, 95, 48
1, 281838, Note_off_c, 0, 99, 60
1, 281840, Note_on_c, 0, 83, 35
1, 281861, Note_off_c, 0, 87, 63
1, 281866, Note_on_c, 0, 90, 58
1, 281878, Note_off_c, 0, 83, 49
1, 281884, Note_off_c, 0, 78, 53
1, 281899, Note_off_c, 0, 90, 64
1, 281947, Note_on_c, 0, 92, 54
1, 281979, Note_off_c, 0, 92, 65
1, 282008, Note_on_c, 0, 90, 59
1, 282047, Note_off_c, 0, 90, 63
1, 282090, Note_on_c, 0, 92, 60
1, 282127, Note_off_c, 0, 92, 64
1, 282161, Note_on_c, 0, 90, 56
1, 282199, Note_off_c, 0, 90, 60
1, 282239, Note_on_c, 0, 92, 51
1, 282283, Note_off_c, 0, 92, 63
1, 282322, Note_on_c, 0, 90, 55
1, 282401, Note_off_c, 0, 90, 55
1, 282457, Note_on_c, 0, 102, 67
1, 282468, Note_on_c, 0, 98, 51
1, 282498, Note_on_c, 0, 54, 36
1, 282536, Control_c, 0, 64, 98
1, 282551, Control_c, 0, 64, 73
1, 282566, Control_c, 0, 64, 59
1, 282568, Note_on_c, 0, 90, 39
1, 282581, Control_c, 0, 64, 53
1, 282596, Control_c, 0, 64, 55
1, 282611, Note_off_c, 0, 98, 53
1, 282611, Control_c, 0, 64, 59
1, 282625, Control_c, 0, 64, 62
1, 282638, Note_off_c, 0, 90, 50
1, 282640, Control_c, 0, 64, 67
1, 282655, Control_c, 0, 64, 75
1, 282670, Control_c, 0, 64, 85
1, 282685, Control_c, 0, 64, 94
1, 282688, Note_on_c, 0, 95, 51
1, 282700, Control_c, 0, 64, 100
1, 282715, Control_c, 0, 64, 113
1, 282730, Control_c, 0, 64, 127
1, 282741, Note_off_c, 0, 95, 60
1, 282783, Note_on_c, 0, 93, 58
1, 282831, Note_off_c, 0, 102, 17
1, 282834, Note_off_c, 0, 93, 56
1, 282854, Note_off_c, 0, 54, 31
1, 282873, Note_on_c, 0, 95, 55
1, 282899, Note_on_c, 0, 62, 36
1, 282913, Note_off_c, 0, 95, 62
1, 282956, Note_on_c, 0, 93, 56
1, 282956, Note_off_c, 0, 62, 57
1, 283001, Note_off_c, 0, 93, 58
1, 283035, Note_on_c, 0, 95, 54
1, 283073, Note_off_c, 0, 95, 64
1, 283101, Note_on_c, 0, 93, 63
1, 283151, Note_off_c, 0, 93, 56
1, 283162, Note_on_c, 0, 69, 41
1, 283177, Note_on_c, 0, 95, 55
1, 283189, Note_off_c, 0, 69, 59
1, 283213, Note_off_c, 0, 95, 64
1, 283257, Note_on_c, 0, 93, 56
1, 283287, Note_off_c, 0, 93, 51
1, 283328, Note_on_c, 0, 95, 52
1, 283362, Note_off_c, 0, 95, 64
1, 283384, Note_on_c, 0, 93, 63
1, 283436, Note_on_c, 0, 74, 50
1, 283439, Note_on_c, 0, 81, 41
1, 283439, Note_off_c, 0, 93, 57
1, 283459, Note_on_c, 0, 95, 61
1, 283460, Note_on_c, 0, 78, 22
1, 283477, Note_off_c, 0, 74, 60
1, 283477, Note_off_c, 0, 81, 54
1, 283493, Note_off_c, 0, 95, 64
1, 283503, Note_off_c, 0, 78, 47
1, 283540, Note_on_c, 0, 93, 61
1, 283585, Note_off_c, 0, 93, 54
1, 283618, Note_on_c, 0, 95, 53
1, 283657, Note_off_c, 0, 95, 64
1, 283696, Note_on_c, 0, 93, 61
1, 283747, Note_off_c, 0, 93, 57
1, 283755, Note_on_c, 0, 86, 52
1, 283769, Note_on_c, 0, 95, 53
1, 283808, Note_off_c, 0, 95, 64
1, 283824, Note_on_c, 0, 78, 13
1, 283860, Note_on_c, 0, 93, 53
1, 283886, Note_off_c, 0, 78, 40
1, 283889, Note_off_c, 0, 93, 52
1, 283920, Note_on_c, 0, 95, 57
1, 283955, Note_off_c, 0, 95, 65
1, 283982, Note_on_c, 0, 93, 63
1, 284025, Note_off_c, 0, 86, 56
1, 284031, Note_off_c, 0, 93, 57
1, 284060, Note_on_c, 0, 95, 58
1, 284095, Note_off_c, 0, 95, 63
1, 284138, Note_on_c, 0, 93, 52
1, 284169, Note_off_c, 0, 93, 49
1, 284200, Note_on_c, 0, 95, 49
1, 284241, Note_off_c, 0, 95, 61
1, 284262, Note_on_c, 0, 93, 55
1, 284310, Note_off_c, 0, 93, 55
1, 284341, Note_on_c, 0, 102, 70
1, 284356, Note_on_c, 0, 98, 54
1, 284359, Note_on_c, 0, 81, 39
1, 284372, Note_on_c, 0, 90, 18
1, 284410, Note_off_c, 0, 98, 59
1, 284413, Note_off_c, 0, 102, 61
1, 284417, Note_off_c, 0, 81, 60
1, 284420, Note_off_c, 0, 90, 46
1, 284438, Note_on_c, 0, 93, 41
1, 284447, Poly_aftertouch_c, 0, 86, 0
1, 284477, Note_off_c, 0, 93, 47
1, 284518, Note_on_c, 0, 95, 45
1, 284548, Note_off_c, 0, 95, 60
1, 284570, Note_on_c, 0, 93, 61
1, 284614, Note_off_c, 0, 93, 58
1, 284658, Note_on_c, 0, 95, 51
1, 284712, Note_off_c, 0, 95, 65
1, 284744, Note_on_c, 0, 93, 34
1, 284783, Note_off_c, 0, 93, 47
1, 284873, Note_on_c, 0, 93, 57
1, 284942, Note_off_c, 0, 93, 59
1, 284991, Note_on_c, 0, 102, 65
1, 285009, Note_on_c, 0, 98, 45
1, 285031, Note_on_c, 0, 54, 33
1, 285101, Note_off_c, 0, 102, 56
1, 285104, Note_off_c, 0, 98, 58
1, 285107, Note_on_c, 0, 90, 51
1, 285139, Note_off_c, 0, 90, 54
1, 285195, Note_off_c, 0, 54, 37
1, 285252, Note_on_c, 0, 93, 58
1, 285258, Poly_aftertouch_c, 0, 95, 0
1, 285300, Note_off_c, 0, 93, 57
1, 285345, Note_on_c, 0, 62, 35
1, 285371, Note_on_c, 0, 95, 55
1, 285388, Note_off_c, 0, 62, 59
1, 285398, Note_off_c, 0, 95, 65
1, 285437, Note_on_c, 0, 93, 55
1, 285488, Note_off_c, 0, 93, 51
1, 285517, Note_on_c, 0, 95, 55
1, 285560, Note_off_c, 0, 95, 64
1, 285593, Note_on_c, 0, 93, 63
1, 285648, Note_off_c, 0, 93, 56
1, 285673, Note_on_c, 0, 95, 60
1, 285675, Note_on_c, 0, 69, 33
1, 285706, Note_off_c, 0, 95, 66
1, 285711, Note_off_c, 0, 69, 52
1, 285750, Note_on_c, 0, 93, 53
1, 285809, Note_off_c, 0, 93, 56
1, 285845, Note_on_c, 0, 95, 49
1, 285887, Note_off_c, 0, 95, 63
1, 285922, Note_on_c, 0, 93, 60
1, 285982, Note_off_c, 0, 93, 57
1, 286004, Note_on_c, 0, 95, 57
1, 286006, Note_on_c, 0, 74, 44
1, 286018, Note_on_c, 0, 81, 36
1, 286044, Note_off_c, 0, 74, 59
1, 286045, Note_on_c, 0, 78, 20
1, 286047, Note_off_c, 0, 95, 61
1, 286057, Note_off_c, 0, 81, 49
1, 286086, Note_off_c, 0, 78, 47
1, 286096, Note_on_c, 0, 93, 60
1, 286155, Note_off_c, 0, 93, 56
1, 286177, Note_on_c, 0, 95, 54
1, 286220, Note_off_c, 0, 95, 62
1, 286272, Note_on_c, 0, 93, 53
1, 286325, Note_off_c, 0, 93, 58
1, 286349, Note_on_c, 0, 86, 45
1, 286357, Note_on_c, 0, 95, 50
1, 286399, Note_off_c, 0, 95, 62
1, 286400, Note_on_c, 0, 78, 35
1, 286447, Note_on_c, 0, 93, 54
1, 286465, Note_off_c, 0, 78, 55
1, 286501, Note_off_c, 0, 93, 56
1, 286545, Note_on_c, 0, 95, 47
1, 286585, Note_off_c, 0, 95, 64
1, 286619, Note_on_c, 0, 93, 59
1, 286661, Note_off_c, 0, 93, 59
1, 286703, Note_on_c, 0, 95, 56
1, 286742, Note_off_c, 0, 95, 63
1, 286761, Note_off_c, 0, 86, 50
1, 286775, Note_on_c, 0, 93, 52
1, 286825, Note_off_c, 0, 93, 59
1, 286876, Note_on_c, 0, 95, 44
1, 286927, Note_off_c, 0, 95, 58
1, 286958, Note_on_c, 0, 93, 50
1, 287040, Note_off_c, 0, 93, 50
1, 287105, Note_on_c, 0, 102, 60
1, 287112, Note_on_c, 0, 98, 50
1, 287134, Note_on_c, 0, 81, 35
1, 287134, Note_on_c, 0, 90, 41
1, 287204, Note_off_c, 0, 98, 58
1, 287218, Poly_aftertouch_c, 0, 86, 127
1, 287235, Note_off_c, 0, 102, 48
1, 287239, Note_off_c, 0, 81, 54
1, 287241, Note_on_c, 0, 93, 49
1, 287252, Poly_aftertouch_c, 0, 86, 0
1, 287275, Note_off_c, 0, 90, 52
1, 287316, Note_off_c, 0, 93, 53
1, 287362, Note_on_c, 0, 95, 51
1, 287419, Note_off_c, 0, 95, 57
1, 287460, Note_on_c, 0, 93, 49
1, 287556, Note_off_c, 0, 93, 57
1, 287589, Note_on_c, 0, 95, 48
1, 287653, Note_off_c, 0, 95, 53
1, 287705, Note_on_c, 0, 93, 49
1, 287843, Note_off_c, 0, 93, 55
1, 287878, Note_on_c, 0, 95, 44
1, 288086, Note_off_c, 0, 95, 42
1, 288105, Note_on_c, 0, 93, 50
1, 288180, Note_off_c, 0, 93, 53
1, 288599, Note_on_c, 0, 102, 53
1, 288605, Note_on_c, 0, 98, 47
1, 288699, Note_off_c, 0, 98, 55
1, 288706, Note_off_c, 0, 102, 58
1, 290921, Control_c, 0, 64, 119
1, 290937, Control_c, 0, 64, 112
1, 290952, Control_c, 0, 64, 108
1, 290967, Control_c, 0, 64, 105
1, 290982, Control_c, 0, 64, 102
1, 290997, Control_c, 0, 64, 99
1, 291019, Control_c, 0, 64, 97
1, 291034, Control_c, 0, 64, 96
1, 291049, Control_c, 0, 64, 95
1, 291064, Control_c, 0, 64, 94
1, 291078, Control_c, 0, 64, 93
1, 291093, Control_c, 0, 64, 93
1, 291108, Control_c, 0, 64, 92
1, 291123, Control_c, 0, 64, 91
1, 291138, Control_c, 0, 64, 90
1, 291152, Control_c, 0, 64, 89
1, 291167, Control_c, 0, 64, 88
1, 291182, Control_c, 0, 64, 87
1, 291196, Control_c, 0, 64, 86
1, 291211, Control_c, 0, 64, 84
1, 291226, Control_c, 0, 64, 83
1, 291241, Control_c, 0, 64, 82
1, 291256, Control_c, 0, 64, 80
1, 291270, Control_c, 0, 64, 79
1, 291285, Control_c, 0, 64, 78
1, 291300, Control_c, 0, 64, 76
1, 291315, Control_c, 0, 64, 75
1, 291330, Control_c, 0, 64, 74
1, 291345, Control_c, 0, 64, 73
1, 291359, Control_c, 0, 64, 72
1, 291374, Control_c, 0, 64, 72
1, 291389, Control_c, 0, 64, 71
1, 291404, Control_c, 0, 64, 71
1, 291419, Control_c, 0, 64, 70
1, 291478, Control_c, 0, 64, 70
1, 291493, Control_c, 0, 64, 69
1, 291508, Control_c, 0, 64, 68
1, 291523, Control_c, 0, 64, 67
1, 291538, Control_c, 0, 64, 66
1, 291552, Control_c, 0, 64, 65
1, 291567, Control_c, 0, 64, 64
1, 291582, Control_c, 0, 64, 62
1, 291596, Control_c, 0, 64, 61
1, 291611, Control_c, 0, 64, 60
1, 291626, Control_c, 0, 64, 58
1, 291641, Control_c, 0, 64, 56
1, 291656, Control_c, 0, 64, 55
1, 291670, Control_c, 0, 64, 54
1, 291685, Control_c, 0, 64, 53
1, 291700, Control_c, 0, 64, 51
1, 291715, Control_c, 0, 64, 50
1, 291730, Control_c, 0, 64, 49
1, 291746, Control_c, 0, 64, 48
1, 291768, Control_c, 0, 64, 47
1, 291783, Control_c, 0, 64, 47
1, 291798, Control_c, 0, 64, 46
1, 291813, Control_c, 0, 64, 45
1, 291931, Control_c, 0, 67, 124
1, 291946, Control_c, 0, 67, 116
1, 291961, Control_c, 0, 67, 107
1, 291975, Control_c, 0, 67, 98
1, 291990, Control_c, 0, 67, 88
1, 292005, Control_c, 0, 67, 79
1, 292019, Control_c, 0, 67, 72
1, 292034, Control_c, 0, 67, 63
1, 292049, Control_c, 0, 67, 53
1, 292064, Control_c, 0, 67, 42
1, 292079, Control_c, 0, 67, 0
1, 292331, Control_c, 0, 64, 45
1, 292420, Control_c, 0, 64, 44
1, 292435, Control_c, 0, 64, 41
1, 292450, Control_c, 0, 64, 35
1, 292465, Control_c, 0, 64, 0
1, 292547, Control_c, 0, 67, 53
1, 292562, Control_c, 0, 67, 90
1, 292577, Control_c, 0, 67, 127
1, 292680, Note_on_c, 0, 62, 58
1, 292707, Note_off_c, 0, 62, 64
1, 292936, Note_on_c, 0, 63, 62
1, 292962, Note_off_c, 0, 63, 64
1, 293242, Note_on_c, 0, 64, 57
1, 293383, Control_c, 0, 64, 33
1, 293393, Note_on_c, 0, 60, 52
1, 293398, Control_c, 0, 64, 45
1, 293413, Control_c, 0, 64, 54
1, 293428, Control_c, 0, 64, 58
1, 293443, Control_c, 0, 64, 61
1, 293458, Control_c, 0, 64, 63
1, 293472, Control_c, 0, 64, 65
1, 293487, Control_c, 0, 64, 68
1, 293488, Note_on_c, 0, 57, 51
1, 293491, Note_off_c, 0, 60, 57
1, 293502, Control_c, 0, 64, 71
1, 293517, Control_c, 0, 64, 73
1, 293532, Control_c, 0, 64, 76
1, 293535, Note_off_c, 0, 57, 63
1, 293546, Control_c, 0, 64, 79
1, 293557, Note_off_c, 0, 64, 63
1, 293561, Control_c, 0, 64, 81
1, 293576, Control_c, 0, 64, 83
1, 293580, Note_on_c, 0, 54, 51
1, 293590, Control_c, 0, 64, 84
1, 293605, Control_c, 0, 64, 86
1, 293620, Control_c, 0, 64, 86
1, 293633, Note_off_c, 0, 54, 61
1, 293635, Control_c, 0, 64, 87
1, 293650, Control_c, 0, 64, 88
1, 293656, Note_on_c, 0, 57, 61
1, 293688, Note_off_c, 0, 57, 65
1, 293732, Note_on_c, 0, 60, 64
1, 293738, Control_c, 0, 64, 86
1, 293753, Control_c, 0, 64, 78
1, 293759, Note_off_c, 0, 60, 67
1, 293768, Control_c, 0, 64, 64
1, 293783, Control_c, 0, 64, 39
1, 293787, Note_on_c, 0, 50, 63
1, 293798, Control_c, 0, 64, 0
1, 293813, Note_off_c, 0, 50, 67
1, 293874, Note_on_c, 0, 57, 63
1, 293909, Note_off_c, 0, 57, 63
1, 293952, Note_on_c, 0, 66, 68
1, 293991, Note_off_c, 0, 66, 59
1, 294036, Note_on_c, 0, 60, 63
1, 294065, Note_off_c, 0, 60, 67
1, 294114, Note_on_c, 0, 67, 63
1, 294162, Note_off_c, 0, 67, 58
1, 294188, Note_on_c, 0, 62, 65
1, 294215, Note_off_c, 0, 62, 65
1, 294320, Note_on_c, 0, 69, 69
1, 294408, Note_on_c, 0, 62, 55
1, 294443, Control_c, 0, 64, 32
1, 294458, Control_c, 0, 64, 45
1, 294473, Control_c, 0, 64, 54
1, 294484, Note_on_c, 0, 60, 63
1, 294486, Note_off_c, 0, 62, 61
1, 294487, Control_c, 0, 64, 59
1, 294502, Control_c, 0, 64, 62
1, 294517, Control_c, 0, 64, 65
1, 294518, Note_off_c, 0, 60, 64
1, 294531, Note_off_c, 0, 69, 62
1, 294532, Control_c, 0, 64, 68
1, 294547, Control_c, 0, 64, 71
1, 294556, Note_on_c, 0, 54, 56
1, 294561, Control_c, 0, 64, 72
1, 294576, Control_c, 0, 64, 74
1, 294591, Control_c, 0, 64, 75
1, 294606, Control_c, 0, 64, 77
1, 294614, Note_off_c, 0, 54, 61
1, 294621, Control_c, 0, 64, 78
1, 294635, Control_c, 0, 64, 79
1, 294644, Note_on_c, 0, 57, 60
1, 294650, Control_c, 0, 64, 80
1, 294665, Control_c, 0, 64, 82
1, 294674, Note_off_c, 0, 57, 59
1, 294680, Control_c, 0, 64, 85
1, 294695, Control_c, 0, 64, 88
1, 294708, Note_on_c, 0, 62, 65
1, 294710, Control_c, 0, 64, 90
1, 294739, Control_c, 0, 64, 90
1, 294742, Note_off_c, 0, 62, 66
1, 294761, Control_c, 0, 64, 79
1, 294776, Control_c, 0, 64, 62
1, 294777, Note_on_c, 0, 50, 64
1, 294791, Control_c, 0, 64, 0
1, 294808, Note_off_c, 0, 50, 66
1, 294853, Note_on_c, 0, 60, 65
1, 294883, Note_off_c, 0, 60, 67
1, 294926, Note_on_c, 0, 67, 70
1, 294972, Note_off_c, 0, 67, 60
1, 294998, Note_on_c, 0, 57, 65
1, 295029, Note_off_c, 0, 57, 65
1, 295067, Note_on_c, 0, 66, 74
1, 295125, Note_off_c, 0, 66, 63
1, 295157, Note_on_c, 0, 60, 52
1, 295180, Note_off_c, 0, 60, 60
1, 295244, Note_on_c, 0, 71, 79
1, 295321, Note_on_c, 0, 62, 57
1, 295386, Note_on_c, 0, 59, 69
1, 295392, Note_off_c, 0, 62, 58
1, 295399, Control_c, 0, 64, 41
1, 295415, Control_c, 0, 64, 56
1, 295418, Note_off_c, 0, 59, 66
1, 295429, Control_c, 0, 64, 64
1, 295444, Control_c, 0, 64, 69
1, 295445, Note_off_c, 0, 71, 60
1, 295459, Control_c, 0, 64, 73
1, 295474, Control_c, 0, 64, 79
1, 295475, Note_on_c, 0, 55, 60
1, 295489, Control_c, 0, 64, 84
1, 295504, Control_c, 0, 64, 91
1, 295526, Control_c, 0, 64, 100
1, 295530, Note_off_c, 0, 55, 60
1, 295541, Control_c, 0, 64, 112
1, 295554, Note_on_c, 0, 59, 67
1, 295556, Control_c, 0, 64, 127
1, 295583, Note_off_c, 0, 59, 66
1, 295623, Note_on_c, 0, 62, 62
1, 295650, Note_off_c, 0, 62, 65
1, 295674, Control_c, 0, 64, 114
1, 295681, Note_on_c, 0, 50, 67
1, 295689, Control_c, 0, 64, 70
1, 295704, Control_c, 0, 64, 35
1, 295709, Note_off_c, 0, 50, 66
1, 295718, Control_c, 0, 64, 0
1, 295768, Note_on_c, 0, 59, 61
1, 295798, Note_off_c, 0, 59, 66
1, 295837, Note_on_c, 0, 69, 72
1, 295889, Note_off_c, 0, 69, 59
1, 295902, Note_on_c, 0, 62, 72
1, 295931, Note_off_c, 0, 62, 65
1, 295978, Note_on_c, 0, 67, 76
1, 296034, Note_off_c, 0, 67, 61
1, 296047, Note_on_c, 0, 59, 67
1, 296072, Note_off_c, 0, 59, 67
1, 296141, Note_on_c, 0, 74, 79
1, 296209, Note_on_c, 0, 67, 67
1, 296275, Control_c, 0, 64, 34
1, 296290, Control_c, 0, 64, 51
1, 296293, Note_off_c, 0, 67, 61
1, 296293, Note_on_c, 0, 62, 63
1, 296305, Control_c, 0, 64, 63
1, 296308, Note_off_c, 0, 74, 61
1, 296320, Control_c, 0, 64, 67
1, 296324, Note_off_c, 0, 62, 65
1, 296335, Control_c, 0, 64, 72
1, 296349, Control_c, 0, 64, 78
1, 296364, Control_c, 0, 64, 84
1, 296371, Note_on_c, 0, 59, 64
1, 296379, Control_c, 0, 64, 89
1, 296393, Control_c, 0, 64, 95
1, 296408, Control_c, 0, 64, 102
1, 296409, Note_off_c, 0, 59, 63
1, 296423, Control_c, 0, 64, 112
1, 296433, Note_on_c, 0, 62, 59
1, 296438, Control_c, 0, 64, 127
1, 296460, Note_off_c, 0, 62, 66
1, 296501, Note_on_c, 0, 67, 66
1, 296523, Note_off_c, 0, 67, 70
1, 296587, Control_c, 0, 64, 77
1, 296588, Note_on_c, 0, 50, 68
1, 296602, Control_c, 0, 64, 36
1, 296616, Control_c, 0, 64, 0
1, 296617, Note_off_c, 0, 50, 65
1, 296673, Note_on_c, 0, 62, 49
1, 296696, Note_off_c, 0, 62, 61
1, 296737, Note_on_c, 0, 76, 78
1, 296780, Note_off_c, 0, 76, 59
1, 296819, Note_on_c, 0, 67, 63
1, 296847, Note_off_c, 0, 67, 67
1, 296883, Note_on_c, 0, 71, 75
1, 296956, Note_off_c, 0, 71, 59
1, 296963, Note_on_c, 0, 62, 64
1, 296995, Note_off_c, 0, 62, 65
1, 297092, Note_on_c, 0, 72, 62
1, 297175, Note_on_c, 0, 67, 58
1, 297215, Control_c, 0, 64, 36
1, 297230, Control_c, 0, 64, 54
1, 297245, Control_c, 0, 64, 63
1, 297246, Note_off_c, 0, 67, 61
1, 297247, Note_on_c, 0, 64, 62
1, 297260, Control_c, 0, 64, 68
1, 297274, Note_off_c, 0, 64, 67
1, 297275, Control_c, 0, 64, 73
1, 297286, Note_off_c, 0, 72, 61
1, 297289, Control_c, 0, 64, 80
1, 297304, Control_c, 0, 64, 87
1, 297319, Note_on_c, 0, 57, 58
1, 297319, Control_c, 0, 64, 95
1, 297335, Control_c, 0, 64, 104
1, 297350, Control_c, 0, 64, 118
1, 297359, Note_off_c, 0, 57, 63
1, 297365, Control_c, 0, 64, 127
1, 297387, Note_on_c, 0, 60, 62
1, 297426, Note_off_c, 0, 60, 58
1, 297451, Note_on_c, 0, 67, 64
1, 297477, Note_off_c, 0, 67, 66
1, 297527, Control_c, 0, 64, 92
1, 297528, Note_on_c, 0, 50, 66
1, 297542, Control_c, 0, 64, 60
1, 297555, Note_off_c, 0, 50, 66
1, 297557, Control_c, 0, 64, 0
1, 297607, Note_on_c, 0, 64, 68
1, 297633, Note_off_c, 0, 64, 67
1, 297675, Note_on_c, 0, 69, 75
1, 297726, Note_off_c, 0, 69, 59
1, 297748, Note_on_c, 0, 67, 62
1, 297783, Note_off_c, 0, 67, 67
1, 297827, Note_on_c, 0, 74, 78
1, 297879, Note_off_c, 0, 74, 64
1, 297910, Note_on_c, 0, 63, 70
1, 297941, Note_off_c, 0, 63, 64
1, 297986, Note_on_c, 0, 74, 76
1, 298064, Note_on_c, 0, 66, 68
1, 298112, Control_c, 0, 64, 46
1, 298126, Note_off_c, 0, 66, 60
1, 298128, Control_c, 0, 64, 62
1, 298141, Note_on_c, 0, 62, 66
1, 298143, Control_c, 0, 64, 67
1, 298158, Control_c, 0, 64, 72
1, 298172, Note_off_c, 0, 62, 65
1, 298173, Control_c, 0, 64, 80
1, 298187, Control_c, 0, 64, 90
1, 298200, Note_off_c, 0, 74, 37
1, 298202, Control_c, 0, 64, 104
1, 298204, Note_on_c, 0, 57, 58
1, 298217, Control_c, 0, 64, 127
1, 298251, Note_off_c, 0, 57, 63
1, 298275, Note_on_c, 0, 60, 63
1, 298305, Note_off_c, 0, 60, 65
1, 298326, Note_on_c, 0, 66, 68
1, 298353, Note_off_c, 0, 66, 67
1, 298394, Control_c, 0, 64, 79
1, 298400, Note_on_c, 0, 50, 72
1, 298410, Control_c, 0, 64, 46
1, 298425, Control_c, 0, 64, 0
1, 298427, Note_off_c, 0, 50, 67
1, 298474, Note_on_c, 0, 62, 58
1, 298512, Note_off_c, 0, 62, 65
1, 298542, Note_on_c, 0, 69, 79
1, 298600, Note_off_c, 0, 69, 61
1, 298627, Note_on_c, 0, 66, 69
1, 298657, Note_off_c, 0, 66, 67
1, 298695, Note_on_c, 0, 70, 72
1, 298752, Note_off_c, 0, 70, 62
1, 298782, Note_on_c, 0, 62, 59
1, 298817, Note_off_c, 0, 62, 62
1, 298895, Note_on_c, 0, 71, 63
1, 298985, Note_on_c, 0, 67, 51
1, 299056, Control_c, 0, 64, 45
1, 299060, Note_off_c, 0, 67, 58
1, 299065, Note_on_c, 0, 62, 43
1, 299071, Control_c, 0, 64, 59
1, 299085, Control_c, 0, 64, 64
1, 299098, Note_off_c, 0, 62, 62
1, 299100, Control_c, 0, 64, 68
1, 299115, Control_c, 0, 64, 74
1, 299129, Control_c, 0, 64, 81
1, 299144, Control_c, 0, 64, 88
1, 299154, Note_on_c, 0, 59, 59
1, 299159, Control_c, 0, 64, 95
1, 299174, Control_c, 0, 64, 103
1, 299183, Note_off_c, 0, 71, 57
1, 299189, Control_c, 0, 64, 114
1, 299203, Note_off_c, 0, 59, 60
1, 299203, Control_c, 0, 64, 127
1, 299226, Note_on_c, 0, 62, 55
1, 299269, Note_off_c, 0, 62, 60
1, 299313, Note_on_c, 0, 67, 56
1, 299342, Note_off_c, 0, 67, 65
1, 299431, Note_on_c, 0, 50, 56
1, 299461, Note_off_c, 0, 50, 65
1, 299463, Control_c, 0, 64, 120
1, 299477, Control_c, 0, 64, 74
1, 299492, Control_c, 0, 64, 46
1, 299507, Control_c, 0, 64, 0
1, 299524, Note_on_c, 0, 70, 61
1, 299552, Note_off_c, 0, 70, 67
1, 299584, Note_on_c, 0, 71, 64
1, 299624, Note_off_c, 0, 71, 58
1, 299652, Note_on_c, 0, 74, 78
1, 299702, Note_off_c, 0, 74, 62
1, 299731, Note_on_c, 0, 81, 71
1, 299786, Note_on_c, 0, 79, 71
1, 299795, Note_off_c, 0, 81, 63
1, 299851, Note_off_c, 0, 79, 64
1, 299856, Note_on_c, 0, 74, 68
1, 299884, Note_off_c, 0, 74, 67
1, 299894, Control_c, 0, 64, 34
1, 299908, Control_c, 0, 64, 51
1, 299919, Note_on_c, 0, 71, 66
1, 299923, Control_c, 0, 64, 60
1, 299938, Control_c, 0, 64, 63
1, 299952, Control_c, 0, 64, 64
1, 299967, Control_c, 0, 64, 65
1, 299971, Note_off_c, 0, 71, 61
1, 300019, Control_c, 0, 64, 64
1, 300034, Control_c, 0, 64, 60
1, 300044, Note_on_c, 0, 59, 63
1, 300049, Control_c, 0, 64, 48
1, 300064, Control_c, 0, 64, 0
1, 300084, Poly_aftertouch_c, 0, 67, 0
1, 300094, Note_off_c, 0, 59, 62
1, 300109, Note_on_c, 0, 61, 65
1, 300153, Note_off_c, 0, 61, 57
1, 300179, Note_on_c, 0, 67, 62
1, 300224, Note_off_c, 0, 67, 61
1, 300271, Note_on_c, 0, 62, 65
1, 300312, Note_off_c, 0, 62, 62
1, 300337, Note_on_c, 0, 67, 69
1, 300370, Note_off_c, 0, 67, 61
1, 300407, Note_on_c, 0, 71, 69
1, 300429, Note_off_c, 0, 71, 68
1, 300481, Note_on_c, 0, 74, 72
1, 300493, Control_c, 0, 67, 119
1, 300508, Control_c, 0, 67, 63
1, 300511, Note_off_c, 0, 74, 63
1, 300523, Control_c, 0, 67, 0
1, 300545, Note_on_c, 0, 71, 65
1, 300580, Note_off_c, 0, 71, 60
1, 300618, Note_on_c, 0, 75, 73
1, 300642, Note_off_c, 0, 75, 69
1, 300788, Note_on_c, 0, 76, 72
1, 300827, Control_c, 0, 64, 30
1, 300842, Control_c, 0, 64, 42
1, 300856, Control_c, 0, 64, 54
1, 300871, Control_c, 0, 64, 61
1, 300874, Note_on_c, 0, 72, 61
1, 300886, Control_c, 0, 64, 64
1, 300901, Control_c, 0, 64, 67
1, 300915, Control_c, 0, 64, 71
1, 300930, Control_c, 0, 64, 75
1, 300943, Note_off_c, 0, 72, 59
1, 300945, Control_c, 0, 64, 79
1, 300949, Note_on_c, 0, 69, 59
1, 300960, Control_c, 0, 64, 81
1, 300964, Note_off_c, 0, 76, 60
1, 300975, Control_c, 0, 64, 84
1, 300979, Note_off_c, 0, 69, 65
1, 300989, Control_c, 0, 64, 86
1, 300989, Control_c, 0, 67, 59
1, 301004, Control_c, 0, 64, 88
1, 301004, Control_c, 0, 67, 86
1, 301019, Control_c, 0, 64, 89
1, 301019, Control_c, 0, 67, 100
1, 301020, Note_on_c, 0, 66, 59
1, 301034, Control_c, 0, 64, 89
1, 301034, Control_c, 0, 67, 105
1, 301048, Control_c, 0, 64, 90
1, 301048, Control_c, 0, 67, 109
1, 301063, Control_c, 0, 64, 90
1, 301078, Control_c, 0, 64, 91
1, 301082, Note_off_c, 0, 66, 64
1, 301086, Note_on_c, 0, 69, 55
1, 301093, Control_c, 0, 64, 92
1, 301107, Control_c, 0, 64, 95
1, 301115, Note_off_c, 0, 69, 65
1, 301122, Control_c, 0, 64, 103
1, 301137, Control_c, 0, 64, 113
1, 301152, Control_c, 0, 67, 107
1, 301159, Note_on_c, 0, 72, 61
1, 301167, Control_c, 0, 64, 110
1, 301182, Control_c, 0, 64, 84
1, 301184, Note_off_c, 0, 72, 64
1, 301196, Control_c, 0, 64, 55
1, 301196, Control_c, 0, 67, 110
1, 301210, Note_on_c, 0, 62, 65
1, 301211, Control_c, 0, 64, 0
1, 301226, Control_c, 0, 67, 115
1, 301235, Note_off_c, 0, 62, 66
1, 301241, Control_c, 0, 67, 119
1, 301256, Control_c, 0, 67, 127
1, 301274, Note_on_c, 0, 69, 63
1, 301304, Note_off_c, 0, 69, 64
1, 301350, Note_on_c, 0, 78, 63
1, 301381, Note_off_c, 0, 78, 61
1, 301426, Note_on_c, 0, 72, 58
1, 301451, Note_off_c, 0, 72, 63
1, 301489, Note_on_c, 0, 79, 66
1, 301543, Note_off_c, 0, 79, 61
1, 301578, Note_on_c, 0, 74, 64
1, 301607, Note_off_c, 0, 74, 66
1, 301680, Note_on_c, 0, 81, 81
1, 301738, Control_c, 0, 64, 33
1, 301753, Control_c, 0, 64, 54
1, 301764, Note_on_c, 0, 74, 64
1, 301768, Control_c, 0, 64, 62
1, 301783, Control_c, 0, 64, 65
1, 301798, Control_c, 0, 64, 70
1, 301812, Control_c, 0, 64, 78
1, 301827, Control_c, 0, 64, 85
1, 301833, Note_off_c, 0, 74, 60
1, 301840, Note_on_c, 0, 72, 64
1, 301842, Control_c, 0, 64, 91
1, 301857, Control_c, 0, 64, 96
1, 301858, Note_off_c, 0, 81, 63
1, 301865, Note_off_c, 0, 72, 64
1, 301872, Control_c, 0, 64, 101
1, 301886, Control_c, 0, 64, 108
1, 301901, Control_c, 0, 64, 127
1, 301923, Note_on_c, 0, 66, 63
1, 301930, Control_c, 0, 67, 125
1, 301955, Note_off_c, 0, 66, 67
1, 301991, Note_on_c, 0, 69, 66
1, 302040, Note_off_c, 0, 69, 45
1, 302052, Note_on_c, 0, 74, 67
1, 302064, Control_c, 0, 67, 123
1, 302079, Note_off_c, 0, 74, 68
1, 302094, Control_c, 0, 67, 125
1, 302109, Control_c, 0, 64, 69
1, 302109, Control_c, 0, 67, 127
1, 302114, Note_on_c, 0, 62, 67
1, 302124, Control_c, 0, 64, 0
1, 302143, Note_off_c, 0, 62, 65
1, 302177, Note_on_c, 0, 72, 70
1, 302223, Note_off_c, 0, 72, 61
1, 302261, Note_on_c, 0, 79, 71
1, 302311, Note_off_c, 0, 79, 63
1, 302338, Note_on_c, 0, 69, 72
1, 302364, Note_off_c, 0, 69, 65
1, 302398, Note_on_c, 0, 78, 76
1, 302459, Note_off_c, 0, 78, 59
1, 302480, Note_on_c, 0, 72, 68
1, 302502, Note_off_c, 0, 72, 68
1, 302571, Note_on_c, 0, 83, 86
1, 302639, Note_on_c, 0, 74, 72
1, 302666, Control_c, 0, 64, 42
1, 302681, Control_c, 0, 64, 59
1, 302696, Control_c, 0, 64, 66
1, 302708, Note_on_c, 0, 71, 74
1, 302710, Control_c, 0, 64, 73
1, 302711, Note_off_c, 0, 74, 61
1, 302725, Control_c, 0, 64, 86
1, 302732, Note_off_c, 0, 71, 68
1, 302733, Note_off_c, 0, 83, 60
1, 302740, Control_c, 0, 64, 97
1, 302740, Control_c, 0, 67, 120
1, 302754, Control_c, 0, 64, 110
1, 302754, Control_c, 0, 67, 98
1, 302769, Control_c, 0, 64, 127
1, 302769, Control_c, 0, 67, 72
1, 302784, Control_c, 0, 67, 44
1, 302799, Control_c, 0, 67, 0
1, 302801, Note_on_c, 0, 67, 63
1, 302848, Note_off_c, 0, 67, 61
1, 302869, Note_on_c, 0, 71, 68
1, 302896, Note_off_c, 0, 71, 65
1, 302933, Note_on_c, 0, 74, 69
1, 302959, Note_off_c, 0, 74, 70
1, 303000, Control_c, 0, 64, 95
1, 303012, Note_on_c, 0, 62, 64
1, 303015, Control_c, 0, 64, 58
1, 303030, Control_c, 0, 64, 0
1, 303030, Note_off_c, 0, 62, 64
1, 303067, Note_on_c, 0, 71, 68
1, 303089, Control_c, 0, 67, 41
1, 303097, Note_off_c, 0, 71, 61
1, 303104, Control_c, 0, 67, 73
1, 303119, Control_c, 0, 67, 101
1, 303133, Control_c, 0, 67, 113
1, 303135, Note_on_c, 0, 81, 77
1, 303184, Note_off_c, 0, 81, 63
1, 303194, Note_on_c, 0, 74, 78
1, 303234, Note_off_c, 0, 74, 59
1, 303237, Control_c, 0, 67, 115
1, 303269, Note_on_c, 0, 79, 75
1, 303331, Note_off_c, 0, 79, 64
1, 303347, Note_on_c, 0, 71, 70
1, 303376, Note_off_c, 0, 71, 62
1, 303429, Note_on_c, 0, 86, 87
1, 303489, Note_on_c, 0, 79, 68
1, 303489, Control_c, 0, 64, 49
1, 303489, Control_c, 0, 67, 117
1, 303503, Control_c, 0, 64, 61
1, 303518, Control_c, 0, 64, 66
1, 303533, Control_c, 0, 64, 71
1, 303545, Note_on_c, 0, 74, 71
1, 303548, Control_c, 0, 64, 82
1, 303553, Note_off_c, 0, 79, 63
1, 303553, Note_off_c, 0, 86, 63
1, 303563, Control_c, 0, 64, 93
1, 303572, Note_off_c, 0, 74, 66
1, 303577, Control_c, 0, 64, 107
1, 303592, Control_c, 0, 64, 127
1, 303632, Note_on_c, 0, 71, 59
1, 303667, Note_off_c, 0, 71, 64
1, 303678, Note_on_c, 0, 74, 71
1, 303705, Note_off_c, 0, 74, 66
1, 303727, Control_c, 0, 67, 115
1, 303766, Note_on_c, 0, 79, 62
1, 303778, Control_c, 0, 67, 112
1, 303789, Note_off_c, 0, 79, 69
1, 303793, Control_c, 0, 67, 109
1, 303808, Control_c, 0, 67, 107
1, 303852, Control_c, 0, 64, 106
1, 303861, Note_on_c, 0, 62, 46
1, 303867, Control_c, 0, 64, 68
1, 303882, Control_c, 0, 64, 33
1, 303882, Control_c, 0, 67, 109
1, 303887, Note_off_c, 0, 62, 54
1, 303897, Control_c, 0, 64, 0
1, 303897, Control_c, 0, 67, 112
1, 303906, Note_on_c, 0, 70, 73
1, 303912, Control_c, 0, 67, 114
1, 303941, Control_c, 0, 67, 117
1, 303946, Note_off_c, 0, 70, 65
1, 303975, Note_on_c, 0, 82, 79
1, 304000, Control_c, 0, 67, 119
1, 304025, Note_off_c, 0, 82, 62
1, 304046, Note_on_c, 0, 71, 64
1, 304073, Note_off_c, 0, 71, 65
1, 304074, Control_c, 0, 67, 121
1, 304097, Note_on_c, 0, 83, 79
1, 304118, Control_c, 0, 67, 127
1, 304147, Note_off_c, 0, 83, 63
1, 304170, Note_on_c, 0, 72, 66
1, 304194, Note_off_c, 0, 72, 68
1, 304285, Note_on_c, 0, 84, 75
1, 304341, Control_c, 0, 64, 35
1, 304350, Note_on_c, 0, 80, 62
1, 304356, Control_c, 0, 64, 54
1, 304371, Control_c, 0, 64, 63
1, 304382, Note_on_c, 0, 77, 67
1, 304386, Control_c, 0, 64, 69
1, 304400, Note_off_c, 0, 80, 61
1, 304400, Control_c, 0, 64, 78
1, 304410, Note_off_c, 0, 84, 62
1, 304411, Note_off_c, 0, 77, 65
1, 304415, Control_c, 0, 64, 89
1, 304422, Note_on_c, 0, 72, 50
1, 304430, Control_c, 0, 64, 107
1, 304445, Note_off_c, 0, 72, 58
1, 304445, Control_c, 0, 64, 127
1, 304445, Control_c, 0, 67, 119
1, 304460, Control_c, 0, 67, 107
1, 304472, Note_on_c, 0, 62, 55
1, 304474, Control_c, 0, 67, 83
1, 304489, Control_c, 0, 67, 49
1, 304511, Control_c, 0, 67, 0
1, 304513, Note_off_c, 0, 62, 64
1, 304540, Note_on_c, 0, 65, 52
1, 304562, Note_off_c, 0, 65, 62
1, 304574, Note_on_c, 0, 68, 60
1, 304604, Note_off_c, 0, 68, 65
1, 304616, Note_on_c, 0, 72, 50
1, 304638, Note_off_c, 0, 72, 58
1, 304675, Control_c, 0, 64, 91
1, 304682, Note_on_c, 0, 58, 66
1, 304690, Control_c, 0, 64, 58
1, 304702, Note_off_c, 0, 58, 63
1, 304705, Control_c, 0, 64, 0
1, 304735, Control_c, 0, 67, 51
1, 304749, Control_c, 0, 67, 94
1, 304757, Note_on_c, 0, 74, 61
1, 304764, Control_c, 0, 67, 127
1, 304785, Note_off_c, 0, 74, 68
1, 304817, Note_on_c, 0, 86, 77
1, 304873, Note_off_c, 0, 86, 62
1, 304883, Note_on_c, 0, 75, 76
1, 304917, Note_off_c, 0, 75, 64
1, 304946, Note_on_c, 0, 87, 77
1, 304999, Note_off_c, 0, 87, 62
1, 305000, Note_on_c, 0, 77, 74
1, 305039, Note_off_c, 0, 77, 63
1, 305133, Note_on_c, 0, 89, 69
1, 305170, Note_on_c, 0, 82, 70
1, 305194, Control_c, 0, 64, 47
1, 305194, Control_c, 0, 67, 115
1, 305208, Note_on_c, 0, 80, 74
1, 305209, Control_c, 0, 64, 63
1, 305209, Control_c, 0, 67, 60
1, 305222, Note_off_c, 0, 89, 59
1, 305223, Control_c, 0, 64, 70
1, 305223, Control_c, 0, 67, 0
1, 305245, Control_c, 0, 64, 80
1, 305250, Note_off_c, 0, 82, 63
1, 305260, Control_c, 0, 64, 99
1, 305264, Note_on_c, 0, 77, 71
1, 305268, Note_off_c, 0, 80, 66
1, 305274, Control_c, 0, 64, 127
1, 305287, Note_off_c, 0, 77, 69
1, 305301, Note_on_c, 0, 65, 49
1, 305332, Note_off_c, 0, 65, 64
1, 305351, Note_on_c, 0, 68, 55
1, 305379, Note_off_c, 0, 68, 64
1, 305387, Note_on_c, 0, 70, 56
1, 305408, Note_off_c, 0, 70, 63
1, 305414, Note_on_c, 0, 74, 66
1, 305440, Note_off_c, 0, 74, 65
1, 305501, Note_on_c, 0, 58, 70
1, 305513, Control_c, 0, 64, 104
1, 305528, Note_off_c, 0, 58, 63
1, 305528, Control_c, 0, 64, 63
1, 305543, Control_c, 0, 64, 0
1, 305566, Note_on_c, 0, 75, 62
1, 305587, Control_c, 0, 67, 43
1, 305595, Note_off_c, 0, 75, 69
1, 305602, Control_c, 0, 67, 77
1, 305617, Control_c, 0, 67, 100
1, 305626, Note_on_c, 0, 87, 74
1, 305632, Control_c, 0, 67, 113
1, 305646, Control_c, 0, 67, 119
1, 305673, Note_off_c, 0, 87, 63
1, 305686, Note_on_c, 0, 74, 83
1, 305716, Note_off_c, 0, 74, 64
1, 305739, Note_on_c, 0, 86, 82
1, 305779, Note_off_c, 0, 86, 64
1, 305794, Control_c, 0, 67, 117
1, 305817, Note_on_c, 0, 79, 74
1, 305841, Note_off_c, 0, 79, 65
1, 305912, Control_c, 0, 67, 115
1, 305942, Note_on_c, 0, 91, 78
1, 305975, Note_on_c, 0, 87, 66
1, 305994, Control_c, 0, 64, 43
1, 305994, Control_c, 0, 67, 113
1, 306009, Control_c, 0, 64, 62
1, 306021, Note_on_c, 0, 82, 71
1, 306023, Control_c, 0, 64, 72
1, 306038, Control_c, 0, 64, 87
1, 306047, Note_off_c, 0, 91, 64
1, 306053, Control_c, 0, 64, 127
1, 306058, Note_off_c, 0, 87, 64
1, 306067, Note_on_c, 0, 79, 49
1, 306070, Note_off_c, 0, 82, 64
1, 306078, Note_on_c, 0, 63, 62
1, 306089, Note_off_c, 0, 79, 61
1, 306097, Control_c, 0, 67, 111
1, 306128, Control_c, 0, 67, 109
1, 306138, Note_off_c, 0, 63, 61
1, 306149, Note_on_c, 0, 67, 62
1, 306184, Note_off_c, 0, 67, 64
1, 306192, Note_on_c, 0, 70, 67
1, 306218, Note_off_c, 0, 70, 68
1, 306224, Note_on_c, 0, 75, 66
1, 306246, Note_off_c, 0, 75, 65
1, 306306, Control_c, 0, 67, 113
1, 306309, Note_on_c, 0, 58, 68
1, 306321, Control_c, 0, 67, 118
1, 306332, Note_off_c, 0, 58, 64
1, 306336, Control_c, 0, 64, 74
1, 306336, Control_c, 0, 67, 122
1, 306350, Control_c, 0, 64, 42
1, 306350, Control_c, 0, 67, 126
1, 306365, Control_c, 0, 64, 0
1, 306380, Note_on_c, 0, 77, 67
1, 306405, Note_off_c, 0, 77, 70
1, 306440, Note_on_c, 0, 89, 75
1, 306470, Note_off_c, 0, 89, 60
1, 306512, Note_on_c, 0, 75, 73
1, 306535, Note_off_c, 0, 75, 70
1, 306564, Note_on_c, 0, 87, 70
1, 306587, Note_off_c, 0, 87, 69
1, 306625, Note_on_c, 0, 82, 71
1, 306650, Note_off_c, 0, 82, 64
1, 306734, Note_on_c, 0, 94, 74
1, 306787, Note_on_c, 0, 91, 72
1, 306787, Control_c, 0, 64, 49
1, 306801, Control_c, 0, 64, 63
1, 306816, Control_c, 0, 64, 73
1, 306831, Control_c, 0, 64, 85
1, 306833, Note_on_c, 0, 87, 69
1, 306845, Note_off_c, 0, 94, 63
1, 306845, Control_c, 0, 64, 105
1, 306852, Note_off_c, 0, 91, 66
1, 306860, Control_c, 0, 64, 127
1, 306861, Note_off_c, 0, 87, 65
1, 306882, Note_on_c, 0, 82, 36
1, 306897, Note_on_c, 0, 67, 50
1, 306911, Note_off_c, 0, 82, 48
1, 306941, Note_off_c, 0, 67, 58
1, 306943, Note_on_c, 0, 70, 63
1, 307004, Note_on_c, 0, 75, 60
1, 307006, Note_off_c, 0, 70, 63
1, 307036, Note_off_c, 0, 75, 64
1, 307057, Note_on_c, 0, 79, 46
1, 307113, Note_off_c, 0, 79, 63
1, 307163, Note_on_c, 0, 58, 51
1, 307186, Note_off_c, 0, 58, 60
1, 307279, Note_on_c, 0, 75, 38
1, 307291, Control_c, 0, 64, 112
1, 307306, Control_c, 0, 64, 99
1, 307307, Note_off_c, 0, 75, 48
1, 307321, Control_c, 0, 64, 89
1, 307336, Control_c, 0, 64, 82
1, 307341, Note_on_c, 0, 87, 73
1, 307350, Control_c, 0, 64, 76
1, 307365, Control_c, 0, 64, 70
1, 307380, Control_c, 0, 64, 64
1, 307388, Note_off_c, 0, 87, 61
1, 307395, Control_c, 0, 64, 57
1, 307409, Control_c, 0, 64, 48
1, 307419, Note_on_c, 0, 79, 51
1, 307424, Control_c, 0, 64, 0
1, 307443, Note_off_c, 0, 79, 64
1, 307465, Note_on_c, 0, 91, 77
1, 307498, Note_off_c, 0, 91, 70
1, 307530, Note_on_c, 0, 80, 80
1, 307575, Note_off_c, 0, 80, 64
1, 307608, Note_on_c, 0, 92, 88
1, 307623, Control_c, 0, 64, 57
1, 307638, Control_c, 0, 64, 68
1, 307653, Control_c, 0, 64, 75
1, 307665, Note_on_c, 0, 85, 75
1, 307668, Control_c, 0, 64, 82
1, 307676, Note_off_c, 0, 92, 66
1, 307683, Control_c, 0, 64, 89
1, 307698, Control_c, 0, 64, 99
1, 307713, Control_c, 0, 64, 112
1, 307724, Note_off_c, 0, 85, 63
1, 307728, Control_c, 0, 64, 127
1, 307754, Note_on_c, 0, 80, 58
1, 307762, Note_on_c, 0, 58, 59
1, 307771, Note_off_c, 0, 80, 64
1, 307796, Note_off_c, 0, 58, 63
1, 307848, Note_on_c, 0, 80, 47
1, 307874, Note_off_c, 0, 80, 0
1, 307883, Poly_aftertouch_c, 0, 80, 0
1, 307895, Note_on_c, 0, 80, 53
1, 307900, Note_on_c, 0, 73, 51
1, 307922, Note_off_c, 0, 73, 60
1, 307922, Note_off_c, 0, 80, 67
1, 307923, Note_on_c, 0, 64, 39
1, 307924, Note_on_c, 0, 66, 40
1, 307954, Note_off_c, 0, 64, 55
1, 307954, Note_off_c, 0, 66, 54
1, 307977, Note_on_c, 0, 80, 75
1, 307998, Note_off_c, 0, 80, 71
1, 308025, Control_c, 0, 64, 111
1, 308039, Control_c, 0, 64, 63
1, 308048, Note_on_c, 0, 80, 70
1, 308053, Note_on_c, 0, 54, 59
1, 308054, Control_c, 0, 64, 0
1, 308068, Note_off_c, 0, 80, 73
1, 308082, Note_off_c, 0, 54, 64
1, 308139, Note_on_c, 0, 82, 79
1, 308165, Note_off_c, 0, 82, 63
1, 308205, Note_on_c, 0, 94, 85
1, 308219, Note_on_c, 0, 64, 44
1, 308222, Note_on_c, 0, 70, 49
1, 308226, Note_on_c, 0, 61, 52
1, 308252, Note_off_c, 0, 64, 60
1, 308252, Note_off_c, 0, 70, 59
1, 308256, Note_off_c, 0, 61, 60
1, 308263, Note_off_c, 0, 94, 65
1, 308270, Note_on_c, 0, 83, 76
1, 308308, Note_off_c, 0, 83, 66
1, 308339, Note_on_c, 0, 95, 87
1, 308360, Note_on_c, 0, 64, 51
1, 308362, Note_on_c, 0, 70, 45
1, 308377, Note_on_c, 0, 61, 27
1, 308383, Note_off_c, 0, 95, 67
1, 308385, Note_off_c, 0, 70, 60
1, 308388, Note_off_c, 0, 64, 65
1, 308410, Note_off_c, 0, 61, 44
1, 308419, Note_on_c, 0, 85, 78
1, 308462, Note_off_c, 0, 85, 63
1, 308500, Note_on_c, 0, 97, 86
1, 308522, Control_c, 0, 64, 40
1, 308537, Control_c, 0, 64, 62
1, 308552, Control_c, 0, 64, 71
1, 308557, Note_on_c, 0, 90, 75
1, 308563, Note_off_c, 0, 97, 64
1, 308567, Control_c, 0, 64, 78
1, 308582, Control_c, 0, 64, 86
1, 308596, Control_c, 0, 64, 94
1, 308611, Control_c, 0, 64, 105
1, 308615, Note_off_c, 0, 90, 64
1, 308626, Control_c, 0, 64, 127
1, 308631, Note_on_c, 0, 85, 70
1, 308647, Note_on_c, 0, 58, 55
1, 308654, Note_off_c, 0, 85, 70
1, 308676, Note_off_c, 0, 58, 64
1, 308726, Note_on_c, 0, 85, 54
1, 308744, Note_off_c, 0, 85, 60
1, 308781, Note_on_c, 0, 73, 46
1, 308787, Note_on_c, 0, 85, 71
1, 308796, Note_on_c, 0, 66, 52
1, 308797, Note_on_c, 0, 64, 47
1, 308804, Note_off_c, 0, 73, 58
1, 308810, Note_off_c, 0, 85, 64
1, 308819, Note_off_c, 0, 66, 60
1, 308822, Note_off_c, 0, 64, 60
1, 308857, Note_on_c, 0, 85, 79
1, 308902, Note_off_c, 0, 85, 0
1, 308922, Control_c, 0, 64, 96
1, 308937, Poly_aftertouch_c, 0, 85, 0
1, 308937, Control_c, 0, 64, 61
1, 308938, Note_on_c, 0, 54, 68
1, 308952, Control_c, 0, 64, 0
1, 308966, Note_off_c, 0, 54, 65
1, 309025, Note_on_c, 0, 83, 80
1, 309063, Note_off_c, 0, 83, 65
1, 309088, Note_on_c, 0, 95, 85
1, 309114, Note_on_c, 0, 71, 64
1, 309120, Note_on_c, 0, 61, 52
1, 309128, Note_off_c, 0, 95, 67
1, 309137, Note_off_c, 0, 71, 64
1, 309143, Note_off_c, 0, 61, 60
1, 309149, Note_on_c, 0, 64, 8
1, 309161, Note_on_c, 0, 82, 78
1, 309182, Note_off_c, 0, 82, 69
1, 309192, Note_off_c, 0, 64, 41
1, 309224, Note_on_c, 0, 94, 88
1, 309236, Note_on_c, 0, 61, 52
1, 309248, Note_on_c, 0, 70, 52
1, 309258, Note_on_c, 0, 64, 21
1, 309263, Note_off_c, 0, 94, 62
1, 309268, Note_off_c, 0, 61, 65
1, 309270, Note_off_c, 0, 70, 60
1, 309291, Note_on_c, 0, 87, 79
1, 309297, Note_off_c, 0, 64, 54
1, 309343, Note_off_c, 0, 87, 64
1, 309370, Note_on_c, 0, 99, 84
1, 309390, Control_c, 0, 64, 45
1, 309405, Control_c, 0, 64, 67
1, 309419, Control_c, 0, 64, 77
1, 309434, Control_c, 0, 64, 92
1, 309436, Note_off_c, 0, 99, 63
1, 309444, Note_on_c, 0, 90, 74
1, 309449, Control_c, 0, 64, 105
1, 309464, Control_c, 0, 64, 127
1, 309489, Note_off_c, 0, 90, 62
1, 309516, Note_on_c, 0, 87, 73
1, 309528, Note_on_c, 0, 59, 62
1, 309537, Note_off_c, 0, 87, 71
1, 309555, Note_off_c, 0, 59, 65
1, 309593, Note_on_c, 0, 87, 60
1, 309615, Note_off_c, 0, 87, 65
1, 309659, Note_on_c, 0, 87, 78
1, 309680, Note_off_c, 0, 87, 71
1, 309681, Note_on_c, 0, 71, 57
1, 309683, Note_on_c, 0, 75, 48
1, 309704, Note_off_c, 0, 71, 64
1, 309706, Note_off_c, 0, 75, 55
1, 309708, Note_on_c, 0, 66, 27
1, 309737, Note_on_c, 0, 87, 80
1, 309751, Note_off_c, 0, 66, 53
1, 309764, Note_off_c, 0, 87, 64
1, 309826, Control_c, 0, 64, 68
1, 309841, Control_c, 0, 64, 0
1, 309843, Note_on_c, 0, 54, 63
1, 309872, Note_off_c, 0, 54, 64
1, 309898, Note_on_c, 0, 85, 84
1, 309939, Note_off_c, 0, 85, 63
1, 309966, Note_on_c, 0, 97, 81
1, 309993, Note_on_c, 0, 63, 58
1, 309993, Note_on_c, 0, 73, 57
1, 309997, Note_on_c, 0, 66, 57
1, 310009, Note_off_c, 0, 97, 66
1, 310012, Note_off_c, 0, 73, 63
1, 310013, Note_off_c, 0, 63, 62
1, 310026, Note_off_c, 0, 66, 65
1, 310032, Note_on_c, 0, 83, 81
1, 310077, Note_off_c, 0, 83, 64
1, 310097, Poly_aftertouch_c, 0, 94, 0
1, 310099, Note_on_c, 0, 95, 89
1, 310118, Note_on_c, 0, 66, 58
1, 310128, Note_on_c, 0, 63, 46
1, 310139, Note_off_c, 0, 95, 68
1, 310143, Note_on_c, 0, 71, 42
1, 310148, Note_off_c, 0, 66, 66
1, 310155, Note_off_c, 0, 63, 63
1, 310169, Note_off_c, 0, 71, 53
1, 310187, Note_on_c, 0, 90, 83
1, 310243, Note_off_c, 0, 90, 64
1, 310267, Note_on_c, 0, 102, 89
1, 310301, Control_c, 0, 64, 51
1, 310316, Control_c, 0, 64, 66
1, 310324, Note_on_c, 0, 95, 70
1, 310331, Control_c, 0, 64, 73
1, 310335, Note_off_c, 0, 102, 66
1, 310346, Control_c, 0, 64, 82
1, 310360, Control_c, 0, 64, 93
1, 310369, Note_off_c, 0, 95, 67
1, 310375, Control_c, 0, 64, 112
1, 310390, Control_c, 0, 64, 127
1, 310392, Note_on_c, 0, 90, 70
1, 310398, Note_on_c, 0, 59, 61
1, 310416, Note_off_c, 0, 90, 70
1, 310427, Note_off_c, 0, 59, 66
1, 310485, Note_on_c, 0, 90, 68
1, 310509, Note_off_c, 0, 90, 70
1, 310564, Note_on_c, 0, 90, 68
1, 310576, Note_on_c, 0, 71, 38
1, 310577, Note_on_c, 0, 66, 54
1, 310580, Note_on_c, 0, 75, 25
1, 310587, Note_off_c, 0, 90, 70
1, 310602, Note_off_c, 0, 66, 63
1, 310607, Note_off_c, 0, 71, 47
1, 310616, Note_off_c, 0, 75, 41
1, 310636, Note_on_c, 0, 90, 70
1, 310663, Note_off_c, 0, 90, 66
1, 310723, Control_c, 0, 64, 84
1, 310730, Note_on_c, 0, 90, 78
1, 310738, Control_c, 0, 64, 51
1, 310741, Note_on_c, 0, 54, 58
1, 310750, Note_off_c, 0, 90, 72
1, 310753, Control_c, 0, 64, 0
1, 310764, Note_off_c, 0, 54, 37
1, 310818, Note_on_c, 0, 92, 87
1, 310851, Note_off_c, 0, 92, 65
1, 310882, Note_on_c, 0, 104, 80
1, 310895, Note_on_c, 0, 71, 54
1, 310908, Note_off_c, 0, 104, 65
1, 310917, Note_off_c, 0, 71, 60
1, 310943, Note_on_c, 0, 87, 77
1, 310975, Note_off_c, 0, 87, 66
1, 311010, Note_on_c, 0, 99, 86
1, 311030, Note_on_c, 0, 71, 52
1, 311044, Note_on_c, 0, 66, 47
1, 311060, Note_off_c, 0, 71, 64
1, 311063, Note_on_c, 0, 63, 45
1, 311063, Note_off_c, 0, 99, 63
1, 311068, Note_off_c, 0, 66, 56
1, 311072, Note_on_c, 0, 88, 84
1, 311089, Note_off_c, 0, 63, 52
1, 311124, Note_off_c, 0, 88, 65
1, 311144, Note_on_c, 0, 100, 84
1, 311168, Control_c, 0, 64, 45
1, 311182, Control_c, 0, 64, 65
1, 311197, Control_c, 0, 64, 73
1, 311212, Note_off_c, 0, 100, 66
1, 311212, Control_c, 0, 64, 82
1, 311215, Note_on_c, 0, 91, 81
1, 311227, Control_c, 0, 64, 92
1, 311249, Control_c, 0, 64, 106
1, 311264, Control_c, 0, 64, 127
1, 311270, Note_off_c, 0, 91, 65
1, 311294, Note_on_c, 0, 88, 68
1, 311308, Note_on_c, 0, 61, 65
1, 311317, Note_off_c, 0, 88, 71
1, 311340, Note_off_c, 0, 61, 66
1, 311373, Note_on_c, 0, 88, 70
1, 311389, Note_off_c, 0, 88, 68
1, 311445, Note_on_c, 0, 88, 62
1, 311457, Note_on_c, 0, 76, 63
1, 311463, Note_off_c, 0, 88, 65
1, 311464, Note_on_c, 0, 67, 64
1, 311475, Note_off_c, 0, 76, 65
1, 311495, Note_off_c, 0, 67, 66
1, 311543, Note_on_c, 0, 88, 34
1, 311592, Note_off_c, 0, 88, 67
1, 311605, Control_c, 0, 64, 64
1, 311609, Note_on_c, 0, 54, 63
1, 311620, Control_c, 0, 64, 0
1, 311630, Note_off_c, 0, 54, 61
1, 311663, Note_on_c, 0, 84, 77
1, 311704, Note_off_c, 0, 84, 66
1, 311727, Note_on_c, 0, 96, 84
1, 311749, Note_on_c, 0, 76, 66
1, 311764, Note_on_c, 0, 67, 60
1, 311768, Note_off_c, 0, 96, 68
1, 311770, Note_on_c, 0, 71, 47
1, 311777, Note_off_c, 0, 76, 66
1, 311790, Note_on_c, 0, 85, 81
1, 311798, Note_off_c, 0, 67, 65
1, 311799, Note_off_c, 0, 71, 63
1, 311824, Note_off_c, 0, 85, 63
1, 311857, Control_c, 0, 67, 99
1, 311860, Note_on_c, 0, 97, 90
1, 311872, Control_c, 0, 67, 43
1, 311885, Note_on_c, 0, 76, 62
1, 311887, Control_c, 0, 67, 0
1, 311892, Note_off_c, 0, 97, 63
1, 311903, Note_on_c, 0, 67, 52
1, 311914, Note_off_c, 0, 76, 66
1, 311925, Note_on_c, 0, 90, 73
1, 311927, Note_off_c, 0, 67, 60
1, 311961, Note_off_c, 0, 90, 63
1, 312014, Note_on_c, 0, 102, 81
1, 312059, Control_c, 0, 64, 30
1, 312073, Control_c, 0, 64, 54
1, 312074, Note_off_c, 0, 102, 64
1, 312088, Control_c, 0, 64, 66
1, 312089, Note_on_c, 0, 94, 73
1, 312103, Control_c, 0, 64, 74
1, 312118, Control_c, 0, 64, 85
1, 312133, Control_c, 0, 64, 93
1, 312136, Note_off_c, 0, 94, 59
1, 312147, Control_c, 0, 64, 105
1, 312151, Note_on_c, 0, 90, 66
1, 312158, Note_on_c, 0, 61, 54
1, 312162, Control_c, 0, 64, 127
1, 312179, Note_off_c, 0, 90, 68
1, 312184, Note_off_c, 0, 61, 63
1, 312192, Control_c, 0, 67, 66
1, 312207, Control_c, 0, 67, 104
1, 312221, Control_c, 0, 67, 127
1, 312238, Note_on_c, 0, 90, 60
1, 312255, Note_off_c, 0, 90, 65
1, 312310, Note_on_c, 0, 90, 72
1, 312312, Note_on_c, 0, 76, 49
1, 312312, Note_on_c, 0, 66, 61
1, 312330, Note_on_c, 0, 70, 39
1, 312330, Note_off_c, 0, 90, 65
1, 312334, Note_off_c, 0, 76, 58
1, 312348, Note_off_c, 0, 66, 65
1, 312360, Note_off_c, 0, 70, 53
1, 312388, Note_on_c, 0, 90, 75
1, 312412, Note_off_c, 0, 90, 65
1, 312464, Note_on_c, 0, 90, 81
1, 312484, Note_on_c, 0, 54, 59
1, 312496, Note_off_c, 0, 90, 64
1, 312503, Control_c, 0, 64, 114
1, 312506, Note_off_c, 0, 54, 61
1, 312518, Control_c, 0, 64, 61
1, 312533, Control_c, 0, 64, 0
1, 312574, Note_on_c, 0, 85, 78
1, 312609, Note_off_c, 0, 85, 65
1, 312634, Note_on_c, 0, 97, 88
1, 312656, Note_on_c, 0, 66, 57
1, 312660, Note_on_c, 0, 76, 51
1, 312670, Note_on_c, 0, 70, 44
1, 312682, Note_off_c, 0, 76, 59
1, 312688, Note_off_c, 0, 66, 66
1, 312690, Note_off_c, 0, 97, 65
1, 312691, Note_on_c, 0, 86, 79
1, 312694, Note_off_c, 0, 70, 57
1, 312747, Note_off_c, 0, 86, 64
1, 312768, Note_on_c, 0, 98, 88
1, 312786, Note_on_c, 0, 66, 62
1, 312798, Note_on_c, 0, 70, 38
1, 312822, Note_off_c, 0, 66, 65
1, 312828, Note_off_c, 0, 70, 50
1, 312828, Note_off_c, 0, 98, 63
1, 312852, Note_on_c, 0, 87, 76
1, 312925, Note_on_c, 0, 99, 84
1, 312946, Note_off_c, 0, 87, 63
1, 312956, Control_c, 0, 64, 29
1, 312970, Control_c, 0, 64, 41
1, 312985, Control_c, 0, 64, 56
1, 313000, Control_c, 0, 64, 64
1, 313013, Note_on_c, 0, 94, 77
1, 313015, Control_c, 0, 64, 69
1, 313019, Note_off_c, 0, 99, 63
1, 313030, Control_c, 0, 64, 75
1, 313044, Control_c, 0, 64, 81
1, 313059, Control_c, 0, 64, 89
1, 313074, Control_c, 0, 64, 98
1, 313086, Note_on_c, 0, 59, 56
1, 313088, Control_c, 0, 64, 110
1, 313103, Control_c, 0, 64, 127
1, 313106, Note_on_c, 0, 95, 71
1, 313109, Note_off_c, 0, 59, 63
1, 313123, Note_off_c, 0, 94, 62
1, 313169, Note_off_c, 0, 95, 65
1, 313198, Note_on_c, 0, 89, 66
1, 313253, Note_off_c, 0, 89, 58
1, 313279, Note_on_c, 0, 90, 70
1, 313293, Note_on_c, 0, 71, 44
1, 313296, Note_on_c, 0, 66, 55
1, 313298, Note_on_c, 0, 75, 15
1, 313320, Note_off_c, 0, 71, 56
1, 313335, Note_off_c, 0, 66, 65
1, 313338, Note_off_c, 0, 90, 64
1, 313339, Note_off_c, 0, 75, 38
1, 313368, Note_on_c, 0, 86, 75
1, 313426, Note_off_c, 0, 86, 61
1, 313458, Note_on_c, 0, 87, 66
1, 313484, Note_on_c, 0, 54, 55
1, 313508, Note_off_c, 0, 54, 60
1, 313545, Note_on_c, 0, 82, 74
1, 313545, Note_off_c, 0, 87, 64
1, 313604, Note_off_c, 0, 82, 63
1, 313628, Note_on_c, 0, 83, 76
1, 313659, Note_on_c, 0, 75, 65
1, 313664, Note_on_c, 0, 71, 56
1, 313667, Note_on_c, 0, 66, 56
1, 313680, Note_off_c, 0, 75, 66
1, 313700, Note_off_c, 0, 71, 61
1, 313701, Note_off_c, 0, 66, 66
1, 313707, Note_on_c, 0, 87, 77
1, 313736, Note_off_c, 0, 83, 42
1, 313770, Note_on_c, 0, 75, 54
1, 313781, Note_on_c, 0, 66, 68
1, 313782, Note_on_c, 0, 94, 84
1, 313784, Note_off_c, 0, 87, 62
1, 313798, Note_off_c, 0, 75, 66
1, 313830, Note_off_c, 0, 66, 60
1, 313847, Note_on_c, 0, 92, 83
1, 313879, Note_off_c, 0, 94, 64
1, 313907, Note_on_c, 0, 90, 80
1, 313911, Control_c, 0, 64, 79
1, 313926, Control_c, 0, 64, 56
1, 313941, Control_c, 0, 64, 51
1, 313956, Control_c, 0, 64, 61
1, 313960, Note_off_c, 0, 92, 66
1, 313963, Note_on_c, 0, 87, 74
1, 313971, Control_c, 0, 64, 70
1, 313979, Note_off_c, 0, 90, 66
1, 313985, Control_c, 0, 64, 87
1, 314000, Control_c, 0, 64, 127
1, 314014, Note_off_c, 0, 87, 64
1, 314027, Note_on_c, 0, 83, 69
1, 314029, Control_c, 0, 67, 109
1, 314032, Note_on_c, 0, 51, 66
1, 314044, Control_c, 0, 67, 81
1, 314051, Note_off_c, 0, 83, 66
1, 314059, Control_c, 0, 67, 51
1, 314071, Note_off_c, 0, 51, 59
1, 314074, Control_c, 0, 67, 0
1, 314116, Note_on_c, 0, 80, 75
1, 314172, Note_on_c, 0, 66, 69
1, 314181, Note_on_c, 0, 78, 73
1, 314184, Note_on_c, 0, 59, 58
1, 314200, Note_off_c, 0, 66, 67
1, 314202, Note_off_c, 0, 80, 63
1, 314209, Note_off_c, 0, 59, 64
1, 314250, Note_on_c, 0, 75, 76
1, 314257, Note_off_c, 0, 78, 61
1, 314303, Note_off_c, 0, 75, 65
1, 314327, Note_on_c, 0, 54, 58
1, 314327, Note_on_c, 0, 71, 78
1, 314332, Note_on_c, 0, 63, 60
1, 314369, Note_off_c, 0, 63, 62
1, 314374, Note_off_c, 0, 71, 60
1, 314408, Note_on_c, 0, 68, 78
1, 314463, Note_off_c, 0, 54, 49
1, 314516, Note_on_c, 0, 65, 89
1, 314524, Note_on_c, 0, 47, 59
1, 314542, Control_c, 0, 64, 89
1, 314542, Note_off_c, 0, 68, 57
1, 314557, Control_c, 0, 64, 63
1, 314572, Control_c, 0, 64, 51
1, 314577, Note_off_c, 0, 47, 62
1, 314587, Control_c, 0, 64, 56
1, 314602, Control_c, 0, 64, 62
1, 314613, Note_off_c, 0, 65, 60
1, 314616, Control_c, 0, 64, 69
1, 314616, Note_on_c, 0, 77, 76
1, 314631, Control_c, 0, 64, 87
1, 314646, Control_c, 0, 64, 127
1, 314697, Note_off_c, 0, 77, 62
1, 314705, Note_on_c, 0, 63, 69
1, 314712, Note_on_c, 0, 54, 59
1, 314724, Note_on_c, 0, 66, 91
1, 314732, Note_off_c, 0, 63, 66
1, 314782, Note_off_c, 0, 54, 60
1, 314818, Note_on_c, 0, 78, 83
1, 314822, Note_off_c, 0, 66, 58
1, 314919, Note_on_c, 0, 46, 61
1, 314973, Control_c, 0, 64, 96
1, 314995, Control_c, 0, 64, 64
1, 315010, Control_c, 0, 64, 0
1, 315017, Note_off_c, 0, 78, 49
1, 315046, Note_on_c, 0, 68, 78
1, 315084, Control_c, 0, 64, 48
1, 315099, Control_c, 0, 64, 65
1, 315114, Control_c, 0, 64, 77
1, 315128, Note_off_c, 0, 46, 60
1, 315129, Control_c, 0, 64, 96
1, 315144, Control_c, 0, 64, 127
1, 315171, Note_off_c, 0, 68, 57
1, 315183, Note_on_c, 0, 73, 66
1, 315278, Note_off_c, 0, 73, 61
1, 315296, Note_on_c, 0, 76, 62
1, 315299, Note_on_c, 0, 64, 47
1, 315305, Note_on_c, 0, 54, 46
1, 315324, Note_off_c, 0, 76, 67
1, 315326, Note_on_c, 0, 61, 34
1, 315326, Note_off_c, 0, 64, 60
1, 315348, Note_off_c, 0, 54, 58
1, 315358, Note_off_c, 0, 61, 53
1, 315388, Note_on_c, 0, 80, 72
1, 315426, Note_off_c, 0, 80, 59
1, 315460, Note_on_c, 0, 54, 53
1, 315463, Note_on_c, 0, 61, 37
1, 315470, Note_on_c, 0, 92, 69
1, 315493, Note_off_c, 0, 61, 49
1, 315498, Note_off_c, 0, 54, 63
1, 315526, Note_off_c, 0, 92, 65
1, 315545, Note_on_c, 0, 80, 69
1, 315632, Control_c, 0, 64, 81
1, 315646, Control_c, 0, 64, 58
1, 315651, Note_on_c, 0, 42, 71
1, 315654, Note_off_c, 0, 80, 53
1, 315659, Note_on_c, 0, 92, 75
1, 315661, Control_c, 0, 64, 41
1, 315675, Control_c, 0, 64, 49
1, 315690, Control_c, 0, 64, 64
1, 315693, Note_off_c, 0, 42, 63
1, 315699, Note_off_c, 0, 92, 61
1, 315706, Control_c, 0, 64, 78
1, 315721, Control_c, 0, 64, 127
1, 315885, Note_on_c, 0, 70, 71
1, 315895, Note_on_c, 0, 54, 54
1, 315899, Note_on_c, 0, 64, 51
1, 315924, Note_on_c, 0, 61, 28
1, 315925, Note_off_c, 0, 64, 61
1, 315929, Note_off_c, 0, 54, 63
1, 315946, Note_off_c, 0, 70, 60
1, 315961, Note_off_c, 0, 61, 44
1, 315962, Note_on_c, 0, 82, 67
1, 316017, Note_off_c, 0, 82, 63
1, 316035, Note_on_c, 0, 54, 60
1, 316038, Note_on_c, 0, 71, 85
1, 316065, Note_off_c, 0, 54, 65
1, 316073, Poly_aftertouch_c, 0, 64, 127
1, 316098, Note_off_c, 0, 71, 61
1, 316104, Poly_aftertouch_c, 0, 61, 127
1, 316113, Poly_aftertouch_c, 0, 64, 0
1, 316114, Note_on_c, 0, 83, 80
1, 316136, Poly_aftertouch_c, 0, 61, 0
1, 316184, Note_off_c, 0, 83, 63
1, 316202, Control_c, 0, 64, 76
1, 316217, Control_c, 0, 64, 46
1, 316222, Note_on_c, 0, 73, 83
1, 316225, Note_on_c, 0, 46, 61
1, 316232, Control_c, 0, 64, 0
1, 316262, Control_c, 0, 64, 37
1, 316277, Control_c, 0, 64, 57
1, 316292, Control_c, 0, 64, 72
1, 316296, Note_off_c, 0, 46, 61
1, 316306, Control_c, 0, 64, 108
1, 316321, Control_c, 0, 64, 127
1, 316328, Note_off_c, 0, 73, 58
1, 316329, Note_on_c, 0, 76, 69
1, 316388, Note_off_c, 0, 76, 61
1, 316411, Note_on_c, 0, 78, 67
1, 316432, Note_on_c, 0, 54, 61
1, 316436, Note_off_c, 0, 78, 67
1, 316437, Note_on_c, 0, 64, 50
1, 316461, Note_on_c, 0, 61, 33
1, 316462, Note_off_c, 0, 64, 59
1, 316465, Note_off_c, 0, 54, 62
1, 316499, Note_on_c, 0, 85, 84
1, 316503, Note_off_c, 0, 61, 46
1, 316545, Note_off_c, 0, 85, 62
1, 316560, Note_on_c, 0, 64, 48
1, 316563, Note_on_c, 0, 54, 63
1, 316569, Note_on_c, 0, 97, 79
1, 316593, Note_off_c, 0, 64, 53
1, 316599, Note_off_c, 0, 54, 62
1, 316615, Note_off_c, 0, 97, 64
1, 316629, Note_on_c, 0, 85, 92
1, 316685, Control_c, 0, 64, 97
1, 316686, Note_off_c, 0, 85, 63
1, 316700, Control_c, 0, 64, 58
1, 316709, Note_on_c, 0, 42, 85
1, 316709, Note_on_c, 0, 97, 96
1, 316715, Control_c, 0, 64, 0
1, 316729, Control_c, 0, 64, 39
1, 316732, Note_off_c, 0, 97, 65
1, 316739, Note_off_c, 0, 42, 68
1, 316744, Control_c, 0, 64, 62
1, 316759, Control_c, 0, 64, 83
1, 316774, Control_c, 0, 64, 127
1, 316892, Note_on_c, 0, 71, 90
1, 316899, Note_on_c, 0, 64, 65
1, 316901, Note_on_c, 0, 54, 56
1, 316927, Note_off_c, 0, 64, 67
1, 316930, Note_off_c, 0, 54, 65
1, 316933, Note_off_c, 0, 71, 64
1, 316959, Note_on_c, 0, 83, 81
1, 317004, Note_off_c, 0, 83, 64
1, 317018, Note_on_c, 0, 54, 63
1, 317023, Note_on_c, 0, 64, 44
1, 317032, Note_on_c, 0, 70, 91
1, 317041, Note_on_c, 0, 61, 26
1, 317046, Note_off_c, 0, 54, 66
1, 317058, Note_off_c, 0, 64, 53
1, 317076, Note_off_c, 0, 61, 54
1, 317083, Note_off_c, 0, 70, 64
1, 317107, Note_on_c, 0, 82, 83
1, 317145, Note_off_c, 0, 82, 62
1, 317159, Control_c, 0, 64, 76
1, 317173, Control_c, 0, 64, 30
1, 317188, Note_on_c, 0, 48, 74
1, 317188, Control_c, 0, 64, 0
1, 317193, Note_on_c, 0, 75, 93
1, 317225, Control_c, 0, 64, 48
1, 317240, Control_c, 0, 64, 67
1, 317246, Note_off_c, 0, 48, 61
1, 317255, Control_c, 0, 64, 96
1, 317263, Note_on_c, 0, 74, 8
1, 317269, Control_c, 0, 64, 127
1, 317279, Note_on_c, 0, 78, 82
1, 317290, Note_off_c, 0, 75, 57
1, 317302, Note_off_c, 0, 74, 0
1, 317320, Poly_aftertouch_c, 0, 74, 0
1, 317356, Note_on_c, 0, 81, 69
1, 317358, Note_off_c, 0, 78, 61
1, 317366, Note_on_c, 0, 63, 61
1, 317368, Note_on_c, 0, 54, 61
1, 317371, Note_on_c, 0, 57, 58
1, 317380, Note_off_c, 0, 81, 68
1, 317398, Note_off_c, 0, 63, 64
1, 317412, Note_off_c, 0, 57, 61
1, 317415, Note_off_c, 0, 54, 57
1, 317436, Note_on_c, 0, 87, 85
1, 317481, Note_off_c, 0, 87, 66
1, 317493, Note_on_c, 0, 63, 57
1, 317499, Note_on_c, 0, 57, 62
1, 317505, Note_on_c, 0, 99, 92
1, 317515, Note_on_c, 0, 54, 65
1, 317523, Note_off_c, 0, 63, 66
1, 317531, Note_off_c, 0, 57, 65
1, 317541, Note_off_c, 0, 54, 66
1, 317559, Note_off_c, 0, 99, 63
1, 317567, Note_on_c, 0, 87, 89
1, 317612, Control_c, 0, 64, 71
1, 317626, Note_off_c, 0, 87, 64
1, 317626, Control_c, 0, 64, 0
1, 317639, Note_on_c, 0, 42, 83
1, 317640, Note_on_c, 0, 99, 102
1, 317656, Control_c, 0, 64, 55
1, 317669, Note_off_c, 0, 42, 66
1, 317671, Control_c, 0, 64, 77
1, 317672, Note_off_c, 0, 99, 66
1, 317685, Control_c, 0, 64, 127
1, 317824, Note_on_c, 0, 57, 54
1, 317824, Note_on_c, 0, 72, 91
1, 317831, Note_on_c, 0, 63, 38
1, 317861, Note_off_c, 0, 63, 48
1, 317863, Note_off_c, 0, 57, 64
1, 317866, Note_off_c, 0, 72, 66
1, 317884, Note_on_c, 0, 84, 83
1, 317931, Note_off_c, 0, 84, 66
1, 317943, Note_on_c, 0, 63, 63
1, 317951, Note_on_c, 0, 57, 60
1, 317953, Note_on_c, 0, 73, 93
1, 317967, Note_on_c, 0, 54, 55
1, 317983, Note_off_c, 0, 63, 64
1, 318005, Note_off_c, 0, 73, 63
1, 318012, Note_off_c, 0, 54, 59
1, 318015, Note_off_c, 0, 57, 55
1, 318036, Note_on_c, 0, 85, 89
1, 318063, Control_c, 0, 64, 116
1, 318077, Control_c, 0, 64, 62
1, 318080, Note_off_c, 0, 85, 65
1, 318092, Control_c, 0, 64, 0
1, 318104, Note_on_c, 0, 48, 87
1, 318104, Note_on_c, 0, 75, 96
1, 318123, Control_c, 0, 64, 30
1, 318138, Control_c, 0, 64, 61
1, 318153, Control_c, 0, 64, 83
1, 318159, Note_off_c, 0, 48, 63
1, 318168, Control_c, 0, 64, 127
1, 318176, Note_on_c, 0, 78, 83
1, 318188, Note_off_c, 0, 75, 57
1, 318229, Note_on_c, 0, 81, 61
1, 318235, Note_off_c, 0, 78, 62
1, 318256, Note_off_c, 0, 81, 66
1, 318263, Note_on_c, 0, 63, 77
1, 318269, Note_on_c, 0, 54, 61
1, 318269, Note_on_c, 0, 57, 57
1, 318298, Note_off_c, 0, 63, 59
1, 318312, Note_off_c, 0, 57, 62
1, 318317, Note_off_c, 0, 54, 58
1, 318322, Note_on_c, 0, 87, 93
1, 318363, Note_off_c, 0, 87, 66
1, 318389, Note_on_c, 0, 99, 88
1, 318406, Note_on_c, 0, 63, 56
1, 318411, Note_on_c, 0, 54, 72
1, 318420, Note_on_c, 0, 57, 50
1, 318426, Note_off_c, 0, 63, 61
1, 318440, Note_off_c, 0, 99, 63
1, 318443, Note_off_c, 0, 54, 59
1, 318447, Note_on_c, 0, 87, 89
1, 318447, Note_off_c, 0, 57, 55
1, 318494, Control_c, 0, 64, 66
1, 318501, Note_off_c, 0, 87, 64
1, 318508, Control_c, 0, 64, 0
1, 318518, Note_on_c, 0, 99, 103
1, 318526, Note_on_c, 0, 42, 90
1, 318538, Control_c, 0, 64, 48
1, 318553, Control_c, 0, 64, 71
1, 318554, Note_off_c, 0, 99, 67
1, 318554, Note_off_c, 0, 42, 68
1, 318568, Control_c, 0, 64, 127
1, 318693, Note_on_c, 0, 73, 96
1, 318703, Note_on_c, 0, 57, 42
1, 318703, Note_on_c, 0, 63, 51
1, 318707, Note_on_c, 0, 54, 58
1, 318734, Note_off_c, 0, 63, 59
1, 318751, Note_off_c, 0, 73, 64
1, 318752, Note_off_c, 0, 54, 61
1, 318756, Note_off_c, 0, 57, 60
1, 318777, Note_on_c, 0, 85, 78
1, 318821, Note_on_c, 0, 63, 69
1, 318825, Note_off_c, 0, 85, 63
1, 318833, Note_on_c, 0, 72, 91
1, 318837, Note_on_c, 0, 54, 60
1, 318845, Note_on_c, 0, 57, 63
1, 318870, Note_off_c, 0, 63, 61
1, 318879, Note_off_c, 0, 57, 64
1, 318882, Note_off_c, 0, 72, 65
1, 318894, Note_off_c, 0, 54, 57
1, 318909, Note_on_c, 0, 84, 85
1, 318918, Control_c, 0, 64, 80
1, 318932, Control_c, 0, 64, 30
1, 318947, Control_c, 0, 64, 0
1, 318954, Note_off_c, 0, 84, 64
1, 318966, Note_on_c, 0, 49, 84
1, 318967, Note_on_c, 0, 76, 100
1, 318992, Control_c, 0, 64, 58
1, 319006, Control_c, 0, 64, 78
1, 319021, Control_c, 0, 64, 127
1, 319030, Note_off_c, 0, 49, 62
1, 319033, Note_off_c, 0, 76, 56
1, 319043, Note_on_c, 0, 78, 85
1, 319081, Note_off_c, 0, 78, 63
1, 319133, Note_on_c, 0, 54, 61
1, 319139, Note_on_c, 0, 64, 52
1, 319147, Note_on_c, 0, 58, 53
1, 319168, Note_off_c, 0, 54, 60
1, 319168, Note_off_c, 0, 64, 65
1, 319180, Note_off_c, 0, 58, 64
1, 319183, Note_on_c, 0, 88, 86
1, 319221, Note_off_c, 0, 88, 63
1, 319249, Note_on_c, 0, 64, 65
1, 319250, Note_on_c, 0, 100, 84
1, 319261, Note_on_c, 0, 54, 62
1, 319262, Note_on_c, 0, 58, 63
1, 319266, Note_off_c, 0, 64, 68
1, 319289, Note_off_c, 0, 58, 65
1, 319296, Note_off_c, 0, 54, 63
1, 319299, Note_on_c, 0, 88, 92
1, 319302, Note_off_c, 0, 100, 65
1, 319347, Control_c, 0, 64, 76
1, 319358, Note_off_c, 0, 88, 65
1, 319362, Control_c, 0, 64, 0
1, 319380, Note_on_c, 0, 100, 112
1, 319389, Note_on_c, 0, 42, 94
1, 319391, Note_on_c, 0, 54, 94
1, 319404, Control_c, 0, 64, 49
1, 319409, Note_off_c, 0, 100, 71
1, 319411, Note_off_c, 0, 54, 68
1, 319413, Note_off_c, 0, 42, 70
1, 319419, Control_c, 0, 64, 71
1, 319434, Control_c, 0, 64, 127
1, 319451, Note_on_c, 0, 98, 23
1, 319451, Note_off_c, 0, 98, 127
1, 319574, Note_on_c, 0, 54, 74
1, 319581, Note_on_c, 0, 64, 78
1, 319584, Note_on_c, 0, 72, 73
1, 319588, Note_on_c, 0, 71, 63
1, 319598, Note_on_c, 0, 58, 56
1, 319599, Note_off_c, 0, 54, 64
1, 319606, Note_off_c, 0, 64, 69
1, 319613, Note_off_c, 0, 72, 65
1, 319616, Note_off_c, 0, 71, 65
1, 319625, Note_off_c, 0, 58, 55
1, 319642, Note_on_c, 0, 84, 79
1, 319669, Note_off_c, 0, 84, 64
1, 319690, Note_on_c, 0, 64, 68
1, 319696, Note_on_c, 0, 58, 75
1, 319701, Note_on_c, 0, 54, 65
1, 319714, Note_off_c, 0, 64, 67
1, 319720, Note_off_c, 0, 54, 68
1, 319723, Note_off_c, 0, 58, 67
1, 319728, Note_on_c, 0, 75, 66
1, 319753, Note_off_c, 0, 75, 54
1, 319782, Note_on_c, 0, 85, 81
1, 319798, Control_c, 0, 64, 89
1, 319813, Control_c, 0, 64, 49
1, 319827, Control_c, 0, 64, 0
1, 319830, Note_off_c, 0, 85, 62
1, 319848, Note_on_c, 0, 55, 104
1, 319851, Note_on_c, 0, 43, 91
1, 319854, Note_on_c, 0, 77, 85
1, 319872, Control_c, 0, 64, 50
1, 319875, Note_off_c, 0, 43, 68
1, 319880, Note_on_c, 0, 45, 56
1, 319884, Note_off_c, 0, 55, 71
1, 319887, Control_c, 0, 64, 67
1, 319902, Control_c, 0, 64, 91
1, 319909, Note_off_c, 0, 45, 55
1, 319917, Control_c, 0, 64, 127
1, 319924, Note_off_c, 0, 77, 62
1, 319927, Note_on_c, 0, 82, 76
1, 319981, Note_off_c, 0, 82, 63
1, 319982, Note_on_c, 0, 85, 69
1, 320003, Note_on_c, 0, 64, 84
1, 320014, Note_on_c, 0, 55, 67
1, 320015, Note_off_c, 0, 85, 64
1, 320047, Note_off_c, 0, 64, 63
1, 320048, Note_off_c, 0, 55, 62
1, 320063, Note_on_c, 0, 88, 87
1, 320107, Note_off_c, 0, 88, 65
1, 320136, Note_on_c, 0, 100, 86
1, 320137, Note_on_c, 0, 64, 75
1, 320144, Note_on_c, 0, 55, 70
1, 320146, Note_on_c, 0, 58, 69
1, 320161, Note_off_c, 0, 64, 68
1, 320165, Note_off_c, 0, 55, 69
1, 320173, Note_off_c, 0, 58, 66
1, 320186, Note_off_c, 0, 100, 67
1, 320197, Note_on_c, 0, 88, 88
1, 320235, Control_c, 0, 64, 86
1, 320250, Control_c, 0, 64, 43
1, 320265, Control_c, 0, 64, 0
1, 320274, Note_on_c, 0, 100, 111
1, 320277, Note_on_c, 0, 56, 104
1, 320279, Note_off_c, 0, 88, 45
1, 320284, Note_on_c, 0, 44, 81
1, 320297, Note_off_c, 0, 56, 71
1, 320301, Note_off_c, 0, 100, 71
1, 320309, Control_c, 0, 64, 50
1, 320310, Note_off_c, 0, 44, 66
1, 320324, Control_c, 0, 64, 72
1, 320339, Control_c, 0, 64, 127
1, 320448, Note_on_c, 0, 75, 92
1, 320450, Note_on_c, 0, 64, 78
1, 320451, Note_on_c, 0, 56, 74
1, 320462, Note_on_c, 0, 61, 54
1, 320471, Note_off_c, 0, 64, 70
1, 320477, Note_off_c, 0, 56, 64
1, 320484, Note_off_c, 0, 61, 63
1, 320487, Note_off_c, 0, 75, 65
1, 320503, Note_on_c, 0, 87, 87
1, 320557, Note_on_c, 0, 85, 12
1, 320558, Note_off_c, 0, 87, 65
1, 320564, Note_on_c, 0, 64, 68
1, 320568, Note_on_c, 0, 56, 77
1, 320572, Note_on_c, 0, 61, 61
1, 320577, Note_on_c, 0, 73, 90
1, 320588, Note_off_c, 0, 64, 68
1, 320595, Note_off_c, 0, 56, 67
1, 320602, Note_off_c, 0, 61, 65
1, 320602, Note_off_c, 0, 85, 37
1, 320629, Note_off_c, 0, 73, 62
1, 320661, Note_on_c, 0, 85, 69
1, 320665, Control_c, 0, 64, 93
1, 320680, Control_c, 0, 64, 49
1, 320692, Note_off_c, 0, 85, 66
1, 320695, Control_c, 0, 64, 0
1, 320715, Note_on_c, 0, 57, 108
1, 320717, Note_on_c, 0, 76, 92
1, 320720, Note_on_c, 0, 45, 94
1, 320742, Note_off_c, 0, 45, 71
1, 320754, Note_off_c, 0, 57, 69
1, 320754, Control_c, 0, 64, 41
1, 320769, Control_c, 0, 64, 67
1, 320784, Control_c, 0, 64, 127
1, 320784, Note_off_c, 0, 76, 61
1, 320801, Note_on_c, 0, 81, 83
1, 320849, Note_off_c, 0, 81, 64
1, 320864, Note_on_c, 0, 85, 70
1, 320879, Note_on_c, 0, 64, 73
1, 320885, Note_off_c, 0, 85, 70
1, 320887, Note_on_c, 0, 57, 66
1, 320888, Note_on_c, 0, 61, 64
1, 320903, Note_off_c, 0, 64, 68
1, 320911, Note_off_c, 0, 61, 64
1, 320912, Note_off_c, 0, 57, 69
1, 320955, Note_on_c, 0, 88, 79
1, 320990, Note_off_c, 0, 88, 64
1, 321017, Note_on_c, 0, 61, 61
1, 321019, Note_on_c, 0, 64, 65
1, 321022, Note_on_c, 0, 57, 66
1, 321023, Note_on_c, 0, 100, 89
1, 321046, Note_off_c, 0, 64, 67
1, 321048, Note_off_c, 0, 61, 67
1, 321054, Note_off_c, 0, 57, 59
1, 321069, Note_off_c, 0, 100, 67
1, 321083, Note_on_c, 0, 88, 88
1, 321117, Control_c, 0, 64, 64
1, 321132, Control_c, 0, 64, 0
1, 321136, Note_off_c, 0, 88, 66
1, 321154, Note_on_c, 0, 100, 109
1, 321162, Control_c, 0, 64, 34
1, 321169, Note_on_c, 0, 54, 94
1, 321173, Note_on_c, 0, 42, 74
1, 321176, Control_c, 0, 64, 65
1, 321181, Note_off_c, 0, 100, 69
1, 321186, Note_off_c, 0, 54, 72
1, 321191, Control_c, 0, 64, 98
1, 321195, Note_off_c, 0, 42, 61
1, 321206, Control_c, 0, 64, 127
1, 321220, Note_on_c, 0, 98, 36
1, 321220, Note_off_c, 0, 98, 127
1, 321329, Note_on_c, 0, 72, 92
1, 321346, Note_on_c, 0, 54, 64
1, 321348, Note_on_c, 0, 64, 72
1, 321360, Note_on_c, 0, 58, 55
1, 321371, Note_off_c, 0, 54, 66
1, 321372, Note_off_c, 0, 72, 67
1, 321374, Note_off_c, 0, 64, 70
1, 321383, Note_off_c, 0, 58, 59
1, 321393, Note_on_c, 0, 84, 86
1, 321433, Note_off_c, 0, 84, 63
1, 321460, Note_on_c, 0, 73, 92
1, 321461, Note_on_c, 0, 64, 72
1, 321468, Note_on_c, 0, 58, 66
1, 321476, Note_on_c, 0, 54, 63
1, 321487, Note_off_c, 0, 64, 68
1, 321495, Note_off_c, 0, 58, 65
1, 321499, Note_off_c, 0, 54, 68
1, 321515, Note_off_c, 0, 73, 61
1, 321526, Note_on_c, 0, 85, 92
1, 321547, Control_c, 0, 64, 86
1, 321562, Control_c, 0, 64, 42
1, 321577, Control_c, 0, 64, 0
1, 321578, Note_off_c, 0, 85, 64
1, 321599, Note_on_c, 0, 76, 85
1, 321603, Note_on_c, 0, 55, 111
1, 321612, Note_on_c, 0, 43, 89
1, 321622, Control_c, 0, 64, 54
1, 321633, Note_off_c, 0, 43, 68
1, 321634, Note_on_c, 0, 45, 66
1, 321637, Control_c, 0, 64, 72
1, 321641, Note_off_c, 0, 55, 69
1, 321651, Control_c, 0, 64, 127
1, 321663, Note_off_c, 0, 45, 59
1, 321679, Note_off_c, 0, 76, 44
1, 321683, Note_on_c, 0, 82, 82
1, 321756, Note_on_c, 0, 85, 81
1, 321759, Note_off_c, 0, 82, 63
1, 321769, Note_on_c, 0, 64, 82
1, 321784, Note_on_c, 0, 55, 61
1, 321786, Note_on_c, 0, 58, 62
1, 321789, Note_off_c, 0, 85, 60
1, 321800, Note_off_c, 0, 64, 62
1, 321814, Note_off_c, 0, 55, 65
1, 321817, Note_off_c, 0, 58, 64
1, 321840, Note_on_c, 0, 88, 86
1, 321884, Note_off_c, 0, 88, 66
1, 321902, Note_on_c, 0, 64, 78
1, 321905, Note_on_c, 0, 100, 93
1, 321910, Note_on_c, 0, 55, 68
1, 321910, Note_on_c, 0, 58, 67
1, 321923, Note_off_c, 0, 64, 71
1, 321937, Note_off_c, 0, 58, 67
1, 321952, Note_off_c, 0, 55, 62
1, 321958, Note_off_c, 0, 100, 66
1, 321970, Note_on_c, 0, 88, 90
1, 321970, Control_c, 0, 64, 108
1, 321985, Control_c, 0, 64, 59
1, 322000, Control_c, 0, 64, 0
1, 322030, Note_on_c, 0, 100, 105
1, 322035, Note_on_c, 0, 56, 99
1, 322039, Note_on_c, 0, 44, 86
1, 322039, Note_off_c, 0, 88, 63
1, 322044, Control_c, 0, 64, 55
1, 322059, Control_c, 0, 64, 77
1, 322060, Note_off_c, 0, 100, 69
1, 322062, Note_off_c, 0, 44, 68
1, 322063, Note_off_c, 0, 56, 63
1, 322074, Control_c, 0, 64, 127
1, 322212, Note_on_c, 0, 75, 102
1, 322218, Note_on_c, 0, 64, 81
1, 322221, Note_on_c, 0, 56, 74
1, 322244, Note_off_c, 0, 64, 67
1, 322254, Note_off_c, 0, 56, 61
1, 322260, Note_off_c, 0, 75, 67
1, 322283, Note_on_c, 0, 87, 87
1, 322336, Note_off_c, 0, 87, 64
1, 322348, Note_on_c, 0, 56, 70
1, 322349, Note_on_c, 0, 64, 70
1, 322353, Note_on_c, 0, 73, 91
1, 322373, Note_off_c, 0, 64, 70
1, 322382, Note_off_c, 0, 56, 63
1, 322410, Note_off_c, 0, 73, 63
1, 322435, Note_on_c, 0, 85, 77
1, 322445, Control_c, 0, 64, 99
1, 322453, Poly_aftertouch_c, 0, 61, 0
1, 322460, Control_c, 0, 64, 54
1, 322482, Control_c, 0, 64, 0
1, 322494, Note_off_c, 0, 85, 66
1, 322504, Note_on_c, 0, 57, 106
1, 322508, Note_on_c, 0, 45, 98
1, 322510, Note_on_c, 0, 76, 88
1, 322527, Control_c, 0, 64, 46
1, 322529, Note_off_c, 0, 45, 71
1, 322539, Note_off_c, 0, 57, 71
1, 322541, Control_c, 0, 64, 66
1, 322556, Control_c, 0, 64, 92
1, 322571, Control_c, 0, 64, 127
1, 322585, Note_off_c, 0, 76, 55
1, 322595, Note_on_c, 0, 81, 83
1, 322662, Note_off_c, 0, 81, 63
1, 322668, Note_on_c, 0, 88, 83
1, 322674, Note_on_c, 0, 64, 78
1, 322677, Note_on_c, 0, 57, 79
1, 322700, Note_off_c, 0, 57, 66
1, 322701, Note_off_c, 0, 64, 67
1, 322707, Note_off_c, 0, 88, 66
1, 322746, Note_on_c, 0, 88, 76
1, 322807, Note_on_c, 0, 57, 73
1, 322807, Note_on_c, 0, 64, 75
1, 322813, Note_on_c, 0, 93, 91
1, 322824, Note_off_c, 0, 88, 63
1, 322838, Note_off_c, 0, 64, 62
1, 322843, Note_off_c, 0, 57, 63
1, 322872, Note_off_c, 0, 93, 64
1, 322879, Note_on_c, 0, 100, 84
1, 322882, Control_c, 0, 64, 119
1, 322897, Control_c, 0, 64, 68
1, 322903, Note_on_c, 0, 98, 65
1, 322912, Control_c, 0, 64, 55
1, 322927, Control_c, 0, 64, 66
1, 322930, Note_off_c, 0, 98, 56
1, 322939, Note_on_c, 0, 64, 98
1, 322942, Note_on_c, 0, 57, 94
1, 322942, Control_c, 0, 64, 93
1, 322945, Note_on_c, 0, 93, 102
1, 322957, Control_c, 0, 64, 127
1, 322962, Note_off_c, 0, 100, 67
1, 322994, Note_off_c, 0, 93, 64
1, 323002, Note_off_c, 0, 57, 64
1, 323010, Note_off_c, 0, 64, 60
1, 323017, Note_on_c, 0, 88, 70
1, 323040, Note_off_c, 0, 88, 71
1, 323099, Note_on_c, 0, 88, 85
1, 323159, Note_on_c, 0, 81, 87
1, 323193, Note_off_c, 0, 88, 57
1, 323228, Note_off_c, 0, 81, 64
1, 323235, Note_on_c, 0, 76, 85
1, 323247, Note_on_c, 0, 64, 70
1, 323250, Note_on_c, 0, 57, 63
1, 323288, Note_off_c, 0, 64, 59
1, 323289, Note_off_c, 0, 57, 57
1, 323299, Note_off_c, 0, 76, 65
1, 323309, Note_on_c, 0, 81, 87
1, 323380, Note_off_c, 0, 81, 65
1, 323382, Note_on_c, 0, 88, 88
1, 323385, Note_on_c, 0, 64, 94
1, 323389, Note_on_c, 0, 57, 84
1, 323419, Note_off_c, 0, 88, 65
1, 323457, Note_on_c, 0, 88, 84
1, 323480, Note_off_c, 0, 57, 60
1, 323484, Note_off_c, 0, 64, 51
1, 323526, Note_on_c, 0, 93, 90
1, 323538, Note_off_c, 0, 88, 60
1, 323591, Note_on_c, 0, 100, 93
1, 323594, Note_off_c, 0, 93, 63
1, 323654, Note_on_c, 0, 93, 91
1, 323667, Note_on_c, 0, 64, 72
1, 323671, Note_on_c, 0, 57, 66
1, 323678, Note_off_c, 0, 100, 65
1, 323711, Note_off_c, 0, 64, 61
1, 323712, Note_off_c, 0, 93, 65
1, 323713, Note_off_c, 0, 57, 61
1, 323715, Note_on_c, 0, 88, 82
1, 323740, Note_off_c, 0, 88, 66
1, 323810, Note_on_c, 0, 57, 71
1, 323810, Note_on_c, 0, 88, 92
1, 323811, Note_on_c, 0, 64, 77
1, 323875, Note_on_c, 0, 81, 93
1, 323916, Note_off_c, 0, 64, 62
1, 323929, Note_on_c, 0, 82, 47
1, 323935, Note_off_c, 0, 57, 62
1, 323944, Note_off_c, 0, 88, 62
1, 323944, Note_on_c, 0, 76, 90
1, 323953, Note_off_c, 0, 82, 60
1, 323974, Note_off_c, 0, 81, 68
1, 323982, Note_off_c, 0, 76, 64
1, 324039, Control_c, 0, 67, 66
1, 324054, Control_c, 0, 67, 111
1, 324069, Control_c, 0, 67, 127
1, 324114, Control_c, 0, 64, 97
1, 324128, Control_c, 0, 64, 73
1, 324143, Control_c, 0, 64, 58
1, 324158, Control_c, 0, 64, 40
1, 324172, Control_c, 0, 64, 0
1, 324261, Control_c, 0, 64, 41
1, 324276, Control_c, 0, 64, 53
1, 324282, Note_on_c, 0, 57, 45
1, 324287, Note_on_c, 0, 33, 60
1, 324291, Control_c, 0, 64, 58
1, 324303, Note_on_c, 0, 52, 37
1, 324306, Control_c, 0, 64, 61
1, 324311, Note_on_c, 0, 49, 28
1, 324320, Control_c, 0, 64, 64
1, 324330, Note_off_c, 0, 33, 61
1, 324335, Control_c, 0, 64, 66
1, 324350, Control_c, 0, 64, 69
1, 324364, Note_off_c, 0, 49, 60
1, 324364, Control_c, 0, 64, 73
1, 324379, Control_c, 0, 64, 76
1, 324382, Note_on_c, 0, 45, 54
1, 324394, Control_c, 0, 64, 77
1, 324409, Control_c, 0, 64, 77
1, 324411, Note_off_c, 0, 45, 61
1, 324424, Control_c, 0, 64, 70
1, 324433, Note_on_c, 0, 33, 68
1, 324437, Note_on_c, 0, 58, 65
1, 324439, Control_c, 0, 64, 53
1, 324439, Note_off_c, 0, 57, 37
1, 324442, Note_on_c, 0, 53, 53
1, 324443, Note_on_c, 0, 50, 51
1, 324453, Control_c, 0, 64, 0
1, 324458, Note_off_c, 0, 52, 53
1, 324465, Note_off_c, 0, 33, 66
1, 324466, Note_off_c, 0, 53, 59
1, 324467, Note_off_c, 0, 58, 64
1, 324470, Note_off_c, 0, 50, 56
1, 324508, Note_on_c, 0, 45, 50
1, 324534, Note_off_c, 0, 45, 58
1, 324568, Note_on_c, 0, 32, 71
1, 324608, Note_off_c, 0, 32, 62
1, 324650, Note_on_c, 0, 44, 48
1, 324688, Note_off_c, 0, 44, 64
1, 324744, Note_on_c, 0, 58, 46
1, 324746, Note_on_c, 0, 53, 34
1, 324748, Note_on_c, 0, 31, 53
1, 324759, Note_on_c, 0, 50, 31
1, 324790, Note_off_c, 0, 31, 61
1, 324803, Control_c, 0, 64, 36
1, 324814, Note_on_c, 0, 43, 49
1, 324818, Control_c, 0, 64, 49
1, 324833, Control_c, 0, 64, 60
1, 324833, Control_c, 0, 67, 90
1, 324842, Note_off_c, 0, 43, 56
1, 324848, Control_c, 0, 64, 64
1, 324848, Control_c, 0, 67, 38
1, 324863, Control_c, 0, 64, 68
1, 324863, Control_c, 0, 67, 0
1, 324877, Control_c, 0, 64, 75
1, 324883, Note_on_c, 0, 29, 66
1, 324892, Control_c, 0, 64, 82
1, 324907, Control_c, 0, 64, 93
1, 324908, Note_off_c, 0, 53, 49
1, 324922, Control_c, 0, 64, 118
1, 324937, Control_c, 0, 64, 127
1, 324940, Note_off_c, 0, 50, 40
1, 324945, Note_on_c, 0, 41, 71
1, 324947, Note_off_c, 0, 29, 57
1, 324957, Note_off_c, 0, 58, 38
1, 324981, Note_off_c, 0, 41, 64
1, 325034, Note_on_c, 0, 31, 66
1, 325035, Note_on_c, 0, 53, 61
1, 325036, Note_on_c, 0, 58, 57
1, 325040, Note_on_c, 0, 62, 61
1, 325066, Note_off_c, 0, 53, 64
1, 325067, Note_off_c, 0, 58, 64
1, 325070, Note_off_c, 0, 62, 64
1, 325073, Note_on_c, 0, 43, 75
1, 325087, Note_off_c, 0, 31, 62
1, 325118, Note_off_c, 0, 43, 62
1, 325167, Note_on_c, 0, 32, 78
1, 325221, Note_on_c, 0, 50, 70
1, 325223, Note_on_c, 0, 44, 72
1, 325223, Note_on_c, 0, 53, 71
1, 325232, Note_off_c, 0, 32, 59
1, 325248, Note_off_c, 0, 53, 69
1, 325249, Note_off_c, 0, 50, 66
1, 325262, Note_off_c, 0, 44, 63
1, 325262, Control_c, 0, 64, 112
1, 325277, Control_c, 0, 64, 55
1, 325280, Note_on_c, 0, 53, 70
1, 325285, Note_on_c, 0, 58, 82
1, 325286, Note_on_c, 0, 50, 76
1, 325293, Control_c, 0, 64, 0
1, 325294, Note_on_c, 0, 33, 83
1, 325307, Note_off_c, 0, 53, 66
1, 325308, Note_off_c, 0, 50, 71
1, 325315, Note_off_c, 0, 58, 65
1, 325351, Note_off_c, 0, 33, 64
1, 325366, Note_on_c, 0, 45, 58
1, 325398, Note_off_c, 0, 45, 64
1, 325431, Note_on_c, 0, 32, 75
1, 325473, Note_off_c, 0, 32, 64
1, 325514, Note_on_c, 0, 44, 62
1, 325552, Note_off_c, 0, 44, 62
1, 325602, Note_on_c, 0, 31, 57
1, 325616, Note_on_c, 0, 58, 61
1, 325627, Note_on_c, 0, 53, 44
1, 325628, Note_on_c, 0, 50, 50
1, 325649, Note_off_c, 0, 31, 60
1, 325667, Note_on_c, 0, 43, 66
1, 325685, Control_c, 0, 64, 32
1, 325700, Control_c, 0, 64, 59
1, 325705, Note_off_c, 0, 43, 63
1, 325705, Note_off_c, 0, 53, 62
1, 325715, Control_c, 0, 64, 68
1, 325722, Note_off_c, 0, 58, 64
1, 325730, Control_c, 0, 64, 82
1, 325732, Note_off_c, 0, 50, 64
1, 325741, Note_on_c, 0, 29, 81
1, 325744, Control_c, 0, 64, 127
1, 325799, Note_off_c, 0, 29, 62
1, 325801, Note_on_c, 0, 41, 82
1, 325847, Note_off_c, 0, 41, 64
1, 325884, Note_on_c, 0, 31, 83
1, 325884, Note_on_c, 0, 58, 91
1, 325884, Note_on_c, 0, 62, 83
1, 325887, Note_on_c, 0, 65, 83
1, 325932, Note_off_c, 0, 62, 63
1, 325934, Note_on_c, 0, 43, 84
1, 325935, Note_off_c, 0, 65, 62
1, 325939, Note_off_c, 0, 58, 60
1, 325946, Note_off_c, 0, 31, 64
1, 325999, Note_off_c, 0, 43, 62
1, 326060, Note_on_c, 0, 32, 82
1, 326067, Note_on_c, 0, 53, 78
1, 326078, Note_on_c, 0, 44, 83
1, 326081, Note_on_c, 0, 58, 56
1, 326081, Note_on_c, 0, 62, 58
1, 326087, Control_c, 0, 64, 107
1, 326090, Note_off_c, 0, 53, 68
1, 326099, Note_off_c, 0, 62, 67
1, 326100, Note_off_c, 0, 58, 65
1, 326102, Control_c, 0, 64, 49
1, 326102, Note_off_c, 0, 32, 62
1, 326106, Note_off_c, 0, 44, 68
1, 326116, Control_c, 0, 64, 0
1, 326133, Note_on_c, 0, 52, 94
1, 326135, Note_on_c, 0, 61, 86
1, 326138, Note_on_c, 0, 57, 76
1, 326143, Note_on_c, 0, 45, 99
1, 326147, Note_on_c, 0, 33, 95
1, 326163, Note_off_c, 0, 52, 67
1, 326169, Note_on_c, 0, 58, 50
1, 326169, Note_off_c, 0, 58, 127
1, 326171, Note_off_c, 0, 57, 67
1, 326174, Control_c, 0, 64, 50
1, 326176, Note_off_c, 0, 33, 66
1, 326183, Note_off_c, 0, 45, 64
1, 326189, Control_c, 0, 64, 95
1, 326191, Note_off_c, 0, 61, 68
1, 326204, Control_c, 0, 64, 127
1, 326406, Note_on_c, 0, 57, 87
1, 326411, Note_on_c, 0, 64, 93
1, 326418, Note_on_c, 0, 45, 71
1, 326418, Note_on_c, 0, 52, 66
1, 326419, Control_c, 0, 64, 91
1, 326433, Control_c, 0, 64, 59
1, 326439, Poly_aftertouch_c, 0, 70, 0
1, 326448, Control_c, 0, 64, 55
1, 326463, Control_c, 0, 64, 69
1, 326478, Control_c, 0, 64, 106
1, 326491, Note_off_c, 0, 45, 57
1, 326492, Note_off_c, 0, 64, 66
1, 326493, Control_c, 0, 64, 127
1, 326495, Note_on_c, 0, 69, 85
1, 326496, Note_off_c, 0, 57, 56
1, 326513, Note_off_c, 0, 52, 59
1, 326581, Note_on_c, 0, 76, 88
1, 326581, Note_off_c, 0, 69, 62
1, 326584, Note_on_c, 0, 57, 91
1, 326588, Note_on_c, 0, 52, 77
1, 326589, Note_on_c, 0, 45, 86
1, 326621, Note_off_c, 0, 76, 66
1, 326666, Note_on_c, 0, 76, 85
1, 326670, Note_off_c, 0, 57, 61
1, 326671, Note_off_c, 0, 45, 58
1, 326701, Note_off_c, 0, 52, 60
1, 326745, Note_off_c, 0, 76, 48
1, 326745, Control_c, 0, 64, 94
1, 326750, Note_on_c, 0, 81, 95
1, 326759, Note_on_c, 0, 57, 103
1, 326760, Control_c, 0, 64, 65
1, 326761, Note_on_c, 0, 52, 79
1, 326769, Note_on_c, 0, 45, 87
1, 326775, Control_c, 0, 64, 63
1, 326790, Control_c, 0, 64, 79
1, 326805, Control_c, 0, 64, 127
1, 326811, Note_on_c, 0, 88, 87
1, 326813, Note_off_c, 0, 81, 65
1, 326851, Note_off_c, 0, 57, 61
1, 326862, Note_off_c, 0, 45, 60
1, 326882, Note_on_c, 0, 81, 90
1, 326890, Note_off_c, 0, 88, 64
1, 326895, Note_off_c, 0, 52, 55
1, 326934, Note_off_c, 0, 81, 64
1, 326949, Note_on_c, 0, 76, 79
1, 326978, Note_off_c, 0, 76, 71
1, 327046, Note_on_c, 0, 57, 77
1, 327047, Note_on_c, 0, 76, 87
1, 327050, Note_on_c, 0, 52, 65
1, 327060, Note_on_c, 0, 45, 62
1, 327103, Note_on_c, 0, 69, 83
1, 327105, Note_off_c, 0, 57, 59
1, 327124, Note_off_c, 0, 45, 57
1, 327133, Note_off_c, 0, 52, 51
1, 327138, Note_off_c, 0, 76, 58
1, 327154, Control_c, 0, 64, 72
1, 327160, Note_off_c, 0, 69, 62
1, 327169, Control_c, 0, 64, 31
1, 327173, Note_on_c, 0, 64, 86
1, 327183, Control_c, 0, 64, 0
1, 327184, Note_on_c, 0, 52, 73
1, 327187, Note_on_c, 0, 57, 91
1, 327190, Note_on_c, 0, 45, 72
1, 327198, Control_c, 0, 64, 52
1, 327211, Note_off_c, 0, 57, 71
1, 327213, Control_c, 0, 64, 70
1, 327218, Note_off_c, 0, 52, 66
1, 327219, Note_off_c, 0, 45, 63
1, 327228, Control_c, 0, 64, 127
1, 327241, Note_off_c, 0, 64, 66
1, 327248, Note_on_c, 0, 69, 84
1, 327315, Note_off_c, 0, 69, 63
1, 327316, Note_on_c, 0, 76, 88
1, 327356, Note_off_c, 0, 76, 66
1, 327401, Note_on_c, 0, 76, 84
1, 327455, Note_on_c, 0, 69, 64
1, 327455, Note_off_c, 0, 76, 60
1, 327461, Note_on_c, 0, 64, 61
1, 327463, Note_on_c, 0, 57, 58
1, 327464, Note_on_c, 0, 81, 90
1, 327489, Note_off_c, 0, 69, 61
1, 327506, Note_off_c, 0, 57, 54
1, 327506, Note_off_c, 0, 64, 55
1, 327533, Note_off_c, 0, 81, 66
1, 327537, Note_on_c, 0, 88, 81
1, 327579, Note_off_c, 0, 88, 65
1, 327607, Note_on_c, 0, 88, 76
1, 327609, Note_on_c, 0, 69, 81
1, 327615, Note_on_c, 0, 64, 75
1, 327616, Note_on_c, 0, 57, 72
1, 327641, Note_off_c, 0, 69, 63
1, 327670, Note_off_c, 0, 64, 64
1, 327681, Note_on_c, 0, 93, 97
1, 327684, Note_off_c, 0, 57, 61
1, 327726, Note_off_c, 0, 88, 63
1, 327750, Note_on_c, 0, 100, 107
1, 327771, Note_off_c, 0, 93, 66
1, 327783, Note_off_c, 0, 100, 69
1, 327962, Control_c, 0, 64, 85
1, 327977, Control_c, 0, 64, 62
1, 327992, Control_c, 0, 64, 0
1, 328062, Note_on_c, 0, 69, 59
1, 328066, Control_c, 0, 64, 30
1, 328068, Note_on_c, 0, 61, 52
1, 328069, Note_on_c, 0, 64, 52
1, 328070, Note_on_c, 0, 33, 56
1, 328081, Control_c, 0, 64, 51
1, 328095, Control_c, 0, 64, 65
1, 328110, Control_c, 0, 64, 72
1, 328116, Note_off_c, 0, 33, 60
1, 328125, Control_c, 0, 64, 80
1, 328139, Control_c, 0, 64, 87
1, 328150, Note_off_c, 0, 61, 63
1, 328154, Control_c, 0, 64, 96
1, 328160, Note_on_c, 0, 45, 58
1, 328169, Control_c, 0, 64, 119
1, 328184, Control_c, 0, 64, 127
1, 328195, Note_off_c, 0, 45, 63
1, 328201, Note_off_c, 0, 69, 37
1, 328223, Note_on_c, 0, 70, 68
1, 328228, Note_on_c, 0, 62, 63
1, 328229, Note_on_c, 0, 33, 65
1, 328229, Note_on_c, 0, 65, 64
1, 328243, Control_c, 0, 64, 110
1, 328248, Note_off_c, 0, 64, 59
1, 328248, Note_off_c, 0, 70, 69
1, 328257, Note_off_c, 0, 62, 65
1, 328257, Note_off_c, 0, 65, 66
1, 328258, Control_c, 0, 64, 66
1, 328260, Note_off_c, 0, 33, 65
1, 328273, Control_c, 0, 64, 0
1, 328293, Note_on_c, 0, 45, 57
1, 328322, Note_off_c, 0, 45, 60
1, 328356, Note_on_c, 0, 32, 73
1, 328400, Note_off_c, 0, 32, 61
1, 328430, Note_on_c, 0, 44, 56
1, 328483, Note_off_c, 0, 44, 61
1, 328558, Note_on_c, 0, 31, 39
1, 328560, Note_on_c, 0, 70, 56
1, 328570, Note_on_c, 0, 58, 45
1, 328572, Note_on_c, 0, 65, 44
1, 328583, Note_on_c, 0, 62, 35
1, 328593, Control_c, 0, 64, 41
1, 328605, Note_off_c, 0, 31, 49
1, 328608, Control_c, 0, 64, 53
1, 328623, Control_c, 0, 64, 59
1, 328629, Note_on_c, 0, 43, 50
1, 328637, Control_c, 0, 64, 63
1, 328652, Note_off_c, 0, 62, 59
1, 328652, Control_c, 0, 64, 67
1, 328657, Note_off_c, 0, 43, 60
1, 328662, Note_off_c, 0, 58, 63
1, 328667, Control_c, 0, 64, 71
1, 328674, Note_off_c, 0, 65, 62
1, 328682, Control_c, 0, 64, 76
1, 328697, Control_c, 0, 64, 80
1, 328701, Note_on_c, 0, 29, 70
1, 328711, Control_c, 0, 64, 86
1, 328723, Note_off_c, 0, 70, 63
1, 328726, Control_c, 0, 64, 94
1, 328741, Control_c, 0, 64, 105
1, 328756, Control_c, 0, 64, 127
1, 328762, Note_off_c, 0, 29, 62
1, 328765, Note_on_c, 0, 41, 67
1, 328809, Note_off_c, 0, 41, 64
1, 328844, Note_on_c, 0, 70, 74
1, 328853, Note_on_c, 0, 74, 72
1, 328855, Note_on_c, 0, 31, 72
1, 328855, Note_on_c, 0, 62, 72
1, 328858, Note_on_c, 0, 65, 61
1, 328876, Note_off_c, 0, 74, 70
1, 328883, Note_off_c, 0, 62, 65
1, 328889, Note_off_c, 0, 65, 65
1, 328892, Note_off_c, 0, 70, 61
1, 328908, Note_on_c, 0, 43, 71
1, 328915, Note_off_c, 0, 31, 63
1, 328952, Note_off_c, 0, 43, 63
1, 328996, Note_on_c, 0, 32, 79
1, 329053, Note_on_c, 0, 58, 74
1, 329055, Note_on_c, 0, 62, 69
1, 329059, Note_on_c, 0, 65, 64
1, 329062, Note_on_c, 0, 44, 72
1, 329067, Note_off_c, 0, 32, 58
1, 329078, Note_off_c, 0, 58, 67
1, 329080, Note_off_c, 0, 62, 67
1, 329097, Note_off_c, 0, 65, 0
1, 329101, Note_off_c, 0, 44, 64
1, 329111, Control_c, 0, 64, 89
1, 329118, Note_on_c, 0, 58, 94
1, 329119, Note_on_c, 0, 70, 80
1, 329126, Note_on_c, 0, 62, 78
1, 329126, Control_c, 0, 64, 50
1, 329133, Poly_aftertouch_c, 0, 65, 127
1, 329136, Note_on_c, 0, 33, 82
1, 329137, Note_off_c, 0, 58, 70
1, 329141, Control_c, 0, 64, 0
1, 329146, Note_off_c, 0, 62, 72
1, 329147, Poly_aftertouch_c, 0, 65, 0
1, 329148, Note_off_c, 0, 70, 63
1, 329190, Note_off_c, 0, 33, 61
1, 329211, Note_on_c, 0, 45, 72
1, 329242, Note_off_c, 0, 45, 64
1, 329283, Note_on_c, 0, 32, 77
1, 329326, Note_off_c, 0, 32, 60
1, 329352, Note_on_c, 0, 44, 64
1, 329392, Note_off_c, 0, 44, 63
1, 329436, Note_on_c, 0, 31, 66
1, 329443, Note_on_c, 0, 70, 67
1, 329447, Note_on_c, 0, 58, 64
1, 329454, Note_on_c, 0, 65, 57
1, 329457, Note_on_c, 0, 62, 53
1, 329485, Note_off_c, 0, 31, 61
1, 329490, Control_c, 0, 64, 53
1, 329495, Note_on_c, 0, 43, 72
1, 329505, Control_c, 0, 64, 67
1, 329514, Note_off_c, 0, 58, 63
1, 329515, Note_off_c, 0, 62, 61
1, 329520, Control_c, 0, 64, 79
1, 329523, Note_off_c, 0, 65, 63
1, 329529, Note_off_c, 0, 43, 67
1, 329534, Control_c, 0, 64, 104
1, 329549, Control_c, 0, 64, 127
1, 329557, Note_off_c, 0, 70, 64
1, 329570, Note_on_c, 0, 29, 84
1, 329628, Note_on_c, 0, 41, 86
1, 329630, Note_off_c, 0, 29, 63
1, 329682, Note_off_c, 0, 41, 65
1, 329718, Note_on_c, 0, 74, 92
1, 329718, Note_on_c, 0, 77, 96
1, 329721, Note_on_c, 0, 65, 96
1, 329721, Note_on_c, 0, 70, 93
1, 329721, Note_on_c, 0, 31, 86
1, 329769, Note_off_c, 0, 65, 52
1, 329770, Note_on_c, 0, 43, 85
1, 329773, Note_off_c, 0, 74, 61
1, 329775, Note_off_c, 0, 70, 58
1, 329777, Note_off_c, 0, 77, 62
1, 329786, Note_off_c, 0, 31, 63
1, 329837, Note_off_c, 0, 43, 63
1, 329902, Note_on_c, 0, 32, 80
1, 329916, Note_on_c, 0, 44, 81
1, 329931, Note_on_c, 0, 74, 80
1, 329935, Note_on_c, 0, 65, 69
1, 329937, Note_on_c, 0, 70, 65
1, 329947, Note_off_c, 0, 32, 61
1, 329951, Note_off_c, 0, 65, 69
1, 329960, Note_off_c, 0, 74, 69
1, 329962, Note_off_c, 0, 44, 61
1, 329965, Note_off_c, 0, 70, 70
1, 329971, Control_c, 0, 64, 119
1, 329985, Control_c, 0, 64, 52
1, 329997, Note_on_c, 0, 73, 97
1, 330000, Control_c, 0, 64, 0
1, 330001, Note_on_c, 0, 45, 105
1, 330003, Note_on_c, 0, 64, 91
1, 330008, Note_on_c, 0, 69, 80
1, 330009, Note_on_c, 0, 33, 97
1, 330031, Note_on_c, 0, 70, 59
1, 330051, Note_on_c, 0, 34, 38
1, 330055, Note_off_c, 0, 70, 57
1, 330072, Note_off_c, 0, 33, 63
1, 330090, Control_c, 0, 64, 59
1, 330096, Note_off_c, 0, 45, 64
1, 330097, Note_off_c, 0, 34, 30
1, 330105, Control_c, 0, 64, 127
1, 330111, Note_off_c, 0, 64, 64
1, 330151, Note_off_c, 0, 69, 57
1, 330232, Note_off_c, 0, 73, 53
1, 330297, Control_c, 0, 64, 106
1, 330312, Control_c, 0, 64, 60
1, 330326, Control_c, 0, 64, 45
1, 330341, Note_on_c, 0, 57, 86
1, 330341, Control_c, 0, 64, 60
1, 330344, Note_on_c, 0, 64, 91
1, 330344, Note_on_c, 0, 45, 75
1, 330351, Note_on_c, 0, 52, 76
1, 330356, Control_c, 0, 64, 78
1, 330371, Control_c, 0, 64, 127
1, 330409, Note_off_c, 0, 64, 61
1, 330418, Note_off_c, 0, 57, 57
1, 330424, Note_on_c, 0, 69, 85
1, 330428, Note_off_c, 0, 45, 62
1, 330449, Note_off_c, 0, 52, 59
1, 330489, Note_off_c, 0, 69, 62
1, 330490, Control_c, 0, 64, 76
1, 330502, Note_on_c, 0, 76, 76
1, 330505, Control_c, 0, 64, 0
1, 330527, Note_off_c, 0, 76, 66
1, 330534, Control_c, 0, 64, 31
1, 330540, Note_on_c, 0, 45, 73
1, 330542, Note_on_c, 0, 57, 94
1, 330546, Note_on_c, 0, 52, 76
1, 330549, Control_c, 0, 64, 58
1, 330564, Control_c, 0, 64, 77
1, 330564, Note_off_c, 0, 45, 66
1, 330567, Note_off_c, 0, 52, 67
1, 330570, Note_on_c, 0, 76, 84
1, 330576, Note_off_c, 0, 57, 64
1, 330579, Control_c, 0, 64, 127
1, 330634, Note_off_c, 0, 76, 61
1, 330640, Note_on_c, 0, 81, 87
1, 330710, Note_off_c, 0, 81, 65
1, 330720, Note_on_c, 0, 88, 75
1, 330759, Note_off_c, 0, 88, 63
1, 330796, Note_on_c, 0, 88, 76
1, 330830, Note_on_c, 0, 64, 57
1, 330835, Note_on_c, 0, 69, 64
1, 330846, Note_on_c, 0, 57, 41
1, 330859, Note_on_c, 0, 93, 88
1, 330873, Note_off_c, 0, 88, 58
1, 330874, Note_off_c, 0, 57, 54
1, 330876, Note_off_c, 0, 69, 59
1, 330876, Note_off_c, 0, 64, 63
1, 330910, Note_on_c, 0, 100, 85
1, 330957, Note_off_c, 0, 93, 55
1, 330964, Note_off_c, 0, 100, 68
1, 331002, Control_c, 0, 64, 69
1, 331011, Note_on_c, 0, 96, 90
1, 331012, Note_on_c, 0, 57, 88
1, 331014, Note_on_c, 0, 69, 93
1, 331014, Note_on_c, 0, 89, 92
1, 331014, Note_on_c, 0, 93, 82
1, 331014, Note_on_c, 0, 65, 90
1, 331015, Note_on_c, 0, 101, 107
1, 331017, Control_c, 0, 64, 0
1, 331030, Note_off_c, 0, 69, 71
1, 331035, Note_off_c, 0, 89, 66
1, 331042, Note_off_c, 0, 93, 63
1, 331042, Note_off_c, 0, 65, 67
1, 331044, Note_off_c, 0, 101, 66
1, 331046, Control_c, 0, 64, 39
1, 331050, Note_off_c, 0, 96, 68
1, 331059, Note_off_c, 0, 57, 65
1, 331061, Control_c, 0, 64, 64
1, 331076, Control_c, 0, 64, 88
1, 331091, Control_c, 0, 64, 127
1, 331268, Control_c, 0, 64, 119
1, 331283, Control_c, 0, 64, 69
1, 331296, Note_on_c, 0, 65, 74
1, 331298, Control_c, 0, 64, 61
1, 331305, Note_on_c, 0, 53, 64
1, 331310, Note_on_c, 0, 57, 76
1, 331313, Control_c, 0, 64, 70
1, 331315, Note_on_c, 0, 69, 66
1, 331316, Note_on_c, 0, 45, 71
1, 331327, Note_on_c, 0, 72, 63
1, 331327, Control_c, 0, 64, 93
1, 331342, Control_c, 0, 64, 127
1, 331344, Note_off_c, 0, 65, 63
1, 331366, Note_on_c, 0, 77, 86
1, 331369, Note_off_c, 0, 69, 63
1, 331381, Note_off_c, 0, 57, 58
1, 331381, Note_off_c, 0, 72, 63
1, 331395, Note_off_c, 0, 45, 60
1, 331400, Note_off_c, 0, 53, 61
1, 331408, Note_off_c, 0, 77, 63
1, 331432, Control_c, 0, 64, 75
1, 331447, Control_c, 0, 64, 36
1, 331469, Control_c, 0, 64, 0
1, 331475, Note_on_c, 0, 57, 105
1, 331480, Note_on_c, 0, 51, 92
1, 331480, Note_on_c, 0, 78, 93
1, 331482, Note_on_c, 0, 54, 87
1, 331484, Control_c, 0, 64, 42
1, 331488, Note_on_c, 0, 45, 80
1, 331499, Control_c, 0, 64, 62
1, 331500, Note_off_c, 0, 57, 66
1, 331509, Note_off_c, 0, 45, 68
1, 331513, Control_c, 0, 64, 86
1, 331519, Note_off_c, 0, 54, 61
1, 331520, Note_off_c, 0, 51, 65
1, 331528, Control_c, 0, 64, 127
1, 331550, Note_on_c, 0, 84, 80
1, 331566, Note_off_c, 0, 78, 58
1, 331617, Note_off_c, 0, 84, 65
1, 331618, Note_on_c, 0, 90, 80
1, 331650, Note_off_c, 0, 90, 63
1, 331701, Note_on_c, 0, 90, 80
1, 331772, Note_on_c, 0, 96, 77
1, 331783, Note_on_c, 0, 69, 80
1, 331791, Note_on_c, 0, 63, 70
1, 331792, Note_on_c, 0, 57, 70
1, 331798, Note_on_c, 0, 66, 63
1, 331800, Note_off_c, 0, 90, 49
1, 331821, Note_off_c, 0, 69, 52
1, 331829, Note_off_c, 0, 66, 64
1, 331837, Note_on_c, 0, 102, 78
1, 331846, Note_off_c, 0, 57, 57
1, 331852, Note_off_c, 0, 96, 67
1, 331852, Note_off_c, 0, 63, 60
1, 331886, Note_off_c, 0, 102, 67
1, 331915, Control_c, 0, 64, 63
1, 331929, Control_c, 0, 64, 0
1, 331936, Note_on_c, 0, 69, 96
1, 331937, Note_on_c, 0, 64, 95
1, 331939, Note_on_c, 0, 105, 107
1, 331942, Note_on_c, 0, 57, 90
1, 331942, Note_on_c, 0, 91, 99
1, 331944, Note_on_c, 0, 97, 101
1, 331956, Note_on_c, 0, 93, 75
1, 331957, Note_on_c, 0, 102, 66
1, 331959, Note_off_c, 0, 105, 69
1, 331960, Note_off_c, 0, 69, 66
1, 331966, Note_off_c, 0, 91, 67
1, 331971, Note_off_c, 0, 93, 42
1, 331974, Note_off_c, 0, 102, 64
1, 331974, Note_off_c, 0, 64, 68
1, 331980, Note_on_c, 0, 98, 48
1, 331980, Note_off_c, 0, 98, 127
1, 331980, Note_off_c, 0, 57, 67
1, 331987, Note_off_c, 0, 97, 60
1, 331988, Control_c, 0, 64, 36
1, 332003, Control_c, 0, 64, 70
1, 332018, Control_c, 0, 64, 127
1, 332228, Note_on_c, 0, 64, 77
1, 332238, Note_on_c, 0, 57, 76
1, 332241, Note_on_c, 0, 52, 76
1, 332243, Note_on_c, 0, 45, 68
1, 332272, Note_off_c, 0, 64, 64
1, 332277, Note_off_c, 0, 57, 64
1, 332279, Note_off_c, 0, 45, 63
1, 332281, Note_on_c, 0, 69, 67
1, 332289, Note_off_c, 0, 52, 57
1, 332305, Control_c, 0, 64, 112
1, 332315, Note_off_c, 0, 69, 64
1, 332320, Control_c, 0, 64, 65
1, 332325, Note_on_c, 0, 76, 68
1, 332335, Control_c, 0, 64, 0
1, 332349, Note_off_c, 0, 76, 71
1, 332365, Control_c, 0, 64, 49
1, 332374, Note_on_c, 0, 45, 75
1, 332374, Note_on_c, 0, 57, 91
1, 332376, Note_on_c, 0, 52, 88
1, 332379, Control_c, 0, 64, 64
1, 332386, Note_on_c, 0, 76, 91
1, 332394, Control_c, 0, 64, 78
1, 332396, Note_off_c, 0, 45, 65
1, 332397, Note_off_c, 0, 57, 70
1, 332398, Note_off_c, 0, 52, 71
1, 332409, Control_c, 0, 64, 127
1, 332457, Note_on_c, 0, 81, 85
1, 332462, Note_off_c, 0, 76, 61
1, 332526, Note_on_c, 0, 88, 83
1, 332526, Note_off_c, 0, 81, 66
1, 332567, Note_off_c, 0, 88, 65
1, 332611, Note_on_c, 0, 88, 83
1, 332633, Note_on_c, 0, 69, 72
1, 332639, Note_on_c, 0, 64, 65
1, 332643, Note_on_c, 0, 57, 62
1, 332675, Note_off_c, 0, 64, 61
1, 332678, Note_on_c, 0, 93, 76
1, 332678, Note_off_c, 0, 88, 61
1, 332678, Note_off_c, 0, 69, 59
1, 332680, Note_off_c, 0, 57, 57
1, 332710, Note_on_c, 0, 100, 80
1, 332750, Note_off_c, 0, 100, 68
1, 332765, Note_off_c, 0, 93, 64
1, 332794, Note_on_c, 0, 96, 67
1, 332794, Control_c, 0, 64, 68
1, 332801, Note_on_c, 0, 101, 101
1, 332802, Note_on_c, 0, 69, 91
1, 332803, Note_on_c, 0, 65, 90
1, 332805, Note_on_c, 0, 57, 83
1, 332808, Note_on_c, 0, 89, 99
1, 332809, Control_c, 0, 64, 0
1, 332812, Note_on_c, 0, 93, 77
1, 332818, Note_on_c, 0, 99, 73
1, 332823, Note_off_c, 0, 69, 66
1, 332833, Note_off_c, 0, 89, 68
1, 332835, Note_off_c, 0, 101, 70
1, 332839, Note_off_c, 0, 65, 66
1, 332839, Control_c, 0, 64, 52
1, 332845, Note_off_c, 0, 99, 67
1, 332848, Note_off_c, 0, 57, 67
1, 332851, Note_off_c, 0, 96, 68
1, 332854, Note_off_c, 0, 93, 61
1, 332854, Control_c, 0, 64, 72
1, 332869, Control_c, 0, 64, 127
1, 333054, Control_c, 0, 64, 97
1, 333069, Control_c, 0, 64, 60
1, 333083, Control_c, 0, 64, 51
1, 333091, Note_on_c, 0, 53, 41
1, 333095, Note_on_c, 0, 57, 82
1, 333098, Note_on_c, 0, 65, 77
1, 333098, Control_c, 0, 64, 64
1, 333101, Note_on_c, 0, 45, 71
1, 333113, Control_c, 0, 64, 86
1, 333117, Note_on_c, 0, 69, 69
1, 333125, Note_off_c, 0, 65, 68
1, 333128, Control_c, 0, 64, 127
1, 333132, Note_on_c, 0, 72, 61
1, 333138, Note_off_c, 0, 53, 64
1, 333154, Note_off_c, 0, 57, 62
1, 333162, Note_off_c, 0, 69, 61
1, 333169, Note_on_c, 0, 77, 85
1, 333179, Note_off_c, 0, 72, 63
1, 333183, Note_off_c, 0, 45, 61
1, 333197, Note_off_c, 0, 77, 61
1, 333202, Control_c, 0, 64, 80
1, 333217, Control_c, 0, 64, 53
1, 333232, Control_c, 0, 64, 0
1, 333247, Control_c, 0, 64, 33
1, 333249, Note_on_c, 0, 57, 102
1, 333253, Note_on_c, 0, 51, 94
1, 333254, Note_on_c, 0, 54, 86
1, 333258, Note_on_c, 0, 78, 96
1, 333259, Note_on_c, 0, 45, 74
1, 333262, Control_c, 0, 64, 52
1, 333265, Note_off_c, 0, 57, 76
1, 333277, Control_c, 0, 64, 63
1, 333279, Note_off_c, 0, 54, 67
1, 333280, Note_off_c, 0, 51, 66
1, 333286, Note_off_c, 0, 45, 64
1, 333292, Control_c, 0, 64, 71
1, 333307, Control_c, 0, 64, 91
1, 333322, Control_c, 0, 64, 127
1, 333331, Note_on_c, 0, 84, 74
1, 333343, Note_off_c, 0, 78, 57
1, 333396, Note_off_c, 0, 84, 65
1, 333397, Note_on_c, 0, 90, 78
1, 333436, Note_off_c, 0, 90, 64
1, 333475, Poly_aftertouch_c, 0, 90, 0
1, 333480, Note_on_c, 0, 90, 72
1, 333524, Note_off_c, 0, 90, 65
1, 333539, Note_on_c, 0, 69, 68
1, 333542, Note_on_c, 0, 96, 83
1, 333554, Note_on_c, 0, 63, 58
1, 333557, Note_on_c, 0, 57, 47
1, 333568, Note_on_c, 0, 66, 34
1, 333569, Note_off_c, 0, 69, 65
1, 333587, Note_off_c, 0, 63, 65
1, 333597, Note_off_c, 0, 57, 53
1, 333605, Note_off_c, 0, 66, 46
1, 333623, Note_on_c, 0, 102, 86
1, 333623, Note_off_c, 0, 96, 65
1, 333673, Note_off_c, 0, 102, 66
1, 333677, Control_c, 0, 64, 82
1, 333692, Control_c, 0, 64, 43
1, 333714, Note_on_c, 0, 69, 102
1, 333714, Control_c, 0, 64, 0
1, 333715, Note_on_c, 0, 105, 101
1, 333716, Note_on_c, 0, 64, 89
1, 333718, Note_on_c, 0, 61, 83
1, 333722, Note_on_c, 0, 57, 83
1, 333758, Control_c, 0, 64, 51
1, 333773, Control_c, 0, 64, 68
1, 333782, Note_off_c, 0, 105, 66
1, 333788, Control_c, 0, 64, 96
1, 333791, Note_on_c, 0, 97, 86
1, 333803, Control_c, 0, 64, 127
1, 333846, Note_off_c, 0, 97, 65
1, 333858, Note_on_c, 0, 91, 79
1, 333887, Note_off_c, 0, 91, 67
1, 333903, Note_off_c, 0, 57, 62
1, 333915, Note_off_c, 0, 69, 59
1, 333917, Note_off_c, 0, 64, 63
1, 333924, Note_off_c, 0, 61, 64
1, 333963, Note_on_c, 0, 93, 58
1, 333986, Note_on_c, 0, 91, 58
1, 334010, Note_on_c, 0, 85, 60
1, 334012, Note_off_c, 0, 91, 54
1, 334034, Note_on_c, 0, 84, 57
1, 334034, Note_off_c, 0, 85, 55
1, 334049, Note_off_c, 0, 93, 37
1, 334053, Note_off_c, 0, 84, 64
1, 334073, Note_on_c, 0, 79, 76
1, 334128, Note_off_c, 0, 79, 63
1, 334129, Control_c, 0, 64, 69
1, 334144, Control_c, 0, 64, 0
1, 334147, Note_on_c, 0, 69, 103
1, 334147, Note_on_c, 0, 66, 94
1, 334150, Note_on_c, 0, 90, 90
1, 334152, Note_on_c, 0, 63, 90
1, 334153, Note_on_c, 0, 57, 79
1, 334189, Control_c, 0, 64, 37
1, 334204, Control_c, 0, 64, 60
1, 334213, Note_on_c, 0, 84, 72
1, 334219, Control_c, 0, 64, 73
1, 334229, Note_off_c, 0, 90, 64
1, 334234, Control_c, 0, 64, 101
1, 334248, Control_c, 0, 64, 127
1, 334272, Note_off_c, 0, 84, 67
1, 334281, Note_on_c, 0, 81, 78
1, 334299, Note_off_c, 0, 69, 59
1, 334299, Note_off_c, 0, 81, 73
1, 334308, Note_off_c, 0, 57, 63
1, 334327, Note_off_c, 0, 66, 61
1, 334329, Note_off_c, 0, 63, 62
1, 334392, Note_on_c, 0, 77, 72
1, 334432, Note_on_c, 0, 72, 73
1, 334451, Note_off_c, 0, 77, 62
1, 334511, Note_on_c, 0, 69, 79
1, 334514, Note_off_c, 0, 72, 62
1, 334538, Note_off_c, 0, 69, 65
1, 334538, Control_c, 0, 64, 85
1, 334553, Control_c, 0, 64, 46
1, 334568, Control_c, 0, 64, 0
1, 334576, Note_on_c, 0, 69, 90
1, 334578, Note_on_c, 0, 57, 84
1, 334579, Note_on_c, 0, 81, 99
1, 334580, Note_on_c, 0, 64, 92
1, 334584, Note_on_c, 0, 61, 77
1, 334597, Control_c, 0, 64, 29
1, 334606, Note_off_c, 0, 69, 66
1, 334612, Control_c, 0, 64, 61
1, 334625, Note_off_c, 0, 57, 65
1, 334627, Note_off_c, 0, 64, 67
1, 334627, Control_c, 0, 64, 84
1, 334637, Note_off_c, 0, 61, 65
1, 334642, Control_c, 0, 64, 127
1, 334651, Note_on_c, 0, 73, 88
1, 334653, Note_off_c, 0, 81, 62
1, 334708, Note_off_c, 0, 73, 63
1, 334721, Note_on_c, 0, 67, 77
1, 334758, Note_off_c, 0, 67, 62
1, 334812, Note_on_c, 0, 69, 75
1, 334868, Note_on_c, 0, 61, 71
1, 334870, Note_off_c, 0, 69, 58
1, 334907, Note_off_c, 0, 61, 62
1, 334928, Note_on_c, 0, 55, 80
1, 334968, Control_c, 0, 64, 68
1, 334976, Note_off_c, 0, 55, 65
1, 334983, Control_c, 0, 64, 0
1, 335005, Note_on_c, 0, 57, 88
1, 335007, Note_on_c, 0, 45, 78
1, 335009, Note_on_c, 0, 54, 76
1, 335012, Note_on_c, 0, 60, 78
1, 335015, Note_on_c, 0, 51, 77
1, 335027, Control_c, 0, 64, 44
1, 335042, Control_c, 0, 64, 64
1, 335052, Note_off_c, 0, 57, 65
1, 335057, Control_c, 0, 64, 96
1, 335063, Note_off_c, 0, 51, 51
1, 335065, Note_off_c, 0, 54, 61
1, 335071, Note_off_c, 0, 45, 62
1, 335071, Control_c, 0, 64, 127
1, 335073, Note_off_c, 0, 60, 63
1, 335078, Note_on_c, 0, 66, 81
1, 335119, Note_off_c, 0, 66, 67
1, 335164, Note_on_c, 0, 57, 100
1, 335164, Note_on_c, 0, 69, 92
1, 335167, Note_on_c, 0, 54, 89
1, 335170, Note_on_c, 0, 51, 86
1, 335171, Note_on_c, 0, 45, 89
1, 335176, Control_c, 0, 64, 70
1, 335191, Control_c, 0, 64, 0
1, 335212, Control_c, 0, 64, 48
1, 335227, Control_c, 0, 64, 74
1, 335242, Control_c, 0, 64, 127
1, 335243, Note_on_c, 0, 72, 90
1, 335247, Note_off_c, 0, 57, 63
1, 335248, Note_off_c, 0, 45, 63
1, 335256, Note_off_c, 0, 69, 59
1, 335260, Note_off_c, 0, 54, 59
1, 335267, Note_off_c, 0, 51, 60
1, 335322, Note_off_c, 0, 72, 57
1, 335331, Control_c, 0, 64, 76
1, 335338, Note_on_c, 0, 78, 85
1, 335339, Note_on_c, 0, 57, 108
1, 335346, Note_on_c, 0, 54, 82
1, 335346, Control_c, 0, 64, 0
1, 335346, Note_on_c, 0, 51, 89
1, 335347, Note_on_c, 0, 45, 89
1, 335375, Control_c, 0, 64, 45
1, 335390, Control_c, 0, 64, 73
1, 335405, Control_c, 0, 64, 127
1, 335410, Note_on_c, 0, 81, 92
1, 335425, Note_off_c, 0, 54, 60
1, 335426, Note_off_c, 0, 57, 62
1, 335442, Note_off_c, 0, 78, 62
1, 335455, Note_off_c, 0, 45, 57
1, 335460, Note_off_c, 0, 51, 45
1, 335468, Note_off_c, 0, 81, 66
1, 335469, Poly_aftertouch_c, 0, 49, 0
1, 335553, Control_c, 0, 64, 63
1, 335568, Control_c, 0, 64, 0
1, 335596, Note_on_c, 0, 55, 105
1, 335599, Note_on_c, 0, 73, 100
1, 335600, Note_on_c, 0, 85, 99
1, 335601, Note_on_c, 0, 45, 92
1, 335602, Note_on_c, 0, 52, 94
1, 335612, Control_c, 0, 64, 58
1, 335621, Note_off_c, 0, 73, 68
1, 335622, Note_off_c, 0, 85, 68
1, 335627, Control_c, 0, 64, 95
1, 335642, Control_c, 0, 64, 127
1, 335649, Note_off_c, 0, 55, 64
1, 335667, Note_off_c, 0, 45, 63
1, 335683, Note_off_c, 0, 52, 64
1, 335820, Control_c, 0, 64, 98
1, 335835, Control_c, 0, 64, 68
1, 335850, Control_c, 0, 64, 49
1, 335865, Control_c, 0, 64, 29
1, 335880, Control_c, 0, 64, 0
1, 336113, Note_on_c, 0, 69, 91
1, 336114, Note_on_c, 0, 45, 96
1, 336115, Note_on_c, 0, 57, 96
1, 336118, Note_on_c, 0, 33, 97
1, 336124, Control_c, 0, 64, 67
1, 336139, Control_c, 0, 64, 127
1, 336150, Note_off_c, 0, 33, 62
1, 336154, Note_off_c, 0, 45, 66
1, 336166, Note_off_c, 0, 57, 64
1, 336174, Note_off_c, 0, 69, 62
1, 336267, Note_on_c, 0, 57, 95
1, 336268, Note_on_c, 0, 69, 101
1, 336270, Note_on_c, 0, 45, 99
1, 336273, Note_on_c, 0, 33, 91
1, 336298, Note_off_c, 0, 33, 69
1, 336303, Note_off_c, 0, 57, 68
1, 336309, Note_off_c, 0, 45, 66
1, 336316, Note_off_c, 0, 69, 66
1, 336346, Control_c, 0, 64, 82
1, 336361, Control_c, 0, 64, 49
1, 336376, Control_c, 0, 64, 0
1, 336388, Note_on_c, 0, 64, 98
1, 336390, Note_on_c, 0, 52, 102
1, 336391, Control_c, 0, 64, 54
1, 336392, Note_on_c, 0, 76, 104
1, 336395, Note_on_c, 0, 40, 91
1, 336406, Control_c, 0, 64, 71
1, 336414, Note_on_c, 0, 41, 66
1, 336420, Control_c, 0, 64, 105
1, 336421, Note_off_c, 0, 76, 71
1, 336422, Note_off_c, 0, 64, 72
1, 336425, Note_off_c, 0, 52, 68
1, 336432, Note_off_c, 0, 40, 67
1, 336435, Control_c, 0, 64, 127
1, 336437, Note_off_c, 0, 41, 64
1, 336569, Control_c, 0, 64, 90
1, 336583, Note_on_c, 0, 49, 96
1, 336584, Control_c, 0, 64, 50
1, 336586, Note_on_c, 0, 61, 87
1, 336589, Note_on_c, 0, 37, 89
1, 336598, Note_on_c, 0, 73, 64
1, 336598, Note_off_c, 0, 73, 127
1, 336599, Control_c, 0, 64, 0
1, 336603, Note_off_c, 0, 49, 73
1, 336605, Note_off_c, 0, 61, 71
1, 336611, Note_off_c, 0, 37, 70
1, 336613, Control_c, 0, 64, 34
1, 336628, Control_c, 0, 64, 65
1, 336642, Control_c, 0, 64, 127
1, 336649, Note_on_c, 0, 57, 106
1, 336651, Note_on_c, 0, 69, 102
1, 336656, Note_on_c, 0, 45, 111
1, 336660, Note_on_c, 0, 33, 101
1, 336678, Note_on_c, 0, 68, 46
1, 336704, Note_on_c, 0, 61, 7
1, 336705, Note_off_c, 0, 33, 65
1, 336705, Note_off_c, 0, 45, 65
1, 336710, Note_off_c, 0, 57, 66
1, 336710, Note_off_c, 0, 68, 58
1, 336711, Note_off_c, 0, 69, 66
1, 336723, Note_off_c, 0, 61, 0
1, 336756, Poly_aftertouch_c, 0, 61, 0
1, 336783, Control_c, 0, 64, 105
1, 336798, Control_c, 0, 64, 60
1, 336813, Control_c, 0, 64, 0
1, 337295, Note_on_c, 0, 69, 96
1, 337297, Note_on_c, 0, 57, 97
1, 337300, Note_on_c, 0, 45, 98
1, 337302, Note_on_c, 0, 33, 94
1, 337317, Control_c, 0, 64, 32
1, 337332, Control_c, 0, 64, 98
1, 337336, Note_off_c, 0, 33, 64
1, 337337, Note_off_c, 0, 45, 66
1, 337343, Note_off_c, 0, 57, 67
1, 337347, Note_off_c, 0, 69, 63
1, 337347, Control_c, 0, 64, 127
1, 337480, Note_on_c, 0, 57, 99
1, 337482, Note_on_c, 0, 45, 96
1, 337482, Note_on_c, 0, 69, 103
1, 337486, Note_on_c, 0, 33, 95
1, 337504, Note_off_c, 0, 33, 74
1, 337507, Note_off_c, 0, 57, 64
1, 337522, Note_off_c, 0, 45, 63
1, 337525, Note_off_c, 0, 69, 67
1, 337636, Control_c, 0, 64, 69
1, 337651, Control_c, 0, 64, 0
1, 337660, Note_on_c, 0, 55, 96
1, 337662, Note_on_c, 0, 67, 103
1, 337662, Note_on_c, 0, 79, 95
1, 337664, Note_on_c, 0, 43, 94
1, 337680, Control_c, 0, 64, 48
1, 337692, Note_off_c, 0, 55, 67
1, 337694, Note_off_c, 0, 79, 70
1, 337695, Note_off_c, 0, 43, 66
1, 337695, Control_c, 0, 64, 68
1, 337697, Note_off_c, 0, 67, 69
1, 337710, Control_c, 0, 64, 94
1, 337724, Control_c, 0, 64, 127
1, 337864, Note_on_c, 0, 52, 92
1, 337864, Note_on_c, 0, 76, 81
1, 337868, Note_on_c, 0, 64, 74
1, 337873, Note_on_c, 0, 40, 84
1, 337873, Control_c, 0, 64, 67
1, 337881, Note_off_c, 0, 76, 73
1, 337888, Control_c, 0, 64, 0
1, 337890, Note_off_c, 0, 52, 67
1, 337892, Note_off_c, 0, 64, 70
1, 337897, Note_off_c, 0, 40, 66
1, 337917, Control_c, 0, 64, 44
1, 337932, Control_c, 0, 64, 63
1, 337938, Note_on_c, 0, 61, 91
1, 337944, Note_on_c, 0, 73, 81
1, 337947, Control_c, 0, 64, 88
1, 337948, Note_on_c, 0, 49, 102
1, 337957, Note_on_c, 0, 37, 95
1, 337962, Note_off_c, 0, 61, 66
1, 337962, Control_c, 0, 64, 127
1, 337983, Note_off_c, 0, 49, 67
1, 337984, Note_off_c, 0, 37, 71
1, 337990, Note_off_c, 0, 73, 62
1, 338050, Control_c, 0, 64, 85
1, 338067, Control_c, 0, 64, 58
1, 338096, Control_c, 0, 64, 75
1, 338100, Note_on_c, 0, 59, 105
1, 338100, Note_on_c, 0, 71, 110
1, 338100, Note_on_c, 0, 83, 105
1, 338105, Note_on_c, 0, 47, 94
1, 338112, Control_c, 0, 64, 127
1, 338130, Note_off_c, 0, 83, 70
1, 338130, Note_off_c, 0, 71, 69
1, 338131, Note_off_c, 0, 59, 70
1, 338134, Note_off_c, 0, 47, 66
1, 338285, Note_on_c, 0, 69, 85
1, 338286, Note_on_c, 0, 57, 82
1, 338288, Note_on_c, 0, 45, 78
1, 338288, Note_on_c, 0, 55, 84
1, 338297, Control_c, 0, 64, 97
1, 338298, Note_on_c, 0, 43, 74
1, 338302, Note_off_c, 0, 69, 72
1, 338303, Note_on_c, 0, 79, 53
1, 338306, Note_on_c, 0, 81, 43
1, 338309, Note_off_c, 0, 57, 68
1, 338310, Note_off_c, 0, 55, 68
1, 338312, Control_c, 0, 64, 54
1, 338313, Note_off_c, 0, 45, 67
1, 338320, Note_off_c, 0, 43, 61
1, 338323, Note_off_c, 0, 79, 61
1, 338327, Control_c, 0, 64, 0
1, 338333, Note_off_c, 0, 81, 40
1, 338353, Note_on_c, 0, 76, 96
1, 338355, Note_on_c, 0, 64, 101
1, 338371, Note_on_c, 0, 52, 96
1, 338377, Note_on_c, 0, 40, 93
1, 338386, Control_c, 0, 64, 56
1, 338396, Note_off_c, 0, 64, 69
1, 338398, Note_off_c, 0, 52, 68
1, 338401, Control_c, 0, 64, 86
1, 338402, Note_off_c, 0, 40, 68
1, 338404, Note_off_c, 0, 76, 65
1, 338415, Control_c, 0, 64, 127
1, 338460, Control_c, 0, 64, 82
1, 338474, Control_c, 0, 64, 65
1, 338489, Control_c, 0, 64, 71
1, 338504, Control_c, 0, 64, 127
1, 338515, Note_on_c, 0, 61, 100
1, 338520, Note_on_c, 0, 73, 101
1, 338520, Note_on_c, 0, 85, 101
1, 338526, Note_on_c, 0, 49, 82
1, 338548, Note_off_c, 0, 49, 68
1, 338550, Note_off_c, 0, 61, 67
1, 338551, Note_off_c, 0, 73, 66
1, 338553, Note_off_c, 0, 85, 65
1, 338696, Note_on_c, 0, 59, 76
1, 338699, Note_on_c, 0, 83, 69
1, 338705, Note_on_c, 0, 71, 64
1, 338711, Control_c, 0, 64, 108
1, 338717, Note_on_c, 0, 47, 48
1, 338717, Note_off_c, 0, 83, 67
1, 338718, Note_off_c, 0, 59, 67
1, 338723, Note_off_c, 0, 71, 64
1, 338726, Control_c, 0, 64, 61
1, 338741, Control_c, 0, 64, 0
1, 338747, Note_off_c, 0, 47, 47
1, 338762, Note_on_c, 0, 69, 87
1, 338762, Note_on_c, 0, 81, 85
1, 338782, Note_on_c, 0, 45, 85
1, 338785, Note_on_c, 0, 57, 84
1, 338800, Note_off_c, 0, 69, 64
1, 338808, Note_off_c, 0, 45, 68
1, 338808, Note_off_c, 0, 57, 69
1, 338815, Control_c, 0, 64, 30
1, 338824, Note_off_c, 0, 81, 63
1, 338830, Control_c, 0, 64, 61
1, 338845, Control_c, 0, 64, 79
1, 338860, Control_c, 0, 64, 127
1, 338907, Poly_aftertouch_c, 0, 47, 0
1, 338947, Note_on_c, 0, 64, 78
1, 338953, Note_on_c, 0, 88, 79
1, 338957, Note_on_c, 0, 76, 74
1, 338961, Note_on_c, 0, 52, 65
1, 338969, Note_off_c, 0, 64, 71
1, 338973, Note_off_c, 0, 88, 68
1, 338980, Note_off_c, 0, 76, 68
1, 338990, Note_off_c, 0, 52, 64
1, 339090, Note_on_c, 0, 61, 73
1, 339094, Note_on_c, 0, 85, 76
1, 339099, Note_on_c, 0, 49, 67
1, 339102, Note_on_c, 0, 73, 77
1, 339115, Note_off_c, 0, 61, 68
1, 339125, Note_off_c, 0, 49, 66
1, 339140, Note_off_c, 0, 85, 61
1, 339145, Note_off_c, 0, 73, 60
1, 339179, Control_c, 0, 64, 99
1, 339194, Control_c, 0, 64, 62
1, 339209, Control_c, 0, 64, 0
1, 339224, Control_c, 0, 64, 37
1, 339224, Note_on_c, 0, 45, 74
1, 339225, Note_on_c, 0, 81, 81
1, 339232, Note_on_c, 0, 57, 62
1, 339237, Note_on_c, 0, 71, 58
1, 339239, Control_c, 0, 64, 58
1, 339245, Note_off_c, 0, 45, 66
1, 339251, Note_on_c, 0, 69, 30
1, 339253, Control_c, 0, 64, 69
1, 339257, Note_off_c, 0, 71, 61
1, 339260, Note_off_c, 0, 81, 63
1, 339261, Note_off_c, 0, 57, 65
1, 339268, Control_c, 0, 64, 90
1, 339283, Control_c, 0, 64, 127
1, 339288, Note_off_c, 0, 69, 54
1, 339359, Note_on_c, 0, 91, 80
1, 339361, Note_on_c, 0, 79, 77
1, 339364, Note_on_c, 0, 67, 78
1, 339370, Note_on_c, 0, 55, 72
1, 339379, Note_off_c, 0, 79, 70
1, 339381, Note_off_c, 0, 91, 67
1, 339391, Note_off_c, 0, 67, 65
1, 339397, Note_off_c, 0, 55, 67
1, 339477, Note_on_c, 0, 88, 87
1, 339480, Note_on_c, 0, 64, 81
1, 339483, Note_on_c, 0, 76, 84
1, 339490, Note_on_c, 0, 52, 76
1, 339512, Note_off_c, 0, 64, 65
1, 339513, Note_off_c, 0, 76, 63
1, 339516, Note_off_c, 0, 88, 65
1, 339519, Note_off_c, 0, 52, 66
1, 339549, Control_c, 0, 64, 72
1, 339564, Control_c, 0, 64, 48
1, 339579, Control_c, 0, 64, 54
1, 339590, Note_on_c, 0, 73, 89
1, 339593, Control_c, 0, 64, 66
1, 339595, Note_on_c, 0, 85, 83
1, 339597, Note_on_c, 0, 61, 87
1, 339604, Note_on_c, 0, 49, 74
1, 339606, Note_off_c, 0, 73, 73
1, 339608, Control_c, 0, 64, 83
1, 339621, Note_off_c, 0, 61, 68
1, 339623, Control_c, 0, 64, 127
1, 339632, Note_off_c, 0, 49, 63
1, 339635, Note_off_c, 0, 85, 61
1, 339722, Note_on_c, 0, 95, 90
1, 339723, Note_on_c, 0, 83, 91
1, 339733, Note_on_c, 0, 71, 84
1, 339736, Note_on_c, 0, 59, 82
1, 339743, Note_off_c, 0, 83, 65
1, 339752, Note_off_c, 0, 71, 71
1, 339757, Note_off_c, 0, 95, 62
1, 339758, Note_off_c, 0, 59, 70
1, 339830, Note_on_c, 0, 67, 90
1, 339834, Note_on_c, 0, 91, 98
1, 339835, Note_on_c, 0, 79, 95
1, 339841, Note_on_c, 0, 55, 81
1, 339862, Note_off_c, 0, 67, 62
1, 339866, Note_off_c, 0, 55, 69
1, 339866, Note_off_c, 0, 91, 71
1, 339871, Note_off_c, 0, 79, 67
1, 339881, Note_on_c, 0, 57, 23
1, 339898, Control_c, 0, 64, 87
1, 339913, Control_c, 0, 64, 51
1, 339916, Note_off_c, 0, 57, 49
1, 339927, Control_c, 0, 64, 0
1, 339936, Note_on_c, 0, 76, 98
1, 339939, Note_on_c, 0, 64, 90
1, 339939, Note_on_c, 0, 88, 98
1, 339942, Note_on_c, 0, 52, 89
1, 339957, Control_c, 0, 64, 40
1, 339960, Note_off_c, 0, 64, 71
1, 339961, Note_off_c, 0, 52, 70
1, 339964, Note_off_c, 0, 76, 69
1, 339972, Control_c, 0, 64, 62
1, 339981, Note_off_c, 0, 88, 66
1, 339987, Control_c, 0, 64, 83
1, 340002, Control_c, 0, 64, 127
1, 340051, Note_on_c, 0, 85, 96
1, 340053, Note_on_c, 0, 73, 93
1, 340057, Note_on_c, 0, 97, 92
1, 340064, Note_on_c, 0, 61, 80
1, 340087, Note_off_c, 0, 61, 69
1, 340087, Note_off_c, 0, 73, 61
1, 340087, Note_off_c, 0, 97, 63
1, 340088, Note_off_c, 0, 85, 64
1, 340169, Note_on_c, 0, 95, 96
1, 340171, Note_on_c, 0, 83, 98
1, 340172, Note_on_c, 0, 71, 88
1, 340179, Note_on_c, 0, 59, 80
1, 340210, Note_off_c, 0, 95, 67
1, 340210, Note_off_c, 0, 59, 65
1, 340210, Note_off_c, 0, 71, 62
1, 340211, Note_off_c, 0, 83, 66
1, 340238, Control_c, 0, 64, 87
1, 340253, Control_c, 0, 64, 48
1, 340268, Control_c, 0, 64, 0
1, 340294, Note_on_c, 0, 81, 84
1, 340295, Note_on_c, 0, 93, 96
1, 340306, Note_on_c, 0, 69, 73
1, 340310, Note_on_c, 0, 57, 66
1, 340312, Note_on_c, 0, 55, 59
1, 340312, Control_c, 0, 64, 46
1, 340317, Note_off_c, 0, 81, 65
1, 340327, Note_off_c, 0, 69, 70
1, 340327, Control_c, 0, 64, 64
1, 340336, Note_off_c, 0, 55, 58
1, 340341, Note_off_c, 0, 57, 64
1, 340342, Control_c, 0, 64, 82
1, 340345, Note_off_c, 0, 93, 65
1, 340357, Control_c, 0, 64, 127
1, 340461, Note_on_c, 0, 103, 82
1, 340476, Note_on_c, 0, 79, 79
1, 340476, Note_on_c, 0, 91, 65
1, 340480, Note_on_c, 0, 67, 78
1, 340490, Note_off_c, 0, 103, 64
1, 340500, Note_off_c, 0, 79, 64
1, 340503, Note_off_c, 0, 91, 67
1, 340505, Note_off_c, 0, 67, 68
1, 340596, Note_on_c, 0, 100, 88
1, 340598, Note_on_c, 0, 76, 82
1, 340599, Note_on_c, 0, 88, 84
1, 340607, Note_on_c, 0, 64, 74
1, 340617, Note_off_c, 0, 76, 71
1, 340629, Note_off_c, 0, 64, 68
1, 340640, Note_off_c, 0, 88, 63
1, 340640, Note_off_c, 0, 100, 66
1, 340714, Note_on_c, 0, 85, 86
1, 340714, Note_on_c, 0, 97, 82
1, 340717, Note_on_c, 0, 73, 74
1, 340724, Note_on_c, 0, 61, 74
1, 340737, Note_off_c, 0, 97, 69
1, 340738, Note_off_c, 0, 73, 71
1, 340748, Note_off_c, 0, 61, 67
1, 340750, Note_off_c, 0, 85, 61
1, 340816, Note_on_c, 0, 95, 87
1, 340816, Note_on_c, 0, 71, 78
1, 340816, Note_on_c, 0, 83, 90
1, 340818, Note_on_c, 0, 59, 75
1, 340839, Note_off_c, 0, 71, 68
1, 340849, Note_off_c, 0, 59, 67
1, 340851, Note_off_c, 0, 95, 63
1, 340855, Note_off_c, 0, 83, 64
1, 340922, Note_on_c, 0, 57, 80
1, 340922, Note_on_c, 0, 81, 89
1, 340924, Note_on_c, 0, 69, 77
1, 340926, Note_on_c, 0, 93, 85
1, 340946, Note_off_c, 0, 69, 68
1, 340947, Note_off_c, 0, 93, 71
1, 340956, Note_off_c, 0, 81, 60
1, 340962, Note_off_c, 0, 57, 64
1, 341027, Note_on_c, 0, 79, 88
1, 341029, Note_on_c, 0, 67, 82
1, 341031, Note_on_c, 0, 91, 89
1, 341032, Note_on_c, 0, 55, 73
1, 341048, Note_on_c, 0, 53, 73
1, 341054, Note_off_c, 0, 91, 68
1, 341057, Note_off_c, 0, 67, 61
1, 341066, Note_off_c, 0, 79, 66
1, 341066, Note_off_c, 0, 53, 62
1, 341078, Note_off_c, 0, 55, 62
1, 341131, Note_on_c, 0, 76, 96
1, 341132, Note_on_c, 0, 88, 90
1, 341133, Note_on_c, 0, 64, 93
1, 341142, Note_on_c, 0, 52, 89
1, 341147, Poly_aftertouch_c, 0, 65, 0
1, 341156, Note_off_c, 0, 64, 68
1, 341163, Note_off_c, 0, 52, 72
1, 341167, Note_off_c, 0, 76, 68
1, 341169, Note_off_c, 0, 88, 67
1, 341239, Note_on_c, 0, 73, 93
1, 341240, Note_on_c, 0, 61, 93
1, 341248, Note_on_c, 0, 85, 81
1, 341248, Note_on_c, 0, 49, 88
1, 341266, Note_off_c, 0, 73, 62
1, 341269, Note_off_c, 0, 85, 71
1, 341274, Note_off_c, 0, 49, 68
1, 341280, Note_off_c, 0, 61, 63
1, 341336, Note_on_c, 0, 71, 105
1, 341336, Note_on_c, 0, 83, 98
1, 341338, Note_on_c, 0, 59, 92
1, 341346, Note_on_c, 0, 47, 83
1, 341370, Note_off_c, 0, 59, 63
1, 341370, Note_off_c, 0, 71, 67
1, 341370, Note_off_c, 0, 83, 66
1, 341374, Note_off_c, 0, 47, 67
1, 341424, Poly_aftertouch_c, 0, 48, 127
1, 341438, Note_on_c, 0, 57, 96
1, 341441, Note_on_c, 0, 69, 97
1, 341442, Note_on_c, 0, 81, 92
1, 341442, Note_on_c, 0, 45, 87
1, 341465, Poly_aftertouch_c, 0, 48, 0
1, 341467, Note_off_c, 0, 81, 62
1, 341469, Note_on_c, 0, 71, 45
1, 341469, Note_off_c, 0, 71, 127
1, 341470, Note_off_c, 0, 57, 64
1, 341474, Note_off_c, 0, 69, 67
1, 341479, Note_off_c, 0, 45, 63
1, 341510, Note_on_c, 0, 47, 3
1, 341538, Note_on_c, 0, 55, 100
1, 341539, Note_off_c, 0, 47, 40
1, 341540, Note_on_c, 0, 67, 101
1, 341543, Note_on_c, 0, 43, 94
1, 341544, Note_on_c, 0, 79, 94
1, 341574, Note_off_c, 0, 55, 65
1, 341575, Note_off_c, 0, 79, 60
1, 341577, Note_off_c, 0, 67, 69
1, 341587, Note_off_c, 0, 43, 63
1, 341643, Note_on_c, 0, 52, 92
1, 341650, Note_on_c, 0, 40, 85
1, 341650, Note_on_c, 0, 64, 93
1, 341653, Note_on_c, 0, 76, 89
1, 341667, Note_off_c, 0, 52, 68
1, 341677, Note_off_c, 0, 76, 63
1, 341680, Note_off_c, 0, 40, 64
1, 341685, Note_off_c, 0, 64, 60
1, 341749, Note_on_c, 0, 49, 101
1, 341755, Note_on_c, 0, 37, 96
1, 341756, Note_on_c, 0, 61, 88
1, 341761, Note_on_c, 0, 73, 79
1, 341775, Note_off_c, 0, 61, 68
1, 341781, Note_off_c, 0, 73, 71
1, 341783, Note_off_c, 0, 37, 65
1, 341785, Note_off_c, 0, 49, 66
1, 341855, Note_on_c, 0, 47, 101
1, 341855, Note_on_c, 0, 59, 99
1, 341856, Note_on_c, 0, 71, 96
1, 341861, Note_on_c, 0, 35, 97
1, 341892, Note_off_c, 0, 47, 68
1, 341893, Note_off_c, 0, 59, 68
1, 341894, Note_off_c, 0, 71, 65
1, 341897, Note_off_c, 0, 35, 63
1, 341914, Control_c, 0, 64, 98
1, 341929, Control_c, 0, 64, 62
1, 341951, Control_c, 0, 64, 71
1, 341966, Control_c, 0, 64, 127
1, 341971, Note_on_c, 0, 45, 104
1, 341973, Note_on_c, 0, 57, 102
1, 341975, Note_on_c, 0, 69, 99
1, 341978, Note_on_c, 0, 33, 94
1, 342010, Note_off_c, 0, 69, 66
1, 342013, Note_off_c, 0, 33, 63
1, 342013, Note_off_c, 0, 45, 66
1, 342016, Note_off_c, 0, 57, 67
1, 342040, Control_c, 0, 64, 77
1, 342055, Control_c, 0, 64, 64
1, 342071, Control_c, 0, 64, 78
1, 342080, Note_on_c, 0, 43, 101
1, 342083, Note_on_c, 0, 67, 88
1, 342084, Note_on_c, 0, 55, 99
1, 342086, Control_c, 0, 64, 127
1, 342124, Note_off_c, 0, 43, 65
1, 342134, Note_off_c, 0, 55, 64
1, 342134, Note_off_c, 0, 67, 64
1, 342189, Note_on_c, 0, 64, 84
1, 342190, Note_on_c, 0, 52, 100
1, 342198, Note_on_c, 0, 40, 86
1, 342225, Note_off_c, 0, 52, 66
1, 342227, Note_on_c, 0, 41, 50
1, 342227, Note_off_c, 0, 40, 68
1, 342241, Note_off_c, 0, 64, 64
1, 342255, Note_off_c, 0, 41, 59
1, 342293, Control_c, 0, 64, 86
1, 342307, Control_c, 0, 64, 57
1, 342315, Note_on_c, 0, 49, 101
1, 342322, Control_c, 0, 64, 56
1, 342323, Note_on_c, 0, 37, 91
1, 342329, Note_on_c, 0, 61, 84
1, 342337, Control_c, 0, 64, 82
1, 342351, Note_off_c, 0, 37, 66
1, 342352, Control_c, 0, 64, 127
1, 342356, Note_off_c, 0, 49, 65
1, 342384, Note_off_c, 0, 61, 62
1, 342441, Control_c, 0, 64, 86
1, 342446, Note_on_c, 0, 47, 105
1, 342448, Note_on_c, 0, 59, 93
1, 342451, Note_on_c, 0, 35, 101
1, 342456, Control_c, 0, 64, 127
1, 342484, Note_off_c, 0, 47, 67
1, 342490, Note_off_c, 0, 35, 66
1, 342503, Note_off_c, 0, 59, 65
1, 342545, Control_c, 0, 64, 88
1, 342559, Control_c, 0, 64, 92
1, 342571, Poly_aftertouch_c, 0, 37, 0
1, 342572, Note_on_c, 0, 57, 94
1, 342574, Control_c, 0, 64, 127
1, 342578, Note_on_c, 0, 45, 100
1, 342583, Note_on_c, 0, 33, 96
1, 342619, Note_off_c, 0, 57, 66
1, 342622, Note_off_c, 0, 45, 65
1, 342631, Note_off_c, 0, 33, 61
1, 342663, Control_c, 0, 64, 73
1, 342678, Control_c, 0, 64, 0
1, 342724, Note_on_c, 0, 43, 101
1, 342724, Note_on_c, 0, 55, 94
1, 342734, Note_on_c, 0, 31, 85
1, 342744, Control_c, 0, 64, 62
1, 342746, Note_on_c, 0, 33, 61
1, 342759, Control_c, 0, 64, 84
1, 342763, Note_off_c, 0, 43, 66
1, 342768, Note_off_c, 0, 31, 63
1, 342773, Note_off_c, 0, 33, 58
1, 342774, Control_c, 0, 64, 127
1, 342780, Note_off_c, 0, 55, 64
1, 342893, Control_c, 0, 64, 68
1, 342903, Note_on_c, 0, 40, 100
1, 342903, Note_on_c, 0, 52, 96
1, 342908, Note_on_c, 0, 28, 102
1, 342908, Control_c, 0, 64, 31
1, 342923, Control_c, 0, 64, 42
1, 342934, Note_off_c, 0, 28, 70
1, 342938, Note_on_c, 0, 30, 45
1, 342938, Control_c, 0, 64, 68
1, 342941, Note_off_c, 0, 40, 66
1, 342953, Control_c, 0, 64, 100
1, 342962, Note_off_c, 0, 52, 62
1, 342968, Control_c, 0, 64, 127
1, 342978, Note_off_c, 0, 30, 56
1, 343116, Control_c, 0, 64, 64
1, 343127, Note_on_c, 0, 57, 88
1, 343130, Control_c, 0, 64, 0
1, 343139, Note_on_c, 0, 45, 106
1, 343144, Note_on_c, 0, 33, 102
1, 343160, Control_c, 0, 64, 32
1, 343175, Control_c, 0, 64, 62
1, 343177, Note_off_c, 0, 45, 66
1, 343190, Control_c, 0, 64, 79
1, 343200, Note_off_c, 0, 33, 60
1, 343205, Control_c, 0, 64, 127
1, 343225, Note_off_c, 0, 57, 46
1, 343382, Control_c, 0, 64, 66
1, 343397, Control_c, 0, 64, 0
1, 343415, Note_on_c, 0, 50, 88
1, 343444, Note_on_c, 0, 38, 109
1, 343449, Control_c, 0, 64, 46
1, 343451, Note_on_c, 0, 26, 99
1, 343463, Note_off_c, 0, 50, 65
1, 343463, Control_c, 0, 64, 74
1, 343478, Control_c, 0, 64, 127
1, 343481, Note_off_c, 0, 26, 65
1, 343519, Note_off_c, 0, 38, 63
1, 343731, Control_c, 0, 64, 90
1, 343743, Note_on_c, 0, 57, 75
1, 343746, Note_on_c, 0, 54, 68
1, 343746, Note_on_c, 0, 66, 73
1, 343746, Control_c, 0, 64, 60
1, 343752, Note_on_c, 0, 62, 63
1, 343761, Control_c, 0, 64, 0
1, 343774, Note_off_c, 0, 54, 66
1, 343777, Note_off_c, 0, 57, 65
1, 343786, Note_off_c, 0, 62, 64
1, 343788, Note_off_c, 0, 66, 56
1, 343981, Note_on_c, 0, 57, 78
1, 343981, Note_on_c, 0, 66, 77
1, 343984, Note_on_c, 0, 54, 73
1, 343984, Note_on_c, 0, 62, 73
1, 344010, Note_off_c, 0, 54, 67
1, 344011, Note_off_c, 0, 57, 68
1, 344023, Note_off_c, 0, 62, 64
1, 344039, Note_off_c, 0, 66, 63
1, 344201, Note_on_c, 0, 33, 100
1, 344203, Note_on_c, 0, 21, 97
1, 344214, Control_c, 0, 64, 59
1, 344229, Control_c, 0, 64, 90
1, 344242, Note_off_c, 0, 33, 66
1, 344243, Control_c, 0, 64, 127
1, 344257, Note_off_c, 0, 21, 64
1, 344435, Control_c, 0, 64, 108
1, 344446, Note_on_c, 0, 54, 66
1, 344447, Note_on_c, 0, 57, 63
1, 344447, Note_on_c, 0, 66, 66
1, 344450, Control_c, 0, 64, 69
1, 344455, Note_on_c, 0, 62, 53
1, 344466, Control_c, 0, 64, 32
1, 344468, Note_off_c, 0, 54, 61
1, 344476, Note_off_c, 0, 57, 62
1, 344477, Note_off_c, 0, 66, 55
1, 344481, Control_c, 0, 64, 0
1, 344482, Note_off_c, 0, 62, 60
1, 344675, Note_on_c, 0, 54, 60
1, 344676, Note_on_c, 0, 66, 71
1, 344677, Note_on_c, 0, 57, 56
1, 344682, Note_on_c, 0, 62, 56
1, 344700, Note_off_c, 0, 54, 63
1, 344700, Note_off_c, 0, 57, 61
1, 344712, Note_off_c, 0, 62, 64
1, 344724, Note_off_c, 0, 66, 61
1, 344879, Note_on_c, 0, 26, 95
1, 344880, Note_on_c, 0, 38, 99
1, 344894, Control_c, 0, 64, 36
1, 344908, Control_c, 0, 64, 74
1, 344909, Note_off_c, 0, 26, 68
1, 344923, Control_c, 0, 64, 107
1, 344939, Note_off_c, 0, 38, 65
1, 344946, Control_c, 0, 64, 127
1, 345108, Control_c, 0, 64, 88
1, 345109, Note_on_c, 0, 54, 64
1, 345117, Note_on_c, 0, 57, 55
1, 345117, Note_on_c, 0, 66, 60
1, 345123, Note_on_c, 0, 62, 53
1, 345123, Control_c, 0, 64, 58
1, 345138, Note_off_c, 0, 54, 63
1, 345138, Control_c, 0, 64, 0
1, 345141, Note_off_c, 0, 57, 60
1, 345145, Note_off_c, 0, 66, 54
1, 345150, Note_off_c, 0, 62, 58
1, 345327, Note_on_c, 0, 57, 49
1, 345329, Note_on_c, 0, 54, 61
1, 345330, Note_on_c, 0, 62, 55
1, 345332, Note_on_c, 0, 66, 71
1, 345356, Note_off_c, 0, 57, 63
1, 345359, Note_off_c, 0, 54, 63
1, 345366, Note_off_c, 0, 62, 65
1, 345379, Note_off_c, 0, 66, 58
1, 345525, Note_on_c, 0, 33, 94
1, 345527, Note_on_c, 0, 21, 95
1, 345554, Control_c, 0, 64, 59
1, 345558, Note_off_c, 0, 33, 62
1, 345562, Note_off_c, 0, 21, 67
1, 345569, Control_c, 0, 64, 69
1, 345584, Control_c, 0, 64, 78
1, 345599, Control_c, 0, 64, 88
1, 345613, Control_c, 0, 64, 97
1, 345628, Control_c, 0, 64, 110
1, 345643, Control_c, 0, 64, 127
1, 345703, Note_on_c, 0, 54, 81
1, 345707, Note_on_c, 0, 66, 88
1, 345709, Note_on_c, 0, 57, 65
1, 345713, Note_on_c, 0, 62, 68
1, 345737, Note_off_c, 0, 62, 66
1, 345738, Note_off_c, 0, 57, 66
1, 345746, Note_off_c, 0, 54, 56
1, 345776, Note_off_c, 0, 66, 60
1, 345917, Control_c, 0, 64, 72
1, 345928, Note_on_c, 0, 66, 91
1, 345929, Note_on_c, 0, 69, 96
1, 345931, Note_on_c, 0, 57, 91
1, 345931, Control_c, 0, 64, 42
1, 345941, Note_on_c, 0, 62, 60
1, 345946, Control_c, 0, 64, 0
1, 345961, Control_c, 0, 64, 48
1, 345964, Note_off_c, 0, 62, 63
1, 345976, Note_off_c, 0, 57, 63
1, 345976, Control_c, 0, 64, 63
1, 345991, Control_c, 0, 64, 73
1, 346003, Note_off_c, 0, 66, 63
1, 346005, Control_c, 0, 64, 112
1, 346020, Control_c, 0, 64, 127
1, 346032, Note_off_c, 0, 69, 58
1, 346214, Control_c, 0, 64, 93
1, 346226, Note_on_c, 0, 74, 102
1, 346229, Control_c, 0, 64, 56
1, 346235, Note_on_c, 0, 62, 90
1, 346238, Note_on_c, 0, 26, 77
1, 346240, Note_on_c, 0, 38, 90
1, 346240, Note_on_c, 0, 66, 83
1, 346240, Note_on_c, 0, 69, 76
1, 346244, Control_c, 0, 64, 0
1, 346265, Note_off_c, 0, 26, 68
1, 346274, Note_off_c, 0, 38, 63
1, 346276, Note_off_c, 0, 62, 63
1, 346288, Control_c, 0, 64, 58
1, 346298, Note_off_c, 0, 74, 68
1, 346303, Note_off_c, 0, 69, 62
1, 346303, Control_c, 0, 64, 76
1, 346303, Note_off_c, 0, 66, 64
1, 346318, Control_c, 0, 64, 127
1, 346473, Control_c, 0, 64, 88
1, 346488, Control_c, 0, 64, 55
1, 346488, Note_on_c, 0, 57, 72
1, 346503, Note_on_c, 0, 54, 57
1, 346503, Control_c, 0, 64, 0
1, 346522, Note_off_c, 0, 57, 65
1, 346539, Note_off_c, 0, 54, 62
1, 346679, Note_on_c, 0, 74, 96
1, 346691, Note_on_c, 0, 57, 65
1, 346694, Note_on_c, 0, 69, 74
1, 346696, Note_on_c, 0, 54, 71
1, 346700, Note_on_c, 0, 62, 81
1, 346712, Note_off_c, 0, 57, 65
1, 346713, Note_on_c, 0, 66, 67
1, 346721, Note_off_c, 0, 54, 68
1, 346830, Note_off_c, 0, 62, 63
1, 346839, Note_off_c, 0, 69, 61
1, 346852, Note_off_c, 0, 66, 63
1, 346866, Note_off_c, 0, 74, 63
1, 346867, Note_on_c, 0, 33, 85
1, 346869, Note_on_c, 0, 45, 88
1, 346874, Control_c, 0, 64, 46
1, 346889, Control_c, 0, 64, 71
1, 346894, Note_off_c, 0, 33, 70
1, 346903, Control_c, 0, 64, 88
1, 346905, Note_off_c, 0, 45, 63
1, 346918, Control_c, 0, 64, 127
1, 347038, Note_on_c, 0, 78, 94
1, 347047, Note_on_c, 0, 66, 92
1, 347052, Note_on_c, 0, 57, 77
1, 347067, Note_on_c, 0, 54, 58
1, 347069, Note_off_c, 0, 66, 69
1, 347078, Note_off_c, 0, 78, 67
1, 347083, Note_off_c, 0, 57, 64
1, 347095, Note_off_c, 0, 54, 64
1, 347234, Note_on_c, 0, 57, 66
1, 347234, Note_on_c, 0, 54, 70
1, 347262, Note_off_c, 0, 57, 66
1, 347266, Note_off_c, 0, 54, 63
1, 347310, Note_on_c, 0, 69, 86
1, 347313, Note_on_c, 0, 62, 80
1, 347336, Note_off_c, 0, 62, 70
1, 347344, Note_off_c, 0, 69, 60
1, 347347, Note_on_c, 0, 66, 32
1, 347355, Control_c, 0, 64, 71
1, 347370, Control_c, 0, 64, 0
1, 347374, Note_off_c, 0, 66, 0
1, 347383, Note_on_c, 0, 74, 94
1, 347385, Note_on_c, 0, 66, 67
1, 347389, Note_on_c, 0, 62, 93
1, 347402, Note_on_c, 0, 50, 91
1, 347403, Note_on_c, 0, 38, 84
1, 347414, Note_off_c, 0, 62, 67
1, 347425, Note_off_c, 0, 74, 68
1, 347428, Control_c, 0, 64, 36
1, 347433, Note_off_c, 0, 38, 68
1, 347439, Note_off_c, 0, 66, 64
1, 347441, Note_off_c, 0, 50, 64
1, 347443, Control_c, 0, 64, 63
1, 347458, Control_c, 0, 64, 81
1, 347473, Control_c, 0, 64, 127
1, 347581, Note_on_c, 0, 57, 79
1, 347591, Control_c, 0, 64, 105
1, 347594, Note_on_c, 0, 54, 63
1, 347606, Control_c, 0, 64, 64
1, 347612, Note_off_c, 0, 57, 65
1, 347621, Control_c, 0, 64, 0
1, 347625, Note_off_c, 0, 54, 64
1, 347779, Note_on_c, 0, 74, 88
1, 347785, Note_on_c, 0, 69, 74
1, 347786, Note_on_c, 0, 54, 68
1, 347792, Note_on_c, 0, 62, 77
1, 347793, Note_on_c, 0, 66, 78
1, 347806, Note_off_c, 0, 54, 62
1, 347911, Note_off_c, 0, 62, 63
1, 347917, Note_off_c, 0, 69, 62
1, 347919, Note_off_c, 0, 66, 63
1, 347956, Note_off_c, 0, 74, 66
1, 347970, Note_on_c, 0, 45, 84
1, 347974, Note_on_c, 0, 33, 81
1, 348001, Control_c, 0, 64, 62
1, 348003, Note_off_c, 0, 33, 67
1, 348013, Note_off_c, 0, 45, 63
1, 348015, Control_c, 0, 64, 96
1, 348030, Control_c, 0, 64, 127
1, 348152, Note_on_c, 0, 81, 93
1, 348160, Note_on_c, 0, 69, 93
1, 348167, Note_on_c, 0, 74, 74
1, 348169, Note_on_c, 0, 57, 62
1, 348173, Note_on_c, 0, 62, 66
1, 348184, Note_off_c, 0, 69, 64
1, 348187, Note_on_c, 0, 54, 49
1, 348190, Note_off_c, 0, 74, 70
1, 348192, Note_off_c, 0, 81, 68
1, 348203, Note_off_c, 0, 62, 63
1, 348205, Note_off_c, 0, 57, 61
1, 348217, Note_off_c, 0, 54, 63
1, 348313, Note_on_c, 0, 62, 60
1, 348316, Note_on_c, 0, 57, 72
1, 348322, Note_on_c, 0, 54, 63
1, 348339, Note_off_c, 0, 57, 69
1, 348342, Note_off_c, 0, 62, 64
1, 348358, Note_off_c, 0, 54, 61
1, 348400, Note_on_c, 0, 66, 82
1, 348413, Note_on_c, 0, 78, 70
1, 348427, Note_off_c, 0, 66, 67
1, 348438, Note_off_c, 0, 78, 67
1, 348461, Control_c, 0, 64, 62
1, 348475, Control_c, 0, 64, 0
1, 348484, Note_on_c, 0, 50, 90
1, 348485, Note_on_c, 0, 74, 97
1, 348487, Note_on_c, 0, 38, 84
1, 348487, Note_on_c, 0, 62, 95
1, 348515, Note_off_c, 0, 38, 68
1, 348519, Note_off_c, 0, 62, 66
1, 348520, Note_off_c, 0, 74, 70
1, 348520, Control_c, 0, 64, 36
1, 348521, Note_off_c, 0, 50, 65
1, 348535, Control_c, 0, 64, 58
1, 348549, Control_c, 0, 64, 71
1, 348564, Control_c, 0, 64, 105
1, 348579, Control_c, 0, 64, 127
1, 348668, Control_c, 0, 64, 107
1, 348689, Note_on_c, 0, 57, 76
1, 348690, Control_c, 0, 64, 66
1, 348703, Note_on_c, 0, 54, 60
1, 348705, Control_c, 0, 64, 0
1, 348721, Note_off_c, 0, 57, 66
1, 348732, Note_off_c, 0, 54, 63
1, 348881, Note_on_c, 0, 54, 68
1, 348882, Note_on_c, 0, 74, 91
1, 348891, Note_on_c, 0, 69, 77
1, 348896, Note_on_c, 0, 62, 78
1, 348899, Note_on_c, 0, 66, 74
1, 348908, Note_off_c, 0, 54, 65
1, 349013, Note_off_c, 0, 62, 62
1, 349021, Note_off_c, 0, 69, 61
1, 349025, Note_off_c, 0, 66, 63
1, 349052, Note_off_c, 0, 74, 66
1, 349072, Note_on_c, 0, 45, 86
1, 349073, Note_on_c, 0, 33, 78
1, 349090, Control_c, 0, 64, 48
1, 349101, Note_off_c, 0, 33, 64
1, 349104, Note_off_c, 0, 45, 66
1, 349105, Control_c, 0, 64, 82
1, 349120, Control_c, 0, 64, 127
1, 349243, Note_on_c, 0, 86, 98
1, 349255, Note_on_c, 0, 74, 92
1, 349264, Note_on_c, 0, 57, 67
1, 349264, Note_on_c, 0, 62, 65
1, 349272, Note_on_c, 0, 54, 62
1, 349280, Note_off_c, 0, 74, 63
1, 349290, Note_off_c, 0, 86, 68
1, 349293, Note_off_c, 0, 62, 65
1, 349294, Note_off_c, 0, 57, 64
1, 349305, Note_off_c, 0, 54, 63
1, 349396, Note_on_c, 0, 57, 65
1, 349400, Note_on_c, 0, 62, 60
1, 349418, Note_on_c, 0, 54, 64
1, 349436, Note_off_c, 0, 57, 64
1, 349439, Note_off_c, 0, 62, 63
1, 349477, Note_off_c, 0, 54, 60
1, 349496, Note_on_c, 0, 73, 81
1, 349497, Note_on_c, 0, 85, 77
1, 349516, Note_off_c, 0, 85, 70
1, 349519, Note_off_c, 0, 73, 65
1, 349528, Control_c, 0, 64, 97
1, 349543, Control_c, 0, 64, 59
1, 349558, Control_c, 0, 64, 0
1, 349569, Note_on_c, 0, 83, 94
1, 349570, Note_on_c, 0, 71, 101
1, 349582, Note_on_c, 0, 49, 90
1, 349588, Note_on_c, 0, 37, 71
1, 349602, Control_c, 0, 64, 48
1, 349604, Note_off_c, 0, 49, 70
1, 349609, Note_off_c, 0, 71, 66
1, 349610, Note_off_c, 0, 83, 66
1, 349613, Note_off_c, 0, 37, 68
1, 349617, Control_c, 0, 64, 64
1, 349631, Control_c, 0, 64, 81
1, 349646, Control_c, 0, 64, 127
1, 349763, Note_on_c, 0, 64, 75
1, 349765, Note_on_c, 0, 57, 67
1, 349773, Note_on_c, 0, 55, 55
1, 349779, Control_c, 0, 64, 63
1, 349791, Note_off_c, 0, 64, 68
1, 349794, Control_c, 0, 64, 0
1, 349798, Note_off_c, 0, 57, 67
1, 349804, Note_off_c, 0, 55, 63
1, 349932, Note_on_c, 0, 57, 55
1, 349932, Note_on_c, 0, 64, 53
1, 349934, Note_on_c, 0, 81, 89
1, 349939, Note_on_c, 0, 69, 90
1, 349940, Note_on_c, 0, 55, 63
1, 349954, Note_off_c, 0, 64, 62
1, 349962, Note_off_c, 0, 57, 65
1, 349971, Note_off_c, 0, 55, 65
1, 350107, Note_off_c, 0, 81, 62
1, 350113, Note_off_c, 0, 69, 64
1, 350116, Note_on_c, 0, 45, 83
1, 350119, Note_on_c, 0, 33, 75
1, 350121, Control_c, 0, 64, 59
1, 350136, Control_c, 0, 64, 75
1, 350142, Note_off_c, 0, 33, 64
1, 350151, Control_c, 0, 64, 95
1, 350153, Note_off_c, 0, 45, 64
1, 350166, Control_c, 0, 64, 127
1, 350218, Note_on_c, 0, 76, 83
1, 350232, Note_on_c, 0, 64, 71
1, 350248, Note_off_c, 0, 76, 65
1, 350250, Note_off_c, 0, 64, 66
1, 350319, Note_on_c, 0, 75, 85
1, 350321, Note_on_c, 0, 63, 84
1, 350325, Note_on_c, 0, 52, 70
1, 350329, Note_on_c, 0, 61, 79
1, 350343, Note_on_c, 0, 55, 68
1, 350355, Note_off_c, 0, 63, 59
1, 350363, Note_off_c, 0, 75, 58
1, 350395, Note_off_c, 0, 61, 61
1, 350397, Note_on_c, 0, 64, 82
1, 350400, Note_on_c, 0, 76, 89
1, 350411, Note_off_c, 0, 52, 59
1, 350412, Note_off_c, 0, 55, 60
1, 350437, Note_off_c, 0, 64, 63
1, 350438, Note_off_c, 0, 76, 67
1, 350498, Note_on_c, 0, 52, 74
1, 350498, Note_on_c, 0, 67, 95
1, 350500, Note_on_c, 0, 55, 71
1, 350501, Note_on_c, 0, 57, 73
1, 350503, Note_on_c, 0, 79, 87
1, 350521, Note_off_c, 0, 79, 68
1, 350527, Note_off_c, 0, 57, 67
1, 350529, Note_off_c, 0, 67, 62
1, 350530, Note_off_c, 0, 55, 65
1, 350545, Note_off_c, 0, 52, 62
1, 350628, Note_on_c, 0, 61, 75
1, 350632, Control_c, 0, 64, 110
1, 350634, Note_on_c, 0, 73, 71
1, 350647, Control_c, 0, 64, 64
1, 350653, Note_off_c, 0, 61, 67
1, 350661, Note_off_c, 0, 73, 63
1, 350662, Control_c, 0, 64, 0
1, 350692, Note_on_c, 0, 50, 94
1, 350693, Note_on_c, 0, 62, 92
1, 350694, Note_on_c, 0, 74, 96
1, 350698, Note_on_c, 0, 38, 85
1, 350706, Control_c, 0, 64, 30
1, 350721, Control_c, 0, 64, 56
1, 350726, Note_off_c, 0, 38, 67
1, 350733, Note_off_c, 0, 50, 64
1, 350735, Note_off_c, 0, 62, 66
1, 350736, Control_c, 0, 64, 74
1, 350738, Note_off_c, 0, 74, 68
1, 350741, Note_on_c, 0, 40, 24
1, 350751, Control_c, 0, 64, 127
1, 350785, Note_off_c, 0, 40, 51
1, 350900, Control_c, 0, 64, 85
1, 350915, Control_c, 0, 64, 57
1, 350924, Note_on_c, 0, 57, 73
1, 350932, Note_on_c, 0, 54, 60
1, 350937, Control_c, 0, 64, 0
1, 350958, Note_off_c, 0, 57, 64
1, 350966, Note_off_c, 0, 54, 63
1, 351124, Note_on_c, 0, 74, 95
1, 351139, Note_on_c, 0, 54, 73
1, 351147, Note_on_c, 0, 69, 68
1, 351150, Note_on_c, 0, 62, 75
1, 351159, Note_on_c, 0, 57, 20
1, 351159, Note_off_c, 0, 57, 127
1, 351162, Note_off_c, 0, 54, 66
1, 351168, Note_on_c, 0, 66, 56
1, 351273, Note_off_c, 0, 62, 62
1, 351279, Note_off_c, 0, 69, 61
1, 351291, Note_off_c, 0, 66, 63
1, 351307, Control_c, 0, 64, 48
1, 351308, Note_on_c, 0, 33, 89
1, 351311, Note_on_c, 0, 45, 93
1, 351316, Note_off_c, 0, 74, 64
1, 351322, Control_c, 0, 64, 87
1, 351335, Note_off_c, 0, 33, 69
1, 351337, Control_c, 0, 64, 127
1, 351344, Note_off_c, 0, 45, 63
1, 351472, Note_on_c, 0, 78, 90
1, 351481, Note_on_c, 0, 66, 93
1, 351484, Note_on_c, 0, 57, 84
1, 351501, Note_on_c, 0, 54, 59
1, 351508, Note_off_c, 0, 66, 65
1, 351511, Note_off_c, 0, 78, 66
1, 351523, Note_off_c, 0, 57, 61
1, 351531, Note_off_c, 0, 54, 64
1, 351648, Note_on_c, 0, 57, 68
1, 351650, Note_on_c, 0, 54, 72
1, 351684, Note_off_c, 0, 57, 67
1, 351690, Note_off_c, 0, 54, 65
1, 351724, Note_on_c, 0, 69, 89
1, 351726, Note_on_c, 0, 62, 81
1, 351746, Note_off_c, 0, 69, 67
1, 351748, Note_off_c, 0, 62, 71
1, 351760, Control_c, 0, 64, 93
1, 351774, Control_c, 0, 64, 59
1, 351789, Control_c, 0, 64, 0
1, 351790, Note_on_c, 0, 66, 57
1, 351792, Note_on_c, 0, 74, 98
1, 351798, Note_on_c, 0, 62, 94
1, 351806, Note_on_c, 0, 50, 91
1, 351812, Note_on_c, 0, 38, 85
1, 351825, Note_off_c, 0, 62, 65
1, 351833, Control_c, 0, 64, 54
1, 351837, Note_off_c, 0, 74, 68
1, 351843, Note_off_c, 0, 38, 69
1, 351848, Control_c, 0, 64, 67
1, 351850, Note_off_c, 0, 66, 64
1, 351851, Note_off_c, 0, 50, 65
1, 351863, Control_c, 0, 64, 86
1, 351878, Control_c, 0, 64, 127
1, 351985, Note_on_c, 0, 57, 82
1, 351994, Note_on_c, 0, 54, 68
1, 352012, Control_c, 0, 64, 95
1, 352015, Note_off_c, 0, 57, 64
1, 352022, Note_off_c, 0, 54, 65
1, 352026, Control_c, 0, 64, 56
1, 352041, Control_c, 0, 64, 0
1, 352168, Note_on_c, 0, 54, 63
1, 352169, Note_on_c, 0, 74, 87
1, 352179, Note_on_c, 0, 69, 68
1, 352185, Note_on_c, 0, 62, 67
1, 352185, Note_on_c, 0, 66, 67
1, 352190, Note_off_c, 0, 54, 58
1, 352292, Note_off_c, 0, 62, 62
1, 352310, Note_off_c, 0, 66, 63
1, 352311, Note_off_c, 0, 69, 62
1, 352331, Note_off_c, 0, 74, 64
1, 352339, Note_on_c, 0, 45, 87
1, 352340, Note_on_c, 0, 33, 85
1, 352352, Control_c, 0, 64, 44
1, 352367, Control_c, 0, 64, 80
1, 352368, Note_off_c, 0, 33, 69
1, 352380, Note_off_c, 0, 45, 63
1, 352382, Control_c, 0, 64, 127
1, 352523, Note_on_c, 0, 81, 93
1, 352532, Note_on_c, 0, 57, 64
1, 352532, Note_on_c, 0, 69, 85
1, 352540, Note_on_c, 0, 54, 63
1, 352557, Note_off_c, 0, 69, 64
1, 352566, Note_off_c, 0, 57, 63
1, 352566, Note_off_c, 0, 81, 66
1, 352573, Note_off_c, 0, 54, 62
1, 352675, Note_on_c, 0, 57, 58
1, 352677, Note_on_c, 0, 54, 70
1, 352705, Note_off_c, 0, 57, 65
1, 352711, Note_off_c, 0, 54, 64
1, 352736, Note_on_c, 0, 66, 86
1, 352738, Note_on_c, 0, 78, 76
1, 352761, Note_off_c, 0, 78, 64
1, 352769, Note_off_c, 0, 66, 63
1, 352775, Control_c, 0, 64, 73
1, 352790, Control_c, 0, 64, 0
1, 352817, Note_on_c, 0, 76, 95
1, 352818, Note_on_c, 0, 64, 99
1, 352820, Note_on_c, 0, 47, 91
1, 352825, Note_on_c, 0, 35, 87
1, 352850, Note_off_c, 0, 35, 70
1, 352859, Note_off_c, 0, 47, 66
1, 352879, Control_c, 0, 64, 57
1, 352894, Control_c, 0, 64, 78
1, 352909, Control_c, 0, 64, 127
1, 352976, Note_off_c, 0, 64, 61
1, 352990, Note_on_c, 0, 62, 95
1, 352993, Note_on_c, 0, 52, 89
1, 352999, Note_off_c, 0, 76, 61
1, 353001, Note_on_c, 0, 56, 79
1, 353035, Note_off_c, 0, 62, 63
1, 353040, Note_off_c, 0, 52, 62
1, 353040, Note_off_c, 0, 56, 57
1, 353174, Note_on_c, 0, 76, 96
1, 353175, Note_on_c, 0, 71, 85
1, 353177, Note_on_c, 0, 64, 93
1, 353177, Note_on_c, 0, 52, 84
1, 353180, Note_on_c, 0, 68, 82
1, 353183, Note_on_c, 0, 56, 75
1, 353204, Note_off_c, 0, 52, 63
1, 353206, Note_off_c, 0, 56, 69
1, 353215, Note_on_c, 0, 62, 4
1, 353263, Note_off_c, 0, 62, 44
1, 353306, Poly_aftertouch_c, 0, 73, 127
1, 353309, Note_off_c, 0, 64, 61
1, 353327, Note_off_c, 0, 71, 59
1, 353339, Note_off_c, 0, 68, 59
1, 353361, Control_c, 0, 64, 66
1, 353365, Note_off_c, 0, 76, 64
1, 353370, Poly_aftertouch_c, 0, 73, 0
1, 353376, Control_c, 0, 64, 38
1, 353387, Note_on_c, 0, 40, 99
1, 353389, Note_on_c, 0, 28, 103
1, 353390, Control_c, 0, 64, 46
1, 353405, Control_c, 0, 64, 62
1, 353420, Control_c, 0, 64, 71
1, 353428, Note_off_c, 0, 28, 67
1, 353432, Note_off_c, 0, 40, 64
1, 353435, Control_c, 0, 64, 89
1, 353450, Control_c, 0, 64, 127
1, 353553, Control_c, 0, 64, 119
1, 353568, Control_c, 0, 64, 63
1, 353583, Control_c, 0, 64, 0
1, 353595, Note_on_c, 0, 86, 98
1, 353596, Note_on_c, 0, 74, 99
1, 353613, Control_c, 0, 64, 39
1, 353619, Note_on_c, 0, 52, 79
1, 353619, Note_on_c, 0, 62, 77
1, 353622, Note_on_c, 0, 59, 69
1, 353628, Control_c, 0, 64, 61
1, 353638, Note_off_c, 0, 74, 67
1, 353642, Control_c, 0, 64, 75
1, 353645, Note_off_c, 0, 86, 67
1, 353652, Note_off_c, 0, 59, 63
1, 353656, Note_off_c, 0, 62, 59
1, 353657, Control_c, 0, 64, 127
1, 353675, Note_off_c, 0, 52, 59
1, 353790, Note_on_c, 0, 59, 65
1, 353792, Note_on_c, 0, 62, 64
1, 353800, Note_on_c, 0, 52, 72
1, 353812, Note_off_c, 0, 59, 66
1, 353813, Note_off_c, 0, 62, 65
1, 353830, Note_off_c, 0, 52, 66
1, 353880, Note_on_c, 0, 80, 89
1, 353884, Note_on_c, 0, 68, 88
1, 353973, Note_off_c, 0, 68, 59
1, 354021, Control_c, 0, 64, 114
1, 354036, Control_c, 0, 64, 65
1, 354051, Control_c, 0, 64, 0
1, 354055, Note_on_c, 0, 33, 84
1, 354055, Note_on_c, 0, 45, 92
1, 354082, Note_off_c, 0, 80, 49
1, 354091, Note_off_c, 0, 33, 64
1, 354102, Note_on_c, 0, 83, 94
1, 354105, Note_on_c, 0, 71, 103
1, 354109, Note_off_c, 0, 45, 64
1, 354110, Control_c, 0, 64, 42
1, 354121, Note_on_c, 0, 80, 51
1, 354125, Control_c, 0, 64, 63
1, 354132, Note_off_c, 0, 71, 67
1, 354140, Note_off_c, 0, 83, 68
1, 354140, Control_c, 0, 64, 80
1, 354142, Note_off_c, 0, 80, 61
1, 354155, Control_c, 0, 64, 127
1, 354272, Note_on_c, 0, 58, 18
1, 354317, Note_off_c, 0, 58, 37
1, 354323, Note_on_c, 0, 61, 75
1, 354328, Note_on_c, 0, 57, 57
1, 354334, Note_on_c, 0, 52, 66
1, 354377, Control_c, 0, 64, 99
1, 354382, Note_on_c, 0, 69, 86
1, 354382, Note_on_c, 0, 76, 84
1, 354392, Control_c, 0, 64, 61
1, 354394, Note_off_c, 0, 57, 63
1, 354394, Note_off_c, 0, 61, 57
1, 354397, Note_on_c, 0, 73, 52
1, 354400, Note_off_c, 0, 69, 72
1, 354401, Note_off_c, 0, 76, 71
1, 354402, Note_on_c, 0, 81, 49
1, 354407, Control_c, 0, 64, 0
1, 354419, Note_off_c, 0, 73, 59
1, 354431, Note_off_c, 0, 81, 0
1, 354431, Note_on_c, 0, 81, 57
1, 354435, Note_on_c, 0, 69, 87
1, 354436, Control_c, 0, 64, 34
1, 354437, Note_on_c, 0, 76, 83
1, 354444, Note_on_c, 0, 73, 76
1, 354451, Control_c, 0, 64, 58
1, 354457, Note_on_c, 0, 64, 72
1, 354458, Note_on_c, 0, 61, 52
1, 354466, Control_c, 0, 64, 72
1, 354474, Note_on_c, 0, 57, 39
1, 354481, Control_c, 0, 64, 127
1, 354487, Note_off_c, 0, 52, 61
1, 354492, Note_off_c, 0, 76, 63
1, 354501, Note_off_c, 0, 81, 64
1, 354505, Note_off_c, 0, 57, 64
1, 354509, Note_off_c, 0, 61, 60
1, 354514, Note_off_c, 0, 69, 58
1, 354515, Note_off_c, 0, 64, 63
1, 354522, Note_off_c, 0, 73, 63
1, 354689, Note_on_c, 0, 69, 68
1, 354701, Note_on_c, 0, 64, 51
1, 354704, Note_on_c, 0, 57, 53
1, 354712, Note_on_c, 0, 61, 47
1, 354714, Note_off_c, 0, 69, 66
1, 354733, Note_off_c, 0, 64, 66
1, 354745, Note_off_c, 0, 57, 63
1, 354750, Note_off_c, 0, 61, 63
1, 354784, Control_c, 0, 64, 113
1, 354799, Control_c, 0, 64, 99
1, 354814, Control_c, 0, 64, 90
1, 354829, Control_c, 0, 64, 82
1, 354844, Control_c, 0, 64, 75
1, 354850, Note_on_c, 0, 69, 36
1, 354859, Control_c, 0, 64, 69
1, 354874, Control_c, 0, 64, 64
1, 354877, Note_off_c, 0, 69, 55
1, 354889, Control_c, 0, 64, 61
1, 354900, Note_on_c, 0, 71, 58
1, 354904, Control_c, 0, 64, 59
1, 354918, Control_c, 0, 64, 56
1, 354922, Note_off_c, 0, 71, 63
1, 354933, Control_c, 0, 64, 54
1, 354948, Control_c, 0, 64, 52
1, 354952, Note_on_c, 0, 72, 60
1, 354963, Control_c, 0, 64, 47
1, 354972, Note_off_c, 0, 72, 63
1, 354978, Control_c, 0, 64, 42
1, 354993, Note_on_c, 0, 74, 68
1, 354993, Control_c, 0, 64, 34
1, 355008, Control_c, 0, 64, 0
1, 355011, Note_off_c, 0, 74, 64
1, 355037, Note_on_c, 0, 76, 59
1, 355056, Note_off_c, 0, 76, 63
1, 355068, Note_on_c, 0, 77, 65
1, 355088, Note_off_c, 0, 77, 63
1, 355100, Note_on_c, 0, 79, 61
1, 355118, Note_off_c, 0, 79, 64
1, 355130, Note_on_c, 0, 81, 67
1, 355147, Note_off_c, 0, 81, 65
1, 355165, Note_on_c, 0, 83, 66
1, 355183, Note_off_c, 0, 83, 64
1, 355197, Note_on_c, 0, 84, 67
1, 355213, Note_off_c, 0, 84, 65
1, 355232, Note_on_c, 0, 86, 67
1, 355249, Note_off_c, 0, 86, 64
1, 355259, Control_c, 0, 64, 41
1, 355266, Note_on_c, 0, 88, 68
1, 355274, Control_c, 0, 64, 59
1, 355283, Note_off_c, 0, 88, 65
1, 355289, Control_c, 0, 64, 67
1, 355304, Control_c, 0, 64, 72
1, 355306, Note_on_c, 0, 89, 62
1, 355318, Control_c, 0, 64, 79
1, 355324, Note_off_c, 0, 89, 61
1, 355333, Control_c, 0, 64, 89
1, 355348, Control_c, 0, 64, 101
1, 355354, Note_on_c, 0, 91, 59
1, 355362, Control_c, 0, 64, 120
1, 355374, Note_off_c, 0, 91, 61
1, 355377, Control_c, 0, 64, 127
1, 355517, Control_c, 0, 67, 41
1, 355527, Note_on_c, 0, 93, 56
1, 355532, Control_c, 0, 64, 94
1, 355532, Control_c, 0, 67, 79
1, 355547, Control_c, 0, 64, 69
1, 355547, Control_c, 0, 67, 115
1, 355552, Note_on_c, 0, 41, 44
1, 355562, Control_c, 0, 64, 53
1, 355562, Control_c, 0, 67, 127
1, 355567, Note_on_c, 0, 53, 30
1, 355592, Control_c, 0, 64, 60
1, 355607, Control_c, 0, 64, 66
1, 355608, Note_off_c, 0, 93, 38
1, 355622, Control_c, 0, 64, 72
1, 355637, Control_c, 0, 64, 82
1, 355643, Note_off_c, 0, 41, 63
1, 355652, Note_off_c, 0, 53, 56
1, 355652, Control_c, 0, 64, 93
1, 355666, Control_c, 0, 64, 107
1, 355681, Control_c, 0, 64, 127
1, 355971, Note_on_c, 0, 57, 43
1, 355975, Note_on_c, 0, 65, 35
1, 355978, Note_on_c, 0, 60, 33
1, 356015, Note_off_c, 0, 60, 54
1, 356021, Note_off_c, 0, 57, 60
1, 356024, Note_off_c, 0, 65, 51
1, 356107, Note_on_c, 0, 88, 56
1, 356124, Note_on_c, 0, 76, 18
1, 356132, Note_off_c, 0, 88, 53
1, 356140, Control_c, 0, 64, 107
1, 356155, Control_c, 0, 64, 87
1, 356171, Note_off_c, 0, 76, 44
1, 356178, Control_c, 0, 64, 72
1, 356192, Control_c, 0, 64, 61
1, 356194, Note_on_c, 0, 77, 70
1, 356205, Note_on_c, 0, 89, 55
1, 356206, Note_on_c, 0, 65, 16
1, 356207, Note_on_c, 0, 57, 47
1, 356207, Control_c, 0, 64, 50
1, 356222, Control_c, 0, 64, 32
1, 356231, Note_off_c, 0, 77, 59
1, 356237, Note_off_c, 0, 89, 64
1, 356237, Control_c, 0, 64, 0
1, 356239, Note_off_c, 0, 57, 65
1, 356245, Note_off_c, 0, 65, 29
1, 356414, Note_on_c, 0, 36, 58
1, 356430, Control_c, 0, 64, 40
1, 356442, Note_off_c, 0, 36, 63
1, 356444, Note_on_c, 0, 48, 28
1, 356445, Control_c, 0, 64, 59
1, 356460, Control_c, 0, 64, 67
1, 356475, Control_c, 0, 64, 74
1, 356487, Note_off_c, 0, 48, 38
1, 356489, Control_c, 0, 64, 84
1, 356504, Control_c, 0, 64, 96
1, 356519, Control_c, 0, 64, 117
1, 356534, Control_c, 0, 64, 127
1, 356534, Control_c, 0, 67, 101
1, 356549, Control_c, 0, 67, 50
1, 356564, Control_c, 0, 67, 0
1, 356621, Note_on_c, 0, 69, 53
1, 356633, Note_on_c, 0, 57, 39
1, 356644, Note_on_c, 0, 71, 71
1, 356646, Note_off_c, 0, 69, 59
1, 356661, Note_off_c, 0, 71, 65
1, 356667, Poly_aftertouch_c, 0, 65, 127
1, 356670, Note_off_c, 0, 57, 61
1, 356674, Note_on_c, 0, 72, 72
1, 356689, Note_off_c, 0, 72, 67
1, 356699, Note_on_c, 0, 74, 78
1, 356714, Note_off_c, 0, 74, 68
1, 356723, Poly_aftertouch_c, 0, 65, 0
1, 356728, Note_on_c, 0, 76, 72
1, 356742, Note_off_c, 0, 76, 67
1, 356749, Note_on_c, 0, 60, 10
1, 356749, Note_on_c, 0, 77, 71
1, 356760, Poly_aftertouch_c, 0, 65, 127
1, 356760, Note_on_c, 0, 57, 58
1, 356766, Note_off_c, 0, 77, 41
1, 356769, Note_on_c, 0, 79, 64
1, 356784, Note_off_c, 0, 57, 60
1, 356787, Note_on_c, 0, 81, 75
1, 356787, Note_off_c, 0, 60, 0
1, 356788, Note_off_c, 0, 79, 40
1, 356800, Poly_aftertouch_c, 0, 60, 0
1, 356802, Note_off_c, 0, 81, 42
1, 356803, Poly_aftertouch_c, 0, 65, 0
1, 356805, Note_on_c, 0, 83, 70
1, 356821, Note_on_c, 0, 84, 73
1, 356821, Note_off_c, 0, 83, 41
1, 356838, Note_off_c, 0, 84, 41
1, 356839, Note_on_c, 0, 86, 75
1, 356855, Note_off_c, 0, 86, 42
1, 356858, Note_on_c, 0, 88, 74
1, 356873, Note_off_c, 0, 88, 69
1, 356881, Note_on_c, 0, 89, 69
1, 356897, Note_off_c, 0, 89, 64
1, 356925, Note_on_c, 0, 91, 52
1, 356948, Note_off_c, 0, 91, 53
1, 357001, Control_c, 0, 64, 77
1, 357015, Control_c, 0, 64, 55
1, 357030, Control_c, 0, 64, 0
1, 357045, Note_on_c, 0, 93, 73
1, 357054, Note_on_c, 0, 41, 46
1, 357060, Control_c, 0, 64, 36
1, 357065, Note_on_c, 0, 53, 42
1, 357075, Control_c, 0, 64, 51
1, 357076, Note_off_c, 0, 93, 65
1, 357084, Note_off_c, 0, 41, 61
1, 357089, Control_c, 0, 64, 61
1, 357101, Note_off_c, 0, 53, 64
1, 357104, Control_c, 0, 64, 66
1, 357119, Control_c, 0, 64, 74
1, 357134, Control_c, 0, 64, 89
1, 357148, Control_c, 0, 64, 105
1, 357163, Control_c, 0, 64, 127
1, 357324, Note_on_c, 0, 57, 42
1, 357331, Note_on_c, 0, 65, 38
1, 357333, Note_on_c, 0, 60, 37
1, 357360, Note_off_c, 0, 65, 54
1, 357363, Note_off_c, 0, 60, 55
1, 357363, Note_off_c, 0, 57, 62
1, 357396, Note_on_c, 0, 76, 66
1, 357397, Note_on_c, 0, 88, 73
1, 357413, Note_off_c, 0, 76, 66
1, 357419, Note_off_c, 0, 88, 69
1, 357461, Control_c, 0, 64, 92
1, 357465, Note_on_c, 0, 65, 52
1, 357470, Note_on_c, 0, 77, 78
1, 357473, Note_on_c, 0, 89, 73
1, 357475, Note_on_c, 0, 57, 57
1, 357476, Control_c, 0, 64, 71
1, 357476, Note_on_c, 0, 60, 45
1, 357491, Note_off_c, 0, 65, 56
1, 357491, Control_c, 0, 64, 54
1, 357500, Note_off_c, 0, 60, 56
1, 357503, Note_off_c, 0, 89, 63
1, 357506, Control_c, 0, 64, 0
1, 357506, Note_off_c, 0, 57, 65
1, 357517, Note_off_c, 0, 77, 60
1, 357637, Control_c, 0, 64, 31
1, 357642, Note_on_c, 0, 48, 79
1, 357647, Note_on_c, 0, 36, 60
1, 357652, Control_c, 0, 64, 55
1, 357675, Control_c, 0, 64, 71
1, 357680, Note_off_c, 0, 48, 67
1, 357683, Note_off_c, 0, 36, 57
1, 357690, Control_c, 0, 64, 87
1, 357705, Control_c, 0, 64, 127
1, 357837, Note_on_c, 0, 69, 50
1, 357846, Note_on_c, 0, 65, 47
1, 357847, Note_on_c, 0, 57, 50
1, 357852, Note_on_c, 0, 60, 44
1, 357856, Note_on_c, 0, 71, 65
1, 357863, Note_off_c, 0, 69, 57
1, 357875, Note_off_c, 0, 71, 63
1, 357876, Note_on_c, 0, 72, 65
1, 357878, Note_off_c, 0, 65, 53
1, 357884, Note_off_c, 0, 57, 62
1, 357884, Note_off_c, 0, 60, 62
1, 357889, Poly_aftertouch_c, 0, 67, 0
1, 357893, Note_on_c, 0, 74, 74
1, 357895, Note_off_c, 0, 72, 40
1, 357910, Note_off_c, 0, 74, 41
1, 357912, Note_on_c, 0, 76, 69
1, 357912, Note_off_c, 0, 76, 127
1, 357928, Note_on_c, 0, 77, 74
1, 357928, Note_off_c, 0, 77, 127
1, 357944, Note_on_c, 0, 79, 71
1, 357944, Note_off_c, 0, 79, 127
1, 357956, Note_on_c, 0, 81, 75
1, 357956, Note_off_c, 0, 81, 127
1, 357962, Note_on_c, 0, 57, 64
1, 357971, Note_on_c, 0, 83, 77
1, 357984, Note_on_c, 0, 84, 80
1, 357984, Note_off_c, 0, 84, 127
1, 357986, Note_off_c, 0, 83, 42
1, 357989, Note_off_c, 0, 57, 67
1, 357998, Note_on_c, 0, 86, 84
1, 357998, Note_off_c, 0, 86, 127
1, 358012, Note_on_c, 0, 88, 86
1, 358026, Note_off_c, 0, 88, 44
1, 358027, Note_on_c, 0, 89, 83
1, 358042, Note_off_c, 0, 89, 43
1, 358043, Note_on_c, 0, 91, 88
1, 358056, Note_off_c, 0, 91, 69
1, 358061, Note_on_c, 0, 93, 87
1, 358084, Note_off_c, 0, 93, 66
1, 358085, Note_on_c, 0, 95, 82
1, 358109, Note_off_c, 0, 95, 69
1, 358126, Note_on_c, 0, 96, 45
1, 358135, Control_c, 0, 64, 102
1, 358150, Control_c, 0, 64, 63
1, 358156, Poly_aftertouch_c, 0, 88, 0
1, 358160, Note_off_c, 0, 96, 45
1, 358164, Control_c, 0, 64, 0
1, 358200, Note_on_c, 0, 40, 58
1, 358212, Note_on_c, 0, 98, 92
1, 358220, Note_on_c, 0, 52, 52
1, 358224, Control_c, 0, 64, 44
1, 358231, Note_off_c, 0, 40, 61
1, 358239, Control_c, 0, 64, 59
1, 358249, Note_off_c, 0, 52, 63
1, 358251, Note_off_c, 0, 98, 67
1, 358254, Control_c, 0, 64, 69
1, 358268, Control_c, 0, 64, 78
1, 358283, Control_c, 0, 64, 87
1, 358298, Control_c, 0, 64, 96
1, 358313, Control_c, 0, 64, 105
1, 358328, Control_c, 0, 64, 115
1, 358342, Control_c, 0, 64, 127
1, 358441, Note_on_c, 0, 67, 45
1, 358444, Note_on_c, 0, 58, 47
1, 358444, Note_on_c, 0, 60, 48
1, 358473, Note_off_c, 0, 67, 57
1, 358483, Note_off_c, 0, 58, 61
1, 358491, Note_off_c, 0, 60, 59
1, 358518, Note_on_c, 0, 83, 71
1, 358518, Note_on_c, 0, 95, 79
1, 358533, Note_off_c, 0, 83, 68
1, 358547, Note_off_c, 0, 95, 64
1, 358557, Control_c, 0, 64, 122
1, 358572, Control_c, 0, 64, 76
1, 358577, Note_on_c, 0, 67, 54
1, 358582, Note_on_c, 0, 96, 86
1, 358585, Note_on_c, 0, 84, 86
1, 358586, Control_c, 0, 64, 53
1, 358591, Note_on_c, 0, 58, 59
1, 358591, Note_on_c, 0, 60, 59
1, 358599, Note_off_c, 0, 67, 61
1, 358601, Control_c, 0, 64, 0
1, 358623, Note_off_c, 0, 60, 67
1, 358623, Note_off_c, 0, 96, 66
1, 358626, Note_off_c, 0, 58, 66
1, 358627, Note_off_c, 0, 84, 65
1, 358771, Note_on_c, 0, 48, 83
1, 358773, Note_on_c, 0, 36, 68
1, 358779, Control_c, 0, 64, 55
1, 358793, Control_c, 0, 64, 77
1, 358798, Note_off_c, 0, 48, 66
1, 358802, Note_off_c, 0, 36, 63
1, 358808, Control_c, 0, 64, 118
1, 358823, Control_c, 0, 64, 127
1, 358945, Note_on_c, 0, 64, 62
1, 358946, Note_on_c, 0, 55, 54
1, 358948, Note_on_c, 0, 67, 45
1, 358959, Note_on_c, 0, 69, 63
1, 358969, Note_on_c, 0, 58, 46
1, 358976, Note_off_c, 0, 67, 55
1, 358978, Note_off_c, 0, 69, 65
1, 358979, Note_on_c, 0, 71, 72
1, 358981, Note_off_c, 0, 64, 62
1, 358996, Note_off_c, 0, 71, 67
1, 358996, Note_off_c, 0, 58, 56
1, 358998, Note_on_c, 0, 72, 68
1, 358998, Note_off_c, 0, 55, 58
1, 359013, Note_on_c, 0, 74, 80
1, 359013, Note_off_c, 0, 72, 67
1, 359029, Note_off_c, 0, 74, 42
1, 359030, Note_on_c, 0, 76, 72
1, 359030, Note_off_c, 0, 76, 127
1, 359044, Note_on_c, 0, 77, 76
1, 359044, Note_off_c, 0, 77, 127
1, 359059, Note_on_c, 0, 79, 69
1, 359059, Note_off_c, 0, 79, 127
1, 359070, Note_on_c, 0, 81, 78
1, 359070, Note_off_c, 0, 81, 127
1, 359071, Note_on_c, 0, 58, 74
1, 359078, Note_on_c, 0, 55, 57
1, 359083, Note_on_c, 0, 83, 75
1, 359083, Note_off_c, 0, 83, 127
1, 359095, Note_on_c, 0, 84, 77
1, 359095, Note_off_c, 0, 84, 127
1, 359095, Note_off_c, 0, 58, 66
1, 359106, Note_on_c, 0, 86, 82
1, 359111, Note_off_c, 0, 55, 64
1, 359118, Note_on_c, 0, 88, 87
1, 359121, Note_off_c, 0, 86, 43
1, 359127, Poly_aftertouch_c, 0, 64, 127
1, 359130, Note_off_c, 0, 88, 70
1, 359132, Note_on_c, 0, 89, 83
1, 359145, Note_off_c, 0, 89, 68
1, 359146, Note_on_c, 0, 91, 86
1, 359166, Note_off_c, 0, 91, 72
1, 359171, Note_on_c, 0, 93, 89
1, 359175, Poly_aftertouch_c, 0, 64, 0
1, 359185, Note_off_c, 0, 93, 68
1, 359192, Note_on_c, 0, 95, 86
1, 359206, Note_off_c, 0, 95, 69
1, 359225, Note_on_c, 0, 96, 57
1, 359247, Note_off_c, 0, 96, 59
1, 359261, Control_c, 0, 64, 76
1, 359276, Control_c, 0, 64, 0
1, 359320, Note_on_c, 0, 98, 84
1, 359323, Note_on_c, 0, 40, 54
1, 359328, Note_on_c, 0, 52, 67
1, 359350, Control_c, 0, 64, 45
1, 359352, Note_off_c, 0, 40, 59
1, 359358, Note_off_c, 0, 52, 64
1, 359360, Note_off_c, 0, 98, 66
1, 359365, Control_c, 0, 64, 62
1, 359380, Control_c, 0, 64, 75
1, 359395, Control_c, 0, 64, 89
1, 359409, Control_c, 0, 64, 104
1, 359424, Control_c, 0, 64, 127
1, 359524, Note_on_c, 0, 67, 57
1, 359541, Note_on_c, 0, 58, 48
1, 359545, Note_on_c, 0, 60, 50
1, 359565, Note_off_c, 0, 67, 61
1, 359565, Poly_aftertouch_c, 0, 61, 127
1, 359580, Note_off_c, 0, 60, 58
1, 359580, Note_off_c, 0, 58, 60
1, 359604, Poly_aftertouch_c, 0, 61, 0
1, 359607, Note_on_c, 0, 94, 86
1, 359612, Note_on_c, 0, 82, 74
1, 359635, Note_off_c, 0, 82, 69
1, 359662, Control_c, 0, 64, 101
1, 359664, Note_off_c, 0, 94, 63
1, 359677, Control_c, 0, 64, 82
1, 359692, Control_c, 0, 64, 68
1, 359706, Control_c, 0, 64, 60
1, 359721, Control_c, 0, 64, 51
1, 359736, Control_c, 0, 64, 39
1, 359739, Note_on_c, 0, 67, 55
1, 359751, Control_c, 0, 64, 0
1, 359754, Note_on_c, 0, 58, 45
1, 359759, Note_on_c, 0, 60, 43
1, 359762, Note_off_c, 0, 67, 60
1, 359784, Note_off_c, 0, 60, 60
1, 359801, Note_off_c, 0, 58, 63
1, 359824, Note_on_c, 0, 100, 77
1, 359840, Note_on_c, 0, 88, 57
1, 359951, Control_c, 0, 67, 65
1, 359965, Control_c, 0, 67, 95
1, 359980, Control_c, 0, 64, 47
1, 359980, Control_c, 0, 67, 118
1, 359995, Control_c, 0, 64, 64
1, 359995, Control_c, 0, 67, 127
1, 360007, Note_on_c, 0, 36, 64
1, 360007, Note_off_c, 0, 88, 61
1, 360008, Note_off_c, 0, 100, 61
1, 360010, Control_c, 0, 64, 71
1, 360024, Note_on_c, 0, 48, 57
1, 360025, Control_c, 0, 64, 80
1, 360034, Note_off_c, 0, 36, 63
1, 360039, Control_c, 0, 64, 88
1, 360052, Note_off_c, 0, 48, 54
1, 360054, Control_c, 0, 64, 95
1, 360069, Control_c, 0, 64, 103
1, 360084, Control_c, 0, 64, 109
1, 360099, Control_c, 0, 64, 122
1, 360108, Note_on_c, 0, 98, 75
1, 360111, Note_on_c, 0, 86, 67
1, 360114, Control_c, 0, 64, 127
1, 360138, Note_off_c, 0, 86, 68
1, 360145, Note_off_c, 0, 98, 60
1, 360208, Note_on_c, 0, 96, 75
1, 360214, Note_on_c, 0, 64, 53
1, 360214, Note_on_c, 0, 84, 71
1, 360224, Note_on_c, 0, 55, 44
1, 360231, Note_off_c, 0, 96, 70
1, 360235, Note_off_c, 0, 84, 72
1, 360252, Note_on_c, 0, 58, 29
1, 360254, Note_off_c, 0, 64, 62
1, 360278, Note_off_c, 0, 55, 56
1, 360289, Note_off_c, 0, 58, 44
1, 360308, Note_on_c, 0, 91, 85
1, 360311, Note_on_c, 0, 79, 81
1, 360332, Note_off_c, 0, 91, 66
1, 360336, Note_off_c, 0, 79, 63
1, 360396, Note_on_c, 0, 58, 59
1, 360397, Note_on_c, 0, 93, 92
1, 360400, Note_on_c, 0, 55, 62
1, 360403, Note_on_c, 0, 81, 77
1, 360405, Note_on_c, 0, 64, 31
1, 360420, Note_off_c, 0, 81, 67
1, 360425, Note_off_c, 0, 58, 65
1, 360427, Note_off_c, 0, 93, 61
1, 360430, Note_off_c, 0, 55, 68
1, 360435, Note_off_c, 0, 64, 56
1, 360488, Note_on_c, 0, 94, 84
1, 360489, Note_on_c, 0, 82, 79
1, 360500, Control_c, 0, 64, 79
1, 360515, Control_c, 0, 64, 55
1, 360516, Note_off_c, 0, 82, 61
1, 360516, Note_off_c, 0, 94, 62
1, 360529, Control_c, 0, 64, 0
1, 360573, Note_on_c, 0, 93, 94
1, 360578, Note_on_c, 0, 81, 81
1, 360580, Note_on_c, 0, 53, 54
1, 360587, Note_on_c, 0, 41, 48
1, 360598, Note_off_c, 0, 81, 70
1, 360604, Control_c, 0, 64, 38
1, 360606, Note_off_c, 0, 93, 61
1, 360610, Note_off_c, 0, 53, 65
1, 360619, Control_c, 0, 64, 58
1, 360621, Note_off_c, 0, 41, 55
1, 360634, Control_c, 0, 64, 69
1, 360634, Control_c, 0, 67, 111
1, 360649, Control_c, 0, 64, 79
1, 360649, Control_c, 0, 67, 54
1, 360671, Control_c, 0, 64, 94
1, 360671, Control_c, 0, 67, 0
1, 360686, Control_c, 0, 64, 118
1, 360701, Control_c, 0, 64, 127
1, 360812, Note_on_c, 0, 57, 28
1, 360849, Note_off_c, 0, 57, 48
1, 360850, Poly_aftertouch_c, 0, 60, 127
1, 360873, Note_on_c, 0, 76, 58
1, 360874, Note_on_c, 0, 88, 60
1, 360891, Poly_aftertouch_c, 0, 60, 0
1, 360892, Note_off_c, 0, 76, 62
1, 360896, Note_off_c, 0, 88, 61
1, 360937, Note_on_c, 0, 57, 60
1, 360940, Note_on_c, 0, 77, 83
1, 360944, Note_on_c, 0, 89, 79
1, 360963, Note_on_c, 0, 65, 14
1, 360967, Note_off_c, 0, 89, 67
1, 360971, Note_off_c, 0, 57, 65
1, 360980, Note_off_c, 0, 77, 55
1, 360994, Poly_aftertouch_c, 0, 60, 127
1, 361007, Note_off_c, 0, 65, 52
1, 361017, Poly_aftertouch_c, 0, 60, 0
1, 361056, Control_c, 0, 64, 92
1, 361071, Control_c, 0, 64, 65
1, 361086, Control_c, 0, 64, 37
1, 361101, Control_c, 0, 64, 0
1, 361104, Note_on_c, 0, 48, 86
1, 361105, Note_on_c, 0, 36, 75
1, 361115, Control_c, 0, 64, 48
1, 361128, Note_off_c, 0, 36, 65
1, 361130, Control_c, 0, 64, 63
1, 361136, Note_off_c, 0, 48, 68
1, 361145, Control_c, 0, 64, 71
1, 361160, Control_c, 0, 64, 89
1, 361175, Control_c, 0, 64, 127
1, 361289, Note_on_c, 0, 65, 59
1, 361294, Note_on_c, 0, 57, 58
1, 361296, Note_on_c, 0, 60, 60
1, 361305, Note_on_c, 0, 69, 34
1, 361305, Note_off_c, 0, 69, 127
1, 361310, Note_on_c, 0, 71, 66
1, 361323, Note_off_c, 0, 65, 62
1, 361327, Note_on_c, 0, 72, 70
1, 361329, Note_off_c, 0, 60, 64
1, 361330, Note_off_c, 0, 71, 65
1, 361335, Note_off_c, 0, 57, 62
1, 361339, Poly_aftertouch_c, 0, 69, 0
1, 361345, Note_on_c, 0, 74, 79
1, 361345, Note_off_c, 0, 72, 41
1, 361360, Note_off_c, 0, 74, 42
1, 361363, Note_on_c, 0, 76, 72
1, 361363, Note_off_c, 0, 76, 127
1, 361377, Note_on_c, 0, 77, 76
1, 361377, Note_off_c, 0, 77, 127
1, 361390, Note_on_c, 0, 79, 76
1, 361411, Note_on_c, 0, 81, 86
1, 361414, Note_off_c, 0, 79, 42
1, 361420, Note_on_c, 0, 57, 68
1, 361425, Note_off_c, 0, 81, 44
1, 361426, Note_on_c, 0, 83, 81
1, 361440, Note_on_c, 0, 84, 83
1, 361440, Note_off_c, 0, 83, 43
1, 361446, Note_on_c, 0, 60, 18
1, 361448, Note_off_c, 0, 57, 67
1, 361454, Note_off_c, 0, 84, 44
1, 361455, Note_on_c, 0, 86, 88
1, 361468, Note_off_c, 0, 86, 45
1, 361470, Note_on_c, 0, 88, 88
1, 361482, Note_off_c, 0, 88, 72
1, 361489, Note_on_c, 0, 89, 84
1, 361490, Note_off_c, 0, 60, 40
1, 361508, Note_off_c, 0, 89, 64
1, 361521, Note_on_c, 0, 91, 64
1, 361542, Note_off_c, 0, 91, 66
1, 361561, Poly_aftertouch_c, 0, 81, 0
1, 361569, Poly_aftertouch_c, 0, 84, 127
1, 361582, Control_c, 0, 64, 94
1, 361590, Poly_aftertouch_c, 0, 84, 0
1, 361597, Control_c, 0, 64, 58
1, 361601, Poly_aftertouch_c, 0, 86, 0
1, 361611, Poly_aftertouch_c, 0, 88, 0
1, 361611, Control_c, 0, 64, 0
1, 361644, Note_on_c, 0, 93, 122
1, 361649, Note_on_c, 0, 41, 67
1, 361649, Note_on_c, 0, 53, 72
1, 361656, Control_c, 0, 64, 47
1, 361671, Control_c, 0, 64, 63
1, 361674, Note_off_c, 0, 41, 68
1, 361679, Note_off_c, 0, 93, 68
1, 361683, Note_off_c, 0, 53, 66
1, 361685, Control_c, 0, 64, 78
1, 361700, Control_c, 0, 64, 127
1, 361861, Note_on_c, 0, 57, 64
1, 361862, Note_on_c, 0, 60, 58
1, 361864, Note_on_c, 0, 65, 63
1, 361894, Note_off_c, 0, 65, 66
1, 361896, Note_off_c, 0, 60, 64
1, 361903, Note_off_c, 0, 57, 62
1, 361938, Note_on_c, 0, 88, 81
1, 361941, Note_on_c, 0, 76, 71
1, 361957, Note_off_c, 0, 76, 68
1, 361957, Note_off_c, 0, 88, 70
1, 361991, Note_on_c, 0, 65, 64
1, 361997, Note_on_c, 0, 60, 65
1, 362004, Note_on_c, 0, 77, 95
1, 362006, Note_on_c, 0, 57, 67
1, 362006, Note_on_c, 0, 89, 92
1, 362012, Note_off_c, 0, 65, 71
1, 362022, Note_off_c, 0, 60, 70
1, 362034, Note_off_c, 0, 57, 65
1, 362102, Control_c, 0, 64, 94
1, 362116, Control_c, 0, 64, 60
1, 362129, Note_off_c, 0, 89, 61
1, 362131, Control_c, 0, 64, 0
1, 362171, Note_on_c, 0, 48, 105
1, 362175, Note_on_c, 0, 36, 92
1, 362183, Control_c, 0, 64, 54
1, 362198, Note_off_c, 0, 36, 76
1, 362198, Note_off_c, 0, 77, 66
1, 362198, Control_c, 0, 64, 69
1, 362209, Note_off_c, 0, 48, 69
1, 362213, Control_c, 0, 64, 93
1, 362227, Control_c, 0, 64, 127
1, 362353, Note_on_c, 0, 65, 74
1, 362358, Note_on_c, 0, 60, 75
1, 362359, Note_on_c, 0, 57, 72
1, 362376, Note_on_c, 0, 69, 59
1, 362388, Note_off_c, 0, 65, 57
1, 362388, Note_on_c, 0, 71, 71
1, 362391, Note_off_c, 0, 60, 58
1, 362400, Note_off_c, 0, 57, 62
1, 362400, Note_off_c, 0, 69, 65
1, 362406, Note_on_c, 0, 72, 72
1, 362406, Note_off_c, 0, 71, 66
1, 362420, Note_on_c, 0, 74, 80
1, 362420, Note_off_c, 0, 74, 127
1, 362423, Note_off_c, 0, 72, 41
1, 362435, Note_on_c, 0, 76, 76
1, 362435, Note_off_c, 0, 76, 127
1, 362447, Note_on_c, 0, 77, 81
1, 362447, Note_off_c, 0, 77, 127
1, 362460, Note_on_c, 0, 79, 77
1, 362460, Note_off_c, 0, 79, 127
1, 362470, Note_on_c, 0, 81, 84
1, 362470, Note_off_c, 0, 81, 127
1, 362482, Note_on_c, 0, 83, 87
1, 362482, Note_off_c, 0, 83, 127
1, 362484, Note_on_c, 0, 57, 68
1, 362494, Note_on_c, 0, 84, 82
1, 362494, Note_off_c, 0, 84, 127
1, 362495, Note_on_c, 0, 65, 42
1, 362505, Note_on_c, 0, 86, 85
1, 362505, Note_off_c, 0, 86, 127
1, 362507, Note_on_c, 0, 60, 28
1, 362508, Note_off_c, 0, 57, 68
1, 362516, Note_off_c, 0, 65, 62
1, 362518, Note_on_c, 0, 88, 88
1, 362518, Note_off_c, 0, 88, 127
1, 362532, Note_on_c, 0, 89, 85
1, 362532, Note_off_c, 0, 89, 127
1, 362540, Note_off_c, 0, 60, 51
1, 362546, Note_on_c, 0, 91, 86
1, 362555, Note_on_c, 0, 81, 29
1, 362559, Note_off_c, 0, 91, 44
1, 362564, Note_on_c, 0, 93, 74
1, 362569, Note_on_c, 0, 83, 20
1, 362573, Poly_aftertouch_c, 0, 77, 127
1, 362581, Note_off_c, 0, 93, 42
1, 362584, Note_on_c, 0, 84, 8
1, 362585, Poly_aftertouch_c, 0, 79, 127
1, 362590, Note_on_c, 0, 86, 28
1, 362590, Note_off_c, 0, 81, 43
1, 362598, Note_on_c, 0, 95, 43
1, 362601, Poly_aftertouch_c, 0, 77, 0
1, 362608, Note_on_c, 0, 88, 23
1, 362609, Note_off_c, 0, 83, 39
1, 362612, Poly_aftertouch_c, 0, 79, 0
1, 362626, Note_off_c, 0, 95, 41
1, 362628, Note_off_c, 0, 86, 42
1, 362630, Note_off_c, 0, 84, 40
1, 362642, Control_c, 0, 64, 82
1, 362654, Note_off_c, 0, 88, 38
1, 362657, Control_c, 0, 64, 37
1, 362672, Control_c, 0, 64, 0
1, 362699, Note_on_c, 0, 40, 73
1, 362701, Note_on_c, 0, 52, 79
1, 362704, Note_on_c, 0, 98, 121
1, 362716, Control_c, 0, 64, 50
1, 362731, Control_c, 0, 64, 66
1, 362731, Note_off_c, 0, 40, 66
1, 362740, Note_off_c, 0, 52, 65
1, 362743, Note_off_c, 0, 98, 69
1, 362746, Control_c, 0, 64, 87
1, 362760, Control_c, 0, 64, 127
1, 362920, Note_on_c, 0, 60, 64
1, 362921, Note_on_c, 0, 67, 71
1, 362926, Note_on_c, 0, 58, 62
1, 362956, Note_off_c, 0, 67, 58
1, 362966, Note_off_c, 0, 58, 58
1, 362973, Note_off_c, 0, 60, 61
1, 362984, Note_on_c, 0, 95, 88
1, 362987, Note_on_c, 0, 83, 87
1, 363005, Note_off_c, 0, 83, 67
1, 363026, Note_off_c, 0, 95, 65
1, 363050, Note_on_c, 0, 60, 69
1, 363050, Note_on_c, 0, 67, 65
1, 363050, Note_on_c, 0, 58, 70
1, 363053, Note_on_c, 0, 84, 94
1, 363053, Note_on_c, 0, 96, 95
1, 363067, Note_off_c, 0, 67, 67
1, 363071, Note_off_c, 0, 60, 70
1, 363092, Note_off_c, 0, 58, 64
1, 363154, Control_c, 0, 64, 73
1, 363169, Control_c, 0, 64, 0
1, 363172, Note_off_c, 0, 96, 66
1, 363198, Control_c, 0, 64, 36
1, 363213, Control_c, 0, 64, 58
1, 363214, Note_on_c, 0, 48, 108
1, 363218, Note_on_c, 0, 36, 95
1, 363228, Control_c, 0, 64, 73
1, 363229, Note_off_c, 0, 84, 68
1, 363241, Note_off_c, 0, 36, 70
1, 363243, Control_c, 0, 64, 127
1, 363255, Note_off_c, 0, 48, 67
1, 363394, Note_on_c, 0, 64, 80
1, 363417, Note_on_c, 0, 55, 52
1, 363420, Note_on_c, 0, 69, 66
1, 363427, Note_off_c, 0, 64, 62
1, 363436, Note_on_c, 0, 71, 75
1, 363438, Note_off_c, 0, 69, 66
1, 363439, Note_on_c, 0, 53, 22
1, 363451, Note_off_c, 0, 55, 63
1, 363451, Note_off_c, 0, 71, 68
1, 363453, Note_on_c, 0, 72, 77
1, 363467, Note_on_c, 0, 74, 83
1, 363467, Note_off_c, 0, 74, 127
1, 363468, Note_off_c, 0, 72, 42
1, 363478, Note_off_c, 0, 53, 40
1, 363482, Note_on_c, 0, 76, 77
1, 363482, Note_off_c, 0, 76, 127
1, 363494, Note_on_c, 0, 77, 79
1, 363494, Note_off_c, 0, 77, 127
1, 363504, Note_on_c, 0, 79, 76
1, 363504, Note_off_c, 0, 79, 127
1, 363514, Note_on_c, 0, 81, 85
1, 363514, Note_off_c, 0, 81, 57
1, 363522, Note_on_c, 0, 58, 55
1, 363524, Note_on_c, 0, 55, 77
1, 363524, Note_on_c, 0, 64, 62
1, 363526, Note_on_c, 0, 83, 86
1, 363526, Note_off_c, 0, 83, 56
1, 363537, Note_on_c, 0, 84, 84
1, 363539, Note_off_c, 0, 84, 55
1, 363543, Note_off_c, 0, 64, 68
1, 363548, Note_off_c, 0, 55, 69
1, 363549, Note_on_c, 0, 86, 87
1, 363549, Note_off_c, 0, 86, 127
1, 363551, Note_off_c, 0, 58, 65
1, 363563, Note_on_c, 0, 88, 86
1, 363564, Note_off_c, 0, 88, 55
1, 363574, Note_on_c, 0, 89, 87
1, 363578, Note_off_c, 0, 89, 53
1, 363587, Note_on_c, 0, 91, 89
1, 363599, Note_off_c, 0, 91, 46
1, 363601, Note_on_c, 0, 81, 25
1, 363605, Note_on_c, 0, 93, 89
1, 363623, Poly_aftertouch_c, 0, 74, 0
1, 363626, Note_off_c, 0, 93, 65
1, 363630, Note_on_c, 0, 86, 32
1, 363632, Note_on_c, 0, 84, 7
1, 363632, Note_on_c, 0, 95, 74
1, 363634, Poly_aftertouch_c, 0, 79, 127
1, 363641, Note_on_c, 0, 88, 30
1, 363641, Note_off_c, 0, 81, 40
1, 363655, Note_off_c, 0, 95, 67
1, 363655, Poly_aftertouch_c, 0, 77, 0
1, 363667, Poly_aftertouch_c, 0, 79, 0
1, 363674, Note_off_c, 0, 86, 43
1, 363679, Note_off_c, 0, 88, 45
1, 363681, Control_c, 0, 64, 100
1, 363684, Poly_aftertouch_c, 0, 83, 0
1, 363685, Note_off_c, 0, 84, 38
1, 363696, Control_c, 0, 64, 57
1, 363706, Poly_aftertouch_c, 0, 89, 0
1, 363709, Poly_aftertouch_c, 0, 91, 0
1, 363711, Control_c, 0, 64, 0
1, 363749, Note_on_c, 0, 40, 70
1, 363751, Note_on_c, 0, 52, 90
1, 363756, Note_on_c, 0, 98, 126
1, 363770, Control_c, 0, 64, 49
1, 363783, Note_off_c, 0, 40, 65
1, 363785, Control_c, 0, 64, 72
1, 363796, Note_off_c, 0, 52, 64
1, 363796, Note_off_c, 0, 98, 71
1, 363800, Control_c, 0, 64, 127
1, 363989, Note_on_c, 0, 58, 78
1, 363989, Note_on_c, 0, 67, 80
1, 363996, Note_on_c, 0, 61, 71
1, 364031, Note_off_c, 0, 61, 62
1, 364032, Note_off_c, 0, 67, 60
1, 364036, Note_off_c, 0, 58, 61
1, 364049, Note_on_c, 0, 85, 80
1, 364052, Note_on_c, 0, 97, 84
1, 364067, Note_off_c, 0, 85, 72
1, 364075, Note_off_c, 0, 97, 66
1, 364113, Note_on_c, 0, 100, 100
1, 364114, Note_on_c, 0, 67, 81
1, 364118, Note_on_c, 0, 88, 102
1, 364122, Note_on_c, 0, 61, 83
1, 364123, Note_on_c, 0, 58, 80
1, 364134, Note_off_c, 0, 67, 72
1, 364150, Note_off_c, 0, 61, 64
1, 364168, Note_off_c, 0, 58, 60
1, 364244, Control_c, 0, 64, 75
1, 364259, Control_c, 0, 64, 42
1, 364273, Control_c, 0, 64, 0
1, 364279, Note_off_c, 0, 88, 65
1, 364288, Note_on_c, 0, 49, 97
1, 364288, Control_c, 0, 64, 49
1, 364293, Note_off_c, 0, 100, 65
1, 364293, Note_on_c, 0, 37, 91
1, 364303, Control_c, 0, 64, 63
1, 364314, Note_on_c, 0, 36, 66
1, 364318, Control_c, 0, 64, 72
1, 364324, Note_off_c, 0, 37, 64
1, 364326, Note_off_c, 0, 49, 66
1, 364332, Control_c, 0, 64, 98
1, 364341, Note_off_c, 0, 36, 61
1, 364347, Control_c, 0, 64, 127
1, 364460, Control_c, 0, 64, 75
1, 364475, Control_c, 0, 64, 60
1, 364490, Control_c, 0, 64, 65
1, 364496, Note_on_c, 0, 85, 75
1, 364496, Note_on_c, 0, 97, 78
1, 364502, Note_on_c, 0, 52, 91
1, 364504, Control_c, 0, 64, 83
1, 364505, Note_on_c, 0, 40, 89
1, 364519, Control_c, 0, 64, 127
1, 364538, Note_off_c, 0, 52, 61
1, 364538, Note_off_c, 0, 85, 62
1, 364544, Note_off_c, 0, 97, 64
1, 364557, Note_off_c, 0, 40, 64
1, 364584, Note_on_c, 0, 98, 88
1, 364586, Note_on_c, 0, 86, 84
1, 364620, Note_off_c, 0, 86, 62
1, 364630, Note_off_c, 0, 98, 67
1, 364681, Note_on_c, 0, 46, 91
1, 364683, Note_on_c, 0, 34, 99
1, 364688, Note_on_c, 0, 100, 96
1, 364693, Note_on_c, 0, 88, 79
1, 364712, Note_on_c, 0, 89, 52
1, 364714, Note_off_c, 0, 88, 71
1, 364718, Note_off_c, 0, 100, 63
1, 364730, Note_off_c, 0, 46, 61
1, 364738, Note_off_c, 0, 89, 53
1, 364740, Note_off_c, 0, 34, 57
1, 364767, Note_on_c, 0, 101, 99
1, 364776, Note_on_c, 0, 89, 72
1, 364800, Note_off_c, 0, 89, 70
1, 364809, Note_off_c, 0, 101, 67
1, 364860, Control_c, 0, 64, 104
1, 364862, Note_on_c, 0, 45, 100
1, 364864, Note_on_c, 0, 90, 105
1, 364865, Note_on_c, 0, 102, 108
1, 364866, Note_on_c, 0, 33, 89
1, 364874, Control_c, 0, 64, 62
1, 364889, Control_c, 0, 64, 0
1, 364890, Note_off_c, 0, 33, 69
1, 364895, Note_off_c, 0, 102, 69
1, 364900, Note_off_c, 0, 90, 69
1, 364903, Note_off_c, 0, 45, 67
1, 364919, Control_c, 0, 64, 43
1, 364934, Control_c, 0, 64, 60
1, 364948, Control_c, 0, 64, 69
1, 364963, Control_c, 0, 64, 86
1, 364978, Control_c, 0, 64, 127
1, 365132, Note_on_c, 0, 62, 70
1, 365132, Note_on_c, 0, 85, 80
1, 365134, Note_on_c, 0, 66, 74
1, 365134, Note_on_c, 0, 97, 83
1, 365143, Note_on_c, 0, 54, 54
1, 365155, Note_on_c, 0, 57, 51
1, 365163, Note_off_c, 0, 85, 67
1, 365166, Note_off_c, 0, 66, 70
1, 365166, Note_off_c, 0, 97, 66
1, 365170, Note_off_c, 0, 62, 64
1, 365178, Control_c, 0, 64, 72
1, 365186, Note_off_c, 0, 54, 45
1, 365193, Control_c, 0, 64, 38
1, 365202, Note_on_c, 0, 98, 104
1, 365202, Note_on_c, 0, 86, 105
1, 365206, Note_on_c, 0, 66, 90
1, 365208, Control_c, 0, 64, 34
1, 365209, Note_on_c, 0, 62, 69
1, 365212, Note_on_c, 0, 54, 68
1, 365223, Control_c, 0, 64, 58
1, 365227, Note_on_c, 0, 97, 59
1, 365238, Control_c, 0, 64, 68
1, 365243, Note_off_c, 0, 62, 66
1, 365245, Note_off_c, 0, 97, 61
1, 365249, Note_off_c, 0, 86, 66
1, 365249, Note_off_c, 0, 98, 68
1, 365253, Control_c, 0, 64, 81
1, 365258, Note_off_c, 0, 66, 62
1, 365261, Note_off_c, 0, 57, 64
1, 365268, Control_c, 0, 64, 127
1, 365272, Note_off_c, 0, 54, 60
1, 365401, Control_c, 0, 64, 70
1, 365416, Control_c, 0, 64, 49
1, 365417, Note_on_c, 0, 62, 40
1, 365417, Note_on_c, 0, 69, 100
1, 365420, Note_on_c, 0, 57, 85
1, 365420, Note_on_c, 0, 66, 93
1, 365431, Control_c, 0, 64, 60
1, 365446, Control_c, 0, 64, 75
1, 365459, Note_off_c, 0, 69, 65
1, 365460, Control_c, 0, 64, 127
1, 365470, Note_off_c, 0, 57, 64
1, 365499, Note_off_c, 0, 66, 63
1, 365501, Note_off_c, 0, 62, 63
1, 365594, Note_on_c, 0, 83, 79
1, 365596, Note_on_c, 0, 71, 74
1, 365612, Note_off_c, 0, 83, 72
1, 365618, Note_off_c, 0, 71, 69
1, 365676, Note_on_c, 0, 73, 88
1, 365684, Note_on_c, 0, 85, 85
1, 365708, Note_off_c, 0, 85, 62
1, 365724, Note_off_c, 0, 73, 62
1, 365766, Note_on_c, 0, 86, 89
1, 365770, Note_on_c, 0, 74, 89
1, 365793, Note_off_c, 0, 74, 66
1, 365802, Note_off_c, 0, 86, 64
1, 365852, Note_on_c, 0, 76, 89
1, 365853, Note_on_c, 0, 88, 92
1, 365873, Note_off_c, 0, 76, 69
1, 365886, Note_off_c, 0, 88, 63
1, 365889, Control_c, 0, 64, 82
1, 365911, Control_c, 0, 64, 48
1, 365926, Control_c, 0, 64, 0
1, 365940, Note_on_c, 0, 44, 108
1, 365941, Control_c, 0, 64, 30
1, 365945, Note_on_c, 0, 32, 105
1, 365946, Note_on_c, 0, 78, 101
1, 365948, Note_on_c, 0, 90, 101
1, 365956, Control_c, 0, 64, 59
1, 365968, Note_off_c, 0, 32, 69
1, 365971, Control_c, 0, 64, 79
1, 365973, Note_off_c, 0, 90, 69
1, 365977, Note_off_c, 0, 44, 64
1, 365978, Note_off_c, 0, 78, 64
1, 365985, Control_c, 0, 64, 127
1, 366180, Note_on_c, 0, 73, 62
1, 366188, Note_on_c, 0, 85, 72
1, 366189, Note_on_c, 0, 62, 75
1, 366190, Note_on_c, 0, 66, 81
1, 366198, Note_on_c, 0, 59, 63
1, 366208, Control_c, 0, 64, 86
1, 366211, Note_off_c, 0, 73, 66
1, 366212, Note_off_c, 0, 66, 70
1, 366212, Note_off_c, 0, 85, 68
1, 366219, Note_on_c, 0, 54, 27
1, 366223, Control_c, 0, 64, 55
1, 366224, Note_off_c, 0, 62, 62
1, 366236, Note_off_c, 0, 59, 57
1, 366238, Control_c, 0, 64, 50
1, 366247, Note_off_c, 0, 54, 0
1, 366249, Note_on_c, 0, 74, 102
1, 366249, Note_on_c, 0, 86, 98
1, 366253, Control_c, 0, 64, 61
1, 366263, Note_on_c, 0, 66, 90
1, 366268, Note_on_c, 0, 54, 46
1, 366268, Control_c, 0, 64, 67
1, 366276, Note_on_c, 0, 62, 47
1, 366282, Control_c, 0, 64, 77
1, 366290, Poly_aftertouch_c, 0, 59, 0
1, 366297, Control_c, 0, 64, 103
1, 366300, Note_on_c, 0, 85, 4
1, 366304, Note_off_c, 0, 62, 56
1, 366304, Note_off_c, 0, 74, 62
1, 366306, Note_off_c, 0, 66, 59
1, 366312, Control_c, 0, 64, 127
1, 366316, Note_off_c, 0, 54, 63
1, 366323, Note_off_c, 0, 86, 64
1, 366359, Note_off_c, 0, 85, 26
1, 366374, Poly_aftertouch_c, 0, 58, 0
1, 366401, Control_c, 0, 64, 87
1, 366416, Control_c, 0, 64, 59
1, 366430, Note_on_c, 0, 71, 101
1, 366431, Control_c, 0, 64, 55
1, 366434, Note_on_c, 0, 59, 84
1, 366434, Note_on_c, 0, 62, 75
1, 366436, Note_on_c, 0, 66, 86
1, 366445, Control_c, 0, 64, 69
1, 366460, Control_c, 0, 64, 85
1, 366463, Note_off_c, 0, 71, 64
1, 366472, Note_off_c, 0, 66, 61
1, 366475, Control_c, 0, 64, 127
1, 366487, Note_off_c, 0, 59, 63
1, 366490, Note_off_c, 0, 62, 63
1, 366593, Note_on_c, 0, 74, 73
1, 366598, Note_on_c, 0, 86, 74
1, 366616, Note_off_c, 0, 74, 70
1, 366621, Note_off_c, 0, 86, 71
1, 366682, Note_on_c, 0, 88, 82
1, 366691, Note_on_c, 0, 76, 69
1, 366702, Note_off_c, 0, 88, 68
1, 366715, Note_off_c, 0, 76, 66
1, 366764, Note_on_c, 0, 89, 86
1, 366765, Note_on_c, 0, 77, 83
1, 366784, Note_off_c, 0, 77, 72
1, 366786, Note_off_c, 0, 89, 64
1, 366840, Note_on_c, 0, 78, 83
1, 366845, Note_on_c, 0, 90, 89
1, 366868, Note_off_c, 0, 78, 62
1, 366884, Control_c, 0, 64, 107
1, 366887, Note_off_c, 0, 90, 65
1, 366898, Control_c, 0, 64, 62
1, 366913, Control_c, 0, 64, 0
1, 366935, Note_on_c, 0, 45, 98
1, 366937, Note_on_c, 0, 83, 101
1, 366937, Note_on_c, 0, 33, 87
1, 366939, Note_on_c, 0, 95, 105
1, 366957, Control_c, 0, 64, 56
1, 366963, Note_off_c, 0, 33, 66
1, 366971, Note_off_c, 0, 45, 66
1, 366972, Control_c, 0, 64, 70
1, 366979, Note_off_c, 0, 83, 66
1, 366987, Control_c, 0, 64, 109
1, 366992, Note_off_c, 0, 95, 67
1, 367002, Control_c, 0, 64, 127
1, 367163, Note_on_c, 0, 64, 86
1, 367165, Note_on_c, 0, 80, 76
1, 367167, Note_on_c, 0, 92, 77
1, 367170, Note_on_c, 0, 61, 70
1, 367176, Note_on_c, 0, 57, 60
1, 367183, Note_off_c, 0, 64, 72
1, 367189, Note_off_c, 0, 80, 68
1, 367192, Note_off_c, 0, 92, 69
1, 367197, Note_off_c, 0, 61, 66
1, 367198, Note_off_c, 0, 57, 63
1, 367200, Note_on_c, 0, 55, 26
1, 367226, Note_on_c, 0, 81, 95
1, 367226, Note_on_c, 0, 93, 100
1, 367227, Note_off_c, 0, 55, 0
1, 367227, Note_on_c, 0, 55, 31
1, 367236, Note_on_c, 0, 64, 91
1, 367241, Note_on_c, 0, 57, 73
1, 367243, Note_on_c, 0, 61, 83
1, 367262, Note_on_c, 0, 92, 32
1, 367268, Note_off_c, 0, 61, 63
1, 367270, Note_off_c, 0, 81, 67
1, 367277, Note_off_c, 0, 93, 66
1, 367277, Note_off_c, 0, 57, 65
1, 367281, Note_off_c, 0, 64, 59
1, 367286, Note_off_c, 0, 55, 62
1, 367295, Note_off_c, 0, 92, 32
1, 367387, Control_c, 0, 64, 77
1, 367410, Control_c, 0, 64, 43
1, 367419, Note_on_c, 0, 69, 104
1, 367421, Note_on_c, 0, 64, 95
1, 367424, Control_c, 0, 64, 0
1, 367425, Note_on_c, 0, 57, 85
1, 367429, Note_on_c, 0, 61, 82
1, 367439, Control_c, 0, 64, 41
1, 367450, Note_off_c, 0, 69, 66
1, 367454, Control_c, 0, 64, 60
1, 367469, Control_c, 0, 64, 72
1, 367471, Note_off_c, 0, 57, 64
1, 367471, Note_off_c, 0, 64, 62
1, 367483, Note_off_c, 0, 61, 65
1, 367483, Control_c, 0, 64, 107
1, 367498, Control_c, 0, 64, 127
1, 367578, Note_on_c, 0, 88, 78
1, 367590, Note_on_c, 0, 76, 56
1, 367597, Note_off_c, 0, 88, 72
1, 367610, Note_off_c, 0, 76, 62
1, 367654, Note_on_c, 0, 78, 80
1, 367662, Note_on_c, 0, 90, 84
1, 367691, Note_off_c, 0, 90, 63
1, 367694, Note_off_c, 0, 78, 62
1, 367740, Note_on_c, 0, 91, 88
1, 367754, Note_on_c, 0, 79, 46
1, 367771, Note_off_c, 0, 91, 65
1, 367778, Note_off_c, 0, 79, 61
1, 367827, Note_on_c, 0, 85, 82
1, 367834, Note_on_c, 0, 97, 85
1, 367861, Note_off_c, 0, 97, 65
1, 367867, Note_off_c, 0, 85, 60
1, 367899, Control_c, 0, 64, 65
1, 367914, Control_c, 0, 64, 0
1, 367918, Note_on_c, 0, 45, 96
1, 367919, Note_on_c, 0, 95, 105
1, 367921, Note_on_c, 0, 33, 88
1, 367922, Note_on_c, 0, 83, 96
1, 367936, Note_on_c, 0, 84, 68
1, 367936, Note_off_c, 0, 84, 127
1, 367939, Note_on_c, 0, 94, 74
1, 367945, Note_off_c, 0, 33, 65
1, 367954, Note_off_c, 0, 45, 66
1, 367955, Note_off_c, 0, 94, 66
1, 367959, Control_c, 0, 64, 59
1, 367961, Note_off_c, 0, 83, 67
1, 367967, Note_off_c, 0, 95, 69
1, 367973, Control_c, 0, 64, 74
1, 367988, Control_c, 0, 64, 120
1, 368003, Control_c, 0, 64, 127
1, 368139, Note_on_c, 0, 64, 84
1, 368151, Note_on_c, 0, 82, 74
1, 368156, Note_on_c, 0, 61, 63
1, 368159, Note_on_c, 0, 57, 60
1, 368161, Note_on_c, 0, 94, 75
1, 368165, Note_off_c, 0, 64, 72
1, 368170, Note_off_c, 0, 82, 73
1, 368173, Control_c, 0, 64, 109
1, 368175, Note_off_c, 0, 61, 64
1, 368177, Note_off_c, 0, 94, 66
1, 368180, Note_off_c, 0, 57, 61
1, 368188, Control_c, 0, 64, 64
1, 368203, Control_c, 0, 64, 34
1, 368208, Note_on_c, 0, 55, 53
1, 368210, Note_on_c, 0, 81, 89
1, 368213, Note_on_c, 0, 64, 95
1, 368214, Note_on_c, 0, 93, 98
1, 368218, Control_c, 0, 64, 48
1, 368221, Note_on_c, 0, 57, 71
1, 368231, Note_on_c, 0, 61, 73
1, 368231, Note_on_c, 0, 92, 67
1, 368233, Control_c, 0, 64, 65
1, 368247, Control_c, 0, 64, 79
1, 368248, Note_off_c, 0, 81, 66
1, 368249, Note_off_c, 0, 92, 62
1, 368255, Note_off_c, 0, 61, 68
1, 368258, Note_off_c, 0, 64, 62
1, 368258, Note_off_c, 0, 57, 61
1, 368262, Control_c, 0, 64, 127
1, 368269, Note_off_c, 0, 55, 63
1, 368275, Note_off_c, 0, 93, 64
1, 368380, Control_c, 0, 64, 101
1, 368394, Note_on_c, 0, 64, 85
1, 368394, Note_on_c, 0, 69, 105
1, 368395, Control_c, 0, 64, 64
1, 368399, Note_on_c, 0, 61, 71
1, 368401, Note_on_c, 0, 57, 84
1, 368410, Control_c, 0, 64, 46
1, 368426, Control_c, 0, 64, 62
1, 368431, Note_off_c, 0, 69, 69
1, 368441, Control_c, 0, 64, 81
1, 368453, Note_off_c, 0, 57, 65
1, 368455, Note_off_c, 0, 64, 67
1, 368456, Control_c, 0, 64, 127
1, 368465, Note_off_c, 0, 61, 65
1, 368551, Note_on_c, 0, 92, 73
1, 368577, Note_off_c, 0, 92, 70
1, 368595, Note_on_c, 0, 93, 70
1, 368639, Note_on_c, 0, 95, 81
1, 368639, Note_off_c, 0, 93, 63
1, 368669, Note_on_c, 0, 97, 84
1, 368690, Note_on_c, 0, 98, 89
1, 368693, Note_off_c, 0, 95, 67
1, 368732, Note_off_c, 0, 97, 61
1, 368742, Note_on_c, 0, 101, 79
1, 368747, Note_on_c, 0, 100, 75
1, 368757, Note_off_c, 0, 98, 67
1, 368767, Note_off_c, 0, 101, 71
1, 368771, Note_off_c, 0, 100, 69
1, 368796, Control_c, 0, 64, 66
1, 368811, Control_c, 0, 64, 0
1, 368829, Note_on_c, 0, 45, 98
1, 368831, Note_on_c, 0, 33, 83
1, 368838, Note_on_c, 0, 102, 104
1, 368840, Note_on_c, 0, 90, 101
1, 368856, Control_c, 0, 64, 51
1, 368860, Note_off_c, 0, 33, 67
1, 368861, Note_off_c, 0, 102, 67
1, 368866, Note_off_c, 0, 90, 69
1, 368869, Note_off_c, 0, 45, 63
1, 368870, Control_c, 0, 64, 65
1, 368885, Control_c, 0, 64, 88
1, 368908, Control_c, 0, 64, 127
1, 369080, Note_on_c, 0, 85, 78
1, 369081, Note_on_c, 0, 66, 85
1, 369083, Note_on_c, 0, 97, 67
1, 369084, Note_on_c, 0, 62, 76
1, 369092, Note_on_c, 0, 57, 67
1, 369095, Note_on_c, 0, 54, 61
1, 369100, Control_c, 0, 64, 82
1, 369104, Note_off_c, 0, 66, 70
1, 369114, Note_off_c, 0, 62, 65
1, 369115, Control_c, 0, 64, 57
1, 369119, Note_off_c, 0, 54, 63
1, 369121, Note_off_c, 0, 85, 63
1, 369122, Note_off_c, 0, 57, 66
1, 369129, Note_off_c, 0, 97, 0
1, 369138, Note_on_c, 0, 98, 103
1, 369142, Note_on_c, 0, 86, 94
1, 369144, Control_c, 0, 64, 70
1, 369152, Note_on_c, 0, 66, 94
1, 369158, Note_on_c, 0, 62, 69
1, 369159, Control_c, 0, 64, 92
1, 369161, Note_on_c, 0, 54, 79
1, 369163, Note_on_c, 0, 57, 72
1, 369164, Poly_aftertouch_c, 0, 97, 0
1, 369174, Control_c, 0, 64, 127
1, 369182, Note_off_c, 0, 98, 68
1, 369185, Note_off_c, 0, 62, 65
1, 369185, Note_off_c, 0, 86, 66
1, 369200, Note_off_c, 0, 66, 63
1, 369201, Note_off_c, 0, 57, 63
1, 369215, Note_off_c, 0, 54, 63
1, 369308, Control_c, 0, 64, 78
1, 369323, Control_c, 0, 64, 36
1, 369333, Note_on_c, 0, 69, 108
1, 369334, Note_on_c, 0, 66, 98
1, 369334, Note_on_c, 0, 62, 82
1, 369338, Control_c, 0, 64, 0
1, 369339, Note_on_c, 0, 57, 88
1, 369358, Note_off_c, 0, 69, 71
1, 369367, Control_c, 0, 64, 36
1, 369379, Note_off_c, 0, 57, 62
1, 369382, Control_c, 0, 64, 59
1, 369385, Note_off_c, 0, 66, 67
1, 369388, Note_off_c, 0, 62, 66
1, 369397, Control_c, 0, 64, 75
1, 369412, Control_c, 0, 64, 127
1, 369496, Note_on_c, 0, 80, 55
1, 369516, Note_off_c, 0, 80, 62
1, 369527, Note_on_c, 0, 81, 66
1, 369557, Note_off_c, 0, 81, 59
1, 369559, Note_on_c, 0, 83, 79
1, 369608, Note_on_c, 0, 85, 80
1, 369619, Note_off_c, 0, 83, 64
1, 369625, Note_on_c, 0, 86, 85
1, 369680, Note_off_c, 0, 85, 63
1, 369683, Note_on_c, 0, 88, 88
1, 369691, Note_off_c, 0, 86, 66
1, 369721, Note_off_c, 0, 88, 65
1, 369774, Control_c, 0, 64, 67
1, 369789, Control_c, 0, 64, 0
1, 369790, Note_on_c, 0, 90, 96
1, 369794, Note_on_c, 0, 44, 108
1, 369796, Note_on_c, 0, 78, 94
1, 369799, Note_on_c, 0, 32, 97
1, 369812, Note_off_c, 0, 78, 72
1, 369815, Note_off_c, 0, 90, 70
1, 369817, Note_off_c, 0, 44, 67
1, 369823, Note_off_c, 0, 32, 65
1, 369833, Control_c, 0, 64, 54
1, 369848, Control_c, 0, 64, 65
1, 369863, Control_c, 0, 64, 79
1, 369877, Control_c, 0, 64, 118
1, 369892, Control_c, 0, 64, 127
1, 369950, Poly_aftertouch_c, 0, 32, 127
1, 369984, Poly_aftertouch_c, 0, 32, 0
1, 370034, Note_on_c, 0, 61, 75
1, 370041, Control_c, 0, 64, 89
1, 370048, Note_on_c, 0, 73, 78
1, 370049, Note_on_c, 0, 85, 76
1, 370056, Control_c, 0, 64, 58
1, 370061, Note_on_c, 0, 58, 16
1, 370069, Note_off_c, 0, 73, 71
1, 370071, Control_c, 0, 64, 0
1, 370086, Note_on_c, 0, 57, 26
1, 370086, Control_c, 0, 64, 31
1, 370100, Control_c, 0, 64, 55
1, 370103, Note_on_c, 0, 86, 93
1, 370103, Note_off_c, 0, 58, 46
1, 370103, Note_off_c, 0, 85, 0
1, 370106, Note_on_c, 0, 74, 93
1, 370115, Control_c, 0, 64, 66
1, 370118, Note_on_c, 0, 85, 45
1, 370126, Note_off_c, 0, 57, 31
1, 370130, Control_c, 0, 64, 76
1, 370139, Note_off_c, 0, 61, 64
1, 370142, Note_on_c, 0, 54, 39
1, 370143, Note_off_c, 0, 85, 56
1, 370144, Note_off_c, 0, 74, 67
1, 370145, Control_c, 0, 64, 99
1, 370151, Note_off_c, 0, 86, 67
1, 370160, Control_c, 0, 64, 127
1, 370175, Note_off_c, 0, 54, 48
1, 370293, Control_c, 0, 64, 77
1, 370308, Control_c, 0, 64, 55
1, 370315, Note_on_c, 0, 71, 98
1, 370318, Note_on_c, 0, 59, 88
1, 370322, Note_on_c, 0, 62, 77
1, 370323, Control_c, 0, 64, 64
1, 370329, Note_on_c, 0, 66, 82
1, 370338, Control_c, 0, 64, 85
1, 370343, Poly_aftertouch_c, 0, 58, 0
1, 370349, Note_off_c, 0, 71, 65
1, 370353, Control_c, 0, 64, 127
1, 370359, Note_off_c, 0, 66, 59
1, 370365, Note_off_c, 0, 59, 65
1, 370375, Note_off_c, 0, 62, 64
1, 370582, Control_c, 0, 64, 104
1, 370597, Control_c, 0, 64, 84
1, 370599, Note_on_c, 0, 62, 71
1, 370612, Control_c, 0, 64, 69
1, 370627, Control_c, 0, 64, 53
1, 370641, Control_c, 0, 64, 29
1, 370656, Control_c, 0, 64, 0
1, 370681, Note_on_c, 0, 66, 73
1, 370687, Note_off_c, 0, 62, 62
1, 370770, Note_on_c, 0, 70, 66
1, 370775, Note_off_c, 0, 66, 61
1, 370861, Note_on_c, 0, 71, 62
1, 370909, Note_off_c, 0, 70, 49
1, 370967, Note_off_c, 0, 71, 61
1, 370972, Note_on_c, 0, 75, 66
1, 370973, Note_on_c, 0, 30, 57
1, 370982, Note_on_c, 0, 42, 57
1, 370983, Control_c, 0, 64, 33
1, 370997, Control_c, 0, 64, 63
1, 371000, Note_off_c, 0, 75, 68
1, 371003, Note_off_c, 0, 30, 60
1, 371009, Note_on_c, 0, 63, 31
1, 371011, Note_off_c, 0, 42, 55
1, 371012, Control_c, 0, 64, 72
1, 371027, Control_c, 0, 64, 87
1, 371042, Control_c, 0, 64, 100
1, 371048, Note_off_c, 0, 63, 31
1, 371057, Control_c, 0, 64, 110
1, 371072, Control_c, 0, 64, 122
1, 371087, Control_c, 0, 64, 127
1, 371197, Control_c, 0, 64, 116
1, 371212, Control_c, 0, 64, 93
1, 371227, Control_c, 0, 64, 70
1, 371237, Note_on_c, 0, 54, 44
1, 371239, Note_on_c, 0, 51, 51
1, 371239, Note_on_c, 0, 58, 61
1, 371239, Note_on_c, 0, 70, 54
1, 371242, Control_c, 0, 64, 49
1, 371257, Control_c, 0, 64, 0
1, 371259, Note_off_c, 0, 58, 63
1, 371263, Note_off_c, 0, 70, 58
1, 371266, Note_off_c, 0, 54, 51
1, 371267, Note_off_c, 0, 51, 57
1, 371307, Note_on_c, 0, 71, 69
1, 371309, Note_on_c, 0, 59, 46
1, 371334, Note_off_c, 0, 71, 66
1, 371334, Note_off_c, 0, 59, 55
1, 371337, Note_on_c, 0, 54, 7
1, 371338, Note_on_c, 0, 51, 30
1, 371383, Note_off_c, 0, 51, 51
1, 371384, Note_off_c, 0, 54, 27
1, 371508, Note_on_c, 0, 78, 66
1, 371510, Note_on_c, 0, 42, 59
1, 371517, Note_on_c, 0, 66, 58
1, 371523, Control_c, 0, 64, 45
1, 371534, Note_off_c, 0, 78, 66
1, 371538, Control_c, 0, 64, 72
1, 371539, Note_off_c, 0, 66, 60
1, 371543, Note_off_c, 0, 42, 64
1, 371553, Control_c, 0, 64, 100
1, 371568, Control_c, 0, 64, 127
1, 371736, Note_on_c, 0, 59, 54
1, 371736, Note_on_c, 0, 74, 67
1, 371739, Note_on_c, 0, 62, 54
1, 371744, Note_on_c, 0, 54, 46
1, 371751, Note_on_c, 0, 51, 38
1, 371757, Note_off_c, 0, 59, 60
1, 371761, Note_off_c, 0, 62, 59
1, 371761, Control_c, 0, 64, 87
1, 371763, Note_off_c, 0, 74, 65
1, 371772, Note_off_c, 0, 54, 53
1, 371776, Control_c, 0, 64, 63
1, 371791, Control_c, 0, 64, 0
1, 371807, Note_off_c, 0, 51, 0
1, 371810, Note_on_c, 0, 75, 74
1, 371810, Note_on_c, 0, 63, 63
1, 371817, Note_on_c, 0, 54, 46
1, 371823, Note_on_c, 0, 51, 37
1, 371826, Note_on_c, 0, 59, 42
1, 371834, Note_off_c, 0, 75, 67
1, 371841, Note_off_c, 0, 63, 65
1, 371842, Note_off_c, 0, 54, 57
1, 371855, Note_off_c, 0, 51, 52
1, 371856, Note_off_c, 0, 59, 33
1, 371992, Note_on_c, 0, 42, 72
1, 371999, Note_on_c, 0, 82, 79
1, 372003, Note_on_c, 0, 70, 79
1, 372005, Control_c, 0, 64, 40
1, 372020, Control_c, 0, 64, 64
1, 372020, Note_off_c, 0, 82, 66
1, 372022, Note_off_c, 0, 42, 66
1, 372024, Note_off_c, 0, 70, 69
1, 372035, Control_c, 0, 64, 77
1, 372050, Control_c, 0, 64, 127
1, 372209, Note_on_c, 0, 77, 75
1, 372213, Note_on_c, 0, 65, 61
1, 372218, Note_on_c, 0, 52, 51
1, 372221, Note_on_c, 0, 61, 48
1, 372228, Note_on_c, 0, 58, 40
1, 372233, Note_off_c, 0, 77, 65
1, 372237, Note_off_c, 0, 65, 65
1, 372246, Note_off_c, 0, 61, 0
1, 372267, Note_on_c, 0, 61, 52
1, 372270, Note_off_c, 0, 58, 0
1, 372270, Note_on_c, 0, 58, 32
1, 372282, Note_on_c, 0, 78, 79
1, 372290, Note_on_c, 0, 66, 62
1, 372300, Note_off_c, 0, 61, 65
1, 372301, Note_off_c, 0, 58, 64
1, 372301, Control_c, 0, 64, 95
1, 372310, Note_off_c, 0, 52, 63
1, 372315, Note_off_c, 0, 66, 65
1, 372316, Control_c, 0, 64, 71
1, 372323, Note_off_c, 0, 78, 51
1, 372331, Control_c, 0, 64, 51
1, 372345, Control_c, 0, 64, 0
1, 372446, Note_on_c, 0, 42, 83
1, 372458, Note_on_c, 0, 85, 91
1, 372461, Note_on_c, 0, 73, 88
1, 372465, Control_c, 0, 64, 54
1, 372476, Note_off_c, 0, 42, 65
1, 372480, Control_c, 0, 64, 70
1, 372485, Note_off_c, 0, 73, 65
1, 372489, Note_off_c, 0, 85, 64
1, 372494, Control_c, 0, 64, 93
1, 372509, Control_c, 0, 64, 127
1, 372665, Note_on_c, 0, 81, 77
1, 372671, Note_on_c, 0, 54, 66
1, 372673, Note_on_c, 0, 69, 68
1, 372680, Note_on_c, 0, 64, 52
1, 372686, Note_on_c, 0, 61, 46
1, 372687, Note_off_c, 0, 81, 67
1, 372693, Note_off_c, 0, 69, 66
1, 372699, Note_off_c, 0, 54, 64
1, 372702, Note_off_c, 0, 64, 61
1, 372730, Note_off_c, 0, 61, 0
1, 372738, Note_on_c, 0, 70, 81
1, 372738, Note_on_c, 0, 82, 88
1, 372742, Note_on_c, 0, 64, 54
1, 372743, Note_on_c, 0, 61, 54
1, 372750, Note_on_c, 0, 54, 73
1, 372765, Note_off_c, 0, 70, 65
1, 372771, Note_off_c, 0, 64, 55
1, 372773, Note_off_c, 0, 61, 65
1, 372774, Note_off_c, 0, 54, 66
1, 372786, Note_off_c, 0, 82, 61
1, 372828, Control_c, 0, 64, 101
1, 372842, Control_c, 0, 64, 69
1, 372857, Control_c, 0, 64, 37
1, 372872, Control_c, 0, 64, 0
1, 372897, Note_on_c, 0, 42, 86
1, 372906, Note_on_c, 0, 87, 91
1, 372908, Note_on_c, 0, 75, 104
1, 372917, Control_c, 0, 64, 41
1, 372926, Note_off_c, 0, 42, 67
1, 372929, Note_off_c, 0, 87, 67
1, 372932, Control_c, 0, 64, 61
1, 372933, Note_off_c, 0, 75, 64
1, 372947, Control_c, 0, 64, 78
1, 372961, Control_c, 0, 64, 127
1, 373106, Note_on_c, 0, 70, 80
1, 373107, Note_on_c, 0, 63, 63
1, 373108, Note_on_c, 0, 82, 75
1, 373114, Note_on_c, 0, 54, 48
1, 373120, Note_on_c, 0, 59, 40
1, 373126, Note_off_c, 0, 63, 63
1, 373127, Note_off_c, 0, 70, 70
1, 373132, Note_off_c, 0, 82, 65
1, 373147, Note_off_c, 0, 54, 50
1, 373167, Note_on_c, 0, 71, 81
1, 373170, Note_on_c, 0, 83, 88
1, 373171, Note_off_c, 0, 59, 0
1, 373171, Note_on_c, 0, 59, 53
1, 373174, Note_on_c, 0, 54, 61
1, 373177, Note_on_c, 0, 63, 65
1, 373196, Note_off_c, 0, 71, 63
1, 373203, Note_off_c, 0, 63, 64
1, 373209, Note_off_c, 0, 59, 63
1, 373222, Note_off_c, 0, 83, 65
1, 373231, Note_off_c, 0, 54, 60
1, 373258, Control_c, 0, 64, 80
1, 373273, Control_c, 0, 64, 31
1, 373288, Control_c, 0, 64, 0
1, 373318, Control_c, 0, 64, 48
1, 373328, Note_on_c, 0, 78, 100
1, 373328, Note_on_c, 0, 90, 98
1, 373333, Note_on_c, 0, 54, 88
1, 373333, Control_c, 0, 64, 64
1, 373335, Note_on_c, 0, 42, 81
1, 373348, Control_c, 0, 64, 89
1, 373350, Note_off_c, 0, 90, 68
1, 373352, Note_off_c, 0, 54, 71
1, 373357, Note_off_c, 0, 78, 59
1, 373361, Note_off_c, 0, 42, 67
1, 373363, Control_c, 0, 64, 127
1, 373535, Note_on_c, 0, 74, 87
1, 373536, Note_on_c, 0, 66, 80
1, 373538, Note_on_c, 0, 86, 83
1, 373545, Note_on_c, 0, 59, 64
1, 373554, Note_off_c, 0, 74, 74
1, 373555, Note_on_c, 0, 63, 56
1, 373558, Note_off_c, 0, 86, 69
1, 373558, Note_off_c, 0, 66, 71
1, 373592, Note_off_c, 0, 63, 0
1, 373602, Note_on_c, 0, 63, 67
1, 373606, Note_on_c, 0, 75, 92
1, 373609, Note_on_c, 0, 87, 91
1, 373612, Note_on_c, 0, 66, 67
1, 373629, Note_off_c, 0, 66, 69
1, 373642, Note_off_c, 0, 63, 62
1, 373643, Note_off_c, 0, 59, 67
1, 373643, Note_off_c, 0, 75, 64
1, 373656, Note_off_c, 0, 87, 61
1, 373696, Control_c, 0, 64, 66
1, 373710, Control_c, 0, 64, 0
1, 373740, Control_c, 0, 64, 53
1, 373755, Note_on_c, 0, 54, 105
1, 373755, Control_c, 0, 64, 67
1, 373756, Note_on_c, 0, 82, 99
1, 373758, Note_on_c, 0, 42, 85
1, 373758, Note_on_c, 0, 94, 98
1, 373770, Control_c, 0, 64, 88
1, 373775, Note_off_c, 0, 54, 65
1, 373775, Note_off_c, 0, 94, 68
1, 373780, Note_off_c, 0, 42, 68
1, 373781, Note_on_c, 0, 80, 58
1, 373784, Control_c, 0, 64, 127
1, 373785, Note_off_c, 0, 82, 63
1, 373786, Note_on_c, 0, 92, 50
1, 373799, Note_off_c, 0, 80, 64
1, 373815, Note_off_c, 0, 92, 36
1, 373946, Note_on_c, 0, 61, 71
1, 373953, Note_on_c, 0, 77, 85
1, 373955, Note_on_c, 0, 64, 64
1, 373957, Note_on_c, 0, 89, 76
1, 373962, Note_on_c, 0, 70, 59
1, 373971, Note_off_c, 0, 77, 73
1, 373973, Note_off_c, 0, 61, 66
1, 373981, Note_off_c, 0, 89, 70
1, 373982, Note_off_c, 0, 64, 66
1, 373993, Note_off_c, 0, 70, 0
1, 374005, Note_on_c, 0, 70, 67
1, 374018, Note_on_c, 0, 78, 92
1, 374021, Note_on_c, 0, 61, 82
1, 374024, Note_on_c, 0, 90, 87
1, 374026, Note_off_c, 0, 70, 72
1, 374044, Poly_aftertouch_c, 0, 64, 0
1, 374052, Note_off_c, 0, 78, 64
1, 374071, Note_off_c, 0, 61, 61
1, 374071, Note_off_c, 0, 90, 63
1, 374112, Control_c, 0, 64, 107
1, 374127, Control_c, 0, 64, 63
1, 374148, Control_c, 0, 64, 0
1, 374163, Control_c, 0, 64, 39
1, 374178, Note_on_c, 0, 85, 106
1, 374178, Note_on_c, 0, 97, 103
1, 374178, Control_c, 0, 64, 63
1, 374179, Note_on_c, 0, 42, 84
1, 374179, Note_on_c, 0, 54, 105
1, 374193, Control_c, 0, 64, 79
1, 374197, Note_off_c, 0, 54, 70
1, 374206, Note_off_c, 0, 42, 67
1, 374208, Control_c, 0, 64, 127
1, 374209, Note_off_c, 0, 85, 70
1, 374214, Note_off_c, 0, 97, 66
1, 374375, Note_on_c, 0, 70, 79
1, 374378, Note_on_c, 0, 81, 89
1, 374378, Note_on_c, 0, 93, 91
1, 374380, Note_on_c, 0, 61, 67
1, 374384, Note_on_c, 0, 64, 57
1, 374394, Note_off_c, 0, 81, 75
1, 374396, Note_off_c, 0, 70, 70
1, 374400, Note_off_c, 0, 93, 67
1, 374406, Note_off_c, 0, 61, 68
1, 374431, Note_on_c, 0, 70, 73
1, 374441, Note_on_c, 0, 82, 98
1, 374444, Note_on_c, 0, 61, 76
1, 374446, Note_on_c, 0, 94, 89
1, 374451, Note_off_c, 0, 70, 72
1, 374468, Note_off_c, 0, 64, 68
1, 374477, Note_off_c, 0, 82, 66
1, 374492, Note_off_c, 0, 94, 64
1, 374496, Note_off_c, 0, 61, 61
1, 374548, Control_c, 0, 64, 90
1, 374563, Control_c, 0, 64, 57
1, 374578, Control_c, 0, 64, 0
1, 374592, Note_on_c, 0, 87, 106
1, 374593, Control_c, 0, 64, 47
1, 374594, Note_on_c, 0, 99, 108
1, 374596, Note_on_c, 0, 54, 105
1, 374601, Note_on_c, 0, 42, 87
1, 374607, Control_c, 0, 64, 66
1, 374619, Note_off_c, 0, 54, 67
1, 374622, Control_c, 0, 64, 82
1, 374624, Note_off_c, 0, 87, 69
1, 374625, Note_off_c, 0, 42, 66
1, 374628, Note_off_c, 0, 99, 64
1, 374632, Note_on_c, 0, 97, 30
1, 374632, Note_off_c, 0, 97, 127
1, 374637, Control_c, 0, 64, 127
1, 374795, Note_on_c, 0, 71, 78
1, 374798, Note_on_c, 0, 63, 67
1, 374800, Note_on_c, 0, 82, 86
1, 374804, Note_on_c, 0, 94, 82
1, 374815, Note_on_c, 0, 66, 49
1, 374816, Note_off_c, 0, 71, 70
1, 374817, Note_off_c, 0, 63, 63
1, 374822, Note_off_c, 0, 82, 67
1, 374829, Note_off_c, 0, 94, 64
1, 374837, Note_off_c, 0, 66, 58
1, 374861, Note_on_c, 0, 66, 75
1, 374861, Note_on_c, 0, 95, 91
1, 374864, Note_on_c, 0, 71, 77
1, 374866, Note_on_c, 0, 83, 86
1, 374872, Note_on_c, 0, 63, 82
1, 374892, Note_on_c, 0, 94, 46
1, 374896, Note_off_c, 0, 71, 67
1, 374899, Note_off_c, 0, 83, 62
1, 374914, Note_off_c, 0, 63, 60
1, 374917, Note_off_c, 0, 66, 63
1, 374920, Note_off_c, 0, 94, 48
1, 374922, Note_off_c, 0, 95, 66
1, 375001, Control_c, 0, 64, 73
1, 375016, Control_c, 0, 64, 36
1, 375031, Control_c, 0, 64, 46
1, 375033, Note_on_c, 0, 54, 105
1, 375037, Note_on_c, 0, 87, 106
1, 375039, Note_on_c, 0, 99, 97
1, 375041, Note_on_c, 0, 42, 93
1, 375045, Control_c, 0, 64, 67
1, 375060, Note_off_c, 0, 42, 69
1, 375060, Control_c, 0, 64, 89
1, 375061, Note_off_c, 0, 54, 65
1, 375068, Note_off_c, 0, 87, 69
1, 375075, Control_c, 0, 64, 127
1, 375080, Note_off_c, 0, 99, 63
1, 375230, Note_on_c, 0, 69, 94
1, 375234, Note_on_c, 0, 82, 88
1, 375239, Note_on_c, 0, 59, 74
1, 375241, Note_on_c, 0, 94, 75
1, 375243, Note_on_c, 0, 63, 70
1, 375254, Note_off_c, 0, 69, 64
1, 375263, Note_off_c, 0, 63, 65
1, 375266, Note_off_c, 0, 59, 67
1, 375270, Note_off_c, 0, 82, 65
1, 375292, Note_on_c, 0, 95, 86
1, 375294, Note_on_c, 0, 69, 75
1, 375299, Note_on_c, 0, 63, 90
1, 375314, Note_off_c, 0, 69, 72
1, 375317, Poly_aftertouch_c, 0, 59, 127
1, 375320, Note_off_c, 0, 94, 62
1, 375329, Note_off_c, 0, 63, 63
1, 375330, Poly_aftertouch_c, 0, 59, 0
1, 375330, Note_off_c, 0, 95, 67
1, 375445, Control_c, 0, 64, 81
1, 375460, Control_c, 0, 64, 48
1, 375475, Control_c, 0, 64, 0
1, 375490, Control_c, 0, 64, 39
1, 375495, Note_on_c, 0, 100, 99
1, 375498, Note_on_c, 0, 52, 105
1, 375498, Note_on_c, 0, 88, 104
1, 375501, Note_on_c, 0, 40, 103
1, 375504, Control_c, 0, 64, 61
1, 375519, Control_c, 0, 64, 78
1, 375524, Note_off_c, 0, 40, 70
1, 375531, Note_off_c, 0, 52, 68
1, 375534, Control_c, 0, 64, 127
1, 375540, Note_off_c, 0, 100, 68
1, 375546, Note_off_c, 0, 88, 65
1, 375567, Note_on_c, 0, 97, 19
1, 375567, Note_off_c, 0, 97, 127
1, 375715, Note_on_c, 0, 60, 81
1, 375717, Note_on_c, 0, 67, 82
1, 375718, Note_on_c, 0, 83, 80
1, 375720, Note_on_c, 0, 95, 78
1, 375722, Note_on_c, 0, 64, 67
1, 375736, Note_off_c, 0, 83, 71
1, 375737, Note_off_c, 0, 60, 71
1, 375739, Note_off_c, 0, 67, 69
1, 375751, Note_off_c, 0, 64, 66
1, 375770, Poly_aftertouch_c, 0, 67, 0
1, 375776, Note_on_c, 0, 96, 86
1, 375778, Note_on_c, 0, 67, 84
1, 375784, Note_on_c, 0, 60, 83
1, 375786, Note_on_c, 0, 64, 82
1, 375800, Note_off_c, 0, 95, 44
1, 375802, Note_off_c, 0, 67, 68
1, 375806, Note_off_c, 0, 64, 70
1, 375820, Note_off_c, 0, 96, 58
1, 375823, Note_off_c, 0, 60, 66
1, 375943, Control_c, 0, 64, 105
1, 375958, Control_c, 0, 64, 61
1, 375972, Control_c, 0, 64, 0
1, 375990, Note_on_c, 0, 101, 102
1, 375992, Note_on_c, 0, 50, 103
1, 375997, Note_on_c, 0, 89, 100
1, 375999, Note_on_c, 0, 38, 101
1, 376002, Control_c, 0, 64, 36
1, 376017, Control_c, 0, 64, 62
1, 376018, Note_on_c, 0, 99, 70
1, 376021, Note_off_c, 0, 38, 73
1, 376027, Note_off_c, 0, 50, 70
1, 376032, Control_c, 0, 64, 82
1, 376035, Note_off_c, 0, 99, 63
1, 376042, Note_off_c, 0, 101, 69
1, 376044, Note_off_c, 0, 89, 61
1, 376046, Control_c, 0, 64, 127
1, 376083, Poly_aftertouch_c, 0, 39, 127
1, 376120, Poly_aftertouch_c, 0, 39, 0
1, 376229, Note_on_c, 0, 97, 60
1, 376234, Note_on_c, 0, 85, 82
1, 376238, Note_on_c, 0, 65, 89
1, 376241, Note_on_c, 0, 59, 79
1, 376253, Note_on_c, 0, 56, 58
1, 376258, Note_off_c, 0, 85, 66
1, 376266, Note_off_c, 0, 59, 68
1, 376268, Note_off_c, 0, 65, 60
1, 376276, Note_off_c, 0, 56, 59
1, 376282, Note_off_c, 0, 97, 0
1, 376294, Note_on_c, 0, 98, 103
1, 376297, Note_on_c, 0, 86, 100
1, 376304, Note_on_c, 0, 59, 91
1, 376310, Note_on_c, 0, 56, 73
1, 376318, Poly_aftertouch_c, 0, 97, 127
1, 376325, Note_on_c, 0, 65, 16
1, 376325, Note_off_c, 0, 65, 127
1, 376333, Note_off_c, 0, 86, 65
1, 376335, Poly_aftertouch_c, 0, 97, 0
1, 376342, Note_off_c, 0, 59, 69
1, 376346, Note_on_c, 0, 97, 5
1, 376346, Note_off_c, 0, 97, 127
1, 376362, Note_off_c, 0, 98, 66
1, 376363, Poly_aftertouch_c, 0, 65, 0
1, 376363, Note_off_c, 0, 56, 64
1, 376528, Control_c, 0, 64, 92
1, 376542, Control_c, 0, 64, 53
1, 376557, Control_c, 0, 64, 0
1, 376573, Note_on_c, 0, 45, 101
1, 376576, Note_on_c, 0, 102, 102
1, 376578, Note_on_c, 0, 33, 99
1, 376580, Note_on_c, 0, 90, 104
1, 376587, Control_c, 0, 64, 34
1, 376598, Note_off_c, 0, 33, 72
1, 376602, Control_c, 0, 64, 62
1, 376609, Note_off_c, 0, 45, 70
1, 376613, Note_off_c, 0, 90, 69
1, 376614, Note_off_c, 0, 102, 70
1, 376616, Control_c, 0, 64, 78
1, 376631, Control_c, 0, 64, 127
1, 376695, Poly_aftertouch_c, 0, 34, 0
1, 376860, Note_on_c, 0, 97, 76
1, 376864, Note_on_c, 0, 85, 76
1, 376870, Note_on_c, 0, 62, 71
1, 376870, Note_on_c, 0, 66, 76
1, 376875, Note_on_c, 0, 57, 60
1, 376881, Note_on_c, 0, 54, 56
1, 376884, Note_off_c, 0, 85, 72
1, 376888, Note_off_c, 0, 97, 67
1, 376894, Note_off_c, 0, 66, 70
1, 376917, Note_on_c, 0, 98, 100
1, 376919, Note_on_c, 0, 66, 100
1, 376919, Note_on_c, 0, 86, 102
1, 376935, Note_on_c, 0, 97, 80
1, 376956, Note_on_c, 0, 59, 65
1, 376961, Note_off_c, 0, 97, 68
1, 376968, Note_off_c, 0, 66, 66
1, 376974, Note_off_c, 0, 86, 61
1, 376978, Note_off_c, 0, 57, 67
1, 376978, Note_off_c, 0, 62, 64
1, 376979, Note_off_c, 0, 54, 60
1, 376982, Note_off_c, 0, 59, 67
1, 377063, Note_off_c, 0, 98, 61
1, 377292, Control_c, 0, 64, 120
1, 377307, Control_c, 0, 64, 63
1, 377322, Control_c, 0, 64, 0
1, 377480, Note_on_c, 0, 93, 67
1, 377511, Note_off_c, 0, 93, 62
1, 377520, Note_on_c, 0, 95, 76
1, 377544, Note_off_c, 0, 95, 68
1, 377552, Note_on_c, 0, 97, 80
1, 377576, Note_off_c, 0, 97, 68
1, 377617, Note_on_c, 0, 98, 74
1, 377647, Note_off_c, 0, 98, 67
1, 377660, Note_on_c, 0, 100, 75
1, 377692, Note_on_c, 0, 102, 79
1, 377707, Note_off_c, 0, 100, 67
1, 377718, Note_off_c, 0, 102, 69
1, 377750, Note_on_c, 0, 103, 102
1, 377752, Note_on_c, 0, 91, 103
1, 377753, Note_on_c, 0, 45, 105
1, 377758, Note_on_c, 0, 33, 95
1, 377782, Note_off_c, 0, 33, 71
1, 377792, Note_off_c, 0, 45, 68
1, 377796, Control_c, 0, 64, 66
1, 377800, Note_off_c, 0, 91, 71
1, 377810, Control_c, 0, 64, 127
1, 377815, Note_off_c, 0, 103, 64
1, 378167, Note_on_c, 0, 92, 81
1, 378172, Note_on_c, 0, 104, 80
1, 378176, Note_on_c, 0, 69, 88
1, 378180, Note_on_c, 0, 57, 76
1, 378182, Note_on_c, 0, 64, 72
1, 378189, Note_on_c, 0, 61, 55
1, 378195, Note_off_c, 0, 69, 68
1, 378201, Note_off_c, 0, 104, 64
1, 378204, Note_off_c, 0, 92, 65
1, 378206, Note_off_c, 0, 57, 66
1, 378208, Note_off_c, 0, 64, 67
1, 378211, Note_off_c, 0, 61, 61
1, 378233, Note_on_c, 0, 105, 109
1, 378235, Note_on_c, 0, 93, 103
1, 378241, Note_on_c, 0, 69, 95
1, 378242, Note_on_c, 0, 104, 72
1, 378253, Note_on_c, 0, 64, 90
1, 378254, Note_on_c, 0, 61, 85
1, 378265, Note_off_c, 0, 93, 62
1, 378270, Note_off_c, 0, 104, 67
1, 378270, Poly_aftertouch_c, 0, 57, 127
1, 378283, Note_off_c, 0, 105, 71
1, 378294, Poly_aftertouch_c, 0, 57, 0
1, 378298, Note_off_c, 0, 64, 64
1, 378303, Note_off_c, 0, 69, 61
1, 378311, Note_off_c, 0, 61, 65
1, 379101, Control_c, 0, 64, 63
1, 379116, Control_c, 0, 64, 0
1, 379248, Control_c, 0, 67, 45
1, 379263, Control_c, 0, 67, 60
1, 379278, Control_c, 0, 67, 74
1, 379293, Control_c, 0, 67, 87
1, 379308, Control_c, 0, 67, 99
1, 379323, Control_c, 0, 67, 115
1, 379338, Control_c, 0, 67, 127
1, 379564, Note_on_c, 0, 56, 52
1, 379574, Note_on_c, 0, 44, 46
1, 379608, Note_off_c, 0, 44, 64
1, 379618, Note_off_c, 0, 56, 61
1, 379644, Note_on_c, 0, 45, 53
1, 379652, Note_on_c, 0, 57, 38
1, 379672, Note_off_c, 0, 45, 62
1, 379682, Note_off_c, 0, 57, 55
1, 379719, Note_on_c, 0, 47, 58
1, 379722, Note_on_c, 0, 59, 57
1, 379748, Note_off_c, 0, 47, 65
1, 379757, Note_off_c, 0, 59, 64
1, 379785, Note_on_c, 0, 49, 60
1, 379797, Note_on_c, 0, 61, 51
1, 379815, Note_off_c, 0, 49, 64
1, 379838, Note_off_c, 0, 61, 65
1, 379860, Note_on_c, 0, 62, 62
1, 379866, Note_on_c, 0, 50, 69
1, 379876, Note_on_c, 0, 38, 62
1, 379892, Note_off_c, 0, 50, 67
1, 379906, Note_off_c, 0, 38, 63
1, 379925, Note_off_c, 0, 62, 61
1, 379926, Note_on_c, 0, 54, 58
1, 379959, Note_off_c, 0, 54, 62
1, 379975, Note_on_c, 0, 57, 25
1, 380008, Note_off_c, 0, 57, 54
1, 380017, Note_on_c, 0, 62, 63
1, 380029, Note_on_c, 0, 45, 63
1, 380060, Note_off_c, 0, 45, 64
1, 380063, Note_off_c, 0, 62, 61
1, 380089, Note_on_c, 0, 54, 50
1, 380093, Note_on_c, 0, 57, 56
1, 380116, Note_off_c, 0, 54, 61
1, 380153, Note_off_c, 0, 57, 62
1, 380172, Note_on_c, 0, 42, 59
1, 380178, Note_on_c, 0, 62, 56
1, 380205, Note_off_c, 0, 42, 65
1, 380214, Note_off_c, 0, 62, 64
1, 380233, Note_on_c, 0, 54, 50
1, 380254, Note_on_c, 0, 57, 41
1, 380266, Note_off_c, 0, 54, 63
1, 380281, Note_off_c, 0, 57, 59
1, 380311, Note_on_c, 0, 63, 72
1, 380312, Note_on_c, 0, 49, 66
1, 380321, Note_on_c, 0, 37, 59
1, 380342, Note_off_c, 0, 49, 65
1, 380351, Note_off_c, 0, 63, 59
1, 380353, Note_off_c, 0, 37, 64
1, 380384, Note_on_c, 0, 55, 60
1, 380399, Note_on_c, 0, 58, 51
1, 380415, Note_off_c, 0, 55, 65
1, 380433, Note_off_c, 0, 58, 64
1, 380454, Note_on_c, 0, 63, 68
1, 380471, Note_on_c, 0, 46, 51
1, 380483, Note_off_c, 0, 63, 66
1, 380500, Note_off_c, 0, 46, 62
1, 380510, Note_on_c, 0, 55, 49
1, 380512, Note_on_c, 0, 58, 66
1, 380539, Note_off_c, 0, 55, 62
1, 380563, Note_off_c, 0, 58, 57
1, 380572, Note_on_c, 0, 63, 67
1, 380590, Note_on_c, 0, 43, 43
1, 380600, Note_off_c, 0, 63, 66
1, 380620, Note_off_c, 0, 43, 51
1, 380717, Control_c, 0, 64, 34
1, 380718, Note_on_c, 0, 36, 49
1, 380718, Note_on_c, 0, 64, 60
1, 380723, Note_on_c, 0, 48, 57
1, 380732, Control_c, 0, 64, 62
1, 380747, Note_off_c, 0, 64, 66
1, 380747, Control_c, 0, 64, 69
1, 380751, Note_off_c, 0, 36, 52
1, 380751, Note_off_c, 0, 48, 62
1, 380762, Note_on_c, 0, 65, 68
1, 380762, Control_c, 0, 64, 77
1, 380776, Control_c, 0, 64, 86
1, 380786, Note_off_c, 0, 65, 69
1, 380791, Control_c, 0, 64, 94
1, 380806, Control_c, 0, 64, 104
1, 380820, Control_c, 0, 64, 127
1, 380843, Note_on_c, 0, 67, 57
1, 380864, Note_off_c, 0, 67, 61
1, 380882, Note_on_c, 0, 55, 66
1, 380887, Note_on_c, 0, 58, 60
1, 380888, Note_on_c, 0, 64, 47
1, 380892, Note_on_c, 0, 69, 67
1, 380912, Note_off_c, 0, 64, 61
1, 380915, Note_off_c, 0, 55, 64
1, 380917, Note_off_c, 0, 58, 65
1, 380929, Note_off_c, 0, 69, 61
1, 380943, Note_on_c, 0, 70, 68
1, 380968, Note_off_c, 0, 70, 69
1, 380998, Note_on_c, 0, 72, 72
1, 381001, Note_on_c, 0, 64, 59
1, 381012, Note_on_c, 0, 58, 59
1, 381015, Note_on_c, 0, 55, 59
1, 381028, Note_off_c, 0, 64, 65
1, 381038, Note_off_c, 0, 58, 66
1, 381043, Note_off_c, 0, 55, 65
1, 381045, Note_off_c, 0, 72, 57
1, 381054, Note_on_c, 0, 74, 78
1, 381065, Control_c, 0, 64, 112
1, 381080, Control_c, 0, 64, 73
1, 381093, Note_on_c, 0, 76, 72
1, 381094, Note_off_c, 0, 74, 58
1, 381095, Control_c, 0, 64, 43
1, 381109, Control_c, 0, 64, 0
1, 381118, Note_off_c, 0, 76, 67
1, 381139, Control_c, 0, 64, 37
1, 381148, Note_on_c, 0, 53, 77
1, 381148, Note_on_c, 0, 77, 76
1, 381149, Note_on_c, 0, 41, 74
1, 381153, Control_c, 0, 64, 58
1, 381168, Control_c, 0, 64, 68
1, 381171, Note_off_c, 0, 53, 70
1, 381176, Note_off_c, 0, 41, 66
1, 381183, Control_c, 0, 64, 81
1, 381192, Note_off_c, 0, 77, 58
1, 381199, Control_c, 0, 64, 109
1, 381213, Note_on_c, 0, 79, 68
1, 381214, Control_c, 0, 64, 127
1, 381234, Note_off_c, 0, 79, 72
1, 381237, Note_on_c, 0, 81, 75
1, 381259, Note_off_c, 0, 81, 69
1, 381269, Note_on_c, 0, 82, 68
1, 381284, Note_off_c, 0, 82, 66
1, 381297, Note_on_c, 0, 65, 66
1, 381303, Control_c, 0, 67, 119
1, 381306, Note_on_c, 0, 60, 50
1, 381314, Note_on_c, 0, 57, 46
1, 381318, Control_c, 0, 67, 91
1, 381323, Note_off_c, 0, 65, 67
1, 381330, Note_off_c, 0, 60, 61
1, 381332, Control_c, 0, 67, 57
1, 381334, Note_on_c, 0, 84, 64
1, 381342, Note_off_c, 0, 57, 62
1, 381347, Control_c, 0, 67, 0
1, 381357, Note_on_c, 0, 86, 86
1, 381359, Note_off_c, 0, 84, 70
1, 381391, Note_on_c, 0, 88, 80
1, 381401, Note_on_c, 0, 89, 100
1, 381404, Note_on_c, 0, 65, 76
1, 381407, Note_on_c, 0, 60, 69
1, 381413, Note_off_c, 0, 86, 67
1, 381419, Note_on_c, 0, 57, 72
1, 381422, Note_off_c, 0, 65, 73
1, 381422, Control_c, 0, 64, 95
1, 381430, Note_off_c, 0, 60, 69
1, 381435, Note_off_c, 0, 89, 69
1, 381436, Note_off_c, 0, 88, 44
1, 381436, Control_c, 0, 64, 51
1, 381445, Note_off_c, 0, 57, 66
1, 381451, Control_c, 0, 64, 0
1, 381636, Control_c, 0, 67, 41
1, 381648, Note_on_c, 0, 53, 64
1, 381650, Note_on_c, 0, 41, 63
1, 381651, Control_c, 0, 67, 56
1, 381666, Control_c, 0, 67, 71
1, 381675, Note_off_c, 0, 53, 65
1, 381679, Note_off_c, 0, 41, 66
1, 381681, Control_c, 0, 67, 86
1, 381696, Control_c, 0, 67, 97
1, 381711, Control_c, 0, 67, 100
1, 381725, Note_on_c, 0, 57, 64
1, 381729, Note_on_c, 0, 60, 61
1, 381753, Note_off_c, 0, 57, 64
1, 381766, Note_off_c, 0, 60, 61
1, 381797, Note_on_c, 0, 65, 63
1, 381809, Note_on_c, 0, 48, 64
1, 381840, Note_off_c, 0, 65, 62
1, 381843, Note_off_c, 0, 48, 62
1, 381855, Note_on_c, 0, 57, 52
1, 381865, Note_on_c, 0, 60, 63
1, 381890, Note_off_c, 0, 57, 65
1, 381904, Note_off_c, 0, 60, 60
1, 381936, Note_on_c, 0, 45, 54
1, 381939, Note_on_c, 0, 65, 62
1, 381968, Note_off_c, 0, 65, 67
1, 381969, Note_off_c, 0, 45, 64
1, 381981, Note_on_c, 0, 57, 62
1, 381991, Control_c, 0, 67, 102
1, 382007, Note_on_c, 0, 60, 57
1, 382008, Control_c, 0, 67, 104
1, 382018, Note_off_c, 0, 57, 66
1, 382022, Control_c, 0, 67, 108
1, 382037, Control_c, 0, 67, 126
1, 382038, Note_off_c, 0, 60, 66
1, 382072, Note_on_c, 0, 66, 78
1, 382080, Note_on_c, 0, 52, 61
1, 382088, Note_on_c, 0, 40, 58
1, 382109, Note_off_c, 0, 52, 64
1, 382120, Note_off_c, 0, 40, 63
1, 382129, Note_off_c, 0, 66, 62
1, 382142, Note_on_c, 0, 58, 66
1, 382142, Note_on_c, 0, 61, 67
1, 382171, Note_off_c, 0, 58, 66
1, 382185, Note_off_c, 0, 61, 61
1, 382206, Note_on_c, 0, 66, 66
1, 382224, Note_on_c, 0, 49, 58
1, 382240, Note_off_c, 0, 66, 63
1, 382259, Note_off_c, 0, 49, 62
1, 382272, Note_on_c, 0, 58, 50
1, 382283, Note_on_c, 0, 61, 62
1, 382298, Note_off_c, 0, 58, 58
1, 382329, Note_off_c, 0, 61, 61
1, 382345, Note_on_c, 0, 46, 56
1, 382348, Note_on_c, 0, 66, 58
1, 382377, Note_off_c, 0, 66, 60
1, 382383, Note_off_c, 0, 46, 64
1, 382496, Note_on_c, 0, 39, 58
1, 382509, Note_on_c, 0, 51, 36
1, 382513, Note_on_c, 0, 67, 40
1, 382518, Control_c, 0, 64, 57
1, 382524, Note_off_c, 0, 39, 61
1, 382533, Control_c, 0, 64, 69
1, 382543, Note_off_c, 0, 67, 53
1, 382548, Control_c, 0, 64, 77
1, 382551, Note_off_c, 0, 51, 51
1, 382555, Note_on_c, 0, 68, 60
1, 382563, Control_c, 0, 64, 90
1, 382578, Control_c, 0, 64, 101
1, 382585, Note_off_c, 0, 68, 66
1, 382593, Control_c, 0, 64, 127
1, 382594, Note_on_c, 0, 70, 66
1, 382619, Note_off_c, 0, 70, 70
1, 382644, Note_on_c, 0, 67, 66
1, 382656, Note_on_c, 0, 58, 63
1, 382659, Note_on_c, 0, 72, 67
1, 382666, Note_on_c, 0, 61, 50
1, 382676, Note_off_c, 0, 67, 65
1, 382682, Note_off_c, 0, 72, 68
1, 382688, Note_off_c, 0, 58, 64
1, 382691, Note_off_c, 0, 61, 63
1, 382708, Note_on_c, 0, 73, 74
1, 382753, Note_on_c, 0, 75, 73
1, 382754, Note_off_c, 0, 73, 62
1, 382775, Note_off_c, 0, 75, 74
1, 382787, Note_on_c, 0, 61, 61
1, 382788, Note_on_c, 0, 67, 61
1, 382793, Note_on_c, 0, 58, 61
1, 382803, Note_on_c, 0, 77, 78
1, 382809, Note_off_c, 0, 67, 64
1, 382817, Note_off_c, 0, 61, 67
1, 382826, Note_off_c, 0, 58, 65
1, 382830, Control_c, 0, 64, 89
1, 382845, Control_c, 0, 64, 59
1, 382860, Note_off_c, 0, 77, 60
1, 382860, Control_c, 0, 64, 0
1, 382863, Note_on_c, 0, 79, 82
1, 382890, Control_c, 0, 64, 36
1, 382898, Note_on_c, 0, 80, 75
1, 382904, Control_c, 0, 64, 56
1, 382909, Note_off_c, 0, 79, 62
1, 382919, Control_c, 0, 64, 66
1, 382928, Note_on_c, 0, 56, 89
1, 382933, Note_on_c, 0, 44, 73
1, 382934, Control_c, 0, 64, 83
1, 382941, Note_on_c, 0, 82, 79
1, 382949, Note_off_c, 0, 56, 70
1, 382949, Note_off_c, 0, 80, 68
1, 382949, Control_c, 0, 64, 127
1, 382949, Control_c, 0, 67, 83
1, 382960, Note_off_c, 0, 82, 71
1, 382963, Note_off_c, 0, 44, 64
1, 382964, Control_c, 0, 67, 0
1, 383001, Note_on_c, 0, 84, 82
1, 383039, Note_off_c, 0, 84, 60
1, 383053, Note_on_c, 0, 85, 76
1, 383065, Note_on_c, 0, 60, 61
1, 383073, Note_on_c, 0, 68, 65
1, 383090, Note_off_c, 0, 85, 60
1, 383092, Poly_aftertouch_c, 0, 56, 0
1, 383097, Note_on_c, 0, 87, 66
1, 383101, Note_off_c, 0, 68, 68
1, 383113, Note_off_c, 0, 87, 66
1, 383127, Note_off_c, 0, 60, 58
1, 383154, Note_on_c, 0, 89, 74
1, 383176, Note_off_c, 0, 89, 70
1, 383183, Note_on_c, 0, 91, 83
1, 383198, Note_on_c, 0, 68, 75
1, 383202, Note_on_c, 0, 92, 103
1, 383210, Note_on_c, 0, 63, 62
1, 383212, Note_on_c, 0, 60, 71
1, 383216, Note_off_c, 0, 92, 77
1, 383221, Note_off_c, 0, 68, 69
1, 383227, Note_off_c, 0, 91, 71
1, 383237, Note_off_c, 0, 63, 66
1, 383240, Note_off_c, 0, 60, 65
1, 383267, Control_c, 0, 64, 69
1, 383282, Control_c, 0, 64, 0
1, 383311, Control_c, 0, 67, 79
1, 383326, Control_c, 0, 67, 105
1, 383341, Control_c, 0, 67, 123
1, 383356, Control_c, 0, 67, 127
1, 383429, Note_on_c, 0, 56, 71
1, 383434, Note_on_c, 0, 44, 68
1, 383458, Note_off_c, 0, 56, 65
1, 383465, Note_off_c, 0, 44, 64
1, 383511, Note_on_c, 0, 63, 71
1, 383513, Note_on_c, 0, 60, 58
1, 383545, Note_off_c, 0, 60, 65
1, 383558, Note_off_c, 0, 63, 60
1, 383582, Note_on_c, 0, 68, 65
1, 383600, Note_on_c, 0, 51, 56
1, 383618, Note_off_c, 0, 68, 59
1, 383633, Note_off_c, 0, 51, 63
1, 383637, Note_on_c, 0, 60, 63
1, 383654, Note_on_c, 0, 63, 67
1, 383670, Note_off_c, 0, 60, 63
1, 383687, Note_off_c, 0, 63, 62
1, 383722, Note_on_c, 0, 48, 59
1, 383726, Note_on_c, 0, 68, 66
1, 383754, Note_off_c, 0, 48, 65
1, 383761, Note_off_c, 0, 68, 61
1, 383781, Note_on_c, 0, 60, 62
1, 383790, Note_on_c, 0, 63, 66
1, 383812, Note_off_c, 0, 60, 66
1, 383830, Note_off_c, 0, 63, 59
1, 383848, Note_on_c, 0, 69, 75
1, 383861, Note_on_c, 0, 55, 62
1, 383863, Note_on_c, 0, 43, 63
1, 383899, Note_off_c, 0, 55, 64
1, 383901, Note_off_c, 0, 43, 64
1, 383914, Note_off_c, 0, 69, 62
1, 383925, Note_on_c, 0, 64, 63
1, 383928, Note_on_c, 0, 61, 61
1, 383963, Note_off_c, 0, 61, 63
1, 383986, Note_off_c, 0, 64, 63
1, 384003, Note_on_c, 0, 69, 68
1, 384006, Note_on_c, 0, 52, 54
1, 384042, Note_off_c, 0, 69, 58
1, 384044, Note_off_c, 0, 52, 64
1, 384060, Note_on_c, 0, 61, 59
1, 384069, Note_on_c, 0, 64, 60
1, 384097, Note_off_c, 0, 61, 63
1, 384117, Note_on_c, 0, 49, 56
1, 384119, Note_off_c, 0, 64, 65
1, 384128, Note_on_c, 0, 69, 60
1, 384152, Note_off_c, 0, 49, 62
1, 384158, Note_off_c, 0, 69, 66
1, 384267, Control_c, 0, 64, 42
1, 384272, Note_on_c, 0, 42, 55
1, 384276, Note_on_c, 0, 70, 60
1, 384282, Control_c, 0, 64, 60
1, 384297, Control_c, 0, 64, 66
1, 384300, Note_off_c, 0, 42, 62
1, 384306, Note_off_c, 0, 70, 68
1, 384311, Control_c, 0, 64, 71
1, 384326, Control_c, 0, 64, 79
1, 384341, Control_c, 0, 64, 89
1, 384345, Note_on_c, 0, 71, 56
1, 384356, Control_c, 0, 64, 100
1, 384361, Poly_aftertouch_c, 0, 54, 0
1, 384366, Note_off_c, 0, 71, 63
1, 384370, Control_c, 0, 64, 122
1, 384385, Control_c, 0, 64, 127
1, 384410, Note_on_c, 0, 73, 53
1, 384431, Note_off_c, 0, 73, 60
1, 384461, Note_on_c, 0, 70, 56
1, 384471, Note_on_c, 0, 61, 44
1, 384474, Note_on_c, 0, 75, 46
1, 384480, Note_off_c, 0, 70, 65
1, 384497, Note_off_c, 0, 75, 53
1, 384501, Note_off_c, 0, 61, 56
1, 384510, Note_on_c, 0, 76, 64
1, 384510, Poly_aftertouch_c, 0, 64, 127
1, 384539, Note_off_c, 0, 76, 62
1, 384569, Note_on_c, 0, 78, 73
1, 384569, Poly_aftertouch_c, 0, 64, 0
1, 384573, Note_on_c, 0, 70, 59
1, 384586, Note_on_c, 0, 61, 63
1, 384590, Note_on_c, 0, 64, 26
1, 384608, Note_off_c, 0, 70, 65
1, 384608, Control_c, 0, 64, 90
1, 384620, Note_on_c, 0, 80, 73
1, 384626, Note_off_c, 0, 61, 64
1, 384628, Note_off_c, 0, 78, 61
1, 384631, Control_c, 0, 64, 71
1, 384633, Note_off_c, 0, 64, 56
1, 384646, Control_c, 0, 64, 67
1, 384661, Control_c, 0, 64, 72
1, 384663, Note_on_c, 0, 82, 74
1, 384670, Note_off_c, 0, 80, 67
1, 384675, Control_c, 0, 64, 80
1, 384682, Note_off_c, 0, 82, 72
1, 384690, Control_c, 0, 64, 91
1, 384705, Control_c, 0, 64, 127
1, 384713, Note_on_c, 0, 83, 77
1, 384724, Note_on_c, 0, 57, 63
1, 384739, Note_off_c, 0, 83, 57
1, 384749, Control_c, 0, 67, 100
1, 384760, Note_off_c, 0, 57, 61
1, 384764, Control_c, 0, 67, 39
1, 384767, Note_on_c, 0, 85, 79
1, 384778, Poly_aftertouch_c, 0, 58, 127
1, 384779, Control_c, 0, 67, 0
1, 384799, Note_off_c, 0, 85, 61
1, 384799, Note_on_c, 0, 87, 68
1, 384814, Poly_aftertouch_c, 0, 58, 0
1, 384824, Note_off_c, 0, 87, 70
1, 384850, Note_on_c, 0, 71, 61
1, 384854, Note_on_c, 0, 88, 81
1, 384866, Note_on_c, 0, 63, 58
1, 384869, Note_on_c, 0, 66, 55
1, 384879, Note_off_c, 0, 71, 65
1, 384888, Note_off_c, 0, 88, 64
1, 384891, Note_on_c, 0, 90, 78
1, 384898, Note_off_c, 0, 63, 65
1, 384898, Note_off_c, 0, 66, 63
1, 384925, Note_on_c, 0, 92, 77
1, 384932, Note_on_c, 0, 93, 93
1, 384943, Note_on_c, 0, 95, 97
1, 384947, Note_off_c, 0, 92, 72
1, 384949, Note_off_c, 0, 90, 64
1, 384966, Note_on_c, 0, 71, 71
1, 384972, Control_c, 0, 64, 93
1, 384975, Note_on_c, 0, 63, 66
1, 384978, Note_on_c, 0, 66, 67
1, 384978, Note_off_c, 0, 95, 70
1, 384986, Note_off_c, 0, 93, 46
1, 384987, Control_c, 0, 64, 58
1, 384993, Note_off_c, 0, 71, 64
1, 385001, Control_c, 0, 64, 0
1, 385008, Note_off_c, 0, 66, 66
1, 385009, Note_off_c, 0, 63, 65
1, 385031, Control_c, 0, 67, 67
1, 385046, Control_c, 0, 67, 98
1, 385061, Control_c, 0, 67, 115
1, 385105, Control_c, 0, 64, 30
1, 385119, Control_c, 0, 64, 50
1, 385119, Control_c, 0, 67, 113
1, 385127, Note_on_c, 0, 56, 64
1, 385134, Control_c, 0, 64, 61
1, 385136, Note_on_c, 0, 72, 64
1, 385149, Control_c, 0, 64, 67
1, 385149, Control_c, 0, 67, 111
1, 385164, Control_c, 0, 64, 71
1, 385165, Note_off_c, 0, 56, 62
1, 385166, Note_off_c, 0, 72, 61
1, 385179, Control_c, 0, 64, 76
1, 385189, Note_on_c, 0, 73, 70
1, 385195, Control_c, 0, 64, 82
1, 385195, Control_c, 0, 67, 109
1, 385210, Control_c, 0, 64, 88
1, 385210, Control_c, 0, 67, 106
1, 385218, Note_off_c, 0, 73, 63
1, 385224, Control_c, 0, 64, 95
1, 385236, Note_on_c, 0, 75, 65
1, 385239, Control_c, 0, 64, 99
1, 385239, Control_c, 0, 67, 104
1, 385254, Control_c, 0, 64, 103
1, 385262, Note_off_c, 0, 75, 70
1, 385269, Control_c, 0, 64, 108
1, 385282, Note_on_c, 0, 72, 54
1, 385283, Note_on_c, 0, 63, 64
1, 385284, Control_c, 0, 64, 114
1, 385292, Note_on_c, 0, 76, 64
1, 385298, Control_c, 0, 64, 122
1, 385305, Note_on_c, 0, 66, 40
1, 385309, Note_off_c, 0, 72, 56
1, 385313, Control_c, 0, 64, 127
1, 385316, Note_off_c, 0, 63, 64
1, 385321, Note_off_c, 0, 76, 62
1, 385334, Note_off_c, 0, 66, 54
1, 385337, Note_on_c, 0, 78, 78
1, 385377, Note_on_c, 0, 80, 71
1, 385377, Note_off_c, 0, 78, 59
1, 385413, Note_on_c, 0, 72, 61
1, 385419, Note_off_c, 0, 80, 68
1, 385420, Note_on_c, 0, 63, 59
1, 385422, Note_on_c, 0, 82, 74
1, 385424, Control_c, 0, 67, 106
1, 385425, Note_on_c, 0, 66, 61
1, 385439, Control_c, 0, 64, 86
1, 385442, Note_off_c, 0, 82, 71
1, 385443, Note_off_c, 0, 72, 60
1, 385454, Control_c, 0, 64, 69
1, 385459, Note_off_c, 0, 63, 58
1, 385469, Control_c, 0, 64, 64
1, 385478, Note_on_c, 0, 84, 78
1, 385484, Control_c, 0, 64, 68
1, 385488, Note_off_c, 0, 66, 60
1, 385498, Control_c, 0, 64, 75
1, 385498, Control_c, 0, 67, 104
1, 385512, Note_off_c, 0, 84, 62
1, 385513, Control_c, 0, 64, 84
1, 385528, Control_c, 0, 64, 106
1, 385528, Control_c, 0, 67, 102
1, 385529, Note_on_c, 0, 85, 73
1, 385543, Control_c, 0, 64, 127
1, 385543, Control_c, 0, 67, 99
1, 385550, Note_on_c, 0, 59, 66
1, 385558, Control_c, 0, 67, 97
1, 385559, Note_off_c, 0, 85, 63
1, 385563, Note_on_c, 0, 87, 79
1, 385572, Control_c, 0, 67, 96
1, 385580, Note_off_c, 0, 87, 74
1, 385581, Note_off_c, 0, 59, 65
1, 385587, Control_c, 0, 67, 94
1, 385616, Control_c, 0, 67, 95
1, 385622, Note_on_c, 0, 89, 79
1, 385646, Control_c, 0, 67, 96
1, 385660, Note_off_c, 0, 89, 57
1, 385669, Note_on_c, 0, 73, 73
1, 385678, Note_on_c, 0, 90, 70
1, 385679, Note_on_c, 0, 68, 59
1, 385687, Note_on_c, 0, 65, 57
1, 385692, Note_off_c, 0, 73, 66
1, 385698, Note_on_c, 0, 92, 76
1, 385700, Note_off_c, 0, 90, 70
1, 385710, Note_off_c, 0, 68, 64
1, 385720, Note_off_c, 0, 92, 71
1, 385727, Note_off_c, 0, 65, 58
1, 385735, Control_c, 0, 67, 92
1, 385750, Note_on_c, 0, 93, 80
1, 385750, Control_c, 0, 67, 80
1, 385765, Control_c, 0, 67, 0
1, 385781, Note_on_c, 0, 95, 89
1, 385781, Note_off_c, 0, 93, 63
1, 385795, Note_on_c, 0, 73, 76
1, 385806, Note_on_c, 0, 97, 96
1, 385807, Note_on_c, 0, 68, 68
1, 385817, Note_on_c, 0, 65, 64
1, 385821, Note_off_c, 0, 95, 69
1, 385824, Control_c, 0, 64, 65
1, 385825, Note_off_c, 0, 97, 70
1, 385829, Note_off_c, 0, 73, 62
1, 385839, Control_c, 0, 64, 0
1, 385844, Note_off_c, 0, 68, 60
1, 385868, Note_off_c, 0, 65, 53
1, 385942, Control_c, 0, 64, 45
1, 385942, Control_c, 0, 67, 39
1, 385957, Control_c, 0, 64, 59
1, 385957, Control_c, 0, 67, 50
1, 385964, Note_on_c, 0, 59, 66
1, 385967, Note_on_c, 0, 86, 71
1, 385972, Control_c, 0, 64, 66
1, 385972, Control_c, 0, 67, 56
1, 385988, Control_c, 0, 64, 71
1, 385988, Control_c, 0, 67, 58
1, 385992, Note_off_c, 0, 86, 68
1, 386002, Note_off_c, 0, 59, 63
1, 386003, Control_c, 0, 64, 76
1, 386014, Note_on_c, 0, 87, 71
1, 386018, Control_c, 0, 64, 80
1, 386033, Control_c, 0, 64, 84
1, 386042, Note_off_c, 0, 87, 67
1, 386047, Control_c, 0, 64, 87
1, 386062, Control_c, 0, 64, 89
1, 386072, Note_on_c, 0, 88, 64
1, 386077, Control_c, 0, 64, 91
1, 386092, Control_c, 0, 64, 92
1, 386103, Note_off_c, 0, 88, 64
1, 386107, Control_c, 0, 64, 93
1, 386128, Control_c, 0, 64, 94
1, 386131, Note_on_c, 0, 89, 61
1, 386136, Note_on_c, 0, 74, 66
1, 386143, Control_c, 0, 64, 95
1, 386155, Note_on_c, 0, 65, 41
1, 386158, Control_c, 0, 64, 95
1, 386160, Note_on_c, 0, 68, 37
1, 386160, Note_off_c, 0, 89, 66
1, 386164, Note_on_c, 0, 90, 58
1, 386165, Note_off_c, 0, 74, 64
1, 386173, Control_c, 0, 64, 96
1, 386188, Note_off_c, 0, 65, 50
1, 386189, Note_off_c, 0, 90, 65
1, 386190, Note_off_c, 0, 68, 53
1, 386203, Control_c, 0, 67, 57
1, 386215, Note_on_c, 0, 91, 70
1, 386242, Note_off_c, 0, 91, 69
1, 386247, Control_c, 0, 64, 98
1, 386262, Note_on_c, 0, 92, 78
1, 386274, Note_on_c, 0, 74, 56
1, 386286, Note_off_c, 0, 92, 69
1, 386288, Note_on_c, 0, 65, 52
1, 386292, Control_c, 0, 64, 101
1, 386295, Note_on_c, 0, 68, 47
1, 386295, Note_off_c, 0, 74, 62
1, 386321, Control_c, 0, 64, 104
1, 386321, Control_c, 0, 67, 56
1, 386323, Note_on_c, 0, 93, 70
1, 386336, Control_c, 0, 64, 107
1, 386336, Control_c, 0, 67, 56
1, 386337, Note_off_c, 0, 68, 59
1, 386341, Note_off_c, 0, 93, 65
1, 386351, Control_c, 0, 64, 116
1, 386351, Control_c, 0, 67, 55
1, 386366, Control_c, 0, 64, 127
1, 386366, Control_c, 0, 67, 54
1, 386369, Note_on_c, 0, 94, 71
1, 386385, Note_off_c, 0, 65, 47
1, 386398, Note_off_c, 0, 94, 66
1, 386412, Note_on_c, 0, 58, 64
1, 386415, Note_on_c, 0, 95, 77
1, 386425, Control_c, 0, 64, 102
1, 386439, Control_c, 0, 64, 63
1, 386449, Note_off_c, 0, 58, 62
1, 386454, Control_c, 0, 64, 0
1, 386454, Control_c, 0, 67, 55
1, 386458, Note_off_c, 0, 95, 63
1, 386468, Note_on_c, 0, 96, 78
1, 386469, Control_c, 0, 67, 56
1, 386504, Note_on_c, 0, 97, 73
1, 386510, Note_off_c, 0, 96, 63
1, 386513, Control_c, 0, 67, 56
1, 386537, Note_off_c, 0, 97, 65
1, 386549, Note_on_c, 0, 98, 83
1, 386554, Note_on_c, 0, 74, 60
1, 386558, Control_c, 0, 67, 56
1, 386567, Note_on_c, 0, 65, 40
1, 386573, Note_on_c, 0, 68, 46
1, 386575, Note_off_c, 0, 74, 63
1, 386591, Note_off_c, 0, 98, 66
1, 386599, Note_off_c, 0, 65, 53
1, 386602, Note_off_c, 0, 68, 59
1, 386618, Note_on_c, 0, 99, 73
1, 386647, Control_c, 0, 67, 56
1, 386649, Note_off_c, 0, 99, 64
1, 386669, Note_on_c, 0, 74, 60
1, 386678, Note_on_c, 0, 98, 63
1, 386693, Note_off_c, 0, 74, 64
1, 386698, Note_on_c, 0, 68, 51
1, 386700, Note_off_c, 0, 98, 59
1, 386707, Control_c, 0, 67, 58
1, 386707, Note_on_c, 0, 65, 48
1, 386719, Note_on_c, 0, 101, 70
1, 386721, Control_c, 0, 67, 59
1, 386728, Note_off_c, 0, 68, 64
1, 386732, Note_off_c, 0, 65, 62
1, 386736, Control_c, 0, 67, 60
1, 386751, Control_c, 0, 67, 62
1, 386765, Control_c, 0, 67, 64
1, 386771, Note_on_c, 0, 102, 95
1, 386780, Control_c, 0, 67, 68
1, 386784, Note_off_c, 0, 101, 68
1, 386790, Poly_aftertouch_c, 0, 100, 0
1, 386796, Control_c, 0, 64, 48
1, 386796, Control_c, 0, 67, 101
1, 386808, Note_off_c, 0, 102, 69
1, 386811, Control_c, 0, 64, 64
1, 386811, Control_c, 0, 67, 127
1, 386826, Control_c, 0, 64, 72
1, 386836, Note_on_c, 0, 57, 66
1, 386841, Control_c, 0, 64, 84
1, 386856, Control_c, 0, 64, 93
1, 386870, Note_off_c, 0, 57, 67
1, 386877, Control_c, 0, 64, 98
1, 386892, Control_c, 0, 64, 102
1, 386907, Control_c, 0, 64, 104
1, 386922, Control_c, 0, 64, 107
1, 387026, Control_c, 0, 64, 104
1, 387041, Control_c, 0, 64, 90
1, 387043, Note_on_c, 0, 69, 58
1, 387046, Note_on_c, 0, 74, 60
1, 387055, Note_on_c, 0, 66, 55
1, 387055, Control_c, 0, 64, 69
1, 387061, Note_on_c, 0, 90, 69
1, 387070, Control_c, 0, 64, 51
1, 387073, Note_off_c, 0, 74, 63
1, 387076, Note_off_c, 0, 69, 63
1, 387085, Control_c, 0, 64, 0
1, 387085, Note_off_c, 0, 66, 65
1, 387100, Note_off_c, 0, 90, 61
1, 387136, Note_on_c, 0, 86, 63
1, 387181, Note_off_c, 0, 86, 60
1, 387210, Note_on_c, 0, 74, 50
1, 387214, Note_on_c, 0, 91, 68
1, 387222, Note_on_c, 0, 69, 35
1, 387225, Note_on_c, 0, 66, 40
1, 387235, Note_off_c, 0, 74, 59
1, 387252, Note_off_c, 0, 66, 59
1, 387252, Note_off_c, 0, 69, 51
1, 387267, Note_off_c, 0, 91, 60
1, 387288, Note_on_c, 0, 90, 59
1, 387351, Control_c, 0, 64, 39
1, 387354, Note_off_c, 0, 90, 62
1, 387366, Control_c, 0, 64, 54
1, 387376, Note_on_c, 0, 95, 63
1, 387381, Control_c, 0, 64, 63
1, 387387, Note_on_c, 0, 63, 49
1, 387395, Control_c, 0, 64, 67
1, 387410, Control_c, 0, 64, 71
1, 387425, Control_c, 0, 64, 75
1, 387428, Note_off_c, 0, 63, 61
1, 387440, Control_c, 0, 64, 80
1, 387455, Note_off_c, 0, 95, 62
1, 387455, Control_c, 0, 64, 84
1, 387465, Note_on_c, 0, 93, 67
1, 387470, Control_c, 0, 64, 87
1, 387485, Control_c, 0, 64, 88
1, 387500, Control_c, 0, 64, 89
1, 387509, Note_off_c, 0, 93, 58
1, 387529, Control_c, 0, 64, 88
1, 387537, Note_on_c, 0, 90, 60
1, 387544, Control_c, 0, 64, 88
1, 387559, Control_c, 0, 64, 78
1, 387561, Note_on_c, 0, 72, 47
1, 387566, Note_off_c, 0, 90, 66
1, 387567, Note_on_c, 0, 69, 44
1, 387568, Note_on_c, 0, 66, 51
1, 387574, Control_c, 0, 64, 63
1, 387584, Note_off_c, 0, 72, 57
1, 387589, Control_c, 0, 64, 36
1, 387596, Note_off_c, 0, 69, 56
1, 387596, Note_off_c, 0, 66, 60
1, 387598, Note_on_c, 0, 84, 58
1, 387604, Control_c, 0, 64, 0
1, 387632, Note_off_c, 0, 84, 67
1, 387699, Note_on_c, 0, 81, 67
1, 387708, Note_on_c, 0, 66, 49
1, 387712, Note_on_c, 0, 72, 28
1, 387732, Note_on_c, 0, 69, 14
1, 387741, Note_off_c, 0, 81, 61
1, 387742, Note_off_c, 0, 72, 54
1, 387752, Note_off_c, 0, 66, 65
1, 387766, Note_on_c, 0, 78, 65
1, 387781, Note_off_c, 0, 69, 37
1, 387810, Note_off_c, 0, 78, 59
1, 387833, Control_c, 0, 64, 32
1, 387848, Control_c, 0, 64, 49
1, 387856, Note_on_c, 0, 79, 54
1, 387863, Control_c, 0, 64, 62
1, 387864, Note_on_c, 0, 64, 64
1, 387878, Control_c, 0, 64, 67
1, 387893, Control_c, 0, 64, 72
1, 387901, Note_off_c, 0, 79, 53
1, 387908, Control_c, 0, 64, 77
1, 387908, Note_off_c, 0, 64, 60
1, 387923, Control_c, 0, 64, 82
1, 387925, Note_on_c, 0, 82, 67
1, 387937, Control_c, 0, 64, 88
1, 387952, Control_c, 0, 64, 90
1, 387967, Control_c, 0, 64, 91
1, 387982, Note_off_c, 0, 82, 61
1, 388008, Note_on_c, 0, 85, 69
1, 388026, Control_c, 0, 64, 91
1, 388033, Note_on_c, 0, 67, 57
1, 388036, Note_on_c, 0, 71, 45
1, 388041, Control_c, 0, 64, 85
1, 388045, Note_off_c, 0, 85, 61
1, 388056, Control_c, 0, 64, 71
1, 388063, Note_off_c, 0, 71, 55
1, 388064, Note_off_c, 0, 67, 65
1, 388071, Control_c, 0, 64, 52
1, 388085, Note_on_c, 0, 83, 67
1, 388085, Control_c, 0, 64, 0
1, 388131, Note_off_c, 0, 83, 59
1, 388160, Note_on_c, 0, 90, 66
1, 388167, Note_on_c, 0, 71, 44
1, 388170, Note_on_c, 0, 67, 61
1, 388191, Note_off_c, 0, 71, 54
1, 388199, Note_off_c, 0, 67, 65
1, 388228, Note_on_c, 0, 88, 73
1, 388228, Note_off_c, 0, 90, 62
1, 388303, Note_off_c, 0, 88, 63
1, 388307, Control_c, 0, 64, 44
1, 388313, Note_on_c, 0, 93, 77
1, 388316, Note_on_c, 0, 55, 60
1, 388322, Control_c, 0, 64, 58
1, 388337, Control_c, 0, 64, 65
1, 388347, Note_off_c, 0, 55, 64
1, 388352, Control_c, 0, 64, 70
1, 388374, Control_c, 0, 64, 76
1, 388390, Control_c, 0, 64, 83
1, 388397, Note_on_c, 0, 91, 70
1, 388397, Note_off_c, 0, 93, 62
1, 388405, Control_c, 0, 64, 88
1, 388420, Control_c, 0, 64, 94
1, 388435, Control_c, 0, 64, 97
1, 388456, Note_off_c, 0, 91, 66
1, 388465, Note_on_c, 0, 88, 63
1, 388480, Note_on_c, 0, 67, 54
1, 388480, Note_on_c, 0, 71, 50
1, 388486, Note_on_c, 0, 64, 54
1, 388493, Note_off_c, 0, 88, 67
1, 388494, Control_c, 0, 64, 90
1, 388505, Note_off_c, 0, 71, 60
1, 388509, Control_c, 0, 64, 72
1, 388513, Note_off_c, 0, 67, 65
1, 388518, Note_off_c, 0, 64, 66
1, 388520, Note_on_c, 0, 83, 67
1, 388523, Control_c, 0, 64, 52
1, 388538, Control_c, 0, 64, 0
1, 388545, Note_off_c, 0, 83, 67
1, 388606, Note_on_c, 0, 79, 64
1, 388610, Note_on_c, 0, 71, 54
1, 388617, Note_on_c, 0, 67, 46
1, 388617, Note_on_c, 0, 64, 53
1, 388632, Note_off_c, 0, 71, 62
1, 388637, Note_off_c, 0, 79, 61
1, 388642, Note_off_c, 0, 67, 58
1, 388647, Note_off_c, 0, 64, 66
1, 388666, Note_on_c, 0, 76, 69
1, 388698, Note_off_c, 0, 76, 60
1, 388731, Control_c, 0, 64, 29
1, 388746, Control_c, 0, 64, 51
1, 388749, Note_on_c, 0, 77, 68
1, 388758, Note_on_c, 0, 57, 60
1, 388760, Control_c, 0, 64, 63
1, 388775, Control_c, 0, 64, 72
1, 388787, Note_off_c, 0, 57, 66
1, 388790, Control_c, 0, 64, 85
1, 388805, Control_c, 0, 64, 96
1, 388817, Note_off_c, 0, 77, 61
1, 388817, Note_on_c, 0, 78, 72
1, 388820, Control_c, 0, 64, 107
1, 388834, Control_c, 0, 64, 127
1, 388868, Note_off_c, 0, 78, 61
1, 388883, Note_on_c, 0, 83, 73
1, 388902, Note_on_c, 0, 69, 58
1, 388904, Note_on_c, 0, 66, 62
1, 388911, Note_off_c, 0, 83, 63
1, 388923, Control_c, 0, 64, 109
1, 388930, Note_off_c, 0, 69, 67
1, 388936, Note_off_c, 0, 66, 66
1, 388938, Control_c, 0, 64, 80
1, 388945, Note_on_c, 0, 81, 76
1, 388953, Control_c, 0, 64, 59
1, 388967, Control_c, 0, 64, 0
1, 388999, Note_off_c, 0, 81, 63
1, 389017, Note_on_c, 0, 88, 80
1, 389020, Note_on_c, 0, 66, 66
1, 389023, Note_on_c, 0, 69, 57
1, 389052, Note_off_c, 0, 69, 67
1, 389054, Note_off_c, 0, 66, 65
1, 389075, Note_on_c, 0, 86, 77
1, 389086, Note_off_c, 0, 88, 63
1, 389151, Note_on_c, 0, 91, 78
1, 389156, Note_off_c, 0, 86, 65
1, 389163, Note_on_c, 0, 57, 64
1, 389182, Control_c, 0, 64, 49
1, 389189, Note_off_c, 0, 57, 66
1, 389198, Control_c, 0, 64, 60
1, 389213, Control_c, 0, 64, 65
1, 389214, Note_on_c, 0, 90, 75
1, 389228, Control_c, 0, 64, 70
1, 389237, Note_off_c, 0, 91, 64
1, 389243, Control_c, 0, 64, 75
1, 389258, Control_c, 0, 64, 80
1, 389272, Control_c, 0, 64, 85
1, 389278, Note_on_c, 0, 86, 70
1, 389287, Control_c, 0, 64, 90
1, 389291, Note_off_c, 0, 90, 64
1, 389302, Control_c, 0, 64, 95
1, 389311, Note_on_c, 0, 62, 61
1, 389313, Note_on_c, 0, 69, 55
1, 389317, Control_c, 0, 64, 98
1, 389323, Note_on_c, 0, 66, 42
1, 389326, Note_off_c, 0, 86, 65
1, 389332, Control_c, 0, 64, 101
1, 389345, Note_off_c, 0, 62, 64
1, 389345, Note_off_c, 0, 69, 63
1, 389346, Control_c, 0, 64, 103
1, 389351, Note_off_c, 0, 66, 54
1, 389354, Note_on_c, 0, 81, 65
1, 389361, Control_c, 0, 64, 105
1, 389390, Control_c, 0, 64, 108
1, 389414, Note_off_c, 0, 81, 64
1, 389416, Note_on_c, 0, 78, 74
1, 389423, Note_on_c, 0, 66, 70
1, 389429, Note_on_c, 0, 62, 54
1, 389434, Note_on_c, 0, 69, 48
1, 389435, Control_c, 0, 64, 112
1, 389437, Note_off_c, 0, 78, 69
1, 389450, Control_c, 0, 64, 118
1, 389455, Note_off_c, 0, 66, 65
1, 389459, Note_off_c, 0, 69, 61
1, 389460, Note_off_c, 0, 62, 63
1, 389464, Control_c, 0, 64, 127
1, 389467, Note_on_c, 0, 74, 76
1, 389494, Note_off_c, 0, 74, 65
1, 389524, Control_c, 0, 64, 97
1, 389539, Control_c, 0, 64, 68
1, 389553, Control_c, 0, 64, 40
1, 389568, Control_c, 0, 64, 0
1, 389574, Note_on_c, 0, 90, 81
1, 389581, Note_on_c, 0, 57, 66
1, 389583, Control_c, 0, 64, 34
1, 389591, Note_on_c, 0, 59, 63
1, 389598, Control_c, 0, 64, 54
1, 389613, Control_c, 0, 64, 65
1, 389619, Note_off_c, 0, 57, 63
1, 389619, Note_off_c, 0, 59, 64
1, 389628, Control_c, 0, 64, 72
1, 389640, Note_on_c, 0, 88, 71
1, 389643, Control_c, 0, 64, 80
1, 389657, Control_c, 0, 64, 88
1, 389660, Note_off_c, 0, 90, 62
1, 389672, Control_c, 0, 64, 92
1, 389687, Control_c, 0, 64, 94
1, 389703, Note_on_c, 0, 85, 69
1, 389706, Note_off_c, 0, 88, 65
1, 389722, Note_on_c, 0, 69, 57
1, 389728, Note_on_c, 0, 61, 59
1, 389735, Note_off_c, 0, 85, 63
1, 389750, Note_on_c, 0, 64, 16
1, 389750, Note_off_c, 0, 69, 68
1, 389761, Note_off_c, 0, 61, 65
1, 389763, Note_on_c, 0, 81, 56
1, 389777, Control_c, 0, 64, 94
1, 389783, Note_off_c, 0, 81, 62
1, 389790, Note_off_c, 0, 64, 54
1, 389791, Control_c, 0, 64, 90
1, 389806, Control_c, 0, 64, 81
1, 389821, Control_c, 0, 64, 72
1, 389835, Note_on_c, 0, 76, 71
1, 389836, Control_c, 0, 64, 65
1, 389838, Note_on_c, 0, 69, 65
1, 389848, Note_on_c, 0, 61, 59
1, 389851, Control_c, 0, 64, 58
1, 389869, Note_off_c, 0, 69, 69
1, 389872, Control_c, 0, 64, 48
1, 389879, Note_on_c, 0, 64, 24
1, 389884, Note_off_c, 0, 61, 67
1, 389887, Control_c, 0, 64, 0
1, 389902, Control_c, 0, 67, 102
1, 389915, Note_off_c, 0, 64, 52
1, 389917, Control_c, 0, 67, 48
1, 389932, Control_c, 0, 67, 0
1, 389932, Note_off_c, 0, 76, 62
1, 389945, Note_on_c, 0, 73, 55
1, 389989, Note_on_c, 0, 55, 84
1, 389995, Note_on_c, 0, 83, 79
1, 389998, Note_off_c, 0, 73, 59
1, 390021, Control_c, 0, 64, 40
1, 390036, Control_c, 0, 64, 61
1, 390039, Note_off_c, 0, 55, 61
1, 390051, Control_c, 0, 64, 71
1, 390058, Note_on_c, 0, 81, 66
1, 390066, Control_c, 0, 64, 81
1, 390079, Note_off_c, 0, 83, 62
1, 390081, Control_c, 0, 64, 93
1, 390096, Control_c, 0, 64, 105
1, 390101, Note_on_c, 0, 76, 73
1, 390111, Control_c, 0, 64, 127
1, 390116, Note_off_c, 0, 81, 64
1, 390132, Note_on_c, 0, 61, 69
1, 390136, Note_on_c, 0, 64, 58
1, 390156, Note_off_c, 0, 76, 63
1, 390161, Note_off_c, 0, 61, 66
1, 390163, Note_off_c, 0, 64, 67
1, 390176, Note_on_c, 0, 73, 71
1, 390199, Note_off_c, 0, 73, 70
1, 390229, Control_c, 0, 64, 93
1, 390244, Control_c, 0, 64, 71
1, 390259, Control_c, 0, 64, 52
1, 390263, Note_on_c, 0, 64, 54
1, 390269, Note_on_c, 0, 71, 64
1, 390274, Control_c, 0, 64, 0
1, 390275, Note_on_c, 0, 61, 56
1, 390302, Note_off_c, 0, 64, 66
1, 390302, Note_off_c, 0, 71, 63
1, 390307, Note_off_c, 0, 61, 65
1, 390308, Note_on_c, 0, 68, 74
1, 390362, Note_off_c, 0, 68, 63
1, 390389, Note_on_c, 0, 69, 68
1, 390400, Note_on_c, 0, 54, 72
1, 390406, Control_c, 0, 64, 48
1, 390421, Control_c, 0, 64, 67
1, 390427, Note_off_c, 0, 69, 56
1, 390436, Control_c, 0, 64, 80
1, 390448, Note_off_c, 0, 54, 57
1, 390451, Control_c, 0, 64, 99
1, 390464, Note_on_c, 0, 73, 75
1, 390466, Control_c, 0, 64, 111
1, 390480, Control_c, 0, 64, 120
1, 390495, Control_c, 0, 64, 127
1, 390519, Note_off_c, 0, 73, 64
1, 390529, Note_on_c, 0, 76, 75
1, 390536, Note_on_c, 0, 66, 68
1, 390550, Note_on_c, 0, 62, 57
1, 390554, Control_c, 0, 67, 49
1, 390567, Note_off_c, 0, 66, 65
1, 390569, Control_c, 0, 67, 59
1, 390579, Note_off_c, 0, 76, 62
1, 390582, Note_off_c, 0, 62, 64
1, 390584, Control_c, 0, 67, 64
1, 390599, Control_c, 0, 67, 65
1, 390600, Note_on_c, 0, 74, 75
1, 390621, Control_c, 0, 67, 66
1, 390635, Control_c, 0, 64, 118
1, 390650, Control_c, 0, 64, 102
1, 390656, Note_off_c, 0, 74, 60
1, 390665, Control_c, 0, 64, 86
1, 390665, Control_c, 0, 67, 67
1, 390669, Note_on_c, 0, 66, 71
1, 390670, Note_on_c, 0, 62, 63
1, 390680, Control_c, 0, 64, 69
1, 390680, Control_c, 0, 67, 70
1, 390681, Note_on_c, 0, 79, 73
1, 390695, Control_c, 0, 64, 50
1, 390695, Control_c, 0, 67, 79
1, 390697, Note_off_c, 0, 66, 69
1, 390700, Note_off_c, 0, 62, 66
1, 390710, Control_c, 0, 64, 0
1, 390710, Control_c, 0, 67, 93
1, 390725, Control_c, 0, 67, 100
1, 390755, Note_off_c, 0, 79, 63
1, 390756, Note_on_c, 0, 78, 74
1, 390785, Control_c, 0, 64, 30
1, 390785, Control_c, 0, 67, 96
1, 390799, Control_c, 0, 64, 53
1, 390799, Control_c, 0, 67, 90
1, 390809, Note_on_c, 0, 51, 64
1, 390814, Control_c, 0, 64, 65
1, 390814, Control_c, 0, 67, 85
1, 390823, Note_on_c, 0, 83, 80
1, 390825, Note_off_c, 0, 78, 61
1, 390829, Control_c, 0, 64, 73
1, 390829, Control_c, 0, 67, 83
1, 390844, Control_c, 0, 64, 82
1, 390844, Control_c, 0, 67, 81
1, 390846, Note_off_c, 0, 51, 63
1, 390859, Control_c, 0, 64, 92
1, 390874, Control_c, 0, 64, 102
1, 390874, Control_c, 0, 67, 80
1, 390889, Control_c, 0, 64, 109
1, 390889, Control_c, 0, 67, 81
1, 390894, Note_on_c, 0, 81, 76
1, 390904, Control_c, 0, 64, 115
1, 390904, Control_c, 0, 67, 81
1, 390906, Note_off_c, 0, 83, 59
1, 390918, Control_c, 0, 64, 119
1, 390918, Control_c, 0, 67, 83
1, 390933, Control_c, 0, 67, 85
1, 390938, Note_on_c, 0, 66, 101
1, 390941, Note_on_c, 0, 78, 76
1, 390947, Note_off_c, 0, 81, 64
1, 390948, Control_c, 0, 67, 88
1, 390957, Note_on_c, 0, 60, 69
1, 390962, Control_c, 0, 67, 89
1, 390977, Control_c, 0, 67, 90
1, 390987, Note_off_c, 0, 60, 66
1, 390987, Note_off_c, 0, 78, 61
1, 390988, Note_on_c, 0, 57, 25
1, 390991, Note_off_c, 0, 66, 62
1, 390992, Control_c, 0, 64, 117
1, 390992, Control_c, 0, 67, 92
1, 391002, Note_on_c, 0, 72, 67
1, 391007, Control_c, 0, 67, 92
1, 391022, Control_c, 0, 64, 113
1, 391022, Control_c, 0, 67, 93
1, 391023, Note_off_c, 0, 57, 44
1, 391026, Note_off_c, 0, 72, 67
1, 391036, Control_c, 0, 64, 107
1, 391036, Control_c, 0, 67, 94
1, 391051, Control_c, 0, 64, 100
1, 391051, Control_c, 0, 67, 94
1, 391066, Control_c, 0, 64, 90
1, 391081, Control_c, 0, 64, 76
1, 391083, Note_on_c, 0, 69, 72
1, 391091, Note_on_c, 0, 60, 68
1, 391095, Note_on_c, 0, 57, 63
1, 391096, Control_c, 0, 64, 62
1, 391110, Control_c, 0, 64, 32
1, 391110, Control_c, 0, 67, 94
1, 391113, Note_off_c, 0, 57, 64
1, 391121, Note_off_c, 0, 60, 66
1, 391125, Control_c, 0, 64, 0
1, 391125, Control_c, 0, 67, 92
1, 391131, Note_off_c, 0, 69, 58
1, 391140, Control_c, 0, 67, 90
1, 391141, Note_on_c, 0, 66, 72
1, 391154, Control_c, 0, 67, 89
1, 391169, Control_c, 0, 67, 87
1, 391179, Note_off_c, 0, 66, 65
1, 391184, Control_c, 0, 67, 86
1, 391199, Control_c, 0, 67, 85
1, 391209, Note_on_c, 0, 52, 70
1, 391214, Control_c, 0, 64, 32
1, 391214, Control_c, 0, 67, 84
1, 391222, Note_on_c, 0, 67, 66
1, 391229, Control_c, 0, 64, 53
1, 391229, Control_c, 0, 67, 79
1, 391244, Control_c, 0, 64, 66
1, 391244, Control_c, 0, 67, 66
1, 391251, Note_off_c, 0, 52, 59
1, 391258, Control_c, 0, 64, 72
1, 391258, Control_c, 0, 67, 0
1, 391266, Note_off_c, 0, 67, 54
1, 391273, Control_c, 0, 64, 82
1, 391288, Control_c, 0, 64, 95
1, 391292, Note_on_c, 0, 70, 68
1, 391303, Control_c, 0, 64, 109
1, 391318, Control_c, 0, 64, 127
1, 391333, Note_on_c, 0, 73, 69
1, 391336, Note_off_c, 0, 70, 59
1, 391349, Note_on_c, 0, 59, 65
1, 391350, Note_on_c, 0, 55, 64
1, 391351, Note_on_c, 0, 64, 62
1, 391391, Note_off_c, 0, 64, 65
1, 391393, Note_off_c, 0, 59, 64
1, 391393, Note_off_c, 0, 73, 60
1, 391398, Note_off_c, 0, 55, 63
1, 391419, Note_on_c, 0, 71, 72
1, 391461, Note_on_c, 0, 64, 57
1, 391472, Note_off_c, 0, 71, 58
1, 391477, Note_on_c, 0, 78, 78
1, 391479, Note_off_c, 0, 64, 67
1, 391485, Note_on_c, 0, 59, 38
1, 391508, Note_off_c, 0, 59, 60
1, 391518, Control_c, 0, 64, 106
1, 391533, Control_c, 0, 64, 72
1, 391533, Note_on_c, 0, 76, 83
1, 391548, Control_c, 0, 64, 30
1, 391550, Note_off_c, 0, 78, 60
1, 391562, Control_c, 0, 64, 0
1, 391588, Note_on_c, 0, 43, 81
1, 391592, Control_c, 0, 64, 32
1, 391597, Note_on_c, 0, 81, 87
1, 391604, Note_off_c, 0, 76, 66
1, 391607, Control_c, 0, 64, 49
1, 391619, Note_off_c, 0, 43, 67
1, 391622, Control_c, 0, 64, 62
1, 391637, Control_c, 0, 64, 71
1, 391652, Control_c, 0, 64, 85
1, 391667, Control_c, 0, 64, 105
1, 391669, Note_on_c, 0, 79, 77
1, 391682, Control_c, 0, 64, 127
1, 391693, Note_off_c, 0, 81, 62
1, 391712, Note_on_c, 0, 76, 73
1, 391729, Note_on_c, 0, 64, 85
1, 391730, Note_off_c, 0, 79, 64
1, 391735, Note_on_c, 0, 59, 73
1, 391747, Note_on_c, 0, 55, 62
1, 391761, Note_off_c, 0, 76, 63
1, 391769, Note_off_c, 0, 59, 61
1, 391771, Note_off_c, 0, 64, 62
1, 391774, Note_on_c, 0, 71, 77
1, 391780, Note_off_c, 0, 55, 64
1, 391798, Note_off_c, 0, 71, 66
1, 391860, Note_on_c, 0, 67, 77
1, 391861, Note_on_c, 0, 55, 71
1, 391868, Note_on_c, 0, 59, 64
1, 391885, Note_off_c, 0, 59, 68
1, 391899, Note_off_c, 0, 55, 66
1, 391916, Note_off_c, 0, 67, 62
1, 391925, Note_on_c, 0, 64, 68
1, 391933, Control_c, 0, 64, 88
1, 391948, Control_c, 0, 64, 60
1, 391952, Note_off_c, 0, 64, 63
1, 391963, Control_c, 0, 64, 0
1, 391986, Note_on_c, 0, 65, 72
1, 391988, Note_on_c, 0, 45, 79
1, 392007, Control_c, 0, 64, 41
1, 392017, Note_off_c, 0, 45, 68
1, 392022, Control_c, 0, 64, 57
1, 392037, Control_c, 0, 64, 67
1, 392051, Control_c, 0, 64, 79
1, 392059, Note_on_c, 0, 66, 78
1, 392062, Note_off_c, 0, 65, 60
1, 392066, Control_c, 0, 64, 95
1, 392081, Control_c, 0, 64, 119
1, 392096, Control_c, 0, 64, 127
1, 392120, Note_off_c, 0, 66, 65
1, 392129, Note_on_c, 0, 71, 73
1, 392130, Note_on_c, 0, 57, 72
1, 392130, Note_on_c, 0, 62, 67
1, 392138, Note_on_c, 0, 54, 66
1, 392159, Note_off_c, 0, 62, 67
1, 392165, Note_off_c, 0, 71, 60
1, 392165, Note_off_c, 0, 57, 63
1, 392172, Note_off_c, 0, 54, 63
1, 392197, Note_on_c, 0, 69, 82
1, 392244, Note_off_c, 0, 69, 60
1, 392251, Note_on_c, 0, 62, 59
1, 392262, Note_on_c, 0, 76, 82
1, 392263, Note_on_c, 0, 54, 68
1, 392263, Note_on_c, 0, 57, 64
1, 392282, Note_off_c, 0, 62, 63
1, 392293, Note_off_c, 0, 57, 66
1, 392296, Note_off_c, 0, 54, 63
1, 392313, Note_on_c, 0, 74, 86
1, 392336, Note_off_c, 0, 76, 62
1, 392370, Control_c, 0, 64, 72
1, 392386, Control_c, 0, 64, 36
1, 392392, Note_on_c, 0, 79, 92
1, 392401, Control_c, 0, 64, 0
1, 392402, Note_off_c, 0, 74, 65
1, 392408, Note_on_c, 0, 43, 63
1, 392409, Note_on_c, 0, 45, 66
1, 392430, Control_c, 0, 64, 39
1, 392433, Note_off_c, 0, 45, 66
1, 392438, Note_off_c, 0, 43, 62
1, 392445, Control_c, 0, 64, 61
1, 392453, Note_on_c, 0, 78, 75
1, 392460, Control_c, 0, 64, 70
1, 392475, Control_c, 0, 64, 92
1, 392490, Control_c, 0, 64, 127
1, 392493, Note_off_c, 0, 79, 62
1, 392502, Note_on_c, 0, 74, 69
1, 392531, Note_off_c, 0, 78, 62
1, 392532, Note_on_c, 0, 62, 72
1, 392534, Note_on_c, 0, 57, 69
1, 392543, Note_off_c, 0, 74, 63
1, 392546, Note_on_c, 0, 54, 60
1, 392560, Note_off_c, 0, 62, 66
1, 392564, Note_off_c, 0, 57, 65
1, 392566, Note_on_c, 0, 69, 75
1, 392576, Note_off_c, 0, 54, 63
1, 392588, Note_off_c, 0, 69, 70
1, 392645, Note_on_c, 0, 57, 62
1, 392646, Note_on_c, 0, 54, 66
1, 392657, Note_on_c, 0, 66, 71
1, 392678, Note_off_c, 0, 57, 62
1, 392692, Note_off_c, 0, 54, 60
1, 392708, Note_off_c, 0, 66, 61
1, 392723, Note_on_c, 0, 62, 67
1, 392752, Note_off_c, 0, 62, 62
1, 392772, Control_c, 0, 64, 79
1, 392787, Control_c, 0, 64, 52
1, 392799, Note_on_c, 0, 45, 67
1, 392802, Control_c, 0, 64, 0
1, 392831, Control_c, 0, 64, 31
1, 392838, Note_off_c, 0, 45, 64
1, 392841, Note_on_c, 0, 67, 50
1, 392846, Control_c, 0, 64, 51
1, 392868, Control_c, 0, 64, 62
1, 392874, Note_off_c, 0, 67, 60
1, 392883, Note_on_c, 0, 64, 57
1, 392883, Control_c, 0, 64, 74
1, 392898, Control_c, 0, 64, 90
1, 392913, Control_c, 0, 64, 127
1, 392934, Note_off_c, 0, 64, 63
1, 392943, Note_on_c, 0, 57, 64
1, 392949, Note_on_c, 0, 60, 66
1, 392950, Note_on_c, 0, 52, 61
1, 392957, Note_on_c, 0, 55, 51
1, 392974, Note_off_c, 0, 57, 65
1, 392985, Note_off_c, 0, 55, 58
1, 392987, Note_off_c, 0, 52, 62
1, 393010, Note_off_c, 0, 60, 60
1, 393020, Note_on_c, 0, 61, 74
1, 393061, Note_on_c, 0, 57, 68
1, 393071, Note_on_c, 0, 52, 65
1, 393074, Note_on_c, 0, 55, 57
1, 393083, Note_off_c, 0, 61, 62
1, 393089, Note_on_c, 0, 69, 64
1, 393109, Note_off_c, 0, 57, 64
1, 393116, Note_off_c, 0, 55, 59
1, 393130, Note_on_c, 0, 67, 73
1, 393134, Control_c, 0, 64, 97
1, 393137, Note_off_c, 0, 69, 61
1, 393141, Note_off_c, 0, 52, 58
1, 393149, Control_c, 0, 64, 61
1, 393164, Control_c, 0, 64, 0
1, 393189, Note_on_c, 0, 45, 82
1, 393194, Note_off_c, 0, 67, 64
1, 393206, Note_on_c, 0, 63, 83
1, 393210, Control_c, 0, 64, 34
1, 393225, Control_c, 0, 64, 54
1, 393239, Control_c, 0, 64, 67
1, 393240, Note_off_c, 0, 45, 63
1, 393254, Control_c, 0, 64, 82
1, 393264, Note_off_c, 0, 63, 63
1, 393269, Control_c, 0, 64, 119
1, 393281, Note_on_c, 0, 64, 76
1, 393284, Control_c, 0, 64, 127
1, 393328, Note_off_c, 0, 64, 65
1, 393336, Note_on_c, 0, 52, 73
1, 393339, Note_on_c, 0, 61, 75
1, 393342, Note_on_c, 0, 73, 72
1, 393345, Note_on_c, 0, 55, 57
1, 393364, Note_off_c, 0, 61, 68
1, 393379, Note_off_c, 0, 55, 62
1, 393392, Note_on_c, 0, 71, 73
1, 393393, Note_off_c, 0, 52, 58
1, 393421, Note_off_c, 0, 73, 62
1, 393452, Note_on_c, 0, 52, 58
1, 393455, Note_on_c, 0, 61, 72
1, 393461, Note_off_c, 0, 71, 62
1, 393461, Note_on_c, 0, 66, 78
1, 393470, Note_on_c, 0, 55, 55
1, 393486, Note_off_c, 0, 61, 66
1, 393503, Note_off_c, 0, 55, 64
1, 393505, Note_off_c, 0, 52, 61
1, 393506, Control_c, 0, 64, 102
1, 393514, Note_off_c, 0, 66, 64
1, 393520, Note_on_c, 0, 67, 85
1, 393521, Control_c, 0, 64, 67
1, 393536, Control_c, 0, 64, 0
1, 393593, Note_on_c, 0, 45, 80
1, 393596, Note_off_c, 0, 67, 57
1, 393607, Note_on_c, 0, 71, 88
1, 393629, Note_off_c, 0, 45, 67
1, 393646, Control_c, 0, 64, 53
1, 393661, Control_c, 0, 64, 68
1, 393676, Control_c, 0, 64, 83
1, 393679, Note_on_c, 0, 69, 75
1, 393691, Control_c, 0, 64, 127
1, 393700, Note_off_c, 0, 71, 59
1, 393737, Note_off_c, 0, 69, 62
1, 393744, Note_on_c, 0, 62, 93
1, 393745, Note_on_c, 0, 56, 65
1, 393752, Note_on_c, 0, 54, 75
1, 393752, Note_on_c, 0, 57, 83
1, 393753, Note_on_c, 0, 65, 87
1, 393765, Note_off_c, 0, 56, 66
1, 393774, Note_off_c, 0, 57, 71
1, 393778, Note_off_c, 0, 54, 63
1, 393783, Note_off_c, 0, 62, 63
1, 393819, Note_off_c, 0, 65, 59
1, 393845, Note_on_c, 0, 66, 69
1, 393872, Note_off_c, 0, 66, 66
1, 393907, Note_on_c, 0, 76, 68
1, 393932, Note_on_c, 0, 62, 83
1, 393947, Note_on_c, 0, 74, 72
1, 393951, Note_off_c, 0, 76, 62
1, 393954, Note_off_c, 0, 62, 67
1, 393957, Control_c, 0, 64, 77
1, 393972, Control_c, 0, 64, 47
1, 393985, Note_off_c, 0, 74, 60
1, 393988, Control_c, 0, 64, 0
1, 393991, Note_on_c, 0, 62, 98
1, 393998, Note_on_c, 0, 68, 80
1, 394003, Control_c, 0, 64, 41
1, 394018, Control_c, 0, 64, 58
1, 394030, Note_off_c, 0, 68, 63
1, 394033, Control_c, 0, 64, 65
1, 394034, Note_off_c, 0, 62, 66
1, 394048, Control_c, 0, 64, 77
1, 394055, Note_on_c, 0, 69, 68
1, 394062, Control_c, 0, 64, 100
1, 394077, Control_c, 0, 64, 127
1, 394095, Note_off_c, 0, 69, 62
1, 394129, Note_on_c, 0, 79, 76
1, 394133, Note_on_c, 0, 66, 90
1, 394191, Note_on_c, 0, 78, 80
1, 394193, Note_off_c, 0, 66, 62
1, 394201, Note_off_c, 0, 79, 62
1, 394248, Note_on_c, 0, 57, 72
1, 394263, Note_on_c, 0, 73, 72
1, 394266, Note_off_c, 0, 78, 60
1, 394272, Note_off_c, 0, 57, 67
1, 394320, Note_on_c, 0, 74, 82
1, 394332, Note_off_c, 0, 73, 60
1, 394344, Control_c, 0, 64, 78
1, 394366, Control_c, 0, 64, 41
1, 394380, Control_c, 0, 64, 0
1, 394395, Note_on_c, 0, 78, 87
1, 394397, Note_on_c, 0, 45, 79
1, 394399, Note_off_c, 0, 74, 62
1, 394423, Note_off_c, 0, 45, 64
1, 394425, Control_c, 0, 64, 46
1, 394440, Control_c, 0, 64, 62
1, 394454, Control_c, 0, 64, 74
1, 394469, Note_on_c, 0, 76, 78
1, 394469, Control_c, 0, 64, 97
1, 394484, Control_c, 0, 64, 127
1, 394499, Note_off_c, 0, 78, 58
1, 394528, Note_off_c, 0, 76, 65
1, 394540, Note_on_c, 0, 64, 106
1, 394544, Note_on_c, 0, 72, 90
1, 394546, Note_on_c, 0, 55, 88
1, 394547, Note_on_c, 0, 61, 88
1, 394569, Note_off_c, 0, 61, 68
1, 394570, Note_off_c, 0, 64, 71
1, 394585, Note_off_c, 0, 55, 61
1, 394616, Note_off_c, 0, 72, 62
1, 394623, Note_on_c, 0, 73, 74
1, 394673, Note_off_c, 0, 73, 63
1, 394704, Note_on_c, 0, 81, 63
1, 394723, Note_on_c, 0, 64, 84
1, 394725, Note_on_c, 0, 61, 76
1, 394730, Note_on_c, 0, 79, 68
1, 394735, Note_off_c, 0, 81, 64
1, 394739, Note_off_c, 0, 64, 77
1, 394751, Note_off_c, 0, 61, 68
1, 394751, Control_c, 0, 64, 86
1, 394766, Control_c, 0, 64, 58
1, 394768, Note_off_c, 0, 79, 64
1, 394782, Control_c, 0, 64, 49
1, 394785, Note_on_c, 0, 75, 83
1, 394788, Note_on_c, 0, 64, 93
1, 394797, Note_on_c, 0, 61, 91
1, 394797, Control_c, 0, 64, 63
1, 394811, Control_c, 0, 64, 76
1, 394826, Control_c, 0, 64, 95
1, 394827, Note_off_c, 0, 64, 65
1, 394841, Control_c, 0, 64, 127
1, 394843, Note_off_c, 0, 75, 65
1, 394845, Note_off_c, 0, 61, 64
1, 394853, Note_on_c, 0, 76, 77
1, 394901, Note_off_c, 0, 76, 61
1, 394922, Note_on_c, 0, 85, 81
1, 394926, Note_on_c, 0, 67, 93
1, 394980, Note_off_c, 0, 67, 63
1, 394985, Note_on_c, 0, 83, 71
1, 395006, Note_off_c, 0, 85, 62
1, 395029, Note_on_c, 0, 57, 73
1, 395031, Note_on_c, 0, 78, 75
1, 395036, Note_off_c, 0, 83, 65
1, 395053, Note_off_c, 0, 57, 67
1, 395080, Note_off_c, 0, 78, 59
1, 395092, Control_c, 0, 64, 73
1, 395095, Note_on_c, 0, 79, 74
1, 395114, Control_c, 0, 64, 0
1, 395164, Note_on_c, 0, 45, 84
1, 395172, Note_on_c, 0, 83, 91
1, 395173, Control_c, 0, 64, 37
1, 395178, Note_off_c, 0, 79, 63
1, 395188, Control_c, 0, 64, 58
1, 395189, Note_off_c, 0, 45, 68
1, 395202, Control_c, 0, 64, 71
1, 395217, Control_c, 0, 64, 93
1, 395232, Control_c, 0, 64, 127
1, 395244, Note_on_c, 0, 81, 77
1, 395272, Note_off_c, 0, 83, 63
1, 395305, Note_off_c, 0, 81, 62
1, 395317, Note_on_c, 0, 66, 101
1, 395319, Note_on_c, 0, 77, 95
1, 395325, Note_on_c, 0, 57, 88
1, 395325, Note_on_c, 0, 62, 76
1, 395352, Note_off_c, 0, 62, 66
1, 395353, Note_off_c, 0, 66, 63
1, 395363, Note_off_c, 0, 57, 63
1, 395396, Note_off_c, 0, 77, 58
1, 395414, Note_on_c, 0, 78, 72
1, 395440, Note_off_c, 0, 78, 63
1, 395476, Note_on_c, 0, 88, 77
1, 395491, Note_on_c, 0, 66, 84
1, 395502, Note_on_c, 0, 62, 65
1, 395518, Note_off_c, 0, 66, 67
1, 395521, Note_on_c, 0, 86, 72
1, 395527, Note_off_c, 0, 62, 68
1, 395534, Note_off_c, 0, 88, 62
1, 395556, Note_on_c, 0, 80, 84
1, 395563, Note_off_c, 0, 86, 65
1, 395569, Note_on_c, 0, 66, 90
1, 395572, Note_on_c, 0, 62, 86
1, 395614, Note_off_c, 0, 62, 64
1, 395614, Note_off_c, 0, 66, 65
1, 395616, Note_off_c, 0, 80, 51
1, 395618, Note_on_c, 0, 81, 75
1, 395661, Note_off_c, 0, 81, 65
1, 395691, Note_on_c, 0, 91, 82
1, 395696, Note_on_c, 0, 69, 94
1, 395757, Note_on_c, 0, 90, 83
1, 395757, Note_off_c, 0, 69, 60
1, 395769, Note_off_c, 0, 91, 66
1, 395811, Note_on_c, 0, 57, 73
1, 395826, Note_on_c, 0, 85, 80
1, 395833, Note_off_c, 0, 90, 66
1, 395834, Note_off_c, 0, 57, 70
1, 395889, Note_on_c, 0, 86, 82
1, 395893, Control_c, 0, 64, 75
1, 395900, Note_off_c, 0, 85, 62
1, 395907, Control_c, 0, 64, 34
1, 395922, Control_c, 0, 64, 0
1, 395948, Note_on_c, 0, 90, 97
1, 395951, Control_c, 0, 64, 29
1, 395952, Note_on_c, 0, 45, 80
1, 395956, Note_off_c, 0, 86, 64
1, 395966, Control_c, 0, 64, 50
1, 395973, Note_off_c, 0, 45, 67
1, 395981, Control_c, 0, 64, 64
1, 395996, Control_c, 0, 64, 79
1, 396011, Control_c, 0, 64, 127
1, 396031, Note_on_c, 0, 88, 83
1, 396062, Note_off_c, 0, 90, 63
1, 396091, Note_off_c, 0, 88, 62
1, 396111, Note_on_c, 0, 84, 94
1, 396113, Note_on_c, 0, 67, 98
1, 396117, Note_on_c, 0, 61, 84
1, 396120, Note_on_c, 0, 64, 80
1, 396120, Note_on_c, 0, 57, 81
1, 396138, Note_off_c, 0, 67, 66
1, 396141, Note_off_c, 0, 64, 71
1, 396144, Note_off_c, 0, 61, 67
1, 396147, Note_off_c, 0, 57, 69
1, 396194, Note_on_c, 0, 85, 83
1, 396195, Note_off_c, 0, 84, 62
1, 396257, Note_off_c, 0, 85, 62
1, 396283, Note_on_c, 0, 93, 71
1, 396300, Note_on_c, 0, 67, 86
1, 396302, Note_on_c, 0, 64, 62
1, 396317, Note_off_c, 0, 67, 71
1, 396323, Note_on_c, 0, 91, 68
1, 396324, Note_off_c, 0, 64, 70
1, 396327, Note_off_c, 0, 93, 62
1, 396356, Note_on_c, 0, 87, 81
1, 396363, Note_on_c, 0, 64, 97
1, 396364, Note_on_c, 0, 67, 91
1, 396365, Note_off_c, 0, 91, 66
1, 396402, Note_off_c, 0, 87, 64
1, 396405, Note_off_c, 0, 67, 65
1, 396410, Note_off_c, 0, 64, 67
1, 396436, Note_on_c, 0, 88, 78
1, 396515, Note_on_c, 0, 95, 85
1, 396517, Note_off_c, 0, 88, 62
1, 396522, Note_on_c, 0, 73, 97
1, 396562, Note_off_c, 0, 73, 68
1, 396589, Note_on_c, 0, 93, 81
1, 396618, Note_off_c, 0, 95, 66
1, 396654, Note_on_c, 0, 57, 83
1, 396658, Note_off_c, 0, 93, 62
1, 396660, Note_on_c, 0, 89, 79
1, 396683, Note_off_c, 0, 57, 66
1, 396735, Note_off_c, 0, 89, 63
1, 396736, Note_on_c, 0, 90, 77
1, 396801, Note_on_c, 0, 67, 77
1, 396802, Note_on_c, 0, 97, 70
1, 396804, Note_on_c, 0, 64, 82
1, 396820, Note_off_c, 0, 67, 73
1, 396830, Note_off_c, 0, 90, 64
1, 396832, Note_off_c, 0, 64, 69
1, 396848, Note_on_c, 0, 95, 75
1, 396886, Note_off_c, 0, 97, 64
1, 396917, Note_off_c, 0, 95, 65
1, 396919, Note_on_c, 0, 90, 81
1, 396929, Note_on_c, 0, 76, 98
1, 396970, Note_off_c, 0, 76, 67
1, 396982, Note_on_c, 0, 91, 85
1, 396987, Note_off_c, 0, 90, 62
1, 397012, Control_c, 0, 64, 82
1, 397027, Control_c, 0, 64, 65
1, 397041, Control_c, 0, 64, 67
1, 397050, Note_on_c, 0, 97, 83
1, 397056, Control_c, 0, 64, 86
1, 397059, Note_on_c, 0, 73, 95
1, 397070, Note_off_c, 0, 91, 66
1, 397071, Control_c, 0, 64, 127
1, 397101, Note_on_c, 0, 95, 76
1, 397101, Note_off_c, 0, 73, 65
1, 397147, Note_off_c, 0, 97, 64
1, 397160, Control_c, 0, 64, 115
1, 397170, Note_on_c, 0, 90, 80
1, 397176, Control_c, 0, 64, 88
1, 397178, Note_on_c, 0, 64, 70
1, 397179, Note_off_c, 0, 95, 66
1, 397182, Note_on_c, 0, 67, 87
1, 397190, Control_c, 0, 64, 94
1, 397205, Control_c, 0, 64, 127
1, 397220, Note_off_c, 0, 67, 66
1, 397224, Note_off_c, 0, 64, 63
1, 397228, Note_on_c, 0, 91, 83
1, 397256, Note_off_c, 0, 90, 57
1, 397291, Note_on_c, 0, 97, 90
1, 397302, Note_on_c, 0, 73, 95
1, 397315, Note_off_c, 0, 91, 67
1, 397340, Note_off_c, 0, 73, 66
1, 397356, Note_on_c, 0, 95, 76
1, 397405, Note_off_c, 0, 97, 64
1, 397428, Note_on_c, 0, 90, 90
1, 397429, Note_on_c, 0, 57, 79
1, 397443, Note_off_c, 0, 95, 66
1, 397460, Note_off_c, 0, 57, 66
1, 397495, Note_on_c, 0, 91, 85
1, 397518, Note_off_c, 0, 90, 60
1, 397567, Control_c, 0, 64, 69
1, 397579, Note_on_c, 0, 67, 92
1, 397580, Note_on_c, 0, 97, 93
1, 397581, Note_on_c, 0, 64, 92
1, 397582, Control_c, 0, 64, 39
1, 397594, Note_off_c, 0, 91, 67
1, 397597, Control_c, 0, 64, 35
1, 397602, Note_off_c, 0, 67, 69
1, 397611, Control_c, 0, 64, 56
1, 397620, Note_off_c, 0, 64, 66
1, 397626, Control_c, 0, 64, 67
1, 397640, Note_on_c, 0, 95, 71
1, 397641, Control_c, 0, 64, 79
1, 397656, Control_c, 0, 64, 127
1, 397682, Note_off_c, 0, 97, 64
1, 397719, Note_on_c, 0, 90, 82
1, 397723, Note_off_c, 0, 95, 66
1, 397728, Note_on_c, 0, 76, 103
1, 397769, Note_off_c, 0, 76, 69
1, 397790, Note_on_c, 0, 91, 79
1, 397829, Note_on_c, 0, 97, 68
1, 397858, Note_on_c, 0, 73, 92
1, 397868, Note_off_c, 0, 90, 58
1, 397875, Note_off_c, 0, 73, 73
1, 397892, Note_on_c, 0, 95, 78
1, 397902, Note_off_c, 0, 91, 64
1, 397932, Note_off_c, 0, 97, 64
1, 397956, Note_off_c, 0, 95, 67
1, 397983, Note_on_c, 0, 88, 69
1, 398007, Note_off_c, 0, 88, 67
1, 398027, Control_c, 0, 64, 117
1, 398041, Note_on_c, 0, 90, 79
1, 398042, Control_c, 0, 64, 66
1, 398057, Control_c, 0, 64, 0
1, 398082, Note_off_c, 0, 90, 61
1, 398103, Note_on_c, 0, 91, 84
1, 398164, Note_on_c, 0, 93, 86
1, 398178, Note_off_c, 0, 91, 66
1, 398195, Note_on_c, 0, 95, 76
1, 398234, Note_on_c, 0, 96, 86
1, 398234, Note_off_c, 0, 93, 63
1, 398241, Note_on_c, 0, 97, 66
1, 398250, Note_on_c, 0, 99, 101
1, 398255, Note_off_c, 0, 95, 68
1, 398261, Note_on_c, 0, 48, 88
1, 398267, Note_on_c, 0, 36, 76
1, 398267, Note_off_c, 0, 99, 72
1, 398270, Note_off_c, 0, 96, 67
1, 398282, Note_off_c, 0, 97, 62
1, 398287, Control_c, 0, 64, 55
1, 398300, Note_off_c, 0, 36, 67
1, 398301, Control_c, 0, 64, 78
1, 398303, Note_off_c, 0, 48, 63
1, 398316, Control_c, 0, 64, 119
1, 398331, Control_c, 0, 64, 127
1, 398418, Note_on_c, 0, 39, 80
1, 398418, Note_on_c, 0, 51, 82
1, 398440, Note_off_c, 0, 51, 66
1, 398445, Note_off_c, 0, 39, 65
1, 398445, Note_on_c, 0, 38, 48
1, 398479, Note_off_c, 0, 38, 56
1, 398591, Note_on_c, 0, 75, 102
1, 398593, Note_on_c, 0, 63, 103
1, 398595, Note_on_c, 0, 66, 99
1, 398597, Note_on_c, 0, 45, 90
1, 398597, Note_on_c, 0, 33, 92
1, 398597, Control_c, 0, 64, 68
1, 398612, Control_c, 0, 64, 0
1, 398621, Note_off_c, 0, 45, 69
1, 398622, Note_off_c, 0, 33, 70
1, 398701, Control_c, 0, 64, 51
1, 398713, Note_off_c, 0, 63, 63
1, 398716, Control_c, 0, 64, 67
1, 398731, Control_c, 0, 64, 84
1, 398736, Note_off_c, 0, 66, 66
1, 398745, Control_c, 0, 64, 127
1, 398747, Note_on_c, 0, 48, 102
1, 398751, Note_off_c, 0, 75, 62
1, 398752, Note_on_c, 0, 36, 86
1, 398780, Note_off_c, 0, 36, 67
1, 398786, Note_off_c, 0, 48, 65
1, 398788, Note_on_c, 0, 38, 47
1, 398824, Note_off_c, 0, 38, 51
1, 398901, Note_on_c, 0, 66, 86
1, 398902, Note_on_c, 0, 54, 95
1, 398904, Note_on_c, 0, 78, 89
1, 398907, Note_on_c, 0, 42, 96
1, 398919, Note_off_c, 0, 78, 73
1, 398928, Note_on_c, 0, 65, 58
1, 398934, Note_off_c, 0, 42, 68
1, 398936, Note_off_c, 0, 54, 65
1, 398941, Note_off_c, 0, 66, 64
1, 398949, Note_off_c, 0, 65, 63
1, 398961, Note_on_c, 0, 64, 17
1, 399000, Note_off_c, 0, 64, 51
1, 399042, Note_on_c, 0, 51, 97
1, 399049, Note_on_c, 0, 39, 90
1, 399076, Note_off_c, 0, 39, 69
1, 399081, Note_off_c, 0, 51, 60
1, 399095, Note_on_c, 0, 60, 80
1, 399100, Note_on_c, 0, 69, 70
1, 399110, Note_on_c, 0, 66, 77
1, 399120, Note_off_c, 0, 60, 67
1, 399128, Note_off_c, 0, 69, 66
1, 399170, Note_on_c, 0, 48, 91
1, 399175, Note_on_c, 0, 36, 78
1, 399179, Note_on_c, 0, 75, 95
1, 399180, Note_on_c, 0, 63, 99
1, 399197, Note_off_c, 0, 48, 66
1, 399197, Note_off_c, 0, 66, 67
1, 399203, Note_off_c, 0, 36, 63
1, 399211, Note_off_c, 0, 75, 67
1, 399213, Note_on_c, 0, 47, 19
1, 399213, Control_c, 0, 64, 74
1, 399214, Note_off_c, 0, 63, 63
1, 399228, Control_c, 0, 64, 42
1, 399232, Note_on_c, 0, 35, 4
1, 399242, Control_c, 0, 64, 0
1, 399250, Note_off_c, 0, 47, 43
1, 399282, Note_off_c, 0, 35, 31
1, 399301, Note_on_c, 0, 51, 92
1, 399307, Note_on_c, 0, 39, 85
1, 399326, Note_off_c, 0, 51, 67
1, 399335, Note_off_c, 0, 39, 67
1, 399447, Note_on_c, 0, 63, 103
1, 399449, Note_on_c, 0, 75, 97
1, 399453, Note_on_c, 0, 66, 91
1, 399456, Note_on_c, 0, 45, 92
1, 399459, Note_on_c, 0, 33, 92
1, 399486, Note_off_c, 0, 33, 68
1, 399486, Note_off_c, 0, 45, 67
1, 399533, Note_off_c, 0, 63, 64
1, 399547, Note_off_c, 0, 66, 65
1, 399569, Note_off_c, 0, 75, 65
1, 399585, Control_c, 0, 64, 59
1, 399601, Note_on_c, 0, 48, 100
1, 399605, Note_on_c, 0, 36, 87
1, 399607, Control_c, 0, 64, 93
1, 399622, Control_c, 0, 64, 127
1, 399632, Note_off_c, 0, 36, 68
1, 399639, Note_off_c, 0, 48, 65
1, 399764, Note_on_c, 0, 81, 104
1, 399765, Note_on_c, 0, 69, 109
1, 399767, Note_on_c, 0, 54, 95
1, 399772, Note_on_c, 0, 42, 90
1, 399796, Note_off_c, 0, 81, 69
1, 399798, Note_off_c, 0, 69, 68
1, 399802, Note_off_c, 0, 42, 67
1, 399805, Note_off_c, 0, 54, 60
1, 399807, Note_on_c, 0, 55, 33
1, 399841, Note_off_c, 0, 55, 52
1, 399915, Note_on_c, 0, 51, 84
1, 399921, Note_on_c, 0, 39, 83
1, 399952, Note_on_c, 0, 66, 89
1, 399954, Note_off_c, 0, 39, 64
1, 399955, Note_off_c, 0, 51, 60
1, 399964, Note_on_c, 0, 78, 68
1, 399970, Note_off_c, 0, 66, 75
1, 399989, Note_off_c, 0, 78, 63
1, 400014, Note_on_c, 0, 63, 98
1, 400022, Note_on_c, 0, 75, 86
1, 400039, Note_on_c, 0, 48, 95
1, 400041, Note_on_c, 0, 36, 86
1, 400061, Note_off_c, 0, 75, 66
1, 400064, Note_off_c, 0, 48, 65
1, 400064, Note_off_c, 0, 63, 63
1, 400065, Note_off_c, 0, 36, 69
1, 400125, Control_c, 0, 64, 101
1, 400140, Control_c, 0, 64, 80
1, 400148, Note_on_c, 0, 51, 89
1, 400154, Note_on_c, 0, 39, 85
1, 400155, Control_c, 0, 64, 67
1, 400170, Control_c, 0, 64, 56
1, 400174, Note_off_c, 0, 51, 68
1, 400181, Note_off_c, 0, 39, 69
1, 400185, Control_c, 0, 64, 43
1, 400199, Control_c, 0, 64, 0
1, 400288, Note_on_c, 0, 54, 72
1, 400291, Note_on_c, 0, 45, 79
1, 400294, Note_on_c, 0, 63, 62
1, 400295, Note_on_c, 0, 33, 79
1, 400300, Note_on_c, 0, 57, 49
1, 400317, Note_off_c, 0, 45, 67
1, 400320, Note_off_c, 0, 33, 64
1, 400329, Note_off_c, 0, 54, 57
1, 400350, Note_off_c, 0, 57, 62
1, 400353, Note_off_c, 0, 63, 55
1, 400416, Control_c, 0, 64, 47
1, 400430, Control_c, 0, 64, 62
1, 400436, Note_on_c, 0, 48, 94
1, 400440, Note_on_c, 0, 54, 69
1, 400441, Note_on_c, 0, 36, 80
1, 400442, Note_on_c, 0, 57, 62
1, 400442, Note_on_c, 0, 63, 71
1, 400445, Control_c, 0, 64, 68
1, 400460, Control_c, 0, 64, 80
1, 400475, Control_c, 0, 64, 107
1, 400481, Note_off_c, 0, 48, 60
1, 400490, Note_off_c, 0, 36, 58
1, 400490, Control_c, 0, 64, 127
1, 400559, Note_off_c, 0, 54, 60
1, 400564, Note_on_c, 0, 47, 102
1, 400569, Note_off_c, 0, 57, 60
1, 400572, Note_on_c, 0, 35, 91
1, 400593, Note_off_c, 0, 63, 55
1, 400596, Note_on_c, 0, 36, 60
1, 400605, Note_off_c, 0, 35, 65
1, 400607, Note_off_c, 0, 47, 65
1, 400614, Note_off_c, 0, 36, 68
1, 400666, Note_on_c, 0, 60, 68
1, 400669, Note_on_c, 0, 55, 70
1, 400669, Note_on_c, 0, 64, 74
1, 400678, Note_on_c, 0, 46, 97
1, 400681, Note_on_c, 0, 34, 100
1, 400699, Note_off_c, 0, 60, 67
1, 400703, Note_off_c, 0, 55, 63
1, 400719, Note_off_c, 0, 64, 65
1, 400729, Note_off_c, 0, 46, 60
1, 400732, Note_off_c, 0, 34, 63
1, 400756, Control_c, 0, 64, 114
1, 400771, Control_c, 0, 64, 64
1, 400785, Control_c, 0, 64, 0
1, 400800, Note_on_c, 0, 57, 94
1, 400800, Control_c, 0, 67, 54
1, 400803, Note_on_c, 0, 69, 96
1, 400808, Note_on_c, 0, 45, 101
1, 400815, Note_on_c, 0, 33, 94
1, 400815, Control_c, 0, 67, 58
1, 400817, Note_on_c, 0, 61, 71
1, 400818, Note_off_c, 0, 57, 75
1, 400830, Control_c, 0, 64, 52
1, 400830, Control_c, 0, 67, 57
1, 400836, Note_off_c, 0, 61, 65
1, 400838, Note_off_c, 0, 33, 67
1, 400841, Note_off_c, 0, 45, 66
1, 400845, Control_c, 0, 64, 80
1, 400845, Control_c, 0, 67, 53
1, 400848, Note_on_c, 0, 34, 42
1, 400851, Note_off_c, 0, 69, 66
1, 400860, Control_c, 0, 64, 127
1, 400860, Control_c, 0, 67, 51
1, 400874, Control_c, 0, 67, 45
1, 400889, Control_c, 0, 67, 42
1, 400896, Note_off_c, 0, 34, 48
1, 400904, Control_c, 0, 67, 39
1, 400919, Control_c, 0, 67, 0
1, 400996, Poly_aftertouch_c, 0, 33, 0
1, 401054, Note_on_c, 0, 81, 58
1, 401058, Note_on_c, 0, 67, 87
1, 401066, Note_on_c, 0, 61, 66
1, 401066, Note_on_c, 0, 57, 76
1, 401066, Note_on_c, 0, 64, 70
1, 401086, Note_on_c, 0, 83, 20
1, 401101, Note_off_c, 0, 81, 58
1, 401102, Note_off_c, 0, 64, 68
1, 401105, Note_off_c, 0, 57, 67
1, 401106, Note_off_c, 0, 61, 65
1, 401112, Note_off_c, 0, 67, 61
1, 401189, Note_on_c, 0, 85, 81
1, 401190, Note_off_c, 0, 83, 60
1, 401199, Note_on_c, 0, 64, 58
1, 401203, Note_on_c, 0, 67, 80
1, 401208, Note_on_c, 0, 57, 64
1, 401233, Note_off_c, 0, 67, 64
1, 401236, Note_off_c, 0, 57, 66
1, 401236, Note_off_c, 0, 85, 64
1, 401239, Note_off_c, 0, 64, 65
1, 401255, Note_on_c, 0, 86, 83
1, 401296, Control_c, 0, 64, 91
1, 401311, Control_c, 0, 64, 58
1, 401313, Note_on_c, 0, 67, 93
1, 401319, Note_on_c, 0, 64, 88
1, 401322, Note_on_c, 0, 57, 75
1, 401323, Note_on_c, 0, 88, 84
1, 401326, Control_c, 0, 64, 0
1, 401327, Note_off_c, 0, 86, 65
1, 401328, Note_on_c, 0, 61, 81
1, 401339, Note_off_c, 0, 67, 66
1, 401341, Control_c, 0, 64, 30
1, 401346, Note_off_c, 0, 64, 65
1, 401356, Control_c, 0, 64, 55
1, 401360, Note_on_c, 0, 90, 77
1, 401364, Note_off_c, 0, 61, 64
1, 401369, Note_off_c, 0, 57, 65
1, 401370, Control_c, 0, 64, 66
1, 401372, Note_off_c, 0, 88, 64
1, 401385, Control_c, 0, 64, 78
1, 401400, Control_c, 0, 64, 108
1, 401405, Note_off_c, 0, 90, 65
1, 401415, Control_c, 0, 64, 127
1, 401418, Note_on_c, 0, 91, 83
1, 401492, Note_on_c, 0, 93, 88
1, 401500, Note_off_c, 0, 91, 65
1, 401529, Note_on_c, 0, 95, 80
1, 401563, Control_c, 0, 64, 81
1, 401563, Note_on_c, 0, 97, 95
1, 401566, Note_off_c, 0, 93, 63
1, 401578, Control_c, 0, 64, 45
1, 401588, Note_off_c, 0, 95, 66
1, 401589, Note_on_c, 0, 99, 87
1, 401593, Control_c, 0, 64, 0
1, 401599, Note_on_c, 0, 48, 96
1, 401602, Note_on_c, 0, 36, 80
1, 401608, Control_c, 0, 64, 34
1, 401608, Note_on_c, 0, 100, 67
1, 401622, Note_off_c, 0, 99, 66
1, 401623, Control_c, 0, 64, 57
1, 401628, Note_off_c, 0, 100, 43
1, 401632, Note_off_c, 0, 97, 58
1, 401635, Note_off_c, 0, 36, 67
1, 401637, Control_c, 0, 64, 70
1, 401645, Note_off_c, 0, 48, 64
1, 401652, Control_c, 0, 64, 102
1, 401667, Control_c, 0, 64, 127
1, 401749, Note_on_c, 0, 51, 84
1, 401757, Note_on_c, 0, 39, 85
1, 401772, Note_off_c, 0, 51, 69
1, 401783, Note_off_c, 0, 39, 65
1, 401785, Control_c, 0, 64, 69
1, 401800, Control_c, 0, 64, 0
1, 401915, Note_on_c, 0, 75, 96
1, 401918, Note_on_c, 0, 63, 97
1, 401919, Note_on_c, 0, 66, 93
1, 401936, Note_on_c, 0, 45, 87
1, 401937, Note_on_c, 0, 33, 85
1, 401961, Note_off_c, 0, 33, 65
1, 401963, Note_off_c, 0, 45, 66
1, 402043, Note_off_c, 0, 63, 61
1, 402066, Note_off_c, 0, 66, 64
1, 402069, Note_on_c, 0, 48, 100
1, 402074, Note_on_c, 0, 36, 88
1, 402075, Control_c, 0, 64, 59
1, 402077, Note_off_c, 0, 75, 61
1, 402090, Control_c, 0, 64, 89
1, 402100, Note_off_c, 0, 36, 68
1, 402105, Control_c, 0, 64, 127
1, 402107, Note_off_c, 0, 48, 65
1, 402216, Note_on_c, 0, 78, 89
1, 402217, Note_on_c, 0, 66, 101
1, 402222, Note_on_c, 0, 54, 95
1, 402226, Note_on_c, 0, 42, 89
1, 402248, Note_off_c, 0, 78, 67
1, 402252, Note_off_c, 0, 66, 69
1, 402255, Note_off_c, 0, 42, 67
1, 402255, Note_off_c, 0, 54, 62
1, 402365, Note_on_c, 0, 51, 89
1, 402371, Control_c, 0, 64, 94
1, 402372, Note_on_c, 0, 39, 87
1, 402386, Control_c, 0, 64, 58
1, 402398, Note_off_c, 0, 51, 62
1, 402401, Note_off_c, 0, 39, 68
1, 402401, Control_c, 0, 64, 0
1, 402407, Note_on_c, 0, 60, 83
1, 402416, Note_on_c, 0, 69, 74
1, 402418, Note_on_c, 0, 66, 81
1, 402430, Note_off_c, 0, 60, 74
1, 402439, Note_off_c, 0, 69, 68
1, 402445, Control_c, 0, 64, 52
1, 402460, Control_c, 0, 64, 70
1, 402461, Note_off_c, 0, 66, 63
1, 402475, Control_c, 0, 64, 107
1, 402486, Note_on_c, 0, 48, 103
1, 402488, Note_on_c, 0, 75, 97
1, 402490, Note_on_c, 0, 63, 101
1, 402490, Control_c, 0, 64, 127
1, 402491, Note_on_c, 0, 36, 87
1, 402514, Note_off_c, 0, 48, 64
1, 402516, Note_off_c, 0, 36, 69
1, 402523, Note_off_c, 0, 75, 70
1, 402526, Note_off_c, 0, 63, 65
1, 402580, Control_c, 0, 64, 95
1, 402601, Control_c, 0, 64, 61
1, 402616, Control_c, 0, 64, 0
1, 402626, Note_on_c, 0, 51, 89
1, 402632, Note_on_c, 0, 39, 87
1, 402652, Note_off_c, 0, 51, 66
1, 402660, Note_off_c, 0, 39, 69
1, 402789, Note_on_c, 0, 63, 103
1, 402790, Note_on_c, 0, 75, 96
1, 402792, Note_on_c, 0, 45, 86
1, 402793, Note_on_c, 0, 33, 89
1, 402795, Note_on_c, 0, 66, 92
1, 402817, Note_off_c, 0, 45, 67
1, 402820, Note_off_c, 0, 33, 67
1, 402870, Note_off_c, 0, 63, 64
1, 402885, Note_off_c, 0, 66, 65
1, 402911, Note_off_c, 0, 75, 66
1, 402929, Control_c, 0, 64, 67
1, 402932, Note_on_c, 0, 48, 99
1, 402937, Note_on_c, 0, 36, 84
1, 402943, Control_c, 0, 64, 127
1, 402962, Note_off_c, 0, 36, 66
1, 402971, Note_off_c, 0, 48, 62
1, 403098, Note_on_c, 0, 81, 100
1, 403099, Note_on_c, 0, 69, 102
1, 403103, Note_on_c, 0, 54, 92
1, 403108, Note_on_c, 0, 42, 89
1, 403127, Note_off_c, 0, 81, 71
1, 403128, Note_off_c, 0, 69, 70
1, 403136, Note_off_c, 0, 42, 68
1, 403137, Note_off_c, 0, 54, 59
1, 403245, Note_on_c, 0, 51, 89
1, 403254, Note_on_c, 0, 39, 84
1, 403283, Note_off_c, 0, 39, 64
1, 403283, Note_off_c, 0, 51, 59
1, 403283, Control_c, 0, 64, 75
1, 403285, Note_on_c, 0, 66, 93
1, 403297, Note_on_c, 0, 78, 69
1, 403298, Control_c, 0, 64, 39
1, 403302, Note_off_c, 0, 66, 74
1, 403313, Note_off_c, 0, 78, 63
1, 403313, Control_c, 0, 64, 0
1, 403328, Control_c, 0, 64, 53
1, 403350, Control_c, 0, 64, 71
1, 403351, Note_on_c, 0, 63, 107
1, 403365, Control_c, 0, 64, 106
1, 403367, Note_on_c, 0, 48, 93
1, 403367, Note_on_c, 0, 75, 78
1, 403370, Note_on_c, 0, 36, 87
1, 403380, Control_c, 0, 64, 127
1, 403390, Note_off_c, 0, 75, 59
1, 403391, Note_off_c, 0, 48, 68
1, 403396, Note_off_c, 0, 36, 65
1, 403400, Note_off_c, 0, 63, 67
1, 403483, Note_on_c, 0, 51, 81
1, 403492, Note_on_c, 0, 39, 79
1, 403498, Control_c, 0, 64, 108
1, 403506, Note_off_c, 0, 51, 69
1, 403513, Control_c, 0, 64, 73
1, 403517, Note_off_c, 0, 39, 65
1, 403528, Control_c, 0, 64, 52
1, 403543, Control_c, 0, 64, 0
1, 403625, Note_on_c, 0, 58, 23
1, 403625, Note_off_c, 0, 58, 127
1, 403627, Note_on_c, 0, 45, 73
1, 403631, Note_on_c, 0, 33, 73
1, 403638, Note_on_c, 0, 54, 51
1, 403641, Note_on_c, 0, 63, 49
1, 403652, Note_off_c, 0, 45, 66
1, 403654, Note_off_c, 0, 33, 64
1, 403666, Note_off_c, 0, 54, 54
1, 403676, Note_on_c, 0, 57, 7
1, 403685, Note_off_c, 0, 63, 62
1, 403751, Control_c, 0, 64, 28
1, 403755, Note_off_c, 0, 57, 0
1, 403762, Note_on_c, 0, 48, 86
1, 403766, Control_c, 0, 64, 61
1, 403766, Note_on_c, 0, 54, 65
1, 403766, Note_on_c, 0, 57, 50
1, 403769, Note_on_c, 0, 36, 75
1, 403771, Note_on_c, 0, 63, 69
1, 403781, Control_c, 0, 64, 71
1, 403796, Control_c, 0, 64, 99
1, 403799, Note_off_c, 0, 48, 62
1, 403807, Note_off_c, 0, 36, 66
1, 403811, Control_c, 0, 64, 127
1, 403883, Note_on_c, 0, 47, 95
1, 403885, Note_off_c, 0, 54, 61
1, 403892, Note_on_c, 0, 35, 89
1, 403902, Note_off_c, 0, 57, 61
1, 403919, Note_off_c, 0, 35, 68
1, 403922, Note_off_c, 0, 47, 67
1, 403924, Note_off_c, 0, 63, 57
1, 403936, Note_on_c, 0, 36, 27
1, 403959, Note_off_c, 0, 36, 59
1, 404002, Note_on_c, 0, 55, 77
1, 404002, Note_on_c, 0, 64, 78
1, 404003, Note_on_c, 0, 46, 99
1, 404006, Note_on_c, 0, 60, 64
1, 404008, Note_on_c, 0, 34, 96
1, 404032, Note_off_c, 0, 60, 68
1, 404035, Note_off_c, 0, 55, 62
1, 404049, Note_off_c, 0, 46, 62
1, 404049, Note_off_c, 0, 64, 66
1, 404056, Note_off_c, 0, 34, 60
1, 404078, Control_c, 0, 64, 79
1, 404100, Control_c, 0, 64, 43
1, 404115, Control_c, 0, 64, 0
1, 404133, Note_on_c, 0, 57, 95
1, 404134, Note_on_c, 0, 45, 99
1, 404136, Note_on_c, 0, 69, 96
1, 404141, Note_on_c, 0, 33, 95
1, 404145, Control_c, 0, 64, 48
1, 404148, Note_on_c, 0, 61, 74
1, 404152, Note_off_c, 0, 57, 73
1, 404160, Control_c, 0, 64, 71
1, 404163, Note_off_c, 0, 33, 70
1, 404163, Note_off_c, 0, 45, 67
1, 404163, Note_off_c, 0, 61, 68
1, 404174, Control_c, 0, 64, 120
1, 404179, Note_off_c, 0, 69, 67
1, 404189, Control_c, 0, 64, 127
1, 404316, Note_on_c, 0, 82, 44
1, 404341, Note_off_c, 0, 82, 58
1, 404374, Note_on_c, 0, 81, 76
1, 404374, Note_on_c, 0, 67, 86
1, 404382, Note_on_c, 0, 57, 72
1, 404386, Note_on_c, 0, 64, 67
1, 404387, Note_on_c, 0, 61, 66
1, 404413, Note_off_c, 0, 64, 67
1, 404413, Note_off_c, 0, 67, 47
1, 404415, Note_off_c, 0, 61, 67
1, 404418, Note_off_c, 0, 57, 60
1, 404438, Note_off_c, 0, 81, 51
1, 404441, Note_on_c, 0, 83, 80
1, 404500, Note_off_c, 0, 83, 64
1, 404505, Note_on_c, 0, 85, 79
1, 404509, Note_on_c, 0, 67, 82
1, 404511, Note_on_c, 0, 64, 63
1, 404516, Note_on_c, 0, 61, 62
1, 404529, Note_on_c, 0, 57, 61
1, 404537, Note_off_c, 0, 67, 68
1, 404547, Note_off_c, 0, 64, 65
1, 404548, Note_off_c, 0, 85, 66
1, 404549, Note_off_c, 0, 61, 64
1, 404559, Note_off_c, 0, 57, 65
1, 404567, Note_on_c, 0, 86, 79
1, 404589, Control_c, 0, 64, 91
1, 404604, Control_c, 0, 64, 58
1, 404619, Control_c, 0, 64, 0
1, 404620, Note_on_c, 0, 67, 96
1, 404621, Note_on_c, 0, 57, 88
1, 404621, Note_on_c, 0, 64, 92
1, 404624, Note_on_c, 0, 61, 85
1, 404625, Note_off_c, 0, 86, 59
1, 404634, Note_on_c, 0, 88, 79
1, 404634, Control_c, 0, 64, 31
1, 404649, Control_c, 0, 64, 52
1, 404654, Note_off_c, 0, 67, 65
1, 404663, Note_off_c, 0, 64, 65
1, 404664, Control_c, 0, 64, 66
1, 404665, Note_off_c, 0, 88, 64
1, 404666, Note_on_c, 0, 90, 74
1, 404679, Control_c, 0, 64, 84
1, 404680, Note_off_c, 0, 61, 64
1, 404682, Note_off_c, 0, 57, 65
1, 404690, Note_off_c, 0, 90, 69
1, 404693, Control_c, 0, 64, 127
1, 404732, Note_on_c, 0, 91, 70
1, 404787, Note_on_c, 0, 93, 89
1, 404790, Note_off_c, 0, 91, 67
1, 404819, Note_on_c, 0, 95, 71
1, 404857, Note_off_c, 0, 93, 63
1, 404868, Note_on_c, 0, 97, 92
1, 404889, Note_off_c, 0, 95, 66
1, 404897, Note_on_c, 0, 98, 100
1, 404905, Note_on_c, 0, 62, 88
1, 404905, Note_on_c, 0, 50, 83
1, 404917, Note_off_c, 0, 97, 67
1, 404923, Control_c, 0, 64, 66
1, 404927, Note_off_c, 0, 98, 70
1, 404938, Control_c, 0, 64, 0
1, 404939, Note_off_c, 0, 50, 65
1, 404940, Note_off_c, 0, 62, 65
1, 405111, Note_on_c, 0, 68, 112
1, 405117, Note_on_c, 0, 58, 90
1, 405117, Note_on_c, 0, 65, 78
1, 405123, Note_on_c, 0, 74, 83
1, 405145, Control_c, 0, 64, 63
1, 405152, Note_on_c, 0, 66, 37
1, 405152, Note_off_c, 0, 66, 127
1, 405161, Control_c, 0, 64, 89
1, 405165, Note_off_c, 0, 74, 59
1, 405176, Control_c, 0, 64, 127
1, 405186, Note_on_c, 0, 77, 64
1, 405210, Note_off_c, 0, 77, 68
1, 405220, Note_on_c, 0, 80, 75
1, 405239, Note_off_c, 0, 80, 72
1, 405242, Note_off_c, 0, 65, 59
1, 405252, Note_off_c, 0, 58, 62
1, 405257, Note_off_c, 0, 68, 54
1, 405306, Note_on_c, 0, 86, 80
1, 405342, Note_on_c, 0, 98, 105
1, 405346, Note_on_c, 0, 93, 84
1, 405351, Note_on_c, 0, 62, 83
1, 405352, Note_on_c, 0, 69, 88
1, 405355, Note_on_c, 0, 91, 72
1, 405355, Note_off_c, 0, 86, 68
1, 405357, Note_on_c, 0, 66, 85
1, 405367, Note_off_c, 0, 93, 69
1, 405368, Control_c, 0, 64, 65
1, 405375, Note_off_c, 0, 91, 67
1, 405376, Note_off_c, 0, 98, 67
1, 405378, Note_off_c, 0, 69, 64
1, 405379, Note_on_c, 0, 89, 43
1, 405383, Control_c, 0, 64, 0
1, 405390, Note_off_c, 0, 66, 61
1, 405396, Note_off_c, 0, 62, 63
1, 405415, Note_off_c, 0, 89, 32
1, 405549, Note_on_c, 0, 74, 90
1, 405556, Note_on_c, 0, 68, 106
1, 405558, Note_on_c, 0, 65, 79
1, 405563, Note_on_c, 0, 58, 89
1, 405575, Control_c, 0, 64, 48
1, 405597, Control_c, 0, 64, 76
1, 405600, Note_off_c, 0, 74, 63
1, 405612, Control_c, 0, 64, 127
1, 405635, Note_on_c, 0, 77, 29
1, 405661, Note_on_c, 0, 80, 62
1, 405663, Note_off_c, 0, 65, 58
1, 405671, Note_off_c, 0, 77, 52
1, 405678, Note_off_c, 0, 80, 64
1, 405691, Note_off_c, 0, 58, 61
1, 405692, Note_off_c, 0, 68, 56
1, 405731, Note_on_c, 0, 86, 83
1, 405779, Note_on_c, 0, 98, 102
1, 405780, Note_on_c, 0, 93, 93
1, 405781, Note_on_c, 0, 90, 86
1, 405785, Note_on_c, 0, 69, 84
1, 405788, Note_on_c, 0, 62, 85
1, 405789, Note_on_c, 0, 66, 85
1, 405793, Note_off_c, 0, 86, 69
1, 405802, Note_off_c, 0, 69, 74
1, 405804, Note_off_c, 0, 93, 64
1, 405811, Note_off_c, 0, 66, 69
1, 405813, Note_off_c, 0, 90, 63
1, 405814, Note_off_c, 0, 98, 68
1, 405824, Note_off_c, 0, 62, 66
1, 405834, Control_c, 0, 64, 73
1, 405849, Control_c, 0, 64, 39
1, 405863, Control_c, 0, 64, 0
1, 406003, Note_on_c, 0, 56, 101
1, 406004, Note_on_c, 0, 46, 90
1, 406007, Note_on_c, 0, 53, 77
1, 406012, Note_on_c, 0, 62, 71
1, 406028, Control_c, 0, 64, 49
1, 406035, Note_on_c, 0, 55, 57
1, 406036, Note_on_c, 0, 54, 46
1, 406036, Note_off_c, 0, 54, 127
1, 406042, Control_c, 0, 64, 74
1, 406057, Control_c, 0, 64, 98
1, 406061, Note_off_c, 0, 62, 61
1, 406071, Note_off_c, 0, 55, 56
1, 406072, Control_c, 0, 64, 127
1, 406075, Note_on_c, 0, 65, 68
1, 406102, Note_off_c, 0, 65, 68
1, 406110, Note_on_c, 0, 68, 71
1, 406121, Note_off_c, 0, 53, 58
1, 406132, Note_off_c, 0, 46, 56
1, 406132, Note_off_c, 0, 68, 69
1, 406144, Note_off_c, 0, 56, 59
1, 406196, Note_on_c, 0, 74, 83
1, 406224, Note_on_c, 0, 81, 97
1, 406228, Note_on_c, 0, 86, 87
1, 406231, Note_on_c, 0, 50, 88
1, 406232, Note_on_c, 0, 57, 92
1, 406235, Note_off_c, 0, 74, 68
1, 406237, Note_on_c, 0, 54, 86
1, 406240, Note_on_c, 0, 78, 55
1, 406243, Note_off_c, 0, 81, 69
1, 406246, Note_off_c, 0, 86, 71
1, 406250, Control_c, 0, 64, 67
1, 406258, Note_off_c, 0, 57, 68
1, 406262, Note_off_c, 0, 78, 39
1, 406265, Control_c, 0, 64, 0
1, 406274, Note_off_c, 0, 50, 65
1, 406283, Note_off_c, 0, 54, 59
1, 406446, Note_on_c, 0, 62, 85
1, 406450, Control_c, 0, 64, 53
1, 406452, Note_on_c, 0, 54, 74
1, 406452, Note_on_c, 0, 56, 111
1, 406461, Note_on_c, 0, 46, 86
1, 406465, Control_c, 0, 64, 79
1, 406472, Note_on_c, 0, 53, 74
1, 406480, Control_c, 0, 64, 127
1, 406494, Note_off_c, 0, 62, 63
1, 406518, Note_on_c, 0, 65, 54
1, 406545, Note_off_c, 0, 65, 56
1, 406554, Note_off_c, 0, 54, 56
1, 406562, Note_off_c, 0, 53, 59
1, 406571, Note_off_c, 0, 56, 53
1, 406574, Note_off_c, 0, 46, 60
1, 406581, Note_on_c, 0, 68, 4
1, 406616, Note_off_c, 0, 68, 0
1, 406627, Note_on_c, 0, 74, 83
1, 406637, Poly_aftertouch_c, 0, 68, 0
1, 406673, Note_on_c, 0, 86, 96
1, 406676, Note_on_c, 0, 81, 91
1, 406676, Note_on_c, 0, 78, 92
1, 406679, Note_on_c, 0, 57, 94
1, 406682, Note_on_c, 0, 50, 92
1, 406684, Note_on_c, 0, 54, 86
1, 406687, Note_off_c, 0, 74, 68
1, 406691, Note_off_c, 0, 81, 75
1, 406699, Note_off_c, 0, 57, 73
1, 406700, Note_off_c, 0, 78, 63
1, 406700, Note_off_c, 0, 86, 67
1, 406717, Note_off_c, 0, 54, 64
1, 406717, Control_c, 0, 64, 84
1, 406720, Note_off_c, 0, 50, 67
1, 406732, Control_c, 0, 64, 55
1, 406747, Control_c, 0, 64, 0
1, 406889, Note_on_c, 0, 53, 102
1, 406890, Note_on_c, 0, 62, 97
1, 406891, Note_on_c, 0, 56, 94
1, 406896, Note_on_c, 0, 46, 107
1, 406899, Note_on_c, 0, 34, 102
1, 406923, Note_off_c, 0, 53, 64
1, 406926, Note_off_c, 0, 34, 65
1, 406926, Note_off_c, 0, 46, 63
1, 406938, Note_off_c, 0, 62, 62
1, 406965, Note_off_c, 0, 56, 59
1, 407063, Note_on_c, 0, 54, 94
1, 407066, Note_on_c, 0, 50, 103
1, 407067, Note_on_c, 0, 57, 79
1, 407067, Note_on_c, 0, 62, 87
1, 407073, Note_on_c, 0, 38, 97
1, 407107, Note_off_c, 0, 50, 66
1, 407108, Note_off_c, 0, 38, 70
1, 407114, Note_off_c, 0, 54, 61
1, 407117, Note_off_c, 0, 57, 62
1, 407129, Note_off_c, 0, 62, 62
1, 407223, Note_on_c, 0, 62, 94
1, 407224, Note_on_c, 0, 53, 89
1, 407226, Note_on_c, 0, 46, 96
1, 407228, Note_on_c, 0, 56, 88
1, 407230, Note_on_c, 0, 34, 90
1, 407253, Note_off_c, 0, 46, 65
1, 407256, Note_off_c, 0, 53, 66
1, 407257, Note_off_c, 0, 34, 71
1, 407264, Note_on_c, 0, 44, 38
1, 407264, Note_off_c, 0, 44, 127
1, 407267, Note_off_c, 0, 56, 60
1, 407273, Note_off_c, 0, 62, 65
1, 407311, Poly_aftertouch_c, 0, 44, 0
1, 407317, Control_c, 0, 64, 29
1, 407356, Note_on_c, 0, 54, 71
1, 407357, Note_on_c, 0, 57, 61
1, 407358, Note_on_c, 0, 62, 61
1, 407362, Control_c, 0, 64, 31
1, 407367, Note_on_c, 0, 50, 91
1, 407377, Note_on_c, 0, 38, 80
1, 407388, Note_off_c, 0, 54, 61
1, 407393, Note_off_c, 0, 62, 63
1, 407394, Note_off_c, 0, 57, 66
1, 407396, Note_off_c, 0, 50, 67
1, 407403, Note_off_c, 0, 38, 65
1, 407436, Control_c, 0, 64, 32
1, 407481, Control_c, 0, 64, 33
1, 407487, Note_on_c, 0, 62, 70
1, 407495, Control_c, 0, 64, 35
1, 407496, Note_on_c, 0, 53, 65
1, 407502, Note_on_c, 0, 46, 80
1, 407504, Note_on_c, 0, 34, 80
1, 407510, Control_c, 0, 64, 38
1, 407525, Control_c, 0, 64, 44
1, 407525, Note_off_c, 0, 53, 66
1, 407529, Note_off_c, 0, 46, 66
1, 407534, Note_off_c, 0, 34, 65
1, 407540, Control_c, 0, 64, 50
1, 407547, Note_off_c, 0, 62, 62
1, 407555, Control_c, 0, 64, 55
1, 407570, Control_c, 0, 64, 58
1, 407585, Control_c, 0, 64, 59
1, 407600, Control_c, 0, 64, 60
1, 407615, Note_on_c, 0, 62, 58
1, 407615, Control_c, 0, 64, 61
1, 407630, Control_c, 0, 64, 62
1, 407630, Note_on_c, 0, 54, 53
1, 407632, Note_on_c, 0, 57, 53
1, 407638, Note_on_c, 0, 50, 72
1, 407643, Note_on_c, 0, 38, 68
1, 407659, Note_off_c, 0, 54, 61
1, 407660, Note_off_c, 0, 62, 61
1, 407665, Note_off_c, 0, 50, 67
1, 407671, Note_off_c, 0, 38, 64
1, 407681, Note_off_c, 0, 57, 59
1, 407761, Note_on_c, 0, 54, 52
1, 407764, Note_on_c, 0, 48, 79
1, 407769, Note_on_c, 0, 57, 43
1, 407771, Note_on_c, 0, 63, 56
1, 407772, Note_on_c, 0, 36, 68
1, 407796, Note_off_c, 0, 54, 61
1, 407797, Note_off_c, 0, 48, 65
1, 407803, Note_off_c, 0, 57, 63
1, 407807, Note_off_c, 0, 36, 65
1, 407810, Note_off_c, 0, 63, 63
1, 407896, Note_on_c, 0, 59, 58
1, 407901, Note_on_c, 0, 55, 64
1, 407902, Note_on_c, 0, 47, 72
1, 407906, Note_on_c, 0, 64, 64
1, 407915, Note_on_c, 0, 35, 65
1, 407926, Note_off_c, 0, 59, 65
1, 407932, Note_off_c, 0, 47, 65
1, 407934, Control_c, 0, 64, 60
1, 407936, Note_off_c, 0, 55, 64
1, 407944, Note_off_c, 0, 64, 66
1, 407946, Note_off_c, 0, 35, 64
1, 407948, Control_c, 0, 64, 56
1, 407963, Control_c, 0, 64, 51
1, 407978, Control_c, 0, 64, 49
1, 407993, Control_c, 0, 64, 52
1, 408007, Control_c, 0, 64, 57
1, 408019, Note_on_c, 0, 65, 67
1, 408022, Control_c, 0, 64, 60
1, 408030, Note_on_c, 0, 46, 69
1, 408032, Note_on_c, 0, 56, 60
1, 408034, Note_on_c, 0, 34, 71
1, 408037, Control_c, 0, 64, 63
1, 408052, Control_c, 0, 64, 67
1, 408064, Note_on_c, 0, 62, 41
1, 408064, Note_off_c, 0, 65, 59
1, 408066, Note_off_c, 0, 46, 63
1, 408066, Control_c, 0, 64, 72
1, 408069, Note_off_c, 0, 56, 63
1, 408071, Note_off_c, 0, 34, 65
1, 408081, Control_c, 0, 64, 78
1, 408094, Note_off_c, 0, 62, 52
1, 408096, Control_c, 0, 64, 82
1, 408111, Control_c, 0, 64, 86
1, 408126, Control_c, 0, 64, 90
1, 408140, Control_c, 0, 64, 95
1, 408155, Control_c, 0, 64, 100
1, 408159, Note_on_c, 0, 45, 70
1, 408162, Note_on_c, 0, 57, 63
1, 408164, Note_on_c, 0, 66, 68
1, 408166, Note_on_c, 0, 33, 66
1, 408169, Note_on_c, 0, 61, 55
1, 408170, Control_c, 0, 64, 106
1, 408184, Control_c, 0, 64, 112
1, 408191, Note_off_c, 0, 45, 65
1, 408194, Note_off_c, 0, 57, 65
1, 408198, Note_off_c, 0, 33, 63
1, 408199, Control_c, 0, 64, 119
1, 408204, Note_off_c, 0, 61, 65
1, 408208, Note_off_c, 0, 66, 60
1, 408214, Control_c, 0, 64, 127
1, 408273, Note_on_c, 0, 57, 64
1, 408276, Note_on_c, 0, 45, 74
1, 408281, Note_on_c, 0, 33, 70
1, 408282, Note_on_c, 0, 69, 73
1, 408290, Note_on_c, 0, 61, 54
1, 408303, Note_off_c, 0, 57, 65
1, 408308, Note_off_c, 0, 45, 64
1, 408309, Note_off_c, 0, 33, 63
1, 408310, Note_off_c, 0, 61, 64
1, 408315, Note_off_c, 0, 69, 63
1, 408318, Control_c, 0, 64, 114
1, 408333, Control_c, 0, 64, 78
1, 408348, Control_c, 0, 64, 60
1, 408363, Control_c, 0, 64, 48
1, 408378, Control_c, 0, 64, 53
1, 408393, Control_c, 0, 64, 62
1, 408408, Control_c, 0, 64, 68
1, 408412, Note_on_c, 0, 62, 73
1, 408414, Note_on_c, 0, 74, 79
1, 408417, Note_on_c, 0, 50, 70
1, 408423, Control_c, 0, 64, 81
1, 408426, Note_on_c, 0, 66, 64
1, 408436, Note_off_c, 0, 74, 68
1, 408437, Note_on_c, 0, 38, 54
1, 408437, Control_c, 0, 64, 118
1, 408438, Note_off_c, 0, 62, 67
1, 408444, Note_off_c, 0, 50, 66
1, 408452, Control_c, 0, 64, 127
1, 408457, Note_off_c, 0, 66, 66
1, 408469, Note_off_c, 0, 38, 58
1, 408540, Note_on_c, 0, 75, 83
1, 408543, Note_on_c, 0, 48, 79
1, 408544, Note_on_c, 0, 63, 76
1, 408545, Note_on_c, 0, 66, 67
1, 408552, Note_on_c, 0, 36, 66
1, 408574, Note_off_c, 0, 48, 64
1, 408578, Note_off_c, 0, 63, 61
1, 408593, Note_off_c, 0, 66, 60
1, 408599, Note_off_c, 0, 36, 64
1, 408601, Note_off_c, 0, 75, 63
1, 408669, Note_on_c, 0, 76, 82
1, 408670, Note_on_c, 0, 67, 73
1, 408671, Note_on_c, 0, 47, 77
1, 408675, Note_on_c, 0, 64, 76
1, 408682, Note_on_c, 0, 35, 76
1, 408701, Note_off_c, 0, 64, 68
1, 408708, Note_off_c, 0, 47, 63
1, 408715, Note_off_c, 0, 35, 67
1, 408718, Note_off_c, 0, 76, 65
1, 408723, Note_off_c, 0, 67, 62
1, 408798, Note_on_c, 0, 77, 88
1, 408800, Note_on_c, 0, 65, 84
1, 408801, Control_c, 0, 64, 73
1, 408802, Note_on_c, 0, 46, 79
1, 408804, Note_on_c, 0, 34, 87
1, 408815, Control_c, 0, 64, 52
1, 408831, Note_off_c, 0, 65, 63
1, 408836, Note_on_c, 0, 68, 52
1, 408840, Note_off_c, 0, 77, 64
1, 408841, Note_off_c, 0, 34, 63
1, 408845, Control_c, 0, 64, 65
1, 408853, Note_off_c, 0, 46, 54
1, 408860, Control_c, 0, 64, 77
1, 408871, Note_off_c, 0, 68, 65
1, 408875, Control_c, 0, 64, 100
1, 408889, Control_c, 0, 64, 127
1, 408917, Note_on_c, 0, 69, 76
1, 408919, Note_on_c, 0, 78, 86
1, 408923, Note_on_c, 0, 66, 81
1, 408924, Note_on_c, 0, 45, 80
1, 408931, Note_on_c, 0, 33, 80
1, 408953, Note_off_c, 0, 66, 64
1, 408957, Note_off_c, 0, 69, 61
1, 408969, Note_off_c, 0, 33, 61
1, 408970, Note_off_c, 0, 78, 60
1, 408975, Note_off_c, 0, 45, 63
1, 409040, Note_on_c, 0, 81, 88
1, 409047, Note_on_c, 0, 45, 79
1, 409055, Note_on_c, 0, 33, 76
1, 409057, Note_on_c, 0, 69, 70
1, 409076, Note_on_c, 0, 67, 32
1, 409078, Note_off_c, 0, 33, 65
1, 409079, Note_on_c, 0, 79, 30
1, 409079, Note_on_c, 0, 73, 29
1, 409081, Note_off_c, 0, 45, 64
1, 409083, Note_off_c, 0, 81, 65
1, 409086, Note_off_c, 0, 69, 66
1, 409111, Note_off_c, 0, 67, 52
1, 409111, Note_off_c, 0, 79, 58
1, 409111, Control_c, 0, 64, 105
1, 409112, Note_off_c, 0, 73, 47
1, 409126, Control_c, 0, 64, 65
1, 409141, Control_c, 0, 64, 0
1, 409172, Control_c, 0, 64, 50
1, 409179, Note_on_c, 0, 74, 91
1, 409180, Note_on_c, 0, 86, 91
1, 409186, Note_on_c, 0, 50, 81
1, 409186, Control_c, 0, 64, 62
1, 409191, Note_on_c, 0, 38, 80
1, 409193, Note_on_c, 0, 78, 70
1, 409201, Control_c, 0, 64, 74
1, 409206, Note_off_c, 0, 74, 64
1, 409216, Note_off_c, 0, 50, 66
1, 409216, Control_c, 0, 64, 114
1, 409218, Note_off_c, 0, 86, 64
1, 409218, Note_off_c, 0, 78, 66
1, 409223, Note_off_c, 0, 38, 67
1, 409230, Control_c, 0, 64, 127
1, 409299, Note_on_c, 0, 48, 92
1, 409305, Note_on_c, 0, 75, 93
1, 409307, Note_on_c, 0, 87, 86
1, 409308, Note_on_c, 0, 36, 82
1, 409317, Note_on_c, 0, 78, 67
1, 409359, Note_off_c, 0, 48, 64
1, 409359, Note_off_c, 0, 75, 64
1, 409359, Note_off_c, 0, 78, 56
1, 409364, Note_off_c, 0, 36, 63
1, 409368, Note_off_c, 0, 87, 61
1, 409428, Note_on_c, 0, 79, 75
1, 409430, Note_on_c, 0, 88, 88
1, 409433, Note_on_c, 0, 47, 88
1, 409433, Note_on_c, 0, 76, 89
1, 409439, Note_on_c, 0, 35, 85
1, 409472, Note_off_c, 0, 79, 65
1, 409476, Note_off_c, 0, 76, 61
1, 409480, Note_off_c, 0, 47, 66
1, 409482, Note_off_c, 0, 88, 65
1, 409484, Note_off_c, 0, 35, 63
1, 409490, Control_c, 0, 64, 72
1, 409504, Control_c, 0, 64, 41
1, 409519, Control_c, 0, 64, 0
1, 409534, Control_c, 0, 64, 45
1, 409549, Control_c, 0, 64, 62
1, 409551, Note_on_c, 0, 77, 100
1, 409553, Note_on_c, 0, 89, 93
1, 409557, Note_on_c, 0, 46, 83
1, 409561, Note_on_c, 0, 34, 88
1, 409564, Control_c, 0, 64, 74
1, 409579, Control_c, 0, 64, 127
1, 409585, Note_on_c, 0, 80, 46
1, 409588, Note_off_c, 0, 77, 68
1, 409590, Note_off_c, 0, 89, 62
1, 409597, Note_off_c, 0, 34, 63
1, 409602, Note_off_c, 0, 46, 59
1, 409610, Note_off_c, 0, 80, 59
1, 409662, Note_on_c, 0, 81, 56
1, 409665, Note_on_c, 0, 78, 91
1, 409668, Note_on_c, 0, 90, 91
1, 409676, Note_on_c, 0, 45, 90
1, 409686, Note_on_c, 0, 33, 80
1, 409697, Note_off_c, 0, 81, 65
1, 409701, Note_off_c, 0, 78, 64
1, 409717, Note_off_c, 0, 90, 63
1, 409719, Note_off_c, 0, 33, 66
1, 409723, Note_off_c, 0, 45, 64
1, 409734, Note_on_c, 0, 34, 6
1, 409767, Note_off_c, 0, 34, 57
1, 409788, Note_on_c, 0, 81, 94
1, 409788, Note_on_c, 0, 93, 100
1, 409791, Note_on_c, 0, 45, 82
1, 409797, Note_on_c, 0, 33, 79
1, 409821, Note_off_c, 0, 33, 64
1, 409823, Note_off_c, 0, 81, 65
1, 409824, Note_off_c, 0, 45, 62
1, 409838, Note_off_c, 0, 93, 67
1, 409844, Control_c, 0, 64, 70
1, 409859, Control_c, 0, 64, 44
1, 409874, Control_c, 0, 64, 40
1, 409889, Control_c, 0, 64, 57
1, 409904, Control_c, 0, 64, 66
1, 409919, Control_c, 0, 64, 83
1, 409925, Note_on_c, 0, 86, 90
1, 409929, Note_on_c, 0, 98, 94
1, 409930, Note_on_c, 0, 50, 80
1, 409934, Control_c, 0, 64, 127
1, 409935, Note_on_c, 0, 38, 80
1, 409943, Note_on_c, 0, 90, 68
1, 409955, Note_off_c, 0, 86, 63
1, 409956, Note_off_c, 0, 50, 69
1, 409970, Note_off_c, 0, 38, 66
1, 409971, Note_off_c, 0, 90, 66
1, 409973, Note_off_c, 0, 98, 65
1, 410042, Note_on_c, 0, 87, 93
1, 410045, Note_on_c, 0, 48, 96
1, 410046, Note_on_c, 0, 99, 89
1, 410053, Note_on_c, 0, 36, 84
1, 410059, Note_on_c, 0, 90, 56
1, 410069, Note_on_c, 0, 97, 59
1, 410097, Note_off_c, 0, 90, 50
1, 410098, Note_off_c, 0, 97, 59
1, 410102, Note_off_c, 0, 48, 62
1, 410102, Note_off_c, 0, 87, 62
1, 410108, Note_off_c, 0, 36, 61
1, 410114, Note_off_c, 0, 99, 63
1, 410163, Note_on_c, 0, 90, 65
1, 410172, Note_on_c, 0, 47, 90
1, 410178, Note_on_c, 0, 100, 90
1, 410181, Note_on_c, 0, 88, 93
1, 410181, Note_on_c, 0, 35, 83
1, 410192, Note_on_c, 0, 98, 81
1, 410211, Note_off_c, 0, 98, 57
1, 410219, Note_off_c, 0, 47, 65
1, 410221, Note_off_c, 0, 90, 66
1, 410222, Note_off_c, 0, 88, 65
1, 410225, Note_off_c, 0, 35, 64
1, 410226, Note_off_c, 0, 100, 66
1, 410253, Control_c, 0, 64, 85
1, 410268, Control_c, 0, 64, 59
1, 410283, Control_c, 0, 64, 49
1, 410289, Note_on_c, 0, 92, 95
1, 410293, Note_on_c, 0, 89, 87
1, 410295, Note_on_c, 0, 46, 86
1, 410295, Note_on_c, 0, 101, 95
1, 410298, Control_c, 0, 64, 62
1, 410298, Note_on_c, 0, 34, 92
1, 410312, Control_c, 0, 64, 73
1, 410320, Note_off_c, 0, 89, 64
1, 410327, Control_c, 0, 64, 109
1, 410334, Note_off_c, 0, 34, 62
1, 410336, Note_off_c, 0, 46, 59
1, 410337, Note_off_c, 0, 101, 68
1, 410342, Control_c, 0, 64, 127
1, 410344, Note_off_c, 0, 92, 65
1, 410408, Note_on_c, 0, 90, 99
1, 410410, Note_on_c, 0, 45, 89
1, 410411, Note_on_c, 0, 102, 96
1, 410421, Note_on_c, 0, 33, 80
1, 410449, Note_off_c, 0, 90, 66
1, 410454, Note_off_c, 0, 33, 66
1, 410458, Note_off_c, 0, 45, 64
1, 410461, Note_off_c, 0, 102, 67
1, 410502, Poly_aftertouch_c, 0, 34, 127
1, 410522, Note_on_c, 0, 90, 104
1, 410524, Note_on_c, 0, 102, 95
1, 410528, Note_on_c, 0, 45, 85
1, 410529, Note_on_c, 0, 97, 83
1, 410532, Note_on_c, 0, 33, 81
1, 410544, Poly_aftertouch_c, 0, 34, 0
1, 410548, Note_on_c, 0, 94, 55
1, 410548, Note_off_c, 0, 94, 127
1, 410549, Control_c, 0, 64, 71
1, 410558, Note_off_c, 0, 90, 66
1, 410560, Note_off_c, 0, 33, 64
1, 410563, Note_off_c, 0, 45, 63
1, 410564, Control_c, 0, 64, 35
1, 410566, Note_off_c, 0, 102, 66
1, 410572, Note_off_c, 0, 97, 62
1, 410578, Control_c, 0, 64, 0
1, 410593, Control_c, 0, 64, 37
1, 410608, Control_c, 0, 64, 56
1, 410623, Control_c, 0, 64, 67
1, 410638, Control_c, 0, 64, 94
1, 410652, Control_c, 0, 64, 127
1, 410656, Note_on_c, 0, 86, 102
1, 410656, Note_on_c, 0, 98, 101
1, 410658, Note_on_c, 0, 50, 91
1, 410667, Note_on_c, 0, 38, 85
1, 410667, Note_on_c, 0, 90, 87
1, 410688, Note_off_c, 0, 90, 64
1, 410691, Note_off_c, 0, 50, 63
1, 410691, Note_off_c, 0, 86, 67
1, 410700, Note_off_c, 0, 38, 65
1, 410700, Note_off_c, 0, 98, 66
1, 410775, Note_on_c, 0, 48, 96
1, 410777, Note_on_c, 0, 87, 104
1, 410782, Note_on_c, 0, 99, 94
1, 410789, Note_on_c, 0, 36, 79
1, 410792, Note_on_c, 0, 90, 77
1, 410816, Note_off_c, 0, 90, 69
1, 410831, Note_off_c, 0, 36, 66
1, 410831, Note_off_c, 0, 48, 64
1, 410834, Note_off_c, 0, 87, 60
1, 410838, Note_on_c, 0, 97, 25
1, 410846, Note_off_c, 0, 99, 63
1, 410858, Note_off_c, 0, 97, 43
1, 410885, Poly_aftertouch_c, 0, 38, 127
1, 410909, Note_on_c, 0, 88, 98
1, 410909, Note_on_c, 0, 91, 88
1, 410912, Note_on_c, 0, 47, 91
1, 410912, Note_on_c, 0, 100, 101
1, 410917, Poly_aftertouch_c, 0, 38, 0
1, 410919, Note_on_c, 0, 35, 89
1, 410958, Note_off_c, 0, 47, 65
1, 410962, Note_off_c, 0, 35, 64
1, 410965, Note_off_c, 0, 88, 63
1, 410976, Note_off_c, 0, 91, 65
1, 410979, Note_off_c, 0, 100, 66
1, 411001, Control_c, 0, 64, 84
1, 411016, Control_c, 0, 64, 50
1, 411031, Control_c, 0, 64, 0
1, 411046, Note_on_c, 0, 89, 103
1, 411050, Note_on_c, 0, 101, 109
1, 411051, Note_on_c, 0, 46, 86
1, 411054, Note_on_c, 0, 34, 96
1, 411061, Note_on_c, 0, 92, 93
1, 411061, Control_c, 0, 64, 56
1, 411076, Control_c, 0, 64, 73
1, 411090, Control_c, 0, 64, 127
1, 411099, Note_off_c, 0, 34, 63
1, 411099, Note_off_c, 0, 46, 62
1, 411111, Note_off_c, 0, 101, 67
1, 411112, Note_off_c, 0, 89, 62
1, 411116, Note_on_c, 0, 33, 5
1, 411141, Note_off_c, 0, 92, 64
1, 411153, Note_off_c, 0, 33, 44
1, 411177, Note_on_c, 0, 45, 90
1, 411180, Note_on_c, 0, 90, 101
1, 411180, Note_on_c, 0, 93, 91
1, 411183, Note_on_c, 0, 102, 104
1, 411184, Note_on_c, 0, 33, 77
1, 411220, Note_off_c, 0, 33, 62
1, 411221, Note_off_c, 0, 45, 65
1, 411231, Note_on_c, 0, 34, 15
1, 411234, Note_off_c, 0, 90, 62
1, 411245, Note_off_c, 0, 102, 67
1, 411252, Note_off_c, 0, 93, 61
1, 411263, Note_off_c, 0, 34, 51
1, 411283, Control_c, 0, 64, 112
1, 411298, Control_c, 0, 64, 71
1, 411306, Note_on_c, 0, 45, 94
1, 411309, Note_on_c, 0, 33, 90
1, 411310, Note_on_c, 0, 90, 105
1, 411313, Note_on_c, 0, 102, 102
1, 411313, Control_c, 0, 64, 42
1, 411314, Note_on_c, 0, 97, 93
1, 411328, Control_c, 0, 64, 0
1, 411341, Note_on_c, 0, 99, 49
1, 411341, Note_off_c, 0, 33, 65
1, 411349, Note_off_c, 0, 45, 63
1, 411351, Note_on_c, 0, 94, 29
1, 411371, Note_off_c, 0, 99, 48
1, 411388, Note_off_c, 0, 90, 63
1, 411389, Note_off_c, 0, 102, 66
1, 411395, Note_off_c, 0, 94, 31
1, 411403, Note_off_c, 0, 97, 60
1, 411454, Note_on_c, 0, 98, 84
1, 411454, Note_on_c, 0, 90, 100
1, 411458, Note_on_c, 0, 102, 81
1, 411464, Note_on_c, 0, 50, 98
1, 411466, Note_on_c, 0, 38, 96
1, 411476, Note_off_c, 0, 98, 71
1, 411479, Note_off_c, 0, 102, 70
1, 411487, Note_off_c, 0, 90, 68
1, 411490, Note_off_c, 0, 38, 70
1, 411490, Control_c, 0, 64, 62
1, 411499, Note_off_c, 0, 50, 66
1, 411505, Control_c, 0, 64, 127
1, 411588, Note_on_c, 0, 54, 90
1, 411593, Note_on_c, 0, 42, 92
1, 411607, Note_off_c, 0, 54, 71
1, 411618, Note_off_c, 0, 42, 65
1, 411705, Control_c, 0, 64, 111
1, 411717, Note_on_c, 0, 74, 77
1, 411719, Note_on_c, 0, 45, 92
1, 411720, Control_c, 0, 64, 73
1, 411722, Note_on_c, 0, 62, 71
1, 411722, Note_on_c, 0, 33, 92
1, 411723, Note_on_c, 0, 69, 70
1, 411732, Note_on_c, 0, 66, 59
1, 411735, Control_c, 0, 64, 47
1, 411748, Note_off_c, 0, 33, 70
1, 411750, Control_c, 0, 64, 0
1, 411752, Note_off_c, 0, 45, 64
1, 411755, Note_off_c, 0, 62, 66
1, 411770, Note_off_c, 0, 74, 62
1, 411773, Note_off_c, 0, 66, 60
1, 411774, Note_off_c, 0, 69, 60
1, 411862, Note_on_c, 0, 62, 108
1, 411866, Note_on_c, 0, 74, 96
1, 411867, Note_on_c, 0, 50, 86
1, 411868, Control_c, 0, 64, 34
1, 411870, Note_on_c, 0, 66, 77
1, 411870, Note_off_c, 0, 66, 127
1, 411871, Note_on_c, 0, 69, 86
1, 411871, Note_on_c, 0, 38, 87
1, 411883, Control_c, 0, 64, 68
1, 411884, Note_on_c, 0, 65, 74
1, 411887, Note_off_c, 0, 62, 69
1, 411898, Control_c, 0, 64, 104
1, 411899, Note_off_c, 0, 38, 66
1, 411900, Note_off_c, 0, 50, 65
1, 411902, Note_off_c, 0, 69, 64
1, 411908, Note_off_c, 0, 65, 69
1, 411913, Control_c, 0, 64, 127
1, 411925, Note_off_c, 0, 74, 69
1, 411983, Poly_aftertouch_c, 0, 70, 0
1, 411989, Note_on_c, 0, 57, 93
1, 411998, Note_on_c, 0, 45, 82
1, 412017, Note_off_c, 0, 57, 66
1, 412024, Note_off_c, 0, 45, 68
1, 412107, Note_on_c, 0, 54, 86
1, 412111, Note_on_c, 0, 42, 87
1, 412119, Note_on_c, 0, 74, 78
1, 412119, Note_on_c, 0, 81, 75
1, 412121, Note_on_c, 0, 86, 74
1, 412123, Note_on_c, 0, 88, 76
1, 412124, Note_on_c, 0, 78, 72
1, 412133, Note_on_c, 0, 76, 62
1, 412135, Control_c, 0, 64, 93
1, 412139, Note_off_c, 0, 54, 60
1, 412140, Note_off_c, 0, 42, 67
1, 412150, Note_off_c, 0, 76, 64
1, 412150, Control_c, 0, 64, 67
1, 412152, Note_off_c, 0, 81, 65
1, 412159, Note_off_c, 0, 74, 62
1, 412161, Note_off_c, 0, 88, 57
1, 412165, Control_c, 0, 64, 0
1, 412172, Note_off_c, 0, 78, 56
1, 412175, Note_off_c, 0, 86, 64
1, 412238, Note_on_c, 0, 74, 103
1, 412241, Note_on_c, 0, 82, 86
1, 412244, Note_on_c, 0, 79, 89
1, 412245, Note_on_c, 0, 38, 91
1, 412247, Note_on_c, 0, 86, 92
1, 412249, Note_on_c, 0, 50, 83
1, 412262, Note_off_c, 0, 79, 70
1, 412262, Note_off_c, 0, 74, 65
1, 412269, Control_c, 0, 64, 64
1, 412277, Note_off_c, 0, 38, 67
1, 412277, Note_off_c, 0, 50, 66
1, 412284, Control_c, 0, 64, 89
1, 412292, Note_off_c, 0, 82, 68
1, 412298, Control_c, 0, 64, 127
1, 412301, Note_off_c, 0, 86, 69
1, 412372, Note_on_c, 0, 55, 87
1, 412381, Note_on_c, 0, 43, 80
1, 412392, Note_off_c, 0, 55, 70
1, 412405, Note_off_c, 0, 43, 66
1, 412494, Note_on_c, 0, 98, 87
1, 412497, Note_on_c, 0, 86, 85
1, 412498, Note_on_c, 0, 94, 80
1, 412499, Note_on_c, 0, 91, 80
1, 412504, Note_on_c, 0, 34, 91
1, 412505, Note_on_c, 0, 46, 83
1, 412529, Note_off_c, 0, 46, 66
1, 412530, Note_on_c, 0, 96, 44
1, 412530, Note_off_c, 0, 34, 65
1, 412540, Note_off_c, 0, 86, 65
1, 412541, Note_off_c, 0, 91, 63
1, 412548, Note_off_c, 0, 94, 64
1, 412548, Note_off_c, 0, 98, 67
1, 412559, Control_c, 0, 64, 71
1, 412563, Note_off_c, 0, 96, 34
1, 412574, Control_c, 0, 64, 0
1, 412616, Note_on_c, 0, 98, 106
1, 412617, Note_on_c, 0, 86, 103
1, 412618, Note_on_c, 0, 94, 97
1, 412618, Control_c, 0, 64, 41
1, 412621, Note_on_c, 0, 91, 87
1, 412626, Note_on_c, 0, 38, 81
1, 412629, Note_on_c, 0, 50, 76
1, 412633, Control_c, 0, 64, 60
1, 412641, Note_off_c, 0, 91, 74
1, 412647, Note_off_c, 0, 86, 67
1, 412648, Control_c, 0, 64, 74
1, 412649, Note_off_c, 0, 94, 65
1, 412649, Note_off_c, 0, 98, 68
1, 412651, Note_off_c, 0, 50, 67
1, 412655, Note_off_c, 0, 38, 64
1, 412662, Control_c, 0, 64, 112
1, 412677, Control_c, 0, 64, 127
1, 412742, Note_on_c, 0, 58, 93
1, 412747, Note_on_c, 0, 46, 85
1, 412766, Note_off_c, 0, 58, 64
1, 412772, Note_off_c, 0, 46, 67
1, 412855, Note_on_c, 0, 55, 87
1, 412861, Note_on_c, 0, 86, 85
1, 412863, Note_on_c, 0, 74, 90
1, 412864, Note_on_c, 0, 82, 80
1, 412864, Note_on_c, 0, 43, 81
1, 412873, Note_on_c, 0, 79, 66
1, 412886, Note_off_c, 0, 55, 62
1, 412895, Note_off_c, 0, 79, 70
1, 412902, Note_off_c, 0, 43, 64
1, 412906, Note_off_c, 0, 74, 64
1, 412912, Note_off_c, 0, 82, 63
1, 412917, Note_off_c, 0, 86, 64
1, 412929, Control_c, 0, 64, 92
1, 412944, Control_c, 0, 64, 56
1, 412959, Control_c, 0, 64, 0
1, 412977, Note_on_c, 0, 74, 104
1, 412978, Note_on_c, 0, 86, 86
1, 412979, Note_on_c, 0, 81, 86
1, 412981, Note_on_c, 0, 50, 94
1, 412982, Note_on_c, 0, 78, 89
1, 412983, Note_on_c, 0, 38, 91
1, 412988, Control_c, 0, 64, 37
1, 412995, Note_off_c, 0, 86, 74
1, 412996, Note_off_c, 0, 81, 72
1, 413003, Control_c, 0, 64, 61
1, 413013, Note_off_c, 0, 38, 68
1, 413013, Note_off_c, 0, 74, 65
1, 413016, Note_off_c, 0, 78, 62
1, 413018, Control_c, 0, 64, 74
1, 413019, Note_off_c, 0, 50, 66
1, 413033, Control_c, 0, 64, 127
1, 413107, Note_on_c, 0, 54, 79
1, 413114, Note_on_c, 0, 42, 83
1, 413127, Note_off_c, 0, 54, 68
1, 413135, Note_off_c, 0, 42, 67
1, 413225, Note_on_c, 0, 74, 77
1, 413230, Note_on_c, 0, 62, 74
1, 413231, Note_on_c, 0, 43, 88
1, 413231, Note_on_c, 0, 69, 70
1, 413240, Note_on_c, 0, 66, 67
1, 413244, Note_on_c, 0, 33, 68
1, 413249, Note_on_c, 0, 31, 64
1, 413262, Note_off_c, 0, 43, 66
1, 413264, Note_off_c, 0, 62, 63
1, 413264, Control_c, 0, 64, 96
1, 413268, Note_off_c, 0, 33, 63
1, 413272, Note_off_c, 0, 66, 63
1, 413276, Note_off_c, 0, 74, 63
1, 413278, Note_off_c, 0, 31, 57
1, 413278, Control_c, 0, 64, 58
1, 413281, Note_off_c, 0, 69, 62
1, 413293, Control_c, 0, 64, 0
1, 413338, Control_c, 0, 64, 35
1, 413344, Note_on_c, 0, 62, 99
1, 413345, Note_on_c, 0, 74, 96
1, 413349, Note_on_c, 0, 66, 93
1, 413350, Note_on_c, 0, 69, 83
1, 413352, Control_c, 0, 64, 58
1, 413356, Note_on_c, 0, 50, 88
1, 413362, Note_on_c, 0, 38, 85
1, 413367, Note_off_c, 0, 62, 65
1, 413367, Control_c, 0, 64, 73
1, 413382, Note_off_c, 0, 69, 62
1, 413382, Control_c, 0, 64, 127
1, 413383, Note_off_c, 0, 66, 65
1, 413385, Note_off_c, 0, 50, 65
1, 413386, Note_off_c, 0, 38, 65
1, 413404, Note_off_c, 0, 74, 65
1, 413467, Note_on_c, 0, 57, 89
1, 413472, Note_on_c, 0, 45, 86
1, 413485, Note_on_c, 0, 55, 60
1, 413501, Note_off_c, 0, 57, 64
1, 413502, Note_off_c, 0, 45, 66
1, 413511, Note_off_c, 0, 55, 38
1, 413587, Note_on_c, 0, 54, 89
1, 413589, Note_on_c, 0, 86, 86
1, 413595, Note_on_c, 0, 81, 77
1, 413596, Note_on_c, 0, 42, 87
1, 413596, Note_on_c, 0, 74, 87
1, 413603, Note_on_c, 0, 78, 78
1, 413624, Note_off_c, 0, 42, 64
1, 413626, Note_off_c, 0, 54, 60
1, 413629, Note_off_c, 0, 81, 60
1, 413637, Note_off_c, 0, 74, 62
1, 413646, Note_off_c, 0, 86, 65
1, 413657, Note_off_c, 0, 78, 60
1, 413663, Control_c, 0, 64, 84
1, 413678, Control_c, 0, 64, 48
1, 413693, Control_c, 0, 64, 0
1, 413713, Note_on_c, 0, 74, 94
1, 413715, Note_on_c, 0, 82, 91
1, 413717, Note_on_c, 0, 79, 83
1, 413717, Note_on_c, 0, 86, 101
1, 413720, Note_on_c, 0, 50, 95
1, 413722, Note_on_c, 0, 38, 91
1, 413723, Control_c, 0, 64, 39
1, 413729, Note_off_c, 0, 74, 73
1, 413732, Note_off_c, 0, 79, 75
1, 413737, Control_c, 0, 64, 59
1, 413752, Control_c, 0, 64, 73
1, 413754, Note_off_c, 0, 38, 65
1, 413755, Note_off_c, 0, 50, 65
1, 413758, Note_off_c, 0, 82, 68
1, 413767, Note_off_c, 0, 86, 68
1, 413767, Control_c, 0, 64, 106
1, 413782, Control_c, 0, 64, 127
1, 413839, Note_on_c, 0, 55, 94
1, 413852, Note_on_c, 0, 43, 85
1, 413865, Note_off_c, 0, 55, 66
1, 413880, Note_off_c, 0, 43, 67
1, 413887, Note_on_c, 0, 45, 9
1, 413917, Note_off_c, 0, 45, 0
1, 413937, Poly_aftertouch_c, 0, 45, 0
1, 413961, Note_on_c, 0, 98, 90
1, 413964, Note_on_c, 0, 94, 86
1, 413965, Note_on_c, 0, 86, 87
1, 413966, Note_on_c, 0, 91, 79
1, 413967, Note_on_c, 0, 46, 91
1, 413970, Note_on_c, 0, 34, 95
1, 414000, Note_off_c, 0, 34, 66
1, 414007, Note_off_c, 0, 46, 60
1, 414012, Note_off_c, 0, 86, 65
1, 414015, Note_off_c, 0, 91, 65
1, 414017, Note_off_c, 0, 98, 66
1, 414020, Note_off_c, 0, 94, 64
1, 414027, Control_c, 0, 64, 94
1, 414042, Control_c, 0, 64, 58
1, 414056, Control_c, 0, 64, 0
1, 414085, Note_on_c, 0, 86, 104
1, 414086, Note_on_c, 0, 98, 105
1, 414089, Note_on_c, 0, 94, 98
1, 414089, Note_on_c, 0, 91, 91
1, 414091, Note_on_c, 0, 50, 91
1, 414093, Note_on_c, 0, 38, 85
1, 414101, Control_c, 0, 64, 54
1, 414106, Note_off_c, 0, 91, 75
1, 414109, Note_off_c, 0, 98, 68
1, 414110, Note_off_c, 0, 94, 68
1, 414114, Note_off_c, 0, 50, 70
1, 414115, Note_off_c, 0, 38, 66
1, 414116, Control_c, 0, 64, 70
1, 414124, Note_off_c, 0, 86, 67
1, 414131, Control_c, 0, 64, 95
1, 414146, Control_c, 0, 64, 127
1, 414210, Note_on_c, 0, 58, 96
1, 414217, Note_on_c, 0, 46, 85
1, 414240, Note_off_c, 0, 46, 68
1, 414245, Note_off_c, 0, 58, 62
1, 414314, Note_on_c, 0, 74, 94
1, 414315, Note_on_c, 0, 86, 87
1, 414316, Note_on_c, 0, 55, 94
1, 414317, Note_on_c, 0, 82, 78
1, 414325, Note_on_c, 0, 79, 65
1, 414330, Note_on_c, 0, 43, 83
1, 414347, Note_off_c, 0, 79, 70
1, 414355, Note_off_c, 0, 55, 61
1, 414359, Note_off_c, 0, 43, 66
1, 414359, Note_off_c, 0, 74, 64
1, 414363, Note_off_c, 0, 82, 63
1, 414369, Note_off_c, 0, 86, 63
1, 414397, Control_c, 0, 64, 89
1, 414412, Control_c, 0, 64, 46
1, 414426, Control_c, 0, 64, 0
1, 414436, Note_on_c, 0, 74, 94
1, 414437, Note_on_c, 0, 81, 79
1, 414438, Note_on_c, 0, 50, 94
1, 414438, Note_on_c, 0, 78, 83
1, 414441, Note_on_c, 0, 86, 72
1, 414444, Note_on_c, 0, 38, 93
1, 414456, Note_off_c, 0, 81, 65
1, 414462, Note_off_c, 0, 74, 65
1, 414464, Note_off_c, 0, 86, 70
1, 414465, Note_off_c, 0, 78, 64
1, 414468, Note_off_c, 0, 38, 69
1, 414471, Control_c, 0, 64, 54
1, 414480, Note_off_c, 0, 50, 65
1, 414486, Control_c, 0, 64, 66
1, 414501, Control_c, 0, 64, 84
1, 414515, Control_c, 0, 64, 127
1, 414560, Note_on_c, 0, 57, 99
1, 414578, Note_on_c, 0, 45, 83
1, 414593, Note_off_c, 0, 57, 66
1, 414598, Note_off_c, 0, 45, 68
1, 414673, Note_on_c, 0, 74, 76
1, 414674, Note_on_c, 0, 62, 78
1, 414675, Note_on_c, 0, 54, 90
1, 414679, Note_on_c, 0, 69, 67
1, 414684, Note_on_c, 0, 42, 86
1, 414688, Note_on_c, 0, 66, 73
1, 414709, Note_off_c, 0, 42, 66
1, 414710, Note_off_c, 0, 69, 66
1, 414710, Note_off_c, 0, 54, 65
1, 414718, Note_off_c, 0, 62, 60
1, 414725, Note_off_c, 0, 74, 64
1, 414730, Control_c, 0, 64, 72
1, 414742, Note_off_c, 0, 66, 62
1, 414746, Control_c, 0, 64, 0
1, 414793, Note_on_c, 0, 62, 93
1, 414797, Note_on_c, 0, 50, 91
1, 414797, Note_on_c, 0, 70, 91
1, 414797, Note_on_c, 0, 74, 91
1, 414798, Note_on_c, 0, 67, 83
1, 414800, Note_on_c, 0, 38, 84
1, 414805, Control_c, 0, 64, 54
1, 414811, Note_off_c, 0, 62, 73
1, 414818, Note_off_c, 0, 67, 73
1, 414820, Control_c, 0, 64, 75
1, 414824, Note_off_c, 0, 50, 66
1, 414827, Note_off_c, 0, 38, 65
1, 414835, Control_c, 0, 64, 127
1, 414841, Note_off_c, 0, 70, 67
1, 414847, Note_off_c, 0, 74, 66
1, 414909, Note_on_c, 0, 58, 101
1, 414919, Note_on_c, 0, 46, 86
1, 414944, Note_off_c, 0, 58, 67
1, 414945, Note_off_c, 0, 46, 68
1, 415019, Note_on_c, 0, 55, 97
1, 415024, Note_on_c, 0, 74, 100
1, 415024, Note_on_c, 0, 86, 87
1, 415025, Note_on_c, 0, 82, 81
1, 415029, Note_on_c, 0, 43, 87
1, 415038, Note_on_c, 0, 79, 59
1, 415056, Note_off_c, 0, 55, 66
1, 415062, Note_off_c, 0, 43, 64
1, 415064, Note_off_c, 0, 79, 68
1, 415067, Note_off_c, 0, 74, 62
1, 415073, Note_off_c, 0, 82, 62
1, 415077, Note_off_c, 0, 86, 64
1, 415087, Control_c, 0, 64, 87
1, 415102, Control_c, 0, 64, 51
1, 415117, Control_c, 0, 64, 0
1, 415136, Note_on_c, 0, 74, 98
1, 415138, Note_on_c, 0, 81, 89
1, 415139, Note_on_c, 0, 50, 95
1, 415140, Note_on_c, 0, 86, 91
1, 415141, Note_on_c, 0, 78, 84
1, 415144, Note_on_c, 0, 38, 98
1, 415146, Control_c, 0, 64, 49
1, 415154, Note_off_c, 0, 74, 70
1, 415159, Note_on_c, 0, 82, 63
1, 415161, Control_c, 0, 64, 66
1, 415167, Note_off_c, 0, 81, 66
1, 415168, Note_off_c, 0, 38, 71
1, 415170, Note_off_c, 0, 78, 63
1, 415175, Control_c, 0, 64, 89
1, 415179, Note_off_c, 0, 50, 68
1, 415185, Note_on_c, 0, 39, 33
1, 415185, Note_off_c, 0, 82, 68
1, 415190, Control_c, 0, 64, 127
1, 415195, Note_off_c, 0, 86, 67
1, 415226, Note_off_c, 0, 39, 50
1, 415255, Note_on_c, 0, 57, 100
1, 415263, Note_on_c, 0, 45, 87
1, 415288, Note_off_c, 0, 45, 70
1, 415289, Note_off_c, 0, 57, 67
1, 415371, Note_on_c, 0, 98, 91
1, 415371, Note_on_c, 0, 54, 91
1, 415372, Note_on_c, 0, 86, 84
1, 415376, Note_on_c, 0, 93, 79
1, 415380, Note_on_c, 0, 42, 92
1, 415390, Note_on_c, 0, 90, 71
1, 415408, Note_off_c, 0, 93, 63
1, 415410, Note_off_c, 0, 42, 67
1, 415411, Note_off_c, 0, 54, 65
1, 415421, Note_off_c, 0, 86, 65
1, 415433, Note_off_c, 0, 90, 62
1, 415437, Note_off_c, 0, 98, 66
1, 415449, Control_c, 0, 64, 73
1, 415464, Control_c, 0, 64, 30
1, 415479, Control_c, 0, 64, 0
1, 415484, Note_on_c, 0, 98, 95
1, 415487, Note_on_c, 0, 86, 102
1, 415490, Note_on_c, 0, 91, 93
1, 415491, Note_on_c, 0, 94, 98
1, 415493, Note_on_c, 0, 50, 95
1, 415494, Control_c, 0, 64, 44
1, 415498, Note_on_c, 0, 38, 90
1, 415508, Note_off_c, 0, 91, 74
1, 415509, Control_c, 0, 64, 63
1, 415517, Note_off_c, 0, 94, 65
1, 415521, Note_off_c, 0, 98, 64
1, 415521, Note_off_c, 0, 50, 67
1, 415524, Control_c, 0, 64, 76
1, 415525, Note_off_c, 0, 38, 70
1, 415528, Note_off_c, 0, 86, 66
1, 415539, Control_c, 0, 64, 127
1, 415584, Poly_aftertouch_c, 0, 39, 127
1, 415609, Note_on_c, 0, 58, 105
1, 415615, Note_on_c, 0, 46, 92
1, 415621, Poly_aftertouch_c, 0, 39, 0
1, 415647, Note_off_c, 0, 58, 66
1, 415651, Note_off_c, 0, 46, 61
1, 415718, Note_on_c, 0, 74, 89
1, 415718, Note_on_c, 0, 86, 84
1, 415723, Note_on_c, 0, 55, 95
1, 415723, Note_on_c, 0, 82, 77
1, 415728, Note_on_c, 0, 79, 67
1, 415732, Note_on_c, 0, 43, 89
1, 415753, Note_off_c, 0, 79, 66
1, 415759, Note_off_c, 0, 55, 64
1, 415768, Note_off_c, 0, 43, 64
1, 415770, Note_off_c, 0, 74, 63
1, 415771, Note_off_c, 0, 82, 63
1, 415774, Note_off_c, 0, 86, 65
1, 415791, Control_c, 0, 64, 74
1, 415806, Control_c, 0, 64, 36
1, 415821, Control_c, 0, 64, 0
1, 415836, Control_c, 0, 64, 34
1, 415839, Note_on_c, 0, 74, 104
1, 415843, Note_on_c, 0, 81, 94
1, 415845, Note_on_c, 0, 86, 97
1, 415847, Note_on_c, 0, 78, 92
1, 415851, Control_c, 0, 64, 60
1, 415852, Note_on_c, 0, 50, 95
1, 415860, Note_on_c, 0, 38, 91
1, 415866, Control_c, 0, 64, 74
1, 415867, Note_off_c, 0, 74, 69
1, 415875, Note_off_c, 0, 81, 66
1, 415881, Control_c, 0, 64, 127
1, 415883, Note_off_c, 0, 38, 66
1, 415887, Note_off_c, 0, 78, 65
1, 415892, Note_off_c, 0, 50, 68
1, 415910, Note_off_c, 0, 86, 69
1, 416032, Note_on_c, 0, 51, 19
1, 416040, Poly_aftertouch_c, 0, 38, 0
1, 416095, Control_c, 0, 64, 68
1, 416098, Note_off_c, 0, 51, 47
1, 416104, Note_on_c, 0, 98, 100
1, 416107, Note_on_c, 0, 86, 105
1, 416108, Note_on_c, 0, 91, 91
1, 416108, Note_on_c, 0, 94, 98
1, 416110, Control_c, 0, 64, 0
1, 416111, Note_on_c, 0, 55, 94
1, 416116, Note_on_c, 0, 50, 80
1, 416121, Note_on_c, 0, 43, 76
1, 416128, Note_on_c, 0, 47, 66
1, 416137, Note_off_c, 0, 91, 69
1, 416138, Note_off_c, 0, 98, 69
1, 416140, Control_c, 0, 64, 51
1, 416144, Note_off_c, 0, 55, 66
1, 416145, Note_off_c, 0, 94, 66
1, 416149, Note_off_c, 0, 43, 64
1, 416150, Note_off_c, 0, 86, 64
1, 416155, Note_off_c, 0, 50, 66
1, 416155, Control_c, 0, 64, 69
1, 416155, Note_off_c, 0, 47, 67
1, 416170, Control_c, 0, 64, 87
1, 416185, Control_c, 0, 64, 127
1, 416364, Control_c, 0, 64, 66
1, 416369, Note_on_c, 0, 56, 95
1, 416369, Note_on_c, 0, 74, 104
1, 416371, Note_on_c, 0, 78, 96
1, 416371, Note_on_c, 0, 86, 95
1, 416372, Note_on_c, 0, 62, 102
1, 416373, Note_on_c, 0, 81, 87
1, 416378, Control_c, 0, 64, 0
1, 416379, Note_on_c, 0, 50, 83
1, 416383, Note_on_c, 0, 54, 86
1, 416393, Note_on_c, 0, 57, 79
1, 416397, Note_off_c, 0, 74, 71
1, 416404, Note_off_c, 0, 62, 66
1, 416408, Control_c, 0, 64, 55
1, 416412, Note_off_c, 0, 50, 67
1, 416412, Note_off_c, 0, 81, 66
1, 416414, Note_off_c, 0, 78, 66
1, 416416, Note_off_c, 0, 57, 68
1, 416421, Note_off_c, 0, 54, 63
1, 416422, Control_c, 0, 64, 68
1, 416423, Note_off_c, 0, 56, 60
1, 416427, Note_off_c, 0, 86, 67
1, 416437, Control_c, 0, 64, 86
1, 416452, Control_c, 0, 64, 127
1, 416629, Control_c, 0, 64, 107
1, 416644, Control_c, 0, 64, 61
1, 416659, Control_c, 0, 64, 0
1, 416664, Note_on_c, 0, 57, 96
1, 416664, Note_on_c, 0, 81, 108
1, 416664, Note_on_c, 0, 93, 105
1, 416667, Note_on_c, 0, 85, 101
1, 416667, Note_on_c, 0, 88, 92
1, 416671, Note_on_c, 0, 52, 85
1, 416675, Note_on_c, 0, 45, 79
1, 416677, Note_on_c, 0, 49, 82
1, 416692, Note_off_c, 0, 81, 71
1, 416692, Note_on_c, 0, 90, 58
1, 416703, Control_c, 0, 64, 29
1, 416704, Note_off_c, 0, 45, 65
1, 416705, Note_off_c, 0, 88, 66
1, 416706, Note_off_c, 0, 57, 67
1, 416712, Note_off_c, 0, 90, 62
1, 416717, Note_off_c, 0, 85, 67
1, 416718, Control_c, 0, 64, 61
1, 416723, Note_off_c, 0, 93, 68
1, 416726, Note_off_c, 0, 52, 64
1, 416730, Note_off_c, 0, 49, 64
1, 416733, Control_c, 0, 64, 78
1, 416748, Control_c, 0, 64, 127
1, 416993, Control_c, 0, 64, 73
1, 417008, Control_c, 0, 64, 0
1, 417011, Note_on_c, 0, 102, 110
1, 417013, Note_on_c, 0, 90, 103
1, 417016, Note_on_c, 0, 50, 99
1, 417017, Note_on_c, 0, 38, 89
1, 417040, Note_off_c, 0, 90, 68
1, 417046, Note_off_c, 0, 38, 66
1, 417046, Note_off_c, 0, 102, 68
1, 417050, Note_off_c, 0, 50, 68
1, 417052, Control_c, 0, 64, 41
1, 417067, Control_c, 0, 64, 67
1, 417082, Control_c, 0, 64, 90
1, 417096, Control_c, 0, 64, 127
1, 417341, Note_on_c, 0, 62, 73
1, 417341, Note_on_c, 0, 54, 68
1, 417342, Note_on_c, 0, 81, 75
1, 417343, Note_on_c, 0, 86, 76
1, 417344, Note_on_c, 0, 66, 72
1, 417344, Note_on_c, 0, 74, 82
1, 417347, Note_on_c, 0, 78, 72
1, 417349, Note_on_c, 0, 57, 65
1, 417364, Note_off_c, 0, 74, 72
1, 417365, Note_off_c, 0, 81, 68
1, 417365, Note_off_c, 0, 86, 67
1, 417367, Note_off_c, 0, 62, 68
1, 417368, Note_off_c, 0, 54, 65
1, 417369, Note_off_c, 0, 78, 69
1, 417371, Note_off_c, 0, 66, 65
1, 417377, Note_off_c, 0, 57, 64
1, 417394, Note_on_c, 0, 86, 77
1, 417397, Note_on_c, 0, 74, 95
1, 417401, Note_on_c, 0, 66, 107
1, 417401, Poly_aftertouch_c, 0, 62, 0
1, 417403, Note_on_c, 0, 78, 94
1, 417403, Note_on_c, 0, 81, 86
1, 417407, Note_on_c, 0, 54, 86
1, 417407, Note_on_c, 0, 62, 78
1, 417432, Poly_aftertouch_c, 0, 57, 127
1, 417437, Note_off_c, 0, 66, 70
1, 417448, Note_off_c, 0, 54, 60
1, 417451, Poly_aftertouch_c, 0, 57, 0
1, 417451, Note_off_c, 0, 74, 66
1, 417455, Note_off_c, 0, 81, 62
1, 417460, Note_off_c, 0, 62, 64
1, 417469, Note_off_c, 0, 86, 64
1, 417475, Note_off_c, 0, 78, 62
1, 417488, Poly_aftertouch_c, 0, 59, 127
1, 417489, Note_on_c, 0, 59, 3
1, 417530, Note_off_c, 0, 59, 48
1, 418328, Control_c, 0, 64, 86
1, 418342, Control_c, 0, 64, 68
1, 418357, Control_c, 0, 64, 52
1, 418372, Control_c, 0, 64, 0
1, 418372, End_track
0, 0, End_of_file
