0, 0, Header, 0, 1, 384
1, 0, Start_track
1, 0, Title_t, "Andante w/Var.--V. Korch.-Kogan "
1, 0, Text_t, "2006 International Piano-e-Competition Recital Round"
1, 0, Text_t, "St. Paul, Minnesota, July 2006"
1, 0, Text_t, "http://www.piano-e-competition.com/"
1, 0, Instrument_name_t, "Yamaha Disklavier Pro Mark IV concert grand piano"
1, 0, Sequencer_specific, 39, 67, 113, 0, 1, 0, 1, 0, 65, 110, 100, 97, 110, 116, 101, 32, 119, 47, 86, 97, 114, 46, 32, 32, 86, 46, 75, 111, 114, 99, 104, 46, 45, 75, 111, 103, 97, 110, 32, 32
1, 0, Sequencer_specific, 6, 67, 113, 0, 0, 0, 69
1, 0, System_exclusive, 21, 67, 113, 126, 21, 0, 2, 2, 0, 14, 5, 1, 4, 4, 10, 9, 7, 13, 5, 8, 4, 247
1, 0, Sequencer_specific, 5, 67, 123, 12, 2, 1
1, 0, Tempo, 512820
1, 0, Time_signature, 4, 2, 24, 8
1, 0, System_exclusive, 5, 126, 127, 9, 1, 247
1, 1, System_exclusive, 8, 67, 16, 76, 0, 0, 126, 0, 247
1, 2, System_exclusive, 8, 67, 16, 76, 8, 9, 7, 1, 247
1, 3, Control_c, 0, 0, 0
1, 4, Control_c, 0, 32, 0
1, 5, Program_c, 0, 0
1, 6, Control_c, 0, 7, 100
1, 95, Control_c, 0, 64, 15
1, 95, Control_c, 0, 67, 15
1, 184, Control_c, 0, 64, 31
1, 184, Control_c, 0, 67, 31
1, 273, Control_c, 0, 64, 46
1, 273, Control_c, 0, 67, 46
1, 362, Control_c, 0, 64, 63
1, 362, Control_c, 0, 67, 63
1, 452, Control_c, 0, 64, 77
1, 452, Control_c, 0, 67, 77
1, 541, Control_c, 0, 64, 94
1, 541, Control_c, 0, 67, 94
1, 630, Control_c, 0, 64, 108
1, 630, Control_c, 0, 67, 108
1, 719, Control_c, 0, 64, 127
1, 719, Control_c, 0, 67, 127
1, 910, Note_on_c, 0, 56, 34
1, 918, Note_on_c, 0, 53, 26
1, 1068, Control_c, 0, 64, 109
1, 1082, Control_c, 0, 64, 89
1, 1097, Control_c, 0, 64, 81
1, 1112, Control_c, 0, 64, 80
1, 1156, Control_c, 0, 64, 82
1, 1171, Control_c, 0, 64, 86
1, 1186, Control_c, 0, 64, 91
1, 1200, Control_c, 0, 64, 97
1, 1215, Control_c, 0, 64, 100
1, 1230, Control_c, 0, 64, 104
1, 1245, Control_c, 0, 64, 108
1, 1260, Control_c, 0, 64, 112
1, 1274, Control_c, 0, 64, 115
1, 1289, Control_c, 0, 64, 118
1, 1304, Control_c, 0, 64, 120
1, 1334, Control_c, 0, 64, 124
1, 1361, Note_on_c, 0, 60, 40
1, 1379, Control_c, 0, 64, 127
1, 1507, Note_off_c, 0, 53, 54
1, 1520, Note_off_c, 0, 60, 37
1, 1522, Note_off_c, 0, 56, 41
1, 1646, Control_c, 0, 64, 124
1, 1705, Control_c, 0, 64, 122
1, 1757, Control_c, 0, 64, 117
1, 1772, Control_c, 0, 64, 114
1, 1775, Note_on_c, 0, 52, 39
1, 1777, Note_on_c, 0, 55, 36
1, 1787, Control_c, 0, 64, 109
1, 1802, Control_c, 0, 64, 105
1, 1817, Control_c, 0, 64, 100
1, 1831, Control_c, 0, 64, 95
1, 1846, Control_c, 0, 64, 88
1, 1861, Control_c, 0, 64, 78
1, 1875, Control_c, 0, 64, 68
1, 1890, Control_c, 0, 64, 58
1, 1905, Control_c, 0, 64, 42
1, 1920, Control_c, 0, 64, 0
1, 2009, Control_c, 0, 64, 36
1, 2023, Control_c, 0, 64, 49
1, 2038, Control_c, 0, 64, 59
1, 2053, Control_c, 0, 64, 62
1, 2067, Control_c, 0, 64, 64
1, 2082, Control_c, 0, 64, 66
1, 2097, Control_c, 0, 64, 69
1, 2112, Control_c, 0, 64, 71
1, 2127, Control_c, 0, 64, 73
1, 2142, Control_c, 0, 64, 75
1, 2157, Control_c, 0, 64, 77
1, 2172, Control_c, 0, 64, 79
1, 2187, Control_c, 0, 64, 81
1, 2202, Control_c, 0, 64, 82
1, 2202, Note_on_c, 0, 84, 71
1, 2216, Control_c, 0, 64, 83
1, 2231, Control_c, 0, 64, 84
1, 2243, Note_on_c, 0, 60, 31
1, 2246, Control_c, 0, 64, 85
1, 2260, Control_c, 0, 64, 86
1, 2275, Control_c, 0, 64, 87
1, 2282, Note_off_c, 0, 84, 65
1, 2290, Control_c, 0, 64, 87
1, 2305, Control_c, 0, 64, 88
1, 2320, Control_c, 0, 64, 88
1, 2335, Control_c, 0, 64, 89
1, 2349, Control_c, 0, 64, 90
1, 2364, Control_c, 0, 64, 91
1, 2368, Note_off_c, 0, 55, 36
1, 2379, Control_c, 0, 64, 91
1, 2382, Note_off_c, 0, 52, 49
1, 2389, Note_off_c, 0, 60, 35
1, 2395, Control_c, 0, 64, 92
1, 2410, Control_c, 0, 64, 92
1, 2425, Control_c, 0, 64, 93
1, 2476, Control_c, 0, 64, 93
1, 2549, Note_on_c, 0, 84, 73
1, 2569, Note_off_c, 0, 84, 71
1, 2651, Note_on_c, 0, 84, 72
1, 2654, Control_c, 0, 64, 93
1, 2684, Control_c, 0, 64, 92
1, 2691, Note_on_c, 0, 53, 38
1, 2692, Note_on_c, 0, 56, 34
1, 2698, Control_c, 0, 64, 91
1, 2713, Control_c, 0, 64, 89
1, 2728, Control_c, 0, 64, 85
1, 2743, Control_c, 0, 64, 81
1, 2758, Control_c, 0, 64, 75
1, 2772, Control_c, 0, 64, 67
1, 2787, Control_c, 0, 64, 59
1, 2802, Control_c, 0, 64, 50
1, 2817, Control_c, 0, 64, 38
1, 2832, Control_c, 0, 64, 0
1, 2965, Control_c, 0, 64, 32
1, 2980, Control_c, 0, 64, 48
1, 2994, Control_c, 0, 64, 56
1, 3009, Control_c, 0, 64, 58
1, 3024, Control_c, 0, 64, 60
1, 3039, Control_c, 0, 64, 62
1, 3054, Control_c, 0, 64, 65
1, 3069, Control_c, 0, 64, 67
1, 3079, Note_on_c, 0, 80, 51
1, 3083, Control_c, 0, 64, 69
1, 3098, Control_c, 0, 64, 71
1, 3107, Note_on_c, 0, 60, 37
1, 3113, Control_c, 0, 64, 73
1, 3126, Control_c, 0, 64, 75
1, 3141, Control_c, 0, 64, 78
1, 3155, Control_c, 0, 64, 80
1, 3167, Note_off_c, 0, 53, 61
1, 3170, Control_c, 0, 64, 82
1, 3176, Note_off_c, 0, 84, 40
1, 3186, Control_c, 0, 64, 83
1, 3194, Note_off_c, 0, 56, 40
1, 3201, Control_c, 0, 64, 84
1, 3224, Control_c, 0, 64, 85
1, 3236, Note_off_c, 0, 60, 61
1, 3239, Control_c, 0, 64, 86
1, 3280, Note_off_c, 0, 80, 40
1, 3283, Control_c, 0, 64, 86
1, 3505, Control_c, 0, 64, 86
1, 3525, Note_on_c, 0, 77, 48
1, 3548, Note_on_c, 0, 56, 34
1, 3560, Note_on_c, 0, 60, 36
1, 3594, Control_c, 0, 64, 84
1, 3609, Control_c, 0, 64, 82
1, 3623, Control_c, 0, 64, 77
1, 3638, Control_c, 0, 64, 71
1, 3653, Control_c, 0, 64, 62
1, 3668, Control_c, 0, 64, 48
1, 3683, Control_c, 0, 64, 0
1, 3727, Control_c, 0, 67, 103
1, 3742, Control_c, 0, 67, 66
1, 3757, Control_c, 0, 64, 30
1, 3757, Control_c, 0, 67, 0
1, 3772, Control_c, 0, 64, 46
1, 3786, Control_c, 0, 64, 59
1, 3801, Control_c, 0, 64, 63
1, 3802, Note_off_c, 0, 77, 63
1, 3816, Control_c, 0, 64, 65
1, 3831, Control_c, 0, 64, 67
1, 3845, Control_c, 0, 64, 71
1, 3860, Control_c, 0, 64, 76
1, 3876, Control_c, 0, 64, 79
1, 3891, Control_c, 0, 64, 82
1, 3906, Control_c, 0, 64, 84
1, 3920, Control_c, 0, 64, 87
1, 3935, Control_c, 0, 64, 91
1, 3950, Control_c, 0, 64, 93
1, 3972, Control_c, 0, 64, 95
1, 4003, Control_c, 0, 64, 98
1, 4047, Control_c, 0, 64, 100
1, 4050, Note_on_c, 0, 77, 56
1, 4077, Control_c, 0, 64, 103
1, 4088, Note_on_c, 0, 65, 26
1, 4121, Control_c, 0, 64, 105
1, 4161, Note_off_c, 0, 77, 56
1, 4176, Note_off_c, 0, 60, 40
1, 4181, Control_c, 0, 64, 107
1, 4279, Note_off_c, 0, 56, 41
1, 4282, Note_off_c, 0, 65, 41
1, 4390, Note_on_c, 0, 77, 58
1, 4419, Note_off_c, 0, 77, 66
1, 4491, Note_on_c, 0, 77, 60
1, 4527, Note_on_c, 0, 58, 39
1, 4536, Note_on_c, 0, 61, 37
1, 4551, Control_c, 0, 64, 102
1, 4565, Control_c, 0, 64, 95
1, 4580, Control_c, 0, 64, 85
1, 4595, Control_c, 0, 64, 72
1, 4610, Control_c, 0, 64, 56
1, 4625, Control_c, 0, 64, 36
1, 4640, Control_c, 0, 64, 31
1, 4655, Control_c, 0, 64, 38
1, 4669, Control_c, 0, 64, 49
1, 4684, Control_c, 0, 64, 58
1, 4699, Control_c, 0, 64, 65
1, 4721, Control_c, 0, 64, 71
1, 4736, Control_c, 0, 64, 77
1, 4747, Note_off_c, 0, 77, 63
1, 4750, Control_c, 0, 64, 83
1, 4765, Control_c, 0, 64, 88
1, 4780, Control_c, 0, 64, 93
1, 4796, Control_c, 0, 64, 100
1, 4811, Control_c, 0, 64, 109
1, 4826, Control_c, 0, 64, 119
1, 4840, Control_c, 0, 64, 127
1, 4935, Note_on_c, 0, 77, 73
1, 4964, Note_on_c, 0, 67, 40
1, 5030, Note_off_c, 0, 77, 59
1, 5075, Note_off_c, 0, 61, 41
1, 5126, Note_off_c, 0, 58, 33
1, 5185, Note_off_c, 0, 67, 36
1, 5251, Note_on_c, 0, 77, 74
1, 5280, Note_off_c, 0, 77, 62
1, 5350, Note_on_c, 0, 77, 69
1, 5394, Note_on_c, 0, 63, 42
1, 5401, Note_on_c, 0, 60, 36
1, 5403, Control_c, 0, 64, 101
1, 5418, Control_c, 0, 64, 84
1, 5433, Control_c, 0, 64, 63
1, 5448, Control_c, 0, 64, 34
1, 5470, Control_c, 0, 64, 0
1, 5529, Control_c, 0, 64, 42
1, 5544, Control_c, 0, 64, 58
1, 5559, Control_c, 0, 64, 66
1, 5573, Control_c, 0, 64, 70
1, 5589, Control_c, 0, 64, 75
1, 5604, Control_c, 0, 64, 79
1, 5619, Control_c, 0, 64, 84
1, 5622, Note_off_c, 0, 77, 63
1, 5634, Control_c, 0, 64, 88
1, 5649, Control_c, 0, 64, 92
1, 5663, Control_c, 0, 64, 95
1, 5678, Control_c, 0, 64, 98
1, 5693, Control_c, 0, 64, 101
1, 5708, Control_c, 0, 64, 103
1, 5722, Control_c, 0, 64, 105
1, 5737, Control_c, 0, 64, 108
1, 5782, Control_c, 0, 64, 110
1, 5809, Note_on_c, 0, 77, 76
1, 5826, Control_c, 0, 64, 112
1, 5833, Note_on_c, 0, 69, 43
1, 5898, Note_off_c, 0, 77, 59
1, 5908, Note_off_c, 0, 63, 58
1, 5978, Note_off_c, 0, 60, 40
1, 5979, Note_off_c, 0, 69, 50
1, 6182, Note_on_c, 0, 77, 70
1, 6229, Note_off_c, 0, 77, 55
1, 6311, Note_on_c, 0, 77, 72
1, 6352, Control_c, 0, 64, 109
1, 6354, Note_on_c, 0, 65, 35
1, 6358, Note_on_c, 0, 61, 35
1, 6382, Control_c, 0, 64, 105
1, 6398, Control_c, 0, 64, 101
1, 6412, Control_c, 0, 64, 96
1, 6427, Control_c, 0, 64, 91
1, 6442, Control_c, 0, 64, 86
1, 6457, Control_c, 0, 64, 80
1, 6471, Control_c, 0, 64, 75
1, 6486, Control_c, 0, 64, 70
1, 6501, Control_c, 0, 64, 65
1, 6516, Control_c, 0, 64, 61
1, 6531, Control_c, 0, 64, 58
1, 6545, Control_c, 0, 64, 56
1, 6560, Control_c, 0, 64, 54
1, 6575, Control_c, 0, 64, 52
1, 6590, Control_c, 0, 64, 48
1, 6605, Control_c, 0, 64, 41
1, 6619, Control_c, 0, 64, 0
1, 6724, Control_c, 0, 64, 29
1, 6738, Control_c, 0, 64, 40
1, 6753, Control_c, 0, 64, 51
1, 6768, Control_c, 0, 64, 56
1, 6783, Control_c, 0, 64, 59
1, 6798, Control_c, 0, 64, 61
1, 6812, Control_c, 0, 64, 64
1, 6827, Control_c, 0, 64, 67
1, 6842, Control_c, 0, 64, 70
1, 6856, Control_c, 0, 64, 73
1, 6870, Control_c, 0, 64, 75
1, 6871, Note_on_c, 0, 70, 47
1, 6885, Control_c, 0, 64, 79
1, 6900, Control_c, 0, 64, 82
1, 6915, Control_c, 0, 64, 84
1, 6929, Control_c, 0, 64, 87
1, 6944, Control_c, 0, 64, 89
1, 6967, Control_c, 0, 64, 91
1, 6982, Control_c, 0, 64, 92
1, 6997, Control_c, 0, 64, 93
1, 7026, Control_c, 0, 64, 93
1, 7070, Control_c, 0, 64, 94
1, 7115, Note_on_c, 0, 79, 56
1, 7214, Note_on_c, 0, 80, 70
1, 7231, Note_off_c, 0, 77, 48
1, 7260, Note_off_c, 0, 79, 40
1, 7341, Note_on_c, 0, 84, 67
1, 7346, Note_off_c, 0, 80, 62
1, 7358, Note_off_c, 0, 65, 40
1, 7390, Note_on_c, 0, 82, 70
1, 7412, Control_c, 0, 64, 93
1, 7466, Note_off_c, 0, 84, 39
1, 7486, Control_c, 0, 64, 93
1, 7516, Control_c, 0, 64, 92
1, 7531, Control_c, 0, 64, 92
1, 7546, Control_c, 0, 64, 91
1, 7560, Control_c, 0, 64, 90
1, 7564, Note_on_c, 0, 80, 76
1, 7575, Control_c, 0, 64, 88
1, 7590, Control_c, 0, 64, 87
1, 7605, Control_c, 0, 64, 86
1, 7621, Control_c, 0, 64, 85
1, 7635, Control_c, 0, 64, 84
1, 7650, Control_c, 0, 64, 83
1, 7663, Note_off_c, 0, 82, 39
1, 7665, Control_c, 0, 64, 81
1, 7679, Control_c, 0, 64, 80
1, 7694, Control_c, 0, 64, 79
1, 7716, Control_c, 0, 64, 78
1, 7731, Control_c, 0, 64, 76
1, 7746, Control_c, 0, 64, 75
1, 7761, Control_c, 0, 64, 74
1, 7775, Note_on_c, 0, 79, 64
1, 7776, Control_c, 0, 64, 73
1, 7791, Control_c, 0, 64, 72
1, 7802, Note_on_c, 0, 58, 42
1, 7805, Control_c, 0, 64, 71
1, 7820, Control_c, 0, 64, 70
1, 7822, Note_off_c, 0, 80, 57
1, 7835, Control_c, 0, 64, 68
1, 7850, Control_c, 0, 64, 66
1, 7865, Control_c, 0, 64, 65
1, 7879, Control_c, 0, 64, 64
1, 7894, Control_c, 0, 64, 63
1, 7909, Control_c, 0, 64, 63
1, 7917, Note_off_c, 0, 61, 36
1, 7924, Control_c, 0, 64, 62
1, 7939, Control_c, 0, 64, 61
1, 7954, Control_c, 0, 64, 61
1, 7966, Note_off_c, 0, 79, 62
1, 7968, Control_c, 0, 64, 60
1, 7982, Note_on_c, 0, 77, 67
1, 7984, Control_c, 0, 64, 60
1, 7999, Control_c, 0, 64, 59
1, 8029, Control_c, 0, 64, 59
1, 8044, Control_c, 0, 64, 58
1, 8073, Control_c, 0, 64, 58
1, 8088, Control_c, 0, 64, 57
1, 8103, Control_c, 0, 64, 57
1, 8117, Control_c, 0, 64, 56
1, 8132, Control_c, 0, 64, 56
1, 8132, Control_c, 0, 67, 43
1, 8147, Control_c, 0, 64, 55
1, 8147, Control_c, 0, 67, 54
1, 8162, Control_c, 0, 67, 63
1, 8177, Control_c, 0, 64, 55
1, 8177, Control_c, 0, 67, 71
1, 8191, Control_c, 0, 64, 54
1, 8191, Control_c, 0, 67, 79
1, 8206, Control_c, 0, 64, 54
1, 8206, Control_c, 0, 67, 89
1, 8221, Control_c, 0, 67, 99
1, 8235, Control_c, 0, 64, 53
1, 8235, Control_c, 0, 67, 107
1, 8250, Control_c, 0, 67, 112
1, 8265, Control_c, 0, 64, 53
1, 8265, Control_c, 0, 67, 116
1, 8280, Control_c, 0, 67, 122
1, 8281, Note_on_c, 0, 76, 50
1, 8295, Control_c, 0, 67, 127
1, 8309, Control_c, 0, 64, 52
1, 8339, Control_c, 0, 64, 52
1, 8342, Note_off_c, 0, 77, 51
1, 8351, Note_on_c, 0, 60, 37
1, 8384, Control_c, 0, 64, 51
1, 8392, Note_off_c, 0, 58, 46
1, 8414, Control_c, 0, 64, 51
1, 8428, Control_c, 0, 64, 50
1, 8443, Control_c, 0, 64, 50
1, 8465, Control_c, 0, 64, 49
1, 8480, Control_c, 0, 64, 48
1, 8495, Control_c, 0, 64, 48
1, 8509, Control_c, 0, 64, 47
1, 8524, Control_c, 0, 64, 47
1, 8554, Control_c, 0, 64, 46
1, 8569, Control_c, 0, 64, 46
1, 8572, Note_off_c, 0, 76, 63
1, 8584, Control_c, 0, 64, 45
1, 8593, Note_on_c, 0, 77, 54
1, 8599, Control_c, 0, 64, 44
1, 8613, Control_c, 0, 64, 43
1, 8628, Control_c, 0, 64, 43
1, 8643, Control_c, 0, 64, 42
1, 8658, Control_c, 0, 64, 41
1, 8661, Note_off_c, 0, 77, 61
1, 8673, Control_c, 0, 64, 41
1, 8684, Note_on_c, 0, 76, 61
1, 8702, Control_c, 0, 64, 40
1, 8717, Control_c, 0, 64, 40
1, 8722, Note_off_c, 0, 76, 62
1, 8732, Control_c, 0, 64, 39
1, 8753, Note_on_c, 0, 74, 57
1, 8762, Control_c, 0, 64, 39
1, 8792, Control_c, 0, 64, 38
1, 8813, Note_off_c, 0, 74, 58
1, 8822, Control_c, 0, 64, 38
1, 8835, Note_on_c, 0, 76, 60
1, 8971, Note_on_c, 0, 79, 57
1, 8981, Note_off_c, 0, 76, 56
1, 9022, Note_on_c, 0, 68, 41
1, 9132, Control_c, 0, 64, 37
1, 9141, Note_off_c, 0, 70, 42
1, 9210, Note_on_c, 0, 77, 64
1, 9362, Control_c, 0, 64, 37
1, 9383, Note_off_c, 0, 79, 27
1, 9409, Note_on_c, 0, 75, 62
1, 9421, Control_c, 0, 64, 36
1, 9432, Note_on_c, 0, 65, 38
1, 9466, Control_c, 0, 64, 36
1, 9499, Note_off_c, 0, 68, 56
1, 9526, Control_c, 0, 64, 35
1, 9536, Note_off_c, 0, 77, 37
1, 9570, Control_c, 0, 64, 35
1, 9605, Note_on_c, 0, 73, 60
1, 9645, Control_c, 0, 64, 34
1, 9671, Note_off_c, 0, 75, 57
1, 9689, Control_c, 0, 64, 34
1, 9719, Control_c, 0, 64, 33
1, 9778, Control_c, 0, 64, 33
1, 9800, Note_on_c, 0, 72, 59
1, 9827, Note_off_c, 0, 73, 51
1, 9839, Note_on_c, 0, 61, 37
1, 9892, Note_off_c, 0, 60, 30
1, 9896, Control_c, 0, 64, 33
1, 9911, Control_c, 0, 64, 34
1, 9926, Control_c, 0, 64, 36
1, 9941, Control_c, 0, 64, 41
1, 9963, Control_c, 0, 64, 47
1, 9978, Control_c, 0, 64, 56
1, 9993, Control_c, 0, 64, 62
1, 9996, Note_on_c, 0, 71, 59
1, 10007, Control_c, 0, 64, 66
1, 10022, Control_c, 0, 64, 70
1, 10037, Control_c, 0, 64, 74
1, 10052, Control_c, 0, 64, 78
1, 10067, Control_c, 0, 64, 83
1, 10071, Note_off_c, 0, 72, 38
1, 10081, Control_c, 0, 64, 87
1, 10096, Control_c, 0, 64, 89
1, 10111, Control_c, 0, 64, 91
1, 10116, Note_off_c, 0, 71, 57
1, 10126, Control_c, 0, 64, 93
1, 10141, Control_c, 0, 64, 94
1, 10155, Control_c, 0, 64, 95
1, 10170, Control_c, 0, 64, 95
1, 10262, Note_on_c, 0, 71, 56
1, 10312, Note_on_c, 0, 60, 39
1, 10378, Control_c, 0, 64, 95
1, 10393, Control_c, 0, 64, 94
1, 10408, Control_c, 0, 64, 91
1, 10423, Control_c, 0, 64, 85
1, 10438, Control_c, 0, 64, 75
1, 10444, Note_off_c, 0, 61, 35
1, 10453, Control_c, 0, 64, 66
1, 10468, Control_c, 0, 64, 55
1, 10483, Control_c, 0, 64, 45
1, 10497, Control_c, 0, 64, 42
1, 10512, Control_c, 0, 64, 42
1, 10566, Note_off_c, 0, 65, 36
1, 10586, Control_c, 0, 64, 42
1, 10691, Control_c, 0, 64, 43
1, 10712, Control_c, 0, 64, 45
1, 10727, Control_c, 0, 64, 47
1, 10736, Note_on_c, 0, 68, 47
1, 10742, Control_c, 0, 64, 50
1, 10751, Note_on_c, 0, 65, 36
1, 10757, Control_c, 0, 64, 52
1, 10772, Control_c, 0, 64, 55
1, 10787, Control_c, 0, 64, 58
1, 10801, Control_c, 0, 64, 61
1, 10816, Control_c, 0, 64, 64
1, 10831, Control_c, 0, 64, 67
1, 10846, Control_c, 0, 64, 72
1, 10861, Control_c, 0, 64, 76
1, 10876, Control_c, 0, 64, 80
1, 10891, Control_c, 0, 64, 85
1, 10905, Control_c, 0, 64, 90
1, 10920, Control_c, 0, 64, 94
1, 10935, Control_c, 0, 64, 99
1, 10940, Note_off_c, 0, 71, 54
1, 10942, Note_off_c, 0, 68, 47
1, 10950, Control_c, 0, 64, 103
1, 10959, Note_off_c, 0, 65, 38
1, 10965, Control_c, 0, 64, 105
1, 11009, Control_c, 0, 64, 107
1, 11164, Note_on_c, 0, 72, 47
1, 11191, Note_on_c, 0, 64, 41
1, 11193, Note_on_c, 0, 67, 41
1, 11202, Control_c, 0, 64, 104
1, 11217, Control_c, 0, 64, 102
1, 11232, Control_c, 0, 64, 98
1, 11247, Control_c, 0, 64, 90
1, 11261, Control_c, 0, 64, 81
1, 11276, Control_c, 0, 64, 69
1, 11291, Control_c, 0, 64, 56
1, 11306, Control_c, 0, 64, 36
1, 11321, Control_c, 0, 64, 31
1, 11335, Control_c, 0, 64, 35
1, 11335, Control_c, 0, 67, 103
1, 11350, Control_c, 0, 64, 46
1, 11350, Control_c, 0, 67, 77
1, 11365, Control_c, 0, 64, 54
1, 11365, Control_c, 0, 67, 53
1, 11380, Control_c, 0, 64, 61
1, 11380, Control_c, 0, 67, 0
1, 11394, Control_c, 0, 64, 66
1, 11409, Control_c, 0, 64, 72
1, 11424, Control_c, 0, 64, 76
1, 11425, Note_off_c, 0, 72, 59
1, 11439, Control_c, 0, 64, 79
1, 11460, Control_c, 0, 64, 84
1, 11475, Control_c, 0, 64, 87
1, 11490, Control_c, 0, 64, 90
1, 11505, Control_c, 0, 64, 92
1, 11520, Control_c, 0, 64, 92
1, 11535, Control_c, 0, 64, 93
1, 11628, Note_on_c, 0, 70, 54
1, 11639, Control_c, 0, 64, 90
1, 11653, Control_c, 0, 64, 78
1, 11668, Control_c, 0, 64, 64
1, 11683, Control_c, 0, 64, 47
1, 11698, Control_c, 0, 64, 30
1, 11727, Control_c, 0, 64, 38
1, 11742, Control_c, 0, 64, 50
1, 11757, Control_c, 0, 64, 60
1, 11772, Control_c, 0, 64, 65
1, 11786, Control_c, 0, 64, 70
1, 11801, Control_c, 0, 64, 74
1, 11816, Control_c, 0, 64, 79
1, 11831, Control_c, 0, 64, 82
1, 11836, Note_off_c, 0, 70, 51
1, 11846, Control_c, 0, 64, 86
1, 11860, Control_c, 0, 64, 91
1, 11872, Note_off_c, 0, 67, 37
1, 11875, Control_c, 0, 64, 94
1, 11890, Control_c, 0, 64, 96
1, 11920, Control_c, 0, 64, 99
1, 11965, Note_off_c, 0, 64, 63
1, 12018, Note_off_c, 0, 60, 34
1, 12122, Note_on_c, 0, 68, 48
1, 12151, Note_on_c, 0, 65, 37
1, 12158, Control_c, 0, 64, 97
1, 12173, Control_c, 0, 64, 93
1, 12188, Control_c, 0, 64, 87
1, 12210, Control_c, 0, 64, 79
1, 12225, Control_c, 0, 64, 69
1, 12239, Control_c, 0, 64, 59
1, 12254, Control_c, 0, 64, 49
1, 12269, Control_c, 0, 64, 46
1, 12283, Control_c, 0, 64, 49
1, 12298, Control_c, 0, 64, 56
1, 12313, Control_c, 0, 64, 63
1, 12328, Control_c, 0, 64, 68
1, 12343, Control_c, 0, 64, 76
1, 12357, Control_c, 0, 64, 85
1, 12372, Control_c, 0, 64, 95
1, 12387, Control_c, 0, 64, 106
1, 12402, Control_c, 0, 64, 127
1, 12637, Note_on_c, 0, 72, 45
1, 12669, Control_c, 0, 64, 115
1, 12683, Control_c, 0, 64, 85
1, 12698, Control_c, 0, 64, 69
1, 12713, Control_c, 0, 64, 57
1, 12728, Control_c, 0, 64, 53
1, 12743, Control_c, 0, 64, 58
1, 12757, Control_c, 0, 64, 64
1, 12773, Control_c, 0, 64, 72
1, 12788, Control_c, 0, 64, 82
1, 12799, Note_off_c, 0, 68, 38
1, 12803, Control_c, 0, 64, 95
1, 12818, Note_off_c, 0, 72, 53
1, 12818, Control_c, 0, 64, 107
1, 12832, Control_c, 0, 64, 127
1, 12848, Note_off_c, 0, 65, 48
1, 13034, Note_on_c, 0, 67, 52
1, 13052, Note_on_c, 0, 64, 40
1, 13077, Control_c, 0, 64, 93
1, 13092, Control_c, 0, 64, 70
1, 13106, Control_c, 0, 64, 55
1, 13121, Control_c, 0, 64, 41
1, 13136, Control_c, 0, 64, 32
1, 13151, Control_c, 0, 64, 34
1, 13166, Control_c, 0, 64, 44
1, 13180, Control_c, 0, 64, 57
1, 13195, Control_c, 0, 64, 67
1, 13210, Control_c, 0, 64, 73
1, 13225, Control_c, 0, 64, 80
1, 13240, Control_c, 0, 64, 85
1, 13255, Control_c, 0, 64, 92
1, 13270, Control_c, 0, 64, 101
1, 13285, Control_c, 0, 64, 118
1, 13299, Control_c, 0, 64, 127
1, 13434, Note_on_c, 0, 72, 55
1, 13461, Note_on_c, 0, 60, 57
1, 13462, Control_c, 0, 64, 113
1, 13477, Control_c, 0, 64, 83
1, 13492, Control_c, 0, 64, 62
1, 13492, Control_c, 0, 67, 45
1, 13506, Control_c, 0, 64, 49
1, 13506, Control_c, 0, 67, 67
1, 13521, Control_c, 0, 64, 52
1, 13521, Control_c, 0, 67, 86
1, 13530, Note_off_c, 0, 67, 60
1, 13536, Control_c, 0, 64, 59
1, 13536, Control_c, 0, 67, 102
1, 13550, Control_c, 0, 64, 65
1, 13550, Control_c, 0, 67, 114
1, 13565, Control_c, 0, 64, 73
1, 13565, Control_c, 0, 67, 127
1, 13568, Note_off_c, 0, 60, 64
1, 13582, Control_c, 0, 64, 84
1, 13596, Control_c, 0, 64, 99
1, 13604, Note_off_c, 0, 72, 58
1, 13612, Control_c, 0, 64, 112
1, 13627, Control_c, 0, 64, 127
1, 13773, Note_on_c, 0, 60, 58
1, 13807, Note_off_c, 0, 60, 64
1, 13869, Note_on_c, 0, 66, 51
1, 13878, Note_on_c, 0, 63, 52
1, 13889, Note_on_c, 0, 60, 58
1, 13901, Control_c, 0, 64, 108
1, 13916, Control_c, 0, 64, 89
1, 13930, Control_c, 0, 64, 73
1, 13945, Control_c, 0, 64, 59
1, 13960, Control_c, 0, 64, 43
1, 13974, Control_c, 0, 64, 41
1, 13989, Control_c, 0, 64, 47
1, 14004, Control_c, 0, 64, 58
1, 14019, Control_c, 0, 64, 65
1, 14034, Control_c, 0, 64, 71
1, 14048, Control_c, 0, 64, 80
1, 14063, Control_c, 0, 64, 89
1, 14074, Note_off_c, 0, 64, 38
1, 14078, Control_c, 0, 64, 99
1, 14093, Control_c, 0, 64, 112
1, 14108, Control_c, 0, 64, 127
1, 14298, Note_on_c, 0, 57, 50
1, 14300, Note_on_c, 0, 72, 49
1, 14315, Control_c, 0, 64, 119
1, 14330, Control_c, 0, 64, 89
1, 14345, Control_c, 0, 64, 72
1, 14360, Control_c, 0, 64, 59
1, 14376, Control_c, 0, 64, 51
1, 14390, Control_c, 0, 64, 52
1, 14405, Control_c, 0, 64, 59
1, 14420, Control_c, 0, 64, 64
1, 14435, Control_c, 0, 64, 70
1, 14435, Note_off_c, 0, 60, 52
1, 14457, Control_c, 0, 64, 79
1, 14472, Control_c, 0, 64, 92
1, 14477, Note_off_c, 0, 66, 39
1, 14486, Control_c, 0, 64, 102
1, 14501, Control_c, 0, 64, 117
1, 14516, Control_c, 0, 64, 127
1, 14564, Note_off_c, 0, 57, 59
1, 14761, Note_on_c, 0, 69, 45
1, 14779, Note_on_c, 0, 53, 44
1, 14812, Control_c, 0, 64, 108
1, 14827, Control_c, 0, 64, 93
1, 14842, Control_c, 0, 64, 79
1, 14857, Note_off_c, 0, 72, 34
1, 14857, Control_c, 0, 64, 64
1, 14871, Control_c, 0, 64, 44
1, 14886, Control_c, 0, 64, 0
1, 14931, Control_c, 0, 64, 40
1, 14945, Control_c, 0, 64, 57
1, 14950, Note_off_c, 0, 63, 59
1, 14960, Control_c, 0, 64, 66
1, 14975, Control_c, 0, 64, 71
1, 14990, Control_c, 0, 64, 79
1, 15005, Control_c, 0, 64, 87
1, 15008, Note_off_c, 0, 53, 62
1, 15019, Control_c, 0, 64, 95
1, 15034, Control_c, 0, 64, 101
1, 15049, Control_c, 0, 64, 106
1, 15064, Control_c, 0, 64, 111
1, 15079, Control_c, 0, 64, 117
1, 15094, Control_c, 0, 64, 122
1, 15108, Control_c, 0, 64, 127
1, 15183, Control_c, 0, 64, 105
1, 15188, Note_on_c, 0, 72, 57
1, 15202, Note_on_c, 0, 57, 61
1, 15205, Control_c, 0, 64, 80
1, 15219, Control_c, 0, 64, 62
1, 15224, Note_on_c, 0, 63, 43
1, 15234, Control_c, 0, 64, 44
1, 15249, Control_c, 0, 64, 47
1, 15264, Control_c, 0, 64, 56
1, 15277, Note_off_c, 0, 69, 59
1, 15279, Control_c, 0, 64, 62
1, 15294, Control_c, 0, 64, 69
1, 15309, Control_c, 0, 64, 78
1, 15323, Control_c, 0, 64, 88
1, 15330, Note_off_c, 0, 57, 56
1, 15338, Control_c, 0, 64, 97
1, 15353, Control_c, 0, 64, 107
1, 15368, Control_c, 0, 64, 127
1, 15507, Note_on_c, 0, 57, 62
1, 15563, Note_off_c, 0, 57, 60
1, 15607, Note_on_c, 0, 58, 63
1, 15609, Note_on_c, 0, 65, 56
1, 15631, Note_off_c, 0, 72, 58
1, 15664, Control_c, 0, 64, 116
1, 15679, Control_c, 0, 64, 92
1, 15693, Control_c, 0, 64, 74
1, 15708, Control_c, 0, 64, 59
1, 15723, Control_c, 0, 64, 39
1, 15738, Control_c, 0, 64, 0
1, 15797, Control_c, 0, 64, 30
1, 15812, Control_c, 0, 64, 45
1, 15827, Control_c, 0, 64, 56
1, 15842, Control_c, 0, 64, 59
1, 15857, Control_c, 0, 64, 60
1, 15872, Control_c, 0, 64, 59
1, 15887, Control_c, 0, 64, 57
1, 15901, Control_c, 0, 64, 52
1, 15916, Control_c, 0, 64, 42
1, 15931, Control_c, 0, 64, 0
1, 15969, Note_off_c, 0, 65, 57
1, 16011, Note_on_c, 0, 70, 52
1, 16018, Note_on_c, 0, 61, 43
1, 16042, Note_on_c, 0, 55, 41
1, 16102, Control_c, 0, 64, 31
1, 16115, Note_off_c, 0, 58, 51
1, 16116, Control_c, 0, 64, 42
1, 16131, Control_c, 0, 64, 53
1, 16146, Control_c, 0, 64, 61
1, 16161, Control_c, 0, 64, 64
1, 16161, Control_c, 0, 67, 122
1, 16176, Note_off_c, 0, 63, 45
1, 16176, Control_c, 0, 64, 67
1, 16176, Control_c, 0, 67, 107
1, 16191, Control_c, 0, 64, 69
1, 16191, Control_c, 0, 67, 90
1, 16206, Control_c, 0, 64, 72
1, 16206, Control_c, 0, 67, 72
1, 16221, Control_c, 0, 64, 75
1, 16221, Control_c, 0, 67, 58
1, 16236, Control_c, 0, 64, 78
1, 16236, Control_c, 0, 67, 46
1, 16250, Control_c, 0, 64, 80
1, 16250, Control_c, 0, 67, 0
1, 16265, Control_c, 0, 64, 81
1, 16280, Control_c, 0, 64, 82
1, 16280, Note_off_c, 0, 55, 58
1, 16295, Control_c, 0, 64, 83
1, 16339, Control_c, 0, 64, 83
1, 16422, Note_on_c, 0, 67, 49
1, 16428, Control_c, 0, 64, 83
1, 16442, Control_c, 0, 64, 81
1, 16450, Note_on_c, 0, 51, 42
1, 16457, Control_c, 0, 64, 72
1, 16472, Control_c, 0, 64, 60
1, 16487, Control_c, 0, 64, 44
1, 16502, Control_c, 0, 64, 40
1, 16516, Control_c, 0, 64, 46
1, 16521, Note_off_c, 0, 70, 37
1, 16531, Control_c, 0, 64, 56
1, 16546, Control_c, 0, 64, 64
1, 16561, Control_c, 0, 64, 70
1, 16575, Control_c, 0, 64, 76
1, 16590, Control_c, 0, 64, 82
1, 16602, Note_off_c, 0, 51, 61
1, 16605, Control_c, 0, 64, 86
1, 16616, Note_off_c, 0, 61, 50
1, 16620, Control_c, 0, 64, 90
1, 16635, Control_c, 0, 64, 94
1, 16649, Control_c, 0, 64, 98
1, 16679, Control_c, 0, 64, 100
1, 16805, Control_c, 0, 64, 97
1, 16811, Note_off_c, 0, 67, 31
1, 16820, Control_c, 0, 64, 84
1, 16835, Control_c, 0, 64, 69
1, 16842, Note_on_c, 0, 70, 51
1, 16850, Control_c, 0, 64, 52
1, 16862, Note_on_c, 0, 55, 48
1, 16865, Control_c, 0, 64, 0
1, 16875, Note_on_c, 0, 61, 40
1, 16894, Control_c, 0, 64, 40
1, 16909, Control_c, 0, 64, 55
1, 16924, Control_c, 0, 64, 64
1, 16939, Control_c, 0, 64, 69
1, 16954, Control_c, 0, 64, 75
1, 16966, Note_off_c, 0, 55, 61
1, 16969, Control_c, 0, 64, 81
1, 16984, Control_c, 0, 64, 86
1, 16998, Control_c, 0, 64, 92
1, 17013, Control_c, 0, 64, 96
1, 17028, Control_c, 0, 64, 98
1, 17178, Note_on_c, 0, 55, 60
1, 17215, Note_off_c, 0, 55, 62
1, 17220, Control_c, 0, 64, 95
1, 17235, Control_c, 0, 64, 92
1, 17250, Control_c, 0, 64, 88
1, 17263, Note_on_c, 0, 63, 64
1, 17264, Control_c, 0, 64, 83
1, 17272, Note_on_c, 0, 56, 59
1, 17279, Control_c, 0, 64, 77
1, 17294, Control_c, 0, 64, 70
1, 17300, Note_off_c, 0, 70, 53
1, 17309, Control_c, 0, 64, 63
1, 17324, Control_c, 0, 64, 55
1, 17339, Control_c, 0, 64, 46
1, 17353, Control_c, 0, 64, 0
1, 17653, Note_off_c, 0, 61, 32
1, 17697, Note_on_c, 0, 68, 63
1, 17699, Note_off_c, 0, 56, 59
1, 17702, Control_c, 0, 64, 32
1, 17717, Note_on_c, 0, 60, 43
1, 17717, Control_c, 0, 64, 45
1, 17723, Note_on_c, 0, 51, 43
1, 17732, Control_c, 0, 64, 54
1, 17747, Control_c, 0, 64, 60
1, 17762, Control_c, 0, 64, 63
1, 17765, Note_off_c, 0, 63, 58
1, 17777, Control_c, 0, 64, 65
1, 17792, Control_c, 0, 64, 68
1, 17807, Control_c, 0, 64, 71
1, 17812, Note_off_c, 0, 60, 62
1, 17821, Control_c, 0, 64, 72
1, 17832, Note_off_c, 0, 68, 62
1, 17836, Control_c, 0, 64, 73
1, 17851, Control_c, 0, 64, 74
1, 17866, Control_c, 0, 64, 74
1, 17895, Control_c, 0, 64, 75
1, 18013, Control_c, 0, 64, 74
1, 18038, Note_on_c, 0, 68, 64
1, 18043, Control_c, 0, 64, 73
1, 18058, Control_c, 0, 64, 71
1, 18073, Control_c, 0, 64, 65
1, 18080, Note_off_c, 0, 68, 53
1, 18087, Control_c, 0, 64, 56
1, 18102, Control_c, 0, 64, 43
1, 18117, Control_c, 0, 64, 0
1, 18118, Note_off_c, 0, 51, 37
1, 18123, Note_on_c, 0, 64, 67
1, 18163, Note_on_c, 0, 48, 51
1, 18302, Control_c, 0, 64, 39
1, 18317, Control_c, 0, 64, 57
1, 18332, Control_c, 0, 64, 64
1, 18346, Control_c, 0, 64, 67
1, 18361, Control_c, 0, 64, 70
1, 18378, Control_c, 0, 64, 73
1, 18384, Note_off_c, 0, 64, 62
1, 18392, Control_c, 0, 64, 77
1, 18407, Control_c, 0, 64, 79
1, 18422, Control_c, 0, 64, 81
1, 18437, Control_c, 0, 64, 82
1, 18451, Control_c, 0, 64, 84
1, 18466, Control_c, 0, 64, 86
1, 18481, Control_c, 0, 64, 89
1, 18496, Control_c, 0, 64, 91
1, 18511, Control_c, 0, 64, 92
1, 18525, Control_c, 0, 64, 91
1, 18540, Control_c, 0, 64, 89
1, 18555, Control_c, 0, 64, 78
1, 18570, Control_c, 0, 64, 64
1, 18583, Note_on_c, 0, 68, 53
1, 18585, Control_c, 0, 64, 50
1, 18598, Note_on_c, 0, 60, 54
1, 18600, Control_c, 0, 64, 54
1, 18614, Control_c, 0, 64, 59
1, 18629, Control_c, 0, 64, 62
1, 18644, Control_c, 0, 64, 64
1, 18659, Note_off_c, 0, 68, 59
1, 18659, Control_c, 0, 64, 67
1, 18674, Control_c, 0, 64, 71
1, 18689, Control_c, 0, 64, 73
1, 18704, Control_c, 0, 64, 74
1, 18733, Control_c, 0, 64, 75
1, 18811, Note_off_c, 0, 48, 33
1, 18910, Note_on_c, 0, 68, 55
1, 18910, Control_c, 0, 64, 74
1, 18925, Control_c, 0, 64, 74
1, 18948, Control_c, 0, 64, 73
1, 18962, Control_c, 0, 64, 71
1, 18964, Note_off_c, 0, 68, 57
1, 18977, Control_c, 0, 64, 69
1, 18992, Control_c, 0, 64, 66
1, 19007, Control_c, 0, 64, 62
1, 19012, Note_on_c, 0, 65, 52
1, 19022, Control_c, 0, 64, 58
1, 19036, Note_on_c, 0, 49, 34
1, 19036, Control_c, 0, 64, 50
1, 19051, Control_c, 0, 64, 33
1, 19066, Control_c, 0, 64, 0
1, 19200, Control_c, 0, 64, 37
1, 19215, Control_c, 0, 64, 58
1, 19230, Control_c, 0, 64, 64
1, 19244, Note_off_c, 0, 60, 55
1, 19245, Control_c, 0, 64, 68
1, 19260, Control_c, 0, 64, 71
1, 19274, Control_c, 0, 64, 76
1, 19285, Note_off_c, 0, 65, 39
1, 19289, Control_c, 0, 64, 81
1, 19304, Control_c, 0, 64, 84
1, 19319, Control_c, 0, 64, 87
1, 19334, Control_c, 0, 64, 88
1, 19348, Control_c, 0, 64, 89
1, 19363, Control_c, 0, 64, 90
1, 19378, Control_c, 0, 64, 90
1, 19422, Control_c, 0, 64, 91
1, 19467, Control_c, 0, 64, 90
1, 19482, Control_c, 0, 64, 88
1, 19483, Note_on_c, 0, 77, 55
1, 19497, Control_c, 0, 64, 77
1, 19512, Control_c, 0, 64, 59
1, 19527, Control_c, 0, 64, 36
1, 19531, Note_on_c, 0, 58, 44
1, 19541, Control_c, 0, 64, 33
1, 19556, Control_c, 0, 64, 39
1, 19571, Control_c, 0, 64, 48
1, 19585, Control_c, 0, 64, 57
1, 19600, Note_off_c, 0, 77, 60
1, 19600, Control_c, 0, 64, 63
1, 19615, Control_c, 0, 64, 68
1, 19630, Control_c, 0, 64, 73
1, 19645, Control_c, 0, 64, 76
1, 19659, Control_c, 0, 64, 78
1, 19674, Control_c, 0, 64, 80
1, 19696, Control_c, 0, 64, 81
1, 19707, Note_off_c, 0, 49, 40
1, 19711, Control_c, 0, 64, 81
1, 19771, Control_c, 0, 67, 48
1, 19786, Control_c, 0, 67, 71
1, 19800, Control_c, 0, 67, 87
1, 19815, Control_c, 0, 67, 99
1, 19830, Control_c, 0, 67, 111
1, 19845, Control_c, 0, 67, 125
1, 19860, Control_c, 0, 67, 127
1, 19863, Note_on_c, 0, 77, 58
1, 19918, Control_c, 0, 64, 80
1, 19926, Note_off_c, 0, 77, 52
1, 19933, Control_c, 0, 64, 79
1, 19948, Control_c, 0, 64, 76
1, 19960, Note_on_c, 0, 67, 50
1, 19964, Control_c, 0, 64, 72
1, 19969, Note_on_c, 0, 51, 41
1, 19979, Control_c, 0, 64, 65
1, 19994, Control_c, 0, 64, 54
1, 20008, Control_c, 0, 64, 32
1, 20023, Control_c, 0, 64, 0
1, 20097, Control_c, 0, 64, 36
1, 20112, Control_c, 0, 64, 53
1, 20127, Control_c, 0, 64, 64
1, 20142, Control_c, 0, 64, 67
1, 20156, Note_off_c, 0, 58, 52
1, 20157, Control_c, 0, 64, 72
1, 20171, Control_c, 0, 64, 76
1, 20186, Control_c, 0, 64, 79
1, 20192, Note_off_c, 0, 67, 37
1, 20201, Control_c, 0, 64, 81
1, 20215, Control_c, 0, 64, 83
1, 20230, Control_c, 0, 64, 84
1, 20245, Control_c, 0, 64, 85
1, 20260, Control_c, 0, 64, 85
1, 20275, Control_c, 0, 64, 86
1, 20410, Note_on_c, 0, 70, 54
1, 20424, Control_c, 0, 64, 85
1, 20444, Note_on_c, 0, 61, 42
1, 20446, Control_c, 0, 64, 81
1, 20461, Control_c, 0, 64, 70
1, 20476, Control_c, 0, 64, 55
1, 20490, Control_c, 0, 64, 0
1, 20535, Control_c, 0, 64, 37
1, 20549, Control_c, 0, 64, 52
1, 20558, Note_off_c, 0, 70, 60
1, 20564, Control_c, 0, 64, 62
1, 20579, Control_c, 0, 64, 66
1, 20594, Control_c, 0, 64, 69
1, 20609, Control_c, 0, 64, 72
1, 20624, Control_c, 0, 64, 74
1, 20638, Control_c, 0, 64, 76
1, 20653, Control_c, 0, 64, 77
1, 20683, Control_c, 0, 64, 77
1, 20794, Note_on_c, 0, 70, 56
1, 20832, Control_c, 0, 64, 77
1, 20847, Control_c, 0, 64, 76
1, 20856, Note_off_c, 0, 70, 44
1, 20862, Control_c, 0, 64, 75
1, 20877, Control_c, 0, 64, 73
1, 20880, Note_on_c, 0, 68, 51
1, 20892, Note_on_c, 0, 60, 37
1, 20892, Control_c, 0, 64, 70
1, 20895, Note_on_c, 0, 56, 41
1, 20906, Control_c, 0, 64, 66
1, 20921, Control_c, 0, 64, 63
1, 20924, Note_off_c, 0, 51, 24
1, 20931, Note_off_c, 0, 61, 34
1, 20936, Control_c, 0, 64, 59
1, 20951, Control_c, 0, 64, 56
1, 20965, Control_c, 0, 64, 52
1, 20980, Control_c, 0, 64, 45
1, 20995, Control_c, 0, 64, 31
1, 21010, Control_c, 0, 64, 0
1, 21099, Note_off_c, 0, 60, 64
1, 21145, Note_off_c, 0, 56, 62
1, 21163, Note_off_c, 0, 68, 62
1, 21489, Note_on_c, 0, 44, 49
1, 21637, Note_off_c, 0, 44, 61
1, 21904, Note_on_c, 0, 44, 53
1, 21956, Note_off_c, 0, 44, 58
1, 22048, Note_on_c, 0, 32, 54
1, 22510, Note_off_c, 0, 32, 35
1, 23679, Control_c, 0, 67, 120
1, 23694, Control_c, 0, 67, 117
1, 23708, Control_c, 0, 67, 115
1, 23783, Note_on_c, 0, 72, 37
1, 23792, Note_on_c, 0, 68, 33
1, 23812, Control_c, 0, 67, 113
1, 23856, Control_c, 0, 67, 111
1, 23900, Control_c, 0, 67, 108
1, 23915, Control_c, 0, 67, 106
1, 23930, Control_c, 0, 67, 98
1, 23945, Control_c, 0, 67, 60
1, 23961, Control_c, 0, 67, 0
1, 24050, Control_c, 0, 64, 30
1, 24064, Control_c, 0, 64, 39
1, 24079, Control_c, 0, 64, 48
1, 24094, Control_c, 0, 64, 54
1, 24109, Control_c, 0, 64, 56
1, 24124, Control_c, 0, 64, 58
1, 24138, Control_c, 0, 64, 59
1, 24153, Control_c, 0, 64, 60
1, 24168, Control_c, 0, 64, 62
1, 24190, Control_c, 0, 64, 63
1, 24205, Control_c, 0, 64, 64
1, 24220, Control_c, 0, 64, 66
1, 24235, Note_on_c, 0, 75, 39
1, 24235, Control_c, 0, 64, 68
1, 24250, Control_c, 0, 64, 70
1, 24264, Control_c, 0, 64, 72
1, 24279, Control_c, 0, 64, 74
1, 24294, Control_c, 0, 64, 77
1, 24309, Control_c, 0, 64, 80
1, 24320, Note_off_c, 0, 72, 51
1, 24324, Control_c, 0, 64, 82
1, 24338, Control_c, 0, 64, 85
1, 24353, Control_c, 0, 64, 88
1, 24368, Control_c, 0, 64, 91
1, 24382, Control_c, 0, 64, 93
1, 24397, Control_c, 0, 64, 96
1, 24406, Note_off_c, 0, 75, 53
1, 24412, Control_c, 0, 64, 98
1, 24472, Note_off_c, 0, 68, 36
1, 24651, Note_on_c, 0, 70, 40
1, 24661, Note_on_c, 0, 66, 36
1, 24754, Control_c, 0, 64, 94
1, 24769, Control_c, 0, 64, 87
1, 24784, Control_c, 0, 64, 75
1, 24799, Control_c, 0, 64, 63
1, 24813, Control_c, 0, 64, 47
1, 24828, Control_c, 0, 64, 0
1, 24858, Control_c, 0, 64, 31
1, 24873, Control_c, 0, 64, 39
1, 24887, Control_c, 0, 64, 49
1, 24902, Control_c, 0, 64, 57
1, 24917, Control_c, 0, 64, 62
1, 24939, Control_c, 0, 64, 65
1, 24954, Control_c, 0, 64, 67
1, 24969, Control_c, 0, 64, 69
1, 24984, Control_c, 0, 64, 72
1, 24999, Control_c, 0, 64, 74
1, 25013, Control_c, 0, 64, 76
1, 25028, Control_c, 0, 64, 78
1, 25043, Control_c, 0, 64, 79
1, 25058, Note_on_c, 0, 87, 74
1, 25058, Control_c, 0, 64, 81
1, 25073, Control_c, 0, 64, 82
1, 25087, Control_c, 0, 64, 83
1, 25095, Note_on_c, 0, 75, 43
1, 25102, Control_c, 0, 64, 84
1, 25117, Control_c, 0, 64, 86
1, 25124, Note_off_c, 0, 87, 64
1, 25131, Control_c, 0, 64, 87
1, 25141, Note_off_c, 0, 70, 51
1, 25146, Control_c, 0, 64, 87
1, 25176, Control_c, 0, 64, 88
1, 25186, Note_off_c, 0, 75, 53
1, 25199, Note_off_c, 0, 66, 42
1, 25310, Control_c, 0, 64, 88
1, 25370, Note_on_c, 0, 87, 71
1, 25407, Note_off_c, 0, 87, 59
1, 25458, Control_c, 0, 64, 88
1, 25475, Note_on_c, 0, 87, 70
1, 25494, Note_on_c, 0, 65, 40
1, 25503, Note_on_c, 0, 69, 26
1, 25531, Control_c, 0, 64, 87
1, 25546, Control_c, 0, 64, 86
1, 25562, Control_c, 0, 64, 83
1, 25577, Control_c, 0, 64, 80
1, 25591, Control_c, 0, 64, 76
1, 25606, Control_c, 0, 64, 70
1, 25620, Control_c, 0, 64, 61
1, 25635, Control_c, 0, 64, 44
1, 25650, Control_c, 0, 64, 0
1, 25732, Control_c, 0, 64, 29
1, 25747, Control_c, 0, 64, 46
1, 25761, Control_c, 0, 64, 58
1, 25776, Control_c, 0, 64, 63
1, 25791, Control_c, 0, 64, 65
1, 25806, Control_c, 0, 64, 66
1, 25821, Control_c, 0, 64, 69
1, 25835, Control_c, 0, 64, 72
1, 25850, Control_c, 0, 64, 75
1, 25865, Control_c, 0, 64, 77
1, 25880, Control_c, 0, 64, 78
1, 25895, Control_c, 0, 64, 80
1, 25897, Note_on_c, 0, 85, 65
1, 25909, Control_c, 0, 64, 81
1, 25912, Note_on_c, 0, 75, 37
1, 25915, Note_off_c, 0, 69, 42
1, 25924, Control_c, 0, 64, 82
1, 25926, Note_off_c, 0, 87, 57
1, 25939, Control_c, 0, 64, 82
1, 25953, Control_c, 0, 64, 83
1, 25955, Note_on_c, 0, 72, 6
1, 25980, Note_off_c, 0, 85, 64
1, 25992, Note_on_c, 0, 84, 66
1, 26013, Note_off_c, 0, 72, 46
1, 26019, Note_off_c, 0, 75, 56
1, 26030, Note_off_c, 0, 84, 59
1, 26084, Note_on_c, 0, 82, 68
1, 26138, Note_off_c, 0, 82, 64
1, 26152, Note_on_c, 0, 81, 73
1, 26176, Control_c, 0, 64, 82
1, 26191, Control_c, 0, 64, 81
1, 26206, Control_c, 0, 64, 76
1, 26221, Control_c, 0, 64, 67
1, 26235, Control_c, 0, 64, 55
1, 26242, Note_off_c, 0, 81, 60
1, 26244, Note_on_c, 0, 82, 67
1, 26250, Control_c, 0, 64, 37
1, 26265, Control_c, 0, 64, 34
1, 26279, Control_c, 0, 64, 39
1, 26286, Note_on_c, 0, 73, 34
1, 26294, Control_c, 0, 64, 48
1, 26294, Control_c, 0, 67, 50
1, 26299, Note_on_c, 0, 70, 35
1, 26309, Control_c, 0, 64, 57
1, 26309, Control_c, 0, 67, 79
1, 26324, Control_c, 0, 64, 63
1, 26324, Control_c, 0, 67, 111
1, 26339, Control_c, 0, 64, 66
1, 26339, Control_c, 0, 67, 127
1, 26350, Note_off_c, 0, 82, 62
1, 26355, Control_c, 0, 64, 69
1, 26369, Control_c, 0, 64, 71
1, 26376, Note_on_c, 0, 84, 70
1, 26382, Note_off_c, 0, 65, 58
1, 26384, Control_c, 0, 64, 73
1, 26399, Control_c, 0, 64, 74
1, 26414, Control_c, 0, 64, 74
1, 26419, Note_off_c, 0, 84, 59
1, 26455, Note_on_c, 0, 82, 54
1, 26462, Note_off_c, 0, 70, 53
1, 26475, Note_off_c, 0, 82, 59
1, 26481, Note_on_c, 0, 81, 68
1, 26522, Note_off_c, 0, 81, 63
1, 26532, Note_on_c, 0, 82, 80
1, 26536, Note_off_c, 0, 73, 32
1, 26555, Control_c, 0, 64, 73
1, 26570, Control_c, 0, 64, 71
1, 26584, Control_c, 0, 64, 68
1, 26591, Note_off_c, 0, 82, 63
1, 26596, Note_on_c, 0, 84, 78
1, 26599, Control_c, 0, 64, 63
1, 26614, Control_c, 0, 64, 55
1, 26629, Control_c, 0, 64, 40
1, 26644, Control_c, 0, 64, 0
1, 26645, Note_on_c, 0, 85, 75
1, 26647, Note_off_c, 0, 84, 65
1, 26653, Note_on_c, 0, 68, 41
1, 26658, Note_on_c, 0, 64, 42
1, 26683, Note_off_c, 0, 85, 61
1, 26747, Control_c, 0, 64, 32
1, 26762, Control_c, 0, 64, 45
1, 26776, Control_c, 0, 64, 57
1, 26791, Control_c, 0, 64, 61
1, 26806, Control_c, 0, 64, 62
1, 26821, Control_c, 0, 64, 64
1, 26836, Control_c, 0, 64, 65
1, 26851, Control_c, 0, 64, 68
1, 26866, Control_c, 0, 64, 72
1, 26877, Note_off_c, 0, 68, 56
1, 26880, Control_c, 0, 64, 74
1, 26895, Control_c, 0, 64, 75
1, 26907, Note_off_c, 0, 64, 62
1, 26910, Control_c, 0, 64, 76
1, 26925, Control_c, 0, 64, 77
1, 26940, Control_c, 0, 64, 78
1, 26955, Control_c, 0, 64, 78
1, 26982, Note_on_c, 0, 85, 73
1, 27018, Note_off_c, 0, 85, 62
1, 27074, Note_on_c, 0, 85, 62
1, 27103, Control_c, 0, 64, 78
1, 27112, Note_on_c, 0, 67, 38
1, 27118, Control_c, 0, 64, 77
1, 27133, Control_c, 0, 64, 75
1, 27137, Note_on_c, 0, 63, 39
1, 27149, Control_c, 0, 64, 74
1, 27164, Control_c, 0, 64, 71
1, 27186, Control_c, 0, 64, 67
1, 27201, Control_c, 0, 64, 63
1, 27215, Control_c, 0, 64, 59
1, 27230, Control_c, 0, 64, 54
1, 27245, Control_c, 0, 64, 48
1, 27260, Control_c, 0, 64, 36
1, 27274, Control_c, 0, 64, 0
1, 27482, Control_c, 0, 64, 38
1, 27497, Control_c, 0, 64, 49
1, 27500, Note_on_c, 0, 84, 55
1, 27512, Control_c, 0, 64, 58
1, 27526, Control_c, 0, 64, 61
1, 27532, Note_off_c, 0, 85, 57
1, 27533, Note_on_c, 0, 73, 33
1, 27536, Note_on_c, 0, 70, 32
1, 27541, Control_c, 0, 64, 63
1, 27556, Control_c, 0, 64, 65
1, 27571, Control_c, 0, 64, 67
1, 27586, Control_c, 0, 64, 70
1, 27595, Note_off_c, 0, 84, 63
1, 27596, Note_on_c, 0, 82, 66
1, 27600, Control_c, 0, 64, 73
1, 27615, Control_c, 0, 64, 75
1, 27630, Control_c, 0, 64, 78
1, 27641, Note_off_c, 0, 67, 44
1, 27645, Control_c, 0, 64, 79
1, 27660, Control_c, 0, 64, 81
1, 27664, Note_off_c, 0, 73, 36
1, 27674, Control_c, 0, 64, 82
1, 27675, Note_off_c, 0, 82, 61
1, 27679, Note_off_c, 0, 70, 56
1, 27687, Note_on_c, 0, 80, 66
1, 27689, Control_c, 0, 64, 82
1, 27719, Control_c, 0, 64, 83
1, 27748, Note_off_c, 0, 80, 64
1, 27755, Note_on_c, 0, 79, 66
1, 27853, Note_off_c, 0, 79, 56
1, 27867, Note_on_c, 0, 80, 67
1, 27867, Control_c, 0, 64, 82
1, 27882, Control_c, 0, 64, 82
1, 27897, Control_c, 0, 64, 80
1, 27908, Note_on_c, 0, 72, 41
1, 27911, Note_on_c, 0, 68, 39
1, 27912, Control_c, 0, 64, 74
1, 27933, Control_c, 0, 64, 66
1, 27946, Note_off_c, 0, 80, 63
1, 27948, Control_c, 0, 64, 55
1, 27964, Control_c, 0, 64, 36
1, 27979, Control_c, 0, 64, 0
1, 27983, Note_on_c, 0, 82, 64
1, 28023, Note_off_c, 0, 82, 64
1, 28058, Note_on_c, 0, 80, 56
1, 28079, Note_off_c, 0, 80, 65
1, 28091, Note_on_c, 0, 79, 61
1, 28123, Note_off_c, 0, 79, 61
1, 28140, Note_on_c, 0, 80, 76
1, 28192, Note_off_c, 0, 80, 65
1, 28199, Note_on_c, 0, 82, 73
1, 28235, Note_off_c, 0, 82, 64
1, 28246, Note_on_c, 0, 84, 74
1, 28271, Note_off_c, 0, 84, 65
1, 28349, Control_c, 0, 64, 37
1, 28364, Control_c, 0, 64, 51
1, 28379, Control_c, 0, 64, 59
1, 28394, Control_c, 0, 64, 63
1, 28409, Control_c, 0, 64, 65
1, 28423, Control_c, 0, 64, 68
1, 28438, Control_c, 0, 64, 71
1, 28453, Control_c, 0, 64, 73
1, 28468, Control_c, 0, 64, 75
1, 28482, Control_c, 0, 64, 76
1, 28497, Control_c, 0, 64, 76
1, 28515, Note_off_c, 0, 63, 38
1, 28603, Note_on_c, 0, 84, 65
1, 28645, Control_c, 0, 64, 75
1, 28660, Control_c, 0, 64, 70
1, 28682, Control_c, 0, 64, 62
1, 28689, Note_on_c, 0, 82, 62
1, 28697, Control_c, 0, 64, 43
1, 28700, Note_off_c, 0, 84, 59
1, 28712, Control_c, 0, 64, 0
1, 28730, Note_off_c, 0, 68, 53
1, 28738, Note_on_c, 0, 64, 36
1, 28739, Note_off_c, 0, 82, 61
1, 28802, Control_c, 0, 64, 46
1, 28817, Control_c, 0, 64, 60
1, 28832, Control_c, 0, 64, 63
1, 28847, Control_c, 0, 64, 64
1, 28861, Control_c, 0, 64, 65
1, 28876, Control_c, 0, 64, 67
1, 28891, Control_c, 0, 64, 69
1, 28905, Control_c, 0, 64, 69
1, 28994, Control_c, 0, 64, 69
1, 29009, Control_c, 0, 64, 65
1, 29022, Note_on_c, 0, 82, 58
1, 29024, Control_c, 0, 64, 57
1, 29039, Control_c, 0, 64, 37
1, 29054, Control_c, 0, 64, 0
1, 29074, Note_off_c, 0, 64, 54
1, 29086, Note_on_c, 0, 80, 64
1, 29099, Note_off_c, 0, 82, 58
1, 29128, Note_on_c, 0, 65, 40
1, 29128, Note_off_c, 0, 80, 61
1, 29158, Control_c, 0, 64, 39
1, 29172, Control_c, 0, 64, 57
1, 29187, Control_c, 0, 64, 64
1, 29202, Control_c, 0, 64, 67
1, 29217, Control_c, 0, 64, 70
1, 29232, Control_c, 0, 64, 74
1, 29246, Control_c, 0, 64, 78
1, 29253, Note_off_c, 0, 72, 37
1, 29261, Control_c, 0, 64, 80
1, 29276, Control_c, 0, 64, 82
1, 29290, Control_c, 0, 64, 83
1, 29305, Control_c, 0, 64, 84
1, 29310, Note_off_c, 0, 65, 59
1, 29320, Control_c, 0, 64, 84
1, 29434, Note_on_c, 0, 80, 60
1, 29445, Control_c, 0, 64, 84
1, 29471, Note_off_c, 0, 80, 63
1, 29474, Control_c, 0, 64, 81
1, 29489, Control_c, 0, 64, 74
1, 29504, Control_c, 0, 64, 64
1, 29507, Note_on_c, 0, 79, 60
1, 29517, Note_on_c, 0, 70, 39
1, 29519, Control_c, 0, 64, 38
1, 29530, Note_on_c, 0, 58, 34
1, 29533, Control_c, 0, 64, 0
1, 29557, Note_off_c, 0, 79, 60
1, 29594, Control_c, 0, 64, 42
1, 29608, Control_c, 0, 64, 58
1, 29623, Control_c, 0, 64, 65
1, 29638, Control_c, 0, 64, 68
1, 29653, Control_c, 0, 64, 72
1, 29668, Control_c, 0, 64, 76
1, 29683, Control_c, 0, 64, 78
1, 29691, Note_off_c, 0, 70, 48
1, 29697, Control_c, 0, 64, 80
1, 29712, Control_c, 0, 64, 81
1, 29742, Control_c, 0, 64, 81
1, 29861, Note_on_c, 0, 79, 54
1, 29861, Control_c, 0, 64, 81
1, 29890, Control_c, 0, 64, 79
1, 29905, Control_c, 0, 64, 77
1, 29919, Control_c, 0, 64, 72
1, 29926, Note_off_c, 0, 58, 40
1, 29934, Note_on_c, 0, 77, 62
1, 29934, Control_c, 0, 64, 63
1, 29939, Note_off_c, 0, 79, 54
1, 29949, Control_c, 0, 64, 47
1, 29956, Note_on_c, 0, 59, 47
1, 29964, Control_c, 0, 64, 0
1, 29975, Note_on_c, 0, 68, 39
1, 30032, Note_off_c, 0, 77, 62
1, 30053, Control_c, 0, 64, 33
1, 30067, Control_c, 0, 64, 52
1, 30083, Control_c, 0, 64, 61
1, 30098, Control_c, 0, 64, 64
1, 30113, Control_c, 0, 64, 66
1, 30127, Control_c, 0, 64, 69
1, 30142, Control_c, 0, 64, 72
1, 30157, Control_c, 0, 64, 74
1, 30180, Control_c, 0, 64, 75
1, 30195, Control_c, 0, 64, 75
1, 30209, Control_c, 0, 64, 76
1, 30220, Note_off_c, 0, 59, 56
1, 30224, Control_c, 0, 64, 76
1, 30243, Note_on_c, 0, 77, 66
1, 30273, Note_off_c, 0, 77, 61
1, 30442, Note_on_c, 0, 76, 60
1, 30467, Note_on_c, 0, 60, 41
1, 30492, Control_c, 0, 64, 75
1, 30502, Note_off_c, 0, 76, 53
1, 30506, Control_c, 0, 64, 74
1, 30511, Note_on_c, 0, 77, 67
1, 30521, Control_c, 0, 64, 71
1, 30536, Control_c, 0, 64, 67
1, 30539, Note_off_c, 0, 68, 54
1, 30539, Note_off_c, 0, 77, 63
1, 30550, Control_c, 0, 64, 62
1, 30565, Control_c, 0, 64, 57
1, 30580, Control_c, 0, 64, 51
1, 30585, Note_on_c, 0, 79, 60
1, 30595, Control_c, 0, 64, 42
1, 30610, Control_c, 0, 64, 0
1, 30646, Note_on_c, 0, 77, 67
1, 30653, Note_off_c, 0, 79, 55
1, 30905, Note_on_c, 0, 71, 52
1, 30925, Note_on_c, 0, 68, 44
1, 30973, Control_c, 0, 64, 43
1, 30988, Control_c, 0, 64, 57
1, 31003, Control_c, 0, 64, 63
1, 31018, Control_c, 0, 64, 66
1, 31027, Note_off_c, 0, 71, 53
1, 31032, Control_c, 0, 64, 69
1, 31047, Control_c, 0, 64, 73
1, 31051, Note_off_c, 0, 68, 49
1, 31062, Control_c, 0, 64, 76
1, 31076, Control_c, 0, 64, 78
1, 31091, Control_c, 0, 64, 80
1, 31095, Note_off_c, 0, 77, 57
1, 31106, Control_c, 0, 64, 81
1, 31121, Control_c, 0, 64, 81
1, 31136, Note_off_c, 0, 60, 42
1, 31136, Control_c, 0, 64, 82
1, 31299, Control_c, 0, 64, 81
1, 31329, Control_c, 0, 64, 80
1, 31329, Control_c, 0, 67, 119
1, 31344, Control_c, 0, 64, 80
1, 31344, Control_c, 0, 67, 108
1, 31359, Control_c, 0, 64, 78
1, 31359, Control_c, 0, 67, 97
1, 31368, Note_on_c, 0, 76, 46
1, 31370, Note_on_c, 0, 72, 39
1, 31373, Control_c, 0, 64, 77
1, 31373, Control_c, 0, 67, 86
1, 31383, Note_on_c, 0, 67, 32
1, 31388, Control_c, 0, 64, 76
1, 31388, Control_c, 0, 67, 73
1, 31403, Control_c, 0, 64, 75
1, 31403, Control_c, 0, 67, 60
1, 31418, Control_c, 0, 64, 73
1, 31418, Control_c, 0, 67, 47
1, 31433, Control_c, 0, 64, 72
1, 31433, Control_c, 0, 67, 0
1, 31447, Control_c, 0, 64, 69
1, 31462, Control_c, 0, 64, 67
1, 31477, Control_c, 0, 64, 64
1, 31492, Control_c, 0, 64, 62
1, 31507, Control_c, 0, 64, 61
1, 31522, Control_c, 0, 64, 58
1, 31537, Control_c, 0, 64, 55
1, 31552, Control_c, 0, 64, 51
1, 31566, Control_c, 0, 64, 46
1, 31572, Note_on_c, 0, 61, 45
1, 31581, Control_c, 0, 64, 37
1, 31583, Note_on_c, 0, 58, 45
1, 31596, Control_c, 0, 64, 0
1, 31695, Note_off_c, 0, 61, 61
1, 31707, Note_off_c, 0, 58, 57
1, 31717, Note_off_c, 0, 76, 57
1, 31720, Note_off_c, 0, 72, 58
1, 31730, Note_off_c, 0, 67, 49
1, 31790, Note_on_c, 0, 60, 55
1, 31799, Note_on_c, 0, 56, 56
1, 31895, Note_off_c, 0, 56, 61
1, 31912, Note_off_c, 0, 60, 53
1, 31994, Note_on_c, 0, 58, 61
1, 31996, Note_on_c, 0, 55, 61
1, 32126, Note_off_c, 0, 58, 57
1, 32138, Note_off_c, 0, 55, 58
1, 32270, Note_on_c, 0, 56, 53
1, 32273, Note_on_c, 0, 53, 49
1, 32734, Note_on_c, 0, 41, 66
1, 32738, Note_on_c, 0, 60, 45
1, 32782, Control_c, 0, 64, 34
1, 32797, Control_c, 0, 64, 52
1, 32812, Control_c, 0, 64, 62
1, 32826, Control_c, 0, 64, 66
1, 32841, Control_c, 0, 64, 69
1, 32849, Note_off_c, 0, 41, 61
1, 32856, Control_c, 0, 64, 73
1, 32870, Control_c, 0, 64, 77
1, 32881, Note_off_c, 0, 53, 56
1, 32885, Control_c, 0, 64, 83
1, 32900, Control_c, 0, 64, 87
1, 32913, Note_off_c, 0, 56, 59
1, 32915, Control_c, 0, 64, 91
1, 32930, Control_c, 0, 64, 95
1, 32944, Control_c, 0, 64, 99
1, 32959, Control_c, 0, 64, 103
1, 32974, Control_c, 0, 64, 106
1, 33004, Control_c, 0, 64, 108
1, 33094, Note_on_c, 0, 41, 68
1, 33139, Note_off_c, 0, 60, 30
1, 33152, Control_c, 0, 64, 102
1, 33169, Note_off_c, 0, 41, 62
1, 33175, Control_c, 0, 64, 91
1, 33190, Control_c, 0, 64, 75
1, 33199, Note_on_c, 0, 48, 83
1, 33205, Control_c, 0, 64, 55
1, 33213, Note_on_c, 0, 55, 42
1, 33216, Note_on_c, 0, 52, 46
1, 33219, Control_c, 0, 64, 0
1, 33352, Control_c, 0, 64, 53
1, 33367, Note_off_c, 0, 48, 64
1, 33367, Control_c, 0, 64, 67
1, 33382, Control_c, 0, 64, 75
1, 33397, Control_c, 0, 64, 88
1, 33412, Control_c, 0, 64, 98
1, 33427, Control_c, 0, 64, 110
1, 33441, Control_c, 0, 64, 127
1, 33662, Note_on_c, 0, 70, 66
1, 33671, Note_on_c, 0, 67, 60
1, 33672, Note_on_c, 0, 60, 47
1, 33694, Control_c, 0, 64, 104
1, 33709, Control_c, 0, 64, 78
1, 33724, Control_c, 0, 64, 60
1, 33739, Control_c, 0, 64, 0
1, 33798, Control_c, 0, 64, 45
1, 33813, Control_c, 0, 64, 61
1, 33814, Note_off_c, 0, 70, 59
1, 33818, Note_off_c, 0, 67, 60
1, 33828, Control_c, 0, 64, 67
1, 33842, Control_c, 0, 64, 73
1, 33848, Note_off_c, 0, 55, 54
1, 33857, Control_c, 0, 64, 82
1, 33872, Control_c, 0, 64, 91
1, 33886, Control_c, 0, 64, 98
1, 33901, Control_c, 0, 64, 105
1, 33924, Control_c, 0, 64, 116
1, 33939, Control_c, 0, 64, 127
1, 34026, Note_on_c, 0, 70, 59
1, 34042, Note_on_c, 0, 67, 35
1, 34060, Note_off_c, 0, 70, 64
1, 34073, Note_off_c, 0, 67, 55
1, 34094, Note_off_c, 0, 60, 56
1, 34109, Note_off_c, 0, 52, 53
1, 34109, Note_on_c, 0, 65, 57
1, 34109, Note_on_c, 0, 68, 62
1, 34125, Note_on_c, 0, 56, 52
1, 34131, Control_c, 0, 64, 89
1, 34133, Note_on_c, 0, 53, 46
1, 34146, Control_c, 0, 64, 66
1, 34161, Control_c, 0, 64, 37
1, 34175, Control_c, 0, 64, 0
1, 34235, Control_c, 0, 64, 31
1, 34249, Control_c, 0, 64, 52
1, 34264, Control_c, 0, 64, 65
1, 34273, Note_off_c, 0, 65, 60
1, 34278, Note_off_c, 0, 68, 60
1, 34279, Control_c, 0, 64, 73
1, 34294, Control_c, 0, 64, 84
1, 34309, Control_c, 0, 64, 97
1, 34324, Control_c, 0, 64, 127
1, 34590, Note_on_c, 0, 41, 76
1, 34591, Control_c, 0, 64, 108
1, 34597, Note_on_c, 0, 60, 49
1, 34606, Control_c, 0, 64, 76
1, 34621, Control_c, 0, 64, 49
1, 34635, Control_c, 0, 64, 0
1, 34687, Control_c, 0, 64, 31
1, 34702, Control_c, 0, 64, 52
1, 34717, Control_c, 0, 64, 64
1, 34732, Control_c, 0, 64, 74
1, 34738, Note_off_c, 0, 56, 54
1, 34747, Control_c, 0, 64, 86
1, 34747, Note_off_c, 0, 41, 62
1, 34762, Control_c, 0, 64, 106
1, 34777, Control_c, 0, 64, 127
1, 34869, Note_off_c, 0, 53, 50
1, 34950, Note_on_c, 0, 41, 76
1, 34980, Note_off_c, 0, 60, 31
1, 35009, Note_off_c, 0, 41, 63
1, 35038, Note_on_c, 0, 48, 89
1, 35050, Note_on_c, 0, 52, 54
1, 35051, Note_on_c, 0, 55, 53
1, 35072, Control_c, 0, 64, 91
1, 35087, Control_c, 0, 64, 66
1, 35102, Control_c, 0, 64, 32
1, 35117, Control_c, 0, 64, 0
1, 35192, Control_c, 0, 64, 51
1, 35207, Control_c, 0, 64, 69
1, 35221, Control_c, 0, 64, 85
1, 35230, Note_off_c, 0, 48, 63
1, 35236, Control_c, 0, 64, 127
1, 35534, Note_on_c, 0, 70, 67
1, 35540, Control_c, 0, 64, 87
1, 35540, Note_on_c, 0, 60, 49
1, 35540, Note_on_c, 0, 67, 64
1, 35555, Control_c, 0, 64, 64
1, 35570, Control_c, 0, 64, 34
1, 35585, Control_c, 0, 64, 0
1, 35644, Control_c, 0, 64, 38
1, 35659, Control_c, 0, 64, 55
1, 35670, Note_off_c, 0, 70, 59
1, 35671, Note_off_c, 0, 67, 59
1, 35673, Control_c, 0, 64, 65
1, 35688, Control_c, 0, 64, 74
1, 35703, Control_c, 0, 64, 84
1, 35718, Control_c, 0, 64, 93
1, 35729, Note_off_c, 0, 55, 57
1, 35733, Control_c, 0, 64, 101
1, 35747, Control_c, 0, 64, 116
1, 35754, Note_off_c, 0, 60, 54
1, 35762, Control_c, 0, 64, 127
1, 35765, Note_off_c, 0, 52, 54
1, 35899, Note_on_c, 0, 70, 57
1, 35913, Note_on_c, 0, 67, 38
1, 35932, Note_off_c, 0, 70, 64
1, 35951, Note_off_c, 0, 67, 54
1, 35970, Control_c, 0, 64, 99
1, 35985, Control_c, 0, 64, 81
1, 35986, Note_on_c, 0, 65, 57
1, 35987, Note_on_c, 0, 68, 62
1, 36000, Note_on_c, 0, 53, 42
1, 36000, Control_c, 0, 64, 65
1, 36005, Note_on_c, 0, 56, 43
1, 36015, Control_c, 0, 64, 44
1, 36030, Control_c, 0, 64, 0
1, 36133, Control_c, 0, 64, 49
1, 36148, Control_c, 0, 64, 64
1, 36169, Control_c, 0, 64, 72
1, 36184, Control_c, 0, 64, 82
1, 36199, Control_c, 0, 64, 93
1, 36203, Note_off_c, 0, 65, 56
1, 36208, Note_off_c, 0, 68, 62
1, 36214, Control_c, 0, 64, 105
1, 36224, Note_off_c, 0, 53, 52
1, 36229, Control_c, 0, 64, 127
1, 36230, Note_off_c, 0, 56, 59
1, 36377, Control_c, 0, 64, 92
1, 36392, Control_c, 0, 64, 73
1, 36407, Control_c, 0, 64, 59
1, 36422, Control_c, 0, 64, 43
1, 36436, Control_c, 0, 64, 0
1, 36473, Note_on_c, 0, 77, 75
1, 36505, Note_on_c, 0, 60, 41
1, 36509, Note_on_c, 0, 56, 41
1, 36569, Control_c, 0, 64, 38
1, 36584, Control_c, 0, 64, 57
1, 36599, Control_c, 0, 64, 67
1, 36613, Control_c, 0, 64, 73
1, 36625, Note_off_c, 0, 56, 62
1, 36628, Control_c, 0, 64, 78
1, 36629, Note_off_c, 0, 77, 61
1, 36643, Control_c, 0, 64, 82
1, 36658, Control_c, 0, 64, 87
1, 36673, Control_c, 0, 64, 92
1, 36679, Note_off_c, 0, 60, 59
1, 36688, Control_c, 0, 64, 94
1, 36703, Control_c, 0, 64, 95
1, 36778, Control_c, 0, 64, 94
1, 36792, Control_c, 0, 64, 92
1, 36807, Control_c, 0, 64, 86
1, 36823, Note_on_c, 0, 77, 75
1, 36823, Control_c, 0, 64, 78
1, 36838, Control_c, 0, 64, 70
1, 36852, Note_off_c, 0, 77, 64
1, 36853, Control_c, 0, 64, 62
1, 36867, Control_c, 0, 64, 51
1, 36882, Control_c, 0, 64, 39
1, 36897, Control_c, 0, 64, 0
1, 36920, Note_on_c, 0, 78, 79
1, 36941, Note_on_c, 0, 58, 45
1, 36952, Note_on_c, 0, 61, 44
1, 37052, Control_c, 0, 64, 36
1, 37067, Control_c, 0, 64, 54
1, 37082, Control_c, 0, 64, 63
1, 37097, Control_c, 0, 64, 67
1, 37111, Control_c, 0, 64, 71
1, 37126, Control_c, 0, 64, 73
1, 37141, Control_c, 0, 64, 75
1, 37146, Note_off_c, 0, 61, 58
1, 37156, Control_c, 0, 64, 77
1, 37171, Control_c, 0, 64, 78
1, 37188, Note_off_c, 0, 58, 36
1, 37215, Note_off_c, 0, 78, 59
1, 37245, Control_c, 0, 64, 77
1, 37260, Control_c, 0, 64, 74
1, 37275, Control_c, 0, 64, 68
1, 37290, Control_c, 0, 64, 62
1, 37305, Control_c, 0, 64, 57
1, 37319, Control_c, 0, 64, 48
1, 37334, Control_c, 0, 64, 0
1, 37395, Note_on_c, 0, 81, 76
1, 37416, Note_on_c, 0, 60, 39
1, 37420, Note_on_c, 0, 63, 41
1, 37482, Control_c, 0, 64, 29
1, 37497, Control_c, 0, 64, 51
1, 37511, Control_c, 0, 64, 59
1, 37527, Control_c, 0, 64, 62
1, 37542, Control_c, 0, 64, 66
1, 37557, Control_c, 0, 64, 70
1, 37570, Note_off_c, 0, 81, 59
1, 37572, Control_c, 0, 64, 73
1, 37587, Control_c, 0, 64, 75
1, 37601, Control_c, 0, 64, 76
1, 37614, Note_off_c, 0, 63, 61
1, 37616, Control_c, 0, 64, 77
1, 37691, Note_off_c, 0, 60, 36
1, 37728, Control_c, 0, 64, 77
1, 37742, Control_c, 0, 64, 74
1, 37757, Control_c, 0, 64, 68
1, 37772, Control_c, 0, 64, 60
1, 37776, Note_on_c, 0, 81, 68
1, 37787, Control_c, 0, 64, 44
1, 37802, Control_c, 0, 64, 0
1, 37803, Note_off_c, 0, 81, 66
1, 37868, Note_on_c, 0, 82, 68
1, 37884, Note_on_c, 0, 65, 47
1, 37892, Note_on_c, 0, 61, 42
1, 37920, Control_c, 0, 64, 35
1, 37934, Control_c, 0, 64, 57
1, 37949, Control_c, 0, 64, 64
1, 37953, Note_off_c, 0, 61, 62
1, 37964, Control_c, 0, 64, 66
1, 37966, Note_off_c, 0, 65, 60
1, 37979, Control_c, 0, 64, 69
1, 37994, Control_c, 0, 64, 74
1, 38008, Control_c, 0, 64, 78
1, 38023, Control_c, 0, 64, 80
1, 38038, Control_c, 0, 64, 82
1, 38053, Control_c, 0, 64, 83
1, 38068, Control_c, 0, 64, 84
1, 38090, Note_off_c, 0, 82, 58
1, 38112, Control_c, 0, 64, 83
1, 38142, Control_c, 0, 64, 82
1, 38157, Control_c, 0, 64, 79
1, 38172, Control_c, 0, 64, 73
1, 38187, Control_c, 0, 64, 66
1, 38202, Control_c, 0, 64, 58
1, 38216, Control_c, 0, 64, 49
1, 38231, Control_c, 0, 64, 34
1, 38246, Control_c, 0, 64, 0
1, 38338, Note_on_c, 0, 81, 67
1, 38353, Note_on_c, 0, 78, 38
1, 38367, Note_on_c, 0, 75, 39
1, 38391, Note_off_c, 0, 81, 58
1, 38431, Note_off_c, 0, 75, 59
1, 38435, Note_off_c, 0, 78, 55
1, 38694, Note_on_c, 0, 81, 57
1, 38733, Note_off_c, 0, 81, 59
1, 38784, Note_on_c, 0, 82, 76
1, 38787, Note_on_c, 0, 77, 47
1, 38797, Note_on_c, 0, 73, 45
1, 38845, Note_off_c, 0, 82, 64
1, 38879, Note_off_c, 0, 73, 58
1, 38884, Note_off_c, 0, 77, 54
1, 39136, Note_on_c, 0, 82, 59
1, 39195, Note_off_c, 0, 82, 56
1, 39233, Note_on_c, 0, 84, 75
1, 39248, Note_on_c, 0, 75, 44
1, 39253, Note_on_c, 0, 72, 41
1, 39305, Note_off_c, 0, 84, 61
1, 39353, Note_off_c, 0, 75, 56
1, 39359, Control_c, 0, 67, 44
1, 39359, Note_off_c, 0, 72, 56
1, 39373, Control_c, 0, 67, 61
1, 39388, Control_c, 0, 67, 77
1, 39403, Control_c, 0, 67, 92
1, 39418, Control_c, 0, 67, 101
1, 39432, Control_c, 0, 67, 106
1, 39447, Control_c, 0, 67, 110
1, 39477, Control_c, 0, 67, 113
1, 39610, Control_c, 0, 67, 111
1, 39653, Note_on_c, 0, 84, 59
1, 39691, Note_off_c, 0, 84, 57
1, 39768, Note_on_c, 0, 85, 57
1, 39774, Note_on_c, 0, 70, 34
1, 39782, Note_on_c, 0, 73, 29
1, 39818, Control_c, 0, 67, 109
1, 39982, Note_off_c, 0, 85, 59
1, 40032, Note_off_c, 0, 70, 49
1, 40043, Note_off_c, 0, 73, 37
1, 40049, Control_c, 0, 67, 107
1, 40315, Control_c, 0, 67, 110
1, 40345, Control_c, 0, 67, 113
1, 40360, Control_c, 0, 67, 115
1, 40375, Control_c, 0, 67, 118
1, 40390, Control_c, 0, 67, 120
1, 40404, Control_c, 0, 64, 29
1, 40404, Control_c, 0, 67, 123
1, 40419, Control_c, 0, 64, 36
1, 40419, Control_c, 0, 67, 127
1, 40434, Control_c, 0, 64, 44
1, 40449, Control_c, 0, 64, 54
1, 40463, Control_c, 0, 64, 57
1, 40478, Control_c, 0, 64, 59
1, 40493, Control_c, 0, 64, 60
1, 40508, Control_c, 0, 64, 61
1, 40523, Control_c, 0, 64, 63
1, 40537, Control_c, 0, 64, 64
1, 40552, Control_c, 0, 64, 65
1, 40566, Control_c, 0, 64, 67
1, 40581, Control_c, 0, 64, 69
1, 40596, Control_c, 0, 64, 71
1, 40610, Control_c, 0, 64, 73
1, 40625, Control_c, 0, 64, 75
1, 40640, Control_c, 0, 64, 77
1, 40662, Control_c, 0, 64, 77
1, 40677, Control_c, 0, 64, 78
1, 41038, Note_on_c, 0, 76, 41
1, 41049, Control_c, 0, 64, 78
1, 41058, Note_on_c, 0, 67, 35
1, 41061, Note_on_c, 0, 60, 33
1, 41064, Note_on_c, 0, 70, 35
1, 41123, Control_c, 0, 64, 77
1, 41152, Control_c, 0, 64, 77
1, 41167, Control_c, 0, 64, 76
1, 41182, Control_c, 0, 64, 76
1, 41197, Control_c, 0, 64, 75
1, 41211, Control_c, 0, 64, 74
1, 41226, Control_c, 0, 64, 73
1, 41241, Control_c, 0, 64, 72
1, 41256, Control_c, 0, 64, 71
1, 41271, Control_c, 0, 64, 70
1, 41285, Control_c, 0, 64, 69
1, 41300, Control_c, 0, 64, 67
1, 41315, Control_c, 0, 64, 66
1, 41330, Control_c, 0, 64, 65
1, 41345, Control_c, 0, 64, 64
1, 41359, Control_c, 0, 64, 63
1, 41374, Control_c, 0, 64, 62
1, 41411, Control_c, 0, 64, 62
1, 41426, Control_c, 0, 64, 61
1, 41441, Control_c, 0, 64, 61
1, 41456, Control_c, 0, 64, 60
1, 41471, Control_c, 0, 64, 60
1, 41485, Control_c, 0, 64, 59
1, 41489, Note_off_c, 0, 60, 39
1, 41500, Control_c, 0, 64, 59
1, 41517, Note_off_c, 0, 70, 35
1, 41528, Note_off_c, 0, 76, 29
1, 41531, Control_c, 0, 64, 58
1, 41546, Control_c, 0, 64, 58
1, 41551, Note_off_c, 0, 67, 41
1, 41561, Control_c, 0, 64, 57
1, 41576, Control_c, 0, 64, 56
1, 41590, Control_c, 0, 64, 56
1, 41605, Control_c, 0, 64, 55
1, 41620, Control_c, 0, 64, 54
1, 41634, Control_c, 0, 64, 53
1, 41649, Control_c, 0, 64, 52
1, 41664, Control_c, 0, 64, 51
1, 41679, Control_c, 0, 64, 50
1, 41694, Control_c, 0, 64, 49
1, 41708, Control_c, 0, 64, 47
1, 41723, Control_c, 0, 64, 45
1, 41738, Control_c, 0, 64, 44
1, 41753, Control_c, 0, 64, 42
1, 41768, Control_c, 0, 64, 41
1, 41782, Control_c, 0, 64, 40
1, 41797, Control_c, 0, 64, 39
1, 41812, Control_c, 0, 64, 38
1, 41827, Control_c, 0, 64, 36
1, 41842, Control_c, 0, 64, 35
1, 41857, Control_c, 0, 64, 34
1, 41871, Control_c, 0, 64, 33
1, 41886, Control_c, 0, 64, 32
1, 41916, Control_c, 0, 64, 30
1, 41975, Control_c, 0, 64, 0
1, 42137, Control_c, 0, 67, 124
1, 42160, Control_c, 0, 67, 104
1, 42175, Control_c, 0, 67, 86
1, 42189, Control_c, 0, 67, 77
1, 42204, Control_c, 0, 67, 72
1, 42219, Control_c, 0, 67, 71
1, 42248, Control_c, 0, 67, 70
1, 42263, Control_c, 0, 67, 68
1, 42278, Control_c, 0, 67, 68
1, 42293, Control_c, 0, 67, 67
1, 42307, Control_c, 0, 67, 65
1, 42322, Control_c, 0, 67, 57
1, 42338, Control_c, 0, 67, 0
1, 42479, Note_on_c, 0, 68, 58
1, 42482, Note_on_c, 0, 65, 57
1, 42530, Control_c, 0, 64, 30
1, 42545, Control_c, 0, 64, 44
1, 42560, Control_c, 0, 64, 56
1, 42575, Control_c, 0, 64, 62
1, 42590, Control_c, 0, 64, 65
1, 42605, Control_c, 0, 64, 68
1, 42620, Control_c, 0, 64, 72
1, 42635, Control_c, 0, 64, 75
1, 42649, Control_c, 0, 64, 79
1, 42664, Control_c, 0, 64, 82
1, 42679, Control_c, 0, 64, 85
1, 42694, Control_c, 0, 64, 88
1, 42709, Control_c, 0, 64, 90
1, 42723, Control_c, 0, 64, 92
1, 42738, Control_c, 0, 64, 92
1, 42753, Control_c, 0, 64, 93
1, 42924, Control_c, 0, 64, 92
1, 42938, Control_c, 0, 64, 92
1, 42953, Control_c, 0, 64, 86
1, 42962, Note_on_c, 0, 53, 70
1, 42965, Note_on_c, 0, 72, 57
1, 42968, Control_c, 0, 64, 72
1, 42982, Control_c, 0, 64, 56
1, 42997, Control_c, 0, 64, 29
1, 43012, Control_c, 0, 64, 0
1, 43027, Control_c, 0, 64, 40
1, 43042, Control_c, 0, 64, 55
1, 43046, Note_off_c, 0, 68, 56
1, 43056, Control_c, 0, 64, 64
1, 43061, Note_off_c, 0, 53, 62
1, 43071, Control_c, 0, 64, 70
1, 43086, Control_c, 0, 64, 77
1, 43101, Control_c, 0, 64, 87
1, 43116, Control_c, 0, 64, 96
1, 43132, Control_c, 0, 64, 104
1, 43146, Control_c, 0, 64, 115
1, 43161, Control_c, 0, 64, 127
1, 43293, Note_on_c, 0, 53, 73
1, 43329, Note_off_c, 0, 72, 54
1, 43330, Note_off_c, 0, 53, 64
1, 43368, Control_c, 0, 64, 96
1, 43383, Control_c, 0, 64, 72
1, 43393, Note_on_c, 0, 60, 84
1, 43393, Note_on_c, 0, 67, 64
1, 43398, Control_c, 0, 64, 41
1, 43406, Note_on_c, 0, 64, 61
1, 43413, Control_c, 0, 64, 0
1, 43448, Note_off_c, 0, 65, 55
1, 43502, Control_c, 0, 64, 37
1, 43514, Note_off_c, 0, 60, 65
1, 43517, Control_c, 0, 64, 59
1, 43532, Control_c, 0, 64, 69
1, 43546, Control_c, 0, 64, 78
1, 43561, Control_c, 0, 64, 90
1, 43576, Control_c, 0, 64, 104
1, 43591, Control_c, 0, 64, 127
1, 43876, Note_on_c, 0, 72, 64
1, 43879, Control_c, 0, 64, 94
1, 43882, Note_on_c, 0, 82, 73
1, 43883, Note_on_c, 0, 79, 70
1, 43894, Control_c, 0, 64, 65
1, 43909, Control_c, 0, 64, 32
1, 43925, Control_c, 0, 64, 0
1, 43940, Control_c, 0, 64, 39
1, 43955, Control_c, 0, 64, 57
1, 43970, Control_c, 0, 64, 66
1, 43984, Control_c, 0, 64, 74
1, 43988, Note_off_c, 0, 82, 56
1, 43996, Note_off_c, 0, 79, 57
1, 43999, Control_c, 0, 64, 84
1, 44003, Note_off_c, 0, 67, 53
1, 44014, Control_c, 0, 64, 96
1, 44028, Control_c, 0, 64, 107
1, 44043, Control_c, 0, 64, 124
1, 44058, Control_c, 0, 64, 127
1, 44207, Note_on_c, 0, 82, 75
1, 44212, Note_on_c, 0, 79, 67
1, 44254, Note_off_c, 0, 82, 63
1, 44264, Note_off_c, 0, 79, 62
1, 44295, Control_c, 0, 64, 122
1, 44305, Note_on_c, 0, 65, 69
1, 44305, Note_on_c, 0, 68, 73
1, 44306, Note_on_c, 0, 80, 87
1, 44310, Control_c, 0, 64, 79
1, 44310, Note_on_c, 0, 77, 82
1, 44325, Control_c, 0, 64, 50
1, 44340, Control_c, 0, 64, 0
1, 44343, Note_off_c, 0, 64, 63
1, 44370, Note_off_c, 0, 72, 47
1, 44406, Control_c, 0, 64, 38
1, 44418, Note_off_c, 0, 80, 61
1, 44421, Control_c, 0, 64, 58
1, 44435, Control_c, 0, 64, 67
1, 44441, Note_off_c, 0, 77, 62
1, 44450, Control_c, 0, 64, 76
1, 44465, Control_c, 0, 64, 89
1, 44480, Control_c, 0, 64, 110
1, 44495, Control_c, 0, 64, 127
1, 44778, Control_c, 0, 64, 83
1, 44779, Note_on_c, 0, 72, 73
1, 44789, Note_on_c, 0, 53, 80
1, 44793, Control_c, 0, 64, 59
1, 44807, Control_c, 0, 64, 0
1, 44837, Control_c, 0, 64, 31
1, 44843, Note_off_c, 0, 68, 56
1, 44851, Control_c, 0, 64, 53
1, 44863, Note_off_c, 0, 53, 63
1, 44866, Control_c, 0, 64, 66
1, 44881, Control_c, 0, 64, 75
1, 44896, Control_c, 0, 64, 87
1, 44911, Control_c, 0, 64, 98
1, 44925, Control_c, 0, 64, 114
1, 44940, Control_c, 0, 64, 127
1, 45139, Note_on_c, 0, 53, 79
1, 45165, Note_off_c, 0, 53, 73
1, 45229, Control_c, 0, 64, 119
1, 45238, Note_on_c, 0, 67, 72
1, 45240, Note_on_c, 0, 64, 66
1, 45243, Note_on_c, 0, 60, 84
1, 45244, Control_c, 0, 64, 84
1, 45258, Control_c, 0, 64, 65
1, 45273, Control_c, 0, 64, 36
1, 45285, Note_off_c, 0, 72, 58
1, 45288, Control_c, 0, 64, 0
1, 45307, Note_off_c, 0, 65, 56
1, 45407, Control_c, 0, 64, 53
1, 45422, Control_c, 0, 64, 65
1, 45437, Control_c, 0, 64, 75
1, 45451, Control_c, 0, 64, 86
1, 45462, Note_off_c, 0, 60, 59
1, 45466, Control_c, 0, 64, 99
1, 45481, Control_c, 0, 64, 127
1, 45528, Note_off_c, 0, 64, 58
1, 45559, Note_off_c, 0, 67, 61
1, 45704, Control_c, 0, 64, 117
1, 45719, Control_c, 0, 64, 94
1, 45734, Control_c, 0, 64, 79
1, 45748, Control_c, 0, 64, 62
1, 45763, Control_c, 0, 64, 38
1, 45778, Control_c, 0, 64, 0
1, 45788, Note_on_c, 0, 63, 77
1, 45791, Note_on_c, 0, 69, 74
1, 45805, Note_on_c, 0, 53, 87
1, 45805, Note_on_c, 0, 60, 86
1, 45881, Control_c, 0, 64, 52
1, 45904, Control_c, 0, 64, 64
1, 45919, Control_c, 0, 64, 73
1, 45934, Control_c, 0, 64, 83
1, 45935, Note_off_c, 0, 53, 62
1, 45935, Note_off_c, 0, 60, 59
1, 45948, Control_c, 0, 64, 93
1, 45963, Control_c, 0, 64, 104
1, 45968, Note_off_c, 0, 63, 55
1, 45978, Control_c, 0, 64, 118
1, 45993, Control_c, 0, 64, 127
1, 46012, Note_off_c, 0, 69, 38
1, 46151, Note_on_c, 0, 69, 72
1, 46157, Note_on_c, 0, 63, 75
1, 46160, Note_on_c, 0, 60, 85
1, 46162, Note_on_c, 0, 53, 87
1, 46199, Note_off_c, 0, 60, 66
1, 46226, Note_off_c, 0, 69, 62
1, 46229, Control_c, 0, 64, 100
1, 46238, Note_off_c, 0, 53, 60
1, 46239, Note_off_c, 0, 63, 57
1, 46244, Control_c, 0, 64, 73
1, 46259, Control_c, 0, 64, 38
1, 46274, Note_on_c, 0, 70, 86
1, 46274, Control_c, 0, 64, 0
1, 46277, Note_on_c, 0, 61, 81
1, 46278, Note_on_c, 0, 58, 92
1, 46379, Control_c, 0, 64, 56
1, 46393, Control_c, 0, 64, 67
1, 46408, Control_c, 0, 64, 78
1, 46423, Control_c, 0, 64, 91
1, 46428, Note_off_c, 0, 58, 65
1, 46438, Control_c, 0, 64, 103
1, 46444, Note_off_c, 0, 61, 61
1, 46452, Note_off_c, 0, 70, 61
1, 46453, Control_c, 0, 64, 117
1, 46468, Control_c, 0, 64, 127
1, 46683, Control_c, 0, 64, 124
1, 46697, Control_c, 0, 64, 118
1, 46712, Control_c, 0, 64, 114
1, 46727, Control_c, 0, 64, 112
1, 46742, Control_c, 0, 64, 109
1, 46748, Note_on_c, 0, 42, 70
1, 46757, Control_c, 0, 64, 107
1, 46771, Control_c, 0, 64, 104
1, 46777, Note_on_c, 0, 46, 73
1, 46786, Control_c, 0, 64, 100
1, 46801, Control_c, 0, 64, 96
1, 46816, Control_c, 0, 64, 90
1, 46821, Note_on_c, 0, 49, 75
1, 46830, Control_c, 0, 64, 84
1, 46845, Control_c, 0, 64, 75
1, 46860, Control_c, 0, 64, 65
1, 46865, Note_on_c, 0, 54, 70
1, 46875, Control_c, 0, 64, 50
1, 46884, Note_on_c, 0, 61, 71
1, 46890, Control_c, 0, 64, 0
1, 46904, Note_on_c, 0, 66, 80
1, 46936, Note_on_c, 0, 70, 79
1, 46956, Note_on_c, 0, 73, 80
1, 47609, Control_c, 0, 64, 33
1, 47624, Control_c, 0, 64, 42
1, 47639, Control_c, 0, 64, 50
1, 47653, Control_c, 0, 64, 56
1, 47668, Control_c, 0, 64, 59
1, 47683, Control_c, 0, 64, 61
1, 47698, Control_c, 0, 64, 63
1, 47713, Control_c, 0, 64, 65
1, 47727, Control_c, 0, 64, 68
1, 47742, Control_c, 0, 64, 71
1, 47757, Control_c, 0, 64, 73
1, 47771, Control_c, 0, 64, 77
1, 47786, Control_c, 0, 64, 80
1, 47801, Control_c, 0, 64, 83
1, 47816, Control_c, 0, 64, 86
1, 47831, Control_c, 0, 64, 89
1, 47845, Control_c, 0, 64, 91
1, 47860, Control_c, 0, 64, 92
1, 47872, Note_off_c, 0, 61, 43
1, 47875, Control_c, 0, 64, 93
1, 47890, Control_c, 0, 64, 94
1, 47905, Control_c, 0, 64, 94
1, 47922, Note_off_c, 0, 70, 53
1, 47936, Control_c, 0, 64, 95
1, 47940, Note_off_c, 0, 66, 56
1, 47997, Note_off_c, 0, 73, 56
1, 48022, Note_off_c, 0, 42, 37
1, 48033, Note_off_c, 0, 49, 30
1, 48043, Note_off_c, 0, 54, 32
1, 48081, Note_off_c, 0, 46, 22
1, 48358, Control_c, 0, 64, 94
1, 48388, Control_c, 0, 64, 94
1, 48402, Control_c, 0, 64, 93
1, 48417, Control_c, 0, 64, 93
1, 48432, Control_c, 0, 64, 92
1, 48447, Control_c, 0, 64, 91
1, 48462, Control_c, 0, 64, 89
1, 48476, Control_c, 0, 64, 88
1, 48491, Control_c, 0, 64, 86
1, 48506, Control_c, 0, 64, 84
1, 48521, Control_c, 0, 64, 82
1, 48536, Control_c, 0, 64, 79
1, 48550, Control_c, 0, 64, 77
1, 48565, Control_c, 0, 64, 75
1, 48580, Control_c, 0, 64, 73
1, 48594, Control_c, 0, 64, 70
1, 48609, Control_c, 0, 64, 66
1, 48624, Control_c, 0, 64, 61
1, 48639, Control_c, 0, 64, 57
1, 48654, Control_c, 0, 64, 53
1, 48668, Control_c, 0, 64, 48
1, 48683, Control_c, 0, 64, 40
1, 48698, Control_c, 0, 64, 0
1, 49104, Note_on_c, 0, 85, 54
1, 49192, Note_off_c, 0, 85, 61
1, 49531, Note_on_c, 0, 85, 48
1, 49618, Note_on_c, 0, 82, 59
1, 49630, Note_off_c, 0, 85, 52
1, 49718, Note_off_c, 0, 82, 62
1, 49966, Note_on_c, 0, 82, 56
1, 50042, Note_off_c, 0, 82, 60
1, 50048, Note_on_c, 0, 78, 67
1, 50139, Note_off_c, 0, 78, 59
1, 50390, Note_on_c, 0, 78, 55
1, 50472, Note_off_c, 0, 78, 58
1, 50477, Note_on_c, 0, 73, 62
1, 50562, Note_off_c, 0, 73, 59
1, 50829, Note_on_c, 0, 73, 46
1, 50912, Note_off_c, 0, 73, 54
1, 50918, Note_on_c, 0, 70, 58
1, 51019, Note_off_c, 0, 70, 62
1, 51161, Control_c, 0, 67, 44
1, 51175, Control_c, 0, 67, 68
1, 51190, Control_c, 0, 67, 81
1, 51205, Control_c, 0, 67, 88
1, 51220, Control_c, 0, 67, 92
1, 51234, Control_c, 0, 67, 93
1, 51264, Control_c, 0, 67, 94
1, 51294, Control_c, 0, 67, 94
1, 51309, Control_c, 0, 67, 95
1, 51336, Note_on_c, 0, 70, 43
1, 51339, Control_c, 0, 67, 98
1, 51354, Control_c, 0, 67, 103
1, 51368, Control_c, 0, 67, 127
1, 51372, Note_off_c, 0, 70, 56
1, 51417, Note_on_c, 0, 66, 52
1, 51433, Note_on_c, 0, 61, 28
1, 51434, Note_on_c, 0, 54, 29
1, 51436, Note_on_c, 0, 58, 34
1, 51652, Note_off_c, 0, 58, 41
1, 51652, Note_off_c, 0, 61, 43
1, 51658, Note_off_c, 0, 54, 40
1, 51902, Note_on_c, 0, 70, 47
1, 51944, Note_off_c, 0, 66, 60
1, 51947, Note_off_c, 0, 70, 60
1, 52246, Note_on_c, 0, 70, 51
1, 52289, Note_off_c, 0, 70, 59
1, 52349, Note_on_c, 0, 64, 47
1, 52356, Note_on_c, 0, 61, 27
1, 52361, Note_on_c, 0, 58, 37
1, 52363, Note_on_c, 0, 55, 36
1, 52497, Note_off_c, 0, 55, 55
1, 52527, Note_off_c, 0, 61, 45
1, 52540, Note_off_c, 0, 58, 40
1, 52889, Note_on_c, 0, 73, 46
1, 52954, Note_off_c, 0, 64, 58
1, 52964, Note_off_c, 0, 73, 59
1, 53275, Note_on_c, 0, 73, 38
1, 53306, Note_off_c, 0, 73, 55
1, 53361, Note_on_c, 0, 65, 48
1, 53364, Note_on_c, 0, 60, 36
1, 53386, Note_on_c, 0, 56, 35
1, 53554, Note_off_c, 0, 60, 38
1, 53555, Note_off_c, 0, 56, 35
1, 53928, Note_on_c, 0, 77, 53
1, 53984, Note_off_c, 0, 65, 35
1, 54019, Note_off_c, 0, 77, 58
1, 54315, Note_on_c, 0, 77, 57
1, 54365, Note_off_c, 0, 77, 56
1, 54425, Note_on_c, 0, 67, 46
1, 54432, Note_on_c, 0, 61, 36
1, 54434, Note_on_c, 0, 58, 33
1, 54533, Note_off_c, 0, 61, 51
1, 54545, Note_off_c, 0, 58, 52
1, 54932, Note_on_c, 0, 70, 52
1, 54953, Note_on_c, 0, 60, 32
1, 54976, Note_off_c, 0, 67, 44
1, 55061, Note_off_c, 0, 60, 57
1, 55381, Note_on_c, 0, 64, 39
1, 55433, Note_off_c, 0, 70, 31
1, 55449, Note_off_c, 0, 64, 58
1, 55491, Note_on_c, 0, 65, 41
1, 55823, Note_off_c, 0, 65, 52
1, 56126, Note_on_c, 0, 41, 53
1, 56290, Note_off_c, 0, 41, 58
1, 56655, Note_on_c, 0, 41, 45
1, 56716, Note_off_c, 0, 41, 57
1, 56801, Note_on_c, 0, 29, 41
1, 57307, Note_off_c, 0, 29, 41
1, 58551, Control_c, 0, 64, 34
1, 58566, Control_c, 0, 64, 41
1, 58581, Control_c, 0, 64, 48
1, 58595, Control_c, 0, 64, 53
1, 58610, Control_c, 0, 64, 56
1, 58633, Control_c, 0, 64, 57
1, 58648, Control_c, 0, 64, 59
1, 58663, Control_c, 0, 64, 60
1, 58677, Control_c, 0, 64, 62
1, 58692, Control_c, 0, 64, 63
1, 58707, Control_c, 0, 64, 64
1, 58722, Control_c, 0, 64, 66
1, 58736, Control_c, 0, 64, 67
1, 58751, Control_c, 0, 64, 70
1, 58766, Control_c, 0, 64, 72
1, 58781, Control_c, 0, 64, 74
1, 58796, Control_c, 0, 64, 76
1, 58810, Control_c, 0, 64, 78
1, 58825, Control_c, 0, 64, 80
1, 58840, Control_c, 0, 64, 81
1, 58855, Control_c, 0, 64, 83
1, 58870, Control_c, 0, 64, 84
1, 58884, Control_c, 0, 64, 85
1, 58899, Control_c, 0, 64, 86
1, 58914, Control_c, 0, 64, 87
1, 58943, Control_c, 0, 64, 88
1, 59009, Note_on_c, 0, 69, 46
1, 59062, Control_c, 0, 64, 88
1, 59080, Note_on_c, 0, 53, 23
1, 59217, Note_off_c, 0, 53, 54
1, 59226, Control_c, 0, 64, 89
1, 59286, Control_c, 0, 64, 89
1, 59523, Note_on_c, 0, 65, 38
1, 59708, Control_c, 0, 64, 89
1, 59738, Control_c, 0, 64, 88
1, 59752, Control_c, 0, 64, 87
1, 59767, Control_c, 0, 64, 86
1, 59782, Control_c, 0, 64, 84
1, 59797, Control_c, 0, 64, 83
1, 59812, Control_c, 0, 64, 82
1, 59826, Control_c, 0, 64, 81
1, 59841, Control_c, 0, 64, 79
1, 59856, Control_c, 0, 64, 78
1, 59868, Note_on_c, 0, 70, 65
1, 59870, Control_c, 0, 64, 77
1, 59885, Control_c, 0, 64, 75
1, 59901, Control_c, 0, 64, 74
1, 59906, Note_on_c, 0, 67, 44
1, 59916, Control_c, 0, 64, 73
1, 59931, Control_c, 0, 64, 71
1, 59946, Control_c, 0, 64, 68
1, 59947, Note_off_c, 0, 69, 38
1, 59961, Note_off_c, 0, 65, 33
1, 59961, Control_c, 0, 64, 66
1, 59975, Control_c, 0, 64, 64
1, 59990, Control_c, 0, 64, 62
1, 60005, Control_c, 0, 64, 58
1, 60020, Control_c, 0, 64, 51
1, 60035, Control_c, 0, 64, 36
1, 60049, Control_c, 0, 64, 0
1, 60231, Note_off_c, 0, 67, 57
1, 60233, Note_on_c, 0, 71, 74
1, 60254, Note_on_c, 0, 68, 45
1, 60293, Note_off_c, 0, 70, 61
1, 60383, Control_c, 0, 64, 42
1, 60398, Control_c, 0, 64, 55
1, 60413, Control_c, 0, 64, 62
1, 60428, Control_c, 0, 64, 65
1, 60442, Control_c, 0, 64, 67
1, 60457, Control_c, 0, 64, 71
1, 60472, Control_c, 0, 64, 74
1, 60483, Note_off_c, 0, 68, 58
1, 60487, Control_c, 0, 64, 76
1, 60488, Note_off_c, 0, 71, 58
1, 60501, Control_c, 0, 64, 77
1, 60516, Control_c, 0, 64, 79
1, 60531, Control_c, 0, 64, 79
1, 60546, Control_c, 0, 64, 80
1, 60561, Control_c, 0, 64, 80
1, 60663, Note_on_c, 0, 72, 60
1, 60690, Note_on_c, 0, 69, 44
1, 60724, Control_c, 0, 64, 80
1, 60769, Control_c, 0, 64, 79
1, 60784, Control_c, 0, 64, 76
1, 60798, Control_c, 0, 64, 69
1, 60813, Control_c, 0, 64, 59
1, 60828, Control_c, 0, 64, 34
1, 60843, Control_c, 0, 64, 0
1, 60910, Control_c, 0, 64, 42
1, 60924, Control_c, 0, 64, 56
1, 60939, Control_c, 0, 64, 63
1, 60954, Control_c, 0, 64, 66
1, 60969, Control_c, 0, 64, 69
1, 60984, Control_c, 0, 64, 72
1, 60998, Control_c, 0, 64, 76
1, 61009, Note_off_c, 0, 69, 31
1, 61013, Control_c, 0, 64, 79
1, 61028, Control_c, 0, 64, 83
1, 61043, Control_c, 0, 64, 84
1, 61058, Control_c, 0, 64, 87
1, 61073, Control_c, 0, 64, 88
1, 61087, Control_c, 0, 64, 89
1, 61102, Control_c, 0, 64, 90
1, 61117, Control_c, 0, 64, 90
1, 61122, Note_on_c, 0, 57, 41
1, 61131, Control_c, 0, 64, 91
1, 61170, Note_off_c, 0, 57, 58
1, 61188, Note_off_c, 0, 72, 40
1, 61205, Note_on_c, 0, 77, 59
1, 61244, Note_off_c, 0, 77, 59
1, 61272, Note_on_c, 0, 81, 63
1, 61303, Note_off_c, 0, 81, 62
1, 61324, Control_c, 0, 64, 90
1, 61333, Note_on_c, 0, 84, 62
1, 61339, Control_c, 0, 64, 90
1, 61354, Control_c, 0, 64, 88
1, 61369, Control_c, 0, 64, 84
1, 61384, Control_c, 0, 64, 79
1, 61387, Note_off_c, 0, 84, 59
1, 61393, Note_on_c, 0, 81, 60
1, 61398, Control_c, 0, 64, 73
1, 61413, Control_c, 0, 64, 66
1, 61426, Note_off_c, 0, 81, 64
1, 61428, Control_c, 0, 64, 58
1, 61442, Control_c, 0, 64, 48
1, 61445, Note_on_c, 0, 77, 59
1, 61457, Control_c, 0, 64, 39
1, 61472, Control_c, 0, 64, 0
1, 61477, Note_off_c, 0, 77, 64
1, 61487, Note_on_c, 0, 72, 57
1, 61518, Note_off_c, 0, 72, 64
1, 61602, Note_on_c, 0, 69, 40
1, 61708, Note_off_c, 0, 69, 58
1, 61961, Note_on_c, 0, 72, 51
1, 61979, Note_on_c, 0, 67, 36
1, 62031, Note_off_c, 0, 72, 58
1, 62048, Note_on_c, 0, 70, 54
1, 62115, Note_off_c, 0, 70, 63
1, 62135, Note_on_c, 0, 69, 64
1, 62151, Note_off_c, 0, 67, 52
1, 62213, Note_off_c, 0, 69, 58
1, 62219, Note_on_c, 0, 70, 67
1, 62297, Note_on_c, 0, 67, 61
1, 62300, Note_off_c, 0, 70, 62
1, 62325, Note_on_c, 0, 64, 46
1, 62328, Note_off_c, 0, 67, 65
1, 62499, Note_off_c, 0, 64, 61
1, 62645, Note_on_c, 0, 70, 62
1, 62655, Note_on_c, 0, 65, 46
1, 62720, Note_off_c, 0, 70, 58
1, 62725, Note_on_c, 0, 69, 63
1, 62789, Note_off_c, 0, 69, 62
1, 62798, Note_on_c, 0, 67, 72
1, 62798, Note_off_c, 0, 65, 59
1, 62877, Note_off_c, 0, 67, 62
1, 62887, Note_on_c, 0, 69, 73
1, 62937, Note_off_c, 0, 69, 61
1, 62952, Note_on_c, 0, 65, 63
1, 62985, Note_off_c, 0, 65, 62
1, 62996, Note_on_c, 0, 62, 47
1, 63100, Note_on_c, 0, 70, 68
1, 63147, Note_off_c, 0, 70, 62
1, 63188, Note_off_c, 0, 62, 59
1, 63189, Note_on_c, 0, 72, 64
1, 63228, Note_off_c, 0, 72, 56
1, 63247, Note_on_c, 0, 70, 65
1, 63271, Note_off_c, 0, 70, 70
1, 63289, Note_on_c, 0, 69, 66
1, 63318, Note_on_c, 0, 55, 33
1, 63323, Note_off_c, 0, 69, 58
1, 63329, Note_on_c, 0, 70, 72
1, 63373, Note_off_c, 0, 70, 65
1, 63439, Note_off_c, 0, 55, 60
1, 63537, Note_on_c, 0, 72, 70
1, 63581, Note_off_c, 0, 72, 62
1, 63629, Note_on_c, 0, 74, 72
1, 63670, Note_off_c, 0, 74, 55
1, 63795, Note_on_c, 0, 69, 60
1, 63829, Note_on_c, 0, 65, 39
1, 63842, Note_on_c, 0, 60, 38
1, 63949, Control_c, 0, 64, 35
1, 63964, Control_c, 0, 64, 46
1, 63979, Control_c, 0, 64, 54
1, 63994, Control_c, 0, 64, 57
1, 64009, Control_c, 0, 64, 59
1, 64023, Control_c, 0, 64, 61
1, 64038, Control_c, 0, 64, 63
1, 64046, Note_off_c, 0, 60, 58
1, 64053, Control_c, 0, 64, 64
1, 64067, Control_c, 0, 64, 65
1, 64082, Control_c, 0, 64, 67
1, 64097, Control_c, 0, 64, 68
1, 64112, Control_c, 0, 64, 69
1, 64127, Control_c, 0, 64, 70
1, 64142, Control_c, 0, 64, 71
1, 64290, Control_c, 0, 64, 70
1, 64305, Control_c, 0, 64, 70
1, 64306, Note_on_c, 0, 48, 45
1, 64320, Control_c, 0, 64, 69
1, 64335, Control_c, 0, 64, 68
1, 64349, Control_c, 0, 64, 67
1, 64364, Control_c, 0, 64, 66
1, 64379, Control_c, 0, 64, 64
1, 64394, Control_c, 0, 64, 63
1, 64409, Control_c, 0, 64, 59
1, 64423, Control_c, 0, 64, 54
1, 64438, Control_c, 0, 64, 48
1, 64453, Control_c, 0, 64, 48
1, 64467, Control_c, 0, 64, 50
1, 64482, Control_c, 0, 64, 54
1, 64497, Control_c, 0, 64, 58
1, 64512, Control_c, 0, 64, 62
1, 64527, Control_c, 0, 64, 65
1, 64541, Control_c, 0, 64, 68
1, 64556, Control_c, 0, 64, 69
1, 64571, Control_c, 0, 64, 71
1, 64586, Control_c, 0, 64, 72
1, 64601, Control_c, 0, 64, 73
1, 64616, Note_off_c, 0, 65, 48
1, 64623, Control_c, 0, 64, 73
1, 64708, Note_on_c, 0, 67, 50
1, 64713, Note_on_c, 0, 64, 42
1, 64772, Control_c, 0, 64, 73
1, 64782, Note_off_c, 0, 69, 33
1, 64802, Control_c, 0, 64, 72
1, 64817, Control_c, 0, 64, 71
1, 64832, Control_c, 0, 64, 68
1, 64846, Control_c, 0, 64, 62
1, 64861, Control_c, 0, 64, 53
1, 64876, Control_c, 0, 64, 39
1, 64890, Control_c, 0, 64, 0
1, 64948, Note_off_c, 0, 48, 61
1, 64974, Note_off_c, 0, 67, 61
1, 65191, Note_on_c, 0, 68, 50
1, 65415, Note_off_c, 0, 64, 61
1, 65423, Note_off_c, 0, 68, 61
1, 65596, Note_on_c, 0, 69, 55
1, 65662, Note_on_c, 0, 53, 31
1, 65728, Control_c, 0, 64, 41
1, 65742, Control_c, 0, 64, 57
1, 65757, Control_c, 0, 64, 64
1, 65772, Control_c, 0, 64, 67
1, 65786, Note_off_c, 0, 53, 63
1, 65787, Control_c, 0, 64, 69
1, 65802, Control_c, 0, 64, 71
1, 65817, Control_c, 0, 64, 73
1, 65832, Control_c, 0, 64, 75
1, 65847, Control_c, 0, 64, 76
1, 65861, Control_c, 0, 64, 77
1, 65876, Control_c, 0, 64, 78
1, 65906, Control_c, 0, 64, 78
1, 65920, Control_c, 0, 64, 79
1, 66021, Note_on_c, 0, 65, 44
1, 66054, Control_c, 0, 64, 78
1, 66069, Control_c, 0, 64, 72
1, 66084, Control_c, 0, 64, 63
1, 66099, Control_c, 0, 64, 51
1, 66121, Control_c, 0, 64, 47
1, 66136, Control_c, 0, 64, 49
1, 66151, Control_c, 0, 64, 53
1, 66166, Control_c, 0, 64, 58
1, 66166, Control_c, 0, 67, 95
1, 66181, Control_c, 0, 64, 62
1, 66181, Control_c, 0, 67, 53
1, 66195, Control_c, 0, 64, 66
1, 66195, Control_c, 0, 67, 0
1, 66210, Control_c, 0, 64, 70
1, 66225, Control_c, 0, 64, 74
1, 66239, Control_c, 0, 64, 75
1, 66254, Control_c, 0, 64, 76
1, 66269, Control_c, 0, 64, 78
1, 66284, Control_c, 0, 64, 78
1, 66379, Note_on_c, 0, 70, 72
1, 66389, Control_c, 0, 64, 76
1, 66401, Note_on_c, 0, 67, 48
1, 66404, Control_c, 0, 64, 70
1, 66418, Control_c, 0, 64, 60
1, 66433, Control_c, 0, 64, 45
1, 66434, Note_off_c, 0, 65, 38
1, 66448, Control_c, 0, 64, 35
1, 66449, Note_off_c, 0, 69, 37
1, 66462, Control_c, 0, 64, 36
1, 66477, Control_c, 0, 64, 47
1, 66492, Control_c, 0, 64, 56
1, 66507, Control_c, 0, 64, 63
1, 66522, Control_c, 0, 64, 67
1, 66536, Control_c, 0, 64, 73
1, 66551, Control_c, 0, 64, 77
1, 66566, Control_c, 0, 64, 79
1, 66581, Control_c, 0, 64, 82
1, 66596, Control_c, 0, 64, 84
1, 66610, Control_c, 0, 64, 85
1, 66624, Note_off_c, 0, 67, 57
1, 66638, Note_off_c, 0, 70, 60
1, 66714, Control_c, 0, 64, 85
1, 66729, Control_c, 0, 64, 83
1, 66740, Note_on_c, 0, 71, 73
1, 66744, Control_c, 0, 64, 79
1, 66759, Control_c, 0, 64, 71
1, 66774, Control_c, 0, 64, 58
1, 66782, Note_on_c, 0, 68, 28
1, 66789, Control_c, 0, 64, 36
1, 66804, Control_c, 0, 64, 0
1, 66884, Control_c, 0, 64, 39
1, 66899, Control_c, 0, 64, 55
1, 66914, Control_c, 0, 64, 63
1, 66929, Control_c, 0, 64, 67
1, 66944, Control_c, 0, 64, 71
1, 66959, Control_c, 0, 64, 75
1, 66968, Note_off_c, 0, 68, 59
1, 66974, Control_c, 0, 64, 80
1, 66986, Note_off_c, 0, 71, 59
1, 66989, Control_c, 0, 64, 85
1, 67003, Control_c, 0, 64, 87
1, 67018, Control_c, 0, 64, 88
1, 67033, Control_c, 0, 64, 89
1, 67212, Note_on_c, 0, 72, 56
1, 67227, Control_c, 0, 64, 88
1, 67236, Note_on_c, 0, 69, 37
1, 67241, Control_c, 0, 64, 88
1, 67256, Control_c, 0, 64, 87
1, 67271, Control_c, 0, 64, 84
1, 67285, Control_c, 0, 64, 79
1, 67300, Control_c, 0, 64, 72
1, 67315, Control_c, 0, 64, 62
1, 67330, Control_c, 0, 64, 47
1, 67345, Control_c, 0, 64, 0
1, 67433, Control_c, 0, 64, 45
1, 67448, Control_c, 0, 64, 57
1, 67463, Control_c, 0, 64, 62
1, 67478, Control_c, 0, 64, 65
1, 67492, Control_c, 0, 64, 67
1, 67501, Note_off_c, 0, 69, 37
1, 67507, Control_c, 0, 64, 70
1, 67521, Control_c, 0, 64, 73
1, 67536, Control_c, 0, 64, 75
1, 67551, Control_c, 0, 64, 77
1, 67565, Control_c, 0, 64, 78
1, 67580, Control_c, 0, 64, 79
1, 67595, Control_c, 0, 64, 81
1, 67617, Control_c, 0, 64, 81
1, 67632, Control_c, 0, 64, 82
1, 67662, Control_c, 0, 67, 41
1, 67667, Note_on_c, 0, 57, 41
1, 67677, Control_c, 0, 67, 61
1, 67691, Control_c, 0, 64, 82
1, 67691, Control_c, 0, 67, 80
1, 67706, Control_c, 0, 67, 91
1, 67707, Note_off_c, 0, 57, 60
1, 67721, Control_c, 0, 67, 98
1, 67731, Note_off_c, 0, 72, 41
1, 67736, Control_c, 0, 67, 102
1, 67754, Note_on_c, 0, 77, 56
1, 67780, Control_c, 0, 64, 82
1, 67787, Note_off_c, 0, 77, 63
1, 67816, Note_on_c, 0, 81, 65
1, 67839, Control_c, 0, 64, 81
1, 67844, Note_off_c, 0, 81, 65
1, 67854, Control_c, 0, 64, 80
1, 67854, Control_c, 0, 67, 100
1, 67869, Control_c, 0, 64, 78
1, 67885, Control_c, 0, 64, 75
1, 67886, Note_on_c, 0, 84, 55
1, 67900, Control_c, 0, 64, 71
1, 67914, Control_c, 0, 64, 69
1, 67925, Note_off_c, 0, 84, 62
1, 67929, Control_c, 0, 64, 66
1, 67941, Note_on_c, 0, 81, 58
1, 67944, Control_c, 0, 64, 64
1, 67959, Control_c, 0, 64, 62
1, 67968, Note_off_c, 0, 81, 56
1, 67974, Control_c, 0, 64, 60
1, 67987, Note_on_c, 0, 77, 61
1, 67988, Control_c, 0, 64, 58
1, 68003, Control_c, 0, 64, 55
1, 68018, Control_c, 0, 64, 51
1, 68031, Note_off_c, 0, 77, 58
1, 68033, Control_c, 0, 64, 46
1, 68034, Note_on_c, 0, 72, 63
1, 68048, Control_c, 0, 64, 41
1, 68062, Control_c, 0, 64, 37
1, 68062, Control_c, 0, 67, 102
1, 68077, Control_c, 0, 64, 31
1, 68081, Note_off_c, 0, 72, 62
1, 68092, Control_c, 0, 64, 0
1, 68092, Control_c, 0, 67, 104
1, 68132, Note_on_c, 0, 69, 49
1, 68136, Control_c, 0, 67, 106
1, 68140, Note_on_c, 0, 65, 42
1, 68226, Control_c, 0, 67, 104
1, 68233, Note_off_c, 0, 65, 62
1, 68240, Control_c, 0, 64, 37
1, 68255, Control_c, 0, 64, 55
1, 68255, Control_c, 0, 67, 101
1, 68270, Control_c, 0, 64, 64
1, 68270, Control_c, 0, 67, 99
1, 68285, Control_c, 0, 64, 66
1, 68300, Control_c, 0, 64, 68
1, 68300, Control_c, 0, 67, 96
1, 68314, Control_c, 0, 64, 71
1, 68314, Control_c, 0, 67, 96
1, 68329, Control_c, 0, 64, 73
1, 68329, Control_c, 0, 67, 94
1, 68344, Control_c, 0, 64, 75
1, 68344, Control_c, 0, 67, 94
1, 68366, Control_c, 0, 64, 76
1, 68366, Control_c, 0, 67, 93
1, 68381, Control_c, 0, 67, 92
1, 68410, Control_c, 0, 67, 92
1, 68470, Control_c, 0, 67, 92
1, 68485, Control_c, 0, 64, 75
1, 68496, Note_on_c, 0, 53, 52
1, 68500, Control_c, 0, 64, 74
1, 68500, Control_c, 0, 67, 93
1, 68514, Control_c, 0, 64, 72
1, 68514, Control_c, 0, 67, 94
1, 68529, Control_c, 0, 64, 68
1, 68529, Control_c, 0, 67, 94
1, 68544, Control_c, 0, 64, 63
1, 68544, Control_c, 0, 67, 95
1, 68548, Note_on_c, 0, 74, 63
1, 68559, Control_c, 0, 64, 58
1, 68561, Note_off_c, 0, 53, 61
1, 68563, Note_off_c, 0, 69, 52
1, 68574, Control_c, 0, 64, 55
1, 68574, Control_c, 0, 67, 97
1, 68577, Note_off_c, 0, 74, 68
1, 68588, Control_c, 0, 64, 53
1, 68603, Control_c, 0, 64, 51
1, 68617, Note_on_c, 0, 77, 66
1, 68618, Control_c, 0, 64, 50
1, 68633, Control_c, 0, 64, 48
1, 68647, Control_c, 0, 64, 45
1, 68649, Note_off_c, 0, 77, 62
1, 68662, Control_c, 0, 64, 42
1, 68667, Note_on_c, 0, 81, 67
1, 68677, Control_c, 0, 64, 39
1, 68677, Control_c, 0, 67, 99
1, 68693, Control_c, 0, 64, 35
1, 68708, Control_c, 0, 64, 31
1, 68723, Note_on_c, 0, 77, 65
1, 68723, Control_c, 0, 64, 0
1, 68723, Control_c, 0, 67, 101
1, 68738, Note_off_c, 0, 81, 60
1, 68767, Control_c, 0, 67, 103
1, 68768, Note_on_c, 0, 74, 73
1, 68770, Note_off_c, 0, 77, 64
1, 68804, Note_off_c, 0, 74, 60
1, 68814, Note_on_c, 0, 69, 65
1, 68843, Note_off_c, 0, 69, 65
1, 68870, Control_c, 0, 64, 35
1, 68885, Control_c, 0, 64, 45
1, 68887, Note_on_c, 0, 65, 56
1, 68898, Note_on_c, 0, 62, 41
1, 68900, Control_c, 0, 64, 52
1, 68915, Control_c, 0, 64, 58
1, 68929, Control_c, 0, 64, 61
1, 68944, Control_c, 0, 64, 63
1, 68944, Control_c, 0, 67, 105
1, 68959, Control_c, 0, 64, 64
1, 68974, Control_c, 0, 64, 65
1, 68974, Control_c, 0, 67, 109
1, 68989, Control_c, 0, 64, 67
1, 68989, Control_c, 0, 67, 111
1, 68998, Note_off_c, 0, 62, 61
1, 69004, Control_c, 0, 64, 68
1, 69004, Control_c, 0, 67, 120
1, 69019, Control_c, 0, 64, 69
1, 69019, Control_c, 0, 67, 127
1, 69049, Control_c, 0, 64, 69
1, 69131, Control_c, 0, 64, 69
1, 69145, Control_c, 0, 64, 68
1, 69160, Control_c, 0, 64, 67
1, 69175, Control_c, 0, 64, 65
1, 69190, Control_c, 0, 64, 62
1, 69205, Control_c, 0, 64, 58
1, 69219, Control_c, 0, 64, 55
1, 69234, Control_c, 0, 64, 50
1, 69249, Control_c, 0, 64, 44
1, 69253, Note_on_c, 0, 50, 41
1, 69263, Control_c, 0, 64, 35
1, 69278, Control_c, 0, 64, 0
1, 69298, Note_on_c, 0, 71, 68
1, 69328, Note_off_c, 0, 71, 62
1, 69357, Note_off_c, 0, 65, 59
1, 69360, Note_off_c, 0, 50, 63
1, 69372, Note_on_c, 0, 74, 69
1, 69404, Note_off_c, 0, 74, 62
1, 69424, Note_on_c, 0, 77, 69
1, 69473, Note_on_c, 0, 74, 69
1, 69490, Note_off_c, 0, 77, 61
1, 69528, Note_off_c, 0, 74, 65
1, 69535, Note_on_c, 0, 71, 64
1, 69563, Note_off_c, 0, 71, 63
1, 69570, Note_on_c, 0, 67, 68
1, 69595, Note_off_c, 0, 67, 69
1, 69673, Note_on_c, 0, 59, 57
1, 69676, Note_on_c, 0, 65, 50
1, 69882, Note_off_c, 0, 59, 62
1, 69883, Note_off_c, 0, 65, 61
1, 70052, Note_on_c, 0, 60, 48
1, 70056, Note_on_c, 0, 64, 49
1, 70199, Note_off_c, 0, 64, 64
1, 70211, Note_off_c, 0, 60, 64
1, 70412, Note_on_c, 0, 62, 49
1, 70433, Note_on_c, 0, 53, 39
1, 70532, Control_c, 0, 64, 35
1, 70547, Control_c, 0, 64, 46
1, 70562, Control_c, 0, 64, 55
1, 70576, Control_c, 0, 64, 59
1, 70591, Control_c, 0, 64, 61
1, 70591, Control_c, 0, 67, 119
1, 70613, Control_c, 0, 64, 63
1, 70613, Control_c, 0, 67, 104
1, 70620, Note_on_c, 0, 60, 46
1, 70628, Control_c, 0, 64, 65
1, 70628, Control_c, 0, 67, 86
1, 70643, Control_c, 0, 64, 67
1, 70643, Control_c, 0, 67, 65
1, 70658, Control_c, 0, 64, 69
1, 70658, Control_c, 0, 67, 43
1, 70673, Control_c, 0, 64, 70
1, 70673, Control_c, 0, 67, 0
1, 70688, Control_c, 0, 64, 70
1, 70703, Control_c, 0, 64, 71
1, 70762, Note_on_c, 0, 63, 74
1, 70762, Control_c, 0, 64, 68
1, 70777, Control_c, 0, 64, 62
1, 70779, Note_on_c, 0, 54, 55
1, 70791, Control_c, 0, 64, 52
1, 70797, Note_off_c, 0, 60, 39
1, 70806, Control_c, 0, 64, 45
1, 70813, Note_off_c, 0, 53, 37
1, 70821, Control_c, 0, 64, 45
1, 70835, Control_c, 0, 64, 50
1, 70840, Note_off_c, 0, 62, 50
1, 70850, Control_c, 0, 64, 56
1, 70865, Control_c, 0, 64, 61
1, 70880, Control_c, 0, 64, 65
1, 70895, Control_c, 0, 64, 70
1, 70909, Control_c, 0, 64, 76
1, 70924, Control_c, 0, 64, 80
1, 70939, Control_c, 0, 64, 83
1, 70945, Note_on_c, 0, 60, 53
1, 70954, Control_c, 0, 64, 86
1, 70969, Control_c, 0, 64, 88
1, 70977, Note_off_c, 0, 54, 47
1, 70983, Control_c, 0, 64, 88
1, 71072, Control_c, 0, 64, 88
1, 71088, Control_c, 0, 64, 86
1, 71101, Note_on_c, 0, 64, 78
1, 71103, Control_c, 0, 64, 78
1, 71118, Control_c, 0, 64, 67
1, 71129, Note_on_c, 0, 55, 61
1, 71129, Note_off_c, 0, 60, 57
1, 71132, Control_c, 0, 64, 51
1, 71146, Note_off_c, 0, 63, 59
1, 71147, Control_c, 0, 64, 0
1, 71192, Control_c, 0, 64, 30
1, 71206, Control_c, 0, 64, 47
1, 71221, Control_c, 0, 64, 59
1, 71236, Control_c, 0, 64, 65
1, 71251, Control_c, 0, 64, 71
1, 71262, Note_off_c, 0, 64, 64
1, 71266, Control_c, 0, 64, 79
1, 71281, Control_c, 0, 64, 86
1, 71296, Note_on_c, 0, 60, 57
1, 71296, Control_c, 0, 64, 92
1, 71311, Control_c, 0, 64, 97
1, 71315, Note_off_c, 0, 55, 54
1, 71326, Control_c, 0, 64, 100
1, 71362, Control_c, 0, 64, 102
1, 71404, Note_off_c, 0, 60, 36
1, 71481, Control_c, 0, 64, 98
1, 71489, Note_on_c, 0, 66, 84
1, 71496, Control_c, 0, 64, 92
1, 71511, Control_c, 0, 64, 82
1, 71513, Note_on_c, 0, 57, 66
1, 71513, Note_on_c, 0, 63, 66
1, 71525, Control_c, 0, 64, 69
1, 71540, Control_c, 0, 64, 52
1, 71555, Control_c, 0, 64, 0
1, 71629, Control_c, 0, 64, 44
1, 71644, Control_c, 0, 64, 60
1, 71654, Note_off_c, 0, 63, 49
1, 71658, Control_c, 0, 64, 66
1, 71673, Control_c, 0, 64, 72
1, 71688, Control_c, 0, 64, 77
1, 71698, Note_off_c, 0, 57, 61
1, 71700, Note_on_c, 0, 60, 61
1, 71703, Control_c, 0, 64, 82
1, 71718, Control_c, 0, 64, 87
1, 71732, Control_c, 0, 64, 92
1, 71739, Note_off_c, 0, 60, 61
1, 71747, Control_c, 0, 64, 96
1, 71757, Note_off_c, 0, 66, 59
1, 71776, Control_c, 0, 64, 98
1, 72047, Note_on_c, 0, 67, 72
1, 72059, Control_c, 0, 64, 96
1, 72074, Control_c, 0, 64, 94
1, 72083, Note_on_c, 0, 64, 40
1, 72089, Control_c, 0, 64, 92
1, 72107, Note_on_c, 0, 60, 39
1, 72111, Control_c, 0, 64, 89
1, 72119, Note_on_c, 0, 55, 40
1, 72126, Control_c, 0, 64, 86
1, 72141, Control_c, 0, 64, 83
1, 72155, Control_c, 0, 64, 79
1, 72170, Control_c, 0, 64, 74
1, 72185, Control_c, 0, 64, 68
1, 72200, Control_c, 0, 64, 60
1, 72214, Control_c, 0, 64, 53
1, 72229, Control_c, 0, 64, 47
1, 72244, Control_c, 0, 64, 36
1, 72259, Control_c, 0, 64, 0
1, 72526, Control_c, 0, 64, 31
1, 72541, Control_c, 0, 64, 46
1, 72555, Control_c, 0, 64, 57
1, 72570, Control_c, 0, 64, 63
1, 72585, Control_c, 0, 64, 67
1, 72599, Control_c, 0, 64, 72
1, 72614, Control_c, 0, 64, 76
1, 72629, Control_c, 0, 64, 81
1, 72644, Control_c, 0, 64, 86
1, 72659, Control_c, 0, 64, 92
1, 72675, Control_c, 0, 64, 97
1, 72688, Note_off_c, 0, 64, 46
1, 72690, Control_c, 0, 64, 103
1, 72704, Control_c, 0, 64, 110
1, 72719, Control_c, 0, 64, 115
1, 72734, Control_c, 0, 64, 120
1, 72749, Control_c, 0, 64, 127
1, 72777, Note_off_c, 0, 67, 45
1, 72791, Note_on_c, 0, 72, 56
1, 72825, Note_off_c, 0, 72, 61
1, 72864, Note_on_c, 0, 76, 63
1, 72894, Note_off_c, 0, 76, 67
1, 72915, Note_off_c, 0, 60, 41
1, 72919, Control_c, 0, 67, 52
1, 72920, Note_on_c, 0, 79, 61
1, 72934, Control_c, 0, 67, 69
1, 72949, Control_c, 0, 67, 86
1, 72964, Control_c, 0, 67, 99
1, 72978, Note_on_c, 0, 76, 69
1, 72978, Control_c, 0, 67, 108
1, 72980, Note_off_c, 0, 79, 61
1, 72993, Control_c, 0, 64, 124
1, 72993, Control_c, 0, 67, 113
1, 73008, Control_c, 0, 67, 118
1, 73020, Note_on_c, 0, 72, 70
1, 73023, Control_c, 0, 64, 122
1, 73023, Control_c, 0, 67, 122
1, 73024, Note_off_c, 0, 76, 62
1, 73037, Control_c, 0, 67, 124
1, 73065, Note_off_c, 0, 72, 58
1, 73067, Control_c, 0, 64, 114
1, 73067, Control_c, 0, 67, 126
1, 73071, Note_on_c, 0, 67, 62
1, 73082, Control_c, 0, 64, 100
1, 73097, Note_off_c, 0, 67, 67
1, 73097, Control_c, 0, 64, 84
1, 73111, Control_c, 0, 64, 66
1, 73126, Control_c, 0, 64, 46
1, 73134, Note_on_c, 0, 65, 54
1, 73141, Note_on_c, 0, 62, 54
1, 73141, Control_c, 0, 64, 0
1, 73177, Note_off_c, 0, 65, 64
1, 73210, Note_off_c, 0, 62, 63
1, 73234, Note_off_c, 0, 55, 63
1, 73490, Note_on_c, 0, 59, 71
1, 73523, Note_on_c, 0, 43, 49
1, 73523, Note_on_c, 0, 50, 48
1, 73527, Note_on_c, 0, 53, 32
1, 73589, Note_off_c, 0, 50, 62
1, 73595, Note_off_c, 0, 43, 61
1, 73615, Note_off_c, 0, 53, 35
1, 73630, Note_off_c, 0, 59, 63
1, 73937, Note_on_c, 0, 62, 53
1, 73940, Note_on_c, 0, 59, 51
1, 73973, Note_on_c, 0, 48, 49
1, 73973, Note_on_c, 0, 53, 35
1, 74140, Note_off_c, 0, 48, 61
1, 74402, Note_on_c, 0, 43, 43
1, 74585, Note_off_c, 0, 43, 51
1, 74587, Note_off_c, 0, 59, 62
1, 74597, Note_off_c, 0, 53, 55
1, 74930, Note_on_c, 0, 60, 31
1, 74939, Note_on_c, 0, 52, 31
1, 74959, Note_on_c, 0, 36, 33
1, 75007, Note_off_c, 0, 62, 37
1, 75166, Control_c, 0, 64, 33
1, 75180, Control_c, 0, 64, 43
1, 75195, Control_c, 0, 64, 52
1, 75210, Control_c, 0, 64, 57
1, 75225, Control_c, 0, 64, 60
1, 75240, Control_c, 0, 64, 62
1, 75255, Control_c, 0, 64, 65
1, 75269, Control_c, 0, 64, 68
1, 75284, Control_c, 0, 64, 71
1, 75294, Note_off_c, 0, 36, 41
1, 75299, Control_c, 0, 64, 73
1, 75314, Control_c, 0, 64, 75
1, 75329, Control_c, 0, 64, 77
1, 75344, Control_c, 0, 64, 78
1, 75349, Note_off_c, 0, 52, 34
1, 75359, Control_c, 0, 64, 80
1, 75373, Control_c, 0, 64, 80
1, 75374, Note_off_c, 0, 60, 42
1, 75521, Control_c, 0, 67, 110
1, 75536, Control_c, 0, 64, 80
1, 75536, Control_c, 0, 67, 90
1, 75551, Control_c, 0, 64, 79
1, 75551, Control_c, 0, 67, 70
1, 75566, Control_c, 0, 64, 77
1, 75566, Control_c, 0, 67, 51
1, 75580, Control_c, 0, 64, 74
1, 75580, Control_c, 0, 67, 0
1, 75595, Control_c, 0, 64, 71
1, 75610, Control_c, 0, 64, 68
1, 75624, Control_c, 0, 64, 65
1, 75639, Control_c, 0, 64, 62
1, 75654, Control_c, 0, 64, 60
1, 75669, Control_c, 0, 64, 58
1, 75684, Control_c, 0, 64, 55
1, 75699, Control_c, 0, 64, 53
1, 75714, Control_c, 0, 64, 50
1, 75729, Control_c, 0, 64, 46
1, 75743, Control_c, 0, 64, 40
1, 75758, Control_c, 0, 64, 0
1, 76168, Note_on_c, 0, 67, 47
1, 76217, Note_on_c, 0, 64, 29
1, 76359, Control_c, 0, 64, 36
1, 76373, Control_c, 0, 64, 46
1, 76388, Control_c, 0, 64, 54
1, 76403, Control_c, 0, 64, 58
1, 76418, Control_c, 0, 64, 59
1, 76433, Control_c, 0, 64, 61
1, 76447, Control_c, 0, 64, 62
1, 76462, Control_c, 0, 64, 64
1, 76477, Control_c, 0, 64, 65
1, 76492, Control_c, 0, 64, 66
1, 76507, Control_c, 0, 64, 68
1, 76521, Control_c, 0, 64, 70
1, 76536, Control_c, 0, 64, 72
1, 76551, Control_c, 0, 64, 73
1, 76566, Control_c, 0, 64, 75
1, 76569, Note_on_c, 0, 62, 41
1, 76581, Control_c, 0, 64, 76
1, 76603, Control_c, 0, 64, 78
1, 76618, Control_c, 0, 64, 78
1, 76633, Control_c, 0, 64, 79
1, 76647, Control_c, 0, 64, 80
1, 76662, Control_c, 0, 64, 80
1, 76663, Note_off_c, 0, 62, 52
1, 76667, Note_on_c, 0, 60, 49
1, 76693, Control_c, 0, 64, 81
1, 76715, Note_off_c, 0, 60, 63
1, 76731, Note_on_c, 0, 59, 61
1, 76762, Note_off_c, 0, 59, 66
1, 76832, Note_on_c, 0, 60, 55
1, 76871, Control_c, 0, 64, 80
1, 76885, Control_c, 0, 64, 80
1, 76900, Control_c, 0, 64, 79
1, 76915, Control_c, 0, 64, 77
1, 76927, Note_on_c, 0, 68, 67
1, 76930, Control_c, 0, 64, 72
1, 76945, Control_c, 0, 64, 64
1, 76960, Control_c, 0, 64, 50
1, 76962, Note_on_c, 0, 65, 44
1, 76969, Note_on_c, 0, 48, 44
1, 76972, Note_off_c, 0, 64, 46
1, 76975, Control_c, 0, 64, 0
1, 76978, Note_off_c, 0, 60, 36
1, 77036, Note_off_c, 0, 67, 37
1, 77064, Control_c, 0, 64, 39
1, 77078, Control_c, 0, 64, 55
1, 77093, Control_c, 0, 64, 63
1, 77108, Control_c, 0, 64, 66
1, 77115, Note_off_c, 0, 48, 63
1, 77123, Control_c, 0, 64, 68
1, 77138, Control_c, 0, 64, 71
1, 77152, Control_c, 0, 64, 74
1, 77167, Control_c, 0, 64, 76
1, 77182, Control_c, 0, 64, 77
1, 77196, Control_c, 0, 64, 78
1, 77285, Control_c, 0, 64, 76
1, 77289, Note_on_c, 0, 69, 68
1, 77300, Control_c, 0, 64, 70
1, 77315, Control_c, 0, 64, 60
1, 77317, Note_on_c, 0, 62, 48
1, 77326, Note_on_c, 0, 66, 52
1, 77330, Control_c, 0, 64, 40
1, 77352, Control_c, 0, 64, 0
1, 77375, Note_off_c, 0, 62, 61
1, 77377, Note_off_c, 0, 68, 49
1, 77391, Note_on_c, 0, 60, 49
1, 77437, Note_off_c, 0, 60, 63
1, 77453, Note_off_c, 0, 65, 36
1, 77456, Control_c, 0, 64, 34
1, 77460, Note_on_c, 0, 59, 56
1, 77472, Control_c, 0, 64, 44
1, 77487, Control_c, 0, 64, 52
1, 77493, Note_off_c, 0, 59, 65
1, 77501, Control_c, 0, 64, 56
1, 77516, Control_c, 0, 64, 58
1, 77531, Control_c, 0, 64, 58
1, 77568, Note_on_c, 0, 60, 49
1, 77575, Control_c, 0, 64, 59
1, 77605, Control_c, 0, 64, 58
1, 77634, Control_c, 0, 64, 57
1, 77649, Control_c, 0, 64, 56
1, 77664, Control_c, 0, 64, 55
1, 77679, Control_c, 0, 64, 52
1, 77693, Control_c, 0, 64, 48
1, 77708, Note_on_c, 0, 70, 50
1, 77708, Control_c, 0, 64, 40
1, 77717, Note_off_c, 0, 60, 36
1, 77723, Control_c, 0, 64, 0
1, 77724, Note_on_c, 0, 67, 37
1, 77741, Note_on_c, 0, 48, 41
1, 77749, Note_off_c, 0, 69, 53
1, 77761, Note_off_c, 0, 66, 58
1, 77857, Control_c, 0, 64, 30
1, 77872, Control_c, 0, 64, 53
1, 77887, Control_c, 0, 64, 65
1, 77901, Control_c, 0, 64, 73
1, 77913, Note_off_c, 0, 67, 62
1, 77916, Control_c, 0, 64, 80
1, 77931, Control_c, 0, 64, 83
1, 77932, Note_off_c, 0, 70, 64
1, 77945, Control_c, 0, 64, 86
1, 77955, Note_off_c, 0, 48, 60
1, 77960, Control_c, 0, 64, 90
1, 77975, Control_c, 0, 64, 92
1, 77990, Control_c, 0, 64, 93
1, 78101, Control_c, 0, 64, 92
1, 78116, Control_c, 0, 64, 91
1, 78131, Control_c, 0, 64, 89
1, 78146, Control_c, 0, 64, 87
1, 78160, Control_c, 0, 64, 85
1, 78160, Control_c, 0, 67, 47
1, 78175, Control_c, 0, 64, 82
1, 78175, Control_c, 0, 67, 54
1, 78181, Note_on_c, 0, 77, 55
1, 78190, Control_c, 0, 64, 79
1, 78190, Control_c, 0, 67, 63
1, 78205, Control_c, 0, 64, 76
1, 78205, Control_c, 0, 67, 71
1, 78219, Control_c, 0, 64, 72
1, 78219, Control_c, 0, 67, 79
1, 78234, Control_c, 0, 64, 69
1, 78234, Control_c, 0, 67, 85
1, 78245, Note_off_c, 0, 77, 58
1, 78249, Control_c, 0, 64, 65
1, 78249, Control_c, 0, 67, 90
1, 78264, Control_c, 0, 64, 62
1, 78264, Control_c, 0, 67, 91
1, 78268, Note_on_c, 0, 76, 54
1, 78280, Control_c, 0, 64, 59
1, 78295, Control_c, 0, 64, 56
1, 78295, Control_c, 0, 67, 92
1, 78310, Control_c, 0, 64, 53
1, 78319, Note_off_c, 0, 76, 62
1, 78324, Control_c, 0, 64, 48
1, 78339, Control_c, 0, 64, 42
1, 78346, Note_on_c, 0, 74, 59
1, 78354, Control_c, 0, 64, 34
1, 78368, Control_c, 0, 64, 0
1, 78395, Note_off_c, 0, 74, 60
1, 78435, Note_on_c, 0, 76, 57
1, 78517, Note_off_c, 0, 76, 56
1, 78531, Control_c, 0, 67, 91
1, 78559, Note_on_c, 0, 79, 47
1, 78590, Control_c, 0, 67, 90
1, 78620, Control_c, 0, 67, 90
1, 78635, Control_c, 0, 67, 89
1, 78650, Control_c, 0, 67, 87
1, 78665, Control_c, 0, 67, 85
1, 78680, Control_c, 0, 67, 83
1, 78695, Control_c, 0, 67, 79
1, 78709, Control_c, 0, 64, 47
1, 78709, Control_c, 0, 67, 75
1, 78716, Note_off_c, 0, 79, 64
1, 78724, Control_c, 0, 64, 64
1, 78724, Control_c, 0, 67, 72
1, 78739, Control_c, 0, 64, 68
1, 78739, Control_c, 0, 67, 69
1, 78754, Control_c, 0, 64, 71
1, 78754, Control_c, 0, 67, 64
1, 78769, Control_c, 0, 64, 73
1, 78769, Control_c, 0, 67, 61
1, 78784, Control_c, 0, 64, 75
1, 78784, Control_c, 0, 67, 57
1, 78799, Control_c, 0, 64, 78
1, 78799, Control_c, 0, 67, 48
1, 78814, Control_c, 0, 64, 80
1, 78814, Control_c, 0, 67, 0
1, 78829, Control_c, 0, 64, 80
1, 78895, Control_c, 0, 64, 80
1, 78910, Control_c, 0, 64, 78
1, 78924, Control_c, 0, 64, 72
1, 78939, Control_c, 0, 64, 62
1, 78954, Control_c, 0, 64, 47
1, 78966, Note_on_c, 0, 72, 53
1, 78969, Control_c, 0, 64, 0
1, 78975, Note_on_c, 0, 60, 32
1, 78985, Note_on_c, 0, 52, 30
1, 79043, Note_off_c, 0, 72, 60
1, 79043, Control_c, 0, 64, 38
1, 79052, Note_on_c, 0, 70, 59
1, 79058, Control_c, 0, 64, 54
1, 79073, Control_c, 0, 64, 63
1, 79088, Control_c, 0, 64, 68
1, 79100, Note_off_c, 0, 52, 52
1, 79103, Control_c, 0, 64, 73
1, 79118, Control_c, 0, 64, 78
1, 79119, Note_off_c, 0, 70, 64
1, 79133, Control_c, 0, 64, 83
1, 79139, Note_on_c, 0, 69, 64
1, 79148, Note_off_c, 0, 60, 40
1, 79148, Control_c, 0, 64, 88
1, 79163, Control_c, 0, 64, 93
1, 79177, Control_c, 0, 64, 95
1, 79192, Control_c, 0, 64, 96
1, 79204, Note_off_c, 0, 69, 61
1, 79216, Note_on_c, 0, 70, 72
1, 79296, Control_c, 0, 64, 95
1, 79311, Control_c, 0, 64, 88
1, 79318, Note_on_c, 0, 69, 72
1, 79319, Note_off_c, 0, 70, 63
1, 79326, Control_c, 0, 64, 73
1, 79340, Note_on_c, 0, 60, 41
1, 79340, Control_c, 0, 64, 59
1, 79341, Note_on_c, 0, 53, 42
1, 79355, Control_c, 0, 64, 33
1, 79370, Control_c, 0, 64, 0
1, 79414, Control_c, 0, 64, 34
1, 79429, Control_c, 0, 64, 53
1, 79444, Control_c, 0, 64, 66
1, 79446, Note_off_c, 0, 69, 61
1, 79459, Control_c, 0, 64, 73
1, 79473, Control_c, 0, 64, 83
1, 79488, Control_c, 0, 64, 98
1, 79502, Note_off_c, 0, 60, 55
1, 79503, Control_c, 0, 64, 127
1, 79505, Note_off_c, 0, 53, 56
1, 79659, Control_c, 0, 64, 99
1, 79673, Control_c, 0, 64, 76
1, 79686, Note_on_c, 0, 79, 63
1, 79688, Control_c, 0, 64, 58
1, 79703, Control_c, 0, 64, 0
1, 79706, Note_on_c, 0, 60, 26
1, 79716, Note_on_c, 0, 57, 41
1, 79762, Control_c, 0, 64, 30
1, 79774, Note_on_c, 0, 77, 67
1, 79777, Control_c, 0, 64, 53
1, 79790, Note_off_c, 0, 79, 59
1, 79792, Control_c, 0, 64, 66
1, 79806, Control_c, 0, 64, 77
1, 79810, Note_off_c, 0, 57, 61
1, 79821, Control_c, 0, 64, 100
1, 79836, Control_c, 0, 64, 127
1, 79845, Note_off_c, 0, 77, 63
1, 79848, Note_on_c, 0, 76, 77
1, 79860, Note_off_c, 0, 60, 36
1, 79927, Note_on_c, 0, 77, 79
1, 79927, Note_off_c, 0, 76, 60
1, 79993, Note_off_c, 0, 77, 63
1, 80015, Control_c, 0, 64, 88
1, 80015, Note_on_c, 0, 74, 82
1, 80030, Control_c, 0, 64, 59
1, 80045, Control_c, 0, 64, 0
1, 80056, Note_on_c, 0, 62, 47
1, 80068, Note_on_c, 0, 58, 42
1, 80082, Note_off_c, 0, 74, 62
1, 80089, Control_c, 0, 64, 40
1, 80104, Control_c, 0, 64, 60
1, 80119, Control_c, 0, 64, 74
1, 80134, Control_c, 0, 64, 96
1, 80149, Control_c, 0, 64, 127
1, 80185, Note_off_c, 0, 62, 59
1, 80185, Note_on_c, 0, 82, 70
1, 80186, Note_off_c, 0, 58, 61
1, 80233, Note_off_c, 0, 82, 61
1, 80274, Note_on_c, 0, 84, 66
1, 80309, Note_off_c, 0, 84, 60
1, 80328, Note_on_c, 0, 82, 68
1, 80358, Note_off_c, 0, 82, 70
1, 80361, Control_c, 0, 64, 87
1, 80376, Control_c, 0, 64, 66
1, 80378, Note_on_c, 0, 81, 72
1, 80391, Control_c, 0, 64, 44
1, 80406, Control_c, 0, 64, 0
1, 80424, Note_on_c, 0, 67, 45
1, 80425, Note_on_c, 0, 55, 39
1, 80428, Note_on_c, 0, 82, 75
1, 80431, Note_off_c, 0, 81, 62
1, 80495, Control_c, 0, 67, 47
1, 80510, Control_c, 0, 67, 58
1, 80525, Note_off_c, 0, 82, 58
1, 80525, Control_c, 0, 67, 66
1, 80539, Control_c, 0, 67, 73
1, 80554, Control_c, 0, 67, 79
1, 80569, Control_c, 0, 64, 49
1, 80569, Control_c, 0, 67, 82
1, 80584, Control_c, 0, 64, 61
1, 80584, Control_c, 0, 67, 83
1, 80599, Control_c, 0, 64, 65
1, 80607, Note_off_c, 0, 55, 61
1, 80614, Control_c, 0, 64, 68
1, 80614, Control_c, 0, 67, 84
1, 80628, Control_c, 0, 64, 72
1, 80633, Note_on_c, 0, 84, 76
1, 80643, Control_c, 0, 64, 74
1, 80643, Control_c, 0, 67, 85
1, 80658, Control_c, 0, 64, 76
1, 80663, Note_off_c, 0, 67, 37
1, 80674, Control_c, 0, 64, 77
1, 80674, Control_c, 0, 67, 85
1, 80689, Control_c, 0, 67, 86
1, 80689, Note_off_c, 0, 84, 64
1, 80704, Control_c, 0, 67, 87
1, 80718, Control_c, 0, 67, 88
1, 80728, Note_on_c, 0, 86, 79
1, 80748, Control_c, 0, 64, 76
1, 80748, Control_c, 0, 67, 88
1, 80762, Control_c, 0, 67, 90
1, 80777, Control_c, 0, 64, 76
1, 80777, Control_c, 0, 67, 99
1, 80786, Note_off_c, 0, 86, 61
1, 80792, Control_c, 0, 64, 75
1, 80792, Control_c, 0, 67, 107
1, 80807, Control_c, 0, 64, 73
1, 80807, Control_c, 0, 67, 109
1, 80822, Control_c, 0, 64, 71
1, 80836, Control_c, 0, 64, 70
1, 80851, Control_c, 0, 64, 68
1, 80866, Control_c, 0, 64, 66
1, 80881, Control_c, 0, 64, 65
1, 80890, Note_on_c, 0, 77, 70
1, 80896, Control_c, 0, 64, 63
1, 80910, Control_c, 0, 64, 60
1, 80925, Control_c, 0, 64, 56
1, 80940, Control_c, 0, 64, 52
1, 80942, Note_on_c, 0, 69, 40
1, 80945, Note_on_c, 0, 60, 35
1, 80955, Control_c, 0, 64, 47
1, 80969, Control_c, 0, 64, 35
1, 80984, Control_c, 0, 64, 0
1, 81096, Control_c, 0, 67, 107
1, 81243, Control_c, 0, 64, 31
1, 81258, Control_c, 0, 64, 45
1, 81273, Control_c, 0, 64, 57
1, 81288, Control_c, 0, 64, 62
1, 81303, Control_c, 0, 64, 64
1, 81318, Control_c, 0, 64, 66
1, 81333, Control_c, 0, 64, 68
1, 81348, Control_c, 0, 64, 71
1, 81362, Control_c, 0, 64, 73
1, 81377, Control_c, 0, 64, 76
1, 81392, Control_c, 0, 64, 79
1, 81400, Note_off_c, 0, 69, 61
1, 81407, Control_c, 0, 64, 81
1, 81407, Control_c, 0, 67, 105
1, 81422, Control_c, 0, 64, 83
1, 81436, Control_c, 0, 64, 85
1, 81451, Control_c, 0, 64, 86
1, 81467, Control_c, 0, 64, 86
1, 81482, Control_c, 0, 64, 87
1, 81511, Control_c, 0, 64, 87
1, 81563, Note_off_c, 0, 60, 37
1, 81627, Note_off_c, 0, 77, 53
1, 81630, Control_c, 0, 67, 103
1, 81734, Control_c, 0, 67, 101
1, 81757, Note_on_c, 0, 76, 52
1, 81782, Note_on_c, 0, 67, 37
1, 81860, Control_c, 0, 64, 86
1, 81874, Control_c, 0, 64, 82
1, 81889, Control_c, 0, 64, 69
1, 81904, Control_c, 0, 64, 54
1, 81919, Control_c, 0, 64, 0
1, 81948, Control_c, 0, 67, 98
1, 81963, Control_c, 0, 64, 42
1, 81965, Note_on_c, 0, 62, 48
1, 81976, Note_on_c, 0, 58, 46
1, 81978, Control_c, 0, 64, 55
1, 81978, Control_c, 0, 67, 95
1, 81992, Control_c, 0, 64, 64
1, 81992, Control_c, 0, 67, 94
1, 82007, Control_c, 0, 64, 69
1, 82007, Control_c, 0, 67, 93
1, 82022, Control_c, 0, 64, 76
1, 82022, Control_c, 0, 67, 92
1, 82037, Control_c, 0, 64, 81
1, 82037, Control_c, 0, 67, 91
1, 82048, Note_off_c, 0, 62, 58
1, 82052, Control_c, 0, 64, 83
1, 82066, Control_c, 0, 64, 84
1, 82095, Note_off_c, 0, 67, 49
1, 82096, Control_c, 0, 64, 84
1, 82111, Control_c, 0, 64, 82
1, 82111, Note_off_c, 0, 76, 57
1, 82114, Note_off_c, 0, 58, 54
1, 82126, Control_c, 0, 64, 79
1, 82140, Control_c, 0, 64, 77
1, 82140, Control_c, 0, 67, 90
1, 82152, Note_on_c, 0, 60, 63
1, 82155, Control_c, 0, 64, 76
1, 82155, Control_c, 0, 67, 89
1, 82159, Note_on_c, 0, 57, 62
1, 82170, Control_c, 0, 67, 87
1, 82185, Control_c, 0, 67, 85
1, 82200, Control_c, 0, 67, 84
1, 82215, Control_c, 0, 67, 83
1, 82230, Control_c, 0, 64, 76
1, 82230, Control_c, 0, 67, 81
1, 82245, Control_c, 0, 67, 79
1, 82260, Control_c, 0, 67, 77
1, 82275, Control_c, 0, 64, 75
1, 82275, Control_c, 0, 67, 74
1, 82289, Control_c, 0, 64, 74
1, 82289, Control_c, 0, 67, 67
1, 82297, Note_off_c, 0, 57, 57
1, 82304, Control_c, 0, 64, 72
1, 82304, Control_c, 0, 67, 53
1, 82319, Control_c, 0, 64, 69
1, 82319, Control_c, 0, 67, 0
1, 82326, Note_on_c, 0, 55, 66
1, 82327, Note_on_c, 0, 58, 70
1, 82334, Note_off_c, 0, 60, 38
1, 82334, Control_c, 0, 64, 67
1, 82349, Control_c, 0, 64, 66
1, 82364, Control_c, 0, 64, 64
1, 82379, Control_c, 0, 64, 63
1, 82394, Control_c, 0, 64, 61
1, 82408, Control_c, 0, 64, 61
1, 82423, Control_c, 0, 64, 60
1, 82438, Control_c, 0, 64, 59
1, 82453, Control_c, 0, 64, 58
1, 82468, Control_c, 0, 64, 57
1, 82483, Control_c, 0, 64, 57
1, 82497, Control_c, 0, 64, 56
1, 82512, Control_c, 0, 64, 55
1, 82527, Control_c, 0, 64, 55
1, 82541, Control_c, 0, 64, 54
1, 82556, Control_c, 0, 64, 53
1, 82570, Note_on_c, 0, 57, 58
1, 82571, Control_c, 0, 64, 52
1, 82594, Control_c, 0, 64, 51
1, 82594, Note_on_c, 0, 53, 55
1, 82608, Control_c, 0, 64, 49
1, 82623, Control_c, 0, 64, 47
1, 82638, Control_c, 0, 64, 45
1, 82638, Note_off_c, 0, 55, 52
1, 82640, Note_off_c, 0, 58, 56
1, 82653, Control_c, 0, 64, 42
1, 82668, Control_c, 0, 64, 38
1, 82683, Control_c, 0, 64, 33
1, 82697, Control_c, 0, 64, 0
1, 82978, Control_c, 0, 64, 34
1, 82993, Control_c, 0, 64, 45
1, 83008, Control_c, 0, 64, 55
1, 83023, Control_c, 0, 64, 59
1, 83038, Control_c, 0, 64, 60
1, 83053, Control_c, 0, 64, 61
1, 83068, Control_c, 0, 64, 63
1, 83083, Control_c, 0, 64, 64
1, 83098, Control_c, 0, 64, 66
1, 83112, Control_c, 0, 64, 67
1, 83127, Control_c, 0, 64, 67
1, 83142, Control_c, 0, 64, 68
1, 83157, Control_c, 0, 64, 69
1, 83172, Control_c, 0, 64, 69
1, 83202, Control_c, 0, 64, 70
1, 83327, Note_on_c, 0, 58, 53
1, 83357, Note_on_c, 0, 55, 45
1, 83357, Control_c, 0, 64, 69
1, 83372, Control_c, 0, 64, 66
1, 83386, Control_c, 0, 64, 58
1, 83389, Note_off_c, 0, 53, 34
1, 83401, Control_c, 0, 64, 35
1, 83416, Control_c, 0, 64, 0
1, 83452, Note_off_c, 0, 57, 53
1, 83491, Control_c, 0, 64, 41
1, 83506, Control_c, 0, 64, 57
1, 83520, Control_c, 0, 64, 67
1, 83535, Control_c, 0, 64, 71
1, 83550, Control_c, 0, 64, 76
1, 83564, Control_c, 0, 64, 80
1, 83579, Control_c, 0, 64, 85
1, 83586, Note_off_c, 0, 58, 60
1, 83594, Control_c, 0, 64, 88
1, 83609, Control_c, 0, 64, 89
1, 83624, Control_c, 0, 64, 90
1, 83712, Control_c, 0, 64, 89
1, 83722, Note_on_c, 0, 56, 60
1, 83723, Note_on_c, 0, 59, 65
1, 83727, Control_c, 0, 64, 78
1, 83742, Control_c, 0, 64, 62
1, 83757, Control_c, 0, 64, 36
1, 83762, Note_off_c, 0, 55, 54
1, 83771, Control_c, 0, 64, 0
1, 83801, Control_c, 0, 64, 33
1, 83816, Control_c, 0, 64, 52
1, 83831, Control_c, 0, 64, 64
1, 83846, Control_c, 0, 64, 69
1, 83861, Control_c, 0, 64, 74
1, 83868, Note_off_c, 0, 56, 63
1, 83876, Control_c, 0, 64, 79
1, 83891, Control_c, 0, 64, 84
1, 83900, Note_off_c, 0, 59, 63
1, 83906, Control_c, 0, 64, 87
1, 83921, Control_c, 0, 64, 91
1, 83935, Control_c, 0, 64, 93
1, 83950, Control_c, 0, 64, 93
1, 84069, Control_c, 0, 64, 93
1, 84106, Control_c, 0, 64, 91
1, 84121, Control_c, 0, 64, 88
1, 84135, Control_c, 0, 64, 83
1, 84150, Control_c, 0, 64, 77
1, 84160, Note_on_c, 0, 76, 66
1, 84165, Control_c, 0, 64, 69
1, 84176, Note_on_c, 0, 60, 44
1, 84179, Note_on_c, 0, 57, 39
1, 84180, Control_c, 0, 64, 60
1, 84194, Control_c, 0, 64, 43
1, 84206, Note_off_c, 0, 76, 54
1, 84209, Control_c, 0, 64, 0
1, 84227, Note_on_c, 0, 77, 70
1, 84269, Control_c, 0, 64, 33
1, 84282, Note_off_c, 0, 77, 62
1, 84284, Control_c, 0, 64, 52
1, 84287, Note_on_c, 0, 79, 73
1, 84299, Control_c, 0, 64, 64
1, 84313, Control_c, 0, 64, 70
1, 84320, Note_off_c, 0, 57, 65
1, 84322, Note_off_c, 0, 60, 63
1, 84328, Control_c, 0, 64, 77
1, 84343, Control_c, 0, 64, 83
1, 84358, Control_c, 0, 64, 88
1, 84360, Note_on_c, 0, 77, 84
1, 84373, Control_c, 0, 64, 93
1, 84381, Note_off_c, 0, 79, 59
1, 84387, Control_c, 0, 64, 97
1, 84402, Control_c, 0, 64, 100
1, 84432, Control_c, 0, 64, 103
1, 84510, Note_on_c, 0, 69, 62
1, 84519, Note_on_c, 0, 65, 59
1, 84520, Control_c, 0, 64, 99
1, 84535, Control_c, 0, 64, 78
1, 84550, Control_c, 0, 64, 60
1, 84565, Control_c, 0, 64, 0
1, 84624, Control_c, 0, 64, 46
1, 84639, Control_c, 0, 64, 63
1, 84655, Control_c, 0, 64, 69
1, 84670, Control_c, 0, 64, 76
1, 84684, Control_c, 0, 64, 82
1, 84699, Control_c, 0, 64, 89
1, 84714, Control_c, 0, 64, 96
1, 84729, Control_c, 0, 64, 103
1, 84731, Note_off_c, 0, 69, 54
1, 84743, Note_off_c, 0, 65, 55
1, 84744, Control_c, 0, 64, 110
1, 84758, Control_c, 0, 64, 116
1, 84773, Control_c, 0, 64, 119
1, 84796, Note_off_c, 0, 77, 57
1, 84889, Note_on_c, 0, 76, 81
1, 84899, Control_c, 0, 64, 117
1, 84909, Note_on_c, 0, 70, 52
1, 84912, Note_on_c, 0, 67, 47
1, 84914, Control_c, 0, 64, 109
1, 84929, Control_c, 0, 64, 97
1, 84943, Control_c, 0, 64, 82
1, 84958, Control_c, 0, 64, 64
1, 84973, Control_c, 0, 64, 37
1, 84988, Control_c, 0, 64, 0
1, 85062, Control_c, 0, 64, 44
1, 85077, Note_off_c, 0, 70, 62
1, 85077, Control_c, 0, 64, 59
1, 85091, Note_off_c, 0, 67, 61
1, 85092, Control_c, 0, 64, 66
1, 85106, Control_c, 0, 64, 70
1, 85121, Control_c, 0, 64, 74
1, 85136, Control_c, 0, 64, 78
1, 85147, Note_off_c, 0, 76, 60
1, 85151, Control_c, 0, 64, 83
1, 85166, Control_c, 0, 64, 86
1, 85181, Control_c, 0, 64, 87
1, 85210, Control_c, 0, 64, 88
1, 85299, Control_c, 0, 64, 87
1, 85300, Note_on_c, 0, 75, 73
1, 85314, Control_c, 0, 64, 87
1, 85315, Note_on_c, 0, 72, 42
1, 85328, Note_on_c, 0, 69, 41
1, 85329, Control_c, 0, 64, 85
1, 85343, Control_c, 0, 64, 81
1, 85358, Control_c, 0, 64, 72
1, 85373, Control_c, 0, 64, 62
1, 85388, Control_c, 0, 64, 42
1, 85403, Control_c, 0, 64, 0
1, 85478, Control_c, 0, 64, 36
1, 85494, Control_c, 0, 64, 56
1, 85508, Control_c, 0, 64, 66
1, 85509, Note_off_c, 0, 69, 62
1, 85512, Note_off_c, 0, 72, 62
1, 85523, Control_c, 0, 64, 71
1, 85538, Control_c, 0, 64, 77
1, 85552, Control_c, 0, 64, 82
1, 85554, Note_off_c, 0, 75, 61
1, 85567, Control_c, 0, 64, 86
1, 85589, Control_c, 0, 64, 89
1, 85604, Control_c, 0, 64, 91
1, 85619, Control_c, 0, 64, 92
1, 85634, Control_c, 0, 64, 92
1, 85786, Note_on_c, 0, 74, 60
1, 85797, Control_c, 0, 64, 92
1, 85827, Control_c, 0, 64, 91
1, 85841, Control_c, 0, 64, 86
1, 85849, Note_on_c, 0, 70, 40
1, 85856, Control_c, 0, 64, 72
1, 85871, Control_c, 0, 64, 52
1, 85886, Control_c, 0, 64, 0
1, 85945, Control_c, 0, 64, 44
1, 85959, Control_c, 0, 64, 60
1, 85974, Control_c, 0, 64, 69
1, 85989, Control_c, 0, 64, 74
1, 85999, Note_off_c, 0, 70, 55
1, 86004, Control_c, 0, 64, 78
1, 86019, Control_c, 0, 64, 81
1, 86034, Control_c, 0, 64, 84
1, 86039, Note_off_c, 0, 74, 64
1, 86048, Control_c, 0, 64, 86
1, 86063, Control_c, 0, 64, 87
1, 86078, Control_c, 0, 64, 88
1, 86271, Control_c, 0, 64, 87
1, 86281, Note_on_c, 0, 58, 15
1, 86316, Control_c, 0, 67, 37
1, 86325, Note_off_c, 0, 58, 52
1, 86335, Note_on_c, 0, 77, 51
1, 86338, Control_c, 0, 64, 86
1, 86338, Control_c, 0, 67, 49
1, 86352, Control_c, 0, 64, 84
1, 86352, Control_c, 0, 67, 62
1, 86367, Control_c, 0, 64, 82
1, 86367, Control_c, 0, 67, 75
1, 86373, Note_off_c, 0, 77, 53
1, 86382, Control_c, 0, 64, 79
1, 86382, Control_c, 0, 67, 85
1, 86382, Note_on_c, 0, 82, 68
1, 86397, Control_c, 0, 64, 77
1, 86397, Control_c, 0, 67, 94
1, 86412, Control_c, 0, 64, 75
1, 86412, Control_c, 0, 67, 103
1, 86412, Note_off_c, 0, 82, 63
1, 86427, Control_c, 0, 64, 71
1, 86427, Control_c, 0, 67, 109
1, 86442, Control_c, 0, 64, 66
1, 86442, Control_c, 0, 67, 115
1, 86453, Note_on_c, 0, 86, 56
1, 86456, Control_c, 0, 64, 61
1, 86456, Control_c, 0, 67, 122
1, 86471, Control_c, 0, 64, 54
1, 86471, Control_c, 0, 67, 127
1, 86475, Note_off_c, 0, 86, 62
1, 86486, Control_c, 0, 64, 40
1, 86487, Note_on_c, 0, 89, 70
1, 86501, Control_c, 0, 64, 0
1, 86544, Note_on_c, 0, 86, 71
1, 86573, Note_off_c, 0, 89, 62
1, 86588, Note_off_c, 0, 86, 65
1, 86589, Note_on_c, 0, 82, 77
1, 86611, Note_off_c, 0, 82, 69
1, 86613, Note_on_c, 0, 77, 69
1, 86638, Note_off_c, 0, 77, 68
1, 86696, Note_on_c, 0, 70, 49
1, 86704, Note_on_c, 0, 74, 50
1, 86795, Note_off_c, 0, 74, 63
1, 86804, Note_off_c, 0, 70, 63
1, 87061, Note_on_c, 0, 72, 63
1, 87080, Note_on_c, 0, 69, 42
1, 87082, Note_on_c, 0, 66, 42
1, 87101, Control_c, 0, 67, 123
1, 87116, Control_c, 0, 67, 119
1, 87131, Control_c, 0, 67, 113
1, 87145, Control_c, 0, 67, 102
1, 87160, Control_c, 0, 67, 71
1, 87175, Control_c, 0, 67, 0
1, 87176, Note_off_c, 0, 69, 63
1, 87200, Note_off_c, 0, 66, 64
1, 87219, Note_off_c, 0, 72, 63
1, 87500, Note_on_c, 0, 70, 49
1, 87537, Note_on_c, 0, 67, 39
1, 87604, Control_c, 0, 64, 35
1, 87619, Control_c, 0, 64, 49
1, 87634, Control_c, 0, 64, 60
1, 87636, Note_off_c, 0, 67, 62
1, 87649, Control_c, 0, 64, 63
1, 87664, Control_c, 0, 64, 65
1, 87679, Control_c, 0, 64, 67
1, 87694, Control_c, 0, 64, 71
1, 87709, Control_c, 0, 64, 75
1, 87723, Control_c, 0, 64, 78
1, 87738, Control_c, 0, 64, 80
1, 87753, Control_c, 0, 64, 82
1, 87768, Control_c, 0, 64, 84
1, 87783, Control_c, 0, 64, 85
1, 87797, Control_c, 0, 64, 85
1, 87908, Note_on_c, 0, 55, 42
1, 87909, Control_c, 0, 64, 84
1, 87924, Control_c, 0, 64, 80
1, 87939, Control_c, 0, 64, 70
1, 87950, Note_off_c, 0, 55, 50
1, 87954, Control_c, 0, 64, 57
1, 87961, Note_off_c, 0, 70, 59
1, 87968, Control_c, 0, 64, 0
1, 87968, Control_c, 0, 67, 51
1, 87975, Note_on_c, 0, 74, 35
1, 87983, Control_c, 0, 67, 84
1, 87998, Control_c, 0, 67, 117
1, 88000, Note_on_c, 0, 79, 61
1, 88002, Note_off_c, 0, 74, 49
1, 88013, Control_c, 0, 67, 127
1, 88043, Note_off_c, 0, 79, 53
1, 88058, Note_on_c, 0, 82, 68
1, 88085, Note_off_c, 0, 82, 63
1, 88104, Note_on_c, 0, 86, 65
1, 88146, Note_on_c, 0, 82, 70
1, 88150, Note_off_c, 0, 86, 61
1, 88191, Note_on_c, 0, 79, 62
1, 88192, Note_off_c, 0, 82, 65
1, 88219, Note_off_c, 0, 79, 67
1, 88222, Note_on_c, 0, 74, 76
1, 88243, Note_off_c, 0, 74, 71
1, 88291, Note_on_c, 0, 70, 56
1, 88296, Note_on_c, 0, 64, 54
1, 88304, Note_on_c, 0, 67, 49
1, 88385, Note_off_c, 0, 70, 62
1, 88394, Note_off_c, 0, 67, 62
1, 88409, Note_off_c, 0, 64, 63
1, 88658, Note_on_c, 0, 69, 60
1, 88673, Note_on_c, 0, 65, 48
1, 88768, Note_off_c, 0, 65, 63
1, 88800, Note_off_c, 0, 69, 61
1, 89082, Note_on_c, 0, 67, 58
1, 89123, Note_on_c, 0, 46, 35
1, 89252, Control_c, 0, 64, 29
1, 89267, Control_c, 0, 64, 45
1, 89282, Control_c, 0, 64, 56
1, 89282, Control_c, 0, 67, 120
1, 89297, Control_c, 0, 64, 61
1, 89297, Control_c, 0, 67, 89
1, 89311, Control_c, 0, 64, 64
1, 89311, Control_c, 0, 67, 47
1, 89333, Control_c, 0, 64, 67
1, 89333, Control_c, 0, 67, 0
1, 89348, Control_c, 0, 64, 71
1, 89363, Control_c, 0, 64, 75
1, 89378, Control_c, 0, 64, 79
1, 89393, Control_c, 0, 64, 84
1, 89408, Control_c, 0, 64, 89
1, 89423, Control_c, 0, 64, 94
1, 89438, Control_c, 0, 64, 103
1, 89453, Control_c, 0, 64, 110
1, 89468, Control_c, 0, 64, 119
1, 89479, Note_on_c, 0, 74, 58
1, 89482, Control_c, 0, 64, 127
1, 89508, Note_off_c, 0, 46, 52
1, 89566, Note_on_c, 0, 50, 52
1, 89596, Note_off_c, 0, 67, 54
1, 89608, Note_off_c, 0, 50, 64
1, 89618, Note_on_c, 0, 54, 62
1, 89652, Note_off_c, 0, 54, 64
1, 89681, Note_on_c, 0, 55, 66
1, 89711, Note_off_c, 0, 55, 65
1, 89749, Note_on_c, 0, 58, 62
1, 89749, Control_c, 0, 64, 96
1, 89764, Control_c, 0, 64, 75
1, 89779, Control_c, 0, 64, 58
1, 89794, Note_off_c, 0, 58, 63
1, 89794, Control_c, 0, 64, 33
1, 89797, Note_on_c, 0, 60, 72
1, 89808, Control_c, 0, 64, 0
1, 89843, Note_off_c, 0, 60, 64
1, 89867, Note_on_c, 0, 70, 55
1, 89876, Note_on_c, 0, 62, 78
1, 89899, Note_off_c, 0, 74, 60
1, 89921, Note_off_c, 0, 70, 58
1, 89950, Note_off_c, 0, 62, 58
1, 90395, Note_on_c, 0, 64, 44
1, 90402, Note_on_c, 0, 58, 40
1, 90404, Note_on_c, 0, 55, 35
1, 90408, Note_on_c, 0, 48, 33
1, 90502, Note_off_c, 0, 48, 57
1, 90505, Note_off_c, 0, 55, 61
1, 90508, Note_off_c, 0, 64, 63
1, 90522, Note_off_c, 0, 58, 56
1, 90528, Control_c, 0, 67, 63
1, 90543, Control_c, 0, 67, 109
1, 90557, Control_c, 0, 67, 127
1, 90857, Note_on_c, 0, 67, 39
1, 90861, Note_on_c, 0, 58, 36
1, 90867, Note_on_c, 0, 53, 39
1, 90869, Note_on_c, 0, 64, 35
1, 91009, Note_off_c, 0, 53, 60
1, 91301, Note_on_c, 0, 48, 50
1, 91444, Note_off_c, 0, 64, 50
1, 91465, Note_off_c, 0, 48, 61
1, 91529, Note_off_c, 0, 58, 50
1, 91839, Note_on_c, 0, 65, 33
1, 91850, Note_on_c, 0, 57, 30
1, 91867, Note_on_c, 0, 41, 30
1, 91989, Note_off_c, 0, 67, 35
1, 92343, Note_off_c, 0, 65, 30
1, 92370, Note_off_c, 0, 41, 33
1, 92397, Note_off_c, 0, 57, 35
1, 93655, Control_c, 0, 64, 32
1, 93670, Control_c, 0, 64, 37
1, 93685, Control_c, 0, 64, 41
1, 93699, Control_c, 0, 64, 46
1, 93714, Control_c, 0, 64, 49
1, 93729, Control_c, 0, 64, 53
1, 93744, Control_c, 0, 64, 54
1, 93759, Control_c, 0, 64, 55
1, 93773, Control_c, 0, 64, 56
1, 93788, Control_c, 0, 64, 57
1, 93803, Control_c, 0, 64, 57
1, 93826, Control_c, 0, 64, 58
1, 93840, Control_c, 0, 64, 58
1, 93870, Control_c, 0, 64, 59
1, 93899, Control_c, 0, 64, 59
1, 93914, Control_c, 0, 64, 60
1, 93919, Note_on_c, 0, 56, 34
1, 93929, Control_c, 0, 64, 60
1, 93937, Note_on_c, 0, 53, 28
1, 93959, Control_c, 0, 64, 61
1, 94077, Control_c, 0, 64, 61
1, 94091, Control_c, 0, 64, 62
1, 94106, Control_c, 0, 64, 62
1, 94121, Control_c, 0, 64, 63
1, 94136, Control_c, 0, 64, 63
1, 94151, Control_c, 0, 64, 64
1, 94165, Control_c, 0, 64, 65
1, 94180, Control_c, 0, 64, 65
1, 94195, Control_c, 0, 64, 66
1, 94210, Control_c, 0, 64, 66
1, 94241, Control_c, 0, 64, 67
1, 94270, Control_c, 0, 64, 67
1, 94285, Control_c, 0, 64, 68
1, 94300, Control_c, 0, 64, 68
1, 94314, Control_c, 0, 64, 69
1, 94344, Control_c, 0, 64, 70
1, 94374, Control_c, 0, 64, 70
1, 94389, Control_c, 0, 64, 71
1, 94420, Note_on_c, 0, 60, 31
1, 94508, Control_c, 0, 64, 71
1, 94569, Note_off_c, 0, 56, 38
1, 94596, Note_off_c, 0, 60, 41
1, 94601, Note_on_c, 0, 84, 53
1, 94650, Note_off_c, 0, 53, 37
1, 94702, Note_off_c, 0, 84, 53
1, 94807, Note_on_c, 0, 55, 30
1, 94809, Note_on_c, 0, 52, 33
1, 94811, Control_c, 0, 64, 71
1, 94944, Control_c, 0, 64, 70
1, 94959, Control_c, 0, 64, 68
1, 94974, Control_c, 0, 64, 64
1, 94982, Note_on_c, 0, 85, 59
1, 94988, Control_c, 0, 64, 59
1, 95003, Control_c, 0, 64, 52
1, 95003, Control_c, 0, 67, 125
1, 95018, Control_c, 0, 64, 47
1, 95018, Control_c, 0, 67, 101
1, 95033, Control_c, 0, 64, 44
1, 95033, Control_c, 0, 67, 84
1, 95049, Control_c, 0, 67, 68
1, 95064, Control_c, 0, 64, 46
1, 95064, Control_c, 0, 67, 51
1, 95079, Control_c, 0, 64, 48
1, 95079, Control_c, 0, 67, 0
1, 95093, Control_c, 0, 64, 51
1, 95108, Control_c, 0, 64, 54
1, 95123, Control_c, 0, 64, 57
1, 95136, Note_off_c, 0, 85, 56
1, 95137, Control_c, 0, 64, 59
1, 95152, Control_c, 0, 64, 61
1, 95167, Control_c, 0, 64, 62
1, 95175, Note_on_c, 0, 60, 39
1, 95182, Control_c, 0, 64, 64
1, 95197, Control_c, 0, 64, 65
1, 95212, Control_c, 0, 64, 67
1, 95227, Control_c, 0, 64, 69
1, 95242, Control_c, 0, 64, 70
1, 95257, Control_c, 0, 64, 72
1, 95271, Control_c, 0, 64, 73
1, 95286, Control_c, 0, 64, 74
1, 95301, Control_c, 0, 64, 74
1, 95324, Control_c, 0, 64, 75
1, 95339, Control_c, 0, 64, 75
1, 95341, Note_off_c, 0, 55, 42
1, 95353, Control_c, 0, 64, 76
1, 95358, Note_on_c, 0, 84, 59
1, 95368, Control_c, 0, 64, 76
1, 95383, Control_c, 0, 64, 77
1, 95397, Note_off_c, 0, 60, 36
1, 95413, Control_c, 0, 64, 77
1, 95444, Note_off_c, 0, 84, 49
1, 95533, Note_off_c, 0, 52, 32
1, 95562, Note_on_c, 0, 56, 38
1, 95576, Note_on_c, 0, 53, 32
1, 95665, Control_c, 0, 64, 77
1, 95679, Control_c, 0, 64, 75
1, 95694, Control_c, 0, 64, 70
1, 95709, Control_c, 0, 64, 61
1, 95724, Control_c, 0, 64, 48
1, 95738, Note_on_c, 0, 82, 62
1, 95739, Control_c, 0, 64, 32
1, 95753, Control_c, 0, 64, 0
1, 95768, Control_c, 0, 64, 29
1, 95783, Control_c, 0, 64, 37
1, 95798, Control_c, 0, 64, 46
1, 95813, Control_c, 0, 64, 55
1, 95827, Control_c, 0, 64, 61
1, 95843, Control_c, 0, 64, 64
1, 95858, Control_c, 0, 64, 65
1, 95873, Control_c, 0, 64, 68
1, 95887, Control_c, 0, 64, 70
1, 95902, Control_c, 0, 64, 73
1, 95917, Control_c, 0, 64, 75
1, 95930, Note_off_c, 0, 82, 50
1, 95932, Control_c, 0, 64, 76
1, 95947, Control_c, 0, 64, 77
1, 95950, Note_on_c, 0, 60, 47
1, 95961, Control_c, 0, 64, 79
1, 95976, Control_c, 0, 64, 80
1, 95991, Control_c, 0, 64, 81
1, 96006, Control_c, 0, 64, 82
1, 96034, Note_off_c, 0, 53, 61
1, 96035, Control_c, 0, 64, 83
1, 96040, Note_off_c, 0, 56, 59
1, 96050, Control_c, 0, 64, 83
1, 96073, Control_c, 0, 64, 84
1, 96099, Note_off_c, 0, 60, 62
1, 96102, Control_c, 0, 64, 84
1, 96126, Note_on_c, 0, 80, 65
1, 96147, Control_c, 0, 64, 85
1, 96285, Note_off_c, 0, 80, 56
1, 96317, Note_on_c, 0, 56, 48
1, 96326, Note_on_c, 0, 60, 45
1, 96354, Control_c, 0, 64, 84
1, 96368, Control_c, 0, 64, 84
1, 96383, Control_c, 0, 64, 82
1, 96398, Control_c, 0, 64, 79
1, 96413, Control_c, 0, 64, 74
1, 96428, Control_c, 0, 64, 68
1, 96443, Control_c, 0, 64, 59
1, 96458, Control_c, 0, 64, 44
1, 96473, Control_c, 0, 64, 0
1, 96508, Note_on_c, 0, 79, 57
1, 96532, Control_c, 0, 64, 42
1, 96547, Control_c, 0, 64, 55
1, 96562, Control_c, 0, 64, 63
1, 96576, Control_c, 0, 64, 67
1, 96591, Control_c, 0, 64, 71
1, 96606, Control_c, 0, 64, 74
1, 96620, Control_c, 0, 64, 78
1, 96637, Control_c, 0, 64, 81
1, 96642, Note_off_c, 0, 79, 57
1, 96651, Control_c, 0, 64, 84
1, 96666, Control_c, 0, 64, 86
1, 96681, Control_c, 0, 64, 88
1, 96692, Note_on_c, 0, 65, 41
1, 96696, Control_c, 0, 64, 90
1, 96711, Control_c, 0, 64, 91
1, 96724, Control_c, 0, 64, 92
1, 96739, Control_c, 0, 64, 93
1, 96754, Control_c, 0, 64, 94
1, 96769, Control_c, 0, 64, 95
1, 96783, Note_off_c, 0, 60, 61
1, 96798, Control_c, 0, 64, 97
1, 96802, Note_off_c, 0, 56, 38
1, 96836, Control_c, 0, 64, 100
1, 96852, Note_off_c, 0, 65, 55
1, 96865, Control_c, 0, 64, 102
1, 96873, Note_on_c, 0, 77, 59
1, 96948, Note_off_c, 0, 77, 58
1, 97065, Note_on_c, 0, 58, 46
1, 97072, Note_on_c, 0, 61, 42
1, 97087, Control_c, 0, 64, 100
1, 97102, Control_c, 0, 64, 96
1, 97117, Control_c, 0, 64, 90
1, 97131, Control_c, 0, 64, 82
1, 97146, Control_c, 0, 64, 72
1, 97161, Control_c, 0, 64, 61
1, 97176, Control_c, 0, 64, 45
1, 97191, Control_c, 0, 64, 0
1, 97245, Note_on_c, 0, 76, 71
1, 97250, Control_c, 0, 64, 28
1, 97265, Control_c, 0, 64, 42
1, 97280, Control_c, 0, 64, 55
1, 97295, Control_c, 0, 64, 63
1, 97310, Control_c, 0, 64, 66
1, 97324, Control_c, 0, 64, 68
1, 97339, Control_c, 0, 64, 71
1, 97354, Control_c, 0, 64, 74
1, 97369, Control_c, 0, 64, 77
1, 97384, Control_c, 0, 64, 79
1, 97398, Control_c, 0, 64, 82
1, 97413, Control_c, 0, 64, 83
1, 97428, Control_c, 0, 64, 85
1, 97444, Control_c, 0, 64, 86
1, 97459, Control_c, 0, 64, 87
1, 97461, Note_on_c, 0, 67, 45
1, 97473, Control_c, 0, 64, 87
1, 97503, Control_c, 0, 64, 88
1, 97533, Control_c, 0, 64, 88
1, 97536, Note_off_c, 0, 61, 57
1, 97583, Note_off_c, 0, 58, 37
1, 97642, Note_on_c, 0, 77, 56
1, 97652, Note_off_c, 0, 67, 35
1, 97690, Note_off_c, 0, 76, 56
1, 97715, Note_off_c, 0, 77, 58
1, 97733, Control_c, 0, 64, 88
1, 97747, Control_c, 0, 64, 87
1, 97762, Control_c, 0, 64, 86
1, 97777, Control_c, 0, 64, 83
1, 97792, Control_c, 0, 64, 80
1, 97807, Control_c, 0, 64, 74
1, 97821, Control_c, 0, 64, 69
1, 97836, Control_c, 0, 64, 64
1, 97841, Note_on_c, 0, 63, 48
1, 97845, Note_on_c, 0, 60, 40
1, 97851, Control_c, 0, 64, 58
1, 97865, Control_c, 0, 64, 51
1, 97880, Control_c, 0, 64, 40
1, 97895, Control_c, 0, 64, 0
1, 98029, Control_c, 0, 64, 31
1, 98032, Note_on_c, 0, 78, 69
1, 98044, Control_c, 0, 64, 47
1, 98058, Control_c, 0, 64, 59
1, 98073, Control_c, 0, 64, 63
1, 98088, Control_c, 0, 64, 65
1, 98103, Control_c, 0, 64, 68
1, 98118, Control_c, 0, 64, 72
1, 98132, Control_c, 0, 64, 76
1, 98147, Control_c, 0, 64, 79
1, 98162, Control_c, 0, 64, 82
1, 98177, Control_c, 0, 64, 83
1, 98192, Control_c, 0, 64, 85
1, 98207, Control_c, 0, 64, 88
1, 98220, Note_on_c, 0, 69, 47
1, 98222, Control_c, 0, 64, 89
1, 98237, Control_c, 0, 64, 90
1, 98252, Control_c, 0, 64, 91
1, 98267, Control_c, 0, 64, 91
1, 98297, Control_c, 0, 64, 92
1, 98327, Note_off_c, 0, 63, 61
1, 98361, Note_off_c, 0, 60, 55
1, 98366, Note_off_c, 0, 69, 51
1, 98418, Note_on_c, 0, 77, 61
1, 98467, Note_off_c, 0, 78, 55
1, 98486, Note_off_c, 0, 77, 55
1, 98571, Control_c, 0, 64, 91
1, 98586, Control_c, 0, 64, 91
1, 98601, Control_c, 0, 64, 89
1, 98615, Control_c, 0, 64, 88
1, 98630, Control_c, 0, 64, 85
1, 98645, Control_c, 0, 64, 83
1, 98660, Control_c, 0, 64, 81
1, 98661, Note_on_c, 0, 65, 49
1, 98675, Control_c, 0, 64, 78
1, 98678, Note_on_c, 0, 61, 39
1, 98689, Control_c, 0, 64, 75
1, 98704, Control_c, 0, 64, 72
1, 98719, Control_c, 0, 64, 69
1, 98734, Control_c, 0, 64, 64
1, 98749, Control_c, 0, 64, 60
1, 98763, Control_c, 0, 64, 57
1, 98778, Control_c, 0, 64, 55
1, 98793, Control_c, 0, 64, 52
1, 98807, Control_c, 0, 64, 49
1, 98822, Control_c, 0, 64, 42
1, 98837, Control_c, 0, 64, 32
1, 98852, Control_c, 0, 64, 0
1, 98948, Note_on_c, 0, 89, 67
1, 99098, Control_c, 0, 64, 31
1, 99113, Control_c, 0, 64, 41
1, 99127, Control_c, 0, 64, 50
1, 99142, Control_c, 0, 64, 56
1, 99157, Control_c, 0, 64, 59
1, 99172, Control_c, 0, 64, 61
1, 99187, Control_c, 0, 64, 63
1, 99201, Control_c, 0, 64, 65
1, 99216, Control_c, 0, 64, 67
1, 99231, Control_c, 0, 64, 69
1, 99236, Note_on_c, 0, 70, 45
1, 99245, Control_c, 0, 64, 70
1, 99260, Control_c, 0, 64, 71
1, 99275, Control_c, 0, 64, 72
1, 99290, Control_c, 0, 64, 72
1, 99305, Control_c, 0, 64, 73
1, 99319, Control_c, 0, 64, 73
1, 99468, Control_c, 0, 67, 54
1, 99477, Note_on_c, 0, 87, 54
1, 99483, Control_c, 0, 67, 75
1, 99498, Control_c, 0, 67, 91
1, 99512, Control_c, 0, 67, 102
1, 99527, Control_c, 0, 67, 111
1, 99532, Note_off_c, 0, 65, 29
1, 99542, Control_c, 0, 67, 122
1, 99557, Control_c, 0, 67, 127
1, 99573, Note_off_c, 0, 89, 37
1, 99578, Note_on_c, 0, 85, 62
1, 99600, Note_off_c, 0, 87, 51
1, 99601, Control_c, 0, 64, 73
1, 99645, Control_c, 0, 64, 72
1, 99650, Note_off_c, 0, 85, 63
1, 99663, Note_on_c, 0, 84, 62
1, 99675, Control_c, 0, 64, 72
1, 99690, Control_c, 0, 64, 71
1, 99704, Control_c, 0, 64, 71
1, 99711, Note_off_c, 0, 84, 51
1, 99719, Control_c, 0, 64, 70
1, 99734, Control_c, 0, 64, 70
1, 99749, Control_c, 0, 64, 69
1, 99761, Note_on_c, 0, 83, 66
1, 99764, Control_c, 0, 64, 68
1, 99778, Control_c, 0, 64, 68
1, 99793, Control_c, 0, 64, 67
1, 99816, Control_c, 0, 64, 67
1, 99831, Note_off_c, 0, 83, 57
1, 99831, Control_c, 0, 64, 66
1, 99859, Note_on_c, 0, 82, 58
1, 99861, Control_c, 0, 64, 66
1, 99876, Control_c, 0, 64, 65
1, 99891, Control_c, 0, 64, 65
1, 99918, Note_off_c, 0, 82, 61
1, 99921, Control_c, 0, 64, 64
1, 99935, Control_c, 0, 64, 64
1, 99949, Note_on_c, 0, 81, 64
1, 99950, Control_c, 0, 64, 63
1, 99965, Control_c, 0, 64, 63
1, 99982, Note_off_c, 0, 81, 58
1, 99995, Control_c, 0, 64, 62
1, 100009, Control_c, 0, 64, 62
1, 100024, Control_c, 0, 64, 61
1, 100054, Control_c, 0, 64, 60
1, 100062, Note_on_c, 0, 80, 59
1, 100068, Control_c, 0, 64, 60
1, 100083, Control_c, 0, 64, 59
1, 100098, Control_c, 0, 64, 59
1, 100113, Control_c, 0, 64, 58
1, 100118, Note_off_c, 0, 80, 61
1, 100128, Control_c, 0, 64, 58
1, 100142, Control_c, 0, 64, 57
1, 100146, Note_on_c, 0, 79, 56
1, 100157, Control_c, 0, 64, 56
1, 100185, Note_off_c, 0, 79, 57
1, 100187, Control_c, 0, 64, 56
1, 100202, Control_c, 0, 64, 55
1, 100217, Control_c, 0, 64, 54
1, 100246, Note_on_c, 0, 78, 62
1, 100246, Control_c, 0, 64, 54
1, 100261, Control_c, 0, 64, 53
1, 100275, Note_off_c, 0, 78, 64
1, 100291, Control_c, 0, 64, 53
1, 100306, Control_c, 0, 64, 52
1, 100335, Control_c, 0, 64, 52
1, 100343, Note_on_c, 0, 77, 58
1, 100350, Control_c, 0, 64, 51
1, 100380, Control_c, 0, 64, 51
1, 100395, Control_c, 0, 64, 50
1, 100404, Note_off_c, 0, 77, 56
1, 100409, Control_c, 0, 64, 50
1, 100424, Control_c, 0, 64, 49
1, 100454, Control_c, 0, 64, 49
1, 100468, Control_c, 0, 64, 48
1, 100483, Control_c, 0, 64, 48
1, 100498, Control_c, 0, 64, 47
1, 100513, Control_c, 0, 64, 47
1, 100524, Note_on_c, 0, 76, 49
1, 100528, Control_c, 0, 64, 46
1, 100542, Control_c, 0, 64, 46
1, 100562, Note_on_c, 0, 60, 34
1, 100565, Control_c, 0, 64, 45
1, 100568, Note_off_c, 0, 61, 36
1, 100580, Control_c, 0, 64, 45
1, 100594, Control_c, 0, 64, 44
1, 100609, Control_c, 0, 64, 44
1, 100624, Control_c, 0, 64, 43
1, 100640, Control_c, 0, 64, 42
1, 100655, Control_c, 0, 64, 41
1, 100670, Control_c, 0, 64, 41
1, 100684, Control_c, 0, 64, 40
1, 100699, Control_c, 0, 64, 39
1, 100729, Control_c, 0, 64, 39
1, 100843, Note_on_c, 0, 79, 50
1, 100936, Control_c, 0, 64, 39
1, 100951, Control_c, 0, 64, 40
1, 100953, Note_off_c, 0, 76, 51
1, 100965, Control_c, 0, 64, 40
1, 100980, Control_c, 0, 64, 41
1, 100995, Control_c, 0, 64, 42
1, 101010, Control_c, 0, 64, 43
1, 101024, Control_c, 0, 64, 44
1, 101039, Control_c, 0, 64, 45
1, 101054, Control_c, 0, 64, 46
1, 101069, Control_c, 0, 64, 47
1, 101084, Control_c, 0, 64, 49
1, 101099, Control_c, 0, 64, 50
1, 101114, Control_c, 0, 64, 52
1, 101118, Note_on_c, 0, 68, 41
1, 101129, Control_c, 0, 64, 53
1, 101144, Control_c, 0, 64, 54
1, 101158, Control_c, 0, 64, 55
1, 101173, Control_c, 0, 64, 56
1, 101188, Control_c, 0, 64, 56
1, 101203, Control_c, 0, 64, 57
1, 101216, Control_c, 0, 64, 58
1, 101231, Control_c, 0, 64, 59
1, 101246, Control_c, 0, 64, 60
1, 101261, Control_c, 0, 64, 61
1, 101276, Control_c, 0, 64, 62
1, 101290, Control_c, 0, 64, 62
1, 101299, Note_off_c, 0, 70, 37
1, 101313, Control_c, 0, 64, 63
1, 101328, Control_c, 0, 64, 64
1, 101334, Note_on_c, 0, 77, 53
1, 101343, Control_c, 0, 64, 65
1, 101358, Control_c, 0, 64, 65
1, 101387, Control_c, 0, 64, 66
1, 101402, Control_c, 0, 64, 66
1, 101554, Note_on_c, 0, 65, 40
1, 101658, Note_off_c, 0, 79, 23
1, 101682, Note_off_c, 0, 68, 35
1, 101734, Note_on_c, 0, 73, 51
1, 101773, Control_c, 0, 64, 66
1, 101808, Note_off_c, 0, 77, 58
1, 101817, Control_c, 0, 64, 65
1, 101862, Control_c, 0, 64, 65
1, 101922, Note_on_c, 0, 61, 46
1, 101936, Control_c, 0, 64, 64
1, 101980, Note_off_c, 0, 60, 41
1, 102062, Control_c, 0, 64, 64
1, 102107, Control_c, 0, 64, 63
1, 102111, Note_on_c, 0, 71, 61
1, 102151, Control_c, 0, 64, 63
1, 102196, Control_c, 0, 64, 62
1, 102198, Note_off_c, 0, 73, 60
1, 102241, Control_c, 0, 64, 62
1, 102285, Control_c, 0, 64, 61
1, 102306, Note_on_c, 0, 60, 46
1, 102315, Control_c, 0, 64, 61
1, 102345, Note_off_c, 0, 61, 56
1, 102345, Control_c, 0, 64, 60
1, 102360, Control_c, 0, 64, 59
1, 102375, Control_c, 0, 64, 58
1, 102390, Control_c, 0, 64, 56
1, 102404, Control_c, 0, 64, 53
1, 102419, Control_c, 0, 64, 52
1, 102463, Control_c, 0, 64, 52
1, 102478, Control_c, 0, 64, 53
1, 102486, Note_on_c, 0, 74, 64
1, 102493, Control_c, 0, 64, 55
1, 102508, Control_c, 0, 64, 58
1, 102523, Control_c, 0, 64, 59
1, 102523, Control_c, 0, 67, 125
1, 102537, Control_c, 0, 64, 60
1, 102552, Control_c, 0, 64, 61
1, 102552, Control_c, 0, 67, 123
1, 102562, Note_off_c, 0, 71, 55
1, 102567, Control_c, 0, 64, 63
1, 102581, Control_c, 0, 64, 64
1, 102581, Control_c, 0, 67, 121
1, 102596, Control_c, 0, 64, 65
1, 102611, Control_c, 0, 64, 66
1, 102611, Control_c, 0, 67, 119
1, 102626, Control_c, 0, 64, 66
1, 102626, Control_c, 0, 67, 115
1, 102641, Control_c, 0, 67, 107
1, 102655, Control_c, 0, 64, 67
1, 102655, Control_c, 0, 67, 96
1, 102670, Control_c, 0, 67, 85
1, 102674, Note_on_c, 0, 64, 54
1, 102685, Control_c, 0, 67, 72
1, 102700, Control_c, 0, 64, 67
1, 102700, Control_c, 0, 67, 60
1, 102715, Control_c, 0, 67, 48
1, 102730, Control_c, 0, 67, 0
1, 102756, Note_off_c, 0, 65, 35
1, 102774, Control_c, 0, 64, 67
1, 102789, Control_c, 0, 64, 64
1, 102811, Control_c, 0, 64, 58
1, 102826, Control_c, 0, 64, 50
1, 102841, Control_c, 0, 64, 47
1, 102856, Control_c, 0, 64, 49
1, 102859, Note_on_c, 0, 72, 70
1, 102870, Control_c, 0, 64, 53
1, 102885, Control_c, 0, 64, 56
1, 102900, Control_c, 0, 64, 59
1, 102915, Control_c, 0, 64, 62
1, 102930, Control_c, 0, 64, 65
1, 102944, Control_c, 0, 64, 67
1, 102959, Control_c, 0, 64, 70
1, 102974, Control_c, 0, 64, 72
1, 102987, Note_off_c, 0, 74, 46
1, 102989, Control_c, 0, 64, 73
1, 103004, Control_c, 0, 64, 74
1, 103019, Control_c, 0, 64, 75
1, 103064, Note_on_c, 0, 62, 47
1, 103064, Note_on_c, 0, 65, 43
1, 103092, Note_off_c, 0, 64, 52
1, 103117, Note_off_c, 0, 60, 35
1, 103168, Control_c, 0, 64, 73
1, 103183, Control_c, 0, 64, 68
1, 103198, Control_c, 0, 64, 60
1, 103212, Control_c, 0, 64, 42
1, 103227, Control_c, 0, 64, 0
1, 103251, Note_on_c, 0, 71, 62
1, 103257, Control_c, 0, 64, 36
1, 103272, Control_c, 0, 64, 45
1, 103286, Control_c, 0, 64, 55
1, 103301, Control_c, 0, 64, 61
1, 103306, Note_off_c, 0, 72, 59
1, 103316, Control_c, 0, 64, 65
1, 103331, Control_c, 0, 64, 67
1, 103346, Control_c, 0, 64, 70
1, 103360, Control_c, 0, 64, 73
1, 103365, Note_off_c, 0, 65, 59
1, 103375, Control_c, 0, 64, 75
1, 103390, Control_c, 0, 64, 77
1, 103404, Control_c, 0, 64, 78
1, 103419, Control_c, 0, 64, 78
1, 103454, Note_on_c, 0, 67, 41
1, 103454, Note_off_c, 0, 62, 34
1, 103460, Note_on_c, 0, 64, 47
1, 103560, Control_c, 0, 64, 78
1, 103575, Control_c, 0, 64, 76
1, 103590, Control_c, 0, 64, 72
1, 103604, Control_c, 0, 64, 64
1, 103614, Note_off_c, 0, 71, 30
1, 103619, Control_c, 0, 64, 52
1, 103634, Control_c, 0, 64, 30
1, 103649, Note_on_c, 0, 70, 57
1, 103649, Control_c, 0, 64, 0
1, 103664, Control_c, 0, 64, 34
1, 103678, Control_c, 0, 64, 46
1, 103693, Control_c, 0, 64, 55
1, 103708, Control_c, 0, 64, 61
1, 103723, Control_c, 0, 64, 65
1, 103738, Control_c, 0, 64, 68
1, 103753, Control_c, 0, 64, 70
1, 103767, Control_c, 0, 64, 73
1, 103781, Note_off_c, 0, 67, 46
1, 103782, Control_c, 0, 64, 75
1, 103797, Control_c, 0, 64, 77
1, 103812, Control_c, 0, 64, 77
1, 103817, Note_off_c, 0, 70, 53
1, 103827, Control_c, 0, 64, 78
1, 103859, Note_off_c, 0, 64, 33
1, 103951, Note_on_c, 0, 68, 52
1, 103967, Note_on_c, 0, 65, 45
1, 103990, Control_c, 0, 64, 77
1, 104005, Control_c, 0, 64, 77
1, 104020, Control_c, 0, 64, 75
1, 104035, Control_c, 0, 64, 74
1, 104050, Control_c, 0, 64, 71
1, 104065, Control_c, 0, 64, 69
1, 104080, Control_c, 0, 64, 65
1, 104095, Control_c, 0, 64, 61
1, 104109, Control_c, 0, 64, 57
1, 104124, Control_c, 0, 64, 53
1, 104139, Control_c, 0, 64, 44
1, 104154, Control_c, 0, 64, 0
1, 104405, Note_on_c, 0, 72, 46
1, 104487, Control_c, 0, 64, 39
1, 104499, Note_off_c, 0, 68, 58
1, 104501, Control_c, 0, 64, 50
1, 104516, Control_c, 0, 64, 57
1, 104531, Control_c, 0, 64, 59
1, 104546, Control_c, 0, 64, 61
1, 104560, Control_c, 0, 64, 63
1, 104572, Note_on_c, 0, 60, 62
1, 104575, Control_c, 0, 64, 64
1, 104590, Control_c, 0, 64, 65
1, 104605, Control_c, 0, 64, 65
1, 104691, Note_off_c, 0, 72, 34
1, 104768, Note_off_c, 0, 60, 49
1, 104769, Control_c, 0, 64, 65
1, 104784, Control_c, 0, 64, 64
1, 104793, Note_on_c, 0, 67, 51
1, 104798, Note_on_c, 0, 64, 45
1, 104813, Control_c, 0, 64, 64
1, 104828, Control_c, 0, 64, 63
1, 104843, Control_c, 0, 64, 62
1, 104858, Control_c, 0, 64, 62
1, 104873, Control_c, 0, 64, 61
1, 104888, Control_c, 0, 64, 60
1, 104903, Control_c, 0, 64, 59
1, 104918, Control_c, 0, 64, 58
1, 104932, Control_c, 0, 64, 57
1, 104947, Control_c, 0, 64, 56
1, 104956, Note_on_c, 0, 61, 69
1, 104962, Control_c, 0, 64, 55
1, 104980, Note_off_c, 0, 65, 37
1, 105006, Control_c, 0, 64, 55
1, 105036, Control_c, 0, 64, 54
1, 105058, Control_c, 0, 64, 53
1, 105073, Control_c, 0, 64, 51
1, 105087, Control_c, 0, 64, 49
1, 105102, Control_c, 0, 64, 46
1, 105117, Control_c, 0, 64, 44
1, 105132, Control_c, 0, 64, 42
1, 105147, Control_c, 0, 64, 42
1, 105157, Note_on_c, 0, 72, 56
1, 105162, Control_c, 0, 64, 41
1, 105177, Control_c, 0, 64, 39
1, 105180, Note_off_c, 0, 61, 58
1, 105191, Control_c, 0, 64, 38
1, 105206, Control_c, 0, 64, 36
1, 105221, Control_c, 0, 64, 35
1, 105230, Note_off_c, 0, 67, 62
1, 105236, Control_c, 0, 64, 33
1, 105251, Control_c, 0, 64, 31
1, 105321, Note_on_c, 0, 60, 67
1, 105357, Note_off_c, 0, 72, 52
1, 105476, Note_off_c, 0, 60, 60
1, 105511, Note_on_c, 0, 66, 59
1, 105514, Note_on_c, 0, 63, 58
1, 105645, Note_off_c, 0, 64, 49
1, 105669, Note_on_c, 0, 58, 69
1, 105874, Note_on_c, 0, 72, 64
1, 105878, Note_off_c, 0, 58, 61
1, 105979, Note_off_c, 0, 66, 60
1, 106030, Note_on_c, 0, 57, 63
1, 106092, Note_off_c, 0, 72, 51
1, 106183, Note_off_c, 0, 57, 62
1, 106244, Note_on_c, 0, 69, 55
1, 106282, Control_c, 0, 64, 32
1, 106411, Note_on_c, 0, 54, 47
1, 106595, Note_off_c, 0, 54, 56
1, 106623, Note_on_c, 0, 72, 50
1, 106719, Note_off_c, 0, 69, 54
1, 106798, Note_on_c, 0, 53, 44
1, 106866, Control_c, 0, 64, 29
1, 106879, Note_off_c, 0, 72, 56
1, 106881, Control_c, 0, 64, 0
1, 106923, Note_off_c, 0, 53, 54
1, 107031, Note_on_c, 0, 65, 43
1, 107214, Note_on_c, 0, 58, 47
1, 107350, Note_off_c, 0, 58, 59
1, 107428, Note_on_c, 0, 70, 47
1, 107440, Note_on_c, 0, 61, 35
1, 107484, Note_off_c, 0, 65, 36
1, 107555, Control_c, 0, 67, 42
1, 107570, Control_c, 0, 67, 49
1, 107571, Note_off_c, 0, 63, 56
1, 107584, Control_c, 0, 67, 56
1, 107597, Note_on_c, 0, 55, 43
1, 107599, Control_c, 0, 67, 63
1, 107614, Control_c, 0, 67, 70
1, 107629, Control_c, 0, 67, 79
1, 107644, Control_c, 0, 67, 85
1, 107658, Control_c, 0, 67, 91
1, 107673, Control_c, 0, 67, 97
1, 107688, Control_c, 0, 67, 103
1, 107703, Control_c, 0, 67, 108
1, 107718, Control_c, 0, 67, 111
1, 107719, Note_off_c, 0, 55, 58
1, 107721, Note_off_c, 0, 70, 52
1, 107747, Control_c, 0, 67, 113
1, 107809, Note_on_c, 0, 67, 47
1, 107911, Control_c, 0, 67, 111
1, 107971, Control_c, 0, 67, 109
1, 107982, Note_on_c, 0, 52, 49
1, 108030, Control_c, 0, 67, 107
1, 108112, Control_c, 0, 67, 105
1, 108131, Note_off_c, 0, 52, 59
1, 108186, Control_c, 0, 67, 103
1, 108200, Note_on_c, 0, 70, 51
1, 108253, Note_off_c, 0, 67, 59
1, 108349, Control_c, 0, 67, 101
1, 108372, Note_on_c, 0, 51, 44
1, 108423, Control_c, 0, 67, 99
1, 108451, Note_off_c, 0, 70, 59
1, 108479, Note_off_c, 0, 51, 57
1, 108497, Control_c, 0, 67, 97
1, 108527, Control_c, 0, 67, 96
1, 108556, Control_c, 0, 67, 95
1, 108571, Control_c, 0, 67, 94
1, 108586, Control_c, 0, 67, 94
1, 108631, Control_c, 0, 67, 92
1, 108638, Note_on_c, 0, 63, 49
1, 108646, Control_c, 0, 67, 92
1, 108661, Control_c, 0, 67, 91
1, 108676, Control_c, 0, 67, 90
1, 108691, Control_c, 0, 67, 90
1, 108720, Control_c, 0, 67, 89
1, 108735, Control_c, 0, 67, 88
1, 108839, Note_on_c, 0, 56, 44
1, 108905, Control_c, 0, 67, 88
1, 108909, Note_off_c, 0, 56, 56
1, 108920, Control_c, 0, 67, 87
1, 108950, Control_c, 0, 67, 86
1, 108979, Control_c, 0, 67, 86
1, 109023, Control_c, 0, 67, 85
1, 109054, Note_on_c, 0, 68, 48
1, 109061, Note_on_c, 0, 60, 31
1, 109112, Control_c, 0, 67, 86
1, 109145, Note_off_c, 0, 61, 53
1, 109166, Note_off_c, 0, 63, 60
1, 109186, Control_c, 0, 67, 86
1, 109229, Note_on_c, 0, 51, 44
1, 109237, Note_off_c, 0, 60, 47
1, 109246, Control_c, 0, 67, 86
1, 109290, Control_c, 0, 67, 85
1, 109296, Note_off_c, 0, 51, 57
1, 109299, Note_off_c, 0, 68, 37
1, 109305, Control_c, 0, 67, 85
1, 109320, Control_c, 0, 67, 83
1, 109335, Control_c, 0, 67, 81
1, 109349, Control_c, 0, 67, 79
1, 109364, Control_c, 0, 67, 75
1, 109379, Control_c, 0, 67, 58
1, 109394, Control_c, 0, 67, 0
1, 109413, Note_on_c, 0, 64, 58
1, 109594, Note_on_c, 0, 48, 55
1, 109648, Note_off_c, 0, 48, 63
1, 109790, Note_on_c, 0, 68, 50
1, 109869, Note_off_c, 0, 64, 61
1, 109942, Note_off_c, 0, 68, 56
1, 109966, Note_on_c, 0, 72, 49
1, 110066, Note_off_c, 0, 72, 54
1, 110164, Note_on_c, 0, 65, 52
1, 110341, Note_on_c, 0, 61, 46
1, 110401, Note_off_c, 0, 61, 61
1, 110541, Note_on_c, 0, 68, 46
1, 110610, Control_c, 0, 67, 41
1, 110620, Note_off_c, 0, 65, 57
1, 110625, Control_c, 0, 67, 55
1, 110640, Control_c, 0, 67, 66
1, 110655, Control_c, 0, 67, 73
1, 110669, Control_c, 0, 67, 78
1, 110684, Control_c, 0, 67, 81
1, 110699, Control_c, 0, 67, 82
1, 110702, Note_on_c, 0, 77, 56
1, 110714, Control_c, 0, 67, 83
1, 110728, Control_c, 0, 67, 83
1, 110745, Note_off_c, 0, 68, 38
1, 110756, Note_off_c, 0, 77, 62
1, 110773, Control_c, 0, 67, 84
1, 110788, Control_c, 0, 67, 85
1, 110817, Control_c, 0, 67, 85
1, 110862, Control_c, 0, 67, 86
1, 110876, Control_c, 0, 67, 86
1, 110891, Control_c, 0, 67, 87
1, 110907, Note_on_c, 0, 67, 47
1, 110941, Note_on_c, 0, 61, 28
1, 111093, Note_on_c, 0, 58, 44
1, 111174, Note_off_c, 0, 58, 58
1, 111270, Control_c, 0, 67, 86
1, 111285, Note_on_c, 0, 70, 51
1, 111300, Control_c, 0, 67, 86
1, 111366, Note_off_c, 0, 67, 61
1, 111457, Note_on_c, 0, 51, 47
1, 111460, Note_off_c, 0, 70, 59
1, 111478, Control_c, 0, 67, 86
1, 111491, Note_off_c, 0, 61, 49
1, 111507, Control_c, 0, 67, 87
1, 111510, Note_off_c, 0, 51, 57
1, 111537, Control_c, 0, 67, 88
1, 111551, Control_c, 0, 67, 88
1, 111566, Control_c, 0, 67, 90
1, 111581, Control_c, 0, 67, 91
1, 111596, Control_c, 0, 67, 92
1, 111611, Control_c, 0, 67, 93
1, 111625, Control_c, 0, 67, 111
1, 111640, Control_c, 0, 67, 127
1, 111678, Note_on_c, 0, 60, 41
1, 111679, Note_on_c, 0, 68, 43
1, 111864, Note_on_c, 0, 44, 45
1, 111909, Note_off_c, 0, 44, 60
1, 112063, Note_on_c, 0, 39, 46
1, 112102, Note_off_c, 0, 39, 57
1, 112255, Note_on_c, 0, 36, 45
1, 112302, Note_off_c, 0, 36, 60
1, 112560, Note_off_c, 0, 60, 51
1, 112561, Note_on_c, 0, 32, 40
1, 112567, Note_off_c, 0, 68, 38
1, 112999, Note_off_c, 0, 32, 49
1, 113775, Note_on_c, 0, 72, 29
1, 113783, Note_on_c, 0, 68, 33
1, 113931, Control_c, 0, 64, 38
1, 113946, Control_c, 0, 64, 47
1, 113961, Control_c, 0, 64, 54
1, 113976, Control_c, 0, 64, 57
1, 113991, Control_c, 0, 64, 59
1, 114005, Control_c, 0, 64, 61
1, 114020, Control_c, 0, 64, 63
1, 114042, Control_c, 0, 64, 65
1, 114057, Control_c, 0, 64, 66
1, 114072, Control_c, 0, 64, 68
1, 114087, Control_c, 0, 64, 70
1, 114102, Control_c, 0, 64, 72
1, 114117, Control_c, 0, 64, 74
1, 114132, Control_c, 0, 64, 76
1, 114146, Control_c, 0, 64, 77
1, 114161, Control_c, 0, 64, 79
1, 114176, Control_c, 0, 64, 80
1, 114191, Control_c, 0, 64, 81
1, 114195, Note_on_c, 0, 75, 40
1, 114206, Control_c, 0, 64, 82
1, 114221, Control_c, 0, 64, 83
1, 114251, Control_c, 0, 64, 83
1, 114283, Note_off_c, 0, 72, 42
1, 114295, Control_c, 0, 64, 84
1, 114340, Control_c, 0, 67, 124
1, 114345, Note_off_c, 0, 75, 48
1, 114355, Control_c, 0, 67, 107
1, 114357, Note_on_c, 0, 84, 56
1, 114369, Control_c, 0, 67, 94
1, 114384, Control_c, 0, 67, 84
1, 114399, Control_c, 0, 67, 76
1, 114414, Control_c, 0, 67, 66
1, 114429, Control_c, 0, 64, 83
1, 114429, Control_c, 0, 67, 53
1, 114443, Control_c, 0, 67, 37
1, 114458, Control_c, 0, 67, 0
1, 114503, Control_c, 0, 64, 83
1, 114517, Control_c, 0, 64, 82
1, 114532, Control_c, 0, 64, 82
1, 114547, Control_c, 0, 64, 81
1, 114561, Control_c, 0, 64, 79
1, 114568, Note_on_c, 0, 70, 35
1, 114573, Note_on_c, 0, 66, 33
1, 114576, Control_c, 0, 64, 78
1, 114591, Control_c, 0, 64, 77
1, 114596, Note_off_c, 0, 68, 31
1, 114606, Control_c, 0, 64, 75
1, 114621, Control_c, 0, 64, 73
1, 114635, Control_c, 0, 64, 71
1, 114650, Control_c, 0, 64, 69
1, 114665, Control_c, 0, 64, 66
1, 114680, Control_c, 0, 64, 64
1, 114696, Control_c, 0, 64, 61
1, 114710, Control_c, 0, 64, 58
1, 114725, Control_c, 0, 64, 55
1, 114728, Note_on_c, 0, 85, 65
1, 114740, Control_c, 0, 64, 52
1, 114755, Control_c, 0, 64, 47
1, 114769, Control_c, 0, 64, 43
1, 114792, Control_c, 0, 64, 42
1, 114807, Control_c, 0, 64, 43
1, 114822, Control_c, 0, 64, 44
1, 114836, Control_c, 0, 64, 47
1, 114851, Control_c, 0, 64, 50
1, 114866, Control_c, 0, 64, 55
1, 114875, Note_off_c, 0, 84, 39
1, 114881, Control_c, 0, 64, 59
1, 114895, Control_c, 0, 64, 62
1, 114910, Control_c, 0, 64, 64
1, 114925, Note_on_c, 0, 75, 46
1, 114925, Control_c, 0, 64, 66
1, 114940, Control_c, 0, 64, 68
1, 114955, Control_c, 0, 64, 71
1, 114969, Control_c, 0, 64, 73
1, 114984, Control_c, 0, 64, 74
1, 114999, Control_c, 0, 64, 76
1, 115001, Note_off_c, 0, 70, 50
1, 115015, Control_c, 0, 64, 77
1, 115030, Control_c, 0, 64, 78
1, 115045, Control_c, 0, 64, 79
1, 115052, Note_off_c, 0, 66, 57
1, 115057, Note_off_c, 0, 75, 43
1, 115060, Control_c, 0, 64, 80
1, 115073, Note_on_c, 0, 86, 67
1, 115152, Note_off_c, 0, 85, 53
1, 115297, Note_on_c, 0, 65, 35
1, 115312, Note_on_c, 0, 69, 31
1, 115356, Control_c, 0, 64, 79
1, 115371, Control_c, 0, 64, 79
1, 115385, Control_c, 0, 64, 78
1, 115400, Control_c, 0, 64, 77
1, 115415, Control_c, 0, 64, 75
1, 115430, Control_c, 0, 64, 73
1, 115444, Control_c, 0, 64, 70
1, 115458, Control_c, 0, 64, 66
1, 115469, Note_on_c, 0, 87, 66
1, 115473, Control_c, 0, 64, 59
1, 115488, Control_c, 0, 64, 51
1, 115503, Control_c, 0, 64, 39
1, 115509, Note_off_c, 0, 86, 61
1, 115518, Control_c, 0, 64, 0
1, 115584, Control_c, 0, 64, 29
1, 115599, Control_c, 0, 64, 39
1, 115614, Control_c, 0, 64, 50
1, 115629, Control_c, 0, 64, 58
1, 115644, Control_c, 0, 64, 61
1, 115658, Control_c, 0, 64, 63
1, 115673, Control_c, 0, 64, 65
1, 115679, Note_on_c, 0, 75, 43
1, 115688, Control_c, 0, 64, 67
1, 115695, Note_on_c, 0, 72, 29
1, 115703, Control_c, 0, 64, 69
1, 115717, Control_c, 0, 64, 72
1, 115732, Control_c, 0, 64, 73
1, 115747, Control_c, 0, 64, 75
1, 115762, Control_c, 0, 64, 76
1, 115777, Control_c, 0, 64, 78
1, 115792, Control_c, 0, 64, 79
1, 115802, Note_off_c, 0, 75, 49
1, 115807, Control_c, 0, 64, 80
1, 115812, Note_off_c, 0, 72, 52
1, 115822, Control_c, 0, 64, 81
1, 115834, Note_on_c, 0, 81, 64
1, 115837, Control_c, 0, 64, 81
1, 115841, Note_off_c, 0, 69, 41
1, 115867, Control_c, 0, 64, 82
1, 116014, Note_off_c, 0, 87, 36
1, 116058, Note_on_c, 0, 73, 32
1, 116076, Note_on_c, 0, 70, 40
1, 116104, Control_c, 0, 64, 81
1, 116119, Control_c, 0, 64, 80
1, 116133, Control_c, 0, 64, 75
1, 116148, Control_c, 0, 64, 67
1, 116163, Control_c, 0, 64, 59
1, 116178, Control_c, 0, 64, 55
1, 116193, Control_c, 0, 64, 57
1, 116207, Control_c, 0, 64, 60
1, 116222, Control_c, 0, 64, 63
1, 116234, Note_off_c, 0, 65, 48
1, 116237, Control_c, 0, 64, 66
1, 116242, Note_on_c, 0, 82, 65
1, 116252, Control_c, 0, 64, 71
1, 116267, Control_c, 0, 64, 76
1, 116289, Control_c, 0, 64, 79
1, 116304, Control_c, 0, 64, 81
1, 116319, Control_c, 0, 64, 83
1, 116334, Control_c, 0, 64, 84
1, 116337, Note_off_c, 0, 70, 38
1, 116348, Control_c, 0, 64, 85
1, 116355, Note_off_c, 0, 73, 36
1, 116363, Control_c, 0, 64, 86
1, 116393, Control_c, 0, 64, 86
1, 116394, Note_off_c, 0, 81, 40
1, 116440, Note_on_c, 0, 68, 40
1, 116447, Note_on_c, 0, 64, 51
1, 116482, Control_c, 0, 64, 86
1, 116496, Control_c, 0, 64, 84
1, 116511, Control_c, 0, 64, 78
1, 116526, Control_c, 0, 64, 69
1, 116540, Control_c, 0, 64, 62
1, 116555, Control_c, 0, 64, 60
1, 116570, Control_c, 0, 64, 62
1, 116585, Control_c, 0, 64, 65
1, 116600, Control_c, 0, 64, 67
1, 116615, Note_on_c, 0, 84, 71
1, 116616, Control_c, 0, 64, 71
1, 116629, Note_off_c, 0, 68, 38
1, 116630, Control_c, 0, 64, 76
1, 116634, Note_off_c, 0, 64, 63
1, 116645, Control_c, 0, 64, 78
1, 116660, Control_c, 0, 64, 79
1, 116675, Control_c, 0, 64, 80
1, 116690, Control_c, 0, 64, 81
1, 116734, Control_c, 0, 64, 82
1, 116737, Note_off_c, 0, 82, 53
1, 116808, Note_on_c, 0, 63, 49
1, 116811, Note_on_c, 0, 67, 45
1, 116823, Control_c, 0, 64, 81
1, 116853, Control_c, 0, 64, 80
1, 116868, Control_c, 0, 64, 75
1, 116883, Control_c, 0, 64, 66
1, 116898, Control_c, 0, 64, 51
1, 116912, Control_c, 0, 64, 0
1, 116971, Control_c, 0, 64, 29
1, 116986, Control_c, 0, 64, 43
1, 116987, Note_on_c, 0, 85, 70
1, 117001, Control_c, 0, 64, 57
1, 117016, Control_c, 0, 64, 62
1, 117038, Control_c, 0, 64, 64
1, 117053, Control_c, 0, 64, 65
1, 117068, Control_c, 0, 64, 67
1, 117074, Note_off_c, 0, 84, 60
1, 117083, Control_c, 0, 64, 70
1, 117098, Control_c, 0, 64, 72
1, 117112, Control_c, 0, 64, 74
1, 117127, Control_c, 0, 64, 75
1, 117142, Control_c, 0, 64, 75
1, 117157, Control_c, 0, 64, 76
1, 117171, Control_c, 0, 64, 77
1, 117172, Note_on_c, 0, 73, 35
1, 117181, Note_on_c, 0, 70, 47
1, 117186, Control_c, 0, 64, 78
1, 117201, Control_c, 0, 64, 78
1, 117216, Control_c, 0, 64, 79
1, 117231, Control_c, 0, 64, 79
1, 117260, Control_c, 0, 64, 80
1, 117276, Note_off_c, 0, 67, 32
1, 117304, Control_c, 0, 64, 80
1, 117330, Note_off_c, 0, 73, 34
1, 117349, Note_on_c, 0, 79, 64
1, 117375, Note_off_c, 0, 70, 57
1, 117537, Note_on_c, 0, 72, 43
1, 117567, Note_on_c, 0, 68, 42
1, 117572, Control_c, 0, 64, 80
1, 117586, Control_c, 0, 64, 79
1, 117601, Control_c, 0, 64, 77
1, 117616, Control_c, 0, 64, 70
1, 117631, Control_c, 0, 64, 63
1, 117646, Control_c, 0, 64, 54
1, 117661, Control_c, 0, 64, 49
1, 117676, Control_c, 0, 64, 50
1, 117678, Note_off_c, 0, 63, 55
1, 117691, Control_c, 0, 64, 53
1, 117706, Control_c, 0, 64, 57
1, 117721, Note_on_c, 0, 80, 64
1, 117721, Control_c, 0, 64, 61
1, 117735, Control_c, 0, 64, 65
1, 117750, Control_c, 0, 64, 67
1, 117765, Control_c, 0, 64, 69
1, 117787, Control_c, 0, 64, 70
1, 117802, Note_off_c, 0, 85, 6
1, 117802, Control_c, 0, 64, 71
1, 117817, Control_c, 0, 64, 72
1, 117822, Note_off_c, 0, 79, 40
1, 117832, Control_c, 0, 64, 72
1, 117847, Control_c, 0, 64, 73
1, 117906, Control_c, 0, 64, 71
1, 117920, Control_c, 0, 64, 63
1, 117923, Note_on_c, 0, 63, 47
1, 117935, Control_c, 0, 64, 53
1, 117950, Control_c, 0, 64, 43
1, 117965, Control_c, 0, 64, 42
1, 117980, Control_c, 0, 64, 46
1, 117995, Control_c, 0, 64, 54
1, 118010, Control_c, 0, 64, 60
1, 118025, Control_c, 0, 64, 64
1, 118039, Control_c, 0, 64, 67
1, 118054, Control_c, 0, 64, 69
1, 118069, Control_c, 0, 64, 71
1, 118084, Control_c, 0, 64, 73
1, 118093, Note_on_c, 0, 84, 66
1, 118099, Control_c, 0, 64, 74
1, 118113, Control_c, 0, 64, 75
1, 118128, Control_c, 0, 64, 76
1, 118145, Note_off_c, 0, 80, 59
1, 118187, Control_c, 0, 64, 76
1, 118277, Control_c, 0, 64, 76
1, 118311, Note_on_c, 0, 64, 49
1, 118336, Control_c, 0, 64, 75
1, 118349, Note_off_c, 0, 68, 31
1, 118351, Control_c, 0, 64, 72
1, 118355, Note_off_c, 0, 63, 37
1, 118366, Control_c, 0, 64, 64
1, 118381, Control_c, 0, 64, 55
1, 118396, Control_c, 0, 64, 48
1, 118425, Control_c, 0, 64, 53
1, 118440, Control_c, 0, 64, 59
1, 118455, Control_c, 0, 64, 63
1, 118469, Note_off_c, 0, 72, 53
1, 118470, Control_c, 0, 64, 67
1, 118484, Note_on_c, 0, 83, 69
1, 118484, Control_c, 0, 64, 70
1, 118499, Control_c, 0, 64, 72
1, 118514, Control_c, 0, 64, 73
1, 118531, Note_off_c, 0, 84, 55
1, 118536, Control_c, 0, 64, 74
1, 118551, Control_c, 0, 64, 75
1, 118640, Control_c, 0, 64, 74
1, 118655, Control_c, 0, 64, 71
1, 118667, Note_on_c, 0, 82, 72
1, 118670, Control_c, 0, 64, 64
1, 118684, Control_c, 0, 64, 54
1, 118692, Note_on_c, 0, 72, 49
1, 118699, Control_c, 0, 64, 48
1, 118701, Note_off_c, 0, 83, 58
1, 118714, Control_c, 0, 64, 49
1, 118729, Control_c, 0, 64, 55
1, 118743, Control_c, 0, 64, 62
1, 118758, Control_c, 0, 64, 66
1, 118773, Control_c, 0, 64, 70
1, 118788, Control_c, 0, 64, 72
1, 118803, Control_c, 0, 64, 74
1, 118817, Control_c, 0, 64, 75
1, 118832, Control_c, 0, 64, 76
1, 118835, Note_on_c, 0, 81, 77
1, 118838, Note_off_c, 0, 82, 61
1, 118847, Control_c, 0, 64, 77
1, 118862, Control_c, 0, 64, 78
1, 118996, Control_c, 0, 64, 77
1, 119003, Note_off_c, 0, 64, 35
1, 119011, Control_c, 0, 64, 76
1, 119026, Control_c, 0, 64, 70
1, 119041, Note_on_c, 0, 80, 58
1, 119041, Control_c, 0, 64, 60
1, 119044, Note_on_c, 0, 65, 40
1, 119056, Control_c, 0, 64, 49
1, 119059, Note_off_c, 0, 81, 50
1, 119071, Control_c, 0, 64, 44
1, 119086, Control_c, 0, 64, 46
1, 119101, Control_c, 0, 64, 52
1, 119115, Control_c, 0, 64, 58
1, 119130, Control_c, 0, 64, 63
1, 119145, Control_c, 0, 64, 67
1, 119159, Control_c, 0, 64, 70
1, 119165, Note_off_c, 0, 72, 36
1, 119174, Control_c, 0, 64, 72
1, 119187, Control_c, 0, 64, 74
1, 119202, Control_c, 0, 64, 75
1, 119213, Note_off_c, 0, 80, 61
1, 119217, Control_c, 0, 64, 76
1, 119225, Note_on_c, 0, 79, 53
1, 119232, Control_c, 0, 64, 77
1, 119247, Control_c, 0, 64, 77
1, 119357, Control_c, 0, 64, 77
1, 119372, Control_c, 0, 64, 75
1, 119387, Control_c, 0, 64, 68
1, 119402, Control_c, 0, 64, 59
1, 119417, Control_c, 0, 64, 44
1, 119420, Note_off_c, 0, 79, 44
1, 119424, Note_on_c, 0, 78, 49
1, 119432, Control_c, 0, 64, 30
1, 119435, Note_on_c, 0, 71, 25
1, 119441, Note_off_c, 0, 65, 39
1, 119446, Control_c, 0, 64, 32
1, 119449, Note_on_c, 0, 61, 29
1, 119461, Control_c, 0, 64, 42
1, 119476, Control_c, 0, 64, 53
1, 119491, Control_c, 0, 64, 61
1, 119506, Control_c, 0, 64, 64
1, 119521, Control_c, 0, 64, 67
1, 119536, Control_c, 0, 64, 69
1, 119550, Control_c, 0, 64, 72
1, 119565, Control_c, 0, 64, 73
1, 119569, Note_off_c, 0, 78, 61
1, 119575, Note_off_c, 0, 71, 55
1, 119580, Control_c, 0, 64, 76
1, 119595, Control_c, 0, 64, 78
1, 119595, Control_c, 0, 67, 56
1, 119610, Control_c, 0, 64, 79
1, 119610, Control_c, 0, 67, 81
1, 119625, Control_c, 0, 64, 79
1, 119625, Control_c, 0, 67, 103
1, 119630, Note_on_c, 0, 77, 31
1, 119636, Note_off_c, 0, 61, 54
1, 119639, Control_c, 0, 67, 121
1, 119654, Control_c, 0, 67, 127
1, 119743, Note_off_c, 0, 77, 40
1, 119860, Note_on_c, 0, 76, 48
1, 119866, Note_on_c, 0, 72, 42
1, 119892, Control_c, 0, 64, 79
1, 119921, Control_c, 0, 64, 78
1, 119936, Control_c, 0, 64, 77
1, 119951, Control_c, 0, 64, 75
1, 119966, Control_c, 0, 64, 72
1, 119980, Control_c, 0, 64, 67
1, 119995, Control_c, 0, 64, 61
1, 120010, Control_c, 0, 64, 51
1, 120033, Control_c, 0, 64, 35
1, 120048, Control_c, 0, 64, 0
1, 120052, Note_on_c, 0, 48, 51
1, 120092, Control_c, 0, 64, 36
1, 120106, Control_c, 0, 64, 48
1, 120121, Control_c, 0, 64, 57
1, 120136, Control_c, 0, 64, 61
1, 120151, Control_c, 0, 64, 63
1, 120166, Control_c, 0, 64, 65
1, 120180, Control_c, 0, 64, 67
1, 120195, Control_c, 0, 64, 69
1, 120210, Control_c, 0, 64, 71
1, 120225, Control_c, 0, 64, 72
1, 120238, Note_off_c, 0, 76, 46
1, 120240, Control_c, 0, 64, 73
1, 120245, Note_on_c, 0, 49, 60
1, 120253, Note_off_c, 0, 72, 34
1, 120266, Note_off_c, 0, 48, 50
1, 120269, Control_c, 0, 67, 124
1, 120284, Control_c, 0, 64, 73
1, 120284, Control_c, 0, 67, 120
1, 120299, Control_c, 0, 67, 115
1, 120314, Control_c, 0, 67, 98
1, 120329, Control_c, 0, 67, 72
1, 120344, Control_c, 0, 67, 45
1, 120359, Control_c, 0, 67, 0
1, 120394, Note_off_c, 0, 49, 64
1, 120413, Note_on_c, 0, 50, 67
1, 120433, Control_c, 0, 64, 73
1, 120477, Control_c, 0, 64, 72
1, 120492, Control_c, 0, 64, 72
1, 120506, Control_c, 0, 64, 71
1, 120521, Control_c, 0, 64, 70
1, 120536, Control_c, 0, 64, 70
1, 120551, Control_c, 0, 64, 69
1, 120566, Control_c, 0, 64, 68
1, 120580, Control_c, 0, 64, 67
1, 120595, Control_c, 0, 64, 65
1, 120609, Note_on_c, 0, 51, 67
1, 120611, Control_c, 0, 64, 64
1, 120626, Control_c, 0, 64, 62
1, 120641, Control_c, 0, 64, 60
1, 120656, Control_c, 0, 64, 59
1, 120671, Control_c, 0, 64, 57
1, 120685, Control_c, 0, 64, 55
1, 120693, Note_off_c, 0, 50, 39
1, 120700, Control_c, 0, 64, 53
1, 120715, Control_c, 0, 64, 50
1, 120729, Control_c, 0, 64, 45
1, 120744, Control_c, 0, 64, 39
1, 120759, Control_c, 0, 64, 0
1, 120796, Note_on_c, 0, 52, 69
1, 120871, Note_off_c, 0, 51, 54
1, 120981, Note_on_c, 0, 53, 73
1, 121014, Note_off_c, 0, 52, 61
1, 121131, Note_off_c, 0, 53, 63
1, 121142, Note_on_c, 0, 55, 71
1, 121351, Note_on_c, 0, 56, 66
1, 121357, Note_on_c, 0, 53, 54
1, 121364, Note_off_c, 0, 55, 58
1, 121546, Note_on_c, 0, 41, 75
1, 121608, Note_off_c, 0, 41, 64
1, 121715, Note_on_c, 0, 60, 51
1, 121726, Note_on_c, 0, 44, 78
1, 121786, Note_off_c, 0, 56, 57
1, 121791, Note_off_c, 0, 44, 64
1, 121885, Note_off_c, 0, 60, 55
1, 121891, Note_on_c, 0, 46, 81
1, 121969, Note_off_c, 0, 46, 60
1, 122058, Note_off_c, 0, 53, 58
1, 122099, Note_on_c, 0, 47, 71
1, 122108, Note_on_c, 0, 52, 42
1, 122108, Note_on_c, 0, 55, 44
1, 122242, Control_c, 0, 64, 37
1, 122257, Control_c, 0, 64, 54
1, 122279, Control_c, 0, 64, 63
1, 122294, Control_c, 0, 64, 67
1, 122296, Note_on_c, 0, 48, 75
1, 122308, Control_c, 0, 64, 72
1, 122323, Control_c, 0, 64, 77
1, 122325, Note_off_c, 0, 47, 63
1, 122329, Note_off_c, 0, 48, 67
1, 122338, Control_c, 0, 64, 81
1, 122353, Control_c, 0, 64, 84
1, 122398, Control_c, 0, 64, 82
1, 122412, Control_c, 0, 64, 69
1, 122427, Control_c, 0, 64, 52
1, 122442, Control_c, 0, 64, 0
1, 122481, Note_on_c, 0, 60, 64
1, 122642, Note_on_c, 0, 70, 71
1, 122647, Note_on_c, 0, 67, 68
1, 122679, Note_off_c, 0, 55, 55
1, 122690, Note_off_c, 0, 67, 62
1, 122696, Note_off_c, 0, 70, 61
1, 122818, Note_off_c, 0, 60, 54
1, 122822, Note_on_c, 0, 56, 69
1, 122826, Note_on_c, 0, 53, 64
1, 122879, Note_off_c, 0, 52, 35
1, 123003, Note_on_c, 0, 41, 84
1, 123072, Note_off_c, 0, 41, 65
1, 123185, Note_on_c, 0, 60, 68
1, 123189, Note_on_c, 0, 44, 87
1, 123251, Note_off_c, 0, 56, 59
1, 123260, Note_off_c, 0, 44, 64
1, 123355, Note_on_c, 0, 46, 87
1, 123435, Note_off_c, 0, 46, 61
1, 123482, Note_off_c, 0, 53, 58
1, 123566, Note_on_c, 0, 47, 80
1, 123589, Note_on_c, 0, 52, 46
1, 123589, Note_on_c, 0, 55, 46
1, 123632, Note_off_c, 0, 60, 51
1, 123745, Note_on_c, 0, 48, 81
1, 123791, Note_off_c, 0, 47, 64
1, 123791, Note_off_c, 0, 48, 66
1, 123937, Note_on_c, 0, 60, 59
1, 124081, Note_off_c, 0, 52, 58
1, 124106, Note_off_c, 0, 55, 50
1, 124114, Note_on_c, 0, 70, 62
1, 124125, Note_on_c, 0, 67, 53
1, 124211, Note_off_c, 0, 70, 55
1, 124222, Note_off_c, 0, 67, 47
1, 124308, Note_on_c, 0, 53, 36
1, 124399, Control_c, 0, 64, 33
1, 124414, Control_c, 0, 64, 44
1, 124429, Control_c, 0, 64, 51
1, 124444, Control_c, 0, 64, 52
1, 124472, Note_on_c, 0, 68, 53
1, 124473, Control_c, 0, 64, 51
1, 124481, Note_on_c, 0, 65, 50
1, 124482, Note_off_c, 0, 60, 58
1, 124488, Control_c, 0, 64, 50
1, 124503, Control_c, 0, 64, 47
1, 124526, Note_off_c, 0, 68, 60
1, 124526, Control_c, 0, 64, 41
1, 124529, Note_off_c, 0, 65, 61
1, 124532, Note_off_c, 0, 53, 58
1, 124541, Control_c, 0, 64, 30
1, 124555, Control_c, 0, 64, 0
1, 124676, Note_on_c, 0, 60, 45
1, 124686, Note_on_c, 0, 56, 47
1, 124704, Control_c, 0, 64, 33
1, 124719, Control_c, 0, 64, 37
1, 124734, Control_c, 0, 64, 40
1, 124749, Control_c, 0, 64, 42
1, 124778, Control_c, 0, 64, 42
1, 124793, Control_c, 0, 64, 39
1, 124808, Control_c, 0, 64, 35
1, 124823, Control_c, 0, 64, 31
1, 124838, Control_c, 0, 64, 0
1, 124845, Note_off_c, 0, 56, 61
1, 124848, Note_on_c, 0, 77, 65
1, 124884, Note_off_c, 0, 60, 62
1, 124906, Note_off_c, 0, 77, 62
1, 125037, Note_on_c, 0, 58, 51
1, 125039, Note_on_c, 0, 61, 50
1, 125201, Note_on_c, 0, 78, 75
1, 125235, Note_off_c, 0, 61, 62
1, 125246, Note_off_c, 0, 58, 60
1, 125250, Note_off_c, 0, 78, 59
1, 125407, Note_on_c, 0, 60, 47
1, 125407, Note_on_c, 0, 63, 53
1, 125580, Note_on_c, 0, 81, 75
1, 125614, Note_off_c, 0, 63, 64
1, 125616, Control_c, 0, 67, 39
1, 125628, Note_off_c, 0, 81, 62
1, 125631, Control_c, 0, 67, 58
1, 125633, Note_off_c, 0, 60, 60
1, 125646, Control_c, 0, 67, 75
1, 125661, Control_c, 0, 67, 85
1, 125705, Control_c, 0, 67, 84
1, 125719, Control_c, 0, 67, 83
1, 125749, Control_c, 0, 67, 83
1, 125764, Control_c, 0, 67, 81
1, 125779, Note_on_c, 0, 65, 54
1, 125779, Control_c, 0, 67, 81
1, 125787, Note_on_c, 0, 61, 46
1, 125793, Control_c, 0, 67, 80
1, 125808, Control_c, 0, 67, 79
1, 125823, Control_c, 0, 67, 77
1, 125838, Control_c, 0, 67, 76
1, 125852, Control_c, 0, 67, 75
1, 125882, Control_c, 0, 67, 75
1, 125897, Control_c, 0, 67, 74
1, 125926, Control_c, 0, 67, 73
1, 125928, Note_off_c, 0, 61, 64
1, 125936, Note_off_c, 0, 65, 63
1, 125945, Note_on_c, 0, 82, 70
1, 125985, Control_c, 0, 67, 73
1, 126006, Note_off_c, 0, 82, 61
1, 126037, Control_c, 0, 67, 72
1, 126156, Note_on_c, 0, 78, 60
1, 126167, Note_on_c, 0, 75, 52
1, 126231, Control_c, 0, 67, 71
1, 126233, Note_on_c, 0, 82, 56
1, 126285, Note_off_c, 0, 78, 57
1, 126288, Note_off_c, 0, 75, 61
1, 126323, Note_on_c, 0, 81, 74
1, 126341, Note_off_c, 0, 82, 61
1, 126379, Control_c, 0, 67, 72
1, 126412, Note_on_c, 0, 84, 69
1, 126415, Note_off_c, 0, 81, 62
1, 126438, Control_c, 0, 67, 71
1, 126444, Note_off_c, 0, 84, 59
1, 126453, Control_c, 0, 67, 71
1, 126467, Control_c, 0, 67, 69
1, 126482, Control_c, 0, 67, 66
1, 126497, Control_c, 0, 67, 60
1, 126502, Note_on_c, 0, 77, 67
1, 126505, Note_on_c, 0, 73, 65
1, 126512, Control_c, 0, 67, 56
1, 126527, Control_c, 0, 67, 50
1, 126541, Control_c, 0, 67, 38
1, 126556, Control_c, 0, 67, 0
1, 126583, Note_on_c, 0, 84, 76
1, 126627, Note_off_c, 0, 73, 61
1, 126657, Note_off_c, 0, 77, 60
1, 126672, Note_on_c, 0, 82, 78
1, 126681, Note_off_c, 0, 84, 62
1, 126759, Note_on_c, 0, 85, 76
1, 126776, Note_off_c, 0, 82, 64
1, 126800, Note_off_c, 0, 85, 54
1, 126861, Note_on_c, 0, 77, 66
1, 126862, Note_on_c, 0, 69, 66
1, 126948, Note_on_c, 0, 85, 79
1, 126985, Note_off_c, 0, 69, 59
1, 126991, Note_off_c, 0, 77, 57
1, 127039, Note_on_c, 0, 84, 80
1, 127040, Note_off_c, 0, 85, 62
1, 127121, Note_off_c, 0, 84, 63
1, 127125, Note_on_c, 0, 87, 75
1, 127245, Note_on_c, 0, 85, 69
1, 127251, Note_off_c, 0, 87, 62
1, 127265, Note_on_c, 0, 77, 43
1, 127265, Note_on_c, 0, 70, 47
1, 127282, Note_off_c, 0, 85, 57
1, 127482, Note_off_c, 0, 77, 51
1, 127510, Note_off_c, 0, 70, 37
1, 127519, Note_on_c, 0, 85, 53
1, 127522, Note_on_c, 0, 82, 53
1, 127560, Note_off_c, 0, 85, 59
1, 127566, Note_off_c, 0, 82, 58
1, 127580, Control_c, 0, 67, 43
1, 127595, Control_c, 0, 67, 71
1, 127610, Control_c, 0, 67, 99
1, 127624, Control_c, 0, 67, 124
1, 127639, Control_c, 0, 67, 127
1, 128327, Note_on_c, 0, 76, 40
1, 128336, Note_on_c, 0, 70, 38
1, 128337, Note_on_c, 0, 67, 33
1, 128339, Note_on_c, 0, 60, 33
1, 128402, Note_off_c, 0, 70, 56
1, 128420, Note_off_c, 0, 76, 57
1, 128423, Note_off_c, 0, 60, 57
1, 128438, Note_off_c, 0, 67, 51
1, 128625, Note_on_c, 0, 76, 44
1, 128637, Note_on_c, 0, 67, 27
1, 128650, Note_on_c, 0, 70, 26
1, 128657, Note_on_c, 0, 60, 25
1, 128746, Note_off_c, 0, 70, 35
1, 128759, Note_off_c, 0, 76, 48
1, 128789, Note_off_c, 0, 60, 36
1, 128794, Note_off_c, 0, 67, 45
1, 129470, Note_on_c, 0, 68, 54
1, 129475, Note_on_c, 0, 65, 50
1, 129479, Control_c, 0, 67, 115
1, 129493, Control_c, 0, 67, 56
1, 129508, Control_c, 0, 67, 0
1, 129647, Note_on_c, 0, 53, 69
1, 129722, Note_off_c, 0, 53, 62
1, 129793, Note_off_c, 0, 68, 56
1, 129823, Note_on_c, 0, 72, 71
1, 129832, Note_on_c, 0, 56, 78
1, 129889, Note_off_c, 0, 56, 64
1, 129968, Note_off_c, 0, 72, 59
1, 129990, Note_on_c, 0, 58, 86
1, 130063, Note_off_c, 0, 58, 62
1, 130184, Note_on_c, 0, 67, 65
1, 130193, Note_on_c, 0, 59, 86
1, 130196, Note_on_c, 0, 64, 57
1, 130273, Note_off_c, 0, 65, 56
1, 130302, Control_c, 0, 64, 32
1, 130316, Control_c, 0, 64, 51
1, 130331, Control_c, 0, 64, 64
1, 130346, Control_c, 0, 64, 71
1, 130361, Control_c, 0, 64, 81
1, 130367, Note_on_c, 0, 60, 72
1, 130376, Control_c, 0, 64, 86
1, 130381, Note_off_c, 0, 59, 65
1, 130390, Note_off_c, 0, 60, 70
1, 130390, Control_c, 0, 64, 85
1, 130405, Control_c, 0, 64, 79
1, 130419, Control_c, 0, 64, 66
1, 130434, Control_c, 0, 64, 47
1, 130449, Control_c, 0, 64, 0
1, 130565, Note_on_c, 0, 72, 66
1, 130688, Note_off_c, 0, 67, 57
1, 130723, Note_on_c, 0, 82, 72
1, 130732, Note_on_c, 0, 79, 64
1, 130753, Note_off_c, 0, 82, 61
1, 130770, Note_off_c, 0, 79, 65
1, 130828, Note_off_c, 0, 72, 59
1, 130848, Note_off_c, 0, 64, 64
1, 130917, Note_on_c, 0, 68, 65
1, 130919, Note_on_c, 0, 65, 65
1, 131078, Note_on_c, 0, 53, 72
1, 131157, Note_off_c, 0, 53, 61
1, 131254, Note_on_c, 0, 72, 75
1, 131266, Note_off_c, 0, 68, 59
1, 131272, Note_on_c, 0, 56, 83
1, 131330, Note_off_c, 0, 56, 63
1, 131429, Note_on_c, 0, 58, 85
1, 131474, Note_off_c, 0, 58, 65
1, 131521, Note_off_c, 0, 72, 58
1, 131632, Note_on_c, 0, 67, 61
1, 131642, Note_on_c, 0, 59, 76
1, 131652, Note_on_c, 0, 64, 44
1, 131785, Note_off_c, 0, 65, 60
1, 131813, Note_on_c, 0, 60, 75
1, 131886, Note_off_c, 0, 59, 46
1, 131913, Note_off_c, 0, 60, 61
1, 131917, Note_off_c, 0, 64, 63
1, 131993, Note_on_c, 0, 69, 79
1, 131993, Note_on_c, 0, 63, 82
1, 132053, Note_off_c, 0, 67, 60
1, 132159, Note_on_c, 0, 53, 81
1, 132162, Note_on_c, 0, 60, 84
1, 132214, Note_on_c, 0, 56, 22
1, 132222, Note_off_c, 0, 60, 63
1, 132253, Note_off_c, 0, 53, 64
1, 132257, Note_off_c, 0, 56, 30
1, 132357, Note_on_c, 0, 70, 85
1, 132366, Note_on_c, 0, 61, 86
1, 132369, Note_off_c, 0, 69, 35
1, 132428, Note_off_c, 0, 63, 58
1, 132502, Control_c, 0, 64, 30
1, 132517, Control_c, 0, 64, 32
1, 132532, Control_c, 0, 64, 34
1, 132534, Note_on_c, 0, 58, 93
1, 132535, Note_on_c, 0, 46, 87
1, 132547, Control_c, 0, 64, 36
1, 132561, Control_c, 0, 64, 37
1, 132562, Note_off_c, 0, 70, 61
1, 132576, Control_c, 0, 64, 39
1, 132592, Control_c, 0, 64, 39
1, 132607, Control_c, 0, 64, 40
1, 132622, Control_c, 0, 64, 41
1, 132622, Note_off_c, 0, 58, 60
1, 132622, Note_off_c, 0, 61, 59
1, 132651, Control_c, 0, 64, 41
1, 132669, Note_off_c, 0, 46, 62
1, 132724, Control_c, 0, 64, 41
1, 132739, Control_c, 0, 64, 40
1, 132741, Note_on_c, 0, 73, 88
1, 132746, Note_on_c, 0, 70, 79
1, 132747, Note_on_c, 0, 61, 83
1, 132759, Note_on_c, 0, 66, 79
1, 132762, Control_c, 0, 64, 40
1, 132777, Control_c, 0, 64, 39
1, 132791, Control_c, 0, 64, 37
1, 132806, Control_c, 0, 64, 36
1, 132821, Control_c, 0, 64, 34
1, 132835, Control_c, 0, 64, 33
1, 132850, Control_c, 0, 64, 33
1, 132865, Control_c, 0, 64, 32
1, 132909, Control_c, 0, 64, 30
1, 132915, Note_on_c, 0, 42, 70
1, 132954, Control_c, 0, 64, 0
1, 132956, Note_on_c, 0, 46, 75
1, 132993, Note_on_c, 0, 49, 79
1, 133036, Note_on_c, 0, 54, 86
1, 133399, Control_c, 0, 64, 36
1, 133414, Control_c, 0, 64, 44
1, 133429, Control_c, 0, 64, 51
1, 133444, Control_c, 0, 64, 55
1, 133458, Control_c, 0, 64, 57
1, 133473, Control_c, 0, 64, 59
1, 133488, Control_c, 0, 64, 61
1, 133510, Control_c, 0, 64, 63
1, 133525, Control_c, 0, 64, 65
1, 133540, Control_c, 0, 64, 67
1, 133555, Control_c, 0, 64, 69
1, 133570, Control_c, 0, 64, 72
1, 133571, Note_off_c, 0, 61, 48
1, 133585, Control_c, 0, 64, 74
1, 133600, Control_c, 0, 64, 76
1, 133608, Note_off_c, 0, 42, 58
1, 133609, Note_off_c, 0, 46, 58
1, 133613, Note_off_c, 0, 49, 60
1, 133614, Control_c, 0, 64, 78
1, 133624, Note_off_c, 0, 66, 35
1, 133629, Control_c, 0, 64, 80
1, 133634, Note_off_c, 0, 54, 55
1, 133644, Control_c, 0, 64, 83
1, 133658, Control_c, 0, 64, 84
1, 133673, Control_c, 0, 64, 85
1, 133688, Control_c, 0, 64, 86
1, 133703, Control_c, 0, 64, 86
1, 133715, Note_off_c, 0, 70, 37
1, 133718, Control_c, 0, 64, 87
1, 133732, Control_c, 0, 64, 87
1, 133763, Note_off_c, 0, 73, 51
1, 133821, Control_c, 0, 64, 88
1, 133955, Control_c, 0, 64, 87
1, 134073, Control_c, 0, 64, 87
1, 134088, Control_c, 0, 64, 86
1, 134103, Control_c, 0, 64, 85
1, 134118, Control_c, 0, 64, 84
1, 134132, Control_c, 0, 64, 83
1, 134147, Control_c, 0, 64, 81
1, 134163, Control_c, 0, 64, 79
1, 134178, Control_c, 0, 64, 77
1, 134193, Control_c, 0, 64, 76
1, 134208, Control_c, 0, 64, 74
1, 134223, Control_c, 0, 64, 71
1, 134238, Control_c, 0, 64, 68
1, 134260, Control_c, 0, 64, 65
1, 134275, Control_c, 0, 64, 62
1, 134289, Control_c, 0, 64, 59
1, 134304, Control_c, 0, 64, 57
1, 134319, Control_c, 0, 64, 54
1, 134334, Control_c, 0, 64, 50
1, 134349, Control_c, 0, 64, 45
1, 134363, Control_c, 0, 64, 36
1, 134378, Control_c, 0, 64, 0
1, 134482, Note_on_c, 0, 82, 56
1, 134512, Control_c, 0, 67, 42
1, 134518, Note_off_c, 0, 82, 62
1, 134527, Control_c, 0, 67, 54
1, 134542, Control_c, 0, 67, 64
1, 134556, Control_c, 0, 67, 75
1, 134571, Control_c, 0, 67, 85
1, 134586, Control_c, 0, 67, 94
1, 134588, Note_on_c, 0, 82, 64
1, 134601, Control_c, 0, 67, 101
1, 134615, Control_c, 0, 67, 107
1, 134630, Control_c, 0, 67, 115
1, 134645, Control_c, 0, 67, 122
1, 134660, Control_c, 0, 67, 127
1, 134661, Note_off_c, 0, 82, 60
1, 134676, Note_on_c, 0, 85, 66
1, 134754, Note_off_c, 0, 85, 62
1, 134756, Note_on_c, 0, 82, 69
1, 134780, Note_off_c, 0, 82, 70
1, 134828, Note_on_c, 0, 78, 77
1, 134849, Note_off_c, 0, 78, 68
1, 134905, Note_on_c, 0, 78, 67
1, 134964, Note_off_c, 0, 78, 60
1, 134980, Note_on_c, 0, 82, 64
1, 135051, Note_off_c, 0, 82, 62
1, 135062, Note_on_c, 0, 78, 70
1, 135090, Note_off_c, 0, 78, 63
1, 135141, Note_on_c, 0, 73, 76
1, 135163, Note_off_c, 0, 73, 70
1, 135228, Note_on_c, 0, 73, 61
1, 135296, Note_off_c, 0, 73, 61
1, 135317, Note_on_c, 0, 78, 58
1, 135393, Note_off_c, 0, 78, 59
1, 135403, Note_on_c, 0, 73, 57
1, 135429, Note_off_c, 0, 73, 64
1, 135478, Note_on_c, 0, 70, 72
1, 135500, Note_off_c, 0, 70, 71
1, 135566, Note_on_c, 0, 70, 59
1, 135614, Note_off_c, 0, 70, 61
1, 135659, Note_on_c, 0, 73, 48
1, 135721, Note_off_c, 0, 73, 53
1, 135735, Note_on_c, 0, 70, 56
1, 135773, Note_off_c, 0, 70, 67
1, 135838, Note_on_c, 0, 66, 67
1, 135867, Note_off_c, 0, 66, 68
1, 135938, Note_on_c, 0, 66, 59
1, 135981, Note_off_c, 0, 66, 60
1, 136027, Note_on_c, 0, 70, 49
1, 136109, Note_on_c, 0, 66, 51
1, 136117, Note_off_c, 0, 70, 51
1, 136156, Note_off_c, 0, 66, 59
1, 136297, Note_on_c, 0, 61, 36
1, 136321, Note_on_c, 0, 58, 35
1, 136329, Note_on_c, 0, 55, 33
1, 136425, Note_on_c, 0, 64, 49
1, 136469, Note_off_c, 0, 64, 61
1, 136515, Note_on_c, 0, 73, 57
1, 136575, Note_off_c, 0, 73, 57
1, 136601, Note_on_c, 0, 64, 58
1, 136644, Note_off_c, 0, 64, 62
1, 136692, Note_on_c, 0, 73, 58
1, 136763, Note_off_c, 0, 73, 60
1, 136776, Note_on_c, 0, 64, 52
1, 136813, Note_off_c, 0, 64, 64
1, 136873, Note_on_c, 0, 73, 58
1, 136913, Note_off_c, 0, 61, 42
1, 136929, Note_off_c, 0, 73, 51
1, 136965, Note_on_c, 0, 64, 39
1, 136999, Note_off_c, 0, 64, 55
1, 137140, Note_off_c, 0, 58, 40
1, 137144, Note_on_c, 0, 56, 36
1, 137145, Note_on_c, 0, 60, 29
1, 137162, Note_off_c, 0, 55, 39
1, 137244, Note_on_c, 0, 65, 48
1, 137299, Note_off_c, 0, 65, 57
1, 137347, Note_on_c, 0, 72, 53
1, 137410, Note_off_c, 0, 72, 55
1, 137439, Note_on_c, 0, 65, 54
1, 137480, Note_off_c, 0, 65, 61
1, 137536, Note_on_c, 0, 72, 55
1, 137593, Note_off_c, 0, 72, 58
1, 137617, Note_on_c, 0, 65, 50
1, 137681, Note_off_c, 0, 65, 55
1, 137713, Note_on_c, 0, 72, 59
1, 137784, Note_off_c, 0, 72, 60
1, 137822, Note_on_c, 0, 65, 41
1, 137854, Note_off_c, 0, 65, 54
1, 137896, Note_off_c, 0, 56, 54
1, 137935, Note_off_c, 0, 60, 42
1, 138045, Note_on_c, 0, 70, 46
1, 138061, Note_on_c, 0, 67, 41
1, 138262, Note_on_c, 0, 58, 48
1, 138368, Note_off_c, 0, 58, 58
1, 138426, Note_on_c, 0, 65, 53
1, 138436, Note_on_c, 0, 68, 60
1, 138463, Note_off_c, 0, 70, 43
1, 138557, Note_off_c, 0, 67, 34
1, 138617, Note_on_c, 0, 59, 57
1, 138739, Note_off_c, 0, 59, 57
1, 138812, Note_on_c, 0, 67, 59
1, 138846, Note_off_c, 0, 68, 54
1, 138983, Note_on_c, 0, 60, 47
1, 139131, Note_off_c, 0, 65, 61
1, 139141, Note_off_c, 0, 60, 54
1, 139173, Note_on_c, 0, 64, 54
1, 139179, Note_on_c, 0, 72, 49
1, 139244, Note_off_c, 0, 67, 57
1, 139375, Note_on_c, 0, 48, 50
1, 139465, Note_off_c, 0, 48, 59
1, 139578, Note_on_c, 0, 65, 45
1, 139637, Note_off_c, 0, 64, 58
1, 139653, Note_off_c, 0, 72, 36
1, 139773, Note_on_c, 0, 53, 45
1, 139851, Note_off_c, 0, 53, 56
1, 139985, Note_on_c, 0, 48, 47
1, 140039, Note_off_c, 0, 48, 56
1, 140200, Note_on_c, 0, 44, 41
1, 140273, Note_off_c, 0, 44, 56
1, 140498, Note_on_c, 0, 41, 31
1, 140499, Note_off_c, 0, 65, 50
1, 140938, Note_off_c, 0, 41, 39
1, 142059, Control_c, 0, 64, 32
1, 142073, Control_c, 0, 64, 40
1, 142088, Control_c, 0, 64, 47
1, 142103, Control_c, 0, 64, 52
1, 142117, Control_c, 0, 64, 55
1, 142132, Control_c, 0, 64, 57
1, 142147, Control_c, 0, 64, 58
1, 142162, Control_c, 0, 64, 60
1, 142178, Control_c, 0, 64, 61
1, 142193, Control_c, 0, 64, 63
1, 142208, Control_c, 0, 64, 64
1, 142222, Control_c, 0, 64, 66
1, 142237, Control_c, 0, 64, 67
1, 142252, Control_c, 0, 64, 69
1, 142267, Control_c, 0, 64, 71
1, 142282, Control_c, 0, 64, 72
1, 142296, Control_c, 0, 64, 73
1, 142311, Control_c, 0, 64, 74
1, 142326, Control_c, 0, 64, 75
1, 142341, Control_c, 0, 64, 75
1, 142356, Control_c, 0, 64, 76
1, 142370, Control_c, 0, 64, 76
1, 142400, Control_c, 0, 64, 77
1, 142429, Control_c, 0, 64, 77
1, 142431, Note_on_c, 0, 69, 47
1, 142444, Control_c, 0, 64, 78
1, 142459, Control_c, 0, 64, 78
1, 142474, Control_c, 0, 64, 79
1, 142496, Control_c, 0, 64, 80
1, 142511, Control_c, 0, 64, 81
1, 142526, Control_c, 0, 64, 82
1, 142540, Note_on_c, 0, 53, 30
1, 142541, Control_c, 0, 64, 83
1, 142555, Control_c, 0, 64, 84
1, 142570, Control_c, 0, 64, 84
1, 142585, Control_c, 0, 64, 85
1, 142600, Control_c, 0, 64, 86
1, 142615, Control_c, 0, 64, 86
1, 142629, Control_c, 0, 64, 87
1, 142644, Control_c, 0, 64, 87
1, 142656, Note_off_c, 0, 53, 61
1, 142659, Control_c, 0, 64, 88
1, 142674, Control_c, 0, 64, 88
1, 142689, Control_c, 0, 64, 89
1, 142718, Control_c, 0, 64, 89
1, 142733, Control_c, 0, 64, 90
1, 142763, Control_c, 0, 64, 90
1, 142778, Control_c, 0, 64, 91
1, 142808, Control_c, 0, 64, 91
1, 142837, Control_c, 0, 64, 92
1, 142926, Control_c, 0, 64, 92
1, 142984, Note_on_c, 0, 65, 33
1, 143275, Control_c, 0, 64, 92
1, 143319, Note_on_c, 0, 70, 64
1, 143340, Note_off_c, 0, 65, 39
1, 143350, Note_on_c, 0, 67, 43
1, 143373, Note_off_c, 0, 69, 35
1, 143393, Control_c, 0, 64, 91
1, 143408, Control_c, 0, 64, 88
1, 143423, Control_c, 0, 64, 83
1, 143438, Control_c, 0, 64, 73
1, 143452, Control_c, 0, 64, 62
1, 143467, Control_c, 0, 64, 44
1, 143482, Control_c, 0, 64, 0
1, 143556, Control_c, 0, 64, 31
1, 143571, Control_c, 0, 64, 37
1, 143586, Control_c, 0, 64, 43
1, 143601, Control_c, 0, 64, 47
1, 143616, Control_c, 0, 64, 49
1, 143631, Control_c, 0, 64, 49
1, 143660, Control_c, 0, 67, 113
1, 143671, Note_on_c, 0, 71, 76
1, 143675, Control_c, 0, 64, 49
1, 143675, Control_c, 0, 67, 88
1, 143684, Note_off_c, 0, 67, 47
1, 143689, Control_c, 0, 67, 63
1, 143695, Note_off_c, 0, 70, 60
1, 143704, Note_on_c, 0, 68, 44
1, 143704, Control_c, 0, 67, 43
1, 143719, Control_c, 0, 67, 0
1, 143765, Control_c, 0, 64, 49
1, 143780, Control_c, 0, 64, 50
1, 143794, Control_c, 0, 64, 52
1, 143809, Control_c, 0, 64, 55
1, 143824, Control_c, 0, 64, 58
1, 143839, Control_c, 0, 64, 61
1, 143854, Control_c, 0, 64, 64
1, 143868, Control_c, 0, 64, 66
1, 143883, Control_c, 0, 64, 67
1, 143893, Note_off_c, 0, 68, 58
1, 143899, Control_c, 0, 64, 69
1, 143914, Note_off_c, 0, 71, 59
1, 143914, Control_c, 0, 64, 69
1, 143929, Control_c, 0, 64, 70
1, 143943, Control_c, 0, 64, 70
1, 144123, Note_on_c, 0, 72, 55
1, 144163, Note_on_c, 0, 69, 33
1, 144188, Control_c, 0, 64, 70
1, 144202, Control_c, 0, 64, 69
1, 144217, Control_c, 0, 64, 68
1, 144232, Control_c, 0, 64, 66
1, 144247, Control_c, 0, 64, 63
1, 144262, Control_c, 0, 64, 53
1, 144276, Control_c, 0, 64, 30
1, 144291, Control_c, 0, 64, 0
1, 144365, Control_c, 0, 64, 39
1, 144380, Control_c, 0, 64, 53
1, 144394, Control_c, 0, 64, 60
1, 144409, Control_c, 0, 64, 63
1, 144424, Control_c, 0, 64, 64
1, 144439, Control_c, 0, 64, 65
1, 144454, Control_c, 0, 64, 67
1, 144468, Control_c, 0, 64, 69
1, 144483, Control_c, 0, 64, 71
1, 144498, Control_c, 0, 64, 72
1, 144513, Control_c, 0, 64, 73
1, 144528, Control_c, 0, 64, 74
1, 144543, Control_c, 0, 64, 74
1, 144572, Note_off_c, 0, 69, 22
1, 144573, Control_c, 0, 64, 75
1, 144590, Note_on_c, 0, 57, 35
1, 144632, Control_c, 0, 64, 75
1, 144646, Control_c, 0, 67, 48
1, 144659, Note_off_c, 0, 57, 38
1, 144661, Control_c, 0, 67, 66
1, 144666, Note_off_c, 0, 72, 40
1, 144676, Control_c, 0, 67, 88
1, 144690, Control_c, 0, 67, 105
1, 144698, Note_on_c, 0, 77, 50
1, 144705, Control_c, 0, 67, 117
1, 144720, Control_c, 0, 67, 126
1, 144726, Note_off_c, 0, 77, 56
1, 144764, Note_on_c, 0, 81, 66
1, 144793, Note_off_c, 0, 81, 65
1, 144816, Control_c, 0, 64, 75
1, 144821, Note_on_c, 0, 84, 64
1, 144869, Note_off_c, 0, 84, 64
1, 144876, Control_c, 0, 64, 74
1, 144879, Note_on_c, 0, 81, 71
1, 144890, Control_c, 0, 64, 73
1, 144905, Control_c, 0, 64, 71
1, 144920, Control_c, 0, 64, 69
1, 144921, Note_off_c, 0, 81, 61
1, 144935, Control_c, 0, 64, 67
1, 144939, Note_on_c, 0, 77, 51
1, 144949, Control_c, 0, 64, 65
1, 144964, Control_c, 0, 64, 63
1, 144966, Note_off_c, 0, 77, 64
1, 144979, Note_on_c, 0, 72, 54
1, 144979, Control_c, 0, 64, 61
1, 144994, Control_c, 0, 64, 59
1, 145007, Note_off_c, 0, 72, 63
1, 145009, Control_c, 0, 64, 58
1, 145023, Control_c, 0, 64, 56
1, 145038, Control_c, 0, 64, 52
1, 145053, Control_c, 0, 64, 47
1, 145068, Control_c, 0, 64, 35
1, 145083, Control_c, 0, 64, 0
1, 145090, Note_on_c, 0, 69, 41
1, 145209, Note_off_c, 0, 69, 58
1, 145455, Note_on_c, 0, 72, 48
1, 145492, Note_on_c, 0, 67, 34
1, 145543, Note_off_c, 0, 72, 61
1, 145557, Note_on_c, 0, 70, 59
1, 145619, Note_off_c, 0, 70, 64
1, 145638, Note_on_c, 0, 69, 64
1, 145663, Note_off_c, 0, 67, 44
1, 145720, Note_on_c, 0, 70, 70
1, 145721, Note_off_c, 0, 69, 58
1, 145797, Note_on_c, 0, 67, 64
1, 145808, Note_off_c, 0, 70, 62
1, 145830, Note_on_c, 0, 64, 49
1, 145832, Note_off_c, 0, 67, 62
1, 145965, Control_c, 0, 67, 124
1, 145979, Control_c, 0, 67, 112
1, 145985, Note_off_c, 0, 64, 62
1, 145994, Control_c, 0, 67, 99
1, 146009, Control_c, 0, 67, 85
1, 146024, Control_c, 0, 67, 71
1, 146039, Control_c, 0, 67, 60
1, 146054, Control_c, 0, 67, 55
1, 146069, Control_c, 0, 67, 51
1, 146083, Control_c, 0, 67, 45
1, 146098, Control_c, 0, 67, 0
1, 146147, Note_on_c, 0, 70, 59
1, 146158, Note_on_c, 0, 65, 41
1, 146225, Note_off_c, 0, 70, 58
1, 146230, Note_on_c, 0, 69, 58
1, 146287, Note_off_c, 0, 69, 61
1, 146300, Note_on_c, 0, 67, 68
1, 146312, Note_off_c, 0, 65, 58
1, 146375, Note_off_c, 0, 67, 63
1, 146383, Note_on_c, 0, 69, 70
1, 146439, Note_off_c, 0, 69, 60
1, 146456, Note_on_c, 0, 65, 61
1, 146489, Note_off_c, 0, 65, 63
1, 146498, Note_on_c, 0, 62, 49
1, 146604, Note_on_c, 0, 70, 67
1, 146644, Note_off_c, 0, 70, 64
1, 146658, Note_off_c, 0, 62, 56
1, 146669, Control_c, 0, 67, 50
1, 146684, Control_c, 0, 67, 103
1, 146686, Note_on_c, 0, 72, 61
1, 146699, Control_c, 0, 67, 127
1, 146728, Note_off_c, 0, 72, 61
1, 146739, Note_on_c, 0, 70, 73
1, 146769, Note_off_c, 0, 70, 62
1, 146796, Note_on_c, 0, 69, 63
1, 146826, Note_off_c, 0, 69, 64
1, 146832, Note_on_c, 0, 55, 35
1, 146835, Note_on_c, 0, 70, 64
1, 146876, Note_off_c, 0, 70, 63
1, 147000, Note_off_c, 0, 55, 62
1, 147042, Note_on_c, 0, 72, 62
1, 147100, Note_off_c, 0, 72, 57
1, 147127, Note_on_c, 0, 74, 65
1, 147168, Note_off_c, 0, 74, 59
1, 147299, Note_on_c, 0, 69, 58
1, 147315, Note_on_c, 0, 65, 38
1, 147324, Note_on_c, 0, 60, 37
1, 147492, Control_c, 0, 64, 36
1, 147494, Note_off_c, 0, 60, 59
1, 147507, Control_c, 0, 64, 43
1, 147522, Control_c, 0, 64, 50
1, 147536, Control_c, 0, 64, 54
1, 147551, Control_c, 0, 64, 56
1, 147566, Control_c, 0, 64, 57
1, 147581, Control_c, 0, 64, 57
1, 147610, Control_c, 0, 64, 58
1, 147640, Control_c, 0, 64, 57
1, 147655, Control_c, 0, 64, 56
1, 147670, Control_c, 0, 64, 54
1, 147685, Control_c, 0, 64, 51
1, 147699, Note_on_c, 0, 48, 46
1, 147699, Control_c, 0, 64, 45
1, 147714, Control_c, 0, 64, 34
1, 147736, Control_c, 0, 64, 0
1, 147956, Note_off_c, 0, 65, 57
1, 148129, Note_on_c, 0, 67, 43
1, 148135, Note_on_c, 0, 64, 44
1, 148232, Note_off_c, 0, 69, 41
1, 148332, Note_off_c, 0, 64, 63
1, 148354, Note_off_c, 0, 67, 63
1, 148662, Note_on_c, 0, 68, 49
1, 148819, Note_off_c, 0, 68, 61
1, 148821, Note_off_c, 0, 48, 59
1, 149055, Note_on_c, 0, 69, 43
1, 149088, Note_on_c, 0, 53, 30
1, 149094, Control_c, 0, 64, 35
1, 149108, Control_c, 0, 64, 49
1, 149123, Control_c, 0, 64, 58
1, 149138, Control_c, 0, 64, 60
1, 149141, Note_off_c, 0, 69, 58
1, 149153, Control_c, 0, 64, 62
1, 149168, Control_c, 0, 64, 64
1, 149178, Note_off_c, 0, 53, 63
1, 149182, Control_c, 0, 64, 66
1, 149183, Note_on_c, 0, 70, 49
1, 149197, Control_c, 0, 64, 69
1, 149212, Control_c, 0, 64, 72
1, 149214, Note_off_c, 0, 70, 65
1, 149235, Control_c, 0, 64, 73
1, 149250, Control_c, 0, 64, 75
1, 149264, Control_c, 0, 64, 77
1, 149279, Control_c, 0, 64, 79
1, 149294, Control_c, 0, 64, 80
1, 149300, Note_on_c, 0, 70, 65
1, 149308, Control_c, 0, 64, 82
1, 149314, Poly_aftertouch_c, 0, 69, 127
1, 149323, Control_c, 0, 64, 82
1, 149329, Note_off_c, 0, 70, 59
1, 149338, Control_c, 0, 64, 83
1, 149353, Control_c, 0, 64, 84
1, 149369, Control_c, 0, 64, 84
1, 149384, Control_c, 0, 64, 85
1, 149384, Poly_aftertouch_c, 0, 69, 0
1, 149393, Note_on_c, 0, 70, 67
1, 149399, Note_on_c, 0, 65, 57
1, 149413, Control_c, 0, 64, 85
1, 149413, Note_off_c, 0, 70, 60
1, 149431, Note_on_c, 0, 69, 61
1, 149443, Control_c, 0, 64, 86
1, 149462, Note_off_c, 0, 69, 66
1, 149479, Note_on_c, 0, 70, 64
1, 149487, Control_c, 0, 64, 86
1, 149495, Note_off_c, 0, 70, 63
1, 149516, Note_on_c, 0, 69, 64
1, 149545, Note_off_c, 0, 69, 62
1, 149564, Note_on_c, 0, 70, 63
1, 149601, Note_on_c, 0, 69, 68
1, 149610, Note_off_c, 0, 70, 62
1, 149634, Note_off_c, 0, 69, 62
1, 149650, Control_c, 0, 64, 87
1, 149675, Note_off_c, 0, 65, 51
1, 149756, Note_on_c, 0, 70, 58
1, 149766, Note_on_c, 0, 67, 57
1, 149768, Control_c, 0, 64, 86
1, 149783, Control_c, 0, 64, 78
1, 149786, Note_off_c, 0, 70, 65
1, 149798, Control_c, 0, 64, 66
1, 149813, Control_c, 0, 64, 53
1, 149828, Control_c, 0, 64, 50
1, 149843, Control_c, 0, 64, 53
1, 149858, Control_c, 0, 64, 56
1, 149873, Control_c, 0, 64, 61
1, 149887, Control_c, 0, 64, 64
1, 149889, Note_on_c, 0, 70, 55
1, 149902, Control_c, 0, 64, 67
1, 149909, Note_off_c, 0, 70, 62
1, 149916, Note_on_c, 0, 72, 13
1, 149917, Control_c, 0, 64, 71
1, 149931, Control_c, 0, 64, 75
1, 149946, Control_c, 0, 64, 77
1, 149954, Note_off_c, 0, 72, 60
1, 149961, Control_c, 0, 64, 79
1, 149969, Note_on_c, 0, 70, 51
1, 149983, Control_c, 0, 64, 80
1, 149998, Control_c, 0, 64, 81
1, 150009, Note_off_c, 0, 70, 48
1, 150013, Control_c, 0, 64, 82
1, 150022, Note_on_c, 0, 72, 63
1, 150028, Control_c, 0, 64, 82
1, 150042, Control_c, 0, 64, 83
1, 150053, Note_off_c, 0, 72, 63
1, 150055, Note_on_c, 0, 70, 46
1, 150057, Control_c, 0, 64, 83
1, 150065, Note_off_c, 0, 67, 59
1, 150072, Control_c, 0, 64, 84
1, 150095, Note_off_c, 0, 70, 60
1, 150113, Note_on_c, 0, 71, 74
1, 150131, Control_c, 0, 64, 80
1, 150139, Note_on_c, 0, 68, 61
1, 150139, Note_off_c, 0, 71, 61
1, 150146, Control_c, 0, 64, 69
1, 150161, Note_on_c, 0, 72, 77
1, 150162, Control_c, 0, 64, 55
1, 150177, Control_c, 0, 64, 39
1, 150191, Control_c, 0, 64, 40
1, 150201, Note_off_c, 0, 72, 62
1, 150206, Control_c, 0, 64, 46
1, 150221, Control_c, 0, 64, 55
1, 150233, Note_on_c, 0, 71, 66
1, 150236, Control_c, 0, 64, 60
1, 150251, Note_off_c, 0, 71, 64
1, 150251, Control_c, 0, 64, 63
1, 150266, Control_c, 0, 64, 66
1, 150267, Note_on_c, 0, 72, 67
1, 150281, Control_c, 0, 64, 69
1, 150293, Note_off_c, 0, 72, 66
1, 150296, Control_c, 0, 64, 71
1, 150310, Control_c, 0, 64, 74
1, 150317, Note_on_c, 0, 71, 69
1, 150325, Control_c, 0, 64, 76
1, 150340, Control_c, 0, 64, 78
1, 150342, Note_off_c, 0, 71, 66
1, 150348, Note_on_c, 0, 72, 74
1, 150354, Control_c, 0, 64, 78
1, 150382, Note_off_c, 0, 68, 59
1, 150385, Note_off_c, 0, 72, 56
1, 150398, Note_on_c, 0, 71, 76
1, 150428, Note_off_c, 0, 71, 57
1, 150502, Control_c, 0, 64, 77
1, 150517, Control_c, 0, 64, 72
1, 150532, Control_c, 0, 64, 64
1, 150539, Note_on_c, 0, 74, 75
1, 150547, Control_c, 0, 64, 51
1, 150549, Note_on_c, 0, 69, 51
1, 150561, Control_c, 0, 64, 35
1, 150576, Note_off_c, 0, 74, 58
1, 150576, Control_c, 0, 64, 32
1, 150591, Control_c, 0, 64, 37
1, 150606, Note_on_c, 0, 72, 63
1, 150606, Control_c, 0, 64, 47
1, 150621, Control_c, 0, 64, 56
1, 150636, Control_c, 0, 64, 62
1, 150637, Note_off_c, 0, 72, 62
1, 150651, Control_c, 0, 64, 66
1, 150665, Note_on_c, 0, 74, 75
1, 150666, Control_c, 0, 64, 69
1, 150680, Note_off_c, 0, 74, 68
1, 150680, Control_c, 0, 64, 71
1, 150695, Control_c, 0, 64, 73
1, 150710, Control_c, 0, 64, 74
1, 150733, Control_c, 0, 64, 75
1, 150734, Note_on_c, 0, 72, 53
1, 150737, Note_off_c, 0, 69, 38
1, 150748, Control_c, 0, 64, 76
1, 150758, Note_off_c, 0, 72, 56
1, 150761, Note_on_c, 0, 74, 73
1, 150762, Control_c, 0, 64, 77
1, 150792, Note_off_c, 0, 74, 60
1, 150792, Control_c, 0, 64, 77
1, 150807, Control_c, 0, 64, 78
1, 150817, Note_on_c, 0, 72, 67
1, 150822, Control_c, 0, 64, 78
1, 150832, Note_off_c, 0, 72, 67
1, 150851, Control_c, 0, 64, 78
1, 150866, Control_c, 0, 64, 73
1, 150874, Note_on_c, 0, 74, 36
1, 150880, Note_on_c, 0, 57, 48
1, 150880, Control_c, 0, 64, 64
1, 150890, Note_on_c, 0, 72, 72
1, 150895, Note_off_c, 0, 74, 0
1, 150895, Control_c, 0, 64, 46
1, 150910, Control_c, 0, 64, 43
1, 150919, Note_on_c, 0, 74, 54
1, 150922, Note_off_c, 0, 72, 59
1, 150925, Control_c, 0, 64, 49
1, 150940, Control_c, 0, 64, 57
1, 150956, Control_c, 0, 64, 64
1, 150971, Control_c, 0, 64, 70
1, 150979, Note_on_c, 0, 72, 62
1, 150980, Note_off_c, 0, 74, 65
1, 150985, Control_c, 0, 64, 76
1, 151000, Control_c, 0, 64, 82
1, 151007, Note_off_c, 0, 72, 65
1, 151015, Control_c, 0, 64, 85
1, 151021, Note_off_c, 0, 57, 62
1, 151023, Note_on_c, 0, 71, 58
1, 151030, Control_c, 0, 64, 87
1, 151045, Control_c, 0, 64, 89
1, 151059, Control_c, 0, 64, 90
1, 151065, Note_off_c, 0, 71, 59
1, 151069, Note_on_c, 0, 72, 73
1, 151074, Control_c, 0, 64, 91
1, 151101, Note_on_c, 0, 77, 78
1, 151119, Note_off_c, 0, 72, 61
1, 151138, Note_off_c, 0, 77, 61
1, 151193, Control_c, 0, 64, 89
1, 151208, Control_c, 0, 64, 84
1, 151223, Control_c, 0, 64, 75
1, 151238, Control_c, 0, 64, 62
1, 151252, Control_c, 0, 64, 38
1, 151267, Control_c, 0, 64, 0
1, 151294, Note_on_c, 0, 70, 60
1, 151301, Note_on_c, 0, 65, 55
1, 151322, Note_off_c, 0, 70, 68
1, 151326, Control_c, 0, 64, 39
1, 151341, Control_c, 0, 64, 54
1, 151346, Note_on_c, 0, 69, 64
1, 151356, Control_c, 0, 64, 62
1, 151371, Control_c, 0, 64, 65
1, 151372, Note_off_c, 0, 69, 69
1, 151384, Control_c, 0, 64, 67
1, 151392, Note_on_c, 0, 70, 76
1, 151399, Control_c, 0, 64, 71
1, 151414, Control_c, 0, 64, 75
1, 151420, Note_off_c, 0, 70, 59
1, 151429, Control_c, 0, 64, 77
1, 151444, Control_c, 0, 64, 78
1, 151452, Note_on_c, 0, 69, 66
1, 151458, Control_c, 0, 64, 80
1, 151480, Note_off_c, 0, 69, 66
1, 151481, Control_c, 0, 64, 81
1, 151483, Note_off_c, 0, 65, 37
1, 151496, Control_c, 0, 64, 82
1, 151501, Note_on_c, 0, 70, 68
1, 151525, Control_c, 0, 64, 82
1, 151527, Note_off_c, 0, 70, 55
1, 151542, Note_on_c, 0, 69, 68
1, 151569, Note_off_c, 0, 69, 68
1, 151570, Control_c, 0, 64, 83
1, 151618, Poly_aftertouch_c, 0, 70, 0
1, 151635, Note_on_c, 0, 53, 47
1, 151636, Note_on_c, 0, 69, 56
1, 151644, Control_c, 0, 64, 82
1, 151654, Note_off_c, 0, 69, 66
1, 151658, Control_c, 0, 64, 76
1, 151673, Control_c, 0, 64, 65
1, 151688, Control_c, 0, 64, 43
1, 151691, Poly_aftertouch_c, 0, 70, 127
1, 151703, Control_c, 0, 64, 0
1, 151707, Poly_aftertouch_c, 0, 70, 0
1, 151724, Note_on_c, 0, 69, 64
1, 151748, Control_c, 0, 64, 29
1, 151763, Control_c, 0, 64, 44
1, 151773, Note_off_c, 0, 69, 60
1, 151778, Control_c, 0, 64, 54
1, 151793, Control_c, 0, 64, 59
1, 151807, Control_c, 0, 64, 61
1, 151812, Note_on_c, 0, 67, 49
1, 151822, Control_c, 0, 64, 62
1, 151837, Note_off_c, 0, 67, 58
1, 151837, Control_c, 0, 64, 62
1, 151842, Note_on_c, 0, 69, 64
1, 151843, Note_off_c, 0, 53, 60
1, 151867, Control_c, 0, 64, 61
1, 151882, Control_c, 0, 64, 58
1, 151895, Note_on_c, 0, 74, 63
1, 151897, Control_c, 0, 64, 52
1, 151902, Note_off_c, 0, 69, 63
1, 151911, Control_c, 0, 64, 44
1, 151920, Note_off_c, 0, 74, 65
1, 151926, Control_c, 0, 64, 43
1, 151941, Control_c, 0, 64, 45
1, 151956, Control_c, 0, 64, 51
1, 151971, Control_c, 0, 64, 57
1, 151986, Control_c, 0, 64, 61
1, 152000, Control_c, 0, 64, 62
1, 152030, Control_c, 0, 64, 59
1, 152040, Note_on_c, 0, 67, 71
1, 152045, Control_c, 0, 64, 54
1, 152055, Note_on_c, 0, 62, 42
1, 152060, Control_c, 0, 64, 50
1, 152068, Note_off_c, 0, 67, 64
1, 152074, Control_c, 0, 64, 49
1, 152089, Control_c, 0, 64, 52
1, 152099, Note_on_c, 0, 65, 61
1, 152104, Control_c, 0, 64, 57
1, 152119, Control_c, 0, 64, 62
1, 152129, Note_off_c, 0, 65, 65
1, 152133, Control_c, 0, 64, 64
1, 152148, Control_c, 0, 64, 65
1, 152163, Control_c, 0, 64, 67
1, 152165, Note_on_c, 0, 67, 65
1, 152178, Control_c, 0, 64, 69
1, 152186, Note_off_c, 0, 67, 64
1, 152193, Control_c, 0, 64, 71
1, 152207, Control_c, 0, 64, 73
1, 152224, Note_on_c, 0, 65, 52
1, 152230, Control_c, 0, 64, 73
1, 152245, Control_c, 0, 64, 74
1, 152248, Note_off_c, 0, 65, 58
1, 152260, Control_c, 0, 64, 75
1, 152264, Note_on_c, 0, 67, 65
1, 152275, Control_c, 0, 64, 76
1, 152284, Note_off_c, 0, 62, 29
1, 152287, Note_off_c, 0, 67, 55
1, 152289, Control_c, 0, 64, 77
1, 152304, Control_c, 0, 64, 78
1, 152319, Control_c, 0, 64, 79
1, 152323, Note_on_c, 0, 65, 51
1, 152333, Control_c, 0, 64, 79
1, 152363, Control_c, 0, 64, 78
1, 152368, Note_off_c, 0, 65, 0
1, 152378, Control_c, 0, 64, 72
1, 152379, Note_on_c, 0, 65, 54
1, 152393, Control_c, 0, 64, 59
1, 152394, Note_on_c, 0, 67, 22
1, 152394, Note_on_c, 0, 50, 51
1, 152407, Control_c, 0, 64, 35
1, 152422, Control_c, 0, 64, 28
1, 152432, Note_off_c, 0, 67, 0
1, 152432, Note_on_c, 0, 67, 20
1, 152434, Note_off_c, 0, 65, 0
1, 152437, Control_c, 0, 64, 40
1, 152451, Control_c, 0, 64, 55
1, 152466, Control_c, 0, 64, 64
1, 152471, Poly_aftertouch_c, 0, 65, 127
1, 152475, Note_off_c, 0, 67, 62
1, 152481, Control_c, 0, 64, 68
1, 152496, Control_c, 0, 64, 70
1, 152502, Poly_aftertouch_c, 0, 65, 0
1, 152511, Control_c, 0, 64, 73
1, 152519, Note_off_c, 0, 50, 58
1, 152526, Control_c, 0, 64, 76
1, 152536, Note_on_c, 0, 64, 57
1, 152540, Control_c, 0, 64, 78
1, 152556, Control_c, 0, 64, 80
1, 152564, Note_off_c, 0, 64, 51
1, 152571, Control_c, 0, 64, 81
1, 152592, Note_on_c, 0, 65, 69
1, 152601, Control_c, 0, 64, 81
1, 152630, Control_c, 0, 64, 82
1, 152633, Note_off_c, 0, 65, 62
1, 152636, Note_on_c, 0, 69, 68
1, 152645, Control_c, 0, 64, 82
1, 152660, Control_c, 0, 64, 83
1, 152661, Note_off_c, 0, 69, 69
1, 152675, Control_c, 0, 64, 84
1, 152704, Control_c, 0, 64, 82
1, 152719, Control_c, 0, 64, 73
1, 152734, Control_c, 0, 64, 53
1, 152749, Control_c, 0, 64, 0
1, 152763, Note_on_c, 0, 77, 78
1, 152772, Note_on_c, 0, 74, 69
1, 152773, Note_on_c, 0, 59, 64
1, 152794, Control_c, 0, 64, 44
1, 152809, Note_off_c, 0, 59, 65
1, 152809, Control_c, 0, 64, 61
1, 152823, Control_c, 0, 64, 67
1, 152838, Control_c, 0, 64, 71
1, 152853, Control_c, 0, 64, 75
1, 152855, Note_on_c, 0, 60, 59
1, 152868, Control_c, 0, 64, 78
1, 152882, Control_c, 0, 64, 81
1, 152887, Note_off_c, 0, 60, 65
1, 152897, Control_c, 0, 64, 83
1, 152912, Control_c, 0, 64, 84
1, 152928, Note_on_c, 0, 59, 60
1, 152961, Note_off_c, 0, 59, 62
1, 153012, Note_on_c, 0, 57, 58
1, 153044, Note_off_c, 0, 57, 65
1, 153053, Control_c, 0, 64, 83
1, 153068, Control_c, 0, 64, 83
1, 153071, Note_on_c, 0, 59, 66
1, 153082, Control_c, 0, 64, 82
1, 153097, Control_c, 0, 64, 80
1, 153102, Note_off_c, 0, 59, 64
1, 153112, Control_c, 0, 64, 78
1, 153127, Control_c, 0, 64, 74
1, 153142, Control_c, 0, 64, 68
1, 153149, Note_off_c, 0, 74, 40
1, 153156, Control_c, 0, 64, 60
1, 153171, Control_c, 0, 64, 45
1, 153172, Note_on_c, 0, 76, 59
1, 153178, Note_on_c, 0, 72, 51
1, 153178, Note_off_c, 0, 77, 52
1, 153186, Control_c, 0, 64, 0
1, 153202, Note_on_c, 0, 60, 57
1, 153304, Control_c, 0, 64, 40
1, 153319, Control_c, 0, 64, 56
1, 153325, Note_off_c, 0, 72, 35
1, 153334, Control_c, 0, 64, 64
1, 153350, Control_c, 0, 64, 67
1, 153365, Note_off_c, 0, 76, 61
1, 153365, Control_c, 0, 64, 70
1, 153376, Note_off_c, 0, 60, 62
1, 153379, Control_c, 0, 64, 74
1, 153394, Control_c, 0, 64, 76
1, 153409, Control_c, 0, 64, 78
1, 153424, Control_c, 0, 64, 79
1, 153439, Control_c, 0, 64, 80
1, 153453, Control_c, 0, 64, 80
1, 153527, Control_c, 0, 64, 80
1, 153542, Control_c, 0, 64, 75
1, 153557, Control_c, 0, 64, 64
1, 153572, Control_c, 0, 64, 42
1, 153581, Note_on_c, 0, 74, 67
1, 153587, Control_c, 0, 64, 0
1, 153598, Note_on_c, 0, 60, 45
1, 153602, Note_on_c, 0, 53, 36
1, 153607, Note_off_c, 0, 74, 70
1, 153639, Note_on_c, 0, 76, 68
1, 153646, Control_c, 0, 64, 31
1, 153661, Control_c, 0, 64, 43
1, 153667, Note_off_c, 0, 76, 65
1, 153676, Control_c, 0, 64, 54
1, 153691, Control_c, 0, 64, 59
1, 153696, Note_on_c, 0, 74, 64
1, 153706, Control_c, 0, 64, 62
1, 153714, Note_off_c, 0, 74, 63
1, 153728, Control_c, 0, 64, 64
1, 153741, Note_on_c, 0, 76, 67
1, 153743, Control_c, 0, 64, 67
1, 153758, Control_c, 0, 64, 69
1, 153768, Note_off_c, 0, 76, 67
1, 153773, Control_c, 0, 64, 71
1, 153787, Control_c, 0, 64, 73
1, 153789, Note_on_c, 0, 74, 73
1, 153802, Control_c, 0, 64, 74
1, 153816, Note_off_c, 0, 74, 68
1, 153817, Control_c, 0, 64, 74
1, 153823, Note_on_c, 0, 76, 82
1, 153832, Control_c, 0, 64, 75
1, 153847, Control_c, 0, 64, 75
1, 153858, Note_off_c, 0, 76, 59
1, 153861, Control_c, 0, 64, 76
1, 153876, Control_c, 0, 64, 77
1, 153888, Note_on_c, 0, 74, 73
1, 153891, Control_c, 0, 64, 78
1, 153906, Control_c, 0, 64, 79
1, 153918, Note_off_c, 0, 74, 63
1, 153921, Control_c, 0, 64, 79
1, 153936, Control_c, 0, 64, 80
1, 153937, Note_off_c, 0, 53, 60
1, 153950, Control_c, 0, 64, 79
1, 153953, Note_on_c, 0, 75, 76
1, 153964, Note_on_c, 0, 54, 73
1, 153965, Control_c, 0, 64, 75
1, 153980, Control_c, 0, 64, 63
1, 153995, Control_c, 0, 64, 41
1, 154004, Note_off_c, 0, 75, 63
1, 154010, Control_c, 0, 64, 0
1, 154027, Note_on_c, 0, 77, 71
1, 154039, Control_c, 0, 64, 31
1, 154054, Control_c, 0, 64, 50
1, 154058, Note_off_c, 0, 77, 58
1, 154069, Control_c, 0, 64, 58
1, 154084, Note_on_c, 0, 75, 67
1, 154084, Control_c, 0, 64, 61
1, 154098, Control_c, 0, 64, 63
1, 154110, Note_off_c, 0, 75, 68
1, 154113, Control_c, 0, 64, 66
1, 154128, Control_c, 0, 64, 69
1, 154129, Note_on_c, 0, 77, 73
1, 154143, Control_c, 0, 64, 71
1, 154147, Note_off_c, 0, 77, 64
1, 154159, Control_c, 0, 64, 73
1, 154174, Control_c, 0, 64, 74
1, 154186, Note_on_c, 0, 75, 52
1, 154189, Control_c, 0, 64, 75
1, 154207, Note_off_c, 0, 75, 56
1, 154222, Note_on_c, 0, 77, 65
1, 154231, Note_off_c, 0, 54, 60
1, 154254, Note_off_c, 0, 77, 60
1, 154265, Note_on_c, 0, 75, 50
1, 154301, Note_off_c, 0, 75, 63
1, 154328, Note_on_c, 0, 55, 74
1, 154335, Note_on_c, 0, 76, 61
1, 154351, Control_c, 0, 64, 74
1, 154366, Control_c, 0, 64, 67
1, 154368, Note_off_c, 0, 76, 64
1, 154381, Control_c, 0, 64, 54
1, 154382, Note_on_c, 0, 77, 72
1, 154395, Control_c, 0, 64, 0
1, 154395, Control_c, 0, 67, 104
1, 154410, Control_c, 0, 67, 82
1, 154421, Note_off_c, 0, 77, 60
1, 154425, Control_c, 0, 67, 57
1, 154440, Control_c, 0, 67, 0
1, 154449, Note_on_c, 0, 76, 66
1, 154455, Control_c, 0, 64, 43
1, 154477, Control_c, 0, 64, 58
1, 154480, Note_off_c, 0, 76, 65
1, 154492, Control_c, 0, 64, 63
1, 154499, Note_on_c, 0, 77, 75
1, 154507, Control_c, 0, 64, 64
1, 154522, Control_c, 0, 64, 66
1, 154525, Note_off_c, 0, 77, 65
1, 154536, Control_c, 0, 64, 68
1, 154550, Note_on_c, 0, 76, 73
1, 154551, Control_c, 0, 64, 70
1, 154566, Control_c, 0, 64, 72
1, 154581, Control_c, 0, 64, 73
1, 154585, Note_off_c, 0, 76, 62
1, 154596, Note_on_c, 0, 77, 63
1, 154596, Control_c, 0, 64, 74
1, 154610, Control_c, 0, 64, 74
1, 154613, Note_off_c, 0, 77, 64
1, 154625, Control_c, 0, 64, 76
1, 154640, Control_c, 0, 64, 78
1, 154648, Note_on_c, 0, 76, 35
1, 154654, Control_c, 0, 64, 82
1, 154669, Control_c, 0, 64, 84
1, 154673, Note_off_c, 0, 55, 54
1, 154681, Note_off_c, 0, 76, 54
1, 154684, Control_c, 0, 64, 84
1, 154693, Note_on_c, 0, 78, 71
1, 154699, Control_c, 0, 64, 79
1, 154714, Note_on_c, 0, 57, 64
1, 154714, Control_c, 0, 64, 65
1, 154728, Control_c, 0, 64, 39
1, 154735, Note_off_c, 0, 78, 56
1, 154743, Control_c, 0, 64, 0
1, 154770, Note_on_c, 0, 79, 62
1, 154788, Control_c, 0, 64, 49
1, 154803, Control_c, 0, 64, 62
1, 154809, Note_off_c, 0, 79, 64
1, 154815, Note_on_c, 0, 78, 68
1, 154818, Control_c, 0, 64, 65
1, 154818, Control_c, 0, 67, 60
1, 154833, Control_c, 0, 64, 67
1, 154833, Control_c, 0, 67, 77
1, 154845, Note_off_c, 0, 78, 64
1, 154848, Control_c, 0, 64, 70
1, 154848, Control_c, 0, 67, 91
1, 154863, Control_c, 0, 64, 73
1, 154863, Control_c, 0, 67, 104
1, 154877, Control_c, 0, 64, 76
1, 154877, Control_c, 0, 67, 117
1, 154879, Note_on_c, 0, 79, 32
1, 154880, Note_off_c, 0, 60, 63
1, 154892, Control_c, 0, 64, 78
1, 154892, Control_c, 0, 67, 124
1, 154901, Note_on_c, 0, 78, 68
1, 154907, Control_c, 0, 64, 80
1, 154910, Note_off_c, 0, 79, 54
1, 154917, Note_off_c, 0, 57, 64
1, 154922, Control_c, 0, 64, 80
1, 154922, Control_c, 0, 67, 126
1, 154929, Note_off_c, 0, 78, 61
1, 154937, Control_c, 0, 64, 81
1, 154965, Note_on_c, 0, 79, 69
1, 155008, Note_off_c, 0, 79, 63
1, 155027, Note_on_c, 0, 78, 59
1, 155027, Control_c, 0, 64, 81
1, 155056, Control_c, 0, 64, 80
1, 155057, Note_off_c, 0, 78, 64
1, 155065, Note_on_c, 0, 79, 53
1, 155071, Control_c, 0, 64, 71
1, 155086, Control_c, 0, 64, 55
1, 155086, Note_off_c, 0, 79, 65
1, 155092, Note_on_c, 0, 64, 62
1, 155101, Control_c, 0, 64, 0
1, 155102, Note_on_c, 0, 60, 51
1, 155103, Note_on_c, 0, 55, 57
1, 155116, Control_c, 0, 64, 31
1, 155118, Note_on_c, 0, 81, 70
1, 155130, Control_c, 0, 64, 47
1, 155144, Note_off_c, 0, 81, 63
1, 155144, Control_c, 0, 64, 60
1, 155158, Note_on_c, 0, 79, 56
1, 155159, Control_c, 0, 64, 66
1, 155174, Control_c, 0, 64, 68
1, 155189, Control_c, 0, 64, 71
1, 155195, Note_off_c, 0, 79, 61
1, 155204, Control_c, 0, 64, 73
1, 155221, Note_on_c, 0, 81, 78
1, 155226, Control_c, 0, 64, 75
1, 155241, Control_c, 0, 64, 75
1, 155257, Note_off_c, 0, 81, 61
1, 155271, Note_on_c, 0, 79, 66
1, 155319, Note_off_c, 0, 79, 64
1, 155333, Note_on_c, 0, 78, 67
1, 155345, Control_c, 0, 64, 75
1, 155359, Control_c, 0, 64, 73
1, 155374, Control_c, 0, 64, 71
1, 155383, Note_off_c, 0, 78, 59
1, 155389, Control_c, 0, 64, 67
1, 155400, Note_on_c, 0, 79, 60
1, 155404, Control_c, 0, 64, 64
1, 155419, Control_c, 0, 64, 59
1, 155433, Control_c, 0, 64, 52
1, 155448, Control_c, 0, 64, 40
1, 155463, Control_c, 0, 64, 0
1, 155479, Note_on_c, 0, 84, 73
1, 155489, Note_off_c, 0, 79, 60
1, 155551, Control_c, 0, 64, 39
1, 155566, Control_c, 0, 64, 52
1, 155581, Control_c, 0, 64, 61
1, 155596, Control_c, 0, 64, 64
1, 155611, Control_c, 0, 64, 67
1, 155626, Note_off_c, 0, 55, 62
1, 155626, Control_c, 0, 64, 70
1, 155628, Note_off_c, 0, 60, 57
1, 155631, Note_off_c, 0, 84, 62
1, 155637, Note_off_c, 0, 64, 61
1, 155641, Control_c, 0, 64, 74
1, 155653, Note_on_c, 0, 79, 72
1, 155655, Control_c, 0, 64, 77
1, 155670, Control_c, 0, 64, 80
1, 155685, Control_c, 0, 64, 81
1, 155694, Note_off_c, 0, 79, 61
1, 155700, Control_c, 0, 64, 82
1, 155715, Control_c, 0, 64, 83
1, 155730, Control_c, 0, 64, 84
1, 155760, Control_c, 0, 64, 84
1, 155807, Note_on_c, 0, 77, 67
1, 155834, Note_off_c, 0, 77, 66
1, 155834, Note_on_c, 0, 65, 53
1, 155839, Note_on_c, 0, 55, 49
1, 155852, Note_on_c, 0, 62, 48
1, 155854, Note_on_c, 0, 79, 72
1, 155864, Control_c, 0, 64, 79
1, 155876, Note_off_c, 0, 79, 69
1, 155879, Control_c, 0, 64, 67
1, 155893, Control_c, 0, 64, 37
1, 155908, Control_c, 0, 64, 0
1, 155918, Note_on_c, 0, 77, 46
1, 155942, Note_off_c, 0, 77, 57
1, 155948, Note_on_c, 0, 79, 79
1, 155992, Note_off_c, 0, 79, 65
1, 155995, Note_on_c, 0, 77, 73
1, 156034, Note_off_c, 0, 77, 65
1, 156046, Note_on_c, 0, 76, 73
1, 156082, Note_off_c, 0, 76, 62
1, 156102, Note_on_c, 0, 77, 64
1, 156181, Note_on_c, 0, 74, 70
1, 156188, Note_off_c, 0, 77, 63
1, 156227, Control_c, 0, 64, 34
1, 156242, Control_c, 0, 64, 48
1, 156256, Control_c, 0, 64, 58
1, 156266, Note_off_c, 0, 74, 59
1, 156271, Control_c, 0, 64, 62
1, 156286, Control_c, 0, 64, 65
1, 156300, Control_c, 0, 64, 67
1, 156303, Note_off_c, 0, 65, 57
1, 156315, Control_c, 0, 64, 69
1, 156330, Control_c, 0, 64, 72
1, 156345, Control_c, 0, 64, 74
1, 156360, Control_c, 0, 64, 76
1, 156363, Note_off_c, 0, 62, 61
1, 156364, Note_on_c, 0, 71, 70
1, 156374, Control_c, 0, 64, 76
1, 156389, Control_c, 0, 64, 77
1, 156397, Note_off_c, 0, 55, 55
1, 156428, Note_off_c, 0, 71, 58
1, 156538, Control_c, 0, 64, 76
1, 156553, Control_c, 0, 64, 75
1, 156568, Control_c, 0, 64, 75
1, 156583, Control_c, 0, 64, 74
1, 156597, Control_c, 0, 64, 72
1, 156610, Note_on_c, 0, 74, 66
1, 156612, Control_c, 0, 64, 70
1, 156628, Control_c, 0, 64, 69
1, 156643, Control_c, 0, 64, 67
1, 156650, Note_on_c, 0, 65, 45
1, 156658, Control_c, 0, 64, 66
1, 156671, Note_on_c, 0, 60, 45
1, 156672, Control_c, 0, 64, 63
1, 156687, Control_c, 0, 64, 61
1, 156702, Control_c, 0, 64, 57
1, 156724, Control_c, 0, 64, 52
1, 156739, Control_c, 0, 64, 43
1, 156754, Control_c, 0, 64, 0
1, 156832, Note_off_c, 0, 60, 45
1, 157045, Note_on_c, 0, 55, 39
1, 157206, Note_off_c, 0, 55, 54
1, 157232, Note_off_c, 0, 65, 61
1, 157522, Note_on_c, 0, 64, 36
1, 157530, Note_on_c, 0, 72, 39
1, 157561, Note_on_c, 0, 48, 36
1, 157622, Note_off_c, 0, 74, 49
1, 157873, Note_off_c, 0, 48, 57
1, 157912, Note_off_c, 0, 72, 53
1, 157912, Note_off_c, 0, 64, 60
1, 158412, Note_on_c, 0, 59, 38
1, 158502, Control_c, 0, 64, 30
1, 158517, Control_c, 0, 64, 37
1, 158532, Control_c, 0, 64, 43
1, 158533, Note_on_c, 0, 67, 63
1, 158547, Control_c, 0, 64, 50
1, 158562, Control_c, 0, 64, 53
1, 158572, Note_off_c, 0, 59, 49
1, 158574, Note_on_c, 0, 64, 37
1, 158576, Control_c, 0, 64, 54
1, 158584, Note_on_c, 0, 60, 40
1, 158591, Control_c, 0, 64, 55
1, 158606, Control_c, 0, 64, 56
1, 158621, Control_c, 0, 64, 58
1, 158636, Control_c, 0, 64, 59
1, 158650, Control_c, 0, 64, 60
1, 158657, Note_off_c, 0, 60, 56
1, 158665, Control_c, 0, 64, 61
1, 158680, Control_c, 0, 64, 62
1, 158694, Control_c, 0, 64, 62
1, 158701, Note_on_c, 0, 62, 47
1, 158709, Control_c, 0, 64, 63
1, 158724, Control_c, 0, 64, 64
1, 158739, Control_c, 0, 64, 64
1, 158754, Control_c, 0, 64, 65
1, 158765, Note_off_c, 0, 62, 52
1, 158798, Note_on_c, 0, 60, 45
1, 158798, Control_c, 0, 64, 65
1, 158827, Control_c, 0, 64, 66
1, 158841, Note_off_c, 0, 60, 63
1, 158842, Control_c, 0, 64, 66
1, 158867, Note_on_c, 0, 62, 55
1, 158872, Control_c, 0, 64, 67
1, 158887, Control_c, 0, 64, 67
1, 158898, Note_off_c, 0, 62, 57
1, 158932, Note_on_c, 0, 60, 60
1, 158932, Control_c, 0, 64, 68
1, 158972, Note_off_c, 0, 60, 65
1, 158988, Note_on_c, 0, 62, 58
1, 159013, Note_off_c, 0, 62, 56
1, 159014, Control_c, 0, 64, 68
1, 159047, Note_on_c, 0, 60, 59
1, 159077, Note_off_c, 0, 60, 66
1, 159094, Note_on_c, 0, 62, 54
1, 159115, Note_off_c, 0, 62, 60
1, 159150, Note_on_c, 0, 60, 57
1, 159172, Note_off_c, 0, 60, 64
1, 159187, Note_on_c, 0, 62, 61
1, 159215, Note_off_c, 0, 62, 52
1, 159221, Control_c, 0, 64, 68
1, 159236, Control_c, 0, 64, 67
1, 159249, Note_on_c, 0, 60, 54
1, 159265, Control_c, 0, 64, 67
1, 159280, Control_c, 0, 64, 66
1, 159284, Note_off_c, 0, 60, 63
1, 159295, Control_c, 0, 64, 66
1, 159303, Note_on_c, 0, 68, 62
1, 159304, Note_on_c, 0, 62, 54
1, 159319, Note_on_c, 0, 65, 44
1, 159325, Control_c, 0, 64, 65
1, 159331, Note_off_c, 0, 62, 52
1, 159340, Control_c, 0, 64, 65
1, 159349, Note_off_c, 0, 64, 63
1, 159355, Control_c, 0, 64, 64
1, 159373, Note_on_c, 0, 60, 39
1, 159376, Note_off_c, 0, 67, 50
1, 159399, Note_off_c, 0, 60, 54
1, 159429, Control_c, 0, 64, 64
1, 159473, Control_c, 0, 64, 63
1, 159486, Note_on_c, 0, 60, 50
1, 159488, Control_c, 0, 64, 62
1, 159503, Control_c, 0, 64, 61
1, 159510, Note_off_c, 0, 60, 59
1, 159517, Control_c, 0, 64, 59
1, 159529, Note_on_c, 0, 62, 53
1, 159532, Control_c, 0, 64, 57
1, 159547, Control_c, 0, 64, 55
1, 159562, Control_c, 0, 64, 52
1, 159566, Note_off_c, 0, 62, 59
1, 159577, Control_c, 0, 64, 49
1, 159591, Control_c, 0, 64, 47
1, 159603, Note_on_c, 0, 60, 44
1, 159606, Control_c, 0, 64, 46
1, 159631, Note_off_c, 0, 60, 55
1, 159637, Note_on_c, 0, 69, 64
1, 159648, Note_on_c, 0, 66, 58
1, 159650, Note_on_c, 0, 62, 53
1, 159680, Control_c, 0, 64, 47
1, 159681, Note_off_c, 0, 62, 59
1, 159695, Control_c, 0, 64, 47
1, 159708, Note_on_c, 0, 60, 50
1, 159710, Control_c, 0, 64, 49
1, 159723, Note_off_c, 0, 68, 58
1, 159724, Note_off_c, 0, 65, 47
1, 159732, Control_c, 0, 64, 51
1, 159745, Note_off_c, 0, 60, 63
1, 159748, Control_c, 0, 64, 53
1, 159763, Control_c, 0, 64, 54
1, 159774, Note_on_c, 0, 62, 51
1, 159778, Control_c, 0, 64, 55
1, 159793, Control_c, 0, 64, 56
1, 159804, Note_off_c, 0, 62, 57
1, 159808, Control_c, 0, 64, 57
1, 159834, Note_on_c, 0, 60, 50
1, 159837, Control_c, 0, 64, 58
1, 159858, Note_off_c, 0, 60, 61
1, 159893, Note_on_c, 0, 62, 38
1, 159924, Note_off_c, 0, 62, 49
1, 159926, Control_c, 0, 64, 57
1, 159950, Note_on_c, 0, 60, 42
1, 159955, Control_c, 0, 64, 57
1, 159978, Note_off_c, 0, 60, 56
1, 159985, Control_c, 0, 64, 56
1, 160000, Control_c, 0, 64, 56
1, 160011, Note_on_c, 0, 62, 39
1, 160014, Control_c, 0, 64, 55
1, 160029, Control_c, 0, 64, 55
1, 160042, Note_off_c, 0, 62, 50
1, 160044, Control_c, 0, 64, 54
1, 160046, Note_on_c, 0, 70, 51
1, 160056, Note_on_c, 0, 67, 37
1, 160059, Control_c, 0, 64, 53
1, 160073, Note_on_c, 0, 60, 43
1, 160073, Control_c, 0, 64, 50
1, 160085, Note_off_c, 0, 69, 50
1, 160088, Control_c, 0, 64, 45
1, 160099, Note_off_c, 0, 60, 58
1, 160103, Control_c, 0, 64, 36
1, 160118, Control_c, 0, 64, 0
1, 160136, Note_off_c, 0, 66, 47
1, 160137, Note_on_c, 0, 62, 42
1, 160163, Control_c, 0, 64, 31
1, 160169, Note_off_c, 0, 62, 53
1, 160178, Control_c, 0, 64, 41
1, 160187, Note_on_c, 0, 60, 52
1, 160192, Control_c, 0, 64, 50
1, 160207, Control_c, 0, 64, 58
1, 160222, Control_c, 0, 64, 61
1, 160225, Note_off_c, 0, 60, 63
1, 160237, Control_c, 0, 64, 62
1, 160246, Note_off_c, 0, 67, 62
1, 160249, Note_on_c, 0, 62, 49
1, 160252, Control_c, 0, 64, 63
1, 160258, Note_off_c, 0, 70, 65
1, 160266, Control_c, 0, 64, 64
1, 160281, Control_c, 0, 64, 66
1, 160282, Note_off_c, 0, 62, 54
1, 160296, Control_c, 0, 64, 66
1, 160311, Control_c, 0, 64, 67
1, 160318, Note_on_c, 0, 60, 46
1, 160326, Control_c, 0, 64, 67
1, 160351, Note_off_c, 0, 60, 62
1, 160383, Note_on_c, 0, 62, 44
1, 160424, Note_off_c, 0, 62, 47
1, 160449, Note_on_c, 0, 77, 71
1, 160477, Note_on_c, 0, 60, 24
1, 160482, Control_c, 0, 64, 66
1, 160496, Control_c, 0, 64, 64
1, 160511, Control_c, 0, 64, 60
1, 160512, Note_off_c, 0, 60, 47
1, 160526, Control_c, 0, 64, 51
1, 160528, Note_on_c, 0, 62, 45
1, 160542, Control_c, 0, 64, 42
1, 160546, Note_on_c, 0, 76, 74
1, 160557, Control_c, 0, 64, 39
1, 160562, Note_off_c, 0, 77, 56
1, 160571, Control_c, 0, 64, 41
1, 160579, Note_off_c, 0, 62, 57
1, 160586, Control_c, 0, 64, 48
1, 160601, Control_c, 0, 64, 53
1, 160607, Note_off_c, 0, 76, 64
1, 160610, Note_on_c, 0, 74, 76
1, 160614, Note_on_c, 0, 60, 38
1, 160616, Control_c, 0, 64, 58
1, 160631, Control_c, 0, 64, 61
1, 160643, Note_off_c, 0, 60, 55
1, 160646, Control_c, 0, 64, 63
1, 160660, Control_c, 0, 64, 64
1, 160675, Control_c, 0, 64, 65
1, 160683, Note_on_c, 0, 62, 39
1, 160686, Note_on_c, 0, 76, 82
1, 160690, Control_c, 0, 64, 66
1, 160692, Note_off_c, 0, 74, 59
1, 160705, Control_c, 0, 64, 67
1, 160712, Note_off_c, 0, 62, 52
1, 160720, Control_c, 0, 64, 67
1, 160747, Note_on_c, 0, 60, 41
1, 160779, Control_c, 0, 67, 117
1, 160786, Note_off_c, 0, 60, 49
1, 160794, Control_c, 0, 67, 97
1, 160799, Note_on_c, 0, 62, 49
1, 160801, Note_on_c, 0, 79, 69
1, 160809, Control_c, 0, 64, 66
1, 160809, Control_c, 0, 67, 77
1, 160824, Control_c, 0, 64, 63
1, 160824, Control_c, 0, 67, 55
1, 160838, Control_c, 0, 64, 55
1, 160838, Control_c, 0, 67, 0
1, 160851, Note_off_c, 0, 62, 57
1, 160853, Control_c, 0, 64, 39
1, 160866, Note_off_c, 0, 76, 58
1, 160868, Control_c, 0, 64, 0
1, 160897, Control_c, 0, 64, 35
1, 160912, Control_c, 0, 64, 48
1, 160927, Control_c, 0, 64, 60
1, 160942, Control_c, 0, 64, 66
1, 160949, Note_on_c, 0, 62, 51
1, 160957, Control_c, 0, 64, 70
1, 160961, Note_off_c, 0, 79, 64
1, 160971, Control_c, 0, 64, 74
1, 160986, Control_c, 0, 64, 76
1, 160994, Poly_aftertouch_c, 0, 60, 0
1, 160996, Note_off_c, 0, 62, 60
1, 161001, Control_c, 0, 64, 78
1, 161012, Note_on_c, 0, 60, 20
1, 161015, Control_c, 0, 64, 79
1, 161030, Control_c, 0, 64, 80
1, 161065, Note_off_c, 0, 60, 54
1, 161077, Note_on_c, 0, 62, 39
1, 161164, Note_on_c, 0, 72, 60
1, 161164, Control_c, 0, 64, 80
1, 161174, Note_on_c, 0, 67, 48
1, 161178, Note_on_c, 0, 60, 21
1, 161179, Control_c, 0, 64, 76
1, 161194, Control_c, 0, 64, 67
1, 161198, Note_off_c, 0, 62, 0
1, 161198, Note_on_c, 0, 62, 4
1, 161215, Control_c, 0, 64, 56
1, 161227, Note_off_c, 0, 60, 43
1, 161230, Control_c, 0, 64, 46
1, 161236, Note_off_c, 0, 67, 57
1, 161245, Control_c, 0, 64, 47
1, 161246, Note_off_c, 0, 72, 60
1, 161248, Note_on_c, 0, 70, 65
1, 161260, Control_c, 0, 64, 54
1, 161275, Control_c, 0, 64, 61
1, 161280, Note_off_c, 0, 62, 57
1, 161289, Control_c, 0, 64, 66
1, 161293, Note_on_c, 0, 60, 39
1, 161304, Control_c, 0, 64, 73
1, 161314, Note_off_c, 0, 70, 64
1, 161319, Control_c, 0, 64, 76
1, 161323, Note_on_c, 0, 69, 69
1, 161328, Note_off_c, 0, 60, 54
1, 161335, Control_c, 0, 64, 78
1, 161343, Note_on_c, 0, 62, 39
1, 161350, Control_c, 0, 64, 79
1, 161365, Control_c, 0, 64, 80
1, 161380, Control_c, 0, 64, 81
1, 161384, Note_off_c, 0, 69, 62
1, 161390, Note_on_c, 0, 70, 74
1, 161391, Note_off_c, 0, 62, 58
1, 161411, Note_on_c, 0, 60, 40
1, 161442, Note_off_c, 0, 60, 55
1, 161469, Note_on_c, 0, 62, 42
1, 161498, Control_c, 0, 64, 78
1, 161500, Note_off_c, 0, 62, 54
1, 161506, Note_on_c, 0, 69, 68
1, 161513, Control_c, 0, 64, 67
1, 161519, Note_on_c, 0, 65, 57
1, 161526, Note_off_c, 0, 70, 59
1, 161528, Control_c, 0, 64, 54
1, 161533, Note_on_c, 0, 60, 42
1, 161543, Control_c, 0, 64, 38
1, 161558, Control_c, 0, 64, 36
1, 161572, Note_off_c, 0, 60, 52
1, 161573, Control_c, 0, 64, 43
1, 161586, Note_on_c, 0, 62, 49
1, 161587, Control_c, 0, 64, 55
1, 161602, Control_c, 0, 64, 65
1, 161617, Control_c, 0, 64, 70
1, 161632, Control_c, 0, 64, 75
1, 161632, Note_off_c, 0, 65, 63
1, 161635, Note_off_c, 0, 62, 59
1, 161646, Control_c, 0, 64, 78
1, 161659, Note_on_c, 0, 60, 51
1, 161661, Control_c, 0, 64, 82
1, 161669, Note_off_c, 0, 69, 64
1, 161676, Control_c, 0, 64, 85
1, 161691, Control_c, 0, 64, 87
1, 161697, Note_off_c, 0, 60, 64
1, 161706, Control_c, 0, 64, 89
1, 161720, Control_c, 0, 64, 90
1, 161725, Note_on_c, 0, 62, 49
1, 161735, Control_c, 0, 64, 90
1, 161750, Control_c, 0, 64, 91
1, 161765, Control_c, 0, 67, 54
1, 161766, Note_off_c, 0, 62, 51
1, 161780, Control_c, 0, 67, 72
1, 161791, Note_on_c, 0, 60, 49
1, 161794, Control_c, 0, 67, 87
1, 161809, Control_c, 0, 67, 96
1, 161824, Control_c, 0, 67, 102
1, 161835, Note_off_c, 0, 60, 59
1, 161838, Control_c, 0, 67, 107
1, 161853, Control_c, 0, 67, 113
1, 161858, Note_on_c, 0, 62, 47
1, 161868, Control_c, 0, 64, 90
1, 161868, Control_c, 0, 67, 120
1, 161869, Note_on_c, 0, 79, 69
1, 161883, Control_c, 0, 64, 84
1, 161883, Control_c, 0, 67, 127
1, 161892, Note_on_c, 0, 69, 51
1, 161898, Control_c, 0, 64, 72
1, 161912, Control_c, 0, 64, 55
1, 161927, Control_c, 0, 64, 36
1, 161931, Note_off_c, 0, 69, 51
1, 161936, Note_off_c, 0, 62, 56
1, 161942, Control_c, 0, 64, 33
1, 161964, Control_c, 0, 64, 41
1, 161965, Note_on_c, 0, 60, 39
1, 161970, Note_on_c, 0, 77, 77
1, 161979, Control_c, 0, 64, 53
1, 161993, Note_off_c, 0, 79, 61
1, 161993, Control_c, 0, 64, 62
1, 162008, Control_c, 0, 64, 66
1, 162012, Note_off_c, 0, 60, 63
1, 162023, Control_c, 0, 64, 70
1, 162035, Note_on_c, 0, 62, 47
1, 162038, Control_c, 0, 64, 73
1, 162044, Note_on_c, 0, 76, 71
1, 162053, Control_c, 0, 64, 74
1, 162057, Note_off_c, 0, 77, 61
1, 162067, Control_c, 0, 64, 76
1, 162082, Control_c, 0, 64, 78
1, 162097, Control_c, 0, 64, 79
1, 162109, Note_on_c, 0, 77, 74
1, 162111, Note_off_c, 0, 76, 65
1, 162112, Control_c, 0, 64, 79
1, 162125, Note_on_c, 0, 60, 50
1, 162127, Control_c, 0, 64, 80
1, 162129, Note_off_c, 0, 62, 46
1, 162157, Control_c, 0, 64, 80
1, 162180, Note_off_c, 0, 60, 63
1, 162205, Note_on_c, 0, 62, 47
1, 162219, Note_on_c, 0, 74, 81
1, 162231, Control_c, 0, 64, 77
1, 162240, Note_on_c, 0, 65, 58
1, 162246, Control_c, 0, 64, 68
1, 162250, Note_off_c, 0, 77, 51
1, 162261, Control_c, 0, 64, 54
1, 162276, Control_c, 0, 64, 0
1, 162276, Note_off_c, 0, 62, 52
1, 162297, Note_on_c, 0, 60, 49
1, 162321, Control_c, 0, 64, 37
1, 162335, Control_c, 0, 64, 55
1, 162340, Note_off_c, 0, 60, 63
1, 162350, Control_c, 0, 64, 65
1, 162363, Note_on_c, 0, 62, 49
1, 162365, Control_c, 0, 64, 68
1, 162380, Control_c, 0, 64, 73
1, 162387, Note_off_c, 0, 74, 63
1, 162395, Note_off_c, 0, 65, 63
1, 162395, Control_c, 0, 64, 77
1, 162409, Control_c, 0, 64, 81
1, 162410, Note_off_c, 0, 62, 59
1, 162424, Control_c, 0, 64, 85
1, 162437, Note_on_c, 0, 60, 58
1, 162439, Control_c, 0, 64, 87
1, 162454, Control_c, 0, 64, 88
1, 162465, Note_off_c, 0, 60, 61
1, 162468, Control_c, 0, 64, 89
1, 162483, Control_c, 0, 64, 90
1, 162495, Note_on_c, 0, 62, 59
1, 162513, Control_c, 0, 64, 90
1, 162556, Note_off_c, 0, 62, 54
1, 162557, Note_on_c, 0, 60, 51
1, 162572, Control_c, 0, 64, 89
1, 162580, Note_on_c, 0, 72, 73
1, 162587, Control_c, 0, 64, 78
1, 162599, Note_on_c, 0, 65, 54
1, 162602, Control_c, 0, 64, 63
1, 162614, Note_off_c, 0, 60, 61
1, 162616, Control_c, 0, 64, 41
1, 162631, Note_on_c, 0, 62, 41
1, 162631, Control_c, 0, 64, 0
1, 162646, Note_on_c, 0, 71, 66
1, 162646, Note_off_c, 0, 65, 59
1, 162646, Control_c, 0, 64, 34
1, 162661, Control_c, 0, 64, 50
1, 162663, Note_off_c, 0, 72, 60
1, 162676, Control_c, 0, 64, 62
1, 162685, Note_off_c, 0, 62, 60
1, 162690, Control_c, 0, 64, 66
1, 162713, Control_c, 0, 64, 68
1, 162726, Note_on_c, 0, 60, 53
1, 162728, Control_c, 0, 64, 70
1, 162732, Note_off_c, 0, 71, 63
1, 162733, Note_on_c, 0, 69, 71
1, 162742, Control_c, 0, 64, 73
1, 162757, Control_c, 0, 64, 74
1, 162764, Note_off_c, 0, 60, 66
1, 162772, Control_c, 0, 64, 75
1, 162795, Note_on_c, 0, 62, 43
1, 162811, Note_off_c, 0, 69, 60
1, 162816, Note_on_c, 0, 71, 73
1, 162826, Note_off_c, 0, 62, 53
1, 162896, Note_off_c, 0, 71, 57
1, 162905, Control_c, 0, 64, 74
1, 162920, Control_c, 0, 64, 72
1, 162936, Control_c, 0, 64, 66
1, 162951, Control_c, 0, 64, 57
1, 162965, Control_c, 0, 64, 44
1, 162974, Note_on_c, 0, 72, 59
1, 162980, Control_c, 0, 64, 0
1, 163001, Note_on_c, 0, 60, 31
1, 163003, Note_off_c, 0, 72, 65
1, 163005, Note_on_c, 0, 64, 42
1, 163043, Note_on_c, 0, 74, 66
1, 163054, Control_c, 0, 64, 34
1, 163069, Control_c, 0, 64, 50
1, 163081, Note_off_c, 0, 74, 62
1, 163084, Control_c, 0, 64, 60
1, 163099, Control_c, 0, 64, 62
1, 163105, Note_on_c, 0, 72, 56
1, 163114, Control_c, 0, 64, 63
1, 163129, Control_c, 0, 64, 64
1, 163135, Note_off_c, 0, 72, 64
1, 163144, Control_c, 0, 64, 65
1, 163158, Control_c, 0, 64, 65
1, 163169, Note_on_c, 0, 74, 62
1, 163188, Note_off_c, 0, 74, 62
1, 163188, Control_c, 0, 64, 66
1, 163213, Note_on_c, 0, 72, 67
1, 163236, Note_off_c, 0, 72, 68
1, 163260, Note_on_c, 0, 74, 74
1, 163281, Note_off_c, 0, 74, 70
1, 163299, Note_off_c, 0, 64, 59
1, 163319, Note_on_c, 0, 72, 61
1, 163335, Note_off_c, 0, 60, 41
1, 163337, Note_off_c, 0, 72, 62
1, 163351, Control_c, 0, 64, 65
1, 163352, Note_on_c, 0, 74, 77
1, 163383, Note_off_c, 0, 74, 55
1, 163396, Control_c, 0, 64, 65
1, 163397, Note_on_c, 0, 72, 73
1, 163410, Control_c, 0, 64, 64
1, 163419, Note_off_c, 0, 72, 69
1, 163440, Control_c, 0, 64, 64
1, 163443, Note_on_c, 0, 74, 48
1, 163462, Control_c, 0, 64, 63
1, 163475, Note_off_c, 0, 74, 57
1, 163477, Control_c, 0, 64, 62
1, 163483, Note_on_c, 0, 72, 74
1, 163492, Control_c, 0, 64, 60
1, 163504, Note_off_c, 0, 72, 65
1, 163507, Control_c, 0, 64, 58
1, 163522, Control_c, 0, 64, 53
1, 163525, Note_on_c, 0, 74, 64
1, 163537, Control_c, 0, 64, 46
1, 163552, Control_c, 0, 64, 0
1, 163576, Note_off_c, 0, 74, 65
1, 163582, Note_on_c, 0, 72, 74
1, 163632, Note_off_c, 0, 72, 60
1, 163678, Note_on_c, 0, 71, 47
1, 163719, Note_off_c, 0, 71, 46
1, 163760, Note_on_c, 0, 72, 53
1, 163788, Note_on_c, 0, 48, 51
1, 163819, Control_c, 0, 64, 36
1, 163833, Note_off_c, 0, 48, 61
1, 163833, Control_c, 0, 64, 49
1, 163848, Control_c, 0, 64, 58
1, 163863, Control_c, 0, 64, 62
1, 163878, Control_c, 0, 64, 64
1, 163893, Control_c, 0, 64, 66
1, 163907, Control_c, 0, 64, 70
1, 163922, Control_c, 0, 64, 74
1, 163937, Control_c, 0, 64, 77
1, 163942, Note_off_c, 0, 72, 56
1, 163952, Control_c, 0, 64, 78
1, 163976, Note_on_c, 0, 62, 57
1, 163978, Note_on_c, 0, 58, 62
1, 164011, Control_c, 0, 64, 74
1, 164026, Control_c, 0, 64, 64
1, 164041, Control_c, 0, 64, 46
1, 164056, Control_c, 0, 64, 0
1, 164064, Note_off_c, 0, 62, 60
1, 164109, Note_off_c, 0, 58, 55
1, 164167, Note_on_c, 0, 60, 67
1, 164170, Note_on_c, 0, 57, 67
1, 164262, Note_off_c, 0, 60, 61
1, 164291, Note_off_c, 0, 57, 62
1, 164364, Note_on_c, 0, 58, 58
1, 164375, Note_on_c, 0, 55, 62
1, 164456, Note_off_c, 0, 58, 64
1, 164539, Note_off_c, 0, 55, 57
1, 164641, Note_on_c, 0, 57, 42
1, 164649, Note_on_c, 0, 53, 61
1, 164713, Note_off_c, 0, 57, 59
1, 164766, Note_on_c, 0, 58, 44
1, 164792, Note_off_c, 0, 58, 58
1, 164819, Control_c, 0, 64, 29
1, 164828, Note_on_c, 0, 57, 47
1, 164834, Control_c, 0, 64, 36
1, 164849, Control_c, 0, 64, 43
1, 164852, Note_off_c, 0, 57, 57
1, 164864, Control_c, 0, 64, 49
1, 164869, Note_on_c, 0, 58, 62
1, 164878, Control_c, 0, 64, 53
1, 164893, Control_c, 0, 64, 55
1, 164899, Note_off_c, 0, 58, 65
1, 164908, Control_c, 0, 64, 56
1, 164919, Note_on_c, 0, 57, 55
1, 164923, Control_c, 0, 64, 58
1, 164938, Control_c, 0, 64, 59
1, 164944, Note_off_c, 0, 57, 61
1, 164960, Control_c, 0, 64, 60
1, 164973, Note_on_c, 0, 58, 60
1, 164975, Control_c, 0, 64, 61
1, 164989, Control_c, 0, 64, 62
1, 164991, Note_off_c, 0, 58, 63
1, 165003, Note_on_c, 0, 57, 62
1, 165004, Control_c, 0, 64, 62
1, 165019, Control_c, 0, 64, 63
1, 165034, Control_c, 0, 64, 64
1, 165038, Note_off_c, 0, 57, 65
1, 165049, Control_c, 0, 64, 65
1, 165057, Note_on_c, 0, 58, 66
1, 165063, Control_c, 0, 64, 65
1, 165078, Control_c, 0, 64, 66
1, 165080, Note_off_c, 0, 58, 60
1, 165093, Control_c, 0, 64, 67
1, 165097, Note_on_c, 0, 57, 65
1, 165108, Control_c, 0, 64, 67
1, 165123, Control_c, 0, 64, 68
1, 165129, Note_off_c, 0, 57, 66
1, 165138, Control_c, 0, 64, 69
1, 165141, Note_on_c, 0, 58, 64
1, 165153, Control_c, 0, 64, 69
1, 165168, Control_c, 0, 64, 70
1, 165169, Note_off_c, 0, 58, 60
1, 165182, Control_c, 0, 64, 70
1, 165185, Note_on_c, 0, 57, 68
1, 165197, Control_c, 0, 64, 71
1, 165212, Control_c, 0, 64, 72
1, 165215, Note_off_c, 0, 57, 62
1, 165227, Control_c, 0, 64, 73
1, 165231, Note_on_c, 0, 58, 74
1, 165242, Control_c, 0, 64, 73
1, 165257, Control_c, 0, 64, 74
1, 165271, Control_c, 0, 64, 75
1, 165272, Note_on_c, 0, 57, 38
1, 165286, Control_c, 0, 64, 76
1, 165301, Note_off_c, 0, 58, 62
1, 165301, Control_c, 0, 64, 76
1, 165305, Note_off_c, 0, 57, 46
1, 165316, Control_c, 0, 64, 77
1, 165332, Control_c, 0, 64, 78
1, 165346, Control_c, 0, 64, 78
1, 165361, Control_c, 0, 64, 79
1, 165376, Control_c, 0, 64, 79
1, 165384, Note_on_c, 0, 55, 78
1, 165389, Note_on_c, 0, 58, 59
1, 165405, Control_c, 0, 64, 79
1, 165414, Note_off_c, 0, 58, 61
1, 165420, Control_c, 0, 64, 74
1, 165426, Note_off_c, 0, 53, 60
1, 165435, Control_c, 0, 64, 64
1, 165450, Control_c, 0, 64, 48
1, 165460, Note_on_c, 0, 60, 45
1, 165465, Control_c, 0, 64, 38
1, 165479, Control_c, 0, 64, 43
1, 165492, Note_on_c, 0, 58, 66
1, 165492, Note_off_c, 0, 60, 64
1, 165494, Control_c, 0, 64, 53
1, 165509, Control_c, 0, 64, 61
1, 165524, Control_c, 0, 64, 66
1, 165531, Note_off_c, 0, 58, 63
1, 165539, Control_c, 0, 64, 69
1, 165553, Control_c, 0, 64, 72
1, 165568, Control_c, 0, 64, 73
1, 165572, Note_on_c, 0, 60, 58
1, 165583, Control_c, 0, 64, 74
1, 165598, Control_c, 0, 64, 74
1, 165612, Control_c, 0, 64, 75
1, 165618, Note_on_c, 0, 58, 58
1, 165643, Note_off_c, 0, 60, 60
1, 165710, Note_off_c, 0, 58, 60
1, 165723, Control_c, 0, 64, 74
1, 165731, Note_on_c, 0, 59, 66
1, 165738, Control_c, 0, 64, 70
1, 165740, Note_on_c, 0, 56, 87
1, 165749, Note_off_c, 0, 55, 61
1, 165752, Note_off_c, 0, 59, 63
1, 165753, Control_c, 0, 64, 62
1, 165767, Control_c, 0, 64, 41
1, 165779, Note_on_c, 0, 60, 71
1, 165782, Control_c, 0, 64, 0
1, 165820, Note_off_c, 0, 60, 63
1, 165837, Note_on_c, 0, 59, 62
1, 165871, Note_off_c, 0, 59, 64
1, 165871, Control_c, 0, 64, 39
1, 165883, Note_on_c, 0, 60, 64
1, 165886, Control_c, 0, 64, 55
1, 165901, Control_c, 0, 64, 65
1, 165916, Control_c, 0, 64, 69
1, 165922, Note_off_c, 0, 60, 61
1, 165931, Control_c, 0, 64, 74
1, 165934, Note_on_c, 0, 59, 76
1, 165946, Control_c, 0, 64, 77
1, 165960, Control_c, 0, 64, 81
1, 165960, Note_off_c, 0, 59, 66
1, 165975, Control_c, 0, 64, 83
1, 165990, Control_c, 0, 64, 85
1, 166004, Control_c, 0, 64, 85
1, 166019, Control_c, 0, 64, 86
1, 166093, Control_c, 0, 64, 85
1, 166123, Control_c, 0, 64, 84
1, 166139, Control_c, 0, 64, 80
1, 166154, Control_c, 0, 64, 75
1, 166165, Note_off_c, 0, 56, 56
1, 166169, Control_c, 0, 64, 66
1, 166178, Note_on_c, 0, 77, 74
1, 166183, Control_c, 0, 64, 54
1, 166198, Control_c, 0, 64, 0
1, 166202, Note_on_c, 0, 60, 53
1, 166203, Note_on_c, 0, 57, 41
1, 166228, Note_off_c, 0, 77, 58
1, 166270, Note_on_c, 0, 79, 61
1, 166314, Note_off_c, 0, 79, 62
1, 166316, Control_c, 0, 64, 44
1, 166331, Note_off_c, 0, 57, 64
1, 166331, Control_c, 0, 64, 60
1, 166337, Note_on_c, 0, 77, 68
1, 166346, Control_c, 0, 64, 68
1, 166362, Control_c, 0, 64, 76
1, 166364, Note_off_c, 0, 77, 67
1, 166366, Note_off_c, 0, 60, 63
1, 166376, Control_c, 0, 64, 83
1, 166391, Control_c, 0, 64, 88
1, 166405, Note_on_c, 0, 79, 65
1, 166406, Control_c, 0, 64, 94
1, 166421, Control_c, 0, 64, 97
1, 166427, Note_off_c, 0, 79, 66
1, 166458, Control_c, 0, 64, 99
1, 166464, Note_on_c, 0, 77, 71
1, 166487, Note_off_c, 0, 77, 69
1, 166505, Note_on_c, 0, 79, 65
1, 166528, Note_off_c, 0, 79, 66
1, 166544, Note_on_c, 0, 69, 73
1, 166551, Note_on_c, 0, 65, 62
1, 166553, Note_on_c, 0, 77, 78
1, 166562, Control_c, 0, 64, 95
1, 166577, Note_off_c, 0, 77, 67
1, 166577, Control_c, 0, 64, 82
1, 166591, Control_c, 0, 64, 66
1, 166606, Control_c, 0, 64, 40
1, 166609, Note_on_c, 0, 79, 71
1, 166621, Control_c, 0, 64, 0
1, 166632, Note_off_c, 0, 79, 65
1, 166658, Note_on_c, 0, 77, 67
1, 166665, Control_c, 0, 64, 39
1, 166675, Note_off_c, 0, 77, 66
1, 166680, Control_c, 0, 64, 56
1, 166690, Note_on_c, 0, 79, 61
1, 166695, Control_c, 0, 64, 65
1, 166709, Control_c, 0, 64, 69
1, 166723, Note_off_c, 0, 79, 58
1, 166724, Control_c, 0, 64, 74
1, 166735, Note_on_c, 0, 77, 80
1, 166739, Control_c, 0, 64, 79
1, 166753, Control_c, 0, 64, 83
1, 166755, Note_off_c, 0, 77, 69
1, 166768, Control_c, 0, 64, 86
1, 166783, Control_c, 0, 64, 87
1, 166786, Note_on_c, 0, 79, 56
1, 166798, Control_c, 0, 64, 87
1, 166810, Note_off_c, 0, 69, 59
1, 166813, Control_c, 0, 64, 88
1, 166824, Note_off_c, 0, 65, 60
1, 166826, Note_off_c, 0, 79, 63
1, 166831, Note_on_c, 0, 77, 81
1, 166876, Note_off_c, 0, 77, 61
1, 166888, Control_c, 0, 64, 87
1, 166900, Note_on_c, 0, 70, 79
1, 166902, Control_c, 0, 64, 86
1, 166909, Note_on_c, 0, 67, 70
1, 166916, Note_on_c, 0, 76, 80
1, 166917, Control_c, 0, 64, 75
1, 166933, Control_c, 0, 64, 60
1, 166944, Note_off_c, 0, 76, 64
1, 166948, Control_c, 0, 64, 0
1, 166980, Note_on_c, 0, 77, 79
1, 167013, Note_off_c, 0, 77, 63
1, 167022, Control_c, 0, 64, 44
1, 167037, Control_c, 0, 64, 59
1, 167041, Note_on_c, 0, 76, 73
1, 167051, Control_c, 0, 64, 65
1, 167064, Note_off_c, 0, 76, 71
1, 167066, Control_c, 0, 64, 68
1, 167081, Control_c, 0, 64, 71
1, 167082, Note_on_c, 0, 77, 77
1, 167096, Control_c, 0, 64, 75
1, 167111, Control_c, 0, 64, 78
1, 167112, Note_off_c, 0, 77, 58
1, 167126, Control_c, 0, 64, 81
1, 167139, Note_on_c, 0, 76, 79
1, 167141, Control_c, 0, 64, 83
1, 167156, Control_c, 0, 64, 84
1, 167159, Note_off_c, 0, 70, 59
1, 167171, Control_c, 0, 64, 84
1, 167173, Note_off_c, 0, 67, 59
1, 167178, Note_off_c, 0, 76, 58
1, 167185, Control_c, 0, 64, 85
1, 167207, Control_c, 0, 64, 86
1, 167208, Note_on_c, 0, 77, 37
1, 167222, Control_c, 0, 64, 88
1, 167236, Note_off_c, 0, 77, 56
1, 167237, Control_c, 0, 64, 89
1, 167252, Control_c, 0, 64, 91
1, 167270, Note_on_c, 0, 69, 72
1, 167271, Note_on_c, 0, 72, 78
1, 167278, Note_on_c, 0, 75, 74
1, 167281, Control_c, 0, 64, 90
1, 167296, Control_c, 0, 64, 78
1, 167311, Control_c, 0, 64, 60
1, 167326, Control_c, 0, 64, 0
1, 167334, Note_off_c, 0, 75, 64
1, 167357, Note_on_c, 0, 77, 68
1, 167385, Control_c, 0, 64, 34
1, 167400, Control_c, 0, 64, 52
1, 167408, Note_off_c, 0, 77, 64
1, 167415, Control_c, 0, 64, 62
1, 167417, Note_on_c, 0, 75, 70
1, 167430, Control_c, 0, 64, 66
1, 167442, Note_off_c, 0, 75, 67
1, 167445, Control_c, 0, 64, 69
1, 167459, Control_c, 0, 64, 73
1, 167461, Note_on_c, 0, 77, 63
1, 167474, Control_c, 0, 64, 76
1, 167489, Control_c, 0, 64, 78
1, 167494, Note_off_c, 0, 77, 65
1, 167499, Note_off_c, 0, 69, 56
1, 167502, Note_off_c, 0, 72, 57
1, 167504, Control_c, 0, 64, 79
1, 167517, Note_on_c, 0, 75, 55
1, 167537, Note_off_c, 0, 75, 58
1, 167550, Note_on_c, 0, 77, 65
1, 167592, Note_off_c, 0, 77, 62
1, 167600, Note_on_c, 0, 75, 74
1, 167622, Control_c, 0, 64, 74
1, 167637, Control_c, 0, 64, 60
1, 167651, Control_c, 0, 64, 29
1, 167652, Note_off_c, 0, 75, 65
1, 167666, Note_on_c, 0, 74, 75
1, 167666, Control_c, 0, 64, 0
1, 167683, Note_on_c, 0, 70, 68
1, 167727, Control_c, 0, 64, 33
1, 167731, Note_off_c, 0, 70, 60
1, 167742, Control_c, 0, 64, 48
1, 167756, Control_c, 0, 64, 57
1, 167756, Control_c, 0, 67, 111
1, 167771, Control_c, 0, 64, 62
1, 167771, Control_c, 0, 67, 94
1, 167776, Note_on_c, 0, 72, 56
1, 167786, Control_c, 0, 64, 63
1, 167786, Control_c, 0, 67, 71
1, 167800, Control_c, 0, 64, 64
1, 167800, Control_c, 0, 67, 50
1, 167807, Note_off_c, 0, 72, 63
1, 167815, Control_c, 0, 64, 65
1, 167815, Control_c, 0, 67, 0
1, 167830, Control_c, 0, 64, 66
1, 167842, Note_on_c, 0, 70, 64
1, 167845, Control_c, 0, 64, 67
1, 167860, Control_c, 0, 64, 68
1, 167869, Note_off_c, 0, 70, 69
1, 167874, Control_c, 0, 64, 68
1, 167883, Note_on_c, 0, 72, 69
1, 167904, Control_c, 0, 64, 69
1, 167919, Control_c, 0, 64, 69
1, 167923, Note_off_c, 0, 72, 56
1, 167934, Control_c, 0, 64, 70
1, 167956, Control_c, 0, 64, 70
1, 167966, Note_on_c, 0, 70, 64
1, 167971, Control_c, 0, 64, 68
1, 167986, Control_c, 0, 64, 59
1, 167993, Note_off_c, 0, 70, 68
1, 168001, Control_c, 0, 64, 38
1, 168003, Note_on_c, 0, 86, 85
1, 168015, Control_c, 0, 64, 0
1, 168017, Note_on_c, 0, 72, 66
1, 168030, Control_c, 0, 64, 32
1, 168042, Note_off_c, 0, 72, 67
1, 168045, Control_c, 0, 64, 47
1, 168060, Control_c, 0, 64, 59
1, 168075, Control_c, 0, 64, 63
1, 168089, Control_c, 0, 64, 65
1, 168104, Control_c, 0, 64, 68
1, 168112, Note_off_c, 0, 74, 60
1, 168119, Control_c, 0, 64, 73
1, 168129, Note_on_c, 0, 72, 50
1, 168134, Control_c, 0, 64, 77
1, 168149, Control_c, 0, 64, 80
1, 168151, Note_off_c, 0, 72, 59
1, 168156, Note_on_c, 0, 70, 54
1, 168163, Control_c, 0, 64, 82
1, 168178, Control_c, 0, 64, 83
1, 168190, Note_off_c, 0, 70, 66
1, 168193, Control_c, 0, 64, 83
1, 168220, Note_on_c, 0, 69, 57
1, 168256, Note_off_c, 0, 69, 65
1, 168292, Note_on_c, 0, 70, 67
1, 168330, Note_off_c, 0, 70, 57
1, 168342, Control_c, 0, 64, 83
1, 168356, Control_c, 0, 64, 81
1, 168364, Note_off_c, 0, 86, 58
1, 168371, Control_c, 0, 64, 78
1, 168386, Control_c, 0, 64, 73
1, 168400, Control_c, 0, 64, 65
1, 168415, Control_c, 0, 64, 55
1, 168423, Note_on_c, 0, 84, 74
1, 168430, Control_c, 0, 64, 37
1, 168431, Note_on_c, 0, 66, 43
1, 168445, Control_c, 0, 64, 0
1, 168464, Note_off_c, 0, 84, 66
1, 168474, Control_c, 0, 64, 29
1, 168489, Control_c, 0, 64, 43
1, 168492, Note_on_c, 0, 86, 59
1, 168504, Control_c, 0, 64, 57
1, 168519, Control_c, 0, 64, 65
1, 168535, Control_c, 0, 64, 70
1, 168541, Note_off_c, 0, 86, 63
1, 168550, Control_c, 0, 64, 76
1, 168563, Note_on_c, 0, 84, 71
1, 168565, Control_c, 0, 64, 82
1, 168579, Note_off_c, 0, 66, 58
1, 168579, Control_c, 0, 64, 87
1, 168586, Note_off_c, 0, 84, 71
1, 168594, Control_c, 0, 64, 90
1, 168609, Control_c, 0, 64, 92
1, 168610, Note_on_c, 0, 86, 67
1, 168623, Control_c, 0, 64, 94
1, 168638, Control_c, 0, 64, 96
1, 168640, Note_off_c, 0, 86, 62
1, 168668, Note_on_c, 0, 84, 73
1, 168683, Control_c, 0, 64, 98
1, 168690, Note_off_c, 0, 84, 70
1, 168706, Note_on_c, 0, 86, 70
1, 168720, Control_c, 0, 64, 101
1, 168733, Note_off_c, 0, 86, 66
1, 168765, Control_c, 0, 64, 86
1, 168768, Note_on_c, 0, 84, 73
1, 168779, Note_on_c, 0, 74, 51
1, 168779, Control_c, 0, 64, 65
1, 168783, Note_off_c, 0, 84, 68
1, 168794, Control_c, 0, 64, 42
1, 168800, Note_on_c, 0, 86, 68
1, 168809, Control_c, 0, 64, 35
1, 168818, Note_off_c, 0, 86, 67
1, 168824, Control_c, 0, 64, 48
1, 168838, Control_c, 0, 64, 60
1, 168848, Note_on_c, 0, 84, 72
1, 168853, Control_c, 0, 64, 69
1, 168868, Control_c, 0, 64, 81
1, 168879, Note_off_c, 0, 84, 62
1, 168880, Note_on_c, 0, 86, 79
1, 168883, Control_c, 0, 64, 88
1, 168898, Control_c, 0, 64, 92
1, 168903, Note_off_c, 0, 74, 63
1, 168912, Control_c, 0, 64, 95
1, 168914, Note_off_c, 0, 86, 61
1, 168927, Control_c, 0, 64, 99
1, 168933, Note_on_c, 0, 84, 66
1, 168942, Control_c, 0, 64, 103
1, 168990, Note_off_c, 0, 84, 60
1, 168998, Note_on_c, 0, 82, 74
1, 169067, Note_off_c, 0, 82, 62
1, 169079, Note_on_c, 0, 81, 76
1, 169120, Control_c, 0, 64, 92
1, 169135, Control_c, 0, 64, 75
1, 169142, Note_off_c, 0, 81, 62
1, 169149, Control_c, 0, 64, 58
1, 169164, Control_c, 0, 64, 0
1, 169180, Note_on_c, 0, 82, 72
1, 169204, Note_on_c, 0, 67, 54
1, 169209, Control_c, 0, 67, 43
1, 169223, Control_c, 0, 64, 45
1, 169223, Control_c, 0, 67, 62
1, 169237, Note_off_c, 0, 82, 64
1, 169238, Control_c, 0, 64, 60
1, 169238, Control_c, 0, 67, 84
1, 169241, Note_off_c, 0, 67, 65
1, 169253, Control_c, 0, 64, 65
1, 169253, Control_c, 0, 67, 100
1, 169262, Note_on_c, 0, 84, 74
1, 169268, Control_c, 0, 64, 69
1, 169268, Control_c, 0, 67, 113
1, 169283, Control_c, 0, 64, 72
1, 169283, Control_c, 0, 67, 126
1, 169297, Note_off_c, 0, 84, 58
1, 169297, Control_c, 0, 64, 76
1, 169302, Note_on_c, 0, 69, 34
1, 169312, Control_c, 0, 64, 79
1, 169328, Control_c, 0, 64, 80
1, 169330, Note_on_c, 0, 82, 70
1, 169337, Note_off_c, 0, 69, 55
1, 169343, Control_c, 0, 64, 81
1, 169344, Note_on_c, 0, 67, 57
1, 169353, Note_off_c, 0, 82, 70
1, 169358, Control_c, 0, 64, 82
1, 169373, Note_off_c, 0, 67, 68
1, 169386, Note_on_c, 0, 84, 75
1, 169407, Note_off_c, 0, 84, 70
1, 169409, Note_on_c, 0, 69, 51
1, 169417, Control_c, 0, 64, 82
1, 169429, Note_on_c, 0, 82, 70
1, 169434, Note_off_c, 0, 69, 59
1, 169458, Note_off_c, 0, 82, 70
1, 169479, Note_on_c, 0, 84, 79
1, 169506, Note_on_c, 0, 69, 70
1, 169515, Note_on_c, 0, 67, 5
1, 169516, Note_off_c, 0, 84, 61
1, 169531, Note_on_c, 0, 82, 63
1, 169534, Note_off_c, 0, 69, 63
1, 169547, Note_off_c, 0, 82, 64
1, 169564, Note_on_c, 0, 84, 69
1, 169583, Note_off_c, 0, 67, 0
1, 169583, Note_on_c, 0, 67, 13
1, 169608, Note_on_c, 0, 82, 73
1, 169617, Note_off_c, 0, 84, 62
1, 169646, Note_off_c, 0, 67, 52
1, 169666, Note_off_c, 0, 82, 61
1, 169671, Note_on_c, 0, 81, 64
1, 169687, Poly_aftertouch_c, 0, 69, 127
1, 169718, Note_off_c, 0, 81, 61
1, 169719, Note_on_c, 0, 66, 55
1, 169729, Poly_aftertouch_c, 0, 69, 0
1, 169756, Note_on_c, 0, 82, 73
1, 169756, Note_off_c, 0, 66, 66
1, 169809, Note_off_c, 0, 82, 61
1, 169812, Note_on_c, 0, 67, 49
1, 169842, Note_off_c, 0, 67, 54
1, 169861, Note_on_c, 0, 84, 65
1, 169883, Note_off_c, 0, 84, 66
1, 169883, Control_c, 0, 64, 82
1, 169898, Control_c, 0, 64, 74
1, 169904, Note_on_c, 0, 64, 44
1, 169913, Control_c, 0, 64, 62
1, 169928, Control_c, 0, 64, 41
1, 169929, Note_off_c, 0, 64, 59
1, 169938, Note_on_c, 0, 86, 73
1, 169943, Control_c, 0, 64, 31
1, 169958, Control_c, 0, 64, 37
1, 169973, Control_c, 0, 64, 50
1, 169977, Note_on_c, 0, 65, 52
1, 169979, Note_off_c, 0, 86, 64
1, 169987, Control_c, 0, 64, 61
1, 169991, Note_on_c, 0, 84, 58
1, 170002, Control_c, 0, 64, 66
1, 170005, Note_off_c, 0, 65, 63
1, 170017, Control_c, 0, 64, 68
1, 170028, Note_on_c, 0, 64, 56
1, 170032, Control_c, 0, 64, 71
1, 170033, Note_off_c, 0, 84, 64
1, 170046, Control_c, 0, 64, 74
1, 170061, Control_c, 0, 64, 79
1, 170063, Note_off_c, 0, 64, 65
1, 170066, Note_on_c, 0, 86, 72
1, 170076, Control_c, 0, 64, 82
1, 170083, Note_on_c, 0, 65, 63
1, 170083, Note_off_c, 0, 86, 64
1, 170091, Control_c, 0, 64, 86
1, 170100, Note_on_c, 0, 84, 72
1, 170106, Control_c, 0, 64, 88
1, 170116, Note_off_c, 0, 65, 63
1, 170122, Control_c, 0, 64, 90
1, 170124, Note_off_c, 0, 84, 70
1, 170137, Control_c, 0, 64, 91
1, 170142, Note_on_c, 0, 86, 77
1, 170147, Note_on_c, 0, 64, 60
1, 170151, Control_c, 0, 64, 93
1, 170166, Control_c, 0, 64, 95
1, 170181, Control_c, 0, 64, 97
1, 170183, Note_on_c, 0, 84, 78
1, 170183, Note_off_c, 0, 64, 61
1, 170185, Note_off_c, 0, 86, 62
1, 170202, Control_c, 0, 64, 100
1, 170227, Note_on_c, 0, 65, 52
1, 170230, Note_off_c, 0, 84, 61
1, 170232, Control_c, 0, 64, 102
1, 170256, Note_on_c, 0, 86, 55
1, 170284, Note_on_c, 0, 84, 67
1, 170289, Note_off_c, 0, 65, 60
1, 170292, Note_off_c, 0, 86, 56
1, 170313, Note_on_c, 0, 64, 55
1, 170353, Note_off_c, 0, 64, 62
1, 170366, Note_off_c, 0, 84, 62
1, 170369, Note_on_c, 0, 82, 73
1, 170405, Note_off_c, 0, 82, 57
1, 170405, Note_on_c, 0, 62, 63
1, 170438, Note_off_c, 0, 62, 63
1, 170448, Note_on_c, 0, 84, 64
1, 170500, Note_off_c, 0, 84, 62
1, 170514, Control_c, 0, 64, 100
1, 170524, Note_on_c, 0, 64, 20
1, 170526, Note_on_c, 0, 81, 72
1, 170529, Control_c, 0, 64, 93
1, 170544, Control_c, 0, 64, 84
1, 170557, Note_off_c, 0, 81, 58
1, 170558, Control_c, 0, 64, 72
1, 170560, Note_off_c, 0, 64, 55
1, 170573, Control_c, 0, 64, 59
1, 170575, Note_on_c, 0, 65, 60
1, 170584, Note_on_c, 0, 82, 72
1, 170588, Control_c, 0, 64, 35
1, 170602, Control_c, 0, 64, 0
1, 170621, Note_off_c, 0, 82, 59
1, 170646, Note_on_c, 0, 81, 77
1, 170691, Note_off_c, 0, 81, 61
1, 170697, Note_on_c, 0, 82, 68
1, 170739, Note_off_c, 0, 82, 57
1, 170766, Note_on_c, 0, 79, 57
1, 170795, Note_off_c, 0, 79, 62
1, 170822, Note_on_c, 0, 81, 52
1, 170892, Note_off_c, 0, 65, 57
1, 170909, Note_off_c, 0, 81, 61
1, 170953, Note_on_c, 0, 82, 61
1, 170971, Note_on_c, 0, 67, 40
1, 170977, Note_on_c, 0, 58, 35
1, 171040, Control_c, 0, 64, 31
1, 171055, Control_c, 0, 64, 45
1, 171070, Control_c, 0, 64, 57
1, 171079, Poly_aftertouch_c, 0, 83, 127
1, 171085, Control_c, 0, 64, 62
1, 171099, Control_c, 0, 64, 65
1, 171114, Control_c, 0, 64, 68
1, 171120, Note_off_c, 0, 82, 37
1, 171125, Poly_aftertouch_c, 0, 83, 0
1, 171129, Control_c, 0, 64, 71
1, 171144, Control_c, 0, 64, 75
1, 171159, Control_c, 0, 64, 78
1, 171173, Control_c, 0, 64, 80
1, 171180, Note_off_c, 0, 67, 61
1, 171180, Note_off_c, 0, 58, 41
1, 171188, Control_c, 0, 64, 82
1, 171203, Control_c, 0, 64, 84
1, 171218, Control_c, 0, 64, 86
1, 171232, Control_c, 0, 64, 86
1, 171247, Control_c, 0, 64, 87
1, 171261, Note_on_c, 0, 79, 58
1, 171277, Control_c, 0, 64, 87
1, 171290, Note_off_c, 0, 79, 64
1, 171292, Control_c, 0, 64, 86
1, 171306, Control_c, 0, 64, 75
1, 171314, Note_on_c, 0, 77, 63
1, 171321, Control_c, 0, 64, 61
1, 171336, Control_c, 0, 64, 30
1, 171338, Note_on_c, 0, 69, 45
1, 171342, Note_off_c, 0, 77, 67
1, 171347, Note_on_c, 0, 60, 47
1, 171351, Control_c, 0, 64, 0
1, 171368, Note_on_c, 0, 79, 57
1, 171387, Note_off_c, 0, 79, 65
1, 171411, Note_on_c, 0, 77, 52
1, 171432, Note_off_c, 0, 77, 58
1, 171449, Note_on_c, 0, 79, 69
1, 171453, Note_off_c, 0, 69, 44
1, 171472, Note_off_c, 0, 79, 66
1, 171484, Note_on_c, 0, 77, 68
1, 171536, Note_off_c, 0, 77, 62
1, 171559, Note_on_c, 0, 76, 55
1, 171586, Note_off_c, 0, 76, 54
1, 171615, Note_on_c, 0, 77, 57
1, 171736, Note_off_c, 0, 77, 62
1, 171753, Note_on_c, 0, 79, 54
1, 171767, Note_on_c, 0, 70, 34
1, 171908, Control_c, 0, 64, 44
1, 171922, Control_c, 0, 64, 60
1, 171937, Control_c, 0, 64, 64
1, 171952, Control_c, 0, 64, 66
1, 171955, Note_off_c, 0, 79, 38
1, 171967, Control_c, 0, 64, 68
1, 171982, Control_c, 0, 64, 71
1, 171987, Note_off_c, 0, 70, 61
1, 171997, Control_c, 0, 64, 73
1, 172012, Control_c, 0, 64, 75
1, 172027, Control_c, 0, 64, 75
1, 172056, Note_off_c, 0, 60, 40
1, 172130, Note_on_c, 0, 76, 60
1, 172166, Note_off_c, 0, 76, 59
1, 172189, Control_c, 0, 64, 74
1, 172204, Control_c, 0, 64, 73
1, 172219, Control_c, 0, 64, 72
1, 172234, Control_c, 0, 64, 69
1, 172248, Control_c, 0, 64, 67
1, 172263, Control_c, 0, 64, 65
1, 172278, Control_c, 0, 64, 63
1, 172280, Note_on_c, 0, 79, 44
1, 172293, Control_c, 0, 64, 61
1, 172299, Note_on_c, 0, 70, 46
1, 172308, Control_c, 0, 64, 59
1, 172322, Note_on_c, 0, 65, 39
1, 172322, Control_c, 0, 64, 57
1, 172337, Control_c, 0, 64, 55
1, 172352, Control_c, 0, 64, 52
1, 172366, Control_c, 0, 64, 49
1, 172381, Control_c, 0, 64, 47
1, 172396, Control_c, 0, 64, 44
1, 172411, Control_c, 0, 64, 41
1, 172426, Control_c, 0, 64, 38
1, 172436, Note_off_c, 0, 65, 53
1, 172447, Control_c, 0, 64, 36
1, 172462, Control_c, 0, 64, 34
1, 172477, Control_c, 0, 64, 32
1, 172656, Control_c, 0, 64, 32
1, 172670, Control_c, 0, 64, 33
1, 172685, Control_c, 0, 64, 33
1, 172715, Control_c, 0, 64, 34
1, 172730, Note_on_c, 0, 60, 35
1, 172745, Control_c, 0, 64, 34
1, 172760, Control_c, 0, 64, 35
1, 172790, Control_c, 0, 64, 35
1, 172819, Control_c, 0, 64, 36
1, 172834, Control_c, 0, 64, 36
1, 172864, Control_c, 0, 64, 37
1, 172878, Control_c, 0, 64, 37
1, 172900, Note_off_c, 0, 60, 54
1, 172908, Control_c, 0, 64, 38
1, 172924, Note_off_c, 0, 70, 59
1, 172938, Control_c, 0, 64, 38
1, 172982, Control_c, 0, 64, 39
1, 173070, Control_c, 0, 64, 39
1, 173175, Control_c, 0, 64, 40
1, 173225, Note_on_c, 0, 77, 37
1, 173237, Note_on_c, 0, 69, 34
1, 173242, Control_c, 0, 64, 40
1, 173258, Note_on_c, 0, 53, 22
1, 173404, Note_off_c, 0, 79, 34
1, 173435, Control_c, 0, 64, 40
1, 173614, Note_off_c, 0, 77, 37
1, 173624, Note_off_c, 0, 53, 36
1, 173662, Note_off_c, 0, 69, 41
1, 173761, Control_c, 0, 67, 122
1, 173776, Control_c, 0, 67, 107
1, 173791, Control_c, 0, 67, 90
1, 173806, Control_c, 0, 67, 74
1, 173820, Control_c, 0, 67, 58
1, 173835, Control_c, 0, 67, 42
1, 173850, Control_c, 0, 67, 0
1, 174006, Control_c, 0, 64, 40
1, 174050, Control_c, 0, 64, 41
1, 174065, Control_c, 0, 64, 41
1, 174080, Control_c, 0, 64, 42
1, 174094, Control_c, 0, 64, 42
1, 174109, Control_c, 0, 64, 43
1, 174125, Control_c, 0, 64, 44
1, 174140, Control_c, 0, 64, 46
1, 174155, Control_c, 0, 64, 47
1, 174169, Control_c, 0, 64, 48
1, 174184, Control_c, 0, 64, 50
1, 174199, Control_c, 0, 64, 52
1, 174214, Control_c, 0, 64, 54
1, 174229, Control_c, 0, 64, 57
1, 174243, Control_c, 0, 64, 60
1, 174258, Control_c, 0, 64, 61
1, 174273, Control_c, 0, 64, 62
1, 174288, Control_c, 0, 64, 63
1, 174303, Control_c, 0, 64, 64
1, 174317, Control_c, 0, 64, 66
1, 174332, Control_c, 0, 64, 67
1, 174347, Control_c, 0, 64, 70
1, 174362, Control_c, 0, 64, 72
1, 174376, Control_c, 0, 64, 75
1, 174391, Control_c, 0, 64, 78
1, 174406, Control_c, 0, 64, 82
1, 174421, Control_c, 0, 64, 87
1, 174436, Control_c, 0, 64, 92
1, 174450, Control_c, 0, 64, 99
1, 174465, Control_c, 0, 64, 110
1, 174480, Control_c, 0, 64, 127
1, 174784, Control_c, 0, 67, 37
1, 174799, Control_c, 0, 67, 64
1, 174814, Control_c, 0, 67, 94
1, 174829, Control_c, 0, 67, 119
1, 174843, Control_c, 0, 67, 127
1, 175016, Note_on_c, 0, 56, 28
1, 175045, Note_on_c, 0, 53, 26
1, 175138, Note_on_c, 0, 72, 37
1, 175209, Note_off_c, 0, 72, 58
1, 175238, Note_on_c, 0, 74, 51
1, 175323, Note_off_c, 0, 74, 57
1, 175337, Note_on_c, 0, 76, 55
1, 175384, Note_off_c, 0, 76, 60
1, 175407, Control_c, 0, 64, 112
1, 175422, Control_c, 0, 64, 89
1, 175433, Note_on_c, 0, 77, 64
1, 175437, Control_c, 0, 64, 74
1, 175455, Note_on_c, 0, 60, 42
1, 175459, Control_c, 0, 64, 65
1, 175473, Control_c, 0, 64, 63
1, 175488, Control_c, 0, 64, 64
1, 175503, Control_c, 0, 64, 66
1, 175518, Control_c, 0, 64, 68
1, 175532, Control_c, 0, 64, 71
1, 175534, Note_off_c, 0, 77, 62
1, 175535, Note_on_c, 0, 79, 62
1, 175547, Control_c, 0, 64, 75
1, 175562, Control_c, 0, 64, 78
1, 175577, Control_c, 0, 64, 80
1, 175592, Control_c, 0, 64, 82
1, 175607, Control_c, 0, 64, 84
1, 175622, Control_c, 0, 64, 85
1, 175623, Note_off_c, 0, 79, 61
1, 175626, Note_on_c, 0, 80, 67
1, 175636, Control_c, 0, 64, 85
1, 175651, Note_off_c, 0, 56, 41
1, 175651, Control_c, 0, 64, 86
1, 175672, Note_off_c, 0, 60, 38
1, 175699, Note_off_c, 0, 80, 65
1, 175718, Note_on_c, 0, 82, 66
1, 175726, Note_off_c, 0, 53, 41
1, 175756, Control_c, 0, 64, 85
1, 175763, Note_off_c, 0, 82, 61
1, 175786, Control_c, 0, 64, 84
1, 175800, Control_c, 0, 64, 78
1, 175811, Note_on_c, 0, 84, 67
1, 175815, Control_c, 0, 64, 70
1, 175821, Note_on_c, 0, 52, 38
1, 175821, Note_on_c, 0, 55, 38
1, 175830, Control_c, 0, 64, 60
1, 175845, Control_c, 0, 64, 47
1, 175860, Control_c, 0, 64, 37
1, 175875, Control_c, 0, 64, 37
1, 175889, Control_c, 0, 64, 42
1, 175892, Note_off_c, 0, 84, 56
1, 175904, Control_c, 0, 64, 52
1, 175905, Note_on_c, 0, 82, 63
1, 175919, Control_c, 0, 64, 59
1, 175934, Control_c, 0, 64, 63
1, 175948, Control_c, 0, 64, 67
1, 175963, Control_c, 0, 64, 70
1, 175978, Note_off_c, 0, 82, 63
1, 175978, Control_c, 0, 64, 73
1, 175991, Note_on_c, 0, 84, 74
1, 175993, Control_c, 0, 64, 76
1, 176008, Control_c, 0, 64, 78
1, 176022, Control_c, 0, 64, 79
1, 176037, Control_c, 0, 64, 80
1, 176052, Control_c, 0, 64, 80
1, 176069, Note_off_c, 0, 84, 61
1, 176076, Note_on_c, 0, 85, 72
1, 176155, Control_c, 0, 64, 80
1, 176164, Note_off_c, 0, 85, 62
1, 176170, Control_c, 0, 64, 76
1, 176173, Note_on_c, 0, 84, 69
1, 176193, Control_c, 0, 64, 67
1, 176201, Note_on_c, 0, 60, 42
1, 176208, Control_c, 0, 64, 54
1, 176222, Control_c, 0, 64, 44
1, 176237, Control_c, 0, 64, 45
1, 176242, Note_off_c, 0, 84, 57
1, 176252, Control_c, 0, 64, 51
1, 176267, Control_c, 0, 64, 58
1, 176271, Note_on_c, 0, 82, 70
1, 176282, Control_c, 0, 64, 63
1, 176296, Control_c, 0, 64, 66
1, 176311, Control_c, 0, 64, 73
1, 176326, Control_c, 0, 64, 78
1, 176340, Control_c, 0, 64, 81
1, 176355, Control_c, 0, 64, 83
1, 176358, Note_on_c, 0, 80, 72
1, 176358, Note_off_c, 0, 82, 59
1, 176365, Note_off_c, 0, 55, 36
1, 176370, Control_c, 0, 64, 85
1, 176385, Control_c, 0, 64, 86
1, 176397, Note_off_c, 0, 60, 54
1, 176400, Control_c, 0, 64, 86
1, 176432, Note_off_c, 0, 80, 62
1, 176448, Note_on_c, 0, 79, 63
1, 176463, Note_off_c, 0, 52, 48
1, 176534, Control_c, 0, 64, 86
1, 176547, Note_on_c, 0, 80, 69
1, 176564, Control_c, 0, 64, 85
1, 176571, Note_on_c, 0, 56, 44
1, 176578, Control_c, 0, 64, 81
1, 176580, Note_on_c, 0, 53, 43
1, 176587, Note_off_c, 0, 79, 39
1, 176593, Control_c, 0, 64, 74
1, 176608, Control_c, 0, 64, 64
1, 176623, Control_c, 0, 64, 47
1, 176638, Control_c, 0, 64, 37
1, 176641, Note_on_c, 0, 82, 72
1, 176649, Note_off_c, 0, 80, 62
1, 176653, Control_c, 0, 64, 39
1, 176668, Control_c, 0, 64, 46
1, 176683, Control_c, 0, 64, 55
1, 176698, Control_c, 0, 64, 62
1, 176712, Control_c, 0, 64, 67
1, 176727, Control_c, 0, 64, 71
1, 176727, Note_off_c, 0, 82, 65
1, 176733, Note_on_c, 0, 84, 75
1, 176742, Control_c, 0, 64, 75
1, 176757, Control_c, 0, 64, 77
1, 176771, Control_c, 0, 64, 79
1, 176786, Control_c, 0, 64, 81
1, 176801, Control_c, 0, 64, 83
1, 176816, Note_on_c, 0, 82, 81
1, 176816, Control_c, 0, 64, 83
1, 176827, Note_off_c, 0, 84, 62
1, 176831, Control_c, 0, 64, 84
1, 176845, Control_c, 0, 64, 84
1, 176875, Control_c, 0, 64, 84
1, 176890, Control_c, 0, 64, 83
1, 176903, Note_on_c, 0, 80, 71
1, 176905, Control_c, 0, 64, 75
1, 176919, Control_c, 0, 64, 63
1, 176942, Note_on_c, 0, 60, 52
1, 176942, Control_c, 0, 64, 51
1, 176952, Note_off_c, 0, 82, 60
1, 176957, Control_c, 0, 64, 51
1, 176971, Control_c, 0, 64, 56
1, 176986, Control_c, 0, 64, 62
1, 177001, Control_c, 0, 64, 68
1, 177007, Note_on_c, 0, 79, 67
1, 177016, Control_c, 0, 64, 76
1, 177023, Note_off_c, 0, 80, 59
1, 177031, Control_c, 0, 64, 84
1, 177045, Control_c, 0, 64, 87
1, 177052, Note_off_c, 0, 56, 60
1, 177058, Note_off_c, 0, 53, 61
1, 177060, Control_c, 0, 64, 90
1, 177070, Note_off_c, 0, 79, 62
1, 177075, Control_c, 0, 64, 92
1, 177090, Control_c, 0, 64, 93
1, 177092, Note_on_c, 0, 77, 71
1, 177105, Control_c, 0, 64, 94
1, 177121, Note_off_c, 0, 60, 60
1, 177163, Note_off_c, 0, 77, 60
1, 177172, Note_on_c, 0, 76, 66
1, 177247, Note_off_c, 0, 76, 59
1, 177267, Control_c, 0, 64, 93
1, 177275, Note_on_c, 0, 77, 66
1, 177282, Control_c, 0, 64, 90
1, 177297, Control_c, 0, 64, 82
1, 177302, Note_on_c, 0, 56, 46
1, 177310, Note_on_c, 0, 60, 43
1, 177312, Control_c, 0, 64, 70
1, 177328, Control_c, 0, 64, 56
1, 177342, Control_c, 0, 64, 44
1, 177357, Control_c, 0, 64, 43
1, 177372, Control_c, 0, 64, 47
1, 177377, Note_off_c, 0, 77, 61
1, 177378, Note_on_c, 0, 75, 64
1, 177386, Control_c, 0, 64, 54
1, 177401, Control_c, 0, 64, 59
1, 177416, Control_c, 0, 64, 63
1, 177431, Control_c, 0, 64, 66
1, 177446, Control_c, 0, 64, 70
1, 177461, Control_c, 0, 64, 74
1, 177472, Note_on_c, 0, 73, 67
1, 177476, Control_c, 0, 64, 76
1, 177477, Note_off_c, 0, 75, 59
1, 177491, Control_c, 0, 64, 77
1, 177506, Control_c, 0, 64, 78
1, 177520, Control_c, 0, 64, 79
1, 177535, Control_c, 0, 64, 80
1, 177541, Note_off_c, 0, 73, 62
1, 177550, Control_c, 0, 64, 81
1, 177559, Note_on_c, 0, 72, 68
1, 177609, Control_c, 0, 64, 79
1, 177612, Note_off_c, 0, 72, 60
1, 177624, Control_c, 0, 64, 72
1, 177639, Control_c, 0, 64, 58
1, 177649, Note_on_c, 0, 70, 64
1, 177654, Control_c, 0, 64, 39
1, 177655, Note_on_c, 0, 65, 45
1, 177668, Control_c, 0, 64, 30
1, 177690, Control_c, 0, 64, 32
1, 177705, Control_c, 0, 64, 40
1, 177720, Control_c, 0, 64, 52
1, 177735, Control_c, 0, 64, 61
1, 177741, Note_on_c, 0, 68, 65
1, 177750, Control_c, 0, 64, 65
1, 177750, Note_off_c, 0, 60, 59
1, 177756, Note_off_c, 0, 70, 58
1, 177765, Control_c, 0, 64, 68
1, 177780, Control_c, 0, 64, 72
1, 177786, Note_off_c, 0, 65, 57
1, 177794, Control_c, 0, 64, 75
1, 177809, Control_c, 0, 64, 77
1, 177824, Control_c, 0, 64, 79
1, 177831, Note_on_c, 0, 67, 63
1, 177839, Note_off_c, 0, 68, 57
1, 177839, Control_c, 0, 64, 80
1, 177854, Control_c, 0, 64, 81
1, 177868, Control_c, 0, 64, 81
1, 177895, Note_off_c, 0, 67, 61
1, 177910, Note_on_c, 0, 65, 63
1, 177988, Note_off_c, 0, 65, 58
1, 178001, Control_c, 0, 64, 81
1, 178016, Control_c, 0, 64, 79
1, 178026, Note_on_c, 0, 61, 54
1, 178031, Control_c, 0, 64, 73
1, 178040, Note_on_c, 0, 68, 57
1, 178046, Control_c, 0, 64, 62
1, 178060, Control_c, 0, 64, 47
1, 178066, Note_off_c, 0, 56, 37
1, 178068, Note_on_c, 0, 58, 41
1, 178075, Control_c, 0, 64, 34
1, 178090, Control_c, 0, 64, 32
1, 178105, Control_c, 0, 64, 35
1, 178114, Note_off_c, 0, 68, 62
1, 178121, Control_c, 0, 64, 42
1, 178130, Note_on_c, 0, 67, 61
1, 178135, Control_c, 0, 64, 49
1, 178150, Control_c, 0, 64, 55
1, 178165, Control_c, 0, 64, 60
1, 178180, Control_c, 0, 64, 64
1, 178180, Control_c, 0, 67, 124
1, 178185, Note_off_c, 0, 67, 56
1, 178195, Control_c, 0, 64, 66
1, 178195, Control_c, 0, 67, 97
1, 178209, Control_c, 0, 64, 69
1, 178209, Control_c, 0, 67, 66
1, 178224, Control_c, 0, 64, 71
1, 178224, Control_c, 0, 67, 0
1, 178228, Note_on_c, 0, 68, 57
1, 178239, Control_c, 0, 64, 73
1, 178254, Control_c, 0, 64, 75
1, 178266, Note_off_c, 0, 68, 63
1, 178269, Control_c, 0, 64, 77
1, 178284, Control_c, 0, 64, 78
1, 178298, Control_c, 0, 64, 78
1, 178304, Note_on_c, 0, 67, 63
1, 178313, Control_c, 0, 64, 79
1, 178328, Control_c, 0, 64, 79
1, 178337, Note_off_c, 0, 67, 61
1, 178388, Control_c, 0, 64, 79
1, 178403, Control_c, 0, 64, 75
1, 178417, Control_c, 0, 64, 66
1, 178439, Control_c, 0, 64, 54
1, 178443, Note_on_c, 0, 76, 56
1, 178454, Control_c, 0, 64, 47
1, 178466, Note_on_c, 0, 67, 49
1, 178469, Control_c, 0, 64, 48
1, 178484, Control_c, 0, 64, 53
1, 178498, Control_c, 0, 64, 58
1, 178513, Control_c, 0, 64, 62
1, 178519, Note_off_c, 0, 76, 63
1, 178528, Control_c, 0, 64, 67
1, 178532, Note_on_c, 0, 77, 67
1, 178533, Note_off_c, 0, 61, 37
1, 178543, Control_c, 0, 64, 73
1, 178558, Control_c, 0, 64, 80
1, 178573, Control_c, 0, 64, 84
1, 178588, Control_c, 0, 64, 87
1, 178600, Note_off_c, 0, 77, 60
1, 178602, Control_c, 0, 64, 90
1, 178617, Control_c, 0, 64, 92
1, 178629, Note_on_c, 0, 76, 68
1, 178632, Control_c, 0, 64, 95
1, 178639, Note_off_c, 0, 67, 54
1, 178662, Control_c, 0, 64, 97
1, 178686, Note_off_c, 0, 76, 61
1, 178701, Note_on_c, 0, 77, 73
1, 178729, Note_off_c, 0, 58, 36
1, 178777, Note_off_c, 0, 77, 56
1, 178780, Control_c, 0, 64, 94
1, 178795, Control_c, 0, 64, 82
1, 178803, Note_on_c, 0, 63, 67
1, 178803, Note_on_c, 0, 70, 64
1, 178809, Control_c, 0, 64, 68
1, 178824, Control_c, 0, 64, 51
1, 178832, Note_on_c, 0, 60, 47
1, 178839, Control_c, 0, 64, 31
1, 178854, Control_c, 0, 64, 0
1, 178868, Control_c, 0, 64, 35
1, 178871, Note_off_c, 0, 70, 63
1, 178883, Control_c, 0, 64, 47
1, 178889, Note_on_c, 0, 69, 60
1, 178898, Control_c, 0, 64, 58
1, 178914, Control_c, 0, 64, 63
1, 178929, Control_c, 0, 64, 67
1, 178944, Control_c, 0, 64, 71
1, 178957, Note_off_c, 0, 69, 54
1, 178959, Control_c, 0, 64, 76
1, 178974, Control_c, 0, 64, 79
1, 178988, Note_on_c, 0, 70, 67
1, 178989, Control_c, 0, 64, 81
1, 179004, Control_c, 0, 64, 83
1, 179019, Control_c, 0, 64, 84
1, 179033, Control_c, 0, 64, 85
1, 179045, Note_off_c, 0, 70, 62
1, 179048, Control_c, 0, 64, 85
1, 179074, Note_on_c, 0, 69, 66
1, 179106, Note_off_c, 0, 69, 64
1, 179152, Control_c, 0, 64, 85
1, 179166, Control_c, 0, 64, 84
1, 179181, Control_c, 0, 64, 80
1, 179191, Note_on_c, 0, 78, 63
1, 179204, Control_c, 0, 64, 72
1, 179210, Note_on_c, 0, 69, 52
1, 179219, Control_c, 0, 64, 62
1, 179234, Control_c, 0, 64, 44
1, 179243, Note_off_c, 0, 78, 62
1, 179248, Control_c, 0, 64, 0
1, 179280, Note_on_c, 0, 77, 66
1, 179307, Control_c, 0, 64, 45
1, 179322, Control_c, 0, 64, 59
1, 179337, Note_off_c, 0, 63, 62
1, 179337, Control_c, 0, 64, 66
1, 179345, Note_off_c, 0, 77, 62
1, 179352, Control_c, 0, 64, 71
1, 179366, Control_c, 0, 64, 75
1, 179371, Note_on_c, 0, 78, 68
1, 179381, Control_c, 0, 64, 79
1, 179396, Control_c, 0, 64, 82
1, 179411, Control_c, 0, 64, 85
1, 179422, Note_off_c, 0, 60, 58
1, 179426, Control_c, 0, 64, 87
1, 179430, Note_off_c, 0, 69, 51
1, 179440, Note_off_c, 0, 78, 59
1, 179440, Control_c, 0, 64, 87
1, 179455, Note_on_c, 0, 77, 67
1, 179513, Note_off_c, 0, 77, 60
1, 179571, Note_on_c, 0, 65, 65
1, 179574, Control_c, 0, 64, 87
1, 179589, Control_c, 0, 64, 86
1, 179604, Control_c, 0, 64, 84
1, 179610, Note_on_c, 0, 61, 43
1, 179619, Control_c, 0, 64, 80
1, 179633, Control_c, 0, 64, 75
1, 179648, Control_c, 0, 64, 69
1, 179663, Control_c, 0, 64, 62
1, 179670, Note_on_c, 0, 77, 67
1, 179678, Control_c, 0, 64, 49
1, 179692, Control_c, 0, 64, 30
1, 179708, Control_c, 0, 64, 0
1, 179750, Note_off_c, 0, 77, 59
1, 179755, Note_on_c, 0, 79, 67
1, 179827, Control_c, 0, 64, 31
1, 179836, Note_on_c, 0, 81, 79
1, 179842, Note_off_c, 0, 79, 63
1, 179843, Control_c, 0, 64, 46
1, 179857, Control_c, 0, 64, 56
1, 179872, Control_c, 0, 64, 59
1, 179887, Control_c, 0, 64, 60
1, 179902, Control_c, 0, 64, 62
1, 179917, Control_c, 0, 64, 65
1, 179923, Note_off_c, 0, 81, 56
1, 179932, Note_on_c, 0, 82, 78
1, 179932, Control_c, 0, 64, 68
1, 179953, Control_c, 0, 64, 70
1, 179968, Control_c, 0, 64, 72
1, 179983, Control_c, 0, 64, 73
1, 179994, Note_off_c, 0, 82, 65
1, 179998, Control_c, 0, 64, 76
1, 180012, Control_c, 0, 64, 78
1, 180021, Note_on_c, 0, 81, 80
1, 180027, Control_c, 0, 64, 79
1, 180042, Control_c, 0, 64, 80
1, 180057, Control_c, 0, 64, 81
1, 180072, Control_c, 0, 64, 82
1, 180087, Control_c, 0, 64, 82
1, 180102, Control_c, 0, 64, 83
1, 180105, Note_on_c, 0, 82, 72
1, 180114, Note_off_c, 0, 81, 56
1, 180116, Control_c, 0, 64, 83
1, 180161, Control_c, 0, 64, 84
1, 180188, Note_off_c, 0, 82, 62
1, 180194, Note_on_c, 0, 84, 76
1, 180304, Note_off_c, 0, 84, 55
1, 180322, Note_on_c, 0, 85, 60
1, 180338, Control_c, 0, 64, 83
1, 180384, Note_on_c, 0, 70, 66
1, 180397, Control_c, 0, 64, 83
1, 180412, Control_c, 0, 64, 82
1, 180427, Control_c, 0, 64, 81
1, 180438, Note_on_c, 0, 84, 57
1, 180442, Control_c, 0, 64, 79
1, 180457, Control_c, 0, 64, 75
1, 180463, Note_off_c, 0, 85, 40
1, 180472, Control_c, 0, 64, 69
1, 180486, Control_c, 0, 64, 61
1, 180501, Control_c, 0, 64, 46
1, 180517, Control_c, 0, 64, 34
1, 180531, Control_c, 0, 64, 0
1, 180539, Note_off_c, 0, 84, 64
1, 180543, Note_on_c, 0, 82, 67
1, 180546, Control_c, 0, 64, 31
1, 180561, Control_c, 0, 64, 38
1, 180576, Control_c, 0, 64, 48
1, 180591, Control_c, 0, 64, 57
1, 180605, Control_c, 0, 64, 63
1, 180612, Note_off_c, 0, 82, 63
1, 180620, Control_c, 0, 64, 66
1, 180635, Control_c, 0, 64, 69
1, 180641, Note_on_c, 0, 84, 66
1, 180650, Control_c, 0, 64, 73
1, 180665, Control_c, 0, 64, 77
1, 180686, Control_c, 0, 64, 82
1, 180701, Control_c, 0, 64, 89
1, 180716, Control_c, 0, 64, 95
1, 180717, Note_off_c, 0, 84, 62
1, 180721, Note_on_c, 0, 82, 75
1, 180731, Control_c, 0, 64, 102
1, 180746, Control_c, 0, 64, 113
1, 180761, Control_c, 0, 64, 127
1, 180810, Note_on_c, 0, 80, 66
1, 180826, Note_off_c, 0, 82, 61
1, 180892, Note_off_c, 0, 80, 62
1, 180899, Note_on_c, 0, 79, 66
1, 180960, Note_off_c, 0, 79, 62
1, 180987, Note_on_c, 0, 77, 67
1, 181036, Note_off_c, 0, 77, 64
1, 181055, Note_off_c, 0, 65, 35
1, 181080, Note_on_c, 0, 76, 66
1, 181086, Control_c, 0, 64, 90
1, 181101, Control_c, 0, 64, 67
1, 181116, Control_c, 0, 64, 51
1, 181122, Note_on_c, 0, 60, 40
1, 181131, Control_c, 0, 64, 37
1, 181145, Control_c, 0, 64, 40
1, 181146, Note_off_c, 0, 61, 61
1, 181148, Note_off_c, 0, 76, 61
1, 181160, Control_c, 0, 64, 48
1, 181172, Note_on_c, 0, 79, 66
1, 181175, Control_c, 0, 64, 58
1, 181190, Control_c, 0, 64, 64
1, 181205, Control_c, 0, 64, 69
1, 181220, Control_c, 0, 64, 74
1, 181235, Control_c, 0, 64, 78
1, 181247, Note_off_c, 0, 79, 64
1, 181250, Control_c, 0, 64, 81
1, 181263, Note_on_c, 0, 85, 71
1, 181264, Control_c, 0, 64, 82
1, 181279, Control_c, 0, 64, 84
1, 181294, Control_c, 0, 64, 84
1, 181309, Control_c, 0, 64, 85
1, 181324, Control_c, 0, 67, 39
1, 181339, Control_c, 0, 67, 47
1, 181354, Control_c, 0, 67, 54
1, 181355, Note_on_c, 0, 79, 64
1, 181363, Note_off_c, 0, 85, 52
1, 181369, Control_c, 0, 67, 62
1, 181384, Control_c, 0, 67, 69
1, 181399, Control_c, 0, 67, 75
1, 181413, Control_c, 0, 64, 84
1, 181413, Control_c, 0, 67, 81
1, 181419, Note_off_c, 0, 79, 62
1, 181435, Control_c, 0, 64, 78
1, 181435, Control_c, 0, 67, 90
1, 181450, Control_c, 0, 64, 69
1, 181450, Control_c, 0, 67, 98
1, 181459, Note_on_c, 0, 77, 65
1, 181465, Control_c, 0, 64, 56
1, 181465, Control_c, 0, 67, 105
1, 181477, Note_on_c, 0, 68, 53
1, 181480, Control_c, 0, 64, 42
1, 181480, Control_c, 0, 67, 112
1, 181495, Control_c, 0, 64, 40
1, 181495, Control_c, 0, 67, 117
1, 181509, Note_off_c, 0, 70, 59
1, 181509, Control_c, 0, 64, 46
1, 181509, Control_c, 0, 67, 120
1, 181524, Control_c, 0, 64, 56
1, 181524, Control_c, 0, 67, 123
1, 181539, Control_c, 0, 64, 63
1, 181539, Control_c, 0, 67, 126
1, 181541, Note_off_c, 0, 77, 56
1, 181554, Control_c, 0, 64, 68
1, 181563, Note_on_c, 0, 80, 63
1, 181568, Control_c, 0, 64, 72
1, 181583, Control_c, 0, 64, 76
1, 181598, Control_c, 0, 64, 78
1, 181613, Control_c, 0, 64, 80
1, 181625, Note_off_c, 0, 80, 64
1, 181628, Control_c, 0, 64, 83
1, 181643, Control_c, 0, 64, 84
1, 181653, Note_on_c, 0, 84, 60
1, 181658, Control_c, 0, 64, 84
1, 181673, Control_c, 0, 64, 85
1, 181687, Control_c, 0, 64, 85
1, 181729, Note_off_c, 0, 84, 58
1, 181744, Note_on_c, 0, 80, 58
1, 181816, Note_off_c, 0, 80, 57
1, 181835, Control_c, 0, 64, 85
1, 181850, Note_on_c, 0, 77, 60
1, 181850, Control_c, 0, 64, 84
1, 181862, Note_on_c, 0, 61, 51
1, 181865, Control_c, 0, 64, 81
1, 181869, Note_off_c, 0, 60, 31
1, 181879, Control_c, 0, 64, 74
1, 181894, Control_c, 0, 64, 65
1, 181909, Control_c, 0, 64, 53
1, 181924, Control_c, 0, 64, 38
1, 181931, Note_off_c, 0, 77, 54
1, 181939, Control_c, 0, 64, 35
1, 181945, Note_on_c, 0, 80, 54
1, 181953, Control_c, 0, 64, 39
1, 181968, Control_c, 0, 64, 47
1, 181983, Control_c, 0, 64, 56
1, 181998, Control_c, 0, 64, 63
1, 182000, Note_off_c, 0, 80, 60
1, 182013, Control_c, 0, 64, 67
1, 182028, Control_c, 0, 64, 70
1, 182034, Note_on_c, 0, 83, 55
1, 182042, Control_c, 0, 64, 73
1, 182057, Control_c, 0, 64, 75
1, 182072, Control_c, 0, 64, 78
1, 182087, Control_c, 0, 64, 80
1, 182103, Control_c, 0, 64, 82
1, 182114, Note_off_c, 0, 83, 59
1, 182118, Control_c, 0, 64, 85
1, 182122, Note_on_c, 0, 80, 63
1, 182132, Control_c, 0, 64, 87
1, 182162, Control_c, 0, 64, 86
1, 182184, Control_c, 0, 64, 82
1, 182199, Control_c, 0, 64, 70
1, 182209, Note_off_c, 0, 80, 60
1, 182214, Control_c, 0, 64, 55
1, 182228, Note_on_c, 0, 77, 57
1, 182229, Control_c, 0, 64, 30
1, 182244, Control_c, 0, 64, 0
1, 182255, Note_on_c, 0, 65, 44
1, 182258, Control_c, 0, 64, 37
1, 182273, Control_c, 0, 64, 50
1, 182288, Control_c, 0, 64, 60
1, 182303, Control_c, 0, 64, 65
1, 182307, Note_off_c, 0, 77, 54
1, 182311, Note_on_c, 0, 83, 61
1, 182317, Control_c, 0, 64, 67
1, 182332, Control_c, 0, 64, 70
1, 182347, Control_c, 0, 64, 73
1, 182362, Control_c, 0, 64, 75
1, 182377, Control_c, 0, 64, 76
1, 182384, Note_off_c, 0, 83, 62
1, 182390, Note_off_c, 0, 61, 54
1, 182391, Control_c, 0, 64, 77
1, 182408, Note_off_c, 0, 65, 55
1, 182409, Note_on_c, 0, 89, 61
1, 182415, Note_off_c, 0, 68, 52
1, 182421, Control_c, 0, 64, 77
1, 182484, Note_off_c, 0, 89, 51
1, 182499, Note_on_c, 0, 83, 65
1, 182570, Control_c, 0, 64, 77
1, 182576, Note_off_c, 0, 83, 58
1, 182584, Control_c, 0, 64, 74
1, 182599, Control_c, 0, 64, 68
1, 182614, Control_c, 0, 64, 59
1, 182621, Note_on_c, 0, 64, 36
1, 182623, Note_on_c, 0, 79, 53
1, 182624, Note_on_c, 0, 60, 38
1, 182629, Control_c, 0, 64, 47
1, 182644, Control_c, 0, 64, 43
1, 182658, Control_c, 0, 64, 44
1, 182673, Control_c, 0, 64, 48
1, 182688, Control_c, 0, 64, 53
1, 182689, Note_off_c, 0, 79, 53
1, 182702, Control_c, 0, 64, 56
1, 182706, Note_on_c, 0, 84, 63
1, 182717, Control_c, 0, 64, 59
1, 182732, Control_c, 0, 64, 63
1, 182747, Control_c, 0, 64, 65
1, 182762, Control_c, 0, 64, 66
1, 182776, Control_c, 0, 64, 67
1, 182785, Note_off_c, 0, 84, 63
1, 182791, Control_c, 0, 64, 67
1, 182803, Note_on_c, 0, 88, 66
1, 182866, Control_c, 0, 64, 67
1, 182879, Note_off_c, 0, 88, 61
1, 182881, Control_c, 0, 64, 66
1, 182886, Note_on_c, 0, 84, 71
1, 182896, Control_c, 0, 64, 64
1, 182912, Control_c, 0, 64, 62
1, 182927, Control_c, 0, 64, 61
1, 182949, Note_off_c, 0, 84, 63
1, 182964, Control_c, 0, 64, 60
1, 182992, Note_on_c, 0, 76, 69
1, 182993, Control_c, 0, 64, 60
1, 183008, Control_c, 0, 64, 59
1, 183023, Control_c, 0, 64, 58
1, 183038, Control_c, 0, 64, 58
1, 183053, Control_c, 0, 64, 57
1, 183059, Note_off_c, 0, 76, 61
1, 183068, Control_c, 0, 64, 56
1, 183074, Note_on_c, 0, 79, 64
1, 183074, Note_off_c, 0, 60, 40
1, 183082, Control_c, 0, 64, 55
1, 183146, Note_off_c, 0, 79, 60
1, 183154, Note_off_c, 0, 64, 43
1, 183156, Control_c, 0, 64, 55
1, 183170, Note_on_c, 0, 84, 65
1, 183171, Control_c, 0, 64, 54
1, 183201, Control_c, 0, 64, 54
1, 183239, Note_off_c, 0, 84, 61
1, 183257, Note_on_c, 0, 79, 58
1, 183304, Control_c, 0, 64, 53
1, 183327, Note_off_c, 0, 79, 54
1, 183391, Note_on_c, 0, 72, 50
1, 183408, Control_c, 0, 64, 54
1, 183494, Note_off_c, 0, 72, 59
1, 183512, Control_c, 0, 64, 54
1, 183593, Note_on_c, 0, 73, 55
1, 183600, Note_on_c, 0, 70, 53
1, 183744, Note_off_c, 0, 70, 61
1, 183755, Control_c, 0, 64, 55
1, 183795, Note_on_c, 0, 72, 63
1, 183795, Note_off_c, 0, 73, 53
1, 183796, Note_on_c, 0, 68, 63
1, 183829, Control_c, 0, 64, 55
1, 183859, Control_c, 0, 64, 56
1, 183874, Control_c, 0, 64, 56
1, 183918, Control_c, 0, 64, 57
1, 183933, Control_c, 0, 64, 57
1, 183962, Control_c, 0, 64, 58
1, 183973, Note_off_c, 0, 72, 57
1, 183988, Note_on_c, 0, 67, 56
1, 183990, Note_on_c, 0, 70, 60
1, 184020, Note_off_c, 0, 68, 53
1, 184037, Control_c, 0, 67, 123
1, 184052, Control_c, 0, 67, 107
1, 184061, Note_off_c, 0, 70, 63
1, 184066, Control_c, 0, 67, 93
1, 184081, Control_c, 0, 67, 81
1, 184096, Control_c, 0, 67, 70
1, 184111, Control_c, 0, 67, 59
1, 184126, Control_c, 0, 67, 46
1, 184141, Control_c, 0, 67, 0
1, 184168, Note_off_c, 0, 67, 64
1, 184186, Note_on_c, 0, 68, 54
1, 184206, Note_on_c, 0, 65, 46
1, 184296, Note_on_c, 0, 52, 54
1, 184368, Note_off_c, 0, 52, 63
1, 184384, Note_on_c, 0, 53, 58
1, 184434, Note_off_c, 0, 53, 60
1, 184471, Note_on_c, 0, 55, 59
1, 184564, Note_off_c, 0, 55, 57
1, 184570, Note_on_c, 0, 56, 65
1, 184574, Note_on_c, 0, 72, 66
1, 184638, Note_off_c, 0, 68, 57
1, 184639, Note_off_c, 0, 56, 63
1, 184660, Note_on_c, 0, 55, 62
1, 184743, Note_on_c, 0, 56, 76
1, 184749, Note_off_c, 0, 55, 63
1, 184814, Note_off_c, 0, 56, 65
1, 184833, Note_on_c, 0, 58, 70
1, 184919, Note_off_c, 0, 58, 63
1, 184929, Note_on_c, 0, 60, 62
1, 184934, Note_on_c, 0, 67, 61
1, 184937, Note_on_c, 0, 64, 65
1, 184990, Note_off_c, 0, 72, 47
1, 185019, Note_off_c, 0, 60, 62
1, 185027, Note_on_c, 0, 58, 72
1, 185059, Note_off_c, 0, 65, 38
1, 185095, Note_off_c, 0, 58, 62
1, 185126, Note_on_c, 0, 60, 65
1, 185211, Note_off_c, 0, 60, 62
1, 185222, Note_on_c, 0, 61, 59
1, 185293, Note_off_c, 0, 61, 63
1, 185305, Note_on_c, 0, 72, 58
1, 185322, Note_on_c, 0, 60, 62
1, 185399, Note_off_c, 0, 67, 60
1, 185402, Note_off_c, 0, 60, 61
1, 185406, Note_on_c, 0, 58, 65
1, 185461, Control_c, 0, 64, 57
1, 185480, Note_off_c, 0, 58, 60
1, 185481, Note_on_c, 0, 56, 67
1, 185549, Note_off_c, 0, 56, 63
1, 185569, Note_on_c, 0, 55, 61
1, 185592, Note_off_c, 0, 72, 51
1, 185665, Note_off_c, 0, 55, 62
1, 185677, Note_on_c, 0, 57, 60
1, 185682, Note_on_c, 0, 66, 55
1, 185683, Note_on_c, 0, 63, 55
1, 185751, Note_off_c, 0, 57, 64
1, 185769, Note_on_c, 0, 58, 64
1, 185822, Note_off_c, 0, 64, 51
1, 185838, Note_off_c, 0, 58, 62
1, 185858, Note_on_c, 0, 60, 58
1, 185906, Control_c, 0, 64, 57
1, 185927, Control_c, 0, 67, 59
1, 185942, Control_c, 0, 67, 85
1, 185944, Note_off_c, 0, 60, 63
1, 185955, Note_on_c, 0, 58, 68
1, 185957, Control_c, 0, 64, 56
1, 185957, Control_c, 0, 67, 105
1, 185972, Control_c, 0, 67, 122
1, 185987, Control_c, 0, 64, 56
1, 185987, Control_c, 0, 67, 127
1, 185999, Note_off_c, 0, 58, 63
1, 186016, Control_c, 0, 64, 55
1, 186046, Note_on_c, 0, 57, 64
1, 186056, Note_on_c, 0, 72, 56
1, 186076, Control_c, 0, 64, 55
1, 186122, Note_off_c, 0, 57, 61
1, 186135, Note_on_c, 0, 53, 65
1, 186139, Note_off_c, 0, 66, 61
1, 186207, Note_off_c, 0, 53, 63
1, 186222, Note_on_c, 0, 55, 63
1, 186290, Note_off_c, 0, 55, 58
1, 186311, Note_on_c, 0, 57, 59
1, 186389, Note_off_c, 0, 57, 52
1, 186397, Note_off_c, 0, 72, 50
1, 186413, Note_on_c, 0, 58, 57
1, 186425, Note_on_c, 0, 65, 54
1, 186484, Note_off_c, 0, 58, 60
1, 186504, Note_on_c, 0, 57, 64
1, 186573, Note_off_c, 0, 57, 62
1, 186579, Control_c, 0, 64, 55
1, 186589, Note_on_c, 0, 58, 71
1, 186658, Note_off_c, 0, 58, 61
1, 186669, Control_c, 0, 67, 125
1, 186681, Note_on_c, 0, 60, 66
1, 186690, Control_c, 0, 67, 117
1, 186705, Control_c, 0, 67, 97
1, 186720, Control_c, 0, 67, 53
1, 186735, Control_c, 0, 64, 56
1, 186735, Control_c, 0, 67, 0
1, 186776, Note_off_c, 0, 60, 62
1, 186781, Note_on_c, 0, 70, 57
1, 186783, Note_on_c, 0, 58, 67
1, 186791, Note_off_c, 0, 65, 51
1, 186791, Note_on_c, 0, 61, 48
1, 186794, Control_c, 0, 64, 56
1, 186857, Note_off_c, 0, 58, 61
1, 186858, Note_on_c, 0, 56, 69
1, 186907, Note_off_c, 0, 56, 65
1, 186924, Note_off_c, 0, 63, 59
1, 186946, Note_on_c, 0, 55, 63
1, 186981, Note_off_c, 0, 61, 56
1, 187029, Note_off_c, 0, 55, 62
1, 187038, Note_on_c, 0, 53, 62
1, 187043, Note_off_c, 0, 70, 56
1, 187132, Note_off_c, 0, 53, 59
1, 187136, Note_on_c, 0, 51, 62
1, 187152, Note_on_c, 0, 67, 51
1, 187152, Note_on_c, 0, 61, 42
1, 187220, Note_off_c, 0, 51, 61
1, 187235, Note_on_c, 0, 50, 56
1, 187315, Note_on_c, 0, 51, 68
1, 187316, Note_off_c, 0, 50, 62
1, 187358, Control_c, 0, 64, 57
1, 187394, Note_off_c, 0, 51, 66
1, 187402, Control_c, 0, 64, 57
1, 187413, Note_on_c, 0, 53, 64
1, 187498, Note_off_c, 0, 53, 60
1, 187509, Note_on_c, 0, 55, 58
1, 187513, Control_c, 0, 64, 57
1, 187518, Note_on_c, 0, 70, 57
1, 187528, Control_c, 0, 64, 56
1, 187529, Note_off_c, 0, 67, 62
1, 187558, Control_c, 0, 64, 56
1, 187572, Control_c, 0, 64, 55
1, 187587, Control_c, 0, 67, 47
1, 187596, Note_off_c, 0, 55, 61
1, 187602, Control_c, 0, 64, 55
1, 187602, Control_c, 0, 67, 54
1, 187603, Note_on_c, 0, 51, 63
1, 187617, Control_c, 0, 67, 55
1, 187632, Control_c, 0, 64, 54
1, 187647, Control_c, 0, 67, 54
1, 187661, Control_c, 0, 67, 53
1, 187676, Note_off_c, 0, 51, 61
1, 187676, Control_c, 0, 64, 54
1, 187676, Control_c, 0, 67, 51
1, 187691, Note_on_c, 0, 53, 66
1, 187691, Control_c, 0, 67, 49
1, 187700, Note_off_c, 0, 70, 56
1, 187707, Control_c, 0, 67, 47
1, 187722, Control_c, 0, 67, 45
1, 187776, Note_off_c, 0, 53, 60
1, 187781, Control_c, 0, 67, 46
1, 187790, Note_on_c, 0, 55, 64
1, 187796, Control_c, 0, 67, 47
1, 187810, Control_c, 0, 67, 49
1, 187867, Note_off_c, 0, 55, 45
1, 187879, Note_on_c, 0, 56, 69
1, 187879, Note_on_c, 0, 63, 64
1, 187900, Control_c, 0, 67, 48
1, 187915, Control_c, 0, 67, 47
1, 187929, Control_c, 0, 67, 47
1, 187944, Control_c, 0, 67, 46
1, 187957, Note_off_c, 0, 56, 61
1, 187969, Note_on_c, 0, 55, 69
1, 187974, Control_c, 0, 67, 45
1, 188046, Note_off_c, 0, 55, 63
1, 188047, Control_c, 0, 67, 46
1, 188057, Note_on_c, 0, 56, 72
1, 188062, Control_c, 0, 67, 47
1, 188077, Control_c, 0, 67, 47
1, 188092, Control_c, 0, 67, 48
1, 188107, Control_c, 0, 67, 49
1, 188120, Note_off_c, 0, 56, 63
1, 188121, Control_c, 0, 67, 50
1, 188136, Control_c, 0, 64, 53
1, 188136, Control_c, 0, 67, 51
1, 188148, Note_on_c, 0, 55, 63
1, 188174, Control_c, 0, 64, 53
1, 188189, Control_c, 0, 64, 52
1, 188203, Control_c, 0, 64, 51
1, 188203, Control_c, 0, 67, 51
1, 188218, Control_c, 0, 64, 50
1, 188218, Control_c, 0, 67, 52
1, 188225, Note_off_c, 0, 55, 58
1, 188233, Control_c, 0, 64, 47
1, 188233, Control_c, 0, 67, 53
1, 188247, Control_c, 0, 64, 42
1, 188247, Control_c, 0, 67, 53
1, 188248, Note_on_c, 0, 56, 63
1, 188262, Control_c, 0, 64, 29
1, 188262, Control_c, 0, 67, 54
1, 188268, Note_on_c, 0, 68, 57
1, 188270, Note_on_c, 0, 60, 48
1, 188275, Note_off_c, 0, 63, 53
1, 188277, Control_c, 0, 64, 0
1, 188305, Note_off_c, 0, 56, 63
1, 188348, Note_on_c, 0, 53, 63
1, 188351, Control_c, 0, 67, 53
1, 188381, Control_c, 0, 67, 53
1, 188395, Control_c, 0, 64, 42
1, 188410, Control_c, 0, 64, 56
1, 188425, Control_c, 0, 64, 62
1, 188425, Control_c, 0, 67, 52
1, 188429, Note_off_c, 0, 53, 62
1, 188429, Note_off_c, 0, 60, 61
1, 188440, Control_c, 0, 64, 64
1, 188441, Note_on_c, 0, 51, 64
1, 188454, Control_c, 0, 64, 67
1, 188469, Control_c, 0, 64, 71
1, 188484, Control_c, 0, 64, 76
1, 188489, Note_off_c, 0, 61, 41
1, 188500, Control_c, 0, 64, 80
1, 188515, Control_c, 0, 64, 84
1, 188522, Note_off_c, 0, 51, 62
1, 188527, Note_on_c, 0, 49, 63
1, 188530, Control_c, 0, 64, 88
1, 188544, Control_c, 0, 64, 92
1, 188559, Note_off_c, 0, 68, 36
1, 188559, Control_c, 0, 64, 97
1, 188574, Control_c, 0, 64, 99
1, 188604, Note_off_c, 0, 49, 58
1, 188604, Control_c, 0, 64, 101
1, 188648, Control_c, 0, 67, 51
1, 188696, Note_on_c, 0, 56, 55
1, 188714, Note_on_c, 0, 48, 80
1, 188812, Control_c, 0, 64, 96
1, 188824, Note_on_c, 0, 63, 58
1, 188826, Control_c, 0, 64, 89
1, 188841, Control_c, 0, 64, 79
1, 188856, Control_c, 0, 64, 69
1, 188870, Control_c, 0, 64, 56
1, 188885, Control_c, 0, 64, 41
1, 188900, Control_c, 0, 64, 0
1, 188902, Note_off_c, 0, 63, 61
1, 188922, Control_c, 0, 67, 51
1, 188937, Control_c, 0, 67, 50
1, 188946, Note_on_c, 0, 68, 54
1, 188967, Control_c, 0, 64, 33
1, 188967, Control_c, 0, 67, 49
1, 188982, Control_c, 0, 64, 42
1, 188997, Control_c, 0, 64, 52
1, 189012, Control_c, 0, 64, 58
1, 189012, Control_c, 0, 67, 49
1, 189017, Note_off_c, 0, 68, 61
1, 189026, Control_c, 0, 64, 61
1, 189035, Note_on_c, 0, 63, 58
1, 189041, Control_c, 0, 64, 63
1, 189056, Control_c, 0, 64, 64
1, 189070, Control_c, 0, 64, 66
1, 189084, Note_off_c, 0, 63, 60
1, 189085, Control_c, 0, 64, 68
1, 189085, Control_c, 0, 67, 48
1, 189100, Control_c, 0, 64, 71
1, 189115, Control_c, 0, 64, 73
1, 189129, Note_on_c, 0, 68, 55
1, 189130, Control_c, 0, 64, 75
1, 189144, Control_c, 0, 64, 77
1, 189144, Control_c, 0, 67, 47
1, 189159, Control_c, 0, 64, 78
1, 189159, Control_c, 0, 67, 47
1, 189174, Control_c, 0, 64, 80
1, 189189, Control_c, 0, 64, 81
1, 189201, Note_off_c, 0, 68, 62
1, 189203, Control_c, 0, 64, 83
1, 189203, Control_c, 0, 67, 46
1, 189209, Note_on_c, 0, 63, 64
1, 189218, Control_c, 0, 64, 84
1, 189233, Control_c, 0, 64, 84
1, 189248, Control_c, 0, 64, 85
1, 189248, Control_c, 0, 67, 45
1, 189263, Control_c, 0, 64, 85
1, 189272, Note_off_c, 0, 63, 60
1, 189277, Control_c, 0, 64, 86
1, 189277, Control_c, 0, 67, 45
1, 189293, Control_c, 0, 67, 44
1, 189313, Note_on_c, 0, 68, 61
1, 189361, Note_off_c, 0, 56, 40
1, 189367, Control_c, 0, 67, 43
1, 189398, Note_on_c, 0, 63, 58
1, 189412, Control_c, 0, 67, 43
1, 189471, Control_c, 0, 67, 42
1, 189501, Control_c, 0, 67, 41
1, 189516, Control_c, 0, 67, 41
1, 189523, Note_on_c, 0, 36, 77
1, 189530, Control_c, 0, 67, 40
1, 189535, Note_on_c, 0, 56, 62
1, 189545, Control_c, 0, 67, 39
1, 189548, Note_off_c, 0, 63, 33
1, 189560, Control_c, 0, 67, 39
1, 189575, Control_c, 0, 67, 38
1, 189590, Control_c, 0, 67, 37
1, 189605, Control_c, 0, 67, 0
1, 189610, Note_off_c, 0, 68, 57
1, 189620, Control_c, 0, 64, 85
1, 189635, Control_c, 0, 64, 83
1, 189641, Note_on_c, 0, 64, 58
1, 189650, Control_c, 0, 64, 77
1, 189672, Control_c, 0, 64, 69
1, 189687, Control_c, 0, 64, 56
1, 189701, Control_c, 0, 64, 43
1, 189716, Control_c, 0, 64, 37
1, 189725, Note_off_c, 0, 64, 64
1, 189731, Control_c, 0, 64, 37
1, 189739, Note_on_c, 0, 68, 65
1, 189746, Control_c, 0, 64, 41
1, 189761, Control_c, 0, 64, 47
1, 189775, Control_c, 0, 64, 53
1, 189790, Control_c, 0, 64, 59
1, 189805, Control_c, 0, 64, 63
1, 189813, Note_off_c, 0, 68, 62
1, 189820, Control_c, 0, 64, 65
1, 189833, Note_on_c, 0, 64, 61
1, 189835, Control_c, 0, 64, 67
1, 189849, Control_c, 0, 64, 69
1, 189864, Control_c, 0, 64, 72
1, 189879, Control_c, 0, 64, 75
1, 189894, Control_c, 0, 64, 77
1, 189903, Note_off_c, 0, 64, 65
1, 189909, Control_c, 0, 64, 79
1, 189924, Control_c, 0, 64, 82
1, 189929, Note_on_c, 0, 68, 63
1, 189939, Control_c, 0, 64, 84
1, 189954, Control_c, 0, 64, 85
1, 189968, Control_c, 0, 64, 87
1, 189983, Control_c, 0, 64, 88
1, 189996, Note_off_c, 0, 68, 61
1, 189998, Control_c, 0, 64, 89
1, 190019, Note_on_c, 0, 64, 60
1, 190027, Control_c, 0, 64, 90
1, 190072, Control_c, 0, 64, 90
1, 190085, Note_off_c, 0, 64, 63
1, 190107, Note_on_c, 0, 68, 65
1, 190113, Note_off_c, 0, 56, 39
1, 190189, Note_on_c, 0, 64, 63
1, 190259, Note_off_c, 0, 68, 0
1, 190265, Control_c, 0, 64, 90
1, 190286, Note_on_c, 0, 37, 78
1, 190287, Note_on_c, 0, 56, 73
1, 190295, Control_c, 0, 64, 89
1, 190296, Note_off_c, 0, 48, 28
1, 190297, Poly_aftertouch_c, 0, 68, 127
1, 190303, Note_off_c, 0, 64, 61
1, 190310, Control_c, 0, 64, 83
1, 190324, Control_c, 0, 64, 71
1, 190338, Note_off_c, 0, 36, 57
1, 190339, Control_c, 0, 64, 57
1, 190348, Poly_aftertouch_c, 0, 68, 0
1, 190354, Control_c, 0, 64, 33
1, 190369, Control_c, 0, 64, 0
1, 190393, Note_on_c, 0, 65, 60
1, 190398, Control_c, 0, 64, 37
1, 190413, Control_c, 0, 64, 50
1, 190436, Control_c, 0, 64, 60
1, 190450, Control_c, 0, 64, 66
1, 190456, Note_off_c, 0, 56, 50
1, 190465, Control_c, 0, 64, 70
1, 190480, Control_c, 0, 64, 74
1, 190485, Note_off_c, 0, 65, 62
1, 190490, Note_on_c, 0, 68, 64
1, 190495, Control_c, 0, 64, 78
1, 190510, Control_c, 0, 64, 81
1, 190524, Control_c, 0, 64, 83
1, 190539, Control_c, 0, 64, 85
1, 190554, Control_c, 0, 64, 86
1, 190569, Control_c, 0, 64, 87
1, 190583, Note_on_c, 0, 65, 62
1, 190584, Control_c, 0, 64, 88
1, 190639, Note_off_c, 0, 65, 61
1, 190647, Note_off_c, 0, 37, 62
1, 190664, Note_on_c, 0, 38, 76
1, 190672, Note_off_c, 0, 68, 36
1, 190672, Note_on_c, 0, 59, 74
1, 190687, Control_c, 0, 64, 86
1, 190702, Control_c, 0, 64, 75
1, 190717, Control_c, 0, 64, 61
1, 190732, Control_c, 0, 64, 37
1, 190747, Control_c, 0, 64, 0
1, 190766, Note_on_c, 0, 65, 64
1, 190773, Note_off_c, 0, 59, 56
1, 190791, Control_c, 0, 64, 41
1, 190806, Control_c, 0, 64, 57
1, 190821, Control_c, 0, 64, 63
1, 190836, Control_c, 0, 64, 66
1, 190850, Control_c, 0, 64, 69
1, 190851, Note_off_c, 0, 65, 62
1, 190860, Note_on_c, 0, 68, 68
1, 190865, Control_c, 0, 64, 72
1, 190880, Control_c, 0, 64, 74
1, 190896, Control_c, 0, 64, 76
1, 190911, Control_c, 0, 64, 77
1, 190926, Control_c, 0, 64, 78
1, 190943, Note_on_c, 0, 65, 58
1, 190949, Note_off_c, 0, 68, 57
1, 190989, Note_off_c, 0, 38, 37
1, 191041, Note_off_c, 0, 65, 62
1, 191053, Note_on_c, 0, 60, 64
1, 191059, Note_on_c, 0, 39, 74
1, 191059, Control_c, 0, 64, 76
1, 191072, Control_c, 0, 64, 71
1, 191087, Control_c, 0, 64, 62
1, 191102, Control_c, 0, 64, 43
1, 191117, Control_c, 0, 64, 0
1, 191137, Note_off_c, 0, 60, 54
1, 191155, Note_on_c, 0, 63, 66
1, 191184, Control_c, 0, 64, 32
1, 191199, Control_c, 0, 64, 50
1, 191214, Control_c, 0, 64, 62
1, 191228, Control_c, 0, 64, 66
1, 191233, Note_off_c, 0, 63, 62
1, 191243, Control_c, 0, 64, 69
1, 191256, Note_on_c, 0, 68, 62
1, 191258, Control_c, 0, 64, 72
1, 191272, Control_c, 0, 64, 74
1, 191283, Note_off_c, 0, 39, 62
1, 191287, Control_c, 0, 64, 76
1, 191302, Control_c, 0, 64, 78
1, 191317, Control_c, 0, 64, 79
1, 191332, Control_c, 0, 64, 79
1, 191346, Note_off_c, 0, 68, 53
1, 191352, Note_on_c, 0, 63, 62
1, 191361, Control_c, 0, 64, 80
1, 191420, Note_off_c, 0, 63, 56
1, 191420, Control_c, 0, 64, 79
1, 191435, Control_c, 0, 64, 74
1, 191450, Control_c, 0, 64, 62
1, 191453, Note_on_c, 0, 58, 58
1, 191462, Note_on_c, 0, 51, 64
1, 191465, Control_c, 0, 64, 35
1, 191480, Control_c, 0, 64, 0
1, 191525, Control_c, 0, 64, 39
1, 191539, Control_c, 0, 64, 56
1, 191549, Note_off_c, 0, 58, 50
1, 191552, Note_on_c, 0, 61, 58
1, 191554, Control_c, 0, 64, 65
1, 191569, Control_c, 0, 64, 70
1, 191581, Note_off_c, 0, 51, 61
1, 191584, Control_c, 0, 64, 74
1, 191598, Control_c, 0, 64, 77
1, 191613, Control_c, 0, 64, 79
1, 191617, Note_off_c, 0, 61, 61
1, 191628, Control_c, 0, 64, 82
1, 191643, Control_c, 0, 64, 83
1, 191658, Note_on_c, 0, 67, 59
1, 191658, Control_c, 0, 64, 83
1, 191732, Note_off_c, 0, 67, 61
1, 191745, Note_on_c, 0, 61, 57
1, 191762, Control_c, 0, 67, 37
1, 191777, Control_c, 0, 67, 42
1, 191792, Control_c, 0, 67, 47
1, 191807, Control_c, 0, 64, 82
1, 191807, Control_c, 0, 67, 52
1, 191822, Control_c, 0, 64, 81
1, 191822, Control_c, 0, 67, 58
1, 191834, Note_off_c, 0, 61, 52
1, 191836, Control_c, 0, 64, 78
1, 191836, Control_c, 0, 67, 63
1, 191850, Note_on_c, 0, 68, 57
1, 191851, Control_c, 0, 64, 75
1, 191851, Control_c, 0, 67, 69
1, 191856, Note_on_c, 0, 60, 53
1, 191866, Control_c, 0, 64, 72
1, 191866, Control_c, 0, 67, 77
1, 191870, Note_on_c, 0, 32, 53
1, 191881, Control_c, 0, 64, 68
1, 191881, Control_c, 0, 67, 83
1, 191895, Control_c, 0, 64, 63
1, 191895, Control_c, 0, 67, 88
1, 191918, Control_c, 0, 64, 59
1, 191918, Control_c, 0, 67, 91
1, 191933, Control_c, 0, 64, 57
1, 191933, Control_c, 0, 67, 92
1, 191948, Control_c, 0, 64, 54
1, 191963, Note_off_c, 0, 32, 55
1, 191963, Control_c, 0, 64, 52
1, 191972, Note_on_c, 0, 36, 49
1, 191977, Control_c, 0, 64, 49
1, 191992, Control_c, 0, 64, 45
1, 192007, Control_c, 0, 64, 41
1, 192021, Control_c, 0, 64, 37
1, 192034, Note_off_c, 0, 36, 60
1, 192036, Control_c, 0, 64, 33
1, 192036, Control_c, 0, 67, 91
1, 192051, Control_c, 0, 64, 0
1, 192062, Note_on_c, 0, 39, 52
1, 192066, Control_c, 0, 67, 90
1, 192095, Control_c, 0, 67, 90
1, 192110, Control_c, 0, 67, 89
1, 192157, Note_off_c, 0, 39, 56
1, 192161, Note_on_c, 0, 36, 51
1, 192169, Control_c, 0, 67, 88
1, 192213, Control_c, 0, 67, 88
1, 192228, Control_c, 0, 67, 87
1, 192245, Note_off_c, 0, 36, 61
1, 192258, Control_c, 0, 67, 86
1, 192284, Note_on_c, 0, 39, 48
1, 192318, Control_c, 0, 67, 86
1, 192342, Note_off_c, 0, 39, 57
1, 192362, Control_c, 0, 67, 85
1, 192373, Note_on_c, 0, 36, 52
1, 192407, Control_c, 0, 67, 85
1, 192440, Note_off_c, 0, 36, 57
1, 192479, Note_on_c, 0, 39, 47
1, 192539, Note_off_c, 0, 39, 59
1, 192580, Note_on_c, 0, 36, 41
1, 192631, Control_c, 0, 67, 85
1, 192720, Note_off_c, 0, 36, 36
1, 192747, Note_off_c, 0, 68, 48
1, 192759, Note_off_c, 0, 60, 53
1, 192768, Note_on_c, 0, 32, 42
1, 193067, Control_c, 0, 67, 85
1, 193104, Note_off_c, 0, 32, 51
1, 193171, Control_c, 0, 67, 84
1, 193185, Control_c, 0, 67, 83
1, 193230, Control_c, 0, 67, 83
1, 193274, Control_c, 0, 67, 82
1, 193305, Control_c, 0, 67, 81
1, 193349, Control_c, 0, 67, 81
1, 193416, Control_c, 0, 67, 80
1, 193535, Control_c, 0, 67, 81
1, 193609, Control_c, 0, 67, 81
1, 193653, Control_c, 0, 67, 82
1, 193683, Control_c, 0, 67, 83
1, 193698, Control_c, 0, 67, 83
1, 193728, Control_c, 0, 67, 84
1, 193742, Control_c, 0, 67, 85
1, 193772, Control_c, 0, 67, 85
1, 193778, Note_on_c, 0, 68, 33
1, 193781, Note_on_c, 0, 72, 29
1, 193786, Control_c, 0, 67, 86
1, 193816, Control_c, 0, 67, 86
1, 193831, Control_c, 0, 67, 87
1, 193860, Control_c, 0, 67, 88
1, 193869, Note_on_c, 0, 75, 43
1, 193890, Control_c, 0, 67, 88
1, 193917, Note_off_c, 0, 75, 64
1, 193920, Control_c, 0, 67, 89
1, 193949, Control_c, 0, 67, 90
1, 193956, Note_on_c, 0, 77, 59
1, 193964, Control_c, 0, 64, 30
1, 193964, Control_c, 0, 67, 90
1, 193979, Control_c, 0, 64, 41
1, 193993, Control_c, 0, 64, 49
1, 193993, Control_c, 0, 67, 91
1, 194004, Note_off_c, 0, 77, 56
1, 194008, Control_c, 0, 64, 55
1, 194008, Control_c, 0, 67, 92
1, 194023, Control_c, 0, 64, 57
1, 194023, Control_c, 0, 67, 92
1, 194038, Control_c, 0, 64, 58
1, 194038, Control_c, 0, 67, 93
1, 194049, Note_on_c, 0, 79, 55
1, 194053, Control_c, 0, 64, 60
1, 194053, Control_c, 0, 67, 94
1, 194067, Control_c, 0, 64, 62
1, 194082, Control_c, 0, 64, 64
1, 194082, Control_c, 0, 67, 94
1, 194098, Control_c, 0, 64, 66
1, 194098, Control_c, 0, 67, 95
1, 194113, Control_c, 0, 64, 68
1, 194127, Note_off_c, 0, 79, 62
1, 194128, Control_c, 0, 64, 70
1, 194128, Control_c, 0, 67, 96
1, 194133, Note_on_c, 0, 80, 64
1, 194143, Control_c, 0, 64, 72
1, 194156, Note_on_c, 0, 75, 50
1, 194158, Control_c, 0, 64, 73
1, 194180, Control_c, 0, 64, 75
1, 194195, Control_c, 0, 64, 76
1, 194210, Control_c, 0, 64, 77
1, 194225, Control_c, 0, 64, 78
1, 194227, Note_off_c, 0, 80, 62
1, 194235, Note_on_c, 0, 82, 67
1, 194239, Note_off_c, 0, 72, 40
1, 194254, Control_c, 0, 64, 79
1, 194269, Control_c, 0, 64, 79
1, 194272, Note_off_c, 0, 82, 63
1, 194321, Note_on_c, 0, 84, 68
1, 194322, Note_off_c, 0, 68, 59
1, 194399, Note_off_c, 0, 75, 31
1, 194401, Note_off_c, 0, 84, 53
1, 194407, Note_on_c, 0, 85, 68
1, 194491, Control_c, 0, 67, 98
1, 194493, Note_off_c, 0, 85, 61
1, 194503, Note_on_c, 0, 66, 39
1, 194506, Control_c, 0, 64, 79
1, 194515, Note_on_c, 0, 70, 47
1, 194515, Note_on_c, 0, 87, 60
1, 194521, Control_c, 0, 64, 77
1, 194535, Control_c, 0, 64, 75
1, 194550, Control_c, 0, 64, 69
1, 194565, Control_c, 0, 64, 62
1, 194580, Control_c, 0, 64, 46
1, 194580, Control_c, 0, 67, 100
1, 194595, Control_c, 0, 64, 0
1, 194598, Note_off_c, 0, 87, 64
1, 194609, Control_c, 0, 67, 105
1, 194610, Note_on_c, 0, 85, 63
1, 194624, Control_c, 0, 67, 125
1, 194639, Control_c, 0, 67, 127
1, 194669, Control_c, 0, 64, 35
1, 194683, Control_c, 0, 64, 45
1, 194684, Note_off_c, 0, 85, 62
1, 194692, Note_on_c, 0, 87, 69
1, 194698, Control_c, 0, 64, 56
1, 194713, Control_c, 0, 64, 61
1, 194728, Control_c, 0, 64, 63
1, 194743, Control_c, 0, 64, 65
1, 194757, Control_c, 0, 64, 67
1, 194758, Note_off_c, 0, 87, 63
1, 194772, Control_c, 0, 64, 69
1, 194784, Note_on_c, 0, 89, 70
1, 194787, Control_c, 0, 64, 72
1, 194802, Control_c, 0, 64, 75
1, 194816, Control_c, 0, 64, 78
1, 194831, Control_c, 0, 64, 80
1, 194845, Control_c, 0, 64, 82
1, 194858, Note_on_c, 0, 75, 55
1, 194860, Control_c, 0, 64, 84
1, 194864, Note_on_c, 0, 87, 72
1, 194872, Note_off_c, 0, 89, 61
1, 194875, Control_c, 0, 64, 85
1, 194891, Control_c, 0, 64, 87
1, 194913, Control_c, 0, 64, 88
1, 194928, Control_c, 0, 64, 89
1, 194943, Control_c, 0, 64, 90
1, 194950, Note_off_c, 0, 70, 53
1, 194958, Control_c, 0, 64, 90
1, 194962, Note_on_c, 0, 85, 72
1, 194971, Note_off_c, 0, 75, 48
1, 194986, Note_off_c, 0, 87, 63
1, 195031, Note_off_c, 0, 66, 38
1, 195034, Note_off_c, 0, 85, 62
1, 195047, Note_on_c, 0, 84, 77
1, 195102, Note_off_c, 0, 84, 59
1, 195128, Note_on_c, 0, 82, 70
1, 195165, Control_c, 0, 64, 90
1, 195180, Control_c, 0, 64, 89
1, 195194, Control_c, 0, 64, 83
1, 195209, Control_c, 0, 64, 74
1, 195210, Note_off_c, 0, 82, 62
1, 195215, Note_on_c, 0, 81, 74
1, 195224, Control_c, 0, 64, 63
1, 195239, Note_on_c, 0, 65, 42
1, 195239, Control_c, 0, 64, 51
1, 195242, Note_on_c, 0, 72, 43
1, 195254, Control_c, 0, 64, 46
1, 195269, Control_c, 0, 64, 49
1, 195284, Control_c, 0, 64, 55
1, 195292, Note_off_c, 0, 81, 59
1, 195299, Control_c, 0, 64, 60
1, 195304, Note_on_c, 0, 82, 76
1, 195313, Control_c, 0, 64, 63
1, 195328, Control_c, 0, 64, 66
1, 195343, Control_c, 0, 64, 68
1, 195358, Control_c, 0, 64, 71
1, 195373, Control_c, 0, 64, 72
1, 195376, Note_off_c, 0, 82, 63
1, 195385, Note_on_c, 0, 84, 77
1, 195387, Control_c, 0, 64, 73
1, 195402, Control_c, 0, 64, 74
1, 195417, Control_c, 0, 64, 74
1, 195446, Control_c, 0, 64, 74
1, 195461, Control_c, 0, 64, 72
1, 195471, Note_on_c, 0, 82, 77
1, 195473, Note_off_c, 0, 84, 64
1, 195476, Control_c, 0, 64, 65
1, 195491, Control_c, 0, 64, 53
1, 195505, Control_c, 0, 64, 42
1, 195520, Control_c, 0, 64, 41
1, 195535, Control_c, 0, 64, 45
1, 195550, Control_c, 0, 64, 52
1, 195559, Note_on_c, 0, 81, 73
1, 195565, Control_c, 0, 64, 58
1, 195576, Note_off_c, 0, 82, 56
1, 195580, Control_c, 0, 64, 61
1, 195588, Note_on_c, 0, 75, 53
1, 195595, Control_c, 0, 64, 62
1, 195610, Control_c, 0, 64, 64
1, 195625, Control_c, 0, 64, 66
1, 195637, Note_off_c, 0, 81, 63
1, 195639, Control_c, 0, 64, 66
1, 195649, Note_off_c, 0, 72, 59
1, 195662, Control_c, 0, 64, 67
1, 195671, Note_on_c, 0, 77, 69
1, 195677, Control_c, 0, 64, 67
1, 195692, Control_c, 0, 64, 68
1, 195744, Note_off_c, 0, 77, 53
1, 195758, Note_on_c, 0, 79, 61
1, 195811, Control_c, 0, 64, 67
1, 195826, Control_c, 0, 64, 67
1, 195841, Control_c, 0, 64, 66
1, 195854, Note_on_c, 0, 81, 67
1, 195856, Note_off_c, 0, 79, 58
1, 195856, Control_c, 0, 64, 66
1, 195915, Control_c, 0, 64, 65
1, 195944, Control_c, 0, 64, 65
1, 195945, Note_off_c, 0, 81, 60
1, 195949, Note_on_c, 0, 82, 64
1, 195959, Control_c, 0, 64, 64
1, 195962, Note_on_c, 0, 73, 47
1, 195969, Note_off_c, 0, 75, 56
1, 195974, Control_c, 0, 64, 63
1, 195989, Control_c, 0, 64, 61
1, 196004, Control_c, 0, 64, 59
1, 196018, Control_c, 0, 64, 57
1, 196026, Note_off_c, 0, 82, 61
1, 196033, Control_c, 0, 64, 56
1, 196038, Note_on_c, 0, 77, 72
1, 196136, Note_on_c, 0, 85, 73
1, 196136, Control_c, 0, 64, 55
1, 196144, Note_off_c, 0, 77, 59
1, 196151, Control_c, 0, 64, 54
1, 196166, Control_c, 0, 64, 53
1, 196181, Control_c, 0, 64, 50
1, 196196, Control_c, 0, 64, 45
1, 196211, Control_c, 0, 64, 33
1, 196216, Note_on_c, 0, 84, 73
1, 196226, Control_c, 0, 64, 0
1, 196231, Note_off_c, 0, 85, 60
1, 196309, Note_off_c, 0, 84, 63
1, 196314, Note_on_c, 0, 82, 72
1, 196328, Control_c, 0, 64, 35
1, 196343, Control_c, 0, 64, 47
1, 196358, Control_c, 0, 64, 56
1, 196358, Control_c, 0, 67, 123
1, 196373, Control_c, 0, 64, 58
1, 196373, Control_c, 0, 67, 120
1, 196381, Note_off_c, 0, 82, 62
1, 196387, Control_c, 0, 64, 59
1, 196387, Control_c, 0, 67, 118
1, 196410, Control_c, 0, 64, 60
1, 196410, Control_c, 0, 67, 116
1, 196413, Note_on_c, 0, 84, 71
1, 196425, Control_c, 0, 64, 60
1, 196425, Control_c, 0, 67, 114
1, 196440, Control_c, 0, 64, 61
1, 196440, Control_c, 0, 67, 112
1, 196484, Note_off_c, 0, 84, 62
1, 196492, Note_on_c, 0, 82, 70
1, 196530, Control_c, 0, 64, 60
1, 196545, Control_c, 0, 64, 59
1, 196559, Control_c, 0, 64, 57
1, 196574, Control_c, 0, 64, 53
1, 196585, Note_off_c, 0, 82, 60
1, 196589, Control_c, 0, 64, 48
1, 196589, Note_on_c, 0, 80, 61
1, 196604, Control_c, 0, 64, 39
1, 196618, Control_c, 0, 64, 0
1, 196618, Control_c, 0, 67, 114
1, 196673, Note_off_c, 0, 80, 61
1, 196677, Note_off_c, 0, 65, 52
1, 196681, Note_on_c, 0, 63, 43
1, 196690, Note_on_c, 0, 79, 55
1, 196707, Control_c, 0, 64, 34
1, 196722, Control_c, 0, 64, 46
1, 196737, Control_c, 0, 64, 54
1, 196752, Control_c, 0, 64, 59
1, 196763, Note_off_c, 0, 79, 58
1, 196766, Control_c, 0, 64, 60
1, 196781, Control_c, 0, 64, 61
1, 196795, Note_on_c, 0, 80, 59
1, 196796, Control_c, 0, 64, 63
1, 196810, Control_c, 0, 64, 64
1, 196825, Control_c, 0, 64, 65
1, 196840, Control_c, 0, 64, 66
1, 196855, Control_c, 0, 64, 67
1, 196866, Note_off_c, 0, 73, 55
1, 196866, Note_off_c, 0, 80, 63
1, 196870, Control_c, 0, 64, 67
1, 196880, Note_on_c, 0, 82, 61
1, 196899, Control_c, 0, 64, 68
1, 196914, Control_c, 0, 64, 68
1, 196929, Control_c, 0, 64, 69
1, 196944, Control_c, 0, 64, 70
1, 196971, Note_off_c, 0, 82, 59
1, 196973, Note_on_c, 0, 80, 66
1, 196989, Control_c, 0, 64, 69
1, 196989, Control_c, 0, 67, 116
1, 197004, Control_c, 0, 64, 66
1, 197018, Control_c, 0, 64, 59
1, 197033, Control_c, 0, 64, 46
1, 197048, Control_c, 0, 64, 42
1, 197048, Control_c, 0, 67, 118
1, 197061, Note_on_c, 0, 79, 63
1, 197062, Note_on_c, 0, 73, 54
1, 197062, Note_off_c, 0, 80, 62
1, 197062, Control_c, 0, 64, 45
1, 197077, Control_c, 0, 64, 52
1, 197091, Control_c, 0, 64, 59
1, 197106, Control_c, 0, 64, 63
1, 197121, Control_c, 0, 64, 65
1, 197129, Note_off_c, 0, 79, 62
1, 197136, Control_c, 0, 64, 68
1, 197139, Note_on_c, 0, 87, 62
1, 197158, Control_c, 0, 64, 69
1, 197173, Control_c, 0, 64, 71
1, 197188, Control_c, 0, 64, 72
1, 197203, Control_c, 0, 64, 72
1, 197217, Control_c, 0, 64, 73
1, 197239, Note_on_c, 0, 82, 63
1, 197248, Note_off_c, 0, 87, 61
1, 197273, Note_off_c, 0, 73, 57
1, 197317, Note_off_c, 0, 82, 61
1, 197329, Note_on_c, 0, 79, 61
1, 197367, Control_c, 0, 67, 120
1, 197369, Note_off_c, 0, 79, 62
1, 197396, Control_c, 0, 67, 122
1, 197411, Control_c, 0, 64, 72
1, 197418, Note_on_c, 0, 72, 51
1, 197418, Note_on_c, 0, 80, 61
1, 197426, Control_c, 0, 64, 68
1, 197426, Control_c, 0, 67, 125
1, 197440, Control_c, 0, 64, 59
1, 197455, Control_c, 0, 64, 44
1, 197470, Control_c, 0, 64, 0
1, 197488, Note_off_c, 0, 80, 57
1, 197500, Control_c, 0, 64, 33
1, 197507, Note_on_c, 0, 75, 70
1, 197514, Control_c, 0, 64, 45
1, 197529, Control_c, 0, 64, 58
1, 197544, Control_c, 0, 64, 66
1, 197559, Control_c, 0, 64, 71
1, 197574, Control_c, 0, 64, 74
1, 197579, Note_off_c, 0, 75, 60
1, 197588, Control_c, 0, 64, 75
1, 197599, Note_on_c, 0, 84, 74
1, 197633, Control_c, 0, 64, 72
1, 197647, Control_c, 0, 64, 64
1, 197662, Control_c, 0, 64, 53
1, 197662, Control_c, 0, 67, 127
1, 197677, Control_c, 0, 64, 40
1, 197686, Note_on_c, 0, 82, 70
1, 197692, Control_c, 0, 64, 38
1, 197707, Control_c, 0, 64, 42
1, 197715, Note_off_c, 0, 84, 60
1, 197722, Control_c, 0, 64, 51
1, 197737, Control_c, 0, 64, 60
1, 197752, Control_c, 0, 64, 65
1, 197766, Control_c, 0, 64, 67
1, 197774, Note_on_c, 0, 80, 72
1, 197779, Note_off_c, 0, 82, 62
1, 197781, Control_c, 0, 64, 69
1, 197796, Control_c, 0, 64, 71
1, 197811, Control_c, 0, 64, 73
1, 197826, Control_c, 0, 64, 75
1, 197840, Control_c, 0, 64, 77
1, 197851, Note_off_c, 0, 80, 62
1, 197855, Control_c, 0, 64, 78
1, 197858, Note_on_c, 0, 87, 71
1, 197868, Note_off_c, 0, 63, 59
1, 197870, Control_c, 0, 67, 125
1, 197937, Control_c, 0, 67, 123
1, 197958, Note_on_c, 0, 84, 68
1, 197963, Note_off_c, 0, 87, 62
1, 198027, Note_off_c, 0, 84, 62
1, 198050, Note_on_c, 0, 80, 62
1, 198101, Control_c, 0, 64, 77
1, 198115, Control_c, 0, 64, 75
1, 198130, Control_c, 0, 64, 73
1, 198145, Control_c, 0, 64, 69
1, 198160, Control_c, 0, 64, 62
1, 198162, Note_on_c, 0, 64, 42
1, 198172, Note_on_c, 0, 82, 49
1, 198175, Control_c, 0, 64, 54
1, 198175, Control_c, 0, 67, 121
1, 198178, Note_off_c, 0, 80, 51
1, 198190, Control_c, 0, 64, 44
1, 198204, Control_c, 0, 64, 36
1, 198219, Control_c, 0, 64, 34
1, 198234, Control_c, 0, 64, 36
1, 198234, Control_c, 0, 67, 119
1, 198238, Note_off_c, 0, 82, 61
1, 198249, Control_c, 0, 64, 39
1, 198253, Note_on_c, 0, 85, 60
1, 198263, Control_c, 0, 64, 44
1, 198263, Control_c, 0, 67, 116
1, 198278, Control_c, 0, 64, 50
1, 198293, Control_c, 0, 64, 56
1, 198293, Control_c, 0, 67, 113
1, 198308, Control_c, 0, 64, 60
1, 198323, Control_c, 0, 64, 63
1, 198337, Control_c, 0, 64, 65
1, 198337, Control_c, 0, 67, 111
1, 198343, Note_on_c, 0, 84, 65
1, 198345, Note_off_c, 0, 85, 61
1, 198352, Control_c, 0, 64, 67
1, 198367, Control_c, 0, 64, 70
1, 198372, Note_off_c, 0, 64, 64
1, 198381, Control_c, 0, 64, 72
1, 198396, Control_c, 0, 64, 73
1, 198420, Note_on_c, 0, 82, 74
1, 198423, Note_off_c, 0, 84, 64
1, 198426, Control_c, 0, 64, 72
1, 198441, Control_c, 0, 64, 69
1, 198455, Control_c, 0, 64, 60
1, 198470, Control_c, 0, 64, 47
1, 198485, Control_c, 0, 64, 41
1, 198485, Control_c, 0, 67, 107
1, 198497, Note_off_c, 0, 82, 60
1, 198500, Control_c, 0, 64, 42
1, 198500, Control_c, 0, 67, 102
1, 198515, Note_on_c, 0, 80, 67
1, 198515, Control_c, 0, 64, 47
1, 198515, Control_c, 0, 67, 98
1, 198527, Note_on_c, 0, 65, 61
1, 198530, Control_c, 0, 64, 53
1, 198530, Control_c, 0, 67, 85
1, 198545, Control_c, 0, 64, 60
1, 198545, Control_c, 0, 67, 55
1, 198560, Control_c, 0, 64, 65
1, 198560, Control_c, 0, 67, 0
1, 198568, Note_off_c, 0, 80, 60
1, 198574, Control_c, 0, 64, 68
1, 198589, Control_c, 0, 64, 70
1, 198595, Note_on_c, 0, 84, 71
1, 198604, Control_c, 0, 64, 73
1, 198619, Control_c, 0, 64, 75
1, 198634, Control_c, 0, 64, 75
1, 198655, Control_c, 0, 64, 76
1, 198670, Control_c, 0, 64, 76
1, 198675, Note_off_c, 0, 72, 61
1, 198694, Note_on_c, 0, 82, 67
1, 198694, Note_off_c, 0, 65, 63
1, 198696, Note_off_c, 0, 84, 61
1, 198771, Note_off_c, 0, 82, 61
1, 198774, Control_c, 0, 64, 76
1, 198780, Note_on_c, 0, 80, 62
1, 198789, Control_c, 0, 64, 74
1, 198804, Control_c, 0, 64, 70
1, 198819, Control_c, 0, 64, 64
1, 198834, Control_c, 0, 64, 54
1, 198849, Control_c, 0, 64, 41
1, 198854, Note_off_c, 0, 80, 55
1, 198863, Control_c, 0, 64, 0
1, 198884, Note_on_c, 0, 79, 54
1, 198907, Note_on_c, 0, 70, 45
1, 198908, Control_c, 0, 64, 37
1, 198912, Note_on_c, 0, 58, 43
1, 198923, Control_c, 0, 64, 47
1, 198938, Control_c, 0, 64, 56
1, 198953, Control_c, 0, 64, 61
1, 198968, Note_off_c, 0, 79, 59
1, 198968, Control_c, 0, 64, 63
1, 198983, Control_c, 0, 64, 64
1, 198984, Note_on_c, 0, 82, 58
1, 198998, Control_c, 0, 64, 66
1, 199012, Control_c, 0, 64, 68
1, 199027, Control_c, 0, 64, 70
1, 199042, Control_c, 0, 64, 71
1, 199057, Control_c, 0, 64, 72
1, 199062, Note_off_c, 0, 70, 61
1, 199072, Control_c, 0, 64, 73
1, 199076, Note_on_c, 0, 80, 59
1, 199082, Note_off_c, 0, 58, 59
1, 199085, Note_off_c, 0, 82, 58
1, 199086, Control_c, 0, 64, 74
1, 199131, Control_c, 0, 64, 73
1, 199146, Control_c, 0, 64, 67
1, 199156, Note_on_c, 0, 79, 59
1, 199160, Note_off_c, 0, 80, 57
1, 199160, Control_c, 0, 64, 56
1, 199175, Control_c, 0, 64, 30
1, 199175, Control_c, 0, 67, 37
1, 199190, Control_c, 0, 64, 0
1, 199190, Control_c, 0, 67, 56
1, 199204, Control_c, 0, 67, 74
1, 199219, Control_c, 0, 67, 87
1, 199227, Note_off_c, 0, 79, 61
1, 199234, Control_c, 0, 64, 36
1, 199234, Control_c, 0, 67, 94
1, 199249, Control_c, 0, 64, 48
1, 199249, Control_c, 0, 67, 96
1, 199262, Note_on_c, 0, 77, 62
1, 199264, Control_c, 0, 64, 57
1, 199272, Note_on_c, 0, 59, 46
1, 199275, Note_on_c, 0, 68, 43
1, 199278, Control_c, 0, 64, 61
1, 199293, Control_c, 0, 64, 62
1, 199309, Control_c, 0, 64, 63
1, 199309, Control_c, 0, 67, 96
1, 199324, Control_c, 0, 64, 65
1, 199324, Control_c, 0, 67, 95
1, 199326, Note_off_c, 0, 77, 61
1, 199339, Control_c, 0, 64, 66
1, 199339, Control_c, 0, 67, 94
1, 199353, Control_c, 0, 64, 67
1, 199353, Control_c, 0, 67, 93
1, 199355, Note_on_c, 0, 80, 62
1, 199368, Control_c, 0, 64, 67
1, 199368, Control_c, 0, 67, 92
1, 199383, Control_c, 0, 64, 68
1, 199383, Control_c, 0, 67, 91
1, 199419, Note_off_c, 0, 59, 63
1, 199420, Control_c, 0, 67, 92
1, 199435, Control_c, 0, 67, 95
1, 199448, Note_on_c, 0, 79, 58
1, 199450, Control_c, 0, 64, 67
1, 199450, Control_c, 0, 67, 97
1, 199451, Note_off_c, 0, 80, 58
1, 199465, Control_c, 0, 64, 63
1, 199479, Control_c, 0, 64, 52
1, 199479, Control_c, 0, 67, 100
1, 199485, Note_off_c, 0, 68, 60
1, 199494, Control_c, 0, 64, 0
1, 199519, Note_off_c, 0, 79, 61
1, 199535, Note_on_c, 0, 77, 62
1, 199583, Control_c, 0, 64, 40
1, 199583, Control_c, 0, 67, 98
1, 199598, Control_c, 0, 64, 54
1, 199612, Control_c, 0, 64, 62
1, 199624, Note_off_c, 0, 77, 58
1, 199627, Control_c, 0, 64, 63
1, 199637, Note_on_c, 0, 76, 56
1, 199657, Control_c, 0, 67, 96
1, 199688, Control_c, 0, 64, 63
1, 199703, Control_c, 0, 64, 62
1, 199717, Control_c, 0, 64, 62
1, 199732, Control_c, 0, 64, 61
1, 199740, Note_on_c, 0, 60, 45
1, 199747, Control_c, 0, 64, 61
1, 199756, Note_off_c, 0, 76, 58
1, 199777, Control_c, 0, 64, 60
1, 199791, Control_c, 0, 64, 60
1, 199806, Control_c, 0, 64, 59
1, 199811, Note_off_c, 0, 60, 58
1, 199821, Control_c, 0, 64, 59
1, 199823, Note_on_c, 0, 64, 59
1, 199835, Control_c, 0, 64, 58
1, 199850, Control_c, 0, 64, 57
1, 199865, Control_c, 0, 64, 57
1, 199880, Control_c, 0, 64, 56
1, 199895, Control_c, 0, 64, 55
1, 199895, Control_c, 0, 67, 94
1, 199910, Control_c, 0, 64, 54
1, 199910, Control_c, 0, 67, 94
1, 199910, Note_off_c, 0, 64, 62
1, 199913, Note_on_c, 0, 67, 63
1, 199925, Control_c, 0, 64, 54
1, 199940, Control_c, 0, 64, 53
1, 199940, Control_c, 0, 67, 93
1, 199955, Control_c, 0, 64, 53
1, 199955, Control_c, 0, 67, 92
1, 199970, Control_c, 0, 64, 52
1, 199984, Control_c, 0, 64, 52
1, 199995, Note_on_c, 0, 72, 60
1, 199999, Control_c, 0, 64, 51
1, 200014, Control_c, 0, 64, 50
1, 200028, Control_c, 0, 64, 48
1, 200043, Control_c, 0, 64, 47
1, 200053, Note_off_c, 0, 67, 62
1, 200058, Control_c, 0, 64, 45
1, 200058, Control_c, 0, 67, 92
1, 200073, Control_c, 0, 64, 43
1, 200081, Note_off_c, 0, 72, 63
1, 200088, Control_c, 0, 64, 39
1, 200089, Note_on_c, 0, 76, 60
1, 200102, Control_c, 0, 64, 37
1, 200117, Control_c, 0, 64, 35
1, 200132, Control_c, 0, 64, 34
1, 200132, Control_c, 0, 67, 91
1, 200154, Control_c, 0, 64, 32
1, 200157, Note_off_c, 0, 76, 57
1, 200168, Note_on_c, 0, 79, 62
1, 200184, Control_c, 0, 64, 30
1, 200238, Note_off_c, 0, 79, 61
1, 200243, Control_c, 0, 64, 0
1, 200258, Control_c, 0, 67, 90
1, 200270, Note_on_c, 0, 83, 64
1, 200302, Control_c, 0, 67, 90
1, 200347, Control_c, 0, 67, 89
1, 200381, Note_off_c, 0, 83, 55
1, 200401, Note_on_c, 0, 84, 56
1, 200406, Control_c, 0, 67, 88
1, 200421, Control_c, 0, 67, 88
1, 200435, Control_c, 0, 67, 86
1, 200450, Control_c, 0, 67, 85
1, 200465, Control_c, 0, 67, 82
1, 200481, Control_c, 0, 67, 78
1, 200496, Control_c, 0, 67, 73
1, 200511, Control_c, 0, 67, 67
1, 200525, Control_c, 0, 67, 54
1, 200530, Note_off_c, 0, 84, 62
1, 200540, Control_c, 0, 67, 0
1, 200600, Note_on_c, 0, 61, 55
1, 200608, Note_on_c, 0, 58, 57
1, 200711, Note_off_c, 0, 61, 57
1, 200718, Note_off_c, 0, 58, 60
1, 200748, Control_c, 0, 64, 29
1, 200804, Note_on_c, 0, 60, 66
1, 200808, Note_on_c, 0, 56, 68
1, 200837, Control_c, 0, 64, 31
1, 200866, Control_c, 0, 64, 32
1, 200881, Control_c, 0, 64, 33
1, 200903, Control_c, 0, 64, 34
1, 200918, Note_off_c, 0, 56, 60
1, 200918, Control_c, 0, 64, 34
1, 200920, Note_off_c, 0, 60, 61
1, 200932, Control_c, 0, 64, 35
1, 200947, Control_c, 0, 64, 36
1, 200962, Control_c, 0, 64, 37
1, 200977, Control_c, 0, 64, 38
1, 200992, Control_c, 0, 64, 39
1, 201004, Note_on_c, 0, 58, 71
1, 201007, Control_c, 0, 64, 39
1, 201008, Note_on_c, 0, 55, 65
1, 201022, Control_c, 0, 64, 40
1, 201037, Control_c, 0, 64, 41
1, 201051, Control_c, 0, 64, 41
1, 201081, Control_c, 0, 64, 42
1, 201107, Note_off_c, 0, 55, 60
1, 201108, Note_off_c, 0, 58, 56
1, 201111, Control_c, 0, 64, 42
1, 201125, Control_c, 0, 64, 43
1, 201140, Control_c, 0, 64, 44
1, 201155, Control_c, 0, 64, 45
1, 201170, Control_c, 0, 64, 46
1, 201184, Control_c, 0, 64, 48
1, 201199, Control_c, 0, 64, 49
1, 201209, Note_on_c, 0, 56, 71
1, 201214, Control_c, 0, 64, 50
1, 201217, Note_on_c, 0, 53, 60
1, 201258, Control_c, 0, 64, 50
1, 201334, Control_c, 0, 64, 50
1, 201363, Control_c, 0, 64, 49
1, 201378, Control_c, 0, 64, 49
1, 201393, Control_c, 0, 64, 48
1, 201403, Note_on_c, 0, 41, 69
1, 201407, Control_c, 0, 64, 47
1, 201422, Control_c, 0, 64, 46
1, 201437, Control_c, 0, 64, 44
1, 201452, Control_c, 0, 64, 42
1, 201467, Control_c, 0, 64, 38
1, 201481, Control_c, 0, 64, 31
1, 201487, Note_off_c, 0, 41, 59
1, 201490, Note_on_c, 0, 43, 72
1, 201496, Control_c, 0, 64, 0
1, 201579, Note_on_c, 0, 60, 59
1, 201588, Note_on_c, 0, 44, 77
1, 201608, Note_off_c, 0, 43, 62
1, 201614, Control_c, 0, 64, 34
1, 201629, Control_c, 0, 64, 49
1, 201644, Control_c, 0, 64, 58
1, 201666, Control_c, 0, 64, 62
1, 201681, Control_c, 0, 64, 64
1, 201681, Note_off_c, 0, 44, 64
1, 201686, Note_on_c, 0, 43, 78
1, 201696, Control_c, 0, 64, 66
1, 201710, Note_off_c, 0, 53, 59
1, 201710, Control_c, 0, 64, 67
1, 201725, Control_c, 0, 64, 68
1, 201728, Note_off_c, 0, 56, 61
1, 201740, Control_c, 0, 64, 69
1, 201779, Note_on_c, 0, 44, 85
1, 201800, Note_off_c, 0, 43, 58
1, 201829, Control_c, 0, 64, 68
1, 201844, Control_c, 0, 64, 67
1, 201859, Control_c, 0, 64, 65
1, 201864, Note_on_c, 0, 46, 80
1, 201873, Control_c, 0, 64, 61
1, 201888, Control_c, 0, 64, 48
1, 201901, Note_off_c, 0, 44, 62
1, 201903, Control_c, 0, 64, 0
1, 201915, Note_off_c, 0, 60, 52
1, 201959, Note_on_c, 0, 48, 86
1, 201971, Note_off_c, 0, 46, 62
1, 201973, Note_on_c, 0, 55, 67
1, 201979, Note_on_c, 0, 52, 63
1, 201987, Note_off_c, 0, 48, 68
1, 202021, Control_c, 0, 64, 33
1, 202036, Control_c, 0, 64, 43
1, 202051, Control_c, 0, 64, 49
1, 202066, Control_c, 0, 64, 52
1, 202082, Control_c, 0, 64, 54
1, 202141, Control_c, 0, 64, 53
1, 202156, Control_c, 0, 64, 53
1, 202170, Control_c, 0, 64, 52
1, 202185, Note_on_c, 0, 67, 71
1, 202215, Control_c, 0, 64, 52
1, 202244, Control_c, 0, 64, 51
1, 202274, Control_c, 0, 64, 51
1, 202275, Note_on_c, 0, 68, 73
1, 202281, Note_off_c, 0, 67, 59
1, 202289, Control_c, 0, 64, 50
1, 202304, Control_c, 0, 64, 50
1, 202363, Note_on_c, 0, 70, 78
1, 202370, Note_on_c, 0, 60, 62
1, 202393, Note_off_c, 0, 68, 60
1, 202393, Control_c, 0, 64, 50
1, 202460, Control_c, 0, 64, 51
1, 202468, Note_on_c, 0, 72, 78
1, 202475, Control_c, 0, 64, 51
1, 202500, Note_off_c, 0, 55, 59
1, 202501, Note_off_c, 0, 70, 63
1, 202519, Control_c, 0, 64, 52
1, 202534, Control_c, 0, 64, 52
1, 202557, Note_on_c, 0, 73, 80
1, 202575, Note_off_c, 0, 72, 59
1, 202578, Control_c, 0, 64, 51
1, 202593, Control_c, 0, 64, 46
1, 202608, Control_c, 0, 64, 37
1, 202623, Control_c, 0, 64, 34
1, 202638, Control_c, 0, 64, 37
1, 202652, Note_on_c, 0, 70, 67
1, 202652, Control_c, 0, 64, 45
1, 202667, Control_c, 0, 64, 53
1, 202682, Control_c, 0, 64, 60
1, 202690, Note_off_c, 0, 73, 60
1, 202697, Control_c, 0, 64, 65
1, 202712, Control_c, 0, 64, 69
1, 202727, Control_c, 0, 64, 72
1, 202730, Note_off_c, 0, 70, 65
1, 202736, Note_on_c, 0, 68, 62
1, 202742, Control_c, 0, 64, 73
1, 202750, Note_on_c, 0, 53, 63
1, 202753, Note_on_c, 0, 56, 65
1, 202754, Note_off_c, 0, 68, 65
1, 202771, Control_c, 0, 64, 71
1, 202786, Control_c, 0, 64, 66
1, 202799, Note_off_c, 0, 60, 42
1, 202801, Control_c, 0, 64, 57
1, 202803, Note_off_c, 0, 52, 31
1, 202816, Control_c, 0, 64, 41
1, 202830, Control_c, 0, 64, 0
1, 202950, Note_on_c, 0, 41, 74
1, 203033, Note_on_c, 0, 43, 78
1, 203037, Note_off_c, 0, 41, 62
1, 203123, Note_on_c, 0, 44, 81
1, 203133, Note_on_c, 0, 60, 62
1, 203149, Note_off_c, 0, 43, 60
1, 203212, Note_off_c, 0, 44, 64
1, 203216, Note_on_c, 0, 43, 75
1, 203232, Note_off_c, 0, 56, 57
1, 203306, Note_on_c, 0, 44, 84
1, 203330, Note_off_c, 0, 43, 60
1, 203394, Note_on_c, 0, 46, 75
1, 203413, Note_off_c, 0, 44, 63
1, 203423, Note_off_c, 0, 53, 61
1, 203460, Control_c, 0, 64, 29
1, 203475, Control_c, 0, 64, 42
1, 203477, Note_on_c, 0, 48, 71
1, 203486, Note_on_c, 0, 55, 68
1, 203486, Note_off_c, 0, 46, 63
1, 203487, Note_on_c, 0, 52, 62
1, 203490, Control_c, 0, 64, 47
1, 203502, Note_off_c, 0, 48, 67
1, 203505, Control_c, 0, 64, 48
1, 203520, Control_c, 0, 64, 49
1, 203530, Note_off_c, 0, 60, 60
1, 203535, Control_c, 0, 64, 49
1, 203579, Control_c, 0, 64, 49
1, 203594, Control_c, 0, 64, 48
1, 203609, Control_c, 0, 64, 48
1, 203624, Control_c, 0, 64, 47
1, 203653, Control_c, 0, 64, 47
1, 203669, Control_c, 0, 64, 46
1, 203684, Control_c, 0, 64, 46
1, 203699, Control_c, 0, 64, 45
1, 203711, Note_on_c, 0, 79, 70
1, 203714, Control_c, 0, 64, 43
1, 203729, Control_c, 0, 64, 41
1, 203743, Control_c, 0, 64, 37
1, 203758, Control_c, 0, 64, 33
1, 203773, Control_c, 0, 64, 0
1, 203800, Note_on_c, 0, 77, 77
1, 203842, Note_off_c, 0, 79, 61
1, 203869, Note_on_c, 0, 60, 49
1, 203879, Note_on_c, 0, 76, 78
1, 203939, Note_off_c, 0, 77, 59
1, 203943, Control_c, 0, 64, 37
1, 203958, Control_c, 0, 64, 52
1, 203973, Control_c, 0, 64, 61
1, 203975, Note_on_c, 0, 73, 73
1, 203984, Note_off_c, 0, 76, 63
1, 203988, Control_c, 0, 64, 62
1, 204002, Control_c, 0, 64, 63
1, 204017, Control_c, 0, 64, 65
1, 204032, Control_c, 0, 64, 68
1, 204047, Control_c, 0, 64, 70
1, 204058, Note_on_c, 0, 72, 73
1, 204058, Note_off_c, 0, 73, 62
1, 204062, Control_c, 0, 64, 71
1, 204092, Note_off_c, 0, 55, 58
1, 204106, Control_c, 0, 64, 72
1, 204110, Note_off_c, 0, 72, 61
1, 204119, Note_off_c, 0, 52, 55
1, 204126, Note_off_c, 0, 60, 55
1, 204141, Note_on_c, 0, 70, 75
1, 204180, Control_c, 0, 64, 71
1, 204224, Control_c, 0, 64, 70
1, 204234, Note_off_c, 0, 70, 59
1, 204239, Control_c, 0, 64, 66
1, 204244, Note_on_c, 0, 68, 67
1, 204254, Control_c, 0, 64, 61
1, 204268, Control_c, 0, 64, 52
1, 204283, Note_on_c, 0, 56, 50
1, 204283, Control_c, 0, 64, 37
1, 204286, Note_on_c, 0, 53, 44
1, 204298, Control_c, 0, 64, 0
1, 204314, Note_off_c, 0, 68, 59
1, 204340, Note_on_c, 0, 65, 63
1, 204343, Control_c, 0, 64, 38
1, 204357, Control_c, 0, 64, 49
1, 204372, Control_c, 0, 64, 59
1, 204387, Control_c, 0, 64, 64
1, 204402, Control_c, 0, 64, 67
1, 204417, Control_c, 0, 64, 69
1, 204417, Note_off_c, 0, 65, 54
1, 204426, Note_on_c, 0, 68, 71
1, 204432, Control_c, 0, 64, 72
1, 204438, Note_off_c, 0, 53, 59
1, 204443, Note_off_c, 0, 56, 62
1, 204447, Control_c, 0, 64, 74
1, 204462, Control_c, 0, 64, 77
1, 204477, Control_c, 0, 64, 79
1, 204492, Control_c, 0, 64, 81
1, 204498, Note_off_c, 0, 68, 61
1, 204507, Control_c, 0, 64, 82
1, 204511, Note_on_c, 0, 72, 67
1, 204521, Control_c, 0, 64, 83
1, 204536, Control_c, 0, 64, 83
1, 204551, Control_c, 0, 64, 84
1, 204581, Control_c, 0, 64, 84
1, 204596, Note_off_c, 0, 72, 60
1, 204608, Note_on_c, 0, 77, 74
1, 204611, Control_c, 0, 64, 84
1, 204623, Note_on_c, 0, 56, 48
1, 204625, Control_c, 0, 64, 80
1, 204628, Note_on_c, 0, 60, 49
1, 204647, Control_c, 0, 64, 69
1, 204662, Control_c, 0, 64, 57
1, 204677, Control_c, 0, 64, 41
1, 204692, Control_c, 0, 64, 39
1, 204698, Note_off_c, 0, 77, 58
1, 204706, Control_c, 0, 64, 46
1, 204707, Note_on_c, 0, 65, 73
1, 204721, Control_c, 0, 64, 56
1, 204736, Control_c, 0, 64, 63
1, 204751, Control_c, 0, 64, 68
1, 204765, Note_off_c, 0, 56, 63
1, 204766, Control_c, 0, 64, 74
1, 204777, Note_off_c, 0, 65, 62
1, 204781, Control_c, 0, 64, 79
1, 204796, Control_c, 0, 64, 82
1, 204801, Note_on_c, 0, 77, 79
1, 204811, Control_c, 0, 64, 85
1, 204825, Control_c, 0, 64, 88
1, 204839, Note_off_c, 0, 60, 56
1, 204840, Control_c, 0, 64, 91
1, 204855, Control_c, 0, 64, 92
1, 204869, Note_off_c, 0, 77, 64
1, 204870, Control_c, 0, 64, 92
1, 204885, Control_c, 0, 64, 93
1, 204888, Note_on_c, 0, 65, 75
1, 204934, Note_off_c, 0, 65, 62
1, 204943, Control_c, 0, 64, 92
1, 204958, Control_c, 0, 64, 86
1, 204973, Control_c, 0, 64, 70
1, 204976, Note_on_c, 0, 78, 86
1, 204988, Control_c, 0, 64, 50
1, 204992, Note_on_c, 0, 61, 56
1, 204992, Note_on_c, 0, 58, 56
1, 205003, Control_c, 0, 64, 0
1, 205047, Control_c, 0, 64, 33
1, 205062, Control_c, 0, 64, 53
1, 205064, Note_off_c, 0, 78, 57
1, 205071, Note_on_c, 0, 66, 82
1, 205077, Control_c, 0, 64, 64
1, 205091, Control_c, 0, 64, 71
1, 205106, Control_c, 0, 64, 77
1, 205121, Control_c, 0, 64, 82
1, 205129, Note_off_c, 0, 66, 63
1, 205136, Control_c, 0, 64, 87
1, 205150, Control_c, 0, 64, 93
1, 205154, Note_off_c, 0, 58, 57
1, 205156, Note_off_c, 0, 61, 58
1, 205159, Note_on_c, 0, 78, 86
1, 205165, Control_c, 0, 64, 97
1, 205180, Control_c, 0, 64, 100
1, 205195, Control_c, 0, 64, 102
1, 205225, Note_off_c, 0, 78, 59
1, 205234, Note_on_c, 0, 66, 82
1, 205285, Control_c, 0, 64, 100
1, 205291, Note_off_c, 0, 66, 63
1, 205300, Control_c, 0, 64, 78
1, 205315, Control_c, 0, 64, 58
1, 205329, Control_c, 0, 64, 0
1, 205343, Note_on_c, 0, 81, 89
1, 205354, Note_on_c, 0, 63, 54
1, 205365, Note_on_c, 0, 60, 43
1, 205389, Control_c, 0, 64, 30
1, 205411, Control_c, 0, 64, 54
1, 205426, Control_c, 0, 64, 63
1, 205441, Note_off_c, 0, 81, 61
1, 205441, Control_c, 0, 64, 68
1, 205446, Note_on_c, 0, 69, 83
1, 205455, Control_c, 0, 64, 73
1, 205470, Control_c, 0, 64, 77
1, 205485, Control_c, 0, 64, 81
1, 205489, Note_off_c, 0, 63, 62
1, 205500, Control_c, 0, 64, 86
1, 205514, Note_off_c, 0, 69, 61
1, 205515, Control_c, 0, 64, 89
1, 205529, Control_c, 0, 64, 90
1, 205534, Note_on_c, 0, 81, 90
1, 205539, Note_off_c, 0, 60, 57
1, 205544, Control_c, 0, 64, 91
1, 205588, Note_off_c, 0, 81, 64
1, 205620, Note_on_c, 0, 69, 79
1, 205633, Control_c, 0, 64, 90
1, 205648, Control_c, 0, 64, 89
1, 205663, Control_c, 0, 64, 80
1, 205678, Note_off_c, 0, 69, 61
1, 205678, Control_c, 0, 64, 66
1, 205693, Control_c, 0, 64, 43
1, 205708, Control_c, 0, 64, 0
1, 205739, Note_on_c, 0, 82, 75
1, 205761, Note_on_c, 0, 65, 47
1, 205770, Note_on_c, 0, 61, 42
1, 205796, Control_c, 0, 64, 46
1, 205811, Control_c, 0, 64, 62
1, 205826, Control_c, 0, 64, 69
1, 205840, Control_c, 0, 64, 82
1, 205843, Note_off_c, 0, 61, 61
1, 205848, Note_off_c, 0, 65, 61
1, 205855, Control_c, 0, 64, 127
1, 205921, Note_off_c, 0, 82, 63
1, 205944, Control_c, 0, 64, 99
1, 205959, Control_c, 0, 64, 67
1, 205973, Control_c, 0, 64, 40
1, 205988, Control_c, 0, 64, 0
1, 206093, Control_c, 0, 64, 29
1, 206108, Control_c, 0, 64, 31
1, 206123, Control_c, 0, 64, 34
1, 206131, Note_on_c, 0, 78, 45
1, 206135, Note_on_c, 0, 75, 46
1, 206138, Control_c, 0, 64, 34
1, 206204, Control_c, 0, 64, 35
1, 206218, Note_on_c, 0, 82, 60
1, 206219, Control_c, 0, 64, 35
1, 206234, Control_c, 0, 64, 36
1, 206249, Control_c, 0, 64, 37
1, 206255, Note_off_c, 0, 78, 54
1, 206262, Note_off_c, 0, 75, 60
1, 206264, Control_c, 0, 64, 39
1, 206278, Control_c, 0, 64, 42
1, 206278, Control_c, 0, 67, 58
1, 206293, Control_c, 0, 64, 47
1, 206293, Control_c, 0, 67, 107
1, 206307, Note_on_c, 0, 81, 69
1, 206308, Control_c, 0, 64, 49
1, 206308, Control_c, 0, 67, 127
1, 206319, Note_off_c, 0, 82, 59
1, 206323, Control_c, 0, 64, 50
1, 206367, Control_c, 0, 64, 49
1, 206382, Control_c, 0, 64, 48
1, 206391, Note_on_c, 0, 84, 70
1, 206392, Note_off_c, 0, 81, 63
1, 206396, Control_c, 0, 64, 46
1, 206411, Control_c, 0, 64, 43
1, 206420, Note_off_c, 0, 84, 62
1, 206426, Control_c, 0, 64, 42
1, 206486, Control_c, 0, 64, 41
1, 206486, Note_on_c, 0, 77, 62
1, 206490, Note_on_c, 0, 73, 58
1, 206572, Note_on_c, 0, 84, 72
1, 206617, Note_off_c, 0, 73, 60
1, 206638, Note_off_c, 0, 77, 58
1, 206662, Note_on_c, 0, 82, 76
1, 206678, Note_off_c, 0, 84, 61
1, 206722, Control_c, 0, 67, 103
1, 206737, Control_c, 0, 64, 41
1, 206737, Control_c, 0, 67, 38
1, 206745, Note_on_c, 0, 85, 71
1, 206751, Note_off_c, 0, 82, 64
1, 206752, Control_c, 0, 64, 40
1, 206752, Control_c, 0, 67, 0
1, 206772, Note_off_c, 0, 85, 65
1, 206811, Control_c, 0, 64, 39
1, 206859, Note_on_c, 0, 77, 46
1, 206871, Note_on_c, 0, 69, 47
1, 206894, Control_c, 0, 64, 39
1, 206924, Control_c, 0, 64, 38
1, 206939, Control_c, 0, 64, 37
1, 206953, Control_c, 0, 64, 37
1, 206968, Control_c, 0, 64, 36
1, 206975, Note_on_c, 0, 85, 63
1, 206983, Note_off_c, 0, 77, 56
1, 206983, Control_c, 0, 64, 35
1, 206984, Note_off_c, 0, 69, 58
1, 206998, Control_c, 0, 64, 35
1, 207013, Control_c, 0, 64, 33
1, 207027, Control_c, 0, 64, 32
1, 207055, Note_off_c, 0, 85, 60
1, 207057, Control_c, 0, 64, 30
1, 207064, Note_on_c, 0, 84, 63
1, 207126, Note_off_c, 0, 84, 62
1, 207140, Note_on_c, 0, 87, 57
1, 207205, Control_c, 0, 64, 0
1, 207267, Note_off_c, 0, 87, 59
1, 207270, Note_on_c, 0, 85, 52
1, 207279, Control_c, 0, 67, 45
1, 207288, Note_on_c, 0, 77, 37
1, 207293, Note_on_c, 0, 70, 39
1, 207294, Control_c, 0, 67, 62
1, 207305, Note_off_c, 0, 85, 65
1, 207309, Control_c, 0, 67, 75
1, 207323, Control_c, 0, 67, 87
1, 207338, Control_c, 0, 67, 101
1, 207353, Control_c, 0, 67, 114
1, 207368, Control_c, 0, 67, 126
1, 207544, Note_off_c, 0, 70, 37
1, 207544, Note_off_c, 0, 77, 53
1, 207547, Note_on_c, 0, 85, 52
1, 207601, Note_off_c, 0, 85, 56
1, 207621, Note_on_c, 0, 82, 53
1, 207702, Note_off_c, 0, 82, 61
1, 207726, Note_on_c, 0, 85, 59
1, 207791, Note_off_c, 0, 85, 62
1, 207816, Note_on_c, 0, 82, 61
1, 207861, Note_off_c, 0, 82, 60
1, 207909, Note_on_c, 0, 85, 58
1, 207954, Note_off_c, 0, 85, 56
1, 207980, Note_on_c, 0, 82, 55
1, 208082, Note_off_c, 0, 82, 60
1, 208092, Note_on_c, 0, 85, 56
1, 208120, Note_off_c, 0, 85, 68
1, 208314, Note_on_c, 0, 76, 54
1, 208329, Note_on_c, 0, 70, 43
1, 208333, Note_on_c, 0, 67, 42
1, 208345, Note_on_c, 0, 60, 35
1, 208365, Note_off_c, 0, 70, 63
1, 208372, Note_off_c, 0, 76, 57
1, 208376, Note_off_c, 0, 60, 55
1, 208377, Note_off_c, 0, 67, 60
1, 208555, Note_on_c, 0, 76, 46
1, 208561, Note_on_c, 0, 67, 41
1, 208562, Note_on_c, 0, 70, 49
1, 208570, Note_on_c, 0, 60, 29
1, 208608, Note_off_c, 0, 70, 57
1, 208620, Note_off_c, 0, 60, 56
1, 208624, Note_off_c, 0, 76, 51
1, 208626, Note_off_c, 0, 67, 53
1, 208798, Note_on_c, 0, 76, 43
1, 208810, Note_on_c, 0, 67, 37
1, 208811, Note_on_c, 0, 70, 47
1, 208825, Note_on_c, 0, 60, 28
1, 208853, Note_off_c, 0, 70, 63
1, 208855, Note_off_c, 0, 76, 61
1, 208868, Note_off_c, 0, 60, 53
1, 208868, Note_off_c, 0, 67, 57
1, 208939, Control_c, 0, 64, 28
1, 209029, Control_c, 0, 64, 0
1, 209043, Control_c, 0, 67, 0
1, 209060, Note_on_c, 0, 68, 76
1, 209067, Note_on_c, 0, 65, 74
1, 209198, Control_c, 0, 64, 29
1, 209264, Note_on_c, 0, 53, 66
1, 209303, Control_c, 0, 64, 31
1, 209305, Note_off_c, 0, 53, 64
1, 209318, Control_c, 0, 64, 32
1, 209333, Control_c, 0, 64, 32
1, 209342, Note_on_c, 0, 55, 65
1, 209347, Control_c, 0, 64, 33
1, 209362, Control_c, 0, 64, 33
1, 209392, Control_c, 0, 64, 34
1, 209427, Note_on_c, 0, 56, 75
1, 209427, Note_on_c, 0, 72, 79
1, 209431, Note_off_c, 0, 55, 62
1, 209433, Note_off_c, 0, 68, 61
1, 209481, Control_c, 0, 64, 34
1, 209492, Note_off_c, 0, 56, 63
1, 209511, Note_on_c, 0, 55, 72
1, 209596, Note_on_c, 0, 56, 84
1, 209620, Note_off_c, 0, 55, 63
1, 209680, Note_on_c, 0, 58, 81
1, 209685, Note_off_c, 0, 56, 67
1, 209781, Note_on_c, 0, 60, 80
1, 209783, Note_off_c, 0, 72, 55
1, 209790, Note_on_c, 0, 67, 80
1, 209792, Note_on_c, 0, 64, 81
1, 209795, Note_off_c, 0, 58, 65
1, 209810, Note_off_c, 0, 60, 69
1, 209840, Note_off_c, 0, 65, 53
1, 210024, Note_on_c, 0, 79, 68
1, 210066, Control_c, 0, 64, 35
1, 210108, Note_on_c, 0, 80, 72
1, 210137, Note_off_c, 0, 79, 62
1, 210193, Note_on_c, 0, 72, 71
1, 210193, Note_on_c, 0, 82, 82
1, 210204, Note_off_c, 0, 80, 65
1, 210233, Note_off_c, 0, 67, 60
1, 210266, Note_off_c, 0, 82, 65
1, 210267, Note_on_c, 0, 79, 75
1, 210361, Note_on_c, 0, 80, 84
1, 210391, Note_off_c, 0, 79, 62
1, 210422, Control_c, 0, 64, 34
1, 210448, Note_on_c, 0, 82, 82
1, 210457, Note_off_c, 0, 80, 65
1, 210510, Control_c, 0, 64, 35
1, 210534, Note_on_c, 0, 80, 87
1, 210541, Note_on_c, 0, 65, 75
1, 210542, Note_off_c, 0, 82, 64
1, 210545, Note_on_c, 0, 68, 73
1, 210555, Note_off_c, 0, 80, 68
1, 210585, Control_c, 0, 64, 34
1, 210600, Control_c, 0, 64, 34
1, 210605, Note_off_c, 0, 64, 55
1, 210614, Control_c, 0, 64, 33
1, 210618, Note_off_c, 0, 72, 50
1, 210636, Control_c, 0, 64, 32
1, 210651, Control_c, 0, 64, 32
1, 210742, Note_on_c, 0, 53, 79
1, 210808, Note_off_c, 0, 53, 62
1, 210826, Note_on_c, 0, 55, 81
1, 210906, Note_on_c, 0, 72, 73
1, 210912, Note_on_c, 0, 56, 83
1, 210917, Note_off_c, 0, 55, 59
1, 210945, Note_off_c, 0, 68, 57
1, 210988, Note_off_c, 0, 56, 64
1, 210991, Note_on_c, 0, 55, 69
1, 211082, Control_c, 0, 64, 32
1, 211088, Note_on_c, 0, 56, 83
1, 211106, Note_off_c, 0, 55, 61
1, 211126, Control_c, 0, 64, 33
1, 211156, Control_c, 0, 64, 33
1, 211181, Note_on_c, 0, 58, 78
1, 211181, Note_off_c, 0, 56, 65
1, 211265, Note_on_c, 0, 60, 71
1, 211266, Note_on_c, 0, 64, 72
1, 211267, Note_on_c, 0, 67, 73
1, 211286, Note_off_c, 0, 58, 60
1, 211301, Note_off_c, 0, 60, 67
1, 211318, Note_off_c, 0, 72, 58
1, 211375, Note_off_c, 0, 65, 60
1, 211385, Control_c, 0, 64, 33
1, 211415, Control_c, 0, 64, 32
1, 211430, Control_c, 0, 64, 32
1, 211459, Control_c, 0, 64, 0
1, 211482, Note_on_c, 0, 53, 88
1, 211567, Note_on_c, 0, 55, 89
1, 211571, Note_off_c, 0, 53, 65
1, 211679, Note_off_c, 0, 55, 62
1, 211679, Note_on_c, 0, 57, 83
1, 211688, Note_on_c, 0, 72, 88
1, 211690, Note_on_c, 0, 63, 86
1, 211726, Note_off_c, 0, 64, 62
1, 211750, Note_off_c, 0, 57, 65
1, 211784, Note_on_c, 0, 53, 81
1, 211801, Control_c, 0, 64, 33
1, 211816, Control_c, 0, 64, 51
1, 211831, Control_c, 0, 64, 62
1, 211837, Note_off_c, 0, 67, 58
1, 211846, Control_c, 0, 64, 65
1, 211860, Control_c, 0, 64, 68
1, 211875, Control_c, 0, 64, 73
1, 211890, Control_c, 0, 64, 77
1, 211893, Note_on_c, 0, 55, 87
1, 211894, Note_off_c, 0, 63, 57
1, 211905, Control_c, 0, 64, 81
1, 211920, Control_c, 0, 64, 85
1, 211926, Note_off_c, 0, 53, 63
1, 211934, Control_c, 0, 64, 89
1, 211949, Control_c, 0, 64, 92
1, 211964, Control_c, 0, 64, 94
1, 211979, Control_c, 0, 64, 96
1, 211984, Note_on_c, 0, 57, 93
1, 211987, Note_off_c, 0, 55, 64
1, 212097, Control_c, 0, 64, 89
1, 212112, Control_c, 0, 64, 71
1, 212127, Control_c, 0, 64, 45
1, 212143, Note_off_c, 0, 57, 62
1, 212149, Control_c, 0, 64, 0
1, 212152, Note_on_c, 0, 70, 87
1, 212154, Note_on_c, 0, 65, 73
1, 212155, Note_on_c, 0, 61, 83
1, 212161, Note_on_c, 0, 58, 99
1, 212202, Note_off_c, 0, 72, 61
1, 212223, Control_c, 0, 64, 36
1, 212238, Control_c, 0, 64, 63
1, 212239, Note_off_c, 0, 58, 60
1, 212253, Control_c, 0, 64, 77
1, 212267, Control_c, 0, 64, 103
1, 212273, Note_off_c, 0, 61, 62
1, 212282, Control_c, 0, 64, 127
1, 212290, Note_off_c, 0, 65, 60
1, 212300, Note_off_c, 0, 70, 60
1, 212483, Note_on_c, 0, 42, 78
1, 212531, Note_on_c, 0, 46, 80
1, 212572, Note_on_c, 0, 49, 82
1, 212615, Note_on_c, 0, 61, 75
1, 212624, Note_on_c, 0, 54, 78
1, 212654, Note_on_c, 0, 66, 75
1, 212683, Control_c, 0, 64, 88
1, 212686, Note_on_c, 0, 70, 92
1, 212698, Control_c, 0, 64, 65
1, 212704, Note_on_c, 0, 73, 89
1, 212713, Control_c, 0, 64, 35
1, 212728, Control_c, 0, 64, 0
1, 212728, Note_on_c, 0, 64, 27
1, 212765, Note_off_c, 0, 64, 33
1, 213032, Control_c, 0, 64, 32
1, 213046, Control_c, 0, 64, 38
1, 213061, Control_c, 0, 64, 46
1, 213076, Control_c, 0, 64, 53
1, 213090, Control_c, 0, 64, 56
1, 213105, Control_c, 0, 64, 58
1, 213120, Control_c, 0, 64, 59
1, 213135, Control_c, 0, 64, 61
1, 213150, Control_c, 0, 64, 62
1, 213164, Control_c, 0, 64, 64
1, 213179, Control_c, 0, 64, 66
1, 213194, Control_c, 0, 64, 68
1, 213209, Control_c, 0, 64, 70
1, 213224, Control_c, 0, 64, 71
1, 213238, Control_c, 0, 64, 73
1, 213254, Control_c, 0, 64, 75
1, 213269, Control_c, 0, 64, 77
1, 213284, Control_c, 0, 64, 79
1, 213299, Control_c, 0, 64, 81
1, 213313, Control_c, 0, 64, 83
1, 213328, Control_c, 0, 64, 86
1, 213343, Control_c, 0, 64, 89
1, 213358, Control_c, 0, 64, 92
1, 213373, Control_c, 0, 64, 94
1, 213375, Note_off_c, 0, 61, 50
1, 213387, Control_c, 0, 64, 96
1, 213402, Control_c, 0, 64, 99
1, 213417, Control_c, 0, 64, 101
1, 213432, Control_c, 0, 64, 104
1, 213447, Control_c, 0, 64, 107
1, 213461, Control_c, 0, 64, 109
1, 213476, Control_c, 0, 64, 112
1, 213487, Note_off_c, 0, 42, 38
1, 213491, Control_c, 0, 64, 115
1, 213500, Note_off_c, 0, 66, 39
1, 213506, Control_c, 0, 64, 119
1, 213521, Control_c, 0, 64, 127
1, 213542, Note_off_c, 0, 49, 51
1, 213553, Note_off_c, 0, 54, 51
1, 213557, Note_off_c, 0, 46, 56
1, 213597, Note_off_c, 0, 70, 56
1, 213655, Note_off_c, 0, 73, 57
1, 213913, Control_c, 0, 64, 105
1, 213928, Control_c, 0, 64, 93
1, 213943, Control_c, 0, 64, 83
1, 213958, Control_c, 0, 64, 74
1, 213966, Note_on_c, 0, 61, 79
1, 213971, Note_on_c, 0, 49, 74
1, 213973, Control_c, 0, 64, 64
1, 213987, Control_c, 0, 64, 57
1, 214002, Control_c, 0, 64, 51
1, 214017, Control_c, 0, 64, 41
1, 214031, Control_c, 0, 64, 0
1, 214092, Control_c, 0, 64, 33
1, 214107, Control_c, 0, 64, 49
1, 214114, Note_on_c, 0, 73, 75
1, 214122, Control_c, 0, 64, 60
1, 214136, Control_c, 0, 64, 64
1, 214151, Control_c, 0, 64, 68
1, 214166, Control_c, 0, 64, 73
1, 214181, Control_c, 0, 64, 80
1, 214194, Note_off_c, 0, 73, 62
1, 214195, Note_off_c, 0, 61, 59
1, 214196, Control_c, 0, 64, 87
1, 214209, Note_on_c, 0, 85, 79
1, 214210, Control_c, 0, 64, 94
1, 214225, Control_c, 0, 64, 102
1, 214227, Note_off_c, 0, 49, 61
1, 214240, Control_c, 0, 64, 114
1, 214255, Control_c, 0, 64, 127
1, 214294, Note_on_c, 0, 73, 83
1, 214303, Note_off_c, 0, 85, 60
1, 214355, Note_off_c, 0, 73, 63
1, 214394, Note_on_c, 0, 58, 92
1, 214397, Note_on_c, 0, 46, 87
1, 214440, Control_c, 0, 64, 94
1, 214454, Control_c, 0, 64, 67
1, 214469, Control_c, 0, 64, 47
1, 214477, Note_on_c, 0, 70, 81
1, 214484, Control_c, 0, 64, 43
1, 214499, Control_c, 0, 64, 53
1, 214514, Control_c, 0, 64, 62
1, 214529, Control_c, 0, 64, 71
1, 214542, Note_off_c, 0, 70, 63
1, 214543, Note_off_c, 0, 58, 61
1, 214543, Control_c, 0, 64, 86
1, 214558, Control_c, 0, 64, 103
1, 214564, Note_on_c, 0, 82, 81
1, 214573, Control_c, 0, 64, 127
1, 214585, Note_off_c, 0, 46, 60
1, 214629, Note_off_c, 0, 82, 59
1, 214636, Note_on_c, 0, 70, 83
1, 214680, Note_off_c, 0, 70, 64
1, 214726, Note_on_c, 0, 54, 93
1, 214727, Note_on_c, 0, 42, 89
1, 214736, Control_c, 0, 64, 108
1, 214751, Control_c, 0, 64, 74
1, 214766, Control_c, 0, 64, 53
1, 214781, Control_c, 0, 64, 35
1, 214794, Note_on_c, 0, 66, 77
1, 214796, Control_c, 0, 64, 40
1, 214810, Control_c, 0, 64, 53
1, 214825, Control_c, 0, 64, 65
1, 214840, Control_c, 0, 64, 76
1, 214856, Control_c, 0, 64, 91
1, 214856, Note_off_c, 0, 66, 62
1, 214871, Control_c, 0, 64, 104
1, 214874, Note_on_c, 0, 78, 76
1, 214883, Note_off_c, 0, 54, 58
1, 214886, Control_c, 0, 64, 127
1, 214922, Note_off_c, 0, 42, 61
1, 214943, Note_off_c, 0, 78, 60
1, 214955, Note_on_c, 0, 66, 82
1, 215002, Note_off_c, 0, 66, 64
1, 215050, Note_on_c, 0, 49, 94
1, 215053, Note_on_c, 0, 37, 90
1, 215063, Control_c, 0, 64, 112
1, 215077, Control_c, 0, 64, 73
1, 215092, Control_c, 0, 64, 46
1, 215107, Control_c, 0, 64, 0
1, 215130, Control_c, 0, 64, 31
1, 215132, Note_on_c, 0, 61, 73
1, 215145, Control_c, 0, 64, 50
1, 215159, Control_c, 0, 64, 64
1, 215174, Control_c, 0, 64, 72
1, 215189, Control_c, 0, 64, 81
1, 215199, Note_off_c, 0, 61, 61
1, 215204, Control_c, 0, 64, 90
1, 215214, Note_off_c, 0, 49, 59
1, 215219, Note_on_c, 0, 73, 75
1, 215219, Control_c, 0, 64, 96
1, 215233, Control_c, 0, 64, 103
1, 215244, Note_off_c, 0, 37, 60
1, 215248, Control_c, 0, 64, 109
1, 215263, Control_c, 0, 64, 115
1, 215277, Control_c, 0, 64, 122
1, 215278, Note_off_c, 0, 73, 62
1, 215292, Control_c, 0, 64, 127
1, 215297, Note_on_c, 0, 61, 76
1, 215348, Note_off_c, 0, 61, 61
1, 215381, Control_c, 0, 64, 90
1, 215386, Note_on_c, 0, 34, 91
1, 215386, Note_on_c, 0, 46, 90
1, 215396, Control_c, 0, 64, 64
1, 215411, Control_c, 0, 64, 0
1, 215457, Note_on_c, 0, 58, 81
1, 215470, Control_c, 0, 64, 40
1, 215485, Control_c, 0, 64, 58
1, 215500, Control_c, 0, 64, 66
1, 215515, Control_c, 0, 64, 72
1, 215517, Note_off_c, 0, 58, 62
1, 215530, Control_c, 0, 64, 76
1, 215536, Note_off_c, 0, 46, 58
1, 215545, Control_c, 0, 64, 80
1, 215548, Note_on_c, 0, 70, 73
1, 215559, Control_c, 0, 64, 84
1, 215574, Control_c, 0, 64, 88
1, 215578, Note_off_c, 0, 34, 59
1, 215589, Control_c, 0, 64, 92
1, 215604, Control_c, 0, 64, 94
1, 215618, Note_off_c, 0, 70, 54
1, 215619, Control_c, 0, 64, 95
1, 215625, Note_on_c, 0, 58, 76
1, 215633, Control_c, 0, 64, 96
1, 215670, Note_off_c, 0, 58, 61
1, 215827, Control_c, 0, 64, 95
1, 215842, Note_on_c, 0, 30, 80
1, 215842, Note_on_c, 0, 42, 88
1, 215842, Control_c, 0, 64, 93
1, 215843, Note_on_c, 0, 66, 86
1, 215850, Note_on_c, 0, 54, 73
1, 215856, Control_c, 0, 64, 88
1, 215879, Control_c, 0, 64, 80
1, 215894, Control_c, 0, 64, 71
1, 215908, Control_c, 0, 64, 60
1, 215923, Control_c, 0, 64, 34
1, 215938, Control_c, 0, 64, 0
1, 216086, Control_c, 0, 64, 34
1, 216100, Control_c, 0, 64, 53
1, 216115, Control_c, 0, 64, 63
1, 216130, Control_c, 0, 64, 68
1, 216145, Control_c, 0, 64, 74
1, 216160, Control_c, 0, 64, 81
1, 216174, Control_c, 0, 64, 93
1, 216189, Control_c, 0, 64, 113
1, 216204, Control_c, 0, 64, 127
1, 216206, Note_off_c, 0, 30, 61
1, 216245, Note_off_c, 0, 42, 61
1, 216262, Note_off_c, 0, 54, 60
1, 216374, Note_off_c, 0, 66, 57
1, 216531, Control_c, 0, 64, 78
1, 216546, Control_c, 0, 64, 57
1, 216561, Control_c, 0, 64, 0
1, 216814, Note_on_c, 0, 55, 48
1, 216869, Note_off_c, 0, 55, 60
1, 216874, Note_on_c, 0, 58, 50
1, 216899, Note_on_c, 0, 61, 62
1, 216905, Note_off_c, 0, 58, 64
1, 216934, Note_off_c, 0, 61, 65
1, 216942, Note_on_c, 0, 64, 65
1, 216948, Note_on_c, 0, 67, 63
1, 216968, Note_off_c, 0, 64, 67
1, 217009, Note_on_c, 0, 70, 73
1, 217031, Note_off_c, 0, 67, 54
1, 217044, Note_on_c, 0, 73, 70
1, 217095, Note_on_c, 0, 76, 79
1, 217100, Note_off_c, 0, 70, 65
1, 217101, Control_c, 0, 67, 40
1, 217111, Note_off_c, 0, 73, 64
1, 217116, Control_c, 0, 67, 70
1, 217131, Control_c, 0, 67, 102
1, 217141, Note_off_c, 0, 76, 66
1, 217146, Control_c, 0, 67, 127
1, 217300, Note_on_c, 0, 76, 79
1, 217324, Note_off_c, 0, 76, 64
1, 217442, Note_on_c, 0, 56, 50
1, 217508, Note_on_c, 0, 60, 46
1, 217528, Note_off_c, 0, 56, 60
1, 217530, Note_on_c, 0, 65, 58
1, 217549, Note_off_c, 0, 60, 64
1, 217560, Note_off_c, 0, 65, 65
1, 217564, Note_on_c, 0, 68, 70
1, 217587, Note_off_c, 0, 68, 69
1, 217609, Note_on_c, 0, 72, 61
1, 217664, Note_on_c, 0, 77, 67
1, 217668, Note_off_c, 0, 72, 57
1, 217708, Note_on_c, 0, 80, 71
1, 217746, Note_off_c, 0, 77, 60
1, 217757, Note_on_c, 0, 84, 74
1, 217773, Note_off_c, 0, 80, 65
1, 217808, Note_off_c, 0, 84, 62
1, 217969, Note_on_c, 0, 84, 63
1, 217997, Note_off_c, 0, 84, 65
1, 218088, Note_on_c, 0, 46, 51
1, 218144, Note_on_c, 0, 49, 52
1, 218168, Note_off_c, 0, 46, 57
1, 218192, Note_off_c, 0, 49, 62
1, 218193, Note_on_c, 0, 55, 55
1, 218197, Note_on_c, 0, 77, 56
1, 218230, Note_off_c, 0, 55, 64
1, 218234, Note_on_c, 0, 82, 67
1, 218278, Note_on_c, 0, 85, 74
1, 218284, Note_off_c, 0, 77, 63
1, 218304, Note_off_c, 0, 82, 64
1, 218308, Note_off_c, 0, 85, 63
1, 218501, Note_on_c, 0, 48, 54
1, 218538, Note_on_c, 0, 55, 48
1, 218544, Note_off_c, 0, 48, 62
1, 218579, Note_off_c, 0, 55, 64
1, 218584, Note_on_c, 0, 60, 56
1, 218607, Note_on_c, 0, 67, 58
1, 218615, Note_off_c, 0, 60, 66
1, 218653, Note_on_c, 0, 70, 63
1, 218681, Note_off_c, 0, 67, 61
1, 218693, Note_on_c, 0, 76, 69
1, 218726, Note_off_c, 0, 76, 61
1, 218734, Note_off_c, 0, 70, 63
1, 218964, Control_c, 0, 64, 31
1, 218979, Control_c, 0, 64, 37
1, 218994, Control_c, 0, 64, 41
1, 219008, Control_c, 0, 64, 47
1, 219023, Control_c, 0, 64, 52
1, 219037, Note_on_c, 0, 53, 41
1, 219038, Control_c, 0, 64, 54
1, 219052, Control_c, 0, 64, 56
1, 219067, Control_c, 0, 64, 57
1, 219082, Control_c, 0, 64, 60
1, 219092, Note_off_c, 0, 53, 60
1, 219097, Control_c, 0, 64, 62
1, 219100, Note_on_c, 0, 56, 53
1, 219112, Control_c, 0, 64, 64
1, 219126, Control_c, 0, 64, 66
1, 219141, Control_c, 0, 64, 68
1, 219144, Note_off_c, 0, 56, 62
1, 219152, Note_on_c, 0, 60, 49
1, 219156, Control_c, 0, 64, 69
1, 219171, Control_c, 0, 64, 71
1, 219186, Control_c, 0, 64, 73
1, 219187, Note_on_c, 0, 65, 54
1, 219187, Note_off_c, 0, 60, 67
1, 219200, Control_c, 0, 64, 74
1, 219215, Control_c, 0, 64, 75
1, 219230, Control_c, 0, 64, 75
1, 219238, Note_off_c, 0, 65, 57
1, 219245, Note_on_c, 0, 68, 61
1, 219259, Control_c, 0, 64, 76
1, 219271, Note_off_c, 0, 68, 69
1, 219307, Note_on_c, 0, 72, 61
1, 219333, Note_off_c, 0, 72, 67
1, 219349, Note_on_c, 0, 77, 67
1, 219394, Note_off_c, 0, 77, 62
1, 219408, Control_c, 0, 64, 75
1, 219409, Note_on_c, 0, 72, 67
1, 219423, Control_c, 0, 64, 73
1, 219438, Control_c, 0, 64, 71
1, 219452, Control_c, 0, 64, 67
1, 219457, Note_on_c, 0, 68, 70
1, 219459, Note_off_c, 0, 72, 63
1, 219467, Control_c, 0, 64, 64
1, 219482, Control_c, 0, 64, 60
1, 219497, Control_c, 0, 64, 55
1, 219510, Note_off_c, 0, 68, 61
1, 219512, Control_c, 0, 64, 52
1, 219512, Note_on_c, 0, 65, 56
1, 219526, Control_c, 0, 64, 48
1, 219541, Control_c, 0, 64, 44
1, 219544, Note_off_c, 0, 65, 64
1, 219556, Control_c, 0, 64, 38
1, 219571, Control_c, 0, 64, 29
1, 219577, Note_on_c, 0, 53, 48
1, 219586, Control_c, 0, 64, 0
1, 219629, Note_off_c, 0, 53, 59
1, 219657, Note_on_c, 0, 48, 51
1, 219698, Note_off_c, 0, 48, 63
1, 219742, Note_on_c, 0, 44, 41
1, 219782, Note_off_c, 0, 44, 64
1, 219863, Note_on_c, 0, 41, 39
1, 220013, Note_off_c, 0, 41, 45
1, 220875, Control_c, 0, 67, 103
1, 220890, Control_c, 0, 67, 81
1, 220904, Control_c, 0, 67, 57
1, 220919, Control_c, 0, 67, 0
1, 221009, Control_c, 0, 64, 29
1, 221023, Control_c, 0, 64, 35
1, 221038, Control_c, 0, 64, 41
1, 221053, Control_c, 0, 64, 46
1, 221068, Control_c, 0, 64, 50
1, 221083, Control_c, 0, 64, 53
1, 221097, Control_c, 0, 64, 55
1, 221112, Control_c, 0, 64, 56
1, 221134, Control_c, 0, 64, 57
1, 221149, Control_c, 0, 64, 59
1, 221164, Control_c, 0, 64, 60
1, 221179, Control_c, 0, 64, 61
1, 221194, Control_c, 0, 64, 62
1, 221209, Control_c, 0, 64, 63
1, 221223, Control_c, 0, 64, 63
1, 221238, Control_c, 0, 64, 64
1, 221254, Control_c, 0, 64, 65
1, 221269, Control_c, 0, 64, 65
1, 221283, Control_c, 0, 64, 66
1, 221298, Control_c, 0, 64, 67
1, 221313, Control_c, 0, 64, 68
1, 221328, Control_c, 0, 64, 69
1, 221343, Control_c, 0, 64, 69
1, 221372, Control_c, 0, 64, 70
1, 221624, Control_c, 0, 64, 69
1, 221653, Control_c, 0, 64, 69
1, 221654, Note_on_c, 0, 69, 49
1, 221683, Control_c, 0, 64, 68
1, 221685, Note_on_c, 0, 65, 37
1, 221712, Control_c, 0, 64, 68
1, 221727, Control_c, 0, 64, 67
1, 221733, Note_on_c, 0, 41, 28
1, 221742, Control_c, 0, 64, 66
1, 221757, Control_c, 0, 64, 66
1, 221772, Control_c, 0, 64, 65
1, 221787, Control_c, 0, 64, 63
1, 221802, Control_c, 0, 64, 62
1, 221817, Control_c, 0, 64, 60
1, 221832, Control_c, 0, 64, 59
1, 221846, Control_c, 0, 64, 58
1, 221883, Control_c, 0, 64, 58
1, 221898, Control_c, 0, 64, 57
1, 221913, Control_c, 0, 67, 41
1, 221927, Control_c, 0, 67, 47
1, 221929, Note_on_c, 0, 53, 44
1, 221942, Control_c, 0, 67, 53
1, 221957, Control_c, 0, 67, 58
1, 221971, Note_off_c, 0, 53, 61
1, 221972, Control_c, 0, 64, 57
1, 221972, Control_c, 0, 67, 64
1, 221987, Control_c, 0, 67, 71
1, 222001, Control_c, 0, 67, 77
1, 222016, Control_c, 0, 67, 81
1, 222031, Control_c, 0, 64, 56
1, 222031, Control_c, 0, 67, 82
1, 222062, Control_c, 0, 64, 56
1, 222091, Control_c, 0, 67, 83
1, 222118, Note_on_c, 0, 53, 47
1, 222121, Control_c, 0, 64, 55
1, 222146, Note_off_c, 0, 53, 62
1, 222151, Control_c, 0, 64, 55
1, 222180, Control_c, 0, 67, 82
1, 222195, Control_c, 0, 64, 54
1, 222195, Control_c, 0, 67, 81
1, 222225, Control_c, 0, 67, 81
1, 222240, Control_c, 0, 67, 80
1, 222255, Control_c, 0, 64, 54
1, 222289, Note_on_c, 0, 53, 50
1, 222322, Note_off_c, 0, 53, 62
1, 222329, Control_c, 0, 64, 53
1, 222329, Control_c, 0, 67, 79
1, 222373, Control_c, 0, 67, 79
1, 222403, Control_c, 0, 67, 78
1, 222417, Control_c, 0, 67, 77
1, 222432, Control_c, 0, 67, 77
1, 222447, Control_c, 0, 67, 76
1, 222461, Control_c, 0, 67, 75
1, 222476, Control_c, 0, 64, 53
1, 222478, Note_on_c, 0, 70, 63
1, 222490, Note_on_c, 0, 67, 49
1, 222491, Control_c, 0, 67, 75
1, 222500, Note_on_c, 0, 53, 37
1, 222506, Control_c, 0, 67, 74
1, 222514, Note_off_c, 0, 65, 38
1, 222520, Control_c, 0, 67, 73
1, 222523, Note_off_c, 0, 69, 38
1, 222532, Note_off_c, 0, 53, 57
1, 222535, Control_c, 0, 67, 73
1, 222580, Control_c, 0, 67, 72
1, 222616, Control_c, 0, 64, 52
1, 222675, Control_c, 0, 64, 52
1, 222683, Note_on_c, 0, 53, 37
1, 222717, Note_off_c, 0, 53, 55
1, 222765, Control_c, 0, 64, 51
1, 222779, Control_c, 0, 67, 73
1, 222824, Control_c, 0, 67, 73
1, 222854, Control_c, 0, 64, 51
1, 222854, Control_c, 0, 67, 74
1, 222882, Note_on_c, 0, 71, 50
1, 222884, Note_on_c, 0, 68, 50
1, 222884, Control_c, 0, 67, 75
1, 222887, Note_off_c, 0, 70, 56
1, 222899, Note_on_c, 0, 53, 31
1, 222899, Control_c, 0, 67, 75
1, 222929, Control_c, 0, 67, 76
1, 222943, Note_off_c, 0, 53, 59
1, 222950, Note_off_c, 0, 67, 50
1, 222973, Control_c, 0, 67, 77
1, 222988, Control_c, 0, 64, 50
1, 223003, Control_c, 0, 67, 77
1, 223033, Control_c, 0, 67, 78
1, 223047, Control_c, 0, 67, 79
1, 223062, Control_c, 0, 67, 79
1, 223076, Note_on_c, 0, 53, 36
1, 223077, Control_c, 0, 67, 80
1, 223091, Control_c, 0, 67, 81
1, 223106, Control_c, 0, 67, 83
1, 223120, Note_off_c, 0, 53, 60
1, 223121, Control_c, 0, 67, 84
1, 223136, Control_c, 0, 64, 50
1, 223136, Control_c, 0, 67, 85
1, 223151, Control_c, 0, 67, 86
1, 223165, Control_c, 0, 67, 88
1, 223180, Control_c, 0, 67, 90
1, 223195, Control_c, 0, 67, 111
1, 223210, Control_c, 0, 64, 49
1, 223210, Control_c, 0, 67, 127
1, 223284, Control_c, 0, 64, 49
1, 223343, Control_c, 0, 64, 48
1, 223380, Note_on_c, 0, 72, 37
1, 223388, Note_on_c, 0, 69, 39
1, 223395, Control_c, 0, 64, 48
1, 223410, Note_on_c, 0, 53, 24
1, 223439, Control_c, 0, 64, 47
1, 223447, Note_off_c, 0, 68, 38
1, 223453, Note_off_c, 0, 71, 36
1, 223464, Note_off_c, 0, 69, 61
1, 223473, Note_off_c, 0, 72, 61
1, 223513, Control_c, 0, 64, 47
1, 223775, Note_on_c, 0, 81, 49
1, 223798, Note_off_c, 0, 81, 57
1, 223821, Note_off_c, 0, 41, 41
1, 223834, Note_off_c, 0, 53, 48
1, 223838, Note_on_c, 0, 82, 50
1, 223871, Note_on_c, 0, 81, 64
1, 223879, Note_off_c, 0, 82, 60
1, 223885, Control_c, 0, 64, 46
1, 223900, Control_c, 0, 64, 46
1, 223914, Control_c, 0, 64, 45
1, 223929, Control_c, 0, 64, 44
1, 223933, Note_off_c, 0, 81, 62
1, 223944, Control_c, 0, 64, 43
1, 223954, Note_on_c, 0, 79, 59
1, 223959, Control_c, 0, 64, 42
1, 223974, Control_c, 0, 64, 41
1, 223981, Note_off_c, 0, 79, 65
1, 223988, Control_c, 0, 64, 39
1, 224003, Control_c, 0, 64, 37
1, 224004, Note_on_c, 0, 81, 63
1, 224018, Control_c, 0, 64, 34
1, 224033, Control_c, 0, 64, 30
1, 224040, Note_off_c, 0, 81, 62
1, 224047, Note_on_c, 0, 79, 67
1, 224047, Control_c, 0, 64, 0
1, 224098, Note_off_c, 0, 79, 63
1, 224108, Note_on_c, 0, 77, 68
1, 224140, Note_off_c, 0, 77, 68
1, 224169, Note_on_c, 0, 79, 62
1, 224206, Note_off_c, 0, 79, 65
1, 224224, Note_on_c, 0, 77, 74
1, 224248, Note_off_c, 0, 77, 65
1, 224263, Note_on_c, 0, 76, 71
1, 224290, Note_off_c, 0, 76, 64
1, 224331, Note_on_c, 0, 77, 70
1, 224358, Note_off_c, 0, 77, 65
1, 224380, Note_on_c, 0, 76, 69
1, 224408, Note_off_c, 0, 76, 65
1, 224425, Note_on_c, 0, 74, 66
1, 224454, Note_off_c, 0, 74, 64
1, 224477, Note_on_c, 0, 76, 63
1, 224511, Note_off_c, 0, 76, 59
1, 224522, Note_on_c, 0, 74, 74
1, 224557, Note_off_c, 0, 74, 62
1, 224574, Note_on_c, 0, 72, 50
1, 224596, Note_off_c, 0, 72, 59
1, 224729, Note_on_c, 0, 72, 67
1, 224734, Note_on_c, 0, 52, 51
1, 224768, Note_off_c, 0, 52, 64
1, 224774, Note_off_c, 0, 72, 63
1, 224782, Note_on_c, 0, 70, 68
1, 224814, Note_off_c, 0, 70, 65
1, 224838, Note_on_c, 0, 69, 67
1, 224884, Note_on_c, 0, 70, 76
1, 224886, Note_off_c, 0, 69, 63
1, 224928, Note_on_c, 0, 67, 67
1, 224930, Note_on_c, 0, 60, 60
1, 224932, Note_off_c, 0, 70, 63
1, 224952, Note_off_c, 0, 67, 69
1, 224960, Note_off_c, 0, 60, 66
1, 225089, Note_on_c, 0, 70, 61
1, 225102, Note_on_c, 0, 53, 60
1, 225118, Note_off_c, 0, 70, 67
1, 225122, Note_on_c, 0, 69, 67
1, 225134, Note_off_c, 0, 53, 63
1, 225146, Note_off_c, 0, 69, 69
1, 225169, Note_on_c, 0, 67, 73
1, 225188, Control_c, 0, 67, 83
1, 225203, Control_c, 0, 67, 0
1, 225214, Note_off_c, 0, 67, 62
1, 225218, Note_on_c, 0, 69, 77
1, 225248, Note_off_c, 0, 69, 63
1, 225259, Note_on_c, 0, 65, 72
1, 225280, Note_on_c, 0, 60, 50
1, 225285, Note_off_c, 0, 65, 65
1, 225307, Note_off_c, 0, 60, 64
1, 225432, Note_on_c, 0, 79, 69
1, 225447, Note_on_c, 0, 57, 52
1, 225474, Note_off_c, 0, 57, 63
1, 225481, Note_off_c, 0, 79, 63
1, 225487, Note_on_c, 0, 77, 72
1, 225515, Note_off_c, 0, 77, 66
1, 225534, Note_on_c, 0, 76, 72
1, 225579, Note_off_c, 0, 76, 61
1, 225581, Note_on_c, 0, 77, 71
1, 225618, Note_off_c, 0, 77, 65
1, 225623, Note_on_c, 0, 74, 74
1, 225638, Note_on_c, 0, 65, 45
1, 225662, Note_off_c, 0, 74, 60
1, 225675, Note_off_c, 0, 65, 61
1, 225819, Note_on_c, 0, 84, 60
1, 225820, Note_on_c, 0, 58, 42
1, 225849, Note_off_c, 0, 58, 59
1, 225849, Note_off_c, 0, 84, 66
1, 225867, Note_on_c, 0, 82, 56
1, 225895, Note_off_c, 0, 82, 68
1, 225915, Note_on_c, 0, 81, 67
1, 225956, Note_off_c, 0, 81, 63
1, 225966, Note_on_c, 0, 82, 77
1, 226008, Note_on_c, 0, 67, 46
1, 226022, Note_on_c, 0, 79, 60
1, 226022, Note_off_c, 0, 82, 64
1, 226064, Note_off_c, 0, 79, 65
1, 226074, Note_off_c, 0, 67, 58
1, 226208, Note_on_c, 0, 88, 68
1, 226225, Note_on_c, 0, 59, 39
1, 226258, Note_off_c, 0, 88, 62
1, 226264, Note_on_c, 0, 86, 60
1, 226303, Note_off_c, 0, 59, 61
1, 226311, Note_off_c, 0, 86, 64
1, 226324, Control_c, 0, 67, 53
1, 226329, Note_on_c, 0, 85, 65
1, 226339, Control_c, 0, 67, 63
1, 226361, Control_c, 0, 67, 70
1, 226376, Control_c, 0, 67, 75
1, 226390, Control_c, 0, 67, 81
1, 226395, Note_off_c, 0, 85, 63
1, 226397, Note_on_c, 0, 86, 60
1, 226405, Control_c, 0, 67, 90
1, 226420, Control_c, 0, 67, 96
1, 226456, Note_off_c, 0, 86, 64
1, 226511, Note_on_c, 0, 76, 50
1, 226527, Note_on_c, 0, 60, 35
1, 226607, Note_off_c, 0, 76, 50
1, 226622, Note_on_c, 0, 84, 68
1, 226717, Note_on_c, 0, 83, 69
1, 226732, Note_off_c, 0, 84, 57
1, 226760, Control_c, 0, 67, 98
1, 226800, Note_on_c, 0, 82, 72
1, 226814, Note_off_c, 0, 83, 57
1, 226892, Note_on_c, 0, 81, 78
1, 226893, Note_off_c, 0, 82, 63
1, 226958, Note_off_c, 0, 81, 55
1, 226979, Note_on_c, 0, 80, 75
1, 227043, Control_c, 0, 67, 100
1, 227060, Note_off_c, 0, 80, 65
1, 227060, Note_on_c, 0, 79, 71
1, 227137, Note_off_c, 0, 79, 61
1, 227145, Note_off_c, 0, 60, 48
1, 227148, Note_on_c, 0, 78, 75
1, 227198, Control_c, 0, 64, 34
1, 227198, Control_c, 0, 67, 102
1, 227213, Control_c, 0, 64, 39
1, 227228, Control_c, 0, 64, 43
1, 227228, Control_c, 0, 67, 104
1, 227233, Note_on_c, 0, 77, 75
1, 227234, Note_off_c, 0, 78, 59
1, 227243, Control_c, 0, 64, 45
1, 227257, Control_c, 0, 64, 47
1, 227257, Control_c, 0, 67, 119
1, 227272, Control_c, 0, 64, 48
1, 227272, Control_c, 0, 67, 127
1, 227287, Control_c, 0, 64, 49
1, 227299, Note_off_c, 0, 77, 62
1, 227317, Control_c, 0, 64, 49
1, 227319, Note_on_c, 0, 76, 74
1, 227367, Note_off_c, 0, 76, 62
1, 227415, Note_on_c, 0, 75, 68
1, 227451, Control_c, 0, 64, 49
1, 227475, Note_off_c, 0, 75, 64
1, 227495, Control_c, 0, 64, 48
1, 227500, Note_on_c, 0, 74, 68
1, 227529, Note_off_c, 0, 74, 64
1, 227539, Control_c, 0, 64, 48
1, 227554, Control_c, 0, 64, 47
1, 227569, Control_c, 0, 64, 46
1, 227583, Control_c, 0, 64, 45
1, 227598, Control_c, 0, 64, 43
1, 227599, Note_on_c, 0, 73, 63
1, 227613, Control_c, 0, 64, 42
1, 227623, Note_off_c, 0, 73, 67
1, 227628, Control_c, 0, 64, 40
1, 227644, Control_c, 0, 64, 38
1, 227659, Control_c, 0, 64, 37
1, 227674, Control_c, 0, 64, 36
1, 227688, Control_c, 0, 64, 36
1, 227692, Note_on_c, 0, 72, 63
1, 227729, Note_off_c, 0, 72, 58
1, 227784, Note_on_c, 0, 71, 63
1, 227811, Note_off_c, 0, 71, 66
1, 227886, Note_on_c, 0, 70, 63
1, 227914, Note_off_c, 0, 70, 69
1, 227977, Control_c, 0, 64, 36
1, 228007, Control_c, 0, 64, 37
1, 228036, Control_c, 0, 64, 37
1, 228057, Note_on_c, 0, 69, 59
1, 228080, Control_c, 0, 64, 38
1, 228095, Control_c, 0, 64, 38
1, 228100, Note_on_c, 0, 53, 34
1, 228110, Control_c, 0, 64, 39
1, 228140, Control_c, 0, 64, 39
1, 228154, Control_c, 0, 64, 40
1, 228169, Control_c, 0, 64, 41
1, 228184, Control_c, 0, 64, 42
1, 228199, Control_c, 0, 64, 43
1, 228214, Control_c, 0, 64, 44
1, 228229, Control_c, 0, 64, 45
1, 228243, Control_c, 0, 64, 46
1, 228243, Control_c, 0, 67, 118
1, 228258, Control_c, 0, 64, 46
1, 228258, Control_c, 0, 67, 84
1, 228272, Note_on_c, 0, 65, 48
1, 228273, Control_c, 0, 64, 47
1, 228273, Control_c, 0, 67, 40
1, 228288, Control_c, 0, 64, 47
1, 228288, Control_c, 0, 67, 0
1, 228303, Control_c, 0, 64, 48
1, 228307, Note_off_c, 0, 65, 61
1, 228333, Control_c, 0, 64, 48
1, 228392, Control_c, 0, 64, 49
1, 228452, Control_c, 0, 64, 48
1, 228467, Note_on_c, 0, 65, 44
1, 228495, Note_off_c, 0, 65, 55
1, 228527, Control_c, 0, 64, 48
1, 228556, Control_c, 0, 64, 47
1, 228571, Control_c, 0, 64, 45
1, 228586, Control_c, 0, 64, 43
1, 228601, Control_c, 0, 64, 40
1, 228623, Control_c, 0, 64, 34
1, 228637, Note_on_c, 0, 65, 44
1, 228637, Control_c, 0, 64, 0
1, 228682, Note_off_c, 0, 65, 59
1, 228741, Control_c, 0, 67, 52
1, 228756, Control_c, 0, 67, 75
1, 228771, Control_c, 0, 67, 98
1, 228786, Control_c, 0, 67, 119
1, 228801, Control_c, 0, 67, 127
1, 228842, Note_on_c, 0, 70, 51
1, 228843, Note_on_c, 0, 67, 49
1, 228856, Note_on_c, 0, 65, 36
1, 228878, Note_off_c, 0, 69, 47
1, 228899, Note_off_c, 0, 65, 49
1, 229032, Note_on_c, 0, 65, 41
1, 229075, Note_off_c, 0, 65, 57
1, 229223, Note_off_c, 0, 70, 58
1, 229234, Note_on_c, 0, 71, 48
1, 229245, Note_on_c, 0, 65, 35
1, 229246, Note_on_c, 0, 68, 45
1, 229292, Note_off_c, 0, 65, 51
1, 229309, Note_off_c, 0, 67, 51
1, 229457, Note_on_c, 0, 65, 36
1, 229516, Note_off_c, 0, 65, 49
1, 229695, Note_on_c, 0, 69, 33
1, 229702, Note_on_c, 0, 72, 36
1, 229714, Note_on_c, 0, 65, 23
1, 229721, Note_off_c, 0, 71, 33
1, 229731, Note_off_c, 0, 68, 45
1, 229772, Note_off_c, 0, 72, 61
1, 229773, Note_off_c, 0, 69, 63
1, 230077, Note_on_c, 0, 81, 48
1, 230110, Note_off_c, 0, 81, 57
1, 230147, Note_on_c, 0, 82, 47
1, 230148, Note_off_c, 0, 53, 56
1, 230166, Note_off_c, 0, 65, 48
1, 230188, Note_off_c, 0, 82, 60
1, 230190, Note_on_c, 0, 81, 65
1, 230245, Note_off_c, 0, 81, 61
1, 230273, Note_on_c, 0, 79, 57
1, 230296, Note_off_c, 0, 79, 65
1, 230330, Note_on_c, 0, 81, 54
1, 230363, Note_off_c, 0, 81, 66
1, 230375, Note_on_c, 0, 79, 60
1, 230427, Note_off_c, 0, 79, 62
1, 230448, Note_on_c, 0, 77, 59
1, 230467, Note_off_c, 0, 77, 64
1, 230505, Note_on_c, 0, 79, 51
1, 230539, Note_off_c, 0, 79, 64
1, 230548, Note_on_c, 0, 77, 65
1, 230603, Note_off_c, 0, 77, 63
1, 230619, Note_on_c, 0, 76, 55
1, 230639, Note_off_c, 0, 76, 62
1, 230673, Note_on_c, 0, 77, 54
1, 230709, Note_off_c, 0, 77, 63
1, 230724, Note_on_c, 0, 76, 58
1, 230758, Note_off_c, 0, 76, 64
1, 230780, Note_on_c, 0, 74, 58
1, 230807, Note_off_c, 0, 74, 59
1, 230842, Note_on_c, 0, 76, 60
1, 230882, Note_off_c, 0, 76, 65
1, 230909, Note_on_c, 0, 74, 58
1, 230944, Note_off_c, 0, 74, 64
1, 230981, Note_on_c, 0, 72, 30
1, 231010, Note_off_c, 0, 72, 45
1, 231170, Note_on_c, 0, 74, 64
1, 231192, Note_on_c, 0, 64, 43
1, 231201, Note_off_c, 0, 74, 60
1, 231224, Note_on_c, 0, 73, 54
1, 231244, Note_off_c, 0, 73, 63
1, 231287, Note_on_c, 0, 71, 56
1, 231314, Note_off_c, 0, 71, 59
1, 231316, Note_on_c, 0, 73, 66
1, 231338, Note_off_c, 0, 64, 58
1, 231361, Note_on_c, 0, 74, 78
1, 231364, Note_off_c, 0, 73, 62
1, 231366, Note_on_c, 0, 65, 49
1, 231382, Note_off_c, 0, 74, 71
1, 231392, Note_off_c, 0, 65, 59
1, 231530, Note_on_c, 0, 77, 79
1, 231545, Note_on_c, 0, 61, 55
1, 231580, Note_off_c, 0, 77, 65
1, 231586, Note_on_c, 0, 76, 69
1, 231621, Note_off_c, 0, 76, 66
1, 231640, Note_on_c, 0, 74, 74
1, 231674, Note_off_c, 0, 74, 63
1, 231684, Note_on_c, 0, 76, 79
1, 231701, Note_off_c, 0, 61, 58
1, 231720, Note_on_c, 0, 62, 60
1, 231727, Note_on_c, 0, 77, 76
1, 231734, Note_off_c, 0, 76, 65
1, 231747, Note_off_c, 0, 77, 72
1, 231753, Note_off_c, 0, 62, 62
1, 231904, Note_on_c, 0, 81, 80
1, 231928, Note_on_c, 0, 64, 43
1, 231956, Note_off_c, 0, 81, 62
1, 231961, Note_on_c, 0, 79, 71
1, 231987, Note_off_c, 0, 79, 61
1, 232004, Note_on_c, 0, 77, 77
1, 232053, Note_on_c, 0, 79, 73
1, 232054, Note_off_c, 0, 77, 64
1, 232097, Note_off_c, 0, 64, 60
1, 232102, Note_on_c, 0, 81, 85
1, 232111, Note_off_c, 0, 79, 65
1, 232127, Note_off_c, 0, 81, 64
1, 232133, Note_on_c, 0, 65, 55
1, 232295, Note_on_c, 0, 88, 73
1, 232300, Note_off_c, 0, 65, 63
1, 232342, Note_off_c, 0, 88, 64
1, 232356, Note_on_c, 0, 86, 68
1, 232378, Note_off_c, 0, 86, 68
1, 232397, Note_on_c, 0, 85, 74
1, 232448, Note_on_c, 0, 86, 71
1, 232454, Note_off_c, 0, 85, 65
1, 232491, Note_on_c, 0, 89, 84
1, 232503, Note_off_c, 0, 86, 65
1, 232524, Note_off_c, 0, 89, 65
1, 232680, Note_on_c, 0, 83, 74
1, 232695, Note_on_c, 0, 77, 50
1, 232701, Note_on_c, 0, 55, 55
1, 232721, Note_off_c, 0, 77, 52
1, 232726, Note_off_c, 0, 83, 63
1, 232742, Note_on_c, 0, 84, 77
1, 232755, Note_off_c, 0, 55, 55
1, 232806, Note_off_c, 0, 84, 65
1, 232808, Note_on_c, 0, 83, 76
1, 232846, Note_off_c, 0, 83, 63
1, 232853, Note_on_c, 0, 81, 74
1, 232921, Note_off_c, 0, 81, 62
1, 232923, Note_on_c, 0, 83, 69
1, 233043, Note_off_c, 0, 83, 60
1, 233044, Note_on_c, 0, 86, 65
1, 233058, Note_on_c, 0, 48, 46
1, 233067, Note_on_c, 0, 77, 47
1, 233200, Note_on_c, 0, 55, 41
1, 233290, Note_off_c, 0, 55, 60
1, 233321, Note_on_c, 0, 54, 48
1, 233398, Note_off_c, 0, 54, 62
1, 233412, Note_on_c, 0, 55, 53
1, 233484, Note_off_c, 0, 55, 58
1, 233506, Note_on_c, 0, 56, 58
1, 233506, Note_off_c, 0, 48, 57
1, 233565, Note_off_c, 0, 56, 60
1, 233593, Note_on_c, 0, 57, 52
1, 233672, Note_off_c, 0, 57, 57
1, 233701, Note_on_c, 0, 58, 46
1, 233730, Note_off_c, 0, 77, 54
1, 233742, Note_off_c, 0, 58, 65
1, 233796, Note_on_c, 0, 59, 46
1, 233888, Note_off_c, 0, 59, 55
1, 233979, Note_on_c, 0, 84, 42
1, 233986, Note_on_c, 0, 76, 36
1, 234008, Note_on_c, 0, 60, 36
1, 234028, Control_c, 0, 67, 119
1, 234043, Control_c, 0, 67, 102
1, 234057, Control_c, 0, 67, 85
1, 234072, Control_c, 0, 67, 70
1, 234087, Control_c, 0, 67, 55
1, 234093, Note_off_c, 0, 86, 38
1, 234102, Control_c, 0, 67, 38
1, 234117, Control_c, 0, 67, 0
1, 234264, Note_off_c, 0, 84, 36
1, 234317, Note_off_c, 0, 76, 44
1, 234387, Note_off_c, 0, 60, 36
1, 234849, Control_c, 0, 64, 31
1, 234864, Control_c, 0, 64, 35
1, 234879, Control_c, 0, 64, 40
1, 234894, Control_c, 0, 64, 44
1, 234909, Control_c, 0, 64, 50
1, 234924, Control_c, 0, 64, 54
1, 234925, Note_on_c, 0, 67, 58
1, 234939, Control_c, 0, 64, 56
1, 234944, Note_on_c, 0, 64, 45
1, 234951, Note_on_c, 0, 48, 44
1, 234953, Control_c, 0, 64, 57
1, 234968, Control_c, 0, 64, 58
1, 234983, Control_c, 0, 64, 59
1, 234997, Control_c, 0, 64, 60
1, 235012, Control_c, 0, 64, 62
1, 235027, Control_c, 0, 64, 63
1, 235037, Note_off_c, 0, 48, 57
1, 235042, Control_c, 0, 64, 63
1, 235057, Control_c, 0, 64, 64
1, 235071, Control_c, 0, 64, 64
1, 235086, Control_c, 0, 64, 65
1, 235100, Note_on_c, 0, 60, 45
1, 235101, Control_c, 0, 64, 65
1, 235131, Control_c, 0, 64, 66
1, 235204, Control_c, 0, 64, 65
1, 235210, Note_on_c, 0, 59, 70
1, 235219, Control_c, 0, 64, 61
1, 235222, Note_off_c, 0, 60, 57
1, 235234, Control_c, 0, 64, 53
1, 235250, Control_c, 0, 64, 45
1, 235265, Control_c, 0, 64, 45
1, 235279, Control_c, 0, 64, 51
1, 235294, Control_c, 0, 64, 59
1, 235309, Control_c, 0, 64, 63
1, 235311, Note_off_c, 0, 59, 63
1, 235323, Control_c, 0, 64, 63
1, 235338, Control_c, 0, 64, 57
1, 235351, Note_on_c, 0, 60, 57
1, 235361, Control_c, 0, 64, 45
1, 235376, Control_c, 0, 64, 35
1, 235391, Control_c, 0, 64, 33
1, 235405, Control_c, 0, 64, 34
1, 235420, Control_c, 0, 64, 41
1, 235423, Note_off_c, 0, 60, 59
1, 235425, Note_on_c, 0, 58, 75
1, 235435, Control_c, 0, 64, 48
1, 235450, Control_c, 0, 64, 53
1, 235465, Control_c, 0, 64, 55
1, 235479, Control_c, 0, 64, 56
1, 235523, Note_on_c, 0, 60, 70
1, 235523, Control_c, 0, 64, 56
1, 235529, Note_off_c, 0, 58, 58
1, 235538, Control_c, 0, 64, 58
1, 235553, Control_c, 0, 64, 58
1, 235583, Control_c, 0, 64, 59
1, 235600, Note_off_c, 0, 60, 61
1, 235606, Note_on_c, 0, 57, 75
1, 235643, Control_c, 0, 64, 58
1, 235682, Note_on_c, 0, 60, 63
1, 235693, Note_off_c, 0, 57, 62
1, 235732, Control_c, 0, 64, 58
1, 235746, Control_c, 0, 64, 57
1, 235761, Control_c, 0, 64, 56
1, 235776, Control_c, 0, 64, 54
1, 235786, Note_on_c, 0, 68, 72
1, 235790, Note_on_c, 0, 56, 75
1, 235791, Control_c, 0, 64, 49
1, 235792, Note_on_c, 0, 65, 64
1, 235792, Note_off_c, 0, 64, 64
1, 235802, Note_off_c, 0, 60, 63
1, 235806, Control_c, 0, 64, 41
1, 235821, Control_c, 0, 64, 0
1, 235839, Note_off_c, 0, 67, 59
1, 235866, Note_off_c, 0, 56, 62
1, 235866, Control_c, 0, 64, 30
1, 235881, Control_c, 0, 64, 38
1, 235882, Note_on_c, 0, 60, 69
1, 235895, Control_c, 0, 64, 44
1, 235910, Control_c, 0, 64, 48
1, 235925, Control_c, 0, 64, 50
1, 235967, Note_on_c, 0, 55, 72
1, 235967, Note_off_c, 0, 60, 62
1, 235999, Control_c, 0, 64, 49
1, 236014, Control_c, 0, 64, 49
1, 236028, Control_c, 0, 64, 47
1, 236043, Control_c, 0, 64, 42
1, 236044, Note_off_c, 0, 55, 64
1, 236044, Note_on_c, 0, 60, 67
1, 236058, Control_c, 0, 64, 34
1, 236073, Control_c, 0, 64, 0
1, 236150, Note_on_c, 0, 69, 74
1, 236152, Note_on_c, 0, 54, 72
1, 236154, Control_c, 0, 64, 30
1, 236163, Note_on_c, 0, 66, 68
1, 236166, Note_off_c, 0, 60, 64
1, 236169, Control_c, 0, 64, 41
1, 236184, Control_c, 0, 64, 51
1, 236199, Control_c, 0, 64, 58
1, 236214, Control_c, 0, 64, 61
1, 236228, Control_c, 0, 64, 62
1, 236230, Note_off_c, 0, 54, 62
1, 236234, Note_off_c, 0, 68, 55
1, 236238, Note_on_c, 0, 60, 65
1, 236243, Control_c, 0, 64, 63
1, 236258, Control_c, 0, 64, 64
1, 236273, Control_c, 0, 64, 65
1, 236288, Control_c, 0, 64, 66
1, 236302, Control_c, 0, 64, 66
1, 236310, Note_off_c, 0, 66, 64
1, 236315, Note_off_c, 0, 65, 47
1, 236318, Note_off_c, 0, 60, 62
1, 236330, Note_on_c, 0, 53, 78
1, 236357, Note_off_c, 0, 69, 62
1, 236405, Note_off_c, 0, 53, 62
1, 236420, Note_on_c, 0, 60, 71
1, 236466, Control_c, 0, 64, 66
1, 236481, Control_c, 0, 64, 65
1, 236496, Control_c, 0, 64, 64
1, 236511, Control_c, 0, 64, 63
1, 236521, Note_on_c, 0, 67, 59
1, 236522, Note_on_c, 0, 70, 62
1, 236525, Control_c, 0, 64, 60
1, 236536, Note_on_c, 0, 52, 67
1, 236540, Control_c, 0, 64, 54
1, 236555, Control_c, 0, 64, 47
1, 236567, Note_off_c, 0, 67, 60
1, 236569, Control_c, 0, 64, 40
1, 236584, Control_c, 0, 64, 33
1, 236599, Control_c, 0, 64, 0
1, 236601, Note_off_c, 0, 70, 63
1, 236615, Note_on_c, 0, 79, 70
1, 236702, Note_on_c, 0, 78, 78
1, 236706, Note_off_c, 0, 79, 62
1, 236775, Note_on_c, 0, 79, 74
1, 236788, Note_off_c, 0, 78, 60
1, 236867, Note_on_c, 0, 77, 83
1, 236873, Note_off_c, 0, 79, 62
1, 236945, Note_on_c, 0, 79, 76
1, 236957, Note_off_c, 0, 77, 61
1, 237025, Note_on_c, 0, 76, 83
1, 237025, Note_off_c, 0, 79, 64
1, 237102, Note_off_c, 0, 76, 65
1, 237110, Note_on_c, 0, 79, 80
1, 237194, Note_off_c, 0, 79, 61
1, 237196, Note_on_c, 0, 74, 83
1, 237261, Note_off_c, 0, 74, 59
1, 237275, Note_on_c, 0, 79, 75
1, 237353, Note_off_c, 0, 79, 63
1, 237362, Note_on_c, 0, 73, 74
1, 237439, Note_on_c, 0, 79, 76
1, 237447, Note_off_c, 0, 73, 60
1, 237508, Note_off_c, 0, 79, 63
1, 237525, Note_on_c, 0, 72, 80
1, 237570, Control_c, 0, 64, 38
1, 237592, Control_c, 0, 64, 53
1, 237606, Control_c, 0, 64, 60
1, 237612, Note_off_c, 0, 72, 61
1, 237614, Note_on_c, 0, 76, 79
1, 237621, Control_c, 0, 64, 61
1, 237636, Control_c, 0, 64, 62
1, 237651, Control_c, 0, 64, 64
1, 237666, Control_c, 0, 64, 66
1, 237681, Control_c, 0, 64, 67
1, 237687, Note_off_c, 0, 76, 62
1, 237690, Note_on_c, 0, 79, 76
1, 237696, Control_c, 0, 64, 69
1, 237711, Control_c, 0, 64, 69
1, 237728, Note_off_c, 0, 60, 58
1, 237730, Note_off_c, 0, 52, 52
1, 237755, Control_c, 0, 64, 70
1, 237766, Note_off_c, 0, 79, 64
1, 237776, Note_on_c, 0, 82, 73
1, 237844, Control_c, 0, 64, 69
1, 237873, Control_c, 0, 64, 69
1, 237888, Control_c, 0, 64, 68
1, 237889, Note_off_c, 0, 82, 59
1, 237895, Note_on_c, 0, 81, 70
1, 237903, Control_c, 0, 64, 66
1, 237909, Note_on_c, 0, 60, 51
1, 237914, Note_on_c, 0, 53, 50
1, 237917, Control_c, 0, 64, 63
1, 237932, Control_c, 0, 64, 58
1, 237947, Control_c, 0, 64, 51
1, 237962, Control_c, 0, 64, 40
1, 237977, Control_c, 0, 64, 0
1, 237980, Note_off_c, 0, 81, 62
1, 237987, Note_on_c, 0, 77, 71
1, 238077, Note_on_c, 0, 78, 72
1, 238081, Note_off_c, 0, 77, 60
1, 238147, Note_on_c, 0, 79, 67
1, 238161, Note_off_c, 0, 78, 59
1, 238170, Control_c, 0, 64, 34
1, 238185, Control_c, 0, 64, 46
1, 238200, Control_c, 0, 64, 57
1, 238215, Control_c, 0, 64, 61
1, 238228, Note_off_c, 0, 79, 62
1, 238229, Note_on_c, 0, 80, 76
1, 238229, Control_c, 0, 64, 62
1, 238245, Control_c, 0, 64, 64
1, 238260, Control_c, 0, 64, 65
1, 238275, Control_c, 0, 64, 68
1, 238283, Note_off_c, 0, 80, 64
1, 238289, Control_c, 0, 64, 70
1, 238304, Note_on_c, 0, 81, 80
1, 238304, Control_c, 0, 64, 72
1, 238319, Control_c, 0, 64, 73
1, 238341, Control_c, 0, 64, 74
1, 238356, Control_c, 0, 64, 74
1, 238371, Control_c, 0, 64, 75
1, 238382, Note_off_c, 0, 81, 56
1, 238394, Note_on_c, 0, 82, 73
1, 238415, Control_c, 0, 64, 75
1, 238430, Control_c, 0, 64, 76
1, 238445, Control_c, 0, 64, 79
1, 238459, Note_off_c, 0, 82, 62
1, 238460, Control_c, 0, 64, 81
1, 238482, Note_on_c, 0, 83, 78
1, 238488, Poly_aftertouch_c, 0, 81, 0
1, 238489, Control_c, 0, 64, 78
1, 238504, Control_c, 0, 64, 68
1, 238519, Control_c, 0, 64, 50
1, 238534, Control_c, 0, 64, 0
1, 238540, Note_off_c, 0, 60, 63
1, 238543, Note_off_c, 0, 53, 62
1, 238554, Note_on_c, 0, 84, 77
1, 238569, Note_off_c, 0, 83, 58
1, 238635, Note_off_c, 0, 84, 63
1, 238635, Note_on_c, 0, 85, 78
1, 238712, Control_c, 0, 64, 28
1, 238714, Note_off_c, 0, 85, 64
1, 238718, Note_on_c, 0, 88, 74
1, 238727, Control_c, 0, 64, 31
1, 238741, Control_c, 0, 64, 33
1, 238756, Control_c, 0, 64, 34
1, 238797, Note_on_c, 0, 86, 75
1, 238813, Note_off_c, 0, 88, 63
1, 238846, Control_c, 0, 64, 33
1, 238888, Note_on_c, 0, 84, 73
1, 238892, Note_on_c, 0, 70, 48
1, 238896, Note_off_c, 0, 86, 62
1, 238901, Note_on_c, 0, 58, 46
1, 238906, Control_c, 0, 67, 40
1, 238920, Control_c, 0, 67, 62
1, 238935, Control_c, 0, 67, 81
1, 238950, Control_c, 0, 67, 97
1, 238964, Control_c, 0, 64, 34
1, 238964, Control_c, 0, 67, 108
1, 238978, Note_off_c, 0, 84, 63
1, 238979, Control_c, 0, 67, 119
1, 238980, Note_on_c, 0, 82, 69
1, 238994, Control_c, 0, 67, 127
1, 239012, Note_off_c, 0, 70, 63
1, 239019, Note_off_c, 0, 58, 63
1, 239038, Control_c, 0, 64, 33
1, 239049, Note_off_c, 0, 82, 61
1, 239068, Note_on_c, 0, 81, 69
1, 239120, Control_c, 0, 64, 33
1, 239155, Note_on_c, 0, 79, 66
1, 239162, Note_off_c, 0, 81, 57
1, 239194, Control_c, 0, 64, 32
1, 239239, Control_c, 0, 64, 32
1, 239262, Note_on_c, 0, 77, 69
1, 239294, Note_on_c, 0, 60, 41
1, 239296, Note_off_c, 0, 79, 54
1, 239376, Note_on_c, 0, 69, 50
1, 239446, Note_off_c, 0, 69, 60
1, 239478, Note_on_c, 0, 68, 51
1, 239525, Note_off_c, 0, 68, 60
1, 239562, Note_on_c, 0, 69, 60
1, 239619, Note_off_c, 0, 69, 46
1, 239652, Note_on_c, 0, 68, 59
1, 239693, Note_off_c, 0, 68, 62
1, 239699, Control_c, 0, 64, 30
1, 239737, Note_on_c, 0, 69, 63
1, 239758, Control_c, 0, 64, 0
1, 239777, Note_off_c, 0, 69, 56
1, 239824, Note_on_c, 0, 68, 52
1, 239871, Note_off_c, 0, 68, 64
1, 239903, Note_on_c, 0, 69, 53
1, 239964, Note_off_c, 0, 69, 45
1, 240013, Note_on_c, 0, 76, 47
1, 240017, Control_c, 0, 64, 40
1, 240018, Note_on_c, 0, 67, 47
1, 240032, Control_c, 0, 64, 56
1, 240044, Note_off_c, 0, 67, 61
1, 240047, Control_c, 0, 64, 63
1, 240061, Note_off_c, 0, 77, 55
1, 240062, Control_c, 0, 64, 65
1, 240076, Control_c, 0, 64, 67
1, 240084, Note_off_c, 0, 60, 58
1, 240091, Control_c, 0, 64, 69
1, 240106, Note_off_c, 0, 76, 59
1, 240106, Control_c, 0, 64, 70
1, 240106, Control_c, 0, 67, 105
1, 240120, Control_c, 0, 64, 69
1, 240120, Control_c, 0, 67, 0
1, 240135, Control_c, 0, 64, 63
1, 240150, Control_c, 0, 64, 41
1, 240165, Control_c, 0, 64, 0
1, 240200, Note_on_c, 0, 58, 77
1, 240280, Note_off_c, 0, 58, 59
1, 240281, Note_on_c, 0, 62, 74
1, 240283, Control_c, 0, 67, 66
1, 240298, Control_c, 0, 67, 97
1, 240313, Control_c, 0, 67, 108
1, 240328, Control_c, 0, 67, 111
1, 240330, Note_off_c, 0, 62, 58
1, 240358, Control_c, 0, 67, 114
1, 240367, Note_on_c, 0, 57, 71
1, 240387, Control_c, 0, 67, 119
1, 240427, Note_off_c, 0, 57, 64
1, 240447, Note_on_c, 0, 60, 68
1, 240504, Note_off_c, 0, 60, 59
1, 240525, Note_on_c, 0, 55, 60
1, 240566, Control_c, 0, 67, 117
1, 240617, Note_off_c, 0, 55, 62
1, 240627, Note_on_c, 0, 58, 60
1, 240632, Control_c, 0, 67, 115
1, 240677, Control_c, 0, 67, 113
1, 240722, Note_off_c, 0, 58, 58
1, 240736, Control_c, 0, 67, 111
1, 240739, Note_on_c, 0, 57, 53
1, 240748, Note_on_c, 0, 53, 38
1, 240828, Note_on_c, 0, 77, 52
1, 240899, Note_off_c, 0, 77, 61
1, 240906, Note_on_c, 0, 76, 61
1, 240975, Note_off_c, 0, 76, 63
1, 241005, Note_on_c, 0, 77, 65
1, 241058, Note_off_c, 0, 77, 60
1, 241088, Note_on_c, 0, 76, 66
1, 241120, Note_off_c, 0, 76, 64
1, 241166, Note_on_c, 0, 77, 68
1, 241233, Note_off_c, 0, 77, 59
1, 241257, Note_on_c, 0, 76, 55
1, 241300, Control_c, 0, 67, 109
1, 241312, Note_off_c, 0, 76, 60
1, 241348, Note_on_c, 0, 77, 62
1, 241352, Control_c, 0, 67, 107
1, 241366, Note_off_c, 0, 77, 65
1, 241482, Note_on_c, 0, 55, 44
1, 241486, Note_on_c, 0, 58, 48
1, 241535, Note_off_c, 0, 53, 36
1, 241585, Note_on_c, 0, 65, 61
1, 241631, Note_off_c, 0, 57, 57
1, 241640, Note_off_c, 0, 65, 57
1, 241671, Note_on_c, 0, 64, 63
1, 241714, Note_off_c, 0, 64, 60
1, 241745, Note_on_c, 0, 65, 69
1, 241780, Note_off_c, 0, 65, 60
1, 241825, Note_on_c, 0, 59, 71
1, 241830, Note_on_c, 0, 56, 67
1, 241855, Control_c, 0, 67, 105
1, 241870, Control_c, 0, 67, 102
1, 241876, Note_off_c, 0, 55, 58
1, 241884, Control_c, 0, 67, 98
1, 241899, Control_c, 0, 67, 93
1, 241900, Note_on_c, 0, 65, 71
1, 241903, Note_off_c, 0, 58, 57
1, 241914, Control_c, 0, 67, 85
1, 241929, Control_c, 0, 67, 68
1, 241944, Control_c, 0, 67, 0
1, 241971, Note_off_c, 0, 65, 62
1, 241989, Note_on_c, 0, 64, 74
1, 242004, Control_c, 0, 64, 29
1, 242019, Control_c, 0, 64, 33
1, 242034, Control_c, 0, 64, 36
1, 242049, Control_c, 0, 64, 39
1, 242051, Note_off_c, 0, 56, 63
1, 242063, Control_c, 0, 64, 40
1, 242064, Note_off_c, 0, 64, 62
1, 242075, Note_on_c, 0, 65, 69
1, 242086, Control_c, 0, 64, 41
1, 242101, Control_c, 0, 64, 42
1, 242115, Control_c, 0, 64, 42
1, 242118, Note_off_c, 0, 65, 60
1, 242136, Note_off_c, 0, 59, 56
1, 242145, Control_c, 0, 64, 43
1, 242183, Note_on_c, 0, 60, 70
1, 242206, Note_on_c, 0, 57, 53
1, 242281, Note_on_c, 0, 65, 66
1, 242320, Note_off_c, 0, 65, 61
1, 242322, Control_c, 0, 64, 42
1, 242358, Note_on_c, 0, 69, 65
1, 242439, Note_on_c, 0, 67, 68
1, 242439, Note_off_c, 0, 69, 61
1, 242517, Note_off_c, 0, 67, 64
1, 242520, Note_on_c, 0, 70, 75
1, 242574, Note_off_c, 0, 70, 64
1, 242611, Note_on_c, 0, 69, 67
1, 242652, Note_off_c, 0, 69, 60
1, 242686, Note_on_c, 0, 72, 66
1, 242759, Note_off_c, 0, 72, 60
1, 242769, Note_on_c, 0, 70, 67
1, 242852, Note_off_c, 0, 70, 63
1, 242877, Note_on_c, 0, 74, 65
1, 242915, Note_on_c, 0, 65, 48
1, 242927, Note_off_c, 0, 74, 59
1, 242975, Note_on_c, 0, 72, 57
1, 243032, Note_off_c, 0, 72, 57
1, 243058, Note_on_c, 0, 75, 62
1, 243123, Note_off_c, 0, 75, 64
1, 243145, Note_on_c, 0, 74, 66
1, 243145, Control_c, 0, 64, 42
1, 243191, Note_off_c, 0, 74, 55
1, 243203, Note_off_c, 0, 60, 52
1, 243228, Note_on_c, 0, 77, 67
1, 243279, Control_c, 0, 64, 41
1, 243295, Note_off_c, 0, 77, 62
1, 243312, Note_on_c, 0, 75, 68
1, 243376, Note_off_c, 0, 75, 63
1, 243383, Control_c, 0, 67, 49
1, 243398, Note_on_c, 0, 79, 61
1, 243398, Control_c, 0, 64, 41
1, 243398, Control_c, 0, 67, 70
1, 243412, Control_c, 0, 67, 88
1, 243427, Control_c, 0, 67, 101
1, 243442, Control_c, 0, 67, 112
1, 243456, Control_c, 0, 67, 122
1, 243464, Note_off_c, 0, 79, 61
1, 243471, Control_c, 0, 67, 127
1, 243486, Note_on_c, 0, 75, 65
1, 243516, Control_c, 0, 64, 40
1, 243592, Note_off_c, 0, 75, 60
1, 243613, Control_c, 0, 64, 40
1, 243615, Note_on_c, 0, 73, 48
1, 243656, Note_on_c, 0, 58, 42
1, 243673, Note_off_c, 0, 73, 59
1, 243688, Control_c, 0, 64, 39
1, 243705, Note_on_c, 0, 74, 65
1, 243714, Note_off_c, 0, 57, 54
1, 243778, Note_off_c, 0, 74, 50
1, 243796, Note_on_c, 0, 75, 66
1, 243835, Control_c, 0, 64, 39
1, 243854, Note_off_c, 0, 75, 65
1, 243878, Note_on_c, 0, 76, 70
1, 243929, Note_off_c, 0, 76, 64
1, 243958, Note_on_c, 0, 77, 72
1, 244035, Note_on_c, 0, 78, 72
1, 244041, Note_off_c, 0, 77, 61
1, 244072, Control_c, 0, 64, 38
1, 244119, Note_on_c, 0, 79, 71
1, 244140, Note_off_c, 0, 78, 52
1, 244206, Note_on_c, 0, 80, 76
1, 244206, Control_c, 0, 64, 38
1, 244212, Note_off_c, 0, 79, 62
1, 244254, Note_off_c, 0, 80, 65
1, 244265, Control_c, 0, 64, 37
1, 244275, Note_on_c, 0, 81, 83
1, 244314, Note_off_c, 0, 65, 63
1, 244319, Note_off_c, 0, 58, 64
1, 244347, Note_off_c, 0, 81, 59
1, 244364, Note_on_c, 0, 82, 80
1, 244430, Note_off_c, 0, 82, 63
1, 244454, Note_on_c, 0, 83, 72
1, 244468, Note_on_c, 0, 84, 56
1, 244510, Note_off_c, 0, 84, 0
1, 244512, Note_off_c, 0, 83, 48
1, 244519, Note_on_c, 0, 84, 66
1, 244609, Note_on_c, 0, 85, 83
1, 244630, Note_on_c, 0, 66, 76
1, 244632, Note_on_c, 0, 74, 74
1, 244636, Note_off_c, 0, 84, 64
1, 244684, Note_off_c, 0, 85, 65
1, 244689, Note_on_c, 0, 86, 82
1, 244737, Note_off_c, 0, 74, 63
1, 244759, Note_off_c, 0, 66, 64
1, 244767, Note_on_c, 0, 84, 76
1, 244776, Note_off_c, 0, 86, 63
1, 244856, Note_off_c, 0, 84, 63
1, 244866, Note_on_c, 0, 81, 75
1, 244940, Note_off_c, 0, 81, 58
1, 244951, Note_on_c, 0, 82, 71
1, 244954, Control_c, 0, 64, 37
1, 244966, Note_on_c, 0, 67, 70
1, 245009, Note_off_c, 0, 82, 64
1, 245014, Control_c, 0, 64, 36
1, 245026, Note_on_c, 0, 84, 72
1, 245031, Note_off_c, 0, 67, 59
1, 245047, Note_on_c, 0, 69, 67
1, 245102, Note_off_c, 0, 69, 55
1, 245103, Note_off_c, 0, 84, 63
1, 245118, Note_on_c, 0, 81, 77
1, 245133, Note_on_c, 0, 65, 71
1, 245193, Note_off_c, 0, 65, 62
1, 245197, Note_on_c, 0, 82, 75
1, 245200, Note_off_c, 0, 81, 60
1, 245209, Note_on_c, 0, 67, 73
1, 245250, Note_off_c, 0, 67, 59
1, 245275, Note_off_c, 0, 82, 63
1, 245288, Note_on_c, 0, 64, 73
1, 245290, Note_on_c, 0, 79, 77
1, 245333, Note_off_c, 0, 64, 63
1, 245342, Note_off_c, 0, 79, 60
1, 245358, Note_on_c, 0, 65, 68
1, 245368, Note_on_c, 0, 81, 76
1, 245408, Note_off_c, 0, 65, 52
1, 245436, Note_off_c, 0, 81, 64
1, 245437, Note_on_c, 0, 62, 66
1, 245450, Note_on_c, 0, 77, 72
1, 245502, Note_off_c, 0, 62, 63
1, 245518, Note_off_c, 0, 77, 57
1, 245526, Note_on_c, 0, 64, 66
1, 245534, Note_on_c, 0, 79, 65
1, 245581, Note_off_c, 0, 79, 61
1, 245612, Note_off_c, 0, 64, 60
1, 245616, Note_on_c, 0, 76, 66
1, 245618, Note_on_c, 0, 60, 65
1, 245658, Note_off_c, 0, 76, 59
1, 245665, Note_off_c, 0, 60, 58
1, 245694, Note_on_c, 0, 86, 76
1, 245765, Note_off_c, 0, 86, 64
1, 245769, Note_on_c, 0, 84, 74
1, 245786, Note_on_c, 0, 64, 71
1, 245835, Note_off_c, 0, 64, 63
1, 245849, Note_off_c, 0, 84, 63
1, 245857, Note_on_c, 0, 82, 70
1, 245926, Note_off_c, 0, 82, 62
1, 245938, Note_on_c, 0, 81, 70
1, 245947, Control_c, 0, 64, 36
1, 245956, Note_on_c, 0, 65, 57
1, 245999, Note_off_c, 0, 81, 58
1, 246008, Control_c, 0, 64, 35
1, 246024, Note_off_c, 0, 65, 58
1, 246029, Note_on_c, 0, 84, 74
1, 246037, Control_c, 0, 64, 35
1, 246052, Control_c, 0, 64, 34
1, 246067, Control_c, 0, 64, 34
1, 246088, Note_off_c, 0, 84, 64
1, 246097, Control_c, 0, 64, 33
1, 246114, Note_on_c, 0, 88, 72
1, 246126, Control_c, 0, 64, 33
1, 246130, Note_on_c, 0, 57, 54
1, 246156, Control_c, 0, 64, 32
1, 246174, Note_off_c, 0, 57, 62
1, 246183, Note_off_c, 0, 88, 62
1, 246203, Note_on_c, 0, 89, 65
1, 246215, Control_c, 0, 64, 32
1, 246233, Note_off_c, 0, 89, 64
1, 246333, Note_on_c, 0, 74, 59
1, 246338, Note_on_c, 0, 58, 44
1, 246376, Note_off_c, 0, 74, 58
1, 246421, Note_on_c, 0, 79, 51
1, 246477, Note_off_c, 0, 79, 62
1, 246496, Note_on_c, 0, 78, 62
1, 246570, Note_off_c, 0, 78, 59
1, 246586, Note_on_c, 0, 81, 64
1, 246632, Note_off_c, 0, 81, 62
1, 246675, Note_on_c, 0, 79, 59
1, 246731, Note_off_c, 0, 79, 60
1, 246757, Note_on_c, 0, 82, 64
1, 246770, Control_c, 0, 64, 30
1, 246820, Note_off_c, 0, 82, 63
1, 246847, Note_on_c, 0, 81, 62
1, 246889, Note_off_c, 0, 81, 61
1, 246890, Note_off_c, 0, 58, 58
1, 246931, Note_on_c, 0, 84, 64
1, 247001, Note_off_c, 0, 84, 61
1, 247006, Note_on_c, 0, 82, 70
1, 247075, Note_off_c, 0, 82, 62
1, 247094, Note_on_c, 0, 86, 67
1, 247165, Note_off_c, 0, 86, 64
1, 247173, Note_on_c, 0, 84, 67
1, 247256, Note_off_c, 0, 84, 62
1, 247256, Note_on_c, 0, 82, 66
1, 247356, Note_on_c, 0, 81, 65
1, 247360, Note_off_c, 0, 82, 59
1, 247374, Note_on_c, 0, 60, 43
1, 247419, Note_off_c, 0, 81, 63
1, 247438, Note_on_c, 0, 79, 56
1, 247470, Note_off_c, 0, 79, 62
1, 247491, Note_off_c, 0, 60, 64
1, 247527, Note_on_c, 0, 77, 71
1, 247590, Note_off_c, 0, 77, 62
1, 247607, Note_on_c, 0, 76, 66
1, 247661, Note_off_c, 0, 76, 54
1, 247762, Note_on_c, 0, 79, 52
1, 247781, Note_on_c, 0, 70, 46
1, 247789, Note_on_c, 0, 53, 37
1, 247900, Note_on_c, 0, 60, 38
1, 247953, Note_off_c, 0, 60, 56
1, 247987, Note_on_c, 0, 59, 51
1, 248031, Note_off_c, 0, 59, 64
1, 248038, Control_c, 0, 64, 0
1, 248068, Note_on_c, 0, 60, 55
1, 248141, Note_off_c, 0, 60, 56
1, 248169, Note_on_c, 0, 61, 57
1, 248185, Note_off_c, 0, 53, 58
1, 248223, Note_off_c, 0, 61, 57
1, 248253, Note_on_c, 0, 62, 51
1, 248301, Note_off_c, 0, 62, 54
1, 248345, Note_on_c, 0, 63, 54
1, 248391, Note_off_c, 0, 63, 64
1, 248391, Note_off_c, 0, 70, 62
1, 248446, Note_on_c, 0, 64, 45
1, 248475, Control_c, 0, 67, 124
1, 248487, Note_off_c, 0, 64, 52
1, 248490, Control_c, 0, 67, 117
1, 248505, Control_c, 0, 67, 112
1, 248520, Control_c, 0, 67, 108
1, 248535, Control_c, 0, 67, 105
1, 248549, Control_c, 0, 67, 102
1, 248564, Control_c, 0, 67, 94
1, 248579, Control_c, 0, 67, 88
1, 248591, Note_on_c, 0, 77, 37
1, 248594, Control_c, 0, 67, 86
1, 248609, Control_c, 0, 67, 83
1, 248612, Note_on_c, 0, 69, 25
1, 248624, Control_c, 0, 67, 79
1, 248626, Note_on_c, 0, 65, 31
1, 248639, Control_c, 0, 67, 71
1, 248654, Control_c, 0, 67, 64
1, 248663, Note_off_c, 0, 79, 31
1, 248668, Control_c, 0, 67, 56
1, 248683, Control_c, 0, 67, 49
1, 248698, Control_c, 0, 67, 41
1, 248713, Control_c, 0, 67, 0
1, 248868, Note_off_c, 0, 77, 48
1, 248881, Note_off_c, 0, 65, 42
1, 248979, Note_off_c, 0, 69, 45
1, 249461, Note_on_c, 0, 70, 77
1, 249464, Note_on_c, 0, 67, 71
1, 249465, Note_on_c, 0, 36, 68
1, 249466, Note_on_c, 0, 60, 69
1, 249470, Note_on_c, 0, 64, 63
1, 249491, Control_c, 0, 64, 39
1, 249506, Control_c, 0, 64, 54
1, 249521, Control_c, 0, 64, 59
1, 249536, Control_c, 0, 64, 60
1, 249551, Control_c, 0, 64, 60
1, 249559, Note_off_c, 0, 36, 56
1, 249572, Control_c, 0, 64, 61
1, 249576, Note_on_c, 0, 48, 73
1, 249587, Control_c, 0, 64, 61
1, 249602, Control_c, 0, 64, 62
1, 249617, Control_c, 0, 64, 63
1, 249632, Control_c, 0, 64, 64
1, 249646, Control_c, 0, 64, 65
1, 249661, Control_c, 0, 64, 67
1, 249676, Control_c, 0, 64, 69
1, 249688, Note_on_c, 0, 47, 77
1, 249691, Control_c, 0, 64, 71
1, 249693, Note_off_c, 0, 48, 63
1, 249706, Control_c, 0, 64, 73
1, 249721, Control_c, 0, 64, 75
1, 249736, Control_c, 0, 64, 75
1, 249751, Control_c, 0, 64, 76
1, 249766, Control_c, 0, 64, 76
1, 249780, Note_on_c, 0, 48, 86
1, 249781, Note_off_c, 0, 67, 53
1, 249786, Note_off_c, 0, 47, 63
1, 249795, Note_off_c, 0, 60, 54
1, 249804, Note_off_c, 0, 64, 52
1, 249807, Note_off_c, 0, 70, 53
1, 249894, Note_on_c, 0, 46, 79
1, 249899, Control_c, 0, 64, 76
1, 249900, Note_on_c, 0, 70, 91
1, 249902, Note_off_c, 0, 48, 62
1, 249904, Note_on_c, 0, 60, 81
1, 249904, Note_on_c, 0, 67, 77
1, 249912, Note_on_c, 0, 64, 75
1, 249913, Control_c, 0, 64, 71
1, 249928, Control_c, 0, 64, 62
1, 249943, Control_c, 0, 64, 41
1, 249958, Control_c, 0, 64, 0
1, 249985, Note_on_c, 0, 48, 81
1, 249992, Note_off_c, 0, 46, 63
1, 250033, Control_c, 0, 64, 33
1, 250048, Control_c, 0, 64, 41
1, 250063, Control_c, 0, 64, 47
1, 250068, Note_on_c, 0, 45, 76
1, 250072, Note_off_c, 0, 48, 64
1, 250077, Control_c, 0, 64, 52
1, 250092, Control_c, 0, 64, 55
1, 250107, Control_c, 0, 64, 56
1, 250121, Control_c, 0, 64, 57
1, 250136, Control_c, 0, 64, 57
1, 250151, Control_c, 0, 64, 58
1, 250153, Note_off_c, 0, 45, 64
1, 250154, Note_on_c, 0, 48, 80
1, 250166, Control_c, 0, 64, 58
1, 250181, Control_c, 0, 64, 59
1, 250210, Control_c, 0, 64, 60
1, 250240, Note_off_c, 0, 48, 61
1, 250240, Control_c, 0, 64, 60
1, 250242, Note_on_c, 0, 44, 82
1, 250328, Note_on_c, 0, 48, 81
1, 250332, Note_off_c, 0, 44, 64
1, 250416, Note_on_c, 0, 43, 86
1, 250419, Note_off_c, 0, 48, 62
1, 250437, Note_off_c, 0, 67, 54
1, 250441, Note_off_c, 0, 64, 55
1, 250460, Note_off_c, 0, 60, 54
1, 250464, Note_off_c, 0, 70, 56
1, 250490, Note_on_c, 0, 48, 72
1, 250508, Note_off_c, 0, 43, 62
1, 250587, Note_on_c, 0, 70, 77
1, 250588, Control_c, 0, 64, 58
1, 250591, Note_on_c, 0, 67, 66
1, 250593, Note_on_c, 0, 42, 78
1, 250594, Note_on_c, 0, 60, 71
1, 250599, Note_on_c, 0, 64, 63
1, 250603, Control_c, 0, 64, 50
1, 250618, Control_c, 0, 64, 0
1, 250619, Note_off_c, 0, 48, 62
1, 250675, Note_on_c, 0, 48, 73
1, 250678, Note_off_c, 0, 42, 63
1, 250766, Control_c, 0, 64, 34
1, 250767, Note_on_c, 0, 41, 78
1, 250767, Note_off_c, 0, 48, 63
1, 250781, Control_c, 0, 64, 49
1, 250797, Control_c, 0, 64, 57
1, 250812, Control_c, 0, 64, 60
1, 250826, Control_c, 0, 64, 63
1, 250839, Note_off_c, 0, 60, 62
1, 250841, Control_c, 0, 64, 65
1, 250847, Note_off_c, 0, 64, 63
1, 250848, Note_off_c, 0, 41, 64
1, 250848, Note_off_c, 0, 67, 63
1, 250854, Note_on_c, 0, 48, 82
1, 250856, Control_c, 0, 64, 66
1, 250870, Control_c, 0, 64, 67
1, 250885, Control_c, 0, 64, 68
1, 250891, Note_off_c, 0, 70, 63
1, 250900, Control_c, 0, 64, 69
1, 250930, Control_c, 0, 64, 69
1, 250982, Note_on_c, 0, 40, 74
1, 251019, Control_c, 0, 64, 69
1, 251034, Control_c, 0, 64, 66
1, 251049, Control_c, 0, 64, 61
1, 251049, Control_c, 0, 67, 41
1, 251064, Control_c, 0, 64, 52
1, 251064, Control_c, 0, 67, 59
1, 251086, Control_c, 0, 64, 40
1, 251086, Control_c, 0, 67, 77
1, 251098, Note_on_c, 0, 82, 70
1, 251101, Control_c, 0, 64, 32
1, 251101, Control_c, 0, 67, 91
1, 251116, Control_c, 0, 64, 34
1, 251116, Control_c, 0, 67, 98
1, 251131, Control_c, 0, 64, 42
1, 251131, Control_c, 0, 67, 102
1, 251146, Control_c, 0, 64, 54
1, 251146, Control_c, 0, 67, 105
1, 251160, Control_c, 0, 64, 55
1, 251160, Control_c, 0, 67, 109
1, 251175, Control_c, 0, 64, 50
1, 251175, Control_c, 0, 67, 113
1, 251179, Note_on_c, 0, 81, 74
1, 251183, Note_off_c, 0, 82, 63
1, 251190, Control_c, 0, 64, 37
1, 251190, Control_c, 0, 67, 115
1, 251190, Note_off_c, 0, 48, 44
1, 251205, Control_c, 0, 64, 0
1, 251261, Note_off_c, 0, 81, 62
1, 251265, Note_on_c, 0, 82, 81
1, 251323, Control_c, 0, 64, 39
1, 251323, Control_c, 0, 67, 113
1, 251338, Control_c, 0, 64, 42
1, 251342, Note_off_c, 0, 82, 64
1, 251352, Control_c, 0, 64, 41
1, 251355, Note_on_c, 0, 79, 79
1, 251367, Control_c, 0, 64, 39
1, 251367, Control_c, 0, 67, 111
1, 251382, Control_c, 0, 64, 35
1, 251396, Control_c, 0, 64, 32
1, 251396, Control_c, 0, 67, 109
1, 251402, Note_off_c, 0, 40, 63
1, 251411, Control_c, 0, 64, 32
1, 251414, Note_off_c, 0, 79, 63
1, 251433, Note_on_c, 0, 82, 76
1, 251441, Control_c, 0, 64, 32
1, 251456, Control_c, 0, 67, 107
1, 251498, Note_off_c, 0, 82, 63
1, 251510, Note_on_c, 0, 77, 81
1, 251574, Note_off_c, 0, 77, 63
1, 251589, Note_on_c, 0, 82, 80
1, 251590, Control_c, 0, 64, 33
1, 251620, Control_c, 0, 67, 110
1, 251667, Note_off_c, 0, 82, 61
1, 251674, Note_on_c, 0, 76, 77
1, 251694, Control_c, 0, 67, 113
1, 251709, Control_c, 0, 64, 33
1, 251729, Note_off_c, 0, 76, 61
1, 251738, Control_c, 0, 64, 34
1, 251753, Control_c, 0, 64, 34
1, 251753, Control_c, 0, 67, 115
1, 251757, Note_on_c, 0, 86, 83
1, 251758, Note_on_c, 0, 70, 79
1, 251767, Control_c, 0, 64, 35
1, 251782, Control_c, 0, 64, 37
1, 251782, Control_c, 0, 67, 117
1, 251797, Control_c, 0, 64, 38
1, 251812, Control_c, 0, 64, 38
1, 251834, Control_c, 0, 64, 39
1, 251837, Note_on_c, 0, 85, 82
1, 251844, Note_on_c, 0, 69, 82
1, 251849, Note_off_c, 0, 70, 59
1, 251854, Note_off_c, 0, 86, 62
1, 251919, Note_on_c, 0, 70, 79
1, 251919, Note_on_c, 0, 86, 80
1, 251928, Note_off_c, 0, 69, 61
1, 251928, Note_off_c, 0, 85, 62
1, 251995, Note_off_c, 0, 86, 64
1, 251997, Control_c, 0, 64, 38
1, 251998, Note_on_c, 0, 82, 85
1, 251998, Note_off_c, 0, 70, 61
1, 252009, Note_on_c, 0, 67, 75
1, 252012, Control_c, 0, 64, 38
1, 252026, Control_c, 0, 64, 37
1, 252041, Control_c, 0, 64, 37
1, 252056, Control_c, 0, 64, 36
1, 252071, Control_c, 0, 64, 36
1, 252079, Note_off_c, 0, 82, 64
1, 252081, Note_on_c, 0, 70, 80
1, 252085, Note_on_c, 0, 86, 86
1, 252085, Note_off_c, 0, 67, 65
1, 252086, Control_c, 0, 64, 35
1, 252115, Control_c, 0, 64, 35
1, 252145, Control_c, 0, 64, 34
1, 252151, Note_off_c, 0, 70, 57
1, 252153, Note_off_c, 0, 86, 62
1, 252164, Note_on_c, 0, 65, 75
1, 252164, Note_on_c, 0, 81, 83
1, 252189, Control_c, 0, 64, 34
1, 252205, Note_on_c, 0, 82, 11
1, 252213, Note_off_c, 0, 82, 37
1, 252234, Note_on_c, 0, 86, 81
1, 252234, Note_off_c, 0, 81, 63
1, 252239, Note_off_c, 0, 65, 63
1, 252241, Note_on_c, 0, 70, 75
1, 252293, Control_c, 0, 67, 115
1, 252311, Note_off_c, 0, 70, 60
1, 252316, Note_off_c, 0, 86, 63
1, 252328, Note_on_c, 0, 79, 75
1, 252338, Control_c, 0, 64, 33
1, 252340, Note_on_c, 0, 64, 64
1, 252353, Control_c, 0, 64, 33
1, 252367, Control_c, 0, 64, 32
1, 252371, Note_off_c, 0, 79, 62
1, 252392, Note_off_c, 0, 64, 65
1, 252409, Note_on_c, 0, 82, 75
1, 252411, Note_on_c, 0, 67, 65
1, 252428, Control_c, 0, 64, 30
1, 252486, Note_on_c, 0, 81, 79
1, 252487, Note_off_c, 0, 67, 61
1, 252490, Note_off_c, 0, 82, 63
1, 252492, Note_on_c, 0, 66, 76
1, 252502, Control_c, 0, 67, 113
1, 252556, Note_off_c, 0, 81, 63
1, 252571, Note_on_c, 0, 82, 78
1, 252574, Note_on_c, 0, 67, 71
1, 252583, Note_off_c, 0, 66, 62
1, 252639, Note_off_c, 0, 82, 63
1, 252660, Note_on_c, 0, 79, 75
1, 252663, Note_off_c, 0, 67, 60
1, 252665, Note_on_c, 0, 64, 69
1, 252718, Note_off_c, 0, 79, 56
1, 252727, Note_off_c, 0, 64, 64
1, 252732, Note_on_c, 0, 82, 78
1, 252741, Note_on_c, 0, 67, 66
1, 252746, Control_c, 0, 67, 111
1, 252776, Control_c, 0, 67, 109
1, 252798, Note_off_c, 0, 82, 63
1, 252806, Note_off_c, 0, 67, 57
1, 252821, Note_on_c, 0, 62, 71
1, 252821, Note_on_c, 0, 77, 76
1, 252881, Note_off_c, 0, 62, 62
1, 252883, Note_off_c, 0, 77, 62
1, 252888, Note_on_c, 0, 82, 75
1, 252901, Note_on_c, 0, 67, 59
1, 252958, Note_off_c, 0, 82, 62
1, 252997, Note_on_c, 0, 76, 66
1, 252997, Control_c, 0, 67, 107
1, 253009, Note_on_c, 0, 60, 58
1, 253018, Note_off_c, 0, 67, 56
1, 253027, Note_off_c, 0, 76, 62
1, 253027, Control_c, 0, 67, 103
1, 253042, Control_c, 0, 67, 99
1, 253057, Control_c, 0, 67, 90
1, 253070, Note_on_c, 0, 77, 77
1, 253071, Control_c, 0, 67, 79
1, 253086, Control_c, 0, 67, 50
1, 253101, Control_c, 0, 67, 0
1, 253126, Note_off_c, 0, 77, 65
1, 253159, Note_on_c, 0, 79, 80
1, 253175, Note_off_c, 0, 60, 65
1, 253235, Note_on_c, 0, 81, 86
1, 253240, Note_off_c, 0, 79, 60
1, 253317, Note_on_c, 0, 82, 86
1, 253329, Note_off_c, 0, 81, 63
1, 253376, Note_off_c, 0, 82, 63
1, 253394, Note_on_c, 0, 84, 92
1, 253457, Note_on_c, 0, 67, 55
1, 253462, Note_on_c, 0, 58, 58
1, 253474, Note_on_c, 0, 86, 92
1, 253475, Note_on_c, 0, 60, 51
1, 253484, Note_off_c, 0, 84, 62
1, 253510, Note_off_c, 0, 67, 53
1, 253520, Note_off_c, 0, 60, 60
1, 253522, Note_off_c, 0, 58, 59
1, 253525, Control_c, 0, 64, 0
1, 253555, Note_on_c, 0, 88, 90
1, 253590, Note_off_c, 0, 86, 64
1, 253673, Note_on_c, 0, 89, 96
1, 253687, Control_c, 0, 64, 34
1, 253700, Note_off_c, 0, 88, 64
1, 253701, Note_on_c, 0, 65, 50
1, 253702, Control_c, 0, 64, 43
1, 253704, Note_on_c, 0, 57, 52
1, 253709, Note_on_c, 0, 60, 49
1, 253717, Control_c, 0, 64, 53
1, 253732, Control_c, 0, 64, 61
1, 253746, Control_c, 0, 64, 63
1, 253761, Control_c, 0, 64, 65
1, 253776, Control_c, 0, 64, 69
1, 253783, Note_off_c, 0, 89, 64
1, 253790, Control_c, 0, 64, 73
1, 253805, Control_c, 0, 64, 74
1, 253819, Note_off_c, 0, 60, 64
1, 253820, Control_c, 0, 64, 74
1, 253827, Note_off_c, 0, 57, 63
1, 253835, Control_c, 0, 64, 69
1, 253845, Note_off_c, 0, 65, 62
1, 253850, Control_c, 0, 64, 58
1, 253864, Control_c, 0, 64, 0
1, 253997, Note_on_c, 0, 77, 58
1, 254036, Note_on_c, 0, 82, 76
1, 254063, Note_on_c, 0, 58, 56
1, 254073, Note_on_c, 0, 86, 84
1, 254074, Note_on_c, 0, 65, 52
1, 254081, Control_c, 0, 64, 44
1, 254085, Note_on_c, 0, 62, 44
1, 254093, Note_off_c, 0, 77, 64
1, 254095, Control_c, 0, 64, 64
1, 254110, Control_c, 0, 64, 72
1, 254125, Control_c, 0, 64, 84
1, 254134, Note_off_c, 0, 82, 63
1, 254140, Control_c, 0, 64, 91
1, 254144, Note_off_c, 0, 86, 65
1, 254153, Note_off_c, 0, 62, 62
1, 254155, Control_c, 0, 64, 92
1, 254165, Note_off_c, 0, 58, 63
1, 254168, Note_off_c, 0, 65, 62
1, 254184, Control_c, 0, 64, 91
1, 254199, Control_c, 0, 64, 75
1, 254213, Control_c, 0, 64, 57
1, 254228, Control_c, 0, 64, 0
1, 254374, Note_on_c, 0, 72, 56
1, 254413, Note_on_c, 0, 77, 61
1, 254428, Note_on_c, 0, 81, 72
1, 254436, Control_c, 0, 64, 38
1, 254450, Note_on_c, 0, 84, 81
1, 254451, Control_c, 0, 64, 61
1, 254457, Note_on_c, 0, 60, 48
1, 254460, Note_on_c, 0, 69, 50
1, 254465, Note_on_c, 0, 65, 48
1, 254466, Control_c, 0, 64, 70
1, 254471, Note_off_c, 0, 72, 62
1, 254481, Control_c, 0, 64, 76
1, 254493, Note_off_c, 0, 69, 65
1, 254495, Control_c, 0, 64, 84
1, 254495, Control_c, 0, 67, 39
1, 254499, Note_off_c, 0, 65, 64
1, 254508, Note_off_c, 0, 77, 63
1, 254510, Control_c, 0, 64, 94
1, 254510, Control_c, 0, 67, 66
1, 254513, Note_off_c, 0, 84, 64
1, 254520, Note_off_c, 0, 81, 62
1, 254525, Note_off_c, 0, 60, 61
1, 254525, Control_c, 0, 64, 100
1, 254525, Control_c, 0, 67, 100
1, 254540, Control_c, 0, 67, 127
1, 254584, Control_c, 0, 64, 91
1, 254599, Control_c, 0, 64, 71
1, 254613, Control_c, 0, 64, 55
1, 254628, Control_c, 0, 64, 0
1, 254819, Note_on_c, 0, 67, 52
1, 254856, Note_on_c, 0, 70, 61
1, 254876, Note_on_c, 0, 60, 42
1, 254889, Note_on_c, 0, 48, 51
1, 254896, Note_on_c, 0, 76, 66
1, 254897, Note_on_c, 0, 52, 43
1, 254897, Note_on_c, 0, 55, 29
1, 254916, Note_off_c, 0, 67, 62
1, 254934, Control_c, 0, 64, 42
1, 254947, Note_off_c, 0, 48, 61
1, 254947, Note_off_c, 0, 52, 61
1, 254949, Control_c, 0, 64, 59
1, 254958, Note_off_c, 0, 60, 61
1, 254960, Note_off_c, 0, 55, 61
1, 254964, Control_c, 0, 64, 64
1, 254976, Note_off_c, 0, 76, 62
1, 254978, Note_off_c, 0, 70, 64
1, 254979, Control_c, 0, 64, 68
1, 254993, Control_c, 0, 64, 73
1, 255008, Control_c, 0, 64, 79
1, 255023, Control_c, 0, 64, 83
1, 255038, Control_c, 0, 64, 84
1, 255052, Control_c, 0, 64, 85
1, 255082, Control_c, 0, 64, 84
1, 255097, Control_c, 0, 64, 79
1, 255112, Control_c, 0, 64, 65
1, 255126, Control_c, 0, 64, 45
1, 255141, Control_c, 0, 64, 0
1, 255346, Note_on_c, 0, 53, 46
1, 255383, Note_off_c, 0, 53, 64
1, 255401, Note_on_c, 0, 57, 57
1, 255440, Note_off_c, 0, 57, 65
1, 255447, Note_on_c, 0, 60, 56
1, 255482, Note_off_c, 0, 60, 65
1, 255486, Note_on_c, 0, 65, 60
1, 255512, Note_on_c, 0, 69, 59
1, 255514, Note_off_c, 0, 65, 66
1, 255555, Note_off_c, 0, 69, 65
1, 255567, Note_on_c, 0, 72, 66
1, 255631, Note_on_c, 0, 76, 64
1, 255631, Note_off_c, 0, 72, 57
1, 255666, Note_off_c, 0, 76, 65
1, 255667, Note_on_c, 0, 77, 74
1, 255726, Note_off_c, 0, 77, 63
1, 255729, Note_on_c, 0, 72, 75
1, 255778, Note_on_c, 0, 69, 72
1, 255784, Note_off_c, 0, 72, 62
1, 255820, Note_on_c, 0, 65, 69
1, 255821, Note_off_c, 0, 69, 62
1, 255852, Note_off_c, 0, 65, 62
1, 255888, Note_on_c, 0, 53, 52
1, 255923, Note_off_c, 0, 53, 64
1, 255945, Note_on_c, 0, 48, 56
1, 255976, Note_off_c, 0, 48, 62
1, 256027, Note_on_c, 0, 45, 46
1, 256098, Note_off_c, 0, 45, 58
1, 256147, Note_on_c, 0, 41, 39
1, 256359, Note_off_c, 0, 41, 36
1, 257728, Control_c, 0, 64, 29
1, 257743, Control_c, 0, 64, 33
1, 257758, Control_c, 0, 64, 39
1, 257773, Control_c, 0, 64, 45
1, 257787, Control_c, 0, 64, 49
1, 257802, Control_c, 0, 64, 53
1, 257825, Control_c, 0, 64, 55
1, 257839, Control_c, 0, 64, 56
1, 257854, Control_c, 0, 64, 57
1, 257869, Control_c, 0, 64, 58
1, 257884, Control_c, 0, 64, 60
1, 257899, Control_c, 0, 64, 61
1, 257913, Control_c, 0, 64, 62
1, 257928, Control_c, 0, 64, 63
1, 257943, Control_c, 0, 64, 63
1, 257958, Control_c, 0, 64, 64
1, 257972, Control_c, 0, 64, 65
1, 257989, Control_c, 0, 64, 66
1, 258004, Control_c, 0, 64, 68
1, 258018, Control_c, 0, 64, 69
1, 258033, Control_c, 0, 64, 70
1, 258048, Control_c, 0, 64, 72
1, 258062, Control_c, 0, 64, 73
1, 258077, Control_c, 0, 64, 73
1, 258092, Control_c, 0, 64, 74
1, 258107, Control_c, 0, 64, 75
1, 258122, Control_c, 0, 64, 75
1, 258136, Control_c, 0, 64, 76
1, 258151, Control_c, 0, 64, 76
1, 258166, Control_c, 0, 64, 77
1, 258181, Control_c, 0, 64, 77
1, 258210, Control_c, 0, 64, 78
1, 258275, Note_on_c, 0, 56, 34
1, 258285, Control_c, 0, 64, 78
1, 258297, Note_on_c, 0, 53, 27
1, 258648, Control_c, 0, 64, 79
1, 258748, Note_on_c, 0, 60, 29
1, 258908, Note_off_c, 0, 56, 41
1, 258923, Note_off_c, 0, 60, 39
1, 258955, Note_off_c, 0, 53, 37
1, 259163, Note_on_c, 0, 52, 37
1, 259173, Note_on_c, 0, 55, 36
1, 259271, Control_c, 0, 64, 78
1, 259285, Control_c, 0, 64, 77
1, 259300, Control_c, 0, 64, 69
1, 259322, Control_c, 0, 64, 56
1, 259337, Control_c, 0, 64, 0
1, 259397, Control_c, 0, 64, 38
1, 259411, Control_c, 0, 64, 50
1, 259426, Control_c, 0, 64, 56
1, 259441, Control_c, 0, 64, 60
1, 259456, Control_c, 0, 64, 61
1, 259471, Control_c, 0, 64, 63
1, 259485, Control_c, 0, 64, 64
1, 259500, Control_c, 0, 64, 65
1, 259515, Control_c, 0, 64, 66
1, 259530, Control_c, 0, 64, 67
1, 259545, Control_c, 0, 64, 67
1, 259559, Control_c, 0, 64, 68
1, 259574, Control_c, 0, 64, 68
1, 259590, Control_c, 0, 64, 69
1, 259605, Control_c, 0, 64, 70
1, 259617, Note_on_c, 0, 84, 64
1, 259620, Control_c, 0, 64, 70
1, 259634, Control_c, 0, 64, 71
1, 259649, Control_c, 0, 64, 71
1, 259664, Control_c, 0, 64, 72
1, 259668, Note_on_c, 0, 60, 28
1, 259676, Note_off_c, 0, 84, 66
1, 259679, Control_c, 0, 64, 72
1, 259708, Control_c, 0, 64, 73
1, 259738, Control_c, 0, 64, 73
1, 259780, Note_off_c, 0, 60, 37
1, 259786, Note_off_c, 0, 55, 36
1, 259797, Control_c, 0, 64, 74
1, 259813, Note_off_c, 0, 52, 36
1, 259949, Note_on_c, 0, 84, 66
1, 259965, Note_off_c, 0, 84, 68
1, 260029, Note_on_c, 0, 84, 71
1, 260033, Control_c, 0, 64, 73
1, 260063, Note_on_c, 0, 56, 38
1, 260071, Note_on_c, 0, 53, 36
1, 260071, Control_c, 0, 64, 73
1, 260085, Control_c, 0, 64, 72
1, 260100, Control_c, 0, 64, 71
1, 260115, Control_c, 0, 64, 68
1, 260130, Control_c, 0, 64, 65
1, 260145, Control_c, 0, 64, 61
1, 260159, Control_c, 0, 64, 53
1, 260174, Control_c, 0, 64, 42
1, 260189, Control_c, 0, 64, 0
1, 260233, Control_c, 0, 64, 30
1, 260248, Control_c, 0, 64, 44
1, 260263, Control_c, 0, 64, 55
1, 260278, Control_c, 0, 64, 62
1, 260293, Control_c, 0, 64, 64
1, 260307, Control_c, 0, 64, 66
1, 260322, Control_c, 0, 64, 68
1, 260337, Control_c, 0, 64, 70
1, 260352, Control_c, 0, 64, 72
1, 260366, Control_c, 0, 64, 74
1, 260383, Control_c, 0, 64, 74
1, 260398, Control_c, 0, 64, 75
1, 260416, Note_off_c, 0, 84, 38
1, 260500, Note_on_c, 0, 80, 50
1, 260516, Control_c, 0, 64, 74
1, 260528, Note_on_c, 0, 60, 38
1, 260530, Control_c, 0, 64, 69
1, 260545, Control_c, 0, 64, 59
1, 260560, Control_c, 0, 64, 52
1, 260575, Control_c, 0, 64, 54
1, 260589, Control_c, 0, 64, 58
1, 260604, Control_c, 0, 64, 62
1, 260619, Control_c, 0, 64, 66
1, 260634, Control_c, 0, 64, 72
1, 260649, Control_c, 0, 64, 76
1, 260656, Note_off_c, 0, 56, 36
1, 260658, Note_off_c, 0, 53, 61
1, 260664, Control_c, 0, 64, 79
1, 260679, Control_c, 0, 64, 82
1, 260694, Control_c, 0, 64, 84
1, 260708, Control_c, 0, 64, 86
1, 260714, Note_off_c, 0, 80, 55
1, 260723, Control_c, 0, 64, 87
1, 260725, Note_off_c, 0, 60, 61
1, 260738, Control_c, 0, 64, 88
1, 260768, Control_c, 0, 64, 88
1, 260908, Control_c, 0, 64, 88
1, 260965, Note_on_c, 0, 77, 46
1, 260968, Control_c, 0, 64, 87
1, 260982, Control_c, 0, 64, 86
1, 260985, Note_on_c, 0, 56, 32
1, 260997, Control_c, 0, 64, 84
1, 261012, Control_c, 0, 64, 82
1, 261014, Note_on_c, 0, 60, 31
1, 261027, Control_c, 0, 64, 79
1, 261042, Control_c, 0, 64, 74
1, 261056, Control_c, 0, 64, 66
1, 261071, Control_c, 0, 64, 54
1, 261086, Control_c, 0, 64, 36
1, 261101, Control_c, 0, 64, 0
1, 261145, Control_c, 0, 64, 43
1, 261160, Control_c, 0, 64, 55
1, 261175, Control_c, 0, 64, 62
1, 261191, Control_c, 0, 64, 65
1, 261197, Note_off_c, 0, 77, 62
1, 261205, Control_c, 0, 64, 70
1, 261220, Control_c, 0, 64, 75
1, 261235, Control_c, 0, 64, 80
1, 261250, Control_c, 0, 64, 85
1, 261265, Control_c, 0, 64, 89
1, 261279, Control_c, 0, 64, 93
1, 261294, Control_c, 0, 64, 96
1, 261309, Control_c, 0, 64, 98
1, 261368, Control_c, 0, 64, 100
1, 261448, Note_on_c, 0, 77, 64
1, 261487, Note_on_c, 0, 65, 37
1, 261501, Note_off_c, 0, 77, 61
1, 261571, Note_off_c, 0, 60, 40
1, 261635, Note_off_c, 0, 65, 38
1, 261802, Note_on_c, 0, 77, 64
1, 261828, Note_off_c, 0, 77, 70
1, 261886, Note_on_c, 0, 77, 59
1, 261906, Note_on_c, 0, 61, 42
1, 261907, Note_on_c, 0, 58, 44
1, 261919, Note_off_c, 0, 56, 42
1, 261938, Control_c, 0, 64, 92
1, 261953, Control_c, 0, 64, 81
1, 261968, Control_c, 0, 64, 66
1, 261984, Control_c, 0, 64, 52
1, 261999, Control_c, 0, 64, 45
1, 262014, Control_c, 0, 64, 46
1, 262028, Control_c, 0, 64, 51
1, 262043, Control_c, 0, 64, 59
1, 262058, Control_c, 0, 64, 64
1, 262073, Control_c, 0, 64, 71
1, 262088, Control_c, 0, 64, 78
1, 262102, Control_c, 0, 64, 83
1, 262117, Control_c, 0, 64, 86
1, 262132, Control_c, 0, 64, 90
1, 262147, Control_c, 0, 64, 95
1, 262149, Note_off_c, 0, 77, 63
1, 262162, Control_c, 0, 64, 100
1, 262176, Control_c, 0, 64, 106
1, 262191, Control_c, 0, 64, 109
1, 262206, Control_c, 0, 64, 111
1, 262250, Control_c, 0, 64, 114
1, 262333, Note_on_c, 0, 77, 76
1, 262360, Control_c, 0, 64, 116
1, 262368, Note_on_c, 0, 67, 44
1, 262384, Note_off_c, 0, 77, 63
1, 262460, Note_off_c, 0, 61, 61
1, 262464, Control_c, 0, 67, 117
1, 262479, Control_c, 0, 67, 105
1, 262494, Control_c, 0, 67, 92
1, 262509, Control_c, 0, 67, 72
1, 262524, Control_c, 0, 67, 53
1, 262539, Control_c, 0, 67, 0
1, 262566, Note_off_c, 0, 67, 37
1, 262691, Note_on_c, 0, 77, 74
1, 262732, Note_off_c, 0, 77, 62
1, 262774, Note_off_c, 0, 58, 52
1, 262780, Note_on_c, 0, 77, 68
1, 262807, Note_on_c, 0, 63, 48
1, 262822, Note_on_c, 0, 60, 42
1, 262836, Control_c, 0, 64, 110
1, 262850, Control_c, 0, 64, 97
1, 262865, Control_c, 0, 64, 79
1, 262880, Control_c, 0, 64, 60
1, 262895, Control_c, 0, 64, 37
1, 262910, Control_c, 0, 64, 0
1, 262924, Control_c, 0, 64, 31
1, 262939, Control_c, 0, 64, 42
1, 262954, Control_c, 0, 64, 56
1, 262969, Control_c, 0, 64, 64
1, 262983, Control_c, 0, 64, 69
1, 262998, Control_c, 0, 64, 74
1, 263013, Control_c, 0, 64, 79
1, 263028, Control_c, 0, 64, 86
1, 263043, Control_c, 0, 64, 93
1, 263055, Note_off_c, 0, 77, 64
1, 263065, Control_c, 0, 64, 99
1, 263080, Control_c, 0, 64, 107
1, 263095, Control_c, 0, 64, 116
1, 263110, Control_c, 0, 64, 127
1, 263251, Note_on_c, 0, 77, 82
1, 263283, Note_on_c, 0, 69, 45
1, 263317, Note_off_c, 0, 77, 62
1, 263424, Note_off_c, 0, 63, 52
1, 263496, Note_off_c, 0, 69, 36
1, 263509, Note_off_c, 0, 60, 53
1, 263660, Note_on_c, 0, 77, 74
1, 263709, Note_off_c, 0, 77, 62
1, 263800, Note_on_c, 0, 77, 74
1, 263820, Note_on_c, 0, 61, 39
1, 263826, Note_on_c, 0, 65, 35
1, 263874, Control_c, 0, 64, 122
1, 263888, Control_c, 0, 64, 111
1, 263903, Control_c, 0, 64, 104
1, 263918, Control_c, 0, 64, 97
1, 263933, Control_c, 0, 64, 90
1, 263948, Control_c, 0, 64, 83
1, 263962, Control_c, 0, 64, 76
1, 263977, Control_c, 0, 64, 70
1, 263992, Control_c, 0, 64, 64
1, 264006, Control_c, 0, 64, 59
1, 264021, Control_c, 0, 64, 55
1, 264036, Control_c, 0, 64, 48
1, 264051, Control_c, 0, 64, 37
1, 264066, Control_c, 0, 64, 0
1, 264140, Control_c, 0, 64, 34
1, 264154, Control_c, 0, 64, 40
1, 264169, Control_c, 0, 64, 47
1, 264184, Control_c, 0, 64, 54
1, 264199, Control_c, 0, 64, 58
1, 264214, Control_c, 0, 64, 59
1, 264229, Control_c, 0, 64, 61
1, 264244, Control_c, 0, 64, 62
1, 264259, Control_c, 0, 64, 64
1, 264273, Control_c, 0, 64, 66
1, 264288, Control_c, 0, 64, 68
1, 264295, Note_on_c, 0, 70, 42
1, 264303, Control_c, 0, 64, 69
1, 264318, Control_c, 0, 64, 71
1, 264332, Control_c, 0, 64, 73
1, 264347, Control_c, 0, 64, 74
1, 264362, Control_c, 0, 64, 76
1, 264378, Control_c, 0, 64, 77
1, 264393, Control_c, 0, 64, 78
1, 264408, Control_c, 0, 64, 79
1, 264422, Control_c, 0, 64, 80
1, 264437, Control_c, 0, 64, 81
1, 264453, Control_c, 0, 64, 81
1, 264482, Control_c, 0, 64, 82
1, 264520, Note_on_c, 0, 79, 53
1, 264614, Note_off_c, 0, 65, 35
1, 264623, Note_on_c, 0, 80, 63
1, 264624, Note_off_c, 0, 79, 57
1, 264663, Note_off_c, 0, 77, 33
1, 264745, Note_on_c, 0, 84, 60
1, 264758, Note_off_c, 0, 80, 60
1, 264802, Note_on_c, 0, 82, 62
1, 264830, Control_c, 0, 64, 81
1, 264860, Control_c, 0, 64, 81
1, 264875, Control_c, 0, 64, 80
1, 264883, Note_off_c, 0, 84, 36
1, 264890, Control_c, 0, 64, 79
1, 264904, Control_c, 0, 64, 78
1, 264919, Control_c, 0, 64, 78
1, 264934, Control_c, 0, 64, 76
1, 264948, Control_c, 0, 64, 75
1, 264963, Control_c, 0, 64, 75
1, 264976, Note_on_c, 0, 80, 67
1, 264978, Control_c, 0, 64, 74
1, 264993, Control_c, 0, 64, 74
1, 265008, Control_c, 0, 64, 73
1, 265022, Control_c, 0, 64, 72
1, 265037, Control_c, 0, 64, 72
1, 265052, Control_c, 0, 64, 71
1, 265067, Control_c, 0, 64, 69
1, 265073, Note_off_c, 0, 82, 37
1, 265082, Control_c, 0, 64, 68
1, 265096, Control_c, 0, 64, 67
1, 265111, Control_c, 0, 64, 66
1, 265126, Control_c, 0, 64, 66
1, 265141, Control_c, 0, 64, 65
1, 265156, Control_c, 0, 64, 65
1, 265171, Control_c, 0, 64, 64
1, 265183, Note_on_c, 0, 79, 56
1, 265186, Control_c, 0, 64, 63
1, 265198, Note_on_c, 0, 58, 38
1, 265201, Control_c, 0, 64, 63
1, 265226, Note_off_c, 0, 80, 57
1, 265231, Control_c, 0, 64, 62
1, 265245, Control_c, 0, 64, 62
1, 265275, Control_c, 0, 64, 61
1, 265290, Control_c, 0, 64, 61
1, 265327, Control_c, 0, 64, 60
1, 265333, Note_off_c, 0, 61, 36
1, 265342, Control_c, 0, 64, 60
1, 265372, Control_c, 0, 64, 59
1, 265385, Note_off_c, 0, 79, 61
1, 265401, Control_c, 0, 64, 59
1, 265404, Note_on_c, 0, 77, 60
1, 265416, Control_c, 0, 64, 58
1, 265445, Control_c, 0, 64, 58
1, 265475, Control_c, 0, 64, 57
1, 265505, Control_c, 0, 64, 57
1, 265520, Control_c, 0, 67, 44
1, 265535, Control_c, 0, 67, 58
1, 265549, Control_c, 0, 64, 56
1, 265549, Control_c, 0, 67, 73
1, 265564, Control_c, 0, 64, 56
1, 265564, Control_c, 0, 67, 90
1, 265579, Control_c, 0, 67, 107
1, 265594, Control_c, 0, 64, 55
1, 265594, Control_c, 0, 67, 123
1, 265609, Control_c, 0, 67, 127
1, 265639, Control_c, 0, 64, 55
1, 265683, Control_c, 0, 64, 54
1, 265708, Note_on_c, 0, 76, 51
1, 265727, Control_c, 0, 64, 54
1, 265769, Note_on_c, 0, 60, 32
1, 265779, Note_off_c, 0, 58, 51
1, 265800, Note_off_c, 0, 77, 39
1, 265831, Control_c, 0, 64, 53
1, 265982, Note_off_c, 0, 76, 62
1, 265994, Control_c, 0, 64, 54
1, 266001, Note_on_c, 0, 77, 57
1, 266075, Note_off_c, 0, 77, 61
1, 266096, Note_on_c, 0, 76, 62
1, 266153, Note_off_c, 0, 76, 61
1, 266172, Note_on_c, 0, 74, 58
1, 266237, Note_off_c, 0, 74, 57
1, 266247, Note_on_c, 0, 76, 57
1, 266351, Note_on_c, 0, 68, 38
1, 266364, Note_off_c, 0, 76, 61
1, 266375, Note_on_c, 0, 79, 60
1, 266488, Note_off_c, 0, 70, 38
1, 266580, Note_on_c, 0, 77, 64
1, 266699, Note_off_c, 0, 79, 32
1, 266769, Note_on_c, 0, 75, 66
1, 266802, Note_on_c, 0, 65, 44
1, 266887, Note_off_c, 0, 77, 39
1, 266892, Note_off_c, 0, 68, 48
1, 266977, Note_on_c, 0, 73, 63
1, 267076, Note_off_c, 0, 75, 53
1, 267162, Note_on_c, 0, 72, 63
1, 267179, Note_on_c, 0, 61, 43
1, 267205, Note_off_c, 0, 73, 61
1, 267241, Note_off_c, 0, 60, 43
1, 267298, Control_c, 0, 64, 54
1, 267313, Control_c, 0, 64, 57
1, 267328, Control_c, 0, 64, 61
1, 267342, Control_c, 0, 64, 66
1, 267353, Note_on_c, 0, 71, 64
1, 267357, Control_c, 0, 64, 71
1, 267372, Control_c, 0, 64, 77
1, 267387, Control_c, 0, 64, 81
1, 267402, Control_c, 0, 64, 84
1, 267409, Note_off_c, 0, 72, 53
1, 267416, Control_c, 0, 64, 86
1, 267431, Control_c, 0, 64, 88
1, 267447, Control_c, 0, 64, 89
1, 267457, Note_off_c, 0, 71, 59
1, 267462, Control_c, 0, 64, 90
1, 267618, Note_on_c, 0, 71, 61
1, 267645, Note_on_c, 0, 60, 43
1, 267648, Control_c, 0, 64, 89
1, 267663, Control_c, 0, 64, 89
1, 267678, Control_c, 0, 64, 87
1, 267693, Control_c, 0, 64, 85
1, 267708, Control_c, 0, 64, 81
1, 267722, Control_c, 0, 64, 76
1, 267733, Note_off_c, 0, 61, 36
1, 267737, Control_c, 0, 64, 68
1, 267752, Control_c, 0, 64, 59
1, 267767, Control_c, 0, 64, 44
1, 267781, Control_c, 0, 64, 0
1, 267802, Note_off_c, 0, 65, 47
1, 267841, Control_c, 0, 64, 33
1, 267855, Control_c, 0, 64, 45
1, 267870, Control_c, 0, 64, 56
1, 267885, Control_c, 0, 64, 63
1, 267900, Control_c, 0, 64, 65
1, 267915, Control_c, 0, 64, 67
1, 267929, Control_c, 0, 64, 69
1, 267944, Control_c, 0, 64, 72
1, 267959, Control_c, 0, 64, 75
1, 267973, Control_c, 0, 64, 77
1, 267988, Control_c, 0, 64, 78
1, 268018, Control_c, 0, 64, 78
1, 268066, Note_on_c, 0, 68, 55
1, 268089, Note_on_c, 0, 65, 46
1, 268092, Control_c, 0, 64, 75
1, 268107, Control_c, 0, 64, 66
1, 268122, Control_c, 0, 64, 54
1, 268137, Control_c, 0, 64, 44
1, 268152, Control_c, 0, 64, 46
1, 268166, Control_c, 0, 64, 52
1, 268181, Control_c, 0, 64, 59
1, 268196, Control_c, 0, 64, 65
1, 268211, Control_c, 0, 64, 69
1, 268226, Control_c, 0, 64, 73
1, 268240, Control_c, 0, 64, 77
1, 268255, Control_c, 0, 64, 81
1, 268270, Control_c, 0, 64, 83
1, 268276, Note_off_c, 0, 71, 55
1, 268292, Control_c, 0, 64, 86
1, 268295, Note_off_c, 0, 68, 53
1, 268307, Control_c, 0, 64, 88
1, 268322, Control_c, 0, 64, 89
1, 268326, Note_off_c, 0, 65, 35
1, 268352, Control_c, 0, 64, 89
1, 268512, Note_on_c, 0, 72, 50
1, 268515, Note_on_c, 0, 67, 49
1, 268515, Control_c, 0, 64, 89
1, 268530, Control_c, 0, 64, 88
1, 268539, Note_on_c, 0, 64, 45
1, 268545, Control_c, 0, 64, 86
1, 268560, Control_c, 0, 64, 83
1, 268575, Control_c, 0, 64, 79
1, 268590, Control_c, 0, 64, 72
1, 268604, Control_c, 0, 64, 62
1, 268619, Control_c, 0, 64, 49
1, 268634, Control_c, 0, 64, 0
1, 268693, Control_c, 0, 64, 37
1, 268708, Control_c, 0, 64, 56
1, 268722, Control_c, 0, 64, 64
1, 268737, Control_c, 0, 64, 68
1, 268752, Control_c, 0, 64, 71
1, 268767, Control_c, 0, 64, 75
1, 268782, Control_c, 0, 64, 78
1, 268787, Note_off_c, 0, 72, 55
1, 268796, Control_c, 0, 64, 81
1, 268811, Control_c, 0, 64, 84
1, 268826, Control_c, 0, 64, 85
1, 268841, Control_c, 0, 64, 86
1, 268975, Control_c, 0, 64, 85
1, 268978, Note_on_c, 0, 70, 55
1, 268989, Control_c, 0, 64, 80
1, 269004, Control_c, 0, 64, 68
1, 269019, Control_c, 0, 64, 54
1, 269034, Control_c, 0, 64, 34
1, 269056, Control_c, 0, 64, 29
1, 269070, Control_c, 0, 64, 35
1, 269085, Control_c, 0, 64, 46
1, 269085, Control_c, 0, 67, 119
1, 269100, Control_c, 0, 64, 58
1, 269100, Control_c, 0, 67, 86
1, 269115, Control_c, 0, 64, 66
1, 269115, Control_c, 0, 67, 54
1, 269130, Control_c, 0, 64, 69
1, 269130, Control_c, 0, 67, 0
1, 269144, Control_c, 0, 64, 73
1, 269159, Control_c, 0, 64, 77
1, 269175, Control_c, 0, 64, 80
1, 269190, Control_c, 0, 64, 84
1, 269205, Control_c, 0, 64, 87
1, 269210, Note_off_c, 0, 70, 50
1, 269219, Control_c, 0, 64, 90
1, 269234, Control_c, 0, 64, 92
1, 269238, Note_off_c, 0, 67, 37
1, 269249, Control_c, 0, 64, 94
1, 269264, Control_c, 0, 64, 95
1, 269279, Control_c, 0, 64, 95
1, 269300, Note_off_c, 0, 64, 60
1, 269308, Note_off_c, 0, 60, 32
1, 269323, Control_c, 0, 64, 96
1, 269398, Control_c, 0, 64, 95
1, 269481, Note_on_c, 0, 68, 49
1, 269487, Control_c, 0, 64, 95
1, 269495, Note_on_c, 0, 65, 43
1, 269501, Control_c, 0, 64, 94
1, 269516, Control_c, 0, 64, 93
1, 269531, Control_c, 0, 64, 91
1, 269545, Control_c, 0, 64, 88
1, 269560, Control_c, 0, 64, 86
1, 269575, Control_c, 0, 64, 82
1, 269590, Control_c, 0, 64, 79
1, 269605, Control_c, 0, 64, 74
1, 269619, Control_c, 0, 64, 68
1, 269634, Control_c, 0, 64, 62
1, 269649, Control_c, 0, 64, 56
1, 269664, Control_c, 0, 64, 52
1, 269679, Control_c, 0, 64, 48
1, 269693, Control_c, 0, 64, 42
1, 269708, Control_c, 0, 64, 36
1, 269723, Control_c, 0, 64, 34
1, 269738, Control_c, 0, 64, 37
1, 269753, Control_c, 0, 64, 45
1, 269767, Control_c, 0, 64, 53
1, 269782, Control_c, 0, 64, 60
1, 269805, Control_c, 0, 64, 63
1, 269819, Control_c, 0, 64, 65
1, 269834, Control_c, 0, 64, 67
1, 269849, Control_c, 0, 64, 69
1, 269864, Control_c, 0, 64, 71
1, 269879, Control_c, 0, 64, 73
1, 269893, Control_c, 0, 64, 74
1, 269908, Control_c, 0, 64, 75
1, 269923, Control_c, 0, 64, 76
1, 269938, Control_c, 0, 64, 77
1, 269952, Control_c, 0, 64, 78
1, 269975, Note_on_c, 0, 72, 47
1, 269998, Control_c, 0, 64, 76
1, 270013, Control_c, 0, 64, 68
1, 270028, Control_c, 0, 64, 60
1, 270042, Control_c, 0, 64, 58
1, 270057, Control_c, 0, 64, 61
1, 270072, Control_c, 0, 64, 64
1, 270087, Control_c, 0, 64, 67
1, 270102, Control_c, 0, 64, 72
1, 270107, Note_off_c, 0, 68, 50
1, 270116, Control_c, 0, 64, 77
1, 270131, Control_c, 0, 64, 81
1, 270146, Control_c, 0, 64, 83
1, 270158, Note_off_c, 0, 72, 57
1, 270161, Control_c, 0, 64, 84
1, 270176, Control_c, 0, 64, 86
1, 270191, Control_c, 0, 64, 87
1, 270206, Control_c, 0, 64, 87
1, 270221, Control_c, 0, 64, 88
1, 270221, Note_off_c, 0, 65, 51
1, 270345, Note_on_c, 0, 67, 56
1, 270361, Note_on_c, 0, 64, 47
1, 270383, Control_c, 0, 64, 87
1, 270398, Control_c, 0, 64, 82
1, 270413, Control_c, 0, 64, 73
1, 270428, Control_c, 0, 64, 62
1, 270442, Control_c, 0, 64, 45
1, 270457, Control_c, 0, 64, 42
1, 270472, Control_c, 0, 64, 48
1, 270486, Control_c, 0, 64, 56
1, 270501, Control_c, 0, 64, 63
1, 270516, Control_c, 0, 64, 68
1, 270531, Control_c, 0, 64, 73
1, 270554, Control_c, 0, 64, 77
1, 270568, Control_c, 0, 64, 79
1, 270583, Control_c, 0, 64, 80
1, 270598, Control_c, 0, 64, 82
1, 270613, Control_c, 0, 64, 83
1, 270628, Control_c, 0, 64, 84
1, 270642, Control_c, 0, 64, 84
1, 270746, Control_c, 0, 64, 80
1, 270761, Control_c, 0, 64, 70
1, 270762, Note_on_c, 0, 72, 50
1, 270773, Note_on_c, 0, 60, 64
1, 270777, Control_c, 0, 64, 58
1, 270791, Control_c, 0, 64, 44
1, 270806, Control_c, 0, 64, 46
1, 270821, Control_c, 0, 64, 55
1, 270836, Control_c, 0, 64, 63
1, 270851, Control_c, 0, 64, 70
1, 270856, Note_off_c, 0, 60, 63
1, 270865, Control_c, 0, 64, 76
1, 270880, Control_c, 0, 64, 80
1, 270883, Note_off_c, 0, 67, 60
1, 270895, Control_c, 0, 64, 83
1, 270910, Control_c, 0, 64, 87
1, 270924, Control_c, 0, 64, 90
1, 270939, Control_c, 0, 64, 93
1, 270954, Control_c, 0, 64, 96
1, 270987, Note_off_c, 0, 72, 39
1, 271086, Note_on_c, 0, 60, 61
1, 271109, Note_off_c, 0, 60, 65
1, 271168, Note_on_c, 0, 60, 70
1, 271171, Note_on_c, 0, 66, 58
1, 271182, Note_on_c, 0, 63, 57
1, 271191, Control_c, 0, 64, 93
1, 271206, Control_c, 0, 64, 87
1, 271221, Control_c, 0, 64, 77
1, 271236, Control_c, 0, 64, 65
1, 271251, Control_c, 0, 64, 44
1, 271265, Control_c, 0, 64, 0
1, 271303, Control_c, 0, 64, 30
1, 271317, Control_c, 0, 64, 45
1, 271332, Control_c, 0, 64, 59
1, 271347, Control_c, 0, 64, 65
1, 271362, Control_c, 0, 64, 70
1, 271374, Note_off_c, 0, 64, 40
1, 271377, Control_c, 0, 64, 73
1, 271391, Control_c, 0, 64, 76
1, 271406, Control_c, 0, 64, 79
1, 271421, Control_c, 0, 64, 82
1, 271436, Control_c, 0, 64, 85
1, 271451, Control_c, 0, 64, 87
1, 271465, Control_c, 0, 64, 89
1, 271480, Control_c, 0, 64, 89
1, 271577, Note_off_c, 0, 60, 62
1, 271585, Note_on_c, 0, 57, 64
1, 271593, Note_on_c, 0, 72, 50
1, 271614, Control_c, 0, 64, 88
1, 271629, Control_c, 0, 64, 82
1, 271644, Control_c, 0, 64, 72
1, 271659, Control_c, 0, 64, 62
1, 271674, Control_c, 0, 64, 45
1, 271688, Control_c, 0, 64, 41
1, 271703, Control_c, 0, 64, 46
1, 271718, Control_c, 0, 64, 55
1, 271733, Control_c, 0, 64, 62
1, 271743, Note_off_c, 0, 66, 49
1, 271747, Control_c, 0, 64, 67
1, 271762, Control_c, 0, 64, 74
1, 271777, Control_c, 0, 64, 78
1, 271792, Control_c, 0, 64, 80
1, 271807, Control_c, 0, 64, 83
1, 271821, Control_c, 0, 64, 85
1, 271836, Control_c, 0, 64, 87
1, 271851, Control_c, 0, 64, 88
1, 271854, Note_off_c, 0, 57, 59
1, 271866, Control_c, 0, 64, 89
1, 271881, Control_c, 0, 64, 89
1, 271911, Control_c, 0, 64, 90
1, 272000, Control_c, 0, 64, 89
1, 272024, Note_on_c, 0, 69, 52
1, 272054, Note_on_c, 0, 53, 47
1, 272081, Control_c, 0, 64, 88
1, 272096, Control_c, 0, 64, 86
1, 272110, Control_c, 0, 64, 79
1, 272125, Control_c, 0, 64, 68
1, 272127, Note_off_c, 0, 72, 34
1, 272140, Control_c, 0, 64, 54
1, 272155, Control_c, 0, 64, 34
1, 272170, Control_c, 0, 64, 31
1, 272185, Control_c, 0, 64, 41
1, 272200, Control_c, 0, 64, 54
1, 272214, Control_c, 0, 64, 64
1, 272224, Note_off_c, 0, 63, 59
1, 272229, Control_c, 0, 64, 70
1, 272244, Control_c, 0, 64, 75
1, 272247, Note_off_c, 0, 53, 63
1, 272259, Control_c, 0, 64, 79
1, 272273, Control_c, 0, 64, 82
1, 272288, Control_c, 0, 64, 85
1, 272303, Control_c, 0, 64, 88
1, 272318, Control_c, 0, 64, 89
1, 272333, Control_c, 0, 64, 90
1, 272347, Control_c, 0, 64, 91
1, 272363, Control_c, 0, 64, 91
1, 272378, Control_c, 0, 64, 92
1, 272482, Control_c, 0, 64, 91
1, 272496, Note_on_c, 0, 72, 52
1, 272497, Control_c, 0, 64, 85
1, 272506, Note_on_c, 0, 57, 67
1, 272511, Control_c, 0, 64, 72
1, 272526, Control_c, 0, 64, 59
1, 272531, Note_on_c, 0, 63, 36
1, 272541, Control_c, 0, 64, 44
1, 272556, Control_c, 0, 64, 44
1, 272570, Control_c, 0, 64, 53
1, 272584, Note_off_c, 0, 69, 59
1, 272585, Control_c, 0, 64, 64
1, 272600, Control_c, 0, 64, 73
1, 272609, Note_off_c, 0, 57, 63
1, 272615, Control_c, 0, 64, 84
1, 272630, Control_c, 0, 64, 91
1, 272644, Control_c, 0, 64, 94
1, 272659, Control_c, 0, 64, 98
1, 272674, Control_c, 0, 64, 102
1, 272689, Control_c, 0, 64, 106
1, 272704, Control_c, 0, 64, 108
1, 272820, Note_on_c, 0, 57, 67
1, 272867, Note_off_c, 0, 57, 59
1, 272874, Control_c, 0, 64, 98
1, 272888, Control_c, 0, 64, 78
1, 272903, Control_c, 0, 64, 61
1, 272909, Note_on_c, 0, 58, 71
1, 272909, Note_on_c, 0, 65, 57
1, 272918, Control_c, 0, 64, 33
1, 272921, Note_off_c, 0, 72, 51
1, 272933, Control_c, 0, 64, 0
1, 272978, Control_c, 0, 64, 41
1, 272993, Control_c, 0, 64, 59
1, 273008, Control_c, 0, 64, 65
1, 273023, Control_c, 0, 64, 69
1, 273037, Control_c, 0, 64, 72
1, 273052, Control_c, 0, 64, 75
1, 273067, Control_c, 0, 64, 79
1, 273082, Control_c, 0, 64, 83
1, 273096, Control_c, 0, 64, 86
1, 273111, Control_c, 0, 64, 88
1, 273126, Control_c, 0, 64, 89
1, 273141, Control_c, 0, 64, 90
1, 273156, Control_c, 0, 64, 91
1, 273275, Control_c, 0, 64, 90
1, 273288, Note_off_c, 0, 65, 54
1, 273290, Control_c, 0, 64, 90
1, 273294, Note_on_c, 0, 70, 58
1, 273305, Control_c, 0, 64, 84
1, 273306, Note_on_c, 0, 61, 44
1, 273314, Note_on_c, 0, 55, 59
1, 273319, Control_c, 0, 64, 74
1, 273334, Control_c, 0, 64, 61
1, 273349, Control_c, 0, 64, 40
1, 273364, Control_c, 0, 64, 0
1, 273389, Note_off_c, 0, 58, 51
1, 273408, Control_c, 0, 64, 44
1, 273423, Control_c, 0, 64, 58
1, 273438, Control_c, 0, 64, 65
1, 273452, Control_c, 0, 64, 70
1, 273458, Note_off_c, 0, 63, 37
1, 273466, Control_c, 0, 64, 74
1, 273481, Control_c, 0, 64, 78
1, 273496, Control_c, 0, 64, 84
1, 273510, Control_c, 0, 64, 87
1, 273525, Control_c, 0, 64, 90
1, 273547, Control_c, 0, 64, 92
1, 273562, Control_c, 0, 64, 93
1, 273564, Note_off_c, 0, 55, 59
1, 273577, Control_c, 0, 64, 93
1, 273592, Control_c, 0, 64, 94
1, 273696, Control_c, 0, 64, 93
1, 273702, Note_on_c, 0, 67, 53
1, 273710, Control_c, 0, 64, 93
1, 273725, Control_c, 0, 64, 89
1, 273730, Note_on_c, 0, 51, 51
1, 273740, Control_c, 0, 64, 80
1, 273755, Control_c, 0, 64, 66
1, 273770, Control_c, 0, 64, 48
1, 273784, Control_c, 0, 64, 0
1, 273814, Control_c, 0, 64, 36
1, 273816, Note_off_c, 0, 70, 51
1, 273829, Control_c, 0, 64, 54
1, 273844, Control_c, 0, 64, 65
1, 273858, Control_c, 0, 64, 71
1, 273873, Control_c, 0, 64, 78
1, 273882, Note_off_c, 0, 51, 62
1, 273888, Control_c, 0, 64, 84
1, 273903, Control_c, 0, 64, 90
1, 273917, Control_c, 0, 64, 99
1, 273932, Control_c, 0, 64, 106
1, 273935, Note_off_c, 0, 61, 58
1, 273947, Control_c, 0, 64, 112
1, 273963, Control_c, 0, 64, 117
1, 273993, Control_c, 0, 64, 119
1, 274111, Control_c, 0, 64, 114
1, 274126, Control_c, 0, 64, 101
1, 274140, Control_c, 0, 64, 82
1, 274155, Note_on_c, 0, 70, 54
1, 274155, Control_c, 0, 64, 66
1, 274170, Control_c, 0, 64, 49
1, 274185, Note_on_c, 0, 55, 59
1, 274185, Control_c, 0, 64, 29
1, 274195, Note_on_c, 0, 61, 31
1, 274201, Control_c, 0, 64, 0
1, 274209, Note_off_c, 0, 67, 38
1, 274215, Control_c, 0, 64, 38
1, 274230, Control_c, 0, 64, 54
1, 274245, Control_c, 0, 64, 64
1, 274260, Control_c, 0, 64, 69
1, 274275, Control_c, 0, 64, 75
1, 274286, Note_off_c, 0, 55, 62
1, 274297, Control_c, 0, 64, 80
1, 274312, Control_c, 0, 64, 84
1, 274327, Control_c, 0, 64, 89
1, 274341, Control_c, 0, 64, 94
1, 274356, Control_c, 0, 64, 97
1, 274386, Control_c, 0, 64, 99
1, 274506, Note_on_c, 0, 55, 64
1, 274534, Control_c, 0, 64, 97
1, 274548, Note_off_c, 0, 55, 59
1, 274549, Control_c, 0, 64, 84
1, 274564, Control_c, 0, 64, 67
1, 274579, Control_c, 0, 64, 46
1, 274594, Control_c, 0, 64, 0
1, 274597, Note_on_c, 0, 56, 63
1, 274602, Note_on_c, 0, 63, 58
1, 274638, Control_c, 0, 64, 34
1, 274652, Note_off_c, 0, 70, 60
1, 274653, Control_c, 0, 64, 54
1, 274667, Control_c, 0, 64, 63
1, 274682, Control_c, 0, 64, 68
1, 274697, Control_c, 0, 64, 73
1, 274712, Control_c, 0, 64, 78
1, 274727, Control_c, 0, 64, 84
1, 274741, Control_c, 0, 64, 89
1, 274757, Control_c, 0, 64, 94
1, 274772, Control_c, 0, 64, 98
1, 274787, Control_c, 0, 64, 101
1, 274831, Control_c, 0, 64, 103
1, 274930, Note_off_c, 0, 61, 39
1, 274950, Control_c, 0, 64, 97
1, 274964, Control_c, 0, 64, 83
1, 274979, Control_c, 0, 64, 66
1, 274994, Control_c, 0, 64, 45
1, 275004, Note_on_c, 0, 68, 59
1, 275009, Control_c, 0, 64, 0
1, 275017, Note_on_c, 0, 60, 44
1, 275033, Note_on_c, 0, 51, 47
1, 275061, Control_c, 0, 64, 51
1, 275065, Note_off_c, 0, 56, 47
1, 275076, Control_c, 0, 64, 65
1, 275082, Note_off_c, 0, 63, 62
1, 275090, Control_c, 0, 64, 73
1, 275101, Note_off_c, 0, 60, 61
1, 275105, Control_c, 0, 64, 81
1, 275120, Control_c, 0, 64, 87
1, 275125, Note_off_c, 0, 68, 61
1, 275135, Control_c, 0, 64, 94
1, 275150, Control_c, 0, 64, 101
1, 275164, Control_c, 0, 64, 110
1, 275179, Control_c, 0, 64, 122
1, 275194, Control_c, 0, 64, 127
1, 275269, Note_off_c, 0, 51, 36
1, 275348, Note_on_c, 0, 68, 64
1, 275372, Control_c, 0, 64, 122
1, 275375, Note_off_c, 0, 68, 63
1, 275386, Control_c, 0, 64, 112
1, 275401, Control_c, 0, 64, 103
1, 275416, Control_c, 0, 64, 93
1, 275431, Control_c, 0, 64, 80
1, 275433, Note_on_c, 0, 64, 71
1, 275446, Control_c, 0, 64, 68
1, 275461, Control_c, 0, 64, 56
1, 275476, Control_c, 0, 64, 36
1, 275478, Note_on_c, 0, 48, 52
1, 275490, Control_c, 0, 64, 0
1, 275565, Control_c, 0, 64, 39
1, 275580, Control_c, 0, 64, 57
1, 275595, Control_c, 0, 64, 64
1, 275610, Control_c, 0, 64, 67
1, 275625, Control_c, 0, 64, 71
1, 275640, Control_c, 0, 64, 78
1, 275654, Control_c, 0, 64, 83
1, 275669, Control_c, 0, 64, 86
1, 275683, Note_off_c, 0, 64, 63
1, 275684, Control_c, 0, 64, 89
1, 275699, Control_c, 0, 64, 91
1, 275713, Control_c, 0, 64, 92
1, 275728, Control_c, 0, 64, 94
1, 275743, Control_c, 0, 64, 94
1, 275758, Control_c, 0, 64, 95
1, 275899, Control_c, 0, 64, 93
1, 275913, Control_c, 0, 64, 81
1, 275914, Note_on_c, 0, 68, 54
1, 275928, Control_c, 0, 64, 66
1, 275929, Note_on_c, 0, 60, 62
1, 275943, Control_c, 0, 64, 47
1, 275958, Control_c, 0, 64, 33
1, 275973, Control_c, 0, 64, 38
1, 275987, Control_c, 0, 64, 50
1, 275999, Note_off_c, 0, 68, 59
1, 276002, Control_c, 0, 64, 61
1, 276017, Control_c, 0, 64, 67
1, 276032, Control_c, 0, 64, 71
1, 276047, Control_c, 0, 64, 75
1, 276061, Control_c, 0, 64, 81
1, 276076, Control_c, 0, 64, 85
1, 276091, Control_c, 0, 64, 87
1, 276105, Control_c, 0, 64, 89
1, 276120, Control_c, 0, 64, 90
1, 276135, Control_c, 0, 64, 90
1, 276143, Note_off_c, 0, 48, 54
1, 276263, Note_on_c, 0, 68, 53
1, 276269, Control_c, 0, 64, 90
1, 276284, Control_c, 0, 64, 89
1, 276299, Control_c, 0, 64, 88
1, 276303, Note_off_c, 0, 68, 60
1, 276313, Control_c, 0, 64, 84
1, 276328, Control_c, 0, 64, 79
1, 276343, Control_c, 0, 64, 73
1, 276353, Note_on_c, 0, 65, 53
1, 276358, Control_c, 0, 64, 64
1, 276373, Control_c, 0, 64, 55
1, 276388, Note_on_c, 0, 49, 41
1, 276388, Control_c, 0, 64, 42
1, 276403, Control_c, 0, 64, 0
1, 276506, Control_c, 0, 64, 43
1, 276521, Control_c, 0, 64, 57
1, 276543, Control_c, 0, 64, 63
1, 276558, Control_c, 0, 64, 66
1, 276573, Control_c, 0, 64, 70
1, 276588, Control_c, 0, 64, 74
1, 276590, Note_off_c, 0, 60, 59
1, 276603, Control_c, 0, 64, 79
1, 276617, Control_c, 0, 64, 85
1, 276622, Note_off_c, 0, 65, 37
1, 276632, Control_c, 0, 64, 90
1, 276647, Control_c, 0, 64, 92
1, 276662, Control_c, 0, 64, 94
1, 276677, Control_c, 0, 64, 96
1, 276706, Control_c, 0, 64, 98
1, 276819, Note_on_c, 0, 77, 56
1, 276854, Control_c, 0, 64, 90
1, 276858, Note_on_c, 0, 58, 56
1, 276868, Control_c, 0, 64, 73
1, 276883, Control_c, 0, 64, 58
1, 276898, Control_c, 0, 64, 38
1, 276913, Control_c, 0, 64, 31
1, 276915, Note_off_c, 0, 77, 59
1, 276928, Control_c, 0, 64, 36
1, 276942, Control_c, 0, 64, 49
1, 276957, Control_c, 0, 64, 61
1, 276972, Control_c, 0, 64, 66
1, 276987, Control_c, 0, 64, 70
1, 277002, Control_c, 0, 64, 74
1, 277017, Control_c, 0, 64, 78
1, 277032, Control_c, 0, 64, 82
1, 277047, Control_c, 0, 64, 85
1, 277061, Control_c, 0, 64, 87
1, 277076, Control_c, 0, 64, 88
1, 277160, Note_on_c, 0, 77, 60
1, 277208, Note_off_c, 0, 77, 55
1, 277211, Note_off_c, 0, 49, 54
1, 277226, Control_c, 0, 64, 87
1, 277241, Control_c, 0, 64, 86
1, 277241, Control_c, 0, 67, 40
1, 277255, Control_c, 0, 64, 83
1, 277255, Control_c, 0, 67, 65
1, 277269, Note_on_c, 0, 67, 53
1, 277270, Control_c, 0, 64, 76
1, 277270, Control_c, 0, 67, 90
1, 277292, Control_c, 0, 64, 69
1, 277292, Control_c, 0, 67, 106
1, 277294, Note_on_c, 0, 51, 43
1, 277307, Control_c, 0, 64, 61
1, 277307, Control_c, 0, 67, 115
1, 277322, Control_c, 0, 64, 48
1, 277322, Control_c, 0, 67, 119
1, 277337, Control_c, 0, 64, 0
1, 277352, Control_c, 0, 67, 121
1, 277426, Control_c, 0, 64, 45
1, 277426, Control_c, 0, 67, 123
1, 277440, Control_c, 0, 64, 58
1, 277455, Control_c, 0, 64, 63
1, 277470, Control_c, 0, 64, 67
1, 277485, Control_c, 0, 64, 73
1, 277500, Control_c, 0, 64, 79
1, 277515, Control_c, 0, 64, 84
1, 277521, Note_off_c, 0, 67, 49
1, 277530, Control_c, 0, 64, 89
1, 277539, Note_off_c, 0, 58, 55
1, 277545, Control_c, 0, 64, 92
1, 277545, Control_c, 0, 67, 125
1, 277559, Control_c, 0, 64, 95
1, 277574, Control_c, 0, 64, 97
1, 277692, Control_c, 0, 67, 127
1, 277751, Control_c, 0, 64, 95
1, 277762, Note_on_c, 0, 70, 51
1, 277766, Control_c, 0, 64, 87
1, 277781, Control_c, 0, 64, 69
1, 277782, Note_on_c, 0, 61, 45
1, 277796, Control_c, 0, 64, 52
1, 277811, Control_c, 0, 64, 0
1, 277855, Control_c, 0, 64, 45
1, 277870, Control_c, 0, 64, 60
1, 277873, Note_off_c, 0, 70, 60
1, 277884, Control_c, 0, 64, 66
1, 277899, Control_c, 0, 64, 69
1, 277914, Control_c, 0, 64, 71
1, 277929, Control_c, 0, 64, 74
1, 277944, Control_c, 0, 64, 77
1, 277960, Control_c, 0, 64, 78
1, 277974, Control_c, 0, 64, 79
1, 277989, Control_c, 0, 64, 80
1, 278120, Note_on_c, 0, 70, 58
1, 278145, Control_c, 0, 64, 79
1, 278171, Note_off_c, 0, 70, 49
1, 278175, Control_c, 0, 64, 77
1, 278189, Control_c, 0, 64, 74
1, 278204, Control_c, 0, 64, 68
1, 278206, Note_on_c, 0, 68, 53
1, 278219, Control_c, 0, 64, 61
1, 278225, Note_on_c, 0, 60, 38
1, 278234, Control_c, 0, 64, 51
1, 278235, Note_on_c, 0, 56, 42
1, 278249, Control_c, 0, 64, 42
1, 278254, Note_off_c, 0, 51, 35
1, 278263, Control_c, 0, 64, 30
1, 278278, Control_c, 0, 64, 0
1, 278286, Note_off_c, 0, 61, 38
1, 278406, Note_off_c, 0, 60, 64
1, 278452, Note_off_c, 0, 56, 62
1, 278472, Note_off_c, 0, 68, 60
1, 278743, Note_on_c, 0, 44, 53
1, 278869, Note_off_c, 0, 44, 60
1, 279180, Note_on_c, 0, 44, 46
1, 279228, Note_off_c, 0, 44, 58
1, 279306, Note_on_c, 0, 32, 43
1, 279742, Note_off_c, 0, 32, 43
1, 280841, Note_on_c, 0, 72, 30
1, 280844, Note_on_c, 0, 68, 33
1, 280999, Control_c, 0, 67, 122
1, 281014, Control_c, 0, 67, 107
1, 281035, Control_c, 0, 67, 86
1, 281050, Control_c, 0, 67, 63
1, 281065, Control_c, 0, 64, 32
1, 281065, Control_c, 0, 67, 0
1, 281080, Control_c, 0, 64, 39
1, 281095, Control_c, 0, 64, 46
1, 281110, Control_c, 0, 64, 54
1, 281125, Control_c, 0, 64, 57
1, 281140, Control_c, 0, 64, 58
1, 281155, Control_c, 0, 64, 59
1, 281170, Control_c, 0, 64, 61
1, 281185, Control_c, 0, 64, 62
1, 281199, Control_c, 0, 64, 63
1, 281214, Control_c, 0, 64, 64
1, 281229, Control_c, 0, 64, 65
1, 281244, Control_c, 0, 64, 66
1, 281259, Control_c, 0, 64, 69
1, 281274, Control_c, 0, 64, 70
1, 281289, Control_c, 0, 64, 73
1, 281298, Note_on_c, 0, 75, 37
1, 281304, Control_c, 0, 64, 75
1, 281318, Control_c, 0, 64, 77
1, 281333, Control_c, 0, 64, 78
1, 281348, Control_c, 0, 64, 80
1, 281363, Control_c, 0, 64, 83
1, 281378, Control_c, 0, 64, 85
1, 281393, Control_c, 0, 64, 87
1, 281393, Note_off_c, 0, 72, 55
1, 281407, Control_c, 0, 64, 88
1, 281422, Control_c, 0, 64, 90
1, 281437, Control_c, 0, 64, 92
1, 281451, Control_c, 0, 64, 93
1, 281454, Note_off_c, 0, 75, 55
1, 281466, Control_c, 0, 64, 94
1, 281481, Control_c, 0, 64, 95
1, 281496, Control_c, 0, 64, 96
1, 281512, Note_off_c, 0, 68, 37
1, 281691, Note_on_c, 0, 66, 35
1, 281698, Note_on_c, 0, 70, 37
1, 281814, Control_c, 0, 64, 95
1, 281829, Control_c, 0, 64, 88
1, 281844, Control_c, 0, 64, 75
1, 281858, Control_c, 0, 64, 62
1, 281873, Control_c, 0, 64, 44
1, 281888, Control_c, 0, 64, 41
1, 281903, Control_c, 0, 64, 44
1, 281918, Control_c, 0, 64, 51
1, 281933, Control_c, 0, 64, 58
1, 281948, Control_c, 0, 64, 63
1, 281963, Control_c, 0, 64, 66
1, 281978, Control_c, 0, 64, 70
1, 281993, Control_c, 0, 64, 73
1, 282008, Control_c, 0, 64, 76
1, 282022, Control_c, 0, 64, 79
1, 282037, Control_c, 0, 64, 83
1, 282052, Control_c, 0, 64, 86
1, 282067, Control_c, 0, 64, 89
1, 282082, Control_c, 0, 64, 93
1, 282095, Note_on_c, 0, 87, 62
1, 282096, Control_c, 0, 64, 96
1, 282111, Control_c, 0, 64, 101
1, 282113, Note_on_c, 0, 75, 35
1, 282126, Control_c, 0, 64, 106
1, 282141, Control_c, 0, 64, 112
1, 282156, Control_c, 0, 64, 118
1, 282170, Note_off_c, 0, 87, 64
1, 282171, Control_c, 0, 64, 127
1, 282173, Note_off_c, 0, 70, 49
1, 282230, Note_off_c, 0, 75, 53
1, 282264, Note_off_c, 0, 66, 41
1, 282378, Control_c, 0, 67, 43
1, 282393, Control_c, 0, 67, 54
1, 282408, Control_c, 0, 67, 68
1, 282417, Note_on_c, 0, 87, 51
1, 282422, Control_c, 0, 67, 86
1, 282437, Control_c, 0, 67, 100
1, 282439, Note_off_c, 0, 87, 58
1, 282452, Control_c, 0, 67, 109
1, 282466, Control_c, 0, 67, 116
1, 282481, Control_c, 0, 67, 121
1, 282496, Control_c, 0, 67, 124
1, 282501, Note_on_c, 0, 87, 75
1, 282511, Control_c, 0, 67, 126
1, 282532, Note_on_c, 0, 65, 31
1, 282549, Control_c, 0, 64, 120
1, 282563, Control_c, 0, 64, 112
1, 282567, Note_on_c, 0, 69, 13
1, 282578, Control_c, 0, 64, 104
1, 282593, Control_c, 0, 64, 93
1, 282607, Control_c, 0, 64, 80
1, 282622, Control_c, 0, 64, 66
1, 282637, Control_c, 0, 64, 51
1, 282652, Control_c, 0, 64, 38
1, 282667, Control_c, 0, 64, 39
1, 282681, Control_c, 0, 64, 47
1, 282696, Control_c, 0, 64, 58
1, 282711, Control_c, 0, 64, 63
1, 282726, Control_c, 0, 64, 67
1, 282741, Control_c, 0, 64, 72
1, 282757, Control_c, 0, 64, 76
1, 282771, Control_c, 0, 64, 80
1, 282786, Control_c, 0, 64, 84
1, 282801, Control_c, 0, 64, 86
1, 282816, Control_c, 0, 64, 89
1, 282831, Control_c, 0, 64, 91
1, 282845, Control_c, 0, 64, 93
1, 282860, Control_c, 0, 64, 94
1, 282875, Control_c, 0, 64, 94
1, 282893, Note_on_c, 0, 85, 62
1, 282919, Control_c, 0, 64, 91
1, 282920, Note_on_c, 0, 75, 46
1, 282928, Note_off_c, 0, 87, 57
1, 282933, Note_on_c, 0, 72, 37
1, 282934, Control_c, 0, 64, 82
1, 282949, Control_c, 0, 64, 71
1, 282964, Control_c, 0, 64, 63
1, 282973, Note_off_c, 0, 69, 38
1, 282979, Control_c, 0, 64, 62
1, 282981, Note_off_c, 0, 85, 64
1, 282991, Note_on_c, 0, 84, 66
1, 282994, Control_c, 0, 64, 66
1, 283009, Control_c, 0, 64, 70
1, 283024, Control_c, 0, 64, 75
1, 283030, Note_off_c, 0, 84, 64
1, 283031, Note_off_c, 0, 75, 52
1, 283037, Note_off_c, 0, 72, 60
1, 283038, Control_c, 0, 64, 79
1, 283053, Control_c, 0, 64, 82
1, 283068, Control_c, 0, 64, 84
1, 283077, Note_on_c, 0, 82, 74
1, 283083, Control_c, 0, 64, 86
1, 283097, Control_c, 0, 64, 87
1, 283112, Control_c, 0, 64, 88
1, 283127, Control_c, 0, 64, 89
1, 283139, Note_off_c, 0, 82, 64
1, 283142, Control_c, 0, 64, 90
1, 283143, Note_on_c, 0, 81, 78
1, 283157, Control_c, 0, 64, 91
1, 283171, Control_c, 0, 64, 92
1, 283201, Control_c, 0, 64, 91
1, 283210, Note_off_c, 0, 81, 59
1, 283215, Control_c, 0, 64, 82
1, 283230, Control_c, 0, 64, 69
1, 283235, Note_on_c, 0, 82, 74
1, 283245, Control_c, 0, 64, 57
1, 283260, Control_c, 0, 64, 50
1, 283283, Control_c, 0, 64, 55
1, 283289, Note_on_c, 0, 73, 31
1, 283298, Control_c, 0, 64, 60
1, 283310, Note_on_c, 0, 70, 33
1, 283312, Control_c, 0, 64, 64
1, 283327, Control_c, 0, 64, 66
1, 283342, Control_c, 0, 64, 70
1, 283345, Note_off_c, 0, 82, 63
1, 283357, Control_c, 0, 64, 74
1, 283367, Note_on_c, 0, 84, 71
1, 283372, Control_c, 0, 64, 78
1, 283386, Control_c, 0, 64, 79
1, 283389, Note_off_c, 0, 65, 40
1, 283401, Control_c, 0, 64, 81
1, 283416, Control_c, 0, 64, 84
1, 283418, Note_off_c, 0, 84, 61
1, 283430, Control_c, 0, 64, 86
1, 283445, Control_c, 0, 64, 88
1, 283446, Note_on_c, 0, 82, 50
1, 283450, Note_off_c, 0, 70, 53
1, 283460, Control_c, 0, 64, 88
1, 283465, Note_on_c, 0, 81, 69
1, 283468, Note_off_c, 0, 82, 56
1, 283490, Control_c, 0, 64, 88
1, 283504, Control_c, 0, 64, 86
1, 283506, Note_off_c, 0, 81, 62
1, 283518, Note_on_c, 0, 82, 74
1, 283519, Control_c, 0, 64, 78
1, 283534, Control_c, 0, 64, 67
1, 283550, Control_c, 0, 64, 53
1, 283565, Control_c, 0, 64, 32
1, 283574, Note_on_c, 0, 84, 70
1, 283575, Note_off_c, 0, 82, 64
1, 283580, Control_c, 0, 64, 0
1, 283617, Note_off_c, 0, 73, 41
1, 283633, Note_off_c, 0, 84, 65
1, 283634, Note_on_c, 0, 68, 38
1, 283635, Note_on_c, 0, 85, 76
1, 283643, Note_on_c, 0, 64, 40
1, 283667, Note_off_c, 0, 85, 64
1, 283772, Control_c, 0, 64, 31
1, 283787, Control_c, 0, 64, 45
1, 283802, Control_c, 0, 64, 57
1, 283816, Control_c, 0, 64, 62
1, 283831, Control_c, 0, 64, 65
1, 283846, Control_c, 0, 64, 69
1, 283861, Control_c, 0, 64, 73
1, 283876, Control_c, 0, 64, 77
1, 283891, Control_c, 0, 64, 81
1, 283906, Note_off_c, 0, 68, 50
1, 283906, Control_c, 0, 64, 85
1, 283918, Note_off_c, 0, 64, 64
1, 283921, Control_c, 0, 64, 88
1, 283936, Control_c, 0, 64, 89
1, 283951, Control_c, 0, 64, 90
1, 283955, Note_on_c, 0, 85, 76
1, 283966, Control_c, 0, 64, 91
1, 283985, Note_off_c, 0, 85, 63
1, 284055, Note_on_c, 0, 85, 72
1, 284082, Note_on_c, 0, 67, 46
1, 284103, Note_on_c, 0, 63, 47
1, 284121, Control_c, 0, 64, 90
1, 284135, Control_c, 0, 64, 90
1, 284150, Control_c, 0, 64, 87
1, 284165, Control_c, 0, 64, 82
1, 284180, Control_c, 0, 64, 75
1, 284195, Control_c, 0, 64, 67
1, 284210, Control_c, 0, 64, 58
1, 284225, Control_c, 0, 64, 45
1, 284240, Control_c, 0, 64, 0
1, 284359, Control_c, 0, 64, 36
1, 284374, Control_c, 0, 64, 47
1, 284389, Control_c, 0, 64, 56
1, 284404, Control_c, 0, 64, 60
1, 284418, Control_c, 0, 64, 63
1, 284433, Control_c, 0, 64, 64
1, 284448, Control_c, 0, 64, 66
1, 284463, Control_c, 0, 64, 69
1, 284472, Note_on_c, 0, 84, 58
1, 284477, Control_c, 0, 64, 72
1, 284492, Control_c, 0, 64, 74
1, 284499, Note_on_c, 0, 73, 41
1, 284507, Note_on_c, 0, 70, 42
1, 284507, Control_c, 0, 64, 77
1, 284514, Note_off_c, 0, 85, 57
1, 284522, Control_c, 0, 64, 79
1, 284537, Control_c, 0, 64, 82
1, 284551, Control_c, 0, 64, 84
1, 284559, Note_off_c, 0, 84, 62
1, 284566, Control_c, 0, 64, 85
1, 284567, Note_on_c, 0, 82, 66
1, 284573, Note_off_c, 0, 67, 50
1, 284581, Control_c, 0, 64, 86
1, 284596, Control_c, 0, 64, 86
1, 284611, Control_c, 0, 64, 87
1, 284616, Note_off_c, 0, 73, 37
1, 284630, Note_off_c, 0, 70, 57
1, 284633, Note_off_c, 0, 82, 63
1, 284640, Control_c, 0, 64, 87
1, 284648, Note_on_c, 0, 80, 66
1, 284707, Note_off_c, 0, 80, 64
1, 284718, Note_on_c, 0, 79, 67
1, 284799, Note_off_c, 0, 79, 55
1, 284809, Control_c, 0, 64, 85
1, 284821, Note_on_c, 0, 80, 69
1, 284824, Control_c, 0, 64, 77
1, 284839, Control_c, 0, 64, 64
1, 284854, Control_c, 0, 64, 47
1, 284863, Note_on_c, 0, 72, 39
1, 284869, Control_c, 0, 64, 0
1, 284872, Note_on_c, 0, 68, 35
1, 284904, Note_off_c, 0, 80, 62
1, 284935, Note_on_c, 0, 82, 60
1, 284977, Note_off_c, 0, 82, 62
1, 285008, Note_on_c, 0, 80, 56
1, 285027, Note_off_c, 0, 80, 65
1, 285039, Note_on_c, 0, 79, 61
1, 285078, Note_off_c, 0, 79, 63
1, 285088, Note_on_c, 0, 80, 77
1, 285145, Note_off_c, 0, 80, 64
1, 285150, Note_on_c, 0, 82, 76
1, 285191, Note_on_c, 0, 84, 75
1, 285201, Note_off_c, 0, 82, 63
1, 285225, Note_off_c, 0, 84, 66
1, 285270, Control_c, 0, 64, 34
1, 285285, Control_c, 0, 64, 52
1, 285299, Control_c, 0, 64, 62
1, 285314, Control_c, 0, 64, 64
1, 285329, Control_c, 0, 64, 66
1, 285344, Control_c, 0, 64, 69
1, 285359, Control_c, 0, 64, 72
1, 285373, Control_c, 0, 64, 74
1, 285388, Control_c, 0, 64, 74
1, 285402, Note_off_c, 0, 63, 62
1, 285490, Note_on_c, 0, 84, 69
1, 285529, Control_c, 0, 64, 72
1, 285544, Control_c, 0, 64, 66
1, 285559, Control_c, 0, 64, 51
1, 285572, Note_on_c, 0, 82, 67
1, 285573, Control_c, 0, 64, 0
1, 285577, Note_off_c, 0, 68, 49
1, 285577, Note_off_c, 0, 84, 63
1, 285599, Note_off_c, 0, 82, 65
1, 285604, Note_on_c, 0, 64, 41
1, 285632, Control_c, 0, 64, 36
1, 285647, Control_c, 0, 64, 52
1, 285662, Control_c, 0, 64, 60
1, 285677, Control_c, 0, 64, 62
1, 285691, Control_c, 0, 64, 64
1, 285706, Control_c, 0, 64, 65
1, 285721, Control_c, 0, 64, 67
1, 285736, Control_c, 0, 64, 68
1, 285751, Control_c, 0, 64, 69
1, 285840, Control_c, 0, 64, 68
1, 285855, Control_c, 0, 64, 65
1, 285870, Control_c, 0, 64, 60
1, 285885, Control_c, 0, 64, 46
1, 285892, Note_on_c, 0, 82, 62
1, 285899, Control_c, 0, 64, 0
1, 285964, Note_on_c, 0, 80, 68
1, 285971, Note_off_c, 0, 64, 62
1, 285977, Note_off_c, 0, 82, 60
1, 285989, Control_c, 0, 64, 32
1, 285990, Note_on_c, 0, 65, 48
1, 285997, Note_off_c, 0, 80, 63
1, 286004, Control_c, 0, 64, 52
1, 286004, Control_c, 0, 67, 109
1, 286019, Control_c, 0, 64, 62
1, 286019, Control_c, 0, 67, 80
1, 286034, Control_c, 0, 64, 64
1, 286034, Control_c, 0, 67, 53
1, 286048, Control_c, 0, 64, 66
1, 286048, Control_c, 0, 67, 0
1, 286063, Control_c, 0, 64, 69
1, 286069, Note_off_c, 0, 72, 59
1, 286078, Control_c, 0, 64, 73
1, 286093, Control_c, 0, 64, 75
1, 286108, Control_c, 0, 64, 76
1, 286240, Control_c, 0, 64, 75
1, 286255, Control_c, 0, 64, 70
1, 286277, Control_c, 0, 64, 64
1, 286282, Note_on_c, 0, 80, 61
1, 286285, Note_off_c, 0, 65, 36
1, 286292, Control_c, 0, 64, 52
1, 286307, Control_c, 0, 64, 31
1, 286311, Note_off_c, 0, 80, 68
1, 286321, Control_c, 0, 64, 0
1, 286351, Note_on_c, 0, 79, 69
1, 286356, Note_on_c, 0, 70, 45
1, 286383, Note_on_c, 0, 58, 38
1, 286395, Control_c, 0, 64, 31
1, 286398, Note_off_c, 0, 79, 62
1, 286410, Control_c, 0, 64, 53
1, 286425, Control_c, 0, 64, 62
1, 286440, Control_c, 0, 64, 65
1, 286455, Control_c, 0, 64, 69
1, 286469, Control_c, 0, 64, 73
1, 286484, Control_c, 0, 64, 76
1, 286493, Note_off_c, 0, 70, 54
1, 286499, Control_c, 0, 64, 78
1, 286514, Control_c, 0, 64, 78
1, 286574, Control_c, 0, 64, 78
1, 286603, Control_c, 0, 64, 76
1, 286618, Control_c, 0, 64, 74
1, 286633, Control_c, 0, 64, 71
1, 286647, Control_c, 0, 64, 67
1, 286662, Control_c, 0, 64, 64
1, 286672, Note_on_c, 0, 79, 58
1, 286677, Control_c, 0, 64, 60
1, 286677, Control_c, 0, 67, 39
1, 286692, Control_c, 0, 64, 56
1, 286692, Control_c, 0, 67, 51
1, 286707, Control_c, 0, 64, 50
1, 286707, Control_c, 0, 67, 66
1, 286721, Control_c, 0, 64, 37
1, 286721, Control_c, 0, 67, 75
1, 286737, Control_c, 0, 64, 0
1, 286737, Control_c, 0, 67, 83
1, 286750, Note_on_c, 0, 77, 69
1, 286752, Note_off_c, 0, 79, 60
1, 286752, Control_c, 0, 67, 94
1, 286767, Control_c, 0, 67, 108
1, 286782, Control_c, 0, 67, 124
1, 286785, Note_on_c, 0, 68, 41
1, 286795, Note_on_c, 0, 59, 43
1, 286797, Control_c, 0, 67, 127
1, 286812, Note_off_c, 0, 58, 35
1, 286815, Note_off_c, 0, 77, 62
1, 286856, Control_c, 0, 64, 39
1, 286870, Control_c, 0, 64, 58
1, 286885, Control_c, 0, 64, 64
1, 286900, Control_c, 0, 64, 66
1, 286915, Control_c, 0, 64, 67
1, 286930, Control_c, 0, 64, 69
1, 286944, Control_c, 0, 64, 71
1, 286959, Control_c, 0, 64, 74
1, 286974, Control_c, 0, 64, 76
1, 286989, Control_c, 0, 64, 76
1, 287003, Note_off_c, 0, 59, 56
1, 287004, Control_c, 0, 64, 77
1, 287049, Note_on_c, 0, 77, 68
1, 287078, Note_off_c, 0, 77, 64
1, 287236, Note_on_c, 0, 76, 61
1, 287247, Note_on_c, 0, 60, 40
1, 287248, Control_c, 0, 64, 76
1, 287262, Control_c, 0, 64, 75
1, 287277, Control_c, 0, 64, 73
1, 287286, Note_off_c, 0, 76, 49
1, 287292, Control_c, 0, 64, 70
1, 287304, Note_on_c, 0, 77, 67
1, 287307, Control_c, 0, 64, 64
1, 287322, Control_c, 0, 64, 55
1, 287330, Note_off_c, 0, 77, 66
1, 287337, Control_c, 0, 64, 39
1, 287340, Note_off_c, 0, 68, 39
1, 287352, Control_c, 0, 64, 0
1, 287367, Note_on_c, 0, 79, 66
1, 287430, Note_on_c, 0, 77, 69
1, 287469, Note_off_c, 0, 79, 34
1, 287680, Note_on_c, 0, 71, 54
1, 287694, Note_on_c, 0, 68, 47
1, 287738, Control_c, 0, 64, 39
1, 287753, Control_c, 0, 64, 56
1, 287775, Control_c, 0, 64, 65
1, 287790, Control_c, 0, 64, 68
1, 287805, Control_c, 0, 64, 72
1, 287808, Note_off_c, 0, 71, 52
1, 287819, Control_c, 0, 64, 77
1, 287832, Note_off_c, 0, 68, 55
1, 287834, Control_c, 0, 64, 80
1, 287849, Control_c, 0, 64, 83
1, 287864, Control_c, 0, 64, 84
1, 287874, Note_off_c, 0, 60, 63
1, 287878, Note_off_c, 0, 77, 56
1, 287879, Control_c, 0, 64, 85
1, 287908, Control_c, 0, 64, 85
1, 287982, Control_c, 0, 64, 85
1, 288056, Control_c, 0, 64, 84
1, 288071, Control_c, 0, 64, 83
1, 288086, Control_c, 0, 64, 81
1, 288100, Control_c, 0, 64, 79
1, 288107, Note_on_c, 0, 76, 48
1, 288109, Note_on_c, 0, 72, 44
1, 288115, Control_c, 0, 64, 78
1, 288116, Note_on_c, 0, 67, 40
1, 288130, Control_c, 0, 64, 76
1, 288145, Control_c, 0, 64, 74
1, 288160, Control_c, 0, 64, 72
1, 288175, Control_c, 0, 64, 70
1, 288189, Control_c, 0, 64, 67
1, 288204, Control_c, 0, 64, 63
1, 288219, Control_c, 0, 64, 60
1, 288234, Control_c, 0, 64, 58
1, 288249, Control_c, 0, 64, 57
1, 288264, Control_c, 0, 64, 56
1, 288279, Control_c, 0, 64, 55
1, 288293, Control_c, 0, 64, 54
1, 288303, Note_on_c, 0, 61, 53
1, 288306, Note_on_c, 0, 58, 53
1, 288308, Control_c, 0, 64, 53
1, 288323, Control_c, 0, 64, 53
1, 288338, Control_c, 0, 64, 52
1, 288368, Control_c, 0, 64, 52
1, 288383, Control_c, 0, 64, 51
1, 288383, Control_c, 0, 67, 122
1, 288398, Control_c, 0, 64, 49
1, 288398, Control_c, 0, 67, 112
1, 288412, Note_off_c, 0, 61, 62
1, 288413, Control_c, 0, 64, 48
1, 288413, Control_c, 0, 67, 98
1, 288413, Note_off_c, 0, 76, 58
1, 288419, Note_off_c, 0, 72, 57
1, 288423, Note_off_c, 0, 67, 57
1, 288428, Control_c, 0, 64, 47
1, 288428, Control_c, 0, 67, 83
1, 288432, Note_off_c, 0, 58, 57
1, 288442, Control_c, 0, 64, 45
1, 288442, Control_c, 0, 67, 62
1, 288457, Control_c, 0, 64, 44
1, 288457, Control_c, 0, 67, 0
1, 288472, Control_c, 0, 64, 42
1, 288487, Control_c, 0, 64, 41
1, 288501, Note_on_c, 0, 60, 58
1, 288502, Note_on_c, 0, 56, 62
1, 288502, Control_c, 0, 64, 41
1, 288523, Control_c, 0, 64, 40
1, 288553, Control_c, 0, 64, 40
1, 288598, Control_c, 0, 64, 39
1, 288613, Control_c, 0, 64, 39
1, 288621, Note_off_c, 0, 56, 60
1, 288627, Note_off_c, 0, 60, 60
1, 288628, Control_c, 0, 64, 38
1, 288642, Control_c, 0, 64, 37
1, 288657, Control_c, 0, 64, 35
1, 288672, Control_c, 0, 64, 32
1, 288687, Control_c, 0, 64, 29
1, 288702, Control_c, 0, 64, 0
1, 288715, Note_on_c, 0, 58, 63
1, 288721, Note_on_c, 0, 55, 59
1, 288838, Note_off_c, 0, 58, 55
1, 288842, Note_off_c, 0, 55, 57
1, 288991, Note_on_c, 0, 56, 50
1, 288999, Note_on_c, 0, 53, 46
1, 289428, Note_on_c, 0, 41, 75
1, 289440, Note_on_c, 0, 60, 43
1, 289480, Control_c, 0, 64, 31
1, 289495, Control_c, 0, 64, 44
1, 289510, Control_c, 0, 64, 55
1, 289521, Note_off_c, 0, 41, 62
1, 289525, Control_c, 0, 64, 63
1, 289539, Control_c, 0, 64, 65
1, 289554, Control_c, 0, 64, 67
1, 289569, Control_c, 0, 64, 70
1, 289583, Control_c, 0, 64, 73
1, 289589, Note_off_c, 0, 53, 58
1, 289598, Control_c, 0, 64, 76
1, 289613, Control_c, 0, 64, 79
1, 289614, Note_off_c, 0, 56, 61
1, 289628, Control_c, 0, 64, 81
1, 289643, Control_c, 0, 64, 82
1, 289657, Control_c, 0, 64, 83
1, 289672, Control_c, 0, 64, 84
1, 289687, Control_c, 0, 64, 85
1, 289702, Control_c, 0, 64, 85
1, 289731, Control_c, 0, 64, 86
1, 289778, Note_on_c, 0, 41, 73
1, 289820, Control_c, 0, 64, 85
1, 289835, Control_c, 0, 64, 83
1, 289842, Note_off_c, 0, 41, 63
1, 289850, Control_c, 0, 64, 73
1, 289865, Control_c, 0, 64, 58
1, 289867, Note_on_c, 0, 48, 87
1, 289868, Note_off_c, 0, 60, 36
1, 289880, Control_c, 0, 64, 0
1, 289892, Note_on_c, 0, 52, 50
1, 289892, Note_on_c, 0, 55, 49
1, 290022, Control_c, 0, 64, 56
1, 290035, Note_off_c, 0, 48, 63
1, 290037, Control_c, 0, 64, 67
1, 290052, Control_c, 0, 64, 74
1, 290067, Control_c, 0, 64, 83
1, 290082, Control_c, 0, 64, 96
1, 290096, Control_c, 0, 64, 124
1, 290111, Control_c, 0, 64, 127
1, 290347, Note_on_c, 0, 70, 68
1, 290348, Control_c, 0, 64, 120
1, 290354, Note_on_c, 0, 67, 64
1, 290360, Note_on_c, 0, 60, 44
1, 290363, Control_c, 0, 64, 86
1, 290377, Control_c, 0, 64, 65
1, 290392, Control_c, 0, 64, 41
1, 290407, Control_c, 0, 64, 0
1, 290467, Control_c, 0, 64, 32
1, 290481, Control_c, 0, 64, 50
1, 290496, Control_c, 0, 64, 61
1, 290498, Note_off_c, 0, 55, 56
1, 290498, Note_off_c, 0, 70, 58
1, 290500, Note_off_c, 0, 67, 60
1, 290511, Control_c, 0, 64, 66
1, 290526, Control_c, 0, 64, 71
1, 290541, Control_c, 0, 64, 76
1, 290555, Control_c, 0, 64, 79
1, 290570, Control_c, 0, 64, 83
1, 290585, Control_c, 0, 64, 87
1, 290600, Control_c, 0, 64, 89
1, 290614, Control_c, 0, 64, 92
1, 290629, Control_c, 0, 64, 94
1, 290644, Control_c, 0, 64, 96
1, 290701, Note_on_c, 0, 70, 64
1, 290703, Control_c, 0, 64, 98
1, 290708, Note_on_c, 0, 67, 50
1, 290737, Note_off_c, 0, 70, 63
1, 290738, Note_off_c, 0, 67, 56
1, 290786, Control_c, 0, 64, 90
1, 290790, Note_on_c, 0, 68, 62
1, 290795, Note_on_c, 0, 65, 55
1, 290801, Control_c, 0, 64, 72
1, 290807, Note_on_c, 0, 53, 47
1, 290807, Note_on_c, 0, 56, 46
1, 290807, Note_off_c, 0, 52, 37
1, 290812, Note_off_c, 0, 60, 36
1, 290816, Control_c, 0, 64, 50
1, 290831, Control_c, 0, 64, 0
1, 290890, Control_c, 0, 64, 34
1, 290905, Control_c, 0, 64, 53
1, 290919, Control_c, 0, 64, 65
1, 290934, Control_c, 0, 64, 73
1, 290944, Note_off_c, 0, 65, 61
1, 290947, Note_off_c, 0, 68, 61
1, 290949, Control_c, 0, 64, 86
1, 290964, Control_c, 0, 64, 105
1, 290979, Control_c, 0, 64, 127
1, 291185, Control_c, 0, 64, 96
1, 291200, Control_c, 0, 64, 59
1, 291215, Control_c, 0, 64, 0
1, 291227, Note_on_c, 0, 41, 90
1, 291232, Note_on_c, 0, 60, 57
1, 291245, Control_c, 0, 64, 37
1, 291260, Control_c, 0, 64, 70
1, 291275, Control_c, 0, 64, 127
1, 291297, Note_off_c, 0, 41, 64
1, 291406, Note_off_c, 0, 56, 38
1, 291537, Note_off_c, 0, 53, 57
1, 291547, Note_on_c, 0, 41, 78
1, 291602, Note_off_c, 0, 41, 63
1, 291647, Note_on_c, 0, 48, 89
1, 291656, Note_on_c, 0, 55, 59
1, 291661, Note_on_c, 0, 52, 59
1, 291668, Note_off_c, 0, 60, 57
1, 291682, Control_c, 0, 64, 80
1, 291697, Control_c, 0, 64, 54
1, 291712, Control_c, 0, 64, 0
1, 291800, Control_c, 0, 64, 42
1, 291815, Control_c, 0, 64, 64
1, 291830, Control_c, 0, 64, 74
1, 291841, Note_off_c, 0, 48, 63
1, 291845, Control_c, 0, 64, 90
1, 291859, Control_c, 0, 64, 108
1, 291874, Control_c, 0, 64, 127
1, 292097, Control_c, 0, 64, 110
1, 292112, Control_c, 0, 64, 76
1, 292126, Control_c, 0, 64, 53
1, 292135, Note_on_c, 0, 70, 65
1, 292141, Control_c, 0, 64, 0
1, 292142, Note_on_c, 0, 60, 44
1, 292143, Note_on_c, 0, 67, 60
1, 292215, Control_c, 0, 64, 48
1, 292230, Control_c, 0, 64, 63
1, 292243, Note_off_c, 0, 67, 58
1, 292245, Control_c, 0, 64, 70
1, 292250, Note_off_c, 0, 70, 58
1, 292267, Control_c, 0, 64, 78
1, 292282, Control_c, 0, 64, 86
1, 292297, Control_c, 0, 64, 91
1, 292312, Control_c, 0, 64, 97
1, 292327, Control_c, 0, 64, 102
1, 292342, Control_c, 0, 64, 104
1, 292355, Note_off_c, 0, 55, 54
1, 292372, Control_c, 0, 64, 106
1, 292391, Note_off_c, 0, 52, 49
1, 292396, Note_off_c, 0, 60, 50
1, 292458, Note_on_c, 0, 70, 65
1, 292469, Note_on_c, 0, 67, 49
1, 292490, Control_c, 0, 64, 100
1, 292495, Note_off_c, 0, 67, 60
1, 292505, Control_c, 0, 64, 88
1, 292520, Control_c, 0, 64, 74
1, 292535, Control_c, 0, 64, 59
1, 292536, Note_off_c, 0, 70, 36
1, 292549, Note_on_c, 0, 68, 63
1, 292550, Control_c, 0, 64, 0
1, 292553, Note_on_c, 0, 56, 51
1, 292555, Note_on_c, 0, 65, 56
1, 292561, Note_on_c, 0, 53, 44
1, 292682, Control_c, 0, 64, 44
1, 292697, Control_c, 0, 64, 63
1, 292712, Control_c, 0, 64, 69
1, 292727, Control_c, 0, 64, 75
1, 292728, Note_off_c, 0, 65, 62
1, 292741, Control_c, 0, 64, 80
1, 292751, Note_off_c, 0, 68, 63
1, 292756, Control_c, 0, 64, 84
1, 292767, Note_off_c, 0, 53, 59
1, 292770, Note_off_c, 0, 56, 61
1, 292771, Control_c, 0, 64, 89
1, 292786, Control_c, 0, 64, 94
1, 292801, Control_c, 0, 64, 94
1, 292861, Control_c, 0, 64, 92
1, 292875, Control_c, 0, 64, 83
1, 292890, Control_c, 0, 64, 68
1, 292905, Control_c, 0, 64, 53
1, 292920, Control_c, 0, 64, 0
1, 292996, Note_on_c, 0, 77, 75
1, 293027, Note_on_c, 0, 60, 40
1, 293036, Note_on_c, 0, 56, 45
1, 293075, Control_c, 0, 64, 34
1, 293090, Control_c, 0, 64, 56
1, 293105, Control_c, 0, 64, 64
1, 293120, Control_c, 0, 64, 68
1, 293135, Control_c, 0, 64, 72
1, 293150, Note_off_c, 0, 56, 63
1, 293150, Control_c, 0, 64, 76
1, 293162, Note_off_c, 0, 77, 63
1, 293165, Control_c, 0, 64, 77
1, 293179, Control_c, 0, 64, 78
1, 293203, Note_off_c, 0, 60, 58
1, 293254, Control_c, 0, 64, 78
1, 293269, Control_c, 0, 64, 75
1, 293284, Control_c, 0, 64, 70
1, 293299, Control_c, 0, 64, 62
1, 293313, Control_c, 0, 64, 48
1, 293328, Control_c, 0, 64, 0
1, 293354, Note_on_c, 0, 77, 75
1, 293385, Note_off_c, 0, 77, 63
1, 293435, Note_on_c, 0, 58, 46
1, 293436, Note_on_c, 0, 78, 80
1, 293437, Note_on_c, 0, 61, 45
1, 293476, Control_c, 0, 64, 39
1, 293491, Control_c, 0, 64, 55
1, 293505, Control_c, 0, 64, 62
1, 293520, Control_c, 0, 64, 66
1, 293535, Control_c, 0, 64, 71
1, 293549, Control_c, 0, 64, 75
1, 293564, Control_c, 0, 64, 78
1, 293579, Control_c, 0, 64, 81
1, 293594, Control_c, 0, 64, 84
1, 293609, Control_c, 0, 64, 86
1, 293633, Note_off_c, 0, 61, 51
1, 293650, Note_off_c, 0, 58, 52
1, 293684, Control_c, 0, 64, 84
1, 293692, Note_off_c, 0, 78, 59
1, 293699, Control_c, 0, 64, 80
1, 293713, Control_c, 0, 64, 72
1, 293728, Control_c, 0, 64, 65
1, 293743, Control_c, 0, 64, 58
1, 293765, Control_c, 0, 64, 53
1, 293780, Control_c, 0, 64, 46
1, 293795, Control_c, 0, 64, 29
1, 293810, Control_c, 0, 64, 0
1, 293873, Note_on_c, 0, 81, 78
1, 293887, Note_on_c, 0, 63, 48
1, 293897, Note_on_c, 0, 60, 40
1, 293913, Control_c, 0, 64, 37
1, 293929, Control_c, 0, 64, 55
1, 293944, Control_c, 0, 64, 64
1, 293959, Control_c, 0, 64, 66
1, 293974, Control_c, 0, 64, 67
1, 293988, Control_c, 0, 64, 69
1, 294002, Note_off_c, 0, 81, 60
1, 294003, Control_c, 0, 64, 71
1, 294018, Control_c, 0, 64, 71
1, 294056, Note_off_c, 0, 63, 62
1, 294059, Note_off_c, 0, 60, 56
1, 294092, Control_c, 0, 64, 70
1, 294107, Control_c, 0, 64, 66
1, 294122, Control_c, 0, 64, 59
1, 294136, Control_c, 0, 64, 48
1, 294151, Control_c, 0, 64, 36
1, 294166, Control_c, 0, 64, 0
1, 294223, Note_on_c, 0, 81, 70
1, 294249, Note_off_c, 0, 81, 65
1, 294304, Note_on_c, 0, 82, 71
1, 294318, Note_on_c, 0, 65, 44
1, 294335, Note_on_c, 0, 61, 40
1, 294344, Control_c, 0, 64, 52
1, 294359, Control_c, 0, 64, 67
1, 294373, Control_c, 0, 64, 70
1, 294378, Note_off_c, 0, 61, 64
1, 294388, Control_c, 0, 64, 77
1, 294394, Note_off_c, 0, 65, 57
1, 294403, Control_c, 0, 64, 86
1, 294418, Control_c, 0, 64, 95
1, 294433, Control_c, 0, 64, 100
1, 294462, Control_c, 0, 64, 102
1, 294492, Control_c, 0, 64, 99
1, 294515, Control_c, 0, 64, 86
1, 294530, Note_off_c, 0, 82, 58
1, 294530, Control_c, 0, 64, 68
1, 294544, Control_c, 0, 64, 52
1, 294559, Control_c, 0, 64, 34
1, 294574, Control_c, 0, 64, 0
1, 294735, Note_on_c, 0, 81, 72
1, 294750, Note_on_c, 0, 78, 45
1, 294753, Note_on_c, 0, 75, 44
1, 294791, Note_off_c, 0, 81, 61
1, 294804, Note_off_c, 0, 75, 61
1, 294804, Note_off_c, 0, 78, 54
1, 295069, Note_on_c, 0, 81, 61
1, 295102, Note_off_c, 0, 81, 59
1, 295153, Note_on_c, 0, 82, 79
1, 295167, Note_on_c, 0, 77, 55
1, 295168, Note_on_c, 0, 73, 52
1, 295204, Note_off_c, 0, 82, 63
1, 295236, Note_off_c, 0, 77, 51
1, 295238, Note_off_c, 0, 73, 58
1, 295487, Note_on_c, 0, 82, 66
1, 295532, Note_off_c, 0, 82, 59
1, 295576, Note_on_c, 0, 84, 84
1, 295596, Note_on_c, 0, 75, 53
1, 295600, Note_on_c, 0, 72, 46
1, 295631, Note_off_c, 0, 84, 64
1, 295645, Note_off_c, 0, 75, 54
1, 295654, Note_off_c, 0, 72, 53
1, 295945, Note_on_c, 0, 84, 59
1, 295974, Note_off_c, 0, 84, 67
1, 296047, Note_on_c, 0, 85, 66
1, 296047, Note_on_c, 0, 70, 39
1, 296059, Note_on_c, 0, 73, 35
1, 296313, Note_off_c, 0, 85, 55
1, 296330, Note_off_c, 0, 70, 36
1, 296349, Note_off_c, 0, 73, 35
1, 297658, Control_c, 0, 64, 28
1, 297717, Control_c, 0, 64, 30
1, 297791, Control_c, 0, 67, 41
1, 297806, Control_c, 0, 64, 32
1, 297806, Control_c, 0, 67, 47
1, 297821, Control_c, 0, 67, 50
1, 297836, Control_c, 0, 67, 51
1, 297851, Control_c, 0, 67, 51
1, 297865, Control_c, 0, 67, 53
1, 297880, Control_c, 0, 67, 56
1, 297895, Control_c, 0, 67, 73
1, 297910, Control_c, 0, 64, 30
1, 297910, Control_c, 0, 67, 96
1, 297925, Control_c, 0, 67, 111
1, 297940, Control_c, 0, 64, 0
1, 297940, Control_c, 0, 67, 121
1, 297955, Control_c, 0, 67, 127
1, 298779, Note_on_c, 0, 61, 32
1, 298780, Note_on_c, 0, 65, 37
1, 298781, Note_on_c, 0, 59, 38
1, 298836, Note_off_c, 0, 65, 58
1, 298860, Note_off_c, 0, 61, 48
1, 298860, Note_off_c, 0, 59, 59
1, 299138, Note_on_c, 0, 65, 43
1, 299198, Note_off_c, 0, 65, 53
1, 299217, Note_on_c, 0, 66, 61
1, 299222, Note_on_c, 0, 61, 34
1, 299227, Note_on_c, 0, 58, 39
1, 299279, Note_off_c, 0, 66, 60
1, 299311, Note_off_c, 0, 58, 58
1, 299317, Note_off_c, 0, 61, 51
1, 299572, Note_on_c, 0, 66, 53
1, 299666, Note_on_c, 0, 68, 54
1, 299667, Note_off_c, 0, 66, 57
1, 299675, Note_on_c, 0, 61, 37
1, 299679, Note_on_c, 0, 56, 41
1, 299718, Note_off_c, 0, 68, 55
1, 299782, Note_off_c, 0, 61, 54
1, 299785, Note_off_c, 0, 56, 52
1, 300074, Note_on_c, 0, 68, 41
1, 300130, Note_off_c, 0, 68, 57
1, 300158, Note_on_c, 0, 70, 46
1, 300164, Note_on_c, 0, 54, 25
1, 300192, Note_on_c, 0, 61, 18
1, 300442, Note_off_c, 0, 70, 35
1, 300451, Note_off_c, 0, 61, 37
1, 300470, Note_off_c, 0, 54, 39
1, 300904, Control_c, 0, 67, 122
1, 300919, Control_c, 0, 67, 109
1, 300934, Control_c, 0, 67, 97
1, 300948, Control_c, 0, 67, 84
1, 300963, Control_c, 0, 67, 70
1, 300978, Control_c, 0, 67, 54
1, 300993, Control_c, 0, 67, 0
1, 302492, Note_on_c, 0, 68, 86
1, 302494, Note_on_c, 0, 53, 92
1, 302494, Note_on_c, 0, 73, 82
1, 302498, Note_on_c, 0, 41, 89
1, 302498, Note_on_c, 0, 61, 79
1, 302519, Control_c, 0, 64, 49
1, 302534, Control_c, 0, 64, 65
1, 302549, Control_c, 0, 64, 71
1, 302551, Note_off_c, 0, 53, 61
1, 302564, Control_c, 0, 64, 76
1, 302569, Note_off_c, 0, 41, 62
1, 302570, Note_off_c, 0, 61, 57
1, 302570, Note_off_c, 0, 73, 55
1, 302579, Control_c, 0, 64, 81
1, 302593, Control_c, 0, 64, 84
1, 302602, Note_off_c, 0, 68, 58
1, 302608, Control_c, 0, 64, 85
1, 302623, Control_c, 0, 64, 86
1, 302653, Control_c, 0, 64, 86
1, 302824, Control_c, 0, 64, 86
1, 302826, Note_on_c, 0, 53, 83
1, 302826, Note_on_c, 0, 41, 79
1, 302833, Note_on_c, 0, 68, 78
1, 302835, Note_on_c, 0, 73, 78
1, 302835, Note_on_c, 0, 61, 81
1, 302839, Control_c, 0, 64, 79
1, 302852, Note_off_c, 0, 41, 67
1, 302853, Note_off_c, 0, 53, 67
1, 302854, Control_c, 0, 64, 64
1, 302857, Note_off_c, 0, 68, 68
1, 302861, Note_off_c, 0, 61, 67
1, 302869, Control_c, 0, 64, 0
1, 302871, Note_off_c, 0, 73, 58
1, 302916, Note_on_c, 0, 73, 77
1, 302918, Note_on_c, 0, 54, 90
1, 302920, Note_on_c, 0, 42, 92
1, 302921, Note_on_c, 0, 61, 92
1, 302921, Note_on_c, 0, 70, 90
1, 302972, Control_c, 0, 64, 57
1, 302987, Control_c, 0, 64, 67
1, 302999, Note_off_c, 0, 61, 60
1, 303002, Note_off_c, 0, 42, 62
1, 303002, Control_c, 0, 64, 75
1, 303004, Note_off_c, 0, 73, 61
1, 303006, Note_off_c, 0, 54, 60
1, 303016, Control_c, 0, 64, 80
1, 303025, Note_off_c, 0, 70, 62
1, 303031, Control_c, 0, 64, 84
1, 303046, Control_c, 0, 64, 87
1, 303061, Control_c, 0, 64, 90
1, 303076, Control_c, 0, 64, 91
1, 303091, Control_c, 0, 64, 92
1, 303213, Note_on_c, 0, 42, 85
1, 303214, Note_on_c, 0, 70, 77
1, 303216, Note_on_c, 0, 54, 83
1, 303216, Note_on_c, 0, 61, 80
1, 303221, Note_on_c, 0, 73, 68
1, 303224, Control_c, 0, 64, 91
1, 303236, Note_off_c, 0, 42, 68
1, 303238, Note_off_c, 0, 54, 64
1, 303239, Control_c, 0, 64, 74
1, 303240, Note_off_c, 0, 61, 70
1, 303243, Note_off_c, 0, 73, 65
1, 303254, Control_c, 0, 64, 44
1, 303257, Note_off_c, 0, 70, 60
1, 303269, Control_c, 0, 64, 0
1, 303298, Note_on_c, 0, 65, 88
1, 303298, Note_on_c, 0, 73, 84
1, 303303, Note_on_c, 0, 61, 88
1, 303312, Note_on_c, 0, 56, 90
1, 303312, Note_on_c, 0, 44, 86
1, 303342, Control_c, 0, 64, 51
1, 303357, Control_c, 0, 64, 65
1, 303372, Control_c, 0, 64, 70
1, 303378, Note_off_c, 0, 56, 58
1, 303384, Note_off_c, 0, 44, 61
1, 303385, Note_off_c, 0, 61, 60
1, 303386, Note_off_c, 0, 73, 61
1, 303387, Control_c, 0, 64, 77
1, 303403, Control_c, 0, 64, 81
1, 303417, Control_c, 0, 64, 85
1, 303429, Note_off_c, 0, 65, 54
1, 303432, Control_c, 0, 64, 88
1, 303447, Control_c, 0, 64, 90
1, 303461, Control_c, 0, 64, 91
1, 303476, Control_c, 0, 64, 92
1, 303529, Control_c, 0, 64, 92
1, 303544, Control_c, 0, 64, 93
1, 303559, Control_c, 0, 64, 94
1, 303574, Control_c, 0, 64, 95
1, 303598, Note_on_c, 0, 44, 83
1, 303600, Note_on_c, 0, 65, 69
1, 303600, Note_on_c, 0, 73, 74
1, 303601, Note_on_c, 0, 61, 73
1, 303601, Note_on_c, 0, 56, 82
1, 303604, Control_c, 0, 64, 95
1, 303619, Control_c, 0, 64, 80
1, 303625, Note_off_c, 0, 56, 68
1, 303628, Note_off_c, 0, 61, 66
1, 303628, Note_off_c, 0, 73, 62
1, 303629, Note_off_c, 0, 44, 63
1, 303632, Note_off_c, 0, 65, 65
1, 303634, Control_c, 0, 64, 57
1, 303648, Control_c, 0, 64, 0
1, 303688, Note_on_c, 0, 73, 82
1, 303691, Note_on_c, 0, 61, 89
1, 303696, Note_on_c, 0, 58, 92
1, 303696, Note_on_c, 0, 66, 84
1, 303700, Note_on_c, 0, 46, 82
1, 303737, Control_c, 0, 64, 41
1, 303752, Control_c, 0, 64, 63
1, 303766, Control_c, 0, 64, 70
1, 303781, Control_c, 0, 64, 74
1, 303796, Control_c, 0, 64, 78
1, 303799, Note_off_c, 0, 46, 60
1, 303808, Note_off_c, 0, 58, 60
1, 303811, Control_c, 0, 64, 84
1, 303826, Control_c, 0, 64, 89
1, 303836, Note_off_c, 0, 61, 61
1, 303840, Control_c, 0, 64, 91
1, 303855, Note_off_c, 0, 66, 63
1, 303855, Control_c, 0, 64, 92
1, 303869, Note_off_c, 0, 73, 57
1, 303885, Control_c, 0, 67, 44
1, 303899, Control_c, 0, 67, 58
1, 303914, Control_c, 0, 67, 69
1, 303929, Control_c, 0, 64, 91
1, 303929, Control_c, 0, 67, 78
1, 303944, Control_c, 0, 64, 89
1, 303944, Control_c, 0, 67, 88
1, 303959, Control_c, 0, 64, 83
1, 303959, Control_c, 0, 67, 94
1, 303973, Control_c, 0, 64, 75
1, 303973, Control_c, 0, 67, 99
1, 303988, Control_c, 0, 64, 67
1, 303988, Control_c, 0, 67, 105
1, 304003, Control_c, 0, 64, 59
1, 304003, Control_c, 0, 67, 114
1, 304018, Control_c, 0, 64, 51
1, 304018, Control_c, 0, 67, 124
1, 304033, Control_c, 0, 64, 42
1, 304033, Control_c, 0, 67, 127
1, 304048, Control_c, 0, 64, 29
1, 304063, Control_c, 0, 64, 0
1, 304151, Note_on_c, 0, 66, 49
1, 304154, Note_on_c, 0, 61, 36
1, 304169, Note_on_c, 0, 58, 38
1, 304200, Note_off_c, 0, 66, 59
1, 304450, Note_off_c, 0, 58, 49
1, 304453, Note_on_c, 0, 66, 55
1, 304532, Note_on_c, 0, 67, 53
1, 304533, Note_on_c, 0, 62, 41
1, 304534, Note_on_c, 0, 59, 43
1, 304546, Note_off_c, 0, 66, 53
1, 304566, Note_off_c, 0, 67, 65
1, 304590, Note_off_c, 0, 61, 38
1, 304824, Note_on_c, 0, 67, 58
1, 304883, Note_off_c, 0, 59, 57
1, 304888, Note_off_c, 0, 67, 45
1, 304900, Note_on_c, 0, 68, 69
1, 304914, Note_on_c, 0, 60, 42
1, 304918, Note_on_c, 0, 63, 44
1, 304940, Note_off_c, 0, 68, 58
1, 304954, Note_off_c, 0, 62, 52
1, 305189, Note_on_c, 0, 68, 60
1, 305270, Note_on_c, 0, 69, 79
1, 305273, Note_off_c, 0, 60, 53
1, 305280, Note_off_c, 0, 68, 48
1, 305291, Note_on_c, 0, 64, 50
1, 305306, Note_on_c, 0, 61, 47
1, 305309, Control_c, 0, 67, 88
1, 305321, Note_off_c, 0, 69, 60
1, 305321, Note_off_c, 0, 63, 54
1, 305324, Control_c, 0, 67, 39
1, 305338, Control_c, 0, 67, 0
1, 305443, Note_off_c, 0, 64, 52
1, 305550, Note_on_c, 0, 69, 72
1, 305625, Note_off_c, 0, 61, 64
1, 305629, Note_on_c, 0, 70, 84
1, 305654, Note_on_c, 0, 65, 53
1, 305656, Note_on_c, 0, 62, 44
1, 305661, Note_off_c, 0, 69, 29
1, 305677, Note_off_c, 0, 70, 64
1, 305940, Note_on_c, 0, 70, 76
1, 305979, Note_off_c, 0, 70, 66
1, 306001, Note_off_c, 0, 65, 54
1, 306003, Note_off_c, 0, 62, 59
1, 306025, Note_on_c, 0, 71, 81
1, 306048, Note_on_c, 0, 66, 50
1, 306054, Note_on_c, 0, 63, 45
1, 306060, Note_off_c, 0, 71, 66
1, 306131, Control_c, 0, 67, 64
1, 306146, Control_c, 0, 67, 98
1, 306160, Control_c, 0, 67, 127
1, 306344, Note_on_c, 0, 71, 68
1, 306383, Note_off_c, 0, 71, 65
1, 306433, Note_on_c, 0, 57, 64
1, 306462, Note_off_c, 0, 57, 66
1, 306719, Note_on_c, 0, 57, 53
1, 306765, Note_off_c, 0, 57, 62
1, 306778, Note_off_c, 0, 63, 25
1, 306790, Note_off_c, 0, 66, 57
1, 306805, Note_on_c, 0, 58, 61
1, 306815, Note_on_c, 0, 65, 46
1, 306828, Note_on_c, 0, 62, 44
1, 306835, Note_off_c, 0, 58, 65
1, 307090, Note_on_c, 0, 58, 68
1, 307102, Control_c, 0, 67, 119
1, 307117, Control_c, 0, 67, 77
1, 307127, Note_off_c, 0, 58, 61
1, 307132, Control_c, 0, 67, 0
1, 307171, Note_on_c, 0, 70, 84
1, 307244, Note_off_c, 0, 70, 63
1, 307428, Note_off_c, 0, 62, 57
1, 307436, Note_off_c, 0, 65, 62
1, 307449, Note_on_c, 0, 70, 80
1, 307509, Note_off_c, 0, 70, 63
1, 307536, Note_on_c, 0, 71, 87
1, 307571, Note_on_c, 0, 66, 49
1, 307573, Note_on_c, 0, 63, 47
1, 307586, Note_off_c, 0, 71, 63
1, 307629, Control_c, 0, 67, 53
1, 307644, Control_c, 0, 67, 83
1, 307659, Control_c, 0, 67, 105
1, 307674, Control_c, 0, 67, 119
1, 307688, Control_c, 0, 67, 127
1, 307845, Note_on_c, 0, 71, 66
1, 307875, Note_off_c, 0, 71, 62
1, 307929, Note_on_c, 0, 57, 61
1, 307971, Note_off_c, 0, 57, 60
1, 308215, Note_on_c, 0, 57, 55
1, 308260, Note_off_c, 0, 57, 63
1, 308260, Note_off_c, 0, 63, 31
1, 308262, Note_off_c, 0, 66, 56
1, 308303, Note_on_c, 0, 62, 42
1, 308307, Note_on_c, 0, 58, 63
1, 308308, Note_on_c, 0, 65, 40
1, 308336, Note_off_c, 0, 58, 65
1, 308478, Note_off_c, 0, 65, 53
1, 308538, Note_off_c, 0, 62, 46
1, 308681, Note_on_c, 0, 71, 49
1, 308704, Note_on_c, 0, 66, 36
1, 308707, Note_on_c, 0, 63, 40
1, 308731, Note_off_c, 0, 71, 59
1, 308969, Note_on_c, 0, 71, 59
1, 309006, Note_off_c, 0, 63, 55
1, 309017, Note_off_c, 0, 71, 52
1, 309051, Note_on_c, 0, 72, 66
1, 309067, Note_on_c, 0, 67, 47
1, 309074, Note_on_c, 0, 64, 45
1, 309080, Note_off_c, 0, 72, 61
1, 309081, Control_c, 0, 67, 119
1, 309096, Control_c, 0, 67, 87
1, 309112, Control_c, 0, 67, 49
1, 309115, Note_off_c, 0, 66, 38
1, 309127, Control_c, 0, 67, 0
1, 309328, Note_on_c, 0, 72, 65
1, 309372, Note_off_c, 0, 72, 52
1, 309403, Note_on_c, 0, 73, 78
1, 309407, Note_off_c, 0, 64, 58
1, 309423, Note_on_c, 0, 68, 56
1, 309431, Note_on_c, 0, 65, 52
1, 309445, Note_off_c, 0, 73, 62
1, 309476, Note_off_c, 0, 67, 51
1, 309678, Note_on_c, 0, 73, 71
1, 309714, Note_off_c, 0, 73, 65
1, 309753, Note_on_c, 0, 74, 89
1, 309773, Note_off_c, 0, 65, 58
1, 309782, Note_on_c, 0, 66, 59
1, 309786, Note_on_c, 0, 69, 57
1, 309795, Note_off_c, 0, 74, 65
1, 309821, Note_off_c, 0, 68, 54
1, 310012, Note_off_c, 0, 66, 64
1, 310036, Note_on_c, 0, 74, 75
1, 310064, Note_off_c, 0, 74, 62
1, 310115, Note_on_c, 0, 75, 84
1, 310158, Note_off_c, 0, 75, 63
1, 310161, Note_on_c, 0, 67, 50
1, 310165, Note_on_c, 0, 70, 47
1, 310187, Note_off_c, 0, 69, 37
1, 310423, Note_off_c, 0, 70, 54
1, 310448, Note_on_c, 0, 75, 73
1, 310490, Note_off_c, 0, 67, 37
1, 310499, Note_off_c, 0, 75, 65
1, 310542, Note_on_c, 0, 76, 81
1, 310575, Note_on_c, 0, 68, 46
1, 310582, Note_on_c, 0, 71, 51
1, 310588, Note_off_c, 0, 76, 65
1, 310683, Control_c, 0, 67, 54
1, 310698, Control_c, 0, 67, 75
1, 310713, Control_c, 0, 67, 96
1, 310728, Control_c, 0, 67, 112
1, 310743, Control_c, 0, 67, 127
1, 310844, Note_on_c, 0, 76, 67
1, 310880, Note_off_c, 0, 76, 63
1, 310931, Note_on_c, 0, 62, 71
1, 310961, Note_off_c, 0, 62, 64
1, 311150, Control_c, 0, 67, 122
1, 311165, Control_c, 0, 67, 115
1, 311180, Control_c, 0, 67, 103
1, 311187, Note_on_c, 0, 62, 57
1, 311195, Control_c, 0, 67, 72
1, 311210, Control_c, 0, 67, 0
1, 311213, Note_off_c, 0, 68, 56
1, 311226, Note_off_c, 0, 62, 63
1, 311274, Note_off_c, 0, 71, 58
1, 311277, Note_on_c, 0, 63, 65
1, 311283, Note_on_c, 0, 67, 49
1, 311289, Note_on_c, 0, 70, 48
1, 311306, Note_off_c, 0, 63, 66
1, 311549, Note_on_c, 0, 63, 68
1, 311578, Note_off_c, 0, 63, 65
1, 311625, Note_on_c, 0, 75, 89
1, 311666, Note_off_c, 0, 75, 67
1, 311887, Note_off_c, 0, 70, 60
1, 311898, Note_off_c, 0, 67, 61
1, 311914, Note_on_c, 0, 75, 83
1, 311961, Note_off_c, 0, 75, 64
1, 311999, Note_on_c, 0, 76, 94
1, 312033, Note_on_c, 0, 71, 50
1, 312036, Note_on_c, 0, 68, 45
1, 312049, Note_off_c, 0, 76, 65
1, 312091, Control_c, 0, 67, 54
1, 312105, Control_c, 0, 67, 92
1, 312120, Control_c, 0, 67, 116
1, 312135, Control_c, 0, 67, 127
1, 312299, Note_on_c, 0, 76, 79
1, 312341, Note_off_c, 0, 76, 62
1, 312400, Note_on_c, 0, 62, 66
1, 312428, Note_off_c, 0, 62, 65
1, 312642, Note_off_c, 0, 68, 53
1, 312658, Note_on_c, 0, 62, 62
1, 312708, Note_off_c, 0, 71, 60
1, 312710, Note_off_c, 0, 62, 61
1, 312744, Note_on_c, 0, 67, 48
1, 312749, Note_on_c, 0, 63, 68
1, 312749, Note_on_c, 0, 70, 51
1, 312776, Note_off_c, 0, 63, 66
1, 313007, Note_on_c, 0, 63, 65
1, 313043, Note_off_c, 0, 63, 61
1, 313095, Note_on_c, 0, 75, 74
1, 313133, Note_off_c, 0, 75, 56
1, 313272, Note_off_c, 0, 70, 63
1, 313275, Note_off_c, 0, 67, 61
1, 313362, Note_on_c, 0, 75, 67
1, 313422, Note_off_c, 0, 75, 57
1, 313453, Note_on_c, 0, 74, 74
1, 313476, Note_on_c, 0, 66, 48
1, 313481, Note_on_c, 0, 69, 46
1, 313482, Note_off_c, 0, 74, 60
1, 313715, Note_on_c, 0, 74, 73
1, 313744, Note_off_c, 0, 66, 56
1, 313754, Note_off_c, 0, 74, 57
1, 313801, Note_on_c, 0, 73, 78
1, 313801, Note_off_c, 0, 69, 54
1, 313813, Note_on_c, 0, 65, 49
1, 313822, Note_on_c, 0, 68, 48
1, 313828, Note_off_c, 0, 73, 61
1, 314069, Note_on_c, 0, 73, 68
1, 314103, Note_off_c, 0, 73, 63
1, 314130, Note_off_c, 0, 65, 54
1, 314156, Note_on_c, 0, 72, 73
1, 314171, Note_on_c, 0, 64, 41
1, 314171, Note_on_c, 0, 67, 46
1, 314200, Note_off_c, 0, 72, 63
1, 314204, Note_off_c, 0, 68, 38
1, 314421, Note_on_c, 0, 72, 56
1, 314456, Note_off_c, 0, 72, 61
1, 314481, Note_off_c, 0, 64, 57
1, 314508, Note_on_c, 0, 71, 64
1, 314532, Note_on_c, 0, 68, 40
1, 314541, Note_off_c, 0, 71, 61
1, 314545, Note_on_c, 0, 65, 34
1, 314547, Note_off_c, 0, 67, 37
1, 314574, Control_c, 0, 67, 125
1, 314604, Control_c, 0, 67, 123
1, 314663, Control_c, 0, 67, 121
1, 314761, Control_c, 0, 67, 119
1, 314805, Note_on_c, 0, 71, 56
1, 314805, Control_c, 0, 67, 117
1, 314848, Note_off_c, 0, 71, 53
1, 314864, Control_c, 0, 67, 115
1, 314889, Note_on_c, 0, 72, 63
1, 314901, Note_on_c, 0, 67, 37
1, 314913, Note_on_c, 0, 64, 40
1, 314921, Note_off_c, 0, 65, 37
1, 314929, Note_off_c, 0, 72, 56
1, 314946, Note_off_c, 0, 68, 28
1, 314968, Control_c, 0, 67, 117
1, 315150, Note_on_c, 0, 72, 54
1, 315185, Note_off_c, 0, 72, 62
1, 315220, Control_c, 0, 67, 115
1, 315229, Note_off_c, 0, 64, 57
1, 315241, Note_on_c, 0, 71, 67
1, 315264, Control_c, 0, 67, 113
1, 315265, Note_on_c, 0, 68, 37
1, 315268, Note_on_c, 0, 65, 36
1, 315276, Note_off_c, 0, 71, 57
1, 315304, Note_off_c, 0, 67, 33
1, 315338, Control_c, 0, 67, 111
1, 315383, Control_c, 0, 67, 94
1, 315397, Control_c, 0, 67, 75
1, 315412, Control_c, 0, 67, 70
1, 315427, Control_c, 0, 67, 68
1, 315479, Control_c, 0, 67, 66
1, 315495, Control_c, 0, 67, 65
1, 315509, Control_c, 0, 67, 64
1, 315522, Note_on_c, 0, 71, 62
1, 315524, Control_c, 0, 67, 62
1, 315539, Control_c, 0, 67, 57
1, 315554, Control_c, 0, 67, 0
1, 315554, Note_off_c, 0, 71, 60
1, 315606, Note_on_c, 0, 72, 66
1, 315615, Note_off_c, 0, 65, 51
1, 315617, Note_on_c, 0, 67, 46
1, 315632, Note_off_c, 0, 72, 65
1, 315635, Note_on_c, 0, 64, 42
1, 315678, Note_off_c, 0, 68, 28
1, 315885, Note_on_c, 0, 72, 53
1, 315910, Note_off_c, 0, 72, 61
1, 315939, Note_off_c, 0, 64, 58
1, 315967, Note_on_c, 0, 71, 72
1, 315983, Note_on_c, 0, 65, 45
1, 315983, Note_on_c, 0, 68, 42
1, 316004, Note_off_c, 0, 71, 56
1, 316017, Note_off_c, 0, 67, 33
1, 316291, Note_on_c, 0, 71, 59
1, 316339, Note_off_c, 0, 71, 54
1, 316368, Note_off_c, 0, 65, 58
1, 316374, Note_on_c, 0, 72, 72
1, 316381, Note_off_c, 0, 68, 51
1, 316398, Note_on_c, 0, 67, 37
1, 316417, Note_off_c, 0, 72, 54
1, 316423, Note_on_c, 0, 64, 40
1, 316525, Control_c, 0, 64, 37
1, 316540, Control_c, 0, 64, 55
1, 316555, Control_c, 0, 64, 61
1, 316569, Control_c, 0, 64, 64
1, 316584, Control_c, 0, 64, 70
1, 316598, Note_off_c, 0, 67, 63
1, 316599, Control_c, 0, 64, 77
1, 316613, Control_c, 0, 64, 86
1, 316621, Note_off_c, 0, 64, 64
1, 316628, Control_c, 0, 64, 94
1, 316643, Control_c, 0, 64, 101
1, 316658, Control_c, 0, 64, 108
1, 316673, Control_c, 0, 64, 127
1, 316697, Note_on_c, 0, 72, 70
1, 316752, Note_off_c, 0, 72, 60
1, 316836, Control_c, 0, 64, 117
1, 316851, Control_c, 0, 64, 66
1, 316851, Note_on_c, 0, 82, 97
1, 316855, Note_on_c, 0, 72, 88
1, 316856, Note_on_c, 0, 79, 81
1, 316866, Note_on_c, 0, 55, 79
1, 316866, Note_on_c, 0, 60, 86
1, 316866, Control_c, 0, 64, 0
1, 316868, Note_on_c, 0, 52, 81
1, 316910, Control_c, 0, 64, 47
1, 316925, Control_c, 0, 64, 67
1, 316934, Note_off_c, 0, 60, 57
1, 316939, Note_off_c, 0, 52, 63
1, 316940, Control_c, 0, 64, 80
1, 316952, Note_off_c, 0, 55, 63
1, 316955, Control_c, 0, 64, 119
1, 316976, Control_c, 0, 64, 127
1, 317010, Note_off_c, 0, 72, 57
1, 317016, Note_off_c, 0, 82, 59
1, 317033, Note_off_c, 0, 79, 58
1, 317244, Note_on_c, 0, 82, 77
1, 317247, Note_on_c, 0, 60, 85
1, 317247, Note_on_c, 0, 72, 80
1, 317248, Note_on_c, 0, 79, 62
1, 317252, Note_on_c, 0, 52, 80
1, 317256, Note_on_c, 0, 55, 66
1, 317286, Note_off_c, 0, 55, 65
1, 317286, Note_off_c, 0, 79, 63
1, 317288, Note_off_c, 0, 82, 65
1, 317289, Note_off_c, 0, 60, 65
1, 317292, Note_off_c, 0, 72, 63
1, 317294, Note_off_c, 0, 52, 62
1, 317333, Control_c, 0, 64, 99
1, 317346, Note_on_c, 0, 80, 98
1, 317348, Control_c, 0, 64, 58
1, 317353, Note_on_c, 0, 77, 83
1, 317357, Note_on_c, 0, 72, 77
1, 317358, Note_on_c, 0, 53, 79
1, 317359, Note_on_c, 0, 56, 81
1, 317363, Control_c, 0, 64, 0
1, 317481, Control_c, 0, 64, 32
1, 317496, Control_c, 0, 64, 61
1, 317510, Control_c, 0, 64, 75
1, 317525, Control_c, 0, 64, 103
1, 317540, Control_c, 0, 64, 127
1, 317544, Note_on_c, 0, 60, 66
1, 317548, Note_off_c, 0, 53, 57
1, 317553, Note_off_c, 0, 56, 59
1, 317603, Note_off_c, 0, 77, 59
1, 317642, Note_off_c, 0, 60, 59
1, 317665, Note_on_c, 0, 53, 65
1, 317666, Note_on_c, 0, 56, 65
1, 317726, Note_off_c, 0, 53, 60
1, 317735, Note_off_c, 0, 56, 59
1, 317763, Note_on_c, 0, 60, 66
1, 317764, Note_off_c, 0, 72, 38
1, 317836, Note_off_c, 0, 60, 56
1, 317855, Note_on_c, 0, 77, 94
1, 317866, Note_on_c, 0, 56, 62
1, 317870, Note_on_c, 0, 53, 60
1, 317907, Note_off_c, 0, 53, 61
1, 317931, Note_off_c, 0, 56, 57
1, 317935, Note_off_c, 0, 80, 62
1, 317958, Note_on_c, 0, 60, 60
1, 317962, Note_off_c, 0, 77, 59
1, 318064, Note_off_c, 0, 60, 50
1, 318103, Note_on_c, 0, 56, 48
1, 318104, Note_on_c, 0, 53, 52
1, 318146, Note_off_c, 0, 53, 60
1, 318151, Note_off_c, 0, 56, 60
1, 318204, Note_on_c, 0, 60, 52
1, 318206, Note_on_c, 0, 77, 81
1, 318330, Note_off_c, 0, 60, 56
1, 318344, Note_on_c, 0, 89, 92
1, 318381, Note_on_c, 0, 53, 44
1, 318389, Note_on_c, 0, 56, 38
1, 318452, Note_off_c, 0, 53, 47
1, 318454, Note_off_c, 0, 56, 55
1, 318520, Note_on_c, 0, 60, 44
1, 318606, Note_off_c, 0, 60, 54
1, 318657, Note_on_c, 0, 53, 32
1, 318683, Note_on_c, 0, 56, 21
1, 318697, Note_off_c, 0, 53, 58
1, 318730, Note_off_c, 0, 56, 44
1, 318756, Note_on_c, 0, 60, 37
1, 318824, Note_off_c, 0, 60, 58
1, 318848, Note_on_c, 0, 56, 37
1, 318854, Note_on_c, 0, 53, 43
1, 318896, Note_off_c, 0, 53, 60
1, 318900, Note_off_c, 0, 56, 59
1, 318959, Note_on_c, 0, 60, 41
1, 319009, Note_off_c, 0, 60, 59
1, 319035, Note_on_c, 0, 53, 38
1, 319047, Note_on_c, 0, 56, 33
1, 319079, Note_off_c, 0, 53, 62
1, 319138, Note_off_c, 0, 56, 55
1, 319159, Note_on_c, 0, 60, 19
1, 319266, Note_off_c, 0, 60, 56
1, 319301, Note_on_c, 0, 51, 45
1, 319312, Note_on_c, 0, 56, 33
1, 319327, Control_c, 0, 64, 98
1, 319342, Control_c, 0, 64, 70
1, 319352, Note_off_c, 0, 51, 54
1, 319357, Control_c, 0, 64, 60
1, 319361, Note_off_c, 0, 56, 55
1, 319386, Control_c, 0, 64, 62
1, 319401, Control_c, 0, 64, 66
1, 319415, Control_c, 0, 64, 75
1, 319418, Note_on_c, 0, 60, 31
1, 319430, Control_c, 0, 64, 91
1, 319445, Control_c, 0, 64, 105
1, 319460, Control_c, 0, 64, 127
1, 319488, Note_off_c, 0, 60, 51
1, 319507, Note_on_c, 0, 56, 38
1, 319507, Note_on_c, 0, 51, 48
1, 319544, Note_off_c, 0, 51, 61
1, 319556, Note_off_c, 0, 77, 53
1, 319563, Note_off_c, 0, 56, 58
1, 319616, Note_on_c, 0, 60, 30
1, 319662, Note_off_c, 0, 60, 44
1, 319699, Note_on_c, 0, 77, 60
1, 319724, Note_on_c, 0, 51, 40
1, 319724, Note_on_c, 0, 56, 31
1, 319756, Note_off_c, 0, 51, 57
1, 319772, Note_off_c, 0, 56, 50
1, 319775, Note_off_c, 0, 77, 56
1, 319796, Note_on_c, 0, 60, 46
1, 319875, Note_off_c, 0, 60, 53
1, 319892, Note_on_c, 0, 56, 46
1, 319906, Note_on_c, 0, 51, 44
1, 319942, Note_off_c, 0, 51, 61
1, 319948, Note_off_c, 0, 56, 58
1, 320014, Note_on_c, 0, 77, 62
1, 320022, Note_on_c, 0, 60, 45
1, 320031, Note_off_c, 0, 89, 39
1, 320106, Note_off_c, 0, 60, 52
1, 320117, Note_on_c, 0, 89, 71
1, 320127, Note_on_c, 0, 51, 43
1, 320130, Note_on_c, 0, 56, 29
1, 320170, Note_off_c, 0, 51, 57
1, 320179, Note_off_c, 0, 56, 46
1, 320229, Note_on_c, 0, 60, 39
1, 320285, Note_off_c, 0, 60, 56
1, 320305, Note_on_c, 0, 56, 45
1, 320306, Note_on_c, 0, 51, 47
1, 320348, Note_off_c, 0, 51, 60
1, 320354, Note_off_c, 0, 56, 59
1, 320369, Note_off_c, 0, 77, 39
1, 320407, Note_on_c, 0, 60, 47
1, 320488, Note_off_c, 0, 60, 39
1, 320499, Note_on_c, 0, 77, 66
1, 320512, Note_on_c, 0, 56, 45
1, 320513, Note_on_c, 0, 51, 54
1, 320552, Note_off_c, 0, 51, 60
1, 320560, Note_off_c, 0, 56, 59
1, 320588, Note_off_c, 0, 77, 52
1, 320606, Note_on_c, 0, 60, 43
1, 320660, Note_off_c, 0, 60, 53
1, 320687, Note_on_c, 0, 56, 46
1, 320694, Note_on_c, 0, 51, 47
1, 320735, Note_off_c, 0, 51, 63
1, 320755, Note_off_c, 0, 56, 57
1, 320770, Note_off_c, 0, 89, 55
1, 320792, Note_on_c, 0, 77, 66
1, 320805, Note_on_c, 0, 60, 43
1, 320899, Note_on_c, 0, 89, 75
1, 320902, Note_off_c, 0, 60, 58
1, 320904, Note_on_c, 0, 49, 57
1, 320905, Note_on_c, 0, 56, 46
1, 320929, Control_c, 0, 64, 97
1, 320943, Control_c, 0, 64, 71
1, 320958, Control_c, 0, 64, 54
1, 320973, Control_c, 0, 64, 38
1, 320984, Note_off_c, 0, 56, 57
1, 320986, Note_off_c, 0, 49, 59
1, 320987, Control_c, 0, 64, 44
1, 321002, Control_c, 0, 64, 55
1, 321013, Note_on_c, 0, 60, 55
1, 321017, Control_c, 0, 64, 64
1, 321032, Control_c, 0, 64, 73
1, 321047, Control_c, 0, 64, 86
1, 321061, Control_c, 0, 64, 109
1, 321076, Control_c, 0, 64, 127
1, 321084, Note_off_c, 0, 60, 57
1, 321110, Note_on_c, 0, 56, 56
1, 321111, Note_on_c, 0, 49, 54
1, 321132, Note_off_c, 0, 77, 54
1, 321143, Note_off_c, 0, 49, 64
1, 321155, Note_off_c, 0, 56, 60
1, 321197, Note_on_c, 0, 60, 45
1, 321230, Note_off_c, 0, 60, 59
1, 321295, Note_on_c, 0, 49, 44
1, 321299, Note_on_c, 0, 56, 42
1, 321301, Note_on_c, 0, 77, 76
1, 321344, Note_off_c, 0, 49, 59
1, 321352, Note_off_c, 0, 56, 58
1, 321376, Note_off_c, 0, 77, 59
1, 321400, Note_on_c, 0, 60, 47
1, 321442, Note_off_c, 0, 60, 58
1, 321481, Note_on_c, 0, 49, 49
1, 321491, Note_on_c, 0, 56, 46
1, 321493, Note_off_c, 0, 89, 27
1, 321543, Note_off_c, 0, 49, 61
1, 321552, Note_off_c, 0, 56, 59
1, 321582, Note_on_c, 0, 77, 71
1, 321587, Note_on_c, 0, 60, 54
1, 321651, Note_off_c, 0, 60, 40
1, 321684, Note_on_c, 0, 49, 51
1, 321686, Note_on_c, 0, 56, 53
1, 321686, Note_on_c, 0, 89, 84
1, 321736, Control_c, 0, 64, 117
1, 321751, Control_c, 0, 64, 74
1, 321766, Control_c, 0, 64, 55
1, 321777, Note_off_c, 0, 49, 62
1, 321781, Control_c, 0, 64, 42
1, 321796, Control_c, 0, 64, 52
1, 321805, Note_off_c, 0, 56, 61
1, 321806, Note_on_c, 0, 58, 61
1, 321810, Control_c, 0, 64, 64
1, 321825, Control_c, 0, 64, 76
1, 321840, Control_c, 0, 64, 101
1, 321855, Control_c, 0, 64, 127
1, 321886, Note_off_c, 0, 58, 61
1, 321905, Note_on_c, 0, 56, 52
1, 321915, Note_on_c, 0, 49, 50
1, 321951, Note_off_c, 0, 49, 64
1, 321951, Note_off_c, 0, 77, 56
1, 321962, Note_off_c, 0, 56, 57
1, 322002, Note_on_c, 0, 58, 57
1, 322055, Note_off_c, 0, 58, 50
1, 322079, Note_on_c, 0, 77, 84
1, 322091, Note_on_c, 0, 56, 58
1, 322100, Note_on_c, 0, 49, 51
1, 322145, Note_off_c, 0, 49, 62
1, 322145, Note_off_c, 0, 89, 52
1, 322164, Note_off_c, 0, 56, 60
1, 322174, Note_on_c, 0, 58, 66
1, 322189, Note_off_c, 0, 77, 57
1, 322241, Note_off_c, 0, 58, 50
1, 322279, Note_on_c, 0, 49, 54
1, 322288, Note_on_c, 0, 56, 62
1, 322342, Note_off_c, 0, 56, 57
1, 322348, Note_off_c, 0, 49, 61
1, 322369, Note_on_c, 0, 77, 83
1, 322371, Note_on_c, 0, 58, 66
1, 322487, Note_on_c, 0, 87, 85
1, 322494, Note_on_c, 0, 49, 57
1, 322500, Note_off_c, 0, 58, 59
1, 322512, Note_on_c, 0, 55, 51
1, 322544, Control_c, 0, 64, 84
1, 322559, Control_c, 0, 64, 58
1, 322574, Control_c, 0, 64, 0
1, 322591, Note_off_c, 0, 49, 60
1, 322604, Control_c, 0, 64, 48
1, 322607, Note_off_c, 0, 55, 61
1, 322616, Note_on_c, 0, 58, 60
1, 322619, Control_c, 0, 64, 63
1, 322633, Control_c, 0, 64, 76
1, 322648, Control_c, 0, 64, 100
1, 322660, Note_off_c, 0, 77, 60
1, 322663, Control_c, 0, 64, 127
1, 322693, Note_off_c, 0, 58, 60
1, 322711, Note_on_c, 0, 49, 59
1, 322713, Note_on_c, 0, 55, 56
1, 322750, Note_off_c, 0, 49, 62
1, 322775, Note_off_c, 0, 55, 61
1, 322786, Note_on_c, 0, 58, 52
1, 322887, Note_off_c, 0, 58, 53
1, 322890, Note_on_c, 0, 75, 90
1, 322901, Note_on_c, 0, 55, 56
1, 322909, Note_on_c, 0, 49, 55
1, 322960, Note_off_c, 0, 49, 62
1, 322974, Note_off_c, 0, 75, 61
1, 322977, Note_off_c, 0, 55, 59
1, 323003, Note_on_c, 0, 58, 53
1, 323011, Note_off_c, 0, 87, 51
1, 323065, Note_off_c, 0, 58, 52
1, 323094, Note_on_c, 0, 49, 50
1, 323110, Note_on_c, 0, 55, 41
1, 323160, Note_off_c, 0, 55, 60
1, 323161, Note_off_c, 0, 49, 60
1, 323185, Note_on_c, 0, 58, 63
1, 323217, Note_on_c, 0, 75, 68
1, 323286, Note_off_c, 0, 58, 51
1, 323296, Note_on_c, 0, 87, 88
1, 323297, Note_on_c, 0, 49, 59
1, 323303, Note_on_c, 0, 55, 46
1, 323371, Note_off_c, 0, 49, 62
1, 323382, Note_off_c, 0, 55, 61
1, 323394, Note_on_c, 0, 58, 63
1, 323462, Note_off_c, 0, 75, 49
1, 323467, Note_off_c, 0, 58, 54
1, 323495, Note_on_c, 0, 49, 62
1, 323508, Note_on_c, 0, 55, 50
1, 323554, Note_off_c, 0, 49, 63
1, 323555, Note_off_c, 0, 55, 60
1, 323576, Note_on_c, 0, 58, 71
1, 323680, Note_on_c, 0, 75, 87
1, 323681, Note_off_c, 0, 58, 34
1, 323688, Note_on_c, 0, 49, 65
1, 323692, Note_on_c, 0, 55, 61
1, 323755, Note_off_c, 0, 75, 60
1, 323765, Note_off_c, 0, 49, 62
1, 323775, Note_off_c, 0, 55, 58
1, 323784, Note_off_c, 0, 87, 48
1, 323790, Note_on_c, 0, 58, 73
1, 323848, Note_off_c, 0, 58, 55
1, 323892, Note_on_c, 0, 49, 57
1, 323912, Note_on_c, 0, 55, 31
1, 323942, Note_off_c, 0, 49, 61
1, 323943, Note_off_c, 0, 55, 54
1, 323968, Note_on_c, 0, 58, 68
1, 323985, Note_on_c, 0, 75, 78
1, 324058, Note_off_c, 0, 58, 52
1, 324075, Note_on_c, 0, 87, 96
1, 324085, Note_on_c, 0, 51, 66
1, 324087, Control_c, 0, 64, 89
1, 324088, Note_on_c, 0, 48, 72
1, 324102, Control_c, 0, 64, 58
1, 324117, Control_c, 0, 64, 0
1, 324161, Control_c, 0, 64, 34
1, 324176, Control_c, 0, 64, 61
1, 324189, Note_on_c, 0, 56, 67
1, 324190, Note_off_c, 0, 51, 62
1, 324191, Control_c, 0, 64, 78
1, 324194, Note_off_c, 0, 48, 62
1, 324205, Control_c, 0, 64, 127
1, 324264, Note_off_c, 0, 56, 57
1, 324286, Note_on_c, 0, 51, 65
1, 324296, Note_on_c, 0, 48, 67
1, 324300, Note_off_c, 0, 75, 57
1, 324357, Note_off_c, 0, 48, 59
1, 324359, Note_off_c, 0, 51, 61
1, 324372, Note_on_c, 0, 56, 75
1, 324457, Note_off_c, 0, 56, 54
1, 324489, Note_on_c, 0, 75, 90
1, 324495, Note_on_c, 0, 51, 68
1, 324504, Note_on_c, 0, 48, 72
1, 324527, Note_off_c, 0, 87, 64
1, 324529, Note_off_c, 0, 75, 64
1, 324551, Note_off_c, 0, 48, 59
1, 324553, Note_off_c, 0, 51, 59
1, 324578, Note_on_c, 0, 56, 69
1, 324667, Note_off_c, 0, 56, 44
1, 324680, Note_on_c, 0, 51, 59
1, 324686, Note_on_c, 0, 48, 67
1, 324744, Note_off_c, 0, 48, 59
1, 324744, Note_off_c, 0, 51, 59
1, 324776, Note_on_c, 0, 56, 72
1, 324795, Note_on_c, 0, 75, 84
1, 324846, Note_off_c, 0, 75, 63
1, 324872, Note_off_c, 0, 56, 55
1, 324878, Note_on_c, 0, 51, 63
1, 324879, Note_on_c, 0, 48, 71
1, 324887, Note_on_c, 0, 87, 95
1, 324943, Note_off_c, 0, 48, 62
1, 324948, Note_off_c, 0, 51, 60
1, 324970, Note_on_c, 0, 56, 72
1, 325054, Note_off_c, 0, 56, 54
1, 325065, Note_on_c, 0, 48, 72
1, 325065, Note_on_c, 0, 51, 65
1, 325139, Note_off_c, 0, 48, 61
1, 325139, Note_off_c, 0, 51, 61
1, 325147, Note_on_c, 0, 56, 73
1, 325255, Note_on_c, 0, 75, 94
1, 325258, Note_on_c, 0, 48, 79
1, 325262, Note_off_c, 0, 56, 37
1, 325263, Note_on_c, 0, 51, 67
1, 325298, Note_off_c, 0, 87, 62
1, 325312, Note_off_c, 0, 75, 59
1, 325329, Note_off_c, 0, 51, 59
1, 325334, Note_off_c, 0, 48, 61
1, 325352, Note_on_c, 0, 56, 73
1, 325421, Note_off_c, 0, 56, 59
1, 325447, Note_on_c, 0, 51, 61
1, 325451, Note_on_c, 0, 48, 69
1, 325496, Note_off_c, 0, 48, 63
1, 325502, Note_off_c, 0, 51, 52
1, 325542, Note_on_c, 0, 56, 67
1, 325549, Note_on_c, 0, 75, 82
1, 325622, Note_off_c, 0, 75, 57
1, 325661, Note_on_c, 0, 85, 95
1, 325661, Note_off_c, 0, 56, 24
1, 325667, Note_on_c, 0, 46, 74
1, 325669, Note_on_c, 0, 53, 71
1, 325672, Control_c, 0, 64, 89
1, 325687, Control_c, 0, 64, 62
1, 325702, Control_c, 0, 64, 0
1, 325761, Control_c, 0, 64, 52
1, 325776, Control_c, 0, 64, 68
1, 325779, Note_on_c, 0, 56, 73
1, 325791, Control_c, 0, 64, 84
1, 325799, Note_off_c, 0, 53, 57
1, 325805, Note_off_c, 0, 46, 60
1, 325805, Control_c, 0, 64, 127
1, 325868, Note_off_c, 0, 56, 60
1, 325883, Note_on_c, 0, 53, 65
1, 325896, Note_on_c, 0, 46, 64
1, 325976, Note_on_c, 0, 56, 74
1, 325976, Note_off_c, 0, 46, 60
1, 325983, Note_off_c, 0, 53, 60
1, 326051, Note_off_c, 0, 56, 57
1, 326060, Note_on_c, 0, 73, 90
1, 326072, Note_on_c, 0, 53, 71
1, 326079, Note_on_c, 0, 46, 73
1, 326097, Note_off_c, 0, 85, 64
1, 326107, Note_off_c, 0, 73, 61
1, 326141, Note_off_c, 0, 46, 58
1, 326157, Note_off_c, 0, 53, 61
1, 326160, Note_on_c, 0, 56, 72
1, 326239, Note_off_c, 0, 56, 60
1, 326268, Note_on_c, 0, 53, 63
1, 326283, Note_on_c, 0, 46, 53
1, 326328, Note_off_c, 0, 53, 61
1, 326348, Note_off_c, 0, 46, 59
1, 326351, Note_on_c, 0, 73, 81
1, 326363, Note_on_c, 0, 56, 67
1, 326396, Note_off_c, 0, 73, 62
1, 326397, Note_off_c, 0, 56, 61
1, 326463, Note_on_c, 0, 85, 97
1, 326467, Control_c, 0, 64, 84
1, 326470, Note_on_c, 0, 46, 79
1, 326474, Note_on_c, 0, 51, 79
1, 326481, Control_c, 0, 64, 42
1, 326496, Control_c, 0, 64, 0
1, 326555, Control_c, 0, 64, 44
1, 326570, Control_c, 0, 64, 65
1, 326577, Note_on_c, 0, 55, 67
1, 326585, Control_c, 0, 64, 82
1, 326587, Note_off_c, 0, 46, 61
1, 326597, Note_off_c, 0, 51, 59
1, 326599, Control_c, 0, 64, 127
1, 326678, Note_off_c, 0, 55, 55
1, 326706, Note_on_c, 0, 46, 71
1, 326709, Note_on_c, 0, 51, 73
1, 326783, Note_off_c, 0, 46, 58
1, 326795, Note_on_c, 0, 55, 76
1, 326799, Note_off_c, 0, 51, 61
1, 326874, Control_c, 0, 64, 78
1, 326885, Note_on_c, 0, 46, 79
1, 326886, Note_on_c, 0, 73, 94
1, 326889, Control_c, 0, 64, 30
1, 326891, Note_on_c, 0, 51, 79
1, 326895, Note_off_c, 0, 55, 54
1, 326903, Control_c, 0, 64, 0
1, 326933, Control_c, 0, 64, 46
1, 326947, Control_c, 0, 64, 67
1, 326960, Note_off_c, 0, 73, 56
1, 326962, Note_off_c, 0, 85, 58
1, 326962, Control_c, 0, 64, 83
1, 326977, Control_c, 0, 64, 127
1, 326991, Note_off_c, 0, 46, 57
1, 326992, Note_on_c, 0, 55, 77
1, 327002, Note_off_c, 0, 51, 61
1, 327063, Note_off_c, 0, 55, 61
1, 327107, Note_on_c, 0, 46, 62
1, 327108, Note_on_c, 0, 51, 60
1, 327184, Note_on_c, 0, 73, 91
1, 327197, Note_on_c, 0, 55, 67
1, 327203, Note_off_c, 0, 51, 61
1, 327210, Note_off_c, 0, 46, 61
1, 327228, Note_off_c, 0, 55, 64
1, 327235, Note_off_c, 0, 73, 63
1, 327409, Note_on_c, 0, 72, 81
1, 327420, Note_on_c, 0, 56, 91
1, 327421, Control_c, 0, 64, 105
1, 327429, Note_on_c, 0, 44, 74
1, 327436, Control_c, 0, 64, 81
1, 327459, Control_c, 0, 64, 65
1, 327475, Control_c, 0, 64, 43
1, 327490, Control_c, 0, 64, 0
1, 327513, Note_off_c, 0, 72, 60
1, 327528, Note_on_c, 0, 75, 69
1, 327578, Control_c, 0, 64, 49
1, 327593, Control_c, 0, 64, 65
1, 327597, Note_on_c, 0, 73, 75
1, 327597, Note_off_c, 0, 75, 65
1, 327608, Control_c, 0, 64, 81
1, 327623, Control_c, 0, 64, 127
1, 327658, Note_off_c, 0, 73, 63
1, 327665, Note_on_c, 0, 72, 75
1, 327734, Note_off_c, 0, 44, 63
1, 327736, Note_off_c, 0, 72, 62
1, 327738, Note_on_c, 0, 73, 81
1, 327752, Note_off_c, 0, 56, 61
1, 327797, Note_on_c, 0, 75, 85
1, 327801, Note_off_c, 0, 73, 63
1, 327845, Note_off_c, 0, 75, 65
1, 327856, Note_on_c, 0, 77, 87
1, 327926, Note_on_c, 0, 79, 82
1, 327939, Note_off_c, 0, 77, 57
1, 327984, Note_on_c, 0, 80, 88
1, 328006, Note_off_c, 0, 79, 63
1, 328050, Note_on_c, 0, 82, 83
1, 328096, Control_c, 0, 64, 68
1, 328098, Note_off_c, 0, 80, 60
1, 328111, Note_on_c, 0, 84, 82
1, 328111, Control_c, 0, 64, 0
1, 328123, Note_off_c, 0, 82, 65
1, 328183, Note_on_c, 0, 82, 80
1, 328217, Note_off_c, 0, 84, 67
1, 328245, Note_on_c, 0, 80, 80
1, 328285, Note_off_c, 0, 82, 64
1, 328305, Note_on_c, 0, 79, 78
1, 328330, Note_off_c, 0, 80, 65
1, 328362, Note_off_c, 0, 79, 66
1, 328363, Note_on_c, 0, 77, 79
1, 328420, Note_off_c, 0, 77, 64
1, 328427, Note_on_c, 0, 56, 97
1, 328429, Note_on_c, 0, 44, 80
1, 328432, Note_on_c, 0, 51, 85
1, 328435, Note_on_c, 0, 75, 87
1, 328437, Note_on_c, 0, 48, 77
1, 328446, Control_c, 0, 64, 60
1, 328461, Control_c, 0, 64, 72
1, 328471, Note_off_c, 0, 56, 62
1, 328475, Control_c, 0, 64, 79
1, 328490, Control_c, 0, 64, 83
1, 328493, Note_off_c, 0, 51, 57
1, 328505, Control_c, 0, 64, 86
1, 328515, Note_on_c, 0, 73, 78
1, 328519, Control_c, 0, 64, 88
1, 328525, Note_off_c, 0, 75, 61
1, 328551, Note_off_c, 0, 44, 35
1, 328586, Note_off_c, 0, 48, 31
1, 328597, Note_off_c, 0, 73, 63
1, 328605, Note_on_c, 0, 72, 74
1, 328665, Note_off_c, 0, 72, 64
1, 328700, Note_on_c, 0, 51, 85
1, 328705, Note_on_c, 0, 56, 84
1, 328706, Note_on_c, 0, 44, 74
1, 328711, Note_on_c, 0, 70, 83
1, 328718, Note_on_c, 0, 48, 70
1, 328727, Control_c, 0, 64, 79
1, 328740, Note_off_c, 0, 56, 65
1, 328742, Note_off_c, 0, 44, 61
1, 328742, Control_c, 0, 64, 58
1, 328742, Note_off_c, 0, 48, 69
1, 328754, Note_off_c, 0, 51, 63
1, 328757, Control_c, 0, 64, 0
1, 328785, Note_off_c, 0, 70, 63
1, 328786, Note_on_c, 0, 68, 75
1, 328813, Note_on_c, 0, 55, 90
1, 328816, Note_on_c, 0, 46, 83
1, 328819, Note_on_c, 0, 49, 78
1, 328852, Note_on_c, 0, 52, 57
1, 328853, Note_off_c, 0, 68, 60
1, 328866, Note_on_c, 0, 67, 78
1, 328922, Note_off_c, 0, 67, 62
1, 328935, Note_off_c, 0, 52, 54
1, 328951, Note_on_c, 0, 70, 73
1, 329020, Note_off_c, 0, 70, 64
1, 329025, Note_on_c, 0, 68, 69
1, 329031, Control_c, 0, 64, 34
1, 329046, Control_c, 0, 64, 58
1, 329061, Control_c, 0, 64, 69
1, 329076, Control_c, 0, 64, 76
1, 329078, Note_off_c, 0, 68, 62
1, 329090, Note_on_c, 0, 67, 70
1, 329091, Control_c, 0, 64, 87
1, 329105, Control_c, 0, 64, 102
1, 329120, Control_c, 0, 64, 127
1, 329134, Note_on_c, 0, 51, 26
1, 329141, Note_off_c, 0, 67, 59
1, 329165, Note_on_c, 0, 68, 71
1, 329204, Note_off_c, 0, 49, 59
1, 329206, Note_off_c, 0, 46, 61
1, 329211, Note_off_c, 0, 51, 54
1, 329212, Note_off_c, 0, 68, 56
1, 329222, Note_on_c, 0, 70, 80
1, 329227, Note_off_c, 0, 55, 59
1, 329268, Note_off_c, 0, 70, 65
1, 329291, Note_on_c, 0, 72, 84
1, 329363, Note_on_c, 0, 73, 81
1, 329384, Note_off_c, 0, 72, 53
1, 329427, Note_on_c, 0, 75, 82
1, 329449, Note_off_c, 0, 73, 61
1, 329483, Note_on_c, 0, 77, 88
1, 329484, Note_off_c, 0, 75, 67
1, 329490, Control_c, 0, 64, 66
1, 329505, Control_c, 0, 64, 0
1, 329562, Note_on_c, 0, 75, 83
1, 329570, Note_off_c, 0, 77, 64
1, 329618, Note_on_c, 0, 73, 79
1, 329635, Note_off_c, 0, 75, 60
1, 329686, Note_off_c, 0, 73, 64
1, 329689, Note_on_c, 0, 72, 73
1, 329756, Note_off_c, 0, 72, 62
1, 329793, Note_on_c, 0, 70, 75
1, 329838, Note_on_c, 0, 55, 89
1, 329843, Note_on_c, 0, 46, 78
1, 329845, Note_on_c, 0, 51, 74
1, 329847, Note_on_c, 0, 49, 70
1, 329854, Control_c, 0, 64, 37
1, 329857, Note_on_c, 0, 68, 74
1, 329870, Note_off_c, 0, 55, 62
1, 329870, Control_c, 0, 64, 60
1, 329876, Note_off_c, 0, 51, 66
1, 329880, Note_off_c, 0, 49, 66
1, 329885, Control_c, 0, 64, 64
1, 329886, Note_off_c, 0, 46, 58
1, 329896, Note_off_c, 0, 70, 61
1, 329900, Control_c, 0, 64, 67
1, 329915, Control_c, 0, 64, 70
1, 329929, Control_c, 0, 64, 72
1, 329930, Note_on_c, 0, 67, 80
1, 329944, Control_c, 0, 64, 74
1, 329945, Note_off_c, 0, 68, 64
1, 329959, Control_c, 0, 64, 76
1, 329973, Control_c, 0, 64, 76
1, 329988, Control_c, 0, 64, 77
1, 329992, Note_off_c, 0, 67, 63
1, 330009, Note_on_c, 0, 65, 74
1, 330059, Note_off_c, 0, 65, 61
1, 330098, Note_on_c, 0, 63, 78
1, 330110, Note_on_c, 0, 49, 67
1, 330110, Note_on_c, 0, 55, 71
1, 330117, Note_on_c, 0, 46, 62
1, 330119, Note_on_c, 0, 51, 67
1, 330133, Note_off_c, 0, 55, 70
1, 330137, Control_c, 0, 64, 74
1, 330145, Note_off_c, 0, 49, 64
1, 330151, Note_off_c, 0, 46, 63
1, 330152, Control_c, 0, 64, 56
1, 330155, Note_off_c, 0, 51, 63
1, 330166, Control_c, 0, 64, 0
1, 330170, Note_off_c, 0, 63, 61
1, 330170, Note_on_c, 0, 61, 74
1, 330209, Note_on_c, 0, 48, 93
1, 330213, Note_on_c, 0, 56, 93
1, 330215, Note_off_c, 0, 61, 64
1, 330220, Note_on_c, 0, 51, 74
1, 330229, Note_on_c, 0, 60, 67
1, 330256, Note_off_c, 0, 60, 65
1, 330354, Note_on_c, 0, 75, 67
1, 330410, Note_on_c, 0, 73, 75
1, 330414, Note_off_c, 0, 75, 65
1, 330474, Note_off_c, 0, 73, 64
1, 330477, Note_on_c, 0, 72, 76
1, 330485, Control_c, 0, 64, 47
1, 330499, Control_c, 0, 64, 59
1, 330514, Control_c, 0, 64, 62
1, 330529, Control_c, 0, 64, 66
1, 330544, Control_c, 0, 64, 71
1, 330548, Note_off_c, 0, 72, 62
1, 330552, Note_on_c, 0, 73, 83
1, 330559, Control_c, 0, 64, 78
1, 330573, Control_c, 0, 64, 89
1, 330588, Control_c, 0, 64, 104
1, 330603, Control_c, 0, 64, 127
1, 330611, Note_on_c, 0, 75, 85
1, 330615, Note_off_c, 0, 73, 64
1, 330636, Note_off_c, 0, 48, 59
1, 330639, Note_off_c, 0, 51, 60
1, 330659, Note_off_c, 0, 56, 59
1, 330663, Note_off_c, 0, 75, 64
1, 330681, Note_on_c, 0, 77, 92
1, 330752, Note_on_c, 0, 79, 81
1, 330756, Note_off_c, 0, 77, 62
1, 330810, Note_on_c, 0, 80, 86
1, 330834, Note_off_c, 0, 79, 62
1, 330878, Note_on_c, 0, 82, 84
1, 330912, Note_off_c, 0, 80, 63
1, 330915, Control_c, 0, 64, 90
1, 330930, Control_c, 0, 64, 54
1, 330945, Control_c, 0, 64, 0
1, 330945, Note_on_c, 0, 84, 80
1, 330956, Note_off_c, 0, 82, 64
1, 331013, Note_on_c, 0, 82, 74
1, 331042, Note_off_c, 0, 84, 65
1, 331073, Note_on_c, 0, 80, 79
1, 331109, Note_off_c, 0, 82, 64
1, 331127, Note_on_c, 0, 79, 74
1, 331147, Note_off_c, 0, 80, 66
1, 331183, Note_off_c, 0, 79, 65
1, 331194, Note_on_c, 0, 77, 77
1, 331246, Note_off_c, 0, 77, 64
1, 331248, Control_c, 0, 64, 41
1, 331254, Note_on_c, 0, 56, 82
1, 331255, Note_on_c, 0, 63, 90
1, 331263, Control_c, 0, 64, 66
1, 331264, Note_on_c, 0, 60, 72
1, 331267, Note_on_c, 0, 75, 84
1, 331277, Control_c, 0, 64, 88
1, 331292, Control_c, 0, 64, 127
1, 331307, Note_off_c, 0, 63, 58
1, 331335, Note_off_c, 0, 60, 58
1, 331341, Note_on_c, 0, 73, 78
1, 331343, Note_off_c, 0, 56, 58
1, 331346, Note_off_c, 0, 75, 64
1, 331411, Note_off_c, 0, 73, 62
1, 331413, Note_on_c, 0, 72, 75
1, 331455, Control_c, 0, 64, 81
1, 331469, Note_off_c, 0, 72, 58
1, 331471, Control_c, 0, 64, 55
1, 331486, Control_c, 0, 64, 43
1, 331490, Note_on_c, 0, 70, 78
1, 331500, Control_c, 0, 64, 57
1, 331505, Note_on_c, 0, 56, 79
1, 331511, Note_on_c, 0, 63, 80
1, 331515, Control_c, 0, 64, 69
1, 331523, Note_on_c, 0, 60, 56
1, 331530, Control_c, 0, 64, 82
1, 331544, Control_c, 0, 64, 103
1, 331547, Note_off_c, 0, 63, 58
1, 331550, Note_off_c, 0, 60, 64
1, 331559, Control_c, 0, 64, 127
1, 331560, Note_off_c, 0, 56, 63
1, 331568, Note_on_c, 0, 68, 84
1, 331578, Note_off_c, 0, 70, 62
1, 331611, Note_off_c, 0, 68, 63
1, 331673, Note_on_c, 0, 67, 84
1, 331677, Note_on_c, 0, 58, 72
1, 331678, Note_on_c, 0, 61, 71
1, 331687, Note_on_c, 0, 63, 69
1, 331723, Control_c, 0, 64, 104
1, 331737, Control_c, 0, 64, 82
1, 331752, Control_c, 0, 64, 66
1, 331767, Control_c, 0, 64, 46
1, 331782, Control_c, 0, 64, 0
1, 331803, Note_on_c, 0, 85, 80
1, 331841, Note_off_c, 0, 67, 39
1, 331882, Note_on_c, 0, 87, 77
1, 331900, Note_off_c, 0, 85, 62
1, 331952, Control_c, 0, 64, 44
1, 331964, Note_on_c, 0, 89, 84
1, 331966, Note_off_c, 0, 87, 66
1, 331967, Control_c, 0, 64, 56
1, 331982, Control_c, 0, 64, 60
1, 331997, Control_c, 0, 64, 64
1, 332012, Control_c, 0, 64, 67
1, 332026, Control_c, 0, 64, 72
1, 332041, Control_c, 0, 64, 78
1, 332044, Note_on_c, 0, 87, 86
1, 332055, Note_off_c, 0, 89, 62
1, 332056, Control_c, 0, 64, 84
1, 332071, Control_c, 0, 64, 89
1, 332086, Control_c, 0, 64, 95
1, 332100, Note_on_c, 0, 85, 83
1, 332100, Control_c, 0, 64, 104
1, 332115, Control_c, 0, 64, 116
1, 332121, Note_off_c, 0, 87, 65
1, 332130, Control_c, 0, 64, 127
1, 332164, Note_on_c, 0, 84, 78
1, 332166, Note_off_c, 0, 85, 65
1, 332211, Note_off_c, 0, 84, 64
1, 332228, Note_on_c, 0, 82, 82
1, 332232, Note_off_c, 0, 58, 58
1, 332279, Note_off_c, 0, 63, 53
1, 332290, Note_on_c, 0, 80, 86
1, 332300, Note_off_c, 0, 61, 57
1, 332306, Note_off_c, 0, 82, 61
1, 332345, Note_on_c, 0, 79, 81
1, 332366, Note_off_c, 0, 80, 62
1, 332367, Control_c, 0, 64, 95
1, 332382, Control_c, 0, 64, 64
1, 332397, Control_c, 0, 64, 0
1, 332415, Note_on_c, 0, 84, 80
1, 332417, Note_off_c, 0, 79, 64
1, 332471, Note_on_c, 0, 82, 80
1, 332504, Note_off_c, 0, 84, 66
1, 332525, Note_on_c, 0, 80, 80
1, 332563, Note_off_c, 0, 82, 64
1, 332569, Note_on_c, 0, 79, 76
1, 332587, Note_off_c, 0, 80, 65
1, 332617, Note_off_c, 0, 79, 64
1, 332624, Note_on_c, 0, 77, 77
1, 332662, Note_off_c, 0, 77, 63
1, 332701, Note_on_c, 0, 75, 79
1, 332761, Note_on_c, 0, 73, 76
1, 332763, Note_off_c, 0, 75, 64
1, 332812, Note_off_c, 0, 73, 62
1, 332821, Note_on_c, 0, 72, 69
1, 332863, Note_off_c, 0, 72, 59
1, 332872, Note_on_c, 0, 70, 71
1, 332934, Note_off_c, 0, 70, 65
1, 332939, Control_c, 0, 64, 33
1, 332941, Note_on_c, 0, 69, 68
1, 332954, Control_c, 0, 64, 45
1, 332968, Control_c, 0, 64, 55
1, 332983, Control_c, 0, 64, 61
1, 332998, Control_c, 0, 64, 63
1, 333007, Note_on_c, 0, 60, 51
1, 333013, Control_c, 0, 64, 65
1, 333028, Control_c, 0, 64, 66
1, 333040, Note_off_c, 0, 69, 58
1, 333042, Control_c, 0, 64, 69
1, 333049, Note_off_c, 0, 60, 64
1, 333057, Control_c, 0, 64, 74
1, 333073, Note_on_c, 0, 63, 54
1, 333073, Control_c, 0, 64, 79
1, 333088, Control_c, 0, 64, 84
1, 333103, Control_c, 0, 64, 88
1, 333111, Note_off_c, 0, 63, 66
1, 333117, Control_c, 0, 64, 94
1, 333128, Note_on_c, 0, 66, 65
1, 333132, Control_c, 0, 64, 101
1, 333147, Control_c, 0, 64, 112
1, 333159, Note_off_c, 0, 66, 67
1, 333162, Control_c, 0, 64, 127
1, 333175, Note_on_c, 0, 69, 55
1, 333213, Note_off_c, 0, 69, 64
1, 333228, Note_on_c, 0, 72, 63
1, 333286, Note_off_c, 0, 72, 56
1, 333288, Note_on_c, 0, 75, 75
1, 333349, Note_off_c, 0, 75, 65
1, 333359, Note_on_c, 0, 78, 71
1, 333383, Control_c, 0, 67, 37
1, 333393, Note_off_c, 0, 78, 60
1, 333398, Control_c, 0, 67, 43
1, 333400, Note_on_c, 0, 81, 77
1, 333413, Control_c, 0, 67, 48
1, 333428, Control_c, 0, 67, 51
1, 333467, Note_off_c, 0, 81, 65
1, 333468, Note_on_c, 0, 78, 73
1, 333495, Control_c, 0, 67, 51
1, 333507, Note_on_c, 0, 75, 72
1, 333510, Control_c, 0, 67, 50
1, 333517, Note_off_c, 0, 78, 62
1, 333524, Control_c, 0, 67, 49
1, 333539, Control_c, 0, 67, 47
1, 333554, Note_off_c, 0, 75, 65
1, 333554, Control_c, 0, 67, 46
1, 333566, Note_on_c, 0, 72, 72
1, 333569, Control_c, 0, 67, 44
1, 333584, Control_c, 0, 67, 43
1, 333598, Control_c, 0, 64, 108
1, 333598, Control_c, 0, 67, 41
1, 333613, Control_c, 0, 64, 78
1, 333613, Control_c, 0, 67, 39
1, 333614, Note_off_c, 0, 72, 62
1, 333628, Control_c, 0, 64, 61
1, 333628, Control_c, 0, 67, 0
1, 333643, Control_c, 0, 64, 55
1, 333651, Note_on_c, 0, 69, 76
1, 333658, Control_c, 0, 64, 58
1, 333672, Control_c, 0, 64, 60
1, 333687, Control_c, 0, 64, 62
1, 333702, Control_c, 0, 64, 64
1, 333717, Control_c, 0, 64, 66
1, 333726, Note_on_c, 0, 60, 49
1, 333732, Control_c, 0, 64, 72
1, 333732, Note_off_c, 0, 69, 60
1, 333747, Control_c, 0, 64, 77
1, 333761, Control_c, 0, 64, 82
1, 333772, Note_off_c, 0, 60, 63
1, 333776, Control_c, 0, 64, 85
1, 333786, Note_on_c, 0, 63, 58
1, 333791, Control_c, 0, 64, 89
1, 333806, Control_c, 0, 64, 94
1, 333821, Control_c, 0, 64, 99
1, 333836, Note_off_c, 0, 63, 62
1, 333836, Control_c, 0, 64, 105
1, 333842, Note_on_c, 0, 66, 63
1, 333851, Control_c, 0, 64, 117
1, 333866, Control_c, 0, 64, 127
1, 333884, Note_off_c, 0, 66, 62
1, 333892, Note_on_c, 0, 69, 53
1, 333924, Note_off_c, 0, 69, 63
1, 333958, Note_on_c, 0, 72, 66
1, 334012, Note_off_c, 0, 72, 54
1, 334014, Note_on_c, 0, 75, 74
1, 334069, Note_on_c, 0, 78, 73
1, 334071, Note_off_c, 0, 75, 64
1, 334116, Note_off_c, 0, 78, 61
1, 334119, Note_on_c, 0, 81, 79
1, 334175, Note_on_c, 0, 78, 75
1, 334178, Note_off_c, 0, 81, 64
1, 334229, Note_on_c, 0, 75, 79
1, 334240, Note_off_c, 0, 78, 63
1, 334278, Note_off_c, 0, 75, 66
1, 334283, Note_on_c, 0, 72, 77
1, 334333, Control_c, 0, 64, 89
1, 334347, Control_c, 0, 64, 64
1, 334349, Note_off_c, 0, 72, 61
1, 334362, Control_c, 0, 64, 49
1, 334367, Note_on_c, 0, 69, 87
1, 334392, Control_c, 0, 64, 55
1, 334407, Control_c, 0, 64, 61
1, 334421, Control_c, 0, 64, 69
1, 334436, Control_c, 0, 64, 83
1, 334447, Note_on_c, 0, 60, 62
1, 334451, Control_c, 0, 64, 127
1, 334466, Note_off_c, 0, 69, 60
1, 334522, Note_on_c, 0, 63, 64
1, 334522, Note_off_c, 0, 60, 62
1, 334569, Note_on_c, 0, 66, 68
1, 334574, Note_off_c, 0, 63, 62
1, 334610, Note_on_c, 0, 69, 60
1, 334612, Note_off_c, 0, 66, 62
1, 334637, Note_off_c, 0, 69, 64
1, 334689, Note_on_c, 0, 72, 67
1, 334736, Note_off_c, 0, 72, 55
1, 334742, Note_on_c, 0, 75, 73
1, 334803, Note_on_c, 0, 78, 68
1, 334805, Note_off_c, 0, 75, 62
1, 334832, Note_off_c, 0, 78, 63
1, 334840, Note_on_c, 0, 81, 74
1, 334898, Note_off_c, 0, 81, 65
1, 334900, Note_on_c, 0, 78, 78
1, 334954, Note_on_c, 0, 75, 73
1, 334963, Note_off_c, 0, 78, 65
1, 334999, Note_off_c, 0, 75, 67
1, 335015, Note_on_c, 0, 72, 68
1, 335051, Control_c, 0, 64, 99
1, 335066, Control_c, 0, 64, 64
1, 335068, Note_off_c, 0, 72, 64
1, 335079, Note_on_c, 0, 69, 96
1, 335081, Control_c, 0, 64, 32
1, 335095, Control_c, 0, 64, 33
1, 335110, Control_c, 0, 64, 51
1, 335125, Control_c, 0, 64, 63
1, 335140, Control_c, 0, 64, 76
1, 335155, Control_c, 0, 64, 112
1, 335162, Note_off_c, 0, 69, 60
1, 335167, Note_on_c, 0, 60, 64
1, 335169, Control_c, 0, 64, 127
1, 335227, Note_on_c, 0, 63, 73
1, 335239, Note_off_c, 0, 60, 62
1, 335271, Note_on_c, 0, 66, 79
1, 335285, Note_off_c, 0, 63, 63
1, 335332, Note_off_c, 0, 66, 64
1, 335335, Note_on_c, 0, 69, 70
1, 335368, Note_off_c, 0, 69, 63
1, 335398, Note_on_c, 0, 72, 73
1, 335464, Note_on_c, 0, 75, 77
1, 335475, Note_off_c, 0, 72, 57
1, 335521, Note_on_c, 0, 78, 71
1, 335544, Note_off_c, 0, 75, 59
1, 335568, Note_off_c, 0, 78, 61
1, 335570, Note_on_c, 0, 81, 77
1, 335625, Note_on_c, 0, 78, 72
1, 335643, Note_off_c, 0, 81, 59
1, 335668, Note_on_c, 0, 75, 78
1, 335702, Note_off_c, 0, 78, 63
1, 335731, Note_on_c, 0, 72, 81
1, 335731, Note_off_c, 0, 75, 66
1, 335797, Note_off_c, 0, 72, 65
1, 335800, Control_c, 0, 64, 78
1, 335815, Control_c, 0, 64, 51
1, 335818, Note_on_c, 0, 71, 99
1, 335830, Control_c, 0, 64, 0
1, 335890, Control_c, 0, 64, 39
1, 335905, Control_c, 0, 64, 62
1, 335908, Note_on_c, 0, 62, 63
1, 335919, Control_c, 0, 64, 73
1, 335934, Control_c, 0, 64, 92
1, 335949, Control_c, 0, 64, 127
1, 335961, Note_off_c, 0, 71, 59
1, 335980, Note_on_c, 0, 65, 65
1, 335982, Note_off_c, 0, 62, 62
1, 336027, Note_on_c, 0, 68, 74
1, 336030, Note_off_c, 0, 65, 64
1, 336064, Note_off_c, 0, 68, 63
1, 336087, Note_on_c, 0, 71, 66
1, 336114, Note_off_c, 0, 71, 65
1, 336137, Note_on_c, 0, 74, 74
1, 336191, Note_off_c, 0, 74, 57
1, 336200, Note_on_c, 0, 77, 66
1, 336239, Note_on_c, 0, 80, 75
1, 336264, Note_off_c, 0, 77, 61
1, 336294, Note_off_c, 0, 80, 65
1, 336298, Note_on_c, 0, 83, 77
1, 336352, Note_off_c, 0, 83, 63
1, 336353, Note_on_c, 0, 80, 66
1, 336396, Note_on_c, 0, 77, 75
1, 336409, Note_off_c, 0, 80, 65
1, 336453, Note_off_c, 0, 77, 64
1, 336469, Note_on_c, 0, 74, 80
1, 336535, Control_c, 0, 64, 77
1, 336538, Note_off_c, 0, 74, 64
1, 336549, Control_c, 0, 64, 54
1, 336550, Note_on_c, 0, 71, 90
1, 336564, Control_c, 0, 64, 35
1, 336579, Control_c, 0, 64, 41
1, 336594, Control_c, 0, 64, 57
1, 336609, Control_c, 0, 64, 66
1, 336623, Control_c, 0, 64, 76
1, 336638, Control_c, 0, 64, 90
1, 336653, Control_c, 0, 64, 105
1, 336654, Note_on_c, 0, 62, 60
1, 336668, Control_c, 0, 64, 127
1, 336689, Note_off_c, 0, 71, 59
1, 336704, Note_off_c, 0, 62, 58
1, 336707, Note_on_c, 0, 65, 57
1, 336754, Note_off_c, 0, 65, 62
1, 336766, Note_on_c, 0, 68, 66
1, 336795, Note_off_c, 0, 68, 67
1, 336822, Note_on_c, 0, 71, 53
1, 336851, Note_off_c, 0, 71, 63
1, 336865, Note_on_c, 0, 74, 72
1, 336928, Note_off_c, 0, 74, 52
1, 336940, Note_on_c, 0, 77, 65
1, 336979, Control_c, 0, 67, 50
1, 336993, Note_on_c, 0, 80, 73
1, 336994, Control_c, 0, 67, 66
1, 337001, Note_off_c, 0, 77, 61
1, 337008, Control_c, 0, 67, 79
1, 337023, Control_c, 0, 67, 90
1, 337038, Control_c, 0, 67, 100
1, 337043, Note_off_c, 0, 80, 64
1, 337048, Note_on_c, 0, 83, 76
1, 337054, Control_c, 0, 67, 109
1, 337069, Control_c, 0, 67, 115
1, 337084, Control_c, 0, 67, 119
1, 337110, Note_off_c, 0, 83, 62
1, 337113, Note_on_c, 0, 80, 65
1, 337113, Control_c, 0, 67, 122
1, 337128, Control_c, 0, 67, 125
1, 337143, Control_c, 0, 67, 127
1, 337154, Note_on_c, 0, 77, 71
1, 337163, Note_off_c, 0, 80, 64
1, 337210, Note_off_c, 0, 77, 62
1, 337230, Note_on_c, 0, 74, 73
1, 337291, Note_off_c, 0, 74, 63
1, 337313, Control_c, 0, 64, 101
1, 337320, Note_on_c, 0, 71, 80
1, 337328, Control_c, 0, 64, 73
1, 337343, Control_c, 0, 64, 54
1, 337358, Control_c, 0, 64, 29
1, 337387, Control_c, 0, 64, 36
1, 337402, Control_c, 0, 64, 46
1, 337414, Note_on_c, 0, 62, 55
1, 337417, Control_c, 0, 64, 54
1, 337432, Control_c, 0, 64, 60
1, 337446, Note_off_c, 0, 71, 60
1, 337446, Control_c, 0, 64, 64
1, 337457, Note_off_c, 0, 62, 62
1, 337461, Control_c, 0, 64, 69
1, 337472, Note_on_c, 0, 65, 51
1, 337476, Control_c, 0, 64, 76
1, 337491, Control_c, 0, 64, 82
1, 337506, Control_c, 0, 64, 87
1, 337510, Note_off_c, 0, 65, 64
1, 337519, Note_on_c, 0, 67, 62
1, 337520, Control_c, 0, 64, 91
1, 337535, Control_c, 0, 64, 93
1, 337550, Control_c, 0, 64, 95
1, 337557, Note_off_c, 0, 67, 61
1, 337565, Control_c, 0, 64, 96
1, 337571, Note_on_c, 0, 71, 61
1, 337601, Note_off_c, 0, 71, 65
1, 337625, Note_on_c, 0, 74, 59
1, 337657, Note_off_c, 0, 74, 62
1, 337687, Note_on_c, 0, 77, 59
1, 337728, Note_off_c, 0, 77, 58
1, 337739, Note_on_c, 0, 79, 61
1, 337766, Note_off_c, 0, 79, 67
1, 337789, Note_on_c, 0, 83, 68
1, 337802, Control_c, 0, 64, 95
1, 337817, Control_c, 0, 64, 95
1, 337825, Note_off_c, 0, 83, 59
1, 337831, Control_c, 0, 64, 94
1, 337845, Control_c, 0, 64, 93
1, 337854, Note_on_c, 0, 79, 64
1, 337860, Control_c, 0, 64, 92
1, 337875, Control_c, 0, 64, 92
1, 337887, Note_off_c, 0, 79, 60
1, 337890, Control_c, 0, 64, 91
1, 337905, Control_c, 0, 64, 89
1, 337906, Note_on_c, 0, 77, 70
1, 337920, Control_c, 0, 64, 88
1, 337942, Control_c, 0, 64, 87
1, 337945, Note_off_c, 0, 77, 63
1, 337957, Control_c, 0, 64, 86
1, 337972, Control_c, 0, 64, 86
1, 337982, Note_on_c, 0, 74, 67
1, 337986, Control_c, 0, 64, 84
1, 338001, Control_c, 0, 64, 83
1, 338016, Control_c, 0, 64, 82
1, 338031, Control_c, 0, 64, 81
1, 338035, Note_off_c, 0, 74, 58
1, 338046, Control_c, 0, 64, 80
1, 338060, Control_c, 0, 64, 78
1, 338072, Note_on_c, 0, 71, 70
1, 338075, Control_c, 0, 64, 74
1, 338090, Control_c, 0, 64, 67
1, 338105, Control_c, 0, 64, 57
1, 338120, Control_c, 0, 64, 39
1, 338134, Control_c, 0, 64, 0
1, 338159, Note_on_c, 0, 62, 52
1, 338164, Control_c, 0, 64, 32
1, 338179, Control_c, 0, 64, 39
1, 338194, Control_c, 0, 64, 46
1, 338209, Control_c, 0, 64, 55
1, 338211, Note_off_c, 0, 71, 58
1, 338218, Note_off_c, 0, 62, 58
1, 338224, Control_c, 0, 64, 62
1, 338236, Note_on_c, 0, 65, 48
1, 338238, Control_c, 0, 64, 66
1, 338253, Control_c, 0, 64, 68
1, 338268, Control_c, 0, 64, 70
1, 338281, Note_off_c, 0, 65, 63
1, 338283, Control_c, 0, 64, 72
1, 338292, Note_on_c, 0, 67, 57
1, 338298, Control_c, 0, 64, 74
1, 338312, Control_c, 0, 64, 77
1, 338327, Note_off_c, 0, 67, 64
1, 338327, Control_c, 0, 64, 79
1, 338341, Note_on_c, 0, 71, 60
1, 338342, Control_c, 0, 64, 80
1, 338357, Control_c, 0, 64, 81
1, 338372, Control_c, 0, 64, 81
1, 338381, Note_off_c, 0, 71, 59
1, 338386, Control_c, 0, 64, 82
1, 338401, Control_c, 0, 64, 82
1, 338411, Note_on_c, 0, 74, 55
1, 338430, Control_c, 0, 64, 83
1, 338442, Note_off_c, 0, 74, 51
1, 338480, Note_on_c, 0, 77, 58
1, 338530, Note_off_c, 0, 77, 56
1, 338545, Note_on_c, 0, 79, 61
1, 338579, Note_off_c, 0, 79, 60
1, 338609, Note_on_c, 0, 83, 60
1, 338658, Note_off_c, 0, 83, 62
1, 338691, Note_on_c, 0, 79, 64
1, 338691, Control_c, 0, 64, 82
1, 338749, Note_off_c, 0, 79, 60
1, 338750, Control_c, 0, 64, 82
1, 338765, Note_on_c, 0, 77, 62
1, 338780, Control_c, 0, 64, 81
1, 338795, Control_c, 0, 64, 81
1, 338804, Note_off_c, 0, 77, 58
1, 338809, Control_c, 0, 64, 80
1, 338824, Control_c, 0, 64, 79
1, 338839, Control_c, 0, 64, 78
1, 338840, Note_on_c, 0, 74, 63
1, 338854, Control_c, 0, 64, 77
1, 338869, Control_c, 0, 64, 76
1, 338883, Control_c, 0, 64, 75
1, 338898, Control_c, 0, 64, 74
1, 338913, Control_c, 0, 64, 73
1, 338927, Control_c, 0, 64, 71
1, 338942, Control_c, 0, 64, 70
1, 338957, Control_c, 0, 64, 69
1, 338963, Note_off_c, 0, 74, 35
1, 338972, Control_c, 0, 64, 67
1, 338987, Control_c, 0, 64, 66
1, 339002, Control_c, 0, 64, 64
1, 339017, Control_c, 0, 64, 63
1, 339023, Note_on_c, 0, 72, 52
1, 339032, Control_c, 0, 64, 62
1, 339047, Control_c, 0, 64, 62
1, 339050, Note_on_c, 0, 67, 41
1, 339061, Note_on_c, 0, 64, 42
1, 339061, Control_c, 0, 64, 61
1, 339076, Control_c, 0, 64, 59
1, 339091, Control_c, 0, 64, 56
1, 339094, Note_off_c, 0, 72, 62
1, 339106, Control_c, 0, 64, 53
1, 339121, Control_c, 0, 64, 49
1, 339135, Control_c, 0, 64, 40
1, 339150, Control_c, 0, 64, 0
1, 339653, Note_on_c, 0, 48, 82
1, 339674, Note_on_c, 0, 72, 41
1, 339732, Note_off_c, 0, 48, 58
1, 339787, Note_off_c, 0, 67, 47
1, 340030, Note_on_c, 0, 48, 76
1, 340072, Note_off_c, 0, 48, 65
1, 340161, Note_on_c, 0, 47, 77
1, 340187, Note_on_c, 0, 68, 45
1, 340200, Note_on_c, 0, 65, 40
1, 340222, Note_off_c, 0, 47, 62
1, 340230, Note_off_c, 0, 64, 38
1, 340390, Note_off_c, 0, 72, 39
1, 340700, Note_on_c, 0, 86, 68
1, 340724, Note_on_c, 0, 71, 51
1, 340766, Note_off_c, 0, 86, 61
1, 340859, Note_off_c, 0, 68, 52
1, 341077, Note_on_c, 0, 86, 61
1, 341105, Note_off_c, 0, 86, 67
1, 341154, Note_off_c, 0, 65, 38
1, 341191, Note_on_c, 0, 84, 61
1, 341200, Note_on_c, 0, 64, 43
1, 341201, Note_on_c, 0, 67, 39
1, 341232, Note_off_c, 0, 84, 60
1, 341350, Note_off_c, 0, 71, 36
1, 341698, Note_on_c, 0, 48, 83
1, 341718, Note_on_c, 0, 72, 44
1, 341774, Control_c, 0, 67, 88
1, 341788, Note_off_c, 0, 48, 58
1, 341789, Control_c, 0, 67, 0
1, 341887, Note_off_c, 0, 67, 37
1, 342065, Note_on_c, 0, 48, 68
1, 342104, Note_off_c, 0, 48, 64
1, 342209, Note_on_c, 0, 65, 42
1, 342209, Note_on_c, 0, 68, 45
1, 342215, Note_on_c, 0, 47, 60
1, 342245, Note_off_c, 0, 64, 54
1, 342261, Note_off_c, 0, 47, 62
1, 342351, Note_off_c, 0, 72, 37
1, 342413, Control_c, 0, 67, 38
1, 342435, Control_c, 0, 67, 55
1, 342450, Control_c, 0, 67, 70
1, 342465, Control_c, 0, 67, 84
1, 342479, Control_c, 0, 67, 98
1, 342494, Control_c, 0, 67, 109
1, 342509, Control_c, 0, 67, 117
1, 342524, Control_c, 0, 67, 122
1, 342539, Control_c, 0, 67, 127
1, 342714, Note_on_c, 0, 86, 54
1, 342734, Note_on_c, 0, 71, 40
1, 342791, Note_off_c, 0, 86, 60
1, 342902, Note_off_c, 0, 68, 55
1, 343071, Note_on_c, 0, 86, 52
1, 343099, Note_off_c, 0, 86, 63
1, 343123, Note_off_c, 0, 65, 55
1, 343199, Note_on_c, 0, 84, 50
1, 343209, Note_on_c, 0, 67, 33
1, 343214, Note_on_c, 0, 64, 37
1, 343239, Note_off_c, 0, 84, 63
1, 343345, Note_off_c, 0, 71, 37
1, 343676, Note_on_c, 0, 48, 65
1, 343685, Note_on_c, 0, 72, 39
1, 343756, Note_off_c, 0, 48, 58
1, 343799, Note_off_c, 0, 67, 46
1, 344036, Note_on_c, 0, 48, 57
1, 344074, Note_off_c, 0, 48, 62
1, 344147, Note_off_c, 0, 64, 57
1, 344168, Note_on_c, 0, 65, 38
1, 344174, Note_on_c, 0, 68, 43
1, 344179, Note_on_c, 0, 49, 49
1, 344251, Note_off_c, 0, 72, 51
1, 344267, Note_off_c, 0, 49, 58
1, 344793, Note_on_c, 0, 73, 55
1, 344809, Note_on_c, 0, 70, 32
1, 344867, Note_off_c, 0, 73, 51
1, 345022, Note_off_c, 0, 65, 34
1, 345129, Note_on_c, 0, 73, 54
1, 345164, Note_off_c, 0, 73, 63
1, 345224, Note_on_c, 0, 64, 41
1, 345228, Note_on_c, 0, 72, 52
1, 345291, Note_off_c, 0, 68, 33
1, 345304, Note_off_c, 0, 72, 57
1, 345337, Note_off_c, 0, 64, 58
1, 345358, Note_off_c, 0, 70, 53
1, 345649, Note_on_c, 0, 73, 49
1, 345655, Note_on_c, 0, 70, 39
1, 345673, Note_on_c, 0, 65, 34
1, 345718, Note_off_c, 0, 73, 54
1, 345743, Note_off_c, 0, 65, 57
1, 345789, Note_off_c, 0, 70, 38
1, 345971, Note_on_c, 0, 73, 45
1, 346007, Note_off_c, 0, 73, 60
1, 346055, Note_on_c, 0, 72, 51
1, 346074, Note_on_c, 0, 64, 33
1, 346082, Note_on_c, 0, 70, 34
1, 346134, Note_off_c, 0, 72, 54
1, 346174, Note_off_c, 0, 64, 58
1, 346196, Note_off_c, 0, 70, 38
1, 346472, Note_on_c, 0, 73, 49
1, 346494, Note_on_c, 0, 70, 34
1, 346509, Note_on_c, 0, 65, 35
1, 346549, Note_off_c, 0, 73, 55
1, 346573, Note_off_c, 0, 65, 56
1, 346610, Note_off_c, 0, 70, 38
1, 346787, Note_on_c, 0, 73, 46
1, 346831, Note_off_c, 0, 73, 61
1, 346857, Note_on_c, 0, 72, 56
1, 346893, Note_on_c, 0, 64, 38
1, 346896, Note_on_c, 0, 70, 34
1, 346939, Note_off_c, 0, 72, 55
1, 346974, Note_off_c, 0, 70, 53
1, 346982, Note_off_c, 0, 64, 59
1, 347182, Note_on_c, 0, 72, 46
1, 347263, Note_off_c, 0, 72, 53
1, 347277, Note_on_c, 0, 73, 52
1, 347278, Note_on_c, 0, 70, 42
1, 347297, Note_on_c, 0, 65, 37
1, 347328, Note_off_c, 0, 73, 55
1, 347355, Note_off_c, 0, 65, 56
1, 347359, Note_off_c, 0, 70, 50
1, 347563, Note_on_c, 0, 73, 52
1, 347610, Note_off_c, 0, 73, 61
1, 347642, Note_on_c, 0, 72, 57
1, 347668, Note_on_c, 0, 70, 43
1, 347670, Note_on_c, 0, 64, 45
1, 347704, Note_off_c, 0, 72, 54
1, 347736, Note_off_c, 0, 70, 53
1, 347747, Note_off_c, 0, 64, 58
1, 347948, Note_on_c, 0, 72, 54
1, 347995, Note_off_c, 0, 72, 52
1, 348050, Note_on_c, 0, 70, 41
1, 348051, Note_on_c, 0, 73, 56
1, 348063, Note_on_c, 0, 65, 40
1, 348115, Note_off_c, 0, 73, 57
1, 348136, Note_off_c, 0, 65, 55
1, 348151, Note_off_c, 0, 70, 38
1, 348371, Note_on_c, 0, 73, 48
1, 348421, Note_off_c, 0, 73, 59
1, 348479, Note_on_c, 0, 72, 53
1, 348491, Note_on_c, 0, 64, 38
1, 348491, Note_on_c, 0, 70, 34
1, 348555, Note_off_c, 0, 72, 57
1, 348598, Note_off_c, 0, 64, 60
1, 348599, Note_off_c, 0, 70, 45
1, 348856, Control_c, 0, 67, 107
1, 348871, Control_c, 0, 67, 86
1, 348875, Note_on_c, 0, 77, 56
1, 348885, Note_on_c, 0, 73, 49
1, 348886, Control_c, 0, 67, 67
1, 348895, Note_on_c, 0, 68, 36
1, 348899, Note_on_c, 0, 65, 35
1, 348901, Control_c, 0, 67, 50
1, 348915, Control_c, 0, 67, 0
1, 348928, Note_off_c, 0, 73, 58
1, 348936, Note_off_c, 0, 68, 57
1, 348938, Note_off_c, 0, 77, 54
1, 348949, Note_off_c, 0, 65, 48
1, 349173, Note_on_c, 0, 77, 55
1, 349184, Note_on_c, 0, 73, 45
1, 349185, Note_on_c, 0, 68, 44
1, 349185, Note_on_c, 0, 65, 44
1, 349226, Note_off_c, 0, 73, 54
1, 349234, Note_off_c, 0, 65, 56
1, 349241, Note_off_c, 0, 68, 53
1, 349278, Note_on_c, 0, 76, 58
1, 349286, Note_on_c, 0, 72, 48
1, 349289, Note_on_c, 0, 70, 52
1, 349306, Note_on_c, 0, 67, 47
1, 349322, Note_off_c, 0, 77, 31
1, 349333, Note_off_c, 0, 70, 56
1, 349338, Note_off_c, 0, 72, 51
1, 349354, Note_off_c, 0, 67, 60
1, 349356, Note_off_c, 0, 76, 57
1, 349564, Note_on_c, 0, 72, 58
1, 349564, Note_on_c, 0, 76, 62
1, 349566, Note_on_c, 0, 67, 54
1, 349577, Note_on_c, 0, 70, 47
1, 349605, Note_off_c, 0, 70, 62
1, 349615, Note_off_c, 0, 72, 57
1, 349632, Note_off_c, 0, 67, 56
1, 349634, Note_off_c, 0, 76, 59
1, 349668, Note_on_c, 0, 77, 73
1, 349671, Note_on_c, 0, 73, 68
1, 349683, Note_on_c, 0, 68, 54
1, 349689, Note_on_c, 0, 65, 53
1, 349720, Note_off_c, 0, 68, 62
1, 349729, Note_off_c, 0, 65, 63
1, 349731, Note_off_c, 0, 77, 62
1, 349734, Note_off_c, 0, 73, 61
1, 349957, Note_on_c, 0, 68, 56
1, 349957, Note_on_c, 0, 77, 66
1, 349962, Note_on_c, 0, 65, 46
1, 349966, Note_on_c, 0, 73, 65
1, 350004, Note_off_c, 0, 65, 62
1, 350026, Note_off_c, 0, 68, 56
1, 350050, Note_on_c, 0, 76, 76
1, 350056, Note_on_c, 0, 72, 68
1, 350064, Note_on_c, 0, 70, 66
1, 350064, Note_off_c, 0, 73, 32
1, 350069, Note_on_c, 0, 67, 65
1, 350104, Note_off_c, 0, 70, 60
1, 350108, Note_off_c, 0, 72, 60
1, 350113, Note_off_c, 0, 77, 24
1, 350124, Note_off_c, 0, 76, 61
1, 350126, Note_off_c, 0, 67, 62
1, 350329, Note_on_c, 0, 76, 72
1, 350330, Note_on_c, 0, 67, 60
1, 350332, Note_on_c, 0, 70, 58
1, 350333, Note_on_c, 0, 72, 67
1, 350365, Note_off_c, 0, 70, 65
1, 350378, Note_off_c, 0, 72, 63
1, 350386, Note_off_c, 0, 76, 63
1, 350389, Note_off_c, 0, 67, 62
1, 350426, Note_on_c, 0, 77, 78
1, 350430, Note_on_c, 0, 68, 72
1, 350430, Note_on_c, 0, 73, 78
1, 350440, Note_on_c, 0, 65, 68
1, 350484, Note_off_c, 0, 68, 61
1, 350484, Note_off_c, 0, 77, 62
1, 350487, Note_off_c, 0, 73, 60
1, 350491, Note_off_c, 0, 65, 59
1, 350711, Note_on_c, 0, 77, 73
1, 350712, Note_on_c, 0, 68, 70
1, 350714, Note_on_c, 0, 65, 60
1, 350719, Note_on_c, 0, 73, 70
1, 350779, Note_off_c, 0, 65, 60
1, 350811, Note_on_c, 0, 76, 80
1, 350813, Note_on_c, 0, 72, 75
1, 350817, Note_on_c, 0, 70, 72
1, 350819, Note_off_c, 0, 73, 57
1, 350825, Note_on_c, 0, 67, 71
1, 350845, Note_off_c, 0, 77, 61
1, 350860, Note_off_c, 0, 70, 61
1, 350868, Note_off_c, 0, 72, 60
1, 350870, Note_off_c, 0, 76, 64
1, 350879, Note_off_c, 0, 68, 38
1, 350893, Note_off_c, 0, 67, 61
1, 351092, Note_on_c, 0, 76, 68
1, 351097, Note_on_c, 0, 72, 70
1, 351101, Note_on_c, 0, 70, 60
1, 351102, Note_on_c, 0, 67, 61
1, 351174, Note_off_c, 0, 67, 62
1, 351174, Note_off_c, 0, 70, 62
1, 351206, Note_on_c, 0, 74, 81
1, 351210, Note_on_c, 0, 68, 78
1, 351212, Note_on_c, 0, 71, 77
1, 351225, Note_on_c, 0, 65, 68
1, 351238, Note_off_c, 0, 72, 61
1, 351238, Note_off_c, 0, 76, 59
1, 351277, Note_off_c, 0, 68, 60
1, 351283, Note_off_c, 0, 71, 57
1, 351290, Note_off_c, 0, 74, 59
1, 351292, Note_off_c, 0, 65, 61
1, 351514, Note_on_c, 0, 71, 72
1, 351517, Note_on_c, 0, 74, 66
1, 351518, Note_on_c, 0, 68, 54
1, 351523, Note_on_c, 0, 65, 55
1, 351549, Note_off_c, 0, 68, 64
1, 351572, Note_off_c, 0, 65, 58
1, 351620, Note_off_c, 0, 74, 60
1, 351622, Note_off_c, 0, 71, 59
1, 351647, Note_on_c, 0, 67, 43
1, 351650, Note_on_c, 0, 72, 62
1, 351659, Note_on_c, 0, 70, 43
1, 351666, Note_on_c, 0, 64, 49
1, 351777, Control_c, 0, 64, 41
1, 351791, Control_c, 0, 64, 55
1, 351806, Control_c, 0, 64, 59
1, 351821, Control_c, 0, 64, 61
1, 351836, Control_c, 0, 64, 62
1, 351842, Note_off_c, 0, 72, 54
1, 351851, Control_c, 0, 64, 64
1, 351865, Control_c, 0, 64, 65
1, 351880, Control_c, 0, 64, 66
1, 351895, Control_c, 0, 64, 67
1, 351910, Control_c, 0, 64, 68
1, 351925, Control_c, 0, 64, 68
1, 351954, Control_c, 0, 64, 69
1, 351987, Note_on_c, 0, 76, 79
1, 352028, Control_c, 0, 64, 67
1, 352043, Control_c, 0, 64, 62
1, 352058, Control_c, 0, 64, 49
1, 352073, Control_c, 0, 64, 35
1, 352088, Control_c, 0, 64, 34
1, 352103, Control_c, 0, 64, 43
1, 352118, Control_c, 0, 64, 53
1, 352121, Note_on_c, 0, 72, 57
1, 352132, Control_c, 0, 64, 60
1, 352147, Control_c, 0, 64, 63
1, 352169, Control_c, 0, 64, 66
1, 352184, Control_c, 0, 64, 68
1, 352198, Control_c, 0, 64, 70
1, 352213, Control_c, 0, 64, 73
1, 352228, Control_c, 0, 64, 76
1, 352244, Control_c, 0, 64, 78
1, 352259, Control_c, 0, 64, 80
1, 352274, Control_c, 0, 64, 82
1, 352283, Note_off_c, 0, 72, 48
1, 352288, Control_c, 0, 64, 83
1, 352303, Control_c, 0, 64, 84
1, 352313, Note_off_c, 0, 76, 59
1, 352333, Control_c, 0, 64, 85
1, 352437, Note_on_c, 0, 79, 81
1, 352482, Control_c, 0, 64, 84
1, 352496, Control_c, 0, 64, 80
1, 352511, Control_c, 0, 64, 71
1, 352526, Control_c, 0, 64, 61
1, 352541, Control_c, 0, 64, 48
1, 352556, Control_c, 0, 64, 43
1, 352570, Control_c, 0, 64, 46
1, 352585, Control_c, 0, 64, 53
1, 352593, Note_on_c, 0, 72, 56
1, 352600, Control_c, 0, 64, 59
1, 352614, Control_c, 0, 64, 65
1, 352629, Control_c, 0, 64, 69
1, 352644, Control_c, 0, 64, 73
1, 352659, Control_c, 0, 64, 76
1, 352674, Control_c, 0, 64, 80
1, 352688, Control_c, 0, 64, 83
1, 352703, Control_c, 0, 64, 86
1, 352718, Control_c, 0, 64, 90
1, 352733, Control_c, 0, 64, 91
1, 352747, Note_off_c, 0, 79, 55
1, 352748, Control_c, 0, 64, 92
1, 352757, Note_off_c, 0, 72, 46
1, 352762, Control_c, 0, 64, 92
1, 352875, Note_on_c, 0, 82, 81
1, 352894, Note_on_c, 0, 79, 56
1, 352896, Control_c, 0, 64, 92
1, 352918, Control_c, 0, 64, 91
1, 352932, Control_c, 0, 64, 86
1, 352947, Control_c, 0, 64, 79
1, 352962, Control_c, 0, 64, 69
1, 352977, Control_c, 0, 64, 58
1, 352992, Control_c, 0, 64, 40
1, 353006, Control_c, 0, 64, 0
1, 353021, Control_c, 0, 64, 30
1, 353027, Note_on_c, 0, 72, 54
1, 353037, Control_c, 0, 64, 42
1, 353052, Control_c, 0, 64, 56
1, 353067, Control_c, 0, 64, 64
1, 353082, Control_c, 0, 64, 68
1, 353097, Control_c, 0, 64, 73
1, 353111, Control_c, 0, 64, 79
1, 353117, Note_off_c, 0, 79, 56
1, 353126, Control_c, 0, 64, 86
1, 353141, Control_c, 0, 64, 92
1, 353156, Control_c, 0, 64, 97
1, 353171, Control_c, 0, 64, 102
1, 353185, Control_c, 0, 64, 107
1, 353189, Note_off_c, 0, 72, 47
1, 353200, Control_c, 0, 64, 111
1, 353212, Note_off_c, 0, 82, 59
1, 353245, Control_c, 0, 64, 114
1, 353335, Note_on_c, 0, 85, 81
1, 353348, Note_on_c, 0, 82, 63
1, 353378, Control_c, 0, 64, 110
1, 353393, Control_c, 0, 64, 104
1, 353408, Control_c, 0, 64, 95
1, 353423, Control_c, 0, 64, 81
1, 353437, Control_c, 0, 64, 68
1, 353452, Control_c, 0, 64, 55
1, 353467, Control_c, 0, 64, 38
1, 353482, Control_c, 0, 64, 32
1, 353497, Control_c, 0, 64, 37
1, 353503, Note_on_c, 0, 72, 43
1, 353511, Control_c, 0, 64, 49
1, 353526, Control_c, 0, 64, 62
1, 353541, Control_c, 0, 64, 67
1, 353555, Control_c, 0, 64, 72
1, 353570, Control_c, 0, 64, 79
1, 353585, Control_c, 0, 64, 84
1, 353600, Control_c, 0, 64, 90
1, 353615, Control_c, 0, 64, 95
1, 353629, Control_c, 0, 64, 102
1, 353644, Control_c, 0, 64, 106
1, 353662, Note_off_c, 0, 82, 53
1, 353667, Control_c, 0, 64, 108
1, 353682, Control_c, 0, 64, 110
1, 353684, Note_off_c, 0, 72, 37
1, 353714, Note_off_c, 0, 85, 41
1, 353831, Note_on_c, 0, 84, 71
1, 353851, Note_on_c, 0, 80, 57
1, 353875, Control_c, 0, 64, 104
1, 353890, Control_c, 0, 64, 94
1, 353905, Control_c, 0, 64, 80
1, 353920, Control_c, 0, 64, 66
1, 353934, Control_c, 0, 64, 50
1, 353949, Control_c, 0, 64, 36
1, 353964, Control_c, 0, 64, 38
1, 353978, Control_c, 0, 64, 47
1, 353993, Control_c, 0, 64, 56
1, 354005, Note_on_c, 0, 72, 40
1, 354008, Control_c, 0, 64, 62
1, 354023, Control_c, 0, 64, 67
1, 354038, Control_c, 0, 64, 73
1, 354053, Control_c, 0, 64, 78
1, 354067, Note_off_c, 0, 80, 52
1, 354067, Control_c, 0, 64, 82
1, 354080, Note_off_c, 0, 84, 61
1, 354082, Control_c, 0, 64, 87
1, 354097, Control_c, 0, 64, 92
1, 354112, Control_c, 0, 64, 96
1, 354127, Control_c, 0, 64, 99
1, 354142, Control_c, 0, 64, 101
1, 354172, Note_off_c, 0, 72, 37
1, 354299, Note_on_c, 0, 82, 65
1, 354315, Note_on_c, 0, 79, 50
1, 354334, Control_c, 0, 64, 99
1, 354349, Control_c, 0, 64, 94
1, 354364, Control_c, 0, 64, 85
1, 354378, Control_c, 0, 64, 74
1, 354393, Control_c, 0, 64, 62
1, 354416, Control_c, 0, 64, 48
1, 354431, Control_c, 0, 64, 41
1, 354446, Control_c, 0, 64, 43
1, 354456, Note_on_c, 0, 72, 43
1, 354460, Control_c, 0, 64, 52
1, 354475, Control_c, 0, 64, 60
1, 354490, Control_c, 0, 64, 65
1, 354505, Control_c, 0, 64, 70
1, 354520, Control_c, 0, 64, 76
1, 354534, Control_c, 0, 64, 82
1, 354534, Control_c, 0, 67, 39
1, 354549, Control_c, 0, 64, 86
1, 354549, Control_c, 0, 67, 62
1, 354564, Control_c, 0, 64, 90
1, 354564, Control_c, 0, 67, 79
1, 354565, Note_off_c, 0, 79, 60
1, 354579, Control_c, 0, 64, 94
1, 354579, Control_c, 0, 67, 90
1, 354593, Control_c, 0, 64, 96
1, 354593, Control_c, 0, 67, 99
1, 354603, Note_off_c, 0, 72, 48
1, 354608, Control_c, 0, 67, 106
1, 354623, Control_c, 0, 67, 114
1, 354638, Note_off_c, 0, 82, 50
1, 354639, Control_c, 0, 64, 98
1, 354639, Control_c, 0, 67, 126
1, 354801, Note_on_c, 0, 80, 60
1, 354810, Note_on_c, 0, 77, 55
1, 354831, Control_c, 0, 64, 95
1, 354846, Control_c, 0, 64, 91
1, 354861, Control_c, 0, 64, 83
1, 354876, Control_c, 0, 64, 73
1, 354890, Control_c, 0, 64, 63
1, 354905, Control_c, 0, 64, 53
1, 354920, Control_c, 0, 64, 45
1, 354935, Control_c, 0, 64, 43
1, 354950, Control_c, 0, 64, 46
1, 354955, Note_on_c, 0, 72, 41
1, 354965, Control_c, 0, 64, 53
1, 354980, Control_c, 0, 64, 59
1, 354992, Note_off_c, 0, 77, 59
1, 354994, Control_c, 0, 64, 63
1, 355009, Control_c, 0, 64, 67
1, 355024, Control_c, 0, 64, 72
1, 355039, Control_c, 0, 64, 76
1, 355047, Note_off_c, 0, 80, 60
1, 355054, Control_c, 0, 64, 79
1, 355069, Control_c, 0, 64, 82
1, 355084, Control_c, 0, 64, 85
1, 355099, Control_c, 0, 64, 87
1, 355114, Control_c, 0, 64, 88
1, 355129, Control_c, 0, 64, 89
1, 355144, Control_c, 0, 64, 90
1, 355146, Note_off_c, 0, 72, 41
1, 355180, Control_c, 0, 64, 90
1, 355280, Note_on_c, 0, 79, 54
1, 355290, Note_on_c, 0, 76, 53
1, 355313, Control_c, 0, 64, 90
1, 355343, Control_c, 0, 64, 89
1, 355358, Control_c, 0, 64, 85
1, 355373, Control_c, 0, 64, 77
1, 355388, Control_c, 0, 64, 67
1, 355403, Control_c, 0, 64, 56
1, 355417, Control_c, 0, 64, 46
1, 355433, Control_c, 0, 64, 42
1, 355439, Note_on_c, 0, 72, 39
1, 355448, Control_c, 0, 64, 45
1, 355462, Control_c, 0, 64, 52
1, 355477, Control_c, 0, 64, 60
1, 355492, Control_c, 0, 64, 64
1, 355501, Note_off_c, 0, 76, 53
1, 355507, Control_c, 0, 64, 69
1, 355522, Control_c, 0, 64, 74
1, 355537, Control_c, 0, 64, 79
1, 355552, Control_c, 0, 64, 81
1, 355558, Note_off_c, 0, 72, 38
1, 355567, Control_c, 0, 64, 83
1, 355581, Control_c, 0, 64, 86
1, 355585, Note_off_c, 0, 79, 47
1, 355596, Control_c, 0, 64, 88
1, 355611, Control_c, 0, 64, 89
1, 355625, Control_c, 0, 64, 90
1, 355640, Control_c, 0, 64, 90
1, 355758, Note_on_c, 0, 77, 56
1, 355771, Note_on_c, 0, 73, 51
1, 355788, Control_c, 0, 64, 90
1, 355803, Control_c, 0, 64, 89
1, 355817, Control_c, 0, 64, 86
1, 355832, Control_c, 0, 64, 79
1, 355847, Control_c, 0, 64, 68
1, 355862, Control_c, 0, 64, 56
1, 355877, Control_c, 0, 64, 40
1, 355892, Control_c, 0, 64, 34
1, 355913, Control_c, 0, 64, 39
1, 355916, Note_on_c, 0, 72, 47
1, 355928, Control_c, 0, 64, 49
1, 355943, Control_c, 0, 64, 58
1, 355957, Control_c, 0, 64, 63
1, 355969, Note_off_c, 0, 73, 46
1, 355972, Control_c, 0, 64, 67
1, 355987, Control_c, 0, 64, 71
1, 355996, Note_off_c, 0, 72, 39
1, 355999, Note_off_c, 0, 77, 58
1, 356002, Control_c, 0, 64, 75
1, 356017, Control_c, 0, 64, 78
1, 356032, Control_c, 0, 64, 80
1, 356047, Control_c, 0, 64, 82
1, 356062, Control_c, 0, 64, 84
1, 356077, Control_c, 0, 64, 86
1, 356091, Control_c, 0, 64, 87
1, 356106, Control_c, 0, 64, 88
1, 356258, Note_on_c, 0, 76, 58
1, 356268, Note_on_c, 0, 73, 54
1, 356300, Control_c, 0, 64, 87
1, 356315, Control_c, 0, 64, 85
1, 356329, Control_c, 0, 64, 79
1, 356344, Control_c, 0, 64, 70
1, 356359, Control_c, 0, 64, 60
1, 356374, Control_c, 0, 64, 44
1, 356388, Control_c, 0, 64, 0
1, 356400, Note_on_c, 0, 72, 47
1, 356433, Control_c, 0, 64, 38
1, 356447, Control_c, 0, 64, 49
1, 356460, Note_off_c, 0, 73, 50
1, 356462, Control_c, 0, 64, 60
1, 356477, Note_off_c, 0, 72, 57
1, 356477, Control_c, 0, 64, 65
1, 356491, Note_off_c, 0, 76, 58
1, 356492, Control_c, 0, 64, 68
1, 356507, Control_c, 0, 64, 71
1, 356521, Control_c, 0, 64, 74
1, 356536, Control_c, 0, 64, 78
1, 356551, Control_c, 0, 64, 81
1, 356566, Control_c, 0, 64, 84
1, 356580, Control_c, 0, 64, 86
1, 356595, Control_c, 0, 64, 87
1, 356610, Control_c, 0, 64, 88
1, 356640, Control_c, 0, 64, 88
1, 356777, Note_on_c, 0, 76, 52
1, 356784, Note_on_c, 0, 73, 45
1, 356810, Control_c, 0, 64, 88
1, 356825, Control_c, 0, 64, 87
1, 356840, Control_c, 0, 64, 85
1, 356855, Control_c, 0, 64, 80
1, 356869, Control_c, 0, 64, 74
1, 356884, Control_c, 0, 64, 65
1, 356899, Control_c, 0, 64, 47
1, 356911, Note_on_c, 0, 72, 45
1, 356914, Control_c, 0, 64, 0
1, 356974, Control_c, 0, 64, 33
1, 356988, Note_off_c, 0, 73, 46
1, 356988, Control_c, 0, 64, 50
1, 357003, Control_c, 0, 64, 62
1, 357013, Note_off_c, 0, 76, 56
1, 357014, Note_off_c, 0, 72, 54
1, 357018, Control_c, 0, 64, 66
1, 357033, Control_c, 0, 64, 69
1, 357048, Control_c, 0, 64, 73
1, 357063, Control_c, 0, 64, 76
1, 357078, Control_c, 0, 64, 79
1, 357093, Control_c, 0, 64, 82
1, 357108, Control_c, 0, 64, 84
1, 357123, Control_c, 0, 64, 85
1, 357138, Control_c, 0, 64, 86
1, 357152, Control_c, 0, 64, 86
1, 357167, Control_c, 0, 64, 87
1, 357305, Note_on_c, 0, 76, 52
1, 357308, Note_on_c, 0, 73, 45
1, 357359, Control_c, 0, 64, 86
1, 357374, Control_c, 0, 64, 84
1, 357389, Control_c, 0, 64, 80
1, 357411, Control_c, 0, 64, 70
1, 357426, Control_c, 0, 64, 59
1, 357441, Control_c, 0, 64, 45
1, 357456, Control_c, 0, 64, 37
1, 357461, Note_on_c, 0, 72, 43
1, 357471, Control_c, 0, 64, 39
1, 357485, Control_c, 0, 64, 49
1, 357500, Control_c, 0, 64, 59
1, 357515, Control_c, 0, 64, 66
1, 357529, Control_c, 0, 64, 70
1, 357534, Note_off_c, 0, 73, 50
1, 357542, Note_off_c, 0, 72, 53
1, 357544, Control_c, 0, 64, 74
1, 357555, Note_off_c, 0, 76, 56
1, 357559, Control_c, 0, 64, 77
1, 357574, Control_c, 0, 64, 80
1, 357589, Control_c, 0, 64, 82
1, 357603, Control_c, 0, 64, 84
1, 357618, Control_c, 0, 64, 86
1, 357633, Control_c, 0, 64, 87
1, 357648, Control_c, 0, 64, 88
1, 357677, Control_c, 0, 64, 89
1, 357826, Control_c, 0, 64, 88
1, 357844, Note_on_c, 0, 76, 47
1, 357847, Note_on_c, 0, 73, 44
1, 357871, Control_c, 0, 64, 88
1, 357886, Control_c, 0, 64, 86
1, 357901, Control_c, 0, 64, 84
1, 357916, Control_c, 0, 64, 78
1, 357931, Control_c, 0, 64, 70
1, 357946, Control_c, 0, 64, 59
1, 357960, Control_c, 0, 64, 39
1, 357975, Control_c, 0, 64, 0
1, 357999, Note_on_c, 0, 72, 40
1, 358020, Control_c, 0, 64, 33
1, 358034, Control_c, 0, 64, 48
1, 358049, Control_c, 0, 64, 59
1, 358053, Note_off_c, 0, 73, 51
1, 358062, Note_off_c, 0, 72, 52
1, 358064, Control_c, 0, 64, 64
1, 358074, Note_off_c, 0, 76, 55
1, 358079, Control_c, 0, 64, 66
1, 358094, Control_c, 0, 64, 69
1, 358108, Control_c, 0, 64, 71
1, 358123, Control_c, 0, 64, 75
1, 358138, Control_c, 0, 64, 77
1, 358160, Control_c, 0, 64, 78
1, 358175, Control_c, 0, 64, 79
1, 358190, Control_c, 0, 64, 80
1, 358220, Control_c, 0, 64, 80
1, 358423, Note_on_c, 0, 76, 44
1, 358425, Note_on_c, 0, 73, 39
1, 358441, Control_c, 0, 64, 79
1, 358456, Control_c, 0, 64, 75
1, 358471, Control_c, 0, 64, 67
1, 358486, Control_c, 0, 64, 55
1, 358500, Control_c, 0, 64, 37
1, 358515, Control_c, 0, 64, 31
1, 358530, Control_c, 0, 64, 36
1, 358545, Control_c, 0, 64, 46
1, 358560, Control_c, 0, 64, 57
1, 358575, Control_c, 0, 64, 62
1, 358589, Control_c, 0, 64, 66
1, 358595, Note_on_c, 0, 72, 43
1, 358604, Control_c, 0, 64, 70
1, 358619, Control_c, 0, 64, 74
1, 358635, Control_c, 0, 64, 78
1, 358644, Note_off_c, 0, 70, 58
1, 358649, Control_c, 0, 64, 81
1, 358664, Control_c, 0, 64, 83
1, 358676, Note_off_c, 0, 76, 57
1, 358679, Control_c, 0, 64, 84
1, 358690, Note_off_c, 0, 73, 35
1, 358691, Note_off_c, 0, 72, 59
1, 358693, Note_off_c, 0, 67, 37
1, 358694, Control_c, 0, 64, 85
1, 358724, Note_off_c, 0, 64, 60
1, 358828, Control_c, 0, 64, 84
1, 358843, Control_c, 0, 64, 83
1, 358858, Control_c, 0, 64, 81
1, 358873, Control_c, 0, 64, 78
1, 358888, Control_c, 0, 64, 74
1, 358910, Control_c, 0, 64, 70
1, 358925, Control_c, 0, 64, 66
1, 358939, Control_c, 0, 64, 62
1, 358954, Control_c, 0, 64, 59
1, 358969, Control_c, 0, 64, 58
1, 358983, Control_c, 0, 64, 57
1, 358998, Control_c, 0, 64, 56
1, 359013, Control_c, 0, 64, 55
1, 359028, Control_c, 0, 64, 53
1, 359043, Control_c, 0, 64, 51
1, 359057, Control_c, 0, 64, 49
1, 359072, Control_c, 0, 64, 47
1, 359083, Note_on_c, 0, 73, 51
1, 359087, Control_c, 0, 64, 43
1, 359094, Note_on_c, 0, 70, 44
1, 359102, Control_c, 0, 64, 40
1, 359117, Control_c, 0, 64, 38
1, 359132, Control_c, 0, 64, 38
1, 359147, Control_c, 0, 64, 37
1, 359162, Control_c, 0, 64, 36
1, 359176, Control_c, 0, 64, 34
1, 359191, Control_c, 0, 64, 32
1, 359204, Note_off_c, 0, 70, 42
1, 359234, Note_on_c, 0, 72, 52
1, 359236, Control_c, 0, 64, 30
1, 359236, Note_on_c, 0, 68, 49
1, 359275, Note_off_c, 0, 73, 51
1, 359339, Control_c, 0, 64, 0
1, 359410, Note_off_c, 0, 72, 61
1, 359426, Note_off_c, 0, 68, 56
1, 359782, Note_on_c, 0, 70, 46
1, 359787, Note_on_c, 0, 67, 42
1, 359947, Note_on_c, 0, 56, 36
1, 359949, Note_on_c, 0, 65, 36
1, 359953, Note_on_c, 0, 68, 43
1, 359953, Note_off_c, 0, 67, 57
1, 359962, Note_off_c, 0, 70, 36
1, 359967, Note_on_c, 0, 53, 35
1, 360183, Note_off_c, 0, 68, 58
1, 360186, Note_off_c, 0, 65, 60
1, 360629, Note_on_c, 0, 41, 64
1, 360668, Note_on_c, 0, 60, 42
1, 360718, Control_c, 0, 67, 94
1, 360733, Control_c, 0, 67, 55
1, 360747, Control_c, 0, 67, 0
1, 360777, Note_off_c, 0, 41, 60
1, 360812, Note_off_c, 0, 56, 53
1, 361058, Note_on_c, 0, 41, 64
1, 361123, Note_off_c, 0, 41, 61
1, 361132, Note_off_c, 0, 53, 53
1, 361203, Note_on_c, 0, 48, 71
1, 361210, Note_on_c, 0, 55, 34
1, 361218, Note_on_c, 0, 52, 40
1, 361295, Note_off_c, 0, 60, 53
1, 361377, Control_c, 0, 64, 51
1, 361392, Control_c, 0, 64, 63
1, 361407, Control_c, 0, 64, 67
1, 361412, Note_off_c, 0, 48, 64
1, 361422, Control_c, 0, 64, 70
1, 361437, Control_c, 0, 64, 74
1, 361451, Control_c, 0, 64, 77
1, 361466, Control_c, 0, 64, 79
1, 361481, Control_c, 0, 64, 80
1, 361496, Control_c, 0, 64, 81
1, 361555, Control_c, 0, 64, 80
1, 361585, Control_c, 0, 64, 79
1, 361600, Control_c, 0, 64, 76
1, 361615, Control_c, 0, 64, 72
1, 361630, Control_c, 0, 64, 66
1, 361630, Control_c, 0, 67, 41
1, 361644, Control_c, 0, 64, 60
1, 361644, Control_c, 0, 67, 48
1, 361659, Control_c, 0, 64, 55
1, 361659, Control_c, 0, 67, 52
1, 361674, Control_c, 0, 64, 50
1, 361674, Control_c, 0, 67, 53
1, 361689, Control_c, 0, 64, 42
1, 361689, Control_c, 0, 67, 54
1, 361703, Control_c, 0, 64, 0
1, 361703, Control_c, 0, 67, 56
1, 361733, Control_c, 0, 67, 56
1, 361763, Control_c, 0, 67, 57
1, 361777, Control_c, 0, 67, 58
1, 361792, Control_c, 0, 67, 58
1, 361794, Note_on_c, 0, 70, 58
1, 361801, Note_on_c, 0, 67, 55
1, 361832, Note_on_c, 0, 60, 39
1, 361920, Control_c, 0, 67, 58
1, 361982, Note_off_c, 0, 67, 60
1, 361984, Note_off_c, 0, 70, 60
1, 362038, Control_c, 0, 67, 58
1, 362083, Control_c, 0, 67, 59
1, 362098, Control_c, 0, 67, 60
1, 362113, Control_c, 0, 67, 61
1, 362142, Control_c, 0, 67, 62
1, 362157, Control_c, 0, 67, 62
1, 362172, Control_c, 0, 67, 64
1, 362187, Control_c, 0, 67, 68
1, 362201, Control_c, 0, 67, 95
1, 362205, Note_off_c, 0, 55, 41
1, 362216, Control_c, 0, 67, 120
1, 362220, Note_on_c, 0, 67, 58
1, 362225, Note_on_c, 0, 70, 52
1, 362231, Control_c, 0, 67, 127
1, 362256, Note_off_c, 0, 67, 62
1, 362265, Note_off_c, 0, 70, 62
1, 362345, Note_on_c, 0, 65, 54
1, 362348, Note_on_c, 0, 68, 48
1, 362357, Note_on_c, 0, 53, 43
1, 362359, Note_on_c, 0, 56, 36
1, 362402, Note_off_c, 0, 52, 34
1, 362430, Note_off_c, 0, 60, 38
1, 362526, Note_off_c, 0, 65, 63
1, 362533, Note_off_c, 0, 68, 62
1, 362836, Note_on_c, 0, 40, 69
1, 362870, Note_on_c, 0, 60, 41
1, 362876, Control_c, 0, 67, 123
1, 362891, Control_c, 0, 67, 114
1, 362906, Control_c, 0, 67, 93
1, 362920, Note_off_c, 0, 40, 57
1, 362921, Control_c, 0, 67, 56
1, 362936, Control_c, 0, 67, 0
1, 362945, Note_on_c, 0, 41, 72
1, 362984, Note_off_c, 0, 56, 52
1, 363049, Note_off_c, 0, 41, 64
1, 363049, Note_on_c, 0, 40, 74
1, 363144, Note_off_c, 0, 40, 60
1, 363146, Note_on_c, 0, 41, 78
1, 363183, Note_off_c, 0, 53, 59
1, 363311, Note_off_c, 0, 41, 61
1, 363314, Note_on_c, 0, 48, 70
1, 363338, Note_on_c, 0, 52, 37
1, 363343, Note_on_c, 0, 55, 43
1, 363382, Note_off_c, 0, 60, 37
1, 363520, Control_c, 0, 64, 34
1, 363535, Control_c, 0, 64, 56
1, 363550, Control_c, 0, 64, 61
1, 363565, Control_c, 0, 64, 64
1, 363565, Note_off_c, 0, 48, 64
1, 363579, Control_c, 0, 64, 67
1, 363594, Control_c, 0, 64, 69
1, 363609, Control_c, 0, 64, 71
1, 363624, Control_c, 0, 64, 72
1, 363639, Control_c, 0, 64, 73
1, 363697, Control_c, 0, 64, 72
1, 363712, Control_c, 0, 64, 71
1, 363727, Control_c, 0, 64, 68
1, 363742, Control_c, 0, 64, 61
1, 363757, Control_c, 0, 64, 49
1, 363771, Control_c, 0, 64, 30
1, 363786, Control_c, 0, 64, 0
1, 363869, Note_on_c, 0, 70, 59
1, 363875, Note_on_c, 0, 67, 56
1, 363901, Note_on_c, 0, 60, 41
1, 364029, Note_off_c, 0, 70, 58
1, 364033, Note_off_c, 0, 67, 58
1, 364260, Note_off_c, 0, 55, 36
1, 364265, Note_on_c, 0, 70, 56
1, 364265, Note_on_c, 0, 67, 54
1, 364298, Note_off_c, 0, 67, 65
1, 364304, Note_off_c, 0, 70, 59
1, 364331, Note_off_c, 0, 52, 50
1, 364366, Note_on_c, 0, 68, 56
1, 364376, Note_on_c, 0, 53, 39
1, 364376, Note_on_c, 0, 65, 45
1, 364381, Note_off_c, 0, 60, 38
1, 364391, Note_on_c, 0, 56, 39
1, 364550, Control_c, 0, 64, 29
1, 364565, Control_c, 0, 64, 48
1, 364580, Control_c, 0, 64, 59
1, 364594, Control_c, 0, 64, 63
1, 364605, Note_off_c, 0, 65, 62
1, 364609, Control_c, 0, 64, 65
1, 364624, Control_c, 0, 64, 68
1, 364637, Note_off_c, 0, 68, 63
1, 364639, Control_c, 0, 64, 70
1, 364642, Note_off_c, 0, 53, 55
1, 364654, Control_c, 0, 64, 72
1, 364660, Note_off_c, 0, 56, 61
1, 364668, Control_c, 0, 64, 74
1, 364683, Control_c, 0, 64, 74
1, 364772, Control_c, 0, 64, 73
1, 364787, Control_c, 0, 64, 68
1, 364802, Control_c, 0, 64, 59
1, 364817, Control_c, 0, 64, 38
1, 364817, Control_c, 0, 67, 62
1, 364832, Control_c, 0, 64, 0
1, 364832, Control_c, 0, 67, 91
1, 364847, Control_c, 0, 67, 121
1, 364855, Note_on_c, 0, 77, 71
1, 364861, Control_c, 0, 67, 127
1, 364904, Note_on_c, 0, 56, 38
1, 364904, Note_on_c, 0, 60, 35
1, 364913, Control_c, 0, 64, 43
1, 364928, Control_c, 0, 64, 58
1, 364943, Control_c, 0, 64, 64
1, 364958, Control_c, 0, 64, 67
1, 364973, Control_c, 0, 64, 70
1, 364974, Note_off_c, 0, 77, 60
1, 364987, Control_c, 0, 64, 72
1, 365002, Control_c, 0, 64, 75
1, 365018, Control_c, 0, 64, 77
1, 365033, Control_c, 0, 64, 79
1, 365048, Control_c, 0, 64, 79
1, 365063, Control_c, 0, 64, 80
1, 365086, Note_off_c, 0, 60, 61
1, 365097, Note_on_c, 0, 77, 64
1, 365116, Note_off_c, 0, 77, 65
1, 365136, Control_c, 0, 64, 79
1, 365150, Note_on_c, 0, 78, 66
1, 365166, Note_off_c, 0, 56, 33
1, 365166, Control_c, 0, 64, 78
1, 365181, Control_c, 0, 64, 74
1, 365187, Note_off_c, 0, 78, 61
1, 365189, Note_on_c, 0, 77, 66
1, 365196, Control_c, 0, 64, 68
1, 365211, Control_c, 0, 64, 60
1, 365215, Note_off_c, 0, 77, 69
1, 365225, Control_c, 0, 64, 47
1, 365231, Note_on_c, 0, 76, 66
1, 365240, Control_c, 0, 64, 31
1, 365255, Control_c, 0, 64, 0
1, 365261, Note_off_c, 0, 76, 62
1, 365293, Note_on_c, 0, 77, 78
1, 365360, Note_on_c, 0, 78, 73
1, 365362, Note_off_c, 0, 77, 60
1, 365380, Note_on_c, 0, 61, 37
1, 365382, Note_on_c, 0, 58, 38
1, 365596, Control_c, 0, 64, 48
1, 365610, Control_c, 0, 64, 62
1, 365615, Note_off_c, 0, 58, 59
1, 365625, Note_off_c, 0, 78, 61
1, 365625, Control_c, 0, 64, 66
1, 365648, Control_c, 0, 64, 70
1, 365663, Control_c, 0, 64, 74
1, 365675, Note_off_c, 0, 61, 63
1, 365677, Control_c, 0, 64, 79
1, 365692, Control_c, 0, 64, 82
1, 365707, Control_c, 0, 64, 85
1, 365722, Control_c, 0, 64, 85
1, 365766, Control_c, 0, 64, 84
1, 365781, Control_c, 0, 64, 75
1, 365796, Control_c, 0, 64, 60
1, 365812, Control_c, 0, 64, 0
1, 365871, Note_on_c, 0, 81, 72
1, 365914, Note_on_c, 0, 60, 37
1, 365915, Control_c, 0, 64, 31
1, 365916, Note_on_c, 0, 63, 43
1, 365930, Control_c, 0, 64, 51
1, 365945, Control_c, 0, 64, 63
1, 365954, Note_off_c, 0, 81, 62
1, 365959, Control_c, 0, 64, 66
1, 365974, Control_c, 0, 64, 70
1, 365989, Control_c, 0, 64, 77
1, 366004, Control_c, 0, 64, 81
1, 366019, Control_c, 0, 64, 84
1, 366034, Control_c, 0, 64, 88
1, 366048, Control_c, 0, 64, 91
1, 366063, Control_c, 0, 64, 93
1, 366075, Note_off_c, 0, 63, 55
1, 366078, Control_c, 0, 64, 96
1, 366092, Control_c, 0, 64, 98
1, 366097, Note_off_c, 0, 60, 52
1, 366111, Note_on_c, 0, 81, 67
1, 366122, Control_c, 0, 64, 100
1, 366136, Note_off_c, 0, 81, 70
1, 366161, Note_on_c, 0, 82, 63
1, 366182, Control_c, 0, 64, 89
1, 366191, Note_off_c, 0, 82, 65
1, 366197, Control_c, 0, 64, 69
1, 366212, Control_c, 0, 64, 49
1, 366212, Note_on_c, 0, 81, 62
1, 366227, Control_c, 0, 64, 0
1, 366230, Note_off_c, 0, 81, 65
1, 366251, Note_on_c, 0, 79, 60
1, 366280, Note_off_c, 0, 79, 66
1, 366301, Note_on_c, 0, 81, 75
1, 366369, Note_off_c, 0, 81, 59
1, 366389, Note_on_c, 0, 82, 66
1, 366408, Note_on_c, 0, 61, 37
1, 366411, Note_on_c, 0, 65, 38
1, 366559, Control_c, 0, 64, 37
1, 366573, Control_c, 0, 64, 53
1, 366588, Control_c, 0, 64, 59
1, 366603, Note_off_c, 0, 61, 64
1, 366603, Control_c, 0, 64, 60
1, 366614, Note_off_c, 0, 65, 62
1, 366619, Control_c, 0, 64, 61
1, 366634, Control_c, 0, 64, 63
1, 366649, Control_c, 0, 64, 63
1, 366660, Note_off_c, 0, 82, 63
1, 366693, Control_c, 0, 64, 61
1, 366707, Control_c, 0, 64, 57
1, 366722, Control_c, 0, 64, 51
1, 366737, Control_c, 0, 64, 42
1, 366752, Control_c, 0, 64, 30
1, 366767, Control_c, 0, 64, 0
1, 366919, Note_on_c, 0, 81, 58
1, 366933, Note_on_c, 0, 78, 39
1, 366958, Note_on_c, 0, 75, 32
1, 367027, Note_on_c, 0, 82, 62
1, 367030, Note_off_c, 0, 81, 56
1, 367078, Note_off_c, 0, 75, 63
1, 367079, Note_off_c, 0, 78, 59
1, 367112, Note_off_c, 0, 82, 61
1, 367122, Note_on_c, 0, 84, 72
1, 367204, Note_off_c, 0, 84, 64
1, 367215, Note_on_c, 0, 82, 74
1, 367274, Note_off_c, 0, 82, 64
1, 367291, Note_on_c, 0, 81, 67
1, 367383, Note_on_c, 0, 82, 76
1, 367410, Note_on_c, 0, 77, 47
1, 367411, Note_on_c, 0, 73, 41
1, 367416, Note_off_c, 0, 81, 56
1, 367478, Note_on_c, 0, 84, 78
1, 367486, Note_off_c, 0, 82, 62
1, 367560, Note_off_c, 0, 84, 64
1, 367562, Note_off_c, 0, 73, 61
1, 367569, Note_on_c, 0, 85, 80
1, 367584, Note_off_c, 0, 77, 57
1, 367656, Note_on_c, 0, 84, 81
1, 367696, Note_off_c, 0, 85, 54
1, 367742, Note_off_c, 0, 84, 65
1, 367744, Note_on_c, 0, 82, 76
1, 367825, Note_off_c, 0, 82, 63
1, 367834, Note_on_c, 0, 75, 40
1, 367834, Note_on_c, 0, 84, 86
1, 367857, Note_on_c, 0, 72, 35
1, 367933, Note_on_c, 0, 85, 81
1, 367960, Note_off_c, 0, 84, 62
1, 368009, Note_off_c, 0, 72, 57
1, 368015, Note_off_c, 0, 75, 60
1, 368027, Note_on_c, 0, 87, 80
1, 368031, Note_off_c, 0, 85, 64
1, 368113, Note_on_c, 0, 85, 81
1, 368125, Note_off_c, 0, 87, 62
1, 368191, Note_off_c, 0, 85, 61
1, 368198, Note_on_c, 0, 84, 76
1, 368352, Note_off_c, 0, 84, 57
1, 368370, Note_on_c, 0, 85, 60
1, 368377, Note_on_c, 0, 73, 28
1, 368382, Note_on_c, 0, 70, 33
1, 368713, Note_off_c, 0, 73, 53
1, 368724, Note_off_c, 0, 70, 54
1, 368730, Note_off_c, 0, 85, 60
1, 369365, Note_on_c, 0, 60, 32
1, 369467, Note_on_c, 0, 67, 34
1, 369540, Control_c, 0, 64, 31
1, 369543, Note_on_c, 0, 70, 41
1, 369555, Control_c, 0, 64, 36
1, 369570, Control_c, 0, 64, 40
1, 369584, Control_c, 0, 64, 44
1, 369599, Control_c, 0, 64, 48
1, 369614, Control_c, 0, 64, 52
1, 369628, Control_c, 0, 64, 54
1, 369630, Note_on_c, 0, 76, 46
1, 369643, Control_c, 0, 64, 56
1, 369658, Control_c, 0, 64, 58
1, 369673, Control_c, 0, 64, 59
1, 369688, Control_c, 0, 64, 61
1, 369702, Control_c, 0, 64, 63
1, 369717, Control_c, 0, 64, 65
1, 369732, Control_c, 0, 64, 67
1, 369747, Control_c, 0, 64, 69
1, 369762, Control_c, 0, 64, 71
1, 369777, Control_c, 0, 64, 74
1, 369792, Control_c, 0, 64, 76
1, 369807, Control_c, 0, 64, 77
1, 369819, Note_off_c, 0, 76, 54
1, 369822, Control_c, 0, 64, 78
1, 369834, Note_off_c, 0, 70, 33
1, 369837, Control_c, 0, 64, 80
1, 369848, Note_off_c, 0, 67, 39
1, 369852, Control_c, 0, 64, 81
1, 369852, Control_c, 0, 67, 122
1, 369867, Control_c, 0, 64, 82
1, 369867, Control_c, 0, 67, 116
1, 369881, Control_c, 0, 64, 82
1, 369881, Control_c, 0, 67, 109
1, 369896, Control_c, 0, 64, 83
1, 369896, Control_c, 0, 67, 100
1, 369911, Control_c, 0, 67, 90
1, 369926, Control_c, 0, 67, 79
1, 369941, Control_c, 0, 67, 69
1, 369956, Control_c, 0, 67, 60
1, 369971, Control_c, 0, 67, 49
1, 369977, Note_off_c, 0, 60, 34
1, 369985, Control_c, 0, 67, 40
1, 370000, Control_c, 0, 67, 0
1, 370215, Control_c, 0, 64, 82
1, 370230, Control_c, 0, 64, 81
1, 370245, Control_c, 0, 64, 80
1, 370259, Control_c, 0, 64, 78
1, 370274, Control_c, 0, 64, 76
1, 370289, Control_c, 0, 64, 73
1, 370304, Control_c, 0, 64, 70
1, 370319, Control_c, 0, 64, 67
1, 370333, Control_c, 0, 64, 63
1, 370348, Control_c, 0, 64, 60
1, 370363, Control_c, 0, 64, 58
1, 370378, Control_c, 0, 64, 56
1, 370393, Control_c, 0, 64, 54
1, 370407, Control_c, 0, 64, 51
1, 370422, Control_c, 0, 64, 49
1, 370437, Control_c, 0, 64, 45
1, 370452, Control_c, 0, 64, 41
1, 370466, Control_c, 0, 64, 36
1, 370481, Control_c, 0, 64, 0
1, 370763, Control_c, 0, 64, 28
1, 370778, Control_c, 0, 64, 43
1, 370789, Note_on_c, 0, 68, 64
1, 370791, Note_on_c, 0, 65, 59
1, 370793, Control_c, 0, 64, 54
1, 370808, Control_c, 0, 64, 60
1, 370823, Control_c, 0, 64, 62
1, 370837, Control_c, 0, 64, 63
1, 370852, Control_c, 0, 64, 65
1, 370867, Control_c, 0, 64, 67
1, 370889, Control_c, 0, 64, 70
1, 370904, Control_c, 0, 64, 73
1, 370918, Control_c, 0, 64, 76
1, 370933, Control_c, 0, 64, 78
1, 370948, Control_c, 0, 64, 81
1, 370963, Control_c, 0, 64, 84
1, 370978, Control_c, 0, 64, 86
1, 370993, Control_c, 0, 64, 88
1, 371008, Control_c, 0, 64, 90
1, 371023, Control_c, 0, 64, 91
1, 371037, Control_c, 0, 64, 92
1, 371052, Control_c, 0, 64, 92
1, 371067, Control_c, 0, 64, 93
1, 371259, Note_on_c, 0, 72, 63
1, 371259, Control_c, 0, 64, 92
1, 371274, Note_on_c, 0, 41, 58
1, 371274, Control_c, 0, 64, 91
1, 371288, Control_c, 0, 64, 84
1, 371303, Control_c, 0, 64, 73
1, 371318, Control_c, 0, 64, 61
1, 371333, Control_c, 0, 64, 44
1, 371348, Control_c, 0, 64, 31
1, 371357, Note_on_c, 0, 44, 67
1, 371362, Note_off_c, 0, 68, 59
1, 371363, Control_c, 0, 64, 32
1, 371375, Note_off_c, 0, 41, 60
1, 371378, Control_c, 0, 64, 42
1, 371392, Control_c, 0, 64, 55
1, 371408, Control_c, 0, 64, 63
1, 371423, Control_c, 0, 64, 68
1, 371438, Control_c, 0, 64, 73
1, 371450, Note_on_c, 0, 48, 82
1, 371452, Control_c, 0, 64, 78
1, 371467, Note_off_c, 0, 44, 64
1, 371467, Control_c, 0, 64, 82
1, 371482, Control_c, 0, 64, 86
1, 371497, Control_c, 0, 64, 89
1, 371512, Control_c, 0, 64, 92
1, 371523, Note_off_c, 0, 48, 63
1, 371527, Control_c, 0, 64, 93
1, 371538, Note_on_c, 0, 53, 76
1, 371542, Control_c, 0, 64, 94
1, 371557, Control_c, 0, 64, 94
1, 371595, Note_off_c, 0, 53, 65
1, 371654, Control_c, 0, 64, 94
1, 371668, Control_c, 0, 64, 92
1, 371683, Control_c, 0, 64, 86
1, 371698, Control_c, 0, 64, 74
1, 371699, Note_on_c, 0, 64, 73
1, 371702, Note_on_c, 0, 67, 73
1, 371712, Control_c, 0, 64, 58
1, 371716, Note_on_c, 0, 60, 84
1, 371727, Control_c, 0, 64, 0
1, 371741, Note_off_c, 0, 65, 59
1, 371747, Note_off_c, 0, 72, 36
1, 371816, Control_c, 0, 64, 39
1, 371831, Control_c, 0, 64, 57
1, 371846, Control_c, 0, 64, 66
1, 371860, Note_off_c, 0, 60, 61
1, 371860, Control_c, 0, 64, 72
1, 371875, Control_c, 0, 64, 78
1, 371890, Control_c, 0, 64, 83
1, 371905, Control_c, 0, 64, 90
1, 371920, Control_c, 0, 64, 94
1, 371935, Control_c, 0, 64, 98
1, 371950, Control_c, 0, 64, 101
1, 371994, Control_c, 0, 64, 103
1, 372142, Control_c, 0, 64, 100
1, 372157, Control_c, 0, 64, 93
1, 372172, Control_c, 0, 64, 79
1, 372186, Control_c, 0, 64, 63
1, 372202, Control_c, 0, 64, 0
1, 372210, Note_on_c, 0, 82, 78
1, 372211, Note_on_c, 0, 79, 72
1, 372212, Note_on_c, 0, 72, 68
1, 372276, Control_c, 0, 64, 46
1, 372282, Note_off_c, 0, 82, 60
1, 372291, Control_c, 0, 64, 62
1, 372305, Note_off_c, 0, 79, 62
1, 372306, Control_c, 0, 64, 69
1, 372320, Control_c, 0, 64, 76
1, 372335, Control_c, 0, 64, 83
1, 372350, Control_c, 0, 64, 88
1, 372362, Note_off_c, 0, 67, 58
1, 372365, Control_c, 0, 64, 94
1, 372388, Control_c, 0, 64, 102
1, 372402, Control_c, 0, 64, 111
1, 372417, Control_c, 0, 64, 127
1, 372547, Note_on_c, 0, 82, 79
1, 372563, Note_on_c, 0, 79, 63
1, 372598, Note_off_c, 0, 82, 63
1, 372609, Note_off_c, 0, 79, 60
1, 372650, Note_on_c, 0, 65, 72
1, 372651, Note_on_c, 0, 80, 85
1, 372654, Control_c, 0, 64, 85
1, 372656, Note_on_c, 0, 68, 67
1, 372663, Note_on_c, 0, 77, 82
1, 372668, Control_c, 0, 64, 62
1, 372683, Control_c, 0, 64, 0
1, 372716, Note_off_c, 0, 64, 58
1, 372737, Note_off_c, 0, 80, 60
1, 372743, Control_c, 0, 64, 49
1, 372758, Control_c, 0, 64, 64
1, 372763, Note_off_c, 0, 77, 62
1, 372773, Control_c, 0, 64, 73
1, 372787, Control_c, 0, 64, 83
1, 372802, Control_c, 0, 64, 94
1, 372817, Control_c, 0, 64, 127
1, 372817, Note_off_c, 0, 72, 38
1, 373079, Note_on_c, 0, 72, 76
1, 373084, Control_c, 0, 64, 97
1, 373096, Note_on_c, 0, 41, 76
1, 373099, Control_c, 0, 64, 66
1, 373114, Control_c, 0, 64, 34
1, 373128, Note_off_c, 0, 68, 59
1, 373136, Control_c, 0, 64, 0
1, 373166, Control_c, 0, 64, 45
1, 373181, Control_c, 0, 64, 63
1, 373187, Note_on_c, 0, 44, 73
1, 373196, Control_c, 0, 64, 74
1, 373202, Note_off_c, 0, 41, 54
1, 373211, Control_c, 0, 64, 89
1, 373226, Control_c, 0, 64, 104
1, 373240, Control_c, 0, 64, 127
1, 373274, Note_on_c, 0, 48, 87
1, 373285, Note_off_c, 0, 44, 63
1, 373356, Note_off_c, 0, 48, 63
1, 373369, Note_on_c, 0, 53, 78
1, 373427, Note_off_c, 0, 53, 64
1, 373447, Control_c, 0, 64, 120
1, 373462, Control_c, 0, 64, 85
1, 373476, Control_c, 0, 64, 65
1, 373483, Note_on_c, 0, 64, 77
1, 373484, Note_on_c, 0, 67, 78
1, 373491, Control_c, 0, 64, 36
1, 373506, Control_c, 0, 64, 0
1, 373509, Note_on_c, 0, 60, 84
1, 373518, Note_off_c, 0, 72, 58
1, 373579, Note_off_c, 0, 65, 57
1, 373580, Control_c, 0, 64, 42
1, 373595, Control_c, 0, 64, 63
1, 373610, Control_c, 0, 64, 71
1, 373625, Control_c, 0, 64, 81
1, 373637, Note_off_c, 0, 60, 58
1, 373640, Control_c, 0, 64, 94
1, 373655, Control_c, 0, 64, 118
1, 373670, Control_c, 0, 64, 127
1, 373743, Note_off_c, 0, 64, 59
1, 373780, Note_off_c, 0, 67, 62
1, 373944, Note_on_c, 0, 72, 75
1, 373945, Note_on_c, 0, 63, 79
1, 373947, Note_on_c, 0, 69, 72
1, 373974, Control_c, 0, 64, 77
1, 373978, Note_on_c, 0, 41, 73
1, 373989, Control_c, 0, 64, 51
1, 374004, Control_c, 0, 64, 0
1, 374059, Note_on_c, 0, 45, 81
1, 374063, Control_c, 0, 64, 42
1, 374064, Note_off_c, 0, 41, 61
1, 374078, Control_c, 0, 64, 62
1, 374093, Control_c, 0, 64, 73
1, 374107, Control_c, 0, 64, 91
1, 374122, Control_c, 0, 64, 127
1, 374150, Note_on_c, 0, 48, 94
1, 374163, Note_off_c, 0, 69, 59
1, 374165, Note_off_c, 0, 45, 64
1, 374238, Note_on_c, 0, 53, 90
1, 374250, Note_off_c, 0, 48, 57
1, 374296, Note_off_c, 0, 63, 59
1, 374307, Note_off_c, 0, 53, 64
1, 374389, Note_on_c, 0, 61, 84
1, 374391, Note_on_c, 0, 70, 88
1, 374403, Control_c, 0, 64, 77
1, 374409, Note_on_c, 0, 58, 95
1, 374415, Note_off_c, 0, 72, 44
1, 374418, Control_c, 0, 64, 44
1, 374433, Control_c, 0, 64, 0
1, 374507, Control_c, 0, 64, 59
1, 374522, Control_c, 0, 64, 73
1, 374537, Control_c, 0, 64, 94
1, 374552, Control_c, 0, 64, 127
1, 374627, Note_off_c, 0, 58, 61
1, 374700, Note_off_c, 0, 70, 55
1, 374766, Note_off_c, 0, 61, 48
1, 374973, Note_on_c, 0, 73, 81
1, 374976, Note_on_c, 0, 70, 79
1, 374978, Note_on_c, 0, 66, 80
1, 374979, Note_on_c, 0, 54, 88
1, 374980, Note_on_c, 0, 61, 78
1, 374984, Note_on_c, 0, 42, 80
1, 374984, Note_on_c, 0, 46, 78
1, 374984, Note_on_c, 0, 49, 82
1, 374990, Control_c, 0, 64, 109
1, 375004, Control_c, 0, 64, 68
1, 375019, Control_c, 0, 64, 0
1, 375122, Control_c, 0, 64, 43
1, 375137, Control_c, 0, 64, 59
1, 375152, Control_c, 0, 64, 67
1, 375167, Control_c, 0, 64, 79
1, 375182, Control_c, 0, 64, 99
1, 375196, Control_c, 0, 64, 127
1, 375364, Note_off_c, 0, 61, 50
1, 375559, Note_off_c, 0, 42, 52
1, 375563, Note_off_c, 0, 46, 60
1, 375574, Note_off_c, 0, 66, 53
1, 375584, Note_off_c, 0, 49, 50
1, 375633, Note_off_c, 0, 70, 53
1, 375688, Note_off_c, 0, 54, 52
1, 375837, Note_off_c, 0, 73, 58
1, 376064, Note_on_c, 0, 74, 87
1, 376073, Note_on_c, 0, 65, 82
1, 376073, Note_on_c, 0, 71, 76
1, 376076, Note_on_c, 0, 68, 79
1, 376078, Note_on_c, 0, 62, 82
1, 376079, Note_on_c, 0, 59, 82
1, 376081, Note_on_c, 0, 53, 75
1, 376081, Note_on_c, 0, 56, 76
1, 376093, Control_c, 0, 64, 112
1, 376108, Control_c, 0, 64, 73
1, 376130, Control_c, 0, 64, 46
1, 376145, Control_c, 0, 64, 0
1, 376412, Control_c, 0, 64, 34
1, 376427, Control_c, 0, 64, 49
1, 376442, Control_c, 0, 64, 59
1, 376457, Control_c, 0, 64, 64
1, 376472, Control_c, 0, 64, 66
1, 376487, Control_c, 0, 64, 68
1, 376501, Control_c, 0, 64, 72
1, 376516, Control_c, 0, 64, 75
1, 376531, Control_c, 0, 64, 80
1, 376546, Control_c, 0, 64, 84
1, 376561, Control_c, 0, 64, 88
1, 376575, Control_c, 0, 64, 93
1, 376590, Control_c, 0, 64, 98
1, 376605, Control_c, 0, 64, 105
1, 376619, Control_c, 0, 64, 112
1, 376634, Control_c, 0, 64, 124
1, 376649, Control_c, 0, 64, 127
1, 376877, Note_off_c, 0, 65, 32
1, 376894, Note_off_c, 0, 71, 33
1, 376909, Note_off_c, 0, 68, 38
1, 376972, Note_off_c, 0, 59, 33
1, 376992, Note_off_c, 0, 74, 54
1, 377080, Note_off_c, 0, 62, 48
1, 377097, Note_off_c, 0, 53, 27
1, 377113, Note_off_c, 0, 56, 33
1, 377622, Note_on_c, 0, 79, 83
1, 377631, Note_on_c, 0, 73, 70
1, 377637, Note_on_c, 0, 70, 65
1, 377643, Note_on_c, 0, 61, 57
1, 377648, Note_on_c, 0, 58, 58
1, 377655, Note_on_c, 0, 55, 53
1, 377658, Note_on_c, 0, 52, 56
1, 377701, Control_c, 0, 64, 98
1, 377716, Control_c, 0, 64, 84
1, 377730, Control_c, 0, 64, 71
1, 377745, Control_c, 0, 64, 63
1, 377760, Control_c, 0, 64, 57
1, 377775, Control_c, 0, 64, 53
1, 377789, Control_c, 0, 64, 50
1, 377806, Control_c, 0, 64, 47
1, 377820, Control_c, 0, 64, 45
1, 377835, Control_c, 0, 64, 43
1, 377850, Control_c, 0, 64, 40
1, 377865, Control_c, 0, 64, 39
1, 377879, Control_c, 0, 64, 38
1, 377924, Control_c, 0, 64, 39
1, 377968, Control_c, 0, 64, 39
1, 377983, Control_c, 0, 64, 40
1, 378013, Control_c, 0, 64, 41
1, 378087, Control_c, 0, 64, 41
1, 378250, Control_c, 0, 64, 42
1, 378264, Control_c, 0, 64, 42
1, 378280, Control_c, 0, 64, 43
1, 378295, Control_c, 0, 64, 43
1, 378310, Control_c, 0, 64, 44
1, 378339, Control_c, 0, 64, 44
1, 378377, Control_c, 0, 64, 45
1, 378406, Control_c, 0, 64, 45
1, 378421, Control_c, 0, 64, 46
1, 378436, Control_c, 0, 64, 46
1, 378466, Control_c, 0, 64, 47
1, 378525, Control_c, 0, 64, 47
1, 378554, Control_c, 0, 64, 48
1, 378569, Control_c, 0, 64, 48
1, 378584, Control_c, 0, 64, 49
1, 378600, Control_c, 0, 64, 49
1, 378630, Control_c, 0, 64, 50
1, 378644, Control_c, 0, 64, 50
1, 378659, Control_c, 0, 64, 51
1, 378689, Control_c, 0, 64, 51
1, 378792, Control_c, 0, 64, 52
1, 378970, Control_c, 0, 64, 52
1, 379044, Control_c, 0, 64, 53
1, 379140, Control_c, 0, 64, 53
1, 379170, Control_c, 0, 64, 54
1, 379185, Control_c, 0, 64, 55
1, 379199, Control_c, 0, 64, 55
1, 379214, Control_c, 0, 64, 57
1, 379229, Control_c, 0, 64, 58
1, 379244, Control_c, 0, 64, 59
1, 379259, Control_c, 0, 64, 60
1, 379274, Control_c, 0, 64, 61
1, 379289, Control_c, 0, 64, 61
1, 379303, Control_c, 0, 64, 62
1, 379933, Control_c, 0, 64, 61
1, 380231, Control_c, 0, 64, 61
1, 380958, Note_off_c, 0, 70, 29
1, 380966, Note_off_c, 0, 73, 29
1, 381130, Note_off_c, 0, 79, 30
1, 381187, Control_c, 0, 64, 60
1, 381216, Control_c, 0, 64, 60
1, 381290, Control_c, 0, 64, 61
1, 381305, Control_c, 0, 64, 62
1, 381320, Control_c, 0, 64, 63
1, 381335, Control_c, 0, 64, 65
1, 381350, Control_c, 0, 64, 67
1, 381372, Control_c, 0, 64, 70
1, 381387, Control_c, 0, 64, 73
1, 381402, Control_c, 0, 64, 76
1, 381416, Control_c, 0, 64, 80
1, 381431, Control_c, 0, 64, 84
1, 381446, Control_c, 0, 64, 88
1, 381461, Control_c, 0, 64, 93
1, 381476, Control_c, 0, 64, 99
1, 381490, Control_c, 0, 64, 106
1, 381505, Control_c, 0, 64, 127
1, 381838, Note_on_c, 0, 85, 42
1, 381879, Note_off_c, 0, 85, 61
1, 382207, Note_on_c, 0, 85, 40
1, 382284, Note_on_c, 0, 76, 45
1, 382329, Note_off_c, 0, 85, 58
1, 382374, Note_off_c, 0, 76, 54
1, 382745, Note_on_c, 0, 85, 47
1, 382821, Note_off_c, 0, 85, 60
1, 383117, Note_on_c, 0, 85, 34
1, 383194, Note_on_c, 0, 76, 50
1, 383247, Note_off_c, 0, 85, 56
1, 383282, Note_off_c, 0, 76, 47
1, 383329, Control_c, 0, 67, 47
1, 383343, Control_c, 0, 67, 74
1, 383358, Control_c, 0, 67, 93
1, 383373, Control_c, 0, 67, 104
1, 383389, Control_c, 0, 67, 112
1, 383404, Control_c, 0, 67, 117
1, 383418, Control_c, 0, 67, 120
1, 383650, Note_on_c, 0, 85, 47
1, 383728, Note_off_c, 0, 85, 58
1, 384034, Note_on_c, 0, 85, 35
1, 384112, Note_on_c, 0, 76, 44
1, 384170, Note_off_c, 0, 85, 55
1, 384196, Note_off_c, 0, 76, 57
1, 384480, Note_off_c, 0, 55, 56
1, 384564, Note_off_c, 0, 52, 48
1, 384570, Note_off_c, 0, 58, 38
1, 384607, Note_off_c, 0, 61, 32
1, 385146, Control_c, 0, 64, 108
1, 385161, Control_c, 0, 64, 96
1, 385176, Control_c, 0, 64, 86
1, 385190, Control_c, 0, 64, 78
1, 385205, Control_c, 0, 64, 71
1, 385220, Control_c, 0, 64, 64
1, 385235, Control_c, 0, 64, 57
1, 385250, Control_c, 0, 64, 51
1, 385264, Control_c, 0, 64, 43
1, 385279, Control_c, 0, 64, 0
1, 385442, Control_c, 0, 64, 34
1, 385456, Control_c, 0, 64, 44
1, 385471, Control_c, 0, 64, 53
1, 385486, Control_c, 0, 64, 57
1, 385501, Control_c, 0, 64, 60
1, 385516, Control_c, 0, 64, 62
1, 385531, Control_c, 0, 64, 64
1, 385546, Control_c, 0, 64, 66
1, 385561, Control_c, 0, 64, 69
1, 385575, Control_c, 0, 64, 72
1, 385590, Control_c, 0, 64, 74
1, 385605, Control_c, 0, 64, 77
1, 385620, Control_c, 0, 64, 79
1, 385635, Control_c, 0, 64, 82
1, 385635, Control_c, 0, 67, 118
1, 385650, Control_c, 0, 64, 86
1, 385664, Control_c, 0, 64, 89
1, 385679, Control_c, 0, 64, 94
1, 385686, Note_on_c, 0, 73, 47
1, 385694, Control_c, 0, 64, 99
1, 385708, Control_c, 0, 64, 105
1, 385723, Control_c, 0, 64, 114
1, 385738, Control_c, 0, 64, 127
1, 385757, Note_off_c, 0, 73, 59
1, 386049, Note_on_c, 0, 73, 50
1, 386132, Note_on_c, 0, 85, 49
1, 386136, Note_on_c, 0, 79, 43
1, 386142, Note_on_c, 0, 82, 47
1, 386150, Note_on_c, 0, 64, 47
1, 386228, Note_off_c, 0, 73, 31
1, 386284, Note_off_c, 0, 64, 58
1, 386289, Note_off_c, 0, 82, 50
1, 386291, Note_off_c, 0, 85, 56
1, 386296, Note_off_c, 0, 79, 58
1, 386621, Note_on_c, 0, 73, 51
1, 386696, Note_off_c, 0, 73, 57
1, 386985, Note_on_c, 0, 73, 43
1, 387069, Note_on_c, 0, 85, 50
1, 387078, Note_on_c, 0, 79, 39
1, 387079, Note_on_c, 0, 82, 49
1, 387085, Note_on_c, 0, 64, 42
1, 387134, Note_off_c, 0, 73, 30
1, 387147, Control_c, 0, 64, 100
1, 387161, Control_c, 0, 64, 80
1, 387176, Control_c, 0, 64, 71
1, 387191, Control_c, 0, 64, 68
1, 387206, Control_c, 0, 64, 70
1, 387221, Control_c, 0, 64, 73
1, 387236, Control_c, 0, 64, 76
1, 387251, Control_c, 0, 64, 81
1, 387266, Control_c, 0, 64, 87
1, 387281, Control_c, 0, 64, 92
1, 387286, Note_off_c, 0, 85, 60
1, 387287, Note_off_c, 0, 79, 60
1, 387292, Note_off_c, 0, 82, 61
1, 387296, Control_c, 0, 64, 98
1, 387304, Note_off_c, 0, 64, 56
1, 387310, Control_c, 0, 64, 106
1, 387325, Control_c, 0, 64, 114
1, 387340, Control_c, 0, 64, 127
1, 387576, Note_on_c, 0, 73, 46
1, 387692, Note_off_c, 0, 73, 45
1, 387807, Control_c, 0, 67, 116
1, 387999, Control_c, 0, 67, 114
1, 388009, Note_on_c, 0, 73, 48
1, 388089, Control_c, 0, 67, 112
1, 388138, Note_off_c, 0, 73, 38
1, 388171, Control_c, 0, 67, 109
1, 388197, Note_on_c, 0, 58, 61
1, 388198, Note_on_c, 0, 64, 67
1, 388199, Note_on_c, 0, 55, 56
1, 388202, Note_on_c, 0, 60, 56
1, 388202, Control_c, 0, 67, 107
1, 388232, Control_c, 0, 67, 105
1, 388261, Control_c, 0, 64, 116
1, 388276, Control_c, 0, 64, 106
1, 388291, Control_c, 0, 64, 100
1, 388306, Control_c, 0, 64, 95
1, 388306, Control_c, 0, 67, 103
1, 388321, Control_c, 0, 64, 90
1, 388336, Control_c, 0, 64, 85
1, 388351, Control_c, 0, 64, 81
1, 388351, Control_c, 0, 67, 101
1, 388365, Control_c, 0, 64, 78
1, 388380, Control_c, 0, 64, 74
1, 388380, Control_c, 0, 67, 98
1, 388395, Control_c, 0, 64, 70
1, 388409, Control_c, 0, 64, 67
1, 388409, Control_c, 0, 67, 96
1, 388424, Control_c, 0, 64, 65
1, 388424, Control_c, 0, 67, 94
1, 388439, Control_c, 0, 64, 63
1, 388439, Control_c, 0, 67, 92
1, 388454, Control_c, 0, 64, 62
1, 388454, Control_c, 0, 67, 90
1, 388469, Control_c, 0, 64, 61
1, 388469, Control_c, 0, 67, 88
1, 388483, Control_c, 0, 64, 59
1, 388483, Control_c, 0, 67, 86
1, 388498, Control_c, 0, 64, 58
1, 388498, Control_c, 0, 67, 83
1, 388513, Control_c, 0, 64, 57
1, 388513, Control_c, 0, 67, 77
1, 388528, Control_c, 0, 64, 56
1, 388528, Control_c, 0, 67, 67
1, 388543, Control_c, 0, 67, 56
1, 388557, Control_c, 0, 64, 56
1, 388557, Control_c, 0, 67, 47
1, 388572, Control_c, 0, 64, 55
1, 388572, Control_c, 0, 67, 38
1, 388587, Control_c, 0, 64, 55
1, 388587, Control_c, 0, 67, 0
1, 388601, Control_c, 0, 64, 54
1, 388616, Control_c, 0, 64, 53
1, 388631, Control_c, 0, 64, 53
1, 388646, Control_c, 0, 64, 52
1, 388661, Control_c, 0, 64, 52
1, 388676, Control_c, 0, 64, 51
1, 388691, Control_c, 0, 64, 50
1, 388706, Control_c, 0, 64, 49
1, 388720, Control_c, 0, 64, 49
1, 388735, Control_c, 0, 64, 48
1, 388750, Control_c, 0, 64, 47
1, 388763, Control_c, 0, 64, 47
1, 388778, Control_c, 0, 64, 46
1, 388793, Control_c, 0, 64, 45
1, 388807, Control_c, 0, 64, 45
1, 388822, Control_c, 0, 64, 44
1, 388837, Control_c, 0, 64, 43
1, 388860, Control_c, 0, 64, 43
1, 388919, Control_c, 0, 64, 42
1, 389038, Control_c, 0, 64, 43
1, 389053, Control_c, 0, 64, 45
1, 389068, Control_c, 0, 64, 48
1, 389083, Control_c, 0, 64, 51
1, 389098, Control_c, 0, 64, 54
1, 389112, Control_c, 0, 64, 56
1, 389127, Control_c, 0, 64, 57
1, 389142, Control_c, 0, 64, 58
1, 389156, Control_c, 0, 64, 60
1, 389171, Control_c, 0, 64, 62
1, 389186, Control_c, 0, 64, 64
1, 389201, Control_c, 0, 64, 65
1, 389216, Control_c, 0, 64, 66
1, 389230, Control_c, 0, 64, 68
1, 389245, Control_c, 0, 64, 69
1, 389260, Control_c, 0, 64, 71
1, 389275, Control_c, 0, 64, 72
1, 389290, Control_c, 0, 64, 74
1, 389305, Control_c, 0, 64, 75
1, 389320, Control_c, 0, 64, 77
1, 389334, Control_c, 0, 64, 78
1, 389349, Control_c, 0, 64, 80
1, 389364, Control_c, 0, 64, 82
1, 389379, Control_c, 0, 64, 84
1, 389394, Control_c, 0, 64, 85
1, 389409, Control_c, 0, 64, 87
1, 389423, Control_c, 0, 64, 88
1, 389438, Control_c, 0, 64, 90
1, 389453, Control_c, 0, 64, 91
1, 389468, Control_c, 0, 64, 93
1, 389483, Control_c, 0, 64, 94
1, 389497, Control_c, 0, 64, 95
1, 389512, Control_c, 0, 64, 97
1, 389542, Control_c, 0, 64, 101
1, 389556, Control_c, 0, 64, 103
1, 389571, Control_c, 0, 64, 105
1, 389586, Control_c, 0, 64, 107
1, 389593, Note_on_c, 0, 67, 43
1, 389609, Control_c, 0, 64, 109
1, 389624, Control_c, 0, 64, 112
1, 389638, Control_c, 0, 64, 115
1, 389653, Control_c, 0, 64, 119
1, 389668, Control_c, 0, 64, 127
1, 389847, Control_c, 0, 67, 37
1, 389859, Note_on_c, 0, 70, 53
1, 389861, Control_c, 0, 67, 39
1, 389876, Control_c, 0, 67, 40
1, 389891, Control_c, 0, 67, 41
1, 389906, Control_c, 0, 67, 43
1, 389921, Control_c, 0, 67, 46
1, 389935, Control_c, 0, 67, 49
1, 389950, Control_c, 0, 67, 54
1, 389965, Control_c, 0, 67, 66
1, 389979, Control_c, 0, 67, 78
1, 389994, Control_c, 0, 67, 92
1, 390009, Control_c, 0, 67, 104
1, 390024, Control_c, 0, 67, 116
1, 390039, Control_c, 0, 67, 127
1, 390089, Note_on_c, 0, 72, 54
1, 390197, Note_off_c, 0, 55, 32
1, 390310, Note_off_c, 0, 60, 32
1, 390328, Note_off_c, 0, 58, 36
1, 390506, Note_on_c, 0, 76, 43
1, 390655, Control_c, 0, 67, 124
1, 390670, Control_c, 0, 67, 122
1, 390684, Control_c, 0, 67, 120
1, 390699, Control_c, 0, 67, 117
1, 390714, Control_c, 0, 67, 115
1, 390728, Control_c, 0, 67, 112
1, 390743, Control_c, 0, 67, 109
1, 390758, Control_c, 0, 67, 99
1, 390773, Control_c, 0, 67, 82
1, 390788, Control_c, 0, 67, 59
1, 390802, Control_c, 0, 67, 39
1, 390817, Control_c, 0, 67, 0
1, 391412, Note_on_c, 0, 79, 45
1, 391849, Note_on_c, 0, 82, 60
1, 392251, Note_on_c, 0, 84, 63
1, 392989, Note_on_c, 0, 88, 54
1, 394267, Note_off_c, 0, 84, 29
1, 394596, Note_off_c, 0, 88, 39
1, 394787, Note_off_c, 0, 82, 36
1, 394799, Note_off_c, 0, 76, 32
1, 394813, Note_off_c, 0, 79, 54
1, 394903, Note_off_c, 0, 72, 33
1, 394927, Note_off_c, 0, 64, 37
1, 394991, Note_off_c, 0, 70, 35
1, 395016, Note_off_c, 0, 67, 44
1, 395073, Control_c, 0, 64, 97
1, 395088, Control_c, 0, 64, 67
1, 395103, Control_c, 0, 64, 42
1, 395117, Control_c, 0, 64, 0
1, 395699, Note_on_c, 0, 82, 79
1, 395704, Note_on_c, 0, 79, 73
1, 395706, Note_on_c, 0, 70, 83
1, 395708, Note_on_c, 0, 61, 83
1, 395712, Note_on_c, 0, 58, 77
1, 395721, Note_on_c, 0, 52, 69
1, 395722, Note_on_c, 0, 55, 63
1, 395732, Control_c, 0, 64, 35
1, 395747, Control_c, 0, 64, 59
1, 395762, Control_c, 0, 64, 66
1, 395777, Control_c, 0, 64, 69
1, 395787, Note_off_c, 0, 61, 50
1, 395788, Note_off_c, 0, 70, 53
1, 395792, Control_c, 0, 64, 70
1, 395806, Control_c, 0, 64, 71
1, 395821, Control_c, 0, 64, 72
1, 395830, Note_off_c, 0, 82, 34
1, 395836, Control_c, 0, 64, 73
1, 395841, Note_off_c, 0, 52, 34
1, 395851, Control_c, 0, 64, 75
1, 395866, Control_c, 0, 64, 75
1, 395876, Note_off_c, 0, 58, 30
1, 395881, Control_c, 0, 64, 76
1, 395894, Note_off_c, 0, 79, 39
1, 395912, Note_off_c, 0, 55, 24
1, 396044, Control_c, 0, 64, 71
1, 396059, Control_c, 0, 64, 61
1, 396061, Note_on_c, 0, 70, 84
1, 396062, Note_on_c, 0, 82, 79
1, 396068, Note_on_c, 0, 58, 74
1, 396071, Note_on_c, 0, 61, 70
1, 396071, Note_on_c, 0, 79, 54
1, 396073, Note_on_c, 0, 52, 64
1, 396073, Control_c, 0, 64, 35
1, 396088, Control_c, 0, 64, 0
1, 396098, Note_on_c, 0, 55, 31
1, 396098, Note_off_c, 0, 79, 66
1, 396098, Note_off_c, 0, 61, 65
1, 396102, Note_off_c, 0, 58, 64
1, 396107, Note_off_c, 0, 70, 63
1, 396109, Note_off_c, 0, 52, 63
1, 396109, Note_off_c, 0, 82, 65
1, 396141, Note_off_c, 0, 55, 41
1, 396164, Note_on_c, 0, 77, 80
1, 396164, Note_on_c, 0, 80, 89
1, 396167, Note_on_c, 0, 72, 85
1, 396169, Note_on_c, 0, 53, 82
1, 396169, Note_on_c, 0, 60, 85
1, 396173, Note_on_c, 0, 56, 82
1, 396408, Control_c, 0, 64, 50
1, 396422, Control_c, 0, 64, 64
1, 396437, Control_c, 0, 64, 68
1, 396444, Note_off_c, 0, 53, 61
1, 396452, Control_c, 0, 64, 76
1, 396464, Note_off_c, 0, 56, 59
1, 396467, Control_c, 0, 64, 86
1, 396482, Control_c, 0, 64, 96
1, 396483, Note_off_c, 0, 60, 58
1, 396496, Control_c, 0, 64, 106
1, 396498, Note_off_c, 0, 80, 60
1, 396507, Note_off_c, 0, 77, 59
1, 396511, Control_c, 0, 64, 127
1, 396544, Note_off_c, 0, 72, 59
1, 396778, Control_c, 0, 64, 98
1, 396793, Control_c, 0, 64, 78
1, 396808, Control_c, 0, 64, 61
1, 396822, Control_c, 0, 64, 43
1, 396837, Control_c, 0, 64, 0
1, 397964, Note_on_c, 0, 73, 61
1, 397965, Note_on_c, 0, 79, 63
1, 397970, Note_on_c, 0, 70, 62
1, 397979, Note_on_c, 0, 55, 58
1, 397984, Note_on_c, 0, 46, 55
1, 397990, Note_on_c, 0, 49, 52
1, 398024, Control_c, 0, 64, 39
1, 398039, Control_c, 0, 64, 59
1, 398054, Control_c, 0, 64, 65
1, 398069, Control_c, 0, 64, 68
1, 398083, Control_c, 0, 64, 72
1, 398098, Control_c, 0, 64, 75
1, 398112, Note_off_c, 0, 49, 57
1, 398113, Control_c, 0, 64, 77
1, 398116, Note_off_c, 0, 55, 56
1, 398119, Note_off_c, 0, 46, 57
1, 398123, Note_off_c, 0, 73, 58
1, 398128, Control_c, 0, 64, 79
1, 398132, Note_off_c, 0, 79, 60
1, 398133, Note_off_c, 0, 70, 56
1, 398143, Control_c, 0, 64, 81
1, 398158, Control_c, 0, 64, 82
1, 398173, Control_c, 0, 64, 83
1, 398187, Control_c, 0, 64, 84
1, 398202, Control_c, 0, 64, 84
1, 398232, Control_c, 0, 64, 85
1, 398276, Control_c, 0, 64, 85
1, 398394, Note_on_c, 0, 55, 62
1, 398394, Note_on_c, 0, 79, 61
1, 398394, Control_c, 0, 64, 86
1, 398396, Note_on_c, 0, 73, 62
1, 398396, Note_on_c, 0, 70, 67
1, 398403, Note_on_c, 0, 49, 54
1, 398408, Note_on_c, 0, 46, 53
1, 398422, Note_off_c, 0, 79, 65
1, 398424, Control_c, 0, 64, 86
1, 398426, Note_off_c, 0, 55, 64
1, 398432, Note_off_c, 0, 73, 60
1, 398435, Note_off_c, 0, 70, 60
1, 398436, Note_off_c, 0, 46, 63
1, 398437, Note_off_c, 0, 49, 64
1, 398468, Control_c, 0, 64, 86
1, 398483, Control_c, 0, 64, 81
1, 398498, Control_c, 0, 64, 70
1, 398513, Control_c, 0, 64, 58
1, 398515, Note_on_c, 0, 56, 64
1, 398516, Note_on_c, 0, 53, 56
1, 398519, Note_on_c, 0, 68, 64
1, 398519, Note_on_c, 0, 77, 64
1, 398525, Note_on_c, 0, 72, 62
1, 398528, Control_c, 0, 64, 37
1, 398528, Note_on_c, 0, 48, 61
1, 398542, Control_c, 0, 64, 0
1, 399049, Note_off_c, 0, 53, 55
1, 399081, Note_off_c, 0, 77, 50
1, 399091, Note_off_c, 0, 72, 55
1, 399142, Note_off_c, 0, 48, 37
1, 399159, Note_off_c, 0, 68, 39
1, 399171, Note_off_c, 0, 56, 39
1, 399821, Note_on_c, 0, 55, 44
1, 399835, Note_on_c, 0, 48, 44
1, 399995, Control_c, 0, 64, 30
1, 400010, Control_c, 0, 64, 40
1, 400025, Control_c, 0, 64, 48
1, 400039, Control_c, 0, 64, 54
1, 400054, Control_c, 0, 64, 56
1, 400069, Control_c, 0, 64, 58
1, 400091, Control_c, 0, 64, 60
1, 400106, Control_c, 0, 64, 62
1, 400121, Control_c, 0, 64, 64
1, 400136, Control_c, 0, 64, 65
1, 400151, Control_c, 0, 64, 67
1, 400167, Control_c, 0, 64, 69
1, 400182, Control_c, 0, 64, 71
1, 400196, Control_c, 0, 64, 73
1, 400211, Control_c, 0, 64, 75
1, 400226, Control_c, 0, 64, 77
1, 400241, Control_c, 0, 64, 79
1, 400256, Control_c, 0, 64, 81
1, 400270, Control_c, 0, 64, 83
1, 400285, Control_c, 0, 64, 85
1, 400300, Control_c, 0, 64, 88
1, 400314, Control_c, 0, 64, 90
1, 400329, Control_c, 0, 64, 93
1, 400344, Control_c, 0, 64, 96
1, 400359, Control_c, 0, 64, 99
1, 400362, Note_on_c, 0, 70, 51
1, 400374, Control_c, 0, 64, 104
1, 400388, Control_c, 0, 64, 112
1, 400403, Control_c, 0, 64, 127
1, 400495, Note_off_c, 0, 70, 51
1, 400547, Note_off_c, 0, 55, 50
1, 400562, Note_off_c, 0, 48, 35
1, 400783, Note_on_c, 0, 64, 49
1, 400895, Note_on_c, 0, 65, 53
1, 400921, Note_off_c, 0, 64, 38
1, 400930, Control_c, 0, 64, 99
1, 400945, Control_c, 0, 64, 82
1, 400960, Control_c, 0, 64, 71
1, 400975, Control_c, 0, 64, 63
1, 400990, Control_c, 0, 64, 58
1, 401005, Control_c, 0, 64, 53
1, 401020, Control_c, 0, 64, 49
1, 401035, Control_c, 0, 64, 44
1, 401049, Control_c, 0, 64, 38
1, 401064, Control_c, 0, 64, 28
1, 401079, Control_c, 0, 64, 0
1, 401444, Note_on_c, 0, 41, 60
1, 401607, Note_off_c, 0, 41, 56
1, 401693, Control_c, 0, 67, 40
1, 401708, Control_c, 0, 67, 45
1, 401723, Control_c, 0, 67, 49
1, 401738, Control_c, 0, 67, 50
1, 401783, Control_c, 0, 67, 51
1, 401908, Note_on_c, 0, 41, 57
1, 401957, Note_off_c, 0, 41, 60
1, 401961, Control_c, 0, 67, 50
1, 402030, Note_on_c, 0, 29, 61
1, 402102, Note_off_c, 0, 65, 58
1, 402109, Control_c, 0, 67, 49
1, 402397, Control_c, 0, 67, 49
1, 402471, Control_c, 0, 67, 48
1, 402500, Control_c, 0, 67, 47
1, 402515, Control_c, 0, 67, 47
1, 402530, Control_c, 0, 67, 46
1, 402545, Control_c, 0, 67, 45
1, 402561, Control_c, 0, 67, 45
1, 402576, Control_c, 0, 67, 43
1, 402590, Control_c, 0, 67, 42
1, 402604, Note_on_c, 0, 78, 62
1, 402605, Control_c, 0, 67, 40
1, 402606, Note_on_c, 0, 75, 62
1, 402620, Control_c, 0, 67, 0
1, 402635, Control_c, 0, 64, 43
1, 402650, Control_c, 0, 64, 55
1, 402664, Control_c, 0, 64, 61
1, 402679, Control_c, 0, 64, 64
1, 402694, Control_c, 0, 64, 67
1, 402708, Control_c, 0, 64, 70
1, 402723, Control_c, 0, 64, 75
1, 402738, Control_c, 0, 64, 81
1, 402753, Control_c, 0, 64, 86
1, 402768, Control_c, 0, 64, 91
1, 402782, Control_c, 0, 64, 97
1, 402797, Control_c, 0, 64, 105
1, 402807, Note_off_c, 0, 75, 60
1, 402812, Control_c, 0, 64, 115
1, 402819, Note_off_c, 0, 78, 54
1, 402827, Control_c, 0, 64, 127
1, 403037, Note_on_c, 0, 72, 56
1, 403042, Note_on_c, 0, 69, 56
1, 403092, Note_off_c, 0, 69, 56
1, 403126, Note_off_c, 0, 29, 42
1, 403153, Note_on_c, 0, 73, 63
1, 403163, Note_on_c, 0, 70, 61
1, 403198, Note_off_c, 0, 72, 25
1, 403205, Control_c, 0, 64, 114
1, 403220, Control_c, 0, 64, 94
1, 403234, Control_c, 0, 64, 81
1, 403249, Control_c, 0, 64, 69
1, 403264, Control_c, 0, 64, 61
1, 403279, Control_c, 0, 64, 53
1, 403294, Control_c, 0, 64, 47
1, 403308, Control_c, 0, 64, 39
1, 403323, Control_c, 0, 64, 0
1, 403743, Note_on_c, 0, 41, 59
1, 403903, Note_off_c, 0, 41, 57
1, 404185, Note_on_c, 0, 41, 55
1, 404237, Note_off_c, 0, 41, 59
1, 404298, Note_on_c, 0, 29, 55
1, 404312, Note_off_c, 0, 73, 60
1, 404318, Note_off_c, 0, 70, 61
1, 404821, Control_c, 0, 64, 30
1, 404836, Control_c, 0, 64, 34
1, 404851, Control_c, 0, 64, 39
1, 404866, Control_c, 0, 64, 46
1, 404880, Control_c, 0, 64, 52
1, 404895, Control_c, 0, 64, 55
1, 404903, Note_on_c, 0, 70, 56
1, 404904, Note_on_c, 0, 73, 56
1, 404910, Control_c, 0, 64, 58
1, 404925, Control_c, 0, 64, 60
1, 404940, Control_c, 0, 64, 62
1, 404956, Control_c, 0, 64, 65
1, 404971, Control_c, 0, 64, 68
1, 404985, Control_c, 0, 64, 73
1, 405000, Control_c, 0, 64, 77
1, 405015, Control_c, 0, 64, 81
1, 405030, Control_c, 0, 64, 86
1, 405044, Control_c, 0, 64, 91
1, 405059, Control_c, 0, 64, 97
1, 405074, Control_c, 0, 64, 103
1, 405089, Note_off_c, 0, 70, 54
1, 405089, Control_c, 0, 64, 108
1, 405090, Note_off_c, 0, 73, 55
1, 405103, Control_c, 0, 64, 116
1, 405118, Control_c, 0, 64, 127
1, 405369, Note_off_c, 0, 29, 37
1, 405372, Note_on_c, 0, 67, 51
1, 405372, Note_on_c, 0, 64, 48
1, 405488, Note_on_c, 0, 65, 55
1, 405503, Note_off_c, 0, 64, 38
1, 405511, Control_c, 0, 64, 105
1, 405526, Control_c, 0, 64, 89
1, 405541, Control_c, 0, 64, 77
1, 405556, Control_c, 0, 64, 68
1, 405571, Control_c, 0, 64, 60
1, 405576, Note_off_c, 0, 67, 35
1, 405585, Control_c, 0, 64, 54
1, 405600, Control_c, 0, 64, 48
1, 405615, Control_c, 0, 64, 42
1, 405629, Control_c, 0, 64, 32
1, 405644, Control_c, 0, 64, 0
1, 406051, Note_on_c, 0, 41, 56
1, 406209, Note_off_c, 0, 41, 57
1, 406348, Control_c, 0, 67, 37
1, 406378, Control_c, 0, 67, 38
1, 406422, Control_c, 0, 67, 39
1, 406466, Control_c, 0, 67, 39
1, 406496, Control_c, 0, 67, 40
1, 406508, Note_on_c, 0, 41, 50
1, 406511, Control_c, 0, 67, 41
1, 406540, Control_c, 0, 67, 41
1, 406555, Note_off_c, 0, 41, 60
1, 406571, Control_c, 0, 67, 42
1, 406601, Control_c, 0, 67, 43
1, 406616, Control_c, 0, 67, 44
1, 406627, Note_on_c, 0, 29, 53
1, 406630, Control_c, 0, 67, 61
1, 406643, Note_off_c, 0, 65, 61
1, 406645, Control_c, 0, 67, 86
1, 406660, Control_c, 0, 67, 99
1, 406674, Control_c, 0, 67, 107
1, 406689, Control_c, 0, 67, 112
1, 406704, Control_c, 0, 67, 114
1, 406719, Control_c, 0, 67, 117
1, 406734, Control_c, 0, 67, 120
1, 406749, Control_c, 0, 67, 124
1, 407230, Control_c, 0, 67, 122
1, 407236, Note_on_c, 0, 66, 57
1, 407240, Note_on_c, 0, 63, 54
1, 407274, Control_c, 0, 64, 31
1, 407289, Control_c, 0, 64, 45
1, 407304, Control_c, 0, 64, 56
1, 407304, Control_c, 0, 67, 120
1, 407319, Control_c, 0, 64, 61
1, 407334, Control_c, 0, 64, 64
1, 407350, Control_c, 0, 64, 67
1, 407365, Control_c, 0, 64, 71
1, 407365, Control_c, 0, 67, 118
1, 407379, Control_c, 0, 64, 75
1, 407394, Control_c, 0, 64, 79
1, 407409, Control_c, 0, 64, 83
1, 407423, Control_c, 0, 64, 87
1, 407425, Note_off_c, 0, 63, 59
1, 407430, Note_off_c, 0, 66, 57
1, 407438, Control_c, 0, 64, 92
1, 407453, Control_c, 0, 64, 95
1, 407453, Control_c, 0, 67, 116
1, 407468, Control_c, 0, 64, 99
1, 407484, Control_c, 0, 64, 103
1, 407498, Control_c, 0, 64, 107
1, 407513, Control_c, 0, 64, 109
1, 407528, Control_c, 0, 64, 112
1, 407558, Control_c, 0, 64, 114
1, 407624, Control_c, 0, 64, 117
1, 407701, Note_on_c, 0, 57, 51
1, 407704, Note_on_c, 0, 60, 49
1, 407760, Note_off_c, 0, 57, 54
1, 407798, Note_off_c, 0, 29, 42
1, 407817, Control_c, 0, 64, 113
1, 407831, Control_c, 0, 64, 109
1, 407837, Note_on_c, 0, 61, 52
1, 407844, Note_on_c, 0, 58, 51
1, 407846, Control_c, 0, 64, 102
1, 407861, Control_c, 0, 64, 95
1, 407861, Control_c, 0, 67, 118
1, 407876, Control_c, 0, 64, 89
1, 407879, Note_off_c, 0, 60, 44
1, 407891, Control_c, 0, 64, 82
1, 407906, Control_c, 0, 64, 76
1, 407920, Control_c, 0, 64, 70
1, 407935, Control_c, 0, 64, 65
1, 407950, Control_c, 0, 64, 59
1, 407965, Control_c, 0, 64, 56
1, 407980, Control_c, 0, 64, 53
1, 407995, Control_c, 0, 64, 50
1, 408010, Control_c, 0, 64, 47
1, 408024, Control_c, 0, 64, 43
1, 408039, Control_c, 0, 64, 36
1, 408054, Control_c, 0, 64, 33
1, 408069, Control_c, 0, 64, 33
1, 408113, Control_c, 0, 64, 32
1, 408419, Note_on_c, 0, 41, 54
1, 408570, Note_off_c, 0, 41, 59
1, 408859, Note_on_c, 0, 41, 47
1, 408904, Note_off_c, 0, 41, 59
1, 408994, Note_on_c, 0, 29, 47
1, 408997, Control_c, 0, 64, 30
1, 409011, Control_c, 0, 64, 0
1, 409152, Control_c, 0, 64, 31
1, 409166, Control_c, 0, 64, 44
1, 409181, Control_c, 0, 64, 56
1, 409196, Control_c, 0, 64, 62
1, 409211, Control_c, 0, 64, 65
1, 409226, Control_c, 0, 64, 67
1, 409239, Note_off_c, 0, 58, 58
1, 409241, Control_c, 0, 64, 71
1, 409253, Note_off_c, 0, 61, 53
1, 409256, Control_c, 0, 64, 75
1, 409270, Control_c, 0, 64, 79
1, 409285, Control_c, 0, 64, 83
1, 409300, Control_c, 0, 64, 86
1, 409313, Note_off_c, 0, 29, 34
1, 409315, Control_c, 0, 64, 89
1, 409330, Control_c, 0, 64, 91
1, 409344, Control_c, 0, 64, 93
1, 409359, Control_c, 0, 64, 94
1, 409374, Control_c, 0, 64, 94
1, 409389, Control_c, 0, 64, 95
1, 409563, Note_on_c, 0, 58, 51
1, 409563, Note_on_c, 0, 64, 51
1, 409566, Control_c, 0, 64, 94
1, 409569, Note_on_c, 0, 61, 48
1, 409581, Control_c, 0, 64, 94
1, 409585, Note_on_c, 0, 41, 49
1, 409596, Control_c, 0, 64, 89
1, 409611, Control_c, 0, 64, 80
1, 409625, Control_c, 0, 64, 69
1, 409640, Control_c, 0, 64, 60
1, 409655, Control_c, 0, 64, 52
1, 409685, Control_c, 0, 64, 56
1, 409700, Control_c, 0, 64, 59
1, 409715, Control_c, 0, 64, 63
1, 409730, Control_c, 0, 64, 67
1, 409745, Control_c, 0, 64, 72
1, 409760, Control_c, 0, 64, 78
1, 409775, Control_c, 0, 64, 83
1, 409789, Control_c, 0, 64, 85
1, 409792, Note_off_c, 0, 41, 37
1, 409804, Control_c, 0, 64, 89
1, 409826, Control_c, 0, 64, 92
1, 409841, Control_c, 0, 64, 95
1, 409856, Control_c, 0, 64, 98
1, 409871, Control_c, 0, 64, 100
1, 409886, Control_c, 0, 64, 102
1, 409891, Note_off_c, 0, 58, 52
1, 409926, Note_off_c, 0, 61, 31
1, 409930, Control_c, 0, 64, 104
1, 409956, Note_off_c, 0, 64, 55
1, 410011, Note_on_c, 0, 41, 52
1, 410058, Note_off_c, 0, 41, 58
1, 410122, Note_on_c, 0, 60, 54
1, 410123, Control_c, 0, 64, 102
1, 410127, Note_on_c, 0, 65, 54
1, 410129, Note_on_c, 0, 57, 52
1, 410138, Control_c, 0, 64, 95
1, 410153, Control_c, 0, 64, 86
1, 410158, Note_on_c, 0, 29, 42
1, 410167, Control_c, 0, 64, 75
1, 410182, Control_c, 0, 64, 62
1, 410197, Control_c, 0, 64, 50
1, 410212, Control_c, 0, 64, 42
1, 410241, Control_c, 0, 64, 46
1, 410256, Control_c, 0, 64, 51
1, 410271, Control_c, 0, 64, 56
1, 410286, Control_c, 0, 64, 62
1, 410300, Control_c, 0, 64, 66
1, 410315, Control_c, 0, 64, 71
1, 410330, Control_c, 0, 64, 75
1, 410345, Control_c, 0, 64, 79
1, 410360, Control_c, 0, 64, 82
1, 410365, Note_off_c, 0, 60, 62
1, 410374, Control_c, 0, 64, 86
1, 410389, Control_c, 0, 64, 89
1, 410404, Control_c, 0, 64, 92
1, 410412, Note_off_c, 0, 29, 43
1, 410418, Control_c, 0, 64, 94
1, 410433, Note_off_c, 0, 57, 50
1, 410433, Control_c, 0, 64, 95
1, 410478, Control_c, 0, 64, 97
1, 410666, Note_on_c, 0, 64, 51
1, 410676, Note_on_c, 0, 58, 49
1, 410679, Note_on_c, 0, 61, 44
1, 410679, Control_c, 0, 64, 94
1, 410694, Control_c, 0, 64, 86
1, 410696, Note_on_c, 0, 41, 47
1, 410709, Control_c, 0, 64, 74
1, 410717, Note_off_c, 0, 65, 31
1, 410723, Control_c, 0, 64, 61
1, 410738, Control_c, 0, 64, 41
1, 410738, Control_c, 0, 67, 120
1, 410753, Control_c, 0, 64, 0
1, 410783, Control_c, 0, 64, 41
1, 410797, Control_c, 0, 64, 56
1, 410812, Control_c, 0, 64, 63
1, 410827, Control_c, 0, 64, 67
1, 410842, Control_c, 0, 64, 72
1, 410857, Control_c, 0, 64, 76
1, 410865, Note_off_c, 0, 41, 38
1, 410872, Control_c, 0, 64, 80
1, 410886, Control_c, 0, 64, 84
1, 410901, Control_c, 0, 64, 88
1, 410916, Control_c, 0, 64, 92
1, 410922, Note_off_c, 0, 58, 52
1, 410931, Control_c, 0, 64, 95
1, 410938, Note_off_c, 0, 61, 29
1, 410946, Control_c, 0, 64, 97
1, 410975, Control_c, 0, 64, 100
1, 411035, Control_c, 0, 64, 102
1, 411056, Note_off_c, 0, 64, 38
1, 411101, Note_on_c, 0, 41, 43
1, 411156, Note_off_c, 0, 41, 54
1, 411206, Note_on_c, 0, 60, 47
1, 411208, Note_on_c, 0, 65, 48
1, 411211, Note_on_c, 0, 57, 43
1, 411212, Control_c, 0, 64, 97
1, 411227, Control_c, 0, 64, 87
1, 411241, Control_c, 0, 64, 74
1, 411247, Note_on_c, 0, 29, 36
1, 411256, Control_c, 0, 64, 62
1, 411271, Control_c, 0, 64, 46
1, 411286, Control_c, 0, 64, 35
1, 411301, Control_c, 0, 64, 37
1, 411323, Control_c, 0, 64, 46
1, 411338, Control_c, 0, 64, 55
1, 411354, Control_c, 0, 64, 62
1, 411369, Control_c, 0, 64, 66
1, 411384, Control_c, 0, 64, 71
1, 411399, Control_c, 0, 64, 77
1, 411414, Control_c, 0, 64, 82
1, 411418, Note_off_c, 0, 60, 60
1, 411428, Control_c, 0, 64, 86
1, 411442, Note_off_c, 0, 29, 42
1, 411443, Control_c, 0, 64, 90
1, 411458, Control_c, 0, 64, 94
1, 411472, Control_c, 0, 64, 98
1, 411476, Note_off_c, 0, 57, 51
1, 411487, Control_c, 0, 64, 101
1, 411502, Control_c, 0, 64, 103
1, 411532, Control_c, 0, 64, 105
1, 411558, Note_off_c, 0, 65, 38
1, 411762, Note_on_c, 0, 64, 45
1, 411779, Note_on_c, 0, 61, 37
1, 411783, Note_on_c, 0, 58, 37
1, 411784, Control_c, 0, 64, 97
1, 411798, Control_c, 0, 64, 81
1, 411810, Note_on_c, 0, 41, 42
1, 411813, Control_c, 0, 64, 63
1, 411828, Control_c, 0, 64, 49
1, 411843, Control_c, 0, 64, 46
1, 411843, Control_c, 0, 67, 122
1, 411858, Control_c, 0, 64, 51
1, 411872, Control_c, 0, 64, 59
1, 411887, Control_c, 0, 64, 66
1, 411894, Note_off_c, 0, 41, 55
1, 411902, Control_c, 0, 64, 73
1, 411917, Control_c, 0, 64, 82
1, 411932, Control_c, 0, 64, 88
1, 411946, Control_c, 0, 64, 92
1, 411961, Control_c, 0, 64, 96
1, 411961, Control_c, 0, 67, 124
1, 411976, Control_c, 0, 64, 99
1, 411990, Control_c, 0, 64, 102
1, 412018, Note_off_c, 0, 58, 37
1, 412020, Control_c, 0, 64, 104
1, 412020, Control_c, 0, 67, 126
1, 412070, Note_off_c, 0, 64, 38
1, 412073, Note_off_c, 0, 61, 28
1, 412216, Note_on_c, 0, 41, 37
1, 412251, Control_c, 0, 64, 100
1, 412266, Control_c, 0, 64, 96
1, 412281, Control_c, 0, 64, 90
1, 412295, Control_c, 0, 64, 83
1, 412310, Control_c, 0, 64, 76
1, 412325, Control_c, 0, 64, 68
1, 412329, Note_on_c, 0, 65, 38
1, 412332, Note_on_c, 0, 60, 33
1, 412336, Note_on_c, 0, 57, 31
1, 412340, Control_c, 0, 64, 61
1, 412346, Note_on_c, 0, 29, 40
1, 412355, Control_c, 0, 64, 51
1, 412369, Control_c, 0, 64, 37
1, 412384, Control_c, 0, 64, 0
1, 412487, Control_c, 0, 64, 44
1, 412502, Control_c, 0, 64, 58
1, 412517, Control_c, 0, 64, 64
1, 412524, Note_off_c, 0, 57, 59
1, 412532, Control_c, 0, 64, 67
1, 412547, Note_off_c, 0, 60, 54
1, 412547, Control_c, 0, 64, 71
1, 412562, Control_c, 0, 64, 74
1, 412569, Note_off_c, 0, 65, 61
1, 412577, Control_c, 0, 64, 76
1, 412591, Control_c, 0, 64, 77
1, 412606, Control_c, 0, 64, 78
1, 412681, Control_c, 0, 64, 77
1, 412695, Control_c, 0, 64, 75
1, 412710, Control_c, 0, 64, 71
1, 412725, Control_c, 0, 64, 66
1, 412740, Control_c, 0, 64, 62
1, 412755, Control_c, 0, 64, 58
1, 412769, Control_c, 0, 64, 55
1, 412784, Control_c, 0, 64, 52
1, 412799, Control_c, 0, 64, 48
1, 412821, Control_c, 0, 64, 41
1, 412836, Control_c, 0, 64, 31
1, 412851, Control_c, 0, 64, 0
1, 412913, Note_on_c, 0, 77, 56
1, 413056, Note_off_c, 0, 77, 63
1, 413338, Note_on_c, 0, 77, 51
1, 413375, Note_off_c, 0, 77, 61
1, 413429, Note_on_c, 0, 89, 56
1, 413630, Control_c, 0, 64, 35
1, 413644, Control_c, 0, 64, 52
1, 413659, Control_c, 0, 64, 60
1, 413674, Control_c, 0, 64, 63
1, 413689, Control_c, 0, 64, 66
1, 413704, Control_c, 0, 64, 69
1, 413716, Note_off_c, 0, 89, 60
1, 413718, Control_c, 0, 64, 71
1, 413733, Control_c, 0, 64, 73
1, 413749, Control_c, 0, 64, 74
1, 413764, Control_c, 0, 64, 76
1, 413779, Control_c, 0, 64, 76
1, 413793, Control_c, 0, 64, 77
1, 413942, Control_c, 0, 64, 76
1, 413986, Control_c, 0, 64, 76
1, 413998, Note_on_c, 0, 77, 51
1, 414001, Control_c, 0, 64, 75
1, 414016, Control_c, 0, 64, 74
1, 414031, Control_c, 0, 64, 73
1, 414046, Control_c, 0, 64, 71
1, 414060, Control_c, 0, 64, 69
1, 414075, Control_c, 0, 64, 67
1, 414090, Control_c, 0, 64, 65
1, 414105, Control_c, 0, 64, 64
1, 414120, Control_c, 0, 64, 62
1, 414134, Control_c, 0, 64, 60
1, 414141, Note_off_c, 0, 77, 52
1, 414149, Control_c, 0, 64, 58
1, 414164, Control_c, 0, 64, 57
1, 414179, Control_c, 0, 64, 55
1, 414193, Control_c, 0, 64, 54
1, 414208, Control_c, 0, 64, 53
1, 414222, Control_c, 0, 64, 52
1, 414237, Control_c, 0, 64, 51
1, 414252, Control_c, 0, 64, 50
1, 414267, Control_c, 0, 64, 49
1, 414297, Control_c, 0, 64, 49
1, 414319, Control_c, 0, 64, 48
1, 414334, Control_c, 0, 64, 48
1, 414348, Control_c, 0, 64, 47
1, 414363, Control_c, 0, 64, 46
1, 414378, Control_c, 0, 64, 46
1, 414392, Control_c, 0, 64, 45
1, 414407, Control_c, 0, 64, 44
1, 414422, Control_c, 0, 64, 42
1, 414437, Control_c, 0, 64, 40
1, 414450, Note_on_c, 0, 77, 49
1, 414452, Control_c, 0, 64, 38
1, 414466, Control_c, 0, 64, 33
1, 414481, Control_c, 0, 64, 0
1, 414571, Note_on_c, 0, 89, 40
1, 417998, Note_off_c, 0, 77, 1
1, 418249, Note_off_c, 0, 89, 30
1, 418329, Note_off_c, 0, 41, 5
1, 418383, Note_off_c, 0, 29, 32
1, 420783, Control_c, 0, 64, 28
1, 420902, Control_c, 0, 64, 30
1, 420991, Control_c, 0, 64, 32
1, 421665, Control_c, 0, 64, 30
1, 421770, Control_c, 0, 64, 0
1, 422192, Control_c, 0, 67, 98
1, 422206, Control_c, 0, 67, 51
1, 422221, Control_c, 0, 67, 0
1, 422221, End_track
0, 0, End_of_file
