0, 0, Header, 0, 1, 384
1, 0, Start_track
1, 0, Title_t, "Sonata in A D959--V.Korch.-Kogan"
1, 0, Text_t, "2006 International Piano-e-Competition Schubert Sonata Round"
1, 0, Text_t, "St. Paul, Minnesota, July 8, 2006"
1, 0, Text_t, "http://www.piano-e-competition.com/"
1, 0, Instrument_name_t, "Yamaha Disklavier Pro Mark IV concert grand piano"
1, 0, Sequencer_specific, 39, 67, 113, 0, 1, 0, 1, 0, 83, 111, 110, 97, 116, 97, 32, 105, 110, 32, 65, 32, 68, 57, 53, 57, 86, 46, 75, 111, 114, 99, 104, 46, 45, 75, 111, 103, 97, 110, 32, 32
1, 0, Sequencer_specific, 6, 67, 113, 0, 0, 0, 69
1, 0, System_exclusive, 21, 67, 113, 126, 21, 0, 2, 2, 0, 14, 5, 1, 4, 4, 10, 15, 14, 4, 6, 12, 6, 247
1, 0, Sequencer_specific, 5, 67, 123, 12, 2, 1
1, 0, Tempo, 512820
1, 0, Time_signature, 4, 2, 24, 8
1, 0, System_exclusive, 5, 126, 127, 9, 1, 247
1, 1, System_exclusive, 8, 67, 16, 76, 0, 0, 126, 0, 247
1, 2, System_exclusive, 8, 67, 16, 76, 8, 9, 7, 1, 247
1, 3, Control_c, 0, 0, 0
1, 4, Control_c, 0, 32, 0
1, 5, Program_c, 0, 0
1, 6, Control_c, 0, 7, 100
1, 904, Note_on_c, 0, 61, 81
1, 909, Note_on_c, 0, 69, 80
1, 910, Note_on_c, 0, 57, 78
1, 912, Note_on_c, 0, 49, 85
1, 915, Note_on_c, 0, 45, 85
1, 939, Control_c, 0, 64, 59
1, 950, Note_off_c, 0, 49, 65
1, 954, Control_c, 0, 64, 77
1, 969, Control_c, 0, 64, 127
1, 970, Note_off_c, 0, 45, 64
1, 1339, Control_c, 0, 64, 68
1, 1345, Note_on_c, 0, 33, 93
1, 1353, Control_c, 0, 64, 0
1, 1383, Control_c, 0, 64, 44
1, 1398, Control_c, 0, 64, 63
1, 1413, Control_c, 0, 64, 77
1, 1428, Control_c, 0, 64, 127
1, 1441, Note_off_c, 0, 33, 61
1, 1762, Control_c, 0, 64, 99
1, 1777, Control_c, 0, 64, 70
1, 1792, Control_c, 0, 64, 44
1, 1807, Control_c, 0, 64, 0
1, 2233, Note_on_c, 0, 49, 90
1, 2236, Note_on_c, 0, 45, 84
1, 2236, Control_c, 0, 64, 61
1, 2251, Control_c, 0, 64, 76
1, 2260, Note_off_c, 0, 61, 62
1, 2263, Note_off_c, 0, 57, 51
1, 2266, Control_c, 0, 64, 127
1, 2288, Note_off_c, 0, 45, 63
1, 2304, Note_off_c, 0, 69, 55
1, 2305, Note_off_c, 0, 49, 61
1, 2379, Note_on_c, 0, 62, 83
1, 2379, Note_on_c, 0, 59, 90
1, 2379, Note_on_c, 0, 69, 87
1, 2380, Note_on_c, 0, 57, 89
1, 2382, Note_on_c, 0, 47, 88
1, 2383, Note_on_c, 0, 50, 93
1, 2385, Control_c, 0, 64, 78
1, 2400, Control_c, 0, 64, 37
1, 2415, Control_c, 0, 64, 0
1, 2466, Control_c, 0, 64, 36
1, 2474, Note_off_c, 0, 50, 63
1, 2481, Control_c, 0, 64, 66
1, 2486, Note_off_c, 0, 47, 64
1, 2496, Control_c, 0, 64, 94
1, 2510, Control_c, 0, 64, 127
1, 2815, Note_on_c, 0, 33, 97
1, 2820, Control_c, 0, 64, 88
1, 2835, Control_c, 0, 64, 57
1, 2850, Control_c, 0, 64, 0
1, 2895, Control_c, 0, 64, 58
1, 2909, Control_c, 0, 64, 78
1, 2924, Control_c, 0, 64, 127
1, 2968, Note_off_c, 0, 33, 61
1, 3319, Control_c, 0, 64, 108
1, 3333, Control_c, 0, 64, 91
1, 3348, Control_c, 0, 64, 79
1, 3363, Control_c, 0, 64, 69
1, 3378, Control_c, 0, 64, 59
1, 3393, Control_c, 0, 64, 44
1, 3407, Control_c, 0, 64, 0
1, 3689, Control_c, 0, 64, 29
1, 3690, Note_off_c, 0, 62, 63
1, 3704, Control_c, 0, 64, 49
1, 3709, Note_off_c, 0, 59, 64
1, 3719, Control_c, 0, 64, 62
1, 3733, Control_c, 0, 64, 71
1, 3748, Control_c, 0, 64, 82
1, 3753, Note_on_c, 0, 50, 88
1, 3758, Note_on_c, 0, 47, 85
1, 3763, Control_c, 0, 64, 102
1, 3778, Control_c, 0, 64, 127
1, 3804, Note_off_c, 0, 57, 58
1, 3810, Note_off_c, 0, 50, 61
1, 3814, Note_off_c, 0, 47, 61
1, 3828, Note_off_c, 0, 69, 55
1, 3866, Control_c, 0, 64, 88
1, 3881, Control_c, 0, 64, 53
1, 3896, Control_c, 0, 64, 0
1, 3900, Note_on_c, 0, 64, 74
1, 3903, Note_on_c, 0, 57, 83
1, 3903, Note_on_c, 0, 61, 84
1, 3904, Note_on_c, 0, 69, 79
1, 3907, Note_on_c, 0, 52, 96
1, 3908, Note_on_c, 0, 49, 94
1, 3964, Control_c, 0, 64, 52
1, 3977, Note_off_c, 0, 52, 62
1, 3979, Control_c, 0, 64, 72
1, 3994, Control_c, 0, 64, 127
1, 3995, Note_off_c, 0, 49, 64
1, 4230, Control_c, 0, 64, 84
1, 4245, Control_c, 0, 64, 55
1, 4252, Note_on_c, 0, 33, 86
1, 4260, Control_c, 0, 64, 0
1, 4275, Control_c, 0, 64, 32
1, 4290, Control_c, 0, 64, 55
1, 4303, Note_off_c, 0, 64, 64
1, 4305, Note_off_c, 0, 33, 63
1, 4305, Control_c, 0, 64, 73
1, 4319, Control_c, 0, 64, 121
1, 4333, Note_off_c, 0, 61, 61
1, 4334, Control_c, 0, 64, 127
1, 4368, Note_off_c, 0, 57, 56
1, 4452, Note_off_c, 0, 69, 39
1, 4556, Note_on_c, 0, 66, 77
1, 4556, Control_c, 0, 64, 82
1, 4559, Note_on_c, 0, 62, 67
1, 4563, Note_on_c, 0, 69, 69
1, 4564, Note_on_c, 0, 57, 68
1, 4571, Control_c, 0, 64, 58
1, 4585, Note_on_c, 0, 54, 68
1, 4585, Note_on_c, 0, 50, 64
1, 4586, Control_c, 0, 64, 28
1, 4601, Control_c, 0, 64, 44
1, 4616, Control_c, 0, 64, 63
1, 4630, Control_c, 0, 64, 75
1, 4638, Note_off_c, 0, 54, 59
1, 4645, Control_c, 0, 64, 108
1, 4660, Control_c, 0, 64, 127
1, 4662, Note_off_c, 0, 50, 59
1, 4700, Note_off_c, 0, 62, 63
1, 4729, Note_on_c, 0, 45, 81
1, 4771, Note_off_c, 0, 57, 55
1, 4790, Note_off_c, 0, 69, 59
1, 4798, Note_off_c, 0, 45, 61
1, 4847, Control_c, 0, 64, 78
1, 4861, Control_c, 0, 64, 48
1, 4861, Control_c, 0, 67, 36
1, 4868, Note_on_c, 0, 67, 83
1, 4871, Note_on_c, 0, 55, 83
1, 4872, Note_on_c, 0, 69, 86
1, 4874, Note_on_c, 0, 57, 84
1, 4876, Control_c, 0, 64, 0
1, 4876, Control_c, 0, 67, 43
1, 4879, Note_on_c, 0, 52, 80
1, 4879, Note_on_c, 0, 64, 82
1, 4891, Control_c, 0, 67, 57
1, 4905, Control_c, 0, 64, 50
1, 4905, Control_c, 0, 67, 60
1, 4920, Control_c, 0, 64, 68
1, 4920, Control_c, 0, 67, 58
1, 4928, Note_off_c, 0, 66, 61
1, 4935, Control_c, 0, 64, 95
1, 4935, Control_c, 0, 67, 56
1, 4950, Control_c, 0, 64, 127
1, 4950, Control_c, 0, 67, 55
1, 4965, Control_c, 0, 67, 53
1, 4974, Note_off_c, 0, 55, 57
1, 4979, Control_c, 0, 67, 51
1, 4988, Note_off_c, 0, 57, 61
1, 4994, Control_c, 0, 67, 48
1, 5001, Note_on_c, 0, 45, 81
1, 5001, Note_off_c, 0, 52, 60
1, 5009, Control_c, 0, 67, 42
1, 5024, Control_c, 0, 67, 39
1, 5032, Note_off_c, 0, 64, 59
1, 5039, Control_c, 0, 67, 37
1, 5053, Control_c, 0, 67, 36
1, 5068, Control_c, 0, 67, 35
1, 5071, Note_off_c, 0, 45, 59
1, 5083, Note_off_c, 0, 67, 59
1, 5083, Control_c, 0, 67, 0
1, 5105, Note_off_c, 0, 69, 38
1, 5204, Note_on_c, 0, 69, 74
1, 5205, Note_on_c, 0, 66, 72
1, 5207, Note_on_c, 0, 57, 68
1, 5211, Note_on_c, 0, 62, 64
1, 5215, Note_on_c, 0, 54, 67
1, 5216, Note_on_c, 0, 50, 67
1, 5217, Control_c, 0, 64, 90
1, 5231, Control_c, 0, 64, 63
1, 5246, Control_c, 0, 64, 0
1, 5305, Control_c, 0, 64, 41
1, 5320, Control_c, 0, 64, 64
1, 5335, Control_c, 0, 64, 76
1, 5350, Control_c, 0, 64, 93
1, 5354, Note_off_c, 0, 69, 56
1, 5365, Control_c, 0, 64, 111
1, 5372, Note_off_c, 0, 50, 62
1, 5373, Note_off_c, 0, 54, 60
1, 5374, Note_off_c, 0, 62, 60
1, 5379, Control_c, 0, 64, 127
1, 5394, Note_off_c, 0, 57, 57
1, 5481, Note_off_c, 0, 66, 60
1, 5589, Note_on_c, 0, 69, 56
1, 5592, Note_on_c, 0, 57, 52
1, 5595, Control_c, 0, 64, 90
1, 5595, Note_on_c, 0, 64, 53
1, 5599, Note_on_c, 0, 52, 54
1, 5601, Note_on_c, 0, 61, 56
1, 5602, Note_on_c, 0, 49, 58
1, 5610, Control_c, 0, 64, 66
1, 5625, Control_c, 0, 64, 0
1, 5669, Control_c, 0, 64, 32
1, 5684, Control_c, 0, 64, 58
1, 5697, Note_off_c, 0, 52, 63
1, 5699, Control_c, 0, 64, 73
1, 5713, Note_off_c, 0, 57, 57
1, 5714, Control_c, 0, 64, 105
1, 5726, Note_off_c, 0, 64, 64
1, 5728, Control_c, 0, 64, 127
1, 5731, Note_off_c, 0, 49, 63
1, 5752, Note_off_c, 0, 61, 63
1, 5768, Note_off_c, 0, 69, 61
1, 5956, Note_on_c, 0, 57, 63
1, 5956, Note_on_c, 0, 69, 64
1, 5959, Note_on_c, 0, 49, 68
1, 5965, Control_c, 0, 64, 88
1, 5968, Note_on_c, 0, 61, 58
1, 5969, Note_on_c, 0, 45, 57
1, 5980, Control_c, 0, 64, 71
1, 5995, Control_c, 0, 64, 60
1, 6010, Control_c, 0, 64, 52
1, 6012, Note_off_c, 0, 57, 60
1, 6015, Note_off_c, 0, 45, 60
1, 6025, Control_c, 0, 64, 44
1, 6027, Note_off_c, 0, 49, 62
1, 6031, Note_off_c, 0, 61, 59
1, 6039, Control_c, 0, 64, 30
1, 6042, Note_off_c, 0, 69, 57
1, 6054, Control_c, 0, 64, 0
1, 6105, Note_on_c, 0, 69, 62
1, 6110, Note_on_c, 0, 50, 69
1, 6112, Note_on_c, 0, 62, 62
1, 6113, Note_on_c, 0, 59, 69
1, 6117, Note_on_c, 0, 47, 69
1, 6178, Note_off_c, 0, 50, 63
1, 6182, Note_off_c, 0, 59, 64
1, 6190, Note_off_c, 0, 47, 62
1, 6191, Note_off_c, 0, 62, 63
1, 6211, Note_off_c, 0, 69, 61
1, 6269, Note_on_c, 0, 69, 73
1, 6273, Note_on_c, 0, 49, 82
1, 6275, Note_on_c, 0, 45, 72
1, 6275, Note_on_c, 0, 57, 80
1, 6279, Note_on_c, 0, 61, 72
1, 6328, Note_off_c, 0, 57, 63
1, 6334, Note_off_c, 0, 49, 64
1, 6346, Note_off_c, 0, 61, 62
1, 6347, Note_off_c, 0, 45, 62
1, 6355, Note_off_c, 0, 69, 62
1, 6427, Note_on_c, 0, 50, 86
1, 6428, Note_on_c, 0, 47, 81
1, 6431, Note_on_c, 0, 59, 88
1, 6431, Note_on_c, 0, 62, 76
1, 6433, Note_on_c, 0, 69, 81
1, 6501, Note_off_c, 0, 62, 63
1, 6524, Note_off_c, 0, 59, 62
1, 6528, Note_off_c, 0, 47, 61
1, 6531, Note_off_c, 0, 50, 60
1, 6561, Note_off_c, 0, 69, 58
1, 6635, Note_on_c, 0, 69, 73
1, 6638, Note_on_c, 0, 64, 81
1, 6639, Note_on_c, 0, 61, 83
1, 6643, Note_on_c, 0, 49, 85
1, 6643, Note_on_c, 0, 57, 78
1, 6644, Note_on_c, 0, 52, 85
1, 6758, Control_c, 0, 64, 44
1, 6773, Control_c, 0, 64, 62
1, 6788, Control_c, 0, 64, 70
1, 6803, Control_c, 0, 64, 84
1, 6818, Control_c, 0, 64, 126
1, 6877, Note_off_c, 0, 52, 56
1, 7010, Note_off_c, 0, 49, 55
1, 7074, Note_off_c, 0, 61, 61
1, 7076, Note_off_c, 0, 57, 58
1, 7085, Note_off_c, 0, 64, 60
1, 7124, Note_off_c, 0, 69, 54
1, 7400, Note_on_c, 0, 66, 86
1, 7405, Note_on_c, 0, 69, 83
1, 7407, Note_on_c, 0, 62, 76
1, 7408, Note_on_c, 0, 57, 75
1, 7410, Note_on_c, 0, 50, 79
1, 7411, Note_on_c, 0, 54, 81
1, 7447, Control_c, 0, 64, 106
1, 7462, Control_c, 0, 64, 81
1, 7477, Control_c, 0, 64, 64
1, 7491, Control_c, 0, 64, 44
1, 7506, Control_c, 0, 64, 0
1, 7610, Control_c, 0, 64, 54
1, 7625, Control_c, 0, 64, 66
1, 7640, Control_c, 0, 64, 78
1, 7655, Control_c, 0, 64, 102
1, 7677, Control_c, 0, 64, 127
1, 7813, Note_off_c, 0, 62, 36
1, 7820, Note_off_c, 0, 50, 59
1, 7828, Note_off_c, 0, 54, 55
1, 7835, Note_off_c, 0, 57, 55
1, 7885, Note_off_c, 0, 69, 37
1, 7983, Note_off_c, 0, 66, 57
1, 8314, Note_on_c, 0, 69, 61
1, 8320, Note_on_c, 0, 64, 53
1, 8322, Note_on_c, 0, 57, 54
1, 8331, Note_on_c, 0, 62, 53
1, 8343, Note_on_c, 0, 47, 52
1, 8350, Note_on_c, 0, 40, 56
1, 8350, Note_on_c, 0, 50, 54
1, 8350, Note_on_c, 0, 52, 56
1, 8403, Control_c, 0, 64, 105
1, 8426, Control_c, 0, 64, 89
1, 8441, Control_c, 0, 64, 74
1, 8455, Control_c, 0, 64, 58
1, 8470, Control_c, 0, 64, 0
1, 8528, Control_c, 0, 64, 31
1, 8543, Control_c, 0, 64, 52
1, 8554, Note_off_c, 0, 64, 62
1, 8558, Control_c, 0, 64, 65
1, 8558, Control_c, 0, 67, 35
1, 8573, Control_c, 0, 64, 76
1, 8573, Control_c, 0, 67, 39
1, 8588, Note_off_c, 0, 57, 62
1, 8588, Control_c, 0, 64, 92
1, 8588, Control_c, 0, 67, 48
1, 8603, Control_c, 0, 64, 104
1, 8603, Control_c, 0, 67, 58
1, 8618, Control_c, 0, 64, 118
1, 8618, Control_c, 0, 67, 68
1, 8633, Control_c, 0, 64, 127
1, 8633, Control_c, 0, 67, 75
1, 8647, Control_c, 0, 67, 79
1, 8662, Control_c, 0, 67, 82
1, 8677, Control_c, 0, 67, 84
1, 8692, Control_c, 0, 67, 89
1, 8707, Control_c, 0, 67, 96
1, 8722, Control_c, 0, 67, 104
1, 8737, Control_c, 0, 67, 116
1, 8752, Control_c, 0, 67, 127
1, 8762, Note_on_c, 0, 68, 64
1, 8767, Control_c, 0, 64, 77
1, 8773, Note_on_c, 0, 56, 55
1, 8782, Control_c, 0, 64, 59
1, 8797, Control_c, 0, 64, 59
1, 8812, Control_c, 0, 64, 69
1, 8826, Control_c, 0, 64, 86
1, 8841, Control_c, 0, 64, 127
1, 8885, Control_c, 0, 64, 85
1, 8895, Note_off_c, 0, 56, 61
1, 8900, Control_c, 0, 64, 66
1, 8915, Control_c, 0, 64, 62
1, 8930, Control_c, 0, 64, 69
1, 8944, Control_c, 0, 64, 80
1, 8959, Control_c, 0, 64, 101
1, 8974, Control_c, 0, 64, 127
1, 8991, Note_on_c, 0, 66, 63
1, 8993, Note_off_c, 0, 69, 43
1, 9015, Note_on_c, 0, 54, 60
1, 9020, Note_off_c, 0, 68, 55
1, 9093, Note_off_c, 0, 54, 58
1, 9141, Note_off_c, 0, 66, 62
1, 9322, Control_c, 0, 64, 115
1, 9337, Control_c, 0, 64, 106
1, 9351, Control_c, 0, 64, 100
1, 9366, Control_c, 0, 64, 95
1, 9367, Note_on_c, 0, 56, 41
1, 9375, Note_on_c, 0, 68, 41
1, 9381, Control_c, 0, 64, 90
1, 9396, Control_c, 0, 64, 86
1, 9411, Control_c, 0, 64, 81
1, 9426, Control_c, 0, 64, 75
1, 9441, Control_c, 0, 64, 69
1, 9456, Control_c, 0, 64, 65
1, 9470, Control_c, 0, 64, 61
1, 9485, Control_c, 0, 64, 57
1, 9500, Control_c, 0, 64, 50
1, 9515, Control_c, 0, 64, 42
1, 9530, Control_c, 0, 64, 28
1, 9545, Control_c, 0, 64, 0
1, 9998, Control_c, 0, 64, 35
1, 10013, Control_c, 0, 64, 44
1, 10027, Control_c, 0, 64, 50
1, 10042, Control_c, 0, 64, 54
1, 10057, Control_c, 0, 64, 58
1, 10072, Control_c, 0, 64, 61
1, 10087, Control_c, 0, 64, 64
1, 10101, Control_c, 0, 64, 67
1, 10111, Note_off_c, 0, 56, 41
1, 10116, Control_c, 0, 64, 71
1, 10131, Control_c, 0, 64, 76
1, 10146, Control_c, 0, 64, 84
1, 10161, Control_c, 0, 64, 93
1, 10175, Control_c, 0, 64, 101
1, 10180, Note_off_c, 0, 62, 58
1, 10190, Control_c, 0, 64, 114
1, 10205, Control_c, 0, 64, 127
1, 10207, Note_off_c, 0, 68, 60
1, 10252, Note_off_c, 0, 52, 55
1, 10254, Note_off_c, 0, 40, 36
1, 10255, Note_off_c, 0, 47, 36
1, 10265, Note_off_c, 0, 50, 43
1, 10687, Control_c, 0, 64, 117
1, 10702, Control_c, 0, 64, 108
1, 10716, Control_c, 0, 64, 102
1, 10731, Control_c, 0, 64, 95
1, 10746, Control_c, 0, 64, 91
1, 10761, Control_c, 0, 64, 86
1, 10776, Control_c, 0, 64, 82
1, 10791, Control_c, 0, 64, 78
1, 10806, Control_c, 0, 64, 75
1, 10821, Control_c, 0, 64, 71
1, 10836, Control_c, 0, 64, 66
1, 10850, Control_c, 0, 64, 62
1, 10865, Control_c, 0, 64, 59
1, 10880, Control_c, 0, 64, 57
1, 10895, Control_c, 0, 64, 54
1, 10910, Control_c, 0, 64, 48
1, 10913, Note_on_c, 0, 86, 56
1, 10924, Control_c, 0, 64, 39
1, 10939, Control_c, 0, 64, 0
1, 10998, Note_off_c, 0, 86, 55
1, 11006, Note_on_c, 0, 83, 59
1, 11093, Note_on_c, 0, 80, 52
1, 11101, Note_off_c, 0, 83, 53
1, 11201, Note_on_c, 0, 74, 59
1, 11216, Note_off_c, 0, 80, 62
1, 11232, Note_off_c, 0, 74, 67
1, 11290, Note_on_c, 0, 71, 55
1, 11384, Note_on_c, 0, 68, 64
1, 11390, Note_off_c, 0, 71, 51
1, 11477, Note_off_c, 0, 68, 63
1, 11487, Note_on_c, 0, 62, 57
1, 11554, Note_off_c, 0, 62, 61
1, 11587, Note_on_c, 0, 59, 52
1, 11667, Note_off_c, 0, 59, 59
1, 11677, Note_on_c, 0, 56, 53
1, 11786, Note_on_c, 0, 50, 49
1, 11800, Note_off_c, 0, 56, 53
1, 11843, Note_off_c, 0, 50, 60
1, 11876, Note_on_c, 0, 47, 49
1, 11960, Note_off_c, 0, 47, 59
1, 11980, Note_on_c, 0, 44, 53
1, 12091, Note_off_c, 0, 44, 57
1, 12106, Note_on_c, 0, 40, 46
1, 12201, Note_off_c, 0, 40, 63
1, 12259, Control_c, 0, 67, 60
1, 12274, Control_c, 0, 67, 0
1, 12439, Note_on_c, 0, 74, 58
1, 12440, Note_on_c, 0, 52, 40
1, 12442, Note_on_c, 0, 56, 44
1, 12458, Note_on_c, 0, 68, 43
1, 12462, Note_on_c, 0, 62, 43
1, 12495, Note_off_c, 0, 68, 64
1, 12496, Note_off_c, 0, 62, 63
1, 12498, Note_off_c, 0, 52, 63
1, 12502, Note_off_c, 0, 74, 60
1, 12503, Note_off_c, 0, 56, 63
1, 12900, Note_on_c, 0, 74, 47
1, 12912, Note_on_c, 0, 69, 32
1, 12919, Note_on_c, 0, 62, 18
1, 12923, Note_on_c, 0, 57, 35
1, 12928, Note_on_c, 0, 53, 23
1, 13097, Control_c, 0, 64, 36
1, 13111, Control_c, 0, 64, 45
1, 13126, Control_c, 0, 64, 52
1, 13141, Control_c, 0, 64, 57
1, 13156, Control_c, 0, 64, 60
1, 13170, Control_c, 0, 64, 63
1, 13185, Control_c, 0, 64, 65
1, 13200, Control_c, 0, 64, 68
1, 13215, Control_c, 0, 64, 72
1, 13230, Control_c, 0, 64, 77
1, 13244, Control_c, 0, 64, 83
1, 13259, Control_c, 0, 64, 90
1, 13274, Control_c, 0, 64, 96
1, 13289, Control_c, 0, 64, 103
1, 13304, Control_c, 0, 64, 115
1, 13306, Note_off_c, 0, 53, 40
1, 13307, Note_off_c, 0, 62, 40
1, 13319, Control_c, 0, 64, 127
1, 13320, Note_off_c, 0, 69, 40
1, 13335, Note_off_c, 0, 57, 42
1, 13379, Note_off_c, 0, 74, 61
1, 13712, Control_c, 0, 67, 46
1, 13727, Control_c, 0, 64, 121
1, 13727, Control_c, 0, 67, 59
1, 13742, Control_c, 0, 64, 111
1, 13742, Control_c, 0, 67, 72
1, 13757, Control_c, 0, 64, 105
1, 13757, Control_c, 0, 67, 86
1, 13768, Note_on_c, 0, 86, 53
1, 13772, Control_c, 0, 64, 100
1, 13772, Control_c, 0, 67, 102
1, 13786, Control_c, 0, 64, 94
1, 13786, Control_c, 0, 67, 114
1, 13801, Control_c, 0, 64, 90
1, 13801, Control_c, 0, 67, 127
1, 13816, Control_c, 0, 64, 85
1, 13831, Control_c, 0, 64, 81
1, 13846, Control_c, 0, 64, 77
1, 13858, Note_on_c, 0, 81, 57
1, 13860, Control_c, 0, 64, 72
1, 13861, Note_off_c, 0, 86, 58
1, 13875, Control_c, 0, 64, 68
1, 13890, Control_c, 0, 64, 63
1, 13905, Control_c, 0, 64, 59
1, 13920, Control_c, 0, 64, 55
1, 13934, Control_c, 0, 64, 50
1, 13941, Note_off_c, 0, 81, 62
1, 13946, Note_on_c, 0, 77, 64
1, 13949, Control_c, 0, 64, 43
1, 13964, Control_c, 0, 64, 31
1, 13979, Control_c, 0, 64, 0
1, 14039, Note_on_c, 0, 74, 69
1, 14064, Note_off_c, 0, 77, 62
1, 14087, Note_off_c, 0, 74, 60
1, 14123, Note_on_c, 0, 69, 62
1, 14189, Note_off_c, 0, 69, 62
1, 14220, Note_on_c, 0, 65, 63
1, 14305, Note_on_c, 0, 62, 71
1, 14305, Note_off_c, 0, 65, 60
1, 14392, Note_off_c, 0, 62, 65
1, 14415, Note_on_c, 0, 57, 66
1, 14492, Note_off_c, 0, 57, 63
1, 14502, Note_on_c, 0, 53, 67
1, 14595, Note_on_c, 0, 50, 71
1, 14604, Note_off_c, 0, 53, 58
1, 14655, Note_off_c, 0, 50, 62
1, 14685, Note_on_c, 0, 45, 63
1, 14758, Note_off_c, 0, 45, 62
1, 14783, Note_on_c, 0, 40, 55
1, 14912, Note_off_c, 0, 40, 59
1, 14917, Note_on_c, 0, 41, 55
1, 14994, Control_c, 0, 67, 110
1, 15009, Control_c, 0, 67, 72
1, 15012, Note_off_c, 0, 41, 64
1, 15024, Control_c, 0, 67, 33
1, 15039, Control_c, 0, 67, 0
1, 15250, Note_on_c, 0, 74, 66
1, 15252, Note_on_c, 0, 69, 57
1, 15255, Note_on_c, 0, 62, 54
1, 15259, Note_on_c, 0, 57, 51
1, 15271, Note_on_c, 0, 53, 36
1, 15313, Note_off_c, 0, 57, 64
1, 15313, Note_off_c, 0, 53, 53
1, 15315, Note_off_c, 0, 62, 59
1, 15316, Note_off_c, 0, 69, 62
1, 15329, Note_off_c, 0, 74, 61
1, 15679, Note_on_c, 0, 74, 58
1, 15684, Note_on_c, 0, 72, 52
1, 15698, Note_on_c, 0, 62, 32
1, 15699, Note_on_c, 0, 57, 46
1, 15716, Note_on_c, 0, 54, 57
1, 15802, Control_c, 0, 64, 28
1, 15817, Control_c, 0, 64, 38
1, 15832, Control_c, 0, 64, 50
1, 15847, Control_c, 0, 64, 56
1, 15862, Control_c, 0, 64, 59
1, 15877, Control_c, 0, 64, 61
1, 15892, Control_c, 0, 64, 64
1, 15915, Control_c, 0, 64, 68
1, 15930, Control_c, 0, 64, 74
1, 15944, Control_c, 0, 64, 79
1, 15959, Control_c, 0, 64, 85
1, 15974, Control_c, 0, 64, 91
1, 15989, Control_c, 0, 64, 100
1, 16004, Control_c, 0, 64, 115
1, 16016, Note_off_c, 0, 62, 39
1, 16019, Control_c, 0, 64, 127
1, 16053, Note_off_c, 0, 72, 61
1, 16082, Note_off_c, 0, 74, 62
1, 16151, Note_off_c, 0, 57, 47
1, 16282, Note_off_c, 0, 54, 52
1, 16414, Note_on_c, 0, 86, 70
1, 16449, Control_c, 0, 64, 121
1, 16463, Control_c, 0, 64, 107
1, 16478, Control_c, 0, 64, 98
1, 16493, Control_c, 0, 64, 90
1, 16508, Control_c, 0, 64, 83
1, 16514, Note_on_c, 0, 83, 75
1, 16523, Note_off_c, 0, 86, 58
1, 16523, Control_c, 0, 64, 77
1, 16537, Control_c, 0, 64, 70
1, 16552, Control_c, 0, 64, 64
1, 16567, Control_c, 0, 64, 57
1, 16581, Control_c, 0, 64, 47
1, 16592, Note_on_c, 0, 79, 70
1, 16596, Control_c, 0, 64, 0
1, 16601, Note_off_c, 0, 83, 63
1, 16652, Note_off_c, 0, 79, 65
1, 16687, Note_on_c, 0, 74, 77
1, 16691, Note_on_c, 0, 43, 69
1, 16708, Control_c, 0, 64, 37
1, 16723, Control_c, 0, 64, 56
1, 16730, Note_off_c, 0, 74, 62
1, 16738, Control_c, 0, 64, 66
1, 16753, Control_c, 0, 64, 76
1, 16767, Control_c, 0, 64, 87
1, 16782, Control_c, 0, 64, 100
1, 16783, Note_on_c, 0, 71, 76
1, 16797, Control_c, 0, 64, 127
1, 16855, Note_off_c, 0, 43, 58
1, 16869, Note_on_c, 0, 67, 76
1, 16871, Note_off_c, 0, 71, 61
1, 17063, Control_c, 0, 64, 123
1, 17064, Note_on_c, 0, 62, 72
1, 17071, Note_on_c, 0, 53, 53
1, 17077, Note_off_c, 0, 67, 57
1, 17078, Note_on_c, 0, 50, 54
1, 17078, Control_c, 0, 64, 104
1, 17079, Note_on_c, 0, 44, 57
1, 17093, Control_c, 0, 64, 93
1, 17108, Control_c, 0, 64, 84
1, 17122, Control_c, 0, 64, 76
1, 17137, Control_c, 0, 64, 67
1, 17152, Control_c, 0, 64, 52
1, 17167, Control_c, 0, 64, 27
1, 17182, Control_c, 0, 64, 0
1, 17271, Control_c, 0, 64, 31
1, 17285, Control_c, 0, 64, 49
1, 17300, Control_c, 0, 64, 60
1, 17315, Control_c, 0, 64, 64
1, 17330, Control_c, 0, 64, 66
1, 17345, Control_c, 0, 64, 70
1, 17359, Control_c, 0, 64, 75
1, 17374, Control_c, 0, 64, 80
1, 17389, Control_c, 0, 64, 85
1, 17411, Control_c, 0, 64, 90
1, 17419, Note_on_c, 0, 74, 69
1, 17426, Control_c, 0, 64, 95
1, 17435, Note_off_c, 0, 62, 59
1, 17441, Control_c, 0, 64, 101
1, 17456, Control_c, 0, 64, 112
1, 17471, Control_c, 0, 64, 127
1, 17480, Note_off_c, 0, 74, 63
1, 17577, Note_off_c, 0, 53, 55
1, 17605, Note_off_c, 0, 44, 62
1, 17662, Note_off_c, 0, 50, 42
1, 17718, Note_on_c, 0, 86, 76
1, 17752, Control_c, 0, 64, 123
1, 17767, Control_c, 0, 64, 108
1, 17782, Control_c, 0, 64, 101
1, 17797, Control_c, 0, 64, 95
1, 17807, Note_on_c, 0, 81, 82
1, 17812, Control_c, 0, 64, 89
1, 17817, Note_off_c, 0, 86, 63
1, 17827, Control_c, 0, 64, 81
1, 17841, Control_c, 0, 64, 73
1, 17856, Control_c, 0, 64, 64
1, 17871, Control_c, 0, 64, 49
1, 17886, Control_c, 0, 64, 0
1, 17894, Note_on_c, 0, 77, 83
1, 17903, Note_off_c, 0, 81, 65
1, 17967, Note_off_c, 0, 77, 63
1, 17989, Note_on_c, 0, 74, 83
1, 18008, Note_on_c, 0, 53, 79
1, 18011, Note_on_c, 0, 50, 71
1, 18013, Note_on_c, 0, 45, 74
1, 18034, Control_c, 0, 64, 30
1, 18041, Note_off_c, 0, 74, 66
1, 18049, Control_c, 0, 64, 64
1, 18064, Control_c, 0, 64, 84
1, 18079, Control_c, 0, 64, 127
1, 18096, Note_on_c, 0, 69, 82
1, 18135, Note_off_c, 0, 53, 49
1, 18136, Note_off_c, 0, 50, 58
1, 18185, Note_on_c, 0, 65, 80
1, 18189, Note_off_c, 0, 69, 61
1, 18205, Note_off_c, 0, 45, 53
1, 18267, Note_off_c, 0, 65, 60
1, 18279, Control_c, 0, 64, 103
1, 18294, Control_c, 0, 64, 66
1, 18302, Note_on_c, 0, 62, 79
1, 18306, Note_on_c, 0, 53, 83
1, 18308, Note_on_c, 0, 46, 80
1, 18308, Note_on_c, 0, 50, 77
1, 18309, Control_c, 0, 64, 0
1, 18354, Control_c, 0, 64, 48
1, 18368, Control_c, 0, 64, 65
1, 18378, Note_off_c, 0, 62, 62
1, 18383, Control_c, 0, 64, 84
1, 18398, Control_c, 0, 64, 127
1, 18408, Note_on_c, 0, 74, 85
1, 18423, Note_off_c, 0, 50, 60
1, 18454, Note_off_c, 0, 53, 55
1, 18458, Note_off_c, 0, 46, 58
1, 18486, Note_off_c, 0, 74, 66
1, 18488, Note_on_c, 0, 73, 82
1, 18581, Note_off_c, 0, 73, 64
1, 18590, Control_c, 0, 64, 73
1, 18591, Note_on_c, 0, 74, 90
1, 18595, Note_on_c, 0, 53, 89
1, 18599, Note_on_c, 0, 47, 86
1, 18599, Note_on_c, 0, 50, 78
1, 18605, Control_c, 0, 64, 38
1, 18620, Control_c, 0, 64, 0
1, 18655, Note_off_c, 0, 74, 62
1, 18664, Control_c, 0, 64, 51
1, 18679, Control_c, 0, 64, 71
1, 18694, Note_on_c, 0, 86, 81
1, 18694, Control_c, 0, 64, 103
1, 18695, Note_off_c, 0, 53, 62
1, 18697, Note_off_c, 0, 50, 63
1, 18709, Control_c, 0, 64, 127
1, 18719, Note_off_c, 0, 47, 62
1, 18789, Note_on_c, 0, 85, 89
1, 18805, Note_off_c, 0, 86, 65
1, 18983, Note_on_c, 0, 86, 84
1, 18984, Note_on_c, 0, 56, 87
1, 18987, Note_off_c, 0, 85, 63
1, 18988, Note_on_c, 0, 52, 80
1, 18991, Note_on_c, 0, 50, 72
1, 18992, Note_on_c, 0, 47, 75
1, 19042, Control_c, 0, 64, 95
1, 19057, Control_c, 0, 64, 81
1, 19072, Control_c, 0, 64, 72
1, 19087, Control_c, 0, 64, 65
1, 19102, Control_c, 0, 64, 60
1, 19108, Note_on_c, 0, 85, 82
1, 19117, Control_c, 0, 64, 58
1, 19120, Note_off_c, 0, 86, 60
1, 19132, Control_c, 0, 64, 55
1, 19147, Control_c, 0, 64, 54
1, 19161, Control_c, 0, 64, 52
1, 19176, Control_c, 0, 64, 52
1, 19208, Note_on_c, 0, 88, 83
1, 19209, Note_off_c, 0, 85, 64
1, 19303, Note_on_c, 0, 86, 83
1, 19318, Note_off_c, 0, 88, 64
1, 19369, Control_c, 0, 64, 52
1, 19397, Note_on_c, 0, 85, 81
1, 19443, Note_off_c, 0, 86, 62
1, 19486, Note_on_c, 0, 83, 80
1, 19510, Note_off_c, 0, 85, 64
1, 19576, Control_c, 0, 64, 53
1, 19582, Note_off_c, 0, 83, 64
1, 19586, Note_on_c, 0, 81, 82
1, 19690, Note_on_c, 0, 80, 84
1, 19704, Note_off_c, 0, 81, 59
1, 19784, Note_on_c, 0, 83, 81
1, 19790, Note_off_c, 0, 80, 61
1, 19877, Note_on_c, 0, 81, 78
1, 19892, Note_off_c, 0, 83, 62
1, 19973, Note_on_c, 0, 80, 75
1, 20016, Note_off_c, 0, 81, 60
1, 20062, Note_on_c, 0, 78, 72
1, 20104, Note_off_c, 0, 80, 60
1, 20145, Note_off_c, 0, 78, 62
1, 20165, Note_on_c, 0, 76, 79
1, 20252, Note_on_c, 0, 75, 80
1, 20273, Note_off_c, 0, 76, 55
1, 20345, Note_on_c, 0, 78, 75
1, 20354, Control_c, 0, 64, 53
1, 20365, Note_off_c, 0, 75, 59
1, 20369, Control_c, 0, 64, 54
1, 20384, Control_c, 0, 64, 54
1, 20444, Note_off_c, 0, 47, 63
1, 20449, Note_on_c, 0, 76, 75
1, 20452, Note_off_c, 0, 56, 63
1, 20455, Note_off_c, 0, 52, 63
1, 20456, Note_off_c, 0, 50, 62
1, 20491, Note_off_c, 0, 78, 59
1, 20519, Note_off_c, 0, 76, 66
1, 20542, Note_on_c, 0, 74, 80
1, 20606, Note_off_c, 0, 74, 50
1, 20613, Control_c, 0, 64, 54
1, 20625, Note_on_c, 0, 73, 69
1, 20688, Control_c, 0, 64, 53
1, 20738, Note_on_c, 0, 71, 71
1, 20741, Note_off_c, 0, 73, 62
1, 20752, Note_on_c, 0, 59, 63
1, 20838, Note_on_c, 0, 70, 78
1, 20840, Note_off_c, 0, 71, 59
1, 20842, Note_on_c, 0, 58, 74
1, 20852, Note_off_c, 0, 59, 58
1, 20929, Note_on_c, 0, 62, 74
1, 20929, Note_on_c, 0, 74, 81
1, 20938, Note_off_c, 0, 70, 62
1, 20962, Note_off_c, 0, 58, 57
1, 21013, Note_on_c, 0, 61, 78
1, 21021, Note_on_c, 0, 73, 76
1, 21024, Note_off_c, 0, 62, 59
1, 21034, Note_off_c, 0, 74, 55
1, 21058, Control_c, 0, 64, 53
1, 21111, Note_on_c, 0, 71, 79
1, 21111, Note_on_c, 0, 59, 78
1, 21137, Note_off_c, 0, 61, 61
1, 21155, Note_off_c, 0, 73, 61
1, 21193, Note_off_c, 0, 71, 63
1, 21197, Note_off_c, 0, 59, 65
1, 21200, Note_on_c, 0, 57, 69
1, 21216, Note_on_c, 0, 69, 75
1, 21273, Control_c, 0, 64, 52
1, 21300, Note_off_c, 0, 69, 54
1, 21302, Note_on_c, 0, 56, 71
1, 21302, Note_off_c, 0, 57, 62
1, 21305, Note_on_c, 0, 68, 71
1, 21376, Control_c, 0, 64, 52
1, 21397, Note_off_c, 0, 56, 62
1, 21397, Note_off_c, 0, 68, 52
1, 21399, Note_on_c, 0, 57, 70
1, 21402, Note_on_c, 0, 69, 78
1, 21451, Control_c, 0, 64, 51
1, 21466, Control_c, 0, 64, 51
1, 21481, Note_off_c, 0, 69, 63
1, 21481, Control_c, 0, 64, 50
1, 21481, Control_c, 0, 67, 38
1, 21483, Note_off_c, 0, 57, 61
1, 21492, Note_on_c, 0, 71, 73
1, 21495, Note_on_c, 0, 59, 69
1, 21496, Control_c, 0, 64, 48
1, 21496, Control_c, 0, 67, 50
1, 21511, Control_c, 0, 64, 45
1, 21511, Control_c, 0, 67, 63
1, 21526, Control_c, 0, 64, 39
1, 21526, Control_c, 0, 67, 72
1, 21541, Control_c, 0, 64, 0
1, 21541, Control_c, 0, 67, 78
1, 21555, Control_c, 0, 67, 83
1, 21570, Control_c, 0, 67, 88
1, 21576, Note_off_c, 0, 71, 61
1, 21579, Note_off_c, 0, 59, 64
1, 21582, Note_on_c, 0, 69, 72
1, 21585, Control_c, 0, 67, 95
1, 21594, Note_on_c, 0, 57, 65
1, 21600, Control_c, 0, 67, 104
1, 21615, Control_c, 0, 67, 113
1, 21630, Control_c, 0, 67, 119
1, 21644, Control_c, 0, 67, 127
1, 21667, Note_on_c, 0, 68, 69
1, 21676, Note_off_c, 0, 57, 63
1, 21680, Note_on_c, 0, 56, 67
1, 21684, Note_off_c, 0, 69, 56
1, 21763, Note_on_c, 0, 66, 71
1, 21768, Note_on_c, 0, 54, 60
1, 21776, Note_off_c, 0, 56, 62
1, 21787, Note_off_c, 0, 68, 61
1, 21853, Note_off_c, 0, 66, 62
1, 21862, Note_on_c, 0, 64, 68
1, 21863, Note_on_c, 0, 52, 70
1, 21863, Note_off_c, 0, 54, 62
1, 21931, Note_off_c, 0, 64, 61
1, 21965, Note_on_c, 0, 66, 69
1, 21971, Note_off_c, 0, 52, 63
1, 21972, Note_on_c, 0, 54, 68
1, 22041, Note_off_c, 0, 54, 64
1, 22046, Note_on_c, 0, 64, 70
1, 22047, Note_off_c, 0, 66, 62
1, 22063, Note_on_c, 0, 52, 71
1, 22121, Note_off_c, 0, 64, 63
1, 22136, Note_off_c, 0, 52, 60
1, 22147, Note_on_c, 0, 62, 69
1, 22160, Note_on_c, 0, 50, 67
1, 22202, Note_off_c, 0, 62, 57
1, 22235, Note_on_c, 0, 61, 63
1, 22238, Note_off_c, 0, 50, 63
1, 22251, Note_on_c, 0, 49, 62
1, 22307, Note_off_c, 0, 49, 62
1, 22319, Note_off_c, 0, 61, 61
1, 22337, Note_on_c, 0, 59, 61
1, 22342, Note_on_c, 0, 47, 51
1, 22504, Note_off_c, 0, 47, 54
1, 22527, Note_off_c, 0, 59, 56
1, 22536, Note_on_c, 0, 45, 47
1, 22536, Note_on_c, 0, 57, 55
1, 22537, Note_on_c, 0, 49, 47
1, 22683, Note_off_c, 0, 57, 63
1, 22926, Note_on_c, 0, 69, 59
1, 22987, Note_off_c, 0, 69, 62
1, 23237, Note_on_c, 0, 76, 66
1, 23254, Note_on_c, 0, 64, 50
1, 23279, Note_off_c, 0, 45, 58
1, 23279, Note_off_c, 0, 49, 62
1, 23558, Note_on_c, 0, 57, 54
1, 23569, Note_on_c, 0, 49, 48
1, 23572, Note_on_c, 0, 45, 47
1, 23633, Note_off_c, 0, 49, 58
1, 23641, Note_off_c, 0, 57, 59
1, 23655, Note_off_c, 0, 45, 57
1, 23892, Note_on_c, 0, 47, 54
1, 23894, Note_on_c, 0, 57, 47
1, 23898, Note_on_c, 0, 50, 52
1, 23960, Note_off_c, 0, 64, 38
1, 24205, Note_on_c, 0, 78, 59
1, 24214, Note_on_c, 0, 66, 55
1, 24261, Note_off_c, 0, 76, 51
1, 24291, Note_off_c, 0, 78, 60
1, 24300, Note_off_c, 0, 66, 62
1, 24525, Note_on_c, 0, 74, 62
1, 24538, Note_on_c, 0, 62, 52
1, 24565, Control_c, 0, 67, 120
1, 24580, Control_c, 0, 67, 92
1, 24588, Note_off_c, 0, 50, 60
1, 24594, Control_c, 0, 67, 63
1, 24609, Control_c, 0, 67, 0
1, 24613, Note_off_c, 0, 47, 57
1, 24623, Note_off_c, 0, 57, 56
1, 24840, Note_on_c, 0, 57, 44
1, 24843, Note_on_c, 0, 47, 47
1, 24843, Note_on_c, 0, 50, 36
1, 24898, Note_off_c, 0, 50, 58
1, 24903, Note_off_c, 0, 57, 58
1, 24919, Note_off_c, 0, 47, 57
1, 25148, Note_on_c, 0, 57, 37
1, 25158, Note_on_c, 0, 52, 42
1, 25161, Note_on_c, 0, 49, 41
1, 25204, Note_off_c, 0, 62, 44
1, 25210, Control_c, 0, 64, 29
1, 25225, Control_c, 0, 64, 42
1, 25239, Control_c, 0, 64, 52
1, 25254, Control_c, 0, 64, 57
1, 25269, Control_c, 0, 64, 59
1, 25284, Control_c, 0, 64, 61
1, 25297, Note_on_c, 0, 76, 56
1, 25299, Control_c, 0, 64, 63
1, 25311, Note_on_c, 0, 64, 46
1, 25314, Control_c, 0, 64, 65
1, 25326, Note_off_c, 0, 74, 61
1, 25329, Control_c, 0, 64, 67
1, 25335, Note_off_c, 0, 76, 63
1, 25343, Control_c, 0, 64, 68
1, 25350, Note_off_c, 0, 64, 64
1, 25358, Control_c, 0, 64, 70
1, 25373, Control_c, 0, 64, 72
1, 25388, Control_c, 0, 64, 74
1, 25403, Control_c, 0, 64, 77
1, 25417, Control_c, 0, 64, 82
1, 25432, Control_c, 0, 64, 85
1, 25447, Control_c, 0, 64, 85
1, 25447, Control_c, 0, 67, 37
1, 25463, Control_c, 0, 64, 85
1, 25463, Control_c, 0, 67, 50
1, 25478, Control_c, 0, 64, 81
1, 25478, Control_c, 0, 67, 63
1, 25488, Note_on_c, 0, 73, 62
1, 25493, Control_c, 0, 64, 73
1, 25493, Control_c, 0, 67, 76
1, 25508, Control_c, 0, 64, 63
1, 25508, Control_c, 0, 67, 88
1, 25513, Note_on_c, 0, 61, 40
1, 25522, Control_c, 0, 64, 55
1, 25522, Control_c, 0, 67, 96
1, 25537, Control_c, 0, 64, 56
1, 25537, Control_c, 0, 67, 99
1, 25552, Control_c, 0, 64, 60
1, 25566, Control_c, 0, 64, 64
1, 25581, Control_c, 0, 64, 66
1, 25596, Control_c, 0, 64, 70
1, 25603, Note_off_c, 0, 52, 52
1, 25611, Control_c, 0, 64, 75
1, 25626, Note_off_c, 0, 49, 62
1, 25626, Control_c, 0, 64, 80
1, 25646, Note_off_c, 0, 73, 62
1, 25648, Control_c, 0, 64, 84
1, 25651, Note_off_c, 0, 57, 54
1, 25663, Control_c, 0, 64, 88
1, 25678, Control_c, 0, 64, 90
1, 25693, Note_off_c, 0, 61, 59
1, 25693, Control_c, 0, 64, 92
1, 25693, Control_c, 0, 67, 97
1, 25707, Control_c, 0, 64, 93
1, 25722, Control_c, 0, 64, 94
1, 25737, Control_c, 0, 67, 95
1, 25767, Control_c, 0, 67, 95
1, 25782, Control_c, 0, 64, 94
1, 25797, Control_c, 0, 64, 94
1, 25809, Note_on_c, 0, 57, 38
1, 25812, Control_c, 0, 64, 92
1, 25813, Note_on_c, 0, 71, 56
1, 25827, Control_c, 0, 64, 84
1, 25827, Control_c, 0, 67, 94
1, 25827, Note_on_c, 0, 54, 44
1, 25836, Note_on_c, 0, 50, 48
1, 25841, Control_c, 0, 64, 72
1, 25856, Control_c, 0, 64, 61
1, 25871, Control_c, 0, 64, 53
1, 25886, Control_c, 0, 64, 55
1, 25890, Note_off_c, 0, 71, 57
1, 25901, Control_c, 0, 64, 60
1, 25913, Note_off_c, 0, 54, 53
1, 25915, Control_c, 0, 64, 64
1, 25916, Note_on_c, 0, 59, 56
1, 25918, Note_off_c, 0, 57, 56
1, 25930, Control_c, 0, 64, 70
1, 25945, Control_c, 0, 64, 76
1, 25958, Note_off_c, 0, 59, 63
1, 25960, Control_c, 0, 64, 82
1, 25974, Control_c, 0, 64, 87
1, 25989, Control_c, 0, 64, 92
1, 26001, Note_on_c, 0, 71, 72
1, 26004, Control_c, 0, 64, 97
1, 26004, Control_c, 0, 67, 94
1, 26019, Control_c, 0, 64, 101
1, 26019, Control_c, 0, 67, 93
1, 26034, Control_c, 0, 64, 105
1, 26048, Control_c, 0, 64, 108
1, 26063, Control_c, 0, 64, 114
1, 26078, Control_c, 0, 64, 127
1, 26085, Note_off_c, 0, 50, 58
1, 26092, Control_c, 0, 67, 94
1, 26098, Note_on_c, 0, 70, 75
1, 26102, Note_on_c, 0, 55, 59
1, 26106, Note_on_c, 0, 57, 56
1, 26107, Control_c, 0, 64, 111
1, 26109, Note_off_c, 0, 71, 54
1, 26114, Note_on_c, 0, 52, 54
1, 26122, Control_c, 0, 64, 87
1, 26122, Control_c, 0, 67, 94
1, 26137, Control_c, 0, 64, 65
1, 26152, Control_c, 0, 64, 49
1, 26152, Control_c, 0, 67, 95
1, 26166, Control_c, 0, 64, 45
1, 26166, Control_c, 0, 67, 95
1, 26181, Control_c, 0, 64, 52
1, 26182, Note_off_c, 0, 70, 63
1, 26196, Control_c, 0, 64, 61
1, 26203, Note_off_c, 0, 55, 60
1, 26205, Note_on_c, 0, 58, 72
1, 26211, Control_c, 0, 64, 69
1, 26226, Control_c, 0, 64, 81
1, 26226, Control_c, 0, 67, 95
1, 26241, Control_c, 0, 64, 94
1, 26241, Control_c, 0, 67, 94
1, 26249, Note_off_c, 0, 57, 59
1, 26256, Control_c, 0, 64, 104
1, 26271, Note_off_c, 0, 58, 60
1, 26271, Control_c, 0, 64, 120
1, 26271, Control_c, 0, 67, 94
1, 26286, Control_c, 0, 64, 127
1, 26290, Note_on_c, 0, 70, 79
1, 26301, Control_c, 0, 67, 93
1, 26316, Control_c, 0, 67, 93
1, 26331, Control_c, 0, 67, 92
1, 26345, Control_c, 0, 67, 91
1, 26397, Control_c, 0, 67, 91
1, 26403, Note_off_c, 0, 52, 60
1, 26424, Note_off_c, 0, 70, 56
1, 26445, Note_on_c, 0, 50, 49
1, 26446, Note_on_c, 0, 54, 52
1, 26447, Note_on_c, 0, 71, 74
1, 26449, Note_on_c, 0, 57, 51
1, 26465, Note_on_c, 0, 59, 61
1, 26471, Control_c, 0, 64, 102
1, 26486, Control_c, 0, 64, 85
1, 26501, Control_c, 0, 64, 68
1, 26515, Control_c, 0, 64, 48
1, 26530, Control_c, 0, 64, 0
1, 26590, Control_c, 0, 64, 50
1, 26590, Control_c, 0, 67, 90
1, 26593, Note_off_c, 0, 59, 62
1, 26603, Note_off_c, 0, 54, 61
1, 26605, Control_c, 0, 64, 64
1, 26620, Control_c, 0, 64, 73
1, 26634, Control_c, 0, 64, 92
1, 26634, Control_c, 0, 67, 90
1, 26649, Control_c, 0, 64, 117
1, 26654, Note_off_c, 0, 57, 59
1, 26664, Control_c, 0, 64, 127
1, 26675, Note_off_c, 0, 50, 60
1, 26679, Control_c, 0, 67, 89
1, 26709, Control_c, 0, 67, 88
1, 26753, Note_off_c, 0, 71, 59
1, 26768, Control_c, 0, 67, 89
1, 26783, Control_c, 0, 67, 90
1, 26788, Note_on_c, 0, 73, 75
1, 26797, Control_c, 0, 64, 118
1, 26797, Control_c, 0, 67, 91
1, 26801, Note_on_c, 0, 57, 51
1, 26808, Note_on_c, 0, 52, 54
1, 26810, Note_on_c, 0, 49, 53
1, 26812, Note_on_c, 0, 61, 59
1, 26812, Control_c, 0, 64, 73
1, 26812, Control_c, 0, 67, 91
1, 26827, Control_c, 0, 64, 47
1, 26827, Control_c, 0, 67, 92
1, 26842, Control_c, 0, 64, 0
1, 26842, Control_c, 0, 67, 93
1, 26857, Control_c, 0, 64, 42
1, 26867, Note_off_c, 0, 61, 58
1, 26871, Control_c, 0, 64, 59
1, 26871, Control_c, 0, 67, 93
1, 26886, Control_c, 0, 64, 70
1, 26901, Control_c, 0, 64, 85
1, 26901, Control_c, 0, 67, 94
1, 26906, Note_off_c, 0, 52, 61
1, 26915, Control_c, 0, 64, 114
1, 26923, Note_off_c, 0, 49, 61
1, 26927, Note_on_c, 0, 74, 74
1, 26930, Control_c, 0, 64, 127
1, 26935, Note_on_c, 0, 62, 67
1, 26950, Note_off_c, 0, 57, 46
1, 26974, Note_off_c, 0, 62, 59
1, 27080, Control_c, 0, 67, 94
1, 27091, Note_off_c, 0, 73, 33
1, 27094, Control_c, 0, 64, 74
1, 27094, Control_c, 0, 67, 95
1, 27097, Note_on_c, 0, 76, 75
1, 27106, Note_off_c, 0, 74, 61
1, 27109, Control_c, 0, 64, 48
1, 27109, Control_c, 0, 67, 95
1, 27111, Note_on_c, 0, 64, 60
1, 27124, Control_c, 0, 64, 32
1, 27126, Note_on_c, 0, 49, 56
1, 27128, Note_on_c, 0, 45, 56
1, 27146, Control_c, 0, 64, 47
1, 27161, Control_c, 0, 64, 64
1, 27176, Control_c, 0, 64, 75
1, 27188, Note_off_c, 0, 64, 57
1, 27191, Control_c, 0, 64, 96
1, 27206, Control_c, 0, 64, 127
1, 27206, Control_c, 0, 67, 95
1, 27210, Note_on_c, 0, 57, 69
1, 27213, Note_off_c, 0, 49, 61
1, 27214, Note_off_c, 0, 45, 59
1, 27219, Control_c, 0, 67, 94
1, 27234, Control_c, 0, 67, 94
1, 27264, Control_c, 0, 67, 93
1, 27279, Control_c, 0, 67, 93
1, 27293, Control_c, 0, 67, 92
1, 27302, Note_on_c, 0, 49, 66
1, 27308, Note_off_c, 0, 57, 54
1, 27308, Control_c, 0, 67, 91
1, 27323, Control_c, 0, 67, 91
1, 27328, Note_on_c, 0, 45, 59
1, 27338, Control_c, 0, 67, 90
1, 27362, Note_off_c, 0, 45, 63
1, 27368, Control_c, 0, 67, 91
1, 27376, Note_off_c, 0, 49, 63
1, 27383, Control_c, 0, 67, 92
1, 27398, Control_c, 0, 64, 79
1, 27398, Control_c, 0, 67, 93
1, 27407, Note_on_c, 0, 81, 84
1, 27412, Control_c, 0, 64, 53
1, 27422, Note_on_c, 0, 50, 65
1, 27425, Note_on_c, 0, 69, 71
1, 27427, Control_c, 0, 64, 28
1, 27427, Control_c, 0, 67, 94
1, 27429, Note_on_c, 0, 47, 61
1, 27442, Control_c, 0, 64, 42
1, 27454, Note_off_c, 0, 76, 52
1, 27457, Control_c, 0, 64, 61
1, 27472, Control_c, 0, 64, 72
1, 27486, Control_c, 0, 64, 89
1, 27486, Control_c, 0, 67, 94
1, 27501, Control_c, 0, 64, 127
1, 27501, Control_c, 0, 67, 95
1, 27502, Note_off_c, 0, 81, 62
1, 27510, Note_on_c, 0, 57, 69
1, 27511, Note_off_c, 0, 50, 61
1, 27518, Note_off_c, 0, 47, 62
1, 27545, Control_c, 0, 67, 95
1, 27585, Note_off_c, 0, 57, 59
1, 27609, Note_on_c, 0, 50, 64
1, 27630, Note_on_c, 0, 47, 61
1, 27634, Control_c, 0, 67, 94
1, 27649, Control_c, 0, 67, 91
1, 27658, Note_off_c, 0, 50, 60
1, 27664, Control_c, 0, 67, 87
1, 27679, Control_c, 0, 67, 84
1, 27690, Note_off_c, 0, 47, 60
1, 27693, Control_c, 0, 67, 79
1, 27708, Control_c, 0, 67, 75
1, 27723, Control_c, 0, 67, 65
1, 27737, Control_c, 0, 67, 43
1, 27752, Control_c, 0, 67, 0
1, 27777, Note_off_c, 0, 69, 52
1, 27782, Control_c, 0, 64, 110
1, 27795, Note_on_c, 0, 73, 75
1, 27797, Control_c, 0, 64, 97
1, 27804, Note_on_c, 0, 52, 55
1, 27809, Note_on_c, 0, 57, 51
1, 27812, Control_c, 0, 64, 88
1, 27814, Note_on_c, 0, 49, 61
1, 27821, Note_on_c, 0, 61, 56
1, 27827, Control_c, 0, 64, 79
1, 27842, Control_c, 0, 64, 69
1, 27857, Control_c, 0, 64, 57
1, 27872, Control_c, 0, 64, 44
1, 27895, Control_c, 0, 64, 0
1, 28028, Control_c, 0, 64, 29
1, 28042, Control_c, 0, 64, 51
1, 28057, Control_c, 0, 64, 64
1, 28072, Control_c, 0, 64, 74
1, 28087, Control_c, 0, 64, 87
1, 28102, Control_c, 0, 64, 102
1, 28116, Control_c, 0, 64, 127
1, 28142, Note_off_c, 0, 61, 51
1, 28203, Note_off_c, 0, 57, 59
1, 28206, Note_off_c, 0, 52, 47
1, 28241, Note_off_c, 0, 49, 62
1, 28315, Note_off_c, 0, 73, 58
1, 28555, Note_on_c, 0, 78, 72
1, 28575, Note_on_c, 0, 57, 56
1, 28579, Note_on_c, 0, 50, 53
1, 28585, Note_on_c, 0, 54, 53
1, 28587, Note_on_c, 0, 66, 44
1, 28590, Control_c, 0, 64, 110
1, 28593, Note_on_c, 0, 69, 40
1, 28605, Control_c, 0, 64, 97
1, 28620, Control_c, 0, 64, 87
1, 28642, Control_c, 0, 64, 78
1, 28657, Control_c, 0, 64, 68
1, 28673, Control_c, 0, 64, 57
1, 28688, Control_c, 0, 64, 29
1, 28703, Control_c, 0, 64, 0
1, 28762, Control_c, 0, 64, 41
1, 28777, Control_c, 0, 64, 60
1, 28791, Control_c, 0, 64, 71
1, 28806, Control_c, 0, 64, 83
1, 28821, Control_c, 0, 64, 96
1, 28836, Control_c, 0, 64, 109
1, 28851, Control_c, 0, 64, 127
1, 28888, Note_off_c, 0, 69, 53
1, 28924, Note_off_c, 0, 78, 58
1, 28952, Note_off_c, 0, 57, 55
1, 28998, Note_off_c, 0, 50, 58
1, 29000, Note_off_c, 0, 66, 62
1, 29007, Note_off_c, 0, 54, 52
1, 29162, Control_c, 0, 67, 33
1, 29177, Control_c, 0, 67, 42
1, 29191, Control_c, 0, 67, 54
1, 29206, Control_c, 0, 67, 65
1, 29221, Control_c, 0, 67, 77
1, 29236, Control_c, 0, 67, 86
1, 29251, Control_c, 0, 67, 93
1, 29265, Control_c, 0, 67, 98
1, 29280, Control_c, 0, 67, 104
1, 29295, Control_c, 0, 67, 109
1, 29309, Control_c, 0, 67, 114
1, 29324, Control_c, 0, 67, 119
1, 29339, Control_c, 0, 67, 121
1, 29369, Control_c, 0, 67, 123
1, 29421, Control_c, 0, 64, 117
1, 29436, Control_c, 0, 64, 113
1, 29451, Control_c, 0, 64, 110
1, 29451, Note_on_c, 0, 74, 55
1, 29467, Control_c, 0, 64, 106
1, 29475, Note_on_c, 0, 69, 44
1, 29475, Note_on_c, 0, 62, 41
1, 29482, Control_c, 0, 64, 102
1, 29491, Note_on_c, 0, 47, 42
1, 29496, Control_c, 0, 64, 98
1, 29497, Note_on_c, 0, 57, 44
1, 29511, Control_c, 0, 64, 94
1, 29513, Note_on_c, 0, 52, 41
1, 29526, Control_c, 0, 64, 90
1, 29541, Control_c, 0, 64, 85
1, 29556, Control_c, 0, 64, 79
1, 29571, Control_c, 0, 64, 73
1, 29586, Control_c, 0, 64, 67
1, 29600, Control_c, 0, 64, 60
1, 29615, Control_c, 0, 64, 54
1, 29630, Control_c, 0, 64, 46
1, 29645, Control_c, 0, 64, 31
1, 29660, Control_c, 0, 64, 0
1, 29675, Control_c, 0, 67, 121
1, 29845, Note_on_c, 0, 68, 44
1, 29859, Note_on_c, 0, 56, 41
1, 29866, Control_c, 0, 67, 119
1, 29881, Note_off_c, 0, 57, 53
1, 29893, Note_off_c, 0, 69, 37
1, 30008, Note_off_c, 0, 56, 58
1, 30020, Note_on_c, 0, 66, 46
1, 30026, Note_on_c, 0, 54, 38
1, 30033, Note_off_c, 0, 68, 51
1, 30271, Note_off_c, 0, 54, 36
1, 30291, Note_off_c, 0, 66, 55
1, 30315, Note_on_c, 0, 68, 36
1, 30321, Note_on_c, 0, 56, 38
1, 30468, Control_c, 0, 64, 34
1, 30482, Control_c, 0, 64, 46
1, 30497, Control_c, 0, 64, 57
1, 30497, Control_c, 0, 67, 121
1, 30512, Control_c, 0, 64, 62
1, 30527, Control_c, 0, 64, 66
1, 30527, Control_c, 0, 67, 124
1, 30542, Control_c, 0, 64, 70
1, 30542, Control_c, 0, 67, 126
1, 30556, Control_c, 0, 64, 74
1, 30566, Note_off_c, 0, 62, 48
1, 30571, Control_c, 0, 64, 80
1, 30586, Control_c, 0, 64, 88
1, 30601, Control_c, 0, 64, 96
1, 30616, Control_c, 0, 64, 106
1, 30626, Note_off_c, 0, 52, 50
1, 30627, Note_off_c, 0, 68, 53
1, 30630, Control_c, 0, 64, 123
1, 30645, Control_c, 0, 64, 127
1, 30656, Note_off_c, 0, 74, 54
1, 30735, Note_off_c, 0, 47, 36
1, 30885, Note_off_c, 0, 56, 40
1, 31284, Note_on_c, 0, 73, 41
1, 31318, Note_on_c, 0, 57, 30
1, 31332, Note_on_c, 0, 45, 31
1, 31335, Control_c, 0, 64, 99
1, 31335, Note_on_c, 0, 52, 27
1, 31350, Control_c, 0, 64, 81
1, 31365, Control_c, 0, 64, 64
1, 31379, Control_c, 0, 64, 44
1, 31394, Control_c, 0, 64, 0
1, 31401, Note_off_c, 0, 73, 60
1, 31409, Control_c, 0, 64, 29
1, 31424, Control_c, 0, 64, 40
1, 31431, Note_on_c, 0, 76, 48
1, 31439, Control_c, 0, 64, 53
1, 31453, Control_c, 0, 64, 62
1, 31468, Control_c, 0, 64, 67
1, 31481, Note_off_c, 0, 76, 63
1, 31483, Control_c, 0, 64, 73
1, 31498, Control_c, 0, 64, 78
1, 31508, Note_on_c, 0, 81, 57
1, 31512, Control_c, 0, 64, 83
1, 31513, Note_off_c, 0, 45, 50
1, 31514, Note_off_c, 0, 52, 49
1, 31527, Control_c, 0, 64, 87
1, 31542, Control_c, 0, 64, 91
1, 31557, Control_c, 0, 64, 93
1, 31567, Note_off_c, 0, 57, 52
1, 31572, Control_c, 0, 64, 96
1, 31586, Note_off_c, 0, 81, 58
1, 31586, Control_c, 0, 64, 98
1, 31602, Note_on_c, 0, 76, 55
1, 31616, Control_c, 0, 64, 100
1, 31684, Note_off_c, 0, 76, 59
1, 31691, Note_on_c, 0, 73, 57
1, 31781, Note_on_c, 0, 69, 54
1, 31793, Note_off_c, 0, 73, 62
1, 31812, Note_off_c, 0, 69, 65
1, 31878, Note_on_c, 0, 64, 48
1, 31939, Note_off_c, 0, 64, 56
1, 31964, Note_on_c, 0, 61, 57
1, 32040, Note_off_c, 0, 61, 62
1, 32060, Note_on_c, 0, 57, 53
1, 32093, Note_off_c, 0, 57, 65
1, 32098, Control_c, 0, 64, 98
1, 32158, Note_on_c, 0, 52, 63
1, 32187, Control_c, 0, 64, 96
1, 32201, Control_c, 0, 64, 95
1, 32216, Control_c, 0, 64, 95
1, 32221, Note_off_c, 0, 52, 59
1, 32231, Control_c, 0, 64, 94
1, 32245, Note_on_c, 0, 49, 60
1, 32246, Control_c, 0, 64, 93
1, 32260, Control_c, 0, 64, 92
1, 32275, Control_c, 0, 64, 90
1, 32290, Control_c, 0, 64, 89
1, 32305, Control_c, 0, 64, 87
1, 32320, Control_c, 0, 64, 85
1, 32334, Control_c, 0, 64, 83
1, 32340, Note_off_c, 0, 49, 55
1, 32349, Control_c, 0, 64, 81
1, 32354, Note_on_c, 0, 45, 51
1, 32364, Control_c, 0, 64, 79
1, 32387, Control_c, 0, 64, 76
1, 32402, Control_c, 0, 64, 74
1, 32416, Control_c, 0, 64, 73
1, 32431, Control_c, 0, 64, 71
1, 32441, Note_off_c, 0, 45, 62
1, 32446, Control_c, 0, 64, 68
1, 32461, Control_c, 0, 64, 61
1, 32476, Control_c, 0, 64, 46
1, 32487, Note_on_c, 0, 33, 57
1, 32491, Control_c, 0, 64, 0
1, 32544, Note_off_c, 0, 33, 61
1, 32810, Note_on_c, 0, 76, 62
1, 32830, Note_on_c, 0, 69, 43
1, 32834, Note_on_c, 0, 64, 40
1, 32835, Note_on_c, 0, 61, 45
1, 32856, Note_on_c, 0, 57, 29
1, 32897, Note_off_c, 0, 69, 62
1, 32909, Note_off_c, 0, 61, 62
1, 32912, Note_off_c, 0, 64, 58
1, 32922, Note_off_c, 0, 57, 63
1, 32929, Note_off_c, 0, 76, 61
1, 33236, Note_on_c, 0, 76, 52
1, 33259, Note_on_c, 0, 71, 28
1, 33276, Note_on_c, 0, 64, 22
1, 33306, Note_on_c, 0, 57, 39
1, 33307, Note_on_c, 0, 62, 52
1, 33330, Poly_aftertouch_c, 0, 68, 127
1, 33462, Control_c, 0, 64, 38
1, 33477, Control_c, 0, 64, 49
1, 33492, Control_c, 0, 64, 54
1, 33506, Control_c, 0, 64, 56
1, 33521, Control_c, 0, 64, 58
1, 33536, Control_c, 0, 64, 61
1, 33551, Control_c, 0, 64, 63
1, 33566, Control_c, 0, 64, 67
1, 33580, Control_c, 0, 64, 71
1, 33594, Note_off_c, 0, 64, 45
1, 33595, Control_c, 0, 64, 74
1, 33610, Control_c, 0, 64, 77
1, 33625, Control_c, 0, 64, 82
1, 33640, Control_c, 0, 64, 86
1, 33655, Control_c, 0, 64, 90
1, 33667, Note_off_c, 0, 71, 41
1, 33669, Control_c, 0, 64, 94
1, 33675, Poly_aftertouch_c, 0, 68, 0
1, 33684, Control_c, 0, 64, 97
1, 33693, Note_off_c, 0, 76, 64
1, 33699, Control_c, 0, 64, 101
1, 33714, Control_c, 0, 64, 104
1, 33744, Control_c, 0, 64, 107
1, 33935, Note_off_c, 0, 62, 36
1, 34012, Note_on_c, 0, 76, 51
1, 34038, Note_on_c, 0, 61, 37
1, 34046, Control_c, 0, 64, 105
1, 34061, Control_c, 0, 64, 98
1, 34076, Control_c, 0, 64, 89
1, 34091, Control_c, 0, 64, 74
1, 34105, Control_c, 0, 64, 61
1, 34120, Control_c, 0, 64, 45
1, 34125, Note_off_c, 0, 76, 55
1, 34134, Note_on_c, 0, 81, 57
1, 34135, Control_c, 0, 64, 34
1, 34150, Control_c, 0, 64, 36
1, 34165, Control_c, 0, 64, 43
1, 34179, Control_c, 0, 64, 51
1, 34194, Control_c, 0, 64, 57
1, 34201, Note_off_c, 0, 81, 62
1, 34209, Control_c, 0, 64, 61
1, 34219, Note_on_c, 0, 85, 66
1, 34224, Control_c, 0, 64, 66
1, 34239, Control_c, 0, 64, 69
1, 34255, Control_c, 0, 64, 72
1, 34270, Control_c, 0, 64, 73
1, 34284, Control_c, 0, 64, 75
1, 34298, Note_off_c, 0, 61, 61
1, 34299, Control_c, 0, 64, 78
1, 34307, Note_off_c, 0, 85, 64
1, 34314, Note_on_c, 0, 81, 69
1, 34314, Control_c, 0, 64, 81
1, 34328, Control_c, 0, 64, 83
1, 34343, Control_c, 0, 64, 85
1, 34356, Note_off_c, 0, 81, 58
1, 34358, Control_c, 0, 64, 86
1, 34373, Control_c, 0, 64, 87
1, 34388, Control_c, 0, 64, 87
1, 34403, Control_c, 0, 64, 88
1, 34406, Note_on_c, 0, 76, 63
1, 34418, Control_c, 0, 64, 89
1, 34447, Control_c, 0, 64, 89
1, 34455, Note_off_c, 0, 76, 59
1, 34486, Note_on_c, 0, 73, 71
1, 34515, Note_off_c, 0, 73, 62
1, 34588, Note_on_c, 0, 69, 67
1, 34662, Note_off_c, 0, 57, 30
1, 34683, Note_off_c, 0, 69, 56
1, 34684, Note_on_c, 0, 64, 62
1, 34707, Control_c, 0, 64, 89
1, 34751, Control_c, 0, 64, 88
1, 34763, Note_on_c, 0, 61, 66
1, 34766, Note_off_c, 0, 64, 60
1, 34781, Control_c, 0, 64, 88
1, 34796, Control_c, 0, 64, 87
1, 34810, Control_c, 0, 64, 87
1, 34825, Control_c, 0, 64, 86
1, 34840, Control_c, 0, 64, 85
1, 34854, Control_c, 0, 64, 84
1, 34856, Note_off_c, 0, 61, 62
1, 34864, Note_on_c, 0, 57, 58
1, 34869, Control_c, 0, 64, 83
1, 34871, Note_on_c, 0, 52, 64
1, 34884, Control_c, 0, 64, 82
1, 34899, Control_c, 0, 64, 80
1, 34901, Note_off_c, 0, 57, 62
1, 34914, Control_c, 0, 64, 78
1, 34928, Control_c, 0, 64, 77
1, 34937, Note_off_c, 0, 52, 61
1, 34943, Control_c, 0, 64, 75
1, 34958, Note_on_c, 0, 49, 68
1, 34958, Control_c, 0, 64, 73
1, 34973, Control_c, 0, 64, 70
1, 34988, Control_c, 0, 64, 67
1, 35002, Control_c, 0, 64, 64
1, 35017, Control_c, 0, 64, 61
1, 35032, Control_c, 0, 64, 59
1, 35048, Control_c, 0, 64, 57
1, 35063, Control_c, 0, 64, 55
1, 35067, Note_on_c, 0, 45, 68
1, 35069, Note_off_c, 0, 49, 61
1, 35077, Control_c, 0, 64, 52
1, 35092, Control_c, 0, 64, 46
1, 35107, Control_c, 0, 64, 29
1, 35122, Control_c, 0, 64, 0
1, 35127, Note_off_c, 0, 45, 63
1, 35173, Note_on_c, 0, 33, 71
1, 35231, Note_off_c, 0, 33, 60
1, 35499, Note_on_c, 0, 81, 75
1, 35509, Note_on_c, 0, 76, 61
1, 35510, Note_on_c, 0, 57, 54
1, 35521, Note_on_c, 0, 69, 57
1, 35524, Note_on_c, 0, 64, 42
1, 35530, Control_c, 0, 67, 100
1, 35531, Note_on_c, 0, 61, 51
1, 35545, Control_c, 0, 67, 56
1, 35559, Control_c, 0, 67, 0
1, 35569, Note_off_c, 0, 76, 64
1, 35570, Note_off_c, 0, 69, 59
1, 35579, Note_off_c, 0, 64, 65
1, 35582, Note_off_c, 0, 61, 59
1, 35587, Note_off_c, 0, 57, 63
1, 35619, Note_off_c, 0, 81, 63
1, 35896, Note_on_c, 0, 83, 66
1, 35909, Note_on_c, 0, 80, 55
1, 35938, Note_on_c, 0, 57, 38
1, 35941, Note_on_c, 0, 64, 40
1, 35943, Note_on_c, 0, 71, 35
1, 35944, Note_on_c, 0, 62, 41
1, 35945, Note_on_c, 0, 76, 28
1, 36049, Control_c, 0, 64, 39
1, 36064, Control_c, 0, 64, 53
1, 36079, Control_c, 0, 64, 58
1, 36093, Control_c, 0, 64, 60
1, 36108, Control_c, 0, 64, 62
1, 36131, Control_c, 0, 64, 65
1, 36146, Control_c, 0, 64, 69
1, 36161, Control_c, 0, 64, 74
1, 36175, Control_c, 0, 64, 78
1, 36190, Control_c, 0, 64, 82
1, 36205, Control_c, 0, 64, 86
1, 36220, Control_c, 0, 64, 93
1, 36235, Control_c, 0, 64, 103
1, 36249, Control_c, 0, 64, 117
1, 36258, Note_off_c, 0, 64, 64
1, 36264, Control_c, 0, 64, 127
1, 36293, Note_off_c, 0, 62, 60
1, 36340, Note_off_c, 0, 57, 58
1, 36343, Note_off_c, 0, 80, 56
1, 36345, Note_off_c, 0, 76, 42
1, 36378, Note_off_c, 0, 71, 48
1, 36425, Note_off_c, 0, 83, 55
1, 36606, Note_on_c, 0, 81, 54
1, 36615, Note_on_c, 0, 57, 48
1, 36626, Note_on_c, 0, 76, 43
1, 36628, Note_on_c, 0, 69, 43
1, 36634, Control_c, 0, 64, 95
1, 36650, Control_c, 0, 64, 75
1, 36665, Control_c, 0, 64, 64
1, 36665, Control_c, 0, 67, 45
1, 36680, Control_c, 0, 64, 60
1, 36680, Control_c, 0, 67, 64
1, 36695, Control_c, 0, 64, 62
1, 36695, Control_c, 0, 67, 79
1, 36707, Note_on_c, 0, 61, 60
1, 36710, Control_c, 0, 64, 66
1, 36710, Control_c, 0, 67, 89
1, 36716, Note_off_c, 0, 57, 55
1, 36724, Control_c, 0, 64, 71
1, 36724, Control_c, 0, 67, 97
1, 36739, Control_c, 0, 64, 75
1, 36739, Control_c, 0, 67, 106
1, 36754, Control_c, 0, 64, 78
1, 36754, Control_c, 0, 67, 116
1, 36769, Control_c, 0, 64, 80
1, 36769, Control_c, 0, 67, 125
1, 36784, Control_c, 0, 64, 82
1, 36784, Control_c, 0, 67, 127
1, 36785, Note_off_c, 0, 61, 63
1, 36793, Note_on_c, 0, 64, 61
1, 36798, Control_c, 0, 64, 84
1, 36813, Control_c, 0, 64, 85
1, 36819, Note_off_c, 0, 69, 36
1, 36902, Note_on_c, 0, 61, 69
1, 36904, Note_off_c, 0, 64, 56
1, 36910, Note_off_c, 0, 76, 24
1, 36939, Control_c, 0, 64, 84
1, 36954, Control_c, 0, 64, 83
1, 36957, Note_off_c, 0, 81, 35
1, 36969, Control_c, 0, 64, 83
1, 36984, Control_c, 0, 64, 82
1, 36987, Note_off_c, 0, 61, 63
1, 36989, Note_on_c, 0, 57, 72
1, 36998, Control_c, 0, 64, 80
1, 37013, Control_c, 0, 64, 79
1, 37028, Control_c, 0, 64, 77
1, 37043, Control_c, 0, 64, 75
1, 37057, Control_c, 0, 64, 73
1, 37072, Control_c, 0, 64, 71
1, 37087, Control_c, 0, 64, 69
1, 37092, Note_off_c, 0, 57, 64
1, 37093, Note_on_c, 0, 52, 69
1, 37102, Control_c, 0, 64, 68
1, 37117, Control_c, 0, 64, 67
1, 37131, Control_c, 0, 64, 66
1, 37146, Control_c, 0, 64, 65
1, 37161, Control_c, 0, 64, 65
1, 37165, Note_off_c, 0, 52, 63
1, 37176, Control_c, 0, 64, 64
1, 37189, Note_on_c, 0, 57, 75
1, 37191, Control_c, 0, 64, 64
1, 37205, Control_c, 0, 64, 63
1, 37220, Control_c, 0, 64, 63
1, 37235, Control_c, 0, 64, 62
1, 37249, Control_c, 0, 64, 61
1, 37264, Control_c, 0, 64, 60
1, 37279, Note_on_c, 0, 52, 73
1, 37279, Control_c, 0, 64, 59
1, 37294, Note_off_c, 0, 57, 57
1, 37294, Control_c, 0, 64, 59
1, 37309, Control_c, 0, 64, 58
1, 37324, Control_c, 0, 64, 58
1, 37339, Control_c, 0, 64, 57
1, 37354, Control_c, 0, 64, 56
1, 37369, Control_c, 0, 64, 55
1, 37381, Note_on_c, 0, 49, 76
1, 37384, Control_c, 0, 64, 54
1, 37387, Note_off_c, 0, 52, 64
1, 37398, Control_c, 0, 64, 53
1, 37413, Control_c, 0, 64, 53
1, 37443, Control_c, 0, 64, 52
1, 37458, Control_c, 0, 64, 52
1, 37461, Note_off_c, 0, 49, 63
1, 37473, Control_c, 0, 64, 51
1, 37477, Note_on_c, 0, 52, 77
1, 37488, Control_c, 0, 64, 50
1, 37503, Control_c, 0, 64, 50
1, 37533, Control_c, 0, 64, 49
1, 37547, Control_c, 0, 64, 49
1, 37562, Control_c, 0, 64, 47
1, 37571, Note_on_c, 0, 49, 74
1, 37577, Control_c, 0, 64, 44
1, 37592, Control_c, 0, 64, 41
1, 37604, Note_off_c, 0, 52, 59
1, 37607, Control_c, 0, 64, 36
1, 37628, Control_c, 0, 64, 29
1, 37643, Control_c, 0, 64, 0
1, 37680, Note_on_c, 0, 45, 72
1, 37688, Note_off_c, 0, 49, 63
1, 37789, Note_on_c, 0, 87, 70
1, 37798, Note_on_c, 0, 42, 65
1, 37820, Control_c, 0, 67, 125
1, 37835, Control_c, 0, 67, 114
1, 37842, Note_off_c, 0, 45, 61
1, 37850, Control_c, 0, 67, 94
1, 37865, Control_c, 0, 67, 68
1, 37879, Control_c, 0, 64, 43
1, 37879, Control_c, 0, 67, 37
1, 37894, Control_c, 0, 64, 57
1, 37894, Control_c, 0, 67, 0
1, 37896, Note_on_c, 0, 90, 76
1, 37907, Note_off_c, 0, 87, 62
1, 37909, Control_c, 0, 64, 60
1, 37924, Control_c, 0, 64, 62
1, 37939, Control_c, 0, 64, 64
1, 37953, Control_c, 0, 64, 67
1, 37968, Control_c, 0, 64, 74
1, 37980, Note_on_c, 0, 93, 87
1, 37982, Note_off_c, 0, 90, 65
1, 37983, Control_c, 0, 64, 79
1, 37998, Control_c, 0, 64, 82
1, 38013, Control_c, 0, 64, 85
1, 38028, Control_c, 0, 64, 88
1, 38042, Control_c, 0, 64, 91
1, 38057, Control_c, 0, 64, 93
1, 38069, Note_on_c, 0, 90, 90
1, 38076, Note_off_c, 0, 93, 65
1, 38080, Note_off_c, 0, 42, 58
1, 38132, Control_c, 0, 64, 92
1, 38146, Control_c, 0, 64, 92
1, 38153, Note_on_c, 0, 87, 85
1, 38161, Control_c, 0, 64, 90
1, 38175, Note_off_c, 0, 90, 65
1, 38176, Control_c, 0, 64, 88
1, 38190, Control_c, 0, 64, 85
1, 38205, Control_c, 0, 64, 82
1, 38220, Control_c, 0, 64, 80
1, 38222, Note_off_c, 0, 87, 66
1, 38233, Note_on_c, 0, 81, 80
1, 38235, Control_c, 0, 64, 79
1, 38235, Control_c, 0, 67, 38
1, 38251, Control_c, 0, 64, 78
1, 38251, Control_c, 0, 67, 47
1, 38266, Control_c, 0, 64, 76
1, 38266, Control_c, 0, 67, 53
1, 38281, Control_c, 0, 64, 75
1, 38281, Control_c, 0, 67, 54
1, 38295, Control_c, 0, 64, 73
1, 38310, Control_c, 0, 64, 71
1, 38314, Note_off_c, 0, 81, 44
1, 38325, Control_c, 0, 64, 69
1, 38330, Note_on_c, 0, 78, 82
1, 38340, Control_c, 0, 64, 67
1, 38345, Note_on_c, 0, 79, 37
1, 38355, Control_c, 0, 64, 64
1, 38355, Control_c, 0, 67, 53
1, 38376, Control_c, 0, 64, 61
1, 38376, Control_c, 0, 67, 53
1, 38384, Note_off_c, 0, 79, 57
1, 38391, Control_c, 0, 64, 58
1, 38406, Control_c, 0, 64, 51
1, 38421, Control_c, 0, 64, 38
1, 38424, Note_on_c, 0, 75, 88
1, 38436, Control_c, 0, 64, 0
1, 38436, Control_c, 0, 67, 52
1, 38442, Note_off_c, 0, 78, 61
1, 38451, Control_c, 0, 67, 52
1, 38501, Note_off_c, 0, 75, 64
1, 38510, Note_on_c, 0, 71, 85
1, 38564, Note_off_c, 0, 71, 65
1, 38608, Note_on_c, 0, 69, 84
1, 38694, Note_on_c, 0, 66, 84
1, 38716, Note_off_c, 0, 69, 60
1, 38732, Control_c, 0, 67, 51
1, 38747, Control_c, 0, 67, 50
1, 38775, Note_on_c, 0, 63, 88
1, 38776, Control_c, 0, 67, 50
1, 38791, Control_c, 0, 67, 49
1, 38805, Note_off_c, 0, 66, 63
1, 38806, Control_c, 0, 67, 48
1, 38820, Control_c, 0, 67, 46
1, 38835, Control_c, 0, 67, 40
1, 38850, Control_c, 0, 67, 34
1, 38865, Control_c, 0, 67, 0
1, 38908, Note_on_c, 0, 64, 82
1, 38917, Note_on_c, 0, 40, 81
1, 38960, Note_off_c, 0, 63, 61
1, 38994, Note_off_c, 0, 40, 62
1, 39041, Note_off_c, 0, 64, 66
1, 39243, Note_on_c, 0, 64, 79
1, 39244, Note_on_c, 0, 52, 79
1, 39249, Note_on_c, 0, 56, 74
1, 39279, Note_off_c, 0, 56, 71
1, 39282, Note_off_c, 0, 64, 68
1, 39295, Note_off_c, 0, 52, 62
1, 39333, Control_c, 0, 64, 28
1, 39541, Control_c, 0, 64, 0
1, 39554, Note_on_c, 0, 64, 95
1, 39556, Note_on_c, 0, 57, 81
1, 39559, Note_on_c, 0, 53, 81
1, 39849, Note_on_c, 0, 76, 85
1, 39885, Note_off_c, 0, 76, 66
1, 40152, Note_on_c, 0, 81, 90
1, 40183, Note_on_c, 0, 69, 58
1, 40186, Control_c, 0, 64, 35
1, 40201, Control_c, 0, 64, 49
1, 40210, Note_off_c, 0, 53, 58
1, 40216, Control_c, 0, 64, 59
1, 40230, Control_c, 0, 64, 62
1, 40245, Control_c, 0, 64, 63
1, 40254, Note_off_c, 0, 64, 55
1, 40260, Control_c, 0, 64, 65
1, 40265, Note_off_c, 0, 57, 56
1, 40275, Control_c, 0, 64, 67
1, 40290, Control_c, 0, 64, 68
1, 40305, Control_c, 0, 64, 70
1, 40320, Control_c, 0, 64, 70
1, 40335, Control_c, 0, 64, 71
1, 40364, Control_c, 0, 64, 72
1, 40379, Control_c, 0, 64, 72
1, 40393, Control_c, 0, 64, 73
1, 40408, Control_c, 0, 64, 72
1, 40423, Control_c, 0, 64, 70
1, 40438, Control_c, 0, 64, 63
1, 40439, Note_off_c, 0, 69, 61
1, 40453, Control_c, 0, 64, 49
1, 40459, Note_on_c, 0, 64, 77
1, 40464, Note_on_c, 0, 57, 63
1, 40465, Note_on_c, 0, 54, 68
1, 40467, Control_c, 0, 64, 33
1, 40482, Control_c, 0, 64, 35
1, 40497, Control_c, 0, 64, 46
1, 40512, Control_c, 0, 64, 57
1, 40520, Note_off_c, 0, 81, 65
1, 40527, Control_c, 0, 64, 62
1, 40541, Control_c, 0, 64, 65
1, 40556, Control_c, 0, 64, 68
1, 40557, Note_off_c, 0, 57, 63
1, 40571, Control_c, 0, 64, 71
1, 40584, Note_off_c, 0, 64, 53
1, 40586, Control_c, 0, 64, 73
1, 40600, Control_c, 0, 64, 75
1, 40623, Control_c, 0, 64, 77
1, 40638, Control_c, 0, 64, 78
1, 40654, Control_c, 0, 64, 79
1, 40669, Control_c, 0, 64, 80
1, 40683, Control_c, 0, 64, 80
1, 40698, Control_c, 0, 64, 81
1, 40713, Control_c, 0, 64, 80
1, 40728, Control_c, 0, 64, 72
1, 40743, Control_c, 0, 64, 60
1, 40758, Control_c, 0, 64, 40
1, 40769, Note_on_c, 0, 64, 59
1, 40772, Note_on_c, 0, 79, 72
1, 40772, Control_c, 0, 64, 0
1, 40775, Note_on_c, 0, 55, 60
1, 40778, Note_on_c, 0, 60, 61
1, 40780, Note_off_c, 0, 54, 58
1, 40802, Control_c, 0, 64, 36
1, 40817, Control_c, 0, 64, 53
1, 40832, Control_c, 0, 64, 62
1, 40846, Control_c, 0, 64, 64
1, 40856, Note_off_c, 0, 79, 62
1, 40861, Control_c, 0, 64, 66
1, 40867, Note_on_c, 0, 81, 81
1, 40876, Control_c, 0, 64, 69
1, 40877, Note_off_c, 0, 55, 60
1, 40890, Control_c, 0, 64, 71
1, 40905, Control_c, 0, 64, 74
1, 40913, Note_off_c, 0, 64, 61
1, 40920, Control_c, 0, 64, 78
1, 40935, Control_c, 0, 64, 81
1, 40950, Control_c, 0, 64, 84
1, 40952, Note_on_c, 0, 79, 82
1, 40964, Control_c, 0, 64, 85
1, 40970, Note_off_c, 0, 81, 62
1, 40979, Control_c, 0, 64, 82
1, 40982, Note_off_c, 0, 60, 53
1, 40994, Control_c, 0, 64, 71
1, 41009, Control_c, 0, 64, 55
1, 41023, Control_c, 0, 64, 0
1, 41039, Note_off_c, 0, 79, 64
1, 41041, Note_on_c, 0, 59, 57
1, 41041, Note_on_c, 0, 62, 63
1, 41042, Note_on_c, 0, 77, 84
1, 41049, Note_on_c, 0, 55, 58
1, 41068, Control_c, 0, 64, 48
1, 41083, Control_c, 0, 64, 61
1, 41098, Control_c, 0, 64, 66
1, 41108, Note_off_c, 0, 77, 57
1, 41113, Control_c, 0, 64, 68
1, 41128, Control_c, 0, 64, 68
1, 41130, Note_on_c, 0, 79, 83
1, 41157, Control_c, 0, 64, 65
1, 41172, Control_c, 0, 64, 57
1, 41187, Control_c, 0, 64, 38
1, 41202, Control_c, 0, 64, 0
1, 41212, Note_on_c, 0, 77, 82
1, 41219, Note_off_c, 0, 79, 64
1, 41261, Control_c, 0, 64, 29
1, 41276, Control_c, 0, 64, 42
1, 41290, Control_c, 0, 64, 53
1, 41293, Note_off_c, 0, 59, 55
1, 41294, Note_off_c, 0, 62, 55
1, 41305, Control_c, 0, 64, 60
1, 41320, Control_c, 0, 64, 63
1, 41325, Note_off_c, 0, 77, 58
1, 41335, Control_c, 0, 64, 66
1, 41341, Note_on_c, 0, 76, 78
1, 41350, Control_c, 0, 64, 68
1, 41357, Note_on_c, 0, 60, 62
1, 41372, Control_c, 0, 64, 71
1, 41377, Note_off_c, 0, 55, 59
1, 41387, Control_c, 0, 64, 75
1, 41402, Control_c, 0, 64, 80
1, 41417, Control_c, 0, 64, 84
1, 41428, Note_off_c, 0, 60, 65
1, 41431, Control_c, 0, 64, 86
1, 41447, Control_c, 0, 64, 80
1, 41462, Control_c, 0, 64, 67
1, 41476, Control_c, 0, 64, 46
1, 41491, Control_c, 0, 64, 0
1, 41531, Note_off_c, 0, 76, 65
1, 41566, Control_c, 0, 67, 34
1, 41625, Control_c, 0, 67, 33
1, 41654, Control_c, 0, 67, 0
1, 41682, Note_on_c, 0, 48, 54
1, 41682, Note_on_c, 0, 52, 45
1, 41682, Note_on_c, 0, 60, 53
1, 41727, Note_off_c, 0, 48, 62
1, 41731, Note_off_c, 0, 60, 59
1, 41733, Note_off_c, 0, 52, 61
1, 42017, Note_on_c, 0, 60, 36
1, 42020, Note_on_c, 0, 49, 31
1, 42038, Note_on_c, 0, 53, 32
1, 42326, Note_on_c, 0, 72, 52
1, 42357, Note_off_c, 0, 72, 63
1, 42641, Note_on_c, 0, 77, 54
1, 42667, Note_on_c, 0, 65, 37
1, 42669, Control_c, 0, 64, 32
1, 42684, Control_c, 0, 64, 44
1, 42699, Control_c, 0, 64, 53
1, 42714, Control_c, 0, 64, 58
1, 42729, Control_c, 0, 64, 60
1, 42743, Control_c, 0, 64, 62
1, 42751, Note_off_c, 0, 53, 60
1, 42754, Note_off_c, 0, 60, 57
1, 42758, Control_c, 0, 64, 63
1, 42773, Control_c, 0, 64, 65
1, 42783, Note_off_c, 0, 49, 54
1, 42788, Control_c, 0, 64, 67
1, 42803, Control_c, 0, 64, 69
1, 42818, Control_c, 0, 64, 71
1, 42833, Control_c, 0, 64, 73
1, 42848, Control_c, 0, 64, 74
1, 42869, Control_c, 0, 64, 74
1, 42884, Control_c, 0, 64, 71
1, 42899, Control_c, 0, 64, 66
1, 42914, Control_c, 0, 64, 61
1, 42929, Control_c, 0, 64, 60
1, 42937, Note_on_c, 0, 60, 44
1, 42940, Note_off_c, 0, 65, 58
1, 42943, Control_c, 0, 64, 62
1, 42947, Note_on_c, 0, 50, 43
1, 42949, Note_on_c, 0, 56, 48
1, 42958, Control_c, 0, 64, 65
1, 42973, Control_c, 0, 64, 68
1, 42988, Control_c, 0, 64, 70
1, 43003, Control_c, 0, 64, 72
1, 43018, Control_c, 0, 64, 74
1, 43022, Note_off_c, 0, 77, 63
1, 43027, Note_off_c, 0, 56, 56
1, 43032, Control_c, 0, 64, 76
1, 43038, Note_off_c, 0, 60, 51
1, 43048, Control_c, 0, 64, 78
1, 43063, Control_c, 0, 64, 79
1, 43078, Control_c, 0, 64, 80
1, 43211, Control_c, 0, 64, 79
1, 43226, Control_c, 0, 64, 74
1, 43235, Note_on_c, 0, 60, 45
1, 43241, Control_c, 0, 64, 64
1, 43244, Note_on_c, 0, 56, 47
1, 43252, Note_on_c, 0, 75, 57
1, 43256, Control_c, 0, 64, 47
1, 43264, Note_on_c, 0, 51, 50
1, 43270, Note_off_c, 0, 50, 56
1, 43271, Control_c, 0, 64, 0
1, 43315, Control_c, 0, 64, 31
1, 43326, Note_off_c, 0, 75, 63
1, 43330, Control_c, 0, 64, 48
1, 43345, Control_c, 0, 64, 59
1, 43349, Note_off_c, 0, 60, 63
1, 43356, Note_on_c, 0, 77, 61
1, 43359, Control_c, 0, 64, 63
1, 43373, Note_off_c, 0, 51, 58
1, 43374, Control_c, 0, 64, 66
1, 43389, Control_c, 0, 64, 69
1, 43404, Control_c, 0, 64, 71
1, 43414, Note_off_c, 0, 56, 57
1, 43418, Control_c, 0, 64, 74
1, 43423, Note_off_c, 0, 77, 63
1, 43433, Control_c, 0, 64, 77
1, 43435, Note_on_c, 0, 75, 70
1, 43448, Control_c, 0, 64, 80
1, 43463, Control_c, 0, 64, 84
1, 43478, Control_c, 0, 64, 89
1, 43492, Control_c, 0, 64, 95
1, 43509, Note_off_c, 0, 75, 56
1, 43522, Control_c, 0, 64, 93
1, 43526, Note_on_c, 0, 73, 66
1, 43535, Note_on_c, 0, 51, 43
1, 43537, Control_c, 0, 64, 79
1, 43540, Note_on_c, 0, 58, 49
1, 43543, Note_on_c, 0, 55, 41
1, 43552, Control_c, 0, 64, 62
1, 43566, Control_c, 0, 64, 36
1, 43581, Control_c, 0, 64, 0
1, 43602, Note_off_c, 0, 73, 60
1, 43618, Control_c, 0, 64, 37
1, 43626, Note_on_c, 0, 75, 66
1, 43633, Control_c, 0, 64, 54
1, 43648, Control_c, 0, 64, 61
1, 43663, Control_c, 0, 64, 63
1, 43678, Control_c, 0, 64, 66
1, 43692, Control_c, 0, 64, 69
1, 43695, Note_off_c, 0, 75, 60
1, 43707, Control_c, 0, 64, 72
1, 43718, Note_on_c, 0, 73, 62
1, 43722, Control_c, 0, 64, 73
1, 43737, Control_c, 0, 64, 74
1, 43752, Control_c, 0, 64, 75
1, 43766, Control_c, 0, 64, 75
1, 43781, Note_off_c, 0, 58, 34
1, 43810, Control_c, 0, 64, 75
1, 43825, Note_off_c, 0, 55, 30
1, 43841, Control_c, 0, 64, 74
1, 43856, Control_c, 0, 64, 72
1, 43867, Note_on_c, 0, 72, 52
1, 43870, Note_off_c, 0, 73, 34
1, 43870, Note_off_c, 0, 51, 34
1, 43871, Control_c, 0, 64, 69
1, 43886, Control_c, 0, 64, 65
1, 43889, Note_on_c, 0, 56, 42
1, 43901, Control_c, 0, 64, 61
1, 43915, Control_c, 0, 64, 56
1, 43930, Control_c, 0, 64, 47
1, 43945, Control_c, 0, 64, 31
1, 43960, Control_c, 0, 64, 0
1, 44026, Note_off_c, 0, 72, 51
1, 44106, Note_off_c, 0, 56, 64
1, 44153, Note_on_c, 0, 72, 80
1, 44155, Note_on_c, 0, 80, 86
1, 44156, Note_on_c, 0, 68, 85
1, 44183, Note_off_c, 0, 68, 64
1, 44191, Note_off_c, 0, 72, 65
1, 44204, Note_off_c, 0, 80, 61
1, 44466, Note_on_c, 0, 80, 91
1, 44470, Note_on_c, 0, 73, 80
1, 44475, Note_on_c, 0, 69, 81
1, 44752, Note_on_c, 0, 64, 88
1, 44772, Note_off_c, 0, 64, 73
1, 45051, Note_on_c, 0, 49, 84
1, 45116, Control_c, 0, 64, 33
1, 45131, Control_c, 0, 64, 49
1, 45146, Control_c, 0, 64, 60
1, 45161, Control_c, 0, 64, 64
1, 45176, Control_c, 0, 64, 66
1, 45191, Control_c, 0, 64, 69
1, 45194, Note_off_c, 0, 69, 55
1, 45206, Control_c, 0, 64, 72
1, 45220, Control_c, 0, 64, 77
1, 45235, Control_c, 0, 64, 82
1, 45250, Control_c, 0, 64, 86
1, 45263, Note_off_c, 0, 73, 55
1, 45265, Note_off_c, 0, 80, 57
1, 45265, Control_c, 0, 64, 89
1, 45280, Control_c, 0, 64, 92
1, 45295, Control_c, 0, 64, 95
1, 45310, Control_c, 0, 64, 99
1, 45325, Control_c, 0, 64, 102
1, 45339, Control_c, 0, 64, 105
1, 45354, Control_c, 0, 64, 107
1, 45358, Note_on_c, 0, 80, 83
1, 45362, Note_on_c, 0, 76, 68
1, 45364, Note_on_c, 0, 70, 70
1, 45369, Control_c, 0, 64, 109
1, 45383, Control_c, 0, 64, 111
1, 45394, Note_off_c, 0, 76, 64
1, 45394, Note_off_c, 0, 70, 62
1, 45413, Control_c, 0, 64, 115
1, 45420, Note_off_c, 0, 80, 59
1, 45428, Control_c, 0, 64, 117
1, 45435, Note_off_c, 0, 49, 47
1, 45503, Control_c, 0, 64, 120
1, 45606, Control_c, 0, 64, 117
1, 45621, Control_c, 0, 64, 113
1, 45634, Note_on_c, 0, 47, 65
1, 45636, Note_on_c, 0, 80, 76
1, 45636, Control_c, 0, 64, 110
1, 45650, Note_on_c, 0, 71, 72
1, 45650, Note_on_c, 0, 76, 64
1, 45651, Control_c, 0, 64, 106
1, 45666, Control_c, 0, 64, 102
1, 45681, Control_c, 0, 64, 97
1, 45695, Control_c, 0, 64, 91
1, 45710, Control_c, 0, 64, 86
1, 45720, Note_off_c, 0, 47, 62
1, 45721, Note_on_c, 0, 49, 79
1, 45725, Control_c, 0, 64, 82
1, 45735, Note_off_c, 0, 76, 63
1, 45740, Control_c, 0, 64, 78
1, 45754, Control_c, 0, 64, 73
1, 45769, Control_c, 0, 64, 70
1, 45784, Note_off_c, 0, 71, 60
1, 45784, Control_c, 0, 64, 68
1, 45799, Control_c, 0, 64, 67
1, 45811, Note_on_c, 0, 47, 82
1, 45813, Note_off_c, 0, 49, 62
1, 45814, Control_c, 0, 64, 66
1, 45829, Control_c, 0, 64, 65
1, 45843, Control_c, 0, 64, 62
1, 45866, Control_c, 0, 64, 58
1, 45881, Control_c, 0, 64, 54
1, 45895, Control_c, 0, 64, 49
1, 45910, Control_c, 0, 64, 40
1, 45915, Note_on_c, 0, 45, 77
1, 45922, Note_off_c, 0, 47, 63
1, 45923, Note_on_c, 0, 78, 81
1, 45925, Control_c, 0, 64, 0
1, 45926, Note_on_c, 0, 75, 77
1, 45927, Note_on_c, 0, 71, 77
1, 45987, Note_off_c, 0, 45, 63
1, 46000, Note_on_c, 0, 47, 86
1, 46031, Note_off_c, 0, 71, 56
1, 46089, Note_on_c, 0, 45, 81
1, 46106, Note_off_c, 0, 47, 62
1, 46199, Note_off_c, 0, 80, 36
1, 46203, Note_on_c, 0, 44, 90
1, 46207, Note_on_c, 0, 76, 74
1, 46212, Note_on_c, 0, 71, 76
1, 46227, Note_off_c, 0, 45, 63
1, 46237, Note_off_c, 0, 75, 59
1, 46244, Note_off_c, 0, 78, 58
1, 46258, Note_off_c, 0, 76, 65
1, 46270, Note_off_c, 0, 71, 61
1, 46314, Note_off_c, 0, 44, 64
1, 46516, Note_on_c, 0, 40, 83
1, 46517, Note_on_c, 0, 76, 83
1, 46518, Note_on_c, 0, 64, 85
1, 46518, Note_on_c, 0, 68, 81
1, 46547, Note_off_c, 0, 64, 65
1, 46559, Note_off_c, 0, 68, 61
1, 46562, Note_off_c, 0, 40, 64
1, 46568, Note_off_c, 0, 76, 64
1, 46830, Note_on_c, 0, 76, 88
1, 46837, Note_on_c, 0, 65, 79
1, 46837, Note_on_c, 0, 69, 79
1, 47127, Note_on_c, 0, 60, 86
1, 47161, Note_off_c, 0, 60, 68
1, 47440, Note_on_c, 0, 45, 78
1, 47554, Control_c, 0, 64, 49
1, 47569, Control_c, 0, 64, 57
1, 47584, Control_c, 0, 64, 61
1, 47598, Note_off_c, 0, 65, 59
1, 47599, Control_c, 0, 64, 63
1, 47614, Control_c, 0, 64, 66
1, 47614, Note_off_c, 0, 69, 56
1, 47629, Control_c, 0, 64, 68
1, 47644, Control_c, 0, 64, 71
1, 47646, Note_off_c, 0, 76, 58
1, 47658, Control_c, 0, 64, 74
1, 47673, Control_c, 0, 64, 77
1, 47688, Control_c, 0, 64, 80
1, 47703, Control_c, 0, 64, 83
1, 47718, Control_c, 0, 64, 86
1, 47732, Control_c, 0, 64, 89
1, 47745, Note_on_c, 0, 76, 76
1, 47747, Note_on_c, 0, 66, 74
1, 47747, Control_c, 0, 64, 92
1, 47751, Note_on_c, 0, 72, 60
1, 47762, Control_c, 0, 64, 93
1, 47777, Control_c, 0, 64, 93
1, 47781, Note_off_c, 0, 72, 66
1, 47791, Control_c, 0, 64, 94
1, 47796, Note_off_c, 0, 66, 55
1, 47806, Control_c, 0, 64, 94
1, 47814, Note_off_c, 0, 76, 61
1, 47820, Note_off_c, 0, 45, 62
1, 47985, Control_c, 0, 64, 93
1, 48000, Control_c, 0, 64, 91
1, 48014, Control_c, 0, 64, 87
1, 48029, Control_c, 0, 64, 81
1, 48040, Note_on_c, 0, 76, 74
1, 48044, Control_c, 0, 64, 75
1, 48051, Note_on_c, 0, 67, 67
1, 48052, Note_on_c, 0, 72, 61
1, 48058, Note_on_c, 0, 43, 71
1, 48059, Control_c, 0, 64, 68
1, 48073, Control_c, 0, 64, 63
1, 48088, Control_c, 0, 64, 61
1, 48111, Control_c, 0, 64, 59
1, 48126, Control_c, 0, 64, 57
1, 48141, Control_c, 0, 64, 57
1, 48149, Note_on_c, 0, 45, 76
1, 48150, Note_off_c, 0, 43, 62
1, 48155, Control_c, 0, 64, 56
1, 48171, Note_off_c, 0, 72, 54
1, 48198, Note_off_c, 0, 67, 57
1, 48243, Note_on_c, 0, 43, 79
1, 48243, Note_off_c, 0, 45, 63
1, 48337, Note_on_c, 0, 41, 83
1, 48342, Note_on_c, 0, 74, 83
1, 48344, Note_off_c, 0, 43, 62
1, 48346, Note_on_c, 0, 67, 65
1, 48346, Note_on_c, 0, 71, 64
1, 48347, Control_c, 0, 64, 56
1, 48374, Note_off_c, 0, 76, 59
1, 48377, Control_c, 0, 64, 55
1, 48399, Note_off_c, 0, 71, 60
1, 48406, Control_c, 0, 64, 55
1, 48422, Note_on_c, 0, 43, 78
1, 48424, Note_off_c, 0, 41, 65
1, 48425, Note_off_c, 0, 67, 53
1, 48436, Control_c, 0, 64, 54
1, 48451, Control_c, 0, 64, 54
1, 48513, Note_on_c, 0, 41, 83
1, 48529, Note_off_c, 0, 43, 61
1, 48607, Note_on_c, 0, 79, 76
1, 48612, Note_on_c, 0, 40, 79
1, 48612, Note_on_c, 0, 72, 69
1, 48613, Note_off_c, 0, 74, 63
1, 48614, Note_on_c, 0, 67, 80
1, 48624, Note_off_c, 0, 41, 63
1, 48642, Note_off_c, 0, 72, 64
1, 48651, Note_off_c, 0, 67, 63
1, 48656, Note_off_c, 0, 79, 67
1, 48699, Note_on_c, 0, 41, 82
1, 48701, Note_off_c, 0, 40, 64
1, 48792, Note_on_c, 0, 40, 78
1, 48806, Note_off_c, 0, 41, 61
1, 48900, Note_on_c, 0, 38, 79
1, 48902, Note_on_c, 0, 71, 82
1, 48907, Note_on_c, 0, 64, 80
1, 48907, Note_on_c, 0, 68, 76
1, 48909, Note_off_c, 0, 40, 61
1, 48937, Note_off_c, 0, 64, 64
1, 48945, Note_off_c, 0, 68, 60
1, 48947, Note_off_c, 0, 71, 62
1, 48976, Note_off_c, 0, 38, 63
1, 48982, Note_on_c, 0, 40, 80
1, 49008, Control_c, 0, 64, 54
1, 49081, Note_on_c, 0, 38, 80
1, 49088, Note_off_c, 0, 40, 61
1, 49097, Control_c, 0, 64, 55
1, 49126, Control_c, 0, 64, 55
1, 49187, Note_on_c, 0, 64, 78
1, 49187, Note_on_c, 0, 76, 75
1, 49190, Note_on_c, 0, 69, 76
1, 49191, Note_on_c, 0, 36, 88
1, 49215, Note_off_c, 0, 64, 67
1, 49221, Note_off_c, 0, 38, 63
1, 49224, Note_off_c, 0, 69, 65
1, 49247, Note_off_c, 0, 36, 64
1, 49248, Note_off_c, 0, 76, 64
1, 49496, Note_on_c, 0, 80, 77
1, 49505, Note_on_c, 0, 71, 66
1, 49507, Note_on_c, 0, 50, 70
1, 49510, Note_on_c, 0, 76, 64
1, 49536, Note_off_c, 0, 76, 66
1, 49540, Note_off_c, 0, 71, 62
1, 49565, Note_off_c, 0, 80, 61
1, 49578, Note_off_c, 0, 50, 62
1, 49605, Note_on_c, 0, 52, 70
1, 49623, Control_c, 0, 64, 55
1, 49690, Note_on_c, 0, 50, 71
1, 49690, Note_off_c, 0, 52, 62
1, 49782, Note_on_c, 0, 81, 81
1, 49787, Note_on_c, 0, 76, 75
1, 49790, Note_on_c, 0, 48, 82
1, 49790, Note_on_c, 0, 69, 79
1, 49796, Note_off_c, 0, 50, 64
1, 49814, Note_off_c, 0, 76, 67
1, 49817, Note_off_c, 0, 69, 64
1, 49826, Note_off_c, 0, 81, 63
1, 49860, Control_c, 0, 64, 54
1, 49880, Note_off_c, 0, 48, 62
1, 49889, Note_on_c, 0, 50, 73
1, 49934, Control_c, 0, 64, 54
1, 49981, Note_on_c, 0, 48, 78
1, 49981, Note_off_c, 0, 50, 63
1, 50082, Note_on_c, 0, 47, 72
1, 50082, Note_on_c, 0, 74, 79
1, 50088, Note_off_c, 0, 48, 62
1, 50089, Note_on_c, 0, 64, 75
1, 50094, Note_on_c, 0, 68, 65
1, 50119, Note_off_c, 0, 64, 66
1, 50121, Note_off_c, 0, 68, 67
1, 50126, Note_off_c, 0, 74, 54
1, 50163, Note_off_c, 0, 47, 63
1, 50169, Note_on_c, 0, 48, 73
1, 50263, Note_on_c, 0, 47, 70
1, 50267, Note_off_c, 0, 48, 61
1, 50357, Control_c, 0, 64, 53
1, 50360, Note_on_c, 0, 69, 69
1, 50362, Note_on_c, 0, 72, 69
1, 50365, Note_on_c, 0, 64, 66
1, 50368, Note_on_c, 0, 45, 73
1, 50374, Note_off_c, 0, 47, 63
1, 50394, Note_off_c, 0, 69, 65
1, 50408, Note_off_c, 0, 72, 63
1, 50409, Note_off_c, 0, 64, 63
1, 50451, Note_off_c, 0, 45, 63
1, 50461, Note_on_c, 0, 47, 71
1, 50547, Note_on_c, 0, 45, 72
1, 50548, Note_off_c, 0, 47, 63
1, 50641, Note_on_c, 0, 43, 70
1, 50646, Note_off_c, 0, 45, 62
1, 50655, Note_on_c, 0, 71, 74
1, 50660, Note_on_c, 0, 64, 67
1, 50666, Note_on_c, 0, 59, 70
1, 50705, Note_off_c, 0, 64, 64
1, 50708, Note_off_c, 0, 59, 58
1, 50718, Note_off_c, 0, 71, 62
1, 50722, Note_off_c, 0, 43, 63
1, 50733, Note_on_c, 0, 45, 71
1, 50828, Note_on_c, 0, 43, 73
1, 50829, Note_off_c, 0, 45, 62
1, 50937, Note_on_c, 0, 63, 72
1, 50938, Note_on_c, 0, 69, 74
1, 50939, Note_on_c, 0, 42, 73
1, 50946, Note_on_c, 0, 59, 67
1, 50947, Note_off_c, 0, 43, 62
1, 50985, Note_off_c, 0, 59, 64
1, 50992, Note_off_c, 0, 63, 63
1, 51000, Note_off_c, 0, 69, 62
1, 51032, Note_on_c, 0, 43, 70
1, 51033, Note_off_c, 0, 42, 62
1, 51123, Note_on_c, 0, 42, 73
1, 51133, Note_off_c, 0, 43, 60
1, 51228, Note_on_c, 0, 64, 78
1, 51230, Note_on_c, 0, 61, 82
1, 51231, Note_on_c, 0, 69, 78
1, 51233, Note_on_c, 0, 40, 80
1, 51244, Note_off_c, 0, 42, 63
1, 51258, Note_off_c, 0, 64, 66
1, 51275, Note_off_c, 0, 61, 63
1, 51288, Note_off_c, 0, 69, 62
1, 51311, Note_off_c, 0, 40, 61
1, 51315, Note_on_c, 0, 42, 88
1, 51417, Note_on_c, 0, 40, 72
1, 51443, Note_off_c, 0, 42, 63
1, 51462, Control_c, 0, 64, 54
1, 51511, Note_on_c, 0, 69, 87
1, 51513, Note_on_c, 0, 63, 88
1, 51513, Note_on_c, 0, 66, 88
1, 51517, Note_on_c, 0, 39, 87
1, 51537, Note_off_c, 0, 40, 61
1, 51552, Note_off_c, 0, 63, 66
1, 51555, Note_off_c, 0, 66, 65
1, 51560, Note_off_c, 0, 69, 64
1, 51603, Note_on_c, 0, 40, 81
1, 51606, Note_off_c, 0, 39, 63
1, 51624, Control_c, 0, 64, 53
1, 51698, Note_on_c, 0, 39, 84
1, 51715, Note_off_c, 0, 40, 60
1, 51793, Note_on_c, 0, 37, 81
1, 51795, Note_on_c, 0, 70, 97
1, 51796, Note_on_c, 0, 66, 95
1, 51796, Note_on_c, 0, 64, 92
1, 51822, Note_off_c, 0, 39, 60
1, 51826, Note_off_c, 0, 64, 66
1, 51843, Note_off_c, 0, 66, 64
1, 51864, Note_off_c, 0, 70, 64
1, 51871, Note_on_c, 0, 39, 82
1, 51880, Note_off_c, 0, 37, 62
1, 51900, Control_c, 0, 64, 54
1, 51977, Note_on_c, 0, 37, 81
1, 51999, Note_off_c, 0, 39, 62
1, 52108, Control_c, 0, 64, 53
1, 52118, Note_on_c, 0, 35, 88
1, 52121, Note_on_c, 0, 63, 94
1, 52121, Note_on_c, 0, 66, 88
1, 52121, Note_on_c, 0, 71, 91
1, 52135, Note_off_c, 0, 37, 63
1, 52152, Control_c, 0, 64, 53
1, 52196, Control_c, 0, 64, 52
1, 52233, Note_off_c, 0, 35, 56
1, 52258, Note_off_c, 0, 63, 63
1, 52258, Note_off_c, 0, 66, 57
1, 52260, Note_off_c, 0, 71, 59
1, 52434, Control_c, 0, 64, 51
1, 52436, Note_on_c, 0, 47, 90
1, 52440, Note_on_c, 0, 35, 85
1, 52440, Note_on_c, 0, 39, 88
1, 52448, Control_c, 0, 64, 49
1, 52463, Control_c, 0, 64, 44
1, 52478, Control_c, 0, 64, 38
1, 52493, Control_c, 0, 64, 0
1, 52551, Note_off_c, 0, 39, 63
1, 52570, Note_off_c, 0, 35, 61
1, 52586, Note_off_c, 0, 47, 53
1, 52808, Note_on_c, 0, 47, 91
1, 52814, Note_on_c, 0, 40, 74
1, 52816, Note_on_c, 0, 36, 82
1, 52958, Note_on_c, 0, 78, 75
1, 53062, Note_on_c, 0, 79, 73
1, 53082, Note_off_c, 0, 78, 57
1, 53175, Note_off_c, 0, 79, 64
1, 53180, Note_on_c, 0, 81, 76
1, 53279, Note_on_c, 0, 79, 74
1, 53284, Note_off_c, 0, 81, 63
1, 53373, Note_on_c, 0, 78, 78
1, 53386, Note_off_c, 0, 79, 65
1, 53459, Note_off_c, 0, 78, 63
1, 53464, Note_on_c, 0, 79, 74
1, 53547, Note_on_c, 0, 76, 79
1, 53561, Note_off_c, 0, 79, 65
1, 53630, Note_on_c, 0, 74, 83
1, 53656, Note_off_c, 0, 76, 60
1, 53708, Note_off_c, 0, 74, 61
1, 53714, Note_on_c, 0, 72, 80
1, 53791, Note_off_c, 0, 72, 54
1, 53796, Note_on_c, 0, 71, 79
1, 53886, Control_c, 0, 67, 38
1, 53889, Note_on_c, 0, 69, 73
1, 53896, Note_off_c, 0, 71, 60
1, 53901, Control_c, 0, 67, 45
1, 53916, Control_c, 0, 67, 48
1, 53960, Control_c, 0, 67, 47
1, 53969, Note_off_c, 0, 69, 59
1, 53975, Control_c, 0, 67, 46
1, 53990, Control_c, 0, 67, 46
1, 53996, Note_on_c, 0, 46, 78
1, 54012, Note_on_c, 0, 67, 64
1, 54019, Control_c, 0, 67, 45
1, 54049, Control_c, 0, 67, 45
1, 54068, Note_off_c, 0, 67, 52
1, 54079, Control_c, 0, 67, 44
1, 54099, Note_off_c, 0, 47, 52
1, 54109, Note_on_c, 0, 66, 67
1, 54115, Control_c, 0, 67, 43
1, 54145, Control_c, 0, 67, 43
1, 54190, Control_c, 0, 67, 42
1, 54193, Note_off_c, 0, 66, 61
1, 54211, Note_on_c, 0, 64, 62
1, 54264, Control_c, 0, 67, 42
1, 54293, Note_off_c, 0, 64, 56
1, 54310, Note_on_c, 0, 63, 64
1, 54339, Control_c, 0, 67, 42
1, 54389, Note_off_c, 0, 63, 63
1, 54392, Note_off_c, 0, 40, 61
1, 54395, Note_on_c, 0, 66, 70
1, 54401, Note_off_c, 0, 36, 61
1, 54482, Note_off_c, 0, 66, 62
1, 54485, Note_on_c, 0, 64, 65
1, 54586, Note_off_c, 0, 46, 62
1, 54605, Control_c, 0, 67, 43
1, 54609, Note_on_c, 0, 59, 65
1, 54616, Note_on_c, 0, 47, 55
1, 54619, Note_on_c, 0, 35, 62
1, 54619, Note_on_c, 0, 39, 62
1, 54620, Control_c, 0, 67, 43
1, 54661, Note_off_c, 0, 35, 65
1, 54664, Note_off_c, 0, 39, 64
1, 54670, Note_off_c, 0, 64, 52
1, 54679, Note_off_c, 0, 47, 62
1, 54679, Control_c, 0, 67, 44
1, 54753, Control_c, 0, 67, 43
1, 54765, Note_off_c, 0, 59, 65
1, 54768, Control_c, 0, 67, 43
1, 54783, Control_c, 0, 67, 41
1, 54798, Control_c, 0, 67, 38
1, 54813, Control_c, 0, 67, 33
1, 54828, Control_c, 0, 67, 0
1, 54922, Note_on_c, 0, 47, 64
1, 54922, Note_on_c, 0, 59, 86
1, 54927, Note_on_c, 0, 51, 77
1, 55023, Note_off_c, 0, 51, 63
1, 55025, Note_off_c, 0, 47, 63
1, 55027, Note_off_c, 0, 59, 57
1, 55073, Control_c, 0, 64, 27
1, 55088, Control_c, 0, 64, 29
1, 55118, Control_c, 0, 64, 32
1, 55133, Control_c, 0, 64, 33
1, 55147, Control_c, 0, 64, 34
1, 55162, Control_c, 0, 64, 35
1, 55251, Control_c, 0, 64, 34
1, 55272, Note_on_c, 0, 59, 74
1, 55281, Control_c, 0, 64, 34
1, 55284, Note_on_c, 0, 52, 62
1, 55285, Note_on_c, 0, 48, 66
1, 55296, Control_c, 0, 64, 33
1, 55340, Control_c, 0, 64, 33
1, 55399, Note_on_c, 0, 90, 68
1, 55414, Control_c, 0, 64, 32
1, 55444, Control_c, 0, 64, 32
1, 55487, Note_on_c, 0, 91, 73
1, 55487, Note_off_c, 0, 90, 64
1, 55585, Note_off_c, 0, 91, 67
1, 55602, Note_on_c, 0, 93, 72
1, 55691, Note_on_c, 0, 91, 71
1, 55697, Note_off_c, 0, 93, 62
1, 55775, Note_on_c, 0, 90, 69
1, 55778, Note_off_c, 0, 91, 67
1, 55843, Note_off_c, 0, 90, 64
1, 55859, Note_on_c, 0, 91, 71
1, 55950, Note_on_c, 0, 88, 72
1, 55956, Note_off_c, 0, 91, 66
1, 56038, Note_on_c, 0, 86, 72
1, 56047, Note_off_c, 0, 88, 61
1, 56101, Note_off_c, 0, 86, 64
1, 56131, Note_on_c, 0, 84, 63
1, 56174, Note_off_c, 0, 84, 59
1, 56208, Control_c, 0, 67, 36
1, 56216, Note_on_c, 0, 83, 64
1, 56222, Control_c, 0, 67, 56
1, 56237, Control_c, 0, 67, 73
1, 56252, Control_c, 0, 67, 87
1, 56267, Control_c, 0, 67, 95
1, 56282, Control_c, 0, 67, 104
1, 56291, Note_off_c, 0, 83, 61
1, 56296, Control_c, 0, 67, 111
1, 56299, Note_on_c, 0, 81, 63
1, 56311, Control_c, 0, 67, 116
1, 56348, Control_c, 0, 67, 119
1, 56363, Note_off_c, 0, 81, 62
1, 56410, Note_on_c, 0, 79, 56
1, 56426, Note_on_c, 0, 58, 48
1, 56443, Note_off_c, 0, 79, 61
1, 56451, Note_off_c, 0, 59, 54
1, 56496, Note_on_c, 0, 78, 57
1, 56569, Control_c, 0, 64, 33
1, 56572, Note_off_c, 0, 78, 55
1, 56584, Control_c, 0, 64, 35
1, 56598, Note_on_c, 0, 76, 58
1, 56599, Control_c, 0, 64, 38
1, 56615, Control_c, 0, 64, 42
1, 56630, Control_c, 0, 64, 48
1, 56644, Control_c, 0, 64, 54
1, 56646, Note_off_c, 0, 76, 51
1, 56659, Control_c, 0, 64, 58
1, 56674, Control_c, 0, 64, 60
1, 56689, Control_c, 0, 64, 61
1, 56704, Control_c, 0, 64, 64
1, 56706, Note_on_c, 0, 75, 61
1, 56718, Control_c, 0, 64, 66
1, 56733, Control_c, 0, 64, 69
1, 56745, Note_off_c, 0, 52, 61
1, 56748, Control_c, 0, 64, 70
1, 56760, Note_off_c, 0, 75, 61
1, 56763, Control_c, 0, 64, 72
1, 56763, Control_c, 0, 67, 121
1, 56764, Note_off_c, 0, 48, 61
1, 56777, Control_c, 0, 64, 73
1, 56780, Note_off_c, 0, 58, 63
1, 56790, Note_on_c, 0, 78, 56
1, 56792, Control_c, 0, 64, 75
1, 56792, Control_c, 0, 67, 123
1, 56807, Control_c, 0, 64, 76
1, 56822, Control_c, 0, 64, 77
1, 56837, Control_c, 0, 64, 77
1, 56837, Control_c, 0, 67, 127
1, 56865, Note_off_c, 0, 78, 57
1, 56867, Control_c, 0, 64, 78
1, 56873, Note_on_c, 0, 76, 58
1, 56983, Note_off_c, 0, 76, 61
1, 56985, Control_c, 0, 64, 77
1, 57014, Note_on_c, 0, 47, 47
1, 57015, Control_c, 0, 64, 77
1, 57016, Note_on_c, 0, 59, 44
1, 57016, Note_on_c, 0, 71, 52
1, 57018, Note_on_c, 0, 51, 43
1, 57030, Control_c, 0, 64, 75
1, 57044, Control_c, 0, 64, 71
1, 57059, Control_c, 0, 64, 64
1, 57074, Control_c, 0, 64, 56
1, 57096, Note_off_c, 0, 71, 53
1, 57096, Control_c, 0, 64, 44
1, 57111, Control_c, 0, 64, 38
1, 57126, Control_c, 0, 64, 40
1, 57128, Note_on_c, 0, 75, 57
1, 57141, Control_c, 0, 64, 48
1, 57156, Control_c, 0, 64, 54
1, 57165, Note_off_c, 0, 75, 62
1, 57170, Control_c, 0, 64, 57
1, 57185, Control_c, 0, 64, 60
1, 57200, Control_c, 0, 64, 63
1, 57215, Control_c, 0, 64, 65
1, 57217, Note_on_c, 0, 71, 55
1, 57230, Control_c, 0, 64, 67
1, 57239, Note_off_c, 0, 71, 61
1, 57244, Control_c, 0, 64, 69
1, 57259, Control_c, 0, 64, 70
1, 57274, Control_c, 0, 64, 71
1, 57289, Control_c, 0, 64, 72
1, 57294, Note_off_c, 0, 59, 61
1, 57303, Control_c, 0, 64, 72
1, 57311, Note_on_c, 0, 66, 67
1, 57356, Note_off_c, 0, 51, 53
1, 57364, Note_off_c, 0, 47, 62
1, 57397, Note_off_c, 0, 66, 58
1, 57398, Note_on_c, 0, 63, 65
1, 57453, Control_c, 0, 64, 72
1, 57462, Note_off_c, 0, 63, 62
1, 57467, Control_c, 0, 64, 71
1, 57482, Control_c, 0, 64, 71
1, 57487, Note_on_c, 0, 59, 76
1, 57497, Control_c, 0, 64, 70
1, 57512, Control_c, 0, 64, 70
1, 57527, Control_c, 0, 64, 69
1, 57541, Control_c, 0, 64, 68
1, 57556, Control_c, 0, 64, 67
1, 57571, Control_c, 0, 64, 67
1, 57571, Control_c, 0, 67, 119
1, 57585, Control_c, 0, 64, 66
1, 57585, Control_c, 0, 67, 107
1, 57600, Control_c, 0, 64, 65
1, 57600, Control_c, 0, 67, 91
1, 57615, Control_c, 0, 64, 64
1, 57615, Control_c, 0, 67, 72
1, 57630, Control_c, 0, 64, 64
1, 57630, Control_c, 0, 67, 50
1, 57645, Control_c, 0, 64, 63
1, 57645, Control_c, 0, 67, 0
1, 57660, Control_c, 0, 64, 62
1, 57663, Note_on_c, 0, 54, 61
1, 57664, Note_on_c, 0, 60, 65
1, 57666, Note_on_c, 0, 48, 74
1, 57672, Note_off_c, 0, 59, 57
1, 57675, Note_on_c, 0, 51, 66
1, 57675, Control_c, 0, 64, 61
1, 57690, Control_c, 0, 64, 60
1, 57704, Control_c, 0, 64, 57
1, 57719, Control_c, 0, 64, 52
1, 57734, Control_c, 0, 64, 44
1, 57749, Control_c, 0, 64, 0
1, 57791, Note_off_c, 0, 60, 59
1, 57809, Note_on_c, 0, 66, 64
1, 57874, Control_c, 0, 64, 36
1, 57889, Control_c, 0, 64, 47
1, 57904, Note_on_c, 0, 63, 64
1, 57904, Control_c, 0, 64, 55
1, 57907, Note_off_c, 0, 66, 58
1, 57919, Control_c, 0, 64, 59
1, 57934, Control_c, 0, 64, 61
1, 57949, Control_c, 0, 64, 62
1, 57964, Control_c, 0, 64, 63
1, 57979, Control_c, 0, 64, 65
1, 57988, Note_off_c, 0, 63, 61
1, 57993, Control_c, 0, 64, 66
1, 58002, Note_on_c, 0, 60, 60
1, 58008, Control_c, 0, 64, 68
1, 58023, Control_c, 0, 64, 68
1, 58053, Control_c, 0, 64, 69
1, 58065, Note_off_c, 0, 60, 62
1, 58104, Note_on_c, 0, 66, 63
1, 58174, Note_off_c, 0, 66, 57
1, 58177, Note_on_c, 0, 63, 58
1, 58281, Note_on_c, 0, 59, 66
1, 58286, Note_off_c, 0, 63, 59
1, 58292, Note_on_c, 0, 47, 76
1, 58310, Note_off_c, 0, 48, 58
1, 58320, Control_c, 0, 64, 68
1, 58334, Control_c, 0, 64, 66
1, 58349, Control_c, 0, 64, 63
1, 58361, Note_off_c, 0, 59, 60
1, 58364, Control_c, 0, 64, 55
1, 58379, Control_c, 0, 64, 41
1, 58387, Note_on_c, 0, 66, 64
1, 58394, Control_c, 0, 64, 0
1, 58468, Control_c, 0, 64, 40
1, 58480, Note_on_c, 0, 63, 66
1, 58481, Note_off_c, 0, 66, 61
1, 58482, Control_c, 0, 64, 53
1, 58497, Control_c, 0, 64, 60
1, 58512, Control_c, 0, 64, 63
1, 58527, Control_c, 0, 64, 65
1, 58542, Control_c, 0, 64, 67
1, 58557, Control_c, 0, 64, 69
1, 58566, Note_off_c, 0, 63, 61
1, 58569, Note_on_c, 0, 59, 64
1, 58572, Control_c, 0, 64, 72
1, 58594, Control_c, 0, 64, 74
1, 58609, Control_c, 0, 64, 76
1, 58623, Control_c, 0, 64, 78
1, 58635, Note_off_c, 0, 47, 62
1, 58638, Control_c, 0, 64, 79
1, 58649, Note_off_c, 0, 59, 60
1, 58653, Note_off_c, 0, 51, 60
1, 58653, Control_c, 0, 64, 79
1, 58656, Note_off_c, 0, 54, 51
1, 58667, Control_c, 0, 64, 80
1, 58677, Note_on_c, 0, 66, 70
1, 58682, Control_c, 0, 64, 80
1, 58759, Note_on_c, 0, 63, 69
1, 58795, Note_off_c, 0, 66, 58
1, 58875, Control_c, 0, 64, 80
1, 58877, Note_off_c, 0, 63, 61
1, 58879, Note_on_c, 0, 58, 67
1, 58889, Control_c, 0, 64, 79
1, 58904, Note_on_c, 0, 42, 68
1, 58904, Note_on_c, 0, 49, 61
1, 58904, Note_on_c, 0, 54, 60
1, 58904, Control_c, 0, 64, 79
1, 58919, Control_c, 0, 64, 77
1, 58934, Control_c, 0, 64, 74
1, 58948, Control_c, 0, 64, 69
1, 58961, Note_off_c, 0, 58, 59
1, 58963, Control_c, 0, 64, 62
1, 58978, Control_c, 0, 64, 46
1, 58979, Note_on_c, 0, 66, 65
1, 58993, Control_c, 0, 64, 0
1, 59068, Control_c, 0, 64, 34
1, 59072, Note_off_c, 0, 66, 61
1, 59083, Control_c, 0, 64, 50
1, 59086, Note_on_c, 0, 64, 64
1, 59098, Control_c, 0, 64, 58
1, 59112, Control_c, 0, 64, 62
1, 59127, Control_c, 0, 64, 64
1, 59142, Control_c, 0, 64, 65
1, 59157, Control_c, 0, 64, 67
1, 59169, Note_off_c, 0, 64, 63
1, 59171, Control_c, 0, 64, 69
1, 59176, Note_on_c, 0, 58, 68
1, 59176, Note_off_c, 0, 49, 60
1, 59186, Control_c, 0, 64, 71
1, 59201, Control_c, 0, 64, 73
1, 59216, Control_c, 0, 64, 75
1, 59231, Control_c, 0, 64, 76
1, 59240, Note_off_c, 0, 58, 58
1, 59246, Control_c, 0, 64, 77
1, 59257, Note_off_c, 0, 54, 37
1, 59273, Note_on_c, 0, 66, 69
1, 59378, Note_on_c, 0, 64, 61
1, 59403, Note_off_c, 0, 66, 40
1, 59445, Control_c, 0, 64, 76
1, 59460, Note_off_c, 0, 64, 62
1, 59460, Control_c, 0, 64, 75
1, 59475, Control_c, 0, 64, 74
1, 59489, Note_on_c, 0, 59, 60
1, 59490, Control_c, 0, 64, 71
1, 59502, Note_on_c, 0, 51, 55
1, 59502, Note_on_c, 0, 54, 52
1, 59505, Control_c, 0, 64, 67
1, 59511, Note_on_c, 0, 47, 48
1, 59520, Control_c, 0, 64, 61
1, 59535, Control_c, 0, 64, 48
1, 59535, Note_off_c, 0, 42, 39
1, 59547, Note_off_c, 0, 59, 56
1, 59550, Control_c, 0, 64, 0
1, 59609, Control_c, 0, 64, 28
1, 59621, Note_on_c, 0, 64, 46
1, 59624, Control_c, 0, 64, 45
1, 59638, Control_c, 0, 64, 57
1, 59646, Note_off_c, 0, 54, 59
1, 59653, Control_c, 0, 64, 62
1, 59668, Control_c, 0, 64, 64
1, 59671, Note_off_c, 0, 64, 63
1, 59672, Note_off_c, 0, 51, 60
1, 59682, Control_c, 0, 64, 65
1, 59686, Note_on_c, 0, 59, 55
1, 59697, Control_c, 0, 64, 67
1, 59712, Note_off_c, 0, 47, 58
1, 59712, Control_c, 0, 64, 69
1, 59727, Control_c, 0, 64, 70
1, 59742, Control_c, 0, 64, 72
1, 59757, Control_c, 0, 64, 72
1, 59771, Control_c, 0, 64, 73
1, 59786, Control_c, 0, 67, 35
1, 59788, Note_on_c, 0, 54, 59
1, 59791, Note_off_c, 0, 59, 64
1, 59801, Control_c, 0, 67, 43
1, 59817, Control_c, 0, 67, 49
1, 59832, Control_c, 0, 67, 51
1, 59847, Control_c, 0, 67, 52
1, 59862, Note_off_c, 0, 54, 57
1, 59869, Note_on_c, 0, 51, 61
1, 59891, Control_c, 0, 67, 51
1, 59920, Control_c, 0, 67, 50
1, 59935, Control_c, 0, 67, 50
1, 59950, Control_c, 0, 64, 72
1, 59950, Control_c, 0, 67, 49
1, 59958, Note_on_c, 0, 47, 67
1, 59960, Note_off_c, 0, 51, 62
1, 59965, Control_c, 0, 67, 49
1, 59980, Control_c, 0, 67, 48
1, 59994, Control_c, 0, 67, 48
1, 60009, Control_c, 0, 64, 72
1, 60009, Control_c, 0, 67, 47
1, 60024, Control_c, 0, 67, 46
1, 60039, Control_c, 0, 64, 71
1, 60039, Control_c, 0, 67, 46
1, 60048, Note_off_c, 0, 47, 59
1, 60054, Control_c, 0, 64, 71
1, 60054, Control_c, 0, 67, 45
1, 60068, Control_c, 0, 64, 70
1, 60068, Control_c, 0, 67, 44
1, 60091, Control_c, 0, 64, 69
1, 60091, Control_c, 0, 67, 43
1, 60106, Control_c, 0, 64, 68
1, 60117, Note_on_c, 0, 48, 77
1, 60120, Control_c, 0, 64, 66
1, 60121, Note_on_c, 0, 36, 77
1, 60135, Control_c, 0, 64, 64
1, 60150, Control_c, 0, 64, 61
1, 60165, Control_c, 0, 64, 56
1, 60180, Control_c, 0, 64, 47
1, 60194, Control_c, 0, 64, 28
1, 60209, Control_c, 0, 64, 0
1, 60209, Control_c, 0, 67, 43
1, 60235, Note_off_c, 0, 48, 60
1, 60244, Note_on_c, 0, 54, 56
1, 60268, Control_c, 0, 67, 42
1, 60313, Control_c, 0, 67, 42
1, 60335, Note_off_c, 0, 54, 58
1, 60336, Note_on_c, 0, 51, 61
1, 60343, Control_c, 0, 67, 41
1, 60357, Control_c, 0, 64, 32
1, 60372, Control_c, 0, 64, 40
1, 60387, Control_c, 0, 64, 45
1, 60402, Control_c, 0, 64, 48
1, 60402, Control_c, 0, 67, 41
1, 60417, Control_c, 0, 64, 49
1, 60424, Note_off_c, 0, 51, 58
1, 60428, Note_on_c, 0, 48, 64
1, 60432, Control_c, 0, 64, 49
1, 60447, Control_c, 0, 64, 51
1, 60461, Control_c, 0, 64, 53
1, 60476, Control_c, 0, 64, 53
1, 60491, Control_c, 0, 64, 54
1, 60504, Note_off_c, 0, 48, 58
1, 60506, Control_c, 0, 67, 40
1, 60539, Note_on_c, 0, 54, 53
1, 60550, Control_c, 0, 67, 39
1, 60579, Control_c, 0, 64, 53
1, 60618, Note_off_c, 0, 54, 55
1, 60625, Control_c, 0, 64, 53
1, 60625, Control_c, 0, 67, 39
1, 60634, Note_on_c, 0, 51, 49
1, 60670, Control_c, 0, 64, 52
1, 60670, Control_c, 0, 67, 38
1, 60714, Control_c, 0, 64, 52
1, 60730, Note_off_c, 0, 51, 57
1, 60735, Note_on_c, 0, 47, 55
1, 60743, Control_c, 0, 64, 51
1, 60746, Note_on_c, 0, 35, 73
1, 60758, Control_c, 0, 64, 51
1, 60758, Control_c, 0, 67, 38
1, 60773, Control_c, 0, 64, 50
1, 60776, Note_off_c, 0, 36, 63
1, 60788, Control_c, 0, 64, 49
1, 60803, Control_c, 0, 64, 48
1, 60803, Control_c, 0, 67, 37
1, 60814, Note_off_c, 0, 47, 57
1, 60817, Control_c, 0, 64, 46
1, 60840, Control_c, 0, 64, 46
1, 60855, Control_c, 0, 64, 45
1, 60855, Note_on_c, 0, 54, 53
1, 60870, Control_c, 0, 64, 43
1, 60870, Control_c, 0, 67, 37
1, 60885, Control_c, 0, 64, 42
1, 60885, Control_c, 0, 67, 36
1, 60899, Control_c, 0, 64, 40
1, 60899, Control_c, 0, 67, 35
1, 60914, Control_c, 0, 64, 39
1, 60929, Control_c, 0, 64, 39
1, 60929, Control_c, 0, 67, 35
1, 60943, Control_c, 0, 64, 38
1, 60943, Control_c, 0, 67, 34
1, 60946, Note_off_c, 0, 54, 58
1, 60954, Note_on_c, 0, 51, 57
1, 60958, Control_c, 0, 64, 37
1, 60958, Control_c, 0, 67, 34
1, 60973, Control_c, 0, 64, 37
1, 60973, Control_c, 0, 67, 33
1, 60988, Control_c, 0, 67, 0
1, 61017, Control_c, 0, 64, 36
1, 61029, Note_off_c, 0, 51, 52
1, 61041, Note_on_c, 0, 47, 56
1, 61062, Control_c, 0, 64, 36
1, 61091, Control_c, 0, 64, 35
1, 61106, Control_c, 0, 64, 35
1, 61119, Note_off_c, 0, 47, 58
1, 61135, Control_c, 0, 64, 34
1, 61160, Note_on_c, 0, 54, 53
1, 61165, Control_c, 0, 64, 34
1, 61225, Control_c, 0, 64, 33
1, 61248, Note_on_c, 0, 51, 52
1, 61252, Note_off_c, 0, 54, 54
1, 61299, Control_c, 0, 64, 33
1, 61328, Note_off_c, 0, 51, 56
1, 61345, Note_on_c, 0, 30, 65
1, 61346, Note_on_c, 0, 46, 60
1, 61388, Control_c, 0, 64, 32
1, 61418, Note_off_c, 0, 35, 59
1, 61419, Control_c, 0, 64, 30
1, 61432, Note_off_c, 0, 46, 55
1, 61433, Control_c, 0, 64, 28
1, 61448, Control_c, 0, 64, 0
1, 61459, Note_on_c, 0, 54, 57
1, 61531, Note_off_c, 0, 54, 59
1, 61552, Control_c, 0, 67, 33
1, 61553, Note_on_c, 0, 52, 58
1, 61633, Note_off_c, 0, 52, 59
1, 61657, Note_on_c, 0, 46, 52
1, 61710, Note_off_c, 0, 46, 57
1, 61750, Note_on_c, 0, 54, 55
1, 61821, Note_off_c, 0, 54, 61
1, 61845, Note_on_c, 0, 52, 52
1, 61856, Control_c, 0, 67, 34
1, 61916, Note_off_c, 0, 52, 57
1, 61946, Note_on_c, 0, 47, 49
1, 61970, Note_on_c, 0, 35, 56
1, 61982, Note_off_c, 0, 30, 55
1, 62003, Note_off_c, 0, 47, 57
1, 62059, Note_on_c, 0, 54, 48
1, 62121, Note_off_c, 0, 54, 55
1, 62155, Note_on_c, 0, 51, 47
1, 62221, Note_off_c, 0, 51, 50
1, 62254, Note_on_c, 0, 47, 48
1, 62286, Control_c, 0, 67, 33
1, 62313, Note_off_c, 0, 47, 57
1, 62375, Note_on_c, 0, 54, 45
1, 62382, Control_c, 0, 67, 34
1, 62412, Control_c, 0, 67, 34
1, 62427, Control_c, 0, 67, 36
1, 62442, Control_c, 0, 67, 38
1, 62449, Note_off_c, 0, 54, 54
1, 62457, Control_c, 0, 67, 39
1, 62468, Note_on_c, 0, 51, 44
1, 62471, Control_c, 0, 67, 41
1, 62486, Control_c, 0, 67, 42
1, 62501, Control_c, 0, 67, 43
1, 62516, Control_c, 0, 67, 45
1, 62531, Control_c, 0, 67, 46
1, 62538, Note_off_c, 0, 51, 54
1, 62545, Control_c, 0, 64, 30
1, 62545, Control_c, 0, 67, 48
1, 62556, Note_on_c, 0, 46, 51
1, 62560, Control_c, 0, 64, 34
1, 62560, Control_c, 0, 67, 50
1, 62572, Note_on_c, 0, 30, 49
1, 62575, Control_c, 0, 64, 37
1, 62575, Control_c, 0, 67, 51
1, 62590, Control_c, 0, 64, 41
1, 62590, Control_c, 0, 67, 52
1, 62599, Note_off_c, 0, 35, 53
1, 62605, Control_c, 0, 64, 45
1, 62605, Control_c, 0, 67, 53
1, 62620, Control_c, 0, 64, 49
1, 62620, Control_c, 0, 67, 54
1, 62629, Note_off_c, 0, 46, 53
1, 62635, Control_c, 0, 64, 52
1, 62635, Control_c, 0, 67, 56
1, 62650, Control_c, 0, 64, 55
1, 62650, Control_c, 0, 67, 60
1, 62660, Note_on_c, 0, 54, 52
1, 62664, Control_c, 0, 64, 57
1, 62664, Control_c, 0, 67, 82
1, 62679, Control_c, 0, 64, 58
1, 62679, Control_c, 0, 67, 107
1, 62694, Control_c, 0, 64, 59
1, 62694, Control_c, 0, 67, 121
1, 62708, Control_c, 0, 64, 59
1, 62708, Control_c, 0, 67, 127
1, 62723, Control_c, 0, 64, 60
1, 62733, Note_off_c, 0, 54, 58
1, 62757, Note_on_c, 0, 52, 48
1, 62827, Note_off_c, 0, 52, 53
1, 62842, Control_c, 0, 64, 59
1, 62853, Note_on_c, 0, 46, 52
1, 62871, Control_c, 0, 64, 59
1, 62886, Control_c, 0, 64, 58
1, 62901, Control_c, 0, 64, 57
1, 62909, Note_off_c, 0, 46, 56
1, 62915, Control_c, 0, 64, 57
1, 62930, Control_c, 0, 64, 56
1, 62945, Control_c, 0, 64, 55
1, 62957, Note_on_c, 0, 55, 48
1, 62960, Control_c, 0, 64, 54
1, 62975, Control_c, 0, 64, 53
1, 62990, Control_c, 0, 64, 52
1, 63005, Control_c, 0, 64, 52
1, 63020, Control_c, 0, 64, 51
1, 63027, Note_off_c, 0, 55, 55
1, 63035, Control_c, 0, 64, 51
1, 63050, Control_c, 0, 64, 50
1, 63059, Note_on_c, 0, 52, 45
1, 63065, Control_c, 0, 64, 50
1, 63087, Control_c, 0, 64, 49
1, 63102, Control_c, 0, 64, 48
1, 63117, Control_c, 0, 64, 48
1, 63131, Control_c, 0, 64, 47
1, 63138, Note_off_c, 0, 52, 53
1, 63146, Control_c, 0, 64, 47
1, 63160, Control_c, 0, 64, 46
1, 63166, Note_on_c, 0, 47, 42
1, 63175, Control_c, 0, 64, 45
1, 63183, Note_on_c, 0, 35, 49
1, 63190, Control_c, 0, 64, 45
1, 63204, Control_c, 0, 64, 44
1, 63219, Control_c, 0, 64, 44
1, 63224, Note_off_c, 0, 47, 58
1, 63237, Note_off_c, 0, 30, 42
1, 63273, Note_on_c, 0, 54, 44
1, 63279, Control_c, 0, 64, 43
1, 63338, Control_c, 0, 64, 43
1, 63362, Note_off_c, 0, 54, 54
1, 63377, Note_on_c, 0, 52, 46
1, 63455, Note_off_c, 0, 52, 53
1, 63471, Control_c, 0, 64, 42
1, 63472, Note_on_c, 0, 47, 44
1, 63516, Control_c, 0, 64, 42
1, 63522, Note_off_c, 0, 47, 59
1, 63569, Note_on_c, 0, 54, 46
1, 63664, Note_off_c, 0, 54, 50
1, 63685, Note_on_c, 0, 51, 41
1, 63750, Note_off_c, 0, 51, 56
1, 63773, Note_on_c, 0, 46, 46
1, 63783, Note_on_c, 0, 30, 39
1, 63797, Control_c, 0, 64, 42
1, 63833, Note_off_c, 0, 35, 50
1, 63848, Note_off_c, 0, 46, 52
1, 63880, Control_c, 0, 64, 43
1, 63889, Note_on_c, 0, 54, 47
1, 63956, Note_off_c, 0, 54, 56
1, 63985, Note_on_c, 0, 52, 50
1, 64077, Note_off_c, 0, 52, 56
1, 64089, Note_on_c, 0, 46, 51
1, 64174, Note_off_c, 0, 46, 39
1, 64212, Note_on_c, 0, 55, 43
1, 64250, Control_c, 0, 64, 43
1, 64295, Note_off_c, 0, 55, 56
1, 64327, Note_on_c, 0, 52, 44
1, 64465, Note_off_c, 0, 52, 56
1, 64500, Note_on_c, 0, 54, 40
1, 64500, Note_off_c, 0, 30, 42
1, 64504, Note_on_c, 0, 51, 43
1, 64530, Note_on_c, 0, 35, 39
1, 64583, Control_c, 0, 64, 43
1, 64592, Note_off_c, 0, 51, 59
1, 64636, Note_on_c, 0, 47, 46
1, 64702, Note_off_c, 0, 47, 49
1, 64738, Note_on_c, 0, 46, 50
1, 64778, Control_c, 0, 64, 42
1, 64792, Note_off_c, 0, 46, 59
1, 64825, Note_on_c, 0, 47, 56
1, 64837, Control_c, 0, 64, 42
1, 64844, Note_off_c, 0, 54, 36
1, 64852, Control_c, 0, 64, 41
1, 64873, Note_off_c, 0, 47, 59
1, 64896, Control_c, 0, 64, 41
1, 64923, Note_on_c, 0, 51, 59
1, 64945, Note_off_c, 0, 35, 57
1, 64984, Control_c, 0, 64, 40
1, 64997, Note_off_c, 0, 51, 61
1, 64999, Control_c, 0, 64, 40
1, 65008, Note_on_c, 0, 50, 59
1, 65029, Control_c, 0, 64, 39
1, 65044, Control_c, 0, 64, 39
1, 65058, Control_c, 0, 64, 38
1, 65073, Control_c, 0, 64, 37
1, 65085, Note_off_c, 0, 50, 51
1, 65088, Control_c, 0, 64, 37
1, 65103, Control_c, 0, 64, 36
1, 65109, Note_on_c, 0, 51, 70
1, 65118, Control_c, 0, 64, 36
1, 65148, Control_c, 0, 64, 35
1, 65163, Control_c, 0, 64, 35
1, 65202, Note_on_c, 0, 54, 61
1, 65204, Note_off_c, 0, 51, 59
1, 65236, Control_c, 0, 64, 34
1, 65264, Note_off_c, 0, 54, 62
1, 65285, Note_on_c, 0, 53, 68
1, 65296, Control_c, 0, 64, 34
1, 65362, Control_c, 0, 67, 109
1, 65377, Control_c, 0, 64, 33
1, 65377, Control_c, 0, 67, 87
1, 65386, Note_on_c, 0, 54, 64
1, 65392, Control_c, 0, 67, 65
1, 65400, Note_off_c, 0, 53, 50
1, 65407, Control_c, 0, 67, 42
1, 65422, Control_c, 0, 67, 0
1, 65472, Note_off_c, 0, 54, 62
1, 65481, Note_on_c, 0, 59, 63
1, 65482, Control_c, 0, 64, 31
1, 65575, Note_off_c, 0, 59, 63
1, 65578, Note_on_c, 0, 58, 64
1, 65647, Note_off_c, 0, 58, 63
1, 65675, Note_on_c, 0, 59, 61
1, 65717, Note_off_c, 0, 59, 64
1, 65765, Note_on_c, 0, 63, 61
1, 65840, Note_off_c, 0, 63, 62
1, 65860, Note_on_c, 0, 62, 62
1, 65958, Note_off_c, 0, 62, 59
1, 65970, Note_on_c, 0, 63, 59
1, 66060, Note_on_c, 0, 66, 63
1, 66066, Note_off_c, 0, 63, 62
1, 66135, Note_off_c, 0, 66, 64
1, 66140, Control_c, 0, 64, 32
1, 66153, Note_on_c, 0, 65, 63
1, 66155, Control_c, 0, 64, 33
1, 66170, Control_c, 0, 64, 35
1, 66200, Control_c, 0, 67, 37
1, 66216, Control_c, 0, 64, 35
1, 66216, Control_c, 0, 67, 54
1, 66230, Control_c, 0, 67, 58
1, 66245, Control_c, 0, 64, 36
1, 66245, Control_c, 0, 67, 59
1, 66257, Note_on_c, 0, 66, 68
1, 66257, Note_off_c, 0, 65, 47
1, 66275, Control_c, 0, 64, 37
1, 66275, Control_c, 0, 67, 58
1, 66289, Control_c, 0, 67, 57
1, 66304, Control_c, 0, 67, 56
1, 66319, Control_c, 0, 67, 56
1, 66334, Control_c, 0, 67, 55
1, 66335, Note_off_c, 0, 66, 63
1, 66352, Note_on_c, 0, 71, 60
1, 66364, Control_c, 0, 67, 56
1, 66379, Control_c, 0, 64, 36
1, 66379, Control_c, 0, 67, 57
1, 66394, Control_c, 0, 67, 58
1, 66409, Control_c, 0, 67, 59
1, 66424, Control_c, 0, 67, 58
1, 66436, Note_off_c, 0, 71, 62
1, 66438, Control_c, 0, 67, 57
1, 66445, Note_on_c, 0, 70, 64
1, 66453, Control_c, 0, 67, 57
1, 66482, Control_c, 0, 67, 56
1, 66497, Control_c, 0, 67, 55
1, 66512, Note_off_c, 0, 70, 62
1, 66512, Control_c, 0, 67, 54
1, 66527, Control_c, 0, 67, 53
1, 66552, Note_on_c, 0, 71, 57
1, 66556, Control_c, 0, 64, 36
1, 66556, Control_c, 0, 67, 53
1, 66571, Control_c, 0, 67, 52
1, 66586, Control_c, 0, 67, 51
1, 66593, Note_off_c, 0, 71, 60
1, 66601, Control_c, 0, 67, 50
1, 66616, Control_c, 0, 67, 50
1, 66645, Control_c, 0, 67, 49
1, 66652, Note_on_c, 0, 75, 59
1, 66660, Control_c, 0, 67, 48
1, 66674, Control_c, 0, 67, 48
1, 66689, Control_c, 0, 67, 47
1, 66704, Control_c, 0, 64, 35
1, 66719, Control_c, 0, 67, 46
1, 66726, Note_off_c, 0, 75, 61
1, 66734, Control_c, 0, 67, 46
1, 66748, Note_on_c, 0, 74, 64
1, 66749, Control_c, 0, 67, 45
1, 66778, Control_c, 0, 67, 45
1, 66793, Control_c, 0, 67, 44
1, 66808, Control_c, 0, 67, 43
1, 66830, Control_c, 0, 67, 42
1, 66845, Control_c, 0, 67, 41
1, 66860, Control_c, 0, 67, 39
1, 66874, Note_off_c, 0, 74, 56
1, 66874, Control_c, 0, 67, 39
1, 66924, Note_on_c, 0, 75, 59
1, 66933, Control_c, 0, 67, 38
1, 66948, Control_c, 0, 67, 37
1, 66964, Note_off_c, 0, 75, 59
1, 66993, Control_c, 0, 67, 36
1, 67008, Control_c, 0, 67, 35
1, 67038, Control_c, 0, 67, 35
1, 67053, Control_c, 0, 64, 35
1, 67053, Control_c, 0, 67, 34
1, 67067, Control_c, 0, 67, 34
1, 67079, Note_on_c, 0, 76, 59
1, 67082, Control_c, 0, 64, 34
1, 67082, Control_c, 0, 67, 0
1, 67112, Control_c, 0, 64, 34
1, 67118, Note_off_c, 0, 76, 61
1, 67229, Note_on_c, 0, 78, 63
1, 67270, Note_off_c, 0, 78, 58
1, 67367, Note_on_c, 0, 76, 66
1, 67409, Note_off_c, 0, 76, 57
1, 67524, Note_on_c, 0, 75, 55
1, 67561, Note_off_c, 0, 75, 61
1, 67672, Note_on_c, 0, 73, 53
1, 67753, Note_off_c, 0, 73, 57
1, 67756, Control_c, 0, 64, 33
1, 67833, Note_on_c, 0, 71, 54
1, 67846, Control_c, 0, 64, 33
1, 67861, Control_c, 0, 64, 32
1, 67879, Note_off_c, 0, 71, 55
1, 67890, Control_c, 0, 64, 32
1, 67976, Note_on_c, 0, 70, 50
1, 68024, Note_off_c, 0, 70, 59
1, 68053, Control_c, 0, 64, 30
1, 68127, Control_c, 0, 64, 28
1, 68146, Note_on_c, 0, 71, 45
1, 68157, Control_c, 0, 64, 0
1, 68188, Note_off_c, 0, 71, 53
1, 68281, Note_on_c, 0, 73, 52
1, 68332, Note_off_c, 0, 73, 59
1, 68444, Note_on_c, 0, 75, 59
1, 68494, Note_off_c, 0, 75, 53
1, 68592, Note_on_c, 0, 78, 54
1, 68596, Note_on_c, 0, 71, 59
1, 68600, Note_on_c, 0, 75, 44
1, 68633, Note_off_c, 0, 75, 50
1, 68637, Note_off_c, 0, 78, 58
1, 68644, Note_off_c, 0, 71, 53
1, 68743, Note_on_c, 0, 78, 64
1, 68757, Note_on_c, 0, 70, 60
1, 68759, Note_on_c, 0, 73, 50
1, 68789, Note_off_c, 0, 78, 55
1, 68797, Note_off_c, 0, 73, 64
1, 68811, Note_off_c, 0, 70, 61
1, 68892, Note_on_c, 0, 78, 63
1, 68906, Note_on_c, 0, 71, 45
1, 68908, Note_on_c, 0, 68, 58
1, 68939, Note_off_c, 0, 71, 57
1, 68946, Note_off_c, 0, 68, 63
1, 68953, Note_off_c, 0, 78, 54
1, 69048, Note_on_c, 0, 66, 58
1, 69050, Note_on_c, 0, 78, 58
1, 69063, Note_on_c, 0, 70, 46
1, 69097, Note_off_c, 0, 78, 59
1, 69106, Note_off_c, 0, 66, 59
1, 69109, Note_off_c, 0, 70, 65
1, 69204, Note_on_c, 0, 78, 60
1, 69206, Note_on_c, 0, 64, 55
1, 69215, Note_on_c, 0, 73, 44
1, 69251, Note_off_c, 0, 73, 62
1, 69258, Note_off_c, 0, 78, 53
1, 69259, Note_off_c, 0, 64, 62
1, 69368, Note_on_c, 0, 78, 61
1, 69396, Note_on_c, 0, 63, 50
1, 69401, Note_on_c, 0, 71, 41
1, 69437, Note_off_c, 0, 63, 62
1, 69527, Note_on_c, 0, 64, 63
1, 69571, Note_off_c, 0, 78, 58
1, 69588, Note_off_c, 0, 64, 61
1, 69598, Note_off_c, 0, 71, 37
1, 69679, Note_on_c, 0, 66, 69
1, 69750, Note_off_c, 0, 66, 60
1, 69834, Note_on_c, 0, 64, 67
1, 69899, Note_off_c, 0, 64, 60
1, 69989, Note_on_c, 0, 63, 68
1, 70060, Note_off_c, 0, 63, 58
1, 70137, Note_on_c, 0, 61, 65
1, 70207, Note_off_c, 0, 61, 61
1, 70305, Note_on_c, 0, 59, 62
1, 70358, Note_off_c, 0, 59, 56
1, 70454, Note_on_c, 0, 58, 60
1, 70516, Note_off_c, 0, 58, 59
1, 70627, Note_on_c, 0, 59, 49
1, 70678, Note_off_c, 0, 59, 61
1, 70737, Control_c, 0, 67, 37
1, 70752, Control_c, 0, 67, 40
1, 70767, Control_c, 0, 67, 41
1, 70789, Note_on_c, 0, 60, 53
1, 70841, Control_c, 0, 67, 41
1, 70845, Note_off_c, 0, 60, 49
1, 70856, Control_c, 0, 67, 42
1, 70886, Control_c, 0, 67, 42
1, 70916, Control_c, 0, 67, 43
1, 70930, Control_c, 0, 67, 43
1, 70957, Note_on_c, 0, 61, 55
1, 70960, Control_c, 0, 67, 44
1, 71017, Note_off_c, 0, 61, 49
1, 71020, Control_c, 0, 67, 45
1, 71035, Control_c, 0, 67, 45
1, 71050, Control_c, 0, 67, 46
1, 71065, Control_c, 0, 67, 46
1, 71079, Control_c, 0, 67, 48
1, 71094, Control_c, 0, 67, 64
1, 71109, Control_c, 0, 67, 82
1, 71120, Note_on_c, 0, 59, 58
1, 71124, Control_c, 0, 67, 93
1, 71137, Note_on_c, 0, 63, 45
1, 71137, Note_on_c, 0, 71, 45
1, 71139, Control_c, 0, 67, 98
1, 71153, Control_c, 0, 67, 101
1, 71180, Note_off_c, 0, 59, 52
1, 71182, Note_off_c, 0, 63, 60
1, 71183, Control_c, 0, 67, 104
1, 71187, Note_off_c, 0, 71, 56
1, 71312, Note_on_c, 0, 58, 54
1, 71331, Note_on_c, 0, 61, 48
1, 71334, Note_on_c, 0, 71, 42
1, 71353, Control_c, 0, 67, 102
1, 71369, Note_off_c, 0, 58, 61
1, 71376, Note_off_c, 0, 61, 56
1, 71393, Note_off_c, 0, 71, 53
1, 71456, Control_c, 0, 67, 99
1, 71518, Note_on_c, 0, 57, 49
1, 71518, Note_on_c, 0, 71, 57
1, 71518, Note_on_c, 0, 59, 52
1, 71534, Note_on_c, 0, 63, 42
1, 71574, Note_off_c, 0, 63, 59
1, 71579, Note_off_c, 0, 57, 58
1, 71581, Note_off_c, 0, 59, 57
1, 71593, Note_off_c, 0, 71, 56
1, 71678, Control_c, 0, 67, 97
1, 71745, Note_on_c, 0, 71, 48
1, 71749, Note_on_c, 0, 56, 49
1, 71750, Note_on_c, 0, 59, 41
1, 71763, Note_on_c, 0, 64, 35
1, 71826, Note_off_c, 0, 56, 60
1, 71836, Note_off_c, 0, 64, 48
1, 71837, Note_off_c, 0, 59, 55
1, 71855, Note_off_c, 0, 71, 54
1, 72021, Note_on_c, 0, 57, 35
1, 72024, Note_on_c, 0, 71, 39
1, 72037, Note_on_c, 0, 54, 37
1, 72054, Note_on_c, 0, 63, 34
1, 72105, Note_off_c, 0, 57, 57
1, 72122, Note_off_c, 0, 63, 42
1, 72138, Note_off_c, 0, 54, 57
1, 72177, Note_off_c, 0, 71, 36
1, 72459, Note_on_c, 0, 71, 43
1, 72487, Note_on_c, 0, 52, 32
1, 72490, Note_on_c, 0, 56, 27
1, 72511, Note_on_c, 0, 64, 20
1, 72680, Control_c, 0, 64, 29
1, 72695, Control_c, 0, 64, 35
1, 72710, Control_c, 0, 64, 41
1, 72724, Control_c, 0, 64, 47
1, 72739, Control_c, 0, 64, 51
1, 72754, Control_c, 0, 64, 55
1, 72769, Control_c, 0, 64, 57
1, 72784, Control_c, 0, 64, 59
1, 72798, Control_c, 0, 64, 60
1, 72821, Control_c, 0, 64, 61
1, 72836, Control_c, 0, 64, 63
1, 72850, Control_c, 0, 64, 64
1, 72865, Control_c, 0, 64, 66
1, 72880, Control_c, 0, 64, 68
1, 72895, Control_c, 0, 64, 70
1, 72910, Control_c, 0, 64, 72
1, 72924, Control_c, 0, 64, 73
1, 72939, Control_c, 0, 64, 76
1, 72954, Control_c, 0, 64, 79
1, 72969, Control_c, 0, 64, 82
1, 72984, Control_c, 0, 64, 84
1, 72998, Control_c, 0, 64, 85
1, 73013, Control_c, 0, 64, 87
1, 73028, Control_c, 0, 64, 88
1, 73042, Control_c, 0, 64, 89
1, 73057, Control_c, 0, 64, 89
1, 73265, Control_c, 0, 64, 89
1, 73309, Control_c, 0, 64, 88
1, 73324, Control_c, 0, 67, 95
1, 73339, Control_c, 0, 64, 88
1, 73369, Control_c, 0, 64, 87
1, 73384, Control_c, 0, 64, 87
1, 73399, Control_c, 0, 64, 86
1, 73429, Control_c, 0, 64, 86
1, 73429, Control_c, 0, 67, 95
1, 73458, Control_c, 0, 64, 85
1, 73473, Control_c, 0, 64, 85
1, 73488, Control_c, 0, 67, 94
1, 73503, Control_c, 0, 64, 84
1, 73503, Note_on_c, 0, 76, 41
1, 73518, Control_c, 0, 64, 84
1, 73533, Control_c, 0, 64, 83
1, 73547, Control_c, 0, 64, 83
1, 73569, Control_c, 0, 64, 82
1, 73569, Control_c, 0, 67, 94
1, 73584, Control_c, 0, 64, 81
1, 73599, Control_c, 0, 64, 81
1, 73614, Control_c, 0, 64, 80
1, 73628, Control_c, 0, 64, 79
1, 73643, Control_c, 0, 64, 78
1, 73658, Control_c, 0, 64, 76
1, 73672, Control_c, 0, 64, 74
1, 73687, Control_c, 0, 64, 73
1, 73702, Control_c, 0, 64, 71
1, 73703, Note_on_c, 0, 75, 56
1, 73717, Control_c, 0, 64, 70
1, 73732, Control_c, 0, 64, 68
1, 73746, Control_c, 0, 64, 67
1, 73761, Control_c, 0, 64, 65
1, 73766, Note_off_c, 0, 71, 41
1, 73776, Control_c, 0, 64, 63
1, 73790, Control_c, 0, 64, 61
1, 73805, Control_c, 0, 64, 58
1, 73805, Control_c, 0, 67, 93
1, 73820, Control_c, 0, 64, 53
1, 73835, Control_c, 0, 64, 48
1, 73850, Control_c, 0, 64, 45
1, 73864, Control_c, 0, 64, 45
1, 73864, Control_c, 0, 67, 93
1, 73870, Note_on_c, 0, 73, 58
1, 73879, Control_c, 0, 64, 48
1, 73886, Note_off_c, 0, 76, 44
1, 73894, Control_c, 0, 64, 51
1, 73909, Control_c, 0, 64, 54
1, 73924, Control_c, 0, 64, 57
1, 73924, Control_c, 0, 67, 92
1, 73938, Control_c, 0, 64, 60
1, 73938, Control_c, 0, 67, 91
1, 73953, Control_c, 0, 64, 63
1, 73968, Control_c, 0, 64, 66
1, 73968, Control_c, 0, 67, 91
1, 73980, Note_off_c, 0, 75, 35
1, 73983, Control_c, 0, 64, 69
1, 73998, Control_c, 0, 64, 71
1, 73998, Control_c, 0, 67, 90
1, 74007, Note_off_c, 0, 64, 47
1, 74013, Control_c, 0, 64, 74
1, 74023, Note_off_c, 0, 52, 40
1, 74028, Control_c, 0, 64, 76
1, 74028, Control_c, 0, 67, 90
1, 74028, Note_off_c, 0, 56, 41
1, 74037, Note_on_c, 0, 71, 60
1, 74043, Control_c, 0, 64, 79
1, 74058, Control_c, 0, 64, 81
1, 74072, Control_c, 0, 64, 84
1, 74087, Control_c, 0, 64, 86
1, 74091, Note_off_c, 0, 73, 53
1, 74102, Control_c, 0, 64, 87
1, 74114, Note_off_c, 0, 71, 56
1, 74117, Control_c, 0, 64, 88
1, 74132, Control_c, 0, 67, 89
1, 74236, Control_c, 0, 64, 87
1, 74263, Note_on_c, 0, 71, 51
1, 74280, Control_c, 0, 64, 87
1, 74295, Note_on_c, 0, 63, 29
1, 74295, Control_c, 0, 64, 85
1, 74305, Note_on_c, 0, 57, 24
1, 74317, Control_c, 0, 64, 84
1, 74320, Note_on_c, 0, 54, 31
1, 74332, Control_c, 0, 64, 81
1, 74347, Control_c, 0, 64, 77
1, 74362, Control_c, 0, 64, 71
1, 74377, Control_c, 0, 64, 63
1, 74392, Control_c, 0, 64, 52
1, 74392, Control_c, 0, 67, 88
1, 74407, Control_c, 0, 64, 48
1, 74421, Control_c, 0, 64, 50
1, 74421, Control_c, 0, 67, 88
1, 74436, Control_c, 0, 64, 54
1, 74436, Control_c, 0, 67, 87
1, 74451, Control_c, 0, 64, 59
1, 74466, Control_c, 0, 64, 62
1, 74466, Control_c, 0, 67, 87
1, 74479, Note_off_c, 0, 71, 53
1, 74481, Control_c, 0, 64, 66
1, 74496, Control_c, 0, 64, 70
1, 74511, Control_c, 0, 64, 73
1, 74511, Control_c, 0, 67, 86
1, 74517, Note_off_c, 0, 57, 40
1, 74525, Note_off_c, 0, 63, 42
1, 74526, Control_c, 0, 64, 74
1, 74531, Note_off_c, 0, 54, 38
1, 74541, Control_c, 0, 64, 75
1, 74555, Control_c, 0, 64, 77
1, 74570, Control_c, 0, 64, 77
1, 74570, Control_c, 0, 67, 86
1, 74585, Control_c, 0, 64, 78
1, 74600, Control_c, 0, 64, 79
1, 74614, Control_c, 0, 64, 79
1, 74638, Note_on_c, 0, 71, 61
1, 74644, Control_c, 0, 64, 80
1, 74659, Note_on_c, 0, 63, 37
1, 74659, Control_c, 0, 64, 79
1, 74665, Note_on_c, 0, 54, 42
1, 74669, Note_on_c, 0, 57, 32
1, 74674, Control_c, 0, 64, 78
1, 74688, Control_c, 0, 64, 71
1, 74703, Control_c, 0, 64, 64
1, 74718, Control_c, 0, 64, 61
1, 74733, Control_c, 0, 64, 62
1, 74748, Control_c, 0, 64, 64
1, 74762, Control_c, 0, 64, 67
1, 74777, Control_c, 0, 64, 72
1, 74792, Control_c, 0, 64, 75
1, 74807, Control_c, 0, 64, 77
1, 74817, Note_off_c, 0, 71, 55
1, 74821, Control_c, 0, 64, 78
1, 74836, Control_c, 0, 64, 80
1, 74851, Control_c, 0, 64, 81
1, 74857, Note_off_c, 0, 57, 46
1, 74861, Note_off_c, 0, 54, 35
1, 74866, Control_c, 0, 64, 82
1, 74868, Note_off_c, 0, 63, 37
1, 74881, Control_c, 0, 64, 83
1, 74881, Control_c, 0, 67, 85
1, 74895, Control_c, 0, 64, 84
1, 74979, Note_on_c, 0, 71, 73
1, 74985, Control_c, 0, 64, 82
1, 75000, Control_c, 0, 64, 77
1, 75000, Control_c, 0, 67, 86
1, 75007, Note_on_c, 0, 63, 46
1, 75015, Control_c, 0, 64, 68
1, 75021, Note_on_c, 0, 54, 37
1, 75021, Note_on_c, 0, 57, 35
1, 75029, Control_c, 0, 64, 59
1, 75044, Control_c, 0, 64, 52
1, 75067, Control_c, 0, 64, 53
1, 75082, Control_c, 0, 64, 57
1, 75082, Control_c, 0, 67, 85
1, 75097, Control_c, 0, 64, 61
1, 75112, Control_c, 0, 64, 66
1, 75126, Control_c, 0, 64, 72
1, 75141, Control_c, 0, 64, 77
1, 75156, Control_c, 0, 64, 79
1, 75156, Control_c, 0, 67, 84
1, 75171, Control_c, 0, 64, 81
1, 75176, Note_off_c, 0, 71, 52
1, 75185, Control_c, 0, 64, 83
1, 75185, Control_c, 0, 67, 84
1, 75200, Control_c, 0, 64, 87
1, 75200, Control_c, 0, 67, 83
1, 75213, Note_off_c, 0, 54, 37
1, 75215, Control_c, 0, 64, 92
1, 75218, Note_off_c, 0, 63, 37
1, 75221, Note_off_c, 0, 57, 46
1, 75230, Control_c, 0, 64, 98
1, 75244, Control_c, 0, 64, 101
1, 75289, Control_c, 0, 64, 94
1, 75304, Control_c, 0, 64, 81
1, 75319, Control_c, 0, 64, 70
1, 75332, Note_on_c, 0, 71, 74
1, 75334, Control_c, 0, 64, 65
1, 75334, Control_c, 0, 67, 84
1, 75348, Control_c, 0, 64, 66
1, 75355, Note_on_c, 0, 63, 48
1, 75358, Note_on_c, 0, 57, 40
1, 75363, Control_c, 0, 64, 70
1, 75363, Control_c, 0, 67, 84
1, 75375, Note_on_c, 0, 54, 39
1, 75378, Control_c, 0, 64, 76
1, 75393, Control_c, 0, 64, 81
1, 75393, Control_c, 0, 67, 85
1, 75408, Control_c, 0, 64, 86
1, 75408, Control_c, 0, 67, 86
1, 75421, Note_off_c, 0, 71, 61
1, 75423, Control_c, 0, 64, 90
1, 75427, Note_off_c, 0, 63, 56
1, 75434, Note_off_c, 0, 57, 60
1, 75437, Control_c, 0, 64, 93
1, 75452, Control_c, 0, 64, 95
1, 75467, Control_c, 0, 64, 98
1, 75567, Note_off_c, 0, 54, 30
1, 75630, Control_c, 0, 67, 86
1, 75674, Control_c, 0, 64, 93
1, 75689, Control_c, 0, 64, 83
1, 75696, Note_on_c, 0, 71, 71
1, 75704, Control_c, 0, 64, 70
1, 75718, Control_c, 0, 64, 60
1, 75728, Note_on_c, 0, 59, 45
1, 75733, Control_c, 0, 64, 53
1, 75733, Control_c, 0, 67, 86
1, 75747, Note_on_c, 0, 56, 46
1, 75752, Note_on_c, 0, 64, 40
1, 75763, Control_c, 0, 64, 55
1, 75778, Control_c, 0, 64, 59
1, 75794, Control_c, 0, 64, 63
1, 75794, Control_c, 0, 67, 85
1, 75816, Control_c, 0, 64, 69
1, 75831, Control_c, 0, 64, 75
1, 75839, Note_off_c, 0, 56, 62
1, 75846, Control_c, 0, 64, 80
1, 75861, Control_c, 0, 64, 82
1, 75875, Control_c, 0, 64, 84
1, 75890, Control_c, 0, 64, 87
1, 75905, Control_c, 0, 64, 90
1, 75905, Control_c, 0, 67, 84
1, 75920, Control_c, 0, 64, 92
1, 75935, Control_c, 0, 64, 93
1, 76023, Control_c, 0, 67, 85
1, 76067, Control_c, 0, 64, 92
1, 76069, Note_on_c, 0, 68, 68
1, 76082, Control_c, 0, 64, 89
1, 76094, Note_on_c, 0, 56, 52
1, 76096, Note_on_c, 0, 52, 38
1, 76097, Control_c, 0, 64, 81
1, 76112, Control_c, 0, 64, 72
1, 76127, Control_c, 0, 64, 61
1, 76141, Control_c, 0, 64, 52
1, 76147, Note_off_c, 0, 59, 53
1, 76156, Control_c, 0, 64, 51
1, 76162, Note_off_c, 0, 71, 57
1, 76171, Control_c, 0, 64, 55
1, 76186, Control_c, 0, 64, 60
1, 76199, Note_off_c, 0, 64, 51
1, 76201, Control_c, 0, 64, 65
1, 76216, Control_c, 0, 64, 72
1, 76231, Control_c, 0, 64, 78
1, 76246, Control_c, 0, 64, 81
1, 76260, Control_c, 0, 64, 82
1, 76267, Note_off_c, 0, 56, 51
1, 76275, Control_c, 0, 64, 83
1, 76288, Note_off_c, 0, 52, 36
1, 76290, Control_c, 0, 64, 85
1, 76305, Control_c, 0, 64, 86
1, 76334, Control_c, 0, 64, 86
1, 76423, Control_c, 0, 64, 86
1, 76438, Control_c, 0, 67, 86
1, 76527, Control_c, 0, 64, 85
1, 76541, Control_c, 0, 64, 85
1, 76562, Note_on_c, 0, 73, 61
1, 76564, Control_c, 0, 64, 84
1, 76579, Control_c, 0, 64, 83
1, 76586, Note_on_c, 0, 64, 47
1, 76593, Note_on_c, 0, 61, 40
1, 76594, Control_c, 0, 64, 82
1, 76609, Control_c, 0, 64, 81
1, 76615, Note_on_c, 0, 57, 35
1, 76615, Note_off_c, 0, 68, 60
1, 76624, Control_c, 0, 64, 80
1, 76639, Control_c, 0, 64, 79
1, 76654, Control_c, 0, 64, 77
1, 76669, Control_c, 0, 64, 75
1, 76684, Control_c, 0, 64, 72
1, 76698, Control_c, 0, 64, 68
1, 76713, Control_c, 0, 64, 65
1, 76728, Control_c, 0, 64, 62
1, 76743, Control_c, 0, 64, 57
1, 76758, Control_c, 0, 64, 52
1, 76772, Control_c, 0, 64, 45
1, 76787, Control_c, 0, 64, 34
1, 76787, Control_c, 0, 67, 86
1, 76802, Control_c, 0, 64, 0
1, 76920, Control_c, 0, 64, 32
1, 76935, Control_c, 0, 64, 45
1, 76950, Control_c, 0, 64, 54
1, 76964, Control_c, 0, 64, 59
1, 76979, Control_c, 0, 64, 62
1, 76994, Control_c, 0, 64, 63
1, 77009, Control_c, 0, 64, 65
1, 77024, Control_c, 0, 64, 68
1, 77039, Control_c, 0, 64, 72
1, 77053, Control_c, 0, 64, 75
1, 77068, Control_c, 0, 64, 77
1, 77083, Control_c, 0, 64, 79
1, 77098, Control_c, 0, 64, 82
1, 77113, Control_c, 0, 64, 86
1, 77128, Control_c, 0, 64, 90
1, 77143, Control_c, 0, 64, 93
1, 77157, Control_c, 0, 64, 95
1, 77172, Control_c, 0, 67, 87
1, 77187, Control_c, 0, 64, 97
1, 77201, Control_c, 0, 67, 87
1, 77216, Control_c, 0, 64, 99
1, 77216, Control_c, 0, 67, 88
1, 77231, Note_off_c, 0, 64, 52
1, 77231, Control_c, 0, 67, 88
1, 77246, Control_c, 0, 67, 89
1, 77261, Control_c, 0, 67, 90
1, 77266, Note_off_c, 0, 61, 43
1, 77275, Control_c, 0, 67, 91
1, 77290, Control_c, 0, 67, 91
1, 77313, Control_c, 0, 67, 92
1, 77328, Control_c, 0, 67, 93
1, 77334, Note_off_c, 0, 57, 42
1, 77342, Control_c, 0, 67, 94
1, 77357, Control_c, 0, 67, 95
1, 77387, Control_c, 0, 67, 97
1, 77417, Control_c, 0, 67, 99
1, 77446, Control_c, 0, 67, 101
1, 77550, Control_c, 0, 67, 103
1, 77608, Note_on_c, 0, 71, 49
1, 77624, Control_c, 0, 64, 97
1, 77624, Control_c, 0, 67, 105
1, 77629, Note_on_c, 0, 64, 36
1, 77638, Note_off_c, 0, 73, 60
1, 77638, Control_c, 0, 64, 96
1, 77642, Note_on_c, 0, 59, 32
1, 77653, Note_on_c, 0, 56, 38
1, 77653, Control_c, 0, 64, 94
1, 77668, Control_c, 0, 64, 91
1, 77668, Control_c, 0, 67, 107
1, 77683, Control_c, 0, 64, 88
1, 77698, Control_c, 0, 64, 81
1, 77698, Control_c, 0, 67, 109
1, 77712, Control_c, 0, 64, 70
1, 77712, Control_c, 0, 67, 111
1, 77727, Control_c, 0, 64, 59
1, 77727, Control_c, 0, 67, 127
1, 77742, Control_c, 0, 64, 46
1, 77757, Control_c, 0, 64, 43
1, 77772, Control_c, 0, 64, 49
1, 77787, Control_c, 0, 64, 57
1, 77802, Control_c, 0, 64, 64
1, 77817, Control_c, 0, 64, 70
1, 77823, Note_off_c, 0, 56, 60
1, 77831, Control_c, 0, 64, 77
1, 77846, Control_c, 0, 64, 81
1, 77861, Control_c, 0, 64, 85
1, 77876, Control_c, 0, 64, 88
1, 77891, Control_c, 0, 64, 91
1, 77905, Control_c, 0, 64, 94
1, 77920, Control_c, 0, 64, 95
1, 77935, Control_c, 0, 64, 96
1, 78034, Note_on_c, 0, 68, 50
1, 78061, Control_c, 0, 64, 95
1, 78069, Note_on_c, 0, 56, 37
1, 78076, Control_c, 0, 64, 90
1, 78086, Note_on_c, 0, 52, 38
1, 78091, Control_c, 0, 64, 79
1, 78105, Control_c, 0, 64, 67
1, 78120, Control_c, 0, 64, 55
1, 78136, Control_c, 0, 64, 47
1, 78150, Control_c, 0, 64, 49
1, 78165, Control_c, 0, 64, 57
1, 78181, Control_c, 0, 64, 63
1, 78187, Note_off_c, 0, 71, 30
1, 78196, Control_c, 0, 64, 68
1, 78200, Note_off_c, 0, 59, 42
1, 78210, Control_c, 0, 64, 74
1, 78225, Control_c, 0, 64, 78
1, 78240, Control_c, 0, 64, 80
1, 78255, Control_c, 0, 64, 83
1, 78264, Note_off_c, 0, 52, 59
1, 78270, Control_c, 0, 64, 86
1, 78285, Control_c, 0, 64, 88
1, 78300, Control_c, 0, 64, 89
1, 78313, Note_off_c, 0, 56, 55
1, 78314, Control_c, 0, 64, 90
1, 78341, Note_off_c, 0, 64, 45
1, 78428, Note_off_c, 0, 68, 36
1, 78626, Note_on_c, 0, 66, 41
1, 78640, Control_c, 0, 64, 89
1, 78649, Note_on_c, 0, 63, 40
1, 78650, Note_on_c, 0, 54, 32
1, 78654, Control_c, 0, 64, 89
1, 78663, Note_on_c, 0, 47, 36
1, 78669, Control_c, 0, 64, 88
1, 78684, Control_c, 0, 64, 87
1, 78699, Control_c, 0, 64, 87
1, 78714, Control_c, 0, 64, 85
1, 78729, Control_c, 0, 64, 84
1, 78744, Control_c, 0, 64, 82
1, 78759, Control_c, 0, 64, 80
1, 78773, Control_c, 0, 64, 77
1, 78788, Control_c, 0, 64, 74
1, 78810, Control_c, 0, 64, 71
1, 78825, Control_c, 0, 64, 67
1, 78840, Control_c, 0, 64, 64
1, 78855, Control_c, 0, 64, 61
1, 78869, Control_c, 0, 64, 58
1, 78884, Control_c, 0, 64, 55
1, 78899, Control_c, 0, 64, 52
1, 78914, Control_c, 0, 64, 49
1, 78929, Control_c, 0, 64, 46
1, 78943, Control_c, 0, 64, 41
1, 78958, Control_c, 0, 64, 34
1, 78973, Control_c, 0, 64, 0
1, 79574, Control_c, 0, 64, 31
1, 79589, Control_c, 0, 64, 36
1, 79604, Control_c, 0, 64, 42
1, 79618, Control_c, 0, 64, 48
1, 79633, Control_c, 0, 64, 53
1, 79648, Control_c, 0, 64, 55
1, 79663, Control_c, 0, 64, 56
1, 79678, Control_c, 0, 64, 58
1, 79692, Control_c, 0, 64, 59
1, 79707, Control_c, 0, 64, 61
1, 79722, Control_c, 0, 64, 62
1, 79736, Control_c, 0, 64, 63
1, 79751, Control_c, 0, 64, 64
1, 79766, Control_c, 0, 64, 65
1, 79782, Control_c, 0, 64, 66
1, 79797, Control_c, 0, 64, 68
1, 79812, Control_c, 0, 64, 70
1, 79826, Control_c, 0, 64, 71
1, 79841, Control_c, 0, 64, 72
1, 79856, Control_c, 0, 64, 73
1, 79871, Control_c, 0, 64, 75
1, 79886, Control_c, 0, 64, 76
1, 79900, Control_c, 0, 64, 78
1, 79915, Control_c, 0, 64, 79
1, 79930, Control_c, 0, 64, 80
1, 79945, Control_c, 0, 64, 81
1, 79960, Control_c, 0, 64, 82
1, 79975, Control_c, 0, 64, 82
1, 79990, Control_c, 0, 64, 83
1, 80005, Control_c, 0, 64, 84
1, 80019, Control_c, 0, 64, 84
1, 80034, Control_c, 0, 64, 85
1, 80079, Control_c, 0, 64, 85
1, 80108, Control_c, 0, 64, 86
1, 80108, Control_c, 0, 67, 120
1, 80123, Control_c, 0, 67, 116
1, 80153, Control_c, 0, 67, 114
1, 80182, Control_c, 0, 67, 111
1, 80197, Control_c, 0, 67, 106
1, 80212, Control_c, 0, 67, 95
1, 80226, Control_c, 0, 64, 86
1, 80226, Control_c, 0, 67, 88
1, 80241, Control_c, 0, 67, 84
1, 80256, Control_c, 0, 67, 82
1, 80271, Control_c, 0, 67, 80
1, 80279, Note_off_c, 0, 47, 40
1, 80282, Note_off_c, 0, 54, 40
1, 80296, Note_off_c, 0, 63, 40
1, 80306, Note_off_c, 0, 66, 41
1, 80308, Control_c, 0, 67, 80
1, 80620, Control_c, 0, 64, 86
1, 80694, Control_c, 0, 64, 85
1, 80694, Control_c, 0, 67, 79
1, 80709, Control_c, 0, 64, 85
1, 80724, Control_c, 0, 64, 84
1, 80724, Control_c, 0, 67, 79
1, 80738, Control_c, 0, 64, 83
1, 80753, Control_c, 0, 64, 82
1, 80753, Control_c, 0, 67, 78
1, 80768, Control_c, 0, 64, 81
1, 80768, Control_c, 0, 67, 78
1, 80783, Control_c, 0, 64, 80
1, 80783, Control_c, 0, 67, 77
1, 80798, Control_c, 0, 64, 79
1, 80798, Control_c, 0, 67, 76
1, 80812, Control_c, 0, 64, 77
1, 80812, Control_c, 0, 67, 75
1, 80827, Control_c, 0, 64, 76
1, 80827, Control_c, 0, 67, 74
1, 80842, Control_c, 0, 64, 74
1, 80842, Control_c, 0, 67, 73
1, 80857, Control_c, 0, 64, 72
1, 80857, Control_c, 0, 67, 56
1, 80872, Control_c, 0, 64, 70
1, 80872, Control_c, 0, 67, 34
1, 80887, Control_c, 0, 64, 67
1, 80887, Control_c, 0, 67, 0
1, 80902, Control_c, 0, 64, 65
1, 80917, Control_c, 0, 64, 63
1, 80931, Control_c, 0, 64, 61
1, 80946, Control_c, 0, 64, 58
1, 80961, Control_c, 0, 64, 57
1, 80975, Control_c, 0, 64, 55
1, 80990, Control_c, 0, 64, 52
1, 81005, Control_c, 0, 64, 49
1, 81020, Control_c, 0, 64, 44
1, 81035, Control_c, 0, 64, 37
1, 81057, Control_c, 0, 64, 0
1, 81533, Note_on_c, 0, 66, 35
1, 81542, Note_on_c, 0, 78, 38
1, 81651, Control_c, 0, 64, 31
1, 81666, Control_c, 0, 64, 38
1, 81680, Control_c, 0, 64, 44
1, 81695, Control_c, 0, 64, 50
1, 81710, Control_c, 0, 64, 56
1, 81725, Control_c, 0, 64, 59
1, 81728, Note_on_c, 0, 80, 55
1, 81740, Control_c, 0, 64, 60
1, 81741, Note_on_c, 0, 68, 40
1, 81754, Control_c, 0, 64, 62
1, 81769, Control_c, 0, 64, 64
1, 81784, Control_c, 0, 64, 66
1, 81785, Note_off_c, 0, 66, 42
1, 81806, Control_c, 0, 64, 68
1, 81821, Control_c, 0, 64, 70
1, 81836, Control_c, 0, 64, 71
1, 81851, Control_c, 0, 64, 73
1, 81866, Control_c, 0, 64, 76
1, 81880, Control_c, 0, 64, 79
1, 81892, Note_on_c, 0, 81, 65
1, 81894, Control_c, 0, 64, 80
1, 81905, Note_off_c, 0, 68, 37
1, 81906, Note_on_c, 0, 69, 44
1, 81909, Control_c, 0, 64, 81
1, 81924, Control_c, 0, 64, 82
1, 81939, Control_c, 0, 64, 83
1, 81940, Note_off_c, 0, 78, 27
1, 81948, Note_off_c, 0, 80, 57
1, 81954, Control_c, 0, 64, 84
1, 81963, Note_off_c, 0, 69, 54
1, 81969, Control_c, 0, 64, 85
1, 81984, Control_c, 0, 64, 85
1, 81998, Control_c, 0, 64, 86
1, 82001, Note_off_c, 0, 81, 56
1, 82175, Note_on_c, 0, 83, 53
1, 82177, Control_c, 0, 64, 85
1, 82192, Control_c, 0, 64, 85
1, 82204, Note_on_c, 0, 68, 36
1, 82207, Control_c, 0, 64, 84
1, 82209, Note_on_c, 0, 71, 35
1, 82213, Note_on_c, 0, 76, 29
1, 82222, Control_c, 0, 64, 84
1, 82224, Note_on_c, 0, 64, 38
1, 82236, Control_c, 0, 64, 82
1, 82251, Control_c, 0, 64, 80
1, 82266, Control_c, 0, 64, 78
1, 82281, Control_c, 0, 64, 76
1, 82296, Control_c, 0, 64, 73
1, 82310, Control_c, 0, 64, 70
1, 82325, Control_c, 0, 64, 65
1, 82340, Control_c, 0, 64, 59
1, 82355, Control_c, 0, 64, 54
1, 82370, Control_c, 0, 64, 49
1, 82384, Control_c, 0, 64, 42
1, 82399, Control_c, 0, 64, 29
1, 82414, Control_c, 0, 64, 0
1, 82554, Control_c, 0, 64, 36
1, 82569, Control_c, 0, 64, 46
1, 82584, Control_c, 0, 64, 52
1, 82599, Control_c, 0, 64, 57
1, 82614, Control_c, 0, 64, 60
1, 82628, Control_c, 0, 64, 62
1, 82643, Control_c, 0, 64, 64
1, 82658, Control_c, 0, 64, 66
1, 82673, Control_c, 0, 64, 68
1, 82688, Control_c, 0, 64, 70
1, 82702, Control_c, 0, 64, 72
1, 82717, Control_c, 0, 64, 74
1, 82732, Control_c, 0, 64, 76
1, 82738, Note_off_c, 0, 71, 49
1, 82747, Control_c, 0, 64, 79
1, 82762, Control_c, 0, 64, 81
1, 82777, Control_c, 0, 64, 83
1, 82792, Control_c, 0, 64, 85
1, 82807, Control_c, 0, 64, 87
1, 82821, Control_c, 0, 64, 88
1, 82836, Control_c, 0, 64, 89
1, 82851, Control_c, 0, 64, 90
1, 82866, Control_c, 0, 64, 90
1, 82881, Control_c, 0, 64, 91
1, 82884, Note_off_c, 0, 76, 44
1, 82896, Control_c, 0, 64, 91
1, 82925, Control_c, 0, 64, 92
1, 83112, Note_on_c, 0, 88, 49
1, 83119, Control_c, 0, 64, 92
1, 83155, Note_on_c, 0, 76, 33
1, 83239, Note_off_c, 0, 64, 42
1, 83290, Note_on_c, 0, 87, 62
1, 83290, Note_off_c, 0, 76, 36
1, 83323, Note_on_c, 0, 75, 45
1, 83336, Note_off_c, 0, 83, 38
1, 83445, Note_off_c, 0, 68, 40
1, 83458, Note_on_c, 0, 85, 68
1, 83458, Note_off_c, 0, 75, 56
1, 83459, Note_off_c, 0, 88, 30
1, 83477, Note_on_c, 0, 73, 43
1, 83525, Control_c, 0, 64, 93
1, 83527, Note_off_c, 0, 87, 58
1, 83548, Note_off_c, 0, 73, 60
1, 83612, Note_on_c, 0, 83, 57
1, 83620, Note_off_c, 0, 85, 62
1, 83644, Note_off_c, 0, 83, 67
1, 83659, Poly_aftertouch_c, 0, 71, 127
1, 83703, Poly_aftertouch_c, 0, 71, 0
1, 83763, Control_c, 0, 64, 92
1, 83778, Control_c, 0, 64, 92
1, 83793, Control_c, 0, 64, 91
1, 83802, Note_on_c, 0, 82, 31
1, 83808, Control_c, 0, 64, 91
1, 83823, Control_c, 0, 64, 90
1, 83838, Note_off_c, 0, 82, 44
1, 83838, Control_c, 0, 64, 87
1, 83838, Note_on_c, 0, 71, 23
1, 83838, Note_on_c, 0, 83, 59
1, 83844, Note_on_c, 0, 66, 44
1, 83853, Control_c, 0, 64, 83
1, 83868, Control_c, 0, 64, 75
1, 83868, Note_on_c, 0, 69, 36
1, 83874, Note_on_c, 0, 75, 18
1, 83882, Control_c, 0, 64, 66
1, 83897, Control_c, 0, 64, 59
1, 83912, Control_c, 0, 64, 55
1, 83927, Control_c, 0, 64, 57
1, 83942, Control_c, 0, 64, 63
1, 83956, Control_c, 0, 64, 69
1, 83971, Control_c, 0, 64, 75
1, 83986, Control_c, 0, 64, 78
1, 84000, Control_c, 0, 64, 81
1, 84008, Note_off_c, 0, 75, 39
1, 84011, Note_off_c, 0, 83, 56
1, 84015, Control_c, 0, 64, 84
1, 84017, Note_off_c, 0, 66, 39
1, 84017, Note_off_c, 0, 69, 34
1, 84026, Note_off_c, 0, 71, 42
1, 84030, Control_c, 0, 64, 88
1, 84053, Control_c, 0, 64, 91
1, 84068, Control_c, 0, 64, 91
1, 84170, Control_c, 0, 64, 91
1, 84173, Note_on_c, 0, 83, 66
1, 84185, Control_c, 0, 64, 87
1, 84187, Note_on_c, 0, 66, 46
1, 84199, Control_c, 0, 64, 80
1, 84202, Note_on_c, 0, 71, 33
1, 84214, Control_c, 0, 64, 72
1, 84224, Note_on_c, 0, 69, 24
1, 84229, Control_c, 0, 64, 65
1, 84244, Control_c, 0, 64, 63
1, 84248, Note_on_c, 0, 75, 8
1, 84259, Control_c, 0, 64, 65
1, 84273, Control_c, 0, 64, 68
1, 84288, Control_c, 0, 64, 74
1, 84303, Control_c, 0, 64, 76
1, 84309, Note_off_c, 0, 75, 44
1, 84318, Control_c, 0, 64, 78
1, 84329, Note_off_c, 0, 83, 58
1, 84333, Control_c, 0, 64, 79
1, 84339, Note_off_c, 0, 69, 31
1, 84345, Note_off_c, 0, 71, 40
1, 84348, Control_c, 0, 64, 80
1, 84349, Note_off_c, 0, 66, 39
1, 84363, Control_c, 0, 64, 80
1, 84378, Control_c, 0, 64, 81
1, 84467, Control_c, 0, 64, 80
1, 84481, Control_c, 0, 64, 76
1, 84490, Note_on_c, 0, 83, 73
1, 84496, Control_c, 0, 64, 67
1, 84506, Note_on_c, 0, 66, 43
1, 84511, Control_c, 0, 64, 55
1, 84518, Note_on_c, 0, 71, 39
1, 84524, Note_on_c, 0, 75, 46
1, 84525, Control_c, 0, 64, 38
1, 84529, Note_on_c, 0, 69, 38
1, 84540, Control_c, 0, 64, 0
1, 84555, Control_c, 0, 64, 29
1, 84571, Control_c, 0, 64, 42
1, 84586, Control_c, 0, 64, 58
1, 84601, Control_c, 0, 64, 67
1, 84615, Control_c, 0, 64, 73
1, 84630, Control_c, 0, 64, 77
1, 84645, Control_c, 0, 64, 80
1, 84660, Control_c, 0, 64, 84
1, 84661, Note_off_c, 0, 75, 37
1, 84675, Control_c, 0, 64, 88
1, 84687, Note_off_c, 0, 69, 48
1, 84689, Note_off_c, 0, 83, 51
1, 84689, Control_c, 0, 64, 92
1, 84702, Note_off_c, 0, 71, 42
1, 84702, Note_off_c, 0, 66, 39
1, 84704, Control_c, 0, 64, 95
1, 84734, Control_c, 0, 64, 97
1, 84764, Control_c, 0, 64, 99
1, 84816, Control_c, 0, 64, 91
1, 84822, Note_on_c, 0, 83, 72
1, 84830, Control_c, 0, 64, 78
1, 84845, Control_c, 0, 64, 66
1, 84846, Note_on_c, 0, 66, 50
1, 84849, Note_on_c, 0, 71, 54
1, 84849, Note_on_c, 0, 69, 46
1, 84857, Note_on_c, 0, 75, 56
1, 84860, Control_c, 0, 64, 59
1, 84875, Control_c, 0, 64, 60
1, 84890, Control_c, 0, 64, 66
1, 84904, Control_c, 0, 64, 73
1, 84919, Control_c, 0, 64, 83
1, 84930, Note_off_c, 0, 69, 59
1, 84932, Note_off_c, 0, 75, 56
1, 84934, Control_c, 0, 64, 92
1, 84948, Control_c, 0, 64, 97
1, 84959, Note_off_c, 0, 71, 56
1, 84963, Control_c, 0, 64, 102
1, 84965, Note_off_c, 0, 66, 59
1, 84978, Control_c, 0, 64, 106
1, 84988, Note_off_c, 0, 83, 56
1, 84993, Control_c, 0, 64, 112
1, 85008, Control_c, 0, 64, 117
1, 85096, Control_c, 0, 64, 114
1, 85111, Control_c, 0, 64, 110
1, 85126, Control_c, 0, 64, 104
1, 85141, Control_c, 0, 64, 94
1, 85156, Control_c, 0, 64, 81
1, 85163, Note_on_c, 0, 83, 76
1, 85170, Control_c, 0, 64, 67
1, 85182, Note_on_c, 0, 71, 51
1, 85185, Note_on_c, 0, 67, 54
1, 85185, Control_c, 0, 64, 52
1, 85200, Control_c, 0, 64, 0
1, 85209, Note_on_c, 0, 76, 48
1, 85245, Control_c, 0, 64, 33
1, 85260, Control_c, 0, 64, 53
1, 85275, Control_c, 0, 64, 64
1, 85290, Control_c, 0, 64, 69
1, 85304, Control_c, 0, 64, 75
1, 85319, Note_off_c, 0, 67, 55
1, 85319, Control_c, 0, 64, 80
1, 85334, Control_c, 0, 64, 84
1, 85348, Control_c, 0, 64, 88
1, 85363, Control_c, 0, 64, 92
1, 85379, Control_c, 0, 64, 96
1, 85394, Control_c, 0, 64, 99
1, 85424, Control_c, 0, 64, 102
1, 85468, Control_c, 0, 64, 99
1, 85483, Control_c, 0, 64, 84
1, 85498, Control_c, 0, 64, 65
1, 85499, Note_on_c, 0, 79, 72
1, 85510, Note_on_c, 0, 67, 47
1, 85512, Control_c, 0, 64, 49
1, 85525, Note_on_c, 0, 64, 48
1, 85527, Control_c, 0, 64, 39
1, 85549, Control_c, 0, 64, 40
1, 85564, Note_off_c, 0, 76, 38
1, 85564, Control_c, 0, 64, 49
1, 85579, Control_c, 0, 64, 60
1, 85594, Control_c, 0, 64, 67
1, 85609, Control_c, 0, 64, 75
1, 85614, Note_off_c, 0, 71, 36
1, 85624, Control_c, 0, 64, 80
1, 85632, Note_off_c, 0, 83, 58
1, 85638, Control_c, 0, 64, 84
1, 85652, Note_off_c, 0, 67, 48
1, 85653, Control_c, 0, 64, 89
1, 85668, Control_c, 0, 64, 94
1, 85672, Note_off_c, 0, 64, 54
1, 85683, Control_c, 0, 64, 97
1, 85698, Control_c, 0, 64, 101
1, 85713, Control_c, 0, 64, 103
1, 85875, Control_c, 0, 64, 101
1, 85901, Note_on_c, 0, 84, 61
1, 85905, Control_c, 0, 64, 98
1, 85917, Note_on_c, 0, 76, 53
1, 85919, Control_c, 0, 64, 96
1, 85934, Control_c, 0, 64, 93
1, 85945, Note_on_c, 0, 69, 34
1, 85946, Note_on_c, 0, 72, 39
1, 85949, Control_c, 0, 64, 90
1, 85963, Note_off_c, 0, 79, 58
1, 85964, Control_c, 0, 64, 87
1, 85978, Control_c, 0, 64, 83
1, 85993, Control_c, 0, 64, 79
1, 86008, Control_c, 0, 64, 71
1, 86023, Control_c, 0, 64, 63
1, 86038, Control_c, 0, 64, 52
1, 86053, Control_c, 0, 64, 31
1, 86068, Control_c, 0, 64, 0
1, 86127, Control_c, 0, 64, 28
1, 86142, Control_c, 0, 64, 42
1, 86157, Control_c, 0, 64, 53
1, 86172, Control_c, 0, 64, 60
1, 86187, Control_c, 0, 64, 63
1, 86202, Control_c, 0, 64, 66
1, 86217, Control_c, 0, 64, 68
1, 86232, Control_c, 0, 64, 71
1, 86247, Control_c, 0, 64, 75
1, 86262, Control_c, 0, 64, 78
1, 86276, Control_c, 0, 64, 82
1, 86298, Control_c, 0, 64, 85
1, 86303, Note_on_c, 0, 78, 55
1, 86313, Control_c, 0, 64, 88
1, 86328, Control_c, 0, 64, 91
1, 86343, Control_c, 0, 64, 94
1, 86357, Control_c, 0, 64, 96
1, 86387, Control_c, 0, 64, 98
1, 86390, Note_off_c, 0, 76, 39
1, 86413, Note_off_c, 0, 72, 37
1, 86434, Note_off_c, 0, 69, 36
1, 86514, Note_off_c, 0, 78, 54
1, 86668, Control_c, 0, 64, 96
1, 86683, Control_c, 0, 64, 95
1, 86698, Control_c, 0, 64, 93
1, 86713, Control_c, 0, 64, 91
1, 86723, Note_on_c, 0, 83, 55
1, 86727, Control_c, 0, 64, 86
1, 86738, Note_on_c, 0, 79, 41
1, 86742, Control_c, 0, 64, 77
1, 86744, Note_on_c, 0, 71, 31
1, 86754, Note_on_c, 0, 67, 36
1, 86757, Control_c, 0, 64, 65
1, 86772, Control_c, 0, 64, 51
1, 86787, Control_c, 0, 64, 42
1, 86801, Control_c, 0, 64, 43
1, 86816, Control_c, 0, 64, 51
1, 86831, Control_c, 0, 64, 60
1, 86846, Control_c, 0, 64, 67
1, 86860, Note_off_c, 0, 67, 57
1, 86861, Control_c, 0, 64, 73
1, 86869, Note_off_c, 0, 79, 57
1, 86876, Control_c, 0, 64, 79
1, 86890, Control_c, 0, 64, 81
1, 86905, Control_c, 0, 64, 83
1, 86905, Control_c, 0, 67, 34
1, 86920, Control_c, 0, 64, 85
1, 86920, Control_c, 0, 67, 61
1, 86935, Control_c, 0, 64, 89
1, 86935, Control_c, 0, 67, 91
1, 86950, Control_c, 0, 64, 91
1, 86950, Control_c, 0, 67, 114
1, 86965, Control_c, 0, 64, 93
1, 86965, Control_c, 0, 67, 127
1, 86980, Control_c, 0, 64, 93
1, 86995, Control_c, 0, 64, 94
1, 87033, Note_off_c, 0, 84, 37
1, 87080, Note_off_c, 0, 71, 41
1, 87159, Note_on_c, 0, 79, 48
1, 87178, Note_on_c, 0, 74, 47
1, 87192, Note_on_c, 0, 67, 32
1, 87195, Note_on_c, 0, 59, 41
1, 87195, Control_c, 0, 64, 93
1, 87210, Control_c, 0, 64, 91
1, 87224, Control_c, 0, 64, 84
1, 87225, Note_off_c, 0, 83, 40
1, 87239, Control_c, 0, 64, 71
1, 87254, Control_c, 0, 64, 59
1, 87269, Control_c, 0, 64, 50
1, 87284, Control_c, 0, 64, 51
1, 87299, Control_c, 0, 64, 56
1, 87314, Control_c, 0, 64, 61
1, 87329, Control_c, 0, 64, 66
1, 87343, Control_c, 0, 64, 73
1, 87358, Control_c, 0, 64, 78
1, 87373, Control_c, 0, 64, 81
1, 87388, Control_c, 0, 64, 84
1, 87394, Note_off_c, 0, 59, 38
1, 87403, Control_c, 0, 64, 87
1, 87417, Control_c, 0, 64, 90
1, 87432, Control_c, 0, 64, 91
1, 87436, Note_off_c, 0, 74, 37
1, 87436, Note_off_c, 0, 67, 42
1, 87447, Control_c, 0, 64, 92
1, 87477, Control_c, 0, 64, 92
1, 87480, Note_off_c, 0, 79, 50
1, 87684, Control_c, 0, 64, 92
1, 87753, Note_on_c, 0, 81, 42
1, 87758, Control_c, 0, 64, 91
1, 87761, Note_on_c, 0, 78, 40
1, 87767, Note_on_c, 0, 62, 39
1, 87771, Note_on_c, 0, 69, 33
1, 87773, Control_c, 0, 64, 91
1, 87796, Control_c, 0, 64, 90
1, 87811, Control_c, 0, 64, 90
1, 87826, Control_c, 0, 64, 88
1, 87841, Control_c, 0, 64, 86
1, 87855, Control_c, 0, 64, 84
1, 87870, Control_c, 0, 64, 82
1, 87885, Control_c, 0, 64, 80
1, 87900, Control_c, 0, 64, 76
1, 87915, Control_c, 0, 64, 72
1, 87929, Control_c, 0, 64, 68
1, 87944, Control_c, 0, 64, 64
1, 87959, Control_c, 0, 64, 60
1, 87973, Control_c, 0, 64, 58
1, 87988, Control_c, 0, 64, 57
1, 88003, Control_c, 0, 64, 56
1, 88018, Control_c, 0, 64, 55
1, 88033, Control_c, 0, 64, 52
1, 88047, Control_c, 0, 64, 50
1, 88062, Control_c, 0, 64, 48
1, 88092, Control_c, 0, 64, 47
1, 88107, Control_c, 0, 64, 46
1, 88122, Control_c, 0, 64, 43
1, 88136, Control_c, 0, 64, 41
1, 88151, Control_c, 0, 64, 38
1, 88166, Control_c, 0, 64, 37
1, 88181, Control_c, 0, 64, 35
1, 88196, Control_c, 0, 64, 34
1, 88211, Control_c, 0, 64, 32
1, 88226, Control_c, 0, 64, 30
1, 88255, Control_c, 0, 64, 0
1, 88403, Control_c, 0, 64, 28
1, 88418, Control_c, 0, 64, 31
1, 88432, Control_c, 0, 64, 33
1, 88447, Control_c, 0, 64, 34
1, 88462, Control_c, 0, 64, 35
1, 88477, Control_c, 0, 64, 37
1, 88491, Control_c, 0, 64, 40
1, 88506, Control_c, 0, 64, 43
1, 88521, Control_c, 0, 64, 45
1, 88544, Control_c, 0, 64, 46
1, 88559, Control_c, 0, 64, 48
1, 88575, Control_c, 0, 64, 51
1, 88590, Control_c, 0, 64, 55
1, 88604, Control_c, 0, 64, 58
1, 88619, Control_c, 0, 64, 59
1, 88634, Control_c, 0, 64, 60
1, 88649, Control_c, 0, 64, 61
1, 88664, Control_c, 0, 64, 62
1, 88678, Control_c, 0, 64, 64
1, 88693, Control_c, 0, 64, 66
1, 88708, Control_c, 0, 64, 67
1, 88723, Control_c, 0, 64, 68
1, 88738, Control_c, 0, 64, 69
1, 88752, Control_c, 0, 64, 71
1, 88767, Control_c, 0, 64, 72
1, 88782, Control_c, 0, 64, 74
1, 88796, Control_c, 0, 64, 75
1, 88811, Control_c, 0, 64, 77
1, 88826, Control_c, 0, 64, 79
1, 88841, Control_c, 0, 64, 80
1, 88856, Control_c, 0, 64, 83
1, 88870, Control_c, 0, 64, 85
1, 88885, Control_c, 0, 64, 87
1, 88900, Control_c, 0, 64, 89
1, 88915, Control_c, 0, 64, 90
1, 88929, Control_c, 0, 64, 91
1, 88944, Note_off_c, 0, 62, 39
1, 88944, Control_c, 0, 64, 92
1, 88959, Control_c, 0, 64, 92
1, 88974, Control_c, 0, 64, 93
1, 89003, Note_off_c, 0, 69, 41
1, 89145, Note_off_c, 0, 81, 39
1, 89174, Note_off_c, 0, 78, 38
1, 89241, Control_c, 0, 64, 92
1, 89270, Control_c, 0, 64, 92
1, 89322, Control_c, 0, 64, 91
1, 89337, Control_c, 0, 64, 91
1, 89352, Control_c, 0, 64, 90
1, 89368, Control_c, 0, 64, 90
1, 89383, Control_c, 0, 64, 88
1, 89397, Control_c, 0, 64, 87
1, 89412, Control_c, 0, 64, 86
1, 89427, Control_c, 0, 64, 86
1, 89442, Control_c, 0, 64, 85
1, 89457, Control_c, 0, 64, 84
1, 89472, Control_c, 0, 64, 83
1, 89487, Control_c, 0, 64, 82
1, 89501, Control_c, 0, 64, 81
1, 89516, Control_c, 0, 64, 80
1, 89531, Control_c, 0, 64, 79
1, 89545, Control_c, 0, 64, 78
1, 89560, Control_c, 0, 64, 76
1, 89575, Control_c, 0, 64, 75
1, 89590, Control_c, 0, 64, 73
1, 89605, Control_c, 0, 64, 72
1, 89619, Control_c, 0, 64, 71
1, 89634, Control_c, 0, 64, 71
1, 89649, Control_c, 0, 64, 70
1, 89664, Control_c, 0, 64, 68
1, 89679, Control_c, 0, 64, 67
1, 89693, Control_c, 0, 64, 65
1, 89708, Control_c, 0, 64, 64
1, 89723, Control_c, 0, 64, 63
1, 89737, Control_c, 0, 64, 63
1, 89752, Control_c, 0, 64, 62
1, 89767, Control_c, 0, 64, 61
1, 89782, Control_c, 0, 64, 60
1, 89797, Control_c, 0, 64, 59
1, 89812, Control_c, 0, 64, 59
1, 89827, Control_c, 0, 64, 58
1, 89842, Control_c, 0, 64, 57
1, 89856, Control_c, 0, 64, 55
1, 89871, Control_c, 0, 64, 53
1, 89886, Control_c, 0, 64, 51
1, 89901, Control_c, 0, 64, 50
1, 89916, Control_c, 0, 64, 48
1, 89931, Control_c, 0, 64, 45
1, 89945, Control_c, 0, 64, 39
1, 89960, Control_c, 0, 64, 30
1, 89975, Control_c, 0, 64, 0
1, 90101, Control_c, 0, 64, 32
1, 90116, Control_c, 0, 64, 38
1, 90131, Control_c, 0, 64, 43
1, 90145, Control_c, 0, 64, 48
1, 90161, Control_c, 0, 64, 53
1, 90175, Control_c, 0, 64, 57
1, 90190, Control_c, 0, 64, 59
1, 90205, Control_c, 0, 64, 60
1, 90220, Control_c, 0, 64, 61
1, 90235, Control_c, 0, 64, 62
1, 90250, Control_c, 0, 64, 63
1, 90265, Control_c, 0, 64, 64
1, 90280, Control_c, 0, 64, 65
1, 90295, Control_c, 0, 64, 65
1, 90310, Control_c, 0, 64, 66
1, 90324, Control_c, 0, 64, 67
1, 90339, Control_c, 0, 64, 68
1, 90354, Control_c, 0, 64, 69
1, 90368, Control_c, 0, 64, 70
1, 90383, Control_c, 0, 64, 70
1, 90396, Note_on_c, 0, 50, 40
1, 90398, Control_c, 0, 64, 71
1, 90413, Control_c, 0, 64, 72
1, 90428, Control_c, 0, 64, 72
1, 90442, Control_c, 0, 64, 73
1, 90457, Control_c, 0, 64, 73
1, 90472, Control_c, 0, 64, 74
1, 90487, Control_c, 0, 64, 74
1, 90502, Control_c, 0, 64, 75
1, 90531, Control_c, 0, 64, 75
1, 90560, Control_c, 0, 64, 76
1, 90665, Note_on_c, 0, 49, 54
1, 90820, Control_c, 0, 64, 75
1, 90900, Note_on_c, 0, 48, 64
1, 90936, Note_off_c, 0, 49, 59
1, 90939, Control_c, 0, 64, 75
1, 90942, Note_off_c, 0, 50, 35
1, 90999, Control_c, 0, 64, 74
1, 91044, Control_c, 0, 64, 74
1, 91088, Control_c, 0, 64, 73
1, 91103, Control_c, 0, 64, 73
1, 91132, Control_c, 0, 64, 72
1, 91147, Control_c, 0, 64, 72
1, 91177, Control_c, 0, 64, 71
1, 91192, Control_c, 0, 64, 71
1, 91207, Control_c, 0, 64, 70
1, 91222, Control_c, 0, 64, 69
1, 91230, Note_on_c, 0, 67, 53
1, 91237, Control_c, 0, 64, 69
1, 91252, Control_c, 0, 64, 68
1, 91266, Control_c, 0, 64, 67
1, 91279, Note_on_c, 0, 47, 42
1, 91281, Control_c, 0, 64, 67
1, 91284, Note_on_c, 0, 62, 33
1, 91296, Control_c, 0, 64, 66
1, 91310, Control_c, 0, 64, 65
1, 91316, Note_off_c, 0, 48, 50
1, 91325, Control_c, 0, 64, 64
1, 91340, Control_c, 0, 64, 64
1, 91355, Control_c, 0, 64, 63
1, 91370, Control_c, 0, 64, 63
1, 91384, Control_c, 0, 64, 62
1, 91399, Control_c, 0, 64, 61
1, 91414, Control_c, 0, 64, 59
1, 91429, Control_c, 0, 64, 57
1, 91444, Control_c, 0, 64, 56
1, 91458, Control_c, 0, 64, 53
1, 91473, Control_c, 0, 64, 49
1, 91488, Control_c, 0, 64, 40
1, 91503, Control_c, 0, 64, 0
1, 91630, Note_on_c, 0, 50, 33
1, 91659, Control_c, 0, 64, 30
1, 91673, Control_c, 0, 64, 35
1, 91688, Control_c, 0, 64, 41
1, 91703, Control_c, 0, 64, 47
1, 91717, Control_c, 0, 64, 53
1, 91732, Control_c, 0, 64, 57
1, 91747, Control_c, 0, 64, 58
1, 91763, Control_c, 0, 64, 59
1, 91778, Control_c, 0, 64, 60
1, 91793, Control_c, 0, 64, 61
1, 91808, Control_c, 0, 64, 63
1, 91822, Control_c, 0, 64, 64
1, 91837, Control_c, 0, 64, 65
1, 91852, Control_c, 0, 64, 66
1, 91867, Control_c, 0, 64, 67
1, 91873, Note_off_c, 0, 50, 46
1, 91875, Note_on_c, 0, 55, 30
1, 91881, Control_c, 0, 64, 68
1, 91896, Control_c, 0, 64, 69
1, 91896, Control_c, 0, 67, 125
1, 91911, Control_c, 0, 64, 70
1, 91926, Control_c, 0, 64, 70
1, 91940, Control_c, 0, 64, 71
1, 91955, Control_c, 0, 64, 71
1, 91970, Control_c, 0, 64, 72
1, 91985, Control_c, 0, 64, 72
1, 92000, Control_c, 0, 64, 73
1, 92064, Note_off_c, 0, 55, 43
1, 92074, Control_c, 0, 64, 73
1, 92087, Note_on_c, 0, 50, 25
1, 92244, Note_off_c, 0, 50, 33
1, 92260, Note_on_c, 0, 69, 44
1, 92271, Note_on_c, 0, 55, 37
1, 92276, Note_off_c, 0, 67, 48
1, 92441, Note_on_c, 0, 67, 52
1, 92466, Note_off_c, 0, 55, 41
1, 92476, Note_on_c, 0, 50, 34
1, 92483, Note_off_c, 0, 69, 37
1, 92554, Control_c, 0, 67, 123
1, 92598, Note_off_c, 0, 50, 46
1, 92600, Control_c, 0, 67, 121
1, 92602, Note_off_c, 0, 67, 60
1, 92612, Note_on_c, 0, 69, 56
1, 92623, Note_on_c, 0, 55, 35
1, 92630, Control_c, 0, 67, 117
1, 92644, Control_c, 0, 67, 104
1, 92659, Control_c, 0, 64, 73
1, 92659, Control_c, 0, 67, 75
1, 92674, Control_c, 0, 67, 50
1, 92689, Control_c, 0, 67, 0
1, 92748, Note_off_c, 0, 69, 58
1, 92757, Note_off_c, 0, 55, 35
1, 92768, Note_on_c, 0, 67, 55
1, 92769, Note_on_c, 0, 50, 31
1, 92830, Note_off_c, 0, 50, 53
1, 92837, Control_c, 0, 64, 72
1, 92896, Control_c, 0, 64, 72
1, 92911, Control_c, 0, 64, 71
1, 92917, Note_off_c, 0, 47, 36
1, 92921, Note_off_c, 0, 67, 60
1, 92926, Control_c, 0, 64, 71
1, 92941, Control_c, 0, 64, 70
1, 92946, Note_on_c, 0, 66, 53
1, 92955, Control_c, 0, 64, 69
1, 92965, Note_on_c, 0, 48, 49
1, 92970, Control_c, 0, 64, 67
1, 92985, Control_c, 0, 64, 65
1, 93000, Control_c, 0, 64, 61
1, 93015, Control_c, 0, 64, 51
1, 93037, Control_c, 0, 64, 0
1, 93111, Control_c, 0, 64, 30
1, 93114, Note_off_c, 0, 66, 60
1, 93118, Note_off_c, 0, 62, 41
1, 93126, Control_c, 0, 64, 50
1, 93139, Note_on_c, 0, 50, 45
1, 93141, Control_c, 0, 64, 60
1, 93155, Control_c, 0, 64, 65
1, 93170, Control_c, 0, 64, 68
1, 93185, Control_c, 0, 64, 70
1, 93200, Control_c, 0, 64, 72
1, 93215, Control_c, 0, 64, 75
1, 93230, Control_c, 0, 64, 78
1, 93244, Control_c, 0, 64, 82
1, 93259, Control_c, 0, 64, 85
1, 93274, Control_c, 0, 64, 87
1, 93282, Note_on_c, 0, 74, 71
1, 93288, Control_c, 0, 64, 89
1, 93310, Note_on_c, 0, 66, 42
1, 93318, Control_c, 0, 64, 86
1, 93325, Note_on_c, 0, 57, 40
1, 93333, Control_c, 0, 64, 77
1, 93336, Note_on_c, 0, 62, 39
1, 93348, Control_c, 0, 64, 66
1, 93358, Note_off_c, 0, 50, 37
1, 93364, Control_c, 0, 64, 60
1, 93379, Control_c, 0, 64, 62
1, 93393, Control_c, 0, 64, 65
1, 93408, Control_c, 0, 64, 70
1, 93423, Control_c, 0, 64, 76
1, 93431, Note_off_c, 0, 62, 58
1, 93438, Control_c, 0, 64, 80
1, 93440, Note_off_c, 0, 66, 59
1, 93451, Note_off_c, 0, 74, 60
1, 93453, Control_c, 0, 64, 83
1, 93457, Note_off_c, 0, 57, 53
1, 93467, Control_c, 0, 64, 87
1, 93482, Control_c, 0, 64, 90
1, 93491, Note_on_c, 0, 50, 38
1, 93497, Control_c, 0, 64, 93
1, 93511, Control_c, 0, 64, 94
1, 93526, Control_c, 0, 64, 94
1, 93556, Control_c, 0, 64, 95
1, 93635, Note_on_c, 0, 74, 61
1, 93655, Note_on_c, 0, 57, 33
1, 93660, Control_c, 0, 64, 94
1, 93670, Note_on_c, 0, 66, 44
1, 93675, Control_c, 0, 64, 91
1, 93687, Note_off_c, 0, 50, 43
1, 93690, Control_c, 0, 64, 85
1, 93693, Note_on_c, 0, 62, 27
1, 93704, Control_c, 0, 64, 74
1, 93719, Control_c, 0, 64, 63
1, 93734, Control_c, 0, 64, 47
1, 93749, Control_c, 0, 64, 30
1, 93785, Control_c, 0, 64, 42
1, 93800, Control_c, 0, 64, 55
1, 93815, Control_c, 0, 64, 62
1, 93817, Note_on_c, 0, 50, 33
1, 93828, Note_off_c, 0, 57, 43
1, 93830, Control_c, 0, 64, 65
1, 93843, Note_off_c, 0, 74, 54
1, 93845, Control_c, 0, 64, 68
1, 93847, Note_off_c, 0, 66, 41
1, 93852, Note_off_c, 0, 62, 38
1, 93860, Control_c, 0, 64, 71
1, 93875, Control_c, 0, 64, 75
1, 93890, Control_c, 0, 64, 79
1, 93905, Control_c, 0, 64, 82
1, 93919, Control_c, 0, 64, 84
1, 93934, Control_c, 0, 64, 84
1, 93949, Control_c, 0, 64, 85
1, 93986, Note_on_c, 0, 74, 56
1, 93994, Control_c, 0, 64, 86
1, 94009, Note_off_c, 0, 50, 43
1, 94009, Note_on_c, 0, 57, 35
1, 94035, Note_on_c, 0, 66, 30
1, 94053, Note_on_c, 0, 62, 17
1, 94098, Control_c, 0, 67, 35
1, 94112, Control_c, 0, 67, 44
1, 94125, Note_off_c, 0, 66, 36
1, 94127, Note_off_c, 0, 74, 54
1, 94127, Control_c, 0, 67, 55
1, 94142, Control_c, 0, 67, 65
1, 94158, Control_c, 0, 64, 85
1, 94158, Control_c, 0, 67, 74
1, 94158, Note_on_c, 0, 50, 30
1, 94167, Note_off_c, 0, 62, 37
1, 94173, Control_c, 0, 67, 81
1, 94186, Note_off_c, 0, 57, 40
1, 94188, Control_c, 0, 67, 87
1, 94203, Control_c, 0, 67, 95
1, 94217, Control_c, 0, 67, 103
1, 94232, Control_c, 0, 67, 108
1, 94247, Control_c, 0, 64, 85
1, 94247, Control_c, 0, 67, 112
1, 94262, Control_c, 0, 67, 116
1, 94277, Control_c, 0, 64, 84
1, 94277, Control_c, 0, 67, 123
1, 94291, Control_c, 0, 67, 127
1, 94306, Control_c, 0, 64, 84
1, 94307, Note_off_c, 0, 48, 32
1, 94321, Control_c, 0, 64, 83
1, 94323, Note_off_c, 0, 50, 30
1, 94335, Control_c, 0, 64, 83
1, 94350, Control_c, 0, 64, 82
1, 94365, Control_c, 0, 64, 82
1, 94380, Control_c, 0, 64, 81
1, 94395, Control_c, 0, 64, 81
1, 94409, Control_c, 0, 64, 80
1, 94413, Note_on_c, 0, 67, 45
1, 94424, Control_c, 0, 64, 79
1, 94429, Note_on_c, 0, 47, 38
1, 94435, Note_on_c, 0, 62, 32
1, 94439, Control_c, 0, 64, 78
1, 94454, Control_c, 0, 64, 77
1, 94469, Control_c, 0, 64, 76
1, 94483, Control_c, 0, 64, 74
1, 94498, Control_c, 0, 64, 73
1, 94513, Control_c, 0, 64, 71
1, 94535, Control_c, 0, 64, 68
1, 94550, Control_c, 0, 64, 65
1, 94565, Control_c, 0, 64, 61
1, 94580, Control_c, 0, 64, 56
1, 94595, Control_c, 0, 64, 48
1, 94609, Control_c, 0, 64, 38
1, 94624, Control_c, 0, 64, 33
1, 94639, Control_c, 0, 64, 34
1, 94650, Note_on_c, 0, 50, 35
1, 94654, Control_c, 0, 64, 39
1, 94668, Control_c, 0, 64, 47
1, 94683, Control_c, 0, 64, 57
1, 94698, Control_c, 0, 64, 61
1, 94713, Control_c, 0, 64, 63
1, 94728, Control_c, 0, 64, 65
1, 94742, Control_c, 0, 64, 67
1, 94757, Control_c, 0, 64, 69
1, 94772, Control_c, 0, 64, 71
1, 94787, Control_c, 0, 64, 72
1, 94802, Control_c, 0, 64, 73
1, 94817, Control_c, 0, 64, 74
1, 94827, Note_on_c, 0, 66, 46
1, 94832, Control_c, 0, 64, 74
1, 94845, Note_off_c, 0, 50, 40
1, 94847, Control_c, 0, 64, 75
1, 94852, Note_on_c, 0, 55, 30
1, 94870, Note_off_c, 0, 67, 38
1, 94876, Control_c, 0, 64, 75
1, 94950, Control_c, 0, 64, 76
1, 94988, Note_on_c, 0, 67, 53
1, 94992, Note_on_c, 0, 50, 30
1, 95032, Note_off_c, 0, 55, 40
1, 95045, Note_off_c, 0, 66, 39
1, 95151, Note_on_c, 0, 72, 57
1, 95158, Control_c, 0, 64, 75
1, 95165, Note_on_c, 0, 55, 33
1, 95166, Note_off_c, 0, 67, 59
1, 95188, Control_c, 0, 64, 74
1, 95194, Note_off_c, 0, 50, 41
1, 95203, Control_c, 0, 64, 73
1, 95218, Control_c, 0, 64, 72
1, 95232, Control_c, 0, 64, 69
1, 95247, Control_c, 0, 64, 64
1, 95262, Control_c, 0, 64, 57
1, 95284, Control_c, 0, 64, 51
1, 95299, Control_c, 0, 64, 47
1, 95308, Note_on_c, 0, 71, 64
1, 95314, Control_c, 0, 64, 46
1, 95327, Note_on_c, 0, 50, 30
1, 95327, Note_off_c, 0, 55, 36
1, 95329, Control_c, 0, 64, 47
1, 95344, Control_c, 0, 64, 50
1, 95358, Control_c, 0, 64, 53
1, 95373, Control_c, 0, 64, 56
1, 95388, Control_c, 0, 64, 61
1, 95403, Control_c, 0, 64, 64
1, 95418, Control_c, 0, 64, 67
1, 95432, Control_c, 0, 64, 69
1, 95447, Control_c, 0, 64, 71
1, 95462, Control_c, 0, 64, 73
1, 95468, Note_on_c, 0, 69, 62
1, 95472, Note_off_c, 0, 72, 30
1, 95477, Control_c, 0, 64, 74
1, 95487, Note_on_c, 0, 55, 35
1, 95491, Control_c, 0, 64, 76
1, 95491, Control_c, 0, 67, 122
1, 95506, Control_c, 0, 64, 77
1, 95506, Control_c, 0, 67, 108
1, 95508, Note_off_c, 0, 50, 40
1, 95516, Note_off_c, 0, 71, 55
1, 95521, Control_c, 0, 64, 78
1, 95521, Control_c, 0, 67, 87
1, 95536, Control_c, 0, 64, 78
1, 95536, Control_c, 0, 67, 58
1, 95551, Control_c, 0, 64, 79
1, 95551, Control_c, 0, 67, 0
1, 95619, Note_off_c, 0, 69, 60
1, 95622, Note_off_c, 0, 55, 35
1, 95627, Note_on_c, 0, 67, 58
1, 95630, Note_on_c, 0, 50, 34
1, 95714, Control_c, 0, 64, 78
1, 95744, Control_c, 0, 64, 78
1, 95759, Control_c, 0, 64, 77
1, 95774, Control_c, 0, 64, 77
1, 95788, Control_c, 0, 64, 75
1, 95803, Control_c, 0, 64, 74
1, 95815, Note_off_c, 0, 50, 40
1, 95815, Note_off_c, 0, 67, 37
1, 95818, Control_c, 0, 64, 71
1, 95820, Note_on_c, 0, 66, 58
1, 95833, Note_on_c, 0, 48, 50
1, 95833, Note_off_c, 0, 47, 37
1, 95833, Control_c, 0, 64, 69
1, 95848, Control_c, 0, 64, 64
1, 95863, Control_c, 0, 64, 56
1, 95878, Control_c, 0, 64, 42
1, 95893, Control_c, 0, 64, 0
1, 95952, Control_c, 0, 64, 42
1, 95967, Control_c, 0, 64, 60
1, 95981, Control_c, 0, 64, 67
1, 95982, Note_off_c, 0, 66, 64
1, 95991, Note_on_c, 0, 50, 42
1, 95996, Control_c, 0, 64, 73
1, 96011, Control_c, 0, 64, 78
1, 96033, Control_c, 0, 64, 82
1, 96043, Note_off_c, 0, 62, 43
1, 96048, Control_c, 0, 64, 89
1, 96063, Control_c, 0, 64, 95
1, 96078, Control_c, 0, 64, 100
1, 96093, Control_c, 0, 64, 105
1, 96106, Control_c, 0, 64, 110
1, 96121, Control_c, 0, 64, 117
1, 96136, Control_c, 0, 64, 127
1, 96167, Note_on_c, 0, 74, 66
1, 96172, Note_off_c, 0, 50, 51
1, 96177, Note_on_c, 0, 57, 44
1, 96180, Control_c, 0, 64, 121
1, 96195, Note_on_c, 0, 66, 47
1, 96195, Control_c, 0, 64, 89
1, 96210, Note_on_c, 0, 62, 41
1, 96210, Control_c, 0, 64, 67
1, 96225, Control_c, 0, 64, 56
1, 96240, Control_c, 0, 64, 57
1, 96254, Control_c, 0, 64, 61
1, 96269, Control_c, 0, 64, 66
1, 96284, Control_c, 0, 64, 73
1, 96299, Control_c, 0, 64, 82
1, 96308, Note_off_c, 0, 62, 50
1, 96313, Control_c, 0, 64, 90
1, 96328, Control_c, 0, 64, 96
1, 96337, Note_on_c, 0, 50, 40
1, 96343, Control_c, 0, 64, 103
1, 96351, Note_off_c, 0, 74, 58
1, 96352, Note_off_c, 0, 57, 35
1, 96358, Control_c, 0, 64, 112
1, 96361, Note_off_c, 0, 66, 36
1, 96373, Control_c, 0, 64, 127
1, 96476, Note_on_c, 0, 74, 77
1, 96499, Note_on_c, 0, 66, 49
1, 96507, Note_on_c, 0, 57, 47
1, 96518, Note_off_c, 0, 50, 55
1, 96521, Note_on_c, 0, 62, 39
1, 96521, Control_c, 0, 64, 112
1, 96536, Control_c, 0, 64, 87
1, 96552, Control_c, 0, 64, 70
1, 96566, Control_c, 0, 64, 57
1, 96581, Control_c, 0, 64, 47
1, 96596, Control_c, 0, 64, 48
1, 96605, Note_off_c, 0, 62, 48
1, 96606, Note_off_c, 0, 66, 55
1, 96611, Control_c, 0, 64, 56
1, 96626, Control_c, 0, 64, 66
1, 96629, Note_off_c, 0, 57, 49
1, 96641, Control_c, 0, 64, 76
1, 96650, Note_on_c, 0, 50, 50
1, 96656, Control_c, 0, 64, 84
1, 96661, Note_off_c, 0, 74, 56
1, 96670, Control_c, 0, 64, 89
1, 96685, Control_c, 0, 64, 92
1, 96700, Control_c, 0, 64, 97
1, 96715, Control_c, 0, 64, 103
1, 96729, Control_c, 0, 64, 112
1, 96744, Control_c, 0, 64, 117
1, 96759, Control_c, 0, 64, 120
1, 96796, Control_c, 0, 64, 123
1, 96811, Note_on_c, 0, 74, 76
1, 96816, Note_off_c, 0, 50, 58
1, 96830, Note_on_c, 0, 66, 62
1, 96843, Note_on_c, 0, 62, 37
1, 96844, Note_on_c, 0, 57, 40
1, 96874, Note_off_c, 0, 62, 53
1, 96877, Note_off_c, 0, 66, 59
1, 96942, Note_off_c, 0, 74, 61
1, 96967, Note_off_c, 0, 57, 51
1, 96998, Note_on_c, 0, 50, 37
1, 97017, Control_c, 0, 64, 121
1, 97047, Control_c, 0, 64, 117
1, 97061, Control_c, 0, 64, 115
1, 97076, Control_c, 0, 64, 113
1, 97091, Control_c, 0, 64, 111
1, 97106, Control_c, 0, 64, 108
1, 97121, Control_c, 0, 64, 106
1, 97151, Control_c, 0, 64, 103
1, 97181, Control_c, 0, 64, 99
1, 97195, Control_c, 0, 64, 96
1, 97210, Control_c, 0, 64, 94
1, 97220, Note_off_c, 0, 48, 23
1, 97225, Control_c, 0, 64, 92
1, 97234, Note_on_c, 0, 74, 63
1, 97240, Control_c, 0, 64, 90
1, 97254, Control_c, 0, 64, 86
1, 97269, Control_c, 0, 64, 83
1, 97270, Note_on_c, 0, 47, 42
1, 97274, Note_on_c, 0, 67, 42
1, 97284, Control_c, 0, 64, 80
1, 97288, Note_off_c, 0, 50, 39
1, 97299, Control_c, 0, 64, 77
1, 97314, Control_c, 0, 64, 73
1, 97328, Control_c, 0, 64, 67
1, 97343, Control_c, 0, 64, 61
1, 97359, Control_c, 0, 64, 54
1, 97374, Control_c, 0, 64, 44
1, 97389, Control_c, 0, 64, 0
1, 97450, Note_on_c, 0, 50, 20
1, 97477, Control_c, 0, 64, 40
1, 97492, Control_c, 0, 64, 53
1, 97507, Control_c, 0, 64, 60
1, 97529, Control_c, 0, 64, 63
1, 97544, Control_c, 0, 64, 65
1, 97559, Control_c, 0, 64, 68
1, 97574, Control_c, 0, 64, 71
1, 97589, Control_c, 0, 64, 74
1, 97604, Control_c, 0, 64, 76
1, 97619, Control_c, 0, 64, 79
1, 97634, Control_c, 0, 64, 82
1, 97638, Note_on_c, 0, 55, 38
1, 97649, Control_c, 0, 64, 85
1, 97660, Note_off_c, 0, 50, 41
1, 97663, Control_c, 0, 64, 89
1, 97678, Control_c, 0, 64, 92
1, 97693, Control_c, 0, 64, 94
1, 97708, Control_c, 0, 64, 96
1, 97752, Control_c, 0, 64, 98
1, 97813, Note_on_c, 0, 50, 31
1, 97838, Note_off_c, 0, 55, 41
1, 98013, Note_on_c, 0, 73, 48
1, 98033, Control_c, 0, 64, 94
1, 98036, Note_on_c, 0, 55, 34
1, 98039, Note_off_c, 0, 50, 44
1, 98048, Control_c, 0, 64, 84
1, 98063, Control_c, 0, 64, 73
1, 98075, Note_off_c, 0, 74, 59
1, 98078, Control_c, 0, 64, 62
1, 98093, Control_c, 0, 64, 52
1, 98108, Control_c, 0, 64, 48
1, 98123, Control_c, 0, 64, 49
1, 98137, Control_c, 0, 64, 53
1, 98153, Control_c, 0, 64, 59
1, 98168, Control_c, 0, 64, 64
1, 98182, Control_c, 0, 64, 69
1, 98192, Note_on_c, 0, 74, 66
1, 98197, Control_c, 0, 64, 75
1, 98212, Control_c, 0, 64, 79
1, 98222, Note_on_c, 0, 50, 39
1, 98224, Note_off_c, 0, 55, 35
1, 98227, Control_c, 0, 64, 82
1, 98242, Control_c, 0, 64, 85
1, 98257, Control_c, 0, 64, 89
1, 98279, Control_c, 0, 64, 92
1, 98294, Control_c, 0, 64, 94
1, 98295, Note_off_c, 0, 73, 37
1, 98308, Control_c, 0, 64, 96
1, 98352, Control_c, 0, 67, 54
1, 98367, Control_c, 0, 67, 75
1, 98382, Control_c, 0, 67, 95
1, 98397, Control_c, 0, 67, 110
1, 98398, Note_on_c, 0, 79, 60
1, 98412, Control_c, 0, 67, 120
1, 98421, Note_off_c, 0, 50, 36
1, 98427, Control_c, 0, 67, 127
1, 98429, Note_off_c, 0, 74, 60
1, 98441, Note_on_c, 0, 55, 38
1, 98562, Note_off_c, 0, 55, 51
1, 98564, Note_off_c, 0, 47, 59
1, 98591, Note_on_c, 0, 78, 62
1, 98614, Note_on_c, 0, 50, 10
1, 98660, Note_off_c, 0, 50, 51
1, 98668, Note_off_c, 0, 67, 36
1, 98716, Note_off_c, 0, 79, 35
1, 98796, Control_c, 0, 64, 95
1, 98811, Control_c, 0, 64, 95
1, 98826, Control_c, 0, 64, 94
1, 98841, Control_c, 0, 64, 94
1, 98856, Control_c, 0, 64, 93
1, 98871, Control_c, 0, 64, 92
1, 98873, Note_on_c, 0, 76, 56
1, 98886, Control_c, 0, 64, 90
1, 98900, Control_c, 0, 64, 89
1, 98915, Control_c, 0, 64, 85
1, 98930, Control_c, 0, 64, 79
1, 98930, Note_off_c, 0, 78, 38
1, 98945, Control_c, 0, 64, 69
1, 98953, Note_on_c, 0, 35, 45
1, 98960, Control_c, 0, 64, 57
1, 98975, Control_c, 0, 64, 36
1, 98990, Control_c, 0, 64, 0
1, 99027, Control_c, 0, 64, 40
1, 99042, Control_c, 0, 64, 56
1, 99049, Note_off_c, 0, 35, 62
1, 99057, Control_c, 0, 64, 64
1, 99072, Control_c, 0, 64, 70
1, 99086, Control_c, 0, 64, 75
1, 99101, Control_c, 0, 64, 80
1, 99116, Control_c, 0, 64, 85
1, 99130, Control_c, 0, 64, 91
1, 99145, Control_c, 0, 64, 99
1, 99160, Note_off_c, 0, 76, 63
1, 99160, Control_c, 0, 64, 109
1, 99175, Control_c, 0, 64, 127
1, 99250, Note_on_c, 0, 57, 41
1, 99437, Note_on_c, 0, 75, 60
1, 99486, Control_c, 0, 64, 108
1, 99487, Note_on_c, 0, 47, 46
1, 99489, Note_off_c, 0, 57, 33
1, 99501, Control_c, 0, 64, 90
1, 99506, Note_on_c, 0, 66, 27
1, 99515, Control_c, 0, 64, 82
1, 99530, Control_c, 0, 64, 81
1, 99560, Control_c, 0, 64, 82
1, 99575, Control_c, 0, 64, 86
1, 99589, Note_off_c, 0, 66, 57
1, 99589, Control_c, 0, 64, 93
1, 99604, Control_c, 0, 64, 99
1, 99619, Control_c, 0, 64, 105
1, 99634, Control_c, 0, 64, 110
1, 99643, Note_off_c, 0, 75, 58
1, 99649, Control_c, 0, 64, 115
1, 99664, Control_c, 0, 64, 121
1, 99673, Note_on_c, 0, 57, 39
1, 99679, Control_c, 0, 64, 127
1, 99685, Note_off_c, 0, 47, 33
1, 99806, Control_c, 0, 64, 112
1, 99813, Note_on_c, 0, 75, 78
1, 99821, Control_c, 0, 64, 94
1, 99835, Control_c, 0, 64, 79
1, 99849, Note_off_c, 0, 57, 53
1, 99850, Control_c, 0, 64, 68
1, 99851, Note_on_c, 0, 47, 48
1, 99858, Note_on_c, 0, 66, 42
1, 99865, Control_c, 0, 64, 63
1, 99879, Control_c, 0, 64, 65
1, 99894, Control_c, 0, 64, 71
1, 99909, Control_c, 0, 64, 81
1, 99924, Control_c, 0, 64, 91
1, 99939, Control_c, 0, 64, 98
1, 99953, Control_c, 0, 64, 108
1, 99960, Note_off_c, 0, 66, 57
1, 99968, Control_c, 0, 64, 127
1, 99995, Note_on_c, 0, 57, 49
1, 100012, Note_off_c, 0, 75, 58
1, 100099, Note_off_c, 0, 57, 49
1, 100119, Note_off_c, 0, 47, 36
1, 100138, Note_on_c, 0, 75, 80
1, 100161, Control_c, 0, 64, 96
1, 100163, Note_on_c, 0, 48, 62
1, 100176, Control_c, 0, 64, 76
1, 100176, Note_on_c, 0, 66, 53
1, 100191, Control_c, 0, 64, 58
1, 100191, Control_c, 0, 67, 122
1, 100206, Control_c, 0, 64, 42
1, 100206, Control_c, 0, 67, 113
1, 100220, Control_c, 0, 64, 37
1, 100220, Control_c, 0, 67, 94
1, 100235, Control_c, 0, 64, 42
1, 100235, Control_c, 0, 67, 61
1, 100250, Control_c, 0, 64, 55
1, 100250, Control_c, 0, 67, 0
1, 100265, Control_c, 0, 64, 66
1, 100279, Control_c, 0, 64, 74
1, 100294, Control_c, 0, 64, 80
1, 100309, Control_c, 0, 64, 85
1, 100313, Note_on_c, 0, 57, 49
1, 100313, Note_off_c, 0, 66, 47
1, 100324, Control_c, 0, 64, 93
1, 100335, Note_off_c, 0, 75, 52
1, 100339, Control_c, 0, 64, 101
1, 100340, Note_off_c, 0, 48, 51
1, 100353, Control_c, 0, 64, 107
1, 100368, Control_c, 0, 64, 109
1, 100397, Note_off_c, 0, 57, 53
1, 100471, Control_c, 0, 64, 105
1, 100486, Control_c, 0, 64, 103
1, 100498, Note_on_c, 0, 76, 66
1, 100501, Control_c, 0, 64, 100
1, 100524, Control_c, 0, 64, 96
1, 100534, Note_on_c, 0, 49, 45
1, 100539, Control_c, 0, 64, 92
1, 100555, Control_c, 0, 64, 87
1, 100570, Control_c, 0, 64, 82
1, 100584, Control_c, 0, 64, 77
1, 100589, Note_on_c, 0, 64, 24
1, 100600, Control_c, 0, 64, 71
1, 100615, Control_c, 0, 64, 61
1, 100629, Control_c, 0, 64, 47
1, 100644, Control_c, 0, 64, 0
1, 100703, Control_c, 0, 64, 42
1, 100710, Note_on_c, 0, 56, 41
1, 100718, Control_c, 0, 64, 57
1, 100733, Control_c, 0, 64, 64
1, 100748, Control_c, 0, 64, 67
1, 100763, Control_c, 0, 64, 71
1, 100777, Control_c, 0, 64, 75
1, 100784, Note_off_c, 0, 49, 32
1, 100792, Control_c, 0, 64, 80
1, 100807, Control_c, 0, 64, 86
1, 100822, Control_c, 0, 64, 91
1, 100837, Control_c, 0, 64, 94
1, 100851, Control_c, 0, 64, 97
1, 100862, Note_on_c, 0, 52, 48
1, 100866, Control_c, 0, 64, 100
1, 100881, Control_c, 0, 64, 102
1, 100895, Control_c, 0, 64, 104
1, 100922, Note_off_c, 0, 56, 33
1, 100940, Control_c, 0, 64, 106
1, 100978, Note_off_c, 0, 52, 58
1, 101008, Note_on_c, 0, 49, 48
1, 101133, Control_c, 0, 64, 103
1, 101148, Control_c, 0, 64, 101
1, 101157, Note_off_c, 0, 49, 35
1, 101163, Control_c, 0, 64, 98
1, 101170, Note_on_c, 0, 75, 54
1, 101177, Control_c, 0, 64, 95
1, 101192, Control_c, 0, 64, 92
1, 101195, Note_on_c, 0, 45, 39
1, 101207, Control_c, 0, 64, 86
1, 101221, Control_c, 0, 64, 77
1, 101236, Control_c, 0, 64, 65
1, 101251, Control_c, 0, 64, 50
1, 101273, Control_c, 0, 64, 30
1, 101288, Control_c, 0, 64, 0
1, 101331, Note_on_c, 0, 57, 39
1, 101333, Control_c, 0, 64, 39
1, 101348, Control_c, 0, 64, 56
1, 101363, Control_c, 0, 64, 63
1, 101378, Control_c, 0, 64, 67
1, 101393, Control_c, 0, 64, 71
1, 101402, Note_off_c, 0, 76, 31
1, 101407, Control_c, 0, 64, 77
1, 101422, Control_c, 0, 64, 87
1, 101437, Control_c, 0, 64, 96
1, 101452, Control_c, 0, 64, 105
1, 101467, Control_c, 0, 64, 116
1, 101482, Control_c, 0, 64, 127
1, 101494, Note_on_c, 0, 73, 49
1, 101506, Note_off_c, 0, 45, 39
1, 101506, Note_off_c, 0, 57, 38
1, 101515, Note_on_c, 0, 52, 43
1, 101534, Note_off_c, 0, 75, 60
1, 101586, Note_off_c, 0, 73, 63
1, 101628, Note_off_c, 0, 52, 58
1, 101640, Note_on_c, 0, 49, 46
1, 101688, Note_off_c, 0, 64, 43
1, 101692, Note_off_c, 0, 49, 59
1, 101819, Note_on_c, 0, 71, 57
1, 101849, Note_on_c, 0, 47, 44
1, 101852, Control_c, 0, 64, 97
1, 101867, Control_c, 0, 64, 78
1, 101881, Control_c, 0, 64, 63
1, 101896, Control_c, 0, 64, 51
1, 101911, Control_c, 0, 64, 49
1, 101911, Control_c, 0, 67, 35
1, 101926, Control_c, 0, 64, 53
1, 101926, Control_c, 0, 67, 43
1, 101941, Control_c, 0, 64, 59
1, 101941, Control_c, 0, 67, 49
1, 101956, Control_c, 0, 64, 65
1, 101956, Control_c, 0, 67, 57
1, 101971, Control_c, 0, 64, 71
1, 101971, Control_c, 0, 67, 67
1, 101976, Note_on_c, 0, 59, 60
1, 101986, Control_c, 0, 64, 79
1, 101986, Control_c, 0, 67, 76
1, 102000, Control_c, 0, 64, 84
1, 102000, Control_c, 0, 67, 82
1, 102022, Control_c, 0, 64, 88
1, 102022, Control_c, 0, 67, 86
1, 102037, Control_c, 0, 64, 95
1, 102037, Control_c, 0, 67, 90
1, 102051, Control_c, 0, 64, 103
1, 102051, Control_c, 0, 67, 93
1, 102066, Control_c, 0, 64, 117
1, 102066, Control_c, 0, 67, 94
1, 102081, Control_c, 0, 64, 127
1, 102081, Control_c, 0, 67, 97
1, 102096, Control_c, 0, 67, 99
1, 102111, Control_c, 0, 67, 104
1, 102126, Control_c, 0, 64, 90
1, 102126, Control_c, 0, 67, 110
1, 102135, Note_on_c, 0, 64, 67
1, 102141, Control_c, 0, 64, 73
1, 102141, Control_c, 0, 67, 121
1, 102152, Note_on_c, 0, 56, 48
1, 102156, Control_c, 0, 64, 69
1, 102156, Control_c, 0, 67, 127
1, 102168, Note_on_c, 0, 52, 42
1, 102171, Control_c, 0, 64, 69
1, 102186, Control_c, 0, 64, 72
1, 102189, Note_off_c, 0, 59, 57
1, 102201, Control_c, 0, 64, 76
1, 102216, Control_c, 0, 64, 83
1, 102230, Control_c, 0, 64, 93
1, 102245, Control_c, 0, 64, 99
1, 102256, Note_off_c, 0, 56, 53
1, 102260, Control_c, 0, 64, 103
1, 102275, Control_c, 0, 64, 107
1, 102275, Note_on_c, 0, 68, 68
1, 102290, Control_c, 0, 64, 110
1, 102302, Note_off_c, 0, 64, 63
1, 102305, Control_c, 0, 64, 112
1, 102421, Note_off_c, 0, 52, 27
1, 102423, Control_c, 0, 64, 109
1, 102438, Control_c, 0, 64, 106
1, 102452, Note_off_c, 0, 68, 57
1, 102453, Control_c, 0, 64, 103
1, 102467, Control_c, 0, 64, 97
1, 102469, Note_on_c, 0, 66, 61
1, 102475, Note_on_c, 0, 57, 36
1, 102478, Note_off_c, 0, 71, 40
1, 102482, Control_c, 0, 64, 90
1, 102497, Control_c, 0, 64, 78
1, 102505, Note_on_c, 0, 54, 37
1, 102512, Control_c, 0, 64, 65
1, 102527, Control_c, 0, 64, 50
1, 102541, Control_c, 0, 64, 0
1, 102586, Control_c, 0, 64, 42
1, 102601, Control_c, 0, 64, 58
1, 102615, Control_c, 0, 64, 65
1, 102630, Control_c, 0, 64, 69
1, 102634, Note_on_c, 0, 69, 49
1, 102640, Note_off_c, 0, 57, 49
1, 102645, Control_c, 0, 64, 72
1, 102660, Control_c, 0, 64, 74
1, 102664, Note_off_c, 0, 66, 54
1, 102674, Control_c, 0, 64, 77
1, 102689, Control_c, 0, 64, 80
1, 102704, Control_c, 0, 64, 84
1, 102719, Control_c, 0, 64, 88
1, 102734, Control_c, 0, 64, 92
1, 102749, Control_c, 0, 64, 99
1, 102771, Control_c, 0, 64, 101
1, 102786, Control_c, 0, 64, 98
1, 102800, Control_c, 0, 64, 85
1, 102810, Note_off_c, 0, 69, 53
1, 102813, Note_on_c, 0, 63, 53
1, 102815, Control_c, 0, 64, 70
1, 102823, Note_on_c, 0, 59, 45
1, 102830, Control_c, 0, 64, 59
1, 102837, Note_on_c, 0, 51, 40
1, 102844, Control_c, 0, 64, 57
1, 102850, Note_off_c, 0, 54, 35
1, 102859, Control_c, 0, 64, 62
1, 102874, Control_c, 0, 64, 66
1, 102889, Control_c, 0, 64, 72
1, 102901, Note_off_c, 0, 59, 62
1, 102904, Control_c, 0, 64, 77
1, 102919, Control_c, 0, 64, 80
1, 102934, Control_c, 0, 64, 84
1, 102941, Note_off_c, 0, 51, 61
1, 102949, Control_c, 0, 64, 88
1, 102951, Note_off_c, 0, 47, 61
1, 102964, Control_c, 0, 64, 90
1, 102978, Control_c, 0, 64, 91
1, 102983, Note_on_c, 0, 71, 58
1, 102988, Note_off_c, 0, 63, 38
1, 102993, Control_c, 0, 64, 91
1, 103067, Note_off_c, 0, 71, 52
1, 103112, Control_c, 0, 64, 91
1, 103127, Control_c, 0, 64, 90
1, 103142, Control_c, 0, 64, 89
1, 103155, Note_on_c, 0, 35, 68
1, 103157, Control_c, 0, 64, 88
1, 103171, Control_c, 0, 64, 87
1, 103175, Note_on_c, 0, 59, 45
1, 103186, Control_c, 0, 64, 85
1, 103201, Control_c, 0, 64, 81
1, 103215, Control_c, 0, 64, 75
1, 103230, Control_c, 0, 64, 67
1, 103245, Control_c, 0, 64, 55
1, 103260, Control_c, 0, 64, 29
1, 103275, Control_c, 0, 64, 0
1, 103319, Note_on_c, 0, 47, 62
1, 103334, Control_c, 0, 64, 35
1, 103349, Control_c, 0, 64, 49
1, 103363, Control_c, 0, 64, 58
1, 103367, Note_off_c, 0, 59, 43
1, 103378, Control_c, 0, 64, 62
1, 103393, Control_c, 0, 64, 63
1, 103408, Control_c, 0, 64, 65
1, 103423, Control_c, 0, 64, 67
1, 103437, Control_c, 0, 64, 70
1, 103452, Control_c, 0, 64, 73
1, 103467, Control_c, 0, 64, 76
1, 103482, Control_c, 0, 64, 79
1, 103497, Control_c, 0, 64, 82
1, 103500, Note_on_c, 0, 52, 54
1, 103519, Control_c, 0, 64, 84
1, 103534, Control_c, 0, 64, 86
1, 103549, Control_c, 0, 64, 88
1, 103552, Note_off_c, 0, 47, 59
1, 103564, Control_c, 0, 64, 88
1, 103578, Control_c, 0, 64, 89
1, 103594, Control_c, 0, 64, 89
1, 103623, Control_c, 0, 64, 90
1, 103679, Note_on_c, 0, 56, 54
1, 103684, Note_off_c, 0, 52, 57
1, 103788, Note_off_c, 0, 56, 53
1, 103788, Control_c, 0, 64, 89
1, 103802, Control_c, 0, 64, 89
1, 103817, Control_c, 0, 64, 88
1, 103832, Control_c, 0, 64, 87
1, 103846, Control_c, 0, 64, 86
1, 103861, Control_c, 0, 64, 83
1, 103870, Note_on_c, 0, 49, 59
1, 103876, Control_c, 0, 64, 80
1, 103891, Control_c, 0, 64, 76
1, 103906, Control_c, 0, 64, 71
1, 103920, Control_c, 0, 64, 64
1, 103935, Control_c, 0, 64, 54
1, 103950, Control_c, 0, 64, 43
1, 103965, Control_c, 0, 64, 36
1, 103980, Control_c, 0, 64, 41
1, 103995, Control_c, 0, 64, 51
1, 104010, Control_c, 0, 64, 59
1, 104025, Control_c, 0, 64, 65
1, 104039, Control_c, 0, 64, 71
1, 104046, Note_on_c, 0, 57, 53
1, 104054, Control_c, 0, 64, 76
1, 104069, Control_c, 0, 64, 80
1, 104084, Control_c, 0, 64, 82
1, 104094, Note_off_c, 0, 49, 61
1, 104099, Control_c, 0, 64, 86
1, 104100, Note_off_c, 0, 35, 36
1, 104113, Control_c, 0, 64, 90
1, 104128, Control_c, 0, 64, 96
1, 104143, Control_c, 0, 64, 105
1, 104158, Control_c, 0, 64, 127
1, 104188, Note_off_c, 0, 57, 54
1, 104202, Control_c, 0, 64, 101
1, 104212, Note_on_c, 0, 51, 70
1, 104217, Control_c, 0, 64, 74
1, 104231, Control_c, 0, 64, 60
1, 104246, Control_c, 0, 64, 59
1, 104269, Control_c, 0, 64, 63
1, 104284, Control_c, 0, 64, 68
1, 104299, Control_c, 0, 64, 76
1, 104314, Control_c, 0, 64, 84
1, 104328, Control_c, 0, 64, 91
1, 104333, Note_off_c, 0, 51, 61
1, 104343, Control_c, 0, 64, 98
1, 104358, Control_c, 0, 64, 103
1, 104373, Control_c, 0, 64, 106
1, 104379, Note_on_c, 0, 59, 61
1, 104409, Note_off_c, 0, 59, 66
1, 104506, Control_c, 0, 64, 102
1, 104520, Control_c, 0, 64, 100
1, 104535, Control_c, 0, 64, 98
1, 104551, Control_c, 0, 64, 96
1, 104566, Control_c, 0, 64, 93
1, 104581, Control_c, 0, 64, 89
1, 104596, Control_c, 0, 64, 86
1, 104611, Control_c, 0, 64, 82
1, 104624, Note_on_c, 0, 59, 47
1, 104625, Control_c, 0, 64, 79
1, 104630, Note_on_c, 0, 71, 59
1, 104640, Control_c, 0, 64, 75
1, 104655, Control_c, 0, 64, 71
1, 104669, Control_c, 0, 64, 65
1, 104684, Control_c, 0, 64, 56
1, 104699, Control_c, 0, 64, 44
1, 104714, Control_c, 0, 64, 0
1, 104714, Control_c, 0, 67, 124
1, 104723, Note_off_c, 0, 71, 56
1, 104729, Control_c, 0, 67, 122
1, 104741, Note_on_c, 0, 70, 59
1, 104743, Control_c, 0, 67, 120
1, 104758, Control_c, 0, 67, 117
1, 104773, Control_c, 0, 64, 36
1, 104773, Control_c, 0, 67, 105
1, 104788, Control_c, 0, 64, 48
1, 104788, Control_c, 0, 67, 82
1, 104803, Control_c, 0, 64, 57
1, 104803, Control_c, 0, 67, 50
1, 104817, Note_off_c, 0, 70, 63
1, 104818, Control_c, 0, 64, 62
1, 104818, Control_c, 0, 67, 0
1, 104833, Control_c, 0, 64, 64
1, 104835, Note_on_c, 0, 71, 62
1, 104847, Control_c, 0, 64, 66
1, 104862, Control_c, 0, 64, 69
1, 104877, Control_c, 0, 64, 75
1, 104892, Control_c, 0, 64, 86
1, 104907, Control_c, 0, 64, 94
1, 104919, Note_off_c, 0, 71, 59
1, 104931, Note_on_c, 0, 72, 69
1, 104936, Control_c, 0, 64, 87
1, 104940, Note_on_c, 0, 68, 50
1, 104951, Control_c, 0, 64, 75
1, 104956, Note_on_c, 0, 65, 43
1, 104966, Control_c, 0, 64, 64
1, 104981, Control_c, 0, 64, 58
1, 104996, Control_c, 0, 64, 59
1, 105017, Control_c, 0, 64, 63
1, 105032, Control_c, 0, 64, 69
1, 105037, Note_on_c, 0, 73, 65
1, 105042, Note_off_c, 0, 72, 54
1, 105047, Control_c, 0, 64, 75
1, 105062, Control_c, 0, 64, 81
1, 105077, Control_c, 0, 64, 87
1, 105092, Control_c, 0, 64, 97
1, 105107, Control_c, 0, 64, 108
1, 105122, Control_c, 0, 64, 127
1, 105141, Note_off_c, 0, 73, 61
1, 105142, Note_on_c, 0, 74, 75
1, 105213, Note_off_c, 0, 74, 62
1, 105225, Control_c, 0, 64, 90
1, 105234, Note_on_c, 0, 69, 54
1, 105240, Control_c, 0, 64, 73
1, 105242, Note_on_c, 0, 73, 70
1, 105250, Note_on_c, 0, 66, 55
1, 105255, Control_c, 0, 64, 64
1, 105256, Note_off_c, 0, 65, 40
1, 105269, Control_c, 0, 64, 64
1, 105274, Note_off_c, 0, 68, 38
1, 105284, Control_c, 0, 64, 70
1, 105299, Control_c, 0, 64, 83
1, 105314, Control_c, 0, 64, 97
1, 105329, Control_c, 0, 64, 109
1, 105331, Note_on_c, 0, 75, 77
1, 105340, Note_off_c, 0, 73, 60
1, 105345, Control_c, 0, 64, 127
1, 105375, Note_off_c, 0, 69, 61
1, 105404, Note_off_c, 0, 75, 62
1, 105418, Note_on_c, 0, 76, 82
1, 105503, Note_off_c, 0, 66, 36
1, 105507, Control_c, 0, 64, 90
1, 105516, Note_on_c, 0, 77, 84
1, 105522, Control_c, 0, 64, 68
1, 105537, Note_on_c, 0, 71, 61
1, 105537, Note_off_c, 0, 76, 55
1, 105537, Control_c, 0, 64, 53
1, 105552, Control_c, 0, 64, 48
1, 105554, Note_on_c, 0, 63, 56
1, 105566, Control_c, 0, 64, 55
1, 105570, Note_off_c, 0, 71, 64
1, 105581, Control_c, 0, 64, 63
1, 105596, Control_c, 0, 64, 76
1, 105602, Note_off_c, 0, 63, 60
1, 105608, Note_off_c, 0, 59, 63
1, 105611, Control_c, 0, 64, 93
1, 105618, Note_on_c, 0, 78, 81
1, 105625, Control_c, 0, 64, 109
1, 105640, Control_c, 0, 64, 127
1, 105703, Note_on_c, 0, 79, 75
1, 105710, Note_off_c, 0, 77, 61
1, 105792, Note_off_c, 0, 78, 37
1, 105840, Note_off_c, 0, 79, 61
1, 105842, Note_on_c, 0, 80, 74
1, 105867, Note_on_c, 0, 47, 59
1, 105915, Control_c, 0, 64, 88
1, 105930, Control_c, 0, 64, 71
1, 105944, Control_c, 0, 64, 57
1, 105955, Note_on_c, 0, 78, 63
1, 105959, Control_c, 0, 64, 41
1, 105968, Note_off_c, 0, 80, 56
1, 105974, Control_c, 0, 64, 36
1, 105989, Control_c, 0, 64, 41
1, 106004, Control_c, 0, 64, 52
1, 106018, Control_c, 0, 64, 63
1, 106029, Note_off_c, 0, 78, 61
1, 106033, Control_c, 0, 64, 68
1, 106046, Note_on_c, 0, 76, 62
1, 106048, Control_c, 0, 64, 72
1, 106063, Control_c, 0, 64, 77
1, 106078, Control_c, 0, 64, 83
1, 106092, Control_c, 0, 64, 92
1, 106107, Control_c, 0, 64, 101
1, 106129, Note_off_c, 0, 76, 52
1, 106138, Control_c, 0, 64, 94
1, 106151, Note_on_c, 0, 75, 66
1, 106153, Note_on_c, 0, 56, 50
1, 106153, Control_c, 0, 64, 80
1, 106168, Control_c, 0, 64, 68
1, 106170, Note_on_c, 0, 52, 44
1, 106183, Control_c, 0, 64, 62
1, 106197, Control_c, 0, 64, 63
1, 106212, Control_c, 0, 64, 66
1, 106227, Control_c, 0, 64, 69
1, 106227, Control_c, 0, 67, 53
1, 106234, Note_off_c, 0, 75, 58
1, 106241, Control_c, 0, 64, 70
1, 106241, Control_c, 0, 67, 77
1, 106245, Note_on_c, 0, 76, 66
1, 106256, Control_c, 0, 64, 71
1, 106256, Control_c, 0, 67, 90
1, 106271, Control_c, 0, 64, 74
1, 106271, Control_c, 0, 67, 97
1, 106286, Control_c, 0, 64, 76
1, 106286, Control_c, 0, 67, 105
1, 106301, Control_c, 0, 64, 77
1, 106301, Control_c, 0, 67, 115
1, 106314, Note_off_c, 0, 56, 38
1, 106315, Control_c, 0, 64, 78
1, 106315, Control_c, 0, 67, 124
1, 106330, Control_c, 0, 64, 79
1, 106330, Control_c, 0, 67, 127
1, 106344, Note_off_c, 0, 76, 59
1, 106345, Note_on_c, 0, 73, 66
1, 106345, Control_c, 0, 64, 80
1, 106360, Control_c, 0, 64, 82
1, 106389, Control_c, 0, 64, 81
1, 106404, Control_c, 0, 64, 77
1, 106419, Control_c, 0, 64, 66
1, 106433, Control_c, 0, 64, 58
1, 106437, Note_off_c, 0, 73, 61
1, 106446, Note_off_c, 0, 52, 41
1, 106448, Control_c, 0, 64, 55
1, 106451, Note_on_c, 0, 72, 60
1, 106456, Note_on_c, 0, 57, 43
1, 106459, Note_on_c, 0, 49, 44
1, 106463, Control_c, 0, 64, 57
1, 106478, Control_c, 0, 64, 60
1, 106493, Control_c, 0, 64, 62
1, 106515, Control_c, 0, 64, 63
1, 106521, Note_off_c, 0, 72, 56
1, 106530, Control_c, 0, 64, 65
1, 106545, Control_c, 0, 64, 67
1, 106553, Note_on_c, 0, 73, 63
1, 106560, Control_c, 0, 64, 69
1, 106575, Control_c, 0, 64, 70
1, 106588, Control_c, 0, 64, 70
1, 106590, Note_off_c, 0, 57, 59
1, 106626, Note_off_c, 0, 73, 60
1, 106633, Control_c, 0, 64, 70
1, 106654, Note_on_c, 0, 69, 61
1, 106678, Control_c, 0, 64, 69
1, 106693, Control_c, 0, 64, 69
1, 106708, Control_c, 0, 64, 68
1, 106722, Control_c, 0, 64, 66
1, 106737, Control_c, 0, 64, 64
1, 106752, Control_c, 0, 64, 63
1, 106767, Control_c, 0, 64, 63
1, 106782, Control_c, 0, 64, 62
1, 106782, Note_off_c, 0, 69, 43
1, 106785, Note_off_c, 0, 49, 55
1, 106796, Control_c, 0, 64, 60
1, 106808, Note_on_c, 0, 68, 56
1, 106811, Control_c, 0, 64, 59
1, 106819, Note_on_c, 0, 59, 44
1, 106826, Control_c, 0, 64, 57
1, 106829, Note_on_c, 0, 51, 45
1, 106840, Control_c, 0, 64, 55
1, 106855, Control_c, 0, 64, 54
1, 106870, Control_c, 0, 64, 53
1, 106885, Control_c, 0, 64, 51
1, 106892, Note_off_c, 0, 68, 60
1, 106900, Control_c, 0, 64, 48
1, 106901, Note_on_c, 0, 69, 59
1, 106914, Control_c, 0, 64, 45
1, 106930, Control_c, 0, 64, 44
1, 106975, Control_c, 0, 64, 44
1, 106990, Control_c, 0, 64, 42
1, 106994, Note_off_c, 0, 69, 60
1, 107005, Control_c, 0, 64, 41
1, 107012, Note_on_c, 0, 66, 62
1, 107019, Control_c, 0, 64, 40
1, 107049, Control_c, 0, 64, 39
1, 107063, Control_c, 0, 64, 38
1, 107078, Control_c, 0, 64, 38
1, 107098, Note_off_c, 0, 66, 63
1, 107116, Note_on_c, 0, 65, 60
1, 107177, Note_off_c, 0, 65, 57
1, 107182, Control_c, 0, 64, 38
1, 107214, Note_on_c, 0, 66, 58
1, 107241, Control_c, 0, 64, 39
1, 107285, Note_off_c, 0, 59, 57
1, 107295, Note_off_c, 0, 66, 64
1, 107300, Note_on_c, 0, 63, 63
1, 107314, Note_off_c, 0, 47, 45
1, 107325, Note_off_c, 0, 51, 56
1, 107375, Note_off_c, 0, 63, 59
1, 107390, Note_on_c, 0, 62, 63
1, 107455, Note_off_c, 0, 62, 58
1, 107487, Note_on_c, 0, 63, 67
1, 107516, Control_c, 0, 64, 38
1, 107551, Note_off_c, 0, 63, 63
1, 107560, Control_c, 0, 64, 38
1, 107575, Control_c, 0, 64, 36
1, 107579, Note_on_c, 0, 59, 64
1, 107590, Control_c, 0, 64, 33
1, 107605, Control_c, 0, 64, 0
1, 107671, Note_off_c, 0, 59, 59
1, 107683, Note_on_c, 0, 58, 59
1, 107746, Note_off_c, 0, 58, 61
1, 107785, Note_on_c, 0, 59, 56
1, 107828, Control_c, 0, 64, 30
1, 107832, Note_off_c, 0, 59, 62
1, 107843, Control_c, 0, 64, 42
1, 107858, Control_c, 0, 64, 51
1, 107865, Note_on_c, 0, 58, 58
1, 107873, Control_c, 0, 64, 57
1, 107887, Control_c, 0, 64, 59
1, 107902, Control_c, 0, 64, 61
1, 107917, Control_c, 0, 64, 62
1, 107932, Control_c, 0, 64, 64
1, 107933, Note_off_c, 0, 58, 59
1, 107947, Control_c, 0, 64, 66
1, 107954, Note_on_c, 0, 59, 63
1, 107961, Control_c, 0, 64, 67
1, 107976, Control_c, 0, 64, 68
1, 107991, Control_c, 0, 64, 69
1, 108013, Control_c, 0, 64, 71
1, 108019, Note_off_c, 0, 59, 57
1, 108028, Control_c, 0, 64, 73
1, 108043, Control_c, 0, 64, 74
1, 108066, Note_on_c, 0, 61, 60
1, 108073, Control_c, 0, 64, 73
1, 108087, Control_c, 0, 64, 72
1, 108102, Control_c, 0, 64, 68
1, 108117, Control_c, 0, 64, 60
1, 108132, Control_c, 0, 64, 46
1, 108138, Note_off_c, 0, 61, 60
1, 108147, Control_c, 0, 64, 0
1, 108152, Note_on_c, 0, 59, 58
1, 108255, Note_off_c, 0, 59, 60
1, 108273, Note_on_c, 0, 58, 52
1, 108332, Note_off_c, 0, 58, 56
1, 108373, Note_on_c, 0, 59, 55
1, 108442, Note_off_c, 0, 59, 62
1, 108450, Note_on_c, 0, 58, 60
1, 108535, Note_off_c, 0, 58, 60
1, 108559, Note_on_c, 0, 59, 59
1, 108620, Note_off_c, 0, 59, 50
1, 108662, Note_on_c, 0, 61, 50
1, 108761, Note_off_c, 0, 61, 61
1, 108763, Note_on_c, 0, 59, 51
1, 108842, Note_off_c, 0, 59, 61
1, 108889, Note_on_c, 0, 61, 50
1, 108978, Note_off_c, 0, 61, 60
1, 108988, Note_on_c, 0, 59, 48
1, 109068, Note_off_c, 0, 59, 60
1, 109110, Note_on_c, 0, 61, 50
1, 109201, Note_off_c, 0, 61, 59
1, 109214, Note_on_c, 0, 59, 46
1, 109302, Note_off_c, 0, 59, 61
1, 109335, Note_on_c, 0, 61, 50
1, 109446, Note_on_c, 0, 59, 38
1, 109454, Note_off_c, 0, 61, 51
1, 109572, Note_off_c, 0, 59, 54
1, 109741, Note_on_c, 0, 59, 45
1, 109768, Note_on_c, 0, 52, 33
1, 109776, Note_on_c, 0, 44, 29
1, 109784, Note_on_c, 0, 40, 31
1, 110615, Note_on_c, 0, 64, 37
1, 110785, Note_on_c, 0, 63, 49
1, 110863, Note_off_c, 0, 59, 43
1, 110881, Control_c, 0, 64, 33
1, 110896, Control_c, 0, 64, 41
1, 110911, Control_c, 0, 64, 48
1, 110926, Control_c, 0, 64, 55
1, 110941, Control_c, 0, 64, 58
1, 110947, Note_off_c, 0, 64, 42
1, 110948, Note_on_c, 0, 61, 53
1, 110956, Control_c, 0, 64, 60
1, 110971, Control_c, 0, 64, 62
1, 110985, Control_c, 0, 64, 64
1, 111008, Control_c, 0, 64, 65
1, 111023, Control_c, 0, 64, 66
1, 111037, Control_c, 0, 64, 67
1, 111052, Control_c, 0, 64, 69
1, 111055, Note_off_c, 0, 63, 31
1, 111060, Note_off_c, 0, 40, 41
1, 111067, Control_c, 0, 64, 70
1, 111072, Note_off_c, 0, 52, 40
1, 111082, Control_c, 0, 64, 70
1, 111092, Note_off_c, 0, 44, 41
1, 111097, Control_c, 0, 64, 71
1, 111111, Control_c, 0, 64, 72
1, 111114, Note_on_c, 0, 59, 56
1, 111126, Control_c, 0, 64, 72
1, 111141, Control_c, 0, 64, 73
1, 111146, Note_off_c, 0, 61, 57
1, 111205, Note_off_c, 0, 59, 56
1, 111274, Control_c, 0, 64, 72
1, 111289, Control_c, 0, 64, 70
1, 111304, Control_c, 0, 64, 67
1, 111319, Control_c, 0, 64, 63
1, 111321, Note_on_c, 0, 42, 37
1, 111325, Note_on_c, 0, 59, 52
1, 111334, Control_c, 0, 64, 58
1, 111335, Note_on_c, 0, 51, 38
1, 111341, Note_on_c, 0, 45, 32
1, 111349, Control_c, 0, 64, 54
1, 111363, Control_c, 0, 64, 49
1, 111378, Control_c, 0, 64, 43
1, 111393, Control_c, 0, 64, 39
1, 111408, Control_c, 0, 64, 35
1, 111423, Control_c, 0, 64, 34
1, 111479, Note_off_c, 0, 59, 58
1, 111483, Note_off_c, 0, 51, 51
1, 111483, Note_off_c, 0, 42, 54
1, 111492, Note_off_c, 0, 45, 44
1, 111526, Control_c, 0, 64, 33
1, 111541, Control_c, 0, 64, 30
1, 111555, Control_c, 0, 64, 0
1, 111641, Note_on_c, 0, 59, 53
1, 111653, Note_on_c, 0, 42, 35
1, 111653, Note_on_c, 0, 51, 40
1, 111661, Note_on_c, 0, 45, 36
1, 111804, Note_off_c, 0, 45, 54
1, 111811, Note_off_c, 0, 59, 56
1, 111814, Note_off_c, 0, 42, 55
1, 111817, Note_off_c, 0, 51, 52
1, 111975, Note_on_c, 0, 59, 54
1, 111982, Note_on_c, 0, 51, 40
1, 111984, Note_on_c, 0, 42, 37
1, 111993, Note_on_c, 0, 45, 39
1, 112121, Note_off_c, 0, 45, 55
1, 112125, Note_off_c, 0, 42, 51
1, 112129, Note_off_c, 0, 51, 47
1, 112132, Note_off_c, 0, 59, 56
1, 112303, Note_on_c, 0, 59, 52
1, 112310, Note_on_c, 0, 51, 40
1, 112315, Note_on_c, 0, 45, 39
1, 112317, Note_on_c, 0, 42, 40
1, 112420, Note_off_c, 0, 59, 61
1, 112431, Note_off_c, 0, 45, 59
1, 112455, Note_off_c, 0, 51, 49
1, 112467, Note_off_c, 0, 42, 57
1, 112666, Note_on_c, 0, 59, 44
1, 112681, Note_on_c, 0, 52, 34
1, 112688, Note_on_c, 0, 44, 32
1, 112701, Note_on_c, 0, 40, 33
1, 112787, Control_c, 0, 64, 27
1, 112801, Control_c, 0, 64, 41
1, 112816, Control_c, 0, 64, 51
1, 112831, Control_c, 0, 64, 55
1, 112846, Control_c, 0, 64, 57
1, 112861, Control_c, 0, 64, 60
1, 112875, Control_c, 0, 64, 62
1, 112890, Control_c, 0, 64, 64
1, 112905, Control_c, 0, 64, 65
1, 112920, Control_c, 0, 64, 66
1, 112920, Control_c, 0, 67, 123
1, 112935, Control_c, 0, 64, 67
1, 112935, Control_c, 0, 67, 113
1, 112950, Control_c, 0, 64, 69
1, 112950, Control_c, 0, 67, 104
1, 112964, Control_c, 0, 64, 70
1, 112964, Control_c, 0, 67, 95
1, 112979, Control_c, 0, 64, 71
1, 112979, Control_c, 0, 67, 86
1, 112994, Control_c, 0, 64, 72
1, 112994, Control_c, 0, 67, 77
1, 113009, Control_c, 0, 64, 73
1, 113009, Control_c, 0, 67, 64
1, 113024, Control_c, 0, 64, 73
1, 113024, Control_c, 0, 67, 48
1, 113039, Control_c, 0, 64, 74
1, 113039, Control_c, 0, 67, 0
1, 113054, Control_c, 0, 64, 74
1, 113059, Note_off_c, 0, 40, 41
1, 113069, Control_c, 0, 64, 75
1, 113079, Note_off_c, 0, 44, 41
1, 113105, Note_off_c, 0, 59, 50
1, 113111, Note_off_c, 0, 52, 36
1, 113113, Control_c, 0, 64, 74
1, 113127, Control_c, 0, 64, 72
1, 113142, Control_c, 0, 64, 67
1, 113157, Control_c, 0, 64, 60
1, 113172, Control_c, 0, 64, 51
1, 113187, Control_c, 0, 64, 40
1, 113201, Control_c, 0, 64, 0
1, 113341, Note_on_c, 0, 59, 43
1, 113346, Note_on_c, 0, 51, 42
1, 113351, Note_on_c, 0, 42, 37
1, 113359, Note_on_c, 0, 45, 33
1, 113472, Note_off_c, 0, 51, 50
1, 113486, Note_off_c, 0, 59, 56
1, 113519, Note_off_c, 0, 45, 35
1, 113525, Note_off_c, 0, 42, 36
1, 113678, Note_on_c, 0, 59, 47
1, 113687, Note_on_c, 0, 45, 36
1, 113688, Note_on_c, 0, 42, 41
1, 113693, Note_on_c, 0, 51, 41
1, 113699, Control_c, 0, 64, 27
1, 113728, Control_c, 0, 64, 29
1, 113772, Control_c, 0, 64, 31
1, 113787, Control_c, 0, 64, 32
1, 113802, Control_c, 0, 64, 32
1, 113807, Note_off_c, 0, 51, 51
1, 113814, Note_off_c, 0, 42, 60
1, 113829, Note_off_c, 0, 45, 51
1, 113832, Note_off_c, 0, 59, 57
1, 113832, Control_c, 0, 64, 33
1, 113847, Control_c, 0, 64, 33
1, 113877, Control_c, 0, 64, 34
1, 113921, Control_c, 0, 64, 34
1, 114067, Note_on_c, 0, 52, 36
1, 114069, Note_on_c, 0, 59, 45
1, 114084, Note_on_c, 0, 44, 37
1, 114090, Note_on_c, 0, 40, 30
1, 114482, Note_off_c, 0, 52, 55
1, 114483, Note_off_c, 0, 44, 56
1, 114490, Note_off_c, 0, 40, 52
1, 114507, Note_off_c, 0, 59, 57
1, 114747, Note_on_c, 0, 59, 43
1, 114762, Note_on_c, 0, 51, 38
1, 114768, Note_on_c, 0, 42, 39
1, 114774, Note_on_c, 0, 45, 35
1, 114903, Note_off_c, 0, 51, 49
1, 114911, Note_off_c, 0, 45, 56
1, 114911, Note_off_c, 0, 59, 58
1, 114934, Note_off_c, 0, 42, 46
1, 115078, Control_c, 0, 64, 34
1, 115084, Note_on_c, 0, 59, 43
1, 115093, Control_c, 0, 64, 33
1, 115096, Note_on_c, 0, 42, 38
1, 115105, Note_on_c, 0, 51, 41
1, 115108, Control_c, 0, 64, 32
1, 115108, Note_on_c, 0, 45, 43
1, 115138, Control_c, 0, 64, 29
1, 115152, Control_c, 0, 64, 0
1, 115200, Note_off_c, 0, 51, 51
1, 115209, Note_off_c, 0, 45, 57
1, 115220, Note_off_c, 0, 42, 58
1, 115225, Note_off_c, 0, 59, 56
1, 115408, Note_on_c, 0, 59, 64
1, 115412, Note_on_c, 0, 40, 83
1, 115424, Note_on_c, 0, 44, 74
1, 115433, Control_c, 0, 64, 32
1, 115439, Note_off_c, 0, 59, 65
1, 115448, Control_c, 0, 64, 58
1, 115463, Control_c, 0, 64, 64
1, 115477, Control_c, 0, 64, 68
1, 115500, Control_c, 0, 64, 75
1, 115515, Control_c, 0, 64, 81
1, 115529, Control_c, 0, 64, 83
1, 115544, Control_c, 0, 64, 84
1, 115559, Note_off_c, 0, 44, 57
1, 115585, Note_off_c, 0, 40, 60
1, 115663, Control_c, 0, 64, 83
1, 115677, Control_c, 0, 64, 82
1, 115692, Control_c, 0, 64, 79
1, 115707, Control_c, 0, 64, 69
1, 115723, Control_c, 0, 64, 53
1, 115738, Control_c, 0, 64, 0
1, 115752, Note_on_c, 0, 40, 68
1, 115826, Control_c, 0, 64, 36
1, 115841, Control_c, 0, 64, 47
1, 115856, Control_c, 0, 64, 56
1, 115871, Control_c, 0, 64, 62
1, 115886, Control_c, 0, 64, 64
1, 115901, Control_c, 0, 64, 66
1, 115930, Control_c, 0, 64, 66
1, 115933, Note_off_c, 0, 40, 58
1, 115945, Control_c, 0, 64, 67
1, 115960, Control_c, 0, 64, 68
1, 115975, Control_c, 0, 64, 69
1, 115990, Control_c, 0, 64, 69
1, 116005, Control_c, 0, 64, 68
1, 116019, Control_c, 0, 64, 57
1, 116034, Control_c, 0, 64, 0
1, 116060, Note_on_c, 0, 45, 87
1, 116074, Note_on_c, 0, 41, 82
1, 116123, Control_c, 0, 64, 41
1, 116138, Control_c, 0, 64, 54
1, 116152, Control_c, 0, 64, 63
1, 116167, Control_c, 0, 64, 67
1, 116182, Control_c, 0, 64, 71
1, 116197, Control_c, 0, 64, 72
1, 116212, Control_c, 0, 64, 73
1, 116226, Control_c, 0, 64, 73
1, 116249, Note_off_c, 0, 45, 61
1, 116308, Control_c, 0, 64, 71
1, 116323, Control_c, 0, 64, 64
1, 116338, Control_c, 0, 64, 44
1, 116352, Control_c, 0, 64, 0
1, 116399, Note_on_c, 0, 45, 68
1, 116441, Control_c, 0, 64, 37
1, 116456, Control_c, 0, 64, 54
1, 116471, Control_c, 0, 64, 62
1, 116486, Control_c, 0, 64, 67
1, 116500, Control_c, 0, 64, 71
1, 116508, Note_off_c, 0, 45, 58
1, 116515, Control_c, 0, 64, 75
1, 116531, Control_c, 0, 64, 79
1, 116546, Control_c, 0, 64, 82
1, 116558, Note_off_c, 0, 41, 62
1, 116561, Control_c, 0, 64, 85
1, 116575, Control_c, 0, 64, 91
1, 116590, Control_c, 0, 64, 102
1, 116605, Control_c, 0, 64, 127
1, 116649, Control_c, 0, 64, 103
1, 116664, Control_c, 0, 64, 65
1, 116679, Control_c, 0, 64, 0
1, 116695, Note_on_c, 0, 46, 70
1, 116706, Note_on_c, 0, 42, 89
1, 116768, Control_c, 0, 64, 45
1, 116783, Note_off_c, 0, 46, 62
1, 116783, Control_c, 0, 64, 61
1, 116792, Note_on_c, 0, 47, 66
1, 116798, Control_c, 0, 64, 65
1, 116813, Control_c, 0, 64, 66
1, 116828, Control_c, 0, 64, 67
1, 116849, Note_off_c, 0, 42, 58
1, 116872, Control_c, 0, 64, 66
1, 116886, Note_on_c, 0, 48, 76
1, 116887, Control_c, 0, 64, 62
1, 116888, Note_off_c, 0, 47, 61
1, 116902, Control_c, 0, 64, 55
1, 116916, Control_c, 0, 64, 45
1, 116931, Control_c, 0, 64, 36
1, 116946, Control_c, 0, 64, 34
1, 116961, Control_c, 0, 64, 41
1, 116975, Control_c, 0, 64, 53
1, 116996, Note_on_c, 0, 49, 68
1, 116998, Control_c, 0, 64, 63
1, 117004, Note_off_c, 0, 48, 61
1, 117010, Note_on_c, 0, 42, 83
1, 117013, Control_c, 0, 64, 67
1, 117042, Control_c, 0, 64, 66
1, 117057, Control_c, 0, 64, 63
1, 117072, Control_c, 0, 64, 56
1, 117087, Control_c, 0, 64, 39
1, 117102, Control_c, 0, 64, 0
1, 117113, Note_on_c, 0, 50, 62
1, 117121, Note_off_c, 0, 49, 61
1, 117156, Note_off_c, 0, 42, 62
1, 117196, Note_on_c, 0, 51, 69
1, 117209, Note_off_c, 0, 50, 56
1, 117283, Note_off_c, 0, 51, 55
1, 117299, Note_on_c, 0, 43, 82
1, 117302, Note_on_c, 0, 52, 79
1, 117303, Note_on_c, 0, 47, 82
1, 117325, Control_c, 0, 64, 31
1, 117393, Note_off_c, 0, 43, 61
1, 117394, Note_on_c, 0, 42, 77
1, 117418, Note_off_c, 0, 47, 63
1, 117458, Control_c, 0, 64, 28
1, 117472, Control_c, 0, 64, 0
1, 117495, Note_on_c, 0, 43, 77
1, 117509, Note_off_c, 0, 42, 63
1, 117585, Note_off_c, 0, 43, 62
1, 117598, Note_on_c, 0, 45, 73
1, 117603, Note_on_c, 0, 47, 57
1, 117690, Note_on_c, 0, 43, 73
1, 117702, Note_off_c, 0, 45, 59
1, 117703, Note_off_c, 0, 52, 60
1, 117756, Note_off_c, 0, 47, 60
1, 117788, Note_on_c, 0, 42, 73
1, 117794, Note_off_c, 0, 43, 63
1, 117892, Note_on_c, 0, 53, 73
1, 117897, Note_on_c, 0, 43, 76
1, 117898, Note_on_c, 0, 47, 70
1, 117916, Note_off_c, 0, 42, 62
1, 117989, Note_on_c, 0, 46, 83
1, 117996, Note_off_c, 0, 43, 60
1, 118002, Note_off_c, 0, 47, 62
1, 118079, Note_on_c, 0, 47, 80
1, 118080, Note_off_c, 0, 46, 62
1, 118169, Note_on_c, 0, 44, 88
1, 118172, Note_on_c, 0, 48, 87
1, 118172, Note_off_c, 0, 47, 63
1, 118236, Control_c, 0, 64, 29
1, 118239, Note_off_c, 0, 48, 62
1, 118265, Note_on_c, 0, 50, 74
1, 118266, Control_c, 0, 64, 31
1, 118272, Note_off_c, 0, 53, 63
1, 118281, Control_c, 0, 64, 32
1, 118295, Control_c, 0, 64, 32
1, 118325, Control_c, 0, 64, 33
1, 118347, Note_on_c, 0, 48, 85
1, 118354, Control_c, 0, 64, 33
1, 118357, Note_off_c, 0, 50, 63
1, 118369, Control_c, 0, 64, 34
1, 118384, Control_c, 0, 64, 34
1, 118414, Control_c, 0, 64, 35
1, 118446, Note_off_c, 0, 48, 61
1, 118463, Note_off_c, 0, 44, 61
1, 118473, Control_c, 0, 64, 34
1, 118480, Note_on_c, 0, 53, 80
1, 118492, Note_on_c, 0, 43, 74
1, 118492, Note_on_c, 0, 47, 77
1, 118495, Control_c, 0, 64, 34
1, 118540, Control_c, 0, 64, 33
1, 118558, Note_off_c, 0, 53, 61
1, 118583, Note_on_c, 0, 52, 75
1, 118676, Note_on_c, 0, 53, 72
1, 118676, Note_off_c, 0, 52, 57
1, 118703, Control_c, 0, 64, 33
1, 118762, Note_off_c, 0, 53, 62
1, 118768, Note_on_c, 0, 55, 71
1, 118777, Control_c, 0, 64, 32
1, 118792, Control_c, 0, 64, 30
1, 118799, Note_off_c, 0, 43, 61
1, 118807, Control_c, 0, 64, 0
1, 118818, Note_off_c, 0, 47, 59
1, 118861, Note_on_c, 0, 56, 77
1, 118865, Note_off_c, 0, 55, 62
1, 118953, Note_on_c, 0, 53, 68
1, 118954, Note_off_c, 0, 56, 63
1, 119071, Note_on_c, 0, 60, 88
1, 119073, Note_off_c, 0, 53, 59
1, 119080, Note_on_c, 0, 48, 86
1, 119084, Note_on_c, 0, 52, 76
1, 119104, Control_c, 0, 64, 35
1, 119118, Control_c, 0, 64, 64
1, 119133, Note_off_c, 0, 48, 63
1, 119133, Control_c, 0, 64, 75
1, 119134, Note_off_c, 0, 52, 61
1, 119148, Control_c, 0, 64, 87
1, 119162, Control_c, 0, 64, 97
1, 119177, Control_c, 0, 64, 101
1, 119180, Note_off_c, 0, 60, 66
1, 119207, Control_c, 0, 64, 103
1, 119274, Control_c, 0, 64, 101
1, 119289, Control_c, 0, 64, 98
1, 119304, Control_c, 0, 64, 94
1, 119319, Control_c, 0, 64, 87
1, 119333, Control_c, 0, 64, 78
1, 119348, Control_c, 0, 64, 69
1, 119363, Control_c, 0, 64, 58
1, 119377, Control_c, 0, 64, 0
1, 119403, Note_on_c, 0, 60, 83
1, 119466, Control_c, 0, 64, 51
1, 119481, Control_c, 0, 64, 61
1, 119496, Control_c, 0, 64, 66
1, 119511, Control_c, 0, 64, 69
1, 119525, Control_c, 0, 64, 72
1, 119540, Control_c, 0, 64, 74
1, 119541, Note_off_c, 0, 60, 60
1, 119555, Control_c, 0, 64, 75
1, 119570, Control_c, 0, 64, 76
1, 119585, Control_c, 0, 64, 77
1, 119630, Control_c, 0, 64, 77
1, 119644, Control_c, 0, 64, 78
1, 119659, Control_c, 0, 64, 77
1, 119674, Control_c, 0, 64, 70
1, 119688, Control_c, 0, 64, 52
1, 119695, Note_on_c, 0, 65, 85
1, 119703, Control_c, 0, 64, 0
1, 119706, Note_on_c, 0, 61, 85
1, 119779, Control_c, 0, 64, 50
1, 119793, Control_c, 0, 64, 59
1, 119808, Control_c, 0, 64, 65
1, 119823, Control_c, 0, 64, 69
1, 119838, Control_c, 0, 64, 73
1, 119853, Control_c, 0, 64, 77
1, 119859, Note_off_c, 0, 65, 58
1, 119867, Control_c, 0, 64, 79
1, 119882, Control_c, 0, 64, 82
1, 119897, Control_c, 0, 64, 85
1, 119911, Control_c, 0, 64, 89
1, 119926, Control_c, 0, 64, 94
1, 119941, Control_c, 0, 64, 95
1, 119956, Control_c, 0, 64, 94
1, 119971, Control_c, 0, 64, 78
1, 119993, Control_c, 0, 64, 59
1, 120008, Control_c, 0, 64, 0
1, 120038, Note_on_c, 0, 65, 74
1, 120068, Control_c, 0, 64, 47
1, 120083, Control_c, 0, 64, 59
1, 120098, Control_c, 0, 64, 64
1, 120110, Note_off_c, 0, 65, 57
1, 120113, Control_c, 0, 64, 66
1, 120127, Control_c, 0, 64, 68
1, 120133, Note_off_c, 0, 61, 65
1, 120142, Control_c, 0, 64, 70
1, 120157, Control_c, 0, 64, 72
1, 120172, Control_c, 0, 64, 73
1, 120187, Control_c, 0, 64, 74
1, 120201, Control_c, 0, 64, 74
1, 120216, Control_c, 0, 64, 75
1, 120231, Control_c, 0, 64, 77
1, 120246, Control_c, 0, 64, 77
1, 120261, Control_c, 0, 64, 77
1, 120275, Control_c, 0, 64, 72
1, 120290, Control_c, 0, 64, 57
1, 120305, Control_c, 0, 64, 0
1, 120325, Note_on_c, 0, 62, 90
1, 120327, Note_on_c, 0, 66, 69
1, 120364, Control_c, 0, 64, 36
1, 120379, Control_c, 0, 64, 55
1, 120393, Control_c, 0, 64, 64
1, 120405, Note_off_c, 0, 66, 63
1, 120408, Control_c, 0, 64, 66
1, 120411, Note_off_c, 0, 62, 60
1, 120421, Note_on_c, 0, 67, 71
1, 120423, Control_c, 0, 64, 69
1, 120438, Control_c, 0, 64, 72
1, 120453, Control_c, 0, 64, 74
1, 120467, Control_c, 0, 64, 76
1, 120478, Note_off_c, 0, 67, 55
1, 120482, Control_c, 0, 64, 78
1, 120497, Control_c, 0, 64, 79
1, 120515, Note_on_c, 0, 68, 67
1, 120528, Control_c, 0, 64, 79
1, 120542, Control_c, 0, 64, 80
1, 120557, Control_c, 0, 64, 79
1, 120572, Control_c, 0, 64, 72
1, 120587, Control_c, 0, 64, 58
1, 120588, Note_off_c, 0, 68, 62
1, 120602, Control_c, 0, 64, 0
1, 120611, Note_on_c, 0, 69, 72
1, 120616, Note_on_c, 0, 62, 86
1, 120661, Control_c, 0, 64, 38
1, 120676, Control_c, 0, 64, 53
1, 120691, Control_c, 0, 64, 62
1, 120701, Note_off_c, 0, 62, 61
1, 120706, Note_off_c, 0, 69, 58
1, 120706, Control_c, 0, 64, 65
1, 120711, Note_on_c, 0, 70, 67
1, 120721, Control_c, 0, 64, 66
1, 120742, Control_c, 0, 64, 69
1, 120757, Control_c, 0, 64, 71
1, 120772, Control_c, 0, 64, 73
1, 120787, Control_c, 0, 64, 75
1, 120801, Note_on_c, 0, 71, 78
1, 120802, Control_c, 0, 64, 78
1, 120816, Control_c, 0, 64, 79
1, 120822, Note_off_c, 0, 70, 52
1, 120831, Control_c, 0, 64, 80
1, 120846, Control_c, 0, 64, 78
1, 120861, Control_c, 0, 64, 68
1, 120876, Control_c, 0, 64, 47
1, 120886, Note_off_c, 0, 71, 58
1, 120891, Control_c, 0, 64, 0
1, 120912, Note_on_c, 0, 63, 86
1, 120917, Note_on_c, 0, 72, 89
1, 120918, Note_on_c, 0, 67, 86
1, 120950, Control_c, 0, 64, 46
1, 120965, Control_c, 0, 64, 61
1, 120980, Control_c, 0, 64, 64
1, 120991, Note_off_c, 0, 63, 63
1, 120995, Control_c, 0, 64, 62
1, 121001, Note_on_c, 0, 62, 79
1, 121008, Note_off_c, 0, 67, 62
1, 121010, Control_c, 0, 64, 46
1, 121024, Control_c, 0, 64, 0
1, 121098, Note_on_c, 0, 63, 80
1, 121111, Note_off_c, 0, 62, 60
1, 121113, Control_c, 0, 64, 30
1, 121128, Control_c, 0, 64, 39
1, 121142, Control_c, 0, 64, 48
1, 121157, Control_c, 0, 64, 54
1, 121172, Control_c, 0, 64, 56
1, 121185, Note_off_c, 0, 63, 62
1, 121187, Control_c, 0, 64, 57
1, 121189, Note_on_c, 0, 65, 71
1, 121190, Note_on_c, 0, 67, 67
1, 121202, Control_c, 0, 64, 59
1, 121216, Control_c, 0, 64, 61
1, 121231, Control_c, 0, 64, 62
1, 121246, Control_c, 0, 64, 63
1, 121275, Note_on_c, 0, 63, 79
1, 121275, Note_off_c, 0, 65, 60
1, 121275, Note_off_c, 0, 72, 61
1, 121323, Note_off_c, 0, 67, 61
1, 121352, Note_off_c, 0, 63, 62
1, 121360, Note_on_c, 0, 62, 73
1, 121380, Control_c, 0, 64, 62
1, 121395, Control_c, 0, 64, 58
1, 121410, Control_c, 0, 64, 44
1, 121425, Control_c, 0, 64, 0
1, 121452, Note_off_c, 0, 62, 59
1, 121457, Note_on_c, 0, 63, 82
1, 121463, Note_on_c, 0, 73, 74
1, 121474, Note_on_c, 0, 67, 71
1, 121507, Control_c, 0, 64, 32
1, 121521, Control_c, 0, 64, 45
1, 121536, Control_c, 0, 64, 55
1, 121551, Control_c, 0, 64, 61
1, 121562, Note_on_c, 0, 66, 84
1, 121564, Control_c, 0, 64, 65
1, 121571, Note_off_c, 0, 67, 61
1, 121573, Note_off_c, 0, 63, 62
1, 121579, Control_c, 0, 64, 67
1, 121594, Control_c, 0, 64, 68
1, 121609, Control_c, 0, 64, 70
1, 121624, Control_c, 0, 64, 74
1, 121639, Control_c, 0, 64, 80
1, 121643, Note_off_c, 0, 66, 64
1, 121646, Note_on_c, 0, 67, 84
1, 121654, Control_c, 0, 64, 82
1, 121669, Control_c, 0, 64, 80
1, 121684, Control_c, 0, 64, 68
1, 121698, Control_c, 0, 64, 43
1, 121713, Control_c, 0, 64, 0
1, 121746, Note_on_c, 0, 64, 93
1, 121748, Note_on_c, 0, 68, 79
1, 121770, Note_off_c, 0, 67, 58
1, 121772, Control_c, 0, 64, 47
1, 121787, Control_c, 0, 64, 56
1, 121802, Control_c, 0, 64, 62
1, 121817, Control_c, 0, 64, 66
1, 121830, Note_off_c, 0, 68, 62
1, 121832, Control_c, 0, 64, 70
1, 121840, Note_on_c, 0, 70, 81
1, 121841, Note_off_c, 0, 73, 61
1, 121846, Control_c, 0, 64, 73
1, 121861, Control_c, 0, 64, 75
1, 121876, Control_c, 0, 64, 76
1, 121931, Note_on_c, 0, 68, 79
1, 121936, Note_off_c, 0, 70, 63
1, 122009, Control_c, 0, 64, 75
1, 122024, Control_c, 0, 64, 74
1, 122031, Note_off_c, 0, 68, 62
1, 122032, Note_on_c, 0, 73, 70
1, 122038, Control_c, 0, 64, 71
1, 122053, Note_on_c, 0, 67, 85
1, 122053, Control_c, 0, 64, 67
1, 122060, Note_on_c, 0, 63, 78
1, 122068, Control_c, 0, 64, 59
1, 122083, Control_c, 0, 64, 39
1, 122085, Note_off_c, 0, 64, 64
1, 122098, Control_c, 0, 64, 0
1, 122113, Note_off_c, 0, 73, 61
1, 122131, Note_on_c, 0, 72, 77
1, 122220, Note_off_c, 0, 72, 57
1, 122226, Note_on_c, 0, 73, 77
1, 122269, Control_c, 0, 64, 37
1, 122284, Control_c, 0, 64, 54
1, 122299, Control_c, 0, 64, 63
1, 122313, Control_c, 0, 64, 67
1, 122320, Note_off_c, 0, 67, 64
1, 122326, Note_on_c, 0, 75, 83
1, 122327, Control_c, 0, 64, 71
1, 122342, Control_c, 0, 64, 73
1, 122349, Note_off_c, 0, 63, 63
1, 122357, Control_c, 0, 64, 74
1, 122369, Note_off_c, 0, 73, 60
1, 122372, Control_c, 0, 64, 76
1, 122410, Note_off_c, 0, 75, 63
1, 122416, Note_on_c, 0, 76, 83
1, 122432, Control_c, 0, 64, 75
1, 122447, Control_c, 0, 64, 74
1, 122461, Control_c, 0, 64, 72
1, 122476, Control_c, 0, 64, 70
1, 122491, Control_c, 0, 64, 66
1, 122495, Note_on_c, 0, 73, 73
1, 122506, Control_c, 0, 64, 59
1, 122518, Note_off_c, 0, 76, 62
1, 122520, Control_c, 0, 64, 44
1, 122535, Control_c, 0, 64, 0
1, 122607, Note_on_c, 0, 68, 77
1, 122608, Note_on_c, 0, 72, 77
1, 122611, Note_on_c, 0, 44, 92
1, 122635, Note_off_c, 0, 73, 61
1, 122654, Control_c, 0, 64, 31
1, 122668, Control_c, 0, 64, 51
1, 122670, Note_off_c, 0, 72, 63
1, 122670, Note_off_c, 0, 68, 62
1, 122683, Control_c, 0, 64, 61
1, 122698, Control_c, 0, 64, 66
1, 122712, Control_c, 0, 64, 68
1, 122727, Control_c, 0, 64, 70
1, 122742, Control_c, 0, 64, 72
1, 122757, Control_c, 0, 64, 73
1, 122772, Control_c, 0, 64, 74
1, 122782, Note_off_c, 0, 44, 61
1, 122787, Control_c, 0, 64, 75
1, 122906, Control_c, 0, 64, 72
1, 122921, Control_c, 0, 64, 62
1, 122936, Control_c, 0, 64, 28
1, 122938, Note_on_c, 0, 44, 75
1, 122950, Control_c, 0, 64, 0
1, 123032, Control_c, 0, 64, 39
1, 123047, Control_c, 0, 64, 52
1, 123063, Control_c, 0, 64, 57
1, 123078, Control_c, 0, 64, 60
1, 123092, Control_c, 0, 64, 62
1, 123107, Control_c, 0, 64, 64
1, 123122, Control_c, 0, 64, 66
1, 123136, Control_c, 0, 64, 67
1, 123140, Note_off_c, 0, 44, 59
1, 123166, Control_c, 0, 64, 66
1, 123181, Control_c, 0, 64, 58
1, 123196, Control_c, 0, 64, 0
1, 123250, Note_on_c, 0, 49, 85
1, 123270, Control_c, 0, 64, 37
1, 123274, Note_on_c, 0, 45, 88
1, 123284, Control_c, 0, 64, 62
1, 123299, Control_c, 0, 64, 71
1, 123314, Control_c, 0, 64, 73
1, 123329, Control_c, 0, 64, 71
1, 123344, Control_c, 0, 64, 63
1, 123359, Control_c, 0, 64, 50
1, 123374, Control_c, 0, 64, 0
1, 123448, Note_off_c, 0, 49, 58
1, 123579, Note_on_c, 0, 49, 70
1, 123610, Control_c, 0, 64, 28
1, 123625, Control_c, 0, 64, 39
1, 123640, Control_c, 0, 64, 47
1, 123654, Control_c, 0, 64, 53
1, 123669, Control_c, 0, 64, 55
1, 123684, Control_c, 0, 64, 56
1, 123699, Control_c, 0, 64, 57
1, 123715, Control_c, 0, 64, 59
1, 123737, Control_c, 0, 64, 61
1, 123744, Note_off_c, 0, 49, 61
1, 123752, Control_c, 0, 64, 63
1, 123755, Note_off_c, 0, 45, 59
1, 123767, Control_c, 0, 64, 67
1, 123782, Control_c, 0, 64, 71
1, 123797, Control_c, 0, 64, 72
1, 123811, Control_c, 0, 64, 68
1, 123826, Control_c, 0, 64, 54
1, 123840, Control_c, 0, 64, 0
1, 123879, Note_on_c, 0, 50, 75
1, 123882, Note_on_c, 0, 46, 85
1, 123914, Control_c, 0, 64, 42
1, 123929, Control_c, 0, 64, 60
1, 123944, Control_c, 0, 64, 63
1, 123983, Note_on_c, 0, 51, 72
1, 123988, Control_c, 0, 64, 62
1, 123994, Note_off_c, 0, 50, 56
1, 124003, Control_c, 0, 64, 56
1, 124018, Control_c, 0, 64, 37
1, 124025, Note_off_c, 0, 46, 54
1, 124033, Control_c, 0, 64, 0
1, 124053, Note_off_c, 0, 51, 63
1, 124080, Note_on_c, 0, 52, 64
1, 124146, Note_off_c, 0, 52, 64
1, 124170, Note_on_c, 0, 46, 78
1, 124177, Note_on_c, 0, 53, 72
1, 124181, Control_c, 0, 64, 39
1, 124196, Control_c, 0, 64, 46
1, 124211, Control_c, 0, 64, 51
1, 124226, Control_c, 0, 64, 55
1, 124240, Control_c, 0, 64, 58
1, 124255, Control_c, 0, 64, 59
1, 124268, Note_on_c, 0, 54, 67
1, 124273, Note_off_c, 0, 46, 58
1, 124283, Note_off_c, 0, 53, 56
1, 124339, Note_on_c, 0, 55, 72
1, 124342, Note_off_c, 0, 54, 63
1, 124344, Control_c, 0, 64, 58
1, 124358, Control_c, 0, 64, 56
1, 124373, Control_c, 0, 64, 48
1, 124388, Control_c, 0, 64, 0
1, 124453, Note_on_c, 0, 47, 81
1, 124459, Note_on_c, 0, 56, 80
1, 124468, Note_on_c, 0, 51, 83
1, 124494, Note_off_c, 0, 55, 51
1, 124530, Control_c, 0, 64, 31
1, 124545, Control_c, 0, 64, 51
1, 124549, Note_off_c, 0, 47, 63
1, 124554, Note_on_c, 0, 46, 76
1, 124560, Control_c, 0, 64, 58
1, 124575, Control_c, 0, 64, 59
1, 124589, Control_c, 0, 64, 61
1, 124596, Note_off_c, 0, 51, 61
1, 124604, Control_c, 0, 64, 62
1, 124619, Control_c, 0, 64, 63
1, 124634, Control_c, 0, 64, 64
1, 124654, Note_off_c, 0, 46, 55
1, 124655, Note_on_c, 0, 47, 72
1, 124678, Control_c, 0, 64, 63
1, 124693, Control_c, 0, 64, 59
1, 124707, Control_c, 0, 64, 45
1, 124722, Control_c, 0, 64, 0
1, 124742, Note_off_c, 0, 47, 62
1, 124752, Note_on_c, 0, 49, 69
1, 124778, Note_on_c, 0, 51, 70
1, 124811, Control_c, 0, 64, 28
1, 124826, Control_c, 0, 64, 40
1, 124838, Note_off_c, 0, 49, 62
1, 124841, Control_c, 0, 64, 51
1, 124843, Note_on_c, 0, 47, 67
1, 124856, Control_c, 0, 64, 57
1, 124870, Control_c, 0, 64, 58
1, 124885, Control_c, 0, 64, 58
1, 124886, Note_off_c, 0, 56, 60
1, 124897, Note_off_c, 0, 51, 57
1, 124900, Control_c, 0, 64, 59
1, 124915, Control_c, 0, 64, 60
1, 124930, Control_c, 0, 64, 61
1, 124936, Note_off_c, 0, 47, 63
1, 124939, Note_on_c, 0, 46, 69
1, 124945, Control_c, 0, 64, 63
1, 124974, Control_c, 0, 64, 62
1, 124989, Control_c, 0, 64, 55
1, 125004, Control_c, 0, 64, 30
1, 125019, Control_c, 0, 64, 0
1, 125046, Note_on_c, 0, 57, 71
1, 125052, Note_on_c, 0, 47, 75
1, 125054, Note_on_c, 0, 51, 69
1, 125067, Note_off_c, 0, 46, 58
1, 125093, Control_c, 0, 64, 41
1, 125107, Control_c, 0, 64, 52
1, 125122, Control_c, 0, 64, 61
1, 125137, Control_c, 0, 64, 65
1, 125141, Note_on_c, 0, 50, 77
1, 125142, Note_off_c, 0, 51, 62
1, 125152, Control_c, 0, 64, 69
1, 125167, Note_off_c, 0, 47, 57
1, 125167, Control_c, 0, 64, 74
1, 125181, Control_c, 0, 64, 82
1, 125196, Control_c, 0, 64, 86
1, 125211, Control_c, 0, 64, 87
1, 125234, Control_c, 0, 64, 87
1, 125239, Note_on_c, 0, 51, 88
1, 125249, Control_c, 0, 64, 77
1, 125255, Note_off_c, 0, 50, 61
1, 125263, Control_c, 0, 64, 59
1, 125278, Control_c, 0, 64, 0
1, 125325, Note_on_c, 0, 48, 98
1, 125331, Note_on_c, 0, 52, 80
1, 125331, Note_off_c, 0, 51, 62
1, 125383, Control_c, 0, 64, 41
1, 125398, Control_c, 0, 64, 61
1, 125412, Control_c, 0, 64, 67
1, 125420, Note_on_c, 0, 54, 81
1, 125424, Note_off_c, 0, 52, 61
1, 125427, Control_c, 0, 64, 72
1, 125440, Note_off_c, 0, 57, 64
1, 125442, Control_c, 0, 64, 74
1, 125457, Control_c, 0, 64, 75
1, 125472, Control_c, 0, 64, 75
1, 125486, Control_c, 0, 64, 76
1, 125501, Note_off_c, 0, 54, 63
1, 125505, Note_on_c, 0, 52, 82
1, 125545, Control_c, 0, 64, 75
1, 125560, Control_c, 0, 64, 74
1, 125575, Control_c, 0, 64, 72
1, 125590, Control_c, 0, 64, 67
1, 125604, Control_c, 0, 64, 63
1, 125619, Control_c, 0, 64, 57
1, 125634, Control_c, 0, 64, 48
1, 125645, Note_off_c, 0, 52, 57
1, 125649, Control_c, 0, 64, 35
1, 125650, Note_on_c, 0, 57, 68
1, 125651, Note_off_c, 0, 48, 59
1, 125661, Note_on_c, 0, 51, 79
1, 125664, Control_c, 0, 64, 0
1, 125684, Note_on_c, 0, 47, 39
1, 125720, Note_off_c, 0, 57, 61
1, 125767, Note_on_c, 0, 56, 67
1, 125851, Note_on_c, 0, 57, 70
1, 125854, Note_off_c, 0, 56, 60
1, 125955, Note_on_c, 0, 59, 71
1, 125967, Note_off_c, 0, 57, 58
1, 126041, Note_off_c, 0, 59, 64
1, 126042, Note_off_c, 0, 47, 62
1, 126051, Note_on_c, 0, 60, 68
1, 126087, Note_off_c, 0, 51, 62
1, 126125, Note_on_c, 0, 57, 71
1, 126125, Note_off_c, 0, 60, 65
1, 126247, Note_off_c, 0, 57, 64
1, 126247, Note_on_c, 0, 56, 78
1, 126260, Note_on_c, 0, 52, 78
1, 126265, Control_c, 0, 64, 47
1, 126280, Control_c, 0, 64, 61
1, 126295, Control_c, 0, 64, 66
1, 126309, Control_c, 0, 64, 70
1, 126324, Control_c, 0, 64, 73
1, 126339, Control_c, 0, 64, 78
1, 126351, Note_off_c, 0, 56, 63
1, 126353, Control_c, 0, 64, 82
1, 126368, Control_c, 0, 64, 84
1, 126383, Control_c, 0, 64, 86
1, 126398, Control_c, 0, 64, 88
1, 126413, Control_c, 0, 64, 90
1, 126426, Note_off_c, 0, 52, 54
1, 126427, Control_c, 0, 64, 92
1, 126442, Control_c, 0, 64, 93
1, 126575, Control_c, 0, 64, 91
1, 126590, Control_c, 0, 64, 88
1, 126595, Note_on_c, 0, 52, 64
1, 126605, Control_c, 0, 64, 80
1, 126620, Control_c, 0, 64, 67
1, 126635, Control_c, 0, 64, 52
1, 126650, Control_c, 0, 64, 0
1, 126694, Control_c, 0, 64, 28
1, 126709, Control_c, 0, 64, 44
1, 126731, Control_c, 0, 64, 55
1, 126746, Control_c, 0, 64, 61
1, 126760, Control_c, 0, 64, 63
1, 126775, Control_c, 0, 64, 65
1, 126782, Note_off_c, 0, 52, 58
1, 126790, Control_c, 0, 64, 67
1, 126806, Control_c, 0, 64, 69
1, 126821, Control_c, 0, 64, 71
1, 126835, Control_c, 0, 64, 74
1, 126850, Control_c, 0, 64, 76
1, 126865, Control_c, 0, 64, 77
1, 126880, Control_c, 0, 64, 76
1, 126894, Control_c, 0, 64, 69
1, 126898, Note_on_c, 0, 57, 81
1, 126910, Control_c, 0, 64, 50
1, 126921, Note_on_c, 0, 53, 67
1, 126925, Control_c, 0, 64, 0
1, 126984, Control_c, 0, 64, 45
1, 126999, Control_c, 0, 64, 59
1, 127014, Control_c, 0, 64, 66
1, 127029, Control_c, 0, 64, 73
1, 127044, Control_c, 0, 64, 78
1, 127058, Control_c, 0, 64, 81
1, 127069, Note_off_c, 0, 57, 59
1, 127073, Control_c, 0, 64, 84
1, 127088, Control_c, 0, 64, 87
1, 127103, Control_c, 0, 64, 90
1, 127118, Control_c, 0, 64, 91
1, 127133, Control_c, 0, 64, 93
1, 127162, Control_c, 0, 64, 90
1, 127177, Control_c, 0, 64, 79
1, 127192, Control_c, 0, 64, 64
1, 127207, Control_c, 0, 64, 46
1, 127222, Control_c, 0, 64, 35
1, 127227, Note_on_c, 0, 57, 53
1, 127237, Control_c, 0, 64, 45
1, 127251, Control_c, 0, 64, 60
1, 127265, Note_off_c, 0, 53, 63
1, 127266, Control_c, 0, 64, 69
1, 127281, Control_c, 0, 64, 77
1, 127295, Note_off_c, 0, 57, 63
1, 127296, Control_c, 0, 64, 85
1, 127310, Control_c, 0, 64, 90
1, 127325, Control_c, 0, 64, 97
1, 127340, Control_c, 0, 64, 104
1, 127355, Control_c, 0, 64, 108
1, 127370, Control_c, 0, 64, 111
1, 127414, Control_c, 0, 64, 114
1, 127481, Control_c, 0, 64, 99
1, 127496, Control_c, 0, 64, 76
1, 127510, Control_c, 0, 64, 55
1, 127514, Note_on_c, 0, 60, 72
1, 127523, Note_on_c, 0, 53, 68
1, 127525, Control_c, 0, 64, 0
1, 127526, Note_on_c, 0, 69, 68
1, 127569, Control_c, 0, 64, 52
1, 127583, Control_c, 0, 64, 65
1, 127598, Control_c, 0, 64, 72
1, 127610, Note_off_c, 0, 69, 58
1, 127612, Note_on_c, 0, 70, 71
1, 127613, Control_c, 0, 64, 80
1, 127617, Note_off_c, 0, 60, 60
1, 127626, Note_off_c, 0, 53, 58
1, 127628, Control_c, 0, 64, 89
1, 127642, Control_c, 0, 64, 105
1, 127657, Control_c, 0, 64, 127
1, 127686, Note_off_c, 0, 70, 65
1, 127711, Note_on_c, 0, 71, 75
1, 127764, Note_off_c, 0, 71, 60
1, 127792, Control_c, 0, 64, 93
1, 127797, Note_on_c, 0, 72, 82
1, 127806, Control_c, 0, 64, 69
1, 127813, Note_on_c, 0, 60, 70
1, 127820, Note_on_c, 0, 53, 66
1, 127821, Control_c, 0, 64, 46
1, 127836, Control_c, 0, 64, 0
1, 127881, Control_c, 0, 64, 42
1, 127886, Note_off_c, 0, 72, 56
1, 127892, Note_on_c, 0, 73, 75
1, 127896, Control_c, 0, 64, 59
1, 127903, Note_off_c, 0, 60, 59
1, 127911, Control_c, 0, 64, 68
1, 127925, Control_c, 0, 64, 75
1, 127935, Note_off_c, 0, 53, 48
1, 127940, Control_c, 0, 64, 84
1, 127955, Control_c, 0, 64, 93
1, 127970, Control_c, 0, 64, 104
1, 127973, Note_on_c, 0, 74, 79
1, 127985, Control_c, 0, 64, 117
1, 127999, Control_c, 0, 64, 127
1, 128013, Note_off_c, 0, 73, 61
1, 128073, Control_c, 0, 64, 116
1, 128088, Control_c, 0, 64, 77
1, 128090, Note_on_c, 0, 75, 90
1, 128103, Control_c, 0, 64, 56
1, 128108, Note_on_c, 0, 53, 72
1, 128110, Note_on_c, 0, 69, 65
1, 128115, Note_off_c, 0, 74, 62
1, 128118, Control_c, 0, 64, 0
1, 128147, Control_c, 0, 64, 41
1, 128162, Control_c, 0, 64, 61
1, 128177, Control_c, 0, 64, 71
1, 128192, Control_c, 0, 64, 80
1, 128195, Note_off_c, 0, 69, 57
1, 128202, Note_on_c, 0, 55, 77
1, 128206, Control_c, 0, 64, 90
1, 128229, Control_c, 0, 64, 98
1, 128234, Note_off_c, 0, 53, 62
1, 128244, Control_c, 0, 64, 112
1, 128251, Note_off_c, 0, 75, 58
1, 128258, Control_c, 0, 64, 127
1, 128301, Note_on_c, 0, 56, 79
1, 128301, Note_off_c, 0, 55, 62
1, 128362, Control_c, 0, 64, 85
1, 128377, Control_c, 0, 64, 61
1, 128382, Note_off_c, 0, 56, 65
1, 128392, Control_c, 0, 64, 0
1, 128400, Note_on_c, 0, 57, 75
1, 128400, Note_on_c, 0, 75, 77
1, 128412, Note_on_c, 0, 69, 65
1, 128452, Note_off_c, 0, 69, 63
1, 128465, Control_c, 0, 64, 34
1, 128471, Note_off_c, 0, 75, 60
1, 128480, Control_c, 0, 64, 52
1, 128486, Note_off_c, 0, 57, 59
1, 128489, Note_on_c, 0, 58, 72
1, 128495, Control_c, 0, 64, 60
1, 128511, Control_c, 0, 64, 64
1, 128526, Control_c, 0, 64, 66
1, 128541, Control_c, 0, 64, 69
1, 128555, Control_c, 0, 64, 72
1, 128570, Control_c, 0, 64, 73
1, 128581, Note_off_c, 0, 58, 63
1, 128586, Note_on_c, 0, 59, 79
1, 128600, Control_c, 0, 64, 71
1, 128615, Control_c, 0, 64, 63
1, 128629, Control_c, 0, 64, 35
1, 128644, Control_c, 0, 64, 0
1, 128695, Note_off_c, 0, 59, 56
1, 128697, Note_on_c, 0, 54, 82
1, 128698, Note_on_c, 0, 75, 78
1, 128704, Note_on_c, 0, 60, 77
1, 128748, Control_c, 0, 64, 37
1, 128763, Control_c, 0, 64, 59
1, 128775, Note_off_c, 0, 75, 61
1, 128778, Control_c, 0, 64, 65
1, 128784, Note_on_c, 0, 76, 81
1, 128793, Control_c, 0, 64, 71
1, 128808, Control_c, 0, 64, 78
1, 128811, Note_off_c, 0, 60, 57
1, 128822, Control_c, 0, 64, 81
1, 128837, Note_off_c, 0, 54, 56
1, 128837, Control_c, 0, 64, 82
1, 128839, Note_off_c, 0, 76, 65
1, 128852, Control_c, 0, 64, 82
1, 128867, Control_c, 0, 64, 75
1, 128874, Note_on_c, 0, 77, 87
1, 128881, Control_c, 0, 64, 60
1, 128896, Control_c, 0, 64, 0
1, 128955, Control_c, 0, 64, 54
1, 128975, Note_on_c, 0, 78, 82
1, 128978, Control_c, 0, 64, 63
1, 128984, Note_on_c, 0, 54, 79
1, 128989, Note_on_c, 0, 60, 76
1, 128992, Note_off_c, 0, 77, 61
1, 128993, Control_c, 0, 64, 67
1, 129008, Control_c, 0, 64, 73
1, 129023, Control_c, 0, 64, 81
1, 129037, Control_c, 0, 64, 89
1, 129047, Note_off_c, 0, 60, 57
1, 129051, Note_off_c, 0, 54, 57
1, 129052, Control_c, 0, 64, 94
1, 129053, Note_on_c, 0, 79, 80
1, 129067, Control_c, 0, 64, 98
1, 129079, Note_off_c, 0, 78, 60
1, 129081, Control_c, 0, 64, 102
1, 129096, Control_c, 0, 64, 105
1, 129145, Note_on_c, 0, 80, 90
1, 129181, Note_off_c, 0, 79, 58
1, 129215, Control_c, 0, 64, 88
1, 129229, Control_c, 0, 64, 68
1, 129244, Control_c, 0, 64, 38
1, 129259, Control_c, 0, 64, 0
1, 129263, Note_on_c, 0, 81, 93
1, 129264, Note_on_c, 0, 54, 71
1, 129275, Note_on_c, 0, 75, 84
1, 129281, Note_off_c, 0, 80, 50
1, 129319, Control_c, 0, 64, 32
1, 129334, Control_c, 0, 64, 55
1, 129349, Control_c, 0, 64, 64
1, 129359, Note_on_c, 0, 55, 72
1, 129364, Control_c, 0, 64, 70
1, 129365, Note_off_c, 0, 75, 59
1, 129378, Control_c, 0, 64, 76
1, 129386, Note_off_c, 0, 54, 59
1, 129393, Control_c, 0, 64, 79
1, 129395, Note_off_c, 0, 81, 63
1, 129408, Control_c, 0, 64, 82
1, 129423, Control_c, 0, 64, 83
1, 129438, Control_c, 0, 64, 84
1, 129452, Note_off_c, 0, 55, 63
1, 129452, Control_c, 0, 64, 84
1, 129456, Note_on_c, 0, 56, 81
1, 129497, Control_c, 0, 64, 84
1, 129511, Control_c, 0, 64, 77
1, 129526, Control_c, 0, 64, 60
1, 129541, Control_c, 0, 64, 0
1, 129543, Note_off_c, 0, 56, 61
1, 129553, Note_on_c, 0, 81, 85
1, 129555, Note_on_c, 0, 57, 72
1, 129562, Note_on_c, 0, 75, 79
1, 129615, Note_off_c, 0, 75, 64
1, 129616, Control_c, 0, 64, 50
1, 129631, Control_c, 0, 64, 62
1, 129633, Note_off_c, 0, 81, 64
1, 129641, Note_off_c, 0, 57, 58
1, 129641, Note_on_c, 0, 59, 78
1, 129645, Control_c, 0, 64, 67
1, 129660, Control_c, 0, 64, 71
1, 129675, Control_c, 0, 64, 76
1, 129690, Control_c, 0, 64, 80
1, 129704, Control_c, 0, 64, 83
1, 129726, Control_c, 0, 64, 86
1, 129740, Note_off_c, 0, 59, 59
1, 129741, Control_c, 0, 64, 87
1, 129756, Note_on_c, 0, 60, 70
1, 129756, Control_c, 0, 64, 87
1, 129771, Control_c, 0, 64, 88
1, 129786, Control_c, 0, 64, 89
1, 129801, Control_c, 0, 64, 87
1, 129815, Note_off_c, 0, 60, 63
1, 129816, Control_c, 0, 64, 71
1, 129831, Control_c, 0, 64, 37
1, 129846, Control_c, 0, 64, 0
1, 129857, Note_on_c, 0, 81, 83
1, 129860, Note_on_c, 0, 54, 79
1, 129864, Note_on_c, 0, 59, 75
1, 129905, Control_c, 0, 64, 40
1, 129920, Control_c, 0, 64, 64
1, 129935, Control_c, 0, 64, 73
1, 129947, Note_on_c, 0, 82, 76
1, 129950, Control_c, 0, 64, 86
1, 129953, Note_off_c, 0, 81, 65
1, 129957, Note_off_c, 0, 59, 60
1, 129965, Control_c, 0, 64, 97
1, 129969, Note_off_c, 0, 54, 58
1, 129979, Control_c, 0, 64, 114
1, 129994, Control_c, 0, 64, 127
1, 130030, Note_off_c, 0, 82, 58
1, 130038, Note_on_c, 0, 83, 85
1, 130090, Note_off_c, 0, 83, 64
1, 130099, Control_c, 0, 64, 121
1, 130114, Control_c, 0, 64, 74
1, 130128, Control_c, 0, 64, 45
1, 130129, Note_on_c, 0, 84, 86
1, 130139, Note_on_c, 0, 54, 68
1, 130141, Note_on_c, 0, 59, 69
1, 130143, Control_c, 0, 64, 0
1, 130173, Control_c, 0, 64, 31
1, 130188, Control_c, 0, 64, 62
1, 130202, Control_c, 0, 64, 73
1, 130217, Control_c, 0, 64, 88
1, 130218, Note_off_c, 0, 59, 58
1, 130218, Note_on_c, 0, 85, 85
1, 130229, Note_off_c, 0, 84, 61
1, 130232, Control_c, 0, 64, 107
1, 130242, Note_off_c, 0, 54, 55
1, 130247, Control_c, 0, 64, 127
1, 130304, Note_on_c, 0, 86, 83
1, 130339, Note_off_c, 0, 85, 62
1, 130365, Control_c, 0, 64, 107
1, 130380, Control_c, 0, 64, 70
1, 130394, Control_c, 0, 64, 47
1, 130405, Note_on_c, 0, 54, 65
1, 130405, Note_on_c, 0, 87, 88
1, 130409, Control_c, 0, 64, 0
1, 130422, Note_on_c, 0, 81, 67
1, 130427, Note_off_c, 0, 86, 59
1, 130439, Control_c, 0, 64, 32
1, 130453, Control_c, 0, 64, 56
1, 130468, Control_c, 0, 64, 67
1, 130491, Control_c, 0, 64, 79
1, 130506, Note_on_c, 0, 55, 81
1, 130506, Control_c, 0, 64, 103
1, 130513, Note_off_c, 0, 81, 56
1, 130521, Control_c, 0, 64, 127
1, 130546, Note_off_c, 0, 54, 61
1, 130565, Note_off_c, 0, 87, 55
1, 130596, Note_on_c, 0, 56, 85
1, 130599, Note_off_c, 0, 55, 65
1, 130624, Control_c, 0, 64, 98
1, 130639, Control_c, 0, 64, 64
1, 130653, Control_c, 0, 64, 0
1, 130671, Note_on_c, 0, 87, 92
1, 130681, Note_on_c, 0, 81, 83
1, 130686, Note_on_c, 0, 57, 84
1, 130695, Note_off_c, 0, 56, 60
1, 130713, Control_c, 0, 64, 41
1, 130728, Control_c, 0, 64, 64
1, 130734, Note_off_c, 0, 57, 66
1, 130735, Note_off_c, 0, 87, 62
1, 130743, Control_c, 0, 64, 79
1, 130744, Note_off_c, 0, 81, 60
1, 130757, Control_c, 0, 64, 105
1, 130772, Control_c, 0, 64, 127
1, 130774, Note_on_c, 0, 59, 91
1, 130844, Note_off_c, 0, 59, 62
1, 130863, Note_on_c, 0, 60, 81
1, 130904, Note_off_c, 0, 60, 62
1, 130921, Control_c, 0, 64, 75
1, 130936, Control_c, 0, 64, 40
1, 130951, Control_c, 0, 64, 0
1, 130973, Note_on_c, 0, 88, 98
1, 130979, Note_on_c, 0, 59, 94
1, 130982, Note_on_c, 0, 55, 84
1, 131011, Control_c, 0, 64, 62
1, 131023, Note_off_c, 0, 59, 65
1, 131025, Control_c, 0, 64, 74
1, 131038, Note_off_c, 0, 55, 63
1, 131040, Control_c, 0, 64, 92
1, 131055, Control_c, 0, 64, 112
1, 131056, Note_on_c, 0, 83, 85
1, 131069, Control_c, 0, 64, 127
1, 131082, Note_off_c, 0, 88, 66
1, 131143, Note_on_c, 0, 79, 81
1, 131146, Note_off_c, 0, 83, 65
1, 131173, Control_c, 0, 64, 72
1, 131188, Control_c, 0, 64, 37
1, 131199, Note_off_c, 0, 79, 66
1, 131203, Control_c, 0, 64, 0
1, 131240, Control_c, 0, 64, 54
1, 131249, Note_on_c, 0, 76, 76
1, 131255, Control_c, 0, 64, 68
1, 131257, Note_on_c, 0, 59, 88
1, 131258, Note_on_c, 0, 55, 85
1, 131270, Control_c, 0, 64, 82
1, 131280, Note_off_c, 0, 76, 63
1, 131284, Control_c, 0, 64, 100
1, 131299, Control_c, 0, 64, 127
1, 131326, Note_off_c, 0, 55, 60
1, 131327, Note_off_c, 0, 59, 58
1, 131342, Note_on_c, 0, 71, 76
1, 131412, Note_off_c, 0, 71, 61
1, 131429, Note_on_c, 0, 67, 74
1, 131447, Control_c, 0, 64, 106
1, 131462, Control_c, 0, 64, 93
1, 131476, Control_c, 0, 64, 84
1, 131480, Note_off_c, 0, 67, 61
1, 131491, Control_c, 0, 64, 77
1, 131506, Control_c, 0, 64, 71
1, 131506, Control_c, 0, 67, 34
1, 131521, Note_on_c, 0, 64, 64
1, 131521, Control_c, 0, 64, 65
1, 131521, Control_c, 0, 67, 44
1, 131536, Control_c, 0, 64, 60
1, 131536, Control_c, 0, 67, 52
1, 131550, Control_c, 0, 64, 58
1, 131550, Control_c, 0, 67, 58
1, 131561, Note_off_c, 0, 64, 58
1, 131565, Control_c, 0, 64, 57
1, 131565, Control_c, 0, 67, 64
1, 131580, Control_c, 0, 64, 55
1, 131580, Control_c, 0, 67, 69
1, 131595, Control_c, 0, 64, 51
1, 131595, Control_c, 0, 67, 75
1, 131610, Control_c, 0, 64, 44
1, 131610, Control_c, 0, 67, 82
1, 131617, Note_on_c, 0, 63, 58
1, 131625, Control_c, 0, 64, 35
1, 131625, Control_c, 0, 67, 88
1, 131640, Control_c, 0, 64, 30
1, 131640, Control_c, 0, 67, 91
1, 131662, Note_off_c, 0, 63, 59
1, 131697, Note_on_c, 0, 64, 57
1, 131699, Control_c, 0, 64, 0
1, 131714, Control_c, 0, 67, 91
1, 131744, Control_c, 0, 67, 92
1, 131789, Control_c, 0, 67, 93
1, 131798, Note_off_c, 0, 64, 33
1, 131819, Control_c, 0, 67, 95
1, 131834, Control_c, 0, 67, 97
1, 131848, Control_c, 0, 67, 104
1, 131860, Note_on_c, 0, 66, 56
1, 131871, Note_on_c, 0, 57, 34
1, 131873, Note_on_c, 0, 60, 39
1, 131940, Note_off_c, 0, 66, 63
1, 131981, Note_on_c, 0, 67, 53
1, 132003, Control_c, 0, 67, 102
1, 132050, Note_off_c, 0, 67, 62
1, 132062, Note_on_c, 0, 66, 67
1, 132077, Control_c, 0, 67, 99
1, 132135, Note_off_c, 0, 66, 63
1, 132146, Note_off_c, 0, 57, 48
1, 132151, Control_c, 0, 67, 97
1, 132155, Note_off_c, 0, 60, 57
1, 132161, Note_on_c, 0, 59, 50
1, 132161, Note_on_c, 0, 64, 64
1, 132166, Note_on_c, 0, 55, 47
1, 132180, Control_c, 0, 64, 27
1, 132218, Note_off_c, 0, 64, 62
1, 132245, Note_on_c, 0, 66, 66
1, 132284, Control_c, 0, 64, 29
1, 132313, Note_off_c, 0, 66, 63
1, 132331, Note_on_c, 0, 64, 68
1, 132373, Control_c, 0, 64, 31
1, 132403, Control_c, 0, 64, 32
1, 132403, Note_off_c, 0, 55, 46
1, 132406, Note_off_c, 0, 64, 52
1, 132419, Note_off_c, 0, 59, 58
1, 132429, Note_on_c, 0, 60, 53
1, 132432, Control_c, 0, 64, 32
1, 132433, Note_on_c, 0, 66, 65
1, 132442, Note_on_c, 0, 57, 49
1, 132462, Control_c, 0, 64, 33
1, 132510, Note_off_c, 0, 66, 63
1, 132541, Note_on_c, 0, 67, 55
1, 132611, Control_c, 0, 64, 32
1, 132621, Note_off_c, 0, 67, 61
1, 132626, Control_c, 0, 64, 32
1, 132630, Note_on_c, 0, 66, 63
1, 132665, Note_off_c, 0, 57, 56
1, 132709, Note_off_c, 0, 66, 62
1, 132734, Note_on_c, 0, 55, 39
1, 132736, Note_on_c, 0, 59, 45
1, 132737, Control_c, 0, 64, 30
1, 132737, Note_on_c, 0, 64, 53
1, 132746, Note_off_c, 0, 60, 55
1, 132781, Control_c, 0, 64, 0
1, 132784, Note_off_c, 0, 64, 60
1, 132796, Control_c, 0, 67, 99
1, 132840, Note_on_c, 0, 66, 55
1, 132841, Control_c, 0, 67, 102
1, 132871, Control_c, 0, 67, 104
1, 132892, Note_off_c, 0, 66, 61
1, 132909, Note_on_c, 0, 64, 58
1, 132945, Control_c, 0, 67, 106
1, 132974, Note_off_c, 0, 55, 32
1, 132997, Note_off_c, 0, 64, 53
1, 133023, Note_on_c, 0, 63, 55
1, 133038, Note_on_c, 0, 57, 48
1, 133047, Note_off_c, 0, 59, 47
1, 133060, Note_on_c, 0, 54, 44
1, 133066, Note_off_c, 0, 63, 62
1, 133108, Control_c, 0, 64, 40
1, 133108, Control_c, 0, 67, 104
1, 133118, Note_on_c, 0, 64, 55
1, 133122, Control_c, 0, 64, 53
1, 133137, Control_c, 0, 64, 60
1, 133137, Control_c, 0, 67, 101
1, 133152, Control_c, 0, 64, 64
1, 133152, Control_c, 0, 67, 98
1, 133167, Control_c, 0, 64, 66
1, 133170, Note_off_c, 0, 64, 61
1, 133178, Note_off_c, 0, 57, 54
1, 133182, Control_c, 0, 64, 68
1, 133182, Control_c, 0, 67, 95
1, 133196, Control_c, 0, 64, 71
1, 133196, Control_c, 0, 67, 94
1, 133198, Note_on_c, 0, 63, 64
1, 133211, Control_c, 0, 64, 75
1, 133211, Control_c, 0, 67, 92
1, 133218, Note_off_c, 0, 63, 65
1, 133226, Control_c, 0, 64, 78
1, 133226, Control_c, 0, 67, 90
1, 133230, Note_off_c, 0, 54, 48
1, 133241, Control_c, 0, 64, 82
1, 133241, Control_c, 0, 67, 87
1, 133255, Control_c, 0, 64, 87
1, 133255, Control_c, 0, 67, 84
1, 133270, Control_c, 0, 64, 93
1, 133270, Control_c, 0, 67, 83
1, 133285, Control_c, 0, 64, 104
1, 133285, Control_c, 0, 67, 79
1, 133301, Control_c, 0, 64, 112
1, 133301, Control_c, 0, 67, 74
1, 133316, Control_c, 0, 64, 105
1, 133316, Control_c, 0, 67, 60
1, 133331, Control_c, 0, 64, 77
1, 133331, Control_c, 0, 67, 36
1, 133345, Control_c, 0, 64, 39
1, 133345, Control_c, 0, 67, 0
1, 133360, Control_c, 0, 64, 0
1, 133389, Note_on_c, 0, 88, 93
1, 133392, Note_on_c, 0, 59, 85
1, 133394, Note_on_c, 0, 56, 82
1, 133419, Control_c, 0, 64, 54
1, 133434, Control_c, 0, 64, 69
1, 133449, Control_c, 0, 64, 96
1, 133471, Control_c, 0, 64, 127
1, 133477, Note_off_c, 0, 59, 59
1, 133490, Note_off_c, 0, 56, 61
1, 133491, Note_on_c, 0, 83, 83
1, 133518, Note_off_c, 0, 88, 66
1, 133570, Note_on_c, 0, 80, 83
1, 133591, Note_off_c, 0, 83, 64
1, 133644, Note_off_c, 0, 80, 63
1, 133649, Control_c, 0, 64, 73
1, 133664, Control_c, 0, 64, 0
1, 133666, Note_on_c, 0, 76, 78
1, 133675, Note_on_c, 0, 59, 85
1, 133676, Note_on_c, 0, 56, 82
1, 133709, Control_c, 0, 64, 57
1, 133710, Note_off_c, 0, 76, 66
1, 133714, Note_off_c, 0, 59, 66
1, 133723, Control_c, 0, 64, 72
1, 133724, Note_off_c, 0, 56, 64
1, 133738, Control_c, 0, 64, 94
1, 133753, Control_c, 0, 64, 127
1, 133769, Note_on_c, 0, 71, 77
1, 133844, Note_off_c, 0, 71, 60
1, 133853, Note_on_c, 0, 68, 79
1, 133911, Note_off_c, 0, 68, 62
1, 133940, Note_on_c, 0, 64, 70
1, 133945, Control_c, 0, 64, 90
1, 133960, Control_c, 0, 64, 71
1, 133960, Control_c, 0, 67, 48
1, 133974, Note_off_c, 0, 64, 64
1, 133975, Control_c, 0, 64, 60
1, 133975, Control_c, 0, 67, 96
1, 133989, Control_c, 0, 64, 52
1, 133989, Control_c, 0, 67, 124
1, 134004, Control_c, 0, 64, 49
1, 134004, Control_c, 0, 67, 127
1, 134019, Control_c, 0, 64, 46
1, 134034, Control_c, 0, 64, 42
1, 134035, Note_on_c, 0, 63, 64
1, 134049, Control_c, 0, 64, 40
1, 134063, Control_c, 0, 64, 39
1, 134073, Note_off_c, 0, 63, 62
1, 134120, Note_on_c, 0, 64, 53
1, 134207, Note_off_c, 0, 64, 52
1, 134243, Note_on_c, 0, 66, 56
1, 134253, Note_on_c, 0, 61, 39
1, 134260, Note_on_c, 0, 57, 35
1, 134322, Note_off_c, 0, 66, 62
1, 134352, Note_on_c, 0, 68, 54
1, 134424, Note_off_c, 0, 68, 61
1, 134432, Note_on_c, 0, 66, 58
1, 134486, Note_off_c, 0, 66, 62
1, 134522, Note_on_c, 0, 64, 59
1, 134537, Note_off_c, 0, 61, 59
1, 134538, Note_off_c, 0, 57, 48
1, 134551, Note_on_c, 0, 56, 50
1, 134555, Note_on_c, 0, 59, 42
1, 134567, Note_off_c, 0, 64, 60
1, 134608, Note_on_c, 0, 66, 63
1, 134675, Note_off_c, 0, 66, 63
1, 134703, Note_on_c, 0, 64, 54
1, 134788, Note_off_c, 0, 56, 51
1, 134791, Note_off_c, 0, 64, 50
1, 134798, Control_c, 0, 64, 40
1, 134806, Note_on_c, 0, 66, 62
1, 134817, Note_off_c, 0, 59, 59
1, 134827, Control_c, 0, 64, 40
1, 134831, Note_on_c, 0, 61, 43
1, 134838, Note_on_c, 0, 57, 47
1, 134889, Note_off_c, 0, 66, 64
1, 134910, Note_on_c, 0, 68, 53
1, 135001, Note_off_c, 0, 68, 61
1, 135013, Note_on_c, 0, 66, 59
1, 135062, Note_off_c, 0, 66, 59
1, 135084, Note_off_c, 0, 57, 61
1, 135094, Note_on_c, 0, 64, 58
1, 135129, Note_on_c, 0, 56, 45
1, 135130, Note_on_c, 0, 59, 49
1, 135131, Note_off_c, 0, 61, 55
1, 135132, Control_c, 0, 64, 40
1, 135138, Note_off_c, 0, 64, 63
1, 135162, Control_c, 0, 64, 39
1, 135177, Control_c, 0, 64, 38
1, 135187, Note_on_c, 0, 66, 62
1, 135192, Control_c, 0, 64, 35
1, 135206, Control_c, 0, 64, 31
1, 135221, Control_c, 0, 64, 0
1, 135259, Note_off_c, 0, 66, 63
1, 135278, Note_on_c, 0, 64, 64
1, 135357, Note_off_c, 0, 64, 40
1, 135372, Note_on_c, 0, 63, 65
1, 135411, Note_on_c, 0, 57, 50
1, 135420, Note_on_c, 0, 54, 45
1, 135430, Note_off_c, 0, 63, 60
1, 135440, Note_off_c, 0, 59, 45
1, 135443, Control_c, 0, 64, 30
1, 135458, Control_c, 0, 64, 46
1, 135471, Note_on_c, 0, 64, 61
1, 135471, Note_off_c, 0, 57, 62
1, 135473, Control_c, 0, 64, 58
1, 135488, Control_c, 0, 64, 65
1, 135494, Note_off_c, 0, 56, 48
1, 135498, Note_off_c, 0, 54, 62
1, 135503, Control_c, 0, 64, 69
1, 135517, Control_c, 0, 64, 73
1, 135532, Note_off_c, 0, 64, 62
1, 135532, Control_c, 0, 64, 76
1, 135547, Control_c, 0, 64, 81
1, 135557, Note_on_c, 0, 63, 64
1, 135562, Control_c, 0, 64, 86
1, 135577, Control_c, 0, 64, 91
1, 135585, Note_off_c, 0, 63, 65
1, 135591, Control_c, 0, 64, 95
1, 135606, Control_c, 0, 64, 97
1, 135621, Control_c, 0, 64, 99
1, 135621, Control_c, 0, 67, 121
1, 135635, Control_c, 0, 64, 101
1, 135635, Control_c, 0, 67, 113
1, 135650, Control_c, 0, 64, 105
1, 135650, Control_c, 0, 67, 97
1, 135665, Control_c, 0, 64, 108
1, 135665, Control_c, 0, 67, 71
1, 135680, Control_c, 0, 64, 112
1, 135680, Control_c, 0, 67, 43
1, 135696, Control_c, 0, 67, 0
1, 135733, Control_c, 0, 64, 104
1, 135747, Control_c, 0, 64, 86
1, 135762, Control_c, 0, 64, 69
1, 135774, Note_on_c, 0, 88, 83
1, 135775, Note_on_c, 0, 44, 53
1, 135777, Control_c, 0, 64, 55
1, 135791, Control_c, 0, 64, 46
1, 135806, Control_c, 0, 64, 51
1, 135820, Control_c, 0, 64, 61
1, 135835, Control_c, 0, 64, 68
1, 135850, Control_c, 0, 64, 79
1, 135864, Control_c, 0, 64, 95
1, 135871, Note_on_c, 0, 83, 83
1, 135879, Control_c, 0, 64, 127
1, 135901, Note_off_c, 0, 88, 65
1, 135950, Note_on_c, 0, 80, 87
1, 135969, Note_off_c, 0, 44, 37
1, 135971, Note_off_c, 0, 83, 65
1, 136026, Note_off_c, 0, 80, 60
1, 136032, Note_on_c, 0, 76, 78
1, 136043, Control_c, 0, 64, 80
1, 136052, Note_on_c, 0, 56, 76
1, 136055, Note_on_c, 0, 52, 69
1, 136057, Control_c, 0, 64, 57
1, 136060, Note_on_c, 0, 47, 72
1, 136072, Control_c, 0, 64, 43
1, 136073, Note_off_c, 0, 76, 63
1, 136087, Control_c, 0, 64, 53
1, 136093, Note_off_c, 0, 56, 60
1, 136102, Control_c, 0, 64, 64
1, 136105, Note_off_c, 0, 52, 58
1, 136117, Control_c, 0, 64, 74
1, 136132, Control_c, 0, 64, 90
1, 136133, Note_on_c, 0, 71, 75
1, 136133, Note_off_c, 0, 47, 62
1, 136146, Control_c, 0, 64, 115
1, 136161, Control_c, 0, 64, 127
1, 136185, Note_off_c, 0, 71, 63
1, 136213, Note_on_c, 0, 68, 70
1, 136236, Note_off_c, 0, 68, 70
1, 136338, Control_c, 0, 64, 90
1, 136353, Control_c, 0, 64, 65
1, 136356, Note_on_c, 0, 45, 75
1, 136368, Control_c, 0, 64, 40
1, 136378, Note_on_c, 0, 84, 58
1, 136382, Control_c, 0, 64, 0
1, 136386, Note_on_c, 0, 83, 66
1, 136412, Control_c, 0, 64, 41
1, 136427, Control_c, 0, 64, 59
1, 136442, Note_off_c, 0, 83, 44
1, 136442, Control_c, 0, 64, 67
1, 136463, Note_on_c, 0, 80, 64
1, 136464, Control_c, 0, 64, 74
1, 136466, Note_off_c, 0, 84, 64
1, 136479, Control_c, 0, 64, 83
1, 136495, Control_c, 0, 64, 94
1, 136496, Note_on_c, 0, 81, 63
1, 136510, Control_c, 0, 64, 112
1, 136524, Note_off_c, 0, 81, 67
1, 136525, Control_c, 0, 64, 127
1, 136528, Note_off_c, 0, 80, 62
1, 136561, Note_on_c, 0, 76, 72
1, 136570, Note_off_c, 0, 45, 60
1, 136607, Note_off_c, 0, 76, 61
1, 136629, Control_c, 0, 64, 104
1, 136644, Control_c, 0, 64, 66
1, 136650, Note_on_c, 0, 57, 77
1, 136659, Control_c, 0, 64, 0
1, 136660, Note_on_c, 0, 49, 65
1, 136662, Note_on_c, 0, 52, 64
1, 136669, Note_on_c, 0, 73, 73
1, 136682, Note_off_c, 0, 57, 64
1, 136688, Control_c, 0, 64, 40
1, 136702, Note_off_c, 0, 52, 64
1, 136703, Control_c, 0, 64, 56
1, 136711, Note_off_c, 0, 49, 60
1, 136718, Control_c, 0, 64, 66
1, 136733, Control_c, 0, 64, 75
1, 136748, Control_c, 0, 64, 89
1, 136751, Note_off_c, 0, 73, 62
1, 136755, Note_on_c, 0, 69, 75
1, 136762, Control_c, 0, 64, 110
1, 136777, Control_c, 0, 64, 127
1, 136832, Note_on_c, 0, 64, 77
1, 136833, Note_off_c, 0, 69, 62
1, 136873, Note_off_c, 0, 64, 63
1, 136910, Control_c, 0, 64, 107
1, 136925, Control_c, 0, 64, 63
1, 136940, Control_c, 0, 64, 0
1, 136951, Note_on_c, 0, 47, 81
1, 136952, Note_on_c, 0, 83, 91
1, 136999, Control_c, 0, 64, 48
1, 137005, Note_off_c, 0, 47, 64
1, 137014, Control_c, 0, 64, 64
1, 137029, Control_c, 0, 64, 71
1, 137039, Note_on_c, 0, 80, 84
1, 137044, Control_c, 0, 64, 80
1, 137059, Control_c, 0, 64, 91
1, 137064, Note_off_c, 0, 83, 62
1, 137074, Control_c, 0, 64, 102
1, 137088, Control_c, 0, 64, 127
1, 137132, Note_on_c, 0, 76, 77
1, 137173, Note_off_c, 0, 80, 61
1, 137185, Note_off_c, 0, 76, 66
1, 137207, Control_c, 0, 64, 108
1, 137223, Note_on_c, 0, 71, 82
1, 137229, Control_c, 0, 64, 65
1, 137244, Control_c, 0, 64, 0
1, 137245, Note_on_c, 0, 52, 72
1, 137247, Note_on_c, 0, 59, 70
1, 137250, Note_on_c, 0, 56, 66
1, 137274, Control_c, 0, 64, 33
1, 137289, Control_c, 0, 64, 57
1, 137304, Control_c, 0, 64, 70
1, 137309, Note_off_c, 0, 52, 61
1, 137309, Note_on_c, 0, 68, 78
1, 137311, Note_off_c, 0, 71, 60
1, 137316, Note_off_c, 0, 59, 63
1, 137318, Control_c, 0, 64, 84
1, 137330, Note_off_c, 0, 56, 60
1, 137330, Note_off_c, 0, 68, 70
1, 137333, Control_c, 0, 64, 105
1, 137348, Control_c, 0, 64, 127
1, 137408, Note_on_c, 0, 64, 83
1, 137434, Note_off_c, 0, 64, 67
1, 137497, Control_c, 0, 64, 84
1, 137511, Control_c, 0, 64, 56
1, 137515, Note_on_c, 0, 83, 94
1, 137526, Note_on_c, 0, 47, 82
1, 137526, Control_c, 0, 64, 0
1, 137571, Control_c, 0, 64, 53
1, 137585, Control_c, 0, 64, 65
1, 137600, Control_c, 0, 64, 73
1, 137605, Note_on_c, 0, 78, 84
1, 137615, Control_c, 0, 64, 81
1, 137627, Note_off_c, 0, 47, 59
1, 137630, Control_c, 0, 64, 89
1, 137632, Note_off_c, 0, 83, 65
1, 137644, Control_c, 0, 64, 97
1, 137659, Control_c, 0, 64, 110
1, 137674, Control_c, 0, 64, 127
1, 137695, Note_on_c, 0, 75, 80
1, 137718, Note_off_c, 0, 78, 61
1, 137763, Control_c, 0, 64, 80
1, 137770, Note_off_c, 0, 75, 63
1, 137778, Control_c, 0, 64, 55
1, 137789, Note_on_c, 0, 71, 77
1, 137792, Control_c, 0, 64, 0
1, 137800, Note_on_c, 0, 59, 83
1, 137802, Note_on_c, 0, 51, 77
1, 137802, Note_on_c, 0, 54, 79
1, 137807, Control_c, 0, 64, 30
1, 137822, Control_c, 0, 64, 54
1, 137831, Note_off_c, 0, 71, 63
1, 137837, Control_c, 0, 64, 67
1, 137848, Note_off_c, 0, 59, 63
1, 137852, Control_c, 0, 64, 77
1, 137859, Note_off_c, 0, 54, 63
1, 137861, Note_off_c, 0, 51, 62
1, 137867, Control_c, 0, 64, 85
1, 137882, Control_c, 0, 64, 92
1, 137885, Note_on_c, 0, 66, 78
1, 137897, Control_c, 0, 64, 98
1, 137911, Control_c, 0, 64, 105
1, 137926, Control_c, 0, 64, 112
1, 137941, Control_c, 0, 64, 123
1, 137941, Note_off_c, 0, 66, 64
1, 137956, Control_c, 0, 64, 127
1, 137971, Note_on_c, 0, 63, 72
1, 138004, Note_off_c, 0, 63, 63
1, 138066, Control_c, 0, 64, 114
1, 138081, Control_c, 0, 64, 87
1, 138096, Control_c, 0, 64, 66
1, 138111, Control_c, 0, 64, 37
1, 138126, Note_on_c, 0, 64, 85
1, 138126, Control_c, 0, 64, 0
1, 138141, Control_c, 0, 67, 51
1, 138156, Control_c, 0, 67, 65
1, 138171, Control_c, 0, 67, 71
1, 138186, Control_c, 0, 67, 73
1, 138201, Control_c, 0, 67, 74
1, 138212, Note_on_c, 0, 59, 78
1, 138222, Note_off_c, 0, 64, 65
1, 138230, Control_c, 0, 67, 73
1, 138245, Control_c, 0, 67, 73
1, 138289, Control_c, 0, 67, 72
1, 138293, Note_off_c, 0, 59, 65
1, 138300, Note_on_c, 0, 55, 69
1, 138393, Control_c, 0, 64, 31
1, 138398, Note_on_c, 0, 52, 69
1, 138406, Note_off_c, 0, 55, 60
1, 138407, Control_c, 0, 64, 43
1, 138422, Control_c, 0, 64, 51
1, 138431, Note_off_c, 0, 52, 64
1, 138437, Control_c, 0, 64, 56
1, 138452, Control_c, 0, 64, 60
1, 138452, Control_c, 0, 67, 72
1, 138466, Control_c, 0, 64, 62
1, 138466, Control_c, 0, 67, 71
1, 138481, Control_c, 0, 64, 63
1, 138481, Control_c, 0, 67, 70
1, 138487, Note_on_c, 0, 47, 50
1, 138496, Control_c, 0, 64, 63
1, 138511, Control_c, 0, 64, 64
1, 138511, Control_c, 0, 67, 69
1, 138535, Note_off_c, 0, 47, 58
1, 138582, Note_on_c, 0, 43, 45
1, 138600, Control_c, 0, 64, 63
1, 138615, Control_c, 0, 64, 63
1, 138630, Control_c, 0, 64, 61
1, 138645, Control_c, 0, 64, 57
1, 138659, Control_c, 0, 64, 51
1, 138659, Control_c, 0, 67, 70
1, 138669, Note_off_c, 0, 43, 56
1, 138674, Control_c, 0, 64, 42
1, 138689, Control_c, 0, 64, 0
1, 138702, Note_on_c, 0, 71, 47
1, 138713, Note_on_c, 0, 64, 29
1, 138714, Note_on_c, 0, 67, 45
1, 138724, Note_on_c, 0, 40, 42
1, 138770, Control_c, 0, 64, 41
1, 138785, Control_c, 0, 64, 53
1, 138800, Control_c, 0, 64, 59
1, 138807, Note_off_c, 0, 40, 61
1, 138815, Control_c, 0, 64, 61
1, 138830, Control_c, 0, 64, 62
1, 138837, Note_off_c, 0, 67, 56
1, 138838, Note_on_c, 0, 39, 52
1, 138845, Control_c, 0, 64, 63
1, 138845, Control_c, 0, 67, 69
1, 138860, Control_c, 0, 64, 65
1, 138874, Control_c, 0, 64, 67
1, 138874, Control_c, 0, 67, 69
1, 138889, Control_c, 0, 64, 69
1, 138904, Control_c, 0, 64, 71
1, 138916, Note_off_c, 0, 71, 52
1, 138919, Control_c, 0, 64, 71
1, 138919, Control_c, 0, 67, 68
1, 138928, Note_off_c, 0, 39, 58
1, 138934, Control_c, 0, 64, 72
1, 138949, Note_on_c, 0, 40, 47
1, 138949, Control_c, 0, 64, 73
1, 138994, Control_c, 0, 64, 72
1, 138994, Control_c, 0, 67, 69
1, 139008, Control_c, 0, 64, 69
1, 139015, Note_off_c, 0, 40, 60
1, 139015, Note_on_c, 0, 71, 50
1, 139023, Control_c, 0, 64, 62
1, 139026, Note_on_c, 0, 69, 48
1, 139038, Control_c, 0, 64, 51
1, 139041, Note_on_c, 0, 42, 56
1, 139044, Note_on_c, 0, 63, 45
1, 139053, Control_c, 0, 64, 39
1, 139053, Control_c, 0, 67, 69
1, 139059, Note_off_c, 0, 64, 39
1, 139068, Control_c, 0, 64, 37
1, 139082, Control_c, 0, 64, 43
1, 139097, Control_c, 0, 64, 52
1, 139112, Control_c, 0, 64, 57
1, 139121, Note_off_c, 0, 42, 62
1, 139127, Control_c, 0, 64, 60
1, 139135, Note_on_c, 0, 43, 51
1, 139142, Control_c, 0, 64, 62
1, 139156, Control_c, 0, 64, 65
1, 139171, Control_c, 0, 64, 67
1, 139186, Control_c, 0, 64, 68
1, 139192, Note_off_c, 0, 69, 57
1, 139201, Control_c, 0, 64, 69
1, 139202, Note_off_c, 0, 43, 58
1, 139215, Control_c, 0, 64, 70
1, 139227, Note_on_c, 0, 42, 54
1, 139230, Control_c, 0, 64, 71
1, 139233, Note_off_c, 0, 71, 53
1, 139245, Control_c, 0, 64, 72
1, 139260, Control_c, 0, 64, 72
1, 139275, Control_c, 0, 64, 72
1, 139289, Control_c, 0, 64, 68
1, 139304, Control_c, 0, 64, 59
1, 139307, Note_off_c, 0, 42, 61
1, 139319, Control_c, 0, 64, 44
1, 139326, Note_on_c, 0, 40, 52
1, 139334, Control_c, 0, 64, 31
1, 139335, Note_on_c, 0, 71, 67
1, 139335, Note_off_c, 0, 63, 55
1, 139344, Note_on_c, 0, 67, 54
1, 139345, Note_on_c, 0, 64, 55
1, 139349, Control_c, 0, 64, 34
1, 139363, Control_c, 0, 64, 46
1, 139378, Control_c, 0, 64, 54
1, 139393, Control_c, 0, 64, 60
1, 139393, Control_c, 0, 67, 69
1, 139408, Note_off_c, 0, 40, 60
1, 139408, Control_c, 0, 64, 64
1, 139408, Control_c, 0, 67, 68
1, 139419, Note_on_c, 0, 39, 64
1, 139423, Control_c, 0, 64, 68
1, 139423, Control_c, 0, 67, 68
1, 139438, Control_c, 0, 64, 71
1, 139438, Control_c, 0, 67, 67
1, 139460, Control_c, 0, 64, 73
1, 139460, Control_c, 0, 67, 67
1, 139475, Control_c, 0, 64, 75
1, 139475, Control_c, 0, 67, 66
1, 139489, Control_c, 0, 64, 77
1, 139489, Control_c, 0, 67, 65
1, 139501, Note_off_c, 0, 64, 55
1, 139504, Control_c, 0, 64, 79
1, 139514, Note_off_c, 0, 67, 57
1, 139519, Control_c, 0, 64, 80
1, 139519, Control_c, 0, 67, 65
1, 139526, Note_off_c, 0, 71, 52
1, 139533, Note_off_c, 0, 39, 57
1, 139535, Note_on_c, 0, 40, 59
1, 139535, Control_c, 0, 64, 80
1, 139550, Control_c, 0, 64, 81
1, 139579, Control_c, 0, 67, 65
1, 139594, Control_c, 0, 64, 80
1, 139608, Control_c, 0, 64, 75
1, 139608, Control_c, 0, 67, 66
1, 139615, Note_off_c, 0, 40, 62
1, 139623, Note_on_c, 0, 42, 67
1, 139623, Control_c, 0, 64, 65
1, 139638, Note_on_c, 0, 69, 66
1, 139638, Control_c, 0, 64, 45
1, 139640, Note_on_c, 0, 71, 74
1, 139641, Note_on_c, 0, 63, 67
1, 139653, Control_c, 0, 64, 0
1, 139668, Control_c, 0, 67, 65
1, 139684, Control_c, 0, 67, 64
1, 139699, Control_c, 0, 67, 64
1, 139711, Note_off_c, 0, 42, 63
1, 139713, Control_c, 0, 64, 43
1, 139713, Control_c, 0, 67, 63
1, 139718, Note_on_c, 0, 43, 61
1, 139728, Control_c, 0, 64, 56
1, 139728, Control_c, 0, 67, 61
1, 139743, Control_c, 0, 64, 63
1, 139743, Control_c, 0, 67, 60
1, 139758, Control_c, 0, 64, 66
1, 139758, Control_c, 0, 67, 58
1, 139773, Control_c, 0, 64, 70
1, 139773, Control_c, 0, 67, 57
1, 139776, Note_off_c, 0, 69, 60
1, 139787, Control_c, 0, 64, 73
1, 139787, Control_c, 0, 67, 54
1, 139792, Note_off_c, 0, 63, 57
1, 139802, Control_c, 0, 64, 76
1, 139802, Control_c, 0, 67, 53
1, 139810, Note_off_c, 0, 43, 62
1, 139811, Note_off_c, 0, 71, 54
1, 139816, Note_on_c, 0, 42, 67
1, 139817, Control_c, 0, 64, 79
1, 139817, Control_c, 0, 67, 52
1, 139832, Control_c, 0, 64, 83
1, 139832, Control_c, 0, 67, 50
1, 139846, Control_c, 0, 64, 86
1, 139846, Control_c, 0, 67, 48
1, 139861, Control_c, 0, 64, 88
1, 139861, Control_c, 0, 67, 43
1, 139876, Control_c, 0, 67, 0
1, 139891, Control_c, 0, 64, 85
1, 139906, Control_c, 0, 64, 71
1, 139921, Control_c, 0, 64, 50
1, 139926, Note_on_c, 0, 67, 66
1, 139926, Note_off_c, 0, 42, 62
1, 139927, Note_on_c, 0, 71, 72
1, 139930, Note_on_c, 0, 64, 69
1, 139932, Note_on_c, 0, 40, 61
1, 139936, Control_c, 0, 64, 0
1, 139980, Control_c, 0, 64, 47
1, 139995, Control_c, 0, 64, 61
1, 139995, Note_off_c, 0, 40, 62
1, 139998, Note_off_c, 0, 67, 64
1, 140010, Control_c, 0, 64, 68
1, 140019, Note_on_c, 0, 42, 76
1, 140025, Control_c, 0, 64, 75
1, 140039, Control_c, 0, 64, 84
1, 140043, Note_off_c, 0, 64, 61
1, 140054, Control_c, 0, 64, 93
1, 140069, Control_c, 0, 64, 106
1, 140084, Control_c, 0, 64, 127
1, 140085, Note_off_c, 0, 71, 58
1, 140103, Note_off_c, 0, 42, 62
1, 140111, Note_on_c, 0, 40, 70
1, 140187, Control_c, 0, 64, 97
1, 140198, Note_off_c, 0, 40, 61
1, 140210, Control_c, 0, 64, 66
1, 140211, Note_on_c, 0, 38, 75
1, 140223, Note_on_c, 0, 71, 77
1, 140225, Control_c, 0, 64, 31
1, 140225, Note_on_c, 0, 67, 76
1, 140230, Note_on_c, 0, 65, 72
1, 140239, Control_c, 0, 64, 0
1, 140269, Control_c, 0, 64, 41
1, 140284, Control_c, 0, 64, 63
1, 140299, Control_c, 0, 64, 73
1, 140299, Note_off_c, 0, 38, 62
1, 140305, Note_on_c, 0, 40, 77
1, 140312, Note_off_c, 0, 65, 60
1, 140313, Control_c, 0, 64, 87
1, 140314, Note_off_c, 0, 67, 55
1, 140328, Control_c, 0, 64, 106
1, 140338, Note_off_c, 0, 71, 58
1, 140343, Control_c, 0, 64, 127
1, 140392, Note_off_c, 0, 40, 59
1, 140399, Note_on_c, 0, 38, 76
1, 140475, Note_off_c, 0, 38, 60
1, 140507, Control_c, 0, 64, 80
1, 140522, Control_c, 0, 64, 50
1, 140526, Note_on_c, 0, 72, 76
1, 140526, Note_on_c, 0, 64, 78
1, 140526, Note_on_c, 0, 67, 72
1, 140529, Note_on_c, 0, 36, 81
1, 140536, Control_c, 0, 64, 0
1, 140581, Control_c, 0, 64, 54
1, 140588, Note_off_c, 0, 64, 65
1, 140596, Control_c, 0, 64, 72
1, 140597, Note_off_c, 0, 67, 63
1, 140610, Control_c, 0, 64, 96
1, 140617, Note_on_c, 0, 40, 78
1, 140625, Control_c, 0, 64, 127
1, 140630, Note_off_c, 0, 72, 63
1, 140650, Note_off_c, 0, 36, 62
1, 140708, Note_on_c, 0, 43, 80
1, 140729, Note_off_c, 0, 40, 61
1, 140786, Note_off_c, 0, 43, 61
1, 140799, Note_on_c, 0, 48, 79
1, 140803, Control_c, 0, 64, 80
1, 140818, Control_c, 0, 64, 54
1, 140833, Note_off_c, 0, 48, 67
1, 140833, Control_c, 0, 64, 0
1, 140896, Note_on_c, 0, 52, 67
1, 140965, Note_off_c, 0, 52, 62
1, 140994, Note_on_c, 0, 55, 64
1, 141042, Note_off_c, 0, 55, 59
1, 141104, Note_on_c, 0, 60, 45
1, 141104, Note_on_c, 0, 79, 56
1, 141107, Control_c, 0, 64, 29
1, 141107, Note_on_c, 0, 76, 50
1, 141122, Control_c, 0, 64, 42
1, 141126, Note_on_c, 0, 72, 38
1, 141136, Control_c, 0, 64, 51
1, 141151, Control_c, 0, 64, 57
1, 141166, Control_c, 0, 64, 59
1, 141173, Note_off_c, 0, 60, 56
1, 141180, Control_c, 0, 64, 61
1, 141195, Control_c, 0, 64, 62
1, 141208, Note_on_c, 0, 62, 55
1, 141210, Control_c, 0, 64, 64
1, 141220, Note_off_c, 0, 72, 57
1, 141225, Control_c, 0, 64, 66
1, 141240, Control_c, 0, 64, 68
1, 141254, Control_c, 0, 64, 70
1, 141269, Control_c, 0, 64, 71
1, 141275, Note_off_c, 0, 62, 61
1, 141285, Control_c, 0, 64, 73
1, 141289, Note_on_c, 0, 60, 59
1, 141299, Note_off_c, 0, 79, 59
1, 141300, Control_c, 0, 64, 74
1, 141315, Control_c, 0, 64, 76
1, 141330, Control_c, 0, 64, 76
1, 141345, Control_c, 0, 64, 75
1, 141351, Note_off_c, 0, 76, 59
1, 141359, Control_c, 0, 64, 69
1, 141367, Note_off_c, 0, 60, 62
1, 141374, Control_c, 0, 64, 61
1, 141379, Note_on_c, 0, 59, 66
1, 141387, Note_on_c, 0, 77, 64
1, 141389, Control_c, 0, 64, 50
1, 141399, Note_on_c, 0, 79, 71
1, 141399, Note_on_c, 0, 74, 62
1, 141403, Control_c, 0, 64, 48
1, 141418, Control_c, 0, 64, 53
1, 141433, Control_c, 0, 64, 58
1, 141448, Control_c, 0, 64, 62
1, 141459, Note_off_c, 0, 59, 63
1, 141463, Control_c, 0, 64, 65
1, 141467, Note_on_c, 0, 57, 68
1, 141477, Control_c, 0, 64, 69
1, 141492, Control_c, 0, 64, 71
1, 141497, Note_off_c, 0, 74, 58
1, 141507, Control_c, 0, 64, 73
1, 141522, Control_c, 0, 64, 75
1, 141537, Control_c, 0, 64, 76
1, 141551, Control_c, 0, 64, 77
1, 141566, Control_c, 0, 64, 78
1, 141572, Note_on_c, 0, 59, 71
1, 141577, Note_off_c, 0, 79, 52
1, 141581, Control_c, 0, 64, 78
1, 141596, Note_off_c, 0, 57, 62
1, 141596, Control_c, 0, 64, 79
1, 141611, Control_c, 0, 64, 80
1, 141641, Control_c, 0, 64, 77
1, 141656, Control_c, 0, 64, 68
1, 141671, Control_c, 0, 64, 55
1, 141679, Note_on_c, 0, 79, 75
1, 141680, Note_on_c, 0, 60, 69
1, 141682, Note_off_c, 0, 59, 64
1, 141685, Note_on_c, 0, 72, 71
1, 141685, Control_c, 0, 64, 31
1, 141685, Note_on_c, 0, 76, 70
1, 141700, Control_c, 0, 64, 0
1, 141713, Note_off_c, 0, 77, 59
1, 141737, Control_c, 0, 64, 43
1, 141752, Control_c, 0, 64, 55
1, 141766, Control_c, 0, 64, 63
1, 141778, Note_off_c, 0, 60, 64
1, 141779, Note_off_c, 0, 72, 56
1, 141781, Control_c, 0, 64, 66
1, 141784, Note_on_c, 0, 62, 69
1, 141796, Control_c, 0, 64, 69
1, 141811, Control_c, 0, 64, 74
1, 141826, Control_c, 0, 64, 78
1, 141840, Control_c, 0, 64, 81
1, 141842, Note_off_c, 0, 79, 58
1, 141855, Control_c, 0, 64, 85
1, 141870, Control_c, 0, 64, 87
1, 141877, Note_on_c, 0, 60, 76
1, 141881, Note_off_c, 0, 62, 61
1, 141885, Control_c, 0, 64, 89
1, 141900, Control_c, 0, 64, 90
1, 141915, Control_c, 0, 64, 90
1, 141930, Control_c, 0, 64, 84
1, 141945, Control_c, 0, 64, 71
1, 141959, Note_off_c, 0, 76, 51
1, 141960, Control_c, 0, 64, 54
1, 141966, Note_on_c, 0, 79, 76
1, 141970, Note_on_c, 0, 77, 81
1, 141975, Note_on_c, 0, 59, 77
1, 141975, Control_c, 0, 64, 0
1, 141976, Note_on_c, 0, 74, 80
1, 141987, Note_off_c, 0, 60, 62
1, 142019, Control_c, 0, 64, 28
1, 142034, Control_c, 0, 64, 46
1, 142049, Control_c, 0, 64, 60
1, 142060, Note_off_c, 0, 59, 65
1, 142064, Control_c, 0, 64, 64
1, 142064, Note_on_c, 0, 57, 74
1, 142076, Note_off_c, 0, 74, 59
1, 142079, Control_c, 0, 64, 67
1, 142094, Control_c, 0, 64, 70
1, 142105, Note_off_c, 0, 79, 59
1, 142109, Control_c, 0, 64, 74
1, 142124, Control_c, 0, 64, 78
1, 142139, Control_c, 0, 64, 82
1, 142153, Control_c, 0, 64, 85
1, 142154, Note_on_c, 0, 59, 81
1, 142168, Control_c, 0, 64, 88
1, 142172, Note_off_c, 0, 57, 56
1, 142183, Control_c, 0, 64, 90
1, 142213, Control_c, 0, 64, 87
1, 142227, Control_c, 0, 64, 72
1, 142242, Control_c, 0, 64, 54
1, 142255, Note_on_c, 0, 76, 84
1, 142255, Note_on_c, 0, 79, 77
1, 142257, Control_c, 0, 64, 0
1, 142259, Note_on_c, 0, 60, 81
1, 142259, Note_on_c, 0, 72, 82
1, 142260, Note_off_c, 0, 59, 62
1, 142300, Note_off_c, 0, 77, 60
1, 142346, Control_c, 0, 64, 40
1, 142350, Note_off_c, 0, 60, 64
1, 142354, Note_on_c, 0, 62, 79
1, 142361, Control_c, 0, 64, 56
1, 142375, Control_c, 0, 64, 64
1, 142390, Control_c, 0, 64, 67
1, 142405, Control_c, 0, 64, 69
1, 142415, Note_off_c, 0, 76, 59
1, 142420, Control_c, 0, 64, 72
1, 142422, Note_off_c, 0, 79, 60
1, 142434, Control_c, 0, 64, 76
1, 142448, Note_on_c, 0, 60, 82
1, 142449, Control_c, 0, 64, 81
1, 142461, Note_off_c, 0, 62, 62
1, 142472, Control_c, 0, 64, 87
1, 142487, Control_c, 0, 64, 90
1, 142502, Control_c, 0, 64, 90
1, 142516, Control_c, 0, 64, 84
1, 142531, Control_c, 0, 64, 67
1, 142546, Control_c, 0, 64, 47
1, 142552, Note_on_c, 0, 79, 78
1, 142553, Note_on_c, 0, 76, 77
1, 142555, Note_on_c, 0, 59, 75
1, 142556, Note_off_c, 0, 60, 63
1, 142560, Control_c, 0, 64, 0
1, 142605, Control_c, 0, 64, 43
1, 142620, Control_c, 0, 64, 59
1, 142624, Note_off_c, 0, 59, 65
1, 142634, Note_off_c, 0, 79, 64
1, 142634, Control_c, 0, 64, 67
1, 142639, Note_off_c, 0, 76, 62
1, 142647, Note_on_c, 0, 60, 72
1, 142649, Control_c, 0, 64, 72
1, 142664, Control_c, 0, 64, 77
1, 142679, Control_c, 0, 64, 82
1, 142690, Note_off_c, 0, 72, 59
1, 142694, Control_c, 0, 64, 87
1, 142708, Control_c, 0, 64, 91
1, 142723, Control_c, 0, 64, 93
1, 142729, Note_on_c, 0, 59, 75
1, 142750, Note_off_c, 0, 60, 56
1, 142782, Control_c, 0, 64, 91
1, 142797, Control_c, 0, 64, 86
1, 142812, Control_c, 0, 64, 77
1, 142827, Control_c, 0, 64, 65
1, 142842, Control_c, 0, 64, 47
1, 142845, Note_on_c, 0, 58, 77
1, 142848, Note_off_c, 0, 59, 63
1, 142853, Note_on_c, 0, 79, 76
1, 142857, Control_c, 0, 64, 0
1, 142941, Note_on_c, 0, 76, 85
1, 142977, Note_off_c, 0, 79, 63
1, 142991, Control_c, 0, 64, 39
1, 143005, Note_off_c, 0, 58, 60
1, 143006, Control_c, 0, 64, 60
1, 143021, Control_c, 0, 64, 69
1, 143029, Note_on_c, 0, 73, 81
1, 143035, Note_off_c, 0, 76, 66
1, 143036, Control_c, 0, 64, 78
1, 143050, Control_c, 0, 64, 94
1, 143065, Control_c, 0, 64, 127
1, 143098, Note_on_c, 0, 67, 78
1, 143108, Note_off_c, 0, 73, 63
1, 143125, Note_off_c, 0, 67, 65
1, 143154, Control_c, 0, 64, 101
1, 143169, Control_c, 0, 64, 65
1, 143183, Control_c, 0, 64, 0
1, 143207, Note_on_c, 0, 64, 79
1, 143286, Note_off_c, 0, 64, 63
1, 143288, Note_on_c, 0, 61, 76
1, 143311, Note_off_c, 0, 61, 70
1, 143414, Note_on_c, 0, 88, 101
1, 143428, Control_c, 0, 64, 48
1, 143433, Note_on_c, 0, 46, 89
1, 143443, Control_c, 0, 64, 66
1, 143457, Control_c, 0, 64, 75
1, 143472, Control_c, 0, 64, 86
1, 143487, Control_c, 0, 64, 94
1, 143502, Control_c, 0, 64, 96
1, 143517, Control_c, 0, 64, 98
1, 143565, Note_off_c, 0, 88, 67
1, 143590, Note_on_c, 0, 49, 77
1, 143590, Note_on_c, 0, 76, 82
1, 143605, Note_off_c, 0, 46, 59
1, 143605, Control_c, 0, 64, 88
1, 143619, Note_off_c, 0, 76, 64
1, 143620, Control_c, 0, 64, 74
1, 143627, Note_off_c, 0, 49, 63
1, 143635, Control_c, 0, 64, 62
1, 143650, Control_c, 0, 64, 42
1, 143665, Control_c, 0, 64, 0
1, 143766, Note_on_c, 0, 76, 79
1, 143767, Note_on_c, 0, 79, 86
1, 143772, Note_on_c, 0, 49, 88
1, 143799, Control_c, 0, 64, 57
1, 143814, Control_c, 0, 64, 71
1, 143829, Control_c, 0, 64, 89
1, 143844, Control_c, 0, 64, 127
1, 143847, Note_off_c, 0, 76, 64
1, 143903, Note_on_c, 0, 67, 84
1, 143909, Note_on_c, 0, 61, 85
1, 143921, Note_off_c, 0, 79, 60
1, 143924, Note_off_c, 0, 49, 66
1, 143937, Note_off_c, 0, 61, 66
1, 143955, Note_off_c, 0, 67, 61
1, 143984, Control_c, 0, 64, 99
1, 143999, Control_c, 0, 64, 71
1, 144014, Control_c, 0, 64, 53
1, 144028, Control_c, 0, 64, 29
1, 144043, Control_c, 0, 64, 0
1, 144089, Note_on_c, 0, 79, 86
1, 144176, Note_on_c, 0, 76, 87
1, 144207, Note_off_c, 0, 79, 63
1, 144267, Note_on_c, 0, 71, 86
1, 144284, Note_off_c, 0, 76, 64
1, 144347, Note_on_c, 0, 67, 79
1, 144350, Note_off_c, 0, 71, 63
1, 144370, Note_off_c, 0, 67, 69
1, 144440, Note_on_c, 0, 64, 77
1, 144495, Note_off_c, 0, 64, 68
1, 144506, Note_on_c, 0, 59, 81
1, 144530, Note_off_c, 0, 59, 70
1, 144634, Note_on_c, 0, 88, 99
1, 144659, Note_on_c, 0, 46, 71
1, 144666, Control_c, 0, 64, 70
1, 144681, Control_c, 0, 64, 90
1, 144690, Note_on_c, 0, 45, 56
1, 144703, Control_c, 0, 64, 127
1, 144742, Note_off_c, 0, 45, 50
1, 144765, Note_off_c, 0, 46, 58
1, 144781, Note_off_c, 0, 88, 66
1, 144816, Note_on_c, 0, 76, 78
1, 144817, Note_on_c, 0, 47, 79
1, 144840, Note_off_c, 0, 76, 67
1, 144852, Note_off_c, 0, 47, 64
1, 144911, Control_c, 0, 64, 114
1, 144926, Control_c, 0, 64, 84
1, 144941, Control_c, 0, 64, 61
1, 144955, Control_c, 0, 64, 0
1, 144975, Note_on_c, 0, 79, 86
1, 144976, Note_on_c, 0, 76, 76
1, 144979, Note_on_c, 0, 47, 87
1, 145029, Control_c, 0, 64, 31
1, 145044, Control_c, 0, 64, 59
1, 145054, Note_off_c, 0, 76, 64
1, 145059, Control_c, 0, 64, 69
1, 145074, Control_c, 0, 64, 83
1, 145089, Control_c, 0, 64, 113
1, 145103, Control_c, 0, 64, 127
1, 145115, Note_off_c, 0, 47, 63
1, 145118, Note_on_c, 0, 67, 79
1, 145125, Note_off_c, 0, 79, 50
1, 145134, Note_on_c, 0, 59, 66
1, 145152, Note_off_c, 0, 67, 61
1, 145160, Note_off_c, 0, 59, 66
1, 145251, Control_c, 0, 64, 87
1, 145266, Control_c, 0, 64, 68
1, 145282, Control_c, 0, 64, 48
1, 145297, Control_c, 0, 64, 0
1, 145300, Note_on_c, 0, 79, 86
1, 145382, Note_on_c, 0, 76, 85
1, 145413, Note_off_c, 0, 79, 64
1, 145474, Note_off_c, 0, 76, 65
1, 145484, Note_on_c, 0, 69, 81
1, 145530, Note_off_c, 0, 69, 63
1, 145569, Note_on_c, 0, 69, 69
1, 145601, Note_off_c, 0, 69, 66
1, 145672, Note_on_c, 0, 67, 70
1, 145714, Note_off_c, 0, 67, 66
1, 145743, Note_on_c, 0, 64, 60
1, 145765, Note_off_c, 0, 64, 62
1, 145862, Note_on_c, 0, 88, 69
1, 145887, Note_on_c, 0, 47, 53
1, 145926, Control_c, 0, 64, 30
1, 145941, Control_c, 0, 64, 41
1, 145956, Control_c, 0, 64, 54
1, 145970, Control_c, 0, 64, 61
1, 145975, Note_off_c, 0, 88, 62
1, 145985, Control_c, 0, 64, 64
1, 146000, Control_c, 0, 64, 66
1, 146015, Control_c, 0, 64, 68
1, 146023, Note_off_c, 0, 47, 61
1, 146030, Control_c, 0, 64, 71
1, 146032, Note_on_c, 0, 76, 65
1, 146040, Note_on_c, 0, 48, 63
1, 146045, Control_c, 0, 64, 74
1, 146059, Control_c, 0, 64, 77
1, 146065, Note_off_c, 0, 76, 62
1, 146067, Note_off_c, 0, 48, 62
1, 146075, Control_c, 0, 64, 79
1, 146090, Control_c, 0, 64, 79
1, 146105, Control_c, 0, 64, 80
1, 146135, Control_c, 0, 64, 79
1, 146149, Control_c, 0, 64, 76
1, 146164, Control_c, 0, 64, 67
1, 146179, Control_c, 0, 64, 54
1, 146184, Note_on_c, 0, 81, 69
1, 146194, Note_on_c, 0, 48, 65
1, 146194, Control_c, 0, 64, 38
1, 146204, Note_on_c, 0, 76, 48
1, 146207, Note_on_c, 0, 79, 52
1, 146216, Control_c, 0, 64, 36
1, 146227, Note_off_c, 0, 76, 61
1, 146231, Control_c, 0, 64, 44
1, 146246, Control_c, 0, 64, 55
1, 146261, Control_c, 0, 64, 61
1, 146276, Control_c, 0, 64, 66
1, 146282, Note_off_c, 0, 79, 61
1, 146290, Control_c, 0, 64, 70
1, 146297, Note_off_c, 0, 81, 64
1, 146305, Control_c, 0, 64, 75
1, 146307, Note_off_c, 0, 48, 56
1, 146320, Control_c, 0, 64, 78
1, 146327, Note_on_c, 0, 69, 70
1, 146333, Note_on_c, 0, 60, 69
1, 146335, Control_c, 0, 64, 81
1, 146350, Control_c, 0, 64, 83
1, 146351, Note_off_c, 0, 69, 69
1, 146364, Control_c, 0, 64, 85
1, 146367, Note_off_c, 0, 60, 65
1, 146379, Control_c, 0, 64, 86
1, 146394, Control_c, 0, 64, 86
1, 146423, Control_c, 0, 64, 86
1, 146438, Control_c, 0, 64, 84
1, 146453, Control_c, 0, 64, 75
1, 146468, Control_c, 0, 64, 64
1, 146482, Control_c, 0, 64, 47
1, 146489, Note_on_c, 0, 88, 84
1, 146497, Control_c, 0, 64, 0
1, 146500, Note_on_c, 0, 47, 72
1, 146541, Control_c, 0, 64, 43
1, 146556, Control_c, 0, 64, 57
1, 146571, Control_c, 0, 64, 64
1, 146586, Control_c, 0, 64, 68
1, 146598, Note_off_c, 0, 88, 66
1, 146601, Control_c, 0, 64, 72
1, 146616, Control_c, 0, 64, 78
1, 146631, Note_on_c, 0, 76, 76
1, 146631, Control_c, 0, 64, 82
1, 146634, Note_on_c, 0, 48, 75
1, 146637, Note_off_c, 0, 47, 62
1, 146646, Control_c, 0, 64, 86
1, 146661, Control_c, 0, 64, 90
1, 146671, Note_off_c, 0, 48, 64
1, 146675, Control_c, 0, 64, 94
1, 146682, Note_off_c, 0, 76, 61
1, 146690, Control_c, 0, 64, 96
1, 146719, Control_c, 0, 64, 94
1, 146734, Control_c, 0, 64, 85
1, 146749, Control_c, 0, 64, 70
1, 146764, Control_c, 0, 64, 53
1, 146779, Control_c, 0, 64, 0
1, 146786, Note_on_c, 0, 81, 78
1, 146790, Note_on_c, 0, 76, 53
1, 146792, Note_on_c, 0, 48, 79
1, 146796, Note_on_c, 0, 79, 61
1, 146823, Control_c, 0, 64, 35
1, 146830, Note_off_c, 0, 76, 66
1, 146838, Control_c, 0, 64, 53
1, 146853, Control_c, 0, 64, 64
1, 146869, Control_c, 0, 64, 70
1, 146880, Note_off_c, 0, 79, 63
1, 146884, Control_c, 0, 64, 78
1, 146894, Note_off_c, 0, 81, 63
1, 146898, Control_c, 0, 64, 86
1, 146913, Control_c, 0, 64, 96
1, 146923, Note_on_c, 0, 69, 81
1, 146928, Control_c, 0, 64, 108
1, 146929, Note_on_c, 0, 60, 70
1, 146950, Note_off_c, 0, 48, 58
1, 146950, Control_c, 0, 64, 127
1, 146964, Note_off_c, 0, 69, 60
1, 146976, Note_off_c, 0, 60, 62
1, 147084, Control_c, 0, 64, 83
1, 147097, Note_on_c, 0, 88, 92
1, 147099, Control_c, 0, 64, 56
1, 147102, Note_on_c, 0, 48, 85
1, 147113, Control_c, 0, 64, 0
1, 147157, Control_c, 0, 64, 49
1, 147172, Control_c, 0, 64, 64
1, 147187, Control_c, 0, 64, 74
1, 147202, Control_c, 0, 64, 86
1, 147216, Note_off_c, 0, 88, 66
1, 147217, Control_c, 0, 64, 99
1, 147231, Control_c, 0, 64, 127
1, 147243, Note_on_c, 0, 76, 82
1, 147250, Note_on_c, 0, 49, 79
1, 147260, Note_off_c, 0, 48, 61
1, 147290, Note_off_c, 0, 76, 65
1, 147306, Note_off_c, 0, 49, 62
1, 147394, Control_c, 0, 64, 74
1, 147395, Note_on_c, 0, 81, 86
1, 147398, Note_on_c, 0, 79, 73
1, 147400, Note_on_c, 0, 49, 89
1, 147400, Note_on_c, 0, 76, 73
1, 147409, Control_c, 0, 64, 42
1, 147424, Control_c, 0, 64, 0
1, 147456, Note_off_c, 0, 76, 65
1, 147468, Control_c, 0, 64, 41
1, 147483, Control_c, 0, 64, 60
1, 147493, Note_off_c, 0, 79, 63
1, 147498, Control_c, 0, 64, 70
1, 147504, Note_off_c, 0, 81, 65
1, 147513, Control_c, 0, 64, 87
1, 147528, Control_c, 0, 64, 127
1, 147530, Note_on_c, 0, 69, 78
1, 147539, Note_on_c, 0, 61, 81
1, 147548, Note_off_c, 0, 69, 71
1, 147566, Note_off_c, 0, 49, 55
1, 147582, Note_off_c, 0, 61, 60
1, 147699, Control_c, 0, 64, 96
1, 147714, Control_c, 0, 64, 64
1, 147716, Note_on_c, 0, 49, 89
1, 147725, Note_on_c, 0, 90, 96
1, 147728, Control_c, 0, 64, 0
1, 147758, Control_c, 0, 64, 36
1, 147772, Control_c, 0, 64, 61
1, 147787, Control_c, 0, 64, 75
1, 147802, Control_c, 0, 64, 99
1, 147807, Note_off_c, 0, 90, 64
1, 147817, Control_c, 0, 64, 127
1, 147842, Note_off_c, 0, 49, 54
1, 147859, Note_on_c, 0, 78, 75
1, 147865, Note_on_c, 0, 50, 75
1, 147879, Note_off_c, 0, 78, 70
1, 147915, Note_off_c, 0, 50, 62
1, 147995, Control_c, 0, 64, 98
1, 148010, Control_c, 0, 64, 64
1, 148014, Note_on_c, 0, 81, 84
1, 148016, Note_on_c, 0, 50, 79
1, 148025, Note_on_c, 0, 74, 64
1, 148025, Control_c, 0, 64, 0
1, 148030, Note_on_c, 0, 78, 79
1, 148084, Control_c, 0, 64, 48
1, 148099, Note_off_c, 0, 81, 65
1, 148099, Note_off_c, 0, 74, 63
1, 148099, Control_c, 0, 64, 63
1, 148114, Control_c, 0, 64, 72
1, 148117, Note_off_c, 0, 78, 59
1, 148125, Note_off_c, 0, 50, 63
1, 148128, Control_c, 0, 64, 85
1, 148133, Note_on_c, 0, 69, 71
1, 148143, Control_c, 0, 64, 103
1, 148152, Note_on_c, 0, 62, 80
1, 148155, Note_off_c, 0, 69, 71
1, 148158, Control_c, 0, 64, 127
1, 148179, Note_off_c, 0, 62, 65
1, 148291, Control_c, 0, 64, 113
1, 148306, Control_c, 0, 64, 69
1, 148309, Note_on_c, 0, 87, 93
1, 148313, Note_on_c, 0, 46, 93
1, 148321, Control_c, 0, 64, 36
1, 148336, Control_c, 0, 64, 0
1, 148366, Control_c, 0, 64, 51
1, 148380, Control_c, 0, 64, 69
1, 148395, Control_c, 0, 64, 93
1, 148410, Control_c, 0, 64, 127
1, 148411, Note_off_c, 0, 87, 64
1, 148452, Note_on_c, 0, 75, 70
1, 148474, Note_off_c, 0, 46, 55
1, 148476, Note_on_c, 0, 47, 76
1, 148480, Note_off_c, 0, 75, 64
1, 148527, Note_off_c, 0, 47, 62
1, 148580, Control_c, 0, 64, 105
1, 148594, Control_c, 0, 64, 67
1, 148609, Control_c, 0, 64, 0
1, 148616, Note_on_c, 0, 83, 78
1, 148628, Note_on_c, 0, 78, 69
1, 148630, Note_on_c, 0, 47, 73
1, 148634, Note_on_c, 0, 75, 69
1, 148643, Note_on_c, 0, 48, 63
1, 148683, Control_c, 0, 64, 44
1, 148698, Control_c, 0, 64, 60
1, 148704, Note_off_c, 0, 83, 63
1, 148713, Control_c, 0, 64, 68
1, 148725, Note_off_c, 0, 47, 61
1, 148728, Control_c, 0, 64, 76
1, 148735, Note_off_c, 0, 75, 61
1, 148739, Note_off_c, 0, 78, 61
1, 148742, Note_on_c, 0, 71, 70
1, 148742, Control_c, 0, 64, 86
1, 148752, Note_off_c, 0, 48, 25
1, 148757, Control_c, 0, 64, 98
1, 148758, Note_on_c, 0, 59, 71
1, 148768, Note_off_c, 0, 71, 67
1, 148772, Control_c, 0, 64, 113
1, 148787, Control_c, 0, 64, 127
1, 148789, Note_off_c, 0, 59, 67
1, 148920, Control_c, 0, 64, 89
1, 148925, Note_on_c, 0, 42, 77
1, 148929, Note_on_c, 0, 88, 78
1, 148935, Control_c, 0, 64, 67
1, 148950, Control_c, 0, 64, 43
1, 148965, Control_c, 0, 64, 0
1, 148994, Control_c, 0, 64, 40
1, 149009, Control_c, 0, 64, 57
1, 149024, Control_c, 0, 64, 67
1, 149032, Note_off_c, 0, 88, 66
1, 149039, Control_c, 0, 64, 76
1, 149054, Control_c, 0, 64, 88
1, 149068, Control_c, 0, 64, 97
1, 149070, Note_on_c, 0, 76, 75
1, 149075, Note_on_c, 0, 43, 69
1, 149075, Note_off_c, 0, 42, 59
1, 149083, Control_c, 0, 64, 118
1, 149098, Control_c, 0, 64, 127
1, 149114, Note_off_c, 0, 43, 62
1, 149121, Note_off_c, 0, 76, 60
1, 149239, Control_c, 0, 64, 89
1, 149247, Note_on_c, 0, 83, 84
1, 149251, Note_on_c, 0, 43, 77
1, 149252, Note_on_c, 0, 79, 72
1, 149254, Control_c, 0, 64, 64
1, 149257, Note_on_c, 0, 76, 66
1, 149270, Control_c, 0, 64, 28
1, 149285, Control_c, 0, 64, 0
1, 149314, Control_c, 0, 64, 30
1, 149329, Control_c, 0, 64, 53
1, 149344, Control_c, 0, 64, 66
1, 149359, Control_c, 0, 64, 79
1, 149371, Note_off_c, 0, 83, 64
1, 149373, Control_c, 0, 64, 114
1, 149382, Note_off_c, 0, 79, 64
1, 149385, Note_on_c, 0, 71, 88
1, 149388, Control_c, 0, 64, 127
1, 149391, Note_off_c, 0, 76, 62
1, 149393, Note_on_c, 0, 55, 73
1, 149436, Note_off_c, 0, 43, 58
1, 149438, Note_off_c, 0, 71, 61
1, 149441, Note_off_c, 0, 55, 60
1, 149537, Control_c, 0, 64, 78
1, 149546, Note_on_c, 0, 84, 95
1, 149549, Note_on_c, 0, 44, 80
1, 149551, Control_c, 0, 64, 52
1, 149566, Control_c, 0, 64, 0
1, 149596, Control_c, 0, 64, 48
1, 149611, Control_c, 0, 64, 68
1, 149625, Control_c, 0, 64, 93
1, 149640, Control_c, 0, 64, 127
1, 149651, Note_off_c, 0, 84, 64
1, 149680, Note_on_c, 0, 72, 84
1, 149686, Note_on_c, 0, 45, 80
1, 149718, Note_off_c, 0, 44, 43
1, 149736, Note_off_c, 0, 72, 61
1, 149740, Note_off_c, 0, 45, 63
1, 149817, Control_c, 0, 64, 95
1, 149831, Note_on_c, 0, 81, 94
1, 149832, Note_on_c, 0, 76, 81
1, 149832, Control_c, 0, 64, 63
1, 149836, Note_on_c, 0, 45, 92
1, 149836, Note_on_c, 0, 72, 84
1, 149847, Control_c, 0, 64, 0
1, 149892, Control_c, 0, 64, 43
1, 149907, Control_c, 0, 64, 64
1, 149922, Control_c, 0, 64, 85
1, 149943, Control_c, 0, 64, 127
1, 149949, Note_off_c, 0, 45, 61
1, 149960, Note_off_c, 0, 81, 64
1, 149966, Note_off_c, 0, 76, 65
1, 149968, Note_off_c, 0, 72, 59
1, 149978, Note_on_c, 0, 69, 93
1, 149980, Note_on_c, 0, 57, 84
1, 150023, Note_off_c, 0, 69, 65
1, 150029, Note_off_c, 0, 57, 63
1, 150108, Control_c, 0, 64, 113
1, 150122, Control_c, 0, 64, 68
1, 150137, Control_c, 0, 64, 27
1, 150144, Note_on_c, 0, 83, 103
1, 150150, Note_on_c, 0, 46, 85
1, 150152, Control_c, 0, 64, 0
1, 150181, Control_c, 0, 64, 32
1, 150196, Control_c, 0, 64, 59
1, 150211, Control_c, 0, 64, 76
1, 150226, Control_c, 0, 64, 127
1, 150257, Note_off_c, 0, 83, 65
1, 150279, Note_on_c, 0, 47, 45
1, 150287, Note_on_c, 0, 71, 91
1, 150325, Note_off_c, 0, 46, 45
1, 150342, Note_off_c, 0, 47, 63
1, 150342, Note_off_c, 0, 71, 62
1, 150404, Control_c, 0, 64, 85
1, 150419, Control_c, 0, 64, 54
1, 150434, Control_c, 0, 64, 0
1, 150443, Note_on_c, 0, 79, 87
1, 150445, Note_on_c, 0, 47, 85
1, 150447, Note_on_c, 0, 76, 76
1, 150448, Note_on_c, 0, 71, 79
1, 150464, Note_on_c, 0, 48, 58
1, 150464, Note_off_c, 0, 48, 127
1, 150493, Control_c, 0, 64, 56
1, 150508, Control_c, 0, 64, 74
1, 150522, Control_c, 0, 64, 116
1, 150524, Note_off_c, 0, 76, 62
1, 150528, Note_off_c, 0, 79, 65
1, 150537, Control_c, 0, 64, 127
1, 150553, Note_off_c, 0, 47, 60
1, 150557, Note_off_c, 0, 71, 62
1, 150565, Note_on_c, 0, 67, 66
1, 150574, Note_on_c, 0, 59, 81
1, 150591, Note_off_c, 0, 67, 68
1, 150598, Note_off_c, 0, 59, 70
1, 150737, Control_c, 0, 64, 69
1, 150750, Note_on_c, 0, 34, 90
1, 150752, Note_on_c, 0, 83, 82
1, 150752, Control_c, 0, 64, 0
1, 150753, Note_on_c, 0, 84, 81
1, 150796, Control_c, 0, 64, 38
1, 150811, Control_c, 0, 64, 61
1, 150812, Note_off_c, 0, 84, 65
1, 150826, Control_c, 0, 64, 77
1, 150840, Control_c, 0, 64, 127
1, 150861, Note_off_c, 0, 34, 61
1, 150872, Note_off_c, 0, 83, 65
1, 150900, Note_on_c, 0, 71, 86
1, 150903, Note_on_c, 0, 35, 88
1, 150932, Note_off_c, 0, 71, 61
1, 150971, Note_off_c, 0, 35, 61
1, 151073, Note_on_c, 0, 35, 95
1, 151078, Control_c, 0, 64, 77
1, 151085, Note_on_c, 0, 71, 74
1, 151093, Control_c, 0, 64, 42
1, 151108, Control_c, 0, 64, 0
1, 151153, Control_c, 0, 64, 34
1, 151168, Control_c, 0, 64, 61
1, 151183, Control_c, 0, 64, 84
1, 151197, Control_c, 0, 64, 127
1, 151224, Note_on_c, 0, 47, 96
1, 151230, Note_on_c, 0, 59, 84
1, 151235, Note_off_c, 0, 35, 65
1, 151252, Note_off_c, 0, 47, 67
1, 151258, Note_off_c, 0, 71, 62
1, 151260, Note_off_c, 0, 59, 65
1, 151471, Control_c, 0, 64, 104
1, 151486, Control_c, 0, 64, 90
1, 151501, Control_c, 0, 64, 80
1, 151515, Control_c, 0, 64, 70
1, 151530, Control_c, 0, 64, 62
1, 151545, Control_c, 0, 64, 54
1, 151560, Control_c, 0, 64, 45
1, 151575, Control_c, 0, 64, 29
1, 151589, Control_c, 0, 64, 0
1, 152903, Note_on_c, 0, 83, 54
1, 153055, Note_off_c, 0, 83, 61
1, 153181, Note_on_c, 0, 81, 64
1, 153284, Note_off_c, 0, 81, 60
1, 153383, Note_on_c, 0, 80, 69
1, 153384, Control_c, 0, 64, 28
1, 153444, Control_c, 0, 64, 30
1, 153470, Note_off_c, 0, 80, 57
1, 153488, Control_c, 0, 64, 32
1, 153517, Control_c, 0, 64, 32
1, 153532, Control_c, 0, 64, 33
1, 153547, Control_c, 0, 64, 33
1, 153554, Note_on_c, 0, 78, 73
1, 153562, Control_c, 0, 64, 34
1, 153577, Control_c, 0, 64, 35
1, 153591, Control_c, 0, 64, 35
1, 153606, Control_c, 0, 64, 36
1, 153621, Control_c, 0, 64, 36
1, 153628, Note_off_c, 0, 78, 59
1, 153636, Control_c, 0, 64, 37
1, 153651, Control_c, 0, 64, 37
1, 153666, Control_c, 0, 64, 38
1, 153713, Note_on_c, 0, 76, 73
1, 153732, Control_c, 0, 64, 38
1, 153782, Note_off_c, 0, 76, 59
1, 153883, Note_on_c, 0, 75, 75
1, 153953, Note_off_c, 0, 75, 61
1, 154029, Control_c, 0, 64, 39
1, 154038, Note_on_c, 0, 76, 71
1, 154044, Control_c, 0, 64, 39
1, 154059, Control_c, 0, 64, 40
1, 154089, Control_c, 0, 64, 40
1, 154109, Note_off_c, 0, 76, 63
1, 154148, Control_c, 0, 64, 41
1, 154196, Note_on_c, 0, 78, 72
1, 154252, Control_c, 0, 64, 41
1, 154265, Note_off_c, 0, 78, 58
1, 154348, Note_on_c, 0, 76, 70
1, 154413, Note_off_c, 0, 76, 58
1, 154526, Note_on_c, 0, 75, 66
1, 154608, Note_off_c, 0, 75, 59
1, 154688, Note_on_c, 0, 73, 62
1, 154770, Note_off_c, 0, 73, 59
1, 154849, Note_on_c, 0, 71, 59
1, 154911, Note_off_c, 0, 71, 50
1, 154912, Control_c, 0, 64, 41
1, 155006, Note_on_c, 0, 70, 59
1, 155085, Note_off_c, 0, 70, 59
1, 155196, Note_on_c, 0, 71, 60
1, 155231, Control_c, 0, 64, 40
1, 155271, Note_off_c, 0, 71, 60
1, 155350, Note_on_c, 0, 72, 61
1, 155418, Note_off_c, 0, 72, 59
1, 155452, Control_c, 0, 64, 40
1, 155533, Note_on_c, 0, 73, 59
1, 155600, Note_off_c, 0, 73, 58
1, 155690, Control_c, 0, 64, 39
1, 155701, Note_on_c, 0, 71, 51
1, 155764, Note_off_c, 0, 71, 57
1, 155878, Note_on_c, 0, 69, 53
1, 155940, Note_off_c, 0, 69, 52
1, 156059, Note_on_c, 0, 68, 48
1, 156098, Control_c, 0, 64, 39
1, 156109, Note_off_c, 0, 68, 56
1, 156232, Control_c, 0, 64, 38
1, 156243, Note_on_c, 0, 66, 47
1, 156300, Note_off_c, 0, 66, 56
1, 156424, Control_c, 0, 64, 38
1, 156427, Note_on_c, 0, 64, 39
1, 156505, Note_off_c, 0, 64, 61
1, 156626, Note_on_c, 0, 63, 37
1, 156674, Note_off_c, 0, 63, 52
1, 156799, Note_on_c, 0, 64, 43
1, 156849, Note_off_c, 0, 64, 58
1, 156950, Control_c, 0, 64, 37
1, 156989, Note_on_c, 0, 71, 57
1, 156995, Control_c, 0, 64, 37
1, 157002, Note_on_c, 0, 66, 47
1, 157002, Note_on_c, 0, 69, 42
1, 157053, Note_off_c, 0, 66, 57
1, 157103, Note_off_c, 0, 69, 53
1, 157113, Control_c, 0, 64, 36
1, 157129, Note_off_c, 0, 71, 62
1, 157170, Note_on_c, 0, 64, 44
1, 157229, Note_off_c, 0, 64, 55
1, 157246, Control_c, 0, 67, 33
1, 157262, Control_c, 0, 67, 34
1, 157292, Control_c, 0, 67, 35
1, 157306, Control_c, 0, 67, 35
1, 157365, Control_c, 0, 67, 36
1, 157380, Control_c, 0, 67, 37
1, 157395, Control_c, 0, 67, 37
1, 157403, Note_on_c, 0, 69, 54
1, 157407, Note_on_c, 0, 71, 46
1, 157410, Control_c, 0, 67, 38
1, 157425, Control_c, 0, 67, 38
1, 157434, Note_on_c, 0, 63, 37
1, 157447, Control_c, 0, 67, 40
1, 157462, Control_c, 0, 67, 58
1, 157477, Control_c, 0, 67, 93
1, 157492, Control_c, 0, 67, 110
1, 157507, Control_c, 0, 67, 114
1, 157536, Control_c, 0, 67, 116
1, 157551, Control_c, 0, 64, 36
1, 157579, Note_off_c, 0, 71, 59
1, 157618, Note_off_c, 0, 63, 46
1, 157638, Note_on_c, 0, 61, 43
1, 157689, Note_off_c, 0, 61, 58
1, 157847, Control_c, 0, 64, 35
1, 157870, Note_on_c, 0, 68, 47
1, 157873, Note_on_c, 0, 71, 37
1, 157878, Note_on_c, 0, 59, 42
1, 157985, Note_off_c, 0, 59, 53
1, 157995, Control_c, 0, 64, 35
1, 158031, Note_off_c, 0, 71, 36
1, 158036, Note_off_c, 0, 69, 50
1, 158105, Note_on_c, 0, 66, 51
1, 158127, Note_on_c, 0, 57, 36
1, 158181, Note_off_c, 0, 68, 56
1, 158200, Note_off_c, 0, 57, 59
1, 158344, Control_c, 0, 67, 114
1, 158492, Control_c, 0, 64, 34
1, 158503, Note_on_c, 0, 71, 48
1, 158520, Note_on_c, 0, 64, 26
1, 158531, Note_on_c, 0, 56, 33
1, 158534, Note_on_c, 0, 52, 31
1, 158571, Note_off_c, 0, 66, 46
1, 158655, Control_c, 0, 64, 34
1, 158700, Control_c, 0, 67, 112
1, 158744, Control_c, 0, 64, 34
1, 158774, Control_c, 0, 64, 35
1, 158788, Control_c, 0, 64, 37
1, 158803, Control_c, 0, 64, 40
1, 158803, Control_c, 0, 67, 110
1, 158818, Control_c, 0, 64, 43
1, 158832, Control_c, 0, 64, 48
1, 158849, Control_c, 0, 64, 52
1, 158864, Control_c, 0, 64, 55
1, 158878, Control_c, 0, 64, 58
1, 158893, Control_c, 0, 64, 60
1, 158908, Control_c, 0, 64, 62
1, 158930, Control_c, 0, 64, 64
1, 158945, Control_c, 0, 64, 68
1, 158960, Control_c, 0, 64, 71
1, 158975, Control_c, 0, 64, 75
1, 158990, Control_c, 0, 64, 78
1, 159004, Control_c, 0, 64, 82
1, 159019, Control_c, 0, 64, 86
1, 159034, Control_c, 0, 64, 91
1, 159049, Control_c, 0, 64, 97
1, 159064, Control_c, 0, 64, 103
1, 159079, Control_c, 0, 64, 109
1, 159079, Control_c, 0, 67, 108
1, 159094, Control_c, 0, 64, 118
1, 159109, Control_c, 0, 64, 127
1, 159534, Note_on_c, 0, 76, 43
1, 159568, Control_c, 0, 67, 106
1, 159612, Control_c, 0, 64, 121
1, 159627, Control_c, 0, 64, 114
1, 159642, Control_c, 0, 64, 109
1, 159657, Control_c, 0, 64, 104
1, 159679, Control_c, 0, 64, 98
1, 159694, Control_c, 0, 64, 92
1, 159709, Control_c, 0, 64, 86
1, 159724, Control_c, 0, 64, 79
1, 159729, Note_on_c, 0, 75, 58
1, 159739, Control_c, 0, 64, 72
1, 159753, Control_c, 0, 64, 65
1, 159768, Control_c, 0, 64, 57
1, 159781, Note_off_c, 0, 71, 41
1, 159783, Control_c, 0, 64, 48
1, 159783, Control_c, 0, 67, 104
1, 159798, Control_c, 0, 64, 39
1, 159813, Control_c, 0, 64, 33
1, 159842, Control_c, 0, 64, 35
1, 159857, Control_c, 0, 64, 40
1, 159857, Control_c, 0, 67, 102
1, 159872, Control_c, 0, 64, 48
1, 159887, Control_c, 0, 64, 56
1, 159888, Note_on_c, 0, 73, 59
1, 159902, Control_c, 0, 64, 61
1, 159917, Control_c, 0, 64, 64
1, 159917, Note_off_c, 0, 76, 36
1, 159932, Control_c, 0, 64, 67
1, 159932, Control_c, 0, 67, 100
1, 159946, Control_c, 0, 64, 70
1, 159961, Control_c, 0, 64, 73
1, 159976, Control_c, 0, 64, 76
1, 159991, Control_c, 0, 64, 80
1, 159991, Control_c, 0, 67, 98
1, 160006, Control_c, 0, 64, 84
1, 160021, Control_c, 0, 64, 89
1, 160030, Note_off_c, 0, 52, 40
1, 160035, Control_c, 0, 64, 95
1, 160044, Note_on_c, 0, 71, 68
1, 160047, Note_off_c, 0, 75, 32
1, 160050, Note_off_c, 0, 64, 40
1, 160050, Control_c, 0, 64, 101
1, 160065, Control_c, 0, 64, 108
1, 160069, Note_off_c, 0, 56, 41
1, 160079, Control_c, 0, 64, 121
1, 160079, Control_c, 0, 67, 96
1, 160087, Note_off_c, 0, 73, 56
1, 160094, Control_c, 0, 64, 127
1, 160113, Note_off_c, 0, 71, 58
1, 160124, Control_c, 0, 67, 95
1, 160139, Control_c, 0, 67, 95
1, 160227, Control_c, 0, 67, 94
1, 160261, Note_on_c, 0, 71, 56
1, 160279, Note_on_c, 0, 63, 26
1, 160286, Control_c, 0, 67, 93
1, 160298, Note_on_c, 0, 54, 37
1, 160301, Control_c, 0, 64, 117
1, 160301, Control_c, 0, 67, 93
1, 160311, Note_on_c, 0, 57, 34
1, 160316, Control_c, 0, 64, 97
1, 160316, Control_c, 0, 67, 92
1, 160331, Control_c, 0, 64, 82
1, 160331, Control_c, 0, 67, 91
1, 160346, Control_c, 0, 64, 68
1, 160346, Control_c, 0, 67, 89
1, 160361, Control_c, 0, 64, 56
1, 160361, Control_c, 0, 67, 86
1, 160376, Control_c, 0, 64, 45
1, 160376, Control_c, 0, 67, 73
1, 160391, Control_c, 0, 64, 47
1, 160391, Control_c, 0, 67, 48
1, 160406, Control_c, 0, 64, 54
1, 160406, Control_c, 0, 67, 0
1, 160420, Control_c, 0, 64, 59
1, 160442, Control_c, 0, 64, 64
1, 160458, Control_c, 0, 64, 71
1, 160471, Note_off_c, 0, 71, 54
1, 160473, Control_c, 0, 64, 77
1, 160488, Control_c, 0, 64, 83
1, 160499, Note_off_c, 0, 54, 36
1, 160501, Note_off_c, 0, 57, 45
1, 160502, Note_off_c, 0, 63, 41
1, 160502, Control_c, 0, 64, 87
1, 160517, Control_c, 0, 64, 91
1, 160532, Control_c, 0, 64, 96
1, 160547, Control_c, 0, 64, 101
1, 160562, Control_c, 0, 64, 108
1, 160576, Control_c, 0, 64, 120
1, 160591, Control_c, 0, 64, 127
1, 160597, Note_on_c, 0, 71, 68
1, 160620, Note_on_c, 0, 63, 44
1, 160625, Note_on_c, 0, 57, 43
1, 160629, Note_on_c, 0, 54, 44
1, 160636, Control_c, 0, 64, 99
1, 160650, Control_c, 0, 64, 82
1, 160665, Control_c, 0, 64, 72
1, 160680, Control_c, 0, 64, 68
1, 160695, Control_c, 0, 64, 71
1, 160710, Control_c, 0, 64, 75
1, 160724, Control_c, 0, 64, 81
1, 160739, Control_c, 0, 64, 89
1, 160754, Control_c, 0, 64, 97
1, 160769, Control_c, 0, 64, 106
1, 160773, Note_off_c, 0, 71, 56
1, 160776, Note_off_c, 0, 57, 38
1, 160784, Control_c, 0, 64, 121
1, 160787, Note_off_c, 0, 63, 37
1, 160799, Control_c, 0, 64, 127
1, 160801, Note_off_c, 0, 54, 38
1, 160915, Note_on_c, 0, 71, 74
1, 160932, Control_c, 0, 64, 101
1, 160943, Note_on_c, 0, 63, 44
1, 160945, Note_on_c, 0, 54, 42
1, 160947, Control_c, 0, 64, 77
1, 160953, Note_on_c, 0, 57, 41
1, 160962, Control_c, 0, 64, 61
1, 160976, Control_c, 0, 64, 51
1, 160991, Control_c, 0, 64, 54
1, 161006, Control_c, 0, 64, 61
1, 161020, Control_c, 0, 64, 69
1, 161035, Control_c, 0, 64, 81
1, 161050, Control_c, 0, 64, 100
1, 161065, Control_c, 0, 64, 127
1, 161095, Note_off_c, 0, 71, 52
1, 161133, Note_off_c, 0, 57, 51
1, 161155, Note_off_c, 0, 63, 36
1, 161169, Note_off_c, 0, 54, 36
1, 161249, Control_c, 0, 64, 117
1, 161258, Note_on_c, 0, 71, 80
1, 161265, Control_c, 0, 64, 84
1, 161279, Control_c, 0, 64, 68
1, 161283, Note_on_c, 0, 63, 55
1, 161292, Note_on_c, 0, 57, 46
1, 161294, Control_c, 0, 64, 63
1, 161303, Note_on_c, 0, 54, 46
1, 161309, Control_c, 0, 64, 67
1, 161324, Control_c, 0, 64, 74
1, 161339, Control_c, 0, 64, 86
1, 161353, Note_off_c, 0, 71, 61
1, 161353, Control_c, 0, 64, 103
1, 161362, Note_off_c, 0, 63, 61
1, 161368, Note_off_c, 0, 57, 58
1, 161368, Control_c, 0, 64, 127
1, 161442, Note_off_c, 0, 54, 55
1, 161599, Note_on_c, 0, 71, 72
1, 161620, Control_c, 0, 64, 102
1, 161631, Note_on_c, 0, 59, 49
1, 161635, Control_c, 0, 64, 80
1, 161646, Note_on_c, 0, 56, 46
1, 161649, Note_on_c, 0, 64, 34
1, 161649, Control_c, 0, 64, 64
1, 161664, Control_c, 0, 64, 46
1, 161679, Control_c, 0, 64, 0
1, 161738, Control_c, 0, 64, 47
1, 161752, Note_off_c, 0, 56, 62
1, 161753, Control_c, 0, 64, 62
1, 161768, Control_c, 0, 64, 69
1, 161783, Control_c, 0, 64, 76
1, 161798, Control_c, 0, 64, 84
1, 161813, Control_c, 0, 64, 91
1, 161827, Control_c, 0, 64, 99
1, 161842, Control_c, 0, 64, 108
1, 161857, Control_c, 0, 64, 127
1, 161950, Note_on_c, 0, 68, 71
1, 161977, Note_on_c, 0, 56, 49
1, 161983, Control_c, 0, 64, 117
1, 161985, Note_on_c, 0, 52, 47
1, 161998, Control_c, 0, 64, 89
1, 162013, Control_c, 0, 64, 68
1, 162028, Control_c, 0, 64, 53
1, 162043, Control_c, 0, 64, 39
1, 162055, Note_off_c, 0, 59, 51
1, 162059, Control_c, 0, 64, 35
1, 162074, Control_c, 0, 64, 43
1, 162081, Note_off_c, 0, 64, 45
1, 162088, Control_c, 0, 64, 56
1, 162091, Note_off_c, 0, 71, 56
1, 162103, Control_c, 0, 64, 64
1, 162118, Control_c, 0, 64, 70
1, 162123, Note_off_c, 0, 52, 57
1, 162133, Control_c, 0, 64, 76
1, 162148, Control_c, 0, 64, 84
1, 162155, Note_off_c, 0, 56, 52
1, 162162, Control_c, 0, 64, 94
1, 162177, Control_c, 0, 64, 103
1, 162192, Control_c, 0, 64, 110
1, 162207, Control_c, 0, 64, 115
1, 162222, Control_c, 0, 64, 118
1, 162415, Control_c, 0, 64, 116
1, 162430, Note_on_c, 0, 73, 59
1, 162444, Control_c, 0, 64, 112
1, 162459, Control_c, 0, 64, 109
1, 162459, Note_on_c, 0, 57, 38
1, 162460, Note_on_c, 0, 61, 41
1, 162473, Control_c, 0, 64, 106
1, 162474, Note_on_c, 0, 64, 31
1, 162488, Control_c, 0, 64, 104
1, 162497, Note_off_c, 0, 68, 57
1, 162503, Control_c, 0, 64, 101
1, 162518, Control_c, 0, 64, 98
1, 162533, Control_c, 0, 64, 93
1, 162547, Control_c, 0, 64, 89
1, 162562, Control_c, 0, 64, 84
1, 162577, Control_c, 0, 64, 79
1, 162592, Control_c, 0, 64, 74
1, 162607, Control_c, 0, 64, 67
1, 162621, Control_c, 0, 64, 60
1, 162636, Control_c, 0, 64, 54
1, 162651, Control_c, 0, 64, 49
1, 162673, Control_c, 0, 64, 42
1, 162688, Control_c, 0, 64, 29
1, 162703, Control_c, 0, 64, 0
1, 162836, Control_c, 0, 64, 30
1, 162852, Control_c, 0, 64, 45
1, 162867, Control_c, 0, 64, 58
1, 162882, Control_c, 0, 64, 63
1, 162896, Control_c, 0, 64, 64
1, 162911, Control_c, 0, 64, 66
1, 162926, Control_c, 0, 64, 69
1, 162941, Control_c, 0, 64, 74
1, 162956, Control_c, 0, 64, 80
1, 162970, Control_c, 0, 64, 86
1, 162985, Control_c, 0, 64, 90
1, 163000, Control_c, 0, 64, 94
1, 163015, Control_c, 0, 64, 101
1, 163030, Control_c, 0, 64, 116
1, 163045, Control_c, 0, 64, 127
1, 163089, Control_c, 0, 67, 51
1, 163103, Control_c, 0, 67, 81
1, 163115, Note_off_c, 0, 64, 45
1, 163118, Control_c, 0, 67, 111
1, 163130, Note_off_c, 0, 57, 41
1, 163133, Control_c, 0, 67, 127
1, 163139, Note_off_c, 0, 61, 36
1, 163432, Note_on_c, 0, 71, 50
1, 163459, Note_on_c, 0, 56, 35
1, 163460, Note_off_c, 0, 73, 59
1, 163463, Note_on_c, 0, 64, 34
1, 163466, Note_on_c, 0, 59, 29
1, 163510, Control_c, 0, 64, 116
1, 163525, Control_c, 0, 64, 89
1, 163540, Control_c, 0, 64, 70
1, 163555, Control_c, 0, 64, 54
1, 163569, Control_c, 0, 64, 44
1, 163584, Control_c, 0, 64, 46
1, 163599, Control_c, 0, 64, 56
1, 163614, Control_c, 0, 64, 64
1, 163627, Note_off_c, 0, 56, 55
1, 163628, Control_c, 0, 64, 73
1, 163645, Control_c, 0, 64, 87
1, 163660, Control_c, 0, 64, 100
1, 163665, Note_off_c, 0, 64, 46
1, 163674, Control_c, 0, 64, 114
1, 163689, Control_c, 0, 64, 127
1, 163851, Note_on_c, 0, 64, 48
1, 163887, Note_on_c, 0, 56, 34
1, 163895, Note_on_c, 0, 49, 38
1, 163896, Control_c, 0, 64, 111
1, 163911, Control_c, 0, 64, 88
1, 163926, Control_c, 0, 64, 70
1, 163941, Control_c, 0, 64, 55
1, 163956, Control_c, 0, 64, 31
1, 163968, Note_off_c, 0, 59, 44
1, 163971, Control_c, 0, 64, 0
1, 163986, Control_c, 0, 64, 36
1, 164000, Control_c, 0, 64, 50
1, 164015, Control_c, 0, 64, 60
1, 164030, Control_c, 0, 64, 66
1, 164031, Note_off_c, 0, 71, 36
1, 164044, Control_c, 0, 64, 71
1, 164059, Control_c, 0, 64, 76
1, 164064, Note_off_c, 0, 49, 49
1, 164074, Control_c, 0, 64, 80
1, 164089, Control_c, 0, 64, 84
1, 164104, Control_c, 0, 64, 88
1, 164118, Control_c, 0, 64, 92
1, 164133, Control_c, 0, 64, 94
1, 164148, Control_c, 0, 64, 96
1, 164182, Note_off_c, 0, 56, 52
1, 164215, Control_c, 0, 64, 98
1, 164230, Note_off_c, 0, 64, 37
1, 164432, Note_on_c, 0, 66, 42
1, 164446, Note_on_c, 0, 63, 40
1, 164471, Note_on_c, 0, 57, 31
1, 164492, Note_on_c, 0, 47, 31
1, 164512, Control_c, 0, 64, 96
1, 164527, Control_c, 0, 64, 95
1, 164541, Control_c, 0, 64, 94
1, 164556, Control_c, 0, 64, 92
1, 164571, Control_c, 0, 64, 89
1, 164586, Control_c, 0, 64, 87
1, 164601, Control_c, 0, 64, 83
1, 164615, Control_c, 0, 64, 78
1, 164630, Control_c, 0, 64, 73
1, 164645, Control_c, 0, 64, 68
1, 164660, Control_c, 0, 64, 62
1, 164674, Control_c, 0, 64, 57
1, 164689, Control_c, 0, 64, 52
1, 164704, Control_c, 0, 64, 46
1, 164719, Control_c, 0, 64, 35
1, 164734, Control_c, 0, 64, 0
1, 164867, Control_c, 0, 64, 35
1, 164882, Control_c, 0, 64, 44
1, 164897, Control_c, 0, 64, 52
1, 164912, Control_c, 0, 64, 57
1, 164934, Control_c, 0, 64, 61
1, 164948, Control_c, 0, 64, 63
1, 164963, Control_c, 0, 64, 65
1, 164978, Control_c, 0, 64, 67
1, 164993, Control_c, 0, 64, 70
1, 165008, Control_c, 0, 64, 72
1, 165023, Control_c, 0, 64, 75
1, 165038, Control_c, 0, 64, 79
1, 165045, Note_off_c, 0, 47, 40
1, 165053, Control_c, 0, 64, 82
1, 165068, Control_c, 0, 64, 85
1, 165082, Control_c, 0, 64, 87
1, 165086, Note_off_c, 0, 57, 41
1, 165097, Control_c, 0, 64, 89
1, 165100, Note_off_c, 0, 63, 38
1, 165105, Note_off_c, 0, 66, 55
1, 165112, Control_c, 0, 64, 90
1, 165127, Control_c, 0, 64, 91
1, 165142, Control_c, 0, 64, 92
1, 165156, Control_c, 0, 64, 92
1, 165171, Control_c, 0, 64, 93
1, 165424, Control_c, 0, 64, 92
1, 165438, Control_c, 0, 64, 92
1, 165468, Control_c, 0, 64, 91
1, 165483, Control_c, 0, 64, 91
1, 165497, Control_c, 0, 64, 90
1, 165512, Control_c, 0, 64, 88
1, 165527, Control_c, 0, 64, 87
1, 165542, Control_c, 0, 64, 86
1, 165557, Control_c, 0, 64, 84
1, 165571, Control_c, 0, 64, 83
1, 165586, Control_c, 0, 64, 81
1, 165601, Control_c, 0, 64, 79
1, 165616, Control_c, 0, 64, 77
1, 165631, Control_c, 0, 64, 76
1, 165646, Control_c, 0, 64, 74
1, 165668, Control_c, 0, 64, 72
1, 165683, Control_c, 0, 64, 69
1, 165697, Control_c, 0, 64, 65
1, 165712, Control_c, 0, 64, 62
1, 165712, Control_c, 0, 67, 123
1, 165727, Control_c, 0, 64, 59
1, 165727, Control_c, 0, 67, 108
1, 165743, Control_c, 0, 64, 55
1, 165743, Control_c, 0, 67, 97
1, 165758, Control_c, 0, 64, 50
1, 165758, Control_c, 0, 67, 88
1, 165772, Control_c, 0, 64, 44
1, 165772, Control_c, 0, 67, 80
1, 165787, Control_c, 0, 64, 33
1, 165787, Control_c, 0, 67, 71
1, 165802, Control_c, 0, 64, 0
1, 165802, Control_c, 0, 67, 61
1, 165817, Control_c, 0, 67, 55
1, 165831, Control_c, 0, 67, 51
1, 165846, Control_c, 0, 67, 50
1, 165861, Control_c, 0, 67, 49
1, 165953, Note_on_c, 0, 83, 58
1, 165986, Note_on_c, 0, 71, 19
1, 166004, Note_on_c, 0, 68, 22
1, 166010, Control_c, 0, 67, 49
1, 166024, Control_c, 0, 67, 46
1, 166040, Control_c, 0, 67, 43
1, 166055, Control_c, 0, 67, 0
1, 166069, Control_c, 0, 64, 29
1, 166084, Control_c, 0, 64, 48
1, 166099, Control_c, 0, 64, 61
1, 166114, Control_c, 0, 64, 64
1, 166129, Control_c, 0, 64, 67
1, 166144, Control_c, 0, 64, 71
1, 166159, Control_c, 0, 64, 76
1, 166172, Note_off_c, 0, 68, 48
1, 166174, Control_c, 0, 64, 82
1, 166188, Control_c, 0, 64, 87
1, 166203, Control_c, 0, 64, 91
1, 166218, Control_c, 0, 64, 95
1, 166233, Control_c, 0, 64, 98
1, 166247, Control_c, 0, 64, 101
1, 166262, Control_c, 0, 64, 104
1, 166317, Note_off_c, 0, 83, 47
1, 166321, Control_c, 0, 64, 106
1, 166322, Note_on_c, 0, 81, 61
1, 166349, Note_on_c, 0, 68, 23
1, 166350, Note_on_c, 0, 64, 37
1, 166385, Note_off_c, 0, 71, 41
1, 166407, Note_off_c, 0, 81, 63
1, 166423, Note_on_c, 0, 80, 68
1, 166475, Note_off_c, 0, 64, 45
1, 166510, Note_off_c, 0, 80, 62
1, 166513, Note_on_c, 0, 78, 70
1, 166534, Note_off_c, 0, 68, 41
1, 166589, Note_on_c, 0, 76, 64
1, 166596, Note_off_c, 0, 78, 59
1, 166728, Control_c, 0, 64, 104
1, 166758, Control_c, 0, 64, 100
1, 166759, Note_on_c, 0, 85, 67
1, 166773, Control_c, 0, 64, 98
1, 166782, Note_on_c, 0, 73, 37
1, 166788, Control_c, 0, 64, 95
1, 166803, Control_c, 0, 64, 91
1, 166808, Note_off_c, 0, 76, 41
1, 166813, Note_on_c, 0, 69, 33
1, 166817, Control_c, 0, 64, 88
1, 166832, Control_c, 0, 64, 85
1, 166848, Control_c, 0, 64, 82
1, 166863, Control_c, 0, 64, 78
1, 166877, Control_c, 0, 64, 74
1, 166892, Control_c, 0, 64, 69
1, 166907, Control_c, 0, 64, 62
1, 166922, Control_c, 0, 64, 57
1, 166937, Control_c, 0, 64, 52
1, 166952, Control_c, 0, 64, 46
1, 166966, Control_c, 0, 64, 36
1, 166981, Control_c, 0, 64, 0
1, 167085, Control_c, 0, 64, 40
1, 167100, Control_c, 0, 64, 54
1, 167115, Control_c, 0, 64, 62
1, 167130, Control_c, 0, 64, 64
1, 167144, Control_c, 0, 64, 66
1, 167166, Control_c, 0, 64, 69
1, 167181, Control_c, 0, 64, 73
1, 167196, Control_c, 0, 64, 79
1, 167211, Control_c, 0, 64, 84
1, 167226, Control_c, 0, 64, 90
1, 167240, Control_c, 0, 64, 95
1, 167244, Note_off_c, 0, 73, 60
1, 167255, Control_c, 0, 64, 101
1, 167269, Control_c, 0, 64, 106
1, 167284, Control_c, 0, 64, 112
1, 167299, Control_c, 0, 64, 115
1, 167338, Note_off_c, 0, 69, 42
1, 167521, Control_c, 0, 64, 112
1, 167551, Control_c, 0, 64, 110
1, 167566, Control_c, 0, 64, 108
1, 167576, Note_off_c, 0, 85, 63
1, 167577, Note_on_c, 0, 83, 58
1, 167581, Control_c, 0, 64, 101
1, 167595, Control_c, 0, 64, 90
1, 167602, Note_on_c, 0, 68, 40
1, 167610, Control_c, 0, 64, 78
1, 167625, Control_c, 0, 64, 65
1, 167627, Note_on_c, 0, 71, 35
1, 167640, Control_c, 0, 64, 57
1, 167655, Control_c, 0, 64, 56
1, 167670, Control_c, 0, 64, 60
1, 167685, Control_c, 0, 64, 64
1, 167700, Control_c, 0, 64, 70
1, 167715, Control_c, 0, 64, 77
1, 167730, Control_c, 0, 64, 87
1, 167736, Note_off_c, 0, 68, 62
1, 167745, Control_c, 0, 64, 95
1, 167759, Control_c, 0, 64, 101
1, 167774, Control_c, 0, 64, 107
1, 167789, Control_c, 0, 64, 114
1, 167804, Control_c, 0, 64, 120
1, 167929, Control_c, 0, 64, 117
1, 167944, Control_c, 0, 64, 115
1, 167959, Control_c, 0, 64, 113
1, 167974, Control_c, 0, 64, 111
1, 167989, Control_c, 0, 64, 108
1, 168018, Control_c, 0, 64, 105
1, 168033, Control_c, 0, 64, 102
1, 168035, Note_on_c, 0, 81, 51
1, 168046, Note_on_c, 0, 61, 37
1, 168048, Control_c, 0, 64, 100
1, 168053, Note_on_c, 0, 64, 35
1, 168063, Control_c, 0, 64, 98
1, 168092, Control_c, 0, 64, 95
1, 168107, Control_c, 0, 64, 93
1, 168122, Control_c, 0, 64, 91
1, 168129, Note_off_c, 0, 83, 56
1, 168137, Control_c, 0, 64, 90
1, 168145, Note_on_c, 0, 80, 59
1, 168152, Control_c, 0, 64, 88
1, 168166, Control_c, 0, 64, 86
1, 168171, Note_off_c, 0, 81, 53
1, 168178, Note_off_c, 0, 71, 40
1, 168181, Control_c, 0, 64, 85
1, 168196, Control_c, 0, 64, 84
1, 168210, Control_c, 0, 64, 82
1, 168210, Control_c, 0, 67, 34
1, 168225, Control_c, 0, 64, 82
1, 168225, Control_c, 0, 67, 43
1, 168240, Control_c, 0, 64, 81
1, 168240, Control_c, 0, 67, 53
1, 168245, Note_on_c, 0, 78, 61
1, 168255, Control_c, 0, 64, 80
1, 168255, Control_c, 0, 67, 61
1, 168263, Note_off_c, 0, 80, 57
1, 168270, Control_c, 0, 64, 79
1, 168270, Control_c, 0, 67, 69
1, 168284, Control_c, 0, 64, 78
1, 168284, Control_c, 0, 67, 75
1, 168299, Control_c, 0, 64, 77
1, 168299, Control_c, 0, 67, 82
1, 168314, Control_c, 0, 64, 76
1, 168314, Control_c, 0, 67, 92
1, 168329, Note_off_c, 0, 78, 58
1, 168329, Control_c, 0, 64, 75
1, 168329, Control_c, 0, 67, 99
1, 168344, Control_c, 0, 64, 74
1, 168344, Control_c, 0, 67, 107
1, 168355, Note_on_c, 0, 76, 55
1, 168359, Control_c, 0, 64, 73
1, 168359, Control_c, 0, 67, 116
1, 168373, Control_c, 0, 64, 72
1, 168373, Control_c, 0, 67, 124
1, 168388, Control_c, 0, 64, 71
1, 168388, Control_c, 0, 67, 127
1, 168403, Control_c, 0, 64, 71
1, 168418, Control_c, 0, 64, 70
1, 168433, Control_c, 0, 64, 69
1, 168448, Control_c, 0, 64, 69
1, 168463, Control_c, 0, 64, 68
1, 168478, Control_c, 0, 64, 67
1, 168493, Control_c, 0, 64, 67
1, 168508, Control_c, 0, 64, 66
1, 168523, Control_c, 0, 64, 66
1, 168537, Control_c, 0, 64, 65
1, 168552, Control_c, 0, 64, 65
1, 168580, Note_on_c, 0, 78, 43
1, 168582, Control_c, 0, 64, 64
1, 168590, Note_on_c, 0, 75, 42
1, 168597, Control_c, 0, 64, 64
1, 168606, Note_on_c, 0, 69, 31
1, 168612, Control_c, 0, 64, 63
1, 168613, Note_off_c, 0, 76, 35
1, 168614, Note_on_c, 0, 59, 32
1, 168627, Control_c, 0, 64, 62
1, 168641, Control_c, 0, 64, 61
1, 168656, Control_c, 0, 64, 60
1, 168678, Control_c, 0, 64, 59
1, 168693, Control_c, 0, 64, 58
1, 168699, Note_off_c, 0, 64, 47
1, 168708, Control_c, 0, 64, 56
1, 168710, Note_off_c, 0, 61, 39
1, 168722, Control_c, 0, 64, 54
1, 168738, Control_c, 0, 64, 51
1, 168753, Control_c, 0, 64, 47
1, 168768, Control_c, 0, 64, 40
1, 168783, Control_c, 0, 64, 0
1, 168961, Control_c, 0, 64, 35
1, 168976, Control_c, 0, 64, 49
1, 168990, Control_c, 0, 64, 57
1, 169005, Control_c, 0, 64, 60
1, 169020, Control_c, 0, 64, 61
1, 169035, Control_c, 0, 64, 63
1, 169049, Control_c, 0, 64, 66
1, 169064, Control_c, 0, 64, 69
1, 169079, Control_c, 0, 64, 71
1, 169094, Control_c, 0, 64, 74
1, 169108, Control_c, 0, 64, 77
1, 169123, Control_c, 0, 64, 80
1, 169138, Control_c, 0, 64, 82
1, 169153, Control_c, 0, 64, 86
1, 169166, Note_off_c, 0, 59, 43
1, 169167, Control_c, 0, 64, 89
1, 169182, Control_c, 0, 64, 91
1, 169197, Control_c, 0, 64, 94
1, 169212, Control_c, 0, 64, 96
1, 169227, Control_c, 0, 64, 98
1, 169243, Control_c, 0, 64, 100
1, 169244, Note_off_c, 0, 69, 37
1, 169272, Control_c, 0, 64, 102
1, 169331, Control_c, 0, 64, 104
1, 169375, Note_off_c, 0, 75, 31
1, 169389, Note_off_c, 0, 78, 37
1, 169620, Control_c, 0, 64, 102
1, 169650, Control_c, 0, 64, 99
1, 169664, Control_c, 0, 64, 95
1, 169665, Note_on_c, 0, 76, 44
1, 169679, Control_c, 0, 64, 88
1, 169693, Note_on_c, 0, 64, 30
1, 169693, Note_on_c, 0, 68, 37
1, 169694, Control_c, 0, 64, 78
1, 169709, Control_c, 0, 64, 66
1, 169724, Control_c, 0, 64, 54
1, 169739, Control_c, 0, 64, 45
1, 169754, Control_c, 0, 64, 44
1, 169769, Control_c, 0, 64, 51
1, 169783, Control_c, 0, 64, 58
1, 169798, Control_c, 0, 64, 64
1, 169813, Control_c, 0, 64, 71
1, 169828, Note_off_c, 0, 76, 64
1, 169828, Control_c, 0, 64, 79
1, 169828, Control_c, 0, 67, 125
1, 169843, Control_c, 0, 64, 84
1, 169843, Control_c, 0, 67, 123
1, 169858, Control_c, 0, 64, 89
1, 169872, Control_c, 0, 64, 98
1, 169887, Control_c, 0, 64, 105
1, 169897, Note_off_c, 0, 68, 37
1, 169902, Control_c, 0, 64, 113
1, 169916, Note_off_c, 0, 64, 45
1, 169917, Control_c, 0, 64, 120
1, 169932, Control_c, 0, 64, 126
1, 170036, Control_c, 0, 67, 125
1, 170177, Note_on_c, 0, 64, 38
1, 170321, Note_off_c, 0, 64, 36
1, 170340, Control_c, 0, 67, 127
1, 170473, Control_c, 0, 64, 123
1, 170487, Control_c, 0, 64, 120
1, 170502, Control_c, 0, 64, 117
1, 170523, Note_on_c, 0, 69, 63
1, 170532, Control_c, 0, 64, 113
1, 170539, Note_on_c, 0, 65, 38
1, 170547, Control_c, 0, 64, 109
1, 170561, Control_c, 0, 64, 103
1, 170576, Control_c, 0, 64, 94
1, 170591, Control_c, 0, 64, 77
1, 170606, Control_c, 0, 64, 62
1, 170621, Control_c, 0, 64, 43
1, 170636, Control_c, 0, 64, 0
1, 170666, Control_c, 0, 64, 37
1, 170681, Control_c, 0, 64, 54
1, 170695, Control_c, 0, 64, 63
1, 170710, Control_c, 0, 64, 69
1, 170722, Note_off_c, 0, 69, 59
1, 170725, Control_c, 0, 64, 74
1, 170740, Control_c, 0, 64, 78
1, 170755, Control_c, 0, 64, 82
1, 170769, Control_c, 0, 64, 87
1, 170784, Control_c, 0, 64, 93
1, 170799, Control_c, 0, 64, 97
1, 170813, Control_c, 0, 64, 101
1, 170829, Control_c, 0, 64, 104
1, 170844, Control_c, 0, 64, 107
1, 170859, Control_c, 0, 64, 111
1, 170874, Control_c, 0, 64, 114
1, 170875, Note_on_c, 0, 69, 47
1, 170889, Control_c, 0, 64, 117
1, 170925, Control_c, 0, 64, 120
1, 170963, Note_off_c, 0, 65, 55
1, 170988, Note_off_c, 0, 69, 37
1, 171163, Control_c, 0, 64, 117
1, 171178, Control_c, 0, 64, 112
1, 171180, Note_on_c, 0, 71, 64
1, 171192, Control_c, 0, 64, 103
1, 171207, Control_c, 0, 64, 89
1, 171212, Note_on_c, 0, 64, 36
1, 171217, Note_on_c, 0, 68, 32
1, 171222, Control_c, 0, 64, 74
1, 171236, Control_c, 0, 64, 59
1, 171251, Control_c, 0, 64, 28
1, 171266, Control_c, 0, 64, 0
1, 171310, Control_c, 0, 64, 38
1, 171325, Control_c, 0, 64, 54
1, 171340, Control_c, 0, 64, 64
1, 171355, Control_c, 0, 64, 69
1, 171370, Control_c, 0, 64, 74
1, 171381, Note_off_c, 0, 71, 59
1, 171384, Control_c, 0, 64, 79
1, 171399, Control_c, 0, 64, 85
1, 171414, Control_c, 0, 64, 92
1, 171429, Control_c, 0, 64, 99
1, 171444, Control_c, 0, 64, 108
1, 171459, Control_c, 0, 64, 126
1, 171510, Note_on_c, 0, 71, 56
1, 171512, Note_off_c, 0, 64, 46
1, 171554, Note_off_c, 0, 71, 59
1, 171582, Note_off_c, 0, 68, 56
1, 171840, Note_on_c, 0, 83, 68
1, 171876, Note_on_c, 0, 69, 42
1, 171879, Note_on_c, 0, 59, 42
1, 171880, Note_on_c, 0, 71, 39
1, 171897, Control_c, 0, 64, 101
1, 171912, Control_c, 0, 64, 79
1, 171927, Control_c, 0, 64, 64
1, 171941, Control_c, 0, 64, 49
1, 171956, Control_c, 0, 64, 43
1, 171968, Note_off_c, 0, 71, 53
1, 171971, Control_c, 0, 64, 47
1, 171976, Note_on_c, 0, 73, 61
1, 171985, Control_c, 0, 64, 55
1, 172000, Control_c, 0, 64, 62
1, 172015, Control_c, 0, 64, 68
1, 172030, Control_c, 0, 64, 75
1, 172045, Control_c, 0, 64, 83
1, 172055, Note_off_c, 0, 83, 59
1, 172059, Control_c, 0, 64, 91
1, 172065, Note_off_c, 0, 73, 63
1, 172073, Note_on_c, 0, 75, 60
1, 172074, Control_c, 0, 64, 104
1, 172089, Control_c, 0, 64, 127
1, 172096, Note_off_c, 0, 75, 64
1, 172119, Control_c, 0, 64, 114
1, 172133, Control_c, 0, 64, 88
1, 172148, Control_c, 0, 64, 74
1, 172162, Note_on_c, 0, 83, 73
1, 172163, Control_c, 0, 64, 68
1, 172166, Note_on_c, 0, 75, 71
1, 172177, Control_c, 0, 64, 69
1, 172192, Control_c, 0, 64, 72
1, 172207, Control_c, 0, 64, 77
1, 172222, Control_c, 0, 64, 84
1, 172230, Note_off_c, 0, 75, 61
1, 172232, Note_off_c, 0, 83, 60
1, 172237, Control_c, 0, 64, 89
1, 172252, Control_c, 0, 64, 91
1, 172258, Note_on_c, 0, 76, 73
1, 172261, Note_off_c, 0, 59, 53
1, 172267, Control_c, 0, 64, 94
1, 172281, Control_c, 0, 64, 95
1, 172287, Note_off_c, 0, 69, 51
1, 172320, Note_off_c, 0, 76, 55
1, 172344, Note_on_c, 0, 78, 67
1, 172422, Control_c, 0, 64, 94
1, 172438, Control_c, 0, 64, 91
1, 172453, Control_c, 0, 64, 89
1, 172468, Control_c, 0, 64, 87
1, 172483, Control_c, 0, 64, 84
1, 172497, Control_c, 0, 64, 80
1, 172512, Control_c, 0, 64, 76
1, 172526, Note_off_c, 0, 78, 57
1, 172527, Control_c, 0, 64, 69
1, 172541, Note_on_c, 0, 83, 60
1, 172542, Control_c, 0, 64, 62
1, 172557, Control_c, 0, 64, 49
1, 172559, Note_on_c, 0, 76, 26
1, 172571, Control_c, 0, 64, 0
1, 172576, Note_on_c, 0, 64, 41
1, 172584, Note_on_c, 0, 68, 37
1, 172645, Control_c, 0, 64, 40
1, 172660, Control_c, 0, 64, 58
1, 172675, Control_c, 0, 64, 65
1, 172679, Note_off_c, 0, 68, 63
1, 172689, Note_off_c, 0, 64, 64
1, 172690, Control_c, 0, 64, 72
1, 172705, Control_c, 0, 64, 77
1, 172720, Control_c, 0, 64, 82
1, 172735, Control_c, 0, 64, 86
1, 172746, Note_off_c, 0, 83, 62
1, 172749, Control_c, 0, 64, 89
1, 172754, Note_off_c, 0, 76, 45
1, 172764, Control_c, 0, 64, 91
1, 172779, Control_c, 0, 64, 93
1, 172794, Control_c, 0, 64, 94
1, 172808, Control_c, 0, 64, 94
1, 172838, Control_c, 0, 64, 95
1, 172882, Control_c, 0, 64, 97
1, 172897, Control_c, 0, 64, 95
1, 172912, Control_c, 0, 64, 84
1, 172921, Note_on_c, 0, 52, 63
1, 172927, Control_c, 0, 64, 69
1, 172942, Control_c, 0, 64, 63
1, 172956, Control_c, 0, 64, 65
1, 172971, Control_c, 0, 64, 67
1, 172986, Control_c, 0, 64, 71
1, 173000, Control_c, 0, 64, 75
1, 173015, Control_c, 0, 64, 79
1, 173015, Control_c, 0, 67, 124
1, 173030, Control_c, 0, 64, 83
1, 173045, Control_c, 0, 64, 85
1, 173045, Control_c, 0, 67, 122
1, 173060, Control_c, 0, 64, 86
1, 173074, Control_c, 0, 64, 87
1, 173074, Control_c, 0, 67, 120
1, 173087, Note_off_c, 0, 52, 56
1, 173104, Control_c, 0, 67, 117
1, 173134, Control_c, 0, 67, 112
1, 173156, Control_c, 0, 67, 95
1, 173171, Control_c, 0, 67, 81
1, 173186, Control_c, 0, 67, 72
1, 173201, Control_c, 0, 67, 66
1, 173215, Control_c, 0, 64, 86
1, 173215, Control_c, 0, 67, 65
1, 173230, Control_c, 0, 64, 84
1, 173230, Control_c, 0, 67, 65
1, 173246, Control_c, 0, 64, 76
1, 173246, Control_c, 0, 67, 63
1, 173247, Note_on_c, 0, 57, 65
1, 173261, Control_c, 0, 64, 66
1, 173261, Control_c, 0, 67, 60
1, 173270, Note_on_c, 0, 53, 47
1, 173276, Control_c, 0, 64, 51
1, 173276, Control_c, 0, 67, 43
1, 173291, Control_c, 0, 64, 0
1, 173291, Control_c, 0, 67, 0
1, 173335, Control_c, 0, 64, 39
1, 173350, Control_c, 0, 64, 56
1, 173365, Control_c, 0, 64, 64
1, 173380, Control_c, 0, 64, 68
1, 173394, Control_c, 0, 64, 70
1, 173409, Control_c, 0, 64, 72
1, 173424, Control_c, 0, 64, 74
1, 173438, Control_c, 0, 64, 78
1, 173453, Control_c, 0, 64, 81
1, 173462, Note_off_c, 0, 57, 63
1, 173468, Control_c, 0, 64, 84
1, 173483, Control_c, 0, 64, 87
1, 173498, Control_c, 0, 64, 90
1, 173513, Control_c, 0, 64, 91
1, 173527, Control_c, 0, 64, 90
1, 173542, Control_c, 0, 64, 85
1, 173557, Control_c, 0, 64, 76
1, 173572, Control_c, 0, 64, 70
1, 173587, Control_c, 0, 64, 68
1, 173592, Note_on_c, 0, 57, 51
1, 173602, Control_c, 0, 64, 69
1, 173617, Control_c, 0, 64, 72
1, 173631, Control_c, 0, 64, 76
1, 173646, Control_c, 0, 64, 81
1, 173661, Control_c, 0, 64, 84
1, 173676, Control_c, 0, 64, 86
1, 173691, Control_c, 0, 64, 87
1, 173702, Note_off_c, 0, 57, 55
1, 173705, Control_c, 0, 64, 88
1, 173715, Note_off_c, 0, 53, 56
1, 173735, Control_c, 0, 64, 89
1, 173868, Control_c, 0, 64, 88
1, 173905, Control_c, 0, 64, 87
1, 173920, Control_c, 0, 64, 86
1, 173935, Control_c, 0, 64, 82
1, 173937, Note_on_c, 0, 59, 48
1, 173944, Note_on_c, 0, 52, 46
1, 173947, Note_on_c, 0, 56, 46
1, 173950, Control_c, 0, 64, 75
1, 173964, Control_c, 0, 64, 65
1, 173978, Control_c, 0, 64, 52
1, 173992, Control_c, 0, 64, 36
1, 174007, Control_c, 0, 64, 0
1, 174022, Control_c, 0, 64, 31
1, 174038, Control_c, 0, 64, 44
1, 174052, Control_c, 0, 64, 57
1, 174067, Control_c, 0, 64, 64
1, 174082, Control_c, 0, 64, 68
1, 174097, Control_c, 0, 64, 72
1, 174112, Control_c, 0, 64, 74
1, 174127, Control_c, 0, 64, 76
1, 174133, Note_off_c, 0, 59, 61
1, 174142, Control_c, 0, 64, 79
1, 174156, Control_c, 0, 64, 82
1, 174171, Control_c, 0, 64, 84
1, 174186, Control_c, 0, 64, 86
1, 174201, Control_c, 0, 64, 87
1, 174216, Control_c, 0, 64, 87
1, 174231, Control_c, 0, 64, 82
1, 174246, Control_c, 0, 64, 70
1, 174260, Control_c, 0, 64, 56
1, 174275, Control_c, 0, 64, 49
1, 174286, Note_on_c, 0, 59, 47
1, 174290, Control_c, 0, 64, 52
1, 174305, Control_c, 0, 64, 57
1, 174320, Control_c, 0, 64, 63
1, 174334, Control_c, 0, 64, 70
1, 174349, Control_c, 0, 64, 80
1, 174350, Note_off_c, 0, 59, 62
1, 174364, Control_c, 0, 64, 87
1, 174365, Note_off_c, 0, 52, 58
1, 174378, Control_c, 0, 64, 91
1, 174393, Control_c, 0, 64, 96
1, 174408, Control_c, 0, 64, 102
1, 174423, Control_c, 0, 64, 110
1, 174431, Note_off_c, 0, 56, 61
1, 174438, Control_c, 0, 64, 118
1, 174452, Control_c, 0, 64, 127
1, 174571, Control_c, 0, 64, 114
1, 174586, Control_c, 0, 64, 95
1, 174598, Note_on_c, 0, 71, 64
1, 174601, Control_c, 0, 64, 77
1, 174615, Control_c, 0, 64, 62
1, 174618, Note_on_c, 0, 57, 40
1, 174619, Note_on_c, 0, 59, 42
1, 174630, Control_c, 0, 64, 48
1, 174643, Note_on_c, 0, 47, 29
1, 174645, Control_c, 0, 64, 41
1, 174667, Control_c, 0, 64, 44
1, 174682, Control_c, 0, 64, 54
1, 174697, Control_c, 0, 64, 62
1, 174708, Note_off_c, 0, 59, 54
1, 174712, Control_c, 0, 64, 68
1, 174717, Note_on_c, 0, 61, 59
1, 174726, Control_c, 0, 64, 76
1, 174741, Control_c, 0, 64, 86
1, 174756, Control_c, 0, 64, 98
1, 174771, Control_c, 0, 64, 127
1, 174785, Note_off_c, 0, 71, 58
1, 174795, Note_off_c, 0, 61, 62
1, 174800, Control_c, 0, 64, 104
1, 174809, Note_on_c, 0, 63, 57
1, 174815, Control_c, 0, 64, 82
1, 174831, Control_c, 0, 64, 66
1, 174846, Control_c, 0, 64, 53
1, 174848, Note_off_c, 0, 63, 64
1, 174861, Control_c, 0, 64, 46
1, 174875, Control_c, 0, 64, 49
1, 174890, Control_c, 0, 64, 58
1, 174890, Control_c, 0, 67, 38
1, 174902, Note_on_c, 0, 71, 67
1, 174905, Control_c, 0, 64, 65
1, 174905, Control_c, 0, 67, 48
1, 174917, Note_on_c, 0, 63, 66
1, 174920, Control_c, 0, 64, 72
1, 174920, Control_c, 0, 67, 57
1, 174935, Control_c, 0, 64, 79
1, 174935, Control_c, 0, 67, 71
1, 174949, Control_c, 0, 64, 83
1, 174949, Control_c, 0, 67, 86
1, 174964, Control_c, 0, 64, 86
1, 174964, Control_c, 0, 67, 99
1, 174979, Control_c, 0, 64, 90
1, 174979, Control_c, 0, 67, 112
1, 174983, Note_off_c, 0, 63, 62
1, 174994, Note_off_c, 0, 71, 58
1, 174994, Control_c, 0, 64, 91
1, 174994, Control_c, 0, 67, 117
1, 175007, Note_on_c, 0, 64, 71
1, 175009, Control_c, 0, 67, 121
1, 175024, Control_c, 0, 67, 123
1, 175034, Note_off_c, 0, 57, 56
1, 175037, Note_off_c, 0, 47, 41
1, 175066, Note_off_c, 0, 64, 58
1, 175096, Note_on_c, 0, 66, 76
1, 175098, Control_c, 0, 64, 90
1, 175128, Control_c, 0, 64, 89
1, 175143, Control_c, 0, 64, 86
1, 175157, Control_c, 0, 64, 84
1, 175172, Control_c, 0, 64, 80
1, 175187, Control_c, 0, 64, 74
1, 175201, Control_c, 0, 64, 67
1, 175216, Control_c, 0, 64, 57
1, 175231, Control_c, 0, 64, 39
1, 175233, Note_off_c, 0, 66, 62
1, 175245, Note_on_c, 0, 71, 70
1, 175246, Control_c, 0, 64, 0
1, 175247, Note_on_c, 0, 64, 60
1, 175264, Note_on_c, 0, 52, 47
1, 175268, Note_on_c, 0, 56, 48
1, 175320, Control_c, 0, 64, 43
1, 175335, Control_c, 0, 64, 58
1, 175349, Control_c, 0, 64, 63
1, 175349, Control_c, 0, 67, 121
1, 175364, Control_c, 0, 64, 66
1, 175379, Control_c, 0, 64, 68
1, 175380, Note_off_c, 0, 56, 58
1, 175384, Note_off_c, 0, 52, 57
1, 175394, Control_c, 0, 64, 71
1, 175416, Control_c, 0, 64, 74
1, 175431, Control_c, 0, 64, 77
1, 175431, Control_c, 0, 67, 119
1, 175446, Control_c, 0, 64, 81
1, 175461, Control_c, 0, 64, 84
1, 175477, Control_c, 0, 64, 87
1, 175477, Control_c, 0, 67, 117
1, 175491, Control_c, 0, 64, 89
1, 175521, Control_c, 0, 64, 85
1, 175535, Control_c, 0, 64, 74
1, 175550, Control_c, 0, 64, 62
1, 175565, Control_c, 0, 64, 45
1, 175580, Control_c, 0, 64, 35
1, 175581, Note_on_c, 0, 56, 60
1, 175588, Note_on_c, 0, 52, 56
1, 175595, Control_c, 0, 64, 42
1, 175609, Control_c, 0, 64, 55
1, 175625, Control_c, 0, 64, 64
1, 175625, Control_c, 0, 67, 119
1, 175640, Control_c, 0, 64, 71
1, 175655, Control_c, 0, 64, 78
1, 175660, Note_off_c, 0, 64, 64
1, 175670, Control_c, 0, 64, 82
1, 175680, Note_off_c, 0, 56, 61
1, 175683, Note_off_c, 0, 52, 57
1, 175685, Control_c, 0, 64, 85
1, 175699, Control_c, 0, 64, 89
1, 175701, Note_off_c, 0, 71, 54
1, 175714, Control_c, 0, 64, 92
1, 175729, Control_c, 0, 64, 94
1, 175744, Control_c, 0, 64, 95
1, 175847, Control_c, 0, 64, 95
1, 175862, Control_c, 0, 64, 92
1, 175862, Control_c, 0, 67, 121
1, 175877, Control_c, 0, 64, 85
1, 175892, Control_c, 0, 64, 73
1, 175902, Note_on_c, 0, 71, 71
1, 175906, Control_c, 0, 64, 62
1, 175913, Note_on_c, 0, 59, 57
1, 175914, Note_on_c, 0, 57, 57
1, 175919, Note_on_c, 0, 52, 52
1, 175921, Control_c, 0, 64, 46
1, 175921, Control_c, 0, 67, 123
1, 175936, Control_c, 0, 64, 0
1, 175966, Control_c, 0, 67, 125
1, 175996, Control_c, 0, 67, 127
1, 176003, Note_off_c, 0, 59, 60
1, 176011, Control_c, 0, 64, 29
1, 176012, Note_on_c, 0, 61, 65
1, 176025, Control_c, 0, 64, 42
1, 176040, Control_c, 0, 64, 55
1, 176055, Control_c, 0, 64, 62
1, 176070, Control_c, 0, 64, 64
1, 176085, Control_c, 0, 64, 65
1, 176096, Note_off_c, 0, 71, 61
1, 176099, Control_c, 0, 64, 66
1, 176102, Note_off_c, 0, 61, 63
1, 176106, Note_on_c, 0, 63, 62
1, 176114, Control_c, 0, 64, 66
1, 176129, Control_c, 0, 64, 67
1, 176135, Note_off_c, 0, 63, 66
1, 176216, Note_on_c, 0, 63, 63
1, 176227, Note_on_c, 0, 71, 62
1, 176285, Control_c, 0, 64, 67
1, 176291, Note_off_c, 0, 63, 61
1, 176300, Control_c, 0, 64, 66
1, 176314, Control_c, 0, 64, 65
1, 176321, Note_on_c, 0, 64, 64
1, 176329, Control_c, 0, 64, 65
1, 176330, Note_off_c, 0, 71, 37
1, 176344, Control_c, 0, 64, 64
1, 176358, Control_c, 0, 64, 62
1, 176361, Note_off_c, 0, 64, 61
1, 176373, Control_c, 0, 64, 59
1, 176378, Note_off_c, 0, 57, 56
1, 176388, Control_c, 0, 64, 58
1, 176392, Note_off_c, 0, 52, 56
1, 176403, Control_c, 0, 64, 58
1, 176412, Note_on_c, 0, 66, 65
1, 176418, Control_c, 0, 64, 57
1, 176434, Control_c, 0, 64, 55
1, 176448, Control_c, 0, 64, 55
1, 176463, Control_c, 0, 64, 54
1, 176478, Control_c, 0, 64, 53
1, 176493, Control_c, 0, 64, 53
1, 176508, Control_c, 0, 64, 50
1, 176522, Control_c, 0, 64, 46
1, 176537, Control_c, 0, 64, 41
1, 176538, Note_off_c, 0, 66, 60
1, 176552, Control_c, 0, 64, 37
1, 176560, Note_on_c, 0, 71, 57
1, 176563, Note_on_c, 0, 64, 50
1, 176567, Control_c, 0, 64, 34
1, 176574, Note_on_c, 0, 52, 34
1, 176581, Control_c, 0, 64, 32
1, 176583, Note_on_c, 0, 56, 38
1, 176696, Note_off_c, 0, 56, 58
1, 176706, Note_off_c, 0, 52, 53
1, 176729, Control_c, 0, 64, 34
1, 176744, Control_c, 0, 64, 35
1, 176759, Control_c, 0, 64, 36
1, 176774, Control_c, 0, 64, 37
1, 176789, Control_c, 0, 64, 38
1, 176803, Control_c, 0, 64, 40
1, 176818, Control_c, 0, 64, 42
1, 176833, Control_c, 0, 64, 44
1, 176848, Control_c, 0, 64, 47
1, 176863, Control_c, 0, 64, 51
1, 176878, Control_c, 0, 64, 55
1, 176893, Control_c, 0, 64, 58
1, 176903, Note_on_c, 0, 56, 41
1, 176912, Note_on_c, 0, 52, 41
1, 176915, Control_c, 0, 64, 61
1, 176929, Control_c, 0, 64, 63
1, 176944, Control_c, 0, 64, 64
1, 176959, Control_c, 0, 64, 65
1, 176974, Control_c, 0, 64, 67
1, 176981, Note_off_c, 0, 56, 57
1, 176988, Control_c, 0, 64, 68
1, 176989, Note_off_c, 0, 64, 62
1, 176990, Note_off_c, 0, 52, 55
1, 177003, Control_c, 0, 64, 69
1, 177018, Control_c, 0, 64, 70
1, 177033, Control_c, 0, 64, 70
1, 177048, Control_c, 0, 64, 71
1, 177063, Control_c, 0, 64, 71
1, 177070, Note_off_c, 0, 71, 37
1, 177093, Control_c, 0, 64, 72
1, 177227, Control_c, 0, 64, 71
1, 177247, Note_on_c, 0, 71, 56
1, 177252, Note_on_c, 0, 59, 49
1, 177253, Note_on_c, 0, 57, 45
1, 177257, Control_c, 0, 64, 70
1, 177271, Control_c, 0, 64, 67
1, 177273, Note_on_c, 0, 52, 42
1, 177286, Control_c, 0, 64, 61
1, 177301, Control_c, 0, 64, 47
1, 177316, Control_c, 0, 64, 0
1, 177350, Note_off_c, 0, 59, 56
1, 177364, Note_on_c, 0, 61, 54
1, 177390, Control_c, 0, 64, 39
1, 177404, Control_c, 0, 64, 52
1, 177419, Control_c, 0, 64, 62
1, 177434, Control_c, 0, 64, 64
1, 177443, Note_off_c, 0, 61, 60
1, 177449, Control_c, 0, 64, 65
1, 177450, Note_off_c, 0, 71, 52
1, 177457, Note_on_c, 0, 63, 53
1, 177464, Control_c, 0, 64, 66
1, 177478, Control_c, 0, 64, 66
1, 177496, Note_off_c, 0, 63, 64
1, 177508, Control_c, 0, 64, 65
1, 177523, Control_c, 0, 64, 58
1, 177538, Control_c, 0, 64, 46
1, 177552, Control_c, 0, 64, 0
1, 177581, Note_on_c, 0, 71, 55
1, 177587, Note_on_c, 0, 63, 59
1, 177596, Control_c, 0, 64, 37
1, 177611, Control_c, 0, 64, 48
1, 177626, Control_c, 0, 64, 55
1, 177649, Control_c, 0, 64, 58
1, 177662, Note_off_c, 0, 63, 61
1, 177664, Control_c, 0, 64, 61
1, 177678, Control_c, 0, 64, 64
1, 177693, Control_c, 0, 64, 66
1, 177699, Note_off_c, 0, 71, 56
1, 177702, Note_on_c, 0, 64, 53
1, 177708, Control_c, 0, 64, 67
1, 177722, Control_c, 0, 64, 67
1, 177751, Control_c, 0, 64, 68
1, 177765, Note_off_c, 0, 57, 57
1, 177768, Note_off_c, 0, 52, 37
1, 177786, Note_off_c, 0, 64, 57
1, 177805, Note_on_c, 0, 66, 53
1, 177856, Control_c, 0, 64, 67
1, 177885, Control_c, 0, 64, 67
1, 177900, Control_c, 0, 64, 66
1, 177915, Control_c, 0, 64, 65
1, 177929, Control_c, 0, 64, 63
1, 177944, Control_c, 0, 64, 60
1, 177945, Note_off_c, 0, 66, 59
1, 177959, Control_c, 0, 64, 56
1, 177974, Control_c, 0, 64, 48
1, 177979, Note_on_c, 0, 71, 46
1, 177980, Note_on_c, 0, 64, 40
1, 177989, Control_c, 0, 64, 31
1, 177997, Note_on_c, 0, 52, 32
1, 177997, Note_on_c, 0, 56, 35
1, 178003, Control_c, 0, 64, 0
1, 178108, Control_c, 0, 64, 44
1, 178123, Control_c, 0, 64, 57
1, 178138, Control_c, 0, 64, 63
1, 178153, Control_c, 0, 64, 66
1, 178168, Control_c, 0, 64, 69
1, 178182, Control_c, 0, 64, 72
1, 178193, Note_off_c, 0, 56, 42
1, 178197, Note_off_c, 0, 52, 40
1, 178197, Control_c, 0, 64, 74
1, 178212, Control_c, 0, 64, 76
1, 178226, Control_c, 0, 64, 77
1, 178315, Control_c, 0, 64, 74
1, 178330, Control_c, 0, 64, 66
1, 178345, Control_c, 0, 64, 56
1, 178360, Control_c, 0, 64, 45
1, 178366, Note_on_c, 0, 56, 33
1, 178374, Control_c, 0, 64, 43
1, 178381, Note_on_c, 0, 52, 34
1, 178397, Control_c, 0, 64, 49
1, 178412, Control_c, 0, 64, 58
1, 178426, Control_c, 0, 64, 65
1, 178441, Control_c, 0, 64, 70
1, 178456, Control_c, 0, 64, 74
1, 178472, Control_c, 0, 64, 76
1, 178487, Control_c, 0, 64, 79
1, 178497, Note_off_c, 0, 52, 60
1, 178501, Control_c, 0, 64, 81
1, 178502, Note_off_c, 0, 56, 53
1, 178512, Note_off_c, 0, 64, 57
1, 178516, Control_c, 0, 64, 82
1, 178531, Control_c, 0, 64, 83
1, 178556, Note_off_c, 0, 71, 35
1, 178679, Control_c, 0, 64, 83
1, 178708, Control_c, 0, 64, 82
1, 178723, Control_c, 0, 64, 82
1, 178738, Control_c, 0, 64, 81
1, 178753, Control_c, 0, 64, 80
1, 178768, Control_c, 0, 64, 79
1, 178783, Control_c, 0, 64, 77
1, 178798, Control_c, 0, 64, 76
1, 178812, Note_on_c, 0, 71, 43
1, 178813, Note_on_c, 0, 62, 41
1, 178813, Control_c, 0, 64, 74
1, 178828, Control_c, 0, 64, 72
1, 178831, Note_on_c, 0, 55, 36
1, 178839, Note_on_c, 0, 43, 39
1, 178843, Control_c, 0, 64, 68
1, 178857, Control_c, 0, 64, 63
1, 178872, Control_c, 0, 64, 56
1, 178887, Control_c, 0, 64, 48
1, 178902, Control_c, 0, 64, 32
1, 178917, Control_c, 0, 64, 0
1, 178966, Note_off_c, 0, 62, 47
1, 178968, Note_on_c, 0, 64, 48
1, 179006, Control_c, 0, 64, 37
1, 179021, Control_c, 0, 64, 51
1, 179036, Control_c, 0, 64, 60
1, 179050, Control_c, 0, 64, 64
1, 179065, Control_c, 0, 64, 67
1, 179080, Control_c, 0, 64, 70
1, 179092, Note_off_c, 0, 64, 53
1, 179095, Control_c, 0, 64, 72
1, 179104, Note_on_c, 0, 65, 52
1, 179110, Control_c, 0, 64, 74
1, 179124, Control_c, 0, 64, 76
1, 179139, Control_c, 0, 64, 78
1, 179161, Control_c, 0, 64, 78
1, 179163, Note_off_c, 0, 71, 26
1, 179170, Note_off_c, 0, 65, 57
1, 179280, Control_c, 0, 64, 78
1, 179295, Control_c, 0, 64, 77
1, 179310, Control_c, 0, 64, 76
1, 179311, Note_on_c, 0, 71, 44
1, 179321, Note_on_c, 0, 65, 41
1, 179324, Control_c, 0, 64, 74
1, 179339, Control_c, 0, 64, 71
1, 179354, Control_c, 0, 64, 67
1, 179368, Control_c, 0, 64, 59
1, 179383, Control_c, 0, 64, 48
1, 179398, Control_c, 0, 64, 0
1, 179471, Note_off_c, 0, 65, 59
1, 179523, Note_on_c, 0, 67, 39
1, 179531, Control_c, 0, 64, 34
1, 179546, Control_c, 0, 64, 49
1, 179561, Control_c, 0, 64, 59
1, 179576, Control_c, 0, 64, 62
1, 179591, Control_c, 0, 64, 65
1, 179606, Control_c, 0, 64, 68
1, 179621, Control_c, 0, 64, 71
1, 179636, Control_c, 0, 64, 74
1, 179651, Control_c, 0, 64, 76
1, 179666, Control_c, 0, 64, 79
1, 179680, Control_c, 0, 64, 82
1, 179695, Control_c, 0, 64, 84
1, 179707, Note_off_c, 0, 43, 39
1, 179710, Control_c, 0, 64, 86
1, 179725, Control_c, 0, 64, 87
1, 179745, Note_off_c, 0, 55, 41
1, 179748, Note_off_c, 0, 71, 51
1, 179755, Note_on_c, 0, 69, 41
1, 179755, Control_c, 0, 64, 87
1, 179757, Note_off_c, 0, 67, 29
1, 179809, Note_off_c, 0, 69, 56
1, 180014, Control_c, 0, 64, 87
1, 180073, Control_c, 0, 64, 86
1, 180088, Control_c, 0, 64, 86
1, 180118, Control_c, 0, 64, 85
1, 180132, Control_c, 0, 64, 84
1, 180147, Control_c, 0, 64, 84
1, 180162, Control_c, 0, 64, 83
1, 180177, Control_c, 0, 64, 81
1, 180181, Note_on_c, 0, 72, 51
1, 180191, Control_c, 0, 64, 79
1, 180206, Note_on_c, 0, 64, 36
1, 180206, Control_c, 0, 64, 77
1, 180219, Note_on_c, 0, 48, 39
1, 180221, Control_c, 0, 64, 74
1, 180230, Note_on_c, 0, 55, 30
1, 180236, Control_c, 0, 64, 71
1, 180251, Control_c, 0, 64, 65
1, 180266, Control_c, 0, 64, 56
1, 180280, Control_c, 0, 64, 38
1, 180295, Control_c, 0, 64, 0
1, 180369, Control_c, 0, 64, 38
1, 180384, Control_c, 0, 64, 52
1, 180398, Control_c, 0, 64, 61
1, 180414, Control_c, 0, 64, 65
1, 180429, Control_c, 0, 64, 67
1, 180444, Control_c, 0, 64, 69
1, 180459, Control_c, 0, 64, 72
1, 180474, Control_c, 0, 64, 76
1, 180484, Note_off_c, 0, 55, 41
1, 180489, Control_c, 0, 64, 79
1, 180503, Control_c, 0, 64, 83
1, 180517, Note_off_c, 0, 48, 40
1, 180518, Control_c, 0, 64, 85
1, 180528, Note_on_c, 0, 60, 41
1, 180533, Control_c, 0, 64, 86
1, 180547, Control_c, 0, 64, 87
1, 180562, Control_c, 0, 64, 88
1, 180577, Control_c, 0, 64, 89
1, 180586, Note_off_c, 0, 60, 54
1, 180700, Note_off_c, 0, 64, 43
1, 180747, Note_off_c, 0, 72, 52
1, 180750, Note_on_c, 0, 60, 34
1, 180807, Note_off_c, 0, 60, 47
1, 180852, Control_c, 0, 64, 88
1, 180896, Control_c, 0, 64, 88
1, 180923, Note_on_c, 0, 60, 45
1, 180926, Control_c, 0, 64, 87
1, 180955, Control_c, 0, 64, 87
1, 180970, Control_c, 0, 64, 86
1, 180978, Note_off_c, 0, 60, 56
1, 180985, Control_c, 0, 64, 86
1, 181015, Control_c, 0, 64, 85
1, 181044, Control_c, 0, 64, 84
1, 181074, Control_c, 0, 64, 84
1, 181089, Control_c, 0, 64, 83
1, 181095, Note_on_c, 0, 60, 46
1, 181103, Control_c, 0, 64, 82
1, 181118, Control_c, 0, 64, 82
1, 181133, Control_c, 0, 64, 81
1, 181134, Note_off_c, 0, 60, 56
1, 181147, Control_c, 0, 64, 81
1, 181162, Control_c, 0, 64, 80
1, 181177, Control_c, 0, 64, 78
1, 181192, Control_c, 0, 64, 77
1, 181207, Control_c, 0, 64, 75
1, 181223, Control_c, 0, 64, 73
1, 181237, Control_c, 0, 64, 70
1, 181251, Note_on_c, 0, 60, 41
1, 181252, Control_c, 0, 64, 67
1, 181253, Note_on_c, 0, 67, 38
1, 181260, Note_on_c, 0, 64, 44
1, 181267, Control_c, 0, 64, 65
1, 181282, Control_c, 0, 64, 63
1, 181297, Control_c, 0, 64, 61
1, 181298, Note_off_c, 0, 67, 48
1, 181299, Note_off_c, 0, 60, 56
1, 181299, Note_off_c, 0, 64, 62
1, 181311, Control_c, 0, 64, 58
1, 181326, Control_c, 0, 64, 57
1, 181341, Control_c, 0, 64, 54
1, 181356, Control_c, 0, 64, 50
1, 181356, Control_c, 0, 67, 106
1, 181370, Control_c, 0, 64, 43
1, 181370, Control_c, 0, 67, 81
1, 181393, Control_c, 0, 64, 0
1, 181393, Control_c, 0, 67, 57
1, 181408, Control_c, 0, 67, 35
1, 181423, Control_c, 0, 67, 0
1, 181424, Note_on_c, 0, 60, 48
1, 181430, Note_on_c, 0, 67, 37
1, 181436, Note_on_c, 0, 64, 31
1, 181466, Note_off_c, 0, 60, 59
1, 181473, Note_off_c, 0, 67, 49
1, 181474, Note_off_c, 0, 64, 52
1, 181583, Note_on_c, 0, 60, 46
1, 181584, Note_on_c, 0, 67, 42
1, 181585, Note_on_c, 0, 64, 38
1, 181625, Note_off_c, 0, 60, 59
1, 181626, Note_off_c, 0, 64, 55
1, 181627, Note_off_c, 0, 67, 49
1, 181748, Note_on_c, 0, 79, 63
1, 181749, Control_c, 0, 64, 35
1, 181764, Control_c, 0, 64, 43
1, 181770, Note_on_c, 0, 60, 37
1, 181775, Note_on_c, 0, 67, 29
1, 181779, Control_c, 0, 64, 50
1, 181782, Note_on_c, 0, 64, 28
1, 181794, Control_c, 0, 64, 57
1, 181808, Control_c, 0, 64, 62
1, 181823, Note_off_c, 0, 60, 56
1, 181823, Control_c, 0, 64, 63
1, 181831, Note_off_c, 0, 64, 47
1, 181838, Control_c, 0, 64, 64
1, 181841, Note_off_c, 0, 67, 42
1, 181853, Control_c, 0, 64, 65
1, 181868, Control_c, 0, 64, 68
1, 181883, Control_c, 0, 64, 71
1, 181898, Control_c, 0, 64, 75
1, 181913, Control_c, 0, 64, 79
1, 181920, Note_on_c, 0, 60, 36
1, 181925, Note_on_c, 0, 67, 22
1, 181927, Control_c, 0, 64, 81
1, 181934, Note_on_c, 0, 64, 40
1, 181942, Control_c, 0, 64, 84
1, 181957, Control_c, 0, 64, 87
1, 181967, Note_off_c, 0, 64, 53
1, 181969, Note_off_c, 0, 60, 55
1, 181971, Control_c, 0, 64, 88
1, 181979, Note_off_c, 0, 67, 46
1, 181986, Control_c, 0, 64, 89
1, 182088, Note_on_c, 0, 77, 68
1, 182099, Note_on_c, 0, 60, 38
1, 182130, Poly_aftertouch_c, 0, 64, 127
1, 182132, Poly_aftertouch_c, 0, 67, 127
1, 182133, Note_off_c, 0, 79, 62
1, 182133, Note_off_c, 0, 60, 54
1, 182176, Note_on_c, 0, 76, 72
1, 182181, Poly_aftertouch_c, 0, 64, 0
1, 182185, Poly_aftertouch_c, 0, 67, 0
1, 182187, Control_c, 0, 64, 88
1, 182203, Note_off_c, 0, 77, 62
1, 182216, Control_c, 0, 64, 88
1, 182245, Note_on_c, 0, 60, 44
1, 182250, Note_on_c, 0, 67, 28
1, 182252, Note_on_c, 0, 74, 77
1, 182266, Note_off_c, 0, 76, 59
1, 182275, Control_c, 0, 64, 87
1, 182284, Note_off_c, 0, 60, 62
1, 182288, Note_off_c, 0, 67, 51
1, 182305, Control_c, 0, 64, 87
1, 182330, Note_off_c, 0, 74, 63
1, 182333, Note_on_c, 0, 72, 77
1, 182334, Control_c, 0, 64, 86
1, 182344, Poly_aftertouch_c, 0, 64, 0
1, 182364, Control_c, 0, 64, 86
1, 182393, Control_c, 0, 64, 85
1, 182423, Control_c, 0, 64, 83
1, 182438, Control_c, 0, 64, 81
1, 182453, Control_c, 0, 64, 78
1, 182460, Note_on_c, 0, 81, 75
1, 182464, Note_on_c, 0, 60, 41
1, 182467, Control_c, 0, 64, 75
1, 182474, Note_on_c, 0, 65, 42
1, 182474, Note_on_c, 0, 69, 29
1, 182482, Control_c, 0, 64, 70
1, 182497, Control_c, 0, 64, 65
1, 182499, Note_off_c, 0, 72, 56
1, 182512, Note_off_c, 0, 65, 51
1, 182512, Note_off_c, 0, 69, 53
1, 182512, Control_c, 0, 64, 58
1, 182513, Note_off_c, 0, 60, 59
1, 182527, Control_c, 0, 64, 53
1, 182542, Control_c, 0, 64, 51
1, 182557, Control_c, 0, 64, 51
1, 182601, Control_c, 0, 64, 50
1, 182634, Note_on_c, 0, 69, 38
1, 182640, Note_on_c, 0, 60, 46
1, 182647, Note_on_c, 0, 65, 30
1, 182661, Control_c, 0, 64, 51
1, 182675, Control_c, 0, 64, 51
1, 182687, Note_off_c, 0, 69, 57
1, 182688, Note_off_c, 0, 60, 59
1, 182688, Note_off_c, 0, 65, 50
1, 182690, Control_c, 0, 64, 52
1, 182705, Control_c, 0, 64, 53
1, 182719, Control_c, 0, 64, 54
1, 182719, Control_c, 0, 67, 39
1, 182734, Control_c, 0, 67, 41
1, 182749, Control_c, 0, 64, 54
1, 182749, Control_c, 0, 67, 41
1, 182764, Control_c, 0, 67, 39
1, 182779, Control_c, 0, 67, 37
1, 182793, Control_c, 0, 64, 55
1, 182793, Control_c, 0, 67, 35
1, 182808, Control_c, 0, 64, 55
1, 182809, Note_on_c, 0, 60, 46
1, 182813, Note_on_c, 0, 69, 37
1, 182818, Note_on_c, 0, 65, 18
1, 182824, Control_c, 0, 67, 34
1, 182839, Control_c, 0, 64, 56
1, 182839, Control_c, 0, 67, 0
1, 182849, Note_off_c, 0, 69, 51
1, 182851, Note_off_c, 0, 60, 56
1, 182854, Control_c, 0, 64, 57
1, 182859, Note_off_c, 0, 65, 50
1, 182884, Control_c, 0, 67, 34
1, 182905, Control_c, 0, 67, 37
1, 182920, Control_c, 0, 67, 39
1, 182935, Control_c, 0, 67, 41
1, 182950, Control_c, 0, 67, 43
1, 182965, Control_c, 0, 64, 56
1, 182965, Control_c, 0, 67, 46
1, 182975, Note_on_c, 0, 65, 39
1, 182975, Note_on_c, 0, 69, 40
1, 182980, Control_c, 0, 67, 54
1, 182983, Note_on_c, 0, 60, 48
1, 182995, Control_c, 0, 67, 82
1, 183005, Note_off_c, 0, 69, 55
1, 183010, Control_c, 0, 67, 108
1, 183011, Note_off_c, 0, 65, 55
1, 183022, Note_off_c, 0, 60, 62
1, 183024, Control_c, 0, 67, 123
1, 183027, Note_off_c, 0, 81, 56
1, 183039, Control_c, 0, 67, 127
1, 183152, Note_on_c, 0, 79, 60
1, 183154, Note_on_c, 0, 60, 39
1, 183171, Note_on_c, 0, 64, 36
1, 183177, Note_on_c, 0, 67, 29
1, 183187, Control_c, 0, 64, 56
1, 183208, Note_off_c, 0, 60, 58
1, 183213, Note_off_c, 0, 64, 50
1, 183215, Note_off_c, 0, 67, 52
1, 183324, Note_on_c, 0, 67, 40
1, 183326, Note_on_c, 0, 64, 44
1, 183339, Note_on_c, 0, 60, 35
1, 183360, Note_off_c, 0, 67, 50
1, 183363, Note_off_c, 0, 64, 60
1, 183372, Note_off_c, 0, 60, 54
1, 183483, Note_on_c, 0, 60, 38
1, 183484, Note_on_c, 0, 77, 62
1, 183493, Note_on_c, 0, 64, 30
1, 183502, Note_on_c, 0, 67, 29
1, 183522, Note_off_c, 0, 79, 60
1, 183531, Note_off_c, 0, 60, 57
1, 183532, Note_off_c, 0, 64, 51
1, 183538, Note_off_c, 0, 67, 52
1, 183557, Control_c, 0, 64, 55
1, 183565, Note_on_c, 0, 76, 65
1, 183587, Note_off_c, 0, 77, 61
1, 183602, Control_c, 0, 64, 55
1, 183633, Control_c, 0, 64, 54
1, 183653, Note_on_c, 0, 74, 68
1, 183656, Note_off_c, 0, 76, 61
1, 183661, Note_on_c, 0, 64, 39
1, 183668, Note_on_c, 0, 67, 31
1, 183679, Note_on_c, 0, 60, 35
1, 183701, Note_off_c, 0, 64, 61
1, 183707, Note_off_c, 0, 67, 51
1, 183711, Note_off_c, 0, 60, 53
1, 183712, Note_off_c, 0, 74, 64
1, 183714, Control_c, 0, 64, 54
1, 183731, Note_on_c, 0, 72, 58
1, 183814, Note_off_c, 0, 72, 58
1, 183834, Note_on_c, 0, 60, 36
1, 183835, Note_on_c, 0, 74, 59
1, 183837, Note_on_c, 0, 71, 52
1, 183855, Note_on_c, 0, 67, 22
1, 183856, Note_on_c, 0, 65, 41
1, 183898, Note_off_c, 0, 65, 58
1, 183902, Note_off_c, 0, 60, 57
1, 183906, Note_off_c, 0, 67, 47
1, 184020, Note_on_c, 0, 65, 34
1, 184027, Note_on_c, 0, 67, 33
1, 184029, Note_on_c, 0, 60, 30
1, 184058, Note_off_c, 0, 65, 49
1, 184065, Note_off_c, 0, 67, 50
1, 184067, Note_off_c, 0, 60, 52
1, 184178, Note_on_c, 0, 60, 43
1, 184190, Note_on_c, 0, 67, 31
1, 184194, Note_on_c, 0, 65, 19
1, 184217, Control_c, 0, 64, 53
1, 184223, Note_off_c, 0, 60, 60
1, 184226, Note_off_c, 0, 67, 53
1, 184235, Note_off_c, 0, 65, 44
1, 184334, Note_off_c, 0, 74, 59
1, 184336, Note_on_c, 0, 65, 42
1, 184336, Note_on_c, 0, 67, 42
1, 184341, Note_on_c, 0, 60, 48
1, 184375, Note_off_c, 0, 65, 61
1, 184379, Note_off_c, 0, 67, 54
1, 184380, Note_off_c, 0, 71, 55
1, 184381, Note_off_c, 0, 60, 62
1, 184433, Control_c, 0, 64, 53
1, 184448, Control_c, 0, 64, 52
1, 184463, Control_c, 0, 64, 48
1, 184477, Control_c, 0, 64, 41
1, 184492, Control_c, 0, 64, 30
1, 184504, Note_on_c, 0, 76, 62
1, 184507, Control_c, 0, 64, 0
1, 184522, Note_on_c, 0, 60, 40
1, 184522, Control_c, 0, 64, 30
1, 184527, Note_on_c, 0, 72, 43
1, 184530, Note_on_c, 0, 67, 33
1, 184534, Note_on_c, 0, 64, 42
1, 184537, Control_c, 0, 64, 37
1, 184551, Control_c, 0, 64, 45
1, 184566, Control_c, 0, 64, 54
1, 184579, Note_off_c, 0, 64, 58
1, 184579, Note_off_c, 0, 67, 47
1, 184581, Control_c, 0, 64, 60
1, 184586, Note_off_c, 0, 60, 59
1, 184596, Control_c, 0, 64, 63
1, 184610, Control_c, 0, 64, 66
1, 184625, Control_c, 0, 64, 69
1, 184640, Control_c, 0, 64, 72
1, 184655, Control_c, 0, 64, 75
1, 184670, Control_c, 0, 64, 78
1, 184679, Note_on_c, 0, 67, 54
1, 184682, Note_off_c, 0, 76, 53
1, 184685, Control_c, 0, 64, 80
1, 184692, Note_on_c, 0, 60, 33
1, 184694, Note_on_c, 0, 64, 42
1, 184700, Control_c, 0, 64, 82
1, 184707, Note_off_c, 0, 67, 63
1, 184714, Control_c, 0, 64, 85
1, 184721, Note_off_c, 0, 64, 56
1, 184724, Note_off_c, 0, 60, 53
1, 184729, Control_c, 0, 64, 87
1, 184744, Control_c, 0, 64, 90
1, 184759, Control_c, 0, 64, 93
1, 184774, Control_c, 0, 64, 94
1, 184788, Control_c, 0, 64, 95
1, 184811, Note_off_c, 0, 72, 50
1, 184818, Control_c, 0, 64, 92
1, 184833, Control_c, 0, 64, 82
1, 184838, Note_on_c, 0, 76, 61
1, 184841, Note_on_c, 0, 60, 52
1, 184846, Note_on_c, 0, 64, 42
1, 184848, Control_c, 0, 64, 69
1, 184851, Note_on_c, 0, 74, 65
1, 184862, Control_c, 0, 64, 55
1, 184864, Note_on_c, 0, 68, 47
1, 184877, Control_c, 0, 64, 48
1, 184889, Note_off_c, 0, 68, 60
1, 184892, Control_c, 0, 64, 52
1, 184901, Note_off_c, 0, 60, 55
1, 184903, Note_off_c, 0, 64, 62
1, 184907, Control_c, 0, 64, 57
1, 184921, Control_c, 0, 64, 61
1, 184926, Note_on_c, 0, 72, 67
1, 184934, Note_off_c, 0, 76, 59
1, 184936, Control_c, 0, 64, 64
1, 184951, Control_c, 0, 64, 68
1, 184953, Note_off_c, 0, 74, 59
1, 184966, Control_c, 0, 64, 74
1, 184980, Control_c, 0, 64, 79
1, 184995, Control_c, 0, 64, 82
1, 184998, Note_off_c, 0, 72, 61
1, 185010, Control_c, 0, 64, 83
1, 185011, Note_on_c, 0, 71, 69
1, 185022, Note_on_c, 0, 68, 44
1, 185025, Control_c, 0, 64, 85
1, 185030, Note_on_c, 0, 64, 48
1, 185031, Note_on_c, 0, 60, 50
1, 185040, Control_c, 0, 64, 86
1, 185055, Control_c, 0, 64, 87
1, 185055, Note_off_c, 0, 68, 55
1, 185059, Note_off_c, 0, 60, 58
1, 185064, Note_off_c, 0, 64, 54
1, 185070, Control_c, 0, 64, 88
1, 185075, Note_off_c, 0, 71, 58
1, 185084, Note_on_c, 0, 74, 74
1, 185151, Control_c, 0, 64, 87
1, 185166, Control_c, 0, 64, 82
1, 185181, Control_c, 0, 64, 69
1, 185189, Note_off_c, 0, 74, 59
1, 185195, Control_c, 0, 64, 55
1, 185198, Note_on_c, 0, 76, 65
1, 185199, Note_on_c, 0, 72, 63
1, 185207, Note_on_c, 0, 60, 38
1, 185207, Note_on_c, 0, 64, 33
1, 185211, Note_on_c, 0, 69, 45
1, 185211, Control_c, 0, 64, 29
1, 185227, Control_c, 0, 64, 0
1, 185247, Note_off_c, 0, 69, 61
1, 185257, Note_off_c, 0, 60, 60
1, 185257, Control_c, 0, 64, 38
1, 185258, Note_off_c, 0, 64, 52
1, 185272, Control_c, 0, 64, 55
1, 185287, Control_c, 0, 64, 65
1, 185301, Control_c, 0, 64, 70
1, 185316, Control_c, 0, 64, 74
1, 185331, Control_c, 0, 64, 79
1, 185345, Control_c, 0, 64, 85
1, 185357, Note_on_c, 0, 69, 58
1, 185360, Control_c, 0, 64, 90
1, 185364, Note_on_c, 0, 64, 55
1, 185366, Note_on_c, 0, 60, 54
1, 185375, Control_c, 0, 64, 95
1, 185381, Note_off_c, 0, 76, 56
1, 185388, Note_off_c, 0, 69, 65
1, 185390, Control_c, 0, 64, 99
1, 185400, Note_off_c, 0, 72, 60
1, 185402, Note_off_c, 0, 64, 63
1, 185405, Note_off_c, 0, 60, 61
1, 185405, Control_c, 0, 64, 103
1, 185419, Control_c, 0, 64, 105
1, 185434, Control_c, 0, 64, 107
1, 185464, Control_c, 0, 64, 111
1, 185508, Control_c, 0, 64, 98
1, 185523, Control_c, 0, 64, 79
1, 185530, Note_on_c, 0, 74, 73
1, 185532, Note_on_c, 0, 76, 66
1, 185535, Note_on_c, 0, 60, 52
1, 185538, Control_c, 0, 64, 64
1, 185539, Note_on_c, 0, 68, 61
1, 185551, Note_on_c, 0, 64, 45
1, 185552, Control_c, 0, 64, 49
1, 185567, Control_c, 0, 64, 47
1, 185573, Note_off_c, 0, 68, 61
1, 185582, Control_c, 0, 64, 55
1, 185588, Note_off_c, 0, 60, 56
1, 185590, Note_off_c, 0, 64, 62
1, 185597, Control_c, 0, 64, 62
1, 185612, Note_on_c, 0, 72, 70
1, 185612, Control_c, 0, 64, 69
1, 185615, Note_off_c, 0, 76, 60
1, 185627, Control_c, 0, 64, 79
1, 185639, Note_off_c, 0, 74, 62
1, 185642, Control_c, 0, 64, 91
1, 185657, Control_c, 0, 64, 105
1, 185672, Control_c, 0, 64, 127
1, 185676, Note_on_c, 0, 71, 76
1, 185676, Note_off_c, 0, 72, 63
1, 185689, Note_on_c, 0, 68, 63
1, 185698, Note_on_c, 0, 64, 47
1, 185709, Note_on_c, 0, 60, 56
1, 185740, Note_off_c, 0, 71, 59
1, 185743, Note_off_c, 0, 60, 62
1, 185745, Note_off_c, 0, 64, 60
1, 185749, Note_off_c, 0, 68, 57
1, 185752, Note_on_c, 0, 74, 81
1, 185805, Control_c, 0, 64, 86
1, 185819, Control_c, 0, 64, 66
1, 185834, Control_c, 0, 64, 46
1, 185843, Note_off_c, 0, 74, 62
1, 185845, Note_on_c, 0, 76, 78
1, 185849, Control_c, 0, 64, 0
1, 185853, Note_on_c, 0, 72, 74
1, 185858, Note_on_c, 0, 60, 53
1, 185865, Note_on_c, 0, 64, 48
1, 185868, Note_on_c, 0, 69, 56
1, 185901, Control_c, 0, 64, 35
1, 185916, Control_c, 0, 64, 52
1, 185920, Note_off_c, 0, 64, 60
1, 185922, Note_off_c, 0, 69, 52
1, 185931, Control_c, 0, 64, 64
1, 185934, Note_off_c, 0, 60, 59
1, 185945, Control_c, 0, 64, 73
1, 185959, Control_c, 0, 64, 82
1, 185974, Control_c, 0, 64, 92
1, 185989, Control_c, 0, 64, 108
1, 186004, Control_c, 0, 64, 127
1, 186013, Note_on_c, 0, 69, 61
1, 186013, Note_off_c, 0, 76, 64
1, 186022, Note_on_c, 0, 64, 54
1, 186028, Note_on_c, 0, 60, 54
1, 186028, Note_off_c, 0, 72, 60
1, 186049, Note_off_c, 0, 69, 59
1, 186062, Note_off_c, 0, 64, 62
1, 186068, Note_off_c, 0, 60, 60
1, 186167, Control_c, 0, 64, 88
1, 186182, Control_c, 0, 64, 67
1, 186186, Note_on_c, 0, 76, 75
1, 186192, Note_on_c, 0, 71, 64
1, 186195, Note_on_c, 0, 67, 48
1, 186196, Note_on_c, 0, 60, 43
1, 186197, Control_c, 0, 64, 46
1, 186208, Note_on_c, 0, 64, 36
1, 186212, Control_c, 0, 64, 34
1, 186227, Control_c, 0, 64, 38
1, 186239, Note_off_c, 0, 60, 62
1, 186239, Note_off_c, 0, 67, 58
1, 186241, Note_off_c, 0, 64, 55
1, 186241, Control_c, 0, 64, 52
1, 186256, Control_c, 0, 64, 63
1, 186271, Control_c, 0, 64, 70
1, 186274, Note_on_c, 0, 78, 79
1, 186286, Control_c, 0, 64, 77
1, 186297, Note_off_c, 0, 76, 57
1, 186301, Control_c, 0, 64, 84
1, 186316, Control_c, 0, 64, 90
1, 186330, Control_c, 0, 64, 97
1, 186345, Control_c, 0, 64, 102
1, 186351, Note_off_c, 0, 78, 62
1, 186353, Note_on_c, 0, 79, 74
1, 186357, Note_on_c, 0, 67, 52
1, 186360, Note_on_c, 0, 64, 42
1, 186360, Control_c, 0, 64, 106
1, 186372, Note_off_c, 0, 71, 57
1, 186384, Note_off_c, 0, 67, 63
1, 186388, Note_on_c, 0, 60, 21
1, 186388, Note_off_c, 0, 64, 60
1, 186426, Note_off_c, 0, 60, 56
1, 186433, Note_on_c, 0, 78, 79
1, 186444, Note_off_c, 0, 79, 61
1, 186464, Control_c, 0, 64, 102
1, 186479, Control_c, 0, 64, 95
1, 186493, Control_c, 0, 64, 83
1, 186508, Control_c, 0, 64, 72
1, 186523, Control_c, 0, 64, 60
1, 186538, Control_c, 0, 64, 40
1, 186546, Note_on_c, 0, 76, 69
1, 186550, Note_on_c, 0, 66, 59
1, 186553, Control_c, 0, 64, 0
1, 186554, Note_on_c, 0, 69, 63
1, 186557, Note_on_c, 0, 60, 41
1, 186571, Note_off_c, 0, 78, 52
1, 186575, Note_on_c, 0, 64, 30
1, 186599, Note_off_c, 0, 66, 51
1, 186608, Note_off_c, 0, 60, 59
1, 186615, Note_off_c, 0, 64, 51
1, 186627, Control_c, 0, 64, 34
1, 186649, Control_c, 0, 64, 48
1, 186664, Control_c, 0, 64, 60
1, 186679, Control_c, 0, 64, 64
1, 186693, Control_c, 0, 64, 67
1, 186707, Control_c, 0, 64, 69
1, 186722, Control_c, 0, 64, 71
1, 186725, Note_on_c, 0, 64, 46
1, 186732, Note_on_c, 0, 66, 47
1, 186732, Note_off_c, 0, 69, 61
1, 186737, Control_c, 0, 64, 73
1, 186741, Note_on_c, 0, 60, 41
1, 186752, Control_c, 0, 64, 76
1, 186762, Note_off_c, 0, 76, 60
1, 186765, Note_off_c, 0, 66, 51
1, 186766, Control_c, 0, 64, 77
1, 186768, Note_off_c, 0, 64, 60
1, 186774, Note_off_c, 0, 60, 53
1, 186781, Control_c, 0, 64, 78
1, 186812, Control_c, 0, 64, 79
1, 186886, Control_c, 0, 64, 78
1, 186900, Note_on_c, 0, 66, 44
1, 186900, Note_on_c, 0, 78, 56
1, 186901, Control_c, 0, 64, 71
1, 186905, Note_on_c, 0, 70, 52
1, 186906, Note_on_c, 0, 64, 36
1, 186906, Note_on_c, 0, 76, 49
1, 186906, Note_on_c, 0, 60, 39
1, 186915, Control_c, 0, 64, 60
1, 186930, Control_c, 0, 64, 40
1, 186943, Note_off_c, 0, 66, 51
1, 186945, Control_c, 0, 64, 0
1, 186950, Note_off_c, 0, 60, 50
1, 186953, Note_off_c, 0, 64, 47
1, 186989, Control_c, 0, 64, 42
1, 187004, Control_c, 0, 64, 59
1, 187019, Control_c, 0, 64, 64
1, 187034, Control_c, 0, 64, 67
1, 187049, Control_c, 0, 64, 70
1, 187064, Control_c, 0, 64, 72
1, 187067, Note_on_c, 0, 60, 50
1, 187067, Note_on_c, 0, 64, 40
1, 187073, Note_on_c, 0, 66, 34
1, 187078, Note_off_c, 0, 78, 56
1, 187079, Control_c, 0, 64, 73
1, 187085, Note_off_c, 0, 70, 47
1, 187094, Control_c, 0, 64, 74
1, 187097, Note_off_c, 0, 64, 56
1, 187100, Note_off_c, 0, 60, 56
1, 187106, Note_off_c, 0, 66, 50
1, 187108, Control_c, 0, 64, 75
1, 187210, Note_off_c, 0, 76, 62
1, 187212, Control_c, 0, 64, 74
1, 187225, Note_on_c, 0, 78, 48
1, 187227, Control_c, 0, 64, 73
1, 187236, Note_on_c, 0, 71, 47
1, 187240, Note_on_c, 0, 66, 38
1, 187242, Note_on_c, 0, 75, 51
1, 187242, Control_c, 0, 64, 71
1, 187246, Note_on_c, 0, 59, 50
1, 187256, Note_on_c, 0, 63, 38
1, 187256, Control_c, 0, 64, 70
1, 187271, Control_c, 0, 64, 68
1, 187286, Control_c, 0, 64, 66
1, 187287, Note_off_c, 0, 59, 61
1, 187287, Note_off_c, 0, 63, 55
1, 187290, Note_off_c, 0, 66, 51
1, 187301, Control_c, 0, 64, 64
1, 187315, Control_c, 0, 64, 62
1, 187330, Control_c, 0, 64, 61
1, 187345, Control_c, 0, 64, 59
1, 187360, Control_c, 0, 64, 57
1, 187375, Control_c, 0, 64, 56
1, 187397, Control_c, 0, 64, 55
1, 187401, Note_on_c, 0, 63, 44
1, 187404, Note_on_c, 0, 59, 43
1, 187412, Note_on_c, 0, 66, 49
1, 187412, Control_c, 0, 64, 54
1, 187427, Control_c, 0, 64, 54
1, 187442, Control_c, 0, 64, 53
1, 187449, Note_off_c, 0, 66, 55
1, 187453, Note_off_c, 0, 63, 58
1, 187454, Note_off_c, 0, 59, 58
1, 187457, Control_c, 0, 64, 52
1, 187471, Control_c, 0, 64, 50
1, 187486, Control_c, 0, 64, 48
1, 187501, Control_c, 0, 64, 47
1, 187515, Control_c, 0, 64, 43
1, 187530, Control_c, 0, 64, 38
1, 187545, Control_c, 0, 64, 31
1, 187560, Control_c, 0, 64, 0
1, 187572, Note_on_c, 0, 66, 46
1, 187573, Note_on_c, 0, 59, 49
1, 187574, Note_on_c, 0, 63, 44
1, 187616, Note_off_c, 0, 63, 61
1, 187620, Note_off_c, 0, 59, 59
1, 187621, Note_off_c, 0, 66, 56
1, 187732, Note_on_c, 0, 59, 43
1, 187736, Note_on_c, 0, 63, 36
1, 187738, Note_on_c, 0, 66, 42
1, 187776, Note_off_c, 0, 59, 59
1, 187779, Note_off_c, 0, 66, 49
1, 187782, Note_off_c, 0, 63, 47
1, 187864, Note_off_c, 0, 71, 55
1, 187895, Note_off_c, 0, 75, 57
1, 187898, Note_off_c, 0, 78, 53
1, 187902, Note_on_c, 0, 63, 42
1, 187907, Note_on_c, 0, 66, 37
1, 187910, Note_on_c, 0, 59, 35
1, 187948, Note_off_c, 0, 63, 59
1, 187951, Note_off_c, 0, 66, 49
1, 187954, Note_off_c, 0, 59, 49
1, 188068, Note_on_c, 0, 59, 43
1, 188072, Note_on_c, 0, 66, 40
1, 188076, Note_on_c, 0, 63, 38
1, 188111, Note_off_c, 0, 66, 50
1, 188113, Note_off_c, 0, 63, 53
1, 188116, Note_off_c, 0, 59, 57
1, 188245, Note_on_c, 0, 63, 34
1, 188246, Note_on_c, 0, 66, 37
1, 188247, Note_on_c, 0, 59, 41
1, 188286, Note_off_c, 0, 63, 51
1, 188287, Note_off_c, 0, 59, 57
1, 188290, Note_off_c, 0, 66, 49
1, 188410, Note_on_c, 0, 59, 40
1, 188410, Note_on_c, 0, 63, 40
1, 188414, Note_on_c, 0, 66, 38
1, 188451, Note_off_c, 0, 63, 58
1, 188455, Note_off_c, 0, 66, 49
1, 188456, Note_off_c, 0, 59, 58
1, 188597, Note_on_c, 0, 78, 58
1, 188605, Note_on_c, 0, 59, 29
1, 188611, Note_on_c, 0, 66, 27
1, 188614, Note_on_c, 0, 63, 30
1, 188650, Control_c, 0, 64, 33
1, 188664, Note_off_c, 0, 63, 57
1, 188665, Control_c, 0, 64, 43
1, 188669, Note_off_c, 0, 59, 56
1, 188674, Note_off_c, 0, 66, 48
1, 188679, Control_c, 0, 64, 51
1, 188694, Control_c, 0, 64, 55
1, 188709, Control_c, 0, 64, 58
1, 188724, Control_c, 0, 64, 60
1, 188739, Control_c, 0, 64, 62
1, 188754, Control_c, 0, 64, 64
1, 188757, Note_on_c, 0, 66, 39
1, 188769, Note_on_c, 0, 63, 36
1, 188769, Control_c, 0, 64, 65
1, 188772, Note_on_c, 0, 59, 33
1, 188784, Control_c, 0, 64, 66
1, 188799, Control_c, 0, 64, 66
1, 188814, Control_c, 0, 64, 67
1, 188817, Note_off_c, 0, 63, 56
1, 188819, Note_off_c, 0, 66, 55
1, 188822, Note_off_c, 0, 59, 46
1, 188828, Control_c, 0, 64, 67
1, 188920, Note_off_c, 0, 78, 60
1, 188948, Note_on_c, 0, 76, 60
1, 188952, Note_on_c, 0, 63, 45
1, 188955, Note_on_c, 0, 66, 45
1, 188956, Note_on_c, 0, 59, 38
1, 188969, Control_c, 0, 64, 67
1, 188980, Note_off_c, 0, 76, 62
1, 188983, Control_c, 0, 64, 66
1, 188989, Note_off_c, 0, 66, 51
1, 188990, Note_off_c, 0, 63, 60
1, 188995, Note_off_c, 0, 59, 52
1, 188998, Control_c, 0, 64, 66
1, 189013, Control_c, 0, 64, 65
1, 189028, Control_c, 0, 64, 64
1, 189040, Note_on_c, 0, 75, 60
1, 189043, Control_c, 0, 64, 63
1, 189058, Control_c, 0, 64, 63
1, 189073, Control_c, 0, 64, 62
1, 189087, Control_c, 0, 64, 61
1, 189096, Note_off_c, 0, 75, 60
1, 189102, Control_c, 0, 64, 60
1, 189109, Note_on_c, 0, 59, 46
1, 189111, Note_on_c, 0, 66, 39
1, 189112, Note_on_c, 0, 63, 38
1, 189116, Note_on_c, 0, 73, 63
1, 189117, Control_c, 0, 64, 59
1, 189132, Control_c, 0, 64, 59
1, 189144, Note_off_c, 0, 63, 57
1, 189144, Note_off_c, 0, 66, 56
1, 189147, Control_c, 0, 64, 58
1, 189149, Note_off_c, 0, 59, 61
1, 189161, Control_c, 0, 64, 57
1, 189174, Note_off_c, 0, 73, 62
1, 189176, Control_c, 0, 64, 56
1, 189191, Control_c, 0, 64, 56
1, 189207, Control_c, 0, 64, 55
1, 189211, Note_on_c, 0, 71, 55
1, 189237, Control_c, 0, 64, 54
1, 189252, Control_c, 0, 64, 53
1, 189266, Control_c, 0, 64, 53
1, 189281, Control_c, 0, 64, 52
1, 189296, Control_c, 0, 64, 52
1, 189310, Control_c, 0, 64, 51
1, 189325, Control_c, 0, 64, 51
1, 189341, Note_on_c, 0, 80, 59
1, 189344, Note_on_c, 0, 59, 36
1, 189352, Note_on_c, 0, 64, 34
1, 189355, Control_c, 0, 64, 50
1, 189356, Note_on_c, 0, 68, 27
1, 189380, Note_off_c, 0, 71, 36
1, 189384, Control_c, 0, 64, 50
1, 189396, Note_off_c, 0, 59, 56
1, 189398, Note_off_c, 0, 64, 56
1, 189398, Note_off_c, 0, 68, 48
1, 189414, Control_c, 0, 64, 49
1, 189444, Control_c, 0, 64, 49
1, 189473, Control_c, 0, 64, 48
1, 189516, Note_on_c, 0, 68, 45
1, 189524, Note_on_c, 0, 59, 43
1, 189529, Note_on_c, 0, 64, 33
1, 189566, Note_off_c, 0, 68, 57
1, 189570, Note_off_c, 0, 59, 59
1, 189573, Note_off_c, 0, 64, 50
1, 189697, Note_on_c, 0, 68, 52
1, 189705, Note_on_c, 0, 59, 39
1, 189709, Note_on_c, 0, 64, 34
1, 189741, Note_off_c, 0, 68, 56
1, 189749, Note_off_c, 0, 64, 58
1, 189750, Note_off_c, 0, 59, 60
1, 189860, Note_on_c, 0, 59, 48
1, 189860, Note_on_c, 0, 64, 41
1, 189863, Note_on_c, 0, 68, 42
1, 189890, Note_off_c, 0, 68, 55
1, 189890, Note_off_c, 0, 64, 60
1, 189895, Note_off_c, 0, 59, 63
1, 189918, Note_off_c, 0, 80, 56
1, 189970, Control_c, 0, 64, 49
1, 190015, Control_c, 0, 64, 49
1, 190027, Note_on_c, 0, 78, 61
1, 190032, Note_on_c, 0, 66, 48
1, 190033, Note_on_c, 0, 59, 34
1, 190039, Note_on_c, 0, 63, 46
1, 190068, Note_off_c, 0, 66, 56
1, 190076, Note_off_c, 0, 59, 59
1, 190077, Note_off_c, 0, 63, 62
1, 190183, Note_on_c, 0, 63, 47
1, 190184, Note_on_c, 0, 59, 48
1, 190188, Note_on_c, 0, 66, 41
1, 190207, Control_c, 0, 64, 50
1, 190219, Note_off_c, 0, 59, 59
1, 190222, Note_off_c, 0, 63, 62
1, 190222, Note_off_c, 0, 66, 52
1, 190318, Note_off_c, 0, 78, 60
1, 190346, Note_on_c, 0, 66, 50
1, 190348, Note_on_c, 0, 76, 58
1, 190351, Note_on_c, 0, 63, 41
1, 190365, Note_on_c, 0, 59, 34
1, 190392, Note_off_c, 0, 76, 62
1, 190397, Note_off_c, 0, 66, 60
1, 190402, Note_off_c, 0, 63, 60
1, 190404, Note_off_c, 0, 59, 57
1, 190445, Note_on_c, 0, 75, 60
1, 190500, Note_on_c, 0, 59, 48
1, 190507, Note_on_c, 0, 66, 46
1, 190511, Note_on_c, 0, 63, 44
1, 190519, Note_on_c, 0, 73, 64
1, 190522, Note_off_c, 0, 75, 60
1, 190535, Note_off_c, 0, 66, 57
1, 190537, Note_off_c, 0, 63, 60
1, 190540, Control_c, 0, 64, 49
1, 190543, Note_off_c, 0, 59, 60
1, 190583, Note_off_c, 0, 73, 62
1, 190603, Note_on_c, 0, 71, 60
1, 190667, Note_off_c, 0, 71, 48
1, 190690, Note_on_c, 0, 66, 35
1, 190694, Note_on_c, 0, 59, 30
1, 190709, Note_on_c, 0, 64, 36
1, 190715, Note_on_c, 0, 73, 48
1, 190718, Control_c, 0, 64, 49
1, 190720, Note_on_c, 0, 70, 48
1, 190738, Note_off_c, 0, 59, 50
1, 190741, Note_off_c, 0, 66, 50
1, 190746, Note_off_c, 0, 64, 57
1, 190856, Note_on_c, 0, 66, 47
1, 190868, Note_on_c, 0, 64, 37
1, 190869, Note_on_c, 0, 59, 38
1, 190910, Note_off_c, 0, 66, 56
1, 190914, Note_off_c, 0, 64, 60
1, 190917, Note_off_c, 0, 59, 58
1, 190927, Control_c, 0, 64, 48
1, 191043, Note_on_c, 0, 59, 39
1, 191047, Note_on_c, 0, 66, 39
1, 191053, Note_on_c, 0, 64, 35
1, 191089, Note_off_c, 0, 66, 50
1, 191094, Note_off_c, 0, 59, 59
1, 191096, Note_off_c, 0, 64, 53
1, 191167, Note_off_c, 0, 70, 63
1, 191193, Note_off_c, 0, 73, 63
1, 191207, Note_on_c, 0, 66, 49
1, 191216, Note_on_c, 0, 64, 46
1, 191216, Control_c, 0, 64, 49
1, 191217, Note_on_c, 0, 59, 48
1, 191254, Note_off_c, 0, 64, 63
1, 191256, Note_off_c, 0, 66, 57
1, 191260, Note_off_c, 0, 59, 60
1, 191305, Control_c, 0, 64, 48
1, 191320, Control_c, 0, 64, 46
1, 191335, Control_c, 0, 64, 40
1, 191350, Control_c, 0, 64, 29
1, 191364, Control_c, 0, 64, 0
1, 191378, Note_on_c, 0, 75, 58
1, 191389, Note_on_c, 0, 71, 45
1, 191392, Note_on_c, 0, 59, 36
1, 191393, Note_on_c, 0, 66, 41
1, 191394, Control_c, 0, 64, 30
1, 191409, Note_on_c, 0, 63, 39
1, 191409, Control_c, 0, 64, 39
1, 191424, Control_c, 0, 64, 47
1, 191438, Control_c, 0, 64, 54
1, 191439, Note_off_c, 0, 66, 48
1, 191440, Note_off_c, 0, 63, 56
1, 191442, Note_off_c, 0, 59, 54
1, 191453, Control_c, 0, 64, 59
1, 191468, Control_c, 0, 64, 62
1, 191482, Control_c, 0, 64, 65
1, 191497, Control_c, 0, 64, 69
1, 191512, Control_c, 0, 64, 72
1, 191527, Note_off_c, 0, 71, 36
1, 191527, Control_c, 0, 64, 74
1, 191542, Control_c, 0, 64, 76
1, 191549, Note_on_c, 0, 63, 50
1, 191556, Note_on_c, 0, 66, 23
1, 191556, Control_c, 0, 64, 77
1, 191571, Control_c, 0, 64, 79
1, 191573, Note_on_c, 0, 59, 27
1, 191575, Note_off_c, 0, 63, 57
1, 191586, Control_c, 0, 64, 80
1, 191595, Note_off_c, 0, 66, 55
1, 191602, Control_c, 0, 64, 80
1, 191607, Note_off_c, 0, 59, 56
1, 191691, Control_c, 0, 64, 80
1, 191705, Control_c, 0, 64, 77
1, 191716, Note_off_c, 0, 75, 38
1, 191719, Note_on_c, 0, 59, 45
1, 191720, Control_c, 0, 64, 70
1, 191726, Note_on_c, 0, 76, 58
1, 191734, Note_on_c, 0, 71, 47
1, 191735, Control_c, 0, 64, 62
1, 191750, Control_c, 0, 64, 52
1, 191752, Note_on_c, 0, 64, 34
1, 191759, Note_on_c, 0, 67, 19
1, 191765, Control_c, 0, 64, 48
1, 191776, Note_off_c, 0, 59, 59
1, 191780, Control_c, 0, 64, 49
1, 191786, Note_off_c, 0, 64, 54
1, 191794, Control_c, 0, 64, 55
1, 191800, Note_off_c, 0, 67, 42
1, 191803, Note_off_c, 0, 76, 58
1, 191808, Note_on_c, 0, 78, 65
1, 191809, Control_c, 0, 64, 59
1, 191816, Note_off_c, 0, 71, 58
1, 191824, Control_c, 0, 64, 63
1, 191839, Control_c, 0, 64, 67
1, 191854, Control_c, 0, 64, 71
1, 191869, Control_c, 0, 64, 73
1, 191884, Note_off_c, 0, 78, 60
1, 191891, Control_c, 0, 64, 74
1, 191898, Note_on_c, 0, 79, 63
1, 191899, Note_on_c, 0, 59, 52
1, 191902, Note_on_c, 0, 64, 46
1, 191903, Note_on_c, 0, 67, 52
1, 191905, Control_c, 0, 64, 75
1, 191920, Control_c, 0, 64, 76
1, 191933, Note_off_c, 0, 64, 58
1, 191935, Control_c, 0, 64, 77
1, 191939, Note_off_c, 0, 67, 63
1, 191942, Note_off_c, 0, 59, 60
1, 191966, Note_off_c, 0, 79, 63
1, 191971, Note_on_c, 0, 76, 65
1, 191994, Control_c, 0, 64, 77
1, 192024, Control_c, 0, 64, 77
1, 192039, Control_c, 0, 64, 76
1, 192054, Control_c, 0, 64, 71
1, 192058, Note_off_c, 0, 76, 62
1, 192066, Note_on_c, 0, 71, 62
1, 192068, Note_on_c, 0, 75, 71
1, 192069, Control_c, 0, 64, 63
1, 192084, Note_on_c, 0, 66, 48
1, 192084, Control_c, 0, 64, 53
1, 192085, Note_on_c, 0, 59, 41
1, 192087, Note_on_c, 0, 69, 42
1, 192098, Control_c, 0, 64, 49
1, 192113, Control_c, 0, 64, 53
1, 192113, Note_off_c, 0, 69, 57
1, 192116, Note_off_c, 0, 66, 63
1, 192122, Note_off_c, 0, 59, 56
1, 192128, Control_c, 0, 64, 59
1, 192128, Control_c, 0, 67, 124
1, 192143, Control_c, 0, 64, 63
1, 192143, Control_c, 0, 67, 109
1, 192158, Control_c, 0, 64, 66
1, 192158, Control_c, 0, 67, 98
1, 192173, Control_c, 0, 64, 69
1, 192173, Control_c, 0, 67, 90
1, 192187, Control_c, 0, 64, 73
1, 192187, Control_c, 0, 67, 86
1, 192202, Control_c, 0, 64, 76
1, 192202, Control_c, 0, 67, 83
1, 192217, Control_c, 0, 64, 79
1, 192217, Control_c, 0, 67, 80
1, 192222, Note_on_c, 0, 66, 52
1, 192222, Note_on_c, 0, 69, 48
1, 192230, Note_on_c, 0, 59, 52
1, 192231, Control_c, 0, 64, 81
1, 192246, Control_c, 0, 64, 82
1, 192246, Control_c, 0, 67, 80
1, 192256, Note_off_c, 0, 71, 54
1, 192259, Note_off_c, 0, 69, 62
1, 192261, Control_c, 0, 64, 83
1, 192261, Control_c, 0, 67, 81
1, 192262, Note_off_c, 0, 66, 63
1, 192271, Note_off_c, 0, 59, 60
1, 192276, Control_c, 0, 64, 84
1, 192276, Control_c, 0, 67, 82
1, 192291, Note_off_c, 0, 75, 61
1, 192291, Control_c, 0, 64, 84
1, 192291, Control_c, 0, 67, 82
1, 192305, Control_c, 0, 67, 83
1, 192320, Control_c, 0, 67, 84
1, 192335, Control_c, 0, 67, 86
1, 192350, Control_c, 0, 67, 87
1, 192365, Control_c, 0, 64, 82
1, 192365, Control_c, 0, 67, 88
1, 192379, Control_c, 0, 64, 76
1, 192379, Control_c, 0, 67, 90
1, 192395, Control_c, 0, 64, 66
1, 192395, Control_c, 0, 67, 91
1, 192401, Note_on_c, 0, 76, 66
1, 192410, Control_c, 0, 64, 55
1, 192410, Control_c, 0, 67, 93
1, 192414, Note_on_c, 0, 59, 41
1, 192417, Note_on_c, 0, 71, 37
1, 192419, Note_on_c, 0, 67, 40
1, 192425, Control_c, 0, 64, 52
1, 192425, Control_c, 0, 67, 94
1, 192426, Note_on_c, 0, 64, 38
1, 192440, Control_c, 0, 64, 55
1, 192453, Note_off_c, 0, 67, 51
1, 192455, Control_c, 0, 64, 59
1, 192455, Control_c, 0, 67, 94
1, 192456, Note_off_c, 0, 59, 60
1, 192460, Note_off_c, 0, 64, 53
1, 192469, Control_c, 0, 64, 62
1, 192484, Control_c, 0, 64, 66
1, 192489, Note_on_c, 0, 78, 67
1, 192497, Note_off_c, 0, 76, 51
1, 192499, Control_c, 0, 64, 70
1, 192502, Note_off_c, 0, 71, 37
1, 192514, Control_c, 0, 64, 74
1, 192528, Control_c, 0, 64, 75
1, 192543, Control_c, 0, 64, 76
1, 192543, Control_c, 0, 67, 94
1, 192558, Control_c, 0, 64, 77
1, 192558, Control_c, 0, 67, 93
1, 192561, Note_off_c, 0, 78, 61
1, 192566, Note_on_c, 0, 64, 47
1, 192566, Note_on_c, 0, 79, 69
1, 192569, Note_on_c, 0, 59, 46
1, 192572, Note_on_c, 0, 67, 43
1, 192573, Control_c, 0, 64, 77
1, 192573, Control_c, 0, 67, 93
1, 192588, Control_c, 0, 64, 78
1, 192588, Control_c, 0, 67, 91
1, 192602, Control_c, 0, 64, 78
1, 192602, Control_c, 0, 67, 91
1, 192605, Note_off_c, 0, 67, 53
1, 192608, Note_off_c, 0, 64, 62
1, 192612, Note_off_c, 0, 59, 54
1, 192625, Control_c, 0, 64, 79
1, 192625, Control_c, 0, 67, 90
1, 192640, Control_c, 0, 67, 89
1, 192653, Note_off_c, 0, 79, 63
1, 192653, Note_on_c, 0, 76, 67
1, 192655, Control_c, 0, 67, 88
1, 192670, Control_c, 0, 67, 87
1, 192684, Control_c, 0, 64, 76
1, 192684, Control_c, 0, 67, 86
1, 192698, Control_c, 0, 64, 69
1, 192698, Control_c, 0, 67, 83
1, 192713, Control_c, 0, 64, 57
1, 192713, Control_c, 0, 67, 82
1, 192727, Control_c, 0, 64, 37
1, 192727, Control_c, 0, 67, 80
1, 192742, Control_c, 0, 64, 0
1, 192742, Control_c, 0, 67, 77
1, 192745, Note_on_c, 0, 75, 75
1, 192749, Note_off_c, 0, 76, 62
1, 192751, Note_on_c, 0, 59, 48
1, 192751, Note_on_c, 0, 71, 61
1, 192757, Control_c, 0, 64, 34
1, 192757, Control_c, 0, 67, 73
1, 192772, Control_c, 0, 64, 47
1, 192772, Control_c, 0, 67, 53
1, 192775, Note_on_c, 0, 66, 44
1, 192775, Note_on_c, 0, 69, 35
1, 192787, Control_c, 0, 64, 58
1, 192787, Control_c, 0, 67, 0
1, 192802, Control_c, 0, 64, 64
1, 192806, Note_off_c, 0, 59, 54
1, 192816, Note_off_c, 0, 69, 50
1, 192817, Control_c, 0, 64, 69
1, 192817, Note_off_c, 0, 66, 62
1, 192832, Control_c, 0, 64, 73
1, 192847, Control_c, 0, 64, 76
1, 192855, Note_off_c, 0, 71, 61
1, 192861, Control_c, 0, 64, 81
1, 192876, Control_c, 0, 64, 86
1, 192882, Note_off_c, 0, 75, 64
1, 192891, Control_c, 0, 64, 91
1, 192906, Control_c, 0, 64, 95
1, 192921, Control_c, 0, 64, 98
1, 192924, Note_on_c, 0, 69, 40
1, 192924, Note_on_c, 0, 66, 45
1, 192935, Control_c, 0, 64, 101
1, 192939, Note_on_c, 0, 59, 41
1, 192950, Control_c, 0, 64, 103
1, 192956, Note_off_c, 0, 69, 53
1, 192960, Note_off_c, 0, 66, 50
1, 192968, Note_off_c, 0, 59, 55
1, 192980, Control_c, 0, 64, 106
1, 193039, Control_c, 0, 64, 93
1, 193053, Control_c, 0, 64, 77
1, 193068, Control_c, 0, 64, 65
1, 193083, Control_c, 0, 64, 58
1, 193084, Note_on_c, 0, 81, 67
1, 193093, Note_on_c, 0, 59, 40
1, 193098, Control_c, 0, 64, 60
1, 193102, Note_on_c, 0, 66, 37
1, 193108, Note_on_c, 0, 69, 36
1, 193113, Control_c, 0, 64, 64
1, 193127, Control_c, 0, 64, 70
1, 193133, Note_on_c, 0, 75, 39
1, 193141, Note_off_c, 0, 66, 54
1, 193142, Control_c, 0, 64, 74
1, 193142, Control_c, 0, 67, 37
1, 193143, Note_off_c, 0, 59, 56
1, 193148, Note_off_c, 0, 69, 49
1, 193157, Control_c, 0, 64, 78
1, 193157, Control_c, 0, 67, 54
1, 193164, Note_on_c, 0, 83, 77
1, 193172, Control_c, 0, 64, 82
1, 193172, Control_c, 0, 67, 64
1, 193187, Control_c, 0, 64, 86
1, 193187, Control_c, 0, 67, 73
1, 193203, Control_c, 0, 64, 89
1, 193203, Control_c, 0, 67, 84
1, 193208, Note_off_c, 0, 81, 63
1, 193217, Control_c, 0, 64, 93
1, 193217, Control_c, 0, 67, 101
1, 193232, Control_c, 0, 64, 96
1, 193232, Control_c, 0, 67, 113
1, 193237, Note_off_c, 0, 75, 41
1, 193244, Note_on_c, 0, 84, 77
1, 193247, Control_c, 0, 67, 116
1, 193257, Note_off_c, 0, 83, 63
1, 193262, Note_on_c, 0, 59, 49
1, 193268, Note_on_c, 0, 69, 27
1, 193273, Note_on_c, 0, 66, 35
1, 193276, Control_c, 0, 67, 119
1, 193287, Note_off_c, 0, 59, 60
1, 193303, Note_off_c, 0, 69, 55
1, 193306, Note_off_c, 0, 66, 50
1, 193330, Note_on_c, 0, 81, 75
1, 193339, Note_off_c, 0, 84, 63
1, 193373, Control_c, 0, 67, 121
1, 193388, Control_c, 0, 64, 95
1, 193403, Control_c, 0, 64, 90
1, 193418, Control_c, 0, 64, 81
1, 193431, Note_off_c, 0, 81, 61
1, 193432, Control_c, 0, 64, 68
1, 193432, Control_c, 0, 67, 124
1, 193433, Note_on_c, 0, 79, 73
1, 193447, Control_c, 0, 64, 56
1, 193449, Note_on_c, 0, 60, 52
1, 193458, Note_on_c, 0, 76, 60
1, 193462, Control_c, 0, 64, 40
1, 193462, Control_c, 0, 67, 127
1, 193469, Note_on_c, 0, 67, 35
1, 193476, Control_c, 0, 64, 30
1, 193491, Control_c, 0, 64, 35
1, 193493, Note_off_c, 0, 60, 62
1, 193504, Note_off_c, 0, 67, 52
1, 193506, Control_c, 0, 64, 47
1, 193511, Poly_aftertouch_c, 0, 64, 127
1, 193521, Control_c, 0, 64, 57
1, 193536, Control_c, 0, 64, 64
1, 193542, Poly_aftertouch_c, 0, 64, 0
1, 193550, Control_c, 0, 64, 67
1, 193565, Control_c, 0, 64, 71
1, 193580, Control_c, 0, 64, 74
1, 193595, Control_c, 0, 64, 76
1, 193604, Note_on_c, 0, 67, 51
1, 193610, Control_c, 0, 64, 78
1, 193617, Note_off_c, 0, 76, 0
1, 193620, Note_on_c, 0, 60, 39
1, 193625, Control_c, 0, 64, 80
1, 193625, Note_on_c, 0, 64, 25
1, 193640, Control_c, 0, 64, 80
1, 193644, Note_off_c, 0, 67, 60
1, 193650, Note_off_c, 0, 60, 53
1, 193654, Poly_aftertouch_c, 0, 76, 127
1, 193656, Note_off_c, 0, 79, 60
1, 193665, Note_off_c, 0, 64, 55
1, 193758, Control_c, 0, 64, 80
1, 193773, Control_c, 0, 64, 78
1, 193777, Note_on_c, 0, 79, 57
1, 193788, Control_c, 0, 64, 72
1, 193798, Note_on_c, 0, 71, 57
1, 193800, Note_on_c, 0, 77, 50
1, 193803, Control_c, 0, 64, 63
1, 193805, Note_on_c, 0, 67, 37
1, 193806, Poly_aftertouch_c, 0, 76, 0
1, 193808, Note_on_c, 0, 62, 39
1, 193818, Control_c, 0, 64, 46
1, 193832, Control_c, 0, 64, 0
1, 193841, Note_off_c, 0, 62, 54
1, 193843, Note_off_c, 0, 67, 49
1, 193876, Control_c, 0, 64, 31
1, 193891, Control_c, 0, 64, 48
1, 193893, Poly_aftertouch_c, 0, 65, 0
1, 193906, Control_c, 0, 64, 60
1, 193911, Note_off_c, 0, 77, 51
1, 193921, Control_c, 0, 64, 65
1, 193936, Control_c, 0, 64, 67
1, 193937, Note_off_c, 0, 79, 55
1, 193946, Note_on_c, 0, 62, 46
1, 193950, Control_c, 0, 64, 70
1, 193960, Note_on_c, 0, 67, 38
1, 193965, Control_c, 0, 64, 71
1, 193977, Note_on_c, 0, 65, 20
1, 193980, Control_c, 0, 64, 73
1, 193986, Note_off_c, 0, 62, 61
1, 193994, Note_off_c, 0, 67, 53
1, 193996, Control_c, 0, 64, 74
1, 194011, Control_c, 0, 64, 75
1, 194020, Note_off_c, 0, 65, 44
1, 194026, Control_c, 0, 64, 75
1, 194114, Control_c, 0, 64, 75
1, 194137, Control_c, 0, 64, 74
1, 194143, Note_on_c, 0, 79, 41
1, 194146, Note_off_c, 0, 71, 34
1, 194149, Note_on_c, 0, 72, 47
1, 194152, Control_c, 0, 64, 67
1, 194154, Note_on_c, 0, 76, 45
1, 194155, Note_on_c, 0, 60, 45
1, 194161, Note_on_c, 0, 67, 22
1, 194167, Control_c, 0, 64, 53
1, 194179, Note_on_c, 0, 64, 13
1, 194181, Control_c, 0, 64, 0
1, 194193, Note_off_c, 0, 60, 54
1, 194203, Note_off_c, 0, 67, 50
1, 194225, Note_off_c, 0, 64, 40
1, 194255, Control_c, 0, 64, 29
1, 194255, Control_c, 0, 67, 125
1, 194270, Control_c, 0, 64, 40
1, 194285, Control_c, 0, 64, 50
1, 194299, Control_c, 0, 64, 57
1, 194311, Note_on_c, 0, 67, 38
1, 194314, Control_c, 0, 64, 61
1, 194322, Note_on_c, 0, 60, 28
1, 194329, Control_c, 0, 64, 63
1, 194340, Note_on_c, 0, 64, 22
1, 194344, Control_c, 0, 64, 64
1, 194352, Note_off_c, 0, 67, 48
1, 194359, Control_c, 0, 64, 65
1, 194361, Note_off_c, 0, 60, 53
1, 194373, Control_c, 0, 64, 66
1, 194380, Note_off_c, 0, 64, 43
1, 194388, Control_c, 0, 64, 67
1, 194388, Control_c, 0, 67, 127
1, 194480, Note_on_c, 0, 60, 39
1, 194492, Note_on_c, 0, 64, 38
1, 194494, Note_on_c, 0, 67, 22
1, 194522, Note_off_c, 0, 60, 47
1, 194528, Note_off_c, 0, 64, 50
1, 194540, Note_off_c, 0, 67, 50
1, 194640, Control_c, 0, 64, 66
1, 194650, Note_on_c, 0, 60, 28
1, 194651, Note_on_c, 0, 67, 30
1, 194659, Note_on_c, 0, 64, 20
1, 194670, Control_c, 0, 64, 66
1, 194670, Control_c, 0, 67, 125
1, 194692, Note_off_c, 0, 60, 50
1, 194696, Note_off_c, 0, 67, 48
1, 194699, Control_c, 0, 64, 65
1, 194700, Note_off_c, 0, 64, 52
1, 194714, Control_c, 0, 67, 121
1, 194728, Note_off_c, 0, 79, 46
1, 194730, Note_off_c, 0, 76, 32
1, 194737, Note_off_c, 0, 72, 37
1, 194744, Control_c, 0, 67, 117
1, 194759, Control_c, 0, 64, 65
1, 194759, Control_c, 0, 67, 110
1, 194773, Control_c, 0, 67, 94
1, 194788, Control_c, 0, 64, 64
1, 194788, Control_c, 0, 67, 68
1, 194804, Control_c, 0, 64, 61
1, 194804, Control_c, 0, 67, 34
1, 194819, Control_c, 0, 64, 54
1, 194819, Control_c, 0, 67, 0
1, 194823, Note_on_c, 0, 60, 31
1, 194829, Note_on_c, 0, 67, 21
1, 194831, Note_on_c, 0, 64, 23
1, 194834, Control_c, 0, 64, 42
1, 194849, Control_c, 0, 64, 0
1, 194859, Note_off_c, 0, 60, 53
1, 194878, Note_off_c, 0, 64, 48
1, 194880, Note_off_c, 0, 67, 51
1, 194981, Note_on_c, 0, 60, 33
1, 194994, Note_on_c, 0, 64, 31
1, 194995, Note_on_c, 0, 67, 34
1, 195033, Note_off_c, 0, 60, 46
1, 195036, Note_off_c, 0, 64, 50
1, 195044, Note_off_c, 0, 67, 46
1, 195154, Note_on_c, 0, 64, 36
1, 195155, Note_on_c, 0, 67, 44
1, 195156, Note_on_c, 0, 60, 42
1, 195199, Note_off_c, 0, 60, 55
1, 195203, Note_off_c, 0, 67, 55
1, 195208, Note_off_c, 0, 64, 47
1, 195331, Note_on_c, 0, 60, 34
1, 195333, Note_on_c, 0, 67, 31
1, 195335, Note_on_c, 0, 64, 24
1, 195372, Note_off_c, 0, 60, 49
1, 195374, Note_off_c, 0, 67, 51
1, 195375, Note_off_c, 0, 64, 53
1, 195449, Control_c, 0, 64, 36
1, 195464, Control_c, 0, 64, 42
1, 195479, Control_c, 0, 64, 47
1, 195494, Control_c, 0, 64, 53
1, 195508, Note_on_c, 0, 91, 69
1, 195509, Control_c, 0, 64, 59
1, 195523, Control_c, 0, 64, 61
1, 195524, Note_on_c, 0, 60, 34
1, 195537, Note_on_c, 0, 64, 23
1, 195538, Control_c, 0, 64, 61
1, 195539, Note_on_c, 0, 67, 21
1, 195553, Control_c, 0, 64, 62
1, 195568, Control_c, 0, 64, 64
1, 195583, Control_c, 0, 64, 69
1, 195589, Note_off_c, 0, 60, 53
1, 195589, Note_off_c, 0, 64, 47
1, 195597, Note_off_c, 0, 67, 44
1, 195598, Control_c, 0, 64, 73
1, 195613, Control_c, 0, 64, 75
1, 195635, Control_c, 0, 64, 76
1, 195650, Control_c, 0, 64, 77
1, 195665, Control_c, 0, 64, 80
1, 195679, Control_c, 0, 64, 84
1, 195685, Note_on_c, 0, 60, 37
1, 195690, Note_on_c, 0, 67, 43
1, 195694, Control_c, 0, 64, 87
1, 195701, Note_on_c, 0, 64, 45
1, 195709, Control_c, 0, 64, 88
1, 195724, Control_c, 0, 64, 88
1, 195738, Note_off_c, 0, 64, 54
1, 195739, Control_c, 0, 64, 89
1, 195745, Note_off_c, 0, 67, 53
1, 195750, Note_off_c, 0, 60, 54
1, 195783, Control_c, 0, 67, 54
1, 195798, Control_c, 0, 67, 88
1, 195813, Control_c, 0, 67, 110
1, 195828, Control_c, 0, 67, 121
1, 195842, Control_c, 0, 67, 127
1, 195863, Note_on_c, 0, 89, 73
1, 195875, Note_on_c, 0, 60, 50
1, 195882, Note_on_c, 0, 64, 28
1, 195883, Note_on_c, 0, 67, 39
1, 195916, Note_off_c, 0, 60, 59
1, 195916, Note_off_c, 0, 91, 64
1, 195919, Note_off_c, 0, 67, 51
1, 195923, Note_off_c, 0, 64, 51
1, 195940, Note_on_c, 0, 88, 79
1, 195986, Note_off_c, 0, 89, 59
1, 196022, Note_on_c, 0, 86, 77
1, 196034, Note_on_c, 0, 64, 39
1, 196040, Note_on_c, 0, 67, 31
1, 196042, Note_on_c, 0, 60, 38
1, 196048, Note_off_c, 0, 88, 64
1, 196063, Note_off_c, 0, 64, 56
1, 196074, Note_off_c, 0, 60, 54
1, 196076, Note_off_c, 0, 67, 55
1, 196097, Note_on_c, 0, 84, 72
1, 196100, Note_off_c, 0, 86, 64
1, 196139, Control_c, 0, 64, 88
1, 196198, Control_c, 0, 64, 86
1, 196211, Note_on_c, 0, 93, 78
1, 196212, Control_c, 0, 64, 78
1, 196217, Note_off_c, 0, 84, 58
1, 196227, Note_on_c, 0, 60, 32
1, 196227, Control_c, 0, 64, 67
1, 196233, Note_on_c, 0, 69, 36
1, 196242, Control_c, 0, 64, 56
1, 196249, Note_on_c, 0, 65, 30
1, 196257, Control_c, 0, 64, 50
1, 196272, Control_c, 0, 64, 51
1, 196277, Note_off_c, 0, 69, 47
1, 196281, Note_off_c, 0, 60, 49
1, 196283, Note_off_c, 0, 65, 52
1, 196287, Control_c, 0, 64, 55
1, 196298, Note_on_c, 0, 91, 75
1, 196302, Control_c, 0, 64, 59
1, 196316, Control_c, 0, 64, 62
1, 196331, Control_c, 0, 64, 65
1, 196344, Note_off_c, 0, 93, 60
1, 196346, Control_c, 0, 64, 71
1, 196368, Control_c, 0, 64, 74
1, 196383, Control_c, 0, 64, 75
1, 196394, Note_on_c, 0, 89, 75
1, 196395, Note_on_c, 0, 69, 42
1, 196399, Note_on_c, 0, 65, 44
1, 196400, Note_on_c, 0, 60, 49
1, 196414, Control_c, 0, 64, 76
1, 196429, Note_off_c, 0, 69, 52
1, 196429, Control_c, 0, 64, 77
1, 196433, Note_off_c, 0, 65, 51
1, 196433, Note_off_c, 0, 60, 56
1, 196443, Control_c, 0, 64, 79
1, 196444, Note_off_c, 0, 91, 63
1, 196457, Control_c, 0, 64, 80
1, 196472, Note_on_c, 0, 88, 82
1, 196472, Control_c, 0, 64, 81
1, 196501, Control_c, 0, 64, 81
1, 196505, Note_off_c, 0, 89, 64
1, 196546, Note_on_c, 0, 60, 54
1, 196547, Note_on_c, 0, 69, 48
1, 196548, Note_off_c, 0, 88, 66
1, 196549, Note_on_c, 0, 86, 84
1, 196557, Note_on_c, 0, 65, 38
1, 196589, Note_off_c, 0, 69, 59
1, 196594, Note_off_c, 0, 65, 51
1, 196597, Note_off_c, 0, 60, 59
1, 196629, Note_on_c, 0, 84, 81
1, 196635, Control_c, 0, 64, 81
1, 196650, Control_c, 0, 67, 123
1, 196665, Control_c, 0, 67, 117
1, 196666, Note_off_c, 0, 86, 30
1, 196680, Control_c, 0, 67, 101
1, 196694, Control_c, 0, 64, 80
1, 196694, Control_c, 0, 67, 74
1, 196703, Note_on_c, 0, 69, 53
1, 196705, Note_on_c, 0, 65, 45
1, 196709, Control_c, 0, 67, 42
1, 196710, Note_on_c, 0, 83, 84
1, 196717, Note_on_c, 0, 60, 49
1, 196724, Control_c, 0, 67, 0
1, 196735, Note_off_c, 0, 69, 65
1, 196739, Control_c, 0, 64, 80
1, 196747, Note_off_c, 0, 65, 61
1, 196748, Note_off_c, 0, 60, 60
1, 196750, Note_off_c, 0, 84, 62
1, 196754, Control_c, 0, 64, 79
1, 196768, Control_c, 0, 64, 79
1, 196783, Control_c, 0, 64, 78
1, 196787, Note_on_c, 0, 81, 82
1, 196798, Control_c, 0, 64, 78
1, 196813, Control_c, 0, 64, 77
1, 196815, Note_off_c, 0, 83, 63
1, 196827, Control_c, 0, 64, 76
1, 196842, Control_c, 0, 64, 75
1, 196857, Control_c, 0, 64, 74
1, 196872, Control_c, 0, 64, 73
1, 196887, Control_c, 0, 64, 71
1, 196889, Note_off_c, 0, 81, 63
1, 196891, Note_on_c, 0, 79, 74
1, 196892, Note_on_c, 0, 60, 42
1, 196901, Control_c, 0, 64, 64
1, 196909, Note_on_c, 0, 64, 42
1, 196916, Control_c, 0, 64, 54
1, 196917, Note_on_c, 0, 67, 31
1, 196931, Control_c, 0, 64, 39
1, 196945, Note_off_c, 0, 64, 55
1, 196946, Control_c, 0, 64, 0
1, 196947, Note_off_c, 0, 60, 58
1, 196953, Note_off_c, 0, 67, 51
1, 196990, Control_c, 0, 64, 31
1, 197005, Control_c, 0, 64, 48
1, 197020, Control_c, 0, 64, 59
1, 197035, Control_c, 0, 64, 64
1, 197047, Note_on_c, 0, 67, 54
1, 197050, Note_on_c, 0, 64, 48
1, 197050, Control_c, 0, 64, 66
1, 197059, Note_on_c, 0, 60, 50
1, 197065, Control_c, 0, 64, 69
1, 197080, Control_c, 0, 64, 71
1, 197089, Note_off_c, 0, 67, 59
1, 197091, Note_off_c, 0, 64, 61
1, 197094, Control_c, 0, 64, 73
1, 197096, Note_off_c, 0, 60, 63
1, 197109, Control_c, 0, 64, 76
1, 197131, Control_c, 0, 64, 78
1, 197146, Control_c, 0, 64, 80
1, 197161, Control_c, 0, 64, 81
1, 197175, Control_c, 0, 64, 82
1, 197206, Control_c, 0, 64, 82
1, 197211, Note_off_c, 0, 79, 49
1, 197226, Note_on_c, 0, 77, 71
1, 197236, Control_c, 0, 64, 83
1, 197238, Note_on_c, 0, 60, 45
1, 197247, Note_on_c, 0, 64, 44
1, 197268, Note_on_c, 0, 67, 22
1, 197284, Note_off_c, 0, 64, 57
1, 197285, Note_off_c, 0, 60, 55
1, 197295, Control_c, 0, 64, 83
1, 197301, Note_on_c, 0, 76, 71
1, 197310, Note_off_c, 0, 67, 53
1, 197313, Note_off_c, 0, 77, 61
1, 197376, Note_on_c, 0, 74, 76
1, 197383, Note_off_c, 0, 76, 59
1, 197392, Note_on_c, 0, 64, 47
1, 197413, Note_on_c, 0, 67, 45
1, 197415, Note_on_c, 0, 60, 23
1, 197429, Note_off_c, 0, 64, 51
1, 197437, Note_off_c, 0, 74, 63
1, 197438, Note_off_c, 0, 67, 57
1, 197450, Note_on_c, 0, 72, 70
1, 197457, Note_off_c, 0, 60, 55
1, 197503, Control_c, 0, 64, 82
1, 197517, Control_c, 0, 64, 75
1, 197532, Control_c, 0, 64, 64
1, 197547, Note_off_c, 0, 72, 55
1, 197547, Control_c, 0, 64, 50
1, 197554, Note_on_c, 0, 74, 72
1, 197562, Control_c, 0, 64, 43
1, 197562, Note_on_c, 0, 60, 48
1, 197569, Note_on_c, 0, 71, 50
1, 197572, Note_on_c, 0, 67, 28
1, 197577, Control_c, 0, 64, 44
1, 197591, Control_c, 0, 64, 52
1, 197600, Note_off_c, 0, 71, 55
1, 197606, Control_c, 0, 64, 59
1, 197619, Note_off_c, 0, 60, 54
1, 197621, Note_off_c, 0, 67, 47
1, 197621, Control_c, 0, 64, 67
1, 197636, Control_c, 0, 64, 79
1, 197638, Note_on_c, 0, 76, 69
1, 197647, Note_off_c, 0, 74, 59
1, 197650, Control_c, 0, 64, 94
1, 197661, Poly_aftertouch_c, 0, 65, 0
1, 197665, Control_c, 0, 64, 97
1, 197680, Control_c, 0, 64, 91
1, 197695, Control_c, 0, 64, 80
1, 197706, Note_on_c, 0, 77, 74
1, 197710, Control_c, 0, 64, 71
1, 197712, Note_off_c, 0, 76, 63
1, 197721, Note_on_c, 0, 71, 43
1, 197724, Control_c, 0, 64, 67
1, 197729, Note_on_c, 0, 67, 45
1, 197739, Control_c, 0, 64, 68
1, 197740, Note_on_c, 0, 60, 45
1, 197754, Note_on_c, 0, 65, 33
1, 197754, Control_c, 0, 64, 69
1, 197759, Note_off_c, 0, 77, 64
1, 197760, Note_off_c, 0, 71, 54
1, 197762, Note_off_c, 0, 67, 57
1, 197778, Note_off_c, 0, 60, 62
1, 197789, Note_off_c, 0, 65, 48
1, 197794, Note_on_c, 0, 79, 77
1, 197813, Control_c, 0, 64, 70
1, 197828, Control_c, 0, 64, 72
1, 197843, Control_c, 0, 64, 76
1, 197858, Control_c, 0, 64, 79
1, 197873, Note_off_c, 0, 79, 54
1, 197880, Control_c, 0, 64, 80
1, 197881, Note_on_c, 0, 71, 55
1, 197884, Note_on_c, 0, 60, 53
1, 197887, Note_on_c, 0, 65, 52
1, 197890, Note_on_c, 0, 81, 78
1, 197895, Control_c, 0, 64, 82
1, 197897, Note_on_c, 0, 67, 44
1, 197910, Control_c, 0, 64, 83
1, 197924, Control_c, 0, 64, 83
1, 197932, Note_off_c, 0, 67, 53
1, 197935, Note_off_c, 0, 65, 54
1, 197940, Note_off_c, 0, 60, 53
1, 197941, Note_off_c, 0, 71, 50
1, 197968, Note_on_c, 0, 83, 83
1, 197972, Note_off_c, 0, 81, 64
1, 198019, Note_off_c, 0, 83, 64
1, 198049, Note_on_c, 0, 84, 84
1, 198052, Note_on_c, 0, 67, 51
1, 198056, Note_on_c, 0, 71, 60
1, 198065, Note_on_c, 0, 65, 50
1, 198071, Note_on_c, 0, 60, 52
1, 198074, Control_c, 0, 64, 83
1, 198084, Note_off_c, 0, 71, 62
1, 198089, Control_c, 0, 64, 82
1, 198093, Note_off_c, 0, 65, 57
1, 198101, Note_off_c, 0, 60, 55
1, 198107, Note_off_c, 0, 84, 62
1, 198116, Note_off_c, 0, 67, 55
1, 198119, Control_c, 0, 64, 81
1, 198125, Note_on_c, 0, 86, 86
1, 198134, Control_c, 0, 64, 81
1, 198148, Control_c, 0, 64, 80
1, 198163, Control_c, 0, 64, 80
1, 198178, Control_c, 0, 64, 78
1, 198193, Control_c, 0, 64, 73
1, 198207, Note_off_c, 0, 86, 57
1, 198208, Control_c, 0, 64, 64
1, 198222, Control_c, 0, 64, 48
1, 198224, Note_on_c, 0, 88, 78
1, 198230, Note_on_c, 0, 84, 74
1, 198236, Note_on_c, 0, 72, 54
1, 198237, Control_c, 0, 64, 0
1, 198244, Note_on_c, 0, 60, 50
1, 198247, Note_on_c, 0, 67, 49
1, 198265, Note_off_c, 0, 72, 64
1, 198280, Note_off_c, 0, 67, 65
1, 198281, Note_on_c, 0, 64, 11
1, 198281, Control_c, 0, 64, 38
1, 198295, Note_off_c, 0, 60, 62
1, 198296, Control_c, 0, 64, 55
1, 198311, Control_c, 0, 64, 64
1, 198326, Control_c, 0, 64, 69
1, 198329, Note_off_c, 0, 64, 45
1, 198340, Control_c, 0, 64, 74
1, 198355, Control_c, 0, 64, 80
1, 198368, Note_off_c, 0, 88, 65
1, 198370, Control_c, 0, 64, 87
1, 198385, Control_c, 0, 64, 95
1, 198400, Note_on_c, 0, 67, 49
1, 198400, Control_c, 0, 64, 102
1, 198415, Control_c, 0, 64, 110
1, 198423, Note_on_c, 0, 60, 38
1, 198424, Note_on_c, 0, 64, 46
1, 198430, Control_c, 0, 64, 127
1, 198433, Note_off_c, 0, 67, 60
1, 198439, Note_off_c, 0, 84, 62
1, 198453, Note_off_c, 0, 64, 58
1, 198456, Note_off_c, 0, 60, 53
1, 198563, Control_c, 0, 64, 101
1, 198566, Note_on_c, 0, 64, 46
1, 198568, Note_on_c, 0, 88, 66
1, 198573, Note_on_c, 0, 60, 46
1, 198574, Note_on_c, 0, 86, 72
1, 198577, Note_on_c, 0, 68, 56
1, 198578, Control_c, 0, 64, 79
1, 198592, Control_c, 0, 64, 64
1, 198607, Control_c, 0, 64, 52
1, 198622, Note_off_c, 0, 68, 61
1, 198630, Control_c, 0, 64, 48
1, 198632, Note_off_c, 0, 64, 63
1, 198645, Note_off_c, 0, 60, 53
1, 198645, Control_c, 0, 64, 55
1, 198659, Note_on_c, 0, 84, 73
1, 198659, Control_c, 0, 64, 62
1, 198669, Note_off_c, 0, 88, 61
1, 198674, Control_c, 0, 64, 68
1, 198689, Control_c, 0, 64, 76
1, 198691, Note_off_c, 0, 86, 62
1, 198704, Control_c, 0, 64, 84
1, 198719, Control_c, 0, 64, 89
1, 198731, Note_off_c, 0, 84, 62
1, 198734, Control_c, 0, 64, 93
1, 198734, Note_on_c, 0, 83, 74
1, 198741, Note_on_c, 0, 68, 59
1, 198748, Control_c, 0, 64, 98
1, 198753, Note_on_c, 0, 64, 51
1, 198757, Note_on_c, 0, 60, 50
1, 198763, Control_c, 0, 64, 102
1, 198774, Note_off_c, 0, 68, 65
1, 198778, Control_c, 0, 64, 106
1, 198789, Note_off_c, 0, 64, 62
1, 198794, Control_c, 0, 64, 108
1, 198800, Note_off_c, 0, 60, 51
1, 198806, Note_off_c, 0, 83, 59
1, 198808, Note_on_c, 0, 86, 75
1, 198838, Control_c, 0, 64, 110
1, 198883, Control_c, 0, 64, 107
1, 198897, Control_c, 0, 64, 93
1, 198898, Note_off_c, 0, 86, 55
1, 198911, Note_on_c, 0, 88, 74
1, 198912, Control_c, 0, 64, 73
1, 198913, Note_on_c, 0, 60, 55
1, 198913, Note_on_c, 0, 84, 74
1, 198917, Note_on_c, 0, 69, 62
1, 198919, Note_on_c, 0, 64, 49
1, 198927, Control_c, 0, 64, 57
1, 198942, Control_c, 0, 64, 32
1, 198957, Control_c, 0, 64, 0
1, 198962, Note_off_c, 0, 69, 53
1, 198964, Note_off_c, 0, 64, 59
1, 198971, Control_c, 0, 64, 32
1, 198985, Note_off_c, 0, 60, 57
1, 198986, Control_c, 0, 64, 48
1, 199001, Control_c, 0, 64, 60
1, 199015, Control_c, 0, 64, 67
1, 199030, Control_c, 0, 64, 73
1, 199045, Control_c, 0, 64, 79
1, 199060, Control_c, 0, 64, 85
1, 199075, Control_c, 0, 64, 92
1, 199077, Note_on_c, 0, 69, 66
1, 199083, Note_on_c, 0, 64, 55
1, 199089, Control_c, 0, 64, 98
1, 199098, Note_on_c, 0, 60, 47
1, 199104, Control_c, 0, 64, 105
1, 199105, Note_off_c, 0, 69, 63
1, 199119, Control_c, 0, 64, 111
1, 199125, Note_off_c, 0, 88, 58
1, 199131, Note_off_c, 0, 60, 60
1, 199131, Note_off_c, 0, 84, 62
1, 199134, Control_c, 0, 64, 120
1, 199135, Note_off_c, 0, 64, 59
1, 199149, Control_c, 0, 64, 127
1, 199238, Control_c, 0, 64, 99
1, 199240, Note_on_c, 0, 86, 80
1, 199244, Note_on_c, 0, 88, 73
1, 199246, Note_on_c, 0, 64, 64
1, 199247, Note_on_c, 0, 60, 58
1, 199249, Note_on_c, 0, 68, 66
1, 199253, Control_c, 0, 64, 70
1, 199268, Control_c, 0, 64, 53
1, 199282, Control_c, 0, 64, 42
1, 199285, Note_off_c, 0, 68, 57
1, 199290, Note_off_c, 0, 64, 62
1, 199297, Control_c, 0, 64, 46
1, 199312, Control_c, 0, 64, 56
1, 199312, Note_off_c, 0, 60, 53
1, 199325, Note_off_c, 0, 88, 65
1, 199326, Note_on_c, 0, 84, 74
1, 199327, Control_c, 0, 64, 64
1, 199342, Control_c, 0, 64, 73
1, 199353, Note_off_c, 0, 86, 64
1, 199357, Control_c, 0, 64, 87
1, 199378, Control_c, 0, 64, 96
1, 199393, Control_c, 0, 64, 105
1, 199402, Note_on_c, 0, 83, 80
1, 199403, Note_off_c, 0, 84, 64
1, 199408, Note_on_c, 0, 68, 68
1, 199408, Control_c, 0, 64, 117
1, 199414, Note_on_c, 0, 60, 59
1, 199417, Note_on_c, 0, 64, 57
1, 199423, Control_c, 0, 64, 127
1, 199443, Note_off_c, 0, 68, 58
1, 199460, Note_off_c, 0, 64, 56
1, 199471, Note_off_c, 0, 83, 61
1, 199480, Note_on_c, 0, 86, 79
1, 199484, Note_off_c, 0, 60, 54
1, 199555, Control_c, 0, 64, 86
1, 199569, Note_on_c, 0, 88, 86
1, 199569, Control_c, 0, 64, 64
1, 199576, Note_off_c, 0, 86, 62
1, 199579, Note_on_c, 0, 84, 80
1, 199584, Control_c, 0, 64, 39
1, 199587, Note_on_c, 0, 69, 57
1, 199587, Note_on_c, 0, 60, 52
1, 199597, Note_on_c, 0, 64, 44
1, 199600, Control_c, 0, 64, 0
1, 199638, Note_off_c, 0, 64, 61
1, 199644, Control_c, 0, 64, 50
1, 199646, Note_off_c, 0, 69, 47
1, 199654, Note_off_c, 0, 60, 58
1, 199659, Control_c, 0, 64, 64
1, 199674, Control_c, 0, 64, 73
1, 199689, Control_c, 0, 64, 82
1, 199704, Control_c, 0, 64, 91
1, 199715, Note_off_c, 0, 88, 66
1, 199718, Control_c, 0, 64, 99
1, 199732, Note_on_c, 0, 64, 59
1, 199733, Note_on_c, 0, 69, 63
1, 199733, Control_c, 0, 64, 110
1, 199740, Note_on_c, 0, 60, 59
1, 199748, Control_c, 0, 64, 127
1, 199749, Note_off_c, 0, 84, 64
1, 199769, Note_off_c, 0, 69, 58
1, 199775, Note_off_c, 0, 64, 60
1, 199782, Note_off_c, 0, 60, 56
1, 199882, Control_c, 0, 64, 106
1, 199897, Control_c, 0, 64, 79
1, 199900, Note_on_c, 0, 88, 76
1, 199902, Note_on_c, 0, 83, 68
1, 199908, Note_on_c, 0, 67, 58
1, 199911, Note_on_c, 0, 60, 54
1, 199911, Control_c, 0, 64, 62
1, 199912, Note_on_c, 0, 64, 50
1, 199926, Control_c, 0, 64, 43
1, 199941, Control_c, 0, 64, 33
1, 199956, Control_c, 0, 64, 40
1, 199965, Note_off_c, 0, 64, 60
1, 199969, Note_off_c, 0, 67, 54
1, 199971, Control_c, 0, 64, 57
1, 199972, Note_off_c, 0, 60, 57
1, 199983, Note_on_c, 0, 90, 79
1, 199985, Control_c, 0, 64, 66
1, 200000, Control_c, 0, 64, 74
1, 200015, Control_c, 0, 64, 81
1, 200029, Control_c, 0, 64, 86
1, 200032, Note_off_c, 0, 88, 56
1, 200044, Control_c, 0, 64, 92
1, 200059, Control_c, 0, 64, 100
1, 200063, Note_on_c, 0, 91, 83
1, 200066, Note_off_c, 0, 90, 65
1, 200074, Control_c, 0, 64, 105
1, 200075, Note_on_c, 0, 64, 58
1, 200076, Note_on_c, 0, 67, 57
1, 200088, Note_on_c, 0, 60, 55
1, 200089, Control_c, 0, 64, 108
1, 200093, Note_off_c, 0, 83, 61
1, 200104, Note_off_c, 0, 64, 67
1, 200113, Note_off_c, 0, 67, 65
1, 200126, Note_off_c, 0, 60, 66
1, 200126, Control_c, 0, 64, 110
1, 200156, Note_on_c, 0, 90, 81
1, 200180, Note_off_c, 0, 91, 64
1, 200215, Control_c, 0, 64, 107
1, 200230, Control_c, 0, 64, 94
1, 200244, Control_c, 0, 64, 76
1, 200251, Note_on_c, 0, 88, 67
1, 200259, Control_c, 0, 64, 58
1, 200267, Note_on_c, 0, 81, 57
1, 200274, Control_c, 0, 64, 0
1, 200275, Note_on_c, 0, 66, 58
1, 200278, Note_on_c, 0, 60, 43
1, 200281, Note_on_c, 0, 64, 41
1, 200296, Note_off_c, 0, 90, 54
1, 200319, Note_off_c, 0, 66, 56
1, 200328, Note_off_c, 0, 60, 61
1, 200332, Note_off_c, 0, 64, 61
1, 200333, Control_c, 0, 64, 41
1, 200333, Control_c, 0, 67, 34
1, 200348, Control_c, 0, 64, 57
1, 200348, Control_c, 0, 67, 41
1, 200362, Control_c, 0, 64, 65
1, 200362, Control_c, 0, 67, 44
1, 200377, Control_c, 0, 64, 71
1, 200394, Control_c, 0, 64, 76
1, 200394, Control_c, 0, 67, 43
1, 200407, Note_off_c, 0, 81, 64
1, 200409, Control_c, 0, 64, 80
1, 200423, Control_c, 0, 64, 83
1, 200433, Note_on_c, 0, 66, 50
1, 200438, Control_c, 0, 64, 87
1, 200438, Control_c, 0, 67, 43
1, 200444, Note_on_c, 0, 60, 46
1, 200452, Note_off_c, 0, 88, 56
1, 200453, Control_c, 0, 64, 91
1, 200453, Control_c, 0, 67, 42
1, 200457, Note_on_c, 0, 64, 39
1, 200467, Control_c, 0, 64, 94
1, 200469, Note_off_c, 0, 66, 49
1, 200475, Note_off_c, 0, 60, 55
1, 200482, Control_c, 0, 64, 96
1, 200482, Control_c, 0, 67, 42
1, 200489, Note_off_c, 0, 64, 53
1, 200497, Control_c, 0, 67, 41
1, 200512, Control_c, 0, 64, 98
1, 200541, Control_c, 0, 67, 42
1, 200556, Control_c, 0, 64, 89
1, 200556, Control_c, 0, 67, 42
1, 200571, Control_c, 0, 64, 70
1, 200571, Control_c, 0, 67, 43
1, 200586, Control_c, 0, 64, 54
1, 200586, Control_c, 0, 67, 44
1, 200591, Note_on_c, 0, 88, 52
1, 200592, Note_on_c, 0, 66, 47
1, 200593, Note_on_c, 0, 90, 54
1, 200595, Note_on_c, 0, 64, 38
1, 200595, Note_on_c, 0, 82, 55
1, 200601, Control_c, 0, 64, 0
1, 200607, Note_on_c, 0, 60, 33
1, 200615, Control_c, 0, 67, 45
1, 200630, Control_c, 0, 67, 44
1, 200642, Note_off_c, 0, 66, 54
1, 200645, Note_off_c, 0, 64, 57
1, 200645, Control_c, 0, 64, 28
1, 200655, Note_off_c, 0, 60, 49
1, 200660, Control_c, 0, 64, 48
1, 200675, Control_c, 0, 64, 62
1, 200689, Control_c, 0, 64, 66
1, 200704, Control_c, 0, 64, 69
1, 200704, Control_c, 0, 67, 43
1, 200719, Control_c, 0, 64, 71
1, 200734, Control_c, 0, 64, 73
1, 200734, Control_c, 0, 67, 43
1, 200749, Control_c, 0, 64, 75
1, 200758, Note_on_c, 0, 66, 43
1, 200764, Note_on_c, 0, 60, 47
1, 200764, Control_c, 0, 64, 75
1, 200776, Note_off_c, 0, 90, 49
1, 200785, Note_on_c, 0, 64, 24
1, 200787, Note_off_c, 0, 82, 35
1, 200790, Note_off_c, 0, 66, 53
1, 200793, Note_off_c, 0, 60, 57
1, 200825, Note_off_c, 0, 64, 55
1, 200859, Control_c, 0, 67, 43
1, 200874, Control_c, 0, 64, 75
1, 200874, Control_c, 0, 67, 46
1, 200876, Note_off_c, 0, 88, 58
1, 200889, Control_c, 0, 64, 74
1, 200889, Control_c, 0, 67, 47
1, 200904, Control_c, 0, 64, 72
1, 200904, Control_c, 0, 67, 48
1, 200919, Control_c, 0, 64, 69
1, 200919, Control_c, 0, 67, 49
1, 200929, Note_on_c, 0, 90, 49
1, 200931, Note_on_c, 0, 83, 54
1, 200931, Note_on_c, 0, 87, 53
1, 200935, Control_c, 0, 64, 64
1, 200935, Control_c, 0, 67, 50
1, 200937, Note_on_c, 0, 66, 42
1, 200949, Control_c, 0, 64, 56
1, 200949, Control_c, 0, 67, 63
1, 200951, Note_on_c, 0, 63, 46
1, 200953, Note_on_c, 0, 59, 46
1, 200964, Control_c, 0, 64, 42
1, 200964, Control_c, 0, 67, 92
1, 200979, Control_c, 0, 64, 0
1, 200979, Control_c, 0, 67, 111
1, 200992, Note_off_c, 0, 63, 61
1, 200993, Note_off_c, 0, 66, 57
1, 200994, Control_c, 0, 67, 121
1, 201000, Note_off_c, 0, 59, 59
1, 201008, Control_c, 0, 67, 124
1, 201083, Control_c, 0, 64, 30
1, 201098, Control_c, 0, 64, 40
1, 201104, Note_on_c, 0, 59, 51
1, 201104, Note_on_c, 0, 66, 52
1, 201105, Note_on_c, 0, 63, 43
1, 201113, Control_c, 0, 64, 47
1, 201128, Control_c, 0, 64, 51
1, 201128, Control_c, 0, 67, 122
1, 201142, Control_c, 0, 64, 54
1, 201146, Note_off_c, 0, 66, 61
1, 201147, Note_off_c, 0, 59, 59
1, 201147, Note_off_c, 0, 63, 61
1, 201157, Control_c, 0, 64, 54
1, 201157, Control_c, 0, 67, 120
1, 201187, Control_c, 0, 64, 53
1, 201187, Control_c, 0, 67, 118
1, 201202, Control_c, 0, 64, 53
1, 201262, Control_c, 0, 64, 52
1, 201263, Note_on_c, 0, 63, 45
1, 201268, Note_on_c, 0, 66, 45
1, 201271, Note_on_c, 0, 59, 46
1, 201277, Control_c, 0, 64, 51
1, 201291, Control_c, 0, 64, 50
1, 201291, Control_c, 0, 67, 116
1, 201306, Control_c, 0, 64, 49
1, 201313, Note_off_c, 0, 63, 58
1, 201316, Note_off_c, 0, 59, 59
1, 201316, Note_off_c, 0, 66, 58
1, 201321, Control_c, 0, 64, 48
1, 201336, Control_c, 0, 64, 47
1, 201351, Control_c, 0, 64, 46
1, 201365, Control_c, 0, 64, 46
1, 201380, Control_c, 0, 64, 44
1, 201395, Control_c, 0, 64, 41
1, 201409, Control_c, 0, 64, 38
1, 201424, Control_c, 0, 64, 35
1, 201436, Note_on_c, 0, 59, 44
1, 201439, Control_c, 0, 64, 31
1, 201441, Note_on_c, 0, 66, 41
1, 201453, Note_on_c, 0, 63, 27
1, 201454, Control_c, 0, 64, 0
1, 201485, Note_off_c, 0, 66, 49
1, 201488, Note_off_c, 0, 63, 51
1, 201491, Note_off_c, 0, 59, 58
1, 201572, Note_off_c, 0, 83, 56
1, 201584, Note_off_c, 0, 87, 58
1, 201589, Note_off_c, 0, 90, 56
1, 201620, Note_on_c, 0, 59, 45
1, 201622, Note_on_c, 0, 66, 35
1, 201624, Note_on_c, 0, 63, 27
1, 201659, Note_off_c, 0, 66, 51
1, 201660, Note_off_c, 0, 59, 60
1, 201662, Note_off_c, 0, 63, 51
1, 201713, Control_c, 0, 67, 114
1, 201743, Control_c, 0, 67, 111
1, 201758, Control_c, 0, 67, 109
1, 201772, Control_c, 0, 67, 107
1, 201776, Note_on_c, 0, 59, 43
1, 201780, Note_on_c, 0, 63, 36
1, 201782, Note_on_c, 0, 66, 35
1, 201802, Control_c, 0, 67, 104
1, 201818, Note_off_c, 0, 63, 53
1, 201822, Note_off_c, 0, 59, 59
1, 201824, Note_off_c, 0, 66, 49
1, 201921, Control_c, 0, 67, 106
1, 201944, Note_on_c, 0, 59, 44
1, 201947, Note_on_c, 0, 66, 36
1, 201950, Control_c, 0, 67, 108
1, 201953, Note_on_c, 0, 63, 29
1, 201993, Note_off_c, 0, 63, 51
1, 201996, Note_off_c, 0, 59, 59
1, 201996, Note_off_c, 0, 66, 48
1, 202010, Control_c, 0, 67, 110
1, 202040, Control_c, 0, 67, 112
1, 202085, Control_c, 0, 67, 114
1, 202114, Control_c, 0, 67, 116
1, 202117, Note_on_c, 0, 59, 44
1, 202121, Note_on_c, 0, 63, 31
1, 202123, Note_on_c, 0, 66, 34
1, 202159, Control_c, 0, 67, 119
1, 202164, Note_off_c, 0, 63, 50
1, 202165, Note_off_c, 0, 66, 49
1, 202166, Note_off_c, 0, 59, 58
1, 202203, Control_c, 0, 67, 121
1, 202247, Control_c, 0, 67, 123
1, 202262, Control_c, 0, 64, 34
1, 202277, Control_c, 0, 64, 41
1, 202292, Control_c, 0, 64, 45
1, 202292, Control_c, 0, 67, 125
1, 202306, Control_c, 0, 64, 48
1, 202321, Control_c, 0, 64, 51
1, 202327, Note_on_c, 0, 90, 47
1, 202336, Control_c, 0, 64, 53
1, 202336, Control_c, 0, 67, 127
1, 202340, Note_on_c, 0, 59, 28
1, 202351, Control_c, 0, 64, 56
1, 202362, Note_on_c, 0, 66, 7
1, 202371, Note_on_c, 0, 63, 7
1, 202374, Control_c, 0, 64, 59
1, 202388, Control_c, 0, 64, 60
1, 202403, Control_c, 0, 64, 61
1, 202417, Note_off_c, 0, 66, 49
1, 202418, Control_c, 0, 64, 63
1, 202418, Note_off_c, 0, 63, 47
1, 202421, Note_off_c, 0, 59, 41
1, 202433, Control_c, 0, 64, 64
1, 202447, Control_c, 0, 64, 66
1, 202462, Control_c, 0, 64, 68
1, 202477, Control_c, 0, 64, 70
1, 202492, Control_c, 0, 64, 72
1, 202505, Note_on_c, 0, 66, 33
1, 202506, Note_on_c, 0, 59, 31
1, 202507, Control_c, 0, 64, 74
1, 202511, Note_on_c, 0, 63, 33
1, 202521, Control_c, 0, 64, 76
1, 202536, Control_c, 0, 64, 78
1, 202551, Control_c, 0, 64, 80
1, 202564, Note_off_c, 0, 63, 48
1, 202564, Note_off_c, 0, 66, 49
1, 202565, Control_c, 0, 64, 80
1, 202570, Note_off_c, 0, 59, 46
1, 202580, Control_c, 0, 64, 81
1, 202595, Control_c, 0, 64, 82
1, 202625, Control_c, 0, 64, 83
1, 202649, Note_off_c, 0, 90, 63
1, 202676, Note_on_c, 0, 88, 59
1, 202699, Note_on_c, 0, 59, 46
1, 202702, Note_on_c, 0, 63, 37
1, 202705, Note_on_c, 0, 66, 32
1, 202707, Note_off_c, 0, 88, 65
1, 202737, Note_off_c, 0, 63, 51
1, 202738, Note_off_c, 0, 66, 54
1, 202740, Note_off_c, 0, 59, 49
1, 202766, Note_on_c, 0, 87, 57
1, 202821, Note_off_c, 0, 87, 61
1, 202848, Note_on_c, 0, 85, 63
1, 202850, Note_on_c, 0, 66, 42
1, 202860, Note_on_c, 0, 59, 43
1, 202878, Note_off_c, 0, 66, 54
1, 202889, Note_off_c, 0, 59, 53
1, 202891, Poly_aftertouch_c, 0, 63, 127
1, 202899, Note_off_c, 0, 85, 60
1, 202926, Note_on_c, 0, 83, 61
1, 202934, Poly_aftertouch_c, 0, 63, 0
1, 202987, Note_off_c, 0, 83, 60
1, 203011, Control_c, 0, 64, 81
1, 203026, Control_c, 0, 64, 74
1, 203028, Note_on_c, 0, 59, 28
1, 203035, Note_on_c, 0, 92, 59
1, 203041, Control_c, 0, 64, 65
1, 203052, Note_on_c, 0, 64, 36
1, 203055, Control_c, 0, 64, 58
1, 203056, Note_on_c, 0, 68, 22
1, 203070, Control_c, 0, 64, 56
1, 203085, Control_c, 0, 64, 58
1, 203097, Note_off_c, 0, 64, 59
1, 203098, Note_off_c, 0, 68, 51
1, 203100, Control_c, 0, 64, 60
1, 203116, Note_off_c, 0, 59, 49
1, 203122, Control_c, 0, 64, 62
1, 203131, Note_off_c, 0, 92, 62
1, 203133, Note_on_c, 0, 90, 58
1, 203137, Control_c, 0, 64, 63
1, 203152, Control_c, 0, 64, 64
1, 203195, Note_off_c, 0, 90, 63
1, 203210, Control_c, 0, 64, 65
1, 203217, Note_on_c, 0, 88, 68
1, 203223, Note_on_c, 0, 68, 34
1, 203225, Control_c, 0, 64, 66
1, 203234, Note_on_c, 0, 59, 36
1, 203238, Note_on_c, 0, 64, 28
1, 203240, Control_c, 0, 64, 67
1, 203256, Note_off_c, 0, 68, 52
1, 203260, Note_off_c, 0, 88, 61
1, 203268, Note_off_c, 0, 59, 51
1, 203274, Note_off_c, 0, 64, 53
1, 203284, Control_c, 0, 64, 66
1, 203299, Control_c, 0, 64, 65
1, 203301, Note_on_c, 0, 87, 63
1, 203314, Control_c, 0, 64, 63
1, 203329, Control_c, 0, 64, 60
1, 203343, Control_c, 0, 64, 58
1, 203358, Control_c, 0, 64, 59
1, 203369, Note_on_c, 0, 85, 71
1, 203369, Note_off_c, 0, 87, 63
1, 203373, Control_c, 0, 64, 60
1, 203377, Note_on_c, 0, 59, 46
1, 203383, Note_on_c, 0, 64, 39
1, 203385, Note_on_c, 0, 68, 39
1, 203387, Control_c, 0, 64, 61
1, 203402, Control_c, 0, 64, 63
1, 203417, Control_c, 0, 64, 65
1, 203425, Note_off_c, 0, 68, 61
1, 203426, Note_off_c, 0, 85, 65
1, 203428, Note_off_c, 0, 64, 61
1, 203432, Control_c, 0, 64, 67
1, 203434, Note_off_c, 0, 59, 60
1, 203447, Control_c, 0, 64, 68
1, 203453, Note_on_c, 0, 83, 69
1, 203493, Note_off_c, 0, 83, 62
1, 203535, Note_on_c, 0, 82, 62
1, 203537, Note_on_c, 0, 68, 37
1, 203553, Note_on_c, 0, 59, 41
1, 203553, Note_on_c, 0, 64, 27
1, 203565, Note_off_c, 0, 68, 53
1, 203584, Note_off_c, 0, 59, 53
1, 203592, Note_off_c, 0, 64, 47
1, 203602, Note_off_c, 0, 82, 60
1, 203620, Note_on_c, 0, 80, 63
1, 203655, Control_c, 0, 64, 67
1, 203685, Control_c, 0, 64, 67
1, 203700, Control_c, 0, 64, 66
1, 203723, Note_off_c, 0, 80, 59
1, 203730, Control_c, 0, 64, 65
1, 203733, Note_on_c, 0, 78, 56
1, 203743, Note_on_c, 0, 59, 16
1, 203745, Control_c, 0, 64, 64
1, 203759, Control_c, 0, 64, 62
1, 203760, Note_on_c, 0, 63, 36
1, 203760, Note_on_c, 0, 66, 36
1, 203774, Control_c, 0, 64, 58
1, 203789, Control_c, 0, 64, 50
1, 203803, Note_off_c, 0, 63, 59
1, 203803, Control_c, 0, 64, 34
1, 203810, Note_off_c, 0, 66, 56
1, 203818, Note_off_c, 0, 59, 54
1, 203818, Control_c, 0, 64, 0
1, 203848, Control_c, 0, 64, 27
1, 203870, Control_c, 0, 64, 39
1, 203885, Control_c, 0, 64, 48
1, 203900, Control_c, 0, 64, 56
1, 203915, Control_c, 0, 64, 60
1, 203930, Control_c, 0, 64, 63
1, 203936, Note_on_c, 0, 63, 39
1, 203943, Note_on_c, 0, 59, 33
1, 203945, Control_c, 0, 64, 65
1, 203946, Note_on_c, 0, 66, 33
1, 203959, Control_c, 0, 64, 67
1, 203974, Control_c, 0, 64, 69
1, 203977, Note_off_c, 0, 63, 49
1, 203982, Note_off_c, 0, 66, 52
1, 203989, Control_c, 0, 64, 70
1, 203991, Note_off_c, 0, 59, 46
1, 204004, Control_c, 0, 64, 71
1, 204018, Control_c, 0, 64, 72
1, 204033, Control_c, 0, 64, 72
1, 204048, Control_c, 0, 64, 73
1, 204063, Control_c, 0, 64, 73
1, 204065, Note_off_c, 0, 78, 60
1, 204095, Note_on_c, 0, 76, 59
1, 204112, Note_on_c, 0, 59, 43
1, 204115, Note_on_c, 0, 66, 35
1, 204115, Note_on_c, 0, 63, 36
1, 204131, Note_off_c, 0, 76, 62
1, 204146, Note_off_c, 0, 63, 55
1, 204147, Note_off_c, 0, 66, 52
1, 204154, Note_off_c, 0, 59, 50
1, 204180, Note_on_c, 0, 75, 64
1, 204245, Note_off_c, 0, 75, 63
1, 204255, Note_on_c, 0, 66, 47
1, 204258, Note_on_c, 0, 73, 66
1, 204260, Note_on_c, 0, 63, 34
1, 204278, Note_on_c, 0, 59, 37
1, 204286, Note_off_c, 0, 66, 59
1, 204292, Note_off_c, 0, 63, 46
1, 204299, Control_c, 0, 64, 74
1, 204310, Note_off_c, 0, 59, 54
1, 204314, Note_off_c, 0, 73, 61
1, 204335, Note_on_c, 0, 71, 69
1, 204374, Control_c, 0, 64, 72
1, 204389, Control_c, 0, 64, 66
1, 204398, Note_off_c, 0, 71, 58
1, 204404, Control_c, 0, 64, 57
1, 204419, Control_c, 0, 64, 49
1, 204430, Note_on_c, 0, 73, 66
1, 204435, Note_on_c, 0, 59, 32
1, 204440, Note_on_c, 0, 70, 48
1, 204442, Note_on_c, 0, 66, 31
1, 204448, Control_c, 0, 64, 54
1, 204459, Note_on_c, 0, 64, 34
1, 204463, Control_c, 0, 64, 58
1, 204478, Control_c, 0, 64, 61
1, 204493, Control_c, 0, 64, 64
1, 204494, Note_off_c, 0, 70, 57
1, 204494, Note_off_c, 0, 66, 60
1, 204496, Note_off_c, 0, 64, 53
1, 204501, Note_off_c, 0, 59, 56
1, 204505, Note_off_c, 0, 73, 62
1, 204508, Control_c, 0, 64, 68
1, 204510, Note_on_c, 0, 75, 70
1, 204523, Control_c, 0, 64, 72
1, 204538, Control_c, 0, 64, 76
1, 204553, Control_c, 0, 64, 79
1, 204566, Note_off_c, 0, 75, 62
1, 204568, Control_c, 0, 64, 79
1, 204582, Control_c, 0, 64, 79
1, 204594, Note_on_c, 0, 76, 70
1, 204604, Control_c, 0, 64, 75
1, 204613, Note_on_c, 0, 70, 58
1, 204618, Note_on_c, 0, 66, 48
1, 204619, Control_c, 0, 64, 69
1, 204620, Note_on_c, 0, 64, 41
1, 204627, Note_on_c, 0, 59, 51
1, 204633, Control_c, 0, 64, 64
1, 204653, Note_off_c, 0, 70, 58
1, 204656, Note_off_c, 0, 66, 57
1, 204663, Control_c, 0, 64, 68
1, 204668, Note_off_c, 0, 59, 59
1, 204671, Note_off_c, 0, 64, 59
1, 204677, Note_off_c, 0, 76, 49
1, 204679, Control_c, 0, 64, 70
1, 204685, Note_on_c, 0, 78, 72
1, 204694, Control_c, 0, 64, 69
1, 204708, Control_c, 0, 64, 62
1, 204723, Control_c, 0, 64, 48
1, 204738, Control_c, 0, 64, 33
1, 204753, Control_c, 0, 64, 30
1, 204767, Note_on_c, 0, 80, 74
1, 204768, Control_c, 0, 64, 39
1, 204774, Note_off_c, 0, 78, 61
1, 204776, Note_on_c, 0, 59, 47
1, 204780, Note_on_c, 0, 70, 45
1, 204781, Note_on_c, 0, 64, 50
1, 204782, Control_c, 0, 64, 51
1, 204785, Note_on_c, 0, 66, 38
1, 204797, Control_c, 0, 64, 60
1, 204812, Control_c, 0, 64, 63
1, 204815, Note_off_c, 0, 70, 53
1, 204827, Control_c, 0, 64, 64
1, 204831, Note_off_c, 0, 66, 48
1, 204834, Note_off_c, 0, 59, 53
1, 204842, Control_c, 0, 64, 65
1, 204844, Note_on_c, 0, 82, 75
1, 204848, Note_off_c, 0, 80, 63
1, 204850, Note_off_c, 0, 64, 52
1, 204857, Control_c, 0, 64, 67
1, 204872, Control_c, 0, 64, 69
1, 204887, Control_c, 0, 64, 70
1, 204891, Note_off_c, 0, 82, 63
1, 204901, Control_c, 0, 64, 71
1, 204920, Note_on_c, 0, 70, 52
1, 204922, Note_on_c, 0, 83, 75
1, 204935, Note_on_c, 0, 64, 20
1, 204946, Note_on_c, 0, 59, 40
1, 204946, Control_c, 0, 64, 72
1, 204953, Note_on_c, 0, 66, 41
1, 204969, Note_off_c, 0, 70, 53
1, 204979, Note_off_c, 0, 64, 49
1, 204985, Note_off_c, 0, 66, 54
1, 204992, Note_off_c, 0, 59, 59
1, 205011, Note_on_c, 0, 85, 74
1, 205021, Note_off_c, 0, 83, 50
1, 205034, Control_c, 0, 64, 71
1, 205049, Control_c, 0, 64, 68
1, 205064, Control_c, 0, 64, 56
1, 205079, Control_c, 0, 64, 29
1, 205088, Note_on_c, 0, 87, 70
1, 205094, Control_c, 0, 64, 0
1, 205105, Note_on_c, 0, 59, 48
1, 205107, Note_on_c, 0, 66, 34
1, 205107, Note_on_c, 0, 71, 55
1, 205113, Note_off_c, 0, 85, 60
1, 205119, Note_on_c, 0, 63, 46
1, 205128, Note_on_c, 0, 83, 65
1, 205138, Control_c, 0, 64, 36
1, 205149, Note_off_c, 0, 71, 58
1, 205152, Control_c, 0, 64, 51
1, 205158, Note_off_c, 0, 66, 59
1, 205161, Note_off_c, 0, 63, 61
1, 205162, Note_off_c, 0, 59, 58
1, 205167, Control_c, 0, 64, 59
1, 205184, Control_c, 0, 64, 62
1, 205199, Control_c, 0, 64, 65
1, 205211, Note_off_c, 0, 87, 0
1, 205213, Control_c, 0, 64, 68
1, 205228, Control_c, 0, 64, 70
1, 205231, Note_on_c, 0, 87, 42
1, 205243, Control_c, 0, 64, 72
1, 205257, Control_c, 0, 64, 74
1, 205265, Note_off_c, 0, 83, 53
1, 205268, Note_on_c, 0, 63, 45
1, 205272, Control_c, 0, 64, 74
1, 205273, Note_on_c, 0, 66, 49
1, 205282, Note_on_c, 0, 59, 50
1, 205287, Control_c, 0, 64, 75
1, 205295, Note_off_c, 0, 63, 56
1, 205298, Note_off_c, 0, 66, 61
1, 205307, Note_off_c, 0, 59, 58
1, 205317, Control_c, 0, 64, 75
1, 205398, Control_c, 0, 64, 74
1, 205413, Control_c, 0, 64, 69
1, 205418, Note_off_c, 0, 87, 60
1, 205428, Control_c, 0, 64, 61
1, 205435, Note_on_c, 0, 88, 69
1, 205441, Note_on_c, 0, 59, 41
1, 205443, Control_c, 0, 64, 47
1, 205450, Note_on_c, 0, 83, 53
1, 205457, Control_c, 0, 64, 37
1, 205462, Note_on_c, 0, 64, 38
1, 205465, Note_on_c, 0, 67, 40
1, 205472, Control_c, 0, 64, 40
1, 205487, Control_c, 0, 64, 50
1, 205492, Note_off_c, 0, 64, 56
1, 205495, Note_off_c, 0, 67, 53
1, 205499, Note_off_c, 0, 59, 56
1, 205502, Control_c, 0, 64, 58
1, 205517, Control_c, 0, 64, 63
1, 205520, Note_on_c, 0, 90, 72
1, 205524, Note_off_c, 0, 88, 57
1, 205530, Note_off_c, 0, 83, 56
1, 205531, Control_c, 0, 64, 65
1, 205546, Control_c, 0, 64, 67
1, 205561, Control_c, 0, 64, 69
1, 205575, Control_c, 0, 64, 71
1, 205590, Control_c, 0, 64, 72
1, 205602, Note_on_c, 0, 67, 49
1, 205602, Note_off_c, 0, 90, 62
1, 205603, Note_on_c, 0, 64, 47
1, 205604, Note_on_c, 0, 91, 74
1, 205605, Control_c, 0, 64, 73
1, 205617, Note_on_c, 0, 59, 46
1, 205620, Control_c, 0, 64, 73
1, 205642, Note_off_c, 0, 67, 63
1, 205645, Note_off_c, 0, 64, 63
1, 205655, Note_off_c, 0, 59, 49
1, 205683, Note_on_c, 0, 88, 67
1, 205688, Note_off_c, 0, 91, 65
1, 205739, Control_c, 0, 67, 110
1, 205754, Control_c, 0, 64, 71
1, 205754, Control_c, 0, 67, 99
1, 205769, Control_c, 0, 64, 64
1, 205769, Control_c, 0, 67, 88
1, 205769, Note_off_c, 0, 88, 59
1, 205771, Note_on_c, 0, 83, 62
1, 205775, Note_on_c, 0, 87, 72
1, 205783, Control_c, 0, 64, 50
1, 205783, Control_c, 0, 67, 77
1, 205788, Note_on_c, 0, 59, 48
1, 205798, Control_c, 0, 64, 31
1, 205798, Control_c, 0, 67, 64
1, 205803, Note_on_c, 0, 66, 47
1, 205811, Note_on_c, 0, 69, 40
1, 205813, Control_c, 0, 64, 0
1, 205813, Control_c, 0, 67, 48
1, 205828, Control_c, 0, 64, 30
1, 205828, Control_c, 0, 67, 0
1, 205830, Note_off_c, 0, 66, 59
1, 205839, Note_off_c, 0, 59, 59
1, 205840, Note_off_c, 0, 69, 53
1, 205843, Control_c, 0, 64, 44
1, 205857, Control_c, 0, 64, 56
1, 205872, Control_c, 0, 64, 63
1, 205887, Control_c, 0, 64, 66
1, 205902, Control_c, 0, 64, 68
1, 205917, Control_c, 0, 64, 69
1, 205931, Note_on_c, 0, 66, 50
1, 205931, Control_c, 0, 64, 70
1, 205932, Note_on_c, 0, 69, 49
1, 205940, Note_on_c, 0, 59, 54
1, 205946, Control_c, 0, 64, 71
1, 205961, Control_c, 0, 64, 72
1, 205966, Note_off_c, 0, 69, 65
1, 205968, Note_off_c, 0, 83, 51
1, 205970, Note_off_c, 0, 66, 66
1, 205977, Control_c, 0, 64, 72
1, 205984, Note_off_c, 0, 59, 60
1, 206023, Note_off_c, 0, 87, 62
1, 206066, Control_c, 0, 64, 72
1, 206080, Control_c, 0, 64, 69
1, 206095, Control_c, 0, 64, 61
1, 206118, Control_c, 0, 64, 48
1, 206119, Note_on_c, 0, 83, 60
1, 206122, Note_on_c, 0, 88, 71
1, 206133, Control_c, 0, 64, 35
1, 206142, Note_on_c, 0, 67, 43
1, 206147, Note_on_c, 0, 59, 27
1, 206147, Control_c, 0, 64, 35
1, 206150, Note_on_c, 0, 64, 35
1, 206162, Control_c, 0, 64, 44
1, 206175, Note_off_c, 0, 67, 51
1, 206177, Control_c, 0, 64, 54
1, 206180, Note_off_c, 0, 59, 55
1, 206183, Note_off_c, 0, 64, 53
1, 206192, Control_c, 0, 64, 61
1, 206204, Note_on_c, 0, 90, 73
1, 206204, Note_off_c, 0, 83, 39
1, 206206, Control_c, 0, 64, 65
1, 206221, Control_c, 0, 64, 67
1, 206225, Note_off_c, 0, 88, 55
1, 206236, Control_c, 0, 64, 68
1, 206251, Control_c, 0, 64, 70
1, 206266, Control_c, 0, 64, 71
1, 206279, Note_on_c, 0, 91, 76
1, 206280, Note_on_c, 0, 64, 47
1, 206280, Control_c, 0, 64, 72
1, 206282, Note_on_c, 0, 67, 51
1, 206285, Note_off_c, 0, 90, 64
1, 206288, Note_on_c, 0, 59, 39
1, 206295, Control_c, 0, 64, 73
1, 206310, Control_c, 0, 64, 73
1, 206322, Note_off_c, 0, 67, 64
1, 206323, Note_off_c, 0, 64, 64
1, 206325, Control_c, 0, 64, 74
1, 206334, Note_off_c, 0, 59, 54
1, 206340, Control_c, 0, 64, 75
1, 206354, Control_c, 0, 64, 75
1, 206358, Note_on_c, 0, 88, 75
1, 206369, Control_c, 0, 64, 75
1, 206370, Note_off_c, 0, 91, 67
1, 206384, Control_c, 0, 64, 73
1, 206399, Control_c, 0, 64, 65
1, 206413, Control_c, 0, 64, 50
1, 206428, Control_c, 0, 64, 0
1, 206443, Control_c, 0, 67, 34
1, 206449, Note_on_c, 0, 59, 54
1, 206453, Note_on_c, 0, 83, 71
1, 206453, Note_on_c, 0, 87, 79
1, 206457, Note_off_c, 0, 88, 64
1, 206458, Control_c, 0, 64, 28
1, 206458, Control_c, 0, 67, 35
1, 206463, Note_on_c, 0, 66, 55
1, 206466, Note_on_c, 0, 69, 50
1, 206472, Control_c, 0, 64, 45
1, 206472, Control_c, 0, 67, 39
1, 206487, Control_c, 0, 64, 59
1, 206487, Control_c, 0, 67, 42
1, 206502, Note_off_c, 0, 69, 63
1, 206502, Control_c, 0, 64, 66
1, 206502, Control_c, 0, 67, 46
1, 206505, Note_off_c, 0, 59, 58
1, 206508, Note_off_c, 0, 66, 62
1, 206517, Control_c, 0, 64, 70
1, 206517, Control_c, 0, 67, 52
1, 206532, Control_c, 0, 64, 73
1, 206532, Control_c, 0, 67, 60
1, 206547, Control_c, 0, 64, 76
1, 206547, Control_c, 0, 67, 65
1, 206562, Note_off_c, 0, 83, 63
1, 206562, Control_c, 0, 64, 79
1, 206562, Control_c, 0, 67, 68
1, 206577, Control_c, 0, 64, 82
1, 206577, Control_c, 0, 67, 70
1, 206592, Note_off_c, 0, 87, 64
1, 206592, Control_c, 0, 64, 85
1, 206606, Control_c, 0, 64, 87
1, 206606, Control_c, 0, 67, 71
1, 206614, Note_on_c, 0, 69, 53
1, 206619, Note_on_c, 0, 59, 56
1, 206621, Control_c, 0, 64, 87
1, 206627, Note_on_c, 0, 66, 43
1, 206636, Control_c, 0, 64, 88
1, 206636, Control_c, 0, 67, 71
1, 206651, Control_c, 0, 64, 88
1, 206661, Note_off_c, 0, 69, 56
1, 206666, Control_c, 0, 64, 89
1, 206666, Note_off_c, 0, 66, 51
1, 206669, Note_off_c, 0, 59, 58
1, 206695, Control_c, 0, 67, 72
1, 206754, Control_c, 0, 64, 86
1, 206769, Control_c, 0, 64, 76
1, 206785, Control_c, 0, 64, 64
1, 206800, Control_c, 0, 64, 52
1, 206803, Note_on_c, 0, 93, 78
1, 206815, Note_on_c, 0, 69, 51
1, 206821, Note_on_c, 0, 59, 52
1, 206822, Note_on_c, 0, 66, 41
1, 206829, Control_c, 0, 64, 57
1, 206844, Control_c, 0, 64, 62
1, 206854, Note_on_c, 0, 87, 42
1, 206866, Note_off_c, 0, 69, 56
1, 206866, Control_c, 0, 64, 66
1, 206867, Note_off_c, 0, 59, 61
1, 206872, Note_off_c, 0, 66, 63
1, 206881, Control_c, 0, 64, 70
1, 206890, Note_on_c, 0, 95, 78
1, 206896, Control_c, 0, 64, 74
1, 206911, Control_c, 0, 64, 77
1, 206925, Control_c, 0, 64, 79
1, 206940, Control_c, 0, 64, 81
1, 206954, Note_off_c, 0, 93, 61
1, 206955, Control_c, 0, 64, 82
1, 206967, Note_on_c, 0, 59, 58
1, 206967, Note_on_c, 0, 96, 81
1, 206970, Control_c, 0, 64, 83
1, 206973, Note_on_c, 0, 66, 57
1, 206983, Note_on_c, 0, 69, 51
1, 206988, Note_off_c, 0, 95, 66
1, 206991, Note_off_c, 0, 87, 34
1, 206999, Control_c, 0, 64, 83
1, 207006, Note_off_c, 0, 59, 62
1, 207009, Note_off_c, 0, 69, 59
1, 207015, Note_off_c, 0, 66, 62
1, 207028, Control_c, 0, 64, 84
1, 207057, Note_on_c, 0, 93, 80
1, 207067, Note_off_c, 0, 96, 66
1, 207073, Control_c, 0, 64, 83
1, 207073, Control_c, 0, 67, 73
1, 207088, Control_c, 0, 64, 81
1, 207088, Control_c, 0, 67, 73
1, 207102, Control_c, 0, 64, 73
1, 207102, Control_c, 0, 67, 75
1, 207117, Control_c, 0, 64, 58
1, 207117, Control_c, 0, 67, 76
1, 207132, Control_c, 0, 64, 38
1, 207132, Control_c, 0, 67, 78
1, 207138, Note_off_c, 0, 93, 61
1, 207147, Control_c, 0, 64, 0
1, 207147, Control_c, 0, 67, 91
1, 207149, Note_on_c, 0, 91, 73
1, 207154, Note_on_c, 0, 88, 60
1, 207161, Control_c, 0, 67, 98
1, 207164, Note_on_c, 0, 60, 56
1, 207173, Note_on_c, 0, 67, 45
1, 207179, Note_on_c, 0, 64, 36
1, 207191, Control_c, 0, 64, 37
1, 207206, Note_off_c, 0, 60, 64
1, 207206, Control_c, 0, 64, 47
1, 207214, Note_off_c, 0, 67, 60
1, 207217, Note_off_c, 0, 64, 53
1, 207221, Control_c, 0, 64, 54
1, 207236, Control_c, 0, 64, 59
1, 207250, Control_c, 0, 64, 62
1, 207265, Control_c, 0, 64, 64
1, 207280, Control_c, 0, 64, 64
1, 207310, Control_c, 0, 64, 65
1, 207318, Note_on_c, 0, 64, 48
1, 207321, Note_on_c, 0, 67, 51
1, 207331, Note_on_c, 0, 60, 48
1, 207353, Note_off_c, 0, 91, 63
1, 207354, Control_c, 0, 64, 64
1, 207354, Control_c, 0, 67, 96
1, 207359, Note_off_c, 0, 64, 64
1, 207364, Note_off_c, 0, 67, 60
1, 207367, Note_off_c, 0, 60, 65
1, 207369, Control_c, 0, 64, 63
1, 207384, Control_c, 0, 64, 61
1, 207399, Control_c, 0, 64, 59
1, 207414, Control_c, 0, 64, 54
1, 207428, Control_c, 0, 64, 49
1, 207443, Control_c, 0, 64, 42
1, 207458, Control_c, 0, 64, 37
1, 207483, Note_off_c, 0, 88, 59
1, 207486, Note_on_c, 0, 91, 62
1, 207488, Control_c, 0, 64, 39
1, 207494, Note_on_c, 0, 83, 58
1, 207496, Note_on_c, 0, 89, 51
1, 207499, Note_on_c, 0, 67, 49
1, 207502, Note_on_c, 0, 62, 51
1, 207502, Control_c, 0, 64, 42
1, 207513, Note_on_c, 0, 65, 44
1, 207517, Control_c, 0, 64, 44
1, 207532, Control_c, 0, 64, 46
1, 207543, Note_off_c, 0, 67, 60
1, 207543, Note_off_c, 0, 65, 58
1, 207545, Note_off_c, 0, 62, 62
1, 207546, Control_c, 0, 64, 49
1, 207561, Note_off_c, 0, 89, 56
1, 207561, Control_c, 0, 64, 52
1, 207561, Control_c, 0, 67, 98
1, 207578, Control_c, 0, 64, 53
1, 207593, Control_c, 0, 64, 54
1, 207611, Note_off_c, 0, 91, 62
1, 207614, Control_c, 0, 64, 54
1, 207653, Note_on_c, 0, 65, 40
1, 207653, Note_on_c, 0, 62, 47
1, 207660, Note_on_c, 0, 67, 45
1, 207691, Note_off_c, 0, 62, 63
1, 207692, Note_off_c, 0, 65, 56
1, 207706, Note_off_c, 0, 67, 58
1, 207763, Control_c, 0, 64, 54
1, 207827, Note_on_c, 0, 91, 56
1, 207829, Note_on_c, 0, 84, 50
1, 207837, Note_off_c, 0, 83, 54
1, 207844, Note_on_c, 0, 67, 45
1, 207847, Note_on_c, 0, 60, 47
1, 207859, Note_off_c, 0, 91, 67
1, 207860, Note_on_c, 0, 64, 38
1, 207864, Note_off_c, 0, 84, 64
1, 207882, Control_c, 0, 64, 53
1, 207941, Control_c, 0, 64, 53
1, 207971, Control_c, 0, 64, 52
1, 208011, Note_on_c, 0, 72, 54
1, 208011, Note_on_c, 0, 79, 51
1, 208015, Control_c, 0, 64, 52
1, 208018, Note_on_c, 0, 76, 44
1, 208046, Note_off_c, 0, 72, 59
1, 208049, Note_off_c, 0, 76, 57
1, 208059, Control_c, 0, 64, 51
1, 208059, Control_c, 0, 67, 96
1, 208061, Note_off_c, 0, 79, 57
1, 208074, Control_c, 0, 67, 95
1, 208089, Control_c, 0, 64, 51
1, 208089, Control_c, 0, 67, 95
1, 208104, Control_c, 0, 67, 94
1, 208119, Control_c, 0, 67, 94
1, 208133, Control_c, 0, 67, 93
1, 208148, Control_c, 0, 67, 91
1, 208163, Control_c, 0, 67, 90
1, 208167, Note_on_c, 0, 76, 49
1, 208171, Note_on_c, 0, 79, 61
1, 208172, Note_on_c, 0, 72, 51
1, 208177, Control_c, 0, 67, 89
1, 208192, Control_c, 0, 67, 87
1, 208205, Note_off_c, 0, 76, 62
1, 208206, Note_off_c, 0, 72, 61
1, 208207, Control_c, 0, 67, 86
1, 208210, Note_off_c, 0, 79, 57
1, 208222, Control_c, 0, 67, 84
1, 208237, Control_c, 0, 67, 82
1, 208252, Control_c, 0, 67, 80
1, 208267, Control_c, 0, 67, 78
1, 208282, Control_c, 0, 67, 75
1, 208297, Control_c, 0, 67, 72
1, 208312, Control_c, 0, 67, 68
1, 208322, Note_on_c, 0, 79, 57
1, 208323, Note_on_c, 0, 76, 54
1, 208324, Note_on_c, 0, 72, 53
1, 208326, Control_c, 0, 67, 59
1, 208341, Control_c, 0, 67, 45
1, 208363, Control_c, 0, 67, 0
1, 208369, Note_off_c, 0, 76, 63
1, 208372, Note_off_c, 0, 72, 57
1, 208379, Control_c, 0, 64, 51
1, 208383, Note_off_c, 0, 79, 56
1, 208384, Note_off_c, 0, 67, 63
1, 208390, Note_off_c, 0, 64, 50
1, 208400, Note_off_c, 0, 60, 60
1, 208494, Note_on_c, 0, 72, 57
1, 208496, Note_on_c, 0, 79, 62
1, 208497, Note_on_c, 0, 76, 55
1, 208534, Note_off_c, 0, 76, 63
1, 208536, Note_off_c, 0, 72, 58
1, 208548, Note_off_c, 0, 79, 58
1, 208616, Control_c, 0, 64, 52
1, 208644, Note_on_c, 0, 76, 58
1, 208645, Note_on_c, 0, 72, 64
1, 208653, Note_on_c, 0, 79, 64
1, 208675, Control_c, 0, 64, 52
1, 208684, Note_off_c, 0, 76, 61
1, 208687, Note_off_c, 0, 72, 59
1, 208700, Note_off_c, 0, 79, 58
1, 208799, Note_on_c, 0, 76, 65
1, 208800, Note_on_c, 0, 72, 65
1, 208803, Note_on_c, 0, 79, 66
1, 208838, Control_c, 0, 64, 53
1, 208842, Note_off_c, 0, 72, 58
1, 208842, Note_off_c, 0, 76, 59
1, 208854, Note_off_c, 0, 79, 59
1, 208964, Note_on_c, 0, 79, 66
1, 208965, Note_on_c, 0, 72, 64
1, 208965, Note_on_c, 0, 76, 64
1, 209004, Note_off_c, 0, 76, 61
1, 209008, Note_off_c, 0, 72, 59
1, 209027, Note_off_c, 0, 79, 61
1, 209060, Control_c, 0, 64, 54
1, 209075, Control_c, 0, 64, 55
1, 209090, Control_c, 0, 64, 57
1, 209112, Control_c, 0, 64, 59
1, 209126, Control_c, 0, 64, 62
1, 209141, Control_c, 0, 64, 64
1, 209152, Note_on_c, 0, 60, 81
1, 209155, Note_on_c, 0, 72, 51
1, 209155, Note_on_c, 0, 76, 54
1, 209156, Control_c, 0, 64, 66
1, 209161, Note_on_c, 0, 79, 51
1, 209172, Control_c, 0, 64, 68
1, 209187, Control_c, 0, 64, 71
1, 209199, Note_off_c, 0, 72, 57
1, 209202, Control_c, 0, 64, 74
1, 209210, Note_off_c, 0, 76, 54
1, 209212, Note_off_c, 0, 79, 54
1, 209217, Control_c, 0, 64, 77
1, 209231, Control_c, 0, 64, 81
1, 209246, Control_c, 0, 64, 86
1, 209261, Control_c, 0, 64, 90
1, 209276, Control_c, 0, 64, 96
1, 209291, Control_c, 0, 64, 104
1, 209305, Control_c, 0, 64, 117
1, 209320, Control_c, 0, 64, 127
1, 209328, Note_on_c, 0, 72, 62
1, 209328, Note_on_c, 0, 76, 65
1, 209334, Note_on_c, 0, 79, 62
1, 209373, Note_off_c, 0, 72, 59
1, 209376, Note_off_c, 0, 76, 55
1, 209397, Note_off_c, 0, 79, 61
1, 209469, Note_off_c, 0, 60, 64
1, 209483, Note_on_c, 0, 72, 67
1, 209485, Note_on_c, 0, 79, 61
1, 209486, Note_on_c, 0, 76, 63
1, 209487, Note_on_c, 0, 59, 78
1, 209515, Note_off_c, 0, 72, 63
1, 209518, Note_off_c, 0, 76, 63
1, 209530, Note_off_c, 0, 79, 61
1, 209545, Note_off_c, 0, 59, 54
1, 209555, Note_on_c, 0, 57, 83
1, 209611, Note_on_c, 0, 72, 67
1, 209617, Note_on_c, 0, 76, 60
1, 209626, Note_on_c, 0, 79, 65
1, 209629, Note_on_c, 0, 55, 85
1, 209645, Note_off_c, 0, 72, 63
1, 209656, Note_off_c, 0, 76, 60
1, 209665, Note_off_c, 0, 57, 63
1, 209668, Note_off_c, 0, 79, 55
1, 209709, Note_on_c, 0, 53, 85
1, 209726, Note_off_c, 0, 55, 62
1, 209822, Note_on_c, 0, 80, 69
1, 209823, Note_on_c, 0, 74, 69
1, 209823, Note_off_c, 0, 53, 63
1, 209823, Control_c, 0, 64, 117
1, 209824, Note_on_c, 0, 52, 100
1, 209830, Note_on_c, 0, 76, 60
1, 209838, Control_c, 0, 64, 96
1, 209861, Control_c, 0, 64, 82
1, 209876, Note_off_c, 0, 76, 60
1, 209876, Control_c, 0, 64, 71
1, 209884, Note_off_c, 0, 74, 61
1, 209891, Control_c, 0, 64, 62
1, 209896, Note_off_c, 0, 80, 60
1, 209905, Control_c, 0, 64, 53
1, 209920, Control_c, 0, 64, 43
1, 209935, Control_c, 0, 64, 0
1, 210011, Note_on_c, 0, 74, 72
1, 210013, Note_on_c, 0, 80, 65
1, 210016, Note_on_c, 0, 76, 60
1, 210064, Note_off_c, 0, 74, 63
1, 210066, Note_off_c, 0, 76, 57
1, 210079, Note_off_c, 0, 80, 61
1, 210128, Control_c, 0, 64, 47
1, 210143, Control_c, 0, 64, 60
1, 210158, Control_c, 0, 64, 65
1, 210172, Control_c, 0, 64, 69
1, 210174, Note_on_c, 0, 74, 72
1, 210178, Note_on_c, 0, 76, 63
1, 210179, Note_on_c, 0, 80, 65
1, 210187, Control_c, 0, 64, 73
1, 210202, Control_c, 0, 64, 79
1, 210217, Control_c, 0, 64, 85
1, 210228, Note_off_c, 0, 74, 62
1, 210232, Control_c, 0, 64, 91
1, 210233, Note_off_c, 0, 80, 55
1, 210234, Note_off_c, 0, 76, 53
1, 210246, Control_c, 0, 64, 97
1, 210261, Control_c, 0, 64, 105
1, 210276, Control_c, 0, 64, 114
1, 210291, Control_c, 0, 64, 127
1, 210300, Note_off_c, 0, 52, 58
1, 210329, Note_on_c, 0, 74, 74
1, 210331, Note_on_c, 0, 80, 73
1, 210338, Note_on_c, 0, 76, 67
1, 210371, Note_off_c, 0, 76, 56
1, 210374, Note_off_c, 0, 74, 59
1, 210399, Note_off_c, 0, 80, 57
1, 210499, Note_on_c, 0, 52, 95
1, 210500, Note_on_c, 0, 81, 71
1, 210503, Note_on_c, 0, 76, 65
1, 210505, Note_on_c, 0, 72, 70
1, 210528, Control_c, 0, 64, 101
1, 210543, Control_c, 0, 64, 81
1, 210556, Note_off_c, 0, 72, 60
1, 210558, Control_c, 0, 64, 63
1, 210566, Note_off_c, 0, 76, 60
1, 210566, Note_off_c, 0, 81, 59
1, 210572, Control_c, 0, 64, 0
1, 210677, Note_on_c, 0, 72, 73
1, 210677, Note_on_c, 0, 81, 72
1, 210681, Note_on_c, 0, 76, 71
1, 210684, Control_c, 0, 64, 47
1, 210699, Control_c, 0, 64, 59
1, 210714, Control_c, 0, 64, 64
1, 210725, Note_off_c, 0, 72, 62
1, 210734, Note_off_c, 0, 76, 53
1, 210738, Note_off_c, 0, 81, 64
1, 210744, Control_c, 0, 64, 60
1, 210759, Control_c, 0, 64, 47
1, 210774, Control_c, 0, 64, 0
1, 210793, Note_off_c, 0, 52, 60
1, 210819, Control_c, 0, 64, 30
1, 210819, Note_on_c, 0, 50, 83
1, 210833, Control_c, 0, 64, 52
1, 210834, Note_on_c, 0, 72, 76
1, 210837, Note_on_c, 0, 81, 79
1, 210839, Note_on_c, 0, 76, 72
1, 210848, Control_c, 0, 64, 64
1, 210863, Control_c, 0, 64, 70
1, 210874, Note_off_c, 0, 76, 59
1, 210878, Control_c, 0, 64, 76
1, 210879, Note_off_c, 0, 72, 62
1, 210882, Note_off_c, 0, 50, 49
1, 210891, Note_off_c, 0, 81, 63
1, 210893, Control_c, 0, 64, 81
1, 210896, Note_on_c, 0, 48, 89
1, 210908, Control_c, 0, 64, 89
1, 210923, Control_c, 0, 64, 97
1, 210938, Control_c, 0, 64, 103
1, 210952, Control_c, 0, 64, 111
1, 210967, Control_c, 0, 64, 121
1, 210974, Note_on_c, 0, 47, 87
1, 210982, Control_c, 0, 64, 127
1, 210983, Note_on_c, 0, 76, 71
1, 210985, Note_on_c, 0, 72, 79
1, 210987, Note_on_c, 0, 81, 81
1, 211010, Note_off_c, 0, 48, 63
1, 211033, Note_off_c, 0, 72, 59
1, 211041, Note_off_c, 0, 76, 63
1, 211057, Note_on_c, 0, 45, 84
1, 211058, Note_off_c, 0, 81, 61
1, 211077, Note_off_c, 0, 47, 63
1, 211159, Control_c, 0, 64, 87
1, 211164, Note_on_c, 0, 77, 75
1, 211164, Note_on_c, 0, 83, 79
1, 211167, Note_on_c, 0, 74, 79
1, 211170, Note_on_c, 0, 43, 106
1, 211174, Control_c, 0, 64, 60
1, 211176, Note_off_c, 0, 45, 61
1, 211189, Control_c, 0, 64, 0
1, 211212, Note_off_c, 0, 74, 59
1, 211218, Note_off_c, 0, 77, 64
1, 211224, Note_off_c, 0, 83, 63
1, 211325, Note_on_c, 0, 74, 75
1, 211325, Note_on_c, 0, 77, 70
1, 211328, Note_on_c, 0, 83, 74
1, 211388, Note_off_c, 0, 74, 62
1, 211391, Note_off_c, 0, 77, 62
1, 211400, Note_off_c, 0, 83, 59
1, 211492, Control_c, 0, 64, 42
1, 211493, Note_on_c, 0, 74, 67
1, 211494, Note_on_c, 0, 83, 62
1, 211495, Note_on_c, 0, 77, 65
1, 211507, Control_c, 0, 64, 57
1, 211521, Control_c, 0, 64, 65
1, 211536, Control_c, 0, 64, 71
1, 211551, Control_c, 0, 64, 77
1, 211552, Note_off_c, 0, 74, 59
1, 211559, Note_off_c, 0, 77, 57
1, 211564, Note_off_c, 0, 83, 57
1, 211566, Control_c, 0, 64, 83
1, 211582, Control_c, 0, 64, 89
1, 211597, Control_c, 0, 64, 99
1, 211597, Note_off_c, 0, 43, 56
1, 211611, Control_c, 0, 64, 113
1, 211626, Control_c, 0, 64, 127
1, 211659, Note_on_c, 0, 77, 66
1, 211659, Note_on_c, 0, 74, 72
1, 211663, Note_on_c, 0, 83, 67
1, 211701, Note_off_c, 0, 77, 58
1, 211707, Note_off_c, 0, 74, 54
1, 211737, Note_off_c, 0, 83, 59
1, 211819, Note_on_c, 0, 42, 90
1, 211832, Note_on_c, 0, 74, 70
1, 211832, Note_on_c, 0, 83, 78
1, 211833, Control_c, 0, 64, 70
1, 211838, Note_on_c, 0, 78, 68
1, 211848, Control_c, 0, 64, 33
1, 211863, Control_c, 0, 64, 0
1, 211875, Note_off_c, 0, 74, 61
1, 211889, Note_off_c, 0, 78, 57
1, 211893, Note_off_c, 0, 83, 61
1, 211907, Control_c, 0, 64, 42
1, 211922, Control_c, 0, 64, 60
1, 211937, Control_c, 0, 64, 68
1, 211951, Control_c, 0, 64, 75
1, 211966, Control_c, 0, 64, 81
1, 211981, Control_c, 0, 64, 85
1, 211987, Note_on_c, 0, 74, 72
1, 211991, Note_on_c, 0, 83, 68
1, 211993, Note_on_c, 0, 78, 69
1, 211996, Control_c, 0, 64, 90
1, 212011, Control_c, 0, 64, 96
1, 212024, Note_off_c, 0, 74, 58
1, 212026, Control_c, 0, 64, 102
1, 212041, Control_c, 0, 64, 110
1, 212046, Note_off_c, 0, 83, 55
1, 212056, Control_c, 0, 64, 127
1, 212065, Note_off_c, 0, 78, 53
1, 212122, Note_off_c, 0, 42, 60
1, 212151, Control_c, 0, 64, 74
1, 212157, Note_on_c, 0, 43, 98
1, 212158, Note_on_c, 0, 83, 78
1, 212166, Control_c, 0, 64, 32
1, 212173, Note_on_c, 0, 76, 68
1, 212180, Note_on_c, 0, 73, 62
1, 212181, Control_c, 0, 64, 0
1, 212211, Control_c, 0, 64, 40
1, 212212, Note_off_c, 0, 73, 65
1, 212212, Note_off_c, 0, 76, 58
1, 212217, Note_off_c, 0, 83, 62
1, 212225, Control_c, 0, 64, 68
1, 212236, Note_on_c, 0, 45, 90
1, 212240, Note_off_c, 0, 43, 64
1, 212240, Control_c, 0, 64, 110
1, 212255, Control_c, 0, 64, 127
1, 212258, Poly_aftertouch_c, 0, 42, 0
1, 212314, Note_on_c, 0, 83, 73
1, 212315, Note_on_c, 0, 47, 80
1, 212317, Note_on_c, 0, 76, 62
1, 212318, Note_off_c, 0, 45, 63
1, 212322, Note_on_c, 0, 73, 58
1, 212329, Control_c, 0, 64, 76
1, 212343, Control_c, 0, 64, 51
1, 212357, Note_off_c, 0, 76, 59
1, 212358, Control_c, 0, 64, 0
1, 212369, Note_off_c, 0, 73, 56
1, 212387, Note_off_c, 0, 83, 59
1, 212392, Note_on_c, 0, 43, 86
1, 212403, Note_off_c, 0, 47, 62
1, 212481, Note_on_c, 0, 42, 89
1, 212504, Note_on_c, 0, 74, 72
1, 212504, Note_on_c, 0, 78, 69
1, 212504, Note_on_c, 0, 83, 70
1, 212508, Note_off_c, 0, 43, 59
1, 212549, Note_off_c, 0, 74, 59
1, 212551, Note_off_c, 0, 78, 56
1, 212563, Note_off_c, 0, 83, 60
1, 212663, Note_on_c, 0, 78, 63
1, 212666, Note_on_c, 0, 74, 63
1, 212668, Note_on_c, 0, 83, 66
1, 212697, Note_off_c, 0, 74, 65
1, 212717, Note_off_c, 0, 83, 58
1, 212733, Note_off_c, 0, 78, 56
1, 212787, Note_off_c, 0, 42, 62
1, 212819, Control_c, 0, 64, 39
1, 212821, Note_on_c, 0, 83, 80
1, 212824, Note_on_c, 0, 43, 89
1, 212827, Note_on_c, 0, 73, 74
1, 212828, Note_on_c, 0, 76, 71
1, 212834, Control_c, 0, 64, 83
1, 212855, Control_c, 0, 64, 127
1, 212869, Note_off_c, 0, 73, 60
1, 212886, Note_off_c, 0, 83, 63
1, 212896, Note_off_c, 0, 76, 61
1, 212909, Note_off_c, 0, 43, 63
1, 212914, Note_on_c, 0, 45, 88
1, 212981, Note_on_c, 0, 73, 69
1, 212982, Note_on_c, 0, 76, 62
1, 212983, Note_on_c, 0, 83, 75
1, 212989, Note_off_c, 0, 45, 63
1, 212991, Note_on_c, 0, 47, 84
1, 213016, Note_off_c, 0, 73, 61
1, 213021, Note_off_c, 0, 76, 65
1, 213033, Control_c, 0, 64, 111
1, 213045, Note_off_c, 0, 83, 60
1, 213048, Control_c, 0, 64, 91
1, 213063, Control_c, 0, 64, 80
1, 213075, Note_on_c, 0, 43, 88
1, 213078, Control_c, 0, 64, 73
1, 213082, Note_off_c, 0, 47, 64
1, 213092, Control_c, 0, 64, 67
1, 213107, Control_c, 0, 64, 63
1, 213122, Control_c, 0, 64, 60
1, 213137, Control_c, 0, 64, 59
1, 213150, Note_on_c, 0, 83, 71
1, 213152, Control_c, 0, 64, 58
1, 213154, Note_on_c, 0, 42, 97
1, 213155, Note_on_c, 0, 74, 64
1, 213159, Note_on_c, 0, 78, 59
1, 213182, Control_c, 0, 64, 56
1, 213184, Note_off_c, 0, 43, 62
1, 213189, Note_off_c, 0, 74, 62
1, 213194, Note_off_c, 0, 78, 60
1, 213197, Control_c, 0, 64, 55
1, 213212, Control_c, 0, 64, 53
1, 213217, Note_off_c, 0, 83, 61
1, 213227, Control_c, 0, 64, 53
1, 213301, Control_c, 0, 64, 52
1, 213319, Note_on_c, 0, 74, 73
1, 213323, Note_on_c, 0, 83, 75
1, 213326, Note_on_c, 0, 78, 66
1, 213331, Control_c, 0, 64, 53
1, 213344, Note_off_c, 0, 74, 64
1, 213358, Note_off_c, 0, 78, 63
1, 213381, Note_off_c, 0, 83, 62
1, 213474, Note_off_c, 0, 42, 64
1, 213483, Note_on_c, 0, 40, 77
1, 213498, Note_on_c, 0, 85, 75
1, 213498, Note_on_c, 0, 79, 72
1, 213501, Note_on_c, 0, 83, 72
1, 213552, Note_off_c, 0, 79, 60
1, 213552, Note_off_c, 0, 83, 56
1, 213561, Note_off_c, 0, 85, 61
1, 213567, Control_c, 0, 64, 53
1, 213573, Note_on_c, 0, 38, 82
1, 213575, Note_off_c, 0, 40, 61
1, 213659, Note_on_c, 0, 37, 88
1, 213667, Note_on_c, 0, 85, 75
1, 213669, Note_off_c, 0, 38, 63
1, 213670, Note_on_c, 0, 79, 65
1, 213677, Note_on_c, 0, 83, 59
1, 213709, Note_off_c, 0, 83, 64
1, 213713, Note_off_c, 0, 79, 63
1, 213738, Note_off_c, 0, 85, 60
1, 213754, Note_on_c, 0, 38, 87
1, 213764, Note_off_c, 0, 37, 63
1, 213782, Control_c, 0, 64, 54
1, 213865, Note_on_c, 0, 86, 65
1, 213871, Note_off_c, 0, 38, 63
1, 213872, Note_on_c, 0, 35, 90
1, 213880, Note_on_c, 0, 78, 56
1, 213885, Control_c, 0, 64, 54
1, 213889, Note_on_c, 0, 83, 43
1, 213918, Note_off_c, 0, 78, 59
1, 213925, Note_off_c, 0, 83, 50
1, 213946, Note_off_c, 0, 86, 61
1, 214046, Note_on_c, 0, 83, 53
1, 214049, Note_on_c, 0, 78, 53
1, 214055, Note_on_c, 0, 86, 64
1, 214087, Note_off_c, 0, 78, 59
1, 214095, Note_off_c, 0, 86, 61
1, 214104, Note_off_c, 0, 83, 58
1, 214112, Note_off_c, 0, 35, 63
1, 214215, Note_on_c, 0, 35, 76
1, 214224, Note_on_c, 0, 83, 54
1, 214226, Note_on_c, 0, 79, 56
1, 214228, Note_on_c, 0, 88, 59
1, 214256, Control_c, 0, 64, 54
1, 214263, Note_off_c, 0, 79, 61
1, 214269, Note_off_c, 0, 83, 60
1, 214269, Note_off_c, 0, 88, 63
1, 214387, Note_on_c, 0, 88, 65
1, 214388, Note_on_c, 0, 79, 58
1, 214399, Note_on_c, 0, 83, 51
1, 214413, Control_c, 0, 64, 54
1, 214435, Note_off_c, 0, 79, 61
1, 214435, Note_off_c, 0, 83, 63
1, 214446, Note_off_c, 0, 88, 63
1, 214464, Note_off_c, 0, 35, 61
1, 214557, Note_on_c, 0, 86, 66
1, 214558, Note_on_c, 0, 83, 50
1, 214566, Note_on_c, 0, 78, 61
1, 214572, Note_on_c, 0, 35, 74
1, 214583, Note_off_c, 0, 83, 64
1, 214583, Note_off_c, 0, 86, 70
1, 214592, Note_off_c, 0, 78, 64
1, 214738, Note_on_c, 0, 71, 55
1, 214740, Note_on_c, 0, 78, 45
1, 214750, Note_on_c, 0, 74, 43
1, 214770, Note_off_c, 0, 71, 63
1, 214772, Note_off_c, 0, 78, 60
1, 214777, Note_off_c, 0, 74, 55
1, 214873, Control_c, 0, 64, 55
1, 214894, Note_on_c, 0, 74, 49
1, 214897, Note_on_c, 0, 71, 60
1, 214900, Note_on_c, 0, 78, 48
1, 214932, Note_off_c, 0, 71, 60
1, 214932, Note_off_c, 0, 74, 63
1, 214940, Note_off_c, 0, 78, 61
1, 215054, Note_on_c, 0, 71, 54
1, 215057, Note_on_c, 0, 78, 49
1, 215062, Note_on_c, 0, 74, 48
1, 215098, Note_off_c, 0, 74, 59
1, 215099, Note_off_c, 0, 71, 60
1, 215108, Note_off_c, 0, 78, 59
1, 215147, Control_c, 0, 64, 55
1, 215176, Control_c, 0, 64, 56
1, 215191, Control_c, 0, 64, 55
1, 215206, Control_c, 0, 64, 53
1, 215221, Control_c, 0, 64, 50
1, 215226, Note_off_c, 0, 35, 62
1, 215232, Note_on_c, 0, 71, 59
1, 215232, Note_on_c, 0, 78, 53
1, 215233, Note_on_c, 0, 74, 50
1, 215236, Control_c, 0, 64, 41
1, 215250, Control_c, 0, 64, 0
1, 215269, Note_off_c, 0, 71, 58
1, 215270, Note_off_c, 0, 74, 63
1, 215272, Note_off_c, 0, 78, 59
1, 215384, Note_on_c, 0, 71, 58
1, 215388, Note_on_c, 0, 74, 55
1, 215390, Note_on_c, 0, 78, 54
1, 215423, Note_off_c, 0, 71, 60
1, 215424, Note_off_c, 0, 74, 64
1, 215427, Note_off_c, 0, 78, 59
1, 215543, Note_on_c, 0, 71, 58
1, 215545, Note_on_c, 0, 74, 56
1, 215545, Note_on_c, 0, 78, 51
1, 215586, Note_off_c, 0, 74, 62
1, 215591, Note_off_c, 0, 78, 58
1, 215592, Note_off_c, 0, 71, 58
1, 215710, Note_on_c, 0, 78, 55
1, 215712, Note_on_c, 0, 71, 59
1, 215714, Note_on_c, 0, 74, 55
1, 215752, Note_off_c, 0, 74, 63
1, 215755, Note_off_c, 0, 78, 57
1, 215759, Note_off_c, 0, 71, 55
1, 215865, Control_c, 0, 64, 37
1, 215880, Control_c, 0, 64, 47
1, 215886, Note_on_c, 0, 78, 53
1, 215892, Note_on_c, 0, 74, 55
1, 215893, Note_on_c, 0, 71, 56
1, 215895, Control_c, 0, 64, 53
1, 215910, Control_c, 0, 64, 55
1, 215914, Note_on_c, 0, 59, 78
1, 215925, Control_c, 0, 64, 56
1, 215940, Control_c, 0, 64, 57
1, 215941, Note_off_c, 0, 74, 56
1, 215942, Note_off_c, 0, 71, 55
1, 215955, Control_c, 0, 64, 59
1, 215958, Note_off_c, 0, 78, 57
1, 215970, Control_c, 0, 64, 60
1, 215984, Control_c, 0, 64, 62
1, 215999, Control_c, 0, 64, 63
1, 216014, Control_c, 0, 64, 64
1, 216029, Control_c, 0, 64, 65
1, 216044, Control_c, 0, 64, 66
1, 216059, Control_c, 0, 64, 67
1, 216067, Note_on_c, 0, 74, 60
1, 216068, Note_on_c, 0, 71, 60
1, 216073, Control_c, 0, 64, 68
1, 216078, Note_on_c, 0, 78, 57
1, 216088, Control_c, 0, 64, 69
1, 216112, Note_off_c, 0, 71, 56
1, 216112, Note_off_c, 0, 74, 56
1, 216117, Control_c, 0, 64, 70
1, 216119, Note_off_c, 0, 78, 56
1, 216210, Note_off_c, 0, 59, 63
1, 216235, Note_on_c, 0, 78, 60
1, 216236, Note_on_c, 0, 57, 66
1, 216238, Note_on_c, 0, 71, 63
1, 216240, Note_on_c, 0, 74, 60
1, 216273, Note_off_c, 0, 57, 62
1, 216275, Note_off_c, 0, 71, 58
1, 216276, Note_off_c, 0, 74, 62
1, 216297, Note_off_c, 0, 78, 57
1, 216307, Note_on_c, 0, 55, 79
1, 216387, Note_on_c, 0, 54, 77
1, 216387, Note_on_c, 0, 71, 63
1, 216391, Note_on_c, 0, 74, 63
1, 216400, Note_on_c, 0, 78, 55
1, 216400, Control_c, 0, 64, 69
1, 216414, Control_c, 0, 64, 69
1, 216420, Note_off_c, 0, 71, 62
1, 216422, Note_off_c, 0, 55, 58
1, 216426, Note_off_c, 0, 74, 60
1, 216429, Control_c, 0, 64, 68
1, 216441, Note_off_c, 0, 78, 60
1, 216444, Control_c, 0, 64, 67
1, 216459, Control_c, 0, 64, 66
1, 216474, Control_c, 0, 64, 65
1, 216476, Note_off_c, 0, 54, 64
1, 216476, Note_on_c, 0, 52, 75
1, 216488, Control_c, 0, 64, 63
1, 216503, Control_c, 0, 64, 62
1, 216518, Control_c, 0, 64, 61
1, 216533, Control_c, 0, 64, 60
1, 216548, Control_c, 0, 64, 59
1, 216548, Note_on_c, 0, 72, 63
1, 216550, Note_on_c, 0, 74, 58
1, 216551, Note_on_c, 0, 78, 61
1, 216562, Note_off_c, 0, 52, 63
1, 216563, Control_c, 0, 64, 58
1, 216565, Note_on_c, 0, 50, 78
1, 216578, Control_c, 0, 64, 57
1, 216594, Note_off_c, 0, 74, 64
1, 216595, Note_off_c, 0, 72, 59
1, 216600, Control_c, 0, 64, 56
1, 216607, Note_off_c, 0, 78, 55
1, 216614, Control_c, 0, 64, 55
1, 216650, Note_on_c, 0, 52, 75
1, 216677, Note_off_c, 0, 50, 64
1, 216712, Note_on_c, 0, 72, 69
1, 216716, Note_on_c, 0, 78, 64
1, 216717, Note_on_c, 0, 74, 65
1, 216723, Note_on_c, 0, 54, 79
1, 216751, Note_off_c, 0, 74, 62
1, 216756, Note_off_c, 0, 52, 63
1, 216758, Note_off_c, 0, 72, 62
1, 216771, Note_off_c, 0, 78, 55
1, 216792, Control_c, 0, 64, 56
1, 216796, Note_on_c, 0, 55, 86
1, 216807, Note_off_c, 0, 54, 64
1, 216837, Control_c, 0, 64, 56
1, 216867, Control_c, 0, 64, 57
1, 216876, Note_on_c, 0, 72, 72
1, 216877, Note_on_c, 0, 57, 92
1, 216879, Note_on_c, 0, 78, 68
1, 216882, Control_c, 0, 64, 57
1, 216883, Note_on_c, 0, 74, 64
1, 216888, Note_off_c, 0, 55, 63
1, 216916, Note_off_c, 0, 74, 63
1, 216921, Note_off_c, 0, 72, 63
1, 216925, Note_off_c, 0, 57, 66
1, 216926, Control_c, 0, 64, 58
1, 216937, Note_off_c, 0, 78, 60
1, 216956, Note_on_c, 0, 59, 87
1, 217014, Control_c, 0, 64, 57
1, 217022, Note_on_c, 0, 72, 68
1, 217026, Note_on_c, 0, 74, 64
1, 217028, Note_off_c, 0, 59, 69
1, 217028, Note_on_c, 0, 78, 62
1, 217029, Note_on_c, 0, 60, 89
1, 217076, Note_off_c, 0, 72, 59
1, 217078, Note_off_c, 0, 74, 50
1, 217102, Note_on_c, 0, 62, 85
1, 217104, Note_off_c, 0, 60, 65
1, 217113, Note_off_c, 0, 78, 58
1, 217141, Note_off_c, 0, 62, 66
1, 217193, Control_c, 0, 64, 57
1, 217212, Note_on_c, 0, 74, 65
1, 217213, Note_on_c, 0, 79, 68
1, 217216, Note_on_c, 0, 62, 91
1, 217221, Note_on_c, 0, 71, 61
1, 217223, Control_c, 0, 64, 56
1, 217237, Control_c, 0, 64, 55
1, 217249, Note_off_c, 0, 74, 58
1, 217252, Control_c, 0, 64, 55
1, 217254, Note_off_c, 0, 71, 62
1, 217267, Control_c, 0, 64, 54
1, 217282, Control_c, 0, 64, 54
1, 217283, Note_off_c, 0, 79, 59
1, 217349, Control_c, 0, 64, 54
1, 217382, Note_on_c, 0, 74, 63
1, 217387, Note_on_c, 0, 71, 58
1, 217392, Note_on_c, 0, 79, 59
1, 217408, Control_c, 0, 64, 55
1, 217424, Note_off_c, 0, 71, 61
1, 217427, Note_off_c, 0, 74, 54
1, 217433, Note_off_c, 0, 79, 58
1, 217467, Control_c, 0, 64, 54
1, 217503, Note_off_c, 0, 62, 63
1, 217526, Control_c, 0, 64, 55
1, 217530, Note_on_c, 0, 60, 66
1, 217541, Control_c, 0, 64, 55
1, 217544, Note_on_c, 0, 79, 65
1, 217548, Note_on_c, 0, 71, 68
1, 217548, Note_on_c, 0, 74, 65
1, 217555, Control_c, 0, 64, 56
1, 217570, Control_c, 0, 64, 57
1, 217588, Note_off_c, 0, 74, 55
1, 217589, Note_off_c, 0, 71, 62
1, 217597, Note_off_c, 0, 60, 60
1, 217600, Note_on_c, 0, 59, 79
1, 217613, Note_off_c, 0, 79, 60
1, 217686, Note_on_c, 0, 57, 79
1, 217707, Note_on_c, 0, 71, 67
1, 217707, Note_on_c, 0, 74, 66
1, 217713, Note_on_c, 0, 79, 66
1, 217729, Note_off_c, 0, 59, 64
1, 217737, Note_off_c, 0, 71, 63
1, 217746, Note_off_c, 0, 74, 60
1, 217770, Note_on_c, 0, 55, 87
1, 217775, Note_off_c, 0, 79, 63
1, 217776, Note_off_c, 0, 57, 65
1, 217841, Note_off_c, 0, 55, 61
1, 217854, Note_on_c, 0, 53, 90
1, 217865, Note_on_c, 0, 81, 77
1, 217866, Note_on_c, 0, 72, 77
1, 217871, Note_on_c, 0, 75, 71
1, 217910, Note_off_c, 0, 75, 55
1, 217913, Note_off_c, 0, 72, 61
1, 217926, Note_off_c, 0, 81, 64
1, 217934, Note_on_c, 0, 52, 88
1, 217945, Note_off_c, 0, 53, 63
1, 218022, Note_on_c, 0, 50, 83
1, 218026, Note_on_c, 0, 72, 79
1, 218026, Note_on_c, 0, 81, 79
1, 218027, Note_on_c, 0, 75, 75
1, 218062, Note_off_c, 0, 52, 64
1, 218073, Note_off_c, 0, 72, 62
1, 218090, Note_off_c, 0, 75, 62
1, 218098, Note_off_c, 0, 81, 62
1, 218112, Note_on_c, 0, 48, 91
1, 218123, Note_off_c, 0, 50, 64
1, 218157, Control_c, 0, 64, 56
1, 218172, Control_c, 0, 64, 56
1, 218178, Note_off_c, 0, 48, 63
1, 218186, Control_c, 0, 64, 55
1, 218190, Note_on_c, 0, 47, 89
1, 218191, Note_on_c, 0, 72, 82
1, 218191, Note_on_c, 0, 81, 85
1, 218197, Note_on_c, 0, 75, 77
1, 218201, Control_c, 0, 64, 53
1, 218216, Control_c, 0, 64, 52
1, 218231, Control_c, 0, 64, 49
1, 218235, Note_off_c, 0, 72, 63
1, 218237, Note_off_c, 0, 75, 53
1, 218246, Control_c, 0, 64, 45
1, 218254, Note_off_c, 0, 81, 62
1, 218260, Control_c, 0, 64, 38
1, 218268, Note_on_c, 0, 45, 85
1, 218275, Note_off_c, 0, 47, 64
1, 218275, Control_c, 0, 64, 28
1, 218290, Control_c, 0, 64, 0
1, 218348, Note_on_c, 0, 43, 81
1, 218348, Note_on_c, 0, 72, 76
1, 218348, Note_on_c, 0, 75, 75
1, 218348, Note_on_c, 0, 81, 81
1, 218385, Note_off_c, 0, 45, 61
1, 218402, Note_off_c, 0, 75, 62
1, 218407, Note_off_c, 0, 72, 54
1, 218418, Note_on_c, 0, 41, 85
1, 218438, Note_off_c, 0, 81, 60
1, 218440, Note_off_c, 0, 43, 63
1, 218524, Note_on_c, 0, 40, 98
1, 218527, Note_on_c, 0, 72, 79
1, 218527, Note_off_c, 0, 41, 65
1, 218530, Note_on_c, 0, 76, 74
1, 218530, Note_on_c, 0, 81, 78
1, 218572, Control_c, 0, 64, 31
1, 218572, Note_off_c, 0, 72, 66
1, 218578, Note_off_c, 0, 76, 59
1, 218586, Control_c, 0, 64, 61
1, 218587, Note_off_c, 0, 81, 62
1, 218601, Control_c, 0, 64, 68
1, 218616, Control_c, 0, 64, 73
1, 218631, Control_c, 0, 64, 78
1, 218646, Control_c, 0, 64, 82
1, 218660, Control_c, 0, 64, 84
1, 218675, Control_c, 0, 64, 84
1, 218686, Note_on_c, 0, 72, 70
1, 218688, Note_on_c, 0, 76, 72
1, 218690, Note_on_c, 0, 81, 71
1, 218690, Control_c, 0, 64, 85
1, 218704, Control_c, 0, 64, 85
1, 218718, Note_off_c, 0, 72, 56
1, 218734, Control_c, 0, 64, 86
1, 218749, Control_c, 0, 64, 86
1, 218756, Note_off_c, 0, 76, 58
1, 218757, Note_off_c, 0, 81, 53
1, 218765, Control_c, 0, 64, 87
1, 218780, Control_c, 0, 64, 88
1, 218795, Control_c, 0, 64, 92
1, 218809, Control_c, 0, 64, 108
1, 218824, Control_c, 0, 64, 127
1, 218846, Note_off_c, 0, 40, 60
1, 218870, Note_on_c, 0, 41, 97
1, 218875, Note_on_c, 0, 81, 78
1, 218876, Control_c, 0, 64, 88
1, 218881, Note_on_c, 0, 71, 85
1, 218882, Note_on_c, 0, 74, 83
1, 218891, Control_c, 0, 64, 60
1, 218906, Control_c, 0, 64, 0
1, 218924, Note_off_c, 0, 71, 61
1, 218933, Note_off_c, 0, 74, 62
1, 218950, Control_c, 0, 64, 33
1, 218951, Note_off_c, 0, 81, 58
1, 218953, Note_on_c, 0, 43, 91
1, 218960, Note_off_c, 0, 41, 66
1, 218965, Control_c, 0, 64, 45
1, 218980, Control_c, 0, 64, 47
1, 218995, Control_c, 0, 64, 46
1, 219033, Note_on_c, 0, 45, 79
1, 219033, Note_on_c, 0, 81, 69
1, 219034, Note_on_c, 0, 71, 72
1, 219039, Control_c, 0, 64, 47
1, 219041, Note_on_c, 0, 74, 66
1, 219046, Note_off_c, 0, 43, 62
1, 219069, Control_c, 0, 64, 46
1, 219073, Note_off_c, 0, 71, 61
1, 219076, Note_off_c, 0, 74, 62
1, 219098, Control_c, 0, 64, 47
1, 219104, Note_off_c, 0, 81, 60
1, 219117, Note_on_c, 0, 41, 88
1, 219126, Note_off_c, 0, 45, 62
1, 219172, Control_c, 0, 64, 47
1, 219196, Note_on_c, 0, 40, 84
1, 219198, Note_on_c, 0, 72, 71
1, 219201, Note_on_c, 0, 81, 71
1, 219202, Note_on_c, 0, 76, 67
1, 219216, Note_off_c, 0, 41, 65
1, 219216, Control_c, 0, 64, 47
1, 219231, Control_c, 0, 64, 44
1, 219237, Note_off_c, 0, 72, 59
1, 219243, Note_off_c, 0, 76, 59
1, 219246, Control_c, 0, 64, 34
1, 219261, Control_c, 0, 64, 0
1, 219263, Note_off_c, 0, 81, 63
1, 219365, Note_on_c, 0, 72, 73
1, 219366, Note_on_c, 0, 76, 70
1, 219368, Note_on_c, 0, 81, 72
1, 219407, Note_off_c, 0, 72, 60
1, 219421, Note_off_c, 0, 81, 55
1, 219431, Note_off_c, 0, 76, 61
1, 219522, Note_on_c, 0, 41, 92
1, 219523, Note_on_c, 0, 81, 82
1, 219527, Control_c, 0, 64, 53
1, 219528, Note_on_c, 0, 71, 77
1, 219529, Note_on_c, 0, 74, 78
1, 219541, Note_off_c, 0, 40, 59
1, 219542, Control_c, 0, 64, 127
1, 219572, Note_off_c, 0, 71, 59
1, 219597, Note_off_c, 0, 74, 59
1, 219606, Note_off_c, 0, 81, 60
1, 219612, Note_on_c, 0, 43, 87
1, 219618, Note_off_c, 0, 41, 64
1, 219682, Note_on_c, 0, 71, 77
1, 219682, Note_on_c, 0, 74, 67
1, 219686, Note_on_c, 0, 81, 75
1, 219688, Note_on_c, 0, 45, 84
1, 219705, Note_off_c, 0, 43, 61
1, 219730, Note_off_c, 0, 71, 61
1, 219738, Note_off_c, 0, 74, 64
1, 219758, Control_c, 0, 64, 106
1, 219768, Note_off_c, 0, 81, 62
1, 219773, Control_c, 0, 64, 91
1, 219777, Note_on_c, 0, 41, 91
1, 219787, Note_off_c, 0, 45, 61
1, 219788, Control_c, 0, 64, 80
1, 219803, Control_c, 0, 64, 71
1, 219818, Control_c, 0, 64, 63
1, 219832, Control_c, 0, 64, 57
1, 219847, Control_c, 0, 64, 54
1, 219851, Note_on_c, 0, 40, 95
1, 219851, Note_on_c, 0, 79, 66
1, 219854, Note_on_c, 0, 72, 65
1, 219860, Note_on_c, 0, 76, 63
1, 219862, Control_c, 0, 64, 53
1, 219877, Control_c, 0, 64, 53
1, 219884, Note_off_c, 0, 41, 63
1, 219889, Note_off_c, 0, 72, 58
1, 219890, Note_off_c, 0, 76, 63
1, 219906, Control_c, 0, 64, 52
1, 219907, Note_off_c, 0, 79, 61
1, 219921, Control_c, 0, 64, 51
1, 219936, Control_c, 0, 64, 51
1, 220012, Note_on_c, 0, 72, 67
1, 220017, Note_on_c, 0, 79, 72
1, 220018, Note_on_c, 0, 76, 75
1, 220036, Note_off_c, 0, 72, 66
1, 220039, Control_c, 0, 64, 51
1, 220047, Note_off_c, 0, 76, 65
1, 220066, Note_off_c, 0, 79, 63
1, 220128, Control_c, 0, 64, 52
1, 220186, Note_off_c, 0, 40, 62
1, 220189, Note_on_c, 0, 77, 85
1, 220191, Note_on_c, 0, 38, 86
1, 220191, Note_on_c, 0, 79, 81
1, 220193, Note_on_c, 0, 83, 78
1, 220217, Control_c, 0, 64, 51
1, 220232, Control_c, 0, 64, 51
1, 220243, Note_off_c, 0, 77, 60
1, 220247, Note_off_c, 0, 83, 60
1, 220247, Control_c, 0, 64, 50
1, 220249, Note_off_c, 0, 79, 64
1, 220276, Control_c, 0, 64, 50
1, 220280, Note_on_c, 0, 40, 84
1, 220291, Control_c, 0, 64, 49
1, 220305, Note_off_c, 0, 38, 62
1, 220306, Control_c, 0, 64, 49
1, 220321, Control_c, 0, 64, 48
1, 220354, Note_on_c, 0, 41, 88
1, 220354, Note_off_c, 0, 40, 64
1, 220362, Note_on_c, 0, 83, 81
1, 220363, Note_on_c, 0, 77, 83
1, 220368, Note_on_c, 0, 79, 75
1, 220414, Note_off_c, 0, 77, 62
1, 220426, Note_off_c, 0, 79, 58
1, 220441, Note_off_c, 0, 83, 60
1, 220450, Note_on_c, 0, 38, 85
1, 220477, Note_off_c, 0, 41, 65
1, 220567, Note_on_c, 0, 36, 94
1, 220575, Note_on_c, 0, 84, 73
1, 220581, Note_on_c, 0, 76, 74
1, 220584, Note_on_c, 0, 79, 65
1, 220605, Note_off_c, 0, 38, 62
1, 220619, Note_off_c, 0, 76, 61
1, 220625, Note_off_c, 0, 79, 60
1, 220642, Note_off_c, 0, 84, 62
1, 220763, Note_on_c, 0, 84, 72
1, 220769, Note_on_c, 0, 76, 66
1, 220775, Control_c, 0, 64, 49
1, 220777, Note_on_c, 0, 79, 48
1, 220798, Note_off_c, 0, 76, 66
1, 220805, Note_off_c, 0, 79, 66
1, 220824, Note_off_c, 0, 84, 63
1, 220855, Note_off_c, 0, 36, 60
1, 220943, Note_on_c, 0, 84, 65
1, 220948, Note_on_c, 0, 77, 69
1, 220952, Note_on_c, 0, 80, 60
1, 220961, Note_on_c, 0, 36, 72
1, 220981, Control_c, 0, 64, 48
1, 220995, Note_off_c, 0, 77, 61
1, 221001, Note_off_c, 0, 80, 55
1, 221004, Note_off_c, 0, 84, 59
1, 221011, Control_c, 0, 64, 47
1, 221026, Control_c, 0, 64, 47
1, 221041, Control_c, 0, 64, 45
1, 221055, Control_c, 0, 64, 42
1, 221070, Control_c, 0, 64, 34
1, 221093, Control_c, 0, 64, 0
1, 221135, Note_on_c, 0, 80, 62
1, 221137, Note_on_c, 0, 77, 68
1, 221139, Note_on_c, 0, 84, 63
1, 221171, Note_off_c, 0, 77, 61
1, 221180, Note_off_c, 0, 80, 58
1, 221180, Note_off_c, 0, 84, 55
1, 221197, Note_off_c, 0, 36, 55
1, 221316, Control_c, 0, 64, 44
1, 221330, Control_c, 0, 64, 62
1, 221335, Note_on_c, 0, 84, 62
1, 221341, Note_on_c, 0, 36, 61
1, 221343, Note_on_c, 0, 76, 56
1, 221345, Control_c, 0, 64, 69
1, 221351, Note_on_c, 0, 79, 45
1, 221360, Control_c, 0, 64, 76
1, 221360, Control_c, 0, 67, 34
1, 221371, Note_off_c, 0, 36, 63
1, 221375, Control_c, 0, 64, 81
1, 221375, Control_c, 0, 67, 44
1, 221390, Control_c, 0, 64, 87
1, 221390, Control_c, 0, 67, 53
1, 221404, Control_c, 0, 64, 92
1, 221404, Control_c, 0, 67, 60
1, 221419, Control_c, 0, 64, 96
1, 221419, Control_c, 0, 67, 68
1, 221434, Control_c, 0, 64, 98
1, 221434, Control_c, 0, 67, 86
1, 221449, Control_c, 0, 67, 106
1, 221464, Control_c, 0, 67, 123
1, 221478, Control_c, 0, 67, 127
1, 221583, Control_c, 0, 64, 95
1, 221595, Note_on_c, 0, 67, 51
1, 221598, Control_c, 0, 64, 89
1, 221603, Note_on_c, 0, 60, 35
1, 221606, Note_on_c, 0, 64, 38
1, 221612, Control_c, 0, 64, 84
1, 221626, Note_off_c, 0, 67, 57
1, 221627, Control_c, 0, 64, 78
1, 221638, Note_off_c, 0, 60, 49
1, 221639, Note_off_c, 0, 64, 53
1, 221642, Control_c, 0, 64, 71
1, 221656, Control_c, 0, 64, 65
1, 221671, Control_c, 0, 64, 58
1, 221686, Control_c, 0, 64, 51
1, 221701, Control_c, 0, 64, 46
1, 221716, Control_c, 0, 64, 42
1, 221730, Control_c, 0, 64, 42
1, 221767, Note_on_c, 0, 64, 39
1, 221774, Note_on_c, 0, 60, 36
1, 221774, Note_on_c, 0, 67, 43
1, 221775, Control_c, 0, 64, 41
1, 221790, Control_c, 0, 64, 41
1, 221804, Control_c, 0, 64, 40
1, 221809, Note_off_c, 0, 60, 59
1, 221809, Note_off_c, 0, 64, 61
1, 221809, Note_off_c, 0, 67, 57
1, 221819, Control_c, 0, 64, 38
1, 221842, Control_c, 0, 64, 37
1, 221856, Control_c, 0, 64, 36
1, 221871, Control_c, 0, 64, 35
1, 221934, Note_on_c, 0, 64, 46
1, 221937, Note_on_c, 0, 67, 46
1, 221943, Note_on_c, 0, 60, 41
1, 221977, Note_off_c, 0, 64, 61
1, 221978, Note_off_c, 0, 60, 60
1, 221979, Note_off_c, 0, 67, 60
1, 222071, Note_off_c, 0, 84, 59
1, 222098, Note_off_c, 0, 76, 55
1, 222103, Note_off_c, 0, 79, 54
1, 222104, Note_on_c, 0, 67, 47
1, 222108, Note_on_c, 0, 60, 43
1, 222114, Note_on_c, 0, 64, 36
1, 222147, Note_off_c, 0, 60, 63
1, 222147, Note_off_c, 0, 67, 59
1, 222148, Note_off_c, 0, 64, 55
1, 222269, Note_on_c, 0, 67, 46
1, 222271, Note_on_c, 0, 60, 42
1, 222276, Note_on_c, 0, 64, 34
1, 222310, Note_off_c, 0, 67, 59
1, 222313, Note_off_c, 0, 60, 62
1, 222315, Note_off_c, 0, 64, 51
1, 222345, Control_c, 0, 64, 36
1, 222442, Note_on_c, 0, 60, 39
1, 222447, Note_on_c, 0, 67, 40
1, 222459, Note_on_c, 0, 64, 18
1, 222486, Note_off_c, 0, 60, 60
1, 222490, Note_off_c, 0, 67, 48
1, 222498, Note_off_c, 0, 64, 50
1, 222567, Control_c, 0, 64, 37
1, 222590, Control_c, 0, 64, 38
1, 222605, Control_c, 0, 64, 40
1, 222620, Control_c, 0, 64, 44
1, 222632, Note_on_c, 0, 60, 45
1, 222633, Note_on_c, 0, 67, 30
1, 222634, Note_on_c, 0, 64, 27
1, 222634, Control_c, 0, 64, 48
1, 222649, Control_c, 0, 64, 52
1, 222664, Control_c, 0, 64, 57
1, 222669, Note_off_c, 0, 64, 51
1, 222669, Note_off_c, 0, 67, 49
1, 222671, Note_off_c, 0, 60, 65
1, 222678, Control_c, 0, 64, 62
1, 222693, Control_c, 0, 64, 65
1, 222708, Control_c, 0, 64, 69
1, 222723, Control_c, 0, 64, 73
1, 222738, Control_c, 0, 64, 77
1, 222754, Control_c, 0, 64, 81
1, 222769, Control_c, 0, 64, 87
1, 222783, Control_c, 0, 64, 92
1, 222798, Control_c, 0, 64, 96
1, 222813, Control_c, 0, 64, 99
1, 222843, Control_c, 0, 64, 101
1, 222862, Note_on_c, 0, 79, 66
1, 222894, Note_on_c, 0, 48, 50
1, 222934, Note_off_c, 0, 48, 62
1, 223102, Note_on_c, 0, 67, 49
1, 223116, Note_on_c, 0, 60, 39
1, 223130, Note_on_c, 0, 63, 37
1, 223145, Note_off_c, 0, 67, 58
1, 223157, Note_off_c, 0, 60, 54
1, 223160, Note_off_c, 0, 63, 53
1, 223213, Control_c, 0, 64, 98
1, 223228, Control_c, 0, 64, 94
1, 223243, Control_c, 0, 64, 90
1, 223257, Control_c, 0, 64, 85
1, 223272, Control_c, 0, 64, 77
1, 223274, Note_on_c, 0, 77, 70
1, 223287, Control_c, 0, 64, 67
1, 223289, Note_on_c, 0, 60, 50
1, 223289, Note_off_c, 0, 79, 58
1, 223294, Note_on_c, 0, 63, 41
1, 223301, Control_c, 0, 64, 55
1, 223303, Note_on_c, 0, 67, 42
1, 223323, Control_c, 0, 64, 38
1, 223332, Note_off_c, 0, 60, 63
1, 223335, Note_off_c, 0, 67, 58
1, 223337, Note_off_c, 0, 63, 62
1, 223338, Control_c, 0, 64, 0
1, 223360, Note_on_c, 0, 75, 75
1, 223382, Note_off_c, 0, 77, 62
1, 223446, Note_on_c, 0, 74, 77
1, 223463, Note_on_c, 0, 60, 56
1, 223464, Note_on_c, 0, 67, 34
1, 223474, Note_on_c, 0, 63, 36
1, 223478, Note_off_c, 0, 75, 58
1, 223492, Note_off_c, 0, 60, 67
1, 223497, Note_off_c, 0, 67, 47
1, 223504, Note_off_c, 0, 63, 45
1, 223523, Note_off_c, 0, 74, 59
1, 223535, Note_on_c, 0, 72, 70
1, 223681, Note_off_c, 0, 72, 54
1, 223684, Note_on_c, 0, 80, 73
1, 223695, Control_c, 0, 64, 38
1, 223710, Control_c, 0, 64, 54
1, 223724, Control_c, 0, 64, 60
1, 223731, Note_on_c, 0, 48, 52
1, 223737, Note_on_c, 0, 74, 46
1, 223739, Control_c, 0, 64, 63
1, 223754, Control_c, 0, 64, 67
1, 223769, Control_c, 0, 64, 73
1, 223771, Note_off_c, 0, 48, 64
1, 223784, Control_c, 0, 64, 79
1, 223798, Control_c, 0, 64, 85
1, 223813, Control_c, 0, 64, 90
1, 223828, Control_c, 0, 64, 93
1, 223843, Control_c, 0, 64, 96
1, 223857, Control_c, 0, 64, 100
1, 223872, Control_c, 0, 64, 102
1, 223902, Control_c, 0, 64, 104
1, 223978, Note_on_c, 0, 59, 45
1, 223986, Note_on_c, 0, 68, 28
1, 223991, Control_c, 0, 64, 95
1, 224001, Note_on_c, 0, 65, 24
1, 224006, Control_c, 0, 64, 84
1, 224012, Note_off_c, 0, 59, 59
1, 224021, Note_off_c, 0, 68, 49
1, 224021, Control_c, 0, 64, 72
1, 224036, Control_c, 0, 64, 59
1, 224041, Note_off_c, 0, 65, 47
1, 224050, Control_c, 0, 64, 45
1, 224065, Control_c, 0, 64, 0
1, 224142, Note_on_c, 0, 68, 49
1, 224146, Note_on_c, 0, 59, 47
1, 224159, Note_on_c, 0, 65, 31
1, 224183, Note_off_c, 0, 68, 62
1, 224195, Note_off_c, 0, 65, 52
1, 224200, Note_off_c, 0, 59, 62
1, 224221, Control_c, 0, 67, 125
1, 224251, Control_c, 0, 67, 122
1, 224251, Note_off_c, 0, 74, 61
1, 224265, Note_off_c, 0, 80, 62
1, 224305, Note_on_c, 0, 59, 64
1, 224308, Note_on_c, 0, 68, 41
1, 224314, Note_on_c, 0, 65, 27
1, 224325, Control_c, 0, 67, 119
1, 224332, Note_off_c, 0, 59, 66
1, 224335, Note_off_c, 0, 68, 51
1, 224350, Note_off_c, 0, 65, 48
1, 224355, Control_c, 0, 67, 117
1, 224444, Control_c, 0, 67, 119
1, 224459, Control_c, 0, 64, 51
1, 224471, Note_on_c, 0, 79, 71
1, 224474, Control_c, 0, 64, 58
1, 224489, Control_c, 0, 64, 60
1, 224495, Note_on_c, 0, 48, 58
1, 224498, Note_on_c, 0, 75, 52
1, 224504, Control_c, 0, 64, 64
1, 224519, Control_c, 0, 64, 69
1, 224525, Note_off_c, 0, 48, 64
1, 224534, Control_c, 0, 64, 75
1, 224548, Control_c, 0, 64, 79
1, 224563, Control_c, 0, 64, 84
1, 224578, Control_c, 0, 64, 87
1, 224593, Control_c, 0, 64, 91
1, 224608, Control_c, 0, 64, 95
1, 224622, Control_c, 0, 64, 98
1, 224637, Control_c, 0, 64, 100
1, 224662, Note_on_c, 0, 67, 53
1, 224663, Note_on_c, 0, 60, 48
1, 224680, Note_off_c, 0, 75, 61
1, 224692, Note_off_c, 0, 67, 63
1, 224695, Note_off_c, 0, 60, 59
1, 224697, Note_on_c, 0, 63, 9
1, 224741, Note_off_c, 0, 63, 53
1, 224782, Note_off_c, 0, 79, 58
1, 224817, Note_on_c, 0, 77, 68
1, 224837, Note_on_c, 0, 60, 49
1, 224837, Control_c, 0, 64, 95
1, 224844, Note_on_c, 0, 63, 52
1, 224852, Control_c, 0, 64, 85
1, 224853, Note_on_c, 0, 67, 26
1, 224864, Note_off_c, 0, 60, 64
1, 224867, Control_c, 0, 64, 72
1, 224868, Note_off_c, 0, 63, 61
1, 224881, Control_c, 0, 64, 59
1, 224881, Control_c, 0, 67, 121
1, 224884, Note_off_c, 0, 67, 54
1, 224889, Note_on_c, 0, 75, 78
1, 224896, Control_c, 0, 64, 35
1, 224909, Control_c, 0, 64, 0
1, 224912, Note_off_c, 0, 77, 64
1, 224965, Note_on_c, 0, 74, 80
1, 224969, Control_c, 0, 67, 123
1, 224975, Note_on_c, 0, 60, 49
1, 224980, Note_on_c, 0, 67, 41
1, 224981, Note_on_c, 0, 63, 37
1, 224991, Note_off_c, 0, 75, 62
1, 225006, Note_off_c, 0, 60, 65
1, 225008, Note_off_c, 0, 63, 52
1, 225011, Note_off_c, 0, 67, 52
1, 225028, Control_c, 0, 67, 125
1, 225037, Note_off_c, 0, 74, 63
1, 225045, Note_on_c, 0, 72, 74
1, 225058, Control_c, 0, 67, 127
1, 225125, Note_off_c, 0, 72, 56
1, 225160, Note_on_c, 0, 83, 76
1, 225178, Note_on_c, 0, 48, 65
1, 225192, Control_c, 0, 64, 33
1, 225206, Note_off_c, 0, 48, 64
1, 225207, Control_c, 0, 64, 49
1, 225207, Note_on_c, 0, 74, 52
1, 225222, Control_c, 0, 64, 56
1, 225237, Control_c, 0, 64, 61
1, 225251, Control_c, 0, 64, 66
1, 225266, Control_c, 0, 64, 72
1, 225281, Control_c, 0, 64, 75
1, 225295, Control_c, 0, 64, 78
1, 225310, Control_c, 0, 64, 80
1, 225325, Control_c, 0, 64, 82
1, 225340, Control_c, 0, 64, 84
1, 225350, Note_on_c, 0, 68, 52
1, 225355, Control_c, 0, 64, 85
1, 225359, Note_on_c, 0, 60, 46
1, 225369, Control_c, 0, 64, 86
1, 225371, Note_on_c, 0, 65, 39
1, 225396, Note_off_c, 0, 68, 54
1, 225399, Control_c, 0, 64, 86
1, 225405, Note_off_c, 0, 60, 60
1, 225411, Note_off_c, 0, 65, 50
1, 225414, Control_c, 0, 64, 87
1, 225429, Control_c, 0, 64, 88
1, 225443, Control_c, 0, 64, 89
1, 225458, Control_c, 0, 64, 90
1, 225473, Control_c, 0, 64, 91
1, 225488, Control_c, 0, 64, 92
1, 225502, Control_c, 0, 64, 93
1, 225517, Control_c, 0, 64, 94
1, 225524, Note_on_c, 0, 68, 58
1, 225532, Control_c, 0, 64, 95
1, 225538, Note_on_c, 0, 65, 40
1, 225538, Note_on_c, 0, 60, 46
1, 225547, Control_c, 0, 64, 98
1, 225560, Note_off_c, 0, 74, 60
1, 225562, Control_c, 0, 64, 101
1, 225576, Note_off_c, 0, 68, 52
1, 225580, Note_off_c, 0, 83, 60
1, 225584, Control_c, 0, 64, 103
1, 225589, Note_off_c, 0, 60, 58
1, 225590, Note_off_c, 0, 65, 53
1, 225599, Control_c, 0, 64, 105
1, 225629, Control_c, 0, 64, 109
1, 225644, Control_c, 0, 64, 111
1, 225658, Control_c, 0, 64, 114
1, 225673, Control_c, 0, 64, 117
1, 225702, Control_c, 0, 64, 120
1, 225704, Note_on_c, 0, 60, 51
1, 225706, Note_on_c, 0, 65, 47
1, 225707, Note_on_c, 0, 68, 48
1, 225733, Note_off_c, 0, 68, 60
1, 225741, Note_off_c, 0, 65, 64
1, 225754, Note_off_c, 0, 60, 61
1, 225762, Control_c, 0, 64, 123
1, 225792, Control_c, 0, 64, 126
1, 225851, Control_c, 0, 64, 123
1, 225866, Control_c, 0, 64, 114
1, 225872, Note_on_c, 0, 84, 72
1, 225878, Note_on_c, 0, 75, 71
1, 225881, Control_c, 0, 64, 92
1, 225895, Control_c, 0, 64, 72
1, 225902, Note_on_c, 0, 60, 40
1, 225904, Note_on_c, 0, 67, 47
1, 225910, Control_c, 0, 64, 55
1, 225914, Note_on_c, 0, 63, 37
1, 225925, Control_c, 0, 64, 36
1, 225939, Note_off_c, 0, 67, 54
1, 225940, Control_c, 0, 64, 35
1, 225944, Note_off_c, 0, 63, 55
1, 225948, Note_off_c, 0, 60, 62
1, 225956, Control_c, 0, 64, 48
1, 225970, Control_c, 0, 64, 61
1, 225985, Control_c, 0, 64, 72
1, 226000, Control_c, 0, 64, 86
1, 226015, Control_c, 0, 64, 101
1, 226030, Control_c, 0, 64, 114
1, 226034, Note_on_c, 0, 63, 58
1, 226040, Note_on_c, 0, 67, 57
1, 226045, Control_c, 0, 64, 127
1, 226049, Note_on_c, 0, 60, 59
1, 226075, Note_off_c, 0, 67, 63
1, 226076, Note_off_c, 0, 63, 60
1, 226079, Note_off_c, 0, 60, 67
1, 226128, Note_off_c, 0, 84, 61
1, 226143, Note_off_c, 0, 75, 61
1, 226202, Note_on_c, 0, 67, 69
1, 226204, Note_on_c, 0, 76, 83
1, 226207, Control_c, 0, 64, 95
1, 226209, Note_on_c, 0, 58, 65
1, 226219, Note_on_c, 0, 84, 71
1, 226222, Note_on_c, 0, 60, 53
1, 226222, Control_c, 0, 64, 65
1, 226237, Control_c, 0, 64, 39
1, 226251, Note_off_c, 0, 67, 58
1, 226251, Control_c, 0, 64, 38
1, 226258, Note_off_c, 0, 60, 64
1, 226266, Note_off_c, 0, 58, 60
1, 226266, Control_c, 0, 64, 52
1, 226271, Note_off_c, 0, 76, 60
1, 226281, Control_c, 0, 64, 65
1, 226285, Note_on_c, 0, 77, 84
1, 226296, Control_c, 0, 64, 75
1, 226311, Control_c, 0, 64, 90
1, 226322, Note_off_c, 0, 84, 61
1, 226333, Control_c, 0, 64, 105
1, 226348, Control_c, 0, 64, 127
1, 226368, Note_on_c, 0, 67, 71
1, 226379, Note_on_c, 0, 79, 79
1, 226380, Note_on_c, 0, 58, 67
1, 226383, Note_on_c, 0, 60, 54
1, 226397, Note_off_c, 0, 77, 64
1, 226428, Note_off_c, 0, 67, 59
1, 226430, Note_off_c, 0, 60, 56
1, 226444, Note_off_c, 0, 58, 61
1, 226448, Note_off_c, 0, 79, 65
1, 226450, Note_on_c, 0, 76, 83
1, 226466, Control_c, 0, 67, 124
1, 226481, Control_c, 0, 67, 121
1, 226496, Control_c, 0, 67, 117
1, 226511, Control_c, 0, 67, 113
1, 226512, Note_off_c, 0, 76, 64
1, 226525, Control_c, 0, 64, 98
1, 226525, Control_c, 0, 67, 108
1, 226540, Control_c, 0, 64, 67
1, 226540, Control_c, 0, 67, 92
1, 226545, Note_on_c, 0, 84, 89
1, 226547, Note_on_c, 0, 65, 69
1, 226547, Note_on_c, 0, 77, 87
1, 226553, Note_on_c, 0, 56, 65
1, 226555, Control_c, 0, 64, 29
1, 226555, Control_c, 0, 67, 57
1, 226562, Note_on_c, 0, 60, 58
1, 226570, Control_c, 0, 64, 0
1, 226570, Control_c, 0, 67, 0
1, 226606, Note_off_c, 0, 65, 60
1, 226610, Note_off_c, 0, 60, 59
1, 226614, Control_c, 0, 64, 38
1, 226618, Note_off_c, 0, 56, 64
1, 226629, Control_c, 0, 64, 59
1, 226644, Control_c, 0, 64, 68
1, 226659, Control_c, 0, 64, 79
1, 226674, Control_c, 0, 64, 93
1, 226689, Control_c, 0, 64, 127
1, 226713, Note_on_c, 0, 65, 67
1, 226722, Note_on_c, 0, 56, 62
1, 226723, Note_on_c, 0, 60, 52
1, 226742, Note_off_c, 0, 65, 64
1, 226745, Note_off_c, 0, 77, 61
1, 226753, Note_off_c, 0, 60, 66
1, 226762, Note_off_c, 0, 84, 56
1, 226763, Note_off_c, 0, 56, 59
1, 226880, Note_on_c, 0, 84, 74
1, 226882, Note_on_c, 0, 79, 80
1, 226893, Note_on_c, 0, 64, 64
1, 226897, Control_c, 0, 64, 114
1, 226898, Note_on_c, 0, 55, 66
1, 226910, Note_on_c, 0, 60, 52
1, 226912, Control_c, 0, 64, 75
1, 226927, Control_c, 0, 64, 51
1, 226941, Control_c, 0, 64, 0
1, 226948, Note_off_c, 0, 60, 63
1, 226956, Note_off_c, 0, 64, 59
1, 226969, Note_off_c, 0, 55, 60
1, 226972, Note_on_c, 0, 80, 83
1, 226986, Control_c, 0, 64, 46
1, 227001, Control_c, 0, 64, 65
1, 227003, Note_off_c, 0, 79, 62
1, 227015, Control_c, 0, 64, 73
1, 227030, Control_c, 0, 64, 82
1, 227045, Control_c, 0, 64, 91
1, 227060, Note_on_c, 0, 82, 83
1, 227060, Control_c, 0, 64, 100
1, 227073, Note_on_c, 0, 60, 51
1, 227076, Note_on_c, 0, 64, 52
1, 227079, Note_on_c, 0, 55, 63
1, 227082, Control_c, 0, 64, 111
1, 227097, Control_c, 0, 64, 127
1, 227097, Note_off_c, 0, 60, 62
1, 227100, Note_off_c, 0, 64, 61
1, 227103, Note_off_c, 0, 84, 64
1, 227112, Note_off_c, 0, 55, 64
1, 227112, Note_off_c, 0, 80, 63
1, 227160, Note_on_c, 0, 79, 83
1, 227174, Note_off_c, 0, 82, 59
1, 227290, Control_c, 0, 67, 34
1, 227305, Control_c, 0, 64, 118
1, 227305, Control_c, 0, 67, 34
1, 227320, Control_c, 0, 64, 109
1, 227320, Control_c, 0, 67, 35
1, 227335, Control_c, 0, 64, 101
1, 227335, Control_c, 0, 67, 48
1, 227349, Control_c, 0, 64, 93
1, 227349, Control_c, 0, 67, 61
1, 227363, Note_on_c, 0, 85, 77
1, 227364, Control_c, 0, 64, 84
1, 227364, Control_c, 0, 67, 69
1, 227369, Note_on_c, 0, 82, 70
1, 227379, Control_c, 0, 64, 74
1, 227379, Control_c, 0, 67, 76
1, 227394, Control_c, 0, 64, 61
1, 227394, Control_c, 0, 67, 80
1, 227403, Note_on_c, 0, 41, 64
1, 227407, Note_off_c, 0, 79, 59
1, 227409, Control_c, 0, 64, 0
1, 227409, Control_c, 0, 67, 86
1, 227423, Control_c, 0, 67, 95
1, 227438, Control_c, 0, 67, 107
1, 227453, Control_c, 0, 67, 113
1, 227482, Control_c, 0, 64, 42
1, 227495, Note_off_c, 0, 41, 65
1, 227497, Control_c, 0, 64, 59
1, 227512, Control_c, 0, 64, 68
1, 227527, Control_c, 0, 64, 75
1, 227543, Control_c, 0, 64, 81
1, 227558, Control_c, 0, 64, 86
1, 227572, Control_c, 0, 64, 90
1, 227587, Control_c, 0, 64, 94
1, 227587, Control_c, 0, 67, 115
1, 227602, Control_c, 0, 64, 98
1, 227617, Control_c, 0, 64, 101
1, 227648, Note_on_c, 0, 65, 60
1, 227676, Note_on_c, 0, 53, 38
1, 227687, Note_off_c, 0, 65, 55
1, 227689, Note_on_c, 0, 60, 18
1, 227705, Control_c, 0, 67, 117
1, 227711, Note_off_c, 0, 53, 55
1, 227730, Note_off_c, 0, 60, 52
1, 227832, Control_c, 0, 67, 114
1, 227834, Note_on_c, 0, 53, 59
1, 227840, Note_on_c, 0, 60, 52
1, 227842, Note_on_c, 0, 65, 50
1, 227872, Note_off_c, 0, 65, 60
1, 227877, Note_off_c, 0, 60, 63
1, 227884, Note_off_c, 0, 53, 56
1, 227890, Control_c, 0, 67, 112
1, 227935, Control_c, 0, 67, 110
1, 227967, Note_off_c, 0, 82, 58
1, 227968, Note_on_c, 0, 84, 73
1, 227973, Note_off_c, 0, 85, 61
1, 227979, Note_on_c, 0, 65, 19
1, 227981, Note_on_c, 0, 80, 67
1, 227995, Note_on_c, 0, 53, 50
1, 227998, Note_on_c, 0, 60, 10
1, 228018, Note_off_c, 0, 53, 59
1, 228021, Note_off_c, 0, 65, 52
1, 228036, Note_off_c, 0, 60, 56
1, 228112, Control_c, 0, 64, 90
1, 228127, Control_c, 0, 64, 68
1, 228137, Note_off_c, 0, 80, 54
1, 228142, Control_c, 0, 64, 42
1, 228146, Note_on_c, 0, 82, 76
1, 228153, Note_on_c, 0, 79, 70
1, 228157, Note_on_c, 0, 41, 69
1, 228157, Control_c, 0, 64, 0
1, 228157, Control_c, 0, 67, 112
1, 228191, Note_off_c, 0, 41, 66
1, 228201, Control_c, 0, 64, 46
1, 228205, Note_off_c, 0, 84, 54
1, 228215, Control_c, 0, 64, 64
1, 228230, Control_c, 0, 64, 71
1, 228245, Control_c, 0, 64, 78
1, 228245, Control_c, 0, 67, 110
1, 228260, Control_c, 0, 64, 83
1, 228275, Control_c, 0, 64, 89
1, 228290, Control_c, 0, 64, 93
1, 228301, Note_off_c, 0, 79, 64
1, 228305, Control_c, 0, 64, 96
1, 228308, Note_on_c, 0, 77, 81
1, 228308, Note_on_c, 0, 80, 78
1, 228331, Note_on_c, 0, 60, 54
1, 228331, Note_on_c, 0, 53, 54
1, 228334, Control_c, 0, 64, 98
1, 228337, Note_off_c, 0, 82, 57
1, 228367, Note_off_c, 0, 60, 64
1, 228367, Note_off_c, 0, 53, 62
1, 228385, Note_off_c, 0, 80, 62
1, 228470, Note_on_c, 0, 75, 80
1, 228473, Note_on_c, 0, 79, 70
1, 228476, Note_on_c, 0, 53, 59
1, 228480, Note_on_c, 0, 60, 53
1, 228483, Note_off_c, 0, 77, 54
1, 228513, Note_off_c, 0, 60, 64
1, 228521, Note_off_c, 0, 53, 58
1, 228543, Control_c, 0, 64, 95
1, 228558, Control_c, 0, 64, 94
1, 228580, Control_c, 0, 64, 92
1, 228594, Control_c, 0, 64, 90
1, 228597, Note_off_c, 0, 79, 63
1, 228609, Control_c, 0, 64, 87
1, 228615, Note_on_c, 0, 77, 73
1, 228620, Note_on_c, 0, 74, 81
1, 228624, Control_c, 0, 64, 84
1, 228628, Note_on_c, 0, 62, 53
1, 228632, Note_on_c, 0, 53, 63
1, 228636, Note_off_c, 0, 75, 53
1, 228639, Control_c, 0, 64, 80
1, 228652, Note_off_c, 0, 62, 57
1, 228653, Control_c, 0, 64, 76
1, 228656, Note_off_c, 0, 53, 63
1, 228668, Control_c, 0, 64, 71
1, 228677, Note_off_c, 0, 74, 62
1, 228683, Control_c, 0, 64, 66
1, 228698, Control_c, 0, 64, 61
1, 228701, Note_off_c, 0, 77, 64
1, 228713, Control_c, 0, 64, 53
1, 228713, Control_c, 0, 67, 112
1, 228728, Control_c, 0, 64, 35
1, 228743, Control_c, 0, 64, 0
1, 228802, Note_on_c, 0, 77, 76
1, 228802, Control_c, 0, 67, 114
1, 228803, Note_on_c, 0, 74, 71
1, 228816, Note_on_c, 0, 43, 63
1, 228817, Control_c, 0, 64, 31
1, 228832, Control_c, 0, 64, 52
1, 228843, Note_off_c, 0, 43, 65
1, 228846, Control_c, 0, 64, 63
1, 228861, Control_c, 0, 64, 69
1, 228876, Control_c, 0, 64, 73
1, 228891, Control_c, 0, 64, 77
1, 228906, Control_c, 0, 64, 81
1, 228920, Control_c, 0, 64, 85
1, 228935, Control_c, 0, 64, 87
1, 228950, Control_c, 0, 64, 89
1, 228965, Control_c, 0, 64, 90
1, 228980, Control_c, 0, 64, 92
1, 228980, Control_c, 0, 67, 112
1, 228993, Note_on_c, 0, 63, 60
1, 228994, Control_c, 0, 64, 95
1, 228998, Note_on_c, 0, 55, 52
1, 228999, Note_off_c, 0, 74, 58
1, 229009, Note_on_c, 0, 60, 46
1, 229009, Control_c, 0, 64, 98
1, 229023, Note_off_c, 0, 63, 64
1, 229043, Note_off_c, 0, 55, 62
1, 229043, Note_off_c, 0, 60, 63
1, 229053, Control_c, 0, 64, 90
1, 229056, Note_off_c, 0, 77, 62
1, 229067, Note_on_c, 0, 75, 68
1, 229068, Control_c, 0, 64, 71
1, 229068, Control_c, 0, 67, 114
1, 229071, Note_on_c, 0, 72, 65
1, 229083, Control_c, 0, 64, 48
1, 229083, Control_c, 0, 67, 117
1, 229098, Control_c, 0, 64, 0
1, 229098, Control_c, 0, 67, 119
1, 229140, Note_off_c, 0, 75, 64
1, 229142, Note_off_c, 0, 72, 62
1, 229143, Control_c, 0, 67, 123
1, 229156, Note_on_c, 0, 77, 76
1, 229158, Note_on_c, 0, 74, 71
1, 229158, Control_c, 0, 67, 127
1, 229163, Note_on_c, 0, 55, 59
1, 229175, Note_on_c, 0, 63, 42
1, 229181, Note_on_c, 0, 60, 30
1, 229201, Note_off_c, 0, 63, 58
1, 229208, Note_off_c, 0, 55, 62
1, 229214, Note_off_c, 0, 60, 51
1, 229226, Note_off_c, 0, 74, 61
1, 229228, Note_off_c, 0, 77, 65
1, 229233, Note_on_c, 0, 75, 73
1, 229240, Note_on_c, 0, 72, 67
1, 229284, Note_off_c, 0, 75, 62
1, 229286, Note_off_c, 0, 72, 62
1, 229307, Note_on_c, 0, 63, 41
1, 229310, Note_on_c, 0, 77, 67
1, 229321, Note_on_c, 0, 60, 37
1, 229327, Note_on_c, 0, 74, 50
1, 229333, Note_on_c, 0, 55, 51
1, 229340, Note_off_c, 0, 63, 56
1, 229353, Note_off_c, 0, 60, 48
1, 229359, Note_off_c, 0, 55, 59
1, 229397, Note_off_c, 0, 77, 63
1, 229401, Note_on_c, 0, 75, 69
1, 229405, Note_on_c, 0, 72, 62
1, 229407, Note_off_c, 0, 74, 44
1, 229439, Note_off_c, 0, 72, 61
1, 229440, Note_off_c, 0, 75, 58
1, 229462, Control_c, 0, 64, 42
1, 229476, Control_c, 0, 64, 54
1, 229491, Control_c, 0, 64, 60
1, 229506, Control_c, 0, 64, 64
1, 229521, Note_on_c, 0, 43, 61
1, 229521, Control_c, 0, 64, 67
1, 229526, Note_on_c, 0, 75, 69
1, 229536, Control_c, 0, 64, 70
1, 229542, Note_on_c, 0, 72, 53
1, 229550, Note_off_c, 0, 43, 64
1, 229551, Control_c, 0, 64, 73
1, 229565, Control_c, 0, 64, 77
1, 229580, Control_c, 0, 64, 79
1, 229595, Control_c, 0, 64, 81
1, 229610, Control_c, 0, 64, 82
1, 229625, Control_c, 0, 64, 83
1, 229640, Control_c, 0, 64, 83
1, 229718, Note_on_c, 0, 65, 52
1, 229723, Note_on_c, 0, 55, 56
1, 229729, Control_c, 0, 64, 83
1, 229735, Note_on_c, 0, 62, 42
1, 229743, Control_c, 0, 64, 82
1, 229748, Note_off_c, 0, 72, 50
1, 229749, Note_off_c, 0, 65, 56
1, 229758, Control_c, 0, 64, 81
1, 229765, Note_off_c, 0, 62, 55
1, 229768, Note_off_c, 0, 55, 62
1, 229772, Note_off_c, 0, 75, 62
1, 229773, Control_c, 0, 64, 80
1, 229787, Control_c, 0, 64, 78
1, 229795, Note_on_c, 0, 74, 59
1, 229801, Note_on_c, 0, 71, 54
1, 229802, Control_c, 0, 64, 77
1, 229817, Control_c, 0, 64, 75
1, 229832, Control_c, 0, 64, 72
1, 229847, Control_c, 0, 64, 68
1, 229861, Control_c, 0, 64, 63
1, 229862, Note_off_c, 0, 74, 63
1, 229876, Control_c, 0, 64, 58
1, 229878, Note_off_c, 0, 71, 62
1, 229885, Note_on_c, 0, 75, 70
1, 229887, Note_on_c, 0, 72, 58
1, 229891, Control_c, 0, 64, 54
1, 229906, Control_c, 0, 64, 51
1, 229907, Note_on_c, 0, 55, 55
1, 229914, Note_on_c, 0, 62, 22
1, 229914, Note_on_c, 0, 65, 30
1, 229921, Control_c, 0, 64, 47
1, 229937, Control_c, 0, 64, 44
1, 229942, Note_off_c, 0, 55, 63
1, 229949, Note_off_c, 0, 65, 48
1, 229949, Note_off_c, 0, 72, 50
1, 229952, Control_c, 0, 64, 40
1, 229953, Note_off_c, 0, 62, 41
1, 229958, Note_off_c, 0, 75, 64
1, 229966, Control_c, 0, 64, 41
1, 229971, Note_on_c, 0, 74, 70
1, 229981, Control_c, 0, 64, 44
1, 229983, Note_on_c, 0, 71, 56
1, 229996, Control_c, 0, 64, 48
1, 230011, Control_c, 0, 64, 52
1, 230026, Control_c, 0, 64, 56
1, 230034, Note_off_c, 0, 74, 63
1, 230040, Control_c, 0, 64, 60
1, 230048, Note_off_c, 0, 71, 62
1, 230055, Control_c, 0, 64, 65
1, 230057, Note_on_c, 0, 75, 69
1, 230077, Note_on_c, 0, 72, 51
1, 230078, Control_c, 0, 64, 69
1, 230092, Control_c, 0, 64, 72
1, 230107, Control_c, 0, 64, 74
1, 230122, Control_c, 0, 64, 77
1, 230133, Note_off_c, 0, 75, 64
1, 230138, Control_c, 0, 64, 81
1, 230141, Note_off_c, 0, 72, 62
1, 230153, Control_c, 0, 64, 86
1, 230155, Note_on_c, 0, 71, 52
1, 230155, Note_on_c, 0, 74, 60
1, 230167, Control_c, 0, 64, 91
1, 230171, Note_off_c, 0, 74, 63
1, 230178, Note_off_c, 0, 71, 58
1, 230182, Control_c, 0, 64, 96
1, 230197, Control_c, 0, 64, 103
1, 230212, Control_c, 0, 64, 112
1, 230226, Control_c, 0, 64, 127
1, 230336, Note_on_c, 0, 84, 65
1, 230350, Note_on_c, 0, 88, 64
1, 230355, Note_on_c, 0, 48, 58
1, 230374, Control_c, 0, 64, 116
1, 230389, Control_c, 0, 64, 92
1, 230395, Poly_aftertouch_c, 0, 87, 127
1, 230404, Control_c, 0, 64, 74
1, 230418, Control_c, 0, 64, 61
1, 230433, Control_c, 0, 64, 51
1, 230448, Control_c, 0, 64, 53
1, 230463, Control_c, 0, 64, 62
1, 230478, Control_c, 0, 64, 70
1, 230493, Control_c, 0, 64, 84
1, 230507, Control_c, 0, 64, 98
1, 230522, Control_c, 0, 64, 107
1, 230526, Note_on_c, 0, 55, 59
1, 230537, Control_c, 0, 64, 127
1, 230630, Note_off_c, 0, 88, 34
1, 230670, Note_on_c, 0, 79, 70
1, 230704, Note_on_c, 0, 88, 49
1, 230705, Note_off_c, 0, 84, 62
1, 230712, Note_on_c, 0, 59, 48
1, 230720, Note_off_c, 0, 79, 62
1, 230720, Poly_aftertouch_c, 0, 87, 0
1, 230731, Note_off_c, 0, 88, 62
1, 230776, Note_off_c, 0, 48, 56
1, 230815, Note_off_c, 0, 55, 61
1, 230822, Note_off_c, 0, 59, 63
1, 230841, Note_on_c, 0, 84, 84
1, 230847, Note_on_c, 0, 60, 69
1, 231005, Note_on_c, 0, 82, 80
1, 231021, Note_off_c, 0, 60, 38
1, 231024, Note_on_c, 0, 61, 63
1, 231029, Note_on_c, 0, 75, 55
1, 231042, Note_on_c, 0, 53, 53
1, 231042, Note_off_c, 0, 84, 51
1, 231055, Note_off_c, 0, 75, 54
1, 231079, Control_c, 0, 64, 112
1, 231094, Control_c, 0, 64, 81
1, 231109, Control_c, 0, 64, 62
1, 231123, Control_c, 0, 64, 40
1, 231138, Control_c, 0, 64, 0
1, 231183, Control_c, 0, 64, 37
1, 231186, Note_on_c, 0, 80, 71
1, 231197, Control_c, 0, 64, 50
1, 231207, Note_on_c, 0, 76, 43
1, 231210, Note_on_c, 0, 60, 48
1, 231212, Control_c, 0, 64, 60
1, 231218, Note_off_c, 0, 61, 53
1, 231227, Control_c, 0, 64, 65
1, 231232, Note_off_c, 0, 82, 60
1, 231241, Note_off_c, 0, 76, 0
1, 231241, Note_on_c, 0, 76, 17
1, 231241, Control_c, 0, 64, 69
1, 231250, Note_off_c, 0, 80, 63
1, 231256, Control_c, 0, 64, 71
1, 231271, Control_c, 0, 64, 74
1, 231282, Poly_aftertouch_c, 0, 77, 127
1, 231286, Control_c, 0, 64, 77
1, 231294, Note_off_c, 0, 76, 58
1, 231301, Control_c, 0, 64, 80
1, 231315, Control_c, 0, 64, 83
1, 231319, Poly_aftertouch_c, 0, 77, 0
1, 231330, Control_c, 0, 64, 85
1, 231345, Control_c, 0, 64, 87
1, 231360, Control_c, 0, 64, 89
1, 231375, Control_c, 0, 64, 90
1, 231377, Note_on_c, 0, 79, 66
1, 231383, Note_on_c, 0, 75, 61
1, 231390, Control_c, 0, 64, 91
1, 231405, Control_c, 0, 64, 92
1, 231420, Control_c, 0, 64, 92
1, 231434, Control_c, 0, 64, 93
1, 231464, Control_c, 0, 64, 93
1, 231470, Note_off_c, 0, 53, 34
1, 231484, Note_off_c, 0, 60, 59
1, 231495, Note_off_c, 0, 75, 54
1, 231495, Note_off_c, 0, 79, 61
1, 231515, Note_on_c, 0, 77, 69
1, 231521, Note_on_c, 0, 62, 67
1, 231535, Note_on_c, 0, 74, 63
1, 231550, Note_off_c, 0, 62, 64
1, 231594, Note_off_c, 0, 74, 51
1, 231594, Note_off_c, 0, 77, 61
1, 231606, Control_c, 0, 64, 93
1, 231620, Control_c, 0, 64, 92
1, 231635, Control_c, 0, 64, 90
1, 231650, Control_c, 0, 64, 89
1, 231664, Control_c, 0, 64, 85
1, 231679, Control_c, 0, 64, 79
1, 231694, Control_c, 0, 64, 68
1, 231709, Control_c, 0, 64, 53
1, 231724, Control_c, 0, 64, 0
1, 231727, Note_on_c, 0, 77, 56
1, 231741, Note_on_c, 0, 74, 48
1, 231749, Note_on_c, 0, 43, 62
1, 231783, Control_c, 0, 64, 36
1, 231789, Note_off_c, 0, 43, 66
1, 231798, Control_c, 0, 64, 56
1, 231813, Control_c, 0, 64, 65
1, 231828, Control_c, 0, 64, 70
1, 231843, Control_c, 0, 64, 74
1, 231858, Control_c, 0, 64, 77
1, 231872, Control_c, 0, 64, 80
1, 231887, Control_c, 0, 64, 84
1, 231902, Control_c, 0, 64, 88
1, 231917, Control_c, 0, 64, 92
1, 231923, Note_off_c, 0, 74, 59
1, 231932, Control_c, 0, 64, 98
1, 231936, Note_on_c, 0, 63, 63
1, 231944, Note_on_c, 0, 55, 55
1, 231945, Note_on_c, 0, 60, 51
1, 231946, Control_c, 0, 64, 107
1, 231961, Control_c, 0, 64, 110
1, 231968, Note_off_c, 0, 63, 65
1, 231976, Control_c, 0, 64, 104
1, 231977, Note_off_c, 0, 77, 60
1, 231982, Note_off_c, 0, 60, 64
1, 231986, Note_off_c, 0, 55, 62
1, 231990, Control_c, 0, 64, 81
1, 231998, Note_on_c, 0, 75, 67
1, 232004, Note_on_c, 0, 72, 61
1, 232005, Control_c, 0, 64, 61
1, 232020, Control_c, 0, 64, 0
1, 232066, Note_off_c, 0, 75, 64
1, 232074, Note_off_c, 0, 72, 63
1, 232080, Note_on_c, 0, 74, 72
1, 232080, Note_on_c, 0, 77, 76
1, 232098, Note_on_c, 0, 55, 59
1, 232102, Note_on_c, 0, 63, 45
1, 232110, Note_on_c, 0, 60, 37
1, 232133, Note_off_c, 0, 63, 62
1, 232140, Note_off_c, 0, 55, 61
1, 232141, Note_off_c, 0, 60, 58
1, 232153, Note_off_c, 0, 74, 55
1, 232162, Note_on_c, 0, 75, 74
1, 232163, Note_off_c, 0, 77, 63
1, 232171, Note_on_c, 0, 72, 69
1, 232213, Note_off_c, 0, 75, 63
1, 232215, Note_off_c, 0, 72, 60
1, 232242, Note_on_c, 0, 77, 63
1, 232242, Note_on_c, 0, 63, 46
1, 232242, Note_on_c, 0, 74, 59
1, 232247, Note_on_c, 0, 60, 42
1, 232251, Note_on_c, 0, 55, 60
1, 232266, Note_off_c, 0, 63, 58
1, 232275, Note_off_c, 0, 60, 53
1, 232281, Note_off_c, 0, 55, 64
1, 232315, Note_off_c, 0, 77, 64
1, 232315, Note_off_c, 0, 74, 57
1, 232324, Note_on_c, 0, 75, 67
1, 232326, Note_on_c, 0, 72, 64
1, 232355, Note_off_c, 0, 75, 65
1, 232356, Note_off_c, 0, 72, 64
1, 232413, Control_c, 0, 64, 35
1, 232428, Control_c, 0, 64, 49
1, 232442, Control_c, 0, 64, 58
1, 232446, Note_on_c, 0, 75, 69
1, 232457, Control_c, 0, 64, 63
1, 232459, Note_on_c, 0, 43, 57
1, 232461, Note_on_c, 0, 72, 48
1, 232472, Control_c, 0, 64, 65
1, 232487, Control_c, 0, 64, 68
1, 232490, Note_off_c, 0, 43, 64
1, 232502, Control_c, 0, 64, 71
1, 232517, Control_c, 0, 64, 73
1, 232531, Control_c, 0, 64, 75
1, 232546, Control_c, 0, 64, 76
1, 232561, Control_c, 0, 64, 77
1, 232591, Control_c, 0, 64, 77
1, 232666, Note_on_c, 0, 55, 50
1, 232666, Note_on_c, 0, 65, 46
1, 232682, Note_off_c, 0, 72, 46
1, 232697, Note_off_c, 0, 65, 52
1, 232698, Note_on_c, 0, 62, 22
1, 232702, Note_off_c, 0, 75, 60
1, 232709, Control_c, 0, 64, 76
1, 232713, Note_off_c, 0, 55, 57
1, 232724, Control_c, 0, 64, 75
1, 232737, Note_on_c, 0, 71, 54
1, 232738, Note_off_c, 0, 62, 54
1, 232739, Control_c, 0, 64, 73
1, 232744, Note_on_c, 0, 74, 53
1, 232754, Control_c, 0, 64, 69
1, 232768, Control_c, 0, 64, 65
1, 232783, Control_c, 0, 64, 59
1, 232798, Control_c, 0, 64, 53
1, 232806, Note_off_c, 0, 74, 62
1, 232812, Control_c, 0, 64, 42
1, 232824, Note_off_c, 0, 71, 61
1, 232827, Note_on_c, 0, 75, 67
1, 232827, Control_c, 0, 64, 0
1, 232836, Note_on_c, 0, 72, 55
1, 232849, Note_on_c, 0, 55, 54
1, 232850, Note_on_c, 0, 65, 42
1, 232853, Note_on_c, 0, 62, 36
1, 232882, Note_off_c, 0, 65, 55
1, 232886, Note_off_c, 0, 72, 51
1, 232886, Note_off_c, 0, 62, 57
1, 232896, Note_off_c, 0, 55, 60
1, 232901, Note_off_c, 0, 75, 64
1, 232923, Note_on_c, 0, 74, 65
1, 232937, Note_on_c, 0, 71, 51
1, 232985, Note_off_c, 0, 74, 63
1, 232998, Note_off_c, 0, 71, 62
1, 233005, Note_on_c, 0, 75, 65
1, 233006, Note_on_c, 0, 72, 53
1, 233023, Note_on_c, 0, 55, 45
1, 233033, Note_on_c, 0, 65, 7
1, 233050, Note_off_c, 0, 55, 60
1, 233085, Note_off_c, 0, 75, 62
1, 233095, Note_off_c, 0, 65, 38
1, 233098, Note_off_c, 0, 72, 49
1, 233107, Note_on_c, 0, 74, 65
1, 233128, Note_on_c, 0, 71, 35
1, 233137, Note_off_c, 0, 74, 67
1, 233163, Note_off_c, 0, 71, 44
1, 233375, Note_on_c, 0, 83, 58
1, 233402, Note_on_c, 0, 80, 46
1, 233414, Control_c, 0, 64, 28
1, 233417, Note_on_c, 0, 74, 37
1, 233429, Control_c, 0, 64, 38
1, 233436, Note_on_c, 0, 53, 36
1, 233443, Control_c, 0, 64, 46
1, 233458, Control_c, 0, 64, 53
1, 233473, Control_c, 0, 64, 58
1, 233488, Control_c, 0, 64, 62
1, 233503, Control_c, 0, 64, 65
1, 233517, Control_c, 0, 64, 68
1, 233532, Control_c, 0, 64, 71
1, 233546, Note_off_c, 0, 53, 61
1, 233547, Control_c, 0, 64, 75
1, 233562, Control_c, 0, 64, 78
1, 233577, Control_c, 0, 64, 82
1, 233591, Control_c, 0, 64, 85
1, 233606, Control_c, 0, 64, 88
1, 233621, Control_c, 0, 64, 91
1, 233635, Control_c, 0, 64, 94
1, 233650, Control_c, 0, 64, 96
1, 233680, Control_c, 0, 64, 98
1, 233795, Note_on_c, 0, 62, 35
1, 233813, Note_on_c, 0, 71, 16
1, 233815, Note_on_c, 0, 68, 28
1, 233862, Note_off_c, 0, 62, 50
1, 233863, Note_off_c, 0, 68, 46
1, 233871, Note_off_c, 0, 71, 44
1, 234015, Note_on_c, 0, 62, 37
1, 234019, Note_on_c, 0, 71, 30
1, 234032, Note_on_c, 0, 68, 20
1, 234075, Note_off_c, 0, 62, 54
1, 234078, Note_off_c, 0, 68, 48
1, 234087, Note_off_c, 0, 71, 41
1, 234220, Note_on_c, 0, 62, 33
1, 234227, Note_on_c, 0, 71, 22
1, 234250, Poly_aftertouch_c, 0, 68, 127
1, 234265, Note_off_c, 0, 62, 47
1, 234275, Note_off_c, 0, 71, 46
1, 234297, Poly_aftertouch_c, 0, 68, 0
1, 234398, Note_on_c, 0, 71, 28
1, 234403, Note_on_c, 0, 62, 32
1, 234418, Note_on_c, 0, 68, 24
1, 234446, Note_off_c, 0, 62, 48
1, 234454, Note_off_c, 0, 71, 44
1, 234456, Note_off_c, 0, 68, 50
1, 234577, Note_on_c, 0, 62, 36
1, 234587, Note_on_c, 0, 71, 32
1, 234597, Note_on_c, 0, 68, 24
1, 234630, Note_off_c, 0, 62, 49
1, 234636, Note_off_c, 0, 68, 50
1, 234636, Note_off_c, 0, 71, 45
1, 234761, Note_on_c, 0, 62, 41
1, 234761, Note_on_c, 0, 68, 35
1, 234770, Note_on_c, 0, 71, 27
1, 234801, Note_off_c, 0, 68, 50
1, 234803, Note_off_c, 0, 62, 56
1, 234811, Note_off_c, 0, 71, 52
1, 234919, Note_off_c, 0, 74, 58
1, 234923, Note_on_c, 0, 62, 48
1, 234925, Note_on_c, 0, 71, 32
1, 234940, Note_on_c, 0, 68, 22
1, 234957, Note_off_c, 0, 62, 63
1, 234961, Note_off_c, 0, 71, 46
1, 234975, Note_off_c, 0, 68, 45
1, 234981, Note_off_c, 0, 83, 60
1, 235041, Note_off_c, 0, 80, 44
1, 235089, Control_c, 0, 64, 96
1, 235104, Control_c, 0, 64, 95
1, 235119, Control_c, 0, 64, 93
1, 235134, Control_c, 0, 64, 92
1, 235149, Control_c, 0, 64, 90
1, 235164, Control_c, 0, 64, 88
1, 235179, Control_c, 0, 64, 85
1, 235190, Note_on_c, 0, 84, 63
1, 235193, Control_c, 0, 64, 82
1, 235208, Control_c, 0, 64, 76
1, 235220, Note_on_c, 0, 81, 48
1, 235223, Control_c, 0, 64, 67
1, 235224, Note_on_c, 0, 75, 46
1, 235238, Control_c, 0, 64, 54
1, 235253, Control_c, 0, 64, 32
1, 235265, Note_on_c, 0, 53, 41
1, 235268, Control_c, 0, 64, 0
1, 235282, Control_c, 0, 64, 30
1, 235297, Control_c, 0, 64, 43
1, 235319, Control_c, 0, 64, 55
1, 235334, Control_c, 0, 64, 62
1, 235349, Control_c, 0, 64, 67
1, 235363, Note_off_c, 0, 53, 62
1, 235363, Control_c, 0, 64, 72
1, 235378, Control_c, 0, 64, 76
1, 235393, Control_c, 0, 64, 79
1, 235408, Control_c, 0, 64, 82
1, 235423, Control_c, 0, 64, 85
1, 235438, Control_c, 0, 64, 87
1, 235453, Control_c, 0, 64, 88
1, 235468, Control_c, 0, 64, 89
1, 235482, Control_c, 0, 64, 89
1, 235569, Note_on_c, 0, 72, 38
1, 235581, Note_on_c, 0, 63, 32
1, 235597, Note_on_c, 0, 69, 19
1, 235628, Note_off_c, 0, 63, 46
1, 235642, Note_off_c, 0, 69, 50
1, 235642, Note_off_c, 0, 72, 41
1, 235754, Note_on_c, 0, 72, 42
1, 235763, Note_on_c, 0, 63, 33
1, 235767, Note_on_c, 0, 69, 29
1, 235810, Note_off_c, 0, 63, 46
1, 235810, Note_off_c, 0, 72, 56
1, 235816, Note_off_c, 0, 69, 48
1, 235924, Note_on_c, 0, 63, 46
1, 235934, Note_on_c, 0, 72, 42
1, 235946, Note_on_c, 0, 69, 20
1, 235973, Note_off_c, 0, 63, 55
1, 235974, Note_off_c, 0, 72, 49
1, 235988, Note_off_c, 0, 69, 51
1, 236001, Control_c, 0, 67, 109
1, 236016, Control_c, 0, 67, 87
1, 236031, Control_c, 0, 67, 65
1, 236046, Control_c, 0, 67, 41
1, 236068, Control_c, 0, 67, 0
1, 236107, Note_on_c, 0, 72, 43
1, 236108, Note_on_c, 0, 63, 47
1, 236115, Note_on_c, 0, 69, 32
1, 236155, Note_off_c, 0, 63, 58
1, 236158, Note_off_c, 0, 72, 54
1, 236165, Note_off_c, 0, 69, 47
1, 236275, Note_on_c, 0, 63, 51
1, 236276, Note_on_c, 0, 72, 50
1, 236294, Note_on_c, 0, 69, 32
1, 236329, Note_off_c, 0, 72, 55
1, 236335, Note_off_c, 0, 63, 49
1, 236338, Note_off_c, 0, 69, 48
1, 236448, Note_on_c, 0, 72, 51
1, 236466, Note_on_c, 0, 63, 47
1, 236466, Note_on_c, 0, 69, 23
1, 236490, Note_off_c, 0, 72, 55
1, 236502, Note_off_c, 0, 63, 57
1, 236514, Note_off_c, 0, 69, 48
1, 236616, Note_off_c, 0, 75, 52
1, 236618, Note_on_c, 0, 63, 49
1, 236624, Note_on_c, 0, 72, 20
1, 236656, Note_on_c, 0, 69, 3
1, 236656, Note_off_c, 0, 63, 63
1, 236663, Note_off_c, 0, 72, 53
1, 236687, Note_off_c, 0, 81, 35
1, 236687, Note_off_c, 0, 84, 38
1, 236700, Note_off_c, 0, 69, 49
1, 236794, Control_c, 0, 64, 89
1, 236816, Control_c, 0, 64, 87
1, 236831, Control_c, 0, 64, 85
1, 236846, Control_c, 0, 64, 81
1, 236860, Control_c, 0, 64, 74
1, 236876, Control_c, 0, 64, 64
1, 236880, Note_on_c, 0, 84, 73
1, 236891, Control_c, 0, 64, 48
1, 236904, Note_on_c, 0, 81, 58
1, 236906, Control_c, 0, 64, 0
1, 236931, Note_on_c, 0, 52, 50
1, 236958, Note_on_c, 0, 76, 34
1, 236965, Control_c, 0, 64, 38
1, 236979, Control_c, 0, 64, 54
1, 236994, Control_c, 0, 64, 64
1, 236998, Note_off_c, 0, 52, 63
1, 237009, Control_c, 0, 64, 69
1, 237024, Control_c, 0, 64, 72
1, 237039, Control_c, 0, 64, 76
1, 237053, Control_c, 0, 64, 80
1, 237053, Control_c, 0, 67, 34
1, 237068, Control_c, 0, 64, 83
1, 237068, Control_c, 0, 67, 49
1, 237083, Control_c, 0, 64, 86
1, 237083, Control_c, 0, 67, 73
1, 237098, Control_c, 0, 64, 90
1, 237098, Control_c, 0, 67, 92
1, 237113, Control_c, 0, 64, 92
1, 237113, Control_c, 0, 67, 105
1, 237129, Control_c, 0, 64, 93
1, 237129, Control_c, 0, 67, 114
1, 237144, Control_c, 0, 64, 94
1, 237144, Control_c, 0, 67, 121
1, 237158, Control_c, 0, 64, 95
1, 237158, Control_c, 0, 67, 125
1, 237164, Note_on_c, 0, 64, 51
1, 237164, Note_on_c, 0, 72, 47
1, 237173, Control_c, 0, 64, 95
1, 237173, Control_c, 0, 67, 127
1, 237176, Note_on_c, 0, 69, 38
1, 237188, Control_c, 0, 64, 96
1, 237205, Note_off_c, 0, 72, 57
1, 237210, Note_off_c, 0, 69, 58
1, 237211, Note_off_c, 0, 64, 60
1, 237347, Note_on_c, 0, 72, 46
1, 237349, Note_on_c, 0, 64, 49
1, 237352, Note_on_c, 0, 69, 34
1, 237366, Control_c, 0, 67, 125
1, 237390, Note_off_c, 0, 72, 55
1, 237396, Note_off_c, 0, 69, 52
1, 237396, Note_off_c, 0, 64, 59
1, 237493, Note_on_c, 0, 72, 54
1, 237506, Note_on_c, 0, 64, 51
1, 237506, Note_on_c, 0, 69, 48
1, 237510, Note_off_c, 0, 76, 42
1, 237527, Note_off_c, 0, 72, 60
1, 237539, Note_off_c, 0, 69, 63
1, 237556, Note_off_c, 0, 64, 59
1, 237640, Control_c, 0, 64, 95
1, 237655, Control_c, 0, 64, 94
1, 237661, Note_off_c, 0, 81, 61
1, 237670, Control_c, 0, 64, 88
1, 237676, Note_on_c, 0, 83, 71
1, 237684, Note_on_c, 0, 80, 59
1, 237684, Control_c, 0, 64, 77
1, 237688, Note_on_c, 0, 64, 49
1, 237694, Note_on_c, 0, 71, 53
1, 237699, Control_c, 0, 64, 62
1, 237706, Note_on_c, 0, 68, 43
1, 237712, Note_on_c, 0, 76, 52
1, 237714, Control_c, 0, 64, 33
1, 237729, Control_c, 0, 64, 0
1, 237740, Note_off_c, 0, 71, 56
1, 237743, Note_off_c, 0, 64, 61
1, 237748, Note_off_c, 0, 68, 61
1, 237758, Control_c, 0, 67, 123
1, 237773, Control_c, 0, 64, 39
1, 237788, Control_c, 0, 64, 55
1, 237802, Control_c, 0, 64, 63
1, 237802, Control_c, 0, 67, 121
1, 237814, Note_off_c, 0, 80, 52
1, 237817, Control_c, 0, 64, 69
1, 237832, Control_c, 0, 64, 73
1, 237847, Control_c, 0, 64, 75
1, 237849, Note_on_c, 0, 68, 52
1, 237855, Note_on_c, 0, 71, 43
1, 237857, Note_on_c, 0, 64, 52
1, 237862, Control_c, 0, 64, 78
1, 237864, Note_off_c, 0, 76, 46
1, 237876, Control_c, 0, 64, 80
1, 237884, Note_off_c, 0, 71, 54
1, 237885, Note_off_c, 0, 68, 61
1, 237891, Control_c, 0, 64, 82
1, 237895, Note_off_c, 0, 64, 63
1, 237906, Control_c, 0, 64, 83
1, 237921, Control_c, 0, 64, 84
1, 237937, Control_c, 0, 64, 84
1, 237937, Control_c, 0, 67, 119
1, 237952, Control_c, 0, 64, 85
1, 237996, Control_c, 0, 64, 84
1, 238007, Note_on_c, 0, 81, 60
1, 238011, Control_c, 0, 64, 80
1, 238014, Note_on_c, 0, 64, 53
1, 238020, Note_on_c, 0, 77, 61
1, 238023, Note_on_c, 0, 69, 50
1, 238025, Note_on_c, 0, 76, 57
1, 238025, Control_c, 0, 64, 69
1, 238037, Note_on_c, 0, 65, 42
1, 238040, Control_c, 0, 64, 54
1, 238055, Control_c, 0, 64, 0
1, 238058, Note_off_c, 0, 69, 59
1, 238064, Note_off_c, 0, 83, 50
1, 238068, Note_off_c, 0, 65, 54
1, 238084, Note_off_c, 0, 64, 60
1, 238085, Note_off_c, 0, 84, 58
1, 238100, Control_c, 0, 64, 37
1, 238115, Control_c, 0, 64, 58
1, 238130, Note_off_c, 0, 81, 64
1, 238130, Control_c, 0, 64, 66
1, 238145, Control_c, 0, 64, 70
1, 238145, Control_c, 0, 67, 117
1, 238158, Note_off_c, 0, 76, 59
1, 238159, Control_c, 0, 64, 74
1, 238168, Note_on_c, 0, 65, 50
1, 238169, Note_on_c, 0, 69, 49
1, 238174, Note_off_c, 0, 77, 63
1, 238174, Control_c, 0, 64, 76
1, 238189, Control_c, 0, 64, 79
1, 238199, Note_on_c, 0, 64, 39
1, 238204, Control_c, 0, 64, 82
1, 238207, Note_off_c, 0, 69, 62
1, 238210, Note_off_c, 0, 65, 61
1, 238219, Control_c, 0, 64, 85
1, 238230, Note_off_c, 0, 64, 55
1, 238233, Control_c, 0, 64, 86
1, 238248, Control_c, 0, 64, 86
1, 238263, Control_c, 0, 64, 87
1, 238329, Control_c, 0, 64, 84
1, 238341, Note_on_c, 0, 80, 66
1, 238344, Note_on_c, 0, 64, 53
1, 238344, Control_c, 0, 64, 74
1, 238359, Control_c, 0, 64, 61
1, 238361, Note_on_c, 0, 68, 47
1, 238374, Control_c, 0, 64, 41
1, 238374, Control_c, 0, 67, 119
1, 238374, Note_on_c, 0, 76, 50
1, 238387, Control_c, 0, 64, 0
1, 238398, Note_off_c, 0, 64, 60
1, 238398, Note_off_c, 0, 68, 63
1, 238417, Control_c, 0, 64, 32
1, 238431, Control_c, 0, 64, 52
1, 238446, Control_c, 0, 64, 63
1, 238461, Control_c, 0, 64, 68
1, 238462, Note_off_c, 0, 76, 64
1, 238476, Control_c, 0, 64, 72
1, 238489, Note_off_c, 0, 80, 62
1, 238491, Control_c, 0, 64, 77
1, 238494, Note_on_c, 0, 68, 55
1, 238505, Control_c, 0, 64, 81
1, 238520, Control_c, 0, 64, 88
1, 238527, Note_off_c, 0, 68, 66
1, 238529, Note_on_c, 0, 64, 25
1, 238535, Control_c, 0, 64, 92
1, 238550, Control_c, 0, 64, 96
1, 238565, Control_c, 0, 64, 98
1, 238565, Control_c, 0, 67, 121
1, 238567, Note_off_c, 0, 64, 55
1, 238610, Control_c, 0, 64, 100
1, 238639, Control_c, 0, 67, 123
1, 238654, Control_c, 0, 64, 97
1, 238667, Note_on_c, 0, 64, 55
1, 238669, Control_c, 0, 64, 86
1, 238670, Note_on_c, 0, 77, 71
1, 238681, Note_on_c, 0, 72, 51
1, 238684, Control_c, 0, 64, 71
1, 238684, Control_c, 0, 67, 125
1, 238686, Note_on_c, 0, 69, 49
1, 238688, Note_on_c, 0, 74, 62
1, 238698, Control_c, 0, 64, 56
1, 238713, Control_c, 0, 64, 35
1, 238720, Note_off_c, 0, 69, 64
1, 238722, Note_off_c, 0, 72, 59
1, 238726, Note_off_c, 0, 64, 59
1, 238729, Control_c, 0, 64, 0
1, 238744, Control_c, 0, 64, 33
1, 238759, Control_c, 0, 64, 50
1, 238773, Control_c, 0, 64, 62
1, 238788, Control_c, 0, 64, 68
1, 238803, Control_c, 0, 64, 73
1, 238818, Control_c, 0, 64, 76
1, 238829, Note_on_c, 0, 72, 52
1, 238833, Control_c, 0, 64, 79
1, 238843, Note_on_c, 0, 69, 38
1, 238843, Note_off_c, 0, 74, 56
1, 238847, Control_c, 0, 64, 82
1, 238850, Note_on_c, 0, 64, 53
1, 238859, Note_off_c, 0, 72, 63
1, 238862, Control_c, 0, 64, 84
1, 238872, Note_off_c, 0, 69, 54
1, 238876, Note_off_c, 0, 77, 61
1, 238877, Control_c, 0, 64, 86
1, 238879, Note_off_c, 0, 64, 63
1, 238892, Control_c, 0, 64, 86
1, 238951, Control_c, 0, 67, 123
1, 238980, Control_c, 0, 64, 86
1, 238995, Control_c, 0, 64, 83
1, 239000, Note_on_c, 0, 64, 47
1, 239001, Note_on_c, 0, 74, 54
1, 239004, Note_on_c, 0, 76, 57
1, 239010, Control_c, 0, 64, 74
1, 239015, Note_on_c, 0, 71, 50
1, 239022, Note_on_c, 0, 68, 47
1, 239025, Control_c, 0, 64, 58
1, 239040, Control_c, 0, 64, 0
1, 239045, Note_off_c, 0, 71, 58
1, 239061, Note_off_c, 0, 64, 59
1, 239063, Note_off_c, 0, 68, 62
1, 239107, Control_c, 0, 64, 37
1, 239122, Control_c, 0, 64, 53
1, 239128, Note_off_c, 0, 74, 62
1, 239134, Note_off_c, 0, 76, 59
1, 239136, Control_c, 0, 64, 64
1, 239151, Control_c, 0, 64, 68
1, 239164, Note_on_c, 0, 71, 42
1, 239165, Note_on_c, 0, 68, 49
1, 239166, Control_c, 0, 64, 72
1, 239166, Control_c, 0, 67, 121
1, 239171, Note_on_c, 0, 64, 52
1, 239180, Control_c, 0, 64, 77
1, 239194, Note_off_c, 0, 71, 59
1, 239195, Control_c, 0, 64, 81
1, 239199, Note_off_c, 0, 68, 65
1, 239209, Note_off_c, 0, 64, 63
1, 239210, Control_c, 0, 64, 86
1, 239225, Control_c, 0, 64, 90
1, 239240, Control_c, 0, 64, 93
1, 239254, Control_c, 0, 64, 94
1, 239269, Control_c, 0, 64, 95
1, 239284, Control_c, 0, 67, 123
1, 239299, Control_c, 0, 64, 95
1, 239314, Control_c, 0, 64, 95
1, 239328, Control_c, 0, 64, 93
1, 239340, Note_on_c, 0, 77, 71
1, 239343, Control_c, 0, 64, 83
1, 239357, Note_on_c, 0, 72, 45
1, 239358, Note_on_c, 0, 64, 41
1, 239358, Control_c, 0, 64, 70
1, 239367, Note_on_c, 0, 74, 59
1, 239373, Note_on_c, 0, 69, 27
1, 239373, Control_c, 0, 64, 57
1, 239388, Control_c, 0, 64, 41
1, 239388, Control_c, 0, 67, 125
1, 239395, Note_off_c, 0, 64, 57
1, 239396, Note_off_c, 0, 72, 53
1, 239402, Control_c, 0, 64, 33
1, 239409, Note_off_c, 0, 69, 46
1, 239417, Control_c, 0, 64, 39
1, 239432, Control_c, 0, 64, 53
1, 239447, Control_c, 0, 64, 63
1, 239462, Control_c, 0, 64, 69
1, 239477, Control_c, 0, 64, 73
1, 239492, Control_c, 0, 64, 76
1, 239507, Note_off_c, 0, 74, 58
1, 239507, Control_c, 0, 64, 79
1, 239507, Note_on_c, 0, 64, 47
1, 239512, Note_on_c, 0, 69, 42
1, 239522, Control_c, 0, 64, 80
1, 239523, Note_on_c, 0, 72, 26
1, 239537, Control_c, 0, 64, 82
1, 239546, Note_off_c, 0, 69, 53
1, 239549, Note_off_c, 0, 77, 56
1, 239550, Note_off_c, 0, 64, 60
1, 239551, Control_c, 0, 64, 82
1, 239560, Note_off_c, 0, 72, 46
1, 239566, Control_c, 0, 64, 83
1, 239626, Control_c, 0, 67, 127
1, 239656, Control_c, 0, 64, 82
1, 239670, Control_c, 0, 64, 76
1, 239685, Control_c, 0, 64, 65
1, 239690, Note_on_c, 0, 74, 53
1, 239692, Note_on_c, 0, 76, 53
1, 239694, Note_on_c, 0, 64, 40
1, 239700, Control_c, 0, 64, 46
1, 239710, Note_on_c, 0, 68, 33
1, 239712, Note_on_c, 0, 71, 15
1, 239715, Control_c, 0, 64, 0
1, 239735, Note_off_c, 0, 64, 60
1, 239741, Note_off_c, 0, 68, 56
1, 239758, Note_off_c, 0, 71, 37
1, 239759, Control_c, 0, 64, 40
1, 239766, Note_off_c, 0, 74, 63
1, 239774, Control_c, 0, 64, 56
1, 239780, Note_off_c, 0, 76, 60
1, 239789, Control_c, 0, 64, 63
1, 239811, Control_c, 0, 64, 67
1, 239826, Control_c, 0, 64, 69
1, 239841, Control_c, 0, 64, 72
1, 239841, Control_c, 0, 67, 125
1, 239850, Note_on_c, 0, 68, 43
1, 239850, Note_on_c, 0, 64, 45
1, 239856, Control_c, 0, 64, 74
1, 239870, Control_c, 0, 64, 77
1, 239876, Note_off_c, 0, 68, 59
1, 239885, Control_c, 0, 64, 79
1, 239887, Note_off_c, 0, 64, 52
1, 239900, Control_c, 0, 64, 79
1, 239915, Control_c, 0, 64, 80
1, 239930, Control_c, 0, 64, 81
1, 239944, Note_on_c, 0, 79, 61
1, 239945, Control_c, 0, 64, 81
1, 239975, Control_c, 0, 64, 80
1, 239990, Control_c, 0, 64, 72
1, 240004, Control_c, 0, 64, 59
1, 240004, Control_c, 0, 67, 127
1, 240019, Control_c, 0, 64, 29
1, 240022, Note_on_c, 0, 77, 65
1, 240028, Note_off_c, 0, 79, 57
1, 240034, Control_c, 0, 64, 0
1, 240037, Note_on_c, 0, 64, 40
1, 240044, Note_on_c, 0, 72, 42
1, 240045, Note_on_c, 0, 74, 58
1, 240053, Note_on_c, 0, 69, 35
1, 240078, Control_c, 0, 64, 31
1, 240080, Note_off_c, 0, 72, 58
1, 240082, Note_off_c, 0, 64, 61
1, 240083, Note_off_c, 0, 69, 56
1, 240093, Control_c, 0, 64, 50
1, 240108, Control_c, 0, 64, 62
1, 240109, Note_off_c, 0, 74, 63
1, 240116, Note_off_c, 0, 77, 62
1, 240122, Control_c, 0, 64, 67
1, 240137, Control_c, 0, 64, 70
1, 240152, Control_c, 0, 64, 74
1, 240167, Control_c, 0, 64, 78
1, 240182, Control_c, 0, 64, 82
1, 240196, Control_c, 0, 64, 86
1, 240211, Note_on_c, 0, 64, 43
1, 240211, Control_c, 0, 64, 89
1, 240215, Note_on_c, 0, 72, 28
1, 240216, Note_on_c, 0, 69, 26
1, 240226, Control_c, 0, 64, 89
1, 240241, Control_c, 0, 64, 90
1, 240251, Note_off_c, 0, 64, 59
1, 240251, Note_off_c, 0, 72, 47
1, 240254, Note_off_c, 0, 69, 52
1, 240315, Control_c, 0, 64, 89
1, 240331, Control_c, 0, 64, 88
1, 240346, Control_c, 0, 64, 85
1, 240361, Control_c, 0, 64, 80
1, 240375, Control_c, 0, 64, 73
1, 240390, Control_c, 0, 64, 64
1, 240405, Control_c, 0, 64, 49
1, 240414, Note_on_c, 0, 74, 48
1, 240416, Note_on_c, 0, 76, 47
1, 240419, Control_c, 0, 64, 0
1, 240425, Note_on_c, 0, 71, 35
1, 240429, Note_on_c, 0, 64, 27
1, 240431, Note_on_c, 0, 69, 16
1, 240475, Note_off_c, 0, 69, 51
1, 240477, Note_off_c, 0, 64, 49
1, 240479, Control_c, 0, 64, 30
1, 240481, Note_off_c, 0, 71, 44
1, 240492, Note_off_c, 0, 74, 64
1, 240493, Control_c, 0, 64, 48
1, 240499, Note_off_c, 0, 76, 62
1, 240508, Control_c, 0, 64, 60
1, 240523, Control_c, 0, 64, 65
1, 240538, Control_c, 0, 64, 69
1, 240561, Control_c, 0, 64, 73
1, 240575, Control_c, 0, 64, 77
1, 240590, Control_c, 0, 64, 80
1, 240599, Note_on_c, 0, 69, 39
1, 240605, Control_c, 0, 64, 83
1, 240606, Note_on_c, 0, 64, 40
1, 240609, Note_on_c, 0, 71, 42
1, 240620, Control_c, 0, 64, 85
1, 240634, Control_c, 0, 64, 86
1, 240637, Note_off_c, 0, 69, 50
1, 240642, Note_off_c, 0, 71, 51
1, 240647, Note_off_c, 0, 64, 48
1, 240649, Control_c, 0, 64, 86
1, 240708, Control_c, 0, 64, 86
1, 240738, Control_c, 0, 64, 85
1, 240753, Control_c, 0, 64, 84
1, 240768, Control_c, 0, 64, 82
1, 240783, Control_c, 0, 64, 74
1, 240795, Note_on_c, 0, 74, 46
1, 240796, Note_on_c, 0, 64, 35
1, 240798, Control_c, 0, 64, 63
1, 240806, Note_on_c, 0, 76, 40
1, 240812, Control_c, 0, 64, 45
1, 240819, Note_on_c, 0, 71, 10
1, 240821, Note_on_c, 0, 68, 31
1, 240827, Control_c, 0, 64, 0
1, 240865, Note_off_c, 0, 68, 50
1, 240871, Note_off_c, 0, 64, 54
1, 240872, Control_c, 0, 64, 36
1, 240874, Note_off_c, 0, 71, 49
1, 240887, Control_c, 0, 64, 54
1, 240901, Control_c, 0, 64, 63
1, 240908, Note_off_c, 0, 76, 63
1, 240916, Control_c, 0, 64, 68
1, 240917, Note_off_c, 0, 74, 62
1, 240931, Control_c, 0, 64, 71
1, 240945, Control_c, 0, 64, 75
1, 240960, Control_c, 0, 64, 79
1, 240975, Control_c, 0, 64, 84
1, 240990, Control_c, 0, 64, 88
1, 240997, Note_on_c, 0, 64, 53
1, 241002, Note_on_c, 0, 68, 30
1, 241005, Control_c, 0, 64, 91
1, 241012, Note_on_c, 0, 71, 6
1, 241019, Control_c, 0, 64, 93
1, 241032, Note_off_c, 0, 64, 62
1, 241034, Note_off_c, 0, 68, 47
1, 241034, Control_c, 0, 64, 94
1, 241069, Note_off_c, 0, 71, 48
1, 241168, Control_c, 0, 64, 93
1, 241198, Control_c, 0, 64, 93
1, 241213, Control_c, 0, 64, 92
1, 241228, Control_c, 0, 64, 91
1, 241242, Control_c, 0, 64, 86
1, 241257, Control_c, 0, 64, 75
1, 241262, Note_on_c, 0, 76, 63
1, 241272, Control_c, 0, 64, 59
1, 241284, Note_on_c, 0, 45, 47
1, 241287, Control_c, 0, 64, 29
1, 241289, Note_on_c, 0, 72, 45
1, 241310, Control_c, 0, 64, 0
1, 241339, Note_off_c, 0, 45, 63
1, 241339, Control_c, 0, 64, 29
1, 241354, Control_c, 0, 64, 49
1, 241369, Control_c, 0, 64, 62
1, 241383, Control_c, 0, 64, 68
1, 241398, Control_c, 0, 64, 71
1, 241413, Control_c, 0, 64, 73
1, 241428, Control_c, 0, 64, 76
1, 241443, Control_c, 0, 64, 78
1, 241457, Control_c, 0, 64, 80
1, 241472, Control_c, 0, 64, 81
1, 241487, Control_c, 0, 64, 82
1, 241501, Note_on_c, 0, 64, 47
1, 241502, Control_c, 0, 64, 83
1, 241515, Note_on_c, 0, 57, 49
1, 241525, Note_on_c, 0, 60, 40
1, 241557, Note_off_c, 0, 64, 53
1, 241560, Note_off_c, 0, 60, 60
1, 241562, Note_off_c, 0, 57, 60
1, 241576, Control_c, 0, 64, 82
1, 241590, Control_c, 0, 64, 81
1, 241605, Control_c, 0, 64, 77
1, 241610, Note_off_c, 0, 72, 57
1, 241620, Control_c, 0, 64, 69
1, 241635, Control_c, 0, 64, 59
1, 241650, Control_c, 0, 64, 39
1, 241665, Control_c, 0, 64, 0
1, 241674, Note_off_c, 0, 76, 60
1, 241675, Note_on_c, 0, 74, 71
1, 241705, Note_on_c, 0, 57, 46
1, 241706, Note_on_c, 0, 64, 44
1, 241739, Note_off_c, 0, 64, 56
1, 241739, Note_off_c, 0, 57, 63
1, 241763, Note_on_c, 0, 72, 64
1, 241767, Note_off_c, 0, 74, 61
1, 241786, Poly_aftertouch_c, 0, 60, 0
1, 241838, Note_on_c, 0, 71, 69
1, 241841, Note_off_c, 0, 72, 60
1, 241854, Note_on_c, 0, 64, 33
1, 241856, Note_on_c, 0, 57, 44
1, 241889, Note_off_c, 0, 57, 64
1, 241889, Note_off_c, 0, 64, 53
1, 241895, Note_off_c, 0, 71, 59
1, 241918, Note_on_c, 0, 69, 67
1, 242021, Control_c, 0, 64, 37
1, 242035, Note_off_c, 0, 69, 52
1, 242036, Control_c, 0, 64, 56
1, 242053, Note_on_c, 0, 77, 68
1, 242058, Control_c, 0, 64, 62
1, 242073, Control_c, 0, 64, 66
1, 242077, Note_on_c, 0, 71, 57
1, 242079, Note_on_c, 0, 45, 55
1, 242088, Control_c, 0, 64, 70
1, 242103, Control_c, 0, 64, 77
1, 242110, Note_off_c, 0, 45, 64
1, 242118, Control_c, 0, 64, 82
1, 242133, Control_c, 0, 64, 86
1, 242147, Control_c, 0, 64, 90
1, 242162, Control_c, 0, 64, 94
1, 242177, Control_c, 0, 64, 97
1, 242192, Control_c, 0, 64, 101
1, 242206, Control_c, 0, 64, 107
1, 242221, Control_c, 0, 64, 127
1, 242221, Control_c, 0, 67, 108
1, 242236, Control_c, 0, 67, 58
1, 242251, Control_c, 0, 67, 0
1, 242279, Note_on_c, 0, 65, 56
1, 242295, Note_on_c, 0, 56, 48
1, 242295, Control_c, 0, 64, 80
1, 242303, Note_on_c, 0, 62, 44
1, 242310, Control_c, 0, 64, 59
1, 242314, Note_off_c, 0, 65, 61
1, 242325, Note_off_c, 0, 56, 57
1, 242325, Control_c, 0, 64, 0
1, 242331, Note_off_c, 0, 62, 58
1, 242445, Note_on_c, 0, 56, 53
1, 242452, Note_on_c, 0, 65, 57
1, 242461, Note_on_c, 0, 62, 30
1, 242485, Note_off_c, 0, 65, 64
1, 242492, Note_off_c, 0, 56, 62
1, 242494, Note_off_c, 0, 62, 58
1, 242600, Note_on_c, 0, 56, 69
1, 242601, Note_on_c, 0, 62, 42
1, 242601, Note_on_c, 0, 65, 41
1, 242608, Note_off_c, 0, 77, 59
1, 242630, Note_off_c, 0, 62, 51
1, 242630, Note_off_c, 0, 65, 51
1, 242633, Note_off_c, 0, 56, 68
1, 242664, Note_off_c, 0, 71, 37
1, 242755, Control_c, 0, 64, 46
1, 242770, Control_c, 0, 64, 60
1, 242783, Note_on_c, 0, 76, 70
1, 242785, Note_on_c, 0, 45, 66
1, 242785, Control_c, 0, 64, 66
1, 242803, Note_on_c, 0, 72, 57
1, 242807, Control_c, 0, 64, 71
1, 242819, Note_off_c, 0, 45, 65
1, 242822, Control_c, 0, 64, 78
1, 242836, Control_c, 0, 64, 85
1, 242851, Control_c, 0, 64, 94
1, 242866, Control_c, 0, 64, 103
1, 242881, Control_c, 0, 64, 117
1, 242895, Control_c, 0, 64, 127
1, 242962, Note_on_c, 0, 64, 59
1, 242968, Note_on_c, 0, 60, 52
1, 242972, Note_on_c, 0, 57, 48
1, 242997, Note_off_c, 0, 64, 63
1, 243005, Note_off_c, 0, 60, 64
1, 243009, Note_off_c, 0, 57, 64
1, 243058, Control_c, 0, 64, 111
1, 243073, Control_c, 0, 64, 90
1, 243088, Note_off_c, 0, 72, 60
1, 243088, Control_c, 0, 64, 74
1, 243102, Control_c, 0, 64, 60
1, 243117, Control_c, 0, 64, 31
1, 243132, Control_c, 0, 64, 0
1, 243133, Note_on_c, 0, 64, 54
1, 243134, Note_on_c, 0, 57, 56
1, 243138, Note_off_c, 0, 76, 62
1, 243139, Note_on_c, 0, 60, 52
1, 243140, Note_on_c, 0, 74, 75
1, 243164, Note_off_c, 0, 64, 65
1, 243170, Note_off_c, 0, 60, 66
1, 243173, Note_off_c, 0, 57, 66
1, 243216, Note_on_c, 0, 72, 73
1, 243234, Note_off_c, 0, 74, 62
1, 243284, Note_on_c, 0, 60, 49
1, 243284, Note_off_c, 0, 72, 62
1, 243286, Note_on_c, 0, 71, 77
1, 243288, Note_on_c, 0, 57, 56
1, 243291, Note_on_c, 0, 64, 36
1, 243313, Note_off_c, 0, 60, 65
1, 243321, Note_off_c, 0, 57, 64
1, 243324, Note_off_c, 0, 64, 55
1, 243349, Note_off_c, 0, 71, 60
1, 243354, Control_c, 0, 67, 36
1, 243363, Note_on_c, 0, 69, 72
1, 243369, Control_c, 0, 67, 41
1, 243384, Control_c, 0, 67, 46
1, 243399, Control_c, 0, 67, 50
1, 243413, Control_c, 0, 67, 52
1, 243439, Note_off_c, 0, 69, 58
1, 243443, Control_c, 0, 67, 51
1, 243461, Note_on_c, 0, 80, 85
1, 243464, Note_on_c, 0, 45, 67
1, 243473, Control_c, 0, 67, 50
1, 243487, Control_c, 0, 67, 49
1, 243489, Note_on_c, 0, 71, 60
1, 243491, Note_off_c, 0, 45, 64
1, 243502, Control_c, 0, 67, 48
1, 243518, Control_c, 0, 64, 53
1, 243518, Control_c, 0, 67, 47
1, 243533, Control_c, 0, 64, 61
1, 243533, Control_c, 0, 67, 46
1, 243555, Control_c, 0, 64, 63
1, 243555, Control_c, 0, 67, 45
1, 243570, Control_c, 0, 64, 64
1, 243570, Control_c, 0, 67, 44
1, 243585, Control_c, 0, 67, 43
1, 243614, Control_c, 0, 64, 63
1, 243614, Control_c, 0, 67, 42
1, 243630, Control_c, 0, 64, 61
1, 243630, Control_c, 0, 67, 42
1, 243644, Note_on_c, 0, 57, 54
1, 243644, Note_on_c, 0, 65, 52
1, 243644, Control_c, 0, 64, 61
1, 243649, Note_on_c, 0, 62, 50
1, 243659, Control_c, 0, 64, 62
1, 243659, Control_c, 0, 67, 41
1, 243674, Control_c, 0, 64, 65
1, 243682, Note_off_c, 0, 65, 62
1, 243689, Note_off_c, 0, 57, 61
1, 243689, Note_off_c, 0, 62, 61
1, 243689, Control_c, 0, 64, 69
1, 243704, Control_c, 0, 64, 73
1, 243719, Control_c, 0, 64, 76
1, 243734, Control_c, 0, 64, 78
1, 243749, Control_c, 0, 64, 81
1, 243764, Control_c, 0, 64, 84
1, 243778, Control_c, 0, 64, 87
1, 243793, Control_c, 0, 64, 90
1, 243808, Control_c, 0, 64, 93
1, 243808, Control_c, 0, 67, 42
1, 243811, Note_on_c, 0, 57, 58
1, 243816, Note_on_c, 0, 62, 49
1, 243819, Note_on_c, 0, 65, 50
1, 243823, Control_c, 0, 64, 98
1, 243823, Control_c, 0, 67, 42
1, 243838, Control_c, 0, 64, 102
1, 243852, Control_c, 0, 64, 108
1, 243853, Note_off_c, 0, 62, 60
1, 243855, Note_off_c, 0, 65, 61
1, 243860, Note_off_c, 0, 57, 56
1, 243867, Control_c, 0, 64, 116
1, 243867, Control_c, 0, 67, 43
1, 243882, Control_c, 0, 64, 127
1, 243916, Note_off_c, 0, 71, 57
1, 243941, Control_c, 0, 67, 43
1, 243964, Note_on_c, 0, 65, 58
1, 243967, Note_on_c, 0, 62, 54
1, 243973, Note_on_c, 0, 57, 61
1, 243974, Note_off_c, 0, 80, 56
1, 244002, Note_off_c, 0, 65, 60
1, 244006, Note_off_c, 0, 62, 61
1, 244020, Note_off_c, 0, 57, 61
1, 244044, Control_c, 0, 67, 43
1, 244139, Note_on_c, 0, 81, 81
1, 244147, Note_on_c, 0, 72, 73
1, 244148, Control_c, 0, 64, 107
1, 244148, Control_c, 0, 67, 43
1, 244154, Note_on_c, 0, 57, 61
1, 244159, Note_on_c, 0, 60, 58
1, 244162, Note_on_c, 0, 64, 53
1, 244163, Control_c, 0, 64, 80
1, 244178, Control_c, 0, 64, 63
1, 244193, Control_c, 0, 64, 46
1, 244193, Control_c, 0, 67, 44
1, 244199, Note_off_c, 0, 64, 64
1, 244205, Note_off_c, 0, 60, 57
1, 244208, Control_c, 0, 64, 42
1, 244212, Note_off_c, 0, 57, 58
1, 244223, Control_c, 0, 64, 51
1, 244237, Control_c, 0, 64, 65
1, 244252, Control_c, 0, 64, 76
1, 244267, Control_c, 0, 64, 95
1, 244282, Control_c, 0, 64, 127
1, 244308, Note_on_c, 0, 64, 61
1, 244324, Note_on_c, 0, 60, 55
1, 244330, Note_on_c, 0, 57, 60
1, 244348, Note_off_c, 0, 64, 62
1, 244348, Note_off_c, 0, 81, 61
1, 244356, Note_off_c, 0, 60, 66
1, 244360, Note_off_c, 0, 57, 65
1, 244418, Note_off_c, 0, 72, 60
1, 244467, Note_on_c, 0, 81, 70
1, 244470, Note_on_c, 0, 57, 56
1, 244481, Note_on_c, 0, 64, 68
1, 244481, Note_on_c, 0, 73, 72
1, 244482, Control_c, 0, 64, 89
1, 244483, Note_on_c, 0, 55, 67
1, 244497, Control_c, 0, 64, 62
1, 244497, Control_c, 0, 67, 45
1, 244512, Control_c, 0, 64, 31
1, 244518, Note_off_c, 0, 64, 58
1, 244527, Control_c, 0, 64, 0
1, 244536, Note_off_c, 0, 55, 56
1, 244537, Note_off_c, 0, 57, 62
1, 244542, Control_c, 0, 64, 50
1, 244547, Note_off_c, 0, 73, 62
1, 244556, Note_on_c, 0, 74, 81
1, 244556, Control_c, 0, 64, 66
1, 244560, Note_off_c, 0, 81, 62
1, 244571, Control_c, 0, 64, 80
1, 244586, Control_c, 0, 64, 105
1, 244601, Control_c, 0, 64, 127
1, 244615, Note_off_c, 0, 74, 61
1, 244627, Note_on_c, 0, 76, 79
1, 244628, Note_on_c, 0, 64, 71
1, 244631, Control_c, 0, 67, 44
1, 244644, Note_on_c, 0, 55, 69
1, 244646, Control_c, 0, 67, 43
1, 244654, Note_on_c, 0, 57, 52
1, 244661, Control_c, 0, 67, 43
1, 244673, Note_off_c, 0, 64, 58
1, 244685, Note_off_c, 0, 57, 65
1, 244708, Note_on_c, 0, 73, 84
1, 244711, Note_off_c, 0, 55, 59
1, 244735, Note_off_c, 0, 76, 61
1, 244749, Control_c, 0, 67, 43
1, 244779, Control_c, 0, 64, 92
1, 244779, Control_c, 0, 67, 44
1, 244793, Control_c, 0, 64, 61
1, 244793, Control_c, 0, 67, 45
1, 244797, Note_on_c, 0, 81, 88
1, 244798, Note_on_c, 0, 62, 69
1, 244802, Note_on_c, 0, 74, 88
1, 244803, Note_on_c, 0, 53, 68
1, 244805, Note_on_c, 0, 57, 56
1, 244808, Note_off_c, 0, 73, 61
1, 244808, Control_c, 0, 64, 0
1, 244808, Control_c, 0, 67, 46
1, 244853, Control_c, 0, 64, 35
1, 244863, Note_off_c, 0, 62, 61
1, 244867, Control_c, 0, 64, 60
1, 244873, Note_off_c, 0, 57, 59
1, 244878, Note_off_c, 0, 53, 61
1, 244882, Control_c, 0, 64, 74
1, 244897, Control_c, 0, 64, 99
1, 244912, Control_c, 0, 64, 127
1, 244964, Note_on_c, 0, 62, 72
1, 244968, Note_on_c, 0, 53, 74
1, 244971, Control_c, 0, 67, 46
1, 244976, Note_on_c, 0, 57, 61
1, 244976, Note_off_c, 0, 81, 57
1, 245001, Note_off_c, 0, 62, 58
1, 245005, Note_off_c, 0, 57, 65
1, 245017, Note_off_c, 0, 53, 63
1, 245053, Control_c, 0, 67, 46
1, 245127, Note_off_c, 0, 74, 56
1, 245142, Control_c, 0, 64, 105
1, 245142, Control_c, 0, 67, 46
1, 245147, Note_on_c, 0, 61, 78
1, 245150, Note_on_c, 0, 57, 52
1, 245150, Note_on_c, 0, 76, 83
1, 245154, Note_on_c, 0, 81, 76
1, 245157, Control_c, 0, 64, 62
1, 245157, Control_c, 0, 67, 47
1, 245158, Note_on_c, 0, 52, 66
1, 245172, Control_c, 0, 64, 0
1, 245172, Control_c, 0, 67, 48
1, 245187, Control_c, 0, 67, 49
1, 245200, Note_off_c, 0, 61, 64
1, 245216, Control_c, 0, 64, 36
1, 245219, Note_off_c, 0, 57, 62
1, 245224, Note_off_c, 0, 52, 61
1, 245231, Control_c, 0, 64, 61
1, 245244, Note_on_c, 0, 77, 86
1, 245246, Control_c, 0, 64, 74
1, 245261, Control_c, 0, 64, 100
1, 245270, Note_off_c, 0, 76, 61
1, 245276, Control_c, 0, 64, 127
1, 245290, Control_c, 0, 67, 48
1, 245305, Control_c, 0, 67, 48
1, 245316, Note_on_c, 0, 61, 72
1, 245325, Note_on_c, 0, 52, 74
1, 245333, Note_on_c, 0, 57, 60
1, 245334, Note_on_c, 0, 79, 80
1, 245335, Control_c, 0, 67, 47
1, 245341, Note_off_c, 0, 61, 68
1, 245358, Note_off_c, 0, 77, 62
1, 245361, Note_off_c, 0, 57, 64
1, 245361, Note_off_c, 0, 81, 64
1, 245364, Control_c, 0, 67, 48
1, 245367, Note_off_c, 0, 52, 61
1, 245415, Note_off_c, 0, 79, 67
1, 245417, Note_on_c, 0, 76, 83
1, 245498, Control_c, 0, 67, 47
1, 245572, Control_c, 0, 64, 111
1, 245587, Control_c, 0, 64, 100
1, 245602, Control_c, 0, 64, 92
1, 245616, Control_c, 0, 64, 83
1, 245616, Control_c, 0, 67, 48
1, 245631, Control_c, 0, 64, 72
1, 245646, Control_c, 0, 64, 58
1, 245647, Note_on_c, 0, 82, 84
1, 245661, Control_c, 0, 64, 0
1, 245661, Control_c, 0, 67, 48
1, 245663, Note_on_c, 0, 79, 61
1, 245686, Note_on_c, 0, 38, 69
1, 245690, Control_c, 0, 67, 49
1, 245694, Note_off_c, 0, 76, 58
1, 245720, Control_c, 0, 67, 48
1, 245749, Control_c, 0, 64, 45
1, 245751, Note_off_c, 0, 38, 63
1, 245764, Control_c, 0, 64, 64
1, 245779, Control_c, 0, 64, 73
1, 245802, Control_c, 0, 64, 84
1, 245802, Control_c, 0, 67, 49
1, 245816, Control_c, 0, 64, 95
1, 245816, Control_c, 0, 67, 50
1, 245831, Control_c, 0, 64, 103
1, 245831, Control_c, 0, 67, 52
1, 245846, Control_c, 0, 64, 111
1, 245846, Control_c, 0, 67, 53
1, 245861, Control_c, 0, 64, 121
1, 245861, Control_c, 0, 67, 54
1, 245876, Control_c, 0, 64, 126
1, 245876, Control_c, 0, 67, 56
1, 245891, Control_c, 0, 67, 56
1, 245921, Control_c, 0, 67, 57
1, 245925, Note_on_c, 0, 50, 61
1, 245930, Note_on_c, 0, 57, 48
1, 245930, Note_on_c, 0, 62, 53
1, 245963, Note_off_c, 0, 62, 60
1, 245965, Control_c, 0, 67, 57
1, 245968, Note_off_c, 0, 50, 58
1, 245975, Note_off_c, 0, 57, 59
1, 245980, Control_c, 0, 67, 61
1, 245995, Control_c, 0, 67, 64
1, 246010, Control_c, 0, 67, 67
1, 246084, Control_c, 0, 67, 66
1, 246090, Note_on_c, 0, 62, 51
1, 246094, Note_on_c, 0, 57, 52
1, 246095, Note_on_c, 0, 50, 57
1, 246099, Control_c, 0, 64, 123
1, 246099, Control_c, 0, 67, 65
1, 246113, Control_c, 0, 67, 65
1, 246126, Note_off_c, 0, 62, 63
1, 246134, Note_off_c, 0, 57, 61
1, 246142, Note_off_c, 0, 50, 58
1, 246143, Control_c, 0, 67, 64
1, 246172, Control_c, 0, 67, 64
1, 246202, Control_c, 0, 67, 63
1, 246217, Control_c, 0, 64, 121
1, 246217, Control_c, 0, 67, 63
1, 246224, Note_off_c, 0, 79, 60
1, 246237, Note_on_c, 0, 81, 70
1, 246237, Note_on_c, 0, 62, 36
1, 246241, Note_on_c, 0, 57, 39
1, 246245, Note_on_c, 0, 77, 60
1, 246246, Note_off_c, 0, 82, 59
1, 246247, Control_c, 0, 67, 62
1, 246247, Note_on_c, 0, 50, 60
1, 246269, Note_off_c, 0, 62, 53
1, 246276, Note_off_c, 0, 50, 66
1, 246276, Note_off_c, 0, 57, 48
1, 246306, Control_c, 0, 67, 63
1, 246321, Control_c, 0, 64, 118
1, 246321, Control_c, 0, 67, 63
1, 246336, Control_c, 0, 64, 98
1, 246351, Control_c, 0, 64, 75
1, 246351, Control_c, 0, 67, 64
1, 246365, Control_c, 0, 64, 55
1, 246380, Control_c, 0, 64, 0
1, 246380, Control_c, 0, 67, 64
1, 246402, Note_on_c, 0, 38, 66
1, 246405, Note_off_c, 0, 77, 61
1, 246405, Note_on_c, 0, 79, 71
1, 246410, Note_on_c, 0, 76, 65
1, 246410, Control_c, 0, 64, 42
1, 246425, Control_c, 0, 64, 57
1, 246425, Note_off_c, 0, 81, 62
1, 246432, Note_off_c, 0, 38, 63
1, 246439, Control_c, 0, 64, 65
1, 246454, Control_c, 0, 64, 72
1, 246469, Control_c, 0, 64, 79
1, 246483, Control_c, 0, 64, 84
1, 246498, Control_c, 0, 64, 88
1, 246513, Control_c, 0, 64, 93
1, 246513, Control_c, 0, 67, 64
1, 246528, Control_c, 0, 64, 100
1, 246551, Control_c, 0, 64, 111
1, 246556, Note_off_c, 0, 76, 61
1, 246565, Control_c, 0, 64, 127
1, 246567, Note_on_c, 0, 77, 79
1, 246567, Note_off_c, 0, 79, 39
1, 246571, Note_on_c, 0, 74, 78
1, 246580, Control_c, 0, 67, 64
1, 246590, Note_on_c, 0, 57, 44
1, 246592, Note_on_c, 0, 50, 46
1, 246610, Control_c, 0, 67, 65
1, 246623, Note_off_c, 0, 57, 57
1, 246625, Control_c, 0, 64, 89
1, 246625, Control_c, 0, 67, 65
1, 246639, Control_c, 0, 64, 70
1, 246639, Control_c, 0, 67, 67
1, 246641, Note_off_c, 0, 50, 57
1, 246654, Control_c, 0, 64, 56
1, 246654, Control_c, 0, 67, 68
1, 246669, Control_c, 0, 64, 49
1, 246669, Control_c, 0, 67, 68
1, 246684, Control_c, 0, 64, 55
1, 246698, Control_c, 0, 64, 65
1, 246698, Control_c, 0, 67, 69
1, 246709, Note_off_c, 0, 74, 59
1, 246713, Control_c, 0, 64, 73
1, 246730, Note_on_c, 0, 76, 74
1, 246730, Control_c, 0, 64, 83
1, 246730, Note_on_c, 0, 72, 67
1, 246731, Note_on_c, 0, 57, 50
1, 246741, Note_on_c, 0, 50, 61
1, 246744, Control_c, 0, 64, 91
1, 246744, Control_c, 0, 67, 69
1, 246759, Control_c, 0, 64, 96
1, 246774, Control_c, 0, 64, 102
1, 246781, Note_off_c, 0, 50, 62
1, 246782, Note_off_c, 0, 57, 59
1, 246788, Control_c, 0, 64, 108
1, 246789, Note_off_c, 0, 77, 57
1, 246803, Control_c, 0, 64, 114
1, 246818, Control_c, 0, 64, 118
1, 246833, Control_c, 0, 64, 121
1, 246848, Control_c, 0, 64, 123
1, 246862, Control_c, 0, 64, 126
1, 246862, Control_c, 0, 67, 70
1, 246873, Note_off_c, 0, 76, 42
1, 246880, Note_on_c, 0, 71, 76
1, 246881, Note_on_c, 0, 74, 71
1, 246885, Note_on_c, 0, 50, 62
1, 246891, Note_on_c, 0, 59, 53
1, 246907, Control_c, 0, 67, 71
1, 246914, Note_off_c, 0, 72, 33
1, 246915, Note_off_c, 0, 50, 65
1, 246915, Note_off_c, 0, 59, 58
1, 246921, Control_c, 0, 67, 71
1, 246929, Note_off_c, 0, 71, 61
1, 246936, Control_c, 0, 67, 74
1, 246944, Note_off_c, 0, 74, 63
1, 246951, Control_c, 0, 64, 118
1, 246951, Control_c, 0, 67, 88
1, 246966, Control_c, 0, 64, 101
1, 246966, Control_c, 0, 67, 99
1, 246981, Control_c, 0, 64, 82
1, 246981, Control_c, 0, 67, 104
1, 246995, Control_c, 0, 64, 63
1, 246995, Control_c, 0, 67, 106
1, 247010, Control_c, 0, 64, 43
1, 247025, Control_c, 0, 64, 33
1, 247040, Control_c, 0, 64, 43
1, 247040, Control_c, 0, 67, 108
1, 247055, Note_on_c, 0, 74, 75
1, 247055, Control_c, 0, 64, 57
1, 247066, Note_on_c, 0, 40, 56
1, 247067, Note_on_c, 0, 71, 60
1, 247069, Control_c, 0, 64, 66
1, 247084, Control_c, 0, 64, 73
1, 247098, Note_off_c, 0, 40, 62
1, 247099, Control_c, 0, 64, 82
1, 247114, Control_c, 0, 64, 88
1, 247129, Control_c, 0, 64, 94
1, 247144, Control_c, 0, 64, 100
1, 247159, Control_c, 0, 64, 106
1, 247159, Control_c, 0, 67, 106
1, 247174, Control_c, 0, 64, 112
1, 247188, Control_c, 0, 64, 127
1, 247203, Control_c, 0, 67, 104
1, 247233, Control_c, 0, 67, 102
1, 247236, Note_on_c, 0, 52, 58
1, 247237, Note_off_c, 0, 71, 58
1, 247240, Note_on_c, 0, 60, 54
1, 247257, Note_on_c, 0, 57, 24
1, 247262, Control_c, 0, 64, 88
1, 247272, Note_off_c, 0, 52, 60
1, 247272, Note_off_c, 0, 60, 66
1, 247277, Control_c, 0, 64, 64
1, 247291, Note_off_c, 0, 74, 61
1, 247297, Note_off_c, 0, 57, 48
1, 247299, Control_c, 0, 64, 0
1, 247299, Control_c, 0, 67, 104
1, 247314, Note_on_c, 0, 69, 64
1, 247315, Note_on_c, 0, 72, 63
1, 247344, Control_c, 0, 67, 106
1, 247373, Control_c, 0, 67, 109
1, 247386, Note_off_c, 0, 69, 63
1, 247388, Note_off_c, 0, 72, 63
1, 247395, Note_on_c, 0, 74, 78
1, 247397, Note_on_c, 0, 57, 45
1, 247400, Note_on_c, 0, 71, 67
1, 247405, Note_on_c, 0, 52, 53
1, 247410, Note_on_c, 0, 60, 32
1, 247433, Control_c, 0, 67, 112
1, 247439, Note_off_c, 0, 57, 62
1, 247443, Note_off_c, 0, 60, 53
1, 247445, Note_off_c, 0, 52, 63
1, 247466, Note_off_c, 0, 71, 59
1, 247469, Note_off_c, 0, 74, 64
1, 247472, Note_on_c, 0, 72, 66
1, 247477, Control_c, 0, 67, 125
1, 247481, Note_on_c, 0, 69, 68
1, 247492, Control_c, 0, 67, 127
1, 247535, Note_off_c, 0, 72, 62
1, 247541, Note_off_c, 0, 69, 63
1, 247547, Note_on_c, 0, 60, 46
1, 247551, Note_on_c, 0, 74, 69
1, 247552, Note_on_c, 0, 52, 56
1, 247558, Note_on_c, 0, 71, 56
1, 247574, Note_off_c, 0, 60, 54
1, 247585, Note_off_c, 0, 52, 64
1, 247627, Note_off_c, 0, 74, 64
1, 247633, Note_off_c, 0, 71, 60
1, 247636, Note_on_c, 0, 72, 67
1, 247643, Note_on_c, 0, 69, 67
1, 247656, Control_c, 0, 64, 28
1, 247671, Note_off_c, 0, 69, 66
1, 247671, Control_c, 0, 64, 44
1, 247683, Note_off_c, 0, 72, 63
1, 247686, Control_c, 0, 64, 54
1, 247700, Control_c, 0, 64, 60
1, 247715, Control_c, 0, 64, 63
1, 247730, Control_c, 0, 64, 65
1, 247744, Control_c, 0, 64, 68
1, 247758, Note_on_c, 0, 72, 53
1, 247759, Note_on_c, 0, 40, 53
1, 247759, Control_c, 0, 64, 70
1, 247761, Note_on_c, 0, 69, 66
1, 247774, Control_c, 0, 64, 72
1, 247788, Note_off_c, 0, 40, 55
1, 247789, Control_c, 0, 64, 73
1, 247804, Control_c, 0, 64, 75
1, 247818, Control_c, 0, 64, 75
1, 247833, Control_c, 0, 64, 76
1, 247848, Control_c, 0, 64, 77
1, 247878, Control_c, 0, 64, 77
1, 247940, Note_on_c, 0, 52, 59
1, 247940, Note_on_c, 0, 62, 51
1, 247950, Note_off_c, 0, 69, 59
1, 247952, Note_on_c, 0, 59, 47
1, 247967, Control_c, 0, 64, 77
1, 247976, Note_off_c, 0, 62, 59
1, 247981, Control_c, 0, 64, 72
1, 247984, Note_off_c, 0, 59, 56
1, 247986, Note_off_c, 0, 52, 58
1, 247996, Control_c, 0, 64, 60
1, 248005, Note_off_c, 0, 72, 63
1, 248011, Control_c, 0, 64, 0
1, 248011, Note_on_c, 0, 68, 62
1, 248017, Note_on_c, 0, 71, 63
1, 248089, Note_off_c, 0, 68, 61
1, 248090, Note_off_c, 0, 71, 59
1, 248107, Control_c, 0, 64, 29
1, 248109, Note_on_c, 0, 72, 66
1, 248110, Note_on_c, 0, 69, 62
1, 248122, Control_c, 0, 64, 47
1, 248126, Note_on_c, 0, 52, 55
1, 248130, Note_on_c, 0, 62, 49
1, 248134, Note_on_c, 0, 59, 37
1, 248136, Control_c, 0, 64, 60
1, 248151, Control_c, 0, 64, 66
1, 248165, Note_off_c, 0, 62, 64
1, 248166, Note_off_c, 0, 59, 56
1, 248166, Control_c, 0, 64, 70
1, 248172, Note_off_c, 0, 69, 42
1, 248172, Note_off_c, 0, 52, 60
1, 248179, Note_off_c, 0, 72, 62
1, 248181, Control_c, 0, 64, 73
1, 248187, Note_on_c, 0, 71, 72
1, 248196, Control_c, 0, 64, 78
1, 248198, Note_on_c, 0, 68, 65
1, 248211, Control_c, 0, 64, 87
1, 248226, Control_c, 0, 64, 95
1, 248241, Control_c, 0, 64, 105
1, 248253, Note_off_c, 0, 71, 60
1, 248256, Control_c, 0, 64, 118
1, 248260, Note_on_c, 0, 62, 48
1, 248262, Note_off_c, 0, 68, 61
1, 248265, Note_on_c, 0, 59, 44
1, 248268, Note_on_c, 0, 69, 71
1, 248270, Control_c, 0, 64, 127
1, 248271, Note_on_c, 0, 72, 67
1, 248280, Note_on_c, 0, 52, 43
1, 248292, Note_off_c, 0, 62, 52
1, 248294, Note_off_c, 0, 59, 54
1, 248310, Note_off_c, 0, 52, 54
1, 248339, Note_off_c, 0, 72, 60
1, 248342, Note_off_c, 0, 69, 55
1, 248351, Note_on_c, 0, 71, 74
1, 248372, Note_on_c, 0, 68, 53
1, 248375, Note_off_c, 0, 71, 68
1, 248391, Note_off_c, 0, 68, 63
1, 248552, Note_on_c, 0, 84, 85
1, 248582, Control_c, 0, 64, 120
1, 248593, Note_on_c, 0, 81, 51
1, 248597, Control_c, 0, 64, 103
1, 248607, Note_on_c, 0, 45, 59
1, 248612, Control_c, 0, 64, 89
1, 248627, Control_c, 0, 64, 71
1, 248641, Control_c, 0, 64, 54
1, 248656, Control_c, 0, 64, 0
1, 248715, Control_c, 0, 64, 40
1, 248730, Control_c, 0, 64, 60
1, 248745, Control_c, 0, 64, 68
1, 248760, Control_c, 0, 64, 78
1, 248768, Note_on_c, 0, 52, 59
1, 248774, Control_c, 0, 64, 90
1, 248786, Note_on_c, 0, 76, 57
1, 248797, Control_c, 0, 64, 106
1, 248812, Control_c, 0, 64, 127
1, 248824, Note_off_c, 0, 76, 62
1, 248849, Note_off_c, 0, 81, 60
1, 248920, Note_on_c, 0, 83, 81
1, 248941, Note_off_c, 0, 84, 62
1, 248947, Note_on_c, 0, 74, 62
1, 248948, Note_on_c, 0, 56, 70
1, 248974, Note_off_c, 0, 74, 65
1, 248977, Note_off_c, 0, 45, 47
1, 249019, Note_off_c, 0, 52, 60
1, 249063, Note_on_c, 0, 81, 80
1, 249066, Note_off_c, 0, 56, 59
1, 249072, Note_on_c, 0, 72, 72
1, 249072, Note_on_c, 0, 57, 61
1, 249087, Note_off_c, 0, 83, 62
1, 249117, Note_off_c, 0, 72, 59
1, 249174, Note_off_c, 0, 81, 61
1, 249198, Control_c, 0, 64, 120
1, 249213, Control_c, 0, 64, 106
1, 249228, Control_c, 0, 64, 98
1, 249242, Control_c, 0, 64, 91
1, 249250, Note_on_c, 0, 79, 71
1, 249257, Control_c, 0, 64, 85
1, 249263, Note_on_c, 0, 58, 58
1, 249265, Note_on_c, 0, 73, 56
1, 249272, Control_c, 0, 64, 79
1, 249278, Note_on_c, 0, 50, 44
1, 249287, Control_c, 0, 64, 72
1, 249294, Note_off_c, 0, 57, 60
1, 249302, Control_c, 0, 64, 64
1, 249316, Control_c, 0, 64, 56
1, 249317, Note_off_c, 0, 73, 51
1, 249331, Control_c, 0, 64, 47
1, 249346, Control_c, 0, 64, 32
1, 249357, Note_off_c, 0, 79, 57
1, 249361, Control_c, 0, 64, 0
1, 249407, Note_off_c, 0, 58, 60
1, 249411, Note_on_c, 0, 77, 74
1, 249418, Note_on_c, 0, 57, 59
1, 249421, Note_on_c, 0, 74, 65
1, 249533, Note_off_c, 0, 74, 56
1, 249584, Note_on_c, 0, 76, 68
1, 249594, Note_on_c, 0, 72, 56
1, 249642, Note_off_c, 0, 77, 57
1, 249665, Control_c, 0, 64, 30
1, 249680, Control_c, 0, 64, 46
1, 249695, Control_c, 0, 64, 56
1, 249700, Note_off_c, 0, 57, 60
1, 249709, Control_c, 0, 64, 60
1, 249721, Note_off_c, 0, 76, 55
1, 249724, Control_c, 0, 64, 61
1, 249737, Note_off_c, 0, 72, 34
1, 249739, Control_c, 0, 64, 62
1, 249740, Note_on_c, 0, 71, 58
1, 249745, Note_on_c, 0, 59, 50
1, 249746, Note_on_c, 0, 74, 65
1, 249754, Control_c, 0, 64, 65
1, 249762, Note_off_c, 0, 50, 47
1, 249769, Control_c, 0, 64, 68
1, 249770, Note_off_c, 0, 59, 61
1, 249782, Note_off_c, 0, 71, 59
1, 249783, Control_c, 0, 64, 70
1, 249807, Note_off_c, 0, 74, 63
1, 249813, Control_c, 0, 64, 66
1, 249828, Control_c, 0, 64, 57
1, 249843, Control_c, 0, 64, 38
1, 249857, Control_c, 0, 64, 0
1, 249872, Control_c, 0, 64, 33
1, 249887, Control_c, 0, 64, 47
1, 249902, Control_c, 0, 64, 58
1, 249918, Control_c, 0, 64, 64
1, 249924, Note_on_c, 0, 74, 66
1, 249926, Note_on_c, 0, 71, 54
1, 249932, Note_on_c, 0, 40, 58
1, 249932, Control_c, 0, 64, 67
1, 249947, Control_c, 0, 64, 72
1, 249962, Control_c, 0, 64, 74
1, 249963, Note_off_c, 0, 40, 64
1, 249977, Control_c, 0, 64, 77
1, 249992, Control_c, 0, 64, 80
1, 250006, Control_c, 0, 64, 82
1, 250021, Control_c, 0, 64, 84
1, 250036, Control_c, 0, 64, 86
1, 250051, Control_c, 0, 64, 88
1, 250066, Control_c, 0, 64, 89
1, 250095, Control_c, 0, 64, 87
1, 250104, Note_on_c, 0, 60, 52
1, 250110, Control_c, 0, 64, 78
1, 250113, Note_on_c, 0, 52, 50
1, 250115, Note_on_c, 0, 57, 46
1, 250125, Control_c, 0, 64, 63
1, 250131, Note_off_c, 0, 71, 47
1, 250136, Note_off_c, 0, 60, 63
1, 250140, Control_c, 0, 64, 35
1, 250153, Note_off_c, 0, 57, 65
1, 250154, Note_off_c, 0, 52, 62
1, 250155, Control_c, 0, 64, 0
1, 250158, Note_off_c, 0, 74, 62
1, 250172, Note_on_c, 0, 72, 62
1, 250178, Note_on_c, 0, 69, 61
1, 250227, Note_off_c, 0, 69, 61
1, 250241, Note_off_c, 0, 72, 61
1, 250264, Note_on_c, 0, 74, 75
1, 250265, Note_on_c, 0, 71, 62
1, 250295, Note_on_c, 0, 52, 55
1, 250295, Note_on_c, 0, 60, 48
1, 250302, Note_on_c, 0, 57, 31
1, 250304, Note_off_c, 0, 71, 52
1, 250325, Note_off_c, 0, 60, 64
1, 250333, Note_off_c, 0, 52, 62
1, 250333, Note_off_c, 0, 57, 52
1, 250333, Note_off_c, 0, 74, 64
1, 250348, Note_on_c, 0, 69, 63
1, 250349, Note_on_c, 0, 72, 61
1, 250398, Note_off_c, 0, 72, 63
1, 250399, Note_off_c, 0, 69, 59
1, 250432, Note_on_c, 0, 71, 65
1, 250432, Note_on_c, 0, 74, 70
1, 250434, Note_on_c, 0, 60, 36
1, 250436, Note_on_c, 0, 57, 33
1, 250447, Note_on_c, 0, 52, 50
1, 250462, Note_off_c, 0, 71, 61
1, 250465, Note_off_c, 0, 57, 49
1, 250467, Note_off_c, 0, 60, 50
1, 250475, Note_off_c, 0, 52, 62
1, 250496, Note_off_c, 0, 74, 62
1, 250514, Note_on_c, 0, 69, 63
1, 250522, Note_on_c, 0, 72, 55
1, 250583, Note_off_c, 0, 72, 48
1, 250593, Note_off_c, 0, 69, 59
1, 250651, Control_c, 0, 64, 45
1, 250652, Note_on_c, 0, 39, 52
1, 250659, Note_on_c, 0, 71, 67
1, 250663, Note_on_c, 0, 74, 69
1, 250665, Control_c, 0, 64, 60
1, 250680, Control_c, 0, 64, 67
1, 250682, Note_off_c, 0, 39, 54
1, 250695, Control_c, 0, 64, 73
1, 250711, Control_c, 0, 64, 80
1, 250726, Control_c, 0, 64, 84
1, 250741, Control_c, 0, 64, 88
1, 250755, Control_c, 0, 64, 92
1, 250770, Control_c, 0, 64, 95
1, 250785, Control_c, 0, 64, 95
1, 250830, Note_on_c, 0, 60, 55
1, 250840, Note_on_c, 0, 51, 49
1, 250849, Note_on_c, 0, 57, 38
1, 250853, Note_off_c, 0, 71, 54
1, 250859, Control_c, 0, 64, 95
1, 250860, Note_off_c, 0, 60, 65
1, 250874, Note_off_c, 0, 51, 63
1, 250874, Control_c, 0, 64, 93
1, 250879, Note_off_c, 0, 57, 54
1, 250889, Control_c, 0, 64, 91
1, 250898, Note_off_c, 0, 74, 63
1, 250903, Control_c, 0, 64, 89
1, 250909, Note_on_c, 0, 72, 61
1, 250909, Note_on_c, 0, 69, 62
1, 250918, Control_c, 0, 64, 87
1, 250933, Control_c, 0, 64, 84
1, 250948, Control_c, 0, 64, 81
1, 250962, Control_c, 0, 64, 77
1, 250967, Note_off_c, 0, 69, 62
1, 250973, Note_off_c, 0, 72, 62
1, 250977, Control_c, 0, 64, 72
1, 250982, Note_on_c, 0, 71, 71
1, 250989, Note_on_c, 0, 51, 57
1, 250990, Note_on_c, 0, 60, 53
1, 250992, Note_on_c, 0, 74, 73
1, 250992, Control_c, 0, 64, 66
1, 250996, Note_on_c, 0, 57, 40
1, 251007, Control_c, 0, 64, 59
1, 251021, Note_off_c, 0, 60, 68
1, 251022, Control_c, 0, 64, 49
1, 251025, Note_off_c, 0, 71, 54
1, 251040, Note_off_c, 0, 51, 62
1, 251040, Note_off_c, 0, 57, 62
1, 251044, Control_c, 0, 64, 34
1, 251059, Control_c, 0, 64, 0
1, 251067, Note_off_c, 0, 74, 65
1, 251072, Note_on_c, 0, 72, 70
1, 251080, Note_on_c, 0, 69, 71
1, 251115, Note_off_c, 0, 72, 65
1, 251133, Note_off_c, 0, 69, 60
1, 251143, Note_on_c, 0, 71, 74
1, 251144, Note_on_c, 0, 60, 49
1, 251146, Note_on_c, 0, 57, 47
1, 251153, Note_on_c, 0, 51, 54
1, 251153, Note_on_c, 0, 74, 71
1, 251168, Note_off_c, 0, 60, 61
1, 251170, Note_off_c, 0, 57, 60
1, 251186, Note_off_c, 0, 51, 62
1, 251192, Note_off_c, 0, 71, 41
1, 251212, Note_off_c, 0, 74, 64
1, 251214, Note_on_c, 0, 72, 72
1, 251245, Note_on_c, 0, 69, 53
1, 251279, Note_off_c, 0, 72, 62
1, 251326, Note_on_c, 0, 40, 59
1, 251332, Note_on_c, 0, 68, 63
1, 251333, Note_on_c, 0, 71, 65
1, 251339, Control_c, 0, 64, 36
1, 251354, Note_off_c, 0, 40, 61
1, 251354, Control_c, 0, 64, 46
1, 251368, Control_c, 0, 64, 55
1, 251383, Control_c, 0, 64, 60
1, 251398, Control_c, 0, 64, 61
1, 251413, Control_c, 0, 64, 61
1, 251428, Note_off_c, 0, 69, 43
1, 251442, Control_c, 0, 64, 61
1, 251457, Control_c, 0, 64, 59
1, 251472, Control_c, 0, 64, 51
1, 251486, Note_on_c, 0, 59, 53
1, 251487, Control_c, 0, 64, 0
1, 251490, Note_on_c, 0, 56, 52
1, 251492, Note_on_c, 0, 52, 50
1, 251499, Note_off_c, 0, 71, 60
1, 251504, Note_off_c, 0, 68, 59
1, 251517, Control_c, 0, 67, 38
1, 251519, Note_off_c, 0, 59, 65
1, 251525, Note_off_c, 0, 52, 64
1, 251528, Note_off_c, 0, 56, 63
1, 251532, Control_c, 0, 67, 0
1, 251635, Note_on_c, 0, 76, 83
1, 251644, Note_on_c, 0, 52, 57
1, 251648, Note_on_c, 0, 56, 56
1, 251652, Note_off_c, 0, 76, 73
1, 251680, Note_off_c, 0, 52, 62
1, 251680, Note_off_c, 0, 56, 64
1, 251806, Control_c, 0, 67, 59
1, 251809, Note_on_c, 0, 56, 50
1, 251812, Note_on_c, 0, 64, 58
1, 251821, Control_c, 0, 67, 83
1, 251827, Note_on_c, 0, 59, 49
1, 251836, Control_c, 0, 67, 95
1, 251847, Note_off_c, 0, 64, 62
1, 251851, Control_c, 0, 67, 103
1, 251853, Note_off_c, 0, 56, 61
1, 251853, Note_off_c, 0, 59, 59
1, 251866, Control_c, 0, 67, 108
1, 251981, Note_on_c, 0, 59, 30
1, 251984, Note_on_c, 0, 53, 69
1, 251988, Note_on_c, 0, 56, 46
1, 251996, Note_on_c, 0, 64, 45
1, 251999, Control_c, 0, 67, 106
1, 252027, Note_off_c, 0, 59, 57
1, 252027, Note_off_c, 0, 64, 56
1, 252031, Note_off_c, 0, 56, 61
1, 252044, Control_c, 0, 67, 104
1, 252148, Note_on_c, 0, 64, 47
1, 252149, Note_on_c, 0, 59, 43
1, 252155, Note_on_c, 0, 56, 46
1, 252176, Control_c, 0, 67, 102
1, 252182, Note_off_c, 0, 59, 56
1, 252187, Note_off_c, 0, 64, 63
1, 252194, Note_off_c, 0, 56, 65
1, 252221, Control_c, 0, 67, 99
1, 252226, Note_off_c, 0, 53, 54
1, 252235, Note_on_c, 0, 52, 73
1, 252295, Note_off_c, 0, 52, 61
1, 252302, Note_on_c, 0, 56, 55
1, 252304, Note_on_c, 0, 59, 43
1, 252304, Note_on_c, 0, 64, 49
1, 252323, Note_on_c, 0, 53, 83
1, 252346, Note_off_c, 0, 64, 65
1, 252348, Note_off_c, 0, 59, 60
1, 252355, Note_off_c, 0, 56, 61
1, 252370, Control_c, 0, 67, 97
1, 252385, Control_c, 0, 67, 93
1, 252390, Note_on_c, 0, 52, 86
1, 252392, Note_off_c, 0, 53, 64
1, 252399, Control_c, 0, 67, 88
1, 252414, Control_c, 0, 67, 79
1, 252429, Control_c, 0, 67, 56
1, 252444, Control_c, 0, 67, 0
1, 252459, Note_on_c, 0, 59, 56
1, 252462, Note_off_c, 0, 52, 61
1, 252465, Note_on_c, 0, 64, 56
1, 252466, Note_on_c, 0, 56, 65
1, 252472, Note_on_c, 0, 53, 88
1, 252504, Note_off_c, 0, 59, 63
1, 252508, Note_off_c, 0, 64, 61
1, 252516, Note_off_c, 0, 56, 59
1, 252555, Note_on_c, 0, 52, 84
1, 252555, Control_c, 0, 64, 29
1, 252557, Note_off_c, 0, 53, 64
1, 252570, Control_c, 0, 64, 31
1, 252585, Control_c, 0, 64, 33
1, 252600, Control_c, 0, 64, 34
1, 252614, Control_c, 0, 64, 34
1, 252626, Note_off_c, 0, 52, 63
1, 252629, Control_c, 0, 64, 34
1, 252632, Note_on_c, 0, 57, 69
1, 252633, Note_on_c, 0, 53, 80
1, 252633, Note_on_c, 0, 60, 70
1, 252635, Note_on_c, 0, 64, 71
1, 252644, Control_c, 0, 64, 32
1, 252674, Control_c, 0, 64, 30
1, 252679, Note_off_c, 0, 60, 57
1, 252683, Note_off_c, 0, 64, 60
1, 252688, Note_off_c, 0, 57, 60
1, 252697, Note_on_c, 0, 52, 78
1, 252703, Note_off_c, 0, 53, 64
1, 252750, Note_off_c, 0, 52, 63
1, 252790, Note_on_c, 0, 53, 73
1, 252792, Note_on_c, 0, 64, 66
1, 252793, Control_c, 0, 64, 32
1, 252794, Note_on_c, 0, 60, 62
1, 252796, Note_on_c, 0, 57, 65
1, 252822, Control_c, 0, 64, 32
1, 252833, Note_off_c, 0, 64, 60
1, 252834, Note_off_c, 0, 60, 59
1, 252840, Note_off_c, 0, 57, 61
1, 252864, Note_on_c, 0, 52, 74
1, 252866, Note_off_c, 0, 53, 63
1, 252911, Control_c, 0, 64, 29
1, 252925, Control_c, 0, 64, 0
1, 252930, Note_off_c, 0, 52, 62
1, 252946, Note_on_c, 0, 57, 67
1, 252946, Note_on_c, 0, 60, 65
1, 252946, Note_on_c, 0, 64, 70
1, 252956, Note_on_c, 0, 50, 76
1, 252992, Note_off_c, 0, 60, 60
1, 252992, Note_off_c, 0, 64, 60
1, 253013, Note_off_c, 0, 57, 63
1, 253026, Note_on_c, 0, 48, 86
1, 253029, Note_off_c, 0, 50, 62
1, 253091, Note_off_c, 0, 48, 62
1, 253106, Note_on_c, 0, 50, 79
1, 253114, Note_on_c, 0, 60, 63
1, 253114, Note_on_c, 0, 64, 69
1, 253124, Note_on_c, 0, 57, 60
1, 253147, Note_off_c, 0, 64, 65
1, 253161, Note_off_c, 0, 60, 61
1, 253163, Note_off_c, 0, 57, 67
1, 253184, Note_on_c, 0, 48, 84
1, 253214, Note_off_c, 0, 50, 51
1, 253265, Note_on_c, 0, 47, 80
1, 253276, Note_off_c, 0, 48, 62
1, 253278, Note_on_c, 0, 57, 52
1, 253282, Note_on_c, 0, 60, 63
1, 253296, Note_on_c, 0, 63, 59
1, 253331, Note_off_c, 0, 63, 63
1, 253332, Note_off_c, 0, 60, 60
1, 253334, Note_off_c, 0, 47, 63
1, 253343, Note_off_c, 0, 57, 61
1, 253354, Note_on_c, 0, 45, 69
1, 253362, Note_on_c, 0, 43, 64
1, 253389, Note_off_c, 0, 43, 62
1, 253389, Note_off_c, 0, 45, 68
1, 253431, Note_on_c, 0, 47, 82
1, 253442, Note_on_c, 0, 63, 59
1, 253447, Note_on_c, 0, 57, 51
1, 253448, Note_on_c, 0, 60, 59
1, 253480, Note_off_c, 0, 63, 64
1, 253485, Note_off_c, 0, 60, 64
1, 253497, Note_off_c, 0, 57, 62
1, 253508, Note_on_c, 0, 45, 72
1, 253531, Note_off_c, 0, 47, 57
1, 253590, Note_off_c, 0, 45, 62
1, 253595, Note_on_c, 0, 44, 82
1, 253600, Note_on_c, 0, 63, 61
1, 253603, Note_on_c, 0, 57, 57
1, 253610, Note_on_c, 0, 60, 50
1, 253639, Note_off_c, 0, 63, 61
1, 253653, Note_off_c, 0, 60, 63
1, 253670, Note_off_c, 0, 44, 63
1, 253676, Note_on_c, 0, 45, 71
1, 253684, Note_off_c, 0, 57, 60
1, 253738, Note_off_c, 0, 45, 63
1, 253754, Note_on_c, 0, 44, 74
1, 253759, Note_on_c, 0, 60, 52
1, 253761, Note_on_c, 0, 63, 48
1, 253776, Note_on_c, 0, 57, 14
1, 253794, Note_off_c, 0, 63, 63
1, 253797, Note_off_c, 0, 60, 64
1, 253822, Note_off_c, 0, 44, 63
1, 253824, Note_on_c, 0, 45, 72
1, 253824, Note_off_c, 0, 57, 37
1, 253887, Note_off_c, 0, 45, 64
1, 253925, Note_on_c, 0, 40, 75
1, 253929, Note_on_c, 0, 59, 59
1, 253935, Note_on_c, 0, 64, 62
1, 253949, Note_on_c, 0, 56, 55
1, 253958, Note_off_c, 0, 40, 67
1, 253983, Note_off_c, 0, 64, 62
1, 253988, Note_off_c, 0, 59, 59
1, 253991, Note_off_c, 0, 56, 62
1, 254093, Note_on_c, 0, 56, 53
1, 254100, Note_on_c, 0, 59, 58
1, 254101, Note_on_c, 0, 64, 57
1, 254132, Note_off_c, 0, 64, 63
1, 254137, Note_off_c, 0, 56, 59
1, 254146, Note_off_c, 0, 59, 58
1, 254157, Control_c, 0, 64, 28
1, 254186, Control_c, 0, 64, 30
1, 254255, Note_on_c, 0, 76, 91
1, 254260, Control_c, 0, 64, 0
1, 254262, Note_on_c, 0, 64, 59
1, 254267, Note_on_c, 0, 59, 54
1, 254268, Note_on_c, 0, 56, 58
1, 254277, Note_off_c, 0, 76, 69
1, 254298, Note_off_c, 0, 64, 64
1, 254313, Note_off_c, 0, 56, 61
1, 254320, Note_off_c, 0, 59, 59
1, 254364, Control_c, 0, 64, 28
1, 254408, Control_c, 0, 64, 30
1, 254417, Note_on_c, 0, 56, 58
1, 254432, Note_on_c, 0, 59, 43
1, 254438, Control_c, 0, 64, 33
1, 254441, Note_on_c, 0, 64, 23
1, 254453, Control_c, 0, 64, 34
1, 254454, Note_off_c, 0, 56, 64
1, 254458, Note_off_c, 0, 59, 58
1, 254468, Control_c, 0, 64, 34
1, 254482, Note_off_c, 0, 64, 45
1, 254483, Control_c, 0, 64, 35
1, 254591, Note_on_c, 0, 64, 44
1, 254591, Note_on_c, 0, 89, 70
1, 254602, Note_on_c, 0, 59, 35
1, 254614, Note_on_c, 0, 62, 44
1, 254643, Note_off_c, 0, 62, 59
1, 254644, Note_off_c, 0, 64, 59
1, 254654, Note_off_c, 0, 59, 62
1, 254750, Control_c, 0, 64, 34
1, 254760, Note_on_c, 0, 64, 52
1, 254763, Note_on_c, 0, 62, 33
1, 254765, Note_on_c, 0, 59, 54
1, 254802, Note_off_c, 0, 64, 64
1, 254805, Note_off_c, 0, 62, 56
1, 254809, Note_off_c, 0, 59, 64
1, 254840, Note_off_c, 0, 89, 63
1, 254842, Note_on_c, 0, 88, 72
1, 254876, Control_c, 0, 64, 34
1, 254894, Note_off_c, 0, 88, 65
1, 254919, Note_on_c, 0, 89, 72
1, 254935, Note_on_c, 0, 64, 52
1, 254935, Control_c, 0, 64, 33
1, 254936, Note_on_c, 0, 62, 42
1, 254941, Note_on_c, 0, 59, 50
1, 254976, Note_off_c, 0, 64, 62
1, 254980, Note_off_c, 0, 62, 60
1, 254981, Note_off_c, 0, 59, 63
1, 254992, Note_off_c, 0, 89, 64
1, 254993, Note_on_c, 0, 88, 82
1, 255058, Note_off_c, 0, 88, 66
1, 255074, Note_on_c, 0, 89, 78
1, 255085, Note_on_c, 0, 64, 53
1, 255088, Note_on_c, 0, 59, 52
1, 255091, Note_on_c, 0, 62, 47
1, 255120, Note_off_c, 0, 62, 60
1, 255124, Note_off_c, 0, 64, 62
1, 255127, Note_off_c, 0, 59, 65
1, 255155, Note_on_c, 0, 88, 78
1, 255157, Control_c, 0, 67, 39
1, 255158, Note_off_c, 0, 89, 63
1, 255172, Control_c, 0, 67, 42
1, 255187, Control_c, 0, 67, 43
1, 255219, Note_off_c, 0, 88, 66
1, 255226, Note_on_c, 0, 93, 73
1, 255251, Note_on_c, 0, 57, 54
1, 255251, Note_on_c, 0, 64, 41
1, 255259, Note_on_c, 0, 60, 44
1, 255261, Control_c, 0, 67, 42
1, 255276, Control_c, 0, 67, 42
1, 255282, Note_off_c, 0, 64, 55
1, 255289, Note_off_c, 0, 60, 59
1, 255293, Note_off_c, 0, 57, 61
1, 255306, Control_c, 0, 67, 41
1, 255309, Note_off_c, 0, 93, 63
1, 255316, Note_on_c, 0, 88, 76
1, 255335, Control_c, 0, 67, 41
1, 255376, Note_off_c, 0, 88, 65
1, 255380, Control_c, 0, 67, 40
1, 255392, Note_on_c, 0, 60, 49
1, 255393, Note_on_c, 0, 93, 80
1, 255398, Note_on_c, 0, 64, 49
1, 255401, Note_on_c, 0, 57, 51
1, 255409, Control_c, 0, 67, 39
1, 255436, Note_off_c, 0, 64, 63
1, 255441, Note_off_c, 0, 60, 60
1, 255451, Note_off_c, 0, 57, 59
1, 255472, Note_on_c, 0, 88, 75
1, 255478, Note_off_c, 0, 93, 59
1, 255526, Note_off_c, 0, 88, 66
1, 255559, Note_on_c, 0, 86, 70
1, 255562, Note_on_c, 0, 57, 55
1, 255564, Note_on_c, 0, 60, 51
1, 255565, Control_c, 0, 67, 40
1, 255566, Note_on_c, 0, 64, 50
1, 255601, Note_off_c, 0, 64, 64
1, 255603, Note_off_c, 0, 60, 63
1, 255610, Note_off_c, 0, 57, 61
1, 255616, Note_off_c, 0, 86, 58
1, 255635, Note_on_c, 0, 84, 73
1, 255639, Control_c, 0, 64, 33
1, 255654, Control_c, 0, 67, 39
1, 255669, Control_c, 0, 64, 32
1, 255669, Control_c, 0, 67, 39
1, 255682, Note_off_c, 0, 84, 63
1, 255684, Control_c, 0, 67, 38
1, 255699, Control_c, 0, 67, 36
1, 255714, Control_c, 0, 67, 34
1, 255715, Note_on_c, 0, 86, 75
1, 255720, Note_on_c, 0, 64, 50
1, 255723, Note_on_c, 0, 57, 52
1, 255729, Control_c, 0, 67, 0
1, 255732, Note_on_c, 0, 60, 40
1, 255753, Note_off_c, 0, 64, 65
1, 255757, Note_off_c, 0, 57, 63
1, 255760, Note_off_c, 0, 60, 57
1, 255788, Note_on_c, 0, 84, 70
1, 255788, Note_off_c, 0, 86, 62
1, 255850, Note_off_c, 0, 84, 64
1, 255862, Control_c, 0, 64, 33
1, 255874, Note_on_c, 0, 63, 64
1, 255874, Note_on_c, 0, 83, 73
1, 255875, Note_on_c, 0, 60, 34
1, 255875, Note_on_c, 0, 57, 38
1, 255906, Control_c, 0, 64, 33
1, 255912, Note_off_c, 0, 63, 61
1, 255920, Note_off_c, 0, 83, 58
1, 255922, Note_off_c, 0, 57, 60
1, 255922, Note_off_c, 0, 60, 62
1, 255954, Note_on_c, 0, 81, 70
1, 255965, Control_c, 0, 64, 34
1, 255999, Note_off_c, 0, 81, 63
1, 256027, Note_on_c, 0, 83, 70
1, 256030, Note_on_c, 0, 57, 53
1, 256031, Note_on_c, 0, 63, 60
1, 256037, Note_on_c, 0, 60, 46
1, 256065, Note_off_c, 0, 63, 63
1, 256076, Note_off_c, 0, 60, 63
1, 256081, Note_off_c, 0, 57, 62
1, 256102, Note_on_c, 0, 81, 74
1, 256103, Note_off_c, 0, 83, 58
1, 256175, Note_off_c, 0, 81, 61
1, 256191, Note_on_c, 0, 80, 72
1, 256209, Note_on_c, 0, 63, 53
1, 256211, Note_on_c, 0, 60, 40
1, 256213, Note_on_c, 0, 57, 41
1, 256238, Note_off_c, 0, 80, 61
1, 256242, Note_off_c, 0, 63, 60
1, 256247, Control_c, 0, 64, 34
1, 256253, Note_off_c, 0, 57, 63
1, 256254, Note_off_c, 0, 60, 62
1, 256262, Control_c, 0, 64, 35
1, 256274, Note_on_c, 0, 81, 70
1, 256283, Control_c, 0, 64, 35
1, 256314, Control_c, 0, 64, 36
1, 256327, Note_off_c, 0, 81, 63
1, 256329, Control_c, 0, 64, 36
1, 256344, Control_c, 0, 64, 37
1, 256353, Note_on_c, 0, 80, 75
1, 256357, Note_on_c, 0, 63, 49
1, 256360, Control_c, 0, 64, 37
1, 256361, Note_on_c, 0, 57, 50
1, 256374, Control_c, 0, 64, 38
1, 256385, Note_on_c, 0, 60, 22
1, 256389, Control_c, 0, 64, 39
1, 256394, Note_off_c, 0, 63, 64
1, 256400, Note_off_c, 0, 57, 65
1, 256404, Control_c, 0, 64, 40
1, 256412, Note_off_c, 0, 80, 60
1, 256419, Control_c, 0, 64, 41
1, 256428, Note_off_c, 0, 60, 44
1, 256432, Note_on_c, 0, 81, 68
1, 256434, Control_c, 0, 64, 42
1, 256448, Control_c, 0, 64, 44
1, 256463, Control_c, 0, 64, 45
1, 256478, Control_c, 0, 64, 47
1, 256493, Control_c, 0, 64, 48
1, 256498, Note_off_c, 0, 81, 63
1, 256507, Control_c, 0, 64, 49
1, 256527, Note_on_c, 0, 76, 99
1, 256537, Control_c, 0, 64, 48
1, 256540, Note_on_c, 0, 56, 66
1, 256540, Note_on_c, 0, 59, 58
1, 256543, Note_on_c, 0, 64, 63
1, 256557, Note_off_c, 0, 76, 63
1, 256567, Control_c, 0, 64, 47
1, 256578, Note_off_c, 0, 56, 64
1, 256580, Note_off_c, 0, 64, 65
1, 256581, Control_c, 0, 64, 46
1, 256582, Note_off_c, 0, 59, 64
1, 256596, Control_c, 0, 64, 44
1, 256611, Control_c, 0, 64, 43
1, 256626, Control_c, 0, 64, 43
1, 256641, Control_c, 0, 64, 42
1, 256686, Control_c, 0, 64, 42
1, 256688, Note_on_c, 0, 64, 63
1, 256690, Note_on_c, 0, 59, 58
1, 256695, Note_on_c, 0, 56, 50
1, 256719, Note_off_c, 0, 64, 64
1, 256727, Note_off_c, 0, 56, 60
1, 256730, Note_off_c, 0, 59, 63
1, 256774, Control_c, 0, 64, 41
1, 256789, Control_c, 0, 64, 40
1, 256804, Control_c, 0, 64, 39
1, 256818, Control_c, 0, 64, 37
1, 256833, Control_c, 0, 64, 35
1, 256840, Note_on_c, 0, 56, 49
1, 256848, Control_c, 0, 64, 34
1, 256851, Note_on_c, 0, 52, 92
1, 256856, Note_on_c, 0, 64, 52
1, 256861, Note_on_c, 0, 59, 42
1, 256877, Note_off_c, 0, 52, 68
1, 256898, Note_off_c, 0, 64, 65
1, 256907, Note_off_c, 0, 56, 62
1, 256909, Note_off_c, 0, 59, 59
1, 256996, Control_c, 0, 64, 34
1, 257007, Note_on_c, 0, 59, 56
1, 257011, Control_c, 0, 64, 35
1, 257025, Note_on_c, 0, 64, 42
1, 257028, Note_on_c, 0, 56, 51
1, 257033, Control_c, 0, 64, 36
1, 257048, Note_off_c, 0, 59, 65
1, 257048, Control_c, 0, 64, 37
1, 257055, Note_off_c, 0, 64, 59
1, 257060, Note_off_c, 0, 56, 64
1, 257063, Control_c, 0, 64, 38
1, 257078, Control_c, 0, 64, 39
1, 257093, Control_c, 0, 64, 39
1, 257200, Note_on_c, 0, 77, 97
1, 257212, Note_on_c, 0, 57, 62
1, 257212, Note_on_c, 0, 64, 45
1, 257219, Note_on_c, 0, 60, 56
1, 257237, Note_off_c, 0, 77, 70
1, 257249, Note_off_c, 0, 60, 65
1, 257255, Note_off_c, 0, 64, 66
1, 257255, Control_c, 0, 64, 39
1, 257259, Note_off_c, 0, 57, 62
1, 257270, Control_c, 0, 64, 38
1, 257285, Control_c, 0, 64, 35
1, 257300, Control_c, 0, 64, 33
1, 257315, Control_c, 0, 64, 32
1, 257330, Control_c, 0, 64, 32
1, 257351, Note_on_c, 0, 64, 60
1, 257362, Note_on_c, 0, 57, 57
1, 257362, Note_on_c, 0, 60, 37
1, 257386, Note_off_c, 0, 64, 63
1, 257393, Note_off_c, 0, 60, 58
1, 257399, Note_off_c, 0, 57, 62
1, 257526, Note_on_c, 0, 57, 46
1, 257529, Note_on_c, 0, 60, 42
1, 257533, Note_on_c, 0, 51, 90
1, 257537, Note_on_c, 0, 64, 52
1, 257555, Note_off_c, 0, 51, 71
1, 257574, Note_off_c, 0, 64, 65
1, 257577, Note_off_c, 0, 60, 63
1, 257587, Note_off_c, 0, 57, 62
1, 257611, Control_c, 0, 64, 33
1, 257626, Control_c, 0, 64, 33
1, 257640, Control_c, 0, 64, 34
1, 257655, Control_c, 0, 64, 35
1, 257670, Control_c, 0, 64, 35
1, 257685, Control_c, 0, 64, 36
1, 257690, Note_on_c, 0, 64, 48
1, 257691, Note_on_c, 0, 60, 49
1, 257693, Note_on_c, 0, 57, 59
1, 257700, Control_c, 0, 64, 36
1, 257714, Control_c, 0, 64, 37
1, 257720, Note_off_c, 0, 64, 64
1, 257722, Note_off_c, 0, 60, 66
1, 257726, Note_off_c, 0, 57, 64
1, 257729, Control_c, 0, 64, 38
1, 257744, Control_c, 0, 64, 39
1, 257759, Control_c, 0, 64, 40
1, 257868, Note_on_c, 0, 76, 95
1, 257878, Note_on_c, 0, 56, 62
1, 257880, Note_on_c, 0, 64, 55
1, 257886, Note_on_c, 0, 59, 60
1, 257908, Note_off_c, 0, 76, 67
1, 257921, Note_off_c, 0, 59, 64
1, 257924, Note_off_c, 0, 64, 67
1, 257930, Note_off_c, 0, 56, 61
1, 257931, Control_c, 0, 64, 39
1, 257946, Control_c, 0, 64, 38
1, 257960, Control_c, 0, 64, 36
1, 257975, Control_c, 0, 64, 35
1, 257990, Control_c, 0, 64, 34
1, 258005, Control_c, 0, 64, 34
1, 258018, Note_on_c, 0, 59, 50
1, 258019, Control_c, 0, 64, 33
1, 258026, Note_on_c, 0, 56, 59
1, 258030, Note_on_c, 0, 64, 62
1, 258063, Note_off_c, 0, 64, 65
1, 258066, Note_off_c, 0, 59, 61
1, 258075, Note_off_c, 0, 56, 58
1, 258182, Control_c, 0, 64, 33
1, 258200, Note_on_c, 0, 56, 59
1, 258202, Note_on_c, 0, 52, 96
1, 258206, Note_on_c, 0, 59, 53
1, 258206, Note_on_c, 0, 64, 52
1, 258224, Note_off_c, 0, 52, 70
1, 258248, Note_off_c, 0, 59, 64
1, 258248, Note_off_c, 0, 64, 63
1, 258267, Note_off_c, 0, 56, 61
1, 258301, Control_c, 0, 64, 33
1, 258316, Control_c, 0, 64, 34
1, 258331, Control_c, 0, 64, 35
1, 258346, Note_on_c, 0, 64, 59
1, 258347, Note_on_c, 0, 59, 56
1, 258353, Note_on_c, 0, 56, 53
1, 258360, Control_c, 0, 64, 35
1, 258382, Note_off_c, 0, 64, 64
1, 258383, Note_off_c, 0, 59, 64
1, 258390, Control_c, 0, 64, 36
1, 258391, Note_off_c, 0, 56, 64
1, 258405, Control_c, 0, 64, 37
1, 258419, Control_c, 0, 64, 38
1, 258434, Control_c, 0, 64, 38
1, 258449, Control_c, 0, 64, 39
1, 258463, Control_c, 0, 64, 39
1, 258531, Control_c, 0, 64, 40
1, 258534, Note_on_c, 0, 77, 100
1, 258543, Note_on_c, 0, 64, 58
1, 258543, Note_on_c, 0, 57, 60
1, 258544, Note_on_c, 0, 60, 59
1, 258545, Control_c, 0, 64, 41
1, 258560, Control_c, 0, 64, 43
1, 258571, Note_off_c, 0, 77, 70
1, 258575, Control_c, 0, 64, 43
1, 258584, Note_off_c, 0, 60, 65
1, 258585, Note_off_c, 0, 64, 66
1, 258590, Control_c, 0, 64, 44
1, 258599, Note_off_c, 0, 57, 61
1, 258619, Control_c, 0, 64, 43
1, 258634, Control_c, 0, 64, 41
1, 258649, Control_c, 0, 64, 40
1, 258664, Control_c, 0, 64, 38
1, 258678, Control_c, 0, 64, 37
1, 258694, Control_c, 0, 64, 36
1, 258696, Note_on_c, 0, 57, 53
1, 258698, Note_on_c, 0, 64, 55
1, 258708, Note_on_c, 0, 60, 44
1, 258724, Note_off_c, 0, 64, 65
1, 258724, Control_c, 0, 64, 35
1, 258737, Note_off_c, 0, 57, 62
1, 258737, Note_off_c, 0, 60, 54
1, 258798, Control_c, 0, 64, 35
1, 258813, Control_c, 0, 64, 34
1, 258828, Control_c, 0, 64, 33
1, 258871, Note_on_c, 0, 60, 52
1, 258871, Note_on_c, 0, 51, 79
1, 258875, Note_on_c, 0, 64, 60
1, 258877, Note_on_c, 0, 57, 54
1, 258895, Note_off_c, 0, 51, 66
1, 258912, Note_off_c, 0, 64, 62
1, 258921, Note_off_c, 0, 57, 62
1, 258921, Note_off_c, 0, 60, 61
1, 258931, Control_c, 0, 64, 34
1, 258946, Control_c, 0, 64, 34
1, 258961, Control_c, 0, 64, 35
1, 258975, Control_c, 0, 64, 36
1, 258990, Control_c, 0, 64, 37
1, 259005, Control_c, 0, 64, 39
1, 259020, Control_c, 0, 64, 40
1, 259028, Note_on_c, 0, 64, 48
1, 259034, Note_on_c, 0, 57, 45
1, 259035, Control_c, 0, 64, 41
1, 259045, Note_on_c, 0, 60, 41
1, 259050, Control_c, 0, 64, 42
1, 259056, Note_off_c, 0, 64, 62
1, 259064, Control_c, 0, 64, 42
1, 259071, Note_off_c, 0, 57, 59
1, 259073, Note_off_c, 0, 60, 55
1, 259079, Control_c, 0, 64, 43
1, 259094, Control_c, 0, 64, 44
1, 259109, Control_c, 0, 64, 44
1, 259139, Control_c, 0, 64, 45
1, 259198, Control_c, 0, 64, 44
1, 259202, Note_on_c, 0, 76, 69
1, 259212, Control_c, 0, 64, 39
1, 259213, Note_on_c, 0, 56, 55
1, 259217, Note_on_c, 0, 64, 36
1, 259224, Note_off_c, 0, 76, 68
1, 259227, Control_c, 0, 64, 0
1, 259227, Control_c, 0, 67, 40
1, 259234, Note_on_c, 0, 59, 29
1, 259242, Control_c, 0, 67, 115
1, 259247, Note_off_c, 0, 64, 55
1, 259251, Note_off_c, 0, 56, 64
1, 259257, Control_c, 0, 67, 127
1, 259276, Note_off_c, 0, 59, 45
1, 259363, Note_on_c, 0, 59, 54
1, 259363, Note_on_c, 0, 56, 48
1, 259398, Note_off_c, 0, 59, 64
1, 259406, Note_off_c, 0, 56, 62
1, 259545, Note_on_c, 0, 52, 54
1, 259550, Note_on_c, 0, 56, 50
1, 259554, Note_on_c, 0, 59, 41
1, 259571, Note_off_c, 0, 52, 61
1, 259586, Note_off_c, 0, 59, 59
1, 259592, Note_off_c, 0, 56, 62
1, 259707, Note_on_c, 0, 56, 48
1, 259708, Note_on_c, 0, 59, 40
1, 259736, Note_off_c, 0, 59, 59
1, 259749, Note_off_c, 0, 56, 61
1, 259871, Note_on_c, 0, 80, 64
1, 259875, Note_on_c, 0, 59, 28
1, 259895, Note_on_c, 0, 56, 35
1, 259917, Note_off_c, 0, 80, 55
1, 259926, Note_off_c, 0, 59, 57
1, 259927, Note_off_c, 0, 56, 56
1, 260042, Note_on_c, 0, 56, 40
1, 260042, Note_on_c, 0, 64, 60
1, 260051, Note_on_c, 0, 59, 41
1, 260070, Note_off_c, 0, 64, 66
1, 260088, Note_off_c, 0, 59, 51
1, 260089, Note_off_c, 0, 56, 60
1, 260203, Note_on_c, 0, 83, 69
1, 260215, Note_on_c, 0, 56, 43
1, 260221, Note_on_c, 0, 59, 37
1, 260245, Note_off_c, 0, 83, 62
1, 260257, Note_off_c, 0, 56, 61
1, 260264, Note_off_c, 0, 59, 59
1, 260355, Note_on_c, 0, 68, 57
1, 260373, Note_on_c, 0, 56, 35
1, 260381, Note_off_c, 0, 68, 64
1, 260382, Note_on_c, 0, 59, 33
1, 260415, Note_off_c, 0, 56, 49
1, 260418, Note_off_c, 0, 59, 52
1, 260534, Note_on_c, 0, 88, 76
1, 260552, Note_off_c, 0, 88, 74
1, 260555, Note_on_c, 0, 56, 43
1, 260559, Note_on_c, 0, 59, 42
1, 260588, Note_off_c, 0, 56, 60
1, 260588, Note_off_c, 0, 59, 59
1, 260694, Note_on_c, 0, 56, 44
1, 260697, Note_on_c, 0, 59, 37
1, 260728, Note_off_c, 0, 59, 56
1, 260736, Note_off_c, 0, 56, 60
1, 260883, Note_on_c, 0, 52, 54
1, 260887, Note_on_c, 0, 59, 48
1, 260895, Note_on_c, 0, 56, 36
1, 260911, Note_off_c, 0, 52, 65
1, 260926, Note_off_c, 0, 56, 58
1, 260933, Note_off_c, 0, 59, 58
1, 261037, Note_on_c, 0, 56, 43
1, 261051, Note_on_c, 0, 59, 42
1, 261080, Note_off_c, 0, 56, 61
1, 261089, Note_off_c, 0, 59, 52
1, 261215, Note_on_c, 0, 80, 67
1, 261230, Note_on_c, 0, 56, 43
1, 261238, Note_on_c, 0, 59, 34
1, 261255, Note_off_c, 0, 80, 58
1, 261267, Note_off_c, 0, 56, 65
1, 261276, Note_off_c, 0, 59, 51
1, 261377, Note_on_c, 0, 64, 61
1, 261380, Note_on_c, 0, 56, 44
1, 261384, Note_on_c, 0, 59, 41
1, 261408, Note_off_c, 0, 64, 65
1, 261423, Note_off_c, 0, 59, 51
1, 261425, Note_off_c, 0, 56, 61
1, 261546, Note_on_c, 0, 83, 70
1, 261547, Note_on_c, 0, 56, 48
1, 261557, Note_on_c, 0, 59, 34
1, 261580, Note_off_c, 0, 83, 60
1, 261589, Note_off_c, 0, 56, 61
1, 261589, Note_off_c, 0, 59, 54
1, 261701, Note_on_c, 0, 59, 40
1, 261701, Note_on_c, 0, 68, 51
1, 261706, Note_on_c, 0, 56, 46
1, 261723, Note_off_c, 0, 68, 61
1, 261745, Note_off_c, 0, 59, 58
1, 261749, Note_off_c, 0, 56, 62
1, 261869, Note_on_c, 0, 88, 71
1, 261890, Note_off_c, 0, 88, 73
1, 261893, Note_on_c, 0, 56, 51
1, 261897, Note_on_c, 0, 59, 42
1, 261927, Note_off_c, 0, 59, 58
1, 261929, Note_off_c, 0, 56, 64
1, 262027, Note_on_c, 0, 56, 51
1, 262031, Note_on_c, 0, 59, 43
1, 262066, Note_off_c, 0, 59, 59
1, 262072, Note_off_c, 0, 56, 60
1, 262200, Note_on_c, 0, 59, 55
1, 262209, Note_on_c, 0, 52, 44
1, 262221, Note_on_c, 0, 56, 42
1, 262238, Note_off_c, 0, 52, 51
1, 262243, Note_off_c, 0, 59, 58
1, 262267, Note_off_c, 0, 56, 62
1, 262364, Note_on_c, 0, 56, 56
1, 262405, Note_off_c, 0, 56, 63
1, 262454, Poly_aftertouch_c, 0, 59, 0
1, 262538, Note_on_c, 0, 95, 74
1, 262560, Note_on_c, 0, 59, 43
1, 262564, Note_on_c, 0, 56, 45
1, 262582, Note_on_c, 0, 64, 20
1, 262591, Note_off_c, 0, 95, 65
1, 262593, Note_off_c, 0, 59, 56
1, 262600, Note_off_c, 0, 56, 61
1, 262622, Note_off_c, 0, 64, 51
1, 262708, Note_on_c, 0, 59, 48
1, 262708, Note_on_c, 0, 64, 60
1, 262709, Note_on_c, 0, 80, 59
1, 262721, Note_on_c, 0, 56, 39
1, 262737, Note_off_c, 0, 80, 67
1, 262741, Note_off_c, 0, 59, 65
1, 262741, Note_off_c, 0, 64, 66
1, 262753, Note_off_c, 0, 56, 58
1, 262853, Control_c, 0, 67, 116
1, 262865, Note_on_c, 0, 99, 71
1, 262868, Control_c, 0, 67, 102
1, 262883, Control_c, 0, 67, 94
1, 262889, Note_on_c, 0, 57, 38
1, 262898, Note_on_c, 0, 59, 19
1, 262898, Control_c, 0, 67, 88
1, 262904, Note_off_c, 0, 99, 60
1, 262913, Control_c, 0, 67, 80
1, 262923, Note_off_c, 0, 57, 55
1, 262928, Control_c, 0, 67, 68
1, 262937, Note_off_c, 0, 59, 51
1, 262942, Control_c, 0, 67, 53
1, 262957, Control_c, 0, 67, 39
1, 262972, Control_c, 0, 67, 0
1, 263035, Note_on_c, 0, 57, 43
1, 263038, Note_on_c, 0, 59, 43
1, 263044, Note_on_c, 0, 83, 47
1, 263065, Note_off_c, 0, 59, 57
1, 263069, Note_on_c, 0, 66, 6
1, 263071, Note_off_c, 0, 57, 63
1, 263074, Note_off_c, 0, 83, 60
1, 263083, Control_c, 0, 64, 27
1, 263113, Control_c, 0, 64, 29
1, 263127, Note_off_c, 0, 66, 34
1, 263142, Control_c, 0, 64, 32
1, 263157, Control_c, 0, 64, 35
1, 263172, Control_c, 0, 64, 36
1, 263187, Control_c, 0, 64, 37
1, 263207, Note_on_c, 0, 100, 79
1, 263226, Note_on_c, 0, 59, 43
1, 263229, Note_off_c, 0, 100, 71
1, 263230, Note_on_c, 0, 56, 55
1, 263232, Control_c, 0, 64, 36
1, 263235, Note_on_c, 0, 64, 48
1, 263247, Control_c, 0, 64, 34
1, 263261, Control_c, 0, 64, 30
1, 263262, Note_off_c, 0, 59, 64
1, 263263, Note_off_c, 0, 64, 64
1, 263265, Note_off_c, 0, 56, 64
1, 263276, Control_c, 0, 64, 0
1, 263306, Control_c, 0, 67, 39
1, 263321, Control_c, 0, 67, 57
1, 263335, Control_c, 0, 67, 64
1, 263365, Control_c, 0, 67, 64
1, 263374, Note_on_c, 0, 64, 39
1, 263388, Note_on_c, 0, 59, 26
1, 263390, Note_on_c, 0, 56, 29
1, 263417, Note_off_c, 0, 64, 59
1, 263424, Note_off_c, 0, 59, 49
1, 263427, Note_off_c, 0, 56, 52
1, 263454, Control_c, 0, 67, 65
1, 263468, Control_c, 0, 67, 67
1, 263483, Control_c, 0, 67, 67
1, 263499, Control_c, 0, 67, 69
1, 263514, Control_c, 0, 67, 72
1, 263529, Control_c, 0, 67, 91
1, 263544, Control_c, 0, 67, 112
1, 263547, Note_on_c, 0, 52, 63
1, 263554, Note_on_c, 0, 59, 33
1, 263558, Note_on_c, 0, 56, 43
1, 263559, Control_c, 0, 67, 127
1, 263562, Note_on_c, 0, 64, 51
1, 263574, Note_off_c, 0, 52, 64
1, 263595, Note_off_c, 0, 59, 63
1, 263598, Note_off_c, 0, 64, 63
1, 263606, Note_off_c, 0, 56, 63
1, 263715, Note_on_c, 0, 64, 31
1, 263721, Note_on_c, 0, 56, 42
1, 263721, Note_on_c, 0, 59, 33
1, 263749, Note_off_c, 0, 64, 54
1, 263753, Note_off_c, 0, 56, 58
1, 263755, Note_off_c, 0, 59, 53
1, 263873, Note_on_c, 0, 95, 72
1, 263888, Note_on_c, 0, 56, 41
1, 263890, Note_on_c, 0, 59, 38
1, 263900, Note_on_c, 0, 64, 27
1, 263923, Note_off_c, 0, 95, 66
1, 263929, Note_off_c, 0, 59, 61
1, 263934, Note_off_c, 0, 64, 51
1, 263935, Note_off_c, 0, 56, 60
1, 264030, Note_on_c, 0, 80, 64
1, 264031, Note_on_c, 0, 64, 54
1, 264046, Note_on_c, 0, 59, 37
1, 264058, Note_on_c, 0, 56, 37
1, 264061, Note_off_c, 0, 80, 64
1, 264075, Note_off_c, 0, 59, 56
1, 264078, Note_off_c, 0, 64, 64
1, 264089, Note_off_c, 0, 56, 56
1, 264190, Note_on_c, 0, 59, 34
1, 264191, Note_on_c, 0, 99, 75
1, 264220, Note_on_c, 0, 57, 35
1, 264221, Note_on_c, 0, 66, 45
1, 264241, Note_off_c, 0, 99, 63
1, 264248, Note_off_c, 0, 66, 55
1, 264254, Note_off_c, 0, 57, 56
1, 264260, Note_off_c, 0, 59, 61
1, 264347, Note_on_c, 0, 66, 52
1, 264353, Note_on_c, 0, 83, 61
1, 264354, Note_on_c, 0, 57, 52
1, 264382, Note_off_c, 0, 83, 65
1, 264389, Note_off_c, 0, 66, 64
1, 264394, Note_off_c, 0, 57, 65
1, 264469, Control_c, 0, 67, 119
1, 264484, Control_c, 0, 67, 80
1, 264499, Control_c, 0, 64, 27
1, 264499, Control_c, 0, 67, 0
1, 264525, Note_on_c, 0, 100, 70
1, 264544, Note_on_c, 0, 59, 49
1, 264550, Note_on_c, 0, 56, 54
1, 264550, Control_c, 0, 64, 0
1, 264551, Note_on_c, 0, 64, 51
1, 264552, Note_off_c, 0, 100, 67
1, 264576, Note_off_c, 0, 59, 64
1, 264579, Note_off_c, 0, 64, 64
1, 264585, Note_off_c, 0, 56, 64
1, 264624, Control_c, 0, 67, 41
1, 264639, Control_c, 0, 67, 73
1, 264654, Control_c, 0, 67, 104
1, 264669, Control_c, 0, 67, 118
1, 264683, Control_c, 0, 67, 123
1, 264690, Note_on_c, 0, 64, 40
1, 264692, Note_on_c, 0, 59, 32
1, 264698, Note_on_c, 0, 56, 39
1, 264725, Note_off_c, 0, 59, 56
1, 264725, Note_off_c, 0, 64, 55
1, 264735, Note_off_c, 0, 56, 61
1, 264865, Note_on_c, 0, 59, 29
1, 264871, Note_on_c, 0, 52, 53
1, 264871, Note_on_c, 0, 56, 42
1, 264871, Note_on_c, 0, 64, 35
1, 264897, Note_off_c, 0, 52, 61
1, 264909, Note_off_c, 0, 59, 51
1, 264911, Note_off_c, 0, 64, 57
1, 264913, Note_off_c, 0, 56, 63
1, 265035, Note_on_c, 0, 56, 34
1, 265036, Note_on_c, 0, 59, 22
1, 265040, Note_on_c, 0, 64, 31
1, 265071, Note_off_c, 0, 56, 54
1, 265074, Note_off_c, 0, 59, 52
1, 265075, Note_off_c, 0, 64, 53
1, 265158, Control_c, 0, 67, 121
1, 265193, Note_on_c, 0, 88, 63
1, 265205, Note_on_c, 0, 59, 35
1, 265214, Note_on_c, 0, 56, 34
1, 265214, Note_on_c, 0, 64, 34
1, 265263, Note_off_c, 0, 56, 62
1, 265265, Note_off_c, 0, 59, 59
1, 265265, Note_off_c, 0, 64, 55
1, 265268, Note_off_c, 0, 88, 63
1, 265357, Note_on_c, 0, 76, 57
1, 265370, Note_on_c, 0, 64, 51
1, 265374, Note_on_c, 0, 56, 45
1, 265384, Note_on_c, 0, 59, 33
1, 265408, Note_off_c, 0, 64, 56
1, 265414, Note_off_c, 0, 56, 61
1, 265417, Note_off_c, 0, 59, 53
1, 265420, Note_off_c, 0, 76, 59
1, 265513, Note_on_c, 0, 86, 66
1, 265528, Note_on_c, 0, 56, 48
1, 265530, Note_on_c, 0, 64, 50
1, 265532, Note_on_c, 0, 59, 36
1, 265563, Note_off_c, 0, 86, 61
1, 265566, Note_off_c, 0, 64, 62
1, 265575, Note_off_c, 0, 59, 57
1, 265575, Note_off_c, 0, 56, 61
1, 265685, Note_on_c, 0, 59, 47
1, 265691, Note_on_c, 0, 56, 51
1, 265692, Note_on_c, 0, 64, 44
1, 265696, Note_on_c, 0, 72, 44
1, 265729, Note_off_c, 0, 64, 61
1, 265732, Note_off_c, 0, 56, 63
1, 265732, Note_off_c, 0, 59, 59
1, 265733, Note_off_c, 0, 72, 56
1, 265743, Control_c, 0, 67, 123
1, 265838, Note_on_c, 0, 83, 69
1, 265843, Note_on_c, 0, 64, 53
1, 265852, Note_on_c, 0, 59, 45
1, 265853, Note_on_c, 0, 56, 50
1, 265892, Note_off_c, 0, 83, 62
1, 265897, Note_off_c, 0, 59, 60
1, 265900, Note_off_c, 0, 56, 60
1, 265901, Note_off_c, 0, 64, 55
1, 265922, Control_c, 0, 67, 125
1, 265951, Control_c, 0, 67, 127
1, 265998, Note_on_c, 0, 71, 61
1, 266001, Note_on_c, 0, 56, 60
1, 266010, Note_on_c, 0, 59, 59
1, 266014, Note_on_c, 0, 64, 53
1, 266040, Note_off_c, 0, 71, 62
1, 266051, Note_off_c, 0, 59, 64
1, 266055, Note_off_c, 0, 64, 64
1, 266067, Note_off_c, 0, 56, 59
1, 266158, Note_on_c, 0, 81, 80
1, 266171, Note_on_c, 0, 57, 68
1, 266173, Note_on_c, 0, 64, 63
1, 266184, Note_on_c, 0, 61, 55
1, 266213, Note_off_c, 0, 64, 58
1, 266218, Note_off_c, 0, 81, 63
1, 266222, Note_off_c, 0, 61, 64
1, 266231, Note_off_c, 0, 57, 62
1, 266314, Note_on_c, 0, 61, 61
1, 266316, Note_on_c, 0, 64, 69
1, 266316, Note_on_c, 0, 69, 69
1, 266323, Note_on_c, 0, 57, 67
1, 266360, Note_off_c, 0, 69, 60
1, 266361, Note_off_c, 0, 61, 62
1, 266365, Note_off_c, 0, 64, 63
1, 266381, Note_off_c, 0, 57, 57
1, 266389, Control_c, 0, 67, 90
1, 266404, Control_c, 0, 67, 0
1, 266489, Note_on_c, 0, 80, 79
1, 266490, Note_on_c, 0, 59, 64
1, 266490, Note_on_c, 0, 64, 64
1, 266497, Note_on_c, 0, 62, 58
1, 266527, Note_off_c, 0, 62, 64
1, 266529, Note_off_c, 0, 64, 63
1, 266535, Note_off_c, 0, 59, 64
1, 266547, Note_off_c, 0, 80, 62
1, 266639, Note_on_c, 0, 64, 64
1, 266642, Note_on_c, 0, 62, 42
1, 266648, Note_on_c, 0, 68, 59
1, 266662, Note_on_c, 0, 59, 51
1, 266678, Note_off_c, 0, 64, 60
1, 266684, Note_off_c, 0, 68, 62
1, 266691, Note_off_c, 0, 59, 63
1, 266691, Note_off_c, 0, 62, 63
1, 266812, Note_on_c, 0, 78, 65
1, 266830, Note_on_c, 0, 64, 61
1, 266833, Note_on_c, 0, 58, 60
1, 266843, Note_on_c, 0, 61, 47
1, 266860, Note_off_c, 0, 64, 65
1, 266865, Note_off_c, 0, 58, 64
1, 266870, Note_off_c, 0, 61, 60
1, 266881, Note_off_c, 0, 78, 56
1, 266964, Note_on_c, 0, 66, 61
1, 266980, Note_on_c, 0, 64, 51
1, 266981, Note_on_c, 0, 58, 45
1, 266983, Note_on_c, 0, 61, 44
1, 267003, Note_off_c, 0, 66, 62
1, 267017, Note_off_c, 0, 64, 63
1, 267021, Note_off_c, 0, 61, 64
1, 267023, Note_off_c, 0, 58, 61
1, 267064, Control_c, 0, 64, 31
1, 267079, Control_c, 0, 64, 34
1, 267094, Control_c, 0, 64, 38
1, 267108, Control_c, 0, 64, 40
1, 267122, Note_on_c, 0, 76, 82
1, 267123, Control_c, 0, 64, 41
1, 267140, Note_off_c, 0, 76, 73
1, 267151, Note_on_c, 0, 59, 57
1, 267151, Note_on_c, 0, 64, 57
1, 267153, Control_c, 0, 64, 38
1, 267156, Note_on_c, 0, 62, 57
1, 267168, Control_c, 0, 64, 33
1, 267179, Note_off_c, 0, 64, 67
1, 267182, Control_c, 0, 64, 0
1, 267184, Note_off_c, 0, 59, 64
1, 267184, Note_off_c, 0, 62, 64
1, 267289, Note_on_c, 0, 59, 30
1, 267289, Note_on_c, 0, 62, 33
1, 267294, Note_on_c, 0, 64, 39
1, 267328, Note_off_c, 0, 62, 60
1, 267331, Note_off_c, 0, 64, 61
1, 267343, Note_off_c, 0, 59, 47
1, 267454, Note_on_c, 0, 40, 79
1, 267463, Note_on_c, 0, 59, 52
1, 267466, Note_on_c, 0, 64, 52
1, 267474, Note_on_c, 0, 62, 44
1, 267477, Note_off_c, 0, 40, 66
1, 267511, Note_off_c, 0, 64, 63
1, 267515, Note_off_c, 0, 62, 64
1, 267518, Note_off_c, 0, 59, 62
1, 267620, Note_on_c, 0, 62, 45
1, 267622, Note_on_c, 0, 64, 45
1, 267624, Note_on_c, 0, 59, 48
1, 267658, Note_off_c, 0, 62, 62
1, 267659, Note_off_c, 0, 64, 62
1, 267665, Note_off_c, 0, 59, 62
1, 267790, Note_on_c, 0, 89, 70
1, 267805, Note_on_c, 0, 64, 45
1, 267809, Note_on_c, 0, 59, 45
1, 267816, Note_on_c, 0, 62, 37
1, 267847, Note_off_c, 0, 62, 58
1, 267849, Note_off_c, 0, 59, 63
1, 267851, Note_off_c, 0, 64, 59
1, 267854, Note_off_c, 0, 89, 62
1, 267947, Note_on_c, 0, 77, 54
1, 267959, Note_on_c, 0, 64, 53
1, 267960, Note_on_c, 0, 59, 47
1, 267961, Note_on_c, 0, 62, 42
1, 267998, Note_off_c, 0, 62, 62
1, 267998, Note_off_c, 0, 77, 59
1, 268003, Note_off_c, 0, 64, 58
1, 268005, Note_off_c, 0, 59, 61
1, 268106, Note_on_c, 0, 86, 64
1, 268124, Note_on_c, 0, 59, 49
1, 268129, Note_on_c, 0, 64, 48
1, 268129, Note_on_c, 0, 62, 44
1, 268159, Note_off_c, 0, 64, 55
1, 268163, Note_off_c, 0, 86, 64
1, 268165, Note_off_c, 0, 62, 62
1, 268168, Note_off_c, 0, 59, 63
1, 268261, Note_on_c, 0, 74, 59
1, 268278, Note_on_c, 0, 64, 51
1, 268278, Note_on_c, 0, 59, 51
1, 268281, Note_on_c, 0, 62, 40
1, 268311, Note_off_c, 0, 62, 59
1, 268311, Note_off_c, 0, 59, 65
1, 268323, Note_off_c, 0, 74, 60
1, 268331, Note_off_c, 0, 64, 61
1, 268436, Note_on_c, 0, 83, 66
1, 268437, Note_on_c, 0, 64, 63
1, 268443, Note_on_c, 0, 59, 31
1, 268449, Note_on_c, 0, 56, 51
1, 268480, Note_off_c, 0, 64, 57
1, 268487, Note_off_c, 0, 56, 63
1, 268499, Note_off_c, 0, 83, 62
1, 268499, Note_off_c, 0, 59, 57
1, 268586, Note_on_c, 0, 71, 68
1, 268590, Note_on_c, 0, 56, 63
1, 268592, Note_on_c, 0, 64, 63
1, 268594, Note_on_c, 0, 59, 59
1, 268633, Note_off_c, 0, 71, 60
1, 268633, Note_off_c, 0, 59, 64
1, 268633, Note_off_c, 0, 64, 63
1, 268658, Note_off_c, 0, 56, 62
1, 268738, Note_on_c, 0, 81, 85
1, 268739, Note_on_c, 0, 57, 66
1, 268743, Note_on_c, 0, 64, 73
1, 268752, Note_on_c, 0, 61, 67
1, 268794, Note_off_c, 0, 61, 60
1, 268794, Note_off_c, 0, 64, 63
1, 268803, Note_off_c, 0, 81, 64
1, 268810, Note_off_c, 0, 57, 63
1, 268894, Note_on_c, 0, 69, 73
1, 268896, Note_on_c, 0, 57, 67
1, 268897, Note_on_c, 0, 64, 69
1, 268901, Note_on_c, 0, 61, 65
1, 268942, Note_off_c, 0, 61, 61
1, 268942, Note_off_c, 0, 64, 61
1, 268950, Note_off_c, 0, 69, 62
1, 268953, Note_off_c, 0, 57, 63
1, 269061, Note_on_c, 0, 80, 83
1, 269069, Note_on_c, 0, 59, 73
1, 269071, Note_on_c, 0, 62, 67
1, 269071, Note_on_c, 0, 64, 70
1, 269113, Note_off_c, 0, 64, 64
1, 269122, Note_off_c, 0, 62, 59
1, 269124, Note_off_c, 0, 80, 62
1, 269131, Note_off_c, 0, 59, 64
1, 269225, Note_on_c, 0, 68, 62
1, 269229, Note_on_c, 0, 64, 56
1, 269244, Note_on_c, 0, 59, 49
1, 269244, Note_on_c, 0, 62, 41
1, 269261, Note_off_c, 0, 64, 65
1, 269270, Note_off_c, 0, 59, 61
1, 269271, Note_off_c, 0, 68, 58
1, 269274, Note_off_c, 0, 62, 50
1, 269381, Note_on_c, 0, 78, 66
1, 269394, Note_on_c, 0, 64, 53
1, 269401, Note_on_c, 0, 58, 52
1, 269409, Note_on_c, 0, 61, 48
1, 269426, Note_off_c, 0, 64, 65
1, 269434, Note_off_c, 0, 58, 64
1, 269436, Note_off_c, 0, 61, 59
1, 269446, Note_off_c, 0, 78, 57
1, 269537, Note_on_c, 0, 58, 55
1, 269537, Note_on_c, 0, 64, 55
1, 269537, Note_on_c, 0, 66, 65
1, 269540, Note_on_c, 0, 61, 46
1, 269571, Note_off_c, 0, 66, 63
1, 269575, Note_off_c, 0, 64, 64
1, 269578, Note_off_c, 0, 58, 62
1, 269578, Note_off_c, 0, 61, 63
1, 269651, Control_c, 0, 64, 29
1, 269666, Control_c, 0, 64, 31
1, 269681, Control_c, 0, 64, 33
1, 269695, Control_c, 0, 64, 34
1, 269698, Note_on_c, 0, 76, 86
1, 269708, Note_on_c, 0, 64, 62
1, 269710, Control_c, 0, 64, 35
1, 269713, Note_on_c, 0, 59, 61
1, 269714, Note_on_c, 0, 62, 59
1, 269724, Note_off_c, 0, 76, 64
1, 269754, Note_off_c, 0, 62, 63
1, 269754, Note_off_c, 0, 64, 65
1, 269762, Note_off_c, 0, 59, 64
1, 269777, Control_c, 0, 64, 33
1, 269792, Control_c, 0, 64, 28
1, 269807, Control_c, 0, 64, 0
1, 269867, Note_on_c, 0, 62, 43
1, 269870, Note_on_c, 0, 64, 59
1, 269876, Note_on_c, 0, 59, 56
1, 269907, Note_off_c, 0, 64, 63
1, 269910, Note_off_c, 0, 62, 60
1, 269916, Note_off_c, 0, 59, 63
1, 270034, Note_on_c, 0, 40, 91
1, 270044, Note_on_c, 0, 62, 62
1, 270047, Note_on_c, 0, 59, 60
1, 270047, Note_on_c, 0, 64, 63
1, 270061, Note_off_c, 0, 40, 67
1, 270086, Note_off_c, 0, 64, 61
1, 270094, Note_off_c, 0, 62, 60
1, 270103, Note_off_c, 0, 59, 61
1, 270197, Note_on_c, 0, 64, 62
1, 270201, Note_on_c, 0, 59, 62
1, 270205, Note_on_c, 0, 62, 57
1, 270233, Note_off_c, 0, 64, 63
1, 270237, Note_off_c, 0, 62, 63
1, 270247, Note_off_c, 0, 59, 60
1, 270344, Note_on_c, 0, 80, 82
1, 270355, Note_on_c, 0, 64, 64
1, 270361, Note_on_c, 0, 62, 59
1, 270363, Note_on_c, 0, 59, 63
1, 270403, Note_off_c, 0, 80, 63
1, 270408, Note_off_c, 0, 62, 60
1, 270408, Note_off_c, 0, 64, 63
1, 270420, Note_off_c, 0, 59, 60
1, 270510, Note_on_c, 0, 68, 71
1, 270520, Note_on_c, 0, 62, 61
1, 270520, Note_on_c, 0, 64, 67
1, 270529, Note_on_c, 0, 59, 64
1, 270553, Note_off_c, 0, 62, 63
1, 270555, Note_off_c, 0, 64, 64
1, 270562, Note_off_c, 0, 68, 63
1, 270564, Note_off_c, 0, 59, 65
1, 270659, Control_c, 0, 64, 29
1, 270666, Note_on_c, 0, 78, 90
1, 270668, Note_on_c, 0, 64, 89
1, 270673, Note_on_c, 0, 58, 82
1, 270675, Control_c, 0, 64, 45
1, 270676, Note_on_c, 0, 61, 78
1, 270690, Control_c, 0, 64, 44
1, 270709, Note_off_c, 0, 64, 66
1, 270720, Control_c, 0, 64, 44
1, 270727, Note_off_c, 0, 58, 63
1, 270730, Note_off_c, 0, 78, 59
1, 270732, Note_off_c, 0, 61, 61
1, 270735, Control_c, 0, 64, 45
1, 270749, Control_c, 0, 64, 46
1, 270764, Control_c, 0, 64, 45
1, 270779, Control_c, 0, 64, 44
1, 270794, Control_c, 0, 64, 43
1, 270823, Note_on_c, 0, 64, 74
1, 270823, Control_c, 0, 64, 43
1, 270825, Note_on_c, 0, 58, 77
1, 270832, Note_on_c, 0, 66, 73
1, 270836, Note_on_c, 0, 61, 61
1, 270838, Control_c, 0, 64, 42
1, 270853, Note_off_c, 0, 64, 64
1, 270863, Note_off_c, 0, 58, 60
1, 270866, Note_off_c, 0, 61, 66
1, 270872, Note_off_c, 0, 66, 59
1, 270882, Control_c, 0, 64, 43
1, 270897, Control_c, 0, 64, 43
1, 270912, Control_c, 0, 64, 44
1, 270927, Control_c, 0, 64, 44
1, 270971, Control_c, 0, 64, 43
1, 270986, Control_c, 0, 64, 42
1, 270996, Note_on_c, 0, 76, 93
1, 271001, Note_on_c, 0, 62, 79
1, 271001, Control_c, 0, 64, 41
1, 271003, Note_on_c, 0, 64, 81
1, 271005, Note_on_c, 0, 59, 74
1, 271016, Control_c, 0, 64, 40
1, 271031, Note_off_c, 0, 76, 66
1, 271031, Control_c, 0, 64, 40
1, 271046, Control_c, 0, 64, 38
1, 271048, Note_off_c, 0, 64, 63
1, 271054, Note_off_c, 0, 62, 61
1, 271061, Control_c, 0, 64, 35
1, 271064, Note_off_c, 0, 59, 61
1, 271075, Control_c, 0, 64, 33
1, 271090, Control_c, 0, 64, 32
1, 271135, Control_c, 0, 64, 30
1, 271148, Note_on_c, 0, 64, 66
1, 271151, Note_on_c, 0, 62, 61
1, 271152, Note_on_c, 0, 59, 58
1, 271181, Note_off_c, 0, 64, 62
1, 271185, Note_off_c, 0, 62, 63
1, 271196, Note_off_c, 0, 59, 63
1, 271305, Control_c, 0, 64, 28
1, 271320, Control_c, 0, 64, 0
1, 271328, Note_on_c, 0, 40, 94
1, 271328, Note_on_c, 0, 59, 70
1, 271329, Note_on_c, 0, 62, 66
1, 271329, Note_on_c, 0, 64, 69
1, 271362, Note_off_c, 0, 40, 65
1, 271378, Note_off_c, 0, 64, 63
1, 271388, Note_off_c, 0, 62, 61
1, 271398, Note_off_c, 0, 59, 63
1, 271481, Note_on_c, 0, 59, 62
1, 271483, Note_on_c, 0, 64, 66
1, 271483, Note_on_c, 0, 62, 62
1, 271517, Note_off_c, 0, 64, 64
1, 271520, Note_off_c, 0, 62, 62
1, 271531, Note_off_c, 0, 59, 60
1, 271650, Note_on_c, 0, 64, 67
1, 271650, Note_on_c, 0, 80, 86
1, 271651, Note_on_c, 0, 59, 64
1, 271656, Note_on_c, 0, 62, 63
1, 271702, Note_off_c, 0, 62, 59
1, 271707, Note_off_c, 0, 64, 63
1, 271712, Note_off_c, 0, 80, 60
1, 271721, Note_off_c, 0, 59, 62
1, 271804, Note_on_c, 0, 68, 75
1, 271808, Note_on_c, 0, 62, 66
1, 271809, Note_on_c, 0, 64, 67
1, 271818, Note_on_c, 0, 59, 61
1, 271841, Note_off_c, 0, 62, 64
1, 271847, Note_off_c, 0, 64, 62
1, 271853, Note_off_c, 0, 68, 61
1, 271856, Note_off_c, 0, 59, 65
1, 271869, Control_c, 0, 64, 28
1, 271959, Note_on_c, 0, 78, 84
1, 271962, Note_on_c, 0, 64, 76
1, 271969, Note_on_c, 0, 58, 75
1, 271972, Note_on_c, 0, 61, 69
1, 272018, Note_off_c, 0, 64, 63
1, 272027, Note_off_c, 0, 58, 60
1, 272034, Note_off_c, 0, 61, 58
1, 272040, Note_off_c, 0, 78, 57
1, 272131, Note_on_c, 0, 64, 63
1, 272136, Note_on_c, 0, 66, 67
1, 272139, Note_on_c, 0, 58, 59
1, 272146, Note_on_c, 0, 61, 48
1, 272170, Note_off_c, 0, 66, 62
1, 272175, Note_off_c, 0, 64, 59
1, 272178, Note_off_c, 0, 61, 62
1, 272180, Note_off_c, 0, 58, 60
1, 272293, Note_on_c, 0, 76, 67
1, 272303, Note_on_c, 0, 64, 60
1, 272305, Note_on_c, 0, 62, 62
1, 272307, Note_on_c, 0, 59, 59
1, 272341, Note_off_c, 0, 76, 62
1, 272347, Note_off_c, 0, 62, 63
1, 272347, Note_off_c, 0, 64, 60
1, 272352, Note_off_c, 0, 59, 63
1, 272440, Note_on_c, 0, 64, 76
1, 272461, Note_on_c, 0, 62, 48
1, 272461, Note_on_c, 0, 59, 59
1, 272487, Note_off_c, 0, 62, 57
1, 272490, Note_off_c, 0, 59, 65
1, 272502, Note_off_c, 0, 64, 58
1, 272596, Note_on_c, 0, 59, 63
1, 272596, Note_on_c, 0, 74, 76
1, 272605, Note_on_c, 0, 52, 71
1, 272615, Note_on_c, 0, 56, 64
1, 272640, Note_off_c, 0, 59, 58
1, 272654, Note_off_c, 0, 74, 63
1, 272654, Note_off_c, 0, 56, 61
1, 272665, Note_off_c, 0, 52, 57
1, 272756, Note_on_c, 0, 52, 67
1, 272757, Note_on_c, 0, 56, 61
1, 272757, Note_on_c, 0, 59, 62
1, 272760, Note_on_c, 0, 62, 65
1, 272786, Note_off_c, 0, 59, 65
1, 272792, Note_off_c, 0, 56, 65
1, 272798, Note_off_c, 0, 52, 64
1, 272804, Note_off_c, 0, 62, 62
1, 272911, Note_on_c, 0, 56, 76
1, 272922, Note_on_c, 0, 52, 69
1, 272922, Note_on_c, 0, 71, 82
1, 272931, Note_on_c, 0, 50, 67
1, 272967, Note_off_c, 0, 56, 64
1, 272978, Note_off_c, 0, 71, 64
1, 272990, Note_off_c, 0, 52, 60
1, 272997, Note_off_c, 0, 50, 61
1, 273073, Note_on_c, 0, 56, 76
1, 273076, Note_on_c, 0, 50, 65
1, 273081, Note_on_c, 0, 59, 76
1, 273089, Note_on_c, 0, 52, 64
1, 273109, Note_off_c, 0, 56, 62
1, 273122, Note_off_c, 0, 52, 64
1, 273138, Note_off_c, 0, 59, 64
1, 273140, Note_off_c, 0, 50, 63
1, 273236, Note_on_c, 0, 68, 85
1, 273239, Note_on_c, 0, 47, 71
1, 273240, Note_on_c, 0, 52, 66
1, 273251, Note_on_c, 0, 50, 67
1, 273289, Note_off_c, 0, 50, 65
1, 273289, Note_off_c, 0, 52, 60
1, 273301, Note_off_c, 0, 68, 62
1, 273328, Note_off_c, 0, 47, 62
1, 273388, Note_on_c, 0, 47, 60
1, 273393, Note_on_c, 0, 52, 67
1, 273396, Note_on_c, 0, 50, 66
1, 273396, Note_on_c, 0, 56, 77
1, 273423, Note_off_c, 0, 52, 63
1, 273429, Note_off_c, 0, 50, 65
1, 273433, Note_off_c, 0, 47, 63
1, 273459, Note_off_c, 0, 56, 61
1, 273565, Note_on_c, 0, 50, 65
1, 273567, Control_c, 0, 64, 31
1, 273569, Note_on_c, 0, 64, 78
1, 273572, Note_on_c, 0, 47, 63
1, 273573, Note_on_c, 0, 44, 66
1, 273581, Control_c, 0, 64, 32
1, 273596, Control_c, 0, 64, 34
1, 273611, Control_c, 0, 64, 37
1, 273626, Control_c, 0, 64, 42
1, 273633, Note_off_c, 0, 50, 62
1, 273634, Note_off_c, 0, 64, 65
1, 273637, Note_off_c, 0, 47, 57
1, 273641, Control_c, 0, 64, 46
1, 273645, Note_off_c, 0, 44, 62
1, 273656, Control_c, 0, 64, 49
1, 273671, Control_c, 0, 64, 51
1, 273685, Control_c, 0, 64, 52
1, 273700, Control_c, 0, 64, 53
1, 273715, Control_c, 0, 64, 55
1, 273725, Note_on_c, 0, 52, 82
1, 273729, Control_c, 0, 64, 55
1, 273731, Note_on_c, 0, 44, 70
1, 273731, Note_on_c, 0, 50, 71
1, 273734, Note_on_c, 0, 47, 66
1, 273744, Control_c, 0, 64, 56
1, 273774, Control_c, 0, 64, 57
1, 273783, Note_off_c, 0, 52, 64
1, 273789, Control_c, 0, 64, 58
1, 273796, Note_off_c, 0, 50, 60
1, 273803, Control_c, 0, 64, 60
1, 273805, Note_off_c, 0, 47, 53
1, 273808, Note_off_c, 0, 44, 62
1, 273818, Control_c, 0, 64, 61
1, 273848, Control_c, 0, 64, 57
1, 273863, Control_c, 0, 64, 40
1, 273879, Control_c, 0, 64, 0
1, 273882, Note_on_c, 0, 66, 92
1, 273890, Note_on_c, 0, 42, 81
1, 273890, Note_on_c, 0, 50, 82
1, 273892, Note_on_c, 0, 47, 77
1, 273952, Note_off_c, 0, 66, 62
1, 273953, Control_c, 0, 64, 48
1, 273968, Control_c, 0, 64, 61
1, 273971, Note_off_c, 0, 50, 61
1, 273982, Control_c, 0, 64, 65
1, 273983, Note_off_c, 0, 47, 61
1, 273987, Note_off_c, 0, 42, 63
1, 273997, Control_c, 0, 64, 68
1, 274012, Control_c, 0, 64, 71
1, 274026, Control_c, 0, 64, 74
1, 274041, Control_c, 0, 64, 77
1, 274055, Note_on_c, 0, 42, 80
1, 274056, Control_c, 0, 64, 78
1, 274057, Note_on_c, 0, 54, 91
1, 274058, Note_on_c, 0, 50, 85
1, 274063, Note_on_c, 0, 47, 75
1, 274111, Note_off_c, 0, 54, 63
1, 274130, Control_c, 0, 64, 77
1, 274142, Note_off_c, 0, 50, 56
1, 274145, Control_c, 0, 64, 71
1, 274149, Note_off_c, 0, 42, 63
1, 274157, Note_off_c, 0, 47, 61
1, 274160, Control_c, 0, 64, 53
1, 274175, Control_c, 0, 64, 0
1, 274218, Note_on_c, 0, 67, 96
1, 274221, Note_on_c, 0, 41, 91
1, 274224, Note_on_c, 0, 47, 76
1, 274224, Note_on_c, 0, 50, 86
1, 274271, Control_c, 0, 64, 55
1, 274286, Control_c, 0, 64, 76
1, 274299, Note_off_c, 0, 67, 61
1, 274300, Control_c, 0, 64, 99
1, 274315, Control_c, 0, 64, 127
1, 274320, Note_off_c, 0, 50, 61
1, 274326, Note_off_c, 0, 41, 64
1, 274326, Note_off_c, 0, 47, 61
1, 274394, Note_on_c, 0, 41, 85
1, 274395, Note_on_c, 0, 55, 81
1, 274396, Note_on_c, 0, 50, 83
1, 274405, Note_on_c, 0, 47, 68
1, 274439, Note_off_c, 0, 47, 58
1, 274450, Note_off_c, 0, 50, 60
1, 274455, Note_off_c, 0, 55, 60
1, 274464, Note_off_c, 0, 41, 64
1, 274523, Control_c, 0, 64, 83
1, 274538, Control_c, 0, 64, 45
1, 274552, Control_c, 0, 64, 0
1, 274575, Note_on_c, 0, 68, 91
1, 274576, Note_on_c, 0, 47, 87
1, 274576, Note_on_c, 0, 50, 93
1, 274580, Note_on_c, 0, 40, 87
1, 274641, Control_c, 0, 64, 57
1, 274648, Note_off_c, 0, 68, 62
1, 274656, Control_c, 0, 64, 76
1, 274661, Note_off_c, 0, 50, 63
1, 274671, Note_off_c, 0, 47, 62
1, 274672, Control_c, 0, 64, 97
1, 274677, Note_off_c, 0, 40, 63
1, 274687, Control_c, 0, 64, 127
1, 274750, Note_on_c, 0, 50, 95
1, 274756, Note_on_c, 0, 40, 85
1, 274759, Note_on_c, 0, 47, 77
1, 274761, Note_on_c, 0, 56, 94
1, 274782, Note_off_c, 0, 47, 67
1, 274801, Note_off_c, 0, 50, 56
1, 274809, Note_off_c, 0, 56, 61
1, 274830, Note_off_c, 0, 40, 56
1, 274968, Control_c, 0, 64, 103
1, 274983, Control_c, 0, 64, 75
1, 275005, Control_c, 0, 64, 42
1, 275020, Control_c, 0, 64, 0
1, 275033, Note_on_c, 0, 61, 95
1, 275034, Note_on_c, 0, 69, 91
1, 275036, Note_on_c, 0, 57, 90
1, 275046, Note_on_c, 0, 49, 96
1, 275051, Note_on_c, 0, 45, 92
1, 275109, Control_c, 0, 64, 36
1, 275113, Note_off_c, 0, 49, 63
1, 275123, Control_c, 0, 64, 75
1, 275138, Note_off_c, 0, 45, 64
1, 275138, Control_c, 0, 64, 127
1, 275449, Control_c, 0, 64, 75
1, 275465, Control_c, 0, 64, 0
1, 275481, Note_on_c, 0, 33, 96
1, 275510, Control_c, 0, 64, 48
1, 275525, Control_c, 0, 64, 75
1, 275540, Control_c, 0, 64, 127
1, 275591, Note_off_c, 0, 33, 61
1, 275872, Control_c, 0, 64, 98
1, 275887, Control_c, 0, 64, 80
1, 275902, Control_c, 0, 64, 65
1, 275917, Control_c, 0, 64, 49
1, 275931, Control_c, 0, 64, 30
1, 275946, Control_c, 0, 64, 0
1, 276362, Control_c, 0, 64, 29
1, 276377, Control_c, 0, 64, 58
1, 276392, Control_c, 0, 64, 66
1, 276407, Control_c, 0, 64, 72
1, 276421, Control_c, 0, 64, 80
1, 276425, Note_on_c, 0, 45, 81
1, 276425, Note_on_c, 0, 49, 87
1, 276436, Control_c, 0, 64, 92
1, 276438, Note_off_c, 0, 61, 60
1, 276451, Control_c, 0, 64, 123
1, 276466, Control_c, 0, 64, 127
1, 276473, Note_off_c, 0, 57, 50
1, 276477, Note_off_c, 0, 69, 50
1, 276506, Note_off_c, 0, 45, 62
1, 276517, Note_off_c, 0, 49, 61
1, 276533, Control_c, 0, 64, 121
1, 276547, Control_c, 0, 64, 66
1, 276562, Control_c, 0, 64, 0
1, 276574, Note_on_c, 0, 59, 90
1, 276575, Note_on_c, 0, 62, 83
1, 276577, Note_on_c, 0, 69, 89
1, 276578, Note_on_c, 0, 47, 95
1, 276579, Note_on_c, 0, 50, 94
1, 276580, Note_on_c, 0, 57, 93
1, 276635, Control_c, 0, 64, 58
1, 276650, Control_c, 0, 64, 72
1, 276665, Control_c, 0, 64, 89
1, 276673, Note_off_c, 0, 50, 60
1, 276680, Control_c, 0, 64, 127
1, 276696, Note_off_c, 0, 47, 63
1, 276976, Control_c, 0, 64, 88
1, 276991, Control_c, 0, 64, 46
1, 276994, Note_on_c, 0, 33, 98
1, 277006, Control_c, 0, 64, 0
1, 277050, Control_c, 0, 64, 51
1, 277066, Control_c, 0, 64, 69
1, 277081, Control_c, 0, 64, 89
1, 277096, Control_c, 0, 64, 127
1, 277159, Note_off_c, 0, 33, 61
1, 277458, Control_c, 0, 64, 111
1, 277473, Control_c, 0, 64, 97
1, 277488, Control_c, 0, 64, 87
1, 277503, Control_c, 0, 64, 77
1, 277517, Control_c, 0, 64, 69
1, 277532, Control_c, 0, 64, 61
1, 277547, Control_c, 0, 64, 54
1, 277562, Control_c, 0, 64, 47
1, 277576, Control_c, 0, 64, 38
1, 277591, Control_c, 0, 64, 0
1, 277916, Note_off_c, 0, 62, 64
1, 277919, Control_c, 0, 64, 33
1, 277928, Note_off_c, 0, 59, 64
1, 277933, Control_c, 0, 64, 52
1, 277948, Control_c, 0, 64, 62
1, 277963, Control_c, 0, 64, 66
1, 277970, Note_on_c, 0, 50, 89
1, 277975, Note_on_c, 0, 47, 83
1, 277978, Control_c, 0, 64, 70
1, 277999, Control_c, 0, 64, 74
1, 278014, Control_c, 0, 64, 82
1, 278022, Note_off_c, 0, 57, 46
1, 278029, Control_c, 0, 64, 95
1, 278044, Control_c, 0, 64, 127
1, 278047, Note_off_c, 0, 50, 55
1, 278063, Note_off_c, 0, 47, 60
1, 278072, Note_off_c, 0, 69, 38
1, 278088, Control_c, 0, 64, 78
1, 278103, Control_c, 0, 64, 0
1, 278134, Note_on_c, 0, 64, 81
1, 278135, Note_on_c, 0, 69, 76
1, 278136, Note_on_c, 0, 57, 79
1, 278137, Note_on_c, 0, 61, 83
1, 278142, Note_on_c, 0, 49, 89
1, 278142, Note_on_c, 0, 52, 91
1, 278166, Note_on_c, 0, 50, 55
1, 278177, Control_c, 0, 64, 57
1, 278191, Control_c, 0, 64, 68
1, 278198, Note_off_c, 0, 50, 35
1, 278206, Control_c, 0, 64, 87
1, 278214, Note_off_c, 0, 52, 62
1, 278221, Control_c, 0, 64, 127
1, 278226, Note_off_c, 0, 49, 64
1, 278414, Control_c, 0, 64, 98
1, 278428, Control_c, 0, 64, 67
1, 278443, Control_c, 0, 64, 34
1, 278458, Control_c, 0, 64, 0
1, 278460, Note_on_c, 0, 33, 82
1, 278488, Control_c, 0, 64, 50
1, 278503, Control_c, 0, 64, 68
1, 278512, Note_off_c, 0, 33, 63
1, 278517, Note_on_c, 0, 35, 29
1, 278517, Control_c, 0, 64, 87
1, 278532, Control_c, 0, 64, 127
1, 278542, Note_off_c, 0, 64, 63
1, 278558, Note_off_c, 0, 35, 41
1, 278594, Note_off_c, 0, 61, 60
1, 278607, Note_off_c, 0, 57, 56
1, 278654, Note_off_c, 0, 69, 50
1, 278795, Note_on_c, 0, 66, 79
1, 278795, Note_on_c, 0, 69, 70
1, 278799, Note_on_c, 0, 62, 70
1, 278804, Note_on_c, 0, 57, 74
1, 278807, Control_c, 0, 64, 79
1, 278814, Note_on_c, 0, 54, 71
1, 278816, Note_on_c, 0, 50, 65
1, 278822, Control_c, 0, 64, 44
1, 278837, Control_c, 0, 64, 0
1, 278867, Control_c, 0, 64, 33
1, 278882, Control_c, 0, 64, 58
1, 278885, Note_off_c, 0, 54, 60
1, 278896, Control_c, 0, 64, 70
1, 278905, Note_off_c, 0, 62, 63
1, 278908, Note_off_c, 0, 50, 51
1, 278911, Control_c, 0, 64, 85
1, 278926, Control_c, 0, 64, 112
1, 278941, Control_c, 0, 64, 127
1, 278960, Note_on_c, 0, 45, 79
1, 279004, Note_off_c, 0, 69, 58
1, 279007, Note_off_c, 0, 57, 55
1, 279027, Note_off_c, 0, 45, 62
1, 279089, Control_c, 0, 64, 80
1, 279099, Note_on_c, 0, 67, 74
1, 279102, Note_on_c, 0, 69, 82
1, 279104, Control_c, 0, 64, 52
1, 279107, Note_on_c, 0, 57, 83
1, 279109, Note_on_c, 0, 64, 75
1, 279110, Note_on_c, 0, 55, 75
1, 279111, Note_on_c, 0, 52, 77
1, 279119, Control_c, 0, 64, 0
1, 279136, Note_off_c, 0, 66, 51
1, 279178, Control_c, 0, 64, 57
1, 279193, Control_c, 0, 64, 69
1, 279208, Control_c, 0, 64, 82
1, 279222, Control_c, 0, 64, 103
1, 279237, Note_off_c, 0, 57, 63
1, 279237, Control_c, 0, 64, 127
1, 279245, Note_off_c, 0, 52, 55
1, 279251, Note_on_c, 0, 45, 76
1, 279255, Note_off_c, 0, 55, 35
1, 279274, Note_off_c, 0, 64, 64
1, 279296, Note_off_c, 0, 69, 58
1, 279305, Note_off_c, 0, 67, 60
1, 279310, Note_off_c, 0, 45, 61
1, 279400, Control_c, 0, 64, 120
1, 279415, Control_c, 0, 64, 99
1, 279430, Control_c, 0, 64, 87
1, 279445, Control_c, 0, 64, 77
1, 279460, Control_c, 0, 64, 66
1, 279463, Note_on_c, 0, 66, 65
1, 279466, Note_on_c, 0, 57, 54
1, 279467, Note_on_c, 0, 62, 64
1, 279468, Note_on_c, 0, 69, 61
1, 279471, Note_on_c, 0, 54, 55
1, 279475, Control_c, 0, 64, 48
1, 279493, Note_on_c, 0, 50, 55
1, 279498, Control_c, 0, 64, 0
1, 279601, Control_c, 0, 64, 53
1, 279616, Control_c, 0, 64, 64
1, 279622, Note_off_c, 0, 69, 61
1, 279630, Note_off_c, 0, 50, 62
1, 279630, Note_off_c, 0, 62, 62
1, 279631, Control_c, 0, 64, 73
1, 279634, Note_off_c, 0, 54, 59
1, 279645, Control_c, 0, 64, 86
1, 279656, Note_off_c, 0, 57, 57
1, 279660, Control_c, 0, 64, 97
1, 279675, Control_c, 0, 64, 108
1, 279690, Control_c, 0, 64, 127
1, 279741, Note_off_c, 0, 66, 58
1, 279834, Note_on_c, 0, 69, 64
1, 279835, Note_on_c, 0, 61, 63
1, 279836, Note_on_c, 0, 57, 62
1, 279836, Note_on_c, 0, 64, 59
1, 279838, Control_c, 0, 64, 73
1, 279847, Note_on_c, 0, 49, 59
1, 279853, Control_c, 0, 64, 47
1, 279856, Note_on_c, 0, 52, 49
1, 279868, Control_c, 0, 64, 0
1, 279912, Control_c, 0, 64, 45
1, 279927, Note_off_c, 0, 52, 62
1, 279927, Control_c, 0, 64, 63
1, 279929, Note_off_c, 0, 57, 61
1, 279942, Control_c, 0, 64, 77
1, 279956, Control_c, 0, 64, 93
1, 279960, Note_off_c, 0, 49, 63
1, 279960, Note_off_c, 0, 64, 64
1, 279971, Control_c, 0, 64, 104
1, 279972, Note_off_c, 0, 61, 63
1, 279986, Control_c, 0, 64, 116
1, 279998, Note_off_c, 0, 69, 60
1, 280001, Control_c, 0, 64, 127
1, 280149, Control_c, 0, 64, 112
1, 280163, Control_c, 0, 64, 69
1, 280169, Note_on_c, 0, 57, 74
1, 280174, Note_on_c, 0, 69, 71
1, 280177, Note_on_c, 0, 49, 67
1, 280178, Control_c, 0, 64, 0
1, 280183, Note_on_c, 0, 45, 58
1, 280188, Note_on_c, 0, 61, 62
1, 280229, Note_off_c, 0, 57, 63
1, 280253, Note_off_c, 0, 49, 62
1, 280255, Note_off_c, 0, 61, 59
1, 280256, Note_off_c, 0, 69, 56
1, 280258, Note_off_c, 0, 45, 60
1, 280338, Note_on_c, 0, 62, 70
1, 280339, Note_on_c, 0, 59, 80
1, 280342, Note_on_c, 0, 50, 75
1, 280345, Note_on_c, 0, 47, 70
1, 280348, Note_on_c, 0, 69, 68
1, 280401, Note_off_c, 0, 50, 64
1, 280404, Note_off_c, 0, 59, 64
1, 280411, Note_off_c, 0, 47, 62
1, 280413, Note_off_c, 0, 62, 61
1, 280436, Note_off_c, 0, 69, 59
1, 280495, Note_on_c, 0, 69, 69
1, 280500, Note_on_c, 0, 57, 75
1, 280500, Note_on_c, 0, 49, 77
1, 280505, Note_on_c, 0, 45, 71
1, 280507, Note_on_c, 0, 61, 66
1, 280550, Note_off_c, 0, 57, 62
1, 280565, Note_off_c, 0, 61, 60
1, 280566, Note_off_c, 0, 49, 63
1, 280575, Note_off_c, 0, 69, 59
1, 280577, Note_off_c, 0, 45, 61
1, 280649, Note_on_c, 0, 62, 76
1, 280652, Note_on_c, 0, 59, 82
1, 280652, Note_on_c, 0, 69, 78
1, 280654, Note_on_c, 0, 47, 76
1, 280655, Note_on_c, 0, 50, 84
1, 280724, Note_off_c, 0, 62, 62
1, 280744, Note_off_c, 0, 59, 62
1, 280753, Note_off_c, 0, 50, 61
1, 280765, Note_off_c, 0, 47, 62
1, 280783, Note_off_c, 0, 69, 59
1, 280861, Note_on_c, 0, 69, 81
1, 280863, Note_on_c, 0, 64, 76
1, 280865, Note_on_c, 0, 61, 82
1, 280866, Note_on_c, 0, 57, 81
1, 280867, Note_on_c, 0, 49, 83
1, 280868, Note_on_c, 0, 52, 86
1, 281009, Control_c, 0, 64, 42
1, 281024, Control_c, 0, 64, 60
1, 281039, Control_c, 0, 64, 67
1, 281054, Control_c, 0, 64, 76
1, 281070, Control_c, 0, 64, 95
1, 281084, Control_c, 0, 64, 127
1, 281201, Note_off_c, 0, 52, 55
1, 281325, Note_off_c, 0, 49, 39
1, 281375, Note_off_c, 0, 61, 60
1, 281382, Note_off_c, 0, 64, 58
1, 281385, Note_off_c, 0, 57, 52
1, 281429, Note_off_c, 0, 69, 49
1, 281643, Note_on_c, 0, 66, 79
1, 281643, Note_on_c, 0, 69, 80
1, 281648, Note_on_c, 0, 62, 74
1, 281649, Note_on_c, 0, 57, 76
1, 281653, Note_on_c, 0, 54, 77
1, 281658, Note_on_c, 0, 50, 73
1, 281691, Control_c, 0, 64, 101
1, 281706, Control_c, 0, 64, 85
1, 281721, Control_c, 0, 64, 72
1, 281743, Control_c, 0, 64, 60
1, 281758, Control_c, 0, 64, 39
1, 281773, Control_c, 0, 64, 0
1, 281892, Control_c, 0, 64, 28
1, 281907, Control_c, 0, 64, 45
1, 281922, Control_c, 0, 64, 59
1, 281937, Control_c, 0, 64, 66
1, 281952, Control_c, 0, 64, 73
1, 281966, Control_c, 0, 64, 83
1, 281981, Control_c, 0, 64, 94
1, 281996, Control_c, 0, 64, 110
1, 282011, Control_c, 0, 64, 127
1, 282088, Note_off_c, 0, 62, 38
1, 282106, Note_off_c, 0, 57, 52
1, 282130, Note_off_c, 0, 69, 49
1, 282169, Note_off_c, 0, 50, 60
1, 282192, Note_off_c, 0, 54, 55
1, 282264, Note_off_c, 0, 66, 59
1, 282551, Control_c, 0, 67, 33
1, 282566, Control_c, 0, 67, 34
1, 282594, Note_on_c, 0, 69, 61
1, 282596, Control_c, 0, 67, 34
1, 282597, Note_on_c, 0, 57, 55
1, 282599, Note_on_c, 0, 64, 54
1, 282615, Note_on_c, 0, 62, 52
1, 282622, Note_on_c, 0, 47, 51
1, 282623, Note_on_c, 0, 40, 51
1, 282626, Control_c, 0, 67, 35
1, 282629, Note_on_c, 0, 50, 48
1, 282632, Note_on_c, 0, 52, 50
1, 282640, Control_c, 0, 67, 37
1, 282655, Control_c, 0, 67, 47
1, 282670, Control_c, 0, 67, 60
1, 282685, Control_c, 0, 64, 105
1, 282685, Control_c, 0, 67, 70
1, 282700, Control_c, 0, 64, 87
1, 282700, Control_c, 0, 67, 80
1, 282715, Control_c, 0, 64, 69
1, 282715, Control_c, 0, 67, 90
1, 282730, Control_c, 0, 64, 48
1, 282730, Control_c, 0, 67, 101
1, 282745, Control_c, 0, 64, 0
1, 282745, Control_c, 0, 67, 113
1, 282760, Control_c, 0, 67, 127
1, 282804, Control_c, 0, 64, 45
1, 282819, Control_c, 0, 64, 60
1, 282826, Note_off_c, 0, 64, 63
1, 282834, Control_c, 0, 64, 67
1, 282849, Control_c, 0, 64, 73
1, 282863, Control_c, 0, 64, 79
1, 282869, Note_off_c, 0, 57, 63
1, 282878, Control_c, 0, 64, 84
1, 282893, Control_c, 0, 64, 89
1, 282907, Control_c, 0, 64, 96
1, 282922, Control_c, 0, 64, 102
1, 282937, Control_c, 0, 64, 111
1, 282952, Control_c, 0, 64, 127
1, 283011, Control_c, 0, 64, 116
1, 283026, Control_c, 0, 64, 82
1, 283036, Note_on_c, 0, 68, 59
1, 283039, Note_on_c, 0, 56, 54
1, 283041, Control_c, 0, 64, 65
1, 283055, Control_c, 0, 64, 61
1, 283070, Control_c, 0, 64, 68
1, 283085, Control_c, 0, 64, 81
1, 283100, Control_c, 0, 64, 94
1, 283114, Control_c, 0, 64, 90
1, 283129, Control_c, 0, 64, 76
1, 283144, Control_c, 0, 64, 61
1, 283159, Control_c, 0, 64, 47
1, 283167, Note_off_c, 0, 56, 63
1, 283174, Control_c, 0, 64, 53
1, 283189, Control_c, 0, 64, 62
1, 283204, Control_c, 0, 64, 69
1, 283219, Control_c, 0, 64, 77
1, 283241, Control_c, 0, 64, 83
1, 283256, Control_c, 0, 64, 84
1, 283274, Note_on_c, 0, 66, 60
1, 283294, Note_off_c, 0, 69, 34
1, 283297, Note_on_c, 0, 54, 46
1, 283300, Control_c, 0, 64, 85
1, 283314, Control_c, 0, 64, 85
1, 283329, Control_c, 0, 64, 86
1, 283342, Note_off_c, 0, 68, 33
1, 283374, Control_c, 0, 64, 85
1, 283376, Note_off_c, 0, 54, 57
1, 283415, Note_off_c, 0, 66, 57
1, 283418, Control_c, 0, 64, 85
1, 283433, Control_c, 0, 64, 84
1, 283448, Control_c, 0, 64, 84
1, 283464, Control_c, 0, 64, 82
1, 283478, Control_c, 0, 64, 81
1, 283493, Control_c, 0, 64, 80
1, 283508, Control_c, 0, 64, 78
1, 283523, Control_c, 0, 64, 77
1, 283538, Control_c, 0, 64, 75
1, 283553, Control_c, 0, 64, 74
1, 283568, Control_c, 0, 64, 72
1, 283582, Control_c, 0, 64, 70
1, 283597, Control_c, 0, 64, 68
1, 283612, Control_c, 0, 64, 65
1, 283627, Control_c, 0, 64, 63
1, 283642, Control_c, 0, 64, 61
1, 283642, Note_on_c, 0, 68, 37
1, 283644, Note_on_c, 0, 56, 41
1, 283657, Control_c, 0, 64, 59
1, 283672, Control_c, 0, 64, 56
1, 283686, Control_c, 0, 64, 51
1, 283701, Control_c, 0, 64, 44
1, 283716, Control_c, 0, 64, 32
1, 283730, Control_c, 0, 64, 0
1, 284226, Control_c, 0, 64, 35
1, 284241, Control_c, 0, 64, 48
1, 284257, Control_c, 0, 64, 58
1, 284272, Control_c, 0, 64, 63
1, 284286, Control_c, 0, 64, 66
1, 284301, Control_c, 0, 64, 68
1, 284316, Control_c, 0, 64, 71
1, 284331, Control_c, 0, 64, 76
1, 284337, Note_off_c, 0, 56, 60
1, 284346, Control_c, 0, 64, 81
1, 284360, Control_c, 0, 64, 84
1, 284375, Control_c, 0, 64, 88
1, 284387, Note_off_c, 0, 62, 41
1, 284390, Control_c, 0, 64, 92
1, 284391, Note_off_c, 0, 68, 60
1, 284405, Control_c, 0, 64, 95
1, 284420, Control_c, 0, 64, 97
1, 284448, Note_off_c, 0, 40, 50
1, 284450, Control_c, 0, 64, 99
1, 284454, Note_off_c, 0, 47, 51
1, 284476, Note_off_c, 0, 52, 52
1, 284486, Note_off_c, 0, 50, 42
1, 284509, Control_c, 0, 64, 101
1, 284768, Control_c, 0, 64, 99
1, 284798, Control_c, 0, 64, 96
1, 284813, Control_c, 0, 64, 93
1, 284828, Control_c, 0, 64, 90
1, 284842, Control_c, 0, 64, 87
1, 284857, Control_c, 0, 64, 82
1, 284872, Control_c, 0, 64, 76
1, 284886, Control_c, 0, 64, 69
1, 284901, Control_c, 0, 64, 62
1, 284916, Control_c, 0, 64, 53
1, 284931, Control_c, 0, 64, 39
1, 284946, Control_c, 0, 64, 0
1, 285067, Note_on_c, 0, 86, 49
1, 285146, Note_off_c, 0, 86, 61
1, 285163, Note_on_c, 0, 83, 58
1, 285240, Note_off_c, 0, 83, 59
1, 285255, Note_on_c, 0, 80, 54
1, 285341, Note_on_c, 0, 74, 56
1, 285356, Note_off_c, 0, 80, 62
1, 285373, Note_off_c, 0, 74, 67
1, 285443, Note_on_c, 0, 71, 52
1, 285520, Note_off_c, 0, 71, 58
1, 285533, Note_on_c, 0, 68, 56
1, 285630, Note_on_c, 0, 62, 56
1, 285641, Note_off_c, 0, 68, 60
1, 285674, Note_off_c, 0, 62, 60
1, 285724, Note_on_c, 0, 59, 53
1, 285800, Note_off_c, 0, 59, 62
1, 285807, Note_on_c, 0, 56, 61
1, 285912, Note_on_c, 0, 50, 59
1, 285934, Note_off_c, 0, 56, 50
1, 285982, Note_off_c, 0, 50, 62
1, 285997, Note_on_c, 0, 47, 55
1, 286083, Note_off_c, 0, 47, 55
1, 286110, Note_on_c, 0, 44, 51
1, 286209, Note_off_c, 0, 44, 54
1, 286245, Note_on_c, 0, 40, 51
1, 286343, Note_off_c, 0, 40, 62
1, 286384, Control_c, 0, 67, 94
1, 286399, Control_c, 0, 67, 0
1, 286566, Note_on_c, 0, 74, 60
1, 286567, Note_on_c, 0, 56, 54
1, 286571, Note_on_c, 0, 52, 50
1, 286575, Note_on_c, 0, 68, 49
1, 286583, Note_on_c, 0, 62, 43
1, 286611, Note_off_c, 0, 74, 59
1, 286615, Note_off_c, 0, 68, 64
1, 286616, Note_off_c, 0, 52, 63
1, 286616, Note_off_c, 0, 62, 64
1, 286620, Note_off_c, 0, 56, 62
1, 287048, Note_on_c, 0, 74, 45
1, 287061, Note_on_c, 0, 57, 24
1, 287064, Note_on_c, 0, 69, 31
1, 287071, Note_on_c, 0, 62, 29
1, 287074, Note_on_c, 0, 53, 28
1, 287281, Control_c, 0, 64, 31
1, 287296, Control_c, 0, 64, 43
1, 287311, Control_c, 0, 64, 53
1, 287326, Control_c, 0, 64, 58
1, 287341, Control_c, 0, 64, 61
1, 287355, Control_c, 0, 64, 62
1, 287370, Control_c, 0, 64, 65
1, 287385, Control_c, 0, 64, 69
1, 287399, Control_c, 0, 64, 76
1, 287414, Control_c, 0, 64, 82
1, 287429, Control_c, 0, 64, 87
1, 287445, Control_c, 0, 64, 93
1, 287460, Control_c, 0, 64, 103
1, 287475, Control_c, 0, 64, 116
1, 287490, Note_off_c, 0, 53, 41
1, 287490, Control_c, 0, 64, 127
1, 287496, Note_off_c, 0, 69, 43
1, 287498, Note_off_c, 0, 62, 40
1, 287514, Note_off_c, 0, 57, 41
1, 287549, Note_off_c, 0, 74, 63
1, 287897, Control_c, 0, 64, 117
1, 287911, Control_c, 0, 64, 106
1, 287918, Note_on_c, 0, 86, 49
1, 287926, Control_c, 0, 64, 99
1, 287941, Control_c, 0, 64, 93
1, 287956, Control_c, 0, 64, 87
1, 287971, Control_c, 0, 64, 81
1, 287985, Control_c, 0, 64, 77
1, 287985, Control_c, 0, 67, 43
1, 287998, Note_off_c, 0, 86, 58
1, 288000, Control_c, 0, 64, 72
1, 288000, Control_c, 0, 67, 61
1, 288003, Note_on_c, 0, 81, 59
1, 288015, Control_c, 0, 64, 67
1, 288015, Control_c, 0, 67, 83
1, 288030, Control_c, 0, 64, 64
1, 288030, Control_c, 0, 67, 97
1, 288045, Control_c, 0, 64, 61
1, 288045, Control_c, 0, 67, 105
1, 288060, Control_c, 0, 64, 58
1, 288060, Control_c, 0, 67, 111
1, 288075, Control_c, 0, 64, 56
1, 288075, Control_c, 0, 67, 119
1, 288086, Note_off_c, 0, 81, 63
1, 288090, Control_c, 0, 64, 54
1, 288090, Control_c, 0, 67, 127
1, 288094, Note_on_c, 0, 77, 64
1, 288104, Control_c, 0, 64, 53
1, 288119, Control_c, 0, 64, 52
1, 288134, Control_c, 0, 64, 51
1, 288164, Control_c, 0, 64, 50
1, 288178, Control_c, 0, 64, 49
1, 288186, Note_on_c, 0, 74, 70
1, 288193, Control_c, 0, 64, 48
1, 288208, Control_c, 0, 64, 48
1, 288213, Note_off_c, 0, 77, 62
1, 288222, Control_c, 0, 64, 47
1, 288237, Control_c, 0, 64, 47
1, 288241, Note_off_c, 0, 74, 63
1, 288253, Control_c, 0, 64, 46
1, 288268, Control_c, 0, 64, 45
1, 288274, Note_on_c, 0, 69, 58
1, 288283, Control_c, 0, 64, 45
1, 288313, Control_c, 0, 64, 44
1, 288327, Control_c, 0, 64, 44
1, 288328, Note_off_c, 0, 69, 62
1, 288357, Control_c, 0, 64, 43
1, 288363, Note_on_c, 0, 65, 62
1, 288431, Control_c, 0, 64, 43
1, 288446, Control_c, 0, 64, 42
1, 288453, Note_on_c, 0, 62, 68
1, 288456, Note_off_c, 0, 65, 59
1, 288461, Control_c, 0, 64, 42
1, 288498, Control_c, 0, 64, 41
1, 288527, Control_c, 0, 64, 40
1, 288542, Control_c, 0, 64, 40
1, 288550, Note_off_c, 0, 62, 64
1, 288557, Note_on_c, 0, 57, 65
1, 288558, Control_c, 0, 64, 39
1, 288638, Note_off_c, 0, 57, 62
1, 288642, Note_on_c, 0, 53, 67
1, 288661, Control_c, 0, 64, 39
1, 288721, Control_c, 0, 64, 38
1, 288737, Note_on_c, 0, 50, 77
1, 288750, Note_off_c, 0, 53, 55
1, 288750, Control_c, 0, 64, 38
1, 288809, Note_off_c, 0, 50, 63
1, 288830, Note_on_c, 0, 45, 68
1, 288901, Note_off_c, 0, 45, 62
1, 288913, Control_c, 0, 64, 37
1, 288925, Note_on_c, 0, 40, 63
1, 288927, Control_c, 0, 64, 37
1, 288942, Control_c, 0, 64, 35
1, 288957, Control_c, 0, 64, 34
1, 288957, Control_c, 0, 67, 114
1, 288972, Control_c, 0, 64, 33
1, 288972, Control_c, 0, 67, 88
1, 288987, Control_c, 0, 64, 32
1, 288987, Control_c, 0, 67, 52
1, 289002, Control_c, 0, 64, 30
1, 289002, Control_c, 0, 67, 0
1, 289017, Control_c, 0, 64, 0
1, 289049, Note_on_c, 0, 41, 67
1, 289088, Note_off_c, 0, 40, 56
1, 289149, Note_off_c, 0, 41, 65
1, 289381, Note_on_c, 0, 74, 75
1, 289382, Note_on_c, 0, 57, 67
1, 289387, Note_on_c, 0, 53, 66
1, 289387, Note_on_c, 0, 69, 65
1, 289392, Note_on_c, 0, 62, 60
1, 289445, Note_off_c, 0, 69, 62
1, 289448, Note_off_c, 0, 62, 58
1, 289452, Note_off_c, 0, 53, 63
1, 289455, Note_off_c, 0, 57, 64
1, 289467, Note_off_c, 0, 74, 62
1, 289804, Note_on_c, 0, 74, 60
1, 289811, Note_on_c, 0, 72, 54
1, 289813, Note_on_c, 0, 62, 47
1, 289822, Note_on_c, 0, 57, 52
1, 289827, Note_on_c, 0, 54, 58
1, 289928, Control_c, 0, 64, 33
1, 289943, Control_c, 0, 64, 49
1, 289958, Control_c, 0, 64, 58
1, 289979, Control_c, 0, 64, 61
1, 289994, Control_c, 0, 64, 63
1, 290009, Control_c, 0, 64, 66
1, 290024, Control_c, 0, 64, 70
1, 290039, Control_c, 0, 64, 75
1, 290054, Control_c, 0, 64, 82
1, 290069, Control_c, 0, 64, 86
1, 290084, Control_c, 0, 64, 90
1, 290087, Note_off_c, 0, 62, 61
1, 290098, Control_c, 0, 64, 95
1, 290113, Control_c, 0, 64, 103
1, 290128, Control_c, 0, 64, 112
1, 290139, Note_off_c, 0, 72, 61
1, 290143, Control_c, 0, 64, 127
1, 290158, Note_off_c, 0, 74, 60
1, 290336, Note_off_c, 0, 57, 60
1, 290389, Note_off_c, 0, 54, 61
1, 290468, Control_c, 0, 64, 121
1, 290483, Control_c, 0, 64, 113
1, 290498, Control_c, 0, 64, 107
1, 290513, Control_c, 0, 64, 102
1, 290519, Note_on_c, 0, 86, 73
1, 290528, Control_c, 0, 64, 97
1, 290543, Control_c, 0, 64, 94
1, 290558, Control_c, 0, 64, 88
1, 290572, Control_c, 0, 64, 84
1, 290587, Control_c, 0, 64, 79
1, 290602, Control_c, 0, 64, 74
1, 290612, Note_on_c, 0, 83, 75
1, 290616, Control_c, 0, 64, 69
1, 290625, Note_off_c, 0, 86, 59
1, 290631, Control_c, 0, 64, 65
1, 290647, Control_c, 0, 64, 60
1, 290662, Control_c, 0, 64, 53
1, 290677, Control_c, 0, 64, 41
1, 290692, Control_c, 0, 64, 0
1, 290692, Note_on_c, 0, 79, 73
1, 290701, Note_off_c, 0, 83, 64
1, 290757, Note_off_c, 0, 79, 65
1, 290787, Note_on_c, 0, 43, 72
1, 290790, Note_on_c, 0, 74, 74
1, 290817, Control_c, 0, 64, 44
1, 290823, Note_off_c, 0, 74, 65
1, 290832, Control_c, 0, 64, 60
1, 290847, Control_c, 0, 64, 67
1, 290862, Control_c, 0, 64, 75
1, 290877, Control_c, 0, 64, 83
1, 290882, Note_on_c, 0, 71, 82
1, 290892, Control_c, 0, 64, 91
1, 290906, Control_c, 0, 64, 99
1, 290921, Control_c, 0, 64, 110
1, 290936, Control_c, 0, 64, 127
1, 290965, Note_on_c, 0, 67, 83
1, 290978, Note_off_c, 0, 71, 60
1, 290990, Note_off_c, 0, 43, 58
1, 291143, Control_c, 0, 64, 109
1, 291156, Note_on_c, 0, 50, 61
1, 291158, Control_c, 0, 64, 98
1, 291160, Note_on_c, 0, 53, 65
1, 291161, Note_on_c, 0, 62, 80
1, 291165, Note_on_c, 0, 44, 61
1, 291166, Note_off_c, 0, 67, 57
1, 291173, Control_c, 0, 64, 90
1, 291187, Control_c, 0, 64, 81
1, 291202, Control_c, 0, 64, 70
1, 291217, Control_c, 0, 64, 57
1, 291232, Control_c, 0, 64, 0
1, 291336, Control_c, 0, 64, 40
1, 291351, Control_c, 0, 64, 54
1, 291366, Control_c, 0, 64, 63
1, 291380, Control_c, 0, 64, 68
1, 291395, Control_c, 0, 64, 74
1, 291410, Control_c, 0, 64, 82
1, 291425, Control_c, 0, 64, 90
1, 291440, Control_c, 0, 64, 98
1, 291455, Control_c, 0, 64, 109
1, 291477, Control_c, 0, 64, 127
1, 291504, Note_on_c, 0, 74, 69
1, 291506, Note_off_c, 0, 62, 61
1, 291557, Note_off_c, 0, 53, 52
1, 291558, Note_off_c, 0, 74, 62
1, 291622, Note_off_c, 0, 44, 62
1, 291660, Note_off_c, 0, 50, 36
1, 291795, Note_on_c, 0, 86, 76
1, 291848, Control_c, 0, 64, 120
1, 291862, Control_c, 0, 64, 108
1, 291877, Control_c, 0, 64, 98
1, 291885, Note_on_c, 0, 81, 79
1, 291891, Note_off_c, 0, 86, 63
1, 291892, Control_c, 0, 64, 90
1, 291907, Control_c, 0, 64, 82
1, 291922, Control_c, 0, 64, 74
1, 291936, Control_c, 0, 64, 65
1, 291951, Control_c, 0, 64, 53
1, 291966, Control_c, 0, 64, 29
1, 291973, Note_on_c, 0, 77, 79
1, 291981, Control_c, 0, 64, 0
1, 291982, Note_off_c, 0, 81, 65
1, 292041, Note_off_c, 0, 77, 63
1, 292068, Note_on_c, 0, 74, 77
1, 292069, Control_c, 0, 64, 35
1, 292070, Note_on_c, 0, 53, 66
1, 292074, Note_on_c, 0, 50, 65
1, 292075, Note_on_c, 0, 45, 65
1, 292084, Control_c, 0, 64, 58
1, 292099, Control_c, 0, 64, 67
1, 292114, Control_c, 0, 64, 77
1, 292115, Note_off_c, 0, 74, 66
1, 292129, Control_c, 0, 64, 88
1, 292144, Control_c, 0, 64, 98
1, 292158, Control_c, 0, 64, 111
1, 292172, Note_on_c, 0, 69, 84
1, 292173, Control_c, 0, 64, 127
1, 292227, Note_off_c, 0, 50, 55
1, 292239, Note_off_c, 0, 53, 54
1, 292263, Note_on_c, 0, 65, 81
1, 292263, Note_off_c, 0, 45, 57
1, 292263, Note_off_c, 0, 69, 61
1, 292340, Note_off_c, 0, 65, 56
1, 292346, Control_c, 0, 64, 77
1, 292361, Control_c, 0, 64, 49
1, 292368, Note_on_c, 0, 62, 80
1, 292370, Note_on_c, 0, 50, 69
1, 292370, Note_on_c, 0, 53, 74
1, 292374, Note_on_c, 0, 46, 74
1, 292375, Control_c, 0, 64, 0
1, 292405, Control_c, 0, 64, 35
1, 292420, Control_c, 0, 64, 58
1, 292434, Note_off_c, 0, 62, 63
1, 292435, Control_c, 0, 64, 71
1, 292449, Control_c, 0, 64, 86
1, 292464, Control_c, 0, 64, 107
1, 292466, Note_on_c, 0, 74, 88
1, 292479, Control_c, 0, 64, 127
1, 292497, Note_off_c, 0, 50, 57
1, 292524, Note_off_c, 0, 46, 60
1, 292530, Note_off_c, 0, 53, 52
1, 292546, Note_off_c, 0, 74, 66
1, 292549, Note_on_c, 0, 73, 81
1, 292641, Control_c, 0, 64, 76
1, 292642, Note_off_c, 0, 73, 62
1, 292651, Note_on_c, 0, 74, 88
1, 292653, Note_on_c, 0, 50, 75
1, 292653, Note_on_c, 0, 53, 80
1, 292656, Control_c, 0, 64, 49
1, 292659, Note_on_c, 0, 47, 82
1, 292671, Control_c, 0, 64, 0
1, 292701, Control_c, 0, 64, 42
1, 292716, Control_c, 0, 64, 64
1, 292728, Note_off_c, 0, 74, 59
1, 292731, Control_c, 0, 64, 78
1, 292746, Control_c, 0, 64, 105
1, 292753, Note_on_c, 0, 86, 90
1, 292761, Control_c, 0, 64, 127
1, 292767, Note_off_c, 0, 50, 63
1, 292769, Note_off_c, 0, 53, 62
1, 292788, Note_off_c, 0, 47, 63
1, 292848, Note_on_c, 0, 85, 89
1, 292880, Note_off_c, 0, 86, 64
1, 293047, Note_on_c, 0, 86, 85
1, 293056, Note_on_c, 0, 56, 77
1, 293059, Note_on_c, 0, 52, 73
1, 293060, Note_on_c, 0, 47, 71
1, 293060, Note_on_c, 0, 50, 70
1, 293070, Note_off_c, 0, 85, 59
1, 293138, Control_c, 0, 64, 101
1, 293153, Control_c, 0, 64, 90
1, 293168, Control_c, 0, 64, 82
1, 293183, Control_c, 0, 64, 75
1, 293190, Note_on_c, 0, 85, 79
1, 293197, Control_c, 0, 64, 68
1, 293212, Control_c, 0, 64, 61
1, 293216, Note_off_c, 0, 86, 60
1, 293227, Control_c, 0, 64, 57
1, 293241, Control_c, 0, 64, 55
1, 293256, Control_c, 0, 64, 55
1, 293291, Note_on_c, 0, 88, 79
1, 293296, Note_off_c, 0, 85, 64
1, 293301, Control_c, 0, 64, 54
1, 293315, Control_c, 0, 64, 53
1, 293330, Control_c, 0, 64, 52
1, 293375, Control_c, 0, 64, 52
1, 293387, Note_on_c, 0, 86, 83
1, 293399, Note_off_c, 0, 88, 64
1, 293479, Note_on_c, 0, 85, 79
1, 293515, Note_off_c, 0, 86, 61
1, 293574, Note_on_c, 0, 83, 79
1, 293594, Note_off_c, 0, 85, 64
1, 293658, Note_off_c, 0, 83, 63
1, 293669, Note_on_c, 0, 81, 77
1, 293778, Note_on_c, 0, 80, 77
1, 293783, Control_c, 0, 64, 52
1, 293786, Note_off_c, 0, 81, 59
1, 293872, Note_on_c, 0, 83, 73
1, 293878, Note_off_c, 0, 80, 61
1, 293964, Note_on_c, 0, 81, 75
1, 293969, Note_off_c, 0, 83, 60
1, 293991, Control_c, 0, 64, 52
1, 294059, Note_on_c, 0, 80, 70
1, 294087, Note_off_c, 0, 81, 60
1, 294150, Note_on_c, 0, 78, 68
1, 294174, Note_off_c, 0, 80, 60
1, 294225, Note_off_c, 0, 78, 61
1, 294251, Note_on_c, 0, 76, 71
1, 294302, Control_c, 0, 64, 51
1, 294337, Note_off_c, 0, 76, 61
1, 294340, Note_on_c, 0, 75, 69
1, 294424, Note_on_c, 0, 78, 62
1, 294447, Note_off_c, 0, 75, 55
1, 294530, Note_on_c, 0, 76, 69
1, 294534, Note_off_c, 0, 47, 60
1, 294535, Note_off_c, 0, 50, 62
1, 294547, Note_off_c, 0, 52, 61
1, 294561, Control_c, 0, 64, 52
1, 294561, Note_off_c, 0, 78, 57
1, 294566, Note_off_c, 0, 56, 58
1, 294576, Control_c, 0, 67, 40
1, 294590, Control_c, 0, 67, 44
1, 294598, Note_off_c, 0, 76, 64
1, 294621, Note_on_c, 0, 74, 73
1, 294636, Control_c, 0, 67, 43
1, 294651, Control_c, 0, 67, 43
1, 294677, Note_off_c, 0, 74, 58
1, 294695, Control_c, 0, 67, 42
1, 294709, Note_on_c, 0, 73, 63
1, 294710, Control_c, 0, 67, 42
1, 294814, Note_off_c, 0, 73, 62
1, 294816, Note_on_c, 0, 71, 66
1, 294831, Note_on_c, 0, 59, 51
1, 294909, Note_off_c, 0, 71, 58
1, 294915, Note_on_c, 0, 70, 70
1, 294919, Note_on_c, 0, 58, 70
1, 294922, Note_off_c, 0, 59, 62
1, 294932, Control_c, 0, 67, 42
1, 294947, Control_c, 0, 67, 43
1, 294976, Control_c, 0, 67, 43
1, 295002, Note_on_c, 0, 74, 79
1, 295006, Control_c, 0, 67, 44
1, 295007, Note_off_c, 0, 70, 64
1, 295009, Note_on_c, 0, 62, 69
1, 295031, Note_off_c, 0, 58, 58
1, 295095, Note_on_c, 0, 61, 69
1, 295096, Note_off_c, 0, 62, 62
1, 295102, Note_on_c, 0, 73, 72
1, 295107, Note_off_c, 0, 74, 59
1, 295110, Control_c, 0, 67, 43
1, 295124, Control_c, 0, 64, 51
1, 295187, Note_on_c, 0, 71, 77
1, 295196, Note_on_c, 0, 59, 71
1, 295199, Control_c, 0, 67, 43
1, 295214, Note_off_c, 0, 73, 59
1, 295216, Note_off_c, 0, 61, 59
1, 295250, Control_c, 0, 64, 51
1, 295265, Control_c, 0, 67, 42
1, 295271, Note_off_c, 0, 71, 63
1, 295280, Control_c, 0, 64, 50
1, 295285, Note_off_c, 0, 59, 64
1, 295288, Note_on_c, 0, 57, 68
1, 295294, Note_on_c, 0, 69, 72
1, 295310, Control_c, 0, 67, 42
1, 295325, Control_c, 0, 64, 50
1, 295325, Control_c, 0, 67, 41
1, 295369, Control_c, 0, 67, 41
1, 295390, Note_off_c, 0, 69, 58
1, 295394, Note_on_c, 0, 68, 68
1, 295394, Note_off_c, 0, 57, 63
1, 295403, Note_on_c, 0, 56, 68
1, 295444, Control_c, 0, 64, 49
1, 295459, Control_c, 0, 67, 41
1, 295474, Control_c, 0, 67, 42
1, 295481, Note_off_c, 0, 68, 58
1, 295489, Control_c, 0, 67, 43
1, 295496, Note_on_c, 0, 69, 71
1, 295501, Note_off_c, 0, 56, 64
1, 295504, Control_c, 0, 64, 49
1, 295504, Control_c, 0, 67, 45
1, 295511, Note_on_c, 0, 57, 61
1, 295518, Control_c, 0, 67, 46
1, 295533, Control_c, 0, 64, 48
1, 295533, Control_c, 0, 67, 49
1, 295548, Control_c, 0, 64, 48
1, 295548, Control_c, 0, 67, 51
1, 295563, Control_c, 0, 64, 47
1, 295563, Control_c, 0, 67, 67
1, 295569, Note_off_c, 0, 69, 60
1, 295574, Note_off_c, 0, 57, 62
1, 295578, Control_c, 0, 64, 46
1, 295578, Control_c, 0, 67, 87
1, 295586, Note_on_c, 0, 71, 68
1, 295591, Note_on_c, 0, 59, 68
1, 295593, Control_c, 0, 64, 45
1, 295593, Control_c, 0, 67, 102
1, 295608, Control_c, 0, 64, 45
1, 295608, Control_c, 0, 67, 110
1, 295623, Control_c, 0, 64, 43
1, 295623, Control_c, 0, 67, 114
1, 295637, Control_c, 0, 64, 40
1, 295637, Control_c, 0, 67, 117
1, 295652, Control_c, 0, 64, 34
1, 295663, Note_off_c, 0, 71, 60
1, 295667, Control_c, 0, 64, 0
1, 295668, Note_off_c, 0, 59, 62
1, 295678, Note_on_c, 0, 69, 70
1, 295696, Note_on_c, 0, 57, 55
1, 295768, Note_off_c, 0, 57, 64
1, 295769, Note_on_c, 0, 68, 64
1, 295774, Note_on_c, 0, 56, 68
1, 295780, Note_off_c, 0, 69, 55
1, 295861, Note_on_c, 0, 54, 63
1, 295864, Note_on_c, 0, 66, 68
1, 295868, Note_off_c, 0, 56, 62
1, 295885, Note_off_c, 0, 68, 61
1, 295952, Note_off_c, 0, 66, 61
1, 295980, Note_on_c, 0, 52, 69
1, 295980, Note_on_c, 0, 64, 67
1, 295991, Note_off_c, 0, 54, 61
1, 296054, Note_off_c, 0, 64, 60
1, 296075, Note_on_c, 0, 66, 66
1, 296078, Note_off_c, 0, 52, 63
1, 296093, Note_on_c, 0, 54, 69
1, 296164, Note_off_c, 0, 54, 64
1, 296165, Note_on_c, 0, 64, 67
1, 296166, Note_off_c, 0, 66, 63
1, 296183, Note_on_c, 0, 52, 65
1, 296247, Note_off_c, 0, 64, 63
1, 296274, Note_off_c, 0, 52, 61
1, 296277, Note_on_c, 0, 62, 61
1, 296302, Note_on_c, 0, 50, 56
1, 296349, Note_off_c, 0, 62, 49
1, 296378, Note_off_c, 0, 50, 62
1, 296380, Note_on_c, 0, 61, 57
1, 296391, Note_on_c, 0, 49, 55
1, 296466, Note_off_c, 0, 49, 63
1, 296486, Note_off_c, 0, 61, 60
1, 296494, Note_on_c, 0, 47, 55
1, 296500, Note_on_c, 0, 59, 53
1, 296702, Note_off_c, 0, 47, 58
1, 296734, Note_off_c, 0, 59, 50
1, 296738, Note_on_c, 0, 49, 39
1, 296740, Note_on_c, 0, 45, 45
1, 296740, Note_on_c, 0, 57, 52
1, 296892, Note_off_c, 0, 57, 64
1, 297158, Note_on_c, 0, 69, 59
1, 297247, Note_off_c, 0, 69, 59
1, 297387, Control_c, 0, 67, 115
1, 297468, Control_c, 0, 67, 113
1, 297507, Note_on_c, 0, 76, 63
1, 297533, Note_on_c, 0, 64, 46
1, 297557, Control_c, 0, 67, 111
1, 297574, Note_off_c, 0, 49, 61
1, 297586, Note_off_c, 0, 45, 38
1, 297720, Control_c, 0, 67, 109
1, 297809, Control_c, 0, 67, 107
1, 297810, Note_on_c, 0, 57, 52
1, 297818, Note_on_c, 0, 49, 48
1, 297819, Note_on_c, 0, 45, 48
1, 297862, Note_off_c, 0, 49, 61
1, 297870, Control_c, 0, 67, 105
1, 297877, Note_off_c, 0, 57, 56
1, 297889, Note_off_c, 0, 45, 57
1, 298138, Note_on_c, 0, 57, 45
1, 298142, Note_on_c, 0, 50, 44
1, 298144, Note_on_c, 0, 47, 48
1, 298182, Note_off_c, 0, 64, 46
1, 298453, Note_on_c, 0, 78, 61
1, 298473, Note_on_c, 0, 66, 51
1, 298522, Note_off_c, 0, 76, 39
1, 298536, Note_off_c, 0, 78, 58
1, 298556, Note_off_c, 0, 66, 59
1, 298787, Note_on_c, 0, 74, 66
1, 298810, Note_on_c, 0, 62, 48
1, 298883, Note_off_c, 0, 50, 44
1, 298911, Note_off_c, 0, 57, 55
1, 298917, Note_off_c, 0, 47, 34
1, 299079, Note_on_c, 0, 57, 50
1, 299091, Note_on_c, 0, 47, 40
1, 299092, Note_on_c, 0, 50, 36
1, 299139, Note_off_c, 0, 50, 62
1, 299155, Note_off_c, 0, 57, 58
1, 299167, Note_off_c, 0, 47, 58
1, 299393, Note_on_c, 0, 57, 32
1, 299396, Note_on_c, 0, 49, 37
1, 299401, Note_off_c, 0, 62, 38
1, 299410, Note_on_c, 0, 52, 28
1, 299472, Control_c, 0, 64, 33
1, 299486, Control_c, 0, 64, 51
1, 299486, Control_c, 0, 67, 102
1, 299501, Control_c, 0, 64, 59
1, 299503, Note_off_c, 0, 74, 58
1, 299516, Control_c, 0, 64, 62
1, 299531, Control_c, 0, 64, 64
1, 299532, Note_on_c, 0, 76, 55
1, 299546, Control_c, 0, 64, 67
1, 299548, Note_on_c, 0, 64, 48
1, 299560, Control_c, 0, 64, 70
1, 299575, Control_c, 0, 64, 72
1, 299577, Note_off_c, 0, 76, 57
1, 299589, Note_off_c, 0, 64, 63
1, 299590, Control_c, 0, 64, 73
1, 299605, Control_c, 0, 64, 74
1, 299620, Control_c, 0, 64, 75
1, 299635, Control_c, 0, 67, 104
1, 299649, Control_c, 0, 64, 76
1, 299679, Control_c, 0, 67, 106
1, 299716, Control_c, 0, 64, 75
1, 299716, Control_c, 0, 67, 108
1, 299731, Control_c, 0, 64, 73
1, 299746, Note_on_c, 0, 73, 55
1, 299746, Control_c, 0, 64, 67
1, 299760, Control_c, 0, 64, 58
1, 299775, Control_c, 0, 64, 47
1, 299781, Note_on_c, 0, 61, 38
1, 299790, Control_c, 0, 64, 39
1, 299805, Control_c, 0, 64, 38
1, 299819, Control_c, 0, 64, 44
1, 299834, Control_c, 0, 64, 52
1, 299849, Control_c, 0, 64, 60
1, 299864, Control_c, 0, 64, 65
1, 299879, Control_c, 0, 64, 70
1, 299894, Control_c, 0, 64, 74
1, 299900, Note_off_c, 0, 49, 62
1, 299909, Control_c, 0, 64, 78
1, 299917, Note_off_c, 0, 52, 40
1, 299924, Control_c, 0, 64, 81
1, 299924, Note_off_c, 0, 57, 46
1, 299939, Control_c, 0, 64, 86
1, 299941, Note_off_c, 0, 73, 59
1, 299954, Control_c, 0, 64, 89
1, 299968, Control_c, 0, 64, 93
1, 299983, Control_c, 0, 64, 96
1, 299998, Control_c, 0, 64, 99
1, 300004, Note_off_c, 0, 61, 58
1, 300012, Control_c, 0, 64, 102
1, 300027, Control_c, 0, 64, 106
1, 300042, Control_c, 0, 64, 108
1, 300070, Note_on_c, 0, 71, 59
1, 300072, Control_c, 0, 64, 103
1, 300077, Note_on_c, 0, 57, 44
1, 300086, Control_c, 0, 64, 88
1, 300097, Note_on_c, 0, 54, 43
1, 300099, Note_on_c, 0, 50, 49
1, 300101, Control_c, 0, 64, 73
1, 300116, Control_c, 0, 64, 61
1, 300131, Control_c, 0, 64, 55
1, 300146, Control_c, 0, 64, 59
1, 300156, Note_off_c, 0, 71, 61
1, 300160, Control_c, 0, 64, 63
1, 300167, Note_off_c, 0, 54, 49
1, 300174, Note_on_c, 0, 59, 65
1, 300175, Control_c, 0, 64, 68
1, 300180, Note_off_c, 0, 57, 62
1, 300190, Control_c, 0, 64, 73
1, 300204, Control_c, 0, 64, 79
1, 300219, Control_c, 0, 64, 83
1, 300226, Note_off_c, 0, 59, 59
1, 300235, Control_c, 0, 64, 87
1, 300250, Control_c, 0, 64, 90
1, 300265, Control_c, 0, 64, 91
1, 300265, Control_c, 0, 67, 106
1, 300267, Note_on_c, 0, 71, 75
1, 300280, Control_c, 0, 64, 93
1, 300295, Control_c, 0, 64, 93
1, 300324, Control_c, 0, 67, 104
1, 300352, Note_off_c, 0, 50, 57
1, 300354, Control_c, 0, 64, 92
1, 300354, Control_c, 0, 67, 102
1, 300358, Note_on_c, 0, 55, 57
1, 300364, Note_on_c, 0, 57, 49
1, 300366, Note_on_c, 0, 70, 78
1, 300369, Control_c, 0, 64, 85
1, 300377, Note_on_c, 0, 52, 52
1, 300383, Control_c, 0, 64, 72
1, 300396, Note_off_c, 0, 71, 60
1, 300398, Control_c, 0, 64, 55
1, 300398, Control_c, 0, 67, 99
1, 300413, Control_c, 0, 64, 0
1, 300442, Control_c, 0, 67, 97
1, 300466, Note_off_c, 0, 70, 63
1, 300475, Note_on_c, 0, 58, 73
1, 300480, Control_c, 0, 64, 39
1, 300480, Control_c, 0, 67, 94
1, 300483, Note_off_c, 0, 55, 60
1, 300495, Control_c, 0, 64, 55
1, 300495, Control_c, 0, 67, 91
1, 300509, Control_c, 0, 64, 63
1, 300509, Control_c, 0, 67, 88
1, 300511, Note_off_c, 0, 57, 60
1, 300524, Control_c, 0, 64, 67
1, 300524, Control_c, 0, 67, 80
1, 300539, Control_c, 0, 64, 70
1, 300539, Control_c, 0, 67, 60
1, 300551, Note_off_c, 0, 58, 59
1, 300554, Control_c, 0, 64, 72
1, 300554, Control_c, 0, 67, 43
1, 300565, Note_on_c, 0, 70, 76
1, 300569, Control_c, 0, 64, 74
1, 300569, Control_c, 0, 67, 34
1, 300583, Control_c, 0, 64, 76
1, 300583, Control_c, 0, 67, 0
1, 300598, Control_c, 0, 64, 78
1, 300613, Control_c, 0, 64, 79
1, 300715, Note_off_c, 0, 52, 54
1, 300723, Note_off_c, 0, 70, 59
1, 300732, Note_on_c, 0, 71, 68
1, 300738, Note_on_c, 0, 57, 43
1, 300746, Control_c, 0, 64, 78
1, 300748, Note_on_c, 0, 54, 40
1, 300750, Note_on_c, 0, 59, 52
1, 300751, Note_on_c, 0, 50, 45
1, 300761, Control_c, 0, 64, 75
1, 300776, Control_c, 0, 64, 69
1, 300791, Control_c, 0, 64, 57
1, 300806, Control_c, 0, 64, 0
1, 300875, Note_off_c, 0, 54, 60
1, 300880, Control_c, 0, 64, 43
1, 300895, Control_c, 0, 64, 58
1, 300898, Note_off_c, 0, 59, 63
1, 300909, Control_c, 0, 64, 65
1, 300924, Control_c, 0, 64, 69
1, 300931, Note_off_c, 0, 57, 60
1, 300939, Control_c, 0, 64, 73
1, 300953, Control_c, 0, 64, 76
1, 300968, Control_c, 0, 64, 80
1, 300983, Control_c, 0, 64, 85
1, 300998, Control_c, 0, 64, 90
1, 301010, Note_off_c, 0, 50, 54
1, 301013, Control_c, 0, 64, 95
1, 301029, Control_c, 0, 64, 99
1, 301044, Note_off_c, 0, 71, 60
1, 301058, Control_c, 0, 64, 88
1, 301062, Note_on_c, 0, 73, 71
1, 301073, Note_on_c, 0, 57, 51
1, 301073, Control_c, 0, 64, 72
1, 301080, Note_on_c, 0, 49, 48
1, 301080, Note_on_c, 0, 52, 50
1, 301086, Note_on_c, 0, 61, 51
1, 301088, Control_c, 0, 64, 57
1, 301103, Control_c, 0, 64, 45
1, 301118, Control_c, 0, 64, 48
1, 301132, Control_c, 0, 64, 57
1, 301147, Control_c, 0, 64, 63
1, 301149, Note_off_c, 0, 61, 61
1, 301162, Control_c, 0, 64, 70
1, 301176, Control_c, 0, 64, 77
1, 301179, Note_off_c, 0, 57, 59
1, 301182, Note_off_c, 0, 52, 61
1, 301191, Control_c, 0, 64, 83
1, 301195, Note_off_c, 0, 49, 61
1, 301206, Note_on_c, 0, 74, 73
1, 301214, Control_c, 0, 64, 87
1, 301229, Control_c, 0, 64, 91
1, 301232, Note_on_c, 0, 62, 55
1, 301244, Control_c, 0, 64, 95
1, 301258, Control_c, 0, 64, 100
1, 301262, Note_off_c, 0, 62, 60
1, 301273, Control_c, 0, 64, 106
1, 301287, Control_c, 0, 64, 111
1, 301302, Control_c, 0, 64, 120
1, 301317, Control_c, 0, 64, 127
1, 301331, Control_c, 0, 64, 123
1, 301341, Note_off_c, 0, 73, 24
1, 301346, Control_c, 0, 64, 96
1, 301361, Control_c, 0, 64, 73
1, 301376, Note_on_c, 0, 76, 68
1, 301376, Control_c, 0, 64, 50
1, 301376, Note_on_c, 0, 49, 52
1, 301382, Note_on_c, 0, 45, 55
1, 301390, Note_on_c, 0, 64, 53
1, 301390, Control_c, 0, 64, 0
1, 301393, Note_off_c, 0, 74, 58
1, 301420, Control_c, 0, 64, 44
1, 301435, Control_c, 0, 64, 60
1, 301440, Note_off_c, 0, 49, 57
1, 301450, Control_c, 0, 64, 68
1, 301458, Note_off_c, 0, 45, 60
1, 301465, Control_c, 0, 64, 76
1, 301467, Note_on_c, 0, 57, 65
1, 301478, Note_off_c, 0, 64, 52
1, 301480, Control_c, 0, 64, 85
1, 301495, Control_c, 0, 64, 90
1, 301510, Control_c, 0, 64, 96
1, 301524, Control_c, 0, 64, 102
1, 301539, Control_c, 0, 64, 110
1, 301554, Control_c, 0, 64, 126
1, 301556, Note_on_c, 0, 49, 64
1, 301571, Note_off_c, 0, 57, 59
1, 301582, Note_on_c, 0, 45, 57
1, 301612, Note_off_c, 0, 45, 64
1, 301627, Note_off_c, 0, 49, 62
1, 301657, Control_c, 0, 64, 101
1, 301670, Note_on_c, 0, 81, 79
1, 301672, Control_c, 0, 64, 64
1, 301677, Note_on_c, 0, 50, 62
1, 301687, Control_c, 0, 64, 37
1, 301688, Note_on_c, 0, 47, 61
1, 301698, Note_on_c, 0, 69, 58
1, 301702, Control_c, 0, 64, 33
1, 301717, Control_c, 0, 64, 49
1, 301718, Note_off_c, 0, 76, 52
1, 301731, Control_c, 0, 64, 62
1, 301746, Control_c, 0, 64, 71
1, 301756, Note_off_c, 0, 50, 58
1, 301761, Control_c, 0, 64, 84
1, 301765, Note_off_c, 0, 81, 61
1, 301770, Note_off_c, 0, 47, 61
1, 301772, Note_on_c, 0, 57, 71
1, 301775, Control_c, 0, 64, 97
1, 301790, Control_c, 0, 64, 111
1, 301805, Control_c, 0, 64, 127
1, 301843, Note_off_c, 0, 57, 61
1, 301875, Note_on_c, 0, 50, 61
1, 301884, Note_on_c, 0, 47, 63
1, 301943, Note_off_c, 0, 50, 61
1, 301975, Note_off_c, 0, 47, 62
1, 302019, Note_off_c, 0, 69, 55
1, 302066, Control_c, 0, 64, 108
1, 302074, Note_on_c, 0, 73, 69
1, 302079, Note_on_c, 0, 52, 58
1, 302080, Control_c, 0, 64, 97
1, 302088, Note_on_c, 0, 57, 51
1, 302094, Note_on_c, 0, 49, 60
1, 302094, Note_on_c, 0, 61, 57
1, 302095, Control_c, 0, 64, 88
1, 302110, Control_c, 0, 64, 78
1, 302125, Control_c, 0, 64, 67
1, 302140, Control_c, 0, 64, 56
1, 302154, Control_c, 0, 64, 38
1, 302169, Control_c, 0, 64, 0
1, 302288, Control_c, 0, 64, 35
1, 302302, Control_c, 0, 64, 54
1, 302317, Control_c, 0, 64, 64
1, 302332, Control_c, 0, 64, 70
1, 302347, Control_c, 0, 64, 75
1, 302362, Control_c, 0, 64, 80
1, 302377, Control_c, 0, 64, 87
1, 302392, Control_c, 0, 64, 94
1, 302406, Control_c, 0, 64, 101
1, 302410, Note_off_c, 0, 61, 38
1, 302421, Control_c, 0, 64, 110
1, 302436, Control_c, 0, 64, 127
1, 302456, Note_off_c, 0, 57, 56
1, 302463, Note_off_c, 0, 52, 51
1, 302490, Note_off_c, 0, 49, 62
1, 302566, Note_off_c, 0, 73, 58
1, 302846, Note_on_c, 0, 78, 75
1, 302866, Note_on_c, 0, 57, 51
1, 302877, Note_on_c, 0, 50, 46
1, 302884, Note_on_c, 0, 54, 45
1, 302889, Control_c, 0, 64, 112
1, 302892, Note_on_c, 0, 66, 41
1, 302893, Note_on_c, 0, 69, 36
1, 302903, Control_c, 0, 64, 101
1, 302918, Control_c, 0, 64, 92
1, 302933, Control_c, 0, 64, 83
1, 302948, Control_c, 0, 64, 74
1, 302962, Control_c, 0, 64, 65
1, 302977, Control_c, 0, 64, 54
1, 302992, Control_c, 0, 64, 37
1, 303007, Control_c, 0, 64, 0
1, 303081, Control_c, 0, 64, 46
1, 303095, Control_c, 0, 64, 61
1, 303110, Control_c, 0, 64, 68
1, 303125, Control_c, 0, 64, 74
1, 303140, Control_c, 0, 64, 80
1, 303146, Note_off_c, 0, 69, 54
1, 303155, Control_c, 0, 64, 85
1, 303170, Note_off_c, 0, 78, 58
1, 303170, Control_c, 0, 64, 92
1, 303185, Control_c, 0, 64, 98
1, 303200, Control_c, 0, 64, 106
1, 303215, Control_c, 0, 64, 111
1, 303227, Note_off_c, 0, 57, 56
1, 303229, Control_c, 0, 64, 117
1, 303236, Note_off_c, 0, 50, 61
1, 303241, Note_off_c, 0, 66, 61
1, 303244, Control_c, 0, 64, 127
1, 303257, Note_off_c, 0, 54, 56
1, 303259, Control_c, 0, 67, 37
1, 303274, Control_c, 0, 67, 45
1, 303289, Control_c, 0, 67, 62
1, 303303, Control_c, 0, 67, 87
1, 303318, Control_c, 0, 67, 105
1, 303333, Control_c, 0, 67, 117
1, 303347, Control_c, 0, 67, 127
1, 303592, Control_c, 0, 64, 120
1, 303607, Control_c, 0, 64, 117
1, 303622, Control_c, 0, 64, 114
1, 303637, Control_c, 0, 64, 112
1, 303651, Control_c, 0, 64, 110
1, 303666, Control_c, 0, 64, 108
1, 303681, Control_c, 0, 64, 105
1, 303695, Note_on_c, 0, 74, 52
1, 303696, Control_c, 0, 64, 102
1, 303711, Control_c, 0, 64, 99
1, 303713, Note_on_c, 0, 69, 47
1, 303718, Note_on_c, 0, 62, 39
1, 303725, Control_c, 0, 64, 96
1, 303730, Note_on_c, 0, 57, 45
1, 303740, Control_c, 0, 64, 93
1, 303743, Note_on_c, 0, 47, 37
1, 303755, Control_c, 0, 64, 89
1, 303770, Control_c, 0, 64, 84
1, 303772, Note_on_c, 0, 52, 37
1, 303784, Control_c, 0, 64, 79
1, 303799, Control_c, 0, 64, 74
1, 303814, Control_c, 0, 64, 66
1, 303829, Control_c, 0, 64, 58
1, 303844, Control_c, 0, 64, 47
1, 303859, Control_c, 0, 64, 30
1, 303873, Control_c, 0, 64, 0
1, 304103, Note_on_c, 0, 68, 40
1, 304120, Note_on_c, 0, 56, 32
1, 304175, Note_off_c, 0, 57, 48
1, 304205, Note_off_c, 0, 69, 31
1, 304296, Note_on_c, 0, 54, 39
1, 304300, Note_on_c, 0, 66, 41
1, 304303, Note_off_c, 0, 68, 55
1, 304309, Note_off_c, 0, 56, 36
1, 304557, Note_on_c, 0, 68, 38
1, 304559, Note_off_c, 0, 54, 49
1, 304570, Note_on_c, 0, 56, 36
1, 304577, Note_off_c, 0, 66, 38
1, 304786, Control_c, 0, 64, 31
1, 304800, Control_c, 0, 64, 40
1, 304815, Control_c, 0, 64, 48
1, 304830, Control_c, 0, 64, 56
1, 304845, Control_c, 0, 64, 59
1, 304860, Control_c, 0, 64, 61
1, 304874, Control_c, 0, 64, 63
1, 304889, Control_c, 0, 64, 65
1, 304904, Control_c, 0, 64, 68
1, 304918, Control_c, 0, 64, 72
1, 304933, Control_c, 0, 64, 75
1, 304955, Control_c, 0, 64, 79
1, 304970, Control_c, 0, 64, 84
1, 304972, Note_off_c, 0, 62, 43
1, 304985, Control_c, 0, 64, 88
1, 305000, Control_c, 0, 64, 93
1, 305003, Note_off_c, 0, 68, 60
1, 305015, Control_c, 0, 64, 97
1, 305031, Control_c, 0, 64, 100
1, 305036, Note_off_c, 0, 47, 40
1, 305046, Control_c, 0, 64, 102
1, 305076, Control_c, 0, 64, 105
1, 305083, Note_off_c, 0, 56, 36
1, 305089, Note_off_c, 0, 74, 36
1, 305119, Note_off_c, 0, 52, 35
1, 305446, Control_c, 0, 64, 103
1, 305491, Control_c, 0, 64, 101
1, 305520, Control_c, 0, 64, 99
1, 305549, Control_c, 0, 64, 96
1, 305564, Control_c, 0, 64, 95
1, 305579, Control_c, 0, 64, 94
1, 305586, Note_on_c, 0, 72, 36
1, 305594, Control_c, 0, 64, 92
1, 305596, Note_on_c, 0, 69, 31
1, 305609, Control_c, 0, 64, 90
1, 305612, Note_on_c, 0, 60, 33
1, 305613, Note_on_c, 0, 57, 34
1, 305623, Control_c, 0, 64, 86
1, 305638, Control_c, 0, 64, 80
1, 305653, Control_c, 0, 64, 68
1, 305668, Control_c, 0, 64, 54
1, 305683, Control_c, 0, 64, 0
1, 305698, Note_off_c, 0, 72, 62
1, 305706, Note_off_c, 0, 69, 62
1, 305940, Note_on_c, 0, 81, 61
1, 305964, Note_on_c, 0, 69, 43
1, 306002, Note_off_c, 0, 69, 63
1, 306031, Note_off_c, 0, 81, 63
1, 306269, Note_on_c, 0, 88, 63
1, 306290, Note_on_c, 0, 76, 51
1, 306315, Note_off_c, 0, 57, 59
1, 306329, Note_off_c, 0, 60, 58
1, 306586, Note_on_c, 0, 57, 45
1, 306588, Note_on_c, 0, 69, 44
1, 306592, Note_on_c, 0, 60, 43
1, 306644, Note_off_c, 0, 60, 65
1, 306655, Note_off_c, 0, 69, 61
1, 306665, Note_off_c, 0, 57, 62
1, 306911, Note_on_c, 0, 62, 44
1, 306913, Note_on_c, 0, 59, 50
1, 306919, Note_on_c, 0, 69, 34
1, 307049, Note_off_c, 0, 76, 38
1, 307218, Note_off_c, 0, 88, 57
1, 307219, Note_on_c, 0, 89, 59
1, 307234, Note_on_c, 0, 77, 63
1, 307290, Note_off_c, 0, 89, 62
1, 307305, Note_off_c, 0, 77, 61
1, 307545, Note_on_c, 0, 74, 64
1, 307547, Note_on_c, 0, 86, 62
1, 307625, Note_off_c, 0, 62, 58
1, 307629, Note_off_c, 0, 59, 56
1, 307658, Note_off_c, 0, 69, 56
1, 307832, Note_on_c, 0, 69, 45
1, 307844, Note_on_c, 0, 59, 41
1, 307851, Note_on_c, 0, 62, 36
1, 307895, Note_off_c, 0, 62, 59
1, 307899, Note_off_c, 0, 59, 59
1, 307907, Note_off_c, 0, 69, 55
1, 308152, Note_on_c, 0, 69, 35
1, 308160, Note_on_c, 0, 64, 33
1, 308161, Note_off_c, 0, 74, 34
1, 308166, Note_on_c, 0, 60, 35
1, 308220, Control_c, 0, 64, 29
1, 308234, Control_c, 0, 64, 40
1, 308238, Note_off_c, 0, 86, 61
1, 308249, Control_c, 0, 64, 51
1, 308264, Control_c, 0, 64, 56
1, 308276, Note_on_c, 0, 88, 52
1, 308279, Control_c, 0, 64, 58
1, 308294, Note_on_c, 0, 76, 48
1, 308294, Control_c, 0, 64, 60
1, 308309, Control_c, 0, 64, 61
1, 308311, Note_off_c, 0, 88, 65
1, 308323, Control_c, 0, 64, 62
1, 308336, Note_off_c, 0, 76, 62
1, 308338, Control_c, 0, 64, 63
1, 308353, Control_c, 0, 64, 64
1, 308367, Control_c, 0, 64, 64
1, 308382, Control_c, 0, 64, 65
1, 308412, Control_c, 0, 64, 64
1, 308427, Control_c, 0, 64, 62
1, 308441, Control_c, 0, 64, 56
1, 308456, Control_c, 0, 64, 47
1, 308469, Note_on_c, 0, 84, 61
1, 308471, Control_c, 0, 64, 37
1, 308482, Note_on_c, 0, 72, 51
1, 308486, Control_c, 0, 64, 37
1, 308501, Control_c, 0, 64, 44
1, 308515, Control_c, 0, 64, 55
1, 308530, Control_c, 0, 64, 61
1, 308545, Control_c, 0, 64, 65
1, 308560, Control_c, 0, 64, 68
1, 308574, Control_c, 0, 64, 71
1, 308589, Note_off_c, 0, 69, 57
1, 308589, Control_c, 0, 64, 73
1, 308604, Control_c, 0, 64, 76
1, 308619, Control_c, 0, 64, 77
1, 308624, Note_off_c, 0, 64, 41
1, 308634, Control_c, 0, 64, 79
1, 308638, Note_off_c, 0, 60, 59
1, 308649, Control_c, 0, 64, 80
1, 308674, Note_off_c, 0, 72, 60
1, 308679, Control_c, 0, 64, 80
1, 308701, Control_c, 0, 64, 81
1, 308715, Control_c, 0, 64, 82
1, 308745, Control_c, 0, 64, 81
1, 308760, Control_c, 0, 64, 76
1, 308774, Control_c, 0, 64, 67
1, 308783, Note_on_c, 0, 82, 60
1, 308789, Control_c, 0, 64, 58
1, 308801, Note_on_c, 0, 62, 41
1, 308803, Note_off_c, 0, 84, 39
1, 308804, Control_c, 0, 64, 54
1, 308807, Note_on_c, 0, 65, 41
1, 308819, Control_c, 0, 64, 58
1, 308834, Control_c, 0, 64, 62
1, 308849, Control_c, 0, 64, 65
1, 308863, Control_c, 0, 64, 69
1, 308867, Note_off_c, 0, 82, 60
1, 308878, Note_on_c, 0, 70, 71
1, 308878, Control_c, 0, 64, 72
1, 308893, Control_c, 0, 64, 75
1, 308908, Control_c, 0, 64, 77
1, 308923, Control_c, 0, 64, 79
1, 308938, Control_c, 0, 64, 81
1, 308938, Note_off_c, 0, 65, 49
1, 308942, Note_off_c, 0, 70, 60
1, 308953, Control_c, 0, 64, 84
1, 308967, Control_c, 0, 64, 86
1, 308970, Note_on_c, 0, 82, 74
1, 308982, Control_c, 0, 64, 88
1, 308997, Control_c, 0, 64, 88
1, 309027, Control_c, 0, 64, 86
1, 309042, Control_c, 0, 64, 78
1, 309057, Control_c, 0, 64, 66
1, 309070, Note_on_c, 0, 81, 75
1, 309072, Control_c, 0, 64, 49
1, 309072, Note_on_c, 0, 65, 50
1, 309073, Note_off_c, 0, 82, 57
1, 309087, Control_c, 0, 64, 0
1, 309095, Note_on_c, 0, 63, 53
1, 309108, Note_off_c, 0, 62, 36
1, 309117, Control_c, 0, 64, 28
1, 309132, Control_c, 0, 64, 48
1, 309146, Control_c, 0, 64, 60
1, 309149, Note_off_c, 0, 81, 63
1, 309161, Control_c, 0, 64, 65
1, 309172, Note_on_c, 0, 69, 77
1, 309176, Control_c, 0, 64, 69
1, 309190, Control_c, 0, 64, 73
1, 309205, Note_off_c, 0, 65, 54
1, 309205, Control_c, 0, 64, 76
1, 309220, Control_c, 0, 64, 79
1, 309230, Note_off_c, 0, 69, 61
1, 309235, Control_c, 0, 64, 82
1, 309250, Control_c, 0, 64, 85
1, 309256, Note_on_c, 0, 81, 77
1, 309264, Control_c, 0, 64, 87
1, 309279, Control_c, 0, 64, 88
1, 309368, Note_off_c, 0, 81, 58
1, 309383, Control_c, 0, 64, 87
1, 309397, Control_c, 0, 64, 86
1, 309408, Note_off_c, 0, 63, 51
1, 309410, Note_on_c, 0, 82, 69
1, 309412, Control_c, 0, 64, 81
1, 309427, Note_on_c, 0, 65, 45
1, 309427, Control_c, 0, 64, 72
1, 309441, Note_on_c, 0, 62, 45
1, 309450, Control_c, 0, 64, 61
1, 309451, Note_on_c, 0, 70, 52
1, 309465, Control_c, 0, 64, 44
1, 309479, Control_c, 0, 64, 0
1, 309509, Control_c, 0, 64, 28
1, 309523, Control_c, 0, 64, 47
1, 309538, Control_c, 0, 64, 62
1, 309553, Control_c, 0, 64, 67
1, 309568, Control_c, 0, 64, 72
1, 309583, Control_c, 0, 64, 76
1, 309584, Note_off_c, 0, 70, 61
1, 309595, Note_off_c, 0, 62, 57
1, 309597, Control_c, 0, 64, 79
1, 309599, Note_off_c, 0, 65, 58
1, 309612, Control_c, 0, 64, 82
1, 309627, Control_c, 0, 64, 85
1, 309642, Control_c, 0, 64, 88
1, 309657, Control_c, 0, 64, 89
1, 309671, Control_c, 0, 64, 90
1, 309686, Control_c, 0, 64, 91
1, 309716, Control_c, 0, 64, 90
1, 309731, Control_c, 0, 64, 81
1, 309746, Control_c, 0, 64, 66
1, 309755, Note_on_c, 0, 84, 63
1, 309761, Note_on_c, 0, 62, 39
1, 309761, Control_c, 0, 64, 44
1, 309765, Note_on_c, 0, 65, 46
1, 309766, Note_on_c, 0, 72, 53
1, 309776, Control_c, 0, 64, 0
1, 309780, Note_on_c, 0, 58, 53
1, 309802, Note_off_c, 0, 72, 63
1, 309815, Note_off_c, 0, 82, 47
1, 309820, Control_c, 0, 64, 50
1, 309835, Control_c, 0, 64, 64
1, 309840, Note_off_c, 0, 62, 62
1, 309850, Control_c, 0, 64, 70
1, 309865, Control_c, 0, 64, 74
1, 309878, Note_off_c, 0, 65, 55
1, 309880, Note_off_c, 0, 58, 62
1, 309880, Control_c, 0, 64, 78
1, 309895, Control_c, 0, 64, 82
1, 309910, Note_on_c, 0, 86, 73
1, 309910, Control_c, 0, 64, 86
1, 309911, Note_on_c, 0, 74, 64
1, 309921, Note_off_c, 0, 84, 58
1, 309925, Control_c, 0, 64, 89
1, 309939, Control_c, 0, 64, 93
1, 309949, Note_off_c, 0, 74, 61
1, 309954, Control_c, 0, 64, 97
1, 309969, Control_c, 0, 64, 103
1, 309984, Control_c, 0, 64, 114
1, 309999, Control_c, 0, 64, 127
1, 310013, Control_c, 0, 64, 112
1, 310028, Control_c, 0, 64, 86
1, 310043, Control_c, 0, 64, 63
1, 310058, Control_c, 0, 64, 44
1, 310073, Control_c, 0, 64, 40
1, 310074, Note_on_c, 0, 84, 71
1, 310075, Note_off_c, 0, 86, 60
1, 310084, Note_on_c, 0, 60, 48
1, 310087, Control_c, 0, 64, 51
1, 310088, Note_on_c, 0, 57, 53
1, 310089, Note_on_c, 0, 72, 55
1, 310102, Control_c, 0, 64, 62
1, 310117, Control_c, 0, 64, 70
1, 310124, Note_off_c, 0, 72, 58
1, 310132, Note_off_c, 0, 60, 60
1, 310132, Control_c, 0, 64, 80
1, 310139, Note_off_c, 0, 57, 59
1, 310146, Control_c, 0, 64, 92
1, 310161, Control_c, 0, 64, 100
1, 310162, Note_on_c, 0, 65, 67
1, 310176, Control_c, 0, 64, 112
1, 310199, Control_c, 0, 64, 127
1, 310242, Note_off_c, 0, 65, 56
1, 310258, Note_on_c, 0, 57, 64
1, 310272, Note_on_c, 0, 60, 57
1, 310315, Note_off_c, 0, 57, 64
1, 310317, Control_c, 0, 64, 88
1, 310332, Control_c, 0, 64, 64
1, 310346, Control_c, 0, 64, 45
1, 310348, Note_on_c, 0, 89, 75
1, 310361, Control_c, 0, 64, 50
1, 310363, Note_on_c, 0, 77, 76
1, 310366, Note_on_c, 0, 59, 59
1, 310376, Control_c, 0, 64, 61
1, 310381, Note_off_c, 0, 60, 60
1, 310384, Note_on_c, 0, 56, 68
1, 310384, Note_off_c, 0, 84, 58
1, 310391, Control_c, 0, 64, 71
1, 310403, Note_off_c, 0, 89, 62
1, 310406, Control_c, 0, 64, 85
1, 310420, Control_c, 0, 64, 98
1, 310435, Control_c, 0, 64, 106
1, 310442, Note_off_c, 0, 56, 61
1, 310444, Note_off_c, 0, 59, 57
1, 310450, Control_c, 0, 64, 127
1, 310458, Note_on_c, 0, 65, 71
1, 310485, Note_off_c, 0, 77, 0
1, 310521, Poly_aftertouch_c, 0, 77, 127
1, 310527, Note_off_c, 0, 65, 55
1, 310542, Note_on_c, 0, 59, 62
1, 310551, Note_on_c, 0, 56, 74
1, 310611, Note_off_c, 0, 59, 62
1, 310622, Note_off_c, 0, 56, 61
1, 310629, Control_c, 0, 64, 110
1, 310643, Control_c, 0, 64, 99
1, 310658, Control_c, 0, 64, 92
1, 310673, Control_c, 0, 64, 86
1, 310688, Control_c, 0, 64, 80
1, 310688, Control_c, 0, 67, 114
1, 310690, Poly_aftertouch_c, 0, 77, 0
1, 310700, Note_on_c, 0, 81, 74
1, 310703, Control_c, 0, 64, 74
1, 310703, Control_c, 0, 67, 91
1, 310718, Control_c, 0, 64, 68
1, 310718, Control_c, 0, 67, 65
1, 310727, Note_on_c, 0, 69, 56
1, 310728, Note_on_c, 0, 65, 49
1, 310729, Note_on_c, 0, 57, 55
1, 310732, Control_c, 0, 64, 61
1, 310732, Control_c, 0, 67, 39
1, 310747, Control_c, 0, 64, 47
1, 310747, Control_c, 0, 67, 0
1, 310750, Note_on_c, 0, 60, 49
1, 310762, Control_c, 0, 64, 0
1, 310881, Control_c, 0, 64, 43
1, 310890, Note_off_c, 0, 69, 46
1, 310896, Control_c, 0, 64, 59
1, 310910, Control_c, 0, 64, 67
1, 310925, Control_c, 0, 64, 75
1, 310947, Control_c, 0, 64, 84
1, 310962, Control_c, 0, 64, 94
1, 310977, Control_c, 0, 64, 107
1, 310992, Control_c, 0, 64, 127
1, 311075, Note_off_c, 0, 65, 53
1, 311085, Note_off_c, 0, 60, 56
1, 311117, Note_off_c, 0, 57, 63
1, 311141, Note_off_c, 0, 81, 59
1, 311430, Note_on_c, 0, 86, 76
1, 311453, Note_on_c, 0, 65, 45
1, 311465, Note_on_c, 0, 77, 40
1, 311466, Control_c, 0, 64, 116
1, 311471, Note_on_c, 0, 58, 45
1, 311472, Note_on_c, 0, 62, 43
1, 311472, Note_on_c, 0, 74, 42
1, 311481, Control_c, 0, 64, 101
1, 311496, Control_c, 0, 64, 90
1, 311511, Control_c, 0, 64, 79
1, 311525, Control_c, 0, 64, 68
1, 311526, Note_off_c, 0, 74, 0
1, 311526, Note_on_c, 0, 74, 12
1, 311540, Control_c, 0, 64, 55
1, 311555, Control_c, 0, 64, 29
1, 311570, Control_c, 0, 64, 0
1, 311630, Control_c, 0, 64, 30
1, 311645, Control_c, 0, 64, 52
1, 311659, Control_c, 0, 64, 64
1, 311674, Control_c, 0, 64, 72
1, 311696, Control_c, 0, 64, 81
1, 311710, Control_c, 0, 64, 90
1, 311725, Control_c, 0, 64, 101
1, 311740, Control_c, 0, 64, 123
1, 311755, Control_c, 0, 64, 127
1, 311797, Note_off_c, 0, 86, 63
1, 311835, Note_off_c, 0, 74, 41
1, 311847, Note_off_c, 0, 77, 61
1, 311897, Note_off_c, 0, 62, 62
1, 311927, Note_off_c, 0, 58, 35
1, 311959, Note_off_c, 0, 65, 38
1, 312225, Note_on_c, 0, 82, 57
1, 312240, Note_on_c, 0, 77, 51
1, 312270, Note_on_c, 0, 65, 38
1, 312275, Note_on_c, 0, 55, 38
1, 312283, Note_on_c, 0, 70, 21
1, 312286, Note_on_c, 0, 60, 39
1, 312289, Control_c, 0, 64, 123
1, 312304, Control_c, 0, 64, 108
1, 312319, Control_c, 0, 64, 101
1, 312333, Control_c, 0, 64, 94
1, 312348, Control_c, 0, 64, 88
1, 312363, Control_c, 0, 64, 82
1, 312378, Control_c, 0, 64, 76
1, 312393, Control_c, 0, 64, 67
1, 312408, Control_c, 0, 64, 60
1, 312423, Control_c, 0, 64, 51
1, 312445, Control_c, 0, 64, 42
1, 312460, Control_c, 0, 64, 0
1, 312590, Note_on_c, 0, 76, 48
1, 312616, Note_on_c, 0, 64, 37
1, 312659, Note_off_c, 0, 65, 36
1, 312713, Note_off_c, 0, 77, 35
1, 312748, Note_off_c, 0, 76, 59
1, 312757, Note_on_c, 0, 74, 49
1, 312762, Note_off_c, 0, 64, 57
1, 312786, Note_on_c, 0, 62, 36
1, 312969, Note_off_c, 0, 62, 37
1, 312992, Note_off_c, 0, 74, 46
1, 313001, Note_on_c, 0, 76, 38
1, 313005, Note_on_c, 0, 64, 39
1, 313038, Control_c, 0, 64, 36
1, 313053, Control_c, 0, 64, 51
1, 313068, Control_c, 0, 64, 58
1, 313083, Control_c, 0, 64, 61
1, 313098, Control_c, 0, 64, 64
1, 313112, Control_c, 0, 64, 67
1, 313127, Control_c, 0, 64, 71
1, 313142, Control_c, 0, 64, 78
1, 313156, Control_c, 0, 64, 85
1, 313171, Control_c, 0, 64, 93
1, 313194, Control_c, 0, 64, 102
1, 313209, Control_c, 0, 64, 127
1, 313317, Note_off_c, 0, 60, 35
1, 313355, Note_off_c, 0, 55, 41
1, 313368, Note_off_c, 0, 82, 61
1, 313382, Note_off_c, 0, 70, 53
1, 313383, Note_off_c, 0, 64, 64
1, 313401, Control_c, 0, 67, 43
1, 313416, Control_c, 0, 67, 64
1, 313427, Note_off_c, 0, 76, 42
1, 313430, Control_c, 0, 67, 87
1, 313445, Control_c, 0, 67, 105
1, 313460, Control_c, 0, 67, 127
1, 313782, Note_on_c, 0, 81, 50
1, 313815, Note_on_c, 0, 77, 37
1, 313823, Note_on_c, 0, 65, 35
1, 313824, Note_on_c, 0, 53, 39
1, 313832, Control_c, 0, 64, 103
1, 313834, Note_on_c, 0, 60, 37
1, 313843, Note_on_c, 0, 69, 19
1, 313847, Control_c, 0, 64, 83
1, 313861, Control_c, 0, 64, 67
1, 313876, Control_c, 0, 64, 55
1, 313890, Note_off_c, 0, 81, 55
1, 313891, Control_c, 0, 64, 51
1, 313899, Note_off_c, 0, 77, 57
1, 313905, Control_c, 0, 64, 54
1, 313920, Control_c, 0, 64, 60
1, 313943, Control_c, 0, 64, 64
1, 313945, Note_on_c, 0, 72, 51
1, 313958, Control_c, 0, 64, 69
1, 313973, Control_c, 0, 64, 77
1, 313985, Note_off_c, 0, 69, 44
1, 313987, Control_c, 0, 64, 81
1, 314002, Control_c, 0, 64, 83
1, 314007, Note_off_c, 0, 72, 51
1, 314014, Note_off_c, 0, 65, 57
1, 314017, Control_c, 0, 64, 84
1, 314028, Note_on_c, 0, 77, 63
1, 314032, Control_c, 0, 64, 86
1, 314041, Note_off_c, 0, 60, 61
1, 314047, Control_c, 0, 64, 88
1, 314061, Control_c, 0, 64, 89
1, 314076, Control_c, 0, 64, 90
1, 314091, Control_c, 0, 64, 91
1, 314100, Note_off_c, 0, 53, 45
1, 314106, Control_c, 0, 64, 92
1, 314110, Note_off_c, 0, 77, 62
1, 314125, Note_on_c, 0, 72, 59
1, 314135, Control_c, 0, 64, 92
1, 314196, Note_off_c, 0, 72, 61
1, 314214, Note_on_c, 0, 69, 61
1, 314298, Note_on_c, 0, 65, 60
1, 314301, Note_off_c, 0, 69, 58
1, 314327, Control_c, 0, 64, 92
1, 314331, Note_off_c, 0, 65, 62
1, 314396, Note_on_c, 0, 60, 48
1, 314402, Control_c, 0, 64, 91
1, 314417, Control_c, 0, 64, 91
1, 314431, Control_c, 0, 64, 90
1, 314445, Note_off_c, 0, 60, 63
1, 314446, Control_c, 0, 64, 90
1, 314461, Control_c, 0, 64, 89
1, 314476, Control_c, 0, 64, 89
1, 314481, Note_on_c, 0, 57, 54
1, 314491, Control_c, 0, 64, 88
1, 314505, Control_c, 0, 64, 88
1, 314520, Control_c, 0, 64, 87
1, 314535, Control_c, 0, 64, 87
1, 314550, Control_c, 0, 64, 86
1, 314561, Note_off_c, 0, 57, 57
1, 314565, Control_c, 0, 64, 85
1, 314573, Note_on_c, 0, 53, 61
1, 314579, Control_c, 0, 64, 85
1, 314610, Control_c, 0, 64, 84
1, 314620, Note_off_c, 0, 53, 56
1, 314640, Control_c, 0, 64, 84
1, 314655, Control_c, 0, 64, 83
1, 314663, Note_on_c, 0, 48, 69
1, 314670, Control_c, 0, 64, 83
1, 314706, Control_c, 0, 64, 82
1, 314721, Control_c, 0, 64, 81
1, 314736, Control_c, 0, 64, 80
1, 314739, Note_off_c, 0, 48, 58
1, 314751, Control_c, 0, 64, 79
1, 314765, Control_c, 0, 64, 78
1, 314770, Note_on_c, 0, 45, 62
1, 314780, Control_c, 0, 64, 76
1, 314795, Control_c, 0, 64, 74
1, 314809, Control_c, 0, 64, 72
1, 314817, Note_off_c, 0, 45, 54
1, 314824, Control_c, 0, 64, 70
1, 314839, Control_c, 0, 64, 67
1, 314854, Control_c, 0, 64, 65
1, 314862, Note_on_c, 0, 41, 56
1, 314869, Control_c, 0, 64, 64
1, 314883, Control_c, 0, 64, 63
1, 314898, Control_c, 0, 64, 61
1, 314913, Control_c, 0, 64, 60
1, 314928, Control_c, 0, 64, 60
1, 314942, Control_c, 0, 64, 59
1, 314945, Note_off_c, 0, 41, 60
1, 314957, Control_c, 0, 64, 58
1, 314972, Control_c, 0, 64, 54
1, 314977, Note_on_c, 0, 29, 60
1, 314987, Control_c, 0, 64, 39
1, 315002, Control_c, 0, 64, 0
1, 315051, Note_off_c, 0, 29, 63
1, 315301, Note_on_c, 0, 72, 65
1, 315308, Note_on_c, 0, 65, 48
1, 315311, Note_on_c, 0, 57, 55
1, 315314, Note_on_c, 0, 53, 50
1, 315315, Note_on_c, 0, 60, 52
1, 315367, Note_off_c, 0, 65, 59
1, 315380, Note_off_c, 0, 53, 63
1, 315382, Note_off_c, 0, 57, 65
1, 315400, Note_off_c, 0, 60, 58
1, 315414, Note_off_c, 0, 72, 60
1, 315720, Note_on_c, 0, 72, 42
1, 315738, Note_on_c, 0, 58, 57
1, 315741, Note_on_c, 0, 60, 20
1, 315766, Note_on_c, 0, 67, 3
1, 315790, Poly_aftertouch_c, 0, 64, 127
1, 315800, Note_on_c, 0, 53, 29
1, 315913, Control_c, 0, 64, 29
1, 315928, Control_c, 0, 64, 39
1, 315943, Control_c, 0, 64, 49
1, 315958, Control_c, 0, 64, 56
1, 315973, Control_c, 0, 64, 60
1, 315988, Control_c, 0, 64, 62
1, 316003, Control_c, 0, 64, 64
1, 316018, Control_c, 0, 64, 66
1, 316032, Control_c, 0, 64, 69
1, 316042, Note_off_c, 0, 60, 55
1, 316047, Control_c, 0, 64, 71
1, 316062, Control_c, 0, 64, 75
1, 316076, Control_c, 0, 64, 77
1, 316091, Control_c, 0, 64, 81
1, 316102, Note_off_c, 0, 67, 43
1, 316106, Control_c, 0, 64, 84
1, 316119, Poly_aftertouch_c, 0, 64, 0
1, 316121, Control_c, 0, 64, 87
1, 316136, Control_c, 0, 64, 90
1, 316150, Control_c, 0, 64, 92
1, 316161, Note_off_c, 0, 72, 62
1, 316165, Control_c, 0, 64, 93
1, 316188, Control_c, 0, 64, 94
1, 316203, Control_c, 0, 64, 95
1, 316218, Control_c, 0, 64, 95
1, 316330, Note_off_c, 0, 58, 38
1, 316435, Note_on_c, 0, 72, 47
1, 316441, Control_c, 0, 64, 95
1, 316464, Note_on_c, 0, 57, 39
1, 316470, Control_c, 0, 64, 94
1, 316485, Control_c, 0, 64, 93
1, 316500, Control_c, 0, 64, 92
1, 316514, Control_c, 0, 64, 88
1, 316529, Control_c, 0, 64, 82
1, 316535, Note_off_c, 0, 72, 54
1, 316544, Control_c, 0, 64, 72
1, 316549, Note_on_c, 0, 77, 60
1, 316559, Control_c, 0, 64, 61
1, 316574, Control_c, 0, 64, 44
1, 316588, Control_c, 0, 64, 28
1, 316603, Control_c, 0, 64, 0
1, 316618, Control_c, 0, 64, 30
1, 316624, Note_off_c, 0, 77, 64
1, 316633, Control_c, 0, 64, 39
1, 316641, Note_on_c, 0, 81, 63
1, 316648, Control_c, 0, 64, 48
1, 316662, Control_c, 0, 64, 58
1, 316677, Control_c, 0, 64, 63
1, 316692, Control_c, 0, 64, 66
1, 316706, Control_c, 0, 64, 69
1, 316719, Note_off_c, 0, 57, 61
1, 316721, Control_c, 0, 64, 70
1, 316723, Note_off_c, 0, 81, 63
1, 316730, Note_on_c, 0, 77, 72
1, 316736, Control_c, 0, 64, 73
1, 316751, Control_c, 0, 64, 75
1, 316766, Control_c, 0, 64, 78
1, 316781, Control_c, 0, 64, 79
1, 316796, Control_c, 0, 64, 80
1, 316803, Note_off_c, 0, 77, 63
1, 316811, Control_c, 0, 64, 80
1, 316820, Note_on_c, 0, 72, 68
1, 316820, Note_off_c, 0, 53, 37
1, 316825, Control_c, 0, 64, 81
1, 316855, Control_c, 0, 64, 81
1, 316904, Note_on_c, 0, 69, 70
1, 316908, Note_off_c, 0, 72, 60
1, 316938, Note_off_c, 0, 69, 66
1, 317008, Note_on_c, 0, 65, 57
1, 317026, Control_c, 0, 64, 81
1, 317047, Note_off_c, 0, 65, 62
1, 317056, Control_c, 0, 64, 80
1, 317071, Control_c, 0, 64, 80
1, 317085, Control_c, 0, 64, 79
1, 317088, Note_on_c, 0, 60, 64
1, 317100, Control_c, 0, 64, 78
1, 317115, Control_c, 0, 64, 78
1, 317130, Control_c, 0, 64, 77
1, 317144, Control_c, 0, 64, 76
1, 317159, Control_c, 0, 64, 75
1, 317163, Note_off_c, 0, 60, 61
1, 317174, Control_c, 0, 64, 74
1, 317182, Note_on_c, 0, 57, 61
1, 317189, Control_c, 0, 64, 73
1, 317204, Control_c, 0, 64, 72
1, 317219, Control_c, 0, 64, 70
1, 317234, Control_c, 0, 64, 68
1, 317240, Note_off_c, 0, 57, 62
1, 317249, Control_c, 0, 64, 67
1, 317253, Note_on_c, 0, 53, 58
1, 317262, Note_on_c, 0, 48, 69
1, 317264, Control_c, 0, 64, 66
1, 317278, Control_c, 0, 64, 64
1, 317286, Note_off_c, 0, 53, 64
1, 317293, Control_c, 0, 64, 62
1, 317308, Control_c, 0, 64, 61
1, 317322, Control_c, 0, 64, 59
1, 317331, Note_off_c, 0, 48, 61
1, 317337, Control_c, 0, 64, 58
1, 317348, Note_on_c, 0, 45, 66
1, 317352, Control_c, 0, 64, 56
1, 317367, Control_c, 0, 64, 53
1, 317382, Control_c, 0, 64, 49
1, 317397, Control_c, 0, 64, 44
1, 317411, Note_off_c, 0, 45, 52
1, 317411, Control_c, 0, 64, 37
1, 317426, Control_c, 0, 64, 0
1, 317448, Note_on_c, 0, 41, 52
1, 317488, Note_off_c, 0, 41, 62
1, 317563, Note_on_c, 0, 29, 66
1, 317617, Note_off_c, 0, 29, 62
1, 317895, Note_on_c, 0, 77, 76
1, 317908, Note_on_c, 0, 60, 50
1, 317908, Control_c, 0, 67, 73
1, 317918, Note_on_c, 0, 72, 52
1, 317920, Note_on_c, 0, 57, 39
1, 317923, Note_on_c, 0, 65, 48
1, 317923, Control_c, 0, 67, 0
1, 317924, Note_on_c, 0, 53, 37
1, 317965, Note_off_c, 0, 65, 48
1, 317967, Note_off_c, 0, 57, 62
1, 317974, Note_off_c, 0, 53, 58
1, 317979, Note_off_c, 0, 60, 64
1, 317982, Note_off_c, 0, 72, 62
1, 318014, Note_off_c, 0, 77, 62
1, 318280, Note_on_c, 0, 79, 65
1, 318292, Note_on_c, 0, 76, 57
1, 318312, Note_on_c, 0, 58, 30
1, 318319, Note_on_c, 0, 60, 39
1, 318323, Note_on_c, 0, 53, 39
1, 318325, Note_on_c, 0, 67, 43
1, 318327, Note_on_c, 0, 72, 35
1, 318382, Control_c, 0, 64, 28
1, 318397, Control_c, 0, 64, 45
1, 318412, Control_c, 0, 64, 56
1, 318434, Control_c, 0, 64, 59
1, 318449, Control_c, 0, 64, 60
1, 318464, Control_c, 0, 64, 62
1, 318478, Control_c, 0, 64, 64
1, 318493, Control_c, 0, 64, 69
1, 318508, Control_c, 0, 64, 74
1, 318523, Control_c, 0, 64, 78
1, 318538, Control_c, 0, 64, 81
1, 318552, Control_c, 0, 64, 85
1, 318567, Control_c, 0, 64, 91
1, 318582, Control_c, 0, 64, 98
1, 318597, Control_c, 0, 64, 107
1, 318613, Control_c, 0, 64, 127
1, 318632, Note_off_c, 0, 76, 60
1, 318665, Note_off_c, 0, 72, 40
1, 318674, Note_off_c, 0, 60, 61
1, 318710, Note_off_c, 0, 58, 54
1, 318719, Note_off_c, 0, 67, 59
1, 318720, Note_off_c, 0, 53, 58
1, 318788, Note_off_c, 0, 79, 55
1, 318969, Note_on_c, 0, 77, 52
1, 318981, Note_on_c, 0, 72, 45
1, 318986, Note_on_c, 0, 65, 43
1, 318998, Control_c, 0, 64, 92
1, 319000, Note_on_c, 0, 53, 44
1, 319013, Control_c, 0, 64, 70
1, 319028, Control_c, 0, 64, 57
1, 319042, Control_c, 0, 64, 53
1, 319042, Control_c, 0, 67, 43
1, 319057, Control_c, 0, 64, 56
1, 319057, Control_c, 0, 67, 63
1, 319072, Control_c, 0, 64, 61
1, 319072, Control_c, 0, 67, 80
1, 319081, Note_on_c, 0, 57, 55
1, 319087, Control_c, 0, 64, 65
1, 319087, Control_c, 0, 67, 100
1, 319092, Note_off_c, 0, 53, 54
1, 319101, Control_c, 0, 64, 70
1, 319101, Control_c, 0, 67, 116
1, 319116, Control_c, 0, 64, 77
1, 319116, Control_c, 0, 67, 127
1, 319131, Control_c, 0, 64, 81
1, 319146, Control_c, 0, 64, 83
1, 319155, Note_off_c, 0, 57, 64
1, 319161, Control_c, 0, 64, 84
1, 319167, Note_on_c, 0, 60, 57
1, 319183, Control_c, 0, 64, 86
1, 319198, Control_c, 0, 64, 88
1, 319213, Control_c, 0, 64, 89
1, 319225, Note_off_c, 0, 65, 35
1, 319227, Control_c, 0, 64, 90
1, 319257, Control_c, 0, 64, 91
1, 319267, Note_on_c, 0, 57, 66
1, 319272, Control_c, 0, 64, 91
1, 319302, Note_off_c, 0, 72, 26
1, 319306, Note_off_c, 0, 60, 36
1, 319323, Note_off_c, 0, 77, 36
1, 319357, Note_on_c, 0, 53, 71
1, 319374, Note_off_c, 0, 57, 59
1, 319467, Note_off_c, 0, 53, 63
1, 319472, Note_on_c, 0, 48, 71
1, 319495, Control_c, 0, 64, 92
1, 319514, Note_off_c, 0, 48, 61
1, 319539, Control_c, 0, 64, 85
1, 319554, Control_c, 0, 64, 72
1, 319559, Note_on_c, 0, 53, 75
1, 319569, Control_c, 0, 64, 59
1, 319584, Control_c, 0, 64, 52
1, 319598, Control_c, 0, 64, 55
1, 319613, Control_c, 0, 64, 60
1, 319628, Control_c, 0, 64, 67
1, 319643, Control_c, 0, 64, 75
1, 319650, Note_on_c, 0, 48, 74
1, 319657, Control_c, 0, 64, 84
1, 319669, Note_off_c, 0, 53, 60
1, 319672, Control_c, 0, 64, 88
1, 319687, Control_c, 0, 64, 91
1, 319702, Control_c, 0, 64, 95
1, 319717, Control_c, 0, 64, 98
1, 319732, Control_c, 0, 64, 100
1, 319736, Note_on_c, 0, 45, 72
1, 319736, Note_off_c, 0, 48, 63
1, 319768, Note_off_c, 0, 45, 68
1, 319831, Note_on_c, 0, 41, 70
1, 319929, Note_on_c, 0, 36, 75
1, 319932, Control_c, 0, 64, 98
1, 319943, Note_off_c, 0, 41, 53
1, 319961, Control_c, 0, 64, 95
1, 319976, Control_c, 0, 64, 93
1, 319991, Control_c, 0, 64, 92
1, 320006, Control_c, 0, 64, 90
1, 320009, Note_on_c, 0, 33, 76
1, 320013, Note_off_c, 0, 36, 61
1, 320021, Control_c, 0, 64, 88
1, 320036, Control_c, 0, 64, 85
1, 320050, Control_c, 0, 64, 82
1, 320065, Control_c, 0, 64, 79
1, 320080, Control_c, 0, 64, 76
1, 320095, Control_c, 0, 64, 73
1, 320110, Control_c, 0, 64, 70
1, 320124, Control_c, 0, 64, 67
1, 320132, Note_off_c, 0, 33, 61
1, 320136, Note_on_c, 0, 77, 69
1, 320139, Control_c, 0, 64, 62
1, 320141, Note_on_c, 0, 29, 71
1, 320154, Control_c, 0, 64, 59
1, 320169, Control_c, 0, 64, 56
1, 320184, Control_c, 0, 64, 51
1, 320200, Control_c, 0, 64, 43
1, 320215, Control_c, 0, 64, 0
1, 320231, Note_off_c, 0, 77, 64
1, 320233, Note_on_c, 0, 81, 73
1, 320288, Control_c, 0, 64, 31
1, 320288, Control_c, 0, 67, 119
1, 320303, Control_c, 0, 64, 44
1, 320303, Control_c, 0, 67, 95
1, 320318, Control_c, 0, 64, 55
1, 320318, Control_c, 0, 67, 62
1, 320319, Note_on_c, 0, 84, 73
1, 320328, Note_off_c, 0, 81, 63
1, 320333, Control_c, 0, 64, 63
1, 320333, Control_c, 0, 67, 0
1, 320347, Control_c, 0, 64, 67
1, 320362, Control_c, 0, 64, 69
1, 320377, Control_c, 0, 64, 72
1, 320392, Note_off_c, 0, 29, 59
1, 320392, Control_c, 0, 64, 77
1, 320407, Control_c, 0, 64, 84
1, 320411, Note_on_c, 0, 81, 83
1, 320421, Control_c, 0, 64, 87
1, 320422, Note_off_c, 0, 84, 62
1, 320436, Control_c, 0, 64, 88
1, 320480, Control_c, 0, 64, 88
1, 320486, Note_on_c, 0, 77, 83
1, 320499, Note_off_c, 0, 81, 63
1, 320540, Control_c, 0, 64, 88
1, 320566, Note_off_c, 0, 77, 66
1, 320569, Control_c, 0, 64, 87
1, 320571, Note_on_c, 0, 72, 86
1, 320584, Control_c, 0, 64, 85
1, 320599, Control_c, 0, 64, 83
1, 320614, Control_c, 0, 64, 80
1, 320629, Control_c, 0, 64, 76
1, 320644, Control_c, 0, 64, 72
1, 320659, Control_c, 0, 64, 69
1, 320661, Note_on_c, 0, 77, 89
1, 320680, Note_off_c, 0, 72, 62
1, 320680, Control_c, 0, 64, 66
1, 320695, Control_c, 0, 64, 64
1, 320710, Control_c, 0, 64, 62
1, 320725, Control_c, 0, 64, 61
1, 320740, Control_c, 0, 64, 59
1, 320754, Control_c, 0, 64, 58
1, 320757, Note_on_c, 0, 72, 85
1, 320769, Control_c, 0, 64, 56
1, 320780, Note_off_c, 0, 77, 63
1, 320784, Control_c, 0, 64, 55
1, 320799, Control_c, 0, 64, 54
1, 320814, Control_c, 0, 64, 54
1, 320844, Control_c, 0, 64, 53
1, 320844, Note_on_c, 0, 69, 89
1, 320859, Control_c, 0, 64, 51
1, 320873, Control_c, 0, 64, 49
1, 320878, Note_off_c, 0, 72, 61
1, 320888, Control_c, 0, 64, 47
1, 320933, Note_off_c, 0, 69, 60
1, 320935, Note_on_c, 0, 65, 82
1, 320947, Control_c, 0, 64, 47
1, 320962, Control_c, 0, 64, 46
1, 321026, Note_on_c, 0, 60, 80
1, 321062, Note_off_c, 0, 65, 57
1, 321109, Note_on_c, 0, 57, 82
1, 321138, Note_off_c, 0, 60, 63
1, 321219, Note_on_c, 0, 53, 84
1, 321237, Note_off_c, 0, 57, 63
1, 321303, Control_c, 0, 64, 47
1, 321325, Note_off_c, 0, 53, 60
1, 321333, Control_c, 0, 64, 47
1, 321377, Control_c, 0, 64, 48
1, 321407, Control_c, 0, 64, 48
1, 321504, Control_c, 0, 64, 47
1, 321519, Control_c, 0, 64, 45
1, 321524, Note_on_c, 0, 65, 83
1, 321527, Note_on_c, 0, 53, 73
1, 321529, Note_on_c, 0, 57, 75
1, 321534, Control_c, 0, 64, 40
1, 321549, Control_c, 0, 64, 37
1, 321562, Note_off_c, 0, 53, 66
1, 321562, Note_off_c, 0, 57, 66
1, 321564, Note_off_c, 0, 65, 64
1, 321564, Control_c, 0, 64, 36
1, 321637, Control_c, 0, 64, 37
1, 321711, Control_c, 0, 64, 37
1, 321726, Control_c, 0, 64, 38
1, 321756, Control_c, 0, 64, 38
1, 321771, Control_c, 0, 64, 39
1, 321839, Note_on_c, 0, 65, 93
1, 321840, Note_on_c, 0, 58, 85
1, 321844, Note_on_c, 0, 54, 83
1, 322039, Control_c, 0, 64, 39
1, 322127, Note_on_c, 0, 77, 87
1, 322158, Note_off_c, 0, 77, 67
1, 322371, Control_c, 0, 64, 38
1, 322386, Control_c, 0, 64, 29
1, 322400, Control_c, 0, 64, 0
1, 322442, Note_on_c, 0, 82, 90
1, 322458, Note_on_c, 0, 70, 71
1, 322489, Control_c, 0, 64, 43
1, 322504, Control_c, 0, 64, 56
1, 322519, Control_c, 0, 64, 62
1, 322534, Control_c, 0, 64, 64
1, 322537, Note_off_c, 0, 58, 59
1, 322538, Note_off_c, 0, 54, 60
1, 322544, Note_off_c, 0, 65, 58
1, 322549, Control_c, 0, 64, 66
1, 322564, Control_c, 0, 64, 67
1, 322579, Control_c, 0, 64, 70
1, 322594, Control_c, 0, 64, 74
1, 322609, Control_c, 0, 64, 77
1, 322623, Control_c, 0, 64, 78
1, 322638, Control_c, 0, 64, 79
1, 322653, Control_c, 0, 64, 80
1, 322668, Control_c, 0, 64, 82
1, 322698, Control_c, 0, 64, 78
1, 322699, Note_off_c, 0, 70, 62
1, 322713, Control_c, 0, 64, 66
1, 322728, Control_c, 0, 64, 49
1, 322737, Note_on_c, 0, 65, 75
1, 322739, Note_on_c, 0, 61, 68
1, 322741, Note_on_c, 0, 55, 68
1, 322742, Control_c, 0, 64, 32
1, 322757, Control_c, 0, 64, 37
1, 322772, Control_c, 0, 64, 50
1, 322786, Note_off_c, 0, 82, 54
1, 322787, Control_c, 0, 64, 62
1, 322802, Control_c, 0, 64, 69
1, 322814, Note_off_c, 0, 61, 60
1, 322816, Control_c, 0, 64, 76
1, 322830, Note_off_c, 0, 65, 52
1, 322831, Control_c, 0, 64, 81
1, 322846, Control_c, 0, 64, 84
1, 322860, Control_c, 0, 64, 89
1, 322875, Control_c, 0, 64, 94
1, 322890, Control_c, 0, 64, 98
1, 322972, Control_c, 0, 64, 101
1, 323002, Control_c, 0, 64, 91
1, 323017, Control_c, 0, 64, 74
1, 323028, Note_on_c, 0, 80, 76
1, 323031, Control_c, 0, 64, 58
1, 323039, Note_on_c, 0, 65, 64
1, 323043, Note_on_c, 0, 56, 62
1, 323043, Note_on_c, 0, 61, 63
1, 323046, Control_c, 0, 64, 37
1, 323061, Control_c, 0, 64, 0
1, 323070, Note_off_c, 0, 55, 56
1, 323075, Control_c, 0, 64, 36
1, 323090, Control_c, 0, 64, 54
1, 323105, Control_c, 0, 64, 66
1, 323112, Note_off_c, 0, 65, 58
1, 323115, Note_off_c, 0, 80, 62
1, 323120, Control_c, 0, 64, 72
1, 323121, Note_on_c, 0, 82, 77
1, 323135, Control_c, 0, 64, 76
1, 323149, Control_c, 0, 64, 80
1, 323152, Note_off_c, 0, 56, 61
1, 323162, Note_off_c, 0, 61, 58
1, 323164, Control_c, 0, 64, 83
1, 323179, Control_c, 0, 64, 88
1, 323193, Control_c, 0, 64, 92
1, 323206, Note_on_c, 0, 80, 83
1, 323208, Control_c, 0, 64, 97
1, 323223, Control_c, 0, 64, 101
1, 323237, Note_off_c, 0, 82, 60
1, 323238, Control_c, 0, 64, 110
1, 323253, Control_c, 0, 64, 127
1, 323282, Control_c, 0, 64, 102
1, 323297, Control_c, 0, 64, 71
1, 323300, Note_on_c, 0, 78, 83
1, 323303, Note_off_c, 0, 80, 60
1, 323307, Note_on_c, 0, 60, 58
1, 323307, Note_on_c, 0, 63, 72
1, 323312, Control_c, 0, 64, 46
1, 323318, Note_on_c, 0, 56, 60
1, 323327, Control_c, 0, 64, 0
1, 323372, Control_c, 0, 64, 49
1, 323386, Note_off_c, 0, 78, 55
1, 323386, Control_c, 0, 64, 61
1, 323396, Note_on_c, 0, 80, 80
1, 323402, Control_c, 0, 64, 66
1, 323406, Note_off_c, 0, 63, 62
1, 323417, Control_c, 0, 64, 69
1, 323432, Control_c, 0, 64, 73
1, 323446, Control_c, 0, 64, 77
1, 323461, Control_c, 0, 64, 83
1, 323476, Control_c, 0, 64, 89
1, 323479, Note_on_c, 0, 78, 83
1, 323487, Note_off_c, 0, 80, 62
1, 323491, Control_c, 0, 64, 92
1, 323506, Control_c, 0, 64, 94
1, 323532, Note_off_c, 0, 60, 37
1, 323535, Control_c, 0, 64, 92
1, 323550, Control_c, 0, 64, 83
1, 323560, Note_off_c, 0, 56, 58
1, 323565, Control_c, 0, 64, 68
1, 323580, Control_c, 0, 64, 48
1, 323595, Control_c, 0, 64, 0
1, 323611, Note_on_c, 0, 77, 73
1, 323619, Note_on_c, 0, 65, 60
1, 323631, Note_on_c, 0, 61, 54
1, 323654, Control_c, 0, 64, 37
1, 323659, Note_off_c, 0, 78, 52
1, 323676, Note_off_c, 0, 65, 63
1, 323676, Control_c, 0, 64, 51
1, 323685, Note_off_c, 0, 61, 63
1, 323690, Control_c, 0, 64, 61
1, 323705, Control_c, 0, 64, 72
1, 323720, Control_c, 0, 64, 89
1, 323735, Control_c, 0, 64, 127
1, 323771, Note_off_c, 0, 77, 64
1, 323780, Control_c, 0, 64, 98
1, 323795, Control_c, 0, 64, 75
1, 323810, Control_c, 0, 64, 52
1, 323824, Control_c, 0, 64, 0
1, 323932, Note_on_c, 0, 61, 49
1, 323934, Note_on_c, 0, 49, 51
1, 323947, Note_on_c, 0, 53, 41
1, 324000, Note_off_c, 0, 53, 63
1, 324003, Note_off_c, 0, 61, 59
1, 324012, Note_off_c, 0, 49, 56
1, 324267, Note_on_c, 0, 61, 41
1, 324269, Note_on_c, 0, 50, 46
1, 324280, Note_on_c, 0, 54, 38
1, 324592, Note_on_c, 0, 73, 47
1, 324640, Note_off_c, 0, 73, 59
1, 324870, Control_c, 0, 64, 32
1, 324885, Control_c, 0, 64, 48
1, 324895, Note_on_c, 0, 78, 59
1, 324900, Control_c, 0, 64, 59
1, 324901, Note_off_c, 0, 54, 62
1, 324914, Control_c, 0, 64, 63
1, 324925, Note_on_c, 0, 66, 42
1, 324929, Control_c, 0, 64, 66
1, 324944, Control_c, 0, 64, 69
1, 324959, Control_c, 0, 64, 72
1, 324960, Note_off_c, 0, 50, 40
1, 324973, Control_c, 0, 64, 74
1, 324985, Note_off_c, 0, 61, 36
1, 324990, Control_c, 0, 64, 76
1, 325005, Control_c, 0, 64, 78
1, 325019, Control_c, 0, 64, 80
1, 325034, Control_c, 0, 64, 82
1, 325049, Control_c, 0, 64, 85
1, 325063, Control_c, 0, 64, 89
1, 325078, Control_c, 0, 64, 93
1, 325093, Control_c, 0, 64, 94
1, 325108, Control_c, 0, 64, 93
1, 325116, Note_off_c, 0, 66, 52
1, 325123, Control_c, 0, 64, 87
1, 325137, Control_c, 0, 64, 74
1, 325152, Control_c, 0, 64, 62
1, 325175, Control_c, 0, 64, 53
1, 325181, Note_on_c, 0, 57, 40
1, 325190, Control_c, 0, 64, 53
1, 325196, Note_on_c, 0, 61, 42
1, 325197, Note_on_c, 0, 51, 48
1, 325205, Control_c, 0, 64, 58
1, 325219, Control_c, 0, 64, 63
1, 325234, Control_c, 0, 64, 67
1, 325241, Note_off_c, 0, 78, 58
1, 325249, Control_c, 0, 64, 73
1, 325264, Control_c, 0, 64, 77
1, 325274, Note_off_c, 0, 57, 60
1, 325278, Control_c, 0, 64, 79
1, 325293, Control_c, 0, 64, 81
1, 325298, Note_off_c, 0, 61, 55
1, 325308, Control_c, 0, 64, 83
1, 325323, Control_c, 0, 64, 85
1, 325338, Control_c, 0, 64, 87
1, 325367, Control_c, 0, 64, 87
1, 325389, Note_off_c, 0, 51, 37
1, 325397, Control_c, 0, 64, 88
1, 325456, Control_c, 0, 64, 87
1, 325470, Control_c, 0, 64, 85
1, 325485, Control_c, 0, 64, 75
1, 325499, Note_on_c, 0, 76, 63
1, 325500, Control_c, 0, 64, 61
1, 325513, Note_on_c, 0, 61, 51
1, 325515, Control_c, 0, 64, 41
1, 325523, Note_on_c, 0, 52, 49
1, 325524, Note_on_c, 0, 57, 38
1, 325530, Control_c, 0, 64, 0
1, 325560, Control_c, 0, 64, 38
1, 325565, Note_off_c, 0, 76, 62
1, 325574, Control_c, 0, 64, 53
1, 325589, Control_c, 0, 64, 62
1, 325598, Note_on_c, 0, 78, 65
1, 325604, Control_c, 0, 64, 66
1, 325616, Note_off_c, 0, 52, 58
1, 325619, Control_c, 0, 64, 71
1, 325634, Control_c, 0, 64, 75
1, 325649, Control_c, 0, 64, 81
1, 325663, Control_c, 0, 64, 86
1, 325678, Control_c, 0, 64, 90
1, 325685, Note_on_c, 0, 76, 67
1, 325693, Control_c, 0, 64, 91
1, 325694, Note_off_c, 0, 61, 36
1, 325700, Note_off_c, 0, 78, 57
1, 325705, Note_off_c, 0, 57, 37
1, 325752, Note_off_c, 0, 76, 62
1, 325776, Note_on_c, 0, 74, 75
1, 325782, Control_c, 0, 64, 91
1, 325783, Note_on_c, 0, 59, 64
1, 325798, Control_c, 0, 64, 90
1, 325813, Control_c, 0, 64, 90
1, 325822, Note_on_c, 0, 52, 39
1, 325828, Control_c, 0, 64, 89
1, 325829, Note_off_c, 0, 74, 58
1, 325857, Control_c, 0, 64, 89
1, 325865, Note_off_c, 0, 59, 60
1, 325867, Note_on_c, 0, 76, 75
1, 325886, Control_c, 0, 64, 88
1, 325923, Control_c, 0, 64, 88
1, 325938, Control_c, 0, 64, 87
1, 325953, Control_c, 0, 64, 87
1, 325956, Note_off_c, 0, 76, 59
1, 325968, Control_c, 0, 64, 86
1, 325970, Note_on_c, 0, 74, 72
1, 325983, Control_c, 0, 64, 85
1, 326003, Note_off_c, 0, 52, 36
1, 326056, Control_c, 0, 64, 84
1, 326071, Control_c, 0, 64, 80
1, 326077, Note_off_c, 0, 74, 59
1, 326086, Note_on_c, 0, 73, 66
1, 326086, Control_c, 0, 64, 71
1, 326092, Note_on_c, 0, 57, 66
1, 326100, Control_c, 0, 64, 59
1, 326115, Note_off_c, 0, 73, 62
1, 326115, Control_c, 0, 64, 38
1, 326130, Control_c, 0, 64, 0
1, 326367, Note_on_c, 0, 81, 89
1, 326370, Note_on_c, 0, 69, 85
1, 326372, Note_on_c, 0, 73, 86
1, 326372, Note_off_c, 0, 57, 64
1, 326392, Note_off_c, 0, 69, 65
1, 326406, Note_off_c, 0, 73, 63
1, 326411, Note_off_c, 0, 81, 63
1, 326689, Note_on_c, 0, 81, 94
1, 326696, Note_on_c, 0, 74, 85
1, 326700, Note_on_c, 0, 70, 86
1, 326974, Note_on_c, 0, 65, 85
1, 326998, Note_off_c, 0, 65, 66
1, 327277, Note_on_c, 0, 50, 85
1, 327353, Control_c, 0, 64, 54
1, 327367, Control_c, 0, 64, 65
1, 327384, Control_c, 0, 64, 71
1, 327399, Control_c, 0, 64, 76
1, 327414, Note_off_c, 0, 70, 56
1, 327420, Control_c, 0, 64, 81
1, 327435, Control_c, 0, 64, 87
1, 327446, Note_off_c, 0, 74, 52
1, 327450, Control_c, 0, 64, 94
1, 327456, Note_off_c, 0, 81, 56
1, 327464, Control_c, 0, 64, 99
1, 327479, Control_c, 0, 64, 103
1, 327494, Control_c, 0, 64, 107
1, 327509, Control_c, 0, 64, 110
1, 327538, Control_c, 0, 64, 114
1, 327568, Control_c, 0, 64, 117
1, 327579, Note_on_c, 0, 81, 76
1, 327582, Note_on_c, 0, 71, 77
1, 327583, Note_on_c, 0, 77, 69
1, 327612, Control_c, 0, 64, 120
1, 327615, Note_off_c, 0, 77, 64
1, 327624, Note_off_c, 0, 71, 60
1, 327626, Note_off_c, 0, 50, 62
1, 327656, Note_off_c, 0, 81, 62
1, 327789, Control_c, 0, 64, 123
1, 327804, Control_c, 0, 64, 126
1, 327819, Control_c, 0, 64, 118
1, 327834, Control_c, 0, 64, 96
1, 327849, Control_c, 0, 64, 75
1, 327864, Control_c, 0, 64, 59
1, 327874, Note_on_c, 0, 81, 76
1, 327879, Control_c, 0, 64, 40
1, 327888, Note_on_c, 0, 72, 63
1, 327889, Note_on_c, 0, 77, 67
1, 327890, Note_on_c, 0, 48, 76
1, 327894, Control_c, 0, 64, 30
1, 327908, Control_c, 0, 64, 36
1, 327923, Control_c, 0, 64, 50
1, 327938, Control_c, 0, 64, 59
1, 327953, Control_c, 0, 64, 64
1, 327968, Control_c, 0, 64, 70
1, 327972, Note_off_c, 0, 48, 62
1, 327974, Note_on_c, 0, 50, 76
1, 327982, Control_c, 0, 64, 80
1, 327989, Note_off_c, 0, 77, 59
1, 327997, Control_c, 0, 64, 94
1, 328003, Note_off_c, 0, 72, 57
1, 328012, Control_c, 0, 64, 102
1, 328056, Control_c, 0, 64, 96
1, 328066, Note_on_c, 0, 48, 83
1, 328070, Note_off_c, 0, 50, 64
1, 328071, Control_c, 0, 64, 89
1, 328086, Control_c, 0, 64, 82
1, 328101, Control_c, 0, 64, 75
1, 328116, Control_c, 0, 64, 68
1, 328130, Control_c, 0, 64, 64
1, 328145, Control_c, 0, 64, 64
1, 328166, Note_on_c, 0, 46, 83
1, 328168, Note_on_c, 0, 79, 76
1, 328168, Control_c, 0, 64, 65
1, 328170, Note_on_c, 0, 76, 76
1, 328174, Note_off_c, 0, 48, 62
1, 328178, Note_on_c, 0, 72, 72
1, 328183, Control_c, 0, 64, 66
1, 328208, Note_off_c, 0, 81, 57
1, 328213, Control_c, 0, 64, 65
1, 328224, Note_off_c, 0, 76, 63
1, 328242, Control_c, 0, 64, 65
1, 328257, Control_c, 0, 64, 64
1, 328260, Note_on_c, 0, 48, 88
1, 328260, Note_off_c, 0, 72, 56
1, 328266, Note_off_c, 0, 46, 62
1, 328272, Control_c, 0, 64, 63
1, 328287, Control_c, 0, 64, 63
1, 328317, Control_c, 0, 64, 63
1, 328347, Note_on_c, 0, 46, 81
1, 328347, Control_c, 0, 64, 64
1, 328351, Note_off_c, 0, 48, 62
1, 328361, Control_c, 0, 64, 65
1, 328376, Control_c, 0, 64, 67
1, 328391, Control_c, 0, 64, 70
1, 328405, Control_c, 0, 64, 69
1, 328420, Control_c, 0, 64, 62
1, 328433, Note_on_c, 0, 84, 79
1, 328435, Control_c, 0, 64, 47
1, 328436, Note_on_c, 0, 77, 76
1, 328437, Note_on_c, 0, 45, 82
1, 328443, Note_on_c, 0, 72, 78
1, 328445, Note_off_c, 0, 46, 62
1, 328446, Note_off_c, 0, 79, 62
1, 328450, Control_c, 0, 64, 0
1, 328469, Note_off_c, 0, 72, 68
1, 328472, Note_off_c, 0, 77, 65
1, 328473, Note_off_c, 0, 84, 65
1, 328524, Control_c, 0, 64, 31
1, 328528, Note_on_c, 0, 46, 89
1, 328536, Note_off_c, 0, 45, 60
1, 328539, Control_c, 0, 64, 32
1, 328554, Control_c, 0, 64, 32
1, 328568, Control_c, 0, 64, 33
1, 328583, Control_c, 0, 64, 33
1, 328598, Control_c, 0, 64, 34
1, 328612, Control_c, 0, 64, 36
1, 328618, Note_off_c, 0, 46, 62
1, 328620, Note_on_c, 0, 45, 84
1, 328627, Control_c, 0, 64, 38
1, 328642, Control_c, 0, 64, 39
1, 328657, Control_c, 0, 64, 41
1, 328672, Control_c, 0, 64, 42
1, 328716, Note_on_c, 0, 43, 79
1, 328718, Note_off_c, 0, 45, 61
1, 328722, Note_on_c, 0, 76, 78
1, 328725, Note_on_c, 0, 73, 72
1, 328725, Note_on_c, 0, 69, 69
1, 328752, Note_off_c, 0, 69, 66
1, 328752, Note_off_c, 0, 76, 65
1, 328761, Note_off_c, 0, 73, 63
1, 328800, Note_off_c, 0, 43, 61
1, 328809, Note_on_c, 0, 45, 81
1, 328898, Note_on_c, 0, 43, 78
1, 328916, Control_c, 0, 64, 42
1, 328922, Note_off_c, 0, 45, 62
1, 328961, Control_c, 0, 64, 43
1, 329012, Note_on_c, 0, 69, 75
1, 329012, Note_on_c, 0, 74, 79
1, 329014, Note_on_c, 0, 41, 84
1, 329014, Note_on_c, 0, 81, 73
1, 329035, Note_off_c, 0, 69, 69
1, 329035, Control_c, 0, 64, 42
1, 329043, Note_off_c, 0, 43, 61
1, 329044, Note_off_c, 0, 74, 64
1, 329073, Note_off_c, 0, 81, 65
1, 329079, Note_off_c, 0, 41, 65
1, 329140, Control_c, 0, 64, 43
1, 329228, Control_c, 0, 64, 43
1, 329258, Control_c, 0, 64, 44
1, 329322, Note_on_c, 0, 85, 75
1, 329327, Note_on_c, 0, 81, 65
1, 329329, Note_on_c, 0, 76, 64
1, 329330, Note_on_c, 0, 55, 67
1, 329365, Note_off_c, 0, 81, 64
1, 329368, Note_off_c, 0, 76, 63
1, 329392, Note_off_c, 0, 55, 60
1, 329396, Note_off_c, 0, 85, 60
1, 329408, Note_on_c, 0, 57, 67
1, 329491, Note_off_c, 0, 57, 63
1, 329497, Note_on_c, 0, 55, 69
1, 329569, Control_c, 0, 64, 43
1, 329598, Note_on_c, 0, 81, 72
1, 329599, Note_on_c, 0, 53, 71
1, 329600, Note_on_c, 0, 86, 77
1, 329602, Note_off_c, 0, 55, 61
1, 329605, Note_on_c, 0, 74, 76
1, 329626, Note_off_c, 0, 74, 70
1, 329626, Note_off_c, 0, 86, 65
1, 329628, Note_off_c, 0, 81, 64
1, 329643, Control_c, 0, 64, 43
1, 329680, Control_c, 0, 64, 42
1, 329690, Note_off_c, 0, 53, 62
1, 329697, Note_on_c, 0, 55, 66
1, 329796, Note_off_c, 0, 55, 62
1, 329797, Note_on_c, 0, 53, 69
1, 329900, Note_on_c, 0, 52, 68
1, 329900, Note_on_c, 0, 79, 72
1, 329903, Note_on_c, 0, 69, 74
1, 329903, Note_off_c, 0, 53, 62
1, 329905, Note_on_c, 0, 73, 69
1, 329928, Note_off_c, 0, 69, 65
1, 329932, Note_off_c, 0, 73, 65
1, 329947, Note_off_c, 0, 79, 61
1, 329978, Note_off_c, 0, 52, 63
1, 329987, Note_on_c, 0, 53, 65
1, 330087, Note_on_c, 0, 52, 71
1, 330087, Note_off_c, 0, 53, 62
1, 330171, Note_on_c, 0, 74, 68
1, 330174, Note_on_c, 0, 77, 69
1, 330179, Note_on_c, 0, 69, 63
1, 330185, Note_on_c, 0, 50, 71
1, 330192, Note_off_c, 0, 52, 62
1, 330196, Note_off_c, 0, 74, 70
1, 330203, Note_off_c, 0, 77, 64
1, 330209, Note_off_c, 0, 69, 66
1, 330273, Note_off_c, 0, 50, 63
1, 330278, Note_on_c, 0, 52, 69
1, 330366, Note_off_c, 0, 52, 61
1, 330370, Note_on_c, 0, 50, 69
1, 330458, Control_c, 0, 64, 42
1, 330475, Note_on_c, 0, 76, 73
1, 330479, Note_on_c, 0, 48, 76
1, 330481, Note_off_c, 0, 50, 63
1, 330484, Note_on_c, 0, 69, 62
1, 330488, Note_on_c, 0, 64, 54
1, 330517, Note_off_c, 0, 69, 65
1, 330523, Note_on_c, 0, 65, 31
1, 330528, Note_off_c, 0, 64, 64
1, 330529, Note_off_c, 0, 76, 62
1, 330561, Note_off_c, 0, 65, 30
1, 330573, Note_on_c, 0, 50, 68
1, 330573, Note_off_c, 0, 48, 59
1, 330660, Note_on_c, 0, 48, 74
1, 330661, Note_off_c, 0, 50, 63
1, 330755, Note_on_c, 0, 74, 80
1, 330759, Note_on_c, 0, 68, 71
1, 330761, Note_on_c, 0, 64, 72
1, 330764, Note_on_c, 0, 47, 74
1, 330768, Note_off_c, 0, 48, 63
1, 330807, Note_off_c, 0, 64, 63
1, 330812, Note_off_c, 0, 68, 62
1, 330835, Note_off_c, 0, 74, 55
1, 330854, Note_off_c, 0, 47, 62
1, 330856, Note_on_c, 0, 48, 80
1, 330945, Note_on_c, 0, 47, 79
1, 330951, Note_off_c, 0, 48, 62
1, 331035, Note_on_c, 0, 69, 76
1, 331038, Note_on_c, 0, 66, 84
1, 331038, Note_on_c, 0, 74, 81
1, 331042, Note_on_c, 0, 45, 83
1, 331052, Note_off_c, 0, 47, 63
1, 331076, Note_off_c, 0, 69, 64
1, 331085, Note_off_c, 0, 66, 65
1, 331097, Note_off_c, 0, 74, 63
1, 331116, Note_off_c, 0, 45, 63
1, 331120, Note_on_c, 0, 47, 87
1, 331220, Note_on_c, 0, 45, 83
1, 331240, Note_off_c, 0, 47, 61
1, 331268, Control_c, 0, 64, 42
1, 331319, Note_on_c, 0, 44, 86
1, 331330, Note_on_c, 0, 74, 88
1, 331332, Note_on_c, 0, 68, 88
1, 331334, Note_on_c, 0, 71, 84
1, 331335, Note_off_c, 0, 45, 63
1, 331356, Control_c, 0, 64, 43
1, 331360, Note_off_c, 0, 71, 64
1, 331371, Note_off_c, 0, 68, 65
1, 331377, Note_off_c, 0, 74, 67
1, 331405, Note_on_c, 0, 45, 86
1, 331410, Note_off_c, 0, 44, 64
1, 331431, Control_c, 0, 64, 43
1, 331446, Control_c, 0, 64, 44
1, 331491, Control_c, 0, 64, 44
1, 331498, Note_on_c, 0, 44, 82
1, 331520, Control_c, 0, 64, 45
1, 331522, Note_off_c, 0, 45, 63
1, 331550, Control_c, 0, 64, 45
1, 331565, Control_c, 0, 64, 46
1, 331594, Control_c, 0, 64, 46
1, 331600, Note_on_c, 0, 42, 79
1, 331609, Note_on_c, 0, 71, 87
1, 331609, Note_on_c, 0, 75, 96
1, 331611, Note_on_c, 0, 69, 90
1, 331621, Note_off_c, 0, 44, 62
1, 331638, Note_off_c, 0, 69, 65
1, 331644, Note_off_c, 0, 71, 65
1, 331652, Note_off_c, 0, 75, 68
1, 331668, Control_c, 0, 64, 47
1, 331687, Note_on_c, 0, 44, 89
1, 331693, Note_off_c, 0, 42, 63
1, 331727, Control_c, 0, 64, 47
1, 331785, Note_on_c, 0, 42, 79
1, 331813, Note_off_c, 0, 44, 60
1, 331831, Control_c, 0, 64, 48
1, 331937, Note_on_c, 0, 76, 91
1, 331939, Note_on_c, 0, 68, 90
1, 331940, Note_on_c, 0, 40, 86
1, 331940, Note_on_c, 0, 71, 82
1, 331966, Note_off_c, 0, 42, 63
1, 331986, Control_c, 0, 64, 48
1, 332001, Control_c, 0, 64, 49
1, 332004, Note_off_c, 0, 40, 64
1, 332031, Control_c, 0, 64, 48
1, 332061, Control_c, 0, 64, 47
1, 332074, Note_off_c, 0, 71, 61
1, 332076, Control_c, 0, 64, 44
1, 332088, Note_off_c, 0, 76, 63
1, 332099, Note_off_c, 0, 68, 58
1, 332105, Control_c, 0, 64, 45
1, 332120, Control_c, 0, 64, 48
1, 332135, Control_c, 0, 64, 52
1, 332149, Control_c, 0, 64, 53
1, 332164, Control_c, 0, 64, 55
1, 332180, Control_c, 0, 64, 56
1, 332195, Control_c, 0, 64, 57
1, 332210, Control_c, 0, 64, 59
1, 332225, Control_c, 0, 64, 61
1, 332240, Control_c, 0, 64, 62
1, 332254, Control_c, 0, 64, 63
1, 332269, Note_on_c, 0, 64, 84
1, 332269, Control_c, 0, 64, 64
1, 332273, Note_on_c, 0, 56, 82
1, 332275, Note_on_c, 0, 52, 70
1, 332331, Note_off_c, 0, 64, 63
1, 332341, Note_off_c, 0, 52, 62
1, 332343, Control_c, 0, 64, 64
1, 332344, Note_off_c, 0, 56, 62
1, 332358, Control_c, 0, 64, 65
1, 332387, Control_c, 0, 64, 65
1, 332417, Control_c, 0, 64, 66
1, 332432, Control_c, 0, 64, 66
1, 332476, Control_c, 0, 64, 67
1, 332491, Control_c, 0, 64, 67
1, 332506, Control_c, 0, 64, 68
1, 332521, Control_c, 0, 64, 69
1, 332550, Control_c, 0, 64, 67
1, 332565, Control_c, 0, 64, 58
1, 332578, Note_on_c, 0, 64, 97
1, 332580, Control_c, 0, 64, 0
1, 332583, Note_on_c, 0, 57, 75
1, 332584, Note_on_c, 0, 53, 81
1, 332719, Note_on_c, 0, 83, 86
1, 332749, Control_c, 0, 67, 34
1, 332764, Control_c, 0, 67, 36
1, 332779, Control_c, 0, 67, 46
1, 332794, Control_c, 0, 67, 60
1, 332809, Control_c, 0, 67, 65
1, 332815, Note_on_c, 0, 84, 87
1, 332824, Control_c, 0, 67, 69
1, 332839, Control_c, 0, 67, 73
1, 332843, Note_off_c, 0, 83, 64
1, 332853, Control_c, 0, 64, 40
1, 332853, Control_c, 0, 67, 78
1, 332868, Control_c, 0, 64, 51
1, 332868, Control_c, 0, 67, 82
1, 332883, Control_c, 0, 64, 56
1, 332883, Control_c, 0, 67, 87
1, 332898, Control_c, 0, 64, 57
1, 332898, Control_c, 0, 67, 94
1, 332905, Note_on_c, 0, 86, 87
1, 332909, Note_off_c, 0, 84, 66
1, 332913, Control_c, 0, 64, 58
1, 332913, Control_c, 0, 67, 102
1, 332927, Control_c, 0, 64, 60
1, 332927, Control_c, 0, 67, 112
1, 332942, Control_c, 0, 64, 61
1, 332942, Control_c, 0, 67, 117
1, 332957, Control_c, 0, 64, 62
1, 332957, Control_c, 0, 67, 120
1, 332973, Control_c, 0, 67, 123
1, 332988, Control_c, 0, 67, 126
1, 332991, Note_on_c, 0, 84, 87
1, 333000, Note_off_c, 0, 86, 64
1, 333002, Control_c, 0, 64, 63
1, 333017, Control_c, 0, 64, 63
1, 333032, Control_c, 0, 64, 64
1, 333047, Control_c, 0, 64, 65
1, 333062, Control_c, 0, 64, 66
1, 333071, Note_on_c, 0, 83, 82
1, 333076, Control_c, 0, 64, 66
1, 333091, Control_c, 0, 64, 67
1, 333092, Note_off_c, 0, 84, 64
1, 333106, Control_c, 0, 64, 68
1, 333121, Control_c, 0, 64, 69
1, 333136, Control_c, 0, 64, 70
1, 333150, Control_c, 0, 64, 71
1, 333159, Note_off_c, 0, 83, 64
1, 333162, Note_on_c, 0, 84, 87
1, 333165, Control_c, 0, 64, 72
1, 333180, Control_c, 0, 64, 72
1, 333195, Control_c, 0, 64, 73
1, 333209, Control_c, 0, 64, 74
1, 333224, Control_c, 0, 64, 75
1, 333237, Note_on_c, 0, 81, 85
1, 333239, Control_c, 0, 64, 76
1, 333245, Note_off_c, 0, 84, 64
1, 333254, Control_c, 0, 64, 77
1, 333269, Control_c, 0, 64, 77
1, 333283, Control_c, 0, 64, 78
1, 333298, Control_c, 0, 64, 78
1, 333313, Control_c, 0, 64, 79
1, 333318, Note_on_c, 0, 79, 79
1, 333342, Note_off_c, 0, 81, 61
1, 333343, Control_c, 0, 64, 79
1, 333396, Note_off_c, 0, 79, 65
1, 333407, Note_on_c, 0, 77, 84
1, 333409, Control_c, 0, 64, 80
1, 333459, Note_off_c, 0, 77, 59
1, 333483, Control_c, 0, 64, 80
1, 333494, Note_on_c, 0, 76, 82
1, 333528, Control_c, 0, 64, 81
1, 333572, Control_c, 0, 64, 81
1, 333573, Note_on_c, 0, 74, 82
1, 333584, Note_off_c, 0, 76, 55
1, 333587, Control_c, 0, 64, 82
1, 333602, Control_c, 0, 64, 84
1, 333617, Control_c, 0, 64, 85
1, 333628, Note_off_c, 0, 74, 64
1, 333632, Control_c, 0, 64, 85
1, 333647, Control_c, 0, 64, 79
1, 333662, Control_c, 0, 64, 67
1, 333664, Note_on_c, 0, 72, 79
1, 333674, Note_off_c, 0, 64, 41
1, 333676, Control_c, 0, 64, 52
1, 333679, Note_on_c, 0, 63, 81
1, 333691, Control_c, 0, 64, 40
1, 333706, Control_c, 0, 64, 43
1, 333718, Note_off_c, 0, 72, 55
1, 333721, Control_c, 0, 64, 50
1, 333735, Control_c, 0, 64, 58
1, 333750, Control_c, 0, 64, 65
1, 333765, Control_c, 0, 64, 72
1, 333772, Note_on_c, 0, 71, 78
1, 333781, Control_c, 0, 64, 80
1, 333796, Control_c, 0, 64, 85
1, 333811, Control_c, 0, 64, 91
1, 333825, Control_c, 0, 64, 98
1, 333840, Control_c, 0, 64, 112
1, 333844, Note_on_c, 0, 69, 74
1, 333851, Note_off_c, 0, 71, 57
1, 333855, Control_c, 0, 64, 127
1, 333908, Note_off_c, 0, 63, 61
1, 333920, Note_off_c, 0, 53, 61
1, 333933, Note_off_c, 0, 57, 58
1, 333939, Note_off_c, 0, 69, 62
1, 333945, Note_on_c, 0, 68, 82
1, 334017, Note_off_c, 0, 68, 61
1, 334032, Note_on_c, 0, 71, 77
1, 334096, Note_off_c, 0, 71, 61
1, 334110, Note_on_c, 0, 69, 71
1, 334173, Control_c, 0, 64, 105
1, 334188, Control_c, 0, 64, 73
1, 334203, Control_c, 0, 64, 48
1, 334214, Note_off_c, 0, 69, 57
1, 334218, Control_c, 0, 64, 0
1, 334224, Note_on_c, 0, 64, 75
1, 334231, Note_on_c, 0, 52, 74
1, 334263, Control_c, 0, 64, 34
1, 334267, Note_off_c, 0, 64, 66
1, 334278, Control_c, 0, 64, 54
1, 334286, Note_off_c, 0, 52, 64
1, 334293, Control_c, 0, 64, 64
1, 334307, Control_c, 0, 64, 72
1, 334322, Control_c, 0, 64, 80
1, 334337, Control_c, 0, 64, 82
1, 334351, Control_c, 0, 64, 82
1, 334366, Control_c, 0, 64, 74
1, 334381, Control_c, 0, 64, 59
1, 334396, Control_c, 0, 64, 0
1, 334514, Control_c, 0, 67, 123
1, 334529, Note_on_c, 0, 52, 80
1, 334529, Note_on_c, 0, 64, 99
1, 334529, Control_c, 0, 67, 109
1, 334531, Note_on_c, 0, 56, 82
1, 334544, Control_c, 0, 67, 79
1, 334559, Control_c, 0, 64, 55
1, 334559, Control_c, 0, 67, 0
1, 334574, Control_c, 0, 64, 74
1, 334581, Note_on_c, 0, 54, 18
1, 334589, Control_c, 0, 64, 83
1, 334594, Note_off_c, 0, 64, 63
1, 334598, Note_off_c, 0, 52, 62
1, 334601, Note_off_c, 0, 56, 63
1, 334604, Control_c, 0, 64, 91
1, 334619, Control_c, 0, 64, 98
1, 334624, Note_off_c, 0, 54, 55
1, 334634, Control_c, 0, 64, 106
1, 334827, Control_c, 0, 64, 103
1, 334841, Control_c, 0, 64, 96
1, 334856, Control_c, 0, 64, 86
1, 334863, Note_on_c, 0, 64, 91
1, 334871, Control_c, 0, 64, 75
1, 334874, Note_on_c, 0, 53, 76
1, 334886, Control_c, 0, 64, 65
1, 334887, Note_on_c, 0, 57, 67
1, 334908, Control_c, 0, 64, 57
1, 334923, Control_c, 0, 64, 52
1, 334937, Control_c, 0, 64, 45
1, 334952, Control_c, 0, 64, 38
1, 334967, Control_c, 0, 64, 32
1, 334970, Note_on_c, 0, 95, 83
1, 334982, Control_c, 0, 64, 29
1, 334997, Control_c, 0, 64, 0
1, 335066, Note_on_c, 0, 96, 85
1, 335086, Control_c, 0, 64, 28
1, 335090, Note_off_c, 0, 95, 64
1, 335154, Note_off_c, 0, 96, 67
1, 335160, Note_on_c, 0, 98, 87
1, 335204, Control_c, 0, 64, 31
1, 335219, Control_c, 0, 64, 32
1, 335248, Note_on_c, 0, 96, 84
1, 335262, Note_off_c, 0, 98, 66
1, 335278, Control_c, 0, 64, 33
1, 335308, Control_c, 0, 64, 33
1, 335337, Control_c, 0, 64, 34
1, 335342, Note_on_c, 0, 95, 74
1, 335351, Note_off_c, 0, 96, 67
1, 335352, Control_c, 0, 64, 34
1, 335397, Control_c, 0, 64, 35
1, 335412, Control_c, 0, 64, 35
1, 335414, Note_off_c, 0, 95, 67
1, 335420, Note_on_c, 0, 96, 77
1, 335427, Control_c, 0, 64, 36
1, 335457, Control_c, 0, 64, 37
1, 335503, Note_on_c, 0, 93, 80
1, 335508, Note_off_c, 0, 96, 67
1, 335584, Note_on_c, 0, 91, 74
1, 335602, Note_off_c, 0, 93, 61
1, 335605, Control_c, 0, 64, 37
1, 335657, Control_c, 0, 64, 38
1, 335665, Note_off_c, 0, 91, 65
1, 335671, Control_c, 0, 64, 41
1, 335686, Note_on_c, 0, 89, 69
1, 335686, Control_c, 0, 64, 44
1, 335701, Control_c, 0, 64, 47
1, 335716, Control_c, 0, 64, 50
1, 335731, Control_c, 0, 64, 52
1, 335737, Note_off_c, 0, 89, 60
1, 335745, Control_c, 0, 64, 53
1, 335760, Control_c, 0, 64, 53
1, 335778, Note_on_c, 0, 88, 59
1, 335790, Control_c, 0, 64, 53
1, 335820, Control_c, 0, 64, 52
1, 335835, Control_c, 0, 64, 51
1, 335850, Control_c, 0, 64, 50
1, 335856, Note_on_c, 0, 86, 66
1, 335862, Note_off_c, 0, 88, 60
1, 335864, Control_c, 0, 64, 49
1, 335879, Control_c, 0, 64, 48
1, 335894, Control_c, 0, 64, 48
1, 335894, Control_c, 0, 67, 43
1, 335909, Control_c, 0, 67, 75
1, 335921, Note_off_c, 0, 86, 63
1, 335924, Control_c, 0, 64, 49
1, 335924, Control_c, 0, 67, 94
1, 335939, Control_c, 0, 64, 51
1, 335939, Control_c, 0, 67, 105
1, 335946, Note_on_c, 0, 84, 68
1, 335954, Control_c, 0, 64, 56
1, 335954, Control_c, 0, 67, 113
1, 335969, Control_c, 0, 64, 59
1, 335969, Control_c, 0, 67, 122
1, 335984, Control_c, 0, 64, 61
1, 335984, Control_c, 0, 67, 127
1, 335986, Note_off_c, 0, 84, 63
1, 335989, Note_on_c, 0, 63, 51
1, 335998, Control_c, 0, 64, 63
1, 336013, Control_c, 0, 64, 65
1, 336028, Control_c, 0, 64, 68
1, 336043, Control_c, 0, 64, 70
1, 336049, Note_on_c, 0, 83, 72
1, 336058, Control_c, 0, 64, 73
1, 336067, Note_off_c, 0, 64, 53
1, 336072, Control_c, 0, 64, 75
1, 336087, Control_c, 0, 64, 78
1, 336102, Control_c, 0, 64, 80
1, 336117, Control_c, 0, 64, 82
1, 336131, Control_c, 0, 64, 84
1, 336137, Note_on_c, 0, 81, 66
1, 336142, Note_off_c, 0, 83, 58
1, 336146, Control_c, 0, 64, 86
1, 336152, Note_off_c, 0, 57, 57
1, 336161, Control_c, 0, 64, 86
1, 336172, Note_off_c, 0, 53, 59
1, 336189, Note_off_c, 0, 63, 62
1, 336192, Control_c, 0, 64, 87
1, 336221, Note_off_c, 0, 81, 61
1, 336243, Note_on_c, 0, 80, 64
1, 336329, Note_off_c, 0, 80, 60
1, 336334, Note_on_c, 0, 83, 65
1, 336407, Note_off_c, 0, 83, 62
1, 336427, Note_on_c, 0, 81, 52
1, 336451, Control_c, 0, 64, 86
1, 336464, Note_off_c, 0, 81, 66
1, 336466, Control_c, 0, 64, 85
1, 336480, Control_c, 0, 64, 80
1, 336495, Control_c, 0, 64, 73
1, 336509, Control_c, 0, 64, 65
1, 336523, Note_on_c, 0, 76, 60
1, 336524, Control_c, 0, 64, 59
1, 336539, Control_c, 0, 64, 55
1, 336553, Control_c, 0, 64, 53
1, 336555, Note_on_c, 0, 64, 41
1, 336562, Note_on_c, 0, 52, 42
1, 336562, Note_on_c, 0, 56, 34
1, 336568, Control_c, 0, 64, 55
1, 336579, Note_off_c, 0, 76, 53
1, 336583, Control_c, 0, 64, 58
1, 336598, Control_c, 0, 64, 61
1, 336613, Control_c, 0, 64, 63
1, 336616, Note_on_c, 0, 80, 58
1, 336628, Control_c, 0, 64, 65
1, 336642, Control_c, 0, 64, 69
1, 336657, Control_c, 0, 64, 72
1, 336672, Control_c, 0, 64, 74
1, 336682, Note_off_c, 0, 80, 61
1, 336687, Note_on_c, 0, 76, 72
1, 336687, Control_c, 0, 64, 76
1, 336702, Control_c, 0, 64, 77
1, 336704, Note_off_c, 0, 64, 64
1, 336717, Control_c, 0, 64, 78
1, 336732, Control_c, 0, 64, 78
1, 336737, Note_off_c, 0, 76, 65
1, 336761, Control_c, 0, 64, 79
1, 336766, Note_off_c, 0, 52, 60
1, 336773, Note_on_c, 0, 71, 66
1, 336797, Note_off_c, 0, 56, 40
1, 336804, Note_off_c, 0, 71, 64
1, 336850, Control_c, 0, 64, 78
1, 336877, Note_on_c, 0, 68, 61
1, 336909, Control_c, 0, 64, 78
1, 336951, Note_off_c, 0, 68, 57
1, 336953, Control_c, 0, 64, 77
1, 336959, Note_on_c, 0, 64, 66
1, 336969, Control_c, 0, 64, 77
1, 336999, Control_c, 0, 64, 76
1, 337014, Control_c, 0, 64, 76
1, 337029, Control_c, 0, 64, 75
1, 337043, Control_c, 0, 64, 75
1, 337058, Control_c, 0, 64, 74
1, 337073, Control_c, 0, 64, 74
1, 337088, Control_c, 0, 64, 73
1, 337099, Note_on_c, 0, 65, 76
1, 337103, Control_c, 0, 64, 73
1, 337117, Control_c, 0, 64, 71
1, 337121, Note_on_c, 0, 56, 61
1, 337123, Note_on_c, 0, 59, 63
1, 337128, Note_on_c, 0, 53, 58
1, 337132, Control_c, 0, 64, 69
1, 337154, Note_off_c, 0, 64, 33
1, 337155, Control_c, 0, 64, 65
1, 337170, Control_c, 0, 64, 58
1, 337184, Control_c, 0, 64, 39
1, 337199, Control_c, 0, 64, 0
1, 337242, Note_on_c, 0, 71, 68
1, 337243, Note_off_c, 0, 65, 59
1, 337274, Control_c, 0, 64, 36
1, 337289, Control_c, 0, 64, 51
1, 337304, Control_c, 0, 64, 60
1, 337319, Control_c, 0, 64, 63
1, 337330, Note_off_c, 0, 71, 62
1, 337333, Control_c, 0, 64, 64
1, 337334, Note_on_c, 0, 68, 68
1, 337348, Control_c, 0, 64, 66
1, 337363, Control_c, 0, 64, 68
1, 337377, Control_c, 0, 64, 70
1, 337392, Control_c, 0, 64, 71
1, 337407, Control_c, 0, 64, 72
1, 337411, Note_off_c, 0, 68, 62
1, 337422, Control_c, 0, 64, 72
1, 337431, Note_on_c, 0, 65, 65
1, 337487, Note_off_c, 0, 65, 59
1, 337519, Note_on_c, 0, 71, 66
1, 337590, Note_off_c, 0, 71, 61
1, 337596, Note_on_c, 0, 68, 66
1, 337676, Note_off_c, 0, 53, 62
1, 337685, Note_off_c, 0, 68, 58
1, 337696, Note_on_c, 0, 64, 73
1, 337713, Note_on_c, 0, 52, 78
1, 337718, Control_c, 0, 64, 72
1, 337733, Control_c, 0, 64, 69
1, 337748, Control_c, 0, 64, 61
1, 337758, Note_off_c, 0, 64, 63
1, 337763, Control_c, 0, 64, 43
1, 337778, Control_c, 0, 64, 0
1, 337787, Note_on_c, 0, 71, 73
1, 337867, Control_c, 0, 64, 29
1, 337871, Note_off_c, 0, 71, 61
1, 337877, Note_on_c, 0, 68, 67
1, 337882, Control_c, 0, 64, 45
1, 337904, Control_c, 0, 64, 57
1, 337919, Control_c, 0, 64, 62
1, 337934, Control_c, 0, 64, 64
1, 337948, Control_c, 0, 64, 65
1, 337961, Note_off_c, 0, 68, 61
1, 337963, Control_c, 0, 64, 66
1, 337977, Note_on_c, 0, 64, 71
1, 337978, Control_c, 0, 64, 68
1, 337993, Control_c, 0, 64, 70
1, 338008, Control_c, 0, 64, 71
1, 338023, Control_c, 0, 64, 71
1, 338034, Note_off_c, 0, 64, 63
1, 338038, Control_c, 0, 64, 72
1, 338041, Note_off_c, 0, 52, 62
1, 338058, Note_off_c, 0, 56, 63
1, 338076, Note_on_c, 0, 71, 65
1, 338082, Control_c, 0, 64, 72
1, 338097, Note_off_c, 0, 59, 56
1, 338145, Note_off_c, 0, 71, 61
1, 338154, Note_on_c, 0, 68, 65
1, 338255, Note_off_c, 0, 68, 60
1, 338275, Note_on_c, 0, 63, 72
1, 338294, Note_on_c, 0, 54, 60
1, 338294, Note_on_c, 0, 59, 68
1, 338300, Note_on_c, 0, 47, 63
1, 338304, Control_c, 0, 64, 72
1, 338318, Control_c, 0, 64, 71
1, 338333, Control_c, 0, 64, 66
1, 338339, Note_off_c, 0, 63, 60
1, 338348, Control_c, 0, 64, 56
1, 338363, Control_c, 0, 64, 31
1, 338374, Note_on_c, 0, 71, 64
1, 338378, Control_c, 0, 64, 0
1, 338407, Control_c, 0, 67, 118
1, 338422, Control_c, 0, 67, 106
1, 338437, Control_c, 0, 67, 93
1, 338452, Control_c, 0, 67, 81
1, 338458, Note_off_c, 0, 71, 61
1, 338467, Control_c, 0, 64, 32
1, 338467, Control_c, 0, 67, 71
1, 338470, Note_on_c, 0, 69, 61
1, 338482, Control_c, 0, 64, 47
1, 338482, Control_c, 0, 67, 63
1, 338497, Control_c, 0, 64, 58
1, 338497, Control_c, 0, 67, 54
1, 338512, Control_c, 0, 64, 62
1, 338512, Control_c, 0, 67, 46
1, 338526, Control_c, 0, 64, 63
1, 338526, Control_c, 0, 67, 39
1, 338541, Control_c, 0, 64, 64
1, 338541, Control_c, 0, 67, 35
1, 338549, Note_off_c, 0, 69, 61
1, 338554, Note_on_c, 0, 63, 69
1, 338556, Control_c, 0, 64, 66
1, 338556, Control_c, 0, 67, 34
1, 338571, Control_c, 0, 64, 67
1, 338586, Control_c, 0, 64, 68
1, 338599, Note_off_c, 0, 54, 60
1, 338601, Control_c, 0, 64, 69
1, 338621, Note_off_c, 0, 63, 59
1, 338631, Control_c, 0, 64, 70
1, 338631, Control_c, 0, 67, 35
1, 338648, Note_off_c, 0, 59, 55
1, 338653, Control_c, 0, 67, 35
1, 338664, Note_on_c, 0, 71, 65
1, 338668, Control_c, 0, 67, 36
1, 338683, Control_c, 0, 67, 37
1, 338749, Note_off_c, 0, 71, 60
1, 338756, Note_on_c, 0, 69, 61
1, 338822, Note_off_c, 0, 69, 62
1, 338845, Control_c, 0, 64, 68
1, 338857, Note_on_c, 0, 64, 63
1, 338860, Control_c, 0, 64, 64
1, 338864, Note_on_c, 0, 59, 55
1, 338869, Note_on_c, 0, 52, 54
1, 338872, Note_on_c, 0, 56, 57
1, 338875, Control_c, 0, 64, 54
1, 338888, Note_off_c, 0, 47, 34
1, 338890, Control_c, 0, 64, 29
1, 338890, Control_c, 0, 67, 36
1, 338905, Control_c, 0, 64, 0
1, 338905, Control_c, 0, 67, 35
1, 338920, Control_c, 0, 67, 33
1, 338925, Note_off_c, 0, 64, 62
1, 338935, Control_c, 0, 67, 0
1, 338948, Note_on_c, 0, 68, 63
1, 338950, Note_off_c, 0, 59, 64
1, 338964, Control_c, 0, 64, 34
1, 338979, Control_c, 0, 64, 49
1, 338994, Control_c, 0, 64, 59
1, 339009, Control_c, 0, 64, 64
1, 339019, Note_off_c, 0, 56, 61
1, 339023, Control_c, 0, 64, 67
1, 339038, Control_c, 0, 64, 69
1, 339039, Note_off_c, 0, 68, 57
1, 339042, Note_on_c, 0, 64, 70
1, 339053, Control_c, 0, 64, 70
1, 339061, Note_off_c, 0, 52, 60
1, 339068, Control_c, 0, 64, 72
1, 339083, Control_c, 0, 64, 73
1, 339097, Control_c, 0, 64, 73
1, 339114, Note_off_c, 0, 64, 65
1, 339127, Control_c, 0, 64, 74
1, 339129, Note_on_c, 0, 59, 75
1, 339176, Note_off_c, 0, 59, 58
1, 339208, Note_on_c, 0, 56, 77
1, 339275, Control_c, 0, 64, 73
1, 339296, Note_on_c, 0, 52, 75
1, 339302, Note_off_c, 0, 56, 63
1, 339334, Control_c, 0, 64, 73
1, 339364, Control_c, 0, 64, 72
1, 339372, Note_off_c, 0, 52, 61
1, 339379, Control_c, 0, 64, 72
1, 339417, Control_c, 0, 64, 71
1, 339432, Control_c, 0, 64, 70
1, 339446, Control_c, 0, 64, 69
1, 339461, Control_c, 0, 64, 68
1, 339468, Note_on_c, 0, 41, 82
1, 339472, Note_on_c, 0, 53, 65
1, 339476, Control_c, 0, 64, 66
1, 339491, Control_c, 0, 64, 64
1, 339506, Control_c, 0, 64, 61
1, 339520, Control_c, 0, 64, 55
1, 339535, Control_c, 0, 64, 50
1, 339546, Note_off_c, 0, 53, 58
1, 339550, Control_c, 0, 64, 44
1, 339564, Control_c, 0, 64, 37
1, 339579, Control_c, 0, 64, 31
1, 339586, Note_on_c, 0, 59, 62
1, 339594, Control_c, 0, 64, 28
1, 339668, Note_off_c, 0, 59, 62
1, 339674, Note_on_c, 0, 56, 61
1, 339761, Note_off_c, 0, 56, 61
1, 339768, Note_on_c, 0, 53, 57
1, 339772, Control_c, 0, 64, 30
1, 339822, Note_off_c, 0, 53, 57
1, 339865, Note_on_c, 0, 59, 58
1, 339945, Note_off_c, 0, 59, 62
1, 339960, Note_on_c, 0, 56, 53
1, 340057, Note_off_c, 0, 56, 54
1, 340072, Note_on_c, 0, 52, 57
1, 340077, Note_on_c, 0, 40, 69
1, 340111, Note_off_c, 0, 41, 64
1, 340131, Note_off_c, 0, 52, 54
1, 340187, Note_on_c, 0, 59, 57
1, 340282, Note_off_c, 0, 59, 59
1, 340290, Note_on_c, 0, 56, 51
1, 340386, Note_on_c, 0, 52, 50
1, 340387, Note_off_c, 0, 56, 59
1, 340467, Note_off_c, 0, 52, 53
1, 340498, Note_on_c, 0, 59, 54
1, 340584, Note_on_c, 0, 56, 54
1, 340601, Note_off_c, 0, 59, 55
1, 340697, Note_off_c, 0, 56, 58
1, 340701, Note_on_c, 0, 35, 58
1, 340702, Note_on_c, 0, 51, 61
1, 340791, Note_off_c, 0, 51, 54
1, 340813, Note_on_c, 0, 59, 61
1, 340840, Note_off_c, 0, 40, 38
1, 340878, Note_off_c, 0, 59, 62
1, 340913, Note_on_c, 0, 57, 51
1, 340998, Note_off_c, 0, 57, 62
1, 341015, Note_on_c, 0, 51, 54
1, 341075, Note_off_c, 0, 51, 53
1, 341105, Note_on_c, 0, 59, 57
1, 341176, Note_off_c, 0, 59, 63
1, 341200, Note_on_c, 0, 57, 48
1, 341300, Note_off_c, 0, 57, 62
1, 341304, Note_on_c, 0, 52, 52
1, 341321, Note_on_c, 0, 40, 49
1, 341352, Note_off_c, 0, 52, 59
1, 341389, Note_off_c, 0, 35, 35
1, 341406, Note_on_c, 0, 59, 53
1, 341478, Note_off_c, 0, 59, 59
1, 341495, Note_on_c, 0, 56, 54
1, 341521, Control_c, 0, 64, 32
1, 341550, Control_c, 0, 64, 32
1, 341594, Note_off_c, 0, 56, 56
1, 341597, Note_on_c, 0, 52, 52
1, 341655, Note_off_c, 0, 52, 58
1, 341700, Note_on_c, 0, 59, 53
1, 341750, Control_c, 0, 64, 33
1, 341801, Note_on_c, 0, 56, 50
1, 341805, Note_off_c, 0, 59, 50
1, 341826, Control_c, 0, 67, 60
1, 341840, Control_c, 0, 67, 93
1, 341855, Control_c, 0, 67, 124
1, 341870, Control_c, 0, 67, 127
1, 341890, Note_on_c, 0, 51, 63
1, 341913, Note_on_c, 0, 35, 51
1, 341916, Note_off_c, 0, 40, 49
1, 341927, Note_off_c, 0, 56, 58
1, 341975, Note_off_c, 0, 51, 60
1, 341988, Note_on_c, 0, 59, 58
1, 342033, Control_c, 0, 64, 32
1, 342076, Note_off_c, 0, 59, 60
1, 342079, Note_on_c, 0, 57, 54
1, 342092, Control_c, 0, 64, 32
1, 342167, Note_off_c, 0, 57, 62
1, 342180, Note_on_c, 0, 51, 60
1, 342245, Note_off_c, 0, 51, 51
1, 342286, Note_on_c, 0, 60, 45
1, 342344, Note_off_c, 0, 60, 60
1, 342373, Note_on_c, 0, 57, 43
1, 342480, Note_off_c, 0, 57, 61
1, 342497, Note_on_c, 0, 52, 43
1, 342500, Note_on_c, 0, 40, 42
1, 342508, Note_off_c, 0, 35, 35
1, 342548, Note_off_c, 0, 52, 59
1, 342589, Note_on_c, 0, 59, 51
1, 342661, Note_off_c, 0, 59, 58
1, 342682, Note_on_c, 0, 56, 47
1, 342775, Note_off_c, 0, 56, 58
1, 342784, Note_on_c, 0, 52, 46
1, 342835, Note_off_c, 0, 52, 58
1, 342880, Note_on_c, 0, 59, 49
1, 342977, Note_off_c, 0, 59, 56
1, 342995, Note_on_c, 0, 56, 41
1, 343074, Note_off_c, 0, 56, 55
1, 343087, Note_on_c, 0, 51, 50
1, 343103, Note_on_c, 0, 35, 32
1, 343108, Note_off_c, 0, 40, 47
1, 343165, Note_off_c, 0, 51, 55
1, 343200, Note_on_c, 0, 59, 53
1, 343279, Note_off_c, 0, 59, 60
1, 343297, Note_on_c, 0, 57, 46
1, 343391, Note_off_c, 0, 57, 60
1, 343401, Note_on_c, 0, 51, 51
1, 343462, Note_off_c, 0, 51, 53
1, 343509, Note_on_c, 0, 60, 46
1, 343597, Note_off_c, 0, 60, 57
1, 343618, Note_on_c, 0, 57, 41
1, 343707, Control_c, 0, 64, 32
1, 343762, Note_off_c, 0, 35, 38
1, 343763, Note_off_c, 0, 57, 57
1, 343785, Note_on_c, 0, 56, 45
1, 343821, Note_on_c, 0, 40, 30
1, 343841, Control_c, 0, 64, 33
1, 343880, Note_off_c, 0, 56, 61
1, 343913, Note_on_c, 0, 52, 46
1, 343980, Note_off_c, 0, 52, 49
1, 344019, Note_on_c, 0, 51, 50
1, 344073, Note_off_c, 0, 51, 57
1, 344101, Note_on_c, 0, 52, 55
1, 344144, Note_off_c, 0, 52, 61
1, 344202, Note_on_c, 0, 56, 58
1, 344274, Note_off_c, 0, 56, 62
1, 344275, Note_off_c, 0, 40, 45
1, 344291, Note_on_c, 0, 55, 55
1, 344360, Note_off_c, 0, 55, 52
1, 344390, Note_on_c, 0, 56, 63
1, 344452, Note_off_c, 0, 56, 61
1, 344473, Note_on_c, 0, 59, 63
1, 344554, Note_off_c, 0, 59, 61
1, 344560, Note_on_c, 0, 58, 67
1, 344640, Note_off_c, 0, 58, 61
1, 344663, Note_on_c, 0, 59, 68
1, 344712, Note_off_c, 0, 59, 56
1, 344757, Note_on_c, 0, 64, 63
1, 344834, Note_off_c, 0, 64, 63
1, 344843, Note_on_c, 0, 63, 66
1, 344849, Control_c, 0, 64, 33
1, 344864, Control_c, 0, 64, 34
1, 344894, Control_c, 0, 64, 34
1, 344917, Note_off_c, 0, 63, 62
1, 344941, Note_on_c, 0, 64, 64
1, 344977, Note_off_c, 0, 64, 63
1, 345025, Note_on_c, 0, 68, 64
1, 345058, Control_c, 0, 64, 35
1, 345087, Control_c, 0, 64, 35
1, 345089, Note_off_c, 0, 68, 62
1, 345114, Note_on_c, 0, 67, 67
1, 345117, Control_c, 0, 64, 36
1, 345195, Note_off_c, 0, 67, 54
1, 345215, Note_on_c, 0, 68, 64
1, 345273, Note_off_c, 0, 68, 61
1, 345297, Note_on_c, 0, 71, 65
1, 345369, Note_off_c, 0, 71, 57
1, 345399, Note_on_c, 0, 70, 65
1, 345466, Note_off_c, 0, 70, 63
1, 345480, Control_c, 0, 64, 36
1, 345494, Note_on_c, 0, 71, 51
1, 345530, Note_off_c, 0, 71, 55
1, 345600, Note_on_c, 0, 76, 57
1, 345657, Control_c, 0, 64, 37
1, 345666, Note_off_c, 0, 76, 59
1, 345681, Note_on_c, 0, 75, 66
1, 345761, Note_off_c, 0, 75, 59
1, 345787, Note_on_c, 0, 76, 60
1, 345833, Note_off_c, 0, 76, 57
1, 345895, Note_on_c, 0, 80, 57
1, 345966, Note_off_c, 0, 80, 61
1, 345989, Note_on_c, 0, 79, 56
1, 346103, Control_c, 0, 64, 37
1, 346118, Control_c, 0, 64, 38
1, 346135, Note_off_c, 0, 79, 37
1, 346152, Note_on_c, 0, 80, 60
1, 346155, Control_c, 0, 64, 38
1, 346184, Control_c, 0, 64, 39
1, 346197, Note_off_c, 0, 80, 57
1, 346244, Control_c, 0, 64, 39
1, 346303, Note_on_c, 0, 81, 70
1, 346356, Note_off_c, 0, 81, 62
1, 346450, Note_on_c, 0, 83, 76
1, 346501, Note_off_c, 0, 83, 60
1, 346584, Note_on_c, 0, 81, 77
1, 346644, Note_off_c, 0, 81, 62
1, 346674, Control_c, 0, 67, 114
1, 346689, Control_c, 0, 67, 101
1, 346703, Control_c, 0, 67, 90
1, 346718, Control_c, 0, 67, 79
1, 346733, Control_c, 0, 67, 71
1, 346742, Note_on_c, 0, 80, 69
1, 346748, Control_c, 0, 67, 64
1, 346763, Control_c, 0, 67, 50
1, 346778, Control_c, 0, 67, 38
1, 346792, Control_c, 0, 67, 0
1, 346800, Note_off_c, 0, 80, 63
1, 346885, Note_on_c, 0, 78, 65
1, 346918, Control_c, 0, 64, 39
1, 346944, Note_off_c, 0, 78, 60
1, 347037, Note_on_c, 0, 76, 65
1, 347067, Control_c, 0, 67, 33
1, 347081, Control_c, 0, 67, 34
1, 347082, Note_off_c, 0, 76, 58
1, 347141, Control_c, 0, 67, 34
1, 347187, Note_on_c, 0, 75, 59
1, 347243, Note_off_c, 0, 75, 57
1, 347342, Note_on_c, 0, 76, 53
1, 347398, Note_off_c, 0, 76, 54
1, 347493, Note_on_c, 0, 78, 56
1, 347541, Control_c, 0, 67, 34
1, 347556, Control_c, 0, 67, 0
1, 347563, Note_off_c, 0, 78, 58
1, 347636, Note_on_c, 0, 80, 62
1, 347694, Note_off_c, 0, 80, 57
1, 347777, Note_on_c, 0, 83, 63
1, 347785, Note_on_c, 0, 76, 53
1, 347788, Note_on_c, 0, 80, 53
1, 347821, Note_off_c, 0, 80, 58
1, 347845, Note_off_c, 0, 83, 64
1, 347848, Note_off_c, 0, 76, 57
1, 347931, Note_on_c, 0, 75, 69
1, 347933, Note_on_c, 0, 78, 61
1, 347934, Note_on_c, 0, 83, 64
1, 347934, Control_c, 0, 64, 39
1, 347973, Note_off_c, 0, 78, 60
1, 347992, Note_off_c, 0, 83, 62
1, 347994, Note_off_c, 0, 75, 62
1, 348082, Note_on_c, 0, 73, 65
1, 348088, Note_on_c, 0, 83, 62
1, 348090, Note_on_c, 0, 76, 55
1, 348111, Control_c, 0, 67, 33
1, 348131, Note_off_c, 0, 73, 61
1, 348133, Note_off_c, 0, 76, 58
1, 348141, Control_c, 0, 67, 34
1, 348143, Note_off_c, 0, 83, 61
1, 348187, Control_c, 0, 67, 34
1, 348201, Control_c, 0, 67, 35
1, 348216, Control_c, 0, 64, 39
1, 348239, Note_on_c, 0, 75, 58
1, 348239, Note_on_c, 0, 83, 61
1, 348245, Note_on_c, 0, 71, 56
1, 348275, Control_c, 0, 64, 38
1, 348283, Note_off_c, 0, 71, 62
1, 348288, Note_off_c, 0, 83, 61
1, 348293, Note_off_c, 0, 75, 54
1, 348320, Control_c, 0, 64, 38
1, 348364, Control_c, 0, 64, 37
1, 348387, Control_c, 0, 64, 37
1, 348393, Note_on_c, 0, 69, 55
1, 348396, Note_on_c, 0, 78, 57
1, 348396, Note_on_c, 0, 83, 66
1, 348416, Control_c, 0, 64, 36
1, 348435, Note_off_c, 0, 69, 62
1, 348436, Note_off_c, 0, 78, 60
1, 348446, Note_off_c, 0, 83, 60
1, 348461, Control_c, 0, 67, 35
1, 348490, Control_c, 0, 67, 36
1, 348520, Control_c, 0, 64, 37
1, 348561, Note_on_c, 0, 83, 59
1, 348575, Note_on_c, 0, 68, 47
1, 348579, Control_c, 0, 64, 37
1, 348583, Note_on_c, 0, 76, 40
1, 348610, Note_off_c, 0, 68, 64
1, 348697, Control_c, 0, 64, 36
1, 348711, Note_on_c, 0, 69, 62
1, 348712, Control_c, 0, 64, 35
1, 348727, Control_c, 0, 64, 34
1, 348727, Control_c, 0, 67, 37
1, 348738, Note_off_c, 0, 76, 45
1, 348742, Control_c, 0, 64, 34
1, 348742, Control_c, 0, 67, 38
1, 348756, Note_off_c, 0, 69, 58
1, 348757, Control_c, 0, 67, 38
1, 348776, Note_off_c, 0, 83, 54
1, 348787, Control_c, 0, 64, 33
1, 348801, Control_c, 0, 67, 39
1, 348831, Control_c, 0, 67, 39
1, 348846, Control_c, 0, 64, 33
1, 348846, Control_c, 0, 67, 40
1, 348864, Note_on_c, 0, 71, 66
1, 348875, Control_c, 0, 64, 30
1, 348905, Control_c, 0, 64, 28
1, 348905, Control_c, 0, 67, 41
1, 348919, Note_off_c, 0, 71, 58
1, 348920, Control_c, 0, 67, 42
1, 348934, Control_c, 0, 64, 0
1, 348934, Control_c, 0, 67, 43
1, 348950, Control_c, 0, 67, 43
1, 348980, Control_c, 0, 67, 45
1, 348995, Control_c, 0, 67, 46
1, 349010, Control_c, 0, 67, 47
1, 349010, Note_on_c, 0, 69, 68
1, 349024, Control_c, 0, 67, 50
1, 349039, Control_c, 0, 67, 53
1, 349054, Control_c, 0, 67, 54
1, 349067, Note_off_c, 0, 69, 62
1, 349150, Control_c, 0, 67, 53
1, 349172, Note_on_c, 0, 68, 67
1, 349195, Control_c, 0, 67, 53
1, 349225, Control_c, 0, 67, 52
1, 349226, Note_off_c, 0, 68, 66
1, 349269, Control_c, 0, 67, 52
1, 349298, Control_c, 0, 67, 51
1, 349309, Note_on_c, 0, 66, 69
1, 349367, Note_off_c, 0, 66, 65
1, 349431, Control_c, 0, 67, 52
1, 349446, Control_c, 0, 67, 52
1, 349461, Control_c, 0, 67, 53
1, 349473, Note_on_c, 0, 64, 62
1, 349475, Control_c, 0, 67, 53
1, 349490, Control_c, 0, 67, 54
1, 349505, Control_c, 0, 67, 54
1, 349520, Control_c, 0, 67, 56
1, 349526, Note_off_c, 0, 64, 56
1, 349535, Control_c, 0, 67, 57
1, 349565, Control_c, 0, 67, 57
1, 349609, Control_c, 0, 67, 58
1, 349621, Note_on_c, 0, 63, 64
1, 349639, Control_c, 0, 67, 58
1, 349654, Control_c, 0, 67, 64
1, 349669, Control_c, 0, 67, 80
1, 349675, Note_off_c, 0, 63, 57
1, 349683, Control_c, 0, 67, 90
1, 349698, Control_c, 0, 67, 91
1, 349728, Control_c, 0, 67, 90
1, 349744, Control_c, 0, 67, 89
1, 349758, Control_c, 0, 67, 88
1, 349788, Control_c, 0, 67, 87
1, 349791, Note_on_c, 0, 64, 60
1, 349803, Control_c, 0, 67, 87
1, 349845, Note_off_c, 0, 64, 60
1, 349884, Control_c, 0, 67, 86
1, 349899, Control_c, 0, 67, 86
1, 349913, Control_c, 0, 67, 84
1, 349943, Control_c, 0, 67, 84
1, 349952, Note_on_c, 0, 65, 62
1, 350008, Note_off_c, 0, 65, 51
1, 350116, Note_on_c, 0, 66, 66
1, 350166, Control_c, 0, 67, 84
1, 350176, Note_off_c, 0, 66, 62
1, 350240, Control_c, 0, 67, 84
1, 350278, Note_on_c, 0, 76, 60
1, 350279, Note_on_c, 0, 64, 57
1, 350283, Note_on_c, 0, 68, 54
1, 350284, Control_c, 0, 67, 84
1, 350298, Control_c, 0, 67, 85
1, 350321, Note_off_c, 0, 68, 62
1, 350325, Note_off_c, 0, 64, 58
1, 350328, Control_c, 0, 67, 86
1, 350346, Note_off_c, 0, 76, 56
1, 350462, Control_c, 0, 67, 85
1, 350462, Note_on_c, 0, 76, 62
1, 350464, Note_on_c, 0, 63, 57
1, 350464, Note_on_c, 0, 66, 52
1, 350477, Control_c, 0, 67, 84
1, 350492, Control_c, 0, 67, 84
1, 350505, Note_off_c, 0, 63, 61
1, 350506, Control_c, 0, 67, 83
1, 350512, Note_off_c, 0, 66, 60
1, 350521, Control_c, 0, 67, 83
1, 350536, Control_c, 0, 67, 82
1, 350539, Note_off_c, 0, 76, 61
1, 350551, Control_c, 0, 67, 81
1, 350566, Control_c, 0, 67, 80
1, 350664, Note_on_c, 0, 76, 60
1, 350668, Note_on_c, 0, 64, 50
1, 350669, Note_on_c, 0, 62, 45
1, 350672, Note_on_c, 0, 68, 45
1, 350716, Note_off_c, 0, 68, 60
1, 350720, Note_off_c, 0, 62, 57
1, 350721, Note_off_c, 0, 64, 61
1, 350742, Note_off_c, 0, 76, 59
1, 350826, Control_c, 0, 67, 80
1, 350864, Note_on_c, 0, 76, 58
1, 350878, Note_on_c, 0, 61, 46
1, 350878, Note_on_c, 0, 69, 41
1, 350879, Note_on_c, 0, 64, 42
1, 350923, Note_off_c, 0, 61, 62
1, 350927, Note_off_c, 0, 64, 59
1, 350930, Note_off_c, 0, 69, 52
1, 350951, Note_off_c, 0, 76, 57
1, 351049, Control_c, 0, 67, 79
1, 351114, Note_on_c, 0, 76, 46
1, 351127, Note_on_c, 0, 62, 30
1, 351134, Note_on_c, 0, 59, 39
1, 351145, Note_on_c, 0, 68, 31
1, 351192, Note_off_c, 0, 62, 54
1, 351195, Note_off_c, 0, 68, 49
1, 351215, Note_off_c, 0, 59, 58
1, 351222, Note_off_c, 0, 76, 56
1, 351502, Note_on_c, 0, 76, 50
1, 351530, Control_c, 0, 67, 79
1, 351544, Note_on_c, 0, 69, 31
1, 351553, Note_on_c, 0, 57, 31
1, 351557, Note_on_c, 0, 61, 28
1, 351589, Control_c, 0, 67, 78
1, 351648, Control_c, 0, 67, 78
1, 351693, Control_c, 0, 67, 77
1, 351723, Control_c, 0, 67, 76
1, 351738, Control_c, 0, 67, 76
1, 351752, Control_c, 0, 67, 75
1, 351767, Control_c, 0, 64, 29
1, 351767, Control_c, 0, 67, 73
1, 351782, Control_c, 0, 64, 36
1, 351782, Control_c, 0, 67, 72
1, 351797, Control_c, 0, 64, 42
1, 351797, Control_c, 0, 67, 71
1, 351812, Control_c, 0, 64, 48
1, 351826, Control_c, 0, 64, 52
1, 351826, Control_c, 0, 67, 70
1, 351841, Control_c, 0, 64, 55
1, 351841, Control_c, 0, 67, 69
1, 351856, Control_c, 0, 64, 57
1, 351856, Control_c, 0, 67, 68
1, 351871, Control_c, 0, 64, 58
1, 351871, Control_c, 0, 67, 67
1, 351885, Control_c, 0, 64, 60
1, 351885, Control_c, 0, 67, 65
1, 351900, Control_c, 0, 64, 62
1, 351900, Control_c, 0, 67, 65
1, 351915, Control_c, 0, 64, 63
1, 351915, Control_c, 0, 67, 63
1, 351930, Control_c, 0, 64, 65
1, 351930, Control_c, 0, 67, 59
1, 351944, Control_c, 0, 64, 66
1, 351944, Control_c, 0, 67, 56
1, 351959, Control_c, 0, 64, 69
1, 351959, Control_c, 0, 67, 53
1, 351974, Control_c, 0, 64, 72
1, 351974, Control_c, 0, 67, 53
1, 351989, Control_c, 0, 64, 74
1, 351989, Control_c, 0, 67, 52
1, 352004, Control_c, 0, 64, 77
1, 352004, Control_c, 0, 67, 52
1, 352018, Control_c, 0, 64, 80
1, 352018, Control_c, 0, 67, 50
1, 352033, Control_c, 0, 64, 83
1, 352048, Control_c, 0, 64, 85
1, 352063, Control_c, 0, 64, 88
1, 352078, Control_c, 0, 64, 90
1, 352093, Control_c, 0, 64, 91
1, 352093, Control_c, 0, 67, 50
1, 352130, Control_c, 0, 67, 49
1, 352161, Control_c, 0, 67, 49
1, 352175, Control_c, 0, 67, 48
1, 352190, Control_c, 0, 67, 47
1, 352205, Control_c, 0, 67, 46
1, 352235, Control_c, 0, 67, 46
1, 352264, Control_c, 0, 67, 45
1, 352279, Control_c, 0, 67, 37
1, 352294, Control_c, 0, 67, 0
1, 352308, Control_c, 0, 64, 91
1, 352338, Control_c, 0, 64, 90
1, 352353, Control_c, 0, 64, 90
1, 352382, Control_c, 0, 64, 89
1, 352397, Control_c, 0, 64, 89
1, 352412, Control_c, 0, 64, 88
1, 352442, Control_c, 0, 64, 88
1, 352471, Control_c, 0, 64, 87
1, 352486, Control_c, 0, 64, 87
1, 352493, Note_on_c, 0, 81, 46
1, 352501, Control_c, 0, 64, 86
1, 352516, Control_c, 0, 64, 85
1, 352531, Control_c, 0, 64, 84
1, 352546, Control_c, 0, 64, 83
1, 352561, Control_c, 0, 64, 82
1, 352575, Control_c, 0, 64, 80
1, 352590, Control_c, 0, 64, 77
1, 352605, Control_c, 0, 64, 74
1, 352619, Control_c, 0, 64, 70
1, 352634, Control_c, 0, 64, 64
1, 352649, Control_c, 0, 64, 57
1, 352664, Control_c, 0, 64, 49
1, 352677, Note_on_c, 0, 80, 58
1, 352679, Control_c, 0, 64, 41
1, 352693, Control_c, 0, 64, 40
1, 352708, Control_c, 0, 64, 42
1, 352723, Control_c, 0, 64, 45
1, 352738, Control_c, 0, 64, 50
1, 352753, Control_c, 0, 64, 55
1, 352768, Control_c, 0, 64, 60
1, 352782, Control_c, 0, 64, 63
1, 352797, Control_c, 0, 64, 66
1, 352812, Control_c, 0, 64, 69
1, 352826, Control_c, 0, 64, 71
1, 352835, Note_on_c, 0, 78, 64
1, 352841, Control_c, 0, 64, 74
1, 352856, Control_c, 0, 64, 76
1, 352873, Note_off_c, 0, 76, 42
1, 352879, Control_c, 0, 64, 79
1, 352894, Control_c, 0, 64, 82
1, 352908, Control_c, 0, 64, 84
1, 352923, Control_c, 0, 64, 87
1, 352938, Control_c, 0, 64, 89
1, 352954, Control_c, 0, 64, 91
1, 352957, Note_off_c, 0, 69, 42
1, 352969, Note_off_c, 0, 57, 41
1, 352969, Control_c, 0, 64, 92
1, 352992, Note_on_c, 0, 76, 68
1, 352998, Control_c, 0, 64, 92
1, 352999, Note_off_c, 0, 61, 41
1, 353037, Note_off_c, 0, 81, 31
1, 353040, Note_off_c, 0, 80, 33
1, 353049, Note_off_c, 0, 78, 53
1, 353073, Note_off_c, 0, 76, 61
1, 353206, Note_on_c, 0, 76, 58
1, 353231, Note_on_c, 0, 62, 33
1, 353232, Note_on_c, 0, 68, 27
1, 353235, Control_c, 0, 64, 92
1, 353249, Control_c, 0, 64, 91
1, 353261, Note_on_c, 0, 59, 39
1, 353264, Control_c, 0, 64, 88
1, 353279, Control_c, 0, 64, 80
1, 353294, Control_c, 0, 64, 68
1, 353309, Control_c, 0, 64, 56
1, 353324, Control_c, 0, 64, 49
1, 353339, Control_c, 0, 64, 50
1, 353353, Control_c, 0, 64, 54
1, 353368, Control_c, 0, 64, 59
1, 353383, Control_c, 0, 64, 64
1, 353398, Control_c, 0, 64, 69
1, 353413, Control_c, 0, 64, 73
1, 353425, Note_off_c, 0, 76, 55
1, 353428, Control_c, 0, 64, 77
1, 353442, Control_c, 0, 64, 79
1, 353449, Note_off_c, 0, 59, 45
1, 353449, Note_off_c, 0, 68, 41
1, 353455, Note_off_c, 0, 62, 41
1, 353457, Control_c, 0, 64, 80
1, 353472, Control_c, 0, 64, 82
1, 353487, Control_c, 0, 64, 85
1, 353502, Control_c, 0, 64, 88
1, 353516, Control_c, 0, 64, 90
1, 353531, Control_c, 0, 64, 92
1, 353543, Note_on_c, 0, 76, 71
1, 353561, Control_c, 0, 64, 88
1, 353576, Control_c, 0, 64, 80
1, 353579, Note_on_c, 0, 62, 46
1, 353583, Note_on_c, 0, 59, 46
1, 353583, Note_on_c, 0, 68, 33
1, 353590, Control_c, 0, 64, 70
1, 353605, Control_c, 0, 64, 66
1, 353628, Control_c, 0, 64, 66
1, 353643, Control_c, 0, 64, 69
1, 353657, Control_c, 0, 64, 74
1, 353672, Control_c, 0, 64, 79
1, 353687, Control_c, 0, 64, 83
1, 353701, Control_c, 0, 64, 87
1, 353716, Control_c, 0, 64, 89
1, 353724, Note_off_c, 0, 76, 53
1, 353730, Control_c, 0, 64, 92
1, 353742, Note_off_c, 0, 62, 38
1, 353746, Control_c, 0, 64, 94
1, 353759, Note_off_c, 0, 68, 42
1, 353761, Control_c, 0, 64, 96
1, 353769, Note_off_c, 0, 59, 47
1, 353776, Control_c, 0, 64, 98
1, 353791, Control_c, 0, 64, 101
1, 353806, Control_c, 0, 64, 109
1, 353820, Control_c, 0, 64, 117
1, 353850, Control_c, 0, 64, 106
1, 353865, Control_c, 0, 64, 87
1, 353866, Note_on_c, 0, 76, 75
1, 353879, Control_c, 0, 64, 72
1, 353891, Note_on_c, 0, 59, 40
1, 353894, Control_c, 0, 64, 62
1, 353895, Note_on_c, 0, 62, 40
1, 353896, Note_on_c, 0, 68, 35
1, 353909, Control_c, 0, 64, 60
1, 353924, Control_c, 0, 64, 63
1, 353939, Control_c, 0, 64, 69
1, 353953, Control_c, 0, 64, 79
1, 353968, Control_c, 0, 64, 91
1, 353983, Control_c, 0, 64, 101
1, 353998, Control_c, 0, 64, 109
1, 354013, Control_c, 0, 64, 127
1, 354026, Note_off_c, 0, 76, 56
1, 354057, Note_off_c, 0, 59, 57
1, 354078, Note_off_c, 0, 68, 37
1, 354084, Note_off_c, 0, 62, 37
1, 354146, Control_c, 0, 64, 87
1, 354161, Control_c, 0, 64, 70
1, 354176, Control_c, 0, 64, 64
1, 354177, Note_on_c, 0, 76, 76
1, 354191, Control_c, 0, 64, 69
1, 354206, Control_c, 0, 64, 79
1, 354206, Note_on_c, 0, 62, 48
1, 354208, Note_on_c, 0, 68, 49
1, 354215, Note_on_c, 0, 59, 50
1, 354220, Control_c, 0, 64, 93
1, 354235, Control_c, 0, 64, 121
1, 354250, Control_c, 0, 64, 127
1, 354256, Note_off_c, 0, 76, 63
1, 354273, Note_off_c, 0, 62, 59
1, 354273, Note_off_c, 0, 68, 60
1, 354359, Note_off_c, 0, 59, 52
1, 354509, Control_c, 0, 64, 120
1, 354524, Note_on_c, 0, 76, 70
1, 354524, Control_c, 0, 64, 79
1, 354539, Control_c, 0, 64, 68
1, 354543, Note_on_c, 0, 64, 50
1, 354558, Note_on_c, 0, 69, 44
1, 354568, Note_on_c, 0, 61, 44
1, 354569, Control_c, 0, 64, 73
1, 354584, Control_c, 0, 64, 80
1, 354599, Control_c, 0, 64, 88
1, 354614, Control_c, 0, 64, 99
1, 354629, Control_c, 0, 64, 104
1, 354643, Control_c, 0, 64, 107
1, 354650, Note_off_c, 0, 61, 61
1, 354658, Control_c, 0, 64, 111
1, 354673, Control_c, 0, 64, 126
1, 354850, Control_c, 0, 64, 111
1, 354865, Control_c, 0, 64, 96
1, 354874, Note_on_c, 0, 73, 72
1, 354880, Control_c, 0, 64, 81
1, 354883, Note_on_c, 0, 61, 50
1, 354889, Note_on_c, 0, 57, 47
1, 354895, Control_c, 0, 64, 67
1, 354908, Note_off_c, 0, 64, 41
1, 354909, Control_c, 0, 64, 52
1, 354924, Control_c, 0, 64, 0
1, 354988, Note_off_c, 0, 76, 59
1, 354999, Control_c, 0, 64, 45
1, 355013, Control_c, 0, 64, 59
1, 355028, Control_c, 0, 64, 65
1, 355035, Note_off_c, 0, 69, 55
1, 355043, Control_c, 0, 64, 69
1, 355058, Control_c, 0, 64, 73
1, 355073, Control_c, 0, 64, 76
1, 355087, Note_off_c, 0, 61, 51
1, 355087, Control_c, 0, 64, 80
1, 355088, Note_off_c, 0, 57, 59
1, 355102, Control_c, 0, 64, 84
1, 355124, Control_c, 0, 64, 87
1, 355139, Control_c, 0, 64, 88
1, 355199, Control_c, 0, 64, 88
1, 355302, Control_c, 0, 64, 88
1, 355309, Note_on_c, 0, 78, 63
1, 355332, Control_c, 0, 64, 87
1, 355338, Note_on_c, 0, 69, 42
1, 355340, Note_on_c, 0, 66, 36
1, 355348, Control_c, 0, 64, 86
1, 355349, Note_on_c, 0, 62, 41
1, 355363, Control_c, 0, 64, 84
1, 355374, Note_off_c, 0, 73, 58
1, 355377, Control_c, 0, 64, 82
1, 355392, Control_c, 0, 64, 80
1, 355407, Control_c, 0, 64, 77
1, 355422, Control_c, 0, 64, 73
1, 355437, Control_c, 0, 64, 69
1, 355451, Control_c, 0, 64, 64
1, 355466, Control_c, 0, 64, 58
1, 355481, Control_c, 0, 64, 51
1, 355496, Control_c, 0, 64, 40
1, 355511, Control_c, 0, 64, 0
1, 355585, Control_c, 0, 64, 36
1, 355599, Control_c, 0, 64, 48
1, 355614, Control_c, 0, 64, 57
1, 355629, Control_c, 0, 64, 63
1, 355643, Control_c, 0, 64, 67
1, 355658, Control_c, 0, 64, 71
1, 355673, Control_c, 0, 64, 73
1, 355688, Control_c, 0, 64, 76
1, 355703, Control_c, 0, 64, 80
1, 355717, Control_c, 0, 64, 83
1, 355732, Control_c, 0, 64, 86
1, 355747, Control_c, 0, 64, 90
1, 355762, Control_c, 0, 64, 92
1, 355777, Control_c, 0, 64, 95
1, 355807, Control_c, 0, 64, 97
1, 355820, Note_off_c, 0, 69, 37
1, 355873, Control_c, 0, 64, 99
1, 355884, Note_off_c, 0, 66, 38
1, 355920, Note_off_c, 0, 62, 53
1, 356164, Note_on_c, 0, 76, 51
1, 356173, Note_off_c, 0, 78, 57
1, 356195, Note_on_c, 0, 69, 37
1, 356215, Note_on_c, 0, 61, 36
1, 356220, Note_on_c, 0, 64, 35
1, 356230, Control_c, 0, 64, 94
1, 356245, Control_c, 0, 64, 86
1, 356260, Control_c, 0, 64, 73
1, 356274, Control_c, 0, 64, 60
1, 356289, Control_c, 0, 64, 47
1, 356304, Control_c, 0, 64, 44
1, 356319, Control_c, 0, 64, 48
1, 356333, Control_c, 0, 64, 57
1, 356348, Control_c, 0, 64, 65
1, 356363, Control_c, 0, 64, 75
1, 356363, Control_c, 0, 67, 37
1, 356366, Note_off_c, 0, 61, 56
1, 356378, Control_c, 0, 64, 83
1, 356378, Control_c, 0, 67, 63
1, 356393, Control_c, 0, 64, 87
1, 356393, Control_c, 0, 67, 88
1, 356408, Control_c, 0, 64, 90
1, 356408, Control_c, 0, 67, 112
1, 356422, Control_c, 0, 64, 93
1, 356422, Control_c, 0, 67, 127
1, 356437, Control_c, 0, 64, 96
1, 356452, Control_c, 0, 64, 99
1, 356582, Note_on_c, 0, 73, 56
1, 356585, Control_c, 0, 64, 94
1, 356600, Control_c, 0, 64, 87
1, 356622, Control_c, 0, 64, 76
1, 356632, Note_on_c, 0, 61, 34
1, 356637, Control_c, 0, 64, 63
1, 356641, Note_on_c, 0, 57, 37
1, 356652, Control_c, 0, 64, 46
1, 356666, Control_c, 0, 64, 33
1, 356681, Control_c, 0, 64, 36
1, 356696, Control_c, 0, 64, 47
1, 356711, Control_c, 0, 64, 58
1, 356726, Control_c, 0, 64, 66
1, 356728, Note_off_c, 0, 64, 47
1, 356740, Control_c, 0, 64, 71
1, 356755, Control_c, 0, 64, 75
1, 356770, Control_c, 0, 64, 77
1, 356779, Note_off_c, 0, 76, 23
1, 356785, Control_c, 0, 64, 80
1, 356799, Control_c, 0, 64, 83
1, 356814, Note_off_c, 0, 61, 55
1, 356814, Control_c, 0, 64, 85
1, 356817, Note_off_c, 0, 69, 38
1, 356822, Note_off_c, 0, 57, 36
1, 356829, Control_c, 0, 64, 87
1, 356844, Control_c, 0, 64, 88
1, 356920, Note_off_c, 0, 73, 38
1, 357068, Control_c, 0, 64, 87
1, 357127, Control_c, 0, 64, 87
1, 357154, Note_on_c, 0, 71, 43
1, 357157, Control_c, 0, 64, 86
1, 357171, Control_c, 0, 64, 86
1, 357181, Note_on_c, 0, 68, 41
1, 357182, Note_on_c, 0, 59, 37
1, 357186, Control_c, 0, 64, 85
1, 357192, Note_on_c, 0, 52, 35
1, 357201, Control_c, 0, 64, 85
1, 357216, Control_c, 0, 64, 84
1, 357231, Control_c, 0, 64, 83
1, 357245, Control_c, 0, 64, 82
1, 357260, Control_c, 0, 64, 80
1, 357275, Control_c, 0, 64, 79
1, 357289, Control_c, 0, 64, 77
1, 357304, Control_c, 0, 64, 74
1, 357319, Control_c, 0, 64, 72
1, 357334, Control_c, 0, 64, 68
1, 357349, Control_c, 0, 64, 64
1, 357371, Control_c, 0, 64, 60
1, 357386, Control_c, 0, 64, 57
1, 357401, Control_c, 0, 64, 55
1, 357415, Control_c, 0, 64, 53
1, 357430, Control_c, 0, 64, 50
1, 357445, Control_c, 0, 64, 47
1, 357460, Control_c, 0, 64, 43
1, 357475, Control_c, 0, 64, 40
1, 357490, Control_c, 0, 64, 38
1, 357504, Control_c, 0, 64, 34
1, 357519, Control_c, 0, 64, 29
1, 357534, Control_c, 0, 64, 0
1, 357980, Control_c, 0, 64, 38
1, 357994, Control_c, 0, 64, 44
1, 358009, Control_c, 0, 64, 48
1, 358024, Control_c, 0, 64, 51
1, 358038, Control_c, 0, 64, 54
1, 358053, Control_c, 0, 64, 58
1, 358068, Control_c, 0, 64, 60
1, 358083, Control_c, 0, 64, 62
1, 358098, Control_c, 0, 64, 63
1, 358120, Control_c, 0, 64, 64
1, 358135, Control_c, 0, 64, 66
1, 358150, Control_c, 0, 64, 67
1, 358165, Control_c, 0, 64, 69
1, 358180, Control_c, 0, 64, 71
1, 358194, Control_c, 0, 64, 73
1, 358209, Control_c, 0, 64, 74
1, 358224, Control_c, 0, 64, 75
1, 358238, Control_c, 0, 64, 76
1, 358253, Control_c, 0, 64, 78
1, 358268, Control_c, 0, 64, 79
1, 358283, Control_c, 0, 64, 80
1, 358298, Control_c, 0, 64, 80
1, 358312, Control_c, 0, 64, 81
1, 358327, Control_c, 0, 64, 81
1, 358373, Note_off_c, 0, 52, 40
1, 358375, Note_off_c, 0, 59, 39
1, 358401, Control_c, 0, 64, 82
1, 358460, Note_off_c, 0, 68, 33
1, 358473, Note_off_c, 0, 71, 36
1, 358639, Control_c, 0, 64, 81
1, 358713, Control_c, 0, 64, 81
1, 358728, Control_c, 0, 64, 80
1, 358758, Control_c, 0, 64, 80
1, 358773, Control_c, 0, 64, 79
1, 358788, Control_c, 0, 64, 79
1, 358803, Control_c, 0, 64, 78
1, 358817, Control_c, 0, 64, 77
1, 358832, Control_c, 0, 64, 76
1, 358847, Control_c, 0, 64, 75
1, 358868, Control_c, 0, 64, 74
1, 358883, Control_c, 0, 64, 73
1, 358898, Control_c, 0, 64, 71
1, 358913, Control_c, 0, 64, 69
1, 358928, Control_c, 0, 64, 67
1, 358943, Control_c, 0, 64, 65
1, 358958, Control_c, 0, 64, 63
1, 358972, Control_c, 0, 64, 60
1, 358987, Control_c, 0, 64, 59
1, 359002, Control_c, 0, 64, 57
1, 359017, Control_c, 0, 64, 54
1, 359032, Control_c, 0, 64, 51
1, 359047, Control_c, 0, 64, 48
1, 359061, Control_c, 0, 64, 44
1, 359076, Control_c, 0, 64, 40
1, 359091, Control_c, 0, 64, 34
1, 359106, Control_c, 0, 64, 0
1, 359344, Control_c, 0, 64, 30
1, 359358, Control_c, 0, 64, 37
1, 359373, Control_c, 0, 64, 45
1, 359388, Control_c, 0, 64, 50
1, 359403, Control_c, 0, 64, 53
1, 359417, Control_c, 0, 64, 55
1, 359432, Control_c, 0, 64, 57
1, 359447, Control_c, 0, 64, 59
1, 359462, Control_c, 0, 64, 59
1, 359477, Control_c, 0, 64, 60
1, 359491, Control_c, 0, 64, 60
1, 359506, Control_c, 0, 64, 61
1, 359521, Control_c, 0, 64, 61
1, 359551, Control_c, 0, 64, 62
1, 359566, Control_c, 0, 64, 62
1, 359581, Control_c, 0, 64, 63
1, 359595, Control_c, 0, 64, 64
1, 359617, Control_c, 0, 64, 65
1, 359622, Note_on_c, 0, 83, 40
1, 359631, Note_on_c, 0, 71, 23
1, 359632, Control_c, 0, 64, 66
1, 359647, Control_c, 0, 64, 67
1, 359662, Control_c, 0, 64, 67
1, 359677, Control_c, 0, 64, 68
1, 359691, Control_c, 0, 64, 69
1, 359706, Control_c, 0, 64, 69
1, 359721, Control_c, 0, 64, 70
1, 359736, Control_c, 0, 64, 70
1, 359751, Control_c, 0, 64, 71
1, 359780, Control_c, 0, 64, 71
1, 359810, Control_c, 0, 64, 72
1, 359810, Note_on_c, 0, 85, 55
1, 359817, Note_on_c, 0, 73, 36
1, 359831, Note_off_c, 0, 71, 40
1, 359855, Control_c, 0, 64, 72
1, 359870, Control_c, 0, 64, 73
1, 359899, Control_c, 0, 64, 73
1, 359914, Control_c, 0, 64, 74
1, 359929, Control_c, 0, 64, 74
1, 359944, Control_c, 0, 64, 75
1, 359956, Note_off_c, 0, 73, 53
1, 359958, Control_c, 0, 64, 76
1, 359974, Note_off_c, 0, 83, 37
1, 359976, Note_on_c, 0, 86, 64
1, 359981, Note_on_c, 0, 74, 48
1, 359988, Control_c, 0, 64, 76
1, 360003, Control_c, 0, 64, 77
1, 360031, Note_off_c, 0, 85, 57
1, 360035, Note_off_c, 0, 74, 56
1, 360084, Note_off_c, 0, 86, 55
1, 360245, Note_on_c, 0, 81, 43
1, 360246, Note_on_c, 0, 88, 52
1, 360255, Control_c, 0, 64, 76
1, 360256, Note_on_c, 0, 73, 31
1, 360260, Note_on_c, 0, 76, 34
1, 360270, Control_c, 0, 64, 76
1, 360283, Note_on_c, 0, 69, 32
1, 360285, Control_c, 0, 64, 75
1, 360300, Control_c, 0, 64, 74
1, 360314, Control_c, 0, 64, 73
1, 360329, Control_c, 0, 64, 71
1, 360344, Control_c, 0, 64, 69
1, 360367, Control_c, 0, 64, 66
1, 360382, Control_c, 0, 64, 63
1, 360396, Control_c, 0, 64, 58
1, 360411, Control_c, 0, 64, 51
1, 360426, Control_c, 0, 64, 43
1, 360441, Control_c, 0, 64, 0
1, 360575, Control_c, 0, 64, 33
1, 360589, Control_c, 0, 64, 43
1, 360604, Control_c, 0, 64, 50
1, 360619, Control_c, 0, 64, 55
1, 360633, Control_c, 0, 64, 59
1, 360648, Control_c, 0, 64, 61
1, 360663, Control_c, 0, 64, 63
1, 360678, Control_c, 0, 64, 65
1, 360693, Control_c, 0, 64, 66
1, 360707, Control_c, 0, 64, 68
1, 360722, Control_c, 0, 64, 69
1, 360737, Control_c, 0, 64, 71
1, 360752, Control_c, 0, 64, 73
1, 360767, Control_c, 0, 64, 74
1, 360782, Control_c, 0, 64, 76
1, 360797, Control_c, 0, 64, 78
1, 360805, Note_off_c, 0, 76, 42
1, 360812, Control_c, 0, 64, 80
1, 360827, Control_c, 0, 64, 82
1, 360841, Control_c, 0, 64, 85
1, 360856, Control_c, 0, 64, 86
1, 360871, Control_c, 0, 64, 86
1, 360885, Note_off_c, 0, 81, 48
1, 360886, Control_c, 0, 64, 87
1, 360915, Control_c, 0, 64, 87
1, 360961, Control_c, 0, 64, 88
1, 361128, Note_on_c, 0, 93, 54
1, 361158, Note_on_c, 0, 81, 33
1, 361190, Control_c, 0, 64, 87
1, 361205, Control_c, 0, 64, 86
1, 361220, Control_c, 0, 64, 83
1, 361235, Control_c, 0, 64, 79
1, 361250, Control_c, 0, 64, 76
1, 361264, Control_c, 0, 64, 76
1, 361288, Note_off_c, 0, 81, 43
1, 361307, Note_on_c, 0, 92, 67
1, 361309, Control_c, 0, 64, 76
1, 361316, Note_on_c, 0, 80, 45
1, 361324, Control_c, 0, 64, 77
1, 361338, Control_c, 0, 64, 78
1, 361353, Control_c, 0, 64, 78
1, 361368, Control_c, 0, 64, 79
1, 361374, Note_off_c, 0, 88, 39
1, 361397, Control_c, 0, 64, 79
1, 361412, Control_c, 0, 64, 80
1, 361427, Control_c, 0, 64, 81
1, 361442, Control_c, 0, 64, 81
1, 361456, Control_c, 0, 64, 82
1, 361467, Note_on_c, 0, 90, 70
1, 361477, Note_off_c, 0, 80, 52
1, 361491, Note_on_c, 0, 78, 47
1, 361491, Note_off_c, 0, 93, 47
1, 361501, Control_c, 0, 64, 82
1, 361561, Note_off_c, 0, 92, 61
1, 361596, Note_off_c, 0, 78, 59
1, 361621, Note_on_c, 0, 88, 68
1, 361628, Note_off_c, 0, 73, 40
1, 361646, Note_off_c, 0, 90, 62
1, 361657, Note_on_c, 0, 76, 37
1, 361670, Note_off_c, 0, 88, 65
1, 361671, Note_off_c, 0, 69, 43
1, 361690, Note_off_c, 0, 76, 52
1, 361769, Control_c, 0, 64, 82
1, 361783, Control_c, 0, 64, 81
1, 361798, Control_c, 0, 64, 80
1, 361813, Control_c, 0, 64, 79
1, 361828, Control_c, 0, 64, 76
1, 361833, Note_on_c, 0, 88, 58
1, 361843, Control_c, 0, 64, 71
1, 361859, Note_on_c, 0, 80, 43
1, 361865, Control_c, 0, 64, 62
1, 361879, Control_c, 0, 64, 52
1, 361882, Note_on_c, 0, 74, 33
1, 361882, Note_on_c, 0, 71, 43
1, 361884, Note_on_c, 0, 76, 17
1, 361894, Control_c, 0, 64, 47
1, 361909, Control_c, 0, 64, 48
1, 361924, Control_c, 0, 64, 52
1, 361938, Control_c, 0, 64, 57
1, 361938, Control_c, 0, 67, 124
1, 361953, Control_c, 0, 64, 61
1, 361953, Control_c, 0, 67, 106
1, 361968, Control_c, 0, 64, 65
1, 361968, Control_c, 0, 67, 98
1, 361983, Control_c, 0, 64, 69
1, 361997, Note_off_c, 0, 80, 51
1, 361998, Control_c, 0, 64, 72
1, 362012, Note_off_c, 0, 88, 61
1, 362012, Control_c, 0, 64, 74
1, 362016, Note_off_c, 0, 76, 43
1, 362018, Note_off_c, 0, 71, 37
1, 362025, Note_off_c, 0, 74, 36
1, 362027, Control_c, 0, 64, 75
1, 362027, Control_c, 0, 67, 96
1, 362042, Control_c, 0, 64, 76
1, 362042, Control_c, 0, 67, 95
1, 362057, Control_c, 0, 64, 77
1, 362057, Control_c, 0, 67, 95
1, 362072, Control_c, 0, 64, 78
1, 362086, Control_c, 0, 64, 79
1, 362086, Control_c, 0, 67, 93
1, 362101, Control_c, 0, 64, 79
1, 362101, Control_c, 0, 67, 91
1, 362116, Control_c, 0, 64, 80
1, 362116, Control_c, 0, 67, 90
1, 362131, Control_c, 0, 64, 80
1, 362131, Control_c, 0, 67, 74
1, 362146, Control_c, 0, 67, 50
1, 362160, Control_c, 0, 67, 0
1, 362175, Control_c, 0, 64, 77
1, 362185, Note_on_c, 0, 88, 72
1, 362190, Control_c, 0, 64, 70
1, 362196, Note_on_c, 0, 74, 29
1, 362199, Note_on_c, 0, 76, 37
1, 362204, Control_c, 0, 64, 65
1, 362207, Note_on_c, 0, 71, 37
1, 362219, Control_c, 0, 64, 64
1, 362220, Note_on_c, 0, 80, 41
1, 362234, Control_c, 0, 64, 65
1, 362249, Control_c, 0, 64, 68
1, 362264, Control_c, 0, 64, 70
1, 362278, Control_c, 0, 64, 72
1, 362293, Control_c, 0, 64, 74
1, 362308, Control_c, 0, 64, 77
1, 362323, Control_c, 0, 64, 80
1, 362326, Note_off_c, 0, 71, 0
1, 362328, Note_off_c, 0, 80, 39
1, 362338, Control_c, 0, 64, 84
1, 362344, Note_off_c, 0, 88, 59
1, 362349, Note_off_c, 0, 74, 36
1, 362353, Control_c, 0, 64, 85
1, 362355, Note_off_c, 0, 76, 44
1, 362364, Poly_aftertouch_c, 0, 71, 0
1, 362368, Control_c, 0, 64, 86
1, 362383, Control_c, 0, 64, 87
1, 362398, Control_c, 0, 64, 87
1, 362412, Control_c, 0, 64, 88
1, 362442, Control_c, 0, 64, 88
1, 362457, Control_c, 0, 64, 89
1, 362472, Control_c, 0, 64, 90
1, 362501, Control_c, 0, 64, 90
1, 362508, Note_on_c, 0, 88, 77
1, 362516, Control_c, 0, 64, 85
1, 362529, Note_on_c, 0, 76, 36
1, 362530, Note_on_c, 0, 71, 38
1, 362532, Control_c, 0, 64, 75
1, 362535, Note_on_c, 0, 74, 39
1, 362537, Note_on_c, 0, 80, 49
1, 362547, Control_c, 0, 64, 65
1, 362561, Control_c, 0, 64, 58
1, 362576, Control_c, 0, 64, 59
1, 362591, Control_c, 0, 64, 63
1, 362613, Control_c, 0, 64, 68
1, 362628, Control_c, 0, 64, 74
1, 362642, Control_c, 0, 64, 79
1, 362657, Control_c, 0, 64, 82
1, 362663, Note_off_c, 0, 80, 37
1, 362672, Control_c, 0, 64, 86
1, 362687, Control_c, 0, 64, 93
1, 362702, Control_c, 0, 64, 97
1, 362712, Note_off_c, 0, 76, 45
1, 362714, Note_off_c, 0, 74, 36
1, 362716, Control_c, 0, 64, 100
1, 362722, Note_off_c, 0, 88, 59
1, 362724, Note_off_c, 0, 71, 36
1, 362746, Control_c, 0, 64, 103
1, 362776, Control_c, 0, 64, 105
1, 362835, Control_c, 0, 64, 107
1, 362843, Note_on_c, 0, 88, 71
1, 362862, Note_on_c, 0, 74, 43
1, 362865, Note_on_c, 0, 80, 58
1, 362867, Note_on_c, 0, 76, 45
1, 362871, Note_on_c, 0, 71, 43
1, 362880, Control_c, 0, 64, 110
1, 362895, Control_c, 0, 64, 113
1, 362909, Control_c, 0, 64, 117
1, 362918, Note_off_c, 0, 74, 59
1, 362924, Control_c, 0, 64, 126
1, 362955, Note_off_c, 0, 76, 53
1, 362972, Note_off_c, 0, 80, 46
1, 362997, Note_off_c, 0, 88, 58
1, 363003, Note_off_c, 0, 71, 35
1, 363201, Note_on_c, 0, 88, 72
1, 363205, Control_c, 0, 64, 108
1, 363220, Control_c, 0, 64, 94
1, 363225, Note_on_c, 0, 81, 49
1, 363231, Note_on_c, 0, 72, 46
1, 363232, Note_on_c, 0, 76, 49
1, 363235, Control_c, 0, 64, 79
1, 363250, Control_c, 0, 64, 65
1, 363265, Control_c, 0, 64, 55
1, 363280, Control_c, 0, 64, 54
1, 363295, Control_c, 0, 64, 59
1, 363309, Control_c, 0, 64, 62
1, 363325, Control_c, 0, 64, 68
1, 363339, Control_c, 0, 64, 74
1, 363362, Note_off_c, 0, 72, 53
1, 363362, Control_c, 0, 64, 80
1, 363377, Control_c, 0, 64, 82
1, 363392, Control_c, 0, 64, 86
1, 363406, Control_c, 0, 64, 89
1, 363421, Control_c, 0, 64, 91
1, 363437, Control_c, 0, 64, 92
1, 363452, Control_c, 0, 64, 93
1, 363466, Control_c, 0, 64, 94
1, 363481, Control_c, 0, 64, 95
1, 363511, Control_c, 0, 64, 94
1, 363526, Control_c, 0, 64, 86
1, 363540, Control_c, 0, 64, 72
1, 363551, Note_on_c, 0, 84, 74
1, 363555, Control_c, 0, 64, 60
1, 363570, Control_c, 0, 64, 53
1, 363571, Note_on_c, 0, 72, 42
1, 363584, Note_on_c, 0, 69, 37
1, 363584, Control_c, 0, 64, 55
1, 363599, Control_c, 0, 64, 59
1, 363605, Note_off_c, 0, 81, 58
1, 363614, Control_c, 0, 64, 62
1, 363629, Control_c, 0, 64, 65
1, 363635, Note_off_c, 0, 76, 38
1, 363644, Control_c, 0, 64, 69
1, 363658, Control_c, 0, 64, 76
1, 363673, Control_c, 0, 64, 83
1, 363679, Note_off_c, 0, 88, 57
1, 363688, Control_c, 0, 64, 88
1, 363689, Note_off_c, 0, 72, 47
1, 363701, Note_off_c, 0, 69, 50
1, 363703, Control_c, 0, 64, 92
1, 363718, Control_c, 0, 64, 95
1, 363733, Control_c, 0, 64, 98
1, 363748, Control_c, 0, 64, 100
1, 363911, Control_c, 0, 64, 98
1, 363940, Control_c, 0, 64, 95
1, 363941, Note_on_c, 0, 81, 57
1, 363945, Note_on_c, 0, 89, 51
1, 363955, Control_c, 0, 64, 93
1, 363970, Control_c, 0, 64, 91
1, 363971, Note_on_c, 0, 77, 37
1, 363984, Note_on_c, 0, 74, 34
1, 363984, Control_c, 0, 64, 89
1, 363992, Note_off_c, 0, 84, 55
1, 363999, Control_c, 0, 64, 86
1, 364014, Control_c, 0, 64, 82
1, 364029, Control_c, 0, 64, 77
1, 364044, Control_c, 0, 64, 72
1, 364058, Control_c, 0, 64, 65
1, 364073, Control_c, 0, 64, 58
1, 364088, Control_c, 0, 64, 48
1, 364111, Control_c, 0, 64, 0
1, 364186, Control_c, 0, 64, 43
1, 364201, Control_c, 0, 64, 55
1, 364215, Control_c, 0, 64, 62
1, 364230, Control_c, 0, 64, 66
1, 364245, Control_c, 0, 64, 69
1, 364260, Control_c, 0, 64, 72
1, 364275, Control_c, 0, 64, 75
1, 364289, Control_c, 0, 64, 79
1, 364304, Control_c, 0, 64, 84
1, 364319, Control_c, 0, 64, 90
1, 364323, Note_on_c, 0, 83, 60
1, 364334, Control_c, 0, 64, 94
1, 364349, Control_c, 0, 64, 97
1, 364363, Control_c, 0, 64, 99
1, 364393, Control_c, 0, 64, 101
1, 364401, Note_off_c, 0, 81, 39
1, 364429, Note_off_c, 0, 77, 37
1, 364430, Note_off_c, 0, 74, 43
1, 364575, Note_off_c, 0, 83, 44
1, 364689, Control_c, 0, 64, 98
1, 364719, Control_c, 0, 64, 95
1, 364727, Note_on_c, 0, 84, 48
1, 364729, Note_on_c, 0, 88, 54
1, 364734, Control_c, 0, 64, 94
1, 364741, Note_on_c, 0, 72, 39
1, 364742, Note_on_c, 0, 76, 43
1, 364748, Control_c, 0, 64, 90
1, 364763, Control_c, 0, 64, 84
1, 364778, Control_c, 0, 64, 74
1, 364793, Control_c, 0, 64, 62
1, 364807, Control_c, 0, 64, 48
1, 364807, Control_c, 0, 67, 35
1, 364822, Control_c, 0, 64, 43
1, 364822, Control_c, 0, 67, 48
1, 364837, Control_c, 0, 64, 48
1, 364837, Control_c, 0, 67, 63
1, 364860, Control_c, 0, 64, 57
1, 364860, Control_c, 0, 67, 82
1, 364875, Control_c, 0, 64, 64
1, 364875, Control_c, 0, 67, 105
1, 364889, Control_c, 0, 64, 72
1, 364889, Control_c, 0, 67, 121
1, 364904, Control_c, 0, 64, 81
1, 364904, Control_c, 0, 67, 127
1, 364908, Note_off_c, 0, 72, 61
1, 364919, Control_c, 0, 64, 87
1, 364934, Note_off_c, 0, 84, 51
1, 364934, Control_c, 0, 64, 91
1, 364949, Control_c, 0, 64, 94
1, 364964, Control_c, 0, 64, 97
1, 364979, Control_c, 0, 64, 101
1, 364994, Control_c, 0, 64, 104
1, 365046, Note_off_c, 0, 89, 30
1, 365146, Note_off_c, 0, 76, 34
1, 365178, Note_on_c, 0, 84, 53
1, 365180, Note_on_c, 0, 79, 43
1, 365208, Note_on_c, 0, 72, 28
1, 365226, Note_off_c, 0, 88, 38
1, 365230, Control_c, 0, 64, 102
1, 365245, Control_c, 0, 64, 95
1, 365246, Poly_aftertouch_c, 0, 64, 127
1, 365260, Control_c, 0, 64, 86
1, 365275, Control_c, 0, 64, 77
1, 365290, Control_c, 0, 64, 70
1, 365304, Control_c, 0, 64, 67
1, 365319, Control_c, 0, 64, 68
1, 365334, Control_c, 0, 64, 71
1, 365349, Control_c, 0, 64, 74
1, 365364, Control_c, 0, 64, 77
1, 365378, Control_c, 0, 64, 79
1, 365393, Control_c, 0, 64, 82
1, 365408, Control_c, 0, 64, 85
1, 365423, Control_c, 0, 64, 90
1, 365432, Note_off_c, 0, 79, 36
1, 365438, Control_c, 0, 64, 94
1, 365453, Control_c, 0, 64, 97
1, 365460, Poly_aftertouch_c, 0, 64, 0
1, 365468, Control_c, 0, 64, 99
1, 365489, Note_off_c, 0, 72, 41
1, 365512, Note_off_c, 0, 84, 56
1, 365775, Note_on_c, 0, 86, 43
1, 365785, Note_on_c, 0, 83, 43
1, 365793, Note_on_c, 0, 74, 43
1, 365801, Control_c, 0, 64, 97
1, 365810, Note_on_c, 0, 67, 30
1, 365816, Control_c, 0, 64, 96
1, 365831, Control_c, 0, 64, 95
1, 365846, Control_c, 0, 64, 93
1, 365860, Control_c, 0, 64, 91
1, 365875, Control_c, 0, 64, 90
1, 365890, Control_c, 0, 64, 87
1, 365905, Control_c, 0, 64, 85
1, 365920, Control_c, 0, 64, 83
1, 365934, Control_c, 0, 64, 81
1, 365949, Control_c, 0, 64, 78
1, 365964, Control_c, 0, 64, 76
1, 365978, Control_c, 0, 64, 73
1, 365993, Control_c, 0, 64, 70
1, 366008, Control_c, 0, 64, 67
1, 366023, Control_c, 0, 64, 65
1, 366038, Control_c, 0, 64, 64
1, 366052, Control_c, 0, 64, 63
1, 366067, Control_c, 0, 64, 62
1, 366082, Control_c, 0, 64, 61
1, 366097, Control_c, 0, 64, 59
1, 366112, Control_c, 0, 64, 58
1, 366127, Control_c, 0, 64, 57
1, 366142, Control_c, 0, 64, 56
1, 366156, Control_c, 0, 64, 55
1, 366186, Control_c, 0, 64, 55
1, 366201, Control_c, 0, 64, 54
1, 366216, Control_c, 0, 64, 54
1, 366231, Control_c, 0, 64, 53
1, 366245, Control_c, 0, 64, 52
1, 366260, Control_c, 0, 64, 52
1, 366275, Control_c, 0, 64, 51
1, 366290, Control_c, 0, 64, 50
1, 366305, Control_c, 0, 64, 49
1, 366319, Control_c, 0, 64, 48
1, 366356, Control_c, 0, 64, 48
1, 366371, Control_c, 0, 64, 47
1, 366386, Control_c, 0, 64, 47
1, 366401, Control_c, 0, 64, 46
1, 366416, Control_c, 0, 64, 46
1, 366431, Control_c, 0, 64, 45
1, 366639, Control_c, 0, 64, 46
1, 366654, Control_c, 0, 64, 46
1, 366669, Control_c, 0, 64, 47
1, 366683, Control_c, 0, 64, 48
1, 366698, Control_c, 0, 64, 50
1, 366713, Control_c, 0, 64, 52
1, 366728, Control_c, 0, 64, 54
1, 366743, Control_c, 0, 64, 56
1, 366757, Control_c, 0, 64, 58
1, 366772, Control_c, 0, 64, 60
1, 366787, Control_c, 0, 64, 61
1, 366801, Control_c, 0, 64, 62
1, 366816, Control_c, 0, 64, 63
1, 366831, Control_c, 0, 64, 65
1, 366846, Control_c, 0, 64, 67
1, 366861, Control_c, 0, 64, 68
1, 366875, Control_c, 0, 64, 69
1, 366890, Control_c, 0, 64, 70
1, 366905, Control_c, 0, 64, 71
1, 366920, Control_c, 0, 64, 74
1, 366935, Control_c, 0, 64, 76
1, 366949, Control_c, 0, 64, 78
1, 366964, Control_c, 0, 64, 79
1, 366979, Control_c, 0, 64, 80
1, 366994, Control_c, 0, 64, 81
1, 367009, Control_c, 0, 64, 83
1, 367024, Control_c, 0, 64, 85
1, 367039, Control_c, 0, 64, 86
1, 367054, Control_c, 0, 64, 87
1, 367068, Control_c, 0, 64, 88
1, 367083, Control_c, 0, 64, 89
1, 367105, Control_c, 0, 64, 89
1, 367120, Control_c, 0, 64, 90
1, 367146, Note_off_c, 0, 67, 30
1, 367149, Control_c, 0, 64, 90
1, 367180, Note_off_c, 0, 74, 37
1, 367236, Note_off_c, 0, 86, 40
1, 367236, Note_off_c, 0, 83, 32
1, 367565, Control_c, 0, 64, 90
1, 367624, Control_c, 0, 64, 89
1, 367654, Control_c, 0, 64, 89
1, 367669, Control_c, 0, 64, 88
1, 367684, Control_c, 0, 64, 88
1, 367698, Control_c, 0, 64, 87
1, 367713, Control_c, 0, 64, 86
1, 367728, Control_c, 0, 64, 85
1, 367743, Control_c, 0, 64, 84
1, 367757, Control_c, 0, 64, 83
1, 367772, Control_c, 0, 64, 82
1, 367787, Control_c, 0, 64, 81
1, 367802, Control_c, 0, 64, 79
1, 367817, Control_c, 0, 64, 78
1, 367832, Control_c, 0, 64, 76
1, 367854, Control_c, 0, 64, 74
1, 367869, Control_c, 0, 64, 72
1, 367884, Control_c, 0, 64, 68
1, 367898, Control_c, 0, 64, 64
1, 367913, Control_c, 0, 64, 62
1, 367927, Control_c, 0, 64, 60
1, 367942, Control_c, 0, 64, 58
1, 367957, Control_c, 0, 64, 56
1, 367972, Control_c, 0, 64, 54
1, 367987, Control_c, 0, 64, 50
1, 368002, Control_c, 0, 64, 45
1, 368017, Control_c, 0, 64, 38
1, 368031, Control_c, 0, 64, 30
1, 368046, Control_c, 0, 64, 0
1, 368225, Control_c, 0, 64, 29
1, 368240, Control_c, 0, 64, 39
1, 368254, Control_c, 0, 64, 45
1, 368269, Control_c, 0, 64, 49
1, 368284, Control_c, 0, 64, 53
1, 368299, Control_c, 0, 64, 57
1, 368314, Control_c, 0, 64, 59
1, 368328, Control_c, 0, 64, 60
1, 368343, Control_c, 0, 64, 61
1, 368358, Control_c, 0, 64, 62
1, 368372, Control_c, 0, 64, 63
1, 368387, Control_c, 0, 64, 64
1, 368402, Control_c, 0, 64, 65
1, 368417, Control_c, 0, 64, 66
1, 368446, Control_c, 0, 64, 67
1, 368461, Control_c, 0, 64, 67
1, 368476, Control_c, 0, 64, 68
1, 368491, Control_c, 0, 64, 68
1, 368520, Control_c, 0, 64, 69
1, 368529, Note_on_c, 0, 55, 38
1, 368550, Control_c, 0, 64, 69
1, 368580, Control_c, 0, 64, 70
1, 368806, Note_on_c, 0, 54, 46
1, 368958, Control_c, 0, 64, 69
1, 369003, Control_c, 0, 64, 69
1, 369013, Note_on_c, 0, 53, 51
1, 369060, Note_off_c, 0, 54, 54
1, 369063, Control_c, 0, 64, 68
1, 369092, Control_c, 0, 64, 68
1, 369092, Control_c, 0, 67, 122
1, 369094, Note_off_c, 0, 55, 32
1, 369107, Control_c, 0, 67, 114
1, 369122, Control_c, 0, 64, 67
1, 369122, Control_c, 0, 67, 108
1, 369137, Control_c, 0, 64, 67
1, 369137, Control_c, 0, 67, 103
1, 369151, Control_c, 0, 67, 98
1, 369166, Control_c, 0, 64, 66
1, 369166, Control_c, 0, 67, 93
1, 369181, Control_c, 0, 64, 66
1, 369181, Control_c, 0, 67, 88
1, 369195, Control_c, 0, 64, 65
1, 369195, Control_c, 0, 67, 82
1, 369210, Control_c, 0, 67, 76
1, 369225, Control_c, 0, 64, 65
1, 369225, Control_c, 0, 67, 71
1, 369240, Control_c, 0, 64, 64
1, 369240, Control_c, 0, 67, 67
1, 369255, Control_c, 0, 67, 61
1, 369269, Control_c, 0, 64, 64
1, 369269, Control_c, 0, 67, 58
1, 369284, Control_c, 0, 67, 57
1, 369299, Control_c, 0, 64, 63
1, 369299, Control_c, 0, 67, 56
1, 369313, Control_c, 0, 67, 56
1, 369328, Control_c, 0, 64, 63
1, 369328, Control_c, 0, 67, 55
1, 369329, Note_on_c, 0, 72, 51
1, 369351, Control_c, 0, 67, 54
1, 369366, Control_c, 0, 64, 62
1, 369367, Note_on_c, 0, 67, 37
1, 369379, Note_on_c, 0, 52, 38
1, 369381, Control_c, 0, 67, 54
1, 369395, Control_c, 0, 64, 62
1, 369395, Control_c, 0, 67, 53
1, 369410, Control_c, 0, 64, 61
1, 369410, Control_c, 0, 67, 52
1, 369425, Control_c, 0, 67, 52
1, 369440, Control_c, 0, 64, 61
1, 369443, Note_off_c, 0, 53, 36
1, 369455, Control_c, 0, 64, 60
1, 369455, Control_c, 0, 67, 50
1, 369469, Control_c, 0, 64, 59
1, 369469, Control_c, 0, 67, 50
1, 369484, Control_c, 0, 64, 59
1, 369484, Control_c, 0, 67, 49
1, 369499, Control_c, 0, 64, 58
1, 369499, Control_c, 0, 67, 48
1, 369514, Control_c, 0, 64, 56
1, 369514, Control_c, 0, 67, 0
1, 369528, Control_c, 0, 64, 54
1, 369543, Control_c, 0, 64, 50
1, 369558, Control_c, 0, 64, 43
1, 369573, Control_c, 0, 64, 31
1, 369588, Control_c, 0, 64, 0
1, 369704, Note_on_c, 0, 55, 29
1, 369707, Control_c, 0, 64, 30
1, 369722, Control_c, 0, 64, 42
1, 369737, Control_c, 0, 64, 50
1, 369752, Control_c, 0, 64, 55
1, 369766, Control_c, 0, 64, 57
1, 369781, Control_c, 0, 64, 58
1, 369796, Control_c, 0, 64, 60
1, 369811, Control_c, 0, 64, 61
1, 369826, Control_c, 0, 64, 63
1, 369841, Control_c, 0, 64, 64
1, 369856, Control_c, 0, 64, 65
1, 369871, Control_c, 0, 64, 66
1, 369886, Control_c, 0, 64, 67
1, 369900, Control_c, 0, 64, 68
1, 369915, Control_c, 0, 64, 69
1, 369930, Control_c, 0, 64, 70
1, 369939, Note_on_c, 0, 60, 32
1, 369944, Control_c, 0, 64, 71
1, 369959, Control_c, 0, 64, 72
1, 369965, Note_off_c, 0, 55, 43
1, 369974, Control_c, 0, 64, 73
1, 369989, Control_c, 0, 64, 74
1, 370004, Control_c, 0, 64, 75
1, 370018, Control_c, 0, 64, 76
1, 370033, Control_c, 0, 64, 77
1, 370048, Control_c, 0, 64, 79
1, 370063, Control_c, 0, 64, 79
1, 370078, Control_c, 0, 64, 80
1, 370100, Control_c, 0, 64, 81
1, 370115, Control_c, 0, 64, 82
1, 370130, Control_c, 0, 64, 82
1, 370144, Control_c, 0, 64, 83
1, 370159, Control_c, 0, 64, 83
1, 370171, Note_off_c, 0, 60, 43
1, 370174, Note_on_c, 0, 55, 33
1, 370175, Control_c, 0, 64, 84
1, 370219, Control_c, 0, 64, 84
1, 370344, Note_off_c, 0, 55, 33
1, 370345, Note_on_c, 0, 74, 52
1, 370365, Note_on_c, 0, 60, 34
1, 370367, Control_c, 0, 64, 85
1, 370380, Note_off_c, 0, 72, 53
1, 370520, Note_on_c, 0, 72, 57
1, 370535, Note_off_c, 0, 60, 34
1, 370536, Note_off_c, 0, 74, 49
1, 370558, Note_on_c, 0, 55, 27
1, 370689, Note_off_c, 0, 55, 36
1, 370691, Note_off_c, 0, 72, 59
1, 370702, Note_on_c, 0, 74, 61
1, 370712, Note_on_c, 0, 60, 34
1, 370855, Note_off_c, 0, 74, 59
1, 370862, Note_off_c, 0, 60, 34
1, 370869, Note_on_c, 0, 55, 28
1, 370872, Note_on_c, 0, 72, 54
1, 370920, Note_off_c, 0, 55, 50
1, 370977, Note_off_c, 0, 52, 35
1, 370983, Control_c, 0, 64, 84
1, 371042, Control_c, 0, 64, 84
1, 371057, Control_c, 0, 64, 83
1, 371072, Control_c, 0, 64, 83
1, 371087, Control_c, 0, 64, 82
1, 371102, Control_c, 0, 64, 81
1, 371105, Note_off_c, 0, 72, 47
1, 371116, Control_c, 0, 64, 80
1, 371123, Note_on_c, 0, 53, 41
1, 371124, Note_on_c, 0, 71, 44
1, 371131, Control_c, 0, 64, 79
1, 371146, Control_c, 0, 64, 77
1, 371161, Control_c, 0, 64, 75
1, 371175, Control_c, 0, 64, 73
1, 371190, Control_c, 0, 64, 68
1, 371205, Control_c, 0, 64, 61
1, 371220, Control_c, 0, 64, 49
1, 371235, Control_c, 0, 64, 37
1, 371249, Control_c, 0, 64, 29
1, 371264, Control_c, 0, 64, 34
1, 371279, Control_c, 0, 64, 45
1, 371293, Control_c, 0, 64, 56
1, 371308, Control_c, 0, 64, 64
1, 371325, Control_c, 0, 64, 67
1, 371340, Control_c, 0, 64, 70
1, 371354, Control_c, 0, 64, 72
1, 371369, Control_c, 0, 64, 75
1, 371377, Note_off_c, 0, 71, 33
1, 371378, Note_on_c, 0, 55, 36
1, 371381, Note_off_c, 0, 67, 42
1, 371384, Control_c, 0, 64, 78
1, 371398, Control_c, 0, 64, 81
1, 371413, Control_c, 0, 64, 83
1, 371428, Control_c, 0, 64, 85
1, 371443, Control_c, 0, 64, 86
1, 371458, Control_c, 0, 64, 87
1, 371472, Control_c, 0, 64, 88
1, 371487, Control_c, 0, 64, 89
1, 371502, Control_c, 0, 64, 90
1, 371517, Control_c, 0, 64, 90
1, 371532, Control_c, 0, 64, 91
1, 371576, Control_c, 0, 64, 91
1, 371579, Note_on_c, 0, 79, 54
1, 371612, Note_on_c, 0, 62, 33
1, 371619, Note_on_c, 0, 67, 39
1, 371619, Note_on_c, 0, 71, 42
1, 371639, Note_off_c, 0, 55, 36
1, 371761, Note_off_c, 0, 79, 55
1, 371766, Note_off_c, 0, 67, 35
1, 371767, Note_off_c, 0, 71, 34
1, 371772, Note_on_c, 0, 55, 36
1, 371774, Note_off_c, 0, 62, 35
1, 371921, Note_on_c, 0, 79, 65
1, 371933, Note_off_c, 0, 55, 37
1, 371940, Note_on_c, 0, 62, 36
1, 371962, Note_on_c, 0, 67, 44
1, 371969, Note_on_c, 0, 71, 35
1, 372085, Note_on_c, 0, 55, 39
1, 372089, Note_off_c, 0, 62, 36
1, 372093, Note_off_c, 0, 71, 34
1, 372095, Note_off_c, 0, 67, 36
1, 372107, Note_off_c, 0, 79, 50
1, 372244, Note_on_c, 0, 79, 66
1, 372255, Note_off_c, 0, 55, 37
1, 372271, Note_on_c, 0, 62, 43
1, 372274, Note_on_c, 0, 71, 45
1, 372288, Note_on_c, 0, 67, 40
1, 372357, Note_off_c, 0, 71, 52
1, 372384, Note_off_c, 0, 79, 56
1, 372389, Note_off_c, 0, 67, 39
1, 372390, Note_off_c, 0, 62, 53
1, 372422, Note_on_c, 0, 55, 30
1, 372553, Control_c, 0, 64, 91
1, 372598, Control_c, 0, 64, 90
1, 372613, Control_c, 0, 64, 90
1, 372615, Note_on_c, 0, 72, 52
1, 372628, Control_c, 0, 64, 89
1, 372634, Note_on_c, 0, 52, 46
1, 372634, Note_on_c, 0, 67, 40
1, 372643, Control_c, 0, 64, 88
1, 372652, Note_off_c, 0, 55, 40
1, 372658, Control_c, 0, 64, 87
1, 372673, Control_c, 0, 64, 84
1, 372680, Note_off_c, 0, 53, 34
1, 372687, Control_c, 0, 64, 81
1, 372702, Control_c, 0, 64, 75
1, 372717, Control_c, 0, 64, 65
1, 372732, Control_c, 0, 64, 53
1, 372746, Control_c, 0, 64, 38
1, 372761, Control_c, 0, 64, 28
1, 372791, Control_c, 0, 64, 35
1, 372806, Control_c, 0, 64, 46
1, 372820, Note_on_c, 0, 55, 26
1, 372820, Control_c, 0, 64, 57
1, 372835, Control_c, 0, 64, 63
1, 372850, Control_c, 0, 64, 66
1, 372865, Control_c, 0, 64, 69
1, 372880, Control_c, 0, 64, 72
1, 372894, Control_c, 0, 64, 75
1, 372910, Control_c, 0, 64, 77
1, 372925, Control_c, 0, 64, 79
1, 372940, Control_c, 0, 64, 81
1, 372955, Control_c, 0, 64, 83
1, 372967, Note_on_c, 0, 71, 58
1, 372969, Control_c, 0, 64, 85
1, 372984, Control_c, 0, 64, 86
1, 372996, Note_on_c, 0, 60, 39
1, 372999, Control_c, 0, 64, 87
1, 373009, Note_off_c, 0, 72, 52
1, 373014, Control_c, 0, 64, 88
1, 373043, Control_c, 0, 64, 88
1, 373049, Note_off_c, 0, 55, 42
1, 373073, Control_c, 0, 64, 89
1, 373096, Control_c, 0, 64, 89
1, 373111, Control_c, 0, 64, 90
1, 373125, Control_c, 0, 64, 90
1, 373131, Note_on_c, 0, 72, 68
1, 373140, Control_c, 0, 64, 91
1, 373144, Note_off_c, 0, 60, 36
1, 373168, Note_on_c, 0, 55, 43
1, 373209, Note_off_c, 0, 71, 48
1, 373215, Control_c, 0, 64, 89
1, 373230, Control_c, 0, 64, 83
1, 373244, Control_c, 0, 64, 75
1, 373259, Control_c, 0, 64, 66
1, 373274, Control_c, 0, 64, 60
1, 373289, Control_c, 0, 64, 59
1, 373300, Note_on_c, 0, 77, 64
1, 373303, Control_c, 0, 64, 62
1, 373307, Note_on_c, 0, 60, 38
1, 373308, Note_off_c, 0, 55, 50
1, 373318, Control_c, 0, 64, 64
1, 373333, Control_c, 0, 64, 68
1, 373348, Control_c, 0, 64, 71
1, 373349, Note_off_c, 0, 72, 61
1, 373363, Control_c, 0, 64, 75
1, 373377, Control_c, 0, 64, 77
1, 373392, Control_c, 0, 64, 79
1, 373407, Control_c, 0, 64, 81
1, 373422, Control_c, 0, 64, 83
1, 373436, Control_c, 0, 64, 84
1, 373447, Note_on_c, 0, 76, 72
1, 373451, Control_c, 0, 64, 85
1, 373466, Control_c, 0, 64, 86
1, 373469, Note_off_c, 0, 60, 42
1, 373473, Note_on_c, 0, 55, 32
1, 373481, Control_c, 0, 64, 86
1, 373495, Control_c, 0, 64, 87
1, 373525, Control_c, 0, 64, 87
1, 373600, Note_on_c, 0, 74, 75
1, 373604, Note_off_c, 0, 77, 49
1, 373604, Note_off_c, 0, 67, 53
1, 373614, Note_on_c, 0, 60, 39
1, 373641, Note_off_c, 0, 55, 35
1, 373686, Note_off_c, 0, 76, 51
1, 373730, Note_off_c, 0, 60, 49
1, 373751, Note_on_c, 0, 72, 68
1, 373764, Control_c, 0, 64, 87
1, 373770, Note_off_c, 0, 74, 57
1, 373770, Note_on_c, 0, 55, 42
1, 373820, Note_off_c, 0, 52, 31
1, 373845, Control_c, 0, 64, 86
1, 373860, Control_c, 0, 64, 86
1, 373889, Control_c, 0, 64, 85
1, 373904, Control_c, 0, 64, 84
1, 373919, Control_c, 0, 64, 83
1, 373931, Note_off_c, 0, 55, 52
1, 373934, Control_c, 0, 64, 82
1, 373937, Note_off_c, 0, 72, 56
1, 373948, Note_on_c, 0, 71, 61
1, 373949, Control_c, 0, 64, 81
1, 373963, Control_c, 0, 64, 79
1, 373978, Control_c, 0, 64, 76
1, 373985, Note_on_c, 0, 53, 40
1, 373993, Control_c, 0, 64, 69
1, 374008, Control_c, 0, 64, 57
1, 374023, Control_c, 0, 64, 39
1, 374038, Control_c, 0, 64, 0
1, 374067, Control_c, 0, 64, 34
1, 374082, Control_c, 0, 64, 50
1, 374097, Control_c, 0, 64, 63
1, 374111, Control_c, 0, 64, 69
1, 374120, Note_off_c, 0, 71, 62
1, 374124, Note_on_c, 0, 55, 44
1, 374126, Control_c, 0, 64, 74
1, 374141, Control_c, 0, 64, 77
1, 374156, Control_c, 0, 64, 80
1, 374171, Control_c, 0, 64, 84
1, 374186, Control_c, 0, 64, 89
1, 374200, Control_c, 0, 64, 94
1, 374215, Control_c, 0, 64, 101
1, 374230, Control_c, 0, 64, 110
1, 374245, Control_c, 0, 64, 121
1, 374268, Note_on_c, 0, 79, 69
1, 374274, Control_c, 0, 64, 109
1, 374289, Control_c, 0, 64, 93
1, 374301, Note_on_c, 0, 71, 44
1, 374304, Control_c, 0, 64, 79
1, 374313, Note_on_c, 0, 67, 45
1, 374314, Note_on_c, 0, 62, 39
1, 374315, Note_off_c, 0, 55, 52
1, 374318, Control_c, 0, 64, 74
1, 374333, Control_c, 0, 64, 73
1, 374348, Control_c, 0, 64, 74
1, 374363, Control_c, 0, 64, 78
1, 374378, Control_c, 0, 64, 84
1, 374393, Control_c, 0, 64, 89
1, 374408, Control_c, 0, 64, 93
1, 374414, Note_off_c, 0, 67, 54
1, 374422, Control_c, 0, 64, 98
1, 374435, Note_off_c, 0, 62, 48
1, 374437, Control_c, 0, 64, 104
1, 374452, Control_c, 0, 64, 109
1, 374453, Note_off_c, 0, 71, 36
1, 374456, Note_off_c, 0, 79, 59
1, 374461, Note_on_c, 0, 55, 42
1, 374467, Control_c, 0, 64, 114
1, 374482, Control_c, 0, 64, 116
1, 374497, Control_c, 0, 64, 121
1, 374512, Control_c, 0, 64, 127
1, 374590, Note_on_c, 0, 79, 76
1, 374609, Control_c, 0, 64, 89
1, 374623, Note_on_c, 0, 62, 46
1, 374623, Control_c, 0, 64, 69
1, 374624, Note_on_c, 0, 71, 51
1, 374631, Note_on_c, 0, 67, 50
1, 374638, Control_c, 0, 64, 58
1, 374653, Control_c, 0, 64, 55
1, 374668, Control_c, 0, 64, 57
1, 374683, Control_c, 0, 64, 63
1, 374688, Note_off_c, 0, 55, 37
1, 374697, Control_c, 0, 64, 72
1, 374712, Control_c, 0, 64, 83
1, 374727, Control_c, 0, 64, 93
1, 374733, Note_off_c, 0, 67, 37
1, 374733, Note_off_c, 0, 71, 36
1, 374741, Control_c, 0, 64, 101
1, 374756, Control_c, 0, 64, 127
1, 374777, Note_off_c, 0, 79, 57
1, 374798, Note_off_c, 0, 62, 58
1, 374815, Note_on_c, 0, 55, 44
1, 374908, Note_on_c, 0, 79, 75
1, 374926, Note_on_c, 0, 71, 63
1, 374929, Note_on_c, 0, 67, 54
1, 374946, Note_off_c, 0, 55, 56
1, 374947, Note_on_c, 0, 62, 46
1, 374958, Note_off_c, 0, 71, 64
1, 374963, Note_off_c, 0, 67, 63
1, 375024, Note_off_c, 0, 79, 62
1, 375066, Note_off_c, 0, 62, 53
1, 375093, Note_on_c, 0, 55, 39
1, 375248, Note_off_c, 0, 53, 29
1, 375291, Note_on_c, 0, 79, 64
1, 375339, Note_on_c, 0, 72, 48
1, 375343, Control_c, 0, 64, 109
1, 375347, Note_on_c, 0, 52, 41
1, 375357, Note_off_c, 0, 55, 35
1, 375358, Control_c, 0, 64, 102
1, 375372, Control_c, 0, 64, 96
1, 375387, Control_c, 0, 64, 91
1, 375402, Control_c, 0, 64, 86
1, 375417, Control_c, 0, 64, 81
1, 375432, Control_c, 0, 64, 72
1, 375446, Control_c, 0, 64, 63
1, 375461, Control_c, 0, 64, 51
1, 375476, Control_c, 0, 64, 38
1, 375491, Control_c, 0, 64, 0
1, 375499, Note_on_c, 0, 55, 36
1, 375564, Control_c, 0, 64, 41
1, 375579, Control_c, 0, 64, 53
1, 375594, Control_c, 0, 64, 61
1, 375609, Control_c, 0, 64, 64
1, 375624, Control_c, 0, 64, 66
1, 375639, Control_c, 0, 64, 69
1, 375654, Control_c, 0, 64, 72
1, 375668, Control_c, 0, 64, 76
1, 375683, Control_c, 0, 64, 80
1, 375698, Note_on_c, 0, 60, 37
1, 375698, Control_c, 0, 64, 83
1, 375698, Control_c, 0, 67, 42
1, 375713, Control_c, 0, 64, 86
1, 375713, Control_c, 0, 67, 51
1, 375713, Note_off_c, 0, 55, 40
1, 375728, Control_c, 0, 64, 89
1, 375728, Control_c, 0, 67, 58
1, 375743, Control_c, 0, 64, 91
1, 375743, Control_c, 0, 67, 65
1, 375757, Control_c, 0, 64, 94
1, 375757, Control_c, 0, 67, 76
1, 375772, Control_c, 0, 64, 95
1, 375772, Control_c, 0, 67, 86
1, 375787, Control_c, 0, 67, 94
1, 375802, Control_c, 0, 67, 100
1, 375817, Control_c, 0, 67, 106
1, 375831, Control_c, 0, 67, 112
1, 375846, Control_c, 0, 67, 116
1, 375855, Note_on_c, 0, 55, 39
1, 375861, Control_c, 0, 67, 118
1, 375866, Note_off_c, 0, 60, 35
1, 375876, Control_c, 0, 64, 97
1, 376051, Note_on_c, 0, 78, 59
1, 376053, Note_off_c, 0, 55, 48
1, 376084, Note_on_c, 0, 60, 35
1, 376095, Note_off_c, 0, 79, 59
1, 376166, Control_c, 0, 64, 95
1, 376181, Control_c, 0, 64, 94
1, 376181, Control_c, 0, 67, 120
1, 376195, Control_c, 0, 64, 93
1, 376210, Control_c, 0, 64, 89
1, 376225, Control_c, 0, 64, 84
1, 376226, Note_on_c, 0, 79, 59
1, 376240, Control_c, 0, 64, 77
1, 376248, Note_on_c, 0, 55, 36
1, 376250, Note_off_c, 0, 60, 35
1, 376255, Control_c, 0, 64, 66
1, 376255, Control_c, 0, 67, 122
1, 376269, Control_c, 0, 64, 56
1, 376284, Control_c, 0, 64, 51
1, 376299, Control_c, 0, 64, 52
1, 376313, Control_c, 0, 64, 56
1, 376313, Control_c, 0, 67, 127
1, 376328, Control_c, 0, 64, 61
1, 376343, Control_c, 0, 64, 65
1, 376357, Note_off_c, 0, 78, 36
1, 376358, Control_c, 0, 64, 71
1, 376373, Control_c, 0, 64, 77
1, 376387, Control_c, 0, 64, 80
1, 376402, Control_c, 0, 64, 82
1, 376407, Note_on_c, 0, 84, 67
1, 376409, Note_off_c, 0, 55, 53
1, 376417, Control_c, 0, 64, 84
1, 376423, Note_on_c, 0, 60, 39
1, 376432, Control_c, 0, 64, 86
1, 376447, Control_c, 0, 64, 89
1, 376448, Note_off_c, 0, 79, 62
1, 376461, Control_c, 0, 64, 90
1, 376476, Control_c, 0, 64, 90
1, 376491, Control_c, 0, 64, 91
1, 376563, Note_off_c, 0, 60, 56
1, 376573, Note_off_c, 0, 52, 57
1, 376582, Note_on_c, 0, 83, 65
1, 376595, Note_on_c, 0, 55, 45
1, 376627, Note_off_c, 0, 55, 55
1, 376685, Note_off_c, 0, 72, 35
1, 376728, Control_c, 0, 64, 90
1, 376741, Note_off_c, 0, 84, 33
1, 376758, Control_c, 0, 64, 90
1, 376773, Control_c, 0, 64, 89
1, 376787, Control_c, 0, 64, 88
1, 376802, Control_c, 0, 64, 87
1, 376817, Control_c, 0, 64, 87
1, 376840, Control_c, 0, 64, 85
1, 376855, Control_c, 0, 64, 84
1, 376869, Control_c, 0, 64, 82
1, 376879, Note_on_c, 0, 81, 56
1, 376884, Control_c, 0, 64, 80
1, 376887, Note_off_c, 0, 83, 55
1, 376899, Control_c, 0, 64, 74
1, 376915, Control_c, 0, 64, 63
1, 376929, Control_c, 0, 64, 47
1, 376931, Note_on_c, 0, 40, 41
1, 376944, Control_c, 0, 64, 29
1, 376959, Control_c, 0, 64, 0
1, 376974, Control_c, 0, 64, 30
1, 376989, Control_c, 0, 64, 44
1, 377004, Control_c, 0, 64, 58
1, 377017, Note_off_c, 0, 40, 61
1, 377018, Control_c, 0, 64, 67
1, 377033, Control_c, 0, 64, 73
1, 377048, Control_c, 0, 64, 78
1, 377063, Control_c, 0, 64, 83
1, 377078, Control_c, 0, 64, 89
1, 377092, Control_c, 0, 64, 96
1, 377107, Control_c, 0, 64, 104
1, 377122, Control_c, 0, 64, 110
1, 377136, Control_c, 0, 64, 115
1, 377141, Note_off_c, 0, 81, 63
1, 377151, Control_c, 0, 64, 123
1, 377166, Control_c, 0, 64, 127
1, 377238, Note_on_c, 0, 62, 27
1, 377432, Note_on_c, 0, 80, 58
1, 377462, Control_c, 0, 64, 121
1, 377479, Note_on_c, 0, 71, 36
1, 377490, Note_on_c, 0, 52, 37
1, 377492, Control_c, 0, 64, 118
1, 377493, Note_off_c, 0, 62, 42
1, 377536, Control_c, 0, 67, 125
1, 377648, Control_c, 0, 67, 123
1, 377655, Note_on_c, 0, 62, 37
1, 377660, Note_off_c, 0, 71, 39
1, 377675, Note_off_c, 0, 80, 55
1, 377698, Note_off_c, 0, 52, 40
1, 377782, Control_c, 0, 64, 107
1, 377795, Note_on_c, 0, 80, 74
1, 377797, Control_c, 0, 64, 91
1, 377812, Control_c, 0, 64, 76
1, 377827, Note_on_c, 0, 52, 56
1, 377827, Control_c, 0, 64, 65
1, 377830, Note_on_c, 0, 71, 55
1, 377841, Control_c, 0, 64, 62
1, 377841, Control_c, 0, 67, 121
1, 377856, Control_c, 0, 64, 63
1, 377856, Note_off_c, 0, 62, 36
1, 377871, Control_c, 0, 64, 66
1, 377886, Control_c, 0, 64, 72
1, 377886, Control_c, 0, 67, 119
1, 377901, Control_c, 0, 64, 79
1, 377915, Control_c, 0, 64, 84
1, 377915, Control_c, 0, 67, 116
1, 377930, Control_c, 0, 64, 87
1, 377930, Control_c, 0, 67, 114
1, 377945, Control_c, 0, 64, 90
1, 377959, Control_c, 0, 64, 93
1, 377970, Note_on_c, 0, 62, 48
1, 377974, Control_c, 0, 64, 96
1, 377974, Control_c, 0, 67, 112
1, 377989, Control_c, 0, 64, 98
1, 377994, Note_off_c, 0, 71, 37
1, 378000, Note_off_c, 0, 80, 58
1, 378043, Note_off_c, 0, 62, 43
1, 378098, Note_off_c, 0, 52, 46
1, 378127, Note_on_c, 0, 80, 72
1, 378137, Control_c, 0, 64, 95
1, 378144, Note_on_c, 0, 53, 61
1, 378152, Control_c, 0, 64, 87
1, 378163, Note_on_c, 0, 71, 48
1, 378166, Control_c, 0, 64, 74
1, 378181, Control_c, 0, 64, 58
1, 378196, Control_c, 0, 64, 38
1, 378196, Control_c, 0, 67, 110
1, 378211, Control_c, 0, 64, 0
1, 378226, Control_c, 0, 67, 107
1, 378241, Control_c, 0, 64, 39
1, 378241, Control_c, 0, 67, 102
1, 378256, Control_c, 0, 64, 54
1, 378256, Control_c, 0, 67, 91
1, 378271, Control_c, 0, 64, 63
1, 378271, Control_c, 0, 67, 78
1, 378285, Control_c, 0, 64, 68
1, 378285, Control_c, 0, 67, 62
1, 378300, Control_c, 0, 64, 71
1, 378300, Control_c, 0, 67, 45
1, 378302, Note_off_c, 0, 71, 53
1, 378315, Control_c, 0, 64, 74
1, 378315, Control_c, 0, 67, 0
1, 378324, Note_on_c, 0, 62, 42
1, 378337, Control_c, 0, 64, 77
1, 378349, Note_off_c, 0, 80, 57
1, 378352, Control_c, 0, 64, 80
1, 378366, Control_c, 0, 64, 82
1, 378381, Control_c, 0, 64, 82
1, 378396, Note_off_c, 0, 53, 38
1, 378396, Control_c, 0, 64, 83
1, 378429, Note_off_c, 0, 62, 45
1, 378515, Control_c, 0, 64, 82
1, 378555, Note_on_c, 0, 81, 57
1, 378575, Control_c, 0, 64, 82
1, 378581, Note_on_c, 0, 69, 41
1, 378590, Control_c, 0, 64, 81
1, 378603, Note_on_c, 0, 54, 39
1, 378605, Control_c, 0, 64, 80
1, 378620, Control_c, 0, 64, 79
1, 378634, Control_c, 0, 64, 77
1, 378649, Control_c, 0, 64, 76
1, 378664, Control_c, 0, 64, 73
1, 378679, Control_c, 0, 64, 70
1, 378694, Control_c, 0, 64, 64
1, 378708, Control_c, 0, 64, 55
1, 378723, Control_c, 0, 64, 41
1, 378738, Control_c, 0, 64, 0
1, 378812, Control_c, 0, 64, 31
1, 378827, Control_c, 0, 64, 44
1, 378834, Note_on_c, 0, 61, 29
1, 378842, Control_c, 0, 64, 55
1, 378856, Control_c, 0, 64, 61
1, 378871, Control_c, 0, 64, 63
1, 378878, Note_off_c, 0, 54, 33
1, 378886, Control_c, 0, 64, 65
1, 378901, Control_c, 0, 64, 67
1, 378915, Control_c, 0, 64, 69
1, 378930, Control_c, 0, 64, 72
1, 378945, Control_c, 0, 64, 75
1, 378960, Control_c, 0, 64, 77
1, 378975, Control_c, 0, 64, 79
1, 378989, Control_c, 0, 64, 81
1, 378995, Note_on_c, 0, 57, 39
1, 379004, Control_c, 0, 64, 82
1, 379019, Control_c, 0, 64, 83
1, 379034, Control_c, 0, 64, 83
1, 379049, Control_c, 0, 64, 84
1, 379087, Note_off_c, 0, 61, 39
1, 379129, Note_off_c, 0, 57, 58
1, 379146, Note_on_c, 0, 54, 43
1, 379298, Note_off_c, 0, 54, 37
1, 379306, Note_on_c, 0, 80, 61
1, 379323, Control_c, 0, 64, 82
1, 379328, Note_on_c, 0, 50, 42
1, 379337, Control_c, 0, 64, 78
1, 379352, Control_c, 0, 64, 71
1, 379367, Control_c, 0, 64, 63
1, 379382, Control_c, 0, 64, 54
1, 379397, Control_c, 0, 64, 52
1, 379411, Control_c, 0, 64, 54
1, 379426, Control_c, 0, 64, 58
1, 379441, Control_c, 0, 64, 62
1, 379456, Control_c, 0, 64, 66
1, 379460, Note_on_c, 0, 62, 38
1, 379471, Control_c, 0, 64, 71
1, 379485, Control_c, 0, 64, 75
1, 379500, Control_c, 0, 64, 78
1, 379515, Control_c, 0, 64, 80
1, 379522, Note_off_c, 0, 81, 39
1, 379529, Control_c, 0, 64, 83
1, 379544, Control_c, 0, 64, 86
1, 379559, Control_c, 0, 64, 88
1, 379574, Control_c, 0, 64, 91
1, 379589, Control_c, 0, 64, 93
1, 379598, Note_off_c, 0, 50, 35
1, 379603, Control_c, 0, 64, 94
1, 379618, Note_on_c, 0, 78, 58
1, 379618, Control_c, 0, 64, 95
1, 379632, Note_on_c, 0, 57, 41
1, 379633, Control_c, 0, 64, 96
1, 379650, Note_off_c, 0, 62, 34
1, 379650, Note_off_c, 0, 80, 60
1, 379681, Note_off_c, 0, 78, 61
1, 379723, Control_c, 0, 64, 98
1, 379756, Note_off_c, 0, 57, 58
1, 379771, Note_on_c, 0, 54, 45
1, 379796, Note_off_c, 0, 69, 52
1, 379829, Note_off_c, 0, 54, 57
1, 379940, Note_on_c, 0, 76, 57
1, 379952, Control_c, 0, 64, 92
1, 379963, Note_on_c, 0, 52, 45
1, 379967, Control_c, 0, 64, 82
1, 379982, Control_c, 0, 64, 71
1, 379997, Control_c, 0, 64, 62
1, 380012, Control_c, 0, 64, 58
1, 380027, Control_c, 0, 64, 60
1, 380041, Control_c, 0, 64, 63
1, 380056, Control_c, 0, 64, 67
1, 380071, Control_c, 0, 64, 72
1, 380086, Control_c, 0, 64, 76
1, 380094, Note_on_c, 0, 64, 62
1, 380101, Control_c, 0, 64, 79
1, 380116, Control_c, 0, 64, 83
1, 380131, Control_c, 0, 64, 89
1, 380146, Control_c, 0, 64, 99
1, 380161, Control_c, 0, 64, 127
1, 380205, Control_c, 0, 64, 108
1, 380220, Control_c, 0, 64, 83
1, 380235, Control_c, 0, 64, 67
1, 380250, Control_c, 0, 64, 62
1, 380251, Note_on_c, 0, 69, 67
1, 380265, Control_c, 0, 64, 63
1, 380270, Note_on_c, 0, 61, 42
1, 380279, Control_c, 0, 64, 66
1, 380280, Note_on_c, 0, 57, 35
1, 380284, Note_off_c, 0, 64, 53
1, 380294, Control_c, 0, 64, 72
1, 380309, Control_c, 0, 64, 81
1, 380324, Control_c, 0, 64, 89
1, 380339, Control_c, 0, 64, 93
1, 380353, Control_c, 0, 64, 97
1, 380360, Note_off_c, 0, 61, 51
1, 380368, Control_c, 0, 64, 102
1, 380383, Control_c, 0, 64, 109
1, 380396, Note_on_c, 0, 73, 68
1, 380398, Control_c, 0, 64, 117
1, 380413, Control_c, 0, 64, 121
1, 380414, Note_off_c, 0, 69, 59
1, 380427, Control_c, 0, 64, 123
1, 380442, Control_c, 0, 64, 126
1, 380545, Control_c, 0, 64, 121
1, 380560, Control_c, 0, 64, 102
1, 380578, Note_off_c, 0, 73, 57
1, 380582, Note_on_c, 0, 71, 59
1, 380583, Control_c, 0, 64, 83
1, 380584, Note_on_c, 0, 62, 46
1, 380593, Note_off_c, 0, 57, 41
1, 380598, Control_c, 0, 64, 68
1, 380604, Note_off_c, 0, 76, 34
1, 380612, Note_on_c, 0, 59, 40
1, 380613, Control_c, 0, 64, 56
1, 380627, Control_c, 0, 64, 50
1, 380642, Control_c, 0, 64, 52
1, 380657, Control_c, 0, 64, 58
1, 380672, Control_c, 0, 64, 65
1, 380686, Control_c, 0, 64, 72
1, 380701, Control_c, 0, 64, 78
1, 380708, Note_off_c, 0, 62, 57
1, 380716, Control_c, 0, 64, 82
1, 380725, Note_off_c, 0, 71, 54
1, 380730, Note_on_c, 0, 74, 62
1, 380731, Control_c, 0, 64, 87
1, 380746, Control_c, 0, 64, 94
1, 380760, Control_c, 0, 64, 101
1, 380775, Control_c, 0, 64, 108
1, 380790, Control_c, 0, 64, 117
1, 380805, Control_c, 0, 64, 127
1, 380849, Control_c, 0, 67, 41
1, 380864, Control_c, 0, 64, 88
1, 380864, Control_c, 0, 67, 63
1, 380877, Note_off_c, 0, 74, 52
1, 380879, Control_c, 0, 64, 71
1, 380879, Control_c, 0, 67, 80
1, 380890, Note_on_c, 0, 64, 51
1, 380894, Control_c, 0, 64, 62
1, 380894, Control_c, 0, 67, 95
1, 380894, Note_on_c, 0, 68, 51
1, 380905, Note_off_c, 0, 59, 46
1, 380907, Note_on_c, 0, 56, 40
1, 380909, Control_c, 0, 64, 63
1, 380909, Control_c, 0, 67, 106
1, 380924, Control_c, 0, 64, 66
1, 380924, Control_c, 0, 67, 116
1, 380926, Note_off_c, 0, 64, 64
1, 380939, Control_c, 0, 64, 73
1, 380939, Control_c, 0, 67, 124
1, 380954, Control_c, 0, 64, 82
1, 380954, Control_c, 0, 67, 127
1, 380960, Note_off_c, 0, 56, 60
1, 380969, Control_c, 0, 64, 88
1, 380983, Control_c, 0, 64, 92
1, 380995, Note_off_c, 0, 52, 40
1, 380998, Control_c, 0, 64, 97
1, 381013, Control_c, 0, 64, 104
1, 381028, Control_c, 0, 64, 111
1, 381041, Note_off_c, 0, 68, 38
1, 381043, Control_c, 0, 64, 121
1, 381052, Note_on_c, 0, 76, 57
1, 381058, Control_c, 0, 64, 127
1, 381099, Note_off_c, 0, 76, 60
1, 381210, Note_on_c, 0, 40, 61
1, 381211, Note_on_c, 0, 64, 62
1, 381236, Control_c, 0, 64, 116
1, 381250, Control_c, 0, 64, 104
1, 381265, Control_c, 0, 64, 90
1, 381280, Control_c, 0, 64, 75
1, 381294, Control_c, 0, 64, 60
1, 381309, Control_c, 0, 64, 40
1, 381332, Control_c, 0, 64, 0
1, 381360, Note_on_c, 0, 52, 64
1, 381362, Control_c, 0, 64, 30
1, 381368, Note_off_c, 0, 64, 54
1, 381376, Control_c, 0, 64, 46
1, 381391, Control_c, 0, 64, 59
1, 381406, Control_c, 0, 64, 64
1, 381421, Control_c, 0, 64, 67
1, 381436, Control_c, 0, 64, 70
1, 381450, Control_c, 0, 64, 75
1, 381465, Control_c, 0, 64, 80
1, 381480, Control_c, 0, 64, 84
1, 381495, Control_c, 0, 64, 89
1, 381509, Control_c, 0, 64, 92
1, 381514, Note_on_c, 0, 57, 64
1, 381524, Control_c, 0, 64, 94
1, 381539, Control_c, 0, 64, 96
1, 381569, Control_c, 0, 64, 99
1, 381575, Note_off_c, 0, 52, 60
1, 381598, Control_c, 0, 64, 101
1, 381665, Note_on_c, 0, 61, 62
1, 381699, Note_off_c, 0, 57, 59
1, 381813, Note_off_c, 0, 61, 48
1, 381827, Note_on_c, 0, 54, 62
1, 381851, Control_c, 0, 64, 97
1, 381866, Control_c, 0, 64, 86
1, 381881, Control_c, 0, 64, 72
1, 381896, Control_c, 0, 64, 58
1, 381911, Control_c, 0, 64, 49
1, 381925, Control_c, 0, 64, 51
1, 381940, Control_c, 0, 64, 54
1, 381955, Control_c, 0, 64, 59
1, 381970, Control_c, 0, 64, 66
1, 381985, Control_c, 0, 64, 74
1, 381999, Control_c, 0, 64, 85
1, 382009, Note_on_c, 0, 62, 53
1, 382014, Control_c, 0, 64, 92
1, 382029, Control_c, 0, 64, 102
1, 382035, Note_off_c, 0, 54, 60
1, 382041, Note_off_c, 0, 40, 41
1, 382043, Control_c, 0, 64, 127
1, 382110, Control_c, 0, 64, 87
1, 382125, Control_c, 0, 64, 73
1, 382140, Control_c, 0, 64, 69
1, 382155, Control_c, 0, 64, 72
1, 382163, Note_off_c, 0, 62, 37
1, 382165, Note_on_c, 0, 56, 63
1, 382170, Control_c, 0, 64, 79
1, 382185, Control_c, 0, 64, 87
1, 382199, Control_c, 0, 64, 95
1, 382212, Note_off_c, 0, 56, 57
1, 382214, Control_c, 0, 64, 102
1, 382229, Control_c, 0, 64, 111
1, 382244, Control_c, 0, 64, 127
1, 382319, Note_on_c, 0, 64, 48
1, 382343, Note_off_c, 0, 64, 58
1, 382406, Control_c, 0, 64, 115
1, 382421, Control_c, 0, 64, 108
1, 382436, Control_c, 0, 64, 102
1, 382450, Control_c, 0, 64, 97
1, 382465, Control_c, 0, 64, 89
1, 382480, Control_c, 0, 64, 81
1, 382496, Control_c, 0, 64, 70
1, 382501, Note_on_c, 0, 64, 44
1, 382511, Control_c, 0, 64, 59
1, 382518, Note_on_c, 0, 76, 63
1, 382526, Control_c, 0, 64, 44
1, 382541, Control_c, 0, 64, 0
1, 382585, Control_c, 0, 64, 29
1, 382600, Note_off_c, 0, 76, 60
1, 382600, Control_c, 0, 64, 41
1, 382615, Control_c, 0, 64, 51
1, 382617, Note_on_c, 0, 75, 62
1, 382629, Control_c, 0, 64, 58
1, 382644, Control_c, 0, 64, 62
1, 382659, Control_c, 0, 64, 65
1, 382659, Control_c, 0, 67, 125
1, 382674, Control_c, 0, 64, 67
1, 382689, Note_off_c, 0, 75, 62
1, 382689, Control_c, 0, 64, 68
1, 382699, Note_on_c, 0, 76, 71
1, 382703, Control_c, 0, 64, 71
1, 382718, Control_c, 0, 64, 75
1, 382733, Control_c, 0, 64, 79
1, 382748, Control_c, 0, 64, 80
1, 382763, Control_c, 0, 64, 76
1, 382778, Control_c, 0, 64, 65
1, 382793, Control_c, 0, 64, 50
1, 382798, Note_on_c, 0, 73, 53
1, 382799, Note_off_c, 0, 76, 59
1, 382800, Note_on_c, 0, 70, 52
1, 382805, Note_on_c, 0, 77, 75
1, 382808, Control_c, 0, 64, 37
1, 382808, Control_c, 0, 67, 123
1, 382829, Control_c, 0, 64, 39
1, 382829, Control_c, 0, 67, 121
1, 382844, Control_c, 0, 64, 49
1, 382859, Control_c, 0, 64, 59
1, 382873, Control_c, 0, 64, 63
1, 382873, Control_c, 0, 67, 119
1, 382888, Control_c, 0, 64, 66
1, 382903, Control_c, 0, 64, 70
1, 382903, Control_c, 0, 67, 117
1, 382904, Note_on_c, 0, 78, 76
1, 382918, Note_off_c, 0, 77, 59
1, 382918, Control_c, 0, 64, 75
1, 382933, Control_c, 0, 64, 79
1, 382948, Control_c, 0, 64, 82
1, 382948, Control_c, 0, 67, 114
1, 382963, Control_c, 0, 64, 85
1, 382978, Control_c, 0, 64, 90
1, 382993, Control_c, 0, 64, 97
1, 382997, Note_on_c, 0, 79, 71
1, 382999, Note_off_c, 0, 78, 61
1, 383007, Control_c, 0, 64, 102
1, 383015, Note_off_c, 0, 70, 36
1, 383037, Control_c, 0, 64, 95
1, 383043, Note_off_c, 0, 73, 57
1, 383052, Control_c, 0, 64, 80
1, 383052, Control_c, 0, 67, 112
1, 383067, Control_c, 0, 64, 65
1, 383070, Note_off_c, 0, 79, 63
1, 383081, Control_c, 0, 64, 50
1, 383081, Control_c, 0, 67, 110
1, 383082, Note_on_c, 0, 74, 63
1, 383092, Note_on_c, 0, 78, 78
1, 383094, Note_on_c, 0, 71, 57
1, 383096, Control_c, 0, 64, 50
1, 383096, Control_c, 0, 67, 108
1, 383111, Control_c, 0, 64, 56
1, 383111, Control_c, 0, 67, 102
1, 383126, Control_c, 0, 64, 62
1, 383126, Control_c, 0, 67, 86
1, 383141, Control_c, 0, 64, 66
1, 383141, Control_c, 0, 67, 53
1, 383155, Control_c, 0, 64, 70
1, 383155, Control_c, 0, 67, 0
1, 383170, Control_c, 0, 64, 74
1, 383177, Note_on_c, 0, 80, 79
1, 383185, Control_c, 0, 64, 81
1, 383194, Note_off_c, 0, 78, 60
1, 383200, Control_c, 0, 64, 89
1, 383215, Control_c, 0, 64, 95
1, 383218, Note_off_c, 0, 74, 60
1, 383229, Control_c, 0, 64, 98
1, 383240, Note_off_c, 0, 80, 62
1, 383244, Control_c, 0, 64, 104
1, 383259, Control_c, 0, 64, 123
1, 383264, Note_on_c, 0, 81, 84
1, 383273, Control_c, 0, 64, 127
1, 383288, Control_c, 0, 64, 116
1, 383304, Control_c, 0, 64, 85
1, 383319, Control_c, 0, 64, 65
1, 383334, Control_c, 0, 64, 51
1, 383349, Control_c, 0, 64, 52
1, 383361, Note_on_c, 0, 82, 77
1, 383363, Note_on_c, 0, 68, 50
1, 383364, Control_c, 0, 64, 58
1, 383370, Note_on_c, 0, 76, 44
1, 383378, Control_c, 0, 64, 65
1, 383393, Note_off_c, 0, 81, 61
1, 383393, Control_c, 0, 64, 75
1, 383397, Note_off_c, 0, 76, 57
1, 383400, Note_off_c, 0, 71, 37
1, 383408, Control_c, 0, 64, 83
1, 383421, Note_off_c, 0, 68, 59
1, 383423, Control_c, 0, 64, 92
1, 383438, Control_c, 0, 64, 97
1, 383452, Note_on_c, 0, 83, 82
1, 383452, Control_c, 0, 64, 103
1, 383461, Note_off_c, 0, 64, 37
1, 383467, Control_c, 0, 64, 110
1, 383479, Note_off_c, 0, 82, 61
1, 383482, Control_c, 0, 64, 127
1, 383541, Note_on_c, 0, 84, 79
1, 383577, Note_off_c, 0, 83, 60
1, 383578, Control_c, 0, 64, 123
1, 383593, Control_c, 0, 64, 114
1, 383608, Control_c, 0, 64, 109
1, 383623, Control_c, 0, 64, 104
1, 383638, Control_c, 0, 64, 98
1, 383652, Control_c, 0, 64, 91
1, 383654, Note_off_c, 0, 84, 63
1, 383659, Note_on_c, 0, 85, 77
1, 383660, Note_on_c, 0, 52, 70
1, 383667, Control_c, 0, 64, 85
1, 383682, Control_c, 0, 64, 81
1, 383696, Control_c, 0, 64, 76
1, 383711, Control_c, 0, 64, 70
1, 383726, Control_c, 0, 64, 65
1, 383741, Control_c, 0, 64, 61
1, 383752, Note_on_c, 0, 83, 70
1, 383752, Note_off_c, 0, 85, 63
1, 383756, Control_c, 0, 64, 58
1, 383771, Control_c, 0, 64, 57
1, 383800, Control_c, 0, 64, 57
1, 383803, Note_off_c, 0, 83, 64
1, 383815, Control_c, 0, 64, 56
1, 383830, Control_c, 0, 64, 54
1, 383834, Note_on_c, 0, 81, 73
1, 383845, Control_c, 0, 64, 53
1, 383909, Note_off_c, 0, 81, 53
1, 383936, Note_on_c, 0, 80, 65
1, 383946, Note_on_c, 0, 57, 53
1, 383947, Note_on_c, 0, 61, 49
1, 383964, Control_c, 0, 64, 54
1, 383978, Control_c, 0, 64, 55
1, 383993, Control_c, 0, 64, 55
1, 384008, Control_c, 0, 64, 58
1, 384012, Note_off_c, 0, 80, 59
1, 384020, Note_on_c, 0, 81, 70
1, 384022, Control_c, 0, 64, 61
1, 384037, Control_c, 0, 64, 64
1, 384052, Control_c, 0, 64, 66
1, 384067, Control_c, 0, 64, 68
1, 384082, Control_c, 0, 64, 69
1, 384093, Note_off_c, 0, 61, 59
1, 384105, Note_off_c, 0, 81, 63
1, 384118, Note_on_c, 0, 78, 66
1, 384127, Control_c, 0, 64, 68
1, 384157, Control_c, 0, 64, 68
1, 384201, Control_c, 0, 64, 67
1, 384206, Note_off_c, 0, 78, 58
1, 384217, Note_on_c, 0, 77, 66
1, 384218, Note_on_c, 0, 62, 47
1, 384223, Note_off_c, 0, 57, 58
1, 384231, Control_c, 0, 64, 67
1, 384239, Note_on_c, 0, 54, 39
1, 384245, Control_c, 0, 64, 66
1, 384260, Control_c, 0, 64, 66
1, 384275, Control_c, 0, 64, 65
1, 384278, Note_off_c, 0, 77, 59
1, 384290, Control_c, 0, 64, 64
1, 384305, Control_c, 0, 64, 63
1, 384309, Note_on_c, 0, 78, 64
1, 384340, Note_off_c, 0, 62, 58
1, 384342, Control_c, 0, 64, 62
1, 384357, Control_c, 0, 64, 61
1, 384372, Control_c, 0, 64, 61
1, 384379, Note_off_c, 0, 78, 61
1, 384387, Control_c, 0, 64, 60
1, 384401, Control_c, 0, 64, 60
1, 384410, Note_on_c, 0, 74, 66
1, 384416, Control_c, 0, 64, 59
1, 384416, Control_c, 0, 67, 36
1, 384431, Control_c, 0, 64, 59
1, 384431, Control_c, 0, 67, 43
1, 384446, Control_c, 0, 67, 49
1, 384460, Control_c, 0, 64, 58
1, 384460, Control_c, 0, 67, 56
1, 384475, Control_c, 0, 67, 65
1, 384477, Note_off_c, 0, 74, 58
1, 384490, Control_c, 0, 64, 58
1, 384490, Control_c, 0, 67, 73
1, 384491, Note_off_c, 0, 54, 53
1, 384505, Control_c, 0, 67, 80
1, 384518, Note_on_c, 0, 73, 60
1, 384520, Control_c, 0, 67, 88
1, 384534, Control_c, 0, 67, 96
1, 384536, Note_on_c, 0, 56, 49
1, 384544, Note_on_c, 0, 64, 42
1, 384549, Control_c, 0, 67, 101
1, 384590, Note_off_c, 0, 73, 60
1, 384594, Control_c, 0, 67, 103
1, 384605, Note_on_c, 0, 74, 68
1, 384682, Note_off_c, 0, 74, 63
1, 384698, Control_c, 0, 64, 58
1, 384713, Control_c, 0, 64, 59
1, 384715, Note_on_c, 0, 71, 62
1, 384727, Control_c, 0, 64, 59
1, 384727, Control_c, 0, 67, 101
1, 384742, Control_c, 0, 64, 60
1, 384757, Control_c, 0, 64, 60
1, 384757, Control_c, 0, 67, 98
1, 384763, Note_off_c, 0, 71, 56
1, 384801, Control_c, 0, 64, 61
1, 384807, Note_on_c, 0, 70, 67
1, 384860, Control_c, 0, 64, 60
1, 384883, Note_off_c, 0, 70, 59
1, 384891, Control_c, 0, 67, 101
1, 384894, Note_on_c, 0, 71, 69
1, 384914, Note_off_c, 0, 64, 59
1, 384921, Control_c, 0, 64, 60
1, 384921, Control_c, 0, 67, 103
1, 384936, Control_c, 0, 67, 105
1, 384941, Note_off_c, 0, 52, 60
1, 384956, Note_off_c, 0, 56, 60
1, 384995, Note_off_c, 0, 71, 61
1, 384998, Note_on_c, 0, 68, 66
1, 385010, Control_c, 0, 67, 107
1, 385039, Control_c, 0, 64, 59
1, 385054, Control_c, 0, 64, 59
1, 385054, Control_c, 0, 67, 110
1, 385076, Control_c, 0, 64, 58
1, 385089, Note_off_c, 0, 68, 60
1, 385091, Control_c, 0, 64, 57
1, 385099, Note_on_c, 0, 67, 68
1, 385106, Control_c, 0, 64, 57
1, 385121, Control_c, 0, 64, 56
1, 385136, Control_c, 0, 64, 55
1, 385150, Control_c, 0, 64, 53
1, 385156, Note_off_c, 0, 67, 61
1, 385165, Control_c, 0, 64, 51
1, 385165, Control_c, 0, 67, 108
1, 385180, Control_c, 0, 64, 49
1, 385194, Note_on_c, 0, 68, 61
1, 385195, Control_c, 0, 64, 48
1, 385210, Control_c, 0, 64, 46
1, 385224, Control_c, 0, 64, 41
1, 385239, Control_c, 0, 64, 33
1, 385245, Note_off_c, 0, 68, 61
1, 385254, Control_c, 0, 64, 0
1, 385280, Note_on_c, 0, 64, 64
1, 385298, Control_c, 0, 67, 106
1, 385335, Note_off_c, 0, 64, 50
1, 385392, Note_on_c, 0, 63, 53
1, 385436, Note_off_c, 0, 63, 58
1, 385471, Note_on_c, 0, 64, 60
1, 385520, Control_c, 0, 64, 31
1, 385535, Control_c, 0, 64, 41
1, 385540, Note_off_c, 0, 64, 62
1, 385550, Control_c, 0, 64, 49
1, 385560, Note_on_c, 0, 63, 61
1, 385565, Control_c, 0, 64, 55
1, 385580, Control_c, 0, 64, 57
1, 385580, Control_c, 0, 67, 109
1, 385594, Control_c, 0, 64, 58
1, 385609, Control_c, 0, 64, 60
1, 385609, Control_c, 0, 67, 113
1, 385624, Control_c, 0, 64, 61
1, 385624, Control_c, 0, 67, 116
1, 385634, Note_off_c, 0, 63, 60
1, 385639, Control_c, 0, 64, 62
1, 385639, Control_c, 0, 67, 123
1, 385654, Control_c, 0, 64, 62
1, 385654, Control_c, 0, 67, 127
1, 385660, Note_on_c, 0, 64, 63
1, 385710, Note_off_c, 0, 64, 60
1, 385729, Control_c, 0, 64, 61
1, 385744, Control_c, 0, 64, 59
1, 385759, Control_c, 0, 64, 54
1, 385767, Note_on_c, 0, 66, 62
1, 385773, Control_c, 0, 64, 47
1, 385788, Control_c, 0, 64, 34
1, 385803, Control_c, 0, 64, 0
1, 385836, Note_off_c, 0, 66, 61
1, 385850, Note_on_c, 0, 64, 60
1, 385942, Note_off_c, 0, 64, 60
1, 385963, Note_on_c, 0, 63, 55
1, 386008, Note_off_c, 0, 63, 59
1, 386065, Note_on_c, 0, 64, 51
1, 386116, Note_off_c, 0, 64, 62
1, 386142, Note_on_c, 0, 63, 49
1, 386227, Note_off_c, 0, 63, 56
1, 386248, Note_on_c, 0, 64, 51
1, 386311, Note_off_c, 0, 64, 50
1, 386352, Note_on_c, 0, 66, 53
1, 386434, Note_off_c, 0, 66, 62
1, 386445, Note_on_c, 0, 64, 54
1, 386517, Note_off_c, 0, 64, 61
1, 386550, Note_on_c, 0, 66, 57
1, 386641, Note_off_c, 0, 66, 63
1, 386655, Note_on_c, 0, 64, 51
1, 386721, Note_off_c, 0, 64, 61
1, 386750, Note_on_c, 0, 66, 58
1, 386839, Note_off_c, 0, 66, 61
1, 386854, Note_on_c, 0, 64, 52
1, 386927, Note_off_c, 0, 64, 64
1, 386964, Note_on_c, 0, 66, 52
1, 387026, Note_off_c, 0, 66, 57
1, 387064, Note_on_c, 0, 64, 47
1, 387134, Note_off_c, 0, 64, 57
1, 387274, Note_on_c, 0, 64, 52
1, 387300, Note_on_c, 0, 57, 39
1, 387309, Note_on_c, 0, 49, 35
1, 387325, Note_on_c, 0, 45, 34
1, 387649, Control_c, 0, 67, 125
1, 388048, Note_on_c, 0, 69, 42
1, 388070, Control_c, 0, 67, 123
1, 388131, Control_c, 0, 67, 121
1, 388175, Control_c, 0, 67, 119
1, 388216, Note_on_c, 0, 68, 57
1, 388235, Control_c, 0, 67, 117
1, 388249, Control_c, 0, 67, 109
1, 388264, Control_c, 0, 67, 83
1, 388279, Control_c, 0, 67, 65
1, 388293, Control_c, 0, 67, 49
1, 388308, Control_c, 0, 67, 34
1, 388311, Note_off_c, 0, 64, 37
1, 388319, Note_off_c, 0, 69, 31
1, 388323, Control_c, 0, 67, 0
1, 388367, Note_on_c, 0, 66, 64
1, 388367, Control_c, 0, 64, 35
1, 388382, Control_c, 0, 64, 49
1, 388397, Control_c, 0, 64, 58
1, 388412, Control_c, 0, 64, 60
1, 388427, Control_c, 0, 64, 62
1, 388442, Control_c, 0, 64, 63
1, 388454, Note_off_c, 0, 68, 38
1, 388457, Control_c, 0, 64, 64
1, 388459, Note_off_c, 0, 57, 56
1, 388471, Control_c, 0, 64, 65
1, 388486, Control_c, 0, 64, 66
1, 388495, Note_off_c, 0, 45, 39
1, 388495, Note_off_c, 0, 49, 58
1, 388501, Control_c, 0, 64, 67
1, 388514, Note_on_c, 0, 64, 60
1, 388517, Note_off_c, 0, 66, 60
1, 388546, Control_c, 0, 64, 67
1, 388600, Note_off_c, 0, 64, 56
1, 388693, Control_c, 0, 64, 66
1, 388708, Control_c, 0, 64, 65
1, 388723, Note_on_c, 0, 64, 49
1, 388723, Control_c, 0, 64, 63
1, 388728, Note_on_c, 0, 47, 30
1, 388729, Note_on_c, 0, 50, 32
1, 388731, Note_on_c, 0, 56, 25
1, 388738, Control_c, 0, 64, 61
1, 388753, Control_c, 0, 64, 58
1, 388767, Control_c, 0, 64, 55
1, 388782, Control_c, 0, 64, 54
1, 388797, Control_c, 0, 64, 53
1, 388819, Control_c, 0, 64, 53
1, 388834, Control_c, 0, 64, 52
1, 388849, Control_c, 0, 64, 50
1, 388864, Control_c, 0, 64, 48
1, 388877, Note_off_c, 0, 47, 53
1, 388879, Control_c, 0, 64, 47
1, 388880, Note_off_c, 0, 64, 46
1, 388895, Control_c, 0, 64, 47
1, 388897, Note_off_c, 0, 56, 39
1, 388898, Note_off_c, 0, 50, 36
1, 388939, Control_c, 0, 64, 46
1, 388954, Control_c, 0, 64, 46
1, 389013, Control_c, 0, 64, 45
1, 389039, Note_on_c, 0, 64, 44
1, 389059, Note_on_c, 0, 47, 33
1, 389067, Note_on_c, 0, 56, 30
1, 389068, Note_on_c, 0, 50, 30
1, 389176, Control_c, 0, 64, 46
1, 389190, Control_c, 0, 64, 47
1, 389205, Note_off_c, 0, 64, 44
1, 389205, Control_c, 0, 64, 50
1, 389208, Note_off_c, 0, 47, 48
1, 389216, Note_off_c, 0, 50, 36
1, 389220, Note_off_c, 0, 56, 36
1, 389220, Control_c, 0, 64, 53
1, 389235, Control_c, 0, 64, 57
1, 389249, Control_c, 0, 64, 59
1, 389264, Control_c, 0, 64, 60
1, 389279, Control_c, 0, 64, 60
1, 389356, Note_on_c, 0, 64, 48
1, 389369, Note_on_c, 0, 56, 36
1, 389375, Note_on_c, 0, 47, 35
1, 389378, Note_on_c, 0, 50, 35
1, 389398, Control_c, 0, 64, 60
1, 389413, Control_c, 0, 64, 59
1, 389472, Control_c, 0, 64, 59
1, 389501, Note_off_c, 0, 64, 54
1, 389502, Control_c, 0, 64, 58
1, 389503, Note_off_c, 0, 50, 46
1, 389504, Note_off_c, 0, 56, 45
1, 389507, Note_off_c, 0, 47, 56
1, 389516, Control_c, 0, 64, 57
1, 389531, Control_c, 0, 64, 56
1, 389546, Control_c, 0, 64, 55
1, 389568, Control_c, 0, 64, 52
1, 389583, Control_c, 0, 64, 48
1, 389598, Control_c, 0, 64, 38
1, 389613, Control_c, 0, 64, 0
1, 389681, Note_on_c, 0, 64, 47
1, 389682, Note_on_c, 0, 47, 36
1, 389686, Note_on_c, 0, 56, 30
1, 389691, Note_on_c, 0, 50, 33
1, 389703, Control_c, 0, 64, 28
1, 389718, Control_c, 0, 64, 43
1, 389733, Control_c, 0, 64, 54
1, 389747, Control_c, 0, 64, 59
1, 389762, Control_c, 0, 64, 61
1, 389775, Note_off_c, 0, 50, 59
1, 389777, Control_c, 0, 64, 62
1, 389792, Note_off_c, 0, 64, 63
1, 389792, Control_c, 0, 64, 63
1, 389798, Note_off_c, 0, 56, 57
1, 389807, Control_c, 0, 64, 65
1, 389822, Note_off_c, 0, 47, 61
1, 389822, Control_c, 0, 64, 67
1, 389837, Control_c, 0, 64, 67
1, 389911, Control_c, 0, 64, 66
1, 389926, Control_c, 0, 64, 64
1, 389940, Control_c, 0, 64, 59
1, 389955, Control_c, 0, 64, 51
1, 389970, Control_c, 0, 64, 38
1, 389985, Control_c, 0, 64, 0
1, 390032, Note_on_c, 0, 64, 44
1, 390036, Note_on_c, 0, 57, 40
1, 390052, Note_on_c, 0, 49, 35
1, 390058, Note_on_c, 0, 45, 40
1, 390191, Control_c, 0, 64, 33
1, 390206, Control_c, 0, 64, 40
1, 390221, Control_c, 0, 64, 49
1, 390236, Control_c, 0, 64, 56
1, 390251, Control_c, 0, 64, 60
1, 390266, Control_c, 0, 64, 61
1, 390281, Control_c, 0, 64, 62
1, 390296, Control_c, 0, 64, 64
1, 390318, Control_c, 0, 64, 65
1, 390333, Control_c, 0, 64, 67
1, 390347, Control_c, 0, 64, 69
1, 390362, Control_c, 0, 64, 70
1, 390377, Control_c, 0, 64, 71
1, 390391, Control_c, 0, 64, 72
1, 390406, Control_c, 0, 64, 72
1, 390436, Control_c, 0, 64, 73
1, 390442, Note_off_c, 0, 49, 35
1, 390457, Note_off_c, 0, 45, 36
1, 390457, Note_off_c, 0, 57, 55
1, 390496, Control_c, 0, 64, 72
1, 390500, Note_off_c, 0, 64, 38
1, 390511, Control_c, 0, 64, 72
1, 390526, Control_c, 0, 64, 70
1, 390541, Control_c, 0, 64, 67
1, 390556, Control_c, 0, 64, 64
1, 390570, Control_c, 0, 64, 58
1, 390585, Control_c, 0, 64, 49
1, 390600, Control_c, 0, 64, 35
1, 390615, Control_c, 0, 64, 0
1, 390696, Note_on_c, 0, 56, 45
1, 390696, Note_on_c, 0, 64, 43
1, 390708, Note_on_c, 0, 50, 39
1, 390713, Note_on_c, 0, 47, 44
1, 390778, Control_c, 0, 64, 28
1, 390793, Control_c, 0, 64, 43
1, 390807, Control_c, 0, 64, 51
1, 390822, Control_c, 0, 64, 52
1, 390833, Note_off_c, 0, 56, 52
1, 390835, Note_off_c, 0, 64, 52
1, 390844, Note_off_c, 0, 47, 54
1, 390848, Note_off_c, 0, 50, 48
1, 390867, Control_c, 0, 64, 51
1, 390881, Control_c, 0, 64, 50
1, 390896, Control_c, 0, 64, 49
1, 390911, Control_c, 0, 64, 47
1, 390926, Control_c, 0, 64, 45
1, 390941, Control_c, 0, 64, 43
1, 390956, Control_c, 0, 64, 43
1, 390970, Control_c, 0, 64, 42
1, 390985, Control_c, 0, 64, 40
1, 391000, Control_c, 0, 64, 36
1, 391013, Note_on_c, 0, 64, 50
1, 391014, Control_c, 0, 64, 32
1, 391024, Note_on_c, 0, 50, 38
1, 391025, Note_on_c, 0, 47, 45
1, 391025, Note_on_c, 0, 56, 44
1, 391029, Control_c, 0, 64, 29
1, 391162, Note_off_c, 0, 56, 57
1, 391166, Note_off_c, 0, 47, 60
1, 391173, Note_off_c, 0, 50, 53
1, 391190, Note_off_c, 0, 64, 57
1, 391244, Control_c, 0, 64, 31
1, 391289, Control_c, 0, 64, 32
1, 391304, Control_c, 0, 64, 32
1, 391348, Control_c, 0, 64, 33
1, 391395, Note_on_c, 0, 64, 45
1, 391396, Note_on_c, 0, 57, 42
1, 391406, Note_on_c, 0, 49, 44
1, 391408, Note_on_c, 0, 45, 45
1, 391482, Control_c, 0, 64, 33
1, 391556, Control_c, 0, 64, 34
1, 391585, Control_c, 0, 64, 34
1, 391615, Control_c, 0, 64, 35
1, 391703, Control_c, 0, 64, 35
1, 391816, Note_off_c, 0, 57, 59
1, 391816, Note_off_c, 0, 49, 61
1, 391825, Note_off_c, 0, 45, 62
1, 391835, Note_off_c, 0, 64, 58
1, 391859, Control_c, 0, 64, 36
1, 391947, Control_c, 0, 64, 36
1, 391977, Control_c, 0, 64, 37
1, 392022, Control_c, 0, 64, 37
1, 392048, Note_on_c, 0, 56, 44
1, 392048, Note_on_c, 0, 64, 46
1, 392059, Note_on_c, 0, 47, 43
1, 392060, Note_on_c, 0, 50, 38
1, 392189, Note_off_c, 0, 56, 57
1, 392199, Note_off_c, 0, 64, 58
1, 392202, Note_off_c, 0, 50, 58
1, 392209, Note_off_c, 0, 47, 57
1, 392378, Control_c, 0, 64, 37
1, 392385, Note_on_c, 0, 64, 43
1, 392387, Note_on_c, 0, 47, 44
1, 392389, Note_on_c, 0, 56, 43
1, 392396, Note_on_c, 0, 50, 46
1, 392407, Control_c, 0, 64, 36
1, 392422, Control_c, 0, 64, 35
1, 392437, Control_c, 0, 64, 35
1, 392451, Control_c, 0, 64, 33
1, 392466, Control_c, 0, 64, 31
1, 392481, Control_c, 0, 64, 27
1, 392496, Note_off_c, 0, 56, 50
1, 392496, Control_c, 0, 64, 0
1, 392506, Note_off_c, 0, 50, 56
1, 392511, Note_off_c, 0, 47, 61
1, 392529, Note_off_c, 0, 64, 48
1, 392698, Note_on_c, 0, 64, 57
1, 392711, Note_on_c, 0, 45, 80
1, 392716, Note_on_c, 0, 49, 75
1, 392738, Note_off_c, 0, 64, 66
1, 392741, Control_c, 0, 64, 40
1, 392756, Control_c, 0, 64, 58
1, 392771, Control_c, 0, 64, 61
1, 392785, Control_c, 0, 64, 65
1, 392800, Control_c, 0, 64, 68
1, 392815, Control_c, 0, 64, 69
1, 392830, Control_c, 0, 64, 70
1, 392845, Control_c, 0, 64, 70
1, 392890, Note_off_c, 0, 45, 59
1, 392896, Note_off_c, 0, 49, 56
1, 392920, Control_c, 0, 64, 70
1, 392935, Control_c, 0, 64, 69
1, 392950, Control_c, 0, 64, 66
1, 392964, Control_c, 0, 64, 59
1, 392979, Control_c, 0, 64, 43
1, 392994, Control_c, 0, 64, 0
1, 393044, Note_on_c, 0, 45, 63
1, 393113, Control_c, 0, 64, 43
1, 393128, Control_c, 0, 64, 55
1, 393143, Control_c, 0, 64, 59
1, 393157, Control_c, 0, 64, 61
1, 393172, Control_c, 0, 64, 62
1, 393187, Control_c, 0, 64, 63
1, 393201, Control_c, 0, 64, 64
1, 393216, Control_c, 0, 64, 64
1, 393220, Note_off_c, 0, 45, 58
1, 393231, Control_c, 0, 64, 65
1, 393261, Control_c, 0, 64, 64
1, 393275, Control_c, 0, 64, 59
1, 393290, Control_c, 0, 64, 0
1, 393342, Note_on_c, 0, 50, 81
1, 393359, Note_on_c, 0, 46, 77
1, 393401, Control_c, 0, 64, 42
1, 393415, Control_c, 0, 64, 58
1, 393430, Control_c, 0, 64, 61
1, 393445, Control_c, 0, 64, 63
1, 393460, Control_c, 0, 64, 64
1, 393475, Control_c, 0, 64, 65
1, 393534, Control_c, 0, 64, 65
1, 393538, Note_off_c, 0, 50, 57
1, 393549, Control_c, 0, 64, 62
1, 393563, Control_c, 0, 64, 57
1, 393578, Control_c, 0, 64, 45
1, 393593, Control_c, 0, 64, 0
1, 393656, Note_on_c, 0, 50, 64
1, 393712, Control_c, 0, 64, 35
1, 393727, Control_c, 0, 64, 48
1, 393742, Control_c, 0, 64, 55
1, 393757, Control_c, 0, 64, 58
1, 393772, Control_c, 0, 64, 60
1, 393786, Control_c, 0, 64, 61
1, 393801, Control_c, 0, 64, 62
1, 393804, Note_off_c, 0, 50, 58
1, 393816, Control_c, 0, 64, 63
1, 393831, Control_c, 0, 64, 64
1, 393837, Note_off_c, 0, 46, 59
1, 393846, Control_c, 0, 64, 64
1, 393861, Control_c, 0, 64, 65
1, 393891, Control_c, 0, 64, 63
1, 393905, Control_c, 0, 64, 51
1, 393920, Control_c, 0, 64, 0
1, 393974, Note_on_c, 0, 51, 68
1, 393976, Note_on_c, 0, 47, 87
1, 394009, Control_c, 0, 64, 43
1, 394023, Control_c, 0, 64, 68
1, 394038, Control_c, 0, 64, 75
1, 394061, Control_c, 0, 64, 78
1, 394067, Note_off_c, 0, 51, 62
1, 394073, Note_on_c, 0, 52, 72
1, 394090, Control_c, 0, 64, 76
1, 394105, Control_c, 0, 64, 66
1, 394114, Note_off_c, 0, 47, 61
1, 394120, Control_c, 0, 64, 50
1, 394135, Control_c, 0, 64, 0
1, 394169, Note_off_c, 0, 52, 57
1, 394174, Note_on_c, 0, 53, 64
1, 394268, Control_c, 0, 64, 43
1, 394272, Note_on_c, 0, 54, 65
1, 394283, Control_c, 0, 64, 55
1, 394284, Note_off_c, 0, 53, 60
1, 394287, Note_on_c, 0, 47, 79
1, 394298, Control_c, 0, 64, 60
1, 394312, Control_c, 0, 64, 64
1, 394327, Control_c, 0, 64, 66
1, 394342, Control_c, 0, 64, 68
1, 394356, Control_c, 0, 64, 69
1, 394371, Control_c, 0, 64, 71
1, 394380, Note_on_c, 0, 55, 67
1, 394380, Note_off_c, 0, 54, 61
1, 394386, Control_c, 0, 64, 72
1, 394401, Control_c, 0, 64, 72
1, 394409, Note_off_c, 0, 47, 61
1, 394472, Note_on_c, 0, 56, 71
1, 394475, Control_c, 0, 64, 71
1, 394485, Note_off_c, 0, 55, 37
1, 394491, Control_c, 0, 64, 67
1, 394506, Control_c, 0, 64, 54
1, 394521, Control_c, 0, 64, 0
1, 394550, Note_off_c, 0, 56, 61
1, 394588, Note_on_c, 0, 57, 80
1, 394588, Note_on_c, 0, 48, 86
1, 394595, Note_on_c, 0, 52, 76
1, 394673, Note_off_c, 0, 48, 62
1, 394688, Note_on_c, 0, 47, 74
1, 394693, Note_off_c, 0, 52, 61
1, 394784, Note_on_c, 0, 48, 76
1, 394784, Note_off_c, 0, 47, 64
1, 394868, Note_off_c, 0, 48, 62
1, 394884, Note_on_c, 0, 50, 69
1, 394895, Note_on_c, 0, 52, 58
1, 394967, Note_off_c, 0, 50, 63
1, 394970, Note_on_c, 0, 48, 79
1, 394985, Note_off_c, 0, 57, 63
1, 395017, Note_off_c, 0, 52, 61
1, 395053, Note_off_c, 0, 48, 62
1, 395056, Note_on_c, 0, 47, 70
1, 395161, Note_on_c, 0, 48, 81
1, 395168, Note_on_c, 0, 58, 72
1, 395177, Note_on_c, 0, 52, 64
1, 395192, Note_off_c, 0, 47, 58
1, 395253, Control_c, 0, 64, 28
1, 395259, Note_off_c, 0, 52, 47
1, 395264, Note_on_c, 0, 51, 77
1, 395268, Control_c, 0, 64, 31
1, 395284, Control_c, 0, 64, 35
1, 395286, Note_off_c, 0, 48, 59
1, 395299, Control_c, 0, 64, 39
1, 395314, Control_c, 0, 64, 43
1, 395329, Control_c, 0, 64, 46
1, 395350, Note_on_c, 0, 52, 85
1, 395351, Note_off_c, 0, 51, 62
1, 395388, Control_c, 0, 64, 46
1, 395402, Control_c, 0, 64, 45
1, 395437, Note_off_c, 0, 52, 38
1, 395439, Note_on_c, 0, 49, 90
1, 395446, Note_on_c, 0, 53, 83
1, 395447, Control_c, 0, 64, 46
1, 395521, Note_off_c, 0, 58, 56
1, 395525, Note_off_c, 0, 53, 62
1, 395536, Note_on_c, 0, 55, 82
1, 395536, Control_c, 0, 64, 45
1, 395603, Control_c, 0, 64, 45
1, 395617, Control_c, 0, 64, 44
1, 395630, Note_on_c, 0, 53, 84
1, 395641, Note_off_c, 0, 55, 61
1, 395726, Note_off_c, 0, 49, 60
1, 395736, Note_off_c, 0, 53, 61
1, 395750, Note_on_c, 0, 58, 81
1, 395760, Note_on_c, 0, 48, 71
1, 395767, Note_on_c, 0, 52, 74
1, 395796, Control_c, 0, 64, 44
1, 395810, Control_c, 0, 64, 42
1, 395820, Note_off_c, 0, 58, 64
1, 395825, Control_c, 0, 64, 38
1, 395837, Note_on_c, 0, 57, 81
1, 395840, Control_c, 0, 64, 31
1, 395855, Control_c, 0, 64, 0
1, 395934, Note_on_c, 0, 58, 79
1, 395954, Note_off_c, 0, 57, 58
1, 396025, Note_on_c, 0, 60, 75
1, 396034, Note_off_c, 0, 58, 62
1, 396080, Note_off_c, 0, 48, 62
1, 396100, Note_off_c, 0, 52, 63
1, 396125, Note_on_c, 0, 61, 79
1, 396131, Note_off_c, 0, 60, 64
1, 396200, Note_on_c, 0, 58, 76
1, 396213, Note_off_c, 0, 61, 60
1, 396328, Note_on_c, 0, 65, 88
1, 396341, Note_on_c, 0, 53, 80
1, 396350, Note_on_c, 0, 57, 68
1, 396351, Note_off_c, 0, 58, 62
1, 396382, Control_c, 0, 64, 44
1, 396397, Control_c, 0, 64, 65
1, 396398, Note_off_c, 0, 53, 64
1, 396412, Control_c, 0, 64, 74
1, 396413, Note_off_c, 0, 57, 63
1, 396426, Control_c, 0, 64, 82
1, 396441, Control_c, 0, 64, 85
1, 396456, Control_c, 0, 64, 89
1, 396459, Note_off_c, 0, 65, 64
1, 396471, Control_c, 0, 64, 91
1, 396486, Control_c, 0, 64, 92
1, 396559, Control_c, 0, 64, 91
1, 396574, Control_c, 0, 64, 88
1, 396589, Control_c, 0, 64, 78
1, 396604, Control_c, 0, 64, 65
1, 396619, Control_c, 0, 64, 41
1, 396633, Control_c, 0, 64, 0
1, 396656, Note_on_c, 0, 65, 74
1, 396693, Control_c, 0, 64, 30
1, 396708, Control_c, 0, 64, 49
1, 396723, Control_c, 0, 64, 60
1, 396738, Control_c, 0, 64, 64
1, 396752, Control_c, 0, 64, 66
1, 396767, Control_c, 0, 64, 67
1, 396782, Control_c, 0, 64, 68
1, 396797, Control_c, 0, 64, 69
1, 396810, Note_off_c, 0, 65, 56
1, 396812, Control_c, 0, 64, 70
1, 396826, Control_c, 0, 64, 70
1, 396841, Control_c, 0, 64, 71
1, 396901, Control_c, 0, 64, 69
1, 396916, Control_c, 0, 64, 60
1, 396931, Control_c, 0, 64, 0
1, 396947, Note_on_c, 0, 70, 85
1, 396952, Note_on_c, 0, 66, 87
1, 397005, Control_c, 0, 64, 40
1, 397020, Control_c, 0, 64, 55
1, 397035, Control_c, 0, 64, 61
1, 397056, Control_c, 0, 64, 64
1, 397071, Control_c, 0, 64, 67
1, 397086, Control_c, 0, 64, 69
1, 397101, Control_c, 0, 64, 71
1, 397106, Note_off_c, 0, 70, 61
1, 397116, Control_c, 0, 64, 72
1, 397130, Control_c, 0, 64, 73
1, 397145, Control_c, 0, 64, 73
1, 397204, Control_c, 0, 64, 71
1, 397219, Control_c, 0, 64, 63
1, 397234, Control_c, 0, 64, 41
1, 397248, Control_c, 0, 64, 0
1, 397291, Note_on_c, 0, 70, 72
1, 397308, Control_c, 0, 64, 47
1, 397322, Control_c, 0, 64, 59
1, 397337, Control_c, 0, 64, 65
1, 397352, Control_c, 0, 64, 69
1, 397363, Note_off_c, 0, 70, 60
1, 397367, Control_c, 0, 64, 72
1, 397381, Control_c, 0, 64, 74
1, 397396, Control_c, 0, 64, 76
1, 397398, Note_off_c, 0, 66, 63
1, 397411, Control_c, 0, 64, 78
1, 397426, Control_c, 0, 64, 79
1, 397441, Control_c, 0, 64, 80
1, 397486, Control_c, 0, 64, 81
1, 397530, Control_c, 0, 64, 75
1, 397545, Control_c, 0, 64, 62
1, 397560, Control_c, 0, 64, 0
1, 397574, Note_on_c, 0, 67, 88
1, 397581, Note_on_c, 0, 71, 70
1, 397619, Control_c, 0, 64, 45
1, 397634, Control_c, 0, 64, 58
1, 397648, Control_c, 0, 64, 63
1, 397652, Note_off_c, 0, 71, 53
1, 397663, Control_c, 0, 64, 65
1, 397668, Note_on_c, 0, 72, 74
1, 397679, Control_c, 0, 64, 68
1, 397685, Note_off_c, 0, 67, 61
1, 397694, Control_c, 0, 64, 71
1, 397709, Control_c, 0, 64, 73
1, 397724, Control_c, 0, 64, 75
1, 397739, Control_c, 0, 64, 76
1, 397753, Control_c, 0, 64, 76
1, 397767, Note_off_c, 0, 72, 60
1, 397768, Control_c, 0, 64, 77
1, 397772, Note_on_c, 0, 73, 71
1, 397783, Control_c, 0, 64, 78
1, 397805, Control_c, 0, 64, 78
1, 397820, Control_c, 0, 64, 74
1, 397834, Control_c, 0, 64, 63
1, 397842, Note_off_c, 0, 73, 63
1, 397849, Control_c, 0, 64, 36
1, 397864, Control_c, 0, 64, 0
1, 397868, Note_on_c, 0, 74, 79
1, 397877, Note_on_c, 0, 67, 81
1, 397924, Control_c, 0, 64, 40
1, 397939, Control_c, 0, 64, 52
1, 397953, Control_c, 0, 64, 59
1, 397959, Note_off_c, 0, 74, 50
1, 397968, Control_c, 0, 64, 62
1, 397975, Note_on_c, 0, 75, 72
1, 397983, Control_c, 0, 64, 64
1, 397987, Note_off_c, 0, 67, 60
1, 397997, Control_c, 0, 64, 65
1, 398012, Control_c, 0, 64, 66
1, 398027, Control_c, 0, 64, 67
1, 398042, Control_c, 0, 64, 70
1, 398052, Note_off_c, 0, 75, 57
1, 398057, Control_c, 0, 64, 73
1, 398061, Note_on_c, 0, 76, 74
1, 398071, Control_c, 0, 64, 76
1, 398086, Control_c, 0, 64, 77
1, 398101, Control_c, 0, 64, 76
1, 398116, Control_c, 0, 64, 72
1, 398131, Control_c, 0, 64, 66
1, 398145, Note_off_c, 0, 76, 56
1, 398145, Control_c, 0, 64, 56
1, 398160, Control_c, 0, 64, 40
1, 398168, Note_on_c, 0, 68, 82
1, 398168, Note_on_c, 0, 77, 87
1, 398171, Note_on_c, 0, 72, 85
1, 398175, Control_c, 0, 64, 0
1, 398249, Note_off_c, 0, 68, 63
1, 398255, Note_on_c, 0, 67, 78
1, 398277, Note_off_c, 0, 72, 63
1, 398279, Control_c, 0, 64, 29
1, 398294, Control_c, 0, 64, 34
1, 398308, Control_c, 0, 64, 36
1, 398323, Control_c, 0, 64, 37
1, 398344, Note_off_c, 0, 67, 66
1, 398346, Note_on_c, 0, 68, 77
1, 398353, Control_c, 0, 64, 38
1, 398368, Control_c, 0, 64, 38
1, 398397, Control_c, 0, 64, 39
1, 398412, Control_c, 0, 64, 39
1, 398423, Note_off_c, 0, 68, 59
1, 398427, Control_c, 0, 64, 40
1, 398439, Note_on_c, 0, 70, 72
1, 398442, Control_c, 0, 64, 41
1, 398448, Note_on_c, 0, 72, 72
1, 398457, Control_c, 0, 64, 42
1, 398472, Control_c, 0, 64, 42
1, 398487, Control_c, 0, 64, 43
1, 398502, Control_c, 0, 64, 44
1, 398503, Note_off_c, 0, 70, 61
1, 398523, Note_off_c, 0, 77, 62
1, 398529, Note_on_c, 0, 68, 71
1, 398580, Note_off_c, 0, 72, 61
1, 398607, Note_off_c, 0, 68, 62
1, 398618, Note_on_c, 0, 67, 70
1, 398642, Control_c, 0, 64, 42
1, 398657, Control_c, 0, 64, 37
1, 398672, Control_c, 0, 64, 27
1, 398687, Control_c, 0, 64, 0
1, 398719, Note_off_c, 0, 67, 60
1, 398727, Note_on_c, 0, 68, 76
1, 398729, Note_on_c, 0, 78, 74
1, 398732, Control_c, 0, 64, 32
1, 398743, Note_on_c, 0, 72, 67
1, 398747, Control_c, 0, 64, 44
1, 398762, Control_c, 0, 64, 54
1, 398776, Control_c, 0, 64, 59
1, 398791, Control_c, 0, 64, 62
1, 398806, Control_c, 0, 64, 64
1, 398814, Note_off_c, 0, 72, 54
1, 398820, Control_c, 0, 64, 66
1, 398823, Note_on_c, 0, 71, 81
1, 398835, Control_c, 0, 64, 68
1, 398850, Control_c, 0, 64, 71
1, 398857, Note_off_c, 0, 68, 62
1, 398865, Control_c, 0, 64, 74
1, 398880, Control_c, 0, 64, 77
1, 398894, Control_c, 0, 64, 82
1, 398900, Note_off_c, 0, 71, 61
1, 398908, Note_on_c, 0, 72, 87
1, 398909, Control_c, 0, 64, 85
1, 398924, Control_c, 0, 64, 85
1, 398939, Control_c, 0, 64, 85
1, 398953, Control_c, 0, 64, 81
1, 398968, Control_c, 0, 64, 73
1, 398983, Control_c, 0, 64, 64
1, 398998, Control_c, 0, 64, 50
1, 399006, Note_on_c, 0, 73, 81
1, 399008, Note_on_c, 0, 69, 96
1, 399013, Control_c, 0, 64, 37
1, 399027, Note_off_c, 0, 72, 61
1, 399027, Control_c, 0, 64, 0
1, 399082, Note_off_c, 0, 73, 63
1, 399100, Note_on_c, 0, 75, 79
1, 399105, Note_off_c, 0, 78, 61
1, 399131, Control_c, 0, 64, 29
1, 399146, Control_c, 0, 64, 32
1, 399161, Control_c, 0, 64, 34
1, 399176, Control_c, 0, 64, 35
1, 399186, Note_on_c, 0, 73, 75
1, 399187, Note_off_c, 0, 75, 61
1, 399250, Control_c, 0, 64, 35
1, 399265, Control_c, 0, 64, 36
1, 399280, Control_c, 0, 64, 37
1, 399301, Note_off_c, 0, 73, 62
1, 399303, Control_c, 0, 64, 37
1, 399306, Note_on_c, 0, 78, 73
1, 399315, Note_on_c, 0, 72, 74
1, 399324, Note_on_c, 0, 68, 73
1, 399347, Control_c, 0, 64, 38
1, 399360, Note_off_c, 0, 69, 56
1, 399373, Note_off_c, 0, 78, 60
1, 399402, Note_on_c, 0, 77, 82
1, 399466, Control_c, 0, 64, 37
1, 399480, Note_off_c, 0, 77, 44
1, 399481, Control_c, 0, 64, 33
1, 399489, Note_on_c, 0, 78, 76
1, 399496, Control_c, 0, 64, 0
1, 399578, Note_off_c, 0, 72, 65
1, 399580, Note_on_c, 0, 80, 83
1, 399608, Note_off_c, 0, 68, 65
1, 399609, Note_off_c, 0, 78, 54
1, 399614, Control_c, 0, 64, 30
1, 399629, Control_c, 0, 64, 48
1, 399644, Control_c, 0, 64, 61
1, 399659, Control_c, 0, 64, 65
1, 399665, Note_off_c, 0, 80, 64
1, 399667, Note_on_c, 0, 81, 84
1, 399674, Control_c, 0, 64, 66
1, 399689, Control_c, 0, 64, 66
1, 399704, Control_c, 0, 64, 67
1, 399718, Control_c, 0, 64, 69
1, 399733, Control_c, 0, 64, 70
1, 399745, Note_on_c, 0, 78, 69
1, 399748, Control_c, 0, 64, 71
1, 399779, Note_off_c, 0, 81, 63
1, 399822, Control_c, 0, 64, 69
1, 399837, Control_c, 0, 64, 61
1, 399851, Control_c, 0, 64, 32
1, 399866, Note_on_c, 0, 77, 75
1, 399866, Control_c, 0, 64, 0
1, 399872, Note_on_c, 0, 73, 79
1, 399877, Note_on_c, 0, 49, 89
1, 399898, Note_off_c, 0, 78, 58
1, 399925, Control_c, 0, 64, 41
1, 399940, Control_c, 0, 64, 57
1, 399945, Note_off_c, 0, 77, 63
1, 399946, Note_off_c, 0, 73, 58
1, 399955, Control_c, 0, 64, 65
1, 399969, Control_c, 0, 64, 70
1, 399984, Control_c, 0, 64, 75
1, 399999, Control_c, 0, 64, 78
1, 400014, Control_c, 0, 64, 81
1, 400029, Control_c, 0, 64, 83
1, 400051, Control_c, 0, 64, 84
1, 400066, Note_off_c, 0, 49, 58
1, 400066, Control_c, 0, 64, 85
1, 400200, Control_c, 0, 64, 83
1, 400215, Control_c, 0, 64, 78
1, 400230, Control_c, 0, 64, 66
1, 400236, Note_on_c, 0, 49, 76
1, 400245, Control_c, 0, 64, 51
1, 400260, Control_c, 0, 64, 0
1, 400319, Control_c, 0, 64, 43
1, 400334, Control_c, 0, 64, 57
1, 400348, Control_c, 0, 64, 63
1, 400363, Control_c, 0, 64, 65
1, 400378, Control_c, 0, 64, 67
1, 400393, Control_c, 0, 64, 70
1, 400407, Control_c, 0, 64, 72
1, 400408, Note_off_c, 0, 49, 61
1, 400422, Control_c, 0, 64, 75
1, 400437, Control_c, 0, 64, 80
1, 400452, Control_c, 0, 64, 87
1, 400467, Control_c, 0, 64, 90
1, 400482, Control_c, 0, 64, 87
1, 400496, Control_c, 0, 64, 73
1, 400505, Note_on_c, 0, 54, 88
1, 400511, Control_c, 0, 64, 53
1, 400526, Control_c, 0, 64, 0
1, 400532, Note_on_c, 0, 50, 79
1, 400586, Control_c, 0, 64, 46
1, 400600, Control_c, 0, 64, 60
1, 400615, Control_c, 0, 64, 66
1, 400630, Control_c, 0, 64, 70
1, 400645, Control_c, 0, 64, 74
1, 400660, Control_c, 0, 64, 77
1, 400674, Control_c, 0, 64, 79
1, 400684, Note_off_c, 0, 54, 60
1, 400689, Control_c, 0, 64, 80
1, 400704, Control_c, 0, 64, 81
1, 400778, Control_c, 0, 64, 80
1, 400800, Control_c, 0, 64, 74
1, 400815, Control_c, 0, 64, 62
1, 400830, Control_c, 0, 64, 28
1, 400830, Note_on_c, 0, 54, 67
1, 400845, Control_c, 0, 64, 0
1, 400890, Control_c, 0, 64, 31
1, 400905, Control_c, 0, 64, 50
1, 400920, Control_c, 0, 64, 62
1, 400935, Control_c, 0, 64, 68
1, 400941, Note_off_c, 0, 50, 63
1, 400943, Note_off_c, 0, 54, 58
1, 400949, Control_c, 0, 64, 72
1, 400964, Control_c, 0, 64, 76
1, 400979, Control_c, 0, 64, 81
1, 400994, Control_c, 0, 64, 85
1, 401009, Control_c, 0, 64, 90
1, 401023, Control_c, 0, 64, 94
1, 401038, Control_c, 0, 64, 98
1, 401053, Control_c, 0, 64, 101
1, 401083, Control_c, 0, 64, 96
1, 401097, Control_c, 0, 64, 75
1, 401112, Control_c, 0, 64, 51
1, 401125, Note_on_c, 0, 51, 94
1, 401127, Control_c, 0, 64, 0
1, 401128, Note_on_c, 0, 55, 72
1, 401171, Control_c, 0, 64, 45
1, 401186, Control_c, 0, 64, 61
1, 401201, Control_c, 0, 64, 68
1, 401216, Control_c, 0, 64, 75
1, 401227, Note_off_c, 0, 51, 61
1, 401229, Note_on_c, 0, 56, 71
1, 401230, Control_c, 0, 64, 80
1, 401233, Note_off_c, 0, 55, 58
1, 401245, Control_c, 0, 64, 84
1, 401260, Control_c, 0, 64, 86
1, 401275, Control_c, 0, 64, 88
1, 401322, Note_on_c, 0, 57, 68
1, 401330, Note_off_c, 0, 56, 57
1, 401364, Control_c, 0, 64, 87
1, 401379, Control_c, 0, 64, 83
1, 401394, Control_c, 0, 64, 73
1, 401409, Control_c, 0, 64, 60
1, 401423, Control_c, 0, 64, 37
1, 401426, Note_on_c, 0, 58, 71
1, 401432, Note_on_c, 0, 51, 83
1, 401435, Note_off_c, 0, 57, 60
1, 401438, Control_c, 0, 64, 0
1, 401453, Control_c, 0, 64, 30
1, 401468, Control_c, 0, 64, 51
1, 401483, Control_c, 0, 64, 64
1, 401492, Note_off_c, 0, 58, 63
1, 401497, Control_c, 0, 64, 70
1, 401512, Control_c, 0, 64, 75
1, 401521, Note_on_c, 0, 59, 75
1, 401527, Control_c, 0, 64, 77
1, 401532, Note_off_c, 0, 51, 59
1, 401549, Control_c, 0, 64, 79
1, 401564, Control_c, 0, 64, 80
1, 401596, Note_off_c, 0, 59, 52
1, 401623, Note_on_c, 0, 60, 68
1, 401637, Control_c, 0, 64, 79
1, 401652, Control_c, 0, 64, 76
1, 401668, Control_c, 0, 64, 66
1, 401683, Control_c, 0, 64, 40
1, 401698, Control_c, 0, 64, 0
1, 401701, Note_off_c, 0, 60, 59
1, 401723, Note_on_c, 0, 61, 81
1, 401728, Note_on_c, 0, 56, 82
1, 401730, Note_on_c, 0, 52, 78
1, 401799, Note_off_c, 0, 52, 56
1, 401814, Note_on_c, 0, 51, 77
1, 401838, Note_off_c, 0, 56, 62
1, 401898, Note_off_c, 0, 51, 63
1, 401901, Note_on_c, 0, 52, 79
1, 402002, Note_on_c, 0, 56, 71
1, 402002, Note_off_c, 0, 52, 61
1, 402006, Note_on_c, 0, 54, 75
1, 402097, Note_on_c, 0, 52, 72
1, 402097, Note_off_c, 0, 54, 60
1, 402118, Note_off_c, 0, 61, 60
1, 402145, Note_off_c, 0, 56, 58
1, 402184, Note_on_c, 0, 51, 75
1, 402184, Note_off_c, 0, 52, 63
1, 402284, Note_on_c, 0, 62, 73
1, 402296, Note_on_c, 0, 56, 69
1, 402297, Control_c, 0, 64, 36
1, 402312, Control_c, 0, 64, 53
1, 402312, Note_on_c, 0, 52, 72
1, 402327, Note_off_c, 0, 51, 61
1, 402327, Control_c, 0, 64, 61
1, 402342, Control_c, 0, 64, 63
1, 402357, Control_c, 0, 64, 64
1, 402371, Control_c, 0, 64, 66
1, 402380, Note_off_c, 0, 56, 63
1, 402386, Control_c, 0, 64, 67
1, 402391, Note_on_c, 0, 55, 74
1, 402401, Control_c, 0, 64, 70
1, 402412, Note_off_c, 0, 52, 59
1, 402416, Control_c, 0, 64, 73
1, 402431, Control_c, 0, 64, 77
1, 402446, Control_c, 0, 64, 82
1, 402461, Control_c, 0, 64, 82
1, 402476, Control_c, 0, 64, 79
1, 402480, Note_on_c, 0, 56, 84
1, 402491, Control_c, 0, 64, 66
1, 402494, Note_off_c, 0, 55, 61
1, 402506, Control_c, 0, 64, 36
1, 402521, Control_c, 0, 64, 0
1, 402565, Note_off_c, 0, 56, 62
1, 402567, Note_on_c, 0, 53, 89
1, 402572, Note_on_c, 0, 57, 82
1, 402580, Control_c, 0, 64, 36
1, 402595, Control_c, 0, 64, 53
1, 402610, Control_c, 0, 64, 64
1, 402625, Control_c, 0, 64, 71
1, 402631, Note_off_c, 0, 57, 62
1, 402640, Control_c, 0, 64, 77
1, 402655, Control_c, 0, 64, 79
1, 402662, Note_on_c, 0, 59, 84
1, 402669, Control_c, 0, 64, 81
1, 402682, Note_off_c, 0, 62, 62
1, 402684, Control_c, 0, 64, 83
1, 402699, Control_c, 0, 64, 85
1, 402714, Control_c, 0, 64, 86
1, 402733, Note_off_c, 0, 59, 65
1, 402736, Note_on_c, 0, 57, 81
1, 402832, Control_c, 0, 64, 85
1, 402847, Control_c, 0, 64, 83
1, 402861, Note_off_c, 0, 53, 56
1, 402861, Control_c, 0, 64, 79
1, 402875, Note_off_c, 0, 57, 58
1, 402876, Control_c, 0, 64, 70
1, 402881, Note_on_c, 0, 62, 72
1, 402884, Note_on_c, 0, 52, 73
1, 402886, Note_on_c, 0, 56, 79
1, 402891, Control_c, 0, 64, 58
1, 402906, Control_c, 0, 64, 32
1, 402920, Control_c, 0, 64, 0
1, 402962, Note_off_c, 0, 62, 61
1, 402986, Note_on_c, 0, 61, 68
1, 403072, Note_on_c, 0, 62, 74
1, 403078, Note_off_c, 0, 61, 62
1, 403167, Note_on_c, 0, 64, 78
1, 403186, Note_off_c, 0, 62, 58
1, 403245, Note_off_c, 0, 64, 66
1, 403251, Note_on_c, 0, 65, 73
1, 403277, Note_off_c, 0, 52, 61
1, 403324, Note_off_c, 0, 56, 62
1, 403329, Note_on_c, 0, 62, 72
1, 403332, Note_off_c, 0, 65, 64
1, 403459, Note_on_c, 0, 61, 76
1, 403467, Note_off_c, 0, 62, 62
1, 403497, Note_on_c, 0, 57, 87
1, 403536, Control_c, 0, 64, 51
1, 403551, Control_c, 0, 64, 60
1, 403566, Control_c, 0, 64, 63
1, 403581, Control_c, 0, 64, 66
1, 403596, Control_c, 0, 64, 71
1, 403610, Note_off_c, 0, 61, 62
1, 403610, Control_c, 0, 64, 75
1, 403625, Control_c, 0, 64, 78
1, 403640, Control_c, 0, 64, 81
1, 403655, Control_c, 0, 64, 83
1, 403670, Control_c, 0, 64, 85
1, 403684, Control_c, 0, 64, 86
1, 403689, Note_off_c, 0, 57, 55
1, 403714, Control_c, 0, 64, 86
1, 403758, Control_c, 0, 64, 87
1, 403773, Control_c, 0, 64, 87
1, 403825, Control_c, 0, 64, 83
1, 403840, Control_c, 0, 64, 75
1, 403841, Note_on_c, 0, 57, 65
1, 403855, Control_c, 0, 64, 66
1, 403870, Control_c, 0, 64, 60
1, 403885, Control_c, 0, 64, 61
1, 403899, Control_c, 0, 64, 64
1, 403914, Control_c, 0, 64, 67
1, 403929, Control_c, 0, 64, 71
1, 403943, Control_c, 0, 64, 75
1, 403958, Control_c, 0, 64, 78
1, 403973, Control_c, 0, 64, 81
1, 403988, Control_c, 0, 64, 83
1, 404003, Control_c, 0, 64, 86
1, 404017, Control_c, 0, 64, 90
1, 404019, Note_off_c, 0, 57, 58
1, 404032, Control_c, 0, 64, 93
1, 404047, Control_c, 0, 64, 94
1, 404062, Control_c, 0, 64, 94
1, 404078, Control_c, 0, 64, 84
1, 404093, Control_c, 0, 64, 66
1, 404108, Control_c, 0, 64, 0
1, 404109, Note_on_c, 0, 62, 84
1, 404115, Note_on_c, 0, 58, 84
1, 404166, Control_c, 0, 64, 30
1, 404181, Control_c, 0, 64, 48
1, 404196, Control_c, 0, 64, 63
1, 404211, Control_c, 0, 64, 70
1, 404226, Control_c, 0, 64, 75
1, 404240, Control_c, 0, 64, 79
1, 404252, Note_off_c, 0, 62, 57
1, 404255, Control_c, 0, 64, 83
1, 404270, Control_c, 0, 64, 86
1, 404285, Control_c, 0, 64, 88
1, 404300, Control_c, 0, 64, 88
1, 404330, Control_c, 0, 64, 89
1, 404359, Control_c, 0, 64, 88
1, 404374, Control_c, 0, 64, 86
1, 404389, Control_c, 0, 64, 76
1, 404404, Control_c, 0, 64, 59
1, 404419, Control_c, 0, 64, 34
1, 404423, Note_on_c, 0, 62, 64
1, 404433, Control_c, 0, 64, 0
1, 404463, Control_c, 0, 64, 38
1, 404477, Note_off_c, 0, 62, 61
1, 404478, Control_c, 0, 64, 56
1, 404493, Control_c, 0, 64, 65
1, 404507, Control_c, 0, 64, 71
1, 404515, Note_off_c, 0, 58, 60
1, 404522, Control_c, 0, 64, 77
1, 404545, Control_c, 0, 64, 82
1, 404559, Control_c, 0, 64, 90
1, 404574, Control_c, 0, 64, 95
1, 404589, Control_c, 0, 64, 101
1, 404604, Control_c, 0, 64, 107
1, 404617, Control_c, 0, 64, 111
1, 404632, Control_c, 0, 64, 114
1, 404646, Control_c, 0, 64, 118
1, 404661, Control_c, 0, 64, 126
1, 404676, Control_c, 0, 64, 123
1, 404691, Control_c, 0, 64, 103
1, 404705, Control_c, 0, 64, 78
1, 404716, Note_on_c, 0, 74, 82
1, 404720, Control_c, 0, 64, 56
1, 404729, Note_on_c, 0, 65, 65
1, 404731, Note_on_c, 0, 58, 68
1, 404735, Control_c, 0, 64, 0
1, 404765, Control_c, 0, 64, 31
1, 404780, Control_c, 0, 64, 53
1, 404795, Control_c, 0, 64, 65
1, 404809, Note_on_c, 0, 75, 81
1, 404810, Control_c, 0, 64, 75
1, 404825, Control_c, 0, 64, 85
1, 404827, Note_off_c, 0, 74, 56
1, 404839, Control_c, 0, 64, 95
1, 404854, Control_c, 0, 64, 113
1, 404863, Note_off_c, 0, 65, 55
1, 404869, Control_c, 0, 64, 127
1, 404871, Note_off_c, 0, 58, 58
1, 404908, Note_on_c, 0, 76, 83
1, 404911, Note_off_c, 0, 75, 63
1, 404967, Note_off_c, 0, 76, 66
1, 404995, Note_on_c, 0, 58, 75
1, 404995, Note_on_c, 0, 77, 88
1, 404998, Note_on_c, 0, 65, 73
1, 405018, Control_c, 0, 64, 81
1, 405033, Control_c, 0, 64, 60
1, 405048, Control_c, 0, 64, 32
1, 405062, Control_c, 0, 64, 0
1, 405077, Control_c, 0, 64, 37
1, 405092, Note_on_c, 0, 78, 80
1, 405092, Control_c, 0, 64, 59
1, 405098, Note_off_c, 0, 65, 59
1, 405107, Control_c, 0, 64, 72
1, 405111, Note_off_c, 0, 77, 55
1, 405114, Note_off_c, 0, 58, 57
1, 405121, Control_c, 0, 64, 90
1, 405136, Control_c, 0, 64, 106
1, 405151, Control_c, 0, 64, 127
1, 405165, Note_on_c, 0, 79, 81
1, 405209, Note_off_c, 0, 78, 59
1, 405269, Control_c, 0, 64, 95
1, 405277, Note_on_c, 0, 80, 94
1, 405291, Note_on_c, 0, 58, 70
1, 405292, Control_c, 0, 64, 65
1, 405301, Note_on_c, 0, 74, 83
1, 405307, Control_c, 0, 64, 32
1, 405311, Note_off_c, 0, 79, 63
1, 405321, Control_c, 0, 64, 0
1, 405326, Note_off_c, 0, 74, 61
1, 405336, Control_c, 0, 64, 31
1, 405351, Control_c, 0, 64, 55
1, 405366, Control_c, 0, 64, 71
1, 405381, Control_c, 0, 64, 89
1, 405387, Note_on_c, 0, 60, 76
1, 405395, Control_c, 0, 64, 114
1, 405410, Control_c, 0, 64, 127
1, 405422, Note_off_c, 0, 58, 61
1, 405422, Note_off_c, 0, 80, 49
1, 405492, Note_off_c, 0, 60, 63
1, 405495, Note_on_c, 0, 61, 79
1, 405528, Control_c, 0, 64, 86
1, 405543, Control_c, 0, 64, 63
1, 405558, Control_c, 0, 64, 37
1, 405562, Note_on_c, 0, 80, 74
1, 405569, Note_on_c, 0, 74, 76
1, 405573, Control_c, 0, 64, 0
1, 405576, Note_off_c, 0, 61, 64
1, 405583, Note_on_c, 0, 62, 73
1, 405603, Control_c, 0, 64, 40
1, 405618, Control_c, 0, 64, 58
1, 405620, Note_off_c, 0, 80, 62
1, 405628, Note_off_c, 0, 74, 54
1, 405633, Control_c, 0, 64, 67
1, 405647, Control_c, 0, 64, 72
1, 405663, Control_c, 0, 64, 75
1, 405671, Note_off_c, 0, 62, 61
1, 405672, Note_on_c, 0, 63, 74
1, 405678, Control_c, 0, 64, 79
1, 405692, Control_c, 0, 64, 84
1, 405707, Control_c, 0, 64, 88
1, 405722, Control_c, 0, 64, 92
1, 405737, Control_c, 0, 64, 95
1, 405751, Note_on_c, 0, 64, 78
1, 405754, Note_off_c, 0, 63, 63
1, 405767, Control_c, 0, 64, 98
1, 405811, Control_c, 0, 64, 86
1, 405826, Control_c, 0, 64, 66
1, 405829, Note_off_c, 0, 64, 64
1, 405841, Control_c, 0, 64, 0
1, 405854, Note_on_c, 0, 65, 87
1, 405856, Note_on_c, 0, 80, 83
1, 405856, Note_on_c, 0, 59, 84
1, 405900, Control_c, 0, 64, 49
1, 405915, Control_c, 0, 64, 64
1, 405930, Control_c, 0, 64, 73
1, 405937, Note_off_c, 0, 65, 45
1, 405941, Note_on_c, 0, 81, 83
1, 405943, Note_off_c, 0, 59, 60
1, 405944, Control_c, 0, 64, 82
1, 405959, Control_c, 0, 64, 90
1, 405962, Note_off_c, 0, 80, 61
1, 405974, Control_c, 0, 64, 102
1, 405989, Control_c, 0, 64, 127
1, 406041, Note_on_c, 0, 82, 86
1, 406057, Note_off_c, 0, 81, 60
1, 406107, Note_off_c, 0, 82, 62
1, 406115, Control_c, 0, 64, 111
1, 406130, Control_c, 0, 64, 72
1, 406136, Note_on_c, 0, 83, 95
1, 406139, Note_on_c, 0, 59, 82
1, 406143, Note_on_c, 0, 65, 79
1, 406145, Control_c, 0, 64, 42
1, 406160, Control_c, 0, 64, 0
1, 406190, Control_c, 0, 64, 46
1, 406197, Note_off_c, 0, 65, 63
1, 406205, Control_c, 0, 64, 65
1, 406206, Note_off_c, 0, 83, 52
1, 406217, Note_off_c, 0, 59, 60
1, 406219, Control_c, 0, 64, 75
1, 406223, Note_on_c, 0, 84, 87
1, 406234, Control_c, 0, 64, 86
1, 406249, Control_c, 0, 64, 95
1, 406264, Control_c, 0, 64, 105
1, 406279, Control_c, 0, 64, 127
1, 406312, Note_on_c, 0, 85, 87
1, 406342, Note_off_c, 0, 84, 55
1, 406409, Note_off_c, 0, 85, 58
1, 406426, Control_c, 0, 64, 78
1, 406428, Note_on_c, 0, 86, 91
1, 406433, Note_on_c, 0, 59, 86
1, 406441, Control_c, 0, 64, 31
1, 406449, Note_on_c, 0, 80, 76
1, 406457, Control_c, 0, 64, 0
1, 406502, Control_c, 0, 64, 42
1, 406516, Control_c, 0, 64, 62
1, 406525, Note_on_c, 0, 60, 78
1, 406531, Control_c, 0, 64, 73
1, 406536, Note_off_c, 0, 80, 61
1, 406546, Note_off_c, 0, 59, 61
1, 406546, Control_c, 0, 64, 91
1, 406560, Control_c, 0, 64, 111
1, 406563, Note_off_c, 0, 86, 63
1, 406575, Control_c, 0, 64, 127
1, 406615, Note_off_c, 0, 60, 67
1, 406619, Note_on_c, 0, 61, 83
1, 406664, Control_c, 0, 64, 80
1, 406679, Control_c, 0, 64, 56
1, 406694, Control_c, 0, 64, 0
1, 406700, Note_off_c, 0, 61, 64
1, 406717, Note_on_c, 0, 86, 84
1, 406721, Note_on_c, 0, 62, 75
1, 406723, Note_on_c, 0, 80, 79
1, 406738, Control_c, 0, 64, 31
1, 406753, Control_c, 0, 64, 49
1, 406764, Note_off_c, 0, 80, 60
1, 406768, Control_c, 0, 64, 62
1, 406785, Note_off_c, 0, 62, 62
1, 406790, Control_c, 0, 64, 70
1, 406792, Note_off_c, 0, 86, 65
1, 406805, Control_c, 0, 64, 79
1, 406815, Note_on_c, 0, 64, 80
1, 406820, Control_c, 0, 64, 87
1, 406835, Control_c, 0, 64, 92
1, 406849, Control_c, 0, 64, 98
1, 406864, Control_c, 0, 64, 106
1, 406879, Control_c, 0, 64, 110
1, 406885, Note_off_c, 0, 64, 63
1, 406893, Control_c, 0, 64, 114
1, 406908, Control_c, 0, 64, 120
1, 406919, Note_on_c, 0, 65, 67
1, 406923, Control_c, 0, 64, 123
1, 406938, Control_c, 0, 64, 117
1, 406953, Control_c, 0, 64, 88
1, 406968, Control_c, 0, 64, 64
1, 406973, Note_off_c, 0, 65, 61
1, 406983, Control_c, 0, 64, 28
1, 406998, Control_c, 0, 64, 0
1, 407006, Note_on_c, 0, 86, 90
1, 407007, Note_on_c, 0, 59, 82
1, 407013, Note_on_c, 0, 64, 74
1, 407028, Control_c, 0, 64, 33
1, 407042, Control_c, 0, 64, 55
1, 407057, Control_c, 0, 64, 66
1, 407072, Control_c, 0, 64, 73
1, 407086, Control_c, 0, 64, 82
1, 407095, Note_on_c, 0, 87, 83
1, 407098, Note_off_c, 0, 59, 60
1, 407101, Control_c, 0, 64, 89
1, 407102, Note_off_c, 0, 86, 63
1, 407110, Note_off_c, 0, 64, 63
1, 407116, Control_c, 0, 64, 96
1, 407131, Control_c, 0, 64, 104
1, 407146, Control_c, 0, 64, 112
1, 407160, Control_c, 0, 64, 121
1, 407175, Control_c, 0, 64, 127
1, 407189, Note_on_c, 0, 88, 85
1, 407191, Note_off_c, 0, 87, 62
1, 407220, Control_c, 0, 64, 123
1, 407234, Control_c, 0, 64, 99
1, 407239, Note_off_c, 0, 88, 67
1, 407249, Control_c, 0, 64, 77
1, 407265, Control_c, 0, 64, 53
1, 407278, Note_on_c, 0, 89, 89
1, 407280, Control_c, 0, 64, 0
1, 407286, Note_on_c, 0, 64, 73
1, 407287, Note_on_c, 0, 59, 73
1, 407324, Control_c, 0, 64, 36
1, 407339, Control_c, 0, 64, 55
1, 407354, Control_c, 0, 64, 65
1, 407357, Note_off_c, 0, 64, 62
1, 407365, Note_on_c, 0, 90, 83
1, 407369, Control_c, 0, 64, 72
1, 407375, Note_off_c, 0, 89, 59
1, 407383, Control_c, 0, 64, 79
1, 407385, Note_off_c, 0, 59, 59
1, 407398, Control_c, 0, 64, 86
1, 407413, Control_c, 0, 64, 94
1, 407428, Control_c, 0, 64, 102
1, 407443, Control_c, 0, 64, 115
1, 407449, Note_on_c, 0, 91, 85
1, 407457, Control_c, 0, 64, 127
1, 407490, Note_off_c, 0, 90, 63
1, 407516, Control_c, 0, 64, 96
1, 407539, Control_c, 0, 64, 69
1, 407554, Control_c, 0, 64, 46
1, 407567, Note_on_c, 0, 92, 98
1, 407568, Note_on_c, 0, 59, 76
1, 407569, Control_c, 0, 64, 0
1, 407576, Note_on_c, 0, 86, 75
1, 407595, Note_off_c, 0, 91, 63
1, 407598, Control_c, 0, 64, 42
1, 407612, Control_c, 0, 64, 59
1, 407627, Control_c, 0, 64, 69
1, 407642, Control_c, 0, 64, 80
1, 407657, Control_c, 0, 64, 96
1, 407658, Note_on_c, 0, 60, 81
1, 407660, Note_off_c, 0, 86, 55
1, 407671, Control_c, 0, 64, 127
1, 407683, Note_off_c, 0, 59, 62
1, 407725, Note_off_c, 0, 92, 65
1, 407738, Note_on_c, 0, 61, 87
1, 407740, Note_off_c, 0, 60, 64
1, 407805, Control_c, 0, 64, 81
1, 407820, Control_c, 0, 64, 50
1, 407835, Control_c, 0, 64, 0
1, 407836, Note_on_c, 0, 92, 98
1, 407838, Note_on_c, 0, 62, 89
1, 407839, Note_off_c, 0, 61, 56
1, 407848, Note_on_c, 0, 86, 85
1, 407887, Note_off_c, 0, 62, 66
1, 407894, Control_c, 0, 64, 43
1, 407908, Control_c, 0, 64, 61
1, 407909, Note_off_c, 0, 92, 64
1, 407919, Note_off_c, 0, 86, 62
1, 407923, Control_c, 0, 64, 72
1, 407927, Note_on_c, 0, 64, 87
1, 407938, Control_c, 0, 64, 86
1, 407953, Control_c, 0, 64, 98
1, 407968, Control_c, 0, 64, 107
1, 407982, Control_c, 0, 64, 126
1, 407992, Note_off_c, 0, 64, 63
1, 408017, Note_on_c, 0, 65, 81
1, 408059, Note_off_c, 0, 65, 60
1, 408102, Control_c, 0, 64, 92
1, 408117, Control_c, 0, 64, 61
1, 408131, Control_c, 0, 64, 0
1, 408166, Note_on_c, 0, 93, 104
1, 408169, Note_on_c, 0, 64, 88
1, 408170, Note_on_c, 0, 60, 81
1, 408191, Control_c, 0, 64, 33
1, 408205, Control_c, 0, 64, 62
1, 408206, Note_off_c, 0, 64, 69
1, 408219, Note_off_c, 0, 60, 65
1, 408220, Control_c, 0, 64, 77
1, 408235, Control_c, 0, 64, 101
1, 408250, Note_on_c, 0, 88, 87
1, 408250, Control_c, 0, 64, 127
1, 408289, Note_off_c, 0, 93, 64
1, 408351, Note_on_c, 0, 84, 82
1, 408360, Note_off_c, 0, 88, 65
1, 408405, Control_c, 0, 64, 84
1, 408410, Note_off_c, 0, 84, 64
1, 408420, Control_c, 0, 64, 55
1, 408435, Control_c, 0, 64, 0
1, 408447, Note_on_c, 0, 81, 76
1, 408450, Control_c, 0, 64, 37
1, 408452, Note_on_c, 0, 64, 94
1, 408457, Note_on_c, 0, 60, 83
1, 408465, Control_c, 0, 64, 61
1, 408479, Control_c, 0, 64, 79
1, 408482, Note_off_c, 0, 81, 66
1, 408494, Control_c, 0, 64, 127
1, 408500, Note_off_c, 0, 64, 65
1, 408504, Note_off_c, 0, 60, 64
1, 408540, Note_on_c, 0, 76, 77
1, 408610, Note_off_c, 0, 76, 62
1, 408631, Note_on_c, 0, 72, 74
1, 408657, Control_c, 0, 64, 117
1, 408657, Control_c, 0, 67, 35
1, 408672, Control_c, 0, 64, 91
1, 408672, Control_c, 0, 67, 57
1, 408677, Note_off_c, 0, 72, 62
1, 408687, Control_c, 0, 64, 76
1, 408687, Control_c, 0, 67, 80
1, 408702, Control_c, 0, 64, 68
1, 408702, Control_c, 0, 67, 99
1, 408717, Control_c, 0, 64, 61
1, 408717, Control_c, 0, 67, 113
1, 408718, Note_on_c, 0, 69, 71
1, 408731, Control_c, 0, 64, 54
1, 408731, Control_c, 0, 67, 120
1, 408746, Control_c, 0, 64, 48
1, 408746, Control_c, 0, 67, 122
1, 408757, Note_off_c, 0, 69, 56
1, 408761, Control_c, 0, 64, 44
1, 408776, Control_c, 0, 64, 43
1, 408791, Control_c, 0, 64, 41
1, 408805, Control_c, 0, 64, 40
1, 408808, Note_on_c, 0, 68, 61
1, 408820, Control_c, 0, 64, 39
1, 408858, Note_off_c, 0, 68, 50
1, 408866, Control_c, 0, 64, 40
1, 408896, Note_on_c, 0, 69, 57
1, 409000, Note_off_c, 0, 69, 38
1, 409034, Note_on_c, 0, 71, 59
1, 409037, Note_on_c, 0, 65, 37
1, 409043, Note_on_c, 0, 62, 39
1, 409051, Control_c, 0, 64, 40
1, 409111, Note_off_c, 0, 71, 61
1, 409141, Note_on_c, 0, 72, 55
1, 409219, Note_off_c, 0, 72, 61
1, 409231, Note_on_c, 0, 71, 62
1, 409244, Control_c, 0, 67, 119
1, 409274, Control_c, 0, 67, 117
1, 409281, Note_off_c, 0, 62, 57
1, 409300, Note_off_c, 0, 71, 62
1, 409303, Control_c, 0, 67, 114
1, 409322, Note_on_c, 0, 69, 71
1, 409329, Note_on_c, 0, 60, 46
1, 409329, Note_on_c, 0, 64, 50
1, 409333, Control_c, 0, 67, 111
1, 409334, Note_off_c, 0, 65, 59
1, 409348, Control_c, 0, 64, 41
1, 409362, Control_c, 0, 67, 109
1, 409377, Note_off_c, 0, 69, 59
1, 409377, Control_c, 0, 64, 41
1, 409407, Control_c, 0, 64, 42
1, 409413, Note_on_c, 0, 71, 79
1, 409422, Control_c, 0, 64, 42
1, 409436, Control_c, 0, 64, 43
1, 409451, Control_c, 0, 64, 44
1, 409466, Control_c, 0, 64, 44
1, 409477, Note_off_c, 0, 71, 61
1, 409500, Note_on_c, 0, 69, 71
1, 409511, Control_c, 0, 64, 45
1, 409540, Control_c, 0, 64, 45
1, 409555, Control_c, 0, 64, 46
1, 409567, Note_off_c, 0, 69, 58
1, 409585, Control_c, 0, 64, 46
1, 409592, Note_off_c, 0, 64, 56
1, 409600, Note_off_c, 0, 60, 54
1, 409600, Note_on_c, 0, 71, 71
1, 409619, Note_on_c, 0, 62, 49
1, 409620, Note_on_c, 0, 65, 47
1, 409660, Control_c, 0, 64, 47
1, 409668, Note_off_c, 0, 71, 61
1, 409691, Note_on_c, 0, 72, 66
1, 409782, Note_off_c, 0, 72, 60
1, 409793, Note_on_c, 0, 71, 68
1, 409861, Note_off_c, 0, 62, 57
1, 409866, Note_off_c, 0, 71, 60
1, 409895, Note_on_c, 0, 69, 63
1, 409910, Note_on_c, 0, 60, 46
1, 409919, Note_off_c, 0, 65, 49
1, 409927, Note_on_c, 0, 64, 31
1, 409937, Note_off_c, 0, 69, 58
1, 409990, Note_on_c, 0, 71, 62
1, 409993, Control_c, 0, 64, 46
1, 410050, Note_off_c, 0, 71, 61
1, 410052, Control_c, 0, 64, 46
1, 410067, Control_c, 0, 64, 45
1, 410067, Control_c, 0, 67, 111
1, 410082, Control_c, 0, 64, 44
1, 410083, Note_on_c, 0, 69, 57
1, 410097, Control_c, 0, 64, 41
1, 410111, Control_c, 0, 64, 30
1, 410126, Control_c, 0, 64, 0
1, 410144, Note_off_c, 0, 60, 38
1, 410165, Note_off_c, 0, 69, 50
1, 410187, Note_on_c, 0, 68, 52
1, 410197, Note_on_c, 0, 62, 43
1, 410208, Note_on_c, 0, 59, 40
1, 410212, Note_off_c, 0, 64, 44
1, 410239, Note_off_c, 0, 68, 53
1, 410259, Control_c, 0, 64, 36
1, 410274, Control_c, 0, 64, 51
1, 410289, Control_c, 0, 64, 61
1, 410296, Note_on_c, 0, 69, 42
1, 410304, Control_c, 0, 64, 63
1, 410304, Control_c, 0, 67, 109
1, 410319, Control_c, 0, 64, 65
1, 410331, Note_off_c, 0, 69, 61
1, 410333, Control_c, 0, 64, 68
1, 410348, Control_c, 0, 64, 70
1, 410350, Note_off_c, 0, 62, 53
1, 410360, Note_on_c, 0, 68, 62
1, 410363, Control_c, 0, 64, 73
1, 410378, Control_c, 0, 64, 75
1, 410378, Control_c, 0, 67, 106
1, 410380, Note_off_c, 0, 68, 65
1, 410393, Control_c, 0, 64, 77
1, 410402, Note_off_c, 0, 59, 45
1, 410408, Control_c, 0, 64, 79
1, 410408, Control_c, 0, 67, 103
1, 410423, Control_c, 0, 64, 80
1, 410423, Control_c, 0, 67, 100
1, 410437, Control_c, 0, 64, 81
1, 410437, Control_c, 0, 67, 97
1, 410453, Control_c, 0, 64, 80
1, 410453, Control_c, 0, 67, 88
1, 410468, Control_c, 0, 64, 70
1, 410468, Control_c, 0, 67, 64
1, 410482, Control_c, 0, 64, 47
1, 410482, Control_c, 0, 67, 0
1, 410497, Control_c, 0, 64, 0
1, 410553, Note_on_c, 0, 93, 96
1, 410554, Note_on_c, 0, 64, 84
1, 410557, Note_on_c, 0, 61, 81
1, 410579, Control_c, 0, 64, 36
1, 410594, Control_c, 0, 64, 61
1, 410608, Control_c, 0, 64, 76
1, 410623, Control_c, 0, 64, 112
1, 410638, Control_c, 0, 64, 127
1, 410644, Note_on_c, 0, 88, 82
1, 410646, Note_off_c, 0, 64, 59
1, 410649, Note_off_c, 0, 61, 58
1, 410688, Note_off_c, 0, 93, 65
1, 410734, Note_on_c, 0, 85, 87
1, 410759, Note_off_c, 0, 88, 67
1, 410801, Control_c, 0, 64, 82
1, 410813, Note_off_c, 0, 85, 64
1, 410816, Control_c, 0, 64, 54
1, 410826, Note_on_c, 0, 64, 85
1, 410829, Note_on_c, 0, 81, 84
1, 410830, Note_on_c, 0, 61, 84
1, 410831, Control_c, 0, 64, 31
1, 410846, Control_c, 0, 64, 52
1, 410861, Control_c, 0, 64, 67
1, 410875, Note_off_c, 0, 64, 66
1, 410876, Control_c, 0, 64, 86
1, 410878, Note_off_c, 0, 81, 65
1, 410882, Note_off_c, 0, 61, 64
1, 410890, Control_c, 0, 64, 127
1, 410932, Note_on_c, 0, 76, 79
1, 411008, Note_off_c, 0, 76, 61
1, 411019, Note_on_c, 0, 73, 78
1, 411082, Note_off_c, 0, 73, 62
1, 411082, Control_c, 0, 64, 116
1, 411097, Control_c, 0, 64, 88
1, 411111, Note_on_c, 0, 69, 69
1, 411112, Control_c, 0, 64, 73
1, 411126, Control_c, 0, 64, 63
1, 411141, Control_c, 0, 64, 57
1, 411141, Control_c, 0, 67, 42
1, 411156, Control_c, 0, 64, 55
1, 411156, Control_c, 0, 67, 60
1, 411171, Control_c, 0, 64, 55
1, 411171, Control_c, 0, 67, 70
1, 411186, Control_c, 0, 64, 54
1, 411186, Control_c, 0, 67, 78
1, 411192, Note_off_c, 0, 69, 39
1, 411201, Control_c, 0, 64, 54
1, 411201, Control_c, 0, 67, 88
1, 411204, Note_on_c, 0, 68, 61
1, 411216, Control_c, 0, 64, 53
1, 411216, Control_c, 0, 67, 99
1, 411231, Control_c, 0, 64, 53
1, 411231, Control_c, 0, 67, 108
1, 411246, Control_c, 0, 67, 116
1, 411260, Note_off_c, 0, 68, 49
1, 411261, Control_c, 0, 67, 118
1, 411284, Control_c, 0, 67, 120
1, 411299, Control_c, 0, 67, 123
1, 411306, Note_on_c, 0, 69, 66
1, 411313, Control_c, 0, 67, 127
1, 411357, Control_c, 0, 64, 53
1, 411381, Note_off_c, 0, 69, 57
1, 411387, Control_c, 0, 64, 54
1, 411410, Note_on_c, 0, 66, 44
1, 411422, Note_on_c, 0, 62, 38
1, 411426, Note_on_c, 0, 71, 56
1, 411484, Note_off_c, 0, 71, 57
1, 411514, Note_on_c, 0, 73, 61
1, 411520, Control_c, 0, 64, 54
1, 411600, Note_off_c, 0, 73, 62
1, 411602, Note_on_c, 0, 71, 64
1, 411669, Control_c, 0, 64, 54
1, 411681, Note_off_c, 0, 62, 55
1, 411686, Note_off_c, 0, 71, 62
1, 411704, Note_on_c, 0, 69, 67
1, 411707, Note_on_c, 0, 64, 50
1, 411708, Note_on_c, 0, 61, 46
1, 411713, Note_off_c, 0, 66, 54
1, 411754, Note_off_c, 0, 69, 54
1, 411789, Note_on_c, 0, 71, 71
1, 411848, Note_off_c, 0, 71, 62
1, 411873, Note_on_c, 0, 69, 73
1, 411975, Note_off_c, 0, 64, 60
1, 411975, Note_off_c, 0, 69, 36
1, 411976, Note_on_c, 0, 71, 72
1, 411986, Note_off_c, 0, 61, 50
1, 411998, Note_on_c, 0, 62, 57
1, 412000, Note_on_c, 0, 66, 55
1, 412047, Note_off_c, 0, 71, 61
1, 412071, Note_on_c, 0, 73, 71
1, 412092, Control_c, 0, 64, 54
1, 412161, Note_off_c, 0, 73, 61
1, 412161, Note_on_c, 0, 71, 72
1, 412228, Note_off_c, 0, 62, 54
1, 412238, Note_off_c, 0, 71, 59
1, 412264, Note_on_c, 0, 69, 69
1, 412280, Note_on_c, 0, 61, 48
1, 412286, Note_on_c, 0, 64, 52
1, 412296, Note_off_c, 0, 66, 50
1, 412308, Note_off_c, 0, 69, 58
1, 412313, Control_c, 0, 64, 54
1, 412343, Control_c, 0, 64, 53
1, 412357, Note_on_c, 0, 71, 68
1, 412358, Control_c, 0, 64, 52
1, 412373, Control_c, 0, 64, 51
1, 412387, Control_c, 0, 64, 49
1, 412402, Control_c, 0, 64, 45
1, 412417, Control_c, 0, 64, 39
1, 412425, Note_off_c, 0, 71, 62
1, 412432, Control_c, 0, 64, 31
1, 412447, Control_c, 0, 64, 0
1, 412456, Note_on_c, 0, 69, 63
1, 412496, Note_off_c, 0, 61, 33
1, 412533, Note_off_c, 0, 69, 51
1, 412556, Note_on_c, 0, 68, 53
1, 412569, Note_on_c, 0, 62, 51
1, 412580, Control_c, 0, 64, 31
1, 412584, Note_on_c, 0, 59, 47
1, 412595, Control_c, 0, 64, 46
1, 412596, Note_off_c, 0, 64, 53
1, 412604, Note_off_c, 0, 68, 58
1, 412608, Note_off_c, 0, 62, 64
1, 412610, Control_c, 0, 64, 58
1, 412625, Control_c, 0, 64, 64
1, 412634, Note_off_c, 0, 59, 64
1, 412640, Control_c, 0, 64, 68
1, 412652, Note_on_c, 0, 69, 53
1, 412654, Control_c, 0, 64, 72
1, 412669, Control_c, 0, 64, 77
1, 412684, Control_c, 0, 64, 82
1, 412691, Note_off_c, 0, 69, 63
1, 412698, Control_c, 0, 64, 87
1, 412713, Control_c, 0, 64, 91
1, 412728, Control_c, 0, 64, 95
1, 412733, Note_on_c, 0, 68, 56
1, 412743, Control_c, 0, 64, 99
1, 412755, Note_off_c, 0, 68, 61
1, 412758, Control_c, 0, 64, 103
1, 412780, Control_c, 0, 64, 105
1, 412810, Control_c, 0, 64, 107
1, 412855, Control_c, 0, 64, 109
1, 412855, Control_c, 0, 67, 125
1, 412870, Control_c, 0, 67, 123
1, 412885, Control_c, 0, 64, 105
1, 412885, Control_c, 0, 67, 121
1, 412900, Control_c, 0, 64, 88
1, 412900, Control_c, 0, 67, 117
1, 412915, Control_c, 0, 64, 68
1, 412915, Control_c, 0, 67, 112
1, 412929, Control_c, 0, 64, 47
1, 412929, Control_c, 0, 67, 98
1, 412943, Note_on_c, 0, 93, 90
1, 412944, Control_c, 0, 64, 0
1, 412944, Control_c, 0, 67, 72
1, 412958, Note_on_c, 0, 49, 53
1, 412959, Control_c, 0, 67, 37
1, 412974, Control_c, 0, 64, 33
1, 412974, Control_c, 0, 67, 0
1, 412989, Control_c, 0, 64, 53
1, 413003, Control_c, 0, 64, 64
1, 413018, Control_c, 0, 64, 73
1, 413033, Control_c, 0, 64, 87
1, 413039, Note_on_c, 0, 88, 83
1, 413048, Control_c, 0, 64, 106
1, 413063, Control_c, 0, 64, 127
1, 413075, Note_off_c, 0, 93, 63
1, 413100, Note_off_c, 0, 49, 58
1, 413120, Note_on_c, 0, 85, 89
1, 413140, Note_off_c, 0, 88, 67
1, 413193, Note_off_c, 0, 85, 64
1, 413204, Note_on_c, 0, 81, 83
1, 413210, Control_c, 0, 64, 113
1, 413224, Note_on_c, 0, 61, 73
1, 413225, Control_c, 0, 64, 71
1, 413227, Note_on_c, 0, 57, 66
1, 413231, Note_on_c, 0, 52, 71
1, 413240, Control_c, 0, 64, 45
1, 413244, Note_off_c, 0, 81, 66
1, 413255, Control_c, 0, 64, 31
1, 413256, Note_off_c, 0, 61, 64
1, 413269, Note_off_c, 0, 57, 63
1, 413270, Control_c, 0, 64, 47
1, 413285, Control_c, 0, 64, 63
1, 413290, Note_off_c, 0, 52, 61
1, 413299, Note_on_c, 0, 76, 82
1, 413299, Control_c, 0, 64, 75
1, 413314, Control_c, 0, 64, 94
1, 413329, Control_c, 0, 64, 127
1, 413357, Note_off_c, 0, 76, 62
1, 413381, Note_on_c, 0, 73, 75
1, 413403, Note_off_c, 0, 73, 70
1, 413492, Control_c, 0, 64, 106
1, 413507, Control_c, 0, 64, 74
1, 413528, Note_on_c, 0, 50, 73
1, 413529, Control_c, 0, 64, 52
1, 413532, Note_on_c, 0, 90, 79
1, 413544, Control_c, 0, 64, 0
1, 413589, Control_c, 0, 64, 47
1, 413603, Control_c, 0, 64, 63
1, 413618, Control_c, 0, 64, 71
1, 413630, Note_on_c, 0, 86, 78
1, 413633, Control_c, 0, 64, 82
1, 413646, Note_off_c, 0, 90, 62
1, 413648, Control_c, 0, 64, 93
1, 413663, Control_c, 0, 64, 106
1, 413678, Control_c, 0, 64, 127
1, 413682, Note_off_c, 0, 50, 60
1, 413685, Note_off_c, 0, 86, 66
1, 413715, Note_on_c, 0, 81, 74
1, 413745, Note_off_c, 0, 81, 64
1, 413797, Control_c, 0, 64, 88
1, 413804, Note_on_c, 0, 62, 76
1, 413812, Note_on_c, 0, 57, 68
1, 413812, Control_c, 0, 64, 62
1, 413816, Note_on_c, 0, 78, 81
1, 413819, Note_on_c, 0, 54, 63
1, 413826, Control_c, 0, 64, 0
1, 413863, Note_off_c, 0, 62, 60
1, 413870, Control_c, 0, 64, 41
1, 413879, Note_off_c, 0, 57, 63
1, 413885, Control_c, 0, 64, 59
1, 413895, Note_off_c, 0, 54, 62
1, 413896, Note_on_c, 0, 74, 82
1, 413900, Control_c, 0, 64, 70
1, 413905, Note_off_c, 0, 78, 60
1, 413915, Control_c, 0, 64, 79
1, 413930, Control_c, 0, 64, 89
1, 413944, Control_c, 0, 64, 98
1, 413959, Control_c, 0, 64, 114
1, 413972, Note_off_c, 0, 74, 63
1, 413974, Control_c, 0, 64, 127
1, 413979, Note_on_c, 0, 69, 79
1, 414005, Note_off_c, 0, 69, 65
1, 414077, Control_c, 0, 64, 88
1, 414092, Control_c, 0, 64, 57
1, 414107, Control_c, 0, 64, 0
1, 414110, Note_on_c, 0, 88, 90
1, 414110, Note_on_c, 0, 52, 74
1, 414152, Control_c, 0, 64, 42
1, 414167, Control_c, 0, 64, 61
1, 414170, Note_off_c, 0, 52, 64
1, 414182, Control_c, 0, 64, 70
1, 414197, Control_c, 0, 64, 81
1, 414197, Note_on_c, 0, 85, 85
1, 414212, Control_c, 0, 64, 89
1, 414226, Control_c, 0, 64, 96
1, 414234, Note_off_c, 0, 88, 65
1, 414241, Control_c, 0, 64, 105
1, 414256, Control_c, 0, 64, 127
1, 414297, Note_on_c, 0, 81, 80
1, 414336, Note_off_c, 0, 85, 62
1, 414352, Control_c, 0, 64, 115
1, 414359, Note_off_c, 0, 81, 67
1, 414367, Control_c, 0, 64, 72
1, 414381, Control_c, 0, 64, 38
1, 414389, Note_on_c, 0, 76, 83
1, 414393, Note_on_c, 0, 57, 72
1, 414393, Note_on_c, 0, 64, 72
1, 414394, Note_on_c, 0, 61, 69
1, 414396, Control_c, 0, 64, 0
1, 414426, Control_c, 0, 64, 39
1, 414441, Control_c, 0, 64, 59
1, 414456, Control_c, 0, 64, 71
1, 414471, Control_c, 0, 64, 82
1, 414472, Note_off_c, 0, 57, 61
1, 414476, Note_off_c, 0, 64, 61
1, 414477, Note_on_c, 0, 73, 81
1, 414480, Note_off_c, 0, 76, 65
1, 414486, Control_c, 0, 64, 96
1, 414495, Note_off_c, 0, 61, 62
1, 414498, Note_off_c, 0, 73, 69
1, 414501, Control_c, 0, 64, 112
1, 414516, Control_c, 0, 64, 127
1, 414569, Note_on_c, 0, 69, 65
1, 414597, Note_off_c, 0, 69, 65
1, 414602, Note_on_c, 0, 67, 47
1, 414630, Note_off_c, 0, 67, 55
1, 414649, Control_c, 0, 64, 84
1, 414649, Control_c, 0, 67, 50
1, 414664, Control_c, 0, 64, 59
1, 414664, Control_c, 0, 67, 62
1, 414679, Control_c, 0, 64, 0
1, 414679, Control_c, 0, 67, 69
1, 414684, Note_on_c, 0, 88, 91
1, 414693, Control_c, 0, 67, 74
1, 414695, Note_on_c, 0, 52, 78
1, 414708, Control_c, 0, 64, 54
1, 414708, Control_c, 0, 67, 78
1, 414723, Control_c, 0, 64, 67
1, 414723, Control_c, 0, 67, 79
1, 414738, Control_c, 0, 64, 77
1, 414738, Control_c, 0, 67, 82
1, 414753, Control_c, 0, 64, 90
1, 414753, Control_c, 0, 67, 83
1, 414767, Control_c, 0, 64, 99
1, 414768, Note_on_c, 0, 83, 84
1, 414782, Control_c, 0, 64, 127
1, 414782, Control_c, 0, 67, 82
1, 414797, Control_c, 0, 67, 81
1, 414801, Note_off_c, 0, 88, 66
1, 414809, Note_off_c, 0, 52, 58
1, 414812, Control_c, 0, 67, 80
1, 414827, Control_c, 0, 67, 79
1, 414841, Control_c, 0, 67, 78
1, 414856, Control_c, 0, 67, 78
1, 414862, Note_on_c, 0, 80, 86
1, 414878, Note_off_c, 0, 83, 64
1, 414900, Control_c, 0, 64, 99
1, 414900, Control_c, 0, 67, 79
1, 414915, Control_c, 0, 64, 65
1, 414915, Control_c, 0, 67, 80
1, 414930, Control_c, 0, 64, 37
1, 414930, Control_c, 0, 67, 82
1, 414932, Note_off_c, 0, 80, 64
1, 414945, Control_c, 0, 64, 30
1, 414945, Control_c, 0, 67, 82
1, 414954, Note_on_c, 0, 76, 80
1, 414960, Control_c, 0, 64, 52
1, 414963, Note_on_c, 0, 64, 81
1, 414966, Note_on_c, 0, 59, 76
1, 414967, Note_on_c, 0, 56, 74
1, 414975, Control_c, 0, 64, 65
1, 414975, Control_c, 0, 67, 83
1, 414990, Control_c, 0, 64, 78
1, 414994, Note_off_c, 0, 76, 63
1, 415002, Note_off_c, 0, 64, 66
1, 415004, Control_c, 0, 64, 96
1, 415004, Control_c, 0, 67, 83
1, 415022, Note_off_c, 0, 56, 58
1, 415025, Note_off_c, 0, 59, 54
1, 415026, Control_c, 0, 64, 104
1, 415026, Control_c, 0, 67, 84
1, 415041, Control_c, 0, 64, 112
1, 415056, Control_c, 0, 64, 127
1, 415056, Control_c, 0, 67, 83
1, 415058, Note_on_c, 0, 71, 81
1, 415071, Control_c, 0, 67, 83
1, 415118, Note_off_c, 0, 71, 60
1, 415139, Note_on_c, 0, 68, 77
1, 415145, Control_c, 0, 67, 82
1, 415160, Control_c, 0, 67, 82
1, 415174, Control_c, 0, 67, 81
1, 415180, Note_off_c, 0, 68, 60
1, 415204, Control_c, 0, 67, 82
1, 415219, Control_c, 0, 67, 82
1, 415234, Control_c, 0, 64, 82
1, 415234, Control_c, 0, 67, 83
1, 415250, Control_c, 0, 64, 60
1, 415250, Control_c, 0, 67, 84
1, 415265, Control_c, 0, 64, 0
1, 415265, Control_c, 0, 67, 86
1, 415275, Note_on_c, 0, 69, 89
1, 415279, Control_c, 0, 67, 86
1, 415294, Control_c, 0, 67, 87
1, 415309, Control_c, 0, 67, 88
1, 415323, Control_c, 0, 67, 92
1, 415338, Control_c, 0, 67, 95
1, 415368, Note_on_c, 0, 64, 78
1, 415389, Note_off_c, 0, 69, 63
1, 415443, Control_c, 0, 67, 97
1, 415453, Note_on_c, 0, 60, 77
1, 415453, Note_off_c, 0, 64, 65
1, 415555, Note_on_c, 0, 57, 72
1, 415559, Note_off_c, 0, 60, 62
1, 415561, Control_c, 0, 64, 36
1, 415576, Control_c, 0, 64, 48
1, 415590, Control_c, 0, 64, 57
1, 415605, Control_c, 0, 64, 60
1, 415608, Note_off_c, 0, 57, 63
1, 415620, Control_c, 0, 64, 61
1, 415620, Control_c, 0, 67, 95
1, 415635, Control_c, 0, 64, 62
1, 415635, Control_c, 0, 67, 94
1, 415645, Note_on_c, 0, 52, 54
1, 415649, Control_c, 0, 64, 64
1, 415649, Control_c, 0, 67, 94
1, 415664, Control_c, 0, 64, 65
1, 415679, Control_c, 0, 64, 66
1, 415700, Note_off_c, 0, 52, 59
1, 415709, Control_c, 0, 67, 93
1, 415728, Note_on_c, 0, 48, 56
1, 415738, Control_c, 0, 64, 67
1, 415738, Control_c, 0, 67, 93
1, 415753, Control_c, 0, 67, 92
1, 415776, Control_c, 0, 64, 66
1, 415791, Control_c, 0, 64, 65
1, 415791, Control_c, 0, 67, 91
1, 415805, Control_c, 0, 64, 59
1, 415820, Control_c, 0, 64, 47
1, 415821, Note_off_c, 0, 48, 61
1, 415835, Control_c, 0, 64, 33
1, 415835, Control_c, 0, 67, 91
1, 415845, Note_on_c, 0, 76, 51
1, 415848, Note_on_c, 0, 72, 47
1, 415849, Control_c, 0, 64, 34
1, 415864, Control_c, 0, 64, 41
1, 415864, Control_c, 0, 67, 90
1, 415871, Note_on_c, 0, 45, 36
1, 415874, Note_on_c, 0, 69, 38
1, 415879, Control_c, 0, 64, 49
1, 415894, Control_c, 0, 64, 55
1, 415909, Control_c, 0, 64, 61
1, 415923, Control_c, 0, 64, 64
1, 415932, Note_off_c, 0, 45, 60
1, 415938, Control_c, 0, 64, 67
1, 415953, Control_c, 0, 64, 69
1, 415953, Control_c, 0, 67, 89
1, 415964, Note_on_c, 0, 44, 54
1, 415968, Control_c, 0, 64, 71
1, 415968, Control_c, 0, 67, 88
1, 415978, Note_off_c, 0, 72, 54
1, 415983, Control_c, 0, 64, 73
1, 415983, Control_c, 0, 67, 88
1, 415997, Control_c, 0, 64, 75
1, 415997, Control_c, 0, 67, 87
1, 416012, Control_c, 0, 64, 77
1, 416027, Control_c, 0, 64, 79
1, 416032, Note_off_c, 0, 76, 55
1, 416042, Control_c, 0, 64, 80
1, 416050, Note_off_c, 0, 44, 60
1, 416054, Note_on_c, 0, 45, 54
1, 416058, Control_c, 0, 64, 81
1, 416102, Control_c, 0, 64, 79
1, 416117, Control_c, 0, 64, 74
1, 416132, Control_c, 0, 64, 64
1, 416132, Control_c, 0, 67, 87
1, 416133, Note_off_c, 0, 45, 63
1, 416140, Note_on_c, 0, 76, 61
1, 416146, Control_c, 0, 64, 54
1, 416157, Note_on_c, 0, 74, 55
1, 416158, Note_on_c, 0, 47, 54
1, 416161, Control_c, 0, 64, 46
1, 416163, Note_on_c, 0, 68, 52
1, 416164, Note_off_c, 0, 69, 37
1, 416176, Control_c, 0, 64, 46
1, 416191, Control_c, 0, 64, 53
1, 416191, Control_c, 0, 67, 86
1, 416206, Control_c, 0, 64, 59
1, 416206, Control_c, 0, 67, 85
1, 416219, Note_off_c, 0, 47, 59
1, 416221, Control_c, 0, 64, 63
1, 416236, Control_c, 0, 64, 67
1, 416241, Note_on_c, 0, 48, 64
1, 416251, Control_c, 0, 64, 71
1, 416265, Control_c, 0, 64, 74
1, 416265, Control_c, 0, 67, 84
1, 416271, Note_off_c, 0, 74, 60
1, 416280, Control_c, 0, 64, 77
1, 416280, Control_c, 0, 67, 84
1, 416295, Control_c, 0, 64, 79
1, 416310, Control_c, 0, 64, 80
1, 416310, Control_c, 0, 67, 83
1, 416318, Note_off_c, 0, 76, 52
1, 416320, Note_off_c, 0, 48, 57
1, 416325, Control_c, 0, 64, 82
1, 416325, Control_c, 0, 67, 83
1, 416338, Note_on_c, 0, 47, 61
1, 416340, Control_c, 0, 64, 83
1, 416340, Control_c, 0, 67, 82
1, 416354, Control_c, 0, 64, 84
1, 416369, Control_c, 0, 64, 85
1, 416414, Control_c, 0, 64, 84
1, 416427, Note_off_c, 0, 47, 61
1, 416428, Control_c, 0, 64, 77
1, 416435, Note_on_c, 0, 45, 61
1, 416439, Note_on_c, 0, 76, 69
1, 416441, Note_on_c, 0, 72, 68
1, 416443, Control_c, 0, 64, 64
1, 416443, Control_c, 0, 67, 82
1, 416444, Note_off_c, 0, 68, 58
1, 416453, Note_on_c, 0, 69, 62
1, 416458, Control_c, 0, 64, 49
1, 416472, Control_c, 0, 64, 35
1, 416472, Control_c, 0, 67, 81
1, 416487, Control_c, 0, 64, 33
1, 416502, Control_c, 0, 64, 41
1, 416502, Control_c, 0, 67, 80
1, 416525, Control_c, 0, 64, 52
1, 416536, Note_off_c, 0, 45, 63
1, 416537, Note_on_c, 0, 44, 64
1, 416540, Control_c, 0, 64, 60
1, 416540, Control_c, 0, 67, 80
1, 416554, Control_c, 0, 64, 66
1, 416554, Control_c, 0, 67, 79
1, 416569, Control_c, 0, 64, 71
1, 416569, Control_c, 0, 67, 79
1, 416584, Control_c, 0, 64, 74
1, 416584, Control_c, 0, 67, 78
1, 416599, Control_c, 0, 64, 77
1, 416599, Control_c, 0, 67, 78
1, 416614, Control_c, 0, 64, 80
1, 416614, Control_c, 0, 67, 77
1, 416628, Control_c, 0, 64, 84
1, 416628, Control_c, 0, 67, 76
1, 416638, Note_off_c, 0, 76, 48
1, 416643, Control_c, 0, 64, 90
1, 416643, Control_c, 0, 67, 75
1, 416650, Note_on_c, 0, 45, 64
1, 416653, Note_off_c, 0, 44, 55
1, 416657, Note_off_c, 0, 69, 58
1, 416658, Control_c, 0, 64, 95
1, 416658, Control_c, 0, 67, 75
1, 416672, Control_c, 0, 67, 74
1, 416687, Control_c, 0, 67, 72
1, 416695, Note_off_c, 0, 72, 60
1, 416702, Control_c, 0, 64, 86
1, 416702, Control_c, 0, 67, 70
1, 416717, Control_c, 0, 64, 71
1, 416717, Control_c, 0, 67, 66
1, 416728, Note_off_c, 0, 45, 63
1, 416732, Note_on_c, 0, 47, 71
1, 416732, Control_c, 0, 64, 56
1, 416732, Control_c, 0, 67, 53
1, 416735, Note_on_c, 0, 74, 69
1, 416744, Note_on_c, 0, 76, 75
1, 416745, Note_on_c, 0, 68, 65
1, 416746, Control_c, 0, 64, 32
1, 416746, Control_c, 0, 67, 0
1, 416761, Control_c, 0, 64, 0
1, 416776, Control_c, 0, 64, 36
1, 416790, Control_c, 0, 64, 51
1, 416805, Control_c, 0, 64, 61
1, 416808, Note_off_c, 0, 47, 62
1, 416817, Note_on_c, 0, 48, 73
1, 416820, Control_c, 0, 64, 66
1, 416835, Control_c, 0, 64, 72
1, 416851, Control_c, 0, 64, 78
1, 416863, Note_off_c, 0, 74, 61
1, 416866, Control_c, 0, 64, 83
1, 416881, Control_c, 0, 64, 87
1, 416895, Control_c, 0, 64, 92
1, 416910, Control_c, 0, 64, 95
1, 416914, Note_on_c, 0, 47, 73
1, 416917, Note_off_c, 0, 48, 61
1, 416920, Note_off_c, 0, 76, 52
1, 416925, Control_c, 0, 64, 97
1, 416936, Note_off_c, 0, 68, 53
1, 416940, Control_c, 0, 64, 99
1, 416955, Control_c, 0, 64, 101
1, 416984, Control_c, 0, 64, 95
1, 416999, Control_c, 0, 64, 77
1, 417014, Control_c, 0, 64, 59
1, 417017, Note_off_c, 0, 47, 63
1, 417019, Note_on_c, 0, 45, 70
1, 417022, Note_on_c, 0, 72, 71
1, 417026, Note_on_c, 0, 69, 74
1, 417026, Note_on_c, 0, 76, 80
1, 417029, Control_c, 0, 64, 31
1, 417043, Control_c, 0, 64, 0
1, 417058, Control_c, 0, 64, 37
1, 417073, Control_c, 0, 64, 57
1, 417079, Note_off_c, 0, 72, 62
1, 417088, Control_c, 0, 64, 67
1, 417092, Note_off_c, 0, 45, 63
1, 417103, Control_c, 0, 64, 77
1, 417109, Note_on_c, 0, 47, 76
1, 417111, Note_off_c, 0, 69, 61
1, 417118, Control_c, 0, 64, 89
1, 417133, Control_c, 0, 64, 99
1, 417148, Control_c, 0, 64, 127
1, 417155, Note_off_c, 0, 76, 61
1, 417201, Note_on_c, 0, 45, 72
1, 417207, Note_off_c, 0, 47, 62
1, 417288, Control_c, 0, 64, 91
1, 417301, Note_on_c, 0, 76, 85
1, 417303, Control_c, 0, 64, 63
1, 417305, Note_on_c, 0, 43, 75
1, 417309, Note_on_c, 0, 70, 86
1, 417310, Note_on_c, 0, 72, 75
1, 417310, Note_off_c, 0, 45, 60
1, 417318, Control_c, 0, 64, 0
1, 417347, Control_c, 0, 64, 43
1, 417362, Control_c, 0, 64, 66
1, 417376, Control_c, 0, 64, 87
1, 417388, Note_off_c, 0, 43, 62
1, 417391, Control_c, 0, 64, 127
1, 417399, Note_on_c, 0, 45, 80
1, 417425, Note_off_c, 0, 72, 57
1, 417443, Note_off_c, 0, 70, 56
1, 417465, Note_off_c, 0, 76, 59
1, 417474, Note_off_c, 0, 45, 58
1, 417484, Note_on_c, 0, 43, 75
1, 417547, Note_off_c, 0, 43, 59
1, 417568, Control_c, 0, 64, 86
1, 417583, Control_c, 0, 64, 57
1, 417598, Note_on_c, 0, 77, 84
1, 417598, Control_c, 0, 64, 0
1, 417600, Note_on_c, 0, 41, 88
1, 417603, Note_on_c, 0, 69, 82
1, 417605, Note_on_c, 0, 72, 76
1, 417644, Control_c, 0, 64, 41
1, 417659, Control_c, 0, 64, 59
1, 417660, Note_off_c, 0, 69, 62
1, 417660, Note_off_c, 0, 72, 61
1, 417673, Control_c, 0, 64, 71
1, 417688, Control_c, 0, 64, 82
1, 417692, Note_on_c, 0, 45, 82
1, 417698, Note_off_c, 0, 77, 64
1, 417703, Control_c, 0, 64, 92
1, 417717, Control_c, 0, 64, 99
1, 417720, Note_off_c, 0, 41, 62
1, 417732, Control_c, 0, 64, 109
1, 417747, Control_c, 0, 64, 127
1, 417780, Note_on_c, 0, 48, 87
1, 417796, Note_off_c, 0, 45, 63
1, 417857, Note_off_c, 0, 48, 62
1, 417866, Control_c, 0, 64, 87
1, 417876, Note_on_c, 0, 53, 76
1, 417881, Control_c, 0, 64, 66
1, 417896, Control_c, 0, 64, 48
1, 417900, Note_off_c, 0, 53, 70
1, 417911, Control_c, 0, 64, 0
1, 417967, Note_on_c, 0, 57, 65
1, 418044, Note_off_c, 0, 57, 63
1, 418064, Note_on_c, 0, 60, 62
1, 418114, Note_off_c, 0, 60, 54
1, 418161, Note_on_c, 0, 65, 50
1, 418164, Note_on_c, 0, 84, 58
1, 418165, Note_on_c, 0, 81, 55
1, 418178, Note_on_c, 0, 77, 50
1, 418184, Control_c, 0, 64, 29
1, 418198, Control_c, 0, 64, 43
1, 418213, Control_c, 0, 64, 55
1, 418216, Note_off_c, 0, 65, 60
1, 418228, Control_c, 0, 64, 61
1, 418242, Control_c, 0, 64, 64
1, 418257, Note_off_c, 0, 77, 59
1, 418257, Control_c, 0, 64, 67
1, 418259, Note_on_c, 0, 67, 63
1, 418272, Control_c, 0, 64, 70
1, 418287, Control_c, 0, 64, 73
1, 418302, Control_c, 0, 64, 77
1, 418316, Control_c, 0, 64, 80
1, 418331, Control_c, 0, 64, 82
1, 418332, Note_off_c, 0, 84, 54
1, 418343, Note_off_c, 0, 67, 62
1, 418344, Note_on_c, 0, 65, 65
1, 418346, Control_c, 0, 64, 83
1, 418361, Control_c, 0, 64, 85
1, 418376, Control_c, 0, 64, 89
1, 418391, Control_c, 0, 64, 94
1, 418406, Control_c, 0, 64, 95
1, 418421, Note_off_c, 0, 81, 62
1, 418421, Control_c, 0, 64, 90
1, 418425, Note_off_c, 0, 65, 60
1, 418433, Note_on_c, 0, 64, 70
1, 418436, Control_c, 0, 64, 77
1, 418439, Note_on_c, 0, 84, 73
1, 418440, Note_on_c, 0, 82, 69
1, 418450, Note_on_c, 0, 79, 62
1, 418451, Control_c, 0, 64, 62
1, 418465, Control_c, 0, 64, 42
1, 418480, Control_c, 0, 64, 36
1, 418495, Control_c, 0, 64, 43
1, 418510, Control_c, 0, 64, 54
1, 418513, Note_off_c, 0, 64, 64
1, 418522, Note_on_c, 0, 62, 71
1, 418525, Control_c, 0, 64, 62
1, 418540, Control_c, 0, 64, 67
1, 418555, Control_c, 0, 64, 73
1, 418568, Note_off_c, 0, 79, 59
1, 418570, Control_c, 0, 64, 77
1, 418585, Control_c, 0, 64, 80
1, 418599, Control_c, 0, 64, 84
1, 418612, Note_off_c, 0, 84, 58
1, 418614, Control_c, 0, 64, 88
1, 418616, Note_on_c, 0, 64, 79
1, 418629, Control_c, 0, 64, 91
1, 418635, Note_off_c, 0, 62, 59
1, 418644, Control_c, 0, 64, 95
1, 418658, Control_c, 0, 64, 99
1, 418688, Control_c, 0, 64, 96
1, 418703, Control_c, 0, 64, 83
1, 418712, Note_on_c, 0, 65, 77
1, 418713, Note_off_c, 0, 64, 64
1, 418718, Control_c, 0, 64, 68
1, 418722, Note_on_c, 0, 84, 74
1, 418733, Control_c, 0, 64, 53
1, 418734, Note_on_c, 0, 81, 69
1, 418736, Note_on_c, 0, 77, 72
1, 418747, Control_c, 0, 64, 42
1, 418755, Note_off_c, 0, 82, 60
1, 418769, Control_c, 0, 64, 44
1, 418784, Control_c, 0, 64, 54
1, 418799, Control_c, 0, 64, 62
1, 418803, Note_off_c, 0, 65, 60
1, 418812, Note_on_c, 0, 67, 71
1, 418814, Control_c, 0, 64, 68
1, 418829, Control_c, 0, 64, 75
1, 418844, Control_c, 0, 64, 81
1, 418857, Note_off_c, 0, 77, 57
1, 418859, Control_c, 0, 64, 86
1, 418874, Control_c, 0, 64, 90
1, 418889, Control_c, 0, 64, 95
1, 418890, Note_off_c, 0, 84, 57
1, 418904, Control_c, 0, 64, 100
1, 418905, Note_on_c, 0, 65, 76
1, 418909, Note_off_c, 0, 67, 60
1, 418918, Control_c, 0, 64, 104
1, 418933, Control_c, 0, 64, 108
1, 418948, Control_c, 0, 64, 111
1, 418978, Control_c, 0, 64, 101
1, 418993, Control_c, 0, 64, 77
1, 419000, Note_off_c, 0, 81, 55
1, 419001, Note_on_c, 0, 64, 76
1, 419006, Note_on_c, 0, 84, 79
1, 419008, Note_off_c, 0, 65, 61
1, 419008, Control_c, 0, 64, 58
1, 419011, Note_on_c, 0, 82, 79
1, 419017, Note_on_c, 0, 79, 77
1, 419022, Control_c, 0, 64, 0
1, 419052, Control_c, 0, 64, 31
1, 419066, Control_c, 0, 64, 47
1, 419081, Control_c, 0, 64, 59
1, 419088, Note_off_c, 0, 64, 65
1, 419096, Control_c, 0, 64, 68
1, 419097, Note_on_c, 0, 62, 74
1, 419111, Control_c, 0, 64, 74
1, 419116, Note_off_c, 0, 79, 60
1, 419126, Control_c, 0, 64, 80
1, 419140, Control_c, 0, 64, 86
1, 419155, Control_c, 0, 64, 94
1, 419170, Control_c, 0, 64, 102
1, 419185, Note_on_c, 0, 64, 81
1, 419185, Control_c, 0, 64, 112
1, 419190, Note_off_c, 0, 84, 55
1, 419196, Note_off_c, 0, 62, 55
1, 419199, Control_c, 0, 64, 127
1, 419275, Control_c, 0, 64, 90
1, 419289, Note_on_c, 0, 81, 83
1, 419289, Control_c, 0, 64, 63
1, 419290, Note_on_c, 0, 65, 83
1, 419290, Note_on_c, 0, 84, 82
1, 419292, Note_off_c, 0, 64, 64
1, 419293, Note_on_c, 0, 77, 84
1, 419304, Control_c, 0, 64, 36
1, 419319, Control_c, 0, 64, 0
1, 419338, Note_off_c, 0, 82, 54
1, 419349, Control_c, 0, 64, 44
1, 419363, Control_c, 0, 64, 59
1, 419372, Note_off_c, 0, 65, 62
1, 419378, Control_c, 0, 64, 66
1, 419392, Note_on_c, 0, 67, 81
1, 419393, Control_c, 0, 64, 74
1, 419408, Control_c, 0, 64, 81
1, 419423, Control_c, 0, 64, 88
1, 419431, Note_off_c, 0, 81, 58
1, 419437, Control_c, 0, 64, 99
1, 419452, Control_c, 0, 64, 123
1, 419453, Note_off_c, 0, 84, 61
1, 419467, Control_c, 0, 64, 127
1, 419478, Note_on_c, 0, 65, 82
1, 419488, Note_off_c, 0, 67, 60
1, 419549, Control_c, 0, 64, 80
1, 419563, Control_c, 0, 64, 55
1, 419572, Note_off_c, 0, 65, 58
1, 419577, Note_on_c, 0, 84, 86
1, 419577, Note_on_c, 0, 81, 87
1, 419578, Note_on_c, 0, 64, 80
1, 419578, Control_c, 0, 64, 0
1, 419622, Control_c, 0, 64, 43
1, 419636, Note_off_c, 0, 64, 65
1, 419637, Control_c, 0, 64, 64
1, 419652, Control_c, 0, 64, 80
1, 419654, Note_on_c, 0, 65, 83
1, 419654, Note_off_c, 0, 84, 64
1, 419660, Note_off_c, 0, 77, 55
1, 419666, Note_off_c, 0, 81, 62
1, 419667, Control_c, 0, 64, 127
1, 419735, Note_on_c, 0, 64, 74
1, 419753, Note_off_c, 0, 65, 62
1, 419822, Note_off_c, 0, 64, 64
1, 419860, Note_on_c, 0, 63, 86
1, 419860, Control_c, 0, 64, 86
1, 419872, Note_on_c, 0, 84, 87
1, 419875, Control_c, 0, 64, 63
1, 419889, Control_c, 0, 64, 0
1, 419953, Note_on_c, 0, 81, 88
1, 419995, Note_off_c, 0, 63, 63
1, 419998, Note_off_c, 0, 84, 62
1, 420008, Control_c, 0, 64, 48
1, 420022, Control_c, 0, 64, 74
1, 420038, Control_c, 0, 64, 127
1, 420042, Note_on_c, 0, 78, 85
1, 420056, Note_off_c, 0, 81, 64
1, 420126, Note_on_c, 0, 72, 72
1, 420126, Note_off_c, 0, 78, 63
1, 420149, Note_off_c, 0, 72, 69
1, 420201, Control_c, 0, 64, 81
1, 420204, Note_on_c, 0, 69, 83
1, 420216, Control_c, 0, 64, 49
1, 420230, Control_c, 0, 64, 0
1, 420287, Note_off_c, 0, 69, 61
1, 420296, Note_on_c, 0, 66, 83
1, 420316, Note_off_c, 0, 66, 73
1, 420430, Note_on_c, 0, 93, 102
1, 420442, Note_on_c, 0, 51, 88
1, 420445, Control_c, 0, 64, 54
1, 420460, Control_c, 0, 64, 84
1, 420475, Control_c, 0, 64, 127
1, 420578, Note_off_c, 0, 93, 66
1, 420603, Note_on_c, 0, 81, 83
1, 420605, Note_on_c, 0, 54, 72
1, 420609, Note_off_c, 0, 51, 61
1, 420623, Control_c, 0, 64, 101
1, 420630, Note_off_c, 0, 54, 69
1, 420632, Note_off_c, 0, 81, 63
1, 420638, Control_c, 0, 64, 78
1, 420653, Control_c, 0, 64, 62
1, 420668, Control_c, 0, 64, 43
1, 420683, Control_c, 0, 64, 0
1, 420773, Note_on_c, 0, 84, 90
1, 420776, Note_on_c, 0, 81, 83
1, 420781, Note_on_c, 0, 54, 91
1, 420816, Control_c, 0, 64, 44
1, 420831, Control_c, 0, 64, 83
1, 420847, Control_c, 0, 64, 127
1, 420878, Note_off_c, 0, 81, 66
1, 420913, Note_on_c, 0, 72, 90
1, 420918, Note_on_c, 0, 66, 84
1, 420918, Note_off_c, 0, 84, 57
1, 420927, Note_off_c, 0, 54, 66
1, 420939, Note_off_c, 0, 66, 70
1, 420956, Note_off_c, 0, 72, 63
1, 420995, Control_c, 0, 64, 98
1, 421017, Control_c, 0, 64, 64
1, 421032, Control_c, 0, 64, 0
1, 421101, Note_on_c, 0, 84, 93
1, 421182, Note_on_c, 0, 81, 88
1, 421230, Note_off_c, 0, 84, 56
1, 421263, Note_on_c, 0, 76, 87
1, 421297, Note_off_c, 0, 81, 65
1, 421339, Note_on_c, 0, 72, 80
1, 421352, Note_off_c, 0, 76, 66
1, 421368, Note_off_c, 0, 72, 64
1, 421431, Control_c, 0, 64, 65
1, 421439, Note_on_c, 0, 69, 80
1, 421446, Control_c, 0, 64, 82
1, 421461, Control_c, 0, 64, 127
1, 421505, Note_off_c, 0, 69, 62
1, 421515, Note_on_c, 0, 64, 79
1, 421537, Note_off_c, 0, 64, 70
1, 421624, Control_c, 0, 64, 73
1, 421640, Control_c, 0, 64, 30
1, 421646, Note_on_c, 0, 93, 102
1, 421655, Control_c, 0, 64, 0
1, 421664, Note_on_c, 0, 51, 79
1, 421684, Control_c, 0, 64, 40
1, 421699, Control_c, 0, 64, 62
1, 421700, Note_on_c, 0, 50, 46
1, 421714, Control_c, 0, 64, 77
1, 421729, Control_c, 0, 64, 115
1, 421744, Control_c, 0, 64, 127
1, 421747, Note_off_c, 0, 50, 50
1, 421769, Note_off_c, 0, 51, 62
1, 421785, Note_off_c, 0, 93, 66
1, 421817, Note_on_c, 0, 81, 83
1, 421828, Note_on_c, 0, 52, 78
1, 421853, Note_off_c, 0, 81, 61
1, 421878, Note_off_c, 0, 52, 62
1, 421914, Control_c, 0, 64, 90
1, 421929, Control_c, 0, 64, 64
1, 421944, Control_c, 0, 64, 0
1, 421980, Note_on_c, 0, 84, 87
1, 421986, Note_on_c, 0, 81, 78
1, 421992, Note_on_c, 0, 52, 90
1, 422048, Control_c, 0, 64, 58
1, 422063, Control_c, 0, 64, 74
1, 422078, Control_c, 0, 64, 92
1, 422092, Control_c, 0, 64, 127
1, 422105, Note_off_c, 0, 81, 64
1, 422115, Note_off_c, 0, 84, 63
1, 422121, Note_off_c, 0, 52, 65
1, 422135, Note_on_c, 0, 72, 86
1, 422136, Note_on_c, 0, 64, 72
1, 422159, Note_off_c, 0, 64, 68
1, 422177, Note_off_c, 0, 72, 59
1, 422225, Control_c, 0, 64, 123
1, 422240, Control_c, 0, 64, 92
1, 422255, Control_c, 0, 64, 75
1, 422270, Control_c, 0, 64, 64
1, 422284, Control_c, 0, 64, 50
1, 422299, Control_c, 0, 64, 0
1, 422317, Note_on_c, 0, 84, 88
1, 422404, Note_on_c, 0, 81, 84
1, 422415, Note_off_c, 0, 84, 65
1, 422473, Note_off_c, 0, 81, 65
1, 422493, Note_on_c, 0, 74, 74
1, 422525, Note_off_c, 0, 74, 70
1, 422575, Control_c, 0, 64, 44
1, 422582, Note_on_c, 0, 74, 75
1, 422588, Control_c, 0, 64, 58
1, 422603, Control_c, 0, 64, 63
1, 422604, Note_off_c, 0, 74, 71
1, 422618, Control_c, 0, 64, 65
1, 422633, Control_c, 0, 64, 68
1, 422648, Control_c, 0, 64, 72
1, 422662, Control_c, 0, 64, 78
1, 422677, Control_c, 0, 64, 83
1, 422681, Note_on_c, 0, 72, 64
1, 422692, Control_c, 0, 64, 89
1, 422707, Control_c, 0, 64, 92
1, 422722, Control_c, 0, 64, 94
1, 422734, Note_off_c, 0, 72, 61
1, 422737, Control_c, 0, 64, 95
1, 422823, Poly_aftertouch_c, 0, 69, 0
1, 422840, Control_c, 0, 64, 93
1, 422850, Poly_aftertouch_c, 0, 69, 0
1, 422855, Control_c, 0, 64, 90
1, 422870, Control_c, 0, 64, 82
1, 422885, Note_on_c, 0, 93, 73
1, 422885, Control_c, 0, 64, 72
1, 422900, Control_c, 0, 64, 61
1, 422914, Control_c, 0, 64, 42
1, 422918, Note_on_c, 0, 52, 52
1, 422929, Control_c, 0, 64, 0
1, 422974, Control_c, 0, 64, 30
1, 422988, Control_c, 0, 64, 43
1, 423003, Control_c, 0, 64, 56
1, 423009, Note_off_c, 0, 93, 62
1, 423018, Control_c, 0, 64, 64
1, 423032, Control_c, 0, 64, 70
1, 423047, Control_c, 0, 64, 74
1, 423056, Note_on_c, 0, 81, 63
1, 423062, Control_c, 0, 64, 77
1, 423067, Note_on_c, 0, 53, 56
1, 423068, Note_off_c, 0, 52, 58
1, 423077, Control_c, 0, 64, 80
1, 423089, Note_off_c, 0, 81, 62
1, 423092, Control_c, 0, 64, 84
1, 423106, Note_off_c, 0, 53, 63
1, 423107, Control_c, 0, 64, 87
1, 423121, Control_c, 0, 64, 91
1, 423136, Control_c, 0, 64, 93
1, 423151, Control_c, 0, 64, 93
1, 423181, Control_c, 0, 64, 88
1, 423196, Control_c, 0, 64, 76
1, 423211, Control_c, 0, 64, 64
1, 423211, Note_on_c, 0, 86, 71
1, 423212, Note_on_c, 0, 81, 44
1, 423223, Note_on_c, 0, 53, 65
1, 423225, Note_on_c, 0, 84, 55
1, 423226, Control_c, 0, 64, 52
1, 423241, Control_c, 0, 64, 44
1, 423259, Note_off_c, 0, 81, 65
1, 423263, Control_c, 0, 64, 47
1, 423278, Control_c, 0, 64, 57
1, 423293, Control_c, 0, 64, 63
1, 423308, Control_c, 0, 64, 69
1, 423323, Control_c, 0, 64, 77
1, 423327, Note_off_c, 0, 84, 60
1, 423336, Note_off_c, 0, 86, 63
1, 423337, Control_c, 0, 64, 83
1, 423350, Note_off_c, 0, 53, 57
1, 423352, Control_c, 0, 64, 90
1, 423362, Note_on_c, 0, 74, 77
1, 423367, Control_c, 0, 64, 99
1, 423378, Note_on_c, 0, 65, 67
1, 423382, Control_c, 0, 64, 118
1, 423384, Note_off_c, 0, 74, 70
1, 423397, Control_c, 0, 64, 127
1, 423404, Note_off_c, 0, 65, 67
1, 423515, Control_c, 0, 64, 92
1, 423524, Note_on_c, 0, 93, 82
1, 423530, Control_c, 0, 64, 72
1, 423542, Note_on_c, 0, 52, 66
1, 423545, Control_c, 0, 64, 58
1, 423560, Control_c, 0, 64, 44
1, 423575, Control_c, 0, 64, 42
1, 423589, Control_c, 0, 64, 52
1, 423604, Control_c, 0, 64, 60
1, 423619, Control_c, 0, 64, 66
1, 423634, Control_c, 0, 64, 72
1, 423636, Note_off_c, 0, 93, 64
1, 423649, Control_c, 0, 64, 81
1, 423663, Control_c, 0, 64, 89
1, 423668, Note_on_c, 0, 81, 72
1, 423673, Note_on_c, 0, 53, 62
1, 423678, Control_c, 0, 64, 99
1, 423679, Note_off_c, 0, 52, 59
1, 423693, Control_c, 0, 64, 127
1, 423718, Note_off_c, 0, 53, 61
1, 423719, Note_off_c, 0, 81, 58
1, 423781, Control_c, 0, 64, 83
1, 423796, Control_c, 0, 64, 64
1, 423811, Control_c, 0, 64, 45
1, 423818, Note_on_c, 0, 86, 77
1, 423823, Note_on_c, 0, 84, 67
1, 423826, Control_c, 0, 64, 35
1, 423828, Note_on_c, 0, 53, 68
1, 423830, Note_on_c, 0, 81, 45
1, 423841, Control_c, 0, 64, 44
1, 423855, Control_c, 0, 64, 56
1, 423861, Note_off_c, 0, 81, 65
1, 423870, Control_c, 0, 64, 65
1, 423885, Control_c, 0, 64, 81
1, 423900, Control_c, 0, 64, 114
1, 423911, Note_off_c, 0, 84, 61
1, 423915, Control_c, 0, 64, 127
1, 423926, Note_off_c, 0, 86, 65
1, 423948, Note_on_c, 0, 74, 87
1, 423949, Note_off_c, 0, 53, 52
1, 423959, Note_on_c, 0, 65, 67
1, 423974, Note_off_c, 0, 74, 66
1, 423996, Note_off_c, 0, 65, 59
1, 424101, Control_c, 0, 64, 80
1, 424116, Control_c, 0, 64, 56
1, 424125, Note_on_c, 0, 93, 99
1, 424131, Control_c, 0, 64, 0
1, 424135, Note_on_c, 0, 53, 82
1, 424160, Control_c, 0, 64, 39
1, 424175, Control_c, 0, 64, 60
1, 424190, Control_c, 0, 64, 76
1, 424204, Control_c, 0, 64, 127
1, 424238, Note_off_c, 0, 93, 65
1, 424263, Note_on_c, 0, 81, 80
1, 424277, Note_on_c, 0, 54, 75
1, 424287, Note_off_c, 0, 53, 61
1, 424306, Note_off_c, 0, 81, 65
1, 424329, Note_off_c, 0, 54, 61
1, 424382, Control_c, 0, 64, 112
1, 424397, Control_c, 0, 64, 62
1, 424412, Control_c, 0, 64, 0
1, 424413, Note_on_c, 0, 86, 93
1, 424414, Note_on_c, 0, 84, 80
1, 424419, Note_on_c, 0, 81, 65
1, 424423, Note_on_c, 0, 54, 83
1, 424460, Note_off_c, 0, 81, 65
1, 424472, Control_c, 0, 64, 40
1, 424486, Control_c, 0, 64, 66
1, 424501, Control_c, 0, 64, 88
1, 424516, Control_c, 0, 64, 127
1, 424520, Note_off_c, 0, 84, 62
1, 424523, Note_off_c, 0, 86, 65
1, 424544, Note_on_c, 0, 74, 87
1, 424553, Note_on_c, 0, 66, 86
1, 424561, Note_off_c, 0, 74, 72
1, 424564, Note_off_c, 0, 54, 40
1, 424596, Note_off_c, 0, 66, 62
1, 424719, Note_on_c, 0, 95, 104
1, 424723, Control_c, 0, 64, 81
1, 424729, Note_on_c, 0, 54, 84
1, 424738, Control_c, 0, 64, 50
1, 424760, Control_c, 0, 64, 0
1, 424790, Control_c, 0, 64, 43
1, 424805, Control_c, 0, 64, 64
1, 424819, Control_c, 0, 64, 77
1, 424835, Control_c, 0, 64, 127
1, 424841, Note_off_c, 0, 95, 68
1, 424865, Note_on_c, 0, 83, 84
1, 424874, Note_on_c, 0, 55, 73
1, 424895, Note_off_c, 0, 54, 59
1, 424901, Note_off_c, 0, 83, 65
1, 424926, Note_off_c, 0, 55, 62
1, 425013, Control_c, 0, 64, 76
1, 425020, Note_on_c, 0, 55, 88
1, 425020, Note_on_c, 0, 86, 89
1, 425021, Note_on_c, 0, 83, 76
1, 425026, Note_on_c, 0, 82, 19
1, 425027, Note_on_c, 0, 79, 67
1, 425027, Control_c, 0, 64, 45
1, 425042, Control_c, 0, 64, 0
1, 425087, Control_c, 0, 64, 53
1, 425101, Note_off_c, 0, 86, 65
1, 425101, Control_c, 0, 64, 68
1, 425110, Note_off_c, 0, 79, 62
1, 425111, Note_off_c, 0, 83, 64
1, 425116, Control_c, 0, 64, 88
1, 425123, Note_off_c, 0, 55, 62
1, 425131, Control_c, 0, 64, 127
1, 425137, Note_on_c, 0, 74, 71
1, 425140, Note_off_c, 0, 82, 41
1, 425149, Note_on_c, 0, 67, 83
1, 425153, Note_off_c, 0, 74, 67
1, 425175, Note_off_c, 0, 67, 66
1, 425309, Control_c, 0, 64, 78
1, 425312, Note_on_c, 0, 51, 95
1, 425312, Note_on_c, 0, 92, 103
1, 425324, Control_c, 0, 64, 48
1, 425339, Control_c, 0, 64, 0
1, 425353, Control_c, 0, 64, 29
1, 425368, Control_c, 0, 64, 54
1, 425383, Control_c, 0, 64, 68
1, 425398, Control_c, 0, 64, 93
1, 425413, Control_c, 0, 64, 127
1, 425422, Note_off_c, 0, 92, 67
1, 425441, Note_on_c, 0, 80, 76
1, 425455, Note_off_c, 0, 51, 57
1, 425462, Note_on_c, 0, 52, 77
1, 425491, Note_off_c, 0, 80, 61
1, 425530, Note_off_c, 0, 52, 62
1, 425599, Control_c, 0, 64, 87
1, 425614, Control_c, 0, 64, 61
1, 425614, Note_on_c, 0, 88, 80
1, 425619, Note_on_c, 0, 80, 66
1, 425619, Note_on_c, 0, 83, 71
1, 425628, Control_c, 0, 64, 0
1, 425633, Note_on_c, 0, 52, 79
1, 425644, Control_c, 0, 64, 35
1, 425658, Control_c, 0, 64, 57
1, 425673, Control_c, 0, 64, 69
1, 425688, Control_c, 0, 64, 88
1, 425692, Note_off_c, 0, 52, 62
1, 425703, Control_c, 0, 64, 127
1, 425721, Note_off_c, 0, 88, 66
1, 425736, Note_off_c, 0, 83, 64
1, 425739, Note_off_c, 0, 80, 60
1, 425745, Note_on_c, 0, 76, 78
1, 425746, Note_on_c, 0, 64, 73
1, 425769, Note_off_c, 0, 76, 68
1, 425772, Note_off_c, 0, 64, 68
1, 425896, Control_c, 0, 64, 94
1, 425911, Control_c, 0, 64, 71
1, 425915, Note_on_c, 0, 93, 85
1, 425924, Note_on_c, 0, 47, 65
1, 425925, Control_c, 0, 64, 54
1, 425940, Control_c, 0, 64, 52
1, 425955, Control_c, 0, 64, 59
1, 425970, Control_c, 0, 64, 67
1, 425984, Control_c, 0, 64, 79
1, 425999, Control_c, 0, 64, 104
1, 426014, Control_c, 0, 64, 127
1, 426016, Note_off_c, 0, 93, 63
1, 426048, Note_on_c, 0, 81, 75
1, 426070, Note_on_c, 0, 48, 70
1, 426080, Note_off_c, 0, 47, 61
1, 426096, Note_off_c, 0, 81, 63
1, 426129, Note_off_c, 0, 48, 61
1, 426177, Control_c, 0, 64, 103
1, 426192, Control_c, 0, 64, 67
1, 426201, Note_on_c, 0, 88, 88
1, 426206, Note_on_c, 0, 84, 78
1, 426207, Control_c, 0, 64, 41
1, 426216, Note_on_c, 0, 81, 65
1, 426221, Note_on_c, 0, 48, 85
1, 426222, Control_c, 0, 64, 34
1, 426237, Control_c, 0, 64, 56
1, 426258, Control_c, 0, 64, 67
1, 426273, Control_c, 0, 64, 86
1, 426288, Control_c, 0, 64, 127
1, 426320, Note_off_c, 0, 81, 63
1, 426325, Note_off_c, 0, 88, 65
1, 426339, Note_on_c, 0, 76, 74
1, 426343, Note_off_c, 0, 84, 63
1, 426352, Note_on_c, 0, 60, 75
1, 426355, Note_off_c, 0, 48, 60
1, 426384, Note_off_c, 0, 76, 63
1, 426408, Note_off_c, 0, 60, 63
1, 426466, Control_c, 0, 64, 105
1, 426481, Control_c, 0, 64, 67
1, 426496, Control_c, 0, 64, 38
1, 426496, Note_on_c, 0, 89, 90
1, 426504, Note_on_c, 0, 49, 90
1, 426511, Control_c, 0, 64, 0
1, 426526, Control_c, 0, 64, 48
1, 426541, Control_c, 0, 64, 65
1, 426555, Control_c, 0, 64, 83
1, 426570, Control_c, 0, 64, 127
1, 426613, Note_off_c, 0, 89, 64
1, 426648, Note_on_c, 0, 77, 83
1, 426648, Note_on_c, 0, 50, 77
1, 426672, Note_off_c, 0, 49, 61
1, 426711, Note_off_c, 0, 50, 64
1, 426711, Note_off_c, 0, 77, 62
1, 426777, Control_c, 0, 64, 77
1, 426791, Note_on_c, 0, 86, 95
1, 426792, Control_c, 0, 64, 46
1, 426794, Note_on_c, 0, 81, 81
1, 426797, Note_on_c, 0, 77, 87
1, 426797, Note_on_c, 0, 50, 90
1, 426806, Control_c, 0, 64, 0
1, 426836, Control_c, 0, 64, 32
1, 426851, Control_c, 0, 64, 61
1, 426866, Control_c, 0, 64, 81
1, 426880, Control_c, 0, 64, 127
1, 426901, Note_off_c, 0, 50, 59
1, 426904, Note_off_c, 0, 86, 66
1, 426923, Note_on_c, 0, 62, 78
1, 426926, Note_off_c, 0, 81, 65
1, 426929, Note_off_c, 0, 77, 61
1, 426932, Note_on_c, 0, 74, 88
1, 426978, Note_off_c, 0, 74, 64
1, 426982, Note_off_c, 0, 62, 62
1, 427066, Control_c, 0, 64, 116
1, 427080, Control_c, 0, 64, 67
1, 427094, Note_on_c, 0, 88, 103
1, 427095, Note_on_c, 0, 51, 92
1, 427095, Control_c, 0, 64, 0
1, 427140, Control_c, 0, 64, 41
1, 427155, Control_c, 0, 64, 67
1, 427170, Control_c, 0, 64, 110
1, 427184, Control_c, 0, 64, 127
1, 427216, Note_off_c, 0, 88, 67
1, 427241, Note_on_c, 0, 52, 82
1, 427246, Note_on_c, 0, 76, 91
1, 427287, Note_off_c, 0, 51, 52
1, 427298, Note_off_c, 0, 76, 64
1, 427305, Note_off_c, 0, 52, 63
1, 427378, Control_c, 0, 64, 100
1, 427393, Control_c, 0, 64, 62
1, 427402, Note_on_c, 0, 81, 84
1, 427402, Note_on_c, 0, 84, 91
1, 427405, Note_on_c, 0, 52, 94
1, 427406, Note_on_c, 0, 76, 76
1, 427408, Control_c, 0, 64, 0
1, 427437, Control_c, 0, 64, 36
1, 427452, Control_c, 0, 64, 64
1, 427467, Control_c, 0, 64, 87
1, 427482, Control_c, 0, 64, 127
1, 427486, Note_off_c, 0, 84, 64
1, 427490, Note_off_c, 0, 81, 63
1, 427508, Note_off_c, 0, 52, 63
1, 427521, Note_off_c, 0, 76, 65
1, 427524, Note_on_c, 0, 72, 75
1, 427527, Note_on_c, 0, 64, 88
1, 427545, Note_off_c, 0, 72, 69
1, 427554, Note_off_c, 0, 64, 67
1, 427689, Control_c, 0, 64, 77
1, 427697, Note_on_c, 0, 88, 104
1, 427703, Control_c, 0, 64, 43
1, 427710, Note_on_c, 0, 39, 90
1, 427718, Control_c, 0, 64, 0
1, 427770, Control_c, 0, 64, 52
1, 427785, Control_c, 0, 64, 67
1, 427800, Control_c, 0, 64, 93
1, 427815, Control_c, 0, 64, 127
1, 427832, Note_off_c, 0, 88, 65
1, 427836, Note_off_c, 0, 39, 60
1, 427849, Note_on_c, 0, 76, 91
1, 427865, Note_on_c, 0, 40, 89
1, 427888, Note_off_c, 0, 76, 65
1, 427924, Note_off_c, 0, 40, 62
1, 428022, Control_c, 0, 64, 91
1, 428032, Note_on_c, 0, 76, 94
1, 428034, Note_on_c, 0, 40, 94
1, 428038, Control_c, 0, 64, 55
1, 428052, Control_c, 0, 64, 0
1, 428097, Control_c, 0, 64, 61
1, 428112, Control_c, 0, 64, 105
1, 428126, Control_c, 0, 64, 127
1, 428180, Note_on_c, 0, 64, 94
1, 428182, Note_on_c, 0, 52, 97
1, 428188, Note_off_c, 0, 40, 67
1, 428192, Note_off_c, 0, 76, 63
1, 428203, Note_off_c, 0, 52, 72
1, 428213, Note_off_c, 0, 64, 69
1, 428242, Poly_aftertouch_c, 0, 74, 127
1, 428265, Poly_aftertouch_c, 0, 74, 0
1, 428482, Control_c, 0, 64, 104
1, 428505, Control_c, 0, 64, 88
1, 428520, Control_c, 0, 64, 78
1, 428534, Control_c, 0, 64, 70
1, 428549, Control_c, 0, 64, 62
1, 428564, Control_c, 0, 64, 54
1, 428579, Control_c, 0, 64, 46
1, 428594, Control_c, 0, 64, 29
1, 428609, Control_c, 0, 64, 0
1, 429812, Note_on_c, 0, 88, 59
1, 429919, Note_off_c, 0, 88, 60
1, 430047, Control_c, 0, 64, 27
1, 430052, Note_on_c, 0, 86, 68
1, 430091, Control_c, 0, 64, 29
1, 430149, Control_c, 0, 64, 31
1, 430158, Note_off_c, 0, 86, 61
1, 430164, Control_c, 0, 64, 32
1, 430179, Control_c, 0, 64, 33
1, 430194, Control_c, 0, 64, 33
1, 430234, Note_on_c, 0, 85, 72
1, 430238, Control_c, 0, 64, 34
1, 430268, Control_c, 0, 64, 34
1, 430283, Control_c, 0, 64, 35
1, 430317, Note_off_c, 0, 85, 63
1, 430342, Control_c, 0, 64, 35
1, 430356, Control_c, 0, 64, 36
1, 430397, Note_on_c, 0, 83, 74
1, 430417, Control_c, 0, 64, 36
1, 430432, Control_c, 0, 64, 37
1, 430461, Control_c, 0, 64, 37
1, 430469, Note_off_c, 0, 83, 62
1, 430476, Control_c, 0, 64, 38
1, 430506, Control_c, 0, 64, 38
1, 430520, Control_c, 0, 64, 39
1, 430535, Control_c, 0, 64, 39
1, 430548, Note_on_c, 0, 81, 72
1, 430550, Control_c, 0, 64, 40
1, 430565, Control_c, 0, 64, 40
1, 430580, Control_c, 0, 64, 41
1, 430595, Control_c, 0, 64, 41
1, 430610, Control_c, 0, 64, 42
1, 430620, Note_off_c, 0, 81, 61
1, 430624, Control_c, 0, 64, 43
1, 430639, Control_c, 0, 64, 44
1, 430654, Control_c, 0, 64, 45
1, 430669, Control_c, 0, 64, 46
1, 430684, Control_c, 0, 64, 47
1, 430699, Control_c, 0, 64, 48
1, 430709, Note_on_c, 0, 80, 76
1, 430714, Control_c, 0, 64, 49
1, 430750, Control_c, 0, 64, 49
1, 430803, Note_off_c, 0, 80, 61
1, 430871, Note_on_c, 0, 81, 82
1, 430946, Note_off_c, 0, 81, 62
1, 430987, Control_c, 0, 64, 49
1, 431028, Note_on_c, 0, 83, 77
1, 431032, Control_c, 0, 64, 48
1, 431101, Note_off_c, 0, 83, 62
1, 431177, Note_on_c, 0, 81, 74
1, 431250, Note_off_c, 0, 81, 61
1, 431349, Note_on_c, 0, 80, 65
1, 431388, Control_c, 0, 64, 49
1, 431424, Note_off_c, 0, 80, 59
1, 431511, Note_on_c, 0, 78, 63
1, 431596, Note_off_c, 0, 78, 58
1, 431671, Note_on_c, 0, 76, 67
1, 431736, Note_off_c, 0, 76, 62
1, 431766, Control_c, 0, 64, 49
1, 431829, Note_on_c, 0, 75, 65
1, 431906, Note_off_c, 0, 75, 59
1, 431915, Control_c, 0, 64, 50
1, 431989, Control_c, 0, 67, 46
1, 432000, Note_on_c, 0, 76, 59
1, 432003, Control_c, 0, 67, 57
1, 432019, Control_c, 0, 67, 67
1, 432034, Control_c, 0, 67, 75
1, 432049, Control_c, 0, 67, 82
1, 432064, Control_c, 0, 67, 90
1, 432068, Note_off_c, 0, 76, 57
1, 432079, Control_c, 0, 67, 93
1, 432155, Note_on_c, 0, 77, 63
1, 432225, Note_off_c, 0, 77, 61
1, 432249, Control_c, 0, 67, 93
1, 432264, Control_c, 0, 67, 92
1, 432308, Control_c, 0, 67, 91
1, 432338, Control_c, 0, 67, 91
1, 432350, Note_on_c, 0, 78, 60
1, 432397, Control_c, 0, 67, 90
1, 432425, Note_off_c, 0, 78, 56
1, 432441, Control_c, 0, 67, 90
1, 432471, Control_c, 0, 67, 89
1, 432486, Control_c, 0, 67, 88
1, 432500, Control_c, 0, 64, 49
1, 432511, Note_on_c, 0, 76, 58
1, 432530, Control_c, 0, 67, 88
1, 432577, Note_off_c, 0, 76, 59
1, 432619, Control_c, 0, 67, 87
1, 432674, Note_on_c, 0, 74, 57
1, 432708, Control_c, 0, 67, 87
1, 432738, Note_off_c, 0, 74, 58
1, 432767, Control_c, 0, 67, 86
1, 432839, Note_on_c, 0, 73, 53
1, 432911, Note_off_c, 0, 73, 57
1, 433018, Note_on_c, 0, 71, 51
1, 433088, Note_off_c, 0, 71, 48
1, 433172, Note_on_c, 0, 69, 52
1, 433242, Note_off_c, 0, 69, 57
1, 433322, Control_c, 0, 67, 86
1, 433358, Note_on_c, 0, 68, 51
1, 433440, Note_off_c, 0, 68, 61
1, 433519, Note_on_c, 0, 69, 53
1, 433560, Control_c, 0, 67, 85
1, 433561, Note_off_c, 0, 69, 57
1, 433574, Control_c, 0, 64, 49
1, 433694, Note_on_c, 0, 74, 69
1, 433698, Note_on_c, 0, 71, 49
1, 433700, Note_on_c, 0, 76, 54
1, 433770, Note_off_c, 0, 71, 52
1, 433786, Note_off_c, 0, 76, 61
1, 433805, Control_c, 0, 67, 86
1, 433835, Control_c, 0, 67, 86
1, 433850, Control_c, 0, 67, 87
1, 433856, Note_off_c, 0, 74, 64
1, 433865, Control_c, 0, 67, 87
1, 433879, Control_c, 0, 67, 88
1, 433888, Note_on_c, 0, 69, 46
1, 433894, Control_c, 0, 67, 88
1, 433924, Control_c, 0, 67, 89
1, 433933, Note_off_c, 0, 69, 59
1, 433939, Control_c, 0, 67, 90
1, 433953, Control_c, 0, 67, 90
1, 433968, Control_c, 0, 64, 48
1, 434042, Control_c, 0, 64, 48
1, 434086, Control_c, 0, 64, 47
1, 434097, Note_on_c, 0, 74, 59
1, 434101, Note_on_c, 0, 76, 50
1, 434121, Note_on_c, 0, 68, 49
1, 434160, Control_c, 0, 67, 91
1, 434175, Control_c, 0, 64, 47
1, 434190, Control_c, 0, 64, 46
1, 434190, Control_c, 0, 67, 91
1, 434204, Control_c, 0, 64, 46
1, 434212, Note_off_c, 0, 76, 55
1, 434219, Control_c, 0, 64, 45
1, 434234, Control_c, 0, 64, 44
1, 434249, Note_off_c, 0, 68, 49
1, 434249, Control_c, 0, 64, 43
1, 434249, Control_c, 0, 67, 92
1, 434264, Control_c, 0, 64, 41
1, 434279, Control_c, 0, 64, 37
1, 434294, Control_c, 0, 64, 31
1, 434308, Control_c, 0, 64, 0
1, 434309, Note_on_c, 0, 66, 52
1, 434388, Note_off_c, 0, 66, 63
1, 434524, Control_c, 0, 67, 91
1, 434539, Note_on_c, 0, 64, 44
1, 434545, Note_on_c, 0, 73, 47
1, 434550, Note_on_c, 0, 76, 36
1, 434626, Note_off_c, 0, 64, 51
1, 434683, Note_off_c, 0, 76, 36
1, 434704, Note_off_c, 0, 74, 45
1, 434783, Note_on_c, 0, 71, 50
1, 434786, Note_on_c, 0, 62, 43
1, 434791, Control_c, 0, 67, 91
1, 434819, Note_off_c, 0, 73, 55
1, 434860, Note_off_c, 0, 62, 57
1, 434983, Control_c, 0, 67, 90
1, 435117, Control_c, 0, 67, 90
1, 435167, Note_on_c, 0, 76, 55
1, 435192, Note_on_c, 0, 69, 32
1, 435196, Note_on_c, 0, 57, 35
1, 435209, Note_on_c, 0, 61, 28
1, 435212, Note_off_c, 0, 71, 56
1, 435288, Control_c, 0, 67, 89
1, 435392, Control_c, 0, 67, 88
1, 435466, Control_c, 0, 67, 88
1, 435511, Control_c, 0, 67, 87
1, 435525, Control_c, 0, 64, 31
1, 435540, Control_c, 0, 64, 39
1, 435555, Control_c, 0, 64, 46
1, 435555, Control_c, 0, 67, 87
1, 435570, Control_c, 0, 64, 52
1, 435585, Control_c, 0, 64, 56
1, 435585, Control_c, 0, 67, 86
1, 435600, Control_c, 0, 64, 57
1, 435614, Control_c, 0, 64, 59
1, 435629, Control_c, 0, 64, 62
1, 435629, Control_c, 0, 67, 86
1, 435644, Control_c, 0, 64, 64
1, 435659, Control_c, 0, 64, 65
1, 435674, Control_c, 0, 64, 67
1, 435688, Control_c, 0, 64, 70
1, 435688, Control_c, 0, 67, 85
1, 435703, Control_c, 0, 64, 73
1, 435718, Control_c, 0, 64, 77
1, 435733, Control_c, 0, 64, 82
1, 435733, Control_c, 0, 67, 84
1, 435748, Control_c, 0, 64, 87
1, 435762, Control_c, 0, 64, 92
1, 435777, Control_c, 0, 64, 99
1, 435792, Control_c, 0, 64, 107
1, 435807, Control_c, 0, 64, 121
1, 435822, Control_c, 0, 64, 127
1, 435851, Control_c, 0, 67, 84
1, 436181, Note_on_c, 0, 81, 44
1, 436200, Control_c, 0, 64, 118
1, 436215, Control_c, 0, 64, 114
1, 436230, Control_c, 0, 64, 110
1, 436245, Control_c, 0, 64, 106
1, 436245, Control_c, 0, 67, 83
1, 436259, Control_c, 0, 64, 103
1, 436274, Control_c, 0, 64, 98
1, 436289, Control_c, 0, 64, 93
1, 436304, Control_c, 0, 64, 87
1, 436318, Control_c, 0, 64, 82
1, 436333, Control_c, 0, 64, 74
1, 436348, Control_c, 0, 64, 65
1, 436348, Control_c, 0, 67, 83
1, 436363, Control_c, 0, 64, 58
1, 436373, Note_on_c, 0, 80, 60
1, 436378, Control_c, 0, 64, 53
1, 436392, Control_c, 0, 64, 54
1, 436392, Control_c, 0, 67, 82
1, 436407, Control_c, 0, 64, 57
1, 436422, Control_c, 0, 64, 59
1, 436437, Control_c, 0, 64, 61
1, 436437, Control_c, 0, 67, 82
1, 436452, Control_c, 0, 64, 64
1, 436467, Control_c, 0, 64, 67
1, 436482, Control_c, 0, 64, 71
1, 436482, Control_c, 0, 67, 81
1, 436497, Control_c, 0, 64, 75
1, 436511, Control_c, 0, 64, 77
1, 436511, Control_c, 0, 67, 80
1, 436526, Control_c, 0, 64, 80
1, 436541, Note_on_c, 0, 78, 67
1, 436541, Control_c, 0, 64, 84
1, 436556, Control_c, 0, 64, 88
1, 436556, Control_c, 0, 67, 80
1, 436571, Control_c, 0, 64, 91
1, 436573, Note_off_c, 0, 76, 37
1, 436585, Control_c, 0, 64, 95
1, 436600, Control_c, 0, 64, 99
1, 436615, Control_c, 0, 64, 104
1, 436630, Control_c, 0, 64, 109
1, 436645, Control_c, 0, 64, 118
1, 436658, Note_off_c, 0, 81, 37
1, 436659, Control_c, 0, 64, 127
1, 436668, Note_off_c, 0, 69, 48
1, 436689, Note_on_c, 0, 76, 70
1, 436708, Note_off_c, 0, 57, 41
1, 436742, Note_off_c, 0, 61, 41
1, 436756, Note_off_c, 0, 80, 33
1, 436788, Note_off_c, 0, 76, 61
1, 436797, Note_off_c, 0, 78, 38
1, 436899, Note_on_c, 0, 76, 65
1, 436904, Control_c, 0, 67, 80
1, 436914, Note_on_c, 0, 68, 37
1, 436933, Control_c, 0, 64, 114
1, 436941, Note_on_c, 0, 62, 27
1, 436948, Control_c, 0, 64, 92
1, 436957, Note_on_c, 0, 59, 39
1, 436963, Control_c, 0, 64, 76
1, 436963, Control_c, 0, 67, 80
1, 436978, Control_c, 0, 64, 63
1, 436978, Control_c, 0, 67, 79
1, 436993, Control_c, 0, 64, 52
1, 436993, Control_c, 0, 67, 78
1, 437007, Control_c, 0, 64, 50
1, 437007, Control_c, 0, 67, 76
1, 437022, Control_c, 0, 64, 53
1, 437022, Control_c, 0, 67, 73
1, 437037, Control_c, 0, 64, 58
1, 437037, Control_c, 0, 67, 72
1, 437052, Control_c, 0, 64, 62
1, 437052, Control_c, 0, 67, 71
1, 437067, Control_c, 0, 64, 68
1, 437067, Control_c, 0, 67, 70
1, 437081, Control_c, 0, 64, 76
1, 437081, Control_c, 0, 67, 69
1, 437096, Control_c, 0, 64, 83
1, 437096, Control_c, 0, 67, 68
1, 437102, Note_off_c, 0, 68, 55
1, 437107, Note_off_c, 0, 76, 59
1, 437111, Control_c, 0, 64, 86
1, 437111, Control_c, 0, 67, 67
1, 437118, Note_off_c, 0, 62, 43
1, 437125, Note_off_c, 0, 59, 42
1, 437126, Control_c, 0, 64, 90
1, 437126, Control_c, 0, 67, 68
1, 437141, Control_c, 0, 64, 94
1, 437141, Control_c, 0, 67, 68
1, 437156, Control_c, 0, 64, 99
1, 437156, Control_c, 0, 67, 69
1, 437170, Control_c, 0, 64, 105
1, 437185, Control_c, 0, 64, 111
1, 437185, Control_c, 0, 67, 69
1, 437200, Control_c, 0, 64, 114
1, 437200, Control_c, 0, 67, 70
1, 437215, Control_c, 0, 64, 112
1, 437215, Control_c, 0, 67, 71
1, 437226, Note_on_c, 0, 76, 71
1, 437230, Control_c, 0, 64, 99
1, 437245, Control_c, 0, 64, 81
1, 437248, Note_on_c, 0, 68, 48
1, 437248, Note_on_c, 0, 59, 43
1, 437249, Note_on_c, 0, 62, 43
1, 437260, Control_c, 0, 64, 73
1, 437260, Control_c, 0, 67, 70
1, 437275, Control_c, 0, 64, 72
1, 437275, Control_c, 0, 67, 68
1, 437289, Control_c, 0, 64, 74
1, 437289, Control_c, 0, 67, 67
1, 437304, Control_c, 0, 64, 78
1, 437304, Control_c, 0, 67, 65
1, 437319, Control_c, 0, 64, 83
1, 437319, Control_c, 0, 67, 62
1, 437333, Control_c, 0, 64, 92
1, 437333, Control_c, 0, 67, 46
1, 437348, Control_c, 0, 64, 104
1, 437348, Control_c, 0, 67, 0
1, 437363, Control_c, 0, 64, 118
1, 437378, Control_c, 0, 64, 127
1, 437384, Note_off_c, 0, 62, 50
1, 437400, Note_off_c, 0, 59, 50
1, 437403, Note_off_c, 0, 68, 38
1, 437403, Note_off_c, 0, 76, 58
1, 437534, Control_c, 0, 64, 94
1, 437539, Note_on_c, 0, 76, 75
1, 437548, Control_c, 0, 64, 78
1, 437557, Note_on_c, 0, 59, 48
1, 437561, Note_on_c, 0, 68, 47
1, 437563, Control_c, 0, 64, 72
1, 437566, Note_on_c, 0, 62, 45
1, 437578, Control_c, 0, 64, 73
1, 437593, Control_c, 0, 64, 77
1, 437608, Control_c, 0, 64, 84
1, 437624, Control_c, 0, 64, 94
1, 437638, Control_c, 0, 64, 115
1, 437653, Control_c, 0, 64, 127
1, 437710, Note_off_c, 0, 76, 60
1, 437725, Note_off_c, 0, 62, 52
1, 437732, Note_off_c, 0, 59, 51
1, 437752, Note_off_c, 0, 68, 37
1, 437801, Control_c, 0, 64, 105
1, 437816, Control_c, 0, 64, 78
1, 437831, Control_c, 0, 64, 69
1, 437845, Control_c, 0, 64, 71
1, 437856, Note_on_c, 0, 76, 79
1, 437860, Control_c, 0, 64, 83
1, 437875, Control_c, 0, 64, 94
1, 437878, Note_on_c, 0, 68, 53
1, 437882, Note_on_c, 0, 62, 48
1, 437883, Note_on_c, 0, 59, 50
1, 437890, Control_c, 0, 64, 123
1, 437905, Control_c, 0, 64, 127
1, 437938, Note_off_c, 0, 76, 63
1, 437944, Note_off_c, 0, 62, 61
1, 437945, Note_off_c, 0, 68, 61
1, 438009, Note_off_c, 0, 59, 56
1, 438183, Note_on_c, 0, 76, 76
1, 438201, Control_c, 0, 64, 93
1, 438210, Note_on_c, 0, 64, 54
1, 438214, Note_on_c, 0, 61, 51
1, 438216, Control_c, 0, 64, 71
1, 438233, Note_on_c, 0, 69, 50
1, 438238, Control_c, 0, 64, 56
1, 438253, Control_c, 0, 64, 41
1, 438267, Control_c, 0, 64, 37
1, 438282, Control_c, 0, 64, 48
1, 438297, Control_c, 0, 64, 59
1, 438312, Control_c, 0, 64, 67
1, 438327, Control_c, 0, 64, 81
1, 438332, Note_off_c, 0, 61, 60
1, 438342, Control_c, 0, 64, 104
1, 438357, Control_c, 0, 64, 127
1, 438527, Note_on_c, 0, 73, 76
1, 438536, Control_c, 0, 64, 103
1, 438546, Note_on_c, 0, 61, 56
1, 438549, Note_on_c, 0, 57, 51
1, 438551, Control_c, 0, 64, 76
1, 438566, Control_c, 0, 64, 60
1, 438580, Control_c, 0, 64, 37
1, 438595, Control_c, 0, 64, 28
1, 438598, Note_off_c, 0, 64, 58
1, 438610, Control_c, 0, 64, 37
1, 438625, Control_c, 0, 64, 52
1, 438640, Control_c, 0, 64, 62
1, 438649, Note_off_c, 0, 69, 37
1, 438655, Control_c, 0, 64, 71
1, 438658, Note_off_c, 0, 76, 58
1, 438669, Control_c, 0, 64, 82
1, 438684, Control_c, 0, 64, 95
1, 438699, Control_c, 0, 64, 104
1, 438713, Control_c, 0, 64, 127
1, 438721, Note_off_c, 0, 57, 58
1, 438722, Note_off_c, 0, 61, 38
1, 438953, Note_on_c, 0, 78, 64
1, 438986, Note_on_c, 0, 66, 45
1, 438992, Note_on_c, 0, 69, 46
1, 438998, Note_on_c, 0, 62, 40
1, 439006, Note_off_c, 0, 73, 60
1, 439047, Control_c, 0, 64, 111
1, 439061, Control_c, 0, 64, 102
1, 439076, Control_c, 0, 64, 94
1, 439091, Control_c, 0, 64, 86
1, 439106, Control_c, 0, 64, 80
1, 439120, Control_c, 0, 64, 73
1, 439135, Control_c, 0, 64, 66
1, 439150, Control_c, 0, 64, 58
1, 439165, Control_c, 0, 64, 48
1, 439180, Control_c, 0, 64, 28
1, 439195, Control_c, 0, 64, 0
1, 439284, Control_c, 0, 64, 40
1, 439299, Control_c, 0, 64, 58
1, 439314, Control_c, 0, 64, 64
1, 439329, Control_c, 0, 64, 69
1, 439344, Control_c, 0, 64, 75
1, 439358, Control_c, 0, 64, 82
1, 439373, Control_c, 0, 64, 91
1, 439388, Control_c, 0, 64, 102
1, 439403, Control_c, 0, 64, 127
1, 439470, Note_off_c, 0, 69, 48
1, 439536, Control_c, 0, 67, 36
1, 439549, Note_off_c, 0, 62, 51
1, 439551, Control_c, 0, 67, 72
1, 439566, Control_c, 0, 67, 99
1, 439572, Note_off_c, 0, 66, 38
1, 439581, Control_c, 0, 67, 113
1, 439596, Control_c, 0, 67, 122
1, 439610, Control_c, 0, 67, 127
1, 439901, Note_on_c, 0, 76, 55
1, 439918, Note_off_c, 0, 78, 54
1, 439924, Note_on_c, 0, 64, 38
1, 439928, Note_on_c, 0, 61, 36
1, 439937, Note_on_c, 0, 69, 34
1, 439943, Control_c, 0, 64, 105
1, 439958, Control_c, 0, 64, 85
1, 439973, Control_c, 0, 64, 70
1, 439988, Control_c, 0, 64, 58
1, 440003, Control_c, 0, 64, 53
1, 440019, Control_c, 0, 64, 57
1, 440033, Control_c, 0, 64, 63
1, 440048, Control_c, 0, 64, 68
1, 440056, Note_off_c, 0, 61, 60
1, 440063, Control_c, 0, 64, 79
1, 440078, Control_c, 0, 64, 94
1, 440093, Control_c, 0, 64, 108
1, 440107, Control_c, 0, 64, 127
1, 440122, Note_off_c, 0, 69, 45
1, 440333, Note_on_c, 0, 69, 51
1, 440353, Note_on_c, 0, 61, 24
1, 440359, Control_c, 0, 64, 103
1, 440362, Note_on_c, 0, 54, 34
1, 440374, Control_c, 0, 64, 84
1, 440389, Control_c, 0, 64, 68
1, 440404, Control_c, 0, 64, 55
1, 440419, Control_c, 0, 64, 40
1, 440433, Control_c, 0, 64, 39
1, 440448, Control_c, 0, 64, 47
1, 440449, Note_off_c, 0, 64, 43
1, 440463, Control_c, 0, 64, 57
1, 440485, Control_c, 0, 64, 63
1, 440497, Note_off_c, 0, 76, 39
1, 440500, Control_c, 0, 64, 70
1, 440515, Control_c, 0, 64, 77
1, 440530, Control_c, 0, 64, 85
1, 440536, Note_off_c, 0, 54, 54
1, 440545, Control_c, 0, 64, 90
1, 440559, Control_c, 0, 64, 96
1, 440574, Control_c, 0, 64, 101
1, 440589, Control_c, 0, 64, 106
1, 440604, Control_c, 0, 64, 109
1, 440646, Note_off_c, 0, 61, 41
1, 440701, Note_off_c, 0, 69, 38
1, 440886, Control_c, 0, 64, 106
1, 440887, Note_on_c, 0, 71, 37
1, 440910, Note_on_c, 0, 68, 34
1, 440915, Control_c, 0, 64, 103
1, 440920, Note_on_c, 0, 62, 31
1, 440928, Note_on_c, 0, 52, 32
1, 440930, Control_c, 0, 64, 101
1, 440960, Control_c, 0, 64, 98
1, 440989, Control_c, 0, 64, 95
1, 441004, Control_c, 0, 64, 91
1, 441019, Control_c, 0, 64, 88
1, 441034, Control_c, 0, 64, 83
1, 441049, Control_c, 0, 64, 79
1, 441064, Control_c, 0, 64, 75
1, 441078, Control_c, 0, 64, 69
1, 441093, Control_c, 0, 64, 63
1, 441108, Control_c, 0, 64, 57
1, 441123, Control_c, 0, 64, 51
1, 441138, Control_c, 0, 64, 44
1, 441153, Control_c, 0, 64, 32
1, 441168, Control_c, 0, 64, 0
1, 441397, Control_c, 0, 64, 38
1, 441412, Control_c, 0, 64, 49
1, 441427, Control_c, 0, 64, 56
1, 441442, Control_c, 0, 64, 60
1, 441456, Control_c, 0, 64, 62
1, 441471, Control_c, 0, 64, 64
1, 441486, Control_c, 0, 64, 67
1, 441501, Control_c, 0, 64, 70
1, 441515, Control_c, 0, 64, 72
1, 441529, Note_off_c, 0, 52, 41
1, 441530, Control_c, 0, 64, 74
1, 441545, Control_c, 0, 64, 76
1, 441558, Note_off_c, 0, 68, 35
1, 441560, Control_c, 0, 64, 79
1, 441575, Control_c, 0, 64, 82
1, 441579, Note_off_c, 0, 71, 42
1, 441584, Note_off_c, 0, 62, 43
1, 441589, Control_c, 0, 64, 84
1, 441605, Control_c, 0, 64, 87
1, 441620, Control_c, 0, 64, 89
1, 441635, Control_c, 0, 64, 90
1, 441650, Control_c, 0, 64, 91
1, 441665, Control_c, 0, 64, 91
1, 441679, Control_c, 0, 64, 92
1, 441709, Control_c, 0, 64, 92
1, 441916, Control_c, 0, 64, 92
1, 441961, Control_c, 0, 64, 91
1, 441998, Control_c, 0, 64, 91
1, 442012, Control_c, 0, 64, 90
1, 442027, Control_c, 0, 64, 89
1, 442042, Control_c, 0, 64, 88
1, 442057, Control_c, 0, 64, 86
1, 442072, Control_c, 0, 64, 84
1, 442086, Control_c, 0, 64, 82
1, 442101, Control_c, 0, 64, 79
1, 442116, Control_c, 0, 64, 75
1, 442131, Control_c, 0, 64, 72
1, 442146, Control_c, 0, 64, 68
1, 442161, Control_c, 0, 64, 64
1, 442175, Control_c, 0, 64, 60
1, 442190, Control_c, 0, 64, 56
1, 442205, Control_c, 0, 64, 52
1, 442220, Control_c, 0, 64, 47
1, 442235, Control_c, 0, 64, 38
1, 442250, Control_c, 0, 64, 0
1, 442374, Note_on_c, 0, 88, 56
1, 442384, Note_on_c, 0, 73, 32
1, 442402, Note_on_c, 0, 76, 30
1, 442473, Control_c, 0, 64, 36
1, 442488, Control_c, 0, 64, 48
1, 442502, Control_c, 0, 64, 56
1, 442517, Control_c, 0, 64, 62
1, 442527, Note_off_c, 0, 73, 53
1, 442532, Control_c, 0, 64, 66
1, 442547, Control_c, 0, 64, 69
1, 442561, Control_c, 0, 64, 70
1, 442576, Control_c, 0, 64, 71
1, 442591, Control_c, 0, 64, 73
1, 442606, Control_c, 0, 64, 75
1, 442620, Control_c, 0, 64, 76
1, 442635, Control_c, 0, 64, 77
1, 442665, Control_c, 0, 64, 77
1, 442739, Note_on_c, 0, 86, 63
1, 442739, Note_off_c, 0, 88, 56
1, 442757, Note_on_c, 0, 69, 41
1, 442760, Note_on_c, 0, 73, 31
1, 442781, Note_off_c, 0, 76, 43
1, 442819, Note_off_c, 0, 86, 62
1, 442832, Note_on_c, 0, 85, 66
1, 442904, Note_off_c, 0, 85, 62
1, 442905, Note_on_c, 0, 83, 68
1, 442918, Note_off_c, 0, 69, 32
1, 442924, Note_off_c, 0, 73, 36
1, 442971, Note_off_c, 0, 83, 60
1, 442992, Note_on_c, 0, 81, 63
1, 443160, Control_c, 0, 64, 77
1, 443190, Control_c, 0, 64, 76
1, 443194, Note_on_c, 0, 90, 60
1, 443204, Note_on_c, 0, 78, 38
1, 443206, Control_c, 0, 64, 76
1, 443221, Control_c, 0, 64, 75
1, 443228, Note_on_c, 0, 74, 41
1, 443236, Control_c, 0, 64, 74
1, 443243, Note_off_c, 0, 81, 41
1, 443250, Control_c, 0, 64, 73
1, 443265, Control_c, 0, 64, 71
1, 443280, Control_c, 0, 64, 69
1, 443295, Control_c, 0, 64, 67
1, 443309, Control_c, 0, 64, 65
1, 443324, Control_c, 0, 64, 63
1, 443339, Control_c, 0, 64, 61
1, 443354, Control_c, 0, 64, 58
1, 443369, Control_c, 0, 64, 53
1, 443383, Control_c, 0, 64, 49
1, 443398, Control_c, 0, 64, 43
1, 443413, Control_c, 0, 64, 32
1, 443428, Control_c, 0, 64, 0
1, 443539, Control_c, 0, 64, 40
1, 443553, Control_c, 0, 64, 53
1, 443568, Control_c, 0, 64, 60
1, 443582, Control_c, 0, 64, 63
1, 443597, Control_c, 0, 64, 64
1, 443612, Control_c, 0, 64, 66
1, 443627, Control_c, 0, 64, 69
1, 443642, Control_c, 0, 64, 72
1, 443657, Control_c, 0, 64, 76
1, 443672, Control_c, 0, 64, 80
1, 443687, Control_c, 0, 64, 84
1, 443698, Note_off_c, 0, 78, 49
1, 443701, Control_c, 0, 64, 86
1, 443716, Control_c, 0, 64, 89
1, 443731, Control_c, 0, 64, 90
1, 443746, Control_c, 0, 64, 91
1, 443761, Control_c, 0, 64, 92
1, 443772, Note_off_c, 0, 74, 48
1, 443775, Control_c, 0, 64, 92
1, 443968, Control_c, 0, 64, 92
1, 444013, Control_c, 0, 64, 91
1, 444028, Control_c, 0, 64, 91
1, 444043, Control_c, 0, 64, 90
1, 444058, Control_c, 0, 64, 90
1, 444072, Control_c, 0, 64, 89
1, 444086, Note_on_c, 0, 88, 51
1, 444087, Control_c, 0, 64, 88
1, 444102, Control_c, 0, 64, 85
1, 444105, Note_off_c, 0, 90, 63
1, 444114, Note_on_c, 0, 73, 39
1, 444117, Control_c, 0, 64, 81
1, 444122, Note_on_c, 0, 76, 37
1, 444131, Control_c, 0, 64, 73
1, 444146, Control_c, 0, 64, 64
1, 444161, Control_c, 0, 64, 53
1, 444176, Control_c, 0, 64, 48
1, 444191, Control_c, 0, 64, 51
1, 444205, Control_c, 0, 64, 58
1, 444228, Control_c, 0, 64, 63
1, 444243, Control_c, 0, 64, 69
1, 444258, Control_c, 0, 64, 77
1, 444265, Note_off_c, 0, 73, 52
1, 444273, Control_c, 0, 64, 84
1, 444287, Control_c, 0, 64, 87
1, 444302, Control_c, 0, 64, 90
1, 444317, Control_c, 0, 64, 93
1, 444331, Control_c, 0, 64, 95
1, 444346, Control_c, 0, 64, 96
1, 444465, Control_c, 0, 64, 95
1, 444495, Control_c, 0, 64, 95
1, 444524, Control_c, 0, 64, 94
1, 444539, Control_c, 0, 64, 93
1, 444551, Note_on_c, 0, 86, 57
1, 444554, Control_c, 0, 64, 92
1, 444562, Note_on_c, 0, 69, 37
1, 444566, Note_on_c, 0, 66, 44
1, 444569, Control_c, 0, 64, 91
1, 444584, Control_c, 0, 64, 90
1, 444598, Control_c, 0, 64, 88
1, 444613, Control_c, 0, 64, 86
1, 444615, Note_off_c, 0, 88, 38
1, 444628, Control_c, 0, 64, 84
1, 444642, Control_c, 0, 64, 82
1, 444649, Note_on_c, 0, 85, 66
1, 444650, Note_off_c, 0, 76, 41
1, 444657, Control_c, 0, 64, 80
1, 444663, Note_off_c, 0, 86, 55
1, 444672, Control_c, 0, 64, 78
1, 444687, Control_c, 0, 64, 76
1, 444702, Control_c, 0, 64, 73
1, 444717, Control_c, 0, 64, 70
1, 444731, Control_c, 0, 64, 68
1, 444746, Control_c, 0, 64, 65
1, 444759, Note_on_c, 0, 83, 60
1, 444761, Control_c, 0, 64, 63
1, 444767, Note_off_c, 0, 85, 63
1, 444776, Control_c, 0, 64, 62
1, 444791, Control_c, 0, 64, 61
1, 444807, Control_c, 0, 64, 60
1, 444821, Control_c, 0, 64, 59
1, 444836, Note_off_c, 0, 83, 60
1, 444836, Control_c, 0, 64, 58
1, 444851, Control_c, 0, 64, 58
1, 444866, Control_c, 0, 64, 57
1, 444870, Note_on_c, 0, 81, 51
1, 444880, Control_c, 0, 64, 57
1, 444895, Control_c, 0, 64, 56
1, 444910, Control_c, 0, 64, 56
1, 444925, Control_c, 0, 64, 55
1, 444940, Control_c, 0, 64, 55
1, 444977, Control_c, 0, 64, 54
1, 444992, Control_c, 0, 64, 54
1, 445007, Control_c, 0, 64, 53
1, 445022, Control_c, 0, 64, 53
1, 445036, Control_c, 0, 64, 52
1, 445096, Control_c, 0, 64, 52
1, 445111, Note_on_c, 0, 80, 46
1, 445111, Control_c, 0, 64, 51
1, 445112, Note_off_c, 0, 81, 39
1, 445115, Note_on_c, 0, 83, 44
1, 445128, Note_on_c, 0, 74, 37
1, 445138, Note_on_c, 0, 64, 34
1, 445141, Control_c, 0, 64, 51
1, 445170, Control_c, 0, 64, 50
1, 445185, Control_c, 0, 64, 49
1, 445200, Control_c, 0, 64, 48
1, 445203, Note_off_c, 0, 69, 45
1, 445215, Control_c, 0, 64, 47
1, 445223, Note_off_c, 0, 66, 45
1, 445229, Control_c, 0, 64, 46
1, 445244, Control_c, 0, 64, 45
1, 445259, Control_c, 0, 64, 44
1, 445273, Control_c, 0, 64, 40
1, 445288, Control_c, 0, 64, 34
1, 445303, Control_c, 0, 64, 0
1, 445422, Control_c, 0, 64, 37
1, 445437, Control_c, 0, 64, 45
1, 445451, Control_c, 0, 64, 52
1, 445466, Control_c, 0, 64, 57
1, 445481, Control_c, 0, 64, 60
1, 445496, Control_c, 0, 64, 62
1, 445511, Control_c, 0, 64, 64
1, 445526, Control_c, 0, 64, 66
1, 445541, Control_c, 0, 64, 67
1, 445555, Control_c, 0, 64, 69
1, 445570, Control_c, 0, 64, 71
1, 445585, Control_c, 0, 64, 73
1, 445600, Control_c, 0, 64, 75
1, 445615, Control_c, 0, 64, 79
1, 445630, Control_c, 0, 64, 81
1, 445645, Control_c, 0, 64, 84
1, 445660, Control_c, 0, 64, 86
1, 445675, Control_c, 0, 64, 88
1, 445690, Control_c, 0, 64, 90
1, 445704, Control_c, 0, 64, 92
1, 445726, Control_c, 0, 64, 94
1, 445732, Note_off_c, 0, 64, 45
1, 445741, Control_c, 0, 64, 96
1, 445774, Note_off_c, 0, 74, 40
1, 445800, Control_c, 0, 64, 98
1, 445962, Note_off_c, 0, 80, 38
1, 445988, Note_off_c, 0, 83, 40
1, 446215, Control_c, 0, 64, 95
1, 446229, Control_c, 0, 64, 92
1, 446235, Note_on_c, 0, 81, 44
1, 446244, Control_c, 0, 64, 89
1, 446251, Note_on_c, 0, 69, 42
1, 446259, Control_c, 0, 64, 83
1, 446260, Note_on_c, 0, 73, 37
1, 446274, Control_c, 0, 64, 75
1, 446289, Control_c, 0, 64, 65
1, 446304, Control_c, 0, 64, 53
1, 446319, Control_c, 0, 64, 46
1, 446334, Control_c, 0, 64, 50
1, 446349, Control_c, 0, 64, 57
1, 446364, Control_c, 0, 64, 61
1, 446378, Control_c, 0, 64, 66
1, 446393, Control_c, 0, 64, 72
1, 446408, Control_c, 0, 64, 78
1, 446423, Control_c, 0, 64, 82
1, 446435, Note_off_c, 0, 81, 61
1, 446438, Control_c, 0, 64, 84
1, 446444, Note_off_c, 0, 73, 49
1, 446453, Control_c, 0, 64, 87
1, 446475, Control_c, 0, 64, 90
1, 446490, Control_c, 0, 64, 91
1, 446501, Note_off_c, 0, 69, 34
1, 446505, Control_c, 0, 64, 92
1, 446520, Control_c, 0, 64, 92
1, 446579, Control_c, 0, 64, 93
1, 446736, Note_on_c, 0, 69, 32
1, 446846, Note_off_c, 0, 69, 38
1, 446964, Control_c, 0, 64, 92
1, 446979, Control_c, 0, 64, 92
1, 447008, Control_c, 0, 64, 91
1, 447023, Control_c, 0, 64, 90
1, 447038, Control_c, 0, 64, 88
1, 447052, Control_c, 0, 64, 85
1, 447067, Control_c, 0, 64, 79
1, 447077, Note_on_c, 0, 74, 67
1, 447082, Control_c, 0, 64, 71
1, 447097, Control_c, 0, 64, 61
1, 447109, Note_on_c, 0, 70, 40
1, 447112, Control_c, 0, 64, 47
1, 447127, Control_c, 0, 64, 35
1, 447142, Control_c, 0, 64, 34
1, 447157, Control_c, 0, 64, 40
1, 447171, Control_c, 0, 64, 49
1, 447186, Control_c, 0, 64, 56
1, 447202, Control_c, 0, 64, 61
1, 447224, Control_c, 0, 64, 65
1, 447239, Control_c, 0, 64, 69
1, 447239, Control_c, 0, 67, 112
1, 447254, Control_c, 0, 64, 73
1, 447254, Control_c, 0, 67, 94
1, 447268, Control_c, 0, 64, 75
1, 447268, Control_c, 0, 67, 87
1, 447279, Note_off_c, 0, 74, 61
1, 447283, Control_c, 0, 64, 78
1, 447283, Control_c, 0, 67, 87
1, 447297, Control_c, 0, 64, 81
1, 447312, Control_c, 0, 64, 83
1, 447312, Control_c, 0, 67, 87
1, 447327, Control_c, 0, 64, 85
1, 447327, Control_c, 0, 67, 88
1, 447341, Control_c, 0, 64, 87
1, 447356, Control_c, 0, 64, 88
1, 447356, Control_c, 0, 67, 88
1, 447371, Control_c, 0, 67, 90
1, 447386, Control_c, 0, 64, 88
1, 447386, Control_c, 0, 67, 91
1, 447401, Control_c, 0, 64, 89
1, 447401, Control_c, 0, 67, 93
1, 447416, Control_c, 0, 64, 89
1, 447416, Control_c, 0, 67, 93
1, 447431, Control_c, 0, 67, 94
1, 447439, Note_on_c, 0, 74, 50
1, 447446, Control_c, 0, 67, 95
1, 447461, Control_c, 0, 64, 90
1, 447461, Control_c, 0, 67, 95
1, 447506, Note_off_c, 0, 70, 52
1, 447526, Note_off_c, 0, 74, 57
1, 447697, Control_c, 0, 67, 97
1, 447712, Control_c, 0, 64, 89
1, 447741, Control_c, 0, 64, 89
1, 447756, Control_c, 0, 64, 88
1, 447771, Note_on_c, 0, 76, 57
1, 447771, Control_c, 0, 64, 86
1, 447786, Control_c, 0, 64, 82
1, 447786, Control_c, 0, 67, 99
1, 447797, Note_on_c, 0, 69, 32
1, 447798, Note_on_c, 0, 73, 32
1, 447800, Control_c, 0, 64, 75
1, 447815, Control_c, 0, 64, 67
1, 447815, Control_c, 0, 67, 101
1, 447830, Control_c, 0, 64, 56
1, 447845, Control_c, 0, 64, 42
1, 447860, Control_c, 0, 64, 35
1, 447860, Control_c, 0, 67, 104
1, 447875, Control_c, 0, 64, 39
1, 447890, Control_c, 0, 64, 50
1, 447890, Control_c, 0, 67, 106
1, 447905, Control_c, 0, 64, 58
1, 447920, Control_c, 0, 64, 64
1, 447920, Control_c, 0, 67, 108
1, 447935, Control_c, 0, 64, 71
1, 447949, Control_c, 0, 64, 77
1, 447953, Note_off_c, 0, 76, 59
1, 447971, Control_c, 0, 64, 81
1, 447971, Control_c, 0, 67, 110
1, 447986, Control_c, 0, 64, 84
1, 447986, Control_c, 0, 67, 112
1, 448002, Control_c, 0, 64, 88
1, 448002, Control_c, 0, 67, 114
1, 448017, Control_c, 0, 64, 93
1, 448017, Control_c, 0, 67, 119
1, 448032, Control_c, 0, 64, 96
1, 448032, Control_c, 0, 67, 125
1, 448047, Control_c, 0, 64, 98
1, 448047, Control_c, 0, 67, 127
1, 448063, Note_off_c, 0, 69, 51
1, 448077, Control_c, 0, 64, 102
1, 448100, Note_on_c, 0, 76, 56
1, 448106, Control_c, 0, 64, 104
1, 448140, Note_off_c, 0, 76, 61
1, 448142, Note_off_c, 0, 73, 57
1, 448151, Control_c, 0, 64, 107
1, 448403, Control_c, 0, 64, 104
1, 448412, Note_on_c, 0, 88, 63
1, 448417, Control_c, 0, 64, 91
1, 448429, Note_on_c, 0, 74, 47
1, 448432, Control_c, 0, 64, 78
1, 448435, Note_on_c, 0, 64, 46
1, 448435, Note_on_c, 0, 76, 45
1, 448447, Control_c, 0, 64, 66
1, 448462, Control_c, 0, 64, 58
1, 448477, Control_c, 0, 64, 59
1, 448491, Control_c, 0, 64, 63
1, 448506, Control_c, 0, 64, 67
1, 448521, Note_off_c, 0, 76, 57
1, 448521, Control_c, 0, 64, 72
1, 448536, Control_c, 0, 64, 78
1, 448540, Note_on_c, 0, 78, 62
1, 448551, Control_c, 0, 64, 83
1, 448561, Note_off_c, 0, 64, 59
1, 448563, Note_off_c, 0, 74, 53
1, 448565, Control_c, 0, 64, 87
1, 448580, Control_c, 0, 64, 90
1, 448595, Control_c, 0, 64, 92
1, 448604, Note_off_c, 0, 88, 54
1, 448610, Control_c, 0, 64, 94
1, 448617, Note_off_c, 0, 78, 60
1, 448617, Note_on_c, 0, 80, 64
1, 448624, Control_c, 0, 64, 95
1, 448644, Note_off_c, 0, 80, 68
1, 448654, Control_c, 0, 64, 97
1, 448698, Control_c, 0, 64, 92
1, 448721, Control_c, 0, 64, 78
1, 448723, Note_on_c, 0, 88, 70
1, 448736, Control_c, 0, 64, 63
1, 448742, Note_on_c, 0, 74, 50
1, 448745, Note_on_c, 0, 80, 65
1, 448751, Control_c, 0, 64, 47
1, 448751, Note_on_c, 0, 64, 51
1, 448766, Control_c, 0, 64, 41
1, 448780, Control_c, 0, 64, 47
1, 448796, Control_c, 0, 64, 57
1, 448804, Note_off_c, 0, 88, 61
1, 448806, Note_off_c, 0, 80, 61
1, 448811, Control_c, 0, 64, 63
1, 448812, Note_off_c, 0, 64, 59
1, 448826, Note_on_c, 0, 81, 67
1, 448826, Control_c, 0, 64, 69
1, 448829, Note_off_c, 0, 74, 54
1, 448841, Control_c, 0, 64, 77
1, 448855, Control_c, 0, 64, 82
1, 448870, Control_c, 0, 64, 84
1, 448885, Control_c, 0, 64, 86
1, 448887, Note_off_c, 0, 81, 59
1, 448900, Control_c, 0, 64, 88
1, 448915, Control_c, 0, 64, 89
1, 448927, Note_on_c, 0, 83, 62
1, 449018, Control_c, 0, 64, 89
1, 449047, Control_c, 0, 64, 88
1, 449062, Control_c, 0, 64, 86
1, 449077, Control_c, 0, 64, 84
1, 449081, Note_off_c, 0, 83, 49
1, 449092, Control_c, 0, 64, 81
1, 449107, Control_c, 0, 64, 76
1, 449121, Note_on_c, 0, 88, 58
1, 449121, Control_c, 0, 64, 69
1, 449125, Note_on_c, 0, 81, 43
1, 449136, Control_c, 0, 64, 59
1, 449143, Note_on_c, 0, 69, 38
1, 449151, Control_c, 0, 64, 40
1, 449152, Note_on_c, 0, 73, 36
1, 449166, Control_c, 0, 64, 0
1, 449225, Control_c, 0, 64, 35
1, 449240, Control_c, 0, 64, 53
1, 449254, Note_off_c, 0, 73, 63
1, 449255, Control_c, 0, 64, 63
1, 449258, Note_off_c, 0, 69, 62
1, 449270, Control_c, 0, 64, 68
1, 449285, Control_c, 0, 64, 72
1, 449300, Control_c, 0, 64, 74
1, 449314, Control_c, 0, 64, 77
1, 449315, Note_off_c, 0, 88, 62
1, 449329, Control_c, 0, 64, 80
1, 449332, Note_off_c, 0, 81, 58
1, 449344, Control_c, 0, 64, 83
1, 449359, Control_c, 0, 64, 84
1, 449374, Control_c, 0, 64, 85
1, 449403, Control_c, 0, 64, 85
1, 449522, Note_on_c, 0, 57, 58
1, 449668, Note_off_c, 0, 57, 60
1, 449723, Control_c, 0, 64, 85
1, 449782, Control_c, 0, 64, 84
1, 449797, Control_c, 0, 64, 84
1, 449812, Control_c, 0, 64, 83
1, 449826, Control_c, 0, 64, 83
1, 449841, Control_c, 0, 64, 82
1, 449856, Control_c, 0, 64, 81
1, 449863, Note_on_c, 0, 62, 55
1, 449869, Note_on_c, 0, 58, 63
1, 449870, Control_c, 0, 64, 79
1, 449885, Control_c, 0, 64, 75
1, 449900, Control_c, 0, 64, 65
1, 449915, Control_c, 0, 64, 51
1, 449930, Control_c, 0, 64, 30
1, 449944, Control_c, 0, 64, 0
1, 449974, Control_c, 0, 64, 37
1, 449989, Control_c, 0, 64, 51
1, 450004, Control_c, 0, 64, 63
1, 450018, Control_c, 0, 64, 68
1, 450033, Control_c, 0, 64, 71
1, 450048, Control_c, 0, 64, 73
1, 450060, Note_off_c, 0, 62, 62
1, 450063, Control_c, 0, 64, 75
1, 450078, Control_c, 0, 64, 78
1, 450093, Control_c, 0, 64, 81
1, 450108, Control_c, 0, 64, 84
1, 450123, Control_c, 0, 64, 85
1, 450152, Control_c, 0, 64, 84
1, 450167, Control_c, 0, 64, 81
1, 450181, Control_c, 0, 64, 75
1, 450196, Control_c, 0, 64, 70
1, 450218, Control_c, 0, 64, 68
1, 450227, Note_on_c, 0, 62, 47
1, 450233, Control_c, 0, 64, 68
1, 450248, Control_c, 0, 64, 69
1, 450263, Control_c, 0, 64, 71
1, 450278, Control_c, 0, 64, 73
1, 450292, Control_c, 0, 64, 74
1, 450307, Control_c, 0, 64, 75
1, 450322, Control_c, 0, 64, 75
1, 450337, Note_off_c, 0, 58, 58
1, 450340, Note_off_c, 0, 62, 57
1, 450516, Control_c, 0, 64, 75
1, 450531, Control_c, 0, 64, 74
1, 450546, Control_c, 0, 64, 72
1, 450557, Note_on_c, 0, 64, 51
1, 450561, Control_c, 0, 64, 68
1, 450562, Note_on_c, 0, 57, 48
1, 450565, Note_on_c, 0, 61, 40
1, 450575, Control_c, 0, 64, 61
1, 450590, Control_c, 0, 64, 49
1, 450605, Control_c, 0, 64, 35
1, 450620, Control_c, 0, 64, 30
1, 450635, Control_c, 0, 64, 36
1, 450649, Control_c, 0, 64, 44
1, 450664, Control_c, 0, 64, 53
1, 450679, Control_c, 0, 64, 60
1, 450693, Control_c, 0, 64, 65
1, 450708, Control_c, 0, 64, 68
1, 450723, Control_c, 0, 64, 70
1, 450738, Control_c, 0, 64, 71
1, 450740, Note_off_c, 0, 64, 57
1, 450753, Control_c, 0, 64, 73
1, 450767, Control_c, 0, 64, 77
1, 450782, Control_c, 0, 64, 79
1, 450797, Control_c, 0, 64, 80
1, 450811, Control_c, 0, 64, 78
1, 450826, Control_c, 0, 64, 71
1, 450841, Control_c, 0, 64, 62
1, 450856, Control_c, 0, 64, 52
1, 450871, Control_c, 0, 64, 49
1, 450883, Note_on_c, 0, 64, 47
1, 450886, Control_c, 0, 64, 51
1, 450901, Control_c, 0, 64, 56
1, 450915, Control_c, 0, 64, 61
1, 450930, Control_c, 0, 64, 66
1, 450945, Control_c, 0, 64, 72
1, 450956, Note_off_c, 0, 57, 62
1, 450967, Note_off_c, 0, 64, 63
1, 450967, Control_c, 0, 64, 77
1, 450982, Control_c, 0, 64, 79
1, 450997, Control_c, 0, 64, 81
1, 451012, Control_c, 0, 64, 85
1, 451022, Note_off_c, 0, 61, 62
1, 451026, Control_c, 0, 64, 89
1, 451042, Control_c, 0, 64, 91
1, 451057, Control_c, 0, 64, 92
1, 451072, Control_c, 0, 64, 92
1, 451146, Control_c, 0, 64, 92
1, 451175, Control_c, 0, 64, 90
1, 451191, Control_c, 0, 64, 84
1, 451206, Control_c, 0, 64, 76
1, 451208, Note_on_c, 0, 76, 57
1, 451221, Control_c, 0, 64, 66
1, 451230, Note_on_c, 0, 64, 39
1, 451233, Note_on_c, 0, 62, 36
1, 451236, Control_c, 0, 64, 55
1, 451240, Note_on_c, 0, 52, 37
1, 451250, Control_c, 0, 64, 50
1, 451265, Control_c, 0, 64, 52
1, 451280, Control_c, 0, 64, 58
1, 451295, Control_c, 0, 64, 62
1, 451303, Note_off_c, 0, 64, 57
1, 451310, Control_c, 0, 64, 67
1, 451324, Control_c, 0, 64, 74
1, 451327, Note_on_c, 0, 66, 59
1, 451339, Control_c, 0, 64, 79
1, 451354, Control_c, 0, 64, 81
1, 451369, Control_c, 0, 64, 84
1, 451373, Note_off_c, 0, 62, 37
1, 451376, Note_off_c, 0, 52, 35
1, 451384, Control_c, 0, 64, 86
1, 451386, Note_off_c, 0, 76, 49
1, 451399, Control_c, 0, 64, 88
1, 451403, Note_off_c, 0, 66, 63
1, 451413, Note_on_c, 0, 68, 57
1, 451414, Control_c, 0, 64, 89
1, 451429, Control_c, 0, 64, 90
1, 451443, Note_off_c, 0, 68, 66
1, 451473, Control_c, 0, 64, 89
1, 451488, Control_c, 0, 64, 83
1, 451503, Control_c, 0, 64, 71
1, 451509, Note_on_c, 0, 76, 65
1, 451518, Control_c, 0, 64, 59
1, 451521, Note_on_c, 0, 62, 47
1, 451524, Note_on_c, 0, 68, 62
1, 451527, Note_on_c, 0, 52, 42
1, 451532, Control_c, 0, 64, 42
1, 451547, Control_c, 0, 64, 33
1, 451562, Control_c, 0, 64, 38
1, 451577, Control_c, 0, 64, 51
1, 451578, Note_off_c, 0, 68, 58
1, 451584, Note_off_c, 0, 76, 63
1, 451592, Control_c, 0, 64, 60
1, 451607, Control_c, 0, 64, 66
1, 451610, Note_on_c, 0, 69, 69
1, 451622, Control_c, 0, 64, 71
1, 451622, Note_off_c, 0, 52, 58
1, 451631, Note_off_c, 0, 62, 53
1, 451636, Control_c, 0, 64, 74
1, 451651, Control_c, 0, 64, 76
1, 451664, Note_off_c, 0, 69, 58
1, 451666, Control_c, 0, 64, 77
1, 451696, Control_c, 0, 64, 77
1, 451716, Note_on_c, 0, 71, 67
1, 451762, Control_c, 0, 64, 77
1, 451777, Control_c, 0, 64, 76
1, 451791, Control_c, 0, 64, 74
1, 451806, Control_c, 0, 64, 69
1, 451821, Control_c, 0, 64, 62
1, 451836, Control_c, 0, 64, 48
1, 451840, Note_off_c, 0, 71, 60
1, 451847, Note_on_c, 0, 76, 68
1, 451850, Control_c, 0, 64, 0
1, 451859, Note_on_c, 0, 69, 56
1, 451868, Note_on_c, 0, 57, 41
1, 451884, Note_on_c, 0, 61, 40
1, 451939, Control_c, 0, 64, 36
1, 451954, Control_c, 0, 64, 54
1, 451968, Control_c, 0, 64, 62
1, 451981, Note_off_c, 0, 61, 53
1, 451985, Control_c, 0, 64, 64
1, 451986, Note_off_c, 0, 57, 57
1, 452000, Control_c, 0, 64, 66
1, 452014, Control_c, 0, 64, 68
1, 452029, Control_c, 0, 64, 71
1, 452044, Control_c, 0, 64, 74
1, 452058, Control_c, 0, 64, 77
1, 452073, Control_c, 0, 64, 79
1, 452088, Control_c, 0, 64, 79
1, 452118, Control_c, 0, 64, 77
1, 452133, Control_c, 0, 64, 69
1, 452147, Control_c, 0, 64, 53
1, 452162, Control_c, 0, 64, 0
1, 452174, Note_on_c, 0, 61, 57
1, 452182, Note_on_c, 0, 57, 52
1, 452221, Control_c, 0, 64, 42
1, 452236, Control_c, 0, 64, 58
1, 452251, Control_c, 0, 64, 67
1, 452266, Control_c, 0, 64, 72
1, 452272, Note_off_c, 0, 69, 62
1, 452281, Control_c, 0, 64, 76
1, 452285, Note_off_c, 0, 57, 58
1, 452289, Note_off_c, 0, 61, 58
1, 452296, Control_c, 0, 64, 79
1, 452311, Control_c, 0, 64, 82
1, 452325, Control_c, 0, 64, 84
1, 452340, Control_c, 0, 64, 85
1, 452347, Note_off_c, 0, 76, 37
1, 452429, Control_c, 0, 64, 84
1, 452444, Control_c, 0, 64, 81
1, 452466, Control_c, 0, 64, 76
1, 452480, Control_c, 0, 64, 69
1, 452495, Control_c, 0, 64, 62
1, 452499, Note_on_c, 0, 76, 67
1, 452509, Note_on_c, 0, 62, 57
1, 452510, Control_c, 0, 64, 52
1, 452518, Note_on_c, 0, 57, 54
1, 452520, Note_on_c, 0, 64, 53
1, 452525, Control_c, 0, 64, 40
1, 452540, Control_c, 0, 64, 28
1, 452555, Control_c, 0, 64, 0
1, 452612, Note_off_c, 0, 64, 59
1, 452616, Note_on_c, 0, 66, 69
1, 452688, Note_off_c, 0, 76, 58
1, 452700, Note_off_c, 0, 66, 64
1, 452709, Note_on_c, 0, 68, 61
1, 452737, Note_off_c, 0, 68, 67
1, 452807, Note_on_c, 0, 76, 64
1, 452820, Note_on_c, 0, 68, 65
1, 452882, Note_off_c, 0, 68, 60
1, 452892, Note_off_c, 0, 76, 59
1, 452911, Note_on_c, 0, 69, 67
1, 452971, Note_off_c, 0, 69, 51
1, 452981, Note_off_c, 0, 57, 55
1, 453007, Note_off_c, 0, 62, 54
1, 453007, Note_on_c, 0, 71, 61
1, 453127, Note_off_c, 0, 71, 56
1, 453145, Note_on_c, 0, 76, 55
1, 453146, Note_on_c, 0, 69, 48
1, 453158, Note_on_c, 0, 57, 33
1, 453166, Note_on_c, 0, 61, 36
1, 453274, Control_c, 0, 64, 28
1, 453288, Note_off_c, 0, 61, 51
1, 453288, Control_c, 0, 64, 37
1, 453300, Note_off_c, 0, 57, 46
1, 453303, Control_c, 0, 64, 46
1, 453318, Control_c, 0, 64, 52
1, 453333, Control_c, 0, 64, 56
1, 453348, Control_c, 0, 64, 57
1, 453407, Control_c, 0, 64, 57
1, 453422, Control_c, 0, 64, 55
1, 453452, Control_c, 0, 64, 56
1, 453467, Control_c, 0, 64, 57
1, 453482, Control_c, 0, 64, 60
1, 453491, Note_on_c, 0, 61, 33
1, 453496, Control_c, 0, 64, 62
1, 453499, Note_on_c, 0, 57, 31
1, 453511, Control_c, 0, 64, 64
1, 453526, Control_c, 0, 64, 66
1, 453541, Control_c, 0, 64, 69
1, 453556, Control_c, 0, 64, 70
1, 453570, Control_c, 0, 64, 72
1, 453586, Control_c, 0, 64, 73
1, 453601, Control_c, 0, 64, 74
1, 453604, Note_off_c, 0, 69, 61
1, 453616, Control_c, 0, 64, 74
1, 453618, Note_off_c, 0, 76, 57
1, 453642, Note_off_c, 0, 57, 36
1, 453649, Note_off_c, 0, 61, 34
1, 453660, Control_c, 0, 64, 75
1, 453837, Note_on_c, 0, 76, 50
1, 453848, Note_on_c, 0, 64, 42
1, 453857, Note_on_c, 0, 57, 30
1, 453858, Note_on_c, 0, 62, 35
1, 453911, Control_c, 0, 64, 74
1, 453944, Note_off_c, 0, 64, 52
1, 453964, Control_c, 0, 64, 74
1, 453975, Note_on_c, 0, 66, 58
1, 453979, Control_c, 0, 64, 73
1, 453993, Control_c, 0, 64, 72
1, 454008, Control_c, 0, 64, 72
1, 454023, Control_c, 0, 64, 70
1, 454037, Control_c, 0, 64, 69
1, 454047, Note_off_c, 0, 66, 63
1, 454052, Control_c, 0, 64, 67
1, 454060, Note_off_c, 0, 76, 45
1, 454062, Note_on_c, 0, 68, 54
1, 454067, Control_c, 0, 64, 65
1, 454082, Control_c, 0, 64, 61
1, 454096, Note_off_c, 0, 68, 65
1, 454097, Control_c, 0, 64, 54
1, 454111, Control_c, 0, 64, 46
1, 454126, Control_c, 0, 64, 32
1, 454141, Control_c, 0, 64, 0
1, 454180, Note_on_c, 0, 76, 53
1, 454183, Note_on_c, 0, 68, 49
1, 454228, Note_off_c, 0, 68, 63
1, 454278, Note_on_c, 0, 69, 49
1, 454335, Note_off_c, 0, 57, 42
1, 454357, Note_off_c, 0, 69, 35
1, 454368, Note_off_c, 0, 62, 44
1, 454406, Note_on_c, 0, 71, 45
1, 454469, Note_off_c, 0, 71, 49
1, 454496, Note_off_c, 0, 76, 35
1, 455757, Control_c, 0, 64, 33
1, 455772, Control_c, 0, 64, 43
1, 455787, Control_c, 0, 64, 52
1, 455801, Control_c, 0, 64, 57
1, 455816, Control_c, 0, 64, 60
1, 455831, Control_c, 0, 64, 61
1, 455846, Control_c, 0, 64, 63
1, 455861, Control_c, 0, 64, 64
1, 455876, Control_c, 0, 64, 66
1, 455891, Control_c, 0, 64, 68
1, 455905, Control_c, 0, 64, 70
1, 455920, Control_c, 0, 64, 73
1, 455935, Control_c, 0, 64, 75
1, 455950, Control_c, 0, 64, 79
1, 455965, Control_c, 0, 64, 82
1, 455980, Control_c, 0, 64, 86
1, 455995, Control_c, 0, 64, 89
1, 456010, Control_c, 0, 64, 93
1, 456025, Control_c, 0, 64, 96
1, 456040, Control_c, 0, 64, 98
1, 456055, Control_c, 0, 64, 100
1, 456084, Control_c, 0, 64, 103
1, 456114, Control_c, 0, 64, 105
1, 456129, Control_c, 0, 64, 107
1, 456159, Control_c, 0, 64, 111
1, 456174, Control_c, 0, 64, 114
1, 456188, Control_c, 0, 64, 117
1, 456210, Control_c, 0, 64, 126
1, 456615, Note_on_c, 0, 81, 53
1, 456626, Note_on_c, 0, 73, 45
1, 456635, Note_on_c, 0, 69, 39
1, 456661, Note_on_c, 0, 57, 33
1, 456671, Note_on_c, 0, 61, 26
1, 456755, Note_off_c, 0, 57, 61
1, 456795, Note_off_c, 0, 61, 35
1, 456922, Control_c, 0, 64, 123
1, 456958, Control_c, 0, 64, 121
1, 457017, Control_c, 0, 64, 118
1, 457107, Control_c, 0, 64, 116
1, 457153, Note_on_c, 0, 45, 34
1, 457180, Control_c, 0, 64, 114
1, 457254, Control_c, 0, 64, 112
1, 457299, Control_c, 0, 64, 110
1, 457343, Control_c, 0, 64, 108
1, 457349, Note_off_c, 0, 45, 39
1, 457387, Control_c, 0, 64, 106
1, 457432, Control_c, 0, 64, 103
1, 457462, Control_c, 0, 64, 101
1, 457491, Control_c, 0, 64, 99
1, 457521, Control_c, 0, 64, 97
1, 457551, Control_c, 0, 64, 95
1, 457566, Control_c, 0, 64, 94
1, 457581, Control_c, 0, 64, 92
1, 457596, Control_c, 0, 64, 91
1, 457611, Control_c, 0, 64, 88
1, 457625, Control_c, 0, 64, 86
1, 457640, Control_c, 0, 64, 84
1, 457655, Control_c, 0, 64, 81
1, 457670, Control_c, 0, 64, 78
1, 457685, Control_c, 0, 64, 74
1, 457707, Control_c, 0, 64, 70
1, 457722, Control_c, 0, 64, 65
1, 457737, Control_c, 0, 64, 61
1, 457752, Control_c, 0, 64, 55
1, 457766, Control_c, 0, 64, 46
1, 457781, Control_c, 0, 64, 30
1, 457796, Control_c, 0, 64, 0
1, 457974, Control_c, 0, 64, 36
1, 457989, Control_c, 0, 64, 48
1, 458003, Control_c, 0, 64, 56
1, 458018, Control_c, 0, 64, 59
1, 458033, Control_c, 0, 64, 60
1, 458048, Control_c, 0, 64, 62
1, 458063, Control_c, 0, 64, 64
1, 458077, Control_c, 0, 64, 67
1, 458092, Control_c, 0, 64, 69
1, 458107, Control_c, 0, 64, 71
1, 458122, Control_c, 0, 64, 73
1, 458137, Control_c, 0, 64, 75
1, 458151, Control_c, 0, 64, 77
1, 458166, Control_c, 0, 64, 80
1, 458181, Control_c, 0, 64, 82
1, 458196, Control_c, 0, 64, 83
1, 458198, Note_on_c, 0, 61, 64
1, 458204, Note_on_c, 0, 57, 60
1, 458210, Control_c, 0, 64, 83
1, 458225, Control_c, 0, 64, 84
1, 458237, Note_off_c, 0, 73, 59
1, 458248, Note_off_c, 0, 57, 60
1, 458255, Note_off_c, 0, 61, 56
1, 458264, Note_off_c, 0, 81, 56
1, 458281, Note_off_c, 0, 69, 34
1, 458329, Control_c, 0, 64, 83
1, 458344, Control_c, 0, 64, 82
1, 458359, Control_c, 0, 64, 79
1, 458374, Control_c, 0, 64, 74
1, 458383, Note_on_c, 0, 81, 65
1, 458389, Control_c, 0, 64, 67
1, 458391, Note_on_c, 0, 74, 60
1, 458392, Note_on_c, 0, 71, 60
1, 458397, Note_on_c, 0, 62, 58
1, 458397, Note_on_c, 0, 69, 60
1, 458404, Note_on_c, 0, 59, 56
1, 458404, Control_c, 0, 64, 58
1, 458419, Control_c, 0, 64, 37
1, 458433, Control_c, 0, 64, 0
1, 458530, Control_c, 0, 64, 44
1, 458545, Control_c, 0, 64, 59
1, 458560, Control_c, 0, 64, 65
1, 458575, Control_c, 0, 64, 68
1, 458583, Note_off_c, 0, 59, 64
1, 458589, Control_c, 0, 64, 71
1, 458603, Note_off_c, 0, 62, 62
1, 458604, Control_c, 0, 64, 74
1, 458619, Control_c, 0, 64, 78
1, 458633, Control_c, 0, 64, 81
1, 458648, Control_c, 0, 64, 83
1, 458663, Control_c, 0, 64, 83
1, 458708, Control_c, 0, 64, 84
1, 458737, Control_c, 0, 64, 83
1, 458752, Control_c, 0, 64, 83
1, 458767, Control_c, 0, 64, 77
1, 458782, Control_c, 0, 64, 65
1, 458797, Control_c, 0, 64, 53
1, 458812, Control_c, 0, 64, 49
1, 458826, Control_c, 0, 64, 51
1, 458830, Note_on_c, 0, 45, 48
1, 458841, Control_c, 0, 64, 55
1, 458856, Control_c, 0, 64, 59
1, 458871, Control_c, 0, 64, 62
1, 458886, Control_c, 0, 64, 66
1, 458900, Control_c, 0, 64, 70
1, 458915, Control_c, 0, 64, 74
1, 458930, Control_c, 0, 64, 77
1, 458945, Control_c, 0, 64, 78
1, 458959, Control_c, 0, 64, 80
1, 458974, Control_c, 0, 64, 81
1, 458989, Control_c, 0, 64, 82
1, 459004, Control_c, 0, 64, 83
1, 459016, Note_off_c, 0, 45, 59
1, 459019, Control_c, 0, 64, 83
1, 459107, Control_c, 0, 67, 121
1, 459122, Control_c, 0, 67, 108
1, 459137, Control_c, 0, 67, 101
1, 459152, Control_c, 0, 67, 96
1, 459167, Control_c, 0, 67, 92
1, 459183, Control_c, 0, 64, 83
1, 459183, Control_c, 0, 67, 91
1, 459205, Control_c, 0, 67, 90
1, 459220, Control_c, 0, 67, 88
1, 459235, Control_c, 0, 64, 82
1, 459235, Control_c, 0, 67, 86
1, 459250, Control_c, 0, 64, 82
1, 459250, Control_c, 0, 67, 78
1, 459264, Control_c, 0, 64, 81
1, 459264, Control_c, 0, 67, 67
1, 459279, Control_c, 0, 64, 80
1, 459279, Control_c, 0, 67, 60
1, 459294, Control_c, 0, 64, 79
1, 459294, Control_c, 0, 67, 56
1, 459309, Control_c, 0, 64, 79
1, 459309, Control_c, 0, 67, 50
1, 459324, Control_c, 0, 64, 78
1, 459324, Control_c, 0, 67, 42
1, 459338, Control_c, 0, 64, 77
1, 459338, Control_c, 0, 67, 36
1, 459353, Control_c, 0, 64, 75
1, 459353, Control_c, 0, 67, 0
1, 459368, Control_c, 0, 64, 74
1, 459382, Control_c, 0, 64, 73
1, 459397, Control_c, 0, 64, 71
1, 459412, Control_c, 0, 64, 69
1, 459427, Control_c, 0, 64, 66
1, 459442, Control_c, 0, 64, 64
1, 459456, Control_c, 0, 64, 62
1, 459471, Control_c, 0, 64, 60
1, 459486, Control_c, 0, 64, 58
1, 459501, Control_c, 0, 64, 53
1, 459516, Control_c, 0, 64, 47
1, 459530, Control_c, 0, 64, 38
1, 459545, Control_c, 0, 64, 0
1, 459664, Control_c, 0, 64, 32
1, 459679, Control_c, 0, 64, 46
1, 459694, Control_c, 0, 64, 58
1, 459709, Control_c, 0, 64, 63
1, 459723, Control_c, 0, 64, 65
1, 459738, Control_c, 0, 64, 68
1, 459753, Control_c, 0, 64, 70
1, 459761, Note_off_c, 0, 71, 59
1, 459768, Note_off_c, 0, 74, 61
1, 459768, Control_c, 0, 64, 74
1, 459782, Control_c, 0, 64, 78
1, 459797, Control_c, 0, 64, 82
1, 459812, Control_c, 0, 64, 85
1, 459827, Control_c, 0, 64, 88
1, 459842, Control_c, 0, 64, 91
1, 459855, Note_on_c, 0, 62, 58
1, 459856, Control_c, 0, 64, 94
1, 459857, Note_on_c, 0, 59, 60
1, 459871, Control_c, 0, 64, 96
1, 459891, Note_off_c, 0, 81, 55
1, 459901, Control_c, 0, 64, 98
1, 459909, Note_off_c, 0, 69, 27
1, 459930, Note_off_c, 0, 59, 61
1, 459930, Note_off_c, 0, 62, 60
1, 460060, Note_on_c, 0, 76, 61
1, 460061, Note_on_c, 0, 81, 57
1, 460067, Note_on_c, 0, 73, 61
1, 460074, Note_on_c, 0, 69, 50
1, 460087, Control_c, 0, 64, 96
1, 460088, Note_on_c, 0, 64, 61
1, 460094, Note_on_c, 0, 61, 59
1, 460102, Control_c, 0, 64, 84
1, 460117, Control_c, 0, 64, 64
1, 460132, Control_c, 0, 64, 31
1, 460147, Control_c, 0, 64, 0
1, 460195, Note_off_c, 0, 61, 65
1, 460220, Control_c, 0, 64, 39
1, 460233, Note_off_c, 0, 64, 59
1, 460235, Control_c, 0, 64, 58
1, 460250, Control_c, 0, 64, 66
1, 460265, Control_c, 0, 64, 72
1, 460279, Control_c, 0, 64, 78
1, 460294, Control_c, 0, 64, 85
1, 460309, Control_c, 0, 64, 96
1, 460324, Control_c, 0, 64, 108
1, 460339, Control_c, 0, 64, 127
1, 460405, Note_on_c, 0, 45, 71
1, 460441, Note_off_c, 0, 45, 64
1, 460515, Note_off_c, 0, 69, 51
1, 460520, Note_off_c, 0, 73, 59
1, 460534, Note_off_c, 0, 76, 63
1, 460547, Note_off_c, 0, 81, 56
1, 460717, Control_c, 0, 64, 112
1, 460731, Control_c, 0, 64, 84
1, 460734, Note_on_c, 0, 81, 73
1, 460735, Note_on_c, 0, 78, 69
1, 460742, Note_on_c, 0, 74, 66
1, 460746, Note_on_c, 0, 66, 66
1, 460746, Control_c, 0, 64, 65
1, 460752, Note_on_c, 0, 69, 62
1, 460752, Note_on_c, 0, 62, 59
1, 460761, Control_c, 0, 64, 48
1, 460777, Control_c, 0, 64, 37
1, 460792, Control_c, 0, 64, 40
1, 460807, Control_c, 0, 64, 53
1, 460822, Control_c, 0, 64, 64
1, 460836, Control_c, 0, 64, 72
1, 460851, Control_c, 0, 64, 83
1, 460857, Note_off_c, 0, 62, 63
1, 460862, Note_off_c, 0, 66, 64
1, 460866, Control_c, 0, 64, 93
1, 460881, Control_c, 0, 64, 101
1, 460896, Control_c, 0, 64, 109
1, 460910, Control_c, 0, 64, 123
1, 460925, Control_c, 0, 64, 127
1, 461044, Control_c, 0, 64, 105
1, 461059, Control_c, 0, 64, 82
1, 461074, Control_c, 0, 64, 68
1, 461089, Control_c, 0, 64, 59
1, 461103, Control_c, 0, 64, 57
1, 461118, Control_c, 0, 64, 60
1, 461124, Note_on_c, 0, 45, 63
1, 461133, Control_c, 0, 64, 66
1, 461147, Control_c, 0, 64, 71
1, 461162, Control_c, 0, 64, 77
1, 461177, Control_c, 0, 64, 84
1, 461192, Control_c, 0, 64, 93
1, 461207, Control_c, 0, 64, 105
1, 461216, Note_off_c, 0, 45, 61
1, 461221, Control_c, 0, 64, 127
1, 461222, Note_off_c, 0, 74, 63
1, 461258, Note_off_c, 0, 78, 58
1, 461293, Note_off_c, 0, 81, 60
1, 461319, Note_off_c, 0, 69, 36
1, 461496, Control_c, 0, 67, 34
1, 461510, Control_c, 0, 67, 38
1, 461525, Control_c, 0, 67, 42
1, 461540, Control_c, 0, 67, 43
1, 461545, Note_on_c, 0, 79, 53
1, 461554, Control_c, 0, 64, 108
1, 461554, Control_c, 0, 67, 44
1, 461555, Note_on_c, 0, 81, 63
1, 461561, Note_on_c, 0, 74, 58
1, 461566, Note_on_c, 0, 69, 51
1, 461569, Control_c, 0, 64, 94
1, 461569, Control_c, 0, 67, 45
1, 461585, Note_on_c, 0, 67, 60
1, 461585, Control_c, 0, 64, 81
1, 461585, Control_c, 0, 67, 45
1, 461600, Control_c, 0, 64, 69
1, 461600, Control_c, 0, 67, 46
1, 461613, Note_on_c, 0, 64, 41
1, 461615, Control_c, 0, 64, 58
1, 461615, Control_c, 0, 67, 48
1, 461630, Control_c, 0, 64, 44
1, 461630, Control_c, 0, 67, 54
1, 461645, Control_c, 0, 64, 35
1, 461645, Control_c, 0, 67, 63
1, 461659, Control_c, 0, 64, 40
1, 461659, Control_c, 0, 67, 69
1, 461674, Control_c, 0, 64, 52
1, 461674, Control_c, 0, 67, 75
1, 461689, Control_c, 0, 64, 61
1, 461689, Control_c, 0, 67, 79
1, 461704, Control_c, 0, 64, 69
1, 461704, Control_c, 0, 67, 83
1, 461719, Control_c, 0, 64, 78
1, 461719, Control_c, 0, 67, 86
1, 461725, Note_off_c, 0, 64, 62
1, 461733, Control_c, 0, 64, 90
1, 461733, Control_c, 0, 67, 93
1, 461748, Control_c, 0, 64, 97
1, 461748, Control_c, 0, 67, 104
1, 461763, Control_c, 0, 64, 104
1, 461763, Control_c, 0, 67, 116
1, 461778, Note_off_c, 0, 67, 62
1, 461778, Control_c, 0, 64, 113
1, 461778, Control_c, 0, 67, 125
1, 461780, Note_off_c, 0, 74, 61
1, 461793, Control_c, 0, 64, 127
1, 461793, Control_c, 0, 67, 127
1, 461970, Control_c, 0, 64, 123
1, 461985, Control_c, 0, 64, 117
1, 462000, Control_c, 0, 64, 114
1, 462001, Note_on_c, 0, 73, 65
1, 462015, Control_c, 0, 64, 111
1, 462030, Control_c, 0, 64, 108
1, 462041, Note_on_c, 0, 45, 45
1, 462044, Control_c, 0, 64, 106
1, 462074, Control_c, 0, 64, 103
1, 462104, Control_c, 0, 64, 100
1, 462118, Control_c, 0, 64, 98
1, 462140, Note_off_c, 0, 45, 56
1, 462148, Control_c, 0, 64, 94
1, 462163, Control_c, 0, 64, 93
1, 462174, Note_on_c, 0, 71, 65
1, 462177, Control_c, 0, 64, 91
1, 462200, Control_c, 0, 64, 89
1, 462209, Note_off_c, 0, 73, 59
1, 462215, Control_c, 0, 64, 88
1, 462230, Control_c, 0, 64, 86
1, 462245, Control_c, 0, 64, 85
1, 462259, Control_c, 0, 64, 83
1, 462273, Control_c, 0, 64, 82
1, 462288, Control_c, 0, 64, 81
1, 462302, Control_c, 0, 64, 79
1, 462317, Control_c, 0, 64, 78
1, 462332, Control_c, 0, 64, 77
1, 462347, Control_c, 0, 64, 76
1, 462362, Control_c, 0, 64, 75
1, 462378, Control_c, 0, 64, 74
1, 462393, Control_c, 0, 64, 73
1, 462407, Control_c, 0, 64, 72
1, 462422, Control_c, 0, 64, 70
1, 462437, Control_c, 0, 64, 68
1, 462452, Control_c, 0, 64, 66
1, 462467, Control_c, 0, 64, 65
1, 462481, Control_c, 0, 64, 64
1, 462485, Note_on_c, 0, 73, 49
1, 462496, Control_c, 0, 64, 64
1, 462511, Control_c, 0, 64, 63
1, 462526, Control_c, 0, 64, 63
1, 462541, Control_c, 0, 64, 62
1, 462556, Control_c, 0, 64, 61
1, 462556, Note_off_c, 0, 71, 37
1, 462571, Control_c, 0, 64, 60
1, 462586, Control_c, 0, 64, 59
1, 462600, Control_c, 0, 64, 58
1, 462615, Control_c, 0, 64, 57
1, 462630, Control_c, 0, 64, 56
1, 462645, Control_c, 0, 64, 53
1, 462660, Control_c, 0, 64, 50
1, 462674, Control_c, 0, 64, 46
1, 462689, Control_c, 0, 64, 42
1, 462704, Control_c, 0, 64, 38
1, 462719, Control_c, 0, 64, 31
1, 462734, Control_c, 0, 64, 0
1, 462852, Control_c, 0, 64, 41
1, 462866, Control_c, 0, 64, 53
1, 462881, Control_c, 0, 64, 60
1, 462896, Control_c, 0, 64, 63
1, 462905, Note_off_c, 0, 79, 46
1, 462908, Note_off_c, 0, 81, 52
1, 462911, Control_c, 0, 64, 64
1, 462925, Control_c, 0, 64, 66
1, 462948, Control_c, 0, 64, 69
1, 462963, Control_c, 0, 64, 72
1, 462978, Control_c, 0, 64, 75
1, 462993, Control_c, 0, 64, 77
1, 463007, Control_c, 0, 64, 79
1, 463022, Control_c, 0, 64, 81
1, 463037, Control_c, 0, 64, 84
1, 463052, Control_c, 0, 64, 86
1, 463067, Control_c, 0, 64, 87
1, 463081, Control_c, 0, 64, 88
1, 463089, Note_on_c, 0, 81, 55
1, 463111, Control_c, 0, 64, 88
1, 463233, Note_off_c, 0, 73, 63
1, 463259, Note_on_c, 0, 45, 45
1, 463268, Note_off_c, 0, 69, 58
1, 463310, Note_off_c, 0, 45, 56
1, 463334, Control_c, 0, 64, 88
1, 463364, Control_c, 0, 64, 87
1, 463379, Control_c, 0, 64, 87
1, 463394, Control_c, 0, 64, 86
1, 463408, Control_c, 0, 64, 86
1, 463423, Control_c, 0, 64, 85
1, 463438, Control_c, 0, 64, 84
1, 463453, Control_c, 0, 64, 82
1, 463468, Control_c, 0, 64, 80
1, 463483, Control_c, 0, 64, 79
1, 463497, Control_c, 0, 64, 77
1, 463512, Control_c, 0, 64, 74
1, 463513, Note_on_c, 0, 78, 58
1, 463524, Note_on_c, 0, 74, 45
1, 463527, Control_c, 0, 64, 70
1, 463534, Note_on_c, 0, 69, 38
1, 463541, Control_c, 0, 64, 64
1, 463546, Note_on_c, 0, 50, 42
1, 463556, Control_c, 0, 64, 55
1, 463571, Control_c, 0, 64, 35
1, 463586, Control_c, 0, 64, 0
1, 463645, Control_c, 0, 64, 39
1, 463660, Control_c, 0, 64, 57
1, 463668, Note_off_c, 0, 81, 59
1, 463675, Control_c, 0, 64, 68
1, 463694, Note_off_c, 0, 50, 63
1, 463697, Control_c, 0, 64, 75
1, 463712, Control_c, 0, 64, 80
1, 463727, Control_c, 0, 64, 82
1, 463742, Control_c, 0, 64, 83
1, 463771, Control_c, 0, 64, 82
1, 463786, Control_c, 0, 64, 78
1, 463801, Control_c, 0, 64, 72
1, 463816, Control_c, 0, 64, 65
1, 463830, Control_c, 0, 64, 60
1, 463845, Control_c, 0, 64, 55
1, 463860, Control_c, 0, 64, 51
1, 463875, Control_c, 0, 64, 44
1, 463890, Control_c, 0, 64, 31
1, 463904, Control_c, 0, 64, 0
1, 464008, Note_on_c, 0, 62, 47
1, 464024, Control_c, 0, 64, 34
1, 464039, Control_c, 0, 64, 48
1, 464053, Control_c, 0, 64, 57
1, 464068, Control_c, 0, 64, 60
1, 464083, Control_c, 0, 64, 62
1, 464098, Control_c, 0, 64, 64
1, 464112, Control_c, 0, 64, 67
1, 464127, Control_c, 0, 64, 69
1, 464142, Control_c, 0, 64, 70
1, 464157, Control_c, 0, 64, 71
1, 464172, Control_c, 0, 64, 73
1, 464186, Control_c, 0, 64, 74
1, 464192, Note_off_c, 0, 62, 63
1, 464201, Control_c, 0, 64, 75
1, 464216, Control_c, 0, 64, 76
1, 464231, Control_c, 0, 64, 77
1, 464246, Control_c, 0, 64, 77
1, 464261, Control_c, 0, 64, 78
1, 464306, Control_c, 0, 64, 77
1, 464320, Control_c, 0, 64, 74
1, 464335, Control_c, 0, 64, 66
1, 464350, Control_c, 0, 64, 54
1, 464364, Control_c, 0, 64, 28
1, 464379, Control_c, 0, 64, 0
1, 464638, Note_on_c, 0, 59, 61
1, 464723, Note_off_c, 0, 59, 60
1, 464817, Note_on_c, 0, 57, 70
1, 464929, Note_off_c, 0, 57, 61
1, 465000, Note_on_c, 0, 55, 72
1, 465033, Note_off_c, 0, 69, 59
1, 465088, Note_off_c, 0, 78, 56
1, 465108, Note_off_c, 0, 55, 61
1, 465126, Note_off_c, 0, 74, 51
1, 465224, Note_on_c, 0, 78, 55
1, 465244, Note_on_c, 0, 76, 55
1, 465248, Note_on_c, 0, 70, 55
1, 465263, Note_on_c, 0, 54, 55
1, 465479, Note_off_c, 0, 54, 51
1, 465721, Note_on_c, 0, 42, 48
1, 466110, Note_off_c, 0, 42, 53
1, 466434, Control_c, 0, 64, 29
1, 466448, Control_c, 0, 64, 36
1, 466463, Control_c, 0, 64, 43
1, 466478, Control_c, 0, 64, 50
1, 466493, Control_c, 0, 64, 55
1, 466499, Note_on_c, 0, 79, 59
1, 466508, Control_c, 0, 64, 57
1, 466522, Control_c, 0, 64, 59
1, 466537, Control_c, 0, 64, 61
1, 466552, Control_c, 0, 64, 63
1, 466566, Control_c, 0, 64, 64
1, 466581, Control_c, 0, 64, 66
1, 466596, Control_c, 0, 64, 68
1, 466611, Control_c, 0, 64, 70
1, 466626, Control_c, 0, 64, 72
1, 466640, Control_c, 0, 64, 75
1, 466642, Note_off_c, 0, 78, 35
1, 466655, Control_c, 0, 64, 77
1, 466667, Note_on_c, 0, 42, 53
1, 466670, Control_c, 0, 64, 78
1, 466693, Control_c, 0, 64, 79
1, 466708, Control_c, 0, 64, 80
1, 466716, Note_off_c, 0, 76, 58
1, 466737, Control_c, 0, 64, 80
1, 466768, Note_off_c, 0, 79, 36
1, 466776, Note_off_c, 0, 70, 29
1, 466866, Note_off_c, 0, 42, 27
1, 466944, Control_c, 0, 64, 80
1, 466945, Note_on_c, 0, 79, 59
1, 466958, Note_on_c, 0, 76, 57
1, 466959, Control_c, 0, 64, 79
1, 466978, Note_on_c, 0, 47, 43
1, 466982, Note_on_c, 0, 71, 43
1, 466988, Control_c, 0, 64, 79
1, 467003, Control_c, 0, 64, 78
1, 467018, Control_c, 0, 64, 77
1, 467033, Control_c, 0, 64, 76
1, 467048, Control_c, 0, 64, 75
1, 467063, Control_c, 0, 64, 73
1, 467064, Note_off_c, 0, 47, 59
1, 467078, Control_c, 0, 64, 71
1, 467092, Control_c, 0, 64, 68
1, 467107, Control_c, 0, 64, 66
1, 467122, Control_c, 0, 64, 65
1, 467137, Control_c, 0, 64, 63
1, 467152, Control_c, 0, 64, 62
1, 467167, Control_c, 0, 64, 60
1, 467182, Control_c, 0, 64, 58
1, 467197, Control_c, 0, 64, 57
1, 467212, Control_c, 0, 64, 56
1, 467242, Control_c, 0, 64, 55
1, 467257, Control_c, 0, 64, 54
1, 467271, Control_c, 0, 64, 54
1, 467286, Control_c, 0, 64, 53
1, 467301, Control_c, 0, 64, 52
1, 467304, Note_on_c, 0, 78, 66
1, 467315, Control_c, 0, 64, 52
1, 467325, Note_on_c, 0, 74, 59
1, 467330, Control_c, 0, 64, 51
1, 467337, Note_on_c, 0, 59, 56
1, 467345, Control_c, 0, 64, 50
1, 467360, Control_c, 0, 64, 49
1, 467361, Note_off_c, 0, 79, 64
1, 467388, Note_off_c, 0, 76, 62
1, 467401, Note_off_c, 0, 59, 55
1, 467427, Note_off_c, 0, 71, 62
1, 467468, Note_off_c, 0, 74, 64
1, 467486, Control_c, 0, 64, 49
1, 467501, Control_c, 0, 64, 48
1, 467516, Control_c, 0, 64, 47
1, 467531, Control_c, 0, 64, 47
1, 467546, Control_c, 0, 64, 46
1, 467556, Note_on_c, 0, 47, 51
1, 467561, Control_c, 0, 64, 45
1, 467650, Note_off_c, 0, 47, 56
1, 467652, Note_on_c, 0, 76, 72
1, 467665, Note_on_c, 0, 73, 62
1, 467665, Note_on_c, 0, 50, 60
1, 467689, Note_on_c, 0, 66, 51
1, 467698, Note_off_c, 0, 78, 62
1, 467764, Note_off_c, 0, 50, 63
1, 467768, Control_c, 0, 64, 45
1, 467842, Control_c, 0, 64, 44
1, 468002, Note_on_c, 0, 74, 73
1, 468020, Note_on_c, 0, 71, 63
1, 468029, Note_on_c, 0, 62, 57
1, 468050, Note_off_c, 0, 76, 61
1, 468075, Note_off_c, 0, 73, 46
1, 468106, Note_off_c, 0, 62, 59
1, 468158, Note_off_c, 0, 71, 62
1, 468211, Note_off_c, 0, 66, 65
1, 468252, Note_on_c, 0, 50, 57
1, 468300, Note_off_c, 0, 50, 60
1, 468324, Control_c, 0, 64, 44
1, 468379, Note_on_c, 0, 73, 63
1, 468380, Note_on_c, 0, 69, 53
1, 468389, Note_on_c, 0, 64, 52
1, 468395, Note_on_c, 0, 52, 57
1, 468479, Note_off_c, 0, 74, 61
1, 468527, Note_off_c, 0, 52, 60
1, 468650, Control_c, 0, 64, 43
1, 468801, Note_on_c, 0, 40, 44
1, 469012, Note_off_c, 0, 40, 60
1, 469190, Control_c, 0, 64, 44
1, 469205, Control_c, 0, 64, 44
1, 469220, Control_c, 0, 64, 45
1, 469234, Control_c, 0, 64, 47
1, 469249, Control_c, 0, 64, 50
1, 469264, Control_c, 0, 64, 53
1, 469279, Control_c, 0, 64, 56
1, 469293, Control_c, 0, 64, 59
1, 469308, Control_c, 0, 64, 61
1, 469323, Control_c, 0, 64, 64
1, 469338, Control_c, 0, 64, 66
1, 469353, Control_c, 0, 64, 69
1, 469367, Control_c, 0, 64, 71
1, 469382, Control_c, 0, 64, 73
1, 469397, Control_c, 0, 64, 75
1, 469412, Control_c, 0, 64, 77
1, 469427, Control_c, 0, 64, 80
1, 469442, Control_c, 0, 64, 83
1, 469457, Control_c, 0, 64, 86
1, 469472, Control_c, 0, 64, 90
1, 469486, Control_c, 0, 64, 94
1, 469501, Control_c, 0, 64, 98
1, 469516, Control_c, 0, 64, 102
1, 469531, Control_c, 0, 64, 107
1, 469546, Control_c, 0, 64, 112
1, 469561, Control_c, 0, 64, 118
1, 469576, Control_c, 0, 64, 127
1, 469650, Note_off_c, 0, 69, 51
1, 469658, Note_off_c, 0, 73, 55
1, 469764, Note_off_c, 0, 64, 56
1, 469846, Note_on_c, 0, 51, 51
1, 469895, Note_off_c, 0, 51, 56
1, 469954, Control_c, 0, 64, 121
1, 469969, Control_c, 0, 64, 116
1, 469983, Control_c, 0, 64, 112
1, 469998, Control_c, 0, 64, 109
1, 470013, Control_c, 0, 64, 106
1, 470028, Control_c, 0, 64, 103
1, 470043, Control_c, 0, 64, 100
1, 470057, Control_c, 0, 64, 98
1, 470059, Note_on_c, 0, 71, 50
1, 470070, Note_on_c, 0, 69, 44
1, 470072, Control_c, 0, 64, 96
1, 470081, Note_on_c, 0, 64, 44
1, 470084, Note_on_c, 0, 62, 45
1, 470087, Control_c, 0, 64, 94
1, 470088, Note_on_c, 0, 52, 46
1, 470102, Control_c, 0, 64, 90
1, 470116, Control_c, 0, 64, 88
1, 470131, Control_c, 0, 64, 84
1, 470146, Control_c, 0, 64, 81
1, 470161, Control_c, 0, 64, 78
1, 470176, Control_c, 0, 64, 74
1, 470190, Control_c, 0, 64, 70
1, 470205, Control_c, 0, 64, 65
1, 470220, Control_c, 0, 64, 62
1, 470235, Control_c, 0, 64, 59
1, 470250, Control_c, 0, 64, 58
1, 470264, Control_c, 0, 64, 57
1, 470279, Control_c, 0, 64, 56
1, 470294, Control_c, 0, 64, 55
1, 470309, Control_c, 0, 64, 53
1, 470324, Control_c, 0, 64, 52
1, 470328, Note_off_c, 0, 52, 37
1, 470339, Control_c, 0, 64, 52
1, 470354, Control_c, 0, 64, 51
1, 470369, Control_c, 0, 64, 51
1, 470384, Control_c, 0, 64, 50
1, 470399, Control_c, 0, 64, 49
1, 470541, Note_on_c, 0, 68, 46
1, 470564, Note_on_c, 0, 40, 39
1, 470585, Control_c, 0, 64, 48
1, 470621, Note_off_c, 0, 69, 37
1, 470694, Note_off_c, 0, 40, 55
1, 470715, Note_off_c, 0, 68, 59
1, 470726, Note_on_c, 0, 66, 51
1, 470732, Control_c, 0, 64, 48
1, 470807, Control_c, 0, 64, 47
1, 470852, Control_c, 0, 64, 47
1, 470882, Control_c, 0, 64, 46
1, 470926, Control_c, 0, 64, 46
1, 470943, Note_on_c, 0, 68, 48
1, 470949, Note_off_c, 0, 66, 55
1, 470970, Control_c, 0, 64, 45
1, 471000, Control_c, 0, 64, 45
1, 471014, Control_c, 0, 64, 43
1, 471029, Control_c, 0, 64, 42
1, 471044, Control_c, 0, 64, 40
1, 471058, Control_c, 0, 64, 38
1, 471073, Control_c, 0, 64, 35
1, 471103, Control_c, 0, 64, 36
1, 471118, Control_c, 0, 64, 41
1, 471132, Control_c, 0, 64, 48
1, 471147, Control_c, 0, 64, 54
1, 471163, Control_c, 0, 64, 59
1, 471186, Control_c, 0, 64, 63
1, 471200, Control_c, 0, 64, 66
1, 471215, Control_c, 0, 64, 69
1, 471230, Control_c, 0, 64, 72
1, 471245, Control_c, 0, 64, 75
1, 471260, Control_c, 0, 64, 78
1, 471275, Control_c, 0, 64, 81
1, 471290, Control_c, 0, 64, 84
1, 471305, Control_c, 0, 64, 87
1, 471319, Control_c, 0, 64, 90
1, 471319, Control_c, 0, 67, 111
1, 471334, Control_c, 0, 64, 91
1, 471334, Control_c, 0, 67, 88
1, 471341, Note_off_c, 0, 62, 55
1, 471349, Control_c, 0, 64, 92
1, 471349, Control_c, 0, 67, 64
1, 471357, Note_off_c, 0, 64, 42
1, 471363, Control_c, 0, 64, 93
1, 471363, Control_c, 0, 67, 37
1, 471368, Note_off_c, 0, 71, 53
1, 471378, Control_c, 0, 64, 93
1, 471378, Control_c, 0, 67, 0
1, 471388, Note_off_c, 0, 68, 50
1, 471393, Control_c, 0, 64, 94
1, 471518, Note_on_c, 0, 40, 53
1, 471571, Note_off_c, 0, 40, 56
1, 471660, Control_c, 0, 64, 93
1, 471674, Control_c, 0, 64, 93
1, 471689, Control_c, 0, 64, 92
1, 471704, Control_c, 0, 64, 90
1, 471719, Control_c, 0, 64, 88
1, 471734, Control_c, 0, 64, 84
1, 471743, Note_on_c, 0, 69, 47
1, 471749, Control_c, 0, 64, 77
1, 471751, Note_on_c, 0, 57, 40
1, 471752, Note_on_c, 0, 61, 45
1, 471758, Note_on_c, 0, 49, 49
1, 471761, Note_on_c, 0, 45, 54
1, 471763, Control_c, 0, 64, 66
1, 471778, Control_c, 0, 64, 51
1, 471793, Control_c, 0, 64, 30
1, 471808, Control_c, 0, 64, 0
1, 471837, Control_c, 0, 64, 45
1, 471852, Control_c, 0, 64, 58
1, 471867, Control_c, 0, 64, 65
1, 471881, Control_c, 0, 64, 71
1, 471895, Note_off_c, 0, 49, 59
1, 471896, Control_c, 0, 64, 74
1, 471898, Note_off_c, 0, 45, 62
1, 471911, Control_c, 0, 64, 76
1, 471964, Control_c, 0, 67, 47
1, 471979, Control_c, 0, 67, 65
1, 471993, Control_c, 0, 67, 75
1, 472008, Control_c, 0, 64, 75
1, 472008, Control_c, 0, 67, 84
1, 472023, Control_c, 0, 64, 74
1, 472023, Control_c, 0, 67, 95
1, 472038, Control_c, 0, 64, 71
1, 472038, Control_c, 0, 67, 108
1, 472053, Control_c, 0, 64, 69
1, 472053, Control_c, 0, 67, 118
1, 472068, Control_c, 0, 64, 67
1, 472068, Control_c, 0, 67, 121
1, 472083, Control_c, 0, 64, 65
1, 472098, Control_c, 0, 64, 62
1, 472112, Control_c, 0, 64, 59
1, 472112, Control_c, 0, 67, 123
1, 472127, Control_c, 0, 64, 54
1, 472142, Control_c, 0, 64, 44
1, 472157, Control_c, 0, 64, 32
1, 472172, Control_c, 0, 64, 0
1, 472231, Control_c, 0, 67, 121
1, 472246, Control_c, 0, 64, 33
1, 472260, Control_c, 0, 64, 40
1, 472270, Note_on_c, 0, 33, 53
1, 472275, Control_c, 0, 64, 47
1, 472290, Control_c, 0, 64, 54
1, 472304, Control_c, 0, 64, 59
1, 472319, Control_c, 0, 64, 62
1, 472334, Control_c, 0, 64, 65
1, 472349, Control_c, 0, 64, 67
1, 472364, Control_c, 0, 64, 68
1, 472378, Control_c, 0, 64, 71
1, 472378, Control_c, 0, 67, 119
1, 472393, Control_c, 0, 64, 73
1, 472408, Control_c, 0, 64, 74
1, 472423, Control_c, 0, 64, 75
1, 472438, Control_c, 0, 64, 76
1, 472493, Note_off_c, 0, 33, 58
1, 472572, Control_c, 0, 64, 75
1, 472586, Control_c, 0, 64, 75
1, 472601, Control_c, 0, 64, 74
1, 472616, Control_c, 0, 64, 73
1, 472631, Control_c, 0, 64, 71
1, 472646, Control_c, 0, 64, 69
1, 472660, Control_c, 0, 64, 67
1, 472682, Control_c, 0, 64, 64
1, 472697, Control_c, 0, 64, 62
1, 472712, Control_c, 0, 64, 61
1, 472727, Control_c, 0, 64, 59
1, 472742, Control_c, 0, 64, 56
1, 472757, Control_c, 0, 64, 51
1, 472771, Control_c, 0, 64, 46
1, 472786, Control_c, 0, 64, 40
1, 472801, Control_c, 0, 64, 31
1, 472816, Control_c, 0, 64, 0
1, 473023, Control_c, 0, 67, 117
1, 473068, Control_c, 0, 67, 114
1, 473097, Control_c, 0, 64, 36
1, 473097, Control_c, 0, 67, 111
1, 473112, Control_c, 0, 64, 51
1, 473112, Control_c, 0, 67, 109
1, 473126, Control_c, 0, 64, 60
1, 473126, Control_c, 0, 67, 106
1, 473141, Control_c, 0, 64, 63
1, 473141, Control_c, 0, 67, 104
1, 473156, Control_c, 0, 64, 65
1, 473156, Control_c, 0, 67, 99
1, 473171, Control_c, 0, 64, 69
1, 473171, Control_c, 0, 67, 95
1, 473175, Note_on_c, 0, 49, 65
1, 473177, Note_off_c, 0, 61, 63
1, 473183, Note_on_c, 0, 45, 62
1, 473186, Control_c, 0, 64, 75
1, 473186, Control_c, 0, 67, 87
1, 473201, Control_c, 0, 64, 80
1, 473201, Control_c, 0, 67, 71
1, 473216, Control_c, 0, 64, 85
1, 473216, Control_c, 0, 67, 50
1, 473225, Note_off_c, 0, 57, 55
1, 473230, Control_c, 0, 64, 87
1, 473230, Control_c, 0, 67, 34
1, 473244, Note_off_c, 0, 49, 60
1, 473245, Control_c, 0, 64, 88
1, 473245, Control_c, 0, 67, 0
1, 473248, Note_off_c, 0, 45, 55
1, 473260, Control_c, 0, 64, 89
1, 473264, Note_off_c, 0, 69, 32
1, 473275, Control_c, 0, 64, 90
1, 473334, Control_c, 0, 64, 89
1, 473349, Control_c, 0, 64, 87
1, 473364, Control_c, 0, 64, 82
1, 473364, Control_c, 0, 67, 33
1, 473379, Control_c, 0, 64, 75
1, 473383, Note_on_c, 0, 69, 59
1, 473385, Note_on_c, 0, 57, 55
1, 473386, Note_on_c, 0, 59, 65
1, 473387, Note_on_c, 0, 62, 63
1, 473391, Note_on_c, 0, 50, 67
1, 473394, Control_c, 0, 64, 66
1, 473394, Control_c, 0, 67, 34
1, 473397, Note_on_c, 0, 47, 63
1, 473408, Control_c, 0, 64, 52
1, 473408, Control_c, 0, 67, 34
1, 473430, Control_c, 0, 64, 0
1, 473430, Control_c, 0, 67, 35
1, 473520, Control_c, 0, 67, 34
1, 473534, Control_c, 0, 64, 49
1, 473549, Control_c, 0, 64, 61
1, 473564, Control_c, 0, 64, 65
1, 473573, Note_off_c, 0, 47, 63
1, 473579, Control_c, 0, 64, 67
1, 473582, Note_off_c, 0, 50, 63
1, 473594, Control_c, 0, 64, 69
1, 473609, Control_c, 0, 64, 71
1, 473624, Control_c, 0, 64, 72
1, 473639, Control_c, 0, 64, 73
1, 473654, Control_c, 0, 67, 35
1, 473669, Control_c, 0, 67, 35
1, 473683, Control_c, 0, 64, 72
1, 473683, Control_c, 0, 67, 36
1, 473713, Control_c, 0, 64, 72
1, 473713, Control_c, 0, 67, 37
1, 473728, Control_c, 0, 64, 70
1, 473728, Control_c, 0, 67, 37
1, 473743, Control_c, 0, 64, 67
1, 473743, Control_c, 0, 67, 38
1, 473757, Control_c, 0, 64, 64
1, 473757, Control_c, 0, 67, 38
1, 473772, Control_c, 0, 64, 60
1, 473787, Control_c, 0, 64, 55
1, 473787, Control_c, 0, 67, 39
1, 473802, Control_c, 0, 64, 49
1, 473817, Control_c, 0, 64, 41
1, 473831, Control_c, 0, 64, 29
1, 473846, Control_c, 0, 64, 0
1, 473846, Control_c, 0, 67, 39
1, 473904, Note_on_c, 0, 33, 59
1, 473964, Control_c, 0, 67, 39
1, 474009, Control_c, 0, 67, 38
1, 474023, Control_c, 0, 64, 30
1, 474038, Control_c, 0, 64, 47
1, 474053, Control_c, 0, 64, 58
1, 474068, Control_c, 0, 64, 62
1, 474083, Control_c, 0, 64, 66
1, 474098, Control_c, 0, 64, 69
1, 474113, Control_c, 0, 64, 73
1, 474128, Control_c, 0, 64, 77
1, 474128, Note_off_c, 0, 33, 60
1, 474143, Control_c, 0, 64, 80
1, 474157, Control_c, 0, 64, 82
1, 474179, Control_c, 0, 64, 83
1, 474194, Control_c, 0, 64, 84
1, 474238, Control_c, 0, 67, 39
1, 474269, Control_c, 0, 67, 39
1, 474283, Control_c, 0, 64, 83
1, 474283, Control_c, 0, 67, 40
1, 474313, Control_c, 0, 64, 82
1, 474328, Control_c, 0, 64, 81
1, 474343, Control_c, 0, 64, 79
1, 474343, Control_c, 0, 67, 41
1, 474359, Control_c, 0, 64, 76
1, 474374, Control_c, 0, 64, 73
1, 474374, Control_c, 0, 67, 41
1, 474388, Control_c, 0, 64, 69
1, 474403, Control_c, 0, 64, 65
1, 474418, Control_c, 0, 64, 61
1, 474418, Control_c, 0, 67, 42
1, 474433, Control_c, 0, 64, 55
1, 474448, Control_c, 0, 64, 49
1, 474462, Control_c, 0, 64, 42
1, 474477, Control_c, 0, 64, 29
1, 474492, Control_c, 0, 64, 0
1, 474492, Control_c, 0, 67, 42
1, 474536, Control_c, 0, 67, 43
1, 474581, Control_c, 0, 67, 43
1, 474670, Control_c, 0, 67, 44
1, 474773, Control_c, 0, 67, 45
1, 474818, Control_c, 0, 64, 48
1, 474833, Note_off_c, 0, 62, 63
1, 474833, Control_c, 0, 64, 60
1, 474837, Note_off_c, 0, 59, 64
1, 474847, Control_c, 0, 64, 64
1, 474862, Note_on_c, 0, 50, 73
1, 474862, Control_c, 0, 64, 67
1, 474870, Note_on_c, 0, 47, 69
1, 474877, Control_c, 0, 64, 71
1, 474892, Control_c, 0, 64, 77
1, 474901, Note_off_c, 0, 57, 54
1, 474906, Control_c, 0, 64, 80
1, 474906, Control_c, 0, 67, 44
1, 474929, Control_c, 0, 64, 84
1, 474938, Note_off_c, 0, 50, 59
1, 474944, Control_c, 0, 64, 86
1, 474944, Control_c, 0, 67, 43
1, 474954, Note_off_c, 0, 47, 60
1, 474959, Control_c, 0, 64, 87
1, 474960, Note_off_c, 0, 69, 38
1, 474974, Control_c, 0, 64, 88
1, 474988, Control_c, 0, 64, 88
1, 475062, Control_c, 0, 64, 87
1, 475077, Control_c, 0, 64, 83
1, 475087, Note_on_c, 0, 69, 66
1, 475088, Note_on_c, 0, 64, 66
1, 475092, Control_c, 0, 64, 74
1, 475092, Control_c, 0, 67, 44
1, 475094, Note_on_c, 0, 61, 67
1, 475094, Note_on_c, 0, 57, 67
1, 475097, Note_on_c, 0, 52, 75
1, 475106, Note_on_c, 0, 49, 63
1, 475106, Control_c, 0, 64, 60
1, 475121, Control_c, 0, 64, 34
1, 475136, Control_c, 0, 64, 0
1, 475211, Control_c, 0, 64, 39
1, 475218, Note_off_c, 0, 49, 63
1, 475226, Control_c, 0, 64, 57
1, 475226, Control_c, 0, 67, 43
1, 475234, Note_off_c, 0, 52, 62
1, 475241, Control_c, 0, 64, 65
1, 475256, Control_c, 0, 64, 69
1, 475271, Control_c, 0, 64, 72
1, 475271, Control_c, 0, 67, 43
1, 475285, Control_c, 0, 64, 75
1, 475300, Control_c, 0, 64, 80
1, 475300, Control_c, 0, 67, 42
1, 475315, Control_c, 0, 64, 84
1, 475329, Control_c, 0, 64, 88
1, 475344, Control_c, 0, 64, 91
1, 475359, Control_c, 0, 64, 93
1, 475374, Control_c, 0, 64, 95
1, 475404, Control_c, 0, 64, 89
1, 475404, Control_c, 0, 67, 43
1, 475418, Control_c, 0, 64, 75
1, 475433, Control_c, 0, 64, 57
1, 475448, Control_c, 0, 64, 0
1, 475448, Control_c, 0, 67, 43
1, 475466, Note_on_c, 0, 33, 75
1, 475493, Control_c, 0, 67, 44
1, 475508, Control_c, 0, 64, 50
1, 475523, Control_c, 0, 64, 64
1, 475525, Note_off_c, 0, 64, 64
1, 475537, Control_c, 0, 64, 72
1, 475552, Note_off_c, 0, 33, 62
1, 475552, Control_c, 0, 64, 82
1, 475567, Control_c, 0, 64, 93
1, 475580, Note_off_c, 0, 61, 57
1, 475582, Control_c, 0, 64, 105
1, 475582, Control_c, 0, 67, 43
1, 475596, Control_c, 0, 64, 127
1, 475630, Note_off_c, 0, 57, 51
1, 475645, Note_off_c, 0, 69, 53
1, 475708, Control_c, 0, 67, 43
1, 475797, Control_c, 0, 64, 106
1, 475803, Note_on_c, 0, 69, 67
1, 475803, Note_on_c, 0, 65, 66
1, 475811, Control_c, 0, 64, 80
1, 475814, Note_on_c, 0, 57, 63
1, 475815, Note_on_c, 0, 53, 67
1, 475818, Note_on_c, 0, 62, 66
1, 475821, Note_on_c, 0, 50, 67
1, 475826, Control_c, 0, 64, 61
1, 475841, Control_c, 0, 64, 0
1, 475855, Control_c, 0, 67, 43
1, 475885, Control_c, 0, 67, 43
1, 475900, Control_c, 0, 64, 39
1, 475915, Control_c, 0, 64, 61
1, 475918, Note_off_c, 0, 62, 63
1, 475921, Note_off_c, 0, 65, 62
1, 475929, Control_c, 0, 64, 71
1, 475929, Control_c, 0, 67, 42
1, 475944, Control_c, 0, 64, 82
1, 475944, Control_c, 0, 67, 41
1, 475960, Note_off_c, 0, 57, 61
1, 475960, Control_c, 0, 64, 94
1, 475970, Note_off_c, 0, 50, 63
1, 475975, Control_c, 0, 64, 105
1, 475990, Control_c, 0, 64, 127
1, 476000, Note_off_c, 0, 53, 59
1, 476020, Control_c, 0, 67, 41
1, 476043, Note_off_c, 0, 69, 59
1, 476152, Control_c, 0, 64, 123
1, 476166, Note_on_c, 0, 71, 77
1, 476167, Control_c, 0, 64, 96
1, 476173, Note_on_c, 0, 67, 68
1, 476174, Note_on_c, 0, 65, 69
1, 476177, Note_on_c, 0, 59, 72
1, 476182, Note_on_c, 0, 38, 71
1, 476182, Control_c, 0, 64, 79
1, 476197, Control_c, 0, 64, 63
1, 476197, Control_c, 0, 67, 41
1, 476212, Control_c, 0, 64, 35
1, 476226, Control_c, 0, 64, 0
1, 476226, Control_c, 0, 67, 42
1, 476271, Control_c, 0, 67, 41
1, 476286, Control_c, 0, 64, 36
1, 476301, Control_c, 0, 64, 56
1, 476316, Control_c, 0, 64, 65
1, 476316, Control_c, 0, 67, 42
1, 476331, Control_c, 0, 64, 74
1, 476342, Note_off_c, 0, 59, 59
1, 476344, Note_off_c, 0, 38, 58
1, 476346, Control_c, 0, 64, 80
1, 476346, Control_c, 0, 67, 41
1, 476360, Control_c, 0, 64, 85
1, 476375, Control_c, 0, 64, 90
1, 476378, Note_off_c, 0, 67, 55
1, 476390, Control_c, 0, 64, 96
1, 476390, Control_c, 0, 67, 42
1, 476393, Note_off_c, 0, 65, 57
1, 476405, Control_c, 0, 64, 101
1, 476420, Control_c, 0, 64, 106
1, 476420, Note_off_c, 0, 71, 58
1, 476471, Control_c, 0, 67, 42
1, 476574, Control_c, 0, 67, 43
1, 476604, Control_c, 0, 64, 103
1, 476619, Control_c, 0, 64, 99
1, 476633, Control_c, 0, 64, 94
1, 476635, Note_on_c, 0, 65, 66
1, 476638, Note_on_c, 0, 72, 57
1, 476647, Note_on_c, 0, 67, 50
1, 476648, Control_c, 0, 64, 89
1, 476663, Note_on_c, 0, 60, 47
1, 476663, Control_c, 0, 64, 84
1, 476663, Control_c, 0, 67, 43
1, 476677, Control_c, 0, 64, 79
1, 476692, Note_on_c, 0, 48, 62
1, 476692, Control_c, 0, 64, 73
1, 476692, Control_c, 0, 67, 44
1, 476707, Control_c, 0, 64, 64
1, 476722, Control_c, 0, 64, 48
1, 476737, Control_c, 0, 64, 0
1, 476737, Control_c, 0, 67, 45
1, 476753, Control_c, 0, 67, 45
1, 476812, Control_c, 0, 64, 45
1, 476827, Control_c, 0, 64, 64
1, 476842, Control_c, 0, 64, 72
1, 476856, Control_c, 0, 64, 79
1, 476862, Note_off_c, 0, 60, 58
1, 476871, Control_c, 0, 64, 84
1, 476886, Control_c, 0, 64, 88
1, 476900, Control_c, 0, 64, 91
1, 476909, Note_off_c, 0, 48, 49
1, 476915, Control_c, 0, 64, 93
1, 476930, Control_c, 0, 64, 94
1, 477019, Control_c, 0, 64, 93
1, 477019, Control_c, 0, 67, 46
1, 477034, Control_c, 0, 64, 92
1, 477034, Control_c, 0, 67, 46
1, 477049, Control_c, 0, 64, 91
1, 477050, Note_on_c, 0, 64, 65
1, 477064, Control_c, 0, 64, 90
1, 477064, Note_off_c, 0, 65, 60
1, 477079, Control_c, 0, 64, 88
1, 477085, Note_on_c, 0, 36, 47
1, 477093, Control_c, 0, 64, 86
1, 477093, Control_c, 0, 67, 47
1, 477108, Control_c, 0, 64, 84
1, 477108, Control_c, 0, 67, 48
1, 477123, Control_c, 0, 64, 82
1, 477123, Control_c, 0, 67, 48
1, 477138, Control_c, 0, 64, 80
1, 477153, Control_c, 0, 64, 78
1, 477174, Control_c, 0, 64, 76
1, 477189, Control_c, 0, 64, 74
1, 477204, Control_c, 0, 64, 71
1, 477204, Control_c, 0, 67, 49
1, 477219, Control_c, 0, 64, 69
1, 477234, Control_c, 0, 64, 66
1, 477234, Control_c, 0, 67, 49
1, 477249, Control_c, 0, 64, 64
1, 477264, Control_c, 0, 64, 62
1, 477267, Note_on_c, 0, 62, 58
1, 477279, Control_c, 0, 64, 60
1, 477279, Control_c, 0, 67, 50
1, 477294, Control_c, 0, 64, 59
1, 477302, Note_off_c, 0, 64, 57
1, 477308, Control_c, 0, 64, 58
1, 477308, Control_c, 0, 67, 50
1, 477323, Control_c, 0, 64, 56
1, 477338, Control_c, 0, 64, 55
1, 477341, Note_off_c, 0, 36, 42
1, 477353, Control_c, 0, 64, 53
1, 477368, Control_c, 0, 64, 52
1, 477383, Control_c, 0, 64, 52
1, 477398, Control_c, 0, 64, 51
1, 477413, Control_c, 0, 64, 50
1, 477427, Control_c, 0, 64, 49
1, 477442, Control_c, 0, 64, 48
1, 477457, Control_c, 0, 64, 47
1, 477472, Control_c, 0, 64, 46
1, 477501, Control_c, 0, 64, 46
1, 477516, Control_c, 0, 64, 45
1, 477531, Control_c, 0, 64, 44
1, 477547, Control_c, 0, 64, 43
1, 477562, Control_c, 0, 64, 43
1, 477572, Note_on_c, 0, 64, 46
1, 477577, Control_c, 0, 64, 42
1, 477592, Control_c, 0, 64, 41
1, 477606, Control_c, 0, 64, 39
1, 477621, Control_c, 0, 64, 36
1, 477636, Control_c, 0, 64, 31
1, 477651, Control_c, 0, 64, 0
1, 477697, Note_off_c, 0, 62, 41
1, 477724, Control_c, 0, 67, 51
1, 477798, Control_c, 0, 64, 31
1, 477813, Control_c, 0, 64, 47
1, 477828, Control_c, 0, 64, 59
1, 477842, Control_c, 0, 64, 63
1, 477857, Control_c, 0, 64, 66
1, 477872, Control_c, 0, 64, 69
1, 477887, Control_c, 0, 64, 72
1, 477891, Note_off_c, 0, 72, 56
1, 477902, Control_c, 0, 64, 74
1, 477924, Control_c, 0, 64, 76
1, 477939, Control_c, 0, 64, 77
1, 477954, Control_c, 0, 64, 77
1, 477969, Control_c, 0, 64, 78
1, 478013, Control_c, 0, 67, 50
1, 478049, Note_on_c, 0, 74, 52
1, 478057, Control_c, 0, 64, 76
1, 478072, Control_c, 0, 64, 71
1, 478087, Control_c, 0, 64, 64
1, 478102, Control_c, 0, 64, 57
1, 478117, Control_c, 0, 64, 52
1, 478131, Control_c, 0, 64, 52
1, 478146, Control_c, 0, 64, 55
1, 478146, Control_c, 0, 67, 50
1, 478161, Control_c, 0, 64, 60
1, 478176, Control_c, 0, 64, 63
1, 478179, Note_off_c, 0, 67, 58
1, 478191, Control_c, 0, 64, 67
1, 478206, Control_c, 0, 64, 73
1, 478206, Control_c, 0, 67, 49
1, 478218, Note_on_c, 0, 70, 64
1, 478221, Control_c, 0, 64, 78
1, 478221, Note_off_c, 0, 64, 63
1, 478229, Note_on_c, 0, 48, 53
1, 478235, Control_c, 0, 64, 82
1, 478235, Control_c, 0, 67, 49
1, 478250, Control_c, 0, 64, 86
1, 478265, Control_c, 0, 64, 90
1, 478280, Control_c, 0, 64, 93
1, 478295, Control_c, 0, 64, 95
1, 478307, Note_off_c, 0, 48, 56
1, 478310, Control_c, 0, 64, 96
1, 478310, Control_c, 0, 67, 48
1, 478339, Control_c, 0, 67, 48
1, 478344, Note_off_c, 0, 74, 34
1, 478370, Control_c, 0, 67, 47
1, 478384, Control_c, 0, 67, 46
1, 478414, Control_c, 0, 67, 46
1, 478429, Control_c, 0, 67, 45
1, 478444, Control_c, 0, 64, 95
1, 478444, Control_c, 0, 67, 44
1, 478459, Note_on_c, 0, 65, 47
1, 478459, Control_c, 0, 64, 93
1, 478459, Control_c, 0, 67, 43
1, 478467, Note_on_c, 0, 69, 58
1, 478469, Note_on_c, 0, 60, 48
1, 478473, Control_c, 0, 64, 91
1, 478473, Control_c, 0, 67, 41
1, 478480, Note_on_c, 0, 53, 55
1, 478488, Control_c, 0, 64, 89
1, 478488, Control_c, 0, 67, 39
1, 478501, Note_off_c, 0, 70, 58
1, 478503, Control_c, 0, 64, 86
1, 478503, Control_c, 0, 67, 37
1, 478518, Control_c, 0, 64, 82
1, 478518, Control_c, 0, 67, 34
1, 478533, Control_c, 0, 64, 78
1, 478533, Control_c, 0, 67, 0
1, 478547, Control_c, 0, 64, 72
1, 478562, Control_c, 0, 64, 66
1, 478577, Control_c, 0, 64, 58
1, 478592, Control_c, 0, 64, 48
1, 478607, Control_c, 0, 64, 34
1, 478611, Note_off_c, 0, 53, 56
1, 478621, Control_c, 0, 64, 0
1, 478859, Note_on_c, 0, 41, 56
1, 479058, Note_off_c, 0, 41, 65
1, 479452, Note_on_c, 0, 41, 68
1, 479527, Note_off_c, 0, 41, 59
1, 479642, Note_on_c, 0, 43, 75
1, 479731, Note_off_c, 0, 43, 56
1, 479817, Note_on_c, 0, 45, 75
1, 479828, Note_off_c, 0, 60, 52
1, 479946, Note_off_c, 0, 45, 57
1, 479948, Note_off_c, 0, 65, 56
1, 479970, Note_off_c, 0, 69, 56
1, 480080, Note_on_c, 0, 69, 70
1, 480081, Note_on_c, 0, 64, 64
1, 480082, Note_on_c, 0, 57, 62
1, 480087, Note_on_c, 0, 37, 68
1, 480293, Note_off_c, 0, 37, 58
1, 480574, Note_on_c, 0, 49, 63
1, 480827, Note_off_c, 0, 49, 60
1, 481038, Control_c, 0, 64, 27
1, 481335, Control_c, 0, 64, 29
1, 481438, Control_c, 0, 64, 32
1, 481453, Control_c, 0, 64, 34
1, 481467, Control_c, 0, 64, 37
1, 481468, Note_on_c, 0, 68, 58
1, 481482, Control_c, 0, 64, 40
1, 481497, Control_c, 0, 64, 45
1, 481512, Control_c, 0, 64, 49
1, 481527, Control_c, 0, 64, 53
1, 481543, Control_c, 0, 64, 55
1, 481558, Control_c, 0, 64, 57
1, 481572, Control_c, 0, 64, 59
1, 481587, Control_c, 0, 64, 60
1, 481602, Control_c, 0, 64, 62
1, 481617, Control_c, 0, 64, 64
1, 481632, Control_c, 0, 64, 67
1, 481646, Control_c, 0, 64, 69
1, 481669, Control_c, 0, 64, 71
1, 481670, Note_on_c, 0, 37, 60
1, 481684, Control_c, 0, 64, 74
1, 481687, Note_off_c, 0, 69, 37
1, 481698, Control_c, 0, 64, 77
1, 481702, Note_off_c, 0, 64, 64
1, 481713, Control_c, 0, 64, 80
1, 481728, Control_c, 0, 64, 84
1, 481742, Control_c, 0, 64, 87
1, 481747, Note_off_c, 0, 68, 62
1, 481757, Control_c, 0, 64, 89
1, 481761, Note_off_c, 0, 57, 56
1, 481771, Control_c, 0, 64, 92
1, 481786, Control_c, 0, 64, 94
1, 481801, Control_c, 0, 64, 95
1, 481815, Control_c, 0, 64, 96
1, 481818, Note_off_c, 0, 37, 37
1, 481991, Note_on_c, 0, 68, 52
1, 482003, Note_on_c, 0, 64, 49
1, 482012, Note_on_c, 0, 57, 45
1, 482030, Note_on_c, 0, 38, 63
1, 482053, Control_c, 0, 64, 95
1, 482068, Control_c, 0, 64, 94
1, 482083, Control_c, 0, 64, 91
1, 482097, Control_c, 0, 64, 87
1, 482112, Control_c, 0, 64, 80
1, 482127, Control_c, 0, 64, 73
1, 482142, Control_c, 0, 64, 65
1, 482155, Note_off_c, 0, 38, 61
1, 482157, Control_c, 0, 64, 59
1, 482171, Control_c, 0, 64, 53
1, 482186, Control_c, 0, 64, 49
1, 482201, Control_c, 0, 64, 47
1, 482215, Control_c, 0, 64, 46
1, 482275, Control_c, 0, 67, 42
1, 482289, Control_c, 0, 67, 63
1, 482304, Control_c, 0, 67, 81
1, 482319, Control_c, 0, 64, 47
1, 482319, Control_c, 0, 67, 95
1, 482335, Control_c, 0, 64, 48
1, 482335, Control_c, 0, 67, 102
1, 482350, Control_c, 0, 64, 48
1, 482350, Control_c, 0, 67, 108
1, 482365, Control_c, 0, 64, 49
1, 482365, Control_c, 0, 67, 116
1, 482380, Control_c, 0, 64, 49
1, 482380, Control_c, 0, 67, 126
1, 482394, Control_c, 0, 64, 50
1, 482417, Control_c, 0, 64, 51
1, 482430, Note_on_c, 0, 66, 65
1, 482432, Note_on_c, 0, 50, 71
1, 482432, Control_c, 0, 64, 51
1, 482446, Control_c, 0, 64, 52
1, 482451, Note_on_c, 0, 62, 47
1, 482455, Note_off_c, 0, 68, 63
1, 482461, Control_c, 0, 64, 52
1, 482466, Note_off_c, 0, 57, 60
1, 482503, Note_off_c, 0, 64, 62
1, 482535, Control_c, 0, 64, 53
1, 482537, Note_off_c, 0, 50, 62
1, 482540, Note_off_c, 0, 62, 63
1, 482703, Note_on_c, 0, 34, 67
1, 482743, Control_c, 0, 64, 52
1, 482756, Note_off_c, 0, 34, 60
1, 482795, Note_on_c, 0, 61, 49
1, 482795, Note_on_c, 0, 64, 61
1, 482799, Note_on_c, 0, 54, 52
1, 482812, Note_on_c, 0, 35, 80
1, 482835, Note_off_c, 0, 66, 64
1, 482846, Control_c, 0, 64, 52
1, 482924, Note_off_c, 0, 35, 60
1, 483222, Note_on_c, 0, 59, 55
1, 483222, Note_on_c, 0, 62, 61
1, 483224, Note_off_c, 0, 61, 54
1, 483234, Note_off_c, 0, 64, 63
1, 483258, Note_on_c, 0, 47, 60
1, 483366, Note_off_c, 0, 59, 62
1, 483366, Note_off_c, 0, 47, 58
1, 483440, Note_off_c, 0, 54, 62
1, 483538, Note_on_c, 0, 35, 59
1, 483586, Note_off_c, 0, 35, 59
1, 483658, Note_on_c, 0, 61, 57
1, 483660, Note_on_c, 0, 52, 50
1, 483664, Note_on_c, 0, 57, 44
1, 483678, Note_on_c, 0, 40, 69
1, 483718, Note_off_c, 0, 62, 59
1, 483772, Control_c, 0, 64, 51
1, 483821, Note_off_c, 0, 40, 59
1, 483913, Control_c, 0, 64, 51
1, 484230, Note_on_c, 0, 40, 54
1, 484255, Control_c, 0, 64, 50
1, 484438, Note_off_c, 0, 40, 58
1, 484796, Control_c, 0, 64, 51
1, 484811, Control_c, 0, 64, 52
1, 484826, Control_c, 0, 64, 54
1, 484841, Control_c, 0, 64, 56
1, 484856, Control_c, 0, 64, 58
1, 484871, Control_c, 0, 64, 59
1, 484886, Control_c, 0, 64, 61
1, 484901, Control_c, 0, 64, 64
1, 484915, Control_c, 0, 64, 67
1, 484930, Control_c, 0, 64, 69
1, 484945, Control_c, 0, 64, 71
1, 484960, Control_c, 0, 64, 73
1, 484975, Control_c, 0, 64, 75
1, 484989, Control_c, 0, 64, 77
1, 485004, Control_c, 0, 64, 80
1, 485019, Control_c, 0, 64, 82
1, 485033, Control_c, 0, 64, 85
1, 485048, Control_c, 0, 64, 87
1, 485063, Control_c, 0, 64, 90
1, 485078, Control_c, 0, 64, 92
1, 485093, Control_c, 0, 64, 93
1, 485107, Control_c, 0, 64, 94
1, 485137, Control_c, 0, 64, 94
1, 485212, Note_off_c, 0, 57, 46
1, 485220, Note_off_c, 0, 61, 56
1, 485357, Note_off_c, 0, 52, 48
1, 485443, Poly_aftertouch_c, 0, 39, 127
1, 485536, Poly_aftertouch_c, 0, 39, 0
1, 485634, Control_c, 0, 64, 94
1, 485654, Note_on_c, 0, 59, 50
1, 485663, Note_on_c, 0, 57, 44
1, 485664, Note_on_c, 0, 40, 46
1, 485685, Note_on_c, 0, 50, 39
1, 485688, Note_on_c, 0, 52, 36
1, 485709, Control_c, 0, 64, 93
1, 485723, Control_c, 0, 64, 92
1, 485738, Control_c, 0, 64, 91
1, 485753, Control_c, 0, 64, 89
1, 485768, Control_c, 0, 64, 87
1, 485783, Control_c, 0, 64, 83
1, 485797, Control_c, 0, 64, 79
1, 485812, Control_c, 0, 64, 73
1, 485827, Control_c, 0, 64, 68
1, 485842, Control_c, 0, 64, 62
1, 485856, Control_c, 0, 64, 56
1, 485870, Note_off_c, 0, 40, 56
1, 485871, Control_c, 0, 64, 52
1, 485886, Control_c, 0, 64, 47
1, 485901, Control_c, 0, 64, 41
1, 485916, Control_c, 0, 64, 32
1, 485930, Control_c, 0, 64, 0
1, 486136, Note_on_c, 0, 56, 45
1, 486183, Note_on_c, 0, 40, 46
1, 486349, Note_on_c, 0, 54, 46
1, 486354, Note_off_c, 0, 57, 36
1, 486376, Note_off_c, 0, 40, 51
1, 486385, Note_off_c, 0, 56, 57
1, 486672, Note_on_c, 0, 56, 46
1, 486716, Note_off_c, 0, 54, 37
1, 487116, Control_c, 0, 64, 32
1, 487132, Control_c, 0, 64, 40
1, 487147, Control_c, 0, 64, 49
1, 487162, Control_c, 0, 64, 55
1, 487177, Control_c, 0, 64, 58
1, 487191, Control_c, 0, 64, 59
1, 487206, Control_c, 0, 64, 61
1, 487221, Control_c, 0, 64, 63
1, 487235, Control_c, 0, 64, 65
1, 487250, Control_c, 0, 64, 67
1, 487265, Control_c, 0, 64, 70
1, 487280, Control_c, 0, 64, 71
1, 487295, Control_c, 0, 64, 74
1, 487309, Control_c, 0, 64, 76
1, 487324, Control_c, 0, 64, 79
1, 487339, Control_c, 0, 64, 83
1, 487354, Control_c, 0, 64, 87
1, 487369, Control_c, 0, 64, 91
1, 487384, Control_c, 0, 64, 95
1, 487399, Control_c, 0, 64, 98
1, 487414, Control_c, 0, 64, 101
1, 487428, Control_c, 0, 64, 104
1, 487443, Control_c, 0, 64, 107
1, 487473, Control_c, 0, 64, 109
1, 487525, Note_on_c, 0, 40, 43
1, 487560, Note_off_c, 0, 56, 56
1, 487586, Note_off_c, 0, 50, 50
1, 487597, Note_off_c, 0, 52, 41
1, 487615, Note_off_c, 0, 59, 58
1, 487616, Note_off_c, 0, 40, 50
1, 487791, Control_c, 0, 64, 107
1, 487821, Control_c, 0, 64, 105
1, 487850, Control_c, 0, 64, 102
1, 487880, Control_c, 0, 64, 99
1, 487909, Control_c, 0, 64, 96
1, 487924, Control_c, 0, 64, 94
1, 487929, Note_on_c, 0, 57, 41
1, 487940, Control_c, 0, 64, 92
1, 487944, Note_on_c, 0, 52, 34
1, 487952, Note_on_c, 0, 49, 35
1, 487955, Control_c, 0, 64, 89
1, 487970, Control_c, 0, 64, 86
1, 487977, Note_on_c, 0, 33, 38
1, 487985, Control_c, 0, 64, 80
1, 488000, Control_c, 0, 64, 71
1, 488014, Control_c, 0, 64, 58
1, 488029, Control_c, 0, 64, 34
1, 488044, Control_c, 0, 64, 0
1, 488073, Control_c, 0, 64, 31
1, 488088, Control_c, 0, 64, 43
1, 488103, Control_c, 0, 64, 55
1, 488118, Control_c, 0, 64, 63
1, 488132, Control_c, 0, 64, 67
1, 488147, Control_c, 0, 64, 70
1, 488162, Control_c, 0, 64, 73
1, 488166, Note_on_c, 0, 37, 42
1, 488172, Note_off_c, 0, 33, 36
1, 488177, Control_c, 0, 64, 75
1, 488192, Control_c, 0, 64, 78
1, 488207, Control_c, 0, 64, 81
1, 488221, Control_c, 0, 64, 83
1, 488228, Note_off_c, 0, 49, 37
1, 488236, Control_c, 0, 64, 84
1, 488251, Control_c, 0, 64, 85
1, 488266, Control_c, 0, 64, 86
1, 488280, Note_off_c, 0, 52, 29
1, 488289, Note_off_c, 0, 37, 46
1, 488293, Note_on_c, 0, 40, 43
1, 488299, Note_off_c, 0, 57, 52
1, 488342, Note_off_c, 0, 40, 56
1, 488411, Note_on_c, 0, 45, 50
1, 488487, Note_off_c, 0, 45, 46
1, 488543, Note_on_c, 0, 49, 52
1, 488640, Note_on_c, 0, 52, 54
1, 488649, Note_off_c, 0, 49, 56
1, 488719, Note_off_c, 0, 52, 61
1, 488773, Note_on_c, 0, 57, 49
1, 488890, Note_on_c, 0, 61, 54
1, 488897, Note_off_c, 0, 57, 38
1, 488979, Note_off_c, 0, 61, 60
1, 488997, Note_on_c, 0, 64, 55
1, 489116, Note_off_c, 0, 64, 58
1, 489124, Note_on_c, 0, 69, 54
1, 489206, Note_off_c, 0, 69, 59
1, 489240, Note_on_c, 0, 73, 51
1, 489333, Note_off_c, 0, 73, 57
1, 489375, Note_on_c, 0, 76, 55
1, 489566, Note_off_c, 0, 76, 38
1, 489599, Note_on_c, 0, 81, 52
1, 489690, Control_c, 0, 64, 86
1, 489695, Note_off_c, 0, 81, 64
1, 489719, Control_c, 0, 67, 121
1, 489734, Control_c, 0, 67, 98
1, 489749, Control_c, 0, 64, 87
1, 489749, Control_c, 0, 67, 71
1, 489764, Control_c, 0, 67, 40
1, 489778, Control_c, 0, 64, 87
1, 489778, Control_c, 0, 67, 0
1, 489793, Control_c, 0, 64, 88
1, 489808, Control_c, 0, 64, 89
1, 489822, Control_c, 0, 64, 89
1, 489837, Control_c, 0, 64, 90
1, 489852, Control_c, 0, 64, 90
1, 489882, Control_c, 0, 64, 91
1, 489949, Control_c, 0, 64, 91
1, 490314, Note_on_c, 0, 93, 52
1, 490326, Note_on_c, 0, 88, 35
1, 490327, Note_on_c, 0, 69, 33
1, 490332, Note_on_c, 0, 76, 30
1, 490337, Note_on_c, 0, 81, 19
1, 490341, Note_on_c, 0, 73, 34
1, 490357, Note_on_c, 0, 85, 21
1, 490506, Note_off_c, 0, 85, 24
1, 490543, Note_off_c, 0, 88, 46
1, 490663, Note_off_c, 0, 93, 46
1, 490755, Note_off_c, 0, 81, 37
1, 490889, Note_off_c, 0, 76, 33
1, 490919, Note_off_c, 0, 69, 35
1, 490944, Note_off_c, 0, 73, 32
1, 491009, Control_c, 0, 64, 91
1, 491247, Control_c, 0, 64, 90
1, 491322, Control_c, 0, 64, 90
1, 491366, Control_c, 0, 64, 89
1, 491417, Control_c, 0, 64, 89
1, 491447, Control_c, 0, 64, 88
1, 491477, Control_c, 0, 64, 88
1, 491506, Control_c, 0, 64, 87
1, 491521, Control_c, 0, 64, 87
1, 491551, Control_c, 0, 64, 86
1, 491565, Control_c, 0, 64, 86
1, 491595, Control_c, 0, 64, 85
1, 491609, Control_c, 0, 64, 85
1, 491624, Control_c, 0, 64, 84
1, 491639, Control_c, 0, 64, 84
1, 491669, Control_c, 0, 64, 83
1, 491683, Control_c, 0, 64, 82
1, 491713, Control_c, 0, 64, 82
1, 491727, Control_c, 0, 64, 81
1, 491757, Control_c, 0, 64, 81
1, 491772, Control_c, 0, 64, 80
1, 491787, Control_c, 0, 64, 80
1, 491802, Control_c, 0, 64, 79
1, 491831, Control_c, 0, 64, 79
1, 491846, Control_c, 0, 64, 78
1, 491861, Control_c, 0, 64, 77
1, 491876, Control_c, 0, 64, 77
1, 491891, Control_c, 0, 64, 76
1, 491906, Control_c, 0, 64, 76
1, 491921, Control_c, 0, 64, 75
1, 491936, Control_c, 0, 64, 75
1, 491951, Control_c, 0, 64, 74
1, 491966, Control_c, 0, 64, 73
1, 491980, Control_c, 0, 64, 73
1, 491995, Control_c, 0, 64, 72
1, 492010, Control_c, 0, 64, 72
1, 492025, Control_c, 0, 64, 71
1, 492040, Control_c, 0, 64, 70
1, 492055, Control_c, 0, 64, 70
1, 492070, Control_c, 0, 64, 69
1, 492085, Control_c, 0, 64, 68
1, 492099, Control_c, 0, 64, 67
1, 492114, Control_c, 0, 64, 67
1, 492129, Control_c, 0, 64, 66
1, 492150, Control_c, 0, 64, 66
1, 492165, Control_c, 0, 64, 65
1, 492180, Control_c, 0, 64, 65
1, 492195, Control_c, 0, 64, 64
1, 492210, Control_c, 0, 64, 63
1, 492225, Control_c, 0, 64, 63
1, 492240, Control_c, 0, 64, 61
1, 492255, Control_c, 0, 64, 60
1, 492270, Control_c, 0, 64, 59
1, 492284, Control_c, 0, 64, 58
1, 492299, Control_c, 0, 64, 56
1, 492314, Control_c, 0, 64, 53
1, 492329, Control_c, 0, 64, 49
1, 492344, Control_c, 0, 64, 41
1, 492358, Control_c, 0, 64, 32
1, 492373, Control_c, 0, 64, 0
1, 492610, Control_c, 0, 64, 31
1, 492624, Control_c, 0, 64, 38
1, 492639, Control_c, 0, 64, 47
1, 492654, Control_c, 0, 64, 55
1, 492669, Control_c, 0, 64, 58
1, 492684, Control_c, 0, 64, 59
1, 492699, Control_c, 0, 64, 60
1, 492714, Control_c, 0, 64, 61
1, 492729, Control_c, 0, 64, 64
1, 492729, Control_c, 0, 67, 41
1, 492744, Control_c, 0, 64, 66
1, 492744, Control_c, 0, 67, 58
1, 492759, Control_c, 0, 64, 67
1, 492759, Control_c, 0, 67, 75
1, 492773, Control_c, 0, 64, 68
1, 492773, Control_c, 0, 67, 88
1, 492788, Control_c, 0, 64, 70
1, 492788, Control_c, 0, 67, 102
1, 492803, Control_c, 0, 64, 73
1, 492803, Control_c, 0, 67, 118
1, 492804, Note_on_c, 0, 34, 40
1, 492818, Control_c, 0, 64, 75
1, 492818, Control_c, 0, 67, 127
1, 492833, Control_c, 0, 64, 78
1, 492848, Control_c, 0, 64, 82
1, 492863, Control_c, 0, 64, 85
1, 492878, Control_c, 0, 64, 89
1, 492900, Control_c, 0, 64, 93
1, 492915, Control_c, 0, 64, 98
1, 492929, Control_c, 0, 64, 104
1, 492944, Control_c, 0, 64, 113
1, 492959, Control_c, 0, 64, 127
1, 492994, Note_on_c, 0, 38, 47
1, 493039, Note_off_c, 0, 34, 43
1, 493093, Note_off_c, 0, 38, 59
1, 493139, Note_on_c, 0, 41, 51
1, 493226, Note_off_c, 0, 41, 52
1, 493270, Note_on_c, 0, 46, 55
1, 493325, Note_off_c, 0, 46, 59
1, 493383, Note_on_c, 0, 50, 52
1, 493494, Note_on_c, 0, 53, 62
1, 493510, Note_off_c, 0, 50, 51
1, 493618, Note_on_c, 0, 58, 66
1, 493632, Note_off_c, 0, 53, 58
1, 493745, Note_on_c, 0, 62, 67
1, 493783, Note_off_c, 0, 58, 60
1, 493841, Note_off_c, 0, 62, 58
1, 493859, Note_on_c, 0, 65, 59
1, 494006, Note_on_c, 0, 70, 61
1, 494121, Note_on_c, 0, 74, 63
1, 494138, Control_c, 0, 67, 116
1, 494153, Control_c, 0, 67, 107
1, 494168, Control_c, 0, 67, 99
1, 494183, Control_c, 0, 67, 90
1, 494197, Control_c, 0, 67, 77
1, 494212, Control_c, 0, 67, 61
1, 494227, Control_c, 0, 67, 42
1, 494242, Control_c, 0, 67, 0
1, 494267, Note_on_c, 0, 77, 60
1, 494364, Note_off_c, 0, 65, 41
1, 494368, Note_off_c, 0, 70, 57
1, 494413, Note_off_c, 0, 74, 59
1, 494526, Note_on_c, 0, 82, 56
1, 494528, Note_off_c, 0, 77, 52
1, 494612, Note_off_c, 0, 82, 62
1, 495333, Note_on_c, 0, 98, 66
1, 495358, Note_on_c, 0, 74, 42
1, 495359, Note_on_c, 0, 80, 36
1, 495361, Note_on_c, 0, 70, 40
1, 495376, Note_on_c, 0, 86, 30
1, 495383, Note_on_c, 0, 92, 30
1, 495479, Note_off_c, 0, 86, 39
1, 495510, Note_off_c, 0, 92, 33
1, 495690, Note_off_c, 0, 98, 44
1, 495881, Note_off_c, 0, 80, 28
1, 495933, Note_off_c, 0, 74, 31
1, 495990, Note_off_c, 0, 70, 35
1, 497281, Control_c, 0, 64, 123
1, 497295, Control_c, 0, 64, 117
1, 497310, Control_c, 0, 64, 114
1, 497325, Control_c, 0, 64, 111
1, 497340, Control_c, 0, 64, 108
1, 497355, Control_c, 0, 64, 106
1, 497370, Control_c, 0, 64, 104
1, 497392, Control_c, 0, 64, 102
1, 497407, Control_c, 0, 64, 100
1, 497421, Control_c, 0, 64, 97
1, 497436, Control_c, 0, 64, 95
1, 497451, Control_c, 0, 64, 93
1, 497465, Control_c, 0, 64, 91
1, 497480, Control_c, 0, 64, 90
1, 497495, Control_c, 0, 64, 89
1, 497510, Control_c, 0, 64, 87
1, 497525, Control_c, 0, 64, 86
1, 497540, Control_c, 0, 64, 85
1, 497555, Control_c, 0, 64, 83
1, 497570, Control_c, 0, 64, 82
1, 497584, Control_c, 0, 64, 81
1, 497599, Control_c, 0, 64, 80
1, 497614, Control_c, 0, 64, 78
1, 497629, Control_c, 0, 64, 77
1, 497644, Control_c, 0, 64, 75
1, 497659, Control_c, 0, 64, 74
1, 497674, Control_c, 0, 64, 72
1, 497689, Control_c, 0, 64, 71
1, 497704, Control_c, 0, 64, 70
1, 497718, Control_c, 0, 64, 69
1, 497733, Control_c, 0, 64, 67
1, 497748, Control_c, 0, 64, 66
1, 497763, Control_c, 0, 64, 65
1, 497777, Control_c, 0, 64, 64
1, 497792, Control_c, 0, 64, 64
1, 497807, Control_c, 0, 64, 62
1, 497822, Control_c, 0, 64, 61
1, 497837, Control_c, 0, 64, 60
1, 497851, Control_c, 0, 64, 58
1, 497866, Control_c, 0, 64, 56
1, 497881, Control_c, 0, 64, 54
1, 497896, Control_c, 0, 64, 51
1, 497911, Control_c, 0, 64, 47
1, 497925, Control_c, 0, 64, 42
1, 497940, Control_c, 0, 64, 36
1, 497955, Control_c, 0, 64, 28
1, 497969, Control_c, 0, 64, 0
1, 498103, Control_c, 0, 67, 38
1, 498118, Control_c, 0, 67, 50
1, 498140, Control_c, 0, 67, 67
1, 498155, Control_c, 0, 67, 84
1, 498169, Control_c, 0, 67, 104
1, 498184, Control_c, 0, 67, 119
1, 498199, Control_c, 0, 67, 127
1, 498273, Control_c, 0, 64, 29
1, 498288, Control_c, 0, 64, 35
1, 498303, Control_c, 0, 64, 38
1, 498319, Control_c, 0, 64, 42
1, 498334, Control_c, 0, 64, 48
1, 498348, Control_c, 0, 64, 55
1, 498363, Control_c, 0, 64, 58
1, 498392, Control_c, 0, 64, 59
1, 498407, Control_c, 0, 64, 60
1, 498422, Control_c, 0, 64, 62
1, 498431, Note_on_c, 0, 33, 34
1, 498437, Control_c, 0, 64, 64
1, 498452, Control_c, 0, 64, 65
1, 498467, Control_c, 0, 64, 65
1, 498482, Control_c, 0, 64, 66
1, 498497, Control_c, 0, 64, 67
1, 498511, Control_c, 0, 64, 69
1, 498526, Control_c, 0, 64, 72
1, 498541, Control_c, 0, 64, 73
1, 498556, Control_c, 0, 64, 75
1, 498571, Control_c, 0, 64, 78
1, 498585, Control_c, 0, 64, 80
1, 498600, Control_c, 0, 64, 83
1, 498615, Control_c, 0, 64, 87
1, 498618, Note_on_c, 0, 37, 46
1, 498630, Control_c, 0, 64, 90
1, 498645, Control_c, 0, 64, 94
1, 498659, Control_c, 0, 64, 99
1, 498674, Control_c, 0, 64, 103
1, 498675, Note_off_c, 0, 33, 34
1, 498689, Control_c, 0, 64, 108
1, 498704, Control_c, 0, 64, 115
1, 498718, Control_c, 0, 64, 126
1, 498761, Note_on_c, 0, 40, 51
1, 498766, Note_off_c, 0, 37, 52
1, 498821, Note_off_c, 0, 40, 58
1, 498881, Note_on_c, 0, 45, 48
1, 498997, Note_off_c, 0, 45, 37
1, 499023, Note_on_c, 0, 49, 54
1, 499126, Note_off_c, 0, 49, 60
1, 499129, Note_on_c, 0, 52, 50
1, 499186, Note_off_c, 0, 52, 59
1, 499239, Note_on_c, 0, 57, 50
1, 499345, Note_on_c, 0, 61, 63
1, 499406, Note_off_c, 0, 57, 38
1, 499454, Note_on_c, 0, 64, 61
1, 499480, Note_off_c, 0, 61, 58
1, 499564, Note_on_c, 0, 69, 67
1, 499581, Note_off_c, 0, 64, 63
1, 499656, Note_off_c, 0, 69, 59
1, 499657, Note_on_c, 0, 73, 65
1, 499774, Note_off_c, 0, 73, 63
1, 499779, Note_on_c, 0, 76, 63
1, 499902, Note_on_c, 0, 81, 68
1, 499945, Note_off_c, 0, 76, 57
1, 500009, Note_on_c, 0, 85, 71
1, 500050, Note_off_c, 0, 81, 59
1, 500109, Note_on_c, 0, 88, 70
1, 500126, Note_off_c, 0, 85, 63
1, 500224, Note_on_c, 0, 85, 74
1, 500230, Note_off_c, 0, 88, 60
1, 500315, Note_on_c, 0, 81, 68
1, 500339, Note_off_c, 0, 85, 61
1, 500417, Note_off_c, 0, 81, 62
1, 500422, Note_on_c, 0, 76, 70
1, 500542, Note_on_c, 0, 81, 65
1, 500557, Note_off_c, 0, 76, 52
1, 500662, Note_on_c, 0, 76, 67
1, 500662, Note_off_c, 0, 81, 60
1, 500760, Note_on_c, 0, 73, 64
1, 500791, Note_off_c, 0, 76, 56
1, 500852, Note_off_c, 0, 73, 61
1, 500866, Note_on_c, 0, 69, 56
1, 500986, Note_on_c, 0, 64, 60
1, 500994, Note_off_c, 0, 69, 60
1, 501085, Note_on_c, 0, 61, 55
1, 501114, Note_off_c, 0, 64, 59
1, 501114, Control_c, 0, 64, 117
1, 501136, Control_c, 0, 64, 114
1, 501151, Control_c, 0, 64, 111
1, 501156, Note_off_c, 0, 61, 63
1, 501166, Control_c, 0, 64, 109
1, 501181, Control_c, 0, 64, 106
1, 501195, Control_c, 0, 64, 104
1, 501210, Control_c, 0, 64, 102
1, 501212, Note_on_c, 0, 57, 63
1, 501225, Control_c, 0, 64, 100
1, 501240, Control_c, 0, 64, 98
1, 501269, Control_c, 0, 64, 95
1, 501284, Control_c, 0, 64, 93
1, 501299, Control_c, 0, 64, 91
1, 501314, Control_c, 0, 64, 89
1, 501320, Note_on_c, 0, 61, 63
1, 501328, Control_c, 0, 64, 88
1, 501343, Control_c, 0, 64, 87
1, 501346, Note_off_c, 0, 57, 54
1, 501358, Control_c, 0, 64, 85
1, 501373, Control_c, 0, 64, 84
1, 501388, Control_c, 0, 64, 82
1, 501403, Control_c, 0, 64, 81
1, 501416, Note_on_c, 0, 64, 67
1, 501418, Control_c, 0, 64, 80
1, 501433, Note_off_c, 0, 61, 62
1, 501433, Control_c, 0, 64, 79
1, 501448, Control_c, 0, 64, 77
1, 501462, Control_c, 0, 64, 76
1, 501477, Control_c, 0, 64, 75
1, 501492, Control_c, 0, 64, 74
1, 501507, Control_c, 0, 64, 73
1, 501522, Control_c, 0, 64, 71
1, 501537, Control_c, 0, 64, 70
1, 501537, Note_off_c, 0, 64, 60
1, 501546, Note_on_c, 0, 61, 67
1, 501552, Control_c, 0, 64, 69
1, 501567, Control_c, 0, 64, 68
1, 501582, Control_c, 0, 64, 68
1, 501611, Control_c, 0, 64, 67
1, 501626, Control_c, 0, 64, 66
1, 501641, Control_c, 0, 64, 66
1, 501644, Note_on_c, 0, 57, 65
1, 501649, Note_off_c, 0, 61, 62
1, 501656, Control_c, 0, 64, 65
1, 501671, Control_c, 0, 64, 64
1, 501685, Control_c, 0, 64, 63
1, 501700, Control_c, 0, 64, 63
1, 501715, Control_c, 0, 64, 62
1, 501729, Control_c, 0, 64, 62
1, 501741, Note_off_c, 0, 57, 58
1, 501744, Control_c, 0, 64, 61
1, 501758, Note_on_c, 0, 52, 68
1, 501759, Control_c, 0, 64, 61
1, 501774, Control_c, 0, 64, 60
1, 501789, Control_c, 0, 64, 59
1, 501818, Control_c, 0, 64, 58
1, 501833, Control_c, 0, 64, 58
1, 501848, Control_c, 0, 64, 57
1, 501863, Control_c, 0, 64, 56
1, 501885, Control_c, 0, 64, 56
1, 501894, Note_on_c, 0, 57, 62
1, 501899, Note_off_c, 0, 52, 57
1, 501900, Control_c, 0, 64, 55
1, 501915, Control_c, 0, 64, 54
1, 501930, Control_c, 0, 64, 53
1, 501944, Control_c, 0, 64, 53
1, 501958, Control_c, 0, 64, 52
1, 501973, Control_c, 0, 64, 52
1, 501988, Control_c, 0, 64, 51
1, 502003, Control_c, 0, 64, 50
1, 502015, Note_on_c, 0, 52, 65
1, 502018, Note_off_c, 0, 57, 62
1, 502032, Control_c, 0, 64, 49
1, 502047, Control_c, 0, 64, 49
1, 502062, Control_c, 0, 64, 48
1, 502077, Control_c, 0, 64, 47
1, 502092, Control_c, 0, 64, 46
1, 502106, Control_c, 0, 64, 44
1, 502121, Control_c, 0, 64, 44
1, 502136, Control_c, 0, 64, 43
1, 502144, Note_on_c, 0, 49, 57
1, 502151, Control_c, 0, 64, 42
1, 502166, Control_c, 0, 64, 40
1, 502169, Note_off_c, 0, 52, 56
1, 502181, Control_c, 0, 64, 40
1, 502196, Control_c, 0, 64, 39
1, 502210, Control_c, 0, 64, 38
1, 502225, Control_c, 0, 64, 38
1, 502240, Control_c, 0, 64, 37
1, 502254, Control_c, 0, 64, 36
1, 502267, Note_on_c, 0, 45, 51
1, 502267, Note_off_c, 0, 49, 58
1, 502269, Control_c, 0, 64, 35
1, 502299, Control_c, 0, 64, 34
1, 502330, Control_c, 0, 64, 34
1, 502345, Control_c, 0, 64, 33
1, 502359, Control_c, 0, 64, 32
1, 502409, Note_off_c, 0, 45, 56
1, 502411, Note_on_c, 0, 40, 51
1, 502478, Control_c, 0, 64, 30
1, 502522, Note_off_c, 0, 40, 55
1, 502553, Note_on_c, 0, 37, 47
1, 502596, Control_c, 0, 64, 28
1, 502611, Control_c, 0, 64, 0
1, 502768, Note_on_c, 0, 33, 47
1, 502783, Note_off_c, 0, 37, 36
1, 503110, Note_off_c, 0, 33, 61
1, 503797, Note_on_c, 0, 69, 44
1, 503800, Note_on_c, 0, 64, 39
1, 503802, Note_on_c, 0, 57, 33
1, 503802, Note_on_c, 0, 61, 38
1, 503809, Note_on_c, 0, 52, 30
1, 503815, Note_on_c, 0, 45, 32
1, 503821, Note_on_c, 0, 49, 35
1, 504292, Note_off_c, 0, 45, 37
1, 504292, Note_off_c, 0, 57, 42
1, 504294, Note_off_c, 0, 64, 37
1, 504294, Note_off_c, 0, 49, 35
1, 504295, Note_off_c, 0, 52, 41
1, 504297, Note_off_c, 0, 61, 35
1, 504311, Note_off_c, 0, 69, 37
1, 504502, Control_c, 0, 64, 29
1, 504517, Control_c, 0, 64, 32
1, 504531, Control_c, 0, 64, 34
1, 504546, Control_c, 0, 64, 36
1, 504561, Control_c, 0, 64, 37
1, 504576, Control_c, 0, 64, 37
1, 504591, Control_c, 0, 64, 38
1, 505117, Control_c, 0, 64, 37
1, 505174, Note_on_c, 0, 69, 37
1, 505180, Note_on_c, 0, 61, 32
1, 505180, Note_on_c, 0, 57, 28
1, 505183, Note_on_c, 0, 64, 35
1, 505191, Note_on_c, 0, 45, 26
1, 505194, Note_on_c, 0, 52, 21
1, 505200, Note_on_c, 0, 49, 29
1, 505340, Control_c, 0, 64, 37
1, 508667, Control_c, 0, 64, 36
1, 508715, Note_off_c, 0, 49, 33
1, 508718, Note_off_c, 0, 52, 35
1, 508739, Note_off_c, 0, 57, 31
1, 508745, Note_off_c, 0, 61, 33
1, 508757, Note_off_c, 0, 45, 31
1, 508762, Note_off_c, 0, 64, 36
1, 508763, Note_off_c, 0, 69, 40
1, 508831, Control_c, 0, 64, 36
1, 510329, Control_c, 0, 64, 36
1, 510959, Control_c, 0, 64, 37
1, 511032, Control_c, 0, 64, 37
1, 511062, Control_c, 0, 64, 37
1, 511092, Control_c, 0, 64, 36
1, 511108, Control_c, 0, 64, 34
1, 511122, Control_c, 0, 64, 30
1, 511122, Control_c, 0, 67, 125
1, 511137, Control_c, 0, 64, 0
1, 511137, Control_c, 0, 67, 115
1, 511152, Control_c, 0, 67, 109
1, 511167, Control_c, 0, 67, 105
1, 511182, Control_c, 0, 67, 101
1, 511196, Control_c, 0, 67, 95
1, 511211, Control_c, 0, 67, 86
1, 511226, Control_c, 0, 67, 78
1, 511241, Control_c, 0, 67, 71
1, 511256, Control_c, 0, 67, 66
1, 511270, Control_c, 0, 67, 61
1, 511285, Control_c, 0, 67, 59
1, 511300, Control_c, 0, 67, 58
1, 511315, Control_c, 0, 67, 58
1, 511329, Control_c, 0, 67, 57
1, 511448, Control_c, 0, 67, 58
1, 511463, Control_c, 0, 67, 58
1, 511478, Control_c, 0, 67, 59
1, 511508, Control_c, 0, 67, 60
1, 511537, Control_c, 0, 67, 60
1, 511596, Control_c, 0, 64, 28
1, 511663, Control_c, 0, 64, 30
1, 511990, Control_c, 0, 67, 60
1, 512005, Control_c, 0, 67, 59
1, 512034, Control_c, 0, 67, 58
1, 512049, Control_c, 0, 67, 58
1, 512063, Control_c, 0, 67, 57
1, 512078, Control_c, 0, 67, 55
1, 512093, Control_c, 0, 67, 54
1, 512108, Control_c, 0, 67, 53
1, 512123, Control_c, 0, 67, 52
1, 512137, Control_c, 0, 64, 33
1, 512137, Control_c, 0, 67, 50
1, 512152, Control_c, 0, 64, 34
1, 512152, Control_c, 0, 67, 45
1, 512167, Control_c, 0, 64, 35
1, 512167, Control_c, 0, 67, 0
1, 512182, Control_c, 0, 64, 35
1, 512197, Control_c, 0, 64, 36
1, 512227, Control_c, 0, 64, 36
1, 512441, Control_c, 0, 64, 36
1, 512456, Control_c, 0, 64, 35
1, 512470, Control_c, 0, 64, 35
1, 512485, Control_c, 0, 64, 34
1, 512500, Control_c, 0, 64, 33
1, 512515, Control_c, 0, 64, 32
1, 512559, Control_c, 0, 64, 30
1, 512588, Control_c, 0, 64, 27
1, 512603, Control_c, 0, 64, 0
1, 513160, Control_c, 0, 64, 28
1, 513190, Control_c, 0, 64, 30
1, 513219, Control_c, 0, 64, 32
1, 513234, Control_c, 0, 64, 32
1, 513249, Control_c, 0, 64, 33
1, 513264, Control_c, 0, 64, 34
1, 513279, Control_c, 0, 64, 35
1, 513294, Control_c, 0, 64, 35
1, 513309, Control_c, 0, 64, 36
1, 513324, Control_c, 0, 64, 36
1, 513339, Control_c, 0, 64, 37
1, 513368, Control_c, 0, 64, 37
1, 513442, Control_c, 0, 64, 38
1, 513457, Control_c, 0, 64, 38
1, 513472, Control_c, 0, 64, 39
1, 513488, Control_c, 0, 64, 39
1, 513502, Control_c, 0, 64, 40
1, 513517, Control_c, 0, 64, 40
1, 513532, Control_c, 0, 64, 41
1, 513547, Control_c, 0, 64, 41
1, 513562, Control_c, 0, 64, 42
1, 513577, Control_c, 0, 64, 43
1, 513591, Control_c, 0, 64, 43
1, 513606, Control_c, 0, 64, 44
1, 513621, Control_c, 0, 64, 44
1, 513650, Control_c, 0, 64, 45
1, 513665, Control_c, 0, 64, 46
1, 513680, Control_c, 0, 64, 47
1, 513695, Control_c, 0, 64, 48
1, 513710, Control_c, 0, 64, 49
1, 513724, Control_c, 0, 64, 49
1, 513739, Control_c, 0, 64, 50
1, 513754, Control_c, 0, 64, 51
1, 513769, Control_c, 0, 64, 51
1, 513784, Control_c, 0, 64, 52
1, 513924, Control_c, 0, 64, 52
1, 513954, Control_c, 0, 64, 53
1, 513998, Control_c, 0, 64, 53
1, 514146, Control_c, 0, 64, 54
1, 514176, Control_c, 0, 64, 53
1, 514221, Control_c, 0, 64, 53
1, 514280, Control_c, 0, 64, 52
1, 514310, Control_c, 0, 64, 52
1, 514325, Control_c, 0, 64, 51
1, 514340, Control_c, 0, 64, 51
1, 514355, Control_c, 0, 64, 50
1, 514370, Control_c, 0, 64, 49
1, 514385, Control_c, 0, 64, 48
1, 514400, Control_c, 0, 64, 46
1, 514414, Control_c, 0, 64, 43
1, 514429, Control_c, 0, 64, 39
1, 514429, Control_c, 0, 67, 46
1, 514444, Control_c, 0, 64, 33
1, 514444, Control_c, 0, 67, 62
1, 514458, Control_c, 0, 64, 28
1, 514458, Control_c, 0, 67, 76
1, 514473, Control_c, 0, 64, 0
1, 514473, Control_c, 0, 67, 84
1, 514488, Control_c, 0, 67, 88
1, 514503, Control_c, 0, 67, 90
1, 514547, Control_c, 0, 67, 90
1, 514629, Control_c, 0, 64, 27
1, 514659, Control_c, 0, 64, 29
1, 514659, Control_c, 0, 67, 89
1, 514673, Control_c, 0, 67, 87
1, 514688, Control_c, 0, 67, 84
1, 514703, Control_c, 0, 67, 80
1, 514718, Control_c, 0, 64, 31
1, 514718, Control_c, 0, 67, 78
1, 514733, Control_c, 0, 67, 76
1, 514747, Control_c, 0, 67, 73
1, 514762, Control_c, 0, 64, 32
1, 514762, Control_c, 0, 67, 71
1, 514777, Control_c, 0, 67, 68
1, 514791, Control_c, 0, 64, 32
1, 514791, Control_c, 0, 67, 64
1, 514806, Control_c, 0, 67, 58
1, 514821, Control_c, 0, 64, 33
1, 514821, Control_c, 0, 67, 45
1, 514836, Control_c, 0, 64, 33
1, 514836, Control_c, 0, 67, 0
1, 514851, Control_c, 0, 64, 34
1, 514865, Control_c, 0, 64, 34
1, 514954, Control_c, 0, 64, 35
1, 515237, Control_c, 0, 64, 35
1, 515296, Control_c, 0, 64, 36
1, 515341, Control_c, 0, 64, 36
1, 515377, Control_c, 0, 64, 37
1, 515407, Control_c, 0, 64, 37
1, 515422, Control_c, 0, 64, 38
1, 515437, Control_c, 0, 64, 38
1, 515452, Control_c, 0, 64, 39
1, 515467, Control_c, 0, 64, 39
1, 515482, Control_c, 0, 64, 40
1, 515496, Control_c, 0, 64, 41
1, 515511, Control_c, 0, 64, 43
1, 515526, Control_c, 0, 64, 44
1, 515541, Control_c, 0, 64, 45
1, 515556, Control_c, 0, 64, 46
1, 515570, Control_c, 0, 64, 46
1, 515585, Control_c, 0, 64, 47
1, 515600, Control_c, 0, 64, 48
1, 515629, Control_c, 0, 64, 48
1, 515911, Control_c, 0, 64, 48
1, 515956, Control_c, 0, 64, 47
1, 515986, Control_c, 0, 64, 47
1, 516015, Control_c, 0, 64, 46
1, 516305, Control_c, 0, 64, 46
1, 516364, Control_c, 0, 64, 45
1, 516467, Control_c, 0, 64, 46
1, 516497, Control_c, 0, 64, 46
1, 516511, Control_c, 0, 64, 47
1, 516526, Control_c, 0, 64, 47
1, 516541, Control_c, 0, 64, 48
1, 516556, Control_c, 0, 64, 49
1, 516570, Control_c, 0, 64, 51
1, 516585, Control_c, 0, 64, 53
1, 516600, Control_c, 0, 64, 54
1, 516615, Control_c, 0, 64, 56
1, 516630, Control_c, 0, 64, 58
1, 516644, Control_c, 0, 64, 59
1, 516659, Control_c, 0, 64, 60
1, 516674, Control_c, 0, 64, 61
1, 516690, Control_c, 0, 64, 63
1, 516705, Control_c, 0, 64, 64
1, 516720, Control_c, 0, 64, 65
1, 516734, Control_c, 0, 64, 66
1, 516749, Control_c, 0, 64, 66
1, 516764, Control_c, 0, 64, 67
1, 516779, Control_c, 0, 64, 68
1, 516794, Control_c, 0, 64, 69
1, 516808, Control_c, 0, 64, 70
1, 516823, Control_c, 0, 64, 73
1, 516838, Control_c, 0, 64, 75
1, 516860, Control_c, 0, 64, 77
1, 516875, Control_c, 0, 64, 80
1, 516890, Control_c, 0, 64, 83
1, 516905, Control_c, 0, 64, 87
1, 516920, Control_c, 0, 64, 91
1, 516934, Control_c, 0, 64, 96
1, 516949, Control_c, 0, 64, 102
1, 516964, Control_c, 0, 64, 108
1, 516979, Control_c, 0, 64, 120
1, 516994, Control_c, 0, 64, 127
1, 518246, Control_c, 0, 67, 39
1, 518261, Control_c, 0, 67, 50
1, 518276, Control_c, 0, 67, 60
1, 518292, Control_c, 0, 67, 69
1, 518306, Control_c, 0, 67, 78
1, 518321, Control_c, 0, 67, 87
1, 518336, Control_c, 0, 67, 95
1, 518351, Control_c, 0, 67, 100
1, 518373, Control_c, 0, 67, 104
1, 518388, Control_c, 0, 67, 107
1, 518403, Control_c, 0, 67, 109
1, 518418, Control_c, 0, 67, 112
1, 518433, Control_c, 0, 67, 117
1, 518447, Control_c, 0, 67, 125
1, 518462, Control_c, 0, 67, 127
1, 519408, Note_on_c, 0, 69, 52
1, 519462, Note_on_c, 0, 42, 30
1, 519622, Note_off_c, 0, 42, 36
1, 519926, Note_on_c, 0, 61, 35
1, 520284, Control_c, 0, 64, 123
1, 520299, Control_c, 0, 64, 114
1, 520314, Control_c, 0, 64, 110
1, 520329, Control_c, 0, 64, 106
1, 520344, Control_c, 0, 64, 99
1, 520350, Note_on_c, 0, 49, 31
1, 520359, Control_c, 0, 64, 91
1, 520373, Control_c, 0, 64, 82
1, 520388, Control_c, 0, 64, 71
1, 520403, Control_c, 0, 64, 61
1, 520418, Control_c, 0, 64, 58
1, 520418, Note_off_c, 0, 61, 42
1, 520433, Control_c, 0, 64, 60
1, 520448, Control_c, 0, 64, 63
1, 520463, Control_c, 0, 64, 66
1, 520477, Control_c, 0, 64, 72
1, 520492, Control_c, 0, 64, 82
1, 520507, Control_c, 0, 64, 89
1, 520522, Control_c, 0, 64, 95
1, 520535, Note_off_c, 0, 49, 53
1, 520537, Control_c, 0, 64, 101
1, 520551, Control_c, 0, 64, 108
1, 520566, Control_c, 0, 64, 118
1, 520581, Control_c, 0, 64, 127
1, 520803, Note_on_c, 0, 68, 55
1, 520812, Control_c, 0, 64, 115
1, 520826, Control_c, 0, 64, 106
1, 520841, Control_c, 0, 64, 98
1, 520856, Note_on_c, 0, 41, 42
1, 520856, Control_c, 0, 64, 91
1, 520871, Control_c, 0, 64, 81
1, 520879, Note_off_c, 0, 69, 55
1, 520886, Control_c, 0, 64, 69
1, 520900, Control_c, 0, 64, 55
1, 520915, Control_c, 0, 64, 0
1, 520975, Control_c, 0, 64, 35
1, 520989, Control_c, 0, 64, 52
1, 521004, Control_c, 0, 64, 63
1, 521019, Control_c, 0, 64, 68
1, 521026, Note_off_c, 0, 41, 63
1, 521033, Control_c, 0, 64, 73
1, 521048, Control_c, 0, 64, 77
1, 521063, Control_c, 0, 64, 81
1, 521078, Control_c, 0, 64, 86
1, 521093, Control_c, 0, 64, 92
1, 521107, Control_c, 0, 64, 97
1, 521122, Control_c, 0, 64, 100
1, 521137, Control_c, 0, 64, 103
1, 521166, Control_c, 0, 64, 105
1, 521291, Note_on_c, 0, 61, 39
1, 521411, Control_c, 0, 64, 98
1, 521426, Control_c, 0, 64, 87
1, 521441, Control_c, 0, 64, 79
1, 521456, Control_c, 0, 64, 77
1, 521501, Control_c, 0, 64, 79
1, 521516, Control_c, 0, 64, 84
1, 521530, Control_c, 0, 64, 91
1, 521545, Control_c, 0, 64, 96
1, 521560, Control_c, 0, 64, 101
1, 521575, Control_c, 0, 64, 105
1, 521590, Control_c, 0, 64, 110
1, 521605, Control_c, 0, 64, 116
1, 521619, Control_c, 0, 64, 123
1, 521634, Control_c, 0, 64, 127
1, 521735, Note_on_c, 0, 49, 29
1, 521824, Note_off_c, 0, 61, 34
1, 521838, Note_off_c, 0, 49, 56
1, 521924, Note_off_c, 0, 68, 49
1, 522079, Control_c, 0, 64, 120
1, 522093, Control_c, 0, 64, 116
1, 522116, Control_c, 0, 64, 112
1, 522124, Note_on_c, 0, 71, 54
1, 522130, Control_c, 0, 64, 109
1, 522145, Control_c, 0, 64, 106
1, 522160, Control_c, 0, 64, 101
1, 522175, Control_c, 0, 64, 96
1, 522180, Note_on_c, 0, 42, 40
1, 522189, Control_c, 0, 64, 88
1, 522204, Control_c, 0, 64, 78
1, 522219, Control_c, 0, 64, 65
1, 522234, Note_on_c, 0, 69, 59
1, 522234, Control_c, 0, 64, 50
1, 522249, Control_c, 0, 64, 42
1, 522263, Control_c, 0, 64, 43
1, 522279, Control_c, 0, 64, 49
1, 522289, Note_off_c, 0, 71, 55
1, 522294, Control_c, 0, 64, 57
1, 522309, Control_c, 0, 64, 64
1, 522324, Control_c, 0, 64, 70
1, 522339, Control_c, 0, 64, 78
1, 522353, Control_c, 0, 64, 83
1, 522368, Control_c, 0, 64, 86
1, 522383, Control_c, 0, 64, 89
1, 522397, Note_on_c, 0, 68, 72
1, 522398, Note_off_c, 0, 42, 38
1, 522398, Control_c, 0, 64, 92
1, 522412, Control_c, 0, 64, 96
1, 522427, Control_c, 0, 64, 98
1, 522442, Note_off_c, 0, 69, 58
1, 522650, Control_c, 0, 64, 94
1, 522660, Note_on_c, 0, 69, 60
1, 522665, Control_c, 0, 64, 91
1, 522679, Control_c, 0, 64, 87
1, 522694, Control_c, 0, 64, 83
1, 522709, Control_c, 0, 64, 79
1, 522715, Note_on_c, 0, 61, 34
1, 522723, Control_c, 0, 64, 74
1, 522738, Control_c, 0, 64, 69
1, 522752, Note_off_c, 0, 68, 37
1, 522753, Control_c, 0, 64, 63
1, 522768, Control_c, 0, 64, 54
1, 522783, Control_c, 0, 64, 40
1, 522797, Control_c, 0, 64, 0
1, 522865, Control_c, 0, 64, 40
1, 522879, Control_c, 0, 64, 55
1, 522894, Control_c, 0, 64, 63
1, 522909, Control_c, 0, 64, 67
1, 522924, Control_c, 0, 64, 71
1, 522938, Control_c, 0, 64, 75
1, 522953, Control_c, 0, 64, 79
1, 522968, Control_c, 0, 64, 83
1, 522983, Control_c, 0, 64, 87
1, 522998, Control_c, 0, 64, 89
1, 523012, Control_c, 0, 64, 91
1, 523021, Note_off_c, 0, 69, 38
1, 523027, Control_c, 0, 64, 92
1, 523042, Control_c, 0, 64, 93
1, 523052, Note_on_c, 0, 73, 51
1, 523088, Control_c, 0, 64, 93
1, 523116, Note_off_c, 0, 73, 51
1, 523132, Control_c, 0, 64, 93
1, 523142, Note_on_c, 0, 69, 51
1, 523147, Control_c, 0, 64, 87
1, 523162, Control_c, 0, 64, 76
1, 523164, Note_on_c, 0, 49, 39
1, 523176, Control_c, 0, 64, 64
1, 523190, Note_off_c, 0, 61, 41
1, 523191, Control_c, 0, 64, 51
1, 523206, Control_c, 0, 64, 46
1, 523220, Control_c, 0, 64, 50
1, 523235, Control_c, 0, 64, 58
1, 523250, Control_c, 0, 64, 66
1, 523265, Control_c, 0, 64, 72
1, 523280, Control_c, 0, 64, 78
1, 523292, Note_off_c, 0, 49, 61
1, 523295, Control_c, 0, 64, 82
1, 523310, Control_c, 0, 64, 86
1, 523325, Control_c, 0, 64, 89
1, 523339, Control_c, 0, 64, 92
1, 523354, Control_c, 0, 64, 95
1, 523384, Control_c, 0, 64, 97
1, 523561, Control_c, 0, 64, 95
1, 523576, Control_c, 0, 64, 92
1, 523587, Note_on_c, 0, 68, 50
1, 523599, Control_c, 0, 64, 90
1, 523614, Control_c, 0, 64, 86
1, 523623, Note_off_c, 0, 69, 41
1, 523628, Control_c, 0, 64, 81
1, 523629, Note_on_c, 0, 41, 38
1, 523643, Control_c, 0, 64, 75
1, 523658, Control_c, 0, 64, 64
1, 523673, Control_c, 0, 64, 49
1, 523688, Control_c, 0, 64, 0
1, 523746, Control_c, 0, 64, 29
1, 523761, Control_c, 0, 64, 55
1, 523776, Control_c, 0, 64, 66
1, 523791, Control_c, 0, 64, 73
1, 523804, Note_off_c, 0, 41, 64
1, 523806, Control_c, 0, 64, 80
1, 523820, Control_c, 0, 64, 87
1, 523835, Control_c, 0, 64, 94
1, 523850, Control_c, 0, 64, 100
1, 523865, Control_c, 0, 64, 112
1, 523881, Control_c, 0, 64, 127
1, 524058, Note_on_c, 0, 61, 42
1, 524118, Control_c, 0, 64, 120
1, 524132, Control_c, 0, 64, 90
1, 524147, Control_c, 0, 64, 77
1, 524162, Control_c, 0, 64, 71
1, 524192, Control_c, 0, 64, 73
1, 524207, Control_c, 0, 64, 79
1, 524222, Control_c, 0, 64, 87
1, 524237, Control_c, 0, 64, 95
1, 524251, Control_c, 0, 64, 104
1, 524266, Control_c, 0, 64, 127
1, 524488, Note_on_c, 0, 49, 40
1, 524577, Note_off_c, 0, 61, 51
1, 524616, Note_off_c, 0, 49, 60
1, 524704, Control_c, 0, 67, 125
1, 524719, Control_c, 0, 67, 123
1, 524724, Note_off_c, 0, 68, 51
1, 524734, Control_c, 0, 67, 120
1, 524748, Control_c, 0, 67, 118
1, 524778, Control_c, 0, 67, 114
1, 524807, Control_c, 0, 67, 110
1, 524837, Control_c, 0, 67, 108
1, 524867, Control_c, 0, 67, 105
1, 524881, Control_c, 0, 67, 102
1, 524896, Control_c, 0, 67, 94
1, 524911, Control_c, 0, 67, 83
1, 524917, Note_on_c, 0, 73, 71
1, 524926, Control_c, 0, 67, 75
1, 524941, Control_c, 0, 67, 67
1, 524955, Control_c, 0, 64, 107
1, 524955, Control_c, 0, 67, 57
1, 524967, Note_on_c, 0, 45, 43
1, 524970, Control_c, 0, 64, 94
1, 524970, Control_c, 0, 67, 46
1, 524985, Control_c, 0, 64, 77
1, 524985, Control_c, 0, 67, 0
1, 525000, Control_c, 0, 64, 62
1, 525015, Control_c, 0, 64, 37
1, 525030, Control_c, 0, 64, 0
1, 525089, Control_c, 0, 64, 44
1, 525111, Control_c, 0, 64, 63
1, 525126, Control_c, 0, 64, 73
1, 525141, Control_c, 0, 64, 87
1, 525155, Note_off_c, 0, 45, 61
1, 525155, Control_c, 0, 64, 103
1, 525170, Control_c, 0, 64, 127
1, 525378, Note_on_c, 0, 61, 52
1, 525784, Note_on_c, 0, 49, 44
1, 525909, Note_off_c, 0, 61, 56
1, 525935, Note_off_c, 0, 49, 56
1, 526218, Note_on_c, 0, 74, 78
1, 526231, Control_c, 0, 64, 118
1, 526246, Control_c, 0, 64, 105
1, 526258, Note_on_c, 0, 47, 53
1, 526258, Note_off_c, 0, 73, 57
1, 526261, Control_c, 0, 64, 96
1, 526276, Control_c, 0, 64, 88
1, 526291, Control_c, 0, 64, 78
1, 526306, Control_c, 0, 64, 66
1, 526320, Control_c, 0, 64, 46
1, 526335, Control_c, 0, 64, 0
1, 526395, Control_c, 0, 64, 41
1, 526410, Control_c, 0, 64, 62
1, 526425, Control_c, 0, 64, 72
1, 526439, Control_c, 0, 64, 89
1, 526454, Control_c, 0, 64, 118
1, 526469, Control_c, 0, 64, 127
1, 526481, Note_off_c, 0, 47, 61
1, 526740, Note_on_c, 0, 65, 57
1, 526807, Note_on_c, 0, 61, 44
1, 526920, Control_c, 0, 64, 99
1, 526934, Control_c, 0, 64, 79
1, 526949, Control_c, 0, 64, 66
1, 526964, Control_c, 0, 64, 60
1, 526979, Control_c, 0, 64, 60
1, 526994, Control_c, 0, 64, 63
1, 527009, Control_c, 0, 64, 67
1, 527024, Control_c, 0, 64, 74
1, 527039, Control_c, 0, 64, 81
1, 527053, Control_c, 0, 64, 88
1, 527069, Control_c, 0, 64, 98
1, 527083, Control_c, 0, 64, 110
1, 527098, Control_c, 0, 64, 127
1, 527171, Note_on_c, 0, 49, 49
1, 527247, Note_off_c, 0, 61, 61
1, 527327, Note_off_c, 0, 65, 51
1, 527334, Note_off_c, 0, 49, 58
1, 527358, Note_off_c, 0, 74, 48
1, 527616, Note_on_c, 0, 74, 71
1, 527632, Note_on_c, 0, 66, 62
1, 527668, Control_c, 0, 64, 113
1, 527675, Note_on_c, 0, 45, 45
1, 527683, Control_c, 0, 64, 99
1, 527698, Control_c, 0, 64, 88
1, 527713, Control_c, 0, 64, 75
1, 527727, Control_c, 0, 64, 61
1, 527742, Control_c, 0, 64, 37
1, 527757, Control_c, 0, 64, 0
1, 527817, Control_c, 0, 64, 38
1, 527832, Note_on_c, 0, 73, 70
1, 527832, Control_c, 0, 64, 61
1, 527847, Control_c, 0, 64, 69
1, 527862, Control_c, 0, 64, 76
1, 527865, Note_off_c, 0, 74, 63
1, 527877, Control_c, 0, 64, 82
1, 527887, Note_off_c, 0, 45, 57
1, 527891, Control_c, 0, 64, 87
1, 527891, Control_c, 0, 67, 36
1, 527906, Control_c, 0, 64, 93
1, 527906, Control_c, 0, 67, 47
1, 527909, Note_off_c, 0, 73, 60
1, 527921, Control_c, 0, 64, 98
1, 527921, Control_c, 0, 67, 56
1, 527936, Control_c, 0, 64, 101
1, 527936, Control_c, 0, 67, 64
1, 527951, Control_c, 0, 64, 104
1, 527951, Control_c, 0, 67, 72
1, 527966, Control_c, 0, 67, 77
1, 527981, Control_c, 0, 67, 79
1, 527996, Control_c, 0, 67, 81
1, 528025, Control_c, 0, 67, 82
1, 528040, Control_c, 0, 67, 83
1, 528053, Note_on_c, 0, 73, 63
1, 528055, Control_c, 0, 67, 85
1, 528068, Note_on_c, 0, 65, 53
1, 528070, Control_c, 0, 64, 99
1, 528070, Control_c, 0, 67, 94
1, 528091, Control_c, 0, 64, 95
1, 528091, Control_c, 0, 67, 110
1, 528100, Note_on_c, 0, 44, 47
1, 528106, Control_c, 0, 64, 89
1, 528106, Control_c, 0, 67, 122
1, 528121, Control_c, 0, 64, 82
1, 528121, Control_c, 0, 67, 127
1, 528125, Note_off_c, 0, 66, 55
1, 528136, Control_c, 0, 64, 72
1, 528151, Control_c, 0, 64, 58
1, 528166, Control_c, 0, 64, 33
1, 528180, Control_c, 0, 64, 0
1, 528255, Control_c, 0, 64, 53
1, 528266, Note_off_c, 0, 73, 59
1, 528270, Control_c, 0, 64, 64
1, 528270, Note_on_c, 0, 71, 59
1, 528285, Control_c, 0, 64, 69
1, 528299, Control_c, 0, 64, 74
1, 528314, Control_c, 0, 64, 80
1, 528325, Note_off_c, 0, 44, 60
1, 528328, Note_off_c, 0, 71, 59
1, 528329, Control_c, 0, 64, 85
1, 528343, Control_c, 0, 64, 90
1, 528358, Control_c, 0, 64, 93
1, 528373, Control_c, 0, 64, 95
1, 528388, Control_c, 0, 64, 96
1, 528477, Control_c, 0, 64, 95
1, 528482, Note_on_c, 0, 71, 58
1, 528491, Control_c, 0, 64, 92
1, 528499, Note_on_c, 0, 42, 48
1, 528505, Note_on_c, 0, 66, 57
1, 528506, Control_c, 0, 64, 86
1, 528521, Control_c, 0, 64, 76
1, 528536, Control_c, 0, 64, 64
1, 528550, Control_c, 0, 64, 38
1, 528551, Note_off_c, 0, 65, 50
1, 528565, Control_c, 0, 64, 0
1, 528640, Control_c, 0, 64, 38
1, 528654, Control_c, 0, 64, 58
1, 528670, Control_c, 0, 64, 66
1, 528685, Control_c, 0, 64, 70
1, 528690, Note_on_c, 0, 69, 57
1, 528700, Control_c, 0, 64, 75
1, 528714, Control_c, 0, 64, 80
1, 528727, Note_off_c, 0, 42, 59
1, 528729, Control_c, 0, 64, 85
1, 528744, Control_c, 0, 64, 89
1, 528757, Note_off_c, 0, 66, 60
1, 528759, Control_c, 0, 64, 92
1, 528764, Note_off_c, 0, 71, 36
1, 528768, Note_off_c, 0, 69, 57
1, 528774, Control_c, 0, 64, 93
1, 528789, Control_c, 0, 64, 93
1, 528803, Control_c, 0, 64, 94
1, 528930, Control_c, 0, 64, 93
1, 528945, Control_c, 0, 64, 93
1, 528960, Control_c, 0, 64, 91
1, 528974, Control_c, 0, 64, 88
1, 528979, Note_on_c, 0, 68, 53
1, 528989, Note_on_c, 0, 65, 38
1, 528989, Control_c, 0, 64, 84
1, 529004, Control_c, 0, 64, 80
1, 529018, Note_on_c, 0, 37, 40
1, 529019, Control_c, 0, 64, 74
1, 529034, Control_c, 0, 64, 66
1, 529048, Control_c, 0, 64, 54
1, 529063, Control_c, 0, 64, 0
1, 529137, Control_c, 0, 64, 30
1, 529152, Control_c, 0, 64, 53
1, 529167, Control_c, 0, 64, 66
1, 529182, Control_c, 0, 64, 74
1, 529194, Note_off_c, 0, 37, 54
1, 529197, Control_c, 0, 64, 83
1, 529212, Control_c, 0, 64, 89
1, 529227, Control_c, 0, 64, 95
1, 529241, Control_c, 0, 64, 100
1, 529256, Control_c, 0, 64, 105
1, 529285, Control_c, 0, 64, 107
1, 529496, Note_on_c, 0, 61, 45
1, 529583, Control_c, 0, 64, 105
1, 529723, Control_c, 0, 64, 103
1, 529842, Control_c, 0, 64, 101
1, 529936, Note_on_c, 0, 49, 35
1, 530020, Control_c, 0, 64, 99
1, 530038, Note_off_c, 0, 61, 48
1, 530106, Note_off_c, 0, 65, 35
1, 530109, Note_off_c, 0, 49, 35
1, 530139, Note_off_c, 0, 68, 38
1, 530153, Control_c, 0, 64, 97
1, 530197, Control_c, 0, 64, 96
1, 530212, Control_c, 0, 64, 95
1, 530227, Control_c, 0, 64, 94
1, 530242, Control_c, 0, 64, 93
1, 530258, Control_c, 0, 64, 91
1, 530273, Control_c, 0, 64, 90
1, 530287, Control_c, 0, 64, 87
1, 530302, Control_c, 0, 64, 85
1, 530317, Control_c, 0, 64, 83
1, 530332, Control_c, 0, 64, 80
1, 530354, Control_c, 0, 64, 78
1, 530368, Control_c, 0, 64, 76
1, 530383, Control_c, 0, 64, 74
1, 530398, Control_c, 0, 64, 72
1, 530413, Control_c, 0, 64, 70
1, 530428, Control_c, 0, 64, 67
1, 530443, Control_c, 0, 64, 64
1, 530458, Control_c, 0, 64, 61
1, 530473, Control_c, 0, 64, 58
1, 530485, Note_on_c, 0, 69, 48
1, 530488, Control_c, 0, 64, 52
1, 530502, Control_c, 0, 64, 43
1, 530517, Control_c, 0, 64, 0
1, 530532, Note_on_c, 0, 42, 33
1, 530635, Control_c, 0, 64, 43
1, 530650, Control_c, 0, 64, 58
1, 530665, Control_c, 0, 64, 65
1, 530680, Control_c, 0, 64, 71
1, 530694, Control_c, 0, 64, 78
1, 530709, Control_c, 0, 64, 83
1, 530718, Note_off_c, 0, 42, 51
1, 530724, Control_c, 0, 64, 88
1, 530738, Control_c, 0, 64, 93
1, 530753, Control_c, 0, 64, 97
1, 530768, Control_c, 0, 64, 100
1, 530950, Note_on_c, 0, 61, 46
1, 531422, Note_on_c, 0, 49, 34
1, 531495, Note_off_c, 0, 61, 52
1, 531531, Note_off_c, 0, 49, 58
1, 531724, Control_c, 0, 64, 98
1, 531768, Control_c, 0, 64, 95
1, 531783, Control_c, 0, 64, 95
1, 531798, Control_c, 0, 64, 94
1, 531813, Control_c, 0, 64, 93
1, 531828, Control_c, 0, 64, 91
1, 531850, Control_c, 0, 64, 89
1, 531865, Control_c, 0, 64, 87
1, 531880, Control_c, 0, 64, 86
1, 531881, Note_on_c, 0, 68, 51
1, 531895, Control_c, 0, 64, 84
1, 531903, Note_on_c, 0, 41, 40
1, 531910, Control_c, 0, 64, 81
1, 531925, Control_c, 0, 64, 76
1, 531939, Control_c, 0, 64, 69
1, 531953, Note_off_c, 0, 69, 51
1, 531954, Control_c, 0, 64, 59
1, 531969, Control_c, 0, 64, 37
1, 531984, Control_c, 0, 64, 0
1, 532044, Control_c, 0, 64, 43
1, 532058, Control_c, 0, 64, 60
1, 532073, Control_c, 0, 64, 68
1, 532086, Note_off_c, 0, 41, 63
1, 532088, Control_c, 0, 64, 77
1, 532103, Control_c, 0, 64, 85
1, 532117, Control_c, 0, 64, 91
1, 532132, Control_c, 0, 64, 100
1, 532147, Control_c, 0, 64, 113
1, 532162, Control_c, 0, 64, 127
1, 532347, Note_on_c, 0, 61, 45
1, 532764, Note_on_c, 0, 49, 36
1, 532838, Note_off_c, 0, 61, 56
1, 532863, Note_off_c, 0, 49, 58
1, 532926, Note_off_c, 0, 68, 54
1, 533162, Note_on_c, 0, 71, 54
1, 533192, Control_c, 0, 64, 118
1, 533206, Control_c, 0, 64, 108
1, 533207, Note_on_c, 0, 42, 39
1, 533221, Control_c, 0, 64, 99
1, 533236, Control_c, 0, 64, 88
1, 533251, Control_c, 0, 64, 71
1, 533266, Control_c, 0, 64, 57
1, 533281, Control_c, 0, 64, 39
1, 533296, Control_c, 0, 64, 32
1, 533311, Note_on_c, 0, 69, 63
1, 533311, Control_c, 0, 64, 36
1, 533325, Control_c, 0, 64, 46
1, 533347, Control_c, 0, 64, 58
1, 533362, Control_c, 0, 64, 67
1, 533368, Note_off_c, 0, 71, 53
1, 533377, Control_c, 0, 64, 75
1, 533392, Control_c, 0, 64, 81
1, 533406, Control_c, 0, 64, 85
1, 533421, Control_c, 0, 64, 87
1, 533424, Note_off_c, 0, 42, 42
1, 533436, Control_c, 0, 64, 91
1, 533451, Control_c, 0, 64, 95
1, 533466, Control_c, 0, 64, 97
1, 533484, Note_on_c, 0, 68, 68
1, 533496, Control_c, 0, 64, 99
1, 533537, Note_off_c, 0, 69, 56
1, 533540, Control_c, 0, 64, 101
1, 533764, Note_on_c, 0, 69, 55
1, 533792, Control_c, 0, 64, 99
1, 533814, Note_on_c, 0, 61, 27
1, 533822, Control_c, 0, 64, 96
1, 533836, Control_c, 0, 64, 94
1, 533851, Control_c, 0, 64, 91
1, 533866, Control_c, 0, 64, 88
1, 533877, Note_off_c, 0, 68, 37
1, 533880, Control_c, 0, 64, 85
1, 533895, Control_c, 0, 64, 83
1, 533910, Control_c, 0, 64, 80
1, 533925, Control_c, 0, 64, 76
1, 533940, Control_c, 0, 64, 71
1, 533954, Control_c, 0, 64, 64
1, 533969, Control_c, 0, 64, 59
1, 533984, Control_c, 0, 64, 52
1, 533999, Control_c, 0, 64, 42
1, 534014, Control_c, 0, 64, 29
1, 534029, Control_c, 0, 64, 0
1, 534074, Control_c, 0, 64, 29
1, 534095, Control_c, 0, 64, 34
1, 534110, Control_c, 0, 64, 37
1, 534125, Control_c, 0, 64, 39
1, 534139, Note_off_c, 0, 69, 56
1, 534140, Control_c, 0, 64, 39
1, 534162, Note_on_c, 0, 73, 51
1, 534184, Control_c, 0, 64, 40
1, 534199, Control_c, 0, 64, 45
1, 534214, Control_c, 0, 64, 51
1, 534229, Control_c, 0, 64, 56
1, 534243, Note_off_c, 0, 73, 56
1, 534244, Control_c, 0, 64, 58
1, 534256, Note_on_c, 0, 69, 52
1, 534259, Control_c, 0, 64, 61
1, 534274, Control_c, 0, 64, 63
1, 534280, Note_on_c, 0, 49, 31
1, 534289, Control_c, 0, 64, 65
1, 534304, Control_c, 0, 64, 67
1, 534318, Control_c, 0, 64, 68
1, 534333, Control_c, 0, 64, 69
1, 534347, Note_off_c, 0, 61, 42
1, 534348, Control_c, 0, 64, 71
1, 534363, Control_c, 0, 64, 73
1, 534373, Note_off_c, 0, 49, 59
1, 534378, Control_c, 0, 64, 75
1, 534393, Control_c, 0, 64, 77
1, 534408, Control_c, 0, 64, 78
1, 534422, Control_c, 0, 64, 79
1, 534437, Control_c, 0, 64, 80
1, 534452, Control_c, 0, 64, 81
1, 534467, Control_c, 0, 64, 81
1, 534497, Control_c, 0, 64, 82
1, 534541, Control_c, 0, 64, 82
1, 534645, Control_c, 0, 64, 82
1, 534689, Control_c, 0, 64, 81
1, 534694, Note_on_c, 0, 68, 51
1, 534703, Control_c, 0, 64, 80
1, 534717, Note_on_c, 0, 41, 36
1, 534718, Control_c, 0, 64, 78
1, 534723, Note_off_c, 0, 69, 35
1, 534733, Control_c, 0, 64, 74
1, 534748, Control_c, 0, 64, 66
1, 534763, Control_c, 0, 64, 54
1, 534777, Control_c, 0, 64, 0
1, 534845, Control_c, 0, 64, 32
1, 534859, Control_c, 0, 64, 53
1, 534874, Control_c, 0, 64, 65
1, 534877, Note_off_c, 0, 41, 63
1, 534889, Control_c, 0, 64, 71
1, 534903, Control_c, 0, 64, 77
1, 534918, Control_c, 0, 64, 84
1, 534933, Control_c, 0, 64, 94
1, 534948, Control_c, 0, 64, 105
1, 534963, Control_c, 0, 64, 127
1, 535132, Note_on_c, 0, 61, 41
1, 535553, Note_on_c, 0, 49, 35
1, 535623, Control_c, 0, 67, 125
1, 535635, Note_off_c, 0, 61, 55
1, 535638, Control_c, 0, 67, 117
1, 535645, Note_off_c, 0, 68, 51
1, 535653, Control_c, 0, 67, 104
1, 535665, Note_off_c, 0, 49, 58
1, 535668, Control_c, 0, 67, 83
1, 535683, Control_c, 0, 67, 64
1, 535698, Control_c, 0, 67, 41
1, 535713, Control_c, 0, 67, 0
1, 535936, Control_c, 0, 64, 117
1, 535951, Control_c, 0, 64, 111
1, 535965, Control_c, 0, 64, 106
1, 535980, Control_c, 0, 64, 101
1, 535995, Control_c, 0, 64, 96
1, 536010, Control_c, 0, 64, 90
1, 536022, Note_on_c, 0, 71, 73
1, 536025, Control_c, 0, 64, 84
1, 536033, Note_on_c, 0, 66, 56
1, 536039, Control_c, 0, 64, 76
1, 536054, Control_c, 0, 64, 65
1, 536069, Control_c, 0, 64, 48
1, 536071, Note_on_c, 0, 42, 41
1, 536083, Control_c, 0, 64, 0
1, 536143, Control_c, 0, 64, 34
1, 536157, Control_c, 0, 64, 57
1, 536172, Control_c, 0, 64, 70
1, 536187, Control_c, 0, 64, 86
1, 536202, Control_c, 0, 64, 127
1, 536205, Note_off_c, 0, 42, 61
1, 536521, Note_on_c, 0, 62, 61
1, 536968, Note_on_c, 0, 50, 37
1, 536988, Note_off_c, 0, 62, 47
1, 537044, Note_off_c, 0, 50, 58
1, 537071, Note_off_c, 0, 66, 58
1, 537446, Note_on_c, 0, 69, 47
1, 537451, Note_on_c, 0, 66, 50
1, 537477, Control_c, 0, 64, 108
1, 537492, Control_c, 0, 64, 94
1, 537502, Note_on_c, 0, 42, 37
1, 537507, Control_c, 0, 64, 79
1, 537521, Control_c, 0, 64, 63
1, 537527, Note_off_c, 0, 71, 53
1, 537536, Control_c, 0, 64, 31
1, 537551, Control_c, 0, 64, 0
1, 537610, Control_c, 0, 64, 30
1, 537625, Control_c, 0, 64, 51
1, 537640, Control_c, 0, 64, 64
1, 537655, Control_c, 0, 64, 70
1, 537669, Note_off_c, 0, 42, 62
1, 537670, Control_c, 0, 64, 78
1, 537684, Control_c, 0, 64, 88
1, 537699, Control_c, 0, 64, 99
1, 537714, Control_c, 0, 64, 123
1, 537728, Control_c, 0, 64, 127
1, 537728, Control_c, 0, 67, 33
1, 537743, Control_c, 0, 67, 51
1, 537758, Control_c, 0, 67, 65
1, 537773, Control_c, 0, 67, 78
1, 537788, Control_c, 0, 67, 85
1, 537803, Control_c, 0, 67, 90
1, 537818, Control_c, 0, 67, 96
1, 537840, Control_c, 0, 67, 103
1, 537854, Control_c, 0, 67, 110
1, 537869, Control_c, 0, 67, 113
1, 537914, Control_c, 0, 67, 115
1, 537993, Note_on_c, 0, 61, 45
1, 538404, Note_on_c, 0, 49, 39
1, 538455, Note_off_c, 0, 61, 53
1, 538471, Note_off_c, 0, 66, 54
1, 538483, Note_off_c, 0, 49, 57
1, 538491, Note_off_c, 0, 69, 55
1, 538856, Control_c, 0, 64, 121
1, 538871, Control_c, 0, 64, 109
1, 538873, Note_on_c, 0, 69, 49
1, 538885, Control_c, 0, 64, 102
1, 538888, Note_on_c, 0, 65, 41
1, 538900, Control_c, 0, 64, 96
1, 538906, Note_on_c, 0, 37, 39
1, 538915, Control_c, 0, 64, 90
1, 538930, Control_c, 0, 64, 83
1, 538945, Control_c, 0, 64, 75
1, 538959, Control_c, 0, 64, 61
1, 538974, Control_c, 0, 64, 42
1, 538989, Control_c, 0, 64, 0
1, 539034, Control_c, 0, 64, 28
1, 539049, Control_c, 0, 64, 50
1, 539064, Control_c, 0, 64, 66
1, 539079, Note_on_c, 0, 68, 59
1, 539079, Control_c, 0, 64, 75
1, 539080, Note_off_c, 0, 37, 55
1, 539094, Control_c, 0, 64, 85
1, 539108, Control_c, 0, 64, 94
1, 539123, Note_off_c, 0, 69, 61
1, 539123, Control_c, 0, 64, 104
1, 539138, Control_c, 0, 64, 118
1, 539138, Control_c, 0, 67, 113
1, 539142, Note_off_c, 0, 65, 60
1, 539144, Note_off_c, 0, 68, 60
1, 539153, Control_c, 0, 64, 127
1, 539326, Note_on_c, 0, 68, 58
1, 539347, Note_on_c, 0, 65, 51
1, 539369, Note_on_c, 0, 61, 43
1, 539383, Control_c, 0, 64, 117
1, 539398, Control_c, 0, 64, 93
1, 539413, Control_c, 0, 64, 76
1, 539427, Control_c, 0, 64, 62
1, 539442, Control_c, 0, 64, 52
1, 539457, Control_c, 0, 64, 53
1, 539472, Control_c, 0, 64, 59
1, 539487, Control_c, 0, 64, 65
1, 539501, Control_c, 0, 64, 74
1, 539516, Control_c, 0, 64, 85
1, 539531, Control_c, 0, 64, 97
1, 539537, Note_off_c, 0, 65, 51
1, 539546, Control_c, 0, 64, 101
1, 539553, Note_off_c, 0, 68, 59
1, 539561, Control_c, 0, 64, 108
1, 539575, Control_c, 0, 64, 127
1, 539614, Note_off_c, 0, 61, 54
1, 539685, Note_on_c, 0, 69, 59
1, 539766, Note_on_c, 0, 68, 69
1, 539768, Control_c, 0, 64, 111
1, 539779, Note_on_c, 0, 65, 53
1, 539782, Note_off_c, 0, 69, 49
1, 539782, Control_c, 0, 64, 93
1, 539797, Note_on_c, 0, 49, 40
1, 539797, Control_c, 0, 64, 79
1, 539811, Note_on_c, 0, 61, 33
1, 539812, Control_c, 0, 64, 64
1, 539827, Control_c, 0, 64, 42
1, 539842, Control_c, 0, 64, 0
1, 539902, Control_c, 0, 64, 40
1, 539917, Control_c, 0, 64, 58
1, 539931, Control_c, 0, 64, 66
1, 539946, Note_off_c, 0, 65, 59
1, 539946, Control_c, 0, 64, 72
1, 539954, Note_off_c, 0, 49, 61
1, 539961, Control_c, 0, 64, 79
1, 539976, Control_c, 0, 64, 87
1, 539991, Control_c, 0, 64, 95
1, 540005, Note_off_c, 0, 61, 44
1, 540006, Control_c, 0, 64, 103
1, 540021, Control_c, 0, 64, 111
1, 540028, Note_off_c, 0, 68, 59
1, 540036, Control_c, 0, 64, 121
1, 540050, Control_c, 0, 64, 127
1, 540265, Control_c, 0, 64, 123
1, 540280, Control_c, 0, 64, 117
1, 540295, Control_c, 0, 64, 111
1, 540310, Control_c, 0, 64, 107
1, 540315, Note_on_c, 0, 69, 51
1, 540324, Control_c, 0, 64, 102
1, 540327, Note_on_c, 0, 66, 45
1, 540337, Note_on_c, 0, 61, 36
1, 540339, Control_c, 0, 64, 97
1, 540352, Note_on_c, 0, 42, 38
1, 540354, Control_c, 0, 64, 91
1, 540369, Control_c, 0, 64, 85
1, 540384, Control_c, 0, 64, 79
1, 540398, Control_c, 0, 64, 71
1, 540413, Control_c, 0, 64, 61
1, 540428, Control_c, 0, 64, 43
1, 540442, Control_c, 0, 64, 0
1, 540531, Control_c, 0, 64, 48
1, 540546, Control_c, 0, 64, 61
1, 540561, Control_c, 0, 64, 66
1, 540561, Control_c, 0, 67, 111
1, 540576, Control_c, 0, 64, 69
1, 540591, Control_c, 0, 64, 73
1, 540605, Control_c, 0, 64, 78
1, 540620, Control_c, 0, 64, 82
1, 540620, Control_c, 0, 67, 109
1, 540635, Control_c, 0, 64, 86
1, 540647, Note_off_c, 0, 42, 42
1, 540651, Control_c, 0, 64, 90
1, 540666, Control_c, 0, 64, 92
1, 540680, Control_c, 0, 64, 94
1, 540695, Control_c, 0, 64, 96
1, 540740, Control_c, 0, 64, 98
1, 540781, Note_on_c, 0, 57, 51
1, 540880, Control_c, 0, 67, 107
1, 541225, Note_on_c, 0, 49, 36
1, 541268, Note_off_c, 0, 57, 55
1, 541280, Control_c, 0, 67, 109
1, 541326, Note_off_c, 0, 49, 58
1, 541326, Note_off_c, 0, 66, 53
1, 541387, Note_off_c, 0, 61, 42
1, 541389, Note_off_c, 0, 69, 32
1, 541688, Control_c, 0, 64, 95
1, 541699, Note_on_c, 0, 69, 47
1, 541702, Control_c, 0, 64, 93
1, 541717, Control_c, 0, 64, 91
1, 541720, Note_on_c, 0, 65, 41
1, 541730, Note_on_c, 0, 37, 41
1, 541732, Control_c, 0, 64, 88
1, 541747, Control_c, 0, 64, 85
1, 541762, Control_c, 0, 64, 80
1, 541776, Control_c, 0, 64, 72
1, 541791, Control_c, 0, 64, 63
1, 541806, Control_c, 0, 64, 47
1, 541821, Control_c, 0, 64, 0
1, 541866, Control_c, 0, 64, 39
1, 541881, Control_c, 0, 64, 55
1, 541895, Control_c, 0, 64, 65
1, 541908, Note_off_c, 0, 37, 52
1, 541910, Control_c, 0, 64, 71
1, 541920, Note_on_c, 0, 68, 54
1, 541925, Control_c, 0, 64, 79
1, 541940, Control_c, 0, 64, 86
1, 541955, Control_c, 0, 64, 91
1, 541955, Note_off_c, 0, 69, 54
1, 541969, Control_c, 0, 64, 97
1, 541979, Note_off_c, 0, 68, 54
1, 541981, Note_off_c, 0, 65, 56
1, 541984, Control_c, 0, 64, 101
1, 541999, Control_c, 0, 64, 105
1, 542014, Control_c, 0, 64, 108
1, 542028, Control_c, 0, 64, 110
1, 542208, Note_on_c, 0, 68, 47
1, 542215, Note_on_c, 0, 65, 37
1, 542237, Control_c, 0, 64, 108
1, 542247, Note_on_c, 0, 61, 36
1, 542252, Control_c, 0, 64, 105
1, 542266, Control_c, 0, 64, 100
1, 542281, Control_c, 0, 64, 93
1, 542296, Control_c, 0, 64, 84
1, 542318, Control_c, 0, 64, 73
1, 542333, Control_c, 0, 64, 62
1, 542348, Control_c, 0, 64, 54
1, 542363, Control_c, 0, 64, 54
1, 542378, Control_c, 0, 64, 58
1, 542393, Control_c, 0, 64, 64
1, 542408, Control_c, 0, 64, 70
1, 542423, Control_c, 0, 64, 77
1, 542438, Control_c, 0, 64, 84
1, 542439, Note_off_c, 0, 65, 38
1, 542441, Note_off_c, 0, 68, 50
1, 542452, Control_c, 0, 64, 88
1, 542467, Control_c, 0, 64, 91
1, 542482, Control_c, 0, 64, 93
1, 542497, Control_c, 0, 64, 96
1, 542520, Note_off_c, 0, 61, 42
1, 542526, Control_c, 0, 64, 98
1, 542589, Note_on_c, 0, 69, 47
1, 542664, Note_off_c, 0, 69, 56
1, 542674, Control_c, 0, 64, 95
1, 542676, Note_on_c, 0, 68, 50
1, 542687, Note_on_c, 0, 65, 43
1, 542689, Control_c, 0, 64, 88
1, 542693, Note_on_c, 0, 61, 33
1, 542704, Control_c, 0, 64, 78
1, 542705, Note_on_c, 0, 49, 36
1, 542718, Control_c, 0, 64, 65
1, 542733, Control_c, 0, 64, 47
1, 542748, Control_c, 0, 64, 0
1, 542778, Control_c, 0, 64, 32
1, 542793, Control_c, 0, 64, 48
1, 542808, Control_c, 0, 64, 61
1, 542823, Control_c, 0, 64, 68
1, 542832, Note_off_c, 0, 65, 57
1, 542838, Control_c, 0, 64, 74
1, 542852, Control_c, 0, 64, 78
1, 542867, Control_c, 0, 64, 82
1, 542882, Control_c, 0, 64, 87
1, 542883, Note_off_c, 0, 49, 60
1, 542886, Note_off_c, 0, 61, 62
1, 542897, Control_c, 0, 64, 91
1, 542912, Control_c, 0, 64, 97
1, 542926, Control_c, 0, 64, 102
1, 542941, Control_c, 0, 64, 105
1, 542942, Note_off_c, 0, 68, 56
1, 542956, Control_c, 0, 64, 107
1, 543201, Control_c, 0, 64, 105
1, 543205, Note_on_c, 0, 66, 44
1, 543216, Note_on_c, 0, 61, 40
1, 543216, Control_c, 0, 64, 102
1, 543222, Note_on_c, 0, 57, 32
1, 543231, Control_c, 0, 64, 98
1, 543246, Control_c, 0, 64, 94
1, 543252, Note_on_c, 0, 42, 37
1, 543261, Control_c, 0, 64, 89
1, 543275, Control_c, 0, 64, 84
1, 543290, Control_c, 0, 64, 79
1, 543305, Control_c, 0, 64, 73
1, 543320, Control_c, 0, 64, 65
1, 543335, Control_c, 0, 64, 53
1, 543349, Control_c, 0, 64, 27
1, 543364, Control_c, 0, 64, 0
1, 543423, Control_c, 0, 67, 107
1, 543438, Control_c, 0, 64, 42
1, 543453, Control_c, 0, 64, 60
1, 543467, Control_c, 0, 64, 67
1, 543482, Control_c, 0, 64, 71
1, 543497, Control_c, 0, 64, 75
1, 543512, Control_c, 0, 64, 79
1, 543527, Control_c, 0, 64, 84
1, 543541, Control_c, 0, 64, 88
1, 543556, Control_c, 0, 64, 93
1, 543571, Control_c, 0, 64, 97
1, 543586, Control_c, 0, 64, 100
1, 543601, Control_c, 0, 64, 102
1, 543616, Control_c, 0, 64, 105
1, 543621, Note_off_c, 0, 42, 23
1, 543645, Control_c, 0, 64, 108
1, 543684, Note_on_c, 0, 49, 35
1, 543749, Control_c, 0, 67, 109
1, 543793, Control_c, 0, 67, 111
1, 543830, Control_c, 0, 67, 115
1, 543861, Control_c, 0, 67, 119
1, 543920, Control_c, 0, 67, 121
1, 543950, Control_c, 0, 67, 123
1, 543973, Note_off_c, 0, 49, 37
1, 543979, Control_c, 0, 67, 127
1, 544170, Note_off_c, 0, 57, 35
1, 544186, Note_on_c, 0, 54, 29
1, 544276, Note_off_c, 0, 61, 36
1, 544328, Note_off_c, 0, 66, 41
1, 544372, Note_off_c, 0, 54, 43
1, 544543, Control_c, 0, 64, 106
1, 544579, Control_c, 0, 64, 104
1, 544594, Control_c, 0, 64, 102
1, 544623, Control_c, 0, 64, 98
1, 544638, Control_c, 0, 64, 96
1, 544654, Control_c, 0, 64, 94
1, 544669, Control_c, 0, 64, 92
1, 544684, Control_c, 0, 64, 90
1, 544699, Control_c, 0, 64, 88
1, 544714, Control_c, 0, 64, 85
1, 544728, Control_c, 0, 64, 83
1, 544743, Control_c, 0, 64, 81
1, 544758, Control_c, 0, 64, 79
1, 544773, Control_c, 0, 64, 76
1, 544788, Control_c, 0, 64, 73
1, 544802, Control_c, 0, 64, 70
1, 544817, Control_c, 0, 64, 67
1, 544832, Control_c, 0, 64, 64
1, 544847, Control_c, 0, 64, 62
1, 544862, Control_c, 0, 64, 60
1, 544877, Control_c, 0, 64, 58
1, 544891, Control_c, 0, 64, 55
1, 544906, Control_c, 0, 64, 52
1, 544921, Control_c, 0, 64, 47
1, 544936, Control_c, 0, 64, 42
1, 544951, Control_c, 0, 64, 36
1, 544966, Control_c, 0, 64, 30
1, 544981, Control_c, 0, 64, 0
1, 545046, Note_on_c, 0, 69, 47
1, 545114, Note_on_c, 0, 40, 25
1, 545128, Control_c, 0, 64, 29
1, 545143, Control_c, 0, 64, 40
1, 545158, Control_c, 0, 64, 51
1, 545173, Control_c, 0, 64, 58
1, 545187, Control_c, 0, 64, 62
1, 545202, Control_c, 0, 64, 64
1, 545217, Control_c, 0, 64, 66
1, 545232, Control_c, 0, 64, 69
1, 545246, Control_c, 0, 64, 73
1, 545261, Control_c, 0, 64, 77
1, 545276, Control_c, 0, 64, 83
1, 545291, Control_c, 0, 64, 88
1, 545306, Control_c, 0, 64, 94
1, 545323, Note_off_c, 0, 40, 39
1, 545328, Control_c, 0, 64, 100
1, 545343, Control_c, 0, 64, 106
1, 545358, Control_c, 0, 64, 112
1, 545372, Control_c, 0, 64, 123
1, 545386, Control_c, 0, 64, 127
1, 545668, Note_on_c, 0, 57, 31
1, 546145, Note_on_c, 0, 49, 19
1, 546221, Note_off_c, 0, 57, 41
1, 546228, Note_off_c, 0, 49, 54
1, 546603, Note_on_c, 0, 68, 47
1, 546676, Note_on_c, 0, 40, 37
1, 546684, Control_c, 0, 64, 109
1, 546699, Control_c, 0, 64, 97
1, 546713, Note_off_c, 0, 69, 37
1, 546714, Control_c, 0, 64, 80
1, 546729, Control_c, 0, 64, 65
1, 546744, Control_c, 0, 64, 48
1, 546758, Control_c, 0, 64, 0
1, 546788, Control_c, 0, 64, 36
1, 546810, Control_c, 0, 64, 53
1, 546825, Control_c, 0, 64, 66
1, 546829, Note_off_c, 0, 40, 61
1, 546840, Control_c, 0, 64, 74
1, 546855, Control_c, 0, 64, 83
1, 546870, Control_c, 0, 64, 92
1, 546884, Control_c, 0, 64, 99
1, 546899, Control_c, 0, 64, 108
1, 546914, Control_c, 0, 64, 126
1, 547095, Note_on_c, 0, 59, 38
1, 547508, Note_on_c, 0, 50, 33
1, 547578, Note_off_c, 0, 59, 59
1, 547604, Note_off_c, 0, 50, 60
1, 547676, Note_off_c, 0, 68, 54
1, 547907, Note_on_c, 0, 71, 51
1, 547915, Control_c, 0, 64, 117
1, 547930, Control_c, 0, 64, 109
1, 547944, Control_c, 0, 64, 98
1, 547959, Control_c, 0, 64, 85
1, 547964, Note_on_c, 0, 40, 37
1, 547974, Control_c, 0, 64, 71
1, 547989, Control_c, 0, 64, 58
1, 548004, Control_c, 0, 64, 46
1, 548018, Control_c, 0, 64, 45
1, 548026, Note_on_c, 0, 69, 62
1, 548033, Control_c, 0, 64, 53
1, 548048, Control_c, 0, 64, 60
1, 548063, Control_c, 0, 64, 66
1, 548078, Control_c, 0, 64, 74
1, 548078, Note_off_c, 0, 71, 49
1, 548093, Control_c, 0, 64, 83
1, 548108, Control_c, 0, 64, 89
1, 548123, Control_c, 0, 64, 94
1, 548137, Control_c, 0, 64, 99
1, 548152, Control_c, 0, 64, 104
1, 548153, Note_off_c, 0, 40, 59
1, 548167, Control_c, 0, 64, 109
1, 548181, Control_c, 0, 64, 114
1, 548182, Note_on_c, 0, 68, 67
1, 548196, Control_c, 0, 64, 120
1, 548211, Control_c, 0, 64, 127
1, 548246, Note_off_c, 0, 69, 56
1, 548436, Note_on_c, 0, 69, 65
1, 548457, Control_c, 0, 64, 121
1, 548471, Control_c, 0, 64, 117
1, 548486, Control_c, 0, 64, 112
1, 548491, Note_on_c, 0, 57, 32
1, 548501, Control_c, 0, 64, 107
1, 548516, Control_c, 0, 64, 99
1, 548531, Control_c, 0, 64, 89
1, 548545, Control_c, 0, 64, 77
1, 548560, Control_c, 0, 64, 65
1, 548575, Control_c, 0, 64, 56
1, 548579, Note_off_c, 0, 68, 36
1, 548589, Control_c, 0, 64, 54
1, 548604, Control_c, 0, 64, 58
1, 548619, Control_c, 0, 64, 64
1, 548635, Control_c, 0, 64, 69
1, 548650, Control_c, 0, 64, 79
1, 548665, Control_c, 0, 64, 88
1, 548679, Control_c, 0, 64, 94
1, 548694, Control_c, 0, 64, 101
1, 548709, Control_c, 0, 64, 107
1, 548724, Control_c, 0, 64, 112
1, 548739, Control_c, 0, 64, 120
1, 548740, Note_off_c, 0, 69, 52
1, 548753, Control_c, 0, 64, 127
1, 548786, Note_on_c, 0, 73, 51
1, 548833, Note_off_c, 0, 73, 58
1, 548857, Control_c, 0, 64, 105
1, 548863, Note_on_c, 0, 69, 58
1, 548872, Control_c, 0, 64, 86
1, 548886, Control_c, 0, 64, 70
1, 548901, Control_c, 0, 64, 58
1, 548916, Control_c, 0, 64, 51
1, 548928, Note_on_c, 0, 49, 29
1, 548931, Control_c, 0, 64, 52
1, 548943, Note_off_c, 0, 57, 41
1, 548946, Control_c, 0, 64, 58
1, 548960, Control_c, 0, 64, 66
1, 548975, Control_c, 0, 64, 73
1, 548990, Control_c, 0, 64, 81
1, 549002, Note_off_c, 0, 49, 55
1, 549005, Control_c, 0, 64, 85
1, 549020, Control_c, 0, 64, 90
1, 549035, Control_c, 0, 64, 96
1, 549050, Control_c, 0, 64, 101
1, 549072, Control_c, 0, 64, 107
1, 549086, Control_c, 0, 64, 109
1, 549279, Control_c, 0, 64, 106
1, 549294, Control_c, 0, 64, 104
1, 549309, Control_c, 0, 64, 101
1, 549324, Control_c, 0, 64, 99
1, 549329, Note_off_c, 0, 69, 30
1, 549339, Control_c, 0, 64, 96
1, 549347, Note_on_c, 0, 68, 50
1, 549354, Control_c, 0, 64, 93
1, 549368, Control_c, 0, 64, 88
1, 549383, Control_c, 0, 64, 85
1, 549390, Note_on_c, 0, 40, 33
1, 549398, Control_c, 0, 64, 82
1, 549412, Control_c, 0, 64, 78
1, 549427, Control_c, 0, 64, 71
1, 549443, Control_c, 0, 64, 60
1, 549458, Control_c, 0, 64, 39
1, 549473, Control_c, 0, 64, 0
1, 549517, Control_c, 0, 64, 34
1, 549532, Control_c, 0, 64, 55
1, 549547, Control_c, 0, 64, 66
1, 549562, Control_c, 0, 64, 73
1, 549576, Control_c, 0, 64, 83
1, 549581, Note_off_c, 0, 40, 54
1, 549591, Control_c, 0, 64, 90
1, 549606, Control_c, 0, 64, 100
1, 549621, Control_c, 0, 64, 116
1, 549635, Control_c, 0, 64, 127
1, 549847, Note_on_c, 0, 59, 40
1, 549954, Control_c, 0, 64, 106
1, 549968, Control_c, 0, 64, 99
1, 550042, Control_c, 0, 64, 104
1, 550057, Control_c, 0, 64, 108
1, 550072, Control_c, 0, 64, 113
1, 550087, Control_c, 0, 64, 117
1, 550102, Control_c, 0, 64, 120
1, 550117, Control_c, 0, 64, 126
1, 550263, Note_on_c, 0, 50, 34
1, 550327, Note_off_c, 0, 59, 58
1, 550354, Note_off_c, 0, 50, 58
1, 550414, Control_c, 0, 67, 115
1, 550429, Control_c, 0, 67, 101
1, 550444, Control_c, 0, 67, 86
1, 550458, Control_c, 0, 67, 72
1, 550473, Control_c, 0, 67, 58
1, 550488, Control_c, 0, 67, 39
1, 550503, Control_c, 0, 67, 0
1, 550532, Note_off_c, 0, 68, 38
1, 550699, Note_on_c, 0, 73, 60
1, 550718, Control_c, 0, 64, 114
1, 550732, Control_c, 0, 64, 109
1, 550747, Control_c, 0, 64, 106
1, 550762, Control_c, 0, 64, 101
1, 550768, Note_on_c, 0, 40, 34
1, 550777, Control_c, 0, 64, 94
1, 550791, Control_c, 0, 64, 85
1, 550806, Control_c, 0, 64, 71
1, 550821, Control_c, 0, 64, 59
1, 550836, Control_c, 0, 64, 45
1, 550851, Control_c, 0, 64, 42
1, 550865, Control_c, 0, 64, 46
1, 550880, Control_c, 0, 64, 58
1, 550895, Control_c, 0, 64, 70
1, 550910, Control_c, 0, 64, 89
1, 550925, Control_c, 0, 64, 127
1, 550947, Note_off_c, 0, 40, 48
1, 551153, Note_on_c, 0, 57, 47
1, 551382, Note_off_c, 0, 73, 59
1, 551600, Note_on_c, 0, 73, 47
1, 551619, Note_on_c, 0, 49, 30
1, 551662, Note_off_c, 0, 57, 60
1, 551673, Note_off_c, 0, 73, 63
1, 551699, Note_on_c, 0, 74, 61
1, 551724, Note_off_c, 0, 49, 57
1, 551760, Note_off_c, 0, 74, 62
1, 551771, Note_on_c, 0, 73, 71
1, 551824, Note_off_c, 0, 73, 63
1, 551841, Note_on_c, 0, 71, 71
1, 551919, Note_on_c, 0, 73, 73
1, 551970, Note_off_c, 0, 71, 50
1, 552001, Control_c, 0, 64, 117
1, 552016, Control_c, 0, 64, 104
1, 552030, Control_c, 0, 64, 97
1, 552045, Control_c, 0, 64, 91
1, 552067, Control_c, 0, 64, 86
1, 552079, Note_on_c, 0, 76, 64
1, 552082, Control_c, 0, 64, 82
1, 552097, Control_c, 0, 64, 77
1, 552111, Control_c, 0, 64, 70
1, 552126, Control_c, 0, 64, 62
1, 552130, Note_off_c, 0, 73, 59
1, 552134, Note_on_c, 0, 40, 33
1, 552141, Control_c, 0, 64, 55
1, 552156, Control_c, 0, 64, 41
1, 552171, Control_c, 0, 64, 0
1, 552245, Control_c, 0, 64, 45
1, 552260, Control_c, 0, 64, 59
1, 552275, Control_c, 0, 64, 65
1, 552290, Control_c, 0, 64, 70
1, 552290, Control_c, 0, 67, 34
1, 552304, Control_c, 0, 64, 75
1, 552304, Control_c, 0, 67, 54
1, 552319, Control_c, 0, 64, 82
1, 552319, Control_c, 0, 67, 72
1, 552334, Control_c, 0, 64, 87
1, 552334, Control_c, 0, 67, 83
1, 552338, Note_off_c, 0, 40, 51
1, 552348, Control_c, 0, 64, 95
1, 552348, Control_c, 0, 67, 93
1, 552363, Control_c, 0, 64, 103
1, 552363, Control_c, 0, 67, 101
1, 552378, Control_c, 0, 64, 110
1, 552378, Control_c, 0, 67, 112
1, 552393, Control_c, 0, 64, 117
1, 552393, Control_c, 0, 67, 119
1, 552408, Control_c, 0, 64, 127
1, 552408, Control_c, 0, 67, 123
1, 552452, Control_c, 0, 67, 125
1, 552496, Control_c, 0, 67, 127
1, 552594, Note_on_c, 0, 74, 53
1, 552624, Note_on_c, 0, 56, 40
1, 552734, Control_c, 0, 64, 108
1, 552749, Control_c, 0, 64, 90
1, 552764, Control_c, 0, 64, 80
1, 552779, Control_c, 0, 64, 75
1, 552794, Control_c, 0, 64, 74
1, 552816, Control_c, 0, 64, 76
1, 552820, Note_off_c, 0, 76, 37
1, 552831, Control_c, 0, 64, 80
1, 552846, Control_c, 0, 64, 86
1, 552860, Control_c, 0, 64, 90
1, 552875, Control_c, 0, 64, 94
1, 552890, Control_c, 0, 64, 96
1, 552905, Control_c, 0, 64, 98
1, 552920, Control_c, 0, 64, 100
1, 552949, Control_c, 0, 64, 104
1, 552964, Control_c, 0, 64, 106
1, 552994, Control_c, 0, 64, 109
1, 553009, Note_on_c, 0, 47, 42
1, 553023, Control_c, 0, 64, 111
1, 553068, Control_c, 0, 64, 114
1, 553085, Note_off_c, 0, 56, 57
1, 553120, Note_off_c, 0, 47, 60
1, 553275, Note_off_c, 0, 74, 42
1, 553378, Control_c, 0, 64, 112
1, 553408, Control_c, 0, 64, 108
1, 553424, Control_c, 0, 64, 106
1, 553433, Note_on_c, 0, 74, 68
1, 553439, Control_c, 0, 64, 104
1, 553454, Control_c, 0, 64, 100
1, 553468, Control_c, 0, 64, 96
1, 553483, Control_c, 0, 64, 88
1, 553483, Control_c, 0, 67, 125
1, 553484, Note_on_c, 0, 40, 41
1, 553498, Control_c, 0, 64, 78
1, 553513, Control_c, 0, 64, 65
1, 553528, Control_c, 0, 64, 52
1, 553543, Control_c, 0, 64, 39
1, 553565, Control_c, 0, 64, 37
1, 553580, Control_c, 0, 64, 43
1, 553595, Control_c, 0, 64, 55
1, 553609, Control_c, 0, 64, 65
1, 553624, Control_c, 0, 64, 74
1, 553634, Note_on_c, 0, 73, 72
1, 553639, Control_c, 0, 64, 83
1, 553654, Control_c, 0, 64, 94
1, 553655, Note_off_c, 0, 40, 59
1, 553662, Note_off_c, 0, 74, 63
1, 553669, Control_c, 0, 64, 101
1, 553683, Control_c, 0, 64, 110
1, 553698, Control_c, 0, 64, 127
1, 553700, Note_off_c, 0, 73, 60
1, 553772, Control_c, 0, 67, 123
1, 553844, Note_on_c, 0, 73, 63
1, 553851, Note_on_c, 0, 68, 49
1, 553861, Control_c, 0, 64, 106
1, 553876, Control_c, 0, 64, 94
1, 553885, Note_on_c, 0, 41, 50
1, 553890, Note_on_c, 0, 49, 43
1, 553891, Control_c, 0, 64, 82
1, 553906, Control_c, 0, 64, 70
1, 553906, Control_c, 0, 67, 121
1, 553921, Control_c, 0, 64, 58
1, 553935, Control_c, 0, 64, 36
1, 553950, Control_c, 0, 64, 0
1, 554009, Control_c, 0, 64, 37
1, 554024, Control_c, 0, 64, 55
1, 554037, Note_on_c, 0, 71, 60
1, 554039, Control_c, 0, 64, 65
1, 554053, Note_off_c, 0, 41, 60
1, 554053, Note_off_c, 0, 73, 56
1, 554054, Control_c, 0, 64, 71
1, 554056, Note_off_c, 0, 49, 55
1, 554069, Control_c, 0, 64, 75
1, 554079, Note_off_c, 0, 71, 62
1, 554083, Control_c, 0, 64, 78
1, 554098, Control_c, 0, 64, 82
1, 554113, Control_c, 0, 64, 86
1, 554127, Control_c, 0, 64, 89
1, 554142, Control_c, 0, 64, 90
1, 554157, Control_c, 0, 64, 91
1, 554262, Control_c, 0, 64, 89
1, 554264, Note_on_c, 0, 71, 58
1, 554273, Note_on_c, 0, 49, 40
1, 554277, Control_c, 0, 64, 84
1, 554283, Note_on_c, 0, 42, 46
1, 554283, Note_on_c, 0, 66, 54
1, 554299, Control_c, 0, 64, 74
1, 554314, Control_c, 0, 64, 62
1, 554329, Control_c, 0, 64, 39
1, 554344, Control_c, 0, 64, 0
1, 554397, Note_off_c, 0, 68, 37
1, 554432, Control_c, 0, 67, 119
1, 554447, Control_c, 0, 64, 45
1, 554462, Control_c, 0, 64, 59
1, 554477, Control_c, 0, 64, 65
1, 554477, Control_c, 0, 67, 117
1, 554481, Note_on_c, 0, 69, 55
1, 554485, Note_off_c, 0, 49, 57
1, 554488, Note_off_c, 0, 71, 55
1, 554490, Note_off_c, 0, 42, 62
1, 554492, Control_c, 0, 64, 70
1, 554506, Control_c, 0, 64, 76
1, 554521, Control_c, 0, 64, 82
1, 554536, Control_c, 0, 64, 88
1, 554550, Note_off_c, 0, 69, 55
1, 554551, Control_c, 0, 64, 93
1, 554566, Control_c, 0, 64, 96
1, 554566, Control_c, 0, 67, 114
1, 554699, Control_c, 0, 64, 95
1, 554713, Control_c, 0, 64, 93
1, 554728, Control_c, 0, 64, 90
1, 554734, Note_off_c, 0, 66, 34
1, 554743, Control_c, 0, 64, 85
1, 554746, Note_on_c, 0, 68, 49
1, 554756, Note_on_c, 0, 65, 44
1, 554758, Control_c, 0, 64, 79
1, 554773, Control_c, 0, 64, 70
1, 554788, Control_c, 0, 64, 60
1, 554791, Note_on_c, 0, 37, 39
1, 554803, Control_c, 0, 64, 46
1, 554818, Control_c, 0, 64, 0
1, 554832, Control_c, 0, 67, 112
1, 554847, Control_c, 0, 67, 108
1, 554862, Control_c, 0, 67, 101
1, 554877, Control_c, 0, 67, 94
1, 554892, Control_c, 0, 67, 74
1, 554906, Control_c, 0, 67, 36
1, 554921, Control_c, 0, 67, 0
1, 554936, Control_c, 0, 64, 29
1, 554950, Control_c, 0, 64, 54
1, 554965, Control_c, 0, 64, 65
1, 554970, Note_off_c, 0, 37, 57
1, 554980, Control_c, 0, 64, 72
1, 554995, Control_c, 0, 64, 80
1, 555010, Control_c, 0, 64, 87
1, 555026, Control_c, 0, 64, 96
1, 555041, Control_c, 0, 64, 112
1, 555062, Control_c, 0, 64, 127
1, 555245, Note_on_c, 0, 61, 33
1, 555462, Note_off_c, 0, 65, 37
1, 555563, Note_off_c, 0, 68, 38
1, 555698, Note_on_c, 0, 49, 30
1, 555813, Note_off_c, 0, 61, 42
1, 555857, Note_off_c, 0, 49, 36
1, 556108, Control_c, 0, 64, 116
1, 556123, Control_c, 0, 64, 109
1, 556138, Control_c, 0, 64, 104
1, 556152, Control_c, 0, 64, 98
1, 556167, Control_c, 0, 64, 94
1, 556182, Control_c, 0, 64, 89
1, 556196, Control_c, 0, 64, 85
1, 556211, Control_c, 0, 64, 79
1, 556226, Control_c, 0, 64, 75
1, 556241, Control_c, 0, 64, 69
1, 556256, Control_c, 0, 64, 64
1, 556270, Control_c, 0, 64, 57
1, 556285, Control_c, 0, 64, 44
1, 556300, Control_c, 0, 64, 0
1, 556315, Note_on_c, 0, 78, 75
1, 556319, Note_on_c, 0, 71, 73
1, 556332, Note_on_c, 0, 66, 68
1, 556355, Note_on_c, 0, 42, 59
1, 556419, Control_c, 0, 64, 49
1, 556433, Control_c, 0, 64, 64
1, 556448, Control_c, 0, 64, 75
1, 556463, Control_c, 0, 64, 91
1, 556478, Control_c, 0, 64, 110
1, 556493, Control_c, 0, 64, 127
1, 556512, Note_off_c, 0, 42, 60
1, 556993, Note_on_c, 0, 62, 51
1, 557536, Note_on_c, 0, 50, 32
1, 557560, Note_off_c, 0, 62, 50
1, 557605, Note_off_c, 0, 50, 54
1, 557685, Note_off_c, 0, 71, 56
1, 557694, Note_off_c, 0, 66, 40
1, 558054, Note_on_c, 0, 66, 41
1, 558058, Note_on_c, 0, 73, 45
1, 558073, Note_on_c, 0, 69, 39
1, 558087, Control_c, 0, 64, 116
1, 558101, Control_c, 0, 64, 103
1, 558115, Control_c, 0, 64, 91
1, 558121, Note_on_c, 0, 42, 34
1, 558130, Control_c, 0, 64, 79
1, 558145, Control_c, 0, 64, 63
1, 558160, Control_c, 0, 64, 42
1, 558174, Control_c, 0, 64, 0
1, 558193, Note_off_c, 0, 78, 52
1, 558250, Control_c, 0, 64, 47
1, 558265, Control_c, 0, 64, 62
1, 558279, Control_c, 0, 64, 70
1, 558294, Control_c, 0, 64, 77
1, 558294, Control_c, 0, 67, 34
1, 558309, Control_c, 0, 64, 83
1, 558309, Control_c, 0, 67, 49
1, 558324, Control_c, 0, 64, 88
1, 558324, Control_c, 0, 67, 64
1, 558335, Note_off_c, 0, 42, 61
1, 558339, Control_c, 0, 64, 94
1, 558339, Control_c, 0, 67, 79
1, 558353, Control_c, 0, 64, 100
1, 558353, Control_c, 0, 67, 94
1, 558368, Control_c, 0, 64, 105
1, 558368, Control_c, 0, 67, 103
1, 558383, Control_c, 0, 64, 108
1, 558383, Control_c, 0, 67, 109
1, 558398, Control_c, 0, 67, 116
1, 558413, Control_c, 0, 67, 124
1, 558428, Control_c, 0, 67, 127
1, 558443, Control_c, 0, 64, 110
1, 558591, Note_on_c, 0, 61, 37
1, 558997, Note_on_c, 0, 49, 36
1, 559012, Note_off_c, 0, 69, 58
1, 559061, Note_off_c, 0, 49, 58
1, 559063, Note_off_c, 0, 73, 55
1, 559071, Note_off_c, 0, 61, 39
1, 559158, Note_off_c, 0, 66, 38
1, 559325, Control_c, 0, 64, 108
1, 559354, Control_c, 0, 64, 104
1, 559369, Control_c, 0, 64, 101
1, 559384, Control_c, 0, 64, 98
1, 559399, Control_c, 0, 64, 95
1, 559412, Note_on_c, 0, 73, 47
1, 559413, Control_c, 0, 64, 92
1, 559428, Control_c, 0, 64, 89
1, 559429, Note_on_c, 0, 69, 39
1, 559441, Note_on_c, 0, 65, 31
1, 559443, Control_c, 0, 64, 86
1, 559449, Note_on_c, 0, 37, 36
1, 559458, Control_c, 0, 64, 82
1, 559473, Control_c, 0, 64, 76
1, 559487, Control_c, 0, 64, 67
1, 559502, Control_c, 0, 64, 58
1, 559517, Control_c, 0, 64, 44
1, 559532, Control_c, 0, 64, 31
1, 559569, Control_c, 0, 64, 44
1, 559584, Control_c, 0, 64, 57
1, 559599, Control_c, 0, 64, 67
1, 559612, Note_off_c, 0, 37, 53
1, 559614, Control_c, 0, 64, 75
1, 559628, Control_c, 0, 64, 85
1, 559643, Control_c, 0, 64, 91
1, 559649, Note_on_c, 0, 68, 46
1, 559658, Control_c, 0, 64, 96
1, 559669, Note_off_c, 0, 69, 59
1, 559673, Control_c, 0, 64, 104
1, 559688, Control_c, 0, 64, 113
1, 559692, Note_off_c, 0, 68, 62
1, 559695, Note_off_c, 0, 73, 53
1, 559702, Control_c, 0, 64, 127
1, 559706, Note_off_c, 0, 65, 43
1, 559868, Note_on_c, 0, 73, 50
1, 559881, Control_c, 0, 64, 108
1, 559893, Note_on_c, 0, 68, 48
1, 559896, Control_c, 0, 64, 89
1, 559904, Note_on_c, 0, 65, 33
1, 559910, Control_c, 0, 64, 75
1, 559924, Note_on_c, 0, 61, 38
1, 559925, Control_c, 0, 64, 67
1, 559940, Control_c, 0, 64, 67
1, 559955, Control_c, 0, 64, 71
1, 559969, Control_c, 0, 64, 77
1, 559984, Control_c, 0, 64, 83
1, 559999, Control_c, 0, 64, 89
1, 560014, Control_c, 0, 64, 96
1, 560029, Control_c, 0, 64, 105
1, 560043, Control_c, 0, 64, 121
1, 560058, Control_c, 0, 64, 127
1, 560105, Note_off_c, 0, 65, 43
1, 560105, Note_off_c, 0, 68, 56
1, 560113, Note_off_c, 0, 73, 59
1, 560195, Note_off_c, 0, 61, 36
1, 560210, Note_on_c, 0, 69, 56
1, 560266, Control_c, 0, 64, 120
1, 560279, Note_on_c, 0, 73, 68
1, 560281, Control_c, 0, 64, 100
1, 560295, Note_off_c, 0, 69, 58
1, 560303, Control_c, 0, 64, 86
1, 560307, Note_on_c, 0, 68, 57
1, 560318, Control_c, 0, 64, 71
1, 560319, Note_on_c, 0, 65, 47
1, 560332, Control_c, 0, 64, 56
1, 560340, Note_on_c, 0, 49, 31
1, 560347, Control_c, 0, 64, 31
1, 560362, Control_c, 0, 64, 0
1, 560392, Control_c, 0, 64, 28
1, 560407, Control_c, 0, 64, 49
1, 560422, Control_c, 0, 64, 62
1, 560437, Control_c, 0, 64, 68
1, 560451, Control_c, 0, 64, 73
1, 560466, Control_c, 0, 64, 77
1, 560478, Note_off_c, 0, 49, 47
1, 560481, Control_c, 0, 64, 82
1, 560495, Note_off_c, 0, 68, 57
1, 560495, Control_c, 0, 64, 88
1, 560504, Note_off_c, 0, 65, 47
1, 560509, Note_off_c, 0, 73, 56
1, 560510, Control_c, 0, 64, 93
1, 560525, Control_c, 0, 64, 98
1, 560540, Control_c, 0, 64, 100
1, 560584, Control_c, 0, 64, 102
1, 560733, Control_c, 0, 64, 99
1, 560748, Control_c, 0, 64, 97
1, 560763, Control_c, 0, 64, 94
1, 560778, Control_c, 0, 64, 90
1, 560784, Note_on_c, 0, 73, 49
1, 560792, Control_c, 0, 64, 87
1, 560803, Note_on_c, 0, 66, 45
1, 560807, Control_c, 0, 64, 83
1, 560822, Control_c, 0, 64, 78
1, 560825, Note_on_c, 0, 69, 35
1, 560837, Control_c, 0, 64, 72
1, 560852, Control_c, 0, 64, 64
1, 560866, Control_c, 0, 64, 52
1, 560878, Note_on_c, 0, 42, 26
1, 560881, Control_c, 0, 64, 0
1, 560970, Control_c, 0, 64, 46
1, 560985, Control_c, 0, 64, 60
1, 561000, Control_c, 0, 64, 67
1, 561015, Control_c, 0, 64, 72
1, 561030, Control_c, 0, 64, 77
1, 561052, Control_c, 0, 64, 82
1, 561066, Note_off_c, 0, 42, 38
1, 561066, Control_c, 0, 64, 88
1, 561081, Control_c, 0, 64, 95
1, 561096, Control_c, 0, 64, 101
1, 561111, Control_c, 0, 64, 107
1, 561125, Control_c, 0, 64, 112
1, 561140, Control_c, 0, 64, 120
1, 561155, Control_c, 0, 64, 127
1, 561291, Note_on_c, 0, 61, 35
1, 561659, Note_off_c, 0, 73, 35
1, 561675, Note_off_c, 0, 66, 51
1, 561701, Note_on_c, 0, 49, 36
1, 561712, Note_off_c, 0, 69, 43
1, 561744, Note_off_c, 0, 61, 42
1, 561770, Note_off_c, 0, 49, 56
1, 562097, Control_c, 0, 64, 117
1, 562112, Control_c, 0, 64, 110
1, 562117, Note_on_c, 0, 69, 48
1, 562127, Control_c, 0, 64, 104
1, 562130, Note_on_c, 0, 61, 37
1, 562136, Note_on_c, 0, 65, 41
1, 562142, Control_c, 0, 64, 97
1, 562153, Note_on_c, 0, 37, 40
1, 562157, Control_c, 0, 64, 88
1, 562172, Control_c, 0, 64, 76
1, 562187, Control_c, 0, 64, 63
1, 562202, Control_c, 0, 64, 49
1, 562217, Control_c, 0, 64, 40
1, 562232, Control_c, 0, 64, 43
1, 562246, Control_c, 0, 64, 53
1, 562261, Control_c, 0, 64, 62
1, 562276, Control_c, 0, 64, 71
1, 562286, Note_off_c, 0, 37, 54
1, 562291, Control_c, 0, 64, 82
1, 562306, Control_c, 0, 64, 95
1, 562315, Note_on_c, 0, 68, 57
1, 562321, Control_c, 0, 64, 105
1, 562336, Control_c, 0, 64, 117
1, 562336, Note_off_c, 0, 61, 50
1, 562351, Note_off_c, 0, 69, 53
1, 562351, Control_c, 0, 64, 127
1, 562378, Note_off_c, 0, 65, 57
1, 562383, Note_off_c, 0, 68, 58
1, 562550, Note_on_c, 0, 68, 50
1, 562559, Note_on_c, 0, 65, 45
1, 562580, Control_c, 0, 64, 105
1, 562595, Control_c, 0, 64, 83
1, 562599, Note_on_c, 0, 61, 41
1, 562609, Control_c, 0, 64, 68
1, 562624, Control_c, 0, 64, 59
1, 562653, Control_c, 0, 64, 63
1, 562668, Control_c, 0, 64, 68
1, 562682, Control_c, 0, 64, 75
1, 562697, Control_c, 0, 64, 83
1, 562712, Control_c, 0, 64, 91
1, 562727, Control_c, 0, 64, 100
1, 562734, Note_off_c, 0, 65, 48
1, 562742, Control_c, 0, 64, 109
1, 562756, Control_c, 0, 64, 127
1, 562761, Note_off_c, 0, 68, 53
1, 562792, Note_off_c, 0, 61, 56
1, 562893, Note_on_c, 0, 69, 56
1, 562950, Control_c, 0, 64, 108
1, 562964, Control_c, 0, 64, 93
1, 562974, Note_on_c, 0, 65, 49
1, 562974, Note_on_c, 0, 68, 54
1, 562975, Note_off_c, 0, 69, 58
1, 562979, Control_c, 0, 64, 78
1, 562985, Note_on_c, 0, 61, 39
1, 562994, Control_c, 0, 64, 63
1, 562996, Note_on_c, 0, 49, 41
1, 563009, Control_c, 0, 64, 41
1, 563024, Control_c, 0, 64, 0
1, 563069, Control_c, 0, 64, 34
1, 563084, Control_c, 0, 64, 54
1, 563099, Control_c, 0, 64, 65
1, 563113, Control_c, 0, 64, 70
1, 563124, Note_off_c, 0, 65, 61
1, 563128, Control_c, 0, 64, 76
1, 563143, Control_c, 0, 64, 83
1, 563149, Note_off_c, 0, 49, 61
1, 563158, Control_c, 0, 64, 91
1, 563169, Note_off_c, 0, 61, 62
1, 563173, Control_c, 0, 64, 99
1, 563187, Control_c, 0, 64, 109
1, 563202, Control_c, 0, 64, 127
1, 563215, Note_off_c, 0, 68, 57
1, 563432, Control_c, 0, 64, 116
1, 563447, Control_c, 0, 64, 108
1, 563461, Control_c, 0, 64, 103
1, 563476, Control_c, 0, 64, 99
1, 563478, Note_on_c, 0, 66, 47
1, 563491, Control_c, 0, 64, 94
1, 563495, Note_on_c, 0, 61, 41
1, 563501, Note_on_c, 0, 57, 25
1, 563505, Control_c, 0, 64, 89
1, 563520, Control_c, 0, 64, 84
1, 563530, Note_on_c, 0, 42, 37
1, 563535, Control_c, 0, 64, 78
1, 563550, Control_c, 0, 64, 70
1, 563565, Control_c, 0, 64, 62
1, 563580, Control_c, 0, 64, 51
1, 563594, Control_c, 0, 64, 35
1, 563609, Control_c, 0, 64, 0
1, 563698, Control_c, 0, 64, 28
1, 563713, Control_c, 0, 64, 47
1, 563728, Control_c, 0, 64, 58
1, 563743, Control_c, 0, 64, 63
1, 563758, Control_c, 0, 64, 66
1, 563772, Control_c, 0, 64, 70
1, 563787, Control_c, 0, 64, 74
1, 563802, Control_c, 0, 64, 79
1, 563817, Control_c, 0, 64, 83
1, 563832, Control_c, 0, 64, 86
1, 563847, Control_c, 0, 64, 88
1, 563862, Control_c, 0, 64, 90
1, 563877, Control_c, 0, 64, 90
1, 563892, Control_c, 0, 64, 91
1, 563907, Control_c, 0, 64, 91
1, 563926, Note_off_c, 0, 42, 27
1, 563936, Control_c, 0, 64, 92
1, 563954, Note_on_c, 0, 49, 37
1, 563996, Control_c, 0, 64, 92
1, 564049, Note_off_c, 0, 57, 41
1, 564088, Note_off_c, 0, 61, 41
1, 564104, Note_off_c, 0, 66, 45
1, 564297, Note_off_c, 0, 49, 28
1, 564445, Note_on_c, 0, 54, 30
1, 564536, Control_c, 0, 64, 92
1, 564595, Control_c, 0, 64, 91
1, 564625, Control_c, 0, 64, 91
1, 564640, Control_c, 0, 64, 90
1, 564655, Control_c, 0, 64, 90
1, 564667, Note_off_c, 0, 54, 30
1, 564670, Control_c, 0, 64, 89
1, 564685, Control_c, 0, 64, 89
1, 564700, Control_c, 0, 64, 88
1, 564714, Control_c, 0, 64, 87
1, 564729, Control_c, 0, 64, 86
1, 564744, Control_c, 0, 64, 86
1, 564759, Control_c, 0, 64, 85
1, 564774, Control_c, 0, 64, 83
1, 564796, Control_c, 0, 64, 82
1, 564811, Control_c, 0, 64, 81
1, 564826, Control_c, 0, 64, 80
1, 564840, Control_c, 0, 64, 78
1, 564856, Control_c, 0, 64, 77
1, 564871, Control_c, 0, 64, 76
1, 564886, Control_c, 0, 64, 74
1, 564901, Control_c, 0, 64, 73
1, 564915, Control_c, 0, 64, 72
1, 564930, Control_c, 0, 64, 70
1, 564945, Control_c, 0, 64, 68
1, 564959, Control_c, 0, 64, 66
1, 564974, Control_c, 0, 64, 63
1, 564989, Control_c, 0, 64, 61
1, 565004, Control_c, 0, 64, 59
1, 565019, Control_c, 0, 64, 56
1, 565033, Control_c, 0, 64, 52
1, 565048, Control_c, 0, 64, 47
1, 565063, Control_c, 0, 64, 40
1, 565078, Control_c, 0, 64, 28
1, 565093, Control_c, 0, 64, 0
1, 565156, Note_on_c, 0, 81, 52
1, 565192, Note_on_c, 0, 69, 34
1, 565232, Note_on_c, 0, 42, 27
1, 565271, Control_c, 0, 64, 36
1, 565285, Control_c, 0, 64, 54
1, 565300, Control_c, 0, 64, 61
1, 565315, Control_c, 0, 64, 63
1, 565330, Control_c, 0, 64, 65
1, 565345, Control_c, 0, 64, 68
1, 565359, Control_c, 0, 64, 74
1, 565374, Control_c, 0, 64, 80
1, 565389, Control_c, 0, 64, 87
1, 565400, Note_off_c, 0, 42, 38
1, 565405, Control_c, 0, 64, 93
1, 565420, Control_c, 0, 64, 99
1, 565435, Control_c, 0, 64, 110
1, 565449, Control_c, 0, 64, 127
1, 565719, Note_on_c, 0, 61, 32
1, 566120, Note_on_c, 0, 49, 29
1, 566176, Note_off_c, 0, 61, 41
1, 566178, Note_off_c, 0, 49, 56
1, 566193, Note_off_c, 0, 69, 60
1, 566501, Control_c, 0, 64, 118
1, 566516, Control_c, 0, 64, 108
1, 566530, Control_c, 0, 64, 101
1, 566536, Note_on_c, 0, 80, 52
1, 566545, Control_c, 0, 64, 96
1, 566551, Note_on_c, 0, 68, 32
1, 566560, Control_c, 0, 64, 90
1, 566575, Control_c, 0, 64, 81
1, 566588, Note_on_c, 0, 41, 38
1, 566590, Control_c, 0, 64, 70
1, 566604, Note_off_c, 0, 81, 54
1, 566604, Control_c, 0, 64, 53
1, 566619, Control_c, 0, 64, 0
1, 566679, Control_c, 0, 64, 47
1, 566694, Control_c, 0, 64, 62
1, 566709, Control_c, 0, 64, 72
1, 566724, Control_c, 0, 64, 82
1, 566724, Note_off_c, 0, 41, 63
1, 566738, Control_c, 0, 64, 93
1, 566753, Control_c, 0, 64, 105
1, 566768, Control_c, 0, 64, 127
1, 566995, Note_on_c, 0, 61, 37
1, 567427, Note_on_c, 0, 49, 27
1, 567478, Note_off_c, 0, 61, 35
1, 567490, Note_off_c, 0, 49, 59
1, 567613, Note_off_c, 0, 80, 38
1, 567618, Note_off_c, 0, 68, 39
1, 567836, Control_c, 0, 64, 107
1, 567838, Note_on_c, 0, 81, 57
1, 567852, Control_c, 0, 64, 90
1, 567866, Control_c, 0, 64, 74
1, 567874, Note_on_c, 0, 69, 40
1, 567881, Control_c, 0, 64, 60
1, 567883, Note_on_c, 0, 42, 35
1, 567896, Control_c, 0, 64, 45
1, 567910, Control_c, 0, 64, 42
1, 567925, Control_c, 0, 64, 46
1, 567930, Note_off_c, 0, 69, 60
1, 567940, Control_c, 0, 64, 56
1, 567955, Control_c, 0, 64, 65
1, 567970, Control_c, 0, 64, 74
1, 567984, Control_c, 0, 64, 87
1, 567999, Control_c, 0, 64, 99
1, 568014, Note_off_c, 0, 42, 52
1, 568014, Control_c, 0, 64, 110
1, 568029, Control_c, 0, 64, 127
1, 568049, Note_off_c, 0, 81, 63
1, 568052, Note_on_c, 0, 80, 70
1, 568088, Note_on_c, 0, 68, 48
1, 568172, Note_off_c, 0, 68, 56
1, 568286, Note_on_c, 0, 81, 70
1, 568295, Control_c, 0, 64, 90
1, 568310, Control_c, 0, 64, 72
1, 568312, Note_on_c, 0, 69, 53
1, 568325, Control_c, 0, 64, 62
1, 568340, Control_c, 0, 64, 61
1, 568345, Note_off_c, 0, 80, 57
1, 568352, Note_on_c, 0, 61, 34
1, 568355, Control_c, 0, 64, 64
1, 568370, Control_c, 0, 64, 69
1, 568381, Note_off_c, 0, 69, 55
1, 568384, Control_c, 0, 64, 78
1, 568399, Control_c, 0, 64, 87
1, 568414, Control_c, 0, 64, 94
1, 568429, Control_c, 0, 64, 100
1, 568444, Control_c, 0, 64, 117
1, 568458, Control_c, 0, 64, 127
1, 568528, Note_off_c, 0, 81, 55
1, 568607, Note_on_c, 0, 85, 66
1, 568636, Note_on_c, 0, 73, 36
1, 568655, Note_off_c, 0, 85, 63
1, 568665, Note_off_c, 0, 73, 52
1, 568704, Control_c, 0, 64, 117
1, 568719, Control_c, 0, 64, 86
1, 568731, Note_on_c, 0, 81, 56
1, 568733, Control_c, 0, 64, 68
1, 568748, Control_c, 0, 64, 51
1, 568750, Note_on_c, 0, 49, 36
1, 568763, Note_on_c, 0, 69, 43
1, 568763, Control_c, 0, 64, 43
1, 568778, Control_c, 0, 64, 44
1, 568793, Control_c, 0, 64, 52
1, 568807, Control_c, 0, 64, 61
1, 568822, Control_c, 0, 64, 68
1, 568825, Note_off_c, 0, 61, 42
1, 568837, Control_c, 0, 64, 74
1, 568852, Control_c, 0, 64, 81
1, 568867, Control_c, 0, 64, 88
1, 568881, Note_off_c, 0, 49, 62
1, 568882, Control_c, 0, 64, 95
1, 568897, Control_c, 0, 64, 103
1, 568912, Control_c, 0, 64, 111
1, 568926, Control_c, 0, 64, 127
1, 568949, Note_off_c, 0, 69, 37
1, 569133, Control_c, 0, 64, 123
1, 569148, Control_c, 0, 64, 108
1, 569163, Control_c, 0, 64, 103
1, 569168, Note_off_c, 0, 81, 56
1, 569174, Note_on_c, 0, 80, 57
1, 569178, Control_c, 0, 64, 97
1, 569192, Control_c, 0, 64, 92
1, 569195, Note_on_c, 0, 68, 42
1, 569207, Control_c, 0, 64, 86
1, 569222, Control_c, 0, 64, 79
1, 569233, Note_on_c, 0, 41, 39
1, 569237, Control_c, 0, 64, 69
1, 569251, Control_c, 0, 64, 53
1, 569274, Control_c, 0, 64, 0
1, 569363, Control_c, 0, 64, 54
1, 569378, Control_c, 0, 64, 65
1, 569390, Note_off_c, 0, 41, 63
1, 569393, Control_c, 0, 64, 71
1, 569409, Control_c, 0, 64, 78
1, 569424, Control_c, 0, 64, 87
1, 569438, Control_c, 0, 64, 102
1, 569453, Control_c, 0, 64, 127
1, 569643, Note_on_c, 0, 61, 38
1, 569974, Note_off_c, 0, 68, 37
1, 570065, Note_on_c, 0, 49, 46
1, 570123, Note_off_c, 0, 61, 52
1, 570128, Note_off_c, 0, 49, 56
1, 570181, Note_off_c, 0, 80, 60
1, 570488, Note_on_c, 0, 85, 73
1, 570521, Note_on_c, 0, 73, 49
1, 570537, Note_on_c, 0, 45, 46
1, 570542, Control_c, 0, 64, 94
1, 570557, Control_c, 0, 64, 74
1, 570572, Control_c, 0, 64, 57
1, 570587, Control_c, 0, 64, 0
1, 570631, Control_c, 0, 64, 35
1, 570646, Control_c, 0, 64, 56
1, 570661, Control_c, 0, 64, 69
1, 570676, Control_c, 0, 64, 83
1, 570691, Control_c, 0, 64, 104
1, 570694, Note_off_c, 0, 45, 61
1, 570705, Control_c, 0, 64, 127
1, 570971, Note_on_c, 0, 61, 62
1, 571039, Control_c, 0, 67, 117
1, 571054, Control_c, 0, 67, 101
1, 571068, Control_c, 0, 67, 85
1, 571083, Control_c, 0, 67, 68
1, 571098, Control_c, 0, 67, 45
1, 571113, Control_c, 0, 67, 0
1, 571386, Note_on_c, 0, 49, 50
1, 571481, Note_off_c, 0, 61, 58
1, 571537, Note_off_c, 0, 49, 37
1, 571571, Note_off_c, 0, 73, 36
1, 571818, Control_c, 0, 64, 123
1, 571832, Control_c, 0, 64, 105
1, 571834, Note_on_c, 0, 86, 75
1, 571847, Control_c, 0, 64, 96
1, 571858, Note_on_c, 0, 74, 56
1, 571862, Control_c, 0, 64, 87
1, 571864, Note_off_c, 0, 85, 60
1, 571875, Note_on_c, 0, 47, 56
1, 571876, Control_c, 0, 64, 80
1, 571891, Control_c, 0, 64, 73
1, 571906, Control_c, 0, 64, 65
1, 571921, Control_c, 0, 64, 52
1, 571936, Control_c, 0, 64, 30
1, 571950, Control_c, 0, 64, 0
1, 572024, Control_c, 0, 64, 52
1, 572039, Control_c, 0, 64, 67
1, 572054, Control_c, 0, 64, 79
1, 572068, Control_c, 0, 64, 94
1, 572083, Control_c, 0, 64, 109
1, 572088, Note_off_c, 0, 47, 61
1, 572098, Control_c, 0, 64, 127
1, 572295, Note_on_c, 0, 77, 62
1, 572340, Note_on_c, 0, 61, 54
1, 572402, Control_c, 0, 64, 107
1, 572417, Control_c, 0, 64, 87
1, 572432, Control_c, 0, 64, 72
1, 572447, Control_c, 0, 64, 63
1, 572462, Control_c, 0, 64, 61
1, 572476, Control_c, 0, 64, 64
1, 572491, Control_c, 0, 64, 70
1, 572506, Control_c, 0, 64, 80
1, 572521, Control_c, 0, 64, 93
1, 572536, Control_c, 0, 64, 102
1, 572550, Control_c, 0, 64, 120
1, 572565, Control_c, 0, 64, 127
1, 572724, Note_on_c, 0, 49, 47
1, 572751, Note_off_c, 0, 74, 57
1, 572766, Note_off_c, 0, 61, 61
1, 572766, Note_off_c, 0, 77, 63
1, 572802, Note_off_c, 0, 86, 57
1, 572809, Note_off_c, 0, 49, 60
1, 573170, Note_on_c, 0, 86, 61
1, 573189, Note_on_c, 0, 78, 57
1, 573194, Note_on_c, 0, 74, 49
1, 573210, Control_c, 0, 64, 104
1, 573224, Control_c, 0, 64, 87
1, 573233, Note_on_c, 0, 45, 43
1, 573239, Control_c, 0, 64, 69
1, 573254, Control_c, 0, 64, 54
1, 573269, Control_c, 0, 64, 38
1, 573284, Control_c, 0, 64, 33
1, 573287, Note_off_c, 0, 74, 60
1, 573298, Control_c, 0, 64, 39
1, 573313, Control_c, 0, 64, 52
1, 573328, Control_c, 0, 64, 63
1, 573343, Control_c, 0, 64, 74
1, 573358, Control_c, 0, 64, 85
1, 573372, Control_c, 0, 64, 94
1, 573387, Control_c, 0, 64, 99
1, 573390, Note_on_c, 0, 85, 75
1, 573392, Note_off_c, 0, 78, 60
1, 573403, Control_c, 0, 64, 106
1, 573404, Note_on_c, 0, 73, 66
1, 573406, Note_off_c, 0, 86, 53
1, 573418, Control_c, 0, 64, 114
1, 573418, Control_c, 0, 67, 39
1, 573433, Control_c, 0, 64, 127
1, 573433, Control_c, 0, 67, 45
1, 573437, Note_off_c, 0, 45, 54
1, 573448, Control_c, 0, 67, 53
1, 573457, Note_off_c, 0, 73, 57
1, 573461, Note_off_c, 0, 85, 62
1, 573463, Control_c, 0, 67, 59
1, 573477, Control_c, 0, 67, 63
1, 573507, Control_c, 0, 67, 63
1, 573521, Control_c, 0, 67, 64
1, 573536, Control_c, 0, 67, 64
1, 573551, Control_c, 0, 67, 65
1, 573566, Control_c, 0, 67, 65
1, 573581, Control_c, 0, 67, 68
1, 573595, Note_on_c, 0, 85, 63
1, 573595, Control_c, 0, 64, 109
1, 573595, Control_c, 0, 67, 73
1, 573610, Control_c, 0, 64, 90
1, 573610, Control_c, 0, 67, 92
1, 573620, Note_on_c, 0, 77, 60
1, 573625, Control_c, 0, 64, 72
1, 573625, Control_c, 0, 67, 107
1, 573634, Note_on_c, 0, 73, 48
1, 573639, Control_c, 0, 64, 51
1, 573639, Control_c, 0, 67, 116
1, 573645, Note_on_c, 0, 44, 38
1, 573654, Control_c, 0, 64, 0
1, 573654, Control_c, 0, 67, 121
1, 573669, Control_c, 0, 67, 125
1, 573684, Control_c, 0, 67, 127
1, 573699, Control_c, 0, 64, 45
1, 573714, Control_c, 0, 64, 60
1, 573729, Control_c, 0, 64, 69
1, 573731, Note_off_c, 0, 85, 64
1, 573739, Note_off_c, 0, 73, 63
1, 573744, Control_c, 0, 64, 76
1, 573758, Control_c, 0, 64, 82
1, 573781, Control_c, 0, 64, 86
1, 573795, Control_c, 0, 64, 90
1, 573810, Control_c, 0, 64, 95
1, 573812, Note_on_c, 0, 83, 71
1, 573825, Control_c, 0, 64, 100
1, 573839, Note_on_c, 0, 71, 55
1, 573839, Control_c, 0, 64, 105
1, 573846, Note_off_c, 0, 77, 60
1, 573854, Control_c, 0, 64, 109
1, 573864, Note_off_c, 0, 44, 55
1, 573869, Control_c, 0, 64, 112
1, 573881, Note_off_c, 0, 71, 59
1, 573884, Control_c, 0, 64, 114
1, 573895, Note_off_c, 0, 83, 54
1, 574018, Control_c, 0, 64, 108
1, 574029, Note_on_c, 0, 83, 63
1, 574033, Control_c, 0, 64, 95
1, 574042, Note_on_c, 0, 78, 58
1, 574047, Control_c, 0, 64, 80
1, 574057, Note_on_c, 0, 71, 56
1, 574062, Control_c, 0, 64, 62
1, 574067, Note_on_c, 0, 42, 46
1, 574077, Control_c, 0, 64, 39
1, 574092, Control_c, 0, 64, 0
1, 574118, Note_off_c, 0, 83, 59
1, 574121, Control_c, 0, 64, 36
1, 574128, Note_off_c, 0, 71, 61
1, 574136, Control_c, 0, 64, 55
1, 574151, Control_c, 0, 64, 67
1, 574166, Control_c, 0, 64, 73
1, 574181, Control_c, 0, 64, 79
1, 574197, Control_c, 0, 64, 82
1, 574212, Control_c, 0, 64, 86
1, 574226, Control_c, 0, 64, 89
1, 574229, Note_on_c, 0, 81, 61
1, 574236, Note_off_c, 0, 42, 56
1, 574241, Control_c, 0, 64, 91
1, 574248, Note_on_c, 0, 69, 52
1, 574256, Control_c, 0, 64, 93
1, 574270, Control_c, 0, 64, 94
1, 574285, Control_c, 0, 64, 95
1, 574296, Note_off_c, 0, 69, 60
1, 574300, Control_c, 0, 64, 95
1, 574303, Note_off_c, 0, 78, 37
1, 574307, Note_off_c, 0, 81, 61
1, 574404, Control_c, 0, 64, 95
1, 574433, Control_c, 0, 64, 94
1, 574448, Control_c, 0, 64, 93
1, 574462, Control_c, 0, 64, 91
1, 574477, Control_c, 0, 64, 89
1, 574492, Control_c, 0, 64, 86
1, 574507, Control_c, 0, 64, 83
1, 574530, Control_c, 0, 64, 78
1, 574531, Note_on_c, 0, 80, 51
1, 574535, Note_on_c, 0, 77, 51
1, 574544, Control_c, 0, 64, 73
1, 574545, Note_on_c, 0, 68, 42
1, 574559, Control_c, 0, 64, 66
1, 574574, Note_on_c, 0, 37, 37
1, 574574, Control_c, 0, 64, 56
1, 574590, Control_c, 0, 64, 34
1, 574605, Control_c, 0, 64, 0
1, 574678, Control_c, 0, 64, 34
1, 574678, Control_c, 0, 67, 125
1, 574693, Control_c, 0, 64, 58
1, 574708, Control_c, 0, 64, 67
1, 574723, Control_c, 0, 64, 74
1, 574723, Control_c, 0, 67, 123
1, 574734, Note_off_c, 0, 37, 53
1, 574738, Control_c, 0, 64, 83
1, 574752, Control_c, 0, 64, 91
1, 574752, Control_c, 0, 67, 120
1, 574767, Control_c, 0, 64, 100
1, 574782, Control_c, 0, 64, 108
1, 574782, Control_c, 0, 67, 117
1, 574796, Control_c, 0, 64, 120
1, 574811, Control_c, 0, 64, 127
1, 574841, Control_c, 0, 67, 114
1, 574900, Control_c, 0, 67, 112
1, 575018, Note_on_c, 0, 61, 41
1, 575094, Control_c, 0, 67, 110
1, 575309, Control_c, 0, 67, 108
1, 575413, Control_c, 0, 67, 106
1, 575464, Note_on_c, 0, 49, 34
1, 575534, Note_off_c, 0, 61, 43
1, 575539, Note_off_c, 0, 49, 55
1, 575590, Control_c, 0, 64, 123
1, 575605, Control_c, 0, 64, 121
1, 575619, Control_c, 0, 64, 118
1, 575623, Note_off_c, 0, 77, 38
1, 575639, Note_off_c, 0, 68, 34
1, 575649, Control_c, 0, 64, 116
1, 575679, Control_c, 0, 64, 114
1, 575699, Note_off_c, 0, 80, 29
1, 575708, Control_c, 0, 64, 111
1, 575723, Control_c, 0, 64, 109
1, 575753, Control_c, 0, 64, 105
1, 575783, Control_c, 0, 64, 101
1, 575798, Control_c, 0, 64, 99
1, 575813, Control_c, 0, 64, 97
1, 575828, Control_c, 0, 64, 95
1, 575842, Control_c, 0, 64, 92
1, 575857, Control_c, 0, 64, 90
1, 575872, Control_c, 0, 64, 87
1, 575887, Control_c, 0, 64, 84
1, 575902, Control_c, 0, 64, 81
1, 575917, Control_c, 0, 64, 78
1, 575932, Control_c, 0, 64, 75
1, 575946, Control_c, 0, 64, 71
1, 575961, Control_c, 0, 64, 68
1, 575976, Control_c, 0, 64, 65
1, 575991, Control_c, 0, 64, 61
1, 576006, Control_c, 0, 64, 58
1, 576028, Control_c, 0, 64, 54
1, 576040, Note_on_c, 0, 81, 51
1, 576042, Control_c, 0, 64, 49
1, 576057, Control_c, 0, 64, 38
1, 576069, Note_on_c, 0, 69, 43
1, 576072, Control_c, 0, 64, 0
1, 576097, Note_on_c, 0, 42, 34
1, 576176, Control_c, 0, 64, 35
1, 576191, Control_c, 0, 64, 52
1, 576206, Control_c, 0, 64, 61
1, 576221, Control_c, 0, 64, 66
1, 576236, Control_c, 0, 64, 69
1, 576250, Control_c, 0, 64, 73
1, 576253, Note_off_c, 0, 42, 48
1, 576265, Control_c, 0, 64, 76
1, 576280, Control_c, 0, 64, 80
1, 576295, Control_c, 0, 64, 84
1, 576310, Control_c, 0, 64, 90
1, 576324, Control_c, 0, 64, 93
1, 576339, Control_c, 0, 64, 97
1, 576354, Control_c, 0, 64, 102
1, 576369, Control_c, 0, 64, 106
1, 576384, Control_c, 0, 64, 110
1, 576398, Control_c, 0, 64, 114
1, 576413, Control_c, 0, 64, 116
1, 576442, Control_c, 0, 64, 118
1, 576472, Control_c, 0, 64, 121
1, 576487, Control_c, 0, 64, 123
1, 576502, Control_c, 0, 64, 126
1, 576533, Note_on_c, 0, 61, 41
1, 577004, Note_on_c, 0, 49, 26
1, 577013, Control_c, 0, 64, 123
1, 577075, Note_off_c, 0, 61, 40
1, 577094, Note_off_c, 0, 69, 59
1, 577100, Note_off_c, 0, 49, 57
1, 577132, Control_c, 0, 64, 121
1, 577264, Control_c, 0, 64, 118
1, 577353, Control_c, 0, 64, 116
1, 577384, Control_c, 0, 64, 112
1, 577399, Control_c, 0, 64, 109
1, 577414, Control_c, 0, 64, 105
1, 577420, Note_on_c, 0, 80, 55
1, 577428, Control_c, 0, 64, 101
1, 577434, Note_on_c, 0, 68, 44
1, 577443, Control_c, 0, 64, 97
1, 577458, Control_c, 0, 64, 93
1, 577473, Control_c, 0, 64, 88
1, 577478, Note_on_c, 0, 41, 35
1, 577488, Control_c, 0, 64, 80
1, 577500, Note_off_c, 0, 81, 57
1, 577502, Control_c, 0, 64, 68
1, 577525, Control_c, 0, 64, 48
1, 577540, Control_c, 0, 64, 0
1, 577600, Control_c, 0, 64, 44
1, 577614, Control_c, 0, 64, 61
1, 577619, Note_off_c, 0, 41, 64
1, 577629, Control_c, 0, 64, 70
1, 577644, Control_c, 0, 64, 77
1, 577659, Control_c, 0, 64, 84
1, 577674, Control_c, 0, 64, 90
1, 577688, Control_c, 0, 64, 97
1, 577703, Control_c, 0, 64, 107
1, 577718, Control_c, 0, 64, 127
1, 577866, Note_on_c, 0, 61, 44
1, 578309, Note_on_c, 0, 49, 32
1, 578373, Note_off_c, 0, 61, 56
1, 578416, Note_off_c, 0, 49, 50
1, 578490, Note_off_c, 0, 68, 34
1, 578496, Note_off_c, 0, 80, 38
1, 578674, Control_c, 0, 64, 114
1, 578689, Control_c, 0, 64, 105
1, 578704, Control_c, 0, 64, 94
1, 578719, Control_c, 0, 64, 81
1, 578726, Note_on_c, 0, 81, 55
1, 578734, Control_c, 0, 64, 68
1, 578749, Control_c, 0, 64, 55
1, 578752, Note_on_c, 0, 69, 40
1, 578761, Note_on_c, 0, 42, 40
1, 578763, Control_c, 0, 64, 49
1, 578778, Control_c, 0, 64, 52
1, 578793, Control_c, 0, 64, 59
1, 578808, Control_c, 0, 64, 65
1, 578823, Control_c, 0, 64, 73
1, 578823, Note_off_c, 0, 69, 62
1, 578837, Control_c, 0, 64, 83
1, 578852, Control_c, 0, 64, 101
1, 578867, Control_c, 0, 64, 114
1, 578882, Control_c, 0, 64, 127
1, 578929, Note_off_c, 0, 81, 62
1, 578933, Note_on_c, 0, 80, 70
1, 578938, Note_off_c, 0, 42, 35
1, 578973, Note_on_c, 0, 68, 51
1, 579002, Control_c, 0, 67, 108
1, 579050, Note_off_c, 0, 68, 57
1, 579157, Control_c, 0, 67, 110
1, 579182, Note_on_c, 0, 81, 69
1, 579202, Control_c, 0, 64, 98
1, 579208, Note_on_c, 0, 69, 56
1, 579216, Control_c, 0, 64, 79
1, 579231, Control_c, 0, 64, 66
1, 579240, Note_on_c, 0, 61, 38
1, 579246, Control_c, 0, 64, 60
1, 579260, Control_c, 0, 64, 62
1, 579263, Note_off_c, 0, 80, 59
1, 579275, Control_c, 0, 64, 67
1, 579290, Control_c, 0, 64, 76
1, 579300, Note_off_c, 0, 69, 51
1, 579305, Control_c, 0, 64, 89
1, 579320, Control_c, 0, 64, 107
1, 579334, Control_c, 0, 64, 127
1, 579431, Note_off_c, 0, 81, 56
1, 579525, Note_on_c, 0, 85, 60
1, 579541, Note_on_c, 0, 73, 42
1, 579559, Note_off_c, 0, 85, 64
1, 579567, Note_off_c, 0, 73, 57
1, 579586, Control_c, 0, 67, 112
1, 579616, Control_c, 0, 64, 100
1, 579622, Note_on_c, 0, 81, 60
1, 579631, Control_c, 0, 64, 74
1, 579646, Control_c, 0, 64, 59
1, 579646, Control_c, 0, 67, 115
1, 579656, Note_on_c, 0, 49, 35
1, 579660, Control_c, 0, 64, 41
1, 579674, Note_on_c, 0, 69, 31
1, 579675, Control_c, 0, 64, 37
1, 579690, Control_c, 0, 64, 44
1, 579705, Control_c, 0, 64, 57
1, 579710, Note_off_c, 0, 61, 45
1, 579720, Control_c, 0, 64, 66
1, 579734, Control_c, 0, 64, 74
1, 579749, Control_c, 0, 64, 81
1, 579771, Control_c, 0, 64, 89
1, 579787, Note_off_c, 0, 49, 60
1, 579787, Control_c, 0, 64, 100
1, 579802, Control_c, 0, 64, 127
1, 579853, Note_off_c, 0, 69, 49
1, 579861, Control_c, 0, 67, 113
1, 579968, Note_off_c, 0, 81, 46
1, 580078, Note_on_c, 0, 80, 58
1, 580105, Note_on_c, 0, 68, 41
1, 580113, Control_c, 0, 64, 96
1, 580128, Control_c, 0, 64, 77
1, 580142, Note_on_c, 0, 41, 39
1, 580143, Control_c, 0, 64, 61
1, 580157, Control_c, 0, 64, 38
1, 580172, Control_c, 0, 64, 0
1, 580216, Control_c, 0, 64, 45
1, 580231, Control_c, 0, 64, 62
1, 580246, Control_c, 0, 64, 71
1, 580246, Control_c, 0, 67, 110
1, 580261, Control_c, 0, 64, 81
1, 580266, Note_off_c, 0, 41, 63
1, 580276, Control_c, 0, 64, 95
1, 580290, Control_c, 0, 64, 118
1, 580290, Control_c, 0, 67, 108
1, 580305, Control_c, 0, 64, 127
1, 580335, Control_c, 0, 67, 106
1, 580364, Control_c, 0, 67, 104
1, 580394, Control_c, 0, 67, 101
1, 580409, Control_c, 0, 67, 98
1, 580424, Control_c, 0, 67, 95
1, 580439, Control_c, 0, 67, 88
1, 580454, Control_c, 0, 67, 63
1, 580468, Control_c, 0, 67, 39
1, 580483, Control_c, 0, 67, 0
1, 580530, Note_on_c, 0, 61, 44
1, 580734, Note_off_c, 0, 68, 35
1, 580928, Note_off_c, 0, 80, 36
1, 580966, Note_on_c, 0, 49, 38
1, 581056, Note_off_c, 0, 61, 56
1, 581073, Note_off_c, 0, 49, 59
1, 581503, Note_on_c, 0, 83, 80
1, 581507, Control_c, 0, 64, 99
1, 581517, Note_on_c, 0, 78, 71
1, 581522, Control_c, 0, 64, 82
1, 581533, Note_on_c, 0, 71, 66
1, 581536, Control_c, 0, 64, 65
1, 581551, Control_c, 0, 64, 38
1, 581558, Note_on_c, 0, 42, 59
1, 581566, Control_c, 0, 64, 0
1, 581625, Control_c, 0, 64, 38
1, 581640, Control_c, 0, 64, 62
1, 581655, Control_c, 0, 64, 76
1, 581670, Control_c, 0, 64, 103
1, 581685, Control_c, 0, 64, 127
1, 581711, Note_off_c, 0, 42, 62
1, 582132, Note_on_c, 0, 62, 51
1, 582595, Note_on_c, 0, 50, 38
1, 582612, Note_off_c, 0, 62, 34
1, 582666, Note_off_c, 0, 50, 59
1, 582734, Note_off_c, 0, 78, 49
1, 582748, Note_off_c, 0, 71, 56
1, 582785, Note_off_c, 0, 83, 56
1, 583007, Note_on_c, 0, 81, 61
1, 583018, Note_on_c, 0, 78, 56
1, 583025, Note_on_c, 0, 69, 45
1, 583034, Control_c, 0, 64, 113
1, 583049, Control_c, 0, 64, 101
1, 583064, Control_c, 0, 64, 92
1, 583065, Note_on_c, 0, 42, 35
1, 583079, Control_c, 0, 64, 81
1, 583094, Control_c, 0, 64, 68
1, 583108, Control_c, 0, 64, 53
1, 583123, Control_c, 0, 64, 0
1, 583182, Control_c, 0, 64, 33
1, 583197, Control_c, 0, 64, 54
1, 583212, Control_c, 0, 64, 67
1, 583226, Control_c, 0, 64, 81
1, 583235, Note_off_c, 0, 42, 62
1, 583241, Control_c, 0, 64, 96
1, 583256, Control_c, 0, 64, 110
1, 583271, Control_c, 0, 64, 127
1, 583482, Note_on_c, 0, 61, 42
1, 583914, Note_on_c, 0, 49, 39
1, 583918, Note_off_c, 0, 69, 52
1, 583931, Control_c, 0, 67, 34
1, 583946, Control_c, 0, 67, 41
1, 583961, Control_c, 0, 67, 49
1, 583975, Control_c, 0, 67, 57
1, 583978, Note_off_c, 0, 61, 35
1, 583981, Note_off_c, 0, 49, 55
1, 583990, Control_c, 0, 67, 62
1, 583995, Note_off_c, 0, 81, 59
1, 584005, Control_c, 0, 67, 67
1, 584020, Control_c, 0, 67, 74
1, 584035, Control_c, 0, 67, 83
1, 584037, Note_off_c, 0, 78, 58
1, 584049, Control_c, 0, 67, 89
1, 584064, Control_c, 0, 67, 91
1, 584079, Control_c, 0, 67, 91
1, 584242, Control_c, 0, 67, 92
1, 584264, Control_c, 0, 67, 93
1, 584279, Control_c, 0, 67, 94
1, 584294, Control_c, 0, 67, 94
1, 584368, Control_c, 0, 64, 116
1, 584382, Control_c, 0, 64, 108
1, 584397, Control_c, 0, 64, 102
1, 584397, Control_c, 0, 67, 95
1, 584406, Note_on_c, 0, 81, 60
1, 584412, Control_c, 0, 64, 97
1, 584412, Control_c, 0, 67, 95
1, 584415, Note_on_c, 0, 77, 47
1, 584427, Control_c, 0, 64, 91
1, 584437, Note_on_c, 0, 73, 35
1, 584442, Control_c, 0, 64, 84
1, 584456, Control_c, 0, 64, 74
1, 584461, Note_on_c, 0, 37, 35
1, 584471, Control_c, 0, 64, 64
1, 584471, Control_c, 0, 67, 97
1, 584486, Control_c, 0, 64, 51
1, 584486, Control_c, 0, 67, 101
1, 584501, Control_c, 0, 64, 37
1, 584501, Control_c, 0, 67, 120
1, 584516, Control_c, 0, 64, 31
1, 584516, Control_c, 0, 67, 127
1, 584530, Control_c, 0, 64, 36
1, 584545, Control_c, 0, 64, 47
1, 584560, Control_c, 0, 64, 61
1, 584576, Control_c, 0, 64, 70
1, 584591, Control_c, 0, 64, 80
1, 584605, Control_c, 0, 64, 93
1, 584619, Note_on_c, 0, 80, 68
1, 584620, Control_c, 0, 64, 102
1, 584635, Control_c, 0, 64, 115
1, 584636, Note_off_c, 0, 37, 38
1, 584650, Note_off_c, 0, 81, 63
1, 584650, Control_c, 0, 64, 127
1, 584664, Note_off_c, 0, 73, 43
1, 584675, Note_off_c, 0, 77, 60
1, 584686, Note_off_c, 0, 80, 59
1, 584854, Note_on_c, 0, 80, 70
1, 584873, Note_on_c, 0, 77, 59
1, 584885, Note_on_c, 0, 73, 42
1, 584901, Control_c, 0, 64, 94
1, 584916, Control_c, 0, 64, 82
1, 584922, Note_on_c, 0, 61, 40
1, 584931, Control_c, 0, 64, 78
1, 584961, Control_c, 0, 64, 80
1, 584976, Control_c, 0, 64, 84
1, 584991, Control_c, 0, 64, 90
1, 585012, Control_c, 0, 64, 95
1, 585027, Control_c, 0, 64, 99
1, 585042, Control_c, 0, 64, 102
1, 585061, Note_off_c, 0, 77, 58
1, 585062, Note_off_c, 0, 73, 37
1, 585071, Control_c, 0, 64, 104
1, 585093, Note_off_c, 0, 80, 59
1, 585110, Note_off_c, 0, 61, 50
1, 585203, Note_on_c, 0, 81, 64
1, 585265, Control_c, 0, 64, 101
1, 585279, Control_c, 0, 64, 93
1, 585281, Note_on_c, 0, 80, 68
1, 585294, Note_on_c, 0, 73, 41
1, 585294, Note_on_c, 0, 77, 52
1, 585294, Control_c, 0, 64, 81
1, 585309, Control_c, 0, 64, 68
1, 585324, Control_c, 0, 64, 56
1, 585324, Note_on_c, 0, 49, 36
1, 585337, Note_off_c, 0, 81, 56
1, 585338, Control_c, 0, 64, 49
1, 585353, Control_c, 0, 64, 52
1, 585368, Control_c, 0, 64, 58
1, 585384, Control_c, 0, 64, 64
1, 585399, Control_c, 0, 64, 70
1, 585414, Control_c, 0, 64, 79
1, 585428, Control_c, 0, 64, 87
1, 585443, Control_c, 0, 64, 93
1, 585458, Control_c, 0, 64, 98
1, 585467, Note_off_c, 0, 77, 62
1, 585471, Note_off_c, 0, 49, 60
1, 585473, Control_c, 0, 64, 103
1, 585488, Control_c, 0, 64, 114
1, 585491, Note_off_c, 0, 73, 42
1, 585502, Control_c, 0, 64, 127
1, 585555, Note_off_c, 0, 80, 58
1, 585791, Control_c, 0, 64, 115
1, 585806, Control_c, 0, 64, 109
1, 585816, Note_on_c, 0, 81, 51
1, 585821, Control_c, 0, 64, 104
1, 585835, Control_c, 0, 64, 100
1, 585837, Note_on_c, 0, 78, 45
1, 585839, Note_on_c, 0, 73, 38
1, 585850, Control_c, 0, 64, 95
1, 585865, Control_c, 0, 64, 90
1, 585880, Control_c, 0, 64, 84
1, 585882, Note_on_c, 0, 42, 34
1, 585895, Control_c, 0, 64, 74
1, 585909, Control_c, 0, 64, 64
1, 585924, Control_c, 0, 64, 49
1, 585939, Control_c, 0, 64, 0
1, 585998, Control_c, 0, 64, 45
1, 586013, Control_c, 0, 64, 60
1, 586028, Control_c, 0, 64, 67
1, 586043, Control_c, 0, 64, 72
1, 586058, Control_c, 0, 64, 77
1, 586073, Control_c, 0, 64, 82
1, 586074, Note_off_c, 0, 42, 49
1, 586087, Control_c, 0, 64, 89
1, 586102, Control_c, 0, 64, 96
1, 586117, Control_c, 0, 64, 102
1, 586132, Control_c, 0, 64, 106
1, 586146, Control_c, 0, 64, 109
1, 586161, Control_c, 0, 64, 112
1, 586177, Control_c, 0, 64, 116
1, 586192, Control_c, 0, 64, 126
1, 586353, Note_on_c, 0, 61, 34
1, 586806, Note_on_c, 0, 49, 31
1, 586851, Note_off_c, 0, 61, 42
1, 586862, Note_off_c, 0, 49, 56
1, 586901, Note_off_c, 0, 78, 54
1, 586920, Note_off_c, 0, 73, 35
1, 586931, Note_off_c, 0, 81, 38
1, 587163, Control_c, 0, 64, 120
1, 587178, Control_c, 0, 64, 114
1, 587192, Control_c, 0, 64, 110
1, 587207, Control_c, 0, 64, 105
1, 587222, Control_c, 0, 64, 101
1, 587224, Note_on_c, 0, 81, 56
1, 587237, Control_c, 0, 64, 97
1, 587257, Note_on_c, 0, 77, 49
1, 587259, Control_c, 0, 64, 90
1, 587261, Note_on_c, 0, 73, 39
1, 587269, Note_on_c, 0, 37, 42
1, 587274, Control_c, 0, 64, 81
1, 587289, Control_c, 0, 64, 69
1, 587304, Control_c, 0, 64, 58
1, 587319, Control_c, 0, 64, 47
1, 587334, Control_c, 0, 64, 47
1, 587348, Control_c, 0, 64, 54
1, 587363, Control_c, 0, 64, 61
1, 587378, Control_c, 0, 64, 68
1, 587378, Control_c, 0, 67, 125
1, 587393, Control_c, 0, 64, 77
1, 587407, Control_c, 0, 64, 90
1, 587407, Control_c, 0, 67, 122
1, 587420, Note_off_c, 0, 37, 48
1, 587422, Control_c, 0, 64, 101
1, 587437, Control_c, 0, 64, 110
1, 587450, Note_on_c, 0, 80, 62
1, 587452, Control_c, 0, 64, 127
1, 587471, Note_off_c, 0, 81, 60
1, 587490, Note_off_c, 0, 73, 53
1, 587503, Note_off_c, 0, 77, 61
1, 587512, Note_off_c, 0, 80, 60
1, 587695, Note_on_c, 0, 80, 63
1, 587709, Note_on_c, 0, 77, 54
1, 587715, Note_on_c, 0, 73, 45
1, 587718, Control_c, 0, 64, 100
1, 587718, Control_c, 0, 67, 124
1, 587733, Control_c, 0, 64, 81
1, 587740, Note_on_c, 0, 61, 39
1, 587748, Control_c, 0, 64, 67
1, 587763, Control_c, 0, 64, 58
1, 587778, Control_c, 0, 64, 57
1, 587793, Control_c, 0, 64, 60
1, 587808, Control_c, 0, 64, 65
1, 587822, Control_c, 0, 64, 72
1, 587837, Control_c, 0, 64, 80
1, 587852, Control_c, 0, 64, 89
1, 587867, Control_c, 0, 64, 98
1, 587882, Control_c, 0, 64, 107
1, 587897, Control_c, 0, 64, 118
1, 587907, Note_off_c, 0, 73, 38
1, 587912, Control_c, 0, 64, 127
1, 587916, Note_off_c, 0, 77, 52
1, 587952, Note_off_c, 0, 80, 57
1, 588065, Note_on_c, 0, 81, 53
1, 588127, Note_on_c, 0, 73, 43
1, 588137, Note_on_c, 0, 80, 60
1, 588140, Note_on_c, 0, 77, 56
1, 588141, Control_c, 0, 64, 98
1, 588144, Note_off_c, 0, 81, 61
1, 588148, Note_off_c, 0, 61, 39
1, 588156, Control_c, 0, 64, 80
1, 588158, Note_on_c, 0, 49, 43
1, 588171, Control_c, 0, 64, 65
1, 588186, Control_c, 0, 64, 50
1, 588201, Control_c, 0, 64, 39
1, 588216, Control_c, 0, 64, 39
1, 588230, Control_c, 0, 64, 52
1, 588245, Control_c, 0, 64, 63
1, 588260, Control_c, 0, 64, 72
1, 588271, Note_off_c, 0, 77, 63
1, 588275, Control_c, 0, 64, 82
1, 588290, Control_c, 0, 64, 88
1, 588299, Note_off_c, 0, 73, 62
1, 588304, Control_c, 0, 64, 94
1, 588319, Control_c, 0, 64, 100
1, 588334, Control_c, 0, 64, 110
1, 588335, Note_off_c, 0, 49, 59
1, 588348, Control_c, 0, 64, 127
1, 588348, Control_c, 0, 67, 122
1, 588366, Note_off_c, 0, 80, 58
1, 588586, Control_c, 0, 64, 117
1, 588601, Control_c, 0, 64, 110
1, 588609, Note_on_c, 0, 78, 50
1, 588616, Control_c, 0, 64, 104
1, 588617, Note_on_c, 0, 73, 41
1, 588625, Note_on_c, 0, 69, 38
1, 588631, Control_c, 0, 64, 98
1, 588645, Control_c, 0, 64, 90
1, 588660, Control_c, 0, 64, 83
1, 588675, Control_c, 0, 64, 76
1, 588680, Note_on_c, 0, 42, 37
1, 588690, Control_c, 0, 64, 68
1, 588705, Control_c, 0, 64, 60
1, 588720, Control_c, 0, 64, 47
1, 588735, Control_c, 0, 64, 0
1, 588831, Control_c, 0, 64, 46
1, 588845, Control_c, 0, 64, 61
1, 588860, Control_c, 0, 64, 66
1, 588875, Control_c, 0, 64, 69
1, 588890, Control_c, 0, 64, 73
1, 588905, Control_c, 0, 64, 77
1, 588919, Control_c, 0, 64, 82
1, 588934, Control_c, 0, 64, 86
1, 588949, Control_c, 0, 64, 91
1, 588964, Control_c, 0, 64, 94
1, 588979, Control_c, 0, 64, 95
1, 589009, Control_c, 0, 64, 97
1, 589042, Note_off_c, 0, 42, 23
1, 589090, Note_on_c, 0, 49, 42
1, 589171, Control_c, 0, 64, 99
1, 589216, Control_c, 0, 67, 124
1, 589260, Control_c, 0, 67, 126
1, 589385, Note_off_c, 0, 49, 36
1, 589538, Note_off_c, 0, 73, 30
1, 589571, Note_off_c, 0, 69, 38
1, 589638, Note_on_c, 0, 54, 30
1, 589659, Note_off_c, 0, 78, 30
1, 589797, Note_off_c, 0, 54, 35
1, 589846, Control_c, 0, 64, 97
1, 589891, Control_c, 0, 64, 96
1, 589906, Control_c, 0, 64, 95
1, 589920, Control_c, 0, 64, 95
1, 589935, Control_c, 0, 64, 94
1, 589950, Control_c, 0, 64, 94
1, 589965, Control_c, 0, 64, 93
1, 589980, Control_c, 0, 64, 92
1, 589994, Control_c, 0, 64, 91
1, 590009, Control_c, 0, 64, 90
1, 590024, Control_c, 0, 64, 89
1, 590039, Control_c, 0, 64, 88
1, 590054, Control_c, 0, 64, 86
1, 590068, Control_c, 0, 64, 85
1, 590083, Control_c, 0, 64, 84
1, 590098, Control_c, 0, 64, 82
1, 590112, Control_c, 0, 64, 81
1, 590127, Control_c, 0, 64, 79
1, 590142, Control_c, 0, 64, 77
1, 590157, Control_c, 0, 64, 75
1, 590173, Control_c, 0, 64, 72
1, 590188, Control_c, 0, 64, 68
1, 590203, Control_c, 0, 64, 65
1, 590217, Control_c, 0, 64, 62
1, 590232, Control_c, 0, 64, 60
1, 590255, Control_c, 0, 64, 58
1, 590270, Control_c, 0, 64, 55
1, 590285, Control_c, 0, 64, 50
1, 590299, Control_c, 0, 64, 43
1, 590314, Control_c, 0, 64, 34
1, 590329, Control_c, 0, 64, 0
1, 590471, Note_on_c, 0, 81, 38
1, 590484, Note_on_c, 0, 69, 30
1, 590536, Control_c, 0, 64, 29
1, 590550, Control_c, 0, 64, 37
1, 590551, Note_on_c, 0, 40, 16
1, 590565, Control_c, 0, 64, 44
1, 590580, Control_c, 0, 64, 51
1, 590595, Control_c, 0, 64, 55
1, 590610, Control_c, 0, 64, 58
1, 590624, Control_c, 0, 64, 61
1, 590639, Control_c, 0, 64, 64
1, 590654, Control_c, 0, 64, 65
1, 590669, Control_c, 0, 64, 67
1, 590684, Control_c, 0, 64, 71
1, 590699, Control_c, 0, 64, 75
1, 590714, Control_c, 0, 64, 79
1, 590729, Control_c, 0, 64, 84
1, 590743, Control_c, 0, 64, 89
1, 590751, Note_off_c, 0, 40, 39
1, 590758, Control_c, 0, 64, 94
1, 590773, Control_c, 0, 64, 99
1, 590788, Control_c, 0, 64, 106
1, 590803, Control_c, 0, 64, 114
1, 590817, Control_c, 0, 64, 127
1, 591178, Note_on_c, 0, 57, 31
1, 591678, Note_on_c, 0, 49, 28
1, 591788, Note_off_c, 0, 57, 41
1, 591802, Note_off_c, 0, 49, 54
1, 591803, Note_off_c, 0, 69, 45
1, 592105, Note_on_c, 0, 80, 45
1, 592108, Note_on_c, 0, 68, 40
1, 592122, Control_c, 0, 64, 121
1, 592137, Control_c, 0, 64, 106
1, 592152, Control_c, 0, 64, 96
1, 592161, Note_off_c, 0, 81, 32
1, 592167, Control_c, 0, 64, 84
1, 592182, Control_c, 0, 64, 72
1, 592195, Note_on_c, 0, 40, 26
1, 592196, Control_c, 0, 64, 58
1, 592211, Control_c, 0, 64, 28
1, 592226, Control_c, 0, 64, 0
1, 592256, Control_c, 0, 64, 32
1, 592270, Control_c, 0, 64, 50
1, 592285, Control_c, 0, 64, 62
1, 592300, Control_c, 0, 64, 69
1, 592315, Control_c, 0, 64, 77
1, 592328, Note_off_c, 0, 40, 53
1, 592330, Control_c, 0, 64, 83
1, 592344, Control_c, 0, 64, 90
1, 592359, Control_c, 0, 64, 98
1, 592374, Control_c, 0, 64, 109
1, 592389, Control_c, 0, 64, 127
1, 592678, Note_on_c, 0, 59, 34
1, 593125, Note_on_c, 0, 50, 34
1, 593252, Note_off_c, 0, 59, 40
1, 593267, Note_off_c, 0, 50, 49
1, 593313, Note_off_c, 0, 80, 38
1, 593340, Note_off_c, 0, 68, 40
1, 593558, Note_on_c, 0, 81, 52
1, 593576, Control_c, 0, 64, 114
1, 593590, Control_c, 0, 64, 98
1, 593593, Note_on_c, 0, 69, 33
1, 593605, Control_c, 0, 64, 84
1, 593615, Note_on_c, 0, 40, 35
1, 593620, Control_c, 0, 64, 72
1, 593635, Control_c, 0, 64, 64
1, 593650, Control_c, 0, 64, 63
1, 593651, Note_off_c, 0, 69, 47
1, 593665, Control_c, 0, 64, 64
1, 593680, Control_c, 0, 64, 68
1, 593694, Control_c, 0, 64, 73
1, 593709, Control_c, 0, 64, 78
1, 593724, Control_c, 0, 64, 83
1, 593739, Control_c, 0, 64, 91
1, 593754, Control_c, 0, 64, 98
1, 593760, Note_off_c, 0, 40, 58
1, 593761, Note_off_c, 0, 81, 65
1, 593768, Control_c, 0, 64, 105
1, 593773, Note_on_c, 0, 80, 69
1, 593783, Control_c, 0, 64, 116
1, 593798, Control_c, 0, 64, 127
1, 593811, Note_on_c, 0, 68, 46
1, 593852, Note_off_c, 0, 68, 55
1, 594044, Note_on_c, 0, 81, 65
1, 594080, Note_on_c, 0, 69, 39
1, 594087, Control_c, 0, 64, 116
1, 594092, Note_off_c, 0, 80, 56
1, 594095, Note_on_c, 0, 57, 40
1, 594102, Control_c, 0, 64, 95
1, 594117, Control_c, 0, 64, 81
1, 594132, Control_c, 0, 64, 70
1, 594147, Control_c, 0, 64, 64
1, 594163, Control_c, 0, 64, 63
1, 594178, Control_c, 0, 64, 66
1, 594192, Control_c, 0, 64, 72
1, 594200, Note_off_c, 0, 69, 54
1, 594207, Control_c, 0, 64, 79
1, 594222, Control_c, 0, 64, 88
1, 594237, Control_c, 0, 64, 96
1, 594252, Control_c, 0, 64, 108
1, 594266, Control_c, 0, 64, 127
1, 594299, Note_off_c, 0, 81, 59
1, 594389, Note_on_c, 0, 85, 66
1, 594419, Note_on_c, 0, 73, 32
1, 594425, Note_off_c, 0, 85, 60
1, 594452, Note_off_c, 0, 73, 51
1, 594497, Note_on_c, 0, 81, 44
1, 594517, Control_c, 0, 64, 96
1, 594532, Control_c, 0, 64, 75
1, 594538, Note_on_c, 0, 69, 53
1, 594540, Note_on_c, 0, 49, 31
1, 594547, Control_c, 0, 64, 62
1, 594562, Control_c, 0, 64, 56
1, 594577, Control_c, 0, 64, 58
1, 594592, Control_c, 0, 64, 61
1, 594603, Note_off_c, 0, 57, 47
1, 594607, Control_c, 0, 64, 65
1, 594622, Control_c, 0, 64, 71
1, 594637, Control_c, 0, 64, 77
1, 594652, Control_c, 0, 64, 85
1, 594666, Control_c, 0, 64, 92
1, 594681, Control_c, 0, 64, 100
1, 594696, Note_off_c, 0, 49, 47
1, 594696, Control_c, 0, 64, 107
1, 594698, Note_off_c, 0, 69, 52
1, 594710, Control_c, 0, 64, 120
1, 594725, Control_c, 0, 64, 127
1, 594859, Note_off_c, 0, 81, 39
1, 595000, Control_c, 0, 64, 117
1, 595008, Note_on_c, 0, 80, 49
1, 595015, Control_c, 0, 64, 108
1, 595027, Note_on_c, 0, 68, 39
1, 595030, Control_c, 0, 64, 101
1, 595045, Control_c, 0, 64, 94
1, 595060, Control_c, 0, 64, 87
1, 595064, Note_on_c, 0, 40, 35
1, 595075, Control_c, 0, 64, 78
1, 595089, Control_c, 0, 64, 69
1, 595104, Control_c, 0, 64, 57
1, 595119, Control_c, 0, 64, 36
1, 595133, Control_c, 0, 64, 0
1, 595178, Control_c, 0, 64, 34
1, 595193, Control_c, 0, 64, 54
1, 595207, Control_c, 0, 64, 66
1, 595222, Control_c, 0, 64, 74
1, 595237, Control_c, 0, 64, 82
1, 595252, Control_c, 0, 64, 88
1, 595253, Note_off_c, 0, 40, 59
1, 595267, Control_c, 0, 64, 95
1, 595281, Control_c, 0, 64, 111
1, 595296, Control_c, 0, 64, 127
1, 595543, Note_on_c, 0, 59, 31
1, 595890, Note_off_c, 0, 68, 36
1, 596002, Note_on_c, 0, 50, 28
1, 596065, Note_off_c, 0, 80, 60
1, 596137, Note_off_c, 0, 59, 42
1, 596152, Note_off_c, 0, 50, 45
1, 596363, Control_c, 0, 67, 123
1, 596378, Control_c, 0, 67, 116
1, 596392, Control_c, 0, 67, 110
1, 596407, Control_c, 0, 67, 106
1, 596422, Control_c, 0, 67, 101
1, 596437, Control_c, 0, 67, 95
1, 596439, Note_on_c, 0, 85, 63
1, 596452, Control_c, 0, 67, 89
1, 596467, Control_c, 0, 67, 84
1, 596473, Note_on_c, 0, 73, 44
1, 596482, Control_c, 0, 64, 108
1, 596482, Control_c, 0, 67, 80
1, 596496, Control_c, 0, 64, 96
1, 596496, Control_c, 0, 67, 72
1, 596511, Control_c, 0, 64, 85
1, 596511, Control_c, 0, 67, 63
1, 596515, Note_on_c, 0, 40, 42
1, 596526, Control_c, 0, 64, 73
1, 596526, Control_c, 0, 67, 53
1, 596541, Control_c, 0, 64, 61
1, 596541, Control_c, 0, 67, 41
1, 596556, Control_c, 0, 64, 47
1, 596556, Control_c, 0, 67, 0
1, 596571, Control_c, 0, 64, 37
1, 596586, Control_c, 0, 64, 38
1, 596601, Control_c, 0, 64, 52
1, 596616, Control_c, 0, 64, 64
1, 596631, Control_c, 0, 64, 74
1, 596646, Control_c, 0, 64, 87
1, 596660, Control_c, 0, 64, 102
1, 596670, Note_off_c, 0, 40, 57
1, 596675, Control_c, 0, 64, 127
1, 596911, Note_on_c, 0, 57, 43
1, 597019, Note_off_c, 0, 85, 51
1, 597193, Note_off_c, 0, 73, 35
1, 597355, Note_on_c, 0, 85, 55
1, 597373, Note_on_c, 0, 49, 33
1, 597412, Note_off_c, 0, 85, 62
1, 597415, Note_off_c, 0, 57, 60
1, 597438, Note_on_c, 0, 86, 65
1, 597476, Note_off_c, 0, 49, 56
1, 597522, Note_on_c, 0, 85, 76
1, 597533, Note_off_c, 0, 86, 60
1, 597588, Note_off_c, 0, 85, 65
1, 597594, Note_on_c, 0, 83, 78
1, 597679, Note_on_c, 0, 85, 78
1, 597716, Note_off_c, 0, 83, 61
1, 597815, Control_c, 0, 64, 107
1, 597830, Control_c, 0, 64, 98
1, 597845, Control_c, 0, 64, 91
1, 597850, Note_on_c, 0, 88, 69
1, 597859, Control_c, 0, 64, 85
1, 597873, Note_off_c, 0, 85, 60
1, 597874, Note_on_c, 0, 76, 38
1, 597874, Control_c, 0, 64, 80
1, 597889, Control_c, 0, 64, 74
1, 597904, Control_c, 0, 64, 68
1, 597909, Note_on_c, 0, 40, 36
1, 597919, Control_c, 0, 64, 59
1, 597934, Control_c, 0, 64, 45
1, 597949, Control_c, 0, 64, 0
1, 598023, Control_c, 0, 64, 45
1, 598038, Control_c, 0, 64, 60
1, 598052, Control_c, 0, 64, 65
1, 598067, Control_c, 0, 64, 69
1, 598082, Control_c, 0, 64, 75
1, 598097, Control_c, 0, 64, 85
1, 598099, Note_off_c, 0, 40, 50
1, 598112, Control_c, 0, 64, 96
1, 598115, Note_off_c, 0, 76, 56
1, 598126, Control_c, 0, 64, 107
1, 598141, Control_c, 0, 64, 117
1, 598157, Control_c, 0, 64, 127
1, 598371, Note_on_c, 0, 86, 52
1, 598383, Note_on_c, 0, 74, 41
1, 598427, Note_on_c, 0, 56, 37
1, 598504, Note_off_c, 0, 88, 32
1, 598505, Control_c, 0, 64, 99
1, 598520, Control_c, 0, 64, 85
1, 598535, Control_c, 0, 64, 76
1, 598550, Control_c, 0, 64, 76
1, 598564, Control_c, 0, 64, 78
1, 598579, Control_c, 0, 64, 81
1, 598594, Control_c, 0, 64, 85
1, 598609, Control_c, 0, 64, 89
1, 598624, Control_c, 0, 64, 94
1, 598638, Control_c, 0, 64, 101
1, 598653, Control_c, 0, 64, 106
1, 598682, Control_c, 0, 64, 109
1, 598727, Control_c, 0, 64, 111
1, 598815, Note_on_c, 0, 47, 35
1, 598935, Control_c, 0, 67, 37
1, 598941, Note_off_c, 0, 56, 41
1, 598950, Control_c, 0, 67, 56
1, 598962, Note_off_c, 0, 47, 58
1, 598965, Control_c, 0, 67, 77
1, 598977, Note_off_c, 0, 74, 36
1, 598980, Control_c, 0, 67, 97
1, 598995, Control_c, 0, 67, 111
1, 599010, Control_c, 0, 67, 123
1, 599019, Note_off_c, 0, 86, 65
1, 599025, Control_c, 0, 67, 127
1, 599269, Control_c, 0, 64, 109
1, 599284, Control_c, 0, 64, 107
1, 599299, Control_c, 0, 64, 105
1, 599308, Note_on_c, 0, 86, 62
1, 599313, Control_c, 0, 64, 101
1, 599328, Control_c, 0, 64, 98
1, 599341, Note_on_c, 0, 74, 48
1, 599343, Control_c, 0, 64, 95
1, 599358, Control_c, 0, 64, 88
1, 599366, Note_on_c, 0, 40, 34
1, 599373, Control_c, 0, 64, 80
1, 599387, Control_c, 0, 64, 71
1, 599402, Control_c, 0, 64, 61
1, 599417, Control_c, 0, 64, 50
1, 599424, Note_off_c, 0, 74, 60
1, 599432, Control_c, 0, 64, 47
1, 599447, Control_c, 0, 64, 49
1, 599461, Control_c, 0, 64, 57
1, 599476, Control_c, 0, 64, 63
1, 599491, Control_c, 0, 64, 70
1, 599505, Control_c, 0, 64, 79
1, 599520, Control_c, 0, 64, 88
1, 599535, Control_c, 0, 64, 95
1, 599545, Note_on_c, 0, 85, 71
1, 599550, Control_c, 0, 64, 104
1, 599557, Note_on_c, 0, 73, 56
1, 599558, Note_off_c, 0, 86, 63
1, 599565, Control_c, 0, 64, 126
1, 599586, Note_off_c, 0, 40, 39
1, 599598, Note_off_c, 0, 73, 59
1, 599628, Note_off_c, 0, 85, 62
1, 599746, Note_on_c, 0, 85, 70
1, 599773, Control_c, 0, 64, 121
1, 599774, Note_on_c, 0, 80, 59
1, 599778, Note_on_c, 0, 73, 58
1, 599787, Note_on_c, 0, 49, 42
1, 599788, Control_c, 0, 64, 92
1, 599797, Note_on_c, 0, 41, 42
1, 599803, Control_c, 0, 64, 74
1, 599818, Control_c, 0, 64, 58
1, 599832, Control_c, 0, 64, 44
1, 599847, Control_c, 0, 64, 41
1, 599862, Control_c, 0, 64, 51
1, 599872, Note_off_c, 0, 85, 63
1, 599877, Control_c, 0, 64, 61
1, 599881, Note_off_c, 0, 73, 63
1, 599892, Control_c, 0, 64, 70
1, 599907, Control_c, 0, 64, 83
1, 599921, Control_c, 0, 64, 97
1, 599929, Note_off_c, 0, 80, 57
1, 599936, Control_c, 0, 64, 106
1, 599951, Control_c, 0, 64, 126
1, 599957, Note_on_c, 0, 83, 71
1, 599982, Note_on_c, 0, 71, 56
1, 599990, Note_off_c, 0, 41, 56
1, 599996, Note_off_c, 0, 49, 51
1, 600024, Note_off_c, 0, 71, 58
1, 600043, Note_off_c, 0, 83, 58
1, 600181, Note_on_c, 0, 83, 54
1, 600196, Control_c, 0, 64, 110
1, 600197, Note_on_c, 0, 78, 52
1, 600210, Control_c, 0, 64, 97
1, 600214, Note_on_c, 0, 49, 37
1, 600214, Note_on_c, 0, 71, 48
1, 600225, Control_c, 0, 64, 82
1, 600229, Note_on_c, 0, 42, 40
1, 600240, Control_c, 0, 64, 67
1, 600254, Control_c, 0, 64, 51
1, 600269, Control_c, 0, 64, 0
1, 600276, Note_off_c, 0, 83, 56
1, 600296, Note_off_c, 0, 71, 61
1, 600299, Control_c, 0, 64, 29
1, 600314, Control_c, 0, 64, 47
1, 600328, Control_c, 0, 64, 61
1, 600343, Control_c, 0, 64, 69
1, 600358, Control_c, 0, 64, 75
1, 600373, Control_c, 0, 64, 82
1, 600388, Control_c, 0, 64, 87
1, 600393, Note_on_c, 0, 81, 57
1, 600398, Note_off_c, 0, 42, 56
1, 600400, Note_off_c, 0, 49, 52
1, 600402, Note_on_c, 0, 69, 57
1, 600402, Control_c, 0, 64, 93
1, 600417, Control_c, 0, 64, 100
1, 600432, Control_c, 0, 64, 108
1, 600447, Control_c, 0, 64, 117
1, 600452, Note_off_c, 0, 69, 60
1, 600461, Control_c, 0, 64, 127
1, 600466, Note_off_c, 0, 81, 60
1, 600479, Note_off_c, 0, 78, 36
1, 600685, Control_c, 0, 64, 120
1, 600700, Control_c, 0, 64, 112
1, 600713, Note_on_c, 0, 80, 48
1, 600715, Control_c, 0, 64, 106
1, 600737, Control_c, 0, 64, 100
1, 600741, Note_on_c, 0, 68, 40
1, 600741, Note_on_c, 0, 77, 42
1, 600751, Control_c, 0, 64, 94
1, 600766, Control_c, 0, 64, 89
1, 600771, Note_on_c, 0, 37, 40
1, 600781, Control_c, 0, 64, 82
1, 600797, Control_c, 0, 64, 74
1, 600812, Control_c, 0, 64, 62
1, 600826, Control_c, 0, 64, 40
1, 600841, Control_c, 0, 64, 0
1, 600915, Control_c, 0, 64, 48
1, 600930, Control_c, 0, 64, 64
1, 600945, Control_c, 0, 64, 74
1, 600959, Control_c, 0, 64, 86
1, 600974, Control_c, 0, 64, 97
1, 600989, Control_c, 0, 64, 114
1, 600995, Note_off_c, 0, 37, 46
1, 601004, Control_c, 0, 64, 127
1, 601299, Note_on_c, 0, 61, 39
1, 601627, Note_off_c, 0, 68, 37
1, 601722, Note_off_c, 0, 77, 48
1, 601800, Note_on_c, 0, 49, 26
1, 601821, Note_off_c, 0, 80, 60
1, 601925, Note_off_c, 0, 61, 34
1, 601990, Control_c, 0, 67, 117
1, 601995, Note_off_c, 0, 49, 42
1, 602005, Control_c, 0, 67, 99
1, 602019, Control_c, 0, 67, 78
1, 602034, Control_c, 0, 67, 53
1, 602049, Control_c, 0, 67, 33
1, 602064, Control_c, 0, 67, 0
1, 602235, Control_c, 0, 64, 123
1, 602250, Control_c, 0, 64, 111
1, 602265, Control_c, 0, 64, 106
1, 602280, Control_c, 0, 64, 101
1, 602294, Control_c, 0, 64, 97
1, 602309, Control_c, 0, 64, 93
1, 602323, Control_c, 0, 64, 88
1, 602338, Control_c, 0, 64, 84
1, 602353, Control_c, 0, 64, 79
1, 602368, Control_c, 0, 64, 75
1, 602383, Control_c, 0, 64, 71
1, 602397, Control_c, 0, 64, 66
1, 602412, Control_c, 0, 64, 62
1, 602427, Control_c, 0, 64, 59
1, 602442, Control_c, 0, 64, 54
1, 602456, Control_c, 0, 64, 47
1, 602471, Control_c, 0, 64, 31
1, 602486, Control_c, 0, 64, 0
1, 602504, Note_on_c, 0, 90, 78
1, 602505, Note_on_c, 0, 83, 73
1, 602519, Note_on_c, 0, 78, 67
1, 602545, Note_on_c, 0, 42, 60
1, 602634, Control_c, 0, 64, 47
1, 602649, Control_c, 0, 64, 64
1, 602664, Control_c, 0, 64, 72
1, 602679, Control_c, 0, 64, 81
1, 602694, Control_c, 0, 64, 94
1, 602709, Control_c, 0, 64, 127
1, 602713, Note_off_c, 0, 42, 56
1, 603230, Note_on_c, 0, 62, 41
1, 603415, Note_off_c, 0, 83, 60
1, 603463, Note_off_c, 0, 90, 62
1, 603759, Note_on_c, 0, 50, 33
1, 603840, Note_off_c, 0, 62, 50
1, 603897, Note_off_c, 0, 50, 36
1, 603924, Note_off_c, 0, 78, 53
1, 604208, Note_on_c, 0, 81, 50
1, 604208, Note_on_c, 0, 85, 50
1, 604215, Note_on_c, 0, 78, 41
1, 604221, Control_c, 0, 64, 118
1, 604226, Note_on_c, 0, 73, 39
1, 604236, Control_c, 0, 64, 106
1, 604251, Control_c, 0, 64, 95
1, 604264, Note_on_c, 0, 42, 30
1, 604266, Control_c, 0, 64, 86
1, 604281, Control_c, 0, 64, 77
1, 604295, Control_c, 0, 64, 65
1, 604310, Control_c, 0, 64, 48
1, 604325, Control_c, 0, 64, 0
1, 604399, Control_c, 0, 64, 46
1, 604414, Control_c, 0, 64, 62
1, 604429, Control_c, 0, 64, 71
1, 604444, Control_c, 0, 64, 86
1, 604459, Control_c, 0, 64, 116
1, 604461, Note_off_c, 0, 42, 50
1, 604481, Control_c, 0, 64, 127
1, 604737, Note_on_c, 0, 61, 39
1, 604808, Control_c, 0, 67, 37
1, 604822, Control_c, 0, 67, 54
1, 604837, Control_c, 0, 67, 74
1, 604852, Control_c, 0, 67, 91
1, 604867, Control_c, 0, 67, 108
1, 604882, Control_c, 0, 67, 120
1, 604897, Control_c, 0, 67, 127
1, 605150, Note_on_c, 0, 49, 41
1, 605166, Note_off_c, 0, 78, 47
1, 605187, Note_off_c, 0, 61, 34
1, 605204, Note_off_c, 0, 85, 57
1, 605208, Note_off_c, 0, 49, 61
1, 605244, Note_off_c, 0, 81, 49
1, 605249, Note_off_c, 0, 73, 37
1, 605458, Note_on_c, 0, 81, 55
1, 605528, Note_off_c, 0, 81, 62
1, 605546, Note_on_c, 0, 85, 58
1, 605559, Note_on_c, 0, 80, 58
1, 605577, Note_on_c, 0, 73, 40
1, 605584, Note_on_c, 0, 77, 46
1, 605586, Control_c, 0, 64, 108
1, 605601, Control_c, 0, 64, 85
1, 605605, Note_on_c, 0, 37, 45
1, 605615, Control_c, 0, 64, 67
1, 605630, Control_c, 0, 64, 49
1, 605645, Control_c, 0, 64, 0
1, 605675, Control_c, 0, 64, 37
1, 605690, Control_c, 0, 64, 54
1, 605705, Control_c, 0, 64, 67
1, 605720, Control_c, 0, 64, 79
1, 605726, Note_off_c, 0, 37, 54
1, 605735, Control_c, 0, 64, 97
1, 605749, Control_c, 0, 64, 127
1, 605777, Note_off_c, 0, 77, 57
1, 605783, Note_off_c, 0, 73, 49
1, 605800, Note_off_c, 0, 80, 58
1, 605801, Note_off_c, 0, 85, 58
1, 606009, Note_on_c, 0, 85, 70
1, 606014, Note_on_c, 0, 80, 64
1, 606040, Note_on_c, 0, 73, 41
1, 606042, Note_on_c, 0, 77, 53
1, 606057, Note_on_c, 0, 61, 43
1, 606197, Note_off_c, 0, 77, 58
1, 606204, Note_off_c, 0, 73, 39
1, 606228, Note_off_c, 0, 85, 62
1, 606292, Note_off_c, 0, 80, 59
1, 606337, Note_on_c, 0, 81, 62
1, 606352, Note_off_c, 0, 61, 36
1, 606413, Note_on_c, 0, 85, 81
1, 606438, Note_on_c, 0, 80, 70
1, 606438, Control_c, 0, 64, 109
1, 606449, Note_on_c, 0, 49, 50
1, 606449, Note_on_c, 0, 73, 41
1, 606451, Note_on_c, 0, 77, 55
1, 606453, Control_c, 0, 64, 80
1, 606468, Control_c, 0, 64, 63
1, 606471, Note_off_c, 0, 81, 58
1, 606483, Control_c, 0, 64, 50
1, 606497, Control_c, 0, 64, 51
1, 606512, Control_c, 0, 64, 58
1, 606527, Control_c, 0, 64, 64
1, 606542, Control_c, 0, 64, 74
1, 606557, Control_c, 0, 64, 87
1, 606571, Control_c, 0, 64, 100
1, 606586, Control_c, 0, 64, 116
1, 606589, Note_off_c, 0, 49, 60
1, 606601, Control_c, 0, 64, 127
1, 606611, Note_off_c, 0, 77, 61
1, 606644, Note_off_c, 0, 73, 47
1, 606668, Note_off_c, 0, 85, 60
1, 606691, Note_off_c, 0, 80, 59
1, 606953, Note_on_c, 0, 85, 55
1, 606966, Control_c, 0, 64, 109
1, 606974, Note_on_c, 0, 81, 50
1, 606981, Control_c, 0, 64, 102
1, 606987, Note_on_c, 0, 78, 37
1, 606995, Control_c, 0, 64, 95
1, 607002, Note_on_c, 0, 73, 39
1, 607010, Control_c, 0, 64, 87
1, 607025, Control_c, 0, 64, 81
1, 607039, Control_c, 0, 64, 75
1, 607052, Note_on_c, 0, 42, 33
1, 607054, Control_c, 0, 64, 69
1, 607069, Control_c, 0, 64, 63
1, 607084, Control_c, 0, 64, 55
1, 607099, Control_c, 0, 64, 39
1, 607113, Control_c, 0, 64, 0
1, 607202, Control_c, 0, 64, 51
1, 607217, Control_c, 0, 64, 62
1, 607232, Control_c, 0, 64, 67
1, 607246, Control_c, 0, 64, 73
1, 607261, Control_c, 0, 64, 80
1, 607276, Control_c, 0, 64, 88
1, 607291, Control_c, 0, 64, 96
1, 607305, Note_off_c, 0, 42, 41
1, 607306, Control_c, 0, 64, 106
1, 607320, Control_c, 0, 64, 116
1, 607335, Control_c, 0, 64, 127
1, 607568, Note_on_c, 0, 61, 37
1, 607806, Note_off_c, 0, 78, 36
1, 607842, Note_off_c, 0, 85, 57
1, 607924, Note_off_c, 0, 81, 62
1, 607975, Note_off_c, 0, 73, 32
1, 607986, Note_on_c, 0, 49, 39
1, 608049, Note_off_c, 0, 61, 36
1, 608058, Note_off_c, 0, 49, 56
1, 608297, Note_on_c, 0, 81, 52
1, 608388, Control_c, 0, 64, 101
1, 608397, Note_on_c, 0, 80, 57
1, 608403, Control_c, 0, 64, 81
1, 608411, Note_off_c, 0, 81, 59
1, 608412, Note_on_c, 0, 77, 51
1, 608417, Control_c, 0, 64, 67
1, 608422, Note_on_c, 0, 73, 38
1, 608432, Control_c, 0, 64, 57
1, 608447, Control_c, 0, 64, 56
1, 608460, Note_on_c, 0, 37, 35
1, 608462, Control_c, 0, 64, 60
1, 608477, Control_c, 0, 64, 65
1, 608492, Control_c, 0, 64, 74
1, 608507, Control_c, 0, 64, 87
1, 608522, Control_c, 0, 64, 101
1, 608537, Control_c, 0, 64, 109
1, 608552, Control_c, 0, 64, 121
1, 608566, Control_c, 0, 64, 127
1, 608573, Note_off_c, 0, 73, 53
1, 608583, Note_off_c, 0, 37, 47
1, 608592, Note_off_c, 0, 77, 61
1, 608604, Note_off_c, 0, 80, 59
1, 608853, Note_on_c, 0, 80, 63
1, 608865, Note_on_c, 0, 77, 55
1, 608873, Note_on_c, 0, 73, 45
1, 608930, Note_on_c, 0, 61, 44
1, 609005, Note_off_c, 0, 73, 34
1, 609026, Note_off_c, 0, 77, 54
1, 609083, Note_off_c, 0, 80, 59
1, 609198, Note_on_c, 0, 81, 48
1, 609255, Control_c, 0, 64, 91
1, 609264, Note_off_c, 0, 61, 27
1, 609270, Control_c, 0, 64, 74
1, 609276, Note_off_c, 0, 81, 62
1, 609281, Note_on_c, 0, 80, 65
1, 609285, Control_c, 0, 64, 62
1, 609285, Note_on_c, 0, 77, 54
1, 609290, Note_on_c, 0, 73, 41
1, 609300, Control_c, 0, 64, 58
1, 609313, Note_on_c, 0, 49, 41
1, 609315, Control_c, 0, 64, 60
1, 609330, Control_c, 0, 64, 64
1, 609345, Control_c, 0, 64, 71
1, 609360, Control_c, 0, 64, 83
1, 609375, Control_c, 0, 64, 93
1, 609389, Control_c, 0, 64, 102
1, 609404, Control_c, 0, 64, 120
1, 609416, Note_off_c, 0, 77, 64
1, 609419, Control_c, 0, 64, 127
1, 609423, Note_off_c, 0, 49, 59
1, 609446, Note_off_c, 0, 73, 62
1, 609521, Note_off_c, 0, 80, 58
1, 609795, Control_c, 0, 64, 112
1, 609810, Control_c, 0, 64, 105
1, 609821, Note_on_c, 0, 78, 56
1, 609825, Control_c, 0, 64, 99
1, 609830, Note_on_c, 0, 73, 47
1, 609836, Note_on_c, 0, 69, 45
1, 609839, Control_c, 0, 64, 93
1, 609854, Control_c, 0, 64, 84
1, 609869, Control_c, 0, 64, 70
1, 609884, Control_c, 0, 64, 54
1, 609891, Note_on_c, 0, 30, 43
1, 609899, Control_c, 0, 64, 0
1, 609959, Control_c, 0, 64, 39
1, 609973, Control_c, 0, 64, 59
1, 609988, Control_c, 0, 64, 69
1, 610003, Control_c, 0, 64, 80
1, 610018, Control_c, 0, 64, 97
1, 610021, Note_off_c, 0, 30, 51
1, 610032, Control_c, 0, 64, 127
1, 610494, Note_off_c, 0, 78, 32
1, 610501, Note_on_c, 0, 54, 40
1, 610630, Note_off_c, 0, 73, 55
1, 610790, Note_off_c, 0, 69, 52
1, 611004, Note_on_c, 0, 42, 43
1, 611059, Note_off_c, 0, 54, 56
1, 611104, Note_off_c, 0, 42, 60
1, 611168, Control_c, 0, 67, 110
1, 611183, Control_c, 0, 67, 91
1, 611198, Control_c, 0, 67, 70
1, 611219, Control_c, 0, 67, 49
1, 611234, Control_c, 0, 67, 0
1, 611409, Note_on_c, 0, 66, 50
1, 611422, Note_on_c, 0, 62, 48
1, 611428, Note_on_c, 0, 59, 45
1, 611449, Note_on_c, 0, 30, 43
1, 611457, Control_c, 0, 64, 103
1, 611472, Control_c, 0, 64, 84
1, 611486, Control_c, 0, 64, 66
1, 611501, Control_c, 0, 64, 41
1, 611516, Control_c, 0, 64, 0
1, 611560, Control_c, 0, 64, 42
1, 611575, Control_c, 0, 64, 60
1, 611590, Control_c, 0, 64, 72
1, 611604, Note_off_c, 0, 30, 54
1, 611604, Control_c, 0, 64, 84
1, 611619, Control_c, 0, 64, 95
1, 611634, Control_c, 0, 64, 108
1, 611649, Control_c, 0, 64, 127
1, 611937, Note_on_c, 0, 54, 42
1, 612402, Note_on_c, 0, 42, 43
1, 612465, Note_off_c, 0, 59, 61
1, 612469, Note_off_c, 0, 54, 52
1, 612543, Note_off_c, 0, 66, 38
1, 612547, Control_c, 0, 67, 38
1, 612562, Control_c, 0, 67, 50
1, 612567, Note_off_c, 0, 42, 35
1, 612577, Control_c, 0, 67, 60
1, 612591, Note_off_c, 0, 62, 56
1, 612592, Control_c, 0, 67, 71
1, 612606, Control_c, 0, 67, 82
1, 612621, Control_c, 0, 67, 95
1, 612636, Control_c, 0, 67, 106
1, 612650, Control_c, 0, 67, 112
1, 612665, Control_c, 0, 67, 115
1, 612718, Control_c, 0, 67, 117
1, 612847, Note_on_c, 0, 66, 51
1, 612862, Note_on_c, 0, 57, 44
1, 612865, Note_on_c, 0, 61, 47
1, 612865, Control_c, 0, 64, 118
1, 612880, Control_c, 0, 64, 104
1, 612895, Control_c, 0, 64, 91
1, 612900, Note_on_c, 0, 30, 43
1, 612910, Control_c, 0, 64, 77
1, 612925, Control_c, 0, 64, 59
1, 612939, Control_c, 0, 64, 30
1, 612954, Control_c, 0, 64, 0
1, 612998, Control_c, 0, 64, 34
1, 613013, Control_c, 0, 64, 54
1, 613028, Control_c, 0, 64, 67
1, 613043, Control_c, 0, 64, 77
1, 613048, Note_off_c, 0, 30, 53
1, 613057, Control_c, 0, 64, 86
1, 613072, Control_c, 0, 64, 94
1, 613087, Control_c, 0, 64, 106
1, 613102, Control_c, 0, 64, 127
1, 613117, Control_c, 0, 67, 115
1, 613332, Note_on_c, 0, 54, 51
1, 613791, Note_on_c, 0, 42, 40
1, 613810, Note_off_c, 0, 54, 52
1, 613846, Note_off_c, 0, 66, 58
1, 613881, Note_off_c, 0, 42, 56
1, 613912, Note_off_c, 0, 57, 59
1, 614015, Note_off_c, 0, 61, 53
1, 614245, Control_c, 0, 64, 111
1, 614250, Note_on_c, 0, 66, 47
1, 614260, Control_c, 0, 64, 102
1, 614269, Note_on_c, 0, 59, 42
1, 614272, Note_on_c, 0, 56, 34
1, 614275, Control_c, 0, 64, 94
1, 614290, Control_c, 0, 64, 82
1, 614295, Note_on_c, 0, 30, 41
1, 614305, Control_c, 0, 64, 68
1, 614319, Control_c, 0, 64, 51
1, 614319, Control_c, 0, 67, 117
1, 614334, Control_c, 0, 64, 0
1, 614393, Control_c, 0, 64, 31
1, 614408, Control_c, 0, 64, 51
1, 614423, Control_c, 0, 64, 64
1, 614437, Control_c, 0, 64, 72
1, 614445, Note_off_c, 0, 30, 54
1, 614452, Control_c, 0, 64, 80
1, 614467, Control_c, 0, 64, 87
1, 614467, Control_c, 0, 67, 119
1, 614482, Control_c, 0, 64, 94
1, 614497, Control_c, 0, 64, 102
1, 614511, Control_c, 0, 64, 115
1, 614526, Control_c, 0, 64, 127
1, 614674, Control_c, 0, 67, 121
1, 614719, Control_c, 0, 67, 123
1, 614747, Note_on_c, 0, 54, 41
1, 614763, Control_c, 0, 67, 127
1, 615228, Note_on_c, 0, 42, 37
1, 615269, Note_off_c, 0, 54, 34
1, 615324, Note_off_c, 0, 42, 56
1, 615379, Note_off_c, 0, 56, 39
1, 615399, Note_off_c, 0, 66, 39
1, 615470, Note_off_c, 0, 59, 42
1, 615800, Note_on_c, 0, 66, 41
1, 615813, Note_on_c, 0, 54, 29
1, 615821, Note_on_c, 0, 57, 30
1, 615846, Control_c, 0, 64, 112
1, 615853, Note_on_c, 0, 30, 36
1, 615861, Control_c, 0, 64, 102
1, 615876, Control_c, 0, 64, 93
1, 615891, Control_c, 0, 64, 83
1, 615905, Control_c, 0, 64, 73
1, 615920, Control_c, 0, 64, 62
1, 615935, Control_c, 0, 64, 44
1, 615950, Control_c, 0, 64, 0
1, 616009, Control_c, 0, 64, 33
1, 616024, Control_c, 0, 64, 51
1, 616039, Control_c, 0, 64, 63
1, 616054, Control_c, 0, 64, 70
1, 616069, Control_c, 0, 64, 77
1, 616083, Control_c, 0, 64, 84
1, 616087, Note_off_c, 0, 30, 48
1, 616098, Control_c, 0, 64, 89
1, 616113, Control_c, 0, 64, 95
1, 616128, Control_c, 0, 64, 103
1, 616143, Control_c, 0, 64, 111
1, 616151, Note_off_c, 0, 54, 55
1, 616157, Control_c, 0, 64, 123
1, 616172, Control_c, 0, 64, 127
1, 616477, Note_on_c, 0, 54, 30
1, 617140, Note_on_c, 0, 42, 22
1, 617252, Note_off_c, 0, 57, 40
1, 617365, Note_off_c, 0, 54, 38
1, 617418, Control_c, 0, 64, 123
1, 617426, Note_off_c, 0, 42, 42
1, 617447, Control_c, 0, 64, 121
1, 617496, Note_off_c, 0, 66, 34
1, 617521, Control_c, 0, 64, 118
1, 617581, Control_c, 0, 64, 115
1, 617611, Control_c, 0, 64, 112
1, 617640, Control_c, 0, 64, 110
1, 617670, Control_c, 0, 64, 108
1, 617700, Control_c, 0, 64, 105
1, 617729, Control_c, 0, 64, 102
1, 617759, Control_c, 0, 64, 100
1, 617788, Control_c, 0, 64, 97
1, 617803, Control_c, 0, 64, 95
1, 617818, Control_c, 0, 64, 93
1, 617833, Control_c, 0, 64, 92
1, 617847, Control_c, 0, 64, 90
1, 617862, Control_c, 0, 64, 88
1, 617877, Control_c, 0, 64, 86
1, 617892, Control_c, 0, 64, 84
1, 617907, Control_c, 0, 64, 83
1, 617921, Control_c, 0, 64, 81
1, 617936, Control_c, 0, 64, 80
1, 617959, Control_c, 0, 64, 78
1, 617974, Control_c, 0, 64, 77
1, 617988, Control_c, 0, 64, 75
1, 618003, Control_c, 0, 64, 73
1, 618018, Control_c, 0, 64, 71
1, 618033, Control_c, 0, 64, 68
1, 618048, Control_c, 0, 64, 66
1, 618062, Control_c, 0, 64, 64
1, 618077, Control_c, 0, 64, 62
1, 618092, Control_c, 0, 64, 61
1, 618106, Control_c, 0, 64, 60
1, 618123, Control_c, 0, 64, 59
1, 618138, Control_c, 0, 64, 58
1, 618152, Control_c, 0, 64, 56
1, 618167, Control_c, 0, 64, 54
1, 618182, Control_c, 0, 64, 51
1, 618196, Control_c, 0, 64, 49
1, 618211, Control_c, 0, 64, 46
1, 618226, Control_c, 0, 64, 40
1, 618241, Control_c, 0, 64, 33
1, 618256, Control_c, 0, 64, 0
1, 618330, Note_on_c, 0, 65, 35
1, 618538, Control_c, 0, 64, 38
1, 618552, Control_c, 0, 64, 49
1, 618567, Control_c, 0, 64, 55
1, 618582, Control_c, 0, 64, 57
1, 618596, Control_c, 0, 64, 58
1, 618611, Control_c, 0, 64, 59
1, 618626, Control_c, 0, 64, 61
1, 618641, Control_c, 0, 64, 62
1, 618656, Control_c, 0, 64, 63
1, 618702, Note_on_c, 0, 66, 48
1, 618708, Control_c, 0, 64, 63
1, 618737, Control_c, 0, 64, 62
1, 618752, Control_c, 0, 64, 58
1, 618767, Control_c, 0, 64, 51
1, 618782, Control_c, 0, 64, 40
1, 618797, Control_c, 0, 64, 0
1, 618806, Note_off_c, 0, 65, 38
1, 618915, Control_c, 0, 64, 32
1, 618931, Control_c, 0, 64, 40
1, 618946, Control_c, 0, 64, 46
1, 618957, Note_on_c, 0, 73, 51
1, 618961, Control_c, 0, 64, 51
1, 618975, Control_c, 0, 64, 55
1, 618976, Note_off_c, 0, 66, 62
1, 618990, Control_c, 0, 64, 58
1, 619005, Control_c, 0, 64, 59
1, 619019, Control_c, 0, 64, 59
1, 619034, Control_c, 0, 64, 60
1, 619049, Control_c, 0, 64, 61
1, 619064, Control_c, 0, 64, 62
1, 619079, Control_c, 0, 64, 62
1, 619150, Note_off_c, 0, 73, 54
1, 619155, Note_on_c, 0, 72, 58
1, 619316, Control_c, 0, 64, 62
1, 619339, Note_on_c, 0, 74, 66
1, 619355, Note_off_c, 0, 72, 55
1, 619360, Control_c, 0, 64, 61
1, 619405, Control_c, 0, 64, 61
1, 619456, Control_c, 0, 64, 60
1, 619486, Control_c, 0, 64, 60
1, 619515, Control_c, 0, 64, 59
1, 619522, Note_on_c, 0, 73, 68
1, 619536, Note_off_c, 0, 74, 57
1, 619545, Control_c, 0, 64, 59
1, 619560, Control_c, 0, 64, 58
1, 619590, Control_c, 0, 64, 58
1, 619649, Control_c, 0, 64, 57
1, 619718, Note_on_c, 0, 78, 66
1, 619756, Note_off_c, 0, 73, 62
1, 619769, Control_c, 0, 64, 57
1, 619783, Control_c, 0, 64, 56
1, 619798, Control_c, 0, 64, 56
1, 619883, Note_off_c, 0, 78, 60
1, 619917, Note_on_c, 0, 77, 64
1, 619990, Control_c, 0, 64, 55
1, 620127, Note_on_c, 0, 80, 56
1, 620178, Note_off_c, 0, 77, 39
1, 620295, Control_c, 0, 64, 56
1, 620353, Note_on_c, 0, 78, 53
1, 620374, Note_off_c, 0, 80, 54
1, 620582, Note_on_c, 0, 83, 51
1, 620624, Note_off_c, 0, 78, 59
1, 620794, Note_off_c, 0, 83, 48
1, 620823, Note_on_c, 0, 81, 52
1, 620859, Control_c, 0, 64, 56
1, 620903, Control_c, 0, 64, 57
1, 621154, Note_on_c, 0, 86, 46
1, 621225, Note_off_c, 0, 81, 37
1, 621265, Control_c, 0, 64, 56
1, 621369, Control_c, 0, 67, 123
1, 621384, Control_c, 0, 67, 111
1, 621399, Control_c, 0, 67, 85
1, 621414, Control_c, 0, 67, 61
1, 621429, Control_c, 0, 67, 42
1, 621444, Control_c, 0, 67, 0
1, 621475, Note_on_c, 0, 85, 54
1, 621517, Note_off_c, 0, 86, 37
1, 621577, Note_off_c, 0, 85, 56
1, 621715, Note_on_c, 0, 83, 52
1, 621791, Note_off_c, 0, 83, 58
1, 621907, Note_on_c, 0, 81, 47
1, 621975, Note_off_c, 0, 81, 59
1, 622088, Control_c, 0, 67, 45
1, 622094, Note_on_c, 0, 80, 55
1, 622103, Control_c, 0, 67, 58
1, 622118, Control_c, 0, 67, 69
1, 622133, Control_c, 0, 67, 78
1, 622148, Control_c, 0, 67, 84
1, 622162, Control_c, 0, 67, 89
1, 622175, Note_off_c, 0, 80, 57
1, 622177, Control_c, 0, 67, 94
1, 622192, Control_c, 0, 67, 101
1, 622207, Control_c, 0, 67, 107
1, 622222, Control_c, 0, 67, 112
1, 622237, Control_c, 0, 67, 114
1, 622252, Control_c, 0, 67, 117
1, 622267, Control_c, 0, 67, 121
1, 622276, Note_on_c, 0, 78, 57
1, 622282, Control_c, 0, 67, 127
1, 622350, Note_off_c, 0, 78, 56
1, 622472, Note_on_c, 0, 76, 57
1, 622544, Note_off_c, 0, 76, 60
1, 622650, Note_on_c, 0, 74, 58
1, 622722, Note_off_c, 0, 74, 54
1, 622834, Note_on_c, 0, 73, 56
1, 622914, Note_off_c, 0, 73, 57
1, 623033, Note_on_c, 0, 71, 56
1, 623109, Note_off_c, 0, 71, 57
1, 623257, Note_on_c, 0, 69, 47
1, 623331, Note_off_c, 0, 69, 58
1, 623411, Note_on_c, 0, 68, 51
1, 623452, Control_c, 0, 64, 56
1, 623473, Note_off_c, 0, 68, 52
1, 623557, Note_on_c, 0, 66, 52
1, 623620, Note_off_c, 0, 66, 50
1, 623719, Control_c, 0, 64, 55
1, 623751, Note_on_c, 0, 65, 44
1, 623780, Note_on_c, 0, 56, 31
1, 623781, Note_on_c, 0, 59, 33
1, 623787, Note_on_c, 0, 62, 25
1, 623888, Note_off_c, 0, 65, 54
1, 623924, Note_on_c, 0, 64, 47
1, 623927, Control_c, 0, 64, 56
1, 623948, Control_c, 0, 64, 58
1, 623963, Control_c, 0, 64, 60
1, 623978, Control_c, 0, 64, 62
1, 623993, Control_c, 0, 64, 64
1, 623996, Note_off_c, 0, 64, 62
1, 624008, Control_c, 0, 64, 66
1, 624022, Control_c, 0, 64, 69
1, 624037, Control_c, 0, 64, 72
1, 624042, Note_on_c, 0, 65, 47
1, 624052, Control_c, 0, 64, 74
1, 624067, Control_c, 0, 64, 75
1, 624082, Control_c, 0, 64, 77
1, 624097, Control_c, 0, 64, 77
1, 624112, Control_c, 0, 64, 78
1, 624127, Control_c, 0, 64, 78
1, 624141, Control_c, 0, 64, 79
1, 624177, Note_off_c, 0, 65, 47
1, 624209, Note_on_c, 0, 71, 47
1, 624230, Control_c, 0, 64, 78
1, 624245, Control_c, 0, 64, 74
1, 624260, Control_c, 0, 64, 67
1, 624275, Control_c, 0, 64, 60
1, 624289, Control_c, 0, 64, 54
1, 624304, Control_c, 0, 64, 55
1, 624319, Note_off_c, 0, 71, 57
1, 624319, Control_c, 0, 64, 57
1, 624334, Control_c, 0, 64, 60
1, 624341, Note_on_c, 0, 70, 53
1, 624348, Control_c, 0, 64, 63
1, 624363, Control_c, 0, 64, 66
1, 624378, Control_c, 0, 64, 69
1, 624393, Control_c, 0, 64, 72
1, 624408, Control_c, 0, 64, 74
1, 624417, Note_off_c, 0, 70, 61
1, 624422, Control_c, 0, 64, 75
1, 624437, Control_c, 0, 64, 77
1, 624440, Note_on_c, 0, 71, 60
1, 624452, Control_c, 0, 64, 80
1, 624467, Control_c, 0, 64, 84
1, 624482, Control_c, 0, 64, 88
1, 624496, Control_c, 0, 64, 90
1, 624527, Control_c, 0, 64, 88
1, 624528, Note_off_c, 0, 71, 58
1, 624542, Control_c, 0, 64, 79
1, 624550, Note_on_c, 0, 74, 70
1, 624556, Control_c, 0, 64, 68
1, 624571, Control_c, 0, 64, 60
1, 624586, Control_c, 0, 64, 57
1, 624601, Control_c, 0, 64, 59
1, 624616, Control_c, 0, 64, 63
1, 624631, Control_c, 0, 64, 66
1, 624645, Control_c, 0, 64, 70
1, 624651, Note_off_c, 0, 74, 61
1, 624654, Note_on_c, 0, 73, 66
1, 624660, Control_c, 0, 64, 74
1, 624675, Control_c, 0, 64, 77
1, 624698, Control_c, 0, 64, 80
1, 624712, Control_c, 0, 64, 82
1, 624727, Control_c, 0, 64, 83
1, 624742, Control_c, 0, 64, 84
1, 624745, Note_off_c, 0, 73, 61
1, 624757, Control_c, 0, 64, 85
1, 624759, Note_on_c, 0, 74, 77
1, 624771, Control_c, 0, 64, 86
1, 624786, Control_c, 0, 64, 86
1, 624853, Note_off_c, 0, 74, 60
1, 624860, Control_c, 0, 64, 82
1, 624866, Note_on_c, 0, 77, 73
1, 624875, Control_c, 0, 64, 72
1, 624890, Control_c, 0, 64, 60
1, 624905, Control_c, 0, 64, 48
1, 624920, Control_c, 0, 64, 45
1, 624935, Control_c, 0, 64, 50
1, 624950, Control_c, 0, 64, 58
1, 624964, Control_c, 0, 64, 65
1, 624968, Note_off_c, 0, 77, 63
1, 624970, Note_on_c, 0, 76, 72
1, 624979, Control_c, 0, 64, 72
1, 624994, Control_c, 0, 64, 79
1, 625009, Control_c, 0, 64, 83
1, 625024, Control_c, 0, 64, 85
1, 625038, Control_c, 0, 64, 87
1, 625041, Note_off_c, 0, 76, 62
1, 625053, Control_c, 0, 64, 90
1, 625068, Control_c, 0, 64, 93
1, 625075, Note_on_c, 0, 77, 69
1, 625082, Control_c, 0, 64, 95
1, 625097, Control_c, 0, 64, 96
1, 625156, Control_c, 0, 64, 93
1, 625171, Control_c, 0, 64, 84
1, 625186, Control_c, 0, 64, 72
1, 625188, Note_off_c, 0, 77, 59
1, 625201, Control_c, 0, 64, 61
1, 625212, Note_on_c, 0, 83, 59
1, 625216, Control_c, 0, 64, 52
1, 625230, Control_c, 0, 64, 53
1, 625245, Control_c, 0, 64, 57
1, 625260, Control_c, 0, 64, 62
1, 625275, Control_c, 0, 64, 67
1, 625289, Control_c, 0, 64, 71
1, 625304, Control_c, 0, 64, 75
1, 625320, Note_off_c, 0, 83, 58
1, 625320, Control_c, 0, 64, 77
1, 625322, Note_on_c, 0, 82, 64
1, 625335, Control_c, 0, 64, 79
1, 625350, Control_c, 0, 64, 81
1, 625365, Control_c, 0, 64, 82
1, 625380, Control_c, 0, 64, 83
1, 625394, Control_c, 0, 64, 84
1, 625417, Note_off_c, 0, 82, 61
1, 625438, Note_on_c, 0, 83, 66
1, 625535, Control_c, 0, 64, 82
1, 625550, Control_c, 0, 64, 79
1, 625557, Note_off_c, 0, 83, 53
1, 625565, Control_c, 0, 64, 72
1, 625580, Control_c, 0, 64, 62
1, 625587, Note_on_c, 0, 86, 59
1, 625594, Control_c, 0, 64, 50
1, 625609, Control_c, 0, 64, 38
1, 625624, Control_c, 0, 64, 35
1, 625639, Control_c, 0, 64, 39
1, 625654, Control_c, 0, 64, 48
1, 625668, Control_c, 0, 64, 56
1, 625683, Control_c, 0, 64, 62
1, 625698, Control_c, 0, 64, 66
1, 625699, Note_off_c, 0, 86, 62
1, 625710, Note_on_c, 0, 85, 63
1, 625713, Control_c, 0, 64, 69
1, 625728, Control_c, 0, 64, 73
1, 625742, Control_c, 0, 64, 76
1, 625757, Control_c, 0, 64, 79
1, 625772, Control_c, 0, 64, 81
1, 625787, Control_c, 0, 64, 83
1, 625802, Control_c, 0, 64, 84
1, 625806, Note_off_c, 0, 85, 58
1, 625817, Control_c, 0, 64, 84
1, 625825, Note_on_c, 0, 86, 54
1, 625832, Control_c, 0, 64, 85
1, 625979, Control_c, 0, 64, 84
1, 626024, Control_c, 0, 64, 84
1, 626029, Note_off_c, 0, 86, 48
1, 626030, Note_on_c, 0, 89, 49
1, 626053, Control_c, 0, 64, 83
1, 626068, Control_c, 0, 64, 83
1, 626070, Note_on_c, 0, 55, 36
1, 626083, Control_c, 0, 64, 82
1, 626098, Control_c, 0, 64, 81
1, 626114, Control_c, 0, 64, 81
1, 626129, Control_c, 0, 64, 80
1, 626143, Control_c, 0, 64, 79
1, 626156, Note_off_c, 0, 56, 40
1, 626158, Control_c, 0, 64, 77
1, 626173, Control_c, 0, 64, 75
1, 626191, Note_off_c, 0, 89, 56
1, 626196, Control_c, 0, 64, 71
1, 626207, Note_on_c, 0, 91, 50
1, 626210, Control_c, 0, 64, 65
1, 626225, Control_c, 0, 64, 58
1, 626240, Control_c, 0, 64, 47
1, 626255, Control_c, 0, 64, 39
1, 626270, Control_c, 0, 64, 38
1, 626285, Control_c, 0, 64, 41
1, 626300, Control_c, 0, 64, 46
1, 626315, Control_c, 0, 64, 51
1, 626321, Note_on_c, 0, 89, 57
1, 626330, Note_off_c, 0, 91, 61
1, 626330, Control_c, 0, 64, 55
1, 626344, Control_c, 0, 64, 59
1, 626359, Control_c, 0, 64, 63
1, 626374, Control_c, 0, 64, 67
1, 626389, Control_c, 0, 64, 71
1, 626404, Control_c, 0, 64, 74
1, 626418, Control_c, 0, 64, 76
1, 626422, Note_on_c, 0, 88, 64
1, 626424, Note_off_c, 0, 89, 57
1, 626433, Control_c, 0, 64, 78
1, 626448, Control_c, 0, 64, 80
1, 626463, Control_c, 0, 64, 83
1, 626478, Control_c, 0, 64, 85
1, 626492, Control_c, 0, 64, 86
1, 626507, Control_c, 0, 64, 87
1, 626520, Note_on_c, 0, 86, 67
1, 626521, Note_off_c, 0, 88, 60
1, 626536, Control_c, 0, 64, 87
1, 626575, Note_off_c, 0, 86, 63
1, 626601, Note_on_c, 0, 84, 66
1, 626654, Note_off_c, 0, 84, 56
1, 626690, Note_on_c, 0, 83, 70
1, 626769, Note_off_c, 0, 83, 61
1, 626771, Note_on_c, 0, 81, 73
1, 626828, Note_off_c, 0, 81, 63
1, 626862, Control_c, 0, 64, 87
1, 626866, Note_on_c, 0, 79, 64
1, 626928, Note_off_c, 0, 79, 60
1, 626953, Note_on_c, 0, 78, 69
1, 626989, Control_c, 0, 64, 86
1, 626999, Note_off_c, 0, 62, 42
1, 627003, Control_c, 0, 64, 86
1, 627033, Note_on_c, 0, 77, 73
1, 627033, Control_c, 0, 64, 85
1, 627038, Note_off_c, 0, 59, 42
1, 627045, Note_off_c, 0, 55, 35
1, 627048, Control_c, 0, 64, 85
1, 627049, Note_off_c, 0, 78, 54
1, 627078, Control_c, 0, 64, 84
1, 627099, Note_off_c, 0, 77, 61
1, 627108, Control_c, 0, 64, 83
1, 627120, Note_on_c, 0, 76, 69
1, 627122, Control_c, 0, 64, 83
1, 627137, Control_c, 0, 64, 82
1, 627152, Control_c, 0, 64, 82
1, 627166, Control_c, 0, 64, 81
1, 627181, Control_c, 0, 64, 80
1, 627196, Control_c, 0, 64, 79
1, 627207, Note_off_c, 0, 76, 62
1, 627211, Control_c, 0, 64, 78
1, 627223, Note_on_c, 0, 74, 64
1, 627226, Control_c, 0, 64, 76
1, 627240, Control_c, 0, 64, 75
1, 627255, Control_c, 0, 64, 74
1, 627270, Control_c, 0, 64, 72
1, 627284, Control_c, 0, 64, 71
1, 627287, Note_off_c, 0, 74, 62
1, 627299, Control_c, 0, 64, 69
1, 627309, Note_on_c, 0, 76, 69
1, 627314, Control_c, 0, 64, 67
1, 627329, Control_c, 0, 64, 65
1, 627344, Control_c, 0, 64, 64
1, 627358, Control_c, 0, 64, 64
1, 627367, Note_off_c, 0, 76, 63
1, 627373, Control_c, 0, 64, 63
1, 627391, Note_on_c, 0, 77, 67
1, 627418, Control_c, 0, 64, 63
1, 627433, Control_c, 0, 64, 62
1, 627460, Note_off_c, 0, 77, 63
1, 627462, Control_c, 0, 64, 62
1, 627470, Note_on_c, 0, 76, 69
1, 627477, Control_c, 0, 64, 61
1, 627522, Control_c, 0, 64, 61
1, 627560, Note_on_c, 0, 74, 70
1, 627564, Note_off_c, 0, 76, 59
1, 627596, Control_c, 0, 64, 60
1, 627620, Note_off_c, 0, 74, 61
1, 627650, Note_on_c, 0, 72, 61
1, 627655, Control_c, 0, 64, 60
1, 627716, Note_off_c, 0, 72, 51
1, 627746, Note_on_c, 0, 71, 63
1, 627796, Control_c, 0, 64, 59
1, 627821, Note_off_c, 0, 71, 59
1, 627827, Note_on_c, 0, 69, 65
1, 627871, Control_c, 0, 64, 59
1, 627878, Note_off_c, 0, 69, 58
1, 627915, Control_c, 0, 64, 58
1, 627918, Note_on_c, 0, 67, 56
1, 627945, Control_c, 0, 64, 58
1, 627959, Note_off_c, 0, 67, 59
1, 627975, Control_c, 0, 64, 57
1, 628014, Note_on_c, 0, 65, 52
1, 628019, Control_c, 0, 64, 57
1, 628049, Control_c, 0, 64, 56
1, 628063, Control_c, 0, 64, 56
1, 628077, Note_off_c, 0, 65, 54
1, 628078, Control_c, 0, 64, 55
1, 628093, Control_c, 0, 64, 54
1, 628095, Note_on_c, 0, 64, 63
1, 628107, Control_c, 0, 64, 53
1, 628122, Control_c, 0, 64, 52
1, 628137, Control_c, 0, 64, 49
1, 628152, Control_c, 0, 64, 44
1, 628157, Note_off_c, 0, 64, 61
1, 628167, Control_c, 0, 64, 36
1, 628181, Control_c, 0, 64, 0
1, 628200, Note_on_c, 0, 62, 59
1, 628404, Control_c, 0, 64, 27
1, 628419, Note_on_c, 0, 61, 52
1, 628419, Control_c, 0, 64, 33
1, 628440, Control_c, 0, 64, 37
1, 628455, Control_c, 0, 64, 43
1, 628470, Control_c, 0, 64, 49
1, 628476, Note_on_c, 0, 55, 40
1, 628478, Note_off_c, 0, 62, 34
1, 628485, Control_c, 0, 64, 52
1, 628488, Note_on_c, 0, 43, 41
1, 628500, Control_c, 0, 64, 54
1, 628516, Control_c, 0, 64, 55
1, 628530, Control_c, 0, 64, 58
1, 628545, Control_c, 0, 64, 60
1, 628560, Control_c, 0, 64, 62
1, 628575, Control_c, 0, 64, 63
1, 628590, Control_c, 0, 64, 64
1, 628604, Control_c, 0, 64, 65
1, 628619, Control_c, 0, 64, 66
1, 628634, Control_c, 0, 64, 68
1, 628649, Control_c, 0, 64, 70
1, 628664, Control_c, 0, 64, 72
1, 628679, Control_c, 0, 64, 74
1, 628681, Note_on_c, 0, 70, 46
1, 628694, Control_c, 0, 64, 77
1, 628708, Control_c, 0, 64, 79
1, 628723, Note_off_c, 0, 61, 38
1, 628723, Control_c, 0, 64, 81
1, 628738, Control_c, 0, 64, 84
1, 628753, Control_c, 0, 64, 86
1, 628768, Control_c, 0, 64, 88
1, 628783, Control_c, 0, 64, 90
1, 628798, Control_c, 0, 64, 92
1, 628812, Control_c, 0, 64, 94
1, 628816, Note_on_c, 0, 64, 48
1, 628819, Note_off_c, 0, 70, 38
1, 628827, Control_c, 0, 64, 96
1, 628857, Control_c, 0, 64, 99
1, 628886, Control_c, 0, 64, 101
1, 628897, Note_off_c, 0, 64, 62
1, 628916, Note_on_c, 0, 61, 54
1, 628916, Control_c, 0, 64, 104
1, 628945, Control_c, 0, 64, 106
1, 628969, Note_off_c, 0, 61, 57
1, 628975, Control_c, 0, 64, 108
1, 629004, Control_c, 0, 64, 110
1, 629034, Control_c, 0, 64, 114
1, 629049, Control_c, 0, 64, 116
1, 629078, Control_c, 0, 64, 120
1, 629093, Control_c, 0, 64, 123
1, 629108, Control_c, 0, 64, 127
1, 629109, Note_on_c, 0, 61, 46
1, 629254, Note_off_c, 0, 61, 51
1, 629259, Note_on_c, 0, 70, 51
1, 629343, Note_off_c, 0, 70, 54
1, 629370, Note_on_c, 0, 64, 46
1, 629424, Note_off_c, 0, 64, 60
1, 629445, Note_on_c, 0, 61, 52
1, 629487, Note_off_c, 0, 61, 61
1, 629551, Note_on_c, 0, 64, 53
1, 629601, Note_off_c, 0, 64, 56
1, 629644, Note_on_c, 0, 67, 54
1, 629696, Note_off_c, 0, 67, 54
1, 629728, Note_on_c, 0, 70, 62
1, 629801, Note_off_c, 0, 70, 64
1, 629818, Note_on_c, 0, 73, 58
1, 629847, Note_off_c, 0, 73, 66
1, 629895, Note_on_c, 0, 76, 62
1, 629938, Note_off_c, 0, 76, 59
1, 629983, Note_on_c, 0, 79, 52
1, 630028, Note_off_c, 0, 79, 60
1, 630076, Note_on_c, 0, 82, 59
1, 630136, Note_off_c, 0, 82, 61
1, 630166, Note_on_c, 0, 85, 56
1, 630242, Note_off_c, 0, 85, 61
1, 630252, Note_on_c, 0, 82, 60
1, 630315, Note_off_c, 0, 82, 60
1, 630333, Note_on_c, 0, 79, 58
1, 630362, Note_off_c, 0, 79, 67
1, 630415, Note_on_c, 0, 76, 54
1, 630444, Note_off_c, 0, 76, 62
1, 630508, Note_on_c, 0, 73, 61
1, 630579, Note_on_c, 0, 70, 66
1, 630583, Note_off_c, 0, 73, 61
1, 630653, Note_off_c, 0, 70, 63
1, 630670, Note_on_c, 0, 67, 62
1, 630706, Note_off_c, 0, 43, 57
1, 630707, Note_off_c, 0, 67, 64
1, 630719, Note_off_c, 0, 55, 53
1, 630756, Note_on_c, 0, 64, 55
1, 630799, Note_off_c, 0, 64, 60
1, 630844, Note_on_c, 0, 61, 62
1, 631020, Note_off_c, 0, 61, 56
1, 631058, Note_on_c, 0, 54, 59
1, 631066, Note_on_c, 0, 60, 54
1, 631099, Note_on_c, 0, 43, 43
1, 631133, Control_c, 0, 64, 109
1, 631148, Control_c, 0, 64, 100
1, 631163, Control_c, 0, 64, 94
1, 631178, Control_c, 0, 64, 87
1, 631193, Control_c, 0, 64, 81
1, 631207, Control_c, 0, 64, 72
1, 631222, Control_c, 0, 64, 63
1, 631237, Control_c, 0, 64, 53
1, 631252, Control_c, 0, 64, 43
1, 631267, Control_c, 0, 64, 39
1, 631272, Note_on_c, 0, 69, 46
1, 631281, Control_c, 0, 64, 41
1, 631296, Control_c, 0, 64, 48
1, 631308, Note_off_c, 0, 60, 38
1, 631311, Control_c, 0, 64, 56
1, 631326, Control_c, 0, 64, 61
1, 631341, Control_c, 0, 64, 66
1, 631355, Control_c, 0, 64, 73
1, 631358, Note_off_c, 0, 69, 61
1, 631369, Note_on_c, 0, 63, 57
1, 631370, Control_c, 0, 64, 79
1, 631385, Control_c, 0, 64, 86
1, 631400, Control_c, 0, 64, 95
1, 631415, Control_c, 0, 64, 111
1, 631437, Control_c, 0, 64, 127
1, 631451, Note_off_c, 0, 63, 60
1, 631478, Note_on_c, 0, 60, 53
1, 631516, Note_off_c, 0, 60, 57
1, 631567, Poly_aftertouch_c, 0, 60, 127
1, 631591, Poly_aftertouch_c, 0, 60, 0
1, 631650, Note_on_c, 0, 69, 58
1, 631710, Note_off_c, 0, 69, 57
1, 631733, Note_on_c, 0, 63, 56
1, 631769, Note_off_c, 0, 63, 64
1, 631806, Note_on_c, 0, 60, 55
1, 631880, Note_off_c, 0, 60, 51
1, 631886, Note_on_c, 0, 63, 63
1, 631970, Note_off_c, 0, 63, 61
1, 631973, Note_on_c, 0, 66, 64
1, 632035, Note_off_c, 0, 66, 64
1, 632053, Note_on_c, 0, 69, 65
1, 632078, Note_off_c, 0, 69, 67
1, 632089, Control_c, 0, 67, 124
1, 632104, Control_c, 0, 67, 120
1, 632119, Control_c, 0, 67, 104
1, 632134, Control_c, 0, 67, 77
1, 632148, Control_c, 0, 67, 53
1, 632151, Note_on_c, 0, 72, 61
1, 632163, Control_c, 0, 67, 0
1, 632241, Note_on_c, 0, 75, 69
1, 632272, Note_off_c, 0, 72, 39
1, 632324, Note_on_c, 0, 78, 71
1, 632329, Note_off_c, 0, 75, 61
1, 632415, Note_on_c, 0, 81, 63
1, 632449, Note_off_c, 0, 78, 55
1, 632503, Note_on_c, 0, 84, 70
1, 632505, Note_off_c, 0, 81, 64
1, 632581, Note_off_c, 0, 84, 60
1, 632584, Note_on_c, 0, 81, 67
1, 632677, Note_off_c, 0, 81, 63
1, 632678, Note_on_c, 0, 78, 66
1, 632704, Control_c, 0, 67, 53
1, 632719, Control_c, 0, 67, 78
1, 632734, Control_c, 0, 67, 93
1, 632744, Note_on_c, 0, 75, 69
1, 632745, Note_off_c, 0, 78, 61
1, 632749, Control_c, 0, 67, 104
1, 632764, Control_c, 0, 67, 112
1, 632778, Control_c, 0, 67, 120
1, 632793, Control_c, 0, 67, 124
1, 632795, Note_off_c, 0, 75, 62
1, 632827, Note_on_c, 0, 72, 61
1, 632854, Note_off_c, 0, 72, 64
1, 632913, Note_on_c, 0, 69, 71
1, 633001, Note_on_c, 0, 66, 75
1, 633003, Note_off_c, 0, 69, 60
1, 633084, Note_on_c, 0, 63, 75
1, 633097, Note_off_c, 0, 66, 63
1, 633142, Control_c, 0, 67, 122
1, 633150, Note_off_c, 0, 43, 53
1, 633163, Note_off_c, 0, 63, 63
1, 633169, Note_on_c, 0, 60, 71
1, 633171, Control_c, 0, 67, 120
1, 633201, Note_off_c, 0, 54, 45
1, 633201, Control_c, 0, 67, 118
1, 633260, Control_c, 0, 67, 116
1, 633327, Note_off_c, 0, 60, 63
1, 633379, Note_on_c, 0, 59, 56
1, 633380, Control_c, 0, 67, 114
1, 633400, Note_on_c, 0, 53, 69
1, 633442, Note_on_c, 0, 43, 47
1, 633499, Control_c, 0, 64, 111
1, 633514, Control_c, 0, 64, 99
1, 633528, Control_c, 0, 64, 85
1, 633543, Control_c, 0, 64, 71
1, 633553, Note_off_c, 0, 59, 52
1, 633558, Control_c, 0, 64, 56
1, 633573, Control_c, 0, 64, 35
1, 633577, Note_on_c, 0, 68, 59
1, 633588, Control_c, 0, 64, 0
1, 633617, Control_c, 0, 67, 116
1, 633632, Control_c, 0, 64, 35
1, 633646, Control_c, 0, 64, 53
1, 633661, Control_c, 0, 64, 64
1, 633664, Note_off_c, 0, 68, 60
1, 633669, Note_on_c, 0, 62, 61
1, 633684, Control_c, 0, 64, 71
1, 633684, Control_c, 0, 67, 119
1, 633698, Control_c, 0, 64, 77
1, 633713, Control_c, 0, 64, 82
1, 633728, Control_c, 0, 64, 88
1, 633741, Note_off_c, 0, 62, 60
1, 633743, Control_c, 0, 64, 97
1, 633758, Control_c, 0, 64, 107
1, 633764, Note_on_c, 0, 59, 69
1, 633773, Control_c, 0, 64, 127
1, 633797, Note_off_c, 0, 59, 62
1, 633847, Note_on_c, 0, 59, 69
1, 633847, Control_c, 0, 67, 117
1, 633883, Note_off_c, 0, 59, 60
1, 633925, Note_on_c, 0, 68, 68
1, 633996, Note_off_c, 0, 68, 60
1, 634000, Note_on_c, 0, 62, 67
1, 634054, Note_off_c, 0, 62, 63
1, 634075, Note_on_c, 0, 59, 69
1, 634142, Note_off_c, 0, 59, 61
1, 634157, Note_on_c, 0, 62, 72
1, 634188, Control_c, 0, 67, 114
1, 634235, Note_on_c, 0, 65, 72
1, 634236, Note_off_c, 0, 62, 62
1, 634310, Note_off_c, 0, 65, 62
1, 634315, Note_on_c, 0, 68, 75
1, 634359, Note_off_c, 0, 68, 61
1, 634396, Note_on_c, 0, 71, 73
1, 634479, Note_on_c, 0, 74, 81
1, 634483, Note_off_c, 0, 71, 60
1, 634563, Note_on_c, 0, 77, 74
1, 634574, Note_off_c, 0, 74, 60
1, 634648, Note_on_c, 0, 80, 76
1, 634696, Note_off_c, 0, 77, 61
1, 634732, Note_on_c, 0, 83, 74
1, 634737, Note_off_c, 0, 80, 64
1, 634816, Note_on_c, 0, 80, 80
1, 634825, Note_off_c, 0, 83, 61
1, 634891, Note_on_c, 0, 77, 75
1, 634921, Note_off_c, 0, 80, 62
1, 634966, Note_off_c, 0, 77, 63
1, 634967, Note_on_c, 0, 74, 76
1, 634999, Note_off_c, 0, 74, 58
1, 635043, Note_on_c, 0, 71, 66
1, 635091, Note_off_c, 0, 71, 44
1, 635129, Note_on_c, 0, 68, 69
1, 635224, Note_on_c, 0, 65, 70
1, 635251, Note_off_c, 0, 68, 62
1, 635254, Control_c, 0, 67, 116
1, 635290, Note_on_c, 0, 62, 76
1, 635298, Note_off_c, 0, 65, 62
1, 635341, Note_off_c, 0, 43, 60
1, 635352, Note_off_c, 0, 53, 56
1, 635365, Note_on_c, 0, 59, 77
1, 635371, Note_off_c, 0, 62, 60
1, 635420, Note_off_c, 0, 59, 61
1, 635476, Control_c, 0, 67, 114
1, 635545, Note_on_c, 0, 59, 67
1, 635565, Note_on_c, 0, 53, 72
1, 635565, Control_c, 0, 67, 112
1, 635587, Note_on_c, 0, 43, 59
1, 635609, Control_c, 0, 67, 110
1, 635639, Control_c, 0, 64, 95
1, 635654, Control_c, 0, 64, 76
1, 635654, Control_c, 0, 67, 107
1, 635669, Control_c, 0, 64, 58
1, 635684, Control_c, 0, 64, 35
1, 635684, Control_c, 0, 67, 102
1, 635699, Control_c, 0, 64, 0
1, 635699, Control_c, 0, 67, 99
1, 635714, Control_c, 0, 64, 31
1, 635714, Control_c, 0, 67, 94
1, 635723, Note_on_c, 0, 67, 66
1, 635728, Control_c, 0, 64, 44
1, 635728, Control_c, 0, 67, 81
1, 635730, Note_off_c, 0, 59, 61
1, 635743, Control_c, 0, 64, 58
1, 635743, Control_c, 0, 67, 52
1, 635758, Control_c, 0, 64, 68
1, 635758, Control_c, 0, 67, 0
1, 635773, Control_c, 0, 64, 81
1, 635788, Control_c, 0, 64, 96
1, 635795, Note_off_c, 0, 67, 61
1, 635797, Note_on_c, 0, 62, 64
1, 635803, Control_c, 0, 64, 110
1, 635818, Control_c, 0, 64, 127
1, 635866, Note_off_c, 0, 62, 62
1, 635882, Note_on_c, 0, 59, 64
1, 635908, Note_off_c, 0, 59, 66
1, 635977, Note_on_c, 0, 59, 72
1, 636014, Note_off_c, 0, 59, 62
1, 636047, Note_on_c, 0, 67, 69
1, 636115, Note_off_c, 0, 67, 59
1, 636116, Note_on_c, 0, 62, 72
1, 636169, Note_off_c, 0, 62, 64
1, 636191, Note_on_c, 0, 59, 74
1, 636269, Note_on_c, 0, 62, 76
1, 636271, Note_off_c, 0, 59, 62
1, 636344, Note_on_c, 0, 65, 76
1, 636362, Note_off_c, 0, 62, 63
1, 636425, Note_on_c, 0, 67, 76
1, 636427, Note_off_c, 0, 65, 63
1, 636452, Note_off_c, 0, 67, 66
1, 636504, Note_on_c, 0, 71, 78
1, 636582, Note_on_c, 0, 74, 78
1, 636599, Note_off_c, 0, 71, 56
1, 636670, Note_on_c, 0, 77, 72
1, 636685, Note_off_c, 0, 74, 61
1, 636755, Note_on_c, 0, 79, 73
1, 636797, Control_c, 0, 64, 98
1, 636812, Control_c, 0, 64, 78
1, 636817, Note_off_c, 0, 77, 62
1, 636826, Control_c, 0, 64, 70
1, 636839, Note_on_c, 0, 83, 80
1, 636844, Note_off_c, 0, 79, 65
1, 636856, Control_c, 0, 64, 75
1, 636870, Control_c, 0, 64, 84
1, 636885, Control_c, 0, 64, 98
1, 636900, Control_c, 0, 64, 127
1, 636925, Note_on_c, 0, 79, 82
1, 636948, Note_off_c, 0, 83, 63
1, 636994, Note_on_c, 0, 77, 77
1, 637028, Note_off_c, 0, 79, 63
1, 637067, Note_on_c, 0, 74, 80
1, 637071, Note_off_c, 0, 77, 64
1, 637113, Note_off_c, 0, 74, 64
1, 637143, Note_on_c, 0, 71, 71
1, 637192, Note_off_c, 0, 71, 62
1, 637241, Note_on_c, 0, 67, 82
1, 637280, Note_off_c, 0, 53, 60
1, 637326, Note_on_c, 0, 65, 80
1, 637330, Note_off_c, 0, 43, 55
1, 637358, Note_off_c, 0, 67, 61
1, 637423, Note_on_c, 0, 62, 79
1, 637428, Note_off_c, 0, 65, 63
1, 637511, Note_off_c, 0, 62, 58
1, 637514, Note_on_c, 0, 59, 82
1, 637738, Control_c, 0, 64, 117
1, 637749, Note_on_c, 0, 60, 69
1, 637753, Control_c, 0, 64, 110
1, 637753, Note_off_c, 0, 59, 64
1, 637767, Control_c, 0, 64, 106
1, 637767, Note_on_c, 0, 43, 65
1, 637773, Note_on_c, 0, 51, 74
1, 637776, Note_on_c, 0, 36, 70
1, 637782, Control_c, 0, 64, 101
1, 637797, Control_c, 0, 64, 96
1, 637811, Control_c, 0, 64, 89
1, 637826, Control_c, 0, 64, 81
1, 637841, Control_c, 0, 64, 72
1, 637856, Control_c, 0, 64, 63
1, 637871, Control_c, 0, 64, 55
1, 637885, Control_c, 0, 64, 47
1, 637900, Control_c, 0, 64, 41
1, 637915, Control_c, 0, 64, 37
1, 638004, Control_c, 0, 64, 37
1, 638018, Control_c, 0, 64, 38
1, 638033, Control_c, 0, 64, 38
1, 638036, Note_off_c, 0, 60, 45
1, 638040, Note_on_c, 0, 72, 71
1, 638048, Control_c, 0, 64, 39
1, 638063, Control_c, 0, 64, 40
1, 638120, Note_off_c, 0, 72, 63
1, 638249, Note_on_c, 0, 67, 72
1, 638307, Note_off_c, 0, 67, 60
1, 638383, Control_c, 0, 64, 40
1, 638423, Note_on_c, 0, 65, 74
1, 638456, Control_c, 0, 64, 41
1, 638480, Note_off_c, 0, 65, 62
1, 638516, Control_c, 0, 64, 41
1, 638560, Control_c, 0, 64, 42
1, 638600, Note_on_c, 0, 63, 75
1, 638668, Note_off_c, 0, 63, 61
1, 638723, Control_c, 0, 64, 42
1, 638767, Note_on_c, 0, 62, 73
1, 638827, Control_c, 0, 64, 43
1, 638837, Note_off_c, 0, 62, 61
1, 638841, Control_c, 0, 64, 43
1, 638856, Control_c, 0, 64, 44
1, 638871, Control_c, 0, 64, 45
1, 638887, Control_c, 0, 64, 46
1, 638902, Control_c, 0, 64, 47
1, 638924, Control_c, 0, 64, 47
1, 638939, Control_c, 0, 64, 48
1, 638951, Note_on_c, 0, 60, 73
1, 638969, Control_c, 0, 64, 48
1, 638999, Control_c, 0, 64, 49
1, 639021, Note_off_c, 0, 60, 60
1, 639114, Note_on_c, 0, 63, 79
1, 639211, Note_off_c, 0, 63, 61
1, 639250, Control_c, 0, 64, 48
1, 639286, Note_on_c, 0, 67, 80
1, 639340, Note_off_c, 0, 67, 64
1, 639383, Control_c, 0, 64, 48
1, 639428, Control_c, 0, 64, 47
1, 639444, Note_on_c, 0, 72, 76
1, 639458, Control_c, 0, 64, 47
1, 639472, Control_c, 0, 64, 46
1, 639502, Control_c, 0, 64, 46
1, 639517, Note_off_c, 0, 72, 62
1, 639517, Control_c, 0, 64, 45
1, 639574, Note_off_c, 0, 36, 58
1, 639590, Control_c, 0, 64, 44
1, 639605, Control_c, 0, 64, 38
1, 639620, Note_on_c, 0, 75, 85
1, 639620, Control_c, 0, 64, 0
1, 639622, Note_off_c, 0, 43, 61
1, 639633, Note_off_c, 0, 51, 60
1, 639696, Note_off_c, 0, 75, 59
1, 639783, Note_on_c, 0, 77, 83
1, 639856, Note_off_c, 0, 77, 60
1, 639964, Note_on_c, 0, 80, 59
1, 639970, Control_c, 0, 64, 37
1, 639978, Note_on_c, 0, 48, 76
1, 639985, Control_c, 0, 64, 51
1, 640000, Control_c, 0, 64, 60
1, 640014, Control_c, 0, 64, 64
1, 640024, Note_off_c, 0, 80, 62
1, 640029, Control_c, 0, 64, 68
1, 640039, Note_on_c, 0, 79, 61
1, 640044, Control_c, 0, 64, 73
1, 640059, Control_c, 0, 64, 78
1, 640074, Control_c, 0, 64, 82
1, 640078, Note_off_c, 0, 79, 62
1, 640088, Control_c, 0, 64, 86
1, 640103, Control_c, 0, 64, 90
1, 640115, Note_on_c, 0, 80, 67
1, 640118, Control_c, 0, 64, 94
1, 640133, Control_c, 0, 64, 97
1, 640143, Note_on_c, 0, 60, 76
1, 640143, Note_off_c, 0, 80, 62
1, 640148, Control_c, 0, 64, 99
1, 640166, Note_on_c, 0, 79, 66
1, 640190, Note_off_c, 0, 79, 68
1, 640207, Control_c, 0, 64, 101
1, 640220, Note_on_c, 0, 80, 67
1, 640222, Note_off_c, 0, 60, 61
1, 640249, Note_off_c, 0, 80, 60
1, 640258, Note_off_c, 0, 48, 57
1, 640275, Note_on_c, 0, 79, 64
1, 640298, Note_off_c, 0, 79, 71
1, 640312, Note_on_c, 0, 80, 79
1, 640318, Note_on_c, 0, 55, 79
1, 640357, Note_off_c, 0, 80, 57
1, 640370, Control_c, 0, 64, 97
1, 640371, Note_off_c, 0, 55, 59
1, 640373, Note_on_c, 0, 79, 67
1, 640385, Control_c, 0, 64, 94
1, 640399, Note_off_c, 0, 79, 67
1, 640400, Control_c, 0, 64, 88
1, 640421, Control_c, 0, 64, 82
1, 640432, Note_on_c, 0, 80, 68
1, 640436, Control_c, 0, 64, 76
1, 640451, Control_c, 0, 64, 70
1, 640466, Note_off_c, 0, 80, 56
1, 640466, Control_c, 0, 64, 62
1, 640474, Note_on_c, 0, 53, 79
1, 640481, Control_c, 0, 64, 56
1, 640492, Note_on_c, 0, 79, 66
1, 640497, Control_c, 0, 64, 49
1, 640511, Control_c, 0, 64, 39
1, 640513, Note_off_c, 0, 79, 71
1, 640526, Control_c, 0, 64, 0
1, 640534, Note_on_c, 0, 80, 69
1, 640549, Note_off_c, 0, 53, 57
1, 640573, Note_off_c, 0, 80, 54
1, 640595, Note_on_c, 0, 79, 62
1, 640621, Note_off_c, 0, 79, 69
1, 640638, Note_on_c, 0, 80, 71
1, 640645, Note_on_c, 0, 51, 81
1, 640675, Note_off_c, 0, 80, 61
1, 640695, Note_on_c, 0, 79, 64
1, 640719, Note_off_c, 0, 79, 69
1, 640732, Note_off_c, 0, 51, 63
1, 640744, Note_on_c, 0, 80, 72
1, 640781, Note_off_c, 0, 80, 56
1, 640797, Note_on_c, 0, 79, 65
1, 640808, Note_on_c, 0, 50, 77
1, 640825, Note_off_c, 0, 79, 67
1, 640841, Note_on_c, 0, 80, 71
1, 640882, Note_off_c, 0, 50, 62
1, 640890, Note_off_c, 0, 80, 58
1, 640912, Note_on_c, 0, 79, 63
1, 640938, Note_off_c, 0, 79, 69
1, 640948, Note_on_c, 0, 80, 68
1, 640976, Note_on_c, 0, 48, 80
1, 640990, Note_off_c, 0, 80, 61
1, 641009, Note_on_c, 0, 79, 67
1, 641035, Note_off_c, 0, 79, 66
1, 641055, Note_on_c, 0, 80, 69
1, 641064, Note_off_c, 0, 48, 62
1, 641095, Note_off_c, 0, 80, 51
1, 641124, Note_on_c, 0, 79, 60
1, 641133, Note_on_c, 0, 51, 79
1, 641147, Note_off_c, 0, 79, 66
1, 641164, Note_on_c, 0, 80, 71
1, 641211, Note_off_c, 0, 80, 56
1, 641224, Note_on_c, 0, 79, 68
1, 641226, Note_off_c, 0, 51, 61
1, 641258, Note_off_c, 0, 79, 62
1, 641276, Note_on_c, 0, 80, 68
1, 641309, Note_on_c, 0, 55, 82
1, 641324, Note_off_c, 0, 80, 58
1, 641337, Note_on_c, 0, 79, 67
1, 641362, Note_off_c, 0, 55, 64
1, 641365, Note_off_c, 0, 79, 64
1, 641384, Note_on_c, 0, 80, 69
1, 641426, Note_off_c, 0, 80, 59
1, 641446, Note_on_c, 0, 79, 69
1, 641473, Note_off_c, 0, 79, 65
1, 641476, Note_on_c, 0, 60, 78
1, 641488, Note_on_c, 0, 80, 73
1, 641533, Note_off_c, 0, 60, 63
1, 641541, Note_off_c, 0, 80, 61
1, 641550, Note_on_c, 0, 79, 69
1, 641580, Note_off_c, 0, 79, 63
1, 641600, Note_on_c, 0, 80, 66
1, 641643, Note_off_c, 0, 80, 59
1, 641645, Note_on_c, 0, 63, 76
1, 641663, Note_on_c, 0, 79, 69
1, 641687, Note_off_c, 0, 79, 67
1, 641694, Note_off_c, 0, 63, 64
1, 641710, Note_on_c, 0, 80, 74
1, 641750, Note_off_c, 0, 80, 57
1, 641777, Note_on_c, 0, 79, 63
1, 641801, Note_off_c, 0, 79, 70
1, 641815, Note_on_c, 0, 80, 75
1, 641815, Note_on_c, 0, 65, 67
1, 641839, Note_off_c, 0, 65, 68
1, 641869, Note_off_c, 0, 80, 59
1, 641874, Note_on_c, 0, 79, 70
1, 641919, Note_off_c, 0, 79, 64
1, 641935, Note_on_c, 0, 80, 61
1, 641949, Control_c, 0, 64, 30
1, 641964, Control_c, 0, 64, 52
1, 641968, Note_off_c, 0, 80, 57
1, 641978, Control_c, 0, 64, 63
1, 641992, Control_c, 0, 64, 68
1, 641993, Note_on_c, 0, 79, 64
1, 642007, Control_c, 0, 64, 73
1, 642018, Note_on_c, 0, 67, 55
1, 642018, Note_off_c, 0, 79, 68
1, 642022, Control_c, 0, 64, 78
1, 642037, Control_c, 0, 64, 86
1, 642038, Note_on_c, 0, 80, 67
1, 642052, Control_c, 0, 64, 97
1, 642056, Note_off_c, 0, 80, 63
1, 642066, Control_c, 0, 64, 111
1, 642081, Control_c, 0, 64, 127
1, 642095, Note_on_c, 0, 79, 60
1, 642104, Note_off_c, 0, 67, 61
1, 642120, Note_off_c, 0, 79, 67
1, 642128, Note_on_c, 0, 68, 59
1, 642131, Note_on_c, 0, 80, 70
1, 642170, Note_off_c, 0, 80, 51
1, 642186, Note_off_c, 0, 68, 62
1, 642193, Note_on_c, 0, 79, 67
1, 642198, Note_on_c, 0, 67, 64
1, 642215, Note_off_c, 0, 79, 70
1, 642215, Control_c, 0, 67, 34
1, 642230, Control_c, 0, 67, 48
1, 642233, Note_on_c, 0, 80, 68
1, 642245, Control_c, 0, 67, 60
1, 642249, Note_off_c, 0, 67, 57
1, 642260, Note_on_c, 0, 68, 58
1, 642260, Control_c, 0, 67, 64
1, 642269, Note_off_c, 0, 80, 51
1, 642275, Control_c, 0, 67, 64
1, 642289, Note_on_c, 0, 79, 73
1, 642293, Note_off_c, 0, 68, 62
1, 642295, Note_on_c, 0, 67, 56
1, 642310, Note_off_c, 0, 79, 69
1, 642334, Note_on_c, 0, 80, 69
1, 642343, Note_off_c, 0, 67, 63
1, 642364, Control_c, 0, 67, 64
1, 642366, Note_on_c, 0, 68, 64
1, 642370, Note_off_c, 0, 80, 52
1, 642391, Note_on_c, 0, 79, 70
1, 642394, Note_off_c, 0, 68, 64
1, 642394, Control_c, 0, 67, 63
1, 642408, Control_c, 0, 67, 62
1, 642409, Note_off_c, 0, 79, 73
1, 642410, Note_on_c, 0, 67, 65
1, 642435, Note_on_c, 0, 80, 66
1, 642437, Note_off_c, 0, 67, 61
1, 642438, Control_c, 0, 67, 61
1, 642453, Control_c, 0, 67, 61
1, 642456, Note_on_c, 0, 68, 76
1, 642466, Note_off_c, 0, 80, 48
1, 642468, Control_c, 0, 67, 60
1, 642482, Control_c, 0, 67, 60
1, 642488, Note_on_c, 0, 79, 66
1, 642497, Control_c, 0, 67, 59
1, 642505, Note_off_c, 0, 68, 61
1, 642512, Note_off_c, 0, 79, 67
1, 642516, Note_on_c, 0, 67, 66
1, 642521, Note_on_c, 0, 80, 71
1, 642554, Note_off_c, 0, 67, 60
1, 642567, Note_off_c, 0, 80, 60
1, 642569, Note_on_c, 0, 68, 64
1, 642570, Note_on_c, 0, 79, 75
1, 642571, Control_c, 0, 67, 58
1, 642586, Control_c, 0, 67, 58
1, 642594, Note_off_c, 0, 79, 68
1, 642600, Control_c, 0, 67, 57
1, 642610, Note_on_c, 0, 80, 61
1, 642614, Note_off_c, 0, 68, 63
1, 642630, Control_c, 0, 67, 57
1, 642632, Note_on_c, 0, 67, 65
1, 642668, Note_off_c, 0, 80, 62
1, 642677, Note_off_c, 0, 67, 51
1, 642680, Note_on_c, 0, 79, 68
1, 642705, Note_off_c, 0, 79, 67
1, 642709, Note_on_c, 0, 68, 57
1, 642710, Note_on_c, 0, 80, 70
1, 642712, Control_c, 0, 67, 57
1, 642728, Control_c, 0, 67, 58
1, 642771, Note_on_c, 0, 79, 64
1, 642785, Note_off_c, 0, 80, 0
1, 642796, Note_off_c, 0, 68, 62
1, 642797, Note_off_c, 0, 79, 67
1, 642858, Poly_aftertouch_c, 0, 80, 0
1, 642861, Control_c, 0, 67, 57
1, 642862, Note_on_c, 0, 65, 64
1, 642867, Note_on_c, 0, 77, 49
1, 642871, Poly_aftertouch_c, 0, 67, 127
1, 642890, Note_off_c, 0, 77, 59
1, 642893, Note_on_c, 0, 79, 57
1, 642902, Poly_aftertouch_c, 0, 67, 0
1, 642924, Note_off_c, 0, 65, 59
1, 642944, Note_on_c, 0, 67, 57
1, 642945, Note_off_c, 0, 79, 65
1, 642981, Control_c, 0, 67, 57
1, 642989, Note_off_c, 0, 67, 51
1, 642995, Control_c, 0, 67, 56
1, 643010, Control_c, 0, 67, 56
1, 643025, Control_c, 0, 67, 55
1, 643054, Control_c, 0, 67, 54
1, 643069, Control_c, 0, 67, 53
1, 643092, Note_on_c, 0, 67, 39
1, 643094, Note_on_c, 0, 82, 64
1, 643099, Control_c, 0, 67, 52
1, 643143, Control_c, 0, 64, 112
1, 643143, Control_c, 0, 67, 51
1, 643158, Control_c, 0, 64, 98
1, 643158, Control_c, 0, 67, 50
1, 643173, Control_c, 0, 64, 87
1, 643173, Control_c, 0, 67, 50
1, 643187, Control_c, 0, 64, 74
1, 643187, Control_c, 0, 67, 49
1, 643202, Control_c, 0, 64, 62
1, 643202, Control_c, 0, 67, 48
1, 643217, Control_c, 0, 64, 47
1, 643217, Control_c, 0, 67, 47
1, 643231, Control_c, 0, 64, 41
1, 643231, Control_c, 0, 67, 46
1, 643246, Control_c, 0, 64, 42
1, 643246, Control_c, 0, 67, 45
1, 643261, Control_c, 0, 64, 46
1, 643261, Control_c, 0, 67, 43
1, 643276, Control_c, 0, 64, 54
1, 643276, Control_c, 0, 67, 40
1, 643291, Control_c, 0, 64, 61
1, 643291, Control_c, 0, 67, 35
1, 643306, Control_c, 0, 64, 68
1, 643306, Control_c, 0, 67, 0
1, 643321, Control_c, 0, 64, 76
1, 643330, Note_on_c, 0, 80, 72
1, 643332, Note_on_c, 0, 68, 67
1, 643334, Note_off_c, 0, 67, 52
1, 643336, Control_c, 0, 64, 80
1, 643351, Control_c, 0, 64, 83
1, 643363, Note_off_c, 0, 82, 59
1, 643366, Control_c, 0, 64, 88
1, 643380, Control_c, 0, 64, 94
1, 643382, Note_off_c, 0, 68, 65
1, 643395, Control_c, 0, 64, 101
1, 643413, Note_off_c, 0, 80, 59
1, 643417, Control_c, 0, 64, 108
1, 643431, Control_c, 0, 64, 118
1, 643446, Control_c, 0, 64, 127
1, 643518, Note_on_c, 0, 80, 81
1, 643527, Note_on_c, 0, 69, 72
1, 643535, Control_c, 0, 64, 93
1, 643550, Control_c, 0, 64, 70
1, 643565, Control_c, 0, 64, 59
1, 643580, Control_c, 0, 64, 60
1, 643595, Control_c, 0, 64, 63
1, 643605, Note_off_c, 0, 80, 61
1, 643610, Control_c, 0, 64, 70
1, 643625, Control_c, 0, 64, 94
1, 643633, Note_off_c, 0, 69, 59
1, 643639, Control_c, 0, 64, 127
1, 643669, Control_c, 0, 64, 89
1, 643685, Control_c, 0, 64, 74
1, 643697, Note_on_c, 0, 80, 87
1, 643698, Note_on_c, 0, 70, 87
1, 643699, Control_c, 0, 64, 68
1, 643714, Control_c, 0, 64, 71
1, 643729, Control_c, 0, 64, 83
1, 643744, Control_c, 0, 64, 127
1, 643789, Note_off_c, 0, 80, 60
1, 643802, Note_off_c, 0, 70, 65
1, 643862, Control_c, 0, 64, 80
1, 643877, Control_c, 0, 64, 55
1, 643885, Note_on_c, 0, 80, 82
1, 643892, Note_on_c, 0, 71, 85
1, 643892, Control_c, 0, 64, 40
1, 643907, Control_c, 0, 64, 52
1, 643922, Control_c, 0, 64, 68
1, 643936, Control_c, 0, 64, 127
1, 643995, Note_off_c, 0, 80, 63
1, 644003, Note_off_c, 0, 71, 62
1, 644025, Control_c, 0, 64, 95
1, 644040, Control_c, 0, 64, 68
1, 644054, Control_c, 0, 64, 59
1, 644069, Control_c, 0, 64, 61
1, 644084, Control_c, 0, 64, 65
1, 644093, Note_on_c, 0, 80, 84
1, 644098, Note_on_c, 0, 72, 89
1, 644099, Control_c, 0, 64, 74
1, 644114, Control_c, 0, 64, 97
1, 644129, Control_c, 0, 64, 127
1, 644197, Note_off_c, 0, 80, 61
1, 644215, Note_off_c, 0, 72, 61
1, 644343, Control_c, 0, 64, 110
1, 644358, Control_c, 0, 64, 97
1, 644373, Control_c, 0, 64, 87
1, 644388, Control_c, 0, 64, 78
1, 644403, Control_c, 0, 64, 69
1, 644404, Note_on_c, 0, 75, 74
1, 644408, Note_on_c, 0, 80, 61
1, 644418, Control_c, 0, 64, 62
1, 644433, Control_c, 0, 64, 53
1, 644448, Control_c, 0, 64, 32
1, 644462, Control_c, 0, 64, 0
1, 644522, Control_c, 0, 64, 33
1, 644537, Control_c, 0, 64, 51
1, 644552, Control_c, 0, 64, 63
1, 644567, Control_c, 0, 64, 68
1, 644568, Note_off_c, 0, 80, 59
1, 644582, Control_c, 0, 64, 73
1, 644597, Control_c, 0, 64, 76
1, 644606, Note_off_c, 0, 75, 61
1, 644611, Control_c, 0, 64, 79
1, 644626, Control_c, 0, 64, 84
1, 644641, Control_c, 0, 64, 91
1, 644656, Control_c, 0, 64, 96
1, 644671, Control_c, 0, 64, 105
1, 644685, Control_c, 0, 64, 127
1, 644740, Note_on_c, 0, 80, 57
1, 644743, Note_on_c, 0, 76, 57
1, 644743, Note_on_c, 0, 73, 66
1, 644745, Control_c, 0, 64, 88
1, 644759, Control_c, 0, 64, 67
1, 644774, Control_c, 0, 64, 55
1, 644789, Control_c, 0, 64, 54
1, 644803, Control_c, 0, 64, 57
1, 644818, Control_c, 0, 64, 63
1, 644833, Control_c, 0, 64, 72
1, 644848, Control_c, 0, 64, 92
1, 644852, Note_off_c, 0, 76, 57
1, 644861, Note_off_c, 0, 80, 52
1, 644863, Control_c, 0, 64, 127
1, 644872, Note_off_c, 0, 73, 59
1, 644945, Control_c, 0, 64, 115
1, 644959, Control_c, 0, 64, 80
1, 644974, Control_c, 0, 64, 65
1, 644988, Note_on_c, 0, 80, 57
1, 644989, Control_c, 0, 64, 58
1, 644994, Note_on_c, 0, 73, 61
1, 644996, Note_on_c, 0, 76, 49
1, 645004, Control_c, 0, 64, 62
1, 645018, Control_c, 0, 64, 69
1, 645033, Control_c, 0, 64, 86
1, 645048, Control_c, 0, 64, 127
1, 645050, Note_off_c, 0, 76, 54
1, 645055, Note_off_c, 0, 73, 60
1, 645066, Note_off_c, 0, 80, 52
1, 645107, Control_c, 0, 64, 100
1, 645122, Control_c, 0, 64, 76
1, 645137, Control_c, 0, 64, 65
1, 645152, Control_c, 0, 64, 67
1, 645166, Control_c, 0, 64, 82
1, 645181, Control_c, 0, 64, 117
1, 645184, Note_on_c, 0, 73, 59
1, 645186, Note_on_c, 0, 80, 60
1, 645195, Note_on_c, 0, 76, 49
1, 645196, Control_c, 0, 64, 127
1, 645243, Note_off_c, 0, 76, 58
1, 645245, Note_off_c, 0, 73, 57
1, 645254, Note_off_c, 0, 80, 52
1, 645255, Control_c, 0, 64, 100
1, 645270, Control_c, 0, 64, 74
1, 645286, Control_c, 0, 64, 65
1, 645300, Control_c, 0, 64, 69
1, 645315, Control_c, 0, 64, 85
1, 645330, Control_c, 0, 64, 95
1, 645345, Control_c, 0, 64, 89
1, 645360, Control_c, 0, 64, 70
1, 645375, Control_c, 0, 64, 59
1, 645381, Note_on_c, 0, 80, 51
1, 645381, Note_on_c, 0, 73, 44
1, 645390, Control_c, 0, 64, 53
1, 645397, Note_on_c, 0, 76, 36
1, 645404, Control_c, 0, 64, 59
1, 645419, Control_c, 0, 64, 69
1, 645423, Note_off_c, 0, 80, 59
1, 645434, Control_c, 0, 64, 84
1, 645435, Note_off_c, 0, 76, 49
1, 645443, Note_off_c, 0, 73, 56
1, 645449, Control_c, 0, 64, 94
1, 645479, Control_c, 0, 64, 96
1, 645494, Control_c, 0, 64, 103
1, 645508, Control_c, 0, 64, 112
1, 645523, Control_c, 0, 64, 118
1, 645568, Note_on_c, 0, 80, 51
1, 645569, Note_on_c, 0, 73, 54
1, 645571, Note_on_c, 0, 76, 43
1, 645601, Note_off_c, 0, 76, 62
1, 645615, Note_off_c, 0, 80, 56
1, 645631, Note_off_c, 0, 73, 59
1, 645723, Control_c, 0, 64, 115
1, 645738, Control_c, 0, 64, 113
1, 645753, Control_c, 0, 64, 111
1, 645767, Control_c, 0, 64, 109
1, 645782, Control_c, 0, 64, 107
1, 645797, Control_c, 0, 64, 104
1, 645812, Control_c, 0, 64, 99
1, 645827, Control_c, 0, 64, 92
1, 645833, Note_on_c, 0, 80, 48
1, 645841, Note_on_c, 0, 73, 42
1, 645841, Control_c, 0, 64, 83
1, 645856, Control_c, 0, 64, 74
1, 645871, Control_c, 0, 64, 64
1, 645886, Control_c, 0, 64, 56
1, 645901, Control_c, 0, 64, 54
1, 645915, Control_c, 0, 64, 56
1, 645930, Control_c, 0, 64, 60
1, 645945, Control_c, 0, 64, 64
1, 645959, Control_c, 0, 64, 68
1, 645974, Control_c, 0, 64, 74
1, 645986, Note_on_c, 0, 74, 54
1, 645986, Note_off_c, 0, 80, 54
1, 645989, Control_c, 0, 64, 81
1, 645992, Note_on_c, 0, 92, 57
1, 646004, Control_c, 0, 64, 87
1, 646019, Control_c, 0, 64, 93
1, 646033, Control_c, 0, 64, 99
1, 646048, Control_c, 0, 64, 107
1, 646063, Control_c, 0, 64, 127
1, 646099, Note_off_c, 0, 74, 57
1, 646104, Note_on_c, 0, 75, 60
1, 646105, Note_off_c, 0, 73, 27
1, 646115, Note_on_c, 0, 80, 55
1, 646116, Note_off_c, 0, 92, 62
1, 646199, Note_off_c, 0, 80, 61
1, 646206, Note_off_c, 0, 75, 60
1, 646220, Note_on_c, 0, 76, 62
1, 646233, Note_on_c, 0, 92, 68
1, 646302, Note_off_c, 0, 76, 57
1, 646313, Note_off_c, 0, 92, 63
1, 646320, Note_on_c, 0, 75, 71
1, 646322, Note_on_c, 0, 80, 71
1, 646382, Note_off_c, 0, 80, 61
1, 646415, Note_on_c, 0, 92, 79
1, 646418, Note_on_c, 0, 76, 79
1, 646435, Note_off_c, 0, 75, 56
1, 646484, Note_off_c, 0, 92, 65
1, 646501, Note_on_c, 0, 80, 77
1, 646509, Note_on_c, 0, 78, 84
1, 646513, Note_off_c, 0, 76, 62
1, 646554, Note_off_c, 0, 80, 62
1, 646579, Note_on_c, 0, 92, 78
1, 646589, Note_on_c, 0, 75, 82
1, 646596, Note_off_c, 0, 78, 59
1, 646642, Note_off_c, 0, 92, 65
1, 646656, Note_on_c, 0, 80, 80
1, 646677, Note_on_c, 0, 76, 84
1, 646694, Note_off_c, 0, 80, 61
1, 646738, Control_c, 0, 64, 98
1, 646747, Note_off_c, 0, 75, 53
1, 646753, Control_c, 0, 64, 63
1, 646761, Note_on_c, 0, 78, 91
1, 646765, Note_on_c, 0, 80, 85
1, 646765, Note_off_c, 0, 76, 65
1, 646768, Control_c, 0, 64, 0
1, 646812, Control_c, 0, 64, 58
1, 646814, Note_off_c, 0, 80, 64
1, 646827, Control_c, 0, 64, 78
1, 646835, Note_on_c, 0, 92, 83
1, 646842, Control_c, 0, 64, 127
1, 646845, Note_on_c, 0, 75, 90
1, 646859, Note_off_c, 0, 78, 58
1, 646922, Note_on_c, 0, 80, 85
1, 646928, Note_off_c, 0, 92, 62
1, 646934, Note_on_c, 0, 76, 90
1, 646942, Note_off_c, 0, 75, 64
1, 646991, Note_off_c, 0, 80, 64
1, 647011, Note_on_c, 0, 92, 89
1, 647014, Note_on_c, 0, 78, 87
1, 647020, Note_off_c, 0, 76, 63
1, 647092, Note_on_c, 0, 80, 92
1, 647092, Note_off_c, 0, 92, 64
1, 647095, Note_on_c, 0, 75, 91
1, 647107, Note_off_c, 0, 78, 59
1, 647172, Note_off_c, 0, 80, 64
1, 647184, Note_on_c, 0, 76, 92
1, 647185, Note_on_c, 0, 92, 90
1, 647199, Note_off_c, 0, 75, 64
1, 647264, Note_off_c, 0, 92, 67
1, 647271, Note_on_c, 0, 80, 95
1, 647272, Note_on_c, 0, 78, 90
1, 647285, Note_off_c, 0, 76, 61
1, 647351, Note_on_c, 0, 92, 97
1, 647351, Note_off_c, 0, 80, 49
1, 647356, Note_on_c, 0, 75, 82
1, 647383, Note_off_c, 0, 78, 51
1, 647421, Note_on_c, 0, 76, 81
1, 647429, Note_off_c, 0, 92, 64
1, 647434, Note_on_c, 0, 80, 98
1, 647438, Note_off_c, 0, 76, 75
1, 647448, Note_off_c, 0, 75, 41
1, 647479, Note_off_c, 0, 80, 65
1, 647635, Control_c, 0, 64, 120
1, 647650, Control_c, 0, 64, 103
1, 647665, Control_c, 0, 64, 95
1, 647681, Control_c, 0, 64, 89
1, 647696, Control_c, 0, 64, 83
1, 647710, Control_c, 0, 64, 77
1, 647725, Control_c, 0, 64, 71
1, 647740, Control_c, 0, 64, 67
1, 647755, Control_c, 0, 64, 63
1, 647770, Control_c, 0, 64, 60
1, 647784, Control_c, 0, 64, 55
1, 647799, Control_c, 0, 64, 51
1, 647814, Control_c, 0, 64, 44
1, 647828, Control_c, 0, 64, 33
1, 647843, Control_c, 0, 64, 0
1, 647848, Note_on_c, 0, 64, 82
1, 647864, Note_on_c, 0, 55, 55
1, 647866, Note_on_c, 0, 40, 58
1, 647867, Note_on_c, 0, 47, 53
1, 648042, Control_c, 0, 64, 29
1, 648057, Control_c, 0, 64, 40
1, 648072, Control_c, 0, 64, 51
1, 648087, Control_c, 0, 64, 59
1, 648101, Control_c, 0, 64, 63
1, 648113, Note_on_c, 0, 76, 78
1, 648116, Control_c, 0, 64, 66
1, 648131, Control_c, 0, 64, 69
1, 648145, Control_c, 0, 64, 71
1, 648160, Control_c, 0, 64, 73
1, 648175, Control_c, 0, 64, 76
1, 648186, Note_off_c, 0, 64, 50
1, 648190, Control_c, 0, 64, 79
1, 648205, Control_c, 0, 64, 81
1, 648219, Control_c, 0, 64, 83
1, 648234, Control_c, 0, 64, 84
1, 648249, Control_c, 0, 64, 84
1, 648264, Control_c, 0, 64, 85
1, 648344, Note_on_c, 0, 71, 70
1, 648438, Note_off_c, 0, 71, 62
1, 648439, Note_on_c, 0, 72, 71
1, 648466, Note_off_c, 0, 76, 55
1, 648472, Control_c, 0, 64, 84
1, 648487, Control_c, 0, 64, 83
1, 648502, Control_c, 0, 64, 81
1, 648517, Control_c, 0, 64, 75
1, 648529, Note_on_c, 0, 71, 76
1, 648531, Control_c, 0, 64, 65
1, 648546, Control_c, 0, 64, 53
1, 648553, Note_off_c, 0, 72, 60
1, 648561, Control_c, 0, 64, 45
1, 648576, Control_c, 0, 64, 46
1, 648591, Control_c, 0, 64, 51
1, 648603, Note_on_c, 0, 69, 79
1, 648606, Control_c, 0, 64, 57
1, 648621, Control_c, 0, 64, 63
1, 648624, Note_off_c, 0, 71, 62
1, 648636, Control_c, 0, 64, 67
1, 648657, Control_c, 0, 64, 71
1, 648672, Control_c, 0, 64, 75
1, 648679, Note_off_c, 0, 69, 63
1, 648683, Note_on_c, 0, 67, 81
1, 648687, Control_c, 0, 64, 76
1, 648702, Control_c, 0, 64, 78
1, 648717, Control_c, 0, 64, 79
1, 648731, Control_c, 0, 64, 80
1, 648740, Note_off_c, 0, 67, 58
1, 648746, Control_c, 0, 64, 81
1, 648760, Note_on_c, 0, 69, 72
1, 648761, Control_c, 0, 64, 82
1, 648776, Control_c, 0, 64, 83
1, 648791, Control_c, 0, 64, 84
1, 648806, Control_c, 0, 64, 86
1, 648821, Control_c, 0, 64, 89
1, 648834, Note_on_c, 0, 67, 75
1, 648836, Control_c, 0, 64, 91
1, 648850, Control_c, 0, 64, 90
1, 648859, Note_off_c, 0, 69, 58
1, 648865, Control_c, 0, 64, 80
1, 648880, Control_c, 0, 64, 64
1, 648895, Control_c, 0, 64, 50
1, 648898, Note_on_c, 0, 66, 81
1, 648911, Note_off_c, 0, 67, 58
1, 648924, Control_c, 0, 64, 58
1, 648939, Control_c, 0, 64, 68
1, 648954, Control_c, 0, 64, 83
1, 648962, Note_off_c, 0, 66, 64
1, 648967, Note_on_c, 0, 64, 79
1, 648968, Control_c, 0, 64, 102
1, 648983, Control_c, 0, 64, 97
1, 648998, Control_c, 0, 64, 78
1, 649013, Control_c, 0, 64, 65
1, 649028, Control_c, 0, 64, 61
1, 649042, Control_c, 0, 64, 69
1, 649048, Note_on_c, 0, 66, 82
1, 649052, Note_off_c, 0, 64, 62
1, 649057, Control_c, 0, 64, 86
1, 649072, Control_c, 0, 64, 103
1, 649087, Control_c, 0, 64, 98
1, 649102, Control_c, 0, 64, 84
1, 649115, Note_on_c, 0, 67, 79
1, 649116, Control_c, 0, 64, 69
1, 649131, Control_c, 0, 64, 52
1, 649143, Note_off_c, 0, 66, 62
1, 649146, Control_c, 0, 64, 55
1, 649161, Control_c, 0, 64, 62
1, 649175, Control_c, 0, 64, 60
1, 649188, Note_on_c, 0, 69, 69
1, 649190, Control_c, 0, 64, 55
1, 649195, Note_off_c, 0, 67, 57
1, 649205, Control_c, 0, 64, 47
1, 649218, Note_off_c, 0, 69, 65
1, 649220, Control_c, 0, 64, 43
1, 649235, Control_c, 0, 64, 52
1, 649250, Control_c, 0, 64, 66
1, 649250, Note_on_c, 0, 71, 85
1, 649265, Control_c, 0, 64, 87
1, 649280, Control_c, 0, 64, 127
1, 649324, Note_on_c, 0, 73, 83
1, 649334, Note_off_c, 0, 71, 55
1, 649404, Note_on_c, 0, 75, 83
1, 649407, Note_off_c, 0, 73, 63
1, 649456, Note_off_c, 0, 75, 64
1, 649457, Note_off_c, 0, 40, 61
1, 649472, Note_on_c, 0, 76, 83
1, 649476, Note_off_c, 0, 55, 61
1, 649488, Note_off_c, 0, 47, 62
1, 649526, Control_c, 0, 64, 81
1, 649541, Control_c, 0, 64, 57
1, 649542, Note_on_c, 0, 78, 82
1, 649554, Note_off_c, 0, 76, 61
1, 649555, Control_c, 0, 64, 0
1, 649606, Note_on_c, 0, 79, 81
1, 649629, Control_c, 0, 64, 45
1, 649644, Control_c, 0, 64, 61
1, 649655, Note_off_c, 0, 78, 56
1, 649659, Control_c, 0, 64, 69
1, 649673, Control_c, 0, 64, 79
1, 649684, Note_on_c, 0, 81, 85
1, 649688, Control_c, 0, 64, 90
1, 649703, Control_c, 0, 64, 102
1, 649718, Control_c, 0, 64, 127
1, 649721, Note_off_c, 0, 79, 62
1, 649754, Note_on_c, 0, 83, 87
1, 649769, Note_off_c, 0, 81, 66
1, 649798, Note_off_c, 0, 83, 64
1, 649891, Note_on_c, 0, 84, 77
1, 649940, Control_c, 0, 64, 107
1, 649941, Note_on_c, 0, 52, 50
1, 649955, Control_c, 0, 64, 78
1, 649970, Control_c, 0, 64, 62
1, 649982, Note_off_c, 0, 84, 61
1, 649985, Control_c, 0, 64, 46
1, 649993, Note_on_c, 0, 83, 66
1, 649999, Control_c, 0, 64, 44
1, 650014, Control_c, 0, 64, 53
1, 650029, Control_c, 0, 64, 63
1, 650044, Control_c, 0, 64, 78
1, 650050, Note_off_c, 0, 83, 52
1, 650059, Control_c, 0, 64, 109
1, 650075, Control_c, 0, 64, 127
1, 650084, Note_on_c, 0, 84, 74
1, 650108, Note_on_c, 0, 64, 62
1, 650150, Note_off_c, 0, 84, 61
1, 650161, Note_on_c, 0, 83, 78
1, 650207, Note_off_c, 0, 83, 62
1, 650225, Note_on_c, 0, 84, 78
1, 650253, Note_off_c, 0, 52, 0
1, 650255, Note_off_c, 0, 64, 59
1, 650273, Note_off_c, 0, 84, 62
1, 650290, Poly_aftertouch_c, 0, 52, 127
1, 650296, Note_on_c, 0, 83, 76
1, 650297, Note_on_c, 0, 59, 68
1, 650319, Note_off_c, 0, 83, 68
1, 650319, Control_c, 0, 64, 91
1, 650334, Control_c, 0, 64, 67
1, 650336, Note_on_c, 0, 84, 74
1, 650348, Control_c, 0, 64, 64
1, 650349, Poly_aftertouch_c, 0, 52, 0
1, 650363, Control_c, 0, 64, 81
1, 650374, Note_on_c, 0, 60, 74
1, 650377, Note_off_c, 0, 59, 64
1, 650378, Control_c, 0, 64, 127
1, 650389, Note_off_c, 0, 84, 61
1, 650406, Note_on_c, 0, 83, 83
1, 650431, Note_off_c, 0, 83, 61
1, 650437, Control_c, 0, 64, 118
1, 650448, Note_on_c, 0, 84, 76
1, 650452, Control_c, 0, 64, 80
1, 650458, Note_on_c, 0, 59, 83
1, 650462, Note_off_c, 0, 60, 63
1, 650467, Control_c, 0, 64, 70
1, 650482, Control_c, 0, 64, 83
1, 650496, Control_c, 0, 64, 127
1, 650499, Note_off_c, 0, 84, 61
1, 650511, Note_on_c, 0, 83, 80
1, 650523, Note_on_c, 0, 57, 76
1, 650541, Control_c, 0, 64, 87
1, 650545, Note_off_c, 0, 83, 60
1, 650555, Control_c, 0, 64, 61
1, 650561, Note_on_c, 0, 84, 77
1, 650563, Note_off_c, 0, 59, 61
1, 650570, Control_c, 0, 64, 52
1, 650585, Control_c, 0, 64, 67
1, 650600, Note_on_c, 0, 55, 76
1, 650600, Control_c, 0, 64, 92
1, 650612, Note_off_c, 0, 57, 64
1, 650614, Note_off_c, 0, 84, 61
1, 650615, Control_c, 0, 64, 118
1, 650628, Note_on_c, 0, 83, 78
1, 650630, Control_c, 0, 64, 93
1, 650645, Control_c, 0, 64, 69
1, 650652, Note_off_c, 0, 83, 66
1, 650660, Control_c, 0, 64, 49
1, 650670, Note_off_c, 0, 55, 64
1, 650673, Note_on_c, 0, 84, 76
1, 650675, Note_on_c, 0, 57, 78
1, 650675, Control_c, 0, 64, 50
1, 650690, Control_c, 0, 64, 63
1, 650704, Control_c, 0, 64, 78
1, 650719, Control_c, 0, 64, 87
1, 650725, Note_off_c, 0, 84, 59
1, 650734, Control_c, 0, 64, 77
1, 650738, Note_on_c, 0, 83, 79
1, 650738, Note_off_c, 0, 57, 56
1, 650748, Control_c, 0, 64, 56
1, 650762, Note_off_c, 0, 83, 63
1, 650763, Control_c, 0, 64, 44
1, 650764, Note_on_c, 0, 55, 80
1, 650778, Control_c, 0, 64, 61
1, 650787, Note_on_c, 0, 84, 76
1, 650793, Control_c, 0, 64, 79
1, 650808, Control_c, 0, 64, 127
1, 650828, Note_on_c, 0, 54, 74
1, 650837, Note_off_c, 0, 84, 59
1, 650837, Control_c, 0, 64, 82
1, 650848, Note_on_c, 0, 83, 81
1, 650851, Note_off_c, 0, 55, 60
1, 650852, Control_c, 0, 64, 58
1, 650868, Control_c, 0, 64, 50
1, 650883, Control_c, 0, 64, 66
1, 650884, Note_off_c, 0, 83, 62
1, 650905, Control_c, 0, 64, 93
1, 650908, Note_on_c, 0, 84, 76
1, 650919, Control_c, 0, 64, 127
1, 650934, Note_off_c, 0, 54, 63
1, 650940, Note_on_c, 0, 52, 76
1, 650949, Control_c, 0, 64, 75
1, 650958, Note_off_c, 0, 84, 62
1, 650964, Control_c, 0, 64, 52
1, 650968, Note_on_c, 0, 83, 75
1, 650979, Control_c, 0, 64, 49
1, 650994, Control_c, 0, 64, 68
1, 651003, Note_off_c, 0, 83, 64
1, 651009, Control_c, 0, 64, 114
1, 651016, Note_on_c, 0, 84, 76
1, 651023, Control_c, 0, 64, 127
1, 651026, Note_on_c, 0, 54, 77
1, 651053, Control_c, 0, 64, 82
1, 651053, Note_off_c, 0, 52, 60
1, 651068, Control_c, 0, 64, 62
1, 651073, Note_off_c, 0, 84, 62
1, 651080, Note_on_c, 0, 83, 77
1, 651095, Note_on_c, 0, 55, 84
1, 651098, Control_c, 0, 64, 83
1, 651113, Control_c, 0, 64, 127
1, 651117, Note_off_c, 0, 83, 60
1, 651125, Note_on_c, 0, 84, 77
1, 651148, Note_off_c, 0, 54, 61
1, 651157, Control_c, 0, 64, 91
1, 651163, Note_on_c, 0, 57, 86
1, 651170, Note_off_c, 0, 55, 61
1, 651171, Control_c, 0, 64, 66
1, 651179, Note_off_c, 0, 84, 63
1, 651186, Control_c, 0, 64, 70
1, 651187, Note_on_c, 0, 83, 76
1, 651201, Control_c, 0, 64, 127
1, 651222, Note_off_c, 0, 57, 64
1, 651229, Note_on_c, 0, 59, 82
1, 651230, Note_off_c, 0, 83, 64
1, 651239, Note_on_c, 0, 84, 83
1, 651260, Control_c, 0, 64, 91
1, 651275, Control_c, 0, 64, 72
1, 651277, Note_off_c, 0, 59, 61
1, 651290, Control_c, 0, 64, 83
1, 651298, Note_off_c, 0, 84, 63
1, 651300, Note_on_c, 0, 83, 83
1, 651305, Note_on_c, 0, 61, 86
1, 651305, Control_c, 0, 64, 127
1, 651342, Note_off_c, 0, 83, 63
1, 651348, Note_on_c, 0, 84, 78
1, 651364, Control_c, 0, 64, 82
1, 651369, Note_on_c, 0, 63, 90
1, 651378, Control_c, 0, 64, 62
1, 651381, Note_off_c, 0, 61, 63
1, 651393, Control_c, 0, 64, 67
1, 651402, Note_off_c, 0, 84, 61
1, 651405, Note_on_c, 0, 83, 76
1, 651408, Control_c, 0, 64, 93
1, 651423, Control_c, 0, 64, 127
1, 651426, Note_off_c, 0, 63, 64
1, 651438, Control_c, 0, 64, 115
1, 651446, Note_off_c, 0, 83, 64
1, 651447, Note_on_c, 0, 64, 73
1, 651453, Control_c, 0, 64, 69
1, 651458, Note_on_c, 0, 84, 79
1, 651461, Note_on_c, 0, 65, 54
1, 651468, Control_c, 0, 64, 42
1, 651483, Control_c, 0, 64, 0
1, 651484, Note_off_c, 0, 64, 58
1, 651484, Note_off_c, 0, 65, 60
1, 651497, Control_c, 0, 64, 41
1, 651511, Note_on_c, 0, 83, 77
1, 651512, Note_off_c, 0, 84, 64
1, 651512, Control_c, 0, 64, 64
1, 651513, Note_on_c, 0, 66, 82
1, 651527, Control_c, 0, 64, 95
1, 651542, Control_c, 0, 64, 127
1, 651550, Note_off_c, 0, 83, 61
1, 651554, Note_on_c, 0, 84, 70
1, 651582, Note_on_c, 0, 67, 74
1, 651608, Note_on_c, 0, 83, 71
1, 651608, Note_off_c, 0, 84, 64
1, 651615, Note_off_c, 0, 66, 63
1, 651649, Note_off_c, 0, 83, 62
1, 651649, Note_on_c, 0, 69, 90
1, 651651, Note_off_c, 0, 67, 66
1, 651664, Note_on_c, 0, 84, 72
1, 651714, Note_on_c, 0, 83, 81
1, 651718, Note_off_c, 0, 69, 62
1, 651720, Note_off_c, 0, 84, 65
1, 651729, Note_on_c, 0, 71, 87
1, 651752, Note_off_c, 0, 83, 65
1, 651764, Note_off_c, 0, 71, 66
1, 651772, Control_c, 0, 64, 89
1, 651787, Control_c, 0, 64, 40
1, 651802, Control_c, 0, 64, 0
1, 651802, Note_on_c, 0, 71, 89
1, 651805, Note_on_c, 0, 83, 89
1, 651831, Control_c, 0, 64, 36
1, 651843, Note_off_c, 0, 83, 65
1, 651846, Control_c, 0, 64, 71
1, 651861, Note_off_c, 0, 71, 63
1, 651861, Control_c, 0, 64, 127
1, 651870, Note_on_c, 0, 84, 76
1, 651886, Note_on_c, 0, 72, 78
1, 651909, Note_off_c, 0, 72, 66
1, 651913, Note_off_c, 0, 84, 60
1, 651931, Note_on_c, 0, 83, 59
1, 651951, Note_off_c, 0, 83, 62
1, 651954, Note_on_c, 0, 71, 84
1, 651967, Note_on_c, 0, 84, 71
1, 651996, Note_off_c, 0, 71, 55
1, 651997, Note_off_c, 0, 84, 55
1, 652011, Note_on_c, 0, 72, 68
1, 652014, Note_on_c, 0, 83, 78
1, 652036, Note_off_c, 0, 72, 63
1, 652037, Note_off_c, 0, 83, 67
1, 652061, Note_on_c, 0, 71, 68
1, 652070, Note_on_c, 0, 84, 72
1, 652093, Note_off_c, 0, 84, 56
1, 652094, Note_off_c, 0, 71, 68
1, 652106, Note_on_c, 0, 72, 75
1, 652115, Note_on_c, 0, 83, 77
1, 652127, Note_off_c, 0, 72, 69
1, 652135, Note_off_c, 0, 83, 71
1, 652157, Note_on_c, 0, 71, 77
1, 652163, Note_on_c, 0, 84, 73
1, 652195, Note_off_c, 0, 84, 51
1, 652198, Note_off_c, 0, 71, 57
1, 652206, Note_on_c, 0, 83, 70
1, 652208, Note_on_c, 0, 72, 63
1, 652231, Note_off_c, 0, 72, 65
1, 652235, Note_off_c, 0, 83, 63
1, 652253, Note_on_c, 0, 71, 64
1, 652264, Note_on_c, 0, 84, 72
1, 652285, Note_on_c, 0, 72, 74
1, 652285, Note_off_c, 0, 84, 57
1, 652289, Note_off_c, 0, 71, 62
1, 652305, Note_on_c, 0, 83, 74
1, 652325, Note_off_c, 0, 83, 70
1, 652329, Note_off_c, 0, 72, 62
1, 652351, Note_on_c, 0, 84, 74
1, 652360, Note_on_c, 0, 71, 68
1, 652397, Note_off_c, 0, 84, 62
1, 652399, Note_off_c, 0, 71, 62
1, 652404, Note_on_c, 0, 83, 75
1, 652405, Note_on_c, 0, 72, 72
1, 652433, Note_off_c, 0, 83, 63
1, 652435, Note_off_c, 0, 72, 61
1, 652447, Note_on_c, 0, 84, 64
1, 652455, Note_on_c, 0, 71, 52
1, 652489, Note_off_c, 0, 71, 64
1, 652490, Note_on_c, 0, 72, 70
1, 652491, Note_off_c, 0, 84, 64
1, 652496, Note_on_c, 0, 83, 70
1, 652520, Note_off_c, 0, 83, 65
1, 652533, Note_on_c, 0, 84, 67
1, 652535, Note_off_c, 0, 72, 61
1, 652577, Note_on_c, 0, 71, 50
1, 652589, Note_off_c, 0, 84, 64
1, 652597, Note_on_c, 0, 83, 64
1, 652608, Note_off_c, 0, 71, 63
1, 652616, Note_off_c, 0, 83, 63
1, 652621, Note_on_c, 0, 69, 72
1, 652623, Note_on_c, 0, 81, 69
1, 652666, Note_off_c, 0, 81, 61
1, 652675, Note_off_c, 0, 69, 63
1, 652686, Note_on_c, 0, 83, 71
1, 652690, Note_on_c, 0, 71, 64
1, 652711, Note_off_c, 0, 71, 64
1, 652733, Note_off_c, 0, 83, 60
1, 652809, Note_on_c, 0, 86, 71
1, 652824, Note_on_c, 0, 71, 49
1, 652862, Control_c, 0, 64, 105
1, 652877, Control_c, 0, 64, 81
1, 652891, Control_c, 0, 64, 64
1, 652906, Control_c, 0, 64, 43
1, 652921, Control_c, 0, 64, 0
1, 652950, Control_c, 0, 64, 36
1, 652965, Control_c, 0, 64, 51
1, 652980, Control_c, 0, 64, 63
1, 652995, Control_c, 0, 64, 80
1, 653009, Control_c, 0, 64, 127
1, 653051, Note_on_c, 0, 84, 76
1, 653062, Note_on_c, 0, 72, 66
1, 653069, Control_c, 0, 64, 99
1, 653083, Control_c, 0, 64, 76
1, 653098, Control_c, 0, 64, 68
1, 653100, Note_off_c, 0, 86, 57
1, 653113, Control_c, 0, 64, 74
1, 653119, Note_off_c, 0, 71, 35
1, 653128, Control_c, 0, 64, 100
1, 653150, Control_c, 0, 64, 127
1, 653154, Note_off_c, 0, 84, 63
1, 653168, Note_off_c, 0, 72, 61
1, 653195, Control_c, 0, 64, 107
1, 653210, Control_c, 0, 64, 70
1, 653224, Control_c, 0, 64, 56
1, 653235, Note_on_c, 0, 73, 75
1, 653238, Note_on_c, 0, 84, 92
1, 653239, Control_c, 0, 64, 65
1, 653254, Control_c, 0, 64, 85
1, 653270, Control_c, 0, 64, 127
1, 653298, Note_off_c, 0, 73, 64
1, 653318, Note_off_c, 0, 84, 63
1, 653401, Note_on_c, 0, 74, 90
1, 653402, Note_on_c, 0, 84, 96
1, 653433, Control_c, 0, 64, 80
1, 653447, Control_c, 0, 64, 55
1, 653462, Control_c, 0, 64, 40
1, 653477, Control_c, 0, 64, 56
1, 653486, Note_off_c, 0, 84, 64
1, 653492, Control_c, 0, 64, 73
1, 653507, Note_off_c, 0, 74, 62
1, 653507, Control_c, 0, 64, 127
1, 653569, Note_on_c, 0, 75, 93
1, 653574, Note_on_c, 0, 84, 95
1, 653596, Control_c, 0, 64, 83
1, 653611, Control_c, 0, 64, 79
1, 653626, Control_c, 0, 64, 126
1, 653655, Note_off_c, 0, 84, 60
1, 653748, Note_off_c, 0, 75, 55
1, 653754, Note_on_c, 0, 84, 95
1, 653755, Note_on_c, 0, 76, 90
1, 653802, Note_off_c, 0, 76, 65
1, 653838, Note_off_c, 0, 84, 62
1, 654074, Note_on_c, 0, 84, 79
1, 654082, Note_on_c, 0, 79, 80
1, 654108, Control_c, 0, 64, 79
1, 654123, Control_c, 0, 64, 58
1, 654138, Control_c, 0, 64, 0
1, 654167, Control_c, 0, 64, 37
1, 654182, Control_c, 0, 64, 55
1, 654196, Control_c, 0, 64, 66
1, 654211, Control_c, 0, 64, 81
1, 654222, Note_off_c, 0, 84, 62
1, 654226, Control_c, 0, 64, 112
1, 654241, Control_c, 0, 64, 127
1, 654249, Note_off_c, 0, 79, 59
1, 654331, Note_on_c, 0, 84, 71
1, 654341, Note_on_c, 0, 80, 69
1, 654343, Note_on_c, 0, 77, 69
1, 654359, Control_c, 0, 64, 121
1, 654374, Control_c, 0, 64, 79
1, 654389, Control_c, 0, 64, 68
1, 654392, Note_off_c, 0, 80, 59
1, 654392, Note_off_c, 0, 77, 62
1, 654401, Note_off_c, 0, 84, 59
1, 654404, Control_c, 0, 64, 72
1, 654419, Control_c, 0, 64, 89
1, 654434, Control_c, 0, 64, 127
1, 654478, Control_c, 0, 64, 121
1, 654493, Control_c, 0, 64, 84
1, 654504, Note_on_c, 0, 77, 67
1, 654505, Note_on_c, 0, 84, 67
1, 654507, Note_on_c, 0, 80, 64
1, 654507, Control_c, 0, 64, 72
1, 654537, Control_c, 0, 64, 79
1, 654538, Note_off_c, 0, 77, 58
1, 654540, Note_off_c, 0, 80, 60
1, 654548, Note_off_c, 0, 84, 59
1, 654567, Control_c, 0, 64, 75
1, 654567, Control_c, 0, 67, 46
1, 654582, Control_c, 0, 64, 68
1, 654582, Control_c, 0, 67, 58
1, 654596, Control_c, 0, 64, 64
1, 654596, Control_c, 0, 67, 62
1, 654626, Control_c, 0, 64, 68
1, 654647, Note_on_c, 0, 77, 62
1, 654648, Control_c, 0, 64, 81
1, 654648, Control_c, 0, 67, 61
1, 654649, Note_on_c, 0, 80, 63
1, 654656, Note_on_c, 0, 84, 64
1, 654663, Control_c, 0, 64, 95
1, 654678, Control_c, 0, 67, 61
1, 654686, Note_off_c, 0, 80, 57
1, 654688, Note_off_c, 0, 84, 59
1, 654693, Control_c, 0, 64, 88
1, 654694, Note_off_c, 0, 77, 61
1, 654708, Control_c, 0, 64, 80
1, 654722, Control_c, 0, 64, 75
1, 654737, Control_c, 0, 64, 76
1, 654752, Control_c, 0, 64, 80
1, 654767, Control_c, 0, 64, 85
1, 654782, Control_c, 0, 64, 87
1, 654782, Control_c, 0, 67, 60
1, 654788, Note_on_c, 0, 84, 59
1, 654790, Note_on_c, 0, 80, 55
1, 654796, Control_c, 0, 64, 88
1, 654799, Note_on_c, 0, 77, 49
1, 654811, Control_c, 0, 64, 89
1, 654826, Control_c, 0, 64, 90
1, 654827, Note_off_c, 0, 80, 61
1, 654830, Note_off_c, 0, 77, 54
1, 654832, Note_off_c, 0, 84, 53
1, 654856, Control_c, 0, 67, 60
1, 654872, Control_c, 0, 64, 89
1, 654886, Control_c, 0, 64, 88
1, 654921, Note_on_c, 0, 80, 57
1, 654925, Note_on_c, 0, 77, 55
1, 654928, Note_on_c, 0, 84, 53
1, 654931, Control_c, 0, 64, 89
1, 654945, Control_c, 0, 64, 92
1, 654960, Control_c, 0, 64, 97
1, 654962, Note_off_c, 0, 77, 60
1, 654974, Note_off_c, 0, 80, 54
1, 654975, Control_c, 0, 64, 100
1, 654976, Note_off_c, 0, 84, 53
1, 654990, Control_c, 0, 64, 103
1, 655005, Control_c, 0, 64, 105
1, 655019, Control_c, 0, 64, 109
1, 655034, Control_c, 0, 64, 117
1, 655034, Control_c, 0, 67, 60
1, 655049, Control_c, 0, 64, 127
1, 655064, Control_c, 0, 67, 61
1, 655067, Note_on_c, 0, 77, 58
1, 655072, Note_on_c, 0, 84, 53
1, 655081, Note_on_c, 0, 80, 41
1, 655111, Note_off_c, 0, 77, 58
1, 655119, Note_off_c, 0, 80, 60
1, 655130, Note_off_c, 0, 84, 59
1, 655214, Note_on_c, 0, 84, 44
1, 655215, Note_on_c, 0, 80, 51
1, 655224, Note_on_c, 0, 77, 44
1, 655253, Note_off_c, 0, 80, 60
1, 655256, Control_c, 0, 67, 60
1, 655259, Note_off_c, 0, 77, 52
1, 655259, Note_off_c, 0, 84, 59
1, 655316, Control_c, 0, 67, 60
1, 655355, Note_on_c, 0, 80, 39
1, 655358, Note_on_c, 0, 84, 57
1, 655360, Note_on_c, 0, 77, 56
1, 655399, Note_off_c, 0, 80, 60
1, 655408, Note_off_c, 0, 84, 56
1, 655420, Note_off_c, 0, 77, 52
1, 655426, Control_c, 0, 67, 59
1, 655531, Control_c, 0, 67, 58
1, 655560, Control_c, 0, 67, 58
1, 655599, Note_on_c, 0, 84, 55
1, 655606, Note_on_c, 0, 77, 46
1, 655650, Control_c, 0, 64, 93
1, 655665, Control_c, 0, 64, 71
1, 655680, Control_c, 0, 64, 62
1, 655695, Control_c, 0, 67, 57
1, 655709, Control_c, 0, 64, 65
1, 655709, Control_c, 0, 67, 57
1, 655724, Control_c, 0, 64, 70
1, 655739, Control_c, 0, 64, 78
1, 655754, Control_c, 0, 64, 88
1, 655760, Note_off_c, 0, 77, 56
1, 655767, Note_off_c, 0, 84, 53
1, 655769, Control_c, 0, 64, 108
1, 655770, Note_on_c, 0, 96, 60
1, 655772, Note_on_c, 0, 78, 50
1, 655784, Control_c, 0, 64, 127
1, 655799, Control_c, 0, 67, 56
1, 655899, Note_off_c, 0, 78, 61
1, 655903, Note_on_c, 0, 84, 53
1, 655904, Note_off_c, 0, 96, 60
1, 655916, Note_on_c, 0, 79, 51
1, 655917, Control_c, 0, 67, 56
1, 655932, Control_c, 0, 67, 55
1, 655976, Control_c, 0, 67, 56
1, 655990, Note_off_c, 0, 84, 55
1, 656011, Note_off_c, 0, 79, 58
1, 656021, Control_c, 0, 67, 55
1, 656031, Note_on_c, 0, 96, 60
1, 656040, Note_on_c, 0, 80, 54
1, 656065, Control_c, 0, 67, 56
1, 656117, Note_off_c, 0, 96, 59
1, 656125, Note_off_c, 0, 80, 60
1, 656138, Note_on_c, 0, 84, 62
1, 656140, Note_on_c, 0, 79, 60
1, 656162, Control_c, 0, 67, 55
1, 656191, Control_c, 0, 67, 54
1, 656206, Note_off_c, 0, 84, 62
1, 656235, Control_c, 0, 67, 54
1, 656238, Note_on_c, 0, 96, 72
1, 656244, Note_on_c, 0, 80, 73
1, 656249, Control_c, 0, 67, 53
1, 656264, Note_off_c, 0, 79, 58
1, 656264, Control_c, 0, 67, 52
1, 656279, Control_c, 0, 67, 50
1, 656294, Control_c, 0, 67, 49
1, 656307, Note_off_c, 0, 96, 66
1, 656309, Control_c, 0, 67, 49
1, 656324, Control_c, 0, 67, 48
1, 656327, Note_on_c, 0, 84, 71
1, 656333, Note_on_c, 0, 82, 74
1, 656338, Control_c, 0, 67, 46
1, 656353, Control_c, 0, 67, 45
1, 656362, Note_off_c, 0, 80, 58
1, 656368, Control_c, 0, 67, 43
1, 656383, Control_c, 0, 67, 42
1, 656385, Note_off_c, 0, 84, 62
1, 656398, Control_c, 0, 67, 41
1, 656421, Note_on_c, 0, 96, 70
1, 656428, Control_c, 0, 67, 41
1, 656429, Note_off_c, 0, 82, 58
1, 656431, Note_on_c, 0, 79, 74
1, 656442, Control_c, 0, 67, 41
1, 656458, Control_c, 0, 67, 42
1, 656473, Control_c, 0, 67, 42
1, 656487, Control_c, 0, 67, 43
1, 656490, Note_off_c, 0, 96, 54
1, 656492, Note_on_c, 0, 84, 72
1, 656517, Control_c, 0, 67, 42
1, 656525, Note_on_c, 0, 80, 82
1, 656532, Control_c, 0, 67, 41
1, 656532, Note_off_c, 0, 84, 60
1, 656544, Note_off_c, 0, 79, 62
1, 656547, Control_c, 0, 67, 38
1, 656562, Control_c, 0, 67, 34
1, 656577, Control_c, 0, 67, 0
1, 656607, Note_on_c, 0, 82, 83
1, 656621, Note_on_c, 0, 84, 78
1, 656631, Note_off_c, 0, 80, 56
1, 656672, Note_off_c, 0, 84, 62
1, 656698, Note_on_c, 0, 79, 80
1, 656700, Note_off_c, 0, 82, 60
1, 656708, Note_on_c, 0, 96, 78
1, 656786, Note_on_c, 0, 80, 88
1, 656793, Note_on_c, 0, 84, 81
1, 656802, Note_off_c, 0, 79, 62
1, 656807, Note_off_c, 0, 96, 66
1, 656859, Note_on_c, 0, 82, 87
1, 656870, Note_off_c, 0, 84, 63
1, 656891, Note_off_c, 0, 80, 55
1, 656895, Note_on_c, 0, 96, 84
1, 656958, Note_on_c, 0, 79, 80
1, 656965, Note_off_c, 0, 82, 59
1, 656975, Note_on_c, 0, 84, 89
1, 656989, Note_off_c, 0, 96, 67
1, 657057, Note_on_c, 0, 80, 91
1, 657059, Note_on_c, 0, 96, 86
1, 657059, Note_off_c, 0, 84, 60
1, 657100, Note_off_c, 0, 79, 48
1, 657136, Note_on_c, 0, 82, 91
1, 657145, Note_on_c, 0, 84, 97
1, 657158, Note_off_c, 0, 96, 65
1, 657168, Note_off_c, 0, 80, 60
1, 657227, Note_on_c, 0, 96, 88
1, 657231, Note_on_c, 0, 79, 76
1, 657241, Note_off_c, 0, 84, 62
1, 657248, Note_off_c, 0, 82, 60
1, 657317, Note_on_c, 0, 84, 92
1, 657321, Note_off_c, 0, 79, 65
1, 657326, Note_on_c, 0, 80, 82
1, 657343, Note_off_c, 0, 80, 73
1, 657363, Note_off_c, 0, 96, 67
1, 657370, Note_off_c, 0, 84, 66
1, 657531, Note_on_c, 0, 85, 82
1, 657570, Note_on_c, 0, 42, 65
1, 657621, Control_c, 0, 64, 105
1, 657644, Control_c, 0, 64, 72
1, 657659, Control_c, 0, 64, 56
1, 657674, Control_c, 0, 64, 52
1, 657688, Control_c, 0, 64, 59
1, 657692, Note_on_c, 0, 97, 82
1, 657703, Control_c, 0, 64, 68
1, 657708, Note_off_c, 0, 85, 64
1, 657710, Note_on_c, 0, 43, 70
1, 657716, Note_off_c, 0, 42, 61
1, 657718, Control_c, 0, 64, 86
1, 657732, Control_c, 0, 64, 127
1, 657807, Note_on_c, 0, 44, 61
1, 657814, Note_on_c, 0, 85, 85
1, 657825, Note_off_c, 0, 43, 61
1, 657829, Note_off_c, 0, 97, 62
1, 657896, Note_on_c, 0, 45, 85
1, 657909, Note_off_c, 0, 85, 64
1, 657912, Note_off_c, 0, 44, 63
1, 657922, Note_on_c, 0, 97, 91
1, 657999, Control_c, 0, 64, 76
1, 658001, Note_on_c, 0, 44, 84
1, 658003, Note_off_c, 0, 97, 63
1, 658007, Note_on_c, 0, 85, 90
1, 658014, Control_c, 0, 64, 51
1, 658016, Note_off_c, 0, 45, 64
1, 658044, Control_c, 0, 64, 62
1, 658059, Control_c, 0, 64, 73
1, 658074, Control_c, 0, 64, 127
1, 658081, Note_off_c, 0, 85, 64
1, 658088, Note_on_c, 0, 45, 85
1, 658097, Note_on_c, 0, 97, 91
1, 658106, Note_off_c, 0, 44, 63
1, 658149, Note_on_c, 0, 98, 31
1, 658175, Note_on_c, 0, 47, 86
1, 658179, Note_off_c, 0, 97, 63
1, 658183, Note_on_c, 0, 85, 91
1, 658192, Note_off_c, 0, 45, 62
1, 658194, Note_off_c, 0, 98, 30
1, 658243, Note_off_c, 0, 85, 65
1, 658262, Note_on_c, 0, 44, 81
1, 658269, Note_on_c, 0, 97, 92
1, 658277, Note_off_c, 0, 47, 63
1, 658330, Note_off_c, 0, 97, 63
1, 658341, Note_on_c, 0, 85, 91
1, 658347, Note_on_c, 0, 45, 87
1, 658368, Note_off_c, 0, 44, 62
1, 658396, Note_off_c, 0, 85, 64
1, 658449, Note_on_c, 0, 97, 61
1, 658467, Note_off_c, 0, 45, 61
1, 658483, Note_off_c, 0, 97, 64
1, 658497, Note_on_c, 0, 85, 96
1, 658500, Note_on_c, 0, 47, 82
1, 658541, Control_c, 0, 64, 75
1, 658555, Control_c, 0, 64, 52
1, 658570, Control_c, 0, 64, 0
1, 658600, Control_c, 0, 64, 33
1, 658605, Note_on_c, 0, 44, 78
1, 658606, Note_off_c, 0, 85, 63
1, 658615, Note_on_c, 0, 97, 91
1, 658615, Control_c, 0, 64, 56
1, 658630, Control_c, 0, 64, 76
1, 658635, Note_off_c, 0, 47, 62
1, 658644, Control_c, 0, 64, 127
1, 658707, Note_on_c, 0, 85, 89
1, 658708, Note_on_c, 0, 45, 84
1, 658711, Note_off_c, 0, 97, 60
1, 658725, Note_off_c, 0, 44, 63
1, 658777, Note_off_c, 0, 85, 65
1, 658798, Note_on_c, 0, 47, 85
1, 658798, Note_on_c, 0, 97, 92
1, 658804, Note_off_c, 0, 45, 60
1, 658822, Control_c, 0, 64, 78
1, 658836, Control_c, 0, 64, 52
1, 658851, Control_c, 0, 64, 55
1, 658867, Control_c, 0, 64, 67
1, 658880, Note_on_c, 0, 44, 81
1, 658880, Note_off_c, 0, 47, 60
1, 658880, Note_off_c, 0, 97, 61
1, 658881, Note_on_c, 0, 85, 88
1, 658882, Control_c, 0, 64, 91
1, 658897, Control_c, 0, 64, 127
1, 658947, Note_off_c, 0, 85, 64
1, 658964, Note_on_c, 0, 45, 84
1, 658969, Note_on_c, 0, 97, 92
1, 658979, Note_off_c, 0, 44, 63
1, 659042, Note_off_c, 0, 97, 63
1, 659048, Note_on_c, 0, 85, 90
1, 659054, Note_on_c, 0, 47, 89
1, 659064, Note_off_c, 0, 45, 62
1, 659113, Note_off_c, 0, 85, 63
1, 659145, Note_on_c, 0, 97, 86
1, 659148, Note_on_c, 0, 44, 79
1, 659160, Note_off_c, 0, 47, 58
1, 659210, Note_off_c, 0, 97, 63
1, 659221, Note_on_c, 0, 85, 84
1, 659231, Note_on_c, 0, 45, 78
1, 659247, Note_off_c, 0, 44, 63
1, 659263, Note_off_c, 0, 85, 65
1, 659346, Note_on_c, 0, 47, 87
1, 659352, Note_off_c, 0, 45, 54
1, 659356, Note_on_c, 0, 85, 95
1, 659364, Control_c, 0, 64, 76
1, 659379, Control_c, 0, 64, 56
1, 659394, Control_c, 0, 64, 58
1, 659409, Control_c, 0, 64, 70
1, 659415, Note_off_c, 0, 85, 65
1, 659424, Control_c, 0, 64, 93
1, 659434, Note_on_c, 0, 44, 74
1, 659438, Note_on_c, 0, 97, 83
1, 659439, Control_c, 0, 64, 127
1, 659448, Note_off_c, 0, 47, 62
1, 659519, Note_on_c, 0, 85, 82
1, 659522, Note_on_c, 0, 45, 77
1, 659525, Note_off_c, 0, 97, 55
1, 659541, Note_off_c, 0, 44, 61
1, 659558, Note_off_c, 0, 85, 63
1, 659581, Note_off_c, 0, 45, 62
1, 659615, Note_on_c, 0, 50, 81
1, 659616, Control_c, 0, 64, 77
1, 659629, Note_on_c, 0, 81, 94
1, 659630, Control_c, 0, 64, 51
1, 659645, Control_c, 0, 64, 47
1, 659662, Control_c, 0, 64, 64
1, 659673, Note_off_c, 0, 50, 60
1, 659677, Control_c, 0, 64, 84
1, 659691, Control_c, 0, 64, 127
1, 659695, Note_on_c, 0, 48, 77
1, 659704, Note_off_c, 0, 81, 65
1, 659722, Note_on_c, 0, 93, 87
1, 659783, Note_off_c, 0, 93, 62
1, 659788, Note_on_c, 0, 49, 81
1, 659796, Note_on_c, 0, 81, 84
1, 659802, Note_off_c, 0, 48, 63
1, 659829, Note_off_c, 0, 81, 61
1, 659860, Note_off_c, 0, 49, 64
1, 659891, Control_c, 0, 64, 84
1, 659897, Note_on_c, 0, 56, 97
1, 659906, Control_c, 0, 64, 53
1, 659909, Note_on_c, 0, 78, 95
1, 659921, Control_c, 0, 64, 0
1, 659935, Control_c, 0, 64, 48
1, 659944, Note_off_c, 0, 56, 66
1, 659950, Control_c, 0, 64, 73
1, 659965, Control_c, 0, 64, 127
1, 659972, Note_off_c, 0, 78, 60
1, 659990, Note_on_c, 0, 53, 69
1, 659995, Note_on_c, 0, 90, 90
1, 660056, Note_off_c, 0, 90, 64
1, 660070, Note_on_c, 0, 78, 82
1, 660074, Note_on_c, 0, 54, 81
1, 660077, Note_off_c, 0, 53, 63
1, 660103, Note_off_c, 0, 78, 61
1, 660142, Note_off_c, 0, 54, 63
1, 660157, Control_c, 0, 64, 66
1, 660159, Note_on_c, 0, 59, 97
1, 660170, Note_on_c, 0, 73, 101
1, 660172, Control_c, 0, 64, 0
1, 660187, Control_c, 0, 64, 35
1, 660202, Control_c, 0, 64, 63
1, 660217, Control_c, 0, 64, 88
1, 660229, Note_off_c, 0, 73, 62
1, 660232, Control_c, 0, 64, 127
1, 660249, Note_on_c, 0, 56, 80
1, 660252, Note_on_c, 0, 85, 88
1, 660258, Note_off_c, 0, 59, 63
1, 660313, Note_off_c, 0, 85, 64
1, 660328, Note_on_c, 0, 73, 87
1, 660333, Note_on_c, 0, 57, 82
1, 660352, Note_off_c, 0, 56, 57
1, 660376, Note_off_c, 0, 73, 65
1, 660408, Note_off_c, 0, 57, 64
1, 660433, Note_on_c, 0, 62, 97
1, 660439, Control_c, 0, 64, 74
1, 660445, Note_on_c, 0, 69, 100
1, 660455, Control_c, 0, 64, 44
1, 660470, Control_c, 0, 64, 46
1, 660485, Control_c, 0, 64, 78
1, 660491, Note_off_c, 0, 62, 66
1, 660499, Control_c, 0, 64, 127
1, 660544, Note_on_c, 0, 81, 85
1, 660550, Note_on_c, 0, 60, 79
1, 660551, Note_off_c, 0, 69, 61
1, 660639, Note_on_c, 0, 69, 93
1, 660647, Note_on_c, 0, 61, 77
1, 660647, Note_off_c, 0, 81, 59
1, 660653, Note_off_c, 0, 60, 65
1, 660715, Note_off_c, 0, 69, 59
1, 660723, Note_off_c, 0, 61, 63
1, 660757, Control_c, 0, 64, 113
1, 660767, Note_on_c, 0, 68, 101
1, 660769, Note_on_c, 0, 80, 98
1, 660772, Control_c, 0, 64, 64
1, 660787, Control_c, 0, 64, 38
1, 660802, Control_c, 0, 64, 46
1, 660817, Control_c, 0, 64, 76
1, 660831, Control_c, 0, 64, 127
1, 660872, Note_on_c, 0, 77, 94
1, 660884, Note_off_c, 0, 80, 62
1, 660897, Note_on_c, 0, 65, 62
1, 660917, Note_off_c, 0, 68, 57
1, 660965, Note_on_c, 0, 78, 91
1, 660975, Note_off_c, 0, 65, 62
1, 660979, Note_off_c, 0, 77, 64
1, 660980, Note_on_c, 0, 66, 84
1, 660997, Note_off_c, 0, 78, 67
1, 661002, Note_off_c, 0, 66, 71
1, 661202, Control_c, 0, 64, 82
1, 661211, Note_on_c, 0, 52, 90
1, 661212, Note_on_c, 0, 56, 107
1, 661215, Note_on_c, 0, 49, 87
1, 661216, Note_on_c, 0, 100, 94
1, 661217, Control_c, 0, 64, 45
1, 661219, Note_on_c, 0, 44, 89
1, 661231, Control_c, 0, 64, 0
1, 661262, Control_c, 0, 64, 37
1, 661277, Control_c, 0, 64, 63
1, 661278, Note_on_c, 0, 99, 89
1, 661292, Control_c, 0, 64, 87
1, 661305, Note_off_c, 0, 100, 66
1, 661306, Control_c, 0, 64, 127
1, 661325, Note_on_c, 0, 97, 85
1, 661373, Note_on_c, 0, 95, 84
1, 661381, Note_off_c, 0, 99, 63
1, 661399, Note_off_c, 0, 97, 65
1, 661430, Note_off_c, 0, 95, 68
1, 661431, Note_on_c, 0, 93, 76
1, 661453, Note_off_c, 0, 93, 66
1, 661486, Note_on_c, 0, 92, 89
1, 661544, Note_on_c, 0, 90, 87
1, 661549, Note_off_c, 0, 92, 68
1, 661594, Note_off_c, 0, 90, 66
1, 661599, Note_on_c, 0, 88, 78
1, 661644, Note_off_c, 0, 88, 65
1, 661659, Note_on_c, 0, 87, 80
1, 661701, Note_on_c, 0, 85, 82
1, 661740, Note_off_c, 0, 87, 64
1, 661746, Note_on_c, 0, 83, 81
1, 661761, Note_off_c, 0, 85, 66
1, 661796, Note_off_c, 0, 83, 67
1, 661802, Note_on_c, 0, 81, 78
1, 661824, Note_off_c, 0, 81, 66
1, 661854, Note_on_c, 0, 80, 87
1, 661886, Note_off_c, 0, 49, 62
1, 661889, Note_off_c, 0, 52, 62
1, 661895, Note_off_c, 0, 44, 63
1, 661908, Note_on_c, 0, 78, 89
1, 661912, Note_off_c, 0, 80, 67
1, 661913, Note_off_c, 0, 56, 61
1, 661949, Note_on_c, 0, 76, 82
1, 661949, Note_off_c, 0, 78, 64
1, 661982, Note_off_c, 0, 76, 57
1, 662011, Note_on_c, 0, 75, 82
1, 662043, Note_on_c, 0, 73, 78
1, 662079, Note_on_c, 0, 71, 86
1, 662080, Note_off_c, 0, 75, 65
1, 662095, Note_off_c, 0, 73, 64
1, 662136, Note_off_c, 0, 71, 65
1, 662136, Control_c, 0, 64, 65
1, 662138, Note_on_c, 0, 69, 84
1, 662151, Control_c, 0, 64, 0
1, 662169, Note_off_c, 0, 69, 66
1, 662203, Note_on_c, 0, 56, 101
1, 662203, Note_on_c, 0, 68, 98
1, 662226, Control_c, 0, 64, 53
1, 662241, Control_c, 0, 64, 127
1, 662330, Note_on_c, 0, 54, 76
1, 662330, Note_off_c, 0, 56, 60
1, 662336, Note_on_c, 0, 66, 92
1, 662343, Note_off_c, 0, 68, 62
1, 662385, Note_off_c, 0, 54, 61
1, 662396, Note_off_c, 0, 66, 66
1, 662405, Note_on_c, 0, 64, 78
1, 662411, Note_on_c, 0, 52, 82
1, 662446, Note_off_c, 0, 64, 65
1, 662468, Note_off_c, 0, 52, 57
1, 662482, Note_on_c, 0, 63, 80
1, 662485, Note_on_c, 0, 51, 78
1, 662528, Note_on_c, 0, 61, 78
1, 662548, Note_off_c, 0, 51, 61
1, 662551, Note_on_c, 0, 49, 80
1, 662567, Note_off_c, 0, 63, 64
1, 662583, Note_on_c, 0, 59, 83
1, 662598, Note_off_c, 0, 61, 65
1, 662604, Note_off_c, 0, 49, 63
1, 662607, Note_on_c, 0, 47, 77
1, 662635, Note_on_c, 0, 57, 81
1, 662637, Note_off_c, 0, 59, 66
1, 662673, Note_off_c, 0, 57, 63
1, 662685, Note_on_c, 0, 45, 83
1, 662685, Note_off_c, 0, 47, 59
1, 662696, Note_on_c, 0, 56, 90
1, 662747, Note_on_c, 0, 44, 77
1, 662753, Note_on_c, 0, 54, 86
1, 662770, Note_off_c, 0, 56, 64
1, 662771, Note_off_c, 0, 45, 61
1, 662790, Note_on_c, 0, 42, 84
1, 662798, Note_off_c, 0, 44, 64
1, 662810, Note_on_c, 0, 52, 82
1, 662812, Note_off_c, 0, 54, 67
1, 662831, Note_off_c, 0, 42, 66
1, 662848, Note_on_c, 0, 40, 89
1, 662855, Note_off_c, 0, 52, 59
1, 662886, Note_on_c, 0, 51, 78
1, 662921, Note_off_c, 0, 40, 57
1, 662929, Note_on_c, 0, 49, 76
1, 662937, Note_on_c, 0, 39, 81
1, 662963, Note_off_c, 0, 51, 63
1, 662966, Note_on_c, 0, 47, 77
1, 662978, Note_off_c, 0, 49, 63
1, 662984, Note_off_c, 0, 39, 64
1, 662991, Note_on_c, 0, 37, 71
1, 663020, Note_off_c, 0, 37, 65
1, 663020, Note_off_c, 0, 47, 63
1, 663028, Note_on_c, 0, 45, 78
1, 663038, Note_on_c, 0, 35, 82
1, 663040, Note_on_c, 0, 36, 26
1, 663084, Note_off_c, 0, 36, 46
1, 663089, Note_on_c, 0, 44, 92
1, 663092, Control_c, 0, 64, 81
1, 663102, Note_off_c, 0, 45, 58
1, 663104, Note_off_c, 0, 35, 51
1, 663107, Control_c, 0, 64, 0
1, 663111, Note_on_c, 0, 33, 85
1, 663129, Note_off_c, 0, 44, 66
1, 663132, Note_on_c, 0, 32, 79
1, 663137, Control_c, 0, 64, 57
1, 663151, Control_c, 0, 64, 82
1, 663153, Note_off_c, 0, 33, 59
1, 663166, Control_c, 0, 64, 127
1, 663224, Note_off_c, 0, 32, 60
1, 663238, Note_on_c, 0, 31, 79
1, 663316, Note_on_c, 0, 52, 81
1, 663323, Note_on_c, 0, 49, 76
1, 663323, Note_on_c, 0, 56, 82
1, 663325, Note_on_c, 0, 32, 91
1, 663337, Note_off_c, 0, 31, 60
1, 663348, Note_off_c, 0, 52, 64
1, 663351, Note_off_c, 0, 49, 67
1, 663369, Note_off_c, 0, 56, 66
1, 663428, Note_off_c, 0, 32, 58
1, 663437, Note_on_c, 0, 31, 78
1, 663533, Note_on_c, 0, 61, 95
1, 663534, Note_on_c, 0, 32, 87
1, 663534, Note_on_c, 0, 52, 86
1, 663537, Note_on_c, 0, 56, 93
1, 663540, Note_off_c, 0, 31, 58
1, 663575, Note_off_c, 0, 52, 63
1, 663604, Note_off_c, 0, 32, 61
1, 663623, Note_off_c, 0, 56, 63
1, 663630, Note_on_c, 0, 31, 78
1, 663636, Note_off_c, 0, 61, 62
1, 663692, Note_off_c, 0, 31, 59
1, 663707, Note_on_c, 0, 64, 82
1, 663709, Note_on_c, 0, 32, 89
1, 663710, Note_on_c, 0, 61, 78
1, 663710, Note_on_c, 0, 56, 84
1, 663731, Note_off_c, 0, 56, 72
1, 663743, Note_off_c, 0, 61, 62
1, 663750, Note_off_c, 0, 64, 68
1, 663768, Note_off_c, 0, 32, 65
1, 663788, Note_on_c, 0, 31, 82
1, 663838, Note_off_c, 0, 31, 63
1, 663865, Note_on_c, 0, 32, 86
1, 663874, Note_on_c, 0, 61, 78
1, 663874, Note_on_c, 0, 64, 81
1, 663874, Note_on_c, 0, 68, 80
1, 663893, Note_off_c, 0, 61, 69
1, 663900, Note_on_c, 0, 65, 31
1, 663908, Note_off_c, 0, 64, 57
1, 663927, Note_off_c, 0, 68, 63
1, 663931, Note_off_c, 0, 32, 62
1, 663937, Note_on_c, 0, 31, 83
1, 663937, Note_off_c, 0, 65, 50
1, 663997, Note_off_c, 0, 31, 62
1, 664020, Note_on_c, 0, 73, 91
1, 664023, Note_on_c, 0, 32, 91
1, 664029, Note_on_c, 0, 64, 73
1, 664035, Note_on_c, 0, 68, 73
1, 664048, Note_on_c, 0, 65, 48
1, 664052, Note_off_c, 0, 64, 69
1, 664060, Note_off_c, 0, 68, 66
1, 664077, Note_off_c, 0, 65, 55
1, 664083, Note_off_c, 0, 32, 63
1, 664091, Note_on_c, 0, 31, 81
1, 664093, Note_off_c, 0, 73, 59
1, 664167, Note_off_c, 0, 31, 51
1, 664169, Note_on_c, 0, 32, 91
1, 664169, Note_on_c, 0, 76, 88
1, 664169, Note_on_c, 0, 68, 76
1, 664172, Note_on_c, 0, 73, 78
1, 664194, Note_off_c, 0, 68, 69
1, 664200, Note_off_c, 0, 73, 64
1, 664207, Note_off_c, 0, 76, 68
1, 664232, Note_off_c, 0, 32, 61
1, 664238, Note_on_c, 0, 31, 76
1, 664308, Note_on_c, 0, 76, 86
1, 664312, Note_on_c, 0, 73, 85
1, 664312, Note_off_c, 0, 31, 59
1, 664314, Note_on_c, 0, 80, 85
1, 664318, Note_on_c, 0, 32, 87
1, 664332, Note_off_c, 0, 73, 68
1, 664351, Note_off_c, 0, 76, 64
1, 664382, Note_off_c, 0, 80, 61
1, 664387, Note_off_c, 0, 32, 63
1, 664407, Note_on_c, 0, 31, 80
1, 664472, Note_on_c, 0, 85, 97
1, 664474, Note_on_c, 0, 76, 91
1, 664477, Note_off_c, 0, 31, 62
1, 664480, Note_on_c, 0, 32, 86
1, 664482, Note_on_c, 0, 80, 78
1, 664512, Note_off_c, 0, 80, 55
1, 664518, Note_off_c, 0, 76, 62
1, 664542, Note_off_c, 0, 32, 60
1, 664552, Note_on_c, 0, 31, 77
1, 664556, Note_off_c, 0, 85, 60
1, 664616, Note_on_c, 0, 88, 93
1, 664617, Note_on_c, 0, 80, 83
1, 664626, Note_on_c, 0, 85, 70
1, 664634, Note_on_c, 0, 32, 88
1, 664634, Note_off_c, 0, 80, 74
1, 664639, Note_off_c, 0, 31, 58
1, 664648, Note_off_c, 0, 85, 71
1, 664653, Note_off_c, 0, 88, 67
1, 664708, Note_off_c, 0, 32, 61
1, 664716, Note_on_c, 0, 31, 75
1, 664768, Note_on_c, 0, 88, 85
1, 664770, Note_on_c, 0, 85, 93
1, 664771, Note_on_c, 0, 92, 94
1, 664794, Note_off_c, 0, 31, 60
1, 664795, Note_on_c, 0, 32, 88
1, 664801, Note_off_c, 0, 88, 63
1, 664803, Note_off_c, 0, 92, 65
1, 664804, Note_off_c, 0, 85, 65
1, 664868, Note_off_c, 0, 32, 61
1, 664881, Note_on_c, 0, 31, 80
1, 664944, Note_on_c, 0, 61, 91
1, 664947, Note_on_c, 0, 68, 79
1, 664949, Note_on_c, 0, 64, 76
1, 664958, Note_on_c, 0, 32, 88
1, 664974, Note_off_c, 0, 64, 69
1, 664977, Note_off_c, 0, 31, 51
1, 664993, Note_off_c, 0, 61, 60
1, 665002, Note_off_c, 0, 68, 62
1, 665026, Note_on_c, 0, 31, 61
1, 665029, Note_off_c, 0, 32, 60
1, 665084, Note_off_c, 0, 31, 62
1, 665094, Control_c, 0, 64, 75
1, 665109, Control_c, 0, 64, 41
1, 665126, Note_on_c, 0, 61, 71
1, 665127, Note_on_c, 0, 32, 91
1, 665127, Note_on_c, 0, 67, 82
1, 665131, Control_c, 0, 64, 30
1, 665134, Note_on_c, 0, 64, 76
1, 665146, Control_c, 0, 64, 60
1, 665156, Note_off_c, 0, 61, 67
1, 665159, Note_off_c, 0, 64, 71
1, 665161, Control_c, 0, 64, 77
1, 665176, Control_c, 0, 64, 127
1, 665178, Note_off_c, 0, 67, 63
1, 665222, Note_off_c, 0, 32, 60
1, 665225, Note_on_c, 0, 33, 80
1, 665317, Note_on_c, 0, 79, 80
1, 665322, Note_off_c, 0, 33, 55
1, 665323, Note_on_c, 0, 76, 79
1, 665325, Note_on_c, 0, 32, 84
1, 665326, Note_on_c, 0, 73, 79
1, 665370, Note_off_c, 0, 76, 61
1, 665383, Note_off_c, 0, 73, 59
1, 665401, Note_off_c, 0, 79, 61
1, 665403, Note_off_c, 0, 32, 60
1, 665423, Note_on_c, 0, 33, 82
1, 665478, Note_on_c, 0, 76, 83
1, 665479, Note_on_c, 0, 67, 83
1, 665481, Note_on_c, 0, 73, 83
1, 665494, Note_off_c, 0, 33, 57
1, 665501, Note_on_c, 0, 32, 83
1, 665522, Note_off_c, 0, 67, 63
1, 665526, Note_off_c, 0, 76, 63
1, 665529, Note_off_c, 0, 73, 61
1, 665568, Note_off_c, 0, 32, 61
1, 665577, Note_on_c, 0, 33, 79
1, 665618, Note_on_c, 0, 64, 89
1, 665624, Note_on_c, 0, 73, 79
1, 665627, Note_on_c, 0, 69, 73
1, 665628, Note_on_c, 0, 67, 75
1, 665651, Note_off_c, 0, 69, 68
1, 665654, Note_off_c, 0, 33, 59
1, 665654, Note_off_c, 0, 67, 67
1, 665657, Note_on_c, 0, 32, 85
1, 665667, Note_off_c, 0, 73, 57
1, 665673, Note_off_c, 0, 64, 63
1, 665714, Note_off_c, 0, 32, 61
1, 665716, Note_on_c, 0, 33, 78
1, 665767, Note_on_c, 0, 67, 83
1, 665770, Note_on_c, 0, 61, 78
1, 665770, Note_on_c, 0, 64, 81
1, 665793, Note_off_c, 0, 33, 63
1, 665793, Note_off_c, 0, 64, 70
1, 665798, Note_on_c, 0, 32, 85
1, 665798, Note_off_c, 0, 61, 65
1, 665818, Note_off_c, 0, 67, 66
1, 665897, Note_on_c, 0, 33, 83
1, 665925, Note_on_c, 0, 73, 77
1, 665928, Note_on_c, 0, 76, 78
1, 665934, Note_off_c, 0, 32, 54
1, 665937, Note_on_c, 0, 67, 64
1, 665937, Note_on_c, 0, 65, 68
1, 665955, Note_off_c, 0, 73, 60
1, 665957, Note_off_c, 0, 65, 66
1, 665958, Note_off_c, 0, 76, 61
1, 665964, Note_off_c, 0, 67, 65
1, 665983, Note_off_c, 0, 33, 60
1, 666034, Poly_aftertouch_c, 0, 32, 127
1, 666074, Control_c, 0, 64, 79
1, 666083, Note_on_c, 0, 76, 86
1, 666089, Control_c, 0, 64, 52
1, 666090, Note_on_c, 0, 67, 75
1, 666096, Note_on_c, 0, 73, 70
1, 666104, Control_c, 0, 64, 43
1, 666105, Note_on_c, 0, 33, 75
1, 666114, Note_off_c, 0, 73, 63
1, 666119, Control_c, 0, 64, 61
1, 666134, Control_c, 0, 64, 73
1, 666140, Note_off_c, 0, 76, 64
1, 666148, Note_off_c, 0, 67, 60
1, 666149, Note_on_c, 0, 72, 22
1, 666149, Control_c, 0, 64, 127
1, 666154, Poly_aftertouch_c, 0, 32, 0
1, 666188, Note_off_c, 0, 72, 42
1, 666193, Note_off_c, 0, 33, 62
1, 666195, Note_on_c, 0, 34, 81
1, 666244, Note_on_c, 0, 64, 78
1, 666244, Note_on_c, 0, 67, 80
1, 666247, Note_on_c, 0, 73, 83
1, 666263, Note_off_c, 0, 67, 67
1, 666266, Note_on_c, 0, 33, 86
1, 666267, Note_off_c, 0, 64, 71
1, 666289, Note_off_c, 0, 34, 61
1, 666306, Note_off_c, 0, 73, 59
1, 666352, Note_on_c, 0, 34, 84
1, 666371, Note_off_c, 0, 33, 59
1, 666408, Note_on_c, 0, 79, 75
1, 666413, Note_on_c, 0, 73, 82
1, 666419, Note_on_c, 0, 76, 69
1, 666422, Note_on_c, 0, 74, 79
1, 666437, Note_on_c, 0, 33, 83
1, 666441, Note_on_c, 0, 77, 41
1, 666441, Note_off_c, 0, 77, 127
1, 666444, Note_off_c, 0, 74, 70
1, 666445, Note_off_c, 0, 76, 69
1, 666457, Note_off_c, 0, 34, 62
1, 666462, Note_off_c, 0, 73, 61
1, 666471, Note_off_c, 0, 79, 64
1, 666530, Note_on_c, 0, 34, 89
1, 666538, Note_off_c, 0, 33, 59
1, 666569, Note_on_c, 0, 73, 86
1, 666572, Note_on_c, 0, 67, 77
1, 666578, Note_on_c, 0, 76, 70
1, 666581, Note_on_c, 0, 77, 70
1, 666593, Note_off_c, 0, 67, 71
1, 666599, Note_off_c, 0, 73, 59
1, 666605, Note_on_c, 0, 69, 35
1, 666607, Note_off_c, 0, 76, 67
1, 666608, Note_on_c, 0, 33, 84
1, 666611, Note_off_c, 0, 77, 63
1, 666628, Note_off_c, 0, 34, 62
1, 666645, Note_off_c, 0, 69, 53
1, 666694, Note_on_c, 0, 34, 86
1, 666711, Note_off_c, 0, 33, 61
1, 666744, Note_on_c, 0, 79, 89
1, 666746, Note_on_c, 0, 76, 83
1, 666751, Note_on_c, 0, 85, 87
1, 666766, Note_off_c, 0, 76, 73
1, 666769, Note_on_c, 0, 33, 86
1, 666777, Note_off_c, 0, 79, 63
1, 666779, Note_off_c, 0, 34, 63
1, 666798, Note_off_c, 0, 85, 64
1, 666852, Note_on_c, 0, 34, 91
1, 666870, Note_off_c, 0, 33, 61
1, 666934, Note_on_c, 0, 33, 82
1, 666934, Note_on_c, 0, 88, 87
1, 666934, Note_on_c, 0, 91, 93
1, 666935, Note_off_c, 0, 34, 63
1, 666936, Note_on_c, 0, 97, 94
1, 666976, Note_off_c, 0, 88, 65
1, 666989, Note_off_c, 0, 91, 47
1, 667000, Note_on_c, 0, 34, 85
1, 667007, Note_off_c, 0, 33, 63
1, 667009, Note_off_c, 0, 97, 62
1, 667059, Note_off_c, 0, 34, 63
1, 667133, Control_c, 0, 64, 85
1, 667148, Control_c, 0, 64, 53
1, 667153, Note_on_c, 0, 88, 104
1, 667163, Control_c, 0, 64, 0
1, 667168, Note_on_c, 0, 34, 88
1, 667207, Control_c, 0, 64, 52
1, 667222, Control_c, 0, 64, 70
1, 667237, Control_c, 0, 64, 127
1, 667275, Note_on_c, 0, 90, 89
1, 667278, Note_on_c, 0, 35, 81
1, 667293, Note_off_c, 0, 34, 63
1, 667309, Note_off_c, 0, 88, 63
1, 667336, Note_on_c, 0, 91, 83
1, 667395, Note_off_c, 0, 90, 61
1, 667409, Note_off_c, 0, 35, 62
1, 667411, Note_on_c, 0, 34, 79
1, 667415, Note_on_c, 0, 93, 81
1, 667448, Note_off_c, 0, 91, 67
1, 667471, Note_on_c, 0, 95, 81
1, 667478, Note_off_c, 0, 93, 64
1, 667494, Note_off_c, 0, 34, 63
1, 667505, Note_on_c, 0, 35, 82
1, 667532, Note_on_c, 0, 93, 85
1, 667551, Note_off_c, 0, 95, 67
1, 667555, Note_on_c, 0, 91, 89
1, 667580, Note_off_c, 0, 35, 61
1, 667591, Note_on_c, 0, 34, 75
1, 667604, Note_on_c, 0, 90, 86
1, 667609, Note_off_c, 0, 93, 63
1, 667625, Note_off_c, 0, 91, 67
1, 667637, Note_on_c, 0, 88, 84
1, 667645, Note_off_c, 0, 90, 68
1, 667651, Note_off_c, 0, 34, 62
1, 667651, Note_on_c, 0, 35, 77
1, 667676, Note_off_c, 0, 88, 65
1, 667717, Note_on_c, 0, 86, 90
1, 667737, Note_off_c, 0, 35, 60
1, 667746, Note_on_c, 0, 34, 75
1, 667755, Note_on_c, 0, 84, 76
1, 667800, Note_off_c, 0, 86, 62
1, 667810, Note_on_c, 0, 83, 70
1, 667814, Note_off_c, 0, 34, 62
1, 667820, Note_on_c, 0, 35, 80
1, 667828, Note_off_c, 0, 84, 64
1, 667842, Note_on_c, 0, 81, 55
1, 667856, Note_off_c, 0, 83, 66
1, 667874, Note_off_c, 0, 81, 67
1, 667895, Note_off_c, 0, 35, 58
1, 667908, Note_on_c, 0, 34, 79
1, 667913, Note_on_c, 0, 79, 87
1, 667955, Note_on_c, 0, 78, 82
1, 667980, Note_off_c, 0, 34, 62
1, 667982, Note_on_c, 0, 35, 79
1, 667997, Note_on_c, 0, 77, 63
1, 667998, Note_off_c, 0, 79, 66
1, 668003, Note_on_c, 0, 76, 84
1, 668009, Note_off_c, 0, 78, 64
1, 668028, Note_off_c, 0, 77, 67
1, 668062, Note_on_c, 0, 34, 77
1, 668065, Note_off_c, 0, 35, 61
1, 668068, Note_off_c, 0, 76, 64
1, 668077, Note_on_c, 0, 74, 67
1, 668079, Note_on_c, 0, 72, 54
1, 668131, Note_off_c, 0, 74, 44
1, 668132, Note_off_c, 0, 72, 0
1, 668143, Note_on_c, 0, 72, 57
1, 668160, Note_on_c, 0, 35, 77
1, 668165, Note_off_c, 0, 34, 61
1, 668195, Note_on_c, 0, 71, 66
1, 668202, Note_off_c, 0, 72, 62
1, 668214, Note_off_c, 0, 35, 62
1, 668223, Note_off_c, 0, 71, 66
1, 668232, Poly_aftertouch_c, 0, 70, 127
1, 668259, Note_on_c, 0, 67, 57
1, 668265, Poly_aftertouch_c, 0, 70, 0
1, 668280, Note_off_c, 0, 67, 61
1, 668304, Control_c, 0, 67, 40
1, 668319, Control_c, 0, 64, 77
1, 668319, Control_c, 0, 67, 94
1, 668321, Note_on_c, 0, 36, 78
1, 668328, Note_on_c, 0, 64, 92
1, 668334, Control_c, 0, 64, 42
1, 668334, Control_c, 0, 67, 127
1, 668349, Control_c, 0, 64, 0
1, 668363, Note_off_c, 0, 64, 66
1, 668363, Control_c, 0, 64, 40
1, 668378, Control_c, 0, 64, 58
1, 668393, Control_c, 0, 64, 70
1, 668408, Control_c, 0, 64, 95
1, 668417, Note_on_c, 0, 37, 77
1, 668423, Control_c, 0, 64, 127
1, 668423, Note_off_c, 0, 36, 62
1, 668518, Note_off_c, 0, 37, 61
1, 668520, Note_on_c, 0, 38, 65
1, 668542, Note_on_c, 0, 76, 65
1, 668561, Note_on_c, 0, 64, 75
1, 668572, Control_c, 0, 64, 70
1, 668587, Control_c, 0, 64, 44
1, 668602, Control_c, 0, 64, 32
1, 668617, Control_c, 0, 64, 45
1, 668617, Note_on_c, 0, 39, 73
1, 668620, Note_off_c, 0, 38, 62
1, 668632, Control_c, 0, 64, 62
1, 668632, Poly_aftertouch_c, 0, 36, 0
1, 668646, Control_c, 0, 64, 73
1, 668657, Note_off_c, 0, 64, 64
1, 668661, Control_c, 0, 64, 97
1, 668676, Control_c, 0, 64, 127
1, 668700, Note_on_c, 0, 40, 77
1, 668702, Note_off_c, 0, 76, 66
1, 668735, Note_off_c, 0, 39, 62
1, 668786, Note_on_c, 0, 41, 84
1, 668790, Note_off_c, 0, 40, 61
1, 668876, Control_c, 0, 64, 76
1, 668881, Note_on_c, 0, 88, 97
1, 668886, Note_off_c, 0, 41, 64
1, 668888, Note_on_c, 0, 42, 78
1, 668891, Control_c, 0, 64, 58
1, 668891, Note_on_c, 0, 76, 89
1, 668905, Control_c, 0, 64, 63
1, 668920, Control_c, 0, 64, 76
1, 668935, Control_c, 0, 64, 127
1, 668966, Note_off_c, 0, 76, 64
1, 668986, Note_on_c, 0, 43, 76
1, 668992, Note_off_c, 0, 42, 60
1, 669007, Note_off_c, 0, 88, 68
1, 669058, Note_on_c, 0, 45, 83
1, 669105, Note_off_c, 0, 43, 60
1, 669118, Note_off_c, 0, 45, 63
1, 669166, Note_on_c, 0, 44, 69
1, 669210, Note_on_c, 0, 100, 103
1, 669215, Note_on_c, 0, 88, 91
1, 669231, Control_c, 0, 64, 78
1, 669246, Note_on_c, 0, 46, 62
1, 669247, Control_c, 0, 64, 56
1, 669258, Note_on_c, 0, 97, 48
1, 669262, Control_c, 0, 64, 56
1, 669277, Control_c, 0, 64, 68
1, 669285, Note_off_c, 0, 97, 50
1, 669291, Note_off_c, 0, 44, 63
1, 669292, Control_c, 0, 64, 86
1, 669307, Control_c, 0, 64, 127
1, 669309, Note_off_c, 0, 100, 68
1, 669326, Note_off_c, 0, 46, 59
1, 669326, Note_off_c, 0, 88, 70
1, 669332, Note_on_c, 0, 47, 68
1, 669361, Note_off_c, 0, 47, 65
1, 669404, Note_on_c, 0, 52, 84
1, 669537, Note_on_c, 0, 51, 41
1, 669538, Note_off_c, 0, 52, 56
1, 669589, Note_on_c, 0, 50, 57
1, 669630, Note_on_c, 0, 74, 58
1, 669631, Note_off_c, 0, 51, 0
1, 669631, Note_on_c, 0, 51, 17
1, 669631, Note_on_c, 0, 76, 48
1, 669643, Note_off_c, 0, 50, 64
1, 669649, Note_off_c, 0, 74, 62
1, 669653, Note_off_c, 0, 76, 61
1, 669684, Note_off_c, 0, 51, 63
1, 669687, Note_on_c, 0, 50, 58
1, 669788, Note_on_c, 0, 49, 78
1, 669791, Poly_aftertouch_c, 0, 48, 0
1, 669815, Note_off_c, 0, 50, 61
1, 669827, Note_on_c, 0, 64, 86
1, 669830, Note_on_c, 0, 76, 85
1, 669961, Note_off_c, 0, 49, 61
1, 669963, Note_on_c, 0, 48, 80
1, 670061, Note_off_c, 0, 48, 61
1, 670063, Note_on_c, 0, 47, 75
1, 670113, Note_off_c, 0, 64, 60
1, 670117, Note_off_c, 0, 76, 57
1, 670179, Note_on_c, 0, 46, 68
1, 670199, Note_off_c, 0, 47, 57
1, 670266, Note_off_c, 0, 46, 61
1, 670279, Note_on_c, 0, 45, 61
1, 670296, Note_on_c, 0, 64, 82
1, 670438, Note_off_c, 0, 45, 60
1, 670466, Poly_aftertouch_c, 0, 43, 0
1, 670503, Poly_aftertouch_c, 0, 43, 127
1, 670547, Note_off_c, 0, 64, 47
1, 670550, Note_on_c, 0, 41, 61
1, 670569, Poly_aftertouch_c, 0, 43, 0
1, 670683, Note_off_c, 0, 41, 60
1, 670712, Note_on_c, 0, 38, 60
1, 670751, Note_off_c, 0, 38, 60
1, 670760, Note_on_c, 0, 64, 71
1, 670849, Note_off_c, 0, 64, 58
1, 671129, Note_on_c, 0, 64, 51
1, 671133, Note_on_c, 0, 36, 46
1, 671153, Control_c, 0, 64, 110
1, 671167, Control_c, 0, 64, 102
1, 671182, Control_c, 0, 64, 95
1, 671196, Control_c, 0, 64, 87
1, 671211, Control_c, 0, 64, 78
1, 671225, Control_c, 0, 64, 69
1, 671240, Control_c, 0, 64, 62
1, 671255, Control_c, 0, 64, 59
1, 671285, Control_c, 0, 64, 62
1, 671300, Control_c, 0, 64, 66
1, 671315, Control_c, 0, 64, 70
1, 671329, Control_c, 0, 64, 75
1, 671342, Note_on_c, 0, 37, 34
1, 671344, Control_c, 0, 64, 80
1, 671359, Control_c, 0, 64, 83
1, 671371, Note_off_c, 0, 64, 35
1, 671374, Control_c, 0, 64, 86
1, 671389, Control_c, 0, 64, 91
1, 671392, Note_off_c, 0, 36, 36
1, 671404, Control_c, 0, 64, 95
1, 671409, Note_off_c, 0, 37, 43
1, 671418, Control_c, 0, 64, 98
1, 671434, Note_on_c, 0, 49, 43
1, 671448, Control_c, 0, 64, 100
1, 671453, Note_on_c, 0, 65, 36
1, 671506, Note_off_c, 0, 49, 48
1, 671522, Control_c, 0, 64, 102
1, 671550, Note_on_c, 0, 37, 41
1, 671563, Note_off_c, 0, 65, 36
1, 671595, Note_off_c, 0, 37, 48
1, 671596, Control_c, 0, 64, 104
1, 671641, Control_c, 0, 64, 106
1, 671651, Note_on_c, 0, 49, 33
1, 671658, Note_on_c, 0, 66, 52
1, 671671, Control_c, 0, 64, 110
1, 671686, Control_c, 0, 64, 112
1, 671691, Note_off_c, 0, 66, 61
1, 671701, Control_c, 0, 64, 116
1, 671715, Control_c, 0, 64, 120
1, 671717, Note_off_c, 0, 49, 48
1, 671730, Control_c, 0, 64, 127
1, 671745, Note_on_c, 0, 37, 39
1, 671793, Note_off_c, 0, 37, 55
1, 671830, Note_on_c, 0, 67, 46
1, 671847, Note_on_c, 0, 49, 39
1, 671893, Note_off_c, 0, 67, 51
1, 671916, Note_off_c, 0, 49, 51
1, 671940, Note_on_c, 0, 37, 48
1, 671991, Note_off_c, 0, 37, 58
1, 672018, Note_on_c, 0, 68, 42
1, 672046, Note_on_c, 0, 49, 33
1, 672060, Note_off_c, 0, 68, 57
1, 672095, Note_off_c, 0, 49, 46
1, 672117, Note_on_c, 0, 37, 53
1, 672158, Note_off_c, 0, 37, 61
1, 672165, Note_on_c, 0, 69, 45
1, 672205, Note_on_c, 0, 49, 43
1, 672205, Note_off_c, 0, 69, 53
1, 672235, Note_off_c, 0, 49, 54
1, 672274, Note_on_c, 0, 37, 54
1, 672301, Note_on_c, 0, 70, 62
1, 672325, Note_off_c, 0, 37, 62
1, 672358, Note_off_c, 0, 70, 64
1, 672358, Note_on_c, 0, 49, 48
1, 672408, Note_off_c, 0, 49, 56
1, 672430, Note_on_c, 0, 37, 63
1, 672438, Note_on_c, 0, 71, 60
1, 672472, Note_off_c, 0, 71, 61
1, 672474, Note_off_c, 0, 37, 63
1, 672510, Note_on_c, 0, 49, 54
1, 672549, Note_off_c, 0, 49, 58
1, 672568, Note_on_c, 0, 72, 57
1, 672577, Note_on_c, 0, 37, 64
1, 672616, Note_off_c, 0, 37, 63
1, 672623, Note_off_c, 0, 72, 61
1, 672648, Note_on_c, 0, 49, 54
1, 672686, Note_off_c, 0, 49, 61
1, 672719, Note_on_c, 0, 37, 62
1, 672722, Note_on_c, 0, 73, 73
1, 672734, Note_on_c, 0, 61, 65
1, 672773, Note_off_c, 0, 37, 60
1, 672797, Note_off_c, 0, 61, 54
1, 672797, Note_off_c, 0, 73, 61
1, 672811, Note_on_c, 0, 49, 48
1, 672849, Note_off_c, 0, 49, 60
1, 672874, Note_on_c, 0, 74, 79
1, 672880, Note_on_c, 0, 37, 68
1, 672884, Note_on_c, 0, 62, 61
1, 672909, Note_off_c, 0, 37, 65
1, 672915, Note_off_c, 0, 62, 65
1, 672917, Control_c, 0, 64, 120
1, 672929, Note_off_c, 0, 74, 62
1, 672932, Control_c, 0, 64, 79
1, 672941, Note_on_c, 0, 49, 60
1, 672946, Control_c, 0, 64, 72
1, 672961, Control_c, 0, 64, 81
1, 672976, Control_c, 0, 64, 105
1, 672978, Note_off_c, 0, 49, 62
1, 672990, Control_c, 0, 64, 127
1, 672998, Note_on_c, 0, 37, 61
1, 673011, Note_on_c, 0, 75, 78
1, 673017, Note_on_c, 0, 63, 71
1, 673055, Note_off_c, 0, 37, 60
1, 673067, Note_off_c, 0, 63, 60
1, 673073, Note_on_c, 0, 49, 66
1, 673088, Note_off_c, 0, 75, 56
1, 673113, Note_off_c, 0, 49, 62
1, 673148, Note_on_c, 0, 76, 78
1, 673149, Note_on_c, 0, 64, 74
1, 673154, Note_on_c, 0, 37, 72
1, 673154, Control_c, 0, 67, 114
1, 673169, Control_c, 0, 67, 94
1, 673183, Control_c, 0, 67, 76
1, 673187, Note_off_c, 0, 37, 64
1, 673187, Note_off_c, 0, 64, 63
1, 673198, Note_off_c, 0, 76, 62
1, 673198, Control_c, 0, 67, 67
1, 673213, Control_c, 0, 67, 68
1, 673216, Note_on_c, 0, 49, 65
1, 673228, Control_c, 0, 67, 71
1, 673243, Control_c, 0, 67, 72
1, 673248, Note_off_c, 0, 49, 61
1, 673258, Control_c, 0, 67, 73
1, 673273, Control_c, 0, 67, 75
1, 673285, Note_on_c, 0, 37, 72
1, 673288, Control_c, 0, 67, 76
1, 673295, Note_on_c, 0, 77, 74
1, 673299, Note_on_c, 0, 65, 66
1, 673300, Note_on_c, 0, 76, 68
1, 673303, Control_c, 0, 67, 79
1, 673318, Control_c, 0, 67, 80
1, 673322, Note_off_c, 0, 76, 71
1, 673327, Note_off_c, 0, 65, 66
1, 673333, Control_c, 0, 67, 81
1, 673337, Note_off_c, 0, 37, 60
1, 673347, Note_off_c, 0, 77, 63
1, 673347, Control_c, 0, 67, 82
1, 673363, Note_on_c, 0, 49, 67
1, 673369, Control_c, 0, 67, 84
1, 673384, Control_c, 0, 67, 85
1, 673399, Control_c, 0, 67, 86
1, 673403, Note_off_c, 0, 49, 61
1, 673439, Note_on_c, 0, 37, 78
1, 673442, Note_on_c, 0, 78, 79
1, 673445, Note_on_c, 0, 66, 81
1, 673473, Control_c, 0, 67, 86
1, 673485, Note_off_c, 0, 37, 61
1, 673498, Note_off_c, 0, 66, 63
1, 673502, Control_c, 0, 67, 84
1, 673509, Note_off_c, 0, 78, 58
1, 673510, Note_on_c, 0, 49, 69
1, 673547, Control_c, 0, 67, 84
1, 673552, Note_off_c, 0, 49, 62
1, 673562, Control_c, 0, 67, 83
1, 673569, Note_on_c, 0, 79, 86
1, 673573, Note_on_c, 0, 67, 81
1, 673577, Control_c, 0, 67, 82
1, 673579, Note_on_c, 0, 37, 82
1, 673592, Control_c, 0, 67, 81
1, 673607, Control_c, 0, 67, 79
1, 673609, Note_off_c, 0, 67, 63
1, 673617, Note_off_c, 0, 37, 61
1, 673619, Note_off_c, 0, 79, 65
1, 673621, Control_c, 0, 67, 78
1, 673636, Control_c, 0, 67, 78
1, 673652, Note_on_c, 0, 49, 67
1, 673666, Control_c, 0, 67, 78
1, 673681, Control_c, 0, 67, 79
1, 673684, Note_off_c, 0, 49, 64
1, 673695, Control_c, 0, 67, 79
1, 673710, Control_c, 0, 67, 80
1, 673711, Note_on_c, 0, 80, 78
1, 673715, Note_on_c, 0, 68, 71
1, 673717, Note_on_c, 0, 37, 75
1, 673725, Control_c, 0, 67, 80
1, 673744, Note_off_c, 0, 68, 62
1, 673762, Note_off_c, 0, 37, 62
1, 673770, Note_off_c, 0, 80, 61
1, 673775, Note_on_c, 0, 49, 64
1, 673784, Control_c, 0, 67, 80
1, 673799, Control_c, 0, 67, 79
1, 673813, Control_c, 0, 67, 78
1, 673825, Note_off_c, 0, 49, 62
1, 673828, Control_c, 0, 67, 76
1, 673839, Note_on_c, 0, 81, 80
1, 673840, Note_on_c, 0, 69, 79
1, 673843, Control_c, 0, 67, 75
1, 673852, Note_on_c, 0, 37, 71
1, 673858, Control_c, 0, 67, 74
1, 673873, Control_c, 0, 67, 72
1, 673883, Note_off_c, 0, 69, 60
1, 673886, Note_off_c, 0, 37, 62
1, 673887, Control_c, 0, 67, 71
1, 673902, Control_c, 0, 67, 71
1, 673917, Control_c, 0, 67, 70
1, 673925, Note_on_c, 0, 49, 62
1, 673947, Control_c, 0, 67, 68
1, 673962, Control_c, 0, 67, 67
1, 673973, Note_off_c, 0, 49, 59
1, 673976, Control_c, 0, 67, 67
1, 673985, Note_off_c, 0, 81, 60
1, 673991, Control_c, 0, 67, 65
1, 674006, Control_c, 0, 67, 64
1, 674015, Note_on_c, 0, 70, 74
1, 674021, Control_c, 0, 67, 61
1, 674021, Note_on_c, 0, 37, 64
1, 674036, Control_c, 0, 64, 90
1, 674036, Control_c, 0, 67, 53
1, 674051, Control_c, 0, 64, 71
1, 674051, Control_c, 0, 67, 38
1, 674066, Control_c, 0, 64, 63
1, 674066, Control_c, 0, 67, 0
1, 674081, Control_c, 0, 64, 65
1, 674096, Control_c, 0, 64, 70
1, 674101, Note_off_c, 0, 37, 60
1, 674118, Control_c, 0, 64, 81
1, 674128, Note_on_c, 0, 82, 69
1, 674133, Control_c, 0, 64, 112
1, 674139, Note_on_c, 0, 49, 61
1, 674143, Note_off_c, 0, 70, 61
1, 674148, Control_c, 0, 64, 127
1, 674202, Note_off_c, 0, 49, 58
1, 674232, Note_on_c, 0, 37, 66
1, 674236, Note_on_c, 0, 71, 81
1, 674263, Note_off_c, 0, 82, 54
1, 674288, Note_off_c, 0, 37, 62
1, 674307, Note_off_c, 0, 71, 58
1, 674317, Note_on_c, 0, 49, 66
1, 674325, Note_on_c, 0, 83, 77
1, 674379, Note_off_c, 0, 49, 59
1, 674395, Note_off_c, 0, 83, 63
1, 674412, Note_on_c, 0, 37, 66
1, 674416, Note_on_c, 0, 72, 82
1, 674464, Note_off_c, 0, 37, 60
1, 674472, Note_off_c, 0, 72, 63
1, 674487, Note_on_c, 0, 49, 68
1, 674489, Note_on_c, 0, 84, 79
1, 674551, Note_off_c, 0, 49, 63
1, 674555, Note_off_c, 0, 84, 65
1, 674577, Note_on_c, 0, 73, 88
1, 674578, Note_on_c, 0, 37, 72
1, 674635, Note_off_c, 0, 37, 61
1, 674642, Note_off_c, 0, 73, 58
1, 674653, Note_on_c, 0, 85, 78
1, 674656, Note_on_c, 0, 49, 73
1, 674712, Note_off_c, 0, 49, 63
1, 674731, Note_off_c, 0, 85, 60
1, 674735, Note_on_c, 0, 74, 93
1, 674738, Note_on_c, 0, 37, 80
1, 674788, Note_off_c, 0, 74, 65
1, 674795, Note_off_c, 0, 37, 60
1, 674808, Note_on_c, 0, 49, 79
1, 674810, Note_on_c, 0, 86, 86
1, 674871, Note_off_c, 0, 86, 66
1, 674874, Note_off_c, 0, 49, 62
1, 674899, Note_on_c, 0, 75, 90
1, 674901, Note_on_c, 0, 37, 82
1, 674960, Note_off_c, 0, 37, 61
1, 674970, Note_on_c, 0, 49, 74
1, 674972, Note_on_c, 0, 87, 77
1, 674978, Note_off_c, 0, 75, 59
1, 675020, Note_off_c, 0, 49, 61
1, 675029, Control_c, 0, 64, 85
1, 675044, Control_c, 0, 64, 62
1, 675053, Note_on_c, 0, 37, 83
1, 675057, Note_on_c, 0, 76, 91
1, 675059, Control_c, 0, 64, 58
1, 675069, Note_off_c, 0, 87, 60
1, 675073, Control_c, 0, 64, 68
1, 675088, Control_c, 0, 64, 90
1, 675103, Control_c, 0, 64, 127
1, 675112, Note_off_c, 0, 37, 61
1, 675120, Note_on_c, 0, 49, 74
1, 675121, Note_off_c, 0, 76, 63
1, 675136, Note_on_c, 0, 88, 85
1, 675177, Note_off_c, 0, 49, 62
1, 675196, Note_off_c, 0, 88, 67
1, 675205, Note_on_c, 0, 37, 83
1, 675213, Note_on_c, 0, 77, 93
1, 675262, Note_off_c, 0, 37, 60
1, 675267, Note_off_c, 0, 77, 65
1, 675275, Note_on_c, 0, 49, 80
1, 675291, Note_on_c, 0, 89, 87
1, 675330, Note_off_c, 0, 49, 63
1, 675344, Note_off_c, 0, 89, 64
1, 675358, Note_on_c, 0, 37, 85
1, 675370, Note_on_c, 0, 78, 92
1, 675422, Note_off_c, 0, 37, 59
1, 675424, Note_on_c, 0, 49, 83
1, 675452, Note_on_c, 0, 90, 85
1, 675467, Note_off_c, 0, 78, 58
1, 675490, Note_off_c, 0, 49, 62
1, 675518, Note_on_c, 0, 37, 83
1, 675544, Note_on_c, 0, 79, 78
1, 675549, Note_off_c, 0, 90, 50
1, 675577, Note_off_c, 0, 37, 62
1, 675587, Note_on_c, 0, 49, 80
1, 675590, Note_on_c, 0, 91, 73
1, 675591, Note_off_c, 0, 79, 66
1, 675651, Note_off_c, 0, 49, 61
1, 675658, Note_off_c, 0, 91, 67
1, 675686, Note_on_c, 0, 37, 88
1, 675689, Control_c, 0, 64, 86
1, 675700, Note_on_c, 0, 80, 93
1, 675700, Note_on_c, 0, 88, 85
1, 675704, Control_c, 0, 64, 61
1, 675719, Control_c, 0, 64, 57
1, 675734, Control_c, 0, 64, 67
1, 675734, Control_c, 0, 67, 41
1, 675749, Control_c, 0, 64, 83
1, 675749, Control_c, 0, 67, 47
1, 675762, Note_off_c, 0, 37, 61
1, 675763, Control_c, 0, 64, 127
1, 675763, Control_c, 0, 67, 48
1, 675765, Note_on_c, 0, 49, 77
1, 675778, Control_c, 0, 67, 48
1, 675783, Note_on_c, 0, 92, 90
1, 675792, Note_off_c, 0, 88, 64
1, 675793, Control_c, 0, 67, 48
1, 675798, Note_off_c, 0, 80, 64
1, 675807, Control_c, 0, 67, 47
1, 675822, Control_c, 0, 67, 45
1, 675831, Note_off_c, 0, 49, 62
1, 675837, Control_c, 0, 67, 43
1, 675849, Note_off_c, 0, 92, 65
1, 675852, Control_c, 0, 67, 42
1, 675861, Note_on_c, 0, 37, 81
1, 675867, Control_c, 0, 67, 41
1, 675872, Note_on_c, 0, 88, 84
1, 675875, Note_on_c, 0, 80, 79
1, 675881, Control_c, 0, 67, 40
1, 675911, Control_c, 0, 67, 41
1, 675923, Note_on_c, 0, 92, 79
1, 675923, Note_off_c, 0, 80, 45
1, 675926, Control_c, 0, 67, 43
1, 675935, Note_on_c, 0, 49, 79
1, 675935, Note_off_c, 0, 88, 64
1, 675941, Control_c, 0, 64, 123
1, 675941, Control_c, 0, 67, 45
1, 675946, Note_off_c, 0, 37, 59
1, 675956, Control_c, 0, 64, 69
1, 675967, Note_off_c, 0, 92, 66
1, 675971, Control_c, 0, 64, 47
1, 675971, Control_c, 0, 67, 45
1, 675986, Control_c, 0, 64, 57
1, 675986, Control_c, 0, 67, 45
1, 676000, Control_c, 0, 64, 71
1, 676000, Control_c, 0, 67, 44
1, 676001, Note_off_c, 0, 49, 61
1, 676008, Poly_aftertouch_c, 0, 92, 0
1, 676015, Note_on_c, 0, 92, 71
1, 676015, Control_c, 0, 64, 127
1, 676015, Control_c, 0, 67, 43
1, 676021, Note_on_c, 0, 80, 81
1, 676028, Note_on_c, 0, 85, 69
1, 676029, Note_on_c, 0, 37, 82
1, 676030, Note_on_c, 0, 88, 74
1, 676030, Control_c, 0, 67, 44
1, 676060, Control_c, 0, 67, 43
1, 676075, Note_off_c, 0, 80, 60
1, 676075, Control_c, 0, 67, 42
1, 676083, Note_off_c, 0, 92, 67
1, 676088, Note_on_c, 0, 39, 6
1, 676089, Control_c, 0, 67, 42
1, 676099, Note_off_c, 0, 37, 61
1, 676104, Control_c, 0, 67, 41
1, 676108, Note_on_c, 0, 49, 77
1, 676110, Note_off_c, 0, 88, 60
1, 676119, Control_c, 0, 67, 41
1, 676120, Note_off_c, 0, 85, 63
1, 676134, Control_c, 0, 64, 95
1, 676134, Control_c, 0, 67, 40
1, 676142, Note_off_c, 0, 39, 49
1, 676148, Control_c, 0, 64, 60
1, 676148, Control_c, 0, 67, 39
1, 676162, Note_off_c, 0, 49, 64
1, 676163, Control_c, 0, 64, 50
1, 676163, Control_c, 0, 67, 37
1, 676176, Note_on_c, 0, 80, 86
1, 676177, Note_on_c, 0, 92, 93
1, 676178, Note_on_c, 0, 85, 69
1, 676178, Control_c, 0, 64, 70
1, 676178, Control_c, 0, 67, 0
1, 676179, Note_on_c, 0, 88, 74
1, 676191, Note_on_c, 0, 39, 90
1, 676193, Control_c, 0, 64, 127
1, 676197, Note_on_c, 0, 50, 5
1, 676222, Control_c, 0, 67, 36
1, 676235, Note_off_c, 0, 50, 47
1, 676237, Control_c, 0, 67, 41
1, 676252, Note_off_c, 0, 80, 61
1, 676252, Control_c, 0, 67, 43
1, 676260, Note_on_c, 0, 51, 86
1, 676266, Note_off_c, 0, 92, 65
1, 676267, Control_c, 0, 64, 82
1, 676267, Control_c, 0, 67, 45
1, 676278, Note_off_c, 0, 85, 63
1, 676280, Note_off_c, 0, 39, 61
1, 676281, Note_off_c, 0, 88, 64
1, 676281, Control_c, 0, 64, 56
1, 676296, Control_c, 0, 64, 50
1, 676311, Control_c, 0, 64, 65
1, 676311, Control_c, 0, 67, 43
1, 676314, Note_off_c, 0, 51, 64
1, 676325, Control_c, 0, 64, 86
1, 676325, Control_c, 0, 67, 43
1, 676334, Note_on_c, 0, 92, 91
1, 676335, Note_on_c, 0, 88, 76
1, 676336, Note_on_c, 0, 80, 98
1, 676338, Note_on_c, 0, 85, 79
1, 676340, Control_c, 0, 64, 127
1, 676340, Control_c, 0, 67, 42
1, 676346, Note_on_c, 0, 40, 89
1, 676393, Control_c, 0, 67, 43
1, 676417, Note_on_c, 0, 52, 79
1, 676422, Control_c, 0, 67, 43
1, 676423, Note_off_c, 0, 80, 60
1, 676433, Note_off_c, 0, 40, 63
1, 676439, Note_off_c, 0, 92, 66
1, 676450, Note_off_c, 0, 85, 63
1, 676451, Note_off_c, 0, 88, 63
1, 676453, Control_c, 0, 67, 44
1, 676471, Note_off_c, 0, 52, 64
1, 676495, Note_on_c, 0, 42, 100
1, 676498, Control_c, 0, 67, 43
1, 676504, Note_on_c, 0, 92, 91
1, 676506, Note_on_c, 0, 80, 97
1, 676506, Note_on_c, 0, 85, 78
1, 676507, Note_on_c, 0, 88, 73
1, 676542, Control_c, 0, 67, 43
1, 676557, Control_c, 0, 67, 42
1, 676572, Control_c, 0, 67, 41
1, 676575, Note_on_c, 0, 54, 90
1, 676586, Control_c, 0, 67, 40
1, 676596, Note_off_c, 0, 80, 58
1, 676601, Control_c, 0, 67, 39
1, 676602, Note_off_c, 0, 42, 62
1, 676613, Note_off_c, 0, 88, 64
1, 676615, Note_off_c, 0, 92, 65
1, 676616, Control_c, 0, 67, 37
1, 676623, Note_off_c, 0, 85, 62
1, 676630, Control_c, 0, 67, 37
1, 676633, Note_off_c, 0, 54, 64
1, 676645, Control_c, 0, 67, 36
1, 676660, Control_c, 0, 64, 104
1, 676667, Note_on_c, 0, 44, 85
1, 676672, Note_on_c, 0, 92, 90
1, 676675, Control_c, 0, 64, 59
1, 676676, Note_on_c, 0, 85, 81
1, 676677, Note_on_c, 0, 80, 101
1, 676677, Note_on_c, 0, 88, 81
1, 676690, Control_c, 0, 64, 33
1, 676690, Control_c, 0, 67, 35
1, 676704, Control_c, 0, 64, 51
1, 676719, Control_c, 0, 64, 67
1, 676734, Control_c, 0, 64, 90
1, 676743, Note_on_c, 0, 56, 84
1, 676749, Control_c, 0, 64, 127
1, 676758, Note_off_c, 0, 44, 64
1, 676764, Control_c, 0, 67, 36
1, 676765, Note_off_c, 0, 80, 61
1, 676778, Note_off_c, 0, 92, 66
1, 676779, Control_c, 0, 67, 35
1, 676784, Note_off_c, 0, 56, 65
1, 676790, Note_off_c, 0, 88, 63
1, 676791, Note_off_c, 0, 85, 63
1, 676793, Control_c, 0, 67, 35
1, 676808, Control_c, 0, 67, 33
1, 676838, Control_c, 0, 67, 34
1, 676844, Note_on_c, 0, 92, 81
1, 676845, Note_on_c, 0, 80, 91
1, 676846, Note_on_c, 0, 88, 69
1, 676847, Note_on_c, 0, 85, 66
1, 676849, Note_on_c, 0, 39, 95
1, 676853, Control_c, 0, 67, 34
1, 676868, Control_c, 0, 67, 34
1, 676883, Control_c, 0, 64, 72
1, 676883, Control_c, 0, 67, 0
1, 676898, Control_c, 0, 64, 41
1, 676912, Control_c, 0, 64, 33
1, 676921, Note_off_c, 0, 39, 58
1, 676921, Note_off_c, 0, 80, 59
1, 676924, Note_off_c, 0, 92, 66
1, 676927, Control_c, 0, 64, 54
1, 676934, Note_on_c, 0, 51, 88
1, 676942, Control_c, 0, 64, 68
1, 676953, Note_off_c, 0, 85, 62
1, 676956, Control_c, 0, 64, 95
1, 676958, Note_off_c, 0, 88, 64
1, 676971, Control_c, 0, 64, 127
1, 676991, Note_off_c, 0, 51, 63
1, 677020, Note_on_c, 0, 80, 88
1, 677022, Note_on_c, 0, 40, 87
1, 677022, Note_on_c, 0, 88, 67
1, 677024, Note_on_c, 0, 92, 87
1, 677025, Note_on_c, 0, 85, 70
1, 677108, Note_off_c, 0, 80, 59
1, 677112, Note_off_c, 0, 92, 65
1, 677118, Note_on_c, 0, 52, 75
1, 677119, Note_off_c, 0, 40, 62
1, 677136, Note_off_c, 0, 85, 61
1, 677136, Note_off_c, 0, 88, 64
1, 677170, Note_off_c, 0, 52, 64
1, 677171, Control_c, 0, 64, 74
1, 677185, Control_c, 0, 64, 0
1, 677195, Note_on_c, 0, 42, 96
1, 677201, Note_on_c, 0, 80, 94
1, 677201, Note_on_c, 0, 92, 92
1, 677203, Note_on_c, 0, 88, 74
1, 677205, Note_on_c, 0, 85, 75
1, 677215, Control_c, 0, 64, 40
1, 677231, Control_c, 0, 64, 60
1, 677246, Control_c, 0, 64, 79
1, 677260, Control_c, 0, 64, 127
1, 677279, Note_on_c, 0, 54, 85
1, 677291, Note_off_c, 0, 42, 63
1, 677300, Note_off_c, 0, 80, 60
1, 677313, Note_off_c, 0, 92, 64
1, 677327, Note_off_c, 0, 85, 61
1, 677333, Note_off_c, 0, 88, 60
1, 677338, Note_off_c, 0, 54, 61
1, 677374, Note_on_c, 0, 44, 92
1, 677379, Control_c, 0, 64, 96
1, 677390, Note_on_c, 0, 92, 95
1, 677391, Note_on_c, 0, 80, 97
1, 677393, Note_on_c, 0, 88, 76
1, 677394, Note_on_c, 0, 85, 77
1, 677394, Control_c, 0, 64, 59
1, 677408, Control_c, 0, 64, 44
1, 677423, Control_c, 0, 64, 60
1, 677438, Control_c, 0, 64, 78
1, 677452, Control_c, 0, 64, 127
1, 677470, Note_on_c, 0, 56, 89
1, 677478, Note_off_c, 0, 44, 60
1, 677488, Note_off_c, 0, 80, 62
1, 677500, Note_off_c, 0, 92, 65
1, 677509, Note_off_c, 0, 88, 61
1, 677513, Note_off_c, 0, 85, 62
1, 677524, Note_off_c, 0, 56, 61
1, 677571, Control_c, 0, 64, 69
1, 677586, Note_on_c, 0, 92, 98
1, 677586, Control_c, 0, 64, 0
1, 677586, Note_on_c, 0, 80, 96
1, 677592, Note_on_c, 0, 48, 97
1, 677592, Note_on_c, 0, 85, 81
1, 677596, Note_on_c, 0, 88, 75
1, 677616, Control_c, 0, 64, 29
1, 677631, Control_c, 0, 64, 57
1, 677646, Control_c, 0, 64, 77
1, 677660, Control_c, 0, 64, 127
1, 677689, Note_on_c, 0, 60, 81
1, 677696, Note_off_c, 0, 48, 63
1, 677703, Note_off_c, 0, 80, 58
1, 677729, Note_off_c, 0, 85, 57
1, 677729, Note_off_c, 0, 92, 64
1, 677749, Note_off_c, 0, 60, 64
1, 677757, Note_off_c, 0, 88, 48
1, 677778, Control_c, 0, 64, 90
1, 677793, Control_c, 0, 64, 51
1, 677795, Note_on_c, 0, 49, 95
1, 677804, Note_on_c, 0, 92, 93
1, 677808, Note_on_c, 0, 80, 93
1, 677808, Control_c, 0, 64, 0
1, 677809, Note_on_c, 0, 88, 71
1, 677812, Note_on_c, 0, 85, 86
1, 677823, Control_c, 0, 64, 31
1, 677838, Control_c, 0, 64, 53
1, 677860, Control_c, 0, 64, 69
1, 677875, Control_c, 0, 64, 105
1, 677890, Control_c, 0, 64, 127
1, 677903, Note_on_c, 0, 61, 92
1, 677919, Note_off_c, 0, 49, 65
1, 677938, Note_off_c, 0, 80, 55
1, 677971, Note_off_c, 0, 92, 63
1, 677971, Note_off_c, 0, 85, 53
1, 677989, Note_off_c, 0, 61, 59
1, 678024, Control_c, 0, 64, 71
1, 678030, Note_on_c, 0, 51, 82
1, 678035, Note_off_c, 0, 88, 0
1, 678039, Control_c, 0, 64, 33
1, 678043, Note_on_c, 0, 49, 65
1, 678048, Note_on_c, 0, 88, 65
1, 678050, Note_on_c, 0, 80, 96
1, 678050, Note_on_c, 0, 92, 100
1, 678054, Control_c, 0, 64, 0
1, 678057, Note_on_c, 0, 85, 86
1, 678069, Control_c, 0, 64, 38
1, 678072, Note_on_c, 0, 50, 44
1, 678083, Control_c, 0, 64, 58
1, 678087, Note_on_c, 0, 90, 48
1, 678098, Control_c, 0, 64, 73
1, 678105, Note_off_c, 0, 50, 54
1, 678110, Note_off_c, 0, 49, 63
1, 678113, Control_c, 0, 64, 127
1, 678118, Note_off_c, 0, 80, 61
1, 678128, Note_off_c, 0, 88, 65
1, 678135, Note_on_c, 0, 63, 85
1, 678138, Note_off_c, 0, 85, 63
1, 678141, Note_off_c, 0, 90, 58
1, 678147, Note_off_c, 0, 51, 61
1, 678188, Note_off_c, 0, 92, 60
1, 678237, Note_off_c, 0, 63, 48
1, 678409, Control_c, 0, 64, 111
1, 678413, Note_on_c, 0, 61, 89
1, 678415, Note_on_c, 0, 97, 95
1, 678416, Note_on_c, 0, 88, 92
1, 678416, Note_on_c, 0, 92, 91
1, 678418, Note_on_c, 0, 64, 98
1, 678419, Note_on_c, 0, 56, 82
1, 678420, Note_on_c, 0, 85, 104
1, 678421, Note_on_c, 0, 52, 86
1, 678424, Control_c, 0, 64, 68
1, 678439, Control_c, 0, 64, 0
1, 678713, Control_c, 0, 64, 37
1, 678728, Control_c, 0, 64, 55
1, 678743, Control_c, 0, 64, 62
1, 678758, Control_c, 0, 64, 66
1, 678773, Control_c, 0, 64, 72
1, 678788, Control_c, 0, 64, 80
1, 678802, Control_c, 0, 64, 87
1, 678817, Control_c, 0, 64, 96
1, 678832, Control_c, 0, 64, 127
1, 678842, Note_off_c, 0, 85, 59
1, 678886, Note_off_c, 0, 88, 55
1, 678910, Note_off_c, 0, 52, 35
1, 678922, Note_off_c, 0, 92, 60
1, 678930, Note_off_c, 0, 97, 59
1, 678934, Note_off_c, 0, 64, 58
1, 678972, Note_off_c, 0, 61, 61
1, 678982, Note_off_c, 0, 56, 61
1, 679277, Control_c, 0, 64, 123
1, 679292, Control_c, 0, 64, 114
1, 679306, Control_c, 0, 64, 108
1, 679321, Control_c, 0, 64, 103
1, 679336, Control_c, 0, 64, 99
1, 679358, Control_c, 0, 64, 97
1, 679373, Control_c, 0, 64, 95
1, 679388, Control_c, 0, 64, 92
1, 679403, Control_c, 0, 64, 90
1, 679418, Control_c, 0, 64, 87
1, 679432, Control_c, 0, 64, 84
1, 679447, Control_c, 0, 64, 81
1, 679462, Control_c, 0, 64, 79
1, 679477, Control_c, 0, 64, 77
1, 679492, Control_c, 0, 64, 75
1, 679506, Control_c, 0, 64, 74
1, 679521, Control_c, 0, 64, 72
1, 679536, Control_c, 0, 64, 70
1, 679551, Control_c, 0, 64, 69
1, 679566, Control_c, 0, 64, 67
1, 679581, Control_c, 0, 64, 66
1, 679595, Control_c, 0, 64, 65
1, 679610, Control_c, 0, 64, 64
1, 679626, Control_c, 0, 64, 62
1, 679641, Control_c, 0, 64, 60
1, 679655, Control_c, 0, 64, 58
1, 679670, Control_c, 0, 64, 56
1, 679685, Control_c, 0, 64, 52
1, 679700, Control_c, 0, 64, 47
1, 679715, Control_c, 0, 64, 40
1, 679730, Control_c, 0, 64, 29
1, 679745, Control_c, 0, 64, 0
1, 680597, Control_c, 0, 67, 41
1, 680612, Control_c, 0, 67, 56
1, 680627, Control_c, 0, 67, 68
1, 680642, Control_c, 0, 67, 77
1, 680657, Control_c, 0, 67, 85
1, 680671, Control_c, 0, 67, 96
1, 680686, Control_c, 0, 67, 105
1, 680701, Control_c, 0, 67, 112
1, 680716, Control_c, 0, 67, 116
1, 680731, Control_c, 0, 67, 120
1, 680745, Control_c, 0, 67, 124
1, 680760, Control_c, 0, 67, 127
1, 681084, Note_on_c, 0, 60, 35
1, 681444, Note_on_c, 0, 61, 57
1, 681601, Note_off_c, 0, 60, 52
1, 681725, Note_on_c, 0, 63, 69
1, 681809, Note_off_c, 0, 61, 62
1, 681974, Note_on_c, 0, 61, 75
1, 682036, Note_off_c, 0, 63, 60
1, 682380, Note_on_c, 0, 64, 56
1, 682503, Note_off_c, 0, 61, 59
1, 682665, Control_c, 0, 64, 37
1, 682680, Control_c, 0, 64, 54
1, 682694, Control_c, 0, 64, 63
1, 682709, Control_c, 0, 64, 66
1, 682724, Control_c, 0, 64, 71
1, 682739, Control_c, 0, 64, 78
1, 682754, Control_c, 0, 64, 86
1, 682768, Control_c, 0, 64, 96
1, 682783, Control_c, 0, 64, 116
1, 682792, Note_off_c, 0, 64, 64
1, 682798, Control_c, 0, 64, 127
1, 682952, Note_on_c, 0, 63, 66
1, 682979, Note_off_c, 0, 63, 66
1, 683206, Control_c, 0, 67, 120
1, 683211, Note_on_c, 0, 97, 99
1, 683214, Note_on_c, 0, 92, 90
1, 683215, Note_on_c, 0, 49, 84
1, 683215, Note_on_c, 0, 85, 97
1, 683217, Note_on_c, 0, 52, 87
1, 683217, Note_on_c, 0, 88, 89
1, 683221, Control_c, 0, 67, 88
1, 683222, Note_on_c, 0, 40, 78
1, 683223, Note_on_c, 0, 44, 72
1, 683236, Control_c, 0, 64, 90
1, 683236, Control_c, 0, 67, 35
1, 683251, Control_c, 0, 64, 59
1, 683251, Control_c, 0, 67, 0
1, 683266, Control_c, 0, 64, 0
1, 683369, Control_c, 0, 64, 50
1, 683384, Control_c, 0, 64, 65
1, 683399, Control_c, 0, 64, 77
1, 683414, Control_c, 0, 64, 110
1, 683429, Control_c, 0, 64, 127
1, 683547, Note_off_c, 0, 85, 57
1, 683604, Note_off_c, 0, 40, 36
1, 683622, Note_off_c, 0, 88, 53
1, 683673, Note_off_c, 0, 92, 59
1, 683690, Note_off_c, 0, 97, 60
1, 683705, Note_off_c, 0, 44, 61
1, 683724, Note_off_c, 0, 49, 59
1, 683731, Note_off_c, 0, 52, 50
1, 684044, Control_c, 0, 64, 117
1, 684059, Control_c, 0, 64, 109
1, 684074, Control_c, 0, 64, 103
1, 684089, Control_c, 0, 64, 98
1, 684103, Control_c, 0, 64, 95
1, 684118, Control_c, 0, 64, 91
1, 684133, Control_c, 0, 64, 88
1, 684147, Control_c, 0, 64, 86
1, 684162, Control_c, 0, 64, 83
1, 684177, Control_c, 0, 64, 81
1, 684192, Control_c, 0, 64, 79
1, 684207, Control_c, 0, 64, 76
1, 684222, Control_c, 0, 64, 73
1, 684237, Control_c, 0, 64, 70
1, 684252, Control_c, 0, 64, 67
1, 684267, Control_c, 0, 64, 64
1, 684281, Control_c, 0, 64, 63
1, 684296, Control_c, 0, 64, 62
1, 684311, Control_c, 0, 64, 61
1, 684326, Control_c, 0, 64, 61
1, 684340, Control_c, 0, 64, 60
1, 684355, Control_c, 0, 64, 59
1, 684370, Control_c, 0, 64, 58
1, 684385, Control_c, 0, 64, 57
1, 684400, Control_c, 0, 64, 55
1, 684416, Control_c, 0, 64, 54
1, 684430, Control_c, 0, 64, 53
1, 684445, Control_c, 0, 64, 52
1, 684460, Control_c, 0, 64, 49
1, 684475, Control_c, 0, 64, 47
1, 684490, Control_c, 0, 64, 44
1, 684505, Control_c, 0, 64, 40
1, 684519, Control_c, 0, 64, 34
1, 684534, Control_c, 0, 64, 0
1, 685599, Note_on_c, 0, 60, 41
1, 685661, Control_c, 0, 67, 33
1, 685675, Control_c, 0, 67, 34
1, 685690, Control_c, 0, 67, 35
1, 685719, Control_c, 0, 67, 35
1, 685749, Control_c, 0, 67, 36
1, 685779, Control_c, 0, 67, 37
1, 685793, Control_c, 0, 67, 37
1, 685838, Control_c, 0, 67, 38
1, 685942, Control_c, 0, 67, 38
1, 686051, Note_on_c, 0, 61, 55
1, 686128, Control_c, 0, 67, 38
1, 686172, Control_c, 0, 67, 37
1, 686209, Note_off_c, 0, 60, 57
1, 686216, Control_c, 0, 67, 37
1, 686246, Control_c, 0, 67, 36
1, 686291, Control_c, 0, 67, 35
1, 686364, Note_on_c, 0, 63, 58
1, 686365, Control_c, 0, 67, 35
1, 686439, Control_c, 0, 67, 34
1, 686449, Note_off_c, 0, 61, 57
1, 686542, Control_c, 0, 67, 34
1, 686616, Control_c, 0, 67, 33
1, 686624, Note_on_c, 0, 61, 60
1, 686646, Control_c, 0, 67, 0
1, 686668, Note_off_c, 0, 63, 59
1, 686964, Note_on_c, 0, 64, 47
1, 687086, Note_off_c, 0, 61, 55
1, 687708, Note_on_c, 0, 68, 37
1, 687760, Note_off_c, 0, 64, 62
1, 687817, Note_on_c, 0, 62, 42
1, 687870, Note_off_c, 0, 68, 37
1, 688261, Control_c, 0, 67, 33
1, 688276, Control_c, 0, 67, 36
1, 688305, Control_c, 0, 67, 37
1, 688320, Control_c, 0, 67, 39
1, 688342, Control_c, 0, 67, 40
1, 688357, Control_c, 0, 67, 42
1, 688372, Control_c, 0, 64, 29
1, 688372, Control_c, 0, 67, 49
1, 688386, Control_c, 0, 64, 35
1, 688386, Control_c, 0, 67, 91
1, 688401, Control_c, 0, 64, 41
1, 688401, Control_c, 0, 67, 127
1, 688418, Control_c, 0, 64, 48
1, 688433, Control_c, 0, 64, 52
1, 688448, Control_c, 0, 64, 55
1, 688463, Control_c, 0, 64, 56
1, 688478, Control_c, 0, 64, 58
1, 688492, Control_c, 0, 64, 60
1, 688507, Control_c, 0, 64, 62
1, 688522, Control_c, 0, 64, 64
1, 688536, Control_c, 0, 64, 66
1, 688551, Control_c, 0, 64, 69
1, 688566, Control_c, 0, 64, 71
1, 688581, Control_c, 0, 64, 75
1, 688596, Control_c, 0, 64, 79
1, 688610, Control_c, 0, 64, 85
1, 688625, Control_c, 0, 64, 91
1, 688640, Control_c, 0, 64, 98
1, 688655, Control_c, 0, 64, 108
1, 688670, Control_c, 0, 64, 127
1, 688700, Note_on_c, 0, 57, 31
1, 688916, Note_on_c, 0, 56, 42
1, 688947, Note_off_c, 0, 57, 40
1, 689083, Note_on_c, 0, 55, 54
1, 689096, Note_off_c, 0, 56, 56
1, 689223, Note_on_c, 0, 54, 65
1, 689244, Note_off_c, 0, 55, 60
1, 689307, Note_off_c, 0, 54, 63
1, 689325, Note_on_c, 0, 53, 68
1, 689435, Note_on_c, 0, 52, 72
1, 689444, Note_off_c, 0, 53, 61
1, 689527, Note_on_c, 0, 51, 77
1, 689543, Note_off_c, 0, 52, 62
1, 689611, Control_c, 0, 64, 76
1, 689611, Control_c, 0, 67, 112
1, 689618, Note_on_c, 0, 50, 74
1, 689620, Note_off_c, 0, 51, 63
1, 689626, Control_c, 0, 64, 61
1, 689626, Control_c, 0, 67, 91
1, 689641, Control_c, 0, 64, 66
1, 689641, Control_c, 0, 67, 57
1, 689656, Control_c, 0, 64, 77
1, 689656, Control_c, 0, 67, 0
1, 689671, Control_c, 0, 64, 99
1, 689685, Control_c, 0, 64, 127
1, 689700, Note_on_c, 0, 49, 80
1, 689713, Note_off_c, 0, 50, 63
1, 689774, Control_c, 0, 64, 94
1, 689786, Note_off_c, 0, 49, 65
1, 689789, Control_c, 0, 64, 103
1, 689794, Note_on_c, 0, 48, 90
1, 689804, Control_c, 0, 64, 127
1, 689883, Note_on_c, 0, 47, 84
1, 689897, Note_off_c, 0, 48, 61
1, 689900, Control_c, 0, 64, 84
1, 689915, Control_c, 0, 64, 66
1, 689930, Control_c, 0, 64, 75
1, 689945, Control_c, 0, 64, 127
1, 689969, Note_on_c, 0, 46, 86
1, 689987, Note_off_c, 0, 47, 62
1, 690044, Note_off_c, 0, 46, 63
1, 690046, Note_on_c, 0, 45, 87
1, 690110, Note_off_c, 0, 62, 62
1, 690130, Note_on_c, 0, 44, 85
1, 690137, Note_off_c, 0, 45, 62
1, 690214, Note_on_c, 0, 43, 81
1, 690264, Note_off_c, 0, 44, 63
1, 690286, Control_c, 0, 64, 80
1, 690301, Control_c, 0, 64, 76
1, 690303, Note_on_c, 0, 42, 85
1, 690315, Control_c, 0, 64, 127
1, 690325, Note_off_c, 0, 43, 64
1, 690376, Note_on_c, 0, 41, 96
1, 690377, Note_off_c, 0, 42, 64
1, 690470, Note_on_c, 0, 40, 86
1, 690471, Note_off_c, 0, 41, 65
1, 690556, Note_on_c, 0, 39, 93
1, 690571, Note_off_c, 0, 40, 61
1, 690649, Control_c, 0, 64, 123
1, 690664, Control_c, 0, 64, 105
1, 690678, Control_c, 0, 64, 98
1, 690693, Control_c, 0, 64, 93
1, 690708, Control_c, 0, 64, 87
1, 690723, Control_c, 0, 64, 78
1, 690738, Control_c, 0, 64, 66
1, 690753, Control_c, 0, 64, 45
1, 690768, Control_c, 0, 64, 0
1, 690774, Note_on_c, 0, 98, 98
1, 690777, Note_on_c, 0, 90, 93
1, 690777, Note_on_c, 0, 93, 87
1, 690779, Note_on_c, 0, 86, 94
1, 690780, Note_on_c, 0, 38, 96
1, 690794, Note_off_c, 0, 39, 61
1, 691005, Control_c, 0, 64, 38
1, 691020, Control_c, 0, 64, 57
1, 691035, Control_c, 0, 64, 65
1, 691050, Control_c, 0, 64, 72
1, 691065, Control_c, 0, 64, 83
1, 691079, Control_c, 0, 64, 94
1, 691094, Control_c, 0, 64, 112
1, 691109, Control_c, 0, 64, 127
1, 691147, Note_off_c, 0, 38, 56
1, 691179, Note_off_c, 0, 98, 63
1, 691215, Note_off_c, 0, 86, 57
1, 691248, Note_off_c, 0, 93, 43
1, 691279, Note_off_c, 0, 90, 57
1, 691576, Control_c, 0, 64, 109
1, 691591, Control_c, 0, 64, 102
1, 691607, Control_c, 0, 64, 96
1, 691622, Control_c, 0, 64, 91
1, 691636, Control_c, 0, 64, 87
1, 691651, Control_c, 0, 64, 82
1, 691666, Control_c, 0, 64, 79
1, 691681, Control_c, 0, 64, 75
1, 691696, Control_c, 0, 64, 72
1, 691710, Control_c, 0, 64, 69
1, 691725, Control_c, 0, 64, 66
1, 691740, Control_c, 0, 64, 64
1, 691755, Control_c, 0, 64, 62
1, 691769, Control_c, 0, 64, 59
1, 691784, Control_c, 0, 64, 55
1, 691799, Control_c, 0, 64, 52
1, 691814, Control_c, 0, 64, 47
1, 691829, Control_c, 0, 64, 40
1, 691844, Control_c, 0, 64, 33
1, 691859, Control_c, 0, 64, 0
1, 692686, Note_on_c, 0, 61, 46
1, 693045, Note_on_c, 0, 62, 61
1, 693192, Note_off_c, 0, 61, 53
1, 693307, Note_on_c, 0, 64, 70
1, 693407, Note_off_c, 0, 62, 57
1, 693549, Note_on_c, 0, 62, 74
1, 693588, Note_off_c, 0, 64, 64
1, 693943, Note_on_c, 0, 66, 65
1, 694019, Note_off_c, 0, 62, 58
1, 694223, Control_c, 0, 64, 53
1, 694238, Control_c, 0, 64, 61
1, 694253, Control_c, 0, 64, 66
1, 694267, Control_c, 0, 64, 71
1, 694282, Control_c, 0, 64, 81
1, 694297, Control_c, 0, 64, 96
1, 694312, Control_c, 0, 64, 127
1, 694317, Note_off_c, 0, 66, 65
1, 694466, Note_on_c, 0, 64, 72
1, 694488, Note_off_c, 0, 64, 68
1, 694687, Note_on_c, 0, 98, 101
1, 694691, Note_on_c, 0, 90, 88
1, 694692, Note_on_c, 0, 50, 87
1, 694692, Note_on_c, 0, 86, 94
1, 694692, Note_on_c, 0, 93, 85
1, 694694, Note_on_c, 0, 54, 90
1, 694698, Note_on_c, 0, 45, 76
1, 694700, Note_on_c, 0, 42, 88
1, 694705, Control_c, 0, 64, 94
1, 694720, Control_c, 0, 64, 60
1, 694735, Control_c, 0, 64, 0
1, 694825, Control_c, 0, 64, 37
1, 694840, Control_c, 0, 64, 60
1, 694854, Control_c, 0, 64, 71
1, 694869, Control_c, 0, 64, 90
1, 694884, Control_c, 0, 64, 127
1, 695023, Note_off_c, 0, 45, 57
1, 695028, Note_off_c, 0, 86, 57
1, 695031, Note_off_c, 0, 42, 60
1, 695048, Note_off_c, 0, 50, 54
1, 695058, Note_off_c, 0, 98, 64
1, 695081, Note_off_c, 0, 54, 57
1, 695120, Note_off_c, 0, 93, 50
1, 695153, Note_off_c, 0, 90, 54
1, 695350, Control_c, 0, 64, 117
1, 695365, Control_c, 0, 64, 106
1, 695379, Control_c, 0, 64, 100
1, 695394, Control_c, 0, 64, 95
1, 695409, Control_c, 0, 64, 92
1, 695424, Control_c, 0, 64, 89
1, 695439, Control_c, 0, 64, 86
1, 695454, Control_c, 0, 64, 83
1, 695469, Control_c, 0, 64, 80
1, 695484, Control_c, 0, 64, 78
1, 695498, Control_c, 0, 64, 76
1, 695513, Control_c, 0, 64, 74
1, 695528, Control_c, 0, 64, 72
1, 695543, Control_c, 0, 64, 71
1, 695558, Control_c, 0, 64, 69
1, 695572, Control_c, 0, 64, 68
1, 695587, Control_c, 0, 64, 67
1, 695603, Control_c, 0, 64, 66
1, 695618, Control_c, 0, 64, 64
1, 695633, Control_c, 0, 64, 62
1, 695648, Control_c, 0, 64, 61
1, 695663, Control_c, 0, 64, 59
1, 695677, Control_c, 0, 64, 57
1, 695692, Control_c, 0, 64, 54
1, 695707, Control_c, 0, 64, 51
1, 695721, Control_c, 0, 64, 48
1, 695736, Control_c, 0, 64, 44
1, 695751, Control_c, 0, 64, 38
1, 695766, Control_c, 0, 64, 34
1, 695781, Control_c, 0, 64, 29
1, 695795, Control_c, 0, 64, 0
1, 696950, Control_c, 0, 67, 41
1, 696965, Control_c, 0, 67, 50
1, 696980, Control_c, 0, 67, 57
1, 696995, Control_c, 0, 67, 63
1, 697010, Control_c, 0, 67, 69
1, 697025, Control_c, 0, 67, 75
1, 697040, Control_c, 0, 67, 80
1, 697055, Control_c, 0, 67, 85
1, 697069, Control_c, 0, 67, 91
1, 697084, Control_c, 0, 67, 98
1, 697099, Control_c, 0, 67, 103
1, 697114, Control_c, 0, 67, 107
1, 697129, Control_c, 0, 67, 112
1, 697143, Control_c, 0, 67, 119
1, 697158, Control_c, 0, 67, 125
1, 697173, Control_c, 0, 67, 127
1, 697269, Note_on_c, 0, 61, 33
1, 697779, Note_on_c, 0, 62, 42
1, 697902, Note_off_c, 0, 61, 43
1, 698150, Note_on_c, 0, 64, 44
1, 698231, Note_off_c, 0, 62, 37
1, 698461, Note_off_c, 0, 64, 58
1, 698462, Note_on_c, 0, 62, 38
1, 698849, Note_on_c, 0, 66, 43
1, 698990, Note_off_c, 0, 62, 53
1, 699606, Note_on_c, 0, 69, 42
1, 699708, Note_off_c, 0, 66, 37
1, 699735, Note_on_c, 0, 61, 34
1, 699783, Note_off_c, 0, 69, 37
1, 699886, Control_c, 0, 67, 125
1, 699931, Control_c, 0, 67, 123
1, 699946, Control_c, 0, 67, 120
1, 699961, Control_c, 0, 67, 116
1, 699975, Control_c, 0, 67, 110
1, 699990, Control_c, 0, 67, 105
1, 700005, Control_c, 0, 67, 100
1, 700019, Control_c, 0, 67, 94
1, 700034, Control_c, 0, 67, 86
1, 700049, Control_c, 0, 67, 78
1, 700064, Control_c, 0, 67, 64
1, 700079, Control_c, 0, 67, 49
1, 700093, Control_c, 0, 67, 34
1, 700108, Control_c, 0, 67, 0
1, 700423, Note_on_c, 0, 68, 42
1, 700660, Note_off_c, 0, 61, 43
1, 701177, Control_c, 0, 64, 37
1, 701192, Control_c, 0, 64, 46
1, 701207, Control_c, 0, 64, 53
1, 701222, Control_c, 0, 64, 57
1, 701237, Control_c, 0, 64, 59
1, 701252, Control_c, 0, 64, 60
1, 701266, Control_c, 0, 64, 62
1, 701281, Control_c, 0, 64, 64
1, 701296, Control_c, 0, 64, 67
1, 701311, Control_c, 0, 64, 69
1, 701326, Control_c, 0, 64, 72
1, 701340, Control_c, 0, 64, 77
1, 701355, Control_c, 0, 64, 82
1, 701370, Control_c, 0, 64, 88
1, 701385, Control_c, 0, 64, 94
1, 701400, Control_c, 0, 64, 100
1, 701414, Control_c, 0, 64, 107
1, 701429, Control_c, 0, 64, 117
1, 701444, Control_c, 0, 64, 127
1, 701539, Note_on_c, 0, 44, 44
1, 701588, Note_on_c, 0, 49, 55
1, 701631, Note_on_c, 0, 52, 61
1, 701687, Note_on_c, 0, 56, 74
1, 701985, Control_c, 0, 64, 121
1, 702000, Control_c, 0, 64, 116
1, 702015, Control_c, 0, 64, 113
1, 702030, Control_c, 0, 64, 111
1, 702060, Control_c, 0, 64, 108
1, 702074, Control_c, 0, 64, 106
1, 702088, Note_off_c, 0, 44, 37
1, 702089, Control_c, 0, 64, 104
1, 702119, Control_c, 0, 64, 101
1, 702149, Control_c, 0, 64, 98
1, 702173, Note_off_c, 0, 56, 39
1, 702178, Control_c, 0, 64, 95
1, 702193, Control_c, 0, 64, 93
1, 702203, Note_off_c, 0, 49, 32
1, 702208, Note_off_c, 0, 52, 35
1, 702208, Control_c, 0, 64, 92
1, 702222, Control_c, 0, 64, 91
1, 702237, Control_c, 0, 64, 90
1, 702252, Control_c, 0, 64, 89
1, 702267, Control_c, 0, 64, 88
1, 702282, Control_c, 0, 64, 86
1, 702296, Control_c, 0, 64, 85
1, 702311, Control_c, 0, 64, 84
1, 702326, Control_c, 0, 64, 82
1, 702333, Note_off_c, 0, 68, 36
1, 702341, Control_c, 0, 64, 81
1, 702356, Control_c, 0, 64, 80
1, 702370, Control_c, 0, 64, 79
1, 702385, Control_c, 0, 64, 77
1, 702400, Control_c, 0, 64, 76
1, 702414, Control_c, 0, 64, 74
1, 702429, Control_c, 0, 64, 71
1, 702444, Control_c, 0, 64, 69
1, 702459, Control_c, 0, 64, 67
1, 702474, Control_c, 0, 64, 66
1, 702489, Control_c, 0, 64, 64
1, 702504, Control_c, 0, 64, 63
1, 702519, Control_c, 0, 64, 62
1, 702534, Control_c, 0, 64, 60
1, 702548, Control_c, 0, 64, 59
1, 702570, Control_c, 0, 64, 58
1, 702585, Control_c, 0, 64, 56
1, 702600, Control_c, 0, 64, 54
1, 702614, Control_c, 0, 64, 52
1, 702629, Control_c, 0, 64, 50
1, 702644, Control_c, 0, 64, 48
1, 702659, Control_c, 0, 64, 46
1, 702674, Control_c, 0, 64, 42
1, 702688, Control_c, 0, 64, 38
1, 702703, Control_c, 0, 64, 35
1, 702718, Control_c, 0, 64, 33
1, 702733, Control_c, 0, 64, 31
1, 702748, Control_c, 0, 64, 28
1, 702762, Control_c, 0, 64, 0
1, 702789, Note_on_c, 0, 66, 42
1, 703142, Note_on_c, 0, 64, 36
1, 703224, Note_off_c, 0, 66, 62
1, 703303, Note_off_c, 0, 64, 36
1, 703450, Note_on_c, 0, 63, 48
1, 703730, Note_on_c, 0, 61, 50
1, 703824, Note_off_c, 0, 63, 60
1, 703860, Note_off_c, 0, 61, 59
1, 704113, Note_on_c, 0, 60, 44
1, 704775, Note_on_c, 0, 68, 47
1, 705228, Note_off_c, 0, 60, 32
1, 705807, Note_on_c, 0, 72, 44
1, 705845, Note_on_c, 0, 75, 57
1, 705877, Control_c, 0, 64, 35
1, 705892, Control_c, 0, 64, 45
1, 705895, Note_on_c, 0, 78, 61
1, 705906, Control_c, 0, 64, 53
1, 705921, Control_c, 0, 64, 58
1, 705936, Control_c, 0, 64, 60
1, 705941, Note_on_c, 0, 81, 72
1, 705951, Control_c, 0, 64, 62
1, 705965, Control_c, 0, 64, 65
1, 705982, Control_c, 0, 64, 68
1, 705997, Control_c, 0, 64, 72
1, 706011, Control_c, 0, 64, 75
1, 706026, Control_c, 0, 64, 78
1, 706041, Control_c, 0, 64, 81
1, 706055, Control_c, 0, 64, 85
1, 706070, Control_c, 0, 64, 87
1, 706085, Control_c, 0, 64, 89
1, 706100, Control_c, 0, 64, 91
1, 706115, Control_c, 0, 64, 92
1, 706129, Control_c, 0, 64, 92
1, 706144, Control_c, 0, 64, 93
1, 706190, Note_off_c, 0, 72, 35
1, 706251, Note_off_c, 0, 81, 51
1, 706327, Note_off_c, 0, 78, 34
1, 706328, Note_off_c, 0, 75, 39
1, 706330, Control_c, 0, 64, 92
1, 706343, Note_off_c, 0, 68, 33
1, 706359, Control_c, 0, 64, 92
1, 706388, Control_c, 0, 64, 91
1, 706403, Control_c, 0, 64, 91
1, 706418, Control_c, 0, 64, 89
1, 706433, Control_c, 0, 64, 88
1, 706447, Control_c, 0, 64, 87
1, 706462, Control_c, 0, 64, 85
1, 706477, Control_c, 0, 64, 83
1, 706492, Control_c, 0, 64, 81
1, 706507, Control_c, 0, 64, 79
1, 706522, Control_c, 0, 64, 78
1, 706536, Control_c, 0, 64, 76
1, 706551, Control_c, 0, 64, 75
1, 706566, Control_c, 0, 64, 73
1, 706580, Control_c, 0, 64, 72
1, 706595, Control_c, 0, 64, 70
1, 706610, Control_c, 0, 64, 69
1, 706625, Control_c, 0, 64, 68
1, 706640, Control_c, 0, 64, 67
1, 706654, Control_c, 0, 64, 65
1, 706669, Control_c, 0, 64, 64
1, 706679, Note_on_c, 0, 67, 45
1, 706684, Control_c, 0, 64, 63
1, 706699, Control_c, 0, 64, 62
1, 706714, Control_c, 0, 64, 61
1, 706728, Control_c, 0, 64, 60
1, 706743, Control_c, 0, 64, 59
1, 706758, Control_c, 0, 64, 57
1, 706773, Control_c, 0, 64, 55
1, 706789, Control_c, 0, 64, 53
1, 706803, Control_c, 0, 64, 50
1, 706818, Control_c, 0, 64, 47
1, 706833, Control_c, 0, 64, 44
1, 706848, Control_c, 0, 64, 40
1, 706863, Control_c, 0, 64, 36
1, 706877, Control_c, 0, 64, 29
1, 706892, Control_c, 0, 64, 0
1, 707060, Note_on_c, 0, 68, 40
1, 707159, Note_off_c, 0, 67, 58
1, 707210, Note_off_c, 0, 68, 55
1, 707347, Note_on_c, 0, 66, 64
1, 707625, Note_on_c, 0, 63, 59
1, 707758, Note_off_c, 0, 66, 59
1, 707778, Note_off_c, 0, 63, 58
1, 707947, Note_on_c, 0, 64, 57
1, 708242, Control_c, 0, 64, 27
1, 708331, Control_c, 0, 64, 29
1, 708599, Note_on_c, 0, 68, 61
1, 709110, Note_off_c, 0, 64, 28
1, 709399, Control_c, 0, 64, 31
1, 709413, Control_c, 0, 64, 32
1, 709428, Control_c, 0, 64, 33
1, 709443, Control_c, 0, 64, 35
1, 709458, Control_c, 0, 64, 38
1, 709473, Control_c, 0, 64, 41
1, 709488, Control_c, 0, 64, 44
1, 709503, Control_c, 0, 64, 47
1, 709518, Control_c, 0, 64, 50
1, 709533, Control_c, 0, 64, 54
1, 709545, Note_on_c, 0, 44, 44
1, 709548, Control_c, 0, 64, 57
1, 709562, Control_c, 0, 64, 59
1, 709577, Control_c, 0, 64, 61
1, 709592, Control_c, 0, 64, 62
1, 709592, Note_on_c, 0, 49, 54
1, 709606, Control_c, 0, 64, 63
1, 709621, Control_c, 0, 64, 65
1, 709636, Control_c, 0, 64, 67
1, 709648, Note_on_c, 0, 52, 63
1, 709651, Control_c, 0, 64, 70
1, 709666, Control_c, 0, 64, 72
1, 709680, Control_c, 0, 64, 75
1, 709695, Control_c, 0, 64, 80
1, 709702, Note_on_c, 0, 56, 78
1, 709710, Control_c, 0, 64, 85
1, 709725, Control_c, 0, 64, 91
1, 709740, Control_c, 0, 64, 96
1, 709754, Control_c, 0, 64, 102
1, 709769, Control_c, 0, 64, 109
1, 709784, Control_c, 0, 64, 117
1, 709798, Control_c, 0, 64, 127
1, 710063, Note_off_c, 0, 68, 29
1, 710191, Note_off_c, 0, 56, 49
1, 710192, Control_c, 0, 64, 123
1, 710195, Note_off_c, 0, 44, 32
1, 710207, Control_c, 0, 64, 118
1, 710222, Control_c, 0, 64, 116
1, 710236, Control_c, 0, 64, 112
1, 710241, Note_off_c, 0, 52, 36
1, 710251, Note_off_c, 0, 49, 37
1, 710251, Control_c, 0, 64, 108
1, 710266, Control_c, 0, 64, 106
1, 710281, Control_c, 0, 64, 103
1, 710296, Control_c, 0, 64, 100
1, 710311, Control_c, 0, 64, 97
1, 710326, Control_c, 0, 64, 94
1, 710340, Control_c, 0, 64, 92
1, 710355, Control_c, 0, 64, 89
1, 710370, Control_c, 0, 64, 87
1, 710385, Control_c, 0, 64, 84
1, 710390, Note_on_c, 0, 66, 57
1, 710400, Control_c, 0, 64, 82
1, 710415, Control_c, 0, 64, 80
1, 710429, Control_c, 0, 64, 78
1, 710444, Control_c, 0, 64, 75
1, 710459, Control_c, 0, 64, 73
1, 710474, Control_c, 0, 64, 70
1, 710489, Control_c, 0, 64, 67
1, 710503, Control_c, 0, 64, 64
1, 710518, Control_c, 0, 64, 61
1, 710533, Control_c, 0, 64, 57
1, 710547, Control_c, 0, 64, 52
1, 710562, Control_c, 0, 64, 48
1, 710577, Control_c, 0, 64, 42
1, 710578, Note_on_c, 0, 68, 60
1, 710592, Control_c, 0, 64, 35
1, 710597, Note_off_c, 0, 66, 62
1, 710607, Control_c, 0, 64, 0
1, 710716, Note_on_c, 0, 66, 68
1, 710808, Note_off_c, 0, 68, 56
1, 710841, Note_on_c, 0, 64, 72
1, 710847, Note_off_c, 0, 66, 64
1, 710951, Note_on_c, 0, 63, 76
1, 710961, Note_off_c, 0, 64, 56
1, 711054, Note_off_c, 0, 63, 64
1, 711059, Note_on_c, 0, 64, 78
1, 711158, Note_on_c, 0, 63, 79
1, 711194, Note_off_c, 0, 64, 61
1, 711263, Note_on_c, 0, 61, 75
1, 711286, Note_off_c, 0, 63, 61
1, 711351, Note_off_c, 0, 61, 61
1, 711433, Note_on_c, 0, 60, 72
1, 712052, Note_on_c, 0, 68, 67
1, 712585, Note_off_c, 0, 60, 35
1, 712986, Control_c, 0, 64, 29
1, 713001, Control_c, 0, 64, 35
1, 713015, Control_c, 0, 64, 41
1, 713030, Control_c, 0, 64, 47
1, 713053, Control_c, 0, 64, 52
1, 713068, Control_c, 0, 64, 54
1, 713072, Note_on_c, 0, 72, 51
1, 713083, Control_c, 0, 64, 56
1, 713097, Control_c, 0, 64, 57
1, 713112, Control_c, 0, 64, 59
1, 713120, Note_on_c, 0, 75, 63
1, 713126, Control_c, 0, 64, 61
1, 713141, Control_c, 0, 64, 63
1, 713155, Control_c, 0, 64, 64
1, 713171, Control_c, 0, 64, 66
1, 713177, Note_on_c, 0, 78, 70
1, 713186, Control_c, 0, 64, 67
1, 713201, Control_c, 0, 64, 70
1, 713216, Control_c, 0, 64, 72
1, 713228, Note_on_c, 0, 81, 77
1, 713231, Control_c, 0, 64, 75
1, 713245, Control_c, 0, 64, 79
1, 713260, Control_c, 0, 64, 82
1, 713275, Control_c, 0, 64, 84
1, 713290, Control_c, 0, 64, 88
1, 713305, Control_c, 0, 64, 92
1, 713319, Control_c, 0, 64, 95
1, 713334, Control_c, 0, 64, 98
1, 713349, Control_c, 0, 64, 100
1, 713378, Control_c, 0, 64, 102
1, 713541, Note_off_c, 0, 68, 46
1, 713653, Note_off_c, 0, 72, 23
1, 713687, Note_off_c, 0, 81, 40
1, 713739, Note_off_c, 0, 75, 39
1, 713749, Control_c, 0, 64, 99
1, 713757, Note_off_c, 0, 78, 35
1, 713778, Control_c, 0, 64, 97
1, 713809, Note_on_c, 0, 67, 63
1, 713816, Control_c, 0, 64, 95
1, 713831, Control_c, 0, 64, 94
1, 713845, Control_c, 0, 64, 93
1, 713860, Control_c, 0, 64, 92
1, 713876, Control_c, 0, 64, 90
1, 713891, Control_c, 0, 64, 89
1, 713906, Control_c, 0, 64, 87
1, 713920, Control_c, 0, 64, 85
1, 713935, Control_c, 0, 64, 83
1, 713950, Control_c, 0, 64, 81
1, 713965, Control_c, 0, 64, 80
1, 713980, Control_c, 0, 64, 79
1, 713989, Note_on_c, 0, 68, 70
1, 713995, Control_c, 0, 64, 78
1, 714010, Control_c, 0, 64, 77
1, 714025, Control_c, 0, 64, 76
1, 714040, Control_c, 0, 64, 75
1, 714055, Control_c, 0, 64, 74
1, 714069, Control_c, 0, 64, 72
1, 714084, Control_c, 0, 64, 71
1, 714099, Control_c, 0, 64, 70
1, 714100, Note_off_c, 0, 67, 37
1, 714114, Control_c, 0, 64, 69
1, 714126, Note_on_c, 0, 69, 75
1, 714129, Control_c, 0, 64, 67
1, 714134, Note_off_c, 0, 68, 63
1, 714143, Control_c, 0, 64, 66
1, 714158, Control_c, 0, 64, 64
1, 714173, Control_c, 0, 64, 63
1, 714188, Control_c, 0, 64, 62
1, 714202, Control_c, 0, 64, 61
1, 714217, Control_c, 0, 64, 60
1, 714232, Control_c, 0, 64, 59
1, 714245, Note_on_c, 0, 68, 70
1, 714247, Control_c, 0, 64, 58
1, 714262, Control_c, 0, 64, 56
1, 714276, Control_c, 0, 64, 53
1, 714291, Control_c, 0, 64, 49
1, 714302, Note_off_c, 0, 69, 54
1, 714306, Control_c, 0, 64, 45
1, 714321, Control_c, 0, 64, 38
1, 714336, Control_c, 0, 64, 0
1, 714387, Note_on_c, 0, 67, 63
1, 714387, Note_off_c, 0, 68, 61
1, 714522, Note_on_c, 0, 68, 56
1, 714606, Note_off_c, 0, 67, 38
1, 714700, Note_on_c, 0, 66, 58
1, 714718, Note_off_c, 0, 68, 48
1, 714874, Note_on_c, 0, 63, 54
1, 714878, Note_off_c, 0, 66, 62
1, 715027, Note_off_c, 0, 63, 50
1, 715242, Note_on_c, 0, 61, 41
1, 716191, Note_on_c, 0, 68, 38
1, 716390, Note_off_c, 0, 61, 34
1, 716538, Control_c, 0, 67, 41
1, 716553, Control_c, 0, 67, 72
1, 716568, Control_c, 0, 67, 97
1, 716583, Control_c, 0, 64, 29
1, 716583, Control_c, 0, 67, 115
1, 716597, Control_c, 0, 64, 34
1, 716597, Control_c, 0, 67, 127
1, 716612, Control_c, 0, 64, 40
1, 716627, Control_c, 0, 64, 46
1, 716642, Control_c, 0, 64, 51
1, 716657, Control_c, 0, 64, 54
1, 716671, Control_c, 0, 64, 55
1, 716686, Control_c, 0, 64, 56
1, 716701, Control_c, 0, 64, 58
1, 716715, Control_c, 0, 64, 59
1, 716730, Control_c, 0, 64, 60
1, 716745, Control_c, 0, 64, 60
1, 716760, Control_c, 0, 64, 61
1, 716775, Control_c, 0, 64, 63
1, 716797, Control_c, 0, 64, 64
1, 716812, Control_c, 0, 64, 65
1, 716827, Control_c, 0, 64, 66
1, 716842, Control_c, 0, 64, 67
1, 716857, Control_c, 0, 64, 69
1, 716870, Control_c, 0, 64, 72
1, 716885, Control_c, 0, 64, 74
1, 716900, Control_c, 0, 64, 76
1, 716914, Control_c, 0, 64, 78
1, 716929, Control_c, 0, 64, 80
1, 716944, Control_c, 0, 64, 82
1, 716959, Control_c, 0, 64, 84
1, 716974, Control_c, 0, 64, 86
1, 716988, Control_c, 0, 64, 88
1, 717003, Control_c, 0, 64, 90
1, 717018, Control_c, 0, 64, 91
1, 717033, Control_c, 0, 64, 92
1, 717048, Control_c, 0, 64, 93
1, 717221, Note_on_c, 0, 44, 29
1, 717331, Control_c, 0, 64, 92
1, 717383, Note_on_c, 0, 49, 21
1, 717390, Control_c, 0, 64, 92
1, 717493, Control_c, 0, 64, 91
1, 717545, Note_on_c, 0, 53, 34
1, 717753, Control_c, 0, 64, 91
1, 717823, Note_on_c, 0, 56, 39
1, 717886, Control_c, 0, 64, 90
1, 717961, Control_c, 0, 64, 90
1, 718021, Control_c, 0, 64, 89
1, 718022, Note_off_c, 0, 56, 35
1, 718095, Control_c, 0, 64, 89
1, 718130, Note_off_c, 0, 44, 31
1, 718139, Control_c, 0, 64, 88
1, 718143, Note_off_c, 0, 53, 31
1, 718198, Control_c, 0, 64, 88
1, 718228, Control_c, 0, 64, 87
1, 718235, Note_off_c, 0, 49, 31
1, 718258, Control_c, 0, 64, 87
1, 718324, Control_c, 0, 64, 86
1, 718368, Control_c, 0, 64, 86
1, 718413, Control_c, 0, 64, 85
1, 718443, Control_c, 0, 64, 85
1, 718472, Control_c, 0, 64, 84
1, 718502, Control_c, 0, 64, 84
1, 718517, Control_c, 0, 64, 83
1, 718532, Control_c, 0, 64, 83
1, 718558, Note_off_c, 0, 68, 34
1, 718561, Control_c, 0, 64, 82
1, 718591, Control_c, 0, 64, 82
1, 718606, Control_c, 0, 64, 81
1, 718621, Control_c, 0, 64, 81
1, 718635, Control_c, 0, 64, 80
1, 718665, Control_c, 0, 64, 79
1, 718680, Control_c, 0, 64, 79
1, 718694, Control_c, 0, 64, 78
1, 718709, Control_c, 0, 64, 77
1, 718724, Control_c, 0, 64, 76
1, 718739, Control_c, 0, 64, 75
1, 718754, Control_c, 0, 64, 74
1, 718770, Control_c, 0, 64, 72
1, 718784, Control_c, 0, 64, 71
1, 718799, Control_c, 0, 64, 70
1, 718814, Control_c, 0, 64, 68
1, 718829, Control_c, 0, 64, 66
1, 718844, Control_c, 0, 64, 65
1, 718858, Control_c, 0, 64, 64
1, 718873, Control_c, 0, 64, 63
1, 718888, Control_c, 0, 64, 62
1, 718903, Control_c, 0, 64, 62
1, 718918, Control_c, 0, 64, 61
1, 718932, Control_c, 0, 64, 60
1, 718947, Control_c, 0, 64, 59
1, 718962, Control_c, 0, 64, 59
1, 718991, Control_c, 0, 64, 58
1, 719006, Control_c, 0, 64, 57
1, 719021, Control_c, 0, 64, 56
1, 719044, Control_c, 0, 64, 55
1, 719059, Control_c, 0, 64, 54
1, 719073, Control_c, 0, 64, 53
1, 719088, Control_c, 0, 64, 52
1, 719103, Control_c, 0, 64, 51
1, 719113, Note_on_c, 0, 66, 45
1, 719117, Control_c, 0, 64, 49
1, 719132, Control_c, 0, 64, 47
1, 719147, Control_c, 0, 64, 44
1, 719162, Control_c, 0, 64, 41
1, 719177, Control_c, 0, 64, 37
1, 719191, Control_c, 0, 64, 34
1, 719206, Control_c, 0, 64, 29
1, 719221, Control_c, 0, 64, 0
1, 719563, Note_on_c, 0, 65, 39
1, 719671, Note_off_c, 0, 66, 61
1, 719718, Note_off_c, 0, 65, 52
1, 719903, Note_on_c, 0, 63, 49
1, 720204, Note_on_c, 0, 61, 44
1, 720297, Note_off_c, 0, 63, 59
1, 720368, Note_off_c, 0, 61, 59
1, 720589, Note_on_c, 0, 60, 46
1, 721140, Note_on_c, 0, 69, 50
1, 721366, Note_off_c, 0, 60, 39
1, 721680, Note_on_c, 0, 70, 63
1, 721790, Note_off_c, 0, 69, 59
1, 722164, Note_on_c, 0, 75, 41
1, 722238, Note_on_c, 0, 78, 40
1, 722276, Control_c, 0, 64, 30
1, 722291, Control_c, 0, 64, 37
1, 722306, Control_c, 0, 64, 44
1, 722321, Control_c, 0, 64, 49
1, 722335, Control_c, 0, 64, 53
1, 722350, Control_c, 0, 64, 56
1, 722365, Control_c, 0, 64, 57
1, 722380, Control_c, 0, 64, 59
1, 722395, Control_c, 0, 64, 60
1, 722409, Control_c, 0, 64, 61
1, 722424, Control_c, 0, 64, 62
1, 722439, Control_c, 0, 64, 63
1, 722454, Control_c, 0, 64, 64
1, 722468, Note_on_c, 0, 84, 58
1, 722469, Control_c, 0, 64, 65
1, 722483, Control_c, 0, 64, 67
1, 722483, Control_c, 0, 67, 109
1, 722498, Control_c, 0, 64, 68
1, 722498, Control_c, 0, 67, 93
1, 722513, Control_c, 0, 64, 70
1, 722513, Control_c, 0, 67, 76
1, 722527, Control_c, 0, 64, 72
1, 722527, Control_c, 0, 67, 57
1, 722542, Control_c, 0, 64, 73
1, 722542, Control_c, 0, 67, 38
1, 722557, Control_c, 0, 64, 75
1, 722557, Control_c, 0, 67, 0
1, 722572, Control_c, 0, 64, 77
1, 722587, Control_c, 0, 64, 79
1, 722601, Control_c, 0, 64, 80
1, 722616, Control_c, 0, 64, 81
1, 722628, Note_off_c, 0, 75, 37
1, 722631, Control_c, 0, 64, 82
1, 722646, Control_c, 0, 64, 83
1, 722658, Note_off_c, 0, 84, 45
1, 722661, Control_c, 0, 64, 84
1, 722690, Control_c, 0, 64, 84
1, 722705, Note_off_c, 0, 78, 30
1, 722995, Control_c, 0, 64, 84
1, 723025, Control_c, 0, 64, 83
1, 723054, Control_c, 0, 64, 83
1, 723069, Control_c, 0, 64, 82
1, 723099, Control_c, 0, 64, 82
1, 723114, Control_c, 0, 64, 81
1, 723129, Control_c, 0, 64, 81
1, 723143, Control_c, 0, 64, 80
1, 723158, Control_c, 0, 64, 80
1, 723173, Control_c, 0, 64, 79
1, 723188, Control_c, 0, 64, 78
1, 723203, Control_c, 0, 64, 78
1, 723218, Control_c, 0, 64, 77
1, 723232, Control_c, 0, 64, 76
1, 723247, Control_c, 0, 64, 76
1, 723262, Control_c, 0, 64, 75
1, 723276, Control_c, 0, 64, 74
1, 723291, Control_c, 0, 64, 73
1, 723306, Control_c, 0, 64, 71
1, 723321, Control_c, 0, 64, 70
1, 723336, Control_c, 0, 64, 68
1, 723350, Control_c, 0, 64, 67
1, 723365, Control_c, 0, 64, 65
1, 723380, Control_c, 0, 64, 63
1, 723395, Control_c, 0, 64, 60
1, 723410, Control_c, 0, 64, 56
1, 723424, Control_c, 0, 64, 53
1, 723439, Control_c, 0, 64, 49
1, 723454, Control_c, 0, 64, 43
1, 723469, Control_c, 0, 64, 34
1, 723483, Control_c, 0, 64, 0
1, 723655, Control_c, 0, 64, 30
1, 723670, Control_c, 0, 64, 40
1, 723685, Control_c, 0, 64, 50
1, 723700, Control_c, 0, 64, 56
1, 723714, Control_c, 0, 64, 59
1, 723729, Control_c, 0, 64, 60
1, 723744, Control_c, 0, 64, 62
1, 723744, Control_c, 0, 67, 52
1, 723759, Control_c, 0, 64, 63
1, 723759, Control_c, 0, 67, 83
1, 723774, Control_c, 0, 64, 64
1, 723774, Control_c, 0, 67, 109
1, 723788, Control_c, 0, 64, 66
1, 723788, Control_c, 0, 67, 127
1, 723803, Control_c, 0, 64, 67
1, 723818, Control_c, 0, 64, 68
1, 723833, Control_c, 0, 64, 69
1, 723848, Control_c, 0, 64, 70
1, 723862, Control_c, 0, 64, 71
1, 723892, Control_c, 0, 64, 71
1, 724009, Note_on_c, 0, 44, 28
1, 724110, Note_on_c, 0, 51, 37
1, 724204, Note_on_c, 0, 56, 37
1, 724390, Control_c, 0, 64, 71
1, 724394, Note_on_c, 0, 60, 48
1, 724464, Control_c, 0, 64, 70
1, 724509, Control_c, 0, 64, 70
1, 724515, Note_off_c, 0, 44, 33
1, 724538, Control_c, 0, 64, 69
1, 724549, Note_off_c, 0, 51, 27
1, 724583, Control_c, 0, 64, 69
1, 724616, Note_off_c, 0, 56, 36
1, 724642, Control_c, 0, 64, 68
1, 724686, Control_c, 0, 64, 68
1, 724745, Control_c, 0, 64, 67
1, 724804, Control_c, 0, 64, 67
1, 724834, Control_c, 0, 64, 66
1, 724908, Control_c, 0, 64, 66
1, 724983, Control_c, 0, 64, 65
1, 725034, Control_c, 0, 64, 65
1, 725052, Note_off_c, 0, 60, 40
1, 725078, Control_c, 0, 64, 64
1, 725107, Control_c, 0, 64, 64
1, 725167, Control_c, 0, 64, 63
1, 725241, Control_c, 0, 64, 63
1, 725300, Control_c, 0, 64, 62
1, 725330, Control_c, 0, 64, 62
1, 725359, Control_c, 0, 64, 61
1, 725419, Control_c, 0, 64, 61
1, 725492, Control_c, 0, 64, 60
1, 725552, Control_c, 0, 64, 60
1, 725582, Control_c, 0, 64, 59
1, 725626, Control_c, 0, 64, 59
1, 725641, Control_c, 0, 64, 58
1, 725656, Control_c, 0, 64, 58
1, 725685, Control_c, 0, 64, 57
1, 725700, Control_c, 0, 64, 56
1, 725715, Control_c, 0, 64, 56
1, 725730, Control_c, 0, 64, 55
1, 725759, Control_c, 0, 64, 55
1, 725782, Control_c, 0, 64, 54
1, 725796, Control_c, 0, 64, 53
1, 725811, Control_c, 0, 64, 53
1, 725841, Control_c, 0, 64, 52
1, 725856, Control_c, 0, 64, 52
1, 725871, Control_c, 0, 64, 51
1, 725885, Control_c, 0, 64, 50
1, 725900, Control_c, 0, 64, 50
1, 725915, Control_c, 0, 64, 49
1, 725930, Control_c, 0, 64, 48
1, 725945, Control_c, 0, 64, 48
1, 725960, Control_c, 0, 64, 47
1, 725975, Control_c, 0, 64, 46
1, 725990, Control_c, 0, 64, 45
1, 726005, Control_c, 0, 64, 45
1, 726020, Control_c, 0, 64, 44
1, 726049, Control_c, 0, 64, 44
1, 726064, Control_c, 0, 64, 43
1, 726079, Control_c, 0, 64, 43
1, 726123, Control_c, 0, 64, 42
1, 726153, Control_c, 0, 64, 42
1, 726168, Control_c, 0, 64, 41
1, 726197, Control_c, 0, 64, 41
1, 726242, Control_c, 0, 64, 40
1, 726271, Control_c, 0, 64, 40
1, 726345, Control_c, 0, 64, 39
1, 726390, Control_c, 0, 64, 39
1, 726434, Control_c, 0, 64, 38
1, 726704, Note_on_c, 0, 68, 44
1, 726852, Note_off_c, 0, 70, 48
1, 727410, Note_on_c, 0, 66, 34
1, 727427, Control_c, 0, 64, 38
1, 727506, Note_off_c, 0, 68, 36
1, 727621, Control_c, 0, 64, 37
1, 727701, Note_off_c, 0, 66, 38
1, 727769, Control_c, 0, 64, 37
1, 728072, Control_c, 0, 64, 36
1, 728280, Control_c, 0, 64, 36
1, 729002, Note_on_c, 0, 65, 39
1, 729222, Control_c, 0, 64, 35
1, 729791, Note_on_c, 0, 63, 32
1, 729902, Note_off_c, 0, 65, 36
1, 730138, Note_off_c, 0, 63, 41
1, 730542, Control_c, 0, 64, 36
1, 730557, Control_c, 0, 64, 36
1, 730572, Control_c, 0, 64, 37
1, 730587, Control_c, 0, 64, 38
1, 730601, Control_c, 0, 64, 40
1, 730616, Control_c, 0, 64, 42
1, 730631, Control_c, 0, 64, 44
1, 730646, Control_c, 0, 64, 47
1, 730661, Control_c, 0, 64, 49
1, 730675, Control_c, 0, 64, 51
1, 730690, Control_c, 0, 64, 54
1, 730705, Control_c, 0, 64, 55
1, 730720, Control_c, 0, 64, 57
1, 730735, Control_c, 0, 64, 58
1, 730751, Control_c, 0, 64, 60
1, 730765, Control_c, 0, 64, 61
1, 730780, Control_c, 0, 64, 62
1, 730795, Control_c, 0, 64, 63
1, 730810, Control_c, 0, 64, 64
1, 730825, Control_c, 0, 64, 65
1, 730839, Control_c, 0, 64, 66
1, 730854, Control_c, 0, 64, 68
1, 730869, Control_c, 0, 64, 70
1, 730884, Control_c, 0, 64, 71
1, 730898, Control_c, 0, 64, 72
1, 730913, Control_c, 0, 64, 74
1, 730928, Control_c, 0, 64, 75
1, 730943, Control_c, 0, 64, 77
1, 730958, Control_c, 0, 64, 79
1, 730972, Control_c, 0, 64, 80
1, 730987, Control_c, 0, 64, 82
1, 731002, Control_c, 0, 64, 83
1, 731025, Control_c, 0, 64, 84
1, 731040, Control_c, 0, 64, 84
1, 731054, Control_c, 0, 64, 85
1, 731084, Control_c, 0, 64, 85
1, 731892, Note_on_c, 0, 61, 44
1, 731974, Note_on_c, 0, 37, 36
1, 731980, Control_c, 0, 64, 85
1, 732113, Control_c, 0, 64, 84
1, 732217, Control_c, 0, 64, 84
1, 732291, Control_c, 0, 64, 83
1, 732381, Control_c, 0, 64, 83
1, 732524, Note_on_c, 0, 53, 28
1, 732560, Note_off_c, 0, 37, 35
1, 732581, Control_c, 0, 64, 82
1, 732699, Control_c, 0, 64, 82
1, 732773, Control_c, 0, 64, 81
1, 732832, Control_c, 0, 64, 81
1, 732837, Note_on_c, 0, 56, 38
1, 732876, Control_c, 0, 64, 80
1, 732902, Note_off_c, 0, 53, 38
1, 732906, Control_c, 0, 64, 80
1, 732936, Control_c, 0, 64, 79
1, 732966, Control_c, 0, 64, 79
1, 732995, Control_c, 0, 64, 78
1, 733025, Control_c, 0, 64, 78
1, 733040, Control_c, 0, 64, 77
1, 733069, Control_c, 0, 64, 77
1, 733084, Control_c, 0, 64, 76
1, 733099, Control_c, 0, 64, 76
1, 733114, Control_c, 0, 64, 75
1, 733125, Note_on_c, 0, 53, 37
1, 733129, Control_c, 0, 64, 75
1, 733138, Note_off_c, 0, 56, 34
1, 733159, Control_c, 0, 64, 74
1, 733174, Control_c, 0, 64, 74
1, 733189, Control_c, 0, 64, 73
1, 733204, Control_c, 0, 64, 73
1, 733219, Control_c, 0, 64, 72
1, 733234, Control_c, 0, 64, 72
1, 733248, Control_c, 0, 64, 71
1, 733270, Control_c, 0, 64, 71
1, 733299, Control_c, 0, 64, 70
1, 733329, Control_c, 0, 64, 70
1, 733360, Control_c, 0, 64, 69
1, 733404, Control_c, 0, 64, 69
1, 733414, Note_on_c, 0, 56, 37
1, 733434, Control_c, 0, 64, 68
1, 733448, Control_c, 0, 64, 67
1, 733463, Control_c, 0, 64, 66
1, 733475, Note_off_c, 0, 53, 33
1, 733478, Control_c, 0, 64, 65
1, 733493, Control_c, 0, 64, 63
1, 733508, Control_c, 0, 64, 60
1, 733523, Control_c, 0, 64, 55
1, 733538, Control_c, 0, 64, 54
1, 733567, Control_c, 0, 64, 54
1, 733582, Control_c, 0, 64, 56
1, 733597, Control_c, 0, 64, 58
1, 733611, Control_c, 0, 64, 60
1, 733626, Control_c, 0, 64, 62
1, 733641, Control_c, 0, 64, 63
1, 733656, Control_c, 0, 64, 65
1, 733671, Control_c, 0, 64, 67
1, 733685, Control_c, 0, 64, 68
1, 733700, Control_c, 0, 64, 70
1, 733715, Note_on_c, 0, 49, 34
1, 733715, Control_c, 0, 64, 71
1, 733730, Control_c, 0, 64, 72
1, 733745, Control_c, 0, 64, 73
1, 733759, Control_c, 0, 64, 74
1, 733774, Control_c, 0, 64, 74
1, 733789, Control_c, 0, 64, 75
1, 733804, Control_c, 0, 64, 75
1, 733818, Control_c, 0, 64, 76
1, 733833, Control_c, 0, 64, 76
1, 733842, Note_off_c, 0, 56, 39
1, 733863, Control_c, 0, 64, 77
1, 733873, Note_off_c, 0, 61, 54
1, 733893, Control_c, 0, 64, 77
1, 733913, Note_off_c, 0, 49, 25
1, 734065, Note_on_c, 0, 61, 55
1, 734139, Note_on_c, 0, 34, 56
1, 734212, Control_c, 0, 64, 77
1, 734227, Control_c, 0, 64, 76
1, 734241, Control_c, 0, 64, 75
1, 734256, Control_c, 0, 64, 74
1, 734271, Control_c, 0, 64, 71
1, 734286, Control_c, 0, 64, 67
1, 734301, Control_c, 0, 64, 62
1, 734316, Control_c, 0, 64, 54
1, 734331, Control_c, 0, 64, 49
1, 734346, Control_c, 0, 64, 49
1, 734361, Control_c, 0, 64, 50
1, 734376, Control_c, 0, 64, 52
1, 734390, Control_c, 0, 64, 55
1, 734405, Control_c, 0, 64, 57
1, 734420, Control_c, 0, 64, 60
1, 734434, Control_c, 0, 64, 62
1, 734449, Control_c, 0, 64, 63
1, 734464, Control_c, 0, 64, 65
1, 734479, Control_c, 0, 64, 67
1, 734494, Control_c, 0, 64, 69
1, 734506, Note_on_c, 0, 54, 31
1, 734508, Control_c, 0, 64, 71
1, 734523, Control_c, 0, 64, 72
1, 734538, Control_c, 0, 64, 73
1, 734568, Control_c, 0, 64, 73
1, 734668, Note_off_c, 0, 34, 33
1, 734811, Note_on_c, 0, 58, 41
1, 734848, Note_off_c, 0, 54, 28
1, 735094, Control_c, 0, 64, 73
1, 735102, Note_on_c, 0, 54, 40
1, 735127, Note_off_c, 0, 58, 37
1, 735154, Control_c, 0, 64, 72
1, 735183, Control_c, 0, 64, 72
1, 735228, Control_c, 0, 64, 71
1, 735243, Control_c, 0, 64, 71
1, 735272, Control_c, 0, 64, 70
1, 735287, Control_c, 0, 64, 70
1, 735302, Control_c, 0, 64, 69
1, 735317, Control_c, 0, 64, 69
1, 735331, Control_c, 0, 64, 68
1, 735346, Control_c, 0, 64, 67
1, 735361, Control_c, 0, 64, 67
1, 735376, Control_c, 0, 64, 66
1, 735390, Control_c, 0, 64, 65
1, 735392, Note_on_c, 0, 58, 40
1, 735403, Note_off_c, 0, 54, 37
1, 735405, Control_c, 0, 64, 65
1, 735420, Control_c, 0, 64, 64
1, 735435, Control_c, 0, 64, 63
1, 735450, Control_c, 0, 64, 61
1, 735464, Control_c, 0, 64, 59
1, 735479, Control_c, 0, 64, 57
1, 735494, Control_c, 0, 64, 54
1, 735517, Control_c, 0, 64, 51
1, 735532, Control_c, 0, 64, 51
1, 735547, Control_c, 0, 64, 51
1, 735562, Control_c, 0, 64, 52
1, 735577, Control_c, 0, 64, 54
1, 735591, Control_c, 0, 64, 57
1, 735606, Control_c, 0, 64, 59
1, 735620, Control_c, 0, 64, 61
1, 735635, Control_c, 0, 64, 62
1, 735650, Control_c, 0, 64, 64
1, 735665, Control_c, 0, 64, 66
1, 735680, Control_c, 0, 64, 68
1, 735690, Note_on_c, 0, 49, 31
1, 735694, Control_c, 0, 64, 70
1, 735709, Control_c, 0, 64, 71
1, 735724, Control_c, 0, 64, 73
1, 735739, Control_c, 0, 64, 74
1, 735754, Control_c, 0, 64, 75
1, 735768, Control_c, 0, 64, 76
1, 735783, Control_c, 0, 64, 77
1, 735798, Control_c, 0, 64, 79
1, 735812, Control_c, 0, 64, 79
1, 735827, Control_c, 0, 64, 80
1, 735842, Control_c, 0, 64, 81
1, 735869, Note_off_c, 0, 61, 53
1, 735872, Control_c, 0, 64, 81
1, 735898, Note_off_c, 0, 58, 38
1, 735902, Control_c, 0, 64, 82
1, 735905, Note_off_c, 0, 49, 37
1, 736051, Note_on_c, 0, 61, 52
1, 736117, Note_on_c, 0, 37, 46
1, 736154, Control_c, 0, 64, 81
1, 736198, Control_c, 0, 64, 81
1, 736212, Control_c, 0, 64, 80
1, 736227, Control_c, 0, 64, 79
1, 736242, Control_c, 0, 64, 77
1, 736265, Control_c, 0, 64, 75
1, 736280, Control_c, 0, 64, 72
1, 736294, Control_c, 0, 64, 68
1, 736309, Control_c, 0, 64, 63
1, 736324, Control_c, 0, 64, 56
1, 736340, Control_c, 0, 64, 49
1, 736355, Control_c, 0, 64, 41
1, 736370, Control_c, 0, 64, 38
1, 736384, Control_c, 0, 64, 38
1, 736399, Control_c, 0, 64, 40
1, 736414, Control_c, 0, 64, 44
1, 736429, Control_c, 0, 64, 49
1, 736443, Control_c, 0, 64, 53
1, 736458, Control_c, 0, 64, 57
1, 736473, Control_c, 0, 64, 59
1, 736488, Control_c, 0, 64, 61
1, 736495, Note_on_c, 0, 53, 28
1, 736503, Control_c, 0, 64, 63
1, 736517, Control_c, 0, 64, 65
1, 736532, Control_c, 0, 64, 66
1, 736547, Control_c, 0, 64, 68
1, 736562, Control_c, 0, 64, 69
1, 736577, Control_c, 0, 64, 70
1, 736591, Control_c, 0, 64, 71
1, 736606, Control_c, 0, 64, 72
1, 736621, Control_c, 0, 64, 72
1, 736635, Control_c, 0, 64, 73
1, 736665, Control_c, 0, 64, 74
1, 736715, Note_off_c, 0, 37, 45
1, 736739, Control_c, 0, 64, 74
1, 736781, Note_on_c, 0, 56, 36
1, 736821, Note_off_c, 0, 53, 40
1, 736903, Control_c, 0, 64, 74
1, 737014, Control_c, 0, 64, 73
1, 737058, Control_c, 0, 64, 73
1, 737070, Note_on_c, 0, 53, 37
1, 737073, Note_off_c, 0, 56, 37
1, 737073, Control_c, 0, 64, 72
1, 737088, Control_c, 0, 64, 72
1, 737103, Control_c, 0, 64, 71
1, 737118, Control_c, 0, 64, 71
1, 737133, Control_c, 0, 64, 70
1, 737148, Control_c, 0, 64, 70
1, 737163, Control_c, 0, 64, 69
1, 737178, Control_c, 0, 64, 69
1, 737193, Control_c, 0, 64, 68
1, 737207, Control_c, 0, 64, 67
1, 737222, Control_c, 0, 64, 67
1, 737237, Control_c, 0, 64, 66
1, 737252, Control_c, 0, 64, 66
1, 737267, Control_c, 0, 64, 65
1, 737297, Control_c, 0, 64, 65
1, 737327, Control_c, 0, 64, 64
1, 737341, Control_c, 0, 64, 64
1, 737364, Note_on_c, 0, 56, 36
1, 737371, Control_c, 0, 64, 63
1, 737383, Note_off_c, 0, 53, 52
1, 737385, Control_c, 0, 64, 63
1, 737400, Control_c, 0, 64, 62
1, 737415, Control_c, 0, 64, 61
1, 737430, Control_c, 0, 64, 60
1, 737445, Control_c, 0, 64, 58
1, 737459, Control_c, 0, 64, 56
1, 737474, Control_c, 0, 64, 53
1, 737489, Control_c, 0, 64, 50
1, 737504, Control_c, 0, 64, 46
1, 737519, Control_c, 0, 64, 42
1, 737533, Control_c, 0, 64, 40
1, 737563, Control_c, 0, 64, 41
1, 737577, Control_c, 0, 64, 44
1, 737592, Control_c, 0, 64, 48
1, 737607, Control_c, 0, 64, 51
1, 737622, Control_c, 0, 64, 54
1, 737637, Control_c, 0, 64, 56
1, 737652, Note_on_c, 0, 49, 40
1, 737652, Control_c, 0, 64, 58
1, 737666, Control_c, 0, 64, 60
1, 737681, Control_c, 0, 64, 62
1, 737693, Note_off_c, 0, 56, 41
1, 737696, Control_c, 0, 64, 64
1, 737711, Control_c, 0, 64, 65
1, 737726, Control_c, 0, 64, 66
1, 737741, Control_c, 0, 64, 68
1, 737763, Control_c, 0, 64, 69
1, 737778, Control_c, 0, 64, 70
1, 737792, Control_c, 0, 64, 71
1, 737807, Control_c, 0, 64, 72
1, 737822, Control_c, 0, 64, 72
1, 737825, Note_off_c, 0, 49, 33
1, 737836, Control_c, 0, 64, 73
1, 737851, Control_c, 0, 64, 73
1, 737865, Control_c, 0, 64, 74
1, 738021, Note_on_c, 0, 60, 50
1, 738074, Control_c, 0, 64, 73
1, 738088, Control_c, 0, 64, 73
1, 738094, Note_off_c, 0, 61, 56
1, 738102, Note_on_c, 0, 44, 29
1, 738103, Control_c, 0, 64, 72
1, 738118, Control_c, 0, 64, 69
1, 738133, Control_c, 0, 64, 65
1, 738148, Control_c, 0, 64, 57
1, 738162, Control_c, 0, 64, 48
1, 738177, Control_c, 0, 64, 40
1, 738192, Control_c, 0, 64, 39
1, 738206, Control_c, 0, 64, 42
1, 738221, Control_c, 0, 64, 47
1, 738236, Control_c, 0, 64, 52
1, 738251, Control_c, 0, 64, 57
1, 738266, Control_c, 0, 64, 61
1, 738281, Control_c, 0, 64, 65
1, 738295, Control_c, 0, 64, 68
1, 738310, Control_c, 0, 64, 70
1, 738325, Control_c, 0, 64, 72
1, 738340, Control_c, 0, 64, 73
1, 738355, Control_c, 0, 64, 74
1, 738370, Control_c, 0, 64, 75
1, 738385, Control_c, 0, 64, 75
1, 738385, Note_on_c, 0, 54, 36
1, 738399, Control_c, 0, 64, 76
1, 738444, Control_c, 0, 64, 76
1, 738585, Note_off_c, 0, 44, 15
1, 738659, Note_on_c, 0, 66, 57
1, 738692, Note_on_c, 0, 56, 40
1, 738743, Note_off_c, 0, 54, 28
1, 738823, Control_c, 0, 64, 76
1, 738852, Control_c, 0, 64, 75
1, 738867, Control_c, 0, 64, 74
1, 738872, Note_off_c, 0, 60, 33
1, 738897, Control_c, 0, 64, 74
1, 738911, Control_c, 0, 64, 73
1, 738926, Control_c, 0, 64, 73
1, 738941, Control_c, 0, 64, 72
1, 738956, Control_c, 0, 64, 72
1, 738958, Note_on_c, 0, 54, 41
1, 738965, Note_off_c, 0, 56, 38
1, 738971, Control_c, 0, 64, 71
1, 738985, Control_c, 0, 64, 71
1, 739000, Control_c, 0, 64, 70
1, 739015, Control_c, 0, 64, 70
1, 739029, Control_c, 0, 64, 69
1, 739044, Control_c, 0, 64, 69
1, 739074, Control_c, 0, 64, 68
1, 739103, Control_c, 0, 64, 68
1, 739133, Control_c, 0, 64, 67
1, 739148, Control_c, 0, 64, 67
1, 739163, Control_c, 0, 64, 66
1, 739178, Control_c, 0, 64, 64
1, 739193, Control_c, 0, 64, 63
1, 739208, Control_c, 0, 64, 60
1, 739218, Note_on_c, 0, 60, 52
1, 739222, Control_c, 0, 64, 59
1, 739231, Note_on_c, 0, 56, 38
1, 739259, Control_c, 0, 64, 60
1, 739274, Control_c, 0, 64, 61
1, 739289, Control_c, 0, 64, 63
1, 739293, Note_off_c, 0, 54, 49
1, 739303, Control_c, 0, 64, 65
1, 739318, Control_c, 0, 64, 67
1, 739332, Note_off_c, 0, 66, 63
1, 739333, Control_c, 0, 64, 69
1, 739348, Control_c, 0, 64, 70
1, 739363, Control_c, 0, 64, 71
1, 739377, Control_c, 0, 64, 73
1, 739392, Control_c, 0, 64, 74
1, 739407, Control_c, 0, 64, 75
1, 739422, Control_c, 0, 64, 77
1, 739437, Control_c, 0, 64, 77
1, 739452, Control_c, 0, 64, 78
1, 739482, Control_c, 0, 64, 79
1, 739502, Note_on_c, 0, 51, 47
1, 739527, Control_c, 0, 64, 79
1, 739533, Note_off_c, 0, 56, 36
1, 739565, Note_off_c, 0, 51, 60
1, 739590, Note_off_c, 0, 60, 60
1, 739838, Control_c, 0, 64, 79
1, 739853, Note_on_c, 0, 61, 57
1, 739882, Control_c, 0, 64, 78
1, 739897, Control_c, 0, 64, 78
1, 739912, Control_c, 0, 64, 77
1, 739926, Control_c, 0, 64, 77
1, 739940, Note_on_c, 0, 37, 51
1, 739941, Control_c, 0, 64, 76
1, 739956, Control_c, 0, 64, 75
1, 739971, Control_c, 0, 64, 73
1, 739986, Control_c, 0, 64, 72
1, 740008, Control_c, 0, 64, 69
1, 740023, Control_c, 0, 64, 66
1, 740038, Control_c, 0, 64, 60
1, 740052, Control_c, 0, 64, 53
1, 740067, Control_c, 0, 64, 41
1, 740083, Control_c, 0, 64, 0
1, 740157, Control_c, 0, 64, 32
1, 740172, Control_c, 0, 64, 42
1, 740186, Control_c, 0, 64, 51
1, 740201, Control_c, 0, 64, 57
1, 740216, Control_c, 0, 64, 60
1, 740231, Control_c, 0, 64, 62
1, 740246, Control_c, 0, 64, 63
1, 740260, Control_c, 0, 64, 64
1, 740275, Control_c, 0, 64, 65
1, 740290, Note_on_c, 0, 53, 38
1, 740290, Control_c, 0, 64, 67
1, 740305, Control_c, 0, 64, 68
1, 740320, Control_c, 0, 64, 69
1, 740336, Control_c, 0, 64, 70
1, 740350, Control_c, 0, 64, 71
1, 740365, Control_c, 0, 64, 72
1, 740380, Control_c, 0, 64, 72
1, 740409, Control_c, 0, 64, 73
1, 740454, Control_c, 0, 64, 73
1, 740552, Note_off_c, 0, 37, 37
1, 740561, Note_on_c, 0, 56, 47
1, 740621, Note_off_c, 0, 53, 34
1, 740706, Control_c, 0, 64, 73
1, 740817, Control_c, 0, 64, 72
1, 740834, Note_off_c, 0, 56, 53
1, 740846, Note_on_c, 0, 53, 41
1, 740862, Control_c, 0, 64, 72
1, 740891, Control_c, 0, 64, 71
1, 740906, Control_c, 0, 64, 71
1, 740921, Control_c, 0, 64, 70
1, 740936, Control_c, 0, 64, 70
1, 740951, Control_c, 0, 64, 69
1, 740965, Control_c, 0, 64, 68
1, 740980, Control_c, 0, 64, 67
1, 740995, Control_c, 0, 64, 66
1, 741009, Control_c, 0, 64, 65
1, 741024, Control_c, 0, 64, 63
1, 741039, Control_c, 0, 64, 62
1, 741054, Control_c, 0, 64, 60
1, 741069, Control_c, 0, 64, 58
1, 741083, Control_c, 0, 64, 55
1, 741098, Control_c, 0, 64, 49
1, 741113, Control_c, 0, 64, 40
1, 741129, Control_c, 0, 64, 0
1, 741139, Note_on_c, 0, 56, 44
1, 741200, Note_off_c, 0, 53, 37
1, 741203, Control_c, 0, 64, 33
1, 741218, Control_c, 0, 64, 41
1, 741232, Control_c, 0, 64, 49
1, 741247, Control_c, 0, 64, 55
1, 741262, Control_c, 0, 64, 59
1, 741277, Control_c, 0, 64, 60
1, 741292, Control_c, 0, 64, 62
1, 741306, Control_c, 0, 64, 63
1, 741321, Control_c, 0, 64, 64
1, 741336, Control_c, 0, 64, 65
1, 741351, Control_c, 0, 64, 67
1, 741366, Control_c, 0, 64, 68
1, 741381, Control_c, 0, 64, 69
1, 741396, Control_c, 0, 64, 69
1, 741410, Control_c, 0, 64, 70
1, 741413, Note_on_c, 0, 49, 41
1, 741425, Control_c, 0, 64, 71
1, 741440, Control_c, 0, 64, 71
1, 741455, Control_c, 0, 64, 72
1, 741470, Control_c, 0, 64, 72
1, 741521, Control_c, 0, 64, 73
1, 741558, Note_off_c, 0, 61, 57
1, 741595, Note_off_c, 0, 49, 32
1, 741595, Control_c, 0, 64, 73
1, 741601, Note_off_c, 0, 56, 38
1, 741750, Note_on_c, 0, 61, 61
1, 741803, Control_c, 0, 64, 73
1, 741818, Control_c, 0, 64, 70
1, 741832, Control_c, 0, 64, 64
1, 741847, Control_c, 0, 64, 55
1, 741851, Note_on_c, 0, 33, 49
1, 741862, Control_c, 0, 64, 48
1, 741877, Control_c, 0, 64, 49
1, 741892, Control_c, 0, 64, 53
1, 741906, Control_c, 0, 64, 57
1, 741922, Control_c, 0, 64, 60
1, 741927, Note_off_c, 0, 33, 57
1, 741937, Control_c, 0, 64, 63
1, 741950, Note_on_c, 0, 35, 51
1, 741952, Control_c, 0, 64, 66
1, 741967, Control_c, 0, 64, 69
1, 741982, Control_c, 0, 64, 70
1, 741996, Control_c, 0, 64, 72
1, 742002, Note_off_c, 0, 35, 61
1, 742011, Control_c, 0, 64, 72
1, 742026, Note_on_c, 0, 33, 44
1, 742026, Control_c, 0, 64, 73
1, 742041, Control_c, 0, 64, 73
1, 742063, Note_off_c, 0, 33, 49
1, 742098, Note_on_c, 0, 35, 38
1, 742105, Note_on_c, 0, 54, 34
1, 742135, Note_off_c, 0, 35, 42
1, 742139, Note_on_c, 0, 33, 47
1, 742176, Note_off_c, 0, 33, 51
1, 742211, Note_on_c, 0, 35, 21
1, 742250, Note_on_c, 0, 33, 54
1, 742272, Note_off_c, 0, 35, 0
1, 742281, Note_off_c, 0, 33, 53
1, 742291, Note_on_c, 0, 35, 27
1, 742314, Note_on_c, 0, 57, 49
1, 742336, Note_off_c, 0, 35, 40
1, 742338, Note_on_c, 0, 33, 60
1, 742374, Note_off_c, 0, 33, 61
1, 742384, Note_off_c, 0, 54, 30
1, 742387, Note_on_c, 0, 35, 49
1, 742419, Note_off_c, 0, 35, 56
1, 742430, Note_on_c, 0, 33, 66
1, 742472, Note_off_c, 0, 33, 60
1, 742493, Note_on_c, 0, 35, 62
1, 742522, Note_off_c, 0, 35, 58
1, 742545, Note_on_c, 0, 33, 63
1, 742572, Note_on_c, 0, 54, 46
1, 742582, Note_off_c, 0, 33, 49
1, 742612, Note_off_c, 0, 57, 51
1, 742719, Poly_aftertouch_c, 0, 33, 127
1, 742756, Poly_aftertouch_c, 0, 33, 0
1, 742803, Control_c, 0, 64, 73
1, 742833, Control_c, 0, 64, 72
1, 742848, Control_c, 0, 64, 72
1, 742850, Note_on_c, 0, 33, 29
1, 742863, Control_c, 0, 64, 71
1, 742877, Note_on_c, 0, 57, 46
1, 742877, Control_c, 0, 64, 70
1, 742892, Control_c, 0, 64, 69
1, 742907, Control_c, 0, 64, 67
1, 742922, Control_c, 0, 64, 64
1, 742937, Control_c, 0, 64, 62
1, 742938, Note_off_c, 0, 54, 38
1, 742952, Control_c, 0, 64, 60
1, 742966, Control_c, 0, 64, 57
1, 742981, Control_c, 0, 64, 51
1, 743003, Control_c, 0, 64, 44
1, 743018, Control_c, 0, 64, 32
1, 743033, Control_c, 0, 64, 0
1, 743196, Control_c, 0, 64, 29
1, 743198, Note_on_c, 0, 49, 44
1, 743211, Control_c, 0, 64, 43
1, 743226, Control_c, 0, 64, 54
1, 743241, Control_c, 0, 64, 59
1, 743256, Control_c, 0, 64, 62
1, 743271, Control_c, 0, 64, 64
1, 743285, Control_c, 0, 64, 66
1, 743300, Control_c, 0, 64, 68
1, 743303, Note_off_c, 0, 33, 54
1, 743314, Note_on_c, 0, 35, 68
1, 743315, Control_c, 0, 64, 69
1, 743330, Control_c, 0, 64, 71
1, 743341, Note_off_c, 0, 49, 37
1, 743345, Control_c, 0, 64, 72
1, 743360, Control_c, 0, 64, 72
1, 743375, Control_c, 0, 64, 73
1, 743404, Control_c, 0, 64, 73
1, 743408, Note_off_c, 0, 61, 57
1, 743411, Note_off_c, 0, 57, 28
1, 743411, Note_off_c, 0, 35, 57
1, 743554, Control_c, 0, 64, 73
1, 743583, Control_c, 0, 64, 72
1, 743598, Control_c, 0, 64, 71
1, 743600, Note_on_c, 0, 61, 54
1, 743613, Control_c, 0, 64, 70
1, 743627, Control_c, 0, 64, 69
1, 743642, Control_c, 0, 64, 68
1, 743657, Control_c, 0, 64, 66
1, 743664, Note_on_c, 0, 37, 58
1, 743672, Control_c, 0, 64, 65
1, 743687, Control_c, 0, 64, 63
1, 743701, Control_c, 0, 64, 62
1, 743716, Control_c, 0, 64, 60
1, 743731, Control_c, 0, 64, 58
1, 743753, Control_c, 0, 64, 56
1, 743768, Control_c, 0, 64, 53
1, 743783, Control_c, 0, 64, 49
1, 743798, Control_c, 0, 64, 42
1, 743813, Control_c, 0, 64, 0
1, 744040, Note_on_c, 0, 53, 36
1, 744079, Control_c, 0, 64, 39
1, 744093, Control_c, 0, 64, 49
1, 744108, Control_c, 0, 64, 56
1, 744123, Control_c, 0, 64, 59
1, 744138, Control_c, 0, 64, 61
1, 744153, Control_c, 0, 64, 63
1, 744168, Control_c, 0, 64, 65
1, 744183, Control_c, 0, 64, 67
1, 744198, Control_c, 0, 64, 69
1, 744213, Control_c, 0, 64, 71
1, 744227, Control_c, 0, 64, 73
1, 744242, Control_c, 0, 64, 75
1, 744257, Control_c, 0, 64, 76
1, 744272, Control_c, 0, 64, 78
1, 744287, Control_c, 0, 64, 78
1, 744301, Control_c, 0, 64, 79
1, 744350, Note_on_c, 0, 56, 42
1, 744362, Note_off_c, 0, 37, 35
1, 744415, Note_off_c, 0, 53, 36
1, 744502, Control_c, 0, 64, 78
1, 744531, Control_c, 0, 64, 78
1, 744546, Control_c, 0, 64, 77
1, 744561, Control_c, 0, 64, 77
1, 744576, Control_c, 0, 64, 76
1, 744606, Control_c, 0, 64, 76
1, 744621, Control_c, 0, 64, 75
1, 744636, Control_c, 0, 64, 75
1, 744646, Note_on_c, 0, 53, 46
1, 744650, Control_c, 0, 64, 74
1, 744665, Control_c, 0, 64, 73
1, 744670, Note_off_c, 0, 56, 50
1, 744680, Control_c, 0, 64, 71
1, 744695, Control_c, 0, 64, 69
1, 744710, Control_c, 0, 64, 67
1, 744724, Control_c, 0, 64, 65
1, 744739, Control_c, 0, 64, 64
1, 744754, Control_c, 0, 64, 63
1, 744768, Control_c, 0, 64, 62
1, 744783, Control_c, 0, 64, 61
1, 744798, Control_c, 0, 64, 60
1, 744813, Control_c, 0, 64, 59
1, 744828, Control_c, 0, 64, 58
1, 744842, Control_c, 0, 64, 57
1, 744857, Control_c, 0, 64, 56
1, 744872, Control_c, 0, 64, 55
1, 744887, Control_c, 0, 64, 54
1, 744902, Control_c, 0, 64, 53
1, 744916, Control_c, 0, 64, 52
1, 744931, Control_c, 0, 64, 50
1, 744946, Note_on_c, 0, 56, 48
1, 744946, Control_c, 0, 64, 48
1, 744961, Control_c, 0, 64, 45
1, 744976, Control_c, 0, 64, 40
1, 744991, Control_c, 0, 64, 31
1, 745005, Control_c, 0, 64, 0
1, 745028, Note_off_c, 0, 53, 49
1, 745095, Note_on_c, 0, 39, 54
1, 745181, Note_off_c, 0, 39, 62
1, 745221, Note_off_c, 0, 56, 54
1, 745280, Note_on_c, 0, 41, 52
1, 745297, Note_on_c, 0, 49, 44
1, 745358, Note_off_c, 0, 41, 61
1, 745362, Note_off_c, 0, 49, 53
1, 745461, Note_on_c, 0, 42, 58
1, 745558, Note_off_c, 0, 42, 60
1, 745758, Note_on_c, 0, 60, 52
1, 745786, Note_on_c, 0, 44, 42
1, 745847, Note_off_c, 0, 61, 56
1, 745873, Control_c, 0, 64, 33
1, 745888, Control_c, 0, 64, 43
1, 745903, Control_c, 0, 64, 52
1, 745918, Control_c, 0, 64, 57
1, 745933, Control_c, 0, 64, 59
1, 745948, Control_c, 0, 64, 61
1, 745962, Control_c, 0, 64, 63
1, 745977, Control_c, 0, 64, 65
1, 746000, Control_c, 0, 64, 67
1, 746015, Control_c, 0, 64, 69
1, 746029, Control_c, 0, 64, 71
1, 746044, Control_c, 0, 64, 73
1, 746059, Control_c, 0, 64, 75
1, 746073, Control_c, 0, 64, 76
1, 746088, Control_c, 0, 64, 77
1, 746102, Control_c, 0, 64, 78
1, 746117, Control_c, 0, 64, 78
1, 746132, Control_c, 0, 64, 79
1, 746147, Control_c, 0, 64, 79
1, 746160, Note_on_c, 0, 54, 39
1, 746177, Control_c, 0, 64, 80
1, 746221, Control_c, 0, 64, 80
1, 746265, Note_off_c, 0, 44, 24
1, 746424, Note_on_c, 0, 66, 56
1, 746466, Note_on_c, 0, 56, 41
1, 746502, Note_off_c, 0, 54, 36
1, 746529, Note_off_c, 0, 60, 38
1, 746606, Control_c, 0, 64, 79
1, 746621, Control_c, 0, 64, 78
1, 746636, Control_c, 0, 64, 76
1, 746651, Control_c, 0, 64, 72
1, 746666, Control_c, 0, 64, 66
1, 746681, Control_c, 0, 64, 64
1, 746711, Control_c, 0, 64, 64
1, 746725, Note_on_c, 0, 54, 36
1, 746725, Control_c, 0, 64, 66
1, 746748, Control_c, 0, 64, 67
1, 746763, Control_c, 0, 64, 70
1, 746770, Note_off_c, 0, 56, 37
1, 746777, Control_c, 0, 64, 72
1, 746792, Control_c, 0, 64, 73
1, 746807, Control_c, 0, 64, 74
1, 746823, Control_c, 0, 64, 75
1, 746838, Control_c, 0, 64, 76
1, 746852, Control_c, 0, 64, 76
1, 746882, Control_c, 0, 64, 77
1, 746985, Control_c, 0, 64, 75
1, 746991, Note_on_c, 0, 60, 49
1, 746994, Note_on_c, 0, 56, 37
1, 747000, Control_c, 0, 64, 71
1, 747015, Control_c, 0, 64, 66
1, 747030, Control_c, 0, 64, 64
1, 747044, Note_off_c, 0, 54, 31
1, 747059, Control_c, 0, 64, 65
1, 747074, Control_c, 0, 64, 67
1, 747079, Note_off_c, 0, 66, 59
1, 747089, Control_c, 0, 64, 69
1, 747104, Control_c, 0, 64, 72
1, 747119, Control_c, 0, 64, 73
1, 747134, Control_c, 0, 64, 75
1, 747149, Control_c, 0, 64, 76
1, 747164, Control_c, 0, 64, 77
1, 747178, Control_c, 0, 64, 78
1, 747193, Control_c, 0, 64, 79
1, 747208, Control_c, 0, 64, 79
1, 747257, Note_on_c, 0, 51, 40
1, 747259, Note_off_c, 0, 56, 37
1, 747306, Note_off_c, 0, 60, 50
1, 747314, Note_off_c, 0, 51, 61
1, 747511, Control_c, 0, 64, 79
1, 747557, Control_c, 0, 64, 78
1, 747572, Control_c, 0, 64, 78
1, 747587, Control_c, 0, 64, 77
1, 747592, Note_on_c, 0, 61, 56
1, 747616, Control_c, 0, 64, 77
1, 747646, Control_c, 0, 64, 76
1, 747661, Control_c, 0, 64, 75
1, 747675, Control_c, 0, 64, 75
1, 747681, Note_on_c, 0, 37, 49
1, 747690, Control_c, 0, 64, 74
1, 747705, Control_c, 0, 64, 72
1, 747719, Control_c, 0, 64, 71
1, 747734, Control_c, 0, 64, 69
1, 747749, Control_c, 0, 64, 67
1, 747764, Control_c, 0, 64, 65
1, 747779, Control_c, 0, 64, 63
1, 747793, Control_c, 0, 64, 60
1, 747808, Control_c, 0, 64, 57
1, 747823, Control_c, 0, 64, 51
1, 747838, Control_c, 0, 64, 43
1, 747853, Control_c, 0, 64, 35
1, 747867, Control_c, 0, 64, 30
1, 747867, Control_c, 0, 67, 117
1, 747882, Control_c, 0, 67, 101
1, 747897, Control_c, 0, 64, 33
1, 747897, Control_c, 0, 67, 84
1, 747912, Control_c, 0, 64, 38
1, 747912, Control_c, 0, 67, 67
1, 747927, Control_c, 0, 64, 42
1, 747927, Control_c, 0, 67, 49
1, 747942, Control_c, 0, 64, 47
1, 747942, Control_c, 0, 67, 0
1, 747957, Control_c, 0, 64, 52
1, 747971, Control_c, 0, 64, 55
1, 747986, Control_c, 0, 64, 58
1, 747988, Note_on_c, 0, 53, 30
1, 748001, Control_c, 0, 64, 61
1, 748016, Control_c, 0, 64, 62
1, 748031, Control_c, 0, 64, 64
1, 748046, Control_c, 0, 64, 65
1, 748061, Control_c, 0, 64, 65
1, 748075, Control_c, 0, 64, 66
1, 748090, Control_c, 0, 64, 67
1, 748105, Control_c, 0, 64, 67
1, 748221, Note_off_c, 0, 37, 41
1, 748262, Note_on_c, 0, 56, 37
1, 748297, Note_off_c, 0, 53, 39
1, 748305, Control_c, 0, 64, 67
1, 748335, Control_c, 0, 64, 66
1, 748350, Control_c, 0, 64, 66
1, 748365, Control_c, 0, 64, 65
1, 748380, Control_c, 0, 64, 64
1, 748395, Control_c, 0, 64, 64
1, 748410, Control_c, 0, 64, 63
1, 748424, Control_c, 0, 64, 62
1, 748439, Control_c, 0, 64, 61
1, 748454, Control_c, 0, 64, 61
1, 748469, Control_c, 0, 64, 60
1, 748484, Control_c, 0, 64, 60
1, 748498, Control_c, 0, 64, 59
1, 748513, Control_c, 0, 64, 58
1, 748528, Control_c, 0, 64, 58
1, 748529, Note_on_c, 0, 53, 39
1, 748542, Control_c, 0, 64, 57
1, 748568, Note_off_c, 0, 56, 43
1, 748572, Control_c, 0, 64, 57
1, 748587, Control_c, 0, 64, 56
1, 748602, Control_c, 0, 64, 55
1, 748616, Control_c, 0, 64, 55
1, 748631, Control_c, 0, 64, 54
1, 748646, Control_c, 0, 64, 53
1, 748661, Control_c, 0, 64, 52
1, 748676, Control_c, 0, 64, 50
1, 748690, Control_c, 0, 64, 48
1, 748705, Control_c, 0, 64, 41
1, 748720, Control_c, 0, 64, 33
1, 748735, Control_c, 0, 64, 27
1, 748749, Control_c, 0, 64, 0
1, 748764, Control_c, 0, 64, 28
1, 748779, Control_c, 0, 64, 31
1, 748785, Note_on_c, 0, 56, 43
1, 748794, Control_c, 0, 64, 35
1, 748809, Control_c, 0, 64, 39
1, 748824, Control_c, 0, 64, 44
1, 748839, Control_c, 0, 64, 50
1, 748853, Note_off_c, 0, 53, 37
1, 748854, Control_c, 0, 64, 54
1, 748869, Control_c, 0, 64, 58
1, 748884, Control_c, 0, 64, 60
1, 748898, Control_c, 0, 64, 62
1, 748913, Control_c, 0, 64, 63
1, 748928, Control_c, 0, 64, 65
1, 748942, Control_c, 0, 64, 66
1, 748957, Control_c, 0, 64, 68
1, 748972, Control_c, 0, 64, 70
1, 748994, Control_c, 0, 64, 72
1, 749009, Control_c, 0, 64, 75
1, 749024, Control_c, 0, 64, 78
1, 749039, Control_c, 0, 64, 81
1, 749053, Control_c, 0, 64, 84
1, 749068, Note_on_c, 0, 49, 41
1, 749068, Control_c, 0, 64, 88
1, 749083, Control_c, 0, 64, 92
1, 749098, Control_c, 0, 64, 95
1, 749113, Control_c, 0, 64, 98
1, 749128, Control_c, 0, 64, 100
1, 749158, Control_c, 0, 64, 102
1, 749188, Control_c, 0, 64, 104
1, 749235, Note_off_c, 0, 61, 38
1, 749270, Note_off_c, 0, 49, 37
1, 749279, Note_off_c, 0, 56, 32
1, 749358, Note_on_c, 0, 61, 61
1, 749411, Note_on_c, 0, 35, 63
1, 749439, Control_c, 0, 64, 102
1, 749454, Control_c, 0, 64, 100
1, 749469, Control_c, 0, 64, 98
1, 749484, Control_c, 0, 64, 96
1, 749499, Control_c, 0, 64, 94
1, 749513, Control_c, 0, 64, 90
1, 749528, Control_c, 0, 64, 85
1, 749543, Control_c, 0, 64, 77
1, 749557, Control_c, 0, 64, 68
1, 749572, Control_c, 0, 64, 59
1, 749587, Control_c, 0, 64, 53
1, 749617, Control_c, 0, 64, 56
1, 749632, Control_c, 0, 64, 60
1, 749647, Control_c, 0, 64, 63
1, 749662, Control_c, 0, 64, 66
1, 749677, Control_c, 0, 64, 71
1, 749687, Note_on_c, 0, 53, 46
1, 749691, Control_c, 0, 64, 76
1, 749706, Control_c, 0, 64, 81
1, 749721, Control_c, 0, 64, 86
1, 749743, Control_c, 0, 64, 90
1, 749758, Control_c, 0, 64, 95
1, 749772, Control_c, 0, 64, 99
1, 749787, Control_c, 0, 64, 101
1, 749925, Note_off_c, 0, 35, 36
1, 749967, Note_on_c, 0, 56, 52
1, 750024, Note_off_c, 0, 53, 34
1, 750070, Control_c, 0, 64, 99
1, 750100, Control_c, 0, 64, 96
1, 750115, Control_c, 0, 64, 95
1, 750130, Control_c, 0, 64, 92
1, 750145, Control_c, 0, 64, 91
1, 750159, Control_c, 0, 64, 89
1, 750174, Control_c, 0, 64, 88
1, 750189, Control_c, 0, 64, 86
1, 750204, Control_c, 0, 64, 85
1, 750219, Control_c, 0, 64, 83
1, 750234, Control_c, 0, 64, 81
1, 750243, Note_on_c, 0, 53, 50
1, 750249, Control_c, 0, 64, 79
1, 750263, Control_c, 0, 64, 77
1, 750269, Note_off_c, 0, 56, 54
1, 750278, Control_c, 0, 64, 75
1, 750293, Control_c, 0, 64, 74
1, 750307, Control_c, 0, 64, 72
1, 750322, Control_c, 0, 64, 69
1, 750337, Control_c, 0, 64, 67
1, 750352, Control_c, 0, 64, 65
1, 750367, Control_c, 0, 64, 64
1, 750381, Control_c, 0, 64, 63
1, 750396, Control_c, 0, 64, 61
1, 750411, Control_c, 0, 64, 58
1, 750426, Control_c, 0, 64, 56
1, 750441, Control_c, 0, 64, 54
1, 750455, Control_c, 0, 64, 53
1, 750470, Control_c, 0, 64, 52
1, 750493, Control_c, 0, 64, 51
1, 750508, Control_c, 0, 64, 49
1, 750522, Control_c, 0, 64, 46
1, 750537, Control_c, 0, 64, 41
1, 750546, Note_on_c, 0, 56, 46
1, 750552, Control_c, 0, 64, 37
1, 750565, Control_c, 0, 64, 33
1, 750580, Control_c, 0, 64, 31
1, 750607, Note_off_c, 0, 53, 54
1, 750624, Control_c, 0, 64, 32
1, 750639, Control_c, 0, 64, 36
1, 750654, Control_c, 0, 64, 41
1, 750669, Control_c, 0, 64, 46
1, 750684, Control_c, 0, 64, 50
1, 750699, Control_c, 0, 64, 54
1, 750714, Control_c, 0, 64, 56
1, 750729, Control_c, 0, 64, 58
1, 750744, Control_c, 0, 64, 61
1, 750759, Control_c, 0, 64, 63
1, 750773, Control_c, 0, 64, 65
1, 750788, Control_c, 0, 64, 67
1, 750803, Control_c, 0, 64, 68
1, 750818, Control_c, 0, 64, 70
1, 750833, Control_c, 0, 64, 73
1, 750848, Control_c, 0, 64, 76
1, 750849, Note_on_c, 0, 49, 39
1, 750863, Control_c, 0, 64, 79
1, 750878, Control_c, 0, 64, 82
1, 750892, Control_c, 0, 64, 85
1, 750907, Control_c, 0, 64, 88
1, 750922, Control_c, 0, 64, 92
1, 750936, Control_c, 0, 64, 95
1, 750951, Control_c, 0, 64, 99
1, 750981, Control_c, 0, 64, 101
1, 751006, Note_off_c, 0, 61, 51
1, 751011, Note_off_c, 0, 56, 38
1, 751044, Note_off_c, 0, 49, 33
1, 751214, Note_on_c, 0, 61, 56
1, 751270, Control_c, 0, 64, 99
1, 751284, Control_c, 0, 64, 96
1, 751299, Control_c, 0, 64, 93
1, 751301, Note_on_c, 0, 33, 47
1, 751314, Control_c, 0, 64, 89
1, 751329, Control_c, 0, 64, 85
1, 751343, Control_c, 0, 64, 80
1, 751358, Control_c, 0, 64, 74
1, 751373, Control_c, 0, 64, 67
1, 751388, Control_c, 0, 64, 60
1, 751403, Control_c, 0, 64, 53
1, 751417, Control_c, 0, 64, 48
1, 751432, Control_c, 0, 64, 48
1, 751447, Control_c, 0, 64, 49
1, 751462, Control_c, 0, 64, 52
1, 751477, Control_c, 0, 64, 56
1, 751492, Control_c, 0, 64, 59
1, 751507, Control_c, 0, 64, 61
1, 751507, Control_c, 0, 67, 33
1, 751522, Control_c, 0, 64, 64
1, 751522, Control_c, 0, 67, 46
1, 751537, Control_c, 0, 64, 66
1, 751537, Control_c, 0, 67, 58
1, 751552, Control_c, 0, 64, 70
1, 751552, Control_c, 0, 67, 68
1, 751566, Control_c, 0, 64, 73
1, 751566, Control_c, 0, 67, 74
1, 751581, Control_c, 0, 64, 75
1, 751581, Control_c, 0, 67, 79
1, 751593, Note_on_c, 0, 54, 42
1, 751596, Control_c, 0, 64, 77
1, 751596, Control_c, 0, 67, 83
1, 751611, Control_c, 0, 64, 78
1, 751611, Control_c, 0, 67, 90
1, 751626, Control_c, 0, 64, 79
1, 751626, Control_c, 0, 67, 97
1, 751641, Control_c, 0, 64, 79
1, 751641, Control_c, 0, 67, 99
1, 751671, Control_c, 0, 64, 80
1, 751686, Control_c, 0, 67, 101
1, 751759, Control_c, 0, 67, 104
1, 751789, Control_c, 0, 67, 111
1, 751804, Control_c, 0, 67, 127
1, 751819, Control_c, 0, 64, 79
1, 751820, Note_off_c, 0, 33, 33
1, 751866, Note_on_c, 0, 57, 38
1, 751878, Control_c, 0, 64, 79
1, 751895, Note_off_c, 0, 54, 32
1, 751907, Control_c, 0, 64, 78
1, 751922, Control_c, 0, 64, 78
1, 751937, Control_c, 0, 64, 77
1, 751952, Control_c, 0, 64, 77
1, 751966, Control_c, 0, 64, 76
1, 751989, Control_c, 0, 64, 75
1, 752004, Control_c, 0, 64, 75
1, 752019, Control_c, 0, 64, 74
1, 752034, Control_c, 0, 64, 73
1, 752048, Control_c, 0, 64, 72
1, 752063, Control_c, 0, 64, 71
1, 752078, Control_c, 0, 64, 70
1, 752092, Control_c, 0, 64, 69
1, 752107, Control_c, 0, 64, 68
1, 752122, Control_c, 0, 64, 67
1, 752127, Note_off_c, 0, 57, 53
1, 752137, Control_c, 0, 64, 67
1, 752152, Control_c, 0, 64, 66
1, 752155, Note_on_c, 0, 54, 35
1, 752166, Control_c, 0, 64, 65
1, 752181, Control_c, 0, 64, 64
1, 752196, Control_c, 0, 64, 63
1, 752211, Control_c, 0, 64, 63
1, 752226, Control_c, 0, 64, 62
1, 752240, Control_c, 0, 64, 62
1, 752255, Control_c, 0, 64, 61
1, 752270, Control_c, 0, 64, 61
1, 752300, Control_c, 0, 64, 60
1, 752315, Control_c, 0, 64, 60
1, 752330, Control_c, 0, 64, 59
1, 752360, Control_c, 0, 64, 59
1, 752389, Control_c, 0, 64, 58
1, 752404, Control_c, 0, 64, 58
1, 752434, Control_c, 0, 64, 57
1, 752443, Note_on_c, 0, 57, 37
1, 752449, Control_c, 0, 64, 56
1, 752464, Control_c, 0, 64, 55
1, 752479, Control_c, 0, 64, 54
1, 752493, Control_c, 0, 64, 51
1, 752495, Note_off_c, 0, 54, 37
1, 752508, Control_c, 0, 64, 48
1, 752523, Control_c, 0, 64, 43
1, 752538, Control_c, 0, 64, 35
1, 752553, Control_c, 0, 64, 0
1, 752627, Control_c, 0, 64, 28
1, 752642, Control_c, 0, 64, 33
1, 752656, Control_c, 0, 64, 40
1, 752671, Control_c, 0, 64, 46
1, 752686, Control_c, 0, 64, 52
1, 752701, Control_c, 0, 64, 56
1, 752715, Control_c, 0, 64, 59
1, 752738, Control_c, 0, 64, 61
1, 752753, Control_c, 0, 64, 63
1, 752762, Note_on_c, 0, 49, 36
1, 752768, Control_c, 0, 64, 65
1, 752783, Control_c, 0, 64, 68
1, 752797, Control_c, 0, 64, 71
1, 752811, Control_c, 0, 64, 73
1, 752826, Control_c, 0, 64, 75
1, 752841, Control_c, 0, 64, 77
1, 752856, Control_c, 0, 64, 79
1, 752870, Control_c, 0, 64, 82
1, 752878, Note_off_c, 0, 57, 40
1, 752885, Control_c, 0, 64, 84
1, 752900, Control_c, 0, 64, 86
1, 752914, Control_c, 0, 64, 87
1, 752919, Note_off_c, 0, 61, 55
1, 752929, Control_c, 0, 64, 88
1, 752941, Note_off_c, 0, 49, 32
1, 752944, Control_c, 0, 64, 88
1, 752988, Control_c, 0, 64, 89
1, 753152, Control_c, 0, 64, 88
1, 753161, Note_on_c, 0, 61, 49
1, 753197, Control_c, 0, 64, 88
1, 753212, Control_c, 0, 64, 87
1, 753227, Control_c, 0, 64, 86
1, 753242, Control_c, 0, 64, 84
1, 753249, Note_on_c, 0, 32, 47
1, 753257, Control_c, 0, 64, 82
1, 753271, Control_c, 0, 64, 80
1, 753286, Control_c, 0, 64, 77
1, 753301, Control_c, 0, 64, 74
1, 753316, Control_c, 0, 64, 70
1, 753330, Control_c, 0, 64, 64
1, 753345, Control_c, 0, 64, 57
1, 753360, Control_c, 0, 64, 49
1, 753375, Control_c, 0, 64, 40
1, 753390, Control_c, 0, 64, 33
1, 753419, Control_c, 0, 64, 32
1, 753434, Control_c, 0, 64, 36
1, 753449, Control_c, 0, 64, 43
1, 753464, Control_c, 0, 64, 49
1, 753486, Control_c, 0, 64, 54
1, 753501, Control_c, 0, 64, 57
1, 753516, Control_c, 0, 64, 61
1, 753530, Control_c, 0, 64, 63
1, 753545, Control_c, 0, 64, 65
1, 753561, Control_c, 0, 64, 67
1, 753576, Control_c, 0, 64, 69
1, 753590, Control_c, 0, 64, 70
1, 753592, Note_on_c, 0, 53, 38
1, 753605, Control_c, 0, 64, 72
1, 753620, Control_c, 0, 64, 73
1, 753635, Control_c, 0, 64, 74
1, 753650, Control_c, 0, 64, 75
1, 753664, Control_c, 0, 64, 76
1, 753679, Control_c, 0, 64, 77
1, 753709, Control_c, 0, 64, 77
1, 753810, Note_off_c, 0, 32, 38
1, 753911, Note_on_c, 0, 59, 38
1, 753932, Control_c, 0, 64, 77
1, 753966, Note_off_c, 0, 53, 29
1, 753991, Control_c, 0, 64, 76
1, 754021, Control_c, 0, 64, 76
1, 754035, Control_c, 0, 64, 75
1, 754050, Control_c, 0, 64, 75
1, 754065, Control_c, 0, 64, 74
1, 754080, Control_c, 0, 64, 73
1, 754095, Control_c, 0, 64, 72
1, 754109, Control_c, 0, 64, 71
1, 754124, Control_c, 0, 64, 70
1, 754139, Control_c, 0, 64, 68
1, 754154, Control_c, 0, 64, 67
1, 754169, Control_c, 0, 64, 66
1, 754184, Control_c, 0, 64, 65
1, 754199, Control_c, 0, 64, 64
1, 754213, Control_c, 0, 64, 63
1, 754235, Control_c, 0, 64, 63
1, 754250, Control_c, 0, 64, 62
1, 754260, Note_on_c, 0, 53, 37
1, 754265, Control_c, 0, 64, 62
1, 754279, Control_c, 0, 64, 61
1, 754283, Note_off_c, 0, 59, 44
1, 754294, Control_c, 0, 64, 61
1, 754309, Control_c, 0, 64, 60
1, 754324, Control_c, 0, 64, 59
1, 754339, Control_c, 0, 64, 58
1, 754354, Control_c, 0, 64, 57
1, 754398, Control_c, 0, 64, 57
1, 754413, Control_c, 0, 64, 56
1, 754428, Control_c, 0, 64, 56
1, 754443, Control_c, 0, 64, 55
1, 754458, Control_c, 0, 64, 55
1, 754473, Control_c, 0, 64, 54
1, 754487, Control_c, 0, 64, 53
1, 754502, Control_c, 0, 64, 52
1, 754517, Control_c, 0, 64, 52
1, 754532, Control_c, 0, 64, 51
1, 754561, Control_c, 0, 64, 50
1, 754576, Control_c, 0, 64, 48
1, 754591, Control_c, 0, 64, 45
1, 754606, Control_c, 0, 64, 43
1, 754621, Control_c, 0, 64, 39
1, 754635, Control_c, 0, 64, 34
1, 754638, Note_on_c, 0, 59, 34
1, 754650, Control_c, 0, 64, 0
1, 754734, Note_off_c, 0, 53, 36
1, 754888, Control_c, 0, 64, 33
1, 754902, Control_c, 0, 64, 41
1, 754917, Control_c, 0, 64, 51
1, 754932, Control_c, 0, 64, 56
1, 754947, Control_c, 0, 64, 58
1, 754962, Control_c, 0, 64, 59
1, 754984, Control_c, 0, 64, 61
1, 754999, Control_c, 0, 64, 62
1, 755014, Control_c, 0, 64, 63
1, 755029, Control_c, 0, 64, 65
1, 755044, Control_c, 0, 64, 66
1, 755058, Control_c, 0, 64, 66
1, 755073, Control_c, 0, 64, 67
1, 755088, Control_c, 0, 64, 68
1, 755102, Control_c, 0, 64, 69
1, 755117, Control_c, 0, 64, 69
1, 755124, Note_on_c, 0, 49, 27
1, 755132, Control_c, 0, 64, 70
1, 755176, Control_c, 0, 64, 70
1, 755206, Control_c, 0, 64, 71
1, 755221, Control_c, 0, 64, 71
1, 755236, Control_c, 0, 64, 72
1, 755251, Control_c, 0, 64, 72
1, 755266, Control_c, 0, 64, 73
1, 755281, Control_c, 0, 64, 74
1, 755296, Note_off_c, 0, 49, 35
1, 755296, Control_c, 0, 64, 75
1, 755310, Control_c, 0, 64, 76
1, 755325, Control_c, 0, 64, 77
1, 755332, Note_off_c, 0, 59, 37
1, 755340, Control_c, 0, 64, 78
1, 755355, Control_c, 0, 64, 79
1, 755370, Control_c, 0, 64, 80
1, 755403, Note_off_c, 0, 61, 37
1, 755414, Control_c, 0, 64, 80
1, 755622, Control_c, 0, 64, 80
1, 755667, Control_c, 0, 64, 79
1, 755696, Control_c, 0, 64, 79
1, 755711, Control_c, 0, 64, 78
1, 755733, Control_c, 0, 64, 77
1, 755748, Control_c, 0, 64, 76
1, 755763, Control_c, 0, 64, 76
1, 755778, Control_c, 0, 64, 75
1, 755793, Control_c, 0, 64, 74
1, 755807, Control_c, 0, 64, 73
1, 755822, Control_c, 0, 64, 72
1, 755837, Control_c, 0, 64, 70
1, 755852, Control_c, 0, 64, 69
1, 755867, Control_c, 0, 64, 68
1, 755881, Control_c, 0, 64, 67
1, 755896, Control_c, 0, 64, 66
1, 755911, Control_c, 0, 64, 65
1, 755925, Control_c, 0, 64, 64
1, 755940, Control_c, 0, 64, 63
1, 755951, Note_on_c, 0, 69, 41
1, 755955, Control_c, 0, 64, 62
1, 755970, Control_c, 0, 64, 61
1, 755985, Control_c, 0, 64, 60
1, 755999, Control_c, 0, 64, 56
1, 756014, Note_on_c, 0, 42, 29
1, 756014, Control_c, 0, 64, 49
1, 756029, Control_c, 0, 64, 35
1, 756044, Control_c, 0, 64, 0
1, 756118, Control_c, 0, 64, 34
1, 756133, Control_c, 0, 64, 49
1, 756148, Control_c, 0, 64, 61
1, 756163, Control_c, 0, 64, 64
1, 756178, Control_c, 0, 64, 67
1, 756181, Note_off_c, 0, 42, 53
1, 756193, Control_c, 0, 64, 70
1, 756207, Control_c, 0, 64, 73
1, 756222, Control_c, 0, 64, 77
1, 756237, Control_c, 0, 64, 80
1, 756251, Control_c, 0, 64, 83
1, 756266, Control_c, 0, 64, 85
1, 756281, Control_c, 0, 64, 86
1, 756297, Control_c, 0, 64, 87
1, 756312, Control_c, 0, 64, 88
1, 756327, Control_c, 0, 64, 88
1, 756342, Control_c, 0, 64, 89
1, 756356, Control_c, 0, 64, 90
1, 756371, Control_c, 0, 64, 91
1, 756386, Control_c, 0, 64, 92
1, 756401, Control_c, 0, 64, 93
1, 756416, Control_c, 0, 64, 94
1, 756430, Control_c, 0, 64, 95
1, 756445, Control_c, 0, 64, 95
1, 756482, Control_c, 0, 64, 97
1, 756527, Control_c, 0, 64, 99
1, 756544, Note_on_c, 0, 57, 23
1, 756704, Control_c, 0, 64, 101
1, 756885, Note_on_c, 0, 73, 51
1, 756938, Note_on_c, 0, 61, 33
1, 756953, Note_off_c, 0, 73, 59
1, 757012, Note_off_c, 0, 57, 40
1, 757082, Note_on_c, 0, 73, 57
1, 757144, Note_off_c, 0, 73, 58
1, 757162, Note_on_c, 0, 57, 25
1, 757191, Note_off_c, 0, 61, 40
1, 757270, Note_on_c, 0, 73, 58
1, 757312, Note_off_c, 0, 73, 53
1, 757459, Note_on_c, 0, 73, 41
1, 757492, Note_off_c, 0, 57, 34
1, 757496, Note_on_c, 0, 61, 21
1, 757588, Note_off_c, 0, 73, 46
1, 757762, Note_on_c, 0, 49, 27
1, 757777, Note_off_c, 0, 61, 41
1, 757802, Note_off_c, 0, 49, 51
1, 758024, Control_c, 0, 64, 99
1, 758054, Control_c, 0, 64, 96
1, 758069, Control_c, 0, 64, 94
1, 758083, Control_c, 0, 64, 92
1, 758098, Control_c, 0, 64, 89
1, 758106, Note_on_c, 0, 68, 47
1, 758113, Control_c, 0, 64, 87
1, 758127, Control_c, 0, 64, 84
1, 758142, Control_c, 0, 64, 79
1, 758148, Note_on_c, 0, 41, 36
1, 758157, Control_c, 0, 64, 72
1, 758162, Note_off_c, 0, 69, 46
1, 758172, Control_c, 0, 64, 64
1, 758187, Control_c, 0, 64, 49
1, 758202, Control_c, 0, 64, 29
1, 758217, Control_c, 0, 64, 0
1, 758247, Control_c, 0, 64, 33
1, 758261, Control_c, 0, 64, 47
1, 758276, Control_c, 0, 64, 58
1, 758291, Control_c, 0, 64, 66
1, 758293, Note_off_c, 0, 41, 63
1, 758306, Control_c, 0, 64, 73
1, 758321, Control_c, 0, 64, 80
1, 758335, Control_c, 0, 64, 87
1, 758350, Control_c, 0, 64, 93
1, 758365, Control_c, 0, 64, 101
1, 758380, Control_c, 0, 64, 110
1, 758395, Control_c, 0, 64, 127
1, 758524, Note_on_c, 0, 56, 33
1, 758780, Note_on_c, 0, 73, 54
1, 758849, Note_on_c, 0, 61, 33
1, 758871, Note_off_c, 0, 73, 61
1, 758892, Note_off_c, 0, 56, 43
1, 758989, Note_on_c, 0, 73, 59
1, 759045, Note_on_c, 0, 56, 33
1, 759053, Note_off_c, 0, 73, 62
1, 759081, Note_off_c, 0, 61, 41
1, 759149, Note_on_c, 0, 73, 57
1, 759221, Note_off_c, 0, 73, 59
1, 759350, Note_on_c, 0, 73, 45
1, 759366, Note_on_c, 0, 61, 33
1, 759514, Note_off_c, 0, 73, 60
1, 759557, Note_off_c, 0, 61, 45
1, 759558, Note_off_c, 0, 56, 22
1, 759590, Note_on_c, 0, 49, 36
1, 759635, Note_off_c, 0, 49, 55
1, 759834, Control_c, 0, 64, 114
1, 759848, Control_c, 0, 64, 108
1, 759862, Note_on_c, 0, 71, 54
1, 759863, Control_c, 0, 64, 101
1, 759867, Note_off_c, 0, 68, 51
1, 759878, Control_c, 0, 64, 94
1, 759892, Control_c, 0, 64, 85
1, 759907, Control_c, 0, 64, 72
1, 759922, Control_c, 0, 64, 58
1, 759937, Control_c, 0, 64, 43
1, 759943, Note_on_c, 0, 42, 37
1, 759952, Control_c, 0, 64, 33
1, 759967, Control_c, 0, 64, 35
1, 759979, Note_on_c, 0, 69, 57
1, 759981, Control_c, 0, 64, 43
1, 759996, Control_c, 0, 64, 53
1, 760011, Control_c, 0, 64, 61
1, 760026, Control_c, 0, 64, 67
1, 760041, Control_c, 0, 64, 75
1, 760042, Note_off_c, 0, 42, 60
1, 760056, Control_c, 0, 64, 81
1, 760071, Control_c, 0, 64, 84
1, 760073, Note_off_c, 0, 71, 36
1, 760086, Control_c, 0, 64, 89
1, 760100, Control_c, 0, 64, 94
1, 760115, Control_c, 0, 64, 98
1, 760130, Control_c, 0, 64, 103
1, 760145, Control_c, 0, 64, 106
1, 760174, Control_c, 0, 64, 108
1, 760231, Note_on_c, 0, 68, 65
1, 760256, Control_c, 0, 64, 110
1, 760283, Note_on_c, 0, 57, 39
1, 760288, Note_off_c, 0, 69, 58
1, 760495, Note_on_c, 0, 69, 70
1, 760497, Note_off_c, 0, 68, 59
1, 760531, Note_on_c, 0, 61, 37
1, 760551, Note_off_c, 0, 57, 35
1, 760568, Control_c, 0, 64, 107
1, 760597, Control_c, 0, 64, 105
1, 760627, Control_c, 0, 64, 103
1, 760656, Control_c, 0, 64, 100
1, 760686, Control_c, 0, 64, 97
1, 760701, Control_c, 0, 64, 95
1, 760715, Control_c, 0, 64, 94
1, 760730, Control_c, 0, 64, 92
1, 760745, Control_c, 0, 64, 90
1, 760749, Note_on_c, 0, 73, 63
1, 760759, Note_on_c, 0, 57, 39
1, 760760, Control_c, 0, 64, 89
1, 760763, Note_off_c, 0, 61, 36
1, 760775, Control_c, 0, 64, 87
1, 760789, Control_c, 0, 64, 85
1, 760804, Control_c, 0, 64, 84
1, 760806, Note_off_c, 0, 69, 56
1, 760819, Control_c, 0, 64, 82
1, 760834, Control_c, 0, 64, 80
1, 760849, Control_c, 0, 64, 78
1, 760864, Control_c, 0, 64, 76
1, 760879, Control_c, 0, 64, 74
1, 760894, Control_c, 0, 64, 71
1, 760909, Control_c, 0, 64, 69
1, 760923, Control_c, 0, 64, 66
1, 760938, Control_c, 0, 64, 64
1, 760953, Control_c, 0, 64, 62
1, 760975, Control_c, 0, 64, 61
1, 760990, Control_c, 0, 64, 59
1, 761004, Control_c, 0, 64, 58
1, 761019, Control_c, 0, 64, 57
1, 761034, Control_c, 0, 64, 55
1, 761048, Control_c, 0, 64, 52
1, 761063, Control_c, 0, 64, 48
1, 761075, Note_on_c, 0, 78, 40
1, 761078, Control_c, 0, 64, 43
1, 761079, Note_on_c, 0, 69, 43
1, 761093, Control_c, 0, 64, 36
1, 761097, Note_off_c, 0, 57, 44
1, 761104, Note_on_c, 0, 61, 30
1, 761108, Control_c, 0, 64, 0
1, 761125, Note_off_c, 0, 73, 54
1, 761242, Control_c, 0, 64, 35
1, 761257, Control_c, 0, 64, 50
1, 761268, Note_off_c, 0, 78, 54
1, 761271, Control_c, 0, 64, 59
1, 761286, Control_c, 0, 64, 63
1, 761301, Control_c, 0, 64, 65
1, 761316, Control_c, 0, 64, 67
1, 761331, Control_c, 0, 64, 70
1, 761345, Control_c, 0, 64, 74
1, 761360, Control_c, 0, 64, 78
1, 761375, Control_c, 0, 64, 81
1, 761384, Note_on_c, 0, 49, 30
1, 761390, Control_c, 0, 64, 84
1, 761404, Note_off_c, 0, 61, 41
1, 761405, Control_c, 0, 64, 87
1, 761419, Control_c, 0, 64, 90
1, 761423, Note_off_c, 0, 49, 50
1, 761434, Control_c, 0, 64, 93
1, 761449, Control_c, 0, 64, 95
1, 761478, Control_c, 0, 64, 97
1, 761740, Note_on_c, 0, 68, 49
1, 761752, Control_c, 0, 64, 96
1, 761767, Control_c, 0, 64, 93
1, 761782, Control_c, 0, 64, 88
1, 761797, Control_c, 0, 64, 81
1, 761800, Note_on_c, 0, 41, 38
1, 761809, Note_off_c, 0, 69, 37
1, 761812, Control_c, 0, 64, 70
1, 761827, Control_c, 0, 64, 55
1, 761842, Control_c, 0, 64, 28
1, 761856, Control_c, 0, 64, 0
1, 761886, Control_c, 0, 64, 35
1, 761901, Control_c, 0, 64, 50
1, 761915, Note_off_c, 0, 41, 64
1, 761916, Control_c, 0, 64, 61
1, 761931, Control_c, 0, 64, 67
1, 761946, Control_c, 0, 64, 72
1, 761961, Control_c, 0, 64, 79
1, 761976, Control_c, 0, 64, 84
1, 761991, Control_c, 0, 64, 90
1, 762006, Control_c, 0, 64, 97
1, 762020, Control_c, 0, 64, 105
1, 762035, Control_c, 0, 64, 117
1, 762050, Control_c, 0, 64, 127
1, 762160, Note_on_c, 0, 56, 38
1, 762423, Note_on_c, 0, 73, 55
1, 762494, Note_on_c, 0, 61, 28
1, 762514, Note_off_c, 0, 73, 62
1, 762540, Note_off_c, 0, 56, 42
1, 762630, Note_on_c, 0, 73, 61
1, 762695, Note_on_c, 0, 56, 31
1, 762697, Note_off_c, 0, 73, 61
1, 762730, Note_off_c, 0, 61, 43
1, 762802, Note_on_c, 0, 73, 61
1, 762877, Note_off_c, 0, 73, 61
1, 762982, Note_on_c, 0, 73, 55
1, 762995, Note_on_c, 0, 61, 35
1, 763088, Note_off_c, 0, 56, 35
1, 763125, Note_off_c, 0, 73, 59
1, 763246, Note_off_c, 0, 61, 43
1, 763268, Note_on_c, 0, 49, 33
1, 763302, Note_off_c, 0, 49, 51
1, 763562, Control_c, 0, 64, 117
1, 763576, Control_c, 0, 64, 107
1, 763591, Control_c, 0, 64, 99
1, 763606, Control_c, 0, 64, 93
1, 763621, Control_c, 0, 64, 87
1, 763623, Note_on_c, 0, 73, 65
1, 763636, Control_c, 0, 64, 78
1, 763651, Control_c, 0, 64, 66
1, 763660, Note_off_c, 0, 68, 61
1, 763665, Control_c, 0, 64, 51
1, 763680, Control_c, 0, 64, 0
1, 763702, Note_on_c, 0, 45, 38
1, 763739, Control_c, 0, 64, 42
1, 763754, Control_c, 0, 64, 58
1, 763769, Control_c, 0, 64, 68
1, 763784, Control_c, 0, 64, 77
1, 763790, Note_off_c, 0, 45, 62
1, 763799, Control_c, 0, 64, 88
1, 763813, Control_c, 0, 64, 99
1, 763828, Control_c, 0, 64, 127
1, 764012, Note_on_c, 0, 60, 38
1, 764261, Note_on_c, 0, 78, 60
1, 764266, Note_off_c, 0, 60, 61
1, 764323, Note_on_c, 0, 61, 34
1, 764433, Note_on_c, 0, 81, 65
1, 764476, Note_off_c, 0, 78, 58
1, 764549, Note_on_c, 0, 49, 44
1, 764558, Note_off_c, 0, 61, 43
1, 764596, Note_on_c, 0, 80, 73
1, 764621, Control_c, 0, 64, 116
1, 764636, Control_c, 0, 64, 109
1, 764651, Control_c, 0, 64, 105
1, 764666, Control_c, 0, 64, 102
1, 764680, Control_c, 0, 64, 98
1, 764681, Note_off_c, 0, 81, 58
1, 764695, Control_c, 0, 64, 93
1, 764718, Control_c, 0, 64, 84
1, 764733, Control_c, 0, 64, 76
1, 764748, Control_c, 0, 64, 66
1, 764763, Control_c, 0, 64, 57
1, 764777, Control_c, 0, 64, 50
1, 764779, Note_on_c, 0, 78, 74
1, 764807, Control_c, 0, 64, 53
1, 764817, Note_on_c, 0, 61, 41
1, 764821, Control_c, 0, 64, 58
1, 764836, Control_c, 0, 64, 62
1, 764851, Control_c, 0, 64, 68
1, 764862, Note_off_c, 0, 80, 59
1, 764866, Control_c, 0, 64, 76
1, 764881, Control_c, 0, 64, 84
1, 764885, Note_off_c, 0, 49, 32
1, 764895, Control_c, 0, 64, 90
1, 764910, Control_c, 0, 64, 96
1, 764925, Control_c, 0, 64, 106
1, 764940, Control_c, 0, 64, 118
1, 764940, Control_c, 0, 67, 116
1, 764955, Control_c, 0, 64, 127
1, 764955, Control_c, 0, 67, 96
1, 764969, Control_c, 0, 67, 78
1, 764984, Control_c, 0, 67, 60
1, 764999, Control_c, 0, 67, 42
1, 765005, Note_off_c, 0, 78, 59
1, 765013, Control_c, 0, 67, 0
1, 765041, Note_on_c, 0, 49, 47
1, 765041, Note_off_c, 0, 61, 61
1, 765088, Note_off_c, 0, 49, 60
1, 765296, Control_c, 0, 64, 113
1, 765311, Control_c, 0, 64, 101
1, 765326, Control_c, 0, 64, 87
1, 765330, Note_on_c, 0, 74, 77
1, 765341, Control_c, 0, 64, 72
1, 765356, Control_c, 0, 64, 56
1, 765358, Note_off_c, 0, 73, 49
1, 765370, Note_on_c, 0, 47, 51
1, 765371, Control_c, 0, 64, 34
1, 765385, Control_c, 0, 64, 0
1, 765415, Control_c, 0, 64, 40
1, 765429, Control_c, 0, 64, 59
1, 765444, Control_c, 0, 64, 69
1, 765466, Note_off_c, 0, 47, 63
1, 765466, Control_c, 0, 64, 80
1, 765481, Control_c, 0, 64, 92
1, 765496, Control_c, 0, 64, 102
1, 765511, Control_c, 0, 64, 127
1, 765640, Note_on_c, 0, 60, 49
1, 765860, Note_off_c, 0, 60, 59
1, 765905, Note_on_c, 0, 77, 69
1, 765916, Note_on_c, 0, 61, 42
1, 766071, Note_on_c, 0, 80, 72
1, 766074, Control_c, 0, 64, 123
1, 766089, Control_c, 0, 64, 114
1, 766104, Note_off_c, 0, 77, 62
1, 766104, Control_c, 0, 64, 108
1, 766119, Control_c, 0, 64, 105
1, 766129, Note_on_c, 0, 49, 47
1, 766134, Control_c, 0, 64, 102
1, 766149, Control_c, 0, 64, 99
1, 766152, Note_off_c, 0, 61, 36
1, 766164, Control_c, 0, 64, 96
1, 766179, Control_c, 0, 64, 93
1, 766194, Control_c, 0, 64, 90
1, 766215, Control_c, 0, 64, 86
1, 766230, Control_c, 0, 64, 82
1, 766234, Note_on_c, 0, 78, 75
1, 766245, Control_c, 0, 64, 75
1, 766259, Control_c, 0, 64, 69
1, 766274, Control_c, 0, 64, 63
1, 766290, Control_c, 0, 64, 55
1, 766305, Control_c, 0, 64, 44
1, 766320, Control_c, 0, 64, 0
1, 766345, Note_off_c, 0, 80, 39
1, 766393, Control_c, 0, 64, 34
1, 766408, Control_c, 0, 64, 44
1, 766411, Note_on_c, 0, 77, 69
1, 766423, Control_c, 0, 64, 55
1, 766438, Control_c, 0, 64, 61
1, 766441, Note_on_c, 0, 61, 36
1, 766453, Control_c, 0, 64, 65
1, 766468, Control_c, 0, 64, 67
1, 766471, Note_off_c, 0, 49, 28
1, 766483, Control_c, 0, 64, 70
1, 766498, Control_c, 0, 64, 73
1, 766513, Control_c, 0, 64, 78
1, 766528, Control_c, 0, 64, 82
1, 766542, Control_c, 0, 64, 87
1, 766557, Control_c, 0, 64, 91
1, 766572, Control_c, 0, 64, 95
1, 766586, Control_c, 0, 64, 99
1, 766596, Note_off_c, 0, 78, 28
1, 766601, Control_c, 0, 64, 104
1, 766616, Control_c, 0, 64, 109
1, 766630, Note_off_c, 0, 77, 62
1, 766631, Control_c, 0, 64, 114
1, 766646, Control_c, 0, 64, 118
1, 766660, Control_c, 0, 64, 126
1, 766669, Note_on_c, 0, 49, 46
1, 766677, Note_off_c, 0, 61, 40
1, 766709, Note_off_c, 0, 74, 54
1, 766715, Note_off_c, 0, 49, 61
1, 766943, Control_c, 0, 64, 116
1, 766965, Control_c, 0, 64, 110
1, 766980, Control_c, 0, 64, 105
1, 766995, Control_c, 0, 64, 100
1, 766999, Note_on_c, 0, 78, 65
1, 767009, Note_on_c, 0, 74, 64
1, 767009, Control_c, 0, 64, 96
1, 767024, Control_c, 0, 64, 91
1, 767038, Control_c, 0, 64, 86
1, 767053, Control_c, 0, 64, 79
1, 767065, Note_on_c, 0, 45, 42
1, 767068, Control_c, 0, 64, 66
1, 767083, Control_c, 0, 64, 52
1, 767097, Control_c, 0, 64, 0
1, 767157, Control_c, 0, 64, 37
1, 767171, Control_c, 0, 64, 57
1, 767186, Control_c, 0, 64, 66
1, 767201, Control_c, 0, 64, 71
1, 767216, Control_c, 0, 64, 75
1, 767231, Control_c, 0, 64, 79
1, 767246, Control_c, 0, 64, 84
1, 767261, Control_c, 0, 64, 89
1, 767276, Control_c, 0, 64, 95
1, 767277, Note_off_c, 0, 74, 58
1, 767283, Note_off_c, 0, 45, 57
1, 767290, Control_c, 0, 64, 98
1, 767297, Note_on_c, 0, 49, 45
1, 767305, Control_c, 0, 64, 101
1, 767320, Control_c, 0, 64, 104
1, 767335, Control_c, 0, 64, 106
1, 767346, Note_off_c, 0, 49, 57
1, 767350, Control_c, 0, 64, 109
1, 767364, Control_c, 0, 64, 111
1, 767394, Control_c, 0, 64, 114
1, 767399, Note_on_c, 0, 73, 62
1, 767445, Note_off_c, 0, 73, 54
1, 767538, Note_on_c, 0, 77, 70
1, 767543, Control_c, 0, 64, 109
1, 767546, Note_on_c, 0, 73, 70
1, 767558, Control_c, 0, 64, 100
1, 767568, Note_on_c, 0, 44, 43
1, 767573, Control_c, 0, 64, 82
1, 767587, Control_c, 0, 64, 66
1, 767602, Control_c, 0, 64, 48
1, 767613, Note_off_c, 0, 78, 51
1, 767617, Control_c, 0, 64, 0
1, 767661, Control_c, 0, 64, 30
1, 767676, Control_c, 0, 64, 50
1, 767691, Control_c, 0, 64, 62
1, 767713, Control_c, 0, 64, 67
1, 767728, Control_c, 0, 64, 72
1, 767743, Control_c, 0, 64, 74
1, 767758, Control_c, 0, 64, 77
1, 767773, Control_c, 0, 64, 80
1, 767777, Note_off_c, 0, 44, 49
1, 767787, Control_c, 0, 64, 84
1, 767792, Note_off_c, 0, 73, 55
1, 767802, Note_on_c, 0, 49, 43
1, 767802, Control_c, 0, 64, 86
1, 767817, Control_c, 0, 64, 87
1, 767832, Control_c, 0, 64, 87
1, 767845, Note_off_c, 0, 49, 49
1, 767861, Control_c, 0, 64, 88
1, 767861, Control_c, 0, 67, 38
1, 767876, Control_c, 0, 67, 48
1, 767891, Control_c, 0, 67, 56
1, 767906, Control_c, 0, 67, 61
1, 767920, Note_on_c, 0, 71, 57
1, 767920, Control_c, 0, 67, 63
1, 767935, Control_c, 0, 67, 63
1, 767965, Control_c, 0, 64, 87
1, 767969, Note_off_c, 0, 71, 53
1, 767979, Control_c, 0, 67, 64
1, 767994, Control_c, 0, 64, 87
1, 768009, Control_c, 0, 64, 86
1, 768024, Control_c, 0, 64, 85
1, 768024, Control_c, 0, 67, 64
1, 768039, Control_c, 0, 64, 83
1, 768054, Control_c, 0, 64, 80
1, 768067, Note_on_c, 0, 71, 57
1, 768069, Control_c, 0, 64, 75
1, 768077, Note_on_c, 0, 78, 61
1, 768084, Control_c, 0, 64, 66
1, 768093, Note_on_c, 0, 42, 43
1, 768098, Control_c, 0, 64, 52
1, 768113, Control_c, 0, 64, 0
1, 768131, Note_off_c, 0, 77, 56
1, 768187, Control_c, 0, 64, 44
1, 768187, Control_c, 0, 67, 64
1, 768202, Control_c, 0, 64, 59
1, 768217, Control_c, 0, 64, 65
1, 768217, Control_c, 0, 67, 63
1, 768231, Control_c, 0, 64, 69
1, 768231, Control_c, 0, 67, 63
1, 768246, Control_c, 0, 64, 71
1, 768246, Control_c, 0, 67, 62
1, 768261, Control_c, 0, 64, 73
1, 768261, Control_c, 0, 67, 61
1, 768277, Control_c, 0, 64, 76
1, 768292, Control_c, 0, 64, 79
1, 768292, Control_c, 0, 67, 61
1, 768307, Control_c, 0, 64, 81
1, 768307, Control_c, 0, 67, 60
1, 768316, Note_off_c, 0, 42, 33
1, 768322, Control_c, 0, 64, 82
1, 768322, Control_c, 0, 67, 60
1, 768336, Control_c, 0, 64, 83
1, 768336, Control_c, 0, 67, 59
1, 768340, Note_off_c, 0, 71, 53
1, 768351, Control_c, 0, 67, 58
1, 768358, Note_on_c, 0, 49, 43
1, 768366, Control_c, 0, 64, 83
1, 768366, Control_c, 0, 67, 58
1, 768381, Control_c, 0, 67, 57
1, 768396, Control_c, 0, 67, 56
1, 768403, Note_off_c, 0, 49, 58
1, 768410, Control_c, 0, 67, 55
1, 768425, Control_c, 0, 67, 54
1, 768440, Control_c, 0, 67, 54
1, 768462, Control_c, 0, 67, 53
1, 768472, Note_on_c, 0, 69, 58
1, 768477, Control_c, 0, 67, 53
1, 768507, Control_c, 0, 67, 52
1, 768508, Note_off_c, 0, 69, 62
1, 768522, Control_c, 0, 64, 83
1, 768566, Control_c, 0, 64, 82
1, 768581, Control_c, 0, 64, 82
1, 768596, Control_c, 0, 64, 81
1, 768610, Control_c, 0, 64, 80
1, 768610, Control_c, 0, 67, 53
1, 768625, Control_c, 0, 64, 78
1, 768640, Control_c, 0, 64, 77
1, 768655, Control_c, 0, 64, 75
1, 768667, Note_off_c, 0, 78, 57
1, 768669, Control_c, 0, 64, 73
1, 768684, Control_c, 0, 64, 71
1, 768699, Control_c, 0, 64, 69
1, 768714, Control_c, 0, 64, 67
1, 768715, Note_on_c, 0, 80, 55
1, 768729, Control_c, 0, 64, 64
1, 768730, Note_on_c, 0, 77, 48
1, 768743, Note_on_c, 0, 73, 41
1, 768743, Control_c, 0, 64, 61
1, 768745, Note_on_c, 0, 68, 43
1, 768758, Control_c, 0, 64, 54
1, 768773, Control_c, 0, 64, 38
1, 768787, Control_c, 0, 64, 0
1, 768795, Note_on_c, 0, 37, 30
1, 768802, Control_c, 0, 67, 52
1, 768832, Control_c, 0, 67, 52
1, 768862, Control_c, 0, 64, 30
1, 768877, Control_c, 0, 64, 51
1, 768877, Control_c, 0, 67, 51
1, 768887, Note_off_c, 0, 37, 60
1, 768891, Control_c, 0, 64, 65
1, 768906, Control_c, 0, 64, 70
1, 768921, Control_c, 0, 64, 74
1, 768921, Control_c, 0, 67, 50
1, 768936, Control_c, 0, 64, 79
1, 768951, Control_c, 0, 64, 85
1, 768951, Control_c, 0, 67, 50
1, 768966, Control_c, 0, 64, 91
1, 768980, Control_c, 0, 64, 97
1, 768995, Control_c, 0, 64, 105
1, 768995, Control_c, 0, 67, 49
1, 769010, Control_c, 0, 64, 108
1, 769025, Control_c, 0, 67, 49
1, 769040, Control_c, 0, 67, 48
1, 769054, Control_c, 0, 67, 48
1, 769085, Control_c, 0, 64, 110
1, 769085, Control_c, 0, 67, 47
1, 769100, Control_c, 0, 67, 46
1, 769115, Control_c, 0, 64, 112
1, 769115, Control_c, 0, 67, 46
1, 769122, Note_on_c, 0, 56, 43
1, 769130, Control_c, 0, 67, 45
1, 769159, Control_c, 0, 67, 44
1, 769174, Control_c, 0, 67, 43
1, 769225, Control_c, 0, 67, 43
1, 769240, Control_c, 0, 67, 42
1, 769255, Control_c, 0, 67, 41
1, 769270, Control_c, 0, 67, 41
1, 769285, Control_c, 0, 67, 39
1, 769300, Control_c, 0, 67, 39
1, 769330, Control_c, 0, 67, 38
1, 769345, Control_c, 0, 64, 110
1, 769374, Control_c, 0, 64, 108
1, 769389, Control_c, 0, 64, 106
1, 769392, Note_on_c, 0, 61, 42
1, 769434, Control_c, 0, 64, 103
1, 769449, Control_c, 0, 64, 101
1, 769464, Control_c, 0, 64, 99
1, 769493, Control_c, 0, 64, 96
1, 769493, Control_c, 0, 67, 39
1, 769498, Note_off_c, 0, 56, 34
1, 769508, Control_c, 0, 64, 94
1, 769523, Control_c, 0, 64, 91
1, 769538, Control_c, 0, 64, 89
1, 769553, Control_c, 0, 64, 88
1, 769567, Control_c, 0, 64, 86
1, 769582, Control_c, 0, 64, 84
1, 769597, Control_c, 0, 64, 82
1, 769611, Control_c, 0, 64, 80
1, 769626, Control_c, 0, 64, 78
1, 769626, Control_c, 0, 67, 39
1, 769641, Control_c, 0, 64, 77
1, 769648, Note_off_c, 0, 61, 41
1, 769650, Note_on_c, 0, 53, 39
1, 769656, Control_c, 0, 64, 75
1, 769671, Control_c, 0, 64, 74
1, 769685, Control_c, 0, 64, 73
1, 769700, Control_c, 0, 64, 72
1, 769715, Control_c, 0, 64, 70
1, 769730, Control_c, 0, 64, 69
1, 769745, Control_c, 0, 64, 68
1, 769745, Control_c, 0, 67, 40
1, 769759, Control_c, 0, 64, 67
1, 769774, Control_c, 0, 64, 66
1, 769789, Control_c, 0, 64, 65
1, 769804, Control_c, 0, 64, 65
1, 769818, Control_c, 0, 64, 64
1, 769818, Control_c, 0, 67, 41
1, 769833, Control_c, 0, 64, 63
1, 769833, Control_c, 0, 67, 41
1, 769848, Control_c, 0, 64, 63
1, 769863, Control_c, 0, 64, 62
1, 769863, Control_c, 0, 67, 42
1, 769879, Control_c, 0, 64, 62
1, 769879, Control_c, 0, 67, 42
1, 769894, Control_c, 0, 64, 61
1, 769894, Control_c, 0, 67, 43
1, 769908, Control_c, 0, 64, 60
1, 769908, Control_c, 0, 67, 43
1, 769923, Control_c, 0, 64, 60
1, 769923, Control_c, 0, 67, 44
1, 769938, Control_c, 0, 64, 59
1, 769938, Control_c, 0, 67, 45
1, 769961, Control_c, 0, 64, 59
1, 769961, Control_c, 0, 67, 45
1, 769976, Control_c, 0, 64, 58
1, 769976, Control_c, 0, 67, 46
1, 769990, Control_c, 0, 64, 57
1, 769990, Control_c, 0, 67, 47
1, 769999, Note_on_c, 0, 61, 32
1, 770005, Control_c, 0, 64, 56
1, 770005, Control_c, 0, 67, 48
1, 770015, Note_off_c, 0, 53, 35
1, 770020, Control_c, 0, 64, 54
1, 770020, Control_c, 0, 67, 48
1, 770034, Control_c, 0, 64, 50
1, 770034, Control_c, 0, 67, 52
1, 770049, Control_c, 0, 64, 44
1, 770064, Control_c, 0, 64, 38
1, 770079, Control_c, 0, 64, 35
1, 770108, Control_c, 0, 64, 37
1, 770123, Control_c, 0, 64, 42
1, 770138, Control_c, 0, 64, 46
1, 770153, Control_c, 0, 64, 50
1, 770168, Control_c, 0, 64, 55
1, 770168, Control_c, 0, 67, 51
1, 770182, Control_c, 0, 64, 59
1, 770197, Control_c, 0, 64, 61
1, 770212, Control_c, 0, 64, 63
1, 770212, Control_c, 0, 67, 50
1, 770227, Control_c, 0, 64, 66
1, 770242, Control_c, 0, 64, 67
1, 770242, Control_c, 0, 67, 50
1, 770257, Control_c, 0, 64, 68
1, 770272, Control_c, 0, 64, 70
1, 770286, Control_c, 0, 64, 71
1, 770301, Control_c, 0, 64, 73
1, 770301, Control_c, 0, 67, 49
1, 770316, Control_c, 0, 64, 74
1, 770331, Control_c, 0, 64, 75
1, 770346, Control_c, 0, 64, 76
1, 770350, Note_on_c, 0, 49, 27
1, 770360, Control_c, 0, 64, 77
1, 770375, Control_c, 0, 64, 78
1, 770390, Control_c, 0, 64, 78
1, 770420, Note_off_c, 0, 61, 35
1, 770420, Control_c, 0, 64, 79
1, 770464, Control_c, 0, 67, 50
1, 770471, Note_off_c, 0, 49, 45
1, 770491, Note_off_c, 0, 68, 36
1, 770496, Note_off_c, 0, 80, 32
1, 770525, Note_off_c, 0, 77, 41
1, 770538, Control_c, 0, 64, 78
1, 770538, Control_c, 0, 67, 49
1, 770597, Control_c, 0, 64, 78
1, 770605, Note_off_c, 0, 73, 26
1, 770612, Control_c, 0, 64, 77
1, 770626, Control_c, 0, 64, 77
1, 770641, Control_c, 0, 64, 76
1, 770656, Control_c, 0, 64, 76
1, 770672, Control_c, 0, 64, 75
1, 770687, Control_c, 0, 64, 75
1, 770710, Control_c, 0, 64, 74
1, 770725, Control_c, 0, 64, 73
1, 770739, Control_c, 0, 64, 72
1, 770754, Control_c, 0, 64, 72
1, 770769, Control_c, 0, 64, 71
1, 770784, Control_c, 0, 64, 70
1, 770799, Control_c, 0, 64, 69
1, 770813, Control_c, 0, 64, 68
1, 770828, Control_c, 0, 64, 67
1, 770843, Control_c, 0, 64, 65
1, 770857, Control_c, 0, 64, 64
1, 770872, Control_c, 0, 64, 63
1, 770887, Control_c, 0, 64, 60
1, 770902, Control_c, 0, 64, 57
1, 770917, Control_c, 0, 64, 54
1, 770924, Note_on_c, 0, 69, 53
1, 770931, Control_c, 0, 64, 49
1, 770931, Control_c, 0, 67, 49
1, 770946, Control_c, 0, 64, 38
1, 770961, Control_c, 0, 64, 0
1, 770975, Control_c, 0, 67, 48
1, 770998, Note_on_c, 0, 42, 14
1, 771005, Control_c, 0, 67, 48
1, 771050, Control_c, 0, 64, 28
1, 771064, Control_c, 0, 64, 44
1, 771079, Control_c, 0, 64, 56
1, 771094, Control_c, 0, 64, 63
1, 771109, Control_c, 0, 64, 67
1, 771124, Control_c, 0, 64, 70
1, 771139, Control_c, 0, 64, 73
1, 771151, Note_off_c, 0, 42, 54
1, 771154, Control_c, 0, 64, 77
1, 771169, Control_c, 0, 64, 80
1, 771183, Control_c, 0, 64, 83
1, 771198, Control_c, 0, 64, 87
1, 771213, Control_c, 0, 64, 89
1, 771228, Control_c, 0, 64, 91
1, 771243, Control_c, 0, 64, 92
1, 771257, Control_c, 0, 64, 92
1, 771257, Control_c, 0, 67, 48
1, 771272, Control_c, 0, 64, 93
1, 771287, Control_c, 0, 67, 50
1, 771302, Control_c, 0, 64, 94
1, 771317, Control_c, 0, 64, 94
1, 771331, Control_c, 0, 64, 95
1, 771346, Control_c, 0, 64, 95
1, 771361, Control_c, 0, 64, 96
1, 771434, Note_on_c, 0, 57, 16
1, 771435, Control_c, 0, 67, 50
1, 771457, Control_c, 0, 64, 98
1, 771457, Control_c, 0, 67, 51
1, 771488, Control_c, 0, 67, 52
1, 771503, Control_c, 0, 67, 52
1, 771518, Control_c, 0, 67, 53
1, 771532, Control_c, 0, 67, 54
1, 771547, Control_c, 0, 67, 55
1, 771561, Control_c, 0, 67, 56
1, 771576, Control_c, 0, 67, 57
1, 771591, Control_c, 0, 67, 58
1, 771650, Control_c, 0, 67, 58
1, 771665, Control_c, 0, 67, 59
1, 771679, Control_c, 0, 67, 60
1, 771694, Control_c, 0, 67, 60
1, 771709, Control_c, 0, 67, 62
1, 771724, Control_c, 0, 67, 64
1, 771739, Control_c, 0, 67, 65
1, 771753, Note_on_c, 0, 73, 42
1, 771753, Control_c, 0, 67, 65
1, 771768, Control_c, 0, 67, 67
1, 771783, Control_c, 0, 67, 68
1, 771798, Control_c, 0, 67, 68
1, 771807, Note_on_c, 0, 61, 29
1, 771813, Control_c, 0, 67, 69
1, 771818, Note_off_c, 0, 73, 56
1, 771828, Control_c, 0, 67, 74
1, 771842, Control_c, 0, 67, 101
1, 771857, Control_c, 0, 67, 121
1, 771872, Control_c, 0, 67, 127
1, 771887, Note_off_c, 0, 57, 41
1, 771941, Note_on_c, 0, 73, 56
1, 771989, Note_off_c, 0, 73, 54
1, 772041, Note_on_c, 0, 57, 31
1, 772086, Note_off_c, 0, 61, 38
1, 772107, Note_on_c, 0, 73, 54
1, 772150, Note_off_c, 0, 73, 59
1, 772284, Note_on_c, 0, 73, 47
1, 772330, Note_off_c, 0, 57, 40
1, 772331, Note_on_c, 0, 61, 33
1, 772453, Note_off_c, 0, 73, 48
1, 772458, Control_c, 0, 64, 96
1, 772488, Control_c, 0, 64, 95
1, 772517, Control_c, 0, 67, 125
1, 772532, Control_c, 0, 64, 95
1, 772573, Note_on_c, 0, 49, 35
1, 772576, Control_c, 0, 64, 94
1, 772585, Note_off_c, 0, 61, 42
1, 772609, Note_off_c, 0, 49, 54
1, 772621, Control_c, 0, 64, 94
1, 772650, Control_c, 0, 64, 93
1, 772680, Control_c, 0, 64, 93
1, 772710, Control_c, 0, 64, 92
1, 772725, Control_c, 0, 64, 92
1, 772754, Control_c, 0, 64, 91
1, 772769, Control_c, 0, 64, 90
1, 772784, Control_c, 0, 64, 89
1, 772799, Control_c, 0, 64, 88
1, 772814, Control_c, 0, 64, 87
1, 772828, Control_c, 0, 64, 85
1, 772843, Control_c, 0, 64, 84
1, 772858, Control_c, 0, 64, 82
1, 772873, Control_c, 0, 64, 80
1, 772888, Control_c, 0, 64, 78
1, 772902, Control_c, 0, 64, 75
1, 772902, Control_c, 0, 67, 123
1, 772907, Note_on_c, 0, 68, 54
1, 772917, Control_c, 0, 64, 72
1, 772932, Control_c, 0, 64, 67
1, 772954, Control_c, 0, 64, 58
1, 772969, Control_c, 0, 64, 42
1, 772978, Note_on_c, 0, 41, 42
1, 772984, Control_c, 0, 64, 0
1, 772998, Note_off_c, 0, 69, 50
1, 772999, Control_c, 0, 67, 121
1, 773029, Control_c, 0, 67, 119
1, 773044, Control_c, 0, 64, 39
1, 773059, Control_c, 0, 64, 55
1, 773059, Control_c, 0, 67, 117
1, 773074, Control_c, 0, 64, 64
1, 773089, Note_off_c, 0, 41, 63
1, 773089, Control_c, 0, 64, 70
1, 773104, Control_c, 0, 64, 74
1, 773119, Control_c, 0, 64, 77
1, 773119, Control_c, 0, 67, 114
1, 773133, Control_c, 0, 64, 80
1, 773148, Control_c, 0, 64, 84
1, 773163, Control_c, 0, 64, 87
1, 773178, Control_c, 0, 64, 90
1, 773193, Control_c, 0, 64, 93
1, 773208, Control_c, 0, 64, 94
1, 773223, Control_c, 0, 64, 95
1, 773238, Control_c, 0, 64, 96
1, 773319, Note_on_c, 0, 56, 39
1, 773326, Control_c, 0, 67, 112
1, 773341, Control_c, 0, 64, 98
1, 773415, Control_c, 0, 67, 110
1, 773474, Control_c, 0, 67, 108
1, 773489, Control_c, 0, 67, 106
1, 773504, Control_c, 0, 67, 103
1, 773519, Control_c, 0, 67, 99
1, 773533, Control_c, 0, 67, 94
1, 773548, Control_c, 0, 67, 89
1, 773563, Control_c, 0, 67, 82
1, 773574, Note_on_c, 0, 73, 55
1, 773577, Control_c, 0, 67, 75
1, 773592, Control_c, 0, 67, 67
1, 773607, Control_c, 0, 67, 59
1, 773622, Control_c, 0, 67, 53
1, 773637, Control_c, 0, 67, 47
1, 773647, Note_on_c, 0, 61, 28
1, 773651, Note_off_c, 0, 73, 61
1, 773652, Control_c, 0, 67, 39
1, 773664, Note_off_c, 0, 56, 33
1, 773667, Control_c, 0, 67, 0
1, 773764, Note_on_c, 0, 73, 60
1, 773825, Note_on_c, 0, 56, 37
1, 773829, Note_off_c, 0, 73, 60
1, 773885, Note_off_c, 0, 61, 37
1, 773928, Note_on_c, 0, 73, 56
1, 773987, Note_off_c, 0, 73, 55
1, 774119, Note_on_c, 0, 73, 48
1, 774144, Note_on_c, 0, 61, 29
1, 774231, Note_off_c, 0, 56, 36
1, 774278, Note_off_c, 0, 73, 56
1, 774359, Note_off_c, 0, 61, 42
1, 774376, Note_on_c, 0, 49, 37
1, 774418, Note_off_c, 0, 49, 56
1, 774541, Control_c, 0, 64, 95
1, 774556, Control_c, 0, 64, 93
1, 774571, Control_c, 0, 64, 91
1, 774586, Control_c, 0, 64, 89
1, 774600, Control_c, 0, 64, 87
1, 774615, Control_c, 0, 64, 84
1, 774630, Control_c, 0, 64, 82
1, 774645, Control_c, 0, 64, 79
1, 774660, Control_c, 0, 64, 76
1, 774674, Note_on_c, 0, 71, 51
1, 774676, Control_c, 0, 64, 69
1, 774691, Note_off_c, 0, 68, 52
1, 774691, Control_c, 0, 64, 58
1, 774705, Control_c, 0, 64, 38
1, 774720, Control_c, 0, 64, 0
1, 774726, Note_on_c, 0, 42, 35
1, 774765, Control_c, 0, 64, 40
1, 774767, Note_on_c, 0, 69, 54
1, 774779, Control_c, 0, 64, 56
1, 774794, Control_c, 0, 64, 65
1, 774809, Control_c, 0, 64, 70
1, 774822, Note_off_c, 0, 42, 60
1, 774823, Control_c, 0, 64, 76
1, 774838, Control_c, 0, 64, 79
1, 774853, Control_c, 0, 64, 83
1, 774868, Control_c, 0, 64, 87
1, 774872, Note_off_c, 0, 71, 37
1, 774883, Control_c, 0, 64, 90
1, 774898, Control_c, 0, 64, 93
1, 774913, Control_c, 0, 64, 95
1, 774928, Control_c, 0, 64, 95
1, 774942, Control_c, 0, 64, 96
1, 775001, Note_on_c, 0, 68, 67
1, 775049, Note_on_c, 0, 57, 38
1, 775056, Note_off_c, 0, 69, 59
1, 775202, Control_c, 0, 64, 95
1, 775217, Control_c, 0, 64, 95
1, 775231, Control_c, 0, 64, 94
1, 775246, Control_c, 0, 64, 93
1, 775261, Note_on_c, 0, 69, 71
1, 775261, Control_c, 0, 64, 92
1, 775275, Note_off_c, 0, 68, 55
1, 775275, Control_c, 0, 64, 91
1, 775290, Control_c, 0, 64, 90
1, 775292, Note_on_c, 0, 61, 44
1, 775304, Control_c, 0, 64, 88
1, 775319, Note_off_c, 0, 57, 36
1, 775319, Control_c, 0, 64, 86
1, 775334, Control_c, 0, 64, 84
1, 775348, Control_c, 0, 64, 83
1, 775363, Control_c, 0, 64, 81
1, 775378, Control_c, 0, 64, 80
1, 775393, Control_c, 0, 64, 78
1, 775408, Control_c, 0, 64, 76
1, 775423, Control_c, 0, 64, 74
1, 775437, Control_c, 0, 64, 73
1, 775452, Control_c, 0, 64, 71
1, 775468, Control_c, 0, 64, 69
1, 775483, Control_c, 0, 64, 67
1, 775498, Control_c, 0, 64, 65
1, 775513, Control_c, 0, 64, 63
1, 775518, Note_on_c, 0, 73, 63
1, 775527, Control_c, 0, 64, 61
1, 775533, Note_on_c, 0, 57, 37
1, 775533, Note_off_c, 0, 61, 49
1, 775542, Control_c, 0, 64, 60
1, 775557, Control_c, 0, 64, 59
1, 775572, Control_c, 0, 64, 59
1, 775576, Note_off_c, 0, 69, 55
1, 775587, Control_c, 0, 64, 57
1, 775601, Control_c, 0, 64, 55
1, 775616, Control_c, 0, 64, 52
1, 775631, Control_c, 0, 64, 47
1, 775646, Control_c, 0, 64, 41
1, 775661, Control_c, 0, 64, 29
1, 775676, Control_c, 0, 64, 0
1, 775787, Note_on_c, 0, 78, 49
1, 775791, Note_on_c, 0, 69, 50
1, 775844, Note_on_c, 0, 61, 31
1, 775853, Control_c, 0, 64, 32
1, 775858, Note_off_c, 0, 57, 40
1, 775868, Control_c, 0, 64, 38
1, 775875, Note_off_c, 0, 73, 57
1, 775883, Control_c, 0, 64, 44
1, 775898, Control_c, 0, 64, 51
1, 775913, Control_c, 0, 64, 56
1, 775927, Control_c, 0, 64, 60
1, 775950, Control_c, 0, 64, 61
1, 775965, Control_c, 0, 64, 63
1, 775979, Control_c, 0, 64, 65
1, 775994, Control_c, 0, 64, 67
1, 776009, Control_c, 0, 64, 69
1, 776021, Note_off_c, 0, 78, 44
1, 776025, Control_c, 0, 64, 72
1, 776040, Control_c, 0, 64, 74
1, 776054, Control_c, 0, 64, 76
1, 776069, Control_c, 0, 64, 78
1, 776082, Note_off_c, 0, 61, 42
1, 776084, Note_on_c, 0, 49, 33
1, 776084, Control_c, 0, 64, 81
1, 776099, Control_c, 0, 64, 83
1, 776114, Control_c, 0, 64, 84
1, 776123, Note_off_c, 0, 49, 52
1, 776128, Control_c, 0, 64, 85
1, 776143, Control_c, 0, 64, 85
1, 776158, Control_c, 0, 64, 86
1, 776307, Control_c, 0, 64, 85
1, 776322, Control_c, 0, 64, 85
1, 776337, Control_c, 0, 64, 84
1, 776351, Control_c, 0, 64, 82
1, 776366, Control_c, 0, 64, 80
1, 776381, Control_c, 0, 64, 78
1, 776395, Control_c, 0, 64, 75
1, 776401, Note_on_c, 0, 68, 51
1, 776410, Control_c, 0, 64, 70
1, 776425, Control_c, 0, 64, 63
1, 776440, Control_c, 0, 64, 49
1, 776447, Note_off_c, 0, 69, 57
1, 776448, Note_on_c, 0, 41, 35
1, 776455, Control_c, 0, 64, 0
1, 776514, Control_c, 0, 64, 28
1, 776529, Control_c, 0, 64, 48
1, 776543, Control_c, 0, 64, 62
1, 776545, Note_off_c, 0, 41, 62
1, 776558, Control_c, 0, 64, 69
1, 776573, Control_c, 0, 64, 75
1, 776588, Control_c, 0, 64, 80
1, 776603, Control_c, 0, 64, 86
1, 776618, Control_c, 0, 64, 93
1, 776633, Control_c, 0, 64, 102
1, 776648, Control_c, 0, 64, 118
1, 776662, Control_c, 0, 64, 127
1, 776762, Note_on_c, 0, 56, 40
1, 777017, Note_on_c, 0, 73, 57
1, 777088, Note_on_c, 0, 61, 29
1, 777098, Note_off_c, 0, 73, 60
1, 777116, Note_off_c, 0, 56, 42
1, 777202, Note_on_c, 0, 73, 61
1, 777256, Note_off_c, 0, 73, 58
1, 777262, Note_on_c, 0, 56, 33
1, 777314, Note_off_c, 0, 61, 38
1, 777360, Note_on_c, 0, 73, 59
1, 777404, Note_off_c, 0, 73, 59
1, 777536, Control_c, 0, 64, 112
1, 777536, Note_on_c, 0, 73, 52
1, 777550, Control_c, 0, 64, 104
1, 777565, Control_c, 0, 64, 92
1, 777578, Note_on_c, 0, 61, 34
1, 777580, Control_c, 0, 64, 82
1, 777595, Control_c, 0, 64, 71
1, 777599, Note_off_c, 0, 56, 39
1, 777610, Control_c, 0, 64, 60
1, 777624, Control_c, 0, 64, 49
1, 777639, Control_c, 0, 64, 47
1, 777654, Control_c, 0, 64, 49
1, 777669, Control_c, 0, 64, 57
1, 777684, Control_c, 0, 64, 63
1, 777698, Control_c, 0, 64, 69
1, 777713, Control_c, 0, 64, 77
1, 777728, Control_c, 0, 64, 84
1, 777742, Control_c, 0, 64, 92
1, 777757, Control_c, 0, 64, 103
1, 777772, Control_c, 0, 64, 127
1, 777804, Note_on_c, 0, 49, 39
1, 777806, Note_off_c, 0, 61, 41
1, 777813, Note_off_c, 0, 73, 59
1, 777845, Note_off_c, 0, 49, 61
1, 778203, Note_on_c, 0, 71, 68
1, 778210, Control_c, 0, 64, 114
1, 778225, Control_c, 0, 64, 104
1, 778240, Control_c, 0, 64, 95
1, 778254, Control_c, 0, 64, 83
1, 778269, Control_c, 0, 64, 70
1, 778273, Note_on_c, 0, 42, 43
1, 778284, Control_c, 0, 64, 50
1, 778286, Note_off_c, 0, 68, 60
1, 778299, Control_c, 0, 64, 0
1, 778344, Control_c, 0, 64, 33
1, 778359, Control_c, 0, 64, 54
1, 778373, Control_c, 0, 64, 67
1, 778388, Control_c, 0, 64, 79
1, 778402, Note_off_c, 0, 42, 62
1, 778403, Control_c, 0, 64, 95
1, 778418, Control_c, 0, 64, 123
1, 778433, Control_c, 0, 64, 127
1, 778633, Note_on_c, 0, 59, 43
1, 778940, Note_on_c, 0, 78, 64
1, 778994, Note_on_c, 0, 62, 25
1, 779008, Note_off_c, 0, 59, 28
1, 779136, Note_on_c, 0, 80, 70
1, 779202, Note_off_c, 0, 78, 60
1, 779205, Note_on_c, 0, 59, 34
1, 779214, Note_off_c, 0, 62, 43
1, 779294, Note_on_c, 0, 78, 75
1, 779302, Note_off_c, 0, 80, 61
1, 779355, Note_off_c, 0, 78, 60
1, 779464, Note_on_c, 0, 78, 70
1, 779490, Note_on_c, 0, 62, 37
1, 779509, Note_off_c, 0, 59, 43
1, 779524, Control_c, 0, 64, 112
1, 779538, Control_c, 0, 64, 88
1, 779553, Control_c, 0, 64, 78
1, 779568, Control_c, 0, 64, 76
1, 779598, Control_c, 0, 64, 79
1, 779612, Control_c, 0, 64, 88
1, 779627, Control_c, 0, 64, 100
1, 779642, Control_c, 0, 64, 118
1, 779657, Control_c, 0, 64, 127
1, 779679, Note_off_c, 0, 62, 42
1, 779689, Note_off_c, 0, 78, 46
1, 779707, Note_on_c, 0, 50, 48
1, 779758, Note_off_c, 0, 50, 62
1, 780010, Note_on_c, 0, 69, 69
1, 780019, Control_c, 0, 64, 105
1, 780034, Control_c, 0, 64, 90
1, 780049, Control_c, 0, 64, 73
1, 780064, Control_c, 0, 64, 56
1, 780075, Note_on_c, 0, 42, 52
1, 780078, Note_off_c, 0, 71, 38
1, 780079, Control_c, 0, 64, 29
1, 780094, Control_c, 0, 64, 0
1, 780123, Control_c, 0, 64, 34
1, 780138, Control_c, 0, 64, 56
1, 780153, Control_c, 0, 64, 70
1, 780168, Control_c, 0, 64, 83
1, 780169, Note_off_c, 0, 42, 63
1, 780183, Control_c, 0, 64, 104
1, 780198, Control_c, 0, 64, 127
1, 780352, Note_on_c, 0, 57, 49
1, 780621, Note_on_c, 0, 78, 66
1, 780707, Note_on_c, 0, 61, 40
1, 780735, Note_off_c, 0, 57, 47
1, 780815, Note_on_c, 0, 80, 71
1, 780858, Note_off_c, 0, 78, 60
1, 780925, Note_on_c, 0, 57, 40
1, 780937, Note_off_c, 0, 61, 36
1, 780982, Note_on_c, 0, 78, 75
1, 780991, Note_off_c, 0, 80, 61
1, 781062, Note_off_c, 0, 78, 60
1, 781160, Note_on_c, 0, 78, 73
1, 781191, Control_c, 0, 64, 104
1, 781195, Note_on_c, 0, 61, 40
1, 781206, Control_c, 0, 64, 81
1, 781221, Control_c, 0, 64, 65
1, 781236, Control_c, 0, 64, 57
1, 781251, Control_c, 0, 64, 58
1, 781263, Note_off_c, 0, 57, 37
1, 781265, Control_c, 0, 64, 62
1, 781280, Control_c, 0, 64, 67
1, 781295, Control_c, 0, 64, 78
1, 781310, Control_c, 0, 64, 94
1, 781325, Control_c, 0, 64, 117
1, 781340, Control_c, 0, 64, 127
1, 781405, Note_off_c, 0, 61, 61
1, 781425, Note_on_c, 0, 49, 51
1, 781446, Note_off_c, 0, 69, 61
1, 781457, Note_off_c, 0, 78, 56
1, 781465, Note_off_c, 0, 49, 59
1, 781757, Note_on_c, 0, 73, 58
1, 781758, Note_on_c, 0, 77, 65
1, 781768, Note_on_c, 0, 68, 56
1, 781769, Control_c, 0, 64, 99
1, 781784, Control_c, 0, 64, 76
1, 781799, Control_c, 0, 64, 61
1, 781814, Control_c, 0, 64, 46
1, 781821, Note_on_c, 0, 37, 50
1, 781829, Control_c, 0, 64, 37
1, 781843, Control_c, 0, 64, 41
1, 781859, Control_c, 0, 64, 55
1, 781874, Control_c, 0, 64, 66
1, 781875, Note_off_c, 0, 37, 62
1, 781888, Control_c, 0, 64, 79
1, 781903, Control_c, 0, 64, 97
1, 781918, Control_c, 0, 64, 115
1, 781940, Control_c, 0, 64, 127
1, 781994, Note_off_c, 0, 77, 55
1, 782038, Note_off_c, 0, 68, 58
1, 782079, Note_on_c, 0, 56, 55
1, 782083, Note_off_c, 0, 73, 53
1, 782326, Control_c, 0, 64, 103
1, 782332, Note_on_c, 0, 77, 67
1, 782333, Note_on_c, 0, 73, 61
1, 782340, Control_c, 0, 64, 77
1, 782354, Note_on_c, 0, 68, 51
1, 782355, Control_c, 0, 64, 62
1, 782370, Control_c, 0, 64, 53
1, 782385, Control_c, 0, 64, 55
1, 782386, Note_on_c, 0, 61, 43
1, 782400, Control_c, 0, 64, 61
1, 782414, Control_c, 0, 64, 68
1, 782429, Control_c, 0, 64, 80
1, 782441, Note_off_c, 0, 56, 51
1, 782444, Control_c, 0, 64, 94
1, 782446, Note_off_c, 0, 68, 58
1, 782449, Note_off_c, 0, 73, 58
1, 782456, Note_off_c, 0, 77, 61
1, 782459, Control_c, 0, 64, 104
1, 782474, Control_c, 0, 64, 127
1, 782519, Note_on_c, 0, 78, 76
1, 782527, Note_on_c, 0, 69, 70
1, 782538, Note_on_c, 0, 73, 55
1, 782589, Note_off_c, 0, 69, 62
1, 782601, Note_off_c, 0, 78, 60
1, 782610, Note_off_c, 0, 73, 60
1, 782618, Note_on_c, 0, 56, 57
1, 782645, Note_off_c, 0, 61, 49
1, 782672, Note_on_c, 0, 80, 82
1, 782687, Note_on_c, 0, 71, 73
1, 782695, Note_on_c, 0, 73, 50
1, 782740, Note_off_c, 0, 71, 62
1, 782772, Note_off_c, 0, 80, 60
1, 782782, Note_off_c, 0, 73, 55
1, 782852, Control_c, 0, 64, 106
1, 782867, Control_c, 0, 64, 90
1, 782868, Note_on_c, 0, 77, 80
1, 782882, Control_c, 0, 64, 71
1, 782884, Note_on_c, 0, 73, 63
1, 782896, Note_on_c, 0, 68, 55
1, 782897, Control_c, 0, 64, 55
1, 782902, Note_on_c, 0, 61, 51
1, 782911, Control_c, 0, 64, 33
1, 782926, Control_c, 0, 64, 0
1, 782970, Control_c, 0, 64, 44
1, 782985, Control_c, 0, 64, 61
1, 783000, Control_c, 0, 64, 69
1, 783015, Control_c, 0, 64, 75
1, 783030, Control_c, 0, 64, 81
1, 783045, Control_c, 0, 64, 89
1, 783060, Control_c, 0, 64, 98
1, 783075, Control_c, 0, 64, 114
1, 783078, Note_off_c, 0, 68, 61
1, 783089, Control_c, 0, 64, 127
1, 783092, Note_off_c, 0, 61, 60
1, 783106, Note_off_c, 0, 73, 60
1, 783128, Note_off_c, 0, 77, 62
1, 783131, Note_on_c, 0, 49, 60
1, 783143, Note_off_c, 0, 56, 57
1, 783173, Note_off_c, 0, 49, 63
1, 783385, Control_c, 0, 64, 120
1, 783400, Control_c, 0, 64, 108
1, 783415, Control_c, 0, 64, 100
1, 783437, Control_c, 0, 64, 92
1, 783449, Note_on_c, 0, 81, 72
1, 783452, Control_c, 0, 64, 81
1, 783461, Note_on_c, 0, 78, 63
1, 783468, Control_c, 0, 64, 67
1, 783474, Note_on_c, 0, 73, 52
1, 783483, Control_c, 0, 64, 51
1, 783498, Control_c, 0, 64, 0
1, 783505, Note_on_c, 0, 42, 55
1, 783557, Control_c, 0, 64, 49
1, 783572, Control_c, 0, 64, 65
1, 783586, Control_c, 0, 64, 75
1, 783599, Note_off_c, 0, 42, 63
1, 783601, Control_c, 0, 64, 93
1, 783616, Control_c, 0, 64, 114
1, 783631, Control_c, 0, 64, 127
1, 783775, Note_on_c, 0, 57, 49
1, 784091, Note_on_c, 0, 85, 67
1, 784176, Note_on_c, 0, 61, 34
1, 784219, Note_off_c, 0, 57, 37
1, 784437, Note_on_c, 0, 57, 34
1, 784446, Note_off_c, 0, 61, 43
1, 784637, Note_off_c, 0, 85, 53
1, 784704, Note_on_c, 0, 61, 31
1, 784705, Control_c, 0, 67, 33
1, 784720, Control_c, 0, 67, 50
1, 784735, Control_c, 0, 67, 68
1, 784745, Note_off_c, 0, 57, 40
1, 784750, Control_c, 0, 67, 80
1, 784765, Control_c, 0, 67, 89
1, 784780, Control_c, 0, 67, 96
1, 784784, Note_off_c, 0, 81, 46
1, 784795, Control_c, 0, 67, 105
1, 784809, Control_c, 0, 67, 114
1, 784810, Note_off_c, 0, 78, 56
1, 784824, Control_c, 0, 67, 122
1, 784839, Control_c, 0, 67, 127
1, 784848, Note_off_c, 0, 73, 61
1, 785009, Note_on_c, 0, 49, 37
1, 785027, Note_off_c, 0, 61, 42
1, 785075, Note_off_c, 0, 49, 54
1, 785218, Control_c, 0, 64, 117
1, 785232, Control_c, 0, 64, 108
1, 785247, Control_c, 0, 64, 102
1, 785262, Control_c, 0, 64, 97
1, 785277, Control_c, 0, 64, 92
1, 785292, Control_c, 0, 64, 88
1, 785306, Control_c, 0, 64, 85
1, 785321, Control_c, 0, 64, 81
1, 785336, Control_c, 0, 64, 77
1, 785351, Control_c, 0, 64, 73
1, 785365, Control_c, 0, 64, 69
1, 785380, Control_c, 0, 64, 66
1, 785395, Control_c, 0, 64, 63
1, 785410, Control_c, 0, 64, 60
1, 785425, Control_c, 0, 64, 56
1, 785439, Control_c, 0, 64, 53
1, 785454, Control_c, 0, 64, 47
1, 785469, Control_c, 0, 64, 37
1, 785483, Control_c, 0, 64, 0
1, 785492, Note_on_c, 0, 73, 43
1, 785498, Note_on_c, 0, 68, 43
1, 785506, Note_on_c, 0, 65, 34
1, 785550, Note_on_c, 0, 37, 25
1, 785602, Control_c, 0, 64, 39
1, 785617, Control_c, 0, 64, 52
1, 785632, Control_c, 0, 64, 63
1, 785647, Control_c, 0, 64, 68
1, 785662, Control_c, 0, 64, 73
1, 785671, Note_off_c, 0, 37, 54
1, 785683, Control_c, 0, 64, 76
1, 785698, Control_c, 0, 64, 79
1, 785713, Control_c, 0, 64, 83
1, 785728, Control_c, 0, 64, 86
1, 785743, Control_c, 0, 64, 89
1, 785757, Control_c, 0, 64, 91
1, 785772, Control_c, 0, 64, 91
1, 785787, Control_c, 0, 64, 92
1, 785802, Control_c, 0, 64, 92
1, 785805, Note_off_c, 0, 65, 56
1, 785829, Note_off_c, 0, 73, 56
1, 785838, Note_off_c, 0, 68, 57
1, 785891, Note_on_c, 0, 56, 44
1, 785936, Control_c, 0, 64, 92
1, 785996, Control_c, 0, 64, 91
1, 786026, Control_c, 0, 64, 91
1, 786041, Control_c, 0, 64, 90
1, 786055, Control_c, 0, 64, 90
1, 786070, Control_c, 0, 64, 89
1, 786085, Control_c, 0, 64, 89
1, 786099, Control_c, 0, 64, 88
1, 786114, Control_c, 0, 64, 87
1, 786129, Control_c, 0, 64, 86
1, 786133, Note_on_c, 0, 73, 58
1, 786144, Control_c, 0, 64, 84
1, 786147, Note_on_c, 0, 65, 49
1, 786153, Note_on_c, 0, 68, 48
1, 786159, Control_c, 0, 64, 83
1, 786174, Control_c, 0, 64, 82
1, 786176, Note_on_c, 0, 61, 38
1, 786188, Control_c, 0, 64, 81
1, 786195, Note_off_c, 0, 65, 59
1, 786198, Note_off_c, 0, 68, 57
1, 786203, Control_c, 0, 64, 79
1, 786218, Control_c, 0, 64, 77
1, 786219, Note_off_c, 0, 73, 57
1, 786233, Control_c, 0, 64, 75
1, 786248, Control_c, 0, 64, 73
1, 786252, Note_off_c, 0, 56, 43
1, 786262, Control_c, 0, 64, 72
1, 786277, Control_c, 0, 64, 71
1, 786292, Control_c, 0, 64, 69
1, 786306, Control_c, 0, 64, 68
1, 786321, Control_c, 0, 64, 67
1, 786326, Note_on_c, 0, 66, 56
1, 786327, Note_on_c, 0, 69, 52
1, 786333, Note_on_c, 0, 73, 54
1, 786336, Control_c, 0, 64, 66
1, 786351, Control_c, 0, 64, 65
1, 786366, Control_c, 0, 64, 63
1, 786380, Control_c, 0, 64, 62
1, 786383, Note_off_c, 0, 66, 57
1, 786395, Control_c, 0, 64, 62
1, 786404, Note_off_c, 0, 69, 59
1, 786409, Note_off_c, 0, 73, 54
1, 786410, Control_c, 0, 64, 61
1, 786417, Note_on_c, 0, 56, 32
1, 786448, Control_c, 0, 64, 61
1, 786455, Note_off_c, 0, 61, 43
1, 786462, Control_c, 0, 64, 60
1, 786506, Control_c, 0, 64, 60
1, 786511, Note_on_c, 0, 68, 57
1, 786511, Note_on_c, 0, 71, 52
1, 786521, Note_on_c, 0, 73, 50
1, 786521, Control_c, 0, 64, 59
1, 786536, Control_c, 0, 64, 59
1, 786551, Control_c, 0, 64, 58
1, 786563, Note_off_c, 0, 71, 59
1, 786564, Note_off_c, 0, 68, 55
1, 786566, Control_c, 0, 64, 57
1, 786574, Note_off_c, 0, 73, 53
1, 786580, Control_c, 0, 64, 57
1, 786595, Control_c, 0, 64, 56
1, 786610, Control_c, 0, 64, 55
1, 786625, Control_c, 0, 64, 54
1, 786640, Control_c, 0, 64, 53
1, 786656, Control_c, 0, 64, 52
1, 786671, Control_c, 0, 64, 51
1, 786685, Control_c, 0, 64, 49
1, 786700, Control_c, 0, 64, 48
1, 786715, Control_c, 0, 64, 47
1, 786728, Note_on_c, 0, 73, 42
1, 786729, Control_c, 0, 64, 44
1, 786742, Note_on_c, 0, 65, 43
1, 786744, Control_c, 0, 64, 42
1, 786745, Note_on_c, 0, 68, 34
1, 786759, Control_c, 0, 64, 38
1, 786769, Note_on_c, 0, 61, 35
1, 786774, Control_c, 0, 64, 33
1, 786788, Note_off_c, 0, 56, 40
1, 786789, Control_c, 0, 64, 0
1, 786922, Control_c, 0, 64, 35
1, 786937, Control_c, 0, 64, 44
1, 786952, Control_c, 0, 64, 52
1, 786967, Control_c, 0, 64, 56
1, 786982, Control_c, 0, 64, 60
1, 786996, Control_c, 0, 64, 63
1, 787011, Control_c, 0, 64, 65
1, 787026, Control_c, 0, 64, 67
1, 787041, Control_c, 0, 64, 68
1, 787045, Note_on_c, 0, 49, 36
1, 787054, Note_off_c, 0, 61, 42
1, 787055, Control_c, 0, 64, 70
1, 787070, Control_c, 0, 64, 73
1, 787085, Control_c, 0, 64, 76
1, 787093, Note_off_c, 0, 49, 58
1, 787100, Control_c, 0, 64, 78
1, 787115, Control_c, 0, 64, 80
1, 787120, Note_off_c, 0, 68, 57
1, 787129, Control_c, 0, 64, 81
1, 787144, Control_c, 0, 64, 83
1, 787151, Note_off_c, 0, 73, 48
1, 787153, Note_off_c, 0, 65, 54
1, 787159, Control_c, 0, 64, 84
1, 787182, Control_c, 0, 64, 85
1, 787211, Control_c, 0, 64, 85
1, 787359, Control_c, 0, 64, 85
1, 787389, Control_c, 0, 64, 84
1, 787403, Control_c, 0, 64, 83
1, 787418, Control_c, 0, 64, 81
1, 787433, Control_c, 0, 64, 80
1, 787448, Control_c, 0, 64, 78
1, 787450, Note_on_c, 0, 73, 47
1, 787458, Note_on_c, 0, 66, 48
1, 787464, Control_c, 0, 64, 76
1, 787471, Note_on_c, 0, 69, 40
1, 787479, Control_c, 0, 64, 73
1, 787494, Control_c, 0, 64, 69
1, 787508, Control_c, 0, 64, 62
1, 787523, Control_c, 0, 64, 51
1, 787537, Note_on_c, 0, 42, 35
1, 787538, Control_c, 0, 64, 29
1, 787552, Control_c, 0, 64, 0
1, 787612, Control_c, 0, 64, 45
1, 787626, Control_c, 0, 64, 59
1, 787641, Control_c, 0, 64, 64
1, 787653, Note_off_c, 0, 42, 59
1, 787656, Control_c, 0, 64, 67
1, 787671, Control_c, 0, 64, 69
1, 787686, Control_c, 0, 64, 71
1, 787701, Control_c, 0, 64, 74
1, 787716, Control_c, 0, 64, 76
1, 787731, Control_c, 0, 64, 78
1, 787745, Control_c, 0, 64, 79
1, 787760, Control_c, 0, 64, 79
1, 787775, Control_c, 0, 64, 80
1, 787829, Note_on_c, 0, 54, 48
1, 787990, Control_c, 0, 64, 80
1, 788034, Control_c, 0, 64, 79
1, 788049, Control_c, 0, 64, 79
1, 788064, Control_c, 0, 64, 78
1, 788078, Control_c, 0, 64, 77
1, 788093, Control_c, 0, 64, 77
1, 788108, Control_c, 0, 64, 76
1, 788123, Control_c, 0, 64, 76
1, 788130, Note_on_c, 0, 57, 45
1, 788138, Control_c, 0, 64, 75
1, 788152, Control_c, 0, 64, 74
1, 788167, Control_c, 0, 64, 74
1, 788182, Control_c, 0, 64, 73
1, 788197, Control_c, 0, 64, 72
1, 788212, Control_c, 0, 64, 71
1, 788226, Control_c, 0, 64, 70
1, 788241, Control_c, 0, 64, 69
1, 788257, Control_c, 0, 64, 68
1, 788272, Control_c, 0, 64, 67
1, 788280, Note_off_c, 0, 54, 27
1, 788287, Control_c, 0, 64, 65
1, 788301, Control_c, 0, 64, 64
1, 788316, Control_c, 0, 64, 64
1, 788331, Control_c, 0, 64, 63
1, 788346, Control_c, 0, 64, 62
1, 788361, Control_c, 0, 64, 61
1, 788375, Control_c, 0, 64, 60
1, 788390, Control_c, 0, 64, 59
1, 788405, Control_c, 0, 64, 59
1, 788406, Note_on_c, 0, 49, 40
1, 788420, Control_c, 0, 64, 58
1, 788435, Control_c, 0, 64, 58
1, 788449, Control_c, 0, 64, 56
1, 788455, Note_off_c, 0, 57, 38
1, 788464, Control_c, 0, 64, 55
1, 788479, Control_c, 0, 64, 55
1, 788494, Control_c, 0, 64, 54
1, 788509, Control_c, 0, 64, 53
1, 788524, Control_c, 0, 64, 52
1, 788539, Control_c, 0, 64, 50
1, 788553, Control_c, 0, 64, 48
1, 788568, Control_c, 0, 64, 47
1, 788583, Control_c, 0, 64, 45
1, 788598, Control_c, 0, 64, 43
1, 788613, Control_c, 0, 64, 41
1, 788628, Control_c, 0, 64, 38
1, 788642, Control_c, 0, 64, 35
1, 788657, Control_c, 0, 64, 32
1, 788679, Control_c, 0, 64, 29
1, 788694, Control_c, 0, 64, 0
1, 788740, Note_on_c, 0, 54, 30
1, 788793, Note_off_c, 0, 49, 34
1, 788828, Control_c, 0, 64, 35
1, 788843, Control_c, 0, 64, 46
1, 788857, Control_c, 0, 64, 55
1, 788872, Control_c, 0, 64, 59
1, 788887, Control_c, 0, 64, 61
1, 788902, Control_c, 0, 64, 62
1, 788917, Control_c, 0, 64, 64
1, 788932, Control_c, 0, 64, 66
1, 788947, Control_c, 0, 64, 68
1, 788962, Control_c, 0, 64, 69
1, 788976, Control_c, 0, 64, 71
1, 788991, Control_c, 0, 64, 72
1, 789006, Control_c, 0, 64, 73
1, 789021, Control_c, 0, 64, 75
1, 789035, Control_c, 0, 64, 76
1, 789051, Control_c, 0, 64, 77
1, 789066, Control_c, 0, 64, 77
1, 789081, Control_c, 0, 64, 78
1, 789098, Note_on_c, 0, 45, 25
1, 789111, Control_c, 0, 64, 78
1, 789140, Control_c, 0, 64, 79
1, 789160, Note_off_c, 0, 69, 34
1, 789192, Note_off_c, 0, 54, 45
1, 789228, Note_off_c, 0, 45, 35
1, 789252, Note_off_c, 0, 66, 36
1, 789254, Note_off_c, 0, 73, 58
1, 789318, Control_c, 0, 64, 78
1, 789362, Control_c, 0, 64, 78
1, 789392, Control_c, 0, 64, 77
1, 789406, Control_c, 0, 64, 77
1, 789429, Control_c, 0, 64, 76
1, 789444, Control_c, 0, 64, 76
1, 789458, Control_c, 0, 64, 75
1, 789473, Control_c, 0, 64, 74
1, 789488, Control_c, 0, 64, 74
1, 789501, Control_c, 0, 64, 73
1, 789516, Control_c, 0, 64, 72
1, 789531, Control_c, 0, 64, 71
1, 789546, Control_c, 0, 64, 70
1, 789561, Control_c, 0, 64, 69
1, 789576, Control_c, 0, 64, 67
1, 789591, Control_c, 0, 64, 66
1, 789605, Control_c, 0, 64, 64
1, 789620, Control_c, 0, 64, 63
1, 789635, Control_c, 0, 64, 62
1, 789649, Control_c, 0, 64, 61
1, 789664, Control_c, 0, 64, 59
1, 789679, Control_c, 0, 64, 57
1, 789694, Control_c, 0, 64, 55
1, 789709, Control_c, 0, 64, 52
1, 789711, Note_on_c, 0, 69, 44
1, 789723, Control_c, 0, 64, 51
1, 789738, Control_c, 0, 64, 48
1, 789753, Control_c, 0, 64, 40
1, 789768, Control_c, 0, 64, 0
1, 789773, Note_on_c, 0, 40, 25
1, 789888, Control_c, 0, 64, 36
1, 789902, Control_c, 0, 64, 49
1, 789917, Control_c, 0, 64, 61
1, 789932, Control_c, 0, 64, 65
1, 789946, Control_c, 0, 64, 66
1, 789961, Control_c, 0, 64, 68
1, 789976, Control_c, 0, 64, 70
1, 789991, Control_c, 0, 64, 74
1, 789996, Note_off_c, 0, 40, 39
1, 790006, Control_c, 0, 64, 79
1, 790020, Control_c, 0, 64, 82
1, 790035, Control_c, 0, 64, 84
1, 790050, Control_c, 0, 64, 87
1, 790065, Control_c, 0, 64, 90
1, 790080, Control_c, 0, 64, 92
1, 790095, Control_c, 0, 64, 94
1, 790109, Control_c, 0, 64, 95
1, 790124, Control_c, 0, 64, 95
1, 790139, Control_c, 0, 64, 96
1, 790379, Note_on_c, 0, 76, 39
1, 790418, Note_on_c, 0, 57, 30
1, 790799, Control_c, 0, 64, 95
1, 790902, Control_c, 0, 64, 95
1, 790932, Note_on_c, 0, 49, 33
1, 791012, Note_off_c, 0, 57, 41
1, 791029, Control_c, 0, 64, 94
1, 791052, Note_off_c, 0, 49, 53
1, 791102, Control_c, 0, 64, 94
1, 791177, Control_c, 0, 64, 93
1, 791206, Control_c, 0, 64, 93
1, 791251, Control_c, 0, 64, 92
1, 791266, Control_c, 0, 64, 92
1, 791281, Control_c, 0, 64, 91
1, 791295, Control_c, 0, 64, 90
1, 791310, Control_c, 0, 64, 90
1, 791325, Control_c, 0, 64, 89
1, 791340, Control_c, 0, 64, 88
1, 791355, Control_c, 0, 64, 87
1, 791369, Control_c, 0, 64, 86
1, 791384, Control_c, 0, 64, 85
1, 791399, Control_c, 0, 64, 84
1, 791414, Control_c, 0, 64, 83
1, 791428, Control_c, 0, 64, 82
1, 791445, Control_c, 0, 64, 80
1, 791447, Note_on_c, 0, 68, 55
1, 791460, Control_c, 0, 64, 79
1, 791474, Control_c, 0, 64, 77
1, 791489, Control_c, 0, 64, 76
1, 791504, Control_c, 0, 64, 74
1, 791505, Note_on_c, 0, 40, 43
1, 791518, Control_c, 0, 64, 73
1, 791533, Control_c, 0, 64, 70
1, 791548, Control_c, 0, 64, 65
1, 791563, Control_c, 0, 64, 59
1, 791570, Note_off_c, 0, 69, 36
1, 791578, Control_c, 0, 64, 51
1, 791592, Control_c, 0, 64, 35
1, 791607, Control_c, 0, 64, 0
1, 791674, Control_c, 0, 64, 40
1, 791689, Control_c, 0, 64, 57
1, 791703, Note_off_c, 0, 76, 36
1, 791704, Control_c, 0, 64, 65
1, 791719, Control_c, 0, 64, 69
1, 791731, Note_off_c, 0, 40, 58
1, 791733, Control_c, 0, 64, 72
1, 791748, Control_c, 0, 64, 74
1, 791763, Control_c, 0, 64, 77
1, 791778, Control_c, 0, 64, 80
1, 791793, Control_c, 0, 64, 82
1, 791807, Control_c, 0, 64, 83
1, 791822, Control_c, 0, 64, 84
1, 791837, Control_c, 0, 64, 85
1, 791851, Control_c, 0, 64, 86
1, 791866, Control_c, 0, 64, 87
1, 791881, Control_c, 0, 64, 87
1, 791896, Control_c, 0, 64, 88
1, 791911, Control_c, 0, 64, 88
1, 791925, Control_c, 0, 64, 89
1, 791955, Control_c, 0, 64, 89
1, 791985, Control_c, 0, 64, 90
1, 792003, Note_on_c, 0, 76, 56
1, 792074, Note_on_c, 0, 59, 41
1, 792497, Control_c, 0, 64, 89
1, 792537, Note_on_c, 0, 50, 34
1, 792601, Note_off_c, 0, 59, 50
1, 792656, Note_off_c, 0, 50, 56
1, 792808, Control_c, 0, 64, 89
1, 792867, Control_c, 0, 64, 88
1, 792884, Note_off_c, 0, 76, 28
1, 792912, Control_c, 0, 64, 88
1, 792926, Control_c, 0, 64, 87
1, 792941, Control_c, 0, 64, 87
1, 792971, Control_c, 0, 64, 86
1, 792979, Note_on_c, 0, 71, 58
1, 792986, Control_c, 0, 64, 86
1, 792989, Note_off_c, 0, 68, 37
1, 793000, Control_c, 0, 64, 85
1, 793015, Control_c, 0, 64, 82
1, 793030, Control_c, 0, 64, 76
1, 793031, Note_on_c, 0, 40, 41
1, 793046, Control_c, 0, 64, 67
1, 793061, Control_c, 0, 64, 56
1, 793075, Control_c, 0, 64, 46
1, 793090, Control_c, 0, 64, 45
1, 793098, Note_on_c, 0, 69, 67
1, 793105, Control_c, 0, 64, 51
1, 793120, Control_c, 0, 64, 58
1, 793135, Control_c, 0, 64, 63
1, 793150, Control_c, 0, 64, 69
1, 793171, Control_c, 0, 64, 74
1, 793186, Control_c, 0, 64, 79
1, 793201, Control_c, 0, 64, 82
1, 793216, Control_c, 0, 64, 85
1, 793220, Note_off_c, 0, 71, 37
1, 793229, Note_off_c, 0, 40, 56
1, 793231, Control_c, 0, 64, 89
1, 793245, Control_c, 0, 64, 92
1, 793260, Control_c, 0, 64, 94
1, 793275, Control_c, 0, 64, 95
1, 793305, Control_c, 0, 64, 97
1, 793305, Note_on_c, 0, 68, 70
1, 793337, Note_off_c, 0, 69, 60
1, 793542, Control_c, 0, 64, 95
1, 793557, Control_c, 0, 64, 94
1, 793561, Note_on_c, 0, 76, 65
1, 793571, Control_c, 0, 64, 93
1, 793582, Note_on_c, 0, 69, 52
1, 793586, Control_c, 0, 64, 91
1, 793601, Control_c, 0, 64, 90
1, 793611, Note_off_c, 0, 68, 56
1, 793615, Control_c, 0, 64, 88
1, 793620, Note_on_c, 0, 57, 40
1, 793630, Control_c, 0, 64, 87
1, 793645, Control_c, 0, 64, 86
1, 793660, Control_c, 0, 64, 84
1, 793675, Control_c, 0, 64, 83
1, 793690, Control_c, 0, 64, 81
1, 793704, Control_c, 0, 64, 80
1, 793719, Control_c, 0, 64, 79
1, 793734, Control_c, 0, 64, 78
1, 793749, Control_c, 0, 64, 77
1, 793764, Control_c, 0, 64, 75
1, 793779, Control_c, 0, 64, 72
1, 793794, Control_c, 0, 64, 68
1, 793804, Note_on_c, 0, 73, 70
1, 793809, Control_c, 0, 64, 64
1, 793823, Control_c, 0, 64, 60
1, 793839, Control_c, 0, 64, 57
1, 793854, Control_c, 0, 64, 54
1, 793868, Control_c, 0, 64, 52
1, 793877, Note_off_c, 0, 69, 38
1, 793883, Control_c, 0, 64, 53
1, 793898, Control_c, 0, 64, 55
1, 793920, Control_c, 0, 64, 58
1, 793935, Control_c, 0, 64, 60
1, 793950, Control_c, 0, 64, 64
1, 793965, Control_c, 0, 64, 67
1, 793980, Control_c, 0, 64, 70
1, 793994, Control_c, 0, 64, 73
1, 794009, Control_c, 0, 64, 74
1, 794024, Control_c, 0, 64, 76
1, 794039, Control_c, 0, 64, 78
1, 794053, Control_c, 0, 64, 79
1, 794068, Control_c, 0, 64, 80
1, 794078, Note_on_c, 0, 69, 60
1, 794083, Control_c, 0, 64, 81
1, 794113, Control_c, 0, 64, 81
1, 794134, Note_on_c, 0, 49, 24
1, 794136, Note_off_c, 0, 57, 51
1, 794165, Note_off_c, 0, 73, 37
1, 794199, Note_off_c, 0, 49, 42
1, 794288, Note_off_c, 0, 76, 58
1, 794453, Control_c, 0, 64, 81
1, 794498, Control_c, 0, 64, 80
1, 794512, Control_c, 0, 64, 80
1, 794527, Control_c, 0, 64, 79
1, 794557, Control_c, 0, 64, 78
1, 794572, Control_c, 0, 64, 78
1, 794587, Control_c, 0, 64, 77
1, 794602, Control_c, 0, 64, 76
1, 794608, Note_off_c, 0, 69, 47
1, 794614, Note_on_c, 0, 68, 50
1, 794617, Control_c, 0, 64, 75
1, 794632, Control_c, 0, 64, 74
1, 794647, Control_c, 0, 64, 72
1, 794669, Control_c, 0, 64, 70
1, 794680, Note_on_c, 0, 40, 34
1, 794684, Control_c, 0, 64, 68
1, 794699, Control_c, 0, 64, 64
1, 794714, Control_c, 0, 64, 58
1, 794729, Control_c, 0, 64, 47
1, 794743, Control_c, 0, 64, 0
1, 794817, Control_c, 0, 64, 36
1, 794832, Control_c, 0, 64, 53
1, 794847, Control_c, 0, 64, 63
1, 794862, Control_c, 0, 64, 68
1, 794876, Control_c, 0, 64, 73
1, 794891, Control_c, 0, 64, 78
1, 794906, Control_c, 0, 64, 84
1, 794911, Note_off_c, 0, 40, 49
1, 794921, Control_c, 0, 64, 91
1, 794936, Control_c, 0, 64, 96
1, 794950, Control_c, 0, 64, 101
1, 794965, Control_c, 0, 64, 107
1, 794980, Control_c, 0, 64, 114
1, 794995, Control_c, 0, 64, 127
1, 795195, Note_on_c, 0, 76, 55
1, 795248, Note_on_c, 0, 59, 40
1, 795538, Control_c, 0, 67, 119
1, 795553, Control_c, 0, 67, 111
1, 795567, Control_c, 0, 67, 102
1, 795582, Control_c, 0, 67, 93
1, 795597, Control_c, 0, 67, 83
1, 795612, Control_c, 0, 67, 71
1, 795627, Control_c, 0, 67, 61
1, 795641, Control_c, 0, 67, 52
1, 795656, Control_c, 0, 67, 43
1, 795671, Control_c, 0, 67, 34
1, 795686, Control_c, 0, 67, 0
1, 795688, Note_on_c, 0, 50, 36
1, 795750, Note_off_c, 0, 59, 57
1, 795792, Note_off_c, 0, 50, 58
1, 796041, Control_c, 0, 64, 121
1, 796056, Control_c, 0, 64, 117
1, 796071, Control_c, 0, 64, 113
1, 796085, Control_c, 0, 64, 111
1, 796100, Control_c, 0, 64, 109
1, 796115, Control_c, 0, 64, 106
1, 796130, Control_c, 0, 64, 104
1, 796145, Control_c, 0, 64, 101
1, 796167, Control_c, 0, 64, 98
1, 796182, Control_c, 0, 64, 95
1, 796188, Note_on_c, 0, 73, 64
1, 796196, Control_c, 0, 64, 93
1, 796211, Control_c, 0, 64, 90
1, 796226, Control_c, 0, 64, 87
1, 796241, Control_c, 0, 64, 83
1, 796254, Note_on_c, 0, 40, 47
1, 796256, Control_c, 0, 64, 77
1, 796268, Note_off_c, 0, 68, 54
1, 796271, Control_c, 0, 64, 68
1, 796286, Control_c, 0, 64, 55
1, 796301, Control_c, 0, 64, 39
1, 796315, Control_c, 0, 64, 0
1, 796360, Control_c, 0, 64, 38
1, 796375, Control_c, 0, 64, 56
1, 796389, Control_c, 0, 64, 65
1, 796404, Control_c, 0, 64, 71
1, 796417, Note_off_c, 0, 76, 58
1, 796419, Control_c, 0, 64, 77
1, 796434, Control_c, 0, 64, 87
1, 796448, Control_c, 0, 64, 104
1, 796460, Note_off_c, 0, 40, 61
1, 796463, Control_c, 0, 64, 127
1, 796706, Note_on_c, 0, 76, 66
1, 796802, Note_on_c, 0, 57, 42
1, 797236, Note_on_c, 0, 49, 40
1, 797303, Note_off_c, 0, 57, 59
1, 797388, Note_off_c, 0, 49, 57
1, 797731, Note_on_c, 0, 74, 72
1, 797753, Control_c, 0, 64, 111
1, 797767, Control_c, 0, 64, 98
1, 797782, Note_on_c, 0, 40, 46
1, 797782, Control_c, 0, 64, 87
1, 797797, Control_c, 0, 64, 74
1, 797812, Control_c, 0, 64, 61
1, 797827, Control_c, 0, 64, 40
1, 797842, Note_off_c, 0, 73, 59
1, 797842, Control_c, 0, 64, 0
1, 797887, Control_c, 0, 64, 30
1, 797902, Control_c, 0, 64, 51
1, 797905, Note_off_c, 0, 76, 43
1, 797916, Control_c, 0, 64, 64
1, 797931, Control_c, 0, 64, 72
1, 797946, Control_c, 0, 64, 82
1, 797961, Control_c, 0, 64, 91
1, 797976, Control_c, 0, 64, 106
1, 797991, Control_c, 0, 64, 127
1, 798006, Note_off_c, 0, 40, 59
1, 798296, Note_on_c, 0, 76, 58
1, 798361, Note_on_c, 0, 56, 45
1, 798805, Note_on_c, 0, 47, 42
1, 798946, Note_off_c, 0, 56, 59
1, 799004, Note_off_c, 0, 47, 55
1, 799019, Note_off_c, 0, 74, 55
1, 799131, Note_off_c, 0, 76, 58
1, 799434, Note_on_c, 0, 81, 66
1, 799461, Note_on_c, 0, 74, 47
1, 799474, Control_c, 0, 64, 121
1, 799489, Control_c, 0, 64, 108
1, 799490, Note_on_c, 0, 40, 37
1, 799504, Control_c, 0, 64, 94
1, 799519, Control_c, 0, 64, 81
1, 799533, Control_c, 0, 64, 68
1, 799548, Control_c, 0, 64, 56
1, 799563, Control_c, 0, 64, 45
1, 799578, Control_c, 0, 64, 43
1, 799593, Control_c, 0, 64, 47
1, 799607, Control_c, 0, 64, 57
1, 799622, Control_c, 0, 64, 65
1, 799637, Control_c, 0, 64, 74
1, 799652, Control_c, 0, 64, 86
1, 799666, Control_c, 0, 64, 94
1, 799681, Control_c, 0, 64, 99
1, 799696, Control_c, 0, 64, 108
1, 799711, Control_c, 0, 64, 127
1, 799717, Note_off_c, 0, 74, 56
1, 799729, Note_off_c, 0, 40, 41
1, 799836, Note_on_c, 0, 73, 63
1, 799869, Note_off_c, 0, 73, 59
1, 799950, Note_on_c, 0, 80, 73
1, 799955, Note_off_c, 0, 81, 58
1, 799959, Note_on_c, 0, 73, 71
1, 799970, Control_c, 0, 64, 112
1, 799985, Control_c, 0, 64, 98
1, 799995, Note_on_c, 0, 41, 42
1, 799995, Note_on_c, 0, 49, 40
1, 800000, Control_c, 0, 64, 85
1, 800015, Control_c, 0, 64, 70
1, 800030, Control_c, 0, 64, 56
1, 800045, Control_c, 0, 64, 34
1, 800059, Control_c, 0, 64, 0
1, 800104, Control_c, 0, 64, 44
1, 800119, Control_c, 0, 64, 61
1, 800133, Control_c, 0, 64, 69
1, 800148, Control_c, 0, 64, 74
1, 800163, Control_c, 0, 64, 78
1, 800163, Control_c, 0, 67, 42
1, 800178, Control_c, 0, 64, 82
1, 800178, Control_c, 0, 67, 53
1, 800192, Control_c, 0, 64, 87
1, 800192, Control_c, 0, 67, 62
1, 800197, Note_off_c, 0, 73, 57
1, 800203, Note_off_c, 0, 49, 53
1, 800207, Control_c, 0, 64, 91
1, 800207, Control_c, 0, 67, 69
1, 800218, Note_off_c, 0, 41, 36
1, 800222, Control_c, 0, 64, 96
1, 800222, Control_c, 0, 67, 75
1, 800238, Control_c, 0, 64, 100
1, 800238, Control_c, 0, 67, 81
1, 800253, Control_c, 0, 64, 102
1, 800253, Control_c, 0, 67, 86
1, 800268, Control_c, 0, 67, 93
1, 800282, Control_c, 0, 64, 104
1, 800282, Control_c, 0, 67, 101
1, 800297, Control_c, 0, 67, 106
1, 800312, Control_c, 0, 67, 110
1, 800327, Control_c, 0, 67, 112
1, 800346, Note_on_c, 0, 71, 55
1, 800386, Note_off_c, 0, 71, 60
1, 800460, Control_c, 0, 64, 101
1, 800469, Note_on_c, 0, 78, 66
1, 800475, Control_c, 0, 64, 96
1, 800478, Note_on_c, 0, 71, 66
1, 800489, Control_c, 0, 64, 90
1, 800493, Note_off_c, 0, 80, 61
1, 800504, Control_c, 0, 64, 81
1, 800509, Note_on_c, 0, 42, 42
1, 800510, Note_on_c, 0, 49, 39
1, 800519, Control_c, 0, 64, 68
1, 800534, Control_c, 0, 64, 56
1, 800549, Control_c, 0, 64, 33
1, 800564, Control_c, 0, 64, 0
1, 800623, Control_c, 0, 64, 38
1, 800638, Control_c, 0, 64, 55
1, 800660, Control_c, 0, 64, 65
1, 800675, Control_c, 0, 64, 69
1, 800689, Control_c, 0, 64, 72
1, 800704, Control_c, 0, 64, 74
1, 800719, Control_c, 0, 64, 78
1, 800733, Control_c, 0, 64, 84
1, 800743, Note_off_c, 0, 49, 57
1, 800748, Control_c, 0, 64, 89
1, 800748, Control_c, 0, 67, 110
1, 800754, Note_off_c, 0, 42, 55
1, 800763, Control_c, 0, 64, 92
1, 800778, Control_c, 0, 64, 95
1, 800791, Note_off_c, 0, 71, 38
1, 800793, Control_c, 0, 64, 97
1, 800807, Control_c, 0, 64, 99
1, 800837, Control_c, 0, 64, 102
1, 800889, Note_on_c, 0, 69, 45
1, 800916, Note_off_c, 0, 69, 62
1, 801030, Control_c, 0, 64, 100
1, 801045, Control_c, 0, 64, 97
1, 801060, Control_c, 0, 64, 94
1, 801075, Control_c, 0, 64, 90
1, 801078, Note_on_c, 0, 77, 55
1, 801084, Note_on_c, 0, 68, 53
1, 801090, Control_c, 0, 64, 84
1, 801104, Control_c, 0, 64, 78
1, 801119, Control_c, 0, 64, 70
1, 801134, Control_c, 0, 64, 61
1, 801136, Note_on_c, 0, 37, 38
1, 801142, Note_off_c, 0, 78, 34
1, 801149, Control_c, 0, 64, 47
1, 801164, Control_c, 0, 64, 0
1, 801164, Control_c, 0, 67, 108
1, 801193, Control_c, 0, 67, 106
1, 801208, Control_c, 0, 67, 104
1, 801223, Control_c, 0, 67, 101
1, 801237, Control_c, 0, 67, 98
1, 801252, Control_c, 0, 64, 44
1, 801252, Control_c, 0, 67, 96
1, 801267, Control_c, 0, 64, 62
1, 801267, Control_c, 0, 67, 94
1, 801282, Control_c, 0, 64, 70
1, 801282, Control_c, 0, 67, 91
1, 801297, Control_c, 0, 64, 79
1, 801297, Control_c, 0, 67, 88
1, 801312, Control_c, 0, 64, 85
1, 801312, Control_c, 0, 67, 85
1, 801318, Note_off_c, 0, 37, 52
1, 801327, Control_c, 0, 64, 92
1, 801327, Control_c, 0, 67, 81
1, 801342, Control_c, 0, 64, 103
1, 801342, Control_c, 0, 67, 72
1, 801356, Control_c, 0, 64, 113
1, 801356, Control_c, 0, 67, 58
1, 801371, Control_c, 0, 64, 127
1, 801371, Control_c, 0, 67, 43
1, 801386, Control_c, 0, 67, 0
1, 801714, Note_on_c, 0, 61, 39
1, 802239, Note_on_c, 0, 49, 36
1, 802331, Note_off_c, 0, 61, 40
1, 802433, Note_off_c, 0, 49, 37
1, 802477, Note_off_c, 0, 77, 36
1, 802524, Note_off_c, 0, 68, 46
1, 802706, Control_c, 0, 64, 121
1, 802721, Control_c, 0, 64, 114
1, 802736, Control_c, 0, 64, 110
1, 802750, Control_c, 0, 64, 107
1, 802765, Control_c, 0, 64, 103
1, 802780, Control_c, 0, 64, 99
1, 802794, Control_c, 0, 64, 95
1, 802809, Control_c, 0, 64, 91
1, 802824, Control_c, 0, 64, 87
1, 802839, Control_c, 0, 64, 83
1, 802854, Control_c, 0, 64, 77
1, 802869, Control_c, 0, 64, 67
1, 802883, Control_c, 0, 64, 50
1, 802906, Control_c, 0, 64, 0
1, 802918, Note_on_c, 0, 78, 80
1, 802925, Note_on_c, 0, 71, 77
1, 802930, Note_on_c, 0, 66, 75
1, 802951, Note_on_c, 0, 42, 73
1, 803008, Control_c, 0, 64, 57
1, 803023, Control_c, 0, 64, 73
1, 803038, Control_c, 0, 64, 95
1, 803053, Control_c, 0, 64, 127
1, 803094, Note_off_c, 0, 42, 62
1, 803685, Note_on_c, 0, 62, 69
1, 804003, Note_off_c, 0, 66, 58
1, 804029, Note_off_c, 0, 71, 59
1, 804194, Note_off_c, 0, 78, 60
1, 804251, Note_on_c, 0, 50, 46
1, 804405, Note_off_c, 0, 62, 53
1, 804489, Note_off_c, 0, 50, 60
1, 804742, Note_on_c, 0, 90, 92
1, 804743, Control_c, 0, 64, 108
1, 804751, Note_on_c, 0, 81, 75
1, 804756, Note_on_c, 0, 78, 74
1, 804758, Control_c, 0, 64, 86
1, 804773, Note_on_c, 0, 42, 70
1, 804773, Control_c, 0, 64, 67
1, 804787, Control_c, 0, 64, 43
1, 804802, Control_c, 0, 64, 0
1, 804877, Control_c, 0, 64, 50
1, 804892, Control_c, 0, 64, 67
1, 804907, Control_c, 0, 64, 90
1, 804921, Control_c, 0, 64, 127
1, 804964, Note_off_c, 0, 42, 61
1, 805394, Note_on_c, 0, 61, 59
1, 805920, Note_on_c, 0, 49, 35
1, 805939, Note_off_c, 0, 90, 62
1, 805951, Note_off_c, 0, 81, 56
1, 805988, Note_off_c, 0, 61, 61
1, 806019, Note_off_c, 0, 49, 60
1, 806055, Note_off_c, 0, 78, 51
1, 806405, Control_c, 0, 64, 113
1, 806419, Control_c, 0, 64, 103
1, 806434, Control_c, 0, 64, 92
1, 806449, Control_c, 0, 64, 85
1, 806464, Control_c, 0, 64, 79
1, 806479, Control_c, 0, 64, 72
1, 806493, Control_c, 0, 64, 65
1, 806508, Control_c, 0, 64, 60
1, 806523, Control_c, 0, 64, 55
1, 806538, Control_c, 0, 64, 47
1, 806552, Control_c, 0, 64, 36
1, 806567, Control_c, 0, 64, 0
1, 806579, Note_on_c, 0, 86, 51
1, 806594, Note_on_c, 0, 80, 44
1, 806607, Note_on_c, 0, 77, 33
1, 806634, Note_on_c, 0, 37, 31
1, 806665, Control_c, 0, 64, 38
1, 806680, Control_c, 0, 64, 55
1, 806695, Control_c, 0, 64, 64
1, 806710, Control_c, 0, 64, 68
1, 806719, Note_off_c, 0, 80, 51
1, 806723, Control_c, 0, 64, 72
1, 806723, Control_c, 0, 67, 36
1, 806732, Note_off_c, 0, 77, 50
1, 806738, Control_c, 0, 64, 75
1, 806738, Control_c, 0, 67, 63
1, 806752, Note_off_c, 0, 86, 60
1, 806753, Control_c, 0, 64, 82
1, 806753, Control_c, 0, 67, 94
1, 806768, Control_c, 0, 64, 88
1, 806768, Control_c, 0, 67, 114
1, 806782, Control_c, 0, 64, 93
1, 806782, Control_c, 0, 67, 127
1, 806797, Control_c, 0, 64, 96
1, 806812, Control_c, 0, 64, 100
1, 806827, Control_c, 0, 64, 105
1, 806834, Note_on_c, 0, 85, 64
1, 806842, Control_c, 0, 64, 111
1, 806845, Note_on_c, 0, 80, 50
1, 806846, Note_on_c, 0, 77, 58
1, 806856, Note_off_c, 0, 37, 38
1, 806856, Control_c, 0, 64, 115
1, 806895, Note_off_c, 0, 77, 55
1, 806901, Control_c, 0, 64, 117
1, 806903, Note_off_c, 0, 80, 53
1, 806928, Note_off_c, 0, 85, 62
1, 807005, Note_on_c, 0, 83, 65
1, 807008, Note_on_c, 0, 77, 60
1, 807017, Note_on_c, 0, 80, 60
1, 807057, Note_off_c, 0, 83, 64
1, 807064, Note_off_c, 0, 77, 63
1, 807067, Note_off_c, 0, 80, 54
1, 807169, Note_on_c, 0, 83, 72
1, 807187, Note_on_c, 0, 74, 58
1, 807190, Note_on_c, 0, 77, 56
1, 807199, Note_on_c, 0, 61, 48
1, 807225, Note_off_c, 0, 74, 58
1, 807232, Note_off_c, 0, 77, 59
1, 807251, Note_off_c, 0, 83, 61
1, 807331, Note_on_c, 0, 81, 64
1, 807336, Note_on_c, 0, 74, 58
1, 807345, Note_on_c, 0, 77, 57
1, 807379, Note_off_c, 0, 77, 63
1, 807381, Note_off_c, 0, 74, 56
1, 807402, Note_off_c, 0, 81, 62
1, 807487, Note_on_c, 0, 80, 69
1, 807493, Note_on_c, 0, 74, 70
1, 807506, Note_on_c, 0, 77, 37
1, 807533, Note_off_c, 0, 80, 58
1, 807534, Note_off_c, 0, 74, 58
1, 807535, Note_off_c, 0, 77, 54
1, 807651, Note_on_c, 0, 80, 69
1, 807679, Control_c, 0, 64, 108
1, 807694, Control_c, 0, 64, 94
1, 807697, Note_on_c, 0, 71, 14
1, 807700, Note_on_c, 0, 49, 45
1, 807709, Control_c, 0, 64, 78
1, 807724, Control_c, 0, 64, 63
1, 807736, Note_off_c, 0, 61, 36
1, 807739, Control_c, 0, 64, 49
1, 807742, Note_off_c, 0, 71, 50
1, 807753, Control_c, 0, 64, 43
1, 807754, Note_off_c, 0, 80, 59
1, 807768, Control_c, 0, 64, 47
1, 807783, Control_c, 0, 64, 56
1, 807798, Control_c, 0, 64, 63
1, 807813, Control_c, 0, 64, 69
1, 807820, Note_on_c, 0, 78, 65
1, 807828, Note_on_c, 0, 71, 59
1, 807828, Control_c, 0, 64, 73
1, 807841, Note_on_c, 0, 74, 58
1, 807843, Control_c, 0, 64, 78
1, 807858, Control_c, 0, 64, 83
1, 807872, Control_c, 0, 64, 87
1, 807887, Control_c, 0, 64, 90
1, 807888, Note_off_c, 0, 74, 53
1, 807890, Note_off_c, 0, 71, 54
1, 807902, Control_c, 0, 64, 92
1, 807916, Control_c, 0, 64, 93
1, 807922, Note_off_c, 0, 78, 58
1, 807930, Note_off_c, 0, 49, 54
1, 807931, Control_c, 0, 64, 94
1, 807946, Control_c, 0, 64, 94
1, 807987, Note_on_c, 0, 77, 61
1, 808002, Note_on_c, 0, 71, 55
1, 808013, Note_on_c, 0, 74, 48
1, 808040, Note_off_c, 0, 74, 57
1, 808043, Note_off_c, 0, 71, 55
1, 808064, Note_off_c, 0, 77, 64
1, 808146, Control_c, 0, 64, 94
1, 808161, Control_c, 0, 64, 93
1, 808176, Control_c, 0, 64, 93
1, 808191, Control_c, 0, 64, 91
1, 808204, Note_on_c, 0, 78, 60
1, 808205, Control_c, 0, 64, 89
1, 808213, Note_on_c, 0, 73, 54
1, 808215, Note_on_c, 0, 69, 50
1, 808221, Control_c, 0, 64, 87
1, 808236, Control_c, 0, 64, 85
1, 808241, Note_on_c, 0, 54, 48
1, 808251, Control_c, 0, 64, 82
1, 808266, Control_c, 0, 64, 80
1, 808281, Control_c, 0, 64, 77
1, 808296, Control_c, 0, 64, 74
1, 808311, Control_c, 0, 64, 71
1, 808317, Note_off_c, 0, 54, 51
1, 808326, Control_c, 0, 64, 67
1, 808340, Control_c, 0, 64, 65
1, 808355, Control_c, 0, 64, 63
1, 808370, Control_c, 0, 64, 61
1, 808382, Note_on_c, 0, 50, 61
1, 808385, Control_c, 0, 64, 59
1, 808400, Control_c, 0, 64, 58
1, 808415, Control_c, 0, 64, 57
1, 808429, Control_c, 0, 64, 55
1, 808444, Control_c, 0, 64, 54
1, 808454, Note_off_c, 0, 50, 63
1, 808459, Control_c, 0, 64, 53
1, 808474, Control_c, 0, 64, 53
1, 808489, Control_c, 0, 64, 52
1, 808503, Control_c, 0, 64, 51
1, 808518, Control_c, 0, 64, 50
1, 808533, Control_c, 0, 64, 49
1, 808542, Note_on_c, 0, 49, 63
1, 808547, Control_c, 0, 64, 48
1, 808562, Control_c, 0, 64, 47
1, 808577, Control_c, 0, 64, 45
1, 808592, Control_c, 0, 64, 42
1, 808607, Control_c, 0, 64, 39
1, 808621, Control_c, 0, 64, 35
1, 808628, Note_off_c, 0, 49, 63
1, 808636, Control_c, 0, 64, 29
1, 808651, Control_c, 0, 64, 0
1, 808718, Note_on_c, 0, 47, 66
1, 808779, Note_off_c, 0, 47, 62
1, 808904, Note_on_c, 0, 45, 64
1, 808994, Note_off_c, 0, 45, 53
1, 809089, Note_on_c, 0, 44, 62
1, 809165, Note_off_c, 0, 44, 60
1, 809289, Note_on_c, 0, 42, 57
1, 809384, Note_off_c, 0, 42, 59
1, 809479, Note_on_c, 0, 37, 53
1, 809521, Note_off_c, 0, 37, 62
1, 809693, Note_on_c, 0, 33, 59
1, 809778, Note_off_c, 0, 33, 54
1, 809792, Note_off_c, 0, 69, 46
1, 809808, Note_off_c, 0, 73, 55
1, 809814, Note_off_c, 0, 78, 51
1, 809992, Note_on_c, 0, 69, 55
1, 810034, Note_on_c, 0, 30, 45
1, 810075, Control_c, 0, 64, 32
1, 810090, Control_c, 0, 64, 46
1, 810105, Control_c, 0, 64, 57
1, 810120, Control_c, 0, 64, 62
1, 810134, Control_c, 0, 64, 64
1, 810149, Control_c, 0, 64, 67
1, 810164, Control_c, 0, 64, 69
1, 810179, Control_c, 0, 64, 73
1, 810181, Note_off_c, 0, 30, 62
1, 810193, Control_c, 0, 64, 77
1, 810208, Control_c, 0, 64, 81
1, 810223, Control_c, 0, 64, 84
1, 810238, Control_c, 0, 64, 87
1, 810253, Control_c, 0, 64, 89
1, 810267, Control_c, 0, 64, 91
1, 810282, Control_c, 0, 64, 92
1, 810453, Control_c, 0, 64, 91
1, 810482, Control_c, 0, 64, 91
1, 810497, Control_c, 0, 64, 90
1, 810512, Control_c, 0, 64, 89
1, 810526, Control_c, 0, 64, 89
1, 810541, Control_c, 0, 64, 88
1, 810556, Control_c, 0, 64, 87
1, 810571, Control_c, 0, 64, 86
1, 810586, Control_c, 0, 64, 85
1, 810600, Control_c, 0, 64, 84
1, 810616, Control_c, 0, 64, 83
1, 810631, Control_c, 0, 64, 81
1, 810642, Note_on_c, 0, 61, 46
1, 810646, Control_c, 0, 64, 80
1, 810656, Note_on_c, 0, 49, 46
1, 810661, Control_c, 0, 64, 79
1, 810676, Control_c, 0, 64, 78
1, 810690, Control_c, 0, 64, 77
1, 810705, Control_c, 0, 64, 75
1, 810720, Control_c, 0, 64, 73
1, 810735, Control_c, 0, 64, 72
1, 810749, Control_c, 0, 64, 70
1, 810764, Control_c, 0, 64, 68
1, 810779, Control_c, 0, 64, 66
1, 810794, Control_c, 0, 64, 64
1, 810809, Control_c, 0, 64, 62
1, 810824, Control_c, 0, 64, 60
1, 810839, Control_c, 0, 64, 59
1, 810854, Control_c, 0, 64, 58
1, 810868, Control_c, 0, 64, 57
1, 810883, Control_c, 0, 64, 56
1, 810898, Control_c, 0, 64, 55
1, 810913, Control_c, 0, 64, 55
1, 811016, Control_c, 0, 64, 55
1, 811031, Control_c, 0, 64, 56
1, 811046, Control_c, 0, 64, 56
1, 811061, Control_c, 0, 64, 57
1, 811076, Control_c, 0, 64, 57
1, 811090, Control_c, 0, 64, 58
1, 811105, Control_c, 0, 64, 58
1, 811120, Control_c, 0, 64, 59
1, 811142, Control_c, 0, 64, 60
1, 811157, Control_c, 0, 64, 61
1, 811172, Control_c, 0, 64, 62
1, 811187, Control_c, 0, 64, 63
1, 811202, Control_c, 0, 64, 65
1, 811215, Control_c, 0, 64, 66
1, 811230, Control_c, 0, 64, 68
1, 811245, Control_c, 0, 64, 70
1, 811260, Control_c, 0, 64, 72
1, 811275, Control_c, 0, 64, 73
1, 811289, Control_c, 0, 64, 75
1, 811304, Control_c, 0, 64, 76
1, 811319, Control_c, 0, 64, 78
1, 811334, Control_c, 0, 64, 81
1, 811348, Control_c, 0, 64, 82
1, 811363, Control_c, 0, 64, 83
1, 811378, Control_c, 0, 64, 84
1, 811393, Control_c, 0, 64, 84
1, 811405, Note_off_c, 0, 61, 33
1, 811408, Control_c, 0, 64, 85
1, 811424, Control_c, 0, 64, 86
1, 811438, Control_c, 0, 64, 86
1, 811489, Note_off_c, 0, 49, 34
1, 811691, Control_c, 0, 64, 86
1, 811735, Control_c, 0, 64, 85
1, 811750, Control_c, 0, 64, 85
1, 811779, Control_c, 0, 64, 84
1, 811794, Control_c, 0, 64, 84
1, 811824, Control_c, 0, 64, 83
1, 811838, Control_c, 0, 64, 82
1, 811853, Control_c, 0, 64, 82
1, 811868, Control_c, 0, 64, 81
1, 811890, Control_c, 0, 64, 80
1, 811905, Control_c, 0, 64, 79
1, 811920, Control_c, 0, 64, 78
1, 811935, Control_c, 0, 64, 77
1, 811950, Control_c, 0, 64, 75
1, 811965, Note_on_c, 0, 67, 48
1, 811965, Control_c, 0, 64, 72
1, 811980, Control_c, 0, 64, 70
1, 811995, Control_c, 0, 64, 66
1, 812007, Note_on_c, 0, 40, 35
1, 812010, Control_c, 0, 64, 62
1, 812025, Control_c, 0, 64, 56
1, 812039, Control_c, 0, 64, 47
1, 812054, Control_c, 0, 64, 0
1, 812068, Note_off_c, 0, 69, 37
1, 812128, Control_c, 0, 64, 35
1, 812143, Control_c, 0, 64, 51
1, 812158, Control_c, 0, 64, 63
1, 812172, Control_c, 0, 64, 67
1, 812187, Control_c, 0, 64, 71
1, 812202, Control_c, 0, 64, 75
1, 812218, Control_c, 0, 64, 79
1, 812221, Note_off_c, 0, 40, 51
1, 812233, Control_c, 0, 64, 83
1, 812248, Control_c, 0, 64, 87
1, 812262, Control_c, 0, 64, 89
1, 812277, Control_c, 0, 64, 90
1, 812307, Control_c, 0, 64, 90
1, 812440, Control_c, 0, 64, 90
1, 812484, Control_c, 0, 64, 89
1, 812514, Control_c, 0, 64, 89
1, 812529, Control_c, 0, 64, 88
1, 812544, Control_c, 0, 64, 88
1, 812559, Control_c, 0, 64, 87
1, 812588, Control_c, 0, 64, 87
1, 812603, Control_c, 0, 64, 86
1, 812618, Control_c, 0, 64, 86
1, 812640, Control_c, 0, 64, 85
1, 812655, Control_c, 0, 64, 85
1, 812669, Control_c, 0, 64, 84
1, 812672, Note_on_c, 0, 61, 37
1, 812684, Control_c, 0, 64, 84
1, 812697, Note_on_c, 0, 49, 36
1, 812714, Control_c, 0, 64, 83
1, 812729, Control_c, 0, 64, 83
1, 812758, Control_c, 0, 64, 82
1, 812773, Control_c, 0, 64, 82
1, 812788, Control_c, 0, 64, 81
1, 812833, Control_c, 0, 64, 81
1, 813071, Control_c, 0, 64, 80
1, 813358, Note_off_c, 0, 61, 40
1, 813420, Note_off_c, 0, 49, 35
1, 813501, Note_off_c, 0, 67, 53
1, 813715, Control_c, 0, 64, 80
1, 813759, Control_c, 0, 64, 79
1, 813789, Control_c, 0, 64, 79
1, 813834, Control_c, 0, 64, 78
1, 813849, Control_c, 0, 64, 78
1, 813879, Control_c, 0, 64, 77
1, 813894, Control_c, 0, 64, 77
1, 813913, Note_on_c, 0, 67, 40
1, 813923, Control_c, 0, 64, 76
1, 813938, Control_c, 0, 64, 76
1, 813952, Control_c, 0, 64, 75
1, 813967, Control_c, 0, 64, 75
1, 813982, Control_c, 0, 64, 74
1, 813988, Note_on_c, 0, 66, 50
1, 813997, Control_c, 0, 64, 72
1, 814012, Control_c, 0, 64, 70
1, 814027, Control_c, 0, 64, 65
1, 814039, Note_on_c, 0, 38, 28
1, 814041, Control_c, 0, 64, 59
1, 814056, Control_c, 0, 64, 50
1, 814071, Control_c, 0, 64, 42
1, 814086, Control_c, 0, 64, 35
1, 814097, Note_off_c, 0, 67, 36
1, 814101, Control_c, 0, 64, 34
1, 814115, Control_c, 0, 64, 37
1, 814138, Control_c, 0, 64, 42
1, 814153, Control_c, 0, 64, 48
1, 814167, Control_c, 0, 64, 55
1, 814182, Control_c, 0, 64, 61
1, 814197, Control_c, 0, 64, 66
1, 814212, Control_c, 0, 64, 68
1, 814227, Control_c, 0, 64, 71
1, 814241, Control_c, 0, 64, 74
1, 814243, Note_off_c, 0, 38, 53
1, 814256, Control_c, 0, 64, 77
1, 814271, Control_c, 0, 64, 80
1, 814286, Control_c, 0, 64, 82
1, 814301, Control_c, 0, 64, 84
1, 814315, Control_c, 0, 64, 84
1, 814330, Control_c, 0, 64, 85
1, 814395, Note_off_c, 0, 66, 60
1, 814419, Note_on_c, 0, 64, 56
1, 814511, Note_on_c, 0, 66, 64
1, 814538, Control_c, 0, 64, 84
1, 814553, Control_c, 0, 64, 83
1, 814555, Note_off_c, 0, 64, 37
1, 814567, Control_c, 0, 64, 82
1, 814582, Control_c, 0, 64, 79
1, 814594, Note_on_c, 0, 62, 41
1, 814597, Control_c, 0, 64, 72
1, 814613, Control_c, 0, 64, 64
1, 814615, Note_on_c, 0, 50, 38
1, 814627, Control_c, 0, 64, 54
1, 814642, Control_c, 0, 64, 49
1, 814657, Control_c, 0, 64, 50
1, 814672, Control_c, 0, 64, 55
1, 814687, Control_c, 0, 64, 59
1, 814702, Control_c, 0, 64, 63
1, 814716, Control_c, 0, 64, 67
1, 814726, Note_off_c, 0, 62, 46
1, 814728, Note_on_c, 0, 69, 62
1, 814731, Control_c, 0, 64, 71
1, 814733, Note_off_c, 0, 66, 61
1, 814746, Control_c, 0, 64, 75
1, 814761, Control_c, 0, 64, 78
1, 814775, Control_c, 0, 64, 79
1, 814790, Control_c, 0, 64, 80
1, 814805, Control_c, 0, 64, 81
1, 814820, Control_c, 0, 64, 82
1, 814821, Note_off_c, 0, 50, 0
1, 814821, Note_on_c, 0, 50, 3
1, 814894, Note_off_c, 0, 50, 42
1, 814946, Control_c, 0, 64, 82
1, 814975, Control_c, 0, 64, 81
1, 814989, Control_c, 0, 64, 80
1, 815000, Note_on_c, 0, 66, 58
1, 815004, Control_c, 0, 64, 80
1, 815019, Control_c, 0, 64, 78
1, 815034, Control_c, 0, 64, 76
1, 815049, Control_c, 0, 64, 73
1, 815055, Note_on_c, 0, 57, 27
1, 815062, Note_on_c, 0, 45, 35
1, 815063, Control_c, 0, 64, 68
1, 815070, Note_off_c, 0, 69, 38
1, 815078, Control_c, 0, 64, 61
1, 815093, Control_c, 0, 64, 48
1, 815107, Control_c, 0, 64, 0
1, 815167, Control_c, 0, 64, 35
1, 815182, Control_c, 0, 64, 51
1, 815197, Control_c, 0, 64, 60
1, 815204, Note_off_c, 0, 57, 56
1, 815212, Control_c, 0, 64, 65
1, 815227, Control_c, 0, 64, 68
1, 815238, Note_off_c, 0, 45, 62
1, 815241, Control_c, 0, 64, 70
1, 815256, Control_c, 0, 64, 72
1, 815271, Control_c, 0, 64, 75
1, 815286, Control_c, 0, 64, 77
1, 815301, Control_c, 0, 64, 78
1, 815330, Control_c, 0, 64, 78
1, 815450, Control_c, 0, 64, 78
1, 815494, Control_c, 0, 64, 77
1, 815509, Control_c, 0, 64, 77
1, 815524, Control_c, 0, 64, 76
1, 815538, Control_c, 0, 64, 76
1, 815553, Control_c, 0, 64, 75
1, 815568, Control_c, 0, 64, 75
1, 815583, Control_c, 0, 64, 74
1, 815598, Control_c, 0, 64, 74
1, 815605, Note_on_c, 0, 64, 45
1, 815612, Control_c, 0, 64, 73
1, 815635, Control_c, 0, 64, 72
1, 815650, Control_c, 0, 64, 71
1, 815665, Control_c, 0, 64, 70
1, 815679, Control_c, 0, 64, 69
1, 815683, Note_off_c, 0, 66, 39
1, 815687, Note_on_c, 0, 37, 37
1, 815694, Control_c, 0, 64, 66
1, 815709, Control_c, 0, 64, 62
1, 815724, Control_c, 0, 64, 51
1, 815738, Control_c, 0, 64, 35
1, 815753, Control_c, 0, 64, 0
1, 815798, Control_c, 0, 64, 37
1, 815812, Control_c, 0, 64, 48
1, 815827, Control_c, 0, 64, 57
1, 815842, Control_c, 0, 64, 62
1, 815857, Control_c, 0, 64, 66
1, 815872, Control_c, 0, 64, 68
1, 815886, Control_c, 0, 64, 70
1, 815901, Control_c, 0, 64, 71
1, 815906, Note_off_c, 0, 37, 38
1, 815916, Control_c, 0, 64, 72
1, 815930, Control_c, 0, 64, 72
1, 816049, Control_c, 0, 64, 72
1, 816064, Control_c, 0, 64, 71
1, 816079, Control_c, 0, 64, 71
1, 816094, Control_c, 0, 64, 70
1, 816109, Control_c, 0, 64, 69
1, 816124, Control_c, 0, 64, 68
1, 816138, Control_c, 0, 64, 67
1, 816153, Control_c, 0, 64, 66
1, 816168, Control_c, 0, 64, 65
1, 816183, Control_c, 0, 64, 64
1, 816198, Control_c, 0, 64, 64
1, 816213, Control_c, 0, 64, 63
1, 816228, Control_c, 0, 64, 61
1, 816243, Control_c, 0, 64, 59
1, 816258, Control_c, 0, 64, 55
1, 816273, Control_c, 0, 64, 49
1, 816288, Control_c, 0, 64, 39
1, 816302, Control_c, 0, 64, 28
1, 816304, Note_on_c, 0, 57, 35
1, 816317, Control_c, 0, 64, 0
1, 816332, Control_c, 0, 64, 32
1, 816332, Note_on_c, 0, 45, 40
1, 816347, Control_c, 0, 64, 39
1, 816361, Control_c, 0, 64, 47
1, 816383, Control_c, 0, 64, 53
1, 816398, Control_c, 0, 64, 59
1, 816413, Control_c, 0, 64, 63
1, 816428, Control_c, 0, 64, 65
1, 816443, Control_c, 0, 64, 67
1, 816458, Control_c, 0, 64, 69
1, 816467, Note_off_c, 0, 57, 57
1, 816473, Control_c, 0, 64, 70
1, 816487, Control_c, 0, 64, 72
1, 816502, Control_c, 0, 64, 73
1, 816517, Control_c, 0, 64, 74
1, 816517, Control_c, 0, 67, 119
1, 816520, Note_off_c, 0, 45, 62
1, 816532, Control_c, 0, 64, 75
1, 816532, Control_c, 0, 67, 106
1, 816547, Control_c, 0, 64, 75
1, 816547, Control_c, 0, 67, 101
1, 816561, Control_c, 0, 64, 76
1, 816591, Control_c, 0, 64, 76
1, 816591, Control_c, 0, 67, 99
1, 816635, Control_c, 0, 67, 97
1, 816665, Control_c, 0, 67, 94
1, 816679, Control_c, 0, 67, 77
1, 816694, Control_c, 0, 67, 58
1, 816709, Control_c, 0, 64, 76
1, 816709, Control_c, 0, 67, 45
1, 816724, Control_c, 0, 67, 38
1, 816739, Control_c, 0, 67, 35
1, 816753, Control_c, 0, 67, 34
1, 816768, Control_c, 0, 67, 0
1, 816798, Control_c, 0, 64, 75
1, 816831, Note_on_c, 0, 36, 51
1, 816842, Control_c, 0, 64, 75
1, 816857, Control_c, 0, 64, 74
1, 816872, Control_c, 0, 64, 72
1, 816887, Control_c, 0, 64, 69
1, 816902, Control_c, 0, 64, 63
1, 816917, Control_c, 0, 64, 56
1, 816932, Control_c, 0, 64, 53
1, 816947, Control_c, 0, 64, 55
1, 816961, Control_c, 0, 64, 58
1, 816976, Control_c, 0, 64, 61
1, 816991, Control_c, 0, 64, 64
1, 817006, Control_c, 0, 64, 67
1, 817021, Control_c, 0, 64, 71
1, 817036, Control_c, 0, 64, 74
1, 817051, Control_c, 0, 64, 77
1, 817066, Control_c, 0, 64, 79
1, 817081, Control_c, 0, 64, 81
1, 817096, Control_c, 0, 64, 83
1, 817110, Control_c, 0, 64, 84
1, 817132, Control_c, 0, 64, 85
1, 817147, Control_c, 0, 64, 86
1, 817240, Note_off_c, 0, 36, 33
1, 817383, Control_c, 0, 64, 85
1, 817398, Control_c, 0, 64, 85
1, 817413, Control_c, 0, 64, 84
1, 817419, Note_on_c, 0, 67, 47
1, 817428, Control_c, 0, 64, 83
1, 817430, Note_on_c, 0, 55, 48
1, 817443, Control_c, 0, 64, 82
1, 817457, Control_c, 0, 64, 80
1, 817459, Note_on_c, 0, 35, 54
1, 817463, Note_off_c, 0, 64, 55
1, 817472, Control_c, 0, 64, 78
1, 817487, Control_c, 0, 64, 75
1, 817501, Control_c, 0, 64, 69
1, 817516, Control_c, 0, 64, 61
1, 817531, Control_c, 0, 64, 48
1, 817546, Control_c, 0, 64, 0
1, 817605, Control_c, 0, 64, 40
1, 817620, Control_c, 0, 64, 55
1, 817635, Control_c, 0, 64, 63
1, 817650, Control_c, 0, 64, 66
1, 817665, Control_c, 0, 64, 68
1, 817680, Control_c, 0, 64, 70
1, 817692, Note_off_c, 0, 35, 63
1, 817695, Control_c, 0, 64, 72
1, 817709, Control_c, 0, 64, 73
1, 817724, Control_c, 0, 64, 74
1, 817739, Control_c, 0, 64, 75
1, 817844, Control_c, 0, 64, 74
1, 817859, Control_c, 0, 64, 73
1, 817880, Control_c, 0, 64, 71
1, 817895, Control_c, 0, 64, 69
1, 817910, Control_c, 0, 64, 66
1, 817925, Control_c, 0, 64, 64
1, 817939, Control_c, 0, 64, 62
1, 817955, Control_c, 0, 64, 61
1, 817970, Control_c, 0, 64, 59
1, 817985, Control_c, 0, 64, 58
1, 818000, Control_c, 0, 64, 57
1, 818014, Control_c, 0, 64, 55
1, 818029, Control_c, 0, 64, 54
1, 818044, Control_c, 0, 64, 53
1, 818059, Control_c, 0, 64, 52
1, 818074, Control_c, 0, 64, 51
1, 818088, Control_c, 0, 64, 48
1, 818097, Note_on_c, 0, 50, 52
1, 818103, Control_c, 0, 64, 46
1, 818109, Note_on_c, 0, 38, 49
1, 818118, Control_c, 0, 64, 45
1, 818148, Control_c, 0, 64, 44
1, 818163, Control_c, 0, 64, 44
1, 818207, Control_c, 0, 64, 45
1, 818222, Control_c, 0, 64, 46
1, 818237, Control_c, 0, 64, 47
1, 818252, Control_c, 0, 64, 48
1, 818267, Control_c, 0, 64, 50
1, 818281, Control_c, 0, 64, 52
1, 818296, Control_c, 0, 64, 53
1, 818311, Control_c, 0, 64, 54
1, 818325, Control_c, 0, 64, 55
1, 818340, Control_c, 0, 64, 56
1, 818355, Control_c, 0, 64, 58
1, 818370, Control_c, 0, 64, 59
1, 818385, Control_c, 0, 64, 60
1, 818399, Control_c, 0, 64, 60
1, 818414, Control_c, 0, 64, 61
1, 818429, Control_c, 0, 64, 62
1, 818444, Control_c, 0, 64, 64
1, 818458, Control_c, 0, 64, 65
1, 818473, Control_c, 0, 64, 66
1, 818488, Control_c, 0, 64, 67
1, 818503, Control_c, 0, 64, 68
1, 818518, Control_c, 0, 64, 70
1, 818532, Control_c, 0, 64, 71
1, 818547, Control_c, 0, 64, 72
1, 818562, Control_c, 0, 64, 73
1, 818577, Control_c, 0, 64, 74
1, 818593, Control_c, 0, 64, 75
1, 818608, Control_c, 0, 64, 75
1, 818608, Control_c, 0, 67, 33
1, 818630, Control_c, 0, 64, 76
1, 818645, Control_c, 0, 64, 77
1, 818660, Control_c, 0, 64, 77
1, 818660, Control_c, 0, 67, 34
1, 818675, Control_c, 0, 64, 78
1, 818689, Control_c, 0, 64, 79
1, 818719, Control_c, 0, 64, 80
1, 818763, Control_c, 0, 64, 80
1, 818786, Note_off_c, 0, 50, 30
1, 818793, Control_c, 0, 67, 34
1, 818829, Note_off_c, 0, 55, 37
1, 818881, Control_c, 0, 67, 35
1, 818883, Note_off_c, 0, 38, 38
1, 818926, Control_c, 0, 67, 35
1, 819060, Control_c, 0, 67, 36
1, 819163, Control_c, 0, 67, 37
1, 819193, Control_c, 0, 64, 80
1, 819237, Control_c, 0, 67, 37
1, 819267, Control_c, 0, 64, 79
1, 819311, Control_c, 0, 64, 79
1, 819326, Control_c, 0, 67, 38
1, 819341, Control_c, 0, 64, 78
1, 819378, Control_c, 0, 64, 78
1, 819393, Control_c, 0, 64, 77
1, 819424, Control_c, 0, 64, 77
1, 819453, Control_c, 0, 64, 76
1, 819468, Control_c, 0, 64, 76
1, 819498, Control_c, 0, 64, 75
1, 819501, Note_on_c, 0, 66, 43
1, 819512, Control_c, 0, 64, 74
1, 819516, Note_on_c, 0, 54, 40
1, 819527, Control_c, 0, 64, 74
1, 819542, Control_c, 0, 64, 73
1, 819555, Note_on_c, 0, 33, 44
1, 819557, Control_c, 0, 64, 72
1, 819571, Control_c, 0, 64, 71
1, 819586, Control_c, 0, 64, 69
1, 819595, Note_off_c, 0, 67, 59
1, 819601, Control_c, 0, 64, 66
1, 819616, Control_c, 0, 64, 60
1, 819631, Control_c, 0, 64, 50
1, 819646, Control_c, 0, 64, 32
1, 819660, Control_c, 0, 64, 0
1, 819704, Control_c, 0, 64, 32
1, 819719, Control_c, 0, 64, 45
1, 819719, Control_c, 0, 67, 37
1, 819734, Control_c, 0, 64, 56
1, 819749, Control_c, 0, 64, 63
1, 819764, Control_c, 0, 64, 65
1, 819764, Control_c, 0, 67, 37
1, 819778, Control_c, 0, 64, 66
1, 819793, Control_c, 0, 64, 68
1, 819808, Control_c, 0, 64, 69
1, 819823, Note_off_c, 0, 33, 57
1, 819823, Control_c, 0, 64, 70
1, 819838, Control_c, 0, 64, 71
1, 819912, Control_c, 0, 64, 70
1, 819912, Control_c, 0, 67, 37
1, 819927, Control_c, 0, 64, 70
1, 819942, Control_c, 0, 64, 69
1, 819957, Control_c, 0, 64, 67
1, 819971, Control_c, 0, 64, 65
1, 819986, Control_c, 0, 64, 62
1, 819986, Control_c, 0, 67, 38
1, 820001, Control_c, 0, 64, 60
1, 820016, Control_c, 0, 64, 58
1, 820030, Control_c, 0, 64, 55
1, 820045, Control_c, 0, 64, 51
1, 820060, Control_c, 0, 64, 45
1, 820075, Control_c, 0, 64, 40
1, 820090, Control_c, 0, 64, 37
1, 820104, Control_c, 0, 64, 35
1, 820127, Control_c, 0, 64, 33
1, 820142, Control_c, 0, 64, 29
1, 820157, Control_c, 0, 64, 0
1, 820317, Note_on_c, 0, 37, 40
1, 820324, Note_on_c, 0, 49, 37
1, 820587, Control_c, 0, 67, 37
1, 820601, Control_c, 0, 64, 27
1, 820631, Control_c, 0, 64, 30
1, 820661, Control_c, 0, 64, 33
1, 820676, Control_c, 0, 64, 34
1, 820691, Control_c, 0, 64, 37
1, 820705, Control_c, 0, 64, 39
1, 820720, Control_c, 0, 64, 41
1, 820735, Control_c, 0, 64, 44
1, 820750, Control_c, 0, 64, 46
1, 820765, Control_c, 0, 64, 49
1, 820780, Control_c, 0, 64, 52
1, 820794, Control_c, 0, 64, 53
1, 820809, Control_c, 0, 64, 55
1, 820824, Control_c, 0, 64, 57
1, 820839, Control_c, 0, 64, 59
1, 820853, Control_c, 0, 64, 60
1, 820875, Control_c, 0, 64, 61
1, 820890, Control_c, 0, 64, 62
1, 820905, Control_c, 0, 64, 63
1, 820920, Control_c, 0, 64, 64
1, 820935, Control_c, 0, 64, 66
1, 820950, Control_c, 0, 64, 67
1, 820965, Control_c, 0, 64, 68
1, 820980, Control_c, 0, 64, 69
1, 820980, Control_c, 0, 67, 38
1, 820995, Control_c, 0, 64, 70
1, 820995, Control_c, 0, 67, 38
1, 821010, Control_c, 0, 64, 71
1, 821010, Control_c, 0, 67, 39
1, 821024, Control_c, 0, 64, 72
1, 821024, Control_c, 0, 67, 40
1, 821039, Control_c, 0, 64, 73
1, 821039, Control_c, 0, 67, 41
1, 821052, Note_off_c, 0, 49, 28
1, 821054, Control_c, 0, 64, 74
1, 821054, Control_c, 0, 67, 41
1, 821069, Control_c, 0, 64, 75
1, 821069, Control_c, 0, 67, 42
1, 821084, Control_c, 0, 64, 75
1, 821084, Control_c, 0, 67, 43
1, 821099, Control_c, 0, 64, 76
1, 821099, Control_c, 0, 67, 44
1, 821114, Control_c, 0, 64, 77
1, 821114, Control_c, 0, 67, 45
1, 821129, Control_c, 0, 67, 46
1, 821144, Control_c, 0, 64, 77
1, 821144, Control_c, 0, 67, 48
1, 821147, Note_off_c, 0, 54, 33
1, 821158, Control_c, 0, 67, 50
1, 821173, Control_c, 0, 67, 57
1, 821185, Note_off_c, 0, 37, 39
1, 821188, Control_c, 0, 67, 75
1, 821203, Control_c, 0, 64, 78
1, 821203, Control_c, 0, 67, 93
1, 821218, Control_c, 0, 67, 108
1, 821232, Control_c, 0, 67, 119
1, 821247, Control_c, 0, 67, 127
1, 821270, Note_off_c, 0, 66, 35
1, 821498, Control_c, 0, 64, 77
1, 821588, Control_c, 0, 64, 77
1, 821618, Control_c, 0, 64, 76
1, 821654, Control_c, 0, 64, 76
1, 821669, Control_c, 0, 64, 75
1, 821683, Control_c, 0, 64, 75
1, 821698, Control_c, 0, 64, 74
1, 821728, Control_c, 0, 64, 74
1, 821743, Control_c, 0, 64, 73
1, 821773, Control_c, 0, 64, 73
1, 821788, Control_c, 0, 64, 72
1, 821818, Control_c, 0, 64, 72
1, 821833, Control_c, 0, 64, 71
1, 821847, Control_c, 0, 64, 71
1, 821862, Control_c, 0, 64, 70
1, 821877, Control_c, 0, 64, 69
1, 821892, Control_c, 0, 64, 68
1, 821907, Control_c, 0, 64, 67
1, 821922, Control_c, 0, 64, 66
1, 821925, Note_on_c, 0, 61, 37
1, 821928, Note_on_c, 0, 53, 33
1, 821933, Note_on_c, 0, 59, 35
1, 821937, Control_c, 0, 64, 66
1, 821940, Note_on_c, 0, 32, 44
1, 821951, Control_c, 0, 64, 64
1, 821966, Control_c, 0, 64, 63
1, 821981, Control_c, 0, 64, 62
1, 821996, Control_c, 0, 64, 61
1, 822011, Control_c, 0, 64, 59
1, 822026, Control_c, 0, 64, 57
1, 822041, Control_c, 0, 64, 54
1, 822055, Control_c, 0, 64, 50
1, 822070, Control_c, 0, 64, 46
1, 822085, Control_c, 0, 64, 41
1, 822099, Control_c, 0, 64, 31
1, 822114, Control_c, 0, 64, 0
1, 822135, Note_off_c, 0, 32, 52
1, 822196, Note_off_c, 0, 53, 53
1, 822211, Note_off_c, 0, 59, 44
1, 822218, Note_off_c, 0, 61, 56
1, 822619, Note_on_c, 0, 61, 41
1, 822633, Note_on_c, 0, 53, 26
1, 822637, Note_on_c, 0, 59, 33
1, 822687, Note_on_c, 0, 37, 43
1, 822701, Note_on_c, 0, 49, 36
1, 822730, Control_c, 0, 64, 39
1, 822744, Control_c, 0, 64, 52
1, 822759, Control_c, 0, 64, 60
1, 822774, Control_c, 0, 64, 62
1, 822789, Control_c, 0, 64, 64
1, 822804, Control_c, 0, 64, 65
1, 822819, Control_c, 0, 64, 68
1, 822834, Control_c, 0, 64, 70
1, 822848, Control_c, 0, 64, 73
1, 822863, Control_c, 0, 64, 76
1, 822878, Control_c, 0, 64, 77
1, 822893, Control_c, 0, 64, 79
1, 822908, Control_c, 0, 64, 80
1, 822920, Note_off_c, 0, 49, 34
1, 822922, Control_c, 0, 64, 81
1, 822937, Control_c, 0, 64, 81
1, 822952, Control_c, 0, 64, 82
1, 822982, Control_c, 0, 64, 82
1, 823028, Note_off_c, 0, 61, 37
1, 823083, Note_off_c, 0, 37, 60
1, 823101, Note_on_c, 0, 62, 52
1, 823196, Control_c, 0, 64, 82
1, 823212, Note_on_c, 0, 61, 51
1, 823226, Control_c, 0, 64, 81
1, 823241, Control_c, 0, 64, 81
1, 823255, Control_c, 0, 64, 80
1, 823258, Note_on_c, 0, 31, 52
1, 823270, Control_c, 0, 64, 76
1, 823281, Note_off_c, 0, 62, 37
1, 823285, Control_c, 0, 64, 69
1, 823300, Control_c, 0, 64, 59
1, 823315, Control_c, 0, 64, 44
1, 823329, Control_c, 0, 64, 33
1, 823344, Control_c, 0, 64, 34
1, 823359, Control_c, 0, 64, 44
1, 823374, Control_c, 0, 64, 55
1, 823389, Control_c, 0, 64, 62
1, 823405, Control_c, 0, 64, 67
1, 823419, Control_c, 0, 64, 72
1, 823420, Note_off_c, 0, 59, 53
1, 823424, Note_off_c, 0, 61, 60
1, 823434, Control_c, 0, 64, 75
1, 823449, Control_c, 0, 64, 77
1, 823454, Note_off_c, 0, 53, 49
1, 823464, Control_c, 0, 64, 78
1, 823478, Control_c, 0, 64, 80
1, 823493, Control_c, 0, 64, 80
1, 823654, Note_off_c, 0, 31, 28
1, 823657, Control_c, 0, 64, 80
1, 823686, Control_c, 0, 64, 79
1, 823701, Control_c, 0, 64, 79
1, 823716, Control_c, 0, 64, 78
1, 823731, Control_c, 0, 64, 78
1, 823745, Control_c, 0, 64, 77
1, 823760, Control_c, 0, 64, 76
1, 823775, Control_c, 0, 64, 76
1, 823790, Control_c, 0, 64, 75
1, 823791, Note_on_c, 0, 30, 46
1, 823805, Control_c, 0, 64, 74
1, 823819, Control_c, 0, 64, 74
1, 823834, Control_c, 0, 64, 73
1, 823838, Note_on_c, 0, 45, 51
1, 823849, Control_c, 0, 64, 72
1, 823871, Control_c, 0, 64, 70
1, 823886, Control_c, 0, 64, 63
1, 823891, Note_on_c, 0, 49, 50
1, 823901, Control_c, 0, 64, 50
1, 823916, Control_c, 0, 64, 0
1, 823930, Note_on_c, 0, 54, 54
1, 824019, Control_c, 0, 64, 36
1, 824034, Control_c, 0, 64, 49
1, 824049, Control_c, 0, 64, 57
1, 824064, Control_c, 0, 64, 61
1, 824078, Control_c, 0, 64, 63
1, 824084, Note_off_c, 0, 30, 55
1, 824093, Control_c, 0, 64, 65
1, 824108, Control_c, 0, 64, 67
1, 824123, Control_c, 0, 64, 68
1, 824138, Control_c, 0, 64, 70
1, 824152, Control_c, 0, 64, 70
1, 824182, Control_c, 0, 64, 71
1, 824286, Note_off_c, 0, 54, 36
1, 824310, Note_off_c, 0, 49, 31
1, 824338, Note_off_c, 0, 45, 30
1, 824464, Note_on_c, 0, 30, 49
1, 824502, Note_on_c, 0, 33, 51
1, 824509, Control_c, 0, 64, 70
1, 824524, Control_c, 0, 64, 70
1, 824539, Note_on_c, 0, 37, 61
1, 824539, Control_c, 0, 64, 69
1, 824554, Control_c, 0, 64, 68
1, 824568, Control_c, 0, 64, 67
1, 824578, Note_on_c, 0, 42, 61
1, 824583, Control_c, 0, 64, 65
1, 824598, Control_c, 0, 64, 63
1, 824619, Control_c, 0, 64, 61
1, 824634, Control_c, 0, 64, 60
1, 824649, Control_c, 0, 64, 58
1, 824664, Control_c, 0, 64, 56
1, 824679, Control_c, 0, 64, 54
1, 824694, Control_c, 0, 64, 51
1, 824709, Control_c, 0, 64, 48
1, 824724, Control_c, 0, 64, 45
1, 824739, Control_c, 0, 64, 42
1, 824754, Control_c, 0, 64, 40
1, 824783, Control_c, 0, 64, 40
1, 824813, Control_c, 0, 64, 39
1, 824843, Control_c, 0, 64, 39
1, 824902, Control_c, 0, 64, 38
1, 825064, Note_on_c, 0, 45, 47
1, 825081, Control_c, 0, 64, 38
1, 825081, Control_c, 0, 67, 125
1, 825096, Control_c, 0, 64, 37
1, 825096, Control_c, 0, 67, 121
1, 825106, Note_on_c, 0, 49, 55
1, 825111, Control_c, 0, 67, 116
1, 825125, Control_c, 0, 64, 38
1, 825125, Control_c, 0, 67, 110
1, 825140, Control_c, 0, 64, 40
1, 825140, Control_c, 0, 67, 97
1, 825147, Note_on_c, 0, 54, 56
1, 825155, Control_c, 0, 64, 42
1, 825155, Control_c, 0, 67, 71
1, 825170, Control_c, 0, 64, 45
1, 825170, Control_c, 0, 67, 36
1, 825185, Control_c, 0, 64, 49
1, 825185, Control_c, 0, 67, 0
1, 825199, Control_c, 0, 64, 52
1, 825214, Control_c, 0, 64, 55
1, 825229, Control_c, 0, 64, 56
1, 825243, Control_c, 0, 64, 59
1, 825258, Control_c, 0, 64, 61
1, 825273, Control_c, 0, 64, 63
1, 825288, Control_c, 0, 64, 65
1, 825303, Control_c, 0, 64, 66
1, 825308, Note_off_c, 0, 42, 34
1, 825317, Control_c, 0, 64, 67
1, 825332, Control_c, 0, 64, 68
1, 825341, Note_off_c, 0, 33, 32
1, 825347, Control_c, 0, 64, 69
1, 825349, Note_off_c, 0, 37, 31
1, 825370, Control_c, 0, 64, 71
1, 825377, Note_off_c, 0, 30, 37
1, 825385, Control_c, 0, 64, 72
1, 825399, Control_c, 0, 64, 72
1, 825414, Control_c, 0, 64, 73
1, 825429, Control_c, 0, 64, 73
1, 825442, Control_c, 0, 64, 74
1, 825472, Control_c, 0, 64, 75
1, 825502, Control_c, 0, 64, 75
1, 825663, Note_on_c, 0, 30, 41
1, 825680, Control_c, 0, 64, 75
1, 825683, Note_on_c, 0, 35, 51
1, 825710, Control_c, 0, 64, 73
1, 825724, Control_c, 0, 64, 71
1, 825737, Note_on_c, 0, 38, 51
1, 825739, Control_c, 0, 64, 67
1, 825754, Control_c, 0, 64, 61
1, 825769, Control_c, 0, 64, 51
1, 825773, Note_off_c, 0, 45, 35
1, 825781, Note_on_c, 0, 42, 51
1, 825784, Control_c, 0, 64, 33
1, 825800, Control_c, 0, 64, 0
1, 825804, Note_off_c, 0, 49, 24
1, 825824, Note_off_c, 0, 54, 31
1, 825829, Control_c, 0, 67, 46
1, 825844, Control_c, 0, 67, 62
1, 825859, Control_c, 0, 67, 84
1, 825873, Control_c, 0, 67, 103
1, 825888, Control_c, 0, 67, 118
1, 825903, Control_c, 0, 67, 127
1, 825947, Control_c, 0, 64, 32
1, 825962, Control_c, 0, 64, 43
1, 825977, Control_c, 0, 64, 50
1, 825992, Control_c, 0, 64, 53
1, 826006, Control_c, 0, 64, 55
1, 826021, Control_c, 0, 64, 57
1, 826036, Control_c, 0, 64, 59
1, 826051, Control_c, 0, 64, 61
1, 826065, Control_c, 0, 64, 61
1, 826080, Control_c, 0, 64, 62
1, 826095, Control_c, 0, 64, 62
1, 826118, Control_c, 0, 64, 63
1, 826133, Control_c, 0, 64, 64
1, 826147, Control_c, 0, 64, 65
1, 826162, Control_c, 0, 64, 65
1, 826177, Control_c, 0, 64, 66
1, 826271, Note_on_c, 0, 47, 48
1, 826321, Note_on_c, 0, 50, 49
1, 826340, Control_c, 0, 64, 65
1, 826354, Control_c, 0, 64, 64
1, 826369, Control_c, 0, 64, 60
1, 826375, Note_on_c, 0, 54, 51
1, 826384, Control_c, 0, 64, 52
1, 826399, Control_c, 0, 64, 38
1, 826414, Control_c, 0, 64, 0
1, 826444, Control_c, 0, 64, 30
1, 826459, Control_c, 0, 64, 41
1, 826473, Control_c, 0, 64, 48
1, 826488, Control_c, 0, 64, 53
1, 826503, Control_c, 0, 64, 57
1, 826518, Control_c, 0, 64, 60
1, 826533, Control_c, 0, 64, 62
1, 826547, Control_c, 0, 64, 63
1, 826562, Control_c, 0, 64, 64
1, 826577, Control_c, 0, 64, 65
1, 826592, Note_off_c, 0, 30, 40
1, 826593, Control_c, 0, 64, 66
1, 826608, Control_c, 0, 64, 68
1, 826618, Note_off_c, 0, 35, 31
1, 826623, Control_c, 0, 64, 68
1, 826629, Note_off_c, 0, 38, 35
1, 826632, Note_off_c, 0, 42, 33
1, 826637, Control_c, 0, 64, 69
1, 826682, Control_c, 0, 64, 69
1, 826891, Note_on_c, 0, 30, 38
1, 826941, Note_on_c, 0, 35, 36
1, 826941, Control_c, 0, 64, 69
1, 826956, Control_c, 0, 64, 68
1, 826970, Control_c, 0, 64, 66
1, 826973, Note_on_c, 0, 38, 48
1, 826985, Control_c, 0, 64, 61
1, 827000, Control_c, 0, 64, 54
1, 827005, Note_on_c, 0, 42, 52
1, 827014, Control_c, 0, 64, 43
1, 827029, Note_off_c, 0, 54, 31
1, 827029, Control_c, 0, 64, 0
1, 827082, Note_off_c, 0, 50, 51
1, 827118, Control_c, 0, 64, 31
1, 827133, Control_c, 0, 64, 42
1, 827148, Control_c, 0, 64, 54
1, 827163, Control_c, 0, 64, 59
1, 827177, Control_c, 0, 64, 61
1, 827192, Control_c, 0, 64, 62
1, 827207, Control_c, 0, 64, 64
1, 827219, Note_off_c, 0, 47, 37
1, 827222, Control_c, 0, 64, 67
1, 827237, Control_c, 0, 64, 69
1, 827252, Control_c, 0, 64, 71
1, 827266, Control_c, 0, 64, 71
1, 827281, Control_c, 0, 64, 72
1, 827311, Control_c, 0, 64, 72
1, 827534, Note_on_c, 0, 45, 39
1, 827564, Control_c, 0, 64, 72
1, 827588, Note_on_c, 0, 49, 50
1, 827615, Control_c, 0, 64, 71
1, 827645, Control_c, 0, 64, 71
1, 827660, Control_c, 0, 64, 70
1, 827664, Note_on_c, 0, 54, 49
1, 827675, Control_c, 0, 64, 69
1, 827687, Note_off_c, 0, 38, 27
1, 827689, Control_c, 0, 64, 69
1, 827696, Note_off_c, 0, 35, 35
1, 827704, Control_c, 0, 64, 68
1, 827718, Control_c, 0, 64, 68
1, 827733, Control_c, 0, 64, 67
1, 827748, Control_c, 0, 64, 66
1, 827763, Control_c, 0, 64, 65
1, 827778, Control_c, 0, 64, 64
1, 827783, Note_off_c, 0, 42, 30
1, 827785, Note_off_c, 0, 30, 35
1, 827792, Control_c, 0, 64, 63
1, 827807, Control_c, 0, 64, 62
1, 827822, Control_c, 0, 64, 61
1, 827836, Control_c, 0, 64, 59
1, 827851, Control_c, 0, 64, 58
1, 827866, Control_c, 0, 64, 55
1, 827881, Control_c, 0, 64, 52
1, 827896, Control_c, 0, 64, 49
1, 827910, Control_c, 0, 64, 48
1, 827940, Control_c, 0, 64, 49
1, 827955, Control_c, 0, 64, 50
1, 827970, Control_c, 0, 64, 51
1, 827985, Control_c, 0, 64, 52
1, 828000, Control_c, 0, 64, 54
1, 828015, Control_c, 0, 64, 56
1, 828030, Control_c, 0, 64, 58
1, 828044, Control_c, 0, 64, 59
1, 828059, Control_c, 0, 64, 61
1, 828074, Control_c, 0, 64, 62
1, 828089, Control_c, 0, 64, 63
1, 828104, Control_c, 0, 64, 64
1, 828118, Control_c, 0, 64, 65
1, 828133, Control_c, 0, 64, 65
1, 828148, Control_c, 0, 64, 66
1, 828152, Note_on_c, 0, 30, 41
1, 828177, Control_c, 0, 64, 66
1, 828212, Note_on_c, 0, 33, 40
1, 828248, Note_on_c, 0, 37, 51
1, 828280, Note_off_c, 0, 54, 30
1, 828305, Note_on_c, 0, 42, 48
1, 828312, Control_c, 0, 64, 66
1, 828316, Note_off_c, 0, 45, 35
1, 828329, Note_off_c, 0, 49, 30
1, 828341, Control_c, 0, 64, 65
1, 828378, Control_c, 0, 64, 65
1, 828393, Control_c, 0, 64, 64
1, 828408, Control_c, 0, 64, 64
1, 828423, Control_c, 0, 64, 63
1, 828438, Control_c, 0, 64, 62
1, 828453, Control_c, 0, 64, 61
1, 828467, Control_c, 0, 64, 60
1, 828482, Control_c, 0, 64, 59
1, 828497, Control_c, 0, 64, 58
1, 828512, Control_c, 0, 64, 57
1, 828527, Control_c, 0, 64, 56
1, 828541, Control_c, 0, 64, 55
1, 828556, Control_c, 0, 64, 53
1, 828571, Control_c, 0, 64, 51
1, 828586, Control_c, 0, 64, 48
1, 828601, Control_c, 0, 64, 45
1, 828615, Control_c, 0, 64, 40
1, 828630, Control_c, 0, 64, 34
1, 828645, Control_c, 0, 64, 30
1, 828733, Control_c, 0, 64, 32
1, 828748, Control_c, 0, 64, 33
1, 828763, Control_c, 0, 64, 33
1, 828808, Control_c, 0, 64, 34
1, 828849, Note_on_c, 0, 45, 34
1, 828903, Note_on_c, 0, 49, 47
1, 828956, Control_c, 0, 64, 35
1, 828968, Note_on_c, 0, 54, 45
1, 828971, Control_c, 0, 64, 36
1, 828986, Control_c, 0, 64, 37
1, 829001, Control_c, 0, 64, 38
1, 829016, Control_c, 0, 64, 40
1, 829020, Note_off_c, 0, 33, 39
1, 829031, Control_c, 0, 64, 41
1, 829045, Note_off_c, 0, 42, 28
1, 829046, Control_c, 0, 64, 43
1, 829053, Note_off_c, 0, 37, 37
1, 829061, Control_c, 0, 64, 44
1, 829076, Control_c, 0, 64, 45
1, 829090, Control_c, 0, 64, 47
1, 829112, Control_c, 0, 64, 49
1, 829127, Control_c, 0, 64, 50
1, 829142, Control_c, 0, 64, 52
1, 829157, Control_c, 0, 64, 53
1, 829171, Control_c, 0, 64, 55
1, 829173, Note_off_c, 0, 30, 37
1, 829186, Control_c, 0, 64, 56
1, 829201, Control_c, 0, 64, 58
1, 829216, Control_c, 0, 64, 59
1, 829231, Control_c, 0, 64, 61
1, 829246, Control_c, 0, 64, 62
1, 829261, Control_c, 0, 64, 63
1, 829276, Control_c, 0, 64, 64
1, 829290, Control_c, 0, 64, 65
1, 829305, Control_c, 0, 64, 66
1, 829320, Control_c, 0, 64, 67
1, 829335, Control_c, 0, 64, 68
1, 829350, Control_c, 0, 64, 69
1, 829394, Control_c, 0, 64, 69
1, 829559, Note_on_c, 0, 30, 40
1, 829606, Note_on_c, 0, 32, 49
1, 829630, Control_c, 0, 64, 69
1, 829660, Control_c, 0, 64, 68
1, 829666, Note_on_c, 0, 35, 52
1, 829675, Control_c, 0, 64, 68
1, 829690, Control_c, 0, 64, 67
1, 829705, Control_c, 0, 64, 67
1, 829720, Control_c, 0, 64, 66
1, 829735, Note_off_c, 0, 49, 34
1, 829735, Control_c, 0, 64, 65
1, 829743, Note_on_c, 0, 42, 43
1, 829750, Control_c, 0, 64, 63
1, 829764, Control_c, 0, 64, 62
1, 829778, Note_off_c, 0, 45, 28
1, 829779, Control_c, 0, 64, 61
1, 829794, Control_c, 0, 64, 59
1, 829809, Control_c, 0, 64, 58
1, 829816, Note_off_c, 0, 54, 38
1, 829824, Control_c, 0, 64, 57
1, 829839, Control_c, 0, 64, 55
1, 829854, Control_c, 0, 64, 52
1, 829876, Control_c, 0, 64, 49
1, 829891, Control_c, 0, 64, 46
1, 829906, Control_c, 0, 64, 44
1, 829920, Control_c, 0, 64, 43
1, 829935, Control_c, 0, 64, 41
1, 829950, Control_c, 0, 64, 40
1, 829965, Control_c, 0, 64, 38
1, 829980, Control_c, 0, 64, 37
1, 830039, Control_c, 0, 64, 38
1, 830054, Control_c, 0, 64, 38
1, 830068, Control_c, 0, 64, 40
1, 830083, Control_c, 0, 64, 42
1, 830098, Control_c, 0, 64, 43
1, 830113, Control_c, 0, 64, 45
1, 830128, Control_c, 0, 64, 47
1, 830143, Control_c, 0, 64, 49
1, 830158, Control_c, 0, 64, 52
1, 830173, Control_c, 0, 64, 54
1, 830187, Control_c, 0, 64, 56
1, 830202, Control_c, 0, 64, 58
1, 830217, Control_c, 0, 64, 60
1, 830231, Control_c, 0, 64, 62
1, 830246, Control_c, 0, 64, 63
1, 830261, Control_c, 0, 64, 64
1, 830276, Control_c, 0, 64, 65
1, 830349, Note_on_c, 0, 44, 37
1, 830399, Note_on_c, 0, 47, 46
1, 830438, Control_c, 0, 64, 65
1, 830464, Note_off_c, 0, 30, 37
1, 830468, Control_c, 0, 64, 64
1, 830472, Note_on_c, 0, 54, 40
1, 830483, Control_c, 0, 64, 64
1, 830498, Control_c, 0, 64, 63
1, 830513, Control_c, 0, 64, 62
1, 830528, Control_c, 0, 64, 62
1, 830542, Note_off_c, 0, 42, 33
1, 830542, Control_c, 0, 64, 61
1, 830557, Control_c, 0, 64, 60
1, 830572, Control_c, 0, 64, 59
1, 830579, Note_off_c, 0, 35, 35
1, 830584, Note_off_c, 0, 32, 38
1, 830588, Control_c, 0, 64, 59
1, 830610, Control_c, 0, 64, 58
1, 830625, Control_c, 0, 64, 57
1, 830640, Control_c, 0, 64, 56
1, 830654, Control_c, 0, 64, 56
1, 830669, Control_c, 0, 64, 55
1, 830714, Control_c, 0, 64, 54
1, 830729, Control_c, 0, 64, 54
1, 830743, Control_c, 0, 64, 53
1, 830758, Control_c, 0, 64, 53
1, 830773, Control_c, 0, 64, 52
1, 830788, Control_c, 0, 64, 52
1, 830803, Control_c, 0, 64, 51
1, 830817, Control_c, 0, 64, 49
1, 830832, Control_c, 0, 64, 48
1, 830847, Control_c, 0, 64, 47
1, 830861, Control_c, 0, 64, 46
1, 830876, Control_c, 0, 64, 45
1, 830891, Control_c, 0, 64, 44
1, 830906, Control_c, 0, 64, 43
1, 830921, Control_c, 0, 64, 42
1, 830936, Control_c, 0, 64, 41
1, 830951, Control_c, 0, 64, 40
1, 830966, Control_c, 0, 64, 39
1, 830980, Control_c, 0, 64, 38
1, 830995, Control_c, 0, 64, 37
1, 831010, Control_c, 0, 64, 37
1, 831025, Control_c, 0, 64, 36
1, 831040, Control_c, 0, 64, 36
1, 831054, Control_c, 0, 64, 35
1, 831066, Note_on_c, 0, 30, 37
1, 831069, Control_c, 0, 64, 34
1, 831084, Control_c, 0, 64, 33
1, 831106, Note_on_c, 0, 32, 43
1, 831114, Control_c, 0, 64, 30
1, 831143, Control_c, 0, 64, 27
1, 831157, Note_on_c, 0, 35, 41
1, 831158, Control_c, 0, 64, 0
1, 831198, Note_on_c, 0, 42, 43
1, 831202, Control_c, 0, 64, 27
1, 831217, Control_c, 0, 64, 30
1, 831232, Control_c, 0, 64, 35
1, 831247, Control_c, 0, 64, 41
1, 831261, Note_off_c, 0, 47, 51
1, 831261, Control_c, 0, 64, 46
1, 831276, Control_c, 0, 64, 51
1, 831291, Control_c, 0, 64, 56
1, 831306, Control_c, 0, 64, 59
1, 831321, Control_c, 0, 64, 61
1, 831335, Control_c, 0, 64, 62
1, 831358, Control_c, 0, 64, 63
1, 831373, Control_c, 0, 64, 64
1, 831389, Control_c, 0, 64, 65
1, 831404, Control_c, 0, 64, 66
1, 831419, Control_c, 0, 64, 68
1, 831434, Control_c, 0, 64, 70
1, 831449, Control_c, 0, 64, 71
1, 831464, Control_c, 0, 64, 72
1, 831478, Control_c, 0, 64, 73
1, 831493, Control_c, 0, 64, 73
1, 831508, Control_c, 0, 64, 74
1, 831520, Note_off_c, 0, 44, 40
1, 831535, Note_off_c, 0, 54, 30
1, 831613, Note_off_c, 0, 35, 28
1, 831616, Note_off_c, 0, 32, 34
1, 831642, Note_off_c, 0, 42, 31
1, 831699, Note_off_c, 0, 30, 20
1, 831908, Control_c, 0, 64, 73
1, 831938, Control_c, 0, 64, 73
1, 831952, Control_c, 0, 64, 72
1, 831967, Control_c, 0, 64, 71
1, 831982, Control_c, 0, 64, 70
1, 831997, Control_c, 0, 64, 69
1, 832011, Control_c, 0, 64, 68
1, 832024, Note_on_c, 0, 30, 38
1, 832026, Control_c, 0, 64, 66
1, 832036, Note_on_c, 0, 42, 30
1, 832041, Control_c, 0, 64, 63
1, 832056, Control_c, 0, 64, 60
1, 832058, Note_on_c, 0, 45, 34
1, 832064, Note_on_c, 0, 54, 37
1, 832071, Control_c, 0, 64, 56
1, 832074, Note_on_c, 0, 33, 34
1, 832085, Control_c, 0, 64, 50
1, 832107, Control_c, 0, 64, 44
1, 832122, Control_c, 0, 64, 35
1, 832137, Control_c, 0, 64, 0
1, 832789, Control_c, 0, 64, 29
1, 832804, Control_c, 0, 64, 33
1, 832819, Control_c, 0, 64, 37
1, 832833, Control_c, 0, 64, 41
1, 832856, Control_c, 0, 64, 44
1, 832871, Control_c, 0, 64, 49
1, 832885, Control_c, 0, 64, 54
1, 832900, Control_c, 0, 64, 57
1, 832915, Control_c, 0, 64, 59
1, 832930, Control_c, 0, 64, 61
1, 832945, Control_c, 0, 64, 62
1, 832959, Control_c, 0, 64, 63
1, 832974, Control_c, 0, 64, 65
1, 832990, Control_c, 0, 64, 66
1, 833005, Control_c, 0, 64, 67
1, 833020, Control_c, 0, 64, 69
1, 833034, Control_c, 0, 64, 70
1, 833049, Control_c, 0, 64, 71
1, 833064, Control_c, 0, 64, 72
1, 833079, Control_c, 0, 64, 73
1, 833094, Control_c, 0, 64, 74
1, 833109, Control_c, 0, 64, 74
1, 833124, Control_c, 0, 64, 75
1, 833138, Control_c, 0, 64, 75
1, 833579, Note_off_c, 0, 33, 35
1, 833652, Note_off_c, 0, 45, 28
1, 833684, Note_off_c, 0, 30, 39
1, 833786, Note_off_c, 0, 54, 26
1, 833853, Note_off_c, 0, 42, 22
1, 834412, Control_c, 0, 64, 75
1, 834487, Control_c, 0, 64, 74
1, 834494, Note_on_c, 0, 42, 22
1, 834502, Control_c, 0, 64, 74
1, 834505, Note_on_c, 0, 54, 17
1, 834514, Note_on_c, 0, 30, 30
1, 834517, Control_c, 0, 64, 73
1, 834531, Control_c, 0, 64, 72
1, 834546, Control_c, 0, 64, 70
1, 834561, Control_c, 0, 64, 68
1, 834577, Control_c, 0, 64, 65
1, 834592, Control_c, 0, 64, 62
1, 834607, Control_c, 0, 64, 58
1, 834622, Control_c, 0, 64, 55
1, 834636, Control_c, 0, 64, 51
1, 834651, Control_c, 0, 64, 46
1, 834666, Control_c, 0, 64, 38
1, 834681, Control_c, 0, 64, 0
1, 834992, Control_c, 0, 64, 31
1, 835007, Control_c, 0, 64, 42
1, 835021, Control_c, 0, 64, 50
1, 835036, Control_c, 0, 64, 55
1, 835051, Control_c, 0, 64, 59
1, 835066, Control_c, 0, 64, 60
1, 835081, Control_c, 0, 64, 61
1, 835103, Control_c, 0, 64, 62
1, 835118, Control_c, 0, 64, 63
1, 835133, Control_c, 0, 64, 65
1, 835148, Control_c, 0, 64, 66
1, 835162, Control_c, 0, 64, 67
1, 835177, Control_c, 0, 64, 69
1, 835192, Control_c, 0, 64, 71
1, 835207, Control_c, 0, 64, 73
1, 835222, Control_c, 0, 64, 74
1, 835236, Control_c, 0, 64, 76
1, 835251, Control_c, 0, 64, 77
1, 835266, Control_c, 0, 64, 78
1, 835281, Control_c, 0, 64, 79
1, 836107, Note_off_c, 0, 30, 30
1, 836182, Note_off_c, 0, 54, 29
1, 836194, Note_off_c, 0, 42, 30
1, 837025, Note_on_c, 0, 42, 21
1, 837041, Note_on_c, 0, 54, 20
1, 837048, Note_on_c, 0, 30, 29
1, 837104, Control_c, 0, 64, 78
1, 837119, Control_c, 0, 64, 78
1, 837134, Control_c, 0, 64, 77
1, 837149, Control_c, 0, 64, 75
1, 837164, Control_c, 0, 64, 73
1, 837178, Control_c, 0, 64, 69
1, 837193, Control_c, 0, 64, 65
1, 837208, Control_c, 0, 64, 59
1, 837223, Control_c, 0, 64, 51
1, 837238, Control_c, 0, 64, 44
1, 837252, Control_c, 0, 64, 32
1, 837267, Control_c, 0, 64, 0
1, 841744, Note_off_c, 0, 30, 30
1, 841812, Note_off_c, 0, 54, 26
1, 842266, Note_off_c, 0, 42, 2
1, 844326, Control_c, 0, 67, 97
1, 844340, Control_c, 0, 67, 49
1, 844355, Control_c, 0, 67, 0
1, 845326, Control_c, 0, 64, 30
1, 845341, Control_c, 0, 64, 35
1, 845355, Control_c, 0, 64, 39
1, 845370, Control_c, 0, 64, 42
1, 845385, Control_c, 0, 64, 44
1, 845400, Control_c, 0, 64, 47
1, 845415, Control_c, 0, 64, 50
1, 845429, Control_c, 0, 64, 52
1, 845444, Control_c, 0, 64, 54
1, 845459, Control_c, 0, 64, 55
1, 845548, Control_c, 0, 64, 55
1, 845563, Control_c, 0, 64, 54
1, 845585, Control_c, 0, 64, 54
1, 845600, Control_c, 0, 64, 53
1, 845630, Control_c, 0, 64, 53
1, 845688, Control_c, 0, 64, 53
1, 845703, Control_c, 0, 64, 54
1, 845718, Control_c, 0, 64, 55
1, 845733, Control_c, 0, 64, 55
1, 845748, Control_c, 0, 64, 56
1, 845764, Control_c, 0, 64, 56
1, 845779, Control_c, 0, 64, 57
1, 845793, Control_c, 0, 64, 58
1, 845808, Control_c, 0, 64, 58
1, 845823, Control_c, 0, 64, 59
1, 845882, Control_c, 0, 64, 59
1, 845912, Control_c, 0, 64, 58
1, 845927, Control_c, 0, 64, 58
1, 845957, Control_c, 0, 64, 57
1, 845986, Control_c, 0, 64, 57
1, 846060, Control_c, 0, 64, 59
1, 846075, Control_c, 0, 64, 61
1, 846090, Control_c, 0, 64, 63
1, 846119, Control_c, 0, 64, 63
1, 846134, Control_c, 0, 64, 63
1, 846178, Control_c, 0, 64, 62
1, 846193, Control_c, 0, 64, 62
1, 846208, Control_c, 0, 64, 61
1, 846223, Control_c, 0, 64, 60
1, 846238, Control_c, 0, 64, 59
1, 846252, Control_c, 0, 64, 58
1, 846267, Control_c, 0, 64, 57
1, 846282, Control_c, 0, 64, 56
1, 846334, Control_c, 0, 64, 57
1, 846349, Control_c, 0, 64, 57
1, 846364, Control_c, 0, 64, 58
1, 846379, Control_c, 0, 64, 59
1, 846393, Control_c, 0, 64, 59
1, 846437, Control_c, 0, 64, 60
1, 846496, Control_c, 0, 64, 59
1, 846541, Control_c, 0, 64, 59
1, 846571, Control_c, 0, 64, 58
1, 846601, Control_c, 0, 64, 58
1, 846630, Control_c, 0, 64, 57
1, 846764, Control_c, 0, 64, 57
1, 846971, Control_c, 0, 64, 56
1, 846986, Control_c, 0, 64, 56
1, 847000, Control_c, 0, 64, 55
1, 847015, Control_c, 0, 64, 54
1, 847030, Control_c, 0, 64, 53
1, 847045, Control_c, 0, 64, 51
1, 847060, Control_c, 0, 64, 50
1, 847082, Control_c, 0, 64, 48
1, 847097, Control_c, 0, 64, 47
1, 847112, Control_c, 0, 64, 47
1, 847127, Control_c, 0, 64, 46
1, 847141, Control_c, 0, 64, 45
1, 847157, Control_c, 0, 64, 44
1, 847484, Control_c, 0, 64, 45
1, 847513, Control_c, 0, 64, 45
1, 847543, Control_c, 0, 64, 46
1, 847557, Control_c, 0, 64, 46
1, 847587, Control_c, 0, 64, 47
1, 847617, Control_c, 0, 64, 47
1, 848010, Control_c, 0, 64, 48
1, 848054, Control_c, 0, 64, 48
1, 848083, Control_c, 0, 64, 49
1, 848306, Control_c, 0, 64, 48
1, 848336, Control_c, 0, 64, 47
1, 848351, Control_c, 0, 64, 46
1, 848366, Control_c, 0, 64, 44
1, 848380, Control_c, 0, 64, 42
1, 848395, Control_c, 0, 64, 37
1, 848410, Control_c, 0, 64, 28
1, 848425, Control_c, 0, 64, 0
1, 850687, Control_c, 0, 64, 33
1, 850701, Control_c, 0, 64, 40
1, 850716, Control_c, 0, 64, 46
1, 850731, Control_c, 0, 64, 50
1, 850746, Control_c, 0, 64, 53
1, 850761, Control_c, 0, 64, 54
1, 850775, Control_c, 0, 64, 57
1, 850790, Control_c, 0, 64, 59
1, 850805, Control_c, 0, 64, 61
1, 850828, Control_c, 0, 64, 63
1, 850842, Control_c, 0, 64, 64
1, 850842, Control_c, 0, 67, 36
1, 850856, Note_on_c, 0, 81, 59
1, 850857, Control_c, 0, 64, 66
1, 850857, Control_c, 0, 67, 60
1, 850872, Control_c, 0, 64, 68
1, 850872, Control_c, 0, 67, 93
1, 850872, Note_on_c, 0, 85, 72
1, 850886, Note_on_c, 0, 88, 74
1, 850887, Control_c, 0, 64, 70
1, 850887, Control_c, 0, 67, 127
1, 850896, Note_off_c, 0, 81, 65
1, 850901, Control_c, 0, 64, 72
1, 850903, Note_off_c, 0, 85, 65
1, 850905, Note_off_c, 0, 88, 73
1, 850916, Control_c, 0, 64, 74
1, 850931, Control_c, 0, 64, 75
1, 850946, Control_c, 0, 64, 76
1, 850961, Control_c, 0, 64, 76
1, 850975, Control_c, 0, 64, 77
1, 851064, Control_c, 0, 64, 76
1, 851079, Control_c, 0, 64, 73
1, 851081, Note_on_c, 0, 69, 63
1, 851081, Note_on_c, 0, 76, 68
1, 851092, Note_on_c, 0, 73, 53
1, 851094, Control_c, 0, 64, 66
1, 851099, Note_off_c, 0, 69, 64
1, 851099, Note_off_c, 0, 76, 64
1, 851108, Control_c, 0, 64, 53
1, 851111, Note_off_c, 0, 73, 61
1, 851123, Control_c, 0, 64, 30
1, 851138, Control_c, 0, 64, 0
1, 851260, Note_on_c, 0, 64, 54
1, 851271, Note_on_c, 0, 57, 42
1, 851274, Note_on_c, 0, 61, 39
1, 851290, Note_off_c, 0, 64, 55
1, 851299, Note_off_c, 0, 57, 49
1, 851303, Note_off_c, 0, 61, 49
1, 851454, Note_on_c, 0, 64, 58
1, 851457, Note_on_c, 0, 56, 54
1, 851459, Note_on_c, 0, 59, 49
1, 851477, Note_off_c, 0, 64, 65
1, 851483, Note_off_c, 0, 59, 58
1, 851483, Note_off_c, 0, 56, 63
1, 851644, Note_on_c, 0, 68, 54
1, 851654, Note_on_c, 0, 71, 54
1, 851667, Note_off_c, 0, 68, 62
1, 851689, Note_off_c, 0, 71, 63
1, 851722, Note_on_c, 0, 76, 63
1, 851761, Note_off_c, 0, 76, 58
1, 851799, Note_on_c, 0, 73, 67
1, 851808, Note_on_c, 0, 69, 66
1, 851821, Note_on_c, 0, 57, 50
1, 851825, Note_on_c, 0, 61, 46
1, 851827, Note_off_c, 0, 73, 68
1, 851836, Note_off_c, 0, 69, 67
1, 851848, Note_off_c, 0, 57, 63
1, 851849, Note_off_c, 0, 61, 59
1, 851866, Poly_aftertouch_c, 0, 64, 127
1, 851869, Note_on_c, 0, 76, 76
1, 851898, Note_off_c, 0, 76, 63
1, 851908, Poly_aftertouch_c, 0, 64, 0
1, 851992, Note_on_c, 0, 83, 70
1, 851998, Note_on_c, 0, 86, 77
1, 852005, Control_c, 0, 64, 48
1, 852008, Note_on_c, 0, 88, 84
1, 852020, Control_c, 0, 64, 62
1, 852032, Note_off_c, 0, 83, 66
1, 852035, Control_c, 0, 64, 65
1, 852039, Note_off_c, 0, 86, 66
1, 852045, Note_off_c, 0, 88, 68
1, 852050, Control_c, 0, 64, 67
1, 852065, Control_c, 0, 64, 69
1, 852079, Control_c, 0, 64, 70
1, 852094, Control_c, 0, 64, 72
1, 852109, Control_c, 0, 64, 73
1, 852124, Control_c, 0, 64, 73
1, 852139, Control_c, 0, 64, 74
1, 852154, Control_c, 0, 64, 74
1, 852169, Control_c, 0, 64, 75
1, 852199, Control_c, 0, 64, 74
1, 852211, Note_on_c, 0, 76, 74
1, 852214, Control_c, 0, 64, 72
1, 852217, Note_on_c, 0, 74, 71
1, 852220, Note_on_c, 0, 71, 69
1, 852229, Control_c, 0, 64, 66
1, 852233, Note_off_c, 0, 76, 70
1, 852240, Note_off_c, 0, 71, 65
1, 852242, Note_off_c, 0, 74, 66
1, 852243, Control_c, 0, 64, 55
1, 852258, Control_c, 0, 64, 44
1, 852273, Control_c, 0, 64, 30
1, 852288, Control_c, 0, 64, 0
1, 852413, Note_on_c, 0, 64, 55
1, 852415, Note_on_c, 0, 62, 49
1, 852416, Note_on_c, 0, 59, 56
1, 852440, Note_off_c, 0, 62, 56
1, 852443, Note_off_c, 0, 64, 62
1, 852447, Note_off_c, 0, 59, 66
1, 852598, Note_on_c, 0, 61, 62
1, 852600, Note_on_c, 0, 57, 56
1, 852601, Note_on_c, 0, 64, 53
1, 852623, Note_off_c, 0, 57, 63
1, 852625, Note_off_c, 0, 64, 60
1, 852626, Note_off_c, 0, 61, 65
1, 852794, Note_on_c, 0, 69, 54
1, 852804, Note_on_c, 0, 73, 57
1, 852816, Note_off_c, 0, 69, 61
1, 852836, Note_off_c, 0, 73, 65
1, 852870, Note_on_c, 0, 76, 69
1, 852912, Note_off_c, 0, 76, 63
1, 852959, Note_on_c, 0, 74, 87
1, 852965, Note_on_c, 0, 71, 63
1, 852975, Note_on_c, 0, 59, 56
1, 852977, Note_on_c, 0, 64, 50
1, 852980, Note_on_c, 0, 62, 39
1, 852992, Note_off_c, 0, 71, 64
1, 852995, Note_off_c, 0, 74, 61
1, 853003, Note_off_c, 0, 64, 63
1, 853008, Note_off_c, 0, 59, 65
1, 853011, Note_off_c, 0, 62, 49
1, 853036, Note_on_c, 0, 76, 77
1, 853078, Note_off_c, 0, 76, 63
1, 853147, Control_c, 0, 64, 28
1, 853156, Note_on_c, 0, 88, 70
1, 853160, Note_on_c, 0, 93, 85
1, 853162, Note_on_c, 0, 86, 71
1, 853162, Control_c, 0, 64, 55
1, 853176, Control_c, 0, 64, 65
1, 853176, Note_on_c, 0, 91, 68
1, 853180, Note_off_c, 0, 88, 70
1, 853182, Note_off_c, 0, 86, 71
1, 853186, Note_on_c, 0, 84, 32
1, 853191, Control_c, 0, 64, 70
1, 853195, Note_off_c, 0, 91, 64
1, 853197, Note_off_c, 0, 93, 66
1, 853206, Control_c, 0, 64, 74
1, 853221, Note_off_c, 0, 84, 32
1, 853221, Control_c, 0, 64, 77
1, 853236, Control_c, 0, 64, 80
1, 853250, Control_c, 0, 64, 82
1, 853265, Control_c, 0, 64, 87
1, 853280, Control_c, 0, 64, 94
1, 853295, Control_c, 0, 64, 110
1, 853309, Control_c, 0, 64, 127
1, 853339, Control_c, 0, 64, 118
1, 853343, Note_on_c, 0, 81, 84
1, 853349, Note_on_c, 0, 73, 75
1, 853349, Note_on_c, 0, 76, 75
1, 853354, Control_c, 0, 64, 73
1, 853362, Note_off_c, 0, 81, 73
1, 853369, Control_c, 0, 64, 32
1, 853370, Note_off_c, 0, 76, 71
1, 853370, Note_off_c, 0, 73, 71
1, 853383, Control_c, 0, 64, 0
1, 853524, Note_on_c, 0, 64, 64
1, 853529, Note_on_c, 0, 61, 62
1, 853552, Note_off_c, 0, 64, 67
1, 853558, Note_off_c, 0, 61, 66
1, 853719, Note_on_c, 0, 59, 50
1, 853729, Note_on_c, 0, 67, 53
1, 853732, Note_on_c, 0, 62, 48
1, 853785, Control_c, 0, 64, 29
1, 853799, Control_c, 0, 64, 35
1, 853821, Control_c, 0, 64, 41
1, 853836, Control_c, 0, 64, 49
1, 853851, Control_c, 0, 64, 55
1, 853866, Control_c, 0, 64, 57
1, 853880, Control_c, 0, 64, 58
1, 853893, Note_on_c, 0, 74, 64
1, 853894, Note_on_c, 0, 71, 54
1, 853896, Control_c, 0, 64, 60
1, 853903, Note_on_c, 0, 79, 62
1, 853911, Control_c, 0, 64, 61
1, 853913, Note_off_c, 0, 74, 64
1, 853916, Note_off_c, 0, 71, 59
1, 853925, Control_c, 0, 64, 63
1, 853927, Note_off_c, 0, 79, 70
1, 853940, Control_c, 0, 64, 64
1, 853955, Control_c, 0, 64, 64
1, 853973, Note_off_c, 0, 67, 63
1, 853981, Note_off_c, 0, 62, 62
1, 853985, Control_c, 0, 64, 65
1, 853993, Note_off_c, 0, 59, 64
1, 853999, Control_c, 0, 64, 65
1, 854014, Control_c, 0, 64, 66
1, 854029, Control_c, 0, 64, 67
1, 854068, Note_on_c, 0, 83, 61
1, 854073, Note_on_c, 0, 91, 78
1, 854074, Control_c, 0, 64, 60
1, 854074, Note_on_c, 0, 86, 65
1, 854086, Note_off_c, 0, 83, 63
1, 854089, Control_c, 0, 64, 37
1, 854098, Note_off_c, 0, 86, 70
1, 854099, Note_off_c, 0, 91, 67
1, 854104, Control_c, 0, 64, 0
1, 854291, Note_on_c, 0, 92, 75
1, 854296, Control_c, 0, 64, 34
1, 854298, Note_on_c, 0, 62, 51
1, 854305, Note_on_c, 0, 54, 51
1, 854311, Control_c, 0, 64, 58
1, 854312, Note_on_c, 0, 90, 82
1, 854313, Note_on_c, 0, 59, 49
1, 854320, Note_off_c, 0, 92, 63
1, 854325, Control_c, 0, 64, 65
1, 854340, Control_c, 0, 64, 68
1, 854355, Control_c, 0, 64, 70
1, 854369, Note_on_c, 0, 89, 81
1, 854370, Control_c, 0, 64, 72
1, 854378, Note_off_c, 0, 90, 65
1, 854385, Control_c, 0, 64, 75
1, 854399, Control_c, 0, 64, 77
1, 854414, Control_c, 0, 64, 79
1, 854429, Control_c, 0, 64, 80
1, 854435, Note_off_c, 0, 59, 63
1, 854443, Control_c, 0, 64, 81
1, 854444, Note_off_c, 0, 89, 0
1, 854458, Control_c, 0, 64, 83
1, 854460, Note_on_c, 0, 90, 92
1, 854461, Note_off_c, 0, 62, 59
1, 854473, Control_c, 0, 64, 86
1, 854488, Control_c, 0, 64, 88
1, 854489, Note_off_c, 0, 54, 37
1, 854494, Poly_aftertouch_c, 0, 89, 0
1, 854503, Control_c, 0, 67, 103
1, 854518, Control_c, 0, 64, 84
1, 854518, Control_c, 0, 67, 53
1, 854533, Control_c, 0, 64, 70
1, 854533, Control_c, 0, 67, 0
1, 854535, Note_off_c, 0, 90, 63
1, 854537, Note_on_c, 0, 91, 85
1, 854548, Control_c, 0, 64, 47
1, 854571, Control_c, 0, 64, 0
1, 854630, Note_off_c, 0, 91, 64
1, 854639, Note_on_c, 0, 54, 51
1, 854642, Note_on_c, 0, 90, 87
1, 854649, Note_on_c, 0, 64, 54
1, 854664, Note_on_c, 0, 61, 11
1, 854664, Note_off_c, 0, 54, 59
1, 854671, Note_off_c, 0, 64, 62
1, 854705, Note_off_c, 0, 61, 29
1, 854729, Note_on_c, 0, 94, 82
1, 854740, Note_off_c, 0, 90, 62
1, 854823, Note_on_c, 0, 95, 83
1, 854828, Note_off_c, 0, 94, 63
1, 854846, Note_on_c, 0, 62, 46
1, 854852, Control_c, 0, 64, 43
1, 854855, Note_on_c, 0, 59, 50
1, 854867, Control_c, 0, 64, 56
1, 854882, Control_c, 0, 64, 61
1, 854896, Control_c, 0, 64, 67
1, 854906, Note_on_c, 0, 90, 79
1, 854911, Control_c, 0, 64, 72
1, 854914, Note_off_c, 0, 95, 67
1, 854926, Control_c, 0, 64, 76
1, 854941, Control_c, 0, 64, 79
1, 854956, Control_c, 0, 64, 81
1, 854971, Control_c, 0, 64, 84
1, 854975, Note_on_c, 0, 86, 80
1, 854986, Control_c, 0, 64, 89
1, 854990, Note_off_c, 0, 90, 64
1, 855001, Control_c, 0, 64, 99
1, 855016, Control_c, 0, 64, 127
1, 855046, Note_off_c, 0, 86, 67
1, 855047, Note_on_c, 0, 83, 80
1, 855069, Note_off_c, 0, 83, 68
1, 855074, Control_c, 0, 64, 98
1, 855089, Control_c, 0, 64, 68
1, 855100, Note_off_c, 0, 59, 61
1, 855104, Control_c, 0, 64, 0
1, 855125, Note_off_c, 0, 62, 61
1, 855141, Note_on_c, 0, 71, 62
1, 855162, Note_off_c, 0, 71, 63
1, 855178, Control_c, 0, 67, 58
1, 855193, Control_c, 0, 67, 88
1, 855208, Control_c, 0, 67, 110
1, 855222, Control_c, 0, 67, 127
1, 855334, Control_c, 0, 64, 30
1, 855336, Note_on_c, 0, 83, 74
1, 855338, Note_on_c, 0, 86, 68
1, 855347, Note_on_c, 0, 91, 87
1, 855350, Control_c, 0, 64, 55
1, 855360, Note_off_c, 0, 86, 73
1, 855364, Control_c, 0, 64, 63
1, 855373, Note_off_c, 0, 83, 66
1, 855373, Note_off_c, 0, 91, 69
1, 855379, Control_c, 0, 64, 65
1, 855394, Control_c, 0, 64, 67
1, 855409, Control_c, 0, 64, 70
1, 855424, Control_c, 0, 64, 72
1, 855439, Control_c, 0, 64, 74
1, 855453, Control_c, 0, 64, 75
1, 855468, Control_c, 0, 64, 75
1, 855483, Control_c, 0, 64, 76
1, 855497, Control_c, 0, 64, 76
1, 855512, Control_c, 0, 64, 75
1, 855527, Control_c, 0, 64, 69
1, 855530, Note_on_c, 0, 79, 72
1, 855537, Note_on_c, 0, 74, 67
1, 855542, Control_c, 0, 64, 55
1, 855543, Note_on_c, 0, 71, 59
1, 855549, Note_off_c, 0, 79, 74
1, 855555, Note_off_c, 0, 74, 64
1, 855557, Control_c, 0, 64, 0
1, 855562, Note_off_c, 0, 71, 62
1, 855723, Note_on_c, 0, 59, 49
1, 855733, Note_on_c, 0, 62, 27
1, 855750, Note_off_c, 0, 59, 62
1, 855769, Note_off_c, 0, 62, 46
1, 855942, Note_on_c, 0, 57, 38
1, 855945, Note_on_c, 0, 65, 36
1, 855952, Note_on_c, 0, 60, 27
1, 856015, Control_c, 0, 64, 29
1, 856030, Control_c, 0, 64, 41
1, 856045, Control_c, 0, 64, 52
1, 856060, Control_c, 0, 64, 57
1, 856083, Control_c, 0, 64, 58
1, 856097, Control_c, 0, 64, 60
1, 856104, Note_on_c, 0, 69, 54
1, 856112, Control_c, 0, 64, 62
1, 856113, Note_on_c, 0, 72, 50
1, 856125, Note_on_c, 0, 77, 52
1, 856126, Note_off_c, 0, 69, 61
1, 856127, Control_c, 0, 64, 64
1, 856136, Note_off_c, 0, 72, 58
1, 856142, Control_c, 0, 64, 65
1, 856154, Note_off_c, 0, 77, 66
1, 856157, Control_c, 0, 64, 66
1, 856172, Control_c, 0, 64, 67
1, 856187, Control_c, 0, 64, 68
1, 856202, Control_c, 0, 64, 69
1, 856217, Control_c, 0, 64, 69
1, 856222, Note_off_c, 0, 65, 63
1, 856232, Control_c, 0, 64, 70
1, 856244, Note_off_c, 0, 57, 64
1, 856244, Note_off_c, 0, 60, 56
1, 856306, Note_on_c, 0, 89, 71
1, 856307, Note_on_c, 0, 84, 57
1, 856333, Note_off_c, 0, 84, 66
1, 856355, Note_off_c, 0, 89, 56
1, 856498, Control_c, 0, 64, 68
1, 856512, Control_c, 0, 64, 61
1, 856516, Note_on_c, 0, 89, 61
1, 856527, Control_c, 0, 64, 40
1, 856542, Control_c, 0, 64, 0
1, 856545, Note_on_c, 0, 44, 46
1, 856553, Note_on_c, 0, 88, 71
1, 856583, Note_off_c, 0, 89, 57
1, 856616, Control_c, 0, 64, 38
1, 856630, Note_on_c, 0, 87, 75
1, 856631, Control_c, 0, 64, 51
1, 856639, Note_off_c, 0, 88, 63
1, 856646, Control_c, 0, 64, 59
1, 856661, Control_c, 0, 64, 61
1, 856676, Control_c, 0, 64, 63
1, 856691, Control_c, 0, 64, 65
1, 856691, Control_c, 0, 67, 113
1, 856706, Control_c, 0, 64, 68
1, 856706, Control_c, 0, 67, 69
1, 856718, Note_on_c, 0, 88, 86
1, 856719, Note_off_c, 0, 87, 64
1, 856720, Control_c, 0, 64, 71
1, 856720, Control_c, 0, 67, 0
1, 856735, Control_c, 0, 64, 73
1, 856741, Note_on_c, 0, 52, 46
1, 856750, Control_c, 0, 64, 75
1, 856765, Control_c, 0, 64, 76
1, 856777, Note_off_c, 0, 44, 33
1, 856780, Control_c, 0, 64, 77
1, 856794, Control_c, 0, 64, 79
1, 856798, Note_on_c, 0, 87, 90
1, 856807, Note_off_c, 0, 88, 65
1, 856809, Control_c, 0, 64, 80
1, 856831, Control_c, 0, 64, 81
1, 856846, Control_c, 0, 64, 81
1, 856861, Control_c, 0, 64, 82
1, 856876, Control_c, 0, 64, 82
1, 856894, Note_off_c, 0, 87, 64
1, 856895, Note_on_c, 0, 88, 89
1, 856901, Note_on_c, 0, 59, 55
1, 856906, Control_c, 0, 64, 83
1, 856935, Control_c, 0, 64, 83
1, 856935, Note_off_c, 0, 52, 47
1, 856976, Note_off_c, 0, 88, 58
1, 856983, Note_on_c, 0, 90, 83
1, 857013, Note_off_c, 0, 59, 38
1, 857034, Note_off_c, 0, 90, 64
1, 857055, Control_c, 0, 64, 83
1, 857099, Control_c, 0, 64, 81
1, 857105, Note_on_c, 0, 90, 74
1, 857114, Control_c, 0, 64, 78
1, 857129, Note_on_c, 0, 45, 51
1, 857129, Control_c, 0, 64, 68
1, 857143, Control_c, 0, 64, 54
1, 857158, Control_c, 0, 64, 30
1, 857173, Control_c, 0, 64, 0
1, 857198, Note_on_c, 0, 88, 77
1, 857217, Control_c, 0, 64, 42
1, 857221, Note_off_c, 0, 90, 63
1, 857232, Control_c, 0, 64, 57
1, 857247, Control_c, 0, 64, 64
1, 857261, Control_c, 0, 64, 67
1, 857263, Note_off_c, 0, 45, 59
1, 857276, Control_c, 0, 64, 72
1, 857280, Note_on_c, 0, 85, 79
1, 857291, Control_c, 0, 64, 76
1, 857291, Control_c, 0, 67, 34
1, 857297, Note_off_c, 0, 88, 62
1, 857301, Note_on_c, 0, 52, 52
1, 857306, Control_c, 0, 64, 79
1, 857306, Control_c, 0, 67, 53
1, 857321, Control_c, 0, 64, 82
1, 857321, Control_c, 0, 67, 65
1, 857335, Control_c, 0, 64, 84
1, 857335, Control_c, 0, 67, 78
1, 857337, Note_off_c, 0, 85, 65
1, 857350, Control_c, 0, 64, 86
1, 857350, Control_c, 0, 67, 94
1, 857360, Note_on_c, 0, 81, 73
1, 857365, Control_c, 0, 64, 87
1, 857365, Control_c, 0, 67, 112
1, 857380, Control_c, 0, 64, 87
1, 857380, Control_c, 0, 67, 125
1, 857390, Note_off_c, 0, 81, 65
1, 857395, Control_c, 0, 67, 127
1, 857454, Note_off_c, 0, 52, 58
1, 857456, Note_on_c, 0, 61, 53
1, 857458, Note_on_c, 0, 76, 66
1, 857469, Control_c, 0, 64, 87
1, 857481, Note_off_c, 0, 76, 67
1, 857484, Control_c, 0, 64, 86
1, 857499, Control_c, 0, 64, 85
1, 857513, Note_off_c, 0, 61, 53
1, 857514, Control_c, 0, 64, 84
1, 857529, Control_c, 0, 64, 82
1, 857543, Control_c, 0, 64, 79
1, 857565, Control_c, 0, 64, 76
1, 857580, Control_c, 0, 64, 73
1, 857594, Control_c, 0, 64, 70
1, 857609, Control_c, 0, 64, 67
1, 857624, Control_c, 0, 64, 63
1, 857639, Control_c, 0, 64, 59
1, 857654, Control_c, 0, 64, 54
1, 857669, Control_c, 0, 64, 50
1, 857673, Note_on_c, 0, 74, 76
1, 857676, Note_on_c, 0, 76, 67
1, 857684, Note_on_c, 0, 47, 52
1, 857684, Control_c, 0, 64, 47
1, 857693, Note_off_c, 0, 76, 67
1, 857696, Note_off_c, 0, 74, 71
1, 857698, Control_c, 0, 64, 45
1, 857713, Control_c, 0, 64, 44
1, 857728, Control_c, 0, 64, 44
1, 857758, Note_on_c, 0, 76, 79
1, 857772, Note_on_c, 0, 74, 73
1, 857779, Note_off_c, 0, 76, 70
1, 857796, Note_off_c, 0, 74, 68
1, 857846, Note_on_c, 0, 76, 87
1, 857848, Control_c, 0, 64, 44
1, 857850, Note_on_c, 0, 56, 64
1, 857851, Note_on_c, 0, 74, 83
1, 857862, Control_c, 0, 64, 45
1, 857867, Note_off_c, 0, 76, 66
1, 857868, Note_off_c, 0, 47, 36
1, 857870, Note_off_c, 0, 74, 72
1, 857877, Control_c, 0, 64, 46
1, 857892, Control_c, 0, 64, 48
1, 857907, Control_c, 0, 64, 49
1, 857922, Control_c, 0, 64, 50
1, 857935, Note_on_c, 0, 76, 81
1, 857937, Control_c, 0, 64, 51
1, 857941, Note_on_c, 0, 74, 77
1, 857952, Control_c, 0, 64, 51
1, 857954, Note_off_c, 0, 76, 70
1, 857961, Note_off_c, 0, 74, 71
1, 857966, Control_c, 0, 64, 52
1, 858017, Note_on_c, 0, 74, 75
1, 858018, Note_on_c, 0, 76, 81
1, 858025, Note_on_c, 0, 62, 54
1, 858044, Note_off_c, 0, 76, 61
1, 858044, Note_off_c, 0, 74, 62
1, 858055, Control_c, 0, 64, 51
1, 858077, Note_off_c, 0, 56, 59
1, 858125, Note_on_c, 0, 74, 74
1, 858137, Note_on_c, 0, 76, 61
1, 858158, Control_c, 0, 64, 52
1, 858163, Note_off_c, 0, 76, 66
1, 858165, Note_off_c, 0, 74, 56
1, 858173, Control_c, 0, 64, 52
1, 858188, Control_c, 0, 64, 54
1, 858203, Control_c, 0, 64, 56
1, 858217, Control_c, 0, 64, 59
1, 858232, Control_c, 0, 64, 63
1, 858247, Control_c, 0, 64, 66
1, 858261, Note_on_c, 0, 78, 64
1, 858262, Control_c, 0, 64, 68
1, 858277, Control_c, 0, 64, 69
1, 858279, Note_on_c, 0, 49, 41
1, 858292, Control_c, 0, 64, 71
1, 858295, Note_off_c, 0, 62, 43
1, 858314, Control_c, 0, 64, 72
1, 858327, Note_on_c, 0, 73, 34
1, 858329, Control_c, 0, 64, 73
1, 858344, Control_c, 0, 64, 75
1, 858357, Note_off_c, 0, 73, 47
1, 858359, Control_c, 0, 64, 76
1, 858360, Note_on_c, 0, 76, 72
1, 858365, Note_off_c, 0, 78, 60
1, 858388, Control_c, 0, 64, 76
1, 858403, Control_c, 0, 64, 77
1, 858432, Control_c, 0, 64, 77
1, 858439, Note_on_c, 0, 73, 65
1, 858442, Note_off_c, 0, 76, 63
1, 858469, Note_on_c, 0, 57, 56
1, 858497, Note_off_c, 0, 73, 64
1, 858507, Note_off_c, 0, 49, 57
1, 858524, Note_on_c, 0, 69, 67
1, 858572, Note_off_c, 0, 69, 59
1, 858582, Control_c, 0, 64, 77
1, 858594, Note_off_c, 0, 57, 61
1, 858596, Control_c, 0, 64, 76
1, 858608, Poly_aftertouch_c, 0, 67, 127
1, 858611, Control_c, 0, 64, 75
1, 858617, Note_on_c, 0, 61, 67
1, 858618, Note_on_c, 0, 64, 73
1, 858626, Control_c, 0, 64, 74
1, 858640, Control_c, 0, 64, 72
1, 858643, Note_off_c, 0, 64, 69
1, 858646, Note_off_c, 0, 61, 66
1, 858651, Poly_aftertouch_c, 0, 67, 0
1, 858655, Control_c, 0, 64, 70
1, 858670, Control_c, 0, 64, 69
1, 858685, Control_c, 0, 64, 68
1, 858700, Control_c, 0, 64, 67
1, 858715, Control_c, 0, 64, 66
1, 858730, Control_c, 0, 64, 64
1, 858745, Control_c, 0, 64, 59
1, 858760, Control_c, 0, 64, 48
1, 858775, Control_c, 0, 64, 0
1, 858816, Note_on_c, 0, 64, 77
1, 858818, Note_on_c, 0, 47, 64
1, 858848, Control_c, 0, 64, 33
1, 858863, Control_c, 0, 64, 44
1, 858878, Control_c, 0, 64, 54
1, 858889, Note_on_c, 0, 66, 75
1, 858891, Note_off_c, 0, 64, 62
1, 858893, Control_c, 0, 64, 60
1, 858908, Control_c, 0, 64, 62
1, 858922, Control_c, 0, 64, 63
1, 858937, Control_c, 0, 64, 64
1, 858952, Control_c, 0, 64, 65
1, 858967, Note_off_c, 0, 66, 64
1, 858967, Control_c, 0, 64, 66
1, 858978, Note_off_c, 0, 47, 58
1, 858981, Control_c, 0, 64, 67
1, 858983, Note_on_c, 0, 62, 74
1, 858989, Note_on_c, 0, 50, 74
1, 858996, Control_c, 0, 64, 67
1, 859011, Control_c, 0, 64, 68
1, 859026, Control_c, 0, 64, 69
1, 859027, Note_off_c, 0, 50, 63
1, 859030, Note_off_c, 0, 62, 53
1, 859068, Note_on_c, 0, 66, 82
1, 859078, Control_c, 0, 64, 69
1, 859108, Control_c, 0, 64, 71
1, 859122, Control_c, 0, 64, 73
1, 859132, Note_off_c, 0, 66, 62
1, 859137, Control_c, 0, 64, 77
1, 859167, Control_c, 0, 64, 71
1, 859171, Note_on_c, 0, 61, 83
1, 859172, Note_on_c, 0, 52, 79
1, 859172, Note_on_c, 0, 68, 80
1, 859173, Note_on_c, 0, 64, 79
1, 859182, Control_c, 0, 64, 51
1, 859196, Control_c, 0, 64, 0
1, 859231, Note_off_c, 0, 64, 63
1, 859253, Note_off_c, 0, 68, 62
1, 859259, Note_on_c, 0, 59, 81
1, 859260, Note_on_c, 0, 62, 81
1, 859262, Note_off_c, 0, 61, 64
1, 859281, Note_off_c, 0, 52, 63
1, 859295, Note_off_c, 0, 59, 66
1, 859338, Note_off_c, 0, 62, 55
1, 859373, Note_on_c, 0, 69, 74
1, 859381, Note_on_c, 0, 61, 64
1, 859478, Note_on_c, 0, 57, 67
1, 859498, Note_off_c, 0, 61, 60
1, 859502, Note_off_c, 0, 69, 57
1, 859521, Note_off_c, 0, 57, 53
1, 859591, Note_on_c, 0, 52, 56
1, 859630, Note_off_c, 0, 52, 61
1, 859691, Note_on_c, 0, 49, 38
1, 859727, Note_off_c, 0, 49, 52
1, 859845, Note_on_c, 0, 45, 54
1, 859875, Note_off_c, 0, 45, 64
1, 860093, Control_c, 0, 64, 30
1, 860108, Control_c, 0, 64, 47
1, 860123, Control_c, 0, 64, 56
1, 860138, Note_on_c, 0, 81, 61
1, 860139, Control_c, 0, 64, 61
1, 860154, Note_on_c, 0, 85, 70
1, 860154, Control_c, 0, 64, 63
1, 860159, Note_on_c, 0, 88, 71
1, 860168, Control_c, 0, 64, 65
1, 860170, Note_off_c, 0, 81, 66
1, 860177, Note_off_c, 0, 85, 68
1, 860180, Note_off_c, 0, 88, 73
1, 860183, Control_c, 0, 64, 67
1, 860198, Control_c, 0, 64, 69
1, 860212, Control_c, 0, 64, 70
1, 860346, Control_c, 0, 64, 69
1, 860360, Control_c, 0, 64, 67
1, 860375, Control_c, 0, 64, 63
1, 860390, Note_on_c, 0, 76, 57
1, 860390, Control_c, 0, 64, 57
1, 860392, Note_on_c, 0, 73, 52
1, 860399, Note_on_c, 0, 69, 43
1, 860405, Control_c, 0, 64, 48
1, 860409, Note_off_c, 0, 76, 65
1, 860411, Note_off_c, 0, 73, 62
1, 860420, Control_c, 0, 64, 38
1, 860420, Control_c, 0, 67, 112
1, 860426, Note_off_c, 0, 69, 56
1, 860435, Control_c, 0, 64, 27
1, 860435, Control_c, 0, 67, 77
1, 860450, Control_c, 0, 64, 0
1, 860450, Control_c, 0, 67, 41
1, 860465, Control_c, 0, 67, 0
1, 860577, Note_on_c, 0, 57, 52
1, 860581, Note_on_c, 0, 64, 48
1, 860586, Note_on_c, 0, 61, 43
1, 860590, Control_c, 0, 64, 27
1, 860611, Note_off_c, 0, 57, 65
1, 860614, Note_off_c, 0, 61, 54
1, 860617, Note_off_c, 0, 64, 49
1, 860620, Control_c, 0, 64, 30
1, 860694, Control_c, 0, 64, 32
1, 860709, Control_c, 0, 64, 33
1, 860775, Note_on_c, 0, 56, 58
1, 860775, Note_on_c, 0, 59, 54
1, 860778, Note_on_c, 0, 64, 53
1, 860799, Note_off_c, 0, 59, 61
1, 860801, Note_off_c, 0, 64, 60
1, 860807, Note_off_c, 0, 56, 65
1, 860843, Control_c, 0, 67, 35
1, 860858, Control_c, 0, 64, 32
1, 860858, Control_c, 0, 67, 67
1, 860873, Control_c, 0, 67, 88
1, 860887, Control_c, 0, 67, 100
1, 860902, Control_c, 0, 67, 113
1, 860917, Control_c, 0, 67, 126
1, 860966, Note_on_c, 0, 71, 59
1, 860968, Note_on_c, 0, 68, 53
1, 860989, Note_off_c, 0, 68, 60
1, 860999, Note_off_c, 0, 71, 63
1, 861047, Note_on_c, 0, 76, 68
1, 861088, Note_off_c, 0, 76, 61
1, 861137, Note_on_c, 0, 73, 68
1, 861141, Note_on_c, 0, 69, 63
1, 861146, Note_on_c, 0, 57, 56
1, 861151, Note_on_c, 0, 61, 45
1, 861162, Note_off_c, 0, 73, 69
1, 861165, Note_on_c, 0, 64, 29
1, 861168, Note_off_c, 0, 69, 66
1, 861177, Note_off_c, 0, 61, 60
1, 861181, Note_off_c, 0, 57, 64
1, 861201, Note_off_c, 0, 64, 51
1, 861214, Note_on_c, 0, 76, 69
1, 861243, Control_c, 0, 64, 30
1, 861244, Note_off_c, 0, 76, 62
1, 861258, Control_c, 0, 64, 0
1, 861330, Note_on_c, 0, 83, 74
1, 861335, Note_on_c, 0, 86, 82
1, 861340, Control_c, 0, 64, 37
1, 861347, Note_on_c, 0, 88, 76
1, 861355, Control_c, 0, 64, 57
1, 861370, Control_c, 0, 64, 67
1, 861371, Note_off_c, 0, 83, 66
1, 861380, Note_off_c, 0, 86, 57
1, 861382, Note_off_c, 0, 88, 67
1, 861384, Control_c, 0, 64, 73
1, 861398, Control_c, 0, 64, 78
1, 861413, Control_c, 0, 64, 80
1, 861428, Control_c, 0, 64, 84
1, 861442, Control_c, 0, 64, 89
1, 861457, Control_c, 0, 64, 100
1, 861472, Control_c, 0, 64, 127
1, 861517, Control_c, 0, 64, 89
1, 861532, Control_c, 0, 64, 62
1, 861533, Note_on_c, 0, 76, 75
1, 861541, Note_on_c, 0, 74, 62
1, 861544, Note_on_c, 0, 71, 63
1, 861547, Control_c, 0, 64, 30
1, 861549, Note_off_c, 0, 76, 69
1, 861560, Note_off_c, 0, 74, 63
1, 861561, Control_c, 0, 64, 0
1, 861562, Note_off_c, 0, 71, 63
1, 861721, Note_on_c, 0, 64, 63
1, 861736, Note_on_c, 0, 62, 35
1, 861739, Note_on_c, 0, 59, 46
1, 861754, Note_off_c, 0, 64, 64
1, 861765, Note_off_c, 0, 59, 60
1, 861769, Note_off_c, 0, 62, 50
1, 861918, Note_on_c, 0, 61, 63
1, 861920, Note_on_c, 0, 57, 62
1, 861922, Note_on_c, 0, 64, 61
1, 861946, Note_off_c, 0, 61, 66
1, 861948, Note_off_c, 0, 57, 66
1, 861949, Note_off_c, 0, 64, 66
1, 862113, Note_on_c, 0, 73, 66
1, 862117, Note_on_c, 0, 69, 54
1, 862141, Note_off_c, 0, 69, 64
1, 862158, Note_off_c, 0, 73, 62
1, 862197, Note_on_c, 0, 76, 68
1, 862235, Note_off_c, 0, 76, 62
1, 862281, Note_on_c, 0, 74, 81
1, 862294, Note_on_c, 0, 71, 58
1, 862298, Note_on_c, 0, 59, 56
1, 862299, Note_on_c, 0, 62, 45
1, 862304, Note_on_c, 0, 64, 46
1, 862316, Note_off_c, 0, 71, 62
1, 862318, Note_off_c, 0, 74, 58
1, 862328, Note_off_c, 0, 62, 53
1, 862329, Note_off_c, 0, 59, 65
1, 862329, Note_off_c, 0, 64, 59
1, 862361, Note_on_c, 0, 76, 73
1, 862392, Note_off_c, 0, 76, 61
1, 862483, Note_on_c, 0, 85, 81
1, 862485, Note_on_c, 0, 88, 83
1, 862485, Note_on_c, 0, 93, 93
1, 862488, Control_c, 0, 64, 47
1, 862503, Control_c, 0, 64, 62
1, 862504, Note_off_c, 0, 88, 71
1, 862509, Note_off_c, 0, 85, 64
1, 862518, Control_c, 0, 64, 69
1, 862525, Note_off_c, 0, 93, 66
1, 862534, Control_c, 0, 64, 74
1, 862548, Control_c, 0, 64, 78
1, 862563, Control_c, 0, 64, 82
1, 862578, Control_c, 0, 64, 87
1, 862593, Control_c, 0, 64, 94
1, 862607, Control_c, 0, 64, 108
1, 862622, Control_c, 0, 64, 127
1, 862667, Control_c, 0, 64, 117
1, 862670, Note_on_c, 0, 81, 81
1, 862678, Note_on_c, 0, 76, 73
1, 862681, Control_c, 0, 64, 74
1, 862684, Note_on_c, 0, 73, 62
1, 862692, Note_off_c, 0, 81, 68
1, 862695, Note_off_c, 0, 76, 68
1, 862696, Control_c, 0, 64, 50
1, 862702, Note_off_c, 0, 73, 63
1, 862711, Control_c, 0, 64, 0
1, 862851, Note_on_c, 0, 61, 58
1, 862857, Note_on_c, 0, 64, 51
1, 862879, Note_off_c, 0, 64, 61
1, 862887, Note_off_c, 0, 61, 65
1, 863065, Note_on_c, 0, 62, 42
1, 863066, Note_on_c, 0, 59, 47
1, 863066, Note_on_c, 0, 67, 50
1, 863221, Note_on_c, 0, 71, 50
1, 863225, Note_on_c, 0, 74, 55
1, 863228, Note_on_c, 0, 79, 58
1, 863246, Note_off_c, 0, 71, 57
1, 863246, Note_off_c, 0, 74, 58
1, 863254, Note_off_c, 0, 79, 68
1, 863341, Note_off_c, 0, 67, 63
1, 863349, Note_off_c, 0, 62, 63
1, 863355, Note_off_c, 0, 59, 64
1, 863401, Note_on_c, 0, 83, 60
1, 863406, Note_on_c, 0, 86, 71
1, 863411, Note_on_c, 0, 91, 75
1, 863421, Note_off_c, 0, 83, 65
1, 863427, Note_off_c, 0, 86, 72
1, 863436, Note_off_c, 0, 91, 69
1, 863616, Control_c, 0, 64, 33
1, 863630, Control_c, 0, 64, 47
1, 863641, Note_on_c, 0, 92, 71
1, 863645, Control_c, 0, 64, 57
1, 863654, Note_on_c, 0, 62, 46
1, 863660, Control_c, 0, 64, 62
1, 863663, Note_on_c, 0, 90, 83
1, 863664, Note_on_c, 0, 59, 43
1, 863669, Note_on_c, 0, 54, 42
1, 863669, Note_off_c, 0, 92, 67
1, 863675, Control_c, 0, 64, 64
1, 863690, Control_c, 0, 64, 66
1, 863705, Control_c, 0, 64, 68
1, 863720, Control_c, 0, 64, 69
1, 863731, Note_on_c, 0, 89, 80
1, 863735, Control_c, 0, 64, 71
1, 863735, Note_off_c, 0, 90, 65
1, 863750, Control_c, 0, 64, 72
1, 863765, Control_c, 0, 64, 73
1, 863779, Control_c, 0, 64, 75
1, 863779, Control_c, 0, 67, 121
1, 863794, Control_c, 0, 64, 78
1, 863794, Control_c, 0, 67, 114
1, 863809, Control_c, 0, 64, 82
1, 863809, Control_c, 0, 67, 101
1, 863811, Note_off_c, 0, 59, 63
1, 863821, Note_on_c, 0, 90, 94
1, 863824, Control_c, 0, 64, 85
1, 863824, Control_c, 0, 67, 64
1, 863837, Note_off_c, 0, 62, 62
1, 863838, Note_off_c, 0, 54, 54
1, 863838, Control_c, 0, 67, 0
1, 863843, Note_off_c, 0, 89, 57
1, 863853, Control_c, 0, 64, 80
1, 863868, Control_c, 0, 64, 62
1, 863883, Control_c, 0, 64, 0
1, 863898, Note_on_c, 0, 91, 85
1, 863899, Note_off_c, 0, 90, 63
1, 863978, Note_off_c, 0, 91, 65
1, 863986, Note_on_c, 0, 54, 55
1, 863991, Note_on_c, 0, 61, 49
1, 863991, Note_on_c, 0, 64, 56
1, 863991, Note_on_c, 0, 90, 90
1, 864015, Note_off_c, 0, 54, 65
1, 864017, Note_off_c, 0, 61, 58
1, 864021, Note_off_c, 0, 64, 65
1, 864063, Note_off_c, 0, 90, 60
1, 864067, Note_on_c, 0, 94, 90
1, 864159, Note_on_c, 0, 95, 88
1, 864164, Note_off_c, 0, 94, 63
1, 864180, Control_c, 0, 64, 55
1, 864191, Note_on_c, 0, 62, 49
1, 864191, Note_on_c, 0, 59, 49
1, 864195, Control_c, 0, 64, 65
1, 864209, Control_c, 0, 64, 69
1, 864224, Control_c, 0, 64, 74
1, 864239, Control_c, 0, 64, 81
1, 864242, Note_on_c, 0, 90, 83
1, 864250, Note_off_c, 0, 95, 67
1, 864253, Control_c, 0, 64, 87
1, 864268, Control_c, 0, 64, 93
1, 864283, Control_c, 0, 64, 99
1, 864298, Control_c, 0, 64, 107
1, 864321, Control_c, 0, 64, 127
1, 864322, Note_on_c, 0, 86, 81
1, 864331, Note_off_c, 0, 90, 65
1, 864384, Note_off_c, 0, 86, 69
1, 864388, Note_on_c, 0, 83, 71
1, 864409, Note_off_c, 0, 83, 71
1, 864409, Control_c, 0, 64, 91
1, 864424, Control_c, 0, 64, 71
1, 864439, Control_c, 0, 64, 58
1, 864442, Note_off_c, 0, 59, 49
1, 864454, Control_c, 0, 64, 43
1, 864468, Control_c, 0, 64, 0
1, 864468, Control_c, 0, 67, 33
1, 864483, Note_on_c, 0, 71, 68
1, 864483, Control_c, 0, 67, 83
1, 864498, Control_c, 0, 67, 124
1, 864499, Note_off_c, 0, 62, 55
1, 864510, Note_off_c, 0, 71, 67
1, 864513, Control_c, 0, 67, 127
1, 864661, Control_c, 0, 64, 39
1, 864672, Note_on_c, 0, 83, 72
1, 864676, Control_c, 0, 64, 53
1, 864677, Note_on_c, 0, 86, 66
1, 864689, Note_on_c, 0, 91, 74
1, 864691, Control_c, 0, 64, 62
1, 864700, Note_off_c, 0, 86, 69
1, 864706, Control_c, 0, 64, 65
1, 864710, Note_off_c, 0, 91, 73
1, 864712, Note_off_c, 0, 83, 65
1, 864721, Control_c, 0, 64, 66
1, 864735, Control_c, 0, 64, 68
1, 864750, Control_c, 0, 64, 69
1, 864765, Control_c, 0, 64, 72
1, 864779, Control_c, 0, 64, 73
1, 864794, Control_c, 0, 64, 74
1, 864853, Control_c, 0, 64, 73
1, 864868, Control_c, 0, 64, 71
1, 864874, Note_on_c, 0, 79, 57
1, 864878, Note_on_c, 0, 74, 55
1, 864883, Control_c, 0, 64, 62
1, 864891, Note_off_c, 0, 79, 66
1, 864898, Control_c, 0, 64, 45
1, 864899, Note_off_c, 0, 74, 59
1, 864913, Control_c, 0, 64, 0
1, 865046, Note_on_c, 0, 59, 56
1, 865060, Note_on_c, 0, 62, 48
1, 865086, Note_off_c, 0, 62, 63
1, 865092, Note_off_c, 0, 59, 64
1, 865270, Note_on_c, 0, 57, 39
1, 865276, Note_on_c, 0, 60, 32
1, 865279, Note_on_c, 0, 65, 42
1, 865336, Control_c, 0, 64, 30
1, 865350, Control_c, 0, 64, 41
1, 865365, Control_c, 0, 64, 51
1, 865380, Control_c, 0, 64, 56
1, 865395, Control_c, 0, 64, 58
1, 865409, Control_c, 0, 64, 61
1, 865424, Control_c, 0, 64, 64
1, 865434, Note_on_c, 0, 72, 51
1, 865439, Note_on_c, 0, 77, 55
1, 865439, Control_c, 0, 64, 66
1, 865440, Note_on_c, 0, 69, 27
1, 865454, Control_c, 0, 64, 68
1, 865456, Note_off_c, 0, 72, 60
1, 865469, Control_c, 0, 64, 69
1, 865471, Note_off_c, 0, 77, 67
1, 865476, Note_off_c, 0, 69, 52
1, 865483, Control_c, 0, 64, 70
1, 865498, Control_c, 0, 64, 71
1, 865513, Control_c, 0, 64, 72
1, 865557, Control_c, 0, 64, 72
1, 865562, Note_off_c, 0, 65, 62
1, 865599, Note_off_c, 0, 57, 62
1, 865604, Note_off_c, 0, 60, 47
1, 865634, Note_on_c, 0, 81, 49
1, 865648, Note_on_c, 0, 84, 55
1, 865654, Note_on_c, 0, 89, 58
1, 865658, Note_off_c, 0, 81, 60
1, 865678, Note_off_c, 0, 84, 65
1, 865693, Note_off_c, 0, 89, 58
1, 865736, Control_c, 0, 64, 72
1, 865780, Control_c, 0, 64, 71
1, 865803, Control_c, 0, 64, 71
1, 865818, Control_c, 0, 64, 70
1, 865832, Control_c, 0, 64, 69
1, 865847, Control_c, 0, 64, 68
1, 865862, Control_c, 0, 64, 65
1, 865872, Note_on_c, 0, 89, 60
1, 865877, Control_c, 0, 64, 60
1, 865892, Control_c, 0, 64, 49
1, 865906, Control_c, 0, 64, 32
1, 865911, Note_on_c, 0, 44, 40
1, 865917, Note_on_c, 0, 88, 64
1, 865921, Control_c, 0, 64, 0
1, 865931, Note_off_c, 0, 89, 52
1, 865995, Control_c, 0, 64, 38
1, 866009, Note_on_c, 0, 87, 71
1, 866010, Control_c, 0, 64, 48
1, 866012, Note_off_c, 0, 88, 64
1, 866024, Control_c, 0, 64, 59
1, 866039, Control_c, 0, 64, 62
1, 866054, Control_c, 0, 64, 64
1, 866069, Control_c, 0, 64, 65
1, 866084, Control_c, 0, 64, 66
1, 866094, Note_off_c, 0, 87, 63
1, 866099, Control_c, 0, 64, 68
1, 866105, Note_on_c, 0, 88, 80
1, 866112, Note_on_c, 0, 52, 42
1, 866114, Control_c, 0, 64, 71
1, 866128, Control_c, 0, 64, 73
1, 866143, Control_c, 0, 64, 75
1, 866155, Note_off_c, 0, 44, 34
1, 866158, Control_c, 0, 64, 76
1, 866173, Control_c, 0, 64, 78
1, 866183, Note_on_c, 0, 87, 83
1, 866188, Control_c, 0, 64, 79
1, 866188, Note_off_c, 0, 88, 65
1, 866203, Control_c, 0, 64, 80
1, 866218, Control_c, 0, 64, 81
1, 866232, Control_c, 0, 64, 81
1, 866265, Note_off_c, 0, 87, 64
1, 866270, Note_on_c, 0, 88, 85
1, 866283, Note_on_c, 0, 59, 56
1, 866341, Note_off_c, 0, 88, 60
1, 866347, Note_off_c, 0, 52, 33
1, 866355, Note_on_c, 0, 90, 78
1, 866386, Note_off_c, 0, 90, 60
1, 866410, Control_c, 0, 64, 81
1, 866424, Control_c, 0, 64, 80
1, 866437, Note_off_c, 0, 59, 34
1, 866439, Control_c, 0, 64, 79
1, 866454, Control_c, 0, 64, 79
1, 866469, Control_c, 0, 64, 77
1, 866484, Control_c, 0, 64, 75
1, 866493, Note_on_c, 0, 90, 70
1, 866498, Control_c, 0, 64, 71
1, 866507, Note_on_c, 0, 45, 44
1, 866513, Control_c, 0, 64, 63
1, 866529, Control_c, 0, 64, 50
1, 866552, Control_c, 0, 64, 30
1, 866567, Control_c, 0, 64, 0
1, 866589, Note_on_c, 0, 88, 70
1, 866611, Control_c, 0, 64, 39
1, 866626, Control_c, 0, 64, 53
1, 866641, Control_c, 0, 64, 63
1, 866655, Control_c, 0, 64, 66
1, 866661, Note_off_c, 0, 90, 37
1, 866667, Note_off_c, 0, 45, 52
1, 866670, Control_c, 0, 64, 69
1, 866671, Note_on_c, 0, 85, 71
1, 866685, Control_c, 0, 64, 71
1, 866700, Control_c, 0, 64, 73
1, 866711, Note_on_c, 0, 52, 46
1, 866713, Note_off_c, 0, 88, 64
1, 866715, Control_c, 0, 64, 75
1, 866729, Control_c, 0, 64, 78
1, 866734, Note_off_c, 0, 85, 64
1, 866744, Control_c, 0, 64, 80
1, 866752, Note_on_c, 0, 81, 72
1, 866759, Control_c, 0, 64, 81
1, 866773, Control_c, 0, 64, 81
1, 866788, Control_c, 0, 64, 82
1, 866790, Note_off_c, 0, 81, 61
1, 866865, Note_on_c, 0, 61, 54
1, 866865, Note_on_c, 0, 76, 69
1, 866889, Note_off_c, 0, 76, 70
1, 866895, Note_off_c, 0, 52, 35
1, 866910, Note_off_c, 0, 61, 56
1, 866966, Control_c, 0, 64, 82
1, 866996, Control_c, 0, 64, 81
1, 867011, Control_c, 0, 64, 80
1, 867026, Control_c, 0, 64, 79
1, 867041, Control_c, 0, 64, 77
1, 867055, Control_c, 0, 64, 76
1, 867070, Control_c, 0, 64, 74
1, 867078, Note_on_c, 0, 76, 60
1, 867083, Note_on_c, 0, 74, 58
1, 867085, Control_c, 0, 64, 72
1, 867093, Note_on_c, 0, 47, 60
1, 867097, Note_off_c, 0, 76, 63
1, 867100, Control_c, 0, 64, 70
1, 867102, Note_off_c, 0, 74, 61
1, 867115, Control_c, 0, 64, 68
1, 867129, Control_c, 0, 64, 67
1, 867144, Control_c, 0, 64, 65
1, 867159, Control_c, 0, 64, 64
1, 867161, Note_on_c, 0, 76, 79
1, 867166, Note_on_c, 0, 74, 74
1, 867173, Control_c, 0, 64, 63
1, 867181, Note_off_c, 0, 76, 70
1, 867186, Note_off_c, 0, 74, 72
1, 867188, Control_c, 0, 64, 62
1, 867203, Control_c, 0, 64, 61
1, 867218, Control_c, 0, 64, 60
1, 867233, Control_c, 0, 64, 59
1, 867247, Control_c, 0, 64, 58
1, 867252, Note_on_c, 0, 76, 84
1, 867259, Note_on_c, 0, 74, 80
1, 867262, Note_on_c, 0, 56, 65
1, 867262, Control_c, 0, 64, 57
1, 867273, Note_off_c, 0, 76, 68
1, 867277, Control_c, 0, 64, 57
1, 867279, Note_off_c, 0, 74, 73
1, 867312, Note_off_c, 0, 47, 37
1, 867315, Control_c, 0, 64, 56
1, 867351, Note_on_c, 0, 76, 85
1, 867358, Note_on_c, 0, 74, 79
1, 867360, Control_c, 0, 64, 56
1, 867372, Note_off_c, 0, 76, 67
1, 867374, Control_c, 0, 64, 55
1, 867378, Note_off_c, 0, 74, 70
1, 867389, Control_c, 0, 64, 54
1, 867403, Control_c, 0, 64, 53
1, 867418, Control_c, 0, 64, 52
1, 867433, Control_c, 0, 64, 49
1, 867443, Note_on_c, 0, 76, 75
1, 867443, Note_on_c, 0, 74, 71
1, 867448, Control_c, 0, 64, 44
1, 867458, Note_on_c, 0, 62, 57
1, 867462, Note_off_c, 0, 74, 66
1, 867463, Control_c, 0, 64, 36
1, 867464, Note_off_c, 0, 76, 72
1, 867477, Control_c, 0, 64, 0
1, 867517, Note_on_c, 0, 74, 79
1, 867523, Note_on_c, 0, 76, 76
1, 867542, Note_off_c, 0, 74, 61
1, 867547, Note_off_c, 0, 76, 64
1, 867554, Note_off_c, 0, 56, 56
1, 867646, Note_off_c, 0, 62, 54
1, 867646, Note_on_c, 0, 78, 63
1, 867661, Note_on_c, 0, 73, 48
1, 867670, Note_on_c, 0, 49, 44
1, 867698, Note_off_c, 0, 73, 64
1, 867739, Note_on_c, 0, 76, 62
1, 867742, Note_off_c, 0, 78, 58
1, 867821, Note_on_c, 0, 73, 63
1, 867824, Note_off_c, 0, 76, 63
1, 867849, Note_on_c, 0, 57, 52
1, 867878, Note_off_c, 0, 73, 62
1, 867893, Note_off_c, 0, 49, 52
1, 867918, Note_on_c, 0, 69, 58
1, 867945, Note_off_c, 0, 69, 66
1, 867989, Note_off_c, 0, 57, 62
1, 868007, Note_on_c, 0, 61, 60
1, 868013, Note_on_c, 0, 64, 52
1, 868037, Note_off_c, 0, 64, 64
1, 868041, Note_off_c, 0, 61, 64
1, 868210, Note_on_c, 0, 64, 69
1, 868221, Note_on_c, 0, 47, 59
1, 868241, Control_c, 0, 64, 44
1, 868256, Control_c, 0, 64, 59
1, 868271, Control_c, 0, 64, 62
1, 868286, Control_c, 0, 64, 64
1, 868294, Note_off_c, 0, 64, 62
1, 868296, Note_on_c, 0, 66, 75
1, 868300, Control_c, 0, 64, 66
1, 868315, Control_c, 0, 64, 67
1, 868330, Control_c, 0, 64, 69
1, 868345, Control_c, 0, 64, 70
1, 868360, Control_c, 0, 64, 72
1, 868372, Note_off_c, 0, 66, 64
1, 868374, Control_c, 0, 64, 74
1, 868389, Control_c, 0, 64, 75
1, 868390, Note_on_c, 0, 50, 64
1, 868393, Note_on_c, 0, 62, 79
1, 868393, Note_off_c, 0, 47, 59
1, 868404, Control_c, 0, 64, 76
1, 868418, Control_c, 0, 64, 77
1, 868421, Note_off_c, 0, 50, 67
1, 868448, Control_c, 0, 64, 77
1, 868454, Note_off_c, 0, 62, 56
1, 868471, Note_on_c, 0, 66, 82
1, 868478, Control_c, 0, 64, 78
1, 868492, Control_c, 0, 64, 79
1, 868507, Control_c, 0, 64, 80
1, 868522, Control_c, 0, 64, 80
1, 868537, Control_c, 0, 64, 80
1, 868552, Control_c, 0, 64, 74
1, 868552, Control_c, 0, 67, 46
1, 868567, Control_c, 0, 64, 61
1, 868567, Control_c, 0, 67, 0
1, 868570, Note_on_c, 0, 61, 78
1, 868571, Note_on_c, 0, 52, 74
1, 868574, Note_on_c, 0, 68, 75
1, 868579, Note_on_c, 0, 64, 67
1, 868582, Control_c, 0, 64, 37
1, 868591, Note_off_c, 0, 66, 60
1, 868597, Control_c, 0, 64, 0
1, 868633, Note_off_c, 0, 64, 63
1, 868658, Note_on_c, 0, 59, 81
1, 868662, Note_off_c, 0, 68, 61
1, 868665, Note_off_c, 0, 61, 65
1, 868666, Note_on_c, 0, 62, 76
1, 868684, Note_off_c, 0, 52, 61
1, 868687, Note_off_c, 0, 59, 63
1, 868728, Note_off_c, 0, 62, 62
1, 868777, Note_on_c, 0, 69, 64
1, 868780, Note_on_c, 0, 61, 63
1, 868880, Note_on_c, 0, 57, 65
1, 868903, Note_off_c, 0, 69, 60
1, 868907, Note_off_c, 0, 61, 62
1, 868945, Note_off_c, 0, 57, 54
1, 868993, Note_on_c, 0, 52, 62
1, 869035, Note_off_c, 0, 52, 61
1, 869081, Note_on_c, 0, 49, 56
1, 869121, Note_off_c, 0, 49, 63
1, 869195, Note_on_c, 0, 45, 57
1, 869226, Note_off_c, 0, 45, 64
1, 869471, Note_on_c, 0, 53, 78
1, 869478, Note_on_c, 0, 40, 85
1, 869480, Note_on_c, 0, 41, 74
1, 869482, Note_on_c, 0, 52, 85
1, 869493, Control_c, 0, 64, 60
1, 869505, Note_off_c, 0, 41, 67
1, 869508, Note_off_c, 0, 53, 64
1, 869508, Control_c, 0, 64, 89
1, 869523, Control_c, 0, 64, 112
1, 869571, Note_on_c, 0, 39, 81
1, 869578, Note_off_c, 0, 52, 62
1, 869580, Note_off_c, 0, 40, 61
1, 869584, Note_on_c, 0, 51, 84
1, 869589, Control_c, 0, 64, 99
1, 869604, Control_c, 0, 64, 87
1, 869619, Control_c, 0, 64, 73
1, 869634, Control_c, 0, 64, 61
1, 869649, Control_c, 0, 64, 50
1, 869649, Note_off_c, 0, 51, 62
1, 869664, Control_c, 0, 64, 43
1, 869678, Note_on_c, 0, 40, 80
1, 869678, Note_on_c, 0, 52, 78
1, 869679, Control_c, 0, 64, 41
1, 869691, Note_off_c, 0, 39, 54
1, 869693, Control_c, 0, 64, 44
1, 869708, Control_c, 0, 64, 47
1, 869724, Control_c, 0, 64, 47
1, 869744, Note_off_c, 0, 52, 60
1, 869753, Control_c, 0, 64, 47
1, 869762, Note_on_c, 0, 51, 77
1, 869763, Note_on_c, 0, 39, 72
1, 869772, Note_off_c, 0, 40, 62
1, 869783, Control_c, 0, 64, 47
1, 869856, Note_off_c, 0, 51, 56
1, 869861, Note_on_c, 0, 52, 71
1, 869874, Note_on_c, 0, 40, 68
1, 869886, Note_off_c, 0, 39, 60
1, 869935, Note_off_c, 0, 52, 56
1, 869946, Control_c, 0, 64, 48
1, 869946, Control_c, 0, 67, 34
1, 869948, Note_on_c, 0, 41, 69
1, 869951, Note_off_c, 0, 40, 60
1, 869953, Note_on_c, 0, 53, 70
1, 869961, Control_c, 0, 67, 55
1, 869976, Control_c, 0, 67, 73
1, 869985, Note_off_c, 0, 41, 67
1, 869991, Note_off_c, 0, 53, 65
1, 869991, Control_c, 0, 67, 84
1, 870005, Control_c, 0, 67, 90
1, 870020, Control_c, 0, 67, 91
1, 870065, Note_on_c, 0, 41, 77
1, 870065, Control_c, 0, 64, 48
1, 870066, Note_on_c, 0, 53, 80
1, 870109, Control_c, 0, 67, 90
1, 870144, Note_off_c, 0, 53, 62
1, 870148, Note_off_c, 0, 41, 60
1, 870150, Note_on_c, 0, 52, 80
1, 870153, Control_c, 0, 67, 90
1, 870157, Note_on_c, 0, 40, 76
1, 870168, Control_c, 0, 67, 89
1, 870215, Note_off_c, 0, 52, 62
1, 870245, Note_on_c, 0, 48, 80
1, 870254, Note_on_c, 0, 36, 84
1, 870266, Note_off_c, 0, 40, 59
1, 870305, Note_off_c, 0, 48, 59
1, 870344, Note_on_c, 0, 55, 75
1, 870364, Note_on_c, 0, 43, 73
1, 870382, Note_off_c, 0, 36, 60
1, 870384, Control_c, 0, 64, 49
1, 870455, Note_off_c, 0, 43, 63
1, 870458, Control_c, 0, 64, 48
1, 870461, Note_on_c, 0, 52, 87
1, 870461, Note_off_c, 0, 55, 51
1, 870463, Note_on_c, 0, 64, 82
1, 870466, Note_on_c, 0, 60, 68
1, 870472, Control_c, 0, 67, 90
1, 870487, Control_c, 0, 67, 90
1, 870491, Note_off_c, 0, 60, 68
1, 870499, Note_off_c, 0, 64, 67
1, 870507, Note_off_c, 0, 52, 66
1, 870518, Control_c, 0, 67, 91
1, 870533, Control_c, 0, 67, 92
1, 870548, Control_c, 0, 67, 95
1, 870563, Control_c, 0, 67, 105
1, 870577, Control_c, 0, 67, 127
1, 870607, Control_c, 0, 64, 48
1, 870621, Control_c, 0, 64, 47
1, 870636, Control_c, 0, 64, 47
1, 870673, Note_on_c, 0, 64, 73
1, 870676, Note_on_c, 0, 52, 83
1, 870763, Note_on_c, 0, 50, 77
1, 870764, Note_on_c, 0, 62, 79
1, 870777, Note_off_c, 0, 52, 58
1, 870785, Note_off_c, 0, 64, 62
1, 870841, Note_off_c, 0, 62, 64
1, 870847, Note_on_c, 0, 59, 77
1, 870853, Note_off_c, 0, 50, 61
1, 870854, Note_on_c, 0, 47, 76
1, 870933, Control_c, 0, 67, 105
1, 870935, Note_off_c, 0, 59, 62
1, 870938, Note_on_c, 0, 55, 78
1, 870939, Note_on_c, 0, 43, 78
1, 870947, Control_c, 0, 67, 67
1, 870957, Note_off_c, 0, 47, 63
1, 870962, Control_c, 0, 67, 0
1, 871005, Note_off_c, 0, 55, 57
1, 871033, Note_on_c, 0, 49, 75
1, 871050, Note_on_c, 0, 59, 83
1, 871052, Note_on_c, 0, 67, 78
1, 871054, Note_on_c, 0, 55, 66
1, 871058, Note_off_c, 0, 43, 62
1, 871071, Note_off_c, 0, 49, 65
1, 871074, Note_on_c, 0, 50, 59
1, 871081, Note_off_c, 0, 59, 65
1, 871094, Note_off_c, 0, 55, 64
1, 871100, Note_off_c, 0, 50, 58
1, 871101, Note_off_c, 0, 67, 61
1, 871103, Control_c, 0, 64, 47
1, 871266, Note_on_c, 0, 55, 69
1, 871268, Note_on_c, 0, 65, 74
1, 871269, Note_on_c, 0, 60, 72
1, 871272, Note_on_c, 0, 48, 74
1, 871303, Note_off_c, 0, 60, 66
1, 871310, Control_c, 0, 64, 47
1, 871321, Note_off_c, 0, 55, 58
1, 871341, Control_c, 0, 64, 46
1, 871353, Note_on_c, 0, 64, 76
1, 871354, Note_off_c, 0, 65, 60
1, 871356, Control_c, 0, 67, 35
1, 871370, Control_c, 0, 64, 46
1, 871370, Control_c, 0, 67, 49
1, 871385, Control_c, 0, 67, 60
1, 871400, Control_c, 0, 64, 45
1, 871400, Control_c, 0, 67, 68
1, 871415, Control_c, 0, 64, 44
1, 871415, Control_c, 0, 67, 76
1, 871416, Note_off_c, 0, 64, 65
1, 871430, Control_c, 0, 67, 82
1, 871434, Note_off_c, 0, 48, 60
1, 871444, Control_c, 0, 67, 83
1, 871452, Note_on_c, 0, 55, 68
1, 871455, Note_on_c, 0, 67, 76
1, 871458, Note_on_c, 0, 50, 69
1, 871459, Control_c, 0, 67, 84
1, 871460, Note_on_c, 0, 59, 74
1, 871474, Control_c, 0, 67, 84
1, 871489, Control_c, 0, 67, 86
1, 871492, Note_off_c, 0, 59, 64
1, 871507, Note_off_c, 0, 55, 60
1, 871548, Note_on_c, 0, 65, 72
1, 871549, Note_off_c, 0, 67, 62
1, 871563, Control_c, 0, 67, 86
1, 871578, Control_c, 0, 67, 87
1, 871607, Control_c, 0, 67, 88
1, 871622, Control_c, 0, 67, 89
1, 871634, Note_off_c, 0, 65, 60
1, 871637, Control_c, 0, 64, 44
1, 871637, Control_c, 0, 67, 90
1, 871649, Note_off_c, 0, 50, 55
1, 871652, Control_c, 0, 67, 93
1, 871653, Note_on_c, 0, 55, 66
1, 871661, Note_on_c, 0, 60, 65
1, 871661, Note_on_c, 0, 52, 63
1, 871664, Note_on_c, 0, 69, 70
1, 871667, Control_c, 0, 67, 104
1, 871682, Control_c, 0, 67, 108
1, 871693, Note_off_c, 0, 60, 63
1, 871715, Note_off_c, 0, 52, 60
1, 871721, Note_off_c, 0, 55, 61
1, 871745, Note_on_c, 0, 67, 70
1, 871762, Note_off_c, 0, 69, 56
1, 871770, Control_c, 0, 64, 43
1, 871822, Control_c, 0, 67, 106
1, 871843, Note_off_c, 0, 67, 58
1, 871862, Note_on_c, 0, 62, 67
1, 871873, Note_on_c, 0, 59, 61
1, 871925, Control_c, 0, 67, 104
1, 871956, Note_on_c, 0, 55, 64
1, 872029, Note_off_c, 0, 55, 60
1, 872029, Control_c, 0, 64, 43
1, 872043, Control_c, 0, 67, 102
1, 872057, Note_on_c, 0, 50, 65
1, 872058, Control_c, 0, 64, 42
1, 872073, Control_c, 0, 64, 42
1, 872088, Control_c, 0, 64, 41
1, 872111, Note_off_c, 0, 50, 55
1, 872119, Control_c, 0, 64, 41
1, 872134, Control_c, 0, 64, 40
1, 872148, Note_on_c, 0, 47, 62
1, 872148, Control_c, 0, 64, 40
1, 872163, Control_c, 0, 64, 39
1, 872192, Control_c, 0, 64, 39
1, 872193, Note_off_c, 0, 59, 63
1, 872207, Control_c, 0, 64, 38
1, 872222, Control_c, 0, 64, 37
1, 872233, Note_off_c, 0, 62, 59
1, 872235, Note_off_c, 0, 47, 62
1, 872237, Control_c, 0, 64, 35
1, 872250, Note_on_c, 0, 43, 57
1, 872252, Control_c, 0, 64, 33
1, 872266, Control_c, 0, 64, 30
1, 872279, Note_off_c, 0, 43, 63
1, 872281, Control_c, 0, 64, 0
1, 872296, Control_c, 0, 67, 104
1, 872341, Control_c, 0, 67, 106
1, 872385, Control_c, 0, 67, 108
1, 872415, Control_c, 0, 67, 110
1, 872459, Control_c, 0, 67, 112
1, 872483, Note_on_c, 0, 67, 36
1, 872489, Control_c, 0, 67, 117
1, 872504, Control_c, 0, 67, 127
1, 872513, Note_on_c, 0, 59, 45
1, 872519, Note_on_c, 0, 43, 40
1, 872520, Note_off_c, 0, 67, 52
1, 872525, Note_on_c, 0, 65, 49
1, 872625, Note_off_c, 0, 65, 60
1, 872629, Note_on_c, 0, 64, 65
1, 872695, Note_off_c, 0, 64, 64
1, 872722, Note_on_c, 0, 65, 76
1, 872728, Note_on_c, 0, 50, 50
1, 872803, Note_off_c, 0, 65, 63
1, 872809, Note_on_c, 0, 64, 79
1, 872894, Note_on_c, 0, 65, 78
1, 872899, Note_on_c, 0, 55, 57
1, 872905, Note_off_c, 0, 64, 63
1, 872924, Note_off_c, 0, 50, 62
1, 872931, Note_off_c, 0, 59, 62
1, 872957, Note_off_c, 0, 55, 54
1, 872973, Note_off_c, 0, 43, 42
1, 872981, Note_on_c, 0, 69, 69
1, 872981, Note_off_c, 0, 65, 63
1, 873008, Note_off_c, 0, 69, 66
1, 873096, Note_on_c, 0, 69, 80
1, 873107, Note_on_c, 0, 43, 54
1, 873107, Note_on_c, 0, 60, 62
1, 873117, Note_on_c, 0, 64, 42
1, 873143, Note_off_c, 0, 64, 58
1, 873172, Note_off_c, 0, 60, 53
1, 873190, Note_on_c, 0, 67, 76
1, 873218, Note_off_c, 0, 69, 59
1, 873289, Note_on_c, 0, 64, 67
1, 873298, Note_on_c, 0, 52, 68
1, 873303, Note_off_c, 0, 67, 58
1, 873361, Note_off_c, 0, 64, 66
1, 873366, Note_on_c, 0, 60, 70
1, 873415, Note_off_c, 0, 60, 63
1, 873470, Note_on_c, 0, 64, 75
1, 873483, Note_on_c, 0, 55, 67
1, 873491, Note_off_c, 0, 52, 60
1, 873530, Note_off_c, 0, 55, 58
1, 873531, Note_off_c, 0, 64, 58
1, 873539, Note_off_c, 0, 43, 58
1, 873543, Note_on_c, 0, 76, 75
1, 873572, Note_off_c, 0, 76, 62
1, 873658, Note_on_c, 0, 76, 81
1, 873664, Note_on_c, 0, 43, 68
1, 873669, Note_on_c, 0, 71, 68
1, 873671, Note_on_c, 0, 65, 67
1, 873742, Note_on_c, 0, 74, 76
1, 873744, Note_off_c, 0, 71, 62
1, 873751, Note_off_c, 0, 65, 62
1, 873751, Note_off_c, 0, 76, 65
1, 873766, Note_off_c, 0, 74, 68
1, 873858, Note_on_c, 0, 62, 67
1, 873858, Note_on_c, 0, 65, 66
1, 873858, Note_on_c, 0, 72, 73
1, 873870, Note_on_c, 0, 50, 67
1, 873915, Note_off_c, 0, 65, 58
1, 873925, Note_on_c, 0, 71, 80
1, 873938, Note_off_c, 0, 62, 61
1, 873941, Note_off_c, 0, 72, 61
1, 873965, Note_off_c, 0, 71, 64
1, 874055, Note_on_c, 0, 55, 60
1, 874056, Note_on_c, 0, 65, 69
1, 874061, Note_on_c, 0, 59, 78
1, 874061, Note_on_c, 0, 69, 73
1, 874072, Note_off_c, 0, 50, 63
1, 874102, Note_off_c, 0, 43, 54
1, 874117, Note_off_c, 0, 65, 49
1, 874127, Note_off_c, 0, 55, 52
1, 874132, Note_off_c, 0, 59, 62
1, 874141, Note_on_c, 0, 67, 67
1, 874147, Note_off_c, 0, 69, 62
1, 874169, Note_off_c, 0, 67, 65
1, 874274, Note_on_c, 0, 69, 60
1, 874288, Note_on_c, 0, 43, 44
1, 874288, Note_on_c, 0, 60, 47
1, 874340, Poly_aftertouch_c, 0, 64, 127
1, 874352, Note_off_c, 0, 60, 52
1, 874374, Note_on_c, 0, 67, 60
1, 874376, Note_off_c, 0, 69, 55
1, 874380, Poly_aftertouch_c, 0, 64, 0
1, 874449, Note_off_c, 0, 67, 60
1, 874469, Note_on_c, 0, 64, 59
1, 874478, Note_on_c, 0, 52, 48
1, 874540, Note_off_c, 0, 64, 62
1, 874549, Note_on_c, 0, 60, 59
1, 874578, Note_off_c, 0, 60, 66
1, 874649, Note_off_c, 0, 52, 59
1, 874663, Note_on_c, 0, 55, 52
1, 874668, Note_off_c, 0, 43, 49
1, 874693, Note_off_c, 0, 55, 63
1, 874889, Note_on_c, 0, 79, 47
1, 874919, Note_on_c, 0, 71, 38
1, 874921, Control_c, 0, 64, 31
1, 874928, Note_off_c, 0, 79, 61
1, 874936, Control_c, 0, 64, 36
1, 874937, Note_on_c, 0, 77, 54
1, 874943, Note_on_c, 0, 43, 36
1, 874951, Control_c, 0, 64, 40
1, 874966, Control_c, 0, 64, 44
1, 874981, Control_c, 0, 64, 47
1, 874995, Control_c, 0, 64, 50
1, 875010, Control_c, 0, 64, 51
1, 875025, Note_off_c, 0, 77, 62
1, 875025, Control_c, 0, 64, 52
1, 875040, Control_c, 0, 64, 54
1, 875043, Note_on_c, 0, 76, 59
1, 875055, Control_c, 0, 64, 55
1, 875069, Control_c, 0, 64, 57
1, 875084, Control_c, 0, 64, 58
1, 875099, Control_c, 0, 64, 60
1, 875101, Note_off_c, 0, 76, 63
1, 875113, Control_c, 0, 64, 61
1, 875127, Note_on_c, 0, 50, 41
1, 875128, Control_c, 0, 64, 62
1, 875137, Note_on_c, 0, 77, 69
1, 875143, Control_c, 0, 64, 63
1, 875158, Control_c, 0, 64, 63
1, 875173, Control_c, 0, 64, 64
1, 875187, Control_c, 0, 64, 65
1, 875202, Note_off_c, 0, 77, 63
1, 875202, Control_c, 0, 64, 66
1, 875217, Control_c, 0, 64, 66
1, 875218, Note_on_c, 0, 76, 71
1, 875232, Control_c, 0, 64, 67
1, 875247, Control_c, 0, 64, 67
1, 875262, Control_c, 0, 64, 68
1, 875292, Control_c, 0, 64, 68
1, 875310, Note_on_c, 0, 77, 73
1, 875310, Note_on_c, 0, 55, 49
1, 875312, Note_off_c, 0, 76, 60
1, 875323, Note_off_c, 0, 50, 61
1, 875340, Note_off_c, 0, 71, 60
1, 875345, Note_off_c, 0, 43, 42
1, 875350, Note_off_c, 0, 55, 59
1, 875392, Note_off_c, 0, 77, 61
1, 875397, Note_on_c, 0, 81, 67
1, 875423, Note_off_c, 0, 81, 66
1, 875500, Control_c, 0, 64, 67
1, 875510, Note_on_c, 0, 81, 79
1, 875515, Control_c, 0, 64, 63
1, 875525, Note_on_c, 0, 43, 54
1, 875529, Note_on_c, 0, 72, 45
1, 875530, Control_c, 0, 64, 51
1, 875542, Note_on_c, 0, 76, 46
1, 875551, Control_c, 0, 64, 0
1, 875567, Note_off_c, 0, 72, 54
1, 875573, Note_off_c, 0, 76, 64
1, 875612, Note_on_c, 0, 79, 72
1, 875639, Note_off_c, 0, 81, 61
1, 875640, Control_c, 0, 64, 40
1, 875655, Control_c, 0, 64, 54
1, 875670, Control_c, 0, 64, 60
1, 875685, Control_c, 0, 64, 62
1, 875699, Control_c, 0, 64, 62
1, 875707, Note_on_c, 0, 76, 68
1, 875709, Note_off_c, 0, 79, 64
1, 875714, Control_c, 0, 64, 63
1, 875717, Note_on_c, 0, 52, 53
1, 875729, Control_c, 0, 64, 65
1, 875743, Control_c, 0, 64, 65
1, 875758, Control_c, 0, 64, 66
1, 875775, Note_off_c, 0, 76, 65
1, 875783, Note_on_c, 0, 72, 73
1, 875803, Control_c, 0, 64, 66
1, 875827, Note_off_c, 0, 72, 63
1, 875885, Note_on_c, 0, 76, 76
1, 875902, Note_off_c, 0, 52, 59
1, 875905, Note_on_c, 0, 55, 55
1, 875938, Note_off_c, 0, 76, 60
1, 875945, Note_off_c, 0, 43, 56
1, 875945, Note_off_c, 0, 55, 61
1, 875962, Note_on_c, 0, 88, 75
1, 875989, Note_off_c, 0, 88, 65
1, 876025, Control_c, 0, 64, 66
1, 876040, Control_c, 0, 64, 62
1, 876054, Control_c, 0, 64, 50
1, 876069, Control_c, 0, 64, 0
1, 876076, Note_on_c, 0, 88, 83
1, 876083, Note_on_c, 0, 77, 70
1, 876084, Note_on_c, 0, 83, 70
1, 876089, Note_on_c, 0, 43, 60
1, 876159, Note_on_c, 0, 86, 76
1, 876162, Note_off_c, 0, 83, 65
1, 876167, Note_off_c, 0, 77, 64
1, 876178, Note_off_c, 0, 88, 66
1, 876192, Note_off_c, 0, 86, 62
1, 876269, Note_on_c, 0, 77, 81
1, 876269, Note_on_c, 0, 84, 82
1, 876275, Note_on_c, 0, 74, 76
1, 876292, Note_on_c, 0, 50, 66
1, 876323, Note_off_c, 0, 77, 59
1, 876350, Note_on_c, 0, 83, 81
1, 876356, Note_off_c, 0, 74, 56
1, 876368, Note_off_c, 0, 84, 64
1, 876389, Note_off_c, 0, 83, 67
1, 876467, Note_on_c, 0, 55, 58
1, 876469, Note_on_c, 0, 77, 76
1, 876472, Note_on_c, 0, 81, 76
1, 876473, Note_on_c, 0, 71, 77
1, 876481, Note_off_c, 0, 50, 61
1, 876511, Note_off_c, 0, 43, 56
1, 876530, Note_off_c, 0, 55, 52
1, 876542, Note_on_c, 0, 79, 73
1, 876542, Note_off_c, 0, 71, 60
1, 876546, Note_off_c, 0, 77, 57
1, 876568, Note_off_c, 0, 81, 65
1, 876586, Note_off_c, 0, 79, 65
1, 876666, Note_on_c, 0, 81, 81
1, 876679, Note_on_c, 0, 43, 50
1, 876681, Note_on_c, 0, 76, 66
1, 876682, Note_on_c, 0, 72, 60
1, 876717, Note_off_c, 0, 76, 58
1, 876726, Note_off_c, 0, 72, 55
1, 876764, Note_on_c, 0, 79, 72
1, 876786, Note_off_c, 0, 81, 61
1, 876848, Note_on_c, 0, 52, 57
1, 876853, Note_on_c, 0, 76, 71
1, 876854, Note_off_c, 0, 79, 64
1, 876920, Note_off_c, 0, 76, 64
1, 876938, Note_on_c, 0, 72, 68
1, 876976, Note_off_c, 0, 72, 59
1, 877037, Note_on_c, 0, 76, 73
1, 877041, Note_on_c, 0, 55, 53
1, 877047, Note_off_c, 0, 52, 59
1, 877080, Note_off_c, 0, 76, 55
1, 877089, Note_off_c, 0, 55, 57
1, 877092, Note_off_c, 0, 43, 59
1, 877120, Note_on_c, 0, 88, 70
1, 877140, Note_off_c, 0, 88, 72
1, 877220, Note_on_c, 0, 88, 80
1, 877221, Note_on_c, 0, 43, 62
1, 877232, Note_on_c, 0, 83, 70
1, 877235, Note_on_c, 0, 77, 66
1, 877301, Note_on_c, 0, 86, 74
1, 877304, Note_off_c, 0, 83, 64
1, 877316, Note_off_c, 0, 77, 64
1, 877322, Note_off_c, 0, 88, 66
1, 877335, Note_off_c, 0, 86, 64
1, 877411, Note_on_c, 0, 84, 87
1, 877411, Note_on_c, 0, 77, 79
1, 877417, Note_on_c, 0, 50, 68
1, 877417, Note_on_c, 0, 74, 75
1, 877463, Note_off_c, 0, 77, 55
1, 877481, Note_on_c, 0, 83, 82
1, 877486, Note_off_c, 0, 74, 62
1, 877502, Note_off_c, 0, 84, 65
1, 877519, Note_off_c, 0, 83, 66
1, 877598, Note_on_c, 0, 55, 59
1, 877599, Note_on_c, 0, 81, 86
1, 877600, Note_on_c, 0, 77, 76
1, 877605, Note_on_c, 0, 71, 81
1, 877622, Note_off_c, 0, 50, 63
1, 877641, Note_off_c, 0, 77, 58
1, 877655, Note_off_c, 0, 43, 60
1, 877674, Note_on_c, 0, 79, 73
1, 877676, Note_off_c, 0, 71, 61
1, 877679, Note_off_c, 0, 55, 59
1, 877697, Note_off_c, 0, 81, 65
1, 877721, Note_off_c, 0, 79, 64
1, 877817, Note_on_c, 0, 81, 68
1, 877839, Note_on_c, 0, 72, 48
1, 877844, Note_on_c, 0, 43, 42
1, 877849, Note_on_c, 0, 76, 45
1, 877858, Control_c, 0, 64, 38
1, 877873, Control_c, 0, 64, 49
1, 877879, Note_off_c, 0, 76, 63
1, 877879, Note_off_c, 0, 72, 55
1, 877887, Control_c, 0, 64, 55
1, 877902, Control_c, 0, 64, 58
1, 877917, Control_c, 0, 64, 60
1, 877922, Note_on_c, 0, 79, 62
1, 877930, Note_off_c, 0, 81, 58
1, 877931, Control_c, 0, 64, 61
1, 877946, Control_c, 0, 64, 62
1, 877976, Control_c, 0, 64, 60
1, 877991, Control_c, 0, 64, 53
1, 878002, Note_off_c, 0, 79, 61
1, 878005, Control_c, 0, 64, 36
1, 878010, Note_on_c, 0, 76, 66
1, 878020, Note_on_c, 0, 52, 46
1, 878020, Control_c, 0, 64, 0
1, 878058, Note_off_c, 0, 76, 62
1, 878111, Note_on_c, 0, 72, 57
1, 878142, Note_off_c, 0, 72, 63
1, 878153, Note_off_c, 0, 43, 50
1, 878191, Note_off_c, 0, 52, 55
1, 878207, Note_on_c, 0, 67, 60
1, 878213, Note_on_c, 0, 55, 48
1, 878228, Note_off_c, 0, 67, 63
1, 878240, Note_off_c, 0, 55, 60
1, 878405, Control_c, 0, 64, 32
1, 878418, Note_on_c, 0, 81, 62
1, 878420, Control_c, 0, 64, 43
1, 878435, Control_c, 0, 64, 52
1, 878437, Note_on_c, 0, 43, 45
1, 878437, Note_on_c, 0, 72, 44
1, 878450, Control_c, 0, 64, 57
1, 878464, Control_c, 0, 64, 58
1, 878475, Note_off_c, 0, 72, 50
1, 878479, Control_c, 0, 64, 59
1, 878510, Control_c, 0, 64, 57
1, 878514, Poly_aftertouch_c, 0, 76, 0
1, 878517, Note_on_c, 0, 79, 62
1, 878517, Note_off_c, 0, 81, 60
1, 878532, Control_c, 0, 64, 50
1, 878547, Control_c, 0, 64, 35
1, 878562, Control_c, 0, 64, 0
1, 878598, Note_off_c, 0, 79, 61
1, 878618, Note_on_c, 0, 76, 63
1, 878622, Note_on_c, 0, 52, 46
1, 878654, Note_off_c, 0, 76, 62
1, 878722, Note_on_c, 0, 72, 46
1, 878749, Note_off_c, 0, 72, 56
1, 878773, Note_off_c, 0, 52, 47
1, 878798, Note_on_c, 0, 55, 46
1, 878806, Note_off_c, 0, 43, 32
1, 878811, Note_on_c, 0, 67, 52
1, 878833, Note_off_c, 0, 67, 60
1, 878839, Note_off_c, 0, 55, 59
1, 879041, Note_on_c, 0, 81, 53
1, 879058, Note_on_c, 0, 43, 41
1, 879065, Note_on_c, 0, 72, 23
1, 879083, Note_on_c, 0, 76, 11
1, 879107, Note_off_c, 0, 72, 49
1, 879115, Note_off_c, 0, 76, 47
1, 879137, Note_off_c, 0, 81, 62
1, 879145, Note_on_c, 0, 79, 57
1, 879217, Note_off_c, 0, 79, 62
1, 879234, Note_on_c, 0, 76, 52
1, 879247, Note_on_c, 0, 52, 41
1, 879283, Note_off_c, 0, 76, 64
1, 879352, Note_on_c, 0, 72, 47
1, 879401, Note_off_c, 0, 72, 50
1, 879462, Note_on_c, 0, 67, 45
1, 879463, Note_on_c, 0, 55, 46
1, 879488, Note_off_c, 0, 52, 59
1, 879489, Note_off_c, 0, 67, 56
1, 879500, Note_off_c, 0, 43, 58
1, 879506, Note_off_c, 0, 55, 61
1, 879709, Control_c, 0, 67, 72
1, 879721, Note_on_c, 0, 93, 90
1, 879724, Control_c, 0, 67, 0
1, 879726, Note_on_c, 0, 56, 86
1, 879727, Note_on_c, 0, 52, 86
1, 879730, Note_on_c, 0, 49, 78
1, 879735, Note_on_c, 0, 44, 75
1, 879748, Note_off_c, 0, 56, 72
1, 879755, Note_off_c, 0, 52, 64
1, 879760, Note_off_c, 0, 49, 68
1, 879768, Note_on_c, 0, 92, 83
1, 879785, Note_off_c, 0, 44, 60
1, 879800, Note_off_c, 0, 93, 62
1, 879813, Control_c, 0, 64, 29
1, 879829, Note_on_c, 0, 90, 75
1, 879837, Note_off_c, 0, 92, 67
1, 879843, Control_c, 0, 64, 31
1, 879857, Control_c, 0, 64, 32
1, 879870, Note_off_c, 0, 90, 66
1, 879871, Note_on_c, 0, 88, 74
1, 879872, Control_c, 0, 64, 33
1, 879887, Control_c, 0, 64, 35
1, 879901, Control_c, 0, 64, 36
1, 879919, Note_off_c, 0, 88, 58
1, 879938, Note_on_c, 0, 51, 73
1, 879945, Note_on_c, 0, 56, 98
1, 879945, Note_on_c, 0, 87, 84
1, 879947, Note_on_c, 0, 49, 74
1, 879951, Note_on_c, 0, 52, 93
1, 879958, Note_on_c, 0, 44, 76
1, 879961, Control_c, 0, 64, 36
1, 879975, Control_c, 0, 64, 37
1, 879978, Note_off_c, 0, 51, 44
1, 879984, Note_on_c, 0, 85, 78
1, 879990, Control_c, 0, 64, 38
1, 880005, Control_c, 0, 64, 39
1, 880005, Control_c, 0, 67, 58
1, 880028, Control_c, 0, 64, 41
1, 880028, Control_c, 0, 67, 92
1, 880042, Note_off_c, 0, 87, 63
1, 880043, Note_on_c, 0, 83, 85
1, 880043, Control_c, 0, 64, 42
1, 880043, Control_c, 0, 67, 118
1, 880057, Control_c, 0, 64, 42
1, 880057, Control_c, 0, 67, 127
1, 880064, Note_off_c, 0, 85, 66
1, 880097, Note_off_c, 0, 83, 65
1, 880106, Note_on_c, 0, 81, 78
1, 880133, Control_c, 0, 64, 43
1, 880145, Note_off_c, 0, 81, 65
1, 880148, Control_c, 0, 64, 44
1, 880163, Control_c, 0, 64, 44
1, 880169, Note_on_c, 0, 80, 84
1, 880177, Control_c, 0, 64, 46
1, 880192, Control_c, 0, 64, 49
1, 880207, Control_c, 0, 64, 54
1, 880222, Control_c, 0, 64, 59
1, 880237, Control_c, 0, 64, 62
1, 880240, Note_on_c, 0, 78, 76
1, 880240, Note_off_c, 0, 80, 65
1, 880252, Control_c, 0, 64, 65
1, 880267, Control_c, 0, 64, 68
1, 880281, Control_c, 0, 64, 73
1, 880289, Note_on_c, 0, 76, 77
1, 880293, Note_off_c, 0, 78, 61
1, 880296, Control_c, 0, 64, 81
1, 880311, Control_c, 0, 64, 91
1, 880326, Control_c, 0, 64, 103
1, 880335, Note_off_c, 0, 76, 62
1, 880340, Control_c, 0, 64, 127
1, 880364, Note_on_c, 0, 75, 68
1, 880386, Note_off_c, 0, 75, 39
1, 880397, Note_on_c, 0, 76, 50
1, 880428, Note_off_c, 0, 76, 61
1, 880431, Note_on_c, 0, 74, 68
1, 880461, Note_off_c, 0, 74, 64
1, 880467, Note_on_c, 0, 71, 72
1, 880502, Note_off_c, 0, 71, 59
1, 880523, Note_on_c, 0, 69, 76
1, 880562, Note_off_c, 0, 69, 59
1, 880572, Note_on_c, 0, 68, 78
1, 880638, Note_on_c, 0, 66, 87
1, 880640, Note_off_c, 0, 68, 65
1, 880685, Note_off_c, 0, 66, 65
1, 880697, Note_on_c, 0, 64, 80
1, 880733, Note_off_c, 0, 64, 62
1, 880760, Note_off_c, 0, 56, 62
1, 880765, Note_on_c, 0, 63, 75
1, 880804, Note_off_c, 0, 52, 58
1, 880821, Note_on_c, 0, 61, 76
1, 880830, Note_on_c, 0, 62, 32
1, 880836, Note_off_c, 0, 49, 62
1, 880842, Note_off_c, 0, 63, 61
1, 880849, Note_off_c, 0, 44, 60
1, 880862, Note_on_c, 0, 59, 79
1, 880863, Note_off_c, 0, 61, 64
1, 880863, Note_off_c, 0, 62, 50
1, 880896, Control_c, 0, 67, 112
1, 880911, Control_c, 0, 67, 56
1, 880923, Note_off_c, 0, 59, 64
1, 880923, Note_on_c, 0, 57, 76
1, 880926, Control_c, 0, 67, 0
1, 880979, Note_on_c, 0, 56, 102
1, 880985, Control_c, 0, 64, 97
1, 880987, Note_on_c, 0, 44, 100
1, 880990, Note_on_c, 0, 32, 99
1, 880990, Note_off_c, 0, 57, 65
1, 881000, Control_c, 0, 64, 61
1, 881005, Note_off_c, 0, 44, 74
1, 881009, Note_off_c, 0, 56, 66
1, 881013, Note_off_c, 0, 32, 67
1, 881015, Control_c, 0, 64, 0
1, 881119, Poly_aftertouch_c, 0, 32, 127
1, 881154, Poly_aftertouch_c, 0, 32, 0
1, 881295, Note_on_c, 0, 68, 89
1, 881297, Note_on_c, 0, 60, 88
1, 881298, Note_on_c, 0, 63, 86
1, 881301, Note_on_c, 0, 56, 103
1, 881303, Note_on_c, 0, 44, 93
1, 881323, Note_off_c, 0, 56, 69
1, 881326, Note_off_c, 0, 44, 71
1, 881327, Note_off_c, 0, 60, 68
1, 881339, Note_off_c, 0, 68, 65
1, 881340, Note_off_c, 0, 63, 61
1, 881415, Control_c, 0, 64, 30
1, 881429, Control_c, 0, 64, 36
1, 881444, Control_c, 0, 64, 42
1, 881459, Control_c, 0, 64, 45
1, 881474, Control_c, 0, 64, 46
1, 881600, Control_c, 0, 64, 45
1, 881719, Control_c, 0, 64, 46
1, 881957, Control_c, 0, 64, 45
1, 882031, Control_c, 0, 64, 45
1, 882046, Control_c, 0, 64, 44
1, 882075, Control_c, 0, 64, 44
1, 882090, Control_c, 0, 64, 43
1, 882178, Control_c, 0, 64, 42
1, 882193, Control_c, 0, 64, 40
1, 882208, Control_c, 0, 64, 31
1, 882223, Control_c, 0, 64, 0
1, 882269, Note_on_c, 0, 75, 51
1, 882304, Note_on_c, 0, 73, 56
1, 882318, Note_off_c, 0, 75, 59
1, 882348, Control_c, 0, 67, 45
1, 882363, Control_c, 0, 67, 84
1, 882377, Control_c, 0, 67, 124
1, 882381, Note_off_c, 0, 73, 62
1, 882392, Control_c, 0, 67, 127
1, 882395, Note_on_c, 0, 72, 59
1, 882494, Note_on_c, 0, 68, 46
1, 882498, Note_on_c, 0, 64, 42
1, 882501, Note_on_c, 0, 61, 45
1, 882503, Note_on_c, 0, 73, 57
1, 882504, Note_off_c, 0, 72, 53
1, 882554, Note_off_c, 0, 64, 64
1, 882555, Note_off_c, 0, 68, 61
1, 882560, Note_off_c, 0, 61, 61
1, 882571, Note_off_c, 0, 73, 62
1, 882588, Note_on_c, 0, 76, 60
1, 882667, Note_off_c, 0, 76, 61
1, 882692, Note_on_c, 0, 73, 55
1, 882723, Note_off_c, 0, 73, 64
1, 882915, Note_on_c, 0, 78, 60
1, 883161, Note_on_c, 0, 66, 46
1, 883165, Note_on_c, 0, 57, 44
1, 883167, Note_on_c, 0, 61, 40
1, 883206, Note_off_c, 0, 66, 66
1, 883208, Note_off_c, 0, 61, 65
1, 883210, Note_off_c, 0, 57, 64
1, 883307, Note_off_c, 0, 78, 56
1, 883454, Control_c, 0, 67, 122
1, 883468, Control_c, 0, 67, 94
1, 883483, Control_c, 0, 67, 45
1, 883492, Note_on_c, 0, 75, 61
1, 883498, Control_c, 0, 67, 0
1, 883534, Note_on_c, 0, 73, 69
1, 883567, Note_off_c, 0, 75, 60
1, 883597, Note_off_c, 0, 73, 63
1, 883600, Note_on_c, 0, 72, 71
1, 883693, Note_on_c, 0, 73, 81
1, 883696, Note_on_c, 0, 64, 56
1, 883698, Note_on_c, 0, 56, 55
1, 883700, Note_on_c, 0, 61, 53
1, 883722, Note_off_c, 0, 72, 60
1, 883752, Note_off_c, 0, 64, 64
1, 883755, Note_off_c, 0, 61, 62
1, 883763, Note_off_c, 0, 56, 64
1, 883792, Note_off_c, 0, 73, 63
1, 883795, Note_on_c, 0, 76, 76
1, 883883, Note_off_c, 0, 76, 62
1, 883892, Note_on_c, 0, 73, 77
1, 883923, Note_off_c, 0, 73, 61
1, 884126, Note_on_c, 0, 81, 63
1, 884382, Note_on_c, 0, 62, 37
1, 884395, Note_on_c, 0, 54, 30
1, 884411, Note_on_c, 0, 57, 29
1, 884467, Note_off_c, 0, 62, 61
1, 884471, Note_off_c, 0, 54, 59
1, 884474, Note_off_c, 0, 57, 62
1, 884499, Control_c, 0, 67, 79
1, 884521, Control_c, 0, 67, 127
1, 884535, Note_off_c, 0, 81, 64
1, 884741, Note_on_c, 0, 81, 61
1, 884826, Note_on_c, 0, 80, 65
1, 884829, Note_off_c, 0, 81, 65
1, 884851, Note_off_c, 0, 80, 69
1, 884955, Note_on_c, 0, 78, 71
1, 884959, Note_on_c, 0, 64, 51
1, 884962, Note_on_c, 0, 56, 51
1, 884966, Note_on_c, 0, 61, 48
1, 885036, Note_off_c, 0, 78, 58
1, 885039, Note_off_c, 0, 64, 63
1, 885039, Note_on_c, 0, 76, 76
1, 885044, Note_off_c, 0, 61, 63
1, 885049, Note_off_c, 0, 56, 62
1, 885079, Note_off_c, 0, 76, 63
1, 885130, Note_on_c, 0, 75, 74
1, 885187, Note_off_c, 0, 75, 63
1, 885208, Note_on_c, 0, 73, 72
1, 885241, Note_off_c, 0, 73, 57
1, 885354, Note_on_c, 0, 73, 66
1, 885382, Note_on_c, 0, 56, 40
1, 885385, Note_on_c, 0, 64, 44
1, 885549, Note_on_c, 0, 68, 54
1, 885552, Note_on_c, 0, 76, 55
1, 885561, Note_off_c, 0, 64, 62
1, 885561, Note_off_c, 0, 73, 62
1, 885565, Note_off_c, 0, 56, 58
1, 885576, Note_off_c, 0, 76, 64
1, 885580, Note_off_c, 0, 68, 65
1, 885756, Note_on_c, 0, 75, 60
1, 885760, Note_on_c, 0, 68, 52
1, 885761, Note_on_c, 0, 56, 53
1, 885767, Note_on_c, 0, 72, 44
1, 885780, Note_off_c, 0, 75, 64
1, 885782, Note_off_c, 0, 68, 62
1, 885793, Note_off_c, 0, 72, 54
1, 885794, Note_off_c, 0, 56, 65
1, 885992, Note_on_c, 0, 63, 62
1, 886012, Control_c, 0, 67, 58
1, 886024, Note_on_c, 0, 61, 71
1, 886034, Control_c, 0, 67, 0
1, 886041, Note_off_c, 0, 63, 63
1, 886086, Note_off_c, 0, 61, 64
1, 886088, Note_on_c, 0, 60, 68
1, 886178, Note_off_c, 0, 60, 46
1, 886182, Note_on_c, 0, 61, 81
1, 886196, Note_on_c, 0, 56, 66
1, 886203, Note_on_c, 0, 49, 61
1, 886206, Note_on_c, 0, 52, 55
1, 886237, Note_off_c, 0, 56, 61
1, 886241, Note_off_c, 0, 52, 62
1, 886256, Note_off_c, 0, 49, 59
1, 886260, Note_off_c, 0, 61, 63
1, 886268, Note_on_c, 0, 64, 75
1, 886353, Note_off_c, 0, 64, 63
1, 886370, Note_on_c, 0, 61, 75
1, 886375, Note_on_c, 0, 49, 65
1, 886377, Note_on_c, 0, 56, 61
1, 886382, Note_on_c, 0, 52, 56
1, 886399, Note_off_c, 0, 56, 63
1, 886404, Note_off_c, 0, 49, 64
1, 886404, Note_off_c, 0, 61, 66
1, 886408, Note_off_c, 0, 52, 57
1, 886583, Note_on_c, 0, 66, 79
1, 886782, Note_on_c, 0, 54, 59
1, 886785, Note_on_c, 0, 49, 53
1, 886786, Note_on_c, 0, 45, 57
1, 886818, Note_off_c, 0, 54, 62
1, 886822, Note_off_c, 0, 49, 62
1, 886825, Note_off_c, 0, 45, 63
1, 886980, Note_on_c, 0, 54, 66
1, 886983, Note_on_c, 0, 49, 62
1, 886987, Note_on_c, 0, 45, 63
1, 887004, Note_off_c, 0, 66, 60
1, 887008, Note_off_c, 0, 54, 65
1, 887014, Note_off_c, 0, 49, 64
1, 887017, Note_off_c, 0, 45, 64
1, 887049, Control_c, 0, 67, 36
1, 887064, Control_c, 0, 67, 48
1, 887079, Control_c, 0, 67, 54
1, 887093, Control_c, 0, 67, 56
1, 887153, Control_c, 0, 67, 55
1, 887162, Note_on_c, 0, 63, 65
1, 887183, Control_c, 0, 67, 54
1, 887194, Note_on_c, 0, 61, 72
1, 887198, Control_c, 0, 67, 53
1, 887212, Control_c, 0, 67, 53
1, 887227, Control_c, 0, 67, 52
1, 887230, Note_off_c, 0, 63, 62
1, 887263, Note_on_c, 0, 60, 75
1, 887267, Note_off_c, 0, 61, 65
1, 887272, Control_c, 0, 67, 51
1, 887287, Control_c, 0, 67, 50
1, 887348, Note_on_c, 0, 52, 65
1, 887353, Note_on_c, 0, 49, 56
1, 887355, Note_on_c, 0, 44, 60
1, 887358, Note_on_c, 0, 61, 84
1, 887388, Note_off_c, 0, 60, 62
1, 887393, Note_off_c, 0, 52, 62
1, 887394, Note_off_c, 0, 49, 63
1, 887398, Note_off_c, 0, 44, 61
1, 887406, Control_c, 0, 67, 50
1, 887421, Control_c, 0, 67, 49
1, 887442, Note_on_c, 0, 64, 78
1, 887445, Note_off_c, 0, 61, 64
1, 887450, Control_c, 0, 67, 48
1, 887465, Control_c, 0, 67, 48
1, 887542, Note_on_c, 0, 52, 64
1, 887543, Note_off_c, 0, 64, 64
1, 887545, Note_on_c, 0, 49, 62
1, 887546, Note_on_c, 0, 61, 88
1, 887548, Note_on_c, 0, 44, 67
1, 887569, Note_off_c, 0, 52, 64
1, 887573, Note_off_c, 0, 49, 65
1, 887585, Note_off_c, 0, 44, 66
1, 887597, Note_off_c, 0, 61, 65
1, 887606, Control_c, 0, 67, 48
1, 887621, Control_c, 0, 67, 49
1, 887636, Control_c, 0, 67, 49
1, 887650, Control_c, 0, 67, 50
1, 887665, Control_c, 0, 67, 51
1, 887680, Control_c, 0, 67, 52
1, 887695, Control_c, 0, 67, 53
1, 887710, Control_c, 0, 67, 54
1, 887724, Control_c, 0, 67, 55
1, 887739, Control_c, 0, 67, 56
1, 887754, Control_c, 0, 67, 56
1, 887774, Note_on_c, 0, 69, 75
1, 887784, Control_c, 0, 67, 57
1, 887872, Control_c, 0, 67, 56
1, 887902, Control_c, 0, 67, 56
1, 887969, Note_on_c, 0, 42, 52
1, 887975, Note_on_c, 0, 50, 43
1, 888000, Note_on_c, 0, 45, 16
1, 888016, Note_off_c, 0, 50, 60
1, 888022, Note_off_c, 0, 42, 59
1, 888047, Note_off_c, 0, 45, 40
1, 888050, Control_c, 0, 67, 55
1, 888110, Control_c, 0, 67, 54
1, 888139, Control_c, 0, 67, 54
1, 888184, Control_c, 0, 67, 53
1, 888208, Note_on_c, 0, 42, 54
1, 888218, Note_on_c, 0, 50, 43
1, 888247, Note_off_c, 0, 50, 57
1, 888254, Note_off_c, 0, 42, 60
1, 888280, Note_off_c, 0, 69, 52
1, 888298, Poly_aftertouch_c, 0, 45, 0
1, 888354, Control_c, 0, 67, 54
1, 888384, Control_c, 0, 67, 54
1, 888399, Control_c, 0, 67, 55
1, 888429, Control_c, 0, 67, 56
1, 888465, Note_on_c, 0, 69, 54
1, 888473, Control_c, 0, 67, 57
1, 888503, Control_c, 0, 67, 57
1, 888518, Control_c, 0, 67, 58
1, 888533, Control_c, 0, 67, 59
1, 888547, Control_c, 0, 67, 60
1, 888562, Control_c, 0, 67, 61
1, 888572, Note_on_c, 0, 68, 56
1, 888577, Control_c, 0, 67, 63
1, 888592, Control_c, 0, 67, 69
1, 888607, Control_c, 0, 67, 94
1, 888618, Note_off_c, 0, 69, 52
1, 888621, Control_c, 0, 67, 115
1, 888636, Control_c, 0, 67, 127
1, 888680, Control_c, 0, 64, 34
1, 888683, Note_on_c, 0, 49, 54
1, 888694, Note_on_c, 0, 66, 60
1, 888695, Control_c, 0, 64, 42
1, 888710, Control_c, 0, 64, 50
1, 888721, Note_off_c, 0, 68, 57
1, 888725, Note_on_c, 0, 40, 28
1, 888725, Control_c, 0, 64, 54
1, 888739, Control_c, 0, 64, 55
1, 888754, Control_c, 0, 64, 56
1, 888769, Control_c, 0, 64, 57
1, 888780, Note_off_c, 0, 66, 64
1, 888784, Control_c, 0, 64, 59
1, 888798, Control_c, 0, 64, 60
1, 888804, Note_off_c, 0, 40, 47
1, 888813, Note_on_c, 0, 64, 65
1, 888813, Control_c, 0, 64, 61
1, 888828, Control_c, 0, 64, 61
1, 888843, Control_c, 0, 64, 62
1, 888858, Control_c, 0, 64, 63
1, 888873, Control_c, 0, 64, 64
1, 888888, Control_c, 0, 64, 65
1, 888903, Control_c, 0, 64, 66
1, 888918, Control_c, 0, 64, 67
1, 888920, Note_off_c, 0, 64, 49
1, 888933, Control_c, 0, 64, 68
1, 888940, Note_on_c, 0, 62, 61
1, 888948, Control_c, 0, 64, 69
1, 888962, Control_c, 0, 64, 69
1, 888963, Note_on_c, 0, 45, 63
1, 888977, Control_c, 0, 64, 70
1, 888986, Note_on_c, 0, 40, 39
1, 888992, Control_c, 0, 64, 70
1, 889015, Control_c, 0, 64, 71
1, 889044, Note_off_c, 0, 49, 60
1, 889064, Note_off_c, 0, 40, 53
1, 889107, Note_on_c, 0, 61, 65
1, 889108, Note_off_c, 0, 62, 57
1, 889159, Note_off_c, 0, 45, 58
1, 889178, Note_off_c, 0, 61, 63
1, 889236, Control_c, 0, 64, 70
1, 889266, Control_c, 0, 64, 70
1, 889281, Control_c, 0, 64, 69
1, 889296, Control_c, 0, 64, 69
1, 889311, Control_c, 0, 64, 68
1, 889326, Control_c, 0, 64, 68
1, 889341, Control_c, 0, 64, 67
1, 889356, Control_c, 0, 64, 66
1, 889370, Control_c, 0, 64, 65
1, 889385, Control_c, 0, 64, 65
1, 889400, Note_on_c, 0, 61, 45
1, 889400, Control_c, 0, 64, 64
1, 889414, Control_c, 0, 64, 63
1, 889422, Note_on_c, 0, 57, 34
1, 889429, Control_c, 0, 64, 62
1, 889444, Control_c, 0, 64, 60
1, 889448, Note_on_c, 0, 52, 39
1, 889454, Note_on_c, 0, 40, 31
1, 889459, Control_c, 0, 64, 59
1, 889474, Control_c, 0, 64, 56
1, 889488, Control_c, 0, 64, 53
1, 889503, Control_c, 0, 64, 49
1, 889518, Control_c, 0, 64, 42
1, 889533, Control_c, 0, 64, 30
1, 889548, Control_c, 0, 64, 0
1, 889681, Control_c, 0, 64, 43
1, 889697, Control_c, 0, 64, 54
1, 889711, Control_c, 0, 64, 60
1, 889726, Control_c, 0, 64, 63
1, 889741, Control_c, 0, 64, 64
1, 889764, Control_c, 0, 64, 65
1, 889779, Control_c, 0, 64, 66
1, 889793, Control_c, 0, 64, 68
1, 889808, Control_c, 0, 64, 69
1, 889853, Control_c, 0, 64, 69
1, 889856, Note_off_c, 0, 61, 36
1, 889972, Control_c, 0, 64, 69
1, 890016, Control_c, 0, 64, 68
1, 890026, Note_on_c, 0, 62, 39
1, 890031, Control_c, 0, 64, 67
1, 890045, Control_c, 0, 64, 66
1, 890054, Note_off_c, 0, 57, 39
1, 890060, Control_c, 0, 64, 65
1, 890075, Control_c, 0, 64, 63
1, 890090, Control_c, 0, 64, 61
1, 890105, Control_c, 0, 64, 57
1, 890119, Control_c, 0, 64, 53
1, 890134, Control_c, 0, 64, 45
1, 890149, Control_c, 0, 64, 33
1, 890158, Note_on_c, 0, 56, 30
1, 890160, Note_off_c, 0, 62, 36
1, 890164, Note_on_c, 0, 59, 31
1, 890164, Control_c, 0, 64, 0
1, 890283, Control_c, 0, 64, 40
1, 890298, Control_c, 0, 64, 54
1, 890312, Control_c, 0, 64, 60
1, 890327, Control_c, 0, 64, 62
1, 890333, Note_off_c, 0, 56, 42
1, 890341, Note_off_c, 0, 59, 51
1, 890342, Control_c, 0, 64, 65
1, 890357, Control_c, 0, 64, 67
1, 890372, Control_c, 0, 64, 69
1, 890386, Control_c, 0, 64, 71
1, 890401, Control_c, 0, 64, 73
1, 890413, Note_off_c, 0, 40, 40
1, 890416, Control_c, 0, 64, 74
1, 890431, Control_c, 0, 64, 75
1, 890439, Note_off_c, 0, 52, 36
1, 890445, Control_c, 0, 64, 75
1, 890491, Control_c, 0, 64, 76
1, 890587, Control_c, 0, 64, 75
1, 890602, Control_c, 0, 64, 75
1, 890616, Control_c, 0, 64, 74
1, 890631, Control_c, 0, 64, 72
1, 890646, Control_c, 0, 64, 68
1, 890661, Control_c, 0, 64, 63
1, 890675, Control_c, 0, 64, 53
1, 890690, Control_c, 0, 64, 38
1, 890705, Control_c, 0, 64, 0
1, 891155, Note_on_c, 0, 81, 65
1, 891164, Control_c, 0, 64, 31
1, 891165, Note_on_c, 0, 85, 76
1, 891179, Control_c, 0, 64, 56
1, 891180, Note_on_c, 0, 88, 65
1, 891182, Note_off_c, 0, 81, 68
1, 891193, Control_c, 0, 64, 62
1, 891194, Note_off_c, 0, 85, 67
1, 891204, Note_off_c, 0, 88, 70
1, 891208, Control_c, 0, 64, 63
1, 891223, Control_c, 0, 64, 65
1, 891238, Control_c, 0, 64, 67
1, 891253, Control_c, 0, 64, 68
1, 891275, Control_c, 0, 64, 69
1, 891290, Control_c, 0, 64, 69
1, 891305, Control_c, 0, 64, 70
1, 891320, Control_c, 0, 64, 70
1, 891335, Control_c, 0, 64, 71
1, 891350, Control_c, 0, 64, 72
1, 891395, Control_c, 0, 64, 70
1, 891410, Control_c, 0, 64, 64
1, 891423, Note_on_c, 0, 76, 59
1, 891424, Control_c, 0, 64, 52
1, 891425, Note_on_c, 0, 73, 55
1, 891429, Note_on_c, 0, 69, 52
1, 891439, Control_c, 0, 64, 39
1, 891444, Note_off_c, 0, 76, 65
1, 891447, Note_off_c, 0, 73, 64
1, 891451, Note_off_c, 0, 69, 60
1, 891454, Control_c, 0, 64, 30
1, 891484, Control_c, 0, 64, 37
1, 891498, Control_c, 0, 64, 39
1, 891513, Control_c, 0, 64, 40
1, 891543, Control_c, 0, 64, 41
1, 891558, Control_c, 0, 64, 44
1, 891572, Control_c, 0, 64, 46
1, 891587, Control_c, 0, 64, 47
1, 891602, Control_c, 0, 64, 47
1, 891606, Note_on_c, 0, 57, 55
1, 891610, Note_on_c, 0, 64, 48
1, 891611, Note_on_c, 0, 61, 45
1, 891616, Control_c, 0, 64, 48
1, 891636, Note_off_c, 0, 64, 58
1, 891638, Note_off_c, 0, 61, 58
1, 891642, Note_off_c, 0, 57, 64
1, 891676, Control_c, 0, 64, 48
1, 891790, Note_on_c, 0, 59, 63
1, 891793, Note_on_c, 0, 56, 60
1, 891797, Note_on_c, 0, 64, 51
1, 891818, Note_off_c, 0, 59, 66
1, 891820, Note_off_c, 0, 64, 60
1, 891824, Control_c, 0, 64, 48
1, 891824, Note_off_c, 0, 56, 65
1, 891854, Control_c, 0, 64, 47
1, 891869, Control_c, 0, 64, 47
1, 891943, Control_c, 0, 64, 46
1, 891986, Note_on_c, 0, 71, 64
1, 891987, Note_on_c, 0, 68, 58
1, 892024, Note_off_c, 0, 68, 66
1, 892024, Control_c, 0, 64, 46
1, 892030, Note_off_c, 0, 71, 61
1, 892083, Control_c, 0, 64, 45
1, 892098, Note_on_c, 0, 76, 60
1, 892128, Note_off_c, 0, 76, 65
1, 892128, Control_c, 0, 64, 45
1, 892143, Control_c, 0, 64, 44
1, 892158, Note_on_c, 0, 69, 60
1, 892161, Note_on_c, 0, 57, 58
1, 892162, Note_on_c, 0, 61, 51
1, 892163, Note_on_c, 0, 64, 52
1, 892169, Note_on_c, 0, 73, 64
1, 892173, Control_c, 0, 64, 44
1, 892185, Note_off_c, 0, 69, 68
1, 892191, Note_off_c, 0, 64, 64
1, 892192, Note_off_c, 0, 61, 64
1, 892194, Note_off_c, 0, 57, 64
1, 892202, Control_c, 0, 64, 43
1, 892208, Note_off_c, 0, 73, 65
1, 892217, Control_c, 0, 64, 43
1, 892246, Control_c, 0, 64, 42
1, 892259, Note_on_c, 0, 76, 62
1, 892261, Control_c, 0, 64, 42
1, 892276, Control_c, 0, 64, 38
1, 892289, Note_off_c, 0, 76, 66
1, 892291, Control_c, 0, 64, 29
1, 892306, Control_c, 0, 64, 0
1, 892365, Control_c, 0, 64, 44
1, 892372, Note_on_c, 0, 83, 75
1, 892375, Note_on_c, 0, 86, 83
1, 892380, Control_c, 0, 64, 59
1, 892387, Note_on_c, 0, 88, 81
1, 892394, Control_c, 0, 64, 67
1, 892409, Control_c, 0, 64, 71
1, 892410, Note_off_c, 0, 83, 65
1, 892410, Note_off_c, 0, 88, 68
1, 892424, Control_c, 0, 64, 74
1, 892426, Note_off_c, 0, 86, 67
1, 892438, Control_c, 0, 64, 75
1, 892453, Control_c, 0, 64, 76
1, 892468, Control_c, 0, 64, 78
1, 892483, Control_c, 0, 64, 80
1, 892498, Control_c, 0, 64, 82
1, 892512, Control_c, 0, 64, 85
1, 892527, Control_c, 0, 64, 88
1, 892557, Control_c, 0, 64, 85
1, 892572, Control_c, 0, 64, 78
1, 892586, Note_on_c, 0, 76, 72
1, 892587, Control_c, 0, 64, 68
1, 892592, Note_on_c, 0, 71, 64
1, 892592, Note_on_c, 0, 74, 65
1, 892602, Control_c, 0, 64, 59
1, 892604, Note_off_c, 0, 76, 66
1, 892609, Note_off_c, 0, 74, 63
1, 892611, Note_off_c, 0, 71, 63
1, 892617, Control_c, 0, 64, 50
1, 892631, Control_c, 0, 64, 41
1, 892646, Control_c, 0, 64, 31
1, 892661, Control_c, 0, 64, 28
1, 892720, Control_c, 0, 64, 30
1, 892735, Control_c, 0, 64, 32
1, 892750, Control_c, 0, 64, 33
1, 892772, Control_c, 0, 64, 33
1, 892775, Note_on_c, 0, 64, 65
1, 892781, Note_on_c, 0, 59, 56
1, 892785, Note_on_c, 0, 62, 47
1, 892805, Note_off_c, 0, 64, 64
1, 892811, Note_off_c, 0, 62, 55
1, 892818, Note_off_c, 0, 59, 65
1, 892906, Control_c, 0, 64, 34
1, 892981, Note_on_c, 0, 57, 69
1, 892983, Note_on_c, 0, 61, 68
1, 892984, Note_on_c, 0, 64, 73
1, 893007, Note_off_c, 0, 64, 68
1, 893009, Note_off_c, 0, 61, 67
1, 893012, Note_off_c, 0, 57, 65
1, 893192, Note_on_c, 0, 69, 60
1, 893198, Note_on_c, 0, 73, 64
1, 893219, Note_off_c, 0, 69, 65
1, 893235, Note_off_c, 0, 73, 61
1, 893277, Note_on_c, 0, 76, 69
1, 893315, Note_off_c, 0, 76, 59
1, 893363, Note_on_c, 0, 74, 81
1, 893376, Note_on_c, 0, 71, 66
1, 893386, Note_on_c, 0, 64, 56
1, 893389, Note_on_c, 0, 59, 52
1, 893389, Note_on_c, 0, 62, 45
1, 893398, Note_off_c, 0, 74, 61
1, 893403, Note_off_c, 0, 71, 67
1, 893416, Note_off_c, 0, 62, 59
1, 893418, Note_off_c, 0, 64, 66
1, 893425, Note_off_c, 0, 59, 65
1, 893445, Note_on_c, 0, 76, 73
1, 893454, Control_c, 0, 64, 32
1, 893469, Control_c, 0, 64, 28
1, 893469, Note_off_c, 0, 76, 67
1, 893484, Control_c, 0, 64, 0
1, 893565, Control_c, 0, 64, 44
1, 893578, Note_on_c, 0, 88, 83
1, 893580, Note_on_c, 0, 93, 95
1, 893580, Control_c, 0, 64, 58
1, 893581, Note_on_c, 0, 85, 77
1, 893595, Control_c, 0, 64, 65
1, 893600, Note_off_c, 0, 85, 71
1, 893608, Note_off_c, 0, 88, 65
1, 893609, Control_c, 0, 64, 69
1, 893624, Note_off_c, 0, 93, 65
1, 893624, Control_c, 0, 64, 72
1, 893639, Control_c, 0, 64, 74
1, 893654, Control_c, 0, 64, 77
1, 893669, Control_c, 0, 64, 82
1, 893684, Control_c, 0, 64, 92
1, 893699, Control_c, 0, 64, 110
1, 893714, Control_c, 0, 64, 127
1, 893729, Control_c, 0, 64, 106
1, 893744, Control_c, 0, 64, 78
1, 893758, Control_c, 0, 64, 49
1, 893761, Note_on_c, 0, 81, 77
1, 893769, Note_on_c, 0, 76, 71
1, 893770, Note_on_c, 0, 73, 72
1, 893773, Control_c, 0, 64, 0
1, 893786, Note_off_c, 0, 81, 68
1, 893794, Note_off_c, 0, 73, 70
1, 893794, Note_off_c, 0, 76, 70
1, 893940, Note_on_c, 0, 57, 58
1, 893948, Note_on_c, 0, 61, 54
1, 893968, Note_off_c, 0, 57, 65
1, 893970, Note_off_c, 0, 61, 62
1, 894175, Note_on_c, 0, 67, 55
1, 894182, Note_on_c, 0, 59, 50
1, 894188, Note_on_c, 0, 62, 40
1, 894334, Note_on_c, 0, 71, 55
1, 894336, Note_on_c, 0, 74, 60
1, 894347, Note_on_c, 0, 79, 56
1, 894355, Note_off_c, 0, 71, 60
1, 894359, Note_off_c, 0, 74, 64
1, 894378, Note_off_c, 0, 79, 67
1, 894528, Note_on_c, 0, 83, 66
1, 894532, Note_on_c, 0, 86, 75
1, 894535, Note_on_c, 0, 91, 77
1, 894539, Note_off_c, 0, 62, 61
1, 894543, Note_off_c, 0, 67, 61
1, 894551, Note_off_c, 0, 59, 63
1, 894551, Note_off_c, 0, 83, 69
1, 894557, Note_off_c, 0, 86, 66
1, 894572, Note_off_c, 0, 91, 67
1, 894713, Note_on_c, 0, 91, 78
1, 894744, Note_on_c, 0, 90, 81
1, 894759, Note_off_c, 0, 91, 64
1, 894815, Note_off_c, 0, 90, 65
1, 894819, Note_on_c, 0, 89, 84
1, 894900, Note_on_c, 0, 90, 92
1, 894905, Note_on_c, 0, 62, 57
1, 894905, Note_on_c, 0, 66, 60
1, 894911, Note_off_c, 0, 89, 59
1, 894915, Note_on_c, 0, 57, 54
1, 894938, Note_off_c, 0, 66, 65
1, 894942, Note_off_c, 0, 62, 64
1, 894953, Note_off_c, 0, 57, 63
1, 894978, Note_off_c, 0, 90, 65
1, 894983, Note_on_c, 0, 93, 91
1, 895078, Note_off_c, 0, 93, 62
1, 895082, Note_on_c, 0, 88, 88
1, 895090, Note_on_c, 0, 57, 48
1, 895099, Note_on_c, 0, 61, 52
1, 895100, Note_on_c, 0, 67, 53
1, 895124, Note_off_c, 0, 57, 65
1, 895124, Note_off_c, 0, 67, 60
1, 895134, Note_off_c, 0, 61, 64
1, 895159, Note_off_c, 0, 88, 64
1, 895174, Note_on_c, 0, 93, 85
1, 895255, Control_c, 0, 64, 28
1, 895270, Control_c, 0, 64, 33
1, 895274, Note_on_c, 0, 90, 76
1, 895286, Control_c, 0, 64, 37
1, 895301, Control_c, 0, 64, 42
1, 895302, Note_on_c, 0, 66, 40
1, 895303, Note_on_c, 0, 62, 37
1, 895305, Note_off_c, 0, 93, 58
1, 895316, Control_c, 0, 64, 46
1, 895330, Control_c, 0, 64, 49
1, 895345, Control_c, 0, 64, 52
1, 895360, Control_c, 0, 64, 54
1, 895373, Note_on_c, 0, 86, 73
1, 895375, Control_c, 0, 64, 56
1, 895376, Note_off_c, 0, 90, 63
1, 895390, Control_c, 0, 64, 57
1, 895404, Control_c, 0, 64, 58
1, 895419, Control_c, 0, 64, 59
1, 895425, Note_off_c, 0, 86, 64
1, 895434, Control_c, 0, 64, 59
1, 895449, Control_c, 0, 64, 60
1, 895470, Note_on_c, 0, 81, 63
1, 895529, Note_off_c, 0, 81, 64
1, 895538, Control_c, 0, 64, 59
1, 895545, Note_off_c, 0, 66, 64
1, 895553, Control_c, 0, 64, 58
1, 895562, Note_off_c, 0, 62, 51
1, 895565, Note_on_c, 0, 78, 62
1, 895568, Control_c, 0, 64, 55
1, 895582, Control_c, 0, 64, 50
1, 895597, Control_c, 0, 64, 33
1, 895612, Control_c, 0, 64, 0
1, 895639, Note_off_c, 0, 78, 61
1, 895662, Note_on_c, 0, 74, 55
1, 895683, Note_off_c, 0, 74, 59
1, 895842, Note_on_c, 0, 83, 73
1, 895842, Control_c, 0, 64, 30
1, 895857, Note_on_c, 0, 86, 69
1, 895857, Control_c, 0, 64, 45
1, 895872, Control_c, 0, 64, 54
1, 895876, Note_on_c, 0, 91, 80
1, 895878, Note_off_c, 0, 86, 72
1, 895883, Note_off_c, 0, 83, 66
1, 895887, Control_c, 0, 64, 59
1, 895895, Note_off_c, 0, 91, 74
1, 895902, Control_c, 0, 64, 62
1, 895917, Control_c, 0, 64, 63
1, 895931, Control_c, 0, 64, 64
1, 895946, Control_c, 0, 64, 65
1, 895961, Control_c, 0, 64, 67
1, 895976, Control_c, 0, 64, 68
1, 895990, Control_c, 0, 64, 69
1, 896020, Control_c, 0, 64, 67
1, 896035, Control_c, 0, 64, 61
1, 896050, Control_c, 0, 64, 44
1, 896064, Control_c, 0, 64, 0
1, 896071, Note_on_c, 0, 71, 59
1, 896072, Note_on_c, 0, 74, 55
1, 896073, Note_on_c, 0, 79, 44
1, 896093, Note_off_c, 0, 71, 61
1, 896093, Note_off_c, 0, 74, 60
1, 896099, Note_off_c, 0, 79, 60
1, 896238, Note_on_c, 0, 62, 53
1, 896242, Note_on_c, 0, 59, 55
1, 896265, Note_off_c, 0, 62, 64
1, 896275, Note_off_c, 0, 59, 64
1, 896483, Note_on_c, 0, 57, 39
1, 896483, Note_on_c, 0, 65, 36
1, 896488, Note_on_c, 0, 60, 30
1, 896561, Control_c, 0, 64, 35
1, 896575, Control_c, 0, 64, 44
1, 896590, Control_c, 0, 64, 51
1, 896605, Control_c, 0, 64, 55
1, 896620, Control_c, 0, 64, 59
1, 896635, Control_c, 0, 64, 61
1, 896650, Control_c, 0, 64, 63
1, 896657, Note_on_c, 0, 69, 46
1, 896660, Note_on_c, 0, 72, 52
1, 896665, Control_c, 0, 64, 64
1, 896671, Note_on_c, 0, 77, 55
1, 896679, Control_c, 0, 64, 65
1, 896682, Note_off_c, 0, 72, 63
1, 896683, Note_off_c, 0, 69, 56
1, 896694, Control_c, 0, 64, 66
1, 896704, Note_off_c, 0, 77, 67
1, 896709, Control_c, 0, 64, 67
1, 896724, Control_c, 0, 64, 68
1, 896739, Control_c, 0, 64, 68
1, 896753, Control_c, 0, 64, 69
1, 896792, Note_off_c, 0, 65, 62
1, 896805, Note_off_c, 0, 60, 55
1, 896818, Note_off_c, 0, 57, 63
1, 896845, Note_on_c, 0, 81, 63
1, 896856, Note_on_c, 0, 84, 62
1, 896857, Note_on_c, 0, 89, 73
1, 896872, Note_off_c, 0, 81, 66
1, 896883, Note_off_c, 0, 84, 69
1, 896897, Note_off_c, 0, 89, 62
1, 896962, Control_c, 0, 64, 69
1, 896991, Control_c, 0, 64, 68
1, 897006, Control_c, 0, 64, 59
1, 897021, Control_c, 0, 64, 0
1, 897024, Note_on_c, 0, 89, 78
1, 897052, Note_on_c, 0, 88, 80
1, 897115, Note_off_c, 0, 89, 59
1, 897121, Note_off_c, 0, 88, 67
1, 897124, Note_on_c, 0, 87, 75
1, 897211, Note_on_c, 0, 88, 87
1, 897224, Note_off_c, 0, 87, 63
1, 897227, Note_on_c, 0, 60, 51
1, 897227, Note_on_c, 0, 64, 54
1, 897237, Note_on_c, 0, 55, 45
1, 897259, Note_off_c, 0, 88, 67
1, 897261, Note_off_c, 0, 64, 65
1, 897264, Note_off_c, 0, 60, 65
1, 897273, Note_off_c, 0, 55, 60
1, 897315, Note_on_c, 0, 91, 75
1, 897386, Note_off_c, 0, 91, 64
1, 897401, Note_on_c, 0, 55, 46
1, 897404, Note_on_c, 0, 86, 78
1, 897410, Note_on_c, 0, 65, 50
1, 897418, Note_on_c, 0, 59, 41
1, 897432, Note_off_c, 0, 65, 61
1, 897444, Note_off_c, 0, 86, 60
1, 897445, Note_off_c, 0, 59, 56
1, 897450, Note_off_c, 0, 55, 55
1, 897500, Note_on_c, 0, 91, 66
1, 897598, Note_off_c, 0, 91, 56
1, 897617, Note_on_c, 0, 88, 61
1, 897635, Control_c, 0, 64, 31
1, 897644, Note_on_c, 0, 64, 28
1, 897646, Note_on_c, 0, 60, 31
1, 897650, Control_c, 0, 64, 46
1, 897665, Control_c, 0, 64, 57
1, 897681, Control_c, 0, 64, 59
1, 897694, Note_off_c, 0, 88, 64
1, 897696, Control_c, 0, 64, 60
1, 897711, Control_c, 0, 64, 61
1, 897712, Note_on_c, 0, 84, 63
1, 897725, Control_c, 0, 64, 63
1, 897740, Control_c, 0, 64, 64
1, 897747, Note_off_c, 0, 60, 60
1, 897751, Note_off_c, 0, 64, 61
1, 897755, Control_c, 0, 64, 65
1, 897758, Note_off_c, 0, 84, 61
1, 897770, Control_c, 0, 64, 66
1, 897799, Control_c, 0, 64, 67
1, 897804, Note_on_c, 0, 79, 55
1, 897814, Control_c, 0, 64, 67
1, 897840, Note_off_c, 0, 79, 61
1, 897844, Control_c, 0, 64, 68
1, 897894, Note_on_c, 0, 76, 64
1, 897959, Note_off_c, 0, 76, 59
1, 897962, Control_c, 0, 64, 67
1, 897976, Control_c, 0, 64, 66
1, 897991, Note_on_c, 0, 72, 50
1, 897991, Control_c, 0, 64, 64
1, 898014, Control_c, 0, 64, 61
1, 898022, Note_off_c, 0, 72, 57
1, 898029, Control_c, 0, 64, 54
1, 898044, Control_c, 0, 64, 40
1, 898058, Control_c, 0, 64, 0
1, 898147, Control_c, 0, 64, 32
1, 898162, Control_c, 0, 64, 43
1, 898176, Control_c, 0, 64, 53
1, 898191, Control_c, 0, 64, 57
1, 898206, Control_c, 0, 64, 58
1, 898221, Control_c, 0, 64, 59
1, 898224, Note_on_c, 0, 93, 61
1, 898236, Control_c, 0, 64, 61
1, 898251, Control_c, 0, 64, 63
1, 898266, Control_c, 0, 64, 65
1, 898268, Note_on_c, 0, 91, 67
1, 898269, Note_on_c, 0, 47, 36
1, 898276, Note_off_c, 0, 93, 51
1, 898281, Control_c, 0, 64, 66
1, 898295, Control_c, 0, 64, 67
1, 898310, Control_c, 0, 64, 68
1, 898325, Control_c, 0, 64, 69
1, 898340, Control_c, 0, 64, 70
1, 898355, Control_c, 0, 64, 71
1, 898366, Note_off_c, 0, 91, 65
1, 898373, Note_on_c, 0, 90, 71
1, 898384, Control_c, 0, 64, 71
1, 898399, Control_c, 0, 64, 72
1, 898414, Control_c, 0, 64, 72
1, 898429, Control_c, 0, 64, 73
1, 898443, Control_c, 0, 64, 74
1, 898458, Control_c, 0, 64, 74
1, 898463, Note_off_c, 0, 90, 64
1, 898468, Note_off_c, 0, 47, 39
1, 898469, Note_on_c, 0, 91, 80
1, 898474, Control_c, 0, 64, 75
1, 898475, Note_on_c, 0, 55, 40
1, 898489, Control_c, 0, 64, 76
1, 898504, Control_c, 0, 64, 76
1, 898519, Control_c, 0, 64, 77
1, 898534, Control_c, 0, 64, 77
1, 898561, Note_on_c, 0, 90, 82
1, 898563, Control_c, 0, 64, 78
1, 898578, Note_off_c, 0, 91, 61
1, 898607, Control_c, 0, 64, 78
1, 898641, Note_on_c, 0, 91, 73
1, 898650, Note_off_c, 0, 90, 64
1, 898658, Note_on_c, 0, 62, 49
1, 898721, Note_off_c, 0, 91, 54
1, 898722, Note_off_c, 0, 55, 33
1, 898730, Note_on_c, 0, 93, 83
1, 898773, Note_off_c, 0, 93, 59
1, 898800, Note_off_c, 0, 62, 36
1, 898822, Control_c, 0, 64, 76
1, 898837, Control_c, 0, 64, 69
1, 898850, Note_on_c, 0, 93, 85
1, 898852, Control_c, 0, 64, 56
1, 898859, Note_on_c, 0, 48, 59
1, 898867, Control_c, 0, 64, 28
1, 898881, Control_c, 0, 64, 0
1, 898911, Control_c, 0, 64, 32
1, 898926, Control_c, 0, 64, 50
1, 898933, Note_on_c, 0, 91, 82
1, 898941, Control_c, 0, 64, 61
1, 898954, Note_off_c, 0, 93, 63
1, 898955, Control_c, 0, 64, 64
1, 898970, Control_c, 0, 64, 66
1, 898985, Control_c, 0, 64, 68
1, 898999, Control_c, 0, 64, 70
1, 899014, Control_c, 0, 64, 71
1, 899017, Note_off_c, 0, 48, 53
1, 899023, Note_on_c, 0, 88, 85
1, 899029, Note_on_c, 0, 55, 55
1, 899029, Note_off_c, 0, 91, 67
1, 899029, Control_c, 0, 64, 73
1, 899044, Control_c, 0, 64, 74
1, 899059, Control_c, 0, 64, 75
1, 899088, Note_off_c, 0, 88, 66
1, 899111, Note_on_c, 0, 84, 78
1, 899145, Note_off_c, 0, 55, 57
1, 899151, Note_off_c, 0, 84, 63
1, 899209, Note_on_c, 0, 64, 57
1, 899211, Note_on_c, 0, 79, 70
1, 899231, Note_off_c, 0, 79, 73
1, 899252, Control_c, 0, 64, 74
1, 899252, Note_off_c, 0, 64, 56
1, 899282, Control_c, 0, 64, 74
1, 899297, Control_c, 0, 64, 73
1, 899312, Control_c, 0, 64, 73
1, 899327, Control_c, 0, 64, 72
1, 899342, Control_c, 0, 64, 71
1, 899357, Control_c, 0, 64, 69
1, 899371, Control_c, 0, 64, 66
1, 899386, Control_c, 0, 64, 62
1, 899401, Control_c, 0, 64, 57
1, 899415, Note_on_c, 0, 77, 77
1, 899415, Control_c, 0, 64, 52
1, 899416, Note_on_c, 0, 79, 69
1, 899420, Note_on_c, 0, 50, 63
1, 899430, Control_c, 0, 64, 51
1, 899434, Note_off_c, 0, 77, 73
1, 899440, Note_off_c, 0, 79, 71
1, 899497, Control_c, 0, 64, 50
1, 899506, Note_on_c, 0, 79, 81
1, 899511, Note_on_c, 0, 77, 80
1, 899512, Control_c, 0, 64, 49
1, 899526, Note_off_c, 0, 79, 69
1, 899531, Note_off_c, 0, 77, 72
1, 899556, Control_c, 0, 64, 49
1, 899571, Control_c, 0, 64, 48
1, 899591, Note_on_c, 0, 79, 89
1, 899595, Note_off_c, 0, 50, 60
1, 899598, Note_on_c, 0, 77, 86
1, 899601, Note_on_c, 0, 59, 66
1, 899616, Note_off_c, 0, 77, 71
1, 899616, Control_c, 0, 64, 48
1, 899624, Note_off_c, 0, 79, 62
1, 899631, Control_c, 0, 64, 47
1, 899646, Control_c, 0, 64, 46
1, 899661, Control_c, 0, 64, 45
1, 899676, Note_on_c, 0, 79, 75
1, 899676, Control_c, 0, 64, 43
1, 899680, Note_on_c, 0, 77, 87
1, 899690, Control_c, 0, 64, 42
1, 899705, Control_c, 0, 64, 39
1, 899708, Note_off_c, 0, 77, 63
1, 899714, Note_off_c, 0, 79, 64
1, 899720, Control_c, 0, 64, 35
1, 899735, Control_c, 0, 64, 28
1, 899749, Control_c, 0, 64, 0
1, 899762, Note_on_c, 0, 79, 72
1, 899766, Note_on_c, 0, 77, 74
1, 899772, Note_on_c, 0, 65, 62
1, 899792, Note_off_c, 0, 77, 66
1, 899795, Note_off_c, 0, 79, 60
1, 899831, Note_off_c, 0, 59, 61
1, 899853, Note_on_c, 0, 77, 78
1, 899853, Note_on_c, 0, 79, 74
1, 899881, Note_off_c, 0, 79, 62
1, 899885, Note_off_c, 0, 77, 61
1, 899911, Note_off_c, 0, 65, 38
1, 899977, Note_on_c, 0, 52, 47
1, 899985, Note_on_c, 0, 81, 63
1, 899998, Note_on_c, 0, 76, 55
1, 900041, Note_off_c, 0, 76, 61
1, 900073, Note_off_c, 0, 81, 60
1, 900075, Note_on_c, 0, 79, 61
1, 900147, Note_off_c, 0, 79, 63
1, 900169, Note_on_c, 0, 76, 63
1, 900186, Note_on_c, 0, 60, 44
1, 900202, Note_off_c, 0, 76, 63
1, 900227, Note_off_c, 0, 52, 48
1, 900272, Note_on_c, 0, 72, 51
1, 900310, Note_off_c, 0, 72, 57
1, 900370, Note_on_c, 0, 64, 54
1, 900372, Note_on_c, 0, 67, 51
1, 900382, Note_off_c, 0, 60, 59
1, 900396, Note_off_c, 0, 67, 61
1, 900398, Note_off_c, 0, 64, 66
1, 900587, Control_c, 0, 64, 33
1, 900602, Control_c, 0, 64, 45
1, 900617, Control_c, 0, 64, 52
1, 900632, Control_c, 0, 64, 55
1, 900636, Note_on_c, 0, 90, 51
1, 900646, Control_c, 0, 64, 57
1, 900661, Control_c, 0, 64, 59
1, 900676, Control_c, 0, 64, 60
1, 900677, Note_off_c, 0, 90, 62
1, 900680, Note_on_c, 0, 88, 56
1, 900684, Note_on_c, 0, 44, 30
1, 900691, Control_c, 0, 64, 61
1, 900706, Control_c, 0, 64, 62
1, 900720, Control_c, 0, 64, 62
1, 900760, Note_off_c, 0, 88, 61
1, 900779, Control_c, 0, 64, 62
1, 900781, Note_on_c, 0, 87, 51
1, 900794, Control_c, 0, 64, 60
1, 900809, Control_c, 0, 64, 55
1, 900824, Control_c, 0, 64, 43
1, 900839, Control_c, 0, 64, 0
1, 900850, Note_off_c, 0, 87, 62
1, 900874, Note_on_c, 0, 88, 64
1, 900874, Note_off_c, 0, 44, 42
1, 900876, Note_on_c, 0, 52, 41
1, 900939, Note_off_c, 0, 88, 60
1, 900966, Note_on_c, 0, 87, 64
1, 901046, Note_off_c, 0, 87, 63
1, 901054, Note_on_c, 0, 88, 68
1, 901058, Note_on_c, 0, 59, 49
1, 901086, Note_off_c, 0, 52, 36
1, 901113, Note_off_c, 0, 88, 62
1, 901140, Note_on_c, 0, 90, 62
1, 901172, Note_off_c, 0, 90, 66
1, 901217, Control_c, 0, 64, 30
1, 901232, Control_c, 0, 64, 44
1, 901247, Control_c, 0, 64, 52
1, 901253, Note_on_c, 0, 90, 69
1, 901258, Note_on_c, 0, 45, 53
1, 901261, Control_c, 0, 64, 56
1, 901276, Control_c, 0, 64, 59
1, 901284, Note_off_c, 0, 59, 41
1, 901291, Control_c, 0, 64, 61
1, 901306, Control_c, 0, 64, 63
1, 901320, Control_c, 0, 64, 65
1, 901335, Control_c, 0, 64, 66
1, 901342, Note_on_c, 0, 88, 71
1, 901350, Control_c, 0, 64, 67
1, 901365, Note_off_c, 0, 90, 58
1, 901365, Control_c, 0, 64, 68
1, 901380, Control_c, 0, 64, 68
1, 901394, Control_c, 0, 64, 69
1, 901407, Note_off_c, 0, 45, 54
1, 901409, Control_c, 0, 64, 69
1, 901434, Note_on_c, 0, 85, 68
1, 901436, Note_on_c, 0, 52, 53
1, 901446, Note_off_c, 0, 88, 62
1, 901493, Note_off_c, 0, 85, 64
1, 901517, Note_on_c, 0, 81, 60
1, 901547, Note_off_c, 0, 81, 67
1, 901572, Control_c, 0, 64, 69
1, 901587, Control_c, 0, 64, 68
1, 901601, Control_c, 0, 64, 65
1, 901616, Control_c, 0, 64, 59
1, 901623, Note_on_c, 0, 61, 50
1, 901624, Note_on_c, 0, 76, 68
1, 901631, Control_c, 0, 64, 53
1, 901646, Control_c, 0, 64, 49
1, 901647, Note_off_c, 0, 76, 68
1, 901661, Control_c, 0, 64, 46
1, 901667, Note_off_c, 0, 61, 61
1, 901670, Note_off_c, 0, 52, 49
1, 901677, Control_c, 0, 64, 43
1, 901691, Control_c, 0, 64, 42
1, 901843, Note_on_c, 0, 74, 68
1, 901851, Note_on_c, 0, 76, 55
1, 901854, Note_on_c, 0, 47, 53
1, 901869, Note_off_c, 0, 74, 68
1, 901870, Note_off_c, 0, 76, 62
1, 901930, Note_on_c, 0, 76, 79
1, 901936, Note_on_c, 0, 74, 73
1, 901936, Control_c, 0, 64, 43
1, 901950, Note_off_c, 0, 76, 71
1, 901950, Control_c, 0, 64, 43
1, 901957, Note_off_c, 0, 74, 71
1, 901965, Control_c, 0, 64, 44
1, 901995, Control_c, 0, 64, 44
1, 902017, Note_on_c, 0, 56, 60
1, 902022, Note_on_c, 0, 76, 80
1, 902024, Note_off_c, 0, 47, 46
1, 902032, Note_on_c, 0, 74, 75
1, 902045, Note_off_c, 0, 76, 66
1, 902054, Note_off_c, 0, 74, 71
1, 902119, Note_on_c, 0, 74, 81
1, 902119, Note_on_c, 0, 76, 81
1, 902139, Note_off_c, 0, 76, 71
1, 902141, Note_off_c, 0, 74, 67
1, 902206, Note_on_c, 0, 62, 56
1, 902209, Note_on_c, 0, 76, 75
1, 902211, Note_on_c, 0, 74, 76
1, 902228, Note_off_c, 0, 76, 72
1, 902233, Note_off_c, 0, 74, 68
1, 902268, Note_off_c, 0, 56, 56
1, 902297, Note_on_c, 0, 76, 78
1, 902299, Note_on_c, 0, 74, 73
1, 902323, Note_off_c, 0, 74, 69
1, 902329, Note_off_c, 0, 76, 58
1, 902333, Note_off_c, 0, 62, 55
1, 902427, Note_on_c, 0, 78, 62
1, 902436, Note_on_c, 0, 73, 51
1, 902439, Note_on_c, 0, 49, 42
1, 902507, Control_c, 0, 64, 44
1, 902511, Note_off_c, 0, 73, 61
1, 902534, Note_on_c, 0, 76, 65
1, 902537, Note_off_c, 0, 78, 56
1, 902582, Control_c, 0, 64, 43
1, 902597, Control_c, 0, 64, 43
1, 902626, Note_off_c, 0, 76, 63
1, 902627, Control_c, 0, 64, 42
1, 902628, Note_on_c, 0, 73, 65
1, 902645, Note_on_c, 0, 57, 48
1, 902656, Control_c, 0, 64, 42
1, 902660, Note_off_c, 0, 49, 53
1, 902685, Note_off_c, 0, 73, 61
1, 902686, Control_c, 0, 64, 41
1, 902716, Control_c, 0, 64, 41
1, 902728, Note_on_c, 0, 69, 54
1, 902730, Control_c, 0, 64, 40
1, 902745, Control_c, 0, 64, 40
1, 902760, Control_c, 0, 64, 39
1, 902800, Note_off_c, 0, 69, 57
1, 902815, Note_on_c, 0, 64, 58
1, 902830, Note_on_c, 0, 61, 50
1, 902835, Note_off_c, 0, 64, 63
1, 902837, Note_off_c, 0, 57, 63
1, 902862, Note_off_c, 0, 61, 65
1, 902981, Control_c, 0, 64, 40
1, 902996, Control_c, 0, 64, 39
1, 903005, Note_on_c, 0, 79, 67
1, 903010, Note_on_c, 0, 81, 78
1, 903011, Control_c, 0, 64, 34
1, 903014, Note_on_c, 0, 85, 90
1, 903019, Note_on_c, 0, 88, 93
1, 903026, Control_c, 0, 64, 0
1, 903041, Note_off_c, 0, 79, 68
1, 903046, Note_off_c, 0, 81, 67
1, 903051, Note_off_c, 0, 88, 68
1, 903059, Note_off_c, 0, 85, 66
1, 903071, Control_c, 0, 67, 110
1, 903086, Control_c, 0, 67, 0
1, 903217, Note_on_c, 0, 76, 84
1, 903222, Note_on_c, 0, 69, 80
1, 903223, Note_on_c, 0, 67, 83
1, 903224, Note_on_c, 0, 73, 75
1, 903247, Note_off_c, 0, 67, 74
1, 903248, Note_off_c, 0, 69, 72
1, 903254, Note_off_c, 0, 73, 68
1, 903261, Note_off_c, 0, 76, 63
1, 903418, Note_on_c, 0, 64, 74
1, 903420, Note_on_c, 0, 57, 74
1, 903429, Note_on_c, 0, 61, 63
1, 903442, Note_off_c, 0, 64, 71
1, 903454, Note_off_c, 0, 61, 65
1, 903455, Note_off_c, 0, 57, 66
1, 903613, Note_on_c, 0, 57, 92
1, 903615, Note_on_c, 0, 62, 94
1, 903620, Note_on_c, 0, 50, 85
1, 903636, Note_off_c, 0, 62, 70
1, 903637, Note_off_c, 0, 57, 71
1, 903650, Note_off_c, 0, 50, 64
1, 903686, Control_c, 0, 67, 57
1, 903701, Control_c, 0, 67, 104
1, 903715, Control_c, 0, 67, 127
1, 903771, Note_on_c, 0, 66, 69
1, 903776, Note_on_c, 0, 78, 78
1, 903786, Note_on_c, 0, 74, 55
1, 903789, Note_on_c, 0, 69, 36
1, 903796, Note_off_c, 0, 66, 66
1, 903807, Note_off_c, 0, 74, 59
1, 903812, Note_off_c, 0, 78, 62
1, 903822, Note_off_c, 0, 69, 33
1, 903966, Note_on_c, 0, 81, 61
1, 903966, Note_on_c, 0, 86, 76
1, 903983, Note_on_c, 0, 90, 64
1, 903986, Note_on_c, 0, 93, 74
1, 903986, Note_off_c, 0, 86, 73
1, 904000, Note_off_c, 0, 81, 66
1, 904015, Note_off_c, 0, 93, 69
1, 904018, Note_off_c, 0, 90, 66
1, 904210, Note_on_c, 0, 64, 48
1, 904212, Note_on_c, 0, 100, 81
1, 904218, Note_on_c, 0, 52, 46
1, 904222, Note_on_c, 0, 61, 40
1, 904231, Note_on_c, 0, 57, 31
1, 904233, Note_off_c, 0, 64, 59
1, 904240, Note_on_c, 0, 97, 76
1, 904251, Note_off_c, 0, 61, 52
1, 904251, Note_off_c, 0, 52, 62
1, 904266, Note_off_c, 0, 57, 45
1, 904266, Note_off_c, 0, 100, 66
1, 904283, Note_on_c, 0, 93, 79
1, 904294, Note_off_c, 0, 97, 65
1, 904323, Note_off_c, 0, 93, 62
1, 904409, Note_on_c, 0, 97, 86
1, 904415, Note_on_c, 0, 61, 52
1, 904416, Note_on_c, 0, 57, 39
1, 904423, Note_on_c, 0, 64, 46
1, 904425, Note_on_c, 0, 52, 53
1, 904428, Note_on_c, 0, 93, 84
1, 904437, Note_off_c, 0, 61, 62
1, 904442, Note_off_c, 0, 57, 57
1, 904450, Note_off_c, 0, 64, 58
1, 904454, Note_off_c, 0, 52, 63
1, 904464, Note_off_c, 0, 97, 64
1, 904481, Note_off_c, 0, 93, 62
1, 904486, Note_on_c, 0, 88, 75
1, 904506, Note_off_c, 0, 88, 72
1, 904597, Note_on_c, 0, 93, 71
1, 904615, Note_on_c, 0, 88, 70
1, 904629, Note_on_c, 0, 91, 42
1, 904648, Note_off_c, 0, 93, 63
1, 904653, Note_off_c, 0, 91, 53
1, 904674, Note_off_c, 0, 88, 67
1, 904679, Note_on_c, 0, 85, 69
1, 904701, Note_off_c, 0, 85, 69
1, 904789, Note_on_c, 0, 88, 89
1, 904803, Note_on_c, 0, 59, 61
1, 904808, Note_on_c, 0, 52, 61
1, 904809, Note_on_c, 0, 86, 82
1, 904813, Note_on_c, 0, 64, 49
1, 904821, Note_on_c, 0, 62, 38
1, 904830, Note_off_c, 0, 59, 66
1, 904844, Note_off_c, 0, 88, 67
1, 904845, Note_off_c, 0, 52, 60
1, 904847, Note_off_c, 0, 64, 50
1, 904850, Note_off_c, 0, 62, 52
1, 904865, Note_off_c, 0, 86, 66
1, 904865, Note_on_c, 0, 83, 74
1, 904888, Note_off_c, 0, 83, 69
1, 904978, Note_on_c, 0, 86, 83
1, 904991, Note_on_c, 0, 59, 62
1, 904994, Note_on_c, 0, 52, 69
1, 904998, Note_on_c, 0, 64, 55
1, 905008, Note_on_c, 0, 62, 56
1, 905013, Note_on_c, 0, 83, 74
1, 905026, Note_off_c, 0, 59, 67
1, 905030, Note_off_c, 0, 62, 61
1, 905032, Note_off_c, 0, 52, 65
1, 905032, Note_off_c, 0, 64, 66
1, 905047, Note_off_c, 0, 86, 65
1, 905067, Note_off_c, 0, 83, 65
1, 905071, Note_on_c, 0, 80, 74
1, 905095, Note_off_c, 0, 80, 65
1, 905163, Note_on_c, 0, 83, 81
1, 905178, Note_on_c, 0, 80, 83
1, 905202, Note_off_c, 0, 83, 66
1, 905228, Note_off_c, 0, 80, 61
1, 905232, Note_on_c, 0, 76, 64
1, 905255, Note_off_c, 0, 76, 66
1, 905360, Control_c, 0, 67, 117
1, 905375, Control_c, 0, 67, 0
1, 905378, Note_on_c, 0, 76, 80
1, 905379, Note_on_c, 0, 73, 80
1, 905380, Note_on_c, 0, 69, 87
1, 905384, Note_on_c, 0, 67, 94
1, 905411, Note_off_c, 0, 67, 65
1, 905414, Note_off_c, 0, 69, 64
1, 905417, Note_off_c, 0, 76, 66
1, 905423, Note_off_c, 0, 73, 64
1, 905590, Note_on_c, 0, 64, 84
1, 905593, Note_on_c, 0, 57, 77
1, 905593, Note_on_c, 0, 55, 82
1, 905594, Note_on_c, 0, 61, 74
1, 905615, Note_off_c, 0, 55, 68
1, 905618, Note_off_c, 0, 57, 67
1, 905626, Note_off_c, 0, 61, 66
1, 905630, Note_off_c, 0, 64, 66
1, 905786, Note_on_c, 0, 52, 89
1, 905788, Note_on_c, 0, 45, 78
1, 905789, Note_on_c, 0, 49, 84
1, 905810, Note_off_c, 0, 52, 70
1, 905811, Note_off_c, 0, 49, 69
1, 905817, Note_off_c, 0, 45, 68
1, 905888, Control_c, 0, 64, 27
1, 905974, Note_on_c, 0, 50, 100
1, 905976, Note_on_c, 0, 45, 95
1, 905977, Note_on_c, 0, 38, 97
1, 905994, Note_off_c, 0, 50, 71
1, 905998, Note_off_c, 0, 45, 70
1, 906013, Note_off_c, 0, 38, 63
1, 906065, Control_c, 0, 67, 52
1, 906080, Control_c, 0, 64, 0
1, 906080, Control_c, 0, 67, 92
1, 906095, Control_c, 0, 67, 105
1, 906109, Control_c, 0, 67, 109
1, 906124, Control_c, 0, 67, 112
1, 906139, Control_c, 0, 67, 121
1, 906151, Note_on_c, 0, 66, 80
1, 906154, Control_c, 0, 67, 127
1, 906155, Note_on_c, 0, 54, 49
1, 906155, Note_off_c, 0, 54, 127
1, 906178, Note_off_c, 0, 66, 68
1, 906228, Control_c, 0, 64, 27
1, 906265, Control_c, 0, 64, 29
1, 906351, Note_on_c, 0, 74, 65
1, 906360, Note_on_c, 0, 69, 42
1, 906368, Note_on_c, 0, 78, 51
1, 906368, Note_on_c, 0, 81, 72
1, 906378, Note_off_c, 0, 74, 66
1, 906388, Note_off_c, 0, 69, 55
1, 906389, Note_off_c, 0, 78, 59
1, 906392, Note_off_c, 0, 81, 69
1, 906610, Note_on_c, 0, 88, 71
1, 906612, Note_on_c, 0, 64, 54
1, 906632, Note_on_c, 0, 52, 48
1, 906641, Note_on_c, 0, 57, 25
1, 906642, Note_on_c, 0, 61, 25
1, 906645, Note_off_c, 0, 64, 63
1, 906648, Note_on_c, 0, 85, 68
1, 906665, Note_off_c, 0, 88, 65
1, 906669, Note_off_c, 0, 52, 62
1, 906674, Note_off_c, 0, 57, 43
1, 906681, Note_off_c, 0, 61, 42
1, 906688, Note_off_c, 0, 85, 64
1, 906693, Note_on_c, 0, 81, 61
1, 906719, Note_off_c, 0, 81, 66
1, 906800, Control_c, 0, 64, 0
1, 906821, Note_on_c, 0, 85, 75
1, 906833, Note_on_c, 0, 64, 64
1, 906834, Note_on_c, 0, 61, 55
1, 906837, Note_on_c, 0, 57, 41
1, 906842, Note_on_c, 0, 52, 52
1, 906850, Note_on_c, 0, 81, 65
1, 906860, Note_off_c, 0, 64, 66
1, 906863, Note_off_c, 0, 61, 66
1, 906864, Note_off_c, 0, 57, 60
1, 906872, Note_off_c, 0, 52, 63
1, 906874, Note_off_c, 0, 85, 64
1, 906893, Note_off_c, 0, 81, 66
1, 906904, Note_on_c, 0, 76, 60
1, 906931, Note_off_c, 0, 76, 67
1, 907026, Note_on_c, 0, 81, 77
1, 907049, Note_on_c, 0, 76, 64
1, 907080, Note_off_c, 0, 81, 63
1, 907104, Note_off_c, 0, 76, 65
1, 907112, Note_on_c, 0, 73, 68
1, 907135, Note_off_c, 0, 73, 69
1, 907211, Note_on_c, 0, 76, 90
1, 907232, Note_on_c, 0, 52, 60
1, 907235, Note_on_c, 0, 59, 56
1, 907238, Note_on_c, 0, 64, 54
1, 907244, Note_on_c, 0, 74, 80
1, 907250, Note_on_c, 0, 62, 46
1, 907260, Note_off_c, 0, 59, 62
1, 907272, Note_off_c, 0, 76, 65
1, 907273, Note_off_c, 0, 52, 62
1, 907274, Note_off_c, 0, 64, 55
1, 907278, Note_off_c, 0, 62, 56
1, 907287, Note_on_c, 0, 71, 77
1, 907293, Note_off_c, 0, 74, 66
1, 907312, Note_off_c, 0, 71, 66
1, 907399, Note_on_c, 0, 74, 90
1, 907413, Note_on_c, 0, 59, 74
1, 907420, Note_on_c, 0, 64, 66
1, 907420, Note_on_c, 0, 52, 67
1, 907429, Note_on_c, 0, 62, 51
1, 907444, Note_on_c, 0, 71, 67
1, 907444, Note_off_c, 0, 59, 68
1, 907446, Note_off_c, 0, 64, 66
1, 907452, Note_off_c, 0, 62, 58
1, 907454, Note_off_c, 0, 52, 65
1, 907470, Note_off_c, 0, 74, 64
1, 907493, Note_off_c, 0, 71, 63
1, 907498, Note_on_c, 0, 68, 75
1, 907530, Note_off_c, 0, 68, 64
1, 907590, Note_on_c, 0, 71, 80
1, 907632, Note_on_c, 0, 68, 67
1, 907639, Note_off_c, 0, 71, 62
1, 907665, Note_off_c, 0, 68, 65
1, 907670, Note_on_c, 0, 64, 68
1, 907700, Note_off_c, 0, 64, 67
1, 907770, Note_on_c, 0, 57, 83
1, 907792, Control_c, 0, 64, 34
1, 907792, Control_c, 0, 67, 71
1, 907793, Note_on_c, 0, 69, 67
1, 907799, Note_on_c, 0, 67, 68
1, 907807, Control_c, 0, 64, 116
1, 907807, Control_c, 0, 67, 0
1, 907816, Note_on_c, 0, 64, 72
1, 907820, Note_off_c, 0, 67, 63
1, 907822, Control_c, 0, 64, 127
1, 907832, Note_on_c, 0, 52, 72
1, 907848, Note_off_c, 0, 69, 62
1, 907852, Note_off_c, 0, 57, 62
1, 907867, Note_on_c, 0, 49, 85
1, 907879, Note_off_c, 0, 64, 65
1, 907881, Note_on_c, 0, 61, 79
1, 907883, Note_off_c, 0, 52, 63
1, 907909, Note_off_c, 0, 61, 67
1, 907915, Note_off_c, 0, 49, 62
1, 907940, Control_c, 0, 64, 72
1, 907955, Control_c, 0, 64, 0
1, 907974, Note_on_c, 0, 52, 84
1, 907980, Note_on_c, 0, 64, 87
1, 907998, Note_on_c, 0, 61, 72
1, 908014, Control_c, 0, 64, 60
1, 908022, Note_off_c, 0, 64, 66
1, 908029, Note_on_c, 0, 49, 84
1, 908029, Control_c, 0, 64, 127
1, 908053, Note_off_c, 0, 52, 60
1, 908055, Note_off_c, 0, 61, 63
1, 908059, Note_on_c, 0, 57, 57
1, 908078, Note_on_c, 0, 45, 77
1, 908085, Note_off_c, 0, 57, 67
1, 908091, Note_off_c, 0, 49, 65
1, 908109, Note_off_c, 0, 45, 66
1, 908192, Control_c, 0, 64, 99
1, 908206, Note_on_c, 0, 45, 81
1, 908207, Note_on_c, 0, 57, 70
1, 908207, Control_c, 0, 64, 59
1, 908222, Control_c, 0, 64, 0
1, 908237, Note_on_c, 0, 43, 44
1, 908237, Control_c, 0, 64, 40
1, 908252, Control_c, 0, 64, 86
1, 908258, Note_on_c, 0, 52, 73
1, 908267, Note_off_c, 0, 45, 62
1, 908267, Control_c, 0, 64, 127
1, 908269, Note_on_c, 0, 40, 75
1, 908278, Note_off_c, 0, 43, 47
1, 908284, Note_off_c, 0, 57, 64
1, 908316, Note_on_c, 0, 49, 84
1, 908321, Note_on_c, 0, 37, 81
1, 908322, Note_off_c, 0, 52, 65
1, 908329, Note_off_c, 0, 40, 62
1, 908365, Note_off_c, 0, 49, 63
1, 908371, Control_c, 0, 64, 116
1, 908380, Note_off_c, 0, 37, 62
1, 908385, Control_c, 0, 64, 65
1, 908400, Control_c, 0, 64, 0
1, 908445, Control_c, 0, 64, 63
1, 908448, Note_on_c, 0, 45, 98
1, 908454, Note_on_c, 0, 33, 103
1, 908459, Control_c, 0, 64, 85
1, 908474, Control_c, 0, 64, 127
1, 908490, Note_off_c, 0, 45, 64
1, 908532, Note_off_c, 0, 33, 64
1, 908659, Control_c, 0, 64, 101
1, 908674, Control_c, 0, 64, 90
1, 908689, Control_c, 0, 64, 81
1, 908703, Control_c, 0, 64, 73
1, 908718, Control_c, 0, 64, 66
1, 908733, Control_c, 0, 64, 59
1, 908748, Control_c, 0, 64, 46
1, 908763, Control_c, 0, 64, 0
1, 909320, Control_c, 0, 67, 33
1, 909334, Control_c, 0, 67, 57
1, 909349, Control_c, 0, 67, 83
1, 909364, Control_c, 0, 67, 105
1, 909379, Control_c, 0, 67, 123
1, 909394, Control_c, 0, 67, 127
1, 909688, Note_on_c, 0, 66, 46
1, 909698, Note_on_c, 0, 57, 36
1, 909713, Note_on_c, 0, 62, 34
1, 909723, Note_on_c, 0, 50, 37
1, 909792, Note_off_c, 0, 50, 63
1, 910100, Note_on_c, 0, 74, 58
1, 910201, Note_off_c, 0, 74, 63
1, 910305, Control_c, 0, 64, 39
1, 910320, Control_c, 0, 64, 55
1, 910335, Control_c, 0, 64, 61
1, 910350, Control_c, 0, 64, 64
1, 910365, Control_c, 0, 64, 66
1, 910380, Control_c, 0, 64, 68
1, 910395, Control_c, 0, 64, 72
1, 910410, Control_c, 0, 64, 74
1, 910422, Note_off_c, 0, 62, 40
1, 910424, Note_off_c, 0, 66, 62
1, 910425, Control_c, 0, 64, 77
1, 910436, Note_off_c, 0, 57, 48
1, 910439, Control_c, 0, 64, 79
1, 910455, Control_c, 0, 64, 81
1, 910469, Control_c, 0, 64, 83
1, 910484, Control_c, 0, 64, 84
1, 910499, Control_c, 0, 64, 85
1, 910686, Note_on_c, 0, 67, 53
1, 910692, Control_c, 0, 64, 84
1, 910696, Note_on_c, 0, 50, 44
1, 910706, Note_on_c, 0, 59, 42
1, 910706, Control_c, 0, 64, 84
1, 910713, Note_on_c, 0, 62, 35
1, 910721, Control_c, 0, 64, 81
1, 910744, Note_off_c, 0, 50, 63
1, 910744, Control_c, 0, 64, 77
1, 910759, Control_c, 0, 64, 71
1, 910773, Control_c, 0, 64, 63
1, 910788, Control_c, 0, 64, 47
1, 910803, Control_c, 0, 64, 0
1, 911082, Note_on_c, 0, 74, 62
1, 911183, Note_off_c, 0, 74, 62
1, 911263, Control_c, 0, 64, 37
1, 911277, Control_c, 0, 64, 53
1, 911292, Control_c, 0, 64, 61
1, 911307, Control_c, 0, 64, 63
1, 911322, Control_c, 0, 64, 65
1, 911337, Control_c, 0, 64, 66
1, 911352, Control_c, 0, 64, 69
1, 911367, Control_c, 0, 64, 72
1, 911382, Control_c, 0, 64, 75
1, 911388, Note_off_c, 0, 62, 53
1, 911396, Control_c, 0, 64, 78
1, 911411, Control_c, 0, 64, 80
1, 911414, Note_off_c, 0, 59, 64
1, 911423, Note_off_c, 0, 67, 48
1, 911426, Control_c, 0, 64, 82
1, 911441, Control_c, 0, 64, 83
1, 911456, Control_c, 0, 64, 84
1, 911477, Control_c, 0, 64, 84
1, 911492, Control_c, 0, 64, 85
1, 911507, Control_c, 0, 64, 85
1, 911522, Control_c, 0, 64, 86
1, 911537, Control_c, 0, 64, 86
1, 911596, Control_c, 0, 64, 87
1, 911655, Control_c, 0, 64, 85
1, 911670, Control_c, 0, 64, 78
1, 911684, Control_c, 0, 64, 66
1, 911686, Note_on_c, 0, 67, 52
1, 911690, Note_on_c, 0, 59, 41
1, 911691, Note_on_c, 0, 50, 48
1, 911699, Control_c, 0, 64, 49
1, 911708, Note_on_c, 0, 62, 39
1, 911714, Control_c, 0, 64, 32
1, 911728, Control_c, 0, 64, 38
1, 911743, Note_off_c, 0, 50, 63
1, 911743, Control_c, 0, 64, 50
1, 911758, Control_c, 0, 64, 60
1, 911773, Control_c, 0, 64, 67
1, 911788, Control_c, 0, 64, 73
1, 911802, Control_c, 0, 64, 78
1, 911816, Note_off_c, 0, 67, 62
1, 911817, Control_c, 0, 64, 83
1, 911832, Control_c, 0, 64, 88
1, 911847, Control_c, 0, 64, 93
1, 911862, Control_c, 0, 64, 98
1, 911876, Control_c, 0, 64, 103
1, 911882, Note_off_c, 0, 59, 59
1, 911891, Control_c, 0, 64, 107
1, 911906, Control_c, 0, 64, 112
1, 911921, Control_c, 0, 64, 127
1, 911981, Control_c, 0, 64, 94
1, 911996, Control_c, 0, 64, 72
1, 911999, Note_on_c, 0, 66, 67
1, 912001, Note_on_c, 0, 74, 65
1, 912010, Control_c, 0, 64, 57
1, 912021, Note_on_c, 0, 57, 53
1, 912025, Control_c, 0, 64, 53
1, 912037, Note_off_c, 0, 74, 60
1, 912040, Control_c, 0, 64, 58
1, 912055, Control_c, 0, 64, 63
1, 912070, Control_c, 0, 64, 68
1, 912082, Note_off_c, 0, 62, 43
1, 912085, Control_c, 0, 64, 75
1, 912100, Control_c, 0, 64, 82
1, 912115, Control_c, 0, 64, 88
1, 912130, Control_c, 0, 64, 97
1, 912132, Note_on_c, 0, 76, 77
1, 912142, Note_off_c, 0, 57, 59
1, 912145, Control_c, 0, 64, 107
1, 912159, Control_c, 0, 64, 127
1, 912176, Note_off_c, 0, 66, 60
1, 912191, Note_off_c, 0, 76, 62
1, 912270, Control_c, 0, 64, 84
1, 912274, Note_on_c, 0, 62, 71
1, 912277, Note_on_c, 0, 78, 75
1, 912285, Control_c, 0, 64, 60
1, 912287, Note_on_c, 0, 57, 50
1, 912300, Control_c, 0, 64, 35
1, 912302, Note_on_c, 0, 54, 53
1, 912330, Control_c, 0, 64, 52
1, 912341, Note_off_c, 0, 78, 59
1, 912345, Control_c, 0, 64, 64
1, 912356, Note_off_c, 0, 62, 64
1, 912359, Control_c, 0, 64, 70
1, 912365, Note_off_c, 0, 57, 62
1, 912374, Control_c, 0, 64, 76
1, 912389, Control_c, 0, 64, 81
1, 912398, Note_off_c, 0, 54, 62
1, 912404, Control_c, 0, 64, 87
1, 912408, Note_on_c, 0, 79, 68
1, 912419, Control_c, 0, 64, 94
1, 912434, Control_c, 0, 64, 101
1, 912449, Control_c, 0, 64, 106
1, 912478, Note_off_c, 0, 79, 54
1, 912597, Control_c, 0, 64, 100
1, 912607, Note_on_c, 0, 81, 59
1, 912610, Note_on_c, 0, 61, 44
1, 912612, Control_c, 0, 64, 95
1, 912620, Note_on_c, 0, 52, 47
1, 912622, Note_on_c, 0, 57, 43
1, 912626, Control_c, 0, 64, 89
1, 912639, Note_off_c, 0, 81, 64
1, 912641, Control_c, 0, 64, 82
1, 912656, Control_c, 0, 64, 75
1, 912671, Control_c, 0, 64, 68
1, 912685, Control_c, 0, 64, 60
1, 912700, Control_c, 0, 64, 51
1, 912715, Control_c, 0, 64, 41
1, 912730, Control_c, 0, 64, 0
1, 912991, Note_on_c, 0, 45, 60
1, 913035, Note_off_c, 0, 45, 60
1, 913121, Note_on_c, 0, 43, 72
1, 913194, Note_off_c, 0, 43, 61
1, 913266, Note_on_c, 0, 42, 74
1, 913273, Note_off_c, 0, 57, 64
1, 913277, Note_off_c, 0, 52, 61
1, 913340, Note_off_c, 0, 42, 63
1, 913350, Note_off_c, 0, 61, 64
1, 913388, Note_on_c, 0, 40, 72
1, 913499, Note_off_c, 0, 40, 56
1, 913570, Note_on_c, 0, 66, 67
1, 913574, Note_on_c, 0, 38, 63
1, 913582, Note_on_c, 0, 62, 53
1, 913590, Note_on_c, 0, 57, 51
1, 913603, Note_off_c, 0, 38, 64
1, 913929, Note_on_c, 0, 74, 62
1, 914011, Note_off_c, 0, 74, 64
1, 914094, Control_c, 0, 64, 33
1, 914109, Control_c, 0, 64, 49
1, 914124, Control_c, 0, 64, 61
1, 914139, Control_c, 0, 64, 64
1, 914154, Control_c, 0, 64, 67
1, 914169, Control_c, 0, 64, 69
1, 914184, Control_c, 0, 64, 72
1, 914198, Control_c, 0, 64, 75
1, 914213, Control_c, 0, 64, 78
1, 914223, Note_off_c, 0, 57, 54
1, 914224, Note_off_c, 0, 62, 54
1, 914228, Control_c, 0, 64, 82
1, 914243, Control_c, 0, 64, 84
1, 914243, Note_off_c, 0, 66, 61
1, 914257, Control_c, 0, 64, 87
1, 914272, Control_c, 0, 64, 89
1, 914287, Control_c, 0, 64, 91
1, 914302, Control_c, 0, 64, 92
1, 914316, Control_c, 0, 64, 93
1, 914331, Control_c, 0, 64, 93
1, 914532, Control_c, 0, 64, 93
1, 914562, Control_c, 0, 64, 92
1, 914577, Control_c, 0, 64, 92
1, 914592, Control_c, 0, 64, 91
1, 914607, Control_c, 0, 64, 90
1, 914618, Note_on_c, 0, 67, 53
1, 914622, Control_c, 0, 64, 89
1, 914628, Note_on_c, 0, 62, 43
1, 914630, Note_on_c, 0, 50, 42
1, 914633, Note_on_c, 0, 58, 44
1, 914636, Control_c, 0, 64, 87
1, 914651, Control_c, 0, 64, 85
1, 914666, Control_c, 0, 64, 81
1, 914680, Control_c, 0, 64, 77
1, 914689, Note_off_c, 0, 50, 60
1, 914695, Control_c, 0, 64, 71
1, 914710, Control_c, 0, 64, 64
1, 914725, Control_c, 0, 64, 56
1, 914740, Control_c, 0, 64, 44
1, 914754, Control_c, 0, 64, 0
1, 915002, Note_on_c, 0, 74, 58
1, 915090, Note_off_c, 0, 74, 62
1, 915184, Control_c, 0, 64, 47
1, 915199, Control_c, 0, 64, 59
1, 915214, Control_c, 0, 64, 64
1, 915236, Control_c, 0, 64, 66
1, 915251, Control_c, 0, 64, 68
1, 915266, Control_c, 0, 64, 70
1, 915281, Control_c, 0, 64, 73
1, 915296, Control_c, 0, 64, 76
1, 915307, Note_off_c, 0, 62, 59
1, 915310, Control_c, 0, 64, 79
1, 915325, Control_c, 0, 64, 81
1, 915336, Note_off_c, 0, 58, 37
1, 915340, Control_c, 0, 64, 82
1, 915355, Control_c, 0, 64, 84
1, 915370, Control_c, 0, 64, 84
1, 915385, Control_c, 0, 64, 85
1, 915385, Note_off_c, 0, 67, 38
1, 915400, Control_c, 0, 64, 85
1, 915607, Control_c, 0, 64, 85
1, 915637, Control_c, 0, 64, 84
1, 915651, Control_c, 0, 64, 83
1, 915666, Control_c, 0, 64, 82
1, 915681, Control_c, 0, 64, 79
1, 915695, Control_c, 0, 64, 71
1, 915696, Note_on_c, 0, 45, 40
1, 915696, Note_on_c, 0, 66, 40
1, 915697, Note_on_c, 0, 62, 29
1, 915709, Note_on_c, 0, 57, 34
1, 915710, Control_c, 0, 64, 62
1, 915725, Control_c, 0, 64, 44
1, 915740, Control_c, 0, 64, 0
1, 915769, Control_c, 0, 64, 33
1, 915784, Control_c, 0, 64, 45
1, 915796, Note_off_c, 0, 45, 63
1, 915799, Control_c, 0, 64, 59
1, 915814, Control_c, 0, 64, 66
1, 915829, Control_c, 0, 64, 70
1, 915844, Control_c, 0, 64, 73
1, 915859, Control_c, 0, 64, 76
1, 915874, Control_c, 0, 64, 79
1, 915889, Control_c, 0, 64, 82
1, 915897, Note_off_c, 0, 57, 43
1, 915903, Control_c, 0, 64, 84
1, 915904, Note_off_c, 0, 66, 56
1, 915918, Control_c, 0, 64, 87
1, 915933, Control_c, 0, 64, 89
1, 915948, Control_c, 0, 64, 90
1, 915963, Control_c, 0, 64, 91
1, 915984, Control_c, 0, 64, 91
1, 915999, Control_c, 0, 64, 92
1, 916045, Control_c, 0, 64, 92
1, 916060, Control_c, 0, 64, 93
1, 916074, Control_c, 0, 64, 93
1, 916104, Control_c, 0, 64, 93
1, 916118, Control_c, 0, 64, 90
1, 916129, Note_on_c, 0, 81, 63
1, 916133, Control_c, 0, 64, 81
1, 916140, Note_on_c, 0, 66, 44
1, 916148, Control_c, 0, 64, 71
1, 916149, Note_on_c, 0, 69, 44
1, 916163, Note_on_c, 0, 57, 39
1, 916163, Control_c, 0, 64, 64
1, 916175, Note_off_c, 0, 62, 44
1, 916178, Control_c, 0, 64, 62
1, 916181, Note_off_c, 0, 81, 58
1, 916193, Control_c, 0, 64, 64
1, 916208, Control_c, 0, 64, 66
1, 916223, Control_c, 0, 64, 69
1, 916237, Control_c, 0, 64, 71
1, 916252, Control_c, 0, 64, 74
1, 916267, Control_c, 0, 64, 78
1, 916268, Note_off_c, 0, 57, 47
1, 916275, Note_on_c, 0, 81, 81
1, 916275, Note_off_c, 0, 69, 38
1, 916282, Control_c, 0, 64, 84
1, 916297, Control_c, 0, 64, 90
1, 916312, Control_c, 0, 64, 92
1, 916326, Control_c, 0, 64, 92
1, 916341, Control_c, 0, 67, 121
1, 916343, Note_off_c, 0, 81, 59
1, 916356, Control_c, 0, 64, 91
1, 916356, Control_c, 0, 67, 110
1, 916371, Control_c, 0, 64, 84
1, 916371, Control_c, 0, 67, 100
1, 916386, Control_c, 0, 64, 72
1, 916386, Control_c, 0, 67, 92
1, 916400, Control_c, 0, 64, 59
1, 916400, Control_c, 0, 67, 83
1, 916415, Control_c, 0, 64, 41
1, 916415, Control_c, 0, 67, 71
1, 916416, Note_on_c, 0, 83, 80
1, 916426, Note_off_c, 0, 66, 39
1, 916429, Note_on_c, 0, 67, 47
1, 916430, Control_c, 0, 64, 38
1, 916430, Control_c, 0, 67, 54
1, 916437, Note_on_c, 0, 64, 44
1, 916442, Note_on_c, 0, 57, 31
1, 916444, Control_c, 0, 64, 44
1, 916444, Control_c, 0, 67, 0
1, 916459, Control_c, 0, 64, 54
1, 916474, Control_c, 0, 64, 61
1, 916489, Control_c, 0, 64, 64
1, 916496, Note_off_c, 0, 83, 63
1, 916504, Control_c, 0, 64, 68
1, 916518, Control_c, 0, 64, 72
1, 916525, Note_off_c, 0, 64, 60
1, 916533, Control_c, 0, 64, 76
1, 916548, Control_c, 0, 64, 78
1, 916557, Note_on_c, 0, 85, 77
1, 916563, Control_c, 0, 64, 80
1, 916578, Control_c, 0, 64, 82
1, 916581, Note_off_c, 0, 57, 33
1, 916592, Control_c, 0, 64, 83
1, 916604, Note_off_c, 0, 67, 38
1, 916607, Control_c, 0, 64, 84
1, 916622, Control_c, 0, 64, 85
1, 916644, Note_off_c, 0, 85, 54
1, 916729, Note_on_c, 0, 86, 67
1, 916740, Note_on_c, 0, 66, 47
1, 916748, Control_c, 0, 64, 83
1, 916753, Note_on_c, 0, 57, 37
1, 916759, Note_on_c, 0, 62, 44
1, 916761, Note_off_c, 0, 86, 66
1, 916763, Control_c, 0, 64, 79
1, 916778, Control_c, 0, 64, 73
1, 916793, Control_c, 0, 64, 66
1, 916807, Control_c, 0, 64, 59
1, 916822, Control_c, 0, 64, 51
1, 916837, Control_c, 0, 64, 43
1, 916853, Control_c, 0, 64, 33
1, 916868, Control_c, 0, 64, 0
1, 916868, Control_c, 0, 67, 35
1, 916882, Control_c, 0, 67, 54
1, 916897, Control_c, 0, 67, 71
1, 916912, Control_c, 0, 67, 86
1, 916927, Control_c, 0, 67, 95
1, 916941, Control_c, 0, 67, 98
1, 917046, Note_on_c, 0, 45, 75
1, 917100, Note_off_c, 0, 45, 60
1, 917149, Control_c, 0, 67, 95
1, 917194, Note_on_c, 0, 45, 76
1, 917254, Note_off_c, 0, 45, 58
1, 917327, Control_c, 0, 67, 97
1, 917353, Note_on_c, 0, 47, 71
1, 917401, Control_c, 0, 67, 99
1, 917402, Note_off_c, 0, 62, 62
1, 917420, Note_off_c, 0, 47, 62
1, 917482, Control_c, 0, 67, 102
1, 917509, Note_off_c, 0, 57, 56
1, 917515, Note_on_c, 0, 49, 68
1, 917516, Note_off_c, 0, 66, 61
1, 917540, Control_c, 0, 67, 108
1, 917555, Control_c, 0, 67, 119
1, 917570, Control_c, 0, 67, 124
1, 917585, Control_c, 0, 67, 126
1, 917588, Note_off_c, 0, 49, 60
1, 917713, Note_on_c, 0, 50, 53
1, 917717, Note_on_c, 0, 66, 60
1, 917735, Note_on_c, 0, 62, 49
1, 917737, Note_on_c, 0, 57, 43
1, 917751, Note_off_c, 0, 50, 63
1, 917793, Control_c, 0, 67, 124
1, 917956, Control_c, 0, 67, 122
1, 918083, Note_on_c, 0, 74, 60
1, 918170, Note_off_c, 0, 74, 63
1, 918208, Control_c, 0, 64, 36
1, 918229, Control_c, 0, 64, 52
1, 918244, Control_c, 0, 64, 62
1, 918259, Control_c, 0, 64, 66
1, 918274, Control_c, 0, 64, 68
1, 918289, Control_c, 0, 64, 70
1, 918303, Control_c, 0, 64, 73
1, 918318, Control_c, 0, 64, 77
1, 918333, Control_c, 0, 64, 82
1, 918348, Control_c, 0, 64, 86
1, 918363, Note_off_c, 0, 62, 54
1, 918363, Control_c, 0, 64, 89
1, 918363, Control_c, 0, 67, 124
1, 918378, Control_c, 0, 64, 92
1, 918389, Note_off_c, 0, 57, 59
1, 918393, Control_c, 0, 64, 95
1, 918402, Note_off_c, 0, 66, 62
1, 918408, Control_c, 0, 64, 97
1, 918422, Control_c, 0, 64, 100
1, 918453, Control_c, 0, 64, 103
1, 918527, Control_c, 0, 64, 105
1, 918705, Control_c, 0, 64, 102
1, 918719, Control_c, 0, 64, 100
1, 918727, Note_on_c, 0, 67, 64
1, 918734, Control_c, 0, 64, 96
1, 918735, Note_on_c, 0, 62, 48
1, 918739, Note_on_c, 0, 50, 47
1, 918745, Note_on_c, 0, 59, 51
1, 918749, Control_c, 0, 64, 91
1, 918764, Control_c, 0, 64, 86
1, 918776, Note_off_c, 0, 50, 64
1, 918779, Control_c, 0, 64, 80
1, 918793, Control_c, 0, 64, 73
1, 918808, Control_c, 0, 64, 65
1, 918823, Control_c, 0, 64, 54
1, 918837, Control_c, 0, 64, 39
1, 918852, Control_c, 0, 64, 0
1, 919091, Note_on_c, 0, 74, 65
1, 919168, Note_off_c, 0, 74, 62
1, 919201, Control_c, 0, 67, 126
1, 919231, Control_c, 0, 64, 29
1, 919247, Control_c, 0, 64, 45
1, 919262, Control_c, 0, 64, 57
1, 919276, Control_c, 0, 64, 62
1, 919291, Control_c, 0, 64, 65
1, 919306, Control_c, 0, 64, 68
1, 919321, Control_c, 0, 64, 71
1, 919336, Control_c, 0, 64, 75
1, 919350, Control_c, 0, 64, 80
1, 919365, Control_c, 0, 64, 85
1, 919380, Control_c, 0, 64, 89
1, 919391, Note_off_c, 0, 62, 62
1, 919395, Control_c, 0, 64, 92
1, 919410, Control_c, 0, 64, 95
1, 919413, Note_off_c, 0, 67, 52
1, 919424, Note_off_c, 0, 59, 63
1, 919424, Control_c, 0, 64, 98
1, 919439, Control_c, 0, 64, 101
1, 919454, Control_c, 0, 64, 103
1, 919484, Control_c, 0, 64, 106
1, 919513, Control_c, 0, 64, 108
1, 919728, Control_c, 0, 64, 105
1, 919743, Control_c, 0, 64, 100
1, 919755, Note_on_c, 0, 67, 57
1, 919758, Control_c, 0, 64, 90
1, 919771, Note_on_c, 0, 50, 47
1, 919773, Control_c, 0, 64, 74
1, 919776, Note_on_c, 0, 62, 42
1, 919781, Note_on_c, 0, 59, 45
1, 919787, Control_c, 0, 64, 62
1, 919802, Control_c, 0, 64, 50
1, 919817, Control_c, 0, 64, 50
1, 919832, Control_c, 0, 64, 55
1, 919836, Note_off_c, 0, 50, 61
1, 919847, Control_c, 0, 64, 62
1, 919861, Control_c, 0, 64, 68
1, 919876, Control_c, 0, 64, 81
1, 919891, Control_c, 0, 64, 91
1, 919906, Control_c, 0, 64, 97
1, 919921, Control_c, 0, 64, 103
1, 919923, Note_off_c, 0, 67, 62
1, 919935, Control_c, 0, 64, 111
1, 919950, Control_c, 0, 64, 127
1, 919965, Control_c, 0, 67, 124
1, 919975, Note_off_c, 0, 59, 60
1, 920082, Note_on_c, 0, 66, 76
1, 920085, Control_c, 0, 64, 84
1, 920086, Note_on_c, 0, 74, 63
1, 920095, Note_on_c, 0, 57, 59
1, 920099, Control_c, 0, 64, 64
1, 920114, Control_c, 0, 64, 45
1, 920121, Note_off_c, 0, 74, 62
1, 920129, Control_c, 0, 64, 34
1, 920144, Note_off_c, 0, 62, 18
1, 920144, Control_c, 0, 64, 38
1, 920159, Control_c, 0, 64, 51
1, 920173, Control_c, 0, 64, 62
1, 920173, Control_c, 0, 67, 122
1, 920188, Control_c, 0, 64, 72
1, 920203, Control_c, 0, 64, 80
1, 920218, Control_c, 0, 64, 85
1, 920225, Note_on_c, 0, 76, 73
1, 920233, Control_c, 0, 64, 90
1, 920233, Control_c, 0, 67, 120
1, 920247, Note_off_c, 0, 57, 57
1, 920247, Control_c, 0, 64, 96
1, 920262, Control_c, 0, 64, 103
1, 920268, Note_off_c, 0, 66, 58
1, 920277, Control_c, 0, 64, 118
1, 920286, Note_off_c, 0, 76, 62
1, 920291, Control_c, 0, 64, 127
1, 920291, Control_c, 0, 67, 118
1, 920366, Control_c, 0, 67, 120
1, 920374, Note_on_c, 0, 62, 66
1, 920376, Note_on_c, 0, 78, 68
1, 920381, Control_c, 0, 64, 97
1, 920396, Note_on_c, 0, 57, 50
1, 920396, Control_c, 0, 64, 69
1, 920405, Note_on_c, 0, 54, 51
1, 920410, Control_c, 0, 64, 44
1, 920410, Control_c, 0, 67, 123
1, 920425, Control_c, 0, 64, 0
1, 920439, Note_off_c, 0, 78, 60
1, 920455, Control_c, 0, 64, 38
1, 920471, Note_off_c, 0, 62, 62
1, 920477, Control_c, 0, 64, 58
1, 920479, Note_off_c, 0, 57, 63
1, 920491, Control_c, 0, 64, 70
1, 920506, Control_c, 0, 64, 80
1, 920511, Note_off_c, 0, 54, 62
1, 920518, Note_on_c, 0, 79, 68
1, 920521, Control_c, 0, 64, 89
1, 920521, Control_c, 0, 67, 120
1, 920536, Control_c, 0, 64, 94
1, 920551, Control_c, 0, 64, 100
1, 920566, Control_c, 0, 64, 108
1, 920581, Control_c, 0, 64, 123
1, 920585, Note_off_c, 0, 79, 59
1, 920596, Control_c, 0, 64, 127
1, 920625, Control_c, 0, 67, 118
1, 920699, Control_c, 0, 64, 109
1, 920699, Control_c, 0, 67, 116
1, 920709, Note_on_c, 0, 61, 51
1, 920710, Note_on_c, 0, 81, 60
1, 920714, Control_c, 0, 64, 94
1, 920727, Note_on_c, 0, 52, 53
1, 920727, Note_on_c, 0, 57, 46
1, 920729, Control_c, 0, 64, 80
1, 920739, Note_off_c, 0, 81, 67
1, 920744, Control_c, 0, 64, 70
1, 920759, Control_c, 0, 64, 60
1, 920773, Control_c, 0, 64, 51
1, 920788, Control_c, 0, 64, 43
1, 920803, Control_c, 0, 64, 34
1, 920817, Control_c, 0, 64, 30
1, 920832, Control_c, 0, 67, 118
1, 920863, Control_c, 0, 67, 120
1, 920922, Control_c, 0, 67, 122
1, 920982, Control_c, 0, 67, 124
1, 921034, Note_on_c, 0, 45, 67
1, 921084, Note_off_c, 0, 45, 60
1, 921166, Note_on_c, 0, 43, 79
1, 921226, Control_c, 0, 64, 32
1, 921238, Note_off_c, 0, 43, 62
1, 921270, Control_c, 0, 64, 32
1, 921300, Control_c, 0, 64, 33
1, 921300, Control_c, 0, 67, 126
1, 921320, Note_on_c, 0, 42, 76
1, 921356, Note_off_c, 0, 52, 61
1, 921362, Note_off_c, 0, 57, 63
1, 921400, Note_off_c, 0, 42, 61
1, 921436, Note_off_c, 0, 61, 64
1, 921448, Control_c, 0, 64, 33
1, 921461, Note_on_c, 0, 40, 77
1, 921493, Control_c, 0, 64, 34
1, 921508, Control_c, 0, 64, 34
1, 921522, Control_c, 0, 64, 35
1, 921557, Note_off_c, 0, 40, 54
1, 921567, Control_c, 0, 64, 35
1, 921655, Note_on_c, 0, 38, 63
1, 921657, Note_on_c, 0, 66, 64
1, 921666, Note_on_c, 0, 62, 50
1, 921668, Note_on_c, 0, 57, 45
1, 921671, Control_c, 0, 64, 35
1, 921685, Note_off_c, 0, 38, 64
1, 921686, Control_c, 0, 64, 34
1, 921701, Control_c, 0, 64, 33
1, 921716, Control_c, 0, 64, 31
1, 921730, Control_c, 0, 64, 0
1, 922035, Note_on_c, 0, 74, 64
1, 922115, Note_off_c, 0, 74, 63
1, 922167, Control_c, 0, 64, 44
1, 922182, Control_c, 0, 64, 57
1, 922196, Control_c, 0, 64, 63
1, 922211, Control_c, 0, 64, 68
1, 922226, Control_c, 0, 64, 73
1, 922241, Control_c, 0, 64, 79
1, 922256, Control_c, 0, 64, 85
1, 922271, Control_c, 0, 64, 91
1, 922286, Control_c, 0, 64, 97
1, 922301, Control_c, 0, 64, 103
1, 922316, Control_c, 0, 64, 109
1, 922323, Note_off_c, 0, 62, 56
1, 922330, Control_c, 0, 64, 118
1, 922345, Control_c, 0, 64, 127
1, 922347, Note_off_c, 0, 57, 60
1, 922347, Note_off_c, 0, 66, 60
1, 922627, Control_c, 0, 64, 123
1, 922642, Control_c, 0, 64, 120
1, 922657, Control_c, 0, 64, 117
1, 922672, Control_c, 0, 64, 115
1, 922686, Control_c, 0, 64, 113
1, 922724, Control_c, 0, 64, 110
1, 922754, Control_c, 0, 64, 108
1, 922768, Control_c, 0, 64, 106
1, 922769, Note_on_c, 0, 58, 44
1, 922772, Note_on_c, 0, 67, 47
1, 922773, Note_on_c, 0, 62, 39
1, 922781, Note_on_c, 0, 50, 45
1, 922783, Control_c, 0, 64, 104
1, 922798, Control_c, 0, 64, 101
1, 922812, Control_c, 0, 64, 97
1, 922825, Note_off_c, 0, 50, 61
1, 922827, Control_c, 0, 64, 92
1, 922842, Control_c, 0, 64, 85
1, 922857, Control_c, 0, 64, 79
1, 922872, Control_c, 0, 64, 71
1, 922886, Control_c, 0, 64, 63
1, 922901, Control_c, 0, 64, 53
1, 922916, Control_c, 0, 64, 39
1, 922931, Control_c, 0, 64, 0
1, 923181, Note_on_c, 0, 74, 50
1, 923265, Note_off_c, 0, 74, 62
1, 923302, Control_c, 0, 64, 33
1, 923317, Control_c, 0, 64, 46
1, 923332, Control_c, 0, 64, 56
1, 923347, Control_c, 0, 64, 62
1, 923362, Control_c, 0, 64, 64
1, 923377, Control_c, 0, 64, 66
1, 923391, Control_c, 0, 64, 68
1, 923406, Control_c, 0, 64, 71
1, 923421, Control_c, 0, 64, 74
1, 923435, Control_c, 0, 64, 77
1, 923450, Control_c, 0, 64, 81
1, 923472, Control_c, 0, 64, 83
1, 923487, Control_c, 0, 64, 86
1, 923502, Control_c, 0, 64, 88
1, 923517, Control_c, 0, 64, 90
1, 923521, Note_off_c, 0, 62, 37
1, 923528, Note_off_c, 0, 58, 34
1, 923532, Control_c, 0, 64, 91
1, 923547, Control_c, 0, 64, 92
1, 923562, Control_c, 0, 64, 93
1, 923565, Note_off_c, 0, 67, 45
1, 923606, Control_c, 0, 64, 93
1, 923813, Control_c, 0, 64, 93
1, 923857, Control_c, 0, 64, 92
1, 923872, Control_c, 0, 64, 91
1, 923887, Control_c, 0, 64, 88
1, 923894, Note_on_c, 0, 66, 45
1, 923902, Control_c, 0, 64, 82
1, 923910, Note_on_c, 0, 62, 29
1, 923916, Note_on_c, 0, 57, 35
1, 923916, Control_c, 0, 64, 71
1, 923919, Note_on_c, 0, 45, 37
1, 923931, Control_c, 0, 64, 59
1, 923946, Control_c, 0, 64, 43
1, 923961, Control_c, 0, 64, 40
1, 923976, Control_c, 0, 64, 49
1, 923990, Note_off_c, 0, 45, 62
1, 923991, Control_c, 0, 64, 59
1, 924006, Control_c, 0, 64, 68
1, 924021, Control_c, 0, 64, 76
1, 924036, Control_c, 0, 64, 86
1, 924051, Control_c, 0, 64, 92
1, 924065, Control_c, 0, 64, 99
1, 924068, Note_off_c, 0, 66, 57
1, 924080, Control_c, 0, 64, 106
1, 924085, Note_off_c, 0, 57, 34
1, 924095, Control_c, 0, 64, 115
1, 924110, Control_c, 0, 64, 127
1, 924310, Control_c, 0, 64, 104
1, 924325, Control_c, 0, 64, 87
1, 924340, Control_c, 0, 64, 72
1, 924343, Note_on_c, 0, 66, 42
1, 924345, Note_on_c, 0, 69, 44
1, 924351, Note_on_c, 0, 81, 54
1, 924354, Control_c, 0, 64, 60
1, 924366, Note_off_c, 0, 62, 42
1, 924369, Control_c, 0, 64, 54
1, 924374, Note_on_c, 0, 57, 37
1, 924384, Control_c, 0, 64, 56
1, 924399, Control_c, 0, 64, 61
1, 924400, Note_off_c, 0, 81, 59
1, 924414, Control_c, 0, 64, 65
1, 924429, Control_c, 0, 64, 71
1, 924429, Control_c, 0, 67, 124
1, 924444, Control_c, 0, 64, 78
1, 924458, Control_c, 0, 64, 84
1, 924473, Control_c, 0, 64, 88
1, 924480, Note_off_c, 0, 57, 57
1, 924488, Control_c, 0, 64, 91
1, 924501, Note_off_c, 0, 69, 35
1, 924502, Note_on_c, 0, 81, 65
1, 924503, Control_c, 0, 64, 96
1, 924503, Control_c, 0, 67, 122
1, 924518, Control_c, 0, 64, 102
1, 924532, Control_c, 0, 64, 111
1, 924547, Note_off_c, 0, 81, 58
1, 924547, Control_c, 0, 64, 127
1, 924597, Note_off_c, 0, 66, 52
1, 924621, Control_c, 0, 64, 96
1, 924621, Control_c, 0, 67, 124
1, 924636, Control_c, 0, 64, 74
1, 924636, Control_c, 0, 67, 126
1, 924648, Note_on_c, 0, 83, 67
1, 924651, Control_c, 0, 64, 58
1, 924653, Note_on_c, 0, 67, 49
1, 924665, Control_c, 0, 64, 37
1, 924667, Note_on_c, 0, 64, 43
1, 924667, Note_on_c, 0, 57, 31
1, 924680, Control_c, 0, 64, 35
1, 924695, Control_c, 0, 64, 45
1, 924707, Note_off_c, 0, 83, 61
1, 924710, Control_c, 0, 64, 58
1, 924725, Control_c, 0, 64, 66
1, 924734, Note_off_c, 0, 64, 62
1, 924739, Control_c, 0, 64, 72
1, 924754, Control_c, 0, 64, 76
1, 924769, Control_c, 0, 64, 80
1, 924784, Control_c, 0, 64, 84
1, 924785, Note_on_c, 0, 85, 69
1, 924787, Note_off_c, 0, 57, 37
1, 924790, Note_off_c, 0, 67, 55
1, 924799, Control_c, 0, 64, 88
1, 924814, Control_c, 0, 64, 91
1, 924829, Control_c, 0, 64, 92
1, 924844, Control_c, 0, 64, 93
1, 924859, Control_c, 0, 64, 93
1, 924874, Control_c, 0, 64, 94
1, 924879, Note_off_c, 0, 85, 56
1, 924948, Control_c, 0, 64, 92
1, 924960, Note_on_c, 0, 86, 66
1, 924970, Control_c, 0, 64, 85
1, 924972, Note_on_c, 0, 57, 45
1, 924972, Note_on_c, 0, 66, 47
1, 924978, Note_on_c, 0, 62, 47
1, 924985, Note_off_c, 0, 86, 69
1, 924985, Control_c, 0, 64, 73
1, 925000, Control_c, 0, 64, 62
1, 925014, Control_c, 0, 64, 48
1, 925030, Control_c, 0, 64, 33
1, 925045, Control_c, 0, 64, 0
1, 925276, Note_on_c, 0, 45, 66
1, 925324, Note_off_c, 0, 45, 60
1, 925423, Note_on_c, 0, 49, 63
1, 925474, Control_c, 0, 67, 124
1, 925494, Note_off_c, 0, 49, 59
1, 925534, Control_c, 0, 67, 122
1, 925593, Control_c, 0, 67, 120
1, 925630, Note_on_c, 0, 50, 56
1, 925638, Control_c, 0, 67, 117
1, 925653, Control_c, 0, 67, 113
1, 925668, Control_c, 0, 67, 105
1, 925683, Control_c, 0, 67, 87
1, 925687, Note_off_c, 0, 50, 62
1, 925698, Control_c, 0, 67, 0
1, 925713, Note_off_c, 0, 62, 64
1, 925731, Note_off_c, 0, 66, 65
1, 925739, Note_off_c, 0, 57, 64
1, 925996, Note_on_c, 0, 69, 82
1, 925998, Note_on_c, 0, 64, 72
1, 925999, Note_on_c, 0, 61, 69
1, 926004, Note_on_c, 0, 57, 63
1, 926048, Note_off_c, 0, 69, 63
1, 926338, Note_on_c, 0, 45, 78
1, 926394, Note_off_c, 0, 45, 61
1, 926587, Control_c, 0, 64, 45
1, 926602, Control_c, 0, 64, 57
1, 926616, Control_c, 0, 64, 64
1, 926631, Control_c, 0, 64, 68
1, 926646, Control_c, 0, 64, 73
1, 926660, Control_c, 0, 64, 80
1, 926675, Control_c, 0, 64, 86
1, 926690, Control_c, 0, 64, 95
1, 926705, Control_c, 0, 64, 107
1, 926711, Note_off_c, 0, 57, 59
1, 926720, Control_c, 0, 64, 127
1, 926734, Note_off_c, 0, 64, 59
1, 926927, Note_off_c, 0, 61, 58
1, 926960, Note_on_c, 0, 69, 87
1, 926971, Note_on_c, 0, 65, 71
1, 926974, Note_on_c, 0, 62, 68
1, 926976, Note_on_c, 0, 57, 65
1, 926986, Control_c, 0, 64, 117
1, 927001, Control_c, 0, 64, 80
1, 927006, Note_off_c, 0, 69, 63
1, 927016, Control_c, 0, 64, 58
1, 927031, Control_c, 0, 64, 29
1, 927046, Control_c, 0, 64, 0
1, 927332, Note_on_c, 0, 45, 77
1, 927390, Note_off_c, 0, 45, 61
1, 927424, Control_c, 0, 67, 40
1, 927439, Control_c, 0, 67, 46
1, 927454, Control_c, 0, 67, 46
1, 927498, Control_c, 0, 67, 47
1, 927528, Control_c, 0, 64, 32
1, 927543, Control_c, 0, 64, 47
1, 927557, Control_c, 0, 64, 57
1, 927557, Control_c, 0, 67, 46
1, 927572, Control_c, 0, 64, 62
1, 927572, Control_c, 0, 67, 45
1, 927587, Control_c, 0, 64, 65
1, 927587, Control_c, 0, 67, 45
1, 927601, Control_c, 0, 64, 68
1, 927601, Control_c, 0, 67, 44
1, 927616, Control_c, 0, 64, 72
1, 927616, Control_c, 0, 67, 43
1, 927631, Control_c, 0, 64, 77
1, 927631, Control_c, 0, 67, 43
1, 927632, Note_off_c, 0, 65, 59
1, 927636, Note_off_c, 0, 57, 56
1, 927646, Control_c, 0, 64, 81
1, 927661, Control_c, 0, 64, 86
1, 927675, Control_c, 0, 64, 90
1, 927675, Control_c, 0, 67, 42
1, 927687, Note_off_c, 0, 62, 62
1, 927690, Control_c, 0, 64, 93
1, 927690, Control_c, 0, 67, 42
1, 927705, Control_c, 0, 64, 97
1, 927705, Control_c, 0, 67, 41
1, 927720, Control_c, 0, 64, 100
1, 927735, Control_c, 0, 64, 102
1, 927765, Control_c, 0, 64, 104
1, 927809, Control_c, 0, 67, 41
1, 927824, Control_c, 0, 64, 106
1, 927869, Control_c, 0, 67, 40
1, 927928, Note_on_c, 0, 69, 63
1, 927979, Control_c, 0, 64, 100
1, 927979, Control_c, 0, 67, 41
1, 927984, Note_on_c, 0, 57, 47
1, 927984, Note_on_c, 0, 65, 40
1, 927994, Control_c, 0, 64, 85
1, 927994, Control_c, 0, 67, 41
1, 928009, Control_c, 0, 64, 70
1, 928009, Control_c, 0, 67, 42
1, 928024, Control_c, 0, 64, 56
1, 928039, Control_c, 0, 64, 45
1, 928039, Control_c, 0, 67, 42
1, 928054, Control_c, 0, 64, 48
1, 928069, Control_c, 0, 64, 56
1, 928084, Control_c, 0, 64, 63
1, 928099, Control_c, 0, 64, 68
1, 928104, Note_off_c, 0, 57, 54
1, 928113, Control_c, 0, 64, 73
1, 928128, Control_c, 0, 64, 77
1, 928143, Control_c, 0, 64, 82
1, 928145, Note_off_c, 0, 69, 55
1, 928158, Control_c, 0, 64, 91
1, 928173, Control_c, 0, 64, 115
1, 928182, Note_off_c, 0, 65, 58
1, 928188, Control_c, 0, 64, 127
1, 928188, Control_c, 0, 67, 43
1, 928203, Control_c, 0, 67, 45
1, 928218, Control_c, 0, 64, 101
1, 928218, Control_c, 0, 67, 46
1, 928232, Control_c, 0, 64, 77
1, 928232, Control_c, 0, 67, 48
1, 928247, Note_on_c, 0, 76, 71
1, 928247, Control_c, 0, 64, 63
1, 928247, Control_c, 0, 67, 49
1, 928255, Note_on_c, 0, 67, 68
1, 928262, Control_c, 0, 64, 62
1, 928262, Control_c, 0, 67, 51
1, 928265, Note_on_c, 0, 64, 55
1, 928266, Note_on_c, 0, 57, 48
1, 928277, Control_c, 0, 64, 65
1, 928277, Control_c, 0, 67, 52
1, 928282, Note_off_c, 0, 76, 62
1, 928292, Control_c, 0, 64, 68
1, 928292, Control_c, 0, 67, 57
1, 928306, Control_c, 0, 64, 72
1, 928306, Control_c, 0, 67, 73
1, 928321, Control_c, 0, 64, 74
1, 928321, Control_c, 0, 67, 85
1, 928336, Control_c, 0, 64, 77
1, 928336, Control_c, 0, 67, 91
1, 928351, Control_c, 0, 64, 79
1, 928351, Control_c, 0, 67, 95
1, 928366, Control_c, 0, 64, 81
1, 928380, Control_c, 0, 64, 82
1, 928380, Control_c, 0, 67, 97
1, 928383, Note_off_c, 0, 64, 62
1, 928384, Note_on_c, 0, 77, 73
1, 928395, Control_c, 0, 64, 83
1, 928406, Note_off_c, 0, 57, 53
1, 928427, Note_off_c, 0, 67, 58
1, 928438, Note_off_c, 0, 77, 63
1, 928499, Control_c, 0, 64, 81
1, 928513, Control_c, 0, 64, 77
1, 928528, Control_c, 0, 64, 69
1, 928540, Note_on_c, 0, 79, 66
1, 928543, Control_c, 0, 64, 56
1, 928543, Control_c, 0, 67, 99
1, 928549, Note_on_c, 0, 62, 48
1, 928558, Control_c, 0, 64, 38
1, 928558, Note_on_c, 0, 57, 43
1, 928558, Note_on_c, 0, 65, 32
1, 928572, Control_c, 0, 64, 0
1, 928572, Control_c, 0, 67, 101
1, 928587, Control_c, 0, 67, 110
1, 928592, Note_off_c, 0, 79, 62
1, 928602, Control_c, 0, 67, 120
1, 928617, Control_c, 0, 64, 30
1, 928617, Control_c, 0, 67, 125
1, 928632, Control_c, 0, 64, 47
1, 928647, Control_c, 0, 64, 59
1, 928647, Control_c, 0, 67, 127
1, 928661, Note_off_c, 0, 62, 61
1, 928662, Control_c, 0, 64, 64
1, 928677, Control_c, 0, 64, 68
1, 928686, Note_on_c, 0, 80, 64
1, 928689, Note_off_c, 0, 57, 58
1, 928692, Control_c, 0, 64, 70
1, 928713, Control_c, 0, 64, 71
1, 928720, Note_off_c, 0, 65, 59
1, 928728, Control_c, 0, 64, 73
1, 928742, Note_off_c, 0, 80, 48
1, 928743, Control_c, 0, 64, 74
1, 928757, Control_c, 0, 64, 75
1, 928863, Control_c, 0, 64, 75
1, 928878, Control_c, 0, 64, 74
1, 928893, Control_c, 0, 64, 73
1, 928897, Note_on_c, 0, 81, 60
1, 928900, Note_on_c, 0, 57, 26
1, 928908, Control_c, 0, 64, 71
1, 928917, Note_on_c, 0, 64, 44
1, 928923, Control_c, 0, 64, 68
1, 928926, Note_on_c, 0, 61, 43
1, 928936, Note_off_c, 0, 81, 65
1, 928937, Control_c, 0, 64, 65
1, 928952, Control_c, 0, 64, 61
1, 928967, Control_c, 0, 64, 57
1, 928982, Control_c, 0, 64, 53
1, 928997, Control_c, 0, 64, 49
1, 929011, Control_c, 0, 64, 44
1, 929026, Control_c, 0, 64, 38
1, 929041, Control_c, 0, 64, 32
1, 929115, Control_c, 0, 64, 29
1, 929145, Control_c, 0, 64, 0
1, 929299, Note_on_c, 0, 45, 43
1, 929330, Note_off_c, 0, 45, 54
1, 929433, Note_on_c, 0, 46, 50
1, 929481, Note_off_c, 0, 46, 59
1, 929625, Note_on_c, 0, 45, 46
1, 929654, Note_off_c, 0, 45, 58
1, 929657, Control_c, 0, 67, 124
1, 929672, Control_c, 0, 67, 115
1, 929686, Control_c, 0, 67, 94
1, 929694, Note_off_c, 0, 61, 59
1, 929701, Control_c, 0, 67, 52
1, 929716, Control_c, 0, 67, 0
1, 929751, Note_off_c, 0, 57, 41
1, 929758, Note_off_c, 0, 64, 39
1, 929935, Note_on_c, 0, 69, 86
1, 929943, Note_on_c, 0, 64, 82
1, 929947, Note_on_c, 0, 61, 74
1, 929951, Note_on_c, 0, 57, 69
1, 929969, Note_off_c, 0, 69, 64
1, 930304, Note_on_c, 0, 45, 81
1, 930377, Note_off_c, 0, 45, 62
1, 930522, Control_c, 0, 64, 38
1, 930537, Control_c, 0, 64, 52
1, 930552, Control_c, 0, 64, 61
1, 930567, Control_c, 0, 64, 64
1, 930582, Control_c, 0, 64, 66
1, 930596, Control_c, 0, 64, 70
1, 930611, Control_c, 0, 64, 74
1, 930626, Control_c, 0, 64, 79
1, 930641, Control_c, 0, 64, 84
1, 930656, Control_c, 0, 64, 88
1, 930669, Note_off_c, 0, 57, 59
1, 930671, Control_c, 0, 64, 90
1, 930686, Control_c, 0, 64, 94
1, 930700, Control_c, 0, 64, 98
1, 930702, Note_off_c, 0, 64, 60
1, 930715, Control_c, 0, 64, 102
1, 930730, Control_c, 0, 64, 104
1, 930752, Note_off_c, 0, 61, 52
1, 930760, Control_c, 0, 64, 107
1, 930789, Control_c, 0, 64, 110
1, 930818, Control_c, 0, 64, 112
1, 930848, Control_c, 0, 64, 116
1, 930863, Control_c, 0, 64, 123
1, 930878, Control_c, 0, 64, 127
1, 930907, Control_c, 0, 64, 96
1, 930922, Control_c, 0, 64, 68
1, 930934, Note_on_c, 0, 69, 100
1, 930937, Control_c, 0, 64, 37
1, 930946, Note_on_c, 0, 65, 75
1, 930948, Note_on_c, 0, 60, 65
1, 930954, Note_on_c, 0, 57, 70
1, 930959, Control_c, 0, 64, 0
1, 930959, Control_c, 0, 67, 34
1, 930974, Control_c, 0, 67, 63
1, 930975, Note_off_c, 0, 69, 65
1, 930989, Control_c, 0, 64, 46
1, 930989, Control_c, 0, 67, 80
1, 931004, Control_c, 0, 64, 63
1, 931004, Control_c, 0, 67, 87
1, 931019, Control_c, 0, 64, 68
1, 931019, Control_c, 0, 67, 90
1, 931033, Control_c, 0, 64, 69
1, 931033, Control_c, 0, 67, 90
1, 931048, Control_c, 0, 64, 70
1, 931048, Control_c, 0, 67, 91
1, 931166, Control_c, 0, 64, 69
1, 931181, Control_c, 0, 64, 69
1, 931196, Control_c, 0, 64, 67
1, 931211, Control_c, 0, 64, 65
1, 931227, Control_c, 0, 64, 60
1, 931227, Control_c, 0, 67, 91
1, 931242, Control_c, 0, 64, 48
1, 931242, Control_c, 0, 67, 92
1, 931255, Note_on_c, 0, 45, 87
1, 931256, Control_c, 0, 64, 0
1, 931256, Control_c, 0, 67, 93
1, 931271, Control_c, 0, 67, 94
1, 931286, Control_c, 0, 67, 94
1, 931301, Control_c, 0, 67, 99
1, 931316, Control_c, 0, 67, 101
1, 931404, Note_off_c, 0, 45, 60
1, 931532, Note_on_c, 0, 41, 93
1, 931553, Control_c, 0, 64, 55
1, 931560, Note_off_c, 0, 57, 64
1, 931567, Control_c, 0, 64, 64
1, 931568, Note_off_c, 0, 60, 65
1, 931582, Control_c, 0, 64, 69
1, 931597, Control_c, 0, 64, 73
1, 931609, Note_off_c, 0, 65, 64
1, 931612, Control_c, 0, 64, 78
1, 931626, Note_off_c, 0, 41, 63
1, 931627, Control_c, 0, 64, 80
1, 931627, Control_c, 0, 67, 98
1, 931641, Control_c, 0, 64, 83
1, 931656, Control_c, 0, 64, 85
1, 931671, Control_c, 0, 64, 86
1, 931686, Control_c, 0, 64, 87
1, 931686, Control_c, 0, 67, 96
1, 931708, Control_c, 0, 64, 89
1, 931723, Control_c, 0, 64, 90
1, 931738, Control_c, 0, 64, 92
1, 931783, Control_c, 0, 64, 91
1, 931798, Control_c, 0, 64, 85
1, 931813, Control_c, 0, 64, 67
1, 931813, Control_c, 0, 67, 98
1, 931828, Control_c, 0, 64, 44
1, 931834, Note_on_c, 0, 61, 34
1, 931842, Control_c, 0, 64, 0
1, 931842, Control_c, 0, 67, 100
1, 931848, Note_on_c, 0, 69, 75
1, 931848, Note_on_c, 0, 36, 86
1, 931862, Note_on_c, 0, 65, 56
1, 931887, Control_c, 0, 64, 40
1, 931898, Note_on_c, 0, 62, 55
1, 931902, Control_c, 0, 64, 57
1, 931905, Note_off_c, 0, 36, 62
1, 931917, Control_c, 0, 64, 68
1, 931931, Control_c, 0, 64, 76
1, 931946, Control_c, 0, 64, 82
1, 931946, Control_c, 0, 67, 98
1, 931953, Note_off_c, 0, 62, 61
1, 931961, Control_c, 0, 64, 85
1, 931963, Note_off_c, 0, 61, 37
1, 931975, Control_c, 0, 64, 89
1, 931990, Control_c, 0, 64, 98
1, 931990, Control_c, 0, 67, 95
1, 931991, Note_off_c, 0, 65, 62
1, 932005, Control_c, 0, 64, 127
1, 932036, Control_c, 0, 67, 98
1, 932066, Control_c, 0, 64, 84
1, 932080, Control_c, 0, 64, 62
1, 932095, Control_c, 0, 64, 53
1, 932110, Control_c, 0, 64, 60
1, 932125, Control_c, 0, 64, 68
1, 932125, Control_c, 0, 67, 95
1, 932127, Note_off_c, 0, 69, 0
1, 932140, Control_c, 0, 64, 78
1, 932140, Control_c, 0, 67, 94
1, 932145, Note_on_c, 0, 70, 82
1, 932147, Note_on_c, 0, 67, 76
1, 932154, Control_c, 0, 64, 95
1, 932154, Control_c, 0, 67, 91
1, 932161, Note_on_c, 0, 69, 17
1, 932169, Control_c, 0, 64, 127
1, 932169, Control_c, 0, 67, 90
1, 932184, Control_c, 0, 67, 88
1, 932208, Note_off_c, 0, 69, 39
1, 932223, Poly_aftertouch_c, 0, 61, 127
1, 932227, Note_off_c, 0, 67, 62
1, 932249, Note_off_c, 0, 70, 63
1, 932255, Note_on_c, 0, 60, 32
1, 932258, Control_c, 0, 67, 90
1, 932263, Poly_aftertouch_c, 0, 61, 0
1, 932287, Control_c, 0, 67, 90
1, 932289, Note_off_c, 0, 60, 52
1, 932361, Control_c, 0, 67, 92
1, 932376, Control_c, 0, 64, 75
1, 932376, Control_c, 0, 67, 94
1, 932391, Control_c, 0, 64, 52
1, 932391, Control_c, 0, 67, 95
1, 932406, Control_c, 0, 64, 32
1, 932418, Note_on_c, 0, 72, 88
1, 932421, Control_c, 0, 64, 48
1, 932430, Note_on_c, 0, 67, 84
1, 932436, Control_c, 0, 64, 64
1, 932448, Note_on_c, 0, 60, 54
1, 932458, Control_c, 0, 64, 80
1, 932471, Note_on_c, 0, 65, 51
1, 932472, Control_c, 0, 64, 127
1, 932472, Control_c, 0, 67, 97
1, 932502, Note_off_c, 0, 67, 62
1, 932504, Note_off_c, 0, 65, 54
1, 932546, Control_c, 0, 67, 95
1, 932547, Note_off_c, 0, 60, 56
1, 932550, Note_off_c, 0, 72, 59
1, 932561, Control_c, 0, 67, 95
1, 932576, Control_c, 0, 67, 94
1, 932591, Control_c, 0, 67, 94
1, 932605, Control_c, 0, 67, 93
1, 932620, Control_c, 0, 67, 92
1, 932665, Control_c, 0, 64, 91
1, 932665, Control_c, 0, 67, 93
1, 932679, Control_c, 0, 64, 62
1, 932694, Control_c, 0, 64, 35
1, 932705, Note_on_c, 0, 74, 85
1, 932709, Control_c, 0, 64, 41
1, 932712, Note_on_c, 0, 77, 95
1, 932723, Control_c, 0, 64, 58
1, 932723, Control_c, 0, 67, 93
1, 932736, Note_on_c, 0, 60, 39
1, 932738, Control_c, 0, 64, 72
1, 932738, Control_c, 0, 67, 94
1, 932751, Note_off_c, 0, 77, 69
1, 932753, Control_c, 0, 64, 92
1, 932753, Control_c, 0, 67, 94
1, 932768, Control_c, 0, 64, 127
1, 932786, Note_off_c, 0, 74, 62
1, 932813, Control_c, 0, 67, 93
1, 932816, Note_on_c, 0, 70, 41
1, 932828, Control_c, 0, 67, 93
1, 932843, Control_c, 0, 67, 92
1, 932850, Note_off_c, 0, 60, 45
1, 932853, Note_off_c, 0, 70, 57
1, 932858, Control_c, 0, 67, 91
1, 932917, Control_c, 0, 67, 92
1, 932932, Control_c, 0, 67, 95
1, 932947, Control_c, 0, 64, 83
1, 932947, Control_c, 0, 67, 98
1, 932962, Control_c, 0, 64, 62
1, 932962, Control_c, 0, 67, 100
1, 932976, Control_c, 0, 64, 49
1, 932991, Control_c, 0, 64, 53
1, 932991, Control_c, 0, 67, 104
1, 933005, Note_on_c, 0, 72, 89
1, 933006, Control_c, 0, 64, 61
1, 933009, Note_on_c, 0, 69, 81
1, 933012, Note_on_c, 0, 60, 76
1, 933020, Control_c, 0, 64, 68
1, 933035, Control_c, 0, 64, 77
1, 933050, Control_c, 0, 64, 82
1, 933065, Control_c, 0, 64, 85
1, 933080, Control_c, 0, 64, 88
1, 933094, Control_c, 0, 64, 91
1, 933109, Control_c, 0, 64, 93
1, 933124, Control_c, 0, 64, 94
1, 933139, Control_c, 0, 64, 96
1, 933154, Control_c, 0, 67, 102
1, 933169, Control_c, 0, 64, 101
1, 933184, Control_c, 0, 64, 105
1, 933206, Control_c, 0, 64, 111
1, 933219, Note_off_c, 0, 72, 59
1, 933220, Control_c, 0, 64, 123
1, 933220, Control_c, 0, 67, 99
1, 933235, Control_c, 0, 64, 127
1, 933265, Note_off_c, 0, 69, 60
1, 933280, Note_on_c, 0, 48, 88
1, 933309, Control_c, 0, 67, 101
1, 933344, Note_off_c, 0, 48, 63
1, 933368, Note_off_c, 0, 60, 26
1, 933428, Control_c, 0, 67, 99
1, 933546, Control_c, 0, 64, 91
1, 933561, Control_c, 0, 64, 63
1, 933561, Control_c, 0, 67, 97
1, 933565, Note_on_c, 0, 69, 82
1, 933568, Note_on_c, 0, 36, 94
1, 933576, Note_on_c, 0, 60, 69
1, 933576, Control_c, 0, 64, 0
1, 933581, Note_on_c, 0, 65, 61
1, 933606, Control_c, 0, 64, 37
1, 933622, Control_c, 0, 64, 56
1, 933627, Note_off_c, 0, 36, 64
1, 933636, Control_c, 0, 64, 69
1, 933651, Control_c, 0, 64, 83
1, 933664, Note_off_c, 0, 65, 61
1, 933666, Control_c, 0, 64, 98
1, 933681, Control_c, 0, 64, 116
1, 933696, Control_c, 0, 64, 127
1, 933723, Note_off_c, 0, 69, 57
1, 933725, Control_c, 0, 67, 95
1, 933740, Control_c, 0, 67, 95
1, 933754, Note_off_c, 0, 60, 36
1, 933784, Control_c, 0, 67, 94
1, 933843, Control_c, 0, 64, 81
1, 933843, Control_c, 0, 67, 94
1, 933858, Control_c, 0, 64, 60
1, 933858, Control_c, 0, 67, 93
1, 933862, Note_on_c, 0, 70, 90
1, 933873, Control_c, 0, 64, 57
1, 933876, Note_on_c, 0, 67, 68
1, 933880, Note_on_c, 0, 60, 59
1, 933888, Control_c, 0, 64, 65
1, 933888, Control_c, 0, 67, 92
1, 933903, Control_c, 0, 64, 76
1, 933903, Control_c, 0, 67, 91
1, 933905, Note_off_c, 0, 67, 65
1, 933917, Control_c, 0, 64, 95
1, 933932, Control_c, 0, 64, 127
1, 933951, Note_off_c, 0, 70, 62
1, 933999, Control_c, 0, 67, 91
1, 934014, Control_c, 0, 67, 90
1, 934033, Note_off_c, 0, 60, 58
1, 934088, Control_c, 0, 67, 91
1, 934103, Control_c, 0, 67, 92
1, 934117, Control_c, 0, 64, 85
1, 934117, Control_c, 0, 67, 93
1, 934132, Control_c, 0, 64, 57
1, 934132, Control_c, 0, 67, 94
1, 934144, Note_on_c, 0, 72, 96
1, 934147, Control_c, 0, 64, 0
1, 934147, Control_c, 0, 67, 94
1, 934152, Note_on_c, 0, 67, 79
1, 934159, Note_on_c, 0, 64, 67
1, 934159, Note_on_c, 0, 60, 71
1, 934162, Control_c, 0, 64, 30
1, 934162, Control_c, 0, 67, 94
1, 934168, Note_on_c, 0, 79, 54
1, 934177, Control_c, 0, 64, 55
1, 934188, Note_off_c, 0, 79, 63
1, 934191, Control_c, 0, 64, 73
1, 934191, Control_c, 0, 67, 93
1, 934204, Note_off_c, 0, 64, 65
1, 934204, Note_off_c, 0, 67, 64
1, 934206, Control_c, 0, 64, 97
1, 934217, Note_off_c, 0, 72, 58
1, 934221, Control_c, 0, 64, 127
1, 934226, Note_off_c, 0, 60, 58
1, 934251, Control_c, 0, 67, 92
1, 934266, Control_c, 0, 67, 91
1, 934295, Control_c, 0, 67, 91
1, 934325, Control_c, 0, 67, 90
1, 934355, Control_c, 0, 67, 90
1, 934399, Control_c, 0, 64, 99
1, 934399, Control_c, 0, 67, 90
1, 934415, Control_c, 0, 64, 65
1, 934430, Control_c, 0, 64, 0
1, 934430, Control_c, 0, 67, 91
1, 934431, Note_on_c, 0, 77, 96
1, 934433, Note_on_c, 0, 74, 94
1, 934437, Note_on_c, 0, 70, 78
1, 934445, Note_on_c, 0, 60, 70
1, 934445, Control_c, 0, 67, 90
1, 934460, Control_c, 0, 64, 40
1, 934460, Control_c, 0, 67, 88
1, 934466, Note_off_c, 0, 77, 69
1, 934474, Control_c, 0, 64, 63
1, 934474, Control_c, 0, 67, 86
1, 934489, Control_c, 0, 64, 76
1, 934489, Control_c, 0, 67, 85
1, 934495, Note_off_c, 0, 74, 60
1, 934504, Control_c, 0, 64, 96
1, 934504, Control_c, 0, 67, 86
1, 934514, Note_off_c, 0, 70, 63
1, 934519, Control_c, 0, 64, 127
1, 934519, Control_c, 0, 67, 87
1, 934534, Control_c, 0, 67, 87
1, 934543, Note_off_c, 0, 60, 61
1, 934607, Control_c, 0, 67, 88
1, 934622, Control_c, 0, 67, 88
1, 934637, Control_c, 0, 67, 90
1, 934652, Control_c, 0, 67, 90
1, 934666, Control_c, 0, 67, 91
1, 934681, Control_c, 0, 67, 91
1, 934704, Control_c, 0, 67, 93
1, 934718, Control_c, 0, 64, 96
1, 934718, Control_c, 0, 67, 94
1, 934729, Note_on_c, 0, 72, 87
1, 934733, Control_c, 0, 64, 76
1, 934733, Control_c, 0, 67, 95
1, 934736, Note_on_c, 0, 69, 75
1, 934737, Note_on_c, 0, 60, 67
1, 934748, Control_c, 0, 64, 61
1, 934748, Control_c, 0, 67, 97
1, 934764, Control_c, 0, 64, 43
1, 934779, Control_c, 0, 64, 0
1, 934779, Control_c, 0, 67, 99
1, 934956, Control_c, 0, 64, 33
1, 934971, Control_c, 0, 64, 52
1, 934986, Control_c, 0, 64, 63
1, 934993, Note_on_c, 0, 48, 87
1, 934994, Note_off_c, 0, 72, 56
1, 935000, Control_c, 0, 64, 68
1, 935000, Control_c, 0, 67, 97
1, 935015, Control_c, 0, 64, 73
1, 935030, Control_c, 0, 64, 79
1, 935036, Note_off_c, 0, 69, 60
1, 935045, Control_c, 0, 64, 87
1, 935060, Note_off_c, 0, 48, 62
1, 935060, Control_c, 0, 64, 94
1, 935074, Control_c, 0, 64, 101
1, 935089, Control_c, 0, 64, 109
1, 935104, Control_c, 0, 64, 127
1, 935163, Control_c, 0, 67, 95
1, 935172, Note_off_c, 0, 60, 36
1, 935223, Control_c, 0, 67, 97
1, 935238, Control_c, 0, 64, 86
1, 935253, Control_c, 0, 64, 63
1, 935253, Control_c, 0, 67, 99
1, 935266, Note_on_c, 0, 36, 82
1, 935268, Note_on_c, 0, 69, 74
1, 935268, Control_c, 0, 64, 31
1, 935277, Note_on_c, 0, 65, 58
1, 935279, Note_on_c, 0, 60, 64
1, 935283, Control_c, 0, 67, 101
1, 935297, Control_c, 0, 64, 48
1, 935312, Control_c, 0, 64, 61
1, 935324, Note_off_c, 0, 36, 63
1, 935327, Control_c, 0, 64, 70
1, 935342, Control_c, 0, 64, 80
1, 935357, Control_c, 0, 64, 92
1, 935372, Control_c, 0, 64, 106
1, 935375, Note_off_c, 0, 65, 59
1, 935387, Control_c, 0, 64, 127
1, 935387, Control_c, 0, 67, 99
1, 935420, Note_off_c, 0, 69, 58
1, 935452, Note_off_c, 0, 60, 57
1, 935453, Control_c, 0, 67, 97
1, 935497, Control_c, 0, 64, 99
1, 935512, Control_c, 0, 64, 71
1, 935527, Control_c, 0, 64, 50
1, 935542, Control_c, 0, 64, 35
1, 935542, Control_c, 0, 67, 95
1, 935548, Note_on_c, 0, 70, 89
1, 935557, Control_c, 0, 64, 42
1, 935557, Control_c, 0, 67, 94
1, 935557, Note_on_c, 0, 67, 75
1, 935563, Note_on_c, 0, 60, 78
1, 935572, Control_c, 0, 64, 58
1, 935572, Control_c, 0, 67, 93
1, 935587, Control_c, 0, 64, 70
1, 935587, Control_c, 0, 67, 92
1, 935601, Control_c, 0, 64, 86
1, 935601, Control_c, 0, 67, 91
1, 935608, Note_off_c, 0, 67, 61
1, 935616, Control_c, 0, 64, 112
1, 935631, Control_c, 0, 64, 127
1, 935631, Control_c, 0, 67, 91
1, 935631, Note_off_c, 0, 70, 65
1, 935646, Control_c, 0, 67, 90
1, 935705, Control_c, 0, 67, 91
1, 935729, Note_off_c, 0, 60, 48
1, 935764, Control_c, 0, 67, 91
1, 935779, Control_c, 0, 64, 77
1, 935779, Control_c, 0, 67, 92
1, 935789, Note_on_c, 0, 60, 60
1, 935794, Note_on_c, 0, 72, 94
1, 935794, Control_c, 0, 64, 41
1, 935794, Control_c, 0, 67, 93
1, 935795, Note_on_c, 0, 64, 77
1, 935795, Note_on_c, 0, 67, 87
1, 935809, Control_c, 0, 64, 0
1, 935823, Control_c, 0, 67, 90
1, 935838, Note_off_c, 0, 64, 66
1, 935838, Control_c, 0, 64, 43
1, 935838, Control_c, 0, 67, 84
1, 935848, Note_off_c, 0, 67, 64
1, 935853, Control_c, 0, 64, 66
1, 935853, Control_c, 0, 67, 75
1, 935861, Note_off_c, 0, 60, 64
1, 935868, Control_c, 0, 64, 84
1, 935868, Control_c, 0, 67, 61
1, 935877, Note_off_c, 0, 72, 51
1, 935883, Control_c, 0, 64, 127
1, 935883, Control_c, 0, 67, 0
1, 936061, Control_c, 0, 64, 90
1, 936065, Note_on_c, 0, 64, 82
1, 936066, Note_on_c, 0, 73, 98
1, 936070, Note_on_c, 0, 57, 76
1, 936071, Note_on_c, 0, 69, 75
1, 936076, Control_c, 0, 64, 65
1, 936082, Note_on_c, 0, 67, 77
1, 936091, Control_c, 0, 64, 41
1, 936105, Note_off_c, 0, 73, 67
1, 936106, Control_c, 0, 64, 0
1, 936246, Control_c, 0, 64, 34
1, 936260, Control_c, 0, 64, 38
1, 936275, Control_c, 0, 64, 39
1, 936320, Control_c, 0, 64, 38
1, 936335, Control_c, 0, 64, 38
1, 936344, Note_on_c, 0, 61, 94
1, 936379, Note_off_c, 0, 61, 64
1, 936616, Note_on_c, 0, 49, 89
1, 936666, Note_off_c, 0, 49, 64
1, 936839, Control_c, 0, 64, 38
1, 936902, Note_on_c, 0, 37, 82
1, 936970, Note_off_c, 0, 37, 62
1, 937256, Note_on_c, 0, 45, 79
1, 937329, Note_off_c, 0, 45, 61
1, 938084, Control_c, 0, 64, 39
1, 938099, Control_c, 0, 64, 39
1, 938114, Control_c, 0, 64, 40
1, 938129, Control_c, 0, 64, 41
1, 938143, Control_c, 0, 64, 44
1, 938158, Control_c, 0, 64, 46
1, 938173, Control_c, 0, 64, 49
1, 938188, Control_c, 0, 64, 52
1, 938203, Control_c, 0, 64, 55
1, 938203, Control_c, 0, 67, 46
1, 938217, Control_c, 0, 64, 57
1, 938217, Control_c, 0, 67, 61
1, 938232, Control_c, 0, 64, 59
1, 938232, Control_c, 0, 67, 78
1, 938247, Control_c, 0, 64, 61
1, 938247, Control_c, 0, 67, 91
1, 938262, Control_c, 0, 64, 64
1, 938262, Control_c, 0, 67, 102
1, 938277, Control_c, 0, 64, 65
1, 938277, Control_c, 0, 67, 112
1, 938291, Control_c, 0, 64, 67
1, 938291, Control_c, 0, 67, 123
1, 938306, Control_c, 0, 64, 69
1, 938306, Control_c, 0, 67, 127
1, 938321, Control_c, 0, 64, 71
1, 938335, Control_c, 0, 64, 73
1, 938350, Control_c, 0, 64, 75
1, 938365, Control_c, 0, 64, 78
1, 938380, Control_c, 0, 64, 82
1, 938395, Control_c, 0, 64, 86
1, 938411, Control_c, 0, 64, 91
1, 938433, Control_c, 0, 64, 96
1, 938448, Control_c, 0, 64, 104
1, 938463, Control_c, 0, 64, 113
1, 938467, Note_off_c, 0, 57, 57
1, 938478, Control_c, 0, 64, 127
1, 938496, Note_off_c, 0, 64, 54
1, 938600, Note_off_c, 0, 69, 47
1, 938611, Note_off_c, 0, 67, 37
1, 939174, Control_c, 0, 64, 116
1, 939196, Control_c, 0, 64, 111
1, 939212, Note_on_c, 0, 66, 43
1, 939212, Control_c, 0, 64, 107
1, 939227, Control_c, 0, 64, 102
1, 939231, Note_on_c, 0, 62, 34
1, 939235, Note_on_c, 0, 50, 39
1, 939238, Note_on_c, 0, 57, 36
1, 939242, Control_c, 0, 64, 96
1, 939257, Control_c, 0, 64, 87
1, 939271, Control_c, 0, 64, 72
1, 939276, Note_off_c, 0, 50, 62
1, 939286, Control_c, 0, 64, 57
1, 939301, Control_c, 0, 64, 28
1, 939316, Control_c, 0, 64, 0
1, 939673, Note_on_c, 0, 72, 60
1, 939773, Note_off_c, 0, 72, 63
1, 939804, Control_c, 0, 64, 36
1, 939819, Control_c, 0, 64, 50
1, 939834, Control_c, 0, 64, 60
1, 939849, Control_c, 0, 64, 63
1, 939864, Control_c, 0, 64, 66
1, 939879, Control_c, 0, 64, 69
1, 939894, Control_c, 0, 64, 72
1, 939908, Control_c, 0, 64, 77
1, 939923, Control_c, 0, 64, 82
1, 939945, Note_off_c, 0, 57, 46
1, 939945, Control_c, 0, 64, 87
1, 939960, Control_c, 0, 64, 92
1, 939975, Control_c, 0, 64, 99
1, 939989, Control_c, 0, 64, 106
1, 940002, Note_off_c, 0, 62, 40
1, 940004, Control_c, 0, 64, 114
1, 940020, Control_c, 0, 64, 127
1, 940093, Note_off_c, 0, 66, 53
1, 940433, Note_on_c, 0, 59, 38
1, 940434, Note_on_c, 0, 50, 37
1, 940435, Control_c, 0, 64, 118
1, 940438, Note_on_c, 0, 67, 37
1, 940444, Note_on_c, 0, 62, 36
1, 940450, Control_c, 0, 64, 110
1, 940465, Control_c, 0, 64, 103
1, 940479, Note_off_c, 0, 50, 61
1, 940479, Control_c, 0, 64, 94
1, 940494, Control_c, 0, 64, 83
1, 940509, Control_c, 0, 64, 72
1, 940524, Control_c, 0, 64, 60
1, 940538, Control_c, 0, 64, 43
1, 940553, Control_c, 0, 64, 0
1, 940890, Note_on_c, 0, 71, 56
1, 940987, Note_off_c, 0, 71, 62
1, 941094, Control_c, 0, 64, 36
1, 941109, Control_c, 0, 64, 49
1, 941124, Control_c, 0, 64, 58
1, 941139, Control_c, 0, 64, 63
1, 941153, Control_c, 0, 64, 66
1, 941168, Control_c, 0, 64, 69
1, 941183, Control_c, 0, 64, 73
1, 941198, Control_c, 0, 64, 79
1, 941211, Note_off_c, 0, 59, 60
1, 941213, Control_c, 0, 64, 83
1, 941216, Note_off_c, 0, 62, 55
1, 941227, Control_c, 0, 64, 86
1, 941242, Control_c, 0, 64, 90
1, 941257, Control_c, 0, 64, 94
1, 941272, Control_c, 0, 64, 98
1, 941282, Note_off_c, 0, 67, 32
1, 941286, Control_c, 0, 64, 101
1, 941301, Control_c, 0, 64, 105
1, 941331, Control_c, 0, 64, 107
1, 941517, Control_c, 0, 64, 103
1, 941532, Control_c, 0, 64, 90
1, 941537, Note_on_c, 0, 50, 48
1, 941546, Note_on_c, 0, 64, 43
1, 941547, Control_c, 0, 64, 75
1, 941548, Note_on_c, 0, 57, 37
1, 941556, Note_on_c, 0, 67, 42
1, 941561, Control_c, 0, 64, 61
1, 941576, Control_c, 0, 64, 49
1, 941591, Control_c, 0, 64, 50
1, 941595, Note_off_c, 0, 50, 63
1, 941607, Control_c, 0, 64, 58
1, 941622, Control_c, 0, 64, 62
1, 941637, Control_c, 0, 64, 67
1, 941652, Control_c, 0, 64, 73
1, 941666, Control_c, 0, 64, 80
1, 941681, Control_c, 0, 64, 84
1, 941696, Control_c, 0, 64, 88
1, 941697, Note_off_c, 0, 67, 55
1, 941707, Note_off_c, 0, 64, 61
1, 941710, Control_c, 0, 64, 92
1, 941716, Note_off_c, 0, 57, 43
1, 941725, Control_c, 0, 64, 96
1, 941740, Control_c, 0, 64, 100
1, 941755, Control_c, 0, 64, 104
1, 941770, Control_c, 0, 64, 108
1, 941784, Control_c, 0, 64, 114
1, 941799, Control_c, 0, 64, 127
1, 941844, Control_c, 0, 64, 110
1, 941846, Note_on_c, 0, 73, 59
1, 941853, Note_on_c, 0, 66, 55
1, 941858, Control_c, 0, 64, 86
1, 941863, Note_on_c, 0, 69, 55
1, 941864, Note_on_c, 0, 57, 38
1, 941873, Control_c, 0, 64, 67
1, 941888, Control_c, 0, 64, 52
1, 941903, Control_c, 0, 64, 47
1, 941918, Control_c, 0, 64, 52
1, 941933, Control_c, 0, 64, 58
1, 941948, Control_c, 0, 64, 64
1, 941955, Note_off_c, 0, 73, 62
1, 941963, Control_c, 0, 64, 69
1, 941977, Control_c, 0, 64, 74
1, 941992, Control_c, 0, 64, 79
1, 941995, Note_off_c, 0, 69, 50
1, 942007, Control_c, 0, 64, 84
1, 942016, Note_off_c, 0, 66, 57
1, 942022, Control_c, 0, 64, 89
1, 942032, Note_off_c, 0, 57, 37
1, 942037, Control_c, 0, 64, 93
1, 942051, Control_c, 0, 64, 97
1, 942066, Control_c, 0, 64, 102
1, 942081, Control_c, 0, 64, 111
1, 942096, Control_c, 0, 64, 127
1, 942141, Note_on_c, 0, 67, 63
1, 942148, Note_on_c, 0, 64, 60
1, 942154, Note_on_c, 0, 57, 53
1, 942155, Control_c, 0, 64, 90
1, 942170, Control_c, 0, 64, 69
1, 942192, Control_c, 0, 64, 52
1, 942207, Control_c, 0, 64, 45
1, 942222, Control_c, 0, 64, 52
1, 942237, Control_c, 0, 64, 60
1, 942252, Control_c, 0, 64, 66
1, 942266, Control_c, 0, 64, 71
1, 942281, Control_c, 0, 64, 77
1, 942296, Control_c, 0, 64, 81
1, 942302, Note_off_c, 0, 64, 59
1, 942308, Note_off_c, 0, 57, 54
1, 942310, Control_c, 0, 64, 86
1, 942325, Control_c, 0, 64, 90
1, 942337, Note_off_c, 0, 67, 59
1, 942340, Control_c, 0, 64, 91
1, 942355, Control_c, 0, 64, 92
1, 942370, Control_c, 0, 64, 93
1, 942504, Control_c, 0, 64, 92
1, 942514, Note_on_c, 0, 50, 39
1, 942514, Note_on_c, 0, 66, 51
1, 942519, Control_c, 0, 64, 90
1, 942526, Note_on_c, 0, 57, 31
1, 942531, Note_on_c, 0, 62, 39
1, 942533, Control_c, 0, 64, 83
1, 942548, Control_c, 0, 64, 73
1, 942552, Note_off_c, 0, 50, 63
1, 942563, Control_c, 0, 64, 61
1, 942578, Control_c, 0, 64, 41
1, 942593, Control_c, 0, 64, 0
1, 942920, Note_on_c, 0, 74, 57
1, 942996, Note_off_c, 0, 74, 63
1, 943131, Control_c, 0, 64, 42
1, 943146, Control_c, 0, 64, 56
1, 943161, Control_c, 0, 64, 62
1, 943176, Control_c, 0, 64, 64
1, 943191, Control_c, 0, 64, 67
1, 943201, Note_off_c, 0, 57, 54
1, 943207, Control_c, 0, 64, 69
1, 943222, Control_c, 0, 64, 73
1, 943224, Note_off_c, 0, 62, 56
1, 943236, Control_c, 0, 64, 78
1, 943251, Control_c, 0, 64, 82
1, 943262, Note_off_c, 0, 66, 60
1, 943266, Control_c, 0, 64, 86
1, 943281, Control_c, 0, 64, 89
1, 943296, Control_c, 0, 64, 92
1, 943310, Control_c, 0, 64, 94
1, 943325, Control_c, 0, 64, 95
1, 943340, Control_c, 0, 64, 96
1, 943459, Control_c, 0, 64, 95
1, 943473, Control_c, 0, 64, 95
1, 943488, Control_c, 0, 64, 93
1, 943503, Control_c, 0, 64, 90
1, 943518, Control_c, 0, 64, 87
1, 943533, Control_c, 0, 64, 84
1, 943547, Control_c, 0, 64, 79
1, 943562, Control_c, 0, 64, 74
1, 943577, Control_c, 0, 64, 69
1, 943592, Control_c, 0, 64, 62
1, 943607, Control_c, 0, 64, 54
1, 943621, Control_c, 0, 64, 41
1, 943636, Control_c, 0, 64, 0
1, 943668, Note_on_c, 0, 78, 49
1, 943700, Note_on_c, 0, 74, 37
1, 943710, Note_on_c, 0, 69, 12
1, 943718, Control_c, 0, 64, 31
1, 943724, Note_on_c, 0, 62, 29
1, 943733, Control_c, 0, 64, 47
1, 943748, Control_c, 0, 64, 61
1, 943762, Control_c, 0, 64, 65
1, 943777, Control_c, 0, 64, 68
1, 943785, Note_off_c, 0, 62, 60
1, 943792, Control_c, 0, 64, 71
1, 943807, Control_c, 0, 64, 76
1, 943822, Control_c, 0, 64, 81
1, 943836, Control_c, 0, 64, 87
1, 943851, Control_c, 0, 64, 93
1, 943866, Control_c, 0, 64, 97
1, 943880, Control_c, 0, 64, 103
1, 943895, Control_c, 0, 64, 108
1, 943910, Control_c, 0, 64, 114
1, 943925, Control_c, 0, 64, 118
1, 943940, Control_c, 0, 64, 126
1, 944097, Note_on_c, 0, 84, 66
1, 944130, Note_off_c, 0, 84, 62
1, 944324, Note_off_c, 0, 74, 34
1, 944404, Note_off_c, 0, 69, 43
1, 944529, Note_off_c, 0, 78, 35
1, 944749, Control_c, 0, 64, 114
1, 944764, Control_c, 0, 64, 101
1, 944765, Note_on_c, 0, 79, 40
1, 944770, Note_on_c, 0, 74, 39
1, 944771, Note_on_c, 0, 71, 31
1, 944778, Control_c, 0, 64, 88
1, 944788, Note_on_c, 0, 62, 41
1, 944793, Control_c, 0, 64, 74
1, 944809, Control_c, 0, 64, 61
1, 944824, Control_c, 0, 64, 44
1, 944839, Control_c, 0, 64, 33
1, 944854, Control_c, 0, 64, 36
1, 944869, Control_c, 0, 64, 49
1, 944883, Control_c, 0, 64, 60
1, 944896, Note_off_c, 0, 62, 63
1, 944898, Control_c, 0, 64, 67
1, 944913, Control_c, 0, 64, 74
1, 944927, Control_c, 0, 64, 82
1, 944942, Control_c, 0, 64, 88
1, 944957, Control_c, 0, 64, 93
1, 944972, Control_c, 0, 64, 101
1, 944987, Control_c, 0, 64, 109
1, 945001, Control_c, 0, 64, 127
1, 945144, Note_on_c, 0, 83, 66
1, 945181, Note_off_c, 0, 83, 63
1, 945433, Note_off_c, 0, 74, 61
1, 945542, Note_off_c, 0, 71, 40
1, 945596, Note_off_c, 0, 79, 34
1, 945780, Control_c, 0, 64, 96
1, 945795, Control_c, 0, 64, 78
1, 945803, Note_on_c, 0, 79, 54
1, 945810, Control_c, 0, 64, 65
1, 945819, Note_on_c, 0, 76, 41
1, 945820, Note_on_c, 0, 62, 43
1, 945824, Control_c, 0, 64, 57
1, 945836, Note_on_c, 0, 69, 32
1, 945839, Control_c, 0, 64, 56
1, 945854, Control_c, 0, 64, 60
1, 945868, Control_c, 0, 64, 64
1, 945871, Note_off_c, 0, 62, 62
1, 945883, Control_c, 0, 64, 71
1, 945898, Control_c, 0, 64, 80
1, 945913, Control_c, 0, 64, 90
1, 945936, Control_c, 0, 64, 100
1, 945950, Control_c, 0, 64, 114
1, 945965, Control_c, 0, 64, 127
1, 946003, Note_off_c, 0, 76, 36
1, 946011, Note_off_c, 0, 69, 38
1, 946050, Note_off_c, 0, 79, 61
1, 946117, Note_on_c, 0, 85, 75
1, 946128, Note_on_c, 0, 81, 59
1, 946135, Note_on_c, 0, 78, 57
1, 946141, Note_off_c, 0, 85, 67
1, 946148, Note_on_c, 0, 69, 41
1, 946253, Note_off_c, 0, 69, 38
1, 946335, Note_off_c, 0, 78, 53
1, 946388, Note_on_c, 0, 79, 63
1, 946405, Note_on_c, 0, 76, 64
1, 946413, Note_on_c, 0, 69, 53
1, 946455, Note_off_c, 0, 76, 60
1, 946476, Note_off_c, 0, 69, 54
1, 946487, Note_off_c, 0, 81, 56
1, 946549, Note_off_c, 0, 79, 56
1, 946662, Control_c, 0, 64, 112
1, 946684, Control_c, 0, 64, 90
1, 946695, Note_on_c, 0, 78, 58
1, 946699, Control_c, 0, 64, 73
1, 946705, Note_on_c, 0, 74, 56
1, 946709, Note_on_c, 0, 69, 52
1, 946714, Control_c, 0, 64, 52
1, 946721, Note_on_c, 0, 62, 48
1, 946729, Control_c, 0, 64, 0
1, 946787, Control_c, 0, 64, 38
1, 946802, Control_c, 0, 64, 59
1, 946817, Control_c, 0, 64, 68
1, 946819, Note_off_c, 0, 62, 62
1, 946832, Control_c, 0, 64, 76
1, 946846, Control_c, 0, 64, 85
1, 946861, Control_c, 0, 64, 93
1, 946876, Control_c, 0, 64, 104
1, 946891, Control_c, 0, 64, 123
1, 946905, Control_c, 0, 64, 127
1, 947049, Note_on_c, 0, 86, 70
1, 947075, Note_off_c, 0, 86, 67
1, 947240, Note_off_c, 0, 74, 61
1, 947324, Note_off_c, 0, 69, 49
1, 947492, Note_off_c, 0, 78, 52
1, 947610, Control_c, 0, 64, 120
1, 947625, Control_c, 0, 64, 84
1, 947640, Control_c, 0, 64, 65
1, 947654, Note_on_c, 0, 79, 57
1, 947654, Control_c, 0, 64, 46
1, 947661, Note_on_c, 0, 76, 56
1, 947666, Note_on_c, 0, 69, 53
1, 947669, Control_c, 0, 64, 29
1, 947671, Note_on_c, 0, 62, 52
1, 947684, Control_c, 0, 64, 35
1, 947699, Control_c, 0, 64, 49
1, 947714, Control_c, 0, 64, 61
1, 947728, Control_c, 0, 64, 73
1, 947737, Note_off_c, 0, 62, 61
1, 947743, Control_c, 0, 64, 86
1, 947758, Control_c, 0, 64, 100
1, 947773, Control_c, 0, 64, 114
1, 947788, Control_c, 0, 64, 127
1, 947819, Note_off_c, 0, 69, 51
1, 947831, Note_off_c, 0, 76, 45
1, 947889, Note_off_c, 0, 79, 60
1, 947945, Note_on_c, 0, 85, 79
1, 947952, Note_on_c, 0, 81, 65
1, 947960, Note_on_c, 0, 78, 56
1, 947965, Note_on_c, 0, 69, 56
1, 947972, Note_off_c, 0, 85, 64
1, 948039, Note_off_c, 0, 69, 54
1, 948200, Note_off_c, 0, 78, 57
1, 948210, Note_off_c, 0, 81, 39
1, 948232, Note_on_c, 0, 79, 59
1, 948240, Note_on_c, 0, 76, 61
1, 948254, Note_on_c, 0, 69, 60
1, 948282, Note_off_c, 0, 76, 57
1, 948321, Note_off_c, 0, 69, 58
1, 948339, Poly_aftertouch_c, 0, 81, 0
1, 948404, Control_c, 0, 64, 114
1, 948419, Control_c, 0, 64, 105
1, 948434, Control_c, 0, 64, 98
1, 948449, Control_c, 0, 64, 93
1, 948464, Control_c, 0, 64, 88
1, 948478, Control_c, 0, 64, 81
1, 948493, Control_c, 0, 64, 71
1, 948508, Control_c, 0, 64, 59
1, 948523, Control_c, 0, 64, 35
1, 948526, Note_on_c, 0, 78, 56
1, 948536, Note_off_c, 0, 79, 55
1, 948538, Control_c, 0, 64, 0
1, 948539, Note_on_c, 0, 74, 59
1, 948540, Note_on_c, 0, 69, 52
1, 948547, Note_on_c, 0, 62, 47
1, 948612, Control_c, 0, 64, 42
1, 948626, Control_c, 0, 64, 60
1, 948641, Control_c, 0, 64, 70
1, 948649, Note_off_c, 0, 62, 63
1, 948656, Control_c, 0, 64, 79
1, 948670, Control_c, 0, 64, 88
1, 948685, Control_c, 0, 64, 97
1, 948700, Control_c, 0, 64, 111
1, 948715, Control_c, 0, 64, 127
1, 948887, Note_on_c, 0, 86, 70
1, 948938, Note_off_c, 0, 86, 61
1, 949203, Note_off_c, 0, 78, 58
1, 949211, Note_off_c, 0, 74, 37
1, 949221, Note_off_c, 0, 69, 37
1, 949464, Control_c, 0, 64, 117
1, 949479, Control_c, 0, 64, 110
1, 949493, Control_c, 0, 64, 104
1, 949508, Control_c, 0, 64, 99
1, 949523, Control_c, 0, 64, 94
1, 949538, Control_c, 0, 64, 90
1, 949553, Control_c, 0, 64, 85
1, 949567, Control_c, 0, 64, 79
1, 949582, Control_c, 0, 64, 71
1, 949598, Control_c, 0, 64, 60
1, 949613, Control_c, 0, 64, 40
1, 949625, Note_on_c, 0, 78, 42
1, 949628, Control_c, 0, 64, 0
1, 949634, Note_on_c, 0, 74, 37
1, 949636, Note_on_c, 0, 71, 33
1, 949638, Note_on_c, 0, 59, 41
1, 949680, Control_c, 0, 64, 36
1, 949695, Control_c, 0, 64, 56
1, 949710, Control_c, 0, 64, 68
1, 949715, Note_off_c, 0, 59, 63
1, 949724, Control_c, 0, 64, 78
1, 949739, Control_c, 0, 64, 91
1, 949754, Control_c, 0, 64, 102
1, 949769, Control_c, 0, 64, 127
1, 950117, Note_on_c, 0, 86, 48
1, 950118, Note_on_c, 0, 90, 50
1, 950154, Note_off_c, 0, 90, 64
1, 950158, Note_off_c, 0, 86, 65
1, 950440, Note_off_c, 0, 74, 32
1, 950494, Note_off_c, 0, 71, 36
1, 950513, Note_off_c, 0, 78, 49
1, 950992, Control_c, 0, 64, 117
1, 951007, Control_c, 0, 64, 111
1, 951021, Control_c, 0, 64, 106
1, 951036, Control_c, 0, 64, 101
1, 951051, Control_c, 0, 64, 97
1, 951065, Control_c, 0, 64, 92
1, 951080, Control_c, 0, 64, 85
1, 951095, Control_c, 0, 64, 71
1, 951104, Note_on_c, 0, 76, 38
1, 951110, Control_c, 0, 64, 57
1, 951116, Note_on_c, 0, 74, 40
1, 951117, Note_on_c, 0, 71, 24
1, 951123, Note_on_c, 0, 56, 29
1, 951125, Control_c, 0, 64, 32
1, 951139, Control_c, 0, 64, 0
1, 951207, Control_c, 0, 64, 42
1, 951222, Control_c, 0, 64, 59
1, 951237, Control_c, 0, 64, 67
1, 951242, Note_off_c, 0, 56, 60
1, 951251, Control_c, 0, 64, 73
1, 951266, Control_c, 0, 64, 81
1, 951281, Control_c, 0, 64, 89
1, 951296, Control_c, 0, 64, 106
1, 951311, Control_c, 0, 64, 127
1, 951887, Note_on_c, 0, 88, 37
1, 951898, Note_on_c, 0, 83, 40
1, 951902, Note_on_c, 0, 86, 35
1, 951970, Control_c, 0, 67, 114
1, 951984, Control_c, 0, 67, 106
1, 952000, Control_c, 0, 67, 103
1, 952015, Control_c, 0, 67, 99
1, 952030, Control_c, 0, 67, 93
1, 952045, Control_c, 0, 67, 82
1, 952060, Control_c, 0, 67, 69
1, 952074, Control_c, 0, 67, 57
1, 952089, Control_c, 0, 67, 48
1, 952104, Control_c, 0, 67, 37
1, 952119, Control_c, 0, 67, 0
1, 952956, Note_off_c, 0, 86, 27
1, 953078, Note_off_c, 0, 83, 32
1, 953112, Note_off_c, 0, 88, 34
1, 953584, Note_off_c, 0, 71, 40
1, 953603, Note_off_c, 0, 74, 39
1, 953624, Note_off_c, 0, 76, 33
1, 953913, Control_c, 0, 64, 110
1, 953928, Control_c, 0, 64, 102
1, 953943, Control_c, 0, 64, 96
1, 953957, Control_c, 0, 64, 90
1, 953972, Control_c, 0, 64, 84
1, 953987, Control_c, 0, 64, 74
1, 954002, Control_c, 0, 64, 64
1, 954016, Control_c, 0, 64, 51
1, 954031, Control_c, 0, 64, 0
1, 954277, Control_c, 0, 64, 31
1, 954291, Control_c, 0, 64, 49
1, 954306, Control_c, 0, 64, 57
1, 954308, Note_on_c, 0, 81, 60
1, 954321, Control_c, 0, 64, 62
1, 954326, Note_on_c, 0, 85, 73
1, 954336, Control_c, 0, 64, 65
1, 954342, Note_on_c, 0, 88, 73
1, 954351, Control_c, 0, 64, 66
1, 954354, Note_off_c, 0, 81, 63
1, 954356, Note_off_c, 0, 85, 67
1, 954361, Note_off_c, 0, 88, 73
1, 954365, Control_c, 0, 64, 67
1, 954380, Control_c, 0, 64, 68
1, 954380, Control_c, 0, 67, 51
1, 954396, Control_c, 0, 64, 69
1, 954396, Control_c, 0, 67, 85
1, 954411, Control_c, 0, 64, 70
1, 954411, Control_c, 0, 67, 105
1, 954426, Control_c, 0, 64, 70
1, 954426, Control_c, 0, 67, 117
1, 954440, Control_c, 0, 67, 127
1, 954500, Control_c, 0, 64, 70
1, 954514, Control_c, 0, 64, 66
1, 954529, Control_c, 0, 64, 55
1, 954544, Control_c, 0, 64, 31
1, 954546, Note_on_c, 0, 76, 64
1, 954549, Note_on_c, 0, 69, 60
1, 954559, Control_c, 0, 64, 0
1, 954562, Note_on_c, 0, 73, 44
1, 954569, Note_off_c, 0, 69, 65
1, 954574, Note_off_c, 0, 76, 67
1, 954587, Note_off_c, 0, 73, 56
1, 954749, Note_on_c, 0, 57, 47
1, 954749, Note_on_c, 0, 64, 48
1, 954750, Note_on_c, 0, 61, 48
1, 954775, Note_off_c, 0, 61, 59
1, 954776, Note_off_c, 0, 57, 64
1, 954778, Note_off_c, 0, 64, 53
1, 954956, Note_on_c, 0, 64, 65
1, 954956, Note_on_c, 0, 56, 62
1, 954960, Note_on_c, 0, 59, 52
1, 954981, Note_off_c, 0, 64, 67
1, 954983, Note_off_c, 0, 59, 59
1, 954987, Note_off_c, 0, 56, 65
1, 955147, Note_on_c, 0, 68, 52
1, 955147, Note_on_c, 0, 71, 60
1, 955169, Note_off_c, 0, 68, 62
1, 955181, Note_off_c, 0, 71, 64
1, 955238, Note_on_c, 0, 76, 68
1, 955285, Note_off_c, 0, 76, 59
1, 955309, Note_on_c, 0, 69, 54
1, 955311, Note_on_c, 0, 57, 50
1, 955314, Note_on_c, 0, 73, 62
1, 955317, Note_on_c, 0, 61, 43
1, 955323, Note_on_c, 0, 64, 33
1, 955332, Note_off_c, 0, 69, 64
1, 955339, Note_off_c, 0, 73, 67
1, 955344, Note_off_c, 0, 61, 59
1, 955347, Note_off_c, 0, 57, 64
1, 955357, Note_off_c, 0, 64, 51
1, 955389, Note_on_c, 0, 76, 69
1, 955414, Note_off_c, 0, 76, 67
1, 955491, Note_on_c, 0, 83, 74
1, 955496, Note_on_c, 0, 86, 81
1, 955514, Note_on_c, 0, 88, 79
1, 955514, Control_c, 0, 64, 46
1, 955529, Control_c, 0, 64, 65
1, 955531, Note_off_c, 0, 83, 66
1, 955538, Note_off_c, 0, 88, 68
1, 955544, Control_c, 0, 64, 74
1, 955544, Note_off_c, 0, 86, 63
1, 955559, Control_c, 0, 64, 83
1, 955573, Control_c, 0, 64, 88
1, 955588, Control_c, 0, 64, 93
1, 955603, Control_c, 0, 64, 98
1, 955618, Control_c, 0, 64, 112
1, 955633, Control_c, 0, 64, 127
1, 955684, Control_c, 0, 64, 92
1, 955699, Control_c, 0, 64, 70
1, 955714, Control_c, 0, 64, 54
1, 955716, Note_on_c, 0, 76, 64
1, 955717, Note_on_c, 0, 71, 64
1, 955720, Note_on_c, 0, 74, 62
1, 955728, Control_c, 0, 64, 37
1, 955732, Note_off_c, 0, 76, 66
1, 955737, Note_off_c, 0, 71, 65
1, 955737, Note_off_c, 0, 74, 62
1, 955743, Control_c, 0, 64, 0
1, 955910, Note_on_c, 0, 64, 59
1, 955911, Note_on_c, 0, 59, 61
1, 955919, Note_on_c, 0, 62, 39
1, 955938, Note_off_c, 0, 64, 63
1, 955949, Note_off_c, 0, 59, 64
1, 955950, Note_off_c, 0, 62, 53
1, 956026, Control_c, 0, 64, 28
1, 956098, Note_on_c, 0, 64, 65
1, 956099, Note_on_c, 0, 61, 66
1, 956102, Note_on_c, 0, 57, 61
1, 956124, Note_off_c, 0, 64, 67
1, 956125, Note_off_c, 0, 61, 67
1, 956133, Note_off_c, 0, 57, 65
1, 956262, Control_c, 0, 64, 0
1, 956302, Note_on_c, 0, 69, 57
1, 956305, Note_on_c, 0, 73, 65
1, 956331, Note_off_c, 0, 69, 65
1, 956349, Note_off_c, 0, 73, 56
1, 956384, Note_on_c, 0, 76, 70
1, 956431, Note_off_c, 0, 76, 60
1, 956447, Control_c, 0, 64, 38
1, 956462, Control_c, 0, 64, 58
1, 956477, Control_c, 0, 64, 66
1, 956478, Note_on_c, 0, 74, 83
1, 956479, Note_on_c, 0, 71, 59
1, 956492, Control_c, 0, 64, 70
1, 956493, Note_on_c, 0, 62, 44
1, 956493, Note_on_c, 0, 64, 49
1, 956495, Note_on_c, 0, 59, 52
1, 956504, Note_off_c, 0, 74, 62
1, 956506, Note_off_c, 0, 71, 56
1, 956506, Control_c, 0, 64, 75
1, 956521, Control_c, 0, 64, 80
1, 956522, Note_off_c, 0, 62, 55
1, 956527, Note_off_c, 0, 64, 61
1, 956532, Note_off_c, 0, 59, 60
1, 956536, Control_c, 0, 64, 85
1, 956548, Note_on_c, 0, 76, 78
1, 956551, Control_c, 0, 64, 91
1, 956566, Control_c, 0, 64, 95
1, 956579, Note_off_c, 0, 76, 60
1, 956581, Control_c, 0, 64, 102
1, 956596, Control_c, 0, 64, 127
1, 956655, Control_c, 0, 64, 90
1, 956667, Note_on_c, 0, 88, 87
1, 956668, Note_on_c, 0, 93, 98
1, 956670, Control_c, 0, 64, 63
1, 956670, Note_on_c, 0, 85, 86
1, 956684, Control_c, 0, 64, 0
1, 956692, Note_off_c, 0, 88, 66
1, 956694, Note_off_c, 0, 85, 64
1, 956708, Note_off_c, 0, 93, 66
1, 956789, Control_c, 0, 64, 30
1, 956804, Control_c, 0, 64, 37
1, 956819, Control_c, 0, 64, 42
1, 956833, Control_c, 0, 64, 45
1, 956848, Control_c, 0, 64, 47
1, 956859, Note_on_c, 0, 73, 72
1, 956860, Note_on_c, 0, 81, 70
1, 956863, Control_c, 0, 64, 47
1, 956876, Note_on_c, 0, 76, 47
1, 956882, Note_off_c, 0, 81, 71
1, 956882, Note_off_c, 0, 73, 69
1, 956899, Note_off_c, 0, 76, 59
1, 956952, Control_c, 0, 64, 47
1, 957031, Note_on_c, 0, 61, 60
1, 957038, Note_on_c, 0, 64, 44
1, 957064, Note_off_c, 0, 61, 64
1, 957066, Note_off_c, 0, 64, 57
1, 957085, Control_c, 0, 64, 47
1, 957256, Note_on_c, 0, 67, 49
1, 957258, Note_on_c, 0, 59, 49
1, 957264, Note_on_c, 0, 62, 44
1, 957398, Note_on_c, 0, 74, 63
1, 957401, Note_on_c, 0, 79, 59
1, 957407, Note_on_c, 0, 71, 44
1, 957422, Note_off_c, 0, 74, 65
1, 957431, Note_off_c, 0, 79, 66
1, 957434, Note_off_c, 0, 71, 55
1, 957536, Note_off_c, 0, 67, 63
1, 957544, Note_off_c, 0, 62, 63
1, 957553, Note_off_c, 0, 59, 64
1, 957580, Note_on_c, 0, 83, 69
1, 957586, Note_on_c, 0, 86, 77
1, 957592, Note_on_c, 0, 91, 80
1, 957602, Note_off_c, 0, 83, 69
1, 957604, Note_off_c, 0, 86, 72
1, 957621, Note_off_c, 0, 91, 67
1, 957803, Note_on_c, 0, 92, 75
1, 957810, Note_on_c, 0, 54, 58
1, 957814, Note_on_c, 0, 62, 57
1, 957820, Note_on_c, 0, 59, 55
1, 957822, Note_on_c, 0, 90, 86
1, 957847, Note_off_c, 0, 92, 59
1, 957886, Note_on_c, 0, 89, 76
1, 957891, Note_off_c, 0, 90, 65
1, 957977, Note_off_c, 0, 59, 63
1, 957985, Note_on_c, 0, 90, 92
1, 957992, Note_off_c, 0, 54, 50
1, 957993, Note_off_c, 0, 62, 62
1, 958004, Note_off_c, 0, 89, 49
1, 958060, Note_off_c, 0, 90, 62
1, 958068, Note_on_c, 0, 91, 84
1, 958147, Note_off_c, 0, 91, 64
1, 958153, Note_on_c, 0, 54, 54
1, 958158, Note_on_c, 0, 64, 67
1, 958162, Note_on_c, 0, 61, 57
1, 958162, Note_on_c, 0, 90, 85
1, 958181, Note_off_c, 0, 54, 64
1, 958186, Note_off_c, 0, 64, 68
1, 958190, Note_off_c, 0, 61, 65
1, 958248, Note_on_c, 0, 94, 83
1, 958273, Note_off_c, 0, 90, 60
1, 958336, Note_on_c, 0, 95, 82
1, 958338, Note_off_c, 0, 94, 64
1, 958360, Note_on_c, 0, 59, 60
1, 958365, Note_on_c, 0, 62, 44
1, 958422, Note_on_c, 0, 90, 81
1, 958424, Note_off_c, 0, 95, 67
1, 958479, Control_c, 0, 64, 48
1, 958495, Note_on_c, 0, 86, 82
1, 958501, Note_off_c, 0, 90, 65
1, 958551, Note_off_c, 0, 86, 67
1, 958558, Note_on_c, 0, 83, 65
1, 958582, Note_off_c, 0, 83, 69
1, 958584, Note_off_c, 0, 59, 56
1, 958599, Note_off_c, 0, 62, 60
1, 958645, Note_on_c, 0, 71, 58
1, 958674, Note_off_c, 0, 71, 62
1, 958812, Control_c, 0, 64, 46
1, 958827, Control_c, 0, 64, 42
1, 958834, Note_on_c, 0, 86, 66
1, 958835, Note_on_c, 0, 83, 72
1, 958840, Note_on_c, 0, 91, 82
1, 958842, Control_c, 0, 64, 0
1, 958858, Note_off_c, 0, 83, 70
1, 958858, Note_off_c, 0, 86, 69
1, 958860, Note_off_c, 0, 91, 72
1, 959019, Note_on_c, 0, 79, 70
1, 959029, Note_on_c, 0, 74, 59
1, 959038, Note_on_c, 0, 71, 45
1, 959040, Note_off_c, 0, 79, 73
1, 959048, Note_off_c, 0, 74, 63
1, 959065, Note_off_c, 0, 71, 56
1, 959203, Note_on_c, 0, 59, 53
1, 959214, Note_on_c, 0, 62, 35
1, 959237, Note_off_c, 0, 59, 63
1, 959246, Note_off_c, 0, 62, 48
1, 959428, Note_on_c, 0, 57, 38
1, 959437, Note_on_c, 0, 60, 32
1, 959439, Note_on_c, 0, 65, 34
1, 959487, Control_c, 0, 64, 29
1, 959502, Control_c, 0, 64, 37
1, 959517, Control_c, 0, 64, 44
1, 959532, Control_c, 0, 64, 51
1, 959547, Control_c, 0, 64, 56
1, 959562, Control_c, 0, 64, 59
1, 959576, Control_c, 0, 64, 62
1, 959582, Note_on_c, 0, 72, 47
1, 959586, Note_on_c, 0, 77, 50
1, 959589, Note_on_c, 0, 69, 33
1, 959591, Control_c, 0, 64, 65
1, 959606, Note_off_c, 0, 72, 57
1, 959606, Control_c, 0, 64, 68
1, 959615, Note_off_c, 0, 77, 66
1, 959621, Control_c, 0, 64, 71
1, 959622, Note_off_c, 0, 69, 54
1, 959635, Control_c, 0, 64, 74
1, 959650, Control_c, 0, 64, 76
1, 959665, Control_c, 0, 64, 79
1, 959680, Control_c, 0, 64, 82
1, 959682, Note_off_c, 0, 65, 62
1, 959695, Control_c, 0, 64, 84
1, 959709, Control_c, 0, 64, 85
1, 959713, Note_off_c, 0, 57, 63
1, 959724, Control_c, 0, 64, 87
1, 959726, Note_off_c, 0, 60, 40
1, 959739, Control_c, 0, 64, 87
1, 959753, Control_c, 0, 64, 88
1, 959780, Note_on_c, 0, 81, 52
1, 959782, Note_on_c, 0, 89, 63
1, 959783, Control_c, 0, 64, 89
1, 959785, Note_on_c, 0, 84, 54
1, 959800, Note_off_c, 0, 81, 62
1, 959812, Note_off_c, 0, 84, 65
1, 959819, Note_off_c, 0, 89, 55
1, 959977, Control_c, 0, 64, 86
1, 959992, Control_c, 0, 64, 78
1, 959998, Note_on_c, 0, 89, 63
1, 960006, Control_c, 0, 64, 64
1, 960016, Note_on_c, 0, 44, 47
1, 960021, Control_c, 0, 64, 40
1, 960035, Note_on_c, 0, 88, 69
1, 960036, Control_c, 0, 64, 0
1, 960070, Note_off_c, 0, 89, 59
1, 960096, Control_c, 0, 64, 40
1, 960110, Control_c, 0, 64, 56
1, 960119, Note_on_c, 0, 87, 74
1, 960125, Control_c, 0, 64, 64
1, 960126, Note_off_c, 0, 88, 64
1, 960140, Control_c, 0, 64, 68
1, 960162, Control_c, 0, 64, 73
1, 960176, Control_c, 0, 64, 77
1, 960191, Control_c, 0, 64, 81
1, 960206, Control_c, 0, 64, 87
1, 960209, Note_on_c, 0, 52, 52
1, 960217, Note_off_c, 0, 87, 65
1, 960218, Note_on_c, 0, 88, 86
1, 960221, Control_c, 0, 64, 93
1, 960236, Control_c, 0, 64, 98
1, 960251, Control_c, 0, 64, 101
1, 960256, Note_off_c, 0, 44, 33
1, 960280, Control_c, 0, 64, 104
1, 960295, Note_on_c, 0, 87, 90
1, 960298, Note_off_c, 0, 88, 65
1, 960377, Note_off_c, 0, 87, 62
1, 960384, Note_on_c, 0, 88, 89
1, 960388, Note_on_c, 0, 59, 61
1, 960418, Note_off_c, 0, 52, 54
1, 960448, Note_off_c, 0, 88, 63
1, 960458, Control_c, 0, 64, 99
1, 960466, Note_on_c, 0, 90, 80
1, 960473, Control_c, 0, 64, 95
1, 960477, Note_off_c, 0, 59, 54
1, 960488, Control_c, 0, 64, 90
1, 960503, Control_c, 0, 64, 84
1, 960514, Note_off_c, 0, 90, 61
1, 960518, Control_c, 0, 64, 78
1, 960532, Control_c, 0, 64, 71
1, 960547, Control_c, 0, 64, 63
1, 960562, Control_c, 0, 64, 51
1, 960576, Control_c, 0, 64, 0
1, 960584, Note_on_c, 0, 90, 69
1, 960603, Note_on_c, 0, 45, 45
1, 960665, Control_c, 0, 64, 44
1, 960667, Note_on_c, 0, 88, 73
1, 960680, Control_c, 0, 64, 58
1, 960690, Note_off_c, 0, 90, 59
1, 960695, Control_c, 0, 64, 62
1, 960710, Control_c, 0, 64, 64
1, 960724, Control_c, 0, 64, 66
1, 960727, Note_off_c, 0, 45, 56
1, 960739, Control_c, 0, 64, 69
1, 960754, Note_on_c, 0, 85, 76
1, 960754, Control_c, 0, 64, 71
1, 960770, Control_c, 0, 64, 74
1, 960774, Note_off_c, 0, 88, 62
1, 960776, Note_on_c, 0, 52, 49
1, 960785, Control_c, 0, 64, 76
1, 960799, Control_c, 0, 64, 77
1, 960811, Note_off_c, 0, 85, 65
1, 960843, Note_on_c, 0, 81, 64
1, 960868, Note_off_c, 0, 81, 69
1, 960936, Note_off_c, 0, 52, 48
1, 960941, Note_on_c, 0, 76, 69
1, 960943, Note_on_c, 0, 61, 48
1, 960965, Note_off_c, 0, 76, 69
1, 960986, Control_c, 0, 64, 76
1, 960990, Note_off_c, 0, 61, 58
1, 961001, Control_c, 0, 64, 76
1, 961015, Control_c, 0, 64, 75
1, 961030, Control_c, 0, 64, 74
1, 961045, Control_c, 0, 64, 72
1, 961060, Control_c, 0, 64, 71
1, 961075, Control_c, 0, 64, 70
1, 961089, Control_c, 0, 64, 69
1, 961104, Control_c, 0, 64, 67
1, 961119, Control_c, 0, 64, 66
1, 961134, Control_c, 0, 64, 64
1, 961148, Control_c, 0, 64, 62
1, 961154, Note_on_c, 0, 74, 74
1, 961157, Note_on_c, 0, 76, 67
1, 961159, Note_on_c, 0, 47, 56
1, 961163, Control_c, 0, 64, 60
1, 961175, Note_off_c, 0, 76, 65
1, 961177, Note_off_c, 0, 74, 71
1, 961178, Control_c, 0, 64, 59
1, 961193, Control_c, 0, 64, 58
1, 961207, Control_c, 0, 64, 58
1, 961222, Control_c, 0, 64, 57
1, 961235, Note_on_c, 0, 76, 84
1, 961237, Control_c, 0, 64, 57
1, 961246, Note_on_c, 0, 74, 80
1, 961258, Note_off_c, 0, 76, 67
1, 961267, Note_off_c, 0, 74, 72
1, 961317, Note_on_c, 0, 56, 65
1, 961322, Note_on_c, 0, 76, 88
1, 961329, Note_on_c, 0, 74, 86
1, 961341, Control_c, 0, 64, 57
1, 961342, Note_off_c, 0, 47, 37
1, 961347, Note_off_c, 0, 74, 70
1, 961349, Note_off_c, 0, 76, 64
1, 961386, Control_c, 0, 64, 58
1, 961400, Control_c, 0, 64, 58
1, 961405, Note_on_c, 0, 76, 83
1, 961415, Note_on_c, 0, 74, 80
1, 961432, Note_off_c, 0, 76, 63
1, 961434, Note_off_c, 0, 74, 72
1, 961495, Note_on_c, 0, 76, 80
1, 961497, Note_on_c, 0, 74, 83
1, 961505, Note_on_c, 0, 62, 58
1, 961515, Note_off_c, 0, 76, 70
1, 961526, Note_off_c, 0, 74, 56
1, 961548, Control_c, 0, 64, 58
1, 961556, Note_off_c, 0, 56, 56
1, 961579, Note_on_c, 0, 74, 62
1, 961585, Note_on_c, 0, 76, 80
1, 961604, Note_off_c, 0, 74, 68
1, 961613, Note_off_c, 0, 76, 58
1, 961638, Control_c, 0, 64, 57
1, 961675, Control_c, 0, 64, 57
1, 961690, Control_c, 0, 64, 56
1, 961696, Note_on_c, 0, 78, 73
1, 961705, Control_c, 0, 64, 54
1, 961717, Note_off_c, 0, 62, 38
1, 961719, Control_c, 0, 64, 52
1, 961720, Note_on_c, 0, 49, 51
1, 961734, Control_c, 0, 64, 49
1, 961749, Control_c, 0, 64, 44
1, 961758, Note_on_c, 0, 73, 16
1, 961764, Control_c, 0, 64, 37
1, 961778, Control_c, 0, 64, 0
1, 961785, Note_off_c, 0, 73, 51
1, 961789, Note_off_c, 0, 78, 59
1, 961791, Note_on_c, 0, 76, 74
1, 961872, Note_off_c, 0, 76, 64
1, 961872, Note_on_c, 0, 73, 71
1, 961913, Note_on_c, 0, 57, 46
1, 961931, Note_off_c, 0, 73, 63
1, 961955, Note_on_c, 0, 69, 68
1, 961994, Note_off_c, 0, 49, 54
1, 962005, Note_off_c, 0, 69, 58
1, 962029, Note_off_c, 0, 57, 62
1, 962054, Note_on_c, 0, 64, 63
1, 962067, Note_on_c, 0, 61, 50
1, 962084, Note_off_c, 0, 64, 66
1, 962090, Note_off_c, 0, 61, 60
1, 962237, Control_c, 0, 64, 32
1, 962242, Note_on_c, 0, 64, 68
1, 962250, Note_on_c, 0, 47, 60
1, 962252, Control_c, 0, 64, 45
1, 962267, Control_c, 0, 64, 54
1, 962282, Control_c, 0, 64, 59
1, 962296, Control_c, 0, 64, 62
1, 962311, Control_c, 0, 64, 64
1, 962316, Note_off_c, 0, 64, 60
1, 962325, Note_on_c, 0, 66, 78
1, 962326, Control_c, 0, 64, 66
1, 962340, Control_c, 0, 64, 68
1, 962355, Control_c, 0, 64, 71
1, 962371, Control_c, 0, 64, 74
1, 962386, Control_c, 0, 64, 76
1, 962401, Note_off_c, 0, 66, 64
1, 962409, Control_c, 0, 64, 77
1, 962424, Control_c, 0, 64, 80
1, 962427, Note_on_c, 0, 62, 80
1, 962428, Note_on_c, 0, 50, 69
1, 962434, Note_off_c, 0, 47, 55
1, 962438, Control_c, 0, 64, 82
1, 962453, Control_c, 0, 64, 84
1, 962463, Note_off_c, 0, 50, 65
1, 962468, Control_c, 0, 64, 84
1, 962480, Note_off_c, 0, 62, 59
1, 962483, Control_c, 0, 64, 85
1, 962498, Control_c, 0, 64, 85
1, 962505, Note_on_c, 0, 66, 83
1, 962513, Control_c, 0, 64, 87
1, 962527, Control_c, 0, 64, 88
1, 962542, Control_c, 0, 64, 87
1, 962557, Control_c, 0, 64, 83
1, 962571, Control_c, 0, 64, 72
1, 962586, Control_c, 0, 64, 60
1, 962600, Note_on_c, 0, 61, 79
1, 962601, Control_c, 0, 64, 43
1, 962604, Note_on_c, 0, 52, 75
1, 962609, Note_on_c, 0, 68, 75
1, 962612, Note_on_c, 0, 64, 70
1, 962616, Control_c, 0, 64, 0
1, 962626, Note_off_c, 0, 66, 61
1, 962668, Note_off_c, 0, 64, 63
1, 962675, Control_c, 0, 67, 120
1, 962689, Note_on_c, 0, 59, 86
1, 962690, Control_c, 0, 67, 82
1, 962692, Note_off_c, 0, 61, 64
1, 962695, Note_off_c, 0, 52, 61
1, 962697, Note_off_c, 0, 68, 61
1, 962699, Note_on_c, 0, 62, 78
1, 962705, Control_c, 0, 67, 53
1, 962719, Control_c, 0, 67, 0
1, 962724, Note_off_c, 0, 59, 67
1, 962757, Note_off_c, 0, 62, 60
1, 962805, Note_on_c, 0, 61, 70
1, 962808, Note_on_c, 0, 69, 69
1, 962902, Note_on_c, 0, 57, 73
1, 962906, Note_off_c, 0, 69, 61
1, 962909, Note_off_c, 0, 61, 62
1, 962957, Note_off_c, 0, 57, 52
1, 962999, Note_on_c, 0, 52, 65
1, 963041, Note_off_c, 0, 52, 61
1, 963083, Note_on_c, 0, 49, 60
1, 963126, Note_off_c, 0, 49, 63
1, 963211, Note_on_c, 0, 45, 49
1, 963239, Note_off_c, 0, 45, 58
1, 963468, Note_on_c, 0, 40, 88
1, 963468, Control_c, 0, 64, 34
1, 963470, Note_on_c, 0, 53, 79
1, 963479, Note_on_c, 0, 52, 87
1, 963482, Note_on_c, 0, 41, 64
1, 963483, Control_c, 0, 64, 64
1, 963498, Control_c, 0, 64, 69
1, 963506, Note_off_c, 0, 53, 62
1, 963507, Note_off_c, 0, 41, 59
1, 963542, Control_c, 0, 64, 68
1, 963557, Note_on_c, 0, 39, 86
1, 963557, Control_c, 0, 64, 67
1, 963557, Control_c, 0, 67, 33
1, 963563, Note_off_c, 0, 40, 63
1, 963568, Note_off_c, 0, 52, 61
1, 963572, Control_c, 0, 64, 65
1, 963572, Control_c, 0, 67, 41
1, 963575, Note_on_c, 0, 51, 77
1, 963587, Control_c, 0, 64, 62
1, 963587, Control_c, 0, 67, 42
1, 963601, Control_c, 0, 64, 56
1, 963601, Control_c, 0, 67, 41
1, 963616, Control_c, 0, 64, 51
1, 963616, Control_c, 0, 67, 42
1, 963631, Control_c, 0, 64, 48
1, 963631, Control_c, 0, 67, 43
1, 963637, Note_off_c, 0, 51, 62
1, 963646, Control_c, 0, 67, 44
1, 963661, Note_on_c, 0, 52, 80
1, 963662, Note_on_c, 0, 40, 79
1, 963662, Note_off_c, 0, 39, 63
1, 963676, Control_c, 0, 64, 48
1, 963676, Control_c, 0, 67, 45
1, 963690, Control_c, 0, 67, 47
1, 963705, Control_c, 0, 67, 52
1, 963720, Control_c, 0, 67, 57
1, 963735, Control_c, 0, 67, 57
1, 963737, Note_off_c, 0, 52, 61
1, 963738, Note_on_c, 0, 39, 80
1, 963744, Note_on_c, 0, 51, 77
1, 963746, Note_off_c, 0, 40, 61
1, 963750, Control_c, 0, 64, 48
1, 963842, Note_on_c, 0, 52, 72
1, 963843, Note_off_c, 0, 51, 58
1, 963846, Note_on_c, 0, 40, 72
1, 963846, Note_off_c, 0, 39, 64
1, 963854, Control_c, 0, 67, 57
1, 963916, Note_off_c, 0, 40, 63
1, 963922, Note_off_c, 0, 52, 58
1, 963926, Note_on_c, 0, 41, 66
1, 963937, Note_on_c, 0, 53, 68
1, 963959, Note_off_c, 0, 41, 65
1, 963982, Note_off_c, 0, 53, 61
1, 964012, Control_c, 0, 67, 56
1, 964039, Note_on_c, 0, 41, 71
1, 964052, Note_on_c, 0, 53, 80
1, 964123, Note_off_c, 0, 41, 62
1, 964129, Note_off_c, 0, 53, 62
1, 964136, Note_on_c, 0, 52, 76
1, 964137, Note_on_c, 0, 40, 74
1, 964174, Control_c, 0, 64, 47
1, 964201, Note_off_c, 0, 52, 63
1, 964233, Control_c, 0, 64, 47
1, 964236, Note_on_c, 0, 48, 75
1, 964243, Note_on_c, 0, 36, 77
1, 964248, Control_c, 0, 64, 46
1, 964260, Note_off_c, 0, 40, 62
1, 964275, Note_off_c, 0, 48, 65
1, 964323, Note_on_c, 0, 55, 67
1, 964334, Note_on_c, 0, 43, 60
1, 964352, Control_c, 0, 67, 57
1, 964367, Control_c, 0, 67, 57
1, 964370, Note_off_c, 0, 36, 59
1, 964382, Control_c, 0, 67, 58
1, 964397, Control_c, 0, 67, 60
1, 964412, Control_c, 0, 67, 63
1, 964418, Note_off_c, 0, 43, 64
1, 964425, Note_on_c, 0, 52, 89
1, 964426, Control_c, 0, 67, 70
1, 964428, Note_on_c, 0, 64, 84
1, 964429, Note_off_c, 0, 55, 41
1, 964436, Note_on_c, 0, 60, 65
1, 964441, Control_c, 0, 67, 86
1, 964455, Note_on_c, 0, 50, 34
1, 964455, Note_off_c, 0, 50, 127
1, 964456, Control_c, 0, 67, 97
1, 964466, Note_off_c, 0, 60, 66
1, 964467, Note_off_c, 0, 64, 67
1, 964468, Note_off_c, 0, 52, 65
1, 964471, Control_c, 0, 67, 101
1, 964500, Control_c, 0, 67, 105
1, 964515, Control_c, 0, 67, 108
1, 964530, Control_c, 0, 67, 114
1, 964544, Control_c, 0, 67, 121
1, 964559, Control_c, 0, 67, 124
1, 964635, Note_on_c, 0, 52, 86
1, 964638, Note_on_c, 0, 64, 85
1, 964656, Control_c, 0, 67, 122
1, 964700, Control_c, 0, 67, 120
1, 964729, Note_on_c, 0, 62, 80
1, 964730, Control_c, 0, 64, 46
1, 964730, Control_c, 0, 67, 117
1, 964731, Note_on_c, 0, 50, 80
1, 964744, Note_off_c, 0, 52, 61
1, 964746, Note_off_c, 0, 64, 63
1, 964759, Control_c, 0, 67, 114
1, 964775, Control_c, 0, 64, 45
1, 964803, Note_off_c, 0, 62, 64
1, 964805, Control_c, 0, 67, 112
1, 964816, Note_off_c, 0, 50, 64
1, 964818, Note_on_c, 0, 59, 73
1, 964821, Note_on_c, 0, 47, 77
1, 964835, Control_c, 0, 67, 109
1, 964864, Control_c, 0, 67, 106
1, 964894, Control_c, 0, 67, 104
1, 964901, Note_off_c, 0, 59, 62
1, 964904, Note_on_c, 0, 55, 75
1, 964920, Note_on_c, 0, 43, 73
1, 964923, Control_c, 0, 67, 101
1, 964951, Note_off_c, 0, 47, 61
1, 964966, Note_off_c, 0, 55, 61
1, 964967, Control_c, 0, 64, 45
1, 964982, Control_c, 0, 67, 99
1, 964996, Note_off_c, 0, 43, 62
1, 965008, Note_on_c, 0, 55, 65
1, 965009, Note_on_c, 0, 67, 77
1, 965012, Note_on_c, 0, 59, 77
1, 965017, Note_on_c, 0, 50, 56
1, 965027, Control_c, 0, 67, 101
1, 965038, Note_off_c, 0, 59, 70
1, 965042, Note_off_c, 0, 50, 60
1, 965047, Note_off_c, 0, 55, 65
1, 965057, Note_off_c, 0, 67, 62
1, 965071, Control_c, 0, 67, 104
1, 965160, Control_c, 0, 67, 106
1, 965219, Note_on_c, 0, 55, 71
1, 965222, Note_on_c, 0, 65, 76
1, 965223, Note_on_c, 0, 60, 74
1, 965229, Note_on_c, 0, 48, 73
1, 965255, Note_off_c, 0, 60, 65
1, 965258, Note_off_c, 0, 55, 61
1, 965279, Control_c, 0, 64, 44
1, 965300, Note_on_c, 0, 64, 77
1, 965305, Note_off_c, 0, 65, 61
1, 965309, Control_c, 0, 64, 44
1, 965323, Control_c, 0, 64, 43
1, 965338, Control_c, 0, 64, 43
1, 965353, Control_c, 0, 64, 42
1, 965357, Note_off_c, 0, 64, 65
1, 965367, Control_c, 0, 67, 108
1, 965397, Note_off_c, 0, 48, 61
1, 965411, Note_on_c, 0, 67, 78
1, 965413, Note_on_c, 0, 50, 76
1, 965416, Note_on_c, 0, 55, 77
1, 965419, Note_on_c, 0, 59, 78
1, 965419, Control_c, 0, 67, 110
1, 965450, Note_off_c, 0, 59, 62
1, 965464, Note_off_c, 0, 55, 61
1, 965492, Control_c, 0, 67, 112
1, 965499, Note_on_c, 0, 65, 76
1, 965506, Note_off_c, 0, 67, 63
1, 965565, Note_off_c, 0, 50, 60
1, 965581, Note_off_c, 0, 65, 60
1, 965597, Note_on_c, 0, 55, 73
1, 965601, Note_on_c, 0, 52, 74
1, 965601, Note_on_c, 0, 60, 76
1, 965602, Note_on_c, 0, 69, 81
1, 965612, Control_c, 0, 67, 114
1, 965630, Note_off_c, 0, 52, 66
1, 965630, Note_off_c, 0, 55, 64
1, 965634, Note_off_c, 0, 60, 63
1, 965685, Note_on_c, 0, 67, 76
1, 965696, Note_off_c, 0, 69, 59
1, 965766, Note_off_c, 0, 67, 60
1, 965795, Note_on_c, 0, 59, 78
1, 965797, Note_on_c, 0, 62, 73
1, 965864, Control_c, 0, 67, 111
1, 965887, Note_on_c, 0, 55, 74
1, 965893, Control_c, 0, 67, 109
1, 965923, Control_c, 0, 64, 43
1, 965938, Control_c, 0, 64, 43
1, 965953, Control_c, 0, 64, 44
1, 965953, Control_c, 0, 67, 106
1, 965968, Control_c, 0, 67, 101
1, 965978, Note_on_c, 0, 50, 72
1, 965983, Control_c, 0, 67, 93
1, 965985, Note_off_c, 0, 55, 55
1, 965997, Control_c, 0, 67, 68
1, 966012, Control_c, 0, 67, 0
1, 966027, Control_c, 0, 64, 44
1, 966042, Note_off_c, 0, 50, 63
1, 966066, Note_on_c, 0, 47, 69
1, 966091, Note_off_c, 0, 59, 61
1, 966101, Control_c, 0, 64, 44
1, 966108, Note_off_c, 0, 62, 58
1, 966130, Control_c, 0, 64, 43
1, 966153, Control_c, 0, 64, 43
1, 966162, Note_off_c, 0, 47, 63
1, 966168, Control_c, 0, 64, 42
1, 966177, Note_on_c, 0, 43, 57
1, 966183, Control_c, 0, 64, 42
1, 966197, Control_c, 0, 64, 41
1, 966202, Note_off_c, 0, 43, 59
1, 966212, Control_c, 0, 64, 40
1, 966227, Control_c, 0, 64, 39
1, 966242, Control_c, 0, 64, 38
1, 966257, Control_c, 0, 64, 37
1, 966271, Control_c, 0, 64, 35
1, 966286, Control_c, 0, 64, 34
1, 966301, Control_c, 0, 64, 32
1, 966315, Control_c, 0, 64, 30
1, 966345, Control_c, 0, 64, 0
1, 966345, Control_c, 0, 67, 41
1, 966360, Control_c, 0, 67, 58
1, 966376, Control_c, 0, 67, 75
1, 966378, Note_on_c, 0, 67, 42
1, 966391, Control_c, 0, 67, 94
1, 966406, Control_c, 0, 67, 113
1, 966409, Note_off_c, 0, 67, 60
1, 966413, Note_on_c, 0, 59, 52
1, 966413, Note_on_c, 0, 43, 44
1, 966420, Control_c, 0, 67, 124
1, 966421, Note_on_c, 0, 65, 55
1, 966435, Control_c, 0, 67, 127
1, 966503, Note_off_c, 0, 65, 61
1, 966517, Note_on_c, 0, 64, 64
1, 966567, Note_off_c, 0, 64, 63
1, 966604, Note_on_c, 0, 65, 72
1, 966616, Note_on_c, 0, 50, 49
1, 966677, Note_off_c, 0, 65, 63
1, 966682, Note_on_c, 0, 64, 78
1, 966772, Note_on_c, 0, 65, 74
1, 966776, Note_off_c, 0, 64, 63
1, 966782, Note_off_c, 0, 50, 62
1, 966787, Note_on_c, 0, 55, 60
1, 966808, Note_off_c, 0, 59, 62
1, 966814, Note_off_c, 0, 43, 51
1, 966824, Note_off_c, 0, 55, 62
1, 966859, Note_off_c, 0, 65, 62
1, 966866, Note_on_c, 0, 69, 66
1, 966906, Note_off_c, 0, 69, 61
1, 966995, Note_on_c, 0, 69, 78
1, 967007, Note_on_c, 0, 60, 53
1, 967011, Note_on_c, 0, 43, 53
1, 967017, Note_on_c, 0, 64, 38
1, 967047, Note_off_c, 0, 64, 54
1, 967048, Note_off_c, 0, 60, 56
1, 967077, Note_on_c, 0, 67, 75
1, 967098, Note_off_c, 0, 69, 59
1, 967167, Note_on_c, 0, 64, 63
1, 967171, Note_off_c, 0, 67, 62
1, 967190, Note_on_c, 0, 52, 55
1, 967243, Note_off_c, 0, 64, 65
1, 967255, Note_on_c, 0, 60, 67
1, 967294, Note_off_c, 0, 60, 66
1, 967354, Note_on_c, 0, 64, 74
1, 967368, Note_on_c, 0, 55, 58
1, 967372, Note_off_c, 0, 52, 61
1, 967403, Note_off_c, 0, 43, 59
1, 967405, Note_off_c, 0, 55, 62
1, 967405, Note_off_c, 0, 64, 62
1, 967434, Note_on_c, 0, 76, 70
1, 967458, Note_off_c, 0, 76, 68
1, 967527, Note_on_c, 0, 76, 77
1, 967544, Note_on_c, 0, 65, 67
1, 967544, Note_on_c, 0, 71, 66
1, 967556, Note_on_c, 0, 43, 61
1, 967612, Note_off_c, 0, 71, 63
1, 967613, Note_on_c, 0, 74, 71
1, 967616, Note_off_c, 0, 65, 62
1, 967620, Note_off_c, 0, 76, 64
1, 967643, Note_off_c, 0, 74, 71
1, 967724, Note_on_c, 0, 72, 76
1, 967733, Note_on_c, 0, 65, 69
1, 967736, Note_on_c, 0, 62, 64
1, 967755, Note_on_c, 0, 50, 61
1, 967775, Note_off_c, 0, 65, 52
1, 967798, Note_on_c, 0, 71, 76
1, 967803, Note_off_c, 0, 62, 58
1, 967812, Note_off_c, 0, 72, 62
1, 967834, Note_off_c, 0, 71, 62
1, 967919, Note_on_c, 0, 69, 75
1, 967920, Note_on_c, 0, 65, 62
1, 967922, Note_on_c, 0, 59, 71
1, 967925, Note_on_c, 0, 55, 52
1, 967925, Note_off_c, 0, 50, 62
1, 967957, Note_off_c, 0, 65, 58
1, 967963, Note_off_c, 0, 43, 37
1, 967980, Note_off_c, 0, 55, 55
1, 967990, Note_off_c, 0, 59, 60
1, 967998, Note_on_c, 0, 67, 68
1, 968010, Note_off_c, 0, 69, 62
1, 968034, Note_off_c, 0, 67, 61
1, 968136, Note_on_c, 0, 69, 60
1, 968154, Note_on_c, 0, 43, 31
1, 968158, Note_on_c, 0, 60, 35
1, 968187, Note_on_c, 0, 64, 17
1, 968196, Note_off_c, 0, 60, 49
1, 968229, Note_off_c, 0, 64, 44
1, 968231, Note_off_c, 0, 69, 53
1, 968235, Note_on_c, 0, 67, 60
1, 968310, Note_off_c, 0, 67, 60
1, 968326, Note_on_c, 0, 64, 54
1, 968350, Note_on_c, 0, 52, 44
1, 968406, Note_off_c, 0, 64, 63
1, 968415, Note_on_c, 0, 60, 56
1, 968439, Note_off_c, 0, 60, 64
1, 968508, Note_off_c, 0, 52, 58
1, 968520, Note_on_c, 0, 55, 52
1, 968536, Note_off_c, 0, 43, 40
1, 968550, Note_off_c, 0, 55, 62
1, 968726, Note_on_c, 0, 79, 37
1, 968746, Note_on_c, 0, 71, 42
1, 968747, Note_on_c, 0, 77, 59
1, 968755, Note_off_c, 0, 79, 58
1, 968758, Note_on_c, 0, 43, 36
1, 968837, Note_off_c, 0, 77, 63
1, 968838, Note_on_c, 0, 76, 66
1, 968895, Note_off_c, 0, 76, 64
1, 968921, Note_on_c, 0, 77, 77
1, 968935, Note_on_c, 0, 50, 48
1, 968994, Note_off_c, 0, 77, 65
1, 968999, Note_on_c, 0, 76, 81
1, 969085, Note_on_c, 0, 77, 81
1, 969098, Note_off_c, 0, 76, 61
1, 969104, Note_off_c, 0, 50, 61
1, 969111, Note_on_c, 0, 55, 54
1, 969146, Note_off_c, 0, 71, 61
1, 969147, Note_off_c, 0, 43, 54
1, 969166, Note_off_c, 0, 55, 57
1, 969180, Note_on_c, 0, 81, 75
1, 969180, Note_off_c, 0, 77, 63
1, 969214, Note_off_c, 0, 81, 63
1, 969297, Note_on_c, 0, 81, 79
1, 969308, Note_on_c, 0, 43, 50
1, 969311, Note_on_c, 0, 76, 50
1, 969318, Note_on_c, 0, 72, 48
1, 969336, Note_off_c, 0, 76, 61
1, 969357, Note_off_c, 0, 72, 58
1, 969383, Note_on_c, 0, 79, 71
1, 969399, Note_off_c, 0, 81, 62
1, 969475, Note_on_c, 0, 76, 69
1, 969475, Note_off_c, 0, 79, 63
1, 969494, Note_on_c, 0, 52, 47
1, 969552, Note_off_c, 0, 76, 65
1, 969560, Note_on_c, 0, 72, 72
1, 969607, Note_off_c, 0, 72, 64
1, 969660, Note_on_c, 0, 76, 81
1, 969676, Note_on_c, 0, 55, 54
1, 969681, Note_off_c, 0, 52, 60
1, 969712, Note_off_c, 0, 76, 64
1, 969715, Note_off_c, 0, 55, 62
1, 969721, Note_off_c, 0, 43, 59
1, 969735, Note_on_c, 0, 88, 70
1, 969755, Note_off_c, 0, 88, 71
1, 969835, Note_on_c, 0, 88, 81
1, 969851, Note_on_c, 0, 43, 59
1, 969852, Note_on_c, 0, 77, 67
1, 969854, Note_on_c, 0, 83, 66
1, 969923, Note_on_c, 0, 86, 74
1, 969928, Note_off_c, 0, 77, 63
1, 969930, Note_off_c, 0, 83, 64
1, 969932, Note_off_c, 0, 88, 65
1, 969949, Note_off_c, 0, 86, 66
1, 970031, Note_on_c, 0, 84, 82
1, 970033, Note_on_c, 0, 77, 75
1, 970036, Note_on_c, 0, 74, 75
1, 970050, Note_on_c, 0, 50, 62
1, 970076, Note_off_c, 0, 77, 58
1, 970089, Note_off_c, 0, 74, 48
1, 970106, Note_on_c, 0, 83, 79
1, 970120, Note_off_c, 0, 84, 64
1, 970144, Note_off_c, 0, 83, 65
1, 970219, Note_off_c, 0, 50, 63
1, 970224, Note_on_c, 0, 77, 73
1, 970225, Note_on_c, 0, 71, 78
1, 970227, Note_on_c, 0, 81, 76
1, 970230, Note_on_c, 0, 55, 54
1, 970248, Note_off_c, 0, 43, 57
1, 970263, Note_off_c, 0, 77, 60
1, 970280, Note_off_c, 0, 55, 57
1, 970287, Note_off_c, 0, 71, 57
1, 970304, Note_on_c, 0, 79, 63
1, 970320, Note_off_c, 0, 81, 65
1, 970335, Note_off_c, 0, 79, 62
1, 970429, Note_on_c, 0, 81, 72
1, 970442, Note_on_c, 0, 43, 47
1, 970445, Note_on_c, 0, 72, 55
1, 970447, Note_on_c, 0, 76, 55
1, 970483, Note_off_c, 0, 72, 57
1, 970483, Note_off_c, 0, 76, 63
1, 970520, Note_on_c, 0, 79, 65
1, 970526, Note_off_c, 0, 81, 59
1, 970600, Note_off_c, 0, 79, 65
1, 970606, Note_on_c, 0, 76, 71
1, 970615, Note_on_c, 0, 52, 46
1, 970680, Note_off_c, 0, 76, 63
1, 970704, Note_on_c, 0, 72, 68
1, 970733, Note_off_c, 0, 72, 62
1, 970791, Note_on_c, 0, 76, 75
1, 970806, Note_on_c, 0, 55, 54
1, 970809, Note_off_c, 0, 52, 60
1, 970827, Note_off_c, 0, 76, 59
1, 970841, Note_off_c, 0, 43, 59
1, 970842, Note_off_c, 0, 55, 62
1, 970874, Note_on_c, 0, 88, 66
1, 970898, Note_off_c, 0, 88, 67
1, 970969, Note_on_c, 0, 88, 77
1, 970974, Note_on_c, 0, 43, 61
1, 970978, Note_on_c, 0, 83, 73
1, 970983, Note_on_c, 0, 77, 71
1, 971049, Note_off_c, 0, 83, 64
1, 971051, Note_on_c, 0, 86, 72
1, 971059, Note_off_c, 0, 77, 64
1, 971067, Note_off_c, 0, 88, 66
1, 971079, Note_off_c, 0, 86, 65
1, 971164, Note_on_c, 0, 84, 84
1, 971165, Note_on_c, 0, 77, 75
1, 971170, Note_on_c, 0, 74, 74
1, 971178, Note_on_c, 0, 50, 58
1, 971195, Note_off_c, 0, 77, 59
1, 971206, Note_off_c, 0, 74, 53
1, 971236, Note_on_c, 0, 83, 78
1, 971250, Note_off_c, 0, 84, 64
1, 971276, Note_off_c, 0, 83, 65
1, 971356, Note_on_c, 0, 81, 77
1, 971360, Note_on_c, 0, 77, 70
1, 971366, Note_on_c, 0, 71, 72
1, 971367, Note_on_c, 0, 55, 45
1, 971369, Note_off_c, 0, 50, 62
1, 971396, Note_off_c, 0, 77, 62
1, 971419, Note_off_c, 0, 43, 60
1, 971423, Note_off_c, 0, 55, 58
1, 971429, Note_off_c, 0, 71, 59
1, 971435, Note_on_c, 0, 79, 68
1, 971454, Note_off_c, 0, 81, 62
1, 971486, Note_off_c, 0, 79, 62
1, 971571, Note_on_c, 0, 81, 66
1, 971585, Note_on_c, 0, 43, 40
1, 971596, Note_on_c, 0, 72, 47
1, 971632, Control_c, 0, 64, 28
1, 971639, Note_off_c, 0, 72, 54
1, 971675, Note_on_c, 0, 79, 62
1, 971679, Note_off_c, 0, 81, 60
1, 971685, Poly_aftertouch_c, 0, 76, 0
1, 971750, Note_off_c, 0, 79, 61
1, 971765, Note_on_c, 0, 52, 41
1, 971765, Control_c, 0, 64, 0
1, 971769, Note_on_c, 0, 76, 68
1, 971810, Note_off_c, 0, 76, 61
1, 971866, Note_on_c, 0, 72, 50
1, 971889, Note_off_c, 0, 72, 62
1, 971935, Note_off_c, 0, 52, 54
1, 971936, Note_off_c, 0, 43, 34
1, 971953, Note_on_c, 0, 67, 62
1, 971958, Note_on_c, 0, 55, 44
1, 971971, Note_off_c, 0, 67, 65
1, 971988, Note_off_c, 0, 55, 56
1, 972172, Note_on_c, 0, 81, 62
1, 972177, Note_on_c, 0, 43, 47
1, 972187, Note_on_c, 0, 72, 44
1, 972207, Note_on_c, 0, 76, 17
1, 972217, Note_off_c, 0, 72, 52
1, 972239, Note_off_c, 0, 76, 44
1, 972258, Note_off_c, 0, 81, 62
1, 972261, Note_on_c, 0, 79, 64
1, 972331, Note_off_c, 0, 79, 61
1, 972344, Note_on_c, 0, 76, 64
1, 972354, Note_on_c, 0, 52, 43
1, 972394, Note_off_c, 0, 76, 63
1, 972443, Note_on_c, 0, 72, 54
1, 972471, Note_off_c, 0, 72, 64
1, 972512, Note_off_c, 0, 43, 35
1, 972529, Note_on_c, 0, 67, 59
1, 972532, Note_on_c, 0, 55, 39
1, 972541, Note_off_c, 0, 52, 37
1, 972549, Note_off_c, 0, 67, 62
1, 972563, Note_off_c, 0, 55, 57
1, 972755, Note_on_c, 0, 81, 64
1, 972772, Note_on_c, 0, 43, 44
1, 972853, Note_off_c, 0, 81, 62
1, 972863, Note_on_c, 0, 79, 60
1, 972940, Note_off_c, 0, 79, 62
1, 972943, Note_on_c, 0, 52, 48
1, 972955, Note_on_c, 0, 76, 59
1, 972995, Note_off_c, 0, 76, 65
1, 973047, Note_on_c, 0, 72, 55
1, 973085, Note_off_c, 0, 72, 57
1, 973139, Note_on_c, 0, 55, 57
1, 973147, Note_off_c, 0, 43, 60
1, 973149, Note_on_c, 0, 67, 43
1, 973149, Note_off_c, 0, 52, 61
1, 973174, Note_off_c, 0, 55, 63
1, 973178, Note_off_c, 0, 67, 57
1, 973359, Note_on_c, 0, 52, 80
1, 973359, Note_on_c, 0, 56, 86
1, 973362, Note_on_c, 0, 49, 74
1, 973366, Control_c, 0, 67, 0
1, 973366, Note_on_c, 0, 93, 90
1, 973369, Note_on_c, 0, 44, 74
1, 973383, Note_off_c, 0, 52, 69
1, 973392, Note_off_c, 0, 49, 68
1, 973410, Note_off_c, 0, 56, 55
1, 973410, Control_c, 0, 64, 28
1, 973412, Note_on_c, 0, 92, 81
1, 973422, Note_off_c, 0, 44, 60
1, 973443, Note_off_c, 0, 93, 63
1, 973454, Control_c, 0, 64, 30
1, 973462, Note_on_c, 0, 90, 78
1, 973477, Note_off_c, 0, 92, 67
1, 973484, Control_c, 0, 64, 32
1, 973498, Control_c, 0, 64, 33
1, 973509, Note_off_c, 0, 90, 66
1, 973513, Control_c, 0, 64, 35
1, 973514, Note_on_c, 0, 88, 69
1, 973528, Control_c, 0, 64, 37
1, 973536, Note_off_c, 0, 88, 69
1, 973543, Control_c, 0, 64, 39
1, 973559, Control_c, 0, 64, 40
1, 973567, Note_on_c, 0, 56, 93
1, 973569, Note_on_c, 0, 52, 86
1, 973573, Note_on_c, 0, 49, 74
1, 973575, Note_on_c, 0, 44, 73
1, 973577, Note_on_c, 0, 87, 80
1, 973617, Note_on_c, 0, 85, 82
1, 973670, Note_on_c, 0, 83, 86
1, 973670, Note_off_c, 0, 87, 65
1, 973685, Control_c, 0, 64, 39
1, 973688, Note_off_c, 0, 85, 66
1, 973724, Note_off_c, 0, 83, 65
1, 973727, Note_on_c, 0, 81, 78
1, 973754, Note_off_c, 0, 81, 65
1, 973778, Note_on_c, 0, 80, 85
1, 973832, Note_on_c, 0, 78, 82
1, 973835, Note_off_c, 0, 80, 65
1, 973849, Control_c, 0, 64, 31
1, 973864, Control_c, 0, 64, 0
1, 973867, Note_on_c, 0, 76, 79
1, 973872, Note_off_c, 0, 78, 62
1, 973914, Note_off_c, 0, 76, 54
1, 973931, Note_on_c, 0, 75, 81
1, 973970, Note_on_c, 0, 73, 82
1, 974007, Note_off_c, 0, 75, 65
1, 974009, Note_on_c, 0, 71, 85
1, 974026, Control_c, 0, 64, 46
1, 974028, Note_off_c, 0, 73, 66
1, 974041, Control_c, 0, 64, 87
1, 974055, Control_c, 0, 64, 127
1, 974063, Note_off_c, 0, 71, 65
1, 974065, Note_on_c, 0, 69, 84
1, 974096, Note_off_c, 0, 69, 60
1, 974122, Note_on_c, 0, 68, 91
1, 974177, Note_on_c, 0, 66, 92
1, 974186, Note_off_c, 0, 68, 64
1, 974224, Note_off_c, 0, 66, 67
1, 974225, Note_on_c, 0, 64, 82
1, 974238, Note_off_c, 0, 56, 64
1, 974272, Note_off_c, 0, 52, 60
1, 974274, Note_off_c, 0, 64, 64
1, 974289, Note_off_c, 0, 49, 58
1, 974293, Note_on_c, 0, 63, 80
1, 974312, Note_off_c, 0, 44, 61
1, 974332, Note_on_c, 0, 61, 78
1, 974365, Note_off_c, 0, 63, 64
1, 974386, Note_on_c, 0, 59, 86
1, 974396, Note_off_c, 0, 61, 63
1, 974438, Note_on_c, 0, 57, 83
1, 974440, Note_off_c, 0, 59, 65
1, 974479, Control_c, 0, 64, 67
1, 974494, Control_c, 0, 64, 0
1, 974502, Note_on_c, 0, 56, 99
1, 974504, Note_on_c, 0, 32, 102
1, 974505, Note_on_c, 0, 44, 98
1, 974514, Note_off_c, 0, 57, 64
1, 974526, Note_off_c, 0, 44, 71
1, 974529, Note_off_c, 0, 32, 69
1, 974529, Note_off_c, 0, 56, 65
1, 974820, Note_on_c, 0, 44, 94
1, 974820, Note_on_c, 0, 56, 104
1, 974821, Note_on_c, 0, 68, 86
1, 974821, Note_on_c, 0, 60, 86
1, 974823, Note_on_c, 0, 63, 84
1, 974841, Note_off_c, 0, 60, 73
1, 974842, Note_off_c, 0, 44, 72
1, 974842, Note_off_c, 0, 56, 69
1, 974850, Note_off_c, 0, 63, 64
1, 974854, Note_off_c, 0, 68, 65
1, 975805, Control_c, 0, 67, 50
1, 975820, Control_c, 0, 67, 78
1, 975835, Control_c, 0, 67, 111
1, 975850, Control_c, 0, 67, 127
1, 975882, Note_on_c, 0, 75, 44
1, 975911, Note_on_c, 0, 73, 53
1, 975923, Note_off_c, 0, 75, 59
1, 975981, Note_off_c, 0, 73, 62
1, 975999, Note_on_c, 0, 72, 57
1, 976089, Note_on_c, 0, 68, 47
1, 976100, Note_on_c, 0, 61, 45
1, 976102, Note_on_c, 0, 64, 44
1, 976106, Note_on_c, 0, 73, 55
1, 976130, Note_off_c, 0, 72, 40
1, 976163, Note_off_c, 0, 64, 61
1, 976166, Note_off_c, 0, 68, 60
1, 976174, Note_off_c, 0, 73, 62
1, 976179, Note_off_c, 0, 61, 62
1, 976180, Note_on_c, 0, 76, 61
1, 976267, Note_off_c, 0, 76, 62
1, 976288, Note_on_c, 0, 73, 58
1, 976315, Note_off_c, 0, 73, 65
1, 976522, Note_on_c, 0, 78, 62
1, 976789, Note_on_c, 0, 66, 44
1, 976795, Note_on_c, 0, 57, 37
1, 976807, Note_on_c, 0, 61, 34
1, 976860, Note_off_c, 0, 57, 63
1, 976869, Note_off_c, 0, 61, 62
1, 976874, Note_off_c, 0, 66, 64
1, 976887, Control_c, 0, 67, 123
1, 976902, Control_c, 0, 67, 71
1, 976917, Control_c, 0, 67, 0
1, 976988, Note_off_c, 0, 78, 55
1, 977125, Note_on_c, 0, 75, 65
1, 977169, Note_on_c, 0, 73, 75
1, 977197, Note_off_c, 0, 75, 60
1, 977233, Note_on_c, 0, 72, 77
1, 977239, Note_off_c, 0, 73, 63
1, 977330, Note_on_c, 0, 73, 85
1, 977343, Note_on_c, 0, 64, 58
1, 977344, Note_on_c, 0, 56, 55
1, 977351, Note_off_c, 0, 72, 58
1, 977355, Note_on_c, 0, 61, 55
1, 977416, Note_off_c, 0, 64, 64
1, 977417, Note_off_c, 0, 61, 61
1, 977423, Note_off_c, 0, 56, 63
1, 977426, Note_on_c, 0, 76, 77
1, 977428, Note_off_c, 0, 73, 63
1, 977516, Note_off_c, 0, 76, 63
1, 977525, Note_on_c, 0, 73, 77
1, 977552, Note_off_c, 0, 73, 65
1, 977638, Control_c, 0, 67, 37
1, 977667, Control_c, 0, 67, 38
1, 977682, Control_c, 0, 67, 38
1, 977696, Control_c, 0, 67, 40
1, 977711, Control_c, 0, 67, 41
1, 977726, Control_c, 0, 67, 43
1, 977741, Control_c, 0, 67, 54
1, 977756, Control_c, 0, 67, 64
1, 977761, Note_on_c, 0, 81, 68
1, 977771, Control_c, 0, 67, 71
1, 977785, Control_c, 0, 67, 76
1, 977800, Control_c, 0, 67, 78
1, 977815, Control_c, 0, 67, 79
1, 977830, Control_c, 0, 67, 80
1, 977845, Control_c, 0, 67, 81
1, 977859, Control_c, 0, 67, 82
1, 977874, Control_c, 0, 67, 84
1, 977889, Control_c, 0, 67, 90
1, 977903, Control_c, 0, 67, 93
1, 977918, Control_c, 0, 67, 93
1, 977933, Control_c, 0, 67, 94
1, 978011, Note_on_c, 0, 62, 25
1, 978027, Note_on_c, 0, 54, 19
1, 978041, Note_on_c, 0, 57, 26
1, 978052, Control_c, 0, 67, 93
1, 978067, Control_c, 0, 67, 93
1, 978082, Control_c, 0, 67, 92
1, 978096, Control_c, 0, 67, 91
1, 978111, Control_c, 0, 67, 91
1, 978112, Note_off_c, 0, 62, 57
1, 978126, Note_off_c, 0, 54, 60
1, 978127, Note_off_c, 0, 57, 62
1, 978148, Control_c, 0, 67, 91
1, 978163, Control_c, 0, 67, 93
1, 978178, Control_c, 0, 67, 95
1, 978193, Control_c, 0, 67, 97
1, 978205, Note_off_c, 0, 81, 63
1, 978207, Control_c, 0, 67, 100
1, 978222, Control_c, 0, 67, 119
1, 978237, Control_c, 0, 67, 127
1, 978399, Note_on_c, 0, 81, 63
1, 978489, Note_off_c, 0, 81, 64
1, 978494, Note_on_c, 0, 80, 62
1, 978520, Note_off_c, 0, 80, 69
1, 978606, Note_on_c, 0, 78, 69
1, 978622, Note_on_c, 0, 64, 46
1, 978625, Note_on_c, 0, 56, 49
1, 978633, Note_on_c, 0, 61, 47
1, 978674, Note_off_c, 0, 78, 56
1, 978687, Note_on_c, 0, 76, 75
1, 978708, Note_off_c, 0, 64, 65
1, 978714, Note_off_c, 0, 61, 63
1, 978719, Note_off_c, 0, 56, 63
1, 978730, Note_off_c, 0, 76, 63
1, 978779, Note_on_c, 0, 75, 76
1, 978844, Note_off_c, 0, 75, 60
1, 978870, Note_on_c, 0, 73, 68
1, 978902, Note_off_c, 0, 73, 60
1, 979011, Note_on_c, 0, 73, 61
1, 979033, Note_on_c, 0, 56, 43
1, 979042, Note_on_c, 0, 64, 39
1, 979207, Note_on_c, 0, 76, 59
1, 979212, Note_on_c, 0, 68, 55
1, 979222, Note_off_c, 0, 56, 58
1, 979223, Note_off_c, 0, 64, 63
1, 979226, Note_off_c, 0, 73, 62
1, 979237, Note_off_c, 0, 76, 64
1, 979242, Note_off_c, 0, 68, 66
1, 979427, Note_on_c, 0, 75, 46
1, 979429, Note_on_c, 0, 68, 53
1, 979433, Note_on_c, 0, 56, 49
1, 979433, Note_on_c, 0, 72, 36
1, 979450, Note_off_c, 0, 68, 62
1, 979450, Note_off_c, 0, 75, 52
1, 979459, Note_off_c, 0, 56, 61
1, 979464, Note_off_c, 0, 72, 48
1, 979644, Note_on_c, 0, 63, 61
1, 979686, Note_on_c, 0, 61, 69
1, 979697, Note_off_c, 0, 63, 57
1, 979735, Control_c, 0, 64, 31
1, 979740, Note_on_c, 0, 60, 74
1, 979742, Note_off_c, 0, 61, 64
1, 979749, Control_c, 0, 64, 33
1, 979749, Control_c, 0, 67, 94
1, 979764, Control_c, 0, 64, 34
1, 979764, Control_c, 0, 67, 0
1, 979779, Control_c, 0, 64, 35
1, 979794, Control_c, 0, 64, 36
1, 979828, Note_on_c, 0, 61, 83
1, 979838, Control_c, 0, 64, 35
1, 979840, Note_off_c, 0, 60, 58
1, 979853, Control_c, 0, 64, 33
1, 979855, Note_on_c, 0, 56, 60
1, 979858, Note_on_c, 0, 49, 63
1, 979858, Note_on_c, 0, 52, 59
1, 979868, Control_c, 0, 64, 30
1, 979883, Control_c, 0, 64, 0
1, 979893, Note_off_c, 0, 56, 63
1, 979902, Note_off_c, 0, 52, 61
1, 979906, Note_off_c, 0, 61, 63
1, 979911, Note_on_c, 0, 64, 77
1, 979915, Note_off_c, 0, 49, 59
1, 979999, Note_off_c, 0, 64, 64
1, 980011, Note_on_c, 0, 61, 78
1, 980016, Note_on_c, 0, 56, 67
1, 980020, Note_on_c, 0, 49, 68
1, 980020, Note_on_c, 0, 52, 60
1, 980047, Note_off_c, 0, 56, 65
1, 980047, Note_off_c, 0, 49, 64
1, 980048, Note_off_c, 0, 61, 62
1, 980050, Note_off_c, 0, 52, 64
1, 980225, Note_on_c, 0, 66, 74
1, 980425, Note_on_c, 0, 54, 58
1, 980426, Note_on_c, 0, 45, 59
1, 980427, Note_on_c, 0, 49, 55
1, 980459, Note_off_c, 0, 54, 62
1, 980464, Note_off_c, 0, 49, 61
1, 980470, Note_off_c, 0, 45, 63
1, 980611, Note_on_c, 0, 54, 70
1, 980613, Note_on_c, 0, 49, 66
1, 980616, Note_on_c, 0, 45, 64
1, 980619, Note_off_c, 0, 66, 62
1, 980637, Note_off_c, 0, 54, 65
1, 980640, Note_off_c, 0, 49, 65
1, 980643, Note_off_c, 0, 45, 65
1, 980794, Note_on_c, 0, 63, 67
1, 980827, Note_on_c, 0, 61, 75
1, 980873, Note_off_c, 0, 63, 61
1, 980896, Note_on_c, 0, 60, 80
1, 980902, Note_off_c, 0, 61, 65
1, 980978, Note_on_c, 0, 44, 62
1, 980979, Note_on_c, 0, 52, 60
1, 980980, Note_on_c, 0, 49, 57
1, 980988, Note_on_c, 0, 61, 82
1, 981012, Note_off_c, 0, 52, 61
1, 981015, Note_off_c, 0, 49, 61
1, 981015, Note_off_c, 0, 60, 61
1, 981018, Note_off_c, 0, 44, 64
1, 981070, Note_off_c, 0, 61, 64
1, 981073, Note_on_c, 0, 64, 77
1, 981172, Note_off_c, 0, 64, 63
1, 981181, Note_on_c, 0, 61, 79
1, 981188, Note_on_c, 0, 52, 62
1, 981191, Note_on_c, 0, 49, 56
1, 981194, Note_on_c, 0, 44, 59
1, 981215, Note_off_c, 0, 52, 64
1, 981222, Note_off_c, 0, 49, 64
1, 981228, Note_off_c, 0, 44, 62
1, 981231, Note_off_c, 0, 61, 65
1, 981424, Note_on_c, 0, 69, 66
1, 981618, Note_on_c, 0, 42, 48
1, 981624, Note_on_c, 0, 50, 43
1, 981649, Note_on_c, 0, 45, 18
1, 981665, Note_off_c, 0, 42, 60
1, 981667, Note_off_c, 0, 50, 60
1, 981695, Note_off_c, 0, 45, 37
1, 981848, Note_on_c, 0, 50, 50
1, 981849, Note_on_c, 0, 42, 53
1, 981859, Note_on_c, 0, 45, 34
1, 981883, Note_off_c, 0, 50, 60
1, 981888, Note_off_c, 0, 42, 64
1, 981898, Note_off_c, 0, 69, 58
1, 981902, Note_off_c, 0, 45, 42
1, 981951, Control_c, 0, 67, 45
1, 981966, Control_c, 0, 67, 53
1, 981981, Control_c, 0, 67, 53
1, 982040, Control_c, 0, 67, 54
1, 982075, Note_on_c, 0, 69, 59
1, 982169, Note_on_c, 0, 68, 63
1, 982205, Note_off_c, 0, 69, 57
1, 982247, Control_c, 0, 67, 54
1, 982279, Note_on_c, 0, 66, 63
1, 982292, Note_on_c, 0, 49, 58
1, 982304, Note_off_c, 0, 68, 56
1, 982313, Note_on_c, 0, 40, 39
1, 982337, Control_c, 0, 67, 54
1, 982355, Note_off_c, 0, 66, 64
1, 982366, Control_c, 0, 67, 53
1, 982374, Note_off_c, 0, 40, 55
1, 982381, Control_c, 0, 64, 30
1, 982391, Note_on_c, 0, 64, 65
1, 982396, Control_c, 0, 64, 41
1, 982396, Control_c, 0, 67, 53
1, 982411, Control_c, 0, 64, 52
1, 982411, Control_c, 0, 67, 52
1, 982426, Control_c, 0, 64, 56
1, 982426, Control_c, 0, 67, 52
1, 982440, Control_c, 0, 64, 58
1, 982455, Control_c, 0, 67, 51
1, 982480, Note_off_c, 0, 64, 41
1, 982500, Control_c, 0, 64, 55
1, 982515, Control_c, 0, 64, 40
1, 982515, Control_c, 0, 67, 50
1, 982526, Note_on_c, 0, 62, 56
1, 982530, Control_c, 0, 64, 0
1, 982530, Control_c, 0, 67, 52
1, 982559, Note_on_c, 0, 45, 61
1, 982560, Control_c, 0, 67, 51
1, 982574, Control_c, 0, 67, 50
1, 982592, Note_on_c, 0, 40, 43
1, 982601, Note_off_c, 0, 49, 51
1, 982626, Control_c, 0, 64, 38
1, 982626, Control_c, 0, 67, 50
1, 982640, Control_c, 0, 64, 49
1, 982640, Control_c, 0, 67, 49
1, 982655, Control_c, 0, 64, 58
1, 982661, Note_off_c, 0, 40, 55
1, 982670, Control_c, 0, 64, 61
1, 982670, Control_c, 0, 67, 49
1, 982676, Note_on_c, 0, 61, 61
1, 982681, Note_off_c, 0, 62, 57
1, 982685, Control_c, 0, 64, 63
1, 982685, Control_c, 0, 67, 48
1, 982699, Control_c, 0, 64, 65
1, 982699, Control_c, 0, 67, 48
1, 982714, Control_c, 0, 64, 67
1, 982714, Control_c, 0, 67, 47
1, 982729, Control_c, 0, 64, 70
1, 982744, Control_c, 0, 64, 73
1, 982744, Control_c, 0, 67, 46
1, 982746, Note_off_c, 0, 61, 63
1, 982759, Control_c, 0, 64, 75
1, 982773, Control_c, 0, 64, 77
1, 982786, Note_off_c, 0, 45, 55
1, 982788, Control_c, 0, 64, 78
1, 982803, Control_c, 0, 64, 79
1, 982803, Control_c, 0, 67, 46
1, 982936, Control_c, 0, 64, 78
1, 982951, Control_c, 0, 64, 78
1, 982965, Control_c, 0, 64, 77
1, 982980, Control_c, 0, 64, 76
1, 982983, Note_on_c, 0, 61, 45
1, 982992, Note_on_c, 0, 57, 38
1, 982995, Control_c, 0, 64, 75
1, 982995, Control_c, 0, 67, 46
1, 983010, Control_c, 0, 64, 73
1, 983021, Note_on_c, 0, 52, 41
1, 983025, Control_c, 0, 64, 71
1, 983040, Control_c, 0, 64, 69
1, 983051, Note_on_c, 0, 40, 30
1, 983054, Control_c, 0, 64, 67
1, 983069, Control_c, 0, 64, 64
1, 983084, Control_c, 0, 64, 59
1, 983084, Control_c, 0, 67, 47
1, 983099, Control_c, 0, 64, 54
1, 983114, Control_c, 0, 64, 46
1, 983129, Control_c, 0, 64, 29
1, 983144, Control_c, 0, 64, 0
1, 983248, Control_c, 0, 64, 35
1, 983248, Control_c, 0, 67, 46
1, 983263, Control_c, 0, 64, 49
1, 983278, Control_c, 0, 64, 59
1, 983278, Control_c, 0, 67, 46
1, 983293, Control_c, 0, 64, 63
1, 983308, Control_c, 0, 64, 64
1, 983322, Control_c, 0, 64, 65
1, 983337, Control_c, 0, 64, 66
1, 983352, Control_c, 0, 64, 68
1, 983374, Control_c, 0, 64, 69
1, 983374, Control_c, 0, 67, 45
1, 983389, Control_c, 0, 64, 70
1, 983391, Note_off_c, 0, 61, 36
1, 983403, Control_c, 0, 64, 71
1, 983582, Control_c, 0, 67, 46
1, 983597, Note_on_c, 0, 62, 41
1, 983597, Control_c, 0, 64, 70
1, 983612, Control_c, 0, 64, 70
1, 983612, Control_c, 0, 67, 46
1, 983627, Control_c, 0, 64, 69
1, 983641, Control_c, 0, 64, 67
1, 983641, Control_c, 0, 67, 47
1, 983656, Control_c, 0, 64, 65
1, 983656, Control_c, 0, 67, 48
1, 983671, Control_c, 0, 64, 62
1, 983686, Control_c, 0, 64, 56
1, 983689, Note_off_c, 0, 57, 43
1, 983696, Note_off_c, 0, 62, 50
1, 983701, Control_c, 0, 64, 44
1, 983701, Control_c, 0, 67, 48
1, 983715, Control_c, 0, 64, 0
1, 983730, Control_c, 0, 67, 49
1, 983739, Note_on_c, 0, 56, 33
1, 983751, Note_on_c, 0, 59, 15
1, 983775, Control_c, 0, 64, 27
1, 983775, Control_c, 0, 67, 48
1, 983789, Control_c, 0, 64, 42
1, 983804, Control_c, 0, 64, 54
1, 983804, Control_c, 0, 67, 48
1, 983819, Control_c, 0, 64, 61
1, 983819, Control_c, 0, 67, 47
1, 983833, Control_c, 0, 64, 65
1, 983833, Control_c, 0, 67, 46
1, 983848, Control_c, 0, 64, 66
1, 983848, Control_c, 0, 67, 46
1, 983852, Note_off_c, 0, 56, 50
1, 983863, Control_c, 0, 64, 68
1, 983863, Control_c, 0, 67, 45
1, 983871, Note_off_c, 0, 59, 43
1, 983878, Control_c, 0, 64, 70
1, 983878, Control_c, 0, 67, 45
1, 983886, Note_off_c, 0, 40, 40
1, 983893, Control_c, 0, 64, 72
1, 983898, Note_off_c, 0, 52, 36
1, 983907, Control_c, 0, 64, 74
1, 983922, Control_c, 0, 64, 75
1, 983922, Control_c, 0, 67, 43
1, 983953, Control_c, 0, 67, 43
1, 983968, Control_c, 0, 67, 42
1, 983998, Control_c, 0, 67, 42
1, 984027, Control_c, 0, 64, 74
1, 984042, Control_c, 0, 64, 73
1, 984042, Control_c, 0, 67, 41
1, 984056, Control_c, 0, 64, 72
1, 984071, Control_c, 0, 64, 70
1, 984086, Control_c, 0, 64, 66
1, 984101, Control_c, 0, 64, 62
1, 984124, Control_c, 0, 64, 56
1, 984138, Control_c, 0, 64, 49
1, 984153, Control_c, 0, 64, 34
1, 984168, Control_c, 0, 64, 0
1, 984271, Control_c, 0, 67, 41
1, 984887, Control_c, 0, 67, 39
1, 984902, Control_c, 0, 67, 33
1, 984915, Note_on_c, 0, 81, 64
1, 984917, Control_c, 0, 67, 0
1, 984920, Note_on_c, 0, 85, 68
1, 984923, Note_on_c, 0, 88, 69
1, 984932, Control_c, 0, 64, 41
1, 984939, Note_off_c, 0, 81, 68
1, 984943, Note_off_c, 0, 85, 70
1, 984947, Note_off_c, 0, 88, 70
1, 984947, Control_c, 0, 64, 59
1, 984961, Control_c, 0, 64, 61
1, 984976, Control_c, 0, 64, 63
1, 984991, Control_c, 0, 64, 66
1, 985006, Control_c, 0, 64, 68
1, 985020, Control_c, 0, 64, 69
1, 985035, Control_c, 0, 64, 70
1, 985050, Control_c, 0, 64, 73
1, 985065, Control_c, 0, 64, 76
1, 985080, Control_c, 0, 64, 76
1, 985094, Control_c, 0, 64, 71
1, 985109, Control_c, 0, 64, 60
1, 985124, Control_c, 0, 64, 35
1, 985129, Note_on_c, 0, 76, 62
1, 985131, Note_on_c, 0, 73, 55
1, 985132, Note_on_c, 0, 69, 56
1, 985139, Control_c, 0, 64, 0
1, 985153, Note_off_c, 0, 73, 65
1, 985154, Note_off_c, 0, 69, 60
1, 985155, Note_off_c, 0, 76, 66
1, 985272, Control_c, 0, 64, 29
1, 985329, Note_on_c, 0, 64, 55
1, 985330, Note_on_c, 0, 57, 51
1, 985331, Note_on_c, 0, 61, 53
1, 985355, Note_off_c, 0, 64, 58
1, 985356, Note_off_c, 0, 61, 63
1, 985359, Note_off_c, 0, 57, 64
1, 985420, Control_c, 0, 64, 31
1, 985435, Control_c, 0, 64, 32
1, 985450, Control_c, 0, 64, 34
1, 985509, Control_c, 0, 64, 33
1, 985520, Note_on_c, 0, 59, 61
1, 985524, Note_on_c, 0, 56, 56
1, 985524, Control_c, 0, 64, 33
1, 985526, Note_on_c, 0, 64, 56
1, 985543, Note_off_c, 0, 59, 64
1, 985549, Note_off_c, 0, 64, 62
1, 985556, Note_off_c, 0, 56, 64
1, 985599, Control_c, 0, 64, 32
1, 985666, Control_c, 0, 67, 34
1, 985681, Control_c, 0, 67, 46
1, 985696, Control_c, 0, 67, 53
1, 985710, Control_c, 0, 67, 55
1, 985716, Note_on_c, 0, 68, 53
1, 985719, Note_on_c, 0, 71, 59
1, 985738, Note_off_c, 0, 68, 63
1, 985740, Control_c, 0, 67, 57
1, 985752, Note_off_c, 0, 71, 64
1, 985755, Control_c, 0, 64, 32
1, 985799, Control_c, 0, 67, 56
1, 985800, Note_on_c, 0, 76, 67
1, 985814, Control_c, 0, 67, 56
1, 985829, Control_c, 0, 67, 55
1, 985838, Note_off_c, 0, 76, 62
1, 985843, Control_c, 0, 67, 54
1, 985858, Control_c, 0, 67, 53
1, 985873, Control_c, 0, 67, 53
1, 985882, Note_on_c, 0, 73, 64
1, 985888, Control_c, 0, 64, 30
1, 985889, Note_on_c, 0, 69, 61
1, 985894, Note_on_c, 0, 57, 53
1, 985899, Note_on_c, 0, 61, 42
1, 985899, Note_on_c, 0, 64, 42
1, 985903, Control_c, 0, 64, 0
1, 985908, Note_off_c, 0, 73, 68
1, 985916, Note_off_c, 0, 69, 66
1, 985925, Note_off_c, 0, 61, 58
1, 985925, Note_off_c, 0, 64, 57
1, 985931, Note_off_c, 0, 57, 63
1, 985932, Control_c, 0, 67, 52
1, 985964, Note_on_c, 0, 76, 65
1, 985991, Control_c, 0, 67, 53
1, 985992, Note_off_c, 0, 76, 67
1, 986050, Control_c, 0, 67, 52
1, 986065, Control_c, 0, 67, 51
1, 986071, Note_on_c, 0, 83, 77
1, 986076, Note_on_c, 0, 86, 84
1, 986080, Control_c, 0, 64, 30
1, 986080, Control_c, 0, 67, 50
1, 986085, Note_on_c, 0, 88, 81
1, 986095, Control_c, 0, 64, 58
1, 986102, Note_off_c, 0, 83, 62
1, 986107, Note_off_c, 0, 88, 69
1, 986110, Control_c, 0, 64, 66
1, 986119, Note_off_c, 0, 86, 63
1, 986125, Control_c, 0, 64, 70
1, 986140, Control_c, 0, 64, 73
1, 986155, Control_c, 0, 64, 79
1, 986169, Control_c, 0, 64, 84
1, 986184, Control_c, 0, 64, 96
1, 986199, Control_c, 0, 64, 103
1, 986199, Control_c, 0, 67, 50
1, 986229, Control_c, 0, 64, 99
1, 986229, Control_c, 0, 67, 51
1, 986243, Control_c, 0, 64, 86
1, 986258, Control_c, 0, 64, 73
1, 986258, Control_c, 0, 67, 52
1, 986273, Control_c, 0, 64, 64
1, 986273, Control_c, 0, 67, 53
1, 986288, Control_c, 0, 64, 53
1, 986298, Note_on_c, 0, 76, 76
1, 986303, Control_c, 0, 64, 43
1, 986303, Control_c, 0, 67, 54
1, 986304, Note_on_c, 0, 71, 73
1, 986304, Note_on_c, 0, 74, 70
1, 986317, Control_c, 0, 64, 33
1, 986321, Note_off_c, 0, 76, 66
1, 986327, Note_off_c, 0, 71, 67
1, 986329, Note_off_c, 0, 74, 68
1, 986333, Control_c, 0, 64, 30
1, 986333, Control_c, 0, 67, 54
1, 986348, Control_c, 0, 67, 55
1, 986370, Control_c, 0, 64, 32
1, 986370, Control_c, 0, 67, 56
1, 986385, Control_c, 0, 64, 33
1, 986385, Control_c, 0, 67, 58
1, 986400, Control_c, 0, 64, 34
1, 986400, Control_c, 0, 67, 61
1, 986414, Control_c, 0, 64, 38
1, 986414, Control_c, 0, 67, 75
1, 986429, Control_c, 0, 64, 44
1, 986429, Control_c, 0, 67, 123
1, 986444, Control_c, 0, 64, 48
1, 986444, Control_c, 0, 67, 127
1, 986458, Control_c, 0, 64, 49
1, 986473, Control_c, 0, 64, 50
1, 986488, Control_c, 0, 64, 52
1, 986503, Control_c, 0, 64, 54
1, 986513, Note_on_c, 0, 62, 66
1, 986513, Note_on_c, 0, 64, 63
1, 986515, Note_on_c, 0, 59, 53
1, 986518, Note_on_c, 0, 69, 32
1, 986518, Control_c, 0, 64, 54
1, 986541, Note_off_c, 0, 59, 59
1, 986544, Note_off_c, 0, 62, 64
1, 986552, Note_off_c, 0, 64, 60
1, 986552, Note_off_c, 0, 69, 32
1, 986562, Control_c, 0, 64, 54
1, 986592, Control_c, 0, 64, 53
1, 986606, Control_c, 0, 64, 52
1, 986621, Control_c, 0, 64, 52
1, 986651, Control_c, 0, 64, 51
1, 986665, Control_c, 0, 64, 50
1, 986680, Control_c, 0, 64, 49
1, 986683, Note_on_c, 0, 64, 77
1, 986686, Note_on_c, 0, 57, 72
1, 986688, Note_on_c, 0, 61, 71
1, 986695, Control_c, 0, 64, 46
1, 986706, Note_off_c, 0, 64, 71
1, 986710, Control_c, 0, 64, 39
1, 986712, Note_off_c, 0, 61, 67
1, 986716, Note_off_c, 0, 57, 68
1, 986725, Control_c, 0, 64, 30
1, 986739, Control_c, 0, 64, 0
1, 986888, Note_on_c, 0, 73, 70
1, 986889, Note_on_c, 0, 69, 54
1, 986912, Note_off_c, 0, 69, 61
1, 986918, Note_off_c, 0, 73, 63
1, 986962, Note_on_c, 0, 76, 71
1, 986995, Note_off_c, 0, 76, 65
1, 987050, Note_on_c, 0, 71, 72
1, 987057, Note_on_c, 0, 74, 86
1, 987067, Note_on_c, 0, 62, 45
1, 987069, Note_on_c, 0, 59, 53
1, 987070, Note_on_c, 0, 64, 53
1, 987075, Note_off_c, 0, 71, 66
1, 987090, Note_off_c, 0, 74, 63
1, 987092, Note_off_c, 0, 64, 63
1, 987094, Note_off_c, 0, 62, 55
1, 987108, Note_off_c, 0, 59, 65
1, 987162, Note_on_c, 0, 76, 42
1, 987180, Note_on_c, 0, 77, 20
1, 987190, Note_off_c, 0, 76, 58
1, 987221, Note_off_c, 0, 77, 29
1, 987237, Control_c, 0, 64, 31
1, 987252, Control_c, 0, 64, 59
1, 987256, Note_on_c, 0, 88, 73
1, 987257, Note_on_c, 0, 93, 76
1, 987264, Note_on_c, 0, 85, 49
1, 987267, Control_c, 0, 64, 66
1, 987276, Note_off_c, 0, 88, 73
1, 987277, Note_on_c, 0, 95, 55
1, 987278, Note_off_c, 0, 93, 69
1, 987282, Control_c, 0, 64, 69
1, 987285, Note_on_c, 0, 86, 41
1, 987287, Note_off_c, 0, 85, 41
1, 987296, Control_c, 0, 64, 71
1, 987299, Note_off_c, 0, 95, 43
1, 987311, Control_c, 0, 64, 75
1, 987312, Note_off_c, 0, 86, 56
1, 987326, Control_c, 0, 64, 79
1, 987341, Control_c, 0, 64, 82
1, 987356, Control_c, 0, 64, 84
1, 987371, Control_c, 0, 64, 86
1, 987386, Control_c, 0, 64, 91
1, 987401, Control_c, 0, 64, 96
1, 987415, Control_c, 0, 64, 95
1, 987430, Control_c, 0, 64, 80
1, 987441, Note_on_c, 0, 81, 74
1, 987443, Note_on_c, 0, 76, 75
1, 987445, Control_c, 0, 64, 59
1, 987445, Note_on_c, 0, 73, 72
1, 987460, Control_c, 0, 64, 0
1, 987461, Note_off_c, 0, 81, 72
1, 987467, Note_off_c, 0, 76, 69
1, 987468, Note_off_c, 0, 73, 70
1, 987534, Control_c, 0, 67, 103
1, 987549, Control_c, 0, 67, 51
1, 987563, Control_c, 0, 67, 0
1, 987616, Note_on_c, 0, 57, 60
1, 987626, Note_on_c, 0, 61, 50
1, 987647, Note_off_c, 0, 57, 65
1, 987650, Note_off_c, 0, 61, 59
1, 987824, Note_on_c, 0, 67, 56
1, 987825, Note_on_c, 0, 59, 50
1, 987837, Note_on_c, 0, 62, 45
1, 987991, Note_on_c, 0, 71, 62
1, 987993, Note_on_c, 0, 74, 68
1, 988015, Note_on_c, 0, 79, 49
1, 988019, Note_off_c, 0, 74, 69
1, 988021, Note_off_c, 0, 71, 65
1, 988044, Note_off_c, 0, 79, 66
1, 988185, Note_off_c, 0, 62, 61
1, 988185, Note_on_c, 0, 83, 67
1, 988185, Note_off_c, 0, 67, 62
1, 988189, Note_off_c, 0, 59, 64
1, 988190, Note_on_c, 0, 91, 81
1, 988194, Note_on_c, 0, 86, 69
1, 988208, Note_off_c, 0, 83, 69
1, 988216, Note_off_c, 0, 86, 71
1, 988226, Note_off_c, 0, 91, 66
1, 988366, Note_on_c, 0, 91, 79
1, 988393, Note_on_c, 0, 90, 82
1, 988408, Note_off_c, 0, 91, 66
1, 988458, Note_off_c, 0, 90, 65
1, 988459, Note_on_c, 0, 89, 87
1, 988515, Note_off_c, 0, 89, 60
1, 988548, Note_on_c, 0, 90, 91
1, 988551, Note_on_c, 0, 66, 67
1, 988554, Note_on_c, 0, 62, 59
1, 988566, Note_on_c, 0, 57, 45
1, 988581, Note_off_c, 0, 66, 67
1, 988585, Note_off_c, 0, 62, 63
1, 988593, Note_off_c, 0, 57, 59
1, 988630, Note_off_c, 0, 90, 64
1, 988639, Note_on_c, 0, 93, 83
1, 988704, Note_off_c, 0, 93, 61
1, 988721, Note_on_c, 0, 88, 85
1, 988747, Note_on_c, 0, 57, 48
1, 988748, Note_on_c, 0, 67, 63
1, 988755, Note_on_c, 0, 61, 56
1, 988769, Note_off_c, 0, 88, 63
1, 988776, Note_off_c, 0, 67, 66
1, 988780, Control_c, 0, 64, 27
1, 988786, Note_off_c, 0, 57, 64
1, 988790, Note_off_c, 0, 61, 63
1, 988809, Control_c, 0, 64, 30
1, 988826, Note_on_c, 0, 93, 78
1, 988898, Control_c, 0, 67, 35
1, 988913, Control_c, 0, 67, 49
1, 988928, Control_c, 0, 64, 32
1, 988928, Control_c, 0, 67, 68
1, 988930, Note_off_c, 0, 93, 61
1, 988932, Note_on_c, 0, 90, 72
1, 988942, Control_c, 0, 64, 35
1, 988942, Control_c, 0, 67, 95
1, 988957, Note_on_c, 0, 66, 43
1, 988957, Control_c, 0, 64, 39
1, 988957, Control_c, 0, 67, 120
1, 988972, Note_on_c, 0, 62, 38
1, 988972, Control_c, 0, 64, 45
1, 988972, Control_c, 0, 67, 127
1, 988986, Control_c, 0, 64, 52
1, 989001, Control_c, 0, 64, 56
1, 989016, Note_off_c, 0, 90, 63
1, 989016, Control_c, 0, 64, 57
1, 989022, Note_on_c, 0, 86, 68
1, 989031, Control_c, 0, 64, 59
1, 989046, Control_c, 0, 64, 61
1, 989061, Control_c, 0, 64, 62
1, 989067, Note_off_c, 0, 86, 63
1, 989076, Control_c, 0, 64, 64
1, 989091, Control_c, 0, 64, 65
1, 989106, Control_c, 0, 64, 66
1, 989111, Note_on_c, 0, 81, 59
1, 989121, Control_c, 0, 64, 67
1, 989135, Control_c, 0, 64, 69
1, 989150, Control_c, 0, 64, 71
1, 989161, Note_off_c, 0, 66, 61
1, 989162, Note_off_c, 0, 81, 60
1, 989165, Control_c, 0, 64, 72
1, 989188, Note_off_c, 0, 62, 33
1, 989198, Note_on_c, 0, 78, 64
1, 989209, Control_c, 0, 64, 70
1, 989224, Control_c, 0, 64, 63
1, 989239, Control_c, 0, 64, 47
1, 989253, Control_c, 0, 64, 0
1, 989267, Note_off_c, 0, 78, 61
1, 989297, Note_on_c, 0, 74, 49
1, 989321, Note_off_c, 0, 74, 57
1, 989479, Note_on_c, 0, 83, 73
1, 989481, Note_on_c, 0, 86, 74
1, 989483, Control_c, 0, 64, 30
1, 989488, Note_on_c, 0, 84, 66
1, 989488, Note_on_c, 0, 91, 86
1, 989498, Control_c, 0, 64, 53
1, 989501, Note_off_c, 0, 86, 73
1, 989506, Note_off_c, 0, 83, 66
1, 989508, Note_off_c, 0, 84, 67
1, 989510, Note_off_c, 0, 91, 69
1, 989513, Control_c, 0, 64, 61
1, 989529, Control_c, 0, 64, 64
1, 989544, Control_c, 0, 64, 66
1, 989558, Control_c, 0, 64, 67
1, 989573, Control_c, 0, 64, 68
1, 989588, Control_c, 0, 64, 69
1, 989602, Control_c, 0, 64, 70
1, 989617, Control_c, 0, 64, 71
1, 989647, Control_c, 0, 64, 70
1, 989662, Control_c, 0, 64, 68
1, 989672, Note_on_c, 0, 79, 78
1, 989677, Control_c, 0, 64, 62
1, 989678, Note_on_c, 0, 74, 71
1, 989680, Note_on_c, 0, 71, 70
1, 989689, Note_off_c, 0, 79, 74
1, 989691, Control_c, 0, 64, 49
1, 989695, Note_off_c, 0, 74, 67
1, 989698, Note_off_c, 0, 71, 65
1, 989706, Control_c, 0, 64, 0
1, 989857, Note_on_c, 0, 59, 57
1, 989860, Note_on_c, 0, 62, 52
1, 989883, Note_off_c, 0, 62, 63
1, 989890, Note_off_c, 0, 59, 64
1, 990063, Note_on_c, 0, 57, 41
1, 990065, Note_on_c, 0, 65, 40
1, 990074, Note_on_c, 0, 60, 35
1, 990231, Note_on_c, 0, 69, 54
1, 990233, Note_on_c, 0, 72, 53
1, 990252, Note_on_c, 0, 77, 46
1, 990253, Note_off_c, 0, 69, 60
1, 990256, Note_off_c, 0, 72, 62
1, 990276, Note_off_c, 0, 77, 63
1, 990381, Note_off_c, 0, 65, 63
1, 990393, Note_off_c, 0, 60, 57
1, 990399, Note_off_c, 0, 57, 64
1, 990419, Note_on_c, 0, 81, 63
1, 990426, Note_on_c, 0, 84, 68
1, 990432, Note_on_c, 0, 89, 68
1, 990444, Note_off_c, 0, 81, 67
1, 990448, Note_off_c, 0, 84, 70
1, 990458, Note_off_c, 0, 89, 66
1, 990601, Note_on_c, 0, 89, 79
1, 990629, Note_on_c, 0, 88, 81
1, 990687, Note_off_c, 0, 89, 57
1, 990697, Note_on_c, 0, 87, 74
1, 990699, Note_off_c, 0, 88, 65
1, 990785, Note_on_c, 0, 88, 84
1, 990788, Note_on_c, 0, 64, 57
1, 990789, Note_on_c, 0, 60, 51
1, 990793, Note_on_c, 0, 55, 56
1, 990795, Note_off_c, 0, 87, 62
1, 990817, Note_off_c, 0, 64, 66
1, 990819, Note_off_c, 0, 60, 66
1, 990821, Note_off_c, 0, 88, 69
1, 990829, Note_off_c, 0, 55, 61
1, 990890, Note_on_c, 0, 91, 71
1, 990960, Note_off_c, 0, 91, 64
1, 990977, Note_on_c, 0, 86, 76
1, 990979, Note_on_c, 0, 65, 53
1, 990983, Note_on_c, 0, 59, 44
1, 990993, Note_on_c, 0, 55, 31
1, 991002, Note_off_c, 0, 65, 61
1, 991010, Note_off_c, 0, 59, 58
1, 991016, Note_off_c, 0, 86, 62
1, 991032, Note_off_c, 0, 55, 50
1, 991079, Note_on_c, 0, 91, 61
1, 991174, Note_off_c, 0, 91, 57
1, 991189, Control_c, 0, 64, 40
1, 991192, Note_on_c, 0, 88, 62
1, 991204, Control_c, 0, 64, 50
1, 991213, Note_on_c, 0, 64, 35
1, 991219, Control_c, 0, 64, 58
1, 991222, Note_on_c, 0, 60, 31
1, 991234, Control_c, 0, 64, 62
1, 991248, Control_c, 0, 64, 64
1, 991258, Note_off_c, 0, 88, 63
1, 991263, Control_c, 0, 64, 65
1, 991270, Note_on_c, 0, 84, 62
1, 991278, Note_off_c, 0, 60, 64
1, 991278, Control_c, 0, 64, 67
1, 991282, Note_off_c, 0, 64, 64
1, 991293, Control_c, 0, 64, 68
1, 991308, Control_c, 0, 64, 70
1, 991318, Note_off_c, 0, 84, 60
1, 991322, Control_c, 0, 64, 71
1, 991337, Control_c, 0, 64, 72
1, 991352, Control_c, 0, 64, 73
1, 991359, Note_on_c, 0, 79, 57
1, 991367, Control_c, 0, 64, 74
1, 991381, Control_c, 0, 64, 74
1, 991401, Note_off_c, 0, 79, 55
1, 991441, Control_c, 0, 64, 74
1, 991455, Control_c, 0, 64, 73
1, 991461, Note_on_c, 0, 76, 66
1, 991470, Control_c, 0, 64, 70
1, 991485, Control_c, 0, 64, 65
1, 991500, Control_c, 0, 64, 56
1, 991515, Control_c, 0, 64, 38
1, 991525, Note_off_c, 0, 76, 59
1, 991529, Control_c, 0, 64, 0
1, 991556, Note_on_c, 0, 72, 47
1, 991581, Note_off_c, 0, 72, 56
1, 991744, Control_c, 0, 64, 28
1, 991759, Control_c, 0, 64, 39
1, 991774, Note_on_c, 0, 93, 61
1, 991774, Control_c, 0, 64, 50
1, 991788, Control_c, 0, 64, 58
1, 991797, Note_on_c, 0, 91, 65
1, 991801, Note_on_c, 0, 47, 43
1, 991803, Control_c, 0, 64, 61
1, 991818, Control_c, 0, 64, 62
1, 991833, Note_off_c, 0, 93, 60
1, 991833, Control_c, 0, 64, 63
1, 991848, Control_c, 0, 64, 64
1, 991863, Control_c, 0, 64, 66
1, 991878, Control_c, 0, 64, 68
1, 991893, Control_c, 0, 64, 68
1, 991894, Note_on_c, 0, 90, 77
1, 991899, Note_off_c, 0, 91, 67
1, 991908, Control_c, 0, 64, 69
1, 991923, Control_c, 0, 64, 70
1, 991938, Control_c, 0, 64, 71
1, 991952, Control_c, 0, 64, 72
1, 991982, Control_c, 0, 64, 72
1, 991984, Note_on_c, 0, 91, 84
1, 991985, Note_off_c, 0, 47, 32
1, 991985, Note_off_c, 0, 90, 64
1, 991994, Note_on_c, 0, 55, 48
1, 992012, Control_c, 0, 64, 73
1, 992069, Note_on_c, 0, 90, 82
1, 992076, Note_off_c, 0, 91, 62
1, 992148, Note_on_c, 0, 91, 80
1, 992164, Note_off_c, 0, 90, 62
1, 992175, Note_on_c, 0, 62, 56
1, 992204, Note_off_c, 0, 91, 66
1, 992217, Note_off_c, 0, 55, 33
1, 992231, Note_off_c, 0, 62, 50
1, 992244, Note_on_c, 0, 93, 79
1, 992266, Note_off_c, 0, 93, 67
1, 992293, Control_c, 0, 64, 72
1, 992308, Control_c, 0, 64, 71
1, 992323, Control_c, 0, 64, 70
1, 992338, Control_c, 0, 64, 66
1, 992360, Control_c, 0, 64, 59
1, 992362, Note_on_c, 0, 93, 84
1, 992375, Control_c, 0, 64, 43
1, 992379, Note_on_c, 0, 48, 58
1, 992390, Control_c, 0, 64, 0
1, 992446, Note_on_c, 0, 91, 82
1, 992464, Note_off_c, 0, 93, 63
1, 992478, Control_c, 0, 64, 42
1, 992493, Control_c, 0, 64, 57
1, 992508, Control_c, 0, 64, 64
1, 992523, Control_c, 0, 64, 66
1, 992530, Note_off_c, 0, 48, 57
1, 992532, Note_on_c, 0, 55, 64
1, 992535, Note_on_c, 0, 88, 83
1, 992538, Control_c, 0, 64, 67
1, 992541, Note_off_c, 0, 91, 67
1, 992552, Control_c, 0, 64, 68
1, 992567, Control_c, 0, 64, 70
1, 992582, Control_c, 0, 64, 72
1, 992597, Note_off_c, 0, 88, 67
1, 992597, Control_c, 0, 64, 73
1, 992611, Control_c, 0, 64, 74
1, 992613, Note_on_c, 0, 84, 76
1, 992644, Note_off_c, 0, 55, 60
1, 992656, Control_c, 0, 64, 74
1, 992661, Note_off_c, 0, 84, 64
1, 992716, Control_c, 0, 64, 74
1, 992717, Note_on_c, 0, 79, 74
1, 992721, Note_on_c, 0, 64, 61
1, 992731, Control_c, 0, 64, 72
1, 992737, Note_off_c, 0, 79, 74
1, 992746, Control_c, 0, 64, 69
1, 992761, Control_c, 0, 64, 65
1, 992763, Note_off_c, 0, 64, 59
1, 992775, Control_c, 0, 64, 60
1, 992790, Control_c, 0, 64, 55
1, 992805, Control_c, 0, 64, 53
1, 992820, Control_c, 0, 64, 52
1, 992835, Control_c, 0, 64, 50
1, 992850, Control_c, 0, 64, 47
1, 992865, Control_c, 0, 64, 41
1, 992879, Control_c, 0, 64, 0
1, 992921, Note_on_c, 0, 77, 71
1, 992921, Note_on_c, 0, 79, 67
1, 992933, Note_on_c, 0, 50, 58
1, 992945, Note_off_c, 0, 79, 70
1, 992945, Note_off_c, 0, 77, 70
1, 993011, Note_on_c, 0, 79, 76
1, 993011, Note_on_c, 0, 77, 81
1, 993028, Note_off_c, 0, 79, 74
1, 993030, Note_off_c, 0, 77, 72
1, 993087, Note_off_c, 0, 50, 54
1, 993103, Note_on_c, 0, 79, 82
1, 993107, Note_on_c, 0, 77, 82
1, 993118, Note_on_c, 0, 59, 59
1, 993128, Note_off_c, 0, 77, 70
1, 993129, Note_off_c, 0, 79, 61
1, 993192, Note_on_c, 0, 79, 74
1, 993196, Note_on_c, 0, 77, 78
1, 993217, Note_off_c, 0, 79, 65
1, 993221, Note_off_c, 0, 77, 65
1, 993291, Note_on_c, 0, 65, 57
1, 993294, Note_on_c, 0, 79, 63
1, 993300, Note_on_c, 0, 77, 58
1, 993311, Note_off_c, 0, 79, 69
1, 993319, Note_off_c, 0, 77, 63
1, 993347, Note_off_c, 0, 59, 61
1, 993369, Note_on_c, 0, 79, 73
1, 993378, Note_on_c, 0, 77, 70
1, 993393, Note_off_c, 0, 79, 64
1, 993401, Note_off_c, 0, 77, 71
1, 993441, Note_off_c, 0, 65, 34
1, 993502, Note_on_c, 0, 81, 60
1, 993503, Note_on_c, 0, 52, 49
1, 993505, Note_on_c, 0, 76, 60
1, 993559, Note_off_c, 0, 76, 60
1, 993580, Note_off_c, 0, 81, 60
1, 993596, Note_on_c, 0, 79, 62
1, 993663, Note_off_c, 0, 79, 62
1, 993684, Note_on_c, 0, 76, 68
1, 993699, Note_on_c, 0, 60, 46
1, 993720, Note_off_c, 0, 76, 63
1, 993765, Note_off_c, 0, 52, 36
1, 993778, Note_on_c, 0, 72, 53
1, 993812, Note_off_c, 0, 72, 59
1, 993871, Note_off_c, 0, 60, 57
1, 993872, Note_on_c, 0, 64, 53
1, 993894, Note_off_c, 0, 64, 64
1, 993897, Note_on_c, 0, 67, 15
1, 993941, Note_off_c, 0, 67, 28
1, 994096, Control_c, 0, 64, 32
1, 994103, Note_on_c, 0, 90, 56
1, 994111, Control_c, 0, 64, 42
1, 994125, Control_c, 0, 64, 51
1, 994128, Note_on_c, 0, 88, 64
1, 994133, Note_off_c, 0, 90, 63
1, 994134, Note_on_c, 0, 44, 44
1, 994140, Control_c, 0, 64, 55
1, 994155, Control_c, 0, 64, 56
1, 994184, Control_c, 0, 64, 55
1, 994199, Control_c, 0, 64, 51
1, 994204, Note_off_c, 0, 88, 63
1, 994214, Note_on_c, 0, 87, 61
1, 994214, Control_c, 0, 64, 45
1, 994229, Control_c, 0, 64, 35
1, 994243, Control_c, 0, 64, 0
1, 994282, Note_off_c, 0, 87, 63
1, 994296, Note_on_c, 0, 52, 49
1, 994309, Note_on_c, 0, 88, 70
1, 994319, Note_off_c, 0, 44, 37
1, 994367, Note_off_c, 0, 88, 63
1, 994388, Note_on_c, 0, 87, 69
1, 994458, Note_off_c, 0, 87, 62
1, 994469, Note_on_c, 0, 88, 72
1, 994482, Note_on_c, 0, 59, 50
1, 994490, Note_off_c, 0, 52, 49
1, 994530, Note_off_c, 0, 88, 63
1, 994559, Note_on_c, 0, 90, 65
1, 994596, Note_off_c, 0, 90, 64
1, 994637, Control_c, 0, 64, 34
1, 994652, Control_c, 0, 64, 45
1, 994665, Control_c, 0, 64, 52
1, 994677, Note_on_c, 0, 90, 72
1, 994680, Control_c, 0, 64, 55
1, 994695, Note_on_c, 0, 45, 50
1, 994695, Control_c, 0, 64, 56
1, 994710, Control_c, 0, 64, 56
1, 994720, Note_off_c, 0, 59, 37
1, 994725, Control_c, 0, 64, 57
1, 994740, Control_c, 0, 64, 57
1, 994766, Note_on_c, 0, 88, 72
1, 994776, Note_off_c, 0, 90, 59
1, 994828, Control_c, 0, 64, 57
1, 994840, Note_off_c, 0, 45, 59
1, 994843, Control_c, 0, 64, 56
1, 994850, Note_on_c, 0, 85, 70
1, 994858, Control_c, 0, 64, 54
1, 994863, Note_off_c, 0, 88, 62
1, 994871, Note_on_c, 0, 52, 52
1, 994872, Control_c, 0, 64, 52
1, 994887, Control_c, 0, 64, 45
1, 994902, Control_c, 0, 64, 28
1, 994907, Note_off_c, 0, 85, 64
1, 994916, Control_c, 0, 64, 0
1, 994934, Note_on_c, 0, 81, 59
1, 994960, Note_off_c, 0, 81, 67
1, 995049, Note_off_c, 0, 52, 60
1, 995050, Note_on_c, 0, 76, 53
1, 995059, Note_on_c, 0, 61, 39
1, 995069, Note_off_c, 0, 76, 61
1, 995096, Note_off_c, 0, 61, 51
1, 995257, Note_on_c, 0, 74, 73
1, 995262, Note_on_c, 0, 76, 65
1, 995264, Note_on_c, 0, 47, 49
1, 995280, Note_off_c, 0, 74, 70
1, 995281, Note_off_c, 0, 76, 67
1, 995347, Note_on_c, 0, 76, 80
1, 995365, Note_on_c, 0, 74, 67
1, 995371, Note_off_c, 0, 76, 67
1, 995391, Note_off_c, 0, 74, 68
1, 995432, Note_on_c, 0, 56, 59
1, 995440, Note_on_c, 0, 76, 82
1, 995448, Note_on_c, 0, 74, 71
1, 995460, Note_off_c, 0, 76, 70
1, 995469, Note_off_c, 0, 47, 34
1, 995471, Note_off_c, 0, 74, 70
1, 995527, Note_on_c, 0, 76, 84
1, 995530, Note_on_c, 0, 74, 77
1, 995552, Note_off_c, 0, 76, 61
1, 995554, Note_off_c, 0, 74, 66
1, 995614, Note_on_c, 0, 62, 53
1, 995628, Note_on_c, 0, 74, 61
1, 995631, Note_on_c, 0, 76, 60
1, 995646, Note_off_c, 0, 74, 63
1, 995649, Note_off_c, 0, 76, 65
1, 995682, Note_off_c, 0, 56, 57
1, 995708, Note_on_c, 0, 74, 79
1, 995713, Note_on_c, 0, 76, 74
1, 995732, Note_off_c, 0, 74, 64
1, 995741, Note_off_c, 0, 76, 62
1, 995872, Note_on_c, 0, 78, 62
1, 995877, Note_on_c, 0, 49, 45
1, 995907, Note_off_c, 0, 62, 35
1, 995924, Note_on_c, 0, 73, 35
1, 995955, Note_off_c, 0, 73, 59
1, 995971, Note_off_c, 0, 78, 57
1, 995972, Note_on_c, 0, 76, 69
1, 996057, Note_on_c, 0, 73, 58
1, 996060, Note_off_c, 0, 76, 64
1, 996078, Note_on_c, 0, 57, 52
1, 996096, Note_off_c, 0, 49, 52
1, 996120, Note_off_c, 0, 73, 62
1, 996156, Note_on_c, 0, 69, 49
1, 996228, Note_off_c, 0, 69, 60
1, 996240, Note_on_c, 0, 64, 53
1, 996243, Note_off_c, 0, 57, 63
1, 996244, Note_on_c, 0, 61, 51
1, 996262, Note_off_c, 0, 64, 60
1, 996267, Note_off_c, 0, 61, 59
1, 996400, Control_c, 0, 67, 124
1, 996415, Control_c, 0, 67, 0
1, 996422, Note_on_c, 0, 79, 73
1, 996424, Note_on_c, 0, 81, 85
1, 996424, Note_on_c, 0, 85, 86
1, 996430, Note_on_c, 0, 88, 91
1, 996445, Note_off_c, 0, 79, 68
1, 996454, Note_off_c, 0, 81, 67
1, 996462, Note_off_c, 0, 88, 66
1, 996466, Note_off_c, 0, 85, 65
1, 996617, Note_on_c, 0, 76, 89
1, 996621, Note_on_c, 0, 69, 85
1, 996621, Note_on_c, 0, 73, 82
1, 996622, Note_on_c, 0, 67, 85
1, 996638, Note_off_c, 0, 69, 74
1, 996640, Note_off_c, 0, 67, 73
1, 996646, Note_off_c, 0, 76, 62
1, 996647, Note_off_c, 0, 73, 63
1, 996808, Note_on_c, 0, 64, 81
1, 996811, Note_on_c, 0, 61, 74
1, 996813, Note_on_c, 0, 57, 74
1, 996830, Note_off_c, 0, 64, 72
1, 996843, Note_off_c, 0, 61, 68
1, 996850, Note_off_c, 0, 57, 69
1, 997008, Note_on_c, 0, 57, 93
1, 997008, Note_on_c, 0, 62, 97
1, 997013, Note_on_c, 0, 50, 82
1, 997027, Note_off_c, 0, 62, 71
1, 997029, Note_off_c, 0, 57, 73
1, 997038, Note_off_c, 0, 50, 70
1, 997166, Note_on_c, 0, 66, 60
1, 997171, Note_on_c, 0, 69, 50
1, 997172, Note_on_c, 0, 78, 76
1, 997185, Note_on_c, 0, 74, 42
1, 997186, Note_off_c, 0, 66, 63
1, 997195, Note_off_c, 0, 69, 59
1, 997201, Note_off_c, 0, 78, 64
1, 997212, Note_off_c, 0, 74, 51
1, 997326, Control_c, 0, 67, 52
1, 997341, Control_c, 0, 67, 79
1, 997356, Control_c, 0, 67, 97
1, 997360, Note_on_c, 0, 86, 80
1, 997363, Note_on_c, 0, 81, 63
1, 997371, Control_c, 0, 67, 110
1, 997378, Note_on_c, 0, 90, 57
1, 997381, Note_off_c, 0, 86, 69
1, 997386, Control_c, 0, 67, 121
1, 997389, Note_off_c, 0, 81, 66
1, 997391, Note_on_c, 0, 93, 61
1, 997395, Note_off_c, 0, 90, 64
1, 997400, Control_c, 0, 67, 127
1, 997408, Note_off_c, 0, 93, 62
1, 997579, Note_on_c, 0, 100, 83
1, 997581, Note_on_c, 0, 64, 57
1, 997595, Note_on_c, 0, 61, 51
1, 997601, Note_on_c, 0, 52, 49
1, 997609, Note_on_c, 0, 57, 32
1, 997610, Note_off_c, 0, 64, 63
1, 997618, Note_off_c, 0, 61, 61
1, 997619, Note_on_c, 0, 97, 77
1, 997634, Note_off_c, 0, 52, 64
1, 997641, Note_off_c, 0, 57, 45
1, 997649, Note_off_c, 0, 100, 66
1, 997667, Note_on_c, 0, 93, 79
1, 997670, Note_off_c, 0, 97, 65
1, 997709, Note_off_c, 0, 93, 62
1, 997780, Note_on_c, 0, 97, 88
1, 997781, Note_on_c, 0, 61, 69
1, 997784, Note_on_c, 0, 64, 69
1, 997792, Note_on_c, 0, 57, 46
1, 997795, Note_on_c, 0, 52, 59
1, 997803, Note_on_c, 0, 93, 85
1, 997810, Note_off_c, 0, 64, 67
1, 997810, Note_off_c, 0, 61, 66
1, 997815, Note_off_c, 0, 57, 60
1, 997825, Note_off_c, 0, 52, 64
1, 997837, Note_off_c, 0, 97, 64
1, 997856, Note_off_c, 0, 93, 62
1, 997865, Note_on_c, 0, 88, 70
1, 997886, Note_off_c, 0, 88, 72
1, 997962, Note_on_c, 0, 93, 85
1, 997983, Note_on_c, 0, 88, 73
1, 998020, Note_off_c, 0, 93, 64
1, 998042, Note_off_c, 0, 88, 67
1, 998048, Note_on_c, 0, 85, 69
1, 998073, Note_off_c, 0, 85, 68
1, 998147, Note_on_c, 0, 88, 85
1, 998163, Note_on_c, 0, 59, 64
1, 998165, Note_on_c, 0, 52, 63
1, 998169, Note_on_c, 0, 64, 55
1, 998180, Note_on_c, 0, 86, 78
1, 998186, Note_on_c, 0, 62, 42
1, 998191, Note_off_c, 0, 59, 66
1, 998196, Note_off_c, 0, 64, 56
1, 998202, Note_off_c, 0, 52, 61
1, 998206, Note_off_c, 0, 88, 67
1, 998215, Note_off_c, 0, 62, 55
1, 998221, Note_on_c, 0, 83, 80
1, 998232, Note_off_c, 0, 86, 65
1, 998257, Note_off_c, 0, 83, 66
1, 998346, Note_on_c, 0, 86, 83
1, 998360, Note_on_c, 0, 59, 60
1, 998363, Note_on_c, 0, 52, 69
1, 998363, Note_on_c, 0, 64, 63
1, 998376, Note_on_c, 0, 83, 77
1, 998379, Note_on_c, 0, 62, 53
1, 998395, Note_off_c, 0, 64, 67
1, 998397, Note_off_c, 0, 59, 67
1, 998400, Note_off_c, 0, 52, 66
1, 998403, Note_off_c, 0, 62, 59
1, 998415, Note_off_c, 0, 86, 65
1, 998435, Note_off_c, 0, 83, 64
1, 998445, Note_on_c, 0, 80, 72
1, 998469, Note_off_c, 0, 80, 66
1, 998520, Note_on_c, 0, 83, 81
1, 998551, Note_on_c, 0, 80, 75
1, 998560, Note_off_c, 0, 83, 66
1, 998576, Note_off_c, 0, 80, 66
1, 998582, Note_on_c, 0, 76, 68
1, 998606, Note_off_c, 0, 76, 68
1, 998720, Control_c, 0, 67, 90
1, 998728, Note_on_c, 0, 69, 93
1, 998731, Note_on_c, 0, 76, 75
1, 998733, Note_on_c, 0, 73, 81
1, 998734, Note_on_c, 0, 67, 89
1, 998735, Control_c, 0, 67, 0
1, 998761, Note_off_c, 0, 73, 65
1, 998761, Note_off_c, 0, 67, 63
1, 998763, Note_off_c, 0, 69, 65
1, 998763, Note_off_c, 0, 76, 67
1, 998925, Note_on_c, 0, 64, 82
1, 998928, Note_on_c, 0, 57, 77
1, 998928, Note_on_c, 0, 61, 77
1, 998930, Note_on_c, 0, 55, 79
1, 998952, Note_off_c, 0, 55, 67
1, 998955, Note_off_c, 0, 57, 66
1, 998960, Note_off_c, 0, 61, 65
1, 998963, Note_off_c, 0, 64, 63
1, 999121, Note_on_c, 0, 52, 88
1, 999124, Note_on_c, 0, 49, 81
1, 999124, Note_on_c, 0, 45, 77
1, 999146, Note_off_c, 0, 49, 69
1, 999149, Note_off_c, 0, 52, 67
1, 999153, Note_off_c, 0, 45, 68
1, 999312, Note_on_c, 0, 50, 95
1, 999312, Note_on_c, 0, 45, 95
1, 999315, Note_on_c, 0, 38, 88
1, 999331, Note_off_c, 0, 50, 73
1, 999333, Note_off_c, 0, 45, 71
1, 999343, Note_off_c, 0, 38, 67
1, 999395, Control_c, 0, 67, 57
1, 999410, Control_c, 0, 67, 91
1, 999425, Control_c, 0, 67, 112
1, 999440, Control_c, 0, 67, 120
1, 999455, Control_c, 0, 67, 124
1, 999462, Note_on_c, 0, 57, 52
1, 999467, Note_on_c, 0, 66, 79
1, 999469, Control_c, 0, 67, 127
1, 999474, Note_on_c, 0, 54, 37
1, 999474, Note_off_c, 0, 54, 127
1, 999487, Note_on_c, 0, 62, 30
1, 999488, Note_off_c, 0, 57, 57
1, 999491, Note_off_c, 0, 66, 70
1, 999525, Note_off_c, 0, 62, 30
1, 999644, Note_on_c, 0, 75, 49
1, 999667, Note_off_c, 0, 75, 52
1, 999670, Note_on_c, 0, 69, 67
1, 999675, Note_on_c, 0, 78, 63
1, 999679, Note_on_c, 0, 74, 62
1, 999691, Note_on_c, 0, 81, 72
1, 999694, Note_off_c, 0, 69, 69
1, 999704, Note_off_c, 0, 74, 65
1, 999708, Note_off_c, 0, 78, 61
1, 999713, Note_off_c, 0, 81, 70
1, 999923, Note_on_c, 0, 88, 71
1, 999932, Note_on_c, 0, 64, 57
1, 999948, Note_on_c, 0, 52, 43
1, 999953, Note_on_c, 0, 85, 69
1, 999953, Note_off_c, 0, 64, 63
1, 999953, Note_on_c, 0, 57, 32
1, 999954, Note_on_c, 0, 61, 33
1, 999965, Note_off_c, 0, 88, 67
1, 999979, Note_off_c, 0, 52, 62
1, 999986, Note_off_c, 0, 57, 46
1, 999988, Note_off_c, 0, 61, 46
1, 999995, Note_on_c, 0, 81, 70
1, 999998, Note_off_c, 0, 85, 64
1, 1000020, Note_off_c, 0, 81, 68
1, 1000119, Note_on_c, 0, 85, 75
1, 1000122, Note_on_c, 0, 61, 60
1, 1000133, Note_on_c, 0, 57, 45
1, 1000134, Note_on_c, 0, 64, 52
1, 1000137, Note_on_c, 0, 52, 51
1, 1000143, Note_on_c, 0, 81, 70
1, 1000150, Note_off_c, 0, 61, 65
1, 1000156, Note_off_c, 0, 57, 59
1, 1000158, Note_off_c, 0, 64, 59
1, 1000163, Note_off_c, 0, 52, 57
1, 1000169, Note_off_c, 0, 85, 63
1, 1000179, Note_off_c, 0, 81, 62
1, 1000198, Note_on_c, 0, 76, 61
1, 1000224, Note_off_c, 0, 76, 66
1, 1000303, Note_on_c, 0, 81, 73
1, 1000325, Note_on_c, 0, 76, 65
1, 1000359, Note_off_c, 0, 81, 64
1, 1000381, Note_on_c, 0, 73, 75
1, 1000383, Note_off_c, 0, 76, 65
1, 1000416, Note_off_c, 0, 73, 60
1, 1000490, Note_on_c, 0, 76, 92
1, 1000505, Note_on_c, 0, 59, 75
1, 1000511, Note_on_c, 0, 64, 67
1, 1000512, Note_on_c, 0, 52, 66
1, 1000515, Note_on_c, 0, 62, 65
1, 1000515, Note_on_c, 0, 74, 80
1, 1000535, Note_off_c, 0, 59, 66
1, 1000538, Note_off_c, 0, 64, 67
1, 1000543, Note_off_c, 0, 62, 65
1, 1000546, Note_off_c, 0, 52, 61
1, 1000555, Note_off_c, 0, 76, 64
1, 1000564, Note_on_c, 0, 71, 81
1, 1000568, Note_off_c, 0, 74, 65
1, 1000607, Note_off_c, 0, 71, 63
1, 1000681, Note_on_c, 0, 74, 89
1, 1000694, Note_on_c, 0, 59, 79
1, 1000699, Note_on_c, 0, 52, 70
1, 1000702, Note_on_c, 0, 64, 67
1, 1000716, Note_on_c, 0, 62, 56
1, 1000719, Note_on_c, 0, 71, 79
1, 1000728, Note_off_c, 0, 59, 67
1, 1000731, Note_off_c, 0, 64, 65
1, 1000740, Note_off_c, 0, 62, 59
1, 1000746, Note_off_c, 0, 52, 62
1, 1000752, Note_off_c, 0, 74, 65
1, 1000776, Note_on_c, 0, 68, 79
1, 1000778, Note_off_c, 0, 71, 64
1, 1000818, Note_off_c, 0, 68, 61
1, 1000876, Note_on_c, 0, 71, 82
1, 1000909, Note_on_c, 0, 68, 75
1, 1000922, Note_off_c, 0, 71, 61
1, 1000946, Note_off_c, 0, 68, 64
1, 1000951, Note_on_c, 0, 64, 67
1, 1000983, Note_off_c, 0, 64, 66
1, 1000997, Control_c, 0, 67, 124
1, 1001012, Control_c, 0, 67, 117
1, 1001027, Control_c, 0, 67, 89
1, 1001041, Control_c, 0, 67, 0
1, 1001051, Note_on_c, 0, 57, 84
1, 1001065, Note_on_c, 0, 69, 81
1, 1001086, Control_c, 0, 64, 58
1, 1001089, Note_on_c, 0, 52, 67
1, 1001095, Note_on_c, 0, 64, 64
1, 1001101, Control_c, 0, 64, 127
1, 1001125, Note_off_c, 0, 57, 63
1, 1001130, Note_off_c, 0, 69, 63
1, 1001153, Note_off_c, 0, 52, 63
1, 1001155, Note_on_c, 0, 61, 81
1, 1001157, Note_off_c, 0, 64, 66
1, 1001171, Note_on_c, 0, 50, 42
1, 1001172, Note_on_c, 0, 49, 37
1, 1001190, Control_c, 0, 64, 102
1, 1001194, Note_off_c, 0, 61, 62
1, 1001205, Control_c, 0, 64, 62
1, 1001210, Note_off_c, 0, 50, 52
1, 1001211, Note_off_c, 0, 49, 56
1, 1001220, Control_c, 0, 64, 0
1, 1001249, Control_c, 0, 67, 67
1, 1001253, Note_on_c, 0, 52, 86
1, 1001261, Note_on_c, 0, 64, 83
1, 1001264, Control_c, 0, 67, 84
1, 1001279, Control_c, 0, 64, 60
1, 1001279, Control_c, 0, 67, 56
1, 1001282, Note_on_c, 0, 61, 84
1, 1001293, Control_c, 0, 64, 127
1, 1001293, Control_c, 0, 67, 0
1, 1001304, Note_off_c, 0, 64, 62
1, 1001306, Note_on_c, 0, 49, 80
1, 1001321, Note_off_c, 0, 61, 67
1, 1001336, Note_off_c, 0, 52, 61
1, 1001342, Note_on_c, 0, 57, 76
1, 1001363, Note_on_c, 0, 45, 71
1, 1001374, Note_off_c, 0, 57, 63
1, 1001376, Note_off_c, 0, 49, 65
1, 1001394, Note_off_c, 0, 45, 66
1, 1001448, Control_c, 0, 64, 74
1, 1001463, Control_c, 0, 64, 0
1, 1001496, Note_on_c, 0, 45, 88
1, 1001497, Note_on_c, 0, 57, 70
1, 1001509, Control_c, 0, 64, 45
1, 1001524, Control_c, 0, 64, 127
1, 1001541, Note_on_c, 0, 52, 79
1, 1001555, Note_on_c, 0, 40, 70
1, 1001560, Note_off_c, 0, 45, 60
1, 1001563, Note_off_c, 0, 57, 63
1, 1001601, Note_on_c, 0, 49, 76
1, 1001605, Note_off_c, 0, 52, 65
1, 1001611, Note_on_c, 0, 37, 74
1, 1001619, Note_off_c, 0, 40, 61
1, 1001656, Note_off_c, 0, 49, 62
1, 1001671, Control_c, 0, 64, 107
1, 1001681, Note_off_c, 0, 37, 62
1, 1001686, Control_c, 0, 64, 61
1, 1001701, Control_c, 0, 64, 0
1, 1001730, Control_c, 0, 64, 48
1, 1001745, Control_c, 0, 64, 83
1, 1001754, Note_on_c, 0, 33, 106
1, 1001755, Note_on_c, 0, 45, 93
1, 1001760, Control_c, 0, 64, 127
1, 1001785, Note_on_c, 0, 35, 41
1, 1001785, Note_off_c, 0, 35, 127
1, 1001788, Note_off_c, 0, 45, 65
1, 1001798, Note_off_c, 0, 33, 63
1, 1001822, Poly_aftertouch_c, 0, 35, 0
1, 1001968, Control_c, 0, 64, 116
1, 1001982, Control_c, 0, 64, 95
1, 1001997, Control_c, 0, 64, 85
1, 1002012, Control_c, 0, 64, 80
1, 1002027, Control_c, 0, 64, 76
1, 1002042, Control_c, 0, 64, 71
1, 1002056, Control_c, 0, 64, 65
1, 1002071, Control_c, 0, 64, 61
1, 1002093, Control_c, 0, 64, 54
1, 1002108, Control_c, 0, 64, 34
1, 1002123, Control_c, 0, 64, 0
1, 1004082, Control_c, 0, 64, 29
1, 1004097, Control_c, 0, 64, 31
1, 1004111, Control_c, 0, 64, 35
1, 1004126, Control_c, 0, 64, 41
1, 1004141, Control_c, 0, 64, 49
1, 1004156, Control_c, 0, 64, 54
1, 1004156, Control_c, 0, 67, 50
1, 1004171, Control_c, 0, 64, 56
1, 1004171, Control_c, 0, 67, 73
1, 1004185, Control_c, 0, 64, 59
1, 1004185, Control_c, 0, 67, 95
1, 1004200, Control_c, 0, 64, 61
1, 1004200, Control_c, 0, 67, 115
1, 1004215, Control_c, 0, 64, 62
1, 1004215, Control_c, 0, 67, 127
1, 1004230, Control_c, 0, 64, 64
1, 1004245, Control_c, 0, 64, 65
1, 1004259, Control_c, 0, 64, 65
1, 1004274, Control_c, 0, 64, 66
1, 1004303, Control_c, 0, 64, 67
1, 1004375, Note_on_c, 0, 61, 41
1, 1004421, Note_on_c, 0, 45, 25
1, 1004459, Control_c, 0, 64, 67
1, 1004567, Note_off_c, 0, 61, 59
1, 1004612, Note_on_c, 0, 52, 23
1, 1004749, Note_on_c, 0, 64, 61
1, 1004756, Control_c, 0, 64, 67
1, 1004786, Note_on_c, 0, 57, 34
1, 1004786, Control_c, 0, 64, 66
1, 1004787, Note_off_c, 0, 52, 40
1, 1004788, Note_on_c, 0, 61, 45
1, 1004801, Control_c, 0, 64, 64
1, 1004815, Control_c, 0, 64, 58
1, 1004830, Control_c, 0, 64, 47
1, 1004845, Control_c, 0, 64, 36
1, 1004860, Control_c, 0, 64, 37
1, 1004875, Control_c, 0, 64, 44
1, 1004890, Control_c, 0, 64, 51
1, 1004904, Control_c, 0, 64, 58
1, 1004906, Note_on_c, 0, 52, 40
1, 1004919, Control_c, 0, 64, 63
1, 1004934, Control_c, 0, 64, 66
1, 1004949, Control_c, 0, 64, 70
1, 1004964, Control_c, 0, 64, 73
1, 1004969, Note_off_c, 0, 57, 42
1, 1004979, Control_c, 0, 64, 76
1, 1004994, Control_c, 0, 64, 79
1, 1005008, Control_c, 0, 64, 82
1, 1005023, Control_c, 0, 64, 84
1, 1005038, Control_c, 0, 64, 86
1, 1005047, Note_off_c, 0, 52, 58
1, 1005048, Note_on_c, 0, 49, 57
1, 1005053, Control_c, 0, 64, 86
1, 1005068, Control_c, 0, 64, 87
1, 1005104, Control_c, 0, 64, 87
1, 1005148, Control_c, 0, 64, 84
1, 1005158, Note_off_c, 0, 61, 33
1, 1005163, Control_c, 0, 64, 74
1, 1005178, Control_c, 0, 64, 66
1, 1005179, Note_on_c, 0, 52, 61
1, 1005193, Control_c, 0, 64, 63
1, 1005194, Note_off_c, 0, 45, 40
1, 1005198, Note_off_c, 0, 64, 38
1, 1005207, Control_c, 0, 64, 65
1, 1005222, Control_c, 0, 64, 69
1, 1005237, Control_c, 0, 64, 74
1, 1005251, Control_c, 0, 64, 77
1, 1005266, Control_c, 0, 64, 79
1, 1005281, Control_c, 0, 64, 80
1, 1005296, Control_c, 0, 64, 81
1, 1005310, Note_on_c, 0, 69, 73
1, 1005310, Note_off_c, 0, 52, 56
1, 1005311, Control_c, 0, 64, 81
1, 1005325, Note_on_c, 0, 57, 60
1, 1005325, Note_on_c, 0, 64, 58
1, 1005328, Note_on_c, 0, 61, 48
1, 1005363, Note_off_c, 0, 64, 64
1, 1005366, Note_off_c, 0, 61, 64
1, 1005414, Note_off_c, 0, 69, 57
1, 1005443, Note_off_c, 0, 57, 56
1, 1005444, Control_c, 0, 64, 81
1, 1005468, Note_on_c, 0, 52, 41
1, 1005474, Control_c, 0, 64, 80
1, 1005489, Control_c, 0, 64, 79
1, 1005504, Control_c, 0, 64, 78
1, 1005519, Control_c, 0, 64, 77
1, 1005524, Note_off_c, 0, 49, 58
1, 1005534, Control_c, 0, 64, 74
1, 1005548, Control_c, 0, 64, 72
1, 1005563, Control_c, 0, 64, 69
1, 1005578, Control_c, 0, 64, 66
1, 1005593, Control_c, 0, 64, 61
1, 1005608, Control_c, 0, 64, 53
1, 1005620, Note_on_c, 0, 69, 66
1, 1005623, Control_c, 0, 64, 38
1, 1005638, Control_c, 0, 64, 0
1, 1005644, Note_on_c, 0, 47, 50
1, 1005653, Note_off_c, 0, 52, 37
1, 1005663, Note_on_c, 0, 64, 39
1, 1005676, Note_on_c, 0, 62, 44
1, 1005756, Control_c, 0, 64, 32
1, 1005771, Control_c, 0, 64, 42
1, 1005773, Note_on_c, 0, 52, 48
1, 1005786, Control_c, 0, 64, 53
1, 1005801, Control_c, 0, 64, 60
1, 1005816, Control_c, 0, 64, 61
1, 1005837, Control_c, 0, 64, 61
1, 1005852, Control_c, 0, 64, 62
1, 1005867, Control_c, 0, 64, 63
1, 1005882, Control_c, 0, 64, 65
1, 1005897, Control_c, 0, 64, 66
1, 1005906, Note_off_c, 0, 52, 58
1, 1005913, Note_on_c, 0, 68, 63
1, 1005925, Note_on_c, 0, 56, 51
1, 1005926, Note_off_c, 0, 62, 33
1, 1005927, Control_c, 0, 64, 67
1, 1005930, Note_off_c, 0, 64, 60
1, 1005945, Note_off_c, 0, 69, 59
1, 1005999, Note_off_c, 0, 68, 58
1, 1006058, Note_on_c, 0, 52, 50
1, 1006075, Control_c, 0, 64, 66
1, 1006079, Note_off_c, 0, 56, 38
1, 1006092, Note_off_c, 0, 47, 37
1, 1006104, Control_c, 0, 64, 65
1, 1006119, Control_c, 0, 64, 64
1, 1006134, Control_c, 0, 64, 63
1, 1006149, Control_c, 0, 64, 61
1, 1006163, Control_c, 0, 64, 60
1, 1006178, Control_c, 0, 64, 58
1, 1006193, Control_c, 0, 64, 55
1, 1006208, Control_c, 0, 64, 50
1, 1006216, Note_off_c, 0, 52, 42
1, 1006221, Note_on_c, 0, 69, 49
1, 1006222, Control_c, 0, 64, 41
1, 1006237, Control_c, 0, 64, 0
1, 1006239, Note_on_c, 0, 49, 42
1, 1006243, Note_on_c, 0, 64, 44
1, 1006273, Note_on_c, 0, 61, 30
1, 1006395, Note_on_c, 0, 52, 32
1, 1006416, Control_c, 0, 64, 44
1, 1006431, Control_c, 0, 64, 58
1, 1006446, Control_c, 0, 64, 63
1, 1006460, Control_c, 0, 64, 65
1, 1006470, Note_off_c, 0, 61, 58
1, 1006475, Control_c, 0, 64, 66
1, 1006489, Note_off_c, 0, 64, 60
1, 1006490, Control_c, 0, 64, 69
1, 1006491, Note_off_c, 0, 52, 54
1, 1006496, Note_off_c, 0, 69, 59
1, 1006505, Control_c, 0, 64, 72
1, 1006520, Control_c, 0, 64, 75
1, 1006532, Note_on_c, 0, 57, 43
1, 1006535, Control_c, 0, 64, 77
1, 1006550, Control_c, 0, 64, 79
1, 1006565, Control_c, 0, 64, 80
1, 1006586, Control_c, 0, 64, 81
1, 1006601, Control_c, 0, 64, 81
1, 1006664, Note_on_c, 0, 52, 42
1, 1006673, Note_off_c, 0, 49, 54
1, 1006701, Note_off_c, 0, 57, 37
1, 1006720, Note_off_c, 0, 52, 56
1, 1006765, Control_c, 0, 64, 81
1, 1006779, Control_c, 0, 64, 80
1, 1006794, Control_c, 0, 64, 79
1, 1006809, Control_c, 0, 64, 77
1, 1006824, Control_c, 0, 64, 74
1, 1006833, Note_on_c, 0, 71, 61
1, 1006839, Control_c, 0, 64, 70
1, 1006854, Note_on_c, 0, 69, 42
1, 1006854, Control_c, 0, 64, 65
1, 1006869, Control_c, 0, 64, 57
1, 1006877, Note_on_c, 0, 50, 47
1, 1006883, Note_on_c, 0, 66, 44
1, 1006884, Control_c, 0, 64, 43
1, 1006899, Control_c, 0, 64, 0
1, 1006899, Control_c, 0, 67, 124
1, 1006913, Control_c, 0, 67, 121
1, 1006928, Control_c, 0, 67, 118
1, 1006943, Control_c, 0, 67, 113
1, 1006958, Control_c, 0, 67, 99
1, 1006973, Control_c, 0, 67, 73
1, 1006982, Note_on_c, 0, 54, 43
1, 1006987, Control_c, 0, 64, 40
1, 1006987, Control_c, 0, 67, 41
1, 1007002, Control_c, 0, 64, 55
1, 1007002, Control_c, 0, 67, 0
1, 1007017, Control_c, 0, 64, 62
1, 1007031, Control_c, 0, 64, 65
1, 1007046, Control_c, 0, 64, 67
1, 1007061, Control_c, 0, 64, 69
1, 1007076, Control_c, 0, 64, 72
1, 1007091, Control_c, 0, 64, 75
1, 1007106, Note_off_c, 0, 54, 56
1, 1007107, Control_c, 0, 64, 79
1, 1007107, Note_on_c, 0, 59, 56
1, 1007116, Note_off_c, 0, 66, 52
1, 1007120, Note_off_c, 0, 71, 58
1, 1007121, Control_c, 0, 64, 82
1, 1007136, Control_c, 0, 64, 85
1, 1007151, Control_c, 0, 64, 86
1, 1007159, Note_off_c, 0, 69, 45
1, 1007166, Control_c, 0, 64, 87
1, 1007181, Control_c, 0, 64, 87
1, 1007195, Control_c, 0, 64, 88
1, 1007229, Note_on_c, 0, 71, 75
1, 1007233, Note_on_c, 0, 54, 55
1, 1007233, Note_on_c, 0, 69, 52
1, 1007246, Note_on_c, 0, 66, 57
1, 1007253, Note_off_c, 0, 59, 37
1, 1007288, Note_off_c, 0, 66, 61
1, 1007315, Note_off_c, 0, 71, 60
1, 1007329, Note_off_c, 0, 69, 58
1, 1007366, Control_c, 0, 64, 87
1, 1007381, Control_c, 0, 64, 87
1, 1007394, Control_c, 0, 64, 84
1, 1007408, Note_on_c, 0, 73, 77
1, 1007408, Control_c, 0, 64, 77
1, 1007423, Control_c, 0, 64, 67
1, 1007427, Note_on_c, 0, 69, 51
1, 1007433, Note_on_c, 0, 51, 56
1, 1007438, Control_c, 0, 64, 50
1, 1007453, Control_c, 0, 64, 0
1, 1007454, Note_off_c, 0, 54, 37
1, 1007486, Note_off_c, 0, 50, 36
1, 1007496, Note_off_c, 0, 69, 63
1, 1007527, Control_c, 0, 64, 43
1, 1007537, Poly_aftertouch_c, 0, 66, 127
1, 1007542, Control_c, 0, 64, 58
1, 1007557, Control_c, 0, 64, 65
1, 1007562, Note_on_c, 0, 54, 49
1, 1007569, Poly_aftertouch_c, 0, 66, 0
1, 1007572, Control_c, 0, 64, 69
1, 1007587, Control_c, 0, 64, 71
1, 1007601, Control_c, 0, 64, 73
1, 1007616, Control_c, 0, 64, 76
1, 1007631, Control_c, 0, 64, 79
1, 1007646, Control_c, 0, 64, 82
1, 1007660, Control_c, 0, 64, 83
1, 1007674, Note_on_c, 0, 69, 75
1, 1007675, Control_c, 0, 64, 84
1, 1007677, Note_on_c, 0, 66, 63
1, 1007680, Note_off_c, 0, 54, 57
1, 1007690, Control_c, 0, 64, 85
1, 1007700, Note_on_c, 0, 61, 56
1, 1007713, Note_on_c, 0, 57, 49
1, 1007733, Note_off_c, 0, 73, 60
1, 1007746, Note_off_c, 0, 66, 63
1, 1007785, Note_off_c, 0, 69, 61
1, 1007787, Note_off_c, 0, 57, 62
1, 1007803, Note_on_c, 0, 54, 56
1, 1007803, Note_off_c, 0, 51, 61
1, 1007825, Note_off_c, 0, 54, 64
1, 1007832, Note_off_c, 0, 61, 62
1, 1007867, Control_c, 0, 64, 84
1, 1007898, Control_c, 0, 64, 83
1, 1007913, Control_c, 0, 64, 83
1, 1007928, Control_c, 0, 64, 82
1, 1007942, Control_c, 0, 64, 81
1, 1007957, Control_c, 0, 64, 80
1, 1007972, Control_c, 0, 64, 79
1, 1007987, Control_c, 0, 64, 77
1, 1008002, Control_c, 0, 64, 75
1, 1008008, Note_on_c, 0, 69, 61
1, 1008017, Control_c, 0, 64, 73
1, 1008025, Note_on_c, 0, 64, 47
1, 1008031, Control_c, 0, 64, 70
1, 1008046, Control_c, 0, 64, 64
1, 1008061, Control_c, 0, 64, 55
1, 1008082, Note_on_c, 0, 40, 41
1, 1008083, Control_c, 0, 64, 35
1, 1008098, Control_c, 0, 64, 0
1, 1008139, Poly_aftertouch_c, 0, 61, 127
1, 1008157, Control_c, 0, 64, 29
1, 1008172, Control_c, 0, 64, 48
1, 1008186, Poly_aftertouch_c, 0, 61, 0
1, 1008187, Control_c, 0, 64, 61
1, 1008202, Control_c, 0, 64, 65
1, 1008215, Note_on_c, 0, 52, 40
1, 1008217, Control_c, 0, 64, 67
1, 1008224, Note_off_c, 0, 40, 59
1, 1008231, Control_c, 0, 64, 69
1, 1008246, Control_c, 0, 64, 72
1, 1008261, Control_c, 0, 64, 75
1, 1008263, Note_off_c, 0, 52, 61
1, 1008276, Control_c, 0, 64, 77
1, 1008291, Control_c, 0, 64, 79
1, 1008306, Control_c, 0, 64, 79
1, 1008339, Note_on_c, 0, 57, 53
1, 1008439, Control_c, 0, 64, 79
1, 1008445, Note_off_c, 0, 64, 51
1, 1008468, Note_on_c, 0, 61, 56
1, 1008469, Note_off_c, 0, 57, 55
1, 1008469, Control_c, 0, 64, 78
1, 1008483, Control_c, 0, 64, 77
1, 1008483, Control_c, 0, 67, 38
1, 1008498, Control_c, 0, 64, 76
1, 1008498, Control_c, 0, 67, 57
1, 1008513, Control_c, 0, 64, 75
1, 1008513, Control_c, 0, 67, 67
1, 1008528, Control_c, 0, 64, 74
1, 1008528, Control_c, 0, 67, 72
1, 1008543, Control_c, 0, 64, 73
1, 1008543, Control_c, 0, 67, 76
1, 1008557, Control_c, 0, 64, 71
1, 1008557, Control_c, 0, 67, 79
1, 1008562, Note_off_c, 0, 61, 62
1, 1008572, Control_c, 0, 64, 70
1, 1008572, Control_c, 0, 67, 83
1, 1008587, Control_c, 0, 64, 68
1, 1008587, Control_c, 0, 67, 87
1, 1008602, Control_c, 0, 64, 65
1, 1008602, Control_c, 0, 67, 88
1, 1008617, Control_c, 0, 64, 63
1, 1008631, Control_c, 0, 64, 60
1, 1008634, Note_on_c, 0, 68, 57
1, 1008646, Control_c, 0, 64, 57
1, 1008660, Note_on_c, 0, 59, 46
1, 1008661, Control_c, 0, 64, 53
1, 1008675, Control_c, 0, 64, 46
1, 1008690, Control_c, 0, 64, 35
1, 1008690, Control_c, 0, 67, 89
1, 1008706, Control_c, 0, 64, 0
1, 1008736, Control_c, 0, 67, 90
1, 1008752, Note_on_c, 0, 66, 73
1, 1008762, Note_off_c, 0, 69, 52
1, 1008768, Note_on_c, 0, 62, 53
1, 1008770, Note_off_c, 0, 59, 50
1, 1008780, Control_c, 0, 67, 91
1, 1008810, Control_c, 0, 67, 92
1, 1008833, Control_c, 0, 67, 93
1, 1008848, Control_c, 0, 64, 42
1, 1008862, Control_c, 0, 64, 54
1, 1008877, Control_c, 0, 64, 61
1, 1008884, Note_off_c, 0, 62, 60
1, 1008891, Note_off_c, 0, 68, 53
1, 1008892, Control_c, 0, 64, 64
1, 1008894, Note_on_c, 0, 64, 70
1, 1008906, Control_c, 0, 64, 66
1, 1008908, Note_on_c, 0, 61, 53
1, 1008921, Control_c, 0, 64, 67
1, 1008921, Control_c, 0, 67, 92
1, 1008936, Control_c, 0, 64, 68
1, 1008936, Control_c, 0, 67, 91
1, 1008941, Note_off_c, 0, 66, 63
1, 1008951, Control_c, 0, 64, 70
1, 1008951, Control_c, 0, 67, 91
1, 1008966, Control_c, 0, 64, 71
1, 1008966, Control_c, 0, 67, 90
1, 1008995, Note_off_c, 0, 61, 64
1, 1009005, Note_on_c, 0, 59, 57
1, 1009009, Note_off_c, 0, 64, 61
1, 1009009, Note_on_c, 0, 62, 65
1, 1009010, Control_c, 0, 64, 71
1, 1009026, Note_off_c, 0, 59, 64
1, 1009040, Control_c, 0, 67, 90
1, 1009069, Control_c, 0, 64, 71
1, 1009083, Note_off_c, 0, 62, 58
1, 1009113, Control_c, 0, 64, 70
1, 1009128, Control_c, 0, 64, 70
1, 1009143, Control_c, 0, 64, 68
1, 1009158, Control_c, 0, 64, 66
1, 1009173, Control_c, 0, 64, 63
1, 1009188, Control_c, 0, 64, 59
1, 1009191, Note_on_c, 0, 61, 54
1, 1009203, Control_c, 0, 64, 54
1, 1009218, Control_c, 0, 64, 47
1, 1009233, Control_c, 0, 64, 37
1, 1009241, Note_on_c, 0, 45, 42
1, 1009247, Control_c, 0, 64, 0
1, 1009274, Note_off_c, 0, 61, 61
1, 1009351, Control_c, 0, 67, 89
1, 1009376, Note_on_c, 0, 52, 39
1, 1009395, Control_c, 0, 67, 88
1, 1009512, Note_off_c, 0, 52, 57
1, 1009513, Note_on_c, 0, 64, 54
1, 1009532, Note_on_c, 0, 61, 40
1, 1009534, Note_on_c, 0, 57, 39
1, 1009581, Control_c, 0, 67, 88
1, 1009653, Note_off_c, 0, 57, 53
1, 1009656, Control_c, 0, 64, 37
1, 1009670, Note_on_c, 0, 52, 42
1, 1009671, Control_c, 0, 64, 46
1, 1009686, Control_c, 0, 64, 55
1, 1009686, Control_c, 0, 67, 88
1, 1009701, Control_c, 0, 64, 60
1, 1009716, Control_c, 0, 64, 61
1, 1009716, Control_c, 0, 67, 89
1, 1009730, Control_c, 0, 64, 62
1, 1009730, Control_c, 0, 67, 90
1, 1009745, Control_c, 0, 64, 64
1, 1009760, Control_c, 0, 64, 67
1, 1009760, Control_c, 0, 67, 90
1, 1009775, Control_c, 0, 64, 70
1, 1009790, Control_c, 0, 64, 72
1, 1009804, Control_c, 0, 64, 72
1, 1009809, Note_on_c, 0, 49, 55
1, 1009819, Control_c, 0, 64, 72
1, 1009834, Control_c, 0, 64, 69
1, 1009834, Control_c, 0, 67, 91
1, 1009841, Note_off_c, 0, 45, 34
1, 1009848, Control_c, 0, 64, 65
1, 1009863, Control_c, 0, 64, 64
1, 1009878, Control_c, 0, 67, 93
1, 1009893, Control_c, 0, 64, 66
1, 1009908, Control_c, 0, 64, 67
1, 1009919, Note_off_c, 0, 52, 0
1, 1009922, Control_c, 0, 64, 69
1, 1009937, Control_c, 0, 64, 70
1, 1009938, Note_on_c, 0, 52, 30
1, 1009952, Control_c, 0, 64, 71
1, 1009967, Note_off_c, 0, 61, 37
1, 1009967, Control_c, 0, 64, 72
1, 1009982, Control_c, 0, 64, 73
1, 1009990, Note_off_c, 0, 64, 54
1, 1009996, Control_c, 0, 64, 75
1, 1010011, Control_c, 0, 64, 78
1, 1010011, Control_c, 0, 67, 93
1, 1010026, Control_c, 0, 64, 80
1, 1010041, Control_c, 0, 64, 81
1, 1010055, Control_c, 0, 64, 81
1, 1010079, Note_on_c, 0, 69, 69
1, 1010086, Note_on_c, 0, 64, 46
1, 1010088, Note_on_c, 0, 61, 56
1, 1010094, Note_on_c, 0, 57, 57
1, 1010105, Note_off_c, 0, 52, 36
1, 1010145, Note_off_c, 0, 61, 59
1, 1010156, Note_off_c, 0, 64, 63
1, 1010175, Control_c, 0, 67, 93
1, 1010183, Note_off_c, 0, 69, 54
1, 1010204, Control_c, 0, 67, 92
1, 1010210, Note_off_c, 0, 57, 57
1, 1010219, Control_c, 0, 64, 81
1, 1010222, Note_on_c, 0, 52, 48
1, 1010234, Control_c, 0, 64, 80
1, 1010248, Control_c, 0, 64, 80
1, 1010263, Control_c, 0, 64, 79
1, 1010278, Control_c, 0, 64, 78
1, 1010282, Note_off_c, 0, 49, 57
1, 1010294, Control_c, 0, 64, 77
1, 1010309, Control_c, 0, 64, 76
1, 1010331, Control_c, 0, 64, 74
1, 1010346, Control_c, 0, 64, 73
1, 1010360, Control_c, 0, 64, 70
1, 1010375, Control_c, 0, 64, 64
1, 1010390, Control_c, 0, 64, 54
1, 1010395, Note_off_c, 0, 52, 32
1, 1010405, Control_c, 0, 64, 35
1, 1010407, Note_on_c, 0, 69, 53
1, 1010415, Note_on_c, 0, 64, 45
1, 1010420, Note_on_c, 0, 47, 46
1, 1010420, Control_c, 0, 64, 0
1, 1010437, Note_on_c, 0, 62, 42
1, 1010464, Control_c, 0, 64, 29
1, 1010464, Control_c, 0, 67, 91
1, 1010479, Control_c, 0, 64, 39
1, 1010494, Control_c, 0, 64, 49
1, 1010509, Control_c, 0, 64, 58
1, 1010509, Control_c, 0, 67, 91
1, 1010523, Control_c, 0, 64, 61
1, 1010523, Control_c, 0, 67, 90
1, 1010538, Control_c, 0, 64, 62
1, 1010538, Control_c, 0, 67, 90
1, 1010553, Control_c, 0, 64, 63
1, 1010553, Control_c, 0, 67, 89
1, 1010559, Note_on_c, 0, 52, 44
1, 1010568, Control_c, 0, 64, 65
1, 1010568, Control_c, 0, 67, 88
1, 1010583, Control_c, 0, 64, 66
1, 1010583, Control_c, 0, 67, 87
1, 1010598, Control_c, 0, 64, 67
1, 1010598, Control_c, 0, 67, 87
1, 1010613, Control_c, 0, 67, 86
1, 1010627, Control_c, 0, 64, 67
1, 1010627, Control_c, 0, 67, 86
1, 1010642, Control_c, 0, 67, 84
1, 1010671, Control_c, 0, 64, 67
1, 1010684, Note_off_c, 0, 52, 54
1, 1010686, Control_c, 0, 64, 65
1, 1010700, Note_on_c, 0, 68, 54
1, 1010701, Control_c, 0, 64, 61
1, 1010709, Note_on_c, 0, 56, 42
1, 1010716, Control_c, 0, 64, 51
1, 1010716, Control_c, 0, 67, 86
1, 1010717, Note_off_c, 0, 69, 58
1, 1010731, Control_c, 0, 64, 35
1, 1010731, Control_c, 0, 67, 86
1, 1010733, Note_off_c, 0, 64, 38
1, 1010744, Note_off_c, 0, 62, 60
1, 1010745, Control_c, 0, 64, 0
1, 1010745, Control_c, 0, 67, 87
1, 1010760, Control_c, 0, 67, 87
1, 1010784, Note_off_c, 0, 68, 57
1, 1010790, Control_c, 0, 67, 88
1, 1010805, Control_c, 0, 67, 88
1, 1010834, Control_c, 0, 67, 89
1, 1010838, Note_off_c, 0, 56, 34
1, 1010841, Note_on_c, 0, 52, 41
1, 1010860, Note_off_c, 0, 47, 56
1, 1010908, Control_c, 0, 67, 88
1, 1010968, Control_c, 0, 67, 88
1, 1010997, Control_c, 0, 67, 87
1, 1011010, Note_off_c, 0, 52, 36
1, 1011029, Note_on_c, 0, 69, 49
1, 1011040, Note_on_c, 0, 49, 36
1, 1011042, Control_c, 0, 67, 87
1, 1011044, Note_on_c, 0, 64, 42
1, 1011048, Note_on_c, 0, 61, 35
1, 1011169, Control_c, 0, 64, 39
1, 1011169, Control_c, 0, 67, 86
1, 1011182, Note_on_c, 0, 52, 43
1, 1011183, Control_c, 0, 64, 58
1, 1011183, Control_c, 0, 67, 86
1, 1011198, Control_c, 0, 64, 62
1, 1011198, Control_c, 0, 67, 85
1, 1011213, Control_c, 0, 64, 64
1, 1011228, Control_c, 0, 64, 65
1, 1011243, Note_off_c, 0, 61, 59
1, 1011243, Control_c, 0, 64, 69
1, 1011254, Note_off_c, 0, 64, 63
1, 1011257, Control_c, 0, 64, 73
1, 1011260, Note_off_c, 0, 69, 59
1, 1011272, Control_c, 0, 64, 78
1, 1011287, Control_c, 0, 64, 81
1, 1011301, Control_c, 0, 64, 83
1, 1011315, Note_off_c, 0, 52, 58
1, 1011316, Control_c, 0, 64, 85
1, 1011330, Note_on_c, 0, 57, 49
1, 1011331, Control_c, 0, 64, 85
1, 1011331, Control_c, 0, 67, 86
1, 1011346, Control_c, 0, 64, 86
1, 1011361, Control_c, 0, 64, 87
1, 1011361, Control_c, 0, 67, 87
1, 1011376, Control_c, 0, 67, 89
1, 1011391, Control_c, 0, 64, 87
1, 1011391, Control_c, 0, 67, 90
1, 1011406, Control_c, 0, 67, 91
1, 1011447, Note_off_c, 0, 57, 56
1, 1011450, Control_c, 0, 67, 91
1, 1011455, Note_on_c, 0, 52, 43
1, 1011480, Control_c, 0, 67, 90
1, 1011494, Control_c, 0, 64, 88
1, 1011494, Control_c, 0, 67, 90
1, 1011504, Note_off_c, 0, 49, 41
1, 1011516, Note_off_c, 0, 52, 53
1, 1011554, Control_c, 0, 64, 82
1, 1011568, Control_c, 0, 64, 70
1, 1011583, Control_c, 0, 64, 52
1, 1011598, Control_c, 0, 64, 37
1, 1011606, Note_on_c, 0, 71, 63
1, 1011607, Note_on_c, 0, 66, 54
1, 1011610, Note_on_c, 0, 50, 59
1, 1011613, Control_c, 0, 64, 38
1, 1011620, Note_on_c, 0, 69, 43
1, 1011627, Control_c, 0, 64, 49
1, 1011642, Control_c, 0, 64, 60
1, 1011657, Control_c, 0, 64, 64
1, 1011672, Control_c, 0, 64, 67
1, 1011672, Control_c, 0, 67, 88
1, 1011687, Control_c, 0, 64, 72
1, 1011687, Control_c, 0, 67, 87
1, 1011698, Note_off_c, 0, 66, 59
1, 1011701, Control_c, 0, 64, 78
1, 1011701, Control_c, 0, 67, 86
1, 1011710, Note_off_c, 0, 71, 56
1, 1011716, Control_c, 0, 64, 86
1, 1011716, Control_c, 0, 67, 85
1, 1011731, Control_c, 0, 64, 97
1, 1011731, Control_c, 0, 67, 84
1, 1011732, Note_off_c, 0, 69, 49
1, 1011746, Control_c, 0, 64, 127
1, 1011746, Control_c, 0, 67, 84
1, 1011753, Note_on_c, 0, 54, 54
1, 1011775, Control_c, 0, 67, 85
1, 1011790, Control_c, 0, 64, 90
1, 1011790, Control_c, 0, 67, 86
1, 1011798, Note_off_c, 0, 50, 61
1, 1011805, Control_c, 0, 64, 65
1, 1011805, Control_c, 0, 67, 87
1, 1011827, Control_c, 0, 64, 33
1, 1011827, Control_c, 0, 67, 88
1, 1011829, Note_off_c, 0, 54, 60
1, 1011842, Control_c, 0, 64, 0
1, 1011842, Control_c, 0, 67, 89
1, 1011890, Note_on_c, 0, 73, 58
1, 1011895, Note_on_c, 0, 69, 46
1, 1011895, Note_on_c, 0, 64, 59
1, 1011901, Note_on_c, 0, 49, 59
1, 1011903, Note_on_c, 0, 57, 53
1, 1011924, Note_off_c, 0, 64, 66
1, 1011929, Note_off_c, 0, 73, 58
1, 1011930, Note_off_c, 0, 57, 59
1, 1011936, Note_off_c, 0, 69, 59
1, 1011939, Note_off_c, 0, 49, 60
1, 1011946, Control_c, 0, 67, 88
1, 1011961, Control_c, 0, 67, 88
1, 1011990, Control_c, 0, 67, 88
1, 1012005, Control_c, 0, 67, 89
1, 1012034, Note_on_c, 0, 74, 66
1, 1012038, Note_on_c, 0, 62, 57
1, 1012041, Note_on_c, 0, 69, 45
1, 1012043, Note_on_c, 0, 57, 42
1, 1012050, Control_c, 0, 67, 90
1, 1012054, Note_on_c, 0, 47, 54
1, 1012066, Note_off_c, 0, 62, 62
1, 1012084, Note_off_c, 0, 57, 60
1, 1012086, Note_off_c, 0, 74, 57
1, 1012091, Note_off_c, 0, 69, 52
1, 1012097, Note_off_c, 0, 47, 60
1, 1012213, Control_c, 0, 64, 38
1, 1012220, Note_on_c, 0, 73, 55
1, 1012228, Control_c, 0, 64, 48
1, 1012228, Control_c, 0, 67, 89
1, 1012232, Note_on_c, 0, 64, 44
1, 1012232, Note_on_c, 0, 69, 27
1, 1012237, Note_on_c, 0, 49, 42
1, 1012242, Control_c, 0, 64, 55
1, 1012242, Control_c, 0, 67, 87
1, 1012257, Control_c, 0, 64, 58
1, 1012257, Control_c, 0, 67, 85
1, 1012272, Control_c, 0, 64, 59
1, 1012272, Control_c, 0, 67, 82
1, 1012287, Control_c, 0, 64, 61
1, 1012287, Control_c, 0, 67, 79
1, 1012302, Control_c, 0, 64, 63
1, 1012302, Control_c, 0, 67, 76
1, 1012312, Note_off_c, 0, 73, 62
1, 1012316, Control_c, 0, 64, 66
1, 1012316, Control_c, 0, 67, 75
1, 1012324, Note_off_c, 0, 64, 61
1, 1012326, Note_off_c, 0, 69, 52
1, 1012331, Control_c, 0, 64, 70
1, 1012346, Control_c, 0, 64, 73
1, 1012346, Control_c, 0, 67, 78
1, 1012361, Control_c, 0, 64, 74
1, 1012361, Control_c, 0, 67, 81
1, 1012366, Note_on_c, 0, 57, 54
1, 1012376, Control_c, 0, 67, 86
1, 1012390, Control_c, 0, 64, 70
1, 1012390, Control_c, 0, 67, 88
1, 1012399, Note_off_c, 0, 49, 53
1, 1012399, Note_off_c, 0, 57, 65
1, 1012405, Control_c, 0, 64, 60
1, 1012405, Control_c, 0, 67, 90
1, 1012420, Control_c, 0, 64, 39
1, 1012420, Control_c, 0, 67, 91
1, 1012435, Control_c, 0, 64, 0
1, 1012479, Control_c, 0, 64, 41
1, 1012494, Control_c, 0, 64, 55
1, 1012494, Control_c, 0, 67, 92
1, 1012502, Note_on_c, 0, 71, 61
1, 1012509, Control_c, 0, 64, 61
1, 1012509, Control_c, 0, 67, 93
1, 1012511, Note_on_c, 0, 64, 50
1, 1012520, Note_on_c, 0, 62, 44
1, 1012521, Note_on_c, 0, 52, 53
1, 1012524, Control_c, 0, 64, 63
1, 1012524, Control_c, 0, 67, 93
1, 1012539, Control_c, 0, 64, 64
1, 1012539, Control_c, 0, 67, 94
1, 1012553, Control_c, 0, 64, 65
1, 1012553, Control_c, 0, 67, 95
1, 1012576, Control_c, 0, 64, 67
1, 1012576, Control_c, 0, 67, 95
1, 1012591, Control_c, 0, 64, 68
1, 1012605, Control_c, 0, 64, 68
1, 1012625, Note_off_c, 0, 62, 59
1, 1012648, Note_off_c, 0, 64, 62
1, 1012653, Note_off_c, 0, 71, 60
1, 1012655, Note_on_c, 0, 56, 49
1, 1012664, Note_off_c, 0, 52, 49
1, 1012680, Control_c, 0, 64, 68
1, 1012696, Control_c, 0, 64, 67
1, 1012711, Control_c, 0, 64, 66
1, 1012714, Note_off_c, 0, 56, 56
1, 1012726, Control_c, 0, 64, 66
1, 1012740, Control_c, 0, 64, 65
1, 1012755, Control_c, 0, 64, 65
1, 1012770, Control_c, 0, 64, 63
1, 1012785, Control_c, 0, 64, 62
1, 1012800, Control_c, 0, 64, 61
1, 1012814, Control_c, 0, 64, 58
1, 1012829, Control_c, 0, 64, 55
1, 1012843, Note_on_c, 0, 71, 55
1, 1012844, Control_c, 0, 64, 51
1, 1012857, Note_on_c, 0, 62, 38
1, 1012859, Control_c, 0, 64, 47
1, 1012859, Control_c, 0, 67, 95
1, 1012860, Note_on_c, 0, 64, 45
1, 1012869, Note_on_c, 0, 45, 42
1, 1012873, Control_c, 0, 64, 41
1, 1012873, Control_c, 0, 67, 94
1, 1012888, Control_c, 0, 64, 33
1, 1012903, Control_c, 0, 64, 0
1, 1012918, Control_c, 0, 67, 94
1, 1012977, Control_c, 0, 67, 93
1, 1012992, Control_c, 0, 67, 92
1, 1012995, Note_on_c, 0, 52, 47
1, 1013007, Control_c, 0, 67, 91
1, 1013021, Control_c, 0, 67, 90
1, 1013036, Control_c, 0, 67, 89
1, 1013051, Control_c, 0, 64, 29
1, 1013051, Control_c, 0, 67, 88
1, 1013066, Control_c, 0, 64, 34
1, 1013066, Control_c, 0, 67, 87
1, 1013081, Control_c, 0, 64, 40
1, 1013081, Control_c, 0, 67, 87
1, 1013096, Control_c, 0, 64, 47
1, 1013096, Control_c, 0, 67, 86
1, 1013111, Control_c, 0, 64, 52
1, 1013111, Control_c, 0, 67, 84
1, 1013126, Control_c, 0, 64, 55
1, 1013126, Control_c, 0, 67, 84
1, 1013126, Note_off_c, 0, 52, 58
1, 1013140, Control_c, 0, 64, 57
1, 1013140, Control_c, 0, 67, 83
1, 1013147, Note_on_c, 0, 56, 47
1, 1013155, Control_c, 0, 64, 60
1, 1013155, Control_c, 0, 67, 83
1, 1013170, Control_c, 0, 64, 61
1, 1013170, Control_c, 0, 67, 82
1, 1013185, Control_c, 0, 64, 62
1, 1013185, Control_c, 0, 67, 80
1, 1013192, Note_off_c, 0, 62, 59
1, 1013200, Control_c, 0, 64, 63
1, 1013200, Control_c, 0, 67, 80
1, 1013214, Control_c, 0, 64, 64
1, 1013214, Control_c, 0, 67, 79
1, 1013229, Control_c, 0, 64, 65
1, 1013229, Control_c, 0, 67, 79
1, 1013240, Note_off_c, 0, 56, 54
1, 1013244, Control_c, 0, 67, 78
1, 1013259, Control_c, 0, 64, 66
1, 1013273, Control_c, 0, 67, 78
1, 1013288, Control_c, 0, 64, 66
1, 1013300, Note_on_c, 0, 52, 43
1, 1013303, Control_c, 0, 67, 77
1, 1013325, Control_c, 0, 67, 76
1, 1013348, Note_off_c, 0, 71, 31
1, 1013355, Control_c, 0, 67, 76
1, 1013370, Control_c, 0, 67, 75
1, 1013385, Control_c, 0, 67, 74
1, 1013399, Control_c, 0, 67, 73
1, 1013414, Control_c, 0, 67, 73
1, 1013429, Control_c, 0, 64, 66
1, 1013444, Control_c, 0, 67, 72
1, 1013459, Control_c, 0, 64, 65
1, 1013459, Control_c, 0, 67, 71
1, 1013473, Control_c, 0, 64, 64
1, 1013473, Control_c, 0, 67, 69
1, 1013488, Control_c, 0, 64, 63
1, 1013488, Control_c, 0, 67, 68
1, 1013495, Note_on_c, 0, 69, 45
1, 1013501, Note_off_c, 0, 45, 38
1, 1013504, Control_c, 0, 64, 62
1, 1013504, Control_c, 0, 67, 67
1, 1013511, Note_on_c, 0, 57, 38
1, 1013519, Control_c, 0, 64, 60
1, 1013519, Control_c, 0, 67, 65
1, 1013522, Note_on_c, 0, 61, 35
1, 1013534, Control_c, 0, 64, 58
1, 1013534, Control_c, 0, 67, 63
1, 1013549, Control_c, 0, 64, 55
1, 1013549, Control_c, 0, 67, 60
1, 1013563, Control_c, 0, 64, 51
1, 1013563, Control_c, 0, 67, 51
1, 1013568, Note_off_c, 0, 61, 64
1, 1013575, Note_off_c, 0, 69, 58
1, 1013577, Note_off_c, 0, 64, 45
1, 1013578, Control_c, 0, 64, 47
1, 1013578, Control_c, 0, 67, 34
1, 1013590, Note_off_c, 0, 57, 56
1, 1013593, Control_c, 0, 64, 44
1, 1013593, Control_c, 0, 67, 0
1, 1013608, Control_c, 0, 64, 39
1, 1013623, Control_c, 0, 64, 34
1, 1013632, Note_off_c, 0, 52, 38
1, 1013637, Control_c, 0, 64, 32
1, 1013665, Note_on_c, 0, 71, 66
1, 1013668, Note_on_c, 0, 59, 64
1, 1013695, Note_off_c, 0, 59, 65
1, 1013696, Control_c, 0, 64, 30
1, 1013704, Note_off_c, 0, 71, 61
1, 1013711, Control_c, 0, 64, 0
1, 1013805, Note_on_c, 0, 73, 75
1, 1013816, Note_on_c, 0, 61, 63
1, 1013850, Note_off_c, 0, 61, 65
1, 1013869, Note_off_c, 0, 73, 62
1, 1013931, Note_on_c, 0, 74, 78
1, 1013949, Note_on_c, 0, 62, 56
1, 1013978, Note_off_c, 0, 62, 64
1, 1013998, Note_off_c, 0, 74, 61
1, 1014105, Note_on_c, 0, 76, 76
1, 1014128, Note_on_c, 0, 49, 43
1, 1014130, Note_on_c, 0, 64, 55
1, 1014148, Control_c, 0, 64, 31
1, 1014163, Control_c, 0, 64, 50
1, 1014178, Control_c, 0, 64, 60
1, 1014193, Control_c, 0, 64, 64
1, 1014208, Control_c, 0, 64, 68
1, 1014222, Control_c, 0, 64, 74
1, 1014237, Control_c, 0, 64, 85
1, 1014241, Note_on_c, 0, 52, 57
1, 1014247, Note_off_c, 0, 64, 63
1, 1014252, Control_c, 0, 64, 97
1, 1014267, Control_c, 0, 64, 127
1, 1014288, Note_off_c, 0, 76, 64
1, 1014366, Note_off_c, 0, 52, 61
1, 1014376, Note_on_c, 0, 57, 64
1, 1014513, Note_on_c, 0, 76, 83
1, 1014521, Note_on_c, 0, 52, 55
1, 1014530, Note_on_c, 0, 64, 64
1, 1014537, Note_off_c, 0, 57, 55
1, 1014554, Note_off_c, 0, 64, 64
1, 1014574, Note_off_c, 0, 76, 62
1, 1014602, Note_off_c, 0, 49, 35
1, 1014638, Note_off_c, 0, 52, 59
1, 1014693, Note_on_c, 0, 78, 81
1, 1014703, Note_on_c, 0, 46, 52
1, 1014712, Control_c, 0, 64, 117
1, 1014717, Note_on_c, 0, 66, 59
1, 1014727, Control_c, 0, 64, 95
1, 1014741, Control_c, 0, 64, 76
1, 1014756, Control_c, 0, 64, 61
1, 1014771, Control_c, 0, 64, 39
1, 1014786, Control_c, 0, 64, 0
1, 1014831, Note_on_c, 0, 54, 45
1, 1014838, Control_c, 0, 64, 31
1, 1014852, Control_c, 0, 64, 54
1, 1014867, Control_c, 0, 64, 65
1, 1014882, Control_c, 0, 64, 72
1, 1014894, Note_off_c, 0, 66, 63
1, 1014897, Control_c, 0, 64, 80
1, 1014911, Control_c, 0, 64, 87
1, 1014926, Control_c, 0, 64, 95
1, 1014932, Note_off_c, 0, 78, 61
1, 1014941, Control_c, 0, 64, 104
1, 1014956, Control_c, 0, 64, 127
1, 1014965, Note_off_c, 0, 54, 59
1, 1014970, Note_on_c, 0, 61, 51
1, 1015031, Note_off_c, 0, 46, 36
1, 1015056, Note_off_c, 0, 61, 57
1, 1015108, Note_on_c, 0, 54, 45
1, 1015195, Control_c, 0, 64, 118
1, 1015209, Control_c, 0, 64, 108
1, 1015224, Control_c, 0, 64, 102
1, 1015239, Control_c, 0, 64, 96
1, 1015254, Control_c, 0, 64, 91
1, 1015268, Control_c, 0, 64, 87
1, 1015281, Note_off_c, 0, 54, 37
1, 1015283, Control_c, 0, 64, 82
1, 1015290, Note_on_c, 0, 76, 61
1, 1015298, Control_c, 0, 64, 75
1, 1015313, Control_c, 0, 64, 66
1, 1015319, Note_on_c, 0, 47, 44
1, 1015328, Control_c, 0, 64, 54
1, 1015342, Control_c, 0, 64, 34
1, 1015357, Control_c, 0, 64, 0
1, 1015367, Note_on_c, 0, 64, 28
1, 1015402, Control_c, 0, 64, 32
1, 1015407, Note_off_c, 0, 64, 54
1, 1015416, Control_c, 0, 64, 50
1, 1015431, Control_c, 0, 64, 61
1, 1015446, Control_c, 0, 64, 66
1, 1015459, Note_on_c, 0, 54, 37
1, 1015460, Control_c, 0, 64, 70
1, 1015475, Control_c, 0, 64, 71
1, 1015490, Control_c, 0, 64, 73
1, 1015490, Control_c, 0, 67, 49
1, 1015505, Control_c, 0, 64, 75
1, 1015505, Control_c, 0, 67, 65
1, 1015520, Control_c, 0, 64, 77
1, 1015520, Control_c, 0, 67, 74
1, 1015534, Control_c, 0, 64, 78
1, 1015534, Control_c, 0, 67, 82
1, 1015549, Control_c, 0, 64, 79
1, 1015549, Control_c, 0, 67, 92
1, 1015572, Control_c, 0, 67, 101
1, 1015587, Control_c, 0, 67, 108
1, 1015592, Note_on_c, 0, 75, 56
1, 1015616, Note_off_c, 0, 76, 60
1, 1015622, Note_on_c, 0, 63, 49
1, 1015624, Note_off_c, 0, 54, 50
1, 1015630, Note_on_c, 0, 59, 43
1, 1015630, Control_c, 0, 64, 78
1, 1015630, Control_c, 0, 67, 110
1, 1015645, Control_c, 0, 64, 77
1, 1015660, Control_c, 0, 64, 76
1, 1015661, Note_off_c, 0, 75, 61
1, 1015668, Note_off_c, 0, 63, 61
1, 1015674, Control_c, 0, 64, 72
1, 1015689, Control_c, 0, 64, 68
1, 1015704, Control_c, 0, 64, 64
1, 1015704, Control_c, 0, 67, 112
1, 1015719, Control_c, 0, 64, 60
1, 1015733, Note_off_c, 0, 59, 52
1, 1015734, Control_c, 0, 64, 56
1, 1015749, Control_c, 0, 64, 52
1, 1015763, Note_off_c, 0, 47, 36
1, 1015764, Control_c, 0, 64, 46
1, 1015769, Note_on_c, 0, 54, 34
1, 1015779, Control_c, 0, 64, 38
1, 1015793, Control_c, 0, 64, 0
1, 1015916, Note_on_c, 0, 71, 55
1, 1015945, Note_off_c, 0, 54, 37
1, 1015951, Note_on_c, 0, 59, 35
1, 1015956, Note_on_c, 0, 47, 35
1, 1016017, Control_c, 0, 64, 32
1, 1016032, Control_c, 0, 64, 43
1, 1016046, Control_c, 0, 64, 52
1, 1016061, Control_c, 0, 64, 58
1, 1016069, Note_on_c, 0, 54, 43
1, 1016076, Control_c, 0, 64, 62
1, 1016090, Control_c, 0, 64, 64
1, 1016099, Note_off_c, 0, 59, 46
1, 1016105, Control_c, 0, 64, 66
1, 1016105, Control_c, 0, 67, 110
1, 1016120, Control_c, 0, 64, 68
1, 1016135, Control_c, 0, 64, 70
1, 1016150, Control_c, 0, 64, 73
1, 1016150, Control_c, 0, 67, 108
1, 1016164, Control_c, 0, 64, 75
1, 1016167, Note_off_c, 0, 71, 62
1, 1016179, Control_c, 0, 64, 77
1, 1016193, Note_off_c, 0, 54, 59
1, 1016194, Control_c, 0, 64, 79
1, 1016194, Control_c, 0, 67, 105
1, 1016208, Control_c, 0, 64, 81
1, 1016221, Note_on_c, 0, 59, 54
1, 1016223, Control_c, 0, 64, 82
1, 1016238, Control_c, 0, 64, 84
1, 1016253, Control_c, 0, 64, 84
1, 1016253, Control_c, 0, 67, 103
1, 1016268, Control_c, 0, 64, 85
1, 1016283, Control_c, 0, 64, 85
1, 1016297, Control_c, 0, 64, 86
1, 1016300, Note_off_c, 0, 47, 40
1, 1016320, Control_c, 0, 64, 86
1, 1016327, Note_off_c, 0, 59, 58
1, 1016339, Note_on_c, 0, 73, 68
1, 1016356, Note_on_c, 0, 54, 45
1, 1016364, Control_c, 0, 67, 101
1, 1016381, Note_on_c, 0, 61, 35
1, 1016419, Note_off_c, 0, 61, 50
1, 1016444, Note_off_c, 0, 54, 58
1, 1016454, Control_c, 0, 67, 99
1, 1016483, Control_c, 0, 64, 86
1, 1016513, Control_c, 0, 64, 85
1, 1016528, Control_c, 0, 64, 83
1, 1016536, Note_on_c, 0, 74, 70
1, 1016543, Control_c, 0, 64, 78
1, 1016545, Note_on_c, 0, 42, 65
1, 1016557, Control_c, 0, 64, 70
1, 1016572, Control_c, 0, 64, 59
1, 1016580, Note_off_c, 0, 73, 41
1, 1016584, Note_on_c, 0, 62, 27
1, 1016587, Control_c, 0, 64, 40
1, 1016602, Control_c, 0, 64, 31
1, 1016616, Control_c, 0, 64, 34
1, 1016631, Control_c, 0, 64, 43
1, 1016631, Control_c, 0, 67, 97
1, 1016646, Control_c, 0, 64, 53
1, 1016661, Control_c, 0, 64, 60
1, 1016661, Control_c, 0, 67, 95
1, 1016676, Control_c, 0, 64, 65
1, 1016676, Control_c, 0, 67, 94
1, 1016692, Control_c, 0, 64, 69
1, 1016692, Control_c, 0, 67, 94
1, 1016694, Note_on_c, 0, 54, 62
1, 1016706, Control_c, 0, 64, 73
1, 1016706, Control_c, 0, 67, 93
1, 1016721, Control_c, 0, 64, 76
1, 1016721, Control_c, 0, 67, 93
1, 1016722, Note_off_c, 0, 42, 54
1, 1016736, Control_c, 0, 64, 78
1, 1016736, Control_c, 0, 67, 92
1, 1016751, Control_c, 0, 64, 80
1, 1016751, Control_c, 0, 67, 91
1, 1016760, Note_off_c, 0, 62, 43
1, 1016760, Note_off_c, 0, 74, 57
1, 1016766, Control_c, 0, 64, 82
1, 1016766, Control_c, 0, 67, 90
1, 1016781, Control_c, 0, 64, 83
1, 1016781, Control_c, 0, 67, 89
1, 1016795, Control_c, 0, 64, 85
1, 1016795, Control_c, 0, 67, 88
1, 1016810, Control_c, 0, 64, 85
1, 1016810, Control_c, 0, 67, 87
1, 1016811, Note_off_c, 0, 54, 58
1, 1016825, Control_c, 0, 67, 87
1, 1016831, Note_on_c, 0, 57, 61
1, 1016840, Control_c, 0, 64, 86
1, 1016840, Control_c, 0, 67, 86
1, 1016855, Control_c, 0, 67, 85
1, 1016870, Control_c, 0, 67, 84
1, 1016885, Control_c, 0, 67, 83
1, 1016900, Control_c, 0, 67, 82
1, 1016914, Control_c, 0, 67, 78
1, 1016929, Control_c, 0, 67, 69
1, 1016944, Control_c, 0, 67, 56
1, 1016955, Note_on_c, 0, 74, 77
1, 1016959, Control_c, 0, 67, 38
1, 1016960, Note_on_c, 0, 54, 46
1, 1016961, Note_off_c, 0, 57, 49
1, 1016973, Note_on_c, 0, 62, 42
1, 1016974, Control_c, 0, 67, 0
1, 1017002, Note_off_c, 0, 62, 54
1, 1017047, Control_c, 0, 64, 85
1, 1017070, Control_c, 0, 64, 85
1, 1017084, Control_c, 0, 64, 83
1, 1017099, Control_c, 0, 64, 81
1, 1017114, Control_c, 0, 64, 78
1, 1017123, Note_off_c, 0, 54, 51
1, 1017129, Control_c, 0, 64, 74
1, 1017138, Note_on_c, 0, 76, 65
1, 1017144, Control_c, 0, 64, 67
1, 1017153, Note_off_c, 0, 74, 56
1, 1017156, Note_on_c, 0, 64, 52
1, 1017159, Note_on_c, 0, 44, 43
1, 1017159, Control_c, 0, 64, 59
1, 1017174, Control_c, 0, 64, 43
1, 1017188, Control_c, 0, 64, 0
1, 1017292, Control_c, 0, 64, 44
1, 1017298, Note_on_c, 0, 52, 50
1, 1017306, Control_c, 0, 64, 58
1, 1017321, Control_c, 0, 64, 64
1, 1017336, Control_c, 0, 64, 67
1, 1017351, Control_c, 0, 64, 70
1, 1017365, Control_c, 0, 64, 75
1, 1017380, Control_c, 0, 64, 81
1, 1017395, Control_c, 0, 64, 85
1, 1017409, Note_off_c, 0, 44, 37
1, 1017410, Control_c, 0, 64, 90
1, 1017418, Note_off_c, 0, 64, 64
1, 1017425, Control_c, 0, 64, 94
1, 1017439, Control_c, 0, 64, 98
1, 1017446, Note_off_c, 0, 52, 54
1, 1017454, Note_on_c, 0, 59, 52
1, 1017454, Control_c, 0, 64, 102
1, 1017457, Note_off_c, 0, 76, 64
1, 1017469, Control_c, 0, 64, 106
1, 1017485, Control_c, 0, 64, 109
1, 1017500, Control_c, 0, 64, 112
1, 1017515, Control_c, 0, 64, 116
1, 1017529, Control_c, 0, 64, 120
1, 1017544, Control_c, 0, 64, 123
1, 1017546, Note_off_c, 0, 59, 50
1, 1017559, Control_c, 0, 64, 126
1, 1017588, Note_on_c, 0, 52, 47
1, 1017722, Control_c, 0, 64, 117
1, 1017737, Control_c, 0, 64, 99
1, 1017743, Note_on_c, 0, 69, 56
1, 1017752, Control_c, 0, 64, 80
1, 1017767, Control_c, 0, 64, 63
1, 1017772, Note_off_c, 0, 52, 36
1, 1017777, Note_on_c, 0, 49, 41
1, 1017782, Control_c, 0, 64, 43
1, 1017788, Note_off_c, 0, 69, 61
1, 1017797, Control_c, 0, 64, 0
1, 1017832, Note_on_c, 0, 71, 60
1, 1017833, Control_c, 0, 64, 29
1, 1017848, Control_c, 0, 64, 41
1, 1017862, Control_c, 0, 64, 51
1, 1017871, Note_off_c, 0, 71, 62
1, 1017877, Control_c, 0, 64, 57
1, 1017892, Control_c, 0, 64, 61
1, 1017892, Control_c, 0, 67, 34
1, 1017900, Note_on_c, 0, 52, 44
1, 1017901, Note_on_c, 0, 69, 66
1, 1017907, Control_c, 0, 64, 63
1, 1017907, Control_c, 0, 67, 57
1, 1017922, Control_c, 0, 64, 64
1, 1017922, Control_c, 0, 67, 80
1, 1017937, Control_c, 0, 64, 65
1, 1017937, Control_c, 0, 67, 98
1, 1017941, Note_off_c, 0, 69, 58
1, 1017952, Control_c, 0, 64, 65
1, 1017952, Control_c, 0, 67, 113
1, 1017964, Note_on_c, 0, 68, 68
1, 1017967, Control_c, 0, 67, 121
1, 1017982, Control_c, 0, 64, 66
1, 1017982, Control_c, 0, 67, 125
1, 1017996, Control_c, 0, 64, 66
1, 1017996, Control_c, 0, 67, 127
1, 1018024, Note_off_c, 0, 52, 57
1, 1018034, Note_on_c, 0, 57, 47
1, 1018040, Note_on_c, 0, 69, 77
1, 1018043, Note_off_c, 0, 68, 62
1, 1018136, Note_off_c, 0, 69, 60
1, 1018141, Note_off_c, 0, 57, 55
1, 1018175, Note_on_c, 0, 71, 75
1, 1018180, Note_on_c, 0, 52, 40
1, 1018188, Control_c, 0, 64, 66
1, 1018218, Control_c, 0, 64, 65
1, 1018233, Control_c, 0, 64, 64
1, 1018236, Note_off_c, 0, 49, 40
1, 1018248, Control_c, 0, 64, 63
1, 1018262, Control_c, 0, 64, 62
1, 1018262, Control_c, 0, 67, 125
1, 1018278, Control_c, 0, 64, 62
1, 1018293, Control_c, 0, 64, 61
1, 1018308, Control_c, 0, 64, 60
1, 1018313, Note_off_c, 0, 52, 35
1, 1018323, Control_c, 0, 64, 58
1, 1018338, Control_c, 0, 64, 56
1, 1018352, Control_c, 0, 64, 54
1, 1018367, Control_c, 0, 64, 51
1, 1018367, Control_c, 0, 67, 123
1, 1018382, Control_c, 0, 64, 45
1, 1018387, Note_on_c, 0, 73, 61
1, 1018397, Control_c, 0, 64, 36
1, 1018402, Note_off_c, 0, 71, 55
1, 1018411, Control_c, 0, 64, 0
1, 1018412, Note_on_c, 0, 64, 27
1, 1018418, Note_on_c, 0, 45, 41
1, 1018420, Note_on_c, 0, 69, 33
1, 1018515, Control_c, 0, 67, 125
1, 1018545, Control_c, 0, 67, 127
1, 1018567, Control_c, 0, 64, 34
1, 1018582, Control_c, 0, 64, 49
1, 1018597, Control_c, 0, 64, 61
1, 1018599, Note_on_c, 0, 52, 41
1, 1018611, Control_c, 0, 64, 64
1, 1018626, Control_c, 0, 64, 65
1, 1018631, Note_off_c, 0, 45, 34
1, 1018641, Control_c, 0, 64, 66
1, 1018656, Control_c, 0, 64, 69
1, 1018671, Control_c, 0, 64, 72
1, 1018685, Control_c, 0, 64, 75
1, 1018700, Control_c, 0, 64, 77
1, 1018715, Control_c, 0, 64, 79
1, 1018730, Control_c, 0, 64, 81
1, 1018741, Note_off_c, 0, 69, 35
1, 1018745, Note_off_c, 0, 52, 59
1, 1018745, Note_off_c, 0, 64, 41
1, 1018745, Control_c, 0, 64, 82
1, 1018760, Control_c, 0, 64, 83
1, 1018772, Note_on_c, 0, 61, 44
1, 1018775, Control_c, 0, 64, 83
1, 1018824, Note_off_c, 0, 73, 59
1, 1018879, Control_c, 0, 64, 83
1, 1018901, Note_off_c, 0, 61, 35
1, 1018908, Control_c, 0, 64, 82
1, 1018923, Control_c, 0, 64, 81
1, 1018937, Note_on_c, 0, 52, 38
1, 1018938, Control_c, 0, 64, 80
1, 1018953, Control_c, 0, 64, 79
1, 1018967, Control_c, 0, 64, 78
1, 1018976, Note_off_c, 0, 52, 58
1, 1018982, Control_c, 0, 64, 77
1, 1018997, Control_c, 0, 64, 77
1, 1019011, Control_c, 0, 64, 75
1, 1019026, Control_c, 0, 64, 74
1, 1019041, Control_c, 0, 64, 73
1, 1019056, Control_c, 0, 64, 72
1, 1019071, Control_c, 0, 64, 70
1, 1019087, Control_c, 0, 64, 68
1, 1019102, Control_c, 0, 64, 66
1, 1019116, Control_c, 0, 64, 64
1, 1019131, Control_c, 0, 64, 60
1, 1019134, Note_on_c, 0, 71, 44
1, 1019146, Control_c, 0, 64, 56
1, 1019155, Note_on_c, 0, 66, 34
1, 1019161, Control_c, 0, 64, 51
1, 1019167, Note_on_c, 0, 69, 26
1, 1019173, Note_on_c, 0, 50, 36
1, 1019175, Control_c, 0, 64, 45
1, 1019190, Control_c, 0, 64, 38
1, 1019205, Control_c, 0, 64, 0
1, 1019229, Note_off_c, 0, 66, 57
1, 1019231, Note_off_c, 0, 71, 59
1, 1019235, Note_off_c, 0, 69, 46
1, 1019311, Note_on_c, 0, 54, 37
1, 1019442, Note_on_c, 0, 69, 45
1, 1019442, Note_on_c, 0, 71, 63
1, 1019445, Note_off_c, 0, 54, 45
1, 1019454, Note_on_c, 0, 59, 48
1, 1019454, Note_on_c, 0, 66, 49
1, 1019504, Note_off_c, 0, 66, 61
1, 1019508, Note_off_c, 0, 69, 62
1, 1019531, Note_off_c, 0, 71, 61
1, 1019579, Note_off_c, 0, 59, 55
1, 1019582, Note_on_c, 0, 54, 45
1, 1019724, Note_off_c, 0, 54, 37
1, 1019729, Note_on_c, 0, 71, 65
1, 1019749, Note_on_c, 0, 52, 52
1, 1019761, Note_on_c, 0, 64, 37
1, 1019766, Note_on_c, 0, 68, 38
1, 1019767, Note_off_c, 0, 50, 42
1, 1019776, Control_c, 0, 64, 35
1, 1019791, Control_c, 0, 64, 51
1, 1019806, Note_off_c, 0, 68, 57
1, 1019806, Control_c, 0, 64, 56
1, 1019806, Note_off_c, 0, 64, 49
1, 1019821, Control_c, 0, 64, 59
1, 1019835, Control_c, 0, 64, 63
1, 1019850, Control_c, 0, 64, 69
1, 1019865, Control_c, 0, 64, 75
1, 1019881, Control_c, 0, 64, 80
1, 1019884, Note_on_c, 0, 56, 52
1, 1019895, Control_c, 0, 64, 85
1, 1019910, Control_c, 0, 64, 90
1, 1019925, Control_c, 0, 64, 96
1, 1019940, Control_c, 0, 64, 106
1, 1019955, Control_c, 0, 64, 117
1, 1019970, Control_c, 0, 64, 127
1, 1020007, Note_off_c, 0, 56, 60
1, 1020019, Note_on_c, 0, 74, 75
1, 1020039, Note_on_c, 0, 59, 49
1, 1020043, Note_on_c, 0, 64, 47
1, 1020080, Note_off_c, 0, 71, 57
1, 1020116, Poly_aftertouch_c, 0, 68, 127
1, 1020144, Note_off_c, 0, 64, 51
1, 1020149, Note_off_c, 0, 59, 53
1, 1020159, Poly_aftertouch_c, 0, 68, 0
1, 1020171, Note_off_c, 0, 74, 61
1, 1020176, Note_on_c, 0, 56, 48
1, 1020238, Note_on_c, 0, 73, 55
1, 1020244, Note_off_c, 0, 56, 54
1, 1020245, Note_off_c, 0, 52, 36
1, 1020258, Note_off_c, 0, 73, 62
1, 1020271, Control_c, 0, 64, 121
1, 1020286, Control_c, 0, 64, 110
1, 1020301, Control_c, 0, 64, 97
1, 1020316, Control_c, 0, 64, 80
1, 1020325, Note_on_c, 0, 73, 69
1, 1020331, Control_c, 0, 64, 64
1, 1020345, Note_on_c, 0, 45, 52
1, 1020346, Control_c, 0, 64, 39
1, 1020354, Note_on_c, 0, 69, 47
1, 1020360, Control_c, 0, 64, 0
1, 1020363, Note_on_c, 0, 64, 42
1, 1020405, Control_c, 0, 64, 39
1, 1020420, Control_c, 0, 64, 55
1, 1020435, Control_c, 0, 64, 63
1, 1020450, Control_c, 0, 64, 67
1, 1020464, Control_c, 0, 64, 73
1, 1020479, Note_on_c, 0, 52, 53
1, 1020479, Control_c, 0, 64, 79
1, 1020494, Control_c, 0, 64, 85
1, 1020498, Note_off_c, 0, 45, 37
1, 1020509, Control_c, 0, 64, 91
1, 1020524, Control_c, 0, 64, 97
1, 1020530, Note_off_c, 0, 64, 64
1, 1020538, Control_c, 0, 64, 103
1, 1020553, Control_c, 0, 64, 107
1, 1020557, Note_off_c, 0, 69, 56
1, 1020568, Control_c, 0, 64, 111
1, 1020577, Note_off_c, 0, 73, 62
1, 1020597, Control_c, 0, 64, 114
1, 1020632, Note_off_c, 0, 52, 58
1, 1020644, Note_on_c, 0, 61, 48
1, 1020719, Note_off_c, 0, 61, 51
1, 1020781, Note_on_c, 0, 52, 42
1, 1020828, Control_c, 0, 64, 112
1, 1020858, Control_c, 0, 64, 109
1, 1020870, Note_off_c, 0, 52, 52
1, 1020873, Control_c, 0, 64, 106
1, 1020887, Control_c, 0, 64, 104
1, 1020902, Control_c, 0, 64, 101
1, 1020917, Control_c, 0, 64, 98
1, 1020932, Control_c, 0, 64, 96
1, 1020947, Control_c, 0, 64, 94
1, 1020961, Control_c, 0, 64, 91
1, 1020970, Note_on_c, 0, 76, 57
1, 1020976, Control_c, 0, 64, 86
1, 1020991, Control_c, 0, 64, 83
1, 1021005, Control_c, 0, 64, 79
1, 1021010, Note_on_c, 0, 49, 33
1, 1021020, Control_c, 0, 64, 75
1, 1021029, Note_on_c, 0, 64, 27
1, 1021035, Control_c, 0, 64, 71
1, 1021039, Note_on_c, 0, 69, 10
1, 1021050, Control_c, 0, 64, 65
1, 1021065, Control_c, 0, 64, 59
1, 1021079, Control_c, 0, 64, 49
1, 1021094, Control_c, 0, 64, 31
1, 1021109, Control_c, 0, 64, 0
1, 1021137, Note_on_c, 0, 52, 39
1, 1021168, Control_c, 0, 64, 35
1, 1021183, Control_c, 0, 64, 50
1, 1021198, Control_c, 0, 64, 59
1, 1021213, Control_c, 0, 64, 64
1, 1021228, Control_c, 0, 64, 67
1, 1021231, Note_off_c, 0, 64, 41
1, 1021243, Control_c, 0, 64, 68
1, 1021258, Control_c, 0, 64, 70
1, 1021271, Note_off_c, 0, 69, 43
1, 1021273, Control_c, 0, 64, 73
1, 1021287, Control_c, 0, 64, 76
1, 1021291, Note_off_c, 0, 52, 56
1, 1021297, Note_on_c, 0, 57, 44
1, 1021302, Control_c, 0, 64, 77
1, 1021317, Control_c, 0, 64, 78
1, 1021332, Control_c, 0, 64, 78
1, 1021401, Note_off_c, 0, 76, 58
1, 1021441, Note_on_c, 0, 74, 60
1, 1021444, Note_on_c, 0, 52, 45
1, 1021463, Note_off_c, 0, 57, 36
1, 1021496, Note_off_c, 0, 74, 62
1, 1021496, Control_c, 0, 64, 79
1, 1021504, Note_on_c, 0, 73, 60
1, 1021505, Note_off_c, 0, 49, 41
1, 1021531, Note_off_c, 0, 52, 51
1, 1021535, Note_off_c, 0, 73, 67
1, 1021562, Control_c, 0, 64, 78
1, 1021577, Control_c, 0, 64, 76
1, 1021592, Control_c, 0, 64, 68
1, 1021606, Control_c, 0, 64, 60
1, 1021615, Note_on_c, 0, 66, 46
1, 1021616, Note_on_c, 0, 69, 47
1, 1021621, Control_c, 0, 64, 49
1, 1021625, Note_on_c, 0, 50, 49
1, 1021636, Control_c, 0, 64, 40
1, 1021639, Note_on_c, 0, 72, 15
1, 1021651, Control_c, 0, 64, 33
1, 1021666, Control_c, 0, 64, 31
1, 1021668, Note_on_c, 0, 71, 13
1, 1021669, Note_off_c, 0, 72, 46
1, 1021681, Control_c, 0, 64, 32
1, 1021690, Note_off_c, 0, 66, 55
1, 1021696, Control_c, 0, 64, 34
1, 1021710, Control_c, 0, 64, 34
1, 1021720, Note_off_c, 0, 71, 37
1, 1021725, Control_c, 0, 64, 35
1, 1021735, Note_off_c, 0, 69, 50
1, 1021740, Control_c, 0, 64, 37
1, 1021755, Control_c, 0, 64, 38
1, 1021765, Note_on_c, 0, 54, 47
1, 1021770, Control_c, 0, 64, 39
1, 1021814, Control_c, 0, 64, 39
1, 1021872, Note_off_c, 0, 54, 47
1, 1021873, Control_c, 0, 64, 39
1, 1021879, Note_on_c, 0, 71, 70
1, 1021888, Control_c, 0, 64, 38
1, 1021890, Note_on_c, 0, 69, 57
1, 1021896, Note_on_c, 0, 59, 57
1, 1021897, Note_on_c, 0, 66, 53
1, 1021902, Control_c, 0, 64, 35
1, 1021917, Control_c, 0, 64, 30
1, 1021930, Note_off_c, 0, 69, 59
1, 1021932, Control_c, 0, 64, 0
1, 1021942, Note_off_c, 0, 66, 61
1, 1021955, Note_off_c, 0, 71, 60
1, 1022005, Note_off_c, 0, 59, 54
1, 1022006, Note_on_c, 0, 54, 47
1, 1022166, Note_off_c, 0, 54, 37
1, 1022170, Note_on_c, 0, 71, 62
1, 1022180, Note_on_c, 0, 52, 51
1, 1022197, Note_on_c, 0, 64, 42
1, 1022197, Note_on_c, 0, 68, 51
1, 1022206, Note_off_c, 0, 50, 37
1, 1022258, Control_c, 0, 64, 34
1, 1022274, Control_c, 0, 64, 48
1, 1022289, Control_c, 0, 64, 60
1, 1022311, Control_c, 0, 64, 62
1, 1022316, Note_on_c, 0, 56, 52
1, 1022325, Control_c, 0, 64, 64
1, 1022340, Control_c, 0, 64, 66
1, 1022352, Note_off_c, 0, 68, 51
1, 1022355, Control_c, 0, 64, 69
1, 1022370, Control_c, 0, 64, 73
1, 1022385, Control_c, 0, 64, 77
1, 1022400, Control_c, 0, 64, 80
1, 1022414, Control_c, 0, 64, 83
1, 1022429, Control_c, 0, 64, 84
1, 1022432, Note_off_c, 0, 56, 60
1, 1022444, Control_c, 0, 64, 85
1, 1022456, Note_on_c, 0, 74, 70
1, 1022459, Control_c, 0, 64, 86
1, 1022461, Note_off_c, 0, 71, 59
1, 1022471, Note_on_c, 0, 59, 55
1, 1022491, Note_off_c, 0, 64, 37
1, 1022605, Note_off_c, 0, 59, 43
1, 1022617, Note_on_c, 0, 56, 45
1, 1022665, Note_off_c, 0, 74, 62
1, 1022674, Note_off_c, 0, 56, 52
1, 1022680, Note_on_c, 0, 73, 62
1, 1022742, Note_off_c, 0, 52, 26
1, 1022763, Note_off_c, 0, 73, 58
1, 1022770, Control_c, 0, 64, 83
1, 1022784, Control_c, 0, 64, 76
1, 1022789, Note_on_c, 0, 69, 55
1, 1022799, Control_c, 0, 64, 66
1, 1022807, Note_on_c, 0, 61, 43
1, 1022814, Control_c, 0, 64, 58
1, 1022825, Note_on_c, 0, 45, 32
1, 1022844, Control_c, 0, 64, 61
1, 1022858, Control_c, 0, 64, 63
1, 1022873, Control_c, 0, 64, 64
1, 1022888, Control_c, 0, 64, 65
1, 1022903, Control_c, 0, 64, 68
1, 1022918, Control_c, 0, 64, 69
1, 1022933, Control_c, 0, 64, 70
1, 1022945, Note_on_c, 0, 52, 57
1, 1022948, Control_c, 0, 64, 71
1, 1022977, Control_c, 0, 64, 71
1, 1022978, Note_off_c, 0, 61, 58
1, 1023073, Note_on_c, 0, 57, 64
1, 1023079, Note_off_c, 0, 45, 39
1, 1023104, Note_off_c, 0, 57, 67
1, 1023109, Note_off_c, 0, 69, 37
1, 1023112, Note_off_c, 0, 52, 59
1, 1023163, Control_c, 0, 64, 71
1, 1023163, Control_c, 0, 67, 102
1, 1023178, Control_c, 0, 64, 70
1, 1023178, Control_c, 0, 67, 54
1, 1023193, Control_c, 0, 64, 67
1, 1023193, Control_c, 0, 67, 0
1, 1023207, Control_c, 0, 64, 63
1, 1023222, Control_c, 0, 64, 57
1, 1023225, Note_on_c, 0, 68, 67
1, 1023237, Control_c, 0, 64, 50
1, 1023252, Control_c, 0, 64, 37
1, 1023267, Control_c, 0, 64, 0
1, 1023292, Note_off_c, 0, 68, 61
1, 1023367, Note_on_c, 0, 69, 70
1, 1023413, Note_off_c, 0, 69, 63
1, 1023508, Note_on_c, 0, 71, 74
1, 1023511, Note_on_c, 0, 59, 69
1, 1023541, Note_off_c, 0, 59, 67
1, 1023556, Note_off_c, 0, 71, 62
1, 1023648, Note_on_c, 0, 73, 74
1, 1023657, Note_on_c, 0, 61, 67
1, 1023699, Note_off_c, 0, 61, 61
1, 1023714, Note_off_c, 0, 73, 61
1, 1023798, Note_on_c, 0, 74, 81
1, 1023809, Note_on_c, 0, 62, 65
1, 1023845, Note_off_c, 0, 62, 59
1, 1023866, Note_off_c, 0, 74, 61
1, 1023987, Note_on_c, 0, 76, 65
1, 1024006, Note_on_c, 0, 64, 42
1, 1024030, Control_c, 0, 64, 42
1, 1024033, Note_on_c, 0, 49, 44
1, 1024045, Control_c, 0, 64, 51
1, 1024060, Control_c, 0, 64, 57
1, 1024075, Control_c, 0, 64, 60
1, 1024090, Control_c, 0, 64, 63
1, 1024104, Control_c, 0, 64, 66
1, 1024119, Control_c, 0, 64, 70
1, 1024134, Control_c, 0, 64, 77
1, 1024149, Control_c, 0, 64, 83
1, 1024152, Note_off_c, 0, 64, 59
1, 1024159, Note_on_c, 0, 52, 50
1, 1024164, Control_c, 0, 64, 91
1, 1024179, Control_c, 0, 64, 102
1, 1024191, Note_off_c, 0, 76, 63
1, 1024194, Control_c, 0, 64, 127
1, 1024273, Note_off_c, 0, 52, 59
1, 1024298, Note_on_c, 0, 57, 51
1, 1024417, Note_off_c, 0, 57, 52
1, 1024435, Note_on_c, 0, 76, 73
1, 1024438, Note_on_c, 0, 52, 44
1, 1024448, Note_on_c, 0, 64, 65
1, 1024480, Note_off_c, 0, 49, 52
1, 1024483, Note_off_c, 0, 64, 64
1, 1024495, Note_off_c, 0, 76, 62
1, 1024556, Note_off_c, 0, 52, 52
1, 1024667, Note_on_c, 0, 66, 58
1, 1024668, Note_on_c, 0, 78, 56
1, 1024687, Note_on_c, 0, 46, 45
1, 1024691, Control_c, 0, 64, 107
1, 1024706, Control_c, 0, 64, 94
1, 1024721, Control_c, 0, 64, 84
1, 1024735, Control_c, 0, 64, 74
1, 1024750, Control_c, 0, 64, 62
1, 1024765, Control_c, 0, 64, 48
1, 1024779, Control_c, 0, 64, 0
1, 1024832, Note_on_c, 0, 54, 41
1, 1024839, Control_c, 0, 64, 32
1, 1024853, Control_c, 0, 64, 52
1, 1024868, Control_c, 0, 64, 63
1, 1024883, Control_c, 0, 64, 68
1, 1024898, Control_c, 0, 64, 73
1, 1024913, Control_c, 0, 64, 79
1, 1024927, Note_off_c, 0, 78, 61
1, 1024927, Control_c, 0, 64, 85
1, 1024935, Note_off_c, 0, 66, 62
1, 1024942, Control_c, 0, 64, 92
1, 1024957, Control_c, 0, 64, 101
1, 1024969, Note_off_c, 0, 54, 56
1, 1024972, Control_c, 0, 64, 108
1, 1024983, Note_on_c, 0, 61, 42
1, 1024987, Control_c, 0, 64, 115
1, 1025002, Control_c, 0, 64, 127
1, 1025008, Note_off_c, 0, 46, 30
1, 1025046, Note_off_c, 0, 61, 59
1, 1025113, Note_on_c, 0, 54, 43
1, 1025179, Control_c, 0, 64, 121
1, 1025194, Control_c, 0, 64, 114
1, 1025209, Control_c, 0, 64, 109
1, 1025224, Control_c, 0, 64, 104
1, 1025239, Control_c, 0, 64, 99
1, 1025253, Control_c, 0, 64, 93
1, 1025259, Note_off_c, 0, 54, 36
1, 1025264, Note_on_c, 0, 76, 57
1, 1025268, Control_c, 0, 64, 88
1, 1025283, Control_c, 0, 64, 84
1, 1025306, Control_c, 0, 64, 80
1, 1025314, Note_on_c, 0, 47, 46
1, 1025321, Control_c, 0, 64, 76
1, 1025327, Note_on_c, 0, 64, 35
1, 1025335, Control_c, 0, 64, 72
1, 1025350, Control_c, 0, 64, 67
1, 1025365, Control_c, 0, 64, 61
1, 1025379, Control_c, 0, 64, 57
1, 1025394, Control_c, 0, 64, 53
1, 1025409, Control_c, 0, 64, 44
1, 1025413, Note_off_c, 0, 64, 62
1, 1025424, Control_c, 0, 64, 0
1, 1025449, Note_on_c, 0, 54, 32
1, 1025484, Control_c, 0, 67, 35
1, 1025499, Control_c, 0, 67, 43
1, 1025514, Control_c, 0, 67, 52
1, 1025529, Control_c, 0, 67, 64
1, 1025544, Control_c, 0, 67, 78
1, 1025558, Control_c, 0, 67, 93
1, 1025568, Note_on_c, 0, 75, 53
1, 1025573, Note_off_c, 0, 54, 56
1, 1025573, Control_c, 0, 67, 106
1, 1025580, Note_on_c, 0, 59, 45
1, 1025588, Note_off_c, 0, 76, 58
1, 1025588, Control_c, 0, 67, 117
1, 1025592, Note_on_c, 0, 63, 41
1, 1025602, Control_c, 0, 67, 127
1, 1025627, Note_off_c, 0, 75, 59
1, 1025640, Note_off_c, 0, 63, 60
1, 1025686, Note_off_c, 0, 47, 51
1, 1025689, Note_off_c, 0, 59, 53
1, 1025716, Note_on_c, 0, 54, 40
1, 1025871, Note_on_c, 0, 71, 56
1, 1025877, Note_off_c, 0, 54, 56
1, 1025888, Note_on_c, 0, 59, 38
1, 1025908, Note_on_c, 0, 47, 42
1, 1025943, Control_c, 0, 67, 124
1, 1025973, Control_c, 0, 64, 32
1, 1025973, Control_c, 0, 67, 121
1, 1025987, Control_c, 0, 64, 46
1, 1026002, Control_c, 0, 64, 57
1, 1026002, Control_c, 0, 67, 119
1, 1026016, Note_on_c, 0, 54, 47
1, 1026017, Control_c, 0, 64, 61
1, 1026017, Control_c, 0, 67, 117
1, 1026032, Control_c, 0, 64, 62
1, 1026054, Control_c, 0, 64, 64
1, 1026055, Note_off_c, 0, 59, 54
1, 1026069, Control_c, 0, 64, 66
1, 1026084, Control_c, 0, 64, 69
1, 1026084, Control_c, 0, 67, 114
1, 1026099, Control_c, 0, 64, 71
1, 1026114, Control_c, 0, 64, 73
1, 1026123, Note_off_c, 0, 71, 61
1, 1026128, Control_c, 0, 64, 75
1, 1026143, Control_c, 0, 64, 77
1, 1026158, Control_c, 0, 64, 79
1, 1026163, Note_off_c, 0, 54, 60
1, 1026173, Control_c, 0, 64, 80
1, 1026188, Note_on_c, 0, 59, 60
1, 1026188, Control_c, 0, 64, 82
1, 1026202, Control_c, 0, 64, 83
1, 1026217, Control_c, 0, 64, 84
1, 1026232, Control_c, 0, 64, 85
1, 1026247, Control_c, 0, 64, 85
1, 1026276, Note_off_c, 0, 47, 39
1, 1026278, Control_c, 0, 64, 86
1, 1026289, Note_off_c, 0, 59, 53
1, 1026307, Note_on_c, 0, 73, 68
1, 1026313, Note_on_c, 0, 54, 52
1, 1026313, Note_on_c, 0, 61, 61
1, 1026337, Control_c, 0, 67, 116
1, 1026379, Note_off_c, 0, 61, 63
1, 1026425, Control_c, 0, 64, 85
1, 1026440, Control_c, 0, 64, 81
1, 1026451, Note_off_c, 0, 54, 52
1, 1026455, Control_c, 0, 64, 71
1, 1026464, Note_on_c, 0, 74, 73
1, 1026470, Control_c, 0, 64, 59
1, 1026478, Note_on_c, 0, 62, 54
1, 1026485, Control_c, 0, 64, 35
1, 1026499, Note_on_c, 0, 42, 60
1, 1026499, Control_c, 0, 64, 0
1, 1026504, Note_off_c, 0, 73, 29
1, 1026529, Control_c, 0, 64, 38
1, 1026543, Control_c, 0, 64, 54
1, 1026558, Control_c, 0, 64, 63
1, 1026573, Control_c, 0, 64, 69
1, 1026588, Note_off_c, 0, 42, 58
1, 1026588, Control_c, 0, 64, 75
1, 1026603, Control_c, 0, 64, 79
1, 1026611, Note_on_c, 0, 54, 67
1, 1026617, Control_c, 0, 64, 83
1, 1026617, Control_c, 0, 67, 113
1, 1026632, Control_c, 0, 64, 88
1, 1026647, Control_c, 0, 64, 92
1, 1026650, Note_off_c, 0, 62, 36
1, 1026662, Control_c, 0, 64, 96
1, 1026662, Control_c, 0, 67, 109
1, 1026677, Control_c, 0, 64, 99
1, 1026678, Note_off_c, 0, 74, 48
1, 1026692, Control_c, 0, 64, 101
1, 1026692, Control_c, 0, 67, 103
1, 1026707, Control_c, 0, 67, 80
1, 1026722, Control_c, 0, 67, 60
1, 1026730, Note_off_c, 0, 54, 60
1, 1026736, Control_c, 0, 64, 103
1, 1026736, Control_c, 0, 67, 40
1, 1026748, Note_on_c, 0, 57, 62
1, 1026751, Control_c, 0, 67, 0
1, 1026872, Note_on_c, 0, 54, 57
1, 1026880, Note_on_c, 0, 74, 76
1, 1026883, Note_off_c, 0, 57, 56
1, 1026888, Note_on_c, 0, 62, 56
1, 1026930, Note_off_c, 0, 62, 57
1, 1026951, Control_c, 0, 64, 99
1, 1026966, Control_c, 0, 64, 96
1, 1026981, Control_c, 0, 64, 92
1, 1026996, Control_c, 0, 64, 87
1, 1027011, Note_off_c, 0, 54, 58
1, 1027011, Control_c, 0, 64, 82
1, 1027025, Control_c, 0, 64, 73
1, 1027040, Control_c, 0, 64, 62
1, 1027050, Note_on_c, 0, 76, 72
1, 1027055, Control_c, 0, 64, 42
1, 1027056, Note_on_c, 0, 64, 69
1, 1027058, Note_on_c, 0, 44, 50
1, 1027059, Note_off_c, 0, 74, 58
1, 1027070, Control_c, 0, 64, 0
1, 1027130, Control_c, 0, 64, 45
1, 1027145, Control_c, 0, 64, 60
1, 1027160, Control_c, 0, 64, 68
1, 1027174, Control_c, 0, 64, 74
1, 1027189, Control_c, 0, 64, 80
1, 1027193, Note_on_c, 0, 52, 54
1, 1027204, Control_c, 0, 64, 87
1, 1027219, Control_c, 0, 64, 96
1, 1027234, Control_c, 0, 64, 106
1, 1027248, Control_c, 0, 64, 127
1, 1027288, Note_off_c, 0, 44, 55
1, 1027292, Note_off_c, 0, 64, 64
1, 1027328, Note_off_c, 0, 52, 60
1, 1027339, Note_off_c, 0, 76, 63
1, 1027342, Note_on_c, 0, 59, 56
1, 1027439, Note_off_c, 0, 59, 52
1, 1027464, Note_on_c, 0, 52, 48
1, 1027623, Note_off_c, 0, 52, 56
1, 1027640, Control_c, 0, 64, 120
1, 1027641, Note_on_c, 0, 69, 61
1, 1027655, Control_c, 0, 64, 101
1, 1027658, Note_on_c, 0, 49, 48
1, 1027670, Control_c, 0, 64, 90
1, 1027685, Control_c, 0, 64, 81
1, 1027689, Note_off_c, 0, 69, 59
1, 1027700, Control_c, 0, 64, 74
1, 1027714, Control_c, 0, 64, 67
1, 1027718, Note_on_c, 0, 71, 63
1, 1027729, Control_c, 0, 64, 62
1, 1027744, Control_c, 0, 64, 59
1, 1027759, Control_c, 0, 64, 58
1, 1027762, Note_off_c, 0, 71, 60
1, 1027765, Note_on_c, 0, 52, 47
1, 1027774, Control_c, 0, 64, 57
1, 1027789, Control_c, 0, 64, 57
1, 1027792, Note_on_c, 0, 69, 68
1, 1027804, Control_c, 0, 64, 56
1, 1027804, Control_c, 0, 67, 60
1, 1027819, Control_c, 0, 64, 53
1, 1027819, Control_c, 0, 67, 79
1, 1027834, Control_c, 0, 64, 51
1, 1027834, Control_c, 0, 67, 91
1, 1027848, Note_off_c, 0, 69, 61
1, 1027848, Control_c, 0, 64, 48
1, 1027848, Control_c, 0, 67, 98
1, 1027857, Note_on_c, 0, 68, 70
1, 1027863, Control_c, 0, 64, 43
1, 1027863, Control_c, 0, 67, 108
1, 1027878, Control_c, 0, 64, 35
1, 1027878, Control_c, 0, 67, 119
1, 1027893, Control_c, 0, 64, 0
1, 1027893, Control_c, 0, 67, 127
1, 1027899, Note_off_c, 0, 52, 58
1, 1027918, Note_on_c, 0, 57, 56
1, 1027947, Note_off_c, 0, 68, 62
1, 1027950, Note_on_c, 0, 69, 70
1, 1028033, Note_off_c, 0, 69, 60
1, 1028036, Note_off_c, 0, 57, 50
1, 1028069, Note_on_c, 0, 52, 37
1, 1028076, Note_on_c, 0, 71, 71
1, 1028135, Note_off_c, 0, 49, 37
1, 1028268, Note_off_c, 0, 71, 55
1, 1028290, Note_off_c, 0, 52, 35
1, 1028292, Note_on_c, 0, 73, 58
1, 1028308, Note_on_c, 0, 64, 38
1, 1028308, Note_on_c, 0, 45, 33
1, 1028313, Note_on_c, 0, 69, 37
1, 1028434, Control_c, 0, 64, 36
1, 1028449, Control_c, 0, 64, 49
1, 1028464, Control_c, 0, 64, 58
1, 1028478, Control_c, 0, 64, 62
1, 1028483, Note_on_c, 0, 52, 44
1, 1028483, Note_off_c, 0, 45, 42
1, 1028493, Control_c, 0, 64, 63
1, 1028508, Control_c, 0, 64, 65
1, 1028522, Control_c, 0, 64, 68
1, 1028537, Control_c, 0, 64, 71
1, 1028552, Control_c, 0, 64, 74
1, 1028567, Control_c, 0, 64, 77
1, 1028582, Control_c, 0, 64, 80
1, 1028597, Control_c, 0, 64, 81
1, 1028600, Note_off_c, 0, 64, 62
1, 1028612, Control_c, 0, 64, 82
1, 1028617, Note_off_c, 0, 52, 59
1, 1028617, Note_off_c, 0, 69, 33
1, 1028626, Control_c, 0, 64, 83
1, 1028644, Note_on_c, 0, 61, 44
1, 1028656, Control_c, 0, 64, 83
1, 1028698, Note_off_c, 0, 73, 60
1, 1028748, Note_off_c, 0, 61, 50
1, 1028784, Note_on_c, 0, 52, 40
1, 1028826, Note_off_c, 0, 52, 58
1, 1028865, Control_c, 0, 64, 83
1, 1028909, Control_c, 0, 64, 82
1, 1028924, Control_c, 0, 64, 80
1, 1028938, Control_c, 0, 64, 76
1, 1028953, Control_c, 0, 64, 71
1, 1028968, Control_c, 0, 64, 66
1, 1028983, Control_c, 0, 64, 60
1, 1028998, Control_c, 0, 64, 54
1, 1028999, Note_on_c, 0, 71, 48
1, 1029012, Control_c, 0, 64, 49
1, 1029016, Note_on_c, 0, 50, 42
1, 1029017, Note_on_c, 0, 66, 35
1, 1029020, Note_on_c, 0, 69, 40
1, 1029027, Control_c, 0, 64, 45
1, 1029050, Control_c, 0, 64, 44
1, 1029106, Note_off_c, 0, 66, 54
1, 1029115, Note_off_c, 0, 69, 59
1, 1029117, Note_off_c, 0, 71, 58
1, 1029154, Control_c, 0, 64, 43
1, 1029156, Note_on_c, 0, 54, 40
1, 1029169, Control_c, 0, 64, 43
1, 1029184, Control_c, 0, 64, 42
1, 1029199, Control_c, 0, 64, 41
1, 1029214, Control_c, 0, 64, 40
1, 1029228, Control_c, 0, 64, 37
1, 1029243, Control_c, 0, 64, 33
1, 1029258, Control_c, 0, 64, 0
1, 1029278, Note_off_c, 0, 54, 54
1, 1029306, Note_on_c, 0, 59, 51
1, 1029306, Note_on_c, 0, 71, 70
1, 1029308, Note_on_c, 0, 69, 54
1, 1029315, Note_on_c, 0, 66, 60
1, 1029354, Note_off_c, 0, 69, 60
1, 1029363, Note_off_c, 0, 66, 56
1, 1029386, Note_off_c, 0, 71, 56
1, 1029428, Note_on_c, 0, 54, 46
1, 1029444, Note_off_c, 0, 59, 54
1, 1029557, Note_off_c, 0, 54, 56
1, 1029586, Note_on_c, 0, 71, 73
1, 1029604, Note_on_c, 0, 52, 53
1, 1029607, Note_on_c, 0, 64, 55
1, 1029617, Note_off_c, 0, 50, 39
1, 1029658, Control_c, 0, 64, 33
1, 1029662, Note_off_c, 0, 64, 53
1, 1029673, Control_c, 0, 64, 44
1, 1029688, Control_c, 0, 64, 51
1, 1029703, Control_c, 0, 64, 54
1, 1029717, Control_c, 0, 64, 56
1, 1029732, Control_c, 0, 64, 59
1, 1029735, Note_on_c, 0, 56, 50
1, 1029747, Control_c, 0, 64, 62
1, 1029762, Control_c, 0, 64, 65
1, 1029777, Control_c, 0, 64, 68
1, 1029799, Control_c, 0, 64, 70
1, 1029814, Control_c, 0, 64, 73
1, 1029829, Control_c, 0, 64, 76
1, 1029843, Control_c, 0, 64, 80
1, 1029856, Note_off_c, 0, 56, 59
1, 1029858, Control_c, 0, 64, 86
1, 1029873, Control_c, 0, 64, 90
1, 1029875, Note_on_c, 0, 74, 76
1, 1029887, Note_on_c, 0, 59, 52
1, 1029888, Control_c, 0, 64, 95
1, 1029903, Control_c, 0, 64, 99
1, 1029910, Note_on_c, 0, 64, 38
1, 1029913, Note_on_c, 0, 68, 45
1, 1029917, Control_c, 0, 64, 104
1, 1029929, Note_off_c, 0, 71, 57
1, 1029932, Control_c, 0, 64, 108
1, 1029947, Control_c, 0, 64, 114
1, 1029962, Control_c, 0, 64, 118
1, 1029977, Control_c, 0, 64, 123
1, 1029977, Note_off_c, 0, 64, 52
1, 1029979, Note_off_c, 0, 68, 50
1, 1029983, Note_off_c, 0, 59, 57
1, 1029992, Control_c, 0, 64, 126
1, 1030010, Note_on_c, 0, 56, 47
1, 1030014, Note_off_c, 0, 74, 61
1, 1030063, Note_off_c, 0, 52, 47
1, 1030065, Note_off_c, 0, 56, 56
1, 1030071, Note_on_c, 0, 73, 64
1, 1030099, Note_off_c, 0, 73, 67
1, 1030125, Control_c, 0, 64, 121
1, 1030140, Control_c, 0, 64, 110
1, 1030155, Control_c, 0, 64, 93
1, 1030169, Control_c, 0, 64, 77
1, 1030172, Note_on_c, 0, 73, 72
1, 1030184, Control_c, 0, 64, 61
1, 1030197, Note_on_c, 0, 45, 56
1, 1030199, Control_c, 0, 64, 33
1, 1030203, Note_on_c, 0, 64, 50
1, 1030203, Note_on_c, 0, 69, 45
1, 1030214, Control_c, 0, 64, 0
1, 1030274, Control_c, 0, 64, 42
1, 1030289, Control_c, 0, 64, 56
1, 1030304, Control_c, 0, 64, 63
1, 1030319, Control_c, 0, 64, 68
1, 1030330, Note_off_c, 0, 45, 53
1, 1030333, Note_on_c, 0, 52, 52
1, 1030333, Control_c, 0, 64, 74
1, 1030348, Control_c, 0, 64, 80
1, 1030363, Control_c, 0, 64, 84
1, 1030378, Control_c, 0, 64, 89
1, 1030392, Control_c, 0, 64, 93
1, 1030400, Note_off_c, 0, 64, 64
1, 1030407, Control_c, 0, 64, 97
1, 1030422, Control_c, 0, 64, 100
1, 1030437, Control_c, 0, 64, 102
1, 1030446, Note_off_c, 0, 69, 35
1, 1030457, Note_off_c, 0, 73, 59
1, 1030466, Control_c, 0, 64, 104
1, 1030487, Note_on_c, 0, 61, 50
1, 1030496, Note_off_c, 0, 52, 58
1, 1030590, Note_off_c, 0, 61, 55
1, 1030637, Note_on_c, 0, 52, 51
1, 1030690, Note_off_c, 0, 52, 54
1, 1030710, Control_c, 0, 64, 101
1, 1030740, Control_c, 0, 64, 98
1, 1030770, Control_c, 0, 64, 94
1, 1030785, Control_c, 0, 64, 91
1, 1030799, Control_c, 0, 64, 88
1, 1030814, Control_c, 0, 64, 84
1, 1030829, Control_c, 0, 64, 80
1, 1030830, Note_on_c, 0, 76, 70
1, 1030844, Control_c, 0, 64, 74
1, 1030859, Control_c, 0, 64, 68
1, 1030871, Note_on_c, 0, 49, 37
1, 1030873, Control_c, 0, 64, 60
1, 1030888, Control_c, 0, 64, 52
1, 1030892, Note_on_c, 0, 64, 33
1, 1030896, Note_on_c, 0, 69, 28
1, 1030903, Control_c, 0, 64, 42
1, 1030917, Control_c, 0, 64, 0
1, 1030999, Note_on_c, 0, 52, 47
1, 1031021, Control_c, 0, 64, 43
1, 1031036, Control_c, 0, 64, 56
1, 1031051, Control_c, 0, 64, 63
1, 1031067, Control_c, 0, 64, 68
1, 1031082, Control_c, 0, 64, 71
1, 1031096, Control_c, 0, 64, 74
1, 1031110, Note_off_c, 0, 69, 44
1, 1031111, Control_c, 0, 64, 78
1, 1031121, Note_on_c, 0, 57, 53
1, 1031126, Control_c, 0, 64, 81
1, 1031138, Note_off_c, 0, 64, 44
1, 1031141, Note_off_c, 0, 52, 55
1, 1031141, Control_c, 0, 64, 83
1, 1031156, Control_c, 0, 64, 84
1, 1031170, Control_c, 0, 64, 85
1, 1031185, Control_c, 0, 64, 86
1, 1031200, Control_c, 0, 64, 86
1, 1031214, Control_c, 0, 64, 87
1, 1031243, Note_off_c, 0, 76, 49
1, 1031261, Note_off_c, 0, 57, 37
1, 1031262, Note_on_c, 0, 74, 64
1, 1031294, Note_on_c, 0, 52, 47
1, 1031326, Control_c, 0, 64, 88
1, 1031331, Note_off_c, 0, 74, 65
1, 1031340, Note_on_c, 0, 73, 62
1, 1031340, Control_c, 0, 64, 89
1, 1031342, Note_off_c, 0, 49, 54
1, 1031369, Note_off_c, 0, 73, 68
1, 1031370, Control_c, 0, 64, 87
1, 1031385, Control_c, 0, 64, 72
1, 1031400, Control_c, 0, 64, 55
1, 1031402, Note_off_c, 0, 52, 38
1, 1031414, Control_c, 0, 64, 0
1, 1031432, Note_on_c, 0, 71, 71
1, 1031434, Note_on_c, 0, 66, 57
1, 1031438, Note_on_c, 0, 69, 58
1, 1031445, Note_on_c, 0, 50, 58
1, 1031498, Note_off_c, 0, 66, 64
1, 1031507, Note_off_c, 0, 71, 60
1, 1031519, Note_off_c, 0, 69, 56
1, 1031587, Note_on_c, 0, 54, 49
1, 1031711, Note_on_c, 0, 71, 72
1, 1031717, Note_on_c, 0, 66, 67
1, 1031724, Note_on_c, 0, 59, 58
1, 1031724, Note_off_c, 0, 54, 57
1, 1031728, Note_on_c, 0, 69, 45
1, 1031762, Note_off_c, 0, 69, 63
1, 1031779, Note_off_c, 0, 66, 64
1, 1031792, Note_off_c, 0, 71, 60
1, 1031842, Note_off_c, 0, 59, 55
1, 1031848, Note_on_c, 0, 54, 51
1, 1031982, Note_off_c, 0, 54, 41
1, 1032003, Note_on_c, 0, 71, 64
1, 1032012, Note_on_c, 0, 64, 55
1, 1032015, Note_on_c, 0, 52, 52
1, 1032025, Note_on_c, 0, 68, 55
1, 1032027, Note_off_c, 0, 50, 38
1, 1032078, Note_off_c, 0, 64, 56
1, 1032090, Control_c, 0, 67, 120
1, 1032105, Control_c, 0, 67, 103
1, 1032110, Note_off_c, 0, 68, 57
1, 1032120, Control_c, 0, 67, 75
1, 1032135, Control_c, 0, 67, 39
1, 1032147, Note_on_c, 0, 56, 56
1, 1032150, Control_c, 0, 64, 42
1, 1032150, Control_c, 0, 67, 0
1, 1032164, Control_c, 0, 64, 54
1, 1032179, Control_c, 0, 64, 60
1, 1032194, Control_c, 0, 64, 62
1, 1032209, Control_c, 0, 64, 64
1, 1032224, Control_c, 0, 64, 66
1, 1032238, Control_c, 0, 64, 68
1, 1032253, Control_c, 0, 64, 71
1, 1032268, Control_c, 0, 64, 74
1, 1032269, Note_off_c, 0, 56, 58
1, 1032283, Control_c, 0, 64, 77
1, 1032296, Note_on_c, 0, 74, 71
1, 1032297, Control_c, 0, 64, 80
1, 1032305, Note_on_c, 0, 59, 55
1, 1032309, Note_off_c, 0, 71, 56
1, 1032311, Note_on_c, 0, 64, 51
1, 1032312, Control_c, 0, 64, 82
1, 1032327, Control_c, 0, 64, 84
1, 1032328, Note_on_c, 0, 68, 50
1, 1032342, Control_c, 0, 64, 85
1, 1032356, Control_c, 0, 64, 85
1, 1032368, Note_off_c, 0, 64, 41
1, 1032371, Control_c, 0, 64, 86
1, 1032407, Note_off_c, 0, 68, 37
1, 1032409, Note_off_c, 0, 59, 55
1, 1032431, Control_c, 0, 64, 86
1, 1032437, Note_on_c, 0, 56, 48
1, 1032493, Note_off_c, 0, 52, 36
1, 1032493, Note_off_c, 0, 56, 55
1, 1032502, Note_off_c, 0, 74, 62
1, 1032520, Note_on_c, 0, 73, 60
1, 1032549, Control_c, 0, 64, 86
1, 1032579, Control_c, 0, 64, 85
1, 1032594, Control_c, 0, 64, 83
1, 1032606, Note_off_c, 0, 73, 57
1, 1032609, Control_c, 0, 64, 80
1, 1032624, Control_c, 0, 64, 76
1, 1032628, Note_on_c, 0, 69, 57
1, 1032638, Control_c, 0, 64, 71
1, 1032643, Note_on_c, 0, 61, 43
1, 1032653, Control_c, 0, 64, 63
1, 1032660, Note_on_c, 0, 45, 46
1, 1032669, Control_c, 0, 64, 50
1, 1032683, Control_c, 0, 64, 0
1, 1032773, Control_c, 0, 64, 34
1, 1032794, Control_c, 0, 64, 50
1, 1032795, Note_on_c, 0, 52, 49
1, 1032809, Control_c, 0, 64, 62
1, 1032824, Control_c, 0, 64, 65
1, 1032839, Control_c, 0, 64, 68
1, 1032853, Control_c, 0, 64, 70
1, 1032867, Control_c, 0, 64, 73
1, 1032882, Control_c, 0, 64, 77
1, 1032897, Control_c, 0, 64, 81
1, 1032911, Control_c, 0, 64, 84
1, 1032926, Control_c, 0, 64, 86
1, 1032931, Note_off_c, 0, 52, 60
1, 1032934, Note_on_c, 0, 57, 58
1, 1032941, Control_c, 0, 64, 86
1, 1032956, Control_c, 0, 64, 87
1, 1032971, Control_c, 0, 64, 88
1, 1032985, Control_c, 0, 64, 89
1, 1033015, Control_c, 0, 64, 89
1, 1033061, Note_off_c, 0, 57, 56
1, 1033070, Note_on_c, 0, 56, 70
1, 1033072, Note_off_c, 0, 61, 34
1, 1033134, Control_c, 0, 64, 89
1, 1033163, Control_c, 0, 64, 88
1, 1033178, Control_c, 0, 64, 86
1, 1033193, Control_c, 0, 64, 84
1, 1033195, Note_off_c, 0, 69, 37
1, 1033198, Note_off_c, 0, 45, 36
1, 1033208, Control_c, 0, 64, 80
1, 1033220, Note_off_c, 0, 56, 62
1, 1033223, Control_c, 0, 64, 76
1, 1033226, Note_on_c, 0, 57, 69
1, 1033238, Control_c, 0, 64, 72
1, 1033253, Control_c, 0, 64, 67
1, 1033267, Control_c, 0, 64, 63
1, 1033282, Control_c, 0, 64, 59
1, 1033297, Control_c, 0, 64, 56
1, 1033311, Control_c, 0, 64, 55
1, 1033352, Note_off_c, 0, 57, 63
1, 1033361, Note_on_c, 0, 54, 68
1, 1033373, Note_on_c, 0, 50, 59
1, 1033484, Note_off_c, 0, 54, 58
1, 1033494, Note_off_c, 0, 50, 61
1, 1033510, Note_on_c, 0, 52, 71
1, 1033511, Note_on_c, 0, 49, 65
1, 1033557, Control_c, 0, 64, 56
1, 1033606, Note_off_c, 0, 49, 57
1, 1033647, Note_off_c, 0, 52, 58
1, 1033659, Note_on_c, 0, 50, 65
1, 1033660, Note_on_c, 0, 47, 62
1, 1033749, Control_c, 0, 64, 56
1, 1033840, Note_off_c, 0, 47, 62
1, 1033871, Note_on_c, 0, 85, 63
1, 1033885, Note_on_c, 0, 49, 66
1, 1033886, Note_on_c, 0, 45, 55
1, 1033902, Note_off_c, 0, 50, 59
1, 1033979, Note_off_c, 0, 85, 60
1, 1033983, Note_on_c, 0, 86, 73
1, 1034067, Note_off_c, 0, 86, 64
1, 1034074, Note_on_c, 0, 88, 78
1, 1034171, Note_off_c, 0, 88, 64
1, 1034176, Note_on_c, 0, 86, 74
1, 1034180, Note_on_c, 0, 52, 81
1, 1034269, Note_on_c, 0, 85, 72
1, 1034294, Note_off_c, 0, 86, 61
1, 1034342, Note_off_c, 0, 49, 63
1, 1034374, Note_on_c, 0, 83, 69
1, 1034378, Note_off_c, 0, 85, 61
1, 1034395, Control_c, 0, 64, 57
1, 1034451, Note_off_c, 0, 83, 61
1, 1034460, Note_on_c, 0, 81, 69
1, 1034482, Note_on_c, 0, 49, 55
1, 1034513, Control_c, 0, 64, 57
1, 1034528, Control_c, 0, 64, 58
1, 1034543, Control_c, 0, 64, 59
1, 1034555, Note_off_c, 0, 81, 51
1, 1034557, Control_c, 0, 64, 60
1, 1034567, Note_on_c, 0, 83, 69
1, 1034572, Control_c, 0, 64, 62
1, 1034587, Control_c, 0, 64, 63
1, 1034602, Control_c, 0, 64, 66
1, 1034617, Control_c, 0, 64, 69
1, 1034631, Control_c, 0, 64, 72
1, 1034638, Note_off_c, 0, 52, 61
1, 1034646, Control_c, 0, 64, 74
1, 1034647, Note_off_c, 0, 45, 61
1, 1034654, Note_on_c, 0, 85, 71
1, 1034661, Control_c, 0, 64, 76
1, 1034676, Control_c, 0, 64, 79
1, 1034678, Note_off_c, 0, 83, 57
1, 1034690, Control_c, 0, 64, 81
1, 1034705, Control_c, 0, 64, 85
1, 1034720, Control_c, 0, 64, 90
1, 1034735, Control_c, 0, 64, 94
1, 1034737, Note_off_c, 0, 85, 65
1, 1034750, Control_c, 0, 64, 97
1, 1034768, Note_on_c, 0, 57, 75
1, 1034770, Note_on_c, 0, 81, 67
1, 1034779, Control_c, 0, 64, 99
1, 1034824, Note_off_c, 0, 81, 60
1, 1034856, Note_on_c, 0, 80, 69
1, 1034953, Note_on_c, 0, 78, 69
1, 1034958, Note_off_c, 0, 80, 62
1, 1035017, Control_c, 0, 64, 95
1, 1035038, Note_off_c, 0, 78, 60
1, 1035038, Control_c, 0, 64, 89
1, 1035054, Control_c, 0, 64, 80
1, 1035060, Note_on_c, 0, 76, 70
1, 1035068, Note_on_c, 0, 47, 57
1, 1035069, Control_c, 0, 64, 70
1, 1035070, Note_off_c, 0, 49, 60
1, 1035084, Control_c, 0, 64, 59
1, 1035099, Control_c, 0, 64, 44
1, 1035114, Control_c, 0, 64, 0
1, 1035129, Note_off_c, 0, 76, 61
1, 1035145, Note_on_c, 0, 75, 66
1, 1035220, Note_off_c, 0, 75, 62
1, 1035245, Note_on_c, 0, 76, 66
1, 1035307, Note_off_c, 0, 76, 60
1, 1035336, Note_on_c, 0, 56, 58
1, 1035342, Note_on_c, 0, 77, 66
1, 1035363, Note_off_c, 0, 57, 50
1, 1035422, Note_off_c, 0, 77, 61
1, 1035437, Note_on_c, 0, 78, 62
1, 1035511, Note_off_c, 0, 78, 61
1, 1035542, Note_on_c, 0, 74, 60
1, 1035637, Note_off_c, 0, 74, 56
1, 1035659, Note_on_c, 0, 73, 58
1, 1035663, Note_on_c, 0, 57, 46
1, 1035685, Note_off_c, 0, 56, 56
1, 1035697, Note_off_c, 0, 47, 48
1, 1035698, Note_on_c, 0, 49, 51
1, 1035742, Note_off_c, 0, 73, 62
1, 1035754, Note_on_c, 0, 71, 65
1, 1035833, Note_off_c, 0, 71, 60
1, 1035859, Note_on_c, 0, 69, 63
1, 1035864, Control_c, 0, 64, 28
1, 1035879, Control_c, 0, 64, 45
1, 1035893, Control_c, 0, 64, 58
1, 1035908, Control_c, 0, 64, 62
1, 1035923, Control_c, 0, 64, 64
1, 1035937, Control_c, 0, 64, 66
1, 1035952, Control_c, 0, 64, 69
1, 1035962, Note_on_c, 0, 68, 66
1, 1035967, Control_c, 0, 64, 73
1, 1035968, Note_off_c, 0, 69, 34
1, 1035982, Control_c, 0, 64, 76
1, 1035997, Control_c, 0, 64, 78
1, 1036011, Control_c, 0, 64, 80
1, 1036026, Control_c, 0, 64, 81
1, 1036029, Note_off_c, 0, 68, 60
1, 1036041, Control_c, 0, 64, 83
1, 1036045, Note_off_c, 0, 49, 63
1, 1036050, Note_on_c, 0, 71, 71
1, 1036056, Control_c, 0, 64, 84
1, 1036079, Note_off_c, 0, 57, 53
1, 1036085, Control_c, 0, 64, 84
1, 1036130, Note_off_c, 0, 71, 59
1, 1036132, Note_on_c, 0, 69, 65
1, 1036189, Control_c, 0, 64, 84
1, 1036219, Control_c, 0, 64, 83
1, 1036234, Control_c, 0, 64, 82
1, 1036249, Note_off_c, 0, 69, 60
1, 1036249, Control_c, 0, 64, 79
1, 1036258, Note_on_c, 0, 66, 67
1, 1036264, Control_c, 0, 64, 75
1, 1036278, Control_c, 0, 64, 67
1, 1036286, Note_on_c, 0, 59, 64
1, 1036293, Control_c, 0, 64, 55
1, 1036302, Note_on_c, 0, 50, 52
1, 1036308, Control_c, 0, 64, 31
1, 1036323, Control_c, 0, 64, 0
1, 1036326, Note_off_c, 0, 66, 63
1, 1036369, Note_on_c, 0, 69, 63
1, 1036397, Control_c, 0, 64, 44
1, 1036411, Control_c, 0, 64, 59
1, 1036426, Control_c, 0, 64, 66
1, 1036436, Note_off_c, 0, 69, 59
1, 1036441, Control_c, 0, 64, 71
1, 1036455, Control_c, 0, 64, 76
1, 1036467, Note_on_c, 0, 81, 74
1, 1036470, Control_c, 0, 64, 83
1, 1036485, Control_c, 0, 64, 92
1, 1036500, Control_c, 0, 64, 103
1, 1036515, Control_c, 0, 64, 127
1, 1036532, Note_off_c, 0, 81, 64
1, 1036541, Note_off_c, 0, 59, 58
1, 1036556, Note_on_c, 0, 69, 71
1, 1036612, Note_off_c, 0, 69, 61
1, 1036639, Note_on_c, 0, 81, 75
1, 1036672, Note_on_c, 0, 59, 67
1, 1036693, Note_off_c, 0, 81, 63
1, 1036719, Note_off_c, 0, 59, 62
1, 1036723, Note_on_c, 0, 69, 76
1, 1036726, Note_off_c, 0, 50, 62
1, 1036827, Note_off_c, 0, 69, 37
1, 1036835, Note_on_c, 0, 66, 71
1, 1036847, Note_on_c, 0, 61, 80
1, 1036855, Note_on_c, 0, 51, 63
1, 1036878, Control_c, 0, 64, 98
1, 1036878, Note_off_c, 0, 66, 61
1, 1036893, Control_c, 0, 64, 73
1, 1036907, Control_c, 0, 64, 54
1, 1036922, Control_c, 0, 64, 0
1, 1036938, Note_on_c, 0, 69, 71
1, 1036998, Note_off_c, 0, 69, 56
1, 1037026, Control_c, 0, 64, 37
1, 1037033, Note_on_c, 0, 81, 70
1, 1037041, Control_c, 0, 64, 51
1, 1037056, Control_c, 0, 64, 60
1, 1037056, Control_c, 0, 67, 35
1, 1037070, Control_c, 0, 64, 62
1, 1037070, Control_c, 0, 67, 39
1, 1037082, Note_off_c, 0, 81, 62
1, 1037085, Control_c, 0, 64, 63
1, 1037085, Control_c, 0, 67, 45
1, 1037100, Control_c, 0, 64, 65
1, 1037100, Control_c, 0, 67, 49
1, 1037115, Control_c, 0, 64, 69
1, 1037115, Control_c, 0, 67, 52
1, 1037116, Note_on_c, 0, 69, 71
1, 1037119, Note_on_c, 0, 57, 65
1, 1037130, Control_c, 0, 64, 73
1, 1037130, Control_c, 0, 67, 56
1, 1037144, Control_c, 0, 64, 76
1, 1037144, Control_c, 0, 67, 61
1, 1037147, Note_off_c, 0, 61, 62
1, 1037159, Control_c, 0, 64, 78
1, 1037159, Control_c, 0, 67, 64
1, 1037174, Control_c, 0, 64, 80
1, 1037174, Control_c, 0, 67, 65
1, 1037176, Note_off_c, 0, 51, 61
1, 1037185, Note_off_c, 0, 69, 57
1, 1037189, Control_c, 0, 64, 82
1, 1037191, Note_off_c, 0, 57, 63
1, 1037204, Control_c, 0, 64, 84
1, 1037211, Note_on_c, 0, 73, 77
1, 1037219, Control_c, 0, 64, 86
1, 1037233, Control_c, 0, 64, 86
1, 1037253, Note_off_c, 0, 73, 60
1, 1037263, Control_c, 0, 64, 87
1, 1037285, Control_c, 0, 67, 65
1, 1037322, Note_on_c, 0, 85, 75
1, 1037330, Control_c, 0, 67, 64
1, 1037374, Control_c, 0, 67, 64
1, 1037404, Control_c, 0, 64, 86
1, 1037419, Control_c, 0, 64, 85
1, 1037433, Control_c, 0, 64, 84
1, 1037448, Control_c, 0, 64, 82
1, 1037456, Note_off_c, 0, 85, 56
1, 1037464, Control_c, 0, 64, 80
1, 1037465, Note_on_c, 0, 73, 68
1, 1037471, Note_on_c, 0, 57, 67
1, 1037479, Control_c, 0, 64, 79
1, 1037483, Note_on_c, 0, 52, 58
1, 1037494, Control_c, 0, 64, 77
1, 1037508, Control_c, 0, 64, 77
1, 1037523, Control_c, 0, 64, 76
1, 1037523, Control_c, 0, 67, 63
1, 1037538, Control_c, 0, 64, 74
1, 1037553, Note_off_c, 0, 73, 55
1, 1037553, Control_c, 0, 64, 71
1, 1037568, Control_c, 0, 64, 67
1, 1037573, Note_on_c, 0, 76, 68
1, 1037582, Control_c, 0, 64, 62
1, 1037582, Control_c, 0, 67, 63
1, 1037597, Control_c, 0, 64, 57
1, 1037597, Control_c, 0, 67, 61
1, 1037612, Control_c, 0, 64, 54
1, 1037612, Control_c, 0, 67, 60
1, 1037627, Control_c, 0, 64, 52
1, 1037627, Control_c, 0, 67, 59
1, 1037642, Control_c, 0, 64, 51
1, 1037642, Control_c, 0, 67, 58
1, 1037647, Note_off_c, 0, 76, 63
1, 1037656, Control_c, 0, 64, 50
1, 1037656, Control_c, 0, 67, 57
1, 1037665, Note_on_c, 0, 80, 69
1, 1037686, Control_c, 0, 64, 50
1, 1037700, Control_c, 0, 64, 49
1, 1037709, Note_off_c, 0, 80, 59
1, 1037730, Control_c, 0, 67, 58
1, 1037753, Note_on_c, 0, 81, 73
1, 1037760, Control_c, 0, 67, 58
1, 1037775, Control_c, 0, 64, 49
1, 1037790, Control_c, 0, 67, 59
1, 1037805, Control_c, 0, 64, 48
1, 1037820, Note_off_c, 0, 81, 58
1, 1037820, Control_c, 0, 64, 48
1, 1037846, Note_on_c, 0, 83, 68
1, 1037849, Control_c, 0, 64, 47
1, 1037849, Control_c, 0, 67, 60
1, 1037918, Note_off_c, 0, 83, 60
1, 1037933, Note_on_c, 0, 85, 73
1, 1037953, Control_c, 0, 67, 59
1, 1037967, Control_c, 0, 67, 58
1, 1037982, Control_c, 0, 64, 47
1, 1037997, Control_c, 0, 67, 58
1, 1038013, Note_off_c, 0, 85, 63
1, 1038019, Note_off_c, 0, 57, 60
1, 1038031, Note_on_c, 0, 56, 61
1, 1038033, Note_on_c, 0, 83, 81
1, 1038034, Control_c, 0, 64, 46
1, 1038049, Control_c, 0, 64, 46
1, 1038052, Note_off_c, 0, 52, 60
1, 1038064, Control_c, 0, 64, 45
1, 1038067, Note_off_c, 0, 56, 67
1, 1038108, Control_c, 0, 64, 44
1, 1038121, Note_on_c, 0, 85, 76
1, 1038123, Control_c, 0, 64, 43
1, 1038127, Note_off_c, 0, 83, 41
1, 1038138, Control_c, 0, 64, 42
1, 1038153, Control_c, 0, 64, 40
1, 1038165, Note_on_c, 0, 54, 58
1, 1038168, Control_c, 0, 64, 36
1, 1038182, Control_c, 0, 64, 28
1, 1038192, Note_off_c, 0, 54, 65
1, 1038197, Control_c, 0, 64, 0
1, 1038199, Note_off_c, 0, 85, 56
1, 1038211, Note_on_c, 0, 86, 74
1, 1038226, Control_c, 0, 67, 58
1, 1038301, Note_off_c, 0, 86, 62
1, 1038305, Note_on_c, 0, 85, 76
1, 1038314, Note_on_c, 0, 52, 41
1, 1038331, Control_c, 0, 67, 59
1, 1038347, Note_off_c, 0, 52, 48
1, 1038373, Note_off_c, 0, 85, 64
1, 1038391, Control_c, 0, 67, 60
1, 1038401, Note_on_c, 0, 86, 74
1, 1038441, Note_on_c, 0, 50, 24
1, 1038464, Note_off_c, 0, 86, 63
1, 1038482, Note_off_c, 0, 50, 42
1, 1038494, Note_on_c, 0, 83, 71
1, 1038553, Control_c, 0, 67, 59
1, 1038568, Control_c, 0, 67, 58
1, 1038583, Control_c, 0, 67, 58
1, 1038598, Control_c, 0, 67, 57
1, 1038613, Control_c, 0, 67, 56
1, 1038625, Note_on_c, 0, 85, 69
1, 1038627, Control_c, 0, 67, 54
1, 1038632, Note_off_c, 0, 83, 56
1, 1038642, Control_c, 0, 67, 52
1, 1038645, Note_on_c, 0, 45, 40
1, 1038647, Note_on_c, 0, 49, 39
1, 1038657, Control_c, 0, 67, 49
1, 1038672, Control_c, 0, 67, 48
1, 1038687, Control_c, 0, 67, 46
1, 1038702, Control_c, 0, 64, 28
1, 1038702, Control_c, 0, 67, 45
1, 1038717, Control_c, 0, 64, 40
1, 1038731, Control_c, 0, 64, 47
1, 1038734, Note_off_c, 0, 85, 62
1, 1038736, Note_on_c, 0, 86, 66
1, 1038746, Control_c, 0, 64, 51
1, 1038761, Control_c, 0, 64, 56
1, 1038783, Control_c, 0, 64, 59
1, 1038783, Control_c, 0, 67, 46
1, 1038798, Control_c, 0, 64, 60
1, 1038798, Control_c, 0, 67, 46
1, 1038812, Control_c, 0, 64, 61
1, 1038827, Control_c, 0, 64, 62
1, 1038833, Note_off_c, 0, 86, 64
1, 1038843, Control_c, 0, 64, 63
1, 1038848, Note_on_c, 0, 88, 66
1, 1038857, Control_c, 0, 64, 64
1, 1038857, Control_c, 0, 67, 46
1, 1038872, Control_c, 0, 64, 64
1, 1038872, Control_c, 0, 67, 45
1, 1038887, Control_c, 0, 64, 65
1, 1038887, Control_c, 0, 67, 42
1, 1038902, Control_c, 0, 64, 65
1, 1038902, Control_c, 0, 67, 40
1, 1038917, Control_c, 0, 64, 66
1, 1038917, Control_c, 0, 67, 38
1, 1038931, Control_c, 0, 64, 67
1, 1038931, Control_c, 0, 67, 33
1, 1038946, Control_c, 0, 64, 68
1, 1038946, Control_c, 0, 67, 0
1, 1038948, Note_off_c, 0, 88, 62
1, 1038961, Control_c, 0, 64, 68
1, 1038967, Note_on_c, 0, 86, 59
1, 1038976, Control_c, 0, 64, 69
1, 1038989, Note_on_c, 0, 52, 67
1, 1038991, Control_c, 0, 64, 69
1, 1039006, Control_c, 0, 64, 70
1, 1039036, Control_c, 0, 64, 70
1, 1039051, Control_c, 0, 64, 71
1, 1039066, Control_c, 0, 64, 71
1, 1039075, Note_off_c, 0, 86, 63
1, 1039081, Note_on_c, 0, 85, 67
1, 1039096, Control_c, 0, 64, 72
1, 1039110, Control_c, 0, 64, 72
1, 1039125, Control_c, 0, 64, 73
1, 1039140, Control_c, 0, 64, 74
1, 1039152, Note_off_c, 0, 49, 63
1, 1039155, Control_c, 0, 64, 74
1, 1039158, Note_off_c, 0, 85, 63
1, 1039167, Note_on_c, 0, 83, 70
1, 1039170, Control_c, 0, 64, 75
1, 1039185, Control_c, 0, 64, 75
1, 1039200, Control_c, 0, 64, 76
1, 1039229, Control_c, 0, 64, 76
1, 1039236, Note_off_c, 0, 83, 60
1, 1039264, Note_on_c, 0, 81, 64
1, 1039288, Note_on_c, 0, 49, 53
1, 1039303, Control_c, 0, 64, 77
1, 1039334, Note_off_c, 0, 81, 57
1, 1039358, Note_on_c, 0, 83, 65
1, 1039367, Note_off_c, 0, 45, 56
1, 1039406, Note_off_c, 0, 52, 62
1, 1039421, Control_c, 0, 64, 77
1, 1039444, Note_on_c, 0, 85, 70
1, 1039444, Note_off_c, 0, 83, 61
1, 1039507, Note_off_c, 0, 85, 64
1, 1039562, Note_on_c, 0, 81, 65
1, 1039563, Note_on_c, 0, 57, 76
1, 1039627, Note_off_c, 0, 81, 56
1, 1039650, Note_on_c, 0, 80, 63
1, 1039739, Note_off_c, 0, 80, 63
1, 1039754, Control_c, 0, 64, 77
1, 1039764, Note_on_c, 0, 78, 29
1, 1039784, Control_c, 0, 64, 76
1, 1039791, Note_on_c, 0, 77, 41
1, 1039799, Control_c, 0, 64, 75
1, 1039807, Note_off_c, 0, 78, 47
1, 1039814, Control_c, 0, 64, 74
1, 1039820, Note_off_c, 0, 77, 55
1, 1039829, Control_c, 0, 64, 72
1, 1039844, Control_c, 0, 64, 71
1, 1039853, Note_on_c, 0, 76, 63
1, 1039859, Control_c, 0, 64, 69
1, 1039862, Note_on_c, 0, 47, 53
1, 1039873, Note_off_c, 0, 49, 59
1, 1039874, Control_c, 0, 64, 67
1, 1039889, Control_c, 0, 64, 66
1, 1039903, Control_c, 0, 64, 66
1, 1039920, Note_off_c, 0, 76, 58
1, 1039933, Control_c, 0, 64, 66
1, 1039947, Note_on_c, 0, 75, 63
1, 1039948, Control_c, 0, 64, 67
1, 1039963, Control_c, 0, 64, 68
1, 1039978, Control_c, 0, 64, 69
1, 1039993, Control_c, 0, 64, 70
1, 1040008, Control_c, 0, 64, 70
1, 1040016, Note_off_c, 0, 75, 60
1, 1040022, Control_c, 0, 64, 71
1, 1040033, Note_on_c, 0, 76, 67
1, 1040102, Note_on_c, 0, 56, 57
1, 1040102, Note_off_c, 0, 76, 58
1, 1040123, Note_on_c, 0, 77, 68
1, 1040126, Control_c, 0, 64, 70
1, 1040141, Control_c, 0, 64, 70
1, 1040149, Note_off_c, 0, 57, 54
1, 1040156, Control_c, 0, 64, 69
1, 1040170, Control_c, 0, 64, 69
1, 1040185, Control_c, 0, 64, 68
1, 1040200, Control_c, 0, 64, 68
1, 1040209, Note_off_c, 0, 77, 61
1, 1040217, Note_on_c, 0, 78, 67
1, 1040230, Control_c, 0, 64, 67
1, 1040244, Control_c, 0, 64, 65
1, 1040259, Control_c, 0, 64, 64
1, 1040282, Control_c, 0, 64, 62
1, 1040297, Control_c, 0, 64, 60
1, 1040301, Note_off_c, 0, 78, 61
1, 1040311, Control_c, 0, 64, 58
1, 1040326, Control_c, 0, 64, 55
1, 1040330, Note_on_c, 0, 74, 71
1, 1040341, Control_c, 0, 64, 52
1, 1040356, Control_c, 0, 64, 47
1, 1040371, Control_c, 0, 64, 41
1, 1040385, Control_c, 0, 64, 30
1, 1040398, Note_off_c, 0, 74, 58
1, 1040400, Control_c, 0, 64, 0
1, 1040438, Note_on_c, 0, 73, 60
1, 1040459, Note_off_c, 0, 47, 56
1, 1040460, Note_on_c, 0, 57, 46
1, 1040475, Note_on_c, 0, 49, 49
1, 1040487, Note_off_c, 0, 56, 55
1, 1040517, Note_off_c, 0, 73, 62
1, 1040522, Note_on_c, 0, 71, 67
1, 1040589, Note_off_c, 0, 71, 62
1, 1040625, Note_on_c, 0, 69, 62
1, 1040653, Control_c, 0, 64, 38
1, 1040667, Control_c, 0, 64, 56
1, 1040682, Control_c, 0, 64, 61
1, 1040697, Control_c, 0, 64, 63
1, 1040709, Note_off_c, 0, 69, 60
1, 1040712, Control_c, 0, 64, 65
1, 1040719, Note_on_c, 0, 68, 64
1, 1040726, Control_c, 0, 64, 68
1, 1040741, Control_c, 0, 64, 70
1, 1040756, Control_c, 0, 64, 72
1, 1040771, Control_c, 0, 64, 73
1, 1040783, Note_off_c, 0, 49, 62
1, 1040784, Note_off_c, 0, 57, 62
1, 1040786, Control_c, 0, 64, 74
1, 1040795, Note_off_c, 0, 68, 60
1, 1040800, Control_c, 0, 64, 75
1, 1040815, Control_c, 0, 64, 76
1, 1040819, Note_on_c, 0, 71, 60
1, 1040830, Control_c, 0, 64, 78
1, 1040845, Control_c, 0, 64, 79
1, 1040860, Control_c, 0, 64, 82
1, 1040875, Control_c, 0, 64, 86
1, 1040882, Note_off_c, 0, 71, 60
1, 1040890, Control_c, 0, 64, 90
1, 1040895, Note_on_c, 0, 69, 59
1, 1040905, Control_c, 0, 64, 90
1, 1040919, Control_c, 0, 64, 89
1, 1040932, Note_off_c, 0, 69, 64
1, 1040934, Control_c, 0, 64, 81
1, 1040949, Control_c, 0, 64, 69
1, 1040964, Control_c, 0, 64, 51
1, 1040979, Control_c, 0, 64, 34
1, 1040993, Control_c, 0, 64, 32
1, 1041008, Control_c, 0, 64, 38
1, 1041024, Note_on_c, 0, 69, 63
1, 1041028, Note_on_c, 0, 59, 55
1, 1041030, Control_c, 0, 64, 48
1, 1041041, Note_on_c, 0, 50, 47
1, 1041045, Control_c, 0, 64, 59
1, 1041060, Control_c, 0, 64, 67
1, 1041075, Control_c, 0, 64, 81
1, 1041089, Control_c, 0, 64, 101
1, 1041093, Note_off_c, 0, 69, 53
1, 1041104, Control_c, 0, 64, 106
1, 1041113, Note_on_c, 0, 78, 67
1, 1041113, Note_off_c, 0, 50, 59
1, 1041116, Note_off_c, 0, 59, 62
1, 1041119, Control_c, 0, 64, 101
1, 1041133, Control_c, 0, 64, 85
1, 1041148, Control_c, 0, 64, 68
1, 1041163, Control_c, 0, 64, 49
1, 1041178, Control_c, 0, 64, 0
1, 1041184, Note_off_c, 0, 78, 60
1, 1041203, Note_on_c, 0, 69, 65
1, 1041268, Note_off_c, 0, 69, 59
1, 1041286, Note_on_c, 0, 61, 61
1, 1041292, Note_on_c, 0, 52, 55
1, 1041294, Note_on_c, 0, 76, 72
1, 1041325, Note_off_c, 0, 61, 63
1, 1041333, Note_off_c, 0, 52, 62
1, 1041359, Note_off_c, 0, 76, 61
1, 1041378, Note_on_c, 0, 69, 68
1, 1041447, Note_on_c, 0, 62, 53
1, 1041450, Note_off_c, 0, 69, 56
1, 1041456, Note_on_c, 0, 54, 51
1, 1041471, Note_off_c, 0, 62, 59
1, 1041486, Note_on_c, 0, 74, 68
1, 1041494, Note_off_c, 0, 54, 61
1, 1041593, Note_off_c, 0, 74, 58
1, 1041603, Note_on_c, 0, 76, 58
1, 1041623, Control_c, 0, 64, 40
1, 1041627, Note_on_c, 0, 61, 47
1, 1041638, Control_c, 0, 64, 55
1, 1041649, Note_on_c, 0, 52, 36
1, 1041653, Control_c, 0, 64, 63
1, 1041667, Control_c, 0, 64, 68
1, 1041682, Control_c, 0, 64, 71
1, 1041685, Note_off_c, 0, 76, 62
1, 1041697, Control_c, 0, 64, 72
1, 1041702, Note_on_c, 0, 69, 62
1, 1041712, Control_c, 0, 64, 71
1, 1041719, Note_off_c, 0, 61, 64
1, 1041727, Control_c, 0, 64, 66
1, 1041741, Control_c, 0, 64, 51
1, 1041742, Note_off_c, 0, 52, 61
1, 1041756, Control_c, 0, 64, 0
1, 1041758, Note_off_c, 0, 69, 59
1, 1041802, Note_on_c, 0, 81, 64
1, 1041838, Control_c, 0, 67, 33
1, 1041853, Control_c, 0, 67, 43
1, 1041868, Control_c, 0, 67, 52
1, 1041880, Note_off_c, 0, 81, 63
1, 1041883, Control_c, 0, 67, 53
1, 1041889, Note_on_c, 0, 52, 59
1, 1041896, Note_on_c, 0, 76, 69
1, 1041897, Control_c, 0, 64, 30
1, 1041902, Note_on_c, 0, 59, 58
1, 1041912, Control_c, 0, 64, 40
1, 1041912, Control_c, 0, 67, 52
1, 1041927, Control_c, 0, 64, 51
1, 1041927, Control_c, 0, 67, 51
1, 1041938, Note_off_c, 0, 52, 62
1, 1041938, Note_off_c, 0, 59, 65
1, 1041942, Control_c, 0, 64, 60
1, 1041942, Control_c, 0, 67, 50
1, 1041957, Control_c, 0, 64, 62
1, 1041972, Control_c, 0, 64, 63
1, 1041972, Control_c, 0, 67, 49
1, 1041987, Control_c, 0, 64, 64
1, 1041987, Control_c, 0, 67, 49
1, 1041988, Note_off_c, 0, 76, 62
1, 1041996, Note_on_c, 0, 68, 69
1, 1042002, Control_c, 0, 64, 66
1, 1042002, Control_c, 0, 67, 48
1, 1042017, Control_c, 0, 64, 68
1, 1042017, Control_c, 0, 67, 46
1, 1042031, Control_c, 0, 64, 69
1, 1042031, Control_c, 0, 67, 46
1, 1042046, Control_c, 0, 64, 70
1, 1042046, Control_c, 0, 67, 45
1, 1042053, Note_off_c, 0, 68, 62
1, 1042061, Control_c, 0, 67, 44
1, 1042079, Note_on_c, 0, 80, 69
1, 1042090, Control_c, 0, 64, 69
1, 1042090, Control_c, 0, 67, 43
1, 1042105, Control_c, 0, 64, 68
1, 1042108, Note_off_c, 0, 80, 64
1, 1042120, Control_c, 0, 64, 66
1, 1042135, Control_c, 0, 64, 63
1, 1042149, Control_c, 0, 64, 61
1, 1042149, Control_c, 0, 67, 44
1, 1042164, Control_c, 0, 64, 59
1, 1042179, Control_c, 0, 64, 57
1, 1042179, Control_c, 0, 67, 45
1, 1042194, Control_c, 0, 64, 55
1, 1042209, Control_c, 0, 64, 55
1, 1042215, Note_on_c, 0, 59, 50
1, 1042215, Note_on_c, 0, 80, 63
1, 1042223, Control_c, 0, 64, 54
1, 1042231, Note_on_c, 0, 45, 45
1, 1042233, Note_on_c, 0, 52, 45
1, 1042238, Control_c, 0, 64, 53
1, 1042240, Note_on_c, 0, 50, 40
1, 1042254, Control_c, 0, 64, 51
1, 1042269, Control_c, 0, 64, 49
1, 1042284, Control_c, 0, 64, 48
1, 1042298, Control_c, 0, 64, 47
1, 1042323, Note_on_c, 0, 86, 69
1, 1042324, Note_off_c, 0, 80, 61
1, 1042343, Control_c, 0, 64, 47
1, 1042358, Control_c, 0, 64, 46
1, 1042372, Control_c, 0, 64, 45
1, 1042372, Control_c, 0, 67, 45
1, 1042387, Control_c, 0, 64, 45
1, 1042387, Control_c, 0, 67, 46
1, 1042402, Control_c, 0, 64, 44
1, 1042417, Control_c, 0, 64, 40
1, 1042422, Note_on_c, 0, 85, 68
1, 1042423, Note_off_c, 0, 86, 59
1, 1042432, Control_c, 0, 64, 35
1, 1042446, Control_c, 0, 64, 29
1, 1042461, Control_c, 0, 64, 0
1, 1042503, Note_on_c, 0, 83, 68
1, 1042531, Note_off_c, 0, 85, 59
1, 1042586, Note_off_c, 0, 83, 64
1, 1042603, Note_on_c, 0, 81, 64
1, 1042609, Note_off_c, 0, 59, 47
1, 1042646, Control_c, 0, 67, 45
1, 1042661, Control_c, 0, 67, 45
1, 1042676, Control_c, 0, 64, 33
1, 1042691, Control_c, 0, 64, 44
1, 1042691, Control_c, 0, 67, 44
1, 1042699, Note_off_c, 0, 81, 60
1, 1042704, Note_on_c, 0, 80, 61
1, 1042705, Control_c, 0, 64, 54
1, 1042705, Control_c, 0, 67, 43
1, 1042720, Control_c, 0, 64, 59
1, 1042720, Control_c, 0, 67, 42
1, 1042735, Control_c, 0, 64, 61
1, 1042735, Control_c, 0, 67, 40
1, 1042738, Note_off_c, 0, 50, 44
1, 1042750, Control_c, 0, 64, 63
1, 1042750, Control_c, 0, 67, 38
1, 1042765, Control_c, 0, 64, 64
1, 1042765, Control_c, 0, 67, 37
1, 1042780, Control_c, 0, 64, 65
1, 1042780, Control_c, 0, 67, 34
1, 1042791, Note_off_c, 0, 52, 59
1, 1042795, Control_c, 0, 64, 66
1, 1042795, Control_c, 0, 67, 0
1, 1042813, Note_on_c, 0, 81, 62
1, 1042817, Note_on_c, 0, 49, 38
1, 1042817, Note_on_c, 0, 57, 47
1, 1042818, Note_off_c, 0, 45, 26
1, 1042827, Note_off_c, 0, 80, 49
1, 1042839, Control_c, 0, 64, 66
1, 1042846, Note_off_c, 0, 49, 56
1, 1042854, Control_c, 0, 64, 64
1, 1042869, Control_c, 0, 64, 59
1, 1042884, Control_c, 0, 64, 51
1, 1042885, Note_off_c, 0, 81, 62
1, 1042887, Note_off_c, 0, 57, 63
1, 1042898, Control_c, 0, 64, 41
1, 1042913, Control_c, 0, 64, 27
1, 1042928, Control_c, 0, 64, 0
1, 1042975, Note_on_c, 0, 59, 76
1, 1043030, Note_off_c, 0, 59, 64
1, 1043119, Note_on_c, 0, 61, 78
1, 1043175, Note_off_c, 0, 61, 64
1, 1043267, Note_on_c, 0, 62, 82
1, 1043307, Control_c, 0, 64, 28
1, 1043310, Note_off_c, 0, 62, 64
1, 1043425, Control_c, 0, 64, 30
1, 1043435, Note_on_c, 0, 64, 74
1, 1043451, Note_on_c, 0, 69, 58
1, 1043475, Note_on_c, 0, 61, 55
1, 1043486, Note_off_c, 0, 69, 63
1, 1043528, Control_c, 0, 64, 32
1, 1043543, Control_c, 0, 64, 33
1, 1043558, Control_c, 0, 64, 34
1, 1043572, Note_on_c, 0, 71, 69
1, 1043573, Control_c, 0, 64, 35
1, 1043588, Control_c, 0, 64, 39
1, 1043603, Control_c, 0, 64, 42
1, 1043617, Control_c, 0, 64, 45
1, 1043632, Control_c, 0, 64, 47
1, 1043634, Note_off_c, 0, 71, 61
1, 1043647, Control_c, 0, 64, 49
1, 1043662, Control_c, 0, 64, 50
1, 1043677, Control_c, 0, 64, 51
1, 1043692, Control_c, 0, 64, 52
1, 1043707, Control_c, 0, 64, 53
1, 1043714, Note_off_c, 0, 64, 61
1, 1043715, Note_on_c, 0, 73, 67
1, 1043721, Control_c, 0, 64, 54
1, 1043736, Control_c, 0, 64, 55
1, 1043751, Control_c, 0, 64, 55
1, 1043766, Control_c, 0, 64, 56
1, 1043777, Note_off_c, 0, 73, 62
1, 1043781, Control_c, 0, 64, 56
1, 1043795, Control_c, 0, 64, 57
1, 1043810, Control_c, 0, 64, 58
1, 1043825, Control_c, 0, 64, 60
1, 1043841, Control_c, 0, 64, 61
1, 1043844, Note_on_c, 0, 74, 71
1, 1043852, Note_on_c, 0, 64, 70
1, 1043856, Control_c, 0, 64, 62
1, 1043870, Control_c, 0, 64, 63
1, 1043874, Note_off_c, 0, 74, 61
1, 1043885, Control_c, 0, 64, 64
1, 1043900, Control_c, 0, 64, 65
1, 1043915, Control_c, 0, 64, 66
1, 1043930, Control_c, 0, 64, 66
1, 1043944, Control_c, 0, 64, 67
1, 1043959, Control_c, 0, 64, 67
1, 1043974, Control_c, 0, 64, 68
1, 1044010, Note_on_c, 0, 66, 78
1, 1044011, Note_on_c, 0, 76, 65
1, 1044026, Control_c, 0, 67, 39
1, 1044031, Note_off_c, 0, 61, 57
1, 1044034, Note_on_c, 0, 58, 66
1, 1044041, Control_c, 0, 67, 46
1, 1044050, Note_off_c, 0, 64, 50
1, 1044056, Control_c, 0, 67, 50
1, 1044070, Control_c, 0, 67, 54
1, 1044074, Note_off_c, 0, 76, 62
1, 1044085, Control_c, 0, 67, 55
1, 1044100, Control_c, 0, 64, 66
1, 1044115, Control_c, 0, 64, 61
1, 1044116, Note_on_c, 0, 75, 67
1, 1044130, Control_c, 0, 64, 48
1, 1044144, Control_c, 0, 64, 0
1, 1044177, Note_off_c, 0, 75, 63
1, 1044202, Note_on_c, 0, 76, 65
1, 1044233, Control_c, 0, 67, 54
1, 1044263, Control_c, 0, 64, 33
1, 1044267, Note_off_c, 0, 76, 59
1, 1044277, Control_c, 0, 64, 51
1, 1044277, Control_c, 0, 67, 54
1, 1044292, Control_c, 0, 64, 62
1, 1044292, Control_c, 0, 67, 53
1, 1044297, Note_on_c, 0, 78, 67
1, 1044307, Control_c, 0, 64, 65
1, 1044322, Control_c, 0, 64, 66
1, 1044337, Control_c, 0, 64, 68
1, 1044351, Control_c, 0, 64, 71
1, 1044366, Control_c, 0, 64, 74
1, 1044372, Note_off_c, 0, 66, 62
1, 1044378, Note_off_c, 0, 78, 57
1, 1044379, Note_on_c, 0, 85, 74
1, 1044381, Control_c, 0, 64, 78
1, 1044390, Note_off_c, 0, 58, 61
1, 1044396, Control_c, 0, 64, 79
1, 1044396, Control_c, 0, 67, 54
1, 1044411, Control_c, 0, 64, 80
1, 1044440, Control_c, 0, 67, 53
1, 1044452, Note_off_c, 0, 85, 64
1, 1044455, Control_c, 0, 67, 53
1, 1044472, Note_on_c, 0, 77, 74
1, 1044485, Control_c, 0, 67, 52
1, 1044544, Control_c, 0, 64, 79
1, 1044556, Note_off_c, 0, 77, 52
1, 1044559, Control_c, 0, 64, 78
1, 1044559, Control_c, 0, 67, 52
1, 1044574, Control_c, 0, 64, 77
1, 1044574, Control_c, 0, 67, 51
1, 1044586, Note_on_c, 0, 78, 66
1, 1044588, Control_c, 0, 64, 75
1, 1044603, Control_c, 0, 64, 73
1, 1044614, Note_on_c, 0, 64, 60
1, 1044618, Control_c, 0, 64, 71
1, 1044631, Note_on_c, 0, 59, 49
1, 1044633, Control_c, 0, 64, 68
1, 1044649, Control_c, 0, 64, 65
1, 1044664, Control_c, 0, 64, 63
1, 1044676, Note_off_c, 0, 78, 60
1, 1044679, Control_c, 0, 64, 60
1, 1044693, Control_c, 0, 64, 58
1, 1044693, Control_c, 0, 67, 50
1, 1044695, Note_on_c, 0, 77, 59
1, 1044708, Control_c, 0, 64, 56
1, 1044708, Control_c, 0, 67, 50
1, 1044723, Control_c, 0, 64, 54
1, 1044738, Control_c, 0, 64, 53
1, 1044738, Control_c, 0, 67, 49
1, 1044743, Note_off_c, 0, 77, 60
1, 1044753, Control_c, 0, 64, 52
1, 1044774, Control_c, 0, 64, 50
1, 1044789, Control_c, 0, 64, 47
1, 1044799, Note_on_c, 0, 78, 66
1, 1044804, Control_c, 0, 64, 46
1, 1044804, Control_c, 0, 67, 49
1, 1044819, Control_c, 0, 64, 45
1, 1044834, Control_c, 0, 67, 48
1, 1044848, Control_c, 0, 64, 45
1, 1044863, Control_c, 0, 64, 43
1, 1044869, Note_off_c, 0, 78, 60
1, 1044878, Control_c, 0, 64, 42
1, 1044889, Note_on_c, 0, 79, 66
1, 1044892, Control_c, 0, 64, 41
1, 1044898, Note_on_c, 0, 63, 58
1, 1044907, Control_c, 0, 67, 48
1, 1044913, Note_off_c, 0, 64, 63
1, 1044932, Note_off_c, 0, 63, 65
1, 1044934, Note_off_c, 0, 59, 63
1, 1044938, Note_off_c, 0, 79, 58
1, 1044952, Control_c, 0, 67, 47
1, 1044966, Control_c, 0, 67, 46
1, 1044978, Note_on_c, 0, 80, 67
1, 1044996, Control_c, 0, 67, 46
1, 1045011, Control_c, 0, 67, 45
1, 1045025, Control_c, 0, 64, 42
1, 1045040, Control_c, 0, 64, 42
1, 1045040, Control_c, 0, 67, 45
1, 1045050, Note_off_c, 0, 80, 58
1, 1045055, Control_c, 0, 67, 44
1, 1045062, Note_on_c, 0, 82, 64
1, 1045085, Control_c, 0, 67, 43
1, 1045099, Control_c, 0, 67, 43
1, 1045114, Control_c, 0, 67, 42
1, 1045129, Control_c, 0, 67, 41
1, 1045144, Control_c, 0, 67, 41
1, 1045159, Control_c, 0, 67, 40
1, 1045173, Control_c, 0, 67, 39
1, 1045188, Control_c, 0, 67, 39
1, 1045203, Control_c, 0, 67, 38
1, 1045213, Note_off_c, 0, 82, 55
1, 1045218, Control_c, 0, 67, 38
1, 1045228, Note_on_c, 0, 83, 55
1, 1045233, Control_c, 0, 67, 37
1, 1045248, Control_c, 0, 67, 36
1, 1045263, Control_c, 0, 67, 35
1, 1045276, Note_on_c, 0, 59, 53
1, 1045278, Control_c, 0, 67, 34
1, 1045292, Control_c, 0, 67, 0
1, 1045454, Note_off_c, 0, 83, 56
1, 1045471, Control_c, 0, 64, 43
1, 1045612, Control_c, 0, 64, 42
1, 1045737, Note_on_c, 0, 61, 51
1, 1045814, Note_off_c, 0, 59, 49
1, 1045901, Note_on_c, 0, 62, 53
1, 1045913, Note_off_c, 0, 61, 57
1, 1046035, Note_on_c, 0, 74, 59
1, 1046038, Note_on_c, 0, 54, 49
1, 1046069, Note_off_c, 0, 74, 62
1, 1046078, Note_off_c, 0, 54, 62
1, 1046178, Note_on_c, 0, 56, 57
1, 1046184, Note_on_c, 0, 76, 50
1, 1046217, Note_off_c, 0, 76, 65
1, 1046222, Note_off_c, 0, 56, 59
1, 1046271, Control_c, 0, 67, 38
1, 1046286, Control_c, 0, 67, 40
1, 1046301, Control_c, 0, 67, 41
1, 1046316, Control_c, 0, 67, 41
1, 1046319, Note_on_c, 0, 78, 62
1, 1046326, Note_on_c, 0, 57, 50
1, 1046326, Note_off_c, 0, 62, 59
1, 1046331, Control_c, 0, 67, 42
1, 1046355, Note_off_c, 0, 78, 58
1, 1046388, Note_off_c, 0, 57, 56
1, 1046419, Control_c, 0, 67, 42
1, 1046508, Note_on_c, 0, 76, 52
1, 1046522, Note_on_c, 0, 56, 37
1, 1046523, Note_on_c, 0, 64, 34
1, 1046524, Control_c, 0, 67, 42
1, 1046590, Note_off_c, 0, 76, 54
1, 1046598, Control_c, 0, 64, 42
1, 1046598, Control_c, 0, 67, 41
1, 1046607, Note_on_c, 0, 80, 58
1, 1046612, Control_c, 0, 64, 41
1, 1046627, Control_c, 0, 64, 38
1, 1046642, Control_c, 0, 64, 30
1, 1046642, Control_c, 0, 67, 41
1, 1046657, Control_c, 0, 64, 0
1, 1046671, Control_c, 0, 67, 40
1, 1046679, Note_off_c, 0, 80, 57
1, 1046698, Note_on_c, 0, 81, 64
1, 1046701, Control_c, 0, 67, 39
1, 1046716, Control_c, 0, 67, 39
1, 1046731, Control_c, 0, 64, 31
1, 1046731, Control_c, 0, 67, 38
1, 1046745, Control_c, 0, 64, 44
1, 1046745, Control_c, 0, 67, 37
1, 1046760, Control_c, 0, 64, 56
1, 1046760, Control_c, 0, 67, 36
1, 1046771, Note_off_c, 0, 81, 63
1, 1046775, Control_c, 0, 64, 63
1, 1046775, Control_c, 0, 67, 35
1, 1046785, Note_on_c, 0, 83, 65
1, 1046789, Control_c, 0, 64, 66
1, 1046789, Control_c, 0, 67, 35
1, 1046804, Control_c, 0, 64, 68
1, 1046819, Control_c, 0, 64, 70
1, 1046819, Control_c, 0, 67, 34
1, 1046834, Control_c, 0, 64, 73
1, 1046834, Control_c, 0, 67, 34
1, 1046849, Control_c, 0, 64, 75
1, 1046853, Note_off_c, 0, 64, 51
1, 1046859, Note_off_c, 0, 83, 60
1, 1046864, Control_c, 0, 64, 76
1, 1046870, Note_on_c, 0, 80, 67
1, 1046879, Control_c, 0, 64, 76
1, 1046879, Control_c, 0, 67, 33
1, 1046896, Note_off_c, 0, 56, 41
1, 1046923, Control_c, 0, 64, 77
1, 1046935, Note_off_c, 0, 80, 62
1, 1046972, Note_on_c, 0, 74, 62
1, 1046982, Control_c, 0, 64, 76
1, 1047016, Note_off_c, 0, 74, 59
1, 1047019, Control_c, 0, 64, 75
1, 1047034, Control_c, 0, 64, 74
1, 1047050, Control_c, 0, 64, 73
1, 1047065, Control_c, 0, 64, 70
1, 1047065, Control_c, 0, 67, 34
1, 1047080, Note_on_c, 0, 73, 58
1, 1047080, Control_c, 0, 64, 67
1, 1047094, Control_c, 0, 64, 64
1, 1047094, Control_c, 0, 67, 34
1, 1047104, Note_on_c, 0, 57, 40
1, 1047109, Control_c, 0, 64, 59
1, 1047124, Control_c, 0, 64, 53
1, 1047139, Control_c, 0, 64, 46
1, 1047154, Note_off_c, 0, 73, 61
1, 1047154, Control_c, 0, 64, 37
1, 1047154, Control_c, 0, 67, 34
1, 1047168, Control_c, 0, 64, 0
1, 1047168, Control_c, 0, 67, 33
1, 1047183, Note_on_c, 0, 71, 60
1, 1047183, Control_c, 0, 67, 0
1, 1047228, Note_off_c, 0, 71, 60
1, 1047270, Note_on_c, 0, 73, 63
1, 1047324, Note_off_c, 0, 73, 60
1, 1047369, Note_on_c, 0, 74, 62
1, 1047413, Note_off_c, 0, 74, 58
1, 1047442, Note_on_c, 0, 73, 62
1, 1047503, Note_off_c, 0, 73, 61
1, 1047537, Note_on_c, 0, 74, 66
1, 1047537, Note_on_c, 0, 59, 35
1, 1047621, Note_off_c, 0, 74, 52
1, 1047658, Note_on_c, 0, 76, 58
1, 1047671, Note_off_c, 0, 59, 44
1, 1047686, Note_on_c, 0, 61, 48
1, 1047730, Note_off_c, 0, 76, 56
1, 1047764, Note_on_c, 0, 78, 61
1, 1047858, Control_c, 0, 64, 41
1, 1047868, Note_on_c, 0, 80, 62
1, 1047873, Control_c, 0, 64, 55
1, 1047888, Control_c, 0, 64, 61
1, 1047901, Note_off_c, 0, 78, 51
1, 1047903, Control_c, 0, 64, 63
1, 1047917, Control_c, 0, 64, 65
1, 1047932, Control_c, 0, 64, 67
1, 1047943, Note_off_c, 0, 80, 61
1, 1047947, Control_c, 0, 64, 69
1, 1047953, Note_on_c, 0, 81, 62
1, 1047962, Control_c, 0, 64, 72
1, 1047977, Control_c, 0, 64, 75
1, 1047991, Control_c, 0, 64, 77
1, 1048006, Control_c, 0, 64, 79
1, 1048021, Control_c, 0, 64, 81
1, 1048026, Note_off_c, 0, 61, 56
1, 1048028, Note_off_c, 0, 57, 54
1, 1048032, Note_off_c, 0, 81, 59
1, 1048035, Note_on_c, 0, 76, 65
1, 1048035, Control_c, 0, 64, 82
1, 1048050, Control_c, 0, 64, 83
1, 1048065, Control_c, 0, 64, 83
1, 1048080, Control_c, 0, 64, 84
1, 1048110, Note_off_c, 0, 76, 60
1, 1048110, Control_c, 0, 64, 84
1, 1048131, Note_on_c, 0, 73, 60
1, 1048139, Control_c, 0, 64, 85
1, 1048169, Control_c, 0, 64, 86
1, 1048184, Control_c, 0, 64, 85
1, 1048193, Note_off_c, 0, 73, 56
1, 1048199, Control_c, 0, 64, 82
1, 1048214, Control_c, 0, 64, 73
1, 1048228, Control_c, 0, 64, 63
1, 1048241, Note_on_c, 0, 78, 56
1, 1048243, Control_c, 0, 64, 54
1, 1048256, Note_on_c, 0, 59, 52
1, 1048258, Control_c, 0, 64, 53
1, 1048262, Note_on_c, 0, 50, 48
1, 1048273, Control_c, 0, 64, 57
1, 1048288, Control_c, 0, 64, 61
1, 1048303, Control_c, 0, 64, 65
1, 1048316, Note_off_c, 0, 78, 57
1, 1048317, Control_c, 0, 64, 70
1, 1048332, Control_c, 0, 64, 74
1, 1048347, Control_c, 0, 64, 77
1, 1048348, Note_on_c, 0, 71, 65
1, 1048362, Control_c, 0, 64, 82
1, 1048377, Control_c, 0, 64, 90
1, 1048382, Note_off_c, 0, 59, 54
1, 1048391, Control_c, 0, 64, 102
1, 1048406, Control_c, 0, 64, 127
1, 1048435, Control_c, 0, 64, 117
1, 1048438, Note_on_c, 0, 78, 63
1, 1048450, Control_c, 0, 64, 86
1, 1048452, Note_off_c, 0, 71, 37
1, 1048465, Control_c, 0, 64, 67
1, 1048480, Control_c, 0, 64, 52
1, 1048495, Control_c, 0, 64, 48
1, 1048517, Control_c, 0, 64, 54
1, 1048527, Note_on_c, 0, 81, 64
1, 1048527, Note_off_c, 0, 78, 57
1, 1048532, Control_c, 0, 64, 63
1, 1048541, Note_on_c, 0, 59, 73
1, 1048547, Control_c, 0, 64, 72
1, 1048562, Control_c, 0, 64, 82
1, 1048578, Control_c, 0, 64, 91
1, 1048580, Note_off_c, 0, 50, 61
1, 1048592, Control_c, 0, 64, 95
1, 1048607, Control_c, 0, 64, 102
1, 1048609, Note_off_c, 0, 81, 63
1, 1048622, Control_c, 0, 64, 110
1, 1048631, Note_on_c, 0, 71, 74
1, 1048637, Control_c, 0, 64, 121
1, 1048652, Control_c, 0, 64, 127
1, 1048671, Note_off_c, 0, 59, 53
1, 1048723, Note_on_c, 0, 81, 70
1, 1048723, Note_off_c, 0, 71, 55
1, 1048791, Note_off_c, 0, 81, 60
1, 1048801, Control_c, 0, 64, 81
1, 1048811, Note_on_c, 0, 59, 73
1, 1048813, Note_on_c, 0, 80, 74
1, 1048815, Control_c, 0, 64, 58
1, 1048830, Note_on_c, 0, 52, 54
1, 1048830, Control_c, 0, 64, 41
1, 1048845, Control_c, 0, 64, 42
1, 1048859, Control_c, 0, 64, 51
1, 1048874, Control_c, 0, 64, 61
1, 1048882, Note_off_c, 0, 80, 61
1, 1048889, Control_c, 0, 64, 68
1, 1048897, Note_on_c, 0, 71, 78
1, 1048904, Control_c, 0, 64, 76
1, 1048919, Control_c, 0, 64, 83
1, 1048933, Control_c, 0, 64, 88
1, 1048939, Poly_aftertouch_c, 0, 51, 0
1, 1048948, Control_c, 0, 64, 95
1, 1048963, Note_off_c, 0, 71, 56
1, 1048963, Control_c, 0, 64, 106
1, 1048978, Control_c, 0, 64, 127
1, 1049003, Note_on_c, 0, 80, 68
1, 1049067, Control_c, 0, 64, 81
1, 1049077, Note_off_c, 0, 80, 60
1, 1049081, Control_c, 0, 64, 60
1, 1049090, Note_on_c, 0, 83, 75
1, 1049090, Note_off_c, 0, 59, 59
1, 1049092, Note_on_c, 0, 62, 79
1, 1049096, Control_c, 0, 64, 41
1, 1049111, Control_c, 0, 64, 43
1, 1049126, Control_c, 0, 64, 58
1, 1049141, Control_c, 0, 64, 68
1, 1049156, Control_c, 0, 64, 80
1, 1049171, Control_c, 0, 64, 91
1, 1049185, Control_c, 0, 64, 96
1, 1049192, Note_off_c, 0, 83, 60
1, 1049199, Note_on_c, 0, 80, 70
1, 1049200, Control_c, 0, 64, 102
1, 1049215, Control_c, 0, 64, 112
1, 1049222, Note_off_c, 0, 62, 60
1, 1049230, Control_c, 0, 64, 127
1, 1049271, Note_off_c, 0, 80, 60
1, 1049302, Note_on_c, 0, 61, 68
1, 1049302, Note_on_c, 0, 83, 74
1, 1049317, Note_off_c, 0, 52, 58
1, 1049359, Note_off_c, 0, 83, 58
1, 1049371, Control_c, 0, 64, 121
1, 1049385, Control_c, 0, 64, 94
1, 1049391, Note_on_c, 0, 57, 70
1, 1049400, Control_c, 0, 64, 76
1, 1049401, Note_on_c, 0, 81, 73
1, 1049415, Control_c, 0, 64, 61
1, 1049430, Control_c, 0, 64, 35
1, 1049445, Control_c, 0, 64, 0
1, 1049495, Note_off_c, 0, 81, 61
1, 1049500, Note_on_c, 0, 83, 69
1, 1049520, Control_c, 0, 64, 35
1, 1049535, Control_c, 0, 64, 57
1, 1049549, Control_c, 0, 64, 65
1, 1049564, Control_c, 0, 64, 68
1, 1049569, Note_off_c, 0, 83, 63
1, 1049579, Control_c, 0, 64, 70
1, 1049588, Note_on_c, 0, 80, 73
1, 1049594, Control_c, 0, 64, 73
1, 1049608, Control_c, 0, 64, 77
1, 1049623, Control_c, 0, 64, 81
1, 1049638, Control_c, 0, 64, 83
1, 1049651, Note_off_c, 0, 80, 62
1, 1049676, Note_on_c, 0, 81, 77
1, 1049682, Control_c, 0, 64, 83
1, 1049767, Note_off_c, 0, 81, 43
1, 1049770, Note_on_c, 0, 83, 77
1, 1049862, Note_on_c, 0, 84, 77
1, 1049863, Note_off_c, 0, 83, 62
1, 1049875, Control_c, 0, 64, 83
1, 1049904, Control_c, 0, 64, 82
1, 1049919, Control_c, 0, 64, 82
1, 1049934, Control_c, 0, 64, 80
1, 1049949, Control_c, 0, 64, 79
1, 1049964, Control_c, 0, 64, 78
1, 1049975, Note_on_c, 0, 64, 77
1, 1049976, Note_on_c, 0, 85, 72
1, 1049979, Control_c, 0, 64, 77
1, 1049988, Note_off_c, 0, 84, 37
1, 1049994, Control_c, 0, 64, 76
1, 1050015, Control_c, 0, 64, 74
1, 1050030, Control_c, 0, 64, 73
1, 1050035, Note_off_c, 0, 85, 63
1, 1050045, Control_c, 0, 64, 70
1, 1050060, Control_c, 0, 64, 68
1, 1050075, Control_c, 0, 64, 65
1, 1050076, Note_on_c, 0, 86, 78
1, 1050080, Note_off_c, 0, 57, 56
1, 1050089, Control_c, 0, 64, 63
1, 1050104, Control_c, 0, 64, 60
1, 1050107, Note_off_c, 0, 61, 59
1, 1050119, Control_c, 0, 64, 57
1, 1050134, Control_c, 0, 64, 52
1, 1050140, Note_off_c, 0, 86, 60
1, 1050149, Control_c, 0, 64, 41
1, 1050163, Note_on_c, 0, 88, 80
1, 1050164, Control_c, 0, 64, 0
1, 1050253, Control_c, 0, 64, 34
1, 1050254, Note_off_c, 0, 88, 61
1, 1050258, Note_on_c, 0, 90, 85
1, 1050268, Control_c, 0, 64, 50
1, 1050283, Control_c, 0, 64, 61
1, 1050298, Control_c, 0, 64, 65
1, 1050308, Note_off_c, 0, 64, 60
1, 1050313, Control_c, 0, 64, 68
1, 1050327, Control_c, 0, 64, 72
1, 1050333, Note_on_c, 0, 62, 59
1, 1050342, Control_c, 0, 64, 76
1, 1050344, Note_on_c, 0, 92, 80
1, 1050357, Control_c, 0, 64, 82
1, 1050372, Control_c, 0, 64, 86
1, 1050387, Control_c, 0, 64, 89
1, 1050402, Note_off_c, 0, 62, 62
1, 1050402, Control_c, 0, 64, 91
1, 1050404, Note_off_c, 0, 90, 62
1, 1050415, Note_on_c, 0, 61, 63
1, 1050417, Control_c, 0, 64, 96
1, 1050426, Note_on_c, 0, 93, 76
1, 1050429, Note_off_c, 0, 92, 66
1, 1050431, Control_c, 0, 64, 104
1, 1050443, Note_off_c, 0, 61, 66
1, 1050446, Control_c, 0, 64, 127
1, 1050451, Note_off_c, 0, 93, 67
1, 1050491, Control_c, 0, 64, 97
1, 1050505, Control_c, 0, 64, 68
1, 1050520, Control_c, 0, 64, 49
1, 1050535, Control_c, 0, 64, 47
1, 1050550, Control_c, 0, 64, 54
1, 1050552, Note_on_c, 0, 59, 58
1, 1050565, Control_c, 0, 64, 61
1, 1050575, Note_on_c, 0, 78, 63
1, 1050578, Note_on_c, 0, 50, 34
1, 1050579, Control_c, 0, 64, 67
1, 1050594, Control_c, 0, 64, 74
1, 1050609, Control_c, 0, 64, 78
1, 1050624, Control_c, 0, 64, 80
1, 1050638, Control_c, 0, 64, 84
1, 1050640, Note_off_c, 0, 78, 61
1, 1050653, Control_c, 0, 64, 91
1, 1050667, Note_on_c, 0, 71, 72
1, 1050668, Control_c, 0, 64, 97
1, 1050683, Control_c, 0, 64, 101
1, 1050687, Note_off_c, 0, 59, 52
1, 1050698, Control_c, 0, 64, 105
1, 1050712, Control_c, 0, 64, 113
1, 1050727, Control_c, 0, 64, 127
1, 1050745, Note_off_c, 0, 71, 46
1, 1050757, Note_on_c, 0, 78, 79
1, 1050780, Control_c, 0, 64, 112
1, 1050794, Control_c, 0, 64, 79
1, 1050809, Control_c, 0, 64, 60
1, 1050824, Control_c, 0, 64, 34
1, 1050838, Control_c, 0, 64, 27
1, 1050839, Note_off_c, 0, 78, 59
1, 1050841, Note_on_c, 0, 81, 77
1, 1050850, Note_off_c, 0, 50, 60
1, 1050853, Note_on_c, 0, 51, 73
1, 1050853, Control_c, 0, 64, 45
1, 1050854, Note_on_c, 0, 59, 85
1, 1050868, Control_c, 0, 64, 61
1, 1050883, Control_c, 0, 64, 70
1, 1050897, Note_off_c, 0, 51, 61
1, 1050898, Control_c, 0, 64, 76
1, 1050912, Control_c, 0, 64, 81
1, 1050914, Note_off_c, 0, 81, 65
1, 1050927, Control_c, 0, 64, 85
1, 1050936, Note_on_c, 0, 71, 78
1, 1050942, Control_c, 0, 64, 91
1, 1050956, Control_c, 0, 64, 95
1, 1050971, Control_c, 0, 64, 97
1, 1050980, Note_off_c, 0, 59, 59
1, 1051001, Control_c, 0, 64, 100
1, 1051016, Note_on_c, 0, 81, 77
1, 1051024, Note_off_c, 0, 71, 59
1, 1051032, Control_c, 0, 64, 102
1, 1051082, Note_off_c, 0, 81, 61
1, 1051091, Control_c, 0, 64, 96
1, 1051106, Control_c, 0, 64, 80
1, 1051121, Control_c, 0, 64, 64
1, 1051126, Note_on_c, 0, 80, 67
1, 1051135, Note_on_c, 0, 59, 68
1, 1051135, Control_c, 0, 64, 44
1, 1051150, Note_on_c, 0, 52, 59
1, 1051150, Control_c, 0, 64, 0
1, 1051180, Control_c, 0, 64, 29
1, 1051195, Control_c, 0, 64, 46
1, 1051202, Note_off_c, 0, 80, 60
1, 1051210, Control_c, 0, 64, 58
1, 1051225, Note_on_c, 0, 71, 71
1, 1051225, Control_c, 0, 64, 63
1, 1051240, Control_c, 0, 64, 64
1, 1051254, Control_c, 0, 64, 67
1, 1051269, Control_c, 0, 64, 70
1, 1051270, Note_off_c, 0, 71, 58
1, 1051284, Control_c, 0, 64, 72
1, 1051299, Control_c, 0, 64, 74
1, 1051314, Control_c, 0, 64, 76
1, 1051316, Note_on_c, 0, 80, 70
1, 1051328, Control_c, 0, 64, 78
1, 1051343, Control_c, 0, 64, 79
1, 1051358, Control_c, 0, 64, 79
1, 1051373, Control_c, 0, 64, 69
1, 1051388, Control_c, 0, 64, 52
1, 1051396, Note_off_c, 0, 80, 57
1, 1051402, Control_c, 0, 64, 0
1, 1051404, Note_off_c, 0, 59, 61
1, 1051416, Note_on_c, 0, 83, 67
1, 1051417, Control_c, 0, 67, 34
1, 1051418, Note_on_c, 0, 62, 62
1, 1051432, Control_c, 0, 67, 52
1, 1051447, Control_c, 0, 64, 31
1, 1051447, Control_c, 0, 67, 54
1, 1051461, Control_c, 0, 64, 54
1, 1051476, Control_c, 0, 64, 64
1, 1051491, Control_c, 0, 64, 66
1, 1051491, Control_c, 0, 67, 53
1, 1051510, Note_off_c, 0, 83, 61
1, 1051514, Control_c, 0, 64, 70
1, 1051520, Note_on_c, 0, 80, 68
1, 1051529, Control_c, 0, 64, 75
1, 1051543, Control_c, 0, 64, 81
1, 1051543, Control_c, 0, 67, 53
1, 1051558, Control_c, 0, 64, 85
1, 1051558, Control_c, 0, 67, 52
1, 1051563, Note_off_c, 0, 52, 50
1, 1051573, Control_c, 0, 64, 88
1, 1051587, Control_c, 0, 64, 90
1, 1051602, Control_c, 0, 64, 90
1, 1051613, Note_on_c, 0, 88, 72
1, 1051615, Note_off_c, 0, 80, 59
1, 1051627, Note_off_c, 0, 62, 62
1, 1051632, Note_on_c, 0, 61, 56
1, 1051632, Control_c, 0, 67, 52
1, 1051654, Note_off_c, 0, 61, 60
1, 1051721, Control_c, 0, 64, 89
1, 1051721, Control_c, 0, 67, 52
1, 1051735, Control_c, 0, 64, 87
1, 1051750, Control_c, 0, 64, 86
1, 1051765, Control_c, 0, 64, 83
1, 1051779, Control_c, 0, 64, 79
1, 1051792, Note_on_c, 0, 85, 67
1, 1051794, Control_c, 0, 64, 76
1, 1051794, Control_c, 0, 67, 53
1, 1051809, Note_off_c, 0, 88, 40
1, 1051809, Control_c, 0, 64, 71
1, 1051824, Control_c, 0, 64, 66
1, 1051832, Note_on_c, 0, 57, 50
1, 1051840, Control_c, 0, 64, 60
1, 1051844, Note_on_c, 0, 45, 46
1, 1051855, Control_c, 0, 64, 53
1, 1051870, Control_c, 0, 64, 43
1, 1051870, Control_c, 0, 67, 53
1, 1051882, Note_off_c, 0, 85, 60
1, 1051884, Control_c, 0, 64, 0
1, 1051888, Note_on_c, 0, 81, 58
1, 1051914, Control_c, 0, 67, 54
1, 1051932, Note_off_c, 0, 81, 66
1, 1051975, Note_on_c, 0, 76, 65
1, 1051988, Control_c, 0, 64, 43
1, 1052003, Control_c, 0, 64, 58
1, 1052003, Control_c, 0, 67, 53
1, 1052012, Note_off_c, 0, 76, 62
1, 1052018, Control_c, 0, 64, 64
1, 1052033, Control_c, 0, 64, 66
1, 1052033, Control_c, 0, 67, 53
1, 1052047, Control_c, 0, 64, 68
1, 1052047, Control_c, 0, 67, 52
1, 1052062, Control_c, 0, 64, 71
1, 1052062, Control_c, 0, 67, 51
1, 1052068, Note_on_c, 0, 73, 64
1, 1052072, Note_off_c, 0, 45, 61
1, 1052077, Control_c, 0, 64, 74
1, 1052077, Control_c, 0, 67, 50
1, 1052092, Control_c, 0, 64, 77
1, 1052092, Control_c, 0, 67, 49
1, 1052107, Control_c, 0, 64, 79
1, 1052107, Control_c, 0, 67, 48
1, 1052122, Control_c, 0, 64, 80
1, 1052122, Control_c, 0, 67, 46
1, 1052125, Note_off_c, 0, 57, 64
1, 1052137, Control_c, 0, 64, 81
1, 1052137, Control_c, 0, 67, 43
1, 1052151, Control_c, 0, 64, 81
1, 1052151, Control_c, 0, 67, 41
1, 1052155, Note_off_c, 0, 73, 61
1, 1052155, Note_on_c, 0, 74, 68
1, 1052166, Control_c, 0, 67, 37
1, 1052181, Control_c, 0, 67, 0
1, 1052214, Note_off_c, 0, 74, 64
1, 1052240, Note_on_c, 0, 71, 67
1, 1052262, Control_c, 0, 64, 81
1, 1052277, Control_c, 0, 64, 80
1, 1052292, Control_c, 0, 64, 79
1, 1052307, Control_c, 0, 64, 79
1, 1052322, Control_c, 0, 64, 77
1, 1052337, Control_c, 0, 64, 77
1, 1052351, Control_c, 0, 64, 75
1, 1052366, Control_c, 0, 64, 75
1, 1052374, Note_off_c, 0, 71, 37
1, 1052380, Note_on_c, 0, 69, 65
1, 1052381, Control_c, 0, 64, 73
1, 1052391, Note_on_c, 0, 57, 61
1, 1052396, Control_c, 0, 64, 71
1, 1052410, Control_c, 0, 64, 66
1, 1052417, Note_off_c, 0, 69, 61
1, 1052425, Control_c, 0, 64, 56
1, 1052440, Control_c, 0, 64, 41
1, 1052452, Note_off_c, 0, 57, 64
1, 1052455, Control_c, 0, 64, 0
1, 1052526, Note_on_c, 0, 59, 77
1, 1052585, Note_off_c, 0, 59, 65
1, 1052663, Control_c, 0, 64, 27
1, 1052676, Note_on_c, 0, 61, 83
1, 1052693, Control_c, 0, 64, 30
1, 1052707, Control_c, 0, 64, 32
1, 1052722, Control_c, 0, 64, 34
1, 1052724, Note_off_c, 0, 61, 65
1, 1052737, Control_c, 0, 64, 35
1, 1052752, Control_c, 0, 64, 35
1, 1052767, Control_c, 0, 64, 36
1, 1052781, Control_c, 0, 64, 37
1, 1052796, Control_c, 0, 64, 37
1, 1052811, Control_c, 0, 64, 38
1, 1052812, Note_on_c, 0, 62, 86
1, 1052840, Control_c, 0, 64, 38
1, 1052863, Note_off_c, 0, 62, 63
1, 1052870, Control_c, 0, 64, 39
1, 1052885, Control_c, 0, 64, 39
1, 1052900, Control_c, 0, 64, 40
1, 1052915, Control_c, 0, 64, 41
1, 1052930, Control_c, 0, 64, 41
1, 1052945, Control_c, 0, 64, 42
1, 1052960, Control_c, 0, 64, 42
1, 1052989, Control_c, 0, 64, 43
1, 1053016, Note_on_c, 0, 64, 72
1, 1053050, Note_on_c, 0, 69, 50
1, 1053064, Note_on_c, 0, 61, 43
1, 1053092, Note_off_c, 0, 69, 62
1, 1053193, Note_on_c, 0, 71, 67
1, 1053204, Control_c, 0, 64, 44
1, 1053219, Control_c, 0, 64, 48
1, 1053233, Control_c, 0, 64, 53
1, 1053242, Note_off_c, 0, 71, 59
1, 1053248, Control_c, 0, 64, 58
1, 1053263, Control_c, 0, 64, 61
1, 1053278, Control_c, 0, 64, 63
1, 1053293, Control_c, 0, 64, 64
1, 1053307, Control_c, 0, 64, 67
1, 1053322, Control_c, 0, 64, 69
1, 1053323, Note_on_c, 0, 73, 69
1, 1053333, Note_off_c, 0, 64, 62
1, 1053337, Control_c, 0, 64, 72
1, 1053351, Control_c, 0, 64, 74
1, 1053366, Control_c, 0, 64, 76
1, 1053381, Control_c, 0, 64, 78
1, 1053383, Note_off_c, 0, 73, 63
1, 1053396, Control_c, 0, 64, 79
1, 1053411, Control_c, 0, 64, 80
1, 1053442, Control_c, 0, 64, 81
1, 1053450, Note_on_c, 0, 74, 74
1, 1053457, Note_on_c, 0, 64, 72
1, 1053490, Note_off_c, 0, 74, 55
1, 1053560, Control_c, 0, 64, 80
1, 1053604, Control_c, 0, 64, 80
1, 1053619, Control_c, 0, 64, 79
1, 1053634, Control_c, 0, 64, 78
1, 1053648, Control_c, 0, 64, 77
1, 1053663, Control_c, 0, 64, 76
1, 1053674, Note_on_c, 0, 76, 56
1, 1053678, Note_on_c, 0, 66, 64
1, 1053678, Control_c, 0, 64, 74
1, 1053693, Control_c, 0, 64, 72
1, 1053708, Control_c, 0, 64, 68
1, 1053720, Note_on_c, 0, 58, 46
1, 1053723, Control_c, 0, 64, 64
1, 1053738, Control_c, 0, 64, 58
1, 1053752, Note_off_c, 0, 64, 52
1, 1053754, Note_off_c, 0, 61, 34
1, 1053755, Note_off_c, 0, 76, 59
1, 1053760, Control_c, 0, 64, 49
1, 1053775, Control_c, 0, 64, 36
1, 1053788, Note_on_c, 0, 75, 61
1, 1053789, Control_c, 0, 64, 0
1, 1053854, Note_off_c, 0, 75, 63
1, 1053878, Control_c, 0, 64, 36
1, 1053884, Note_on_c, 0, 76, 62
1, 1053893, Control_c, 0, 64, 50
1, 1053908, Control_c, 0, 64, 59
1, 1053923, Control_c, 0, 64, 64
1, 1053937, Control_c, 0, 64, 67
1, 1053943, Note_off_c, 0, 76, 56
1, 1053952, Control_c, 0, 64, 70
1, 1053967, Control_c, 0, 64, 74
1, 1053981, Note_on_c, 0, 78, 65
1, 1053982, Control_c, 0, 64, 78
1, 1053997, Control_c, 0, 64, 83
1, 1054012, Control_c, 0, 64, 86
1, 1054027, Control_c, 0, 64, 89
1, 1054031, Note_off_c, 0, 66, 59
1, 1054042, Control_c, 0, 64, 91
1, 1054048, Note_on_c, 0, 85, 73
1, 1054054, Note_off_c, 0, 78, 54
1, 1054056, Control_c, 0, 64, 93
1, 1054086, Control_c, 0, 64, 93
1, 1054095, Note_off_c, 0, 58, 38
1, 1054124, Note_off_c, 0, 85, 64
1, 1054146, Note_on_c, 0, 77, 72
1, 1054175, Control_c, 0, 64, 93
1, 1054203, Note_off_c, 0, 77, 58
1, 1054204, Control_c, 0, 64, 92
1, 1054219, Control_c, 0, 64, 90
1, 1054235, Control_c, 0, 64, 89
1, 1054248, Note_on_c, 0, 78, 64
1, 1054250, Control_c, 0, 64, 87
1, 1054265, Control_c, 0, 64, 85
1, 1054279, Control_c, 0, 64, 83
1, 1054288, Note_on_c, 0, 64, 52
1, 1054294, Control_c, 0, 64, 81
1, 1054304, Note_on_c, 0, 59, 46
1, 1054309, Control_c, 0, 64, 79
1, 1054324, Control_c, 0, 64, 77
1, 1054331, Note_off_c, 0, 78, 59
1, 1054339, Control_c, 0, 64, 74
1, 1054349, Note_on_c, 0, 77, 62
1, 1054353, Control_c, 0, 64, 72
1, 1054368, Control_c, 0, 64, 69
1, 1054383, Control_c, 0, 64, 66
1, 1054397, Control_c, 0, 64, 63
1, 1054404, Note_off_c, 0, 77, 58
1, 1054412, Control_c, 0, 64, 61
1, 1054427, Control_c, 0, 64, 60
1, 1054442, Control_c, 0, 64, 58
1, 1054445, Note_on_c, 0, 78, 65
1, 1054457, Control_c, 0, 64, 56
1, 1054471, Control_c, 0, 64, 54
1, 1054486, Control_c, 0, 64, 51
1, 1054509, Control_c, 0, 64, 48
1, 1054518, Note_off_c, 0, 78, 59
1, 1054524, Control_c, 0, 64, 47
1, 1054539, Control_c, 0, 64, 45
1, 1054551, Note_on_c, 0, 79, 58
1, 1054553, Control_c, 0, 64, 44
1, 1054568, Control_c, 0, 64, 42
1, 1054577, Note_on_c, 0, 63, 49
1, 1054583, Control_c, 0, 64, 39
1, 1054593, Note_off_c, 0, 64, 61
1, 1054598, Control_c, 0, 64, 37
1, 1054600, Note_off_c, 0, 79, 54
1, 1054612, Control_c, 0, 64, 37
1, 1054619, Note_off_c, 0, 63, 63
1, 1054620, Note_off_c, 0, 59, 62
1, 1054636, Note_on_c, 0, 80, 62
1, 1054722, Note_off_c, 0, 80, 59
1, 1054729, Note_on_c, 0, 82, 55
1, 1054900, Note_off_c, 0, 82, 56
1, 1054911, Note_on_c, 0, 83, 53
1, 1054957, Note_on_c, 0, 59, 38
1, 1054968, Control_c, 0, 64, 37
1, 1055012, Control_c, 0, 64, 38
1, 1055058, Control_c, 0, 64, 38
1, 1055088, Control_c, 0, 64, 39
1, 1055102, Control_c, 0, 64, 39
1, 1055107, Note_off_c, 0, 83, 53
1, 1055117, Control_c, 0, 64, 40
1, 1055132, Control_c, 0, 64, 41
1, 1055147, Control_c, 0, 64, 42
1, 1055162, Control_c, 0, 64, 42
1, 1055176, Control_c, 0, 64, 43
1, 1055273, Control_c, 0, 64, 42
1, 1055470, Note_on_c, 0, 61, 40
1, 1055539, Control_c, 0, 67, 33
1, 1055553, Control_c, 0, 67, 37
1, 1055568, Note_off_c, 0, 59, 46
1, 1055568, Control_c, 0, 67, 45
1, 1055583, Control_c, 0, 67, 53
1, 1055598, Control_c, 0, 67, 61
1, 1055613, Control_c, 0, 67, 69
1, 1055628, Control_c, 0, 67, 82
1, 1055636, Note_on_c, 0, 62, 44
1, 1055642, Control_c, 0, 67, 92
1, 1055648, Note_off_c, 0, 61, 55
1, 1055657, Control_c, 0, 67, 98
1, 1055672, Control_c, 0, 67, 105
1, 1055687, Control_c, 0, 67, 113
1, 1055702, Control_c, 0, 67, 118
1, 1055732, Control_c, 0, 67, 120
1, 1055780, Note_on_c, 0, 74, 57
1, 1055782, Note_on_c, 0, 54, 47
1, 1055815, Note_off_c, 0, 74, 60
1, 1055824, Note_off_c, 0, 54, 62
1, 1055925, Control_c, 0, 67, 118
1, 1055926, Note_on_c, 0, 56, 50
1, 1055929, Note_on_c, 0, 76, 52
1, 1055959, Note_off_c, 0, 76, 66
1, 1055966, Note_off_c, 0, 56, 62
1, 1056036, Control_c, 0, 67, 116
1, 1056074, Note_on_c, 0, 78, 58
1, 1056078, Note_off_c, 0, 62, 58
1, 1056083, Note_on_c, 0, 57, 45
1, 1056109, Note_off_c, 0, 78, 60
1, 1056131, Note_off_c, 0, 57, 59
1, 1056244, Control_c, 0, 67, 114
1, 1056258, Note_on_c, 0, 76, 46
1, 1056271, Note_on_c, 0, 64, 37
1, 1056284, Note_on_c, 0, 56, 29
1, 1056303, Control_c, 0, 67, 112
1, 1056367, Note_on_c, 0, 80, 58
1, 1056375, Note_off_c, 0, 76, 55
1, 1056421, Control_c, 0, 64, 43
1, 1056421, Control_c, 0, 67, 110
1, 1056436, Control_c, 0, 64, 44
1, 1056450, Control_c, 0, 64, 45
1, 1056450, Control_c, 0, 67, 106
1, 1056459, Note_off_c, 0, 80, 54
1, 1056463, Note_on_c, 0, 81, 63
1, 1056465, Control_c, 0, 64, 48
1, 1056465, Control_c, 0, 67, 101
1, 1056480, Control_c, 0, 64, 53
1, 1056480, Control_c, 0, 67, 94
1, 1056495, Control_c, 0, 64, 58
1, 1056495, Control_c, 0, 67, 84
1, 1056510, Control_c, 0, 64, 61
1, 1056510, Control_c, 0, 67, 61
1, 1056525, Control_c, 0, 64, 64
1, 1056525, Control_c, 0, 67, 0
1, 1056534, Note_off_c, 0, 81, 64
1, 1056540, Note_on_c, 0, 83, 68
1, 1056540, Control_c, 0, 64, 66
1, 1056555, Control_c, 0, 64, 69
1, 1056569, Control_c, 0, 64, 71
1, 1056584, Control_c, 0, 64, 73
1, 1056599, Control_c, 0, 64, 74
1, 1056600, Note_off_c, 0, 64, 58
1, 1056614, Control_c, 0, 64, 76
1, 1056629, Control_c, 0, 64, 77
1, 1056632, Note_on_c, 0, 80, 68
1, 1056632, Note_off_c, 0, 83, 61
1, 1056644, Control_c, 0, 64, 78
1, 1056659, Control_c, 0, 64, 78
1, 1056674, Control_c, 0, 64, 79
1, 1056683, Note_off_c, 0, 56, 41
1, 1056692, Note_off_c, 0, 80, 63
1, 1056718, Note_on_c, 0, 74, 65
1, 1056755, Control_c, 0, 64, 78
1, 1056770, Control_c, 0, 64, 75
1, 1056775, Note_off_c, 0, 74, 55
1, 1056785, Control_c, 0, 64, 69
1, 1056799, Control_c, 0, 64, 62
1, 1056814, Control_c, 0, 64, 52
1, 1056829, Control_c, 0, 64, 44
1, 1056833, Note_on_c, 0, 73, 58
1, 1056835, Note_on_c, 0, 57, 47
1, 1056844, Control_c, 0, 64, 38
1, 1056859, Control_c, 0, 64, 36
1, 1056874, Control_c, 0, 64, 36
1, 1056888, Control_c, 0, 64, 36
1, 1056903, Control_c, 0, 64, 37
1, 1056906, Note_off_c, 0, 73, 62
1, 1056933, Note_on_c, 0, 71, 65
1, 1056933, Control_c, 0, 64, 38
1, 1056948, Control_c, 0, 64, 38
1, 1056963, Control_c, 0, 64, 39
1, 1056978, Control_c, 0, 64, 40
1, 1056993, Control_c, 0, 64, 40
1, 1057005, Note_off_c, 0, 71, 51
1, 1057022, Control_c, 0, 64, 41
1, 1057024, Note_on_c, 0, 73, 65
1, 1057083, Note_off_c, 0, 73, 61
1, 1057115, Note_on_c, 0, 74, 65
1, 1057184, Note_off_c, 0, 74, 60
1, 1057200, Note_on_c, 0, 73, 64
1, 1057259, Control_c, 0, 64, 40
1, 1057273, Control_c, 0, 64, 37
1, 1057276, Note_off_c, 0, 73, 62
1, 1057288, Control_c, 0, 64, 30
1, 1057288, Control_c, 0, 67, 34
1, 1057300, Note_on_c, 0, 74, 68
1, 1057303, Control_c, 0, 64, 0
1, 1057303, Control_c, 0, 67, 42
1, 1057318, Note_on_c, 0, 59, 48
1, 1057318, Control_c, 0, 67, 45
1, 1057333, Control_c, 0, 67, 47
1, 1057347, Control_c, 0, 67, 48
1, 1057362, Control_c, 0, 67, 48
1, 1057377, Control_c, 0, 67, 49
1, 1057392, Control_c, 0, 67, 49
1, 1057403, Note_off_c, 0, 74, 58
1, 1057423, Note_on_c, 0, 76, 58
1, 1057431, Note_off_c, 0, 59, 57
1, 1057437, Note_on_c, 0, 61, 53
1, 1057523, Note_off_c, 0, 76, 61
1, 1057526, Note_on_c, 0, 78, 65
1, 1057534, Control_c, 0, 64, 31
1, 1057549, Control_c, 0, 64, 42
1, 1057564, Control_c, 0, 64, 53
1, 1057578, Control_c, 0, 64, 59
1, 1057593, Control_c, 0, 64, 61
1, 1057593, Control_c, 0, 67, 50
1, 1057608, Control_c, 0, 64, 63
1, 1057608, Control_c, 0, 67, 50
1, 1057622, Control_c, 0, 64, 65
1, 1057632, Note_on_c, 0, 80, 63
1, 1057637, Control_c, 0, 64, 66
1, 1057652, Control_c, 0, 64, 69
1, 1057667, Control_c, 0, 64, 71
1, 1057678, Note_off_c, 0, 78, 58
1, 1057682, Control_c, 0, 64, 73
1, 1057696, Control_c, 0, 64, 76
1, 1057696, Control_c, 0, 67, 51
1, 1057711, Control_c, 0, 64, 78
1, 1057716, Note_on_c, 0, 81, 69
1, 1057717, Note_off_c, 0, 80, 58
1, 1057726, Control_c, 0, 64, 80
1, 1057741, Control_c, 0, 64, 82
1, 1057741, Control_c, 0, 67, 52
1, 1057756, Control_c, 0, 64, 83
1, 1057771, Control_c, 0, 64, 84
1, 1057777, Note_off_c, 0, 61, 57
1, 1057785, Note_off_c, 0, 57, 54
1, 1057786, Control_c, 0, 64, 85
1, 1057801, Control_c, 0, 64, 85
1, 1057801, Control_c, 0, 67, 51
1, 1057807, Note_off_c, 0, 81, 58
1, 1057811, Note_on_c, 0, 76, 66
1, 1057830, Control_c, 0, 64, 86
1, 1057830, Control_c, 0, 67, 50
1, 1057845, Control_c, 0, 67, 50
1, 1057860, Control_c, 0, 67, 49
1, 1057875, Control_c, 0, 67, 48
1, 1057890, Control_c, 0, 67, 48
1, 1057892, Note_off_c, 0, 76, 62
1, 1057905, Note_on_c, 0, 73, 62
1, 1057919, Control_c, 0, 67, 47
1, 1057968, Note_off_c, 0, 73, 59
1, 1057978, Control_c, 0, 67, 48
1, 1057993, Control_c, 0, 64, 85
1, 1057997, Note_on_c, 0, 59, 54
1, 1058008, Control_c, 0, 64, 81
1, 1058010, Note_on_c, 0, 78, 60
1, 1058013, Note_on_c, 0, 50, 52
1, 1058022, Control_c, 0, 64, 70
1, 1058022, Control_c, 0, 67, 48
1, 1058037, Control_c, 0, 64, 54
1, 1058052, Control_c, 0, 64, 0
1, 1058082, Note_off_c, 0, 78, 57
1, 1058082, Control_c, 0, 67, 49
1, 1058096, Control_c, 0, 67, 48
1, 1058105, Note_on_c, 0, 71, 65
1, 1058111, Control_c, 0, 64, 34
1, 1058112, Note_off_c, 0, 59, 58
1, 1058126, Control_c, 0, 64, 52
1, 1058140, Control_c, 0, 64, 63
1, 1058140, Control_c, 0, 67, 48
1, 1058155, Control_c, 0, 64, 68
1, 1058155, Control_c, 0, 67, 47
1, 1058170, Control_c, 0, 64, 72
1, 1058185, Control_c, 0, 64, 75
1, 1058185, Control_c, 0, 67, 46
1, 1058194, Note_on_c, 0, 78, 69
1, 1058200, Control_c, 0, 64, 79
1, 1058200, Control_c, 0, 67, 46
1, 1058209, Note_off_c, 0, 71, 32
1, 1058216, Control_c, 0, 64, 84
1, 1058231, Control_c, 0, 64, 89
1, 1058253, Control_c, 0, 64, 94
1, 1058253, Control_c, 0, 67, 45
1, 1058268, Control_c, 0, 64, 99
1, 1058268, Control_c, 0, 67, 45
1, 1058283, Control_c, 0, 64, 104
1, 1058289, Note_off_c, 0, 78, 57
1, 1058294, Note_on_c, 0, 81, 70
1, 1058298, Control_c, 0, 64, 110
1, 1058310, Note_on_c, 0, 59, 77
1, 1058313, Control_c, 0, 64, 127
1, 1058349, Note_off_c, 0, 50, 60
1, 1058373, Note_off_c, 0, 81, 63
1, 1058391, Note_on_c, 0, 71, 76
1, 1058418, Note_off_c, 0, 59, 52
1, 1058486, Note_on_c, 0, 81, 71
1, 1058488, Note_off_c, 0, 71, 56
1, 1058563, Note_off_c, 0, 81, 56
1, 1058564, Control_c, 0, 67, 45
1, 1058569, Note_on_c, 0, 59, 74
1, 1058578, Note_on_c, 0, 80, 71
1, 1058578, Control_c, 0, 64, 82
1, 1058588, Note_on_c, 0, 52, 69
1, 1058593, Control_c, 0, 64, 62
1, 1058608, Control_c, 0, 64, 39
1, 1058608, Control_c, 0, 67, 46
1, 1058623, Control_c, 0, 64, 28
1, 1058638, Control_c, 0, 64, 38
1, 1058647, Note_off_c, 0, 80, 61
1, 1058652, Control_c, 0, 64, 54
1, 1058667, Control_c, 0, 64, 64
1, 1058668, Note_on_c, 0, 71, 71
1, 1058682, Control_c, 0, 64, 72
1, 1058697, Control_c, 0, 64, 78
1, 1058697, Control_c, 0, 67, 45
1, 1058712, Control_c, 0, 64, 83
1, 1058726, Control_c, 0, 64, 87
1, 1058726, Control_c, 0, 67, 45
1, 1058732, Note_off_c, 0, 71, 56
1, 1058741, Control_c, 0, 64, 95
1, 1058741, Control_c, 0, 67, 44
1, 1058756, Control_c, 0, 64, 109
1, 1058766, Note_on_c, 0, 80, 69
1, 1058770, Control_c, 0, 64, 127
1, 1058830, Control_c, 0, 64, 85
1, 1058844, Control_c, 0, 64, 64
1, 1058845, Note_off_c, 0, 80, 59
1, 1058859, Note_off_c, 0, 59, 63
1, 1058859, Control_c, 0, 64, 51
1, 1058859, Control_c, 0, 67, 45
1, 1058861, Note_on_c, 0, 62, 74
1, 1058861, Note_on_c, 0, 83, 74
1, 1058874, Control_c, 0, 64, 55
1, 1058889, Control_c, 0, 64, 62
1, 1058904, Control_c, 0, 64, 69
1, 1058918, Control_c, 0, 64, 81
1, 1058933, Control_c, 0, 64, 92
1, 1058948, Control_c, 0, 64, 98
1, 1058948, Control_c, 0, 67, 44
1, 1058959, Note_off_c, 0, 83, 61
1, 1058963, Control_c, 0, 64, 104
1, 1058965, Note_on_c, 0, 80, 71
1, 1058978, Control_c, 0, 64, 110
1, 1058978, Control_c, 0, 67, 43
1, 1058981, Note_off_c, 0, 62, 61
1, 1059000, Control_c, 0, 64, 127
1, 1059000, Control_c, 0, 67, 43
1, 1059015, Control_c, 0, 67, 42
1, 1059047, Note_off_c, 0, 80, 60
1, 1059061, Control_c, 0, 67, 42
1, 1059065, Note_off_c, 0, 52, 57
1, 1059066, Note_on_c, 0, 61, 68
1, 1059073, Note_on_c, 0, 83, 71
1, 1059075, Control_c, 0, 67, 41
1, 1059120, Control_c, 0, 67, 42
1, 1059130, Note_off_c, 0, 83, 60
1, 1059135, Control_c, 0, 67, 42
1, 1059149, Control_c, 0, 64, 105
1, 1059149, Control_c, 0, 67, 43
1, 1059158, Note_on_c, 0, 57, 69
1, 1059163, Note_on_c, 0, 81, 77
1, 1059164, Control_c, 0, 64, 85
1, 1059179, Control_c, 0, 64, 69
1, 1059193, Control_c, 0, 64, 52
1, 1059193, Control_c, 0, 67, 43
1, 1059208, Control_c, 0, 64, 0
1, 1059238, Control_c, 0, 67, 44
1, 1059239, Note_off_c, 0, 81, 58
1, 1059262, Note_on_c, 0, 83, 64
1, 1059267, Control_c, 0, 67, 45
1, 1059327, Control_c, 0, 64, 36
1, 1059333, Note_off_c, 0, 83, 62
1, 1059342, Control_c, 0, 64, 47
1, 1059342, Control_c, 0, 67, 45
1, 1059348, Note_on_c, 0, 80, 72
1, 1059357, Control_c, 0, 64, 57
1, 1059372, Control_c, 0, 64, 64
1, 1059386, Control_c, 0, 64, 68
1, 1059401, Control_c, 0, 64, 70
1, 1059416, Control_c, 0, 64, 72
1, 1059416, Control_c, 0, 67, 45
1, 1059419, Note_off_c, 0, 80, 60
1, 1059431, Control_c, 0, 64, 75
1, 1059441, Note_on_c, 0, 81, 80
1, 1059446, Control_c, 0, 64, 79
1, 1059446, Control_c, 0, 67, 44
1, 1059461, Control_c, 0, 64, 83
1, 1059475, Control_c, 0, 64, 85
1, 1059490, Control_c, 0, 64, 87
1, 1059505, Control_c, 0, 64, 89
1, 1059516, Note_off_c, 0, 81, 52
1, 1059519, Control_c, 0, 64, 90
1, 1059527, Note_on_c, 0, 83, 80
1, 1059534, Control_c, 0, 64, 92
1, 1059549, Control_c, 0, 64, 93
1, 1059549, Control_c, 0, 67, 43
1, 1059593, Control_c, 0, 64, 93
1, 1059593, Control_c, 0, 67, 44
1, 1059618, Note_on_c, 0, 84, 80
1, 1059630, Note_off_c, 0, 83, 60
1, 1059682, Control_c, 0, 64, 93
1, 1059712, Control_c, 0, 64, 92
1, 1059726, Note_on_c, 0, 85, 78
1, 1059726, Control_c, 0, 64, 90
1, 1059747, Note_on_c, 0, 64, 82
1, 1059749, Control_c, 0, 64, 88
1, 1059751, Note_off_c, 0, 84, 61
1, 1059764, Control_c, 0, 64, 85
1, 1059764, Control_c, 0, 67, 45
1, 1059779, Control_c, 0, 64, 81
1, 1059788, Note_off_c, 0, 85, 65
1, 1059793, Control_c, 0, 64, 77
1, 1059798, Note_off_c, 0, 57, 54
1, 1059808, Control_c, 0, 64, 71
1, 1059824, Control_c, 0, 64, 63
1, 1059836, Note_on_c, 0, 86, 77
1, 1059837, Note_off_c, 0, 61, 60
1, 1059839, Control_c, 0, 64, 48
1, 1059839, Control_c, 0, 67, 45
1, 1059854, Control_c, 0, 64, 0
1, 1059908, Note_off_c, 0, 86, 55
1, 1059920, Note_on_c, 0, 88, 80
1, 1059942, Control_c, 0, 64, 51
1, 1059957, Control_c, 0, 64, 63
1, 1059972, Control_c, 0, 64, 69
1, 1059987, Control_c, 0, 64, 75
1, 1060002, Control_c, 0, 64, 82
1, 1060012, Note_on_c, 0, 90, 83
1, 1060016, Control_c, 0, 64, 88
1, 1060024, Note_off_c, 0, 88, 60
1, 1060031, Control_c, 0, 64, 94
1, 1060046, Control_c, 0, 64, 103
1, 1060051, Note_off_c, 0, 64, 59
1, 1060061, Control_c, 0, 64, 112
1, 1060061, Control_c, 0, 67, 45
1, 1060076, Control_c, 0, 64, 127
1, 1060082, Note_on_c, 0, 62, 57
1, 1060109, Note_on_c, 0, 92, 79
1, 1060120, Control_c, 0, 67, 44
1, 1060141, Note_off_c, 0, 62, 62
1, 1060150, Control_c, 0, 67, 43
1, 1060152, Note_on_c, 0, 61, 61
1, 1060156, Note_off_c, 0, 90, 62
1, 1060181, Note_off_c, 0, 61, 65
1, 1060188, Note_on_c, 0, 93, 76
1, 1060190, Note_off_c, 0, 92, 66
1, 1060194, Control_c, 0, 67, 44
1, 1060209, Control_c, 0, 67, 45
1, 1060212, Note_off_c, 0, 93, 66
1, 1060224, Control_c, 0, 67, 45
1, 1060239, Control_c, 0, 64, 94
1, 1060254, Control_c, 0, 64, 65
1, 1060269, Control_c, 0, 64, 51
1, 1060284, Control_c, 0, 64, 54
1, 1060284, Control_c, 0, 67, 46
1, 1060296, Note_on_c, 0, 59, 52
1, 1060298, Control_c, 0, 64, 61
1, 1060308, Note_on_c, 0, 50, 54
1, 1060313, Control_c, 0, 64, 67
1, 1060322, Note_on_c, 0, 78, 66
1, 1060328, Control_c, 0, 64, 77
1, 1060342, Control_c, 0, 64, 91
1, 1060357, Control_c, 0, 64, 107
1, 1060372, Control_c, 0, 64, 127
1, 1060385, Note_off_c, 0, 78, 61
1, 1060402, Control_c, 0, 67, 45
1, 1060409, Note_on_c, 0, 71, 76
1, 1060450, Note_off_c, 0, 59, 51
1, 1060476, Control_c, 0, 67, 45
1, 1060497, Note_on_c, 0, 78, 76
1, 1060498, Control_c, 0, 67, 44
1, 1060501, Note_off_c, 0, 71, 59
1, 1060513, Control_c, 0, 67, 43
1, 1060572, Control_c, 0, 64, 82
1, 1060581, Note_off_c, 0, 50, 62
1, 1060584, Note_on_c, 0, 81, 79
1, 1060587, Control_c, 0, 64, 61
1, 1060587, Control_c, 0, 67, 43
1, 1060588, Note_off_c, 0, 78, 59
1, 1060599, Note_on_c, 0, 59, 82
1, 1060600, Note_on_c, 0, 51, 66
1, 1060602, Control_c, 0, 64, 35
1, 1060602, Control_c, 0, 67, 41
1, 1060618, Control_c, 0, 64, 0
1, 1060618, Control_c, 0, 67, 38
1, 1060632, Control_c, 0, 64, 37
1, 1060632, Control_c, 0, 67, 34
1, 1060645, Note_off_c, 0, 51, 61
1, 1060647, Control_c, 0, 64, 59
1, 1060647, Control_c, 0, 67, 0
1, 1060662, Control_c, 0, 64, 75
1, 1060662, Note_off_c, 0, 81, 65
1, 1060677, Control_c, 0, 64, 95
1, 1060680, Note_on_c, 0, 71, 78
1, 1060692, Control_c, 0, 64, 127
1, 1060729, Note_off_c, 0, 59, 59
1, 1060768, Note_on_c, 0, 81, 76
1, 1060784, Note_off_c, 0, 71, 54
1, 1060835, Note_off_c, 0, 81, 63
1, 1060854, Control_c, 0, 64, 97
1, 1060863, Note_on_c, 0, 59, 84
1, 1060865, Note_on_c, 0, 80, 75
1, 1060869, Control_c, 0, 64, 67
1, 1060871, Note_on_c, 0, 52, 76
1, 1060884, Control_c, 0, 64, 42
1, 1060899, Control_c, 0, 64, 0
1, 1060913, Control_c, 0, 64, 34
1, 1060928, Control_c, 0, 64, 54
1, 1060940, Note_off_c, 0, 80, 62
1, 1060943, Control_c, 0, 64, 67
1, 1060958, Control_c, 0, 64, 80
1, 1060962, Note_on_c, 0, 71, 80
1, 1060972, Control_c, 0, 64, 91
1, 1060987, Control_c, 0, 64, 96
1, 1061002, Control_c, 0, 64, 104
1, 1061017, Control_c, 0, 64, 127
1, 1061018, Note_off_c, 0, 71, 59
1, 1061056, Note_on_c, 0, 80, 74
1, 1061121, Control_c, 0, 64, 101
1, 1061136, Control_c, 0, 64, 66
1, 1061140, Note_off_c, 0, 80, 62
1, 1061144, Note_on_c, 0, 62, 90
1, 1061144, Note_off_c, 0, 59, 59
1, 1061148, Note_on_c, 0, 83, 75
1, 1061151, Control_c, 0, 64, 30
1, 1061165, Control_c, 0, 64, 0
1, 1061180, Control_c, 0, 64, 33
1, 1061195, Control_c, 0, 64, 59
1, 1061210, Control_c, 0, 64, 74
1, 1061225, Control_c, 0, 64, 91
1, 1061226, Note_off_c, 0, 83, 61
1, 1061247, Control_c, 0, 64, 109
1, 1061254, Note_on_c, 0, 80, 79
1, 1061258, Note_off_c, 0, 52, 54
1, 1061261, Control_c, 0, 64, 127
1, 1061283, Note_off_c, 0, 62, 60
1, 1061333, Note_off_c, 0, 80, 60
1, 1061342, Note_on_c, 0, 61, 66
1, 1061360, Note_on_c, 0, 88, 66
1, 1061383, Note_off_c, 0, 61, 62
1, 1061413, Note_off_c, 0, 88, 64
1, 1061425, Control_c, 0, 64, 78
1, 1061433, Note_on_c, 0, 53, 71
1, 1061433, Note_on_c, 0, 61, 86
1, 1061440, Control_c, 0, 64, 55
1, 1061455, Control_c, 0, 64, 0
1, 1061457, Note_on_c, 0, 85, 69
1, 1061485, Control_c, 0, 64, 37
1, 1061500, Control_c, 0, 64, 57
1, 1061512, Note_off_c, 0, 85, 64
1, 1061515, Control_c, 0, 64, 67
1, 1061530, Control_c, 0, 64, 75
1, 1061544, Control_c, 0, 64, 85
1, 1061546, Note_on_c, 0, 80, 82
1, 1061559, Control_c, 0, 64, 97
1, 1061574, Control_c, 0, 64, 127
1, 1061608, Note_off_c, 0, 80, 62
1, 1061618, Control_c, 0, 64, 98
1, 1061633, Control_c, 0, 64, 74
1, 1061640, Note_on_c, 0, 92, 83
1, 1061648, Control_c, 0, 64, 57
1, 1061662, Control_c, 0, 64, 31
1, 1061677, Control_c, 0, 64, 0
1, 1061707, Control_c, 0, 64, 31
1, 1061718, Note_on_c, 0, 89, 83
1, 1061721, Control_c, 0, 64, 50
1, 1061724, Note_off_c, 0, 92, 66
1, 1061736, Control_c, 0, 64, 63
1, 1061751, Control_c, 0, 64, 70
1, 1061766, Control_c, 0, 64, 77
1, 1061781, Control_c, 0, 64, 84
1, 1061795, Control_c, 0, 64, 89
1, 1061805, Note_on_c, 0, 85, 88
1, 1061810, Control_c, 0, 64, 95
1, 1061815, Note_off_c, 0, 89, 62
1, 1061825, Control_c, 0, 64, 103
1, 1061840, Control_c, 0, 64, 126
1, 1061884, Note_off_c, 0, 85, 63
1, 1061894, Note_on_c, 0, 97, 98
1, 1061914, Control_c, 0, 64, 114
1, 1061929, Control_c, 0, 64, 84
1, 1061944, Control_c, 0, 64, 65
1, 1061959, Control_c, 0, 64, 47
1, 1061974, Control_c, 0, 64, 33
1, 1061980, Note_on_c, 0, 92, 81
1, 1061995, Control_c, 0, 64, 38
1, 1062010, Control_c, 0, 64, 53
1, 1062025, Control_c, 0, 64, 66
1, 1062040, Control_c, 0, 64, 82
1, 1062051, Note_off_c, 0, 97, 60
1, 1062055, Control_c, 0, 64, 127
1, 1062071, Note_on_c, 0, 89, 76
1, 1062096, Note_off_c, 0, 92, 65
1, 1062135, Note_off_c, 0, 61, 57
1, 1062138, Note_off_c, 0, 89, 65
1, 1062142, Note_on_c, 0, 85, 66
1, 1062168, Note_off_c, 0, 85, 68
1, 1062233, Control_c, 0, 64, 79
1, 1062248, Control_c, 0, 64, 59
1, 1062263, Control_c, 0, 64, 41
1, 1062275, Note_on_c, 0, 59, 74
1, 1062278, Control_c, 0, 64, 45
1, 1062279, Note_on_c, 0, 73, 82
1, 1062293, Control_c, 0, 64, 59
1, 1062308, Control_c, 0, 64, 68
1, 1062323, Control_c, 0, 64, 80
1, 1062335, Note_off_c, 0, 73, 62
1, 1062338, Control_c, 0, 64, 94
1, 1062352, Control_c, 0, 64, 102
1, 1062367, Control_c, 0, 64, 111
1, 1062367, Note_on_c, 0, 85, 76
1, 1062382, Control_c, 0, 64, 127
1, 1062443, Note_off_c, 0, 85, 63
1, 1062461, Note_on_c, 0, 73, 72
1, 1062465, Note_off_c, 0, 53, 59
1, 1062475, Note_on_c, 0, 61, 71
1, 1062484, Note_off_c, 0, 59, 60
1, 1062518, Note_off_c, 0, 73, 61
1, 1062530, Control_c, 0, 64, 86
1, 1062544, Control_c, 0, 64, 63
1, 1062545, Note_off_c, 0, 61, 62
1, 1062548, Note_on_c, 0, 62, 82
1, 1062554, Note_on_c, 0, 81, 71
1, 1062559, Control_c, 0, 64, 40
1, 1062567, Note_on_c, 0, 54, 67
1, 1062574, Control_c, 0, 64, 0
1, 1062589, Control_c, 0, 64, 33
1, 1062604, Control_c, 0, 64, 52
1, 1062618, Control_c, 0, 64, 65
1, 1062633, Control_c, 0, 64, 75
1, 1062648, Control_c, 0, 64, 88
1, 1062651, Note_off_c, 0, 81, 62
1, 1062656, Note_on_c, 0, 78, 77
1, 1062663, Control_c, 0, 64, 97
1, 1062678, Control_c, 0, 64, 104
1, 1062692, Control_c, 0, 64, 120
1, 1062707, Control_c, 0, 64, 127
1, 1062716, Note_off_c, 0, 78, 61
1, 1062719, Note_off_c, 0, 62, 59
1, 1062755, Note_on_c, 0, 86, 77
1, 1062818, Control_c, 0, 64, 108
1, 1062823, Note_off_c, 0, 86, 62
1, 1062833, Control_c, 0, 64, 74
1, 1062839, Note_on_c, 0, 81, 76
1, 1062844, Note_on_c, 0, 62, 77
1, 1062848, Control_c, 0, 64, 53
1, 1062863, Control_c, 0, 64, 0
1, 1062892, Control_c, 0, 64, 47
1, 1062907, Control_c, 0, 64, 64
1, 1062909, Note_off_c, 0, 81, 63
1, 1062922, Control_c, 0, 64, 78
1, 1062935, Note_on_c, 0, 78, 82
1, 1062937, Control_c, 0, 64, 98
1, 1062952, Control_c, 0, 64, 126
1, 1062972, Note_off_c, 0, 54, 58
1, 1062993, Note_off_c, 0, 78, 58
1, 1063002, Note_off_c, 0, 62, 55
1, 1063029, Note_on_c, 0, 90, 83
1, 1063094, Note_off_c, 0, 90, 64
1, 1063101, Control_c, 0, 64, 99
1, 1063108, Note_on_c, 0, 62, 86
1, 1063114, Note_on_c, 0, 86, 82
1, 1063116, Control_c, 0, 64, 66
1, 1063119, Note_on_c, 0, 54, 66
1, 1063130, Control_c, 0, 64, 38
1, 1063145, Control_c, 0, 64, 0
1, 1063160, Control_c, 0, 64, 42
1, 1063175, Control_c, 0, 64, 61
1, 1063183, Note_off_c, 0, 86, 66
1, 1063190, Control_c, 0, 64, 77
1, 1063203, Note_on_c, 0, 81, 81
1, 1063205, Control_c, 0, 64, 127
1, 1063270, Note_off_c, 0, 81, 63
1, 1063290, Note_on_c, 0, 93, 81
1, 1063294, Control_c, 0, 64, 74
1, 1063308, Control_c, 0, 64, 47
1, 1063311, Note_off_c, 0, 93, 69
1, 1063323, Control_c, 0, 64, 36
1, 1063338, Control_c, 0, 64, 51
1, 1063353, Control_c, 0, 64, 68
1, 1063367, Control_c, 0, 64, 89
1, 1063382, Control_c, 0, 64, 127
1, 1063396, Note_off_c, 0, 62, 58
1, 1063399, Note_on_c, 0, 78, 81
1, 1063408, Note_on_c, 0, 66, 79
1, 1063480, Note_off_c, 0, 54, 60
1, 1063498, Note_on_c, 0, 80, 78
1, 1063502, Note_off_c, 0, 78, 58
1, 1063538, Note_off_c, 0, 66, 56
1, 1063551, Note_off_c, 0, 80, 62
1, 1063587, Note_on_c, 0, 64, 69
1, 1063599, Note_on_c, 0, 81, 74
1, 1063635, Note_off_c, 0, 64, 60
1, 1063640, Note_off_c, 0, 81, 60
1, 1063641, Control_c, 0, 64, 82
1, 1063656, Control_c, 0, 64, 58
1, 1063671, Control_c, 0, 64, 0
1, 1063687, Note_on_c, 0, 64, 74
1, 1063689, Note_on_c, 0, 56, 73
1, 1063690, Note_on_c, 0, 82, 40
1, 1063703, Note_on_c, 0, 83, 68
1, 1063715, Control_c, 0, 64, 40
1, 1063730, Control_c, 0, 64, 59
1, 1063745, Control_c, 0, 64, 68
1, 1063759, Control_c, 0, 64, 76
1, 1063766, Note_off_c, 0, 83, 63
1, 1063768, Note_off_c, 0, 82, 46
1, 1063774, Control_c, 0, 64, 85
1, 1063779, Note_on_c, 0, 76, 79
1, 1063789, Control_c, 0, 64, 96
1, 1063804, Control_c, 0, 64, 127
1, 1063835, Note_off_c, 0, 76, 62
1, 1063863, Note_on_c, 0, 88, 81
1, 1063909, Control_c, 0, 64, 81
1, 1063924, Control_c, 0, 64, 58
1, 1063929, Note_off_c, 0, 88, 64
1, 1063938, Control_c, 0, 64, 36
1, 1063949, Note_on_c, 0, 83, 84
1, 1063953, Control_c, 0, 64, 33
1, 1063968, Control_c, 0, 64, 46
1, 1063983, Control_c, 0, 64, 61
1, 1063998, Control_c, 0, 64, 72
1, 1064013, Control_c, 0, 64, 90
1, 1064025, Note_off_c, 0, 83, 63
1, 1064028, Control_c, 0, 64, 127
1, 1064034, Note_on_c, 0, 80, 88
1, 1064096, Note_off_c, 0, 80, 62
1, 1064116, Control_c, 0, 64, 88
1, 1064120, Note_on_c, 0, 92, 93
1, 1064131, Control_c, 0, 64, 63
1, 1064146, Control_c, 0, 64, 41
1, 1064161, Control_c, 0, 64, 40
1, 1064176, Control_c, 0, 64, 53
1, 1064190, Control_c, 0, 64, 66
1, 1064197, Note_off_c, 0, 92, 66
1, 1064204, Note_on_c, 0, 88, 79
1, 1064205, Control_c, 0, 64, 80
1, 1064220, Control_c, 0, 64, 107
1, 1064242, Control_c, 0, 64, 127
1, 1064289, Note_off_c, 0, 88, 67
1, 1064306, Note_on_c, 0, 83, 85
1, 1064316, Control_c, 0, 64, 87
1, 1064331, Control_c, 0, 64, 59
1, 1064346, Control_c, 0, 64, 33
1, 1064353, Note_off_c, 0, 83, 64
1, 1064361, Control_c, 0, 64, 0
1, 1064376, Control_c, 0, 64, 32
1, 1064390, Control_c, 0, 64, 50
1, 1064397, Note_on_c, 0, 96, 81
1, 1064405, Control_c, 0, 64, 63
1, 1064407, Note_on_c, 0, 95, 68
1, 1064420, Control_c, 0, 64, 70
1, 1064435, Control_c, 0, 64, 80
1, 1064450, Control_c, 0, 64, 91
1, 1064464, Control_c, 0, 64, 108
1, 1064470, Note_off_c, 0, 96, 67
1, 1064474, Note_off_c, 0, 95, 32
1, 1064479, Control_c, 0, 64, 127
1, 1064487, Note_on_c, 0, 92, 78
1, 1064505, Note_off_c, 0, 64, 64
1, 1064550, Note_off_c, 0, 56, 63
1, 1064568, Note_on_c, 0, 88, 70
1, 1064606, Note_off_c, 0, 92, 59
1, 1064624, Note_off_c, 0, 88, 66
1, 1064654, Note_on_c, 0, 100, 64
1, 1064675, Note_off_c, 0, 100, 60
1, 1064761, Control_c, 0, 64, 89
1, 1064776, Control_c, 0, 64, 67
1, 1064791, Control_c, 0, 64, 52
1, 1064806, Control_c, 0, 64, 45
1, 1064821, Control_c, 0, 64, 48
1, 1064836, Control_c, 0, 64, 59
1, 1064841, Note_on_c, 0, 76, 64
1, 1064850, Control_c, 0, 64, 66
1, 1064855, Note_on_c, 0, 59, 48
1, 1064857, Note_on_c, 0, 50, 46
1, 1064860, Note_on_c, 0, 52, 44
1, 1064865, Note_on_c, 0, 56, 41
1, 1064865, Control_c, 0, 64, 74
1, 1064880, Control_c, 0, 64, 83
1, 1064892, Note_off_c, 0, 76, 63
1, 1064895, Control_c, 0, 64, 90
1, 1064910, Control_c, 0, 64, 96
1, 1064925, Control_c, 0, 64, 104
1, 1064933, Note_on_c, 0, 64, 65
1, 1064939, Control_c, 0, 64, 127
1, 1064964, Note_off_c, 0, 64, 62
1, 1064968, Note_off_c, 0, 59, 58
1, 1064970, Note_off_c, 0, 52, 56
1, 1064974, Note_off_c, 0, 50, 56
1, 1064988, Note_off_c, 0, 56, 54
1, 1065030, Note_on_c, 0, 76, 70
1, 1065078, Note_off_c, 0, 76, 59
1, 1065123, Note_on_c, 0, 80, 85
1, 1065125, Control_c, 0, 64, 78
1, 1065128, Note_on_c, 0, 59, 71
1, 1065131, Note_on_c, 0, 56, 61
1, 1065135, Note_on_c, 0, 50, 58
1, 1065137, Note_on_c, 0, 52, 55
1, 1065140, Control_c, 0, 64, 57
1, 1065154, Control_c, 0, 64, 48
1, 1065169, Control_c, 0, 64, 55
1, 1065184, Control_c, 0, 64, 66
1, 1065190, Note_off_c, 0, 80, 64
1, 1065199, Control_c, 0, 64, 81
1, 1065211, Note_on_c, 0, 68, 84
1, 1065214, Control_c, 0, 64, 127
1, 1065266, Note_off_c, 0, 52, 52
1, 1065272, Note_off_c, 0, 59, 55
1, 1065272, Note_off_c, 0, 68, 60
1, 1065278, Note_off_c, 0, 56, 59
1, 1065283, Note_off_c, 0, 50, 55
1, 1065290, Note_on_c, 0, 80, 87
1, 1065362, Control_c, 0, 64, 112
1, 1065377, Control_c, 0, 64, 70
1, 1065384, Note_on_c, 0, 83, 98
1, 1065386, Note_off_c, 0, 80, 61
1, 1065392, Control_c, 0, 64, 44
1, 1065395, Note_on_c, 0, 59, 77
1, 1065399, Note_on_c, 0, 56, 74
1, 1065401, Note_on_c, 0, 50, 68
1, 1065408, Note_on_c, 0, 52, 62
1, 1065408, Control_c, 0, 64, 0
1, 1065437, Control_c, 0, 64, 50
1, 1065452, Control_c, 0, 64, 69
1, 1065455, Note_off_c, 0, 83, 64
1, 1065467, Control_c, 0, 64, 83
1, 1065477, Note_on_c, 0, 71, 89
1, 1065482, Control_c, 0, 64, 103
1, 1065497, Control_c, 0, 64, 127
1, 1065523, Note_off_c, 0, 71, 63
1, 1065547, Note_off_c, 0, 52, 54
1, 1065557, Note_off_c, 0, 59, 62
1, 1065561, Note_off_c, 0, 56, 58
1, 1065563, Note_on_c, 0, 83, 82
1, 1065574, Note_off_c, 0, 50, 55
1, 1065632, Note_off_c, 0, 83, 57
1, 1065644, Control_c, 0, 64, 75
1, 1065655, Note_on_c, 0, 88, 94
1, 1065659, Control_c, 0, 64, 50
1, 1065672, Note_on_c, 0, 59, 79
1, 1065674, Control_c, 0, 64, 0
1, 1065679, Note_on_c, 0, 56, 66
1, 1065682, Note_on_c, 0, 50, 69
1, 1065691, Note_on_c, 0, 52, 54
1, 1065718, Control_c, 0, 64, 49
1, 1065741, Control_c, 0, 64, 66
1, 1065744, Note_off_c, 0, 88, 66
1, 1065748, Note_off_c, 0, 50, 60
1, 1065756, Control_c, 0, 64, 78
1, 1065760, Note_off_c, 0, 59, 64
1, 1065765, Note_on_c, 0, 76, 94
1, 1065770, Control_c, 0, 64, 91
1, 1065771, Note_off_c, 0, 56, 61
1, 1065772, Note_off_c, 0, 52, 62
1, 1065785, Control_c, 0, 64, 101
1, 1065800, Control_c, 0, 64, 120
1, 1065814, Control_c, 0, 64, 127
1, 1065851, Note_on_c, 0, 88, 88
1, 1065883, Note_off_c, 0, 76, 55
1, 1065992, Control_c, 0, 64, 106
1, 1066007, Control_c, 0, 64, 96
1, 1066022, Control_c, 0, 64, 89
1, 1066033, Note_off_c, 0, 88, 43
1, 1066034, Note_on_c, 0, 76, 72
1, 1066036, Control_c, 0, 64, 84
1, 1066051, Control_c, 0, 64, 78
1, 1066053, Note_on_c, 0, 61, 81
1, 1066055, Note_on_c, 0, 57, 50
1, 1066066, Control_c, 0, 64, 69
1, 1066081, Control_c, 0, 64, 59
1, 1066085, Note_on_c, 0, 49, 53
1, 1066093, Note_on_c, 0, 52, 37
1, 1066095, Control_c, 0, 64, 47
1, 1066110, Control_c, 0, 64, 0
1, 1066171, Note_on_c, 0, 88, 78
1, 1066214, Note_off_c, 0, 76, 62
1, 1066215, Control_c, 0, 64, 39
1, 1066230, Control_c, 0, 64, 57
1, 1066245, Control_c, 0, 64, 65
1, 1066253, Note_on_c, 0, 85, 75
1, 1066257, Note_off_c, 0, 49, 62
1, 1066259, Control_c, 0, 64, 73
1, 1066274, Control_c, 0, 64, 80
1, 1066278, Note_off_c, 0, 52, 60
1, 1066289, Control_c, 0, 64, 88
1, 1066298, Note_off_c, 0, 88, 56
1, 1066302, Note_off_c, 0, 57, 59
1, 1066303, Control_c, 0, 64, 97
1, 1066317, Note_off_c, 0, 61, 61
1, 1066318, Control_c, 0, 64, 107
1, 1066333, Control_c, 0, 64, 123
1, 1066338, Note_on_c, 0, 81, 68
1, 1066348, Control_c, 0, 64, 127
1, 1066363, Note_off_c, 0, 85, 64
1, 1066380, Note_off_c, 0, 81, 64
1, 1066418, Note_on_c, 0, 76, 65
1, 1066457, Note_off_c, 0, 76, 50
1, 1066505, Note_on_c, 0, 72, 73
1, 1066563, Control_c, 0, 64, 114
1, 1066578, Control_c, 0, 64, 105
1, 1066592, Control_c, 0, 64, 97
1, 1066607, Note_off_c, 0, 72, 60
1, 1066607, Control_c, 0, 64, 90
1, 1066609, Note_on_c, 0, 73, 68
1, 1066622, Note_on_c, 0, 69, 70
1, 1066622, Control_c, 0, 64, 83
1, 1066637, Control_c, 0, 64, 76
1, 1066648, Note_on_c, 0, 61, 52
1, 1066652, Control_c, 0, 64, 67
1, 1066666, Control_c, 0, 64, 56
1, 1066681, Control_c, 0, 64, 32
1, 1066696, Control_c, 0, 64, 0
1, 1066700, Note_on_c, 0, 75, 72
1, 1066707, Note_off_c, 0, 73, 62
1, 1066749, Note_off_c, 0, 75, 63
1, 1066778, Note_on_c, 0, 76, 78
1, 1066800, Control_c, 0, 64, 40
1, 1066815, Control_c, 0, 64, 60
1, 1066830, Control_c, 0, 64, 67
1, 1066845, Control_c, 0, 64, 74
1, 1066852, Note_off_c, 0, 69, 62
1, 1066855, Note_on_c, 0, 66, 70
1, 1066859, Control_c, 0, 64, 82
1, 1066860, Note_on_c, 0, 57, 61
1, 1066863, Note_on_c, 0, 78, 77
1, 1066865, Note_off_c, 0, 76, 37
1, 1066874, Control_c, 0, 64, 91
1, 1066881, Note_off_c, 0, 66, 68
1, 1066889, Control_c, 0, 64, 99
1, 1066891, Note_off_c, 0, 57, 65
1, 1066903, Control_c, 0, 64, 108
1, 1066918, Control_c, 0, 64, 121
1, 1066933, Control_c, 0, 64, 127
1, 1066935, Note_off_c, 0, 61, 44
1, 1066939, Note_on_c, 0, 80, 79
1, 1066967, Note_off_c, 0, 78, 57
1, 1067032, Note_on_c, 0, 81, 74
1, 1067072, Note_off_c, 0, 80, 36
1, 1067076, Note_on_c, 0, 47, 62
1, 1067119, Note_off_c, 0, 47, 61
1, 1067127, Control_c, 0, 64, 91
1, 1067131, Note_on_c, 0, 56, 69
1, 1067141, Control_c, 0, 64, 68
1, 1067153, Note_off_c, 0, 81, 57
1, 1067156, Control_c, 0, 64, 43
1, 1067161, Note_on_c, 0, 83, 77
1, 1067171, Control_c, 0, 64, 0
1, 1067215, Control_c, 0, 64, 44
1, 1067238, Control_c, 0, 64, 60
1, 1067238, Note_on_c, 0, 64, 67
1, 1067253, Control_c, 0, 64, 68
1, 1067263, Note_off_c, 0, 83, 62
1, 1067266, Note_on_c, 0, 80, 76
1, 1067268, Control_c, 0, 64, 73
1, 1067282, Control_c, 0, 64, 77
1, 1067297, Control_c, 0, 64, 82
1, 1067312, Control_c, 0, 64, 86
1, 1067316, Note_off_c, 0, 64, 64
1, 1067318, Note_off_c, 0, 56, 61
1, 1067327, Control_c, 0, 64, 90
1, 1067341, Control_c, 0, 64, 96
1, 1067347, Note_on_c, 0, 76, 77
1, 1067349, Note_off_c, 0, 80, 62
1, 1067356, Control_c, 0, 64, 102
1, 1067371, Control_c, 0, 64, 110
1, 1067386, Control_c, 0, 64, 127
1, 1067392, Note_off_c, 0, 76, 67
1, 1067418, Note_on_c, 0, 71, 78
1, 1067475, Control_c, 0, 64, 109
1, 1067489, Control_c, 0, 64, 75
1, 1067498, Note_on_c, 0, 68, 79
1, 1067500, Note_off_c, 0, 71, 61
1, 1067504, Control_c, 0, 64, 58
1, 1067519, Control_c, 0, 64, 44
1, 1067533, Control_c, 0, 64, 47
1, 1067548, Control_c, 0, 64, 56
1, 1067553, Note_on_c, 0, 56, 62
1, 1067556, Note_off_c, 0, 68, 64
1, 1067558, Note_on_c, 0, 64, 62
1, 1067563, Control_c, 0, 64, 64
1, 1067578, Control_c, 0, 64, 73
1, 1067593, Control_c, 0, 64, 87
1, 1067596, Note_on_c, 0, 71, 81
1, 1067605, Note_off_c, 0, 64, 56
1, 1067608, Control_c, 0, 64, 99
1, 1067623, Control_c, 0, 64, 113
1, 1067638, Control_c, 0, 64, 127
1, 1067676, Note_off_c, 0, 56, 55
1, 1067733, Note_on_c, 0, 80, 72
1, 1067746, Note_off_c, 0, 71, 55
1, 1067756, Control_c, 0, 64, 100
1, 1067771, Note_on_c, 0, 68, 57
1, 1067771, Control_c, 0, 64, 81
1, 1067775, Note_on_c, 0, 64, 42
1, 1067786, Control_c, 0, 64, 67
1, 1067802, Control_c, 0, 64, 56
1, 1067802, Note_on_c, 0, 59, 43
1, 1067816, Control_c, 0, 64, 53
1, 1067831, Control_c, 0, 64, 56
1, 1067846, Control_c, 0, 64, 61
1, 1067855, Note_on_c, 0, 71, 71
1, 1067861, Control_c, 0, 64, 66
1, 1067875, Control_c, 0, 64, 74
1, 1067890, Control_c, 0, 64, 87
1, 1067892, Note_off_c, 0, 68, 61
1, 1067902, Note_off_c, 0, 80, 60
1, 1067905, Control_c, 0, 64, 96
1, 1067920, Control_c, 0, 64, 109
1, 1067935, Control_c, 0, 64, 127
1, 1067938, Note_on_c, 0, 76, 70
1, 1067942, Note_off_c, 0, 71, 60
1, 1068001, Control_c, 0, 64, 102
1, 1068016, Control_c, 0, 64, 70
1, 1068017, Note_on_c, 0, 78, 71
1, 1068025, Note_on_c, 0, 63, 65
1, 1068029, Note_on_c, 0, 66, 65
1, 1068031, Control_c, 0, 64, 47
1, 1068040, Note_off_c, 0, 76, 53
1, 1068046, Control_c, 0, 64, 34
1, 1068058, Note_off_c, 0, 64, 58
1, 1068061, Note_off_c, 0, 66, 66
1, 1068061, Control_c, 0, 64, 41
1, 1068064, Note_off_c, 0, 63, 65
1, 1068076, Control_c, 0, 64, 56
1, 1068079, Note_off_c, 0, 59, 65
1, 1068091, Control_c, 0, 64, 66
1, 1068097, Note_off_c, 0, 78, 60
1, 1068106, Control_c, 0, 64, 81
1, 1068107, Note_on_c, 0, 71, 67
1, 1068120, Control_c, 0, 64, 101
1, 1068135, Control_c, 0, 64, 127
1, 1068158, Note_off_c, 0, 71, 60
1, 1068191, Note_on_c, 0, 75, 80
1, 1068236, Note_off_c, 0, 75, 58
1, 1068269, Control_c, 0, 64, 101
1, 1068283, Control_c, 0, 64, 69
1, 1068298, Control_c, 0, 64, 44
1, 1068310, Note_on_c, 0, 59, 65
1, 1068311, Note_on_c, 0, 56, 63
1, 1068312, Note_on_c, 0, 64, 75
1, 1068313, Control_c, 0, 64, 0
1, 1068315, Note_on_c, 0, 50, 59
1, 1068319, Note_on_c, 0, 52, 55
1, 1068328, Control_c, 0, 64, 35
1, 1068343, Control_c, 0, 64, 56
1, 1068357, Note_off_c, 0, 64, 63
1, 1068357, Control_c, 0, 64, 67
1, 1068358, Note_off_c, 0, 59, 62
1, 1068360, Note_off_c, 0, 56, 60
1, 1068363, Note_off_c, 0, 52, 64
1, 1068369, Note_off_c, 0, 50, 60
1, 1068372, Control_c, 0, 64, 77
1, 1068387, Control_c, 0, 64, 86
1, 1068389, Note_on_c, 0, 78, 76
1, 1068402, Control_c, 0, 64, 93
1, 1068417, Control_c, 0, 64, 103
1, 1068431, Control_c, 0, 64, 120
1, 1068446, Control_c, 0, 64, 127
1, 1068462, Note_off_c, 0, 78, 61
1, 1068480, Note_on_c, 0, 76, 75
1, 1068559, Note_off_c, 0, 76, 64
1, 1068565, Control_c, 0, 64, 83
1, 1068573, Note_on_c, 0, 68, 86
1, 1068580, Control_c, 0, 64, 56
1, 1068580, Note_on_c, 0, 59, 84
1, 1068583, Note_on_c, 0, 56, 80
1, 1068588, Note_on_c, 0, 52, 72
1, 1068590, Note_on_c, 0, 50, 70
1, 1068595, Control_c, 0, 64, 0
1, 1068625, Control_c, 0, 64, 36
1, 1068636, Note_off_c, 0, 52, 62
1, 1068638, Note_off_c, 0, 59, 66
1, 1068639, Note_off_c, 0, 68, 63
1, 1068640, Control_c, 0, 64, 62
1, 1068641, Note_off_c, 0, 56, 63
1, 1068648, Note_off_c, 0, 50, 63
1, 1068654, Control_c, 0, 64, 77
1, 1068666, Note_on_c, 0, 81, 87
1, 1068669, Control_c, 0, 64, 99
1, 1068684, Control_c, 0, 64, 127
1, 1068747, Note_off_c, 0, 81, 64
1, 1068761, Note_on_c, 0, 80, 83
1, 1068825, Control_c, 0, 64, 77
1, 1068831, Note_off_c, 0, 80, 63
1, 1068840, Control_c, 0, 64, 51
1, 1068850, Note_on_c, 0, 71, 88
1, 1068855, Control_c, 0, 64, 0
1, 1068856, Note_on_c, 0, 56, 84
1, 1068856, Note_on_c, 0, 59, 90
1, 1068860, Note_on_c, 0, 50, 76
1, 1068865, Note_on_c, 0, 52, 73
1, 1068869, Control_c, 0, 64, 27
1, 1068884, Control_c, 0, 64, 55
1, 1068890, Note_off_c, 0, 71, 65
1, 1068899, Control_c, 0, 64, 74
1, 1068913, Control_c, 0, 64, 115
1, 1068925, Note_off_c, 0, 59, 62
1, 1068928, Control_c, 0, 64, 127
1, 1068932, Note_off_c, 0, 52, 62
1, 1068934, Note_off_c, 0, 50, 62
1, 1068937, Note_on_c, 0, 85, 89
1, 1068946, Note_off_c, 0, 56, 62
1, 1069015, Note_off_c, 0, 85, 64
1, 1069038, Note_on_c, 0, 83, 69
1, 1069050, Poly_aftertouch_c, 0, 86, 0
1, 1069056, Note_on_c, 0, 84, 50
1, 1069081, Note_off_c, 0, 84, 36
1, 1069092, Control_c, 0, 64, 107
1, 1069106, Control_c, 0, 64, 67
1, 1069111, Note_off_c, 0, 83, 64
1, 1069121, Control_c, 0, 64, 0
1, 1069125, Note_on_c, 0, 59, 86
1, 1069127, Note_on_c, 0, 50, 77
1, 1069127, Note_on_c, 0, 76, 83
1, 1069128, Note_on_c, 0, 56, 86
1, 1069132, Note_on_c, 0, 52, 76
1, 1069151, Control_c, 0, 64, 29
1, 1069166, Control_c, 0, 64, 58
1, 1069170, Note_off_c, 0, 59, 63
1, 1069170, Note_off_c, 0, 76, 67
1, 1069176, Note_off_c, 0, 50, 62
1, 1069180, Control_c, 0, 64, 78
1, 1069184, Note_off_c, 0, 56, 62
1, 1069186, Note_off_c, 0, 52, 61
1, 1069195, Control_c, 0, 64, 127
1, 1069214, Note_on_c, 0, 90, 85
1, 1069302, Note_on_c, 0, 88, 79
1, 1069341, Note_off_c, 0, 90, 61
1, 1069382, Note_off_c, 0, 88, 64
1, 1069433, Control_c, 0, 64, 94
1, 1069448, Control_c, 0, 64, 60
1, 1069463, Control_c, 0, 64, 0
1, 1069469, Note_on_c, 0, 61, 97
1, 1069479, Note_on_c, 0, 76, 90
1, 1069487, Note_on_c, 0, 57, 69
1, 1069492, Note_on_c, 0, 49, 72
1, 1069498, Note_on_c, 0, 52, 57
1, 1069578, Note_on_c, 0, 88, 84
1, 1069603, Control_c, 0, 64, 47
1, 1069618, Control_c, 0, 64, 65
1, 1069629, Note_off_c, 0, 76, 58
1, 1069633, Control_c, 0, 64, 81
1, 1069648, Control_c, 0, 64, 102
1, 1069663, Control_c, 0, 64, 127
1, 1069664, Note_on_c, 0, 85, 81
1, 1069702, Note_off_c, 0, 88, 65
1, 1069713, Note_off_c, 0, 61, 61
1, 1069731, Note_off_c, 0, 57, 63
1, 1069739, Note_off_c, 0, 49, 63
1, 1069740, Note_off_c, 0, 52, 60
1, 1069756, Note_on_c, 0, 81, 72
1, 1069781, Note_off_c, 0, 85, 63
1, 1069802, Note_off_c, 0, 81, 67
1, 1069835, Note_on_c, 0, 76, 73
1, 1069907, Note_off_c, 0, 76, 39
1, 1069919, Note_on_c, 0, 72, 76
1, 1070033, Control_c, 0, 64, 93
1, 1070035, Note_off_c, 0, 72, 59
1, 1070037, Note_on_c, 0, 73, 74
1, 1070045, Note_on_c, 0, 57, 74
1, 1070046, Note_on_c, 0, 54, 67
1, 1070047, Control_c, 0, 64, 69
1, 1070049, Note_on_c, 0, 49, 60
1, 1070053, Note_on_c, 0, 45, 69
1, 1070062, Control_c, 0, 64, 46
1, 1070077, Control_c, 0, 64, 0
1, 1070125, Note_on_c, 0, 75, 75
1, 1070128, Note_off_c, 0, 73, 62
1, 1070175, Note_off_c, 0, 75, 64
1, 1070212, Note_on_c, 0, 76, 79
1, 1070212, Control_c, 0, 64, 27
1, 1070234, Control_c, 0, 64, 43
1, 1070249, Control_c, 0, 64, 60
1, 1070264, Control_c, 0, 64, 67
1, 1070279, Control_c, 0, 64, 73
1, 1070293, Control_c, 0, 64, 79
1, 1070307, Control_c, 0, 64, 84
1, 1070310, Note_on_c, 0, 78, 80
1, 1070314, Note_off_c, 0, 76, 35
1, 1070322, Control_c, 0, 64, 91
1, 1070337, Control_c, 0, 64, 97
1, 1070351, Control_c, 0, 64, 104
1, 1070366, Control_c, 0, 64, 111
1, 1070375, Note_off_c, 0, 57, 62
1, 1070381, Note_off_c, 0, 45, 60
1, 1070381, Control_c, 0, 64, 123
1, 1070396, Control_c, 0, 64, 127
1, 1070400, Note_on_c, 0, 80, 82
1, 1070416, Note_off_c, 0, 49, 62
1, 1070417, Note_off_c, 0, 54, 62
1, 1070427, Note_off_c, 0, 78, 58
1, 1070483, Note_on_c, 0, 81, 83
1, 1070521, Note_off_c, 0, 80, 61
1, 1070607, Note_off_c, 0, 81, 62
1, 1070614, Note_on_c, 0, 71, 93
1, 1070617, Note_on_c, 0, 56, 81
1, 1070618, Control_c, 0, 64, 92
1, 1070620, Note_on_c, 0, 52, 73
1, 1070624, Note_on_c, 0, 44, 70
1, 1070630, Note_on_c, 0, 47, 64
1, 1070633, Control_c, 0, 64, 64
1, 1070648, Control_c, 0, 64, 0
1, 1070714, Note_on_c, 0, 83, 85
1, 1070722, Control_c, 0, 64, 37
1, 1070728, Note_off_c, 0, 71, 52
1, 1070737, Control_c, 0, 64, 60
1, 1070751, Control_c, 0, 64, 67
1, 1070766, Control_c, 0, 64, 73
1, 1070781, Control_c, 0, 64, 79
1, 1070788, Note_on_c, 0, 80, 79
1, 1070796, Control_c, 0, 64, 88
1, 1070811, Control_c, 0, 64, 98
1, 1070815, Note_off_c, 0, 83, 63
1, 1070825, Control_c, 0, 64, 108
1, 1070828, Note_off_c, 0, 44, 62
1, 1070833, Note_off_c, 0, 47, 61
1, 1070838, Note_off_c, 0, 52, 60
1, 1070840, Control_c, 0, 64, 117
1, 1070855, Control_c, 0, 64, 127
1, 1070866, Note_off_c, 0, 56, 61
1, 1070876, Note_on_c, 0, 76, 76
1, 1070898, Note_off_c, 0, 80, 62
1, 1070931, Note_off_c, 0, 76, 67
1, 1070959, Note_on_c, 0, 71, 76
1, 1071009, Note_off_c, 0, 71, 59
1, 1071057, Note_on_c, 0, 68, 76
1, 1071109, Note_off_c, 0, 68, 63
1, 1071131, Control_c, 0, 64, 103
1, 1071146, Control_c, 0, 64, 67
1, 1071160, Note_on_c, 0, 70, 75
1, 1071161, Control_c, 0, 64, 0
1, 1071171, Note_on_c, 0, 61, 94
1, 1071173, Note_on_c, 0, 58, 80
1, 1071176, Note_on_c, 0, 52, 69
1, 1071176, Note_on_c, 0, 54, 71
1, 1071180, Note_on_c, 0, 49, 74
1, 1071182, Note_off_c, 0, 70, 70
1, 1071269, Note_on_c, 0, 88, 82
1, 1071349, Note_on_c, 0, 85, 80
1, 1071352, Note_off_c, 0, 88, 66
1, 1071397, Control_c, 0, 64, 38
1, 1071412, Control_c, 0, 64, 52
1, 1071427, Control_c, 0, 64, 61
1, 1071442, Control_c, 0, 64, 66
1, 1071448, Note_on_c, 0, 82, 82
1, 1071454, Note_off_c, 0, 61, 62
1, 1071456, Control_c, 0, 64, 71
1, 1071459, Note_off_c, 0, 85, 61
1, 1071465, Note_off_c, 0, 58, 63
1, 1071471, Control_c, 0, 64, 77
1, 1071472, Note_off_c, 0, 52, 62
1, 1071474, Note_off_c, 0, 54, 62
1, 1071486, Control_c, 0, 64, 81
1, 1071500, Note_off_c, 0, 49, 62
1, 1071501, Control_c, 0, 64, 85
1, 1071516, Note_off_c, 0, 82, 63
1, 1071516, Control_c, 0, 64, 88
1, 1071525, Note_on_c, 0, 78, 83
1, 1071531, Control_c, 0, 64, 90
1, 1071546, Control_c, 0, 64, 90
1, 1071620, Note_on_c, 0, 82, 79
1, 1071629, Note_off_c, 0, 78, 51
1, 1071649, Control_c, 0, 64, 90
1, 1071664, Control_c, 0, 64, 88
1, 1071679, Control_c, 0, 64, 86
1, 1071693, Control_c, 0, 64, 80
1, 1071708, Control_c, 0, 64, 74
1, 1071730, Control_c, 0, 64, 66
1, 1071736, Note_off_c, 0, 82, 60
1, 1071745, Control_c, 0, 64, 53
1, 1071760, Control_c, 0, 64, 0
1, 1071777, Note_on_c, 0, 83, 73
1, 1071782, Note_on_c, 0, 59, 63
1, 1071792, Note_on_c, 0, 84, 56
1, 1071796, Note_on_c, 0, 47, 56
1, 1071796, Note_on_c, 0, 54, 48
1, 1071796, Note_on_c, 0, 51, 47
1, 1071823, Note_off_c, 0, 84, 35
1, 1071864, Control_c, 0, 64, 44
1, 1071879, Control_c, 0, 64, 64
1, 1071891, Note_off_c, 0, 59, 62
1, 1071891, Note_off_c, 0, 47, 61
1, 1071891, Note_off_c, 0, 83, 63
1, 1071892, Note_off_c, 0, 51, 60
1, 1071894, Control_c, 0, 64, 74
1, 1071908, Note_off_c, 0, 54, 60
1, 1071909, Control_c, 0, 64, 85
1, 1071923, Control_c, 0, 64, 95
1, 1071938, Control_c, 0, 64, 103
1, 1071953, Control_c, 0, 64, 116
1, 1071968, Control_c, 0, 64, 127
1, 1072057, Control_c, 0, 64, 98
1, 1072071, Control_c, 0, 64, 65
1, 1072086, Control_c, 0, 64, 0
1, 1072099, Note_on_c, 0, 82, 86
1, 1072115, Note_on_c, 0, 61, 68
1, 1072118, Note_on_c, 0, 76, 65
1, 1072130, Note_on_c, 0, 78, 53
1, 1072145, Control_c, 0, 64, 49
1, 1072160, Control_c, 0, 64, 64
1, 1072175, Control_c, 0, 64, 76
1, 1072190, Control_c, 0, 64, 89
1, 1072202, Note_on_c, 0, 54, 72
1, 1072204, Note_off_c, 0, 61, 63
1, 1072204, Control_c, 0, 64, 102
1, 1072215, Note_off_c, 0, 78, 52
1, 1072217, Note_off_c, 0, 76, 50
1, 1072219, Control_c, 0, 64, 127
1, 1072248, Note_off_c, 0, 82, 58
1, 1072303, Note_on_c, 0, 47, 67
1, 1072309, Note_off_c, 0, 54, 61
1, 1072338, Control_c, 0, 64, 92
1, 1072353, Control_c, 0, 64, 63
1, 1072362, Note_on_c, 0, 83, 88
1, 1072368, Control_c, 0, 64, 0
1, 1072369, Note_on_c, 0, 76, 81
1, 1072370, Note_on_c, 0, 78, 80
1, 1072381, Note_on_c, 0, 59, 78
1, 1072412, Control_c, 0, 64, 49
1, 1072419, Note_off_c, 0, 76, 58
1, 1072427, Note_off_c, 0, 47, 55
1, 1072427, Control_c, 0, 64, 67
1, 1072441, Control_c, 0, 64, 83
1, 1072456, Control_c, 0, 64, 113
1, 1072457, Note_off_c, 0, 83, 64
1, 1072463, Note_on_c, 0, 54, 74
1, 1072479, Control_c, 0, 64, 127
1, 1072494, Note_off_c, 0, 59, 61
1, 1072504, Note_off_c, 0, 78, 55
1, 1072561, Note_on_c, 0, 47, 71
1, 1072583, Note_off_c, 0, 54, 58
1, 1072613, Control_c, 0, 64, 83
1, 1072627, Control_c, 0, 64, 55
1, 1072640, Note_on_c, 0, 85, 94
1, 1072642, Control_c, 0, 64, 0
1, 1072651, Note_on_c, 0, 76, 80
1, 1072654, Note_on_c, 0, 78, 73
1, 1072655, Note_on_c, 0, 58, 77
1, 1072687, Control_c, 0, 64, 37
1, 1072701, Control_c, 0, 64, 61
1, 1072707, Note_off_c, 0, 47, 39
1, 1072715, Note_off_c, 0, 76, 58
1, 1072716, Control_c, 0, 64, 71
1, 1072731, Control_c, 0, 64, 82
1, 1072740, Note_on_c, 0, 54, 66
1, 1072745, Control_c, 0, 64, 90
1, 1072749, Note_off_c, 0, 85, 64
1, 1072758, Note_off_c, 0, 58, 58
1, 1072760, Control_c, 0, 64, 97
1, 1072775, Control_c, 0, 64, 109
1, 1072780, Note_off_c, 0, 78, 50
1, 1072790, Control_c, 0, 64, 127
1, 1072841, Note_on_c, 0, 47, 57
1, 1072866, Note_off_c, 0, 54, 58
1, 1072893, Control_c, 0, 64, 92
1, 1072908, Control_c, 0, 64, 64
1, 1072923, Control_c, 0, 64, 0
1, 1072934, Note_on_c, 0, 83, 80
1, 1072940, Note_on_c, 0, 78, 60
1, 1072942, Note_on_c, 0, 75, 68
1, 1072961, Note_on_c, 0, 59, 66
1, 1072967, Control_c, 0, 64, 33
1, 1072970, Note_off_c, 0, 47, 60
1, 1072973, Note_off_c, 0, 83, 65
1, 1072977, Note_off_c, 0, 78, 63
1, 1072982, Control_c, 0, 64, 56
1, 1072985, Note_off_c, 0, 75, 58
1, 1072997, Control_c, 0, 64, 64
1, 1072997, Control_c, 0, 67, 45
1, 1073012, Control_c, 0, 64, 68
1, 1073012, Control_c, 0, 67, 64
1, 1073027, Control_c, 0, 64, 73
1, 1073027, Control_c, 0, 67, 76
1, 1073042, Control_c, 0, 64, 78
1, 1073042, Control_c, 0, 67, 86
1, 1073057, Control_c, 0, 64, 83
1, 1073057, Control_c, 0, 67, 93
1, 1073066, Note_on_c, 0, 54, 54
1, 1073071, Control_c, 0, 64, 85
1, 1073071, Control_c, 0, 67, 99
1, 1073073, Note_off_c, 0, 59, 55
1, 1073086, Control_c, 0, 64, 88
1, 1073086, Control_c, 0, 67, 104
1, 1073092, Note_on_c, 0, 47, 58
1, 1073101, Control_c, 0, 64, 95
1, 1073101, Control_c, 0, 67, 106
1, 1073116, Control_c, 0, 64, 108
1, 1073116, Control_c, 0, 67, 108
1, 1073131, Control_c, 0, 64, 127
1, 1073131, Control_c, 0, 67, 110
1, 1073135, Note_off_c, 0, 54, 61
1, 1073145, Control_c, 0, 67, 116
1, 1073146, Note_off_c, 0, 47, 60
1, 1073160, Control_c, 0, 67, 124
1, 1073175, Control_c, 0, 64, 109
1, 1073175, Control_c, 0, 67, 127
1, 1073190, Control_c, 0, 64, 87
1, 1073205, Control_c, 0, 64, 71
1, 1073227, Control_c, 0, 64, 59
1, 1073242, Control_c, 0, 64, 45
1, 1073246, Note_on_c, 0, 73, 70
1, 1073257, Control_c, 0, 64, 38
1, 1073266, Note_on_c, 0, 54, 50
1, 1073270, Note_on_c, 0, 52, 46
1, 1073271, Control_c, 0, 64, 39
1, 1073280, Note_on_c, 0, 46, 52
1, 1073286, Control_c, 0, 64, 44
1, 1073301, Control_c, 0, 64, 47
1, 1073340, Note_on_c, 0, 66, 64
1, 1073352, Note_off_c, 0, 73, 60
1, 1073367, Note_off_c, 0, 46, 61
1, 1073369, Note_off_c, 0, 54, 52
1, 1073375, Control_c, 0, 64, 46
1, 1073384, Note_off_c, 0, 52, 57
1, 1073391, Control_c, 0, 64, 45
1, 1073406, Control_c, 0, 64, 44
1, 1073414, Note_off_c, 0, 66, 61
1, 1073429, Note_on_c, 0, 64, 61
1, 1073507, Note_off_c, 0, 64, 60
1, 1073524, Note_on_c, 0, 71, 67
1, 1073538, Note_on_c, 0, 47, 46
1, 1073540, Note_on_c, 0, 54, 40
1, 1073555, Note_on_c, 0, 52, 37
1, 1073614, Note_on_c, 0, 66, 64
1, 1073614, Note_off_c, 0, 52, 53
1, 1073631, Note_off_c, 0, 54, 49
1, 1073632, Note_off_c, 0, 47, 60
1, 1073640, Note_off_c, 0, 71, 53
1, 1073642, Control_c, 0, 64, 44
1, 1073693, Note_off_c, 0, 66, 61
1, 1073713, Note_on_c, 0, 64, 51
1, 1073763, Note_off_c, 0, 64, 60
1, 1073805, Note_on_c, 0, 70, 57
1, 1073813, Note_on_c, 0, 54, 43
1, 1073825, Note_on_c, 0, 49, 45
1, 1073830, Note_on_c, 0, 52, 42
1, 1073887, Note_off_c, 0, 70, 58
1, 1073897, Note_off_c, 0, 54, 54
1, 1073897, Note_off_c, 0, 52, 58
1, 1073900, Note_on_c, 0, 66, 56
1, 1073900, Note_off_c, 0, 49, 57
1, 1073962, Note_off_c, 0, 66, 54
1, 1074002, Note_on_c, 0, 64, 49
1, 1074005, Control_c, 0, 64, 44
1, 1074020, Control_c, 0, 64, 43
1, 1074035, Control_c, 0, 64, 40
1, 1074049, Control_c, 0, 64, 34
1, 1074064, Control_c, 0, 64, 0
1, 1074065, Note_off_c, 0, 64, 58
1, 1074102, Note_on_c, 0, 71, 48
1, 1074116, Note_on_c, 0, 51, 39
1, 1074119, Note_on_c, 0, 54, 29
1, 1074130, Note_on_c, 0, 47, 37
1, 1074168, Control_c, 0, 64, 39
1, 1074169, Note_off_c, 0, 71, 61
1, 1074181, Note_on_c, 0, 66, 60
1, 1074182, Note_off_c, 0, 54, 60
1, 1074183, Control_c, 0, 64, 52
1, 1074191, Note_off_c, 0, 51, 60
1, 1074199, Control_c, 0, 64, 61
1, 1074213, Control_c, 0, 64, 64
1, 1074228, Control_c, 0, 64, 66
1, 1074228, Control_c, 0, 67, 124
1, 1074243, Control_c, 0, 64, 69
1, 1074243, Control_c, 0, 67, 118
1, 1074253, Note_off_c, 0, 66, 64
1, 1074258, Control_c, 0, 64, 75
1, 1074258, Control_c, 0, 67, 109
1, 1074264, Note_on_c, 0, 63, 54
1, 1074273, Control_c, 0, 64, 83
1, 1074273, Control_c, 0, 67, 93
1, 1074287, Note_off_c, 0, 63, 57
1, 1074288, Control_c, 0, 64, 85
1, 1074288, Control_c, 0, 67, 73
1, 1074303, Control_c, 0, 64, 77
1, 1074303, Control_c, 0, 67, 44
1, 1074309, Note_off_c, 0, 47, 27
1, 1074317, Control_c, 0, 64, 58
1, 1074317, Control_c, 0, 67, 0
1, 1074332, Control_c, 0, 64, 0
1, 1074362, Control_c, 0, 64, 27
1, 1074377, Control_c, 0, 64, 50
1, 1074391, Control_c, 0, 64, 63
1, 1074406, Control_c, 0, 64, 71
1, 1074410, Note_on_c, 0, 85, 83
1, 1074419, Note_on_c, 0, 58, 68
1, 1074421, Control_c, 0, 64, 86
1, 1074436, Control_c, 0, 64, 104
1, 1074440, Note_on_c, 0, 78, 35
1, 1074450, Control_c, 0, 64, 127
1, 1074456, Note_on_c, 0, 76, 24
1, 1074467, Note_on_c, 0, 86, 17
1, 1074510, Note_off_c, 0, 86, 47
1, 1074511, Note_on_c, 0, 54, 66
1, 1074519, Note_off_c, 0, 76, 53
1, 1074526, Note_off_c, 0, 78, 31
1, 1074532, Note_off_c, 0, 58, 59
1, 1074544, Note_off_c, 0, 85, 60
1, 1074603, Note_on_c, 0, 47, 64
1, 1074613, Note_off_c, 0, 54, 60
1, 1074628, Control_c, 0, 64, 84
1, 1074643, Control_c, 0, 64, 65
1, 1074658, Control_c, 0, 64, 41
1, 1074670, Note_on_c, 0, 83, 94
1, 1074672, Control_c, 0, 64, 0
1, 1074683, Note_on_c, 0, 59, 76
1, 1074695, Note_on_c, 0, 76, 72
1, 1074702, Control_c, 0, 64, 33
1, 1074707, Note_on_c, 0, 78, 57
1, 1074724, Control_c, 0, 64, 54
1, 1074739, Control_c, 0, 64, 67
1, 1074750, Note_off_c, 0, 47, 36
1, 1074754, Control_c, 0, 64, 77
1, 1074769, Control_c, 0, 64, 90
1, 1074773, Note_on_c, 0, 54, 70
1, 1074775, Note_off_c, 0, 76, 51
1, 1074784, Control_c, 0, 64, 106
1, 1074786, Note_off_c, 0, 59, 60
1, 1074789, Note_off_c, 0, 78, 54
1, 1074799, Control_c, 0, 64, 127
1, 1074828, Note_off_c, 0, 83, 59
1, 1074860, Note_on_c, 0, 47, 65
1, 1074873, Note_off_c, 0, 54, 58
1, 1074917, Control_c, 0, 64, 92
1, 1074932, Control_c, 0, 64, 59
1, 1074934, Note_off_c, 0, 47, 59
1, 1074947, Control_c, 0, 64, 0
1, 1074962, Note_on_c, 0, 61, 77
1, 1074965, Note_on_c, 0, 82, 79
1, 1074974, Note_on_c, 0, 76, 75
1, 1074980, Note_on_c, 0, 78, 72
1, 1074993, Control_c, 0, 64, 30
1, 1075008, Control_c, 0, 64, 53
1, 1075022, Control_c, 0, 64, 64
1, 1075037, Note_off_c, 0, 76, 58
1, 1075037, Control_c, 0, 64, 71
1, 1075043, Note_off_c, 0, 61, 62
1, 1075045, Note_on_c, 0, 54, 65
1, 1075052, Control_c, 0, 64, 78
1, 1075060, Note_off_c, 0, 78, 54
1, 1075066, Control_c, 0, 64, 86
1, 1075081, Control_c, 0, 64, 95
1, 1075096, Note_off_c, 0, 82, 52
1, 1075096, Control_c, 0, 64, 104
1, 1075111, Control_c, 0, 64, 113
1, 1075126, Control_c, 0, 64, 127
1, 1075146, Note_on_c, 0, 47, 61
1, 1075157, Note_off_c, 0, 54, 53
1, 1075215, Control_c, 0, 64, 97
1, 1075230, Control_c, 0, 64, 68
1, 1075245, Control_c, 0, 64, 33
1, 1075248, Note_on_c, 0, 59, 62
1, 1075251, Note_on_c, 0, 83, 73
1, 1075251, Note_off_c, 0, 47, 53
1, 1075260, Control_c, 0, 64, 0
1, 1075264, Note_on_c, 0, 78, 57
1, 1075277, Note_on_c, 0, 75, 46
1, 1075289, Control_c, 0, 64, 41
1, 1075293, Note_off_c, 0, 83, 64
1, 1075298, Note_off_c, 0, 78, 63
1, 1075304, Note_off_c, 0, 75, 60
1, 1075304, Control_c, 0, 64, 59
1, 1075304, Control_c, 0, 67, 42
1, 1075319, Control_c, 0, 64, 65
1, 1075319, Control_c, 0, 67, 58
1, 1075331, Note_off_c, 0, 59, 60
1, 1075332, Note_on_c, 0, 54, 58
1, 1075334, Control_c, 0, 64, 68
1, 1075334, Control_c, 0, 67, 77
1, 1075348, Control_c, 0, 64, 72
1, 1075348, Control_c, 0, 67, 95
1, 1075363, Control_c, 0, 64, 77
1, 1075363, Control_c, 0, 67, 107
1, 1075378, Control_c, 0, 64, 82
1, 1075389, Note_on_c, 0, 47, 55
1, 1075393, Control_c, 0, 64, 89
1, 1075408, Control_c, 0, 64, 99
1, 1075412, Note_off_c, 0, 54, 60
1, 1075422, Control_c, 0, 64, 120
1, 1075437, Control_c, 0, 64, 127
1, 1075446, Note_off_c, 0, 47, 59
1, 1075474, Control_c, 0, 64, 106
1, 1075489, Control_c, 0, 64, 86
1, 1075504, Control_c, 0, 64, 70
1, 1075504, Control_c, 0, 67, 109
1, 1075519, Control_c, 0, 64, 59
1, 1075519, Control_c, 0, 67, 111
1, 1075534, Control_c, 0, 64, 46
1, 1075548, Control_c, 0, 64, 38
1, 1075549, Note_on_c, 0, 70, 65
1, 1075558, Note_on_c, 0, 54, 54
1, 1075563, Control_c, 0, 64, 38
1, 1075563, Control_c, 0, 67, 113
1, 1075566, Note_on_c, 0, 49, 49
1, 1075567, Note_on_c, 0, 52, 51
1, 1075578, Control_c, 0, 64, 41
1, 1075578, Control_c, 0, 67, 125
1, 1075593, Control_c, 0, 64, 42
1, 1075593, Control_c, 0, 67, 127
1, 1075637, Control_c, 0, 64, 42
1, 1075641, Note_off_c, 0, 70, 56
1, 1075643, Note_on_c, 0, 66, 59
1, 1075652, Control_c, 0, 64, 43
1, 1075656, Note_off_c, 0, 54, 49
1, 1075657, Note_off_c, 0, 52, 58
1, 1075662, Note_off_c, 0, 49, 62
1, 1075666, Control_c, 0, 64, 45
1, 1075681, Control_c, 0, 64, 47
1, 1075696, Control_c, 0, 64, 47
1, 1075716, Note_off_c, 0, 66, 62
1, 1075739, Note_on_c, 0, 64, 46
1, 1075755, Control_c, 0, 64, 48
1, 1075799, Note_off_c, 0, 64, 57
1, 1075829, Note_on_c, 0, 54, 43
1, 1075832, Note_on_c, 0, 71, 61
1, 1075838, Note_on_c, 0, 47, 51
1, 1075846, Note_on_c, 0, 52, 30
1, 1075914, Note_off_c, 0, 54, 55
1, 1075915, Note_off_c, 0, 52, 52
1, 1075916, Note_off_c, 0, 71, 60
1, 1075921, Note_off_c, 0, 47, 60
1, 1075927, Note_on_c, 0, 66, 56
1, 1075997, Note_off_c, 0, 66, 60
1, 1076023, Note_on_c, 0, 64, 52
1, 1076065, Note_off_c, 0, 64, 61
1, 1076112, Note_on_c, 0, 73, 59
1, 1076119, Note_on_c, 0, 54, 35
1, 1076127, Note_on_c, 0, 46, 45
1, 1076132, Note_on_c, 0, 52, 34
1, 1076176, Note_off_c, 0, 52, 59
1, 1076179, Note_off_c, 0, 46, 58
1, 1076180, Note_off_c, 0, 54, 54
1, 1076198, Note_off_c, 0, 73, 60
1, 1076202, Note_on_c, 0, 66, 56
1, 1076223, Control_c, 0, 64, 48
1, 1076237, Control_c, 0, 64, 49
1, 1076252, Control_c, 0, 64, 50
1, 1076267, Control_c, 0, 64, 52
1, 1076282, Control_c, 0, 64, 55
1, 1076285, Note_off_c, 0, 66, 58
1, 1076293, Note_on_c, 0, 64, 48
1, 1076296, Control_c, 0, 64, 56
1, 1076311, Control_c, 0, 64, 58
1, 1076326, Control_c, 0, 64, 59
1, 1076341, Note_off_c, 0, 64, 59
1, 1076341, Control_c, 0, 64, 60
1, 1076356, Control_c, 0, 64, 60
1, 1076370, Control_c, 0, 64, 61
1, 1076385, Control_c, 0, 64, 61
1, 1076397, Note_on_c, 0, 54, 32
1, 1076397, Note_on_c, 0, 71, 53
1, 1076400, Control_c, 0, 64, 62
1, 1076401, Note_on_c, 0, 47, 34
1, 1076405, Note_on_c, 0, 51, 34
1, 1076415, Control_c, 0, 64, 62
1, 1076429, Control_c, 0, 64, 63
1, 1076464, Note_off_c, 0, 71, 60
1, 1076474, Control_c, 0, 64, 63
1, 1076479, Note_on_c, 0, 66, 63
1, 1076531, Note_off_c, 0, 54, 52
1, 1076562, Note_off_c, 0, 66, 64
1, 1076565, Note_on_c, 0, 63, 63
1, 1076569, Note_off_c, 0, 47, 54
1, 1076577, Control_c, 0, 64, 64
1, 1076595, Note_off_c, 0, 51, 43
1, 1076608, Control_c, 0, 64, 64
1, 1076623, Note_off_c, 0, 63, 63
1, 1076638, Control_c, 0, 64, 65
1, 1076651, Note_on_c, 0, 59, 60
1, 1076683, Note_off_c, 0, 59, 64
1, 1076739, Note_on_c, 0, 54, 67
1, 1076771, Control_c, 0, 64, 64
1, 1076786, Control_c, 0, 64, 64
1, 1076801, Control_c, 0, 64, 63
1, 1076816, Control_c, 0, 64, 62
1, 1076817, Note_on_c, 0, 51, 64
1, 1076825, Note_off_c, 0, 54, 62
1, 1076831, Control_c, 0, 64, 60
1, 1076845, Control_c, 0, 64, 59
1, 1076860, Control_c, 0, 64, 58
1, 1076875, Control_c, 0, 64, 54
1, 1076887, Note_off_c, 0, 51, 61
1, 1076890, Control_c, 0, 64, 51
1, 1076905, Control_c, 0, 64, 47
1, 1076916, Note_on_c, 0, 47, 63
1, 1076919, Control_c, 0, 64, 42
1, 1076934, Control_c, 0, 64, 37
1, 1076949, Control_c, 0, 64, 33
1, 1076971, Control_c, 0, 64, 29
1, 1076986, Control_c, 0, 64, 0
1, 1077004, Note_off_c, 0, 47, 63
1, 1077007, Note_on_c, 0, 45, 67
1, 1077095, Note_off_c, 0, 45, 62
1, 1077105, Note_on_c, 0, 44, 57
1, 1077210, Note_off_c, 0, 44, 62
1, 1077234, Note_on_c, 0, 45, 53
1, 1077325, Note_off_c, 0, 45, 60
1, 1077337, Note_on_c, 0, 44, 57
1, 1077432, Note_off_c, 0, 44, 59
1, 1077439, Note_on_c, 0, 42, 53
1, 1077527, Note_off_c, 0, 42, 62
1, 1077540, Note_on_c, 0, 40, 54
1, 1077564, Control_c, 0, 64, 27
1, 1077579, Control_c, 0, 64, 30
1, 1077594, Control_c, 0, 64, 32
1, 1077609, Control_c, 0, 64, 33
1, 1077618, Note_off_c, 0, 40, 61
1, 1077624, Control_c, 0, 64, 35
1, 1077644, Note_on_c, 0, 44, 49
1, 1077653, Control_c, 0, 64, 35
1, 1077683, Control_c, 0, 64, 36
1, 1077700, Note_off_c, 0, 44, 62
1, 1077719, Note_on_c, 0, 47, 58
1, 1077760, Note_off_c, 0, 47, 64
1, 1077814, Note_on_c, 0, 52, 55
1, 1077853, Note_off_c, 0, 52, 65
1, 1077892, Note_on_c, 0, 56, 63
1, 1077898, Control_c, 0, 64, 34
1, 1077913, Control_c, 0, 64, 30
1, 1077928, Control_c, 0, 64, 0
1, 1077941, Note_off_c, 0, 56, 56
1, 1077990, Note_on_c, 0, 59, 52
1, 1078046, Note_off_c, 0, 59, 50
1, 1078076, Control_c, 0, 64, 31
1, 1078091, Control_c, 0, 64, 40
1, 1078100, Note_on_c, 0, 71, 60
1, 1078105, Note_on_c, 0, 52, 44
1, 1078106, Control_c, 0, 64, 47
1, 1078121, Control_c, 0, 64, 51
1, 1078135, Control_c, 0, 64, 53
1, 1078150, Control_c, 0, 64, 55
1, 1078165, Control_c, 0, 64, 56
1, 1078180, Control_c, 0, 64, 58
1, 1078193, Note_off_c, 0, 52, 56
1, 1078196, Control_c, 0, 64, 60
1, 1078209, Note_on_c, 0, 56, 48
1, 1078211, Control_c, 0, 64, 61
1, 1078223, Note_off_c, 0, 71, 59
1, 1078226, Control_c, 0, 64, 62
1, 1078240, Control_c, 0, 64, 63
1, 1078270, Control_c, 0, 64, 61
1, 1078279, Note_off_c, 0, 56, 55
1, 1078284, Control_c, 0, 64, 57
1, 1078289, Note_on_c, 0, 59, 52
1, 1078299, Control_c, 0, 64, 53
1, 1078329, Control_c, 0, 64, 56
1, 1078344, Control_c, 0, 64, 59
1, 1078358, Control_c, 0, 64, 61
1, 1078361, Note_off_c, 0, 59, 51
1, 1078368, Note_on_c, 0, 71, 79
1, 1078373, Control_c, 0, 64, 63
1, 1078378, Note_on_c, 0, 52, 52
1, 1078388, Control_c, 0, 64, 65
1, 1078403, Control_c, 0, 64, 67
1, 1078417, Control_c, 0, 64, 68
1, 1078432, Control_c, 0, 64, 69
1, 1078442, Note_off_c, 0, 71, 60
1, 1078455, Note_off_c, 0, 52, 61
1, 1078477, Note_on_c, 0, 56, 52
1, 1078527, Note_off_c, 0, 56, 57
1, 1078571, Note_on_c, 0, 59, 51
1, 1078588, Control_c, 0, 64, 68
1, 1078603, Control_c, 0, 64, 68
1, 1078617, Control_c, 0, 64, 67
1, 1078632, Control_c, 0, 64, 67
1, 1078647, Control_c, 0, 64, 66
1, 1078662, Control_c, 0, 64, 65
1, 1078677, Control_c, 0, 64, 63
1, 1078680, Note_off_c, 0, 59, 54
1, 1078691, Note_on_c, 0, 71, 63
1, 1078691, Control_c, 0, 64, 61
1, 1078706, Control_c, 0, 64, 58
1, 1078713, Note_on_c, 0, 51, 42
1, 1078721, Control_c, 0, 64, 54
1, 1078736, Control_c, 0, 64, 46
1, 1078751, Control_c, 0, 64, 0
1, 1078789, Note_off_c, 0, 51, 56
1, 1078816, Note_on_c, 0, 54, 46
1, 1078855, Control_c, 0, 64, 37
1, 1078870, Control_c, 0, 64, 51
1, 1078884, Control_c, 0, 64, 60
1, 1078894, Note_off_c, 0, 54, 58
1, 1078899, Control_c, 0, 64, 63
1, 1078914, Control_c, 0, 64, 65
1, 1078917, Note_on_c, 0, 59, 43
1, 1078929, Control_c, 0, 64, 67
1, 1078944, Control_c, 0, 64, 69
1, 1078958, Control_c, 0, 64, 72
1, 1078973, Control_c, 0, 64, 74
1, 1078978, Note_off_c, 0, 59, 57
1, 1078989, Control_c, 0, 64, 75
1, 1078992, Note_on_c, 0, 51, 57
1, 1079004, Control_c, 0, 64, 76
1, 1079046, Note_off_c, 0, 71, 60
1, 1079067, Note_off_c, 0, 51, 58
1, 1079078, Control_c, 0, 64, 74
1, 1079081, Note_on_c, 0, 54, 51
1, 1079093, Control_c, 0, 64, 72
1, 1079107, Control_c, 0, 64, 69
1, 1079122, Control_c, 0, 64, 65
1, 1079127, Note_off_c, 0, 54, 63
1, 1079137, Control_c, 0, 64, 62
1, 1079152, Control_c, 0, 64, 59
1, 1079167, Control_c, 0, 64, 54
1, 1079171, Note_on_c, 0, 59, 52
1, 1079182, Control_c, 0, 64, 47
1, 1079196, Control_c, 0, 64, 37
1, 1079218, Control_c, 0, 64, 0
1, 1079236, Note_off_c, 0, 59, 55
1, 1079259, Note_on_c, 0, 54, 51
1, 1079275, Note_on_c, 0, 71, 51
1, 1079297, Note_off_c, 0, 71, 60
1, 1079338, Note_off_c, 0, 54, 60
1, 1079359, Note_on_c, 0, 57, 55
1, 1079389, Note_on_c, 0, 71, 67
1, 1079414, Note_off_c, 0, 57, 57
1, 1079424, Note_off_c, 0, 71, 62
1, 1079456, Note_on_c, 0, 59, 50
1, 1079511, Note_off_c, 0, 59, 57
1, 1079526, Note_on_c, 0, 73, 76
1, 1079540, Note_on_c, 0, 54, 53
1, 1079548, Note_off_c, 0, 73, 70
1, 1079588, Control_c, 0, 67, 112
1, 1079602, Note_off_c, 0, 54, 58
1, 1079603, Control_c, 0, 67, 99
1, 1079618, Control_c, 0, 67, 94
1, 1079630, Note_on_c, 0, 57, 49
1, 1079633, Control_c, 0, 67, 93
1, 1079648, Control_c, 0, 67, 94
1, 1079650, Note_on_c, 0, 75, 73
1, 1079663, Control_c, 0, 67, 95
1, 1079677, Note_off_c, 0, 57, 59
1, 1079677, Note_off_c, 0, 75, 65
1, 1079692, Control_c, 0, 67, 97
1, 1079722, Control_c, 0, 67, 99
1, 1079724, Note_on_c, 0, 59, 46
1, 1079752, Control_c, 0, 67, 101
1, 1079794, Note_off_c, 0, 59, 51
1, 1079812, Control_c, 0, 67, 104
1, 1079821, Note_on_c, 0, 76, 63
1, 1079831, Note_on_c, 0, 52, 43
1, 1079906, Note_off_c, 0, 52, 59
1, 1079918, Note_on_c, 0, 56, 50
1, 1079945, Control_c, 0, 64, 36
1, 1079967, Control_c, 0, 64, 49
1, 1079982, Control_c, 0, 64, 58
1, 1079996, Note_off_c, 0, 56, 60
1, 1079997, Control_c, 0, 64, 62
1, 1080012, Control_c, 0, 64, 64
1, 1080012, Control_c, 0, 67, 106
1, 1080017, Note_on_c, 0, 59, 47
1, 1080026, Control_c, 0, 64, 65
1, 1080041, Control_c, 0, 64, 68
1, 1080041, Control_c, 0, 67, 108
1, 1080056, Control_c, 0, 64, 71
1, 1080071, Control_c, 0, 64, 73
1, 1080071, Control_c, 0, 67, 110
1, 1080086, Control_c, 0, 64, 76
1, 1080090, Note_off_c, 0, 59, 54
1, 1080092, Note_on_c, 0, 52, 52
1, 1080093, Note_off_c, 0, 76, 61
1, 1080101, Control_c, 0, 64, 77
1, 1080101, Control_c, 0, 67, 112
1, 1080116, Control_c, 0, 64, 79
1, 1080131, Control_c, 0, 64, 79
1, 1080145, Control_c, 0, 64, 80
1, 1080145, Control_c, 0, 67, 114
1, 1080174, Note_off_c, 0, 52, 59
1, 1080190, Control_c, 0, 64, 80
1, 1080190, Control_c, 0, 67, 116
1, 1080205, Note_on_c, 0, 56, 39
1, 1080243, Note_off_c, 0, 56, 50
1, 1080251, Note_on_c, 0, 59, 52
1, 1080350, Note_on_c, 0, 76, 66
1, 1080352, Control_c, 0, 64, 78
1, 1080363, Note_off_c, 0, 59, 37
1, 1080365, Note_on_c, 0, 50, 58
1, 1080367, Control_c, 0, 64, 69
1, 1080370, Note_on_c, 0, 64, 53
1, 1080381, Control_c, 0, 64, 55
1, 1080396, Control_c, 0, 64, 0
1, 1080399, Note_off_c, 0, 64, 65
1, 1080403, Note_off_c, 0, 76, 63
1, 1080441, Control_c, 0, 64, 30
1, 1080455, Note_off_c, 0, 50, 59
1, 1080455, Control_c, 0, 64, 46
1, 1080463, Note_on_c, 0, 52, 57
1, 1080470, Control_c, 0, 64, 56
1, 1080485, Control_c, 0, 64, 62
1, 1080486, Note_on_c, 0, 76, 77
1, 1080488, Note_on_c, 0, 64, 63
1, 1080500, Control_c, 0, 64, 65
1, 1080515, Control_c, 0, 64, 67
1, 1080516, Note_off_c, 0, 64, 65
1, 1080520, Note_off_c, 0, 76, 63
1, 1080530, Control_c, 0, 64, 69
1, 1080530, Control_c, 0, 67, 114
1, 1080532, Note_on_c, 0, 59, 59
1, 1080533, Note_off_c, 0, 52, 62
1, 1080545, Control_c, 0, 64, 71
1, 1080560, Control_c, 0, 64, 72
1, 1080575, Control_c, 0, 64, 73
1, 1080590, Control_c, 0, 64, 73
1, 1080590, Control_c, 0, 67, 111
1, 1080594, Note_off_c, 0, 59, 55
1, 1080605, Control_c, 0, 67, 109
1, 1080613, Note_on_c, 0, 78, 82
1, 1080618, Note_on_c, 0, 66, 76
1, 1080620, Control_c, 0, 67, 107
1, 1080626, Note_on_c, 0, 50, 55
1, 1080634, Control_c, 0, 67, 104
1, 1080642, Note_off_c, 0, 66, 70
1, 1080649, Control_c, 0, 67, 100
1, 1080655, Note_off_c, 0, 78, 51
1, 1080664, Control_c, 0, 67, 96
1, 1080678, Note_off_c, 0, 50, 61
1, 1080679, Control_c, 0, 67, 91
1, 1080694, Control_c, 0, 67, 86
1, 1080694, Note_on_c, 0, 52, 56
1, 1080716, Control_c, 0, 67, 68
1, 1080731, Control_c, 0, 67, 0
1, 1080739, Note_off_c, 0, 52, 63
1, 1080753, Note_on_c, 0, 80, 86
1, 1080761, Note_on_c, 0, 68, 77
1, 1080771, Note_on_c, 0, 59, 58
1, 1080788, Note_off_c, 0, 68, 61
1, 1080807, Note_off_c, 0, 80, 63
1, 1080864, Control_c, 0, 64, 73
1, 1080879, Control_c, 0, 64, 70
1, 1080894, Control_c, 0, 64, 64
1, 1080909, Control_c, 0, 64, 56
1, 1080923, Control_c, 0, 64, 44
1, 1080936, Note_on_c, 0, 81, 76
1, 1080938, Control_c, 0, 64, 39
1, 1080951, Note_off_c, 0, 59, 37
1, 1080953, Control_c, 0, 64, 44
1, 1080957, Note_on_c, 0, 49, 46
1, 1080963, Note_on_c, 0, 69, 54
1, 1080968, Control_c, 0, 64, 52
1, 1080983, Control_c, 0, 64, 57
1, 1080998, Control_c, 0, 64, 61
1, 1081012, Control_c, 0, 64, 64
1, 1081027, Control_c, 0, 64, 67
1, 1081042, Note_off_c, 0, 49, 58
1, 1081042, Control_c, 0, 64, 70
1, 1081049, Note_on_c, 0, 52, 52
1, 1081057, Control_c, 0, 64, 72
1, 1081072, Control_c, 0, 64, 72
1, 1081086, Control_c, 0, 64, 73
1, 1081101, Control_c, 0, 64, 74
1, 1081116, Control_c, 0, 64, 76
1, 1081131, Control_c, 0, 64, 76
1, 1081135, Note_off_c, 0, 52, 60
1, 1081146, Control_c, 0, 64, 75
1, 1081147, Note_on_c, 0, 57, 36
1, 1081160, Control_c, 0, 64, 69
1, 1081175, Control_c, 0, 64, 60
1, 1081190, Control_c, 0, 64, 49
1, 1081219, Control_c, 0, 64, 55
1, 1081222, Note_on_c, 0, 49, 49
1, 1081230, Note_off_c, 0, 57, 60
1, 1081234, Control_c, 0, 64, 61
1, 1081249, Control_c, 0, 64, 67
1, 1081261, Note_off_c, 0, 69, 63
1, 1081264, Control_c, 0, 64, 76
1, 1081279, Control_c, 0, 64, 83
1, 1081293, Control_c, 0, 64, 89
1, 1081304, Note_off_c, 0, 81, 64
1, 1081308, Control_c, 0, 64, 95
1, 1081318, Note_on_c, 0, 52, 52
1, 1081318, Note_off_c, 0, 49, 59
1, 1081323, Control_c, 0, 64, 101
1, 1081338, Control_c, 0, 64, 111
1, 1081353, Control_c, 0, 64, 127
1, 1081368, Note_off_c, 0, 52, 62
1, 1081379, Poly_aftertouch_c, 0, 78, 0
1, 1081381, Note_on_c, 0, 57, 59
1, 1081467, Note_off_c, 0, 57, 57
1, 1081495, Control_c, 0, 67, 35
1, 1081509, Control_c, 0, 64, 81
1, 1081509, Control_c, 0, 67, 41
1, 1081512, Note_on_c, 0, 85, 74
1, 1081520, Note_on_c, 0, 45, 51
1, 1081524, Control_c, 0, 64, 64
1, 1081524, Control_c, 0, 67, 43
1, 1081537, Note_on_c, 0, 73, 51
1, 1081539, Control_c, 0, 64, 60
1, 1081554, Control_c, 0, 64, 65
1, 1081569, Control_c, 0, 64, 72
1, 1081583, Control_c, 0, 64, 80
1, 1081598, Control_c, 0, 64, 94
1, 1081601, Note_on_c, 0, 49, 61
1, 1081606, Note_off_c, 0, 45, 58
1, 1081613, Control_c, 0, 64, 127
1, 1081628, Control_c, 0, 67, 43
1, 1081637, Note_off_c, 0, 73, 57
1, 1081642, Control_c, 0, 67, 42
1, 1081657, Control_c, 0, 67, 42
1, 1081660, Note_off_c, 0, 85, 57
1, 1081672, Control_c, 0, 67, 41
1, 1081687, Control_c, 0, 67, 41
1, 1081692, Note_on_c, 0, 52, 61
1, 1081698, Note_off_c, 0, 49, 59
1, 1081731, Control_c, 0, 67, 41
1, 1081746, Control_c, 0, 67, 42
1, 1081761, Control_c, 0, 64, 93
1, 1081761, Control_c, 0, 67, 43
1, 1081776, Control_c, 0, 64, 65
1, 1081776, Control_c, 0, 67, 44
1, 1081780, Note_on_c, 0, 85, 80
1, 1081783, Note_on_c, 0, 45, 62
1, 1081785, Note_off_c, 0, 52, 62
1, 1081791, Control_c, 0, 64, 53
1, 1081791, Control_c, 0, 67, 45
1, 1081795, Note_on_c, 0, 73, 73
1, 1081806, Control_c, 0, 64, 58
1, 1081806, Control_c, 0, 67, 46
1, 1081821, Control_c, 0, 64, 66
1, 1081821, Control_c, 0, 67, 48
1, 1081835, Control_c, 0, 64, 76
1, 1081835, Control_c, 0, 67, 49
1, 1081850, Control_c, 0, 64, 97
1, 1081850, Control_c, 0, 67, 49
1, 1081865, Control_c, 0, 64, 127
1, 1081865, Control_c, 0, 67, 54
1, 1081875, Note_on_c, 0, 49, 65
1, 1081878, Note_off_c, 0, 45, 62
1, 1081880, Control_c, 0, 67, 61
1, 1081895, Control_c, 0, 67, 61
1, 1081919, Note_off_c, 0, 85, 63
1, 1081929, Note_off_c, 0, 73, 60
1, 1081931, Note_off_c, 0, 49, 62
1, 1081939, Control_c, 0, 67, 61
1, 1081943, Note_on_c, 0, 52, 61
1, 1081998, Control_c, 0, 67, 60
1, 1082013, Control_c, 0, 67, 60
1, 1082028, Control_c, 0, 67, 60
1, 1082057, Control_c, 0, 64, 85
1, 1082057, Control_c, 0, 67, 61
1, 1082066, Note_off_c, 0, 52, 52
1, 1082067, Note_on_c, 0, 83, 89
1, 1082072, Note_on_c, 0, 44, 59
1, 1082072, Control_c, 0, 64, 58
1, 1082072, Control_c, 0, 67, 62
1, 1082084, Note_on_c, 0, 71, 77
1, 1082087, Control_c, 0, 64, 38
1, 1082087, Control_c, 0, 67, 63
1, 1082102, Control_c, 0, 64, 40
1, 1082116, Control_c, 0, 64, 54
1, 1082131, Control_c, 0, 64, 64
1, 1082131, Control_c, 0, 67, 61
1, 1082137, Note_off_c, 0, 71, 61
1, 1082146, Control_c, 0, 64, 74
1, 1082149, Note_on_c, 0, 47, 57
1, 1082161, Control_c, 0, 64, 91
1, 1082174, Note_off_c, 0, 44, 63
1, 1082177, Control_c, 0, 64, 116
1, 1082192, Control_c, 0, 64, 127
1, 1082218, Note_off_c, 0, 47, 63
1, 1082229, Control_c, 0, 67, 61
1, 1082243, Note_on_c, 0, 52, 52
1, 1082244, Control_c, 0, 67, 60
1, 1082258, Control_c, 0, 67, 60
1, 1082347, Control_c, 0, 67, 61
1, 1082360, Note_on_c, 0, 42, 67
1, 1082362, Control_c, 0, 64, 94
1, 1082362, Control_c, 0, 67, 61
1, 1082368, Note_on_c, 0, 85, 86
1, 1082374, Note_off_c, 0, 52, 56
1, 1082377, Control_c, 0, 64, 66
1, 1082377, Control_c, 0, 67, 62
1, 1082384, Note_on_c, 0, 73, 73
1, 1082392, Control_c, 0, 64, 49
1, 1082392, Control_c, 0, 67, 63
1, 1082406, Control_c, 0, 64, 39
1, 1082406, Control_c, 0, 67, 63
1, 1082421, Control_c, 0, 64, 44
1, 1082435, Note_off_c, 0, 83, 35
1, 1082436, Control_c, 0, 64, 56
1, 1082451, Control_c, 0, 64, 65
1, 1082451, Control_c, 0, 67, 63
1, 1082465, Control_c, 0, 64, 73
1, 1082471, Note_on_c, 0, 45, 40
1, 1082471, Note_off_c, 0, 42, 56
1, 1082480, Control_c, 0, 64, 82
1, 1082480, Control_c, 0, 67, 62
1, 1082495, Control_c, 0, 64, 91
1, 1082495, Control_c, 0, 67, 61
1, 1082510, Control_c, 0, 64, 98
1, 1082510, Control_c, 0, 67, 61
1, 1082525, Control_c, 0, 64, 106
1, 1082525, Control_c, 0, 67, 60
1, 1082527, Note_off_c, 0, 45, 54
1, 1082532, Note_on_c, 0, 52, 53
1, 1082539, Control_c, 0, 64, 117
1, 1082539, Control_c, 0, 67, 60
1, 1082545, Note_off_c, 0, 73, 62
1, 1082554, Control_c, 0, 64, 127
1, 1082566, Note_off_c, 0, 85, 61
1, 1082569, Control_c, 0, 67, 59
1, 1082584, Control_c, 0, 67, 58
1, 1082614, Control_c, 0, 67, 58
1, 1082629, Control_c, 0, 67, 58
1, 1082643, Control_c, 0, 67, 59
1, 1082646, Note_off_c, 0, 52, 57
1, 1082658, Control_c, 0, 64, 107
1, 1082658, Control_c, 0, 67, 60
1, 1082661, Note_on_c, 0, 44, 53
1, 1082670, Note_on_c, 0, 83, 73
1, 1082673, Control_c, 0, 64, 83
1, 1082673, Control_c, 0, 67, 60
1, 1082688, Control_c, 0, 64, 63
1, 1082688, Control_c, 0, 67, 61
1, 1082694, Note_on_c, 0, 71, 58
1, 1082703, Control_c, 0, 64, 46
1, 1082703, Control_c, 0, 67, 63
1, 1082718, Control_c, 0, 64, 33
1, 1082718, Control_c, 0, 67, 64
1, 1082732, Control_c, 0, 64, 35
1, 1082732, Control_c, 0, 67, 64
1, 1082734, Note_off_c, 0, 44, 62
1, 1082747, Control_c, 0, 64, 45
1, 1082747, Control_c, 0, 67, 65
1, 1082751, Note_on_c, 0, 47, 55
1, 1082762, Control_c, 0, 64, 56
1, 1082763, Note_off_c, 0, 71, 62
1, 1082776, Control_c, 0, 64, 63
1, 1082776, Control_c, 0, 67, 66
1, 1082791, Control_c, 0, 64, 69
1, 1082806, Control_c, 0, 64, 74
1, 1082821, Control_c, 0, 64, 78
1, 1082821, Control_c, 0, 67, 65
1, 1082823, Note_off_c, 0, 47, 58
1, 1082836, Control_c, 0, 64, 81
1, 1082840, Note_on_c, 0, 52, 54
1, 1082851, Control_c, 0, 64, 85
1, 1082865, Control_c, 0, 64, 91
1, 1082880, Control_c, 0, 64, 104
1, 1082895, Control_c, 0, 64, 127
1, 1082895, Control_c, 0, 67, 66
1, 1082910, Control_c, 0, 67, 67
1, 1082925, Control_c, 0, 64, 95
1, 1082925, Control_c, 0, 67, 68
1, 1082939, Note_on_c, 0, 40, 51
1, 1082939, Control_c, 0, 64, 73
1, 1082939, Control_c, 0, 67, 68
1, 1082945, Note_on_c, 0, 80, 67
1, 1082946, Note_off_c, 0, 52, 52
1, 1082962, Control_c, 0, 64, 56
1, 1082977, Control_c, 0, 64, 35
1, 1082977, Control_c, 0, 67, 80
1, 1082978, Note_on_c, 0, 68, 49
1, 1082992, Control_c, 0, 64, 30
1, 1082992, Control_c, 0, 67, 91
1, 1083007, Control_c, 0, 64, 43
1, 1083007, Control_c, 0, 67, 94
1, 1083022, Control_c, 0, 64, 57
1, 1083025, Note_off_c, 0, 40, 57
1, 1083037, Control_c, 0, 64, 65
1, 1083037, Control_c, 0, 67, 94
1, 1083043, Note_on_c, 0, 47, 54
1, 1083052, Control_c, 0, 64, 71
1, 1083052, Control_c, 0, 67, 93
1, 1083067, Control_c, 0, 64, 76
1, 1083067, Control_c, 0, 67, 93
1, 1083081, Control_c, 0, 64, 80
1, 1083081, Control_c, 0, 67, 92
1, 1083090, Note_off_c, 0, 83, 34
1, 1083091, Note_off_c, 0, 47, 59
1, 1083096, Control_c, 0, 64, 84
1, 1083096, Control_c, 0, 67, 91
1, 1083099, Note_off_c, 0, 68, 52
1, 1083111, Control_c, 0, 64, 87
1, 1083111, Control_c, 0, 67, 91
1, 1083126, Control_c, 0, 64, 88
1, 1083126, Control_c, 0, 67, 90
1, 1083133, Note_on_c, 0, 52, 47
1, 1083141, Control_c, 0, 64, 89
1, 1083145, Note_off_c, 0, 80, 55
1, 1083155, Control_c, 0, 64, 90
1, 1083155, Control_c, 0, 67, 90
1, 1083170, Control_c, 0, 64, 90
1, 1083200, Control_c, 0, 67, 89
1, 1083244, Control_c, 0, 67, 90
1, 1083269, Note_on_c, 0, 47, 52
1, 1083274, Control_c, 0, 64, 90
1, 1083279, Note_on_c, 0, 78, 60
1, 1083282, Note_off_c, 0, 52, 34
1, 1083288, Control_c, 0, 64, 87
1, 1083288, Control_c, 0, 67, 90
1, 1083290, Note_on_c, 0, 66, 45
1, 1083303, Control_c, 0, 64, 78
1, 1083303, Control_c, 0, 67, 91
1, 1083318, Control_c, 0, 64, 67
1, 1083333, Control_c, 0, 64, 51
1, 1083348, Control_c, 0, 64, 0
1, 1083353, Note_off_c, 0, 47, 63
1, 1083380, Note_on_c, 0, 51, 54
1, 1083421, Control_c, 0, 64, 37
1, 1083421, Control_c, 0, 67, 90
1, 1083436, Control_c, 0, 64, 51
1, 1083436, Control_c, 0, 67, 88
1, 1083451, Control_c, 0, 64, 61
1, 1083451, Control_c, 0, 67, 87
1, 1083454, Note_off_c, 0, 51, 62
1, 1083466, Control_c, 0, 64, 66
1, 1083466, Control_c, 0, 67, 86
1, 1083474, Note_on_c, 0, 54, 48
1, 1083481, Control_c, 0, 64, 71
1, 1083481, Control_c, 0, 67, 84
1, 1083496, Control_c, 0, 64, 79
1, 1083496, Control_c, 0, 67, 82
1, 1083507, Note_off_c, 0, 54, 64
1, 1083511, Control_c, 0, 64, 90
1, 1083511, Control_c, 0, 67, 79
1, 1083526, Control_c, 0, 64, 100
1, 1083526, Control_c, 0, 67, 73
1, 1083541, Control_c, 0, 64, 108
1, 1083541, Control_c, 0, 67, 67
1, 1083542, Note_on_c, 0, 59, 63
1, 1083548, Note_off_c, 0, 66, 62
1, 1083555, Control_c, 0, 67, 53
1, 1083566, Note_off_c, 0, 78, 61
1, 1083570, Control_c, 0, 67, 0
1, 1083614, Control_c, 0, 64, 101
1, 1083623, Note_off_c, 0, 59, 57
1, 1083629, Control_c, 0, 64, 90
1, 1083644, Control_c, 0, 64, 79
1, 1083645, Note_on_c, 0, 58, 55
1, 1083659, Control_c, 0, 64, 70
1, 1083673, Control_c, 0, 64, 62
1, 1083688, Control_c, 0, 64, 50
1, 1083690, Note_off_c, 0, 58, 63
1, 1083711, Control_c, 0, 64, 30
1, 1083723, Note_on_c, 0, 57, 53
1, 1083725, Control_c, 0, 64, 0
1, 1083818, Note_off_c, 0, 57, 63
1, 1083830, Note_on_c, 0, 71, 61
1, 1083849, Note_on_c, 0, 56, 50
1, 1083880, Note_off_c, 0, 71, 61
1, 1083905, Note_off_c, 0, 56, 61
1, 1083938, Note_on_c, 0, 59, 54
1, 1084008, Note_off_c, 0, 59, 60
1, 1084033, Note_on_c, 0, 64, 49
1, 1084089, Note_off_c, 0, 64, 56
1, 1084101, Note_on_c, 0, 71, 61
1, 1084125, Note_on_c, 0, 56, 48
1, 1084162, Note_off_c, 0, 71, 59
1, 1084181, Note_off_c, 0, 56, 63
1, 1084220, Note_on_c, 0, 59, 38
1, 1084268, Note_off_c, 0, 59, 53
1, 1084301, Note_on_c, 0, 64, 42
1, 1084372, Note_off_c, 0, 64, 50
1, 1084425, Note_on_c, 0, 71, 48
1, 1084440, Note_on_c, 0, 54, 36
1, 1084504, Control_c, 0, 67, 41
1, 1084505, Note_off_c, 0, 54, 57
1, 1084518, Control_c, 0, 67, 56
1, 1084533, Control_c, 0, 67, 74
1, 1084548, Note_on_c, 0, 57, 33
1, 1084548, Control_c, 0, 67, 93
1, 1084562, Control_c, 0, 67, 112
1, 1084578, Control_c, 0, 67, 127
1, 1084642, Note_on_c, 0, 63, 43
1, 1084642, Note_off_c, 0, 57, 58
1, 1084678, Note_off_c, 0, 63, 51
1, 1084718, Note_on_c, 0, 54, 47
1, 1084795, Note_off_c, 0, 54, 61
1, 1084808, Note_off_c, 0, 71, 62
1, 1084823, Note_on_c, 0, 57, 45
1, 1084887, Note_off_c, 0, 57, 60
1, 1084906, Note_on_c, 0, 63, 51
1, 1084939, Note_off_c, 0, 63, 58
1, 1084984, Note_on_c, 0, 71, 66
1, 1085003, Note_on_c, 0, 54, 50
1, 1085011, Note_off_c, 0, 71, 66
1, 1085049, Note_off_c, 0, 54, 59
1, 1085089, Note_on_c, 0, 57, 49
1, 1085114, Note_on_c, 0, 71, 64
1, 1085150, Note_off_c, 0, 71, 62
1, 1085163, Note_off_c, 0, 57, 63
1, 1085175, Note_on_c, 0, 62, 44
1, 1085249, Note_off_c, 0, 62, 50
1, 1085263, Note_on_c, 0, 73, 68
1, 1085273, Note_on_c, 0, 54, 53
1, 1085287, Note_off_c, 0, 73, 69
1, 1085347, Note_off_c, 0, 54, 62
1, 1085385, Note_on_c, 0, 57, 44
1, 1085387, Note_on_c, 0, 74, 66
1, 1085414, Note_off_c, 0, 74, 65
1, 1085442, Note_off_c, 0, 57, 60
1, 1085469, Note_on_c, 0, 62, 41
1, 1085520, Note_off_c, 0, 62, 56
1, 1085576, Note_on_c, 0, 73, 58
1, 1085611, Note_on_c, 0, 53, 42
1, 1085663, Note_off_c, 0, 53, 61
1, 1085691, Note_on_c, 0, 56, 54
1, 1085712, Control_c, 0, 64, 38
1, 1085727, Control_c, 0, 64, 50
1, 1085742, Control_c, 0, 64, 60
1, 1085756, Control_c, 0, 64, 63
1, 1085771, Control_c, 0, 64, 67
1, 1085784, Note_off_c, 0, 56, 61
1, 1085786, Control_c, 0, 64, 70
1, 1085794, Note_on_c, 0, 61, 45
1, 1085800, Control_c, 0, 64, 74
1, 1085800, Control_c, 0, 67, 125
1, 1085815, Control_c, 0, 64, 77
1, 1085815, Control_c, 0, 67, 117
1, 1085817, Note_off_c, 0, 73, 62
1, 1085830, Control_c, 0, 64, 80
1, 1085830, Control_c, 0, 67, 114
1, 1085845, Control_c, 0, 64, 83
1, 1085845, Control_c, 0, 67, 110
1, 1085860, Control_c, 0, 64, 85
1, 1085860, Control_c, 0, 67, 101
1, 1085869, Note_on_c, 0, 53, 63
1, 1085870, Note_off_c, 0, 61, 63
1, 1085875, Control_c, 0, 64, 86
1, 1085875, Control_c, 0, 67, 87
1, 1085890, Control_c, 0, 64, 87
1, 1085890, Control_c, 0, 67, 73
1, 1085905, Control_c, 0, 64, 87
1, 1085905, Control_c, 0, 67, 61
1, 1085919, Control_c, 0, 64, 88
1, 1085919, Control_c, 0, 67, 47
1, 1085934, Control_c, 0, 67, 34
1, 1085937, Note_off_c, 0, 53, 58
1, 1085956, Control_c, 0, 67, 0
1, 1085967, Note_on_c, 0, 56, 58
1, 1086007, Note_off_c, 0, 56, 60
1, 1086060, Note_on_c, 0, 61, 21
1, 1086089, Control_c, 0, 64, 87
1, 1086104, Control_c, 0, 64, 87
1, 1086105, Note_off_c, 0, 61, 52
1, 1086119, Control_c, 0, 64, 84
1, 1086134, Control_c, 0, 64, 80
1, 1086149, Control_c, 0, 64, 75
1, 1086152, Note_on_c, 0, 47, 69
1, 1086155, Note_on_c, 0, 73, 69
1, 1086164, Note_on_c, 0, 61, 51
1, 1086164, Control_c, 0, 64, 71
1, 1086179, Control_c, 0, 64, 68
1, 1086191, Note_off_c, 0, 61, 59
1, 1086194, Control_c, 0, 64, 65
1, 1086203, Note_off_c, 0, 73, 58
1, 1086209, Control_c, 0, 64, 63
1, 1086223, Control_c, 0, 64, 60
1, 1086238, Control_c, 0, 64, 59
1, 1086242, Note_on_c, 0, 49, 68
1, 1086253, Control_c, 0, 64, 59
1, 1086257, Note_off_c, 0, 47, 60
1, 1086268, Control_c, 0, 64, 57
1, 1086283, Control_c, 0, 64, 56
1, 1086289, Note_on_c, 0, 61, 66
1, 1086293, Note_on_c, 0, 73, 81
1, 1086298, Control_c, 0, 64, 55
1, 1086316, Note_on_c, 0, 56, 66
1, 1086318, Note_off_c, 0, 61, 67
1, 1086334, Note_off_c, 0, 73, 58
1, 1086343, Control_c, 0, 64, 55
1, 1086353, Note_off_c, 0, 49, 62
1, 1086358, Control_c, 0, 64, 53
1, 1086372, Control_c, 0, 64, 51
1, 1086387, Control_c, 0, 64, 50
1, 1086416, Note_on_c, 0, 47, 59
1, 1086417, Control_c, 0, 64, 50
1, 1086424, Note_on_c, 0, 75, 88
1, 1086424, Note_off_c, 0, 56, 63
1, 1086431, Control_c, 0, 64, 49
1, 1086432, Note_on_c, 0, 63, 77
1, 1086446, Control_c, 0, 64, 47
1, 1086456, Note_off_c, 0, 63, 70
1, 1086461, Control_c, 0, 64, 46
1, 1086476, Note_off_c, 0, 75, 60
1, 1086476, Control_c, 0, 64, 46
1, 1086494, Note_on_c, 0, 49, 63
1, 1086498, Note_off_c, 0, 47, 63
1, 1086505, Control_c, 0, 64, 45
1, 1086520, Control_c, 0, 64, 44
1, 1086535, Control_c, 0, 64, 42
1, 1086549, Control_c, 0, 64, 42
1, 1086560, Note_on_c, 0, 77, 87
1, 1086564, Note_on_c, 0, 65, 82
1, 1086581, Note_on_c, 0, 56, 65
1, 1086590, Note_off_c, 0, 49, 56
1, 1086600, Note_off_c, 0, 65, 63
1, 1086609, Control_c, 0, 64, 40
1, 1086614, Note_off_c, 0, 77, 61
1, 1086623, Control_c, 0, 64, 38
1, 1086638, Control_c, 0, 64, 36
1, 1086653, Control_c, 0, 64, 34
1, 1086668, Control_c, 0, 64, 32
1, 1086683, Control_c, 0, 64, 0
1, 1086708, Note_off_c, 0, 56, 55
1, 1086742, Note_on_c, 0, 78, 73
1, 1086744, Note_on_c, 0, 45, 54
1, 1086757, Note_on_c, 0, 66, 59
1, 1086835, Note_off_c, 0, 45, 62
1, 1086838, Control_c, 0, 64, 34
1, 1086847, Note_on_c, 0, 49, 58
1, 1086852, Control_c, 0, 64, 47
1, 1086867, Control_c, 0, 64, 58
1, 1086882, Control_c, 0, 64, 62
1, 1086897, Control_c, 0, 64, 64
1, 1086912, Control_c, 0, 64, 67
1, 1086927, Control_c, 0, 64, 71
1, 1086942, Control_c, 0, 64, 77
1, 1086951, Note_on_c, 0, 54, 56
1, 1086953, Note_off_c, 0, 49, 59
1, 1086956, Control_c, 0, 64, 83
1, 1086972, Control_c, 0, 64, 92
1, 1086978, Note_off_c, 0, 66, 65
1, 1086987, Control_c, 0, 64, 101
1, 1087002, Control_c, 0, 64, 118
1, 1087007, Note_off_c, 0, 78, 60
1, 1087016, Control_c, 0, 64, 127
1, 1087020, Note_on_c, 0, 45, 58
1, 1087041, Note_off_c, 0, 54, 60
1, 1087110, Note_off_c, 0, 45, 62
1, 1087120, Note_on_c, 0, 49, 61
1, 1087167, Note_off_c, 0, 49, 63
1, 1087177, Note_on_c, 0, 54, 65
1, 1087242, Note_off_c, 0, 54, 53
1, 1087283, Control_c, 0, 64, 104
1, 1087291, Note_on_c, 0, 80, 77
1, 1087298, Control_c, 0, 64, 73
1, 1087312, Note_on_c, 0, 68, 57
1, 1087313, Control_c, 0, 64, 57
1, 1087324, Note_on_c, 0, 47, 58
1, 1087327, Control_c, 0, 64, 54
1, 1087342, Control_c, 0, 64, 61
1, 1087357, Control_c, 0, 64, 66
1, 1087371, Control_c, 0, 64, 78
1, 1087384, Note_on_c, 0, 56, 65
1, 1087386, Control_c, 0, 64, 97
1, 1087401, Control_c, 0, 64, 127
1, 1087416, Note_off_c, 0, 47, 59
1, 1087422, Note_off_c, 0, 68, 61
1, 1087458, Note_off_c, 0, 80, 60
1, 1087487, Note_on_c, 0, 59, 64
1, 1087512, Note_off_c, 0, 56, 60
1, 1087571, Note_on_c, 0, 80, 83
1, 1087572, Note_on_c, 0, 47, 60
1, 1087573, Control_c, 0, 64, 79
1, 1087574, Note_off_c, 0, 59, 60
1, 1087583, Note_on_c, 0, 68, 77
1, 1087587, Control_c, 0, 64, 55
1, 1087602, Control_c, 0, 64, 38
1, 1087632, Control_c, 0, 64, 52
1, 1087647, Control_c, 0, 64, 65
1, 1087653, Note_off_c, 0, 47, 62
1, 1087655, Note_on_c, 0, 56, 64
1, 1087661, Control_c, 0, 64, 76
1, 1087676, Control_c, 0, 64, 88
1, 1087691, Control_c, 0, 64, 97
1, 1087706, Control_c, 0, 64, 110
1, 1087717, Note_off_c, 0, 68, 53
1, 1087721, Control_c, 0, 64, 127
1, 1087744, Note_off_c, 0, 56, 62
1, 1087747, Note_on_c, 0, 59, 58
1, 1087750, Note_off_c, 0, 80, 59
1, 1087823, Note_off_c, 0, 59, 51
1, 1087873, Note_on_c, 0, 81, 74
1, 1087882, Note_on_c, 0, 49, 56
1, 1087884, Control_c, 0, 64, 106
1, 1087899, Control_c, 0, 64, 74
1, 1087905, Note_on_c, 0, 69, 56
1, 1087914, Control_c, 0, 64, 57
1, 1087929, Control_c, 0, 64, 42
1, 1087943, Control_c, 0, 64, 40
1, 1087958, Control_c, 0, 64, 47
1, 1087969, Note_off_c, 0, 49, 59
1, 1087971, Note_on_c, 0, 57, 54
1, 1087973, Control_c, 0, 64, 59
1, 1087988, Control_c, 0, 64, 68
1, 1087994, Note_off_c, 0, 69, 62
1, 1088003, Control_c, 0, 64, 78
1, 1088018, Control_c, 0, 64, 89
1, 1088033, Control_c, 0, 64, 97
1, 1088048, Control_c, 0, 64, 105
1, 1088050, Note_off_c, 0, 57, 63
1, 1088063, Control_c, 0, 64, 120
1, 1088063, Note_on_c, 0, 61, 61
1, 1088077, Control_c, 0, 64, 127
1, 1088109, Note_off_c, 0, 61, 58
1, 1088160, Note_on_c, 0, 49, 61
1, 1088166, Control_c, 0, 67, 34
1, 1088170, Note_on_c, 0, 80, 77
1, 1088181, Control_c, 0, 64, 83
1, 1088181, Control_c, 0, 67, 43
1, 1088202, Note_on_c, 0, 68, 63
1, 1088203, Control_c, 0, 64, 63
1, 1088203, Control_c, 0, 67, 46
1, 1088218, Control_c, 0, 64, 49
1, 1088218, Control_c, 0, 67, 46
1, 1088233, Control_c, 0, 64, 46
1, 1088233, Control_c, 0, 67, 47
1, 1088248, Control_c, 0, 64, 50
1, 1088260, Note_on_c, 0, 59, 58
1, 1088262, Control_c, 0, 64, 59
1, 1088265, Note_off_c, 0, 49, 58
1, 1088273, Note_off_c, 0, 68, 57
1, 1088277, Control_c, 0, 64, 65
1, 1088277, Control_c, 0, 67, 46
1, 1088292, Control_c, 0, 64, 72
1, 1088307, Control_c, 0, 64, 80
1, 1088307, Control_c, 0, 67, 46
1, 1088322, Control_c, 0, 64, 85
1, 1088322, Control_c, 0, 67, 45
1, 1088325, Note_off_c, 0, 81, 40
1, 1088337, Note_off_c, 0, 59, 63
1, 1088337, Control_c, 0, 64, 89
1, 1088351, Control_c, 0, 64, 94
1, 1088351, Control_c, 0, 67, 45
1, 1088364, Note_on_c, 0, 62, 56
1, 1088366, Control_c, 0, 64, 102
1, 1088381, Control_c, 0, 64, 118
1, 1088396, Control_c, 0, 64, 127
1, 1088425, Control_c, 0, 67, 44
1, 1088427, Note_off_c, 0, 62, 52
1, 1088455, Control_c, 0, 64, 83
1, 1088459, Note_on_c, 0, 78, 74
1, 1088467, Note_on_c, 0, 49, 67
1, 1088470, Control_c, 0, 64, 64
1, 1088470, Control_c, 0, 67, 45
1, 1088484, Control_c, 0, 64, 45
1, 1088486, Note_on_c, 0, 66, 57
1, 1088497, Note_off_c, 0, 80, 61
1, 1088499, Control_c, 0, 64, 32
1, 1088514, Control_c, 0, 64, 36
1, 1088528, Control_c, 0, 64, 49
1, 1088542, Note_off_c, 0, 49, 62
1, 1088543, Control_c, 0, 64, 59
1, 1088558, Control_c, 0, 64, 66
1, 1088558, Control_c, 0, 67, 44
1, 1088569, Note_on_c, 0, 57, 58
1, 1088574, Control_c, 0, 64, 71
1, 1088574, Control_c, 0, 67, 43
1, 1088589, Control_c, 0, 64, 77
1, 1088589, Control_c, 0, 67, 43
1, 1088604, Control_c, 0, 64, 82
1, 1088604, Control_c, 0, 67, 42
1, 1088618, Control_c, 0, 64, 86
1, 1088618, Control_c, 0, 67, 41
1, 1088633, Control_c, 0, 64, 92
1, 1088633, Control_c, 0, 67, 41
1, 1088648, Control_c, 0, 64, 100
1, 1088649, Note_off_c, 0, 78, 54
1, 1088650, Note_on_c, 0, 61, 59
1, 1088651, Note_off_c, 0, 66, 63
1, 1088659, Note_off_c, 0, 57, 59
1, 1088663, Control_c, 0, 64, 127
1, 1088692, Control_c, 0, 67, 41
1, 1088707, Control_c, 0, 64, 98
1, 1088722, Control_c, 0, 64, 73
1, 1088733, Note_off_c, 0, 61, 60
1, 1088737, Control_c, 0, 64, 57
1, 1088752, Control_c, 0, 64, 50
1, 1088754, Note_on_c, 0, 49, 60
1, 1088760, Note_on_c, 0, 77, 73
1, 1088764, Note_on_c, 0, 65, 67
1, 1088766, Control_c, 0, 64, 56
1, 1088781, Control_c, 0, 64, 62
1, 1088796, Control_c, 0, 64, 68
1, 1088796, Control_c, 0, 67, 42
1, 1088811, Control_c, 0, 64, 77
1, 1088811, Control_c, 0, 67, 42
1, 1088826, Control_c, 0, 64, 86
1, 1088838, Note_off_c, 0, 65, 62
1, 1088841, Control_c, 0, 64, 92
1, 1088844, Note_on_c, 0, 56, 66
1, 1088856, Control_c, 0, 64, 95
1, 1088856, Control_c, 0, 67, 42
1, 1088863, Note_off_c, 0, 49, 58
1, 1088871, Control_c, 0, 64, 98
1, 1088871, Control_c, 0, 67, 41
1, 1088900, Control_c, 0, 64, 100
1, 1088915, Control_c, 0, 67, 41
1, 1088916, Note_off_c, 0, 56, 58
1, 1088933, Note_on_c, 0, 59, 58
1, 1088981, Note_off_c, 0, 59, 59
1, 1088996, Control_c, 0, 64, 98
1, 1089011, Control_c, 0, 64, 89
1, 1089011, Control_c, 0, 67, 41
1, 1089026, Control_c, 0, 64, 70
1, 1089026, Control_c, 0, 67, 42
1, 1089040, Control_c, 0, 64, 51
1, 1089040, Control_c, 0, 67, 42
1, 1089046, Note_on_c, 0, 78, 69
1, 1089055, Control_c, 0, 64, 0
1, 1089056, Note_on_c, 0, 54, 60
1, 1089071, Note_on_c, 0, 66, 67
1, 1089078, Note_off_c, 0, 77, 33
1, 1089100, Control_c, 0, 67, 42
1, 1089115, Control_c, 0, 64, 30
1, 1089115, Control_c, 0, 67, 41
1, 1089130, Control_c, 0, 64, 49
1, 1089143, Note_on_c, 0, 57, 69
1, 1089144, Control_c, 0, 64, 63
1, 1089144, Control_c, 0, 67, 41
1, 1089159, Control_c, 0, 64, 69
1, 1089162, Note_off_c, 0, 78, 61
1, 1089172, Note_off_c, 0, 54, 61
1, 1089174, Control_c, 0, 64, 74
1, 1089189, Control_c, 0, 64, 79
1, 1089189, Control_c, 0, 67, 40
1, 1089204, Control_c, 0, 64, 84
1, 1089204, Control_c, 0, 67, 39
1, 1089205, Note_off_c, 0, 66, 60
1, 1089218, Control_c, 0, 64, 91
1, 1089229, Note_on_c, 0, 61, 69
1, 1089233, Control_c, 0, 64, 102
1, 1089233, Control_c, 0, 67, 39
1, 1089248, Control_c, 0, 64, 127
1, 1089269, Note_off_c, 0, 57, 64
1, 1089278, Control_c, 0, 67, 38
1, 1089282, Note_off_c, 0, 61, 62
1, 1089292, Control_c, 0, 67, 37
1, 1089307, Control_c, 0, 67, 0
1, 1089322, Control_c, 0, 64, 90
1, 1089332, Note_on_c, 0, 66, 77
1, 1089337, Control_c, 0, 64, 75
1, 1089351, Control_c, 0, 64, 66
1, 1089366, Control_c, 0, 64, 58
1, 1089382, Control_c, 0, 64, 49
1, 1089397, Control_c, 0, 64, 42
1, 1089399, Note_off_c, 0, 66, 57
1, 1089412, Control_c, 0, 64, 37
1, 1089424, Note_on_c, 0, 69, 69
1, 1089442, Control_c, 0, 64, 37
1, 1089486, Control_c, 0, 64, 38
1, 1089501, Control_c, 0, 64, 39
1, 1089505, Note_on_c, 0, 73, 65
1, 1089515, Note_off_c, 0, 69, 60
1, 1089515, Control_c, 0, 64, 42
1, 1089530, Control_c, 0, 64, 44
1, 1089545, Control_c, 0, 64, 44
1, 1089560, Control_c, 0, 64, 45
1, 1089574, Control_c, 0, 64, 45
1, 1089592, Note_off_c, 0, 73, 59
1, 1089605, Note_on_c, 0, 66, 69
1, 1089607, Note_on_c, 0, 61, 86
1, 1089619, Control_c, 0, 64, 46
1, 1089634, Control_c, 0, 64, 46
1, 1089649, Control_c, 0, 64, 47
1, 1089649, Note_off_c, 0, 66, 57
1, 1089708, Note_on_c, 0, 69, 69
1, 1089714, Note_off_c, 0, 61, 63
1, 1089716, Control_c, 0, 64, 47
1, 1089760, Control_c, 0, 64, 48
1, 1089774, Control_c, 0, 64, 48
1, 1089798, Note_off_c, 0, 69, 61
1, 1089801, Note_on_c, 0, 73, 62
1, 1089891, Note_off_c, 0, 73, 60
1, 1089898, Note_on_c, 0, 61, 93
1, 1089914, Note_on_c, 0, 66, 68
1, 1089968, Note_off_c, 0, 66, 55
1, 1089970, Note_off_c, 0, 61, 56
1, 1089982, Control_c, 0, 64, 49
1, 1090002, Note_on_c, 0, 69, 67
1, 1090027, Control_c, 0, 64, 49
1, 1090084, Note_off_c, 0, 69, 61
1, 1090102, Note_on_c, 0, 73, 63
1, 1090184, Note_off_c, 0, 73, 61
1, 1090196, Note_on_c, 0, 61, 87
1, 1090203, Note_on_c, 0, 65, 68
1, 1090254, Note_off_c, 0, 65, 57
1, 1090292, Note_on_c, 0, 68, 67
1, 1090382, Note_off_c, 0, 68, 60
1, 1090388, Note_on_c, 0, 73, 66
1, 1090469, Note_off_c, 0, 73, 60
1, 1090486, Note_on_c, 0, 65, 64
1, 1090537, Note_off_c, 0, 65, 58
1, 1090560, Note_off_c, 0, 61, 59
1, 1090570, Note_on_c, 0, 68, 71
1, 1090649, Note_off_c, 0, 68, 61
1, 1090655, Note_on_c, 0, 73, 67
1, 1090671, Control_c, 0, 64, 50
1, 1090743, Note_off_c, 0, 73, 60
1, 1090757, Note_on_c, 0, 61, 78
1, 1090760, Note_on_c, 0, 68, 76
1, 1090784, Note_off_c, 0, 61, 66
1, 1090820, Note_off_c, 0, 68, 61
1, 1090840, Note_on_c, 0, 71, 71
1, 1090911, Note_on_c, 0, 61, 82
1, 1090924, Note_on_c, 0, 73, 72
1, 1090925, Note_off_c, 0, 71, 60
1, 1090933, Note_off_c, 0, 61, 68
1, 1091006, Note_off_c, 0, 73, 60
1, 1091020, Note_on_c, 0, 68, 73
1, 1091054, Note_on_c, 0, 63, 84
1, 1091073, Note_off_c, 0, 63, 71
1, 1091079, Note_off_c, 0, 68, 57
1, 1091114, Note_on_c, 0, 71, 67
1, 1091183, Note_on_c, 0, 65, 84
1, 1091211, Note_off_c, 0, 71, 58
1, 1091215, Note_off_c, 0, 65, 64
1, 1091218, Note_on_c, 0, 73, 67
1, 1091306, Note_off_c, 0, 73, 61
1, 1091343, Note_on_c, 0, 69, 79
1, 1091346, Note_on_c, 0, 66, 95
1, 1091408, Note_off_c, 0, 69, 60
1, 1091424, Note_on_c, 0, 73, 74
1, 1091494, Note_off_c, 0, 66, 59
1, 1091509, Control_c, 0, 64, 50
1, 1091518, Note_on_c, 0, 69, 73
1, 1091571, Note_off_c, 0, 73, 60
1, 1091582, Note_off_c, 0, 69, 62
1, 1091630, Note_on_c, 0, 66, 51
1, 1091639, Note_on_c, 0, 67, 68
1, 1091664, Note_off_c, 0, 67, 66
1, 1091674, Note_off_c, 0, 66, 66
1, 1091711, Note_on_c, 0, 69, 76
1, 1091771, Note_off_c, 0, 69, 53
1, 1091808, Note_on_c, 0, 73, 67
1, 1091866, Note_off_c, 0, 73, 62
1, 1091893, Note_on_c, 0, 54, 75
1, 1091902, Poly_aftertouch_c, 0, 73, 0
1, 1091909, Note_on_c, 0, 73, 71
1, 1091910, Control_c, 0, 64, 50
1, 1091917, Note_off_c, 0, 54, 67
1, 1091995, Note_on_c, 0, 76, 74
1, 1091995, Note_off_c, 0, 73, 63
1, 1092061, Note_on_c, 0, 54, 87
1, 1092075, Note_on_c, 0, 78, 68
1, 1092076, Note_off_c, 0, 76, 63
1, 1092094, Note_off_c, 0, 54, 62
1, 1092165, Note_off_c, 0, 78, 56
1, 1092171, Note_on_c, 0, 73, 76
1, 1092187, Note_on_c, 0, 56, 92
1, 1092209, Note_off_c, 0, 56, 70
1, 1092223, Note_off_c, 0, 73, 61
1, 1092258, Control_c, 0, 64, 50
1, 1092262, Note_on_c, 0, 76, 78
1, 1092317, Control_c, 0, 64, 51
1, 1092325, Note_on_c, 0, 58, 87
1, 1092348, Note_off_c, 0, 58, 71
1, 1092355, Note_off_c, 0, 76, 57
1, 1092361, Note_on_c, 0, 78, 80
1, 1092376, Control_c, 0, 64, 51
1, 1092421, Control_c, 0, 64, 52
1, 1092458, Note_off_c, 0, 78, 60
1, 1092481, Note_on_c, 0, 71, 84
1, 1092488, Note_on_c, 0, 59, 94
1, 1092552, Note_off_c, 0, 71, 55
1, 1092573, Note_on_c, 0, 74, 83
1, 1092665, Note_off_c, 0, 74, 56
1, 1092671, Note_on_c, 0, 78, 81
1, 1092674, Control_c, 0, 64, 51
1, 1092711, Control_c, 0, 64, 51
1, 1092740, Control_c, 0, 64, 50
1, 1092758, Note_off_c, 0, 78, 58
1, 1092772, Note_on_c, 0, 71, 76
1, 1092841, Note_off_c, 0, 59, 55
1, 1092852, Note_off_c, 0, 71, 55
1, 1092858, Note_on_c, 0, 74, 83
1, 1092874, Control_c, 0, 64, 50
1, 1092940, Note_off_c, 0, 74, 63
1, 1092942, Note_on_c, 0, 78, 75
1, 1092979, Note_off_c, 0, 78, 61
1, 1092992, Control_c, 0, 64, 50
1, 1093038, Note_on_c, 0, 47, 74
1, 1093059, Note_on_c, 0, 78, 70
1, 1093083, Note_off_c, 0, 47, 61
1, 1093122, Note_off_c, 0, 78, 56
1, 1093125, Note_on_c, 0, 83, 73
1, 1093189, Note_on_c, 0, 47, 78
1, 1093216, Note_on_c, 0, 86, 79
1, 1093218, Note_off_c, 0, 83, 64
1, 1093245, Note_off_c, 0, 47, 63
1, 1093259, Control_c, 0, 64, 51
1, 1093291, Note_off_c, 0, 86, 64
1, 1093303, Note_on_c, 0, 78, 77
1, 1093315, Note_on_c, 0, 49, 76
1, 1093346, Note_off_c, 0, 49, 68
1, 1093394, Note_on_c, 0, 83, 73
1, 1093399, Note_off_c, 0, 78, 58
1, 1093446, Note_on_c, 0, 50, 74
1, 1093475, Note_off_c, 0, 50, 65
1, 1093497, Note_on_c, 0, 86, 71
1, 1093528, Note_off_c, 0, 83, 52
1, 1093584, Note_off_c, 0, 86, 62
1, 1093601, Note_on_c, 0, 76, 72
1, 1093616, Note_on_c, 0, 49, 59
1, 1093688, Note_off_c, 0, 76, 59
1, 1093695, Note_on_c, 0, 81, 69
1, 1093726, Control_c, 0, 67, 40
1, 1093741, Control_c, 0, 67, 56
1, 1093756, Control_c, 0, 67, 73
1, 1093771, Control_c, 0, 67, 91
1, 1093786, Control_c, 0, 67, 112
1, 1093790, Note_on_c, 0, 88, 70
1, 1093793, Note_off_c, 0, 81, 60
1, 1093801, Control_c, 0, 67, 127
1, 1093875, Note_off_c, 0, 88, 62
1, 1093909, Note_on_c, 0, 78, 63
1, 1093914, Note_on_c, 0, 50, 56
1, 1093925, Note_off_c, 0, 49, 54
1, 1093990, Note_off_c, 0, 78, 54
1, 1094005, Note_on_c, 0, 81, 61
1, 1094037, Control_c, 0, 64, 50
1, 1094088, Note_off_c, 0, 81, 63
1, 1094105, Note_on_c, 0, 86, 60
1, 1094171, Control_c, 0, 64, 50
1, 1094204, Note_off_c, 0, 50, 54
1, 1094207, Note_on_c, 0, 76, 57
1, 1094207, Note_off_c, 0, 86, 61
1, 1094232, Note_on_c, 0, 52, 37
1, 1094253, Control_c, 0, 64, 49
1, 1094268, Note_off_c, 0, 76, 53
1, 1094296, Note_off_c, 0, 52, 51
1, 1094311, Note_on_c, 0, 81, 50
1, 1094328, Control_c, 0, 64, 49
1, 1094391, Note_off_c, 0, 81, 62
1, 1094412, Note_on_c, 0, 85, 51
1, 1094432, Control_c, 0, 64, 48
1, 1094465, Note_off_c, 0, 85, 59
1, 1094512, Note_on_c, 0, 76, 49
1, 1094516, Note_on_c, 0, 52, 46
1, 1094535, Control_c, 0, 64, 48
1, 1094565, Note_off_c, 0, 76, 55
1, 1094579, Note_off_c, 0, 52, 52
1, 1094612, Note_on_c, 0, 80, 49
1, 1094624, Control_c, 0, 64, 47
1, 1094670, Note_off_c, 0, 80, 56
1, 1094695, Note_on_c, 0, 83, 53
1, 1094743, Control_c, 0, 64, 48
1, 1094757, Control_c, 0, 64, 48
1, 1094772, Control_c, 0, 64, 49
1, 1094787, Control_c, 0, 64, 50
1, 1094802, Control_c, 0, 64, 52
1, 1094803, Note_off_c, 0, 83, 54
1, 1094817, Control_c, 0, 64, 55
1, 1094831, Control_c, 0, 64, 56
1, 1094846, Control_c, 0, 64, 58
1, 1094861, Control_c, 0, 64, 60
1, 1094867, Note_on_c, 0, 81, 47
1, 1094876, Control_c, 0, 64, 62
1, 1094888, Note_on_c, 0, 45, 28
1, 1094890, Control_c, 0, 64, 63
1, 1094905, Control_c, 0, 64, 65
1, 1094920, Control_c, 0, 64, 68
1, 1094941, Note_off_c, 0, 81, 54
1, 1094943, Control_c, 0, 64, 71
1, 1094958, Control_c, 0, 64, 74
1, 1094973, Control_c, 0, 64, 76
1, 1094988, Control_c, 0, 64, 79
1, 1094992, Note_on_c, 0, 85, 54
1, 1095002, Control_c, 0, 64, 82
1, 1095017, Control_c, 0, 64, 86
1, 1095032, Control_c, 0, 64, 90
1, 1095043, Note_off_c, 0, 85, 52
1, 1095047, Control_c, 0, 64, 95
1, 1095062, Control_c, 0, 64, 99
1, 1095074, Note_on_c, 0, 81, 53
1, 1095076, Control_c, 0, 64, 104
1, 1095091, Control_c, 0, 64, 110
1, 1095106, Control_c, 0, 64, 117
1, 1095110, Note_off_c, 0, 81, 63
1, 1095121, Control_c, 0, 64, 127
1, 1095139, Note_off_c, 0, 45, 52
1, 1095175, Note_on_c, 0, 76, 51
1, 1095198, Note_off_c, 0, 76, 60
1, 1095271, Note_on_c, 0, 73, 51
1, 1095336, Note_off_c, 0, 73, 56
1, 1095393, Note_on_c, 0, 69, 40
1, 1095452, Note_off_c, 0, 69, 55
1, 1095499, Note_on_c, 0, 57, 36
1, 1095500, Note_on_c, 0, 64, 36
1, 1095508, Note_on_c, 0, 61, 33
1, 1095509, Note_on_c, 0, 76, 45
1, 1095579, Note_off_c, 0, 76, 62
1, 1095599, Note_off_c, 0, 61, 57
1, 1095605, Note_off_c, 0, 64, 52
1, 1095609, Note_on_c, 0, 73, 48
1, 1095619, Note_off_c, 0, 57, 53
1, 1095658, Note_off_c, 0, 73, 55
1, 1095710, Note_on_c, 0, 69, 51
1, 1095752, Note_off_c, 0, 69, 58
1, 1095780, Note_on_c, 0, 57, 40
1, 1095786, Note_on_c, 0, 64, 37
1, 1095791, Note_on_c, 0, 61, 37
1, 1095811, Note_on_c, 0, 76, 58
1, 1095839, Note_off_c, 0, 61, 59
1, 1095845, Note_off_c, 0, 64, 55
1, 1095858, Note_off_c, 0, 57, 51
1, 1095867, Note_off_c, 0, 76, 59
1, 1095887, Note_on_c, 0, 73, 57
1, 1095954, Note_off_c, 0, 73, 60
1, 1095973, Control_c, 0, 64, 123
1, 1095988, Control_c, 0, 64, 121
1, 1096003, Note_on_c, 0, 69, 40
1, 1096017, Control_c, 0, 64, 118
1, 1096047, Control_c, 0, 64, 114
1, 1096062, Control_c, 0, 64, 112
1, 1096091, Control_c, 0, 64, 108
1, 1096106, Control_c, 0, 64, 106
1, 1096121, Control_c, 0, 64, 104
1, 1096135, Control_c, 0, 64, 101
1, 1096143, Note_on_c, 0, 62, 45
1, 1096150, Note_on_c, 0, 57, 40
1, 1096150, Note_on_c, 0, 64, 34
1, 1096150, Control_c, 0, 64, 98
1, 1096159, Note_off_c, 0, 69, 39
1, 1096165, Control_c, 0, 64, 96
1, 1096171, Note_on_c, 0, 68, 37
1, 1096180, Control_c, 0, 64, 94
1, 1096195, Control_c, 0, 64, 91
1, 1096210, Control_c, 0, 64, 88
1, 1096224, Control_c, 0, 64, 85
1, 1096226, Note_off_c, 0, 68, 55
1, 1096239, Control_c, 0, 64, 80
1, 1096254, Control_c, 0, 64, 73
1, 1096269, Control_c, 0, 64, 64
1, 1096273, Note_on_c, 0, 71, 47
1, 1096284, Control_c, 0, 64, 52
1, 1096299, Control_c, 0, 64, 40
1, 1096314, Control_c, 0, 64, 30
1, 1096336, Note_off_c, 0, 71, 57
1, 1096343, Control_c, 0, 64, 34
1, 1096358, Control_c, 0, 64, 42
1, 1096367, Note_on_c, 0, 76, 51
1, 1096373, Control_c, 0, 64, 50
1, 1096388, Control_c, 0, 64, 57
1, 1096402, Control_c, 0, 64, 62
1, 1096407, Note_off_c, 0, 76, 62
1, 1096417, Control_c, 0, 64, 65
1, 1096439, Control_c, 0, 64, 67
1, 1096454, Control_c, 0, 64, 69
1, 1096463, Note_on_c, 0, 68, 50
1, 1096469, Control_c, 0, 64, 71
1, 1096484, Control_c, 0, 64, 73
1, 1096499, Control_c, 0, 64, 75
1, 1096514, Control_c, 0, 64, 76
1, 1096528, Control_c, 0, 64, 77
1, 1096539, Note_off_c, 0, 68, 57
1, 1096543, Control_c, 0, 64, 78
1, 1096550, Note_on_c, 0, 71, 54
1, 1096558, Control_c, 0, 64, 79
1, 1096570, Note_off_c, 0, 62, 55
1, 1096573, Control_c, 0, 64, 80
1, 1096577, Note_off_c, 0, 64, 39
1, 1096588, Control_c, 0, 64, 81
1, 1096594, Note_off_c, 0, 71, 62
1, 1096602, Note_off_c, 0, 57, 41
1, 1096603, Control_c, 0, 64, 82
1, 1096618, Control_c, 0, 64, 82
1, 1096623, Note_on_c, 0, 76, 58
1, 1096633, Control_c, 0, 64, 83
1, 1096648, Control_c, 0, 64, 84
1, 1096654, Note_off_c, 0, 76, 66
1, 1096663, Control_c, 0, 64, 84
1, 1096678, Control_c, 0, 64, 85
1, 1096692, Control_c, 0, 64, 85
1, 1096707, Control_c, 0, 64, 86
1, 1096722, Control_c, 0, 64, 86
1, 1096725, Note_on_c, 0, 76, 63
1, 1096732, Note_on_c, 0, 57, 43
1, 1096747, Note_on_c, 0, 62, 32
1, 1096752, Control_c, 0, 64, 87
1, 1096753, Note_on_c, 0, 64, 39
1, 1096782, Note_off_c, 0, 76, 44
1, 1096816, Note_on_c, 0, 80, 65
1, 1096838, Note_off_c, 0, 62, 52
1, 1096850, Note_off_c, 0, 64, 51
1, 1096857, Note_off_c, 0, 57, 54
1, 1096877, Note_off_c, 0, 80, 63
1, 1096892, Note_on_c, 0, 83, 72
1, 1096936, Note_off_c, 0, 83, 62
1, 1096998, Note_on_c, 0, 88, 74
1, 1097018, Note_on_c, 0, 57, 45
1, 1097019, Note_on_c, 0, 64, 40
1, 1097041, Note_on_c, 0, 62, 26
1, 1097079, Note_off_c, 0, 62, 50
1, 1097081, Note_off_c, 0, 64, 53
1, 1097089, Note_off_c, 0, 57, 53
1, 1097091, Note_on_c, 0, 92, 72
1, 1097121, Note_off_c, 0, 88, 43
1, 1097176, Note_on_c, 0, 95, 73
1, 1097188, Note_off_c, 0, 92, 62
1, 1097247, Control_c, 0, 64, 86
1, 1097262, Control_c, 0, 64, 85
1, 1097277, Control_c, 0, 64, 85
1, 1097291, Control_c, 0, 64, 84
1, 1097298, Note_off_c, 0, 95, 64
1, 1097306, Control_c, 0, 64, 81
1, 1097310, Note_on_c, 0, 93, 66
1, 1097312, Note_on_c, 0, 64, 31
1, 1097321, Control_c, 0, 64, 78
1, 1097324, Note_on_c, 0, 57, 30
1, 1097336, Control_c, 0, 64, 74
1, 1097340, Note_on_c, 0, 61, 32
1, 1097351, Control_c, 0, 64, 69
1, 1097366, Note_off_c, 0, 93, 62
1, 1097366, Control_c, 0, 64, 62
1, 1097381, Control_c, 0, 64, 50
1, 1097396, Control_c, 0, 64, 39
1, 1097411, Control_c, 0, 64, 32
1, 1097418, Note_on_c, 0, 88, 55
1, 1097426, Control_c, 0, 64, 33
1, 1097441, Control_c, 0, 64, 38
1, 1097447, Note_off_c, 0, 88, 68
1, 1097455, Control_c, 0, 64, 44
1, 1097470, Control_c, 0, 64, 50
1, 1097485, Control_c, 0, 64, 57
1, 1097500, Control_c, 0, 64, 61
1, 1097514, Note_on_c, 0, 85, 61
1, 1097514, Control_c, 0, 64, 65
1, 1097529, Control_c, 0, 64, 67
1, 1097544, Control_c, 0, 64, 69
1, 1097559, Control_c, 0, 64, 70
1, 1097574, Control_c, 0, 64, 72
1, 1097578, Note_off_c, 0, 85, 61
1, 1097588, Control_c, 0, 64, 73
1, 1097603, Control_c, 0, 64, 74
1, 1097604, Note_on_c, 0, 81, 61
1, 1097618, Control_c, 0, 64, 75
1, 1097633, Control_c, 0, 64, 76
1, 1097635, Note_off_c, 0, 81, 65
1, 1097662, Control_c, 0, 64, 76
1, 1097677, Control_c, 0, 64, 77
1, 1097687, Note_off_c, 0, 57, 55
1, 1097697, Note_on_c, 0, 76, 56
1, 1097704, Note_off_c, 0, 61, 42
1, 1097706, Note_off_c, 0, 64, 46
1, 1097721, Control_c, 0, 64, 77
1, 1097731, Note_off_c, 0, 76, 60
1, 1097791, Note_on_c, 0, 73, 48
1, 1097830, Note_off_c, 0, 73, 56
1, 1097878, Note_on_c, 0, 76, 63
1, 1097896, Note_on_c, 0, 57, 47
1, 1097897, Note_on_c, 0, 64, 47
1, 1097900, Note_on_c, 0, 61, 42
1, 1097955, Note_off_c, 0, 76, 62
1, 1097979, Note_on_c, 0, 73, 53
1, 1098020, Note_off_c, 0, 64, 54
1, 1098032, Note_off_c, 0, 57, 59
1, 1098036, Note_off_c, 0, 73, 62
1, 1098040, Note_off_c, 0, 61, 59
1, 1098070, Note_on_c, 0, 69, 63
1, 1098109, Note_off_c, 0, 69, 59
1, 1098167, Note_on_c, 0, 76, 70
1, 1098182, Note_on_c, 0, 61, 47
1, 1098188, Note_on_c, 0, 64, 48
1, 1098197, Note_on_c, 0, 57, 42
1, 1098231, Note_off_c, 0, 61, 58
1, 1098233, Note_off_c, 0, 76, 62
1, 1098248, Note_on_c, 0, 73, 64
1, 1098254, Note_off_c, 0, 64, 52
1, 1098266, Note_off_c, 0, 57, 53
1, 1098320, Note_off_c, 0, 73, 59
1, 1098347, Note_on_c, 0, 69, 60
1, 1098456, Control_c, 0, 64, 77
1, 1098466, Note_on_c, 0, 68, 58
1, 1098466, Note_off_c, 0, 69, 50
1, 1098471, Note_on_c, 0, 62, 62
1, 1098471, Control_c, 0, 64, 76
1, 1098485, Control_c, 0, 64, 75
1, 1098490, Note_on_c, 0, 64, 48
1, 1098500, Control_c, 0, 64, 73
1, 1098506, Note_on_c, 0, 57, 41
1, 1098515, Control_c, 0, 64, 71
1, 1098529, Control_c, 0, 64, 66
1, 1098544, Note_off_c, 0, 68, 60
1, 1098544, Control_c, 0, 64, 59
1, 1098559, Control_c, 0, 64, 46
1, 1098569, Note_on_c, 0, 71, 59
1, 1098574, Control_c, 0, 64, 0
1, 1098633, Control_c, 0, 64, 30
1, 1098643, Note_off_c, 0, 71, 60
1, 1098648, Control_c, 0, 64, 41
1, 1098656, Note_on_c, 0, 76, 62
1, 1098663, Control_c, 0, 64, 53
1, 1098685, Control_c, 0, 64, 60
1, 1098700, Control_c, 0, 64, 64
1, 1098715, Control_c, 0, 64, 65
1, 1098728, Note_off_c, 0, 76, 62
1, 1098730, Control_c, 0, 64, 67
1, 1098744, Control_c, 0, 64, 68
1, 1098759, Control_c, 0, 64, 70
1, 1098761, Note_on_c, 0, 68, 63
1, 1098774, Control_c, 0, 64, 72
1, 1098789, Control_c, 0, 64, 73
1, 1098804, Control_c, 0, 64, 75
1, 1098818, Control_c, 0, 64, 76
1, 1098833, Control_c, 0, 64, 77
1, 1098848, Control_c, 0, 64, 77
1, 1098851, Note_on_c, 0, 71, 67
1, 1098852, Note_off_c, 0, 68, 62
1, 1098863, Control_c, 0, 64, 78
1, 1098874, Note_off_c, 0, 62, 55
1, 1098877, Control_c, 0, 64, 79
1, 1098880, Note_off_c, 0, 64, 57
1, 1098886, Note_off_c, 0, 57, 52
1, 1098907, Control_c, 0, 64, 79
1, 1098913, Note_off_c, 0, 71, 62
1, 1098934, Note_on_c, 0, 76, 63
1, 1098937, Control_c, 0, 64, 80
1, 1098952, Control_c, 0, 64, 80
1, 1098963, Note_off_c, 0, 76, 67
1, 1098997, Control_c, 0, 64, 81
1, 1099032, Note_on_c, 0, 64, 47
1, 1099033, Note_on_c, 0, 76, 69
1, 1099040, Note_on_c, 0, 57, 49
1, 1099042, Note_on_c, 0, 62, 41
1, 1099086, Control_c, 0, 64, 81
1, 1099100, Note_off_c, 0, 76, 52
1, 1099113, Note_on_c, 0, 80, 71
1, 1099160, Note_off_c, 0, 62, 49
1, 1099175, Note_off_c, 0, 64, 53
1, 1099185, Note_off_c, 0, 80, 63
1, 1099187, Note_off_c, 0, 57, 56
1, 1099195, Note_on_c, 0, 83, 74
1, 1099220, Control_c, 0, 67, 119
1, 1099234, Control_c, 0, 67, 76
1, 1099238, Note_off_c, 0, 83, 62
1, 1099249, Control_c, 0, 67, 0
1, 1099279, Control_c, 0, 64, 82
1, 1099296, Note_on_c, 0, 88, 80
1, 1099307, Note_on_c, 0, 64, 57
1, 1099308, Control_c, 0, 64, 82
1, 1099316, Note_on_c, 0, 62, 43
1, 1099323, Note_on_c, 0, 57, 51
1, 1099338, Control_c, 0, 64, 83
1, 1099360, Note_off_c, 0, 62, 57
1, 1099367, Control_c, 0, 64, 83
1, 1099373, Note_off_c, 0, 64, 55
1, 1099375, Note_off_c, 0, 57, 54
1, 1099382, Control_c, 0, 64, 84
1, 1099389, Note_on_c, 0, 92, 77
1, 1099444, Note_off_c, 0, 88, 57
1, 1099483, Note_on_c, 0, 95, 76
1, 1099494, Note_off_c, 0, 92, 63
1, 1099567, Control_c, 0, 64, 83
1, 1099597, Control_c, 0, 64, 83
1, 1099598, Note_off_c, 0, 95, 65
1, 1099602, Note_on_c, 0, 93, 73
1, 1099606, Note_on_c, 0, 64, 44
1, 1099612, Control_c, 0, 64, 81
1, 1099620, Note_on_c, 0, 57, 39
1, 1099623, Note_on_c, 0, 61, 38
1, 1099627, Control_c, 0, 64, 75
1, 1099641, Control_c, 0, 64, 67
1, 1099656, Control_c, 0, 64, 56
1, 1099659, Note_off_c, 0, 93, 63
1, 1099671, Control_c, 0, 64, 43
1, 1099685, Control_c, 0, 64, 34
1, 1099700, Control_c, 0, 64, 35
1, 1099706, Note_on_c, 0, 88, 66
1, 1099715, Control_c, 0, 64, 41
1, 1099730, Control_c, 0, 64, 52
1, 1099736, Note_off_c, 0, 88, 65
1, 1099745, Control_c, 0, 64, 60
1, 1099761, Control_c, 0, 64, 65
1, 1099775, Control_c, 0, 64, 70
1, 1099790, Control_c, 0, 64, 75
1, 1099801, Note_on_c, 0, 85, 74
1, 1099805, Control_c, 0, 64, 79
1, 1099820, Control_c, 0, 64, 82
1, 1099835, Control_c, 0, 64, 87
1, 1099849, Control_c, 0, 64, 91
1, 1099864, Control_c, 0, 64, 95
1, 1099879, Note_off_c, 0, 85, 63
1, 1099879, Control_c, 0, 64, 98
1, 1099886, Note_on_c, 0, 81, 73
1, 1099894, Control_c, 0, 64, 100
1, 1099924, Control_c, 0, 64, 103
1, 1099939, Note_off_c, 0, 81, 64
1, 1099949, Note_off_c, 0, 64, 62
1, 1099955, Note_off_c, 0, 61, 61
1, 1099968, Control_c, 0, 64, 105
1, 1099980, Note_on_c, 0, 76, 67
1, 1099985, Note_off_c, 0, 57, 41
1, 1100055, Note_off_c, 0, 76, 59
1, 1100064, Note_on_c, 0, 73, 68
1, 1100121, Note_off_c, 0, 73, 62
1, 1100131, Control_c, 0, 64, 92
1, 1100146, Control_c, 0, 64, 73
1, 1100161, Control_c, 0, 64, 56
1, 1100162, Note_on_c, 0, 76, 79
1, 1100176, Note_on_c, 0, 64, 60
1, 1100181, Note_on_c, 0, 57, 56
1, 1100182, Note_on_c, 0, 62, 58
1, 1100183, Control_c, 0, 64, 35
1, 1100198, Control_c, 0, 64, 30
1, 1100213, Control_c, 0, 64, 39
1, 1100228, Control_c, 0, 64, 54
1, 1100243, Control_c, 0, 64, 66
1, 1100257, Control_c, 0, 64, 76
1, 1100261, Note_on_c, 0, 80, 76
1, 1100263, Note_off_c, 0, 76, 59
1, 1100272, Control_c, 0, 64, 85
1, 1100287, Control_c, 0, 64, 92
1, 1100301, Control_c, 0, 64, 99
1, 1100307, Note_off_c, 0, 62, 55
1, 1100315, Note_off_c, 0, 64, 59
1, 1100316, Control_c, 0, 64, 106
1, 1100323, Note_off_c, 0, 57, 57
1, 1100331, Control_c, 0, 64, 117
1, 1100346, Control_c, 0, 64, 127
1, 1100350, Note_on_c, 0, 83, 79
1, 1100356, Note_off_c, 0, 80, 63
1, 1100390, Note_off_c, 0, 83, 66
1, 1100439, Note_on_c, 0, 88, 93
1, 1100445, Note_on_c, 0, 62, 65
1, 1100445, Note_on_c, 0, 64, 69
1, 1100450, Note_on_c, 0, 57, 63
1, 1100513, Note_off_c, 0, 62, 62
1, 1100526, Note_off_c, 0, 64, 54
1, 1100532, Note_on_c, 0, 92, 88
1, 1100557, Note_off_c, 0, 57, 54
1, 1100576, Note_off_c, 0, 88, 62
1, 1100616, Note_on_c, 0, 95, 87
1, 1100630, Note_off_c, 0, 92, 66
1, 1100720, Note_on_c, 0, 93, 88
1, 1100720, Note_on_c, 0, 64, 80
1, 1100721, Note_on_c, 0, 61, 76
1, 1100723, Note_off_c, 0, 95, 66
1, 1100724, Note_on_c, 0, 57, 70
1, 1100732, Control_c, 0, 64, 109
1, 1100746, Control_c, 0, 64, 74
1, 1100761, Control_c, 0, 64, 54
1, 1100776, Control_c, 0, 64, 0
1, 1100785, Note_off_c, 0, 93, 64
1, 1100819, Note_on_c, 0, 88, 78
1, 1100836, Control_c, 0, 64, 35
1, 1100851, Control_c, 0, 64, 52
1, 1100858, Note_off_c, 0, 88, 69
1, 1100866, Control_c, 0, 64, 63
1, 1100880, Control_c, 0, 64, 69
1, 1100895, Control_c, 0, 64, 74
1, 1100910, Control_c, 0, 64, 79
1, 1100913, Note_on_c, 0, 85, 79
1, 1100931, Control_c, 0, 64, 84
1, 1100946, Control_c, 0, 64, 91
1, 1100961, Control_c, 0, 64, 97
1, 1100976, Control_c, 0, 64, 103
1, 1100991, Control_c, 0, 64, 108
1, 1101006, Control_c, 0, 64, 115
1, 1101010, Note_on_c, 0, 81, 80
1, 1101012, Note_off_c, 0, 85, 60
1, 1101021, Control_c, 0, 64, 127
1, 1101056, Note_off_c, 0, 61, 62
1, 1101062, Note_off_c, 0, 81, 65
1, 1101062, Note_off_c, 0, 64, 64
1, 1101066, Note_off_c, 0, 57, 61
1, 1101101, Note_on_c, 0, 76, 72
1, 1101192, Note_off_c, 0, 76, 53
1, 1101202, Note_on_c, 0, 73, 69
1, 1101253, Note_off_c, 0, 73, 62
1, 1101258, Control_c, 0, 64, 76
1, 1101273, Control_c, 0, 64, 54
1, 1101274, Note_on_c, 0, 64, 81
1, 1101279, Note_on_c, 0, 57, 71
1, 1101280, Note_on_c, 0, 62, 70
1, 1101288, Control_c, 0, 64, 0
1, 1101292, Note_on_c, 0, 76, 85
1, 1101332, Control_c, 0, 64, 38
1, 1101348, Control_c, 0, 64, 58
1, 1101363, Control_c, 0, 64, 69
1, 1101378, Control_c, 0, 64, 77
1, 1101393, Control_c, 0, 64, 86
1, 1101393, Note_on_c, 0, 79, 61
1, 1101395, Note_off_c, 0, 76, 58
1, 1101402, Note_off_c, 0, 64, 59
1, 1101404, Note_off_c, 0, 62, 56
1, 1101408, Control_c, 0, 64, 93
1, 1101418, Note_off_c, 0, 57, 60
1, 1101423, Control_c, 0, 64, 106
1, 1101437, Control_c, 0, 64, 127
1, 1101450, Note_off_c, 0, 79, 63
1, 1101475, Note_on_c, 0, 83, 69
1, 1101520, Note_off_c, 0, 83, 64
1, 1101551, Note_on_c, 0, 64, 70
1, 1101553, Note_on_c, 0, 62, 60
1, 1101556, Note_on_c, 0, 57, 60
1, 1101566, Note_on_c, 0, 88, 89
1, 1101650, Note_off_c, 0, 64, 60
1, 1101652, Note_off_c, 0, 62, 59
1, 1101656, Note_on_c, 0, 92, 82
1, 1101685, Note_off_c, 0, 57, 58
1, 1101716, Note_off_c, 0, 88, 59
1, 1101748, Note_off_c, 0, 92, 66
1, 1101749, Note_on_c, 0, 95, 74
1, 1101777, Note_off_c, 0, 95, 68
1, 1101858, Control_c, 0, 64, 112
1, 1101863, Note_on_c, 0, 93, 84
1, 1101871, Note_on_c, 0, 64, 58
1, 1101873, Control_c, 0, 64, 92
1, 1101876, Note_on_c, 0, 57, 53
1, 1101882, Note_on_c, 0, 61, 50
1, 1101888, Control_c, 0, 64, 77
1, 1101903, Control_c, 0, 64, 63
1, 1101918, Control_c, 0, 64, 44
1, 1101933, Control_c, 0, 64, 0
1, 1101953, Note_on_c, 0, 88, 79
1, 1101966, Note_off_c, 0, 93, 63
1, 1102021, Control_c, 0, 64, 44
1, 1102036, Control_c, 0, 64, 59
1, 1102041, Note_on_c, 0, 85, 79
1, 1102046, Note_off_c, 0, 88, 67
1, 1102051, Control_c, 0, 64, 65
1, 1102066, Control_c, 0, 64, 68
1, 1102080, Control_c, 0, 64, 70
1, 1102095, Control_c, 0, 64, 73
1, 1102095, Control_c, 0, 67, 46
1, 1102107, Note_off_c, 0, 85, 65
1, 1102110, Control_c, 0, 64, 76
1, 1102110, Control_c, 0, 67, 60
1, 1102121, Note_off_c, 0, 57, 59
1, 1102124, Note_off_c, 0, 64, 60
1, 1102125, Control_c, 0, 64, 78
1, 1102125, Control_c, 0, 67, 67
1, 1102134, Note_on_c, 0, 81, 69
1, 1102140, Control_c, 0, 64, 80
1, 1102140, Control_c, 0, 67, 74
1, 1102156, Control_c, 0, 64, 81
1, 1102156, Control_c, 0, 67, 82
1, 1102162, Note_off_c, 0, 81, 66
1, 1102165, Note_off_c, 0, 61, 56
1, 1102170, Control_c, 0, 64, 82
1, 1102170, Control_c, 0, 67, 87
1, 1102185, Control_c, 0, 67, 91
1, 1102200, Control_c, 0, 67, 95
1, 1102215, Control_c, 0, 64, 82
1, 1102215, Control_c, 0, 67, 99
1, 1102230, Control_c, 0, 67, 103
1, 1102234, Note_on_c, 0, 76, 72
1, 1102244, Control_c, 0, 67, 106
1, 1102289, Control_c, 0, 64, 82
1, 1102289, Control_c, 0, 67, 108
1, 1102292, Note_off_c, 0, 76, 60
1, 1102318, Control_c, 0, 64, 81
1, 1102323, Note_on_c, 0, 73, 63
1, 1102333, Control_c, 0, 64, 80
1, 1102348, Control_c, 0, 64, 78
1, 1102353, Note_off_c, 0, 73, 66
1, 1102363, Control_c, 0, 64, 75
1, 1102377, Control_c, 0, 64, 72
1, 1102392, Control_c, 0, 64, 68
1, 1102392, Control_c, 0, 67, 110
1, 1102407, Control_c, 0, 64, 64
1, 1102430, Control_c, 0, 64, 60
1, 1102445, Control_c, 0, 64, 55
1, 1102459, Control_c, 0, 64, 49
1, 1102459, Control_c, 0, 67, 112
1, 1102474, Control_c, 0, 64, 37
1, 1102489, Control_c, 0, 64, 0
1, 1102503, Control_c, 0, 67, 115
1, 1102509, Note_on_c, 0, 76, 59
1, 1102518, Control_c, 0, 67, 127
1, 1102544, Note_on_c, 0, 61, 28
1, 1102577, Control_c, 0, 64, 29
1, 1102592, Control_c, 0, 64, 43
1, 1102607, Note_off_c, 0, 61, 54
1, 1102607, Control_c, 0, 64, 56
1, 1102622, Control_c, 0, 64, 62
1, 1102636, Note_on_c, 0, 64, 48
1, 1102636, Control_c, 0, 64, 64
1, 1102651, Control_c, 0, 64, 66
1, 1102655, Note_off_c, 0, 76, 63
1, 1102666, Control_c, 0, 64, 68
1, 1102681, Control_c, 0, 64, 72
1, 1102696, Control_c, 0, 64, 75
1, 1102711, Control_c, 0, 64, 77
1, 1102712, Note_off_c, 0, 64, 55
1, 1102726, Control_c, 0, 64, 77
1, 1102741, Control_c, 0, 64, 78
1, 1102756, Control_c, 0, 64, 79
1, 1102760, Note_on_c, 0, 69, 30
1, 1102770, Control_c, 0, 64, 80
1, 1102798, Note_on_c, 0, 76, 82
1, 1102804, Note_off_c, 0, 69, 49
1, 1102833, Note_on_c, 0, 61, 47
1, 1102881, Note_off_c, 0, 61, 59
1, 1102883, Note_off_c, 0, 76, 63
1, 1102917, Note_on_c, 0, 64, 46
1, 1102976, Note_off_c, 0, 64, 55
1, 1103008, Control_c, 0, 64, 80
1, 1103013, Note_on_c, 0, 69, 43
1, 1103023, Control_c, 0, 64, 79
1, 1103053, Control_c, 0, 64, 78
1, 1103067, Control_c, 0, 64, 77
1, 1103082, Control_c, 0, 64, 76
1, 1103095, Note_off_c, 0, 69, 45
1, 1103097, Control_c, 0, 64, 75
1, 1103112, Control_c, 0, 64, 73
1, 1103126, Control_c, 0, 64, 70
1, 1103141, Control_c, 0, 64, 67
1, 1103156, Control_c, 0, 64, 61
1, 1103162, Note_on_c, 0, 76, 60
1, 1103179, Control_c, 0, 64, 54
1, 1103185, Note_on_c, 0, 59, 43
1, 1103194, Control_c, 0, 64, 40
1, 1103208, Control_c, 0, 64, 0
1, 1103252, Note_off_c, 0, 59, 57
1, 1103282, Control_c, 0, 64, 35
1, 1103286, Note_on_c, 0, 62, 42
1, 1103297, Control_c, 0, 64, 49
1, 1103312, Control_c, 0, 64, 58
1, 1103326, Control_c, 0, 64, 63
1, 1103341, Control_c, 0, 64, 65
1, 1103356, Control_c, 0, 64, 67
1, 1103371, Control_c, 0, 64, 69
1, 1103386, Control_c, 0, 64, 71
1, 1103400, Note_on_c, 0, 68, 36
1, 1103400, Control_c, 0, 64, 74
1, 1103404, Note_off_c, 0, 62, 49
1, 1103415, Control_c, 0, 64, 77
1, 1103430, Control_c, 0, 64, 78
1, 1103445, Control_c, 0, 64, 79
1, 1103447, Note_off_c, 0, 68, 45
1, 1103459, Control_c, 0, 64, 80
1, 1103473, Note_on_c, 0, 59, 50
1, 1103474, Control_c, 0, 64, 80
1, 1103531, Note_off_c, 0, 76, 55
1, 1103556, Note_off_c, 0, 59, 61
1, 1103596, Note_on_c, 0, 62, 31
1, 1103649, Note_off_c, 0, 62, 45
1, 1103676, Note_on_c, 0, 68, 37
1, 1103707, Note_off_c, 0, 68, 52
1, 1103726, Control_c, 0, 64, 79
1, 1103742, Control_c, 0, 64, 76
1, 1103757, Control_c, 0, 64, 69
1, 1103757, Note_on_c, 0, 76, 58
1, 1103772, Control_c, 0, 64, 60
1, 1103776, Note_on_c, 0, 58, 48
1, 1103787, Control_c, 0, 64, 47
1, 1103802, Control_c, 0, 64, 39
1, 1103816, Control_c, 0, 64, 42
1, 1103831, Note_off_c, 0, 58, 58
1, 1103831, Control_c, 0, 64, 50
1, 1103846, Control_c, 0, 64, 58
1, 1103861, Control_c, 0, 64, 63
1, 1103870, Note_on_c, 0, 62, 46
1, 1103875, Control_c, 0, 64, 66
1, 1103890, Note_off_c, 0, 76, 62
1, 1103890, Control_c, 0, 64, 69
1, 1103905, Control_c, 0, 64, 71
1, 1103927, Control_c, 0, 64, 74
1, 1103942, Control_c, 0, 64, 77
1, 1103954, Note_off_c, 0, 62, 58
1, 1103957, Control_c, 0, 64, 80
1, 1103969, Note_on_c, 0, 67, 48
1, 1103972, Control_c, 0, 64, 82
1, 1103987, Control_c, 0, 64, 83
1, 1104017, Control_c, 0, 64, 80
1, 1104031, Control_c, 0, 64, 74
1, 1104046, Control_c, 0, 64, 66
1, 1104052, Note_off_c, 0, 67, 51
1, 1104061, Note_on_c, 0, 76, 64
1, 1104061, Control_c, 0, 64, 57
1, 1104075, Note_on_c, 0, 58, 46
1, 1104076, Control_c, 0, 64, 54
1, 1104091, Control_c, 0, 64, 55
1, 1104106, Control_c, 0, 64, 58
1, 1104121, Control_c, 0, 64, 62
1, 1104136, Control_c, 0, 64, 64
1, 1104138, Note_off_c, 0, 58, 60
1, 1104150, Control_c, 0, 64, 66
1, 1104165, Control_c, 0, 64, 68
1, 1104170, Note_on_c, 0, 62, 44
1, 1104170, Note_off_c, 0, 76, 60
1, 1104180, Control_c, 0, 64, 69
1, 1104195, Control_c, 0, 64, 69
1, 1104221, Note_off_c, 0, 62, 60
1, 1104269, Note_on_c, 0, 67, 28
1, 1104298, Control_c, 0, 64, 69
1, 1104313, Control_c, 0, 64, 68
1, 1104328, Control_c, 0, 64, 67
1, 1104343, Control_c, 0, 64, 66
1, 1104350, Note_off_c, 0, 67, 38
1, 1104357, Control_c, 0, 64, 65
1, 1104372, Control_c, 0, 64, 64
1, 1104373, Note_on_c, 0, 76, 58
1, 1104387, Control_c, 0, 64, 62
1, 1104393, Note_on_c, 0, 57, 39
1, 1104402, Control_c, 0, 64, 60
1, 1104417, Control_c, 0, 64, 53
1, 1104431, Control_c, 0, 64, 40
1, 1104446, Control_c, 0, 64, 0
1, 1104449, Note_off_c, 0, 57, 59
1, 1104492, Note_on_c, 0, 61, 47
1, 1104520, Control_c, 0, 64, 38
1, 1104535, Control_c, 0, 64, 51
1, 1104551, Control_c, 0, 64, 60
1, 1104565, Control_c, 0, 64, 64
1, 1104568, Note_off_c, 0, 61, 56
1, 1104580, Control_c, 0, 64, 66
1, 1104595, Control_c, 0, 64, 68
1, 1104600, Note_on_c, 0, 67, 34
1, 1104610, Control_c, 0, 64, 69
1, 1104625, Control_c, 0, 64, 70
1, 1104640, Control_c, 0, 64, 71
1, 1104651, Note_off_c, 0, 67, 47
1, 1104654, Control_c, 0, 64, 71
1, 1104660, Note_off_c, 0, 76, 63
1, 1104675, Note_on_c, 0, 57, 51
1, 1104732, Note_off_c, 0, 57, 60
1, 1104772, Note_on_c, 0, 61, 47
1, 1104824, Note_off_c, 0, 61, 61
1, 1104848, Note_on_c, 0, 67, 53
1, 1104869, Control_c, 0, 64, 71
1, 1104883, Note_off_c, 0, 67, 64
1, 1104884, Control_c, 0, 64, 70
1, 1104899, Control_c, 0, 64, 70
1, 1104914, Control_c, 0, 64, 69
1, 1104929, Control_c, 0, 64, 68
1, 1104930, Note_on_c, 0, 76, 60
1, 1104944, Control_c, 0, 64, 67
1, 1104957, Note_on_c, 0, 55, 46
1, 1104958, Control_c, 0, 64, 65
1, 1104970, Note_off_c, 0, 76, 61
1, 1104973, Control_c, 0, 64, 64
1, 1104988, Control_c, 0, 64, 61
1, 1105003, Note_off_c, 0, 55, 61
1, 1105003, Control_c, 0, 64, 59
1, 1105018, Control_c, 0, 64, 57
1, 1105033, Control_c, 0, 64, 54
1, 1105043, Note_on_c, 0, 57, 32
1, 1105047, Control_c, 0, 64, 50
1, 1105062, Control_c, 0, 64, 44
1, 1105077, Control_c, 0, 64, 30
1, 1105082, Note_on_c, 0, 76, 65
1, 1105092, Control_c, 0, 64, 0
1, 1105105, Note_off_c, 0, 57, 59
1, 1105117, Note_off_c, 0, 76, 62
1, 1105119, Note_on_c, 0, 61, 55
1, 1105157, Note_off_c, 0, 61, 61
1, 1105212, Note_on_c, 0, 78, 68
1, 1105220, Note_on_c, 0, 55, 48
1, 1105242, Note_off_c, 0, 78, 62
1, 1105269, Note_off_c, 0, 55, 62
1, 1105292, Note_on_c, 0, 57, 49
1, 1105340, Note_on_c, 0, 79, 58
1, 1105367, Note_off_c, 0, 79, 66
1, 1105376, Note_off_c, 0, 57, 56
1, 1105404, Note_on_c, 0, 61, 38
1, 1105461, Note_off_c, 0, 61, 45
1, 1105497, Note_on_c, 0, 81, 57
1, 1105514, Note_on_c, 0, 54, 43
1, 1105543, Control_c, 0, 64, 34
1, 1105558, Control_c, 0, 64, 44
1, 1105573, Control_c, 0, 64, 51
1, 1105588, Control_c, 0, 64, 56
1, 1105602, Control_c, 0, 64, 60
1, 1105614, Note_on_c, 0, 57, 43
1, 1105617, Control_c, 0, 64, 62
1, 1105618, Note_off_c, 0, 54, 62
1, 1105632, Control_c, 0, 64, 63
1, 1105647, Control_c, 0, 64, 64
1, 1105662, Control_c, 0, 64, 65
1, 1105677, Control_c, 0, 64, 66
1, 1105692, Control_c, 0, 64, 68
1, 1105703, Note_off_c, 0, 57, 61
1, 1105707, Control_c, 0, 64, 69
1, 1105717, Note_on_c, 0, 62, 35
1, 1105721, Control_c, 0, 64, 71
1, 1105736, Control_c, 0, 64, 72
1, 1105766, Control_c, 0, 64, 69
1, 1105771, Note_on_c, 0, 79, 70
1, 1105781, Control_c, 0, 64, 64
1, 1105781, Note_off_c, 0, 62, 42
1, 1105795, Control_c, 0, 64, 56
1, 1105802, Note_on_c, 0, 55, 45
1, 1105810, Control_c, 0, 64, 49
1, 1105825, Control_c, 0, 64, 50
1, 1105839, Control_c, 0, 64, 54
1, 1105854, Note_off_c, 0, 55, 62
1, 1105854, Control_c, 0, 64, 58
1, 1105869, Control_c, 0, 64, 61
1, 1105873, Note_on_c, 0, 59, 59
1, 1105884, Control_c, 0, 64, 63
1, 1105899, Control_c, 0, 64, 64
1, 1105913, Control_c, 0, 64, 66
1, 1105928, Control_c, 0, 64, 67
1, 1105941, Note_off_c, 0, 59, 57
1, 1105943, Control_c, 0, 64, 69
1, 1105958, Control_c, 0, 64, 69
1, 1105972, Note_on_c, 0, 62, 58
1, 1105973, Control_c, 0, 64, 70
1, 1106017, Control_c, 0, 64, 68
1, 1106032, Note_off_c, 0, 62, 55
1, 1106032, Control_c, 0, 64, 61
1, 1106047, Control_c, 0, 64, 44
1, 1106061, Control_c, 0, 64, 0
1, 1106062, Note_on_c, 0, 57, 54
1, 1106063, Note_on_c, 0, 78, 67
1, 1106083, Note_off_c, 0, 81, 13
1, 1106091, Control_c, 0, 64, 32
1, 1106106, Control_c, 0, 64, 43
1, 1106121, Control_c, 0, 64, 52
1, 1106127, Note_off_c, 0, 57, 62
1, 1106136, Control_c, 0, 64, 58
1, 1106151, Note_on_c, 0, 62, 58
1, 1106151, Control_c, 0, 64, 62
1, 1106174, Control_c, 0, 64, 63
1, 1106179, Note_off_c, 0, 79, 53
1, 1106189, Control_c, 0, 64, 64
1, 1106204, Control_c, 0, 64, 65
1, 1106219, Control_c, 0, 64, 66
1, 1106233, Control_c, 0, 64, 67
1, 1106237, Note_off_c, 0, 62, 59
1, 1106255, Note_on_c, 0, 66, 55
1, 1106277, Control_c, 0, 64, 67
1, 1106292, Control_c, 0, 64, 67
1, 1106299, Note_off_c, 0, 66, 57
1, 1106307, Control_c, 0, 64, 66
1, 1106322, Control_c, 0, 64, 61
1, 1106337, Control_c, 0, 64, 48
1, 1106343, Note_on_c, 0, 76, 68
1, 1106351, Control_c, 0, 64, 0
1, 1106365, Note_on_c, 0, 57, 42
1, 1106403, Note_off_c, 0, 78, 56
1, 1106422, Note_off_c, 0, 57, 60
1, 1106440, Control_c, 0, 64, 33
1, 1106455, Control_c, 0, 64, 42
1, 1106458, Note_on_c, 0, 61, 47
1, 1106470, Control_c, 0, 64, 48
1, 1106485, Control_c, 0, 64, 51
1, 1106500, Control_c, 0, 64, 51
1, 1106508, Note_off_c, 0, 61, 62
1, 1106515, Control_c, 0, 64, 51
1, 1106529, Control_c, 0, 64, 50
1, 1106544, Control_c, 0, 64, 48
1, 1106559, Control_c, 0, 64, 47
1, 1106559, Note_on_c, 0, 67, 43
1, 1106574, Control_c, 0, 64, 44
1, 1106589, Control_c, 0, 64, 41
1, 1106604, Control_c, 0, 64, 36
1, 1106618, Control_c, 0, 64, 29
1, 1106633, Control_c, 0, 64, 0
1, 1106654, Note_off_c, 0, 67, 46
1, 1106684, Note_on_c, 0, 78, 54
1, 1106712, Note_on_c, 0, 62, 44
1, 1106743, Note_off_c, 0, 76, 58
1, 1106778, Note_off_c, 0, 62, 58
1, 1106813, Note_on_c, 0, 66, 48
1, 1106872, Note_off_c, 0, 66, 56
1, 1106919, Note_on_c, 0, 69, 35
1, 1106922, Control_c, 0, 64, 36
1, 1106937, Control_c, 0, 64, 49
1, 1106953, Control_c, 0, 64, 58
1, 1106967, Note_off_c, 0, 69, 60
1, 1106968, Control_c, 0, 64, 62
1, 1106982, Control_c, 0, 64, 63
1, 1106997, Control_c, 0, 64, 65
1, 1106998, Note_on_c, 0, 62, 45
1, 1107012, Control_c, 0, 64, 66
1, 1107027, Control_c, 0, 64, 68
1, 1107040, Note_off_c, 0, 78, 60
1, 1107042, Control_c, 0, 64, 69
1, 1107046, Note_off_c, 0, 62, 60
1, 1107057, Control_c, 0, 64, 70
1, 1107072, Control_c, 0, 64, 71
1, 1107087, Control_c, 0, 64, 72
1, 1107090, Note_on_c, 0, 66, 35
1, 1107101, Control_c, 0, 64, 72
1, 1107116, Control_c, 0, 64, 73
1, 1107123, Note_off_c, 0, 66, 54
1, 1107164, Note_on_c, 0, 69, 50
1, 1107210, Note_off_c, 0, 69, 53
1, 1107249, Control_c, 0, 64, 72
1, 1107263, Note_on_c, 0, 81, 66
1, 1107264, Control_c, 0, 64, 68
1, 1107271, Note_on_c, 0, 66, 39
1, 1107279, Control_c, 0, 64, 58
1, 1107293, Control_c, 0, 64, 46
1, 1107308, Control_c, 0, 64, 39
1, 1107323, Control_c, 0, 64, 39
1, 1107338, Control_c, 0, 64, 44
1, 1107353, Control_c, 0, 64, 50
1, 1107361, Note_off_c, 0, 66, 61
1, 1107367, Note_on_c, 0, 69, 51
1, 1107367, Control_c, 0, 64, 55
1, 1107382, Control_c, 0, 64, 60
1, 1107397, Control_c, 0, 64, 63
1, 1107412, Control_c, 0, 64, 65
1, 1107422, Note_off_c, 0, 81, 63
1, 1107427, Control_c, 0, 64, 65
1, 1107442, Control_c, 0, 64, 66
1, 1107451, Note_off_c, 0, 69, 59
1, 1107456, Control_c, 0, 64, 67
1, 1107471, Control_c, 0, 64, 68
1, 1107483, Note_on_c, 0, 74, 52
1, 1107486, Control_c, 0, 64, 69
1, 1107501, Control_c, 0, 64, 69
1, 1107531, Control_c, 0, 64, 70
1, 1107542, Note_off_c, 0, 74, 58
1, 1107563, Note_on_c, 0, 81, 81
1, 1107567, Note_on_c, 0, 66, 54
1, 1107632, Note_off_c, 0, 66, 60
1, 1107658, Note_on_c, 0, 69, 45
1, 1107705, Note_off_c, 0, 69, 55
1, 1107710, Note_off_c, 0, 81, 59
1, 1107740, Note_on_c, 0, 74, 58
1, 1107835, Note_off_c, 0, 74, 49
1, 1107835, Control_c, 0, 64, 69
1, 1107850, Control_c, 0, 64, 67
1, 1107865, Control_c, 0, 64, 64
1, 1107871, Note_on_c, 0, 81, 68
1, 1107880, Control_c, 0, 64, 57
1, 1107887, Note_on_c, 0, 64, 51
1, 1107895, Control_c, 0, 64, 48
1, 1107910, Control_c, 0, 64, 46
1, 1107924, Control_c, 0, 64, 48
1, 1107939, Control_c, 0, 64, 52
1, 1107954, Control_c, 0, 64, 56
1, 1107963, Note_off_c, 0, 64, 63
1, 1107969, Control_c, 0, 64, 61
1, 1107984, Control_c, 0, 64, 65
1, 1107997, Note_on_c, 0, 67, 45
1, 1107998, Control_c, 0, 64, 71
1, 1108013, Control_c, 0, 64, 72
1, 1108028, Control_c, 0, 64, 71
1, 1108042, Control_c, 0, 64, 68
1, 1108057, Control_c, 0, 64, 62
1, 1108072, Control_c, 0, 64, 56
1, 1108081, Note_on_c, 0, 73, 52
1, 1108087, Control_c, 0, 64, 52
1, 1108094, Note_off_c, 0, 67, 56
1, 1108102, Control_c, 0, 64, 54
1, 1108116, Control_c, 0, 64, 59
1, 1108131, Control_c, 0, 64, 63
1, 1108133, Note_off_c, 0, 73, 51
1, 1108146, Control_c, 0, 64, 65
1, 1108161, Control_c, 0, 64, 66
1, 1108168, Note_on_c, 0, 64, 61
1, 1108176, Control_c, 0, 64, 68
1, 1108190, Control_c, 0, 64, 69
1, 1108205, Control_c, 0, 64, 70
1, 1108220, Control_c, 0, 64, 71
1, 1108247, Note_off_c, 0, 81, 58
1, 1108248, Note_off_c, 0, 64, 64
1, 1108288, Note_on_c, 0, 67, 47
1, 1108309, Control_c, 0, 64, 71
1, 1108360, Note_on_c, 0, 73, 53
1, 1108383, Note_off_c, 0, 67, 50
1, 1108384, Control_c, 0, 64, 70
1, 1108398, Control_c, 0, 64, 65
1, 1108417, Note_off_c, 0, 73, 53
1, 1108420, Control_c, 0, 64, 57
1, 1108435, Control_c, 0, 64, 45
1, 1108449, Control_c, 0, 64, 38
1, 1108453, Note_on_c, 0, 81, 70
1, 1108460, Note_on_c, 0, 63, 56
1, 1108464, Control_c, 0, 64, 40
1, 1108479, Control_c, 0, 64, 47
1, 1108494, Control_c, 0, 64, 54
1, 1108509, Control_c, 0, 64, 60
1, 1108524, Control_c, 0, 64, 63
1, 1108539, Control_c, 0, 64, 66
1, 1108542, Note_off_c, 0, 63, 60
1, 1108554, Control_c, 0, 64, 68
1, 1108563, Note_on_c, 0, 67, 46
1, 1108569, Control_c, 0, 64, 70
1, 1108582, Note_off_c, 0, 81, 59
1, 1108584, Control_c, 0, 64, 72
1, 1108599, Control_c, 0, 64, 74
1, 1108613, Control_c, 0, 64, 76
1, 1108628, Control_c, 0, 64, 77
1, 1108634, Note_on_c, 0, 72, 58
1, 1108645, Note_off_c, 0, 67, 60
1, 1108658, Control_c, 0, 64, 76
1, 1108673, Control_c, 0, 64, 72
1, 1108688, Control_c, 0, 64, 64
1, 1108702, Control_c, 0, 64, 53
1, 1108717, Note_off_c, 0, 72, 47
1, 1108717, Control_c, 0, 64, 50
1, 1108729, Note_on_c, 0, 81, 78
1, 1108732, Control_c, 0, 64, 52
1, 1108738, Note_on_c, 0, 63, 56
1, 1108747, Control_c, 0, 64, 57
1, 1108762, Control_c, 0, 64, 61
1, 1108777, Control_c, 0, 64, 63
1, 1108792, Control_c, 0, 64, 66
1, 1108807, Note_off_c, 0, 63, 59
1, 1108807, Control_c, 0, 64, 68
1, 1108815, Note_off_c, 0, 81, 59
1, 1108821, Control_c, 0, 64, 69
1, 1108823, Note_on_c, 0, 67, 50
1, 1108836, Control_c, 0, 64, 70
1, 1108851, Control_c, 0, 64, 70
1, 1108892, Note_off_c, 0, 67, 62
1, 1108917, Note_on_c, 0, 72, 44
1, 1108973, Note_off_c, 0, 72, 51
1, 1108999, Control_c, 0, 64, 70
1, 1109013, Control_c, 0, 64, 69
1, 1109023, Note_on_c, 0, 81, 60
1, 1109028, Control_c, 0, 64, 67
1, 1109043, Control_c, 0, 64, 66
1, 1109055, Note_on_c, 0, 62, 43
1, 1109058, Control_c, 0, 64, 63
1, 1109072, Control_c, 0, 64, 59
1, 1109087, Control_c, 0, 64, 54
1, 1109102, Control_c, 0, 64, 43
1, 1109117, Control_c, 0, 64, 0
1, 1109126, Note_off_c, 0, 62, 56
1, 1109148, Note_on_c, 0, 66, 52
1, 1109213, Control_c, 0, 64, 37
1, 1109228, Control_c, 0, 64, 52
1, 1109240, Note_off_c, 0, 66, 58
1, 1109243, Control_c, 0, 64, 62
1, 1109253, Note_on_c, 0, 72, 41
1, 1109258, Control_c, 0, 64, 66
1, 1109272, Control_c, 0, 64, 68
1, 1109287, Control_c, 0, 64, 70
1, 1109302, Control_c, 0, 64, 72
1, 1109305, Note_off_c, 0, 72, 56
1, 1109317, Control_c, 0, 64, 74
1, 1109332, Control_c, 0, 64, 74
1, 1109333, Note_on_c, 0, 62, 52
1, 1109342, Note_off_c, 0, 81, 63
1, 1109379, Note_off_c, 0, 62, 61
1, 1109415, Note_on_c, 0, 66, 55
1, 1109463, Note_off_c, 0, 66, 63
1, 1109490, Note_on_c, 0, 72, 52
1, 1109495, Control_c, 0, 64, 74
1, 1109520, Note_off_c, 0, 72, 64
1, 1109525, Control_c, 0, 64, 73
1, 1109540, Control_c, 0, 64, 72
1, 1109555, Control_c, 0, 64, 71
1, 1109570, Control_c, 0, 64, 70
1, 1109585, Control_c, 0, 64, 68
1, 1109593, Note_on_c, 0, 81, 70
1, 1109600, Control_c, 0, 64, 67
1, 1109603, Note_on_c, 0, 60, 47
1, 1109614, Control_c, 0, 64, 65
1, 1109629, Control_c, 0, 64, 64
1, 1109631, Note_off_c, 0, 81, 61
1, 1109644, Control_c, 0, 64, 62
1, 1109654, Note_off_c, 0, 60, 61
1, 1109659, Control_c, 0, 64, 60
1, 1109672, Note_on_c, 0, 62, 49
1, 1109674, Control_c, 0, 64, 57
1, 1109688, Control_c, 0, 64, 53
1, 1109703, Control_c, 0, 64, 49
1, 1109718, Control_c, 0, 64, 42
1, 1109725, Note_on_c, 0, 81, 78
1, 1109733, Control_c, 0, 64, 32
1, 1109746, Note_off_c, 0, 62, 63
1, 1109748, Control_c, 0, 64, 0
1, 1109760, Note_on_c, 0, 66, 63
1, 1109766, Note_off_c, 0, 81, 64
1, 1109801, Note_off_c, 0, 66, 59
1, 1109857, Note_on_c, 0, 83, 76
1, 1109859, Note_on_c, 0, 60, 49
1, 1109897, Note_off_c, 0, 83, 65
1, 1109915, Note_off_c, 0, 60, 63
1, 1109936, Note_on_c, 0, 62, 57
1, 1109987, Note_on_c, 0, 84, 67
1, 1110019, Note_off_c, 0, 84, 58
1, 1110036, Note_off_c, 0, 62, 58
1, 1110045, Note_on_c, 0, 66, 54
1, 1110108, Note_off_c, 0, 66, 51
1, 1110125, Note_on_c, 0, 86, 62
1, 1110139, Control_c, 0, 64, 34
1, 1110154, Control_c, 0, 64, 45
1, 1110157, Note_on_c, 0, 59, 49
1, 1110169, Control_c, 0, 64, 53
1, 1110184, Control_c, 0, 64, 56
1, 1110199, Control_c, 0, 64, 58
1, 1110214, Control_c, 0, 64, 60
1, 1110229, Control_c, 0, 64, 64
1, 1110243, Control_c, 0, 64, 67
1, 1110257, Note_on_c, 0, 62, 50
1, 1110258, Control_c, 0, 64, 69
1, 1110273, Control_c, 0, 64, 69
1, 1110279, Note_off_c, 0, 59, 57
1, 1110288, Control_c, 0, 64, 68
1, 1110303, Control_c, 0, 64, 63
1, 1110317, Control_c, 0, 64, 58
1, 1110332, Control_c, 0, 64, 56
1, 1110339, Note_off_c, 0, 62, 56
1, 1110347, Control_c, 0, 64, 58
1, 1110348, Note_on_c, 0, 67, 49
1, 1110362, Control_c, 0, 64, 60
1, 1110377, Control_c, 0, 64, 62
1, 1110391, Control_c, 0, 64, 63
1, 1110393, Note_off_c, 0, 67, 58
1, 1110394, Note_on_c, 0, 84, 75
1, 1110406, Control_c, 0, 64, 64
1, 1110418, Note_on_c, 0, 60, 58
1, 1110421, Control_c, 0, 64, 66
1, 1110435, Control_c, 0, 64, 67
1, 1110450, Control_c, 0, 64, 69
1, 1110465, Control_c, 0, 64, 70
1, 1110480, Control_c, 0, 64, 70
1, 1110486, Note_off_c, 0, 60, 63
1, 1110495, Note_on_c, 0, 64, 65
1, 1110495, Control_c, 0, 64, 71
1, 1110565, Note_off_c, 0, 64, 60
1, 1110583, Note_on_c, 0, 67, 61
1, 1110598, Control_c, 0, 64, 69
1, 1110613, Control_c, 0, 64, 64
1, 1110628, Control_c, 0, 64, 51
1, 1110642, Note_off_c, 0, 67, 55
1, 1110643, Control_c, 0, 64, 0
1, 1110672, Note_on_c, 0, 83, 82
1, 1110679, Note_on_c, 0, 62, 67
1, 1110681, Note_off_c, 0, 86, 58
1, 1110724, Control_c, 0, 64, 40
1, 1110740, Control_c, 0, 64, 52
1, 1110750, Note_off_c, 0, 62, 62
1, 1110755, Control_c, 0, 64, 59
1, 1110762, Note_on_c, 0, 67, 69
1, 1110770, Control_c, 0, 64, 62
1, 1110785, Control_c, 0, 64, 63
1, 1110799, Control_c, 0, 64, 65
1, 1110814, Control_c, 0, 64, 65
1, 1110821, Note_off_c, 0, 84, 31
1, 1110829, Control_c, 0, 64, 66
1, 1110834, Note_off_c, 0, 67, 59
1, 1110843, Control_c, 0, 64, 65
1, 1110855, Note_on_c, 0, 71, 56
1, 1110858, Control_c, 0, 64, 60
1, 1110873, Control_c, 0, 64, 48
1, 1110888, Control_c, 0, 64, 0
1, 1110918, Note_off_c, 0, 71, 61
1, 1110939, Note_on_c, 0, 62, 61
1, 1110947, Note_on_c, 0, 81, 76
1, 1110948, Control_c, 0, 64, 37
1, 1110963, Control_c, 0, 64, 44
1, 1110978, Control_c, 0, 64, 50
1, 1110993, Control_c, 0, 64, 55
1, 1111007, Control_c, 0, 64, 57
1, 1111010, Note_off_c, 0, 83, 57
1, 1111022, Control_c, 0, 64, 58
1, 1111054, Note_off_c, 0, 62, 60
1, 1111067, Note_on_c, 0, 66, 38
1, 1111101, Note_off_c, 0, 66, 54
1, 1111111, Control_c, 0, 64, 58
1, 1111125, Note_on_c, 0, 72, 52
1, 1111126, Control_c, 0, 64, 57
1, 1111141, Control_c, 0, 64, 56
1, 1111156, Control_c, 0, 64, 55
1, 1111171, Control_c, 0, 64, 53
1, 1111186, Control_c, 0, 64, 50
1, 1111200, Control_c, 0, 64, 46
1, 1111215, Control_c, 0, 64, 37
1, 1111229, Note_off_c, 0, 72, 53
1, 1111230, Control_c, 0, 64, 0
1, 1111254, Note_on_c, 0, 83, 68
1, 1111274, Note_on_c, 0, 63, 55
1, 1111287, Note_off_c, 0, 81, 60
1, 1111342, Note_off_c, 0, 63, 61
1, 1111358, Note_on_c, 0, 66, 61
1, 1111377, Control_c, 0, 64, 39
1, 1111392, Control_c, 0, 64, 56
1, 1111415, Control_c, 0, 64, 63
1, 1111430, Control_c, 0, 64, 66
1, 1111445, Control_c, 0, 64, 68
1, 1111448, Note_off_c, 0, 66, 61
1, 1111457, Note_on_c, 0, 71, 57
1, 1111459, Control_c, 0, 64, 71
1, 1111474, Control_c, 0, 64, 74
1, 1111489, Control_c, 0, 64, 77
1, 1111504, Control_c, 0, 64, 80
1, 1111517, Note_off_c, 0, 83, 60
1, 1111519, Control_c, 0, 64, 82
1, 1111528, Note_off_c, 0, 71, 51
1, 1111534, Control_c, 0, 64, 85
1, 1111548, Note_on_c, 0, 63, 57
1, 1111548, Control_c, 0, 64, 87
1, 1111563, Control_c, 0, 64, 89
1, 1111578, Control_c, 0, 64, 91
1, 1111592, Control_c, 0, 64, 93
1, 1111607, Control_c, 0, 64, 94
1, 1111619, Note_off_c, 0, 63, 62
1, 1111630, Note_on_c, 0, 66, 67
1, 1111637, Control_c, 0, 64, 94
1, 1111652, Control_c, 0, 64, 95
1, 1111684, Note_off_c, 0, 66, 48
1, 1111696, Control_c, 0, 64, 96
1, 1111705, Note_on_c, 0, 71, 58
1, 1111711, Control_c, 0, 64, 98
1, 1111726, Control_c, 0, 64, 103
1, 1111741, Note_off_c, 0, 71, 63
1, 1111742, Control_c, 0, 64, 105
1, 1111757, Control_c, 0, 64, 101
1, 1111771, Control_c, 0, 64, 80
1, 1111786, Control_c, 0, 64, 63
1, 1111801, Control_c, 0, 64, 51
1, 1111816, Control_c, 0, 64, 53
1, 1111820, Note_on_c, 0, 83, 68
1, 1111821, Note_on_c, 0, 59, 58
1, 1111829, Note_on_c, 0, 71, 58
1, 1111831, Control_c, 0, 64, 60
1, 1111845, Control_c, 0, 64, 66
1, 1111860, Control_c, 0, 64, 83
1, 1111861, Note_off_c, 0, 71, 64
1, 1111874, Note_off_c, 0, 83, 61
1, 1111875, Control_c, 0, 64, 99
1, 1111889, Control_c, 0, 64, 93
1, 1111895, Note_off_c, 0, 59, 62
1, 1111904, Control_c, 0, 64, 73
1, 1111918, Note_on_c, 0, 63, 64
1, 1111919, Control_c, 0, 64, 61
1, 1111934, Control_c, 0, 64, 53
1, 1111949, Control_c, 0, 64, 56
1, 1111953, Note_on_c, 0, 71, 71
1, 1111954, Note_on_c, 0, 83, 78
1, 1111964, Control_c, 0, 64, 64
1, 1111979, Note_off_c, 0, 71, 67
1, 1111979, Control_c, 0, 64, 69
1, 1111993, Control_c, 0, 64, 73
1, 1111996, Note_off_c, 0, 83, 64
1, 1112003, Note_on_c, 0, 66, 68
1, 1112008, Control_c, 0, 64, 74
1, 1112008, Note_off_c, 0, 63, 62
1, 1112023, Control_c, 0, 64, 74
1, 1112038, Control_c, 0, 64, 76
1, 1112053, Control_c, 0, 64, 77
1, 1112068, Control_c, 0, 64, 77
1, 1112082, Note_on_c, 0, 57, 74
1, 1112082, Note_on_c, 0, 85, 87
1, 1112082, Control_c, 0, 64, 78
1, 1112086, Note_off_c, 0, 66, 62
1, 1112088, Note_on_c, 0, 73, 79
1, 1112097, Control_c, 0, 64, 78
1, 1112110, Note_off_c, 0, 73, 69
1, 1112112, Control_c, 0, 64, 79
1, 1112131, Note_off_c, 0, 85, 64
1, 1112142, Control_c, 0, 67, 98
1, 1112163, Control_c, 0, 67, 66
1, 1112178, Control_c, 0, 64, 79
1, 1112178, Control_c, 0, 67, 49
1, 1112187, Note_on_c, 0, 59, 72
1, 1112193, Note_off_c, 0, 57, 63
1, 1112193, Control_c, 0, 67, 39
1, 1112208, Control_c, 0, 67, 33
1, 1112223, Note_on_c, 0, 87, 86
1, 1112223, Control_c, 0, 64, 80
1, 1112223, Control_c, 0, 67, 0
1, 1112226, Note_on_c, 0, 75, 86
1, 1112252, Control_c, 0, 67, 33
1, 1112256, Note_on_c, 0, 66, 62
1, 1112262, Note_off_c, 0, 59, 65
1, 1112264, Note_off_c, 0, 75, 54
1, 1112267, Control_c, 0, 67, 34
1, 1112277, Note_off_c, 0, 87, 63
1, 1112281, Control_c, 0, 67, 35
1, 1112296, Control_c, 0, 67, 36
1, 1112311, Control_c, 0, 67, 37
1, 1112326, Control_c, 0, 64, 79
1, 1112326, Control_c, 0, 67, 38
1, 1112338, Note_off_c, 0, 66, 60
1, 1112341, Control_c, 0, 67, 39
1, 1112355, Control_c, 0, 64, 79
1, 1112370, Control_c, 0, 64, 77
1, 1112370, Control_c, 0, 67, 40
1, 1112385, Control_c, 0, 64, 75
1, 1112396, Note_on_c, 0, 88, 88
1, 1112400, Control_c, 0, 64, 72
1, 1112408, Note_on_c, 0, 76, 75
1, 1112414, Control_c, 0, 64, 66
1, 1112426, Note_on_c, 0, 56, 58
1, 1112429, Control_c, 0, 64, 56
1, 1112429, Control_c, 0, 67, 41
1, 1112444, Control_c, 0, 64, 38
1, 1112459, Control_c, 0, 64, 0
1, 1112459, Control_c, 0, 67, 41
1, 1112509, Note_off_c, 0, 56, 59
1, 1112512, Note_on_c, 0, 59, 59
1, 1112564, Control_c, 0, 64, 40
1, 1112564, Control_c, 0, 67, 41
1, 1112578, Control_c, 0, 64, 61
1, 1112578, Control_c, 0, 67, 39
1, 1112593, Control_c, 0, 64, 71
1, 1112593, Control_c, 0, 67, 38
1, 1112599, Note_on_c, 0, 64, 59
1, 1112599, Note_off_c, 0, 59, 61
1, 1112608, Control_c, 0, 64, 81
1, 1112608, Control_c, 0, 67, 35
1, 1112623, Control_c, 0, 64, 91
1, 1112623, Control_c, 0, 67, 0
1, 1112637, Control_c, 0, 64, 99
1, 1112652, Control_c, 0, 64, 116
1, 1112667, Control_c, 0, 64, 127
1, 1112673, Note_off_c, 0, 64, 61
1, 1112677, Note_on_c, 0, 56, 65
1, 1112685, Note_off_c, 0, 76, 60
1, 1112697, Control_c, 0, 67, 33
1, 1112712, Control_c, 0, 67, 34
1, 1112715, Note_off_c, 0, 88, 66
1, 1112727, Control_c, 0, 67, 35
1, 1112742, Control_c, 0, 67, 36
1, 1112757, Control_c, 0, 67, 37
1, 1112769, Note_on_c, 0, 59, 63
1, 1112771, Note_off_c, 0, 56, 62
1, 1112771, Control_c, 0, 67, 37
1, 1112786, Control_c, 0, 67, 38
1, 1112801, Control_c, 0, 67, 38
1, 1112816, Control_c, 0, 67, 39
1, 1112830, Control_c, 0, 67, 39
1, 1112831, Note_off_c, 0, 59, 62
1, 1112846, Note_on_c, 0, 64, 64
1, 1112875, Control_c, 0, 67, 41
1, 1112890, Control_c, 0, 67, 42
1, 1112912, Control_c, 0, 67, 44
1, 1112924, Note_off_c, 0, 64, 63
1, 1112926, Control_c, 0, 64, 76
1, 1112926, Control_c, 0, 67, 45
1, 1112941, Control_c, 0, 64, 54
1, 1112941, Control_c, 0, 67, 45
1, 1112956, Note_on_c, 0, 88, 70
1, 1112956, Control_c, 0, 64, 48
1, 1112956, Control_c, 0, 67, 46
1, 1112959, Note_on_c, 0, 52, 65
1, 1112971, Control_c, 0, 64, 59
1, 1112975, Note_on_c, 0, 76, 37
1, 1112986, Control_c, 0, 64, 71
1, 1113001, Control_c, 0, 64, 102
1, 1113004, Note_off_c, 0, 76, 54
1, 1113012, Note_off_c, 0, 88, 65
1, 1113016, Control_c, 0, 64, 127
1, 1113031, Control_c, 0, 67, 47
1, 1113037, Note_on_c, 0, 56, 70
1, 1113041, Note_off_c, 0, 52, 61
1, 1113045, Control_c, 0, 64, 98
1, 1113045, Control_c, 0, 67, 48
1, 1113060, Control_c, 0, 64, 70
1, 1113075, Control_c, 0, 64, 58
1, 1113084, Note_on_c, 0, 76, 72
1, 1113090, Control_c, 0, 64, 65
1, 1113090, Control_c, 0, 67, 47
1, 1113090, Note_on_c, 0, 88, 81
1, 1113104, Control_c, 0, 64, 77
1, 1113104, Control_c, 0, 67, 46
1, 1113113, Note_off_c, 0, 76, 64
1, 1113119, Control_c, 0, 64, 101
1, 1113123, Note_on_c, 0, 59, 68
1, 1113134, Control_c, 0, 64, 127
1, 1113140, Note_off_c, 0, 88, 67
1, 1113142, Note_off_c, 0, 56, 63
1, 1113178, Control_c, 0, 67, 46
1, 1113193, Control_c, 0, 67, 45
1, 1113210, Note_on_c, 0, 90, 92
1, 1113213, Note_on_c, 0, 78, 86
1, 1113213, Note_off_c, 0, 59, 63
1, 1113217, Note_on_c, 0, 50, 79
1, 1113250, Note_off_c, 0, 78, 59
1, 1113257, Note_off_c, 0, 90, 64
1, 1113267, Control_c, 0, 67, 46
1, 1113303, Note_on_c, 0, 52, 75
1, 1113327, Note_off_c, 0, 50, 61
1, 1113327, Control_c, 0, 67, 46
1, 1113338, Note_on_c, 0, 92, 98
1, 1113342, Control_c, 0, 67, 47
1, 1113347, Note_on_c, 0, 80, 86
1, 1113357, Control_c, 0, 67, 48
1, 1113372, Control_c, 0, 67, 49
1, 1113373, Note_off_c, 0, 52, 63
1, 1113380, Note_on_c, 0, 59, 74
1, 1113391, Note_off_c, 0, 80, 57
1, 1113403, Note_off_c, 0, 92, 65
1, 1113416, Control_c, 0, 67, 48
1, 1113505, Control_c, 0, 67, 48
1, 1113518, Note_off_c, 0, 59, 50
1, 1113520, Note_on_c, 0, 93, 92
1, 1113520, Control_c, 0, 64, 101
1, 1113532, Note_on_c, 0, 49, 60
1, 1113535, Control_c, 0, 64, 86
1, 1113535, Control_c, 0, 67, 47
1, 1113537, Note_on_c, 0, 81, 73
1, 1113549, Control_c, 0, 64, 71
1, 1113564, Control_c, 0, 64, 55
1, 1113579, Control_c, 0, 64, 0
1, 1113616, Note_on_c, 0, 52, 63
1, 1113639, Control_c, 0, 64, 27
1, 1113639, Control_c, 0, 67, 48
1, 1113642, Note_off_c, 0, 49, 59
1, 1113660, Control_c, 0, 64, 50
1, 1113675, Control_c, 0, 64, 66
1, 1113690, Control_c, 0, 64, 80
1, 1113705, Control_c, 0, 64, 112
1, 1113705, Control_c, 0, 67, 48
1, 1113710, Note_on_c, 0, 57, 60
1, 1113717, Note_off_c, 0, 52, 62
1, 1113720, Control_c, 0, 64, 127
1, 1113720, Control_c, 0, 67, 49
1, 1113750, Control_c, 0, 67, 50
1, 1113755, Note_off_c, 0, 93, 65
1, 1113777, Note_off_c, 0, 81, 64
1, 1113790, Note_on_c, 0, 49, 62
1, 1113807, Note_off_c, 0, 57, 61
1, 1113886, Note_off_c, 0, 49, 62
1, 1113892, Note_on_c, 0, 52, 61
1, 1113943, Note_on_c, 0, 57, 58
1, 1113952, Note_off_c, 0, 52, 59
1, 1114047, Control_c, 0, 67, 49
1, 1114053, Note_off_c, 0, 57, 61
1, 1114083, Note_on_c, 0, 85, 74
1, 1114087, Note_on_c, 0, 45, 67
1, 1114091, Control_c, 0, 64, 79
1, 1114106, Control_c, 0, 64, 55
1, 1114120, Note_on_c, 0, 73, 47
1, 1114121, Control_c, 0, 64, 35
1, 1114121, Control_c, 0, 67, 49
1, 1114137, Control_c, 0, 64, 34
1, 1114151, Control_c, 0, 64, 46
1, 1114166, Control_c, 0, 64, 60
1, 1114172, Note_on_c, 0, 49, 63
1, 1114181, Control_c, 0, 64, 70
1, 1114196, Control_c, 0, 64, 84
1, 1114198, Note_off_c, 0, 45, 59
1, 1114211, Control_c, 0, 64, 127
1, 1114211, Control_c, 0, 67, 48
1, 1114240, Control_c, 0, 67, 48
1, 1114252, Note_off_c, 0, 73, 46
1, 1114255, Control_c, 0, 67, 47
1, 1114266, Note_on_c, 0, 52, 65
1, 1114270, Note_off_c, 0, 85, 59
1, 1114278, Note_off_c, 0, 49, 61
1, 1114314, Control_c, 0, 67, 48
1, 1114344, Control_c, 0, 64, 99
1, 1114350, Note_off_c, 0, 52, 60
1, 1114358, Note_on_c, 0, 45, 73
1, 1114358, Control_c, 0, 64, 72
1, 1114367, Note_on_c, 0, 85, 86
1, 1114372, Note_on_c, 0, 73, 78
1, 1114373, Control_c, 0, 64, 55
1, 1114373, Control_c, 0, 67, 48
1, 1114388, Control_c, 0, 64, 47
1, 1114388, Control_c, 0, 67, 49
1, 1114410, Control_c, 0, 64, 56
1, 1114410, Control_c, 0, 67, 49
1, 1114425, Control_c, 0, 64, 68
1, 1114425, Control_c, 0, 67, 50
1, 1114440, Control_c, 0, 64, 83
1, 1114447, Note_on_c, 0, 49, 74
1, 1114455, Control_c, 0, 64, 109
1, 1114455, Control_c, 0, 67, 51
1, 1114463, Note_off_c, 0, 45, 62
1, 1114470, Control_c, 0, 64, 127
1, 1114480, Note_off_c, 0, 85, 64
1, 1114484, Control_c, 0, 67, 52
1, 1114542, Note_on_c, 0, 52, 69
1, 1114544, Note_off_c, 0, 49, 60
1, 1114545, Note_off_c, 0, 73, 60
1, 1114558, Control_c, 0, 67, 52
1, 1114632, Control_c, 0, 67, 53
1, 1114647, Control_c, 0, 64, 109
1, 1114647, Control_c, 0, 67, 53
1, 1114661, Note_on_c, 0, 44, 68
1, 1114662, Control_c, 0, 64, 84
1, 1114662, Control_c, 0, 67, 54
1, 1114669, Note_on_c, 0, 83, 79
1, 1114676, Note_off_c, 0, 52, 59
1, 1114677, Control_c, 0, 64, 65
1, 1114677, Control_c, 0, 67, 55
1, 1114689, Note_on_c, 0, 71, 66
1, 1114691, Control_c, 0, 64, 43
1, 1114706, Control_c, 0, 64, 0
1, 1114706, Control_c, 0, 67, 56
1, 1114751, Control_c, 0, 64, 35
1, 1114760, Note_on_c, 0, 47, 62
1, 1114766, Control_c, 0, 64, 53
1, 1114778, Note_off_c, 0, 44, 63
1, 1114781, Control_c, 0, 64, 63
1, 1114795, Control_c, 0, 64, 68
1, 1114810, Control_c, 0, 64, 71
1, 1114810, Control_c, 0, 67, 55
1, 1114823, Note_off_c, 0, 71, 54
1, 1114825, Control_c, 0, 64, 74
1, 1114825, Control_c, 0, 67, 54
1, 1114831, Note_off_c, 0, 47, 62
1, 1114832, Note_on_c, 0, 52, 61
1, 1114840, Control_c, 0, 64, 77
1, 1114840, Control_c, 0, 67, 53
1, 1114855, Control_c, 0, 64, 81
1, 1114855, Control_c, 0, 67, 53
1, 1114870, Control_c, 0, 64, 86
1, 1114870, Control_c, 0, 67, 52
1, 1114884, Control_c, 0, 64, 92
1, 1114899, Control_c, 0, 64, 95
1, 1114914, Control_c, 0, 64, 94
1, 1114930, Control_c, 0, 64, 86
1, 1114945, Note_off_c, 0, 52, 55
1, 1114945, Control_c, 0, 64, 71
1, 1114946, Note_on_c, 0, 45, 65
1, 1114950, Note_on_c, 0, 81, 73
1, 1114952, Note_off_c, 0, 83, 50
1, 1114959, Control_c, 0, 64, 55
1, 1114959, Control_c, 0, 67, 52
1, 1114974, Control_c, 0, 64, 0
1, 1114980, Note_on_c, 0, 69, 62
1, 1115019, Control_c, 0, 64, 40
1, 1115033, Control_c, 0, 64, 55
1, 1115035, Note_on_c, 0, 49, 69
1, 1115043, Note_off_c, 0, 45, 61
1, 1115048, Control_c, 0, 64, 61
1, 1115048, Control_c, 0, 67, 51
1, 1115063, Control_c, 0, 64, 64
1, 1115063, Control_c, 0, 67, 50
1, 1115069, Note_off_c, 0, 69, 59
1, 1115078, Control_c, 0, 64, 66
1, 1115078, Control_c, 0, 67, 49
1, 1115093, Control_c, 0, 64, 68
1, 1115093, Control_c, 0, 67, 48
1, 1115107, Control_c, 0, 64, 70
1, 1115121, Note_off_c, 0, 49, 62
1, 1115122, Control_c, 0, 64, 74
1, 1115129, Note_on_c, 0, 52, 63
1, 1115137, Control_c, 0, 64, 77
1, 1115159, Control_c, 0, 64, 79
1, 1115189, Control_c, 0, 64, 75
1, 1115204, Control_c, 0, 64, 65
1, 1115215, Note_off_c, 0, 52, 51
1, 1115219, Control_c, 0, 64, 44
1, 1115233, Control_c, 0, 64, 0
1, 1115240, Note_on_c, 0, 47, 71
1, 1115243, Note_on_c, 0, 80, 75
1, 1115248, Control_c, 0, 67, 49
1, 1115266, Note_on_c, 0, 68, 65
1, 1115293, Control_c, 0, 64, 39
1, 1115307, Control_c, 0, 64, 54
1, 1115307, Control_c, 0, 67, 48
1, 1115322, Control_c, 0, 64, 61
1, 1115326, Note_off_c, 0, 47, 62
1, 1115331, Note_on_c, 0, 52, 66
1, 1115337, Control_c, 0, 64, 65
1, 1115337, Control_c, 0, 67, 48
1, 1115352, Note_off_c, 0, 68, 58
1, 1115352, Control_c, 0, 64, 68
1, 1115352, Control_c, 0, 67, 47
1, 1115355, Note_off_c, 0, 81, 36
1, 1115366, Control_c, 0, 64, 70
1, 1115381, Control_c, 0, 64, 73
1, 1115396, Control_c, 0, 64, 75
1, 1115411, Control_c, 0, 64, 79
1, 1115426, Control_c, 0, 64, 83
1, 1115438, Note_on_c, 0, 56, 67
1, 1115439, Note_off_c, 0, 52, 61
1, 1115440, Control_c, 0, 64, 84
1, 1115440, Control_c, 0, 67, 48
1, 1115455, Control_c, 0, 64, 84
1, 1115455, Control_c, 0, 67, 48
1, 1115470, Control_c, 0, 64, 76
1, 1115470, Control_c, 0, 67, 49
1, 1115485, Control_c, 0, 64, 63
1, 1115485, Control_c, 0, 67, 50
1, 1115500, Control_c, 0, 64, 46
1, 1115500, Control_c, 0, 67, 50
1, 1115514, Control_c, 0, 64, 28
1, 1115514, Control_c, 0, 67, 51
1, 1115519, Note_on_c, 0, 78, 72
1, 1115529, Control_c, 0, 64, 31
1, 1115531, Note_on_c, 0, 47, 70
1, 1115531, Note_on_c, 0, 66, 72
1, 1115531, Note_off_c, 0, 56, 58
1, 1115544, Control_c, 0, 64, 51
1, 1115556, Note_off_c, 0, 80, 60
1, 1115559, Control_c, 0, 64, 63
1, 1115559, Control_c, 0, 67, 52
1, 1115573, Control_c, 0, 64, 70
1, 1115588, Control_c, 0, 64, 77
1, 1115591, Note_off_c, 0, 78, 62
1, 1115603, Control_c, 0, 64, 82
1, 1115618, Control_c, 0, 64, 86
1, 1115621, Note_off_c, 0, 47, 62
1, 1115621, Note_on_c, 0, 51, 74
1, 1115633, Control_c, 0, 64, 91
1, 1115648, Control_c, 0, 64, 94
1, 1115648, Control_c, 0, 67, 51
1, 1115663, Note_off_c, 0, 66, 63
1, 1115663, Control_c, 0, 64, 97
1, 1115678, Control_c, 0, 64, 99
1, 1115678, Control_c, 0, 67, 50
1, 1115694, Note_off_c, 0, 51, 61
1, 1115705, Note_on_c, 0, 57, 67
1, 1115707, Control_c, 0, 64, 101
1, 1115767, Control_c, 0, 64, 97
1, 1115767, Control_c, 0, 67, 50
1, 1115782, Control_c, 0, 64, 79
1, 1115784, Note_off_c, 0, 57, 59
1, 1115797, Control_c, 0, 64, 60
1, 1115797, Control_c, 0, 67, 49
1, 1115810, Note_on_c, 0, 76, 75
1, 1115812, Control_c, 0, 64, 0
1, 1115812, Control_c, 0, 67, 49
1, 1115815, Note_on_c, 0, 52, 73
1, 1115827, Control_c, 0, 67, 48
1, 1115828, Note_on_c, 0, 64, 68
1, 1115842, Control_c, 0, 67, 48
1, 1115856, Control_c, 0, 67, 47
1, 1115871, Control_c, 0, 64, 43
1, 1115871, Control_c, 0, 67, 46
1, 1115886, Control_c, 0, 64, 60
1, 1115896, Note_on_c, 0, 56, 80
1, 1115908, Control_c, 0, 64, 69
1, 1115908, Control_c, 0, 67, 45
1, 1115911, Note_off_c, 0, 52, 63
1, 1115923, Control_c, 0, 64, 78
1, 1115935, Note_off_c, 0, 64, 61
1, 1115937, Control_c, 0, 64, 88
1, 1115952, Control_c, 0, 64, 97
1, 1115967, Control_c, 0, 64, 108
1, 1115968, Note_off_c, 0, 76, 55
1, 1115982, Control_c, 0, 64, 127
1, 1115992, Note_on_c, 0, 59, 81
1, 1116022, Note_off_c, 0, 56, 60
1, 1116026, Control_c, 0, 67, 45
1, 1116047, Note_off_c, 0, 59, 64
1, 1116086, Note_on_c, 0, 64, 73
1, 1116100, Control_c, 0, 64, 101
1, 1116115, Control_c, 0, 64, 85
1, 1116129, Control_c, 0, 64, 75
1, 1116144, Control_c, 0, 64, 67
1, 1116144, Control_c, 0, 67, 45
1, 1116159, Control_c, 0, 64, 60
1, 1116165, Note_off_c, 0, 64, 43
1, 1116170, Note_on_c, 0, 68, 77
1, 1116174, Control_c, 0, 64, 54
1, 1116188, Control_c, 0, 64, 51
1, 1116203, Control_c, 0, 64, 51
1, 1116218, Control_c, 0, 64, 52
1, 1116248, Note_off_c, 0, 68, 59
1, 1116255, Note_on_c, 0, 71, 73
1, 1116292, Control_c, 0, 64, 52
1, 1116322, Control_c, 0, 64, 53
1, 1116347, Note_off_c, 0, 71, 60
1, 1116351, Control_c, 0, 64, 53
1, 1116358, Note_on_c, 0, 59, 93
1, 1116365, Note_on_c, 0, 64, 72
1, 1116381, Control_c, 0, 64, 54
1, 1116411, Control_c, 0, 64, 54
1, 1116426, Control_c, 0, 64, 55
1, 1116437, Note_off_c, 0, 64, 57
1, 1116451, Note_on_c, 0, 68, 72
1, 1116456, Note_off_c, 0, 59, 65
1, 1116470, Control_c, 0, 64, 55
1, 1116530, Control_c, 0, 64, 56
1, 1116547, Note_on_c, 0, 71, 68
1, 1116562, Note_off_c, 0, 68, 57
1, 1116656, Control_c, 0, 64, 56
1, 1116659, Note_off_c, 0, 71, 57
1, 1116661, Note_on_c, 0, 59, 88
1, 1116667, Note_on_c, 0, 64, 64
1, 1116700, Control_c, 0, 67, 46
1, 1116724, Note_off_c, 0, 59, 63
1, 1116748, Note_off_c, 0, 64, 59
1, 1116758, Note_on_c, 0, 68, 68
1, 1116834, Control_c, 0, 64, 57
1, 1116849, Control_c, 0, 67, 46
1, 1116859, Note_on_c, 0, 71, 60
1, 1116876, Note_off_c, 0, 68, 59
1, 1116922, Note_off_c, 0, 71, 63
1, 1116951, Note_on_c, 0, 63, 73
1, 1116954, Note_on_c, 0, 59, 90
1, 1116968, Control_c, 0, 67, 47
1, 1117038, Note_off_c, 0, 63, 56
1, 1117042, Note_on_c, 0, 66, 70
1, 1117131, Note_on_c, 0, 71, 70
1, 1117155, Note_off_c, 0, 66, 59
1, 1117209, Note_off_c, 0, 71, 62
1, 1117229, Note_on_c, 0, 63, 77
1, 1117264, Control_c, 0, 67, 48
1, 1117300, Note_off_c, 0, 59, 65
1, 1117310, Note_off_c, 0, 63, 52
1, 1117320, Note_on_c, 0, 66, 74
1, 1117425, Note_on_c, 0, 71, 68
1, 1117444, Note_off_c, 0, 66, 59
1, 1117517, Note_on_c, 0, 59, 83
1, 1117531, Note_off_c, 0, 71, 62
1, 1117541, Note_on_c, 0, 66, 79
1, 1117545, Note_off_c, 0, 59, 65
1, 1117554, Control_c, 0, 67, 48
1, 1117569, Control_c, 0, 67, 49
1, 1117591, Note_off_c, 0, 66, 60
1, 1117598, Control_c, 0, 67, 50
1, 1117613, Control_c, 0, 67, 52
1, 1117614, Note_on_c, 0, 69, 70
1, 1117627, Control_c, 0, 67, 53
1, 1117642, Control_c, 0, 67, 54
1, 1117674, Note_on_c, 0, 59, 89
1, 1117704, Note_on_c, 0, 71, 75
1, 1117711, Note_off_c, 0, 59, 66
1, 1117714, Note_off_c, 0, 69, 58
1, 1117717, Control_c, 0, 64, 56
1, 1117785, Note_off_c, 0, 71, 62
1, 1117791, Note_on_c, 0, 66, 74
1, 1117803, Note_on_c, 0, 61, 88
1, 1117836, Note_off_c, 0, 61, 68
1, 1117847, Note_off_c, 0, 66, 63
1, 1117865, Control_c, 0, 64, 56
1, 1117880, Control_c, 0, 64, 55
1, 1117890, Note_on_c, 0, 69, 64
1, 1117894, Control_c, 0, 64, 54
1, 1117909, Control_c, 0, 64, 52
1, 1117924, Control_c, 0, 64, 48
1, 1117931, Note_on_c, 0, 63, 88
1, 1117939, Control_c, 0, 64, 38
1, 1117953, Control_c, 0, 64, 0
1, 1117955, Note_off_c, 0, 63, 68
1, 1117957, Note_off_c, 0, 69, 61
1, 1117968, Control_c, 0, 67, 54
1, 1117973, Note_on_c, 0, 71, 70
1, 1117983, Control_c, 0, 67, 55
1, 1117998, Control_c, 0, 67, 56
1, 1118057, Control_c, 0, 67, 55
1, 1118062, Note_off_c, 0, 71, 62
1, 1118087, Note_on_c, 0, 67, 83
1, 1118087, Control_c, 0, 64, 38
1, 1118087, Control_c, 0, 67, 54
1, 1118090, Note_on_c, 0, 64, 91
1, 1118101, Control_c, 0, 64, 60
1, 1118117, Control_c, 0, 64, 71
1, 1118132, Control_c, 0, 64, 82
1, 1118155, Control_c, 0, 64, 95
1, 1118160, Note_off_c, 0, 67, 55
1, 1118170, Control_c, 0, 64, 107
1, 1118179, Note_on_c, 0, 71, 80
1, 1118185, Control_c, 0, 64, 127
1, 1118185, Control_c, 0, 67, 54
1, 1118205, Note_off_c, 0, 64, 62
1, 1118266, Note_on_c, 0, 67, 74
1, 1118275, Note_off_c, 0, 71, 58
1, 1118329, Note_off_c, 0, 67, 62
1, 1118349, Note_on_c, 0, 64, 84
1, 1118376, Note_off_c, 0, 64, 67
1, 1118406, Control_c, 0, 64, 103
1, 1118421, Control_c, 0, 64, 92
1, 1118430, Note_on_c, 0, 67, 73
1, 1118436, Control_c, 0, 64, 86
1, 1118450, Control_c, 0, 64, 81
1, 1118461, Note_off_c, 0, 67, 57
1, 1118465, Control_c, 0, 64, 76
1, 1118480, Control_c, 0, 64, 72
1, 1118495, Control_c, 0, 64, 68
1, 1118510, Control_c, 0, 64, 65
1, 1118512, Note_on_c, 0, 71, 78
1, 1118525, Control_c, 0, 64, 65
1, 1118525, Control_c, 0, 67, 53
1, 1118539, Control_c, 0, 64, 64
1, 1118547, Note_off_c, 0, 71, 60
1, 1118554, Control_c, 0, 64, 64
1, 1118569, Control_c, 0, 64, 63
1, 1118569, Control_c, 0, 67, 53
1, 1118584, Control_c, 0, 64, 62
1, 1118599, Control_c, 0, 64, 62
1, 1118614, Control_c, 0, 64, 61
1, 1118618, Note_on_c, 0, 52, 79
1, 1118623, Note_on_c, 0, 71, 81
1, 1118644, Control_c, 0, 67, 52
1, 1118652, Note_off_c, 0, 52, 64
1, 1118671, Note_off_c, 0, 71, 62
1, 1118688, Control_c, 0, 64, 61
1, 1118706, Note_on_c, 0, 74, 80
1, 1118717, Control_c, 0, 64, 60
1, 1118732, Control_c, 0, 64, 59
1, 1118747, Control_c, 0, 64, 57
1, 1118759, Note_on_c, 0, 52, 88
1, 1118762, Control_c, 0, 64, 54
1, 1118776, Control_c, 0, 64, 50
1, 1118781, Note_off_c, 0, 74, 64
1, 1118784, Note_on_c, 0, 76, 75
1, 1118791, Control_c, 0, 64, 46
1, 1118804, Note_off_c, 0, 52, 64
1, 1118806, Control_c, 0, 64, 39
1, 1118821, Control_c, 0, 64, 0
1, 1118836, Control_c, 0, 67, 53
1, 1118861, Note_off_c, 0, 76, 62
1, 1118878, Note_on_c, 0, 71, 82
1, 1118892, Note_on_c, 0, 54, 88
1, 1118929, Note_off_c, 0, 54, 70
1, 1118933, Control_c, 0, 67, 53
1, 1118940, Note_off_c, 0, 71, 62
1, 1118981, Note_on_c, 0, 74, 84
1, 1119025, Note_on_c, 0, 56, 86
1, 1119048, Note_off_c, 0, 56, 71
1, 1119072, Note_off_c, 0, 74, 59
1, 1119077, Note_on_c, 0, 76, 77
1, 1119096, Control_c, 0, 67, 53
1, 1119126, Control_c, 0, 67, 52
1, 1119155, Control_c, 0, 67, 54
1, 1119163, Note_off_c, 0, 76, 63
1, 1119170, Control_c, 0, 67, 54
1, 1119185, Control_c, 0, 67, 55
1, 1119188, Note_on_c, 0, 69, 81
1, 1119191, Note_on_c, 0, 57, 92
1, 1119229, Control_c, 0, 64, 39
1, 1119244, Control_c, 0, 64, 63
1, 1119245, Note_off_c, 0, 69, 58
1, 1119259, Control_c, 0, 64, 71
1, 1119273, Control_c, 0, 64, 82
1, 1119275, Note_on_c, 0, 72, 78
1, 1119288, Control_c, 0, 64, 97
1, 1119303, Control_c, 0, 64, 127
1, 1119333, Control_c, 0, 67, 54
1, 1119347, Control_c, 0, 67, 54
1, 1119362, Note_off_c, 0, 72, 62
1, 1119362, Control_c, 0, 67, 53
1, 1119365, Note_on_c, 0, 76, 80
1, 1119377, Control_c, 0, 67, 53
1, 1119392, Control_c, 0, 67, 52
1, 1119407, Control_c, 0, 67, 52
1, 1119422, Control_c, 0, 67, 51
1, 1119434, Note_off_c, 0, 57, 62
1, 1119437, Control_c, 0, 67, 50
1, 1119443, Note_off_c, 0, 76, 61
1, 1119453, Note_on_c, 0, 69, 79
1, 1119514, Note_off_c, 0, 69, 54
1, 1119535, Note_on_c, 0, 72, 78
1, 1119610, Note_off_c, 0, 72, 61
1, 1119619, Note_on_c, 0, 76, 78
1, 1119656, Note_off_c, 0, 76, 64
1, 1119696, Control_c, 0, 64, 111
1, 1119696, Control_c, 0, 67, 51
1, 1119711, Note_on_c, 0, 45, 74
1, 1119711, Control_c, 0, 64, 96
1, 1119711, Control_c, 0, 67, 52
1, 1119726, Control_c, 0, 64, 85
1, 1119726, Control_c, 0, 67, 52
1, 1119730, Note_on_c, 0, 76, 81
1, 1119741, Control_c, 0, 64, 77
1, 1119741, Control_c, 0, 67, 53
1, 1119750, Note_off_c, 0, 45, 62
1, 1119756, Control_c, 0, 64, 71
1, 1119756, Control_c, 0, 67, 53
1, 1119771, Control_c, 0, 64, 65
1, 1119778, Note_off_c, 0, 76, 63
1, 1119785, Control_c, 0, 64, 62
1, 1119800, Control_c, 0, 64, 60
1, 1119813, Note_on_c, 0, 81, 84
1, 1119815, Control_c, 0, 64, 58
1, 1119830, Control_c, 0, 64, 57
1, 1119849, Note_on_c, 0, 45, 81
1, 1119875, Control_c, 0, 64, 56
1, 1119890, Control_c, 0, 64, 54
1, 1119892, Note_off_c, 0, 81, 65
1, 1119893, Note_on_c, 0, 84, 81
1, 1119904, Note_off_c, 0, 45, 63
1, 1119904, Control_c, 0, 64, 53
1, 1119919, Control_c, 0, 64, 52
1, 1119934, Control_c, 0, 64, 51
1, 1119949, Control_c, 0, 64, 49
1, 1119964, Control_c, 0, 64, 47
1, 1119976, Note_off_c, 0, 84, 63
1, 1119978, Control_c, 0, 64, 44
1, 1119982, Note_on_c, 0, 47, 79
1, 1119983, Note_on_c, 0, 76, 83
1, 1119993, Control_c, 0, 64, 42
1, 1119993, Control_c, 0, 67, 54
1, 1120008, Control_c, 0, 64, 41
1, 1120017, Note_off_c, 0, 47, 66
1, 1120022, Control_c, 0, 64, 39
1, 1120037, Control_c, 0, 64, 38
1, 1120052, Control_c, 0, 64, 36
1, 1120054, Note_off_c, 0, 76, 59
1, 1120067, Control_c, 0, 64, 34
1, 1120067, Control_c, 0, 67, 54
1, 1120071, Note_on_c, 0, 81, 77
1, 1120082, Control_c, 0, 64, 32
1, 1120096, Control_c, 0, 64, 29
1, 1120096, Control_c, 0, 67, 55
1, 1120104, Note_on_c, 0, 48, 76
1, 1120111, Control_c, 0, 64, 0
1, 1120111, Control_c, 0, 67, 56
1, 1120134, Note_off_c, 0, 48, 62
1, 1120153, Note_off_c, 0, 81, 63
1, 1120156, Note_on_c, 0, 84, 75
1, 1120185, Control_c, 0, 67, 56
1, 1120256, Note_off_c, 0, 84, 60
1, 1120260, Note_on_c, 0, 47, 55
1, 1120265, Note_on_c, 0, 74, 67
1, 1120289, Control_c, 0, 64, 33
1, 1120304, Control_c, 0, 64, 48
1, 1120304, Control_c, 0, 67, 56
1, 1120319, Control_c, 0, 64, 57
1, 1120319, Control_c, 0, 67, 55
1, 1120334, Control_c, 0, 64, 61
1, 1120348, Control_c, 0, 64, 63
1, 1120360, Note_on_c, 0, 79, 66
1, 1120360, Note_off_c, 0, 74, 60
1, 1120363, Control_c, 0, 64, 65
1, 1120363, Control_c, 0, 67, 54
1, 1120378, Control_c, 0, 64, 68
1, 1120378, Control_c, 0, 67, 54
1, 1120400, Control_c, 0, 64, 72
1, 1120415, Control_c, 0, 64, 76
1, 1120415, Control_c, 0, 67, 53
1, 1120429, Control_c, 0, 64, 79
1, 1120429, Control_c, 0, 67, 53
1, 1120444, Control_c, 0, 64, 82
1, 1120448, Note_on_c, 0, 86, 79
1, 1120459, Control_c, 0, 64, 84
1, 1120459, Control_c, 0, 67, 52
1, 1120474, Control_c, 0, 64, 88
1, 1120479, Note_off_c, 0, 79, 62
1, 1120489, Control_c, 0, 64, 94
1, 1120504, Control_c, 0, 64, 105
1, 1120519, Control_c, 0, 64, 127
1, 1120534, Control_c, 0, 64, 123
1, 1120543, Note_off_c, 0, 86, 63
1, 1120549, Control_c, 0, 64, 96
1, 1120556, Note_on_c, 0, 76, 84
1, 1120564, Control_c, 0, 64, 74
1, 1120567, Note_on_c, 0, 48, 87
1, 1120578, Control_c, 0, 64, 59
1, 1120593, Control_c, 0, 64, 48
1, 1120596, Note_off_c, 0, 47, 61
1, 1120608, Control_c, 0, 64, 49
1, 1120623, Control_c, 0, 64, 57
1, 1120638, Control_c, 0, 64, 66
1, 1120653, Note_on_c, 0, 79, 79
1, 1120653, Control_c, 0, 64, 77
1, 1120664, Note_off_c, 0, 76, 59
1, 1120668, Control_c, 0, 64, 94
1, 1120683, Control_c, 0, 64, 127
1, 1120683, Control_c, 0, 67, 52
1, 1120698, Control_c, 0, 67, 51
1, 1120713, Control_c, 0, 67, 50
1, 1120734, Note_on_c, 0, 84, 83
1, 1120759, Note_off_c, 0, 79, 62
1, 1120831, Control_c, 0, 64, 83
1, 1120836, Note_on_c, 0, 74, 91
1, 1120837, Note_on_c, 0, 50, 98
1, 1120845, Control_c, 0, 64, 50
1, 1120845, Control_c, 0, 67, 52
1, 1120849, Note_off_c, 0, 48, 57
1, 1120851, Note_off_c, 0, 84, 62
1, 1120860, Control_c, 0, 64, 0
1, 1120860, Control_c, 0, 67, 52
1, 1120890, Control_c, 0, 64, 32
1, 1120905, Control_c, 0, 64, 58
1, 1120919, Control_c, 0, 64, 75
1, 1120924, Note_on_c, 0, 79, 79
1, 1120934, Control_c, 0, 64, 106
1, 1120937, Note_off_c, 0, 74, 60
1, 1120949, Control_c, 0, 64, 127
1, 1120964, Control_c, 0, 67, 52
1, 1120967, Note_off_c, 0, 50, 59
1, 1120978, Control_c, 0, 67, 51
1, 1121014, Note_on_c, 0, 83, 84
1, 1121020, Note_off_c, 0, 79, 64
1, 1121082, Control_c, 0, 67, 52
1, 1121092, Note_off_c, 0, 83, 67
1, 1121112, Note_on_c, 0, 74, 94
1, 1121112, Control_c, 0, 64, 71
1, 1121112, Control_c, 0, 67, 53
1, 1121127, Control_c, 0, 64, 36
1, 1121127, Control_c, 0, 67, 54
1, 1121130, Note_on_c, 0, 50, 94
1, 1121149, Control_c, 0, 64, 0
1, 1121149, Control_c, 0, 67, 54
1, 1121176, Note_off_c, 0, 50, 66
1, 1121178, Control_c, 0, 64, 39
1, 1121193, Control_c, 0, 64, 65
1, 1121193, Control_c, 0, 67, 54
1, 1121195, Note_off_c, 0, 74, 48
1, 1121208, Control_c, 0, 64, 87
1, 1121211, Note_on_c, 0, 78, 85
1, 1121223, Control_c, 0, 64, 127
1, 1121238, Control_c, 0, 67, 53
1, 1121267, Control_c, 0, 67, 53
1, 1121282, Control_c, 0, 67, 52
1, 1121292, Note_on_c, 0, 81, 88
1, 1121297, Control_c, 0, 67, 52
1, 1121305, Note_off_c, 0, 78, 58
1, 1121328, Control_c, 0, 67, 51
1, 1121372, Control_c, 0, 67, 50
1, 1121401, Control_c, 0, 67, 50
1, 1121446, Control_c, 0, 64, 105
1, 1121453, Note_on_c, 0, 83, 89
1, 1121460, Note_on_c, 0, 51, 96
1, 1121461, Control_c, 0, 64, 59
1, 1121463, Note_on_c, 0, 47, 79
1, 1121465, Note_on_c, 0, 39, 83
1, 1121467, Note_off_c, 0, 81, 62
1, 1121476, Control_c, 0, 64, 0
1, 1121476, Control_c, 0, 67, 52
1, 1121491, Control_c, 0, 67, 56
1, 1121505, Control_c, 0, 67, 57
1, 1121535, Control_c, 0, 67, 53
1, 1121550, Control_c, 0, 67, 45
1, 1121553, Note_on_c, 0, 81, 86
1, 1121565, Control_c, 0, 67, 35
1, 1121577, Note_off_c, 0, 83, 61
1, 1121580, Control_c, 0, 67, 0
1, 1121609, Control_c, 0, 64, 39
1, 1121624, Control_c, 0, 64, 64
1, 1121634, Note_on_c, 0, 78, 81
1, 1121637, Note_off_c, 0, 81, 65
1, 1121639, Control_c, 0, 64, 77
1, 1121654, Control_c, 0, 64, 98
1, 1121668, Control_c, 0, 64, 127
1, 1121689, Note_off_c, 0, 78, 61
1, 1121711, Note_on_c, 0, 71, 73
1, 1121750, Note_off_c, 0, 71, 61
1, 1121751, Note_off_c, 0, 51, 61
1, 1121769, Note_off_c, 0, 39, 60
1, 1121777, Note_off_c, 0, 47, 62
1, 1121807, Note_on_c, 0, 69, 80
1, 1121878, Note_off_c, 0, 69, 60
1, 1121899, Note_on_c, 0, 66, 78
1, 1121963, Note_off_c, 0, 66, 63
1, 1122009, Note_on_c, 0, 59, 90
1, 1122012, Note_on_c, 0, 47, 76
1, 1122016, Control_c, 0, 64, 84
1, 1122021, Note_on_c, 0, 39, 76
1, 1122031, Control_c, 0, 64, 58
1, 1122046, Control_c, 0, 64, 0
1, 1122079, Note_off_c, 0, 59, 64
1, 1122102, Note_on_c, 0, 71, 83
1, 1122105, Control_c, 0, 64, 51
1, 1122121, Control_c, 0, 64, 64
1, 1122123, Note_off_c, 0, 47, 58
1, 1122136, Note_off_c, 0, 39, 60
1, 1122136, Control_c, 0, 64, 72
1, 1122151, Control_c, 0, 64, 82
1, 1122166, Control_c, 0, 64, 98
1, 1122167, Note_off_c, 0, 71, 62
1, 1122176, Note_on_c, 0, 59, 83
1, 1122180, Control_c, 0, 64, 127
1, 1122248, Note_off_c, 0, 59, 63
1, 1122269, Control_c, 0, 64, 88
1, 1122272, Note_on_c, 0, 71, 84
1, 1122281, Note_on_c, 0, 47, 82
1, 1122283, Note_on_c, 0, 39, 76
1, 1122284, Control_c, 0, 64, 59
1, 1122298, Control_c, 0, 64, 0
1, 1122323, Note_off_c, 0, 47, 66
1, 1122331, Note_off_c, 0, 39, 62
1, 1122339, Note_off_c, 0, 71, 63
1, 1122353, Note_on_c, 0, 59, 84
1, 1122358, Control_c, 0, 64, 50
1, 1122373, Control_c, 0, 64, 65
1, 1122388, Control_c, 0, 64, 75
1, 1122403, Control_c, 0, 64, 86
1, 1122417, Control_c, 0, 64, 96
1, 1122432, Control_c, 0, 64, 102
1, 1122438, Note_on_c, 0, 71, 81
1, 1122440, Note_off_c, 0, 59, 59
1, 1122447, Control_c, 0, 64, 106
1, 1122535, Control_c, 0, 64, 100
1, 1122536, Note_off_c, 0, 71, 59
1, 1122550, Control_c, 0, 64, 78
1, 1122565, Control_c, 0, 64, 54
1, 1122567, Note_on_c, 0, 66, 80
1, 1122570, Note_on_c, 0, 48, 93
1, 1122578, Note_on_c, 0, 40, 79
1, 1122580, Control_c, 0, 64, 0
1, 1122620, Note_off_c, 0, 66, 64
1, 1122671, Note_on_c, 0, 69, 76
1, 1122734, Control_c, 0, 64, 32
1, 1122749, Control_c, 0, 64, 45
1, 1122754, Note_on_c, 0, 72, 78
1, 1122754, Note_off_c, 0, 69, 49
1, 1122763, Control_c, 0, 64, 57
1, 1122778, Control_c, 0, 64, 65
1, 1122793, Control_c, 0, 64, 70
1, 1122808, Control_c, 0, 64, 77
1, 1122823, Control_c, 0, 64, 87
1, 1122832, Note_off_c, 0, 72, 63
1, 1122838, Control_c, 0, 64, 102
1, 1122841, Note_on_c, 0, 78, 86
1, 1122853, Control_c, 0, 64, 127
1, 1122883, Note_off_c, 0, 78, 63
1, 1122926, Note_on_c, 0, 81, 90
1, 1122962, Note_off_c, 0, 40, 55
1, 1122965, Note_off_c, 0, 48, 55
1, 1122983, Note_off_c, 0, 81, 60
1, 1123008, Note_on_c, 0, 84, 81
1, 1123067, Note_off_c, 0, 84, 64
1, 1123106, Control_c, 0, 64, 99
1, 1123120, Control_c, 0, 64, 65
1, 1123135, Control_c, 0, 64, 28
1, 1123136, Note_on_c, 0, 90, 95
1, 1123139, Note_on_c, 0, 48, 96
1, 1123148, Note_on_c, 0, 40, 75
1, 1123150, Control_c, 0, 64, 0
1, 1123164, Control_c, 0, 64, 31
1, 1123179, Control_c, 0, 64, 57
1, 1123194, Control_c, 0, 64, 78
1, 1123204, Note_off_c, 0, 90, 64
1, 1123209, Control_c, 0, 64, 127
1, 1123219, Note_off_c, 0, 48, 57
1, 1123234, Note_on_c, 0, 78, 82
1, 1123236, Note_off_c, 0, 40, 59
1, 1123291, Note_off_c, 0, 78, 59
1, 1123314, Note_on_c, 0, 90, 81
1, 1123372, Control_c, 0, 64, 75
1, 1123394, Control_c, 0, 64, 35
1, 1123395, Note_off_c, 0, 90, 63
1, 1123409, Control_c, 0, 64, 0
1, 1123411, Note_on_c, 0, 78, 83
1, 1123412, Note_on_c, 0, 48, 91
1, 1123417, Note_on_c, 0, 40, 76
1, 1123438, Control_c, 0, 64, 52
1, 1123445, Note_off_c, 0, 48, 67
1, 1123453, Control_c, 0, 64, 71
1, 1123454, Note_off_c, 0, 40, 65
1, 1123469, Control_c, 0, 64, 97
1, 1123473, Note_off_c, 0, 78, 61
1, 1123484, Control_c, 0, 64, 127
1, 1123503, Note_on_c, 0, 90, 87
1, 1123546, Note_off_c, 0, 90, 65
1, 1123574, Note_on_c, 0, 78, 84
1, 1123619, Note_off_c, 0, 78, 61
1, 1123690, Control_c, 0, 64, 89
1, 1123705, Control_c, 0, 64, 59
1, 1123720, Note_on_c, 0, 83, 91
1, 1123722, Control_c, 0, 64, 0
1, 1123723, Note_on_c, 0, 47, 92
1, 1123724, Note_on_c, 0, 39, 89
1, 1123815, Note_on_c, 0, 81, 83
1, 1123840, Note_off_c, 0, 83, 61
1, 1123899, Control_c, 0, 64, 51
1, 1123905, Note_on_c, 0, 78, 81
1, 1123908, Note_off_c, 0, 81, 65
1, 1123914, Control_c, 0, 64, 63
1, 1123929, Control_c, 0, 64, 69
1, 1123944, Control_c, 0, 64, 76
1, 1123959, Control_c, 0, 64, 86
1, 1123965, Note_off_c, 0, 78, 61
1, 1123974, Control_c, 0, 64, 97
1, 1123988, Control_c, 0, 64, 116
1, 1123989, Note_on_c, 0, 71, 67
1, 1124003, Control_c, 0, 64, 127
1, 1124018, Note_off_c, 0, 71, 65
1, 1124081, Note_on_c, 0, 69, 78
1, 1124126, Note_off_c, 0, 39, 58
1, 1124130, Note_off_c, 0, 47, 55
1, 1124158, Note_off_c, 0, 69, 60
1, 1124170, Note_on_c, 0, 66, 79
1, 1124232, Note_off_c, 0, 66, 63
1, 1124263, Control_c, 0, 64, 91
1, 1124274, Note_on_c, 0, 59, 92
1, 1124277, Control_c, 0, 64, 59
1, 1124281, Note_on_c, 0, 47, 85
1, 1124284, Note_on_c, 0, 39, 78
1, 1124292, Control_c, 0, 64, 0
1, 1124336, Control_c, 0, 64, 41
1, 1124340, Note_off_c, 0, 59, 61
1, 1124351, Control_c, 0, 64, 60
1, 1124366, Control_c, 0, 64, 71
1, 1124370, Note_on_c, 0, 71, 85
1, 1124381, Control_c, 0, 64, 82
1, 1124385, Note_off_c, 0, 39, 58
1, 1124395, Control_c, 0, 64, 93
1, 1124402, Note_off_c, 0, 47, 50
1, 1124410, Control_c, 0, 64, 112
1, 1124425, Control_c, 0, 64, 127
1, 1124446, Note_on_c, 0, 59, 85
1, 1124450, Note_off_c, 0, 71, 57
1, 1124484, Control_c, 0, 64, 88
1, 1124499, Control_c, 0, 64, 59
1, 1124515, Control_c, 0, 64, 0
1, 1124516, Note_off_c, 0, 59, 63
1, 1124544, Control_c, 0, 64, 45
1, 1124547, Note_on_c, 0, 71, 84
1, 1124550, Note_on_c, 0, 39, 76
1, 1124552, Note_on_c, 0, 47, 77
1, 1124559, Control_c, 0, 64, 60
1, 1124574, Control_c, 0, 64, 69
1, 1124589, Control_c, 0, 64, 76
1, 1124604, Control_c, 0, 64, 82
1, 1124605, Note_off_c, 0, 39, 63
1, 1124609, Note_off_c, 0, 47, 60
1, 1124610, Note_off_c, 0, 71, 62
1, 1124618, Control_c, 0, 64, 86
1, 1124629, Note_on_c, 0, 59, 84
1, 1124633, Control_c, 0, 64, 90
1, 1124648, Control_c, 0, 64, 93
1, 1124663, Control_c, 0, 64, 96
1, 1124711, Note_off_c, 0, 59, 61
1, 1124715, Note_on_c, 0, 71, 76
1, 1124781, Control_c, 0, 64, 89
1, 1124786, Note_off_c, 0, 71, 60
1, 1124796, Control_c, 0, 64, 71
1, 1124811, Control_c, 0, 64, 40
1, 1124820, Note_on_c, 0, 66, 85
1, 1124821, Note_on_c, 0, 48, 100
1, 1124826, Control_c, 0, 64, 0
1, 1124827, Note_on_c, 0, 40, 85
1, 1124871, Note_off_c, 0, 66, 66
1, 1124924, Note_on_c, 0, 69, 81
1, 1124985, Note_off_c, 0, 69, 59
1, 1124996, Control_c, 0, 64, 31
1, 1125011, Control_c, 0, 64, 42
1, 1125013, Note_on_c, 0, 72, 77
1, 1125026, Control_c, 0, 64, 53
1, 1125041, Control_c, 0, 64, 58
1, 1125056, Control_c, 0, 64, 60
1, 1125071, Control_c, 0, 64, 61
1, 1125080, Note_off_c, 0, 72, 62
1, 1125086, Control_c, 0, 64, 63
1, 1125100, Note_on_c, 0, 78, 82
1, 1125100, Control_c, 0, 64, 65
1, 1125115, Control_c, 0, 64, 67
1, 1125130, Control_c, 0, 64, 70
1, 1125144, Note_off_c, 0, 78, 64
1, 1125144, Control_c, 0, 64, 70
1, 1125159, Control_c, 0, 64, 71
1, 1125174, Control_c, 0, 64, 72
1, 1125189, Control_c, 0, 64, 73
1, 1125191, Note_on_c, 0, 81, 88
1, 1125204, Control_c, 0, 64, 73
1, 1125218, Control_c, 0, 64, 74
1, 1125233, Control_c, 0, 64, 74
1, 1125247, Note_off_c, 0, 40, 52
1, 1125248, Control_c, 0, 64, 75
1, 1125249, Note_off_c, 0, 48, 56
1, 1125262, Control_c, 0, 64, 75
1, 1125264, Note_off_c, 0, 81, 58
1, 1125267, Note_on_c, 0, 84, 83
1, 1125277, Control_c, 0, 64, 76
1, 1125308, Control_c, 0, 64, 74
1, 1125323, Control_c, 0, 64, 65
1, 1125333, Note_off_c, 0, 84, 64
1, 1125338, Control_c, 0, 64, 40
1, 1125353, Control_c, 0, 64, 0
1, 1125374, Note_on_c, 0, 48, 74
1, 1125375, Note_on_c, 0, 90, 88
1, 1125384, Note_on_c, 0, 40, 58
1, 1125397, Control_c, 0, 64, 48
1, 1125412, Control_c, 0, 64, 62
1, 1125427, Control_c, 0, 64, 71
1, 1125441, Control_c, 0, 64, 77
1, 1125447, Note_off_c, 0, 90, 65
1, 1125456, Control_c, 0, 64, 82
1, 1125470, Note_on_c, 0, 78, 82
1, 1125471, Control_c, 0, 64, 88
1, 1125486, Note_off_c, 0, 40, 55
1, 1125486, Control_c, 0, 64, 96
1, 1125501, Control_c, 0, 64, 104
1, 1125507, Note_off_c, 0, 48, 38
1, 1125515, Control_c, 0, 64, 115
1, 1125530, Control_c, 0, 64, 127
1, 1125535, Note_off_c, 0, 78, 59
1, 1125564, Note_on_c, 0, 90, 80
1, 1125604, Control_c, 0, 64, 123
1, 1125619, Control_c, 0, 64, 80
1, 1125641, Control_c, 0, 64, 58
1, 1125649, Note_off_c, 0, 90, 64
1, 1125656, Control_c, 0, 64, 43
1, 1125667, Note_on_c, 0, 78, 78
1, 1125682, Note_on_c, 0, 48, 59
1, 1125686, Control_c, 0, 64, 52
1, 1125693, Note_on_c, 0, 40, 46
1, 1125701, Control_c, 0, 64, 59
1, 1125715, Control_c, 0, 64, 63
1, 1125730, Control_c, 0, 64, 67
1, 1125733, Note_off_c, 0, 78, 60
1, 1125745, Control_c, 0, 64, 72
1, 1125756, Note_off_c, 0, 48, 60
1, 1125760, Control_c, 0, 64, 76
1, 1125765, Note_on_c, 0, 90, 80
1, 1125774, Control_c, 0, 64, 79
1, 1125777, Note_off_c, 0, 40, 60
1, 1125789, Control_c, 0, 64, 81
1, 1125804, Control_c, 0, 64, 83
1, 1125819, Control_c, 0, 64, 85
1, 1125825, Note_off_c, 0, 90, 65
1, 1125834, Control_c, 0, 64, 86
1, 1125849, Control_c, 0, 64, 87
1, 1125852, Note_on_c, 0, 78, 79
1, 1125948, Note_off_c, 0, 78, 52
1, 1125982, Control_c, 0, 64, 86
1, 1125997, Control_c, 0, 64, 85
1, 1126012, Control_c, 0, 64, 84
1, 1126027, Control_c, 0, 64, 82
1, 1126041, Control_c, 0, 64, 80
1, 1126056, Control_c, 0, 64, 77
1, 1126059, Note_on_c, 0, 93, 74
1, 1126070, Note_on_c, 0, 47, 50
1, 1126071, Control_c, 0, 64, 74
1, 1126078, Note_on_c, 0, 39, 57
1, 1126085, Control_c, 0, 64, 72
1, 1126100, Control_c, 0, 64, 69
1, 1126117, Control_c, 0, 64, 66
1, 1126131, Control_c, 0, 64, 64
1, 1126146, Control_c, 0, 64, 62
1, 1126161, Control_c, 0, 64, 61
1, 1126186, Note_on_c, 0, 92, 71
1, 1126205, Control_c, 0, 64, 61
1, 1126210, Note_off_c, 0, 93, 57
1, 1126235, Control_c, 0, 64, 60
1, 1126274, Note_on_c, 0, 90, 71
1, 1126294, Control_c, 0, 64, 60
1, 1126294, Control_c, 0, 67, 46
1, 1126305, Note_off_c, 0, 92, 65
1, 1126309, Control_c, 0, 67, 63
1, 1126324, Control_c, 0, 67, 88
1, 1126338, Note_off_c, 0, 90, 64
1, 1126338, Control_c, 0, 64, 59
1, 1126338, Control_c, 0, 67, 113
1, 1126353, Control_c, 0, 67, 127
1, 1126358, Note_on_c, 0, 88, 73
1, 1126390, Control_c, 0, 64, 59
1, 1126414, Note_off_c, 0, 88, 63
1, 1126450, Note_on_c, 0, 87, 72
1, 1126531, Note_on_c, 0, 85, 70
1, 1126538, Control_c, 0, 64, 59
1, 1126563, Note_off_c, 0, 87, 62
1, 1126597, Note_off_c, 0, 47, 50
1, 1126608, Note_on_c, 0, 83, 72
1, 1126613, Note_off_c, 0, 85, 64
1, 1126633, Note_off_c, 0, 39, 61
1, 1126674, Note_off_c, 0, 83, 62
1, 1126698, Note_on_c, 0, 81, 68
1, 1126740, Note_off_c, 0, 81, 60
1, 1126776, Control_c, 0, 64, 59
1, 1126781, Note_on_c, 0, 80, 67
1, 1126864, Note_on_c, 0, 78, 69
1, 1126874, Note_off_c, 0, 80, 61
1, 1126925, Note_off_c, 0, 78, 62
1, 1126946, Note_on_c, 0, 76, 68
1, 1127002, Note_off_c, 0, 76, 60
1, 1127032, Note_on_c, 0, 75, 67
1, 1127115, Note_on_c, 0, 73, 60
1, 1127140, Note_off_c, 0, 75, 57
1, 1127154, Control_c, 0, 64, 58
1, 1127199, Note_off_c, 0, 73, 63
1, 1127199, Control_c, 0, 64, 58
1, 1127209, Note_on_c, 0, 71, 61
1, 1127228, Control_c, 0, 64, 57
1, 1127258, Control_c, 0, 64, 57
1, 1127259, Note_off_c, 0, 71, 59
1, 1127288, Note_on_c, 0, 69, 56
1, 1127317, Control_c, 0, 64, 56
1, 1127321, Note_off_c, 0, 69, 64
1, 1127367, Note_on_c, 0, 68, 59
1, 1127391, Control_c, 0, 64, 56
1, 1127454, Note_off_c, 0, 68, 60
1, 1127457, Note_on_c, 0, 66, 63
1, 1127524, Control_c, 0, 64, 55
1, 1127525, Note_off_c, 0, 66, 64
1, 1127549, Note_on_c, 0, 64, 49
1, 1127584, Control_c, 0, 64, 55
1, 1127607, Note_off_c, 0, 64, 57
1, 1127613, Control_c, 0, 64, 54
1, 1127650, Note_on_c, 0, 63, 50
1, 1127672, Control_c, 0, 64, 54
1, 1127734, Note_off_c, 0, 63, 61
1, 1127736, Note_on_c, 0, 61, 56
1, 1127747, Control_c, 0, 64, 53
1, 1127792, Control_c, 0, 64, 53
1, 1127792, Note_off_c, 0, 61, 62
1, 1127807, Control_c, 0, 64, 52
1, 1127822, Note_on_c, 0, 59, 63
1, 1127851, Control_c, 0, 64, 52
1, 1127858, Note_off_c, 0, 59, 64
1, 1127903, Control_c, 0, 64, 51
1, 1127910, Note_on_c, 0, 58, 58
1, 1127947, Control_c, 0, 64, 51
1, 1127956, Note_off_c, 0, 58, 62
1, 1127962, Control_c, 0, 64, 49
1, 1127977, Control_c, 0, 64, 41
1, 1127989, Note_on_c, 0, 59, 55
1, 1127992, Control_c, 0, 64, 0
1, 1128024, Note_off_c, 0, 59, 62
1, 1128082, Note_on_c, 0, 61, 50
1, 1128107, Note_off_c, 0, 61, 58
1, 1128166, Note_on_c, 0, 63, 64
1, 1128209, Note_off_c, 0, 63, 63
1, 1128272, Note_on_c, 0, 64, 24
1, 1128309, Note_off_c, 0, 64, 51
1, 1128356, Note_on_c, 0, 66, 55
1, 1128404, Note_off_c, 0, 66, 62
1, 1128455, Note_on_c, 0, 68, 45
1, 1128491, Note_off_c, 0, 68, 65
1, 1128551, Note_on_c, 0, 69, 41
1, 1128613, Note_off_c, 0, 69, 54
1, 1128648, Note_on_c, 0, 70, 46
1, 1128725, Control_c, 0, 64, 30
1, 1128738, Note_off_c, 0, 70, 56
1, 1128740, Control_c, 0, 64, 36
1, 1128755, Control_c, 0, 64, 41
1, 1128770, Control_c, 0, 64, 44
1, 1128785, Control_c, 0, 64, 42
1, 1128790, Note_on_c, 0, 71, 54
1, 1128800, Control_c, 0, 64, 33
1, 1128815, Control_c, 0, 64, 0
1, 1128825, Note_on_c, 0, 52, 32
1, 1128844, Control_c, 0, 64, 30
1, 1128859, Control_c, 0, 64, 37
1, 1128874, Control_c, 0, 64, 44
1, 1128889, Control_c, 0, 64, 51
1, 1128904, Control_c, 0, 64, 56
1, 1128918, Control_c, 0, 64, 58
1, 1128928, Note_off_c, 0, 52, 46
1, 1128933, Control_c, 0, 64, 59
1, 1128946, Note_on_c, 0, 55, 40
1, 1128948, Control_c, 0, 64, 61
1, 1128963, Control_c, 0, 64, 62
1, 1128977, Control_c, 0, 64, 63
1, 1128987, Note_off_c, 0, 71, 54
1, 1128992, Control_c, 0, 64, 64
1, 1129005, Note_off_c, 0, 55, 57
1, 1129007, Control_c, 0, 64, 65
1, 1129022, Control_c, 0, 64, 65
1, 1129037, Control_c, 0, 64, 66
1, 1129042, Note_on_c, 0, 59, 35
1, 1129051, Control_c, 0, 64, 66
1, 1129066, Control_c, 0, 64, 67
1, 1129081, Control_c, 0, 64, 67
1, 1129096, Control_c, 0, 64, 68
1, 1129106, Note_off_c, 0, 59, 50
1, 1129110, Note_on_c, 0, 71, 73
1, 1129110, Control_c, 0, 64, 68
1, 1129125, Control_c, 0, 64, 69
1, 1129138, Note_on_c, 0, 52, 43
1, 1129140, Control_c, 0, 64, 69
1, 1129170, Control_c, 0, 64, 70
1, 1129195, Note_off_c, 0, 52, 58
1, 1129199, Control_c, 0, 64, 70
1, 1129229, Note_on_c, 0, 55, 43
1, 1129260, Note_off_c, 0, 71, 57
1, 1129272, Note_off_c, 0, 55, 60
1, 1129322, Note_on_c, 0, 59, 41
1, 1129406, Note_off_c, 0, 59, 0
1, 1129415, Control_c, 0, 64, 69
1, 1129430, Control_c, 0, 64, 68
1, 1129443, Poly_aftertouch_c, 0, 59, 127
1, 1129445, Control_c, 0, 64, 66
1, 1129460, Control_c, 0, 64, 64
1, 1129475, Control_c, 0, 64, 61
1, 1129478, Note_on_c, 0, 71, 56
1, 1129489, Control_c, 0, 64, 58
1, 1129503, Poly_aftertouch_c, 0, 59, 0
1, 1129504, Control_c, 0, 64, 52
1, 1129515, Note_on_c, 0, 51, 44
1, 1129519, Control_c, 0, 64, 37
1, 1129533, Control_c, 0, 64, 0
1, 1129610, Note_off_c, 0, 51, 56
1, 1129628, Note_on_c, 0, 54, 44
1, 1129637, Control_c, 0, 64, 40
1, 1129652, Control_c, 0, 64, 51
1, 1129667, Control_c, 0, 64, 58
1, 1129682, Control_c, 0, 64, 61
1, 1129697, Control_c, 0, 64, 63
1, 1129712, Control_c, 0, 64, 65
1, 1129714, Note_off_c, 0, 54, 55
1, 1129726, Note_on_c, 0, 59, 41
1, 1129727, Control_c, 0, 64, 66
1, 1129741, Control_c, 0, 64, 68
1, 1129756, Control_c, 0, 64, 69
1, 1129771, Control_c, 0, 64, 70
1, 1129786, Control_c, 0, 64, 71
1, 1129801, Note_off_c, 0, 59, 56
1, 1129801, Control_c, 0, 64, 71
1, 1129818, Note_on_c, 0, 51, 46
1, 1129830, Control_c, 0, 64, 72
1, 1129845, Note_off_c, 0, 71, 60
1, 1129885, Note_off_c, 0, 51, 59
1, 1129909, Note_on_c, 0, 54, 46
1, 1129948, Control_c, 0, 64, 71
1, 1129956, Note_off_c, 0, 54, 56
1, 1129978, Control_c, 0, 64, 71
1, 1129993, Control_c, 0, 64, 70
1, 1130004, Note_on_c, 0, 59, 51
1, 1130007, Control_c, 0, 64, 69
1, 1130022, Control_c, 0, 64, 67
1, 1130037, Control_c, 0, 64, 65
1, 1130052, Control_c, 0, 64, 63
1, 1130060, Note_off_c, 0, 59, 52
1, 1130067, Control_c, 0, 64, 59
1, 1130067, Control_c, 0, 67, 113
1, 1130082, Control_c, 0, 64, 53
1, 1130082, Control_c, 0, 67, 86
1, 1130096, Control_c, 0, 64, 42
1, 1130096, Control_c, 0, 67, 50
1, 1130102, Note_on_c, 0, 71, 58
1, 1130111, Note_on_c, 0, 47, 47
1, 1130112, Control_c, 0, 64, 0
1, 1130112, Control_c, 0, 67, 0
1, 1130141, Note_off_c, 0, 71, 64
1, 1130188, Note_off_c, 0, 47, 54
1, 1130230, Note_on_c, 0, 54, 44
1, 1130245, Note_on_c, 0, 71, 65
1, 1130285, Note_off_c, 0, 71, 59
1, 1130290, Note_off_c, 0, 54, 58
1, 1130317, Note_on_c, 0, 57, 41
1, 1130389, Note_off_c, 0, 57, 55
1, 1130405, Note_on_c, 0, 73, 63
1, 1130418, Note_on_c, 0, 47, 39
1, 1130433, Note_off_c, 0, 73, 66
1, 1130474, Note_off_c, 0, 47, 58
1, 1130508, Note_on_c, 0, 54, 38
1, 1130550, Note_on_c, 0, 75, 62
1, 1130565, Note_off_c, 0, 54, 56
1, 1130594, Note_off_c, 0, 75, 54
1, 1130600, Note_on_c, 0, 57, 41
1, 1130750, Note_off_c, 0, 57, 33
1, 1130758, Note_on_c, 0, 76, 56
1, 1130802, Control_c, 0, 64, 39
1, 1130811, Note_on_c, 0, 48, 33
1, 1130817, Control_c, 0, 64, 48
1, 1130831, Control_c, 0, 64, 55
1, 1130846, Control_c, 0, 64, 58
1, 1130861, Control_c, 0, 64, 59
1, 1130883, Control_c, 0, 64, 61
1, 1130898, Control_c, 0, 64, 62
1, 1130913, Control_c, 0, 64, 65
1, 1130928, Control_c, 0, 64, 66
1, 1130943, Control_c, 0, 64, 69
1, 1130958, Control_c, 0, 64, 71
1, 1130970, Note_on_c, 0, 52, 35
1, 1130973, Control_c, 0, 64, 73
1, 1130987, Control_c, 0, 64, 76
1, 1131002, Control_c, 0, 64, 80
1, 1131017, Control_c, 0, 64, 83
1, 1131017, Control_c, 0, 67, 39
1, 1131032, Note_off_c, 0, 48, 32
1, 1131032, Control_c, 0, 64, 87
1, 1131032, Control_c, 0, 67, 54
1, 1131047, Control_c, 0, 64, 92
1, 1131047, Control_c, 0, 67, 71
1, 1131061, Control_c, 0, 64, 97
1, 1131061, Control_c, 0, 67, 86
1, 1131076, Control_c, 0, 64, 102
1, 1131076, Control_c, 0, 67, 97
1, 1131080, Note_off_c, 0, 52, 37
1, 1131091, Note_on_c, 0, 55, 32
1, 1131091, Control_c, 0, 64, 109
1, 1131091, Control_c, 0, 67, 105
1, 1131105, Control_c, 0, 64, 121
1, 1131105, Control_c, 0, 67, 112
1, 1131120, Control_c, 0, 64, 127
1, 1131120, Control_c, 0, 67, 120
1, 1131135, Control_c, 0, 67, 127
1, 1131165, Note_off_c, 0, 55, 52
1, 1131182, Note_on_c, 0, 48, 39
1, 1131255, Note_off_c, 0, 76, 33
1, 1131261, Note_off_c, 0, 48, 53
1, 1131310, Note_on_c, 0, 52, 33
1, 1131354, Note_off_c, 0, 52, 58
1, 1131393, Note_on_c, 0, 55, 35
1, 1131455, Note_off_c, 0, 55, 48
1, 1131497, Note_on_c, 0, 67, 51
1, 1131514, Note_on_c, 0, 48, 24
1, 1131569, Note_off_c, 0, 48, 55
1, 1131614, Note_on_c, 0, 52, 36
1, 1131648, Note_off_c, 0, 67, 56
1, 1131674, Note_off_c, 0, 52, 55
1, 1131711, Note_on_c, 0, 55, 33
1, 1131767, Note_off_c, 0, 55, 49
1, 1131796, Note_on_c, 0, 67, 60
1, 1131808, Note_on_c, 0, 48, 42
1, 1131859, Note_off_c, 0, 48, 58
1, 1131900, Note_on_c, 0, 52, 39
1, 1131909, Note_off_c, 0, 67, 54
1, 1131948, Note_off_c, 0, 52, 58
1, 1131990, Note_on_c, 0, 55, 33
1, 1132066, Note_off_c, 0, 55, 48
1, 1132094, Note_on_c, 0, 48, 35
1, 1132100, Note_on_c, 0, 67, 61
1, 1132157, Note_off_c, 0, 48, 56
1, 1132198, Note_on_c, 0, 52, 39
1, 1132262, Note_off_c, 0, 52, 53
1, 1132308, Note_on_c, 0, 55, 25
1, 1132368, Note_off_c, 0, 55, 51
1, 1132392, Note_on_c, 0, 48, 46
1, 1132429, Note_off_c, 0, 67, 56
1, 1132465, Note_off_c, 0, 48, 59
1, 1132501, Note_on_c, 0, 52, 37
1, 1132544, Note_off_c, 0, 52, 59
1, 1132579, Note_on_c, 0, 55, 32
1, 1132653, Note_off_c, 0, 55, 53
1, 1132658, Note_on_c, 0, 76, 62
1, 1132690, Note_on_c, 0, 48, 44
1, 1132698, Note_on_c, 0, 64, 41
1, 1132755, Note_off_c, 0, 48, 55
1, 1132768, Note_off_c, 0, 64, 56
1, 1132783, Note_on_c, 0, 52, 46
1, 1132809, Note_off_c, 0, 76, 57
1, 1132831, Note_off_c, 0, 52, 59
1, 1132865, Note_on_c, 0, 55, 39
1, 1132922, Note_off_c, 0, 55, 57
1, 1132939, Note_on_c, 0, 76, 74
1, 1132953, Note_on_c, 0, 48, 52
1, 1132970, Note_on_c, 0, 64, 55
1, 1132997, Note_off_c, 0, 48, 60
1, 1133024, Note_on_c, 0, 52, 44
1, 1133047, Note_off_c, 0, 64, 58
1, 1133066, Note_off_c, 0, 52, 61
1, 1133094, Note_off_c, 0, 76, 60
1, 1133103, Note_on_c, 0, 55, 42
1, 1133263, Note_on_c, 0, 77, 72
1, 1133263, Control_c, 0, 64, 114
1, 1133277, Control_c, 0, 64, 102
1, 1133292, Control_c, 0, 64, 90
1, 1133294, Note_on_c, 0, 65, 43
1, 1133299, Note_on_c, 0, 47, 44
1, 1133301, Note_off_c, 0, 55, 32
1, 1133308, Control_c, 0, 64, 80
1, 1133323, Control_c, 0, 64, 70
1, 1133338, Control_c, 0, 64, 59
1, 1133353, Control_c, 0, 64, 39
1, 1133368, Control_c, 0, 64, 0
1, 1133393, Note_on_c, 0, 50, 44
1, 1133436, Note_off_c, 0, 47, 57
1, 1133442, Control_c, 0, 64, 28
1, 1133456, Control_c, 0, 64, 45
1, 1133471, Control_c, 0, 64, 59
1, 1133486, Control_c, 0, 64, 66
1, 1133499, Note_on_c, 0, 55, 45
1, 1133501, Control_c, 0, 64, 71
1, 1133507, Note_off_c, 0, 50, 57
1, 1133516, Control_c, 0, 64, 75
1, 1133530, Control_c, 0, 64, 79
1, 1133545, Control_c, 0, 64, 84
1, 1133560, Control_c, 0, 64, 89
1, 1133575, Control_c, 0, 64, 94
1, 1133580, Note_off_c, 0, 55, 55
1, 1133581, Note_on_c, 0, 47, 44
1, 1133590, Control_c, 0, 64, 100
1, 1133605, Control_c, 0, 64, 106
1, 1133620, Control_c, 0, 64, 113
1, 1133635, Control_c, 0, 64, 123
1, 1133649, Control_c, 0, 64, 127
1, 1133650, Note_off_c, 0, 77, 36
1, 1133653, Note_off_c, 0, 47, 58
1, 1133660, Note_on_c, 0, 50, 47
1, 1133669, Note_off_c, 0, 65, 35
1, 1133730, Note_off_c, 0, 50, 62
1, 1133754, Note_on_c, 0, 55, 45
1, 1133848, Note_off_c, 0, 55, 55
1, 1133856, Note_on_c, 0, 67, 67
1, 1133879, Control_c, 0, 64, 121
1, 1133881, Note_on_c, 0, 47, 47
1, 1133894, Control_c, 0, 64, 90
1, 1133908, Control_c, 0, 64, 70
1, 1133923, Control_c, 0, 64, 60
1, 1133938, Control_c, 0, 64, 58
1, 1133948, Note_off_c, 0, 47, 54
1, 1133953, Control_c, 0, 64, 61
1, 1133963, Note_on_c, 0, 50, 43
1, 1133968, Control_c, 0, 64, 65
1, 1133982, Control_c, 0, 64, 70
1, 1133997, Control_c, 0, 64, 77
1, 1134012, Control_c, 0, 64, 87
1, 1134022, Note_off_c, 0, 67, 59
1, 1134026, Control_c, 0, 64, 95
1, 1134039, Note_off_c, 0, 50, 56
1, 1134041, Control_c, 0, 64, 106
1, 1134045, Note_on_c, 0, 55, 51
1, 1134056, Control_c, 0, 64, 127
1, 1134086, Control_c, 0, 64, 110
1, 1134102, Control_c, 0, 64, 88
1, 1134117, Control_c, 0, 64, 77
1, 1134118, Note_off_c, 0, 55, 56
1, 1134131, Control_c, 0, 64, 73
1, 1134146, Note_on_c, 0, 67, 71
1, 1134150, Note_on_c, 0, 47, 49
1, 1134161, Control_c, 0, 64, 75
1, 1134176, Control_c, 0, 64, 80
1, 1134191, Control_c, 0, 64, 87
1, 1134205, Control_c, 0, 64, 95
1, 1134210, Note_off_c, 0, 47, 58
1, 1134220, Control_c, 0, 64, 101
1, 1134235, Control_c, 0, 64, 106
1, 1134243, Note_on_c, 0, 50, 48
1, 1134250, Control_c, 0, 64, 111
1, 1134264, Note_off_c, 0, 67, 56
1, 1134265, Control_c, 0, 64, 117
1, 1134279, Control_c, 0, 64, 123
1, 1134290, Note_off_c, 0, 50, 61
1, 1134294, Control_c, 0, 64, 127
1, 1134323, Note_on_c, 0, 55, 49
1, 1134404, Note_off_c, 0, 55, 51
1, 1134428, Control_c, 0, 64, 109
1, 1134443, Control_c, 0, 64, 89
1, 1134446, Note_on_c, 0, 47, 47
1, 1134457, Control_c, 0, 64, 72
1, 1134458, Note_on_c, 0, 67, 61
1, 1134472, Control_c, 0, 64, 59
1, 1134487, Control_c, 0, 64, 50
1, 1134502, Control_c, 0, 64, 50
1, 1134513, Note_off_c, 0, 47, 56
1, 1134517, Control_c, 0, 64, 57
1, 1134531, Control_c, 0, 64, 64
1, 1134546, Control_c, 0, 64, 71
1, 1134547, Note_on_c, 0, 50, 41
1, 1134561, Control_c, 0, 64, 81
1, 1134576, Control_c, 0, 64, 90
1, 1134590, Control_c, 0, 64, 97
1, 1134605, Control_c, 0, 64, 108
1, 1134610, Note_off_c, 0, 67, 61
1, 1134627, Control_c, 0, 64, 127
1, 1134636, Note_off_c, 0, 50, 51
1, 1134647, Note_on_c, 0, 55, 45
1, 1134711, Note_off_c, 0, 55, 55
1, 1134735, Note_on_c, 0, 47, 52
1, 1134787, Note_off_c, 0, 47, 60
1, 1134816, Note_on_c, 0, 50, 49
1, 1134877, Note_off_c, 0, 50, 60
1, 1134917, Note_on_c, 0, 55, 44
1, 1134982, Note_off_c, 0, 55, 49
1, 1135013, Control_c, 0, 64, 115
1, 1135016, Note_on_c, 0, 89, 55
1, 1135022, Note_on_c, 0, 47, 48
1, 1135027, Control_c, 0, 64, 77
1, 1135042, Control_c, 0, 64, 60
1, 1135057, Control_c, 0, 64, 51
1, 1135066, Note_off_c, 0, 89, 59
1, 1135072, Control_c, 0, 64, 53
1, 1135078, Note_off_c, 0, 47, 56
1, 1135079, Note_on_c, 0, 86, 67
1, 1135086, Control_c, 0, 64, 61
1, 1135101, Control_c, 0, 64, 68
1, 1135104, Note_on_c, 0, 50, 47
1, 1135116, Control_c, 0, 64, 80
1, 1135130, Note_off_c, 0, 86, 63
1, 1135131, Control_c, 0, 64, 90
1, 1135136, Note_on_c, 0, 83, 68
1, 1135146, Control_c, 0, 64, 94
1, 1135161, Control_c, 0, 64, 97
1, 1135169, Note_off_c, 0, 83, 63
1, 1135176, Control_c, 0, 64, 101
1, 1135179, Note_off_c, 0, 50, 54
1, 1135191, Control_c, 0, 64, 104
1, 1135198, Note_on_c, 0, 55, 53
1, 1135199, Note_on_c, 0, 77, 63
1, 1135206, Control_c, 0, 64, 108
1, 1135217, Note_off_c, 0, 77, 67
1, 1135220, Control_c, 0, 64, 110
1, 1135271, Note_off_c, 0, 55, 56
1, 1135276, Note_on_c, 0, 74, 79
1, 1135291, Note_on_c, 0, 47, 52
1, 1135339, Control_c, 0, 64, 108
1, 1135340, Note_off_c, 0, 74, 62
1, 1135352, Note_off_c, 0, 47, 55
1, 1135353, Control_c, 0, 64, 106
1, 1135359, Note_on_c, 0, 71, 74
1, 1135373, Note_on_c, 0, 50, 51
1, 1135376, Control_c, 0, 64, 104
1, 1135391, Control_c, 0, 64, 101
1, 1135405, Control_c, 0, 64, 99
1, 1135414, Note_off_c, 0, 71, 58
1, 1135420, Control_c, 0, 64, 97
1, 1135423, Note_off_c, 0, 50, 60
1, 1135435, Control_c, 0, 64, 94
1, 1135449, Control_c, 0, 64, 91
1, 1135454, Note_on_c, 0, 65, 62
1, 1135464, Control_c, 0, 64, 88
1, 1135468, Note_on_c, 0, 55, 43
1, 1135478, Control_c, 0, 64, 85
1, 1135493, Control_c, 0, 64, 82
1, 1135508, Control_c, 0, 64, 78
1, 1135523, Control_c, 0, 64, 74
1, 1135538, Control_c, 0, 64, 68
1, 1135548, Note_off_c, 0, 65, 60
1, 1135552, Control_c, 0, 64, 64
1, 1135567, Control_c, 0, 64, 59
1, 1135582, Control_c, 0, 64, 54
1, 1135584, Note_off_c, 0, 55, 36
1, 1135597, Control_c, 0, 64, 47
1, 1135606, Note_on_c, 0, 64, 55
1, 1135612, Control_c, 0, 64, 32
1, 1135626, Control_c, 0, 64, 0
1, 1135629, Note_on_c, 0, 48, 42
1, 1135716, Control_c, 0, 67, 125
1, 1135733, Note_on_c, 0, 52, 45
1, 1135742, Note_off_c, 0, 48, 48
1, 1135746, Control_c, 0, 67, 122
1, 1135775, Control_c, 0, 64, 39
1, 1135775, Control_c, 0, 67, 120
1, 1135790, Control_c, 0, 64, 53
1, 1135790, Control_c, 0, 67, 118
1, 1135805, Control_c, 0, 64, 60
1, 1135820, Control_c, 0, 64, 63
1, 1135820, Control_c, 0, 67, 116
1, 1135821, Note_off_c, 0, 52, 53
1, 1135834, Note_on_c, 0, 55, 42
1, 1135835, Control_c, 0, 64, 65
1, 1135835, Control_c, 0, 67, 113
1, 1135850, Control_c, 0, 64, 67
1, 1135864, Control_c, 0, 64, 69
1, 1135864, Control_c, 0, 67, 109
1, 1135879, Control_c, 0, 64, 72
1, 1135879, Control_c, 0, 67, 101
1, 1135894, Control_c, 0, 64, 75
1, 1135894, Control_c, 0, 67, 88
1, 1135906, Note_off_c, 0, 55, 55
1, 1135909, Control_c, 0, 64, 77
1, 1135909, Control_c, 0, 67, 73
1, 1135922, Note_off_c, 0, 64, 64
1, 1135924, Control_c, 0, 64, 79
1, 1135924, Control_c, 0, 67, 58
1, 1135928, Note_on_c, 0, 48, 48
1, 1135939, Control_c, 0, 64, 82
1, 1135939, Control_c, 0, 67, 44
1, 1135954, Control_c, 0, 64, 84
1, 1135954, Control_c, 0, 67, 0
1, 1135968, Control_c, 0, 64, 86
1, 1135983, Control_c, 0, 64, 87
1, 1135996, Note_off_c, 0, 48, 59
1, 1135998, Control_c, 0, 64, 88
1, 1136013, Control_c, 0, 64, 89
1, 1136028, Control_c, 0, 64, 90
1, 1136042, Control_c, 0, 64, 90
1, 1136049, Note_on_c, 0, 52, 35
1, 1136057, Control_c, 0, 64, 91
1, 1136072, Control_c, 0, 64, 91
1, 1136087, Control_c, 0, 64, 92
1, 1136094, Note_off_c, 0, 52, 49
1, 1136132, Note_on_c, 0, 55, 38
1, 1136139, Control_c, 0, 64, 92
1, 1136169, Control_c, 0, 64, 93
1, 1136258, Note_on_c, 0, 67, 53
1, 1136258, Control_c, 0, 64, 93
1, 1136260, Note_off_c, 0, 55, 36
1, 1136298, Note_on_c, 0, 48, 32
1, 1136302, Control_c, 0, 64, 94
1, 1136344, Note_off_c, 0, 48, 52
1, 1136347, Control_c, 0, 64, 94
1, 1136383, Note_on_c, 0, 52, 38
1, 1136391, Control_c, 0, 64, 95
1, 1136404, Note_off_c, 0, 67, 59
1, 1136435, Note_off_c, 0, 52, 56
1, 1136515, Note_on_c, 0, 55, 5
1, 1136540, Control_c, 0, 64, 95
1, 1136556, Note_on_c, 0, 67, 51
1, 1136577, Note_off_c, 0, 55, 46
1, 1136592, Note_on_c, 0, 48, 37
1, 1136637, Note_off_c, 0, 67, 58
1, 1136641, Note_off_c, 0, 48, 56
1, 1136699, Note_on_c, 0, 52, 31
1, 1136732, Control_c, 0, 64, 96
1, 1136747, Note_off_c, 0, 52, 46
1, 1136806, Note_on_c, 0, 55, 14
1, 1136855, Note_on_c, 0, 67, 51
1, 1136857, Note_off_c, 0, 55, 47
1, 1136905, Note_on_c, 0, 48, 30
1, 1136947, Note_off_c, 0, 48, 51
1, 1136982, Note_on_c, 0, 52, 42
1, 1137036, Note_off_c, 0, 52, 55
1, 1137081, Note_on_c, 0, 55, 36
1, 1137132, Note_off_c, 0, 67, 61
1, 1137134, Note_off_c, 0, 55, 55
1, 1137155, Note_on_c, 0, 48, 52
1, 1137206, Note_off_c, 0, 48, 58
1, 1137252, Note_on_c, 0, 52, 42
1, 1137288, Control_c, 0, 64, 98
1, 1137292, Note_off_c, 0, 52, 61
1, 1137325, Note_on_c, 0, 55, 43
1, 1137333, Control_c, 0, 64, 101
1, 1137347, Control_c, 0, 64, 104
1, 1137362, Control_c, 0, 64, 113
1, 1137377, Control_c, 0, 64, 126
1, 1137392, Control_c, 0, 64, 118
1, 1137403, Note_off_c, 0, 55, 48
1, 1137407, Control_c, 0, 64, 98
1, 1137414, Note_on_c, 0, 76, 66
1, 1137421, Control_c, 0, 64, 78
1, 1137425, Note_on_c, 0, 64, 53
1, 1137436, Control_c, 0, 64, 63
1, 1137437, Note_on_c, 0, 48, 48
1, 1137451, Control_c, 0, 64, 53
1, 1137463, Note_off_c, 0, 64, 61
1, 1137465, Control_c, 0, 64, 55
1, 1137477, Note_off_c, 0, 76, 63
1, 1137480, Control_c, 0, 64, 60
1, 1137495, Control_c, 0, 64, 65
1, 1137507, Note_off_c, 0, 48, 59
1, 1137510, Control_c, 0, 64, 73
1, 1137525, Control_c, 0, 64, 83
1, 1137533, Note_on_c, 0, 52, 45
1, 1137540, Control_c, 0, 64, 91
1, 1137555, Control_c, 0, 64, 94
1, 1137570, Control_c, 0, 64, 97
1, 1137570, Note_on_c, 0, 64, 63
1, 1137570, Note_on_c, 0, 76, 78
1, 1137583, Note_off_c, 0, 52, 57
1, 1137584, Control_c, 0, 64, 101
1, 1137599, Control_c, 0, 64, 106
1, 1137615, Note_on_c, 0, 55, 46
1, 1137620, Note_off_c, 0, 64, 63
1, 1137621, Control_c, 0, 64, 115
1, 1137630, Note_off_c, 0, 76, 62
1, 1137636, Control_c, 0, 64, 127
1, 1137704, Note_off_c, 0, 55, 53
1, 1137707, Note_on_c, 0, 48, 58
1, 1137709, Note_on_c, 0, 76, 79
1, 1137719, Note_on_c, 0, 64, 69
1, 1137748, Note_off_c, 0, 64, 64
1, 1137769, Note_off_c, 0, 76, 64
1, 1137817, Note_on_c, 0, 52, 44
1, 1137817, Note_off_c, 0, 48, 57
1, 1137835, Note_on_c, 0, 76, 75
1, 1137843, Note_on_c, 0, 64, 72
1, 1137856, Note_off_c, 0, 52, 61
1, 1137872, Note_off_c, 0, 64, 63
1, 1137879, Note_on_c, 0, 55, 48
1, 1137889, Note_off_c, 0, 76, 63
1, 1137933, Control_c, 0, 64, 113
1, 1137947, Control_c, 0, 64, 101
1, 1137962, Control_c, 0, 64, 92
1, 1137977, Control_c, 0, 64, 81
1, 1137991, Control_c, 0, 64, 70
1, 1138006, Control_c, 0, 64, 58
1, 1138020, Note_on_c, 0, 77, 70
1, 1138021, Control_c, 0, 64, 37
1, 1138022, Note_off_c, 0, 55, 36
1, 1138028, Note_on_c, 0, 65, 55
1, 1138036, Note_on_c, 0, 47, 47
1, 1138036, Control_c, 0, 64, 0
1, 1138109, Note_off_c, 0, 47, 57
1, 1138111, Control_c, 0, 64, 37
1, 1138120, Note_on_c, 0, 50, 46
1, 1138126, Control_c, 0, 64, 54
1, 1138141, Control_c, 0, 64, 64
1, 1138156, Control_c, 0, 64, 70
1, 1138170, Control_c, 0, 64, 78
1, 1138185, Control_c, 0, 64, 88
1, 1138200, Control_c, 0, 64, 97
1, 1138204, Note_off_c, 0, 50, 60
1, 1138215, Control_c, 0, 64, 108
1, 1138222, Note_on_c, 0, 55, 48
1, 1138230, Control_c, 0, 64, 127
1, 1138263, Note_off_c, 0, 77, 62
1, 1138280, Note_off_c, 0, 55, 57
1, 1138305, Note_on_c, 0, 47, 55
1, 1138347, Note_off_c, 0, 65, 58
1, 1138368, Note_off_c, 0, 47, 60
1, 1138395, Note_on_c, 0, 50, 53
1, 1138445, Note_off_c, 0, 50, 62
1, 1138488, Note_on_c, 0, 55, 49
1, 1138574, Note_on_c, 0, 69, 64
1, 1138580, Note_off_c, 0, 55, 51
1, 1138592, Control_c, 0, 64, 114
1, 1138600, Note_on_c, 0, 47, 52
1, 1138607, Control_c, 0, 64, 83
1, 1138622, Control_c, 0, 64, 63
1, 1138625, Note_on_c, 0, 67, 72
1, 1138637, Control_c, 0, 64, 32
1, 1138643, Note_off_c, 0, 69, 56
1, 1138652, Control_c, 0, 64, 0
1, 1138679, Note_off_c, 0, 47, 58
1, 1138693, Note_on_c, 0, 50, 45
1, 1138696, Control_c, 0, 64, 45
1, 1138711, Control_c, 0, 64, 61
1, 1138726, Control_c, 0, 64, 69
1, 1138738, Note_off_c, 0, 67, 62
1, 1138741, Note_on_c, 0, 66, 80
1, 1138741, Control_c, 0, 64, 75
1, 1138756, Control_c, 0, 64, 81
1, 1138768, Note_off_c, 0, 50, 54
1, 1138770, Control_c, 0, 64, 84
1, 1138785, Control_c, 0, 64, 88
1, 1138788, Note_on_c, 0, 55, 53
1, 1138800, Control_c, 0, 64, 91
1, 1138814, Control_c, 0, 64, 92
1, 1138829, Control_c, 0, 64, 93
1, 1138867, Note_off_c, 0, 55, 57
1, 1138875, Note_off_c, 0, 66, 62
1, 1138877, Note_on_c, 0, 67, 77
1, 1138890, Note_on_c, 0, 47, 56
1, 1138957, Note_off_c, 0, 47, 58
1, 1138974, Note_on_c, 0, 50, 58
1, 1138979, Control_c, 0, 64, 92
1, 1138993, Control_c, 0, 64, 91
1, 1139006, Note_on_c, 0, 69, 81
1, 1139008, Control_c, 0, 64, 90
1, 1139011, Note_off_c, 0, 67, 61
1, 1139023, Control_c, 0, 64, 89
1, 1139028, Note_off_c, 0, 50, 56
1, 1139037, Control_c, 0, 64, 88
1, 1139052, Control_c, 0, 64, 87
1, 1139058, Note_off_c, 0, 69, 62
1, 1139066, Note_on_c, 0, 55, 52
1, 1139067, Control_c, 0, 64, 85
1, 1139082, Control_c, 0, 64, 84
1, 1139097, Control_c, 0, 64, 81
1, 1139119, Control_c, 0, 64, 79
1, 1139134, Control_c, 0, 64, 76
1, 1139149, Control_c, 0, 64, 73
1, 1139164, Control_c, 0, 64, 70
1, 1139179, Control_c, 0, 64, 67
1, 1139193, Control_c, 0, 64, 63
1, 1139208, Control_c, 0, 64, 57
1, 1139216, Note_off_c, 0, 55, 37
1, 1139217, Note_on_c, 0, 69, 65
1, 1139223, Control_c, 0, 64, 50
1, 1139229, Note_on_c, 0, 47, 37
1, 1139237, Control_c, 0, 64, 39
1, 1139252, Control_c, 0, 64, 0
1, 1139311, Control_c, 0, 67, 34
1, 1139316, Note_off_c, 0, 47, 58
1, 1139326, Control_c, 0, 67, 35
1, 1139333, Note_on_c, 0, 50, 42
1, 1139341, Control_c, 0, 67, 37
1, 1139356, Control_c, 0, 67, 37
1, 1139371, Control_c, 0, 64, 38
1, 1139371, Control_c, 0, 67, 38
1, 1139385, Control_c, 0, 64, 49
1, 1139400, Control_c, 0, 64, 58
1, 1139402, Note_off_c, 0, 50, 58
1, 1139415, Control_c, 0, 64, 63
1, 1139430, Note_on_c, 0, 55, 39
1, 1139430, Control_c, 0, 64, 65
1, 1139445, Control_c, 0, 64, 66
1, 1139445, Control_c, 0, 67, 37
1, 1139459, Control_c, 0, 64, 69
1, 1139459, Control_c, 0, 67, 35
1, 1139474, Control_c, 0, 64, 72
1, 1139474, Control_c, 0, 67, 34
1, 1139483, Note_off_c, 0, 55, 54
1, 1139489, Control_c, 0, 64, 78
1, 1139489, Control_c, 0, 67, 33
1, 1139495, Note_on_c, 0, 67, 59
1, 1139504, Control_c, 0, 64, 84
1, 1139504, Control_c, 0, 67, 0
1, 1139515, Note_off_c, 0, 69, 58
1, 1139519, Control_c, 0, 64, 88
1, 1139523, Note_off_c, 0, 67, 65
1, 1139525, Note_on_c, 0, 47, 49
1, 1139534, Control_c, 0, 64, 91
1, 1139549, Control_c, 0, 64, 95
1, 1139564, Control_c, 0, 64, 97
1, 1139579, Control_c, 0, 64, 99
1, 1139581, Note_off_c, 0, 47, 59
1, 1139608, Control_c, 0, 64, 103
1, 1139609, Note_on_c, 0, 50, 50
1, 1139623, Control_c, 0, 64, 105
1, 1139637, Control_c, 0, 64, 108
1, 1139652, Control_c, 0, 64, 110
1, 1139656, Note_off_c, 0, 50, 61
1, 1139667, Control_c, 0, 64, 112
1, 1139692, Note_on_c, 0, 55, 50
1, 1139713, Control_c, 0, 64, 105
1, 1139728, Control_c, 0, 64, 86
1, 1139728, Control_c, 0, 67, 33
1, 1139742, Control_c, 0, 64, 67
1, 1139742, Control_c, 0, 67, 34
1, 1139757, Control_c, 0, 64, 48
1, 1139757, Control_c, 0, 67, 34
1, 1139769, Note_off_c, 0, 55, 51
1, 1139772, Control_c, 0, 64, 0
1, 1139784, Note_on_c, 0, 89, 65
1, 1139790, Note_on_c, 0, 47, 53
1, 1139802, Control_c, 0, 64, 40
1, 1139802, Control_c, 0, 67, 34
1, 1139816, Control_c, 0, 64, 59
1, 1139816, Control_c, 0, 67, 33
1, 1139831, Control_c, 0, 64, 69
1, 1139831, Control_c, 0, 67, 0
1, 1139845, Note_on_c, 0, 86, 77
1, 1139846, Control_c, 0, 64, 78
1, 1139847, Note_off_c, 0, 89, 63
1, 1139856, Note_off_c, 0, 47, 58
1, 1139868, Control_c, 0, 64, 80
1, 1139883, Control_c, 0, 64, 78
1, 1139884, Note_on_c, 0, 50, 53
1, 1139898, Control_c, 0, 64, 76
1, 1139905, Note_on_c, 0, 83, 73
1, 1139912, Note_off_c, 0, 86, 65
1, 1139913, Control_c, 0, 64, 74
1, 1139927, Control_c, 0, 64, 75
1, 1139940, Note_off_c, 0, 50, 60
1, 1139942, Control_c, 0, 64, 77
1, 1139942, Control_c, 0, 67, 33
1, 1139947, Note_off_c, 0, 83, 62
1, 1139957, Control_c, 0, 64, 80
1, 1139957, Control_c, 0, 67, 34
1, 1139966, Note_on_c, 0, 77, 72
1, 1139972, Control_c, 0, 64, 83
1, 1139974, Note_on_c, 0, 55, 56
1, 1139987, Control_c, 0, 64, 85
1, 1139987, Control_c, 0, 67, 35
1, 1139993, Note_off_c, 0, 77, 67
1, 1140002, Control_c, 0, 64, 86
1, 1140017, Control_c, 0, 64, 86
1, 1140044, Note_off_c, 0, 55, 55
1, 1140052, Note_on_c, 0, 74, 81
1, 1140061, Control_c, 0, 67, 34
1, 1140065, Note_on_c, 0, 47, 55
1, 1140076, Control_c, 0, 67, 34
1, 1140106, Control_c, 0, 64, 86
1, 1140106, Control_c, 0, 67, 33
1, 1140116, Note_off_c, 0, 74, 62
1, 1140118, Note_off_c, 0, 47, 56
1, 1140121, Control_c, 0, 64, 85
1, 1140121, Control_c, 0, 67, 0
1, 1140130, Note_on_c, 0, 71, 75
1, 1140136, Control_c, 0, 64, 83
1, 1140140, Note_on_c, 0, 50, 54
1, 1140151, Control_c, 0, 64, 81
1, 1140166, Control_c, 0, 64, 79
1, 1140181, Note_off_c, 0, 71, 61
1, 1140181, Control_c, 0, 64, 77
1, 1140186, Note_off_c, 0, 50, 63
1, 1140196, Control_c, 0, 64, 74
1, 1140210, Control_c, 0, 64, 72
1, 1140220, Note_on_c, 0, 65, 59
1, 1140225, Control_c, 0, 64, 69
1, 1140232, Note_on_c, 0, 55, 44
1, 1140240, Control_c, 0, 64, 64
1, 1140255, Control_c, 0, 64, 58
1, 1140269, Control_c, 0, 64, 48
1, 1140284, Control_c, 0, 64, 0
1, 1140291, Note_off_c, 0, 65, 62
1, 1140305, Note_off_c, 0, 55, 54
1, 1140336, Note_on_c, 0, 64, 66
1, 1140358, Note_on_c, 0, 48, 47
1, 1140420, Note_off_c, 0, 48, 59
1, 1140432, Control_c, 0, 64, 45
1, 1140443, Note_on_c, 0, 52, 53
1, 1140447, Control_c, 0, 64, 63
1, 1140461, Control_c, 0, 64, 73
1, 1140468, Note_off_c, 0, 64, 65
1, 1140476, Control_c, 0, 64, 84
1, 1140492, Control_c, 0, 64, 94
1, 1140507, Control_c, 0, 64, 106
1, 1140521, Note_off_c, 0, 52, 56
1, 1140522, Control_c, 0, 64, 127
1, 1140523, Note_on_c, 0, 55, 59
1, 1140596, Note_off_c, 0, 55, 60
1, 1140615, Note_on_c, 0, 48, 70
1, 1140692, Note_on_c, 0, 52, 63
1, 1140701, Note_off_c, 0, 48, 61
1, 1140718, Note_on_c, 0, 88, 88
1, 1140755, Note_off_c, 0, 52, 60
1, 1140762, Note_on_c, 0, 55, 62
1, 1140774, Note_off_c, 0, 88, 64
1, 1140869, Note_off_c, 0, 55, 57
1, 1140882, Note_on_c, 0, 89, 82
1, 1140885, Note_on_c, 0, 47, 72
1, 1140885, Control_c, 0, 64, 78
1, 1140899, Control_c, 0, 64, 52
1, 1140914, Control_c, 0, 64, 0
1, 1140947, Note_on_c, 0, 86, 80
1, 1140959, Control_c, 0, 64, 43
1, 1140963, Note_off_c, 0, 47, 62
1, 1140963, Note_off_c, 0, 89, 62
1, 1140969, Note_on_c, 0, 50, 64
1, 1140974, Control_c, 0, 64, 64
1, 1140989, Control_c, 0, 64, 80
1, 1141004, Note_on_c, 0, 83, 78
1, 1141004, Control_c, 0, 64, 127
1, 1141019, Note_off_c, 0, 86, 66
1, 1141051, Note_off_c, 0, 50, 62
1, 1141057, Note_off_c, 0, 83, 65
1, 1141060, Note_on_c, 0, 55, 60
1, 1141074, Note_on_c, 0, 77, 72
1, 1141104, Note_off_c, 0, 77, 64
1, 1141156, Note_off_c, 0, 55, 59
1, 1141156, Note_on_c, 0, 47, 69
1, 1141158, Note_on_c, 0, 74, 86
1, 1141233, Note_off_c, 0, 47, 61
1, 1141235, Note_off_c, 0, 74, 64
1, 1141237, Note_on_c, 0, 50, 62
1, 1141241, Note_on_c, 0, 71, 78
1, 1141298, Note_off_c, 0, 71, 62
1, 1141303, Note_off_c, 0, 50, 63
1, 1141323, Note_on_c, 0, 55, 61
1, 1141331, Note_on_c, 0, 65, 66
1, 1141411, Note_off_c, 0, 65, 61
1, 1141412, Control_c, 0, 64, 107
1, 1141427, Note_off_c, 0, 55, 57
1, 1141427, Control_c, 0, 64, 70
1, 1141440, Control_c, 0, 64, 34
1, 1141452, Note_on_c, 0, 64, 76
1, 1141455, Control_c, 0, 64, 0
1, 1141463, Note_on_c, 0, 48, 63
1, 1141529, Control_c, 0, 64, 48
1, 1141544, Control_c, 0, 64, 64
1, 1141546, Note_off_c, 0, 48, 62
1, 1141549, Note_on_c, 0, 52, 68
1, 1141559, Control_c, 0, 64, 78
1, 1141574, Control_c, 0, 64, 97
1, 1141586, Note_off_c, 0, 64, 65
1, 1141588, Control_c, 0, 64, 127
1, 1141627, Note_off_c, 0, 52, 59
1, 1141632, Note_on_c, 0, 55, 65
1, 1141707, Note_off_c, 0, 55, 60
1, 1141715, Note_on_c, 0, 48, 77
1, 1141795, Note_on_c, 0, 52, 68
1, 1141811, Note_off_c, 0, 48, 61
1, 1141832, Note_on_c, 0, 88, 87
1, 1141868, Note_on_c, 0, 55, 66
1, 1141870, Note_off_c, 0, 52, 62
1, 1141889, Note_off_c, 0, 88, 65
1, 1141986, Note_off_c, 0, 55, 57
1, 1141991, Note_on_c, 0, 89, 81
1, 1141994, Note_on_c, 0, 47, 68
1, 1142003, Control_c, 0, 64, 83
1, 1142018, Control_c, 0, 64, 55
1, 1142032, Control_c, 0, 64, 0
1, 1142032, Control_c, 0, 67, 33
1, 1142047, Control_c, 0, 67, 34
1, 1142056, Note_on_c, 0, 86, 73
1, 1142072, Note_off_c, 0, 89, 62
1, 1142074, Note_off_c, 0, 47, 61
1, 1142075, Note_on_c, 0, 50, 68
1, 1142078, Control_c, 0, 64, 44
1, 1142093, Control_c, 0, 64, 62
1, 1142115, Control_c, 0, 64, 71
1, 1142115, Control_c, 0, 67, 33
1, 1142128, Note_on_c, 0, 83, 77
1, 1142130, Control_c, 0, 64, 82
1, 1142130, Control_c, 0, 67, 0
1, 1142134, Note_off_c, 0, 86, 65
1, 1142145, Control_c, 0, 64, 91
1, 1142160, Control_c, 0, 64, 101
1, 1142164, Note_off_c, 0, 50, 61
1, 1142175, Control_c, 0, 64, 115
1, 1142176, Note_off_c, 0, 83, 63
1, 1142182, Note_on_c, 0, 55, 66
1, 1142190, Control_c, 0, 64, 127
1, 1142196, Note_on_c, 0, 77, 68
1, 1142232, Note_off_c, 0, 77, 62
1, 1142241, Note_on_c, 0, 76, 32
1, 1142270, Note_off_c, 0, 55, 58
1, 1142275, Note_on_c, 0, 47, 71
1, 1142276, Note_off_c, 0, 76, 48
1, 1142291, Note_on_c, 0, 74, 79
1, 1142354, Note_off_c, 0, 74, 62
1, 1142366, Note_on_c, 0, 50, 62
1, 1142371, Note_off_c, 0, 47, 59
1, 1142372, Note_on_c, 0, 71, 72
1, 1142418, Note_off_c, 0, 71, 61
1, 1142424, Note_off_c, 0, 50, 61
1, 1142453, Note_on_c, 0, 65, 65
1, 1142459, Note_on_c, 0, 55, 61
1, 1142515, Control_c, 0, 67, 33
1, 1142530, Control_c, 0, 67, 34
1, 1142544, Note_off_c, 0, 55, 49
1, 1142545, Control_c, 0, 64, 88
1, 1142545, Control_c, 0, 67, 34
1, 1142551, Note_off_c, 0, 65, 61
1, 1142560, Control_c, 0, 64, 65
1, 1142574, Control_c, 0, 64, 0
1, 1142582, Note_on_c, 0, 64, 69
1, 1142586, Note_on_c, 0, 48, 62
1, 1142589, Control_c, 0, 67, 35
1, 1142604, Control_c, 0, 67, 34
1, 1142619, Control_c, 0, 67, 34
1, 1142634, Control_c, 0, 64, 31
1, 1142644, Note_off_c, 0, 64, 63
1, 1142649, Control_c, 0, 64, 53
1, 1142649, Control_c, 0, 67, 33
1, 1142663, Control_c, 0, 64, 67
1, 1142668, Note_off_c, 0, 48, 60
1, 1142673, Note_on_c, 0, 52, 57
1, 1142678, Control_c, 0, 64, 83
1, 1142693, Control_c, 0, 64, 100
1, 1142708, Control_c, 0, 64, 127
1, 1142708, Control_c, 0, 67, 0
1, 1142753, Note_off_c, 0, 52, 54
1, 1142753, Note_on_c, 0, 55, 58
1, 1142846, Note_on_c, 0, 88, 76
1, 1142865, Note_off_c, 0, 55, 57
1, 1142874, Note_on_c, 0, 48, 64
1, 1142911, Note_off_c, 0, 88, 65
1, 1142945, Note_on_c, 0, 76, 70
1, 1142951, Note_off_c, 0, 48, 58
1, 1142956, Note_on_c, 0, 52, 55
1, 1142985, Note_off_c, 0, 76, 59
1, 1143013, Note_on_c, 0, 88, 76
1, 1143025, Note_off_c, 0, 52, 55
1, 1143031, Note_on_c, 0, 55, 52
1, 1143086, Note_off_c, 0, 88, 59
1, 1143087, Control_c, 0, 64, 103
1, 1143102, Control_c, 0, 64, 69
1, 1143105, Note_off_c, 0, 55, 55
1, 1143109, Note_on_c, 0, 89, 78
1, 1143117, Control_c, 0, 64, 43
1, 1143121, Note_on_c, 0, 47, 70
1, 1143132, Control_c, 0, 64, 27
1, 1143147, Control_c, 0, 64, 41
1, 1143161, Control_c, 0, 64, 59
1, 1143168, Note_off_c, 0, 89, 62
1, 1143176, Control_c, 0, 64, 74
1, 1143191, Control_c, 0, 64, 95
1, 1143192, Note_on_c, 0, 77, 76
1, 1143203, Note_off_c, 0, 47, 62
1, 1143206, Control_c, 0, 64, 127
1, 1143209, Note_on_c, 0, 50, 64
1, 1143248, Note_off_c, 0, 77, 62
1, 1143287, Note_off_c, 0, 50, 62
1, 1143288, Note_on_c, 0, 89, 75
1, 1143297, Note_on_c, 0, 55, 59
1, 1143339, Control_c, 0, 67, 33
1, 1143368, Control_c, 0, 64, 82
1, 1143370, Note_off_c, 0, 55, 59
1, 1143380, Note_on_c, 0, 90, 79
1, 1143382, Note_on_c, 0, 47, 69
1, 1143383, Control_c, 0, 64, 61
1, 1143383, Control_c, 0, 67, 34
1, 1143389, Note_off_c, 0, 89, 56
1, 1143398, Control_c, 0, 64, 59
1, 1143412, Control_c, 0, 64, 67
1, 1143427, Control_c, 0, 64, 80
1, 1143442, Control_c, 0, 64, 110
1, 1143450, Note_off_c, 0, 47, 62
1, 1143456, Note_off_c, 0, 90, 65
1, 1143457, Control_c, 0, 64, 127
1, 1143457, Control_c, 0, 67, 34
1, 1143468, Note_on_c, 0, 78, 78
1, 1143473, Note_on_c, 0, 50, 62
1, 1143531, Control_c, 0, 67, 34
1, 1143543, Note_off_c, 0, 50, 62
1, 1143545, Note_off_c, 0, 78, 58
1, 1143557, Note_on_c, 0, 54, 65
1, 1143565, Note_on_c, 0, 90, 77
1, 1143635, Note_off_c, 0, 54, 61
1, 1143642, Control_c, 0, 64, 111
1, 1143653, Note_on_c, 0, 47, 72
1, 1143657, Control_c, 0, 64, 73
1, 1143663, Note_on_c, 0, 91, 84
1, 1143668, Note_off_c, 0, 90, 63
1, 1143672, Control_c, 0, 64, 56
1, 1143688, Control_c, 0, 64, 58
1, 1143703, Control_c, 0, 64, 68
1, 1143717, Control_c, 0, 64, 82
1, 1143732, Control_c, 0, 64, 106
1, 1143732, Control_c, 0, 67, 33
1, 1143735, Note_off_c, 0, 91, 62
1, 1143739, Note_on_c, 0, 50, 70
1, 1143739, Note_off_c, 0, 47, 60
1, 1143747, Control_c, 0, 64, 127
1, 1143750, Note_on_c, 0, 79, 80
1, 1143777, Control_c, 0, 67, 0
1, 1143817, Note_off_c, 0, 79, 64
1, 1143819, Note_on_c, 0, 53, 71
1, 1143822, Note_off_c, 0, 50, 60
1, 1143846, Note_on_c, 0, 91, 84
1, 1143895, Control_c, 0, 64, 77
1, 1143898, Note_off_c, 0, 53, 61
1, 1143904, Note_on_c, 0, 47, 73
1, 1143910, Control_c, 0, 64, 53
1, 1143910, Control_c, 0, 67, 33
1, 1143925, Note_on_c, 0, 92, 88
1, 1143925, Control_c, 0, 64, 33
1, 1143925, Control_c, 0, 67, 34
1, 1143940, Control_c, 0, 64, 46
1, 1143950, Note_off_c, 0, 91, 64
1, 1143955, Control_c, 0, 64, 62
1, 1143970, Control_c, 0, 64, 76
1, 1143984, Control_c, 0, 64, 108
1, 1143991, Note_on_c, 0, 50, 70
1, 1143999, Control_c, 0, 64, 127
1, 1144000, Note_off_c, 0, 92, 67
1, 1144005, Note_off_c, 0, 47, 60
1, 1144009, Note_on_c, 0, 80, 84
1, 1144028, Control_c, 0, 67, 0
1, 1144062, Note_on_c, 0, 52, 72
1, 1144068, Note_off_c, 0, 50, 60
1, 1144080, Note_off_c, 0, 80, 60
1, 1144098, Note_on_c, 0, 92, 86
1, 1144120, Note_off_c, 0, 52, 63
1, 1144132, Control_c, 0, 64, 82
1, 1144147, Control_c, 0, 64, 55
1, 1144162, Control_c, 0, 64, 0
1, 1144166, Note_on_c, 0, 48, 85
1, 1144177, Control_c, 0, 64, 33
1, 1144187, Note_on_c, 0, 93, 88
1, 1144191, Control_c, 0, 64, 56
1, 1144196, Note_off_c, 0, 92, 65
1, 1144206, Control_c, 0, 64, 76
1, 1144221, Control_c, 0, 64, 127
1, 1144240, Note_on_c, 0, 52, 79
1, 1144250, Note_off_c, 0, 48, 62
1, 1144261, Note_off_c, 0, 93, 61
1, 1144276, Note_on_c, 0, 81, 85
1, 1144318, Note_off_c, 0, 52, 62
1, 1144331, Note_on_c, 0, 57, 78
1, 1144335, Note_off_c, 0, 81, 65
1, 1144366, Note_on_c, 0, 93, 94
1, 1144406, Control_c, 0, 64, 82
1, 1144421, Control_c, 0, 64, 53
1, 1144422, Note_off_c, 0, 57, 60
1, 1144431, Note_on_c, 0, 49, 84
1, 1144435, Control_c, 0, 64, 0
1, 1144446, Note_on_c, 0, 94, 93
1, 1144480, Note_off_c, 0, 93, 63
1, 1144480, Control_c, 0, 64, 57
1, 1144496, Control_c, 0, 64, 77
1, 1144511, Control_c, 0, 64, 127
1, 1144520, Note_on_c, 0, 52, 79
1, 1144527, Note_off_c, 0, 94, 64
1, 1144529, Note_on_c, 0, 82, 90
1, 1144535, Note_off_c, 0, 49, 64
1, 1144583, Note_on_c, 0, 55, 70
1, 1144590, Note_off_c, 0, 52, 59
1, 1144598, Note_off_c, 0, 82, 59
1, 1144613, Note_on_c, 0, 94, 94
1, 1144638, Note_off_c, 0, 55, 61
1, 1144679, Note_off_c, 0, 94, 62
1, 1144703, Control_c, 0, 64, 104
1, 1144718, Control_c, 0, 64, 59
1, 1144733, Control_c, 0, 64, 0
1, 1144748, Note_on_c, 0, 56, 100
1, 1144749, Note_on_c, 0, 95, 100
1, 1144750, Note_on_c, 0, 47, 80
1, 1144753, Note_on_c, 0, 52, 80
1, 1144777, Control_c, 0, 64, 51
1, 1144792, Control_c, 0, 64, 70
1, 1144807, Control_c, 0, 64, 101
1, 1144822, Control_c, 0, 64, 127
1, 1144840, Note_on_c, 0, 92, 83
1, 1144876, Note_off_c, 0, 95, 64
1, 1144899, Note_off_c, 0, 47, 61
1, 1144905, Note_off_c, 0, 56, 58
1, 1144913, Note_on_c, 0, 88, 81
1, 1144921, Note_off_c, 0, 52, 58
1, 1144931, Note_off_c, 0, 92, 66
1, 1144940, Control_c, 0, 67, 37
1, 1144955, Control_c, 0, 67, 38
1, 1144975, Note_off_c, 0, 88, 67
1, 1144984, Control_c, 0, 67, 37
1, 1145016, Note_on_c, 0, 83, 59
1, 1145029, Control_c, 0, 67, 38
1, 1145037, Note_off_c, 0, 83, 62
1, 1145088, Note_on_c, 0, 80, 82
1, 1145126, Control_c, 0, 64, 99
1, 1145126, Control_c, 0, 67, 37
1, 1145140, Control_c, 0, 64, 87
1, 1145155, Control_c, 0, 64, 76
1, 1145168, Note_off_c, 0, 80, 64
1, 1145170, Control_c, 0, 64, 64
1, 1145183, Note_on_c, 0, 76, 82
1, 1145183, Control_c, 0, 64, 49
1, 1145198, Control_c, 0, 64, 0
1, 1145238, Note_off_c, 0, 76, 65
1, 1145243, Control_c, 0, 67, 37
1, 1145280, Note_on_c, 0, 83, 80
1, 1145285, Note_on_c, 0, 59, 88
1, 1145318, Control_c, 0, 64, 59
1, 1145323, Note_on_c, 0, 81, 11
1, 1145323, Note_off_c, 0, 81, 127
1, 1145333, Control_c, 0, 64, 77
1, 1145333, Control_c, 0, 67, 37
1, 1145347, Note_on_c, 0, 48, 14
1, 1145348, Control_c, 0, 64, 101
1, 1145348, Control_c, 0, 67, 38
1, 1145362, Control_c, 0, 64, 127
1, 1145363, Note_on_c, 0, 80, 86
1, 1145370, Note_on_c, 0, 56, 85
1, 1145386, Note_off_c, 0, 59, 59
1, 1145387, Note_off_c, 0, 83, 61
1, 1145397, Note_off_c, 0, 48, 50
1, 1145436, Note_off_c, 0, 56, 64
1, 1145436, Control_c, 0, 67, 37
1, 1145451, Note_on_c, 0, 76, 84
1, 1145454, Note_on_c, 0, 52, 76
1, 1145461, Note_off_c, 0, 80, 61
1, 1145466, Control_c, 0, 67, 38
1, 1145479, Note_off_c, 0, 52, 68
1, 1145496, Control_c, 0, 67, 38
1, 1145508, Note_off_c, 0, 76, 66
1, 1145537, Note_on_c, 0, 71, 78
1, 1145543, Note_on_c, 0, 47, 85
1, 1145583, Note_off_c, 0, 71, 62
1, 1145629, Control_c, 0, 67, 38
1, 1145630, Note_on_c, 0, 68, 77
1, 1145631, Note_on_c, 0, 44, 81
1, 1145658, Note_off_c, 0, 47, 60
1, 1145713, Note_on_c, 0, 64, 84
1, 1145716, Note_on_c, 0, 40, 79
1, 1145729, Note_off_c, 0, 68, 62
1, 1145733, Control_c, 0, 67, 37
1, 1145748, Note_off_c, 0, 44, 61
1, 1145748, Control_c, 0, 67, 36
1, 1145762, Control_c, 0, 67, 34
1, 1145777, Control_c, 0, 67, 0
1, 1145825, Note_on_c, 0, 35, 99
1, 1145833, Note_on_c, 0, 59, 92
1, 1145874, Note_off_c, 0, 64, 65
1, 1145878, Note_off_c, 0, 40, 61
1, 1145894, Note_on_c, 0, 38, 20
1, 1145898, Note_off_c, 0, 35, 64
1, 1145900, Note_off_c, 0, 59, 67
1, 1145903, Control_c, 0, 64, 99
1, 1145918, Control_c, 0, 64, 78
1, 1145934, Control_c, 0, 64, 64
1, 1145941, Note_off_c, 0, 38, 39
1, 1145949, Control_c, 0, 64, 52
1, 1145963, Control_c, 0, 64, 44
1, 1145978, Control_c, 0, 64, 0
1, 1146265, Note_on_c, 0, 68, 84
1, 1146270, Note_on_c, 0, 56, 75
1, 1146272, Note_on_c, 0, 47, 71
1, 1146274, Note_on_c, 0, 52, 64
1, 1146274, Note_on_c, 0, 64, 76
1, 1146279, Note_on_c, 0, 59, 73
1, 1146512, Control_c, 0, 64, 28
1, 1146527, Control_c, 0, 64, 41
1, 1146542, Control_c, 0, 64, 55
1, 1146557, Control_c, 0, 64, 60
1, 1146572, Control_c, 0, 64, 62
1, 1146586, Control_c, 0, 64, 64
1, 1146608, Control_c, 0, 64, 66
1, 1146623, Control_c, 0, 64, 69
1, 1146637, Control_c, 0, 64, 74
1, 1146649, Note_off_c, 0, 56, 63
1, 1146652, Control_c, 0, 64, 79
1, 1146663, Note_off_c, 0, 47, 56
1, 1146664, Note_off_c, 0, 52, 61
1, 1146667, Control_c, 0, 64, 83
1, 1146674, Note_off_c, 0, 59, 62
1, 1146682, Control_c, 0, 64, 87
1, 1146683, Note_off_c, 0, 64, 64
1, 1146691, Note_off_c, 0, 68, 59
1, 1146697, Control_c, 0, 64, 90
1, 1146712, Control_c, 0, 64, 93
1, 1146727, Control_c, 0, 64, 95
1, 1146742, Control_c, 0, 64, 95
1, 1146860, Control_c, 0, 64, 95
1, 1146876, Control_c, 0, 64, 94
1, 1146891, Control_c, 0, 64, 93
1, 1146906, Control_c, 0, 64, 90
1, 1146921, Control_c, 0, 64, 86
1, 1146935, Control_c, 0, 64, 82
1, 1146950, Control_c, 0, 64, 77
1, 1146965, Control_c, 0, 64, 69
1, 1146974, Note_on_c, 0, 66, 54
1, 1146977, Note_on_c, 0, 63, 52
1, 1146979, Note_on_c, 0, 47, 44
1, 1146980, Control_c, 0, 64, 56
1, 1146980, Note_on_c, 0, 59, 47
1, 1146988, Note_on_c, 0, 54, 47
1, 1146995, Control_c, 0, 64, 0
1, 1146995, Note_on_c, 0, 51, 40
1, 1147068, Control_c, 0, 64, 34
1, 1147083, Control_c, 0, 64, 57
1, 1147094, Note_off_c, 0, 63, 63
1, 1147098, Control_c, 0, 64, 67
1, 1147101, Note_off_c, 0, 51, 62
1, 1147103, Note_off_c, 0, 54, 61
1, 1147111, Note_off_c, 0, 47, 62
1, 1147112, Note_off_c, 0, 66, 64
1, 1147113, Control_c, 0, 64, 76
1, 1147127, Control_c, 0, 64, 84
1, 1147142, Control_c, 0, 64, 90
1, 1147157, Control_c, 0, 64, 95
1, 1147167, Note_off_c, 0, 59, 61
1, 1147172, Control_c, 0, 64, 99
1, 1147186, Control_c, 0, 64, 102
1, 1147320, Control_c, 0, 64, 97
1, 1147335, Control_c, 0, 64, 84
1, 1147357, Control_c, 0, 64, 69
1, 1147371, Note_on_c, 0, 64, 50
1, 1147372, Control_c, 0, 64, 47
1, 1147386, Control_c, 0, 64, 0
1, 1147387, Note_on_c, 0, 40, 40
1, 1147389, Note_on_c, 0, 52, 40
1, 1147401, Control_c, 0, 67, 48
1, 1147411, Note_off_c, 0, 64, 64
1, 1147416, Control_c, 0, 67, 62
1, 1147431, Control_c, 0, 64, 29
1, 1147431, Control_c, 0, 67, 78
1, 1147446, Control_c, 0, 64, 44
1, 1147446, Control_c, 0, 67, 91
1, 1147452, Note_on_c, 0, 59, 57
1, 1147460, Control_c, 0, 64, 55
1, 1147460, Control_c, 0, 67, 104
1, 1147475, Control_c, 0, 64, 61
1, 1147475, Control_c, 0, 67, 118
1, 1147490, Control_c, 0, 64, 64
1, 1147490, Control_c, 0, 67, 127
1, 1147505, Control_c, 0, 64, 65
1, 1147520, Control_c, 0, 64, 67
1, 1147521, Note_off_c, 0, 59, 61
1, 1147535, Control_c, 0, 64, 68
1, 1147544, Note_on_c, 0, 56, 64
1, 1147550, Control_c, 0, 64, 70
1, 1147565, Control_c, 0, 64, 73
1, 1147578, Note_off_c, 0, 40, 62
1, 1147579, Control_c, 0, 64, 74
1, 1147588, Note_off_c, 0, 52, 62
1, 1147592, Note_off_c, 0, 56, 62
1, 1147594, Control_c, 0, 64, 74
1, 1147609, Control_c, 0, 64, 75
1, 1147634, Note_on_c, 0, 59, 65
1, 1147663, Note_off_c, 0, 59, 62
1, 1147699, Control_c, 0, 64, 74
1, 1147714, Control_c, 0, 64, 73
1, 1147728, Control_c, 0, 64, 72
1, 1147732, Note_on_c, 0, 64, 57
1, 1147743, Control_c, 0, 64, 71
1, 1147758, Note_off_c, 0, 64, 60
1, 1147758, Control_c, 0, 64, 69
1, 1147773, Control_c, 0, 64, 66
1, 1147788, Control_c, 0, 64, 61
1, 1147802, Control_c, 0, 64, 55
1, 1147817, Control_c, 0, 64, 44
1, 1147823, Note_on_c, 0, 68, 51
1, 1147832, Control_c, 0, 64, 0
1, 1147886, Note_off_c, 0, 68, 60
1, 1147905, Note_on_c, 0, 52, 50
1, 1147910, Note_on_c, 0, 59, 41
1, 1147913, Note_on_c, 0, 56, 43
1, 1147916, Note_on_c, 0, 71, 62
1, 1147921, Control_c, 0, 64, 28
1, 1147936, Control_c, 0, 64, 41
1, 1147950, Control_c, 0, 64, 54
1, 1147965, Control_c, 0, 64, 61
1, 1147980, Control_c, 0, 64, 64
1, 1147986, Note_off_c, 0, 71, 60
1, 1147995, Control_c, 0, 64, 64
1, 1148009, Note_on_c, 0, 68, 58
1, 1148009, Control_c, 0, 64, 65
1, 1148024, Control_c, 0, 64, 66
1, 1148030, Note_off_c, 0, 59, 61
1, 1148035, Note_off_c, 0, 56, 62
1, 1148039, Control_c, 0, 64, 68
1, 1148044, Note_off_c, 0, 52, 61
1, 1148054, Control_c, 0, 64, 69
1, 1148059, Note_off_c, 0, 68, 61
1, 1148069, Control_c, 0, 64, 71
1, 1148083, Control_c, 0, 64, 71
1, 1148089, Note_on_c, 0, 64, 67
1, 1148106, Control_c, 0, 64, 72
1, 1148121, Control_c, 0, 64, 73
1, 1148138, Note_off_c, 0, 64, 61
1, 1148151, Control_c, 0, 64, 73
1, 1148185, Note_on_c, 0, 56, 55
1, 1148194, Note_on_c, 0, 71, 65
1, 1148195, Note_on_c, 0, 59, 52
1, 1148223, Note_on_c, 0, 52, 45
1, 1148235, Note_on_c, 0, 51, 34
1, 1148262, Note_off_c, 0, 71, 62
1, 1148271, Note_on_c, 0, 68, 62
1, 1148276, Note_off_c, 0, 56, 63
1, 1148277, Note_off_c, 0, 51, 47
1, 1148288, Note_off_c, 0, 59, 57
1, 1148306, Note_off_c, 0, 52, 54
1, 1148339, Note_off_c, 0, 68, 62
1, 1148371, Control_c, 0, 64, 73
1, 1148375, Note_on_c, 0, 64, 57
1, 1148400, Control_c, 0, 64, 72
1, 1148445, Control_c, 0, 64, 72
1, 1148476, Control_c, 0, 64, 71
1, 1148491, Control_c, 0, 64, 71
1, 1148495, Note_off_c, 0, 64, 48
1, 1148505, Control_c, 0, 64, 70
1, 1148518, Note_on_c, 0, 63, 50
1, 1148520, Control_c, 0, 64, 69
1, 1148521, Note_on_c, 0, 57, 60
1, 1148535, Control_c, 0, 64, 68
1, 1148538, Note_on_c, 0, 59, 49
1, 1148550, Control_c, 0, 64, 67
1, 1148557, Note_on_c, 0, 52, 45
1, 1148565, Control_c, 0, 64, 65
1, 1148566, Note_off_c, 0, 63, 63
1, 1148579, Control_c, 0, 64, 62
1, 1148594, Control_c, 0, 64, 57
1, 1148609, Control_c, 0, 64, 51
1, 1148616, Note_on_c, 0, 66, 61
1, 1148623, Control_c, 0, 64, 39
1, 1148638, Control_c, 0, 64, 0
1, 1148674, Note_off_c, 0, 66, 60
1, 1148700, Note_on_c, 0, 71, 65
1, 1148712, Control_c, 0, 64, 41
1, 1148727, Control_c, 0, 64, 54
1, 1148742, Control_c, 0, 64, 62
1, 1148757, Control_c, 0, 64, 66
1, 1148769, Note_off_c, 0, 71, 58
1, 1148772, Control_c, 0, 64, 68
1, 1148787, Control_c, 0, 64, 71
1, 1148802, Note_on_c, 0, 63, 66
1, 1148802, Control_c, 0, 64, 73
1, 1148817, Control_c, 0, 64, 76
1, 1148831, Control_c, 0, 64, 79
1, 1148853, Control_c, 0, 64, 80
1, 1148868, Control_c, 0, 64, 81
1, 1148883, Control_c, 0, 64, 82
1, 1148893, Note_off_c, 0, 63, 59
1, 1148894, Note_on_c, 0, 66, 67
1, 1148897, Note_off_c, 0, 57, 60
1, 1148900, Note_off_c, 0, 59, 59
1, 1148927, Control_c, 0, 64, 83
1, 1148928, Note_off_c, 0, 52, 40
1, 1148963, Note_off_c, 0, 66, 65
1, 1148978, Note_on_c, 0, 71, 61
1, 1149011, Note_off_c, 0, 71, 64
1, 1149046, Control_c, 0, 64, 82
1, 1149061, Control_c, 0, 64, 79
1, 1149076, Note_on_c, 0, 71, 63
1, 1149076, Control_c, 0, 64, 69
1, 1149091, Control_c, 0, 64, 54
1, 1149094, Note_on_c, 0, 59, 48
1, 1149098, Note_on_c, 0, 52, 50
1, 1149100, Note_on_c, 0, 57, 47
1, 1149105, Control_c, 0, 64, 0
1, 1149164, Control_c, 0, 64, 43
1, 1149171, Note_off_c, 0, 71, 38
1, 1149179, Control_c, 0, 64, 53
1, 1149179, Control_c, 0, 67, 125
1, 1149185, Note_on_c, 0, 75, 63
1, 1149194, Control_c, 0, 64, 60
1, 1149209, Control_c, 0, 64, 63
1, 1149223, Control_c, 0, 64, 66
1, 1149238, Control_c, 0, 64, 67
1, 1149241, Note_off_c, 0, 57, 62
1, 1149242, Note_off_c, 0, 59, 60
1, 1149248, Note_off_c, 0, 52, 59
1, 1149253, Control_c, 0, 64, 69
1, 1149261, Note_off_c, 0, 75, 63
1, 1149268, Control_c, 0, 64, 71
1, 1149278, Note_on_c, 0, 78, 63
1, 1149284, Control_c, 0, 64, 74
1, 1149299, Control_c, 0, 64, 76
1, 1149305, Note_off_c, 0, 78, 66
1, 1149314, Control_c, 0, 64, 77
1, 1149328, Control_c, 0, 64, 77
1, 1149343, Control_c, 0, 64, 78
1, 1149343, Control_c, 0, 67, 123
1, 1149358, Control_c, 0, 64, 78
1, 1149372, Control_c, 0, 67, 121
1, 1149374, Note_on_c, 0, 83, 68
1, 1149382, Note_on_c, 0, 59, 53
1, 1149387, Control_c, 0, 67, 119
1, 1149390, Note_on_c, 0, 57, 47
1, 1149395, Note_on_c, 0, 52, 44
1, 1149402, Control_c, 0, 67, 115
1, 1149417, Control_c, 0, 67, 112
1, 1149457, Note_off_c, 0, 83, 37
1, 1149458, Note_off_c, 0, 57, 53
1, 1149471, Note_on_c, 0, 87, 65
1, 1149477, Note_off_c, 0, 59, 45
1, 1149487, Note_off_c, 0, 52, 47
1, 1149520, Control_c, 0, 67, 114
1, 1149556, Note_off_c, 0, 87, 61
1, 1149562, Note_on_c, 0, 90, 60
1, 1149565, Control_c, 0, 64, 78
1, 1149602, Control_c, 0, 64, 77
1, 1149617, Control_c, 0, 64, 76
1, 1149632, Control_c, 0, 64, 75
1, 1149645, Note_off_c, 0, 90, 63
1, 1149647, Control_c, 0, 64, 74
1, 1149660, Note_on_c, 0, 88, 64
1, 1149661, Control_c, 0, 64, 70
1, 1149677, Control_c, 0, 64, 63
1, 1149686, Note_on_c, 0, 59, 39
1, 1149690, Note_on_c, 0, 52, 39
1, 1149692, Control_c, 0, 64, 50
1, 1149699, Note_on_c, 0, 56, 38
1, 1149707, Note_off_c, 0, 88, 64
1, 1149707, Control_c, 0, 64, 0
1, 1149707, Control_c, 0, 67, 112
1, 1149736, Control_c, 0, 67, 109
1, 1149751, Control_c, 0, 67, 105
1, 1149761, Note_on_c, 0, 83, 58
1, 1149766, Control_c, 0, 64, 33
1, 1149766, Control_c, 0, 67, 94
1, 1149780, Control_c, 0, 64, 42
1, 1149780, Control_c, 0, 67, 85
1, 1149789, Note_off_c, 0, 83, 66
1, 1149795, Control_c, 0, 64, 50
1, 1149795, Control_c, 0, 67, 79
1, 1149810, Control_c, 0, 64, 58
1, 1149810, Control_c, 0, 67, 70
1, 1149825, Control_c, 0, 64, 62
1, 1149825, Control_c, 0, 67, 59
1, 1149840, Control_c, 0, 64, 64
1, 1149840, Control_c, 0, 67, 48
1, 1149852, Note_on_c, 0, 80, 64
1, 1149854, Control_c, 0, 64, 65
1, 1149854, Control_c, 0, 67, 34
1, 1149869, Control_c, 0, 64, 67
1, 1149869, Control_c, 0, 67, 0
1, 1149884, Control_c, 0, 64, 69
1, 1149899, Control_c, 0, 64, 72
1, 1149914, Control_c, 0, 64, 75
1, 1149919, Note_off_c, 0, 80, 61
1, 1149928, Control_c, 0, 64, 77
1, 1149940, Note_on_c, 0, 76, 64
1, 1149943, Control_c, 0, 64, 78
1, 1149958, Control_c, 0, 64, 80
1, 1149971, Note_off_c, 0, 76, 64
1, 1149973, Control_c, 0, 64, 82
1, 1149988, Control_c, 0, 64, 84
1, 1150003, Control_c, 0, 64, 86
1, 1150004, Note_off_c, 0, 59, 58
1, 1150016, Note_off_c, 0, 56, 60
1, 1150018, Note_off_c, 0, 52, 55
1, 1150018, Control_c, 0, 64, 87
1, 1150033, Control_c, 0, 64, 88
1, 1150035, Note_on_c, 0, 71, 58
1, 1150062, Control_c, 0, 64, 88
1, 1150063, Note_off_c, 0, 71, 62
1, 1150128, Note_on_c, 0, 68, 49
1, 1150167, Control_c, 0, 64, 88
1, 1150174, Note_off_c, 0, 68, 58
1, 1150182, Control_c, 0, 64, 83
1, 1150196, Control_c, 0, 64, 73
1, 1150211, Control_c, 0, 64, 61
1, 1150226, Control_c, 0, 64, 54
1, 1150232, Note_on_c, 0, 71, 53
1, 1150233, Note_on_c, 0, 59, 41
1, 1150235, Note_on_c, 0, 52, 45
1, 1150241, Note_on_c, 0, 56, 42
1, 1150241, Control_c, 0, 64, 55
1, 1150256, Control_c, 0, 64, 59
1, 1150270, Control_c, 0, 64, 62
1, 1150285, Control_c, 0, 64, 64
1, 1150293, Note_off_c, 0, 71, 59
1, 1150300, Control_c, 0, 64, 67
1, 1150315, Control_c, 0, 64, 72
1, 1150316, Note_on_c, 0, 68, 55
1, 1150330, Control_c, 0, 64, 75
1, 1150352, Control_c, 0, 64, 78
1, 1150367, Control_c, 0, 64, 80
1, 1150373, Note_off_c, 0, 59, 56
1, 1150381, Control_c, 0, 64, 83
1, 1150383, Note_off_c, 0, 68, 59
1, 1150387, Note_off_c, 0, 52, 58
1, 1150393, Note_off_c, 0, 56, 60
1, 1150396, Control_c, 0, 64, 88
1, 1150411, Control_c, 0, 64, 94
1, 1150424, Note_on_c, 0, 64, 59
1, 1150426, Control_c, 0, 64, 98
1, 1150441, Control_c, 0, 64, 96
1, 1150456, Control_c, 0, 64, 86
1, 1150462, Note_off_c, 0, 64, 64
1, 1150470, Control_c, 0, 64, 72
1, 1150485, Control_c, 0, 64, 61
1, 1150500, Control_c, 0, 64, 55
1, 1150515, Control_c, 0, 64, 58
1, 1150517, Note_on_c, 0, 71, 62
1, 1150524, Note_on_c, 0, 56, 52
1, 1150528, Note_on_c, 0, 59, 39
1, 1150530, Control_c, 0, 64, 62
1, 1150534, Note_on_c, 0, 52, 44
1, 1150544, Control_c, 0, 64, 65
1, 1150559, Control_c, 0, 64, 69
1, 1150574, Note_off_c, 0, 71, 57
1, 1150574, Control_c, 0, 64, 74
1, 1150589, Control_c, 0, 64, 77
1, 1150603, Control_c, 0, 64, 80
1, 1150604, Note_on_c, 0, 68, 55
1, 1150606, Note_off_c, 0, 56, 55
1, 1150618, Control_c, 0, 64, 82
1, 1150623, Note_off_c, 0, 59, 52
1, 1150633, Control_c, 0, 64, 83
1, 1150639, Note_off_c, 0, 52, 57
1, 1150648, Control_c, 0, 64, 84
1, 1150650, Note_off_c, 0, 68, 58
1, 1150663, Control_c, 0, 64, 85
1, 1150677, Control_c, 0, 64, 86
1, 1150693, Note_on_c, 0, 64, 51
1, 1150788, Note_off_c, 0, 64, 40
1, 1150811, Control_c, 0, 64, 85
1, 1150824, Note_on_c, 0, 63, 49
1, 1150826, Control_c, 0, 64, 84
1, 1150833, Note_on_c, 0, 57, 47
1, 1150841, Control_c, 0, 64, 82
1, 1150853, Note_on_c, 0, 52, 42
1, 1150853, Note_on_c, 0, 59, 34
1, 1150855, Control_c, 0, 64, 80
1, 1150871, Control_c, 0, 64, 76
1, 1150886, Control_c, 0, 64, 71
1, 1150894, Note_off_c, 0, 63, 52
1, 1150900, Control_c, 0, 64, 63
1, 1150915, Control_c, 0, 64, 53
1, 1150929, Note_on_c, 0, 66, 54
1, 1150930, Control_c, 0, 64, 34
1, 1150945, Control_c, 0, 64, 0
1, 1150989, Note_off_c, 0, 66, 59
1, 1150990, Control_c, 0, 64, 29
1, 1151004, Control_c, 0, 64, 40
1, 1151018, Note_on_c, 0, 71, 55
1, 1151019, Control_c, 0, 64, 51
1, 1151034, Control_c, 0, 64, 61
1, 1151049, Control_c, 0, 64, 66
1, 1151064, Control_c, 0, 64, 69
1, 1151067, Note_off_c, 0, 71, 58
1, 1151079, Control_c, 0, 64, 71
1, 1151100, Control_c, 0, 64, 74
1, 1151115, Control_c, 0, 64, 78
1, 1151116, Note_on_c, 0, 63, 61
1, 1151130, Control_c, 0, 64, 82
1, 1151145, Control_c, 0, 64, 86
1, 1151160, Control_c, 0, 64, 88
1, 1151174, Control_c, 0, 64, 89
1, 1151189, Control_c, 0, 64, 90
1, 1151195, Note_off_c, 0, 63, 59
1, 1151204, Note_on_c, 0, 66, 64
1, 1151204, Control_c, 0, 64, 91
1, 1151219, Control_c, 0, 64, 91
1, 1151234, Control_c, 0, 64, 92
1, 1151246, Note_off_c, 0, 57, 58
1, 1151259, Note_off_c, 0, 59, 43
1, 1151270, Note_off_c, 0, 52, 41
1, 1151270, Note_off_c, 0, 66, 64
1, 1151283, Note_on_c, 0, 71, 62
1, 1151293, Control_c, 0, 64, 93
1, 1151308, Control_c, 0, 64, 94
1, 1151316, Note_off_c, 0, 71, 64
1, 1151323, Control_c, 0, 64, 94
1, 1151338, Control_c, 0, 64, 94
1, 1151352, Control_c, 0, 64, 84
1, 1151367, Control_c, 0, 64, 70
1, 1151382, Control_c, 0, 64, 57
1, 1151388, Note_on_c, 0, 71, 49
1, 1151397, Control_c, 0, 64, 43
1, 1151403, Note_on_c, 0, 59, 40
1, 1151404, Note_on_c, 0, 57, 39
1, 1151408, Note_on_c, 0, 52, 43
1, 1151412, Control_c, 0, 64, 43
1, 1151426, Control_c, 0, 64, 49
1, 1151440, Note_off_c, 0, 71, 47
1, 1151441, Control_c, 0, 64, 56
1, 1151456, Control_c, 0, 64, 59
1, 1151471, Control_c, 0, 64, 60
1, 1151478, Note_on_c, 0, 75, 64
1, 1151486, Control_c, 0, 64, 62
1, 1151500, Control_c, 0, 64, 63
1, 1151515, Control_c, 0, 64, 65
1, 1151530, Control_c, 0, 64, 68
1, 1151532, Note_off_c, 0, 57, 55
1, 1151544, Note_off_c, 0, 52, 59
1, 1151544, Control_c, 0, 64, 73
1, 1151547, Note_off_c, 0, 59, 50
1, 1151552, Note_off_c, 0, 75, 63
1, 1151559, Note_on_c, 0, 78, 69
1, 1151559, Control_c, 0, 64, 77
1, 1151574, Control_c, 0, 64, 79
1, 1151589, Control_c, 0, 64, 80
1, 1151593, Note_off_c, 0, 78, 61
1, 1151604, Control_c, 0, 64, 81
1, 1151619, Control_c, 0, 64, 83
1, 1151633, Control_c, 0, 64, 85
1, 1151648, Control_c, 0, 64, 87
1, 1151657, Note_on_c, 0, 83, 74
1, 1151663, Control_c, 0, 64, 89
1, 1151678, Note_on_c, 0, 59, 50
1, 1151679, Control_c, 0, 64, 90
1, 1151680, Note_on_c, 0, 57, 43
1, 1151682, Note_on_c, 0, 52, 47
1, 1151694, Control_c, 0, 64, 92
1, 1151709, Control_c, 0, 64, 93
1, 1151723, Control_c, 0, 64, 94
1, 1151729, Note_off_c, 0, 57, 58
1, 1151738, Control_c, 0, 64, 95
1, 1151747, Note_off_c, 0, 59, 52
1, 1151751, Note_off_c, 0, 52, 48
1, 1151753, Control_c, 0, 64, 95
1, 1151755, Note_on_c, 0, 87, 72
1, 1151768, Control_c, 0, 64, 96
1, 1151815, Note_off_c, 0, 83, 39
1, 1151852, Note_on_c, 0, 90, 69
1, 1151861, Note_off_c, 0, 87, 62
1, 1151944, Note_off_c, 0, 90, 64
1, 1151950, Note_on_c, 0, 88, 67
1, 1151952, Control_c, 0, 64, 94
1, 1151962, Note_on_c, 0, 52, 40
1, 1151964, Note_on_c, 0, 59, 41
1, 1151967, Control_c, 0, 64, 91
1, 1151979, Note_on_c, 0, 56, 41
1, 1151982, Control_c, 0, 64, 84
1, 1151997, Control_c, 0, 64, 72
1, 1152000, Note_off_c, 0, 88, 63
1, 1152012, Control_c, 0, 64, 59
1, 1152027, Control_c, 0, 64, 41
1, 1152041, Note_on_c, 0, 83, 63
1, 1152042, Control_c, 0, 64, 0
1, 1152071, Control_c, 0, 64, 33
1, 1152078, Note_off_c, 0, 83, 63
1, 1152086, Control_c, 0, 64, 45
1, 1152101, Control_c, 0, 64, 57
1, 1152116, Control_c, 0, 64, 66
1, 1152130, Control_c, 0, 64, 73
1, 1152137, Note_on_c, 0, 80, 71
1, 1152145, Control_c, 0, 64, 79
1, 1152160, Control_c, 0, 64, 85
1, 1152174, Control_c, 0, 64, 91
1, 1152189, Control_c, 0, 64, 97
1, 1152204, Control_c, 0, 64, 105
1, 1152219, Control_c, 0, 64, 117
1, 1152225, Note_on_c, 0, 76, 75
1, 1152226, Note_off_c, 0, 80, 60
1, 1152234, Control_c, 0, 64, 127
1, 1152274, Note_off_c, 0, 76, 64
1, 1152282, Note_off_c, 0, 56, 61
1, 1152289, Note_off_c, 0, 59, 45
1, 1152307, Note_on_c, 0, 71, 70
1, 1152308, Note_off_c, 0, 52, 39
1, 1152387, Note_off_c, 0, 71, 59
1, 1152388, Note_on_c, 0, 68, 72
1, 1152446, Note_off_c, 0, 68, 62
1, 1152471, Control_c, 0, 64, 84
1, 1152486, Control_c, 0, 64, 60
1, 1152492, Note_on_c, 0, 71, 81
1, 1152499, Note_on_c, 0, 59, 70
1, 1152501, Control_c, 0, 64, 0
1, 1152504, Note_on_c, 0, 52, 71
1, 1152506, Note_on_c, 0, 57, 66
1, 1152546, Control_c, 0, 64, 29
1, 1152561, Control_c, 0, 64, 54
1, 1152575, Control_c, 0, 64, 67
1, 1152578, Note_off_c, 0, 71, 58
1, 1152581, Note_on_c, 0, 75, 74
1, 1152597, Control_c, 0, 64, 78
1, 1152612, Control_c, 0, 64, 92
1, 1152625, Note_off_c, 0, 57, 59
1, 1152627, Control_c, 0, 64, 105
1, 1152640, Note_off_c, 0, 59, 59
1, 1152642, Control_c, 0, 64, 127
1, 1152645, Note_off_c, 0, 52, 58
1, 1152677, Note_on_c, 0, 78, 76
1, 1152687, Note_off_c, 0, 75, 63
1, 1152727, Note_off_c, 0, 78, 62
1, 1152775, Note_on_c, 0, 83, 94
1, 1152779, Note_on_c, 0, 59, 71
1, 1152781, Note_on_c, 0, 57, 68
1, 1152784, Note_on_c, 0, 52, 66
1, 1152853, Note_off_c, 0, 57, 57
1, 1152869, Note_on_c, 0, 87, 84
1, 1152872, Note_off_c, 0, 59, 44
1, 1152888, Note_off_c, 0, 52, 51
1, 1152912, Note_off_c, 0, 83, 55
1, 1152957, Note_on_c, 0, 90, 81
1, 1152971, Note_off_c, 0, 87, 64
1, 1153053, Note_on_c, 0, 88, 81
1, 1153055, Note_on_c, 0, 56, 83
1, 1153055, Note_off_c, 0, 90, 63
1, 1153057, Note_on_c, 0, 59, 85
1, 1153062, Note_on_c, 0, 52, 75
1, 1153072, Control_c, 0, 64, 74
1, 1153087, Control_c, 0, 64, 51
1, 1153101, Note_off_c, 0, 88, 65
1, 1153102, Control_c, 0, 64, 0
1, 1153139, Note_on_c, 0, 83, 73
1, 1153181, Note_off_c, 0, 83, 65
1, 1153240, Note_on_c, 0, 80, 72
1, 1153295, Control_c, 0, 64, 45
1, 1153310, Control_c, 0, 64, 60
1, 1153325, Control_c, 0, 64, 67
1, 1153332, Note_on_c, 0, 76, 78
1, 1153337, Note_off_c, 0, 80, 61
1, 1153347, Control_c, 0, 64, 76
1, 1153362, Control_c, 0, 64, 86
1, 1153377, Control_c, 0, 64, 97
1, 1153392, Note_off_c, 0, 76, 65
1, 1153392, Control_c, 0, 64, 113
1, 1153407, Note_off_c, 0, 56, 60
1, 1153407, Control_c, 0, 64, 127
1, 1153416, Note_off_c, 0, 59, 59
1, 1153422, Note_off_c, 0, 52, 61
1, 1153427, Note_on_c, 0, 71, 77
1, 1153511, Note_off_c, 0, 71, 40
1, 1153516, Note_on_c, 0, 68, 75
1, 1153570, Note_off_c, 0, 68, 63
1, 1153599, Control_c, 0, 64, 90
1, 1153614, Control_c, 0, 64, 60
1, 1153616, Note_on_c, 0, 71, 85
1, 1153618, Note_on_c, 0, 59, 89
1, 1153621, Note_on_c, 0, 57, 79
1, 1153623, Note_on_c, 0, 52, 83
1, 1153628, Control_c, 0, 64, 0
1, 1153628, Control_c, 0, 67, 33
1, 1153643, Control_c, 0, 67, 34
1, 1153673, Control_c, 0, 64, 29
1, 1153688, Control_c, 0, 64, 59
1, 1153688, Control_c, 0, 67, 34
1, 1153702, Control_c, 0, 64, 72
1, 1153705, Note_on_c, 0, 75, 77
1, 1153707, Note_off_c, 0, 71, 59
1, 1153717, Control_c, 0, 64, 89
1, 1153732, Control_c, 0, 64, 108
1, 1153738, Note_off_c, 0, 57, 60
1, 1153747, Control_c, 0, 64, 127
1, 1153747, Control_c, 0, 67, 34
1, 1153748, Note_off_c, 0, 59, 58
1, 1153768, Note_off_c, 0, 52, 59
1, 1153796, Note_on_c, 0, 78, 78
1, 1153798, Note_off_c, 0, 75, 64
1, 1153807, Control_c, 0, 67, 33
1, 1153836, Control_c, 0, 67, 0
1, 1153839, Note_off_c, 0, 78, 63
1, 1153886, Note_on_c, 0, 83, 90
1, 1153891, Note_on_c, 0, 59, 80
1, 1153893, Note_on_c, 0, 57, 75
1, 1153896, Note_on_c, 0, 52, 73
1, 1153974, Note_on_c, 0, 87, 81
1, 1154006, Note_off_c, 0, 57, 59
1, 1154010, Note_off_c, 0, 59, 53
1, 1154012, Note_off_c, 0, 83, 59
1, 1154027, Note_off_c, 0, 52, 56
1, 1154060, Note_on_c, 0, 90, 80
1, 1154063, Note_off_c, 0, 87, 64
1, 1154111, Note_off_c, 0, 90, 65
1, 1154170, Control_c, 0, 64, 123
1, 1154185, Control_c, 0, 64, 70
1, 1154191, Note_on_c, 0, 59, 87
1, 1154193, Note_on_c, 0, 56, 82
1, 1154193, Note_on_c, 0, 88, 86
1, 1154196, Note_on_c, 0, 52, 76
1, 1154200, Control_c, 0, 64, 0
1, 1154200, Control_c, 0, 67, 34
1, 1154215, Control_c, 0, 67, 35
1, 1154272, Note_on_c, 0, 83, 82
1, 1154274, Control_c, 0, 64, 28
1, 1154288, Note_off_c, 0, 88, 66
1, 1154289, Control_c, 0, 64, 43
1, 1154304, Control_c, 0, 64, 55
1, 1154318, Control_c, 0, 64, 63
1, 1154333, Control_c, 0, 64, 69
1, 1154333, Control_c, 0, 67, 34
1, 1154348, Control_c, 0, 64, 75
1, 1154359, Note_on_c, 0, 80, 81
1, 1154363, Control_c, 0, 64, 80
1, 1154370, Note_off_c, 0, 83, 63
1, 1154377, Control_c, 0, 64, 87
1, 1154392, Control_c, 0, 64, 97
1, 1154407, Control_c, 0, 64, 116
1, 1154422, Control_c, 0, 64, 127
1, 1154427, Note_off_c, 0, 80, 64
1, 1154440, Note_on_c, 0, 76, 81
1, 1154447, Note_off_c, 0, 59, 61
1, 1154462, Note_off_c, 0, 52, 61
1, 1154470, Note_off_c, 0, 76, 63
1, 1154471, Note_off_c, 0, 56, 62
1, 1154496, Control_c, 0, 67, 35
1, 1154525, Control_c, 0, 67, 35
1, 1154539, Note_on_c, 0, 71, 64
1, 1154594, Note_off_c, 0, 71, 62
1, 1154609, Note_on_c, 0, 68, 66
1, 1154629, Control_c, 0, 67, 35
1, 1154637, Note_off_c, 0, 68, 65
1, 1154674, Control_c, 0, 67, 34
1, 1154689, Control_c, 0, 64, 84
1, 1154704, Control_c, 0, 64, 48
1, 1154718, Control_c, 0, 64, 0
1, 1154718, Control_c, 0, 67, 35
1, 1154731, Note_on_c, 0, 47, 82
1, 1154731, Note_on_c, 0, 83, 85
1, 1154733, Control_c, 0, 67, 36
1, 1154737, Note_on_c, 0, 75, 84
1, 1154740, Note_on_c, 0, 81, 72
1, 1154762, Control_c, 0, 67, 37
1, 1154777, Control_c, 0, 64, 51
1, 1154785, Note_off_c, 0, 75, 62
1, 1154787, Note_off_c, 0, 81, 60
1, 1154792, Control_c, 0, 64, 66
1, 1154793, Note_off_c, 0, 83, 61
1, 1154807, Control_c, 0, 64, 77
1, 1154820, Note_on_c, 0, 51, 84
1, 1154822, Control_c, 0, 64, 90
1, 1154822, Control_c, 0, 67, 36
1, 1154844, Control_c, 0, 64, 101
1, 1154844, Control_c, 0, 67, 35
1, 1154852, Note_off_c, 0, 47, 62
1, 1154859, Control_c, 0, 64, 127
1, 1154874, Control_c, 0, 67, 35
1, 1154889, Control_c, 0, 67, 34
1, 1154919, Note_on_c, 0, 54, 79
1, 1154919, Control_c, 0, 67, 35
1, 1154945, Note_off_c, 0, 51, 60
1, 1154948, Control_c, 0, 64, 115
1, 1154948, Control_c, 0, 67, 36
1, 1154963, Control_c, 0, 64, 72
1, 1154963, Control_c, 0, 67, 37
1, 1154978, Control_c, 0, 64, 46
1, 1154978, Control_c, 0, 67, 38
1, 1154993, Control_c, 0, 64, 27
1, 1154998, Note_off_c, 0, 54, 62
1, 1155008, Control_c, 0, 64, 46
1, 1155008, Control_c, 0, 67, 37
1, 1155011, Note_on_c, 0, 59, 77
1, 1155014, Note_on_c, 0, 83, 89
1, 1155017, Note_on_c, 0, 81, 84
1, 1155019, Note_on_c, 0, 75, 90
1, 1155023, Control_c, 0, 64, 64
1, 1155023, Control_c, 0, 67, 36
1, 1155038, Control_c, 0, 64, 74
1, 1155038, Control_c, 0, 67, 35
1, 1155053, Control_c, 0, 64, 82
1, 1155053, Control_c, 0, 67, 34
1, 1155058, Note_off_c, 0, 59, 65
1, 1155067, Control_c, 0, 64, 85
1, 1155082, Control_c, 0, 64, 89
1, 1155082, Control_c, 0, 67, 33
1, 1155097, Control_c, 0, 64, 95
1, 1155097, Control_c, 0, 67, 0
1, 1155097, Note_off_c, 0, 75, 61
1, 1155112, Control_c, 0, 64, 99
1, 1155113, Note_on_c, 0, 63, 79
1, 1155130, Note_off_c, 0, 81, 60
1, 1155149, Note_off_c, 0, 83, 57
1, 1155159, Note_off_c, 0, 63, 65
1, 1155182, Note_on_c, 0, 66, 82
1, 1155217, Note_off_c, 0, 66, 65
1, 1155230, Control_c, 0, 67, 34
1, 1155245, Control_c, 0, 64, 96
1, 1155245, Control_c, 0, 67, 35
1, 1155259, Control_c, 0, 64, 88
1, 1155259, Control_c, 0, 67, 36
1, 1155274, Control_c, 0, 64, 77
1, 1155274, Control_c, 0, 67, 37
1, 1155289, Control_c, 0, 64, 63
1, 1155289, Control_c, 0, 67, 37
1, 1155291, Note_on_c, 0, 64, 70
1, 1155297, Note_on_c, 0, 80, 86
1, 1155297, Note_on_c, 0, 83, 88
1, 1155300, Note_on_c, 0, 76, 90
1, 1155304, Control_c, 0, 64, 45
1, 1155304, Control_c, 0, 67, 38
1, 1155318, Control_c, 0, 64, 0
1, 1155318, Control_c, 0, 67, 38
1, 1155363, Note_off_c, 0, 64, 63
1, 1155363, Control_c, 0, 67, 38
1, 1155395, Note_on_c, 0, 59, 66
1, 1155468, Note_on_c, 0, 56, 68
1, 1155469, Note_off_c, 0, 59, 64
1, 1155511, Control_c, 0, 67, 38
1, 1155543, Note_off_c, 0, 56, 63
1, 1155556, Control_c, 0, 64, 38
1, 1155568, Note_on_c, 0, 59, 71
1, 1155571, Control_c, 0, 64, 55
1, 1155592, Control_c, 0, 64, 64
1, 1155607, Control_c, 0, 64, 67
1, 1155607, Control_c, 0, 67, 39
1, 1155622, Control_c, 0, 64, 70
1, 1155637, Control_c, 0, 64, 73
1, 1155639, Note_off_c, 0, 59, 52
1, 1155652, Control_c, 0, 64, 75
1, 1155661, Note_on_c, 0, 56, 70
1, 1155667, Note_off_c, 0, 80, 55
1, 1155668, Control_c, 0, 64, 78
1, 1155683, Control_c, 0, 64, 80
1, 1155697, Control_c, 0, 64, 82
1, 1155708, Note_off_c, 0, 76, 55
1, 1155712, Control_c, 0, 64, 83
1, 1155727, Control_c, 0, 64, 84
1, 1155730, Note_off_c, 0, 56, 64
1, 1155730, Note_off_c, 0, 83, 50
1, 1155740, Note_on_c, 0, 52, 71
1, 1155742, Control_c, 0, 64, 85
1, 1155757, Control_c, 0, 64, 85
1, 1155771, Control_c, 0, 64, 86
1, 1155786, Control_c, 0, 64, 87
1, 1155816, Control_c, 0, 64, 86
1, 1155831, Control_c, 0, 64, 74
1, 1155835, Note_off_c, 0, 52, 60
1, 1155845, Control_c, 0, 64, 59
1, 1155860, Control_c, 0, 64, 0
1, 1155863, Note_on_c, 0, 47, 59
1, 1155869, Note_on_c, 0, 83, 72
1, 1155870, Note_on_c, 0, 75, 74
1, 1155873, Note_on_c, 0, 81, 70
1, 1155920, Control_c, 0, 64, 39
1, 1155935, Control_c, 0, 64, 57
1, 1155947, Note_off_c, 0, 47, 63
1, 1155949, Control_c, 0, 64, 65
1, 1155949, Control_c, 0, 67, 38
1, 1155953, Note_on_c, 0, 51, 67
1, 1155964, Control_c, 0, 64, 71
1, 1155978, Note_off_c, 0, 75, 61
1, 1155979, Control_c, 0, 64, 78
1, 1155979, Control_c, 0, 67, 38
1, 1155994, Control_c, 0, 64, 87
1, 1155994, Control_c, 0, 67, 37
1, 1155997, Note_off_c, 0, 81, 56
1, 1156009, Control_c, 0, 64, 102
1, 1156023, Control_c, 0, 64, 127
1, 1156026, Note_off_c, 0, 83, 39
1, 1156034, Note_on_c, 0, 54, 66
1, 1156036, Note_off_c, 0, 51, 61
1, 1156053, Control_c, 0, 64, 104
1, 1156068, Control_c, 0, 64, 80
1, 1156082, Control_c, 0, 64, 63
1, 1156082, Control_c, 0, 67, 37
1, 1156094, Note_off_c, 0, 54, 62
1, 1156097, Control_c, 0, 64, 49
1, 1156097, Control_c, 0, 67, 35
1, 1156112, Control_c, 0, 64, 50
1, 1156112, Control_c, 0, 67, 34
1, 1156127, Control_c, 0, 64, 57
1, 1156127, Control_c, 0, 67, 33
1, 1156133, Note_on_c, 0, 59, 62
1, 1156141, Control_c, 0, 64, 63
1, 1156141, Control_c, 0, 67, 0
1, 1156143, Note_on_c, 0, 83, 66
1, 1156147, Note_on_c, 0, 81, 64
1, 1156148, Note_on_c, 0, 75, 75
1, 1156156, Control_c, 0, 64, 68
1, 1156168, Note_off_c, 0, 59, 63
1, 1156171, Control_c, 0, 64, 73
1, 1156186, Control_c, 0, 64, 80
1, 1156201, Control_c, 0, 64, 84
1, 1156215, Control_c, 0, 64, 93
1, 1156227, Note_off_c, 0, 75, 59
1, 1156230, Control_c, 0, 64, 97
1, 1156236, Note_on_c, 0, 63, 65
1, 1156245, Control_c, 0, 64, 99
1, 1156254, Note_off_c, 0, 81, 56
1, 1156275, Control_c, 0, 64, 103
1, 1156290, Control_c, 0, 64, 105
1, 1156299, Note_off_c, 0, 63, 60
1, 1156304, Note_off_c, 0, 83, 38
1, 1156317, Note_on_c, 0, 66, 57
1, 1156380, Note_off_c, 0, 66, 63
1, 1156416, Control_c, 0, 64, 103
1, 1156430, Control_c, 0, 64, 99
1, 1156445, Note_on_c, 0, 83, 57
1, 1156445, Control_c, 0, 64, 93
1, 1156454, Note_on_c, 0, 76, 58
1, 1156454, Note_on_c, 0, 80, 60
1, 1156460, Control_c, 0, 64, 87
1, 1156476, Control_c, 0, 64, 81
1, 1156484, Note_on_c, 0, 64, 23
1, 1156491, Control_c, 0, 64, 74
1, 1156506, Control_c, 0, 64, 66
1, 1156520, Control_c, 0, 64, 55
1, 1156524, Note_off_c, 0, 64, 47
1, 1156535, Control_c, 0, 64, 38
1, 1156550, Control_c, 0, 64, 0
1, 1156558, Note_on_c, 0, 59, 45
1, 1156614, Note_off_c, 0, 59, 61
1, 1156631, Note_on_c, 0, 56, 51
1, 1156638, Control_c, 0, 64, 40
1, 1156653, Control_c, 0, 64, 58
1, 1156653, Control_c, 0, 67, 38
1, 1156668, Control_c, 0, 64, 63
1, 1156668, Control_c, 0, 67, 54
1, 1156683, Control_c, 0, 64, 65
1, 1156683, Control_c, 0, 67, 69
1, 1156698, Control_c, 0, 64, 66
1, 1156698, Control_c, 0, 67, 82
1, 1156709, Note_off_c, 0, 56, 61
1, 1156713, Control_c, 0, 64, 67
1, 1156713, Control_c, 0, 67, 93
1, 1156728, Note_on_c, 0, 59, 59
1, 1156728, Control_c, 0, 64, 69
1, 1156728, Control_c, 0, 67, 104
1, 1156743, Control_c, 0, 64, 71
1, 1156743, Control_c, 0, 67, 114
1, 1156758, Control_c, 0, 64, 72
1, 1156758, Control_c, 0, 67, 121
1, 1156768, Note_off_c, 0, 59, 60
1, 1156772, Control_c, 0, 67, 125
1, 1156802, Control_c, 0, 67, 127
1, 1156814, Note_off_c, 0, 80, 61
1, 1156817, Control_c, 0, 64, 73
1, 1156833, Note_off_c, 0, 76, 57
1, 1156835, Note_on_c, 0, 56, 56
1, 1156883, Note_off_c, 0, 56, 63
1, 1156891, Control_c, 0, 64, 72
1, 1156913, Note_on_c, 0, 52, 53
1, 1156917, Note_off_c, 0, 83, 31
1, 1156950, Control_c, 0, 64, 72
1, 1156964, Control_c, 0, 64, 71
1, 1156979, Control_c, 0, 64, 70
1, 1156994, Control_c, 0, 64, 69
1, 1157002, Note_off_c, 0, 52, 37
1, 1157009, Control_c, 0, 64, 65
1, 1157024, Control_c, 0, 64, 58
1, 1157034, Note_on_c, 0, 83, 56
1, 1157038, Control_c, 0, 64, 43
1, 1157046, Note_on_c, 0, 47, 49
1, 1157050, Note_on_c, 0, 81, 50
1, 1157053, Note_on_c, 0, 75, 50
1, 1157053, Control_c, 0, 64, 0
1, 1157120, Control_c, 0, 64, 28
1, 1157127, Note_off_c, 0, 47, 60
1, 1157135, Control_c, 0, 64, 45
1, 1157150, Control_c, 0, 64, 59
1, 1157157, Note_on_c, 0, 51, 51
1, 1157161, Note_off_c, 0, 75, 62
1, 1157165, Control_c, 0, 64, 69
1, 1157168, Note_off_c, 0, 81, 59
1, 1157169, Note_off_c, 0, 83, 56
1, 1157179, Control_c, 0, 64, 74
1, 1157194, Control_c, 0, 64, 74
1, 1157217, Note_off_c, 0, 51, 59
1, 1157228, Note_on_c, 0, 54, 57
1, 1157279, Note_off_c, 0, 54, 55
1, 1157299, Control_c, 0, 64, 75
1, 1157343, Note_on_c, 0, 59, 47
1, 1157359, Note_on_c, 0, 83, 59
1, 1157364, Note_on_c, 0, 81, 56
1, 1157369, Note_on_c, 0, 75, 59
1, 1157369, Note_off_c, 0, 59, 59
1, 1157422, Note_off_c, 0, 75, 52
1, 1157443, Note_off_c, 0, 83, 50
1, 1157444, Note_off_c, 0, 81, 60
1, 1157447, Control_c, 0, 64, 74
1, 1157452, Note_on_c, 0, 63, 48
1, 1157491, Note_off_c, 0, 63, 64
1, 1157491, Control_c, 0, 64, 74
1, 1157506, Control_c, 0, 64, 73
1, 1157521, Control_c, 0, 64, 72
1, 1157535, Note_on_c, 0, 66, 52
1, 1157536, Control_c, 0, 64, 72
1, 1157551, Control_c, 0, 64, 71
1, 1157565, Note_off_c, 0, 66, 67
1, 1157565, Control_c, 0, 64, 70
1, 1157580, Control_c, 0, 64, 68
1, 1157595, Control_c, 0, 64, 66
1, 1157610, Control_c, 0, 64, 65
1, 1157625, Control_c, 0, 64, 63
1, 1157640, Control_c, 0, 64, 61
1, 1157655, Control_c, 0, 64, 59
1, 1157669, Control_c, 0, 64, 59
1, 1157682, Note_on_c, 0, 83, 47
1, 1157688, Note_on_c, 0, 64, 46
1, 1157696, Note_on_c, 0, 76, 49
1, 1157698, Note_on_c, 0, 80, 49
1, 1157699, Control_c, 0, 64, 59
1, 1157713, Control_c, 0, 64, 60
1, 1157717, Note_off_c, 0, 64, 66
1, 1157728, Control_c, 0, 64, 61
1, 1157743, Control_c, 0, 64, 62
1, 1157777, Note_on_c, 0, 59, 52
1, 1157787, Control_c, 0, 64, 62
1, 1157802, Control_c, 0, 64, 61
1, 1157853, Note_off_c, 0, 59, 61
1, 1157855, Note_on_c, 0, 56, 56
1, 1157899, Control_c, 0, 64, 61
1, 1157913, Control_c, 0, 64, 60
1, 1157922, Note_off_c, 0, 56, 62
1, 1157943, Control_c, 0, 64, 60
1, 1157956, Note_on_c, 0, 59, 58
1, 1157973, Control_c, 0, 64, 59
1, 1158002, Control_c, 0, 64, 59
1, 1158004, Note_off_c, 0, 59, 54
1, 1158017, Control_c, 0, 64, 58
1, 1158032, Control_c, 0, 64, 57
1, 1158042, Note_on_c, 0, 56, 62
1, 1158047, Control_c, 0, 64, 56
1, 1158063, Control_c, 0, 64, 56
1, 1158078, Control_c, 0, 64, 55
1, 1158092, Control_c, 0, 64, 54
1, 1158105, Note_off_c, 0, 56, 61
1, 1158107, Control_c, 0, 64, 54
1, 1158120, Note_on_c, 0, 52, 56
1, 1158122, Control_c, 0, 64, 53
1, 1158203, Note_off_c, 0, 52, 62
1, 1158231, Note_on_c, 0, 56, 56
1, 1158255, Control_c, 0, 64, 53
1, 1158297, Note_off_c, 0, 56, 62
1, 1158331, Note_on_c, 0, 52, 53
1, 1158401, Note_off_c, 0, 52, 62
1, 1158416, Note_on_c, 0, 47, 56
1, 1158448, Control_c, 0, 64, 52
1, 1158461, Note_off_c, 0, 47, 61
1, 1158517, Note_on_c, 0, 52, 50
1, 1158561, Note_off_c, 0, 52, 58
1, 1158615, Note_on_c, 0, 47, 39
1, 1158671, Note_off_c, 0, 47, 59
1, 1158710, Note_on_c, 0, 44, 43
1, 1158758, Note_off_c, 0, 44, 61
1, 1158783, Note_on_c, 0, 40, 50
1, 1158856, Control_c, 0, 64, 53
1, 1158871, Note_off_c, 0, 40, 58
1, 1158871, Note_on_c, 0, 44, 51
1, 1158915, Control_c, 0, 64, 53
1, 1158930, Control_c, 0, 64, 54
1, 1158931, Note_off_c, 0, 76, 56
1, 1158943, Note_off_c, 0, 44, 61
1, 1158945, Control_c, 0, 64, 54
1, 1158955, Note_off_c, 0, 83, 61
1, 1158966, Note_on_c, 0, 47, 55
1, 1158989, Note_off_c, 0, 80, 60
1, 1158989, Control_c, 0, 64, 53
1, 1159004, Control_c, 0, 64, 49
1, 1159019, Control_c, 0, 64, 40
1, 1159025, Note_off_c, 0, 47, 47
1, 1159033, Control_c, 0, 64, 0
1, 1159061, Note_on_c, 0, 44, 53
1, 1159110, Note_off_c, 0, 44, 62
1, 1159137, Note_on_c, 0, 47, 55
1, 1159216, Note_off_c, 0, 47, 53
1, 1159232, Note_on_c, 0, 52, 52
1, 1159294, Note_off_c, 0, 52, 58
1, 1159339, Note_on_c, 0, 40, 49
1, 1159418, Note_off_c, 0, 40, 57
1, 1159436, Note_on_c, 0, 44, 49
1, 1159493, Note_off_c, 0, 44, 62
1, 1159524, Note_on_c, 0, 47, 45
1, 1159578, Note_off_c, 0, 47, 50
1, 1159616, Note_on_c, 0, 44, 54
1, 1159667, Note_off_c, 0, 44, 62
1, 1159691, Note_on_c, 0, 47, 54
1, 1159759, Note_off_c, 0, 47, 58
1, 1159792, Note_on_c, 0, 52, 42
1, 1159853, Note_off_c, 0, 52, 58
1, 1159887, Note_on_c, 0, 64, 60
1, 1159901, Note_on_c, 0, 40, 50
1, 1159965, Note_off_c, 0, 40, 58
1, 1159965, Note_off_c, 0, 64, 59
1, 1159990, Note_on_c, 0, 44, 51
1, 1160044, Note_off_c, 0, 44, 62
1, 1160089, Note_on_c, 0, 47, 48
1, 1160201, Note_off_c, 0, 47, 52
1, 1160230, Note_on_c, 0, 64, 60
1, 1160254, Note_on_c, 0, 44, 43
1, 1160319, Note_off_c, 0, 44, 60
1, 1160341, Note_on_c, 0, 47, 46
1, 1160421, Note_off_c, 0, 47, 61
1, 1160454, Note_on_c, 0, 52, 47
1, 1160511, Note_off_c, 0, 52, 58
1, 1160553, Note_on_c, 0, 40, 45
1, 1160618, Note_off_c, 0, 40, 58
1, 1160647, Note_on_c, 0, 44, 47
1, 1160713, Note_off_c, 0, 44, 60
1, 1160718, Note_off_c, 0, 64, 59
1, 1160730, Note_on_c, 0, 47, 52
1, 1160823, Note_off_c, 0, 47, 44
1, 1160856, Note_on_c, 0, 44, 39
1, 1160860, Note_on_c, 0, 76, 48
1, 1160921, Note_off_c, 0, 44, 62
1, 1160921, Note_off_c, 0, 76, 59
1, 1160955, Note_on_c, 0, 47, 43
1, 1161011, Note_off_c, 0, 47, 59
1, 1161033, Note_on_c, 0, 52, 49
1, 1161080, Note_off_c, 0, 52, 61
1, 1161125, Note_on_c, 0, 40, 53
1, 1161198, Note_off_c, 0, 40, 54
1, 1161204, Control_c, 0, 64, 28
1, 1161208, Note_on_c, 0, 41, 54
1, 1161219, Control_c, 0, 64, 38
1, 1161234, Control_c, 0, 64, 41
1, 1161249, Control_c, 0, 64, 42
1, 1161256, Note_off_c, 0, 41, 62
1, 1161297, Note_on_c, 0, 45, 52
1, 1161309, Control_c, 0, 64, 42
1, 1161324, Control_c, 0, 64, 43
1, 1161339, Control_c, 0, 64, 44
1, 1161340, Note_off_c, 0, 45, 58
1, 1161353, Control_c, 0, 64, 46
1, 1161368, Control_c, 0, 64, 48
1, 1161383, Control_c, 0, 64, 50
1, 1161398, Control_c, 0, 64, 51
1, 1161413, Control_c, 0, 64, 51
1, 1161423, Note_on_c, 0, 41, 39
1, 1161427, Control_c, 0, 64, 52
1, 1161442, Control_c, 0, 64, 53
1, 1161457, Control_c, 0, 64, 54
1, 1161472, Control_c, 0, 64, 55
1, 1161476, Note_off_c, 0, 41, 62
1, 1161501, Control_c, 0, 64, 54
1, 1161516, Control_c, 0, 64, 52
1, 1161521, Note_on_c, 0, 45, 39
1, 1161531, Control_c, 0, 64, 48
1, 1161546, Control_c, 0, 64, 40
1, 1161560, Control_c, 0, 64, 0
1, 1161569, Note_off_c, 0, 45, 62
1, 1161610, Note_on_c, 0, 52, 38
1, 1161646, Note_off_c, 0, 52, 53
1, 1161697, Note_on_c, 0, 40, 51
1, 1161783, Note_off_c, 0, 40, 60
1, 1161787, Note_on_c, 0, 41, 55
1, 1161843, Note_off_c, 0, 41, 61
1, 1161874, Note_on_c, 0, 45, 54
1, 1161926, Note_off_c, 0, 45, 54
1, 1161959, Note_on_c, 0, 41, 57
1, 1162026, Note_off_c, 0, 41, 63
1, 1162050, Note_on_c, 0, 45, 52
1, 1162100, Note_off_c, 0, 45, 57
1, 1162132, Note_on_c, 0, 52, 58
1, 1162147, Control_c, 0, 67, 79
1, 1162162, Control_c, 0, 67, 0
1, 1162180, Note_off_c, 0, 52, 60
1, 1162236, Note_on_c, 0, 40, 56
1, 1162248, Note_on_c, 0, 64, 61
1, 1162319, Note_on_c, 0, 41, 55
1, 1162338, Note_off_c, 0, 40, 61
1, 1162354, Note_off_c, 0, 64, 62
1, 1162391, Note_off_c, 0, 41, 63
1, 1162419, Note_on_c, 0, 45, 56
1, 1162512, Note_off_c, 0, 45, 52
1, 1162558, Note_on_c, 0, 41, 46
1, 1162566, Note_on_c, 0, 64, 62
1, 1162645, Note_off_c, 0, 41, 63
1, 1162662, Note_on_c, 0, 45, 45
1, 1162716, Control_c, 0, 67, 41
1, 1162731, Control_c, 0, 64, 27
1, 1162731, Control_c, 0, 67, 63
1, 1162741, Note_off_c, 0, 45, 54
1, 1162746, Control_c, 0, 64, 31
1, 1162746, Control_c, 0, 67, 101
1, 1162761, Note_on_c, 0, 52, 50
1, 1162761, Control_c, 0, 64, 34
1, 1162761, Control_c, 0, 67, 127
1, 1162776, Control_c, 0, 64, 37
1, 1162791, Control_c, 0, 64, 40
1, 1162806, Control_c, 0, 64, 44
1, 1162815, Note_off_c, 0, 52, 60
1, 1162821, Control_c, 0, 64, 48
1, 1162835, Control_c, 0, 64, 51
1, 1162851, Control_c, 0, 64, 54
1, 1162863, Note_on_c, 0, 40, 55
1, 1162866, Control_c, 0, 64, 55
1, 1162880, Control_c, 0, 64, 56
1, 1162895, Control_c, 0, 64, 57
1, 1162910, Control_c, 0, 64, 58
1, 1162925, Control_c, 0, 64, 59
1, 1162940, Control_c, 0, 64, 59
1, 1162947, Note_on_c, 0, 41, 55
1, 1162949, Note_off_c, 0, 40, 59
1, 1162955, Control_c, 0, 64, 60
1, 1162970, Control_c, 0, 64, 61
1, 1162985, Control_c, 0, 64, 62
1, 1162999, Control_c, 0, 64, 63
1, 1163016, Note_off_c, 0, 41, 64
1, 1163029, Control_c, 0, 64, 63
1, 1163035, Note_on_c, 0, 45, 57
1, 1163056, Note_off_c, 0, 64, 56
1, 1163095, Control_c, 0, 64, 63
1, 1163098, Note_off_c, 0, 45, 55
1, 1163151, Note_on_c, 0, 41, 60
1, 1163155, Control_c, 0, 64, 63
1, 1163164, Note_on_c, 0, 76, 45
1, 1163199, Control_c, 0, 64, 64
1, 1163202, Note_off_c, 0, 76, 61
1, 1163221, Note_off_c, 0, 41, 64
1, 1163240, Note_on_c, 0, 45, 56
1, 1163310, Note_off_c, 0, 45, 57
1, 1163340, Note_on_c, 0, 52, 59
1, 1163377, Control_c, 0, 64, 62
1, 1163392, Control_c, 0, 64, 57
1, 1163396, Note_off_c, 0, 52, 59
1, 1163406, Control_c, 0, 64, 48
1, 1163421, Control_c, 0, 64, 38
1, 1163436, Control_c, 0, 64, 35
1, 1163446, Note_on_c, 0, 40, 56
1, 1163450, Control_c, 0, 64, 37
1, 1163465, Control_c, 0, 64, 44
1, 1163480, Control_c, 0, 64, 51
1, 1163495, Control_c, 0, 64, 55
1, 1163510, Control_c, 0, 64, 58
1, 1163524, Control_c, 0, 64, 61
1, 1163525, Note_on_c, 0, 42, 61
1, 1163530, Note_off_c, 0, 40, 60
1, 1163539, Control_c, 0, 64, 62
1, 1163554, Control_c, 0, 64, 63
1, 1163569, Control_c, 0, 64, 64
1, 1163584, Control_c, 0, 64, 65
1, 1163599, Control_c, 0, 64, 65
1, 1163609, Note_off_c, 0, 42, 63
1, 1163614, Control_c, 0, 64, 66
1, 1163624, Note_on_c, 0, 45, 62
1, 1163644, Control_c, 0, 64, 66
1, 1163659, Control_c, 0, 64, 67
1, 1163703, Control_c, 0, 64, 66
1, 1163714, Note_off_c, 0, 45, 62
1, 1163718, Control_c, 0, 64, 61
1, 1163733, Note_on_c, 0, 42, 61
1, 1163733, Control_c, 0, 64, 51
1, 1163748, Control_c, 0, 64, 38
1, 1163763, Control_c, 0, 64, 33
1, 1163778, Control_c, 0, 64, 40
1, 1163793, Control_c, 0, 64, 52
1, 1163807, Control_c, 0, 64, 59
1, 1163829, Control_c, 0, 64, 63
1, 1163840, Note_on_c, 0, 45, 59
1, 1163844, Note_off_c, 0, 42, 62
1, 1163844, Control_c, 0, 64, 67
1, 1163859, Control_c, 0, 64, 73
1, 1163874, Control_c, 0, 64, 79
1, 1163889, Control_c, 0, 64, 85
1, 1163903, Control_c, 0, 64, 89
1, 1163918, Note_off_c, 0, 45, 61
1, 1163918, Control_c, 0, 64, 93
1, 1163921, Note_on_c, 0, 52, 64
1, 1163933, Control_c, 0, 64, 97
1, 1163948, Control_c, 0, 64, 104
1, 1163962, Control_c, 0, 64, 117
1, 1163977, Control_c, 0, 64, 127
1, 1163992, Note_off_c, 0, 52, 59
1, 1164022, Note_on_c, 0, 40, 63
1, 1164109, Note_on_c, 0, 43, 67
1, 1164121, Note_off_c, 0, 40, 61
1, 1164170, Control_c, 0, 64, 99
1, 1164175, Note_off_c, 0, 43, 62
1, 1164176, Note_on_c, 0, 46, 76
1, 1164185, Control_c, 0, 64, 68
1, 1164200, Control_c, 0, 64, 52
1, 1164215, Control_c, 0, 64, 58
1, 1164229, Control_c, 0, 64, 65
1, 1164244, Control_c, 0, 64, 72
1, 1164258, Note_off_c, 0, 46, 62
1, 1164259, Control_c, 0, 64, 89
1, 1164273, Control_c, 0, 64, 127
1, 1164277, Note_on_c, 0, 43, 79
1, 1164367, Note_on_c, 0, 46, 75
1, 1164368, Note_off_c, 0, 43, 62
1, 1164455, Note_on_c, 0, 52, 69
1, 1164475, Note_off_c, 0, 46, 61
1, 1164524, Note_off_c, 0, 52, 60
1, 1164556, Control_c, 0, 64, 107
1, 1164568, Note_on_c, 0, 76, 77
1, 1164578, Control_c, 0, 64, 67
1, 1164585, Note_on_c, 0, 40, 63
1, 1164593, Control_c, 0, 64, 36
1, 1164608, Control_c, 0, 64, 0
1, 1164623, Control_c, 0, 64, 31
1, 1164638, Control_c, 0, 64, 50
1, 1164652, Control_c, 0, 64, 63
1, 1164667, Control_c, 0, 64, 71
1, 1164680, Note_off_c, 0, 40, 62
1, 1164681, Note_on_c, 0, 44, 67
1, 1164682, Control_c, 0, 64, 80
1, 1164696, Note_off_c, 0, 76, 61
1, 1164697, Control_c, 0, 64, 91
1, 1164711, Control_c, 0, 64, 103
1, 1164726, Control_c, 0, 64, 111
1, 1164741, Control_c, 0, 64, 123
1, 1164751, Note_off_c, 0, 44, 62
1, 1164752, Note_on_c, 0, 47, 69
1, 1164756, Control_c, 0, 64, 127
1, 1164845, Control_c, 0, 64, 82
1, 1164857, Note_on_c, 0, 76, 87
1, 1164860, Control_c, 0, 64, 57
1, 1164861, Note_off_c, 0, 47, 61
1, 1164870, Note_on_c, 0, 44, 64
1, 1164875, Control_c, 0, 64, 29
1, 1164890, Control_c, 0, 64, 35
1, 1164904, Control_c, 0, 64, 51
1, 1164919, Control_c, 0, 64, 62
1, 1164934, Control_c, 0, 64, 71
1, 1164949, Control_c, 0, 64, 82
1, 1164958, Note_on_c, 0, 47, 75
1, 1164964, Control_c, 0, 64, 97
1, 1164964, Note_off_c, 0, 44, 63
1, 1164978, Control_c, 0, 64, 127
1, 1165043, Note_off_c, 0, 47, 62
1, 1165048, Note_on_c, 0, 52, 69
1, 1165067, Control_c, 0, 67, 125
1, 1165082, Control_c, 0, 67, 89
1, 1165096, Control_c, 0, 67, 46
1, 1165111, Control_c, 0, 64, 90
1, 1165111, Control_c, 0, 67, 0
1, 1165126, Control_c, 0, 64, 65
1, 1165131, Note_off_c, 0, 52, 61
1, 1165135, Note_on_c, 0, 45, 79
1, 1165141, Control_c, 0, 64, 40
1, 1165156, Control_c, 0, 64, 0
1, 1165185, Control_c, 0, 64, 33
1, 1165200, Control_c, 0, 64, 54
1, 1165215, Control_c, 0, 64, 67
1, 1165220, Note_on_c, 0, 48, 81
1, 1165229, Control_c, 0, 64, 76
1, 1165234, Note_off_c, 0, 45, 64
1, 1165246, Control_c, 0, 64, 87
1, 1165261, Control_c, 0, 64, 98
1, 1165275, Control_c, 0, 64, 118
1, 1165290, Control_c, 0, 64, 127
1, 1165295, Note_off_c, 0, 48, 63
1, 1165315, Note_on_c, 0, 52, 69
1, 1165343, Note_off_c, 0, 76, 56
1, 1165414, Note_on_c, 0, 46, 70
1, 1165416, Note_off_c, 0, 52, 60
1, 1165417, Control_c, 0, 64, 87
1, 1165420, Note_on_c, 0, 88, 76
1, 1165432, Control_c, 0, 64, 62
1, 1165447, Control_c, 0, 64, 33
1, 1165454, Note_off_c, 0, 88, 67
1, 1165462, Control_c, 0, 64, 30
1, 1165476, Control_c, 0, 64, 47
1, 1165491, Control_c, 0, 64, 61
1, 1165499, Note_on_c, 0, 49, 67
1, 1165506, Control_c, 0, 64, 71
1, 1165507, Note_off_c, 0, 46, 62
1, 1165521, Control_c, 0, 64, 88
1, 1165535, Control_c, 0, 64, 108
1, 1165550, Control_c, 0, 64, 127
1, 1165587, Note_off_c, 0, 49, 52
1, 1165593, Note_on_c, 0, 52, 68
1, 1165644, Note_off_c, 0, 52, 53
1, 1165709, Note_on_c, 0, 40, 58
1, 1165713, Control_c, 0, 64, 81
1, 1165717, Note_on_c, 0, 64, 77
1, 1165727, Control_c, 0, 64, 55
1, 1165742, Control_c, 0, 64, 0
1, 1165787, Control_c, 0, 64, 40
1, 1165802, Control_c, 0, 64, 58
1, 1165802, Note_on_c, 0, 47, 65
1, 1165817, Control_c, 0, 64, 68
1, 1165817, Note_off_c, 0, 40, 54
1, 1165832, Control_c, 0, 64, 78
1, 1165846, Control_c, 0, 64, 86
1, 1165854, Note_off_c, 0, 64, 63
1, 1165861, Control_c, 0, 64, 91
1, 1165876, Control_c, 0, 64, 97
1, 1165891, Note_off_c, 0, 47, 63
1, 1165891, Control_c, 0, 64, 104
1, 1165906, Control_c, 0, 64, 112
1, 1165908, Note_on_c, 0, 50, 59
1, 1165920, Control_c, 0, 64, 127
1, 1165991, Note_off_c, 0, 50, 60
1, 1166007, Note_on_c, 0, 47, 70
1, 1166007, Note_on_c, 0, 64, 88
1, 1166009, Control_c, 0, 64, 85
1, 1166024, Control_c, 0, 64, 59
1, 1166039, Control_c, 0, 64, 29
1, 1166055, Control_c, 0, 64, 0
1, 1166077, Control_c, 0, 64, 41
1, 1166092, Control_c, 0, 64, 57
1, 1166098, Note_on_c, 0, 50, 74
1, 1166101, Note_off_c, 0, 47, 63
1, 1166106, Control_c, 0, 64, 66
1, 1166121, Control_c, 0, 64, 76
1, 1166136, Control_c, 0, 64, 90
1, 1166150, Control_c, 0, 64, 97
1, 1166165, Control_c, 0, 64, 105
1, 1166180, Control_c, 0, 64, 127
1, 1166183, Note_off_c, 0, 50, 61
1, 1166192, Note_on_c, 0, 52, 72
1, 1166252, Note_off_c, 0, 52, 60
1, 1166283, Control_c, 0, 64, 101
1, 1166288, Note_on_c, 0, 50, 72
1, 1166298, Control_c, 0, 64, 70
1, 1166313, Control_c, 0, 64, 48
1, 1166328, Control_c, 0, 64, 0
1, 1166357, Control_c, 0, 64, 50
1, 1166368, Note_off_c, 0, 50, 63
1, 1166368, Note_on_c, 0, 52, 67
1, 1166372, Control_c, 0, 64, 64
1, 1166387, Control_c, 0, 64, 75
1, 1166402, Control_c, 0, 64, 89
1, 1166417, Control_c, 0, 64, 104
1, 1166431, Control_c, 0, 64, 127
1, 1166448, Note_off_c, 0, 52, 61
1, 1166454, Note_on_c, 0, 56, 74
1, 1166520, Control_c, 0, 64, 91
1, 1166529, Note_off_c, 0, 56, 62
1, 1166535, Control_c, 0, 64, 67
1, 1166550, Control_c, 0, 64, 40
1, 1166560, Note_on_c, 0, 52, 73
1, 1166565, Control_c, 0, 64, 0
1, 1166568, Note_on_c, 0, 76, 82
1, 1166571, Note_off_c, 0, 64, 52
1, 1166610, Control_c, 0, 64, 48
1, 1166624, Control_c, 0, 64, 64
1, 1166639, Control_c, 0, 64, 73
1, 1166645, Note_on_c, 0, 56, 74
1, 1166646, Note_off_c, 0, 52, 62
1, 1166654, Control_c, 0, 64, 79
1, 1166656, Note_off_c, 0, 76, 60
1, 1166668, Control_c, 0, 64, 83
1, 1166683, Control_c, 0, 64, 87
1, 1166698, Control_c, 0, 64, 90
1, 1166713, Control_c, 0, 64, 92
1, 1166728, Control_c, 0, 64, 93
1, 1166741, Note_on_c, 0, 59, 72
1, 1166742, Note_off_c, 0, 56, 61
1, 1166772, Control_c, 0, 64, 92
1, 1166824, Control_c, 0, 64, 92
1, 1166839, Control_c, 0, 64, 91
1, 1166842, Note_off_c, 0, 59, 53
1, 1166853, Note_on_c, 0, 56, 79
1, 1166854, Control_c, 0, 64, 89
1, 1166869, Control_c, 0, 64, 86
1, 1166884, Control_c, 0, 64, 83
1, 1166899, Control_c, 0, 64, 81
1, 1166914, Control_c, 0, 64, 80
1, 1166928, Control_c, 0, 64, 79
1, 1166931, Note_off_c, 0, 56, 63
1, 1166934, Note_on_c, 0, 59, 79
1, 1166943, Control_c, 0, 64, 77
1, 1166958, Control_c, 0, 64, 75
1, 1166973, Control_c, 0, 64, 72
1, 1166988, Control_c, 0, 64, 70
1, 1167003, Control_c, 0, 64, 67
1, 1167007, Note_off_c, 0, 59, 56
1, 1167018, Control_c, 0, 64, 64
1, 1167028, Note_on_c, 0, 62, 67
1, 1167033, Control_c, 0, 64, 61
1, 1167047, Control_c, 0, 64, 57
1, 1167062, Control_c, 0, 64, 51
1, 1167077, Control_c, 0, 64, 42
1, 1167092, Control_c, 0, 64, 0
1, 1167137, Note_on_c, 0, 64, 84
1, 1167146, Note_on_c, 0, 56, 62
1, 1167152, Note_off_c, 0, 62, 60
1, 1167180, Control_c, 0, 64, 29
1, 1167195, Control_c, 0, 64, 47
1, 1167210, Control_c, 0, 64, 60
1, 1167225, Control_c, 0, 64, 65
1, 1167230, Note_off_c, 0, 56, 62
1, 1167233, Note_on_c, 0, 59, 65
1, 1167239, Control_c, 0, 64, 67
1, 1167254, Control_c, 0, 64, 69
1, 1167269, Control_c, 0, 64, 71
1, 1167284, Control_c, 0, 64, 74
1, 1167298, Control_c, 0, 64, 76
1, 1167311, Note_off_c, 0, 59, 62
1, 1167313, Control_c, 0, 64, 78
1, 1167328, Control_c, 0, 64, 79
1, 1167329, Note_on_c, 0, 62, 57
1, 1167358, Control_c, 0, 64, 79
1, 1167388, Control_c, 0, 64, 79
1, 1167402, Control_c, 0, 64, 75
1, 1167417, Control_c, 0, 64, 67
1, 1167422, Note_off_c, 0, 62, 50
1, 1167427, Note_on_c, 0, 52, 60
1, 1167432, Control_c, 0, 64, 55
1, 1167447, Control_c, 0, 64, 40
1, 1167462, Control_c, 0, 64, 37
1, 1167477, Control_c, 0, 64, 45
1, 1167491, Control_c, 0, 64, 56
1, 1167504, Note_off_c, 0, 52, 61
1, 1167506, Control_c, 0, 64, 63
1, 1167521, Control_c, 0, 64, 68
1, 1167536, Control_c, 0, 64, 72
1, 1167540, Note_on_c, 0, 57, 38
1, 1167551, Control_c, 0, 64, 75
1, 1167572, Control_c, 0, 64, 78
1, 1167578, Note_off_c, 0, 57, 54
1, 1167587, Control_c, 0, 64, 82
1, 1167601, Note_on_c, 0, 59, 62
1, 1167602, Control_c, 0, 64, 86
1, 1167617, Control_c, 0, 64, 91
1, 1167632, Control_c, 0, 64, 96
1, 1167636, Note_off_c, 0, 64, 55
1, 1167663, Control_c, 0, 64, 90
1, 1167677, Control_c, 0, 64, 74
1, 1167687, Note_off_c, 0, 59, 56
1, 1167692, Control_c, 0, 64, 58
1, 1167707, Control_c, 0, 64, 38
1, 1167711, Note_on_c, 0, 50, 65
1, 1167718, Note_on_c, 0, 76, 63
1, 1167721, Control_c, 0, 64, 34
1, 1167736, Control_c, 0, 64, 43
1, 1167751, Control_c, 0, 64, 54
1, 1167766, Control_c, 0, 64, 61
1, 1167771, Note_off_c, 0, 76, 62
1, 1167781, Control_c, 0, 64, 63
1, 1167792, Note_off_c, 0, 50, 63
1, 1167796, Control_c, 0, 64, 66
1, 1167809, Note_on_c, 0, 52, 57
1, 1167811, Control_c, 0, 64, 68
1, 1167826, Control_c, 0, 64, 70
1, 1167841, Control_c, 0, 64, 70
1, 1167891, Note_off_c, 0, 52, 60
1, 1167902, Note_on_c, 0, 56, 63
1, 1167915, Control_c, 0, 64, 69
1, 1167929, Control_c, 0, 64, 66
1, 1167944, Control_c, 0, 64, 60
1, 1167959, Control_c, 0, 64, 45
1, 1167973, Note_off_c, 0, 56, 61
1, 1167974, Control_c, 0, 64, 0
1, 1168003, Note_on_c, 0, 62, 61
1, 1168011, Note_on_c, 0, 47, 53
1, 1168077, Control_c, 0, 64, 36
1, 1168092, Control_c, 0, 64, 47
1, 1168094, Note_on_c, 0, 50, 59
1, 1168097, Note_off_c, 0, 47, 62
1, 1168103, Note_off_c, 0, 62, 62
1, 1168107, Control_c, 0, 64, 55
1, 1168121, Control_c, 0, 64, 59
1, 1168136, Control_c, 0, 64, 61
1, 1168151, Control_c, 0, 64, 62
1, 1168160, Note_off_c, 0, 50, 64
1, 1168166, Control_c, 0, 64, 63
1, 1168181, Control_c, 0, 64, 63
1, 1168181, Control_c, 0, 67, 46
1, 1168195, Control_c, 0, 64, 64
1, 1168195, Control_c, 0, 67, 56
1, 1168199, Note_on_c, 0, 52, 44
1, 1168210, Control_c, 0, 67, 60
1, 1168225, Control_c, 0, 67, 61
1, 1168240, Control_c, 0, 67, 62
1, 1168255, Control_c, 0, 67, 63
1, 1168270, Control_c, 0, 64, 62
1, 1168285, Control_c, 0, 64, 59
1, 1168289, Note_off_c, 0, 52, 59
1, 1168300, Control_c, 0, 64, 54
1, 1168314, Note_on_c, 0, 64, 63
1, 1168321, Control_c, 0, 64, 43
1, 1168324, Note_on_c, 0, 50, 44
1, 1168336, Control_c, 0, 64, 0
1, 1168336, Control_c, 0, 67, 63
1, 1168401, Note_off_c, 0, 50, 61
1, 1168410, Control_c, 0, 64, 31
1, 1168425, Note_on_c, 0, 52, 52
1, 1168425, Control_c, 0, 64, 42
1, 1168440, Control_c, 0, 64, 53
1, 1168456, Control_c, 0, 64, 60
1, 1168456, Control_c, 0, 67, 64
1, 1168470, Control_c, 0, 64, 62
1, 1168470, Control_c, 0, 67, 64
1, 1168485, Control_c, 0, 64, 63
1, 1168485, Control_c, 0, 67, 65
1, 1168496, Note_off_c, 0, 52, 57
1, 1168500, Control_c, 0, 64, 64
1, 1168500, Control_c, 0, 67, 65
1, 1168515, Control_c, 0, 64, 65
1, 1168515, Control_c, 0, 67, 67
1, 1168530, Note_on_c, 0, 56, 56
1, 1168530, Control_c, 0, 64, 66
1, 1168530, Control_c, 0, 67, 72
1, 1168544, Control_c, 0, 67, 89
1, 1168559, Control_c, 0, 64, 64
1, 1168559, Control_c, 0, 67, 100
1, 1168574, Control_c, 0, 64, 59
1, 1168574, Control_c, 0, 67, 105
1, 1168586, Note_off_c, 0, 56, 58
1, 1168589, Control_c, 0, 64, 45
1, 1168589, Control_c, 0, 67, 109
1, 1168604, Control_c, 0, 64, 0
1, 1168604, Control_c, 0, 67, 112
1, 1168619, Control_c, 0, 67, 114
1, 1168622, Note_on_c, 0, 47, 46
1, 1168663, Control_c, 0, 64, 38
1, 1168678, Control_c, 0, 64, 49
1, 1168678, Control_c, 0, 67, 112
1, 1168693, Control_c, 0, 64, 56
1, 1168708, Control_c, 0, 64, 60
1, 1168708, Control_c, 0, 67, 109
1, 1168709, Note_off_c, 0, 47, 59
1, 1168715, Note_on_c, 0, 50, 46
1, 1168723, Control_c, 0, 64, 61
1, 1168723, Control_c, 0, 67, 107
1, 1168738, Control_c, 0, 64, 62
1, 1168746, Note_off_c, 0, 64, 50
1, 1168752, Control_c, 0, 64, 63
1, 1168765, Note_off_c, 0, 50, 63
1, 1168767, Control_c, 0, 64, 64
1, 1168782, Control_c, 0, 64, 66
1, 1168782, Control_c, 0, 67, 105
1, 1168797, Control_c, 0, 64, 68
1, 1168806, Note_on_c, 0, 52, 51
1, 1168812, Control_c, 0, 64, 70
1, 1168826, Control_c, 0, 64, 71
1, 1168853, Note_off_c, 0, 52, 54
1, 1168856, Control_c, 0, 64, 70
1, 1168856, Control_c, 0, 67, 108
1, 1168870, Control_c, 0, 64, 66
1, 1168880, Note_on_c, 0, 76, 59
1, 1168885, Control_c, 0, 64, 58
1, 1168900, Control_c, 0, 64, 50
1, 1168902, Note_on_c, 0, 50, 49
1, 1168915, Control_c, 0, 64, 48
1, 1168929, Note_off_c, 0, 76, 61
1, 1168930, Control_c, 0, 64, 52
1, 1168944, Control_c, 0, 64, 57
1, 1168959, Control_c, 0, 64, 61
1, 1168974, Control_c, 0, 64, 63
1, 1168976, Note_off_c, 0, 50, 62
1, 1168989, Control_c, 0, 64, 66
1, 1169002, Note_on_c, 0, 52, 52
1, 1169004, Control_c, 0, 64, 67
1, 1169018, Control_c, 0, 64, 68
1, 1169033, Control_c, 0, 64, 69
1, 1169050, Note_off_c, 0, 52, 61
1, 1169103, Note_on_c, 0, 56, 51
1, 1169130, Control_c, 0, 64, 67
1, 1169130, Control_c, 0, 67, 106
1, 1169145, Control_c, 0, 64, 62
1, 1169160, Control_c, 0, 64, 51
1, 1169166, Note_off_c, 0, 56, 57
1, 1169175, Control_c, 0, 64, 0
1, 1169209, Note_on_c, 0, 47, 44
1, 1169230, Note_on_c, 0, 62, 33
1, 1169294, Control_c, 0, 64, 41
1, 1169304, Note_off_c, 0, 47, 56
1, 1169309, Control_c, 0, 64, 52
1, 1169321, Note_on_c, 0, 50, 34
1, 1169321, Note_off_c, 0, 62, 61
1, 1169324, Control_c, 0, 64, 58
1, 1169339, Control_c, 0, 64, 60
1, 1169354, Control_c, 0, 64, 60
1, 1169361, Note_off_c, 0, 50, 57
1, 1169383, Control_c, 0, 64, 61
1, 1169398, Control_c, 0, 64, 61
1, 1169413, Control_c, 0, 64, 62
1, 1169423, Note_on_c, 0, 52, 34
1, 1169428, Control_c, 0, 67, 108
1, 1169442, Control_c, 0, 64, 60
1, 1169457, Control_c, 0, 64, 56
1, 1169472, Control_c, 0, 64, 49
1, 1169487, Control_c, 0, 64, 42
1, 1169490, Note_off_c, 0, 52, 52
1, 1169501, Control_c, 0, 64, 36
1, 1169516, Control_c, 0, 64, 37
1, 1169531, Control_c, 0, 64, 40
1, 1169536, Note_on_c, 0, 64, 52
1, 1169546, Control_c, 0, 64, 44
1, 1169552, Note_on_c, 0, 50, 31
1, 1169561, Control_c, 0, 64, 48
1, 1169576, Control_c, 0, 64, 52
1, 1169590, Control_c, 0, 64, 56
1, 1169605, Control_c, 0, 64, 59
1, 1169620, Note_off_c, 0, 50, 58
1, 1169620, Control_c, 0, 64, 60
1, 1169635, Control_c, 0, 64, 60
1, 1169647, Note_on_c, 0, 52, 42
1, 1169694, Control_c, 0, 64, 61
1, 1169707, Note_off_c, 0, 52, 58
1, 1169724, Control_c, 0, 64, 60
1, 1169740, Note_on_c, 0, 56, 51
1, 1169754, Control_c, 0, 64, 60
1, 1169768, Control_c, 0, 64, 59
1, 1169783, Control_c, 0, 64, 58
1, 1169798, Control_c, 0, 64, 56
1, 1169803, Note_off_c, 0, 56, 56
1, 1169820, Control_c, 0, 64, 51
1, 1169835, Control_c, 0, 64, 42
1, 1169848, Note_on_c, 0, 47, 51
1, 1169850, Control_c, 0, 64, 0
1, 1169865, Control_c, 0, 67, 106
1, 1169909, Control_c, 0, 64, 31
1, 1169924, Control_c, 0, 64, 45
1, 1169939, Control_c, 0, 64, 57
1, 1169945, Note_off_c, 0, 47, 57
1, 1169952, Note_on_c, 0, 50, 48
1, 1169954, Control_c, 0, 64, 61
1, 1169968, Control_c, 0, 64, 63
1, 1169983, Control_c, 0, 64, 63
1, 1169998, Control_c, 0, 64, 64
1, 1170013, Control_c, 0, 64, 66
1, 1170013, Control_c, 0, 67, 104
1, 1170016, Note_off_c, 0, 50, 62
1, 1170027, Control_c, 0, 64, 68
1, 1170044, Control_c, 0, 64, 69
1, 1170044, Note_on_c, 0, 52, 51
1, 1170058, Control_c, 0, 64, 68
1, 1170073, Control_c, 0, 64, 65
1, 1170088, Control_c, 0, 64, 58
1, 1170103, Control_c, 0, 64, 52
1, 1170113, Note_off_c, 0, 64, 32
1, 1170117, Control_c, 0, 64, 52
1, 1170121, Note_off_c, 0, 52, 53
1, 1170132, Control_c, 0, 64, 56
1, 1170136, Note_on_c, 0, 76, 54
1, 1170147, Control_c, 0, 64, 59
1, 1170157, Note_on_c, 0, 50, 41
1, 1170162, Control_c, 0, 64, 62
1, 1170177, Control_c, 0, 64, 64
1, 1170177, Control_c, 0, 67, 102
1, 1170191, Control_c, 0, 64, 65
1, 1170193, Note_off_c, 0, 76, 58
1, 1170206, Control_c, 0, 64, 67
1, 1170206, Control_c, 0, 67, 99
1, 1170221, Control_c, 0, 64, 68
1, 1170227, Note_off_c, 0, 50, 61
1, 1170236, Control_c, 0, 64, 68
1, 1170236, Control_c, 0, 67, 97
1, 1170247, Note_on_c, 0, 52, 55
1, 1170250, Control_c, 0, 64, 69
1, 1170250, Control_c, 0, 67, 95
1, 1170294, Note_off_c, 0, 52, 60
1, 1170310, Control_c, 0, 67, 97
1, 1170352, Note_on_c, 0, 56, 47
1, 1170384, Control_c, 0, 67, 99
1, 1170405, Note_off_c, 0, 56, 58
1, 1170428, Control_c, 0, 64, 68
1, 1170443, Control_c, 0, 64, 68
1, 1170458, Control_c, 0, 64, 66
1, 1170458, Control_c, 0, 67, 101
1, 1170473, Note_on_c, 0, 73, 62
1, 1170473, Control_c, 0, 64, 62
1, 1170488, Control_c, 0, 64, 52
1, 1170493, Note_on_c, 0, 61, 38
1, 1170503, Control_c, 0, 64, 30
1, 1170517, Control_c, 0, 64, 0
1, 1170519, Note_on_c, 0, 45, 38
1, 1170584, Control_c, 0, 64, 33
1, 1170598, Control_c, 0, 64, 50
1, 1170604, Note_off_c, 0, 45, 54
1, 1170607, Note_off_c, 0, 61, 60
1, 1170612, Note_on_c, 0, 49, 50
1, 1170613, Control_c, 0, 64, 61
1, 1170628, Control_c, 0, 64, 67
1, 1170642, Control_c, 0, 64, 70
1, 1170657, Control_c, 0, 64, 72
1, 1170672, Control_c, 0, 64, 75
1, 1170681, Note_off_c, 0, 73, 62
1, 1170687, Control_c, 0, 64, 77
1, 1170690, Note_off_c, 0, 49, 62
1, 1170702, Control_c, 0, 64, 80
1, 1170714, Note_on_c, 0, 52, 51
1, 1170716, Control_c, 0, 64, 83
1, 1170731, Control_c, 0, 64, 85
1, 1170746, Control_c, 0, 64, 86
1, 1170776, Control_c, 0, 64, 86
1, 1170805, Note_off_c, 0, 52, 53
1, 1170830, Note_on_c, 0, 76, 78
1, 1170836, Control_c, 0, 64, 85
1, 1170851, Note_on_c, 0, 49, 52
1, 1170851, Control_c, 0, 64, 79
1, 1170865, Control_c, 0, 64, 67
1, 1170870, Note_on_c, 0, 64, 55
1, 1170880, Control_c, 0, 64, 53
1, 1170895, Control_c, 0, 64, 34
1, 1170910, Control_c, 0, 64, 29
1, 1170925, Control_c, 0, 64, 39
1, 1170925, Control_c, 0, 67, 99
1, 1170939, Note_on_c, 0, 52, 51
1, 1170939, Control_c, 0, 64, 55
1, 1170944, Note_off_c, 0, 49, 56
1, 1170954, Control_c, 0, 64, 63
1, 1170969, Control_c, 0, 64, 69
1, 1170984, Control_c, 0, 64, 76
1, 1170984, Control_c, 0, 67, 97
1, 1170999, Control_c, 0, 64, 85
1, 1170999, Control_c, 0, 67, 95
1, 1171012, Note_off_c, 0, 52, 60
1, 1171013, Control_c, 0, 64, 95
1, 1171013, Control_c, 0, 67, 93
1, 1171025, Note_on_c, 0, 57, 56
1, 1171028, Control_c, 0, 64, 127
1, 1171028, Control_c, 0, 67, 91
1, 1171043, Control_c, 0, 67, 89
1, 1171057, Control_c, 0, 67, 86
1, 1171072, Control_c, 0, 67, 84
1, 1171087, Control_c, 0, 64, 93
1, 1171087, Control_c, 0, 67, 79
1, 1171102, Control_c, 0, 64, 70
1, 1171102, Control_c, 0, 67, 68
1, 1171117, Control_c, 0, 64, 55
1, 1171117, Control_c, 0, 67, 51
1, 1171119, Note_off_c, 0, 57, 60
1, 1171125, Note_on_c, 0, 49, 54
1, 1171132, Control_c, 0, 64, 53
1, 1171132, Control_c, 0, 67, 0
1, 1171146, Control_c, 0, 64, 60
1, 1171161, Control_c, 0, 64, 66
1, 1171167, Note_off_c, 0, 64, 61
1, 1171176, Control_c, 0, 64, 75
1, 1171191, Control_c, 0, 64, 89
1, 1171206, Control_c, 0, 64, 110
1, 1171212, Note_on_c, 0, 52, 58
1, 1171221, Control_c, 0, 64, 127
1, 1171226, Note_off_c, 0, 49, 56
1, 1171270, Note_off_c, 0, 52, 60
1, 1171277, Note_off_c, 0, 76, 62
1, 1171301, Note_on_c, 0, 57, 59
1, 1171371, Note_off_c, 0, 57, 57
1, 1171376, Control_c, 0, 64, 113
1, 1171391, Control_c, 0, 64, 79
1, 1171397, Note_on_c, 0, 81, 76
1, 1171406, Control_c, 0, 64, 62
1, 1171418, Note_on_c, 0, 69, 57
1, 1171421, Control_c, 0, 64, 52
1, 1171433, Note_on_c, 0, 52, 48
1, 1171436, Control_c, 0, 64, 57
1, 1171451, Control_c, 0, 64, 64
1, 1171465, Control_c, 0, 64, 71
1, 1171480, Control_c, 0, 64, 84
1, 1171495, Control_c, 0, 64, 100
1, 1171510, Control_c, 0, 64, 126
1, 1171516, Note_off_c, 0, 69, 55
1, 1171519, Note_on_c, 0, 57, 56
1, 1171519, Note_off_c, 0, 52, 62
1, 1171554, Control_c, 0, 67, 35
1, 1171567, Note_off_c, 0, 81, 62
1, 1171569, Control_c, 0, 67, 38
1, 1171586, Note_off_c, 0, 57, 63
1, 1171613, Note_on_c, 0, 61, 52
1, 1171639, Note_off_c, 0, 61, 63
1, 1171644, Control_c, 0, 67, 38
1, 1171659, Control_c, 0, 64, 105
1, 1171659, Control_c, 0, 67, 39
1, 1171674, Control_c, 0, 64, 78
1, 1171674, Control_c, 0, 67, 39
1, 1171688, Control_c, 0, 64, 61
1, 1171688, Control_c, 0, 67, 40
1, 1171703, Control_c, 0, 64, 44
1, 1171703, Control_c, 0, 67, 41
1, 1171713, Note_on_c, 0, 81, 72
1, 1171718, Control_c, 0, 64, 34
1, 1171733, Control_c, 0, 64, 38
1, 1171736, Note_on_c, 0, 47, 57
1, 1171743, Note_on_c, 0, 69, 50
1, 1171748, Control_c, 0, 64, 53
1, 1171762, Control_c, 0, 64, 62
1, 1171777, Control_c, 0, 64, 67
1, 1171777, Control_c, 0, 67, 40
1, 1171792, Control_c, 0, 64, 74
1, 1171792, Control_c, 0, 67, 39
1, 1171807, Control_c, 0, 64, 83
1, 1171807, Control_c, 0, 67, 39
1, 1171822, Control_c, 0, 64, 94
1, 1171822, Control_c, 0, 67, 38
1, 1171836, Control_c, 0, 64, 108
1, 1171836, Control_c, 0, 67, 38
1, 1171844, Note_on_c, 0, 50, 55
1, 1171847, Note_off_c, 0, 47, 60
1, 1171851, Control_c, 0, 64, 127
1, 1171866, Control_c, 0, 67, 38
1, 1171867, Note_off_c, 0, 69, 57
1, 1171881, Control_c, 0, 67, 39
1, 1171895, Control_c, 0, 64, 101
1, 1171895, Control_c, 0, 67, 41
1, 1171910, Control_c, 0, 64, 79
1, 1171910, Control_c, 0, 67, 42
1, 1171919, Note_off_c, 0, 50, 62
1, 1171925, Control_c, 0, 64, 63
1, 1171925, Control_c, 0, 67, 43
1, 1171930, Note_on_c, 0, 52, 58
1, 1171940, Control_c, 0, 64, 47
1, 1171940, Control_c, 0, 67, 44
1, 1171955, Control_c, 0, 64, 33
1, 1171955, Control_c, 0, 67, 56
1, 1171969, Control_c, 0, 64, 34
1, 1171969, Control_c, 0, 67, 68
1, 1171972, Note_off_c, 0, 52, 60
1, 1171984, Control_c, 0, 64, 44
1, 1171984, Control_c, 0, 67, 72
1, 1171999, Control_c, 0, 64, 55
1, 1172014, Control_c, 0, 64, 63
1, 1172017, Note_on_c, 0, 80, 59
1, 1172029, Control_c, 0, 64, 68
1, 1172042, Note_on_c, 0, 68, 43
1, 1172044, Control_c, 0, 64, 74
1, 1172046, Note_on_c, 0, 50, 36
1, 1172052, Note_off_c, 0, 81, 60
1, 1172066, Control_c, 0, 64, 77
1, 1172066, Control_c, 0, 67, 71
1, 1172081, Control_c, 0, 64, 79
1, 1172081, Control_c, 0, 67, 71
1, 1172095, Control_c, 0, 64, 80
1, 1172095, Control_c, 0, 67, 70
1, 1172100, Note_off_c, 0, 68, 58
1, 1172110, Control_c, 0, 64, 81
1, 1172116, Note_on_c, 0, 52, 41
1, 1172125, Control_c, 0, 64, 82
1, 1172135, Note_off_c, 0, 50, 39
1, 1172141, Control_c, 0, 64, 82
1, 1172141, Control_c, 0, 67, 69
1, 1172150, Note_off_c, 0, 80, 55
1, 1172156, Control_c, 0, 67, 69
1, 1172183, Note_off_c, 0, 52, 61
1, 1172185, Control_c, 0, 67, 68
1, 1172200, Control_c, 0, 67, 68
1, 1172214, Control_c, 0, 64, 82
1, 1172224, Note_on_c, 0, 59, 48
1, 1172229, Control_c, 0, 67, 68
1, 1172244, Control_c, 0, 64, 81
1, 1172259, Control_c, 0, 64, 77
1, 1172259, Control_c, 0, 67, 69
1, 1172274, Control_c, 0, 64, 71
1, 1172288, Control_c, 0, 64, 62
1, 1172303, Control_c, 0, 64, 45
1, 1172306, Note_off_c, 0, 59, 59
1, 1172315, Note_on_c, 0, 81, 67
1, 1172318, Control_c, 0, 64, 0
1, 1172328, Note_on_c, 0, 69, 56
1, 1172330, Note_on_c, 0, 49, 48
1, 1172363, Control_c, 0, 64, 35
1, 1172378, Control_c, 0, 64, 49
1, 1172378, Control_c, 0, 67, 68
1, 1172392, Control_c, 0, 64, 61
1, 1172407, Control_c, 0, 64, 67
1, 1172407, Control_c, 0, 67, 67
1, 1172410, Note_off_c, 0, 49, 57
1, 1172418, Note_on_c, 0, 52, 52
1, 1172422, Control_c, 0, 64, 73
1, 1172422, Control_c, 0, 67, 67
1, 1172437, Control_c, 0, 64, 80
1, 1172437, Control_c, 0, 67, 66
1, 1172452, Control_c, 0, 64, 90
1, 1172467, Control_c, 0, 64, 112
1, 1172482, Control_c, 0, 64, 127
1, 1172485, Note_off_c, 0, 52, 60
1, 1172497, Control_c, 0, 67, 67
1, 1172505, Note_on_c, 0, 57, 58
1, 1172512, Control_c, 0, 64, 87
1, 1172527, Control_c, 0, 64, 66
1, 1172542, Control_c, 0, 64, 47
1, 1172552, Note_off_c, 0, 57, 58
1, 1172556, Control_c, 0, 64, 43
1, 1172556, Control_c, 0, 67, 66
1, 1172571, Control_c, 0, 64, 54
1, 1172571, Control_c, 0, 67, 65
1, 1172586, Control_c, 0, 64, 63
1, 1172586, Control_c, 0, 67, 64
1, 1172601, Control_c, 0, 64, 71
1, 1172601, Note_on_c, 0, 52, 64
1, 1172616, Control_c, 0, 64, 84
1, 1172616, Control_c, 0, 67, 64
1, 1172631, Control_c, 0, 64, 103
1, 1172645, Control_c, 0, 64, 127
1, 1172645, Control_c, 0, 67, 63
1, 1172660, Control_c, 0, 67, 63
1, 1172673, Note_off_c, 0, 52, 62
1, 1172693, Note_on_c, 0, 57, 58
1, 1172702, Note_off_c, 0, 69, 43
1, 1172746, Note_off_c, 0, 81, 63
1, 1172749, Control_c, 0, 67, 62
1, 1172756, Note_off_c, 0, 57, 62
1, 1172764, Control_c, 0, 67, 61
1, 1172775, Note_on_c, 0, 61, 58
1, 1172778, Control_c, 0, 67, 60
1, 1172816, Control_c, 0, 67, 60
1, 1172833, Note_off_c, 0, 61, 55
1, 1172875, Control_c, 0, 64, 86
1, 1172875, Control_c, 0, 67, 58
1, 1172879, Note_on_c, 0, 83, 78
1, 1172890, Control_c, 0, 64, 64
1, 1172890, Control_c, 0, 67, 56
1, 1172905, Control_c, 0, 64, 43
1, 1172905, Control_c, 0, 67, 53
1, 1172906, Note_on_c, 0, 50, 55
1, 1172919, Control_c, 0, 64, 31
1, 1172919, Control_c, 0, 67, 49
1, 1172923, Note_on_c, 0, 71, 55
1, 1172934, Control_c, 0, 64, 37
1, 1172934, Control_c, 0, 67, 42
1, 1172949, Control_c, 0, 64, 52
1, 1172949, Control_c, 0, 67, 0
1, 1172964, Control_c, 0, 64, 63
1, 1172979, Control_c, 0, 64, 74
1, 1172991, Note_off_c, 0, 50, 62
1, 1172993, Control_c, 0, 64, 95
1, 1172996, Note_on_c, 0, 54, 60
1, 1173008, Control_c, 0, 64, 127
1, 1173063, Note_off_c, 0, 54, 62
1, 1173067, Control_c, 0, 64, 82
1, 1173076, Note_on_c, 0, 57, 64
1, 1173082, Control_c, 0, 64, 61
1, 1173087, Note_off_c, 0, 71, 60
1, 1173097, Control_c, 0, 64, 51
1, 1173112, Control_c, 0, 64, 58
1, 1173126, Control_c, 0, 64, 67
1, 1173141, Note_off_c, 0, 83, 60
1, 1173141, Control_c, 0, 64, 80
1, 1173156, Control_c, 0, 64, 103
1, 1173161, Note_off_c, 0, 57, 62
1, 1173171, Control_c, 0, 64, 127
1, 1173179, Note_on_c, 0, 54, 63
1, 1173244, Note_off_c, 0, 54, 62
1, 1173252, Note_on_c, 0, 57, 65
1, 1173263, Note_on_c, 0, 83, 79
1, 1173274, Note_on_c, 0, 71, 73
1, 1173302, Note_off_c, 0, 57, 64
1, 1173315, Note_off_c, 0, 71, 58
1, 1173352, Note_on_c, 0, 59, 61
1, 1173361, Note_off_c, 0, 83, 61
1, 1173439, Control_c, 0, 64, 86
1, 1173454, Control_c, 0, 64, 66
1, 1173463, Note_on_c, 0, 85, 74
1, 1173464, Note_off_c, 0, 59, 57
1, 1173468, Control_c, 0, 64, 50
1, 1173483, Control_c, 0, 64, 34
1, 1173486, Note_on_c, 0, 51, 54
1, 1173489, Note_on_c, 0, 73, 60
1, 1173498, Control_c, 0, 64, 36
1, 1173513, Control_c, 0, 64, 51
1, 1173528, Control_c, 0, 64, 63
1, 1173542, Control_c, 0, 64, 74
1, 1173564, Control_c, 0, 64, 91
1, 1173579, Control_c, 0, 64, 121
1, 1173588, Note_off_c, 0, 85, 64
1, 1173592, Note_on_c, 0, 54, 56
1, 1173594, Control_c, 0, 64, 127
1, 1173600, Note_off_c, 0, 51, 60
1, 1173606, Note_off_c, 0, 73, 61
1, 1173659, Note_off_c, 0, 54, 61
1, 1173675, Note_on_c, 0, 57, 46
1, 1173681, Control_c, 0, 64, 102
1, 1173696, Control_c, 0, 64, 69
1, 1173711, Control_c, 0, 64, 50
1, 1173726, Control_c, 0, 64, 51
1, 1173740, Note_off_c, 0, 57, 58
1, 1173740, Control_c, 0, 64, 61
1, 1173750, Note_on_c, 0, 81, 80
1, 1173755, Control_c, 0, 64, 68
1, 1173755, Control_c, 0, 67, 46
1, 1173766, Note_on_c, 0, 69, 68
1, 1173770, Control_c, 0, 64, 77
1, 1173770, Control_c, 0, 67, 60
1, 1173784, Note_on_c, 0, 54, 54
1, 1173785, Control_c, 0, 64, 90
1, 1173785, Control_c, 0, 67, 72
1, 1173799, Control_c, 0, 64, 100
1, 1173799, Control_c, 0, 67, 77
1, 1173814, Control_c, 0, 64, 115
1, 1173829, Control_c, 0, 64, 127
1, 1173868, Note_off_c, 0, 54, 61
1, 1173871, Note_off_c, 0, 69, 58
1, 1173881, Note_on_c, 0, 56, 18
1, 1173889, Control_c, 0, 67, 78
1, 1173904, Control_c, 0, 67, 79
1, 1173919, Control_c, 0, 67, 80
1, 1173920, Note_off_c, 0, 81, 58
1, 1173926, Note_off_c, 0, 56, 53
1, 1173933, Note_on_c, 0, 61, 64
1, 1173934, Control_c, 0, 67, 81
1, 1173948, Control_c, 0, 67, 84
1, 1173963, Control_c, 0, 67, 94
1, 1173978, Control_c, 0, 67, 100
1, 1173992, Control_c, 0, 67, 104
1, 1174005, Note_off_c, 0, 61, 59
1, 1174007, Control_c, 0, 67, 107
1, 1174022, Control_c, 0, 64, 114
1, 1174022, Control_c, 0, 67, 109
1, 1174038, Control_c, 0, 64, 77
1, 1174047, Note_on_c, 0, 81, 72
1, 1174053, Control_c, 0, 64, 58
1, 1174053, Control_c, 0, 67, 114
1, 1174059, Note_on_c, 0, 52, 55
1, 1174068, Control_c, 0, 64, 49
1, 1174068, Control_c, 0, 67, 124
1, 1174077, Note_on_c, 0, 69, 57
1, 1174082, Control_c, 0, 64, 52
1, 1174082, Control_c, 0, 67, 127
1, 1174097, Control_c, 0, 64, 61
1, 1174112, Control_c, 0, 64, 68
1, 1174127, Control_c, 0, 64, 83
1, 1174142, Control_c, 0, 64, 110
1, 1174156, Control_c, 0, 64, 127
1, 1174157, Note_on_c, 0, 57, 59
1, 1174166, Note_off_c, 0, 52, 60
1, 1174215, Note_off_c, 0, 57, 62
1, 1174227, Note_on_c, 0, 61, 59
1, 1174242, Note_off_c, 0, 69, 56
1, 1174262, Note_off_c, 0, 61, 64
1, 1174289, Control_c, 0, 64, 102
1, 1174312, Control_c, 0, 64, 80
1, 1174327, Control_c, 0, 64, 69
1, 1174342, Control_c, 0, 64, 67
1, 1174357, Note_on_c, 0, 61, 46
1, 1174357, Control_c, 0, 64, 73
1, 1174371, Control_c, 0, 64, 82
1, 1174386, Control_c, 0, 64, 91
1, 1174401, Control_c, 0, 64, 98
1, 1174407, Note_off_c, 0, 61, 53
1, 1174415, Control_c, 0, 64, 106
1, 1174428, Note_on_c, 0, 64, 64
1, 1174430, Control_c, 0, 64, 121
1, 1174445, Control_c, 0, 64, 127
1, 1174521, Note_off_c, 0, 64, 60
1, 1174534, Control_c, 0, 64, 101
1, 1174549, Control_c, 0, 64, 78
1, 1174563, Control_c, 0, 64, 65
1, 1174578, Control_c, 0, 64, 62
1, 1174586, Note_on_c, 0, 52, 54
1, 1174593, Control_c, 0, 64, 67
1, 1174595, Note_on_c, 0, 80, 67
1, 1174607, Control_c, 0, 64, 79
1, 1174609, Note_on_c, 0, 68, 55
1, 1174622, Control_c, 0, 64, 97
1, 1174637, Control_c, 0, 64, 127
1, 1174665, Note_off_c, 0, 68, 57
1, 1174667, Control_c, 0, 64, 100
1, 1174682, Control_c, 0, 64, 73
1, 1174697, Control_c, 0, 64, 52
1, 1174700, Note_off_c, 0, 81, 59
1, 1174706, Note_on_c, 0, 59, 55
1, 1174708, Note_off_c, 0, 52, 60
1, 1174712, Control_c, 0, 64, 46
1, 1174727, Control_c, 0, 64, 53
1, 1174741, Control_c, 0, 64, 60
1, 1174751, Note_on_c, 0, 78, 68
1, 1174756, Note_off_c, 0, 59, 61
1, 1174756, Control_c, 0, 64, 66
1, 1174770, Note_on_c, 0, 66, 64
1, 1174771, Control_c, 0, 64, 75
1, 1174773, Note_off_c, 0, 80, 61
1, 1174786, Control_c, 0, 64, 85
1, 1174787, Note_on_c, 0, 62, 56
1, 1174801, Control_c, 0, 64, 92
1, 1174802, Note_off_c, 0, 78, 61
1, 1174831, Control_c, 0, 64, 89
1, 1174832, Note_off_c, 0, 66, 65
1, 1174846, Control_c, 0, 64, 78
1, 1174861, Control_c, 0, 64, 66
1, 1174863, Note_off_c, 0, 62, 59
1, 1174876, Control_c, 0, 64, 55
1, 1174890, Control_c, 0, 64, 45
1, 1174902, Note_on_c, 0, 61, 55
1, 1174904, Note_on_c, 0, 76, 71
1, 1174920, Control_c, 0, 64, 54
1, 1174923, Note_on_c, 0, 64, 59
1, 1174935, Control_c, 0, 64, 62
1, 1174950, Control_c, 0, 64, 68
1, 1174958, Note_off_c, 0, 64, 64
1, 1174965, Control_c, 0, 64, 74
1, 1174979, Control_c, 0, 64, 80
1, 1174986, Note_off_c, 0, 61, 60
1, 1174994, Control_c, 0, 64, 83
1, 1175009, Control_c, 0, 64, 85
1, 1175013, Note_off_c, 0, 76, 59
1, 1175015, Note_on_c, 0, 59, 60
1, 1175024, Control_c, 0, 64, 87
1, 1175038, Control_c, 0, 64, 88
1, 1175042, Note_off_c, 0, 59, 65
1, 1175047, Note_on_c, 0, 74, 73
1, 1175060, Control_c, 0, 64, 89
1, 1175067, Note_on_c, 0, 62, 59
1, 1175095, Note_off_c, 0, 62, 57
1, 1175126, Note_off_c, 0, 74, 59
1, 1175180, Control_c, 0, 64, 88
1, 1175195, Control_c, 0, 64, 87
1, 1175209, Control_c, 0, 64, 85
1, 1175224, Control_c, 0, 64, 82
1, 1175232, Note_on_c, 0, 73, 58
1, 1175234, Note_on_c, 0, 45, 50
1, 1175239, Control_c, 0, 64, 77
1, 1175254, Control_c, 0, 64, 73
1, 1175257, Note_on_c, 0, 61, 44
1, 1175269, Control_c, 0, 64, 69
1, 1175284, Control_c, 0, 64, 66
1, 1175293, Note_off_c, 0, 61, 53
1, 1175299, Control_c, 0, 64, 63
1, 1175313, Control_c, 0, 64, 60
1, 1175315, Note_off_c, 0, 45, 59
1, 1175328, Control_c, 0, 64, 56
1, 1175330, Note_on_c, 0, 49, 45
1, 1175333, Note_off_c, 0, 73, 62
1, 1175343, Control_c, 0, 64, 53
1, 1175358, Control_c, 0, 64, 49
1, 1175373, Control_c, 0, 64, 43
1, 1175386, Note_off_c, 0, 49, 62
1, 1175387, Control_c, 0, 64, 34
1, 1175402, Control_c, 0, 64, 0
1, 1175409, Note_on_c, 0, 52, 50
1, 1175493, Note_off_c, 0, 52, 59
1, 1175520, Note_on_c, 0, 76, 64
1, 1175527, Note_on_c, 0, 49, 46
1, 1175559, Note_on_c, 0, 64, 39
1, 1175594, Control_c, 0, 64, 37
1, 1175597, Note_off_c, 0, 49, 59
1, 1175609, Control_c, 0, 64, 50
1, 1175619, Note_on_c, 0, 52, 53
1, 1175625, Control_c, 0, 64, 59
1, 1175640, Control_c, 0, 64, 60
1, 1175669, Control_c, 0, 64, 59
1, 1175677, Note_off_c, 0, 52, 59
1, 1175684, Control_c, 0, 64, 56
1, 1175699, Control_c, 0, 64, 52
1, 1175703, Note_on_c, 0, 57, 52
1, 1175714, Control_c, 0, 64, 49
1, 1175728, Control_c, 0, 64, 50
1, 1175743, Control_c, 0, 64, 53
1, 1175758, Control_c, 0, 64, 57
1, 1175773, Control_c, 0, 64, 61
1, 1175782, Note_off_c, 0, 57, 59
1, 1175788, Control_c, 0, 64, 64
1, 1175803, Control_c, 0, 64, 67
1, 1175814, Note_on_c, 0, 49, 53
1, 1175823, Note_off_c, 0, 64, 45
1, 1175825, Control_c, 0, 64, 71
1, 1175840, Control_c, 0, 64, 74
1, 1175855, Control_c, 0, 64, 77
1, 1175869, Control_c, 0, 64, 82
1, 1175880, Note_off_c, 0, 49, 59
1, 1175884, Control_c, 0, 64, 84
1, 1175889, Note_on_c, 0, 52, 57
1, 1175899, Control_c, 0, 64, 87
1, 1175905, Note_off_c, 0, 76, 62
1, 1175914, Control_c, 0, 64, 88
1, 1175929, Control_c, 0, 64, 90
1, 1175943, Note_off_c, 0, 52, 59
1, 1175943, Control_c, 0, 64, 91
1, 1175958, Control_c, 0, 64, 93
1, 1175973, Control_c, 0, 64, 95
1, 1175993, Note_on_c, 0, 57, 53
1, 1176017, Control_c, 0, 64, 92
1, 1176032, Control_c, 0, 64, 79
1, 1176043, Note_off_c, 0, 57, 59
1, 1176047, Control_c, 0, 64, 68
1, 1176062, Control_c, 0, 64, 59
1, 1176067, Note_on_c, 0, 81, 69
1, 1176077, Control_c, 0, 64, 55
1, 1176086, Note_on_c, 0, 69, 57
1, 1176092, Control_c, 0, 64, 58
1, 1176093, Note_on_c, 0, 52, 47
1, 1176107, Control_c, 0, 64, 63
1, 1176122, Control_c, 0, 64, 68
1, 1176136, Control_c, 0, 64, 76
1, 1176151, Control_c, 0, 64, 84
1, 1176163, Note_off_c, 0, 52, 61
1, 1176166, Control_c, 0, 64, 93
1, 1176174, Note_off_c, 0, 69, 57
1, 1176175, Note_on_c, 0, 57, 53
1, 1176180, Control_c, 0, 64, 104
1, 1176195, Control_c, 0, 64, 120
1, 1176210, Control_c, 0, 64, 127
1, 1176227, Note_off_c, 0, 81, 55
1, 1176244, Note_off_c, 0, 57, 63
1, 1176280, Note_on_c, 0, 61, 46
1, 1176306, Note_off_c, 0, 61, 58
1, 1176328, Control_c, 0, 64, 99
1, 1176343, Control_c, 0, 64, 74
1, 1176358, Control_c, 0, 64, 61
1, 1176373, Note_on_c, 0, 81, 61
1, 1176373, Control_c, 0, 64, 55
1, 1176387, Control_c, 0, 64, 56
1, 1176392, Note_on_c, 0, 47, 53
1, 1176399, Note_on_c, 0, 69, 52
1, 1176402, Control_c, 0, 64, 60
1, 1176417, Control_c, 0, 64, 63
1, 1176433, Control_c, 0, 64, 66
1, 1176448, Control_c, 0, 64, 69
1, 1176463, Control_c, 0, 64, 75
1, 1176477, Control_c, 0, 64, 78
1, 1176480, Note_off_c, 0, 47, 61
1, 1176492, Control_c, 0, 64, 79
1, 1176494, Note_on_c, 0, 50, 55
1, 1176502, Note_off_c, 0, 69, 56
1, 1176570, Note_off_c, 0, 50, 62
1, 1176574, Control_c, 0, 64, 79
1, 1176585, Note_on_c, 0, 52, 58
1, 1176589, Control_c, 0, 64, 78
1, 1176603, Control_c, 0, 64, 77
1, 1176618, Control_c, 0, 64, 76
1, 1176626, Note_off_c, 0, 52, 57
1, 1176632, Control_c, 0, 64, 74
1, 1176647, Control_c, 0, 64, 72
1, 1176662, Control_c, 0, 64, 69
1, 1176677, Control_c, 0, 64, 66
1, 1176682, Note_on_c, 0, 80, 60
1, 1176688, Note_on_c, 0, 50, 56
1, 1176691, Control_c, 0, 64, 64
1, 1176702, Note_on_c, 0, 68, 46
1, 1176706, Control_c, 0, 64, 62
1, 1176710, Note_off_c, 0, 81, 59
1, 1176721, Control_c, 0, 64, 60
1, 1176736, Control_c, 0, 64, 58
1, 1176751, Control_c, 0, 64, 54
1, 1176760, Note_off_c, 0, 50, 60
1, 1176765, Control_c, 0, 64, 48
1, 1176771, Note_off_c, 0, 68, 57
1, 1176780, Control_c, 0, 64, 42
1, 1176788, Note_on_c, 0, 52, 48
1, 1176795, Control_c, 0, 64, 36
1, 1176807, Note_off_c, 0, 80, 57
1, 1176810, Control_c, 0, 64, 28
1, 1176825, Control_c, 0, 64, 0
1, 1176840, Note_off_c, 0, 52, 62
1, 1176868, Note_on_c, 0, 59, 49
1, 1176957, Note_off_c, 0, 59, 49
1, 1176973, Control_c, 0, 64, 29
1, 1176983, Note_on_c, 0, 81, 61
1, 1176988, Control_c, 0, 64, 41
1, 1176998, Note_on_c, 0, 49, 42
1, 1177002, Control_c, 0, 64, 50
1, 1177015, Note_on_c, 0, 69, 43
1, 1177017, Control_c, 0, 64, 54
1, 1177032, Control_c, 0, 64, 52
1, 1177047, Control_c, 0, 64, 47
1, 1177062, Control_c, 0, 64, 41
1, 1177076, Note_off_c, 0, 49, 58
1, 1177076, Control_c, 0, 64, 31
1, 1177091, Control_c, 0, 64, 0
1, 1177095, Note_on_c, 0, 52, 44
1, 1177158, Note_off_c, 0, 52, 61
1, 1177165, Control_c, 0, 64, 38
1, 1177177, Note_on_c, 0, 57, 54
1, 1177180, Control_c, 0, 64, 52
1, 1177195, Control_c, 0, 64, 62
1, 1177210, Control_c, 0, 64, 67
1, 1177225, Control_c, 0, 64, 71
1, 1177231, Note_off_c, 0, 57, 57
1, 1177240, Control_c, 0, 64, 76
1, 1177255, Control_c, 0, 64, 81
1, 1177270, Control_c, 0, 64, 89
1, 1177278, Note_on_c, 0, 52, 67
1, 1177285, Control_c, 0, 64, 97
1, 1177307, Control_c, 0, 64, 106
1, 1177322, Control_c, 0, 64, 121
1, 1177337, Control_c, 0, 64, 127
1, 1177357, Note_off_c, 0, 52, 61
1, 1177365, Note_on_c, 0, 57, 59
1, 1177365, Note_off_c, 0, 69, 43
1, 1177437, Note_off_c, 0, 57, 62
1, 1177456, Note_on_c, 0, 61, 56
1, 1177462, Note_off_c, 0, 81, 63
1, 1177501, Note_off_c, 0, 61, 59
1, 1177514, Control_c, 0, 64, 89
1, 1177529, Control_c, 0, 64, 68
1, 1177544, Control_c, 0, 64, 51
1, 1177554, Note_on_c, 0, 83, 76
1, 1177559, Control_c, 0, 64, 44
1, 1177561, Note_on_c, 0, 50, 57
1, 1177567, Note_on_c, 0, 71, 66
1, 1177574, Control_c, 0, 64, 48
1, 1177588, Control_c, 0, 64, 54
1, 1177603, Control_c, 0, 64, 59
1, 1177618, Control_c, 0, 64, 62
1, 1177633, Control_c, 0, 64, 69
1, 1177648, Control_c, 0, 64, 84
1, 1177654, Note_on_c, 0, 54, 64
1, 1177658, Note_off_c, 0, 71, 61
1, 1177660, Note_off_c, 0, 50, 55
1, 1177663, Control_c, 0, 64, 117
1, 1177678, Control_c, 0, 64, 127
1, 1177701, Note_off_c, 0, 83, 63
1, 1177722, Control_c, 0, 64, 90
1, 1177732, Note_off_c, 0, 54, 61
1, 1177736, Note_on_c, 0, 57, 64
1, 1177737, Control_c, 0, 64, 69
1, 1177751, Control_c, 0, 64, 50
1, 1177766, Control_c, 0, 64, 0
1, 1177820, Note_off_c, 0, 57, 62
1, 1177827, Note_on_c, 0, 52, 66
1, 1177829, Note_on_c, 0, 85, 72
1, 1177838, Note_on_c, 0, 73, 58
1, 1177870, Note_off_c, 0, 73, 66
1, 1177889, Note_off_c, 0, 85, 64
1, 1177928, Note_off_c, 0, 52, 62
1, 1177955, Note_on_c, 0, 57, 51
1, 1177964, Note_on_c, 0, 86, 72
1, 1177975, Note_on_c, 0, 74, 59
1, 1177985, Note_on_c, 0, 54, 41
1, 1177998, Note_off_c, 0, 74, 63
1, 1178007, Note_off_c, 0, 86, 62
1, 1178023, Note_off_c, 0, 54, 63
1, 1178033, Note_off_c, 0, 57, 54
1, 1178116, Control_c, 0, 64, 42
1, 1178123, Note_on_c, 0, 85, 69
1, 1178130, Control_c, 0, 64, 57
1, 1178137, Note_on_c, 0, 52, 44
1, 1178141, Note_on_c, 0, 73, 63
1, 1178145, Control_c, 0, 64, 63
1, 1178160, Control_c, 0, 64, 66
1, 1178175, Control_c, 0, 64, 69
1, 1178190, Control_c, 0, 64, 72
1, 1178202, Note_off_c, 0, 85, 62
1, 1178204, Control_c, 0, 64, 75
1, 1178219, Note_off_c, 0, 52, 60
1, 1178219, Control_c, 0, 64, 79
1, 1178226, Note_off_c, 0, 73, 53
1, 1178234, Note_on_c, 0, 57, 50
1, 1178234, Control_c, 0, 64, 82
1, 1178249, Control_c, 0, 64, 84
1, 1178263, Control_c, 0, 64, 86
1, 1178278, Control_c, 0, 64, 88
1, 1178293, Control_c, 0, 64, 91
1, 1178295, Note_off_c, 0, 57, 60
1, 1178308, Control_c, 0, 64, 92
1, 1178317, Note_on_c, 0, 61, 54
1, 1178323, Control_c, 0, 64, 93
1, 1178352, Control_c, 0, 64, 90
1, 1178367, Control_c, 0, 64, 81
1, 1178381, Control_c, 0, 64, 66
1, 1178391, Note_off_c, 0, 61, 57
1, 1178396, Control_c, 0, 64, 52
1, 1178405, Note_on_c, 0, 83, 72
1, 1178411, Control_c, 0, 64, 42
1, 1178416, Note_on_c, 0, 52, 57
1, 1178426, Note_on_c, 0, 71, 58
1, 1178426, Control_c, 0, 64, 47
1, 1178441, Control_c, 0, 64, 56
1, 1178456, Control_c, 0, 64, 62
1, 1178466, Note_off_c, 0, 52, 61
1, 1178471, Control_c, 0, 64, 67
1, 1178485, Control_c, 0, 64, 72
1, 1178486, Note_on_c, 0, 56, 57
1, 1178500, Control_c, 0, 64, 76
1, 1178505, Note_off_c, 0, 71, 58
1, 1178515, Control_c, 0, 64, 79
1, 1178530, Control_c, 0, 64, 81
1, 1178540, Note_off_c, 0, 56, 60
1, 1178545, Control_c, 0, 64, 83
1, 1178560, Control_c, 0, 64, 84
1, 1178573, Note_off_c, 0, 83, 56
1, 1178585, Note_on_c, 0, 62, 50
1, 1178611, Note_off_c, 0, 62, 57
1, 1178708, Control_c, 0, 64, 83
1, 1178723, Control_c, 0, 64, 79
1, 1178731, Note_on_c, 0, 83, 67
1, 1178735, Note_on_c, 0, 45, 52
1, 1178737, Control_c, 0, 64, 69
1, 1178752, Note_on_c, 0, 71, 54
1, 1178752, Control_c, 0, 64, 53
1, 1178767, Control_c, 0, 64, 0
1, 1178815, Note_off_c, 0, 45, 62
1, 1178839, Note_on_c, 0, 52, 48
1, 1178849, Control_c, 0, 64, 34
1, 1178864, Control_c, 0, 64, 52
1, 1178879, Control_c, 0, 64, 63
1, 1178892, Note_off_c, 0, 52, 60
1, 1178894, Control_c, 0, 64, 66
1, 1178909, Control_c, 0, 64, 68
1, 1178910, Note_on_c, 0, 56, 63
1, 1178924, Control_c, 0, 64, 69
1, 1178939, Control_c, 0, 64, 71
1, 1178949, Note_off_c, 0, 56, 61
1, 1178953, Control_c, 0, 64, 72
1, 1178968, Control_c, 0, 64, 74
1, 1178983, Control_c, 0, 64, 74
1, 1179014, Note_on_c, 0, 52, 61
1, 1179028, Control_c, 0, 64, 72
1, 1179043, Control_c, 0, 64, 65
1, 1179058, Control_c, 0, 64, 53
1, 1179073, Control_c, 0, 64, 29
1, 1179087, Control_c, 0, 64, 0
1, 1179109, Note_off_c, 0, 52, 60
1, 1179111, Note_off_c, 0, 71, 49
1, 1179117, Control_c, 0, 64, 38
1, 1179132, Control_c, 0, 64, 47
1, 1179147, Control_c, 0, 64, 52
1, 1179161, Control_c, 0, 64, 56
1, 1179176, Control_c, 0, 64, 59
1, 1179191, Control_c, 0, 64, 62
1, 1179205, Control_c, 0, 64, 63
1, 1179207, Note_on_c, 0, 62, 51
1, 1179220, Control_c, 0, 64, 63
1, 1179235, Control_c, 0, 64, 64
1, 1179250, Control_c, 0, 64, 65
1, 1179265, Control_c, 0, 64, 65
1, 1179323, Note_off_c, 0, 62, 36
1, 1179326, Note_on_c, 0, 69, 54
1, 1179335, Note_on_c, 0, 81, 45
1, 1179346, Note_on_c, 0, 57, 44
1, 1179350, Note_on_c, 0, 61, 54
1, 1179368, Note_off_c, 0, 83, 62
1, 1179383, Control_c, 0, 64, 62
1, 1179384, Note_off_c, 0, 81, 62
1, 1179384, Note_off_c, 0, 69, 60
1, 1179394, Note_off_c, 0, 61, 61
1, 1179398, Note_off_c, 0, 57, 64
1, 1179398, Control_c, 0, 64, 52
1, 1179413, Control_c, 0, 64, 33
1, 1179427, Control_c, 0, 64, 0
1, 1179472, Control_c, 0, 67, 64
1, 1179479, Note_on_c, 0, 59, 75
1, 1179487, Control_c, 0, 67, 0
1, 1179532, Note_off_c, 0, 59, 62
1, 1179631, Note_on_c, 0, 61, 77
1, 1179658, Note_off_c, 0, 61, 68
1, 1179764, Note_on_c, 0, 62, 76
1, 1179794, Note_off_c, 0, 62, 64
1, 1179954, Note_on_c, 0, 64, 66
1, 1179958, Note_on_c, 0, 69, 54
1, 1180002, Note_on_c, 0, 61, 45
1, 1180015, Note_off_c, 0, 69, 55
1, 1180097, Note_on_c, 0, 71, 69
1, 1180146, Control_c, 0, 64, 41
1, 1180161, Control_c, 0, 64, 54
1, 1180165, Note_off_c, 0, 71, 61
1, 1180176, Control_c, 0, 64, 62
1, 1180191, Control_c, 0, 64, 65
1, 1180206, Control_c, 0, 64, 68
1, 1180220, Control_c, 0, 64, 71
1, 1180231, Note_on_c, 0, 73, 67
1, 1180235, Note_off_c, 0, 64, 62
1, 1180235, Control_c, 0, 64, 74
1, 1180250, Control_c, 0, 64, 79
1, 1180265, Control_c, 0, 64, 83
1, 1180280, Control_c, 0, 64, 85
1, 1180293, Note_off_c, 0, 73, 63
1, 1180302, Control_c, 0, 64, 85
1, 1180317, Control_c, 0, 64, 86
1, 1180347, Control_c, 0, 64, 86
1, 1180366, Note_on_c, 0, 74, 67
1, 1180384, Note_on_c, 0, 64, 71
1, 1180402, Note_off_c, 0, 74, 60
1, 1180437, Control_c, 0, 64, 86
1, 1180466, Control_c, 0, 64, 85
1, 1180481, Control_c, 0, 64, 85
1, 1180496, Control_c, 0, 64, 84
1, 1180511, Control_c, 0, 64, 83
1, 1180518, Note_off_c, 0, 61, 38
1, 1180525, Control_c, 0, 64, 82
1, 1180540, Control_c, 0, 64, 81
1, 1180555, Control_c, 0, 64, 80
1, 1180570, Control_c, 0, 64, 78
1, 1180584, Control_c, 0, 64, 76
1, 1180588, Note_on_c, 0, 76, 63
1, 1180591, Note_on_c, 0, 66, 72
1, 1180599, Control_c, 0, 64, 74
1, 1180614, Control_c, 0, 64, 71
1, 1180629, Control_c, 0, 64, 65
1, 1180631, Note_on_c, 0, 58, 46
1, 1180632, Note_off_c, 0, 64, 52
1, 1180644, Control_c, 0, 64, 59
1, 1180659, Control_c, 0, 64, 52
1, 1180667, Note_off_c, 0, 76, 61
1, 1180673, Control_c, 0, 64, 46
1, 1180688, Control_c, 0, 64, 40
1, 1180694, Note_on_c, 0, 75, 69
1, 1180703, Control_c, 0, 64, 35
1, 1180733, Control_c, 0, 64, 38
1, 1180748, Control_c, 0, 64, 44
1, 1180763, Note_off_c, 0, 75, 63
1, 1180763, Control_c, 0, 64, 51
1, 1180777, Control_c, 0, 64, 57
1, 1180780, Note_on_c, 0, 76, 70
1, 1180792, Control_c, 0, 64, 62
1, 1180807, Control_c, 0, 64, 66
1, 1180822, Control_c, 0, 64, 71
1, 1180837, Control_c, 0, 64, 75
1, 1180851, Control_c, 0, 64, 79
1, 1180860, Note_off_c, 0, 76, 47
1, 1180866, Control_c, 0, 64, 82
1, 1180869, Note_on_c, 0, 78, 72
1, 1180881, Control_c, 0, 64, 87
1, 1180896, Control_c, 0, 64, 91
1, 1180911, Control_c, 0, 64, 93
1, 1180925, Control_c, 0, 64, 95
1, 1180940, Control_c, 0, 64, 95
1, 1180948, Note_on_c, 0, 85, 80
1, 1180959, Note_off_c, 0, 78, 58
1, 1180977, Note_off_c, 0, 66, 60
1, 1180986, Note_off_c, 0, 58, 35
1, 1181025, Note_off_c, 0, 85, 63
1, 1181051, Control_c, 0, 64, 95
1, 1181053, Note_on_c, 0, 77, 76
1, 1181081, Control_c, 0, 64, 94
1, 1181096, Control_c, 0, 64, 93
1, 1181108, Note_off_c, 0, 77, 63
1, 1181111, Control_c, 0, 64, 92
1, 1181124, Control_c, 0, 64, 90
1, 1181139, Control_c, 0, 64, 89
1, 1181154, Control_c, 0, 64, 87
1, 1181162, Note_on_c, 0, 78, 68
1, 1181169, Control_c, 0, 64, 85
1, 1181176, Note_on_c, 0, 64, 67
1, 1181183, Control_c, 0, 64, 83
1, 1181198, Note_on_c, 0, 59, 57
1, 1181198, Control_c, 0, 64, 80
1, 1181213, Control_c, 0, 64, 77
1, 1181229, Control_c, 0, 64, 74
1, 1181244, Control_c, 0, 64, 71
1, 1181247, Note_off_c, 0, 78, 60
1, 1181259, Control_c, 0, 64, 68
1, 1181260, Note_on_c, 0, 77, 64
1, 1181273, Control_c, 0, 64, 65
1, 1181288, Control_c, 0, 64, 62
1, 1181303, Note_off_c, 0, 77, 58
1, 1181303, Control_c, 0, 64, 60
1, 1181318, Control_c, 0, 64, 59
1, 1181333, Control_c, 0, 64, 58
1, 1181347, Note_on_c, 0, 78, 70
1, 1181347, Control_c, 0, 64, 57
1, 1181362, Control_c, 0, 64, 55
1, 1181377, Control_c, 0, 64, 54
1, 1181392, Control_c, 0, 64, 52
1, 1181407, Control_c, 0, 64, 51
1, 1181417, Note_off_c, 0, 78, 60
1, 1181422, Control_c, 0, 64, 50
1, 1181437, Control_c, 0, 64, 49
1, 1181442, Note_on_c, 0, 79, 66
1, 1181451, Control_c, 0, 64, 48
1, 1181459, Note_on_c, 0, 63, 65
1, 1181466, Control_c, 0, 64, 47
1, 1181477, Note_off_c, 0, 64, 64
1, 1181481, Control_c, 0, 64, 46
1, 1181492, Note_off_c, 0, 63, 67
1, 1181494, Note_off_c, 0, 59, 63
1, 1181496, Control_c, 0, 64, 44
1, 1181509, Note_off_c, 0, 79, 54
1, 1181511, Control_c, 0, 64, 43
1, 1181526, Control_c, 0, 64, 42
1, 1181529, Note_on_c, 0, 80, 71
1, 1181617, Note_on_c, 0, 82, 70
1, 1181631, Note_off_c, 0, 80, 56
1, 1181747, Control_c, 0, 64, 43
1, 1181797, Note_on_c, 0, 83, 58
1, 1181799, Control_c, 0, 64, 43
1, 1181806, Note_off_c, 0, 82, 55
1, 1181819, Note_on_c, 0, 59, 65
1, 1181829, Control_c, 0, 64, 44
1, 1181859, Control_c, 0, 64, 44
1, 1181889, Control_c, 0, 64, 45
1, 1181904, Control_c, 0, 64, 46
1, 1181919, Control_c, 0, 64, 46
1, 1181933, Control_c, 0, 64, 47
1, 1181963, Control_c, 0, 64, 47
1, 1181978, Control_c, 0, 64, 48
1, 1182007, Control_c, 0, 64, 48
1, 1182026, Note_off_c, 0, 83, 60
1, 1182083, Control_c, 0, 64, 49
1, 1182292, Note_on_c, 0, 61, 61
1, 1182304, Note_off_c, 0, 59, 55
1, 1182319, Control_c, 0, 64, 49
1, 1182379, Control_c, 0, 64, 50
1, 1182452, Note_on_c, 0, 62, 59
1, 1182456, Note_off_c, 0, 61, 59
1, 1182483, Control_c, 0, 64, 50
1, 1182593, Note_on_c, 0, 54, 56
1, 1182596, Note_on_c, 0, 74, 69
1, 1182626, Note_off_c, 0, 74, 62
1, 1182635, Note_off_c, 0, 54, 60
1, 1182731, Note_on_c, 0, 76, 60
1, 1182736, Note_on_c, 0, 56, 61
1, 1182767, Note_off_c, 0, 76, 62
1, 1182784, Note_off_c, 0, 56, 59
1, 1182866, Note_on_c, 0, 57, 55
1, 1182869, Note_on_c, 0, 78, 64
1, 1182874, Note_off_c, 0, 62, 61
1, 1182891, Control_c, 0, 64, 51
1, 1182918, Note_off_c, 0, 78, 55
1, 1182925, Note_off_c, 0, 57, 62
1, 1182965, Control_c, 0, 64, 51
1, 1183055, Note_on_c, 0, 76, 55
1, 1183069, Note_on_c, 0, 64, 40
1, 1183078, Note_on_c, 0, 56, 39
1, 1183151, Note_off_c, 0, 76, 59
1, 1183157, Note_on_c, 0, 80, 65
1, 1183231, Control_c, 0, 64, 52
1, 1183246, Control_c, 0, 64, 53
1, 1183250, Note_on_c, 0, 81, 68
1, 1183255, Note_off_c, 0, 80, 59
1, 1183261, Control_c, 0, 64, 55
1, 1183276, Control_c, 0, 64, 59
1, 1183298, Control_c, 0, 64, 62
1, 1183313, Control_c, 0, 64, 67
1, 1183327, Control_c, 0, 64, 73
1, 1183338, Note_off_c, 0, 81, 63
1, 1183342, Control_c, 0, 64, 80
1, 1183344, Note_on_c, 0, 83, 72
1, 1183357, Control_c, 0, 64, 84
1, 1183368, Note_off_c, 0, 64, 59
1, 1183372, Control_c, 0, 64, 90
1, 1183386, Control_c, 0, 64, 95
1, 1183401, Control_c, 0, 64, 100
1, 1183414, Note_off_c, 0, 56, 58
1, 1183416, Control_c, 0, 64, 104
1, 1183431, Note_off_c, 0, 83, 62
1, 1183431, Control_c, 0, 64, 106
1, 1183434, Note_on_c, 0, 80, 68
1, 1183446, Control_c, 0, 64, 108
1, 1183499, Note_off_c, 0, 80, 62
1, 1183533, Note_on_c, 0, 74, 64
1, 1183575, Note_off_c, 0, 74, 55
1, 1183579, Control_c, 0, 64, 106
1, 1183594, Control_c, 0, 64, 103
1, 1183609, Control_c, 0, 64, 99
1, 1183625, Control_c, 0, 64, 95
1, 1183639, Control_c, 0, 64, 91
1, 1183647, Note_on_c, 0, 73, 59
1, 1183654, Control_c, 0, 64, 86
1, 1183664, Note_on_c, 0, 57, 55
1, 1183669, Control_c, 0, 64, 81
1, 1183684, Control_c, 0, 64, 74
1, 1183699, Control_c, 0, 64, 67
1, 1183714, Control_c, 0, 64, 60
1, 1183723, Note_off_c, 0, 73, 60
1, 1183729, Control_c, 0, 64, 50
1, 1183743, Control_c, 0, 64, 37
1, 1183747, Note_on_c, 0, 71, 61
1, 1183758, Control_c, 0, 64, 0
1, 1183804, Note_off_c, 0, 71, 55
1, 1183840, Note_on_c, 0, 73, 62
1, 1183894, Note_off_c, 0, 73, 61
1, 1183929, Note_on_c, 0, 74, 65
1, 1183991, Note_off_c, 0, 74, 57
1, 1184009, Note_on_c, 0, 73, 65
1, 1184093, Note_off_c, 0, 73, 61
1, 1184117, Note_on_c, 0, 74, 64
1, 1184164, Note_on_c, 0, 59, 46
1, 1184217, Note_off_c, 0, 74, 55
1, 1184252, Note_on_c, 0, 76, 51
1, 1184287, Note_off_c, 0, 59, 57
1, 1184295, Note_on_c, 0, 61, 44
1, 1184327, Note_off_c, 0, 76, 61
1, 1184346, Note_on_c, 0, 78, 62
1, 1184447, Control_c, 0, 64, 39
1, 1184448, Note_on_c, 0, 80, 62
1, 1184462, Control_c, 0, 64, 55
1, 1184477, Control_c, 0, 64, 62
1, 1184479, Note_off_c, 0, 78, 54
1, 1184492, Control_c, 0, 64, 64
1, 1184507, Control_c, 0, 64, 67
1, 1184522, Control_c, 0, 64, 71
1, 1184525, Note_off_c, 0, 80, 59
1, 1184528, Note_on_c, 0, 81, 69
1, 1184537, Control_c, 0, 64, 76
1, 1184552, Control_c, 0, 64, 81
1, 1184566, Control_c, 0, 64, 86
1, 1184581, Control_c, 0, 64, 92
1, 1184596, Control_c, 0, 64, 98
1, 1184604, Note_off_c, 0, 81, 59
1, 1184611, Control_c, 0, 64, 104
1, 1184611, Note_off_c, 0, 61, 59
1, 1184615, Note_on_c, 0, 76, 65
1, 1184619, Note_off_c, 0, 57, 54
1, 1184625, Control_c, 0, 64, 112
1, 1184640, Control_c, 0, 64, 127
1, 1184693, Note_off_c, 0, 76, 63
1, 1184701, Note_on_c, 0, 73, 63
1, 1184757, Note_off_c, 0, 73, 62
1, 1184796, Control_c, 0, 64, 90
1, 1184811, Control_c, 0, 64, 69
1, 1184817, Note_on_c, 0, 78, 59
1, 1184825, Control_c, 0, 64, 59
1, 1184832, Note_on_c, 0, 59, 58
1, 1184840, Control_c, 0, 64, 57
1, 1184841, Note_on_c, 0, 50, 52
1, 1184855, Control_c, 0, 64, 60
1, 1184870, Control_c, 0, 64, 63
1, 1184885, Control_c, 0, 64, 67
1, 1184891, Note_off_c, 0, 78, 59
1, 1184899, Control_c, 0, 64, 73
1, 1184914, Control_c, 0, 64, 81
1, 1184917, Note_on_c, 0, 71, 66
1, 1184927, Note_off_c, 0, 59, 61
1, 1184929, Control_c, 0, 64, 85
1, 1184943, Control_c, 0, 64, 90
1, 1184958, Control_c, 0, 64, 98
1, 1184973, Control_c, 0, 64, 112
1, 1184988, Control_c, 0, 64, 127
1, 1185014, Note_on_c, 0, 78, 59
1, 1185026, Note_off_c, 0, 71, 38
1, 1185047, Control_c, 0, 64, 101
1, 1185062, Control_c, 0, 64, 75
1, 1185077, Control_c, 0, 64, 59
1, 1185091, Control_c, 0, 64, 43
1, 1185092, Note_off_c, 0, 78, 57
1, 1185106, Control_c, 0, 64, 37
1, 1185112, Note_on_c, 0, 81, 59
1, 1185119, Note_on_c, 0, 59, 78
1, 1185121, Control_c, 0, 64, 46
1, 1185136, Control_c, 0, 64, 59
1, 1185141, Note_off_c, 0, 50, 62
1, 1185151, Control_c, 0, 64, 68
1, 1185166, Control_c, 0, 64, 78
1, 1185181, Note_off_c, 0, 81, 63
1, 1185181, Control_c, 0, 64, 89
1, 1185195, Control_c, 0, 64, 99
1, 1185198, Note_on_c, 0, 71, 72
1, 1185210, Control_c, 0, 64, 117
1, 1185226, Control_c, 0, 64, 127
1, 1185267, Note_off_c, 0, 59, 58
1, 1185291, Note_off_c, 0, 71, 59
1, 1185294, Note_on_c, 0, 81, 69
1, 1185358, Note_off_c, 0, 81, 64
1, 1185389, Control_c, 0, 64, 99
1, 1185389, Note_on_c, 0, 80, 70
1, 1185391, Note_on_c, 0, 59, 78
1, 1185404, Control_c, 0, 64, 73
1, 1185410, Note_on_c, 0, 52, 64
1, 1185419, Control_c, 0, 64, 54
1, 1185434, Control_c, 0, 64, 44
1, 1185448, Control_c, 0, 64, 46
1, 1185456, Note_off_c, 0, 80, 61
1, 1185463, Control_c, 0, 64, 55
1, 1185469, Note_on_c, 0, 71, 70
1, 1185478, Control_c, 0, 64, 64
1, 1185493, Control_c, 0, 64, 72
1, 1185508, Control_c, 0, 64, 82
1, 1185522, Control_c, 0, 64, 89
1, 1185525, Note_off_c, 0, 71, 52
1, 1185544, Control_c, 0, 64, 95
1, 1185559, Control_c, 0, 64, 107
1, 1185569, Note_on_c, 0, 80, 74
1, 1185574, Control_c, 0, 64, 127
1, 1185648, Control_c, 0, 64, 80
1, 1185654, Note_off_c, 0, 80, 61
1, 1185663, Control_c, 0, 64, 61
1, 1185673, Note_on_c, 0, 83, 70
1, 1185674, Note_off_c, 0, 59, 59
1, 1185678, Control_c, 0, 64, 46
1, 1185690, Note_on_c, 0, 62, 68
1, 1185693, Control_c, 0, 64, 47
1, 1185708, Control_c, 0, 64, 58
1, 1185722, Control_c, 0, 64, 70
1, 1185737, Control_c, 0, 64, 84
1, 1185752, Control_c, 0, 64, 103
1, 1185766, Control_c, 0, 64, 123
1, 1185772, Note_off_c, 0, 83, 60
1, 1185777, Note_on_c, 0, 80, 70
1, 1185781, Control_c, 0, 64, 127
1, 1185788, Note_off_c, 0, 62, 61
1, 1185842, Note_off_c, 0, 52, 52
1, 1185851, Note_off_c, 0, 80, 60
1, 1185863, Note_on_c, 0, 61, 69
1, 1185877, Note_on_c, 0, 83, 72
1, 1185922, Note_off_c, 0, 61, 63
1, 1185933, Note_off_c, 0, 83, 57
1, 1185956, Note_on_c, 0, 61, 70
1, 1185959, Control_c, 0, 64, 104
1, 1185962, Note_on_c, 0, 57, 69
1, 1185970, Note_on_c, 0, 81, 74
1, 1185973, Control_c, 0, 64, 84
1, 1185988, Control_c, 0, 64, 68
1, 1186003, Control_c, 0, 64, 52
1, 1186019, Control_c, 0, 64, 0
1, 1186054, Note_off_c, 0, 81, 58
1, 1186064, Note_on_c, 0, 83, 71
1, 1186108, Control_c, 0, 64, 32
1, 1186123, Control_c, 0, 64, 53
1, 1186136, Note_off_c, 0, 83, 63
1, 1186137, Control_c, 0, 64, 65
1, 1186152, Control_c, 0, 64, 72
1, 1186155, Note_on_c, 0, 80, 76
1, 1186167, Control_c, 0, 64, 80
1, 1186182, Control_c, 0, 64, 85
1, 1186197, Control_c, 0, 64, 91
1, 1186212, Control_c, 0, 64, 98
1, 1186215, Note_off_c, 0, 80, 62
1, 1186227, Control_c, 0, 64, 107
1, 1186239, Note_on_c, 0, 81, 80
1, 1186242, Control_c, 0, 64, 114
1, 1186257, Control_c, 0, 64, 118
1, 1186271, Control_c, 0, 64, 121
1, 1186293, Control_c, 0, 64, 123
1, 1186308, Control_c, 0, 64, 126
1, 1186337, Note_on_c, 0, 83, 77
1, 1186340, Note_off_c, 0, 81, 61
1, 1186427, Control_c, 0, 64, 123
1, 1186430, Note_on_c, 0, 84, 79
1, 1186433, Note_off_c, 0, 83, 63
1, 1186471, Control_c, 0, 64, 121
1, 1186501, Control_c, 0, 64, 118
1, 1186530, Control_c, 0, 64, 116
1, 1186538, Note_on_c, 0, 85, 74
1, 1186552, Note_off_c, 0, 84, 59
1, 1186556, Note_on_c, 0, 64, 71
1, 1186560, Control_c, 0, 64, 113
1, 1186575, Control_c, 0, 64, 110
1, 1186588, Note_off_c, 0, 85, 64
1, 1186589, Control_c, 0, 64, 105
1, 1186604, Control_c, 0, 64, 96
1, 1186619, Control_c, 0, 64, 86
1, 1186632, Note_on_c, 0, 86, 77
1, 1186634, Control_c, 0, 64, 72
1, 1186649, Control_c, 0, 64, 58
1, 1186663, Note_off_c, 0, 57, 56
1, 1186663, Control_c, 0, 64, 35
1, 1186678, Control_c, 0, 64, 0
1, 1186702, Note_off_c, 0, 61, 60
1, 1186722, Note_on_c, 0, 88, 78
1, 1186722, Control_c, 0, 64, 33
1, 1186723, Note_off_c, 0, 86, 40
1, 1186737, Control_c, 0, 64, 55
1, 1186752, Control_c, 0, 64, 66
1, 1186767, Control_c, 0, 64, 76
1, 1186782, Control_c, 0, 64, 91
1, 1186796, Control_c, 0, 64, 114
1, 1186811, Note_on_c, 0, 90, 83
1, 1186812, Control_c, 0, 64, 127
1, 1186818, Note_off_c, 0, 88, 63
1, 1186868, Note_off_c, 0, 64, 62
1, 1186903, Note_on_c, 0, 92, 77
1, 1186904, Note_on_c, 0, 62, 55
1, 1186957, Note_off_c, 0, 90, 62
1, 1186959, Note_off_c, 0, 62, 63
1, 1186964, Note_on_c, 0, 61, 63
1, 1186980, Note_on_c, 0, 93, 75
1, 1186983, Note_off_c, 0, 92, 66
1, 1186989, Note_off_c, 0, 61, 67
1, 1187004, Note_off_c, 0, 93, 66
1, 1187087, Control_c, 0, 64, 79
1, 1187101, Control_c, 0, 64, 61
1, 1187106, Note_on_c, 0, 59, 60
1, 1187115, Control_c, 0, 64, 56
1, 1187130, Control_c, 0, 64, 62
1, 1187130, Note_on_c, 0, 78, 63
1, 1187131, Note_on_c, 0, 50, 52
1, 1187144, Control_c, 0, 64, 70
1, 1187159, Control_c, 0, 64, 83
1, 1187174, Control_c, 0, 64, 105
1, 1187189, Control_c, 0, 64, 127
1, 1187193, Note_off_c, 0, 78, 60
1, 1187213, Note_on_c, 0, 71, 73
1, 1187248, Note_off_c, 0, 59, 59
1, 1187297, Note_on_c, 0, 78, 79
1, 1187297, Note_off_c, 0, 71, 47
1, 1187351, Control_c, 0, 64, 117
1, 1187366, Control_c, 0, 64, 73
1, 1187381, Control_c, 0, 64, 53
1, 1187382, Note_off_c, 0, 50, 62
1, 1187389, Note_on_c, 0, 81, 77
1, 1187391, Note_off_c, 0, 78, 58
1, 1187396, Control_c, 0, 64, 45
1, 1187400, Note_on_c, 0, 51, 66
1, 1187405, Note_on_c, 0, 59, 83
1, 1187410, Control_c, 0, 64, 55
1, 1187425, Control_c, 0, 64, 65
1, 1187439, Note_off_c, 0, 51, 64
1, 1187440, Control_c, 0, 64, 80
1, 1187455, Control_c, 0, 64, 127
1, 1187466, Note_off_c, 0, 81, 65
1, 1187488, Note_on_c, 0, 71, 81
1, 1187506, Note_off_c, 0, 59, 38
1, 1187574, Note_on_c, 0, 81, 73
1, 1187577, Note_off_c, 0, 71, 58
1, 1187633, Note_off_c, 0, 81, 64
1, 1187664, Control_c, 0, 64, 70
1, 1187670, Note_on_c, 0, 80, 78
1, 1187671, Note_on_c, 0, 59, 82
1, 1187679, Control_c, 0, 64, 43
1, 1187682, Note_on_c, 0, 52, 68
1, 1187693, Control_c, 0, 64, 0
1, 1187738, Control_c, 0, 64, 45
1, 1187740, Note_off_c, 0, 80, 62
1, 1187753, Control_c, 0, 64, 61
1, 1187765, Note_on_c, 0, 71, 76
1, 1187767, Control_c, 0, 64, 64
1, 1187789, Control_c, 0, 64, 67
1, 1187804, Control_c, 0, 64, 72
1, 1187819, Control_c, 0, 64, 80
1, 1187833, Note_off_c, 0, 71, 58
1, 1187834, Control_c, 0, 64, 89
1, 1187848, Control_c, 0, 64, 96
1, 1187860, Note_on_c, 0, 80, 75
1, 1187863, Control_c, 0, 64, 108
1, 1187878, Control_c, 0, 64, 127
1, 1187938, Control_c, 0, 64, 84
1, 1187953, Control_c, 0, 64, 60
1, 1187954, Note_on_c, 0, 83, 79
1, 1187955, Note_off_c, 0, 59, 60
1, 1187960, Note_on_c, 0, 62, 78
1, 1187960, Note_off_c, 0, 80, 62
1, 1187967, Control_c, 0, 64, 0
1, 1187997, Control_c, 0, 64, 31
1, 1188012, Control_c, 0, 64, 54
1, 1188027, Control_c, 0, 64, 66
1, 1188041, Control_c, 0, 64, 72
1, 1188052, Note_off_c, 0, 83, 62
1, 1188054, Note_on_c, 0, 80, 80
1, 1188056, Control_c, 0, 64, 77
1, 1188071, Control_c, 0, 64, 82
1, 1188086, Control_c, 0, 64, 90
1, 1188101, Control_c, 0, 64, 99
1, 1188110, Note_off_c, 0, 52, 36
1, 1188115, Control_c, 0, 64, 106
1, 1188130, Control_c, 0, 64, 110
1, 1188133, Note_on_c, 0, 88, 79
1, 1188148, Note_off_c, 0, 80, 59
1, 1188151, Note_on_c, 0, 61, 69
1, 1188153, Note_off_c, 0, 62, 61
1, 1188159, Control_c, 0, 64, 112
1, 1188176, Note_off_c, 0, 61, 67
1, 1188204, Control_c, 0, 64, 114
1, 1188289, Note_on_c, 0, 85, 72
1, 1188293, Control_c, 0, 64, 106
1, 1188308, Note_on_c, 0, 57, 69
1, 1188308, Control_c, 0, 64, 93
1, 1188319, Note_on_c, 0, 45, 53
1, 1188322, Control_c, 0, 64, 77
1, 1188325, Note_off_c, 0, 88, 61
1, 1188337, Control_c, 0, 64, 62
1, 1188352, Control_c, 0, 64, 41
1, 1188367, Control_c, 0, 64, 0
1, 1188375, Note_on_c, 0, 81, 69
1, 1188388, Note_off_c, 0, 85, 60
1, 1188433, Note_off_c, 0, 81, 66
1, 1188457, Control_c, 0, 64, 31
1, 1188463, Note_on_c, 0, 76, 73
1, 1188471, Control_c, 0, 64, 52
1, 1188486, Control_c, 0, 64, 63
1, 1188501, Control_c, 0, 64, 68
1, 1188513, Note_off_c, 0, 76, 62
1, 1188516, Control_c, 0, 64, 73
1, 1188538, Control_c, 0, 64, 78
1, 1188553, Control_c, 0, 64, 84
1, 1188567, Note_on_c, 0, 73, 70
1, 1188568, Control_c, 0, 64, 91
1, 1188583, Control_c, 0, 64, 101
1, 1188597, Control_c, 0, 64, 113
1, 1188613, Control_c, 0, 64, 127
1, 1188654, Note_on_c, 0, 74, 73
1, 1188665, Note_off_c, 0, 73, 61
1, 1188688, Note_off_c, 0, 57, 62
1, 1188717, Note_off_c, 0, 74, 63
1, 1188741, Note_on_c, 0, 71, 71
1, 1188760, Note_off_c, 0, 45, 62
1, 1188784, Note_off_c, 0, 71, 57
1, 1188834, Note_on_c, 0, 69, 74
1, 1188871, Note_off_c, 0, 69, 59
1, 1188880, Control_c, 0, 64, 97
1, 1188895, Control_c, 0, 64, 83
1, 1188909, Control_c, 0, 64, 73
1, 1188924, Control_c, 0, 64, 64
1, 1188939, Control_c, 0, 64, 53
1, 1188954, Control_c, 0, 64, 41
1, 1188969, Control_c, 0, 64, 28
1, 1188981, Note_on_c, 0, 44, 85
1, 1188984, Control_c, 0, 64, 0
1, 1189053, Note_off_c, 0, 44, 63
1, 1189134, Note_on_c, 0, 45, 85
1, 1189199, Note_off_c, 0, 45, 59
1, 1189288, Note_on_c, 0, 47, 87
1, 1189303, Control_c, 0, 64, 27
1, 1189347, Control_c, 0, 64, 29
1, 1189387, Note_off_c, 0, 47, 61
1, 1189481, Control_c, 0, 64, 31
1, 1189495, Control_c, 0, 64, 33
1, 1189500, Note_on_c, 0, 48, 76
1, 1189504, Note_on_c, 0, 84, 70
1, 1189510, Control_c, 0, 64, 34
1, 1189518, Note_on_c, 0, 45, 59
1, 1189525, Control_c, 0, 64, 35
1, 1189539, Control_c, 0, 64, 37
1, 1189554, Control_c, 0, 64, 39
1, 1189569, Control_c, 0, 64, 43
1, 1189584, Control_c, 0, 64, 47
1, 1189599, Control_c, 0, 64, 52
1, 1189613, Control_c, 0, 64, 57
1, 1189624, Note_on_c, 0, 86, 71
1, 1189628, Control_c, 0, 64, 60
1, 1189634, Note_off_c, 0, 84, 61
1, 1189643, Control_c, 0, 64, 62
1, 1189658, Control_c, 0, 64, 65
1, 1189673, Control_c, 0, 64, 68
1, 1189688, Control_c, 0, 64, 70
1, 1189703, Control_c, 0, 64, 73
1, 1189712, Note_off_c, 0, 86, 64
1, 1189717, Control_c, 0, 64, 75
1, 1189720, Note_on_c, 0, 88, 70
1, 1189732, Control_c, 0, 64, 78
1, 1189747, Control_c, 0, 64, 81
1, 1189762, Control_c, 0, 64, 84
1, 1189777, Control_c, 0, 64, 88
1, 1189792, Control_c, 0, 64, 93
1, 1189806, Control_c, 0, 64, 98
1, 1189821, Control_c, 0, 64, 104
1, 1189835, Note_on_c, 0, 86, 70
1, 1189836, Control_c, 0, 64, 111
1, 1189840, Note_off_c, 0, 88, 62
1, 1189844, Note_on_c, 0, 52, 81
1, 1189851, Control_c, 0, 64, 127
1, 1189928, Note_off_c, 0, 48, 60
1, 1189944, Note_on_c, 0, 84, 73
1, 1189954, Note_off_c, 0, 86, 60
1, 1190048, Note_off_c, 0, 84, 60
1, 1190051, Note_on_c, 0, 83, 75
1, 1190116, Note_off_c, 0, 83, 63
1, 1190136, Note_on_c, 0, 81, 71
1, 1190148, Note_on_c, 0, 48, 75
1, 1190200, Control_c, 0, 64, 94
1, 1190215, Control_c, 0, 64, 70
1, 1190227, Note_off_c, 0, 81, 59
1, 1190230, Note_off_c, 0, 45, 56
1, 1190230, Control_c, 0, 64, 57
1, 1190231, Note_on_c, 0, 83, 73
1, 1190244, Control_c, 0, 64, 54
1, 1190259, Control_c, 0, 64, 57
1, 1190274, Control_c, 0, 64, 63
1, 1190282, Note_off_c, 0, 52, 62
1, 1190289, Control_c, 0, 64, 70
1, 1190304, Control_c, 0, 64, 82
1, 1190314, Note_on_c, 0, 84, 73
1, 1190318, Note_off_c, 0, 83, 62
1, 1190318, Control_c, 0, 64, 97
1, 1190333, Control_c, 0, 64, 106
1, 1190348, Control_c, 0, 64, 127
1, 1190379, Note_off_c, 0, 84, 63
1, 1190403, Note_on_c, 0, 57, 86
1, 1190412, Note_on_c, 0, 81, 70
1, 1190457, Note_off_c, 0, 81, 60
1, 1190507, Note_on_c, 0, 79, 69
1, 1190584, Note_off_c, 0, 79, 64
1, 1190595, Note_on_c, 0, 77, 72
1, 1190662, Note_off_c, 0, 77, 61
1, 1190687, Note_on_c, 0, 76, 69
1, 1190697, Note_on_c, 0, 47, 65
1, 1190703, Control_c, 0, 64, 118
1, 1190718, Control_c, 0, 64, 101
1, 1190722, Note_off_c, 0, 48, 61
1, 1190733, Control_c, 0, 64, 88
1, 1190748, Control_c, 0, 64, 74
1, 1190761, Note_off_c, 0, 76, 56
1, 1190762, Control_c, 0, 64, 60
1, 1190775, Note_on_c, 0, 75, 71
1, 1190777, Control_c, 0, 64, 39
1, 1190800, Control_c, 0, 64, 0
1, 1190868, Note_off_c, 0, 75, 60
1, 1190871, Note_on_c, 0, 76, 75
1, 1190933, Note_off_c, 0, 76, 60
1, 1190949, Control_c, 0, 64, 31
1, 1190964, Control_c, 0, 64, 47
1, 1190975, Note_on_c, 0, 77, 71
1, 1190978, Control_c, 0, 64, 58
1, 1190989, Note_on_c, 0, 56, 70
1, 1190993, Control_c, 0, 64, 60
1, 1191023, Control_c, 0, 64, 61
1, 1191038, Control_c, 0, 64, 62
1, 1191051, Note_off_c, 0, 57, 57
1, 1191053, Control_c, 0, 64, 63
1, 1191062, Note_on_c, 0, 76, 69
1, 1191067, Control_c, 0, 64, 64
1, 1191069, Note_off_c, 0, 77, 61
1, 1191142, Note_off_c, 0, 76, 62
1, 1191159, Note_on_c, 0, 74, 70
1, 1191215, Control_c, 0, 64, 63
1, 1191230, Control_c, 0, 64, 63
1, 1191245, Control_c, 0, 64, 62
1, 1191259, Control_c, 0, 64, 61
1, 1191260, Note_off_c, 0, 74, 46
1, 1191274, Control_c, 0, 64, 60
1, 1191289, Control_c, 0, 64, 59
1, 1191290, Note_on_c, 0, 72, 62
1, 1191303, Note_on_c, 0, 57, 64
1, 1191303, Control_c, 0, 64, 58
1, 1191315, Note_off_c, 0, 56, 64
1, 1191318, Control_c, 0, 64, 57
1, 1191333, Note_on_c, 0, 48, 68
1, 1191333, Control_c, 0, 64, 55
1, 1191346, Note_off_c, 0, 47, 61
1, 1191348, Control_c, 0, 64, 53
1, 1191363, Control_c, 0, 64, 49
1, 1191378, Control_c, 0, 64, 43
1, 1191386, Note_off_c, 0, 72, 59
1, 1191393, Note_on_c, 0, 71, 65
1, 1191393, Control_c, 0, 64, 30
1, 1191408, Control_c, 0, 64, 0
1, 1191454, Note_off_c, 0, 71, 62
1, 1191482, Note_on_c, 0, 69, 63
1, 1191548, Control_c, 0, 64, 39
1, 1191563, Control_c, 0, 64, 53
1, 1191575, Note_off_c, 0, 69, 60
1, 1191578, Control_c, 0, 64, 61
1, 1191579, Note_on_c, 0, 68, 68
1, 1191592, Control_c, 0, 64, 63
1, 1191608, Control_c, 0, 64, 65
1, 1191623, Control_c, 0, 64, 67
1, 1191638, Control_c, 0, 64, 70
1, 1191653, Control_c, 0, 64, 73
1, 1191654, Note_off_c, 0, 68, 62
1, 1191666, Note_off_c, 0, 48, 60
1, 1191668, Note_on_c, 0, 71, 75
1, 1191668, Control_c, 0, 64, 76
1, 1191683, Control_c, 0, 64, 78
1, 1191697, Control_c, 0, 64, 80
1, 1191709, Note_off_c, 0, 57, 59
1, 1191712, Control_c, 0, 64, 82
1, 1191727, Control_c, 0, 64, 82
1, 1191742, Control_c, 0, 64, 83
1, 1191753, Note_on_c, 0, 69, 78
1, 1191767, Note_off_c, 0, 71, 56
1, 1191771, Control_c, 0, 64, 83
1, 1191801, Control_c, 0, 64, 84
1, 1191846, Control_c, 0, 64, 84
1, 1191876, Control_c, 0, 64, 84
1, 1191890, Control_c, 0, 64, 83
1, 1191905, Control_c, 0, 64, 76
1, 1191907, Note_off_c, 0, 69, 58
1, 1191911, Note_on_c, 0, 65, 67
1, 1191915, Note_on_c, 0, 59, 83
1, 1191920, Control_c, 0, 64, 67
1, 1191928, Note_on_c, 0, 50, 61
1, 1191934, Control_c, 0, 64, 55
1, 1191949, Control_c, 0, 64, 31
1, 1191964, Control_c, 0, 64, 0
1, 1191969, Note_off_c, 0, 65, 60
1, 1191994, Control_c, 0, 64, 37
1, 1192008, Control_c, 0, 64, 49
1, 1192023, Note_on_c, 0, 69, 71
1, 1192023, Control_c, 0, 64, 61
1, 1192038, Control_c, 0, 64, 67
1, 1192053, Control_c, 0, 64, 73
1, 1192068, Control_c, 0, 64, 76
1, 1192082, Control_c, 0, 64, 77
1, 1192097, Control_c, 0, 64, 78
1, 1192100, Note_off_c, 0, 69, 59
1, 1192112, Control_c, 0, 64, 77
1, 1192124, Note_on_c, 0, 81, 74
1, 1192126, Control_c, 0, 64, 75
1, 1192141, Control_c, 0, 64, 66
1, 1192156, Control_c, 0, 64, 54
1, 1192171, Control_c, 0, 64, 39
1, 1192180, Note_off_c, 0, 81, 65
1, 1192186, Control_c, 0, 64, 37
1, 1192198, Note_off_c, 0, 59, 57
1, 1192201, Control_c, 0, 64, 45
1, 1192212, Note_on_c, 0, 69, 71
1, 1192215, Control_c, 0, 64, 54
1, 1192230, Control_c, 0, 64, 61
1, 1192245, Control_c, 0, 64, 66
1, 1192260, Control_c, 0, 64, 71
1, 1192264, Note_off_c, 0, 69, 61
1, 1192282, Control_c, 0, 64, 76
1, 1192291, Note_on_c, 0, 81, 77
1, 1192297, Control_c, 0, 64, 82
1, 1192312, Control_c, 0, 64, 89
1, 1192323, Note_on_c, 0, 59, 73
1, 1192327, Control_c, 0, 64, 101
1, 1192338, Note_off_c, 0, 81, 65
1, 1192341, Control_c, 0, 64, 127
1, 1192376, Note_on_c, 0, 69, 81
1, 1192386, Control_c, 0, 64, 117
1, 1192401, Control_c, 0, 64, 79
1, 1192410, Note_off_c, 0, 59, 60
1, 1192417, Control_c, 0, 64, 60
1, 1192431, Control_c, 0, 64, 49
1, 1192446, Control_c, 0, 64, 56
1, 1192461, Control_c, 0, 64, 64
1, 1192476, Control_c, 0, 64, 71
1, 1192478, Note_on_c, 0, 66, 77
1, 1192479, Note_off_c, 0, 50, 62
1, 1192482, Note_off_c, 0, 69, 56
1, 1192491, Control_c, 0, 64, 82
1, 1192499, Note_on_c, 0, 60, 89
1, 1192505, Control_c, 0, 64, 94
1, 1192511, Note_on_c, 0, 51, 72
1, 1192520, Control_c, 0, 64, 105
1, 1192531, Note_off_c, 0, 66, 64
1, 1192535, Control_c, 0, 64, 121
1, 1192550, Control_c, 0, 64, 127
1, 1192579, Note_on_c, 0, 69, 82
1, 1192640, Note_off_c, 0, 69, 59
1, 1192654, Control_c, 0, 64, 93
1, 1192669, Control_c, 0, 64, 70
1, 1192673, Note_on_c, 0, 81, 75
1, 1192683, Control_c, 0, 64, 50
1, 1192698, Control_c, 0, 64, 0
1, 1192719, Note_off_c, 0, 81, 62
1, 1192757, Control_c, 0, 64, 39
1, 1192761, Note_on_c, 0, 69, 68
1, 1192772, Control_c, 0, 64, 56
1, 1192787, Control_c, 0, 64, 65
1, 1192789, Note_on_c, 0, 57, 69
1, 1192802, Control_c, 0, 64, 72
1, 1192815, Note_off_c, 0, 60, 63
1, 1192817, Control_c, 0, 64, 79
1, 1192829, Note_off_c, 0, 51, 62
1, 1192831, Control_c, 0, 64, 84
1, 1192843, Note_off_c, 0, 69, 58
1, 1192846, Control_c, 0, 64, 89
1, 1192850, Note_on_c, 0, 72, 72
1, 1192861, Control_c, 0, 64, 96
1, 1192868, Note_off_c, 0, 57, 63
1, 1192875, Control_c, 0, 64, 102
1, 1192890, Control_c, 0, 64, 106
1, 1192905, Control_c, 0, 64, 108
1, 1192907, Note_off_c, 0, 72, 63
1, 1192958, Note_on_c, 0, 84, 81
1, 1193046, Control_c, 0, 64, 105
1, 1193061, Control_c, 0, 64, 96
1, 1193076, Control_c, 0, 64, 76
1, 1193083, Note_on_c, 0, 57, 87
1, 1193084, Note_off_c, 0, 84, 48
1, 1193090, Control_c, 0, 64, 58
1, 1193092, Note_on_c, 0, 52, 72
1, 1193101, Note_on_c, 0, 72, 77
1, 1193105, Control_c, 0, 64, 0
1, 1193179, Control_c, 0, 64, 41
1, 1193184, Note_off_c, 0, 72, 61
1, 1193191, Note_on_c, 0, 76, 76
1, 1193194, Control_c, 0, 64, 56
1, 1193210, Control_c, 0, 64, 65
1, 1193225, Control_c, 0, 64, 71
1, 1193240, Control_c, 0, 64, 74
1, 1193254, Control_c, 0, 64, 71
1, 1193269, Control_c, 0, 64, 59
1, 1193272, Note_off_c, 0, 76, 60
1, 1193281, Note_on_c, 0, 80, 79
1, 1193284, Control_c, 0, 64, 40
1, 1193299, Control_c, 0, 64, 31
1, 1193313, Control_c, 0, 64, 38
1, 1193328, Control_c, 0, 64, 51
1, 1193329, Note_off_c, 0, 80, 61
1, 1193343, Control_c, 0, 64, 61
1, 1193358, Control_c, 0, 64, 68
1, 1193369, Note_on_c, 0, 81, 82
1, 1193373, Control_c, 0, 64, 78
1, 1193387, Control_c, 0, 64, 86
1, 1193402, Control_c, 0, 64, 88
1, 1193417, Control_c, 0, 64, 83
1, 1193432, Control_c, 0, 64, 68
1, 1193447, Control_c, 0, 64, 50
1, 1193453, Note_on_c, 0, 83, 84
1, 1193453, Note_off_c, 0, 81, 62
1, 1193462, Control_c, 0, 64, 33
1, 1193476, Control_c, 0, 64, 34
1, 1193491, Control_c, 0, 64, 42
1, 1193506, Control_c, 0, 64, 53
1, 1193521, Control_c, 0, 64, 59
1, 1193536, Control_c, 0, 64, 62
1, 1193537, Note_on_c, 0, 84, 82
1, 1193541, Note_off_c, 0, 83, 62
1, 1193551, Control_c, 0, 64, 64
1, 1193566, Control_c, 0, 64, 68
1, 1193580, Control_c, 0, 64, 72
1, 1193595, Control_c, 0, 64, 74
1, 1193605, Note_off_c, 0, 84, 64
1, 1193610, Control_c, 0, 64, 76
1, 1193616, Note_off_c, 0, 57, 64
1, 1193624, Note_on_c, 0, 56, 75
1, 1193625, Control_c, 0, 64, 77
1, 1193630, Note_on_c, 0, 83, 91
1, 1193640, Control_c, 0, 64, 77
1, 1193648, Note_off_c, 0, 56, 67
1, 1193652, Note_off_c, 0, 52, 62
1, 1193669, Control_c, 0, 64, 77
1, 1193684, Control_c, 0, 64, 75
1, 1193698, Control_c, 0, 64, 72
1, 1193713, Control_c, 0, 64, 67
1, 1193715, Note_off_c, 0, 83, 54
1, 1193716, Note_on_c, 0, 84, 84
1, 1193728, Control_c, 0, 64, 62
1, 1193743, Control_c, 0, 64, 56
1, 1193758, Control_c, 0, 64, 52
1, 1193766, Note_on_c, 0, 50, 80
1, 1193780, Control_c, 0, 64, 45
1, 1193795, Control_c, 0, 64, 38
1, 1193807, Note_on_c, 0, 86, 89
1, 1193810, Control_c, 0, 64, 0
1, 1193816, Note_off_c, 0, 84, 65
1, 1193830, Note_off_c, 0, 50, 64
1, 1193847, Note_off_c, 0, 86, 67
1, 1193894, Note_on_c, 0, 88, 92
1, 1193925, Note_on_c, 0, 48, 76
1, 1193965, Note_off_c, 0, 48, 64
1, 1193980, Note_on_c, 0, 90, 89
1, 1194009, Note_off_c, 0, 88, 61
1, 1194023, Note_on_c, 0, 47, 71
1, 1194052, Note_off_c, 0, 47, 65
1, 1194064, Note_on_c, 0, 92, 93
1, 1194111, Note_off_c, 0, 90, 60
1, 1194142, Note_on_c, 0, 93, 103
1, 1194156, Note_off_c, 0, 92, 65
1, 1194162, Note_on_c, 0, 45, 95
1, 1194165, Note_on_c, 0, 33, 92
1, 1194181, Note_off_c, 0, 93, 67
1, 1194181, Control_c, 0, 64, 54
1, 1194189, Note_off_c, 0, 45, 67
1, 1194189, Note_off_c, 0, 33, 71
1, 1194196, Control_c, 0, 64, 66
1, 1194210, Control_c, 0, 64, 70
1, 1194225, Control_c, 0, 64, 73
1, 1194240, Control_c, 0, 64, 76
1, 1194255, Control_c, 0, 64, 80
1, 1194270, Control_c, 0, 64, 84
1, 1194284, Control_c, 0, 64, 87
1, 1194299, Control_c, 0, 64, 88
1, 1194314, Control_c, 0, 64, 89
1, 1194329, Control_c, 0, 64, 90
1, 1194344, Control_c, 0, 64, 91
1, 1194347, Note_on_c, 0, 72, 103
1, 1194359, Control_c, 0, 64, 91
1, 1194374, Control_c, 0, 64, 92
1, 1194394, Note_off_c, 0, 72, 66
1, 1194418, Control_c, 0, 64, 92
1, 1194433, Control_c, 0, 64, 93
1, 1194448, Control_c, 0, 64, 94
1, 1194463, Control_c, 0, 64, 97
1, 1194477, Control_c, 0, 64, 100
1, 1194492, Control_c, 0, 64, 97
1, 1194507, Control_c, 0, 64, 76
1, 1194522, Control_c, 0, 64, 49
1, 1194530, Note_on_c, 0, 76, 86
1, 1194540, Note_on_c, 0, 48, 109
1, 1194544, Control_c, 0, 64, 0
1, 1194545, Note_on_c, 0, 36, 93
1, 1194573, Note_off_c, 0, 76, 62
1, 1194675, Note_on_c, 0, 69, 85
1, 1194708, Control_c, 0, 64, 51
1, 1194722, Control_c, 0, 64, 61
1, 1194724, Note_off_c, 0, 69, 63
1, 1194737, Control_c, 0, 64, 64
1, 1194752, Control_c, 0, 64, 66
1, 1194767, Control_c, 0, 64, 67
1, 1194782, Control_c, 0, 64, 67
1, 1194797, Control_c, 0, 64, 68
1, 1194812, Control_c, 0, 64, 69
1, 1194825, Note_on_c, 0, 72, 83
1, 1194827, Control_c, 0, 64, 70
1, 1194842, Control_c, 0, 64, 73
1, 1194842, Note_off_c, 0, 36, 62
1, 1194857, Control_c, 0, 64, 75
1, 1194871, Control_c, 0, 64, 77
1, 1194874, Note_off_c, 0, 48, 58
1, 1194886, Note_off_c, 0, 72, 63
1, 1194886, Control_c, 0, 64, 78
1, 1194901, Control_c, 0, 64, 79
1, 1194916, Control_c, 0, 64, 80
1, 1194931, Control_c, 0, 64, 82
1, 1194946, Control_c, 0, 64, 83
1, 1194952, Note_on_c, 0, 64, 86
1, 1194960, Control_c, 0, 64, 83
1, 1194975, Control_c, 0, 64, 85
1, 1194990, Control_c, 0, 64, 87
1, 1195005, Control_c, 0, 64, 94
1, 1195009, Note_off_c, 0, 64, 65
1, 1195020, Control_c, 0, 64, 98
1, 1195034, Control_c, 0, 64, 95
1, 1195049, Control_c, 0, 64, 75
1, 1195064, Control_c, 0, 64, 48
1, 1195078, Control_c, 0, 64, 0
1, 1195093, Note_on_c, 0, 53, 91
1, 1195096, Note_on_c, 0, 41, 88
1, 1195096, Note_on_c, 0, 69, 84
1, 1195123, Control_c, 0, 64, 48
1, 1195138, Note_off_c, 0, 53, 66
1, 1195138, Control_c, 0, 64, 67
1, 1195141, Note_off_c, 0, 41, 65
1, 1195152, Control_c, 0, 64, 87
1, 1195155, Note_off_c, 0, 69, 63
1, 1195167, Control_c, 0, 64, 127
1, 1195220, Note_on_c, 0, 60, 84
1, 1195247, Note_off_c, 0, 60, 67
1, 1195381, Control_c, 0, 64, 72
1, 1195396, Control_c, 0, 64, 41
1, 1195405, Note_on_c, 0, 52, 102
1, 1195411, Note_on_c, 0, 40, 90
1, 1195411, Control_c, 0, 64, 0
1, 1195415, Note_on_c, 0, 83, 79
1, 1195441, Control_c, 0, 64, 38
1, 1195456, Control_c, 0, 64, 62
1, 1195471, Control_c, 0, 64, 74
1, 1195485, Control_c, 0, 64, 93
1, 1195499, Note_off_c, 0, 83, 57
1, 1195500, Control_c, 0, 64, 127
1, 1195573, Note_on_c, 0, 78, 80
1, 1195585, Note_off_c, 0, 52, 60
1, 1195635, Control_c, 0, 64, 97
1, 1195649, Control_c, 0, 64, 66
1, 1195664, Control_c, 0, 64, 40
1, 1195666, Note_off_c, 0, 78, 56
1, 1195679, Control_c, 0, 64, 0
1, 1195694, Control_c, 0, 64, 45
1, 1195697, Note_on_c, 0, 51, 96
1, 1195700, Note_on_c, 0, 81, 75
1, 1195701, Note_on_c, 0, 39, 85
1, 1195708, Control_c, 0, 64, 65
1, 1195723, Control_c, 0, 64, 101
1, 1195724, Note_off_c, 0, 40, 62
1, 1195738, Control_c, 0, 64, 127
1, 1195746, Note_off_c, 0, 51, 64
1, 1195749, Note_off_c, 0, 81, 65
1, 1195761, Note_off_c, 0, 39, 63
1, 1195816, Note_on_c, 0, 71, 76
1, 1195870, Note_off_c, 0, 71, 52
1, 1195945, Control_c, 0, 64, 103
1, 1195960, Control_c, 0, 64, 69
1, 1195974, Control_c, 0, 64, 34
1, 1195978, Note_on_c, 0, 71, 85
1, 1195985, Note_on_c, 0, 52, 96
1, 1195989, Control_c, 0, 64, 0
1, 1195992, Note_on_c, 0, 40, 85
1, 1196049, Note_off_c, 0, 71, 62
1, 1196121, Note_on_c, 0, 64, 81
1, 1196186, Note_off_c, 0, 64, 64
1, 1196234, Control_c, 0, 64, 38
1, 1196249, Control_c, 0, 64, 57
1, 1196254, Note_on_c, 0, 67, 75
1, 1196264, Control_c, 0, 64, 67
1, 1196278, Control_c, 0, 64, 76
1, 1196293, Control_c, 0, 64, 87
1, 1196308, Control_c, 0, 64, 101
1, 1196312, Note_off_c, 0, 67, 63
1, 1196323, Control_c, 0, 64, 127
1, 1196342, Note_off_c, 0, 52, 55
1, 1196354, Note_off_c, 0, 40, 53
1, 1196429, Poly_aftertouch_c, 0, 59, 127
1, 1196433, Poly_aftertouch_c, 0, 60, 127
1, 1196463, Poly_aftertouch_c, 0, 59, 0
1, 1196468, Poly_aftertouch_c, 0, 60, 0
1, 1196472, Control_c, 0, 64, 101
1, 1196487, Control_c, 0, 64, 66
1, 1196502, Control_c, 0, 64, 0
1, 1196526, Note_on_c, 0, 88, 94
1, 1196527, Note_on_c, 0, 52, 99
1, 1196531, Note_on_c, 0, 40, 85
1, 1196546, Control_c, 0, 64, 39
1, 1196561, Control_c, 0, 64, 64
1, 1196565, Note_on_c, 0, 86, 28
1, 1196565, Note_off_c, 0, 86, 127
1, 1196567, Note_off_c, 0, 40, 64
1, 1196571, Note_off_c, 0, 52, 66
1, 1196576, Control_c, 0, 64, 84
1, 1196591, Control_c, 0, 64, 127
1, 1196596, Note_off_c, 0, 88, 66
1, 1196665, Note_on_c, 0, 79, 78
1, 1196747, Note_off_c, 0, 79, 61
1, 1196820, Control_c, 0, 64, 77
1, 1196835, Control_c, 0, 64, 33
1, 1196845, Note_on_c, 0, 83, 77
1, 1196847, Note_on_c, 0, 55, 100
1, 1196849, Control_c, 0, 64, 0
1, 1196851, Note_on_c, 0, 43, 90
1, 1196874, Note_on_c, 0, 53, 52
1, 1196874, Note_off_c, 0, 53, 127
1, 1196886, Note_off_c, 0, 83, 66
1, 1196894, Control_c, 0, 64, 38
1, 1196909, Control_c, 0, 64, 61
1, 1196923, Control_c, 0, 64, 73
1, 1196938, Control_c, 0, 64, 92
1, 1196953, Control_c, 0, 64, 111
1, 1196968, Control_c, 0, 64, 127
1, 1196981, Note_on_c, 0, 76, 82
1, 1197025, Note_off_c, 0, 76, 65
1, 1197056, Control_c, 0, 64, 105
1, 1197071, Control_c, 0, 64, 68
1, 1197086, Control_c, 0, 64, 38
1, 1197101, Control_c, 0, 64, 0
1, 1197116, Control_c, 0, 64, 35
1, 1197128, Note_on_c, 0, 79, 84
1, 1197131, Control_c, 0, 64, 59
1, 1197146, Control_c, 0, 64, 79
1, 1197161, Control_c, 0, 64, 127
1, 1197173, Note_off_c, 0, 43, 62
1, 1197194, Note_off_c, 0, 79, 64
1, 1197197, Note_off_c, 0, 55, 59
1, 1197253, Note_on_c, 0, 71, 87
1, 1197322, Note_off_c, 0, 71, 61
1, 1197340, Control_c, 0, 64, 105
1, 1197354, Control_c, 0, 64, 66
1, 1197369, Control_c, 0, 64, 0
1, 1197391, Note_on_c, 0, 60, 87
1, 1197395, Note_on_c, 0, 48, 85
1, 1197395, Note_on_c, 0, 76, 88
1, 1197414, Control_c, 0, 64, 47
1, 1197428, Control_c, 0, 64, 66
1, 1197432, Note_off_c, 0, 60, 66
1, 1197436, Note_off_c, 0, 48, 62
1, 1197443, Control_c, 0, 64, 90
1, 1197458, Control_c, 0, 64, 127
1, 1197459, Note_off_c, 0, 76, 64
1, 1197526, Note_on_c, 0, 67, 80
1, 1197547, Note_off_c, 0, 67, 71
1, 1197658, Control_c, 0, 64, 108
1, 1197672, Control_c, 0, 64, 69
1, 1197682, Note_on_c, 0, 59, 97
1, 1197687, Control_c, 0, 64, 40
1, 1197688, Note_on_c, 0, 47, 89
1, 1197696, Note_on_c, 0, 90, 83
1, 1197702, Control_c, 0, 64, 0
1, 1197732, Control_c, 0, 64, 41
1, 1197746, Control_c, 0, 64, 61
1, 1197758, Note_off_c, 0, 90, 61
1, 1197761, Control_c, 0, 64, 76
1, 1197776, Control_c, 0, 64, 95
1, 1197791, Control_c, 0, 64, 127
1, 1197839, Note_on_c, 0, 85, 79
1, 1197844, Note_off_c, 0, 59, 62
1, 1197954, Control_c, 0, 64, 86
1, 1197962, Note_off_c, 0, 47, 56
1, 1197965, Note_on_c, 0, 58, 94
1, 1197967, Note_on_c, 0, 46, 80
1, 1197969, Note_off_c, 0, 85, 58
1, 1197969, Control_c, 0, 64, 55
1, 1197975, Note_on_c, 0, 88, 79
1, 1197984, Control_c, 0, 64, 0
1, 1198004, Note_off_c, 0, 46, 65
1, 1198009, Note_off_c, 0, 58, 64
1, 1198014, Control_c, 0, 64, 45
1, 1198029, Control_c, 0, 64, 64
1, 1198030, Note_off_c, 0, 88, 66
1, 1198043, Control_c, 0, 64, 83
1, 1198058, Control_c, 0, 64, 127
1, 1198094, Note_on_c, 0, 78, 77
1, 1198140, Note_off_c, 0, 78, 61
1, 1198222, Control_c, 0, 64, 90
1, 1198237, Control_c, 0, 64, 58
1, 1198251, Control_c, 0, 64, 0
1, 1198255, Note_on_c, 0, 59, 95
1, 1198259, Note_on_c, 0, 78, 79
1, 1198261, Note_on_c, 0, 47, 84
1, 1198358, Note_off_c, 0, 78, 57
1, 1198397, Note_on_c, 0, 71, 74
1, 1198452, Control_c, 0, 64, 57
1, 1198466, Control_c, 0, 64, 72
1, 1198480, Note_off_c, 0, 71, 63
1, 1198481, Control_c, 0, 64, 101
1, 1198496, Control_c, 0, 64, 127
1, 1198523, Note_on_c, 0, 74, 76
1, 1198526, Note_off_c, 0, 47, 61
1, 1198533, Note_off_c, 0, 59, 61
1, 1198578, Note_off_c, 0, 74, 63
1, 1198635, Note_on_c, 0, 66, 42
1, 1198655, Note_on_c, 0, 62, 88
1, 1198660, Note_on_c, 0, 50, 88
1, 1198666, Note_off_c, 0, 66, 55
1, 1198675, Note_off_c, 0, 62, 71
1, 1198693, Note_off_c, 0, 50, 66
1, 1198744, Note_on_c, 0, 87, 29
1, 1198763, Control_c, 0, 64, 121
1, 1198777, Control_c, 0, 64, 65
1, 1198785, Note_off_c, 0, 87, 41
1, 1198793, Control_c, 0, 64, 0
1, 1198811, Note_on_c, 0, 88, 87
1, 1198816, Note_on_c, 0, 57, 101
1, 1198821, Note_on_c, 0, 45, 99
1, 1198853, Control_c, 0, 64, 50
1, 1198867, Control_c, 0, 64, 68
1, 1198882, Control_c, 0, 64, 96
1, 1198897, Control_c, 0, 64, 127
1, 1198898, Note_off_c, 0, 88, 65
1, 1198957, Note_on_c, 0, 83, 80
1, 1198966, Note_off_c, 0, 57, 59
1, 1199030, Note_off_c, 0, 83, 60
1, 1199068, Control_c, 0, 64, 90
1, 1199082, Control_c, 0, 64, 63
1, 1199097, Control_c, 0, 64, 0
1, 1199103, Note_on_c, 0, 86, 77
1, 1199107, Note_on_c, 0, 56, 96
1, 1199107, Note_on_c, 0, 44, 82
1, 1199126, Control_c, 0, 64, 33
1, 1199132, Note_off_c, 0, 45, 60
1, 1199141, Control_c, 0, 64, 58
1, 1199149, Note_off_c, 0, 86, 65
1, 1199151, Note_off_c, 0, 56, 66
1, 1199156, Control_c, 0, 64, 76
1, 1199158, Note_off_c, 0, 44, 65
1, 1199171, Control_c, 0, 64, 117
1, 1199186, Control_c, 0, 64, 127
1, 1199238, Note_on_c, 0, 76, 69
1, 1199274, Note_off_c, 0, 76, 61
1, 1199364, Control_c, 0, 64, 84
1, 1199379, Control_c, 0, 64, 52
1, 1199393, Control_c, 0, 64, 0
1, 1199400, Note_on_c, 0, 76, 84
1, 1199405, Note_on_c, 0, 57, 96
1, 1199411, Note_on_c, 0, 45, 87
1, 1199461, Note_off_c, 0, 76, 64
1, 1199545, Note_on_c, 0, 69, 80
1, 1199604, Note_off_c, 0, 69, 63
1, 1199616, Control_c, 0, 64, 31
1, 1199631, Control_c, 0, 64, 54
1, 1199646, Control_c, 0, 64, 66
1, 1199661, Control_c, 0, 64, 79
1, 1199675, Control_c, 0, 64, 100
1, 1199681, Note_on_c, 0, 72, 74
1, 1199687, Note_off_c, 0, 57, 60
1, 1199688, Note_off_c, 0, 45, 60
1, 1199690, Control_c, 0, 64, 127
1, 1199712, Note_off_c, 0, 72, 62
1, 1199809, Note_on_c, 0, 60, 93
1, 1199814, Note_on_c, 0, 48, 92
1, 1199832, Note_off_c, 0, 60, 67
1, 1199855, Note_off_c, 0, 48, 61
1, 1199888, Control_c, 0, 64, 73
1, 1199903, Control_c, 0, 64, 36
1, 1199918, Control_c, 0, 64, 0
1, 1199948, Control_c, 0, 64, 47
1, 1199963, Control_c, 0, 64, 69
1, 1199969, Note_on_c, 0, 83, 84
1, 1199970, Note_on_c, 0, 52, 100
1, 1199973, Note_on_c, 0, 40, 94
1, 1199978, Control_c, 0, 64, 104
1, 1199993, Control_c, 0, 64, 127
1, 1200054, Note_off_c, 0, 83, 62
1, 1200097, Note_on_c, 0, 78, 82
1, 1200126, Note_off_c, 0, 52, 60
1, 1200200, Note_off_c, 0, 78, 56
1, 1200200, Control_c, 0, 64, 86
1, 1200215, Control_c, 0, 64, 57
1, 1200229, Control_c, 0, 64, 0
1, 1200237, Note_on_c, 0, 81, 72
1, 1200250, Note_on_c, 0, 51, 97
1, 1200252, Note_on_c, 0, 39, 84
1, 1200273, Control_c, 0, 64, 34
1, 1200277, Note_off_c, 0, 40, 63
1, 1200288, Control_c, 0, 64, 59
1, 1200303, Note_off_c, 0, 51, 65
1, 1200303, Control_c, 0, 64, 73
1, 1200305, Note_off_c, 0, 81, 61
1, 1200315, Note_off_c, 0, 39, 64
1, 1200318, Control_c, 0, 64, 89
1, 1200333, Control_c, 0, 64, 120
1, 1200347, Control_c, 0, 64, 127
1, 1200363, Note_on_c, 0, 71, 74
1, 1200408, Note_off_c, 0, 71, 59
1, 1200549, Note_on_c, 0, 67, 72
1, 1200549, Note_on_c, 0, 71, 80
1, 1200549, Control_c, 0, 64, 69
1, 1200556, Note_on_c, 0, 52, 99
1, 1200560, Note_on_c, 0, 40, 91
1, 1200561, Note_on_c, 0, 64, 59
1, 1200564, Control_c, 0, 64, 0
1, 1200610, Note_off_c, 0, 71, 62
1, 1200626, Note_off_c, 0, 64, 59
1, 1200638, Control_c, 0, 64, 39
1, 1200652, Control_c, 0, 64, 56
1, 1200667, Control_c, 0, 64, 66
1, 1200682, Control_c, 0, 64, 77
1, 1200690, Note_on_c, 0, 59, 80
1, 1200696, Control_c, 0, 64, 99
1, 1200698, Note_off_c, 0, 67, 39
1, 1200711, Control_c, 0, 64, 127
1, 1200758, Note_off_c, 0, 59, 63
1, 1200786, Control_c, 0, 64, 90
1, 1200800, Control_c, 0, 64, 63
1, 1200815, Control_c, 0, 64, 0
1, 1200818, Note_off_c, 0, 52, 60
1, 1200827, Note_on_c, 0, 70, 78
1, 1200830, Control_c, 0, 64, 33
1, 1200833, Note_on_c, 0, 67, 69
1, 1200835, Note_on_c, 0, 64, 70
1, 1200845, Control_c, 0, 64, 56
1, 1200850, Note_off_c, 0, 40, 65
1, 1200860, Control_c, 0, 64, 68
1, 1200875, Control_c, 0, 64, 90
1, 1200889, Control_c, 0, 64, 127
1, 1200896, Note_off_c, 0, 67, 61
1, 1200911, Note_off_c, 0, 70, 60
1, 1200911, Note_off_c, 0, 64, 62
1, 1200959, Note_on_c, 0, 58, 87
1, 1200962, Note_on_c, 0, 48, 98
1, 1200964, Note_on_c, 0, 36, 86
1, 1201000, Note_off_c, 0, 48, 64
1, 1201009, Note_off_c, 0, 36, 62
1, 1201009, Note_off_c, 0, 58, 62
1, 1201067, Control_c, 0, 64, 79
1, 1201082, Control_c, 0, 64, 54
1, 1201096, Control_c, 0, 64, 0
1, 1201106, Note_on_c, 0, 71, 76
1, 1201111, Note_on_c, 0, 47, 88
1, 1201111, Note_on_c, 0, 63, 74
1, 1201115, Note_on_c, 0, 35, 86
1, 1201141, Control_c, 0, 64, 35
1, 1201156, Control_c, 0, 64, 57
1, 1201159, Note_off_c, 0, 47, 65
1, 1201166, Note_off_c, 0, 35, 62
1, 1201170, Control_c, 0, 64, 73
1, 1201179, Note_off_c, 0, 71, 55
1, 1201186, Control_c, 0, 64, 94
1, 1201201, Control_c, 0, 64, 127
1, 1201229, Note_off_c, 0, 63, 56
1, 1201230, Note_on_c, 0, 59, 77
1, 1201256, Note_off_c, 0, 59, 69
1, 1201373, Control_c, 0, 64, 105
1, 1201388, Control_c, 0, 64, 69
1, 1201402, Control_c, 0, 64, 37
1, 1201415, Note_on_c, 0, 45, 76
1, 1201417, Control_c, 0, 64, 0
1, 1201418, Note_on_c, 0, 47, 79
1, 1201419, Note_on_c, 0, 75, 64
1, 1201424, Note_on_c, 0, 72, 55
1, 1201461, Control_c, 0, 64, 37
1, 1201476, Control_c, 0, 64, 63
1, 1201491, Control_c, 0, 64, 86
1, 1201506, Control_c, 0, 64, 127
1, 1201509, Note_off_c, 0, 72, 54
1, 1201524, Note_off_c, 0, 75, 61
1, 1201545, Note_on_c, 0, 71, 77
1, 1201558, Note_off_c, 0, 47, 60
1, 1201561, Note_off_c, 0, 45, 61
1, 1201602, Note_off_c, 0, 71, 61
1, 1201653, Control_c, 0, 64, 82
1, 1201668, Control_c, 0, 64, 51
1, 1201680, Note_on_c, 0, 43, 96
1, 1201681, Note_on_c, 0, 47, 89
1, 1201681, Note_on_c, 0, 76, 90
1, 1201683, Control_c, 0, 64, 0
1, 1201728, Control_c, 0, 64, 51
1, 1201742, Control_c, 0, 64, 86
1, 1201757, Note_off_c, 0, 76, 63
1, 1201757, Control_c, 0, 64, 127
1, 1201808, Note_off_c, 0, 47, 58
1, 1201817, Note_off_c, 0, 43, 58
1, 1201820, Note_on_c, 0, 71, 86
1, 1201895, Note_off_c, 0, 71, 60
1, 1201950, Control_c, 0, 64, 78
1, 1201963, Note_on_c, 0, 42, 91
1, 1201965, Control_c, 0, 64, 46
1, 1201966, Note_on_c, 0, 47, 87
1, 1201966, Note_on_c, 0, 78, 84
1, 1201969, Note_on_c, 0, 75, 85
1, 1201980, Control_c, 0, 64, 0
1, 1202011, Control_c, 0, 64, 31
1, 1202032, Control_c, 0, 64, 59
1, 1202047, Control_c, 0, 64, 83
1, 1202062, Control_c, 0, 64, 127
1, 1202067, Note_off_c, 0, 78, 59
1, 1202068, Note_off_c, 0, 75, 60
1, 1202112, Note_off_c, 0, 42, 61
1, 1202116, Note_on_c, 0, 71, 79
1, 1202136, Note_off_c, 0, 47, 51
1, 1202187, Note_off_c, 0, 71, 60
1, 1202210, Control_c, 0, 64, 117
1, 1202224, Control_c, 0, 64, 67
1, 1202239, Control_c, 0, 64, 0
1, 1202246, Note_on_c, 0, 40, 85
1, 1202258, Note_on_c, 0, 79, 93
1, 1202258, Note_on_c, 0, 76, 98
1, 1202297, Note_off_c, 0, 40, 62
1, 1202313, Control_c, 0, 64, 40
1, 1202318, Note_off_c, 0, 76, 63
1, 1202328, Control_c, 0, 64, 63
1, 1202342, Note_off_c, 0, 79, 66
1, 1202342, Control_c, 0, 64, 80
1, 1202357, Control_c, 0, 64, 127
1, 1202404, Note_on_c, 0, 55, 92
1, 1202444, Note_off_c, 0, 55, 65
1, 1202550, Control_c, 0, 64, 82
1, 1202565, Control_c, 0, 64, 58
1, 1202580, Control_c, 0, 64, 0
1, 1202585, Note_on_c, 0, 79, 93
1, 1202587, Note_on_c, 0, 59, 83
1, 1202589, Note_on_c, 0, 67, 94
1, 1202624, Control_c, 0, 64, 49
1, 1202639, Control_c, 0, 64, 65
1, 1202640, Note_off_c, 0, 59, 64
1, 1202654, Control_c, 0, 64, 79
1, 1202668, Control_c, 0, 64, 111
1, 1202683, Control_c, 0, 64, 127
1, 1202726, Note_on_c, 0, 52, 87
1, 1202728, Control_c, 0, 64, 107
1, 1202742, Control_c, 0, 64, 72
1, 1202765, Control_c, 0, 64, 38
1, 1202780, Note_off_c, 0, 52, 65
1, 1202780, Control_c, 0, 64, 0
1, 1202810, Control_c, 0, 64, 44
1, 1202825, Control_c, 0, 64, 64
1, 1202840, Control_c, 0, 64, 88
1, 1202854, Control_c, 0, 64, 127
1, 1202872, Note_on_c, 0, 55, 83
1, 1202884, Control_c, 0, 64, 87
1, 1202899, Control_c, 0, 64, 66
1, 1202914, Control_c, 0, 64, 50
1, 1202929, Control_c, 0, 64, 55
1, 1202931, Note_off_c, 0, 55, 62
1, 1202944, Control_c, 0, 64, 69
1, 1202959, Control_c, 0, 64, 93
1, 1202973, Control_c, 0, 64, 127
1, 1202987, Note_off_c, 0, 67, 60
1, 1202994, Note_on_c, 0, 47, 81
1, 1203074, Note_off_c, 0, 47, 62
1, 1203074, Note_off_c, 0, 79, 60
1, 1203106, Control_c, 0, 64, 91
1, 1203121, Control_c, 0, 64, 61
1, 1203136, Control_c, 0, 64, 0
1, 1203145, Note_on_c, 0, 52, 73
1, 1203148, Note_on_c, 0, 84, 96
1, 1203158, Note_on_c, 0, 72, 85
1, 1203165, Control_c, 0, 64, 53
1, 1203180, Control_c, 0, 64, 67
1, 1203195, Control_c, 0, 64, 87
1, 1203208, Note_off_c, 0, 52, 60
1, 1203209, Control_c, 0, 64, 127
1, 1203268, Note_on_c, 0, 43, 80
1, 1203283, Note_off_c, 0, 72, 63
1, 1203313, Note_off_c, 0, 84, 57
1, 1203345, Note_off_c, 0, 43, 61
1, 1203417, Control_c, 0, 64, 92
1, 1203432, Control_c, 0, 64, 60
1, 1203435, Note_on_c, 0, 83, 98
1, 1203443, Note_on_c, 0, 71, 97
1, 1203445, Note_on_c, 0, 53, 78
1, 1203447, Control_c, 0, 64, 0
1, 1203477, Control_c, 0, 64, 38
1, 1203491, Control_c, 0, 64, 59
1, 1203513, Control_c, 0, 64, 73
1, 1203528, Control_c, 0, 64, 96
1, 1203543, Control_c, 0, 64, 127
1, 1203582, Note_on_c, 0, 43, 74
1, 1203590, Note_off_c, 0, 53, 55
1, 1203632, Note_off_c, 0, 43, 61
1, 1203653, Note_off_c, 0, 71, 60
1, 1203677, Control_c, 0, 64, 83
1, 1203692, Control_c, 0, 64, 59
1, 1203707, Control_c, 0, 64, 36
1, 1203722, Control_c, 0, 64, 39
1, 1203729, Note_on_c, 0, 54, 83
1, 1203733, Note_on_c, 0, 82, 87
1, 1203737, Control_c, 0, 64, 58
1, 1203740, Note_on_c, 0, 70, 91
1, 1203752, Control_c, 0, 64, 71
1, 1203766, Control_c, 0, 64, 99
1, 1203769, Note_off_c, 0, 83, 62
1, 1203781, Control_c, 0, 64, 127
1, 1203795, Note_off_c, 0, 54, 57
1, 1203798, Note_off_c, 0, 70, 61
1, 1203824, Note_off_c, 0, 82, 60
1, 1203850, Note_on_c, 0, 42, 82
1, 1203892, Note_off_c, 0, 42, 62
1, 1203959, Control_c, 0, 64, 82
1, 1203974, Control_c, 0, 64, 52
1, 1203988, Control_c, 0, 64, 0
1, 1204008, Note_on_c, 0, 51, 91
1, 1204011, Note_on_c, 0, 83, 97
1, 1204017, Note_on_c, 0, 71, 93
1, 1204032, Control_c, 0, 64, 55
1, 1204047, Control_c, 0, 64, 71
1, 1204061, Note_off_c, 0, 51, 63
1, 1204062, Control_c, 0, 64, 102
1, 1204077, Control_c, 0, 64, 127
1, 1204136, Note_on_c, 0, 39, 92
1, 1204181, Control_c, 0, 64, 92
1, 1204185, Note_off_c, 0, 39, 63
1, 1204196, Control_c, 0, 64, 61
1, 1204211, Control_c, 0, 64, 0
1, 1204240, Note_off_c, 0, 83, 67
1, 1204240, Control_c, 0, 64, 44
1, 1204262, Control_c, 0, 64, 64
1, 1204270, Note_off_c, 0, 71, 62
1, 1204277, Control_c, 0, 64, 89
1, 1204285, Note_on_c, 0, 46, 94
1, 1204292, Control_c, 0, 64, 127
1, 1204336, Note_off_c, 0, 46, 64
1, 1204417, Note_on_c, 0, 34, 91
1, 1204440, Note_on_c, 0, 46, 54
1, 1204464, Note_off_c, 0, 46, 59
1, 1204471, Control_c, 0, 64, 74
1, 1204477, Note_off_c, 0, 34, 61
1, 1204486, Control_c, 0, 64, 40
1, 1204501, Control_c, 0, 64, 0
1, 1204563, Note_on_c, 0, 59, 105
1, 1204565, Note_on_c, 0, 47, 89
1, 1204566, Note_on_c, 0, 71, 86
1, 1204575, Control_c, 0, 64, 45
1, 1204577, Note_on_c, 0, 72, 84
1, 1204590, Control_c, 0, 64, 69
1, 1204591, Note_off_c, 0, 72, 44
1, 1204605, Control_c, 0, 64, 87
1, 1204607, Note_off_c, 0, 59, 67
1, 1204610, Note_off_c, 0, 47, 66
1, 1204619, Control_c, 0, 64, 116
1, 1204625, Note_off_c, 0, 71, 64
1, 1204634, Control_c, 0, 64, 127
1, 1204705, Poly_aftertouch_c, 0, 72, 0
1, 1204708, Note_on_c, 0, 50, 78
1, 1204729, Poly_aftertouch_c, 0, 72, 0
1, 1204768, Control_c, 0, 64, 114
1, 1204775, Note_off_c, 0, 50, 61
1, 1204783, Control_c, 0, 64, 106
1, 1204797, Control_c, 0, 64, 96
1, 1204812, Control_c, 0, 64, 85
1, 1204827, Control_c, 0, 64, 70
1, 1204842, Control_c, 0, 64, 52
1, 1204857, Control_c, 0, 64, 0
1, 1204886, Note_on_c, 0, 54, 80
1, 1204893, Note_on_c, 0, 74, 99
1, 1204896, Note_on_c, 0, 62, 97
1, 1204916, Control_c, 0, 64, 42
1, 1204930, Control_c, 0, 64, 62
1, 1204945, Control_c, 0, 64, 76
1, 1204951, Note_off_c, 0, 54, 62
1, 1204960, Control_c, 0, 64, 110
1, 1204975, Control_c, 0, 64, 127
1, 1205027, Note_on_c, 0, 47, 82
1, 1205079, Note_off_c, 0, 47, 63
1, 1205116, Control_c, 0, 64, 105
1, 1205131, Control_c, 0, 64, 73
1, 1205145, Control_c, 0, 64, 53
1, 1205160, Control_c, 0, 64, 38
1, 1205171, Note_on_c, 0, 50, 79
1, 1205175, Control_c, 0, 64, 48
1, 1205191, Control_c, 0, 64, 62
1, 1205206, Control_c, 0, 64, 79
1, 1205221, Control_c, 0, 64, 127
1, 1205229, Note_off_c, 0, 50, 63
1, 1205267, Note_off_c, 0, 62, 59
1, 1205298, Note_on_c, 0, 42, 80
1, 1205338, Note_off_c, 0, 74, 61
1, 1205367, Note_off_c, 0, 42, 62
1, 1205428, Control_c, 0, 64, 77
1, 1205442, Control_c, 0, 64, 47
1, 1205449, Note_on_c, 0, 79, 86
1, 1205450, Note_on_c, 0, 47, 82
1, 1205457, Control_c, 0, 64, 0
1, 1205460, Note_on_c, 0, 67, 85
1, 1205501, Control_c, 0, 64, 36
1, 1205513, Note_off_c, 0, 47, 62
1, 1205516, Control_c, 0, 64, 59
1, 1205517, Note_off_c, 0, 67, 57
1, 1205531, Control_c, 0, 64, 72
1, 1205546, Note_off_c, 0, 79, 62
1, 1205546, Control_c, 0, 64, 89
1, 1205561, Control_c, 0, 64, 127
1, 1205579, Note_on_c, 0, 38, 80
1, 1205656, Note_off_c, 0, 38, 59
1, 1205709, Control_c, 0, 64, 79
1, 1205724, Control_c, 0, 64, 51
1, 1205739, Control_c, 0, 64, 0
1, 1205742, Note_on_c, 0, 48, 88
1, 1205742, Note_on_c, 0, 78, 94
1, 1205745, Note_on_c, 0, 66, 97
1, 1205776, Control_c, 0, 64, 48
1, 1205791, Control_c, 0, 64, 63
1, 1205805, Control_c, 0, 64, 78
1, 1205820, Control_c, 0, 64, 127
1, 1205837, Note_off_c, 0, 48, 58
1, 1205880, Note_on_c, 0, 38, 81
1, 1205935, Note_off_c, 0, 38, 62
1, 1205954, Note_off_c, 0, 66, 61
1, 1205990, Note_off_c, 0, 78, 58
1, 1206013, Control_c, 0, 64, 81
1, 1206028, Control_c, 0, 64, 42
1, 1206029, Note_on_c, 0, 49, 87
1, 1206040, Note_on_c, 0, 65, 86
1, 1206041, Note_on_c, 0, 77, 80
1, 1206042, Control_c, 0, 64, 0
1, 1206083, Note_off_c, 0, 65, 62
1, 1206087, Control_c, 0, 64, 32
1, 1206089, Note_off_c, 0, 49, 61
1, 1206095, Note_off_c, 0, 77, 64
1, 1206102, Control_c, 0, 64, 58
1, 1206116, Control_c, 0, 64, 77
1, 1206131, Control_c, 0, 64, 127
1, 1206160, Note_on_c, 0, 37, 75
1, 1206195, Note_off_c, 0, 37, 64
1, 1206250, Control_c, 0, 64, 99
1, 1206264, Control_c, 0, 64, 65
1, 1206279, Control_c, 0, 64, 0
1, 1206315, Note_on_c, 0, 45, 85
1, 1206324, Note_on_c, 0, 66, 91
1, 1206324, Note_on_c, 0, 78, 89
1, 1206354, Control_c, 0, 64, 51
1, 1206366, Note_off_c, 0, 45, 61
1, 1206369, Control_c, 0, 64, 67
1, 1206383, Control_c, 0, 64, 85
1, 1206398, Control_c, 0, 64, 127
1, 1206427, Control_c, 0, 64, 109
1, 1206442, Control_c, 0, 64, 72
1, 1206443, Note_on_c, 0, 33, 91
1, 1206457, Control_c, 0, 64, 33
1, 1206472, Control_c, 0, 64, 0
1, 1206495, Note_off_c, 0, 33, 63
1, 1206583, Control_c, 0, 64, 52
1, 1206586, Note_on_c, 0, 45, 93
1, 1206598, Control_c, 0, 64, 70
1, 1206613, Control_c, 0, 64, 98
1, 1206628, Control_c, 0, 64, 127
1, 1206632, Note_off_c, 0, 45, 65
1, 1206654, Note_on_c, 0, 75, 2
1, 1206669, Note_off_c, 0, 78, 59
1, 1206707, Note_off_c, 0, 66, 60
1, 1206717, Note_on_c, 0, 47, 100
1, 1206760, Note_off_c, 0, 47, 66
1, 1206781, Note_off_c, 0, 75, 24
1, 1206851, Control_c, 0, 64, 104
1, 1206865, Control_c, 0, 64, 64
1, 1206878, Note_on_c, 0, 48, 91
1, 1206880, Control_c, 0, 64, 0
1, 1206885, Note_on_c, 0, 76, 96
1, 1206892, Note_on_c, 0, 64, 92
1, 1206914, Note_off_c, 0, 48, 66
1, 1206925, Control_c, 0, 64, 33
1, 1206939, Control_c, 0, 64, 60
1, 1206954, Control_c, 0, 64, 71
1, 1206969, Control_c, 0, 64, 88
1, 1206984, Control_c, 0, 64, 113
1, 1206999, Control_c, 0, 64, 127
1, 1207016, Note_on_c, 0, 58, 85
1, 1207038, Note_off_c, 0, 64, 61
1, 1207045, Note_off_c, 0, 58, 64
1, 1207072, Control_c, 0, 64, 96
1, 1207087, Control_c, 0, 64, 69
1, 1207102, Control_c, 0, 64, 47
1, 1207117, Control_c, 0, 64, 0
1, 1207162, Control_c, 0, 64, 44
1, 1207165, Note_on_c, 0, 59, 73
1, 1207168, Note_on_c, 0, 75, 88
1, 1207174, Note_on_c, 0, 63, 87
1, 1207176, Control_c, 0, 64, 60
1, 1207189, Note_off_c, 0, 76, 58
1, 1207191, Control_c, 0, 64, 68
1, 1207206, Control_c, 0, 64, 73
1, 1207212, Note_off_c, 0, 59, 60
1, 1207221, Control_c, 0, 64, 77
1, 1207229, Note_off_c, 0, 63, 61
1, 1207236, Control_c, 0, 64, 81
1, 1207257, Control_c, 0, 64, 85
1, 1207271, Note_off_c, 0, 75, 50
1, 1207272, Control_c, 0, 64, 88
1, 1207287, Control_c, 0, 64, 89
1, 1207307, Note_on_c, 0, 47, 78
1, 1207317, Control_c, 0, 64, 90
1, 1207363, Note_off_c, 0, 47, 62
1, 1207376, Control_c, 0, 64, 89
1, 1207391, Control_c, 0, 64, 82
1, 1207406, Control_c, 0, 64, 68
1, 1207421, Control_c, 0, 64, 45
1, 1207436, Control_c, 0, 64, 0
1, 1207456, Note_on_c, 0, 76, 92
1, 1207459, Note_on_c, 0, 64, 91
1, 1207460, Note_on_c, 0, 43, 77
1, 1207496, Note_off_c, 0, 43, 66
1, 1207593, Note_on_c, 0, 55, 83
1, 1207600, Control_c, 0, 64, 35
1, 1207615, Control_c, 0, 64, 54
1, 1207629, Control_c, 0, 64, 63
1, 1207636, Note_off_c, 0, 55, 62
1, 1207644, Control_c, 0, 64, 66
1, 1207659, Control_c, 0, 64, 68
1, 1207674, Control_c, 0, 64, 69
1, 1207688, Control_c, 0, 64, 71
1, 1207703, Control_c, 0, 64, 72
1, 1207708, Note_off_c, 0, 64, 58
1, 1207718, Control_c, 0, 64, 74
1, 1207731, Note_on_c, 0, 52, 82
1, 1207733, Control_c, 0, 64, 76
1, 1207748, Control_c, 0, 64, 77
1, 1207777, Control_c, 0, 64, 77
1, 1207779, Note_off_c, 0, 52, 64
1, 1207792, Control_c, 0, 64, 78
1, 1207806, Control_c, 0, 64, 78
1, 1207811, Note_off_c, 0, 76, 62
1, 1207854, Note_on_c, 0, 79, 79
1, 1207855, Note_on_c, 0, 48, 85
1, 1207859, Note_on_c, 0, 67, 86
1, 1207872, Note_off_c, 0, 79, 74
1, 1207880, Control_c, 0, 64, 79
1, 1207884, Note_off_c, 0, 48, 68
1, 1207890, Note_off_c, 0, 67, 64
1, 1207925, Control_c, 0, 64, 78
1, 1207940, Control_c, 0, 64, 69
1, 1207955, Control_c, 0, 64, 41
1, 1207970, Control_c, 0, 64, 0
1, 1208011, Note_on_c, 0, 53, 80
1, 1208021, Note_on_c, 0, 71, 105
1, 1208031, Note_on_c, 0, 59, 95
1, 1208036, Control_c, 0, 64, 48
1, 1208051, Control_c, 0, 64, 65
1, 1208066, Control_c, 0, 64, 91
1, 1208069, Note_off_c, 0, 53, 62
1, 1208081, Control_c, 0, 64, 127
1, 1208111, Control_c, 0, 64, 90
1, 1208126, Control_c, 0, 64, 67
1, 1208141, Control_c, 0, 64, 41
1, 1208153, Note_on_c, 0, 43, 76
1, 1208155, Control_c, 0, 64, 0
1, 1208184, Note_off_c, 0, 59, 59
1, 1208208, Note_off_c, 0, 43, 63
1, 1208229, Control_c, 0, 64, 31
1, 1208244, Control_c, 0, 64, 46
1, 1208259, Control_c, 0, 64, 62
1, 1208274, Control_c, 0, 64, 71
1, 1208289, Control_c, 0, 64, 80
1, 1208303, Control_c, 0, 64, 89
1, 1208309, Note_on_c, 0, 54, 82
1, 1208312, Note_on_c, 0, 70, 86
1, 1208315, Note_off_c, 0, 71, 52
1, 1208317, Note_on_c, 0, 58, 84
1, 1208318, Control_c, 0, 64, 98
1, 1208333, Control_c, 0, 64, 114
1, 1208348, Control_c, 0, 64, 127
1, 1208366, Note_off_c, 0, 58, 63
1, 1208369, Note_off_c, 0, 54, 60
1, 1208379, Note_off_c, 0, 70, 60
1, 1208431, Note_on_c, 0, 42, 80
1, 1208468, Note_off_c, 0, 42, 64
1, 1208512, Control_c, 0, 64, 108
1, 1208527, Control_c, 0, 64, 79
1, 1208542, Control_c, 0, 64, 58
1, 1208557, Control_c, 0, 64, 0
1, 1208590, Note_on_c, 0, 51, 89
1, 1208595, Note_on_c, 0, 71, 93
1, 1208600, Note_on_c, 0, 59, 91
1, 1208616, Control_c, 0, 64, 36
1, 1208630, Control_c, 0, 64, 51
1, 1208639, Note_off_c, 0, 51, 62
1, 1208645, Control_c, 0, 64, 63
1, 1208660, Control_c, 0, 64, 71
1, 1208675, Control_c, 0, 64, 86
1, 1208690, Control_c, 0, 64, 112
1, 1208704, Control_c, 0, 64, 127
1, 1208725, Note_on_c, 0, 39, 88
1, 1208771, Control_c, 0, 64, 77
1, 1208781, Note_off_c, 0, 39, 60
1, 1208786, Control_c, 0, 64, 45
1, 1208801, Control_c, 0, 64, 0
1, 1208845, Control_c, 0, 64, 44
1, 1208860, Control_c, 0, 64, 60
1, 1208870, Note_on_c, 0, 52, 85
1, 1208875, Control_c, 0, 64, 70
1, 1208888, Note_off_c, 0, 59, 61
1, 1208890, Control_c, 0, 64, 87
1, 1208894, Note_off_c, 0, 71, 59
1, 1208904, Control_c, 0, 64, 127
1, 1208923, Note_off_c, 0, 52, 63
1, 1209011, Note_on_c, 0, 67, 87
1, 1209013, Note_on_c, 0, 40, 73
1, 1209019, Note_on_c, 0, 55, 78
1, 1209049, Note_off_c, 0, 55, 64
1, 1209055, Note_off_c, 0, 40, 61
1, 1209055, Note_off_c, 0, 67, 62
1, 1209111, Control_c, 0, 64, 86
1, 1209126, Control_c, 0, 64, 61
1, 1209141, Control_c, 0, 64, 0
1, 1209161, Note_on_c, 0, 66, 79
1, 1209165, Note_on_c, 0, 50, 68
1, 1209168, Note_on_c, 0, 54, 70
1, 1209201, Control_c, 0, 64, 44
1, 1209216, Control_c, 0, 64, 62
1, 1209225, Note_off_c, 0, 50, 62
1, 1209231, Control_c, 0, 64, 75
1, 1209246, Control_c, 0, 64, 107
1, 1209260, Note_off_c, 0, 66, 60
1, 1209260, Control_c, 0, 64, 127
1, 1209284, Note_off_c, 0, 54, 60
1, 1209298, Note_on_c, 0, 42, 76
1, 1209337, Note_off_c, 0, 42, 63
1, 1209409, Control_c, 0, 64, 91
1, 1209424, Control_c, 0, 64, 58
1, 1209439, Control_c, 0, 64, 0
1, 1209444, Note_on_c, 0, 64, 91
1, 1209445, Note_on_c, 0, 43, 97
1, 1209448, Note_on_c, 0, 52, 89
1, 1209483, Control_c, 0, 64, 51
1, 1209491, Note_off_c, 0, 43, 63
1, 1209498, Control_c, 0, 64, 73
1, 1209520, Control_c, 0, 64, 127
1, 1209526, Note_off_c, 0, 64, 61
1, 1209549, Note_off_c, 0, 52, 59
1, 1209599, Note_on_c, 0, 47, 67
1, 1209632, Note_off_c, 0, 47, 62
1, 1209698, Control_c, 0, 64, 83
1, 1209713, Control_c, 0, 64, 46
1, 1209727, Control_c, 0, 64, 0
1, 1209744, Note_on_c, 0, 42, 97
1, 1209746, Note_on_c, 0, 62, 86
1, 1209749, Note_on_c, 0, 50, 89
1, 1209772, Control_c, 0, 64, 65
1, 1209786, Control_c, 0, 64, 103
1, 1209794, Note_off_c, 0, 42, 65
1, 1209801, Control_c, 0, 64, 127
1, 1209834, Note_off_c, 0, 50, 59
1, 1209841, Note_off_c, 0, 62, 61
1, 1209874, Note_on_c, 0, 47, 80
1, 1209921, Note_off_c, 0, 47, 62
1, 1209995, Control_c, 0, 64, 77
1, 1210009, Control_c, 0, 64, 35
1, 1210024, Control_c, 0, 64, 0
1, 1210027, Note_on_c, 0, 42, 84
1, 1210033, Note_on_c, 0, 49, 99
1, 1210036, Note_on_c, 0, 61, 94
1, 1210059, Note_off_c, 0, 42, 67
1, 1210069, Control_c, 0, 64, 54
1, 1210079, Note_on_c, 0, 58, 39
1, 1210079, Note_off_c, 0, 58, 127
1, 1210083, Control_c, 0, 64, 85
1, 1210088, Note_off_c, 0, 49, 66
1, 1210098, Control_c, 0, 64, 127
1, 1210137, Note_off_c, 0, 61, 63
1, 1210146, Note_on_c, 0, 46, 84
1, 1210173, Note_off_c, 0, 46, 66
1, 1210269, Control_c, 0, 64, 79
1, 1210283, Control_c, 0, 64, 30
1, 1210298, Control_c, 0, 64, 0
1, 1210328, Note_on_c, 0, 47, 102
1, 1210372, Control_c, 0, 64, 50
1, 1210383, Note_off_c, 0, 47, 65
1, 1210384, Note_on_c, 0, 59, 79
1, 1210387, Control_c, 0, 64, 81
1, 1210402, Control_c, 0, 64, 127
1, 1210451, Note_off_c, 0, 59, 58
1, 1210456, Note_on_c, 0, 61, 83
1, 1210524, Note_off_c, 0, 61, 64
1, 1210525, Note_on_c, 0, 62, 81
1, 1210560, Note_off_c, 0, 62, 58
1, 1210590, Note_on_c, 0, 64, 81
1, 1210644, Note_off_c, 0, 64, 53
1, 1210661, Note_on_c, 0, 66, 85
1, 1210668, Control_c, 0, 64, 99
1, 1210682, Control_c, 0, 64, 82
1, 1210697, Control_c, 0, 64, 67
1, 1210712, Control_c, 0, 64, 41
1, 1210716, Note_on_c, 0, 68, 78
1, 1210727, Control_c, 0, 64, 0
1, 1210729, Note_on_c, 0, 59, 72
1, 1210732, Note_off_c, 0, 66, 62
1, 1210784, Note_off_c, 0, 59, 62
1, 1210787, Note_on_c, 0, 70, 74
1, 1210790, Note_off_c, 0, 68, 67
1, 1210828, Note_off_c, 0, 70, 66
1, 1210845, Note_on_c, 0, 71, 83
1, 1210875, Note_on_c, 0, 67, 99
1, 1210879, Note_on_c, 0, 55, 91
1, 1210906, Note_off_c, 0, 71, 62
1, 1210906, Control_c, 0, 64, 82
1, 1210914, Note_on_c, 0, 73, 77
1, 1210921, Control_c, 0, 64, 127
1, 1210974, Note_on_c, 0, 74, 85
1, 1210977, Note_off_c, 0, 73, 63
1, 1210983, Note_off_c, 0, 67, 59
1, 1211029, Note_off_c, 0, 74, 64
1, 1211058, Note_on_c, 0, 76, 84
1, 1211124, Note_on_c, 0, 78, 88
1, 1211130, Note_on_c, 0, 54, 85
1, 1211130, Note_off_c, 0, 76, 56
1, 1211132, Note_on_c, 0, 66, 97
1, 1211150, Note_off_c, 0, 55, 59
1, 1211171, Note_off_c, 0, 54, 67
1, 1211172, Note_off_c, 0, 66, 66
1, 1211182, Note_on_c, 0, 80, 84
1, 1211202, Note_off_c, 0, 78, 61
1, 1211240, Note_on_c, 0, 82, 80
1, 1211286, Note_off_c, 0, 80, 62
1, 1211306, Note_on_c, 0, 83, 83
1, 1211314, Control_c, 0, 64, 120
1, 1211321, Note_off_c, 0, 82, 59
1, 1211329, Control_c, 0, 64, 100
1, 1211338, Note_off_c, 0, 83, 64
1, 1211344, Control_c, 0, 64, 82
1, 1211358, Control_c, 0, 64, 61
1, 1211373, Control_c, 0, 64, 0
1, 1211417, Note_on_c, 0, 85, 99
1, 1211420, Note_on_c, 0, 65, 101
1, 1211423, Note_on_c, 0, 61, 86
1, 1211424, Note_on_c, 0, 53, 89
1, 1211425, Note_on_c, 0, 56, 78
1, 1211444, Note_off_c, 0, 85, 66
1, 1211477, Control_c, 0, 64, 42
1, 1211492, Control_c, 0, 64, 64
1, 1211506, Control_c, 0, 64, 73
1, 1211521, Control_c, 0, 64, 86
1, 1211536, Control_c, 0, 64, 97
1, 1211550, Control_c, 0, 64, 101
1, 1211556, Note_on_c, 0, 73, 97
1, 1211565, Control_c, 0, 64, 104
1, 1211585, Note_off_c, 0, 65, 61
1, 1211585, Note_off_c, 0, 73, 65
1, 1211626, Note_off_c, 0, 61, 60
1, 1211626, Control_c, 0, 64, 106
1, 1211643, Note_off_c, 0, 53, 64
1, 1211651, Note_off_c, 0, 56, 61
1, 1211655, Control_c, 0, 64, 108
1, 1211706, Note_on_c, 0, 97, 105
1, 1211767, Note_off_c, 0, 97, 64
1, 1211839, Note_on_c, 0, 85, 94
1, 1211857, Note_off_c, 0, 85, 65
1, 1211900, Control_c, 0, 64, 91
1, 1211915, Control_c, 0, 64, 65
1, 1211929, Control_c, 0, 64, 0
1, 1211991, Note_on_c, 0, 43, 101
1, 1211995, Note_on_c, 0, 71, 86
1, 1211998, Note_on_c, 0, 31, 91
1, 1212021, Note_on_c, 0, 39, 58
1, 1212033, Control_c, 0, 64, 52
1, 1212047, Control_c, 0, 64, 94
1, 1212052, Note_off_c, 0, 39, 56
1, 1212062, Note_on_c, 0, 73, 85
1, 1212062, Control_c, 0, 64, 127
1, 1212074, Note_off_c, 0, 71, 60
1, 1212094, Poly_aftertouch_c, 0, 34, 127
1, 1212116, Poly_aftertouch_c, 0, 34, 0
1, 1212130, Note_on_c, 0, 74, 88
1, 1212136, Note_off_c, 0, 43, 62
1, 1212139, Note_off_c, 0, 73, 63
1, 1212171, Note_off_c, 0, 74, 66
1, 1212208, Note_on_c, 0, 76, 82
1, 1212255, Control_c, 0, 64, 100
1, 1212269, Note_off_c, 0, 31, 0
1, 1212270, Control_c, 0, 64, 65
1, 1212273, Note_on_c, 0, 42, 112
1, 1212274, Note_on_c, 0, 30, 93
1, 1212278, Note_on_c, 0, 78, 90
1, 1212285, Control_c, 0, 64, 0
1, 1212286, Note_off_c, 0, 76, 51
1, 1212288, Note_on_c, 0, 31, 45
1, 1212313, Note_off_c, 0, 31, 59
1, 1212315, Control_c, 0, 64, 46
1, 1212329, Note_off_c, 0, 42, 65
1, 1212329, Control_c, 0, 64, 66
1, 1212344, Control_c, 0, 64, 104
1, 1212346, Note_on_c, 0, 80, 89
1, 1212359, Control_c, 0, 64, 127
1, 1212366, Note_off_c, 0, 30, 63
1, 1212382, Note_off_c, 0, 78, 58
1, 1212432, Note_on_c, 0, 81, 84
1, 1212463, Note_off_c, 0, 80, 61
1, 1212485, Note_off_c, 0, 81, 67
1, 1212551, Poly_aftertouch_c, 0, 83, 127
1, 1212560, Control_c, 0, 64, 63
1, 1212569, Poly_aftertouch_c, 0, 83, 0
1, 1212573, Control_c, 0, 64, 0
1, 1212593, Note_on_c, 0, 41, 105
1, 1212599, Note_on_c, 0, 85, 98
1, 1212602, Note_on_c, 0, 29, 95
1, 1212623, Note_on_c, 0, 32, 65
1, 1212632, Control_c, 0, 64, 41
1, 1212633, Note_off_c, 0, 85, 63
1, 1212638, Note_on_c, 0, 86, 39
1, 1212638, Note_off_c, 0, 86, 127
1, 1212647, Control_c, 0, 64, 72
1, 1212662, Control_c, 0, 64, 127
1, 1212669, Note_off_c, 0, 32, 44
1, 1212742, Note_on_c, 0, 73, 94
1, 1212770, Note_off_c, 0, 73, 63
1, 1212894, Note_on_c, 0, 97, 102
1, 1212902, Note_off_c, 0, 29, 63
1, 1212914, Control_c, 0, 64, 79
1, 1212917, Note_off_c, 0, 41, 68
1, 1212929, Control_c, 0, 64, 69
1, 1212943, Control_c, 0, 64, 73
1, 1212944, Note_off_c, 0, 97, 64
1, 1212958, Control_c, 0, 64, 88
1, 1212973, Control_c, 0, 64, 104
1, 1212988, Control_c, 0, 64, 127
1, 1213022, Note_on_c, 0, 85, 87
1, 1213043, Note_off_c, 0, 85, 70
1, 1213135, Control_c, 0, 64, 104
1, 1213150, Control_c, 0, 64, 63
1, 1213165, Control_c, 0, 64, 0
1, 1213208, Note_on_c, 0, 85, 93
1, 1213210, Note_on_c, 0, 73, 99
1, 1213210, Note_on_c, 0, 80, 92
1, 1213216, Note_on_c, 0, 41, 80
1, 1213278, Control_c, 0, 64, 40
1, 1213293, Control_c, 0, 64, 65
1, 1213307, Control_c, 0, 64, 82
1, 1213308, Note_on_c, 0, 44, 81
1, 1213322, Control_c, 0, 64, 127
1, 1213345, Note_off_c, 0, 41, 63
1, 1213388, Note_on_c, 0, 49, 86
1, 1213410, Note_off_c, 0, 44, 64
1, 1213425, Control_c, 0, 64, 106
1, 1213440, Control_c, 0, 64, 73
1, 1213455, Control_c, 0, 64, 52
1, 1213457, Note_off_c, 0, 73, 57
1, 1213463, Note_off_c, 0, 85, 53
1, 1213470, Control_c, 0, 64, 39
1, 1213477, Note_on_c, 0, 53, 84
1, 1213477, Note_off_c, 0, 49, 62
1, 1213484, Note_off_c, 0, 80, 57
1, 1213485, Control_c, 0, 64, 53
1, 1213499, Control_c, 0, 64, 66
1, 1213514, Control_c, 0, 64, 82
1, 1213526, Note_off_c, 0, 53, 65
1, 1213529, Control_c, 0, 64, 127
1, 1213580, Note_on_c, 0, 56, 83
1, 1213616, Note_on_c, 0, 80, 70
1, 1213617, Note_on_c, 0, 73, 84
1, 1213620, Note_off_c, 0, 56, 63
1, 1213621, Note_on_c, 0, 85, 75
1, 1213659, Note_on_c, 0, 61, 82
1, 1213666, Note_off_c, 0, 73, 62
1, 1213678, Note_off_c, 0, 85, 62
1, 1213680, Note_off_c, 0, 80, 60
1, 1213691, Note_off_c, 0, 61, 64
1, 1213737, Control_c, 0, 64, 76
1, 1213751, Control_c, 0, 64, 49
1, 1213761, Note_on_c, 0, 81, 90
1, 1213761, Note_on_c, 0, 78, 89
1, 1213762, Note_on_c, 0, 42, 92
1, 1213766, Control_c, 0, 64, 0
1, 1213796, Control_c, 0, 64, 31
1, 1213811, Control_c, 0, 64, 56
1, 1213825, Note_off_c, 0, 42, 63
1, 1213825, Control_c, 0, 64, 69
1, 1213840, Note_off_c, 0, 81, 62
1, 1213840, Control_c, 0, 64, 86
1, 1213842, Note_on_c, 0, 73, 89
1, 1213849, Note_on_c, 0, 54, 78
1, 1213853, Note_off_c, 0, 78, 56
1, 1213855, Control_c, 0, 64, 127
1, 1213900, Note_off_c, 0, 54, 63
1, 1213925, Note_on_c, 0, 42, 77
1, 1213927, Note_on_c, 0, 81, 82
1, 1213928, Note_off_c, 0, 73, 59
1, 1213931, Note_on_c, 0, 78, 72
1, 1213954, Note_off_c, 0, 42, 65
1, 1213973, Note_off_c, 0, 81, 65
1, 1213982, Note_off_c, 0, 78, 61
1, 1214027, Control_c, 0, 64, 116
1, 1214042, Control_c, 0, 64, 69
1, 1214051, Note_on_c, 0, 35, 91
1, 1214051, Note_on_c, 0, 80, 92
1, 1214051, Note_on_c, 0, 83, 95
1, 1214056, Control_c, 0, 64, 31
1, 1214071, Control_c, 0, 64, 0
1, 1214101, Control_c, 0, 64, 31
1, 1214115, Note_off_c, 0, 35, 60
1, 1214116, Control_c, 0, 64, 52
1, 1214122, Note_off_c, 0, 80, 63
1, 1214131, Control_c, 0, 64, 68
1, 1214131, Note_on_c, 0, 47, 76
1, 1214134, Note_on_c, 0, 74, 88
1, 1214134, Note_off_c, 0, 83, 65
1, 1214146, Control_c, 0, 64, 87
1, 1214161, Control_c, 0, 64, 127
1, 1214192, Note_off_c, 0, 47, 63
1, 1214212, Note_off_c, 0, 74, 57
1, 1214216, Note_on_c, 0, 80, 82
1, 1214224, Note_on_c, 0, 35, 79
1, 1214226, Note_on_c, 0, 83, 81
1, 1214271, Note_off_c, 0, 35, 62
1, 1214277, Note_off_c, 0, 83, 63
1, 1214283, Note_off_c, 0, 80, 61
1, 1214320, Note_on_c, 0, 37, 89
1, 1214320, Note_on_c, 0, 81, 90
1, 1214323, Control_c, 0, 64, 73
1, 1214325, Note_on_c, 0, 78, 87
1, 1214338, Control_c, 0, 64, 42
1, 1214353, Control_c, 0, 64, 0
1, 1214382, Control_c, 0, 64, 41
1, 1214384, Note_off_c, 0, 37, 62
1, 1214384, Note_off_c, 0, 81, 65
1, 1214397, Control_c, 0, 64, 61
1, 1214402, Note_on_c, 0, 49, 79
1, 1214408, Note_off_c, 0, 78, 60
1, 1214410, Note_on_c, 0, 73, 88
1, 1214412, Control_c, 0, 64, 75
1, 1214427, Control_c, 0, 64, 114
1, 1214439, Note_off_c, 0, 49, 63
1, 1214441, Control_c, 0, 64, 127
1, 1214466, Note_off_c, 0, 73, 55
1, 1214484, Note_on_c, 0, 37, 84
1, 1214496, Note_on_c, 0, 81, 75
1, 1214499, Note_on_c, 0, 78, 79
1, 1214554, Note_off_c, 0, 81, 57
1, 1214554, Note_off_c, 0, 37, 61
1, 1214560, Control_c, 0, 64, 77
1, 1214574, Note_on_c, 0, 49, 83
1, 1214575, Control_c, 0, 64, 45
1, 1214585, Note_on_c, 0, 77, 82
1, 1214587, Note_on_c, 0, 80, 81
1, 1214590, Control_c, 0, 64, 0
1, 1214611, Note_off_c, 0, 78, 45
1, 1214629, Note_off_c, 0, 49, 63
1, 1214635, Control_c, 0, 64, 40
1, 1214649, Control_c, 0, 64, 58
1, 1214653, Note_on_c, 0, 37, 82
1, 1214662, Note_off_c, 0, 80, 62
1, 1214664, Note_on_c, 0, 73, 81
1, 1214664, Control_c, 0, 64, 68
1, 1214670, Note_off_c, 0, 77, 65
1, 1214679, Control_c, 0, 64, 79
1, 1214694, Control_c, 0, 64, 99
1, 1214709, Control_c, 0, 64, 110
1, 1214723, Control_c, 0, 64, 118
1, 1214745, Note_off_c, 0, 73, 63
1, 1214745, Control_c, 0, 64, 127
1, 1214746, Note_on_c, 0, 49, 77
1, 1214746, Note_on_c, 0, 80, 77
1, 1214748, Note_on_c, 0, 77, 67
1, 1214769, Note_off_c, 0, 80, 70
1, 1214771, Note_off_c, 0, 77, 71
1, 1214775, Note_off_c, 0, 37, 50
1, 1214779, Note_off_c, 0, 49, 63
1, 1214805, Control_c, 0, 64, 105
1, 1214820, Control_c, 0, 64, 84
1, 1214835, Control_c, 0, 64, 64
1, 1214850, Control_c, 0, 64, 0
1, 1214907, Note_on_c, 0, 50, 95
1, 1214912, Note_on_c, 0, 38, 93
1, 1214983, Note_on_c, 0, 54, 72
1, 1215013, Control_c, 0, 64, 60
1, 1215028, Control_c, 0, 64, 74
1, 1215043, Note_off_c, 0, 54, 62
1, 1215043, Control_c, 0, 64, 100
1, 1215046, Note_on_c, 0, 56, 79
1, 1215058, Control_c, 0, 64, 127
1, 1215102, Note_off_c, 0, 56, 65
1, 1215115, Note_on_c, 0, 57, 79
1, 1215134, Note_off_c, 0, 38, 60
1, 1215148, Note_on_c, 0, 46, 33
1, 1215154, Note_off_c, 0, 50, 63
1, 1215188, Note_off_c, 0, 46, 42
1, 1215191, Note_on_c, 0, 59, 82
1, 1215193, Note_off_c, 0, 57, 60
1, 1215247, Note_off_c, 0, 59, 65
1, 1215250, Note_on_c, 0, 61, 80
1, 1215265, Control_c, 0, 64, 113
1, 1215279, Control_c, 0, 64, 79
1, 1215294, Control_c, 0, 64, 57
1, 1215302, Note_off_c, 0, 61, 65
1, 1215309, Control_c, 0, 64, 0
1, 1215320, Note_on_c, 0, 62, 86
1, 1215393, Note_off_c, 0, 62, 61
1, 1215398, Note_on_c, 0, 64, 76
1, 1215461, Note_on_c, 0, 62, 99
1, 1215462, Note_on_c, 0, 50, 97
1, 1215463, Note_on_c, 0, 66, 81
1, 1215467, Note_off_c, 0, 64, 66
1, 1215494, Control_c, 0, 64, 44
1, 1215509, Control_c, 0, 64, 121
1, 1215523, Control_c, 0, 64, 127
1, 1215550, Note_on_c, 0, 68, 81
1, 1215564, Note_off_c, 0, 66, 63
1, 1215598, Note_off_c, 0, 68, 64
1, 1215604, Note_off_c, 0, 62, 62
1, 1215610, Note_on_c, 0, 69, 83
1, 1215681, Note_off_c, 0, 69, 53
1, 1215687, Note_on_c, 0, 71, 81
1, 1215734, Note_on_c, 0, 49, 91
1, 1215734, Note_on_c, 0, 61, 98
1, 1215752, Note_on_c, 0, 73, 82
1, 1215753, Note_off_c, 0, 50, 61
1, 1215758, Note_off_c, 0, 71, 65
1, 1215769, Note_off_c, 0, 61, 65
1, 1215780, Note_off_c, 0, 49, 65
1, 1215806, Control_c, 0, 64, 107
1, 1215807, Note_on_c, 0, 75, 84
1, 1215821, Note_off_c, 0, 73, 64
1, 1215821, Control_c, 0, 64, 77
1, 1215836, Control_c, 0, 64, 63
1, 1215845, Note_off_c, 0, 75, 62
1, 1215851, Control_c, 0, 64, 51
1, 1215865, Note_on_c, 0, 77, 89
1, 1215866, Control_c, 0, 64, 35
1, 1215881, Control_c, 0, 64, 0
1, 1215939, Note_on_c, 0, 78, 83
1, 1215943, Note_off_c, 0, 77, 63
1, 1216003, Note_on_c, 0, 80, 94
1, 1216010, Note_off_c, 0, 78, 64
1, 1216011, Note_on_c, 0, 60, 105
1, 1216015, Note_on_c, 0, 48, 95
1, 1216015, Note_on_c, 0, 56, 93
1, 1216016, Note_on_c, 0, 51, 82
1, 1216043, Note_off_c, 0, 80, 59
1, 1216045, Note_on_c, 0, 81, 31
1, 1216045, Note_off_c, 0, 81, 127
1, 1216088, Control_c, 0, 64, 55
1, 1216102, Control_c, 0, 64, 60
1, 1216117, Control_c, 0, 64, 62
1, 1216132, Control_c, 0, 64, 63
1, 1216161, Note_on_c, 0, 68, 98
1, 1216161, Control_c, 0, 64, 62
1, 1216176, Control_c, 0, 64, 56
1, 1216191, Control_c, 0, 64, 49
1, 1216197, Note_off_c, 0, 68, 63
1, 1216206, Control_c, 0, 64, 41
1, 1216221, Control_c, 0, 64, 0
1, 1216316, Note_off_c, 0, 60, 65
1, 1216316, Control_c, 0, 64, 35
1, 1216325, Note_on_c, 0, 92, 102
1, 1216331, Control_c, 0, 64, 61
1, 1216346, Control_c, 0, 64, 74
1, 1216347, Note_off_c, 0, 56, 64
1, 1216349, Note_off_c, 0, 48, 64
1, 1216359, Note_off_c, 0, 51, 62
1, 1216361, Control_c, 0, 64, 94
1, 1216364, Note_off_c, 0, 92, 68
1, 1216376, Control_c, 0, 64, 127
1, 1216448, Note_on_c, 0, 80, 85
1, 1216482, Note_off_c, 0, 80, 60
1, 1216584, Control_c, 0, 64, 77
1, 1216599, Control_c, 0, 64, 49
1, 1216608, Note_on_c, 0, 50, 96
1, 1216614, Note_on_c, 0, 38, 95
1, 1216614, Control_c, 0, 64, 0
1, 1216630, Note_on_c, 0, 66, 79
1, 1216643, Control_c, 0, 64, 39
1, 1216658, Control_c, 0, 64, 61
1, 1216673, Control_c, 0, 64, 79
1, 1216688, Control_c, 0, 64, 127
1, 1216694, Note_off_c, 0, 66, 63
1, 1216696, Note_on_c, 0, 68, 81
1, 1216745, Note_off_c, 0, 68, 65
1, 1216757, Note_on_c, 0, 69, 83
1, 1216760, Note_off_c, 0, 50, 60
1, 1216837, Note_off_c, 0, 69, 59
1, 1216837, Note_on_c, 0, 71, 83
1, 1216865, Control_c, 0, 64, 77
1, 1216877, Note_on_c, 0, 37, 91
1, 1216879, Note_on_c, 0, 49, 98
1, 1216880, Control_c, 0, 64, 42
1, 1216895, Control_c, 0, 64, 0
1, 1216896, Note_on_c, 0, 73, 84
1, 1216905, Note_off_c, 0, 71, 64
1, 1216906, Note_off_c, 0, 38, 62
1, 1216923, Note_off_c, 0, 49, 65
1, 1216937, Note_off_c, 0, 37, 64
1, 1216939, Control_c, 0, 64, 47
1, 1216954, Control_c, 0, 64, 65
1, 1216956, Note_on_c, 0, 75, 82
1, 1216963, Note_off_c, 0, 73, 65
1, 1216969, Control_c, 0, 64, 87
1, 1216982, Note_off_c, 0, 75, 63
1, 1216984, Control_c, 0, 64, 127
1, 1217029, Note_on_c, 0, 77, 90
1, 1217100, Note_on_c, 0, 78, 89
1, 1217109, Note_off_c, 0, 77, 59
1, 1217187, Note_on_c, 0, 80, 92
1, 1217189, Note_on_c, 0, 48, 107
1, 1217190, Note_on_c, 0, 44, 93
1, 1217193, Note_off_c, 0, 78, 64
1, 1217196, Note_on_c, 0, 39, 86
1, 1217198, Note_on_c, 0, 36, 87
1, 1217199, Control_c, 0, 64, 92
1, 1217214, Control_c, 0, 64, 60
1, 1217217, Note_on_c, 0, 43, 66
1, 1217218, Note_off_c, 0, 80, 62
1, 1217229, Control_c, 0, 64, 0
1, 1217240, Note_on_c, 0, 81, 12
1, 1217240, Note_off_c, 0, 81, 127
1, 1217247, Note_on_c, 0, 47, 34
1, 1217247, Note_off_c, 0, 47, 127
1, 1217322, Note_off_c, 0, 43, 35
1, 1217362, Note_on_c, 0, 68, 89
1, 1217383, Note_off_c, 0, 68, 67
1, 1217401, Note_on_c, 0, 70, 28
1, 1217401, Note_off_c, 0, 70, 127
1, 1217514, Note_on_c, 0, 92, 87
1, 1217523, Note_on_c, 0, 94, 73
1, 1217538, Note_on_c, 0, 82, 59
1, 1217538, Note_off_c, 0, 82, 127
1, 1217538, Note_off_c, 0, 94, 67
1, 1217540, Control_c, 0, 64, 30
1, 1217555, Control_c, 0, 64, 48
1, 1217564, Note_on_c, 0, 93, 19
1, 1217564, Note_off_c, 0, 92, 65
1, 1217570, Control_c, 0, 64, 59
1, 1217584, Control_c, 0, 64, 65
1, 1217599, Control_c, 0, 64, 70
1, 1217614, Control_c, 0, 64, 84
1, 1217616, Note_off_c, 0, 93, 46
1, 1217629, Control_c, 0, 64, 127
1, 1217650, Note_on_c, 0, 80, 90
1, 1217659, Note_off_c, 0, 36, 60
1, 1217665, Note_off_c, 0, 48, 58
1, 1217681, Note_off_c, 0, 80, 60
1, 1217691, Note_off_c, 0, 44, 59
1, 1217701, Note_off_c, 0, 39, 58
1, 1217848, Note_on_c, 0, 80, 96
1, 1217851, Note_on_c, 0, 68, 104
1, 1217860, Control_c, 0, 64, 69
1, 1217861, Note_on_c, 0, 36, 84
1, 1217869, Note_on_c, 0, 75, 57
1, 1217874, Control_c, 0, 64, 0
1, 1217875, Note_on_c, 0, 81, 59
1, 1217881, Note_on_c, 0, 76, 45
1, 1217902, Note_off_c, 0, 81, 51
1, 1217903, Note_off_c, 0, 75, 0
1, 1217903, Note_on_c, 0, 75, 38
1, 1217913, Note_on_c, 0, 77, 35
1, 1217933, Control_c, 0, 64, 36
1, 1217948, Control_c, 0, 64, 55
1, 1217954, Note_on_c, 0, 39, 81
1, 1217957, Note_off_c, 0, 77, 46
1, 1217964, Control_c, 0, 64, 64
1, 1217979, Control_c, 0, 64, 72
1, 1217988, Note_off_c, 0, 36, 60
1, 1217994, Control_c, 0, 64, 82
1, 1218009, Control_c, 0, 64, 86
1, 1218023, Control_c, 0, 64, 83
1, 1218033, Note_on_c, 0, 44, 75
1, 1218038, Control_c, 0, 64, 72
1, 1218053, Control_c, 0, 64, 58
1, 1218068, Control_c, 0, 64, 47
1, 1218069, Note_off_c, 0, 39, 63
1, 1218083, Control_c, 0, 64, 57
1, 1218095, Note_off_c, 0, 80, 51
1, 1218097, Control_c, 0, 64, 66
1, 1218112, Control_c, 0, 64, 75
1, 1218114, Note_off_c, 0, 68, 53
1, 1218127, Control_c, 0, 64, 95
1, 1218128, Note_on_c, 0, 48, 84
1, 1218131, Note_off_c, 0, 44, 62
1, 1218140, Note_off_c, 0, 75, 55
1, 1218141, Control_c, 0, 64, 127
1, 1218142, Note_off_c, 0, 76, 43
1, 1218179, Note_off_c, 0, 48, 63
1, 1218232, Note_on_c, 0, 51, 79
1, 1218265, Note_on_c, 0, 75, 76
1, 1218270, Note_on_c, 0, 80, 82
1, 1218272, Note_on_c, 0, 68, 86
1, 1218283, Note_off_c, 0, 51, 62
1, 1218320, Note_off_c, 0, 68, 61
1, 1218326, Note_on_c, 0, 56, 77
1, 1218332, Note_off_c, 0, 75, 59
1, 1218336, Note_off_c, 0, 80, 58
1, 1218352, Note_off_c, 0, 56, 68
1, 1218394, Control_c, 0, 64, 96
1, 1218408, Control_c, 0, 64, 63
1, 1218415, Note_on_c, 0, 76, 90
1, 1218416, Note_on_c, 0, 73, 89
1, 1218423, Note_on_c, 0, 37, 91
1, 1218423, Control_c, 0, 64, 0
1, 1218489, Note_off_c, 0, 37, 62
1, 1218489, Control_c, 0, 64, 38
1, 1218504, Control_c, 0, 64, 54
1, 1218507, Note_off_c, 0, 76, 61
1, 1218512, Note_on_c, 0, 68, 81
1, 1218512, Note_off_c, 0, 73, 61
1, 1218515, Note_on_c, 0, 49, 78
1, 1218519, Control_c, 0, 64, 64
1, 1218534, Control_c, 0, 64, 71
1, 1218549, Control_c, 0, 64, 77
1, 1218564, Control_c, 0, 64, 82
1, 1218579, Control_c, 0, 64, 86
1, 1218579, Note_off_c, 0, 49, 59
1, 1218594, Control_c, 0, 64, 89
1, 1218596, Note_on_c, 0, 76, 76
1, 1218597, Note_on_c, 0, 73, 78
1, 1218598, Note_on_c, 0, 37, 76
1, 1218599, Note_off_c, 0, 68, 61
1, 1218608, Control_c, 0, 64, 91
1, 1218623, Control_c, 0, 64, 95
1, 1218637, Note_off_c, 0, 37, 61
1, 1218638, Control_c, 0, 64, 101
1, 1218645, Note_off_c, 0, 76, 63
1, 1218652, Note_off_c, 0, 73, 64
1, 1218653, Control_c, 0, 64, 109
1, 1218683, Control_c, 0, 64, 92
1, 1218697, Control_c, 0, 64, 68
1, 1218708, Note_on_c, 0, 78, 94
1, 1218712, Note_on_c, 0, 75, 87
1, 1218712, Control_c, 0, 64, 40
1, 1218719, Note_on_c, 0, 30, 79
1, 1218727, Control_c, 0, 64, 0
1, 1218772, Control_c, 0, 64, 44
1, 1218775, Note_off_c, 0, 30, 58
1, 1218782, Note_off_c, 0, 78, 61
1, 1218787, Control_c, 0, 64, 59
1, 1218787, Note_off_c, 0, 75, 61
1, 1218790, Note_on_c, 0, 42, 77
1, 1218799, Note_on_c, 0, 69, 80
1, 1218802, Control_c, 0, 64, 69
1, 1218817, Control_c, 0, 64, 82
1, 1218832, Control_c, 0, 64, 100
1, 1218846, Control_c, 0, 64, 127
1, 1218857, Note_off_c, 0, 42, 62
1, 1218865, Note_off_c, 0, 69, 55
1, 1218885, Note_on_c, 0, 78, 77
1, 1218886, Note_on_c, 0, 30, 74
1, 1218886, Note_on_c, 0, 75, 79
1, 1218936, Note_off_c, 0, 30, 62
1, 1218944, Note_off_c, 0, 75, 59
1, 1218945, Note_off_c, 0, 78, 58
1, 1218950, Control_c, 0, 64, 83
1, 1218964, Control_c, 0, 64, 58
1, 1218979, Control_c, 0, 64, 0
1, 1218984, Note_on_c, 0, 76, 78
1, 1218990, Note_on_c, 0, 73, 78
1, 1218992, Note_on_c, 0, 32, 85
1, 1219009, Control_c, 0, 64, 37
1, 1219024, Control_c, 0, 64, 56
1, 1219038, Control_c, 0, 64, 67
1, 1219050, Note_off_c, 0, 76, 66
1, 1219053, Note_off_c, 0, 32, 63
1, 1219053, Control_c, 0, 64, 78
1, 1219067, Note_off_c, 0, 73, 61
1, 1219068, Control_c, 0, 64, 92
1, 1219074, Note_on_c, 0, 68, 86
1, 1219076, Note_on_c, 0, 44, 70
1, 1219083, Control_c, 0, 64, 104
1, 1219098, Control_c, 0, 64, 108
1, 1219120, Note_off_c, 0, 44, 60
1, 1219127, Control_c, 0, 64, 102
1, 1219142, Control_c, 0, 64, 85
1, 1219147, Note_off_c, 0, 68, 54
1, 1219157, Control_c, 0, 64, 66
1, 1219166, Note_on_c, 0, 32, 79
1, 1219169, Note_on_c, 0, 76, 73
1, 1219172, Note_on_c, 0, 73, 71
1, 1219172, Control_c, 0, 64, 37
1, 1219187, Control_c, 0, 64, 0
1, 1219238, Control_c, 0, 64, 29
1, 1219253, Control_c, 0, 64, 35
1, 1219255, Note_off_c, 0, 32, 58
1, 1219263, Note_on_c, 0, 44, 78
1, 1219268, Control_c, 0, 64, 33
1, 1219274, Note_on_c, 0, 75, 76
1, 1219277, Note_on_c, 0, 72, 71
1, 1219283, Control_c, 0, 64, 28
1, 1219312, Control_c, 0, 64, 34
1, 1219324, Note_off_c, 0, 76, 59
1, 1219325, Note_off_c, 0, 44, 63
1, 1219327, Control_c, 0, 64, 44
1, 1219340, Note_off_c, 0, 73, 47
1, 1219342, Control_c, 0, 64, 53
1, 1219354, Note_on_c, 0, 68, 79
1, 1219357, Note_on_c, 0, 32, 84
1, 1219357, Control_c, 0, 64, 59
1, 1219370, Note_off_c, 0, 72, 61
1, 1219372, Control_c, 0, 64, 62
1, 1219380, Note_off_c, 0, 75, 63
1, 1219386, Control_c, 0, 64, 64
1, 1219401, Control_c, 0, 64, 65
1, 1219416, Control_c, 0, 64, 66
1, 1219424, Note_off_c, 0, 32, 57
1, 1219436, Note_on_c, 0, 44, 74
1, 1219446, Control_c, 0, 64, 66
1, 1219452, Note_on_c, 0, 75, 66
1, 1219455, Note_off_c, 0, 68, 60
1, 1219460, Note_on_c, 0, 72, 66
1, 1219461, Control_c, 0, 64, 67
1, 1219476, Control_c, 0, 64, 68
1, 1219490, Control_c, 0, 64, 70
1, 1219501, Note_off_c, 0, 44, 62
1, 1219505, Control_c, 0, 64, 75
1, 1219520, Control_c, 0, 64, 81
1, 1219535, Control_c, 0, 64, 83
1, 1219552, Note_on_c, 0, 37, 80
1, 1219565, Control_c, 0, 64, 80
1, 1219570, Note_on_c, 0, 73, 65
1, 1219571, Note_off_c, 0, 75, 63
1, 1219571, Note_off_c, 0, 72, 61
1, 1219580, Control_c, 0, 64, 74
1, 1219590, Note_off_c, 0, 73, 66
1, 1219595, Control_c, 0, 64, 64
1, 1219610, Control_c, 0, 64, 55
1, 1219625, Control_c, 0, 64, 45
1, 1219625, Control_c, 0, 67, 42
1, 1219633, Note_off_c, 0, 37, 62
1, 1219640, Control_c, 0, 64, 33
1, 1219640, Control_c, 0, 67, 70
1, 1219642, Note_on_c, 0, 36, 70
1, 1219655, Control_c, 0, 64, 0
1, 1219655, Control_c, 0, 67, 92
1, 1219669, Control_c, 0, 67, 106
1, 1219684, Control_c, 0, 67, 115
1, 1219699, Control_c, 0, 67, 121
1, 1219714, Control_c, 0, 67, 123
1, 1219744, Note_off_c, 0, 36, 62
1, 1219750, Note_on_c, 0, 37, 67
1, 1219758, Control_c, 0, 67, 121
1, 1219773, Control_c, 0, 67, 119
1, 1219817, Control_c, 0, 67, 117
1, 1219894, Note_off_c, 0, 37, 53
1, 1219927, Note_on_c, 0, 52, 71
1, 1219930, Note_on_c, 0, 64, 65
1, 1219933, Note_on_c, 0, 40, 48
1, 1220036, Note_off_c, 0, 40, 56
1, 1220069, Note_on_c, 0, 37, 54
1, 1220150, Note_off_c, 0, 37, 61
1, 1220161, Note_on_c, 0, 40, 56
1, 1220194, Control_c, 0, 64, 28
1, 1220209, Control_c, 0, 64, 40
1, 1220224, Control_c, 0, 64, 50
1, 1220239, Control_c, 0, 64, 56
1, 1220246, Note_off_c, 0, 40, 60
1, 1220254, Control_c, 0, 64, 59
1, 1220263, Note_on_c, 0, 37, 63
1, 1220269, Control_c, 0, 64, 61
1, 1220284, Control_c, 0, 64, 63
1, 1220299, Control_c, 0, 64, 64
1, 1220313, Control_c, 0, 64, 65
1, 1220321, Note_off_c, 0, 52, 62
1, 1220328, Control_c, 0, 64, 66
1, 1220340, Note_off_c, 0, 37, 62
1, 1220343, Control_c, 0, 64, 67
1, 1220345, Note_on_c, 0, 36, 62
1, 1220349, Note_off_c, 0, 64, 63
1, 1220358, Control_c, 0, 64, 67
1, 1220373, Control_c, 0, 64, 68
1, 1220373, Control_c, 0, 67, 114
1, 1220388, Control_c, 0, 64, 69
1, 1220403, Control_c, 0, 64, 70
1, 1220427, Note_off_c, 0, 36, 62
1, 1220433, Control_c, 0, 64, 69
1, 1220435, Note_on_c, 0, 37, 64
1, 1220448, Control_c, 0, 64, 65
1, 1220463, Control_c, 0, 64, 58
1, 1220477, Control_c, 0, 64, 52
1, 1220492, Control_c, 0, 67, 112
1, 1220507, Control_c, 0, 64, 54
1, 1220507, Control_c, 0, 67, 110
1, 1220522, Control_c, 0, 64, 55
1, 1220533, Note_off_c, 0, 37, 61
1, 1220536, Control_c, 0, 64, 57
1, 1220544, Note_on_c, 0, 69, 64
1, 1220549, Note_on_c, 0, 57, 59
1, 1220551, Control_c, 0, 64, 58
1, 1220553, Note_on_c, 0, 40, 56
1, 1220566, Control_c, 0, 64, 59
1, 1220581, Control_c, 0, 64, 60
1, 1220596, Control_c, 0, 64, 60
1, 1220596, Control_c, 0, 67, 113
1, 1220610, Control_c, 0, 64, 61
1, 1220625, Control_c, 0, 67, 116
1, 1220627, Note_off_c, 0, 40, 57
1, 1220629, Note_off_c, 0, 69, 55
1, 1220641, Note_off_c, 0, 57, 57
1, 1220655, Control_c, 0, 67, 118
1, 1220656, Note_on_c, 0, 37, 53
1, 1220670, Control_c, 0, 64, 60
1, 1220670, Control_c, 0, 67, 120
1, 1220684, Control_c, 0, 64, 60
1, 1220699, Control_c, 0, 64, 58
1, 1220711, Note_off_c, 0, 37, 63
1, 1220714, Control_c, 0, 64, 55
1, 1220736, Control_c, 0, 64, 50
1, 1220751, Control_c, 0, 64, 44
1, 1220755, Note_on_c, 0, 40, 55
1, 1220766, Control_c, 0, 64, 36
1, 1220781, Control_c, 0, 64, 32
1, 1220796, Control_c, 0, 64, 34
1, 1220810, Control_c, 0, 64, 38
1, 1220825, Control_c, 0, 64, 43
1, 1220840, Control_c, 0, 64, 48
1, 1220841, Note_off_c, 0, 40, 53
1, 1220855, Control_c, 0, 64, 53
1, 1220860, Note_on_c, 0, 68, 58
1, 1220864, Note_on_c, 0, 56, 58
1, 1220870, Control_c, 0, 64, 57
1, 1220870, Control_c, 0, 67, 117
1, 1220876, Note_on_c, 0, 37, 42
1, 1220884, Control_c, 0, 64, 59
1, 1220899, Control_c, 0, 64, 61
1, 1220914, Control_c, 0, 64, 63
1, 1220929, Control_c, 0, 64, 64
1, 1220929, Control_c, 0, 67, 115
1, 1220932, Note_off_c, 0, 37, 61
1, 1220943, Control_c, 0, 64, 64
1, 1220958, Control_c, 0, 64, 61
1, 1220961, Note_on_c, 0, 36, 55
1, 1220973, Control_c, 0, 64, 55
1, 1220973, Control_c, 0, 67, 113
1, 1220988, Control_c, 0, 64, 52
1, 1221003, Control_c, 0, 64, 53
1, 1221017, Control_c, 0, 64, 56
1, 1221017, Control_c, 0, 67, 109
1, 1221032, Control_c, 0, 64, 58
1, 1221034, Note_off_c, 0, 36, 54
1, 1221047, Control_c, 0, 64, 59
1, 1221047, Control_c, 0, 67, 107
1, 1221055, Note_on_c, 0, 37, 54
1, 1221062, Control_c, 0, 64, 61
1, 1221077, Control_c, 0, 64, 63
1, 1221077, Control_c, 0, 67, 104
1, 1221080, Note_off_c, 0, 56, 62
1, 1221091, Control_c, 0, 64, 64
1, 1221106, Control_c, 0, 64, 65
1, 1221106, Control_c, 0, 67, 101
1, 1221121, Control_c, 0, 64, 65
1, 1221136, Control_c, 0, 64, 66
1, 1221136, Control_c, 0, 67, 99
1, 1221142, Note_off_c, 0, 37, 62
1, 1221151, Control_c, 0, 64, 67
1, 1221166, Control_c, 0, 64, 67
1, 1221166, Control_c, 0, 67, 97
1, 1221172, Note_on_c, 0, 40, 50
1, 1221174, Note_on_c, 0, 55, 52
1, 1221175, Note_on_c, 0, 67, 41
1, 1221181, Control_c, 0, 67, 94
1, 1221196, Control_c, 0, 67, 90
1, 1221211, Control_c, 0, 67, 84
1, 1221224, Note_off_c, 0, 67, 63
1, 1221226, Control_c, 0, 64, 65
1, 1221226, Control_c, 0, 67, 78
1, 1221233, Note_off_c, 0, 40, 56
1, 1221235, Note_off_c, 0, 68, 59
1, 1221241, Control_c, 0, 64, 59
1, 1221241, Control_c, 0, 67, 72
1, 1221255, Control_c, 0, 64, 47
1, 1221255, Control_c, 0, 67, 59
1, 1221260, Note_off_c, 0, 55, 61
1, 1221264, Note_on_c, 0, 37, 58
1, 1221270, Control_c, 0, 64, 0
1, 1221270, Control_c, 0, 67, 45
1, 1221285, Control_c, 0, 67, 0
1, 1221315, Note_off_c, 0, 37, 62
1, 1221348, Note_on_c, 0, 40, 55
1, 1221444, Note_off_c, 0, 40, 48
1, 1221474, Note_on_c, 0, 56, 80
1, 1221476, Note_on_c, 0, 68, 73
1, 1221492, Note_on_c, 0, 64, 64
1, 1221495, Note_on_c, 0, 61, 59
1, 1221497, Note_on_c, 0, 37, 67
1, 1221545, Control_c, 0, 64, 34
1, 1221560, Control_c, 0, 64, 60
1, 1221561, Note_off_c, 0, 37, 61
1, 1221574, Control_c, 0, 64, 70
1, 1221580, Note_on_c, 0, 36, 69
1, 1221589, Control_c, 0, 64, 89
1, 1221604, Control_c, 0, 64, 127
1, 1221681, Note_off_c, 0, 36, 60
1, 1221682, Note_on_c, 0, 37, 68
1, 1221766, Note_off_c, 0, 37, 61
1, 1221786, Note_on_c, 0, 40, 62
1, 1221855, Control_c, 0, 64, 104
1, 1221862, Note_off_c, 0, 40, 60
1, 1221870, Control_c, 0, 64, 88
1, 1221871, Note_off_c, 0, 64, 61
1, 1221876, Note_off_c, 0, 56, 59
1, 1221881, Note_on_c, 0, 37, 62
1, 1221884, Control_c, 0, 64, 77
1, 1221891, Note_off_c, 0, 68, 56
1, 1221899, Control_c, 0, 64, 69
1, 1221914, Control_c, 0, 64, 63
1, 1221917, Note_off_c, 0, 61, 37
1, 1221929, Control_c, 0, 64, 57
1, 1221935, Note_off_c, 0, 37, 59
1, 1221944, Control_c, 0, 64, 51
1, 1221960, Control_c, 0, 64, 45
1, 1221975, Control_c, 0, 64, 39
1, 1221976, Note_on_c, 0, 40, 60
1, 1221989, Control_c, 0, 64, 32
1, 1222004, Control_c, 0, 64, 0
1, 1222035, Note_off_c, 0, 40, 54
1, 1222099, Note_on_c, 0, 68, 61
1, 1222101, Note_on_c, 0, 39, 52
1, 1222110, Note_on_c, 0, 56, 56
1, 1222155, Note_off_c, 0, 39, 63
1, 1222168, Control_c, 0, 64, 30
1, 1222182, Control_c, 0, 64, 45
1, 1222194, Note_on_c, 0, 38, 53
1, 1222197, Control_c, 0, 64, 57
1, 1222212, Control_c, 0, 64, 62
1, 1222234, Control_c, 0, 64, 64
1, 1222249, Control_c, 0, 64, 65
1, 1222263, Control_c, 0, 64, 67
1, 1222264, Note_off_c, 0, 38, 56
1, 1222278, Control_c, 0, 64, 69
1, 1222281, Note_off_c, 0, 56, 60
1, 1222293, Control_c, 0, 64, 71
1, 1222298, Note_on_c, 0, 39, 61
1, 1222308, Control_c, 0, 64, 72
1, 1222323, Control_c, 0, 64, 73
1, 1222338, Control_c, 0, 64, 74
1, 1222352, Control_c, 0, 64, 76
1, 1222362, Note_off_c, 0, 68, 51
1, 1222367, Control_c, 0, 64, 77
1, 1222379, Note_off_c, 0, 39, 50
1, 1222410, Note_on_c, 0, 55, 56
1, 1222412, Note_on_c, 0, 67, 51
1, 1222414, Note_on_c, 0, 42, 61
1, 1222442, Control_c, 0, 64, 76
1, 1222452, Note_off_c, 0, 67, 53
1, 1222457, Control_c, 0, 64, 71
1, 1222471, Control_c, 0, 64, 66
1, 1222486, Control_c, 0, 64, 63
1, 1222487, Note_off_c, 0, 55, 50
1, 1222488, Note_off_c, 0, 42, 58
1, 1222501, Control_c, 0, 64, 61
1, 1222515, Control_c, 0, 64, 60
1, 1222516, Note_on_c, 0, 39, 54
1, 1222530, Control_c, 0, 64, 58
1, 1222545, Control_c, 0, 64, 55
1, 1222560, Control_c, 0, 64, 52
1, 1222575, Control_c, 0, 64, 48
1, 1222589, Control_c, 0, 64, 42
1, 1222604, Control_c, 0, 64, 28
1, 1222612, Note_off_c, 0, 39, 61
1, 1222618, Note_on_c, 0, 42, 57
1, 1222619, Control_c, 0, 64, 0
1, 1222707, Note_on_c, 0, 60, 69
1, 1222708, Note_on_c, 0, 68, 76
1, 1222709, Note_on_c, 0, 56, 80
1, 1222710, Note_on_c, 0, 66, 72
1, 1222719, Note_off_c, 0, 42, 60
1, 1222741, Note_on_c, 0, 39, 66
1, 1222800, Note_off_c, 0, 39, 61
1, 1222812, Control_c, 0, 64, 31
1, 1222821, Note_on_c, 0, 38, 69
1, 1222827, Control_c, 0, 64, 43
1, 1222842, Control_c, 0, 64, 50
1, 1222857, Control_c, 0, 64, 57
1, 1222872, Control_c, 0, 64, 60
1, 1222886, Control_c, 0, 64, 61
1, 1222901, Control_c, 0, 64, 61
1, 1222907, Note_off_c, 0, 38, 56
1, 1222916, Control_c, 0, 64, 62
1, 1222922, Note_on_c, 0, 39, 66
1, 1222931, Control_c, 0, 64, 62
1, 1222946, Control_c, 0, 64, 63
1, 1222961, Control_c, 0, 64, 63
1, 1223015, Note_off_c, 0, 39, 63
1, 1223030, Note_on_c, 0, 42, 61
1, 1223099, Note_off_c, 0, 42, 56
1, 1223104, Note_off_c, 0, 56, 58
1, 1223114, Note_off_c, 0, 68, 54
1, 1223116, Note_off_c, 0, 60, 56
1, 1223134, Note_off_c, 0, 66, 59
1, 1223136, Note_on_c, 0, 39, 60
1, 1223145, Control_c, 0, 64, 63
1, 1223160, Control_c, 0, 64, 62
1, 1223160, Control_c, 0, 67, 46
1, 1223175, Note_off_c, 0, 39, 63
1, 1223175, Control_c, 0, 64, 61
1, 1223175, Control_c, 0, 67, 56
1, 1223190, Control_c, 0, 64, 59
1, 1223190, Control_c, 0, 67, 60
1, 1223205, Control_c, 0, 64, 57
1, 1223205, Control_c, 0, 67, 65
1, 1223220, Note_on_c, 0, 42, 58
1, 1223220, Control_c, 0, 64, 54
1, 1223220, Control_c, 0, 67, 67
1, 1223235, Control_c, 0, 64, 52
1, 1223235, Control_c, 0, 67, 68
1, 1223250, Control_c, 0, 64, 50
1, 1223265, Control_c, 0, 64, 46
1, 1223279, Control_c, 0, 64, 43
1, 1223279, Control_c, 0, 67, 67
1, 1223282, Note_off_c, 0, 42, 47
1, 1223294, Control_c, 0, 64, 40
1, 1223294, Control_c, 0, 67, 66
1, 1223309, Control_c, 0, 64, 40
1, 1223309, Control_c, 0, 67, 65
1, 1223324, Control_c, 0, 67, 64
1, 1223332, Note_on_c, 0, 68, 59
1, 1223341, Note_on_c, 0, 56, 52
1, 1223342, Note_on_c, 0, 40, 47
1, 1223353, Control_c, 0, 67, 63
1, 1223368, Control_c, 0, 67, 63
1, 1223383, Control_c, 0, 67, 61
1, 1223398, Control_c, 0, 67, 61
1, 1223405, Note_off_c, 0, 40, 60
1, 1223412, Control_c, 0, 67, 60
1, 1223427, Control_c, 0, 67, 59
1, 1223442, Note_on_c, 0, 39, 55
1, 1223442, Control_c, 0, 67, 58
1, 1223456, Control_c, 0, 67, 57
1, 1223471, Control_c, 0, 67, 56
1, 1223486, Control_c, 0, 67, 55
1, 1223501, Note_off_c, 0, 39, 62
1, 1223501, Control_c, 0, 67, 54
1, 1223506, Note_off_c, 0, 56, 58
1, 1223516, Control_c, 0, 64, 40
1, 1223516, Control_c, 0, 67, 53
1, 1223527, Note_on_c, 0, 40, 57
1, 1223530, Control_c, 0, 67, 52
1, 1223545, Control_c, 0, 64, 41
1, 1223545, Control_c, 0, 67, 52
1, 1223561, Control_c, 0, 67, 50
1, 1223576, Control_c, 0, 67, 49
1, 1223591, Control_c, 0, 67, 48
1, 1223595, Note_off_c, 0, 68, 49
1, 1223606, Control_c, 0, 67, 46
1, 1223621, Control_c, 0, 64, 39
1, 1223621, Control_c, 0, 67, 42
1, 1223628, Note_on_c, 0, 55, 60
1, 1223633, Note_off_c, 0, 40, 60
1, 1223635, Control_c, 0, 64, 33
1, 1223635, Control_c, 0, 67, 38
1, 1223636, Note_on_c, 0, 67, 56
1, 1223650, Control_c, 0, 64, 0
1, 1223650, Control_c, 0, 67, 0
1, 1223656, Note_on_c, 0, 44, 58
1, 1223660, Note_off_c, 0, 55, 63
1, 1223676, Note_off_c, 0, 67, 63
1, 1223718, Note_off_c, 0, 44, 60
1, 1223769, Note_on_c, 0, 40, 43
1, 1223832, Note_off_c, 0, 40, 62
1, 1223852, Note_on_c, 0, 44, 52
1, 1223935, Note_on_c, 0, 68, 77
1, 1223935, Note_on_c, 0, 73, 75
1, 1223938, Note_on_c, 0, 61, 74
1, 1223938, Note_off_c, 0, 44, 62
1, 1223944, Note_on_c, 0, 40, 62
1, 1223984, Control_c, 0, 64, 33
1, 1223999, Control_c, 0, 64, 48
1, 1224014, Control_c, 0, 64, 55
1, 1224025, Note_off_c, 0, 40, 61
1, 1224028, Control_c, 0, 64, 59
1, 1224041, Note_on_c, 0, 39, 67
1, 1224043, Control_c, 0, 64, 60
1, 1224058, Control_c, 0, 64, 61
1, 1224073, Control_c, 0, 64, 62
1, 1224087, Control_c, 0, 64, 62
1, 1224102, Control_c, 0, 64, 63
1, 1224117, Control_c, 0, 64, 63
1, 1224126, Note_off_c, 0, 39, 61
1, 1224132, Control_c, 0, 64, 64
1, 1224137, Note_on_c, 0, 40, 66
1, 1224147, Control_c, 0, 64, 64
1, 1224162, Control_c, 0, 64, 65
1, 1224177, Control_c, 0, 64, 66
1, 1224192, Control_c, 0, 64, 66
1, 1224207, Control_c, 0, 64, 67
1, 1224210, Note_off_c, 0, 73, 60
1, 1224215, Note_off_c, 0, 68, 61
1, 1224220, Note_off_c, 0, 40, 60
1, 1224233, Note_on_c, 0, 44, 61
1, 1224236, Control_c, 0, 64, 67
1, 1224249, Note_off_c, 0, 61, 63
1, 1224251, Control_c, 0, 64, 68
1, 1224280, Control_c, 0, 64, 68
1, 1224295, Control_c, 0, 64, 69
1, 1224308, Note_off_c, 0, 44, 63
1, 1224331, Note_on_c, 0, 40, 57
1, 1224376, Note_off_c, 0, 40, 62
1, 1224417, Note_on_c, 0, 44, 67
1, 1224445, Control_c, 0, 64, 68
1, 1224459, Control_c, 0, 64, 66
1, 1224462, Note_off_c, 0, 44, 55
1, 1224481, Control_c, 0, 64, 59
1, 1224496, Control_c, 0, 64, 39
1, 1224511, Control_c, 0, 64, 0
1, 1224543, Note_on_c, 0, 42, 61
1, 1224546, Note_on_c, 0, 69, 67
1, 1224551, Note_on_c, 0, 57, 62
1, 1224599, Control_c, 0, 64, 29
1, 1224614, Control_c, 0, 64, 46
1, 1224627, Note_off_c, 0, 69, 61
1, 1224629, Note_off_c, 0, 42, 61
1, 1224629, Control_c, 0, 64, 59
1, 1224639, Note_on_c, 0, 41, 66
1, 1224644, Control_c, 0, 64, 64
1, 1224656, Note_off_c, 0, 57, 64
1, 1224658, Control_c, 0, 64, 66
1, 1224673, Control_c, 0, 64, 68
1, 1224688, Control_c, 0, 64, 69
1, 1224702, Control_c, 0, 64, 70
1, 1224717, Control_c, 0, 64, 72
1, 1224732, Control_c, 0, 64, 72
1, 1224740, Note_on_c, 0, 42, 69
1, 1224740, Note_off_c, 0, 41, 63
1, 1224747, Control_c, 0, 64, 73
1, 1224776, Control_c, 0, 64, 72
1, 1224791, Control_c, 0, 64, 67
1, 1224806, Control_c, 0, 64, 55
1, 1224821, Control_c, 0, 64, 28
1, 1224836, Control_c, 0, 64, 0
1, 1224841, Note_on_c, 0, 66, 78
1, 1224847, Note_off_c, 0, 42, 63
1, 1224850, Note_on_c, 0, 45, 69
1, 1224851, Note_on_c, 0, 54, 67
1, 1224925, Control_c, 0, 64, 39
1, 1224929, Note_off_c, 0, 45, 61
1, 1224940, Control_c, 0, 64, 53
1, 1224941, Note_on_c, 0, 42, 67
1, 1224950, Note_off_c, 0, 66, 62
1, 1224955, Control_c, 0, 64, 60
1, 1224961, Note_off_c, 0, 54, 61
1, 1224970, Control_c, 0, 64, 62
1, 1224984, Control_c, 0, 64, 62
1, 1224999, Control_c, 0, 64, 64
1, 1225014, Control_c, 0, 64, 64
1, 1225015, Note_off_c, 0, 42, 62
1, 1225029, Control_c, 0, 64, 65
1, 1225036, Note_on_c, 0, 45, 67
1, 1225044, Control_c, 0, 64, 64
1, 1225058, Control_c, 0, 64, 62
1, 1225073, Control_c, 0, 64, 54
1, 1225079, Note_off_c, 0, 45, 58
1, 1225088, Control_c, 0, 64, 28
1, 1225102, Control_c, 0, 64, 0
1, 1225134, Note_on_c, 0, 63, 68
1, 1225140, Note_on_c, 0, 44, 67
1, 1225142, Note_on_c, 0, 51, 63
1, 1225207, Control_c, 0, 64, 40
1, 1225218, Note_off_c, 0, 51, 62
1, 1225222, Control_c, 0, 64, 53
1, 1225233, Note_off_c, 0, 44, 61
1, 1225239, Note_on_c, 0, 43, 64
1, 1225244, Control_c, 0, 64, 60
1, 1225259, Note_off_c, 0, 63, 63
1, 1225259, Control_c, 0, 64, 62
1, 1225274, Control_c, 0, 64, 63
1, 1225289, Control_c, 0, 64, 65
1, 1225303, Control_c, 0, 64, 66
1, 1225318, Control_c, 0, 64, 68
1, 1225318, Note_off_c, 0, 43, 58
1, 1225332, Control_c, 0, 64, 69
1, 1225345, Note_on_c, 0, 44, 61
1, 1225347, Control_c, 0, 64, 70
1, 1225362, Control_c, 0, 64, 69
1, 1225377, Control_c, 0, 64, 63
1, 1225392, Control_c, 0, 64, 47
1, 1225406, Control_c, 0, 64, 0
1, 1225409, Note_off_c, 0, 44, 62
1, 1225438, Note_on_c, 0, 68, 61
1, 1225441, Note_on_c, 0, 56, 54
1, 1225447, Note_on_c, 0, 48, 59
1, 1225478, Note_off_c, 0, 56, 63
1, 1225480, Control_c, 0, 64, 40
1, 1225495, Control_c, 0, 64, 57
1, 1225506, Note_off_c, 0, 48, 55
1, 1225510, Control_c, 0, 64, 66
1, 1225525, Note_on_c, 0, 44, 61
1, 1225525, Note_off_c, 0, 68, 62
1, 1225525, Control_c, 0, 64, 70
1, 1225539, Control_c, 0, 64, 71
1, 1225554, Control_c, 0, 64, 71
1, 1225570, Note_off_c, 0, 44, 64
1, 1225608, Note_on_c, 0, 48, 65
1, 1225614, Control_c, 0, 64, 71
1, 1225628, Control_c, 0, 64, 69
1, 1225643, Control_c, 0, 64, 67
1, 1225658, Control_c, 0, 64, 65
1, 1225669, Note_off_c, 0, 48, 47
1, 1225673, Control_c, 0, 64, 62
1, 1225688, Control_c, 0, 64, 60
1, 1225703, Control_c, 0, 64, 57
1, 1225718, Control_c, 0, 64, 56
1, 1225719, Note_on_c, 0, 49, 53
1, 1225724, Note_on_c, 0, 73, 53
1, 1225753, Note_off_c, 0, 49, 64
1, 1225765, Note_off_c, 0, 73, 63
1, 1225777, Control_c, 0, 64, 56
1, 1225792, Control_c, 0, 64, 55
1, 1225797, Note_on_c, 0, 72, 55
1, 1225806, Control_c, 0, 64, 54
1, 1225821, Control_c, 0, 67, 51
1, 1225831, Note_off_c, 0, 72, 62
1, 1225836, Control_c, 0, 64, 54
1, 1225836, Control_c, 0, 67, 68
1, 1225850, Control_c, 0, 67, 73
1, 1225865, Control_c, 0, 67, 75
1, 1225872, Note_on_c, 0, 73, 61
1, 1225895, Control_c, 0, 64, 54
1, 1225914, Note_off_c, 0, 73, 55
1, 1225924, Control_c, 0, 64, 55
1, 1225939, Control_c, 0, 64, 56
1, 1225940, Note_on_c, 0, 75, 65
1, 1225955, Control_c, 0, 64, 56
1, 1226007, Note_off_c, 0, 75, 62
1, 1226044, Note_on_c, 0, 76, 57
1, 1226052, Control_c, 0, 67, 75
1, 1226058, Note_on_c, 0, 52, 57
1, 1226067, Control_c, 0, 67, 74
1, 1226076, Note_off_c, 0, 76, 64
1, 1226111, Control_c, 0, 67, 73
1, 1226119, Note_on_c, 0, 78, 64
1, 1226126, Control_c, 0, 64, 57
1, 1226141, Control_c, 0, 64, 57
1, 1226155, Control_c, 0, 64, 58
1, 1226170, Control_c, 0, 64, 59
1, 1226174, Note_off_c, 0, 78, 61
1, 1226185, Control_c, 0, 64, 59
1, 1226195, Note_on_c, 0, 76, 59
1, 1226222, Note_off_c, 0, 76, 67
1, 1226229, Control_c, 0, 64, 60
1, 1226259, Control_c, 0, 67, 73
1, 1226263, Note_on_c, 0, 75, 68
1, 1226274, Control_c, 0, 67, 72
1, 1226288, Control_c, 0, 67, 71
1, 1226303, Control_c, 0, 67, 71
1, 1226312, Note_off_c, 0, 75, 62
1, 1226318, Control_c, 0, 67, 69
1, 1226329, Note_on_c, 0, 73, 66
1, 1226333, Control_c, 0, 64, 59
1, 1226333, Control_c, 0, 67, 68
1, 1226348, Control_c, 0, 64, 59
1, 1226348, Control_c, 0, 67, 67
1, 1226362, Control_c, 0, 64, 58
1, 1226362, Control_c, 0, 67, 66
1, 1226365, Note_off_c, 0, 73, 62
1, 1226377, Control_c, 0, 64, 58
1, 1226377, Control_c, 0, 67, 65
1, 1226392, Control_c, 0, 67, 64
1, 1226395, Note_on_c, 0, 72, 60
1, 1226407, Control_c, 0, 67, 63
1, 1226421, Control_c, 0, 64, 57
1, 1226421, Control_c, 0, 67, 62
1, 1226432, Note_off_c, 0, 72, 58
1, 1226433, Note_off_c, 0, 52, 62
1, 1226436, Control_c, 0, 67, 61
1, 1226451, Control_c, 0, 64, 57
1, 1226451, Control_c, 0, 67, 59
1, 1226466, Note_on_c, 0, 73, 69
1, 1226466, Control_c, 0, 67, 58
1, 1226481, Control_c, 0, 67, 57
1, 1226496, Control_c, 0, 64, 56
1, 1226496, Control_c, 0, 67, 57
1, 1226508, Note_off_c, 0, 73, 59
1, 1226525, Note_on_c, 0, 75, 70
1, 1226541, Control_c, 0, 67, 56
1, 1226555, Control_c, 0, 67, 57
1, 1226570, Control_c, 0, 67, 58
1, 1226572, Note_off_c, 0, 75, 61
1, 1226585, Control_c, 0, 64, 57
1, 1226585, Control_c, 0, 67, 60
1, 1226600, Note_on_c, 0, 76, 70
1, 1226600, Control_c, 0, 67, 62
1, 1226611, Note_on_c, 0, 57, 73
1, 1226615, Control_c, 0, 67, 64
1, 1226629, Control_c, 0, 67, 66
1, 1226632, Note_off_c, 0, 76, 62
1, 1226644, Control_c, 0, 67, 68
1, 1226659, Control_c, 0, 67, 69
1, 1226671, Note_on_c, 0, 78, 68
1, 1226673, Control_c, 0, 67, 70
1, 1226688, Control_c, 0, 67, 71
1, 1226703, Control_c, 0, 67, 71
1, 1226707, Note_off_c, 0, 57, 62
1, 1226731, Note_off_c, 0, 78, 62
1, 1226755, Note_on_c, 0, 76, 65
1, 1226771, Control_c, 0, 67, 71
1, 1226782, Note_off_c, 0, 76, 65
1, 1226821, Note_on_c, 0, 75, 67
1, 1226830, Control_c, 0, 67, 70
1, 1226845, Control_c, 0, 67, 69
1, 1226868, Note_off_c, 0, 75, 61
1, 1226874, Control_c, 0, 67, 69
1, 1226889, Control_c, 0, 67, 68
1, 1226893, Note_on_c, 0, 73, 61
1, 1226903, Control_c, 0, 67, 67
1, 1226918, Control_c, 0, 67, 66
1, 1226920, Note_on_c, 0, 56, 60
1, 1226933, Control_c, 0, 64, 56
1, 1226935, Note_off_c, 0, 73, 64
1, 1226972, Note_on_c, 0, 72, 59
1, 1226992, Control_c, 0, 67, 65
1, 1227009, Note_off_c, 0, 72, 60
1, 1227022, Control_c, 0, 64, 56
1, 1227050, Note_on_c, 0, 73, 61
1, 1227051, Control_c, 0, 67, 65
1, 1227066, Control_c, 0, 67, 64
1, 1227081, Control_c, 0, 67, 64
1, 1227088, Note_off_c, 0, 73, 58
1, 1227096, Control_c, 0, 67, 63
1, 1227110, Control_c, 0, 67, 62
1, 1227113, Note_on_c, 0, 75, 63
1, 1227125, Control_c, 0, 67, 61
1, 1227140, Control_c, 0, 67, 59
1, 1227155, Note_off_c, 0, 75, 61
1, 1227155, Control_c, 0, 67, 57
1, 1227170, Control_c, 0, 64, 55
1, 1227170, Control_c, 0, 67, 53
1, 1227184, Control_c, 0, 67, 50
1, 1227199, Control_c, 0, 67, 48
1, 1227200, Note_on_c, 0, 55, 60
1, 1227202, Note_on_c, 0, 76, 56
1, 1227214, Control_c, 0, 67, 43
1, 1227220, Note_off_c, 0, 56, 63
1, 1227229, Note_off_c, 0, 55, 64
1, 1227229, Control_c, 0, 67, 35
1, 1227230, Note_off_c, 0, 76, 66
1, 1227244, Control_c, 0, 67, 0
1, 1227272, Note_on_c, 0, 78, 61
1, 1227316, Note_off_c, 0, 78, 61
1, 1227341, Note_on_c, 0, 76, 59
1, 1227369, Note_off_c, 0, 76, 66
1, 1227411, Note_on_c, 0, 75, 69
1, 1227451, Control_c, 0, 64, 55
1, 1227457, Note_off_c, 0, 75, 61
1, 1227474, Control_c, 0, 64, 54
1, 1227481, Note_on_c, 0, 73, 70
1, 1227494, Note_on_c, 0, 56, 84
1, 1227500, Note_on_c, 0, 52, 69
1, 1227501, Note_on_c, 0, 49, 65
1, 1227532, Note_off_c, 0, 73, 61
1, 1227549, Control_c, 0, 64, 55
1, 1227553, Note_on_c, 0, 72, 70
1, 1227564, Control_c, 0, 67, 54
1, 1227579, Control_c, 0, 67, 82
1, 1227594, Control_c, 0, 64, 55
1, 1227594, Control_c, 0, 67, 94
1, 1227608, Control_c, 0, 67, 96
1, 1227611, Note_off_c, 0, 72, 58
1, 1227638, Note_on_c, 0, 73, 63
1, 1227674, Note_off_c, 0, 73, 59
1, 1227682, Control_c, 0, 64, 56
1, 1227682, Control_c, 0, 67, 98
1, 1227683, Note_on_c, 0, 75, 69
1, 1227712, Control_c, 0, 67, 101
1, 1227727, Control_c, 0, 64, 56
1, 1227727, Control_c, 0, 67, 104
1, 1227740, Note_off_c, 0, 75, 64
1, 1227742, Control_c, 0, 67, 113
1, 1227757, Control_c, 0, 67, 119
1, 1227769, Note_on_c, 0, 76, 69
1, 1227787, Note_off_c, 0, 52, 62
1, 1227793, Note_off_c, 0, 49, 63
1, 1227800, Note_off_c, 0, 76, 63
1, 1227822, Note_off_c, 0, 56, 62
1, 1227837, Note_on_c, 0, 78, 68
1, 1227891, Note_off_c, 0, 78, 62
1, 1227909, Note_on_c, 0, 76, 60
1, 1227941, Note_off_c, 0, 76, 59
1, 1227969, Note_on_c, 0, 73, 61
1, 1228031, Note_off_c, 0, 73, 56
1, 1228049, Note_on_c, 0, 75, 64
1, 1228071, Note_on_c, 0, 56, 61
1, 1228097, Control_c, 0, 64, 56
1, 1228105, Note_off_c, 0, 75, 64
1, 1228129, Note_on_c, 0, 74, 68
1, 1228166, Note_off_c, 0, 74, 60
1, 1228214, Note_on_c, 0, 75, 57
1, 1228216, Control_c, 0, 67, 117
1, 1228248, Note_off_c, 0, 75, 64
1, 1228267, Control_c, 0, 67, 114
1, 1228280, Note_on_c, 0, 76, 68
1, 1228282, Control_c, 0, 64, 56
1, 1228297, Control_c, 0, 67, 112
1, 1228308, Note_off_c, 0, 76, 65
1, 1228312, Control_c, 0, 67, 109
1, 1228326, Control_c, 0, 67, 105
1, 1228341, Control_c, 0, 67, 100
1, 1228347, Note_on_c, 0, 55, 58
1, 1228353, Note_on_c, 0, 78, 65
1, 1228357, Control_c, 0, 67, 93
1, 1228368, Note_off_c, 0, 56, 63
1, 1228372, Control_c, 0, 64, 56
1, 1228372, Control_c, 0, 67, 79
1, 1228377, Note_off_c, 0, 55, 64
1, 1228387, Control_c, 0, 67, 47
1, 1228392, Note_off_c, 0, 78, 61
1, 1228402, Control_c, 0, 67, 0
1, 1228419, Note_on_c, 0, 80, 62
1, 1228446, Control_c, 0, 64, 55
1, 1228481, Note_off_c, 0, 80, 62
1, 1228490, Note_on_c, 0, 78, 64
1, 1228527, Note_off_c, 0, 78, 63
1, 1228552, Note_on_c, 0, 76, 69
1, 1228581, Note_off_c, 0, 76, 64
1, 1228609, Control_c, 0, 64, 55
1, 1228625, Note_on_c, 0, 75, 75
1, 1228635, Note_on_c, 0, 56, 85
1, 1228641, Note_on_c, 0, 54, 68
1, 1228642, Note_on_c, 0, 48, 70
1, 1228668, Control_c, 0, 64, 55
1, 1228672, Note_off_c, 0, 75, 64
1, 1228683, Control_c, 0, 67, 38
1, 1228693, Note_on_c, 0, 74, 74
1, 1228698, Control_c, 0, 67, 72
1, 1228713, Control_c, 0, 67, 98
1, 1228728, Control_c, 0, 67, 109
1, 1228737, Note_off_c, 0, 74, 61
1, 1228767, Note_on_c, 0, 75, 77
1, 1228787, Control_c, 0, 67, 112
1, 1228809, Note_off_c, 0, 75, 60
1, 1228836, Note_on_c, 0, 76, 76
1, 1228846, Control_c, 0, 67, 117
1, 1228861, Control_c, 0, 67, 127
1, 1228872, Note_off_c, 0, 76, 61
1, 1228908, Note_on_c, 0, 78, 71
1, 1228949, Control_c, 0, 64, 56
1, 1228952, Note_off_c, 0, 48, 59
1, 1228952, Note_off_c, 0, 54, 62
1, 1228957, Note_off_c, 0, 78, 60
1, 1228979, Note_off_c, 0, 56, 61
1, 1228992, Note_on_c, 0, 80, 64
1, 1229050, Note_on_c, 0, 78, 69
1, 1229058, Note_off_c, 0, 80, 60
1, 1229108, Note_off_c, 0, 78, 62
1, 1229131, Note_on_c, 0, 75, 65
1, 1229168, Note_off_c, 0, 75, 57
1, 1229206, Note_on_c, 0, 76, 68
1, 1229227, Note_on_c, 0, 56, 64
1, 1229257, Note_off_c, 0, 76, 59
1, 1229282, Note_on_c, 0, 75, 69
1, 1229335, Note_off_c, 0, 75, 63
1, 1229363, Note_on_c, 0, 76, 65
1, 1229393, Note_off_c, 0, 76, 64
1, 1229436, Note_on_c, 0, 78, 64
1, 1229447, Control_c, 0, 64, 56
1, 1229462, Control_c, 0, 67, 113
1, 1229477, Control_c, 0, 67, 76
1, 1229477, Note_off_c, 0, 78, 57
1, 1229491, Control_c, 0, 64, 56
1, 1229491, Control_c, 0, 67, 0
1, 1229495, Note_on_c, 0, 80, 68
1, 1229506, Control_c, 0, 64, 55
1, 1229510, Note_on_c, 0, 55, 63
1, 1229524, Note_off_c, 0, 56, 60
1, 1229536, Control_c, 0, 64, 55
1, 1229541, Note_off_c, 0, 55, 63
1, 1229546, Note_off_c, 0, 80, 63
1, 1229557, Note_on_c, 0, 81, 71
1, 1229620, Note_off_c, 0, 81, 62
1, 1229632, Note_on_c, 0, 80, 70
1, 1229639, Control_c, 0, 64, 55
1, 1229669, Control_c, 0, 64, 56
1, 1229694, Note_off_c, 0, 80, 61
1, 1229695, Note_on_c, 0, 78, 70
1, 1229698, Control_c, 0, 64, 56
1, 1229751, Control_c, 0, 64, 56
1, 1229755, Note_off_c, 0, 78, 62
1, 1229778, Note_on_c, 0, 76, 73
1, 1229792, Note_on_c, 0, 61, 87
1, 1229794, Note_on_c, 0, 56, 75
1, 1229798, Note_on_c, 0, 52, 69
1, 1229843, Note_off_c, 0, 76, 57
1, 1229852, Note_on_c, 0, 75, 78
1, 1229869, Control_c, 0, 67, 34
1, 1229884, Control_c, 0, 67, 55
1, 1229898, Control_c, 0, 67, 67
1, 1229902, Note_off_c, 0, 75, 64
1, 1229913, Control_c, 0, 67, 69
1, 1229924, Note_on_c, 0, 76, 75
1, 1229928, Control_c, 0, 67, 70
1, 1229943, Control_c, 0, 67, 72
1, 1229959, Control_c, 0, 67, 74
1, 1229974, Control_c, 0, 67, 82
1, 1229987, Note_off_c, 0, 76, 55
1, 1229989, Control_c, 0, 67, 91
1, 1230001, Note_on_c, 0, 78, 72
1, 1230003, Control_c, 0, 67, 99
1, 1230018, Control_c, 0, 67, 113
1, 1230033, Control_c, 0, 67, 123
1, 1230048, Control_c, 0, 67, 126
1, 1230071, Note_on_c, 0, 80, 77
1, 1230076, Note_off_c, 0, 78, 61
1, 1230109, Note_off_c, 0, 61, 62
1, 1230128, Note_off_c, 0, 80, 65
1, 1230136, Note_off_c, 0, 52, 61
1, 1230139, Note_off_c, 0, 56, 62
1, 1230145, Note_on_c, 0, 81, 70
1, 1230207, Note_off_c, 0, 81, 65
1, 1230210, Control_c, 0, 64, 55
1, 1230213, Note_on_c, 0, 80, 71
1, 1230225, Control_c, 0, 64, 55
1, 1230240, Control_c, 0, 64, 54
1, 1230255, Control_c, 0, 64, 52
1, 1230265, Note_off_c, 0, 80, 64
1, 1230270, Control_c, 0, 64, 49
1, 1230285, Control_c, 0, 64, 42
1, 1230290, Note_on_c, 0, 76, 67
1, 1230300, Control_c, 0, 64, 31
1, 1230314, Control_c, 0, 64, 0
1, 1230333, Note_off_c, 0, 76, 57
1, 1230370, Note_on_c, 0, 78, 71
1, 1230374, Control_c, 0, 64, 30
1, 1230385, Note_on_c, 0, 57, 49
1, 1230388, Control_c, 0, 64, 38
1, 1230403, Control_c, 0, 64, 49
1, 1230418, Control_c, 0, 64, 58
1, 1230425, Note_off_c, 0, 78, 61
1, 1230433, Control_c, 0, 64, 62
1, 1230447, Control_c, 0, 64, 64
1, 1230451, Note_on_c, 0, 77, 68
1, 1230469, Control_c, 0, 64, 65
1, 1230484, Control_c, 0, 64, 67
1, 1230499, Control_c, 0, 64, 69
1, 1230514, Control_c, 0, 64, 72
1, 1230518, Note_off_c, 0, 77, 57
1, 1230529, Control_c, 0, 64, 74
1, 1230534, Note_on_c, 0, 78, 71
1, 1230544, Control_c, 0, 64, 76
1, 1230559, Control_c, 0, 64, 79
1, 1230574, Control_c, 0, 64, 82
1, 1230589, Control_c, 0, 64, 84
1, 1230592, Note_on_c, 0, 80, 77
1, 1230604, Control_c, 0, 64, 87
1, 1230613, Note_off_c, 0, 78, 58
1, 1230618, Control_c, 0, 64, 89
1, 1230633, Control_c, 0, 64, 90
1, 1230648, Control_c, 0, 64, 92
1, 1230663, Control_c, 0, 64, 93
1, 1230675, Note_on_c, 0, 81, 81
1, 1230678, Control_c, 0, 64, 94
1, 1230686, Note_on_c, 0, 54, 63
1, 1230691, Note_off_c, 0, 80, 59
1, 1230693, Control_c, 0, 64, 95
1, 1230737, Control_c, 0, 64, 98
1, 1230753, Note_off_c, 0, 81, 65
1, 1230759, Note_on_c, 0, 83, 77
1, 1230794, Note_off_c, 0, 57, 55
1, 1230824, Note_on_c, 0, 81, 77
1, 1230833, Note_off_c, 0, 83, 63
1, 1230890, Note_on_c, 0, 80, 75
1, 1230910, Note_off_c, 0, 81, 63
1, 1230931, Control_c, 0, 64, 86
1, 1230945, Control_c, 0, 64, 72
1, 1230960, Control_c, 0, 64, 61
1, 1230965, Note_on_c, 0, 78, 72
1, 1230967, Note_off_c, 0, 80, 65
1, 1230975, Control_c, 0, 64, 53
1, 1230977, Note_off_c, 0, 54, 59
1, 1230981, Note_on_c, 0, 51, 69
1, 1230990, Control_c, 0, 64, 55
1, 1231005, Control_c, 0, 64, 61
1, 1231019, Control_c, 0, 64, 65
1, 1231034, Control_c, 0, 64, 71
1, 1231039, Note_off_c, 0, 78, 62
1, 1231049, Control_c, 0, 64, 80
1, 1231054, Note_on_c, 0, 80, 78
1, 1231063, Control_c, 0, 64, 90
1, 1231078, Control_c, 0, 64, 100
1, 1231093, Control_c, 0, 64, 111
1, 1231108, Control_c, 0, 64, 127
1, 1231128, Note_on_c, 0, 78, 74
1, 1231128, Note_off_c, 0, 80, 60
1, 1231182, Note_off_c, 0, 78, 61
1, 1231191, Note_on_c, 0, 76, 72
1, 1231234, Control_c, 0, 64, 94
1, 1231249, Note_off_c, 0, 76, 64
1, 1231249, Control_c, 0, 64, 71
1, 1231256, Note_off_c, 0, 51, 53
1, 1231259, Note_on_c, 0, 55, 77
1, 1231264, Control_c, 0, 64, 55
1, 1231278, Control_c, 0, 64, 43
1, 1231278, Control_c, 0, 67, 124
1, 1231280, Note_on_c, 0, 75, 73
1, 1231292, Control_c, 0, 64, 45
1, 1231307, Control_c, 0, 64, 53
1, 1231307, Control_c, 0, 67, 122
1, 1231322, Control_c, 0, 64, 60
1, 1231337, Control_c, 0, 64, 66
1, 1231340, Note_off_c, 0, 75, 62
1, 1231352, Control_c, 0, 64, 73
1, 1231354, Note_on_c, 0, 76, 80
1, 1231367, Control_c, 0, 64, 82
1, 1231382, Control_c, 0, 64, 90
1, 1231382, Control_c, 0, 67, 120
1, 1231396, Control_c, 0, 64, 96
1, 1231405, Note_off_c, 0, 55, 59
1, 1231411, Control_c, 0, 64, 102
1, 1231426, Control_c, 0, 64, 111
1, 1231430, Note_on_c, 0, 75, 74
1, 1231441, Control_c, 0, 64, 127
1, 1231441, Note_off_c, 0, 76, 61
1, 1231470, Control_c, 0, 67, 118
1, 1231495, Note_off_c, 0, 75, 60
1, 1231498, Note_on_c, 0, 73, 70
1, 1231530, Control_c, 0, 67, 116
1, 1231546, Control_c, 0, 64, 95
1, 1231546, Control_c, 0, 67, 113
1, 1231560, Control_c, 0, 64, 73
1, 1231560, Control_c, 0, 67, 110
1, 1231566, Note_off_c, 0, 73, 62
1, 1231569, Note_on_c, 0, 56, 82
1, 1231571, Note_on_c, 0, 72, 74
1, 1231575, Control_c, 0, 64, 61
1, 1231575, Control_c, 0, 67, 105
1, 1231590, Control_c, 0, 64, 60
1, 1231590, Control_c, 0, 67, 97
1, 1231605, Control_c, 0, 64, 65
1, 1231605, Control_c, 0, 67, 75
1, 1231618, Note_off_c, 0, 72, 59
1, 1231620, Control_c, 0, 64, 71
1, 1231620, Control_c, 0, 67, 0
1, 1231635, Control_c, 0, 64, 80
1, 1231645, Note_on_c, 0, 75, 72
1, 1231649, Control_c, 0, 64, 95
1, 1231664, Control_c, 0, 64, 127
1, 1231706, Note_off_c, 0, 75, 63
1, 1231706, Note_on_c, 0, 72, 74
1, 1231733, Note_off_c, 0, 56, 59
1, 1231751, Note_off_c, 0, 72, 62
1, 1231777, Note_on_c, 0, 69, 75
1, 1231814, Note_off_c, 0, 69, 59
1, 1231852, Note_on_c, 0, 54, 75
1, 1231852, Note_on_c, 0, 56, 82
1, 1231853, Note_on_c, 0, 68, 77
1, 1231856, Control_c, 0, 64, 77
1, 1231871, Control_c, 0, 64, 59
1, 1231886, Control_c, 0, 64, 52
1, 1231900, Control_c, 0, 64, 59
1, 1231915, Control_c, 0, 64, 65
1, 1231924, Note_off_c, 0, 68, 64
1, 1231925, Note_on_c, 0, 69, 78
1, 1231930, Control_c, 0, 64, 79
1, 1231945, Control_c, 0, 64, 127
1, 1232005, Note_on_c, 0, 68, 82
1, 1232019, Note_off_c, 0, 54, 58
1, 1232034, Note_off_c, 0, 56, 56
1, 1232034, Note_off_c, 0, 69, 61
1, 1232072, Note_on_c, 0, 66, 84
1, 1232090, Note_off_c, 0, 68, 59
1, 1232142, Note_on_c, 0, 64, 81
1, 1232145, Control_c, 0, 64, 76
1, 1232148, Note_on_c, 0, 52, 83
1, 1232150, Note_on_c, 0, 56, 92
1, 1232157, Note_off_c, 0, 66, 62
1, 1232160, Control_c, 0, 64, 48
1, 1232174, Control_c, 0, 64, 0
1, 1232204, Control_c, 0, 64, 42
1, 1232206, Note_on_c, 0, 68, 72
1, 1232212, Note_off_c, 0, 64, 65
1, 1232219, Control_c, 0, 64, 63
1, 1232234, Control_c, 0, 64, 88
1, 1232249, Control_c, 0, 64, 127
1, 1232280, Note_on_c, 0, 66, 83
1, 1232282, Note_off_c, 0, 56, 60
1, 1232297, Note_off_c, 0, 52, 59
1, 1232307, Note_off_c, 0, 68, 61
1, 1232350, Note_off_c, 0, 66, 65
1, 1232356, Note_on_c, 0, 64, 83
1, 1232428, Control_c, 0, 64, 87
1, 1232436, Note_on_c, 0, 56, 89
1, 1232437, Note_on_c, 0, 63, 85
1, 1232438, Note_on_c, 0, 51, 83
1, 1232443, Control_c, 0, 64, 52
1, 1232451, Note_off_c, 0, 64, 57
1, 1232458, Control_c, 0, 64, 0
1, 1232502, Note_off_c, 0, 63, 64
1, 1232502, Control_c, 0, 64, 35
1, 1232503, Note_on_c, 0, 66, 72
1, 1232516, Control_c, 0, 64, 58
1, 1232531, Control_c, 0, 64, 70
1, 1232546, Control_c, 0, 64, 93
1, 1232561, Control_c, 0, 64, 127
1, 1232580, Note_on_c, 0, 64, 79
1, 1232595, Note_off_c, 0, 66, 63
1, 1232599, Note_off_c, 0, 51, 58
1, 1232617, Note_off_c, 0, 56, 56
1, 1232657, Note_off_c, 0, 64, 66
1, 1232668, Note_on_c, 0, 63, 80
1, 1232783, Note_off_c, 0, 63, 59
1, 1232798, Note_on_c, 0, 61, 83
1, 1232805, Control_c, 0, 64, 95
1, 1232820, Control_c, 0, 64, 70
1, 1232823, Note_on_c, 0, 49, 54
1, 1232835, Control_c, 0, 64, 45
1, 1232849, Control_c, 0, 64, 0
1, 1232938, Control_c, 0, 64, 34
1, 1232953, Control_c, 0, 64, 65
1, 1232958, Note_on_c, 0, 52, 58
1, 1232968, Control_c, 0, 64, 85
1, 1232979, Note_off_c, 0, 49, 58
1, 1232983, Control_c, 0, 64, 127
1, 1233037, Note_off_c, 0, 61, 59
1, 1233055, Note_off_c, 0, 52, 60
1, 1233060, Note_on_c, 0, 56, 56
1, 1233167, Note_off_c, 0, 56, 57
1, 1233172, Note_on_c, 0, 64, 70
1, 1233190, Note_on_c, 0, 49, 48
1, 1233248, Note_off_c, 0, 64, 60
1, 1233266, Note_off_c, 0, 49, 60
1, 1233277, Note_on_c, 0, 52, 55
1, 1233330, Note_on_c, 0, 68, 77
1, 1233350, Note_off_c, 0, 52, 59
1, 1233364, Note_on_c, 0, 56, 63
1, 1233423, Note_off_c, 0, 68, 52
1, 1233438, Note_off_c, 0, 56, 59
1, 1233451, Note_on_c, 0, 49, 67
1, 1233452, Note_on_c, 0, 73, 82
1, 1233516, Note_off_c, 0, 73, 64
1, 1233544, Note_off_c, 0, 49, 60
1, 1233549, Note_on_c, 0, 52, 67
1, 1233593, Note_on_c, 0, 76, 94
1, 1233618, Note_on_c, 0, 56, 74
1, 1233620, Note_off_c, 0, 52, 58
1, 1233650, Note_off_c, 0, 76, 64
1, 1233692, Note_on_c, 0, 49, 68
1, 1233705, Note_off_c, 0, 56, 59
1, 1233707, Note_on_c, 0, 80, 87
1, 1233773, Note_on_c, 0, 52, 66
1, 1233781, Note_off_c, 0, 49, 62
1, 1233781, Note_off_c, 0, 80, 60
1, 1233820, Note_off_c, 0, 52, 63
1, 1233828, Note_on_c, 0, 85, 95
1, 1233837, Note_on_c, 0, 56, 74
1, 1233895, Note_off_c, 0, 85, 63
1, 1233922, Note_off_c, 0, 56, 61
1, 1233970, Control_c, 0, 64, 72
1, 1233985, Note_on_c, 0, 84, 93
1, 1233985, Control_c, 0, 64, 38
1, 1233990, Note_on_c, 0, 52, 58
1, 1234000, Control_c, 0, 64, 0
1, 1234008, Note_on_c, 0, 72, 78
1, 1234044, Control_c, 0, 64, 42
1, 1234059, Control_c, 0, 64, 63
1, 1234074, Control_c, 0, 64, 98
1, 1234076, Note_on_c, 0, 56, 74
1, 1234088, Control_c, 0, 64, 127
1, 1234105, Note_off_c, 0, 52, 60
1, 1234161, Note_on_c, 0, 61, 74
1, 1234175, Note_off_c, 0, 56, 62
1, 1234182, Note_off_c, 0, 72, 63
1, 1234268, Note_off_c, 0, 61, 59
1, 1234276, Note_off_c, 0, 84, 66
1, 1234280, Note_on_c, 0, 85, 85
1, 1234282, Note_on_c, 0, 52, 70
1, 1234285, Note_on_c, 0, 73, 80
1, 1234299, Note_off_c, 0, 85, 73
1, 1234306, Note_off_c, 0, 73, 70
1, 1234364, Note_on_c, 0, 56, 69
1, 1234371, Note_off_c, 0, 52, 61
1, 1234448, Note_on_c, 0, 61, 70
1, 1234449, Note_off_c, 0, 56, 60
1, 1234647, Note_on_c, 0, 40, 98
1, 1234669, Note_on_c, 0, 52, 57
1, 1234711, Note_off_c, 0, 61, 58
1, 1234749, Control_c, 0, 64, 81
1, 1234764, Control_c, 0, 64, 50
1, 1234779, Control_c, 0, 64, 0
1, 1234807, Note_on_c, 0, 56, 61
1, 1234808, Control_c, 0, 64, 47
1, 1234823, Control_c, 0, 64, 62
1, 1234837, Control_c, 0, 64, 76
1, 1234842, Note_off_c, 0, 52, 57
1, 1234852, Control_c, 0, 64, 127
1, 1234923, Note_off_c, 0, 40, 64
1, 1234926, Note_on_c, 0, 61, 65
1, 1234944, Note_off_c, 0, 56, 62
1, 1235000, Note_on_c, 0, 52, 57
1, 1235036, Note_off_c, 0, 61, 62
1, 1235084, Note_on_c, 0, 56, 69
1, 1235104, Note_off_c, 0, 52, 59
1, 1235153, Note_on_c, 0, 61, 73
1, 1235157, Note_off_c, 0, 56, 61
1, 1235274, Control_c, 0, 64, 82
1, 1235284, Note_on_c, 0, 84, 91
1, 1235287, Note_on_c, 0, 54, 70
1, 1235289, Control_c, 0, 64, 53
1, 1235290, Note_off_c, 0, 61, 62
1, 1235298, Note_on_c, 0, 72, 82
1, 1235304, Control_c, 0, 64, 0
1, 1235333, Control_c, 0, 64, 45
1, 1235348, Control_c, 0, 64, 64
1, 1235363, Control_c, 0, 64, 90
1, 1235378, Note_on_c, 0, 57, 71
1, 1235378, Control_c, 0, 64, 127
1, 1235386, Note_off_c, 0, 54, 62
1, 1235453, Note_off_c, 0, 72, 62
1, 1235465, Note_on_c, 0, 61, 76
1, 1235467, Note_off_c, 0, 57, 62
1, 1235552, Note_on_c, 0, 85, 89
1, 1235555, Note_on_c, 0, 54, 75
1, 1235555, Note_off_c, 0, 84, 59
1, 1235557, Note_on_c, 0, 73, 79
1, 1235558, Note_off_c, 0, 61, 61
1, 1235570, Note_off_c, 0, 85, 74
1, 1235577, Note_off_c, 0, 73, 72
1, 1235629, Note_on_c, 0, 57, 72
1, 1235644, Note_off_c, 0, 54, 60
1, 1235725, Note_off_c, 0, 57, 63
1, 1235737, Note_on_c, 0, 61, 72
1, 1235877, Note_on_c, 0, 42, 101
1, 1235905, Note_on_c, 0, 54, 63
1, 1235919, Control_c, 0, 64, 76
1, 1235933, Control_c, 0, 64, 43
1, 1235948, Note_off_c, 0, 61, 59
1, 1235948, Control_c, 0, 64, 0
1, 1235963, Control_c, 0, 64, 31
1, 1235978, Control_c, 0, 64, 50
1, 1235993, Control_c, 0, 64, 65
1, 1236008, Control_c, 0, 64, 92
1, 1236017, Note_on_c, 0, 57, 67
1, 1236023, Control_c, 0, 64, 127
1, 1236044, Note_off_c, 0, 54, 60
1, 1236091, Note_off_c, 0, 42, 63
1, 1236100, Note_on_c, 0, 61, 70
1, 1236112, Note_off_c, 0, 57, 61
1, 1236184, Note_on_c, 0, 54, 59
1, 1236211, Note_off_c, 0, 61, 55
1, 1236250, Note_on_c, 0, 57, 66
1, 1236276, Note_off_c, 0, 54, 62
1, 1236313, Note_off_c, 0, 57, 65
1, 1236351, Note_on_c, 0, 61, 64
1, 1236527, Note_on_c, 0, 88, 86
1, 1236529, Note_off_c, 0, 61, 51
1, 1236542, Note_on_c, 0, 56, 67
1, 1236550, Control_c, 0, 64, 94
1, 1236564, Control_c, 0, 64, 71
1, 1236571, Note_on_c, 0, 76, 54
1, 1236579, Control_c, 0, 64, 51
1, 1236594, Control_c, 0, 64, 0
1, 1236652, Note_on_c, 0, 61, 63
1, 1236653, Control_c, 0, 64, 29
1, 1236668, Control_c, 0, 64, 51
1, 1236683, Control_c, 0, 64, 67
1, 1236691, Note_off_c, 0, 56, 60
1, 1236697, Control_c, 0, 64, 86
1, 1236712, Control_c, 0, 64, 127
1, 1236718, Note_off_c, 0, 76, 64
1, 1236744, Note_on_c, 0, 64, 66
1, 1236753, Note_off_c, 0, 61, 62
1, 1236804, Note_off_c, 0, 88, 63
1, 1236822, Note_on_c, 0, 85, 71
1, 1236833, Note_on_c, 0, 56, 71
1, 1236837, Note_off_c, 0, 64, 63
1, 1236846, Note_off_c, 0, 85, 68
1, 1236856, Note_on_c, 0, 73, 25
1, 1236891, Note_off_c, 0, 73, 50
1, 1236917, Note_on_c, 0, 61, 67
1, 1236930, Note_off_c, 0, 56, 60
1, 1236997, Note_off_c, 0, 61, 61
1, 1237001, Note_on_c, 0, 64, 67
1, 1237090, Note_on_c, 0, 56, 75
1, 1237094, Note_on_c, 0, 44, 93
1, 1237097, Control_c, 0, 64, 112
1, 1237098, Note_off_c, 0, 64, 62
1, 1237112, Control_c, 0, 64, 67
1, 1237128, Control_c, 0, 64, 0
1, 1237158, Control_c, 0, 64, 45
1, 1237173, Control_c, 0, 64, 59
1, 1237184, Note_on_c, 0, 61, 69
1, 1237187, Control_c, 0, 64, 72
1, 1237209, Control_c, 0, 64, 103
1, 1237224, Control_c, 0, 64, 127
1, 1237254, Note_off_c, 0, 44, 60
1, 1237272, Note_on_c, 0, 64, 74
1, 1237296, Note_off_c, 0, 61, 59
1, 1237299, Note_off_c, 0, 56, 58
1, 1237343, Note_off_c, 0, 64, 62
1, 1237382, Note_on_c, 0, 57, 81
1, 1237386, Note_on_c, 0, 45, 95
1, 1237388, Control_c, 0, 64, 73
1, 1237403, Control_c, 0, 64, 28
1, 1237418, Control_c, 0, 64, 0
1, 1237462, Control_c, 0, 64, 49
1, 1237477, Control_c, 0, 64, 65
1, 1237486, Note_on_c, 0, 61, 74
1, 1237492, Control_c, 0, 64, 78
1, 1237507, Control_c, 0, 64, 98
1, 1237518, Note_off_c, 0, 57, 64
1, 1237521, Control_c, 0, 64, 127
1, 1237562, Note_off_c, 0, 61, 62
1, 1237568, Note_on_c, 0, 64, 71
1, 1237573, Note_off_c, 0, 45, 59
1, 1237695, Note_off_c, 0, 64, 60
1, 1237704, Note_on_c, 0, 47, 92
1, 1237718, Note_on_c, 0, 59, 68
1, 1237728, Control_c, 0, 64, 95
1, 1237743, Control_c, 0, 64, 66
1, 1237758, Control_c, 0, 64, 29
1, 1237773, Control_c, 0, 64, 0
1, 1237822, Note_on_c, 0, 64, 65
1, 1237832, Note_off_c, 0, 59, 62
1, 1237847, Control_c, 0, 64, 53
1, 1237862, Control_c, 0, 64, 72
1, 1237877, Control_c, 0, 64, 104
1, 1237892, Control_c, 0, 64, 127
1, 1237894, Note_off_c, 0, 47, 62
1, 1237920, Note_on_c, 0, 68, 67
1, 1237924, Note_off_c, 0, 64, 62
1, 1238025, Note_on_c, 0, 59, 71
1, 1238029, Note_off_c, 0, 68, 60
1, 1238095, Note_on_c, 0, 64, 73
1, 1238113, Note_off_c, 0, 59, 63
1, 1238193, Note_on_c, 0, 68, 73
1, 1238196, Note_off_c, 0, 64, 63
1, 1238268, Control_c, 0, 64, 121
1, 1238283, Control_c, 0, 64, 72
1, 1238292, Note_on_c, 0, 83, 86
1, 1238294, Note_on_c, 0, 59, 69
1, 1238298, Control_c, 0, 64, 48
1, 1238299, Note_off_c, 0, 68, 59
1, 1238313, Control_c, 0, 64, 32
1, 1238314, Note_on_c, 0, 71, 76
1, 1238328, Control_c, 0, 64, 49
1, 1238342, Control_c, 0, 64, 63
1, 1238357, Control_c, 0, 64, 77
1, 1238372, Control_c, 0, 64, 127
1, 1238378, Note_on_c, 0, 64, 74
1, 1238395, Note_off_c, 0, 71, 60
1, 1238399, Note_off_c, 0, 59, 60
1, 1238445, Note_off_c, 0, 83, 63
1, 1238467, Note_on_c, 0, 68, 73
1, 1238495, Note_off_c, 0, 64, 59
1, 1238506, Control_c, 0, 64, 80
1, 1238521, Control_c, 0, 64, 74
1, 1238535, Control_c, 0, 64, 84
1, 1238550, Control_c, 0, 64, 114
1, 1238563, Note_on_c, 0, 59, 70
1, 1238563, Note_on_c, 0, 85, 101
1, 1238565, Control_c, 0, 64, 127
1, 1238568, Note_on_c, 0, 73, 97
1, 1238590, Note_off_c, 0, 68, 57
1, 1238648, Note_on_c, 0, 64, 74
1, 1238675, Note_off_c, 0, 59, 63
1, 1238679, Note_off_c, 0, 73, 60
1, 1238732, Note_off_c, 0, 85, 60
1, 1238745, Note_off_c, 0, 64, 64
1, 1238755, Note_on_c, 0, 68, 65
1, 1238893, Note_on_c, 0, 87, 91
1, 1238899, Control_c, 0, 64, 101
1, 1238904, Note_on_c, 0, 75, 84
1, 1238914, Control_c, 0, 64, 74
1, 1238929, Control_c, 0, 64, 52
1, 1238934, Note_on_c, 0, 60, 57
1, 1238944, Control_c, 0, 64, 0
1, 1238968, Note_off_c, 0, 68, 52
1, 1239002, Control_c, 0, 64, 43
1, 1239017, Control_c, 0, 64, 62
1, 1239026, Note_on_c, 0, 66, 61
1, 1239032, Control_c, 0, 64, 77
1, 1239047, Control_c, 0, 64, 127
1, 1239054, Note_off_c, 0, 60, 56
1, 1239122, Note_on_c, 0, 68, 61
1, 1239123, Note_off_c, 0, 66, 62
1, 1239195, Note_on_c, 0, 60, 62
1, 1239225, Note_off_c, 0, 68, 59
1, 1239266, Note_on_c, 0, 66, 67
1, 1239305, Note_off_c, 0, 60, 60
1, 1239342, Note_off_c, 0, 75, 59
1, 1239373, Note_off_c, 0, 66, 63
1, 1239373, Note_on_c, 0, 68, 59
1, 1239384, Note_off_c, 0, 87, 56
1, 1239432, Control_c, 0, 64, 113
1, 1239447, Control_c, 0, 64, 69
1, 1239466, Note_on_c, 0, 88, 87
1, 1239469, Control_c, 0, 64, 38
1, 1239475, Note_on_c, 0, 76, 87
1, 1239483, Note_on_c, 0, 61, 67
1, 1239484, Control_c, 0, 64, 0
1, 1239489, Note_off_c, 0, 68, 59
1, 1239499, Control_c, 0, 64, 44
1, 1239513, Control_c, 0, 64, 61
1, 1239529, Control_c, 0, 64, 75
1, 1239544, Control_c, 0, 64, 127
1, 1239573, Note_on_c, 0, 64, 71
1, 1239587, Note_off_c, 0, 61, 62
1, 1239638, Note_off_c, 0, 88, 66
1, 1239664, Note_off_c, 0, 76, 66
1, 1239682, Note_on_c, 0, 68, 65
1, 1239686, Note_off_c, 0, 64, 63
1, 1239760, Note_on_c, 0, 61, 67
1, 1239779, Note_off_c, 0, 68, 60
1, 1239845, Note_on_c, 0, 64, 71
1, 1239870, Note_off_c, 0, 61, 63
1, 1239923, Note_on_c, 0, 68, 71
1, 1239950, Note_off_c, 0, 64, 61
1, 1240032, Note_on_c, 0, 42, 102
1, 1240032, Note_off_c, 0, 68, 58
1, 1240039, Note_on_c, 0, 61, 80
1, 1240055, Note_on_c, 0, 41, 72
1, 1240062, Control_c, 0, 64, 69
1, 1240077, Control_c, 0, 64, 30
1, 1240092, Control_c, 0, 64, 0
1, 1240122, Control_c, 0, 64, 47
1, 1240135, Note_on_c, 0, 63, 71
1, 1240136, Control_c, 0, 64, 63
1, 1240151, Control_c, 0, 64, 79
1, 1240166, Control_c, 0, 64, 127
1, 1240178, Note_off_c, 0, 61, 61
1, 1240208, Note_off_c, 0, 41, 32
1, 1240244, Note_on_c, 0, 69, 66
1, 1240248, Note_off_c, 0, 63, 61
1, 1240321, Note_off_c, 0, 69, 60
1, 1240339, Note_on_c, 0, 61, 67
1, 1240439, Note_on_c, 0, 63, 72
1, 1240464, Note_off_c, 0, 61, 61
1, 1240507, Note_off_c, 0, 42, 61
1, 1240527, Note_on_c, 0, 69, 67
1, 1240530, Note_off_c, 0, 63, 60
1, 1240622, Note_off_c, 0, 69, 57
1, 1240630, Note_on_c, 0, 44, 96
1, 1240634, Control_c, 0, 64, 70
1, 1240643, Note_on_c, 0, 60, 74
1, 1240649, Control_c, 0, 64, 32
1, 1240664, Control_c, 0, 64, 0
1, 1240709, Control_c, 0, 64, 32
1, 1240723, Control_c, 0, 64, 59
1, 1240734, Note_on_c, 0, 63, 69
1, 1240738, Control_c, 0, 64, 76
1, 1240753, Control_c, 0, 64, 127
1, 1240759, Note_off_c, 0, 60, 60
1, 1240849, Note_on_c, 0, 68, 69
1, 1240868, Note_off_c, 0, 63, 60
1, 1240969, Note_off_c, 0, 68, 59
1, 1240975, Note_on_c, 0, 60, 67
1, 1241053, Note_on_c, 0, 63, 60
1, 1241055, Note_off_c, 0, 60, 64
1, 1241125, Note_off_c, 0, 63, 63
1, 1241128, Note_on_c, 0, 68, 65
1, 1241132, Note_off_c, 0, 44, 56
1, 1241180, Note_off_c, 0, 68, 59
1, 1241253, Note_on_c, 0, 45, 96
1, 1241277, Note_on_c, 0, 57, 72
1, 1241279, Control_c, 0, 64, 72
1, 1241294, Control_c, 0, 64, 39
1, 1241309, Control_c, 0, 64, 0
1, 1241339, Control_c, 0, 64, 29
1, 1241353, Control_c, 0, 64, 55
1, 1241368, Control_c, 0, 64, 71
1, 1241373, Note_on_c, 0, 61, 72
1, 1241383, Control_c, 0, 64, 107
1, 1241384, Note_off_c, 0, 57, 61
1, 1241388, Note_off_c, 0, 45, 64
1, 1241397, Control_c, 0, 64, 127
1, 1241467, Note_on_c, 0, 64, 64
1, 1241481, Note_off_c, 0, 61, 58
1, 1241546, Note_on_c, 0, 57, 63
1, 1241547, Note_off_c, 0, 64, 62
1, 1241630, Note_off_c, 0, 57, 64
1, 1241636, Note_on_c, 0, 61, 70
1, 1241707, Note_on_c, 0, 69, 77
1, 1241725, Note_off_c, 0, 61, 56
1, 1241727, Note_on_c, 0, 64, 68
1, 1241795, Note_off_c, 0, 69, 62
1, 1241804, Control_c, 0, 64, 95
1, 1241819, Control_c, 0, 64, 62
1, 1241832, Note_on_c, 0, 56, 75
1, 1241834, Control_c, 0, 64, 0
1, 1241840, Note_off_c, 0, 64, 63
1, 1241846, Note_on_c, 0, 73, 85
1, 1241878, Control_c, 0, 64, 49
1, 1241888, Note_on_c, 0, 55, 26
1, 1241893, Control_c, 0, 64, 66
1, 1241908, Control_c, 0, 64, 88
1, 1241910, Note_off_c, 0, 73, 63
1, 1241923, Control_c, 0, 64, 127
1, 1241931, Note_on_c, 0, 61, 67
1, 1241931, Note_off_c, 0, 55, 52
1, 1241957, Note_off_c, 0, 56, 62
1, 1241976, Note_on_c, 0, 76, 88
1, 1242000, Note_on_c, 0, 64, 74
1, 1242022, Note_off_c, 0, 61, 59
1, 1242031, Note_off_c, 0, 76, 63
1, 1242097, Note_on_c, 0, 81, 79
1, 1242105, Note_on_c, 0, 54, 73
1, 1242107, Note_on_c, 0, 79, 79
1, 1242111, Note_off_c, 0, 64, 63
1, 1242142, Note_off_c, 0, 79, 0
1, 1242168, Note_off_c, 0, 81, 65
1, 1242176, Note_on_c, 0, 61, 59
1, 1242176, Note_on_c, 0, 79, 3
1, 1242188, Note_off_c, 0, 54, 60
1, 1242216, Note_off_c, 0, 79, 53
1, 1242223, Note_on_c, 0, 85, 96
1, 1242244, Note_on_c, 0, 64, 69
1, 1242247, Note_off_c, 0, 61, 62
1, 1242280, Note_off_c, 0, 85, 64
1, 1242340, Note_off_c, 0, 64, 50
1, 1242417, Note_on_c, 0, 84, 87
1, 1242436, Note_on_c, 0, 52, 63
1, 1242460, Note_on_c, 0, 72, 65
1, 1242465, Control_c, 0, 64, 107
1, 1242479, Control_c, 0, 64, 69
1, 1242494, Control_c, 0, 64, 39
1, 1242509, Control_c, 0, 64, 0
1, 1242541, Note_on_c, 0, 56, 65
1, 1242553, Control_c, 0, 64, 48
1, 1242568, Control_c, 0, 64, 69
1, 1242583, Control_c, 0, 64, 127
1, 1242584, Note_off_c, 0, 52, 59
1, 1242651, Note_on_c, 0, 61, 60
1, 1242661, Note_off_c, 0, 56, 61
1, 1242682, Note_off_c, 0, 72, 62
1, 1242762, Note_on_c, 0, 85, 79
1, 1242767, Note_off_c, 0, 84, 67
1, 1242768, Note_on_c, 0, 52, 63
1, 1242777, Note_off_c, 0, 61, 55
1, 1242786, Note_off_c, 0, 85, 68
1, 1242789, Note_on_c, 0, 73, 48
1, 1242812, Note_off_c, 0, 73, 58
1, 1242852, Note_on_c, 0, 56, 60
1, 1242859, Note_off_c, 0, 52, 61
1, 1242934, Note_on_c, 0, 61, 57
1, 1242945, Note_off_c, 0, 56, 61
1, 1243120, Note_on_c, 0, 40, 94
1, 1243141, Note_on_c, 0, 52, 60
1, 1243191, Control_c, 0, 64, 120
1, 1243203, Note_off_c, 0, 61, 60
1, 1243213, Control_c, 0, 64, 74
1, 1243228, Control_c, 0, 64, 56
1, 1243243, Control_c, 0, 64, 54
1, 1243257, Control_c, 0, 64, 63
1, 1243263, Note_on_c, 0, 56, 56
1, 1243273, Control_c, 0, 64, 70
1, 1243285, Note_off_c, 0, 52, 57
1, 1243288, Control_c, 0, 64, 86
1, 1243303, Control_c, 0, 64, 127
1, 1243380, Note_on_c, 0, 61, 58
1, 1243380, Note_off_c, 0, 40, 62
1, 1243399, Note_off_c, 0, 56, 59
1, 1243479, Note_off_c, 0, 61, 60
1, 1243480, Note_on_c, 0, 52, 62
1, 1243544, Note_on_c, 0, 56, 64
1, 1243564, Note_off_c, 0, 52, 60
1, 1243626, Note_on_c, 0, 61, 66
1, 1243630, Note_off_c, 0, 56, 62
1, 1243742, Note_on_c, 0, 84, 92
1, 1243749, Note_off_c, 0, 61, 56
1, 1243754, Note_on_c, 0, 54, 72
1, 1243755, Note_on_c, 0, 72, 84
1, 1243763, Control_c, 0, 64, 72
1, 1243778, Control_c, 0, 64, 40
1, 1243793, Control_c, 0, 64, 0
1, 1243837, Control_c, 0, 64, 52
1, 1243842, Note_on_c, 0, 57, 74
1, 1243852, Control_c, 0, 64, 76
1, 1243857, Note_off_c, 0, 54, 62
1, 1243867, Control_c, 0, 64, 127
1, 1243936, Note_off_c, 0, 72, 63
1, 1243936, Note_off_c, 0, 57, 63
1, 1243942, Note_on_c, 0, 61, 64
1, 1244022, Note_off_c, 0, 84, 61
1, 1244028, Note_on_c, 0, 73, 85
1, 1244029, Note_on_c, 0, 85, 79
1, 1244041, Note_on_c, 0, 54, 74
1, 1244047, Note_off_c, 0, 73, 71
1, 1244047, Note_off_c, 0, 61, 59
1, 1244051, Note_off_c, 0, 85, 71
1, 1244122, Note_on_c, 0, 57, 68
1, 1244127, Note_off_c, 0, 54, 62
1, 1244206, Note_on_c, 0, 61, 68
1, 1244207, Note_off_c, 0, 57, 60
1, 1244335, Note_on_c, 0, 42, 100
1, 1244364, Note_on_c, 0, 54, 69
1, 1244378, Control_c, 0, 64, 76
1, 1244393, Control_c, 0, 64, 45
1, 1244401, Note_off_c, 0, 61, 59
1, 1244408, Control_c, 0, 64, 0
1, 1244438, Control_c, 0, 64, 46
1, 1244453, Control_c, 0, 64, 62
1, 1244468, Control_c, 0, 64, 79
1, 1244476, Note_on_c, 0, 57, 67
1, 1244483, Control_c, 0, 64, 127
1, 1244494, Note_off_c, 0, 54, 61
1, 1244546, Note_off_c, 0, 42, 63
1, 1244557, Note_on_c, 0, 61, 64
1, 1244558, Note_off_c, 0, 57, 62
1, 1244635, Note_on_c, 0, 54, 66
1, 1244644, Note_off_c, 0, 61, 60
1, 1244714, Note_on_c, 0, 57, 65
1, 1244726, Note_off_c, 0, 54, 61
1, 1244766, Note_off_c, 0, 57, 64
1, 1244797, Note_on_c, 0, 61, 67
1, 1244901, Note_off_c, 0, 61, 56
1, 1244956, Note_on_c, 0, 88, 93
1, 1244962, Note_on_c, 0, 56, 66
1, 1244972, Note_on_c, 0, 76, 85
1, 1244978, Control_c, 0, 64, 98
1, 1244993, Control_c, 0, 64, 68
1, 1245008, Control_c, 0, 64, 42
1, 1245022, Control_c, 0, 64, 0
1, 1245062, Note_on_c, 0, 61, 63
1, 1245090, Note_off_c, 0, 56, 61
1, 1245097, Control_c, 0, 64, 42
1, 1245112, Control_c, 0, 64, 67
1, 1245127, Control_c, 0, 64, 110
1, 1245142, Control_c, 0, 64, 127
1, 1245150, Note_off_c, 0, 76, 63
1, 1245159, Note_on_c, 0, 64, 69
1, 1245162, Note_off_c, 0, 61, 61
1, 1245222, Note_off_c, 0, 88, 64
1, 1245262, Note_off_c, 0, 64, 62
1, 1245263, Note_on_c, 0, 85, 66
1, 1245271, Note_on_c, 0, 56, 71
1, 1245271, Note_on_c, 0, 73, 62
1, 1245280, Note_off_c, 0, 85, 67
1, 1245290, Note_off_c, 0, 73, 64
1, 1245350, Note_on_c, 0, 61, 71
1, 1245357, Note_off_c, 0, 56, 61
1, 1245429, Note_off_c, 0, 61, 55
1, 1245448, Note_on_c, 0, 64, 65
1, 1245534, Control_c, 0, 64, 90
1, 1245535, Note_on_c, 0, 56, 76
1, 1245547, Note_on_c, 0, 44, 92
1, 1245549, Control_c, 0, 64, 57
1, 1245550, Note_off_c, 0, 64, 65
1, 1245564, Control_c, 0, 64, 0
1, 1245608, Control_c, 0, 64, 50
1, 1245623, Control_c, 0, 64, 67
1, 1245638, Control_c, 0, 64, 86
1, 1245639, Note_on_c, 0, 61, 63
1, 1245652, Control_c, 0, 64, 127
1, 1245672, Note_off_c, 0, 44, 57
1, 1245720, Note_on_c, 0, 64, 70
1, 1245728, Note_off_c, 0, 61, 59
1, 1245742, Note_off_c, 0, 56, 54
1, 1245791, Note_off_c, 0, 64, 61
1, 1245815, Control_c, 0, 64, 99
1, 1245818, Note_on_c, 0, 45, 94
1, 1245821, Note_on_c, 0, 57, 79
1, 1245830, Control_c, 0, 64, 61
1, 1245845, Control_c, 0, 64, 0
1, 1245905, Control_c, 0, 64, 56
1, 1245913, Note_on_c, 0, 61, 73
1, 1245920, Control_c, 0, 64, 71
1, 1245931, Note_off_c, 0, 57, 63
1, 1245935, Control_c, 0, 64, 95
1, 1245949, Control_c, 0, 64, 127
1, 1245979, Note_off_c, 0, 61, 64
1, 1245990, Note_on_c, 0, 64, 67
1, 1245999, Note_off_c, 0, 45, 53
1, 1246089, Note_off_c, 0, 64, 58
1, 1246127, Note_on_c, 0, 47, 95
1, 1246128, Control_c, 0, 64, 104
1, 1246138, Note_on_c, 0, 59, 67
1, 1246142, Control_c, 0, 64, 67
1, 1246157, Control_c, 0, 64, 0
1, 1246249, Note_on_c, 0, 64, 58
1, 1246253, Control_c, 0, 64, 48
1, 1246262, Note_off_c, 0, 59, 61
1, 1246268, Control_c, 0, 64, 68
1, 1246283, Control_c, 0, 64, 93
1, 1246298, Control_c, 0, 64, 127
1, 1246316, Note_off_c, 0, 47, 61
1, 1246346, Note_on_c, 0, 68, 62
1, 1246356, Note_off_c, 0, 64, 61
1, 1246435, Note_off_c, 0, 68, 59
1, 1246438, Note_on_c, 0, 59, 71
1, 1246510, Note_on_c, 0, 64, 71
1, 1246522, Note_off_c, 0, 59, 62
1, 1246599, Note_off_c, 0, 64, 63
1, 1246602, Note_on_c, 0, 68, 67
1, 1246712, Control_c, 0, 64, 105
1, 1246721, Note_on_c, 0, 59, 65
1, 1246722, Note_on_c, 0, 92, 88
1, 1246728, Control_c, 0, 64, 67
1, 1246733, Note_on_c, 0, 80, 77
1, 1246735, Note_off_c, 0, 68, 59
1, 1246743, Control_c, 0, 64, 53
1, 1246758, Control_c, 0, 64, 59
1, 1246772, Control_c, 0, 64, 67
1, 1246787, Control_c, 0, 64, 74
1, 1246802, Control_c, 0, 64, 95
1, 1246804, Note_on_c, 0, 64, 69
1, 1246817, Control_c, 0, 64, 127
1, 1246835, Note_off_c, 0, 59, 58
1, 1246860, Note_off_c, 0, 80, 58
1, 1246885, Note_off_c, 0, 92, 63
1, 1246900, Note_on_c, 0, 68, 63
1, 1246915, Note_off_c, 0, 64, 61
1, 1247007, Note_on_c, 0, 93, 102
1, 1247011, Note_on_c, 0, 59, 69
1, 1247012, Note_off_c, 0, 68, 57
1, 1247016, Note_on_c, 0, 81, 87
1, 1247098, Note_on_c, 0, 64, 73
1, 1247117, Note_off_c, 0, 59, 60
1, 1247127, Note_off_c, 0, 81, 56
1, 1247172, Note_off_c, 0, 93, 62
1, 1247187, Note_on_c, 0, 68, 68
1, 1247195, Note_off_c, 0, 64, 62
1, 1247296, Note_on_c, 0, 59, 71
1, 1247296, Note_on_c, 0, 95, 97
1, 1247299, Control_c, 0, 64, 100
1, 1247306, Note_on_c, 0, 83, 92
1, 1247309, Note_off_c, 0, 68, 54
1, 1247314, Control_c, 0, 64, 69
1, 1247329, Control_c, 0, 64, 49
1, 1247343, Control_c, 0, 64, 43
1, 1247358, Control_c, 0, 64, 56
1, 1247373, Control_c, 0, 64, 65
1, 1247388, Control_c, 0, 64, 79
1, 1247397, Note_on_c, 0, 64, 68
1, 1247403, Control_c, 0, 64, 127
1, 1247429, Note_off_c, 0, 59, 60
1, 1247471, Note_on_c, 0, 68, 63
1, 1247510, Note_off_c, 0, 64, 62
1, 1247572, Note_on_c, 0, 59, 59
1, 1247601, Note_off_c, 0, 68, 58
1, 1247642, Note_off_c, 0, 83, 58
1, 1247642, Note_on_c, 0, 64, 62
1, 1247671, Note_off_c, 0, 59, 63
1, 1247721, Note_off_c, 0, 64, 63
1, 1247748, Note_on_c, 0, 68, 61
1, 1247807, Note_off_c, 0, 95, 64
1, 1247864, Note_off_c, 0, 68, 54
1, 1247869, Note_on_c, 0, 96, 100
1, 1247884, Note_on_c, 0, 84, 90
1, 1247885, Note_on_c, 0, 56, 71
1, 1247885, Control_c, 0, 64, 77
1, 1247900, Control_c, 0, 64, 54
1, 1247915, Control_c, 0, 64, 31
1, 1247929, Control_c, 0, 64, 35
1, 1247944, Control_c, 0, 64, 55
1, 1247959, Control_c, 0, 64, 67
1, 1247973, Control_c, 0, 64, 85
1, 1247988, Control_c, 0, 64, 127
1, 1247991, Note_on_c, 0, 63, 66
1, 1248036, Note_off_c, 0, 56, 60
1, 1248087, Note_on_c, 0, 66, 69
1, 1248101, Note_off_c, 0, 63, 61
1, 1248180, Note_on_c, 0, 56, 66
1, 1248200, Note_off_c, 0, 66, 59
1, 1248256, Note_off_c, 0, 84, 60
1, 1248259, Note_on_c, 0, 63, 66
1, 1248316, Note_off_c, 0, 96, 67
1, 1248340, Note_off_c, 0, 56, 53
1, 1248364, Note_on_c, 0, 66, 70
1, 1248366, Note_off_c, 0, 63, 62
1, 1248498, Note_off_c, 0, 66, 56
1, 1248515, Note_on_c, 0, 97, 98
1, 1248524, Note_on_c, 0, 85, 87
1, 1248531, Control_c, 0, 64, 104
1, 1248534, Note_on_c, 0, 57, 63
1, 1248545, Control_c, 0, 64, 69
1, 1248560, Control_c, 0, 64, 43
1, 1248575, Control_c, 0, 64, 37
1, 1248590, Control_c, 0, 64, 47
1, 1248604, Control_c, 0, 64, 62
1, 1248619, Control_c, 0, 64, 76
1, 1248634, Control_c, 0, 64, 127
1, 1248638, Note_on_c, 0, 61, 67
1, 1248689, Note_off_c, 0, 57, 60
1, 1248745, Note_on_c, 0, 64, 67
1, 1248754, Note_off_c, 0, 97, 64
1, 1248758, Note_off_c, 0, 61, 59
1, 1248770, Note_off_c, 0, 85, 62
1, 1248821, Note_off_c, 0, 64, 63
1, 1248834, Note_on_c, 0, 57, 54
1, 1248932, Note_on_c, 0, 61, 68
1, 1248952, Note_off_c, 0, 57, 62
1, 1249004, Note_on_c, 0, 64, 65
1, 1249004, Note_off_c, 0, 61, 58
1, 1249133, Note_off_c, 0, 64, 62
1, 1249136, Note_on_c, 0, 42, 105
1, 1249144, Note_on_c, 0, 57, 63
1, 1249168, Control_c, 0, 64, 108
1, 1249190, Control_c, 0, 64, 69
1, 1249205, Control_c, 0, 64, 45
1, 1249219, Control_c, 0, 64, 31
1, 1249234, Control_c, 0, 64, 43
1, 1249239, Note_on_c, 0, 61, 64
1, 1249249, Control_c, 0, 64, 55
1, 1249264, Control_c, 0, 64, 64
1, 1249276, Note_off_c, 0, 57, 60
1, 1249279, Control_c, 0, 64, 80
1, 1249294, Control_c, 0, 64, 127
1, 1249350, Note_on_c, 0, 63, 61
1, 1249361, Note_off_c, 0, 61, 60
1, 1249434, Note_on_c, 0, 57, 58
1, 1249440, Note_off_c, 0, 63, 60
1, 1249526, Note_on_c, 0, 61, 62
1, 1249541, Note_off_c, 0, 57, 62
1, 1249616, Note_off_c, 0, 61, 61
1, 1249622, Note_on_c, 0, 63, 64
1, 1249686, Note_off_c, 0, 42, 61
1, 1249798, Note_off_c, 0, 63, 55
1, 1249800, Note_on_c, 0, 44, 85
1, 1249809, Note_on_c, 0, 56, 62
1, 1249886, Control_c, 0, 64, 94
1, 1249901, Control_c, 0, 64, 68
1, 1249917, Control_c, 0, 64, 44
1, 1249920, Note_on_c, 0, 61, 56
1, 1249939, Control_c, 0, 64, 0
1, 1249998, Control_c, 0, 64, 41
1, 1250000, Note_off_c, 0, 56, 60
1, 1250013, Control_c, 0, 64, 59
1, 1250028, Control_c, 0, 64, 72
1, 1250037, Note_on_c, 0, 64, 53
1, 1250042, Control_c, 0, 64, 89
1, 1250057, Control_c, 0, 64, 127
1, 1250065, Note_off_c, 0, 61, 59
1, 1250127, Note_on_c, 0, 56, 62
1, 1250140, Note_off_c, 0, 64, 61
1, 1250228, Note_on_c, 0, 61, 60
1, 1250267, Note_off_c, 0, 56, 54
1, 1250302, Note_on_c, 0, 64, 64
1, 1250314, Note_off_c, 0, 61, 61
1, 1250322, Note_off_c, 0, 44, 55
1, 1250377, Note_off_c, 0, 64, 60
1, 1250395, Note_on_c, 0, 45, 93
1, 1250398, Control_c, 0, 64, 113
1, 1250403, Note_on_c, 0, 57, 75
1, 1250413, Control_c, 0, 64, 74
1, 1250428, Control_c, 0, 64, 56
1, 1250442, Control_c, 0, 64, 44
1, 1250457, Control_c, 0, 64, 56
1, 1250472, Control_c, 0, 64, 72
1, 1250486, Control_c, 0, 64, 114
1, 1250495, Note_on_c, 0, 64, 73
1, 1250501, Control_c, 0, 64, 127
1, 1250533, Note_off_c, 0, 57, 63
1, 1250586, Note_off_c, 0, 45, 58
1, 1250601, Note_on_c, 0, 66, 75
1, 1250625, Note_off_c, 0, 64, 60
1, 1250680, Control_c, 0, 64, 90
1, 1250682, Note_on_c, 0, 58, 89
1, 1250698, Note_on_c, 0, 46, 97
1, 1250701, Control_c, 0, 64, 55
1, 1250718, Note_off_c, 0, 66, 59
1, 1250718, Control_c, 0, 64, 0
1, 1250747, Control_c, 0, 64, 40
1, 1250761, Control_c, 0, 64, 66
1, 1250775, Note_on_c, 0, 64, 74
1, 1250776, Control_c, 0, 64, 83
1, 1250790, Control_c, 0, 64, 127
1, 1250805, Note_off_c, 0, 58, 62
1, 1250884, Note_on_c, 0, 66, 75
1, 1250888, Note_off_c, 0, 64, 63
1, 1250906, Note_off_c, 0, 46, 51
1, 1250986, Note_off_c, 0, 66, 61
1, 1250996, Note_on_c, 0, 59, 70
1, 1250998, Control_c, 0, 64, 92
1, 1251005, Note_on_c, 0, 47, 94
1, 1251013, Control_c, 0, 64, 52
1, 1251028, Control_c, 0, 64, 0
1, 1251087, Control_c, 0, 64, 35
1, 1251089, Note_on_c, 0, 64, 67
1, 1251102, Control_c, 0, 64, 54
1, 1251116, Note_off_c, 0, 59, 60
1, 1251116, Control_c, 0, 64, 71
1, 1251131, Control_c, 0, 64, 93
1, 1251146, Control_c, 0, 64, 127
1, 1251187, Note_off_c, 0, 47, 63
1, 1251201, Note_on_c, 0, 68, 68
1, 1251202, Note_off_c, 0, 64, 60
1, 1251295, Note_on_c, 0, 59, 70
1, 1251304, Note_off_c, 0, 68, 59
1, 1251374, Note_on_c, 0, 64, 69
1, 1251395, Note_off_c, 0, 59, 59
1, 1251472, Note_on_c, 0, 68, 70
1, 1251479, Note_off_c, 0, 64, 62
1, 1251554, Control_c, 0, 64, 107
1, 1251569, Control_c, 0, 64, 68
1, 1251582, Note_on_c, 0, 95, 93
1, 1251583, Note_on_c, 0, 59, 70
1, 1251584, Control_c, 0, 64, 44
1, 1251590, Note_on_c, 0, 83, 86
1, 1251599, Control_c, 0, 64, 42
1, 1251607, Note_off_c, 0, 68, 60
1, 1251613, Control_c, 0, 64, 56
1, 1251628, Control_c, 0, 64, 67
1, 1251643, Control_c, 0, 64, 84
1, 1251658, Control_c, 0, 64, 127
1, 1251671, Note_on_c, 0, 64, 71
1, 1251722, Note_off_c, 0, 59, 58
1, 1251725, Note_off_c, 0, 83, 62
1, 1251751, Note_on_c, 0, 68, 69
1, 1251765, Note_off_c, 0, 95, 68
1, 1251791, Note_off_c, 0, 64, 58
1, 1251816, Note_off_c, 0, 68, 61
1, 1251821, Control_c, 0, 64, 103
1, 1251836, Control_c, 0, 64, 66
1, 1251851, Control_c, 0, 64, 38
1, 1251858, Note_on_c, 0, 60, 81
1, 1251860, Note_on_c, 0, 96, 102
1, 1251866, Control_c, 0, 64, 31
1, 1251869, Note_on_c, 0, 84, 96
1, 1251880, Control_c, 0, 64, 49
1, 1251895, Control_c, 0, 64, 65
1, 1251910, Control_c, 0, 64, 87
1, 1251925, Control_c, 0, 64, 127
1, 1251944, Note_on_c, 0, 64, 70
1, 1251990, Note_off_c, 0, 60, 65
1, 1252040, Note_on_c, 0, 68, 60
1, 1252052, Note_off_c, 0, 84, 60
1, 1252054, Note_off_c, 0, 64, 63
1, 1252081, Note_off_c, 0, 96, 69
1, 1252193, Note_on_c, 0, 97, 95
1, 1252194, Note_on_c, 0, 61, 67
1, 1252198, Note_on_c, 0, 85, 90
1, 1252201, Note_off_c, 0, 68, 60
1, 1252228, Control_c, 0, 64, 82
1, 1252243, Control_c, 0, 64, 56
1, 1252257, Control_c, 0, 64, 0
1, 1252272, Control_c, 0, 64, 36
1, 1252287, Control_c, 0, 64, 57
1, 1252290, Note_on_c, 0, 64, 65
1, 1252302, Control_c, 0, 64, 72
1, 1252317, Control_c, 0, 64, 127
1, 1252326, Note_off_c, 0, 61, 62
1, 1252406, Note_off_c, 0, 64, 62
1, 1252408, Note_on_c, 0, 68, 52
1, 1252444, Note_off_c, 0, 97, 64
1, 1252462, Note_off_c, 0, 85, 64
1, 1252466, Note_on_c, 0, 61, 60
1, 1252489, Note_off_c, 0, 68, 61
1, 1252558, Note_on_c, 0, 64, 60
1, 1252569, Note_off_c, 0, 61, 60
1, 1252623, Note_on_c, 0, 68, 66
1, 1252653, Note_off_c, 0, 64, 55
1, 1252688, Note_off_c, 0, 68, 61
1, 1252732, Note_on_c, 0, 57, 86
1, 1252750, Note_on_c, 0, 45, 96
1, 1252761, Control_c, 0, 64, 116
1, 1252776, Control_c, 0, 64, 72
1, 1252791, Control_c, 0, 64, 58
1, 1252806, Control_c, 0, 64, 64
1, 1252821, Control_c, 0, 64, 77
1, 1252835, Control_c, 0, 64, 127
1, 1252850, Note_on_c, 0, 64, 67
1, 1252904, Note_off_c, 0, 57, 60
1, 1252934, Note_on_c, 0, 66, 76
1, 1252955, Note_off_c, 0, 45, 60
1, 1252982, Note_off_c, 0, 64, 61
1, 1253036, Note_on_c, 0, 58, 86
1, 1253036, Control_c, 0, 64, 120
1, 1253041, Note_on_c, 0, 46, 95
1, 1253051, Control_c, 0, 64, 61
1, 1253062, Note_off_c, 0, 66, 55
1, 1253066, Control_c, 0, 64, 0
1, 1253112, Control_c, 0, 64, 39
1, 1253127, Control_c, 0, 64, 59
1, 1253129, Note_on_c, 0, 64, 73
1, 1253141, Control_c, 0, 64, 73
1, 1253156, Control_c, 0, 64, 105
1, 1253159, Note_off_c, 0, 58, 64
1, 1253171, Control_c, 0, 64, 127
1, 1253232, Note_on_c, 0, 66, 68
1, 1253254, Note_off_c, 0, 64, 58
1, 1253276, Note_off_c, 0, 46, 37
1, 1253345, Note_off_c, 0, 66, 62
1, 1253352, Note_on_c, 0, 59, 66
1, 1253353, Note_on_c, 0, 47, 90
1, 1253363, Control_c, 0, 64, 70
1, 1253378, Control_c, 0, 64, 33
1, 1253393, Control_c, 0, 64, 0
1, 1253437, Control_c, 0, 64, 40
1, 1253442, Note_on_c, 0, 64, 69
1, 1253452, Control_c, 0, 64, 62
1, 1253459, Note_off_c, 0, 59, 58
1, 1253467, Control_c, 0, 64, 78
1, 1253482, Control_c, 0, 64, 127
1, 1253531, Note_off_c, 0, 47, 62
1, 1253547, Note_on_c, 0, 68, 64
1, 1253558, Note_off_c, 0, 64, 61
1, 1253637, Note_on_c, 0, 59, 68
1, 1253652, Note_off_c, 0, 68, 60
1, 1253717, Note_on_c, 0, 64, 69
1, 1253741, Note_off_c, 0, 59, 63
1, 1253810, Note_on_c, 0, 68, 67
1, 1253835, Note_off_c, 0, 64, 57
1, 1253889, Control_c, 0, 64, 75
1, 1253905, Control_c, 0, 64, 54
1, 1253916, Note_on_c, 0, 59, 67
1, 1253920, Control_c, 0, 64, 51
1, 1253921, Note_on_c, 0, 83, 86
1, 1253921, Note_on_c, 0, 95, 87
1, 1253934, Control_c, 0, 64, 61
1, 1253940, Note_off_c, 0, 68, 57
1, 1253949, Control_c, 0, 64, 69
1, 1253952, Note_on_c, 0, 96, 37
1, 1253952, Note_off_c, 0, 96, 127
1, 1253964, Control_c, 0, 64, 93
1, 1253979, Control_c, 0, 64, 127
1, 1253995, Note_on_c, 0, 64, 65
1, 1254055, Note_off_c, 0, 59, 56
1, 1254062, Note_off_c, 0, 83, 62
1, 1254084, Note_on_c, 0, 68, 69
1, 1254098, Note_off_c, 0, 95, 65
1, 1254122, Note_off_c, 0, 64, 61
1, 1254171, Control_c, 0, 64, 112
1, 1254174, Note_off_c, 0, 68, 57
1, 1254186, Control_c, 0, 64, 69
1, 1254191, Note_on_c, 0, 60, 81
1, 1254196, Note_on_c, 0, 96, 103
1, 1254201, Note_on_c, 0, 84, 95
1, 1254201, Control_c, 0, 64, 40
1, 1254215, Control_c, 0, 64, 0
1, 1254230, Control_c, 0, 64, 45
1, 1254245, Control_c, 0, 64, 63
1, 1254260, Control_c, 0, 64, 83
1, 1254275, Control_c, 0, 64, 127
1, 1254276, Note_on_c, 0, 64, 73
1, 1254326, Note_off_c, 0, 60, 63
1, 1254362, Note_off_c, 0, 84, 61
1, 1254388, Note_off_c, 0, 96, 68
1, 1254389, Note_on_c, 0, 68, 65
1, 1254394, Note_off_c, 0, 64, 64
1, 1254507, Note_on_c, 0, 97, 96
1, 1254511, Note_on_c, 0, 85, 91
1, 1254514, Note_on_c, 0, 61, 74
1, 1254534, Control_c, 0, 64, 76
1, 1254537, Note_off_c, 0, 68, 58
1, 1254549, Control_c, 0, 64, 56
1, 1254564, Control_c, 0, 64, 43
1, 1254579, Control_c, 0, 64, 51
1, 1254594, Control_c, 0, 64, 64
1, 1254606, Note_on_c, 0, 64, 70
1, 1254608, Control_c, 0, 64, 78
1, 1254623, Control_c, 0, 64, 127
1, 1254634, Note_off_c, 0, 61, 61
1, 1254715, Note_on_c, 0, 68, 61
1, 1254731, Note_off_c, 0, 64, 61
1, 1254746, Note_off_c, 0, 97, 64
1, 1254765, Note_off_c, 0, 85, 63
1, 1254803, Note_on_c, 0, 61, 67
1, 1254824, Note_off_c, 0, 68, 60
1, 1254883, Note_on_c, 0, 64, 65
1, 1254920, Note_off_c, 0, 61, 62
1, 1254967, Note_on_c, 0, 68, 61
1, 1254998, Note_off_c, 0, 64, 62
1, 1255070, Note_off_c, 0, 68, 57
1, 1255078, Note_on_c, 0, 61, 75
1, 1255083, Control_c, 0, 64, 91
1, 1255098, Note_on_c, 0, 42, 89
1, 1255098, Control_c, 0, 64, 64
1, 1255113, Control_c, 0, 64, 37
1, 1255127, Control_c, 0, 64, 0
1, 1255142, Control_c, 0, 64, 40
1, 1255157, Control_c, 0, 64, 55
1, 1255172, Control_c, 0, 64, 66
1, 1255192, Note_on_c, 0, 63, 70
1, 1255194, Control_c, 0, 64, 83
1, 1255209, Control_c, 0, 64, 127
1, 1255241, Note_off_c, 0, 61, 59
1, 1255296, Note_off_c, 0, 63, 61
1, 1255299, Note_on_c, 0, 69, 64
1, 1255309, Note_off_c, 0, 42, 56
1, 1255372, Control_c, 0, 64, 115
1, 1255374, Note_off_c, 0, 69, 59
1, 1255387, Control_c, 0, 64, 73
1, 1255390, Note_on_c, 0, 61, 69
1, 1255392, Note_on_c, 0, 43, 98
1, 1255402, Control_c, 0, 64, 42
1, 1255417, Control_c, 0, 64, 0
1, 1255446, Control_c, 0, 64, 31
1, 1255461, Control_c, 0, 64, 52
1, 1255476, Control_c, 0, 64, 64
1, 1255490, Control_c, 0, 64, 72
1, 1255491, Note_on_c, 0, 63, 66
1, 1255506, Control_c, 0, 64, 82
1, 1255506, Note_off_c, 0, 61, 61
1, 1255521, Control_c, 0, 64, 89
1, 1255536, Control_c, 0, 64, 95
1, 1255551, Control_c, 0, 64, 104
1, 1255556, Note_on_c, 0, 69, 54
1, 1255566, Control_c, 0, 64, 117
1, 1255572, Note_off_c, 0, 63, 60
1, 1255580, Control_c, 0, 64, 127
1, 1255623, Note_off_c, 0, 43, 53
1, 1255656, Note_off_c, 0, 69, 57
1, 1255733, Note_on_c, 0, 44, 94
1, 1255735, Note_on_c, 0, 61, 60
1, 1255743, Control_c, 0, 64, 95
1, 1255758, Control_c, 0, 64, 70
1, 1255772, Control_c, 0, 64, 43
1, 1255787, Control_c, 0, 64, 0
1, 1255855, Note_on_c, 0, 64, 57
1, 1255861, Control_c, 0, 64, 45
1, 1255875, Note_off_c, 0, 61, 61
1, 1255876, Control_c, 0, 64, 59
1, 1255891, Control_c, 0, 64, 68
1, 1255905, Control_c, 0, 64, 78
1, 1255920, Control_c, 0, 64, 87
1, 1255943, Control_c, 0, 64, 97
1, 1255958, Control_c, 0, 64, 116
1, 1255968, Note_off_c, 0, 64, 62
1, 1255973, Control_c, 0, 64, 127
1, 1255977, Note_on_c, 0, 68, 52
1, 1256066, Note_on_c, 0, 61, 59
1, 1256072, Note_off_c, 0, 68, 58
1, 1256160, Note_on_c, 0, 64, 65
1, 1256161, Note_off_c, 0, 61, 61
1, 1256256, Note_on_c, 0, 68, 61
1, 1256257, Note_off_c, 0, 64, 59
1, 1256283, Note_off_c, 0, 44, 56
1, 1256358, Control_c, 0, 64, 103
1, 1256359, Note_off_c, 0, 68, 55
1, 1256370, Note_on_c, 0, 45, 92
1, 1256373, Control_c, 0, 64, 70
1, 1256386, Note_on_c, 0, 61, 61
1, 1256388, Control_c, 0, 64, 41
1, 1256402, Control_c, 0, 64, 0
1, 1256462, Control_c, 0, 64, 41
1, 1256475, Note_on_c, 0, 64, 63
1, 1256476, Control_c, 0, 64, 57
1, 1256491, Control_c, 0, 64, 67
1, 1256492, Note_off_c, 0, 61, 59
1, 1256506, Control_c, 0, 64, 75
1, 1256520, Control_c, 0, 64, 85
1, 1256535, Control_c, 0, 64, 94
1, 1256550, Control_c, 0, 64, 106
1, 1256565, Control_c, 0, 64, 127
1, 1256585, Note_on_c, 0, 69, 59
1, 1256596, Note_off_c, 0, 64, 61
1, 1256684, Note_off_c, 0, 69, 58
1, 1256694, Note_on_c, 0, 61, 60
1, 1256814, Note_on_c, 0, 64, 48
1, 1256834, Note_off_c, 0, 61, 58
1, 1256887, Note_off_c, 0, 64, 64
1, 1256889, Note_on_c, 0, 69, 57
1, 1256895, Note_off_c, 0, 45, 56
1, 1256955, Note_off_c, 0, 69, 58
1, 1257005, Note_on_c, 0, 42, 100
1, 1257017, Control_c, 0, 64, 94
1, 1257030, Note_on_c, 0, 61, 64
1, 1257032, Control_c, 0, 64, 66
1, 1257047, Control_c, 0, 64, 44
1, 1257062, Control_c, 0, 64, 0
1, 1257107, Control_c, 0, 64, 34
1, 1257122, Control_c, 0, 64, 53
1, 1257137, Control_c, 0, 64, 66
1, 1257141, Note_on_c, 0, 63, 60
1, 1257151, Control_c, 0, 64, 73
1, 1257163, Note_off_c, 0, 61, 60
1, 1257166, Control_c, 0, 64, 83
1, 1257181, Control_c, 0, 64, 92
1, 1257196, Control_c, 0, 64, 104
1, 1257211, Control_c, 0, 64, 127
1, 1257249, Note_on_c, 0, 66, 50
1, 1257253, Note_off_c, 0, 63, 59
1, 1257351, Note_off_c, 0, 66, 59
1, 1257380, Note_on_c, 0, 61, 56
1, 1257461, Note_off_c, 0, 61, 60
1, 1257473, Note_on_c, 0, 63, 58
1, 1257536, Note_off_c, 0, 63, 60
1, 1257558, Note_on_c, 0, 66, 57
1, 1257593, Note_off_c, 0, 42, 56
1, 1257640, Note_off_c, 0, 66, 48
1, 1257692, Control_c, 0, 64, 120
1, 1257697, Note_on_c, 0, 44, 83
1, 1257707, Control_c, 0, 64, 101
1, 1257711, Note_on_c, 0, 60, 62
1, 1257722, Control_c, 0, 64, 90
1, 1257737, Control_c, 0, 64, 78
1, 1257751, Control_c, 0, 64, 68
1, 1257766, Control_c, 0, 64, 55
1, 1257781, Control_c, 0, 64, 29
1, 1257796, Control_c, 0, 64, 0
1, 1257845, Note_on_c, 0, 63, 49
1, 1257870, Control_c, 0, 64, 31
1, 1257885, Control_c, 0, 64, 52
1, 1257900, Control_c, 0, 64, 63
1, 1257915, Control_c, 0, 64, 68
1, 1257919, Note_off_c, 0, 60, 62
1, 1257930, Control_c, 0, 64, 73
1, 1257945, Control_c, 0, 64, 79
1, 1257956, Note_on_c, 0, 68, 47
1, 1257960, Control_c, 0, 64, 84
1, 1257974, Control_c, 0, 64, 90
1, 1257981, Note_off_c, 0, 63, 51
1, 1257989, Control_c, 0, 64, 95
1, 1258004, Control_c, 0, 64, 99
1, 1258019, Control_c, 0, 64, 103
1, 1258034, Control_c, 0, 64, 105
1, 1258049, Control_c, 0, 64, 108
1, 1258064, Control_c, 0, 64, 110
1, 1258105, Note_on_c, 0, 60, 50
1, 1258131, Note_off_c, 0, 68, 40
1, 1258222, Note_off_c, 0, 60, 59
1, 1258230, Note_on_c, 0, 63, 50
1, 1258309, Note_off_c, 0, 44, 51
1, 1258322, Note_off_c, 0, 63, 58
1, 1258349, Note_on_c, 0, 68, 43
1, 1258530, Control_c, 0, 64, 108
1, 1258560, Control_c, 0, 64, 106
1, 1258587, Note_on_c, 0, 37, 75
1, 1258589, Control_c, 0, 64, 103
1, 1258604, Control_c, 0, 64, 100
1, 1258619, Control_c, 0, 64, 96
1, 1258627, Note_on_c, 0, 61, 49
1, 1258634, Control_c, 0, 64, 91
1, 1258641, Note_off_c, 0, 68, 38
1, 1258648, Control_c, 0, 64, 84
1, 1258663, Control_c, 0, 64, 74
1, 1258678, Control_c, 0, 64, 66
1, 1258693, Control_c, 0, 64, 56
1, 1258709, Control_c, 0, 64, 44
1, 1258723, Control_c, 0, 64, 0
1, 1258827, Control_c, 0, 64, 36
1, 1258831, Note_on_c, 0, 65, 36
1, 1258842, Control_c, 0, 64, 53
1, 1258857, Control_c, 0, 64, 64
1, 1258871, Control_c, 0, 64, 69
1, 1258886, Control_c, 0, 64, 75
1, 1258901, Control_c, 0, 64, 83
1, 1258916, Control_c, 0, 64, 94
1, 1258938, Control_c, 0, 64, 127
1, 1258951, Note_off_c, 0, 61, 31
1, 1258976, Note_on_c, 0, 68, 40
1, 1259002, Note_off_c, 0, 65, 37
1, 1259037, Note_off_c, 0, 37, 61
1, 1259156, Note_on_c, 0, 61, 44
1, 1259195, Note_off_c, 0, 68, 33
1, 1259313, Note_on_c, 0, 65, 37
1, 1259317, Note_off_c, 0, 61, 36
1, 1259404, Note_off_c, 0, 65, 51
1, 1259450, Note_on_c, 0, 68, 34
1, 1259620, Note_on_c, 0, 84, 66
1, 1259634, Note_on_c, 0, 61, 43
1, 1259659, Note_off_c, 0, 68, 38
1, 1259763, Note_off_c, 0, 61, 51
1, 1259771, Note_off_c, 0, 84, 59
1, 1259778, Note_on_c, 0, 65, 40
1, 1259851, Note_off_c, 0, 65, 54
1, 1259893, Note_on_c, 0, 68, 38
1, 1259954, Note_on_c, 0, 85, 83
1, 1259969, Note_off_c, 0, 68, 53
1, 1259992, Note_on_c, 0, 61, 43
1, 1260036, Note_off_c, 0, 61, 61
1, 1260081, Note_on_c, 0, 65, 41
1, 1260112, Note_off_c, 0, 85, 61
1, 1260115, Note_off_c, 0, 65, 57
1, 1260169, Note_on_c, 0, 68, 42
1, 1260332, Note_on_c, 0, 86, 68
1, 1260347, Note_off_c, 0, 68, 36
1, 1260362, Note_on_c, 0, 61, 40
1, 1260400, Control_c, 0, 64, 104
1, 1260422, Control_c, 0, 64, 87
1, 1260437, Control_c, 0, 64, 74
1, 1260451, Control_c, 0, 64, 65
1, 1260466, Control_c, 0, 64, 61
1, 1260481, Control_c, 0, 64, 64
1, 1260496, Control_c, 0, 64, 69
1, 1260510, Control_c, 0, 64, 72
1, 1260511, Note_on_c, 0, 66, 35
1, 1260525, Control_c, 0, 64, 76
1, 1260540, Control_c, 0, 64, 81
1, 1260555, Control_c, 0, 64, 89
1, 1260570, Control_c, 0, 64, 98
1, 1260584, Control_c, 0, 64, 110
1, 1260592, Note_off_c, 0, 61, 33
1, 1260599, Control_c, 0, 64, 127
1, 1260617, Note_off_c, 0, 66, 47
1, 1260633, Note_on_c, 0, 69, 26
1, 1260643, Note_off_c, 0, 86, 64
1, 1260705, Note_off_c, 0, 69, 55
1, 1260714, Note_on_c, 0, 61, 45
1, 1260791, Control_c, 0, 67, 39
1, 1260806, Control_c, 0, 67, 47
1, 1260821, Control_c, 0, 67, 52
1, 1260836, Control_c, 0, 67, 56
1, 1260839, Note_off_c, 0, 61, 54
1, 1260841, Note_on_c, 0, 66, 53
1, 1260851, Control_c, 0, 67, 58
1, 1260866, Control_c, 0, 67, 63
1, 1260881, Control_c, 0, 67, 64
1, 1260899, Note_off_c, 0, 66, 54
1, 1260941, Note_on_c, 0, 69, 32
1, 1260969, Control_c, 0, 67, 63
1, 1260984, Control_c, 0, 67, 63
1, 1261014, Control_c, 0, 67, 62
1, 1261028, Control_c, 0, 67, 61
1, 1261043, Control_c, 0, 67, 61
1, 1261057, Note_on_c, 0, 42, 72
1, 1261058, Control_c, 0, 67, 60
1, 1261068, Note_on_c, 0, 61, 42
1, 1261068, Note_off_c, 0, 69, 36
1, 1261089, Control_c, 0, 67, 60
1, 1261104, Control_c, 0, 64, 102
1, 1261118, Control_c, 0, 64, 85
1, 1261133, Control_c, 0, 64, 80
1, 1261133, Control_c, 0, 67, 59
1, 1261170, Control_c, 0, 64, 81
1, 1261170, Control_c, 0, 67, 58
1, 1261185, Control_c, 0, 64, 84
1, 1261200, Control_c, 0, 64, 88
1, 1261206, Note_on_c, 0, 66, 45
1, 1261214, Control_c, 0, 64, 96
1, 1261214, Control_c, 0, 67, 58
1, 1261229, Note_off_c, 0, 61, 36
1, 1261229, Control_c, 0, 64, 104
1, 1261244, Note_off_c, 0, 42, 59
1, 1261244, Control_c, 0, 64, 114
1, 1261259, Control_c, 0, 64, 127
1, 1261259, Control_c, 0, 67, 57
1, 1261268, Note_off_c, 0, 66, 55
1, 1261274, Control_c, 0, 67, 57
1, 1261311, Note_on_c, 0, 69, 28
1, 1261318, Control_c, 0, 67, 56
1, 1261363, Control_c, 0, 67, 56
1, 1261376, Note_off_c, 0, 69, 47
1, 1261390, Note_on_c, 0, 45, 74
1, 1261408, Note_on_c, 0, 61, 37
1, 1261458, Note_off_c, 0, 61, 57
1, 1261489, Note_on_c, 0, 66, 47
1, 1261540, Note_off_c, 0, 66, 58
1, 1261562, Note_off_c, 0, 45, 59
1, 1261611, Note_on_c, 0, 69, 28
1, 1261629, Control_c, 0, 67, 56
1, 1261688, Control_c, 0, 64, 121
1, 1261703, Control_c, 0, 64, 114
1, 1261718, Control_c, 0, 64, 108
1, 1261718, Control_c, 0, 67, 56
1, 1261733, Control_c, 0, 64, 103
1, 1261748, Control_c, 0, 64, 97
1, 1261757, Note_off_c, 0, 69, 40
1, 1261759, Note_on_c, 0, 49, 64
1, 1261763, Control_c, 0, 64, 90
1, 1261778, Control_c, 0, 64, 82
1, 1261792, Control_c, 0, 64, 73
1, 1261795, Note_on_c, 0, 61, 39
1, 1261807, Control_c, 0, 64, 64
1, 1261822, Control_c, 0, 64, 55
1, 1261837, Control_c, 0, 64, 46
1, 1261851, Control_c, 0, 64, 36
1, 1261866, Control_c, 0, 64, 34
1, 1261881, Control_c, 0, 64, 38
1, 1261897, Control_c, 0, 64, 46
1, 1261912, Control_c, 0, 64, 53
1, 1261934, Control_c, 0, 64, 60
1, 1261936, Note_on_c, 0, 65, 31
1, 1261948, Control_c, 0, 64, 65
1, 1261959, Note_off_c, 0, 61, 53
1, 1261963, Control_c, 0, 64, 71
1, 1261963, Control_c, 0, 67, 56
1, 1261978, Control_c, 0, 64, 79
1, 1261993, Control_c, 0, 64, 86
1, 1261993, Control_c, 0, 67, 57
1, 1262008, Control_c, 0, 64, 91
1, 1262008, Control_c, 0, 67, 57
1, 1262016, Note_off_c, 0, 65, 51
1, 1262022, Control_c, 0, 64, 99
1, 1262022, Control_c, 0, 67, 58
1, 1262037, Note_on_c, 0, 68, 42
1, 1262037, Control_c, 0, 64, 107
1, 1262037, Control_c, 0, 67, 58
1, 1262052, Control_c, 0, 64, 126
1, 1262052, Control_c, 0, 67, 60
1, 1262063, Note_off_c, 0, 49, 62
1, 1262067, Control_c, 0, 67, 60
1, 1262082, Control_c, 0, 67, 61
1, 1262097, Control_c, 0, 67, 61
1, 1262112, Control_c, 0, 67, 62
1, 1262127, Control_c, 0, 67, 63
1, 1262139, Note_on_c, 0, 61, 39
1, 1262141, Note_off_c, 0, 68, 48
1, 1262156, Control_c, 0, 67, 64
1, 1262215, Control_c, 0, 67, 64
1, 1262233, Note_off_c, 0, 61, 54
1, 1262245, Note_on_c, 0, 65, 41
1, 1262297, Note_off_c, 0, 65, 54
1, 1262334, Control_c, 0, 67, 65
1, 1262339, Note_on_c, 0, 68, 41
1, 1262427, Note_off_c, 0, 68, 44
1, 1262437, Note_on_c, 0, 84, 71
1, 1262466, Note_on_c, 0, 61, 38
1, 1262517, Note_off_c, 0, 61, 57
1, 1262526, Control_c, 0, 67, 64
1, 1262541, Control_c, 0, 67, 64
1, 1262553, Note_on_c, 0, 65, 43
1, 1262556, Control_c, 0, 67, 63
1, 1262569, Note_off_c, 0, 84, 54
1, 1262600, Control_c, 0, 67, 63
1, 1262624, Note_off_c, 0, 65, 59
1, 1262630, Control_c, 0, 67, 62
1, 1262659, Note_on_c, 0, 68, 43
1, 1262738, Note_off_c, 0, 68, 47
1, 1262746, Note_on_c, 0, 85, 73
1, 1262774, Note_on_c, 0, 61, 39
1, 1262787, Control_c, 0, 67, 63
1, 1262817, Note_off_c, 0, 61, 62
1, 1262817, Control_c, 0, 67, 63
1, 1262857, Note_on_c, 0, 65, 41
1, 1262861, Control_c, 0, 67, 64
1, 1262874, Note_off_c, 0, 85, 62
1, 1262876, Control_c, 0, 67, 64
1, 1262904, Note_off_c, 0, 65, 60
1, 1262905, Control_c, 0, 67, 65
1, 1262935, Control_c, 0, 67, 65
1, 1262955, Note_on_c, 0, 68, 35
1, 1262994, Control_c, 0, 67, 66
1, 1263003, Note_off_c, 0, 68, 44
1, 1263039, Control_c, 0, 67, 67
1, 1263069, Control_c, 0, 67, 67
1, 1263083, Control_c, 0, 64, 120
1, 1263084, Note_on_c, 0, 86, 63
1, 1263098, Control_c, 0, 64, 107
1, 1263113, Control_c, 0, 64, 98
1, 1263117, Note_on_c, 0, 61, 42
1, 1263128, Control_c, 0, 64, 90
1, 1263143, Control_c, 0, 64, 79
1, 1263158, Control_c, 0, 64, 68
1, 1263158, Control_c, 0, 67, 68
1, 1263172, Control_c, 0, 64, 59
1, 1263187, Control_c, 0, 64, 52
1, 1263202, Control_c, 0, 64, 53
1, 1263216, Control_c, 0, 64, 58
1, 1263231, Control_c, 0, 64, 61
1, 1263239, Note_on_c, 0, 66, 40
1, 1263246, Control_c, 0, 64, 64
1, 1263261, Control_c, 0, 64, 69
1, 1263268, Note_off_c, 0, 61, 36
1, 1263276, Control_c, 0, 64, 78
1, 1263290, Control_c, 0, 64, 89
1, 1263305, Control_c, 0, 64, 98
1, 1263320, Note_off_c, 0, 66, 55
1, 1263320, Control_c, 0, 64, 108
1, 1263331, Note_off_c, 0, 86, 65
1, 1263335, Control_c, 0, 64, 127
1, 1263348, Note_on_c, 0, 69, 33
1, 1263419, Note_off_c, 0, 69, 59
1, 1263431, Control_c, 0, 67, 68
1, 1263432, Note_on_c, 0, 61, 34
1, 1263446, Control_c, 0, 67, 69
1, 1263461, Control_c, 0, 67, 69
1, 1263476, Control_c, 0, 67, 71
1, 1263489, Control_c, 0, 67, 71
1, 1263505, Control_c, 0, 67, 76
1, 1263519, Control_c, 0, 67, 95
1, 1263522, Note_off_c, 0, 61, 53
1, 1263534, Note_on_c, 0, 66, 48
1, 1263534, Control_c, 0, 67, 101
1, 1263584, Note_off_c, 0, 66, 59
1, 1263626, Note_on_c, 0, 69, 31
1, 1263715, Note_on_c, 0, 42, 65
1, 1263721, Note_off_c, 0, 69, 54
1, 1263749, Note_on_c, 0, 61, 38
1, 1263772, Control_c, 0, 67, 99
1, 1263829, Note_off_c, 0, 61, 50
1, 1263840, Note_on_c, 0, 66, 47
1, 1263847, Note_off_c, 0, 42, 57
1, 1263905, Control_c, 0, 67, 97
1, 1263920, Note_off_c, 0, 66, 50
1, 1263965, Note_on_c, 0, 69, 31
1, 1264013, Note_off_c, 0, 69, 52
1, 1264021, Note_on_c, 0, 45, 63
1, 1264046, Note_on_c, 0, 61, 41
1, 1264100, Note_off_c, 0, 61, 57
1, 1264133, Note_off_c, 0, 45, 59
1, 1264139, Note_on_c, 0, 66, 47
1, 1264190, Note_off_c, 0, 66, 62
1, 1264243, Note_on_c, 0, 69, 38
1, 1264311, Note_off_c, 0, 69, 47
1, 1264313, Control_c, 0, 64, 123
1, 1264328, Control_c, 0, 64, 105
1, 1264342, Control_c, 0, 64, 94
1, 1264357, Control_c, 0, 64, 84
1, 1264363, Note_on_c, 0, 49, 59
1, 1264372, Control_c, 0, 64, 71
1, 1264387, Control_c, 0, 64, 62
1, 1264388, Note_on_c, 0, 61, 34
1, 1264402, Control_c, 0, 64, 50
1, 1264416, Control_c, 0, 64, 36
1, 1264431, Control_c, 0, 64, 27
1, 1264446, Control_c, 0, 64, 29
1, 1264461, Control_c, 0, 64, 36
1, 1264476, Control_c, 0, 64, 45
1, 1264479, Note_off_c, 0, 61, 54
1, 1264487, Note_on_c, 0, 65, 46
1, 1264490, Control_c, 0, 64, 54
1, 1264505, Control_c, 0, 64, 61
1, 1264520, Control_c, 0, 64, 67
1, 1264535, Control_c, 0, 64, 74
1, 1264550, Control_c, 0, 64, 81
1, 1264565, Control_c, 0, 64, 86
1, 1264566, Note_off_c, 0, 65, 58
1, 1264580, Control_c, 0, 64, 94
1, 1264595, Note_on_c, 0, 68, 42
1, 1264595, Control_c, 0, 64, 101
1, 1264604, Note_off_c, 0, 49, 61
1, 1264610, Control_c, 0, 64, 110
1, 1264624, Control_c, 0, 64, 127
1, 1264651, Note_off_c, 0, 68, 55
1, 1264688, Note_on_c, 0, 61, 35
1, 1264734, Note_off_c, 0, 61, 59
1, 1264772, Note_on_c, 0, 65, 45
1, 1264836, Note_off_c, 0, 65, 57
1, 1264869, Note_on_c, 0, 68, 44
1, 1264969, Note_off_c, 0, 68, 51
1, 1264972, Control_c, 0, 64, 116
1, 1264987, Control_c, 0, 64, 99
1, 1264994, Note_on_c, 0, 78, 65
1, 1265002, Control_c, 0, 64, 84
1, 1265009, Note_on_c, 0, 61, 45
1, 1265016, Control_c, 0, 64, 70
1, 1265031, Control_c, 0, 64, 58
1, 1265046, Control_c, 0, 64, 50
1, 1265060, Control_c, 0, 64, 52
1, 1265075, Control_c, 0, 64, 59
1, 1265091, Control_c, 0, 64, 64
1, 1265101, Note_on_c, 0, 66, 50
1, 1265106, Control_c, 0, 64, 71
1, 1265114, Note_off_c, 0, 61, 50
1, 1265121, Control_c, 0, 64, 81
1, 1265136, Control_c, 0, 64, 94
1, 1265151, Control_c, 0, 64, 108
1, 1265151, Control_c, 0, 67, 95
1, 1265158, Note_off_c, 0, 78, 57
1, 1265165, Control_c, 0, 64, 127
1, 1265175, Note_off_c, 0, 66, 57
1, 1265200, Note_on_c, 0, 69, 45
1, 1265261, Note_off_c, 0, 69, 51
1, 1265269, Control_c, 0, 64, 106
1, 1265284, Control_c, 0, 64, 82
1, 1265289, Note_on_c, 0, 81, 77
1, 1265298, Control_c, 0, 64, 71
1, 1265298, Control_c, 0, 67, 95
1, 1265302, Note_on_c, 0, 61, 43
1, 1265313, Control_c, 0, 64, 69
1, 1265328, Control_c, 0, 64, 72
1, 1265343, Control_c, 0, 64, 76
1, 1265352, Note_off_c, 0, 61, 59
1, 1265358, Control_c, 0, 64, 80
1, 1265358, Control_c, 0, 67, 97
1, 1265373, Control_c, 0, 64, 83
1, 1265384, Note_on_c, 0, 66, 51
1, 1265388, Control_c, 0, 64, 87
1, 1265403, Control_c, 0, 64, 90
1, 1265418, Control_c, 0, 64, 91
1, 1265427, Note_off_c, 0, 66, 62
1, 1265432, Control_c, 0, 64, 91
1, 1265447, Control_c, 0, 64, 92
1, 1265462, Note_off_c, 0, 81, 60
1, 1265477, Control_c, 0, 67, 99
1, 1265486, Note_on_c, 0, 69, 40
1, 1265551, Control_c, 0, 64, 91
1, 1265556, Note_off_c, 0, 69, 42
1, 1265565, Control_c, 0, 64, 91
1, 1265565, Control_c, 0, 67, 101
1, 1265580, Control_c, 0, 64, 90
1, 1265595, Control_c, 0, 64, 88
1, 1265609, Control_c, 0, 64, 85
1, 1265609, Control_c, 0, 67, 104
1, 1265624, Control_c, 0, 64, 79
1, 1265632, Note_on_c, 0, 85, 64
1, 1265635, Note_on_c, 0, 61, 37
1, 1265639, Control_c, 0, 64, 69
1, 1265654, Control_c, 0, 64, 59
1, 1265654, Control_c, 0, 67, 106
1, 1265677, Control_c, 0, 64, 48
1, 1265691, Control_c, 0, 64, 39
1, 1265706, Control_c, 0, 64, 41
1, 1265715, Note_off_c, 0, 61, 54
1, 1265721, Control_c, 0, 64, 50
1, 1265736, Control_c, 0, 64, 60
1, 1265741, Note_on_c, 0, 65, 43
1, 1265751, Control_c, 0, 64, 66
1, 1265765, Control_c, 0, 64, 74
1, 1265780, Control_c, 0, 64, 83
1, 1265795, Control_c, 0, 64, 92
1, 1265810, Control_c, 0, 64, 106
1, 1265820, Note_off_c, 0, 65, 58
1, 1265824, Control_c, 0, 64, 127
1, 1265853, Note_on_c, 0, 68, 41
1, 1265883, Note_off_c, 0, 85, 64
1, 1265912, Note_off_c, 0, 68, 56
1, 1265948, Note_on_c, 0, 61, 40
1, 1266006, Note_off_c, 0, 61, 57
1, 1266044, Note_on_c, 0, 65, 44
1, 1266104, Note_off_c, 0, 65, 59
1, 1266128, Note_on_c, 0, 68, 46
1, 1266204, Note_off_c, 0, 68, 47
1, 1266240, Control_c, 0, 64, 96
1, 1266249, Note_on_c, 0, 42, 65
1, 1266253, Note_on_c, 0, 61, 43
1, 1266255, Control_c, 0, 64, 75
1, 1266270, Control_c, 0, 64, 61
1, 1266285, Control_c, 0, 64, 51
1, 1266300, Control_c, 0, 64, 51
1, 1266314, Control_c, 0, 64, 58
1, 1266329, Control_c, 0, 64, 63
1, 1266344, Control_c, 0, 64, 68
1, 1266354, Note_on_c, 0, 66, 44
1, 1266359, Control_c, 0, 64, 76
1, 1266370, Note_off_c, 0, 61, 51
1, 1266374, Control_c, 0, 64, 85
1, 1266388, Control_c, 0, 64, 91
1, 1266403, Control_c, 0, 64, 96
1, 1266425, Control_c, 0, 64, 101
1, 1266425, Control_c, 0, 67, 104
1, 1266428, Note_off_c, 0, 42, 54
1, 1266430, Note_off_c, 0, 66, 52
1, 1266440, Control_c, 0, 64, 106
1, 1266451, Note_on_c, 0, 69, 44
1, 1266455, Control_c, 0, 64, 112
1, 1266470, Control_c, 0, 64, 126
1, 1266470, Control_c, 0, 67, 102
1, 1266540, Note_off_c, 0, 69, 56
1, 1266554, Note_on_c, 0, 45, 72
1, 1266559, Control_c, 0, 64, 93
1, 1266568, Note_on_c, 0, 61, 43
1, 1266573, Control_c, 0, 64, 73
1, 1266588, Control_c, 0, 64, 58
1, 1266603, Control_c, 0, 64, 44
1, 1266618, Control_c, 0, 64, 42
1, 1266633, Control_c, 0, 64, 50
1, 1266647, Control_c, 0, 64, 59
1, 1266652, Note_on_c, 0, 66, 56
1, 1266652, Note_off_c, 0, 61, 55
1, 1266662, Control_c, 0, 64, 64
1, 1266677, Control_c, 0, 64, 70
1, 1266693, Control_c, 0, 64, 76
1, 1266708, Control_c, 0, 64, 80
1, 1266723, Control_c, 0, 64, 82
1, 1266726, Note_off_c, 0, 66, 55
1, 1266737, Control_c, 0, 64, 82
1, 1266752, Control_c, 0, 64, 83
1, 1266752, Control_c, 0, 67, 99
1, 1266761, Note_off_c, 0, 45, 60
1, 1266767, Control_c, 0, 64, 84
1, 1266771, Note_on_c, 0, 69, 40
1, 1266782, Control_c, 0, 64, 84
1, 1266841, Control_c, 0, 67, 97
1, 1266853, Note_off_c, 0, 69, 39
1, 1266870, Control_c, 0, 64, 84
1, 1266885, Control_c, 0, 64, 82
1, 1266885, Control_c, 0, 67, 95
1, 1266900, Control_c, 0, 64, 80
1, 1266900, Control_c, 0, 67, 95
1, 1266915, Control_c, 0, 64, 77
1, 1266929, Note_on_c, 0, 49, 71
1, 1266930, Control_c, 0, 64, 72
1, 1266930, Control_c, 0, 67, 94
1, 1266944, Control_c, 0, 64, 67
1, 1266944, Control_c, 0, 67, 94
1, 1266959, Control_c, 0, 64, 60
1, 1266966, Note_on_c, 0, 61, 42
1, 1266974, Control_c, 0, 64, 51
1, 1266974, Control_c, 0, 67, 93
1, 1266989, Control_c, 0, 64, 32
1, 1267004, Control_c, 0, 64, 0
1, 1267004, Control_c, 0, 67, 93
1, 1267018, Control_c, 0, 67, 92
1, 1267048, Control_c, 0, 67, 91
1, 1267078, Control_c, 0, 64, 40
1, 1267078, Note_off_c, 0, 61, 57
1, 1267093, Control_c, 0, 64, 55
1, 1267094, Note_on_c, 0, 65, 41
1, 1267108, Control_c, 0, 64, 64
1, 1267123, Control_c, 0, 64, 69
1, 1267137, Control_c, 0, 64, 73
1, 1267152, Control_c, 0, 64, 78
1, 1267174, Control_c, 0, 64, 83
1, 1267182, Note_off_c, 0, 65, 57
1, 1267189, Control_c, 0, 64, 90
1, 1267204, Control_c, 0, 64, 97
1, 1267206, Note_on_c, 0, 68, 43
1, 1267218, Control_c, 0, 64, 103
1, 1267233, Control_c, 0, 64, 112
1, 1267233, Control_c, 0, 67, 92
1, 1267248, Control_c, 0, 64, 127
1, 1267276, Note_off_c, 0, 68, 50
1, 1267289, Note_on_c, 0, 61, 42
1, 1267337, Control_c, 0, 67, 93
1, 1267364, Note_off_c, 0, 61, 54
1, 1267380, Note_on_c, 0, 65, 42
1, 1267396, Control_c, 0, 67, 93
1, 1267427, Note_off_c, 0, 49, 50
1, 1267455, Note_off_c, 0, 65, 57
1, 1267500, Note_on_c, 0, 68, 40
1, 1267554, Note_off_c, 0, 68, 57
1, 1267560, Control_c, 0, 64, 101
1, 1267562, Note_on_c, 0, 49, 77
1, 1267575, Control_c, 0, 64, 81
1, 1267590, Control_c, 0, 64, 65
1, 1267590, Control_c, 0, 67, 93
1, 1267605, Control_c, 0, 64, 46
1, 1267619, Note_on_c, 0, 57, 49
1, 1267620, Control_c, 0, 64, 0
1, 1267649, Control_c, 0, 67, 92
1, 1267664, Control_c, 0, 64, 30
1, 1267678, Control_c, 0, 64, 46
1, 1267678, Control_c, 0, 67, 91
1, 1267686, Note_off_c, 0, 57, 60
1, 1267693, Control_c, 0, 64, 59
1, 1267708, Control_c, 0, 64, 66
1, 1267710, Note_on_c, 0, 61, 52
1, 1267723, Control_c, 0, 64, 72
1, 1267738, Control_c, 0, 64, 76
1, 1267752, Control_c, 0, 64, 80
1, 1267767, Control_c, 0, 64, 84
1, 1267781, Note_off_c, 0, 61, 56
1, 1267782, Control_c, 0, 64, 88
1, 1267797, Control_c, 0, 64, 92
1, 1267811, Control_c, 0, 64, 94
1, 1267814, Note_on_c, 0, 66, 49
1, 1267826, Control_c, 0, 64, 95
1, 1267826, Control_c, 0, 67, 91
1, 1267841, Control_c, 0, 64, 96
1, 1267841, Control_c, 0, 67, 90
1, 1267871, Control_c, 0, 67, 90
1, 1267877, Note_off_c, 0, 66, 55
1, 1267886, Control_c, 0, 67, 89
1, 1267888, Note_on_c, 0, 57, 55
1, 1267901, Control_c, 0, 67, 88
1, 1267953, Control_c, 0, 64, 98
1, 1267967, Note_off_c, 0, 57, 61
1, 1267967, Control_c, 0, 67, 88
1, 1267997, Note_on_c, 0, 61, 55
1, 1267997, Control_c, 0, 67, 87
1, 1268011, Control_c, 0, 67, 87
1, 1268026, Control_c, 0, 67, 86
1, 1268041, Control_c, 0, 67, 84
1, 1268056, Control_c, 0, 67, 84
1, 1268068, Note_off_c, 0, 49, 59
1, 1268071, Note_off_c, 0, 61, 58
1, 1268071, Control_c, 0, 67, 82
1, 1268079, Note_on_c, 0, 66, 59
1, 1268085, Control_c, 0, 67, 80
1, 1268100, Control_c, 0, 67, 79
1, 1268115, Control_c, 0, 67, 78
1, 1268130, Control_c, 0, 67, 76
1, 1268145, Control_c, 0, 67, 73
1, 1268160, Control_c, 0, 67, 71
1, 1268164, Note_off_c, 0, 66, 54
1, 1268175, Control_c, 0, 64, 91
1, 1268175, Control_c, 0, 67, 58
1, 1268185, Note_on_c, 0, 49, 78
1, 1268190, Control_c, 0, 64, 80
1, 1268190, Control_c, 0, 67, 39
1, 1268192, Note_on_c, 0, 56, 61
1, 1268205, Control_c, 0, 64, 66
1, 1268205, Control_c, 0, 67, 0
1, 1268219, Control_c, 0, 64, 49
1, 1268234, Control_c, 0, 64, 0
1, 1268279, Control_c, 0, 64, 27
1, 1268286, Note_on_c, 0, 61, 52
1, 1268294, Control_c, 0, 64, 44
1, 1268300, Note_off_c, 0, 56, 55
1, 1268309, Control_c, 0, 64, 57
1, 1268324, Control_c, 0, 64, 65
1, 1268339, Control_c, 0, 64, 70
1, 1268354, Control_c, 0, 64, 75
1, 1268369, Control_c, 0, 64, 79
1, 1268371, Note_off_c, 0, 61, 60
1, 1268383, Control_c, 0, 64, 84
1, 1268392, Note_on_c, 0, 65, 40
1, 1268398, Control_c, 0, 64, 89
1, 1268413, Control_c, 0, 64, 92
1, 1268428, Control_c, 0, 64, 95
1, 1268457, Control_c, 0, 64, 98
1, 1268470, Note_off_c, 0, 65, 59
1, 1268485, Note_on_c, 0, 56, 59
1, 1268561, Control_c, 0, 64, 100
1, 1268568, Note_off_c, 0, 56, 59
1, 1268574, Note_on_c, 0, 61, 34
1, 1268626, Note_off_c, 0, 61, 59
1, 1268657, Note_on_c, 0, 65, 42
1, 1268658, Note_off_c, 0, 49, 52
1, 1268731, Note_off_c, 0, 65, 56
1, 1268776, Control_c, 0, 64, 97
1, 1268777, Note_on_c, 0, 49, 76
1, 1268788, Note_on_c, 0, 54, 54
1, 1268790, Control_c, 0, 64, 87
1, 1268805, Control_c, 0, 64, 73
1, 1268820, Control_c, 0, 64, 59
1, 1268834, Control_c, 0, 64, 39
1, 1268849, Control_c, 0, 64, 0
1, 1268879, Control_c, 0, 64, 28
1, 1268894, Control_c, 0, 64, 43
1, 1268908, Control_c, 0, 64, 56
1, 1268923, Control_c, 0, 64, 64
1, 1268931, Note_on_c, 0, 57, 34
1, 1268931, Note_off_c, 0, 54, 57
1, 1268938, Control_c, 0, 64, 69
1, 1268953, Control_c, 0, 64, 72
1, 1268968, Control_c, 0, 64, 75
1, 1268983, Control_c, 0, 64, 78
1, 1268998, Control_c, 0, 64, 82
1, 1269013, Control_c, 0, 64, 86
1, 1269025, Note_off_c, 0, 57, 57
1, 1269027, Control_c, 0, 64, 89
1, 1269035, Note_on_c, 0, 62, 38
1, 1269042, Control_c, 0, 64, 90
1, 1269057, Control_c, 0, 64, 92
1, 1269072, Control_c, 0, 64, 93
1, 1269087, Control_c, 0, 64, 93
1, 1269102, Control_c, 0, 64, 94
1, 1269124, Note_off_c, 0, 62, 57
1, 1269132, Control_c, 0, 64, 94
1, 1269154, Note_on_c, 0, 54, 46
1, 1269194, Note_off_c, 0, 54, 62
1, 1269206, Control_c, 0, 64, 95
1, 1269231, Note_on_c, 0, 57, 37
1, 1269284, Note_off_c, 0, 57, 58
1, 1269355, Note_on_c, 0, 62, 32
1, 1269359, Note_off_c, 0, 49, 48
1, 1269391, Note_off_c, 0, 62, 51
1, 1269436, Control_c, 0, 64, 94
1, 1269451, Control_c, 0, 64, 94
1, 1269481, Control_c, 0, 64, 93
1, 1269495, Control_c, 0, 64, 92
1, 1269510, Control_c, 0, 64, 90
1, 1269525, Control_c, 0, 64, 89
1, 1269540, Control_c, 0, 64, 87
1, 1269549, Note_on_c, 0, 49, 62
1, 1269555, Control_c, 0, 64, 86
1, 1269570, Control_c, 0, 64, 84
1, 1269584, Control_c, 0, 64, 81
1, 1269599, Control_c, 0, 64, 77
1, 1269614, Control_c, 0, 64, 72
1, 1269619, Note_on_c, 0, 53, 38
1, 1269629, Control_c, 0, 64, 66
1, 1269644, Control_c, 0, 64, 58
1, 1269658, Control_c, 0, 64, 46
1, 1269673, Control_c, 0, 64, 0
1, 1269788, Note_on_c, 0, 56, 30
1, 1269791, Control_c, 0, 64, 32
1, 1269806, Control_c, 0, 64, 45
1, 1269821, Control_c, 0, 64, 55
1, 1269836, Control_c, 0, 64, 61
1, 1269851, Control_c, 0, 64, 63
1, 1269865, Control_c, 0, 64, 64
1, 1269881, Control_c, 0, 64, 66
1, 1269896, Control_c, 0, 64, 68
1, 1269908, Note_on_c, 0, 61, 39
1, 1269911, Control_c, 0, 64, 70
1, 1269915, Note_off_c, 0, 56, 37
1, 1269926, Control_c, 0, 64, 72
1, 1269941, Control_c, 0, 64, 74
1, 1269955, Control_c, 0, 64, 75
1, 1269970, Control_c, 0, 64, 77
1, 1269985, Control_c, 0, 64, 78
1, 1270000, Control_c, 0, 64, 79
1, 1270014, Control_c, 0, 64, 80
1, 1270022, Note_off_c, 0, 53, 0
1, 1270029, Control_c, 0, 64, 81
1, 1270044, Control_c, 0, 64, 82
1, 1270045, Note_on_c, 0, 53, 15
1, 1270059, Control_c, 0, 64, 82
1, 1270074, Control_c, 0, 64, 83
1, 1270090, Note_off_c, 0, 61, 40
1, 1270104, Control_c, 0, 64, 84
1, 1270118, Control_c, 0, 64, 84
1, 1270133, Control_c, 0, 64, 85
1, 1270148, Control_c, 0, 64, 85
1, 1270170, Control_c, 0, 64, 86
1, 1270185, Control_c, 0, 64, 86
1, 1270185, Control_c, 0, 67, 41
1, 1270200, Control_c, 0, 67, 54
1, 1270205, Note_on_c, 0, 56, 34
1, 1270214, Control_c, 0, 64, 87
1, 1270214, Control_c, 0, 67, 65
1, 1270229, Control_c, 0, 67, 72
1, 1270230, Note_off_c, 0, 53, 43
1, 1270244, Control_c, 0, 64, 87
1, 1270244, Control_c, 0, 67, 78
1, 1270259, Control_c, 0, 67, 84
1, 1270274, Note_off_c, 0, 56, 52
1, 1270274, Control_c, 0, 67, 91
1, 1270288, Control_c, 0, 64, 88
1, 1270288, Control_c, 0, 67, 97
1, 1270299, Note_on_c, 0, 61, 34
1, 1270303, Control_c, 0, 67, 101
1, 1270318, Control_c, 0, 67, 104
1, 1270333, Control_c, 0, 64, 88
1, 1270333, Control_c, 0, 67, 106
1, 1270348, Control_c, 0, 67, 108
1, 1270363, Control_c, 0, 67, 112
1, 1270378, Control_c, 0, 67, 118
1, 1270393, Control_c, 0, 67, 122
1, 1270407, Control_c, 0, 64, 89
1, 1270407, Control_c, 0, 67, 124
1, 1270408, Note_on_c, 0, 53, 37
1, 1270410, Note_off_c, 0, 61, 38
1, 1270437, Control_c, 0, 67, 126
1, 1270511, Control_c, 0, 64, 89
1, 1270514, Note_on_c, 0, 56, 46
1, 1270530, Note_off_c, 0, 53, 36
1, 1270601, Note_off_c, 0, 56, 49
1, 1270628, Note_on_c, 0, 61, 34
1, 1270707, Note_on_c, 0, 53, 41
1, 1270708, Note_off_c, 0, 61, 39
1, 1270757, Note_off_c, 0, 53, 58
1, 1270802, Note_on_c, 0, 56, 34
1, 1270852, Note_off_c, 0, 56, 45
1, 1270908, Note_on_c, 0, 61, 37
1, 1270978, Control_c, 0, 64, 89
1, 1271007, Control_c, 0, 64, 87
1, 1271022, Control_c, 0, 64, 83
1, 1271037, Control_c, 0, 64, 75
1, 1271051, Control_c, 0, 64, 65
1, 1271062, Note_on_c, 0, 50, 39
1, 1271066, Control_c, 0, 64, 56
1, 1271078, Note_off_c, 0, 61, 40
1, 1271081, Control_c, 0, 64, 52
1, 1271096, Control_c, 0, 64, 53
1, 1271111, Control_c, 0, 64, 57
1, 1271126, Control_c, 0, 64, 60
1, 1271141, Control_c, 0, 64, 62
1, 1271156, Control_c, 0, 64, 66
1, 1271171, Control_c, 0, 64, 71
1, 1271185, Control_c, 0, 64, 76
1, 1271195, Note_on_c, 0, 54, 36
1, 1271200, Note_off_c, 0, 50, 53
1, 1271200, Control_c, 0, 64, 79
1, 1271215, Control_c, 0, 64, 81
1, 1271229, Control_c, 0, 64, 84
1, 1271244, Control_c, 0, 64, 86
1, 1271257, Note_off_c, 0, 49, 55
1, 1271259, Control_c, 0, 64, 87
1, 1271274, Control_c, 0, 64, 88
1, 1271278, Note_off_c, 0, 54, 50
1, 1271301, Note_on_c, 0, 61, 37
1, 1271407, Control_c, 0, 64, 87
1, 1271418, Note_off_c, 0, 61, 47
1, 1271418, Note_on_c, 0, 50, 46
1, 1271422, Control_c, 0, 64, 83
1, 1271436, Control_c, 0, 64, 76
1, 1271451, Control_c, 0, 64, 66
1, 1271466, Control_c, 0, 64, 55
1, 1271482, Control_c, 0, 64, 42
1, 1271497, Control_c, 0, 64, 33
1, 1271512, Control_c, 0, 64, 34
1, 1271526, Control_c, 0, 64, 40
1, 1271526, Control_c, 0, 67, 124
1, 1271531, Note_on_c, 0, 54, 30
1, 1271541, Control_c, 0, 64, 47
1, 1271555, Note_off_c, 0, 50, 54
1, 1271556, Control_c, 0, 64, 54
1, 1271571, Control_c, 0, 64, 59
1, 1271586, Control_c, 0, 64, 63
1, 1271586, Control_c, 0, 67, 122
1, 1271600, Control_c, 0, 64, 66
1, 1271610, Note_on_c, 0, 61, 43
1, 1271610, Note_off_c, 0, 54, 54
1, 1271615, Control_c, 0, 64, 68
1, 1271630, Control_c, 0, 64, 70
1, 1271645, Control_c, 0, 64, 71
1, 1271667, Control_c, 0, 64, 74
1, 1271682, Control_c, 0, 64, 75
1, 1271682, Control_c, 0, 67, 120
1, 1271697, Control_c, 0, 64, 77
1, 1271712, Control_c, 0, 64, 78
1, 1271715, Note_on_c, 0, 50, 45
1, 1271726, Note_off_c, 0, 61, 52
1, 1271727, Control_c, 0, 64, 79
1, 1271741, Control_c, 0, 64, 80
1, 1271756, Control_c, 0, 64, 81
1, 1271771, Control_c, 0, 64, 81
1, 1271801, Note_off_c, 0, 50, 56
1, 1271810, Note_on_c, 0, 54, 38
1, 1271859, Control_c, 0, 64, 82
1, 1271889, Note_off_c, 0, 54, 52
1, 1271894, Note_on_c, 0, 61, 48
1, 1271919, Control_c, 0, 64, 81
1, 1271934, Control_c, 0, 64, 79
1, 1271949, Control_c, 0, 64, 73
1, 1271964, Control_c, 0, 64, 64
1, 1271978, Control_c, 0, 64, 56
1, 1271981, Note_off_c, 0, 61, 55
1, 1271987, Note_on_c, 0, 50, 45
1, 1271993, Control_c, 0, 64, 51
1, 1272008, Control_c, 0, 64, 52
1, 1272023, Control_c, 0, 64, 57
1, 1272038, Control_c, 0, 64, 60
1, 1272052, Control_c, 0, 64, 62
1, 1272061, Note_off_c, 0, 50, 57
1, 1272067, Control_c, 0, 64, 65
1, 1272080, Note_on_c, 0, 54, 34
1, 1272082, Control_c, 0, 64, 69
1, 1272097, Control_c, 0, 64, 73
1, 1272112, Control_c, 0, 64, 75
1, 1272126, Control_c, 0, 64, 76
1, 1272141, Control_c, 0, 64, 77
1, 1272144, Note_off_c, 0, 54, 55
1, 1272156, Control_c, 0, 64, 78
1, 1272165, Note_on_c, 0, 61, 44
1, 1272171, Control_c, 0, 64, 79
1, 1272200, Control_c, 0, 64, 79
1, 1272243, Note_off_c, 0, 61, 46
1, 1272290, Control_c, 0, 64, 79
1, 1272291, Note_on_c, 0, 49, 42
1, 1272305, Control_c, 0, 64, 76
1, 1272320, Control_c, 0, 64, 67
1, 1272335, Control_c, 0, 64, 55
1, 1272349, Control_c, 0, 64, 34
1, 1272358, Note_off_c, 0, 49, 53
1, 1272364, Control_c, 0, 64, 0
1, 1272370, Note_on_c, 0, 53, 46
1, 1272417, Control_c, 0, 64, 28
1, 1272431, Control_c, 0, 64, 41
1, 1272446, Control_c, 0, 64, 52
1, 1272461, Control_c, 0, 64, 59
1, 1272476, Note_off_c, 0, 53, 57
1, 1272476, Control_c, 0, 64, 62
1, 1272477, Note_on_c, 0, 61, 46
1, 1272491, Control_c, 0, 64, 64
1, 1272506, Control_c, 0, 64, 65
1, 1272521, Control_c, 0, 64, 66
1, 1272536, Control_c, 0, 64, 68
1, 1272549, Note_off_c, 0, 61, 48
1, 1272551, Control_c, 0, 64, 70
1, 1272565, Control_c, 0, 64, 72
1, 1272580, Control_c, 0, 64, 73
1, 1272584, Note_on_c, 0, 49, 43
1, 1272595, Control_c, 0, 64, 75
1, 1272609, Control_c, 0, 64, 75
1, 1272634, Note_off_c, 0, 49, 56
1, 1272664, Note_on_c, 0, 53, 44
1, 1272757, Note_off_c, 0, 53, 53
1, 1272768, Note_on_c, 0, 61, 45
1, 1272830, Note_off_c, 0, 61, 52
1, 1272867, Note_on_c, 0, 49, 46
1, 1272876, Control_c, 0, 64, 75
1, 1272891, Control_c, 0, 64, 74
1, 1272906, Control_c, 0, 64, 72
1, 1272920, Control_c, 0, 64, 68
1, 1272935, Control_c, 0, 64, 61
1, 1272946, Note_off_c, 0, 49, 54
1, 1272950, Control_c, 0, 64, 52
1, 1272961, Note_on_c, 0, 53, 42
1, 1272965, Control_c, 0, 64, 46
1, 1272995, Control_c, 0, 64, 50
1, 1273009, Control_c, 0, 64, 55
1, 1273024, Control_c, 0, 64, 58
1, 1273039, Control_c, 0, 64, 63
1, 1273054, Control_c, 0, 64, 66
1, 1273060, Note_off_c, 0, 53, 55
1, 1273069, Note_on_c, 0, 61, 40
1, 1273070, Control_c, 0, 64, 69
1, 1273084, Control_c, 0, 64, 70
1, 1273099, Control_c, 0, 64, 71
1, 1273114, Control_c, 0, 64, 72
1, 1273129, Control_c, 0, 64, 72
1, 1273137, Note_off_c, 0, 61, 50
1, 1273144, Control_c, 0, 64, 73
1, 1273179, Note_on_c, 0, 49, 43
1, 1273238, Note_off_c, 0, 49, 56
1, 1273281, Note_on_c, 0, 53, 39
1, 1273363, Note_off_c, 0, 53, 57
1, 1273381, Note_on_c, 0, 61, 38
1, 1273418, Control_c, 0, 64, 72
1, 1273434, Note_off_c, 0, 61, 45
1, 1273462, Control_c, 0, 64, 72
1, 1273477, Control_c, 0, 64, 71
1, 1273492, Control_c, 0, 64, 70
1, 1273506, Control_c, 0, 64, 68
1, 1273521, Control_c, 0, 64, 63
1, 1273536, Control_c, 0, 64, 56
1, 1273550, Control_c, 0, 64, 50
1, 1273553, Note_on_c, 0, 49, 41
1, 1273580, Control_c, 0, 64, 54
1, 1273595, Control_c, 0, 64, 58
1, 1273610, Control_c, 0, 64, 61
1, 1273624, Control_c, 0, 64, 64
1, 1273639, Control_c, 0, 64, 67
1, 1273654, Control_c, 0, 64, 70
1, 1273669, Control_c, 0, 64, 72
1, 1273684, Control_c, 0, 64, 73
1, 1273685, Note_off_c, 0, 49, 59
1, 1273698, Control_c, 0, 64, 74
1, 1273713, Control_c, 0, 64, 74
1, 1273728, Control_c, 0, 64, 75
1, 1273733, Note_on_c, 0, 61, 45
1, 1273764, Note_off_c, 0, 61, 55
1, 1273892, Control_c, 0, 64, 74
1, 1273944, Control_c, 0, 64, 74
1, 1273947, Note_on_c, 0, 73, 65
1, 1273959, Control_c, 0, 64, 73
1, 1273974, Control_c, 0, 64, 73
1, 1273989, Control_c, 0, 64, 72
1, 1274003, Control_c, 0, 64, 71
1, 1274013, Note_on_c, 0, 61, 12
1, 1274018, Control_c, 0, 64, 70
1, 1274033, Control_c, 0, 64, 69
1, 1274048, Control_c, 0, 64, 68
1, 1274058, Note_off_c, 0, 61, 37
1, 1274062, Control_c, 0, 64, 67
1, 1274077, Control_c, 0, 64, 66
1, 1274092, Control_c, 0, 64, 66
1, 1274107, Control_c, 0, 64, 65
1, 1274122, Control_c, 0, 64, 64
1, 1274137, Control_c, 0, 64, 63
1, 1274152, Control_c, 0, 64, 63
1, 1274158, Note_on_c, 0, 61, 36
1, 1274166, Control_c, 0, 64, 62
1, 1274181, Control_c, 0, 64, 62
1, 1274191, Note_off_c, 0, 61, 52
1, 1274196, Control_c, 0, 64, 61
1, 1274211, Control_c, 0, 64, 61
1, 1274226, Control_c, 0, 64, 60
1, 1274241, Control_c, 0, 64, 60
1, 1274255, Control_c, 0, 64, 59
1, 1274285, Control_c, 0, 64, 59
1, 1274300, Control_c, 0, 64, 58
1, 1274315, Control_c, 0, 64, 58
1, 1274318, Note_on_c, 0, 61, 39
1, 1274329, Control_c, 0, 64, 57
1, 1274373, Control_c, 0, 64, 57
1, 1274392, Note_off_c, 0, 61, 54
1, 1274447, Control_c, 0, 64, 56
1, 1274462, Control_c, 0, 64, 56
1, 1274477, Control_c, 0, 64, 55
1, 1274492, Control_c, 0, 64, 55
1, 1274536, Control_c, 0, 64, 54
1, 1274537, Note_on_c, 0, 61, 28
1, 1274551, Control_c, 0, 64, 54
1, 1274572, Note_off_c, 0, 61, 46
1, 1274611, Control_c, 0, 64, 53
1, 1274640, Control_c, 0, 64, 53
1, 1274662, Control_c, 0, 64, 52
1, 1274678, Control_c, 0, 64, 52
1, 1274724, Note_on_c, 0, 72, 45
1, 1274743, Note_on_c, 0, 61, 30
1, 1274796, Note_off_c, 0, 61, 57
1, 1274810, Control_c, 0, 64, 51
1, 1274840, Control_c, 0, 64, 51
1, 1274846, Note_off_c, 0, 73, 38
1, 1274870, Control_c, 0, 64, 50
1, 1274909, Note_off_c, 0, 72, 55
1, 1274915, Control_c, 0, 64, 50
1, 1274928, Note_on_c, 0, 61, 39
1, 1274936, Note_on_c, 0, 71, 46
1, 1274945, Control_c, 0, 64, 49
1, 1274974, Control_c, 0, 64, 49
1, 1274989, Control_c, 0, 64, 48
1, 1275003, Control_c, 0, 64, 47
1, 1275004, Note_off_c, 0, 61, 51
1, 1275018, Control_c, 0, 64, 45
1, 1275033, Control_c, 0, 64, 42
1, 1275048, Control_c, 0, 64, 37
1, 1275063, Control_c, 0, 64, 30
1, 1275077, Control_c, 0, 64, 0
1, 1275199, Note_off_c, 0, 71, 37
1, 1275204, Note_on_c, 0, 70, 41
1, 1275208, Note_on_c, 0, 54, 27
1, 1275284, Control_c, 0, 64, 30
1, 1275299, Control_c, 0, 64, 41
1, 1275299, Control_c, 0, 67, 118
1, 1275314, Control_c, 0, 64, 51
1, 1275329, Control_c, 0, 64, 59
1, 1275344, Control_c, 0, 64, 62
1, 1275359, Control_c, 0, 64, 64
1, 1275372, Note_off_c, 0, 70, 61
1, 1275374, Control_c, 0, 64, 65
1, 1275389, Control_c, 0, 64, 68
1, 1275410, Control_c, 0, 64, 70
1, 1275416, Note_off_c, 0, 54, 39
1, 1275425, Control_c, 0, 64, 73
1, 1275440, Control_c, 0, 64, 75
1, 1275445, Note_on_c, 0, 61, 29
1, 1275455, Control_c, 0, 64, 77
1, 1275470, Control_c, 0, 64, 78
1, 1275486, Control_c, 0, 64, 79
1, 1275494, Note_off_c, 0, 61, 45
1, 1275500, Control_c, 0, 64, 80
1, 1275515, Control_c, 0, 64, 81
1, 1275530, Control_c, 0, 64, 82
1, 1275545, Control_c, 0, 64, 82
1, 1275560, Control_c, 0, 64, 83
1, 1275574, Control_c, 0, 64, 84
1, 1275589, Control_c, 0, 64, 84
1, 1275604, Control_c, 0, 64, 85
1, 1275619, Control_c, 0, 64, 86
1, 1275648, Control_c, 0, 64, 86
1, 1275651, Note_on_c, 0, 73, 57
1, 1275663, Control_c, 0, 64, 87
1, 1275690, Note_on_c, 0, 61, 37
1, 1275693, Note_on_c, 0, 70, 37
1, 1275693, Control_c, 0, 64, 87
1, 1275708, Control_c, 0, 64, 88
1, 1275737, Control_c, 0, 64, 88
1, 1275765, Note_off_c, 0, 61, 0
1, 1275797, Control_c, 0, 64, 89
1, 1275802, Poly_aftertouch_c, 0, 61, 127
1, 1275808, Note_on_c, 0, 61, 3
1, 1275855, Note_off_c, 0, 61, 45
1, 1275943, Note_on_c, 0, 58, 46
1, 1275944, Control_c, 0, 64, 88
1, 1275959, Control_c, 0, 64, 86
1, 1275974, Control_c, 0, 64, 80
1, 1275989, Control_c, 0, 64, 73
1, 1276004, Control_c, 0, 64, 65
1, 1276018, Control_c, 0, 64, 62
1, 1276033, Control_c, 0, 64, 63
1, 1276048, Control_c, 0, 64, 65
1, 1276050, Note_off_c, 0, 58, 56
1, 1276063, Control_c, 0, 64, 68
1, 1276078, Control_c, 0, 64, 71
1, 1276091, Note_on_c, 0, 61, 45
1, 1276092, Control_c, 0, 64, 75
1, 1276107, Control_c, 0, 64, 79
1, 1276122, Control_c, 0, 64, 82
1, 1276131, Note_off_c, 0, 70, 57
1, 1276134, Note_off_c, 0, 61, 56
1, 1276137, Control_c, 0, 64, 86
1, 1276153, Note_off_c, 0, 73, 57
1, 1276159, Control_c, 0, 64, 88
1, 1276174, Control_c, 0, 64, 91
1, 1276189, Control_c, 0, 64, 93
1, 1276204, Control_c, 0, 64, 95
1, 1276220, Control_c, 0, 64, 96
1, 1276248, Note_on_c, 0, 78, 70
1, 1276264, Control_c, 0, 64, 98
1, 1276271, Note_on_c, 0, 61, 44
1, 1276276, Note_on_c, 0, 70, 45
1, 1276310, Control_c, 0, 64, 101
1, 1276322, Note_off_c, 0, 61, 58
1, 1276339, Control_c, 0, 64, 103
1, 1276395, Note_on_c, 0, 61, 33
1, 1276400, Note_off_c, 0, 78, 52
1, 1276433, Note_off_c, 0, 70, 30
1, 1276447, Note_off_c, 0, 61, 49
1, 1276502, Control_c, 0, 64, 101
1, 1276517, Control_c, 0, 64, 98
1, 1276531, Control_c, 0, 64, 96
1, 1276531, Control_c, 0, 67, 120
1, 1276546, Control_c, 0, 64, 93
1, 1276561, Control_c, 0, 64, 89
1, 1276575, Control_c, 0, 64, 85
1, 1276581, Note_on_c, 0, 78, 62
1, 1276590, Control_c, 0, 64, 79
1, 1276602, Note_on_c, 0, 56, 44
1, 1276605, Control_c, 0, 64, 71
1, 1276615, Note_on_c, 0, 71, 38
1, 1276620, Control_c, 0, 64, 60
1, 1276635, Control_c, 0, 64, 48
1, 1276650, Control_c, 0, 64, 35
1, 1276664, Control_c, 0, 64, 27
1, 1276694, Control_c, 0, 64, 34
1, 1276709, Control_c, 0, 64, 43
1, 1276724, Control_c, 0, 64, 50
1, 1276739, Control_c, 0, 64, 55
1, 1276746, Note_off_c, 0, 56, 59
1, 1276754, Control_c, 0, 64, 59
1, 1276766, Note_on_c, 0, 61, 34
1, 1276768, Control_c, 0, 64, 61
1, 1276783, Control_c, 0, 64, 62
1, 1276798, Control_c, 0, 64, 62
1, 1276813, Control_c, 0, 64, 63
1, 1276828, Control_c, 0, 64, 64
1, 1276828, Note_off_c, 0, 61, 43
1, 1276842, Control_c, 0, 64, 65
1, 1276857, Control_c, 0, 64, 66
1, 1276872, Control_c, 0, 64, 68
1, 1276872, Control_c, 0, 67, 122
1, 1276887, Control_c, 0, 64, 69
1, 1276909, Control_c, 0, 64, 69
1, 1276924, Control_c, 0, 64, 71
1, 1276926, Note_on_c, 0, 77, 52
1, 1276939, Control_c, 0, 64, 72
1, 1276939, Control_c, 0, 67, 124
1, 1276954, Control_c, 0, 64, 72
1, 1276966, Control_c, 0, 64, 73
1, 1276966, Control_c, 0, 67, 126
1, 1276968, Note_on_c, 0, 61, 39
1, 1276992, Note_off_c, 0, 71, 59
1, 1276996, Note_off_c, 0, 78, 51
1, 1276996, Control_c, 0, 64, 73
1, 1277007, Note_off_c, 0, 61, 54
1, 1277026, Control_c, 0, 64, 74
1, 1277058, Note_off_c, 0, 77, 62
1, 1277092, Note_on_c, 0, 61, 38
1, 1277209, Note_off_c, 0, 61, 26
1, 1277264, Control_c, 0, 64, 73
1, 1277265, Note_on_c, 0, 78, 52
1, 1277279, Control_c, 0, 64, 71
1, 1277293, Control_c, 0, 64, 66
1, 1277296, Note_on_c, 0, 73, 34
1, 1277299, Note_on_c, 0, 58, 33
1, 1277308, Control_c, 0, 64, 59
1, 1277323, Control_c, 0, 64, 48
1, 1277338, Control_c, 0, 64, 41
1, 1277353, Control_c, 0, 64, 42
1, 1277368, Control_c, 0, 64, 49
1, 1277383, Control_c, 0, 64, 56
1, 1277392, Note_off_c, 0, 58, 58
1, 1277397, Control_c, 0, 64, 61
1, 1277412, Control_c, 0, 64, 65
1, 1277427, Control_c, 0, 64, 71
1, 1277431, Note_on_c, 0, 61, 46
1, 1277442, Control_c, 0, 64, 75
1, 1277457, Control_c, 0, 64, 78
1, 1277471, Control_c, 0, 64, 81
1, 1277478, Note_off_c, 0, 61, 55
1, 1277486, Control_c, 0, 64, 84
1, 1277501, Control_c, 0, 64, 87
1, 1277516, Control_c, 0, 64, 90
1, 1277531, Control_c, 0, 64, 91
1, 1277545, Control_c, 0, 64, 93
1, 1277560, Control_c, 0, 64, 93
1, 1277575, Control_c, 0, 64, 94
1, 1277589, Control_c, 0, 64, 94
1, 1277600, Note_on_c, 0, 61, 45
1, 1277604, Control_c, 0, 64, 95
1, 1277629, Note_off_c, 0, 73, 49
1, 1277630, Note_off_c, 0, 78, 59
1, 1277669, Note_off_c, 0, 61, 55
1, 1277724, Note_on_c, 0, 66, 47
1, 1277764, Note_off_c, 0, 66, 47
1, 1277775, Control_c, 0, 67, 123
1, 1277819, Control_c, 0, 64, 94
1, 1277834, Control_c, 0, 64, 94
1, 1277849, Control_c, 0, 64, 93
1, 1277849, Control_c, 0, 67, 125
1, 1277865, Control_c, 0, 64, 91
1, 1277880, Control_c, 0, 64, 89
1, 1277892, Note_on_c, 0, 80, 64
1, 1277894, Control_c, 0, 64, 85
1, 1277909, Control_c, 0, 64, 78
1, 1277914, Note_on_c, 0, 59, 39
1, 1277920, Note_on_c, 0, 75, 40
1, 1277924, Control_c, 0, 64, 69
1, 1277924, Control_c, 0, 67, 127
1, 1277939, Control_c, 0, 64, 57
1, 1277954, Control_c, 0, 64, 45
1, 1277968, Control_c, 0, 64, 40
1, 1277983, Control_c, 0, 64, 43
1, 1277996, Note_off_c, 0, 59, 58
1, 1277998, Control_c, 0, 64, 51
1, 1278012, Control_c, 0, 64, 59
1, 1278027, Control_c, 0, 64, 65
1, 1278042, Control_c, 0, 64, 73
1, 1278045, Note_on_c, 0, 66, 43
1, 1278057, Control_c, 0, 64, 80
1, 1278072, Control_c, 0, 64, 85
1, 1278086, Control_c, 0, 64, 89
1, 1278089, Note_off_c, 0, 66, 57
1, 1278101, Control_c, 0, 64, 94
1, 1278116, Control_c, 0, 64, 100
1, 1278125, Note_off_c, 0, 75, 55
1, 1278131, Control_c, 0, 64, 106
1, 1278146, Control_c, 0, 64, 118
1, 1278161, Control_c, 0, 64, 127
1, 1278174, Note_off_c, 0, 80, 58
1, 1278189, Note_on_c, 0, 66, 58
1, 1278223, Note_off_c, 0, 66, 65
1, 1278307, Note_on_c, 0, 66, 57
1, 1278310, Note_on_c, 0, 80, 68
1, 1278334, Note_on_c, 0, 75, 61
1, 1278361, Note_off_c, 0, 66, 54
1, 1278440, Note_off_c, 0, 75, 58
1, 1278480, Control_c, 0, 64, 106
1, 1278494, Control_c, 0, 64, 91
1, 1278509, Control_c, 0, 64, 77
1, 1278524, Control_c, 0, 64, 66
1, 1278532, Note_on_c, 0, 82, 64
1, 1278539, Control_c, 0, 64, 58
1, 1278553, Control_c, 0, 64, 57
1, 1278568, Control_c, 0, 64, 60
1, 1278581, Note_on_c, 0, 60, 23
1, 1278583, Control_c, 0, 64, 64
1, 1278595, Note_on_c, 0, 75, 17
1, 1278598, Control_c, 0, 64, 68
1, 1278613, Control_c, 0, 64, 74
1, 1278627, Control_c, 0, 64, 79
1, 1278642, Control_c, 0, 64, 81
1, 1278643, Note_off_c, 0, 80, 49
1, 1278650, Note_off_c, 0, 75, 43
1, 1278657, Control_c, 0, 64, 83
1, 1278671, Note_off_c, 0, 60, 49
1, 1278673, Control_c, 0, 64, 85
1, 1278688, Control_c, 0, 64, 87
1, 1278703, Control_c, 0, 64, 89
1, 1278706, Note_on_c, 0, 66, 43
1, 1278717, Control_c, 0, 64, 90
1, 1278732, Control_c, 0, 64, 90
1, 1278776, Control_c, 0, 64, 90
1, 1278791, Control_c, 0, 64, 86
1, 1278806, Control_c, 0, 64, 77
1, 1278821, Control_c, 0, 64, 67
1, 1278829, Note_off_c, 0, 66, 49
1, 1278835, Control_c, 0, 64, 59
1, 1278840, Note_on_c, 0, 78, 59
1, 1278850, Control_c, 0, 64, 58
1, 1278853, Note_on_c, 0, 60, 38
1, 1278865, Control_c, 0, 64, 61
1, 1278867, Note_on_c, 0, 75, 39
1, 1278880, Control_c, 0, 64, 64
1, 1278895, Control_c, 0, 64, 67
1, 1278909, Control_c, 0, 64, 71
1, 1278924, Note_off_c, 0, 82, 61
1, 1278924, Control_c, 0, 64, 76
1, 1278939, Control_c, 0, 64, 81
1, 1278954, Control_c, 0, 64, 84
1, 1278966, Note_off_c, 0, 60, 57
1, 1278969, Control_c, 0, 64, 86
1, 1278984, Control_c, 0, 64, 88
1, 1278999, Control_c, 0, 64, 90
1, 1279000, Note_off_c, 0, 78, 60
1, 1279013, Note_on_c, 0, 70, 40
1, 1279013, Control_c, 0, 64, 91
1, 1279017, Note_off_c, 0, 75, 57
1, 1279028, Control_c, 0, 64, 92
1, 1279052, Note_off_c, 0, 70, 50
1, 1279132, Control_c, 0, 64, 91
1, 1279154, Control_c, 0, 64, 91
1, 1279168, Control_c, 0, 64, 90
1, 1279183, Control_c, 0, 64, 88
1, 1279198, Control_c, 0, 64, 86
1, 1279212, Note_on_c, 0, 78, 60
1, 1279214, Control_c, 0, 64, 84
1, 1279229, Control_c, 0, 64, 81
1, 1279243, Control_c, 0, 64, 78
1, 1279256, Note_on_c, 0, 61, 30
1, 1279258, Control_c, 0, 64, 74
1, 1279270, Note_on_c, 0, 73, 29
1, 1279273, Control_c, 0, 64, 66
1, 1279288, Control_c, 0, 64, 58
1, 1279303, Control_c, 0, 64, 48
1, 1279317, Control_c, 0, 64, 40
1, 1279347, Control_c, 0, 64, 46
1, 1279362, Control_c, 0, 64, 54
1, 1279371, Note_off_c, 0, 61, 50
1, 1279377, Control_c, 0, 64, 61
1, 1279392, Control_c, 0, 64, 65
1, 1279407, Control_c, 0, 64, 70
1, 1279407, Note_on_c, 0, 70, 46
1, 1279422, Control_c, 0, 64, 75
1, 1279437, Control_c, 0, 64, 78
1, 1279451, Control_c, 0, 64, 80
1, 1279457, Note_off_c, 0, 70, 57
1, 1279467, Control_c, 0, 64, 83
1, 1279481, Control_c, 0, 64, 86
1, 1279496, Control_c, 0, 64, 89
1, 1279511, Control_c, 0, 64, 91
1, 1279541, Control_c, 0, 64, 91
1, 1279589, Note_on_c, 0, 70, 28
1, 1279622, Note_off_c, 0, 70, 53
1, 1279713, Note_on_c, 0, 70, 47
1, 1279719, Control_c, 0, 64, 91
1, 1279749, Note_off_c, 0, 70, 51
1, 1279778, Control_c, 0, 64, 90
1, 1279807, Control_c, 0, 64, 90
1, 1279822, Control_c, 0, 64, 89
1, 1279837, Control_c, 0, 64, 88
1, 1279841, Note_off_c, 0, 73, 36
1, 1279852, Control_c, 0, 64, 88
1, 1279866, Control_c, 0, 64, 87
1, 1279881, Control_c, 0, 64, 86
1, 1279896, Note_on_c, 0, 77, 50
1, 1279904, Control_c, 0, 64, 85
1, 1279918, Control_c, 0, 64, 84
1, 1279925, Note_on_c, 0, 68, 34
1, 1279933, Control_c, 0, 64, 82
1, 1279948, Control_c, 0, 64, 81
1, 1279963, Control_c, 0, 64, 79
1, 1279978, Control_c, 0, 64, 76
1, 1279992, Control_c, 0, 64, 71
1, 1280007, Control_c, 0, 64, 64
1, 1280022, Control_c, 0, 64, 55
1, 1280030, Note_off_c, 0, 68, 36
1, 1280037, Control_c, 0, 64, 45
1, 1280041, Note_on_c, 0, 75, 67
1, 1280052, Control_c, 0, 64, 38
1, 1280066, Control_c, 0, 64, 38
1, 1280070, Note_on_c, 0, 71, 44
1, 1280081, Control_c, 0, 64, 43
1, 1280096, Control_c, 0, 64, 50
1, 1280111, Control_c, 0, 64, 56
1, 1280125, Control_c, 0, 64, 61
1, 1280140, Control_c, 0, 64, 65
1, 1280152, Note_off_c, 0, 77, 39
1, 1280155, Control_c, 0, 64, 69
1, 1280170, Control_c, 0, 64, 73
1, 1280185, Control_c, 0, 64, 75
1, 1280194, Note_off_c, 0, 71, 48
1, 1280200, Control_c, 0, 64, 78
1, 1280201, Note_on_c, 0, 73, 65
1, 1280215, Control_c, 0, 64, 80
1, 1280218, Note_on_c, 0, 70, 48
1, 1280230, Control_c, 0, 64, 83
1, 1280245, Control_c, 0, 64, 85
1, 1280259, Note_off_c, 0, 75, 55
1, 1280259, Control_c, 0, 64, 86
1, 1280275, Control_c, 0, 64, 87
1, 1280289, Control_c, 0, 64, 87
1, 1280309, Note_off_c, 0, 78, 29
1, 1280319, Control_c, 0, 64, 88
1, 1280321, Note_off_c, 0, 70, 58
1, 1280325, Note_on_c, 0, 68, 55
1, 1280330, Note_on_c, 0, 71, 62
1, 1280339, Note_off_c, 0, 73, 57
1, 1280358, Note_off_c, 0, 68, 66
1, 1280414, Note_off_c, 0, 71, 57
1, 1280483, Control_c, 0, 64, 87
1, 1280497, Control_c, 0, 64, 85
1, 1280510, Note_on_c, 0, 70, 52
1, 1280512, Control_c, 0, 64, 80
1, 1280521, Note_on_c, 0, 66, 35
1, 1280527, Control_c, 0, 64, 70
1, 1280539, Note_on_c, 0, 54, 35
1, 1280541, Control_c, 0, 64, 59
1, 1280556, Control_c, 0, 64, 46
1, 1280571, Control_c, 0, 64, 36
1, 1280586, Note_off_c, 0, 66, 40
1, 1280586, Control_c, 0, 64, 35
1, 1280601, Control_c, 0, 64, 41
1, 1280608, Note_off_c, 0, 70, 61
1, 1280615, Control_c, 0, 64, 48
1, 1280630, Control_c, 0, 64, 56
1, 1280653, Control_c, 0, 64, 61
1, 1280668, Control_c, 0, 64, 66
1, 1280681, Note_off_c, 0, 54, 58
1, 1280683, Control_c, 0, 64, 68
1, 1280697, Note_on_c, 0, 61, 43
1, 1280697, Control_c, 0, 64, 69
1, 1280712, Control_c, 0, 64, 70
1, 1280727, Control_c, 0, 64, 71
1, 1280740, Note_off_c, 0, 61, 61
1, 1280741, Control_c, 0, 64, 73
1, 1280756, Control_c, 0, 64, 75
1, 1280771, Control_c, 0, 64, 76
1, 1280786, Control_c, 0, 64, 76
1, 1280815, Control_c, 0, 64, 77
1, 1280841, Note_on_c, 0, 73, 66
1, 1280853, Note_on_c, 0, 61, 50
1, 1280860, Control_c, 0, 64, 77
1, 1280861, Note_on_c, 0, 70, 56
1, 1280896, Note_off_c, 0, 61, 61
1, 1280994, Note_on_c, 0, 61, 50
1, 1281037, Control_c, 0, 64, 77
1, 1281040, Note_off_c, 0, 61, 59
1, 1281083, Control_c, 0, 64, 76
1, 1281098, Control_c, 0, 64, 72
1, 1281112, Control_c, 0, 64, 66
1, 1281127, Control_c, 0, 64, 54
1, 1281142, Control_c, 0, 64, 40
1, 1281150, Note_on_c, 0, 58, 59
1, 1281157, Control_c, 0, 64, 0
1, 1281172, Control_c, 0, 64, 29
1, 1281187, Control_c, 0, 64, 41
1, 1281201, Control_c, 0, 64, 56
1, 1281216, Control_c, 0, 64, 65
1, 1281231, Control_c, 0, 64, 70
1, 1281246, Control_c, 0, 64, 74
1, 1281261, Control_c, 0, 64, 77
1, 1281266, Note_off_c, 0, 58, 59
1, 1281276, Control_c, 0, 64, 79
1, 1281291, Note_on_c, 0, 61, 55
1, 1281291, Control_c, 0, 64, 83
1, 1281306, Control_c, 0, 64, 87
1, 1281308, Note_off_c, 0, 70, 58
1, 1281309, Note_off_c, 0, 73, 57
1, 1281320, Control_c, 0, 64, 90
1, 1281335, Note_off_c, 0, 61, 57
1, 1281335, Control_c, 0, 64, 92
1, 1281350, Control_c, 0, 64, 92
1, 1281364, Control_c, 0, 64, 93
1, 1281443, Note_on_c, 0, 78, 74
1, 1281452, Note_on_c, 0, 61, 53
1, 1281471, Note_on_c, 0, 70, 39
1, 1281508, Note_off_c, 0, 61, 58
1, 1281583, Note_on_c, 0, 61, 53
1, 1281608, Note_off_c, 0, 70, 35
1, 1281608, Note_off_c, 0, 78, 55
1, 1281629, Note_off_c, 0, 61, 54
1, 1281667, Control_c, 0, 64, 92
1, 1281682, Control_c, 0, 64, 92
1, 1281696, Control_c, 0, 64, 91
1, 1281711, Control_c, 0, 64, 90
1, 1281726, Control_c, 0, 64, 88
1, 1281741, Control_c, 0, 64, 86
1, 1281756, Control_c, 0, 64, 84
1, 1281771, Note_on_c, 0, 78, 58
1, 1281771, Control_c, 0, 64, 82
1, 1281786, Control_c, 0, 64, 80
1, 1281795, Note_on_c, 0, 56, 39
1, 1281801, Control_c, 0, 64, 77
1, 1281807, Note_on_c, 0, 71, 40
1, 1281815, Control_c, 0, 64, 72
1, 1281830, Control_c, 0, 64, 65
1, 1281845, Control_c, 0, 64, 57
1, 1281860, Control_c, 0, 64, 43
1, 1281875, Control_c, 0, 64, 0
1, 1281908, Note_off_c, 0, 56, 57
1, 1281932, Note_on_c, 0, 61, 49
1, 1281984, Note_off_c, 0, 61, 54
1, 1282009, Control_c, 0, 64, 35
1, 1282024, Control_c, 0, 64, 51
1, 1282039, Control_c, 0, 64, 59
1, 1282054, Control_c, 0, 64, 62
1, 1282068, Control_c, 0, 64, 63
1, 1282083, Control_c, 0, 64, 65
1, 1282091, Note_on_c, 0, 77, 54
1, 1282098, Control_c, 0, 64, 68
1, 1282112, Control_c, 0, 64, 71
1, 1282114, Note_on_c, 0, 61, 43
1, 1282127, Control_c, 0, 64, 73
1, 1282149, Control_c, 0, 64, 75
1, 1282164, Control_c, 0, 64, 77
1, 1282165, Note_off_c, 0, 71, 52
1, 1282172, Note_off_c, 0, 61, 59
1, 1282179, Control_c, 0, 64, 78
1, 1282194, Control_c, 0, 64, 79
1, 1282209, Control_c, 0, 64, 80
1, 1282211, Note_off_c, 0, 77, 61
1, 1282212, Note_off_c, 0, 78, 35
1, 1282224, Control_c, 0, 64, 80
1, 1282250, Note_on_c, 0, 61, 41
1, 1282307, Note_off_c, 0, 61, 55
1, 1282417, Control_c, 0, 64, 80
1, 1282427, Note_on_c, 0, 78, 51
1, 1282432, Control_c, 0, 64, 78
1, 1282445, Note_on_c, 0, 58, 41
1, 1282447, Control_c, 0, 64, 72
1, 1282459, Note_on_c, 0, 73, 41
1, 1282461, Control_c, 0, 64, 64
1, 1282476, Control_c, 0, 64, 54
1, 1282491, Control_c, 0, 64, 44
1, 1282506, Control_c, 0, 64, 44
1, 1282520, Control_c, 0, 64, 49
1, 1282535, Control_c, 0, 64, 57
1, 1282550, Control_c, 0, 64, 63
1, 1282565, Control_c, 0, 64, 68
1, 1282567, Note_off_c, 0, 58, 59
1, 1282580, Control_c, 0, 64, 75
1, 1282594, Control_c, 0, 64, 82
1, 1282599, Note_on_c, 0, 61, 46
1, 1282609, Control_c, 0, 64, 83
1, 1282624, Control_c, 0, 64, 81
1, 1282639, Control_c, 0, 64, 74
1, 1282641, Note_off_c, 0, 61, 57
1, 1282655, Control_c, 0, 64, 68
1, 1282670, Control_c, 0, 64, 66
1, 1282699, Control_c, 0, 64, 67
1, 1282714, Control_c, 0, 64, 69
1, 1282729, Control_c, 0, 64, 72
1, 1282743, Control_c, 0, 64, 73
1, 1282758, Control_c, 0, 64, 75
1, 1282763, Note_on_c, 0, 61, 42
1, 1282773, Control_c, 0, 64, 76
1, 1282788, Control_c, 0, 64, 77
1, 1282803, Control_c, 0, 64, 78
1, 1282817, Control_c, 0, 64, 78
1, 1282819, Note_off_c, 0, 73, 60
1, 1282823, Note_off_c, 0, 78, 56
1, 1282826, Note_off_c, 0, 61, 55
1, 1282847, Control_c, 0, 64, 79
1, 1282902, Note_on_c, 0, 66, 42
1, 1282951, Note_off_c, 0, 66, 43
1, 1282988, Control_c, 0, 64, 78
1, 1283017, Control_c, 0, 64, 78
1, 1283032, Control_c, 0, 64, 77
1, 1283047, Control_c, 0, 64, 76
1, 1283062, Control_c, 0, 64, 75
1, 1283077, Control_c, 0, 64, 73
1, 1283091, Control_c, 0, 64, 71
1, 1283095, Note_on_c, 0, 80, 56
1, 1283106, Control_c, 0, 64, 68
1, 1283121, Control_c, 0, 64, 63
1, 1283130, Note_on_c, 0, 59, 31
1, 1283136, Control_c, 0, 64, 53
1, 1283151, Control_c, 0, 64, 36
1, 1283158, Note_on_c, 0, 74, 13
1, 1283166, Control_c, 0, 64, 0
1, 1283225, Control_c, 0, 64, 36
1, 1283234, Note_off_c, 0, 59, 57
1, 1283240, Control_c, 0, 64, 55
1, 1283255, Control_c, 0, 64, 65
1, 1283267, Note_on_c, 0, 66, 46
1, 1283270, Control_c, 0, 64, 70
1, 1283284, Control_c, 0, 64, 74
1, 1283299, Control_c, 0, 64, 77
1, 1283309, Note_off_c, 0, 66, 60
1, 1283314, Control_c, 0, 64, 81
1, 1283329, Control_c, 0, 64, 85
1, 1283343, Control_c, 0, 64, 89
1, 1283350, Note_off_c, 0, 74, 48
1, 1283358, Control_c, 0, 64, 91
1, 1283373, Control_c, 0, 64, 93
1, 1283377, Note_off_c, 0, 80, 58
1, 1283388, Control_c, 0, 64, 94
1, 1283403, Control_c, 0, 64, 94
1, 1283419, Note_on_c, 0, 66, 44
1, 1283432, Control_c, 0, 64, 95
1, 1283459, Note_off_c, 0, 66, 50
1, 1283548, Note_on_c, 0, 80, 56
1, 1283572, Note_on_c, 0, 74, 49
1, 1283595, Note_on_c, 0, 66, 10
1, 1283634, Note_off_c, 0, 74, 55
1, 1283652, Note_off_c, 0, 66, 51
1, 1283678, Control_c, 0, 64, 94
1, 1283708, Control_c, 0, 64, 94
1, 1283722, Control_c, 0, 64, 93
1, 1283737, Control_c, 0, 64, 92
1, 1283752, Control_c, 0, 64, 90
1, 1283766, Control_c, 0, 64, 89
1, 1283781, Control_c, 0, 64, 87
1, 1283795, Note_on_c, 0, 81, 53
1, 1283796, Control_c, 0, 64, 86
1, 1283811, Control_c, 0, 64, 84
1, 1283826, Control_c, 0, 64, 81
1, 1283830, Note_on_c, 0, 74, 24
1, 1283838, Note_on_c, 0, 60, 36
1, 1283840, Control_c, 0, 64, 77
1, 1283855, Control_c, 0, 64, 70
1, 1283866, Note_off_c, 0, 80, 38
1, 1283870, Control_c, 0, 64, 62
1, 1283885, Control_c, 0, 64, 50
1, 1283900, Control_c, 0, 64, 33
1, 1283914, Control_c, 0, 64, 0
1, 1283942, Note_off_c, 0, 74, 39
1, 1283944, Control_c, 0, 64, 30
1, 1283954, Note_off_c, 0, 60, 52
1, 1283959, Control_c, 0, 64, 43
1, 1283974, Control_c, 0, 64, 54
1, 1283986, Note_on_c, 0, 66, 37
1, 1283989, Control_c, 0, 64, 61
1, 1284003, Control_c, 0, 64, 64
1, 1284018, Control_c, 0, 64, 65
1, 1284033, Control_c, 0, 64, 66
1, 1284048, Control_c, 0, 64, 67
1, 1284063, Control_c, 0, 64, 68
1, 1284078, Control_c, 0, 64, 70
1, 1284092, Control_c, 0, 64, 72
1, 1284107, Control_c, 0, 64, 74
1, 1284122, Note_on_c, 0, 78, 56
1, 1284122, Control_c, 0, 64, 75
1, 1284123, Note_off_c, 0, 66, 30
1, 1284137, Note_on_c, 0, 60, 37
1, 1284137, Control_c, 0, 64, 77
1, 1284138, Note_on_c, 0, 74, 47
1, 1284152, Control_c, 0, 64, 79
1, 1284166, Control_c, 0, 64, 81
1, 1284181, Control_c, 0, 64, 82
1, 1284196, Control_c, 0, 64, 84
1, 1284224, Note_off_c, 0, 78, 60
1, 1284226, Control_c, 0, 64, 84
1, 1284232, Note_off_c, 0, 60, 58
1, 1284242, Note_off_c, 0, 81, 53
1, 1284269, Note_off_c, 0, 74, 54
1, 1284271, Control_c, 0, 64, 85
1, 1284290, Note_on_c, 0, 69, 38
1, 1284349, Note_off_c, 0, 69, 44
1, 1284442, Control_c, 0, 64, 84
1, 1284471, Control_c, 0, 64, 84
1, 1284486, Note_on_c, 0, 78, 45
1, 1284486, Control_c, 0, 64, 83
1, 1284501, Control_c, 0, 64, 81
1, 1284507, Note_on_c, 0, 61, 34
1, 1284512, Note_on_c, 0, 73, 45
1, 1284516, Control_c, 0, 64, 77
1, 1284530, Control_c, 0, 64, 70
1, 1284545, Control_c, 0, 64, 62
1, 1284560, Control_c, 0, 64, 49
1, 1284575, Control_c, 0, 64, 30
1, 1284589, Control_c, 0, 64, 0
1, 1284604, Control_c, 0, 64, 34
1, 1284619, Control_c, 0, 64, 44
1, 1284634, Control_c, 0, 64, 54
1, 1284649, Control_c, 0, 64, 61
1, 1284663, Control_c, 0, 64, 66
1, 1284677, Note_on_c, 0, 69, 35
1, 1284678, Control_c, 0, 64, 70
1, 1284680, Note_off_c, 0, 61, 37
1, 1284693, Control_c, 0, 64, 72
1, 1284707, Control_c, 0, 64, 74
1, 1284716, Note_off_c, 0, 73, 62
1, 1284722, Control_c, 0, 64, 76
1, 1284725, Note_off_c, 0, 69, 57
1, 1284737, Control_c, 0, 64, 77
1, 1284749, Note_off_c, 0, 78, 60
1, 1284752, Control_c, 0, 64, 79
1, 1284767, Control_c, 0, 64, 80
1, 1284781, Control_c, 0, 64, 81
1, 1284796, Control_c, 0, 64, 81
1, 1284850, Note_on_c, 0, 69, 33
1, 1284871, Control_c, 0, 64, 82
1, 1284886, Note_off_c, 0, 69, 54
1, 1284960, Note_on_c, 0, 78, 51
1, 1284963, Note_on_c, 0, 73, 49
1, 1284993, Note_on_c, 0, 69, 43
1, 1285065, Control_c, 0, 64, 81
1, 1285066, Note_off_c, 0, 73, 55
1, 1285073, Note_off_c, 0, 69, 38
1, 1285109, Control_c, 0, 64, 81
1, 1285124, Control_c, 0, 64, 79
1, 1285145, Control_c, 0, 64, 78
1, 1285158, Note_on_c, 0, 81, 59
1, 1285160, Control_c, 0, 64, 75
1, 1285175, Control_c, 0, 64, 70
1, 1285183, Note_on_c, 0, 72, 44
1, 1285190, Control_c, 0, 64, 61
1, 1285191, Note_on_c, 0, 62, 42
1, 1285205, Control_c, 0, 64, 51
1, 1285208, Note_off_c, 0, 78, 37
1, 1285219, Control_c, 0, 64, 37
1, 1285234, Control_c, 0, 64, 29
1, 1285249, Control_c, 0, 64, 32
1, 1285264, Control_c, 0, 64, 42
1, 1285279, Control_c, 0, 64, 53
1, 1285293, Control_c, 0, 64, 62
1, 1285308, Control_c, 0, 64, 66
1, 1285323, Control_c, 0, 64, 69
1, 1285337, Control_c, 0, 64, 71
1, 1285348, Note_on_c, 0, 66, 52
1, 1285352, Control_c, 0, 64, 73
1, 1285363, Note_off_c, 0, 62, 52
1, 1285367, Note_off_c, 0, 72, 34
1, 1285367, Control_c, 0, 64, 75
1, 1285382, Control_c, 0, 64, 77
1, 1285397, Control_c, 0, 64, 78
1, 1285411, Control_c, 0, 64, 79
1, 1285441, Control_c, 0, 64, 79
1, 1285456, Control_c, 0, 64, 80
1, 1285471, Control_c, 0, 64, 80
1, 1285485, Control_c, 0, 64, 79
1, 1285495, Note_on_c, 0, 78, 66
1, 1285500, Control_c, 0, 64, 76
1, 1285514, Note_on_c, 0, 63, 55
1, 1285514, Note_off_c, 0, 66, 56
1, 1285515, Control_c, 0, 64, 68
1, 1285530, Control_c, 0, 64, 60
1, 1285545, Control_c, 0, 64, 54
1, 1285554, Note_off_c, 0, 81, 53
1, 1285560, Control_c, 0, 64, 54
1, 1285574, Control_c, 0, 64, 58
1, 1285589, Control_c, 0, 64, 63
1, 1285604, Control_c, 0, 64, 67
1, 1285619, Control_c, 0, 64, 72
1, 1285634, Control_c, 0, 64, 75
1, 1285634, Note_off_c, 0, 63, 63
1, 1285649, Control_c, 0, 64, 76
1, 1285664, Control_c, 0, 64, 78
1, 1285671, Note_on_c, 0, 69, 56
1, 1285678, Control_c, 0, 64, 79
1, 1285693, Control_c, 0, 64, 80
1, 1285702, Note_off_c, 0, 78, 54
1, 1285703, Note_off_c, 0, 69, 65
1, 1285708, Control_c, 0, 64, 81
1, 1285737, Control_c, 0, 64, 81
1, 1285841, Control_c, 0, 64, 81
1, 1285857, Control_c, 0, 64, 80
1, 1285872, Control_c, 0, 64, 79
1, 1285894, Control_c, 0, 64, 77
1, 1285899, Note_on_c, 0, 81, 57
1, 1285908, Control_c, 0, 64, 74
1, 1285923, Control_c, 0, 64, 68
1, 1285938, Control_c, 0, 64, 62
1, 1285941, Note_on_c, 0, 64, 37
1, 1285944, Note_on_c, 0, 73, 22
1, 1285954, Control_c, 0, 64, 51
1, 1285968, Control_c, 0, 64, 31
1, 1285983, Control_c, 0, 64, 0
1, 1286042, Control_c, 0, 64, 37
1, 1286057, Control_c, 0, 64, 53
1, 1286072, Control_c, 0, 64, 63
1, 1286087, Control_c, 0, 64, 67
1, 1286102, Control_c, 0, 64, 69
1, 1286117, Control_c, 0, 64, 72
1, 1286117, Note_on_c, 0, 69, 47
1, 1286120, Note_off_c, 0, 73, 41
1, 1286132, Control_c, 0, 64, 75
1, 1286147, Control_c, 0, 64, 79
1, 1286151, Note_off_c, 0, 64, 34
1, 1286159, Note_off_c, 0, 69, 63
1, 1286161, Control_c, 0, 64, 83
1, 1286176, Control_c, 0, 64, 87
1, 1286191, Control_c, 0, 64, 90
1, 1286206, Control_c, 0, 64, 92
1, 1286221, Control_c, 0, 64, 94
1, 1286231, Note_off_c, 0, 81, 61
1, 1286235, Control_c, 0, 64, 96
1, 1286265, Control_c, 0, 64, 98
1, 1286311, Note_on_c, 0, 69, 44
1, 1286383, Control_c, 0, 64, 100
1, 1286424, Note_off_c, 0, 69, 48
1, 1286453, Note_on_c, 0, 81, 57
1, 1286473, Note_on_c, 0, 76, 48
1, 1286478, Note_on_c, 0, 73, 43
1, 1286519, Note_off_c, 0, 73, 56
1, 1286528, Note_off_c, 0, 81, 61
1, 1286645, Note_off_c, 0, 76, 54
1, 1286689, Control_c, 0, 64, 97
1, 1286704, Control_c, 0, 64, 94
1, 1286718, Control_c, 0, 64, 90
1, 1286725, Note_on_c, 0, 85, 61
1, 1286733, Control_c, 0, 64, 86
1, 1286748, Control_c, 0, 64, 81
1, 1286759, Note_on_c, 0, 64, 36
1, 1286763, Control_c, 0, 64, 75
1, 1286778, Control_c, 0, 64, 66
1, 1286792, Control_c, 0, 64, 57
1, 1286806, Note_on_c, 0, 81, 3
1, 1286807, Control_c, 0, 64, 47
1, 1286822, Control_c, 0, 64, 41
1, 1286837, Control_c, 0, 64, 42
1, 1286852, Control_c, 0, 64, 49
1, 1286866, Control_c, 0, 64, 56
1, 1286881, Control_c, 0, 64, 62
1, 1286896, Control_c, 0, 64, 68
1, 1286910, Control_c, 0, 64, 73
1, 1286925, Control_c, 0, 64, 78
1, 1286940, Control_c, 0, 64, 81
1, 1286955, Control_c, 0, 64, 84
1, 1286968, Note_on_c, 0, 76, 39
1, 1286970, Control_c, 0, 64, 87
1, 1286984, Control_c, 0, 64, 90
1, 1286988, Note_off_c, 0, 64, 41
1, 1286999, Note_off_c, 0, 85, 59
1, 1286999, Control_c, 0, 64, 92
1, 1287014, Control_c, 0, 64, 93
1, 1287029, Control_c, 0, 64, 93
1, 1287056, Note_off_c, 0, 81, 46
1, 1287131, Note_off_c, 0, 76, 32
1, 1287177, Control_c, 0, 64, 93
1, 1287207, Control_c, 0, 64, 92
1, 1287209, Note_on_c, 0, 83, 42
1, 1287210, Note_on_c, 0, 80, 38
1, 1287222, Control_c, 0, 64, 91
1, 1287224, Note_on_c, 0, 64, 34
1, 1287237, Control_c, 0, 64, 89
1, 1287251, Control_c, 0, 64, 85
1, 1287266, Control_c, 0, 64, 78
1, 1287281, Control_c, 0, 64, 70
1, 1287296, Control_c, 0, 64, 61
1, 1287310, Control_c, 0, 64, 51
1, 1287325, Control_c, 0, 64, 44
1, 1287340, Control_c, 0, 64, 46
1, 1287355, Control_c, 0, 64, 53
1, 1287370, Control_c, 0, 64, 59
1, 1287392, Control_c, 0, 64, 64
1, 1287407, Control_c, 0, 64, 69
1, 1287422, Control_c, 0, 64, 75
1, 1287437, Control_c, 0, 64, 79
1, 1287452, Control_c, 0, 64, 82
1, 1287467, Control_c, 0, 64, 84
1, 1287478, Note_off_c, 0, 83, 51
1, 1287482, Control_c, 0, 64, 86
1, 1287488, Note_off_c, 0, 80, 60
1, 1287497, Control_c, 0, 64, 88
1, 1287512, Control_c, 0, 64, 89
1, 1287543, Note_on_c, 0, 74, 39
1, 1287610, Note_off_c, 0, 74, 55
1, 1287660, Control_c, 0, 64, 88
1, 1287677, Note_off_c, 0, 64, 40
1, 1287689, Control_c, 0, 64, 88
1, 1287704, Control_c, 0, 64, 87
1, 1287719, Control_c, 0, 64, 87
1, 1287733, Control_c, 0, 64, 86
1, 1287748, Control_c, 0, 64, 85
1, 1287763, Control_c, 0, 64, 84
1, 1287778, Control_c, 0, 64, 83
1, 1287793, Control_c, 0, 64, 82
1, 1287807, Control_c, 0, 64, 81
1, 1287822, Control_c, 0, 64, 80
1, 1287837, Control_c, 0, 64, 79
1, 1287852, Control_c, 0, 64, 78
1, 1287867, Control_c, 0, 64, 77
1, 1287882, Control_c, 0, 64, 76
1, 1287897, Control_c, 0, 64, 75
1, 1287911, Control_c, 0, 64, 73
1, 1287926, Control_c, 0, 64, 72
1, 1287941, Control_c, 0, 64, 69
1, 1287956, Control_c, 0, 64, 67
1, 1287971, Control_c, 0, 64, 66
1, 1287986, Control_c, 0, 64, 65
1, 1287989, Note_on_c, 0, 73, 37
1, 1288000, Control_c, 0, 64, 64
1, 1288015, Control_c, 0, 64, 62
1, 1288030, Control_c, 0, 64, 59
1, 1288031, Note_on_c, 0, 57, 32
1, 1288045, Control_c, 0, 64, 56
1, 1288059, Control_c, 0, 64, 53
1, 1288074, Control_c, 0, 64, 48
1, 1288089, Control_c, 0, 64, 39
1, 1288104, Control_c, 0, 64, 0
1, 1288174, Note_off_c, 0, 73, 58
1, 1288175, Note_off_c, 0, 57, 46
1, 1288272, Note_on_c, 0, 64, 28
1, 1288310, Note_off_c, 0, 64, 52
1, 1288450, Note_on_c, 0, 76, 49
1, 1288457, Note_on_c, 0, 73, 42
1, 1288471, Note_on_c, 0, 64, 45
1, 1288507, Note_off_c, 0, 64, 63
1, 1288632, Note_on_c, 0, 64, 41
1, 1288671, Note_off_c, 0, 64, 53
1, 1288764, Control_c, 0, 64, 37
1, 1288779, Control_c, 0, 64, 52
1, 1288794, Control_c, 0, 64, 61
1, 1288809, Control_c, 0, 64, 64
1, 1288813, Note_on_c, 0, 61, 44
1, 1288823, Control_c, 0, 64, 66
1, 1288838, Control_c, 0, 64, 67
1, 1288853, Control_c, 0, 64, 70
1, 1288868, Control_c, 0, 64, 73
1, 1288889, Control_c, 0, 64, 76
1, 1288904, Control_c, 0, 64, 78
1, 1288919, Control_c, 0, 64, 80
1, 1288934, Control_c, 0, 64, 81
1, 1288936, Note_off_c, 0, 61, 38
1, 1288950, Control_c, 0, 64, 82
1, 1288964, Control_c, 0, 64, 82
1, 1288969, Note_off_c, 0, 76, 55
1, 1288979, Control_c, 0, 64, 83
1, 1288981, Note_on_c, 0, 64, 41
1, 1288982, Note_off_c, 0, 73, 52
1, 1289009, Control_c, 0, 64, 83
1, 1289014, Note_off_c, 0, 64, 52
1, 1289038, Control_c, 0, 64, 84
1, 1289084, Control_c, 0, 64, 84
1, 1289116, Note_on_c, 0, 81, 62
1, 1289126, Note_on_c, 0, 64, 48
1, 1289138, Note_on_c, 0, 73, 50
1, 1289158, Control_c, 0, 64, 85
1, 1289180, Note_off_c, 0, 64, 58
1, 1289187, Control_c, 0, 64, 85
1, 1289217, Control_c, 0, 64, 86
1, 1289266, Note_on_c, 0, 64, 48
1, 1289284, Note_off_c, 0, 81, 40
1, 1289307, Note_off_c, 0, 73, 35
1, 1289326, Note_off_c, 0, 64, 53
1, 1289425, Control_c, 0, 64, 83
1, 1289440, Control_c, 0, 64, 77
1, 1289447, Note_on_c, 0, 81, 55
1, 1289454, Control_c, 0, 64, 67
1, 1289469, Control_c, 0, 64, 54
1, 1289477, Note_on_c, 0, 59, 35
1, 1289480, Note_on_c, 0, 74, 42
1, 1289484, Control_c, 0, 64, 39
1, 1289498, Control_c, 0, 64, 0
1, 1289513, Control_c, 0, 64, 29
1, 1289528, Control_c, 0, 64, 36
1, 1289543, Control_c, 0, 64, 45
1, 1289558, Control_c, 0, 64, 54
1, 1289572, Control_c, 0, 64, 61
1, 1289587, Control_c, 0, 64, 64
1, 1289602, Control_c, 0, 64, 66
1, 1289617, Control_c, 0, 64, 67
1, 1289632, Note_on_c, 0, 64, 48
1, 1289640, Control_c, 0, 64, 67
1, 1289651, Note_off_c, 0, 59, 45
1, 1289654, Control_c, 0, 64, 68
1, 1289669, Control_c, 0, 64, 68
1, 1289678, Note_off_c, 0, 64, 58
1, 1289742, Control_c, 0, 64, 66
1, 1289757, Control_c, 0, 64, 63
1, 1289768, Note_on_c, 0, 80, 53
1, 1289772, Control_c, 0, 64, 56
1, 1289783, Note_on_c, 0, 64, 51
1, 1289786, Control_c, 0, 64, 53
1, 1289801, Control_c, 0, 64, 54
1, 1289816, Control_c, 0, 64, 58
1, 1289828, Note_off_c, 0, 64, 58
1, 1289830, Control_c, 0, 64, 61
1, 1289843, Note_off_c, 0, 74, 58
1, 1289845, Control_c, 0, 64, 64
1, 1289857, Note_off_c, 0, 81, 52
1, 1289861, Control_c, 0, 64, 67
1, 1289876, Control_c, 0, 64, 72
1, 1289891, Control_c, 0, 64, 75
1, 1289906, Control_c, 0, 64, 78
1, 1289919, Note_off_c, 0, 80, 58
1, 1289921, Control_c, 0, 64, 81
1, 1289925, Note_on_c, 0, 64, 48
1, 1289935, Control_c, 0, 64, 84
1, 1289950, Control_c, 0, 64, 86
1, 1289965, Control_c, 0, 64, 87
1, 1289971, Note_off_c, 0, 64, 46
1, 1289980, Control_c, 0, 64, 88
1, 1289995, Control_c, 0, 64, 89
1, 1290009, Control_c, 0, 64, 89
1, 1290024, Control_c, 0, 64, 90
1, 1290039, Control_c, 0, 64, 91
1, 1290068, Control_c, 0, 64, 91
1, 1290083, Control_c, 0, 64, 85
1, 1290090, Note_on_c, 0, 61, 48
1, 1290090, Note_on_c, 0, 81, 56
1, 1290098, Control_c, 0, 64, 75
1, 1290113, Note_on_c, 0, 76, 43
1, 1290113, Control_c, 0, 64, 65
1, 1290127, Control_c, 0, 64, 59
1, 1290142, Control_c, 0, 64, 58
1, 1290157, Control_c, 0, 64, 61
1, 1290172, Control_c, 0, 64, 65
1, 1290187, Control_c, 0, 64, 69
1, 1290201, Control_c, 0, 64, 72
1, 1290216, Control_c, 0, 64, 76
1, 1290217, Note_off_c, 0, 61, 62
1, 1290231, Control_c, 0, 64, 79
1, 1290245, Control_c, 0, 64, 82
1, 1290247, Note_on_c, 0, 64, 49
1, 1290260, Control_c, 0, 64, 87
1, 1290275, Control_c, 0, 64, 94
1, 1290290, Note_off_c, 0, 64, 58
1, 1290290, Control_c, 0, 64, 97
1, 1290320, Control_c, 0, 64, 92
1, 1290335, Control_c, 0, 64, 81
1, 1290350, Control_c, 0, 64, 71
1, 1290365, Control_c, 0, 64, 64
1, 1290387, Control_c, 0, 64, 63
1, 1290401, Control_c, 0, 64, 66
1, 1290413, Note_on_c, 0, 64, 50
1, 1290416, Control_c, 0, 64, 70
1, 1290431, Control_c, 0, 64, 75
1, 1290446, Control_c, 0, 64, 79
1, 1290460, Control_c, 0, 64, 84
1, 1290471, Note_off_c, 0, 64, 58
1, 1290475, Control_c, 0, 64, 89
1, 1290477, Note_off_c, 0, 76, 59
1, 1290490, Control_c, 0, 64, 94
1, 1290505, Control_c, 0, 64, 97
1, 1290520, Control_c, 0, 64, 100
1, 1290548, Note_on_c, 0, 69, 45
1, 1290550, Control_c, 0, 64, 103
1, 1290564, Control_c, 0, 64, 105
1, 1290605, Note_off_c, 0, 69, 49
1, 1290610, Note_off_c, 0, 81, 62
1, 1290699, Control_c, 0, 64, 99
1, 1290713, Control_c, 0, 64, 91
1, 1290723, Note_on_c, 0, 83, 66
1, 1290728, Control_c, 0, 64, 80
1, 1290737, Note_on_c, 0, 62, 38
1, 1290743, Control_c, 0, 64, 68
1, 1290758, Control_c, 0, 64, 54
1, 1290761, Note_on_c, 0, 78, 36
1, 1290773, Control_c, 0, 64, 33
1, 1290788, Control_c, 0, 64, 0
1, 1290832, Control_c, 0, 64, 42
1, 1290844, Note_off_c, 0, 62, 55
1, 1290847, Control_c, 0, 64, 58
1, 1290862, Control_c, 0, 64, 66
1, 1290876, Note_on_c, 0, 69, 50
1, 1290876, Control_c, 0, 64, 71
1, 1290891, Control_c, 0, 64, 77
1, 1290906, Control_c, 0, 64, 83
1, 1290919, Note_off_c, 0, 69, 59
1, 1290921, Control_c, 0, 64, 90
1, 1290936, Control_c, 0, 64, 101
1, 1290950, Control_c, 0, 64, 123
1, 1290965, Control_c, 0, 64, 127
1, 1291003, Note_off_c, 0, 78, 41
1, 1291003, Note_off_c, 0, 83, 39
1, 1291035, Note_on_c, 0, 69, 54
1, 1291068, Note_off_c, 0, 69, 63
1, 1291162, Note_on_c, 0, 83, 72
1, 1291191, Note_on_c, 0, 69, 48
1, 1291261, Note_off_c, 0, 69, 48
1, 1291328, Control_c, 0, 64, 91
1, 1291341, Note_on_c, 0, 85, 76
1, 1291343, Control_c, 0, 64, 72
1, 1291357, Control_c, 0, 64, 59
1, 1291370, Note_on_c, 0, 63, 51
1, 1291370, Note_off_c, 0, 83, 58
1, 1291372, Control_c, 0, 64, 46
1, 1291379, Note_on_c, 0, 78, 29
1, 1291387, Control_c, 0, 64, 45
1, 1291402, Control_c, 0, 64, 55
1, 1291417, Control_c, 0, 64, 63
1, 1291432, Control_c, 0, 64, 69
1, 1291444, Note_off_c, 0, 78, 42
1, 1291447, Control_c, 0, 64, 77
1, 1291462, Control_c, 0, 64, 86
1, 1291469, Note_off_c, 0, 63, 60
1, 1291477, Control_c, 0, 64, 95
1, 1291492, Control_c, 0, 64, 106
1, 1291506, Control_c, 0, 64, 127
1, 1291507, Note_on_c, 0, 69, 47
1, 1291596, Control_c, 0, 64, 99
1, 1291611, Control_c, 0, 64, 76
1, 1291626, Control_c, 0, 64, 64
1, 1291641, Control_c, 0, 64, 59
1, 1291644, Note_off_c, 0, 69, 53
1, 1291647, Note_on_c, 0, 81, 64
1, 1291655, Control_c, 0, 64, 61
1, 1291664, Note_on_c, 0, 78, 54
1, 1291665, Note_on_c, 0, 63, 48
1, 1291670, Control_c, 0, 64, 65
1, 1291685, Control_c, 0, 64, 69
1, 1291699, Control_c, 0, 64, 74
1, 1291714, Control_c, 0, 64, 80
1, 1291717, Note_off_c, 0, 85, 62
1, 1291729, Control_c, 0, 64, 84
1, 1291731, Note_off_c, 0, 63, 59
1, 1291744, Control_c, 0, 64, 88
1, 1291759, Control_c, 0, 64, 92
1, 1291773, Control_c, 0, 64, 95
1, 1291788, Control_c, 0, 64, 97
1, 1291804, Note_on_c, 0, 73, 50
1, 1291816, Note_off_c, 0, 81, 62
1, 1291837, Note_off_c, 0, 78, 36
1, 1291876, Note_off_c, 0, 73, 49
1, 1291929, Control_c, 0, 64, 96
1, 1291944, Control_c, 0, 64, 94
1, 1291959, Control_c, 0, 64, 92
1, 1291973, Control_c, 0, 64, 89
1, 1291988, Control_c, 0, 64, 87
1, 1292003, Control_c, 0, 64, 84
1, 1292011, Note_on_c, 0, 81, 64
1, 1292018, Control_c, 0, 64, 80
1, 1292032, Control_c, 0, 64, 76
1, 1292043, Note_on_c, 0, 64, 42
1, 1292045, Note_on_c, 0, 76, 41
1, 1292047, Control_c, 0, 64, 70
1, 1292062, Control_c, 0, 64, 63
1, 1292077, Control_c, 0, 64, 53
1, 1292092, Control_c, 0, 64, 38
1, 1292106, Control_c, 0, 64, 0
1, 1292155, Note_off_c, 0, 64, 62
1, 1292166, Control_c, 0, 64, 37
1, 1292180, Control_c, 0, 64, 53
1, 1292195, Note_on_c, 0, 73, 51
1, 1292195, Control_c, 0, 64, 63
1, 1292210, Control_c, 0, 64, 68
1, 1292225, Control_c, 0, 64, 72
1, 1292236, Note_off_c, 0, 73, 62
1, 1292240, Control_c, 0, 64, 75
1, 1292256, Control_c, 0, 64, 78
1, 1292270, Control_c, 0, 64, 81
1, 1292285, Control_c, 0, 64, 83
1, 1292300, Control_c, 0, 64, 85
1, 1292315, Control_c, 0, 64, 86
1, 1292329, Control_c, 0, 64, 87
1, 1292345, Note_on_c, 0, 73, 55
1, 1292388, Note_off_c, 0, 73, 57
1, 1292495, Note_on_c, 0, 73, 41
1, 1292525, Note_off_c, 0, 73, 52
1, 1292567, Control_c, 0, 64, 86
1, 1292596, Control_c, 0, 64, 86
1, 1292611, Control_c, 0, 64, 85
1, 1292633, Control_c, 0, 64, 84
1, 1292648, Control_c, 0, 64, 83
1, 1292662, Note_on_c, 0, 80, 57
1, 1292663, Control_c, 0, 64, 82
1, 1292678, Control_c, 0, 64, 81
1, 1292693, Control_c, 0, 64, 79
1, 1292707, Note_on_c, 0, 71, 48
1, 1292708, Control_c, 0, 64, 77
1, 1292722, Control_c, 0, 64, 74
1, 1292737, Control_c, 0, 64, 70
1, 1292752, Control_c, 0, 64, 64
1, 1292767, Control_c, 0, 64, 54
1, 1292782, Control_c, 0, 64, 38
1, 1292789, Note_off_c, 0, 76, 43
1, 1292796, Control_c, 0, 64, 0
1, 1292812, Note_on_c, 0, 78, 65
1, 1292840, Note_on_c, 0, 74, 52
1, 1292850, Note_off_c, 0, 71, 36
1, 1292870, Control_c, 0, 64, 43
1, 1292885, Control_c, 0, 64, 57
1, 1292900, Note_off_c, 0, 81, 39
1, 1292900, Control_c, 0, 64, 64
1, 1292915, Control_c, 0, 64, 68
1, 1292929, Control_c, 0, 64, 71
1, 1292944, Control_c, 0, 64, 75
1, 1292959, Control_c, 0, 64, 78
1, 1292961, Note_off_c, 0, 74, 54
1, 1292973, Note_on_c, 0, 76, 69
1, 1292974, Control_c, 0, 64, 81
1, 1292989, Control_c, 0, 64, 83
1, 1293003, Control_c, 0, 64, 86
1, 1293006, Note_on_c, 0, 73, 49
1, 1293018, Control_c, 0, 64, 87
1, 1293036, Note_off_c, 0, 80, 38
1, 1293049, Control_c, 0, 64, 87
1, 1293064, Note_off_c, 0, 73, 59
1, 1293074, Note_off_c, 0, 78, 39
1, 1293089, Note_off_c, 0, 76, 63
1, 1293092, Note_on_c, 0, 71, 35
1, 1293098, Note_on_c, 0, 74, 68
1, 1293128, Note_off_c, 0, 71, 45
1, 1293197, Note_off_c, 0, 74, 53
1, 1293212, Control_c, 0, 64, 87
1, 1293271, Control_c, 0, 64, 86
1, 1293286, Note_on_c, 0, 73, 53
1, 1293286, Control_c, 0, 64, 86
1, 1293301, Control_c, 0, 64, 84
1, 1293303, Note_on_c, 0, 69, 41
1, 1293311, Note_on_c, 0, 57, 40
1, 1293316, Control_c, 0, 64, 83
1, 1293331, Control_c, 0, 64, 82
1, 1293339, Note_off_c, 0, 73, 53
1, 1293341, Note_off_c, 0, 69, 50
1, 1293345, Control_c, 0, 64, 79
1, 1293360, Control_c, 0, 64, 77
1, 1293382, Control_c, 0, 64, 74
1, 1293397, Control_c, 0, 64, 71
1, 1293412, Control_c, 0, 64, 67
1, 1293426, Control_c, 0, 64, 63
1, 1293441, Control_c, 0, 64, 59
1, 1293445, Note_off_c, 0, 57, 59
1, 1293456, Control_c, 0, 64, 54
1, 1293471, Control_c, 0, 64, 47
1, 1293486, Control_c, 0, 64, 39
1, 1293491, Note_on_c, 0, 64, 42
1, 1293501, Control_c, 0, 64, 0
1, 1293520, Note_off_c, 0, 64, 60
1, 1293620, Note_on_c, 0, 76, 63
1, 1293631, Note_on_c, 0, 73, 55
1, 1293643, Note_on_c, 0, 64, 37
1, 1293674, Note_off_c, 0, 64, 56
1, 1293771, Note_on_c, 0, 64, 54
1, 1293811, Control_c, 0, 64, 35
1, 1293815, Note_off_c, 0, 64, 60
1, 1293826, Control_c, 0, 64, 41
1, 1293842, Control_c, 0, 64, 38
1, 1293857, Control_c, 0, 64, 0
1, 1293931, Control_c, 0, 64, 30
1, 1293941, Note_on_c, 0, 61, 59
1, 1293946, Control_c, 0, 64, 45
1, 1293961, Control_c, 0, 64, 59
1, 1293975, Control_c, 0, 64, 62
1, 1293990, Control_c, 0, 64, 63
1, 1294005, Control_c, 0, 64, 64
1, 1294020, Note_off_c, 0, 61, 57
1, 1294020, Control_c, 0, 64, 66
1, 1294035, Control_c, 0, 64, 68
1, 1294049, Control_c, 0, 64, 72
1, 1294064, Control_c, 0, 64, 74
1, 1294079, Control_c, 0, 64, 76
1, 1294089, Note_on_c, 0, 64, 53
1, 1294094, Control_c, 0, 64, 78
1, 1294109, Control_c, 0, 64, 80
1, 1294131, Control_c, 0, 64, 81
1, 1294132, Note_off_c, 0, 76, 54
1, 1294136, Note_off_c, 0, 64, 62
1, 1294146, Control_c, 0, 64, 82
1, 1294153, Note_off_c, 0, 73, 59
1, 1294161, Control_c, 0, 64, 83
1, 1294175, Control_c, 0, 64, 84
1, 1294205, Control_c, 0, 64, 84
1, 1294235, Control_c, 0, 64, 85
1, 1294250, Note_on_c, 0, 81, 69
1, 1294264, Control_c, 0, 64, 85
1, 1294271, Note_on_c, 0, 64, 44
1, 1294275, Note_on_c, 0, 73, 52
1, 1294279, Control_c, 0, 64, 86
1, 1294294, Control_c, 0, 64, 86
1, 1294305, Note_off_c, 0, 64, 60
1, 1294308, Control_c, 0, 64, 87
1, 1294341, Note_off_c, 0, 73, 50
1, 1294371, Note_off_c, 0, 81, 52
1, 1294404, Note_on_c, 0, 64, 50
1, 1294434, Note_off_c, 0, 64, 58
1, 1294472, Control_c, 0, 64, 86
1, 1294487, Control_c, 0, 64, 86
1, 1294501, Control_c, 0, 64, 85
1, 1294516, Control_c, 0, 64, 84
1, 1294531, Control_c, 0, 64, 82
1, 1294546, Control_c, 0, 64, 78
1, 1294561, Control_c, 0, 64, 72
1, 1294565, Note_on_c, 0, 81, 60
1, 1294575, Control_c, 0, 64, 65
1, 1294580, Note_on_c, 0, 59, 44
1, 1294588, Note_on_c, 0, 74, 49
1, 1294590, Control_c, 0, 64, 52
1, 1294605, Control_c, 0, 64, 29
1, 1294619, Control_c, 0, 64, 0
1, 1294680, Control_c, 0, 64, 31
1, 1294695, Control_c, 0, 64, 44
1, 1294700, Note_off_c, 0, 59, 53
1, 1294709, Control_c, 0, 64, 55
1, 1294711, Note_on_c, 0, 64, 53
1, 1294724, Control_c, 0, 64, 62
1, 1294739, Control_c, 0, 64, 65
1, 1294754, Control_c, 0, 64, 66
1, 1294759, Note_off_c, 0, 64, 58
1, 1294769, Control_c, 0, 64, 67
1, 1294784, Control_c, 0, 64, 69
1, 1294798, Control_c, 0, 64, 71
1, 1294813, Control_c, 0, 64, 73
1, 1294828, Control_c, 0, 64, 73
1, 1294842, Control_c, 0, 64, 74
1, 1294877, Note_on_c, 0, 80, 54
1, 1294885, Note_on_c, 0, 64, 45
1, 1294917, Note_off_c, 0, 64, 54
1, 1294937, Note_off_c, 0, 74, 58
1, 1294939, Control_c, 0, 64, 73
1, 1294940, Note_off_c, 0, 81, 57
1, 1294954, Control_c, 0, 64, 73
1, 1294969, Control_c, 0, 64, 71
1, 1294974, Note_off_c, 0, 80, 57
1, 1294984, Control_c, 0, 64, 68
1, 1294998, Control_c, 0, 64, 64
1, 1295010, Note_on_c, 0, 64, 53
1, 1295013, Control_c, 0, 64, 61
1, 1295028, Control_c, 0, 64, 57
1, 1295042, Control_c, 0, 64, 52
1, 1295057, Note_off_c, 0, 64, 57
1, 1295057, Control_c, 0, 64, 47
1, 1295072, Control_c, 0, 64, 40
1, 1295087, Control_c, 0, 64, 30
1, 1295102, Control_c, 0, 64, 0
1, 1295186, Note_on_c, 0, 81, 59
1, 1295200, Note_on_c, 0, 61, 36
1, 1295202, Note_on_c, 0, 76, 47
1, 1295250, Control_c, 0, 64, 39
1, 1295265, Control_c, 0, 64, 47
1, 1295280, Control_c, 0, 64, 53
1, 1295295, Control_c, 0, 64, 56
1, 1295310, Control_c, 0, 64, 59
1, 1295311, Note_off_c, 0, 61, 58
1, 1295324, Control_c, 0, 64, 62
1, 1295332, Note_on_c, 0, 64, 47
1, 1295339, Control_c, 0, 64, 62
1, 1295354, Control_c, 0, 64, 62
1, 1295369, Control_c, 0, 64, 60
1, 1295374, Note_off_c, 0, 64, 60
1, 1295384, Control_c, 0, 64, 55
1, 1295398, Control_c, 0, 64, 52
1, 1295413, Control_c, 0, 64, 51
1, 1295428, Control_c, 0, 64, 52
1, 1295444, Control_c, 0, 64, 54
1, 1295459, Control_c, 0, 64, 56
1, 1295473, Control_c, 0, 64, 57
1, 1295479, Note_on_c, 0, 64, 52
1, 1295488, Control_c, 0, 64, 59
1, 1295503, Control_c, 0, 64, 60
1, 1295518, Control_c, 0, 64, 61
1, 1295533, Control_c, 0, 64, 63
1, 1295547, Control_c, 0, 64, 64
1, 1295562, Control_c, 0, 64, 65
1, 1295577, Control_c, 0, 64, 66
1, 1295592, Control_c, 0, 64, 68
1, 1295603, Note_off_c, 0, 64, 57
1, 1295607, Control_c, 0, 64, 69
1, 1295629, Control_c, 0, 64, 69
1, 1295638, Note_off_c, 0, 76, 53
1, 1295644, Control_c, 0, 64, 70
1, 1295647, Note_on_c, 0, 69, 46
1, 1295659, Control_c, 0, 64, 70
1, 1295673, Control_c, 0, 64, 71
1, 1295695, Note_off_c, 0, 69, 55
1, 1295703, Control_c, 0, 67, 121
1, 1295708, Note_off_c, 0, 81, 63
1, 1295718, Control_c, 0, 67, 113
1, 1295733, Control_c, 0, 67, 105
1, 1295747, Control_c, 0, 64, 71
1, 1295747, Control_c, 0, 67, 98
1, 1295762, Control_c, 0, 67, 94
1, 1295807, Control_c, 0, 67, 95
1, 1295813, Note_on_c, 0, 83, 56
1, 1295821, Note_on_c, 0, 62, 50
1, 1295821, Control_c, 0, 64, 71
1, 1295821, Control_c, 0, 67, 95
1, 1295825, Note_on_c, 0, 78, 46
1, 1295865, Control_c, 0, 67, 98
1, 1295880, Control_c, 0, 64, 70
1, 1295895, Control_c, 0, 64, 70
1, 1295910, Control_c, 0, 64, 69
1, 1295925, Control_c, 0, 64, 69
1, 1295925, Control_c, 0, 67, 101
1, 1295939, Control_c, 0, 64, 68
1, 1295953, Note_off_c, 0, 78, 50
1, 1295954, Control_c, 0, 64, 67
1, 1295965, Note_off_c, 0, 83, 55
1, 1295969, Control_c, 0, 64, 65
1, 1295979, Note_on_c, 0, 69, 38
1, 1295984, Control_c, 0, 64, 64
1, 1295984, Control_c, 0, 67, 103
1, 1295999, Control_c, 0, 64, 61
1, 1296001, Note_off_c, 0, 62, 50
1, 1296010, Note_off_c, 0, 69, 61
1, 1296014, Control_c, 0, 64, 59
1, 1296028, Control_c, 0, 64, 54
1, 1296028, Control_c, 0, 67, 105
1, 1296043, Control_c, 0, 64, 48
1, 1296058, Control_c, 0, 64, 38
1, 1296058, Control_c, 0, 67, 108
1, 1296073, Control_c, 0, 64, 0
1, 1296088, Control_c, 0, 67, 110
1, 1296103, Control_c, 0, 67, 112
1, 1296118, Note_on_c, 0, 69, 51
1, 1296120, Note_on_c, 0, 76, 62
1, 1296121, Note_on_c, 0, 85, 65
1, 1296133, Control_c, 0, 67, 115
1, 1296136, Note_on_c, 0, 64, 46
1, 1296154, Note_off_c, 0, 76, 61
1, 1296157, Note_off_c, 0, 69, 60
1, 1296172, Note_off_c, 0, 85, 55
1, 1296177, Control_c, 0, 67, 118
1, 1296183, Note_off_c, 0, 64, 61
1, 1296273, Note_on_c, 0, 74, 67
1, 1296273, Note_on_c, 0, 69, 51
1, 1296273, Note_on_c, 0, 86, 64
1, 1296282, Control_c, 0, 67, 120
1, 1296286, Note_on_c, 0, 66, 51
1, 1296303, Note_off_c, 0, 74, 61
1, 1296305, Note_off_c, 0, 69, 65
1, 1296315, Note_off_c, 0, 66, 64
1, 1296334, Note_off_c, 0, 86, 60
1, 1296449, Note_on_c, 0, 85, 56
1, 1296452, Control_c, 0, 64, 40
1, 1296462, Note_on_c, 0, 76, 55
1, 1296466, Note_on_c, 0, 64, 44
1, 1296467, Control_c, 0, 64, 53
1, 1296482, Control_c, 0, 64, 59
1, 1296496, Control_c, 0, 64, 62
1, 1296511, Control_c, 0, 64, 65
1, 1296511, Control_c, 0, 67, 118
1, 1296526, Control_c, 0, 64, 67
1, 1296541, Control_c, 0, 64, 69
1, 1296550, Note_off_c, 0, 85, 64
1, 1296556, Control_c, 0, 64, 72
1, 1296560, Note_off_c, 0, 64, 64
1, 1296570, Control_c, 0, 64, 75
1, 1296585, Control_c, 0, 64, 77
1, 1296590, Note_off_c, 0, 76, 54
1, 1296600, Note_on_c, 0, 69, 48
1, 1296600, Control_c, 0, 64, 79
1, 1296614, Control_c, 0, 64, 81
1, 1296624, Note_off_c, 0, 69, 59
1, 1296629, Control_c, 0, 64, 82
1, 1296644, Control_c, 0, 64, 83
1, 1296688, Control_c, 0, 64, 81
1, 1296688, Control_c, 0, 67, 120
1, 1296703, Control_c, 0, 64, 75
1, 1296718, Control_c, 0, 64, 66
1, 1296733, Control_c, 0, 64, 60
1, 1296733, Control_c, 0, 67, 122
1, 1296748, Control_c, 0, 64, 59
1, 1296751, Note_on_c, 0, 83, 62
1, 1296759, Note_on_c, 0, 76, 48
1, 1296763, Control_c, 0, 64, 62
1, 1296766, Note_on_c, 0, 64, 47
1, 1296777, Note_on_c, 0, 74, 55
1, 1296777, Control_c, 0, 64, 64
1, 1296792, Control_c, 0, 64, 67
1, 1296792, Control_c, 0, 67, 124
1, 1296807, Control_c, 0, 64, 70
1, 1296821, Control_c, 0, 64, 73
1, 1296821, Control_c, 0, 67, 127
1, 1296836, Control_c, 0, 64, 76
1, 1296851, Control_c, 0, 64, 78
1, 1296866, Control_c, 0, 64, 79
1, 1296881, Control_c, 0, 64, 80
1, 1296890, Note_off_c, 0, 76, 50
1, 1296896, Note_off_c, 0, 64, 38
1, 1296900, Note_on_c, 0, 68, 42
1, 1296900, Note_off_c, 0, 74, 35
1, 1296913, Note_off_c, 0, 83, 58
1, 1296935, Note_off_c, 0, 68, 49
1, 1297000, Control_c, 0, 64, 79
1, 1297014, Control_c, 0, 64, 79
1, 1297029, Control_c, 0, 64, 78
1, 1297045, Control_c, 0, 64, 77
1, 1297060, Control_c, 0, 64, 77
1, 1297075, Control_c, 0, 64, 76
1, 1297090, Control_c, 0, 64, 75
1, 1297104, Note_on_c, 0, 83, 54
1, 1297105, Control_c, 0, 64, 74
1, 1297126, Control_c, 0, 64, 72
1, 1297128, Note_on_c, 0, 76, 45
1, 1297129, Note_on_c, 0, 74, 37
1, 1297141, Control_c, 0, 64, 71
1, 1297155, Note_on_c, 0, 57, 37
1, 1297156, Control_c, 0, 64, 69
1, 1297171, Control_c, 0, 64, 66
1, 1297186, Control_c, 0, 64, 63
1, 1297200, Control_c, 0, 64, 59
1, 1297215, Control_c, 0, 64, 67
1, 1297230, Control_c, 0, 64, 37
1, 1297245, Control_c, 0, 64, 0
1, 1297292, Note_on_c, 0, 64, 45
1, 1297349, Control_c, 0, 64, 42
1, 1297364, Control_c, 0, 64, 56
1, 1297379, Control_c, 0, 64, 63
1, 1297393, Control_c, 0, 64, 65
1, 1297408, Control_c, 0, 64, 66
1, 1297423, Control_c, 0, 64, 68
1, 1297435, Note_off_c, 0, 64, 59
1, 1297437, Control_c, 0, 64, 69
1, 1297452, Control_c, 0, 64, 70
1, 1297467, Control_c, 0, 64, 72
1, 1297478, Note_on_c, 0, 68, 36
1, 1297482, Control_c, 0, 64, 72
1, 1297497, Control_c, 0, 64, 73
1, 1297510, Note_off_c, 0, 74, 54
1, 1297511, Control_c, 0, 64, 74
1, 1297526, Control_c, 0, 64, 74
1, 1297541, Note_off_c, 0, 68, 52
1, 1297541, Control_c, 0, 64, 75
1, 1297571, Control_c, 0, 64, 75
1, 1297585, Control_c, 0, 67, 125
1, 1297636, Note_on_c, 0, 64, 34
1, 1297734, Note_off_c, 0, 83, 32
1, 1297793, Control_c, 0, 64, 75
1, 1297823, Control_c, 0, 64, 74
1, 1297838, Control_c, 0, 64, 74
1, 1297848, Note_on_c, 0, 73, 37
1, 1297853, Note_on_c, 0, 81, 33
1, 1297853, Control_c, 0, 64, 73
1, 1297871, Note_on_c, 0, 69, 40
1, 1297875, Control_c, 0, 64, 72
1, 1297890, Control_c, 0, 64, 70
1, 1297905, Control_c, 0, 64, 68
1, 1297918, Note_off_c, 0, 64, 42
1, 1297920, Control_c, 0, 64, 65
1, 1297924, Note_off_c, 0, 76, 43
1, 1297927, Note_off_c, 0, 73, 62
1, 1297931, Note_off_c, 0, 81, 59
1, 1297935, Control_c, 0, 64, 62
1, 1297949, Control_c, 0, 64, 59
1, 1297964, Control_c, 0, 64, 58
1, 1297979, Control_c, 0, 64, 57
1, 1297981, Note_off_c, 0, 57, 38
1, 1297994, Control_c, 0, 64, 56
1, 1298005, Note_off_c, 0, 69, 36
1, 1298009, Control_c, 0, 64, 54
1, 1298023, Control_c, 0, 64, 53
1, 1298038, Control_c, 0, 64, 52
1, 1298044, Note_on_c, 0, 71, 60
1, 1298046, Note_on_c, 0, 83, 59
1, 1298053, Control_c, 0, 64, 51
1, 1298067, Control_c, 0, 64, 51
1, 1298076, Note_off_c, 0, 71, 63
1, 1298082, Control_c, 0, 64, 50
1, 1298097, Control_c, 0, 64, 49
1, 1298100, Note_off_c, 0, 83, 62
1, 1298112, Control_c, 0, 64, 47
1, 1298127, Control_c, 0, 64, 46
1, 1298142, Control_c, 0, 64, 45
1, 1298193, Note_on_c, 0, 85, 71
1, 1298198, Note_on_c, 0, 73, 62
1, 1298252, Note_off_c, 0, 73, 61
1, 1298256, Note_off_c, 0, 85, 62
1, 1298290, Control_c, 0, 64, 45
1, 1298305, Control_c, 0, 64, 44
1, 1298320, Control_c, 0, 64, 42
1, 1298320, Control_c, 0, 67, 127
1, 1298330, Note_on_c, 0, 86, 70
1, 1298334, Control_c, 0, 64, 38
1, 1298339, Note_on_c, 0, 74, 64
1, 1298349, Control_c, 0, 64, 33
1, 1298364, Control_c, 0, 64, 0
1, 1298375, Note_off_c, 0, 74, 59
1, 1298395, Note_off_c, 0, 86, 64
1, 1298501, Note_on_c, 0, 88, 76
1, 1298520, Note_on_c, 0, 76, 56
1, 1298527, Control_c, 0, 67, 125
1, 1298537, Note_on_c, 0, 61, 39
1, 1298541, Note_on_c, 0, 57, 38
1, 1298541, Control_c, 0, 67, 123
1, 1298556, Control_c, 0, 67, 121
1, 1298571, Control_c, 0, 64, 38
1, 1298586, Control_c, 0, 64, 52
1, 1298586, Control_c, 0, 67, 117
1, 1298601, Control_c, 0, 64, 59
1, 1298623, Control_c, 0, 64, 62
1, 1298623, Control_c, 0, 67, 113
1, 1298639, Control_c, 0, 64, 64
1, 1298639, Control_c, 0, 67, 110
1, 1298649, Note_off_c, 0, 57, 61
1, 1298654, Control_c, 0, 64, 67
1, 1298654, Control_c, 0, 67, 106
1, 1298667, Note_off_c, 0, 61, 63
1, 1298669, Control_c, 0, 64, 70
1, 1298669, Control_c, 0, 67, 97
1, 1298672, Note_on_c, 0, 64, 45
1, 1298684, Control_c, 0, 64, 74
1, 1298684, Control_c, 0, 67, 79
1, 1298699, Control_c, 0, 64, 78
1, 1298699, Control_c, 0, 67, 52
1, 1298714, Control_c, 0, 64, 81
1, 1298714, Control_c, 0, 67, 0
1, 1298729, Control_c, 0, 64, 84
1, 1298744, Control_c, 0, 64, 86
1, 1298759, Control_c, 0, 64, 87
1, 1298766, Note_off_c, 0, 76, 55
1, 1298773, Control_c, 0, 64, 88
1, 1298799, Note_off_c, 0, 64, 55
1, 1298802, Note_off_c, 0, 88, 59
1, 1298803, Control_c, 0, 64, 88
1, 1298804, Note_on_c, 0, 59, 65
1, 1298804, Note_on_c, 0, 55, 61
1, 1298907, Note_off_c, 0, 55, 58
1, 1298931, Note_off_c, 0, 59, 58
1, 1298937, Note_on_c, 0, 88, 77
1, 1298940, Note_on_c, 0, 64, 61
1, 1298946, Note_on_c, 0, 76, 74
1, 1298983, Note_off_c, 0, 76, 57
1, 1299071, Note_off_c, 0, 64, 55
1, 1299099, Control_c, 0, 64, 87
1, 1299114, Control_c, 0, 64, 82
1, 1299125, Note_on_c, 0, 90, 75
1, 1299129, Control_c, 0, 64, 71
1, 1299136, Note_on_c, 0, 58, 55
1, 1299139, Note_on_c, 0, 54, 47
1, 1299140, Note_on_c, 0, 78, 60
1, 1299143, Note_off_c, 0, 88, 59
1, 1299143, Control_c, 0, 64, 60
1, 1299158, Control_c, 0, 64, 48
1, 1299188, Control_c, 0, 64, 54
1, 1299203, Control_c, 0, 64, 60
1, 1299217, Control_c, 0, 64, 66
1, 1299232, Control_c, 0, 64, 72
1, 1299247, Control_c, 0, 64, 79
1, 1299262, Control_c, 0, 64, 86
1, 1299266, Note_off_c, 0, 58, 59
1, 1299266, Note_on_c, 0, 66, 64
1, 1299275, Note_off_c, 0, 54, 37
1, 1299277, Control_c, 0, 64, 94
1, 1299291, Control_c, 0, 64, 111
1, 1299306, Control_c, 0, 64, 127
1, 1299322, Note_off_c, 0, 66, 60
1, 1299351, Control_c, 0, 64, 110
1, 1299373, Control_c, 0, 64, 75
1, 1299388, Control_c, 0, 64, 59
1, 1299403, Note_on_c, 0, 58, 58
1, 1299403, Control_c, 0, 64, 47
1, 1299406, Note_on_c, 0, 54, 56
1, 1299432, Control_c, 0, 64, 54
1, 1299446, Note_off_c, 0, 90, 63
1, 1299448, Control_c, 0, 64, 62
1, 1299462, Control_c, 0, 64, 70
1, 1299477, Control_c, 0, 64, 77
1, 1299492, Control_c, 0, 64, 80
1, 1299507, Control_c, 0, 64, 82
1, 1299511, Note_off_c, 0, 78, 61
1, 1299514, Note_off_c, 0, 54, 56
1, 1299516, Note_off_c, 0, 58, 61
1, 1299522, Control_c, 0, 64, 84
1, 1299537, Control_c, 0, 64, 86
1, 1299548, Note_on_c, 0, 56, 65
1, 1299552, Control_c, 0, 64, 87
1, 1299555, Note_on_c, 0, 59, 66
1, 1299567, Control_c, 0, 64, 88
1, 1299655, Control_c, 0, 64, 87
1, 1299659, Note_off_c, 0, 59, 58
1, 1299685, Control_c, 0, 64, 86
1, 1299700, Control_c, 0, 64, 83
1, 1299711, Note_on_c, 0, 88, 70
1, 1299713, Note_off_c, 0, 56, 57
1, 1299714, Control_c, 0, 64, 77
1, 1299724, Note_on_c, 0, 58, 61
1, 1299729, Control_c, 0, 64, 67
1, 1299731, Note_on_c, 0, 61, 50
1, 1299734, Note_on_c, 0, 76, 50
1, 1299744, Control_c, 0, 64, 55
1, 1299759, Control_c, 0, 64, 35
1, 1299774, Control_c, 0, 64, 0
1, 1299818, Control_c, 0, 64, 45
1, 1299829, Note_off_c, 0, 76, 62
1, 1299832, Control_c, 0, 64, 60
1, 1299846, Note_off_c, 0, 61, 60
1, 1299846, Note_off_c, 0, 58, 61
1, 1299847, Control_c, 0, 64, 67
1, 1299862, Control_c, 0, 64, 72
1, 1299871, Note_on_c, 0, 66, 64
1, 1299877, Control_c, 0, 64, 75
1, 1299892, Control_c, 0, 64, 78
1, 1299907, Control_c, 0, 64, 82
1, 1299921, Control_c, 0, 64, 84
1, 1299936, Control_c, 0, 64, 85
1, 1299999, Note_off_c, 0, 66, 37
1, 1300011, Control_c, 0, 64, 84
1, 1300015, Note_on_c, 0, 87, 60
1, 1300023, Note_on_c, 0, 63, 57
1, 1300026, Control_c, 0, 64, 83
1, 1300029, Note_on_c, 0, 59, 49
1, 1300038, Note_on_c, 0, 75, 49
1, 1300040, Control_c, 0, 64, 79
1, 1300050, Note_off_c, 0, 88, 57
1, 1300055, Control_c, 0, 64, 75
1, 1300070, Control_c, 0, 64, 71
1, 1300085, Control_c, 0, 64, 67
1, 1300099, Note_off_c, 0, 87, 64
1, 1300100, Control_c, 0, 64, 62
1, 1300103, Note_off_c, 0, 75, 60
1, 1300121, Control_c, 0, 64, 56
1, 1300125, Note_off_c, 0, 59, 61
1, 1300136, Control_c, 0, 64, 48
1, 1300151, Control_c, 0, 64, 38
1, 1300166, Note_off_c, 0, 63, 60
1, 1300166, Control_c, 0, 64, 0
1, 1300178, Note_on_c, 0, 66, 59
1, 1300339, Note_on_c, 0, 63, 45
1, 1300339, Note_off_c, 0, 66, 57
1, 1300340, Note_on_c, 0, 83, 65
1, 1300364, Note_on_c, 0, 71, 51
1, 1300418, Control_c, 0, 64, 37
1, 1300433, Control_c, 0, 64, 50
1, 1300448, Control_c, 0, 64, 58
1, 1300462, Control_c, 0, 64, 59
1, 1300473, Note_off_c, 0, 63, 58
1, 1300476, Note_on_c, 0, 66, 59
1, 1300477, Control_c, 0, 64, 60
1, 1300492, Control_c, 0, 64, 62
1, 1300507, Control_c, 0, 64, 64
1, 1300524, Note_off_c, 0, 66, 58
1, 1300528, Note_off_c, 0, 71, 58
1, 1300536, Control_c, 0, 64, 63
1, 1300551, Control_c, 0, 64, 61
1, 1300566, Control_c, 0, 64, 59
1, 1300596, Control_c, 0, 64, 60
1, 1300610, Control_c, 0, 64, 61
1, 1300621, Note_on_c, 0, 62, 63
1, 1300625, Control_c, 0, 64, 63
1, 1300640, Control_c, 0, 64, 65
1, 1300655, Control_c, 0, 64, 67
1, 1300670, Control_c, 0, 64, 68
1, 1300685, Control_c, 0, 64, 70
1, 1300700, Control_c, 0, 64, 72
1, 1300714, Control_c, 0, 64, 73
1, 1300725, Note_off_c, 0, 83, 61
1, 1300729, Control_c, 0, 64, 75
1, 1300744, Control_c, 0, 64, 76
1, 1300751, Note_on_c, 0, 85, 76
1, 1300759, Control_c, 0, 64, 77
1, 1300763, Note_on_c, 0, 73, 62
1, 1300766, Note_on_c, 0, 64, 61
1, 1300772, Note_on_c, 0, 61, 60
1, 1300774, Control_c, 0, 64, 78
1, 1300779, Note_off_c, 0, 62, 55
1, 1300788, Control_c, 0, 64, 79
1, 1300818, Control_c, 0, 64, 79
1, 1300846, Note_off_c, 0, 73, 61
1, 1300865, Note_off_c, 0, 64, 54
1, 1300914, Control_c, 0, 64, 79
1, 1300929, Control_c, 0, 64, 78
1, 1300944, Control_c, 0, 64, 74
1, 1300951, Note_on_c, 0, 62, 49
1, 1300954, Note_on_c, 0, 86, 73
1, 1300959, Control_c, 0, 64, 68
1, 1300965, Note_on_c, 0, 59, 54
1, 1300970, Note_off_c, 0, 61, 34
1, 1300974, Control_c, 0, 64, 58
1, 1300980, Note_on_c, 0, 74, 53
1, 1300986, Note_off_c, 0, 85, 57
1, 1300988, Control_c, 0, 64, 41
1, 1301003, Control_c, 0, 64, 0
1, 1301063, Control_c, 0, 64, 39
1, 1301072, Note_off_c, 0, 59, 64
1, 1301078, Control_c, 0, 64, 56
1, 1301091, Note_off_c, 0, 62, 59
1, 1301093, Control_c, 0, 64, 68
1, 1301101, Note_on_c, 0, 66, 66
1, 1301108, Control_c, 0, 64, 75
1, 1301123, Control_c, 0, 64, 78
1, 1301138, Control_c, 0, 64, 77
1, 1301153, Control_c, 0, 64, 74
1, 1301167, Control_c, 0, 64, 68
1, 1301182, Control_c, 0, 64, 63
1, 1301197, Control_c, 0, 64, 62
1, 1301211, Control_c, 0, 64, 64
1, 1301221, Note_off_c, 0, 74, 53
1, 1301226, Control_c, 0, 64, 66
1, 1301241, Note_on_c, 0, 57, 64
1, 1301241, Control_c, 0, 64, 70
1, 1301243, Note_on_c, 0, 61, 57
1, 1301248, Note_off_c, 0, 66, 54
1, 1301256, Control_c, 0, 64, 74
1, 1301260, Note_off_c, 0, 86, 56
1, 1301271, Control_c, 0, 64, 76
1, 1301285, Control_c, 0, 64, 78
1, 1301300, Control_c, 0, 64, 78
1, 1301315, Control_c, 0, 64, 79
1, 1301361, Note_off_c, 0, 57, 62
1, 1301379, Note_on_c, 0, 86, 73
1, 1301381, Note_off_c, 0, 61, 59
1, 1301384, Note_on_c, 0, 66, 66
1, 1301389, Control_c, 0, 64, 78
1, 1301394, Note_on_c, 0, 74, 62
1, 1301403, Control_c, 0, 64, 77
1, 1301418, Control_c, 0, 64, 76
1, 1301433, Control_c, 0, 64, 74
1, 1301437, Note_off_c, 0, 74, 56
1, 1301448, Control_c, 0, 64, 72
1, 1301463, Control_c, 0, 64, 69
1, 1301478, Control_c, 0, 64, 65
1, 1301492, Control_c, 0, 64, 60
1, 1301507, Control_c, 0, 64, 48
1, 1301522, Control_c, 0, 64, 0
1, 1301530, Note_off_c, 0, 66, 59
1, 1301552, Note_on_c, 0, 88, 70
1, 1301556, Note_on_c, 0, 59, 50
1, 1301567, Note_on_c, 0, 56, 55
1, 1301567, Note_off_c, 0, 86, 55
1, 1301567, Note_on_c, 0, 76, 53
1, 1301597, Control_c, 0, 64, 34
1, 1301618, Control_c, 0, 64, 51
1, 1301633, Control_c, 0, 64, 62
1, 1301641, Note_off_c, 0, 56, 61
1, 1301641, Note_off_c, 0, 59, 64
1, 1301648, Control_c, 0, 64, 67
1, 1301663, Control_c, 0, 64, 70
1, 1301679, Control_c, 0, 64, 72
1, 1301692, Note_on_c, 0, 64, 54
1, 1301693, Control_c, 0, 64, 75
1, 1301708, Control_c, 0, 64, 79
1, 1301717, Note_off_c, 0, 64, 59
1, 1301723, Control_c, 0, 64, 83
1, 1301738, Control_c, 0, 64, 87
1, 1301767, Control_c, 0, 64, 84
1, 1301782, Control_c, 0, 64, 75
1, 1301797, Control_c, 0, 64, 65
1, 1301811, Control_c, 0, 64, 55
1, 1301826, Control_c, 0, 64, 53
1, 1301835, Note_off_c, 0, 88, 65
1, 1301842, Control_c, 0, 64, 56
1, 1301850, Note_on_c, 0, 52, 59
1, 1301857, Note_on_c, 0, 50, 60
1, 1301857, Control_c, 0, 64, 61
1, 1301872, Control_c, 0, 64, 65
1, 1301883, Note_off_c, 0, 76, 62
1, 1301887, Control_c, 0, 64, 70
1, 1301902, Control_c, 0, 64, 75
1, 1301916, Control_c, 0, 64, 78
1, 1301931, Control_c, 0, 64, 80
1, 1301946, Control_c, 0, 64, 81
1, 1301961, Control_c, 0, 64, 82
1, 1301967, Note_off_c, 0, 50, 61
1, 1301980, Note_off_c, 0, 52, 61
1, 1301990, Control_c, 0, 64, 83
1, 1302005, Note_on_c, 0, 59, 56
1, 1302124, Control_c, 0, 64, 82
1, 1302139, Control_c, 0, 64, 80
1, 1302146, Note_off_c, 0, 59, 39
1, 1302154, Control_c, 0, 64, 75
1, 1302169, Control_c, 0, 64, 67
1, 1302171, Note_on_c, 0, 81, 63
1, 1302176, Note_on_c, 0, 69, 60
1, 1302183, Control_c, 0, 64, 58
1, 1302189, Note_on_c, 0, 49, 50
1, 1302198, Control_c, 0, 64, 44
1, 1302199, Note_on_c, 0, 52, 45
1, 1302213, Control_c, 0, 64, 0
1, 1302257, Control_c, 0, 64, 38
1, 1302272, Control_c, 0, 64, 51
1, 1302287, Control_c, 0, 64, 61
1, 1302296, Note_off_c, 0, 49, 60
1, 1302301, Control_c, 0, 64, 65
1, 1302316, Control_c, 0, 64, 68
1, 1302330, Note_on_c, 0, 57, 52
1, 1302331, Control_c, 0, 64, 70
1, 1302337, Note_off_c, 0, 52, 55
1, 1302346, Control_c, 0, 64, 72
1, 1302369, Control_c, 0, 64, 75
1, 1302383, Control_c, 0, 64, 79
1, 1302398, Control_c, 0, 64, 82
1, 1302413, Control_c, 0, 64, 82
1, 1302426, Control_c, 0, 64, 75
1, 1302440, Control_c, 0, 64, 63
1, 1302455, Control_c, 0, 64, 44
1, 1302464, Note_off_c, 0, 69, 37
1, 1302470, Control_c, 0, 64, 0
1, 1302489, Note_on_c, 0, 47, 55
1, 1302489, Note_off_c, 0, 57, 57
1, 1302494, Note_on_c, 0, 50, 51
1, 1302515, Control_c, 0, 64, 34
1, 1302530, Control_c, 0, 64, 53
1, 1302545, Control_c, 0, 64, 62
1, 1302559, Control_c, 0, 64, 65
1, 1302573, Note_off_c, 0, 47, 59
1, 1302574, Control_c, 0, 64, 66
1, 1302589, Control_c, 0, 64, 67
1, 1302601, Note_off_c, 0, 50, 60
1, 1302602, Note_off_c, 0, 81, 62
1, 1302604, Control_c, 0, 64, 69
1, 1302613, Note_on_c, 0, 83, 65
1, 1302616, Note_on_c, 0, 71, 62
1, 1302619, Control_c, 0, 64, 71
1, 1302634, Control_c, 0, 64, 72
1, 1302637, Note_on_c, 0, 57, 52
1, 1302649, Control_c, 0, 64, 72
1, 1302676, Note_off_c, 0, 71, 61
1, 1302753, Control_c, 0, 64, 72
1, 1302768, Control_c, 0, 64, 69
1, 1302783, Control_c, 0, 64, 63
1, 1302798, Control_c, 0, 64, 49
1, 1302801, Note_on_c, 0, 85, 65
1, 1302802, Note_off_c, 0, 83, 58
1, 1302805, Note_on_c, 0, 73, 57
1, 1302805, Note_off_c, 0, 57, 55
1, 1302812, Control_c, 0, 64, 0
1, 1302824, Note_on_c, 0, 45, 47
1, 1302833, Note_on_c, 0, 49, 48
1, 1302871, Control_c, 0, 64, 41
1, 1302886, Control_c, 0, 64, 56
1, 1302901, Control_c, 0, 64, 65
1, 1302916, Control_c, 0, 64, 70
1, 1302917, Note_off_c, 0, 49, 59
1, 1302930, Control_c, 0, 64, 74
1, 1302945, Control_c, 0, 64, 78
1, 1302947, Note_on_c, 0, 57, 53
1, 1302960, Control_c, 0, 64, 83
1, 1302974, Control_c, 0, 64, 88
1, 1302976, Note_off_c, 0, 45, 37
1, 1302989, Control_c, 0, 64, 92
1, 1303004, Note_off_c, 0, 57, 58
1, 1303004, Control_c, 0, 64, 95
1, 1303019, Control_c, 0, 64, 95
1, 1303034, Control_c, 0, 64, 92
1, 1303048, Control_c, 0, 64, 81
1, 1303063, Control_c, 0, 64, 68
1, 1303078, Control_c, 0, 64, 56
1, 1303093, Control_c, 0, 64, 47
1, 1303110, Note_on_c, 0, 50, 56
1, 1303116, Note_off_c, 0, 85, 64
1, 1303116, Control_c, 0, 64, 49
1, 1303124, Note_on_c, 0, 47, 54
1, 1303130, Control_c, 0, 64, 57
1, 1303145, Control_c, 0, 64, 66
1, 1303160, Control_c, 0, 64, 75
1, 1303175, Control_c, 0, 64, 84
1, 1303189, Control_c, 0, 64, 90
1, 1303190, Note_off_c, 0, 73, 59
1, 1303204, Control_c, 0, 64, 95
1, 1303219, Control_c, 0, 64, 98
1, 1303225, Note_off_c, 0, 47, 59
1, 1303234, Control_c, 0, 64, 102
1, 1303238, Note_off_c, 0, 50, 60
1, 1303248, Note_on_c, 0, 49, 59
1, 1303249, Control_c, 0, 64, 105
1, 1303252, Note_on_c, 0, 52, 66
1, 1303293, Note_off_c, 0, 49, 63
1, 1303338, Control_c, 0, 64, 100
1, 1303353, Control_c, 0, 64, 88
1, 1303367, Control_c, 0, 64, 72
1, 1303382, Control_c, 0, 64, 57
1, 1303383, Note_off_c, 0, 52, 40
1, 1303397, Control_c, 0, 64, 34
1, 1303404, Note_on_c, 0, 83, 70
1, 1303412, Control_c, 0, 64, 0
1, 1303415, Note_on_c, 0, 71, 65
1, 1303419, Note_on_c, 0, 54, 54
1, 1303430, Note_on_c, 0, 50, 49
1, 1303442, Control_c, 0, 64, 34
1, 1303457, Control_c, 0, 64, 54
1, 1303472, Control_c, 0, 64, 66
1, 1303487, Control_c, 0, 64, 77
1, 1303502, Control_c, 0, 64, 87
1, 1303513, Note_off_c, 0, 54, 61
1, 1303516, Control_c, 0, 64, 93
1, 1303521, Note_off_c, 0, 50, 61
1, 1303531, Control_c, 0, 64, 102
1, 1303546, Control_c, 0, 64, 121
1, 1303548, Note_off_c, 0, 71, 56
1, 1303561, Control_c, 0, 64, 127
1, 1303567, Note_on_c, 0, 59, 52
1, 1303578, Note_off_c, 0, 83, 54
1, 1303665, Control_c, 0, 64, 121
1, 1303679, Control_c, 0, 64, 84
1, 1303694, Control_c, 0, 64, 64
1, 1303696, Note_on_c, 0, 83, 76
1, 1303697, Note_off_c, 0, 59, 58
1, 1303703, Note_on_c, 0, 51, 59
1, 1303705, Note_on_c, 0, 57, 59
1, 1303709, Control_c, 0, 64, 45
1, 1303713, Note_on_c, 0, 71, 73
1, 1303724, Control_c, 0, 64, 0
1, 1303753, Control_c, 0, 64, 32
1, 1303768, Control_c, 0, 64, 51
1, 1303783, Control_c, 0, 64, 65
1, 1303797, Control_c, 0, 64, 78
1, 1303802, Note_off_c, 0, 51, 61
1, 1303812, Control_c, 0, 64, 95
1, 1303817, Note_off_c, 0, 57, 62
1, 1303827, Control_c, 0, 64, 111
1, 1303835, Note_on_c, 0, 59, 63
1, 1303842, Control_c, 0, 64, 127
1, 1303887, Note_off_c, 0, 71, 38
1, 1303887, Note_off_c, 0, 83, 49
1, 1303953, Control_c, 0, 64, 92
1, 1303968, Control_c, 0, 64, 68
1, 1303983, Control_c, 0, 64, 49
1, 1303998, Control_c, 0, 64, 0
1, 1304003, Note_on_c, 0, 83, 81
1, 1304008, Note_on_c, 0, 52, 62
1, 1304011, Note_off_c, 0, 59, 57
1, 1304011, Note_on_c, 0, 71, 69
1, 1304017, Note_on_c, 0, 57, 62
1, 1304027, Control_c, 0, 64, 43
1, 1304042, Control_c, 0, 64, 61
1, 1304057, Control_c, 0, 64, 77
1, 1304072, Control_c, 0, 64, 96
1, 1304078, Note_off_c, 0, 71, 61
1, 1304086, Control_c, 0, 64, 113
1, 1304101, Control_c, 0, 64, 127
1, 1304130, Note_off_c, 0, 52, 60
1, 1304142, Note_off_c, 0, 57, 62
1, 1304144, Note_on_c, 0, 59, 66
1, 1304255, Note_off_c, 0, 59, 53
1, 1304265, Control_c, 0, 64, 77
1, 1304280, Control_c, 0, 64, 58
1, 1304283, Note_off_c, 0, 83, 53
1, 1304295, Control_c, 0, 64, 34
1, 1304297, Note_on_c, 0, 86, 77
1, 1304297, Note_on_c, 0, 53, 56
1, 1304301, Note_on_c, 0, 56, 57
1, 1304309, Note_on_c, 0, 74, 71
1, 1304309, Control_c, 0, 64, 0
1, 1304324, Control_c, 0, 64, 32
1, 1304339, Control_c, 0, 64, 52
1, 1304354, Control_c, 0, 64, 68
1, 1304369, Control_c, 0, 64, 79
1, 1304384, Control_c, 0, 64, 91
1, 1304399, Control_c, 0, 64, 97
1, 1304399, Note_off_c, 0, 74, 61
1, 1304414, Control_c, 0, 64, 106
1, 1304428, Control_c, 0, 64, 126
1, 1304441, Note_on_c, 0, 62, 63
1, 1304442, Note_off_c, 0, 56, 57
1, 1304449, Note_off_c, 0, 53, 60
1, 1304457, Note_off_c, 0, 86, 64
1, 1304515, Note_on_c, 0, 85, 77
1, 1304521, Note_off_c, 0, 62, 58
1, 1304533, Note_on_c, 0, 73, 56
1, 1304542, Note_off_c, 0, 85, 63
1, 1304552, Note_off_c, 0, 73, 63
1, 1304562, Control_c, 0, 64, 109
1, 1304576, Control_c, 0, 64, 75
1, 1304591, Control_c, 0, 64, 53
1, 1304612, Note_on_c, 0, 57, 54
1, 1304613, Control_c, 0, 64, 0
1, 1304621, Note_on_c, 0, 73, 74
1, 1304624, Note_on_c, 0, 54, 45
1, 1304625, Note_on_c, 0, 85, 78
1, 1304673, Control_c, 0, 64, 41
1, 1304688, Control_c, 0, 64, 58
1, 1304702, Control_c, 0, 64, 65
1, 1304717, Control_c, 0, 64, 72
1, 1304723, Note_off_c, 0, 57, 63
1, 1304732, Control_c, 0, 64, 81
1, 1304747, Control_c, 0, 64, 93
1, 1304748, Note_off_c, 0, 54, 48
1, 1304754, Note_on_c, 0, 61, 59
1, 1304761, Control_c, 0, 64, 110
1, 1304776, Control_c, 0, 64, 112
1, 1304791, Control_c, 0, 64, 96
1, 1304806, Control_c, 0, 64, 73
1, 1304821, Control_c, 0, 64, 53
1, 1304835, Control_c, 0, 64, 0
1, 1304880, Control_c, 0, 64, 50
1, 1304895, Note_off_c, 0, 61, 52
1, 1304895, Control_c, 0, 64, 62
1, 1304906, Note_on_c, 0, 59, 52
1, 1304908, Note_on_c, 0, 56, 56
1, 1304909, Control_c, 0, 64, 66
1, 1304924, Control_c, 0, 64, 68
1, 1304939, Control_c, 0, 64, 70
1, 1304953, Control_c, 0, 64, 74
1, 1304963, Note_off_c, 0, 73, 54
1, 1304968, Control_c, 0, 64, 78
1, 1304983, Control_c, 0, 64, 80
1, 1304998, Control_c, 0, 64, 81
1, 1305025, Note_off_c, 0, 59, 58
1, 1305045, Note_off_c, 0, 56, 59
1, 1305047, Note_on_c, 0, 57, 63
1, 1305063, Note_off_c, 0, 85, 61
1, 1305073, Control_c, 0, 64, 80
1, 1305078, Note_on_c, 0, 54, 44
1, 1305103, Control_c, 0, 64, 80
1, 1305118, Control_c, 0, 64, 79
1, 1305132, Control_c, 0, 64, 77
1, 1305147, Control_c, 0, 64, 75
1, 1305162, Control_c, 0, 64, 73
1, 1305177, Control_c, 0, 64, 69
1, 1305192, Control_c, 0, 64, 65
1, 1305204, Note_off_c, 0, 57, 53
1, 1305207, Control_c, 0, 64, 58
1, 1305222, Control_c, 0, 64, 47
1, 1305236, Control_c, 0, 64, 0
1, 1305241, Note_on_c, 0, 88, 59
1, 1305248, Note_on_c, 0, 76, 51
1, 1305266, Note_on_c, 0, 59, 42
1, 1305274, Note_on_c, 0, 56, 44
1, 1305284, Note_off_c, 0, 54, 55
1, 1305325, Control_c, 0, 64, 42
1, 1305340, Control_c, 0, 64, 56
1, 1305362, Control_c, 0, 64, 63
1, 1305377, Control_c, 0, 64, 65
1, 1305380, Note_off_c, 0, 56, 62
1, 1305388, Note_off_c, 0, 59, 61
1, 1305391, Control_c, 0, 64, 66
1, 1305406, Control_c, 0, 64, 67
1, 1305422, Control_c, 0, 64, 69
1, 1305437, Control_c, 0, 64, 71
1, 1305439, Note_on_c, 0, 64, 40
1, 1305451, Control_c, 0, 64, 73
1, 1305466, Control_c, 0, 64, 73
1, 1305481, Control_c, 0, 64, 74
1, 1305496, Control_c, 0, 64, 74
1, 1305511, Control_c, 0, 64, 75
1, 1305526, Control_c, 0, 64, 74
1, 1305540, Control_c, 0, 64, 72
1, 1305555, Control_c, 0, 64, 64
1, 1305570, Control_c, 0, 64, 51
1, 1305582, Note_off_c, 0, 64, 45
1, 1305585, Control_c, 0, 64, 32
1, 1305591, Note_on_c, 0, 61, 43
1, 1305600, Control_c, 0, 64, 28
1, 1305612, Note_on_c, 0, 57, 28
1, 1305615, Control_c, 0, 64, 39
1, 1305615, Control_c, 0, 67, 33
1, 1305630, Control_c, 0, 64, 53
1, 1305630, Control_c, 0, 67, 34
1, 1305641, Note_off_c, 0, 76, 38
1, 1305645, Control_c, 0, 64, 62
1, 1305645, Control_c, 0, 67, 36
1, 1305659, Control_c, 0, 64, 66
1, 1305659, Control_c, 0, 67, 56
1, 1305674, Control_c, 0, 64, 69
1, 1305674, Control_c, 0, 67, 68
1, 1305680, Note_off_c, 0, 57, 60
1, 1305689, Control_c, 0, 64, 72
1, 1305689, Control_c, 0, 67, 74
1, 1305704, Control_c, 0, 64, 74
1, 1305704, Control_c, 0, 67, 76
1, 1305717, Note_off_c, 0, 88, 57
1, 1305718, Note_off_c, 0, 61, 61
1, 1305719, Control_c, 0, 64, 77
1, 1305719, Control_c, 0, 67, 77
1, 1305726, Note_on_c, 0, 86, 54
1, 1305733, Control_c, 0, 64, 79
1, 1305741, Note_on_c, 0, 64, 56
1, 1305748, Control_c, 0, 64, 81
1, 1305763, Control_c, 0, 64, 84
1, 1305777, Control_c, 0, 64, 87
1, 1305792, Control_c, 0, 64, 91
1, 1305794, Note_off_c, 0, 86, 65
1, 1305802, Note_on_c, 0, 85, 59
1, 1305807, Control_c, 0, 64, 93
1, 1305816, Note_off_c, 0, 64, 52
1, 1305821, Note_off_c, 0, 85, 64
1, 1305823, Control_c, 0, 64, 92
1, 1305838, Control_c, 0, 64, 81
1, 1305853, Control_c, 0, 64, 67
1, 1305853, Control_c, 0, 67, 78
1, 1305868, Control_c, 0, 64, 53
1, 1305882, Control_c, 0, 64, 43
1, 1305897, Control_c, 0, 64, 45
1, 1305912, Control_c, 0, 64, 54
1, 1305913, Note_on_c, 0, 83, 63
1, 1305919, Note_on_c, 0, 57, 45
1, 1305921, Note_on_c, 0, 50, 47
1, 1305925, Note_on_c, 0, 71, 60
1, 1305927, Control_c, 0, 64, 62
1, 1305927, Control_c, 0, 67, 77
1, 1305941, Control_c, 0, 64, 68
1, 1305956, Control_c, 0, 64, 74
1, 1305971, Control_c, 0, 64, 79
1, 1305971, Control_c, 0, 67, 76
1, 1305986, Control_c, 0, 64, 82
1, 1305986, Control_c, 0, 67, 76
1, 1306000, Control_c, 0, 64, 85
1, 1306000, Control_c, 0, 67, 75
1, 1306015, Control_c, 0, 64, 89
1, 1306015, Control_c, 0, 67, 75
1, 1306023, Note_off_c, 0, 50, 61
1, 1306030, Control_c, 0, 64, 93
1, 1306037, Note_off_c, 0, 57, 59
1, 1306045, Control_c, 0, 64, 96
1, 1306045, Control_c, 0, 67, 74
1, 1306050, Note_off_c, 0, 71, 37
1, 1306050, Note_on_c, 0, 59, 54
1, 1306053, Note_off_c, 0, 83, 56
1, 1306074, Control_c, 0, 64, 99
1, 1306142, Control_c, 0, 64, 88
1, 1306156, Control_c, 0, 64, 73
1, 1306170, Control_c, 0, 64, 57
1, 1306185, Control_c, 0, 64, 33
1, 1306199, Control_c, 0, 64, 0
1, 1306203, Note_on_c, 0, 83, 70
1, 1306214, Control_c, 0, 64, 32
1, 1306215, Note_off_c, 0, 59, 52
1, 1306226, Note_on_c, 0, 71, 64
1, 1306226, Note_on_c, 0, 51, 44
1, 1306226, Note_on_c, 0, 57, 39
1, 1306229, Control_c, 0, 64, 49
1, 1306244, Control_c, 0, 64, 62
1, 1306259, Control_c, 0, 64, 69
1, 1306274, Control_c, 0, 64, 74
1, 1306289, Control_c, 0, 64, 77
1, 1306300, Note_off_c, 0, 51, 57
1, 1306304, Control_c, 0, 64, 80
1, 1306315, Note_off_c, 0, 71, 52
1, 1306319, Control_c, 0, 64, 83
1, 1306332, Note_off_c, 0, 83, 61
1, 1306333, Control_c, 0, 64, 86
1, 1306333, Control_c, 0, 67, 73
1, 1306336, Note_off_c, 0, 57, 62
1, 1306348, Control_c, 0, 64, 88
1, 1306359, Note_on_c, 0, 59, 56
1, 1306363, Control_c, 0, 64, 89
1, 1306378, Control_c, 0, 64, 90
1, 1306407, Control_c, 0, 67, 74
1, 1306452, Control_c, 0, 64, 88
1, 1306452, Control_c, 0, 67, 75
1, 1306467, Control_c, 0, 64, 82
1, 1306481, Control_c, 0, 64, 72
1, 1306481, Control_c, 0, 67, 75
1, 1306496, Control_c, 0, 64, 60
1, 1306496, Control_c, 0, 67, 76
1, 1306511, Control_c, 0, 64, 47
1, 1306511, Control_c, 0, 67, 77
1, 1306521, Note_on_c, 0, 83, 61
1, 1306524, Note_on_c, 0, 71, 54
1, 1306525, Control_c, 0, 64, 36
1, 1306525, Control_c, 0, 67, 78
1, 1306526, Note_off_c, 0, 59, 48
1, 1306534, Note_on_c, 0, 57, 41
1, 1306540, Control_c, 0, 67, 78
1, 1306542, Note_on_c, 0, 52, 43
1, 1306555, Control_c, 0, 64, 45
1, 1306555, Control_c, 0, 67, 79
1, 1306570, Control_c, 0, 64, 55
1, 1306570, Control_c, 0, 67, 80
1, 1306585, Control_c, 0, 64, 62
1, 1306585, Control_c, 0, 67, 80
1, 1306599, Control_c, 0, 64, 68
1, 1306599, Control_c, 0, 67, 81
1, 1306614, Control_c, 0, 64, 73
1, 1306614, Control_c, 0, 67, 82
1, 1306623, Note_off_c, 0, 71, 49
1, 1306630, Control_c, 0, 64, 77
1, 1306634, Note_off_c, 0, 57, 60
1, 1306645, Control_c, 0, 64, 80
1, 1306652, Note_off_c, 0, 52, 55
1, 1306657, Note_on_c, 0, 59, 53
1, 1306660, Control_c, 0, 64, 84
1, 1306675, Control_c, 0, 64, 91
1, 1306675, Control_c, 0, 67, 82
1, 1306690, Control_c, 0, 64, 97
1, 1306690, Control_c, 0, 67, 83
1, 1306704, Control_c, 0, 64, 99
1, 1306704, Control_c, 0, 67, 83
1, 1306719, Control_c, 0, 64, 93
1, 1306719, Control_c, 0, 67, 90
1, 1306734, Control_c, 0, 64, 77
1, 1306734, Control_c, 0, 67, 111
1, 1306749, Control_c, 0, 64, 60
1, 1306749, Control_c, 0, 67, 127
1, 1306751, Note_off_c, 0, 59, 55
1, 1306764, Control_c, 0, 64, 37
1, 1306775, Note_off_c, 0, 83, 58
1, 1306778, Control_c, 0, 64, 0
1, 1306793, Control_c, 0, 64, 28
1, 1306800, Note_on_c, 0, 86, 63
1, 1306804, Note_on_c, 0, 52, 48
1, 1306808, Control_c, 0, 64, 49
1, 1306811, Note_on_c, 0, 56, 53
1, 1306817, Note_on_c, 0, 74, 49
1, 1306822, Control_c, 0, 64, 62
1, 1306837, Control_c, 0, 64, 68
1, 1306855, Note_off_c, 0, 74, 51
1, 1306860, Control_c, 0, 64, 72
1, 1306875, Control_c, 0, 64, 74
1, 1306890, Control_c, 0, 64, 76
1, 1306897, Note_off_c, 0, 52, 60
1, 1306904, Control_c, 0, 64, 79
1, 1306911, Note_off_c, 0, 56, 62
1, 1306919, Control_c, 0, 64, 81
1, 1306934, Control_c, 0, 64, 84
1, 1306949, Control_c, 0, 64, 85
1, 1306961, Note_on_c, 0, 62, 55
1, 1306964, Control_c, 0, 64, 86
1, 1306974, Note_off_c, 0, 86, 56
1, 1306978, Control_c, 0, 64, 87
1, 1306993, Control_c, 0, 64, 87
1, 1307008, Control_c, 0, 64, 88
1, 1307010, Note_on_c, 0, 85, 64
1, 1307030, Note_on_c, 0, 73, 59
1, 1307036, Note_off_c, 0, 85, 67
1, 1307052, Note_off_c, 0, 73, 65
1, 1307052, Control_c, 0, 64, 87
1, 1307067, Control_c, 0, 64, 82
1, 1307082, Control_c, 0, 64, 75
1, 1307097, Control_c, 0, 64, 66
1, 1307111, Control_c, 0, 64, 54
1, 1307126, Control_c, 0, 64, 41
1, 1307130, Note_on_c, 0, 81, 70
1, 1307141, Control_c, 0, 64, 0
1, 1307143, Note_on_c, 0, 61, 51
1, 1307144, Note_off_c, 0, 62, 51
1, 1307147, Note_on_c, 0, 69, 48
1, 1307149, Note_on_c, 0, 57, 48
1, 1307171, Note_off_c, 0, 69, 61
1, 1307230, Control_c, 0, 64, 35
1, 1307245, Control_c, 0, 64, 47
1, 1307246, Note_off_c, 0, 57, 61
1, 1307260, Control_c, 0, 64, 56
1, 1307272, Note_on_c, 0, 66, 74
1, 1307275, Control_c, 0, 64, 59
1, 1307278, Note_on_c, 0, 62, 63
1, 1307282, Note_off_c, 0, 61, 60
1, 1307290, Control_c, 0, 64, 60
1, 1307304, Control_c, 0, 64, 60
1, 1307363, Control_c, 0, 64, 61
1, 1307378, Control_c, 0, 64, 62
1, 1307384, Note_off_c, 0, 66, 57
1, 1307393, Control_c, 0, 64, 63
1, 1307408, Control_c, 0, 64, 65
1, 1307416, Note_on_c, 0, 64, 63
1, 1307423, Note_on_c, 0, 61, 53
1, 1307424, Control_c, 0, 64, 66
1, 1307434, Note_off_c, 0, 62, 51
1, 1307439, Control_c, 0, 64, 66
1, 1307520, Note_off_c, 0, 61, 63
1, 1307520, Note_off_c, 0, 64, 62
1, 1307562, Note_on_c, 0, 62, 58
1, 1307566, Note_on_c, 0, 59, 60
1, 1307571, Control_c, 0, 64, 66
1, 1307586, Control_c, 0, 64, 65
1, 1307609, Control_c, 0, 64, 64
1, 1307624, Control_c, 0, 64, 63
1, 1307639, Control_c, 0, 64, 62
1, 1307653, Control_c, 0, 64, 61
1, 1307664, Note_off_c, 0, 81, 54
1, 1307668, Control_c, 0, 64, 59
1, 1307683, Control_c, 0, 64, 58
1, 1307683, Control_c, 0, 67, 125
1, 1307695, Note_off_c, 0, 59, 56
1, 1307698, Control_c, 0, 64, 57
1, 1307698, Control_c, 0, 67, 123
1, 1307713, Control_c, 0, 64, 56
1, 1307713, Control_c, 0, 67, 120
1, 1307718, Note_off_c, 0, 62, 38
1, 1307727, Control_c, 0, 64, 53
1, 1307727, Control_c, 0, 67, 117
1, 1307742, Control_c, 0, 64, 49
1, 1307742, Control_c, 0, 67, 112
1, 1307743, Note_on_c, 0, 57, 52
1, 1307757, Note_on_c, 0, 61, 55
1, 1307757, Control_c, 0, 64, 43
1, 1307757, Control_c, 0, 67, 102
1, 1307771, Control_c, 0, 64, 35
1, 1307771, Control_c, 0, 67, 84
1, 1307786, Control_c, 0, 64, 0
1, 1307786, Control_c, 0, 67, 60
1, 1307793, Note_off_c, 0, 57, 63
1, 1307796, Note_off_c, 0, 61, 64
1, 1307801, Control_c, 0, 67, 37
1, 1307816, Control_c, 0, 67, 0
1, 1307894, Note_on_c, 0, 59, 73
1, 1307919, Control_c, 0, 64, 28
1, 1307949, Control_c, 0, 64, 30
1, 1307950, Note_off_c, 0, 59, 60
1, 1307994, Control_c, 0, 64, 32
1, 1308024, Control_c, 0, 64, 33
1, 1308038, Note_on_c, 0, 61, 78
1, 1308086, Note_off_c, 0, 61, 65
1, 1308182, Note_on_c, 0, 62, 78
1, 1308201, Control_c, 0, 64, 33
1, 1308211, Note_off_c, 0, 62, 64
1, 1308217, Control_c, 0, 64, 34
1, 1308232, Control_c, 0, 64, 35
1, 1308247, Control_c, 0, 64, 35
1, 1308262, Control_c, 0, 64, 36
1, 1308291, Control_c, 0, 64, 37
1, 1308321, Control_c, 0, 64, 37
1, 1308336, Control_c, 0, 64, 38
1, 1308357, Control_c, 0, 64, 38
1, 1308372, Control_c, 0, 64, 39
1, 1308387, Control_c, 0, 64, 40
1, 1308395, Note_on_c, 0, 64, 64
1, 1308398, Note_on_c, 0, 69, 55
1, 1308402, Control_c, 0, 64, 40
1, 1308417, Control_c, 0, 64, 42
1, 1308432, Control_c, 0, 64, 43
1, 1308447, Control_c, 0, 64, 46
1, 1308452, Note_on_c, 0, 61, 45
1, 1308458, Note_off_c, 0, 69, 54
1, 1308462, Control_c, 0, 64, 48
1, 1308477, Control_c, 0, 64, 51
1, 1308492, Control_c, 0, 64, 54
1, 1308506, Control_c, 0, 64, 56
1, 1308521, Control_c, 0, 64, 58
1, 1308536, Control_c, 0, 64, 59
1, 1308551, Control_c, 0, 64, 61
1, 1308562, Note_on_c, 0, 71, 69
1, 1308566, Control_c, 0, 64, 63
1, 1308581, Control_c, 0, 64, 64
1, 1308595, Control_c, 0, 64, 65
1, 1308610, Control_c, 0, 64, 67
1, 1308623, Note_off_c, 0, 71, 59
1, 1308625, Control_c, 0, 64, 68
1, 1308640, Control_c, 0, 64, 70
1, 1308655, Control_c, 0, 64, 71
1, 1308669, Control_c, 0, 64, 73
1, 1308684, Note_off_c, 0, 64, 62
1, 1308684, Control_c, 0, 64, 74
1, 1308699, Control_c, 0, 64, 76
1, 1308706, Note_on_c, 0, 73, 65
1, 1308714, Control_c, 0, 64, 78
1, 1308729, Control_c, 0, 64, 79
1, 1308743, Control_c, 0, 64, 81
1, 1308758, Control_c, 0, 64, 82
1, 1308767, Note_off_c, 0, 73, 56
1, 1308773, Control_c, 0, 64, 83
1, 1308834, Note_on_c, 0, 74, 66
1, 1308834, Note_on_c, 0, 64, 67
1, 1308866, Note_off_c, 0, 74, 62
1, 1308995, Control_c, 0, 64, 82
1, 1309025, Control_c, 0, 64, 81
1, 1309040, Control_c, 0, 64, 80
1, 1309055, Control_c, 0, 64, 79
1, 1309067, Note_on_c, 0, 76, 57
1, 1309070, Control_c, 0, 64, 77
1, 1309076, Note_on_c, 0, 66, 65
1, 1309085, Control_c, 0, 64, 74
1, 1309107, Control_c, 0, 64, 71
1, 1309118, Note_off_c, 0, 61, 25
1, 1309122, Control_c, 0, 64, 68
1, 1309134, Note_off_c, 0, 64, 57
1, 1309137, Control_c, 0, 64, 62
1, 1309142, Note_on_c, 0, 58, 41
1, 1309151, Control_c, 0, 64, 52
1, 1309163, Note_off_c, 0, 76, 59
1, 1309166, Control_c, 0, 64, 38
1, 1309181, Note_on_c, 0, 75, 61
1, 1309181, Control_c, 0, 64, 0
1, 1309257, Note_off_c, 0, 75, 63
1, 1309270, Control_c, 0, 64, 40
1, 1309276, Note_on_c, 0, 76, 60
1, 1309285, Control_c, 0, 64, 55
1, 1309299, Control_c, 0, 64, 64
1, 1309313, Note_off_c, 0, 76, 61
1, 1309314, Control_c, 0, 64, 68
1, 1309329, Control_c, 0, 64, 70
1, 1309344, Control_c, 0, 64, 73
1, 1309351, Note_on_c, 0, 77, 68
1, 1309359, Control_c, 0, 64, 76
1, 1309374, Control_c, 0, 64, 78
1, 1309389, Control_c, 0, 64, 80
1, 1309404, Control_c, 0, 64, 82
1, 1309418, Control_c, 0, 64, 83
1, 1309425, Note_off_c, 0, 58, 37
1, 1309428, Note_off_c, 0, 77, 61
1, 1309433, Control_c, 0, 64, 84
1, 1309434, Note_on_c, 0, 78, 70
1, 1309445, Note_off_c, 0, 66, 62
1, 1309448, Control_c, 0, 64, 84
1, 1309504, Note_off_c, 0, 78, 61
1, 1309525, Note_on_c, 0, 79, 63
1, 1309581, Control_c, 0, 64, 84
1, 1309596, Control_c, 0, 64, 83
1, 1309611, Control_c, 0, 64, 82
1, 1309617, Note_on_c, 0, 78, 63
1, 1309618, Note_off_c, 0, 79, 56
1, 1309625, Control_c, 0, 64, 81
1, 1309640, Control_c, 0, 64, 80
1, 1309655, Control_c, 0, 64, 77
1, 1309660, Note_on_c, 0, 64, 64
1, 1309670, Control_c, 0, 64, 75
1, 1309681, Note_on_c, 0, 59, 46
1, 1309685, Control_c, 0, 64, 73
1, 1309688, Note_off_c, 0, 78, 58
1, 1309699, Control_c, 0, 64, 71
1, 1309714, Note_on_c, 0, 77, 62
1, 1309714, Control_c, 0, 64, 70
1, 1309729, Control_c, 0, 64, 68
1, 1309744, Control_c, 0, 64, 65
1, 1309758, Control_c, 0, 64, 63
1, 1309773, Note_off_c, 0, 77, 60
1, 1309773, Control_c, 0, 64, 61
1, 1309788, Control_c, 0, 64, 59
1, 1309803, Control_c, 0, 64, 57
1, 1309807, Note_on_c, 0, 78, 61
1, 1309819, Control_c, 0, 64, 54
1, 1309834, Control_c, 0, 64, 52
1, 1309856, Control_c, 0, 64, 49
1, 1309871, Control_c, 0, 64, 46
1, 1309886, Control_c, 0, 64, 45
1, 1309887, Note_off_c, 0, 78, 60
1, 1309901, Control_c, 0, 64, 44
1, 1309909, Note_on_c, 0, 79, 61
1, 1309916, Control_c, 0, 64, 44
1, 1309930, Control_c, 0, 64, 43
1, 1309944, Note_on_c, 0, 63, 61
1, 1309945, Control_c, 0, 64, 42
1, 1309960, Control_c, 0, 64, 42
1, 1309967, Note_off_c, 0, 64, 62
1, 1309989, Note_off_c, 0, 63, 61
1, 1309989, Note_off_c, 0, 79, 60
1, 1309991, Note_off_c, 0, 59, 63
1, 1310002, Note_on_c, 0, 80, 64
1, 1310095, Note_on_c, 0, 82, 56
1, 1310098, Note_off_c, 0, 80, 57
1, 1310256, Control_c, 0, 64, 42
1, 1310265, Note_off_c, 0, 82, 55
1, 1310277, Note_on_c, 0, 83, 51
1, 1310301, Control_c, 0, 64, 43
1, 1310315, Note_on_c, 0, 59, 42
1, 1310330, Control_c, 0, 64, 43
1, 1310360, Control_c, 0, 64, 44
1, 1310374, Control_c, 0, 64, 44
1, 1310404, Control_c, 0, 64, 45
1, 1310419, Control_c, 0, 64, 45
1, 1310448, Control_c, 0, 64, 46
1, 1310459, Note_off_c, 0, 83, 52
1, 1310493, Control_c, 0, 64, 46
1, 1310537, Control_c, 0, 64, 47
1, 1310581, Control_c, 0, 64, 47
1, 1310604, Control_c, 0, 64, 48
1, 1310635, Control_c, 0, 64, 48
1, 1310813, Note_on_c, 0, 61, 42
1, 1310900, Control_c, 0, 67, 45
1, 1310903, Note_off_c, 0, 59, 36
1, 1310915, Control_c, 0, 67, 63
1, 1310930, Control_c, 0, 67, 79
1, 1310945, Control_c, 0, 67, 85
1, 1310960, Control_c, 0, 67, 88
1, 1310972, Note_off_c, 0, 61, 55
1, 1310974, Note_on_c, 0, 62, 44
1, 1310975, Control_c, 0, 67, 94
1, 1310989, Control_c, 0, 67, 102
1, 1311004, Control_c, 0, 67, 109
1, 1311019, Control_c, 0, 67, 113
1, 1311106, Note_on_c, 0, 74, 56
1, 1311117, Note_on_c, 0, 54, 43
1, 1311137, Note_off_c, 0, 74, 63
1, 1311150, Note_off_c, 0, 54, 63
1, 1311256, Control_c, 0, 67, 110
1, 1311262, Note_on_c, 0, 56, 47
1, 1311268, Note_on_c, 0, 76, 41
1, 1311294, Note_off_c, 0, 76, 58
1, 1311298, Note_off_c, 0, 56, 62
1, 1311396, Control_c, 0, 67, 108
1, 1311413, Note_on_c, 0, 57, 46
1, 1311414, Note_on_c, 0, 78, 48
1, 1311416, Note_off_c, 0, 62, 60
1, 1311428, Control_c, 0, 64, 49
1, 1311453, Note_off_c, 0, 78, 61
1, 1311470, Note_off_c, 0, 57, 60
1, 1311599, Note_on_c, 0, 76, 47
1, 1311625, Note_on_c, 0, 56, 31
1, 1311626, Note_on_c, 0, 64, 27
1, 1311702, Note_off_c, 0, 76, 55
1, 1311716, Note_on_c, 0, 80, 55
1, 1311798, Control_c, 0, 64, 49
1, 1311799, Note_off_c, 0, 80, 54
1, 1311812, Note_on_c, 0, 81, 57
1, 1311812, Control_c, 0, 64, 50
1, 1311827, Control_c, 0, 64, 53
1, 1311827, Control_c, 0, 67, 106
1, 1311842, Control_c, 0, 64, 56
1, 1311857, Control_c, 0, 64, 60
1, 1311872, Control_c, 0, 64, 64
1, 1311881, Note_off_c, 0, 81, 62
1, 1311887, Control_c, 0, 64, 67
1, 1311887, Control_c, 0, 67, 104
1, 1311894, Note_on_c, 0, 83, 64
1, 1311902, Control_c, 0, 64, 70
1, 1311917, Control_c, 0, 64, 72
1, 1311932, Control_c, 0, 64, 74
1, 1311946, Control_c, 0, 64, 76
1, 1311961, Control_c, 0, 64, 77
1, 1311976, Note_off_c, 0, 83, 60
1, 1311976, Control_c, 0, 64, 79
1, 1311991, Control_c, 0, 64, 80
1, 1311995, Note_on_c, 0, 80, 59
1, 1312006, Control_c, 0, 64, 81
1, 1312020, Control_c, 0, 64, 81
1, 1312036, Note_off_c, 0, 64, 43
1, 1312053, Note_off_c, 0, 80, 61
1, 1312072, Note_off_c, 0, 56, 42
1, 1312090, Note_on_c, 0, 74, 58
1, 1312142, Note_off_c, 0, 74, 56
1, 1312161, Control_c, 0, 64, 81
1, 1312191, Control_c, 0, 64, 80
1, 1312206, Control_c, 0, 64, 80
1, 1312209, Note_on_c, 0, 73, 53
1, 1312221, Control_c, 0, 64, 78
1, 1312236, Note_on_c, 0, 57, 40
1, 1312236, Control_c, 0, 64, 77
1, 1312251, Control_c, 0, 64, 75
1, 1312265, Control_c, 0, 64, 74
1, 1312280, Control_c, 0, 64, 71
1, 1312290, Note_off_c, 0, 73, 60
1, 1312295, Control_c, 0, 64, 68
1, 1312310, Control_c, 0, 64, 64
1, 1312313, Note_on_c, 0, 71, 58
1, 1312325, Control_c, 0, 64, 60
1, 1312340, Control_c, 0, 64, 54
1, 1312340, Control_c, 0, 67, 102
1, 1312355, Control_c, 0, 64, 48
1, 1312369, Control_c, 0, 64, 37
1, 1312384, Note_off_c, 0, 71, 47
1, 1312384, Control_c, 0, 64, 0
1, 1312384, Control_c, 0, 67, 97
1, 1312399, Control_c, 0, 67, 92
1, 1312409, Note_on_c, 0, 73, 60
1, 1312414, Control_c, 0, 67, 85
1, 1312429, Control_c, 0, 67, 64
1, 1312443, Control_c, 0, 67, 0
1, 1312459, Note_off_c, 0, 73, 57
1, 1312502, Note_on_c, 0, 74, 60
1, 1312562, Note_off_c, 0, 74, 58
1, 1312578, Note_on_c, 0, 73, 66
1, 1312656, Note_off_c, 0, 73, 61
1, 1312682, Note_on_c, 0, 59, 46
1, 1312684, Note_on_c, 0, 74, 64
1, 1312771, Note_off_c, 0, 74, 55
1, 1312796, Note_off_c, 0, 59, 55
1, 1312802, Note_on_c, 0, 76, 58
1, 1312829, Note_on_c, 0, 61, 50
1, 1312890, Note_off_c, 0, 76, 62
1, 1312904, Note_on_c, 0, 78, 63
1, 1312954, Control_c, 0, 64, 40
1, 1312969, Control_c, 0, 64, 53
1, 1312984, Control_c, 0, 64, 60
1, 1312999, Control_c, 0, 64, 63
1, 1313007, Note_on_c, 0, 80, 62
1, 1313014, Control_c, 0, 64, 64
1, 1313029, Control_c, 0, 64, 66
1, 1313044, Control_c, 0, 64, 69
1, 1313054, Note_off_c, 0, 78, 56
1, 1313059, Control_c, 0, 64, 72
1, 1313073, Control_c, 0, 64, 76
1, 1313088, Control_c, 0, 64, 80
1, 1313091, Note_on_c, 0, 81, 67
1, 1313094, Note_off_c, 0, 80, 59
1, 1313103, Control_c, 0, 64, 84
1, 1313118, Control_c, 0, 64, 88
1, 1313133, Control_c, 0, 64, 92
1, 1313133, Control_c, 0, 67, 35
1, 1313148, Control_c, 0, 64, 96
1, 1313148, Control_c, 0, 67, 42
1, 1313163, Control_c, 0, 64, 99
1, 1313163, Control_c, 0, 67, 49
1, 1313166, Note_off_c, 0, 61, 54
1, 1313173, Note_off_c, 0, 81, 61
1, 1313178, Control_c, 0, 64, 102
1, 1313178, Control_c, 0, 67, 53
1, 1313184, Note_on_c, 0, 76, 66
1, 1313192, Control_c, 0, 64, 104
1, 1313192, Control_c, 0, 67, 56
1, 1313200, Note_off_c, 0, 57, 41
1, 1313207, Control_c, 0, 67, 56
1, 1313222, Control_c, 0, 64, 106
1, 1313222, Control_c, 0, 67, 57
1, 1313237, Control_c, 0, 67, 57
1, 1313269, Note_off_c, 0, 76, 62
1, 1313279, Note_on_c, 0, 73, 63
1, 1313296, Control_c, 0, 67, 57
1, 1313326, Control_c, 0, 64, 108
1, 1313342, Note_off_c, 0, 73, 62
1, 1313370, Control_c, 0, 64, 98
1, 1313383, Note_on_c, 0, 78, 62
1, 1313384, Control_c, 0, 64, 84
1, 1313399, Control_c, 0, 64, 72
1, 1313409, Note_on_c, 0, 59, 57
1, 1313414, Note_on_c, 0, 50, 49
1, 1313414, Control_c, 0, 64, 65
1, 1313429, Control_c, 0, 64, 64
1, 1313444, Control_c, 0, 64, 66
1, 1313458, Control_c, 0, 64, 71
1, 1313460, Note_off_c, 0, 78, 57
1, 1313473, Control_c, 0, 64, 77
1, 1313485, Note_on_c, 0, 71, 68
1, 1313488, Control_c, 0, 64, 83
1, 1313503, Control_c, 0, 64, 89
1, 1313503, Control_c, 0, 67, 56
1, 1313517, Control_c, 0, 64, 95
1, 1313517, Control_c, 0, 67, 56
1, 1313527, Note_off_c, 0, 59, 56
1, 1313532, Control_c, 0, 64, 100
1, 1313547, Control_c, 0, 64, 106
1, 1313547, Control_c, 0, 67, 55
1, 1313562, Control_c, 0, 64, 111
1, 1313577, Note_off_c, 0, 71, 51
1, 1313577, Control_c, 0, 64, 117
1, 1313577, Control_c, 0, 67, 54
1, 1313589, Note_on_c, 0, 78, 63
1, 1313599, Control_c, 0, 64, 127
1, 1313614, Control_c, 0, 67, 54
1, 1313659, Control_c, 0, 67, 54
1, 1313673, Control_c, 0, 64, 101
1, 1313678, Note_on_c, 0, 81, 68
1, 1313682, Note_off_c, 0, 78, 55
1, 1313688, Control_c, 0, 64, 72
1, 1313702, Note_on_c, 0, 59, 71
1, 1313703, Control_c, 0, 64, 56
1, 1313717, Control_c, 0, 64, 54
1, 1313717, Control_c, 0, 67, 55
1, 1313732, Control_c, 0, 64, 60
1, 1313747, Control_c, 0, 64, 66
1, 1313762, Note_off_c, 0, 81, 63
1, 1313762, Control_c, 0, 64, 76
1, 1313777, Control_c, 0, 64, 94
1, 1313778, Note_on_c, 0, 71, 75
1, 1313792, Control_c, 0, 64, 127
1, 1313802, Note_off_c, 0, 50, 61
1, 1313867, Note_off_c, 0, 59, 58
1, 1313868, Note_off_c, 0, 71, 56
1, 1313870, Note_on_c, 0, 81, 72
1, 1313960, Note_off_c, 0, 81, 61
1, 1313962, Note_on_c, 0, 80, 71
1, 1313970, Control_c, 0, 67, 56
1, 1313980, Note_on_c, 0, 59, 78
1, 1313985, Control_c, 0, 64, 80
1, 1314000, Control_c, 0, 64, 61
1, 1314004, Note_on_c, 0, 52, 59
1, 1314015, Control_c, 0, 64, 51
1, 1314030, Control_c, 0, 64, 55
1, 1314033, Note_off_c, 0, 80, 59
1, 1314045, Control_c, 0, 64, 64
1, 1314050, Note_on_c, 0, 71, 71
1, 1314060, Control_c, 0, 64, 72
1, 1314075, Control_c, 0, 64, 88
1, 1314089, Control_c, 0, 64, 105
1, 1314104, Control_c, 0, 64, 111
1, 1314115, Note_off_c, 0, 71, 55
1, 1314119, Control_c, 0, 64, 123
1, 1314133, Control_c, 0, 64, 127
1, 1314142, Note_on_c, 0, 80, 73
1, 1314148, Control_c, 0, 67, 55
1, 1314163, Control_c, 0, 67, 54
1, 1314237, Control_c, 0, 64, 115
1, 1314250, Note_off_c, 0, 80, 60
1, 1314252, Control_c, 0, 64, 73
1, 1314261, Note_off_c, 0, 59, 59
1, 1314262, Note_on_c, 0, 83, 76
1, 1314267, Control_c, 0, 64, 56
1, 1314282, Control_c, 0, 64, 44
1, 1314284, Note_on_c, 0, 62, 70
1, 1314296, Control_c, 0, 64, 47
1, 1314296, Control_c, 0, 67, 55
1, 1314311, Control_c, 0, 64, 58
1, 1314326, Control_c, 0, 64, 67
1, 1314348, Control_c, 0, 64, 77
1, 1314363, Control_c, 0, 64, 90
1, 1314378, Note_on_c, 0, 80, 74
1, 1314378, Control_c, 0, 64, 94
1, 1314378, Control_c, 0, 67, 54
1, 1314381, Note_off_c, 0, 83, 61
1, 1314393, Control_c, 0, 64, 100
1, 1314407, Control_c, 0, 64, 106
1, 1314413, Note_off_c, 0, 62, 60
1, 1314421, Control_c, 0, 64, 109
1, 1314436, Control_c, 0, 64, 111
1, 1314459, Note_off_c, 0, 80, 58
1, 1314481, Note_on_c, 0, 83, 73
1, 1314481, Control_c, 0, 67, 54
1, 1314484, Note_on_c, 0, 61, 65
1, 1314486, Note_off_c, 0, 52, 57
1, 1314510, Control_c, 0, 67, 53
1, 1314525, Control_c, 0, 64, 108
1, 1314540, Control_c, 0, 64, 102
1, 1314540, Control_c, 0, 67, 54
1, 1314542, Note_off_c, 0, 83, 58
1, 1314555, Control_c, 0, 64, 95
1, 1314555, Control_c, 0, 67, 54
1, 1314570, Control_c, 0, 64, 84
1, 1314579, Note_on_c, 0, 81, 72
1, 1314581, Note_on_c, 0, 57, 67
1, 1314585, Control_c, 0, 64, 72
1, 1314599, Control_c, 0, 64, 58
1, 1314599, Control_c, 0, 67, 55
1, 1314615, Control_c, 0, 64, 31
1, 1314630, Control_c, 0, 64, 0
1, 1314683, Note_off_c, 0, 81, 62
1, 1314689, Note_on_c, 0, 83, 65
1, 1314689, Control_c, 0, 64, 31
1, 1314704, Control_c, 0, 64, 54
1, 1314719, Control_c, 0, 64, 65
1, 1314734, Control_c, 0, 64, 73
1, 1314749, Control_c, 0, 64, 81
1, 1314755, Note_off_c, 0, 83, 63
1, 1314763, Control_c, 0, 64, 91
1, 1314765, Note_on_c, 0, 80, 75
1, 1314778, Control_c, 0, 64, 101
1, 1314793, Control_c, 0, 64, 114
1, 1314808, Control_c, 0, 64, 127
1, 1314835, Note_off_c, 0, 80, 61
1, 1314837, Control_c, 0, 67, 54
1, 1314852, Control_c, 0, 67, 54
1, 1314856, Note_on_c, 0, 81, 81
1, 1314882, Control_c, 0, 67, 53
1, 1314932, Note_off_c, 0, 81, 52
1, 1314945, Note_on_c, 0, 83, 83
1, 1315029, Control_c, 0, 67, 54
1, 1315038, Note_on_c, 0, 84, 82
1, 1315046, Note_off_c, 0, 83, 61
1, 1315156, Control_c, 0, 67, 54
1, 1315158, Note_on_c, 0, 85, 73
1, 1315188, Note_off_c, 0, 84, 56
1, 1315194, Note_on_c, 0, 64, 79
1, 1315200, Control_c, 0, 64, 117
1, 1315215, Control_c, 0, 64, 105
1, 1315224, Note_off_c, 0, 85, 63
1, 1315230, Control_c, 0, 64, 91
1, 1315244, Control_c, 0, 64, 74
1, 1315259, Control_c, 0, 64, 58
1, 1315267, Note_on_c, 0, 86, 77
1, 1315274, Control_c, 0, 64, 0
1, 1315318, Control_c, 0, 67, 54
1, 1315333, Control_c, 0, 64, 35
1, 1315336, Note_off_c, 0, 57, 59
1, 1315348, Control_c, 0, 64, 55
1, 1315357, Note_off_c, 0, 61, 59
1, 1315357, Note_off_c, 0, 86, 55
1, 1315360, Note_on_c, 0, 88, 80
1, 1315363, Control_c, 0, 64, 68
1, 1315363, Control_c, 0, 67, 53
1, 1315377, Control_c, 0, 64, 81
1, 1315392, Control_c, 0, 64, 96
1, 1315392, Control_c, 0, 67, 53
1, 1315407, Control_c, 0, 64, 118
1, 1315423, Control_c, 0, 64, 127
1, 1315453, Note_on_c, 0, 90, 84
1, 1315453, Control_c, 0, 67, 52
1, 1315464, Note_off_c, 0, 88, 62
1, 1315497, Control_c, 0, 67, 52
1, 1315515, Note_off_c, 0, 64, 61
1, 1315527, Control_c, 0, 67, 51
1, 1315543, Note_on_c, 0, 92, 78
1, 1315562, Note_on_c, 0, 62, 53
1, 1315586, Control_c, 0, 67, 50
1, 1315598, Note_off_c, 0, 90, 62
1, 1315612, Note_off_c, 0, 62, 62
1, 1315624, Note_on_c, 0, 93, 81
1, 1315631, Note_off_c, 0, 92, 67
1, 1315631, Note_on_c, 0, 61, 62
1, 1315647, Note_off_c, 0, 93, 68
1, 1315657, Note_off_c, 0, 61, 66
1, 1315675, Control_c, 0, 67, 51
1, 1315704, Control_c, 0, 67, 52
1, 1315719, Control_c, 0, 64, 95
1, 1315734, Control_c, 0, 64, 68
1, 1315734, Control_c, 0, 67, 52
1, 1315749, Control_c, 0, 64, 48
1, 1315764, Control_c, 0, 64, 39
1, 1315767, Note_on_c, 0, 78, 68
1, 1315771, Note_on_c, 0, 59, 59
1, 1315778, Control_c, 0, 64, 48
1, 1315783, Note_on_c, 0, 50, 54
1, 1315793, Control_c, 0, 64, 60
1, 1315808, Control_c, 0, 64, 68
1, 1315808, Control_c, 0, 67, 53
1, 1315823, Control_c, 0, 64, 81
1, 1315842, Note_off_c, 0, 78, 60
1, 1315845, Control_c, 0, 64, 96
1, 1315860, Control_c, 0, 64, 106
1, 1315869, Note_on_c, 0, 71, 75
1, 1315875, Control_c, 0, 64, 121
1, 1315875, Control_c, 0, 67, 52
1, 1315890, Control_c, 0, 64, 127
1, 1315890, Control_c, 0, 67, 52
1, 1315905, Note_off_c, 0, 59, 58
1, 1315954, Note_off_c, 0, 71, 54
1, 1315958, Note_on_c, 0, 78, 73
1, 1315979, Control_c, 0, 67, 52
1, 1316023, Control_c, 0, 64, 87
1, 1316023, Control_c, 0, 67, 53
1, 1316038, Control_c, 0, 64, 63
1, 1316040, Note_off_c, 0, 50, 63
1, 1316053, Note_on_c, 0, 81, 78
1, 1316053, Control_c, 0, 64, 38
1, 1316053, Control_c, 0, 67, 53
1, 1316054, Note_off_c, 0, 78, 59
1, 1316059, Note_on_c, 0, 59, 89
1, 1316060, Note_on_c, 0, 51, 70
1, 1316067, Control_c, 0, 64, 0
1, 1316067, Control_c, 0, 67, 54
1, 1316082, Control_c, 0, 64, 37
1, 1316097, Control_c, 0, 64, 59
1, 1316099, Note_off_c, 0, 51, 64
1, 1316111, Control_c, 0, 64, 73
1, 1316126, Control_c, 0, 64, 94
1, 1316126, Control_c, 0, 67, 53
1, 1316130, Note_off_c, 0, 81, 64
1, 1316141, Control_c, 0, 64, 127
1, 1316149, Note_on_c, 0, 71, 77
1, 1316182, Note_off_c, 0, 59, 43
1, 1316216, Control_c, 0, 67, 53
1, 1316236, Note_on_c, 0, 81, 75
1, 1316246, Control_c, 0, 67, 52
1, 1316249, Note_off_c, 0, 71, 59
1, 1316297, Note_off_c, 0, 81, 65
1, 1316320, Control_c, 0, 64, 89
1, 1316327, Note_on_c, 0, 80, 80
1, 1316334, Control_c, 0, 64, 63
1, 1316337, Note_on_c, 0, 59, 83
1, 1316346, Note_on_c, 0, 52, 74
1, 1316349, Control_c, 0, 64, 34
1, 1316364, Control_c, 0, 64, 0
1, 1316379, Control_c, 0, 64, 34
1, 1316394, Note_off_c, 0, 80, 62
1, 1316394, Control_c, 0, 64, 59
1, 1316409, Control_c, 0, 64, 75
1, 1316413, Note_on_c, 0, 71, 79
1, 1316424, Control_c, 0, 64, 99
1, 1316424, Control_c, 0, 67, 53
1, 1316439, Control_c, 0, 64, 127
1, 1316465, Note_off_c, 0, 71, 61
1, 1316468, Control_c, 0, 67, 52
1, 1316483, Control_c, 0, 67, 52
1, 1316508, Note_on_c, 0, 80, 73
1, 1316513, Control_c, 0, 67, 51
1, 1316557, Control_c, 0, 67, 50
1, 1316572, Control_c, 0, 67, 48
1, 1316594, Control_c, 0, 64, 75
1, 1316594, Control_c, 0, 67, 40
1, 1316601, Note_off_c, 0, 80, 61
1, 1316608, Note_off_c, 0, 59, 62
1, 1316609, Control_c, 0, 64, 46
1, 1316609, Control_c, 0, 67, 0
1, 1316615, Note_on_c, 0, 83, 76
1, 1316623, Control_c, 0, 64, 0
1, 1316629, Note_on_c, 0, 62, 87
1, 1316653, Control_c, 0, 64, 33
1, 1316668, Control_c, 0, 64, 63
1, 1316682, Control_c, 0, 64, 80
1, 1316697, Control_c, 0, 64, 127
1, 1316712, Note_on_c, 0, 80, 76
1, 1316713, Note_off_c, 0, 83, 61
1, 1316723, Note_off_c, 0, 52, 53
1, 1316747, Note_off_c, 0, 62, 57
1, 1316805, Note_off_c, 0, 80, 60
1, 1316814, Note_on_c, 0, 61, 70
1, 1316826, Note_on_c, 0, 88, 67
1, 1316851, Note_off_c, 0, 61, 63
1, 1316880, Note_off_c, 0, 88, 66
1, 1316913, Note_on_c, 0, 61, 95
1, 1316915, Note_on_c, 0, 53, 74
1, 1316919, Note_on_c, 0, 85, 74
1, 1316919, Control_c, 0, 64, 100
1, 1316934, Control_c, 0, 64, 75
1, 1316948, Control_c, 0, 64, 57
1, 1316963, Control_c, 0, 64, 0
1, 1316981, Note_off_c, 0, 85, 64
1, 1317019, Note_on_c, 0, 80, 79
1, 1317068, Control_c, 0, 64, 40
1, 1317083, Control_c, 0, 64, 56
1, 1317089, Note_off_c, 0, 80, 61
1, 1317097, Control_c, 0, 64, 65
1, 1317112, Note_on_c, 0, 92, 85
1, 1317112, Control_c, 0, 64, 70
1, 1317127, Control_c, 0, 64, 71
1, 1317172, Control_c, 0, 64, 69
1, 1317187, Control_c, 0, 64, 62
1, 1317198, Note_on_c, 0, 89, 80
1, 1317202, Control_c, 0, 64, 48
1, 1317215, Note_off_c, 0, 92, 65
1, 1317217, Control_c, 0, 64, 0
1, 1317276, Control_c, 0, 64, 42
1, 1317283, Note_on_c, 0, 85, 90
1, 1317291, Control_c, 0, 64, 58
1, 1317305, Control_c, 0, 64, 67
1, 1317317, Note_off_c, 0, 89, 59
1, 1317320, Control_c, 0, 64, 76
1, 1317342, Control_c, 0, 64, 84
1, 1317357, Control_c, 0, 64, 93
1, 1317372, Control_c, 0, 64, 106
1, 1317380, Note_on_c, 0, 97, 96
1, 1317387, Control_c, 0, 64, 127
1, 1317400, Note_off_c, 0, 85, 60
1, 1317469, Note_on_c, 0, 92, 84
1, 1317521, Note_off_c, 0, 97, 63
1, 1317551, Note_on_c, 0, 89, 79
1, 1317584, Note_off_c, 0, 92, 66
1, 1317621, Note_on_c, 0, 85, 69
1, 1317622, Note_off_c, 0, 89, 65
1, 1317643, Note_off_c, 0, 85, 70
1, 1317654, Note_off_c, 0, 61, 57
1, 1317742, Control_c, 0, 64, 95
1, 1317756, Control_c, 0, 64, 69
1, 1317765, Note_on_c, 0, 59, 76
1, 1317766, Note_on_c, 0, 73, 82
1, 1317771, Control_c, 0, 64, 49
1, 1317786, Control_c, 0, 64, 0
1, 1317817, Control_c, 0, 64, 33
1, 1317832, Control_c, 0, 64, 54
1, 1317834, Note_off_c, 0, 73, 61
1, 1317847, Control_c, 0, 64, 67
1, 1317861, Control_c, 0, 64, 81
1, 1317867, Note_on_c, 0, 85, 79
1, 1317876, Control_c, 0, 64, 100
1, 1317891, Control_c, 0, 64, 117
1, 1317906, Control_c, 0, 64, 127
1, 1317947, Note_off_c, 0, 85, 62
1, 1317969, Note_off_c, 0, 53, 59
1, 1317972, Note_on_c, 0, 73, 69
1, 1317982, Note_on_c, 0, 61, 67
1, 1317993, Note_off_c, 0, 59, 59
1, 1318028, Note_off_c, 0, 73, 58
1, 1318052, Note_off_c, 0, 61, 53
1, 1318054, Control_c, 0, 64, 97
1, 1318064, Note_on_c, 0, 62, 79
1, 1318069, Control_c, 0, 64, 70
1, 1318071, Note_on_c, 0, 81, 68
1, 1318091, Control_c, 0, 64, 51
1, 1318097, Note_on_c, 0, 54, 62
1, 1318105, Control_c, 0, 64, 0
1, 1318135, Control_c, 0, 64, 42
1, 1318151, Control_c, 0, 64, 59
1, 1318166, Control_c, 0, 64, 69
1, 1318180, Control_c, 0, 64, 82
1, 1318181, Note_on_c, 0, 78, 77
1, 1318183, Note_off_c, 0, 81, 61
1, 1318195, Control_c, 0, 64, 95
1, 1318210, Control_c, 0, 64, 102
1, 1318225, Control_c, 0, 64, 110
1, 1318240, Control_c, 0, 64, 127
1, 1318248, Note_off_c, 0, 78, 61
1, 1318259, Note_off_c, 0, 62, 57
1, 1318287, Note_on_c, 0, 86, 75
1, 1318351, Note_off_c, 0, 86, 62
1, 1318358, Control_c, 0, 64, 87
1, 1318370, Note_on_c, 0, 81, 76
1, 1318372, Note_on_c, 0, 62, 84
1, 1318373, Control_c, 0, 64, 63
1, 1318388, Control_c, 0, 64, 35
1, 1318403, Control_c, 0, 64, 0
1, 1318418, Control_c, 0, 64, 31
1, 1318433, Control_c, 0, 64, 56
1, 1318445, Note_off_c, 0, 81, 65
1, 1318448, Control_c, 0, 64, 70
1, 1318462, Control_c, 0, 64, 93
1, 1318467, Note_on_c, 0, 78, 84
1, 1318477, Control_c, 0, 64, 127
1, 1318512, Note_off_c, 0, 54, 60
1, 1318533, Note_off_c, 0, 78, 59
1, 1318537, Note_off_c, 0, 62, 55
1, 1318561, Note_on_c, 0, 90, 82
1, 1318626, Note_off_c, 0, 90, 64
1, 1318641, Control_c, 0, 64, 91
1, 1318649, Note_on_c, 0, 62, 88
1, 1318651, Note_on_c, 0, 86, 79
1, 1318656, Control_c, 0, 64, 62
1, 1318665, Note_on_c, 0, 54, 72
1, 1318671, Control_c, 0, 64, 0
1, 1318700, Control_c, 0, 64, 36
1, 1318715, Control_c, 0, 64, 59
1, 1318723, Note_off_c, 0, 86, 65
1, 1318729, Control_c, 0, 64, 74
1, 1318737, Note_on_c, 0, 81, 81
1, 1318744, Control_c, 0, 64, 108
1, 1318759, Control_c, 0, 64, 127
1, 1318808, Note_off_c, 0, 81, 63
1, 1318841, Note_on_c, 0, 93, 80
1, 1318856, Control_c, 0, 64, 94
1, 1318864, Note_off_c, 0, 93, 69
1, 1318871, Control_c, 0, 64, 63
1, 1318885, Control_c, 0, 64, 30
1, 1318900, Control_c, 0, 64, 0
1, 1318915, Control_c, 0, 64, 44
1, 1318923, Note_off_c, 0, 62, 60
1, 1318929, Control_c, 0, 64, 64
1, 1318944, Control_c, 0, 64, 83
1, 1318948, Note_on_c, 0, 66, 86
1, 1318952, Note_on_c, 0, 78, 81
1, 1318959, Control_c, 0, 64, 127
1, 1319010, Note_off_c, 0, 54, 61
1, 1319025, Note_off_c, 0, 78, 59
1, 1319044, Note_on_c, 0, 80, 74
1, 1319056, Note_off_c, 0, 66, 59
1, 1319095, Note_off_c, 0, 80, 62
1, 1319128, Note_on_c, 0, 64, 69
1, 1319146, Note_on_c, 0, 81, 74
1, 1319176, Note_off_c, 0, 64, 61
1, 1319190, Note_off_c, 0, 81, 60
1, 1319196, Control_c, 0, 64, 77
1, 1319211, Control_c, 0, 64, 55
1, 1319226, Control_c, 0, 64, 0
1, 1319232, Note_on_c, 0, 64, 76
1, 1319238, Note_on_c, 0, 56, 74
1, 1319247, Note_on_c, 0, 83, 72
1, 1319270, Control_c, 0, 64, 48
1, 1319285, Control_c, 0, 64, 62
1, 1319300, Control_c, 0, 64, 69
1, 1319315, Control_c, 0, 64, 74
1, 1319318, Note_off_c, 0, 83, 64
1, 1319326, Note_on_c, 0, 76, 79
1, 1319329, Control_c, 0, 64, 82
1, 1319344, Control_c, 0, 64, 95
1, 1319359, Control_c, 0, 64, 127
1, 1319389, Note_off_c, 0, 76, 63
1, 1319415, Note_on_c, 0, 88, 81
1, 1319420, Control_c, 0, 64, 103
1, 1319434, Control_c, 0, 64, 73
1, 1319449, Control_c, 0, 64, 56
1, 1319464, Control_c, 0, 64, 50
1, 1319479, Control_c, 0, 64, 57
1, 1319482, Note_off_c, 0, 88, 65
1, 1319494, Control_c, 0, 64, 65
1, 1319501, Note_on_c, 0, 83, 83
1, 1319508, Control_c, 0, 64, 74
1, 1319523, Control_c, 0, 64, 90
1, 1319538, Control_c, 0, 64, 127
1, 1319587, Note_off_c, 0, 83, 65
1, 1319593, Note_on_c, 0, 80, 91
1, 1319619, Control_c, 0, 64, 101
1, 1319634, Control_c, 0, 64, 67
1, 1319649, Control_c, 0, 64, 37
1, 1319658, Note_off_c, 0, 80, 62
1, 1319664, Control_c, 0, 64, 0
1, 1319679, Note_on_c, 0, 92, 91
1, 1319694, Control_c, 0, 64, 44
1, 1319708, Control_c, 0, 64, 65
1, 1319723, Control_c, 0, 64, 80
1, 1319731, Note_on_c, 0, 93, 25
1, 1319738, Control_c, 0, 64, 106
1, 1319752, Note_off_c, 0, 92, 66
1, 1319752, Control_c, 0, 64, 127
1, 1319756, Note_on_c, 0, 88, 81
1, 1319777, Note_off_c, 0, 93, 32
1, 1319840, Note_off_c, 0, 88, 66
1, 1319849, Note_on_c, 0, 83, 87
1, 1319902, Note_off_c, 0, 83, 65
1, 1319915, Control_c, 0, 64, 99
1, 1319930, Control_c, 0, 64, 72
1, 1319932, Note_on_c, 0, 95, 84
1, 1319945, Control_c, 0, 64, 54
1, 1319959, Control_c, 0, 64, 31
1, 1319974, Control_c, 0, 64, 0
1, 1319989, Control_c, 0, 64, 34
1, 1320004, Control_c, 0, 64, 53
1, 1320009, Note_off_c, 0, 95, 66
1, 1320019, Control_c, 0, 64, 65
1, 1320031, Note_on_c, 0, 92, 84
1, 1320034, Control_c, 0, 64, 74
1, 1320049, Control_c, 0, 64, 84
1, 1320063, Control_c, 0, 64, 94
1, 1320078, Control_c, 0, 64, 111
1, 1320093, Control_c, 0, 64, 127
1, 1320124, Note_on_c, 0, 88, 73
1, 1320165, Note_off_c, 0, 64, 61
1, 1320168, Note_off_c, 0, 92, 62
1, 1320174, Note_off_c, 0, 88, 67
1, 1320191, Note_off_c, 0, 56, 50
1, 1320195, Note_on_c, 0, 100, 76
1, 1320221, Note_off_c, 0, 100, 69
1, 1320412, Control_c, 0, 64, 102
1, 1320419, Note_on_c, 0, 81, 73
1, 1320427, Note_on_c, 0, 64, 46
1, 1320427, Control_c, 0, 64, 79
1, 1320429, Note_on_c, 0, 55, 46
1, 1320442, Control_c, 0, 64, 64
1, 1320444, Note_on_c, 0, 57, 39
1, 1320457, Control_c, 0, 64, 51
1, 1320460, Note_on_c, 0, 61, 27
1, 1320472, Control_c, 0, 64, 42
1, 1320487, Control_c, 0, 64, 46
1, 1320490, Note_off_c, 0, 81, 59
1, 1320501, Control_c, 0, 64, 57
1, 1320516, Control_c, 0, 64, 64
1, 1320517, Note_on_c, 0, 69, 69
1, 1320531, Control_c, 0, 64, 73
1, 1320546, Control_c, 0, 64, 83
1, 1320561, Control_c, 0, 64, 91
1, 1320563, Note_off_c, 0, 69, 58
1, 1320575, Control_c, 0, 64, 97
1, 1320590, Control_c, 0, 64, 108
1, 1320592, Note_off_c, 0, 64, 61
1, 1320597, Note_on_c, 0, 81, 71
1, 1320602, Note_off_c, 0, 55, 48
1, 1320605, Control_c, 0, 64, 127
1, 1320624, Note_off_c, 0, 61, 38
1, 1320628, Note_off_c, 0, 57, 36
1, 1320656, Note_off_c, 0, 81, 63
1, 1320693, Note_on_c, 0, 85, 88
1, 1320694, Control_c, 0, 64, 98
1, 1320704, Note_on_c, 0, 64, 75
1, 1320708, Control_c, 0, 64, 68
1, 1320713, Note_on_c, 0, 61, 64
1, 1320721, Note_on_c, 0, 55, 65
1, 1320722, Note_on_c, 0, 57, 62
1, 1320723, Control_c, 0, 64, 45
1, 1320738, Control_c, 0, 64, 35
1, 1320753, Control_c, 0, 64, 48
1, 1320761, Note_off_c, 0, 85, 65
1, 1320768, Control_c, 0, 64, 60
1, 1320782, Control_c, 0, 64, 72
1, 1320785, Note_on_c, 0, 73, 80
1, 1320797, Control_c, 0, 64, 90
1, 1320812, Control_c, 0, 64, 127
1, 1320844, Note_off_c, 0, 73, 62
1, 1320862, Note_off_c, 0, 57, 60
1, 1320865, Note_off_c, 0, 64, 61
1, 1320867, Note_on_c, 0, 85, 82
1, 1320869, Note_off_c, 0, 61, 59
1, 1320874, Note_off_c, 0, 55, 57
1, 1320961, Control_c, 0, 64, 78
1, 1320965, Note_on_c, 0, 88, 93
1, 1320968, Note_off_c, 0, 85, 62
1, 1320975, Control_c, 0, 64, 52
1, 1320979, Note_on_c, 0, 64, 80
1, 1320989, Note_on_c, 0, 55, 65
1, 1320989, Note_on_c, 0, 61, 64
1, 1320990, Control_c, 0, 64, 0
1, 1321007, Note_on_c, 0, 57, 53
1, 1321035, Control_c, 0, 64, 45
1, 1321044, Note_off_c, 0, 88, 65
1, 1321050, Control_c, 0, 64, 63
1, 1321053, Note_on_c, 0, 76, 87
1, 1321065, Control_c, 0, 64, 75
1, 1321087, Control_c, 0, 64, 94
1, 1321102, Control_c, 0, 64, 112
1, 1321117, Control_c, 0, 64, 127
1, 1321120, Note_off_c, 0, 76, 63
1, 1321153, Note_on_c, 0, 88, 82
1, 1321159, Note_off_c, 0, 57, 56
1, 1321168, Note_off_c, 0, 61, 59
1, 1321173, Note_off_c, 0, 64, 63
1, 1321175, Note_off_c, 0, 55, 56
1, 1321228, Note_off_c, 0, 88, 60
1, 1321235, Control_c, 0, 64, 80
1, 1321250, Control_c, 0, 64, 60
1, 1321257, Note_on_c, 0, 93, 96
1, 1321265, Control_c, 0, 64, 36
1, 1321271, Note_on_c, 0, 64, 81
1, 1321280, Control_c, 0, 64, 0
1, 1321286, Note_on_c, 0, 61, 60
1, 1321291, Note_on_c, 0, 55, 63
1, 1321295, Control_c, 0, 64, 38
1, 1321297, Note_on_c, 0, 57, 50
1, 1321309, Control_c, 0, 64, 56
1, 1321324, Control_c, 0, 64, 66
1, 1321336, Note_off_c, 0, 93, 63
1, 1321339, Control_c, 0, 64, 75
1, 1321354, Note_on_c, 0, 81, 86
1, 1321354, Control_c, 0, 64, 82
1, 1321355, Note_off_c, 0, 61, 63
1, 1321369, Control_c, 0, 64, 88
1, 1321382, Note_off_c, 0, 55, 60
1, 1321384, Control_c, 0, 64, 94
1, 1321398, Control_c, 0, 64, 103
1, 1321405, Note_off_c, 0, 57, 58
1, 1321413, Control_c, 0, 64, 109
1, 1321426, Note_off_c, 0, 64, 60
1, 1321428, Control_c, 0, 64, 113
1, 1321438, Note_off_c, 0, 81, 63
1, 1321453, Note_on_c, 0, 93, 86
1, 1321531, Control_c, 0, 64, 109
1, 1321546, Control_c, 0, 64, 105
1, 1321561, Control_c, 0, 64, 100
1, 1321576, Control_c, 0, 64, 96
1, 1321591, Control_c, 0, 64, 91
1, 1321605, Control_c, 0, 64, 86
1, 1321609, Note_off_c, 0, 93, 57
1, 1321620, Control_c, 0, 64, 82
1, 1321631, Note_on_c, 0, 81, 71
1, 1321635, Control_c, 0, 64, 76
1, 1321639, Note_on_c, 0, 66, 81
1, 1321649, Control_c, 0, 64, 70
1, 1321664, Control_c, 0, 64, 63
1, 1321667, Note_on_c, 0, 62, 45
1, 1321678, Note_on_c, 0, 54, 46
1, 1321679, Control_c, 0, 64, 55
1, 1321694, Control_c, 0, 64, 36
1, 1321709, Control_c, 0, 64, 0
1, 1321718, Note_on_c, 0, 57, 16
1, 1321764, Note_on_c, 0, 93, 75
1, 1321805, Note_off_c, 0, 81, 58
1, 1321836, Control_c, 0, 64, 39
1, 1321851, Control_c, 0, 64, 52
1, 1321866, Control_c, 0, 64, 62
1, 1321867, Note_on_c, 0, 90, 65
1, 1321881, Control_c, 0, 64, 66
1, 1321885, Note_off_c, 0, 54, 60
1, 1321896, Control_c, 0, 64, 69
1, 1321905, Note_off_c, 0, 93, 57
1, 1321910, Control_c, 0, 64, 73
1, 1321925, Control_c, 0, 64, 77
1, 1321932, Note_on_c, 0, 86, 69
1, 1321937, Note_off_c, 0, 57, 40
1, 1321940, Control_c, 0, 64, 80
1, 1321948, Note_off_c, 0, 62, 54
1, 1321953, Note_off_c, 0, 90, 64
1, 1321954, Control_c, 0, 64, 84
1, 1321957, Note_off_c, 0, 66, 60
1, 1321969, Control_c, 0, 64, 87
1, 1321977, Note_off_c, 0, 86, 65
1, 1321984, Control_c, 0, 64, 91
1, 1321999, Control_c, 0, 64, 95
1, 1322009, Note_on_c, 0, 81, 65
1, 1322014, Control_c, 0, 64, 99
1, 1322028, Control_c, 0, 64, 101
1, 1322049, Note_off_c, 0, 81, 56
1, 1322058, Control_c, 0, 64, 103
1, 1322095, Note_on_c, 0, 77, 72
1, 1322193, Note_on_c, 0, 78, 65
1, 1322196, Note_off_c, 0, 77, 59
1, 1322219, Note_on_c, 0, 74, 84
1, 1322245, Note_on_c, 0, 66, 66
1, 1322251, Control_c, 0, 64, 97
1, 1322266, Control_c, 0, 64, 86
1, 1322275, Note_on_c, 0, 80, 68
1, 1322280, Control_c, 0, 64, 73
1, 1322294, Note_off_c, 0, 78, 59
1, 1322295, Control_c, 0, 64, 58
1, 1322310, Control_c, 0, 64, 0
1, 1322332, Note_off_c, 0, 80, 63
1, 1322362, Note_on_c, 0, 81, 80
1, 1322384, Control_c, 0, 64, 36
1, 1322399, Control_c, 0, 64, 53
1, 1322414, Control_c, 0, 64, 65
1, 1322421, Note_off_c, 0, 81, 64
1, 1322428, Control_c, 0, 64, 72
1, 1322443, Control_c, 0, 64, 79
1, 1322458, Note_on_c, 0, 83, 82
1, 1322458, Control_c, 0, 64, 86
1, 1322465, Note_off_c, 0, 74, 66
1, 1322472, Control_c, 0, 64, 95
1, 1322473, Note_off_c, 0, 66, 0
1, 1322477, Note_on_c, 0, 71, 66
1, 1322483, Note_on_c, 0, 62, 67
1, 1322487, Control_c, 0, 64, 103
1, 1322493, Note_on_c, 0, 66, 29
1, 1322498, Note_off_c, 0, 71, 64
1, 1322502, Control_c, 0, 64, 115
1, 1322513, Note_off_c, 0, 62, 68
1, 1322517, Control_c, 0, 64, 127
1, 1322521, Note_off_c, 0, 66, 56
1, 1322540, Note_on_c, 0, 85, 83
1, 1322549, Note_off_c, 0, 83, 61
1, 1322639, Note_on_c, 0, 86, 80
1, 1322666, Note_off_c, 0, 85, 53
1, 1322706, Note_on_c, 0, 52, 63
1, 1322733, Control_c, 0, 64, 78
1, 1322743, Note_on_c, 0, 61, 70
1, 1322746, Note_off_c, 0, 52, 61
1, 1322748, Control_c, 0, 64, 51
1, 1322761, Note_off_c, 0, 86, 61
1, 1322763, Control_c, 0, 64, 0
1, 1322770, Note_on_c, 0, 88, 73
1, 1322807, Control_c, 0, 64, 30
1, 1322822, Control_c, 0, 64, 52
1, 1322836, Note_on_c, 0, 69, 84
1, 1322837, Control_c, 0, 64, 67
1, 1322851, Control_c, 0, 64, 81
1, 1322866, Note_off_c, 0, 88, 63
1, 1322866, Control_c, 0, 64, 99
1, 1322868, Note_on_c, 0, 85, 73
1, 1322881, Control_c, 0, 64, 110
1, 1322896, Control_c, 0, 64, 127
1, 1322941, Note_off_c, 0, 69, 57
1, 1322942, Note_on_c, 0, 81, 72
1, 1322958, Note_off_c, 0, 85, 62
1, 1322964, Note_off_c, 0, 61, 58
1, 1322994, Note_off_c, 0, 81, 66
1, 1323042, Note_on_c, 0, 76, 68
1, 1323115, Note_off_c, 0, 76, 64
1, 1323116, Note_on_c, 0, 73, 75
1, 1323168, Note_off_c, 0, 73, 64
1, 1323177, Control_c, 0, 64, 93
1, 1323192, Control_c, 0, 64, 70
1, 1323199, Note_on_c, 0, 61, 65
1, 1323206, Note_on_c, 0, 69, 66
1, 1323207, Control_c, 0, 64, 54
1, 1323208, Note_on_c, 0, 76, 82
1, 1323221, Control_c, 0, 64, 50
1, 1323236, Control_c, 0, 64, 57
1, 1323251, Control_c, 0, 64, 63
1, 1323266, Control_c, 0, 64, 69
1, 1323277, Note_off_c, 0, 69, 56
1, 1323281, Control_c, 0, 64, 82
1, 1323287, Note_off_c, 0, 61, 62
1, 1323295, Control_c, 0, 64, 102
1, 1323299, Note_off_c, 0, 76, 60
1, 1323310, Control_c, 0, 64, 127
1, 1323328, Note_on_c, 0, 85, 82
1, 1323361, Note_on_c, 0, 73, 77
1, 1323375, Note_on_c, 0, 69, 60
1, 1323377, Control_c, 0, 64, 90
1, 1323381, Note_on_c, 0, 64, 64
1, 1323392, Control_c, 0, 64, 66
1, 1323408, Control_c, 0, 64, 54
1, 1323422, Note_on_c, 0, 76, 73
1, 1323423, Control_c, 0, 64, 57
1, 1323438, Control_c, 0, 64, 66
1, 1323453, Control_c, 0, 64, 77
1, 1323456, Note_off_c, 0, 85, 56
1, 1323468, Control_c, 0, 64, 109
1, 1323482, Control_c, 0, 64, 127
1, 1323509, Note_off_c, 0, 73, 62
1, 1323520, Note_off_c, 0, 76, 61
1, 1323530, Note_on_c, 0, 81, 68
1, 1323556, Control_c, 0, 64, 90
1, 1323571, Control_c, 0, 64, 69
1, 1323586, Control_c, 0, 64, 57
1, 1323600, Control_c, 0, 64, 50
1, 1323615, Control_c, 0, 64, 52
1, 1323621, Note_on_c, 0, 83, 67
1, 1323630, Control_c, 0, 64, 61
1, 1323631, Note_on_c, 0, 71, 67
1, 1323632, Note_on_c, 0, 68, 63
1, 1323643, Note_off_c, 0, 81, 61
1, 1323645, Control_c, 0, 64, 71
1, 1323650, Note_off_c, 0, 69, 61
1, 1323659, Note_off_c, 0, 71, 67
1, 1323660, Control_c, 0, 64, 88
1, 1323664, Note_off_c, 0, 68, 66
1, 1323673, Note_off_c, 0, 64, 55
1, 1323674, Control_c, 0, 64, 127
1, 1323703, Note_off_c, 0, 83, 63
1, 1323715, Note_on_c, 0, 76, 71
1, 1323751, Note_off_c, 0, 76, 62
1, 1323802, Note_on_c, 0, 80, 73
1, 1323837, Note_off_c, 0, 80, 59
1, 1323837, Control_c, 0, 64, 92
1, 1323852, Control_c, 0, 64, 68
1, 1323867, Control_c, 0, 64, 46
1, 1323882, Control_c, 0, 64, 0
1, 1323911, Note_on_c, 0, 64, 62
1, 1323912, Control_c, 0, 64, 36
1, 1323919, Note_on_c, 0, 57, 49
1, 1323923, Note_on_c, 0, 69, 62
1, 1323926, Note_on_c, 0, 61, 53
1, 1323926, Control_c, 0, 64, 55
1, 1323929, Note_on_c, 0, 55, 51
1, 1323930, Note_on_c, 0, 71, 56
1, 1323941, Control_c, 0, 64, 69
1, 1323956, Control_c, 0, 64, 80
1, 1323958, Note_off_c, 0, 71, 53
1, 1323960, Note_off_c, 0, 69, 63
1, 1323971, Control_c, 0, 64, 92
1, 1323986, Control_c, 0, 64, 102
1, 1324000, Control_c, 0, 64, 127
1, 1324001, Note_on_c, 0, 83, 73
1, 1324009, Note_off_c, 0, 64, 60
1, 1324016, Note_off_c, 0, 57, 59
1, 1324016, Note_off_c, 0, 61, 54
1, 1324041, Note_off_c, 0, 55, 58
1, 1324081, Note_off_c, 0, 83, 64
1, 1324110, Note_on_c, 0, 81, 66
1, 1324156, Control_c, 0, 64, 97
1, 1324171, Control_c, 0, 64, 65
1, 1324176, Note_off_c, 0, 81, 65
1, 1324186, Control_c, 0, 64, 32
1, 1324192, Note_on_c, 0, 64, 85
1, 1324193, Note_on_c, 0, 73, 88
1, 1324195, Note_on_c, 0, 57, 65
1, 1324195, Note_on_c, 0, 61, 73
1, 1324201, Note_on_c, 0, 55, 67
1, 1324201, Control_c, 0, 64, 0
1, 1324216, Control_c, 0, 64, 35
1, 1324231, Control_c, 0, 64, 56
1, 1324246, Control_c, 0, 64, 72
1, 1324255, Note_off_c, 0, 73, 63
1, 1324261, Control_c, 0, 64, 126
1, 1324290, Note_on_c, 0, 86, 89
1, 1324293, Note_off_c, 0, 57, 61
1, 1324301, Note_off_c, 0, 61, 60
1, 1324311, Note_off_c, 0, 64, 56
1, 1324363, Note_off_c, 0, 86, 64
1, 1324366, Note_off_c, 0, 55, 31
1, 1324374, Note_on_c, 0, 85, 88
1, 1324438, Control_c, 0, 64, 74
1, 1324442, Note_off_c, 0, 85, 65
1, 1324453, Control_c, 0, 64, 41
1, 1324467, Note_on_c, 0, 64, 91
1, 1324467, Control_c, 0, 64, 0
1, 1324469, Note_on_c, 0, 76, 89
1, 1324472, Note_on_c, 0, 61, 75
1, 1324472, Note_on_c, 0, 55, 77
1, 1324476, Note_on_c, 0, 57, 68
1, 1324482, Control_c, 0, 64, 33
1, 1324497, Control_c, 0, 64, 57
1, 1324512, Control_c, 0, 64, 74
1, 1324515, Note_off_c, 0, 76, 67
1, 1324527, Control_c, 0, 64, 126
1, 1324562, Note_on_c, 0, 89, 78
1, 1324592, Note_off_c, 0, 61, 56
1, 1324594, Note_off_c, 0, 57, 58
1, 1324596, Note_on_c, 0, 88, 39
1, 1324603, Note_off_c, 0, 64, 59
1, 1324629, Note_off_c, 0, 89, 62
1, 1324636, Note_off_c, 0, 88, 0
1, 1324641, Note_off_c, 0, 55, 46
1, 1324650, Note_on_c, 0, 88, 60
1, 1324705, Control_c, 0, 64, 95
1, 1324720, Control_c, 0, 64, 63
1, 1324725, Note_off_c, 0, 88, 66
1, 1324735, Control_c, 0, 64, 0
1, 1324737, Note_on_c, 0, 81, 87
1, 1324745, Note_on_c, 0, 64, 87
1, 1324748, Note_on_c, 0, 55, 83
1, 1324749, Note_on_c, 0, 57, 72
1, 1324752, Note_on_c, 0, 61, 70
1, 1324764, Control_c, 0, 64, 31
1, 1324779, Control_c, 0, 64, 60
1, 1324793, Note_off_c, 0, 81, 65
1, 1324794, Control_c, 0, 64, 81
1, 1324809, Note_off_c, 0, 64, 64
1, 1324809, Control_c, 0, 64, 127
1, 1324823, Note_off_c, 0, 55, 61
1, 1324836, Note_on_c, 0, 95, 85
1, 1324842, Note_off_c, 0, 57, 64
1, 1324847, Note_off_c, 0, 61, 63
1, 1324922, Note_on_c, 0, 93, 86
1, 1324964, Note_off_c, 0, 95, 66
1, 1325018, Note_off_c, 0, 93, 62
1, 1325024, Control_c, 0, 64, 79
1, 1325039, Control_c, 0, 64, 45
1, 1325049, Note_on_c, 0, 81, 96
1, 1325053, Control_c, 0, 64, 0
1, 1325056, Note_on_c, 0, 66, 100
1, 1325059, Note_on_c, 0, 62, 74
1, 1325062, Note_on_c, 0, 54, 75
1, 1325062, Note_on_c, 0, 57, 69
1, 1325158, Note_on_c, 0, 93, 82
1, 1325237, Note_off_c, 0, 81, 55
1, 1325249, Note_on_c, 0, 90, 78
1, 1325261, Control_c, 0, 64, 33
1, 1325276, Control_c, 0, 64, 58
1, 1325289, Note_off_c, 0, 93, 63
1, 1325290, Control_c, 0, 64, 69
1, 1325305, Control_c, 0, 64, 79
1, 1325320, Control_c, 0, 64, 92
1, 1325332, Note_on_c, 0, 86, 76
1, 1325335, Control_c, 0, 64, 103
1, 1325341, Note_off_c, 0, 66, 62
1, 1325350, Control_c, 0, 64, 127
1, 1325364, Note_off_c, 0, 90, 62
1, 1325366, Note_off_c, 0, 62, 60
1, 1325369, Note_off_c, 0, 54, 62
1, 1325376, Note_off_c, 0, 57, 61
1, 1325382, Note_off_c, 0, 86, 66
1, 1325420, Note_on_c, 0, 81, 74
1, 1325490, Note_off_c, 0, 81, 43
1, 1325504, Note_on_c, 0, 77, 76
1, 1325620, Note_on_c, 0, 78, 75
1, 1325622, Note_off_c, 0, 77, 62
1, 1325623, Control_c, 0, 64, 100
1, 1325628, Note_on_c, 0, 62, 75
1, 1325629, Note_on_c, 0, 54, 61
1, 1325630, Note_on_c, 0, 59, 70
1, 1325638, Control_c, 0, 64, 72
1, 1325641, Note_on_c, 0, 50, 63
1, 1325653, Control_c, 0, 64, 51
1, 1325668, Control_c, 0, 64, 0
1, 1325716, Note_on_c, 0, 80, 72
1, 1325731, Note_off_c, 0, 78, 56
1, 1325772, Note_off_c, 0, 80, 63
1, 1325805, Note_on_c, 0, 81, 80
1, 1325832, Control_c, 0, 64, 41
1, 1325847, Control_c, 0, 64, 55
1, 1325862, Control_c, 0, 64, 64
1, 1325866, Note_off_c, 0, 81, 59
1, 1325876, Control_c, 0, 64, 69
1, 1325891, Note_on_c, 0, 83, 85
1, 1325891, Control_c, 0, 64, 74
1, 1325906, Control_c, 0, 64, 79
1, 1325921, Control_c, 0, 64, 85
1, 1325936, Control_c, 0, 64, 91
1, 1325942, Note_off_c, 0, 62, 62
1, 1325951, Control_c, 0, 64, 98
1, 1325958, Note_off_c, 0, 50, 55
1, 1325966, Control_c, 0, 64, 108
1, 1325978, Note_off_c, 0, 59, 62
1, 1325981, Control_c, 0, 64, 127
1, 1325984, Note_on_c, 0, 85, 86
1, 1325994, Note_off_c, 0, 54, 60
1, 1325995, Note_off_c, 0, 83, 61
1, 1326068, Note_on_c, 0, 86, 83
1, 1326094, Note_off_c, 0, 85, 61
1, 1326183, Note_off_c, 0, 86, 65
1, 1326195, Note_on_c, 0, 76, 84
1, 1326198, Note_on_c, 0, 57, 61
1, 1326201, Note_on_c, 0, 61, 70
1, 1326202, Control_c, 0, 64, 98
1, 1326211, Note_on_c, 0, 52, 58
1, 1326214, Note_on_c, 0, 49, 59
1, 1326217, Control_c, 0, 64, 74
1, 1326232, Control_c, 0, 64, 51
1, 1326246, Control_c, 0, 64, 0
1, 1326300, Note_on_c, 0, 88, 76
1, 1326308, Note_off_c, 0, 76, 48
1, 1326341, Note_on_c, 0, 86, 36
1, 1326343, Control_c, 0, 64, 34
1, 1326358, Control_c, 0, 64, 51
1, 1326373, Control_c, 0, 64, 61
1, 1326374, Note_off_c, 0, 86, 34
1, 1326385, Note_on_c, 0, 85, 76
1, 1326388, Control_c, 0, 64, 65
1, 1326402, Control_c, 0, 64, 69
1, 1326417, Control_c, 0, 64, 76
1, 1326422, Note_off_c, 0, 88, 60
1, 1326432, Control_c, 0, 64, 87
1, 1326446, Control_c, 0, 64, 99
1, 1326461, Control_c, 0, 64, 118
1, 1326467, Note_on_c, 0, 81, 74
1, 1326472, Note_off_c, 0, 49, 63
1, 1326476, Control_c, 0, 64, 127
1, 1326487, Note_off_c, 0, 57, 63
1, 1326487, Note_off_c, 0, 52, 60
1, 1326496, Note_off_c, 0, 85, 63
1, 1326502, Note_off_c, 0, 61, 62
1, 1326522, Note_off_c, 0, 81, 65
1, 1326544, Note_on_c, 0, 76, 79
1, 1326585, Note_off_c, 0, 76, 61
1, 1326631, Note_on_c, 0, 73, 82
1, 1326696, Note_off_c, 0, 73, 63
1, 1326741, Note_on_c, 0, 75, 86
1, 1326744, Control_c, 0, 64, 78
1, 1326752, Note_on_c, 0, 66, 100
1, 1326756, Note_on_c, 0, 63, 84
1, 1326756, Note_on_c, 0, 57, 73
1, 1326759, Control_c, 0, 64, 42
1, 1326760, Note_on_c, 0, 59, 70
1, 1326762, Note_on_c, 0, 54, 70
1, 1326768, Note_off_c, 0, 75, 64
1, 1326773, Control_c, 0, 64, 0
1, 1326868, Note_on_c, 0, 93, 82
1, 1326947, Note_on_c, 0, 90, 78
1, 1326957, Note_off_c, 0, 93, 62
1, 1326996, Control_c, 0, 64, 40
1, 1327010, Control_c, 0, 64, 60
1, 1327025, Control_c, 0, 64, 65
1, 1327039, Note_on_c, 0, 87, 79
1, 1327040, Control_c, 0, 64, 68
1, 1327051, Note_off_c, 0, 90, 63
1, 1327055, Control_c, 0, 64, 72
1, 1327070, Note_off_c, 0, 66, 61
1, 1327077, Control_c, 0, 64, 77
1, 1327083, Note_off_c, 0, 59, 61
1, 1327085, Note_off_c, 0, 63, 62
1, 1327092, Control_c, 0, 64, 83
1, 1327094, Note_off_c, 0, 57, 62
1, 1327107, Control_c, 0, 64, 89
1, 1327110, Note_off_c, 0, 87, 65
1, 1327116, Note_off_c, 0, 54, 59
1, 1327121, Note_on_c, 0, 83, 83
1, 1327122, Control_c, 0, 64, 94
1, 1327137, Control_c, 0, 64, 99
1, 1327151, Control_c, 0, 64, 103
1, 1327166, Control_c, 0, 64, 105
1, 1327209, Note_on_c, 0, 87, 78
1, 1327233, Note_off_c, 0, 83, 47
1, 1327299, Control_c, 0, 64, 103
1, 1327314, Control_c, 0, 64, 92
1, 1327329, Control_c, 0, 64, 77
1, 1327343, Control_c, 0, 64, 61
1, 1327346, Note_on_c, 0, 88, 86
1, 1327347, Note_off_c, 0, 87, 60
1, 1327358, Control_c, 0, 64, 30
1, 1327360, Note_on_c, 0, 56, 40
1, 1327370, Note_on_c, 0, 64, 61
1, 1327372, Note_on_c, 0, 59, 48
1, 1327373, Control_c, 0, 64, 0
1, 1327379, Note_on_c, 0, 52, 54
1, 1327448, Note_off_c, 0, 88, 66
1, 1327448, Control_c, 0, 64, 44
1, 1327451, Note_off_c, 0, 56, 63
1, 1327463, Control_c, 0, 64, 61
1, 1327472, Note_off_c, 0, 52, 61
1, 1327476, Note_off_c, 0, 64, 62
1, 1327478, Control_c, 0, 64, 72
1, 1327492, Control_c, 0, 64, 85
1, 1327500, Note_off_c, 0, 59, 61
1, 1327507, Control_c, 0, 64, 99
1, 1327522, Control_c, 0, 64, 123
1, 1327537, Control_c, 0, 64, 127
1, 1327641, Control_c, 0, 64, 108
1, 1327656, Control_c, 0, 64, 78
1, 1327671, Control_c, 0, 64, 57
1, 1327685, Control_c, 0, 64, 0
1, 1327700, Note_on_c, 0, 87, 87
1, 1327715, Note_on_c, 0, 66, 65
1, 1327742, Note_on_c, 0, 81, 41
1, 1327745, Control_c, 0, 64, 28
1, 1327760, Control_c, 0, 64, 51
1, 1327761, Note_on_c, 0, 83, 20
1, 1327774, Control_c, 0, 64, 64
1, 1327789, Control_c, 0, 64, 75
1, 1327804, Control_c, 0, 64, 90
1, 1327805, Note_off_c, 0, 66, 64
1, 1327817, Note_off_c, 0, 83, 47
1, 1327818, Note_on_c, 0, 59, 63
1, 1327826, Control_c, 0, 64, 117
1, 1327839, Note_off_c, 0, 81, 42
1, 1327841, Control_c, 0, 64, 127
1, 1327875, Note_off_c, 0, 87, 62
1, 1327895, Note_on_c, 0, 52, 67
1, 1327906, Note_off_c, 0, 59, 61
1, 1327973, Control_c, 0, 64, 87
1, 1327988, Control_c, 0, 64, 58
1, 1327990, Note_on_c, 0, 88, 90
1, 1327995, Note_on_c, 0, 64, 73
1, 1328003, Control_c, 0, 64, 0
1, 1328007, Note_on_c, 0, 81, 77
1, 1328009, Note_off_c, 0, 52, 50
1, 1328015, Note_on_c, 0, 83, 67
1, 1328047, Control_c, 0, 64, 41
1, 1328062, Control_c, 0, 64, 62
1, 1328077, Control_c, 0, 64, 73
1, 1328081, Note_on_c, 0, 59, 73
1, 1328081, Note_off_c, 0, 83, 58
1, 1328084, Note_off_c, 0, 81, 59
1, 1328090, Note_off_c, 0, 64, 59
1, 1328091, Control_c, 0, 64, 93
1, 1328106, Control_c, 0, 64, 127
1, 1328124, Note_off_c, 0, 88, 62
1, 1328166, Note_on_c, 0, 52, 64
1, 1328192, Note_off_c, 0, 59, 53
1, 1328255, Control_c, 0, 64, 77
1, 1328270, Note_on_c, 0, 90, 95
1, 1328270, Control_c, 0, 64, 52
1, 1328279, Note_on_c, 0, 63, 71
1, 1328285, Note_off_c, 0, 52, 55
1, 1328285, Control_c, 0, 64, 0
1, 1328289, Note_on_c, 0, 81, 76
1, 1328298, Note_on_c, 0, 83, 59
1, 1328330, Control_c, 0, 64, 30
1, 1328344, Control_c, 0, 64, 52
1, 1328359, Control_c, 0, 64, 64
1, 1328370, Note_on_c, 0, 59, 65
1, 1328371, Note_off_c, 0, 63, 59
1, 1328374, Control_c, 0, 64, 72
1, 1328376, Note_off_c, 0, 81, 61
1, 1328389, Control_c, 0, 64, 80
1, 1328401, Note_off_c, 0, 83, 49
1, 1328404, Control_c, 0, 64, 89
1, 1328419, Control_c, 0, 64, 99
1, 1328431, Note_off_c, 0, 90, 64
1, 1328434, Control_c, 0, 64, 116
1, 1328448, Control_c, 0, 64, 127
1, 1328465, Note_on_c, 0, 52, 62
1, 1328481, Note_off_c, 0, 59, 61
1, 1328537, Control_c, 0, 64, 87
1, 1328552, Control_c, 0, 64, 63
1, 1328573, Note_off_c, 0, 52, 61
1, 1328574, Control_c, 0, 64, 32
1, 1328578, Note_on_c, 0, 88, 76
1, 1328580, Note_on_c, 0, 64, 59
1, 1328588, Note_on_c, 0, 83, 54
1, 1328589, Control_c, 0, 64, 0
1, 1328595, Note_on_c, 0, 80, 57
1, 1328610, Note_off_c, 0, 83, 64
1, 1328617, Note_off_c, 0, 88, 67
1, 1328634, Control_c, 0, 64, 47
1, 1328640, Note_off_c, 0, 80, 62
1, 1328648, Control_c, 0, 64, 60
1, 1328661, Note_off_c, 0, 64, 62
1, 1328663, Control_c, 0, 64, 64
1, 1328670, Note_on_c, 0, 59, 57
1, 1328678, Control_c, 0, 64, 67
1, 1328678, Control_c, 0, 67, 45
1, 1328693, Control_c, 0, 64, 71
1, 1328693, Control_c, 0, 67, 57
1, 1328708, Control_c, 0, 64, 76
1, 1328708, Control_c, 0, 67, 65
1, 1328722, Control_c, 0, 64, 80
1, 1328722, Control_c, 0, 67, 71
1, 1328737, Control_c, 0, 64, 85
1, 1328737, Control_c, 0, 67, 74
1, 1328740, Note_off_c, 0, 59, 63
1, 1328742, Note_on_c, 0, 52, 48
1, 1328752, Control_c, 0, 64, 90
1, 1328752, Control_c, 0, 67, 79
1, 1328767, Control_c, 0, 64, 98
1, 1328767, Control_c, 0, 67, 85
1, 1328772, Note_off_c, 0, 52, 55
1, 1328782, Control_c, 0, 64, 103
1, 1328782, Control_c, 0, 67, 93
1, 1328796, Control_c, 0, 67, 101
1, 1328811, Control_c, 0, 64, 100
1, 1328811, Control_c, 0, 67, 109
1, 1328826, Control_c, 0, 64, 91
1, 1328826, Control_c, 0, 67, 113
1, 1328840, Control_c, 0, 64, 78
1, 1328840, Control_c, 0, 67, 116
1, 1328855, Control_c, 0, 64, 70
1, 1328855, Control_c, 0, 67, 120
1, 1328868, Note_on_c, 0, 78, 63
1, 1328870, Control_c, 0, 64, 64
1, 1328870, Control_c, 0, 67, 123
1, 1328877, Note_on_c, 0, 59, 41
1, 1328885, Control_c, 0, 64, 60
1, 1328885, Control_c, 0, 67, 125
1, 1328888, Note_on_c, 0, 51, 50
1, 1328900, Control_c, 0, 64, 59
1, 1328914, Control_c, 0, 64, 60
1, 1328923, Note_on_c, 0, 57, 26
1, 1328929, Control_c, 0, 64, 60
1, 1328967, Note_on_c, 0, 71, 50
1, 1328988, Note_off_c, 0, 59, 51
1, 1328990, Control_c, 0, 64, 60
1, 1329000, Note_off_c, 0, 78, 60
1, 1329000, Note_off_c, 0, 51, 61
1, 1329005, Control_c, 0, 64, 59
1, 1329007, Note_off_c, 0, 57, 42
1, 1329019, Control_c, 0, 64, 59
1, 1329034, Control_c, 0, 64, 57
1, 1329041, Note_off_c, 0, 71, 57
1, 1329049, Control_c, 0, 64, 55
1, 1329053, Note_on_c, 0, 69, 53
1, 1329063, Control_c, 0, 64, 54
1, 1329078, Control_c, 0, 64, 53
1, 1329093, Control_c, 0, 64, 52
1, 1329105, Note_off_c, 0, 69, 52
1, 1329108, Control_c, 0, 64, 52
1, 1329123, Control_c, 0, 64, 50
1, 1329137, Control_c, 0, 64, 47
1, 1329149, Note_on_c, 0, 76, 65
1, 1329152, Control_c, 0, 64, 45
1, 1329156, Note_on_c, 0, 52, 54
1, 1329156, Note_on_c, 0, 59, 47
1, 1329161, Note_on_c, 0, 57, 31
1, 1329167, Control_c, 0, 64, 44
1, 1329182, Control_c, 0, 64, 43
1, 1329212, Control_c, 0, 64, 42
1, 1329227, Control_c, 0, 64, 41
1, 1329232, Note_off_c, 0, 76, 59
1, 1329242, Note_on_c, 0, 71, 52
1, 1329242, Control_c, 0, 64, 40
1, 1329243, Note_off_c, 0, 57, 56
1, 1329256, Control_c, 0, 64, 40
1, 1329259, Note_off_c, 0, 52, 60
1, 1329259, Note_off_c, 0, 59, 56
1, 1329301, Control_c, 0, 67, 123
1, 1329323, Note_off_c, 0, 71, 60
1, 1329338, Note_on_c, 0, 69, 46
1, 1329401, Note_off_c, 0, 69, 52
1, 1329427, Note_on_c, 0, 75, 58
1, 1329441, Control_c, 0, 67, 121
1, 1329450, Note_on_c, 0, 57, 37
1, 1329461, Note_on_c, 0, 59, 37
1, 1329462, Note_on_c, 0, 54, 41
1, 1329505, Note_off_c, 0, 75, 60
1, 1329520, Note_off_c, 0, 57, 60
1, 1329522, Note_on_c, 0, 71, 55
1, 1329545, Control_c, 0, 64, 39
1, 1329546, Note_off_c, 0, 54, 57
1, 1329549, Note_off_c, 0, 59, 50
1, 1329560, Control_c, 0, 67, 119
1, 1329602, Note_off_c, 0, 71, 60
1, 1329616, Note_on_c, 0, 69, 53
1, 1329619, Control_c, 0, 64, 39
1, 1329649, Control_c, 0, 64, 38
1, 1329663, Control_c, 0, 64, 36
1, 1329663, Control_c, 0, 67, 117
1, 1329668, Note_off_c, 0, 69, 53
1, 1329678, Control_c, 0, 64, 31
1, 1329693, Control_c, 0, 64, 0
1, 1329718, Note_on_c, 0, 76, 55
1, 1329746, Note_on_c, 0, 59, 35
1, 1329751, Note_on_c, 0, 52, 42
1, 1329752, Control_c, 0, 67, 115
1, 1329759, Note_on_c, 0, 56, 37
1, 1329783, Control_c, 0, 64, 32
1, 1329793, Note_off_c, 0, 76, 61
1, 1329798, Control_c, 0, 64, 48
1, 1329798, Control_c, 0, 67, 113
1, 1329811, Note_on_c, 0, 71, 51
1, 1329813, Control_c, 0, 64, 60
1, 1329817, Note_off_c, 0, 59, 57
1, 1329828, Control_c, 0, 64, 65
1, 1329833, Note_off_c, 0, 56, 57
1, 1329842, Control_c, 0, 64, 67
1, 1329857, Control_c, 0, 64, 70
1, 1329871, Note_off_c, 0, 52, 55
1, 1329872, Control_c, 0, 64, 73
1, 1329877, Note_off_c, 0, 71, 60
1, 1329886, Control_c, 0, 64, 77
1, 1329889, Note_on_c, 0, 68, 47
1, 1329901, Control_c, 0, 64, 82
1, 1329914, Note_off_c, 0, 68, 57
1, 1329916, Control_c, 0, 64, 88
1, 1329931, Control_c, 0, 64, 90
1, 1329946, Control_c, 0, 64, 88
1, 1329960, Control_c, 0, 64, 74
1, 1329975, Control_c, 0, 64, 58
1, 1329990, Control_c, 0, 64, 29
1, 1330005, Control_c, 0, 64, 0
1, 1330005, Control_c, 0, 67, 115
1, 1330035, Control_c, 0, 64, 31
1, 1330049, Control_c, 0, 64, 48
1, 1330072, Control_c, 0, 64, 60
1, 1330076, Note_on_c, 0, 90, 84
1, 1330086, Note_on_c, 0, 63, 69
1, 1330086, Control_c, 0, 64, 66
1, 1330086, Control_c, 0, 67, 113
1, 1330101, Control_c, 0, 64, 72
1, 1330116, Control_c, 0, 64, 80
1, 1330131, Control_c, 0, 64, 88
1, 1330135, Note_on_c, 0, 81, 14
1, 1330146, Control_c, 0, 64, 94
1, 1330146, Control_c, 0, 67, 111
1, 1330160, Control_c, 0, 64, 99
1, 1330175, Control_c, 0, 64, 104
1, 1330175, Control_c, 0, 67, 109
1, 1330176, Note_on_c, 0, 59, 69
1, 1330190, Control_c, 0, 64, 107
1, 1330190, Control_c, 0, 67, 106
1, 1330191, Note_off_c, 0, 63, 58
1, 1330200, Note_off_c, 0, 81, 46
1, 1330205, Control_c, 0, 67, 103
1, 1330219, Control_c, 0, 67, 98
1, 1330234, Note_off_c, 0, 90, 61
1, 1330234, Control_c, 0, 67, 88
1, 1330249, Control_c, 0, 67, 71
1, 1330264, Control_c, 0, 67, 47
1, 1330269, Note_on_c, 0, 52, 63
1, 1330279, Control_c, 0, 67, 0
1, 1330280, Note_off_c, 0, 59, 60
1, 1330294, Control_c, 0, 64, 96
1, 1330309, Control_c, 0, 64, 79
1, 1330324, Control_c, 0, 64, 62
1, 1330339, Control_c, 0, 64, 39
1, 1330349, Note_on_c, 0, 88, 91
1, 1330351, Note_on_c, 0, 64, 77
1, 1330354, Control_c, 0, 64, 0
1, 1330371, Note_on_c, 0, 81, 72
1, 1330375, Note_on_c, 0, 83, 65
1, 1330380, Note_off_c, 0, 52, 47
1, 1330383, Control_c, 0, 64, 43
1, 1330398, Control_c, 0, 64, 60
1, 1330412, Control_c, 0, 64, 70
1, 1330427, Control_c, 0, 64, 83
1, 1330442, Control_c, 0, 64, 102
1, 1330446, Note_on_c, 0, 59, 68
1, 1330457, Control_c, 0, 64, 127
1, 1330458, Note_off_c, 0, 83, 58
1, 1330464, Note_off_c, 0, 81, 60
1, 1330467, Note_off_c, 0, 64, 60
1, 1330526, Note_on_c, 0, 52, 65
1, 1330528, Note_off_c, 0, 88, 62
1, 1330547, Note_off_c, 0, 59, 59
1, 1330591, Control_c, 0, 64, 78
1, 1330598, Note_off_c, 0, 52, 59
1, 1330606, Control_c, 0, 64, 52
1, 1330621, Control_c, 0, 64, 0
1, 1330631, Note_on_c, 0, 66, 83
1, 1330633, Note_on_c, 0, 87, 85
1, 1330646, Note_on_c, 0, 81, 74
1, 1330657, Note_on_c, 0, 83, 58
1, 1330680, Control_c, 0, 64, 51
1, 1330695, Control_c, 0, 64, 63
1, 1330709, Control_c, 0, 64, 70
1, 1330723, Note_off_c, 0, 66, 64
1, 1330723, Note_off_c, 0, 81, 60
1, 1330724, Control_c, 0, 64, 79
1, 1330726, Note_on_c, 0, 59, 71
1, 1330732, Note_off_c, 0, 83, 52
1, 1330739, Control_c, 0, 64, 91
1, 1330754, Control_c, 0, 64, 101
1, 1330769, Control_c, 0, 64, 108
1, 1330783, Control_c, 0, 64, 127
1, 1330786, Note_off_c, 0, 87, 59
1, 1330833, Note_on_c, 0, 52, 61
1, 1330856, Note_off_c, 0, 59, 55
1, 1330881, Control_c, 0, 64, 90
1, 1330896, Control_c, 0, 64, 63
1, 1330910, Control_c, 0, 64, 38
1, 1330921, Note_on_c, 0, 64, 68
1, 1330923, Note_off_c, 0, 52, 54
1, 1330925, Control_c, 0, 64, 0
1, 1330928, Note_on_c, 0, 88, 74
1, 1330946, Note_on_c, 0, 83, 49
1, 1330953, Note_on_c, 0, 80, 53
1, 1330955, Control_c, 0, 64, 42
1, 1330968, Note_off_c, 0, 88, 66
1, 1330970, Control_c, 0, 64, 58
1, 1330971, Note_off_c, 0, 83, 58
1, 1330984, Control_c, 0, 64, 64
1, 1330993, Note_off_c, 0, 80, 64
1, 1330999, Control_c, 0, 64, 67
1, 1330999, Control_c, 0, 67, 40
1, 1331014, Control_c, 0, 64, 70
1, 1331014, Control_c, 0, 67, 63
1, 1331017, Note_on_c, 0, 59, 59
1, 1331027, Note_off_c, 0, 64, 54
1, 1331029, Control_c, 0, 64, 74
1, 1331029, Control_c, 0, 67, 87
1, 1331043, Control_c, 0, 64, 77
1, 1331043, Control_c, 0, 67, 99
1, 1331058, Control_c, 0, 64, 79
1, 1331058, Control_c, 0, 67, 105
1, 1331073, Control_c, 0, 64, 80
1, 1331073, Control_c, 0, 67, 112
1, 1331087, Note_on_c, 0, 52, 53
1, 1331088, Control_c, 0, 64, 81
1, 1331088, Control_c, 0, 67, 120
1, 1331095, Note_off_c, 0, 59, 64
1, 1331103, Control_c, 0, 64, 82
1, 1331103, Control_c, 0, 67, 123
1, 1331117, Control_c, 0, 64, 83
1, 1331132, Note_off_c, 0, 52, 61
1, 1331147, Control_c, 0, 64, 82
1, 1331162, Control_c, 0, 64, 76
1, 1331162, Control_c, 0, 67, 126
1, 1331177, Control_c, 0, 64, 66
1, 1331191, Control_c, 0, 64, 52
1, 1331206, Control_c, 0, 64, 35
1, 1331218, Note_on_c, 0, 75, 67
1, 1331221, Control_c, 0, 64, 0
1, 1331236, Note_on_c, 0, 59, 53
1, 1331246, Note_on_c, 0, 54, 43
1, 1331251, Control_c, 0, 64, 33
1, 1331252, Note_on_c, 0, 57, 45
1, 1331266, Control_c, 0, 64, 39
1, 1331281, Control_c, 0, 64, 41
1, 1331296, Control_c, 0, 64, 44
1, 1331309, Note_on_c, 0, 71, 60
1, 1331310, Control_c, 0, 64, 48
1, 1331325, Control_c, 0, 64, 52
1, 1331339, Note_off_c, 0, 75, 56
1, 1331340, Control_c, 0, 64, 54
1, 1331345, Note_off_c, 0, 54, 59
1, 1331350, Note_off_c, 0, 59, 58
1, 1331353, Note_off_c, 0, 57, 62
1, 1331385, Control_c, 0, 64, 54
1, 1331392, Note_off_c, 0, 71, 60
1, 1331400, Note_on_c, 0, 69, 59
1, 1331430, Control_c, 0, 64, 54
1, 1331476, Note_off_c, 0, 69, 59
1, 1331488, Note_on_c, 0, 76, 65
1, 1331489, Control_c, 0, 64, 54
1, 1331503, Note_on_c, 0, 59, 42
1, 1331504, Note_on_c, 0, 52, 52
1, 1331513, Note_on_c, 0, 57, 34
1, 1331519, Control_c, 0, 64, 53
1, 1331533, Control_c, 0, 64, 53
1, 1331570, Control_c, 0, 64, 52
1, 1331585, Note_off_c, 0, 76, 61
1, 1331599, Note_on_c, 0, 71, 57
1, 1331599, Note_off_c, 0, 52, 61
1, 1331606, Note_off_c, 0, 57, 57
1, 1331624, Note_off_c, 0, 59, 47
1, 1331677, Note_off_c, 0, 71, 58
1, 1331683, Note_on_c, 0, 69, 57
1, 1331688, Control_c, 0, 64, 52
1, 1331732, Control_c, 0, 64, 51
1, 1331751, Note_off_c, 0, 69, 57
1, 1331777, Note_on_c, 0, 78, 66
1, 1331777, Control_c, 0, 64, 51
1, 1331790, Note_on_c, 0, 59, 38
1, 1331799, Note_on_c, 0, 57, 38
1, 1331806, Control_c, 0, 64, 50
1, 1331809, Note_on_c, 0, 51, 47
1, 1331821, Control_c, 0, 64, 50
1, 1331851, Control_c, 0, 64, 49
1, 1331858, Note_off_c, 0, 57, 60
1, 1331865, Control_c, 0, 64, 49
1, 1331868, Note_on_c, 0, 71, 55
1, 1331873, Note_off_c, 0, 51, 55
1, 1331883, Note_off_c, 0, 78, 59
1, 1331887, Note_off_c, 0, 59, 52
1, 1331895, Control_c, 0, 64, 48
1, 1331939, Note_off_c, 0, 71, 62
1, 1331962, Note_on_c, 0, 69, 51
1, 1332003, Note_off_c, 0, 69, 57
1, 1332014, Control_c, 0, 64, 49
1, 1332044, Control_c, 0, 64, 49
1, 1332058, Control_c, 0, 64, 50
1, 1332065, Note_on_c, 0, 76, 56
1, 1332073, Control_c, 0, 64, 52
1, 1332084, Note_on_c, 0, 59, 25
1, 1332088, Control_c, 0, 64, 53
1, 1332088, Note_on_c, 0, 56, 37
1, 1332093, Note_on_c, 0, 52, 36
1, 1332103, Control_c, 0, 64, 55
1, 1332118, Control_c, 0, 64, 56
1, 1332126, Note_off_c, 0, 76, 59
1, 1332132, Control_c, 0, 64, 59
1, 1332147, Control_c, 0, 64, 62
1, 1332149, Note_on_c, 0, 71, 55
1, 1332162, Control_c, 0, 64, 64
1, 1332177, Control_c, 0, 64, 65
1, 1332193, Control_c, 0, 64, 67
1, 1332208, Control_c, 0, 64, 69
1, 1332223, Control_c, 0, 64, 71
1, 1332225, Note_off_c, 0, 71, 63
1, 1332237, Control_c, 0, 64, 74
1, 1332237, Note_on_c, 0, 68, 58
1, 1332246, Note_off_c, 0, 59, 37
1, 1332252, Control_c, 0, 64, 76
1, 1332267, Control_c, 0, 64, 78
1, 1332277, Note_off_c, 0, 68, 59
1, 1332281, Control_c, 0, 64, 79
1, 1332296, Control_c, 0, 64, 81
1, 1332318, Control_c, 0, 64, 83
1, 1332325, Note_off_c, 0, 56, 41
1, 1332331, Note_on_c, 0, 64, 59
1, 1332333, Control_c, 0, 64, 84
1, 1332348, Control_c, 0, 64, 84
1, 1332358, Note_off_c, 0, 64, 66
1, 1332363, Control_c, 0, 64, 85
1, 1332378, Control_c, 0, 64, 86
1, 1332392, Control_c, 0, 64, 86
1, 1332407, Control_c, 0, 64, 87
1, 1332420, Note_off_c, 0, 52, 62
1, 1332422, Control_c, 0, 64, 87
1, 1332429, Note_on_c, 0, 59, 67
1, 1332452, Control_c, 0, 64, 88
1, 1332512, Note_on_c, 0, 56, 67
1, 1332517, Note_off_c, 0, 59, 59
1, 1332541, Control_c, 0, 64, 88
1, 1332567, Note_off_c, 0, 56, 55
1, 1332604, Note_on_c, 0, 52, 69
1, 1332644, Control_c, 0, 64, 88
1, 1332674, Control_c, 0, 64, 87
1, 1332688, Control_c, 0, 64, 86
1, 1332701, Note_on_c, 0, 50, 70
1, 1332703, Control_c, 0, 64, 85
1, 1332705, Note_off_c, 0, 52, 60
1, 1332718, Control_c, 0, 64, 83
1, 1332733, Control_c, 0, 64, 81
1, 1332748, Control_c, 0, 64, 80
1, 1332762, Control_c, 0, 64, 78
1, 1332777, Control_c, 0, 64, 75
1, 1332792, Control_c, 0, 64, 72
1, 1332804, Note_on_c, 0, 49, 64
1, 1332807, Control_c, 0, 64, 69
1, 1332808, Note_off_c, 0, 50, 60
1, 1332822, Control_c, 0, 64, 65
1, 1332837, Control_c, 0, 64, 62
1, 1332852, Control_c, 0, 64, 60
1, 1332866, Control_c, 0, 64, 58
1, 1332881, Control_c, 0, 64, 56
1, 1332896, Control_c, 0, 64, 53
1, 1332911, Control_c, 0, 64, 50
1, 1332923, Note_off_c, 0, 49, 61
1, 1332926, Control_c, 0, 64, 43
1, 1332940, Note_on_c, 0, 50, 54
1, 1332941, Control_c, 0, 64, 33
1, 1332955, Control_c, 0, 64, 0
1, 1333026, Note_off_c, 0, 50, 61
1, 1333054, Note_on_c, 0, 49, 56
1, 1333135, Note_off_c, 0, 49, 60
1, 1333139, Note_on_c, 0, 47, 53
1, 1333220, Note_off_c, 0, 47, 62
1, 1333252, Note_on_c, 0, 45, 51
1, 1333312, Note_off_c, 0, 45, 61
1, 1333345, Note_on_c, 0, 49, 52
1, 1333403, Note_off_c, 0, 49, 58
1, 1333427, Note_on_c, 0, 52, 53
1, 1333467, Control_c, 0, 64, 32
1, 1333470, Note_off_c, 0, 52, 62
1, 1333482, Control_c, 0, 64, 37
1, 1333497, Control_c, 0, 64, 40
1, 1333511, Control_c, 0, 64, 44
1, 1333513, Note_on_c, 0, 57, 57
1, 1333526, Control_c, 0, 64, 47
1, 1333541, Control_c, 0, 64, 48
1, 1333553, Note_off_c, 0, 57, 65
1, 1333608, Note_on_c, 0, 61, 53
1, 1333615, Control_c, 0, 64, 47
1, 1333630, Control_c, 0, 64, 47
1, 1333644, Control_c, 0, 64, 46
1, 1333653, Note_off_c, 0, 61, 59
1, 1333659, Control_c, 0, 64, 44
1, 1333674, Control_c, 0, 64, 42
1, 1333689, Control_c, 0, 64, 39
1, 1333694, Note_on_c, 0, 64, 51
1, 1333704, Control_c, 0, 64, 35
1, 1333719, Control_c, 0, 64, 27
1, 1333734, Control_c, 0, 64, 0
1, 1333749, Note_off_c, 0, 64, 49
1, 1333794, Control_c, 0, 64, 29
1, 1333813, Note_on_c, 0, 76, 63
1, 1333816, Control_c, 0, 64, 36
1, 1333819, Note_on_c, 0, 57, 46
1, 1333831, Control_c, 0, 64, 46
1, 1333846, Control_c, 0, 64, 55
1, 1333860, Control_c, 0, 64, 59
1, 1333875, Control_c, 0, 64, 61
1, 1333885, Note_off_c, 0, 57, 59
1, 1333890, Control_c, 0, 64, 63
1, 1333905, Control_c, 0, 64, 64
1, 1333916, Note_on_c, 0, 61, 46
1, 1333920, Control_c, 0, 64, 66
1, 1333934, Control_c, 0, 64, 68
1, 1333949, Note_off_c, 0, 76, 62
1, 1333949, Control_c, 0, 64, 70
1, 1333979, Control_c, 0, 64, 69
1, 1333982, Note_off_c, 0, 61, 56
1, 1333994, Control_c, 0, 64, 67
1, 1333997, Note_on_c, 0, 64, 51
1, 1334008, Control_c, 0, 64, 64
1, 1334023, Control_c, 0, 64, 64
1, 1334038, Control_c, 0, 64, 64
1, 1334053, Note_off_c, 0, 64, 53
1, 1334053, Control_c, 0, 64, 65
1, 1334068, Control_c, 0, 64, 67
1, 1334083, Control_c, 0, 64, 69
1, 1334084, Note_on_c, 0, 76, 74
1, 1334091, Note_on_c, 0, 57, 57
1, 1334098, Control_c, 0, 64, 70
1, 1334112, Control_c, 0, 64, 71
1, 1334127, Control_c, 0, 64, 71
1, 1334142, Control_c, 0, 64, 72
1, 1334160, Note_off_c, 0, 57, 61
1, 1334179, Note_on_c, 0, 61, 51
1, 1334194, Note_off_c, 0, 76, 59
1, 1334241, Note_off_c, 0, 61, 55
1, 1334272, Note_on_c, 0, 64, 47
1, 1334334, Control_c, 0, 64, 71
1, 1334349, Control_c, 0, 64, 71
1, 1334364, Control_c, 0, 64, 70
1, 1334378, Note_off_c, 0, 64, 54
1, 1334378, Control_c, 0, 64, 68
1, 1334393, Note_on_c, 0, 76, 63
1, 1334393, Control_c, 0, 64, 65
1, 1334402, Note_on_c, 0, 56, 50
1, 1334408, Control_c, 0, 64, 60
1, 1334423, Control_c, 0, 64, 50
1, 1334438, Control_c, 0, 64, 0
1, 1334491, Note_off_c, 0, 56, 60
1, 1334516, Note_on_c, 0, 59, 48
1, 1334527, Control_c, 0, 64, 35
1, 1334542, Control_c, 0, 64, 50
1, 1334564, Control_c, 0, 64, 62
1, 1334580, Control_c, 0, 64, 65
1, 1334592, Note_off_c, 0, 59, 58
1, 1334595, Control_c, 0, 64, 67
1, 1334609, Control_c, 0, 64, 69
1, 1334625, Control_c, 0, 64, 71
1, 1334626, Note_on_c, 0, 64, 48
1, 1334640, Control_c, 0, 64, 73
1, 1334655, Control_c, 0, 64, 75
1, 1334670, Control_c, 0, 64, 76
1, 1334677, Note_off_c, 0, 64, 61
1, 1334684, Control_c, 0, 64, 77
1, 1334686, Note_on_c, 0, 56, 59
1, 1334699, Control_c, 0, 64, 78
1, 1334732, Note_off_c, 0, 76, 63
1, 1334746, Note_off_c, 0, 56, 55
1, 1334778, Note_on_c, 0, 59, 48
1, 1334788, Control_c, 0, 64, 77
1, 1334802, Control_c, 0, 64, 75
1, 1334813, Note_off_c, 0, 59, 65
1, 1334817, Control_c, 0, 64, 73
1, 1334832, Control_c, 0, 64, 70
1, 1334847, Control_c, 0, 64, 67
1, 1334857, Note_on_c, 0, 64, 49
1, 1334862, Control_c, 0, 64, 64
1, 1334876, Control_c, 0, 64, 60
1, 1334891, Control_c, 0, 64, 55
1, 1334897, Note_off_c, 0, 64, 60
1, 1334906, Control_c, 0, 64, 45
1, 1334921, Control_c, 0, 64, 0
1, 1334921, Control_c, 0, 67, 101
1, 1334936, Control_c, 0, 67, 70
1, 1334951, Control_c, 0, 67, 36
1, 1334953, Note_on_c, 0, 76, 67
1, 1334954, Note_on_c, 0, 59, 47
1, 1334965, Control_c, 0, 67, 0
1, 1334979, Note_off_c, 0, 76, 67
1, 1335011, Note_off_c, 0, 59, 60
1, 1335048, Note_on_c, 0, 62, 55
1, 1335077, Note_on_c, 0, 76, 68
1, 1335103, Note_off_c, 0, 62, 56
1, 1335108, Note_off_c, 0, 76, 64
1, 1335141, Note_on_c, 0, 64, 43
1, 1335198, Note_off_c, 0, 64, 61
1, 1335215, Note_on_c, 0, 78, 70
1, 1335216, Note_on_c, 0, 59, 51
1, 1335239, Note_off_c, 0, 78, 68
1, 1335266, Note_off_c, 0, 59, 62
1, 1335311, Note_on_c, 0, 62, 50
1, 1335350, Note_on_c, 0, 80, 67
1, 1335359, Note_off_c, 0, 62, 58
1, 1335375, Note_off_c, 0, 80, 66
1, 1335409, Note_on_c, 0, 64, 44
1, 1335484, Note_off_c, 0, 64, 53
1, 1335518, Note_on_c, 0, 81, 59
1, 1335530, Note_on_c, 0, 57, 38
1, 1335591, Note_off_c, 0, 57, 60
1, 1335595, Control_c, 0, 64, 30
1, 1335610, Control_c, 0, 64, 42
1, 1335624, Control_c, 0, 64, 54
1, 1335627, Note_on_c, 0, 61, 36
1, 1335639, Control_c, 0, 64, 61
1, 1335654, Control_c, 0, 64, 63
1, 1335669, Control_c, 0, 64, 64
1, 1335684, Control_c, 0, 64, 67
1, 1335687, Note_off_c, 0, 61, 58
1, 1335699, Control_c, 0, 64, 70
1, 1335710, Note_on_c, 0, 64, 40
1, 1335713, Control_c, 0, 64, 73
1, 1335728, Control_c, 0, 64, 75
1, 1335736, Note_off_c, 0, 81, 60
1, 1335743, Control_c, 0, 64, 76
1, 1335743, Control_c, 0, 67, 45
1, 1335758, Control_c, 0, 64, 77
1, 1335758, Control_c, 0, 67, 56
1, 1335773, Control_c, 0, 67, 66
1, 1335782, Note_off_c, 0, 64, 59
1, 1335788, Control_c, 0, 67, 78
1, 1335791, Note_on_c, 0, 57, 54
1, 1335803, Control_c, 0, 67, 92
1, 1335818, Control_c, 0, 67, 97
1, 1335845, Note_off_c, 0, 57, 59
1, 1335862, Control_c, 0, 67, 99
1, 1335877, Control_c, 0, 64, 77
1, 1335882, Note_on_c, 0, 61, 41
1, 1335922, Note_off_c, 0, 61, 62
1, 1335923, Note_on_c, 0, 64, 53
1, 1336024, Control_c, 0, 67, 101
1, 1336038, Note_off_c, 0, 64, 38
1, 1336039, Control_c, 0, 64, 77
1, 1336059, Note_on_c, 0, 81, 63
1, 1336062, Control_c, 0, 64, 71
1, 1336068, Note_on_c, 0, 55, 57
1, 1336071, Note_on_c, 0, 69, 53
1, 1336077, Control_c, 0, 64, 60
1, 1336092, Control_c, 0, 64, 40
1, 1336104, Note_off_c, 0, 69, 65
1, 1336106, Control_c, 0, 64, 37
1, 1336118, Note_off_c, 0, 81, 62
1, 1336121, Control_c, 0, 64, 42
1, 1336136, Control_c, 0, 64, 51
1, 1336151, Control_c, 0, 64, 59
1, 1336165, Control_c, 0, 64, 64
1, 1336181, Note_off_c, 0, 55, 60
1, 1336181, Control_c, 0, 64, 70
1, 1336196, Control_c, 0, 64, 75
1, 1336199, Note_on_c, 0, 69, 66
1, 1336203, Note_on_c, 0, 81, 69
1, 1336211, Control_c, 0, 64, 80
1, 1336211, Control_c, 0, 67, 104
1, 1336226, Control_c, 0, 64, 85
1, 1336226, Control_c, 0, 67, 109
1, 1336229, Note_on_c, 0, 57, 32
1, 1336229, Note_off_c, 0, 69, 63
1, 1336229, Note_on_c, 0, 64, 56
1, 1336241, Control_c, 0, 64, 92
1, 1336241, Control_c, 0, 67, 127
1, 1336242, Note_off_c, 0, 81, 61
1, 1336255, Control_c, 0, 64, 101
1, 1336270, Control_c, 0, 64, 121
1, 1336285, Control_c, 0, 64, 127
1, 1336299, Note_off_c, 0, 64, 60
1, 1336324, Note_on_c, 0, 83, 88
1, 1336333, Note_on_c, 0, 55, 52
1, 1336341, Note_on_c, 0, 71, 63
1, 1336362, Note_off_c, 0, 71, 65
1, 1336377, Note_off_c, 0, 83, 63
1, 1336400, Note_off_c, 0, 57, 19
1, 1336425, Note_off_c, 0, 55, 61
1, 1336447, Note_on_c, 0, 64, 58
1, 1336452, Note_on_c, 0, 85, 87
1, 1336458, Note_on_c, 0, 73, 79
1, 1336510, Note_off_c, 0, 73, 56
1, 1336512, Note_off_c, 0, 85, 62
1, 1336589, Note_off_c, 0, 64, 49
1, 1336616, Note_on_c, 0, 54, 56
1, 1336625, Control_c, 0, 64, 89
1, 1336637, Note_on_c, 0, 86, 79
1, 1336640, Control_c, 0, 64, 66
1, 1336655, Control_c, 0, 64, 40
1, 1336656, Note_on_c, 0, 74, 64
1, 1336670, Control_c, 0, 64, 0
1, 1336681, Note_off_c, 0, 54, 44
1, 1336686, Note_on_c, 0, 57, 27
1, 1336715, Control_c, 0, 64, 45
1, 1336729, Control_c, 0, 64, 61
1, 1336744, Control_c, 0, 64, 70
1, 1336759, Control_c, 0, 64, 79
1, 1336760, Note_off_c, 0, 57, 57
1, 1336773, Control_c, 0, 64, 91
1, 1336780, Note_on_c, 0, 62, 57
1, 1336788, Control_c, 0, 64, 117
1, 1336810, Control_c, 0, 64, 127
1, 1336883, Note_on_c, 0, 54, 53
1, 1336890, Note_off_c, 0, 62, 59
1, 1336916, Note_off_c, 0, 74, 63
1, 1336950, Note_off_c, 0, 86, 65
1, 1336966, Note_on_c, 0, 57, 56
1, 1336966, Note_off_c, 0, 54, 60
1, 1337021, Note_off_c, 0, 57, 56
1, 1337042, Note_on_c, 0, 62, 58
1, 1337117, Note_off_c, 0, 62, 50
1, 1337153, Note_on_c, 0, 90, 77
1, 1337169, Note_on_c, 0, 50, 61
1, 1337180, Note_on_c, 0, 78, 59
1, 1337182, Control_c, 0, 64, 100
1, 1337196, Control_c, 0, 64, 69
1, 1337211, Control_c, 0, 64, 41
1, 1337226, Control_c, 0, 64, 0
1, 1337256, Control_c, 0, 64, 49
1, 1337259, Note_on_c, 0, 54, 63
1, 1337268, Note_off_c, 0, 50, 60
1, 1337270, Control_c, 0, 64, 66
1, 1337285, Control_c, 0, 64, 84
1, 1337300, Control_c, 0, 64, 127
1, 1337323, Note_off_c, 0, 78, 55
1, 1337330, Control_c, 0, 67, 108
1, 1337341, Note_on_c, 0, 57, 65
1, 1337344, Control_c, 0, 67, 72
1, 1337349, Note_off_c, 0, 90, 58
1, 1337356, Note_off_c, 0, 54, 60
1, 1337359, Control_c, 0, 67, 0
1, 1337445, Note_on_c, 0, 50, 71
1, 1337445, Note_on_c, 0, 90, 92
1, 1337445, Note_off_c, 0, 57, 60
1, 1337454, Note_on_c, 0, 78, 79
1, 1337525, Note_on_c, 0, 54, 66
1, 1337530, Note_off_c, 0, 50, 63
1, 1337579, Note_off_c, 0, 90, 61
1, 1337602, Note_off_c, 0, 78, 57
1, 1337612, Note_off_c, 0, 54, 61
1, 1337619, Note_on_c, 0, 57, 61
1, 1337723, Control_c, 0, 64, 106
1, 1337728, Note_on_c, 0, 88, 82
1, 1337734, Note_on_c, 0, 49, 65
1, 1337737, Control_c, 0, 64, 72
1, 1337749, Note_off_c, 0, 57, 59
1, 1337752, Note_on_c, 0, 76, 71
1, 1337752, Control_c, 0, 64, 51
1, 1337767, Control_c, 0, 64, 0
1, 1337798, Control_c, 0, 64, 42
1, 1337813, Control_c, 0, 64, 59
1, 1337823, Note_on_c, 0, 52, 61
1, 1337827, Control_c, 0, 64, 72
1, 1337836, Note_off_c, 0, 49, 63
1, 1337840, Note_off_c, 0, 76, 61
1, 1337842, Control_c, 0, 64, 87
1, 1337857, Control_c, 0, 64, 103
1, 1337872, Control_c, 0, 64, 127
1, 1337893, Note_off_c, 0, 52, 63
1, 1337907, Note_on_c, 0, 57, 54
1, 1338017, Note_on_c, 0, 90, 76
1, 1338020, Control_c, 0, 64, 86
1, 1338023, Note_on_c, 0, 47, 70
1, 1338029, Note_off_c, 0, 57, 61
1, 1338035, Control_c, 0, 64, 65
1, 1338037, Note_on_c, 0, 78, 60
1, 1338050, Control_c, 0, 64, 48
1, 1338065, Control_c, 0, 64, 40
1, 1338077, Note_off_c, 0, 88, 39
1, 1338080, Control_c, 0, 64, 45
1, 1338094, Control_c, 0, 64, 57
1, 1338109, Control_c, 0, 64, 67
1, 1338114, Note_off_c, 0, 47, 61
1, 1338115, Note_on_c, 0, 50, 59
1, 1338124, Control_c, 0, 64, 80
1, 1338139, Control_c, 0, 64, 98
1, 1338154, Control_c, 0, 64, 127
1, 1338192, Note_off_c, 0, 50, 62
1, 1338193, Note_on_c, 0, 57, 53
1, 1338220, Note_off_c, 0, 78, 61
1, 1338229, Note_off_c, 0, 90, 63
1, 1338287, Control_c, 0, 64, 97
1, 1338307, Note_off_c, 0, 57, 58
1, 1338309, Control_c, 0, 64, 72
1, 1338314, Note_on_c, 0, 49, 56
1, 1338324, Control_c, 0, 64, 55
1, 1338328, Note_on_c, 0, 88, 69
1, 1338339, Control_c, 0, 64, 29
1, 1338349, Note_on_c, 0, 76, 61
1, 1338353, Control_c, 0, 64, 0
1, 1338368, Control_c, 0, 64, 37
1, 1338383, Control_c, 0, 64, 52
1, 1338386, Note_off_c, 0, 49, 59
1, 1338396, Note_on_c, 0, 52, 59
1, 1338398, Control_c, 0, 64, 63
1, 1338412, Note_off_c, 0, 76, 64
1, 1338413, Control_c, 0, 64, 68
1, 1338427, Control_c, 0, 64, 74
1, 1338442, Control_c, 0, 64, 78
1, 1338457, Control_c, 0, 64, 82
1, 1338468, Note_off_c, 0, 52, 59
1, 1338472, Control_c, 0, 64, 87
1, 1338487, Note_on_c, 0, 57, 54
1, 1338487, Control_c, 0, 64, 92
1, 1338501, Control_c, 0, 64, 100
1, 1338516, Control_c, 0, 64, 106
1, 1338545, Control_c, 0, 64, 92
1, 1338560, Control_c, 0, 64, 73
1, 1338560, Control_c, 0, 67, 41
1, 1338577, Control_c, 0, 64, 55
1, 1338577, Control_c, 0, 67, 60
1, 1338592, Control_c, 0, 64, 29
1, 1338592, Control_c, 0, 67, 79
1, 1338595, Note_on_c, 0, 85, 68
1, 1338596, Note_off_c, 0, 57, 57
1, 1338596, Note_on_c, 0, 45, 49
1, 1338606, Control_c, 0, 64, 0
1, 1338606, Control_c, 0, 67, 89
1, 1338614, Note_on_c, 0, 73, 59
1, 1338621, Control_c, 0, 64, 34
1, 1338621, Control_c, 0, 67, 95
1, 1338636, Control_c, 0, 64, 54
1, 1338636, Control_c, 0, 67, 97
1, 1338650, Control_c, 0, 64, 64
1, 1338660, Note_off_c, 0, 88, 44
1, 1338665, Control_c, 0, 64, 70
1, 1338665, Control_c, 0, 67, 99
1, 1338673, Note_off_c, 0, 45, 59
1, 1338677, Note_on_c, 0, 52, 55
1, 1338680, Control_c, 0, 64, 74
1, 1338695, Control_c, 0, 64, 78
1, 1338703, Note_off_c, 0, 85, 63
1, 1338710, Control_c, 0, 64, 81
1, 1338724, Note_off_c, 0, 52, 58
1, 1338724, Control_c, 0, 64, 85
1, 1338739, Control_c, 0, 64, 88
1, 1338743, Note_off_c, 0, 73, 60
1, 1338754, Control_c, 0, 64, 89
1, 1338763, Note_on_c, 0, 57, 49
1, 1338769, Control_c, 0, 64, 90
1, 1338784, Control_c, 0, 64, 90
1, 1338873, Control_c, 0, 64, 89
1, 1338873, Note_off_c, 0, 57, 58
1, 1338888, Control_c, 0, 64, 81
1, 1338893, Note_on_c, 0, 52, 47
1, 1338903, Control_c, 0, 64, 68
1, 1338903, Control_c, 0, 67, 102
1, 1338914, Note_on_c, 0, 83, 62
1, 1338917, Control_c, 0, 64, 52
1, 1338932, Control_c, 0, 64, 33
1, 1338937, Note_on_c, 0, 71, 48
1, 1338947, Control_c, 0, 64, 32
1, 1338947, Control_c, 0, 67, 104
1, 1338962, Control_c, 0, 64, 40
1, 1338971, Note_off_c, 0, 52, 61
1, 1338976, Control_c, 0, 64, 50
1, 1338976, Control_c, 0, 67, 108
1, 1338991, Control_c, 0, 64, 56
1, 1338991, Control_c, 0, 67, 116
1, 1338995, Note_on_c, 0, 56, 53
1, 1339006, Control_c, 0, 64, 61
1, 1339021, Control_c, 0, 64, 64
1, 1339036, Control_c, 0, 64, 69
1, 1339058, Control_c, 0, 64, 73
1, 1339073, Control_c, 0, 64, 76
1, 1339077, Note_off_c, 0, 56, 62
1, 1339085, Note_on_c, 0, 59, 56
1, 1339088, Control_c, 0, 64, 79
1, 1339088, Control_c, 0, 67, 114
1, 1339102, Control_c, 0, 64, 84
1, 1339117, Control_c, 0, 64, 92
1, 1339124, Note_off_c, 0, 59, 62
1, 1339132, Control_c, 0, 64, 100
1, 1339132, Control_c, 0, 67, 112
1, 1339147, Control_c, 0, 64, 103
1, 1339174, Note_on_c, 0, 64, 57
1, 1339176, Control_c, 0, 64, 99
1, 1339187, Note_off_c, 0, 71, 61
1, 1339191, Control_c, 0, 64, 86
1, 1339200, Note_off_c, 0, 83, 62
1, 1339206, Control_c, 0, 64, 71
1, 1339221, Control_c, 0, 64, 55
1, 1339236, Control_c, 0, 64, 0
1, 1339236, Control_c, 0, 67, 114
1, 1339237, Note_off_c, 0, 64, 57
1, 1339265, Control_c, 0, 67, 116
1, 1339339, Control_c, 0, 67, 119
1, 1339374, Note_on_c, 0, 62, 32
1, 1339385, Control_c, 0, 67, 121
1, 1339414, Control_c, 0, 67, 127
1, 1339452, Note_on_c, 0, 76, 55
1, 1339456, Note_off_c, 0, 62, 60
1, 1339473, Control_c, 0, 64, 34
1, 1339488, Control_c, 0, 64, 46
1, 1339490, Note_on_c, 0, 61, 49
1, 1339503, Control_c, 0, 64, 56
1, 1339518, Control_c, 0, 64, 61
1, 1339533, Control_c, 0, 64, 62
1, 1339541, Note_off_c, 0, 61, 59
1, 1339547, Control_c, 0, 64, 62
1, 1339562, Control_c, 0, 64, 64
1, 1339577, Control_c, 0, 64, 65
1, 1339592, Control_c, 0, 64, 67
1, 1339596, Note_off_c, 0, 76, 59
1, 1339597, Note_on_c, 0, 64, 50
1, 1339606, Control_c, 0, 64, 68
1, 1339621, Control_c, 0, 64, 69
1, 1339636, Control_c, 0, 64, 70
1, 1339651, Control_c, 0, 64, 71
1, 1339653, Note_off_c, 0, 64, 61
1, 1339666, Control_c, 0, 64, 73
1, 1339681, Control_c, 0, 64, 74
1, 1339682, Note_on_c, 0, 69, 45
1, 1339711, Control_c, 0, 64, 73
1, 1339725, Control_c, 0, 64, 72
1, 1339736, Note_off_c, 0, 69, 51
1, 1339740, Control_c, 0, 64, 67
1, 1339755, Control_c, 0, 64, 60
1, 1339763, Note_on_c, 0, 76, 68
1, 1339770, Control_c, 0, 64, 58
1, 1339773, Note_on_c, 0, 61, 46
1, 1339785, Control_c, 0, 64, 60
1, 1339806, Control_c, 0, 64, 62
1, 1339821, Control_c, 0, 64, 63
1, 1339824, Note_off_c, 0, 61, 62
1, 1339836, Control_c, 0, 64, 65
1, 1339851, Control_c, 0, 64, 66
1, 1339865, Note_on_c, 0, 64, 44
1, 1339866, Control_c, 0, 64, 68
1, 1339874, Note_off_c, 0, 76, 60
1, 1339880, Control_c, 0, 64, 69
1, 1339895, Control_c, 0, 64, 69
1, 1339910, Control_c, 0, 64, 70
1, 1339918, Note_off_c, 0, 64, 60
1, 1339950, Note_on_c, 0, 69, 40
1, 1340043, Control_c, 0, 64, 69
1, 1340053, Note_off_c, 0, 69, 33
1, 1340058, Control_c, 0, 64, 69
1, 1340072, Control_c, 0, 64, 68
1, 1340087, Control_c, 0, 64, 66
1, 1340098, Note_on_c, 0, 76, 50
1, 1340102, Control_c, 0, 64, 63
1, 1340114, Note_on_c, 0, 59, 38
1, 1340116, Control_c, 0, 64, 57
1, 1340131, Control_c, 0, 64, 46
1, 1340146, Control_c, 0, 64, 0
1, 1340174, Note_off_c, 0, 59, 62
1, 1340213, Note_on_c, 0, 62, 41
1, 1340236, Control_c, 0, 64, 30
1, 1340251, Control_c, 0, 64, 45
1, 1340266, Control_c, 0, 64, 59
1, 1340281, Control_c, 0, 64, 66
1, 1340295, Control_c, 0, 64, 69
1, 1340300, Note_off_c, 0, 62, 55
1, 1340310, Note_on_c, 0, 68, 49
1, 1340310, Control_c, 0, 64, 72
1, 1340325, Control_c, 0, 64, 75
1, 1340340, Control_c, 0, 64, 81
1, 1340355, Control_c, 0, 64, 89
1, 1340359, Note_off_c, 0, 68, 54
1, 1340369, Control_c, 0, 64, 97
1, 1340384, Control_c, 0, 64, 103
1, 1340396, Note_on_c, 0, 59, 53
1, 1340399, Control_c, 0, 64, 107
1, 1340434, Note_off_c, 0, 76, 62
1, 1340455, Note_off_c, 0, 59, 60
1, 1340459, Control_c, 0, 64, 99
1, 1340474, Control_c, 0, 64, 80
1, 1340489, Control_c, 0, 64, 64
1, 1340491, Note_on_c, 0, 62, 46
1, 1340503, Control_c, 0, 64, 42
1, 1340518, Control_c, 0, 64, 0
1, 1340550, Note_off_c, 0, 62, 60
1, 1340578, Note_on_c, 0, 68, 50
1, 1340616, Note_off_c, 0, 68, 62
1, 1340662, Note_on_c, 0, 76, 68
1, 1340677, Note_on_c, 0, 59, 52
1, 1340688, Note_off_c, 0, 76, 67
1, 1340727, Note_off_c, 0, 59, 60
1, 1340760, Note_on_c, 0, 62, 52
1, 1340802, Note_on_c, 0, 76, 74
1, 1340836, Note_off_c, 0, 76, 63
1, 1340837, Note_off_c, 0, 62, 55
1, 1340852, Note_on_c, 0, 67, 50
1, 1340911, Note_off_c, 0, 67, 51
1, 1340945, Note_on_c, 0, 78, 70
1, 1340952, Note_on_c, 0, 59, 51
1, 1340969, Note_off_c, 0, 78, 68
1, 1341006, Note_off_c, 0, 59, 59
1, 1341031, Note_on_c, 0, 62, 35
1, 1341088, Note_on_c, 0, 79, 52
1, 1341094, Note_off_c, 0, 62, 62
1, 1341120, Note_off_c, 0, 79, 64
1, 1341146, Note_on_c, 0, 67, 36
1, 1341207, Note_off_c, 0, 67, 42
1, 1341261, Note_on_c, 0, 78, 54
1, 1341285, Note_on_c, 0, 58, 36
1, 1341345, Note_off_c, 0, 58, 59
1, 1341377, Control_c, 0, 64, 35
1, 1341383, Note_on_c, 0, 61, 41
1, 1341392, Control_c, 0, 64, 50
1, 1341407, Control_c, 0, 64, 58
1, 1341422, Control_c, 0, 64, 61
1, 1341437, Control_c, 0, 64, 62
1, 1341449, Note_off_c, 0, 61, 57
1, 1341451, Control_c, 0, 64, 64
1, 1341466, Control_c, 0, 64, 66
1, 1341477, Note_on_c, 0, 66, 48
1, 1341481, Control_c, 0, 64, 68
1, 1341496, Control_c, 0, 64, 71
1, 1341508, Note_off_c, 0, 78, 59
1, 1341511, Control_c, 0, 64, 73
1, 1341526, Control_c, 0, 64, 74
1, 1341535, Note_off_c, 0, 66, 59
1, 1341541, Control_c, 0, 64, 76
1, 1341556, Control_c, 0, 64, 77
1, 1341560, Note_on_c, 0, 58, 57
1, 1341570, Control_c, 0, 64, 79
1, 1341585, Control_c, 0, 64, 80
1, 1341600, Control_c, 0, 64, 81
1, 1341611, Note_off_c, 0, 58, 61
1, 1341615, Control_c, 0, 64, 82
1, 1341630, Control_c, 0, 64, 82
1, 1341642, Note_on_c, 0, 61, 56
1, 1341659, Control_c, 0, 64, 83
1, 1341674, Control_c, 0, 64, 84
1, 1341683, Note_off_c, 0, 61, 60
1, 1341689, Control_c, 0, 64, 86
1, 1341696, Note_on_c, 0, 66, 52
1, 1341703, Control_c, 0, 64, 89
1, 1341718, Control_c, 0, 64, 93
1, 1341733, Control_c, 0, 64, 95
1, 1341735, Note_off_c, 0, 66, 66
1, 1341764, Control_c, 0, 64, 90
1, 1341779, Control_c, 0, 64, 78
1, 1341793, Control_c, 0, 64, 62
1, 1341808, Control_c, 0, 64, 47
1, 1341823, Control_c, 0, 64, 44
1, 1341827, Note_on_c, 0, 66, 65
1, 1341827, Note_on_c, 0, 78, 66
1, 1341838, Control_c, 0, 64, 50
1, 1341848, Note_on_c, 0, 54, 52
1, 1341853, Control_c, 0, 64, 56
1, 1341867, Control_c, 0, 64, 61
1, 1341869, Note_off_c, 0, 66, 62
1, 1341882, Control_c, 0, 64, 66
1, 1341887, Note_off_c, 0, 78, 59
1, 1341897, Control_c, 0, 64, 73
1, 1341912, Control_c, 0, 64, 78
1, 1341927, Control_c, 0, 64, 81
1, 1341941, Note_on_c, 0, 58, 38
1, 1341941, Control_c, 0, 64, 82
1, 1341956, Control_c, 0, 64, 84
1, 1341960, Note_on_c, 0, 78, 76
1, 1341964, Note_on_c, 0, 66, 75
1, 1341971, Control_c, 0, 64, 87
1, 1341984, Note_off_c, 0, 54, 34
1, 1341985, Control_c, 0, 64, 89
1, 1341995, Note_off_c, 0, 66, 66
1, 1342000, Note_off_c, 0, 58, 58
1, 1342000, Control_c, 0, 64, 90
1, 1342003, Note_on_c, 0, 61, 61
1, 1342018, Note_off_c, 0, 78, 59
1, 1342053, Control_c, 0, 64, 90
1, 1342108, Note_on_c, 0, 80, 90
1, 1342110, Note_off_c, 0, 61, 57
1, 1342114, Note_on_c, 0, 52, 67
1, 1342114, Note_on_c, 0, 68, 78
1, 1342126, Control_c, 0, 67, 105
1, 1342137, Note_off_c, 0, 68, 68
1, 1342140, Control_c, 0, 67, 60
1, 1342155, Control_c, 0, 67, 0
1, 1342158, Note_off_c, 0, 80, 63
1, 1342197, Note_on_c, 0, 54, 71
1, 1342209, Note_off_c, 0, 52, 61
1, 1342238, Note_on_c, 0, 82, 88
1, 1342242, Note_on_c, 0, 70, 88
1, 1342283, Note_off_c, 0, 54, 62
1, 1342288, Note_on_c, 0, 61, 64
1, 1342301, Note_off_c, 0, 82, 57
1, 1342318, Control_c, 0, 64, 90
1, 1342333, Note_off_c, 0, 70, 38
1, 1342348, Control_c, 0, 64, 89
1, 1342363, Control_c, 0, 64, 89
1, 1342371, Note_off_c, 0, 61, 57
1, 1342378, Control_c, 0, 64, 87
1, 1342392, Control_c, 0, 64, 84
1, 1342407, Control_c, 0, 64, 81
1, 1342422, Control_c, 0, 64, 77
1, 1342433, Note_on_c, 0, 83, 77
1, 1342437, Control_c, 0, 64, 71
1, 1342445, Note_on_c, 0, 50, 54
1, 1342452, Control_c, 0, 64, 63
1, 1342453, Note_on_c, 0, 71, 60
1, 1342466, Control_c, 0, 64, 50
1, 1342481, Control_c, 0, 64, 31
1, 1342496, Control_c, 0, 64, 0
1, 1342539, Note_on_c, 0, 54, 56
1, 1342540, Control_c, 0, 64, 31
1, 1342555, Control_c, 0, 64, 45
1, 1342557, Note_off_c, 0, 50, 58
1, 1342571, Control_c, 0, 64, 59
1, 1342586, Control_c, 0, 64, 67
1, 1342601, Control_c, 0, 64, 76
1, 1342615, Control_c, 0, 64, 92
1, 1342630, Control_c, 0, 64, 120
1, 1342636, Note_off_c, 0, 54, 56
1, 1342641, Note_on_c, 0, 59, 57
1, 1342645, Control_c, 0, 64, 127
1, 1342677, Note_off_c, 0, 71, 60
1, 1342718, Note_off_c, 0, 83, 62
1, 1342718, Note_on_c, 0, 50, 59
1, 1342722, Note_off_c, 0, 59, 61
1, 1342806, Note_off_c, 0, 50, 61
1, 1342809, Note_on_c, 0, 54, 57
1, 1342862, Note_off_c, 0, 54, 60
1, 1342879, Note_on_c, 0, 59, 58
1, 1342966, Note_off_c, 0, 59, 63
1, 1342990, Note_on_c, 0, 85, 74
1, 1342993, Control_c, 0, 64, 92
1, 1342998, Note_on_c, 0, 52, 55
1, 1343008, Control_c, 0, 64, 67
1, 1343013, Note_on_c, 0, 73, 57
1, 1343022, Control_c, 0, 64, 45
1, 1343037, Control_c, 0, 64, 33
1, 1343052, Control_c, 0, 64, 37
1, 1343067, Control_c, 0, 64, 52
1, 1343082, Control_c, 0, 64, 64
1, 1343087, Note_on_c, 0, 61, 66
1, 1343097, Control_c, 0, 64, 78
1, 1343106, Note_off_c, 0, 52, 54
1, 1343112, Control_c, 0, 64, 113
1, 1343127, Control_c, 0, 64, 127
1, 1343139, Note_off_c, 0, 73, 60
1, 1343170, Note_off_c, 0, 85, 62
1, 1343177, Note_on_c, 0, 64, 63
1, 1343180, Note_off_c, 0, 61, 62
1, 1343201, Control_c, 0, 64, 93
1, 1343215, Control_c, 0, 64, 68
1, 1343230, Control_c, 0, 64, 62
1, 1343245, Control_c, 0, 64, 67
1, 1343252, Note_on_c, 0, 52, 64
1, 1343252, Note_off_c, 0, 64, 57
1, 1343260, Control_c, 0, 64, 78
1, 1343262, Note_on_c, 0, 85, 91
1, 1343272, Note_on_c, 0, 73, 76
1, 1343275, Control_c, 0, 64, 99
1, 1343289, Control_c, 0, 64, 127
1, 1343343, Note_on_c, 0, 61, 71
1, 1343344, Note_off_c, 0, 52, 62
1, 1343352, Poly_aftertouch_c, 0, 86, 127
1, 1343375, Poly_aftertouch_c, 0, 86, 0
1, 1343401, Note_off_c, 0, 73, 56
1, 1343435, Note_on_c, 0, 64, 62
1, 1343435, Note_off_c, 0, 61, 60
1, 1343443, Note_off_c, 0, 85, 57
1, 1343512, Control_c, 0, 64, 96
1, 1343514, Note_off_c, 0, 64, 60
1, 1343527, Control_c, 0, 64, 68
1, 1343548, Note_on_c, 0, 54, 59
1, 1343550, Control_c, 0, 64, 48
1, 1343558, Note_on_c, 0, 86, 78
1, 1343564, Control_c, 0, 64, 0
1, 1343579, Note_on_c, 0, 74, 59
1, 1343609, Control_c, 0, 64, 31
1, 1343624, Control_c, 0, 64, 51
1, 1343633, Note_off_c, 0, 54, 60
1, 1343633, Note_on_c, 0, 62, 58
1, 1343638, Control_c, 0, 64, 65
1, 1343653, Control_c, 0, 64, 73
1, 1343668, Control_c, 0, 64, 82
1, 1343683, Control_c, 0, 64, 91
1, 1343698, Control_c, 0, 64, 99
1, 1343710, Note_off_c, 0, 74, 62
1, 1343712, Control_c, 0, 64, 108
1, 1343719, Note_off_c, 0, 62, 61
1, 1343727, Control_c, 0, 64, 121
1, 1343737, Note_on_c, 0, 66, 59
1, 1343742, Control_c, 0, 64, 127
1, 1343805, Note_off_c, 0, 66, 59
1, 1343825, Note_on_c, 0, 54, 54
1, 1343831, Control_c, 0, 64, 106
1, 1343845, Control_c, 0, 64, 78
1, 1343853, Note_on_c, 0, 85, 70
1, 1343860, Control_c, 0, 64, 61
1, 1343875, Control_c, 0, 64, 40
1, 1343890, Control_c, 0, 64, 0
1, 1343893, Note_on_c, 0, 73, 45
1, 1343905, Control_c, 0, 64, 29
1, 1343919, Note_off_c, 0, 54, 61
1, 1343920, Control_c, 0, 64, 41
1, 1343935, Control_c, 0, 64, 56
1, 1343935, Control_c, 0, 67, 33
1, 1343947, Note_off_c, 0, 86, 61
1, 1343949, Control_c, 0, 64, 63
1, 1343949, Control_c, 0, 67, 45
1, 1343955, Note_on_c, 0, 64, 50
1, 1343964, Control_c, 0, 64, 67
1, 1343964, Control_c, 0, 67, 60
1, 1343979, Control_c, 0, 64, 71
1, 1343979, Control_c, 0, 67, 69
1, 1343994, Control_c, 0, 64, 75
1, 1343994, Control_c, 0, 67, 77
1, 1344006, Note_off_c, 0, 64, 63
1, 1344009, Control_c, 0, 64, 78
1, 1344009, Control_c, 0, 67, 82
1, 1344018, Note_off_c, 0, 85, 61
1, 1344024, Control_c, 0, 64, 80
1, 1344024, Control_c, 0, 67, 86
1, 1344032, Note_off_c, 0, 73, 64
1, 1344038, Note_on_c, 0, 67, 54
1, 1344038, Control_c, 0, 64, 82
1, 1344038, Control_c, 0, 67, 87
1, 1344053, Control_c, 0, 64, 84
1, 1344053, Control_c, 0, 67, 88
1, 1344068, Control_c, 0, 64, 85
1, 1344068, Control_c, 0, 67, 89
1, 1344079, Note_off_c, 0, 67, 58
1, 1344083, Control_c, 0, 64, 85
1, 1344112, Control_c, 0, 64, 85
1, 1344127, Control_c, 0, 64, 82
1, 1344142, Control_c, 0, 64, 72
1, 1344146, Note_on_c, 0, 83, 70
1, 1344149, Note_on_c, 0, 54, 53
1, 1344157, Control_c, 0, 64, 60
1, 1344157, Control_c, 0, 67, 90
1, 1344173, Control_c, 0, 64, 44
1, 1344179, Note_on_c, 0, 71, 51
1, 1344187, Control_c, 0, 64, 31
1, 1344207, Note_off_c, 0, 54, 58
1, 1344217, Control_c, 0, 64, 40
1, 1344232, Control_c, 0, 64, 50
1, 1344247, Note_on_c, 0, 62, 54
1, 1344247, Control_c, 0, 64, 59
1, 1344258, Note_off_c, 0, 71, 61
1, 1344261, Control_c, 0, 64, 64
1, 1344276, Control_c, 0, 64, 67
1, 1344298, Control_c, 0, 64, 70
1, 1344298, Control_c, 0, 67, 89
1, 1344313, Control_c, 0, 64, 72
1, 1344328, Note_off_c, 0, 62, 61
1, 1344328, Control_c, 0, 64, 74
1, 1344328, Control_c, 0, 67, 88
1, 1344339, Note_on_c, 0, 66, 54
1, 1344343, Control_c, 0, 64, 77
1, 1344358, Control_c, 0, 64, 81
1, 1344373, Control_c, 0, 64, 85
1, 1344388, Control_c, 0, 64, 88
1, 1344403, Control_c, 0, 64, 88
1, 1344411, Note_off_c, 0, 66, 59
1, 1344417, Control_c, 0, 64, 87
1, 1344432, Control_c, 0, 64, 81
1, 1344444, Note_on_c, 0, 54, 46
1, 1344447, Control_c, 0, 64, 70
1, 1344452, Note_on_c, 0, 82, 62
1, 1344462, Control_c, 0, 64, 56
1, 1344477, Note_on_c, 0, 70, 46
1, 1344477, Control_c, 0, 64, 40
1, 1344477, Control_c, 0, 67, 88
1, 1344492, Control_c, 0, 64, 36
1, 1344507, Control_c, 0, 64, 40
1, 1344522, Control_c, 0, 64, 49
1, 1344522, Control_c, 0, 67, 87
1, 1344525, Note_off_c, 0, 83, 54
1, 1344528, Note_on_c, 0, 61, 53
1, 1344534, Note_off_c, 0, 54, 52
1, 1344536, Control_c, 0, 64, 57
1, 1344551, Control_c, 0, 64, 63
1, 1344566, Control_c, 0, 64, 66
1, 1344566, Control_c, 0, 67, 87
1, 1344581, Control_c, 0, 64, 70
1, 1344581, Control_c, 0, 67, 86
1, 1344595, Control_c, 0, 64, 72
1, 1344596, Note_off_c, 0, 61, 60
1, 1344610, Control_c, 0, 64, 73
1, 1344610, Control_c, 0, 67, 86
1, 1344622, Note_on_c, 0, 64, 51
1, 1344625, Control_c, 0, 64, 74
1, 1344640, Control_c, 0, 67, 85
1, 1344659, Note_off_c, 0, 70, 38
1, 1344673, Note_off_c, 0, 64, 57
1, 1344728, Control_c, 0, 67, 86
1, 1344743, Control_c, 0, 64, 73
1, 1344758, Control_c, 0, 64, 72
1, 1344758, Control_c, 0, 67, 86
1, 1344763, Note_on_c, 0, 59, 41
1, 1344765, Note_off_c, 0, 82, 35
1, 1344769, Note_on_c, 0, 83, 58
1, 1344773, Control_c, 0, 64, 70
1, 1344787, Control_c, 0, 64, 67
1, 1344802, Note_on_c, 0, 71, 41
1, 1344802, Control_c, 0, 64, 64
1, 1344817, Control_c, 0, 64, 61
1, 1344821, Note_off_c, 0, 59, 54
1, 1344832, Control_c, 0, 64, 59
1, 1344841, Note_on_c, 0, 62, 57
1, 1344847, Control_c, 0, 64, 58
1, 1344862, Control_c, 0, 64, 56
1, 1344877, Control_c, 0, 64, 56
1, 1344891, Control_c, 0, 64, 55
1, 1344906, Control_c, 0, 64, 54
1, 1344921, Control_c, 0, 64, 53
1, 1344922, Note_off_c, 0, 71, 58
1, 1344936, Control_c, 0, 64, 52
1, 1344939, Note_on_c, 0, 66, 66
1, 1344951, Control_c, 0, 64, 51
1, 1344964, Note_off_c, 0, 83, 35
1, 1344966, Control_c, 0, 64, 50
1, 1344981, Control_c, 0, 64, 49
1, 1344996, Control_c, 0, 64, 48
1, 1345011, Control_c, 0, 64, 47
1, 1345011, Control_c, 0, 67, 85
1, 1345020, Note_off_c, 0, 62, 62
1, 1345026, Control_c, 0, 64, 46
1, 1345026, Control_c, 0, 67, 84
1, 1345030, Note_off_c, 0, 66, 64
1, 1345047, Note_on_c, 0, 71, 70
1, 1345048, Control_c, 0, 64, 46
1, 1345048, Control_c, 0, 67, 83
1, 1345063, Control_c, 0, 67, 82
1, 1345092, Control_c, 0, 64, 46
1, 1345092, Control_c, 0, 67, 82
1, 1345121, Note_off_c, 0, 71, 53
1, 1345122, Control_c, 0, 64, 47
1, 1345129, Note_on_c, 0, 74, 74
1, 1345137, Control_c, 0, 64, 47
1, 1345166, Control_c, 0, 64, 48
1, 1345181, Control_c, 0, 64, 48
1, 1345204, Note_off_c, 0, 74, 60
1, 1345213, Note_on_c, 0, 78, 64
1, 1345225, Control_c, 0, 64, 49
1, 1345240, Control_c, 0, 67, 81
1, 1345270, Control_c, 0, 64, 49
1, 1345300, Control_c, 0, 64, 50
1, 1345324, Note_on_c, 0, 66, 88
1, 1345330, Control_c, 0, 64, 50
1, 1345332, Note_on_c, 0, 71, 61
1, 1345332, Note_off_c, 0, 78, 57
1, 1345359, Control_c, 0, 64, 51
1, 1345389, Control_c, 0, 64, 51
1, 1345393, Note_off_c, 0, 71, 55
1, 1345421, Note_on_c, 0, 74, 65
1, 1345439, Note_off_c, 0, 66, 64
1, 1345463, Control_c, 0, 64, 52
1, 1345503, Note_off_c, 0, 74, 59
1, 1345511, Note_on_c, 0, 78, 62
1, 1345536, Control_c, 0, 67, 80
1, 1345566, Control_c, 0, 64, 52
1, 1345581, Control_c, 0, 67, 80
1, 1345604, Note_off_c, 0, 78, 56
1, 1345617, Note_on_c, 0, 66, 91
1, 1345619, Note_on_c, 0, 71, 63
1, 1345691, Note_off_c, 0, 71, 58
1, 1345699, Control_c, 0, 67, 80
1, 1345712, Note_on_c, 0, 74, 69
1, 1345718, Note_off_c, 0, 66, 59
1, 1345759, Control_c, 0, 64, 53
1, 1345759, Control_c, 0, 67, 81
1, 1345812, Control_c, 0, 64, 53
1, 1345812, Control_c, 0, 67, 82
1, 1345822, Note_on_c, 0, 78, 59
1, 1345822, Note_off_c, 0, 74, 61
1, 1345855, Control_c, 0, 64, 54
1, 1345901, Note_off_c, 0, 78, 59
1, 1345919, Note_on_c, 0, 70, 70
1, 1345924, Note_on_c, 0, 66, 89
1, 1345988, Control_c, 0, 67, 81
1, 1345995, Note_off_c, 0, 70, 53
1, 1346018, Note_on_c, 0, 73, 68
1, 1346117, Note_on_c, 0, 78, 64
1, 1346132, Note_off_c, 0, 73, 57
1, 1346205, Note_off_c, 0, 78, 58
1, 1346206, Note_on_c, 0, 70, 71
1, 1346240, Control_c, 0, 67, 82
1, 1346281, Note_off_c, 0, 70, 53
1, 1346295, Note_on_c, 0, 73, 71
1, 1346308, Note_off_c, 0, 66, 60
1, 1346329, Control_c, 0, 67, 82
1, 1346382, Note_on_c, 0, 78, 67
1, 1346385, Note_off_c, 0, 73, 60
1, 1346464, Note_off_c, 0, 78, 60
1, 1346474, Note_on_c, 0, 66, 79
1, 1346477, Note_on_c, 0, 73, 70
1, 1346498, Note_off_c, 0, 66, 69
1, 1346543, Note_off_c, 0, 73, 62
1, 1346566, Note_on_c, 0, 76, 68
1, 1346635, Note_on_c, 0, 66, 84
1, 1346649, Control_c, 0, 67, 83
1, 1346650, Note_off_c, 0, 76, 63
1, 1346653, Note_on_c, 0, 78, 70
1, 1346665, Note_off_c, 0, 66, 66
1, 1346723, Control_c, 0, 67, 83
1, 1346748, Note_off_c, 0, 78, 59
1, 1346759, Note_on_c, 0, 73, 71
1, 1346762, Note_on_c, 0, 68, 86
1, 1346781, Note_off_c, 0, 68, 70
1, 1346822, Note_off_c, 0, 73, 59
1, 1346853, Note_on_c, 0, 76, 69
1, 1346901, Note_on_c, 0, 70, 79
1, 1346901, Control_c, 0, 67, 84
1, 1346919, Note_off_c, 0, 70, 72
1, 1346930, Control_c, 0, 67, 84
1, 1346934, Note_off_c, 0, 76, 62
1, 1346949, Note_on_c, 0, 78, 66
1, 1346960, Control_c, 0, 64, 54
1, 1346989, Control_c, 0, 67, 85
1, 1347023, Note_off_c, 0, 78, 60
1, 1347047, Note_on_c, 0, 74, 84
1, 1347051, Note_on_c, 0, 71, 87
1, 1347063, Control_c, 0, 67, 86
1, 1347127, Note_off_c, 0, 74, 60
1, 1347136, Note_on_c, 0, 78, 72
1, 1347181, Control_c, 0, 64, 55
1, 1347220, Note_on_c, 0, 74, 81
1, 1347229, Note_off_c, 0, 71, 57
1, 1347269, Note_off_c, 0, 78, 55
1, 1347297, Note_off_c, 0, 74, 63
1, 1347322, Note_on_c, 0, 71, 85
1, 1347369, Control_c, 0, 64, 55
1, 1347370, Note_off_c, 0, 71, 62
1, 1347403, Note_on_c, 0, 74, 79
1, 1347459, Note_off_c, 0, 74, 61
1, 1347473, Control_c, 0, 64, 55
1, 1347500, Note_on_c, 0, 78, 72
1, 1347555, Note_off_c, 0, 78, 60
1, 1347586, Note_on_c, 0, 59, 87
1, 1347601, Note_on_c, 0, 78, 67
1, 1347619, Note_off_c, 0, 59, 65
1, 1347676, Note_off_c, 0, 78, 61
1, 1347685, Note_on_c, 0, 81, 78
1, 1347724, Control_c, 0, 67, 85
1, 1347736, Note_on_c, 0, 59, 89
1, 1347773, Note_on_c, 0, 83, 81
1, 1347773, Note_off_c, 0, 81, 64
1, 1347783, Note_off_c, 0, 59, 66
1, 1347836, Note_off_c, 0, 83, 62
1, 1347859, Note_on_c, 0, 78, 82
1, 1347875, Note_on_c, 0, 61, 91
1, 1347887, Control_c, 0, 67, 84
1, 1347902, Control_c, 0, 67, 82
1, 1347905, Note_off_c, 0, 61, 69
1, 1347911, Note_off_c, 0, 78, 61
1, 1347917, Control_c, 0, 67, 78
1, 1347931, Control_c, 0, 67, 70
1, 1347946, Control_c, 0, 67, 55
1, 1347953, Note_on_c, 0, 81, 82
1, 1347961, Control_c, 0, 67, 0
1, 1347976, Control_c, 0, 64, 55
1, 1348000, Note_on_c, 0, 63, 90
1, 1348036, Note_off_c, 0, 63, 67
1, 1348042, Control_c, 0, 64, 56
1, 1348049, Note_off_c, 0, 81, 59
1, 1348067, Note_on_c, 0, 83, 78
1, 1348087, Control_c, 0, 64, 56
1, 1348132, Control_c, 0, 64, 57
1, 1348146, Control_c, 0, 64, 57
1, 1348150, Note_off_c, 0, 83, 63
1, 1348173, Note_on_c, 0, 64, 95
1, 1348174, Note_on_c, 0, 76, 85
1, 1348232, Note_off_c, 0, 76, 62
1, 1348251, Control_c, 0, 64, 57
1, 1348251, Control_c, 0, 67, 56
1, 1348263, Note_on_c, 0, 79, 77
1, 1348266, Control_c, 0, 67, 94
1, 1348281, Control_c, 0, 67, 119
1, 1348296, Control_c, 0, 64, 56
1, 1348296, Control_c, 0, 67, 124
1, 1348325, Control_c, 0, 64, 56
1, 1348340, Control_c, 0, 64, 55
1, 1348354, Note_off_c, 0, 79, 63
1, 1348354, Control_c, 0, 64, 54
1, 1348355, Note_on_c, 0, 83, 82
1, 1348369, Control_c, 0, 64, 53
1, 1348384, Control_c, 0, 64, 52
1, 1348437, Note_off_c, 0, 83, 62
1, 1348444, Note_on_c, 0, 76, 82
1, 1348458, Control_c, 0, 64, 53
1, 1348458, Control_c, 0, 67, 122
1, 1348488, Control_c, 0, 64, 53
1, 1348503, Note_off_c, 0, 64, 48
1, 1348513, Note_off_c, 0, 76, 57
1, 1348534, Note_on_c, 0, 79, 77
1, 1348618, Note_off_c, 0, 79, 65
1, 1348620, Note_on_c, 0, 83, 80
1, 1348661, Note_off_c, 0, 83, 65
1, 1348697, Note_on_c, 0, 52, 64
1, 1348717, Note_on_c, 0, 83, 81
1, 1348725, Control_c, 0, 64, 54
1, 1348739, Note_off_c, 0, 52, 63
1, 1348754, Control_c, 0, 64, 54
1, 1348810, Note_off_c, 0, 83, 54
1, 1348811, Note_on_c, 0, 88, 83
1, 1348844, Note_on_c, 0, 52, 71
1, 1348898, Note_on_c, 0, 91, 82
1, 1348900, Note_off_c, 0, 88, 66
1, 1348910, Note_off_c, 0, 52, 61
1, 1348978, Note_on_c, 0, 54, 71
1, 1348979, Note_off_c, 0, 91, 65
1, 1348990, Note_on_c, 0, 83, 87
1, 1349006, Note_off_c, 0, 54, 67
1, 1349077, Note_on_c, 0, 88, 79
1, 1349077, Note_off_c, 0, 83, 63
1, 1349104, Note_on_c, 0, 55, 70
1, 1349135, Note_off_c, 0, 55, 64
1, 1349161, Note_on_c, 0, 91, 79
1, 1349161, Note_off_c, 0, 88, 65
1, 1349246, Note_off_c, 0, 91, 65
1, 1349272, Note_on_c, 0, 54, 58
1, 1349272, Note_on_c, 0, 81, 73
1, 1349355, Control_c, 0, 64, 55
1, 1349357, Note_off_c, 0, 81, 59
1, 1349378, Note_on_c, 0, 86, 62
1, 1349384, Control_c, 0, 67, 125
1, 1349399, Control_c, 0, 67, 127
1, 1349458, Control_c, 0, 64, 54
1, 1349467, Note_off_c, 0, 86, 58
1, 1349470, Note_on_c, 0, 93, 64
1, 1349562, Note_off_c, 0, 93, 60
1, 1349579, Note_off_c, 0, 54, 54
1, 1349593, Note_on_c, 0, 55, 44
1, 1349593, Note_on_c, 0, 83, 60
1, 1349656, Note_off_c, 0, 83, 58
1, 1349697, Note_on_c, 0, 86, 56
1, 1349766, Note_off_c, 0, 86, 62
1, 1349778, Control_c, 0, 64, 54
1, 1349789, Note_on_c, 0, 91, 56
1, 1349870, Note_off_c, 0, 91, 61
1, 1349882, Note_on_c, 0, 81, 52
1, 1349896, Note_on_c, 0, 57, 49
1, 1349912, Note_off_c, 0, 55, 56
1, 1349948, Note_off_c, 0, 81, 53
1, 1349987, Note_off_c, 0, 57, 58
1, 1349989, Note_on_c, 0, 86, 57
1, 1350001, Control_c, 0, 64, 53
1, 1350056, Note_off_c, 0, 86, 62
1, 1350075, Note_on_c, 0, 90, 52
1, 1350089, Control_c, 0, 64, 53
1, 1350147, Note_off_c, 0, 90, 60
1, 1350176, Note_on_c, 0, 81, 47
1, 1350184, Note_on_c, 0, 57, 45
1, 1350225, Note_off_c, 0, 81, 56
1, 1350258, Note_off_c, 0, 57, 53
1, 1350270, Note_on_c, 0, 85, 55
1, 1350349, Note_off_c, 0, 85, 63
1, 1350374, Note_on_c, 0, 88, 50
1, 1350422, Control_c, 0, 64, 53
1, 1350452, Control_c, 0, 64, 54
1, 1350467, Control_c, 0, 64, 55
1, 1350481, Note_off_c, 0, 88, 56
1, 1350481, Control_c, 0, 64, 56
1, 1350496, Control_c, 0, 64, 57
1, 1350511, Control_c, 0, 64, 58
1, 1350525, Control_c, 0, 64, 59
1, 1350540, Control_c, 0, 64, 61
1, 1350546, Note_on_c, 0, 86, 46
1, 1350555, Note_on_c, 0, 50, 31
1, 1350556, Control_c, 0, 64, 63
1, 1350571, Control_c, 0, 64, 66
1, 1350586, Control_c, 0, 64, 69
1, 1350598, Note_off_c, 0, 86, 55
1, 1350601, Control_c, 0, 64, 72
1, 1350616, Control_c, 0, 64, 75
1, 1350630, Control_c, 0, 64, 78
1, 1350645, Control_c, 0, 64, 80
1, 1350659, Note_on_c, 0, 90, 44
1, 1350660, Control_c, 0, 64, 83
1, 1350675, Control_c, 0, 64, 86
1, 1350690, Control_c, 0, 64, 89
1, 1350704, Control_c, 0, 64, 92
1, 1350710, Note_off_c, 0, 90, 58
1, 1350719, Control_c, 0, 64, 95
1, 1350734, Control_c, 0, 64, 99
1, 1350749, Note_on_c, 0, 86, 47
1, 1350749, Control_c, 0, 64, 105
1, 1350764, Control_c, 0, 64, 112
1, 1350779, Control_c, 0, 64, 127
1, 1350781, Note_off_c, 0, 86, 64
1, 1350803, Note_off_c, 0, 50, 44
1, 1350835, Note_on_c, 0, 81, 54
1, 1350869, Note_off_c, 0, 81, 62
1, 1350951, Note_on_c, 0, 78, 42
1, 1351014, Note_off_c, 0, 78, 55
1, 1351053, Note_on_c, 0, 74, 52
1, 1351109, Note_off_c, 0, 74, 51
1, 1351189, Note_on_c, 0, 81, 50
1, 1351203, Note_on_c, 0, 66, 36
1, 1351205, Note_on_c, 0, 62, 35
1, 1351214, Note_on_c, 0, 69, 31
1, 1351267, Note_off_c, 0, 81, 60
1, 1351299, Note_off_c, 0, 69, 50
1, 1351300, Note_on_c, 0, 78, 43
1, 1351306, Note_off_c, 0, 66, 57
1, 1351307, Note_off_c, 0, 62, 50
1, 1351347, Note_off_c, 0, 78, 56
1, 1351379, Note_on_c, 0, 74, 55
1, 1351427, Note_off_c, 0, 74, 55
1, 1351470, Note_on_c, 0, 66, 41
1, 1351479, Note_on_c, 0, 62, 36
1, 1351481, Note_on_c, 0, 69, 31
1, 1351487, Note_on_c, 0, 81, 58
1, 1351523, Note_off_c, 0, 66, 60
1, 1351547, Note_off_c, 0, 69, 47
1, 1351552, Note_off_c, 0, 81, 62
1, 1351553, Note_off_c, 0, 62, 53
1, 1351569, Note_on_c, 0, 78, 55
1, 1351634, Note_off_c, 0, 78, 58
1, 1351662, Note_on_c, 0, 74, 53
1, 1351765, Control_c, 0, 64, 123
1, 1351786, Note_off_c, 0, 74, 52
1, 1351786, Control_c, 0, 64, 115
1, 1351801, Control_c, 0, 64, 109
1, 1351807, Note_on_c, 0, 73, 48
1, 1351814, Note_on_c, 0, 67, 45
1, 1351816, Control_c, 0, 64, 105
1, 1351831, Control_c, 0, 64, 102
1, 1351833, Note_on_c, 0, 62, 37
1, 1351833, Note_on_c, 0, 69, 37
1, 1351846, Control_c, 0, 64, 99
1, 1351861, Control_c, 0, 64, 95
1, 1351876, Control_c, 0, 64, 92
1, 1351890, Note_off_c, 0, 73, 60
1, 1351891, Control_c, 0, 64, 89
1, 1351905, Control_c, 0, 64, 85
1, 1351915, Note_on_c, 0, 76, 52
1, 1351920, Control_c, 0, 64, 81
1, 1351935, Control_c, 0, 64, 74
1, 1351950, Control_c, 0, 64, 65
1, 1351965, Control_c, 0, 64, 54
1, 1351979, Control_c, 0, 64, 45
1, 1351980, Note_off_c, 0, 76, 59
1, 1351994, Control_c, 0, 64, 42
1, 1352006, Note_on_c, 0, 81, 52
1, 1352009, Control_c, 0, 64, 44
1, 1352024, Control_c, 0, 64, 47
1, 1352039, Control_c, 0, 64, 52
1, 1352053, Control_c, 0, 64, 57
1, 1352054, Note_off_c, 0, 81, 58
1, 1352068, Control_c, 0, 64, 62
1, 1352083, Control_c, 0, 64, 67
1, 1352096, Note_on_c, 0, 73, 53
1, 1352097, Control_c, 0, 64, 73
1, 1352112, Control_c, 0, 64, 76
1, 1352127, Control_c, 0, 64, 78
1, 1352142, Control_c, 0, 64, 80
1, 1352158, Control_c, 0, 64, 83
1, 1352173, Control_c, 0, 64, 86
1, 1352180, Note_off_c, 0, 73, 60
1, 1352188, Control_c, 0, 64, 90
1, 1352189, Note_on_c, 0, 76, 59
1, 1352202, Control_c, 0, 64, 93
1, 1352213, Note_off_c, 0, 67, 50
1, 1352217, Control_c, 0, 64, 95
1, 1352218, Note_off_c, 0, 62, 50
1, 1352232, Control_c, 0, 64, 97
1, 1352238, Note_off_c, 0, 69, 38
1, 1352245, Note_off_c, 0, 76, 62
1, 1352262, Control_c, 0, 64, 100
1, 1352268, Note_on_c, 0, 81, 61
1, 1352291, Control_c, 0, 64, 103
1, 1352303, Note_off_c, 0, 81, 62
1, 1352320, Control_c, 0, 64, 105
1, 1352350, Control_c, 0, 64, 107
1, 1352375, Note_on_c, 0, 81, 57
1, 1352377, Note_on_c, 0, 69, 38
1, 1352384, Note_on_c, 0, 62, 37
1, 1352394, Note_on_c, 0, 67, 36
1, 1352394, Control_c, 0, 64, 110
1, 1352439, Control_c, 0, 64, 112
1, 1352442, Note_off_c, 0, 81, 55
1, 1352463, Note_on_c, 0, 85, 67
1, 1352519, Note_off_c, 0, 67, 37
1, 1352538, Note_off_c, 0, 69, 38
1, 1352539, Note_off_c, 0, 85, 64
1, 1352547, Note_off_c, 0, 62, 34
1, 1352552, Note_on_c, 0, 88, 71
1, 1352583, Note_off_c, 0, 88, 64
1, 1352609, Control_c, 0, 64, 114
1, 1352655, Note_on_c, 0, 93, 73
1, 1352667, Note_on_c, 0, 69, 47
1, 1352676, Note_on_c, 0, 62, 42
1, 1352692, Note_on_c, 0, 67, 25
1, 1352731, Note_off_c, 0, 67, 51
1, 1352736, Note_off_c, 0, 69, 49
1, 1352741, Note_off_c, 0, 62, 55
1, 1352744, Note_on_c, 0, 97, 72
1, 1352779, Note_off_c, 0, 93, 51
1, 1352832, Note_on_c, 0, 100, 72
1, 1352832, Control_c, 0, 64, 112
1, 1352833, Note_off_c, 0, 97, 62
1, 1352876, Control_c, 0, 64, 109
1, 1352891, Control_c, 0, 64, 107
1, 1352906, Control_c, 0, 64, 104
1, 1352921, Control_c, 0, 64, 101
1, 1352935, Control_c, 0, 64, 97
1, 1352937, Note_off_c, 0, 100, 64
1, 1352950, Note_on_c, 0, 98, 66
1, 1352951, Control_c, 0, 64, 94
1, 1352964, Note_on_c, 0, 69, 28
1, 1352966, Control_c, 0, 64, 91
1, 1352981, Note_on_c, 0, 62, 28
1, 1352981, Control_c, 0, 64, 86
1, 1352994, Note_on_c, 0, 66, 38
1, 1352996, Control_c, 0, 64, 79
1, 1353002, Note_off_c, 0, 98, 64
1, 1353011, Control_c, 0, 64, 70
1, 1353025, Control_c, 0, 64, 58
1, 1353040, Control_c, 0, 64, 45
1, 1353055, Control_c, 0, 64, 32
1, 1353059, Note_on_c, 0, 93, 63
1, 1353070, Control_c, 0, 64, 0
1, 1353088, Note_off_c, 0, 93, 65
1, 1353099, Control_c, 0, 64, 28
1, 1353114, Control_c, 0, 64, 34
1, 1353129, Control_c, 0, 64, 43
1, 1353143, Control_c, 0, 64, 52
1, 1353154, Note_on_c, 0, 90, 62
1, 1353158, Control_c, 0, 64, 58
1, 1353173, Control_c, 0, 64, 62
1, 1353188, Control_c, 0, 64, 64
1, 1353203, Control_c, 0, 64, 65
1, 1353217, Control_c, 0, 64, 67
1, 1353220, Note_off_c, 0, 90, 63
1, 1353232, Control_c, 0, 64, 69
1, 1353239, Note_on_c, 0, 86, 64
1, 1353247, Control_c, 0, 64, 71
1, 1353262, Control_c, 0, 64, 73
1, 1353284, Control_c, 0, 64, 74
1, 1353289, Note_off_c, 0, 86, 59
1, 1353299, Control_c, 0, 64, 76
1, 1353314, Control_c, 0, 64, 77
1, 1353329, Control_c, 0, 64, 78
1, 1353339, Note_on_c, 0, 81, 62
1, 1353342, Control_c, 0, 64, 79
1, 1353357, Note_off_c, 0, 62, 50
1, 1353357, Control_c, 0, 64, 79
1, 1353357, Note_off_c, 0, 66, 55
1, 1353376, Note_off_c, 0, 69, 36
1, 1353376, Note_off_c, 0, 81, 55
1, 1353387, Control_c, 0, 64, 80
1, 1353429, Note_on_c, 0, 78, 57
1, 1353491, Note_off_c, 0, 78, 47
1, 1353523, Note_on_c, 0, 81, 58
1, 1353547, Note_on_c, 0, 66, 42
1, 1353554, Note_on_c, 0, 62, 40
1, 1353560, Note_on_c, 0, 69, 30
1, 1353598, Note_off_c, 0, 81, 62
1, 1353612, Note_on_c, 0, 78, 58
1, 1353667, Note_off_c, 0, 66, 57
1, 1353672, Note_off_c, 0, 62, 52
1, 1353682, Note_off_c, 0, 78, 59
1, 1353682, Note_off_c, 0, 69, 36
1, 1353713, Note_on_c, 0, 74, 62
1, 1353751, Note_off_c, 0, 74, 61
1, 1353815, Note_on_c, 0, 81, 62
1, 1353833, Note_on_c, 0, 66, 39
1, 1353834, Note_on_c, 0, 69, 35
1, 1353835, Note_on_c, 0, 62, 36
1, 1353878, Note_off_c, 0, 66, 57
1, 1353884, Note_off_c, 0, 81, 62
1, 1353896, Note_on_c, 0, 78, 63
1, 1353897, Note_off_c, 0, 69, 42
1, 1353902, Note_off_c, 0, 62, 45
1, 1353969, Note_off_c, 0, 78, 57
1, 1354006, Note_on_c, 0, 74, 56
1, 1354121, Control_c, 0, 64, 79
1, 1354135, Note_on_c, 0, 73, 51
1, 1354151, Control_c, 0, 64, 78
1, 1354153, Note_on_c, 0, 67, 32
1, 1354159, Note_on_c, 0, 62, 35
1, 1354159, Note_off_c, 0, 74, 34
1, 1354166, Control_c, 0, 64, 77
1, 1354173, Note_on_c, 0, 69, 18
1, 1354180, Control_c, 0, 64, 77
1, 1354195, Control_c, 0, 64, 75
1, 1354207, Note_off_c, 0, 73, 60
1, 1354210, Control_c, 0, 64, 74
1, 1354225, Control_c, 0, 64, 71
1, 1354231, Note_on_c, 0, 76, 55
1, 1354240, Control_c, 0, 64, 65
1, 1354254, Control_c, 0, 64, 57
1, 1354269, Control_c, 0, 64, 47
1, 1354284, Control_c, 0, 64, 37
1, 1354291, Note_off_c, 0, 76, 58
1, 1354299, Control_c, 0, 64, 35
1, 1354314, Control_c, 0, 64, 37
1, 1354319, Note_on_c, 0, 81, 58
1, 1354329, Control_c, 0, 64, 42
1, 1354344, Control_c, 0, 64, 50
1, 1354359, Control_c, 0, 64, 57
1, 1354373, Control_c, 0, 64, 62
1, 1354377, Note_off_c, 0, 81, 60
1, 1354388, Control_c, 0, 64, 65
1, 1354403, Control_c, 0, 64, 68
1, 1354416, Note_on_c, 0, 73, 58
1, 1354418, Control_c, 0, 64, 71
1, 1354433, Control_c, 0, 64, 72
1, 1354447, Control_c, 0, 64, 74
1, 1354462, Control_c, 0, 64, 76
1, 1354477, Control_c, 0, 64, 78
1, 1354492, Control_c, 0, 64, 79
1, 1354496, Note_off_c, 0, 73, 61
1, 1354506, Control_c, 0, 64, 80
1, 1354511, Note_on_c, 0, 76, 57
1, 1354521, Control_c, 0, 64, 81
1, 1354528, Note_off_c, 0, 62, 52
1, 1354536, Control_c, 0, 64, 82
1, 1354539, Note_off_c, 0, 67, 44
1, 1354544, Note_off_c, 0, 69, 44
1, 1354552, Control_c, 0, 64, 83
1, 1354567, Note_off_c, 0, 76, 64
1, 1354567, Control_c, 0, 64, 83
1, 1354582, Control_c, 0, 64, 84
1, 1354596, Control_c, 0, 64, 84
1, 1354598, Note_on_c, 0, 81, 54
1, 1354611, Control_c, 0, 64, 85
1, 1354626, Control_c, 0, 64, 85
1, 1354629, Note_off_c, 0, 81, 66
1, 1354641, Control_c, 0, 64, 86
1, 1354670, Control_c, 0, 64, 86
1, 1354685, Control_c, 0, 64, 87
1, 1354696, Note_on_c, 0, 81, 68
1, 1354700, Note_on_c, 0, 62, 38
1, 1354700, Control_c, 0, 64, 87
1, 1354706, Note_on_c, 0, 69, 38
1, 1354715, Control_c, 0, 64, 88
1, 1354717, Note_on_c, 0, 67, 40
1, 1354744, Control_c, 0, 64, 88
1, 1354773, Note_off_c, 0, 81, 56
1, 1354782, Control_c, 0, 64, 89
1, 1354794, Note_on_c, 0, 85, 60
1, 1354805, Note_off_c, 0, 67, 49
1, 1354815, Note_off_c, 0, 62, 55
1, 1354836, Note_off_c, 0, 69, 38
1, 1354856, Control_c, 0, 64, 89
1, 1354861, Note_off_c, 0, 85, 64
1, 1354874, Note_on_c, 0, 88, 72
1, 1354915, Note_off_c, 0, 88, 64
1, 1354976, Note_on_c, 0, 69, 47
1, 1354984, Note_on_c, 0, 62, 43
1, 1354984, Note_on_c, 0, 93, 75
1, 1354989, Note_on_c, 0, 67, 38
1, 1354989, Control_c, 0, 64, 90
1, 1355029, Note_off_c, 0, 67, 51
1, 1355046, Note_off_c, 0, 62, 50
1, 1355074, Note_on_c, 0, 97, 75
1, 1355076, Note_off_c, 0, 69, 38
1, 1355104, Note_off_c, 0, 93, 52
1, 1355156, Note_on_c, 0, 100, 76
1, 1355161, Note_off_c, 0, 97, 63
1, 1355196, Control_c, 0, 64, 89
1, 1355226, Control_c, 0, 64, 89
1, 1355240, Control_c, 0, 64, 88
1, 1355255, Control_c, 0, 64, 86
1, 1355257, Note_off_c, 0, 100, 65
1, 1355259, Note_on_c, 0, 98, 73
1, 1355267, Note_on_c, 0, 69, 46
1, 1355270, Control_c, 0, 64, 84
1, 1355274, Note_on_c, 0, 62, 43
1, 1355285, Control_c, 0, 64, 80
1, 1355298, Note_on_c, 0, 66, 47
1, 1355300, Control_c, 0, 64, 74
1, 1355314, Control_c, 0, 64, 65
1, 1355319, Note_off_c, 0, 98, 65
1, 1355329, Control_c, 0, 64, 53
1, 1355345, Control_c, 0, 64, 36
1, 1355360, Control_c, 0, 64, 0
1, 1355360, Note_on_c, 0, 93, 69
1, 1355390, Control_c, 0, 64, 34
1, 1355391, Note_off_c, 0, 93, 62
1, 1355405, Control_c, 0, 64, 44
1, 1355419, Control_c, 0, 64, 55
1, 1355434, Control_c, 0, 64, 62
1, 1355449, Control_c, 0, 64, 66
1, 1355456, Note_on_c, 0, 90, 69
1, 1355464, Control_c, 0, 64, 69
1, 1355478, Control_c, 0, 64, 70
1, 1355493, Control_c, 0, 64, 72
1, 1355508, Control_c, 0, 64, 74
1, 1355530, Control_c, 0, 64, 76
1, 1355539, Note_off_c, 0, 90, 62
1, 1355545, Control_c, 0, 64, 78
1, 1355547, Note_on_c, 0, 86, 77
1, 1355560, Control_c, 0, 64, 80
1, 1355575, Control_c, 0, 64, 81
1, 1355590, Control_c, 0, 64, 82
1, 1355602, Note_off_c, 0, 86, 64
1, 1355605, Control_c, 0, 64, 82
1, 1355626, Note_off_c, 0, 66, 60
1, 1355634, Control_c, 0, 64, 83
1, 1355637, Note_on_c, 0, 81, 70
1, 1355664, Note_off_c, 0, 62, 56
1, 1355664, Note_off_c, 0, 69, 38
1, 1355720, Note_off_c, 0, 81, 42
1, 1355737, Note_on_c, 0, 78, 61
1, 1355777, Note_off_c, 0, 78, 58
1, 1355812, Control_c, 0, 64, 81
1, 1355825, Note_on_c, 0, 81, 76
1, 1355826, Control_c, 0, 64, 72
1, 1355841, Control_c, 0, 64, 61
1, 1355843, Note_on_c, 0, 69, 66
1, 1355849, Note_on_c, 0, 62, 59
1, 1355849, Note_on_c, 0, 67, 60
1, 1355856, Control_c, 0, 64, 45
1, 1355870, Control_c, 0, 64, 36
1, 1355885, Control_c, 0, 64, 41
1, 1355900, Control_c, 0, 64, 51
1, 1355906, Note_off_c, 0, 81, 57
1, 1355915, Control_c, 0, 64, 60
1, 1355922, Note_on_c, 0, 85, 69
1, 1355930, Control_c, 0, 64, 66
1, 1355945, Control_c, 0, 64, 70
1, 1355960, Control_c, 0, 64, 73
1, 1355974, Control_c, 0, 64, 75
1, 1355980, Note_off_c, 0, 67, 57
1, 1355986, Note_off_c, 0, 69, 57
1, 1355989, Control_c, 0, 64, 78
1, 1355992, Note_off_c, 0, 85, 64
1, 1355995, Note_off_c, 0, 62, 58
1, 1356004, Control_c, 0, 64, 80
1, 1356006, Note_on_c, 0, 88, 76
1, 1356019, Control_c, 0, 64, 83
1, 1356034, Control_c, 0, 64, 85
1, 1356044, Note_off_c, 0, 88, 66
1, 1356049, Control_c, 0, 64, 87
1, 1356049, Control_c, 0, 67, 119
1, 1356063, Control_c, 0, 64, 89
1, 1356063, Control_c, 0, 67, 95
1, 1356078, Control_c, 0, 64, 90
1, 1356078, Control_c, 0, 67, 67
1, 1356093, Control_c, 0, 64, 92
1, 1356093, Control_c, 0, 67, 35
1, 1356103, Note_on_c, 0, 93, 87
1, 1356108, Control_c, 0, 64, 93
1, 1356108, Control_c, 0, 67, 0
1, 1356120, Note_on_c, 0, 69, 64
1, 1356123, Control_c, 0, 64, 94
1, 1356124, Note_on_c, 0, 62, 57
1, 1356126, Note_on_c, 0, 67, 58
1, 1356138, Control_c, 0, 64, 95
1, 1356183, Control_c, 0, 64, 98
1, 1356189, Note_off_c, 0, 67, 52
1, 1356196, Note_on_c, 0, 97, 82
1, 1356212, Note_off_c, 0, 69, 53
1, 1356230, Note_off_c, 0, 62, 55
1, 1356278, Note_off_c, 0, 93, 58
1, 1356290, Note_on_c, 0, 100, 81
1, 1356311, Note_off_c, 0, 97, 63
1, 1356323, Control_c, 0, 64, 100
1, 1356391, Note_on_c, 0, 98, 82
1, 1356395, Note_on_c, 0, 66, 70
1, 1356395, Note_off_c, 0, 100, 66
1, 1356397, Control_c, 0, 64, 90
1, 1356398, Note_on_c, 0, 69, 70
1, 1356399, Note_on_c, 0, 62, 63
1, 1356412, Control_c, 0, 64, 74
1, 1356427, Control_c, 0, 64, 59
1, 1356442, Control_c, 0, 64, 41
1, 1356456, Control_c, 0, 64, 0
1, 1356458, Note_off_c, 0, 98, 66
1, 1356490, Note_on_c, 0, 93, 79
1, 1356500, Control_c, 0, 64, 36
1, 1356515, Control_c, 0, 64, 51
1, 1356530, Control_c, 0, 64, 61
1, 1356536, Note_off_c, 0, 93, 63
1, 1356545, Control_c, 0, 64, 66
1, 1356560, Control_c, 0, 64, 70
1, 1356574, Control_c, 0, 64, 73
1, 1356589, Control_c, 0, 64, 77
1, 1356590, Note_on_c, 0, 90, 75
1, 1356604, Control_c, 0, 64, 81
1, 1356619, Control_c, 0, 64, 86
1, 1356634, Control_c, 0, 64, 90
1, 1356648, Control_c, 0, 64, 94
1, 1356663, Control_c, 0, 64, 97
1, 1356669, Note_on_c, 0, 86, 78
1, 1356674, Note_off_c, 0, 90, 64
1, 1356678, Control_c, 0, 64, 101
1, 1356693, Control_c, 0, 64, 105
1, 1356708, Control_c, 0, 64, 108
1, 1356715, Note_off_c, 0, 66, 63
1, 1356720, Note_off_c, 0, 69, 60
1, 1356723, Control_c, 0, 64, 112
1, 1356726, Note_off_c, 0, 86, 63
1, 1356726, Note_off_c, 0, 62, 61
1, 1356738, Control_c, 0, 64, 116
1, 1356752, Control_c, 0, 64, 121
1, 1356757, Note_on_c, 0, 81, 75
1, 1356767, Control_c, 0, 64, 127
1, 1356845, Note_off_c, 0, 81, 42
1, 1356854, Note_on_c, 0, 78, 70
1, 1356905, Note_off_c, 0, 78, 62
1, 1356915, Control_c, 0, 64, 100
1, 1356930, Control_c, 0, 64, 77
1, 1356946, Control_c, 0, 64, 58
1, 1356953, Note_on_c, 0, 81, 79
1, 1356961, Note_on_c, 0, 69, 78
1, 1356961, Control_c, 0, 64, 30
1, 1356964, Note_on_c, 0, 62, 70
1, 1356970, Note_on_c, 0, 67, 68
1, 1356976, Control_c, 0, 64, 0
1, 1357005, Control_c, 0, 64, 42
1, 1357027, Control_c, 0, 64, 59
1, 1357042, Control_c, 0, 64, 69
1, 1357047, Note_on_c, 0, 85, 78
1, 1357047, Note_off_c, 0, 81, 58
1, 1357057, Control_c, 0, 64, 77
1, 1357071, Control_c, 0, 64, 83
1, 1357087, Control_c, 0, 64, 87
1, 1357102, Control_c, 0, 64, 94
1, 1357110, Note_off_c, 0, 67, 51
1, 1357112, Note_off_c, 0, 69, 56
1, 1357117, Control_c, 0, 64, 100
1, 1357121, Note_off_c, 0, 62, 60
1, 1357131, Control_c, 0, 64, 106
1, 1357140, Note_off_c, 0, 85, 62
1, 1357144, Note_on_c, 0, 88, 79
1, 1357146, Control_c, 0, 64, 114
1, 1357161, Control_c, 0, 64, 127
1, 1357185, Note_off_c, 0, 88, 65
1, 1357228, Note_on_c, 0, 93, 95
1, 1357236, Note_on_c, 0, 69, 70
1, 1357238, Note_on_c, 0, 67, 70
1, 1357246, Note_on_c, 0, 62, 61
1, 1357319, Note_on_c, 0, 97, 88
1, 1357350, Note_off_c, 0, 67, 57
1, 1357355, Note_off_c, 0, 93, 61
1, 1357364, Note_off_c, 0, 69, 56
1, 1357380, Note_off_c, 0, 62, 58
1, 1357410, Note_on_c, 0, 100, 81
1, 1357414, Note_off_c, 0, 97, 65
1, 1357438, Note_off_c, 0, 100, 66
1, 1357516, Control_c, 0, 64, 102
1, 1357527, Note_on_c, 0, 98, 89
1, 1357531, Control_c, 0, 64, 90
1, 1357546, Control_c, 0, 64, 80
1, 1357551, Note_on_c, 0, 62, 47
1, 1357551, Note_on_c, 0, 69, 51
1, 1357557, Note_on_c, 0, 66, 49
1, 1357561, Control_c, 0, 64, 69
1, 1357576, Control_c, 0, 64, 56
1, 1357590, Control_c, 0, 64, 30
1, 1357605, Control_c, 0, 64, 0
1, 1357614, Note_on_c, 0, 93, 88
1, 1357638, Note_off_c, 0, 98, 66
1, 1357665, Control_c, 0, 67, 36
1, 1357679, Control_c, 0, 67, 41
1, 1357694, Control_c, 0, 64, 40
1, 1357694, Control_c, 0, 67, 46
1, 1357705, Note_on_c, 0, 90, 82
1, 1357709, Control_c, 0, 64, 58
1, 1357709, Control_c, 0, 67, 52
1, 1357718, Note_off_c, 0, 93, 64
1, 1357724, Control_c, 0, 64, 65
1, 1357724, Control_c, 0, 67, 60
1, 1357739, Control_c, 0, 64, 68
1, 1357739, Control_c, 0, 67, 68
1, 1357754, Control_c, 0, 64, 71
1, 1357754, Control_c, 0, 67, 77
1, 1357777, Control_c, 0, 64, 73
1, 1357777, Control_c, 0, 67, 84
1, 1357786, Note_off_c, 0, 90, 65
1, 1357792, Control_c, 0, 64, 76
1, 1357792, Control_c, 0, 67, 93
1, 1357802, Note_on_c, 0, 86, 76
1, 1357805, Note_off_c, 0, 69, 58
1, 1357807, Control_c, 0, 64, 79
1, 1357807, Control_c, 0, 67, 103
1, 1357821, Note_off_c, 0, 62, 49
1, 1357821, Control_c, 0, 64, 82
1, 1357821, Control_c, 0, 67, 113
1, 1357836, Note_off_c, 0, 86, 63
1, 1357836, Control_c, 0, 64, 84
1, 1357836, Control_c, 0, 67, 120
1, 1357846, Note_off_c, 0, 66, 59
1, 1357851, Control_c, 0, 64, 85
1, 1357851, Control_c, 0, 67, 124
1, 1357865, Control_c, 0, 64, 85
1, 1357865, Control_c, 0, 67, 127
1, 1357880, Control_c, 0, 64, 86
1, 1357895, Control_c, 0, 64, 86
1, 1357914, Note_on_c, 0, 81, 73
1, 1357953, Note_off_c, 0, 81, 58
1, 1357998, Note_on_c, 0, 78, 65
1, 1358025, Note_off_c, 0, 78, 65
1, 1358073, Control_c, 0, 64, 86
1, 1358088, Control_c, 0, 64, 85
1, 1358103, Control_c, 0, 64, 84
1, 1358118, Control_c, 0, 64, 81
1, 1358133, Control_c, 0, 64, 77
1, 1358147, Control_c, 0, 64, 72
1, 1358156, Note_on_c, 0, 81, 65
1, 1358162, Control_c, 0, 64, 65
1, 1358174, Note_on_c, 0, 66, 37
1, 1358177, Control_c, 0, 64, 55
1, 1358192, Control_c, 0, 64, 37
1, 1358207, Control_c, 0, 64, 0
1, 1358251, Control_c, 0, 64, 29
1, 1358256, Note_off_c, 0, 66, 59
1, 1358265, Control_c, 0, 64, 45
1, 1358279, Note_on_c, 0, 69, 50
1, 1358280, Control_c, 0, 64, 59
1, 1358295, Control_c, 0, 64, 65
1, 1358310, Control_c, 0, 64, 69
1, 1358321, Note_off_c, 0, 81, 64
1, 1358325, Control_c, 0, 64, 73
1, 1358339, Control_c, 0, 64, 75
1, 1358354, Note_off_c, 0, 69, 56
1, 1358354, Control_c, 0, 64, 78
1, 1358369, Control_c, 0, 64, 81
1, 1358374, Note_on_c, 0, 74, 47
1, 1358384, Control_c, 0, 64, 84
1, 1358399, Control_c, 0, 64, 87
1, 1358413, Control_c, 0, 64, 88
1, 1358428, Control_c, 0, 64, 88
1, 1358441, Note_on_c, 0, 81, 85
1, 1358444, Note_off_c, 0, 74, 51
1, 1358472, Note_on_c, 0, 66, 51
1, 1358525, Note_off_c, 0, 66, 62
1, 1358563, Note_on_c, 0, 69, 46
1, 1358574, Note_off_c, 0, 81, 61
1, 1358627, Note_off_c, 0, 69, 57
1, 1358666, Note_on_c, 0, 74, 43
1, 1358718, Control_c, 0, 64, 88
1, 1358723, Note_off_c, 0, 74, 40
1, 1358733, Control_c, 0, 64, 87
1, 1358748, Control_c, 0, 64, 85
1, 1358762, Control_c, 0, 64, 84
1, 1358771, Note_on_c, 0, 81, 66
1, 1358777, Control_c, 0, 64, 81
1, 1358792, Control_c, 0, 64, 78
1, 1358807, Control_c, 0, 64, 75
1, 1358809, Note_on_c, 0, 64, 45
1, 1358822, Control_c, 0, 64, 69
1, 1358836, Control_c, 0, 64, 59
1, 1358851, Control_c, 0, 64, 45
1, 1358866, Control_c, 0, 64, 29
1, 1358881, Control_c, 0, 64, 0
1, 1358889, Note_off_c, 0, 64, 62
1, 1358911, Control_c, 0, 64, 35
1, 1358918, Note_on_c, 0, 67, 41
1, 1358925, Control_c, 0, 64, 47
1, 1358940, Control_c, 0, 64, 60
1, 1358955, Control_c, 0, 64, 66
1, 1358970, Control_c, 0, 64, 69
1, 1358985, Control_c, 0, 64, 71
1, 1359000, Control_c, 0, 64, 73
1, 1359014, Note_on_c, 0, 73, 47
1, 1359014, Control_c, 0, 64, 75
1, 1359015, Note_off_c, 0, 67, 53
1, 1359029, Control_c, 0, 64, 77
1, 1359044, Control_c, 0, 64, 78
1, 1359059, Control_c, 0, 64, 80
1, 1359071, Note_off_c, 0, 73, 54
1, 1359074, Control_c, 0, 64, 81
1, 1359088, Control_c, 0, 64, 81
1, 1359103, Control_c, 0, 64, 82
1, 1359107, Note_on_c, 0, 64, 48
1, 1359118, Note_off_c, 0, 81, 61
1, 1359162, Note_off_c, 0, 64, 62
1, 1359221, Note_on_c, 0, 67, 34
1, 1359287, Note_off_c, 0, 67, 44
1, 1359313, Note_on_c, 0, 73, 43
1, 1359363, Note_off_c, 0, 73, 44
1, 1359408, Control_c, 0, 64, 81
1, 1359413, Note_on_c, 0, 81, 57
1, 1359423, Control_c, 0, 64, 79
1, 1359433, Note_on_c, 0, 63, 50
1, 1359438, Control_c, 0, 64, 74
1, 1359453, Control_c, 0, 64, 66
1, 1359467, Control_c, 0, 64, 57
1, 1359482, Control_c, 0, 64, 51
1, 1359483, Note_off_c, 0, 63, 58
1, 1359497, Control_c, 0, 64, 52
1, 1359512, Control_c, 0, 64, 56
1, 1359526, Control_c, 0, 64, 60
1, 1359531, Note_on_c, 0, 67, 42
1, 1359541, Control_c, 0, 64, 62
1, 1359556, Control_c, 0, 64, 65
1, 1359571, Control_c, 0, 64, 68
1, 1359585, Control_c, 0, 64, 71
1, 1359588, Note_off_c, 0, 81, 59
1, 1359600, Control_c, 0, 64, 73
1, 1359602, Note_off_c, 0, 67, 60
1, 1359615, Control_c, 0, 64, 74
1, 1359626, Note_on_c, 0, 72, 45
1, 1359630, Control_c, 0, 64, 74
1, 1359687, Note_off_c, 0, 72, 50
1, 1359689, Control_c, 0, 64, 72
1, 1359704, Control_c, 0, 64, 66
1, 1359715, Note_on_c, 0, 81, 60
1, 1359718, Control_c, 0, 64, 60
1, 1359733, Control_c, 0, 64, 55
1, 1359747, Note_on_c, 0, 63, 44
1, 1359748, Control_c, 0, 64, 56
1, 1359763, Control_c, 0, 64, 59
1, 1359778, Control_c, 0, 64, 62
1, 1359793, Control_c, 0, 64, 64
1, 1359796, Note_off_c, 0, 63, 60
1, 1359808, Control_c, 0, 64, 65
1, 1359823, Control_c, 0, 64, 68
1, 1359837, Control_c, 0, 64, 70
1, 1359844, Note_on_c, 0, 67, 37
1, 1359846, Note_off_c, 0, 81, 63
1, 1359852, Control_c, 0, 64, 71
1, 1359867, Control_c, 0, 64, 72
1, 1359882, Control_c, 0, 64, 73
1, 1359899, Note_off_c, 0, 67, 52
1, 1359931, Note_on_c, 0, 72, 35
1, 1360005, Note_off_c, 0, 72, 37
1, 1360037, Control_c, 0, 64, 72
1, 1360067, Control_c, 0, 64, 71
1, 1360073, Note_on_c, 0, 81, 49
1, 1360082, Control_c, 0, 64, 70
1, 1360097, Note_on_c, 0, 62, 35
1, 1360097, Control_c, 0, 64, 69
1, 1360112, Control_c, 0, 64, 66
1, 1360127, Control_c, 0, 64, 62
1, 1360142, Control_c, 0, 64, 56
1, 1360154, Note_off_c, 0, 62, 57
1, 1360157, Control_c, 0, 64, 45
1, 1360172, Control_c, 0, 64, 0
1, 1360195, Note_on_c, 0, 66, 49
1, 1360246, Control_c, 0, 64, 38
1, 1360256, Note_off_c, 0, 66, 57
1, 1360261, Control_c, 0, 64, 52
1, 1360276, Control_c, 0, 64, 60
1, 1360291, Control_c, 0, 64, 64
1, 1360306, Note_on_c, 0, 72, 31
1, 1360306, Control_c, 0, 64, 66
1, 1360321, Control_c, 0, 64, 67
1, 1360335, Control_c, 0, 64, 69
1, 1360345, Note_off_c, 0, 72, 52
1, 1360350, Control_c, 0, 64, 70
1, 1360365, Control_c, 0, 64, 71
1, 1360370, Note_on_c, 0, 62, 48
1, 1360374, Note_off_c, 0, 81, 60
1, 1360380, Control_c, 0, 64, 72
1, 1360416, Note_off_c, 0, 62, 59
1, 1360474, Note_on_c, 0, 66, 45
1, 1360519, Note_off_c, 0, 66, 58
1, 1360540, Note_on_c, 0, 72, 46
1, 1360572, Control_c, 0, 64, 68
1, 1360576, Note_off_c, 0, 72, 63
1, 1360587, Control_c, 0, 64, 62
1, 1360602, Control_c, 0, 64, 55
1, 1360616, Control_c, 0, 64, 55
1, 1360622, Note_on_c, 0, 81, 64
1, 1360631, Control_c, 0, 64, 57
1, 1360646, Control_c, 0, 64, 59
1, 1360654, Note_on_c, 0, 60, 49
1, 1360660, Control_c, 0, 64, 60
1, 1360665, Note_off_c, 0, 81, 61
1, 1360675, Control_c, 0, 64, 62
1, 1360690, Control_c, 0, 64, 63
1, 1360700, Note_off_c, 0, 60, 61
1, 1360705, Control_c, 0, 64, 65
1, 1360720, Control_c, 0, 64, 67
1, 1360735, Control_c, 0, 64, 69
1, 1360745, Note_on_c, 0, 62, 36
1, 1360750, Control_c, 0, 64, 71
1, 1360770, Note_on_c, 0, 81, 75
1, 1360772, Control_c, 0, 64, 72
1, 1360786, Control_c, 0, 64, 73
1, 1360801, Control_c, 0, 64, 74
1, 1360807, Note_off_c, 0, 62, 59
1, 1360816, Control_c, 0, 64, 75
1, 1360827, Note_off_c, 0, 81, 63
1, 1360830, Control_c, 0, 64, 75
1, 1360842, Note_on_c, 0, 66, 50
1, 1360860, Control_c, 0, 64, 76
1, 1360871, Note_off_c, 0, 66, 54
1, 1360899, Note_on_c, 0, 83, 78
1, 1360919, Note_on_c, 0, 60, 51
1, 1360957, Note_off_c, 0, 83, 64
1, 1360962, Note_off_c, 0, 60, 63
1, 1360997, Note_on_c, 0, 62, 56
1, 1361024, Note_on_c, 0, 84, 76
1, 1361071, Note_off_c, 0, 84, 61
1, 1361075, Note_off_c, 0, 62, 58
1, 1361093, Note_on_c, 0, 66, 55
1, 1361098, Control_c, 0, 64, 75
1, 1361113, Control_c, 0, 64, 73
1, 1361128, Control_c, 0, 64, 68
1, 1361132, Note_off_c, 0, 66, 63
1, 1361143, Control_c, 0, 64, 60
1, 1361158, Control_c, 0, 64, 51
1, 1361172, Control_c, 0, 64, 46
1, 1361187, Control_c, 0, 64, 47
1, 1361192, Note_on_c, 0, 86, 70
1, 1361200, Note_on_c, 0, 59, 50
1, 1361202, Control_c, 0, 64, 51
1, 1361217, Control_c, 0, 64, 55
1, 1361232, Control_c, 0, 64, 58
1, 1361246, Control_c, 0, 64, 62
1, 1361261, Control_c, 0, 64, 65
1, 1361276, Control_c, 0, 64, 68
1, 1361290, Control_c, 0, 64, 70
1, 1361295, Note_off_c, 0, 59, 59
1, 1361300, Note_on_c, 0, 62, 49
1, 1361305, Control_c, 0, 64, 71
1, 1361320, Control_c, 0, 64, 72
1, 1361335, Control_c, 0, 64, 73
1, 1361350, Control_c, 0, 64, 75
1, 1361364, Control_c, 0, 64, 76
1, 1361376, Note_off_c, 0, 62, 60
1, 1361396, Note_on_c, 0, 67, 40
1, 1361409, Control_c, 0, 64, 73
1, 1361423, Control_c, 0, 64, 67
1, 1361438, Note_off_c, 0, 67, 54
1, 1361438, Control_c, 0, 64, 59
1, 1361453, Control_c, 0, 64, 54
1, 1361465, Note_on_c, 0, 84, 70
1, 1361468, Control_c, 0, 64, 55
1, 1361483, Note_on_c, 0, 60, 43
1, 1361483, Control_c, 0, 64, 59
1, 1361498, Control_c, 0, 64, 62
1, 1361520, Control_c, 0, 64, 64
1, 1361532, Note_off_c, 0, 60, 65
1, 1361535, Control_c, 0, 64, 66
1, 1361549, Note_on_c, 0, 64, 59
1, 1361550, Control_c, 0, 64, 68
1, 1361564, Control_c, 0, 64, 70
1, 1361579, Control_c, 0, 64, 71
1, 1361594, Control_c, 0, 64, 72
1, 1361608, Control_c, 0, 64, 73
1, 1361615, Note_off_c, 0, 64, 61
1, 1361623, Control_c, 0, 64, 73
1, 1361638, Control_c, 0, 64, 75
1, 1361642, Note_on_c, 0, 67, 58
1, 1361653, Control_c, 0, 64, 77
1, 1361668, Control_c, 0, 64, 78
1, 1361683, Control_c, 0, 64, 77
1, 1361698, Control_c, 0, 64, 73
1, 1361706, Note_off_c, 0, 67, 52
1, 1361713, Control_c, 0, 64, 65
1, 1361728, Control_c, 0, 64, 54
1, 1361739, Note_on_c, 0, 83, 73
1, 1361743, Control_c, 0, 64, 48
1, 1361744, Note_on_c, 0, 62, 56
1, 1361758, Control_c, 0, 64, 51
1, 1361773, Control_c, 0, 64, 55
1, 1361787, Control_c, 0, 64, 58
1, 1361796, Note_off_c, 0, 62, 59
1, 1361802, Control_c, 0, 64, 61
1, 1361817, Control_c, 0, 64, 63
1, 1361831, Note_on_c, 0, 67, 53
1, 1361832, Control_c, 0, 64, 66
1, 1361846, Note_off_c, 0, 86, 40
1, 1361847, Control_c, 0, 64, 71
1, 1361862, Control_c, 0, 64, 76
1, 1361877, Control_c, 0, 64, 79
1, 1361889, Note_off_c, 0, 67, 49
1, 1361891, Control_c, 0, 64, 79
1, 1361906, Control_c, 0, 64, 76
1, 1361921, Control_c, 0, 64, 69
1, 1361921, Note_on_c, 0, 71, 47
1, 1361936, Control_c, 0, 64, 60
1, 1361939, Note_off_c, 0, 84, 30
1, 1361951, Control_c, 0, 64, 52
1, 1361966, Control_c, 0, 64, 52
1, 1361968, Note_off_c, 0, 71, 60
1, 1361981, Control_c, 0, 64, 54
1, 1361995, Control_c, 0, 64, 57
1, 1362006, Note_on_c, 0, 62, 54
1, 1362010, Control_c, 0, 64, 59
1, 1362021, Note_on_c, 0, 81, 65
1, 1362025, Control_c, 0, 64, 60
1, 1362039, Control_c, 0, 64, 61
1, 1362054, Control_c, 0, 64, 62
1, 1362064, Note_off_c, 0, 62, 57
1, 1362069, Control_c, 0, 64, 62
1, 1362091, Note_on_c, 0, 66, 54
1, 1362099, Control_c, 0, 64, 62
1, 1362100, Note_off_c, 0, 83, 59
1, 1362143, Control_c, 0, 64, 61
1, 1362155, Note_off_c, 0, 66, 62
1, 1362158, Control_c, 0, 64, 61
1, 1362173, Control_c, 0, 64, 60
1, 1362187, Note_on_c, 0, 72, 39
1, 1362187, Control_c, 0, 64, 58
1, 1362202, Control_c, 0, 64, 56
1, 1362217, Control_c, 0, 64, 52
1, 1362231, Control_c, 0, 64, 48
1, 1362243, Note_off_c, 0, 72, 55
1, 1362246, Control_c, 0, 64, 38
1, 1362269, Control_c, 0, 64, 0
1, 1362315, Note_on_c, 0, 83, 58
1, 1362323, Note_on_c, 0, 67, 34
1, 1362357, Note_off_c, 0, 81, 58
1, 1362368, Note_off_c, 0, 67, 55
1, 1362403, Note_on_c, 0, 71, 48
1, 1362417, Control_c, 0, 64, 32
1, 1362432, Control_c, 0, 64, 46
1, 1362446, Control_c, 0, 64, 56
1, 1362452, Note_off_c, 0, 71, 56
1, 1362461, Control_c, 0, 64, 61
1, 1362476, Control_c, 0, 64, 63
1, 1362478, Note_on_c, 0, 67, 53
1, 1362491, Control_c, 0, 64, 65
1, 1362506, Control_c, 0, 64, 67
1, 1362520, Control_c, 0, 64, 69
1, 1362536, Control_c, 0, 64, 71
1, 1362544, Note_off_c, 0, 67, 60
1, 1362551, Control_c, 0, 64, 73
1, 1362556, Note_off_c, 0, 83, 59
1, 1362565, Poly_aftertouch_c, 0, 84, 0
1, 1362566, Control_c, 0, 64, 74
1, 1362578, Note_on_c, 0, 62, 57
1, 1362581, Control_c, 0, 64, 75
1, 1362596, Control_c, 0, 64, 75
1, 1362610, Control_c, 0, 64, 76
1, 1362626, Note_off_c, 0, 62, 58
1, 1362664, Note_on_c, 0, 67, 60
1, 1362723, Note_off_c, 0, 67, 42
1, 1362750, Note_on_c, 0, 62, 53
1, 1362789, Control_c, 0, 64, 76
1, 1362804, Control_c, 0, 64, 74
1, 1362818, Control_c, 0, 64, 69
1, 1362825, Note_off_c, 0, 62, 51
1, 1362833, Control_c, 0, 64, 62
1, 1362848, Control_c, 0, 64, 55
1, 1362850, Note_on_c, 0, 74, 71
1, 1362860, Note_on_c, 0, 59, 55
1, 1362862, Control_c, 0, 64, 54
1, 1362877, Control_c, 0, 64, 57
1, 1362892, Control_c, 0, 64, 59
1, 1362907, Control_c, 0, 64, 62
1, 1362922, Control_c, 0, 64, 65
1, 1362936, Control_c, 0, 64, 69
1, 1362940, Note_off_c, 0, 59, 63
1, 1362951, Control_c, 0, 64, 72
1, 1362955, Note_on_c, 0, 62, 53
1, 1362966, Control_c, 0, 64, 74
1, 1362980, Control_c, 0, 64, 76
1, 1362986, Note_off_c, 0, 74, 59
1, 1362995, Control_c, 0, 64, 78
1, 1363018, Control_c, 0, 64, 80
1, 1363045, Note_off_c, 0, 62, 59
1, 1363048, Control_c, 0, 64, 80
1, 1363057, Note_on_c, 0, 67, 53
1, 1363062, Control_c, 0, 64, 76
1, 1363077, Control_c, 0, 64, 69
1, 1363092, Control_c, 0, 64, 61
1, 1363107, Control_c, 0, 64, 56
1, 1363117, Note_off_c, 0, 67, 49
1, 1363122, Control_c, 0, 64, 58
1, 1363132, Note_on_c, 0, 74, 81
1, 1363136, Control_c, 0, 64, 61
1, 1363151, Control_c, 0, 64, 64
1, 1363156, Note_on_c, 0, 59, 54
1, 1363166, Control_c, 0, 64, 67
1, 1363181, Control_c, 0, 64, 70
1, 1363195, Control_c, 0, 64, 72
1, 1363207, Note_off_c, 0, 59, 63
1, 1363210, Control_c, 0, 64, 74
1, 1363225, Control_c, 0, 64, 76
1, 1363226, Note_on_c, 0, 62, 55
1, 1363240, Control_c, 0, 64, 77
1, 1363251, Note_off_c, 0, 74, 60
1, 1363269, Control_c, 0, 64, 77
1, 1363281, Note_off_c, 0, 62, 61
1, 1363337, Note_on_c, 0, 67, 43
1, 1363374, Note_off_c, 0, 67, 48
1, 1363374, Control_c, 0, 64, 77
1, 1363389, Control_c, 0, 64, 75
1, 1363404, Control_c, 0, 64, 68
1, 1363419, Control_c, 0, 64, 60
1, 1363430, Note_on_c, 0, 74, 71
1, 1363433, Control_c, 0, 64, 49
1, 1363448, Control_c, 0, 64, 44
1, 1363451, Note_on_c, 0, 57, 52
1, 1363463, Control_c, 0, 64, 46
1, 1363477, Control_c, 0, 64, 52
1, 1363492, Control_c, 0, 64, 58
1, 1363507, Control_c, 0, 64, 63
1, 1363513, Note_off_c, 0, 57, 63
1, 1363522, Control_c, 0, 64, 68
1, 1363537, Control_c, 0, 64, 73
1, 1363543, Note_on_c, 0, 60, 54
1, 1363552, Control_c, 0, 64, 76
1, 1363567, Control_c, 0, 64, 77
1, 1363582, Control_c, 0, 64, 79
1, 1363597, Control_c, 0, 64, 82
1, 1363611, Control_c, 0, 64, 86
1, 1363622, Note_off_c, 0, 60, 60
1, 1363626, Control_c, 0, 64, 89
1, 1363639, Note_on_c, 0, 66, 63
1, 1363641, Control_c, 0, 64, 88
1, 1363656, Control_c, 0, 64, 84
1, 1363671, Control_c, 0, 64, 75
1, 1363685, Control_c, 0, 64, 64
1, 1363686, Note_off_c, 0, 66, 55
1, 1363700, Control_c, 0, 64, 51
1, 1363715, Control_c, 0, 64, 41
1, 1363730, Control_c, 0, 64, 42
1, 1363736, Note_on_c, 0, 57, 52
1, 1363745, Control_c, 0, 64, 51
1, 1363766, Control_c, 0, 64, 58
1, 1363781, Control_c, 0, 64, 64
1, 1363792, Note_off_c, 0, 57, 62
1, 1363796, Control_c, 0, 64, 68
1, 1363811, Control_c, 0, 64, 71
1, 1363811, Note_off_c, 0, 74, 59
1, 1363826, Control_c, 0, 64, 72
1, 1363830, Note_on_c, 0, 60, 52
1, 1363841, Control_c, 0, 64, 73
1, 1363856, Control_c, 0, 64, 74
1, 1363871, Control_c, 0, 64, 75
1, 1363900, Note_off_c, 0, 60, 61
1, 1363927, Note_on_c, 0, 66, 48
1, 1363960, Control_c, 0, 64, 74
1, 1363971, Note_off_c, 0, 66, 59
1, 1363975, Control_c, 0, 64, 74
1, 1363990, Control_c, 0, 64, 71
1, 1364005, Control_c, 0, 64, 65
1, 1364019, Control_c, 0, 64, 56
1, 1364020, Note_on_c, 0, 74, 66
1, 1364034, Control_c, 0, 64, 39
1, 1364035, Note_on_c, 0, 56, 50
1, 1364049, Control_c, 0, 64, 0
1, 1364090, Note_off_c, 0, 56, 59
1, 1364108, Control_c, 0, 64, 34
1, 1364122, Note_on_c, 0, 60, 51
1, 1364123, Control_c, 0, 64, 48
1, 1364139, Control_c, 0, 64, 60
1, 1364154, Control_c, 0, 64, 64
1, 1364168, Note_off_c, 0, 74, 61
1, 1364169, Control_c, 0, 64, 66
1, 1364183, Control_c, 0, 64, 66
1, 1364196, Note_off_c, 0, 60, 63
1, 1364198, Control_c, 0, 64, 68
1, 1364213, Control_c, 0, 64, 70
1, 1364217, Note_on_c, 0, 65, 45
1, 1364227, Control_c, 0, 64, 73
1, 1364242, Control_c, 0, 64, 75
1, 1364257, Control_c, 0, 64, 74
1, 1364272, Control_c, 0, 64, 71
1, 1364279, Note_off_c, 0, 65, 47
1, 1364287, Control_c, 0, 64, 65
1, 1364294, Note_on_c, 0, 74, 68
1, 1364301, Control_c, 0, 64, 55
1, 1364303, Note_on_c, 0, 56, 52
1, 1364316, Control_c, 0, 64, 49
1, 1364331, Control_c, 0, 64, 51
1, 1364346, Control_c, 0, 64, 57
1, 1364361, Control_c, 0, 64, 61
1, 1364372, Note_off_c, 0, 56, 59
1, 1364375, Control_c, 0, 64, 65
1, 1364390, Control_c, 0, 64, 67
1, 1364395, Note_on_c, 0, 60, 51
1, 1364405, Control_c, 0, 64, 69
1, 1364409, Note_off_c, 0, 74, 55
1, 1364420, Control_c, 0, 64, 71
1, 1364434, Control_c, 0, 64, 71
1, 1364449, Control_c, 0, 64, 72
1, 1364469, Note_off_c, 0, 60, 62
1, 1364500, Note_on_c, 0, 65, 42
1, 1364571, Note_off_c, 0, 65, 51
1, 1364604, Control_c, 0, 64, 71
1, 1364619, Control_c, 0, 64, 68
1, 1364625, Note_on_c, 0, 74, 67
1, 1364633, Note_on_c, 0, 55, 43
1, 1364634, Control_c, 0, 64, 63
1, 1364649, Control_c, 0, 64, 51
1, 1364664, Control_c, 0, 64, 30
1, 1364679, Control_c, 0, 64, 0
1, 1364691, Note_off_c, 0, 55, 59
1, 1364725, Note_on_c, 0, 59, 51
1, 1364768, Control_c, 0, 64, 37
1, 1364782, Control_c, 0, 64, 51
1, 1364797, Control_c, 0, 64, 62
1, 1364804, Note_off_c, 0, 59, 59
1, 1364812, Control_c, 0, 64, 66
1, 1364821, Note_on_c, 0, 65, 45
1, 1364827, Control_c, 0, 64, 68
1, 1364841, Control_c, 0, 64, 70
1, 1364856, Control_c, 0, 64, 72
1, 1364871, Control_c, 0, 64, 74
1, 1364878, Note_off_c, 0, 65, 54
1, 1364886, Control_c, 0, 64, 75
1, 1364893, Note_on_c, 0, 55, 52
1, 1364895, Note_off_c, 0, 74, 63
1, 1364901, Control_c, 0, 64, 75
1, 1364958, Note_off_c, 0, 55, 59
1, 1364976, Note_on_c, 0, 59, 51
1, 1365005, Control_c, 0, 64, 75
1, 1365032, Note_off_c, 0, 59, 60
1, 1365035, Control_c, 0, 64, 74
1, 1365050, Control_c, 0, 64, 73
1, 1365060, Note_on_c, 0, 65, 51
1, 1365064, Control_c, 0, 64, 73
1, 1365079, Control_c, 0, 64, 72
1, 1365094, Note_off_c, 0, 65, 64
1, 1365094, Control_c, 0, 64, 71
1, 1365109, Control_c, 0, 64, 69
1, 1365124, Control_c, 0, 64, 66
1, 1365138, Control_c, 0, 64, 64
1, 1365153, Control_c, 0, 64, 61
1, 1365156, Note_on_c, 0, 74, 67
1, 1365164, Note_on_c, 0, 53, 53
1, 1365168, Control_c, 0, 64, 59
1, 1365183, Control_c, 0, 64, 57
1, 1365197, Control_c, 0, 64, 55
1, 1365200, Note_off_c, 0, 74, 57
1, 1365212, Control_c, 0, 64, 52
1, 1365227, Control_c, 0, 64, 48
1, 1365239, Note_off_c, 0, 53, 60
1, 1365242, Control_c, 0, 64, 42
1, 1365247, Note_on_c, 0, 55, 55
1, 1365264, Control_c, 0, 64, 28
1, 1365279, Control_c, 0, 64, 0
1, 1365300, Note_on_c, 0, 74, 75
1, 1365330, Note_off_c, 0, 55, 62
1, 1365337, Note_off_c, 0, 74, 57
1, 1365345, Note_on_c, 0, 59, 58
1, 1365418, Note_off_c, 0, 59, 59
1, 1365433, Note_on_c, 0, 76, 77
1, 1365438, Note_on_c, 0, 53, 54
1, 1365482, Note_off_c, 0, 76, 62
1, 1365524, Note_on_c, 0, 55, 61
1, 1365526, Note_off_c, 0, 53, 59
1, 1365559, Note_on_c, 0, 77, 70
1, 1365595, Note_off_c, 0, 77, 58
1, 1365614, Note_off_c, 0, 55, 54
1, 1365641, Note_on_c, 0, 59, 46
1, 1365725, Note_on_c, 0, 79, 59
1, 1365734, Note_off_c, 0, 59, 56
1, 1365761, Note_on_c, 0, 52, 50
1, 1365784, Control_c, 0, 64, 33
1, 1365799, Control_c, 0, 64, 44
1, 1365813, Control_c, 0, 64, 53
1, 1365828, Control_c, 0, 64, 58
1, 1365843, Control_c, 0, 64, 59
1, 1365848, Note_on_c, 0, 55, 43
1, 1365858, Control_c, 0, 64, 60
1, 1365873, Control_c, 0, 64, 62
1, 1365876, Note_off_c, 0, 52, 57
1, 1365887, Control_c, 0, 64, 65
1, 1365902, Control_c, 0, 64, 67
1, 1365917, Control_c, 0, 64, 68
1, 1365931, Note_off_c, 0, 55, 58
1, 1365942, Note_on_c, 0, 60, 46
1, 1365947, Control_c, 0, 64, 66
1, 1365961, Control_c, 0, 64, 62
1, 1365976, Control_c, 0, 64, 54
1, 1365991, Control_c, 0, 64, 48
1, 1366006, Note_off_c, 0, 60, 54
1, 1366023, Note_on_c, 0, 77, 76
1, 1366028, Control_c, 0, 64, 51
1, 1366037, Note_on_c, 0, 53, 55
1, 1366043, Control_c, 0, 64, 54
1, 1366058, Control_c, 0, 64, 56
1, 1366072, Control_c, 0, 64, 59
1, 1366086, Control_c, 0, 64, 61
1, 1366101, Note_off_c, 0, 53, 62
1, 1366101, Control_c, 0, 64, 62
1, 1366109, Note_on_c, 0, 57, 63
1, 1366116, Control_c, 0, 64, 63
1, 1366131, Control_c, 0, 64, 64
1, 1366146, Control_c, 0, 64, 65
1, 1366160, Control_c, 0, 64, 66
1, 1366175, Control_c, 0, 64, 67
1, 1366181, Note_off_c, 0, 57, 63
1, 1366190, Control_c, 0, 64, 68
1, 1366205, Note_on_c, 0, 60, 59
1, 1366235, Control_c, 0, 64, 67
1, 1366250, Control_c, 0, 64, 65
1, 1366264, Control_c, 0, 64, 59
1, 1366278, Note_off_c, 0, 60, 59
1, 1366279, Control_c, 0, 64, 46
1, 1366294, Control_c, 0, 64, 29
1, 1366294, Control_c, 0, 67, 120
1, 1366303, Note_on_c, 0, 55, 65
1, 1366305, Note_on_c, 0, 76, 76
1, 1366309, Control_c, 0, 64, 0
1, 1366309, Control_c, 0, 67, 90
1, 1366324, Control_c, 0, 67, 54
1, 1366339, Control_c, 0, 64, 30
1, 1366339, Control_c, 0, 67, 0
1, 1366353, Control_c, 0, 64, 43
1, 1366355, Note_off_c, 0, 79, 40
1, 1366368, Control_c, 0, 64, 56
1, 1366375, Note_off_c, 0, 55, 61
1, 1366381, Note_on_c, 0, 60, 64
1, 1366383, Control_c, 0, 64, 64
1, 1366412, Control_c, 0, 64, 62
1, 1366427, Control_c, 0, 64, 55
1, 1366442, Control_c, 0, 64, 44
1, 1366451, Note_off_c, 0, 77, 40
1, 1366457, Control_c, 0, 64, 0
1, 1366471, Note_off_c, 0, 60, 61
1, 1366483, Note_on_c, 0, 64, 56
1, 1366501, Control_c, 0, 64, 32
1, 1366516, Control_c, 0, 64, 43
1, 1366532, Control_c, 0, 64, 52
1, 1366547, Control_c, 0, 64, 57
1, 1366562, Control_c, 0, 64, 59
1, 1366567, Note_off_c, 0, 64, 60
1, 1366576, Control_c, 0, 64, 59
1, 1366578, Note_on_c, 0, 55, 58
1, 1366591, Control_c, 0, 64, 60
1, 1366592, Note_on_c, 0, 74, 78
1, 1366650, Control_c, 0, 64, 59
1, 1366665, Control_c, 0, 64, 58
1, 1366680, Control_c, 0, 64, 56
1, 1366682, Note_on_c, 0, 59, 59
1, 1366685, Note_off_c, 0, 76, 59
1, 1366695, Control_c, 0, 64, 54
1, 1366709, Control_c, 0, 64, 51
1, 1366724, Control_c, 0, 64, 48
1, 1366732, Note_off_c, 0, 55, 38
1, 1366739, Control_c, 0, 64, 42
1, 1366762, Control_c, 0, 64, 33
1, 1366775, Note_off_c, 0, 59, 62
1, 1366777, Control_c, 0, 64, 0
1, 1366792, Note_on_c, 0, 65, 53
1, 1366914, Note_off_c, 0, 65, 59
1, 1366923, Note_on_c, 0, 76, 68
1, 1366933, Note_on_c, 0, 56, 55
1, 1367004, Note_off_c, 0, 74, 59
1, 1367028, Note_off_c, 0, 56, 60
1, 1367043, Note_on_c, 0, 59, 52
1, 1367121, Note_off_c, 0, 59, 60
1, 1367127, Note_on_c, 0, 64, 56
1, 1367146, Control_c, 0, 64, 33
1, 1367161, Control_c, 0, 64, 47
1, 1367176, Control_c, 0, 64, 57
1, 1367182, Note_off_c, 0, 76, 66
1, 1367191, Control_c, 0, 64, 62
1, 1367206, Control_c, 0, 64, 64
1, 1367209, Note_off_c, 0, 64, 62
1, 1367209, Note_on_c, 0, 56, 60
1, 1367220, Control_c, 0, 64, 66
1, 1367235, Control_c, 0, 64, 67
1, 1367250, Control_c, 0, 64, 69
1, 1367265, Control_c, 0, 64, 71
1, 1367280, Control_c, 0, 64, 72
1, 1367295, Control_c, 0, 64, 72
1, 1367296, Note_off_c, 0, 56, 62
1, 1367300, Note_on_c, 0, 59, 60
1, 1367325, Control_c, 0, 64, 73
1, 1367355, Control_c, 0, 64, 73
1, 1367366, Note_off_c, 0, 59, 62
1, 1367370, Control_c, 0, 64, 74
1, 1367373, Note_on_c, 0, 64, 60
1, 1367385, Control_c, 0, 64, 75
1, 1367399, Control_c, 0, 64, 77
1, 1367429, Control_c, 0, 64, 76
1, 1367444, Control_c, 0, 64, 68
1, 1367451, Note_off_c, 0, 64, 63
1, 1367458, Control_c, 0, 64, 54
1, 1367472, Note_on_c, 0, 88, 68
1, 1367473, Control_c, 0, 64, 0
1, 1367484, Note_on_c, 0, 76, 55
1, 1367509, Note_on_c, 0, 52, 43
1, 1367511, Control_c, 0, 64, 27
1, 1367517, Note_on_c, 0, 53, 45
1, 1367525, Note_off_c, 0, 76, 65
1, 1367525, Control_c, 0, 64, 45
1, 1367534, Note_off_c, 0, 88, 64
1, 1367540, Control_c, 0, 64, 61
1, 1367555, Control_c, 0, 64, 70
1, 1367570, Control_c, 0, 64, 72
1, 1367573, Note_off_c, 0, 53, 56
1, 1367582, Note_off_c, 0, 52, 55
1, 1367585, Control_c, 0, 64, 69
1, 1367585, Note_on_c, 0, 56, 62
1, 1367600, Control_c, 0, 64, 59
1, 1367614, Control_c, 0, 64, 51
1, 1367615, Note_on_c, 0, 76, 64
1, 1367618, Note_on_c, 0, 88, 78
1, 1367629, Control_c, 0, 64, 55
1, 1367644, Note_off_c, 0, 76, 66
1, 1367644, Control_c, 0, 64, 62
1, 1367658, Control_c, 0, 64, 67
1, 1367667, Note_off_c, 0, 88, 64
1, 1367668, Note_on_c, 0, 59, 64
1, 1367673, Control_c, 0, 64, 75
1, 1367688, Control_c, 0, 64, 79
1, 1367692, Note_off_c, 0, 56, 62
1, 1367703, Control_c, 0, 64, 79
1, 1367732, Control_c, 0, 64, 80
1, 1367744, Note_on_c, 0, 90, 88
1, 1367746, Note_on_c, 0, 78, 80
1, 1367747, Control_c, 0, 64, 80
1, 1367758, Note_off_c, 0, 59, 62
1, 1367762, Control_c, 0, 64, 81
1, 1367765, Note_on_c, 0, 50, 74
1, 1367776, Control_c, 0, 64, 81
1, 1367787, Note_off_c, 0, 78, 59
1, 1367797, Note_off_c, 0, 90, 63
1, 1367806, Control_c, 0, 64, 82
1, 1367853, Note_on_c, 0, 52, 73
1, 1367865, Note_off_c, 0, 50, 61
1, 1367884, Note_on_c, 0, 92, 90
1, 1367896, Note_on_c, 0, 80, 81
1, 1367918, Note_off_c, 0, 52, 63
1, 1367929, Note_on_c, 0, 59, 72
1, 1367945, Note_off_c, 0, 80, 55
1, 1367956, Note_off_c, 0, 92, 64
1, 1367999, Control_c, 0, 64, 81
1, 1368029, Control_c, 0, 64, 81
1, 1368044, Control_c, 0, 64, 80
1, 1368058, Control_c, 0, 64, 77
1, 1368073, Note_on_c, 0, 93, 90
1, 1368073, Control_c, 0, 64, 71
1, 1368077, Note_on_c, 0, 49, 63
1, 1368079, Note_off_c, 0, 59, 56
1, 1368088, Control_c, 0, 64, 62
1, 1368090, Note_on_c, 0, 81, 73
1, 1368103, Control_c, 0, 64, 44
1, 1368119, Control_c, 0, 64, 0
1, 1368174, Note_on_c, 0, 52, 58
1, 1368184, Note_off_c, 0, 49, 60
1, 1368192, Control_c, 0, 64, 35
1, 1368207, Control_c, 0, 64, 58
1, 1368222, Control_c, 0, 64, 70
1, 1368237, Control_c, 0, 64, 82
1, 1368259, Control_c, 0, 64, 101
1, 1368265, Note_on_c, 0, 57, 62
1, 1368272, Note_off_c, 0, 52, 60
1, 1368274, Control_c, 0, 64, 127
1, 1368274, Note_off_c, 0, 93, 65
1, 1368298, Note_off_c, 0, 81, 64
1, 1368365, Note_on_c, 0, 49, 63
1, 1368366, Note_off_c, 0, 57, 61
1, 1368438, Note_on_c, 0, 52, 65
1, 1368461, Note_off_c, 0, 49, 61
1, 1368498, Note_off_c, 0, 52, 61
1, 1368512, Note_on_c, 0, 57, 63
1, 1368577, Note_off_c, 0, 57, 63
1, 1368619, Note_on_c, 0, 81, 77
1, 1368628, Note_on_c, 0, 55, 70
1, 1368635, Note_on_c, 0, 69, 67
1, 1368644, Control_c, 0, 64, 75
1, 1368659, Control_c, 0, 64, 47
1, 1368671, Note_off_c, 0, 69, 62
1, 1368673, Control_c, 0, 64, 0
1, 1368693, Note_off_c, 0, 81, 62
1, 1368710, Note_on_c, 0, 57, 70
1, 1368718, Control_c, 0, 64, 31
1, 1368733, Control_c, 0, 64, 60
1, 1368737, Note_off_c, 0, 55, 61
1, 1368748, Control_c, 0, 64, 74
1, 1368762, Control_c, 0, 64, 78
1, 1368766, Note_on_c, 0, 69, 85
1, 1368767, Note_on_c, 0, 81, 89
1, 1368777, Control_c, 0, 64, 75
1, 1368792, Control_c, 0, 64, 65
1, 1368800, Note_off_c, 0, 57, 64
1, 1368806, Note_on_c, 0, 64, 70
1, 1368807, Control_c, 0, 64, 58
1, 1368815, Note_off_c, 0, 69, 59
1, 1368819, Note_off_c, 0, 81, 62
1, 1368822, Control_c, 0, 64, 57
1, 1368837, Control_c, 0, 64, 62
1, 1368852, Control_c, 0, 64, 68
1, 1368867, Control_c, 0, 64, 75
1, 1368881, Control_c, 0, 64, 80
1, 1368885, Note_off_c, 0, 64, 63
1, 1368896, Control_c, 0, 64, 81
1, 1368897, Note_on_c, 0, 83, 90
1, 1368899, Note_on_c, 0, 55, 72
1, 1368904, Note_on_c, 0, 71, 83
1, 1368926, Control_c, 0, 64, 81
1, 1368929, Note_off_c, 0, 71, 66
1, 1368951, Note_off_c, 0, 83, 65
1, 1368984, Note_on_c, 0, 57, 69
1, 1368986, Control_c, 0, 64, 82
1, 1368999, Note_off_c, 0, 55, 60
1, 1369037, Note_on_c, 0, 85, 89
1, 1369042, Note_on_c, 0, 73, 84
1, 1369049, Note_off_c, 0, 57, 64
1, 1369052, Control_c, 0, 64, 81
1, 1369064, Note_on_c, 0, 64, 64
1, 1369094, Note_off_c, 0, 73, 61
1, 1369111, Note_off_c, 0, 85, 62
1, 1369111, Control_c, 0, 64, 81
1, 1369126, Control_c, 0, 64, 80
1, 1369141, Control_c, 0, 64, 77
1, 1369156, Control_c, 0, 64, 75
1, 1369162, Note_off_c, 0, 64, 53
1, 1369171, Control_c, 0, 64, 71
1, 1369186, Control_c, 0, 64, 65
1, 1369201, Control_c, 0, 64, 56
1, 1369214, Note_on_c, 0, 86, 82
1, 1369216, Control_c, 0, 64, 38
1, 1369218, Note_on_c, 0, 54, 58
1, 1369230, Control_c, 0, 64, 0
1, 1369231, Note_on_c, 0, 74, 69
1, 1369304, Control_c, 0, 64, 29
1, 1369308, Note_on_c, 0, 57, 64
1, 1369312, Note_off_c, 0, 54, 61
1, 1369319, Control_c, 0, 64, 48
1, 1369334, Control_c, 0, 64, 61
1, 1369349, Control_c, 0, 64, 70
1, 1369364, Control_c, 0, 64, 79
1, 1369378, Control_c, 0, 64, 91
1, 1369393, Control_c, 0, 64, 106
1, 1369400, Note_off_c, 0, 57, 59
1, 1369406, Note_on_c, 0, 62, 59
1, 1369408, Control_c, 0, 64, 127
1, 1369464, Note_off_c, 0, 74, 64
1, 1369491, Note_on_c, 0, 54, 59
1, 1369501, Note_off_c, 0, 62, 60
1, 1369503, Note_off_c, 0, 86, 63
1, 1369588, Note_off_c, 0, 54, 62
1, 1369592, Note_on_c, 0, 57, 51
1, 1369630, Note_off_c, 0, 57, 63
1, 1369649, Note_on_c, 0, 62, 54
1, 1369710, Note_off_c, 0, 62, 59
1, 1369757, Control_c, 0, 64, 80
1, 1369769, Note_on_c, 0, 90, 65
1, 1369771, Control_c, 0, 64, 58
1, 1369773, Note_on_c, 0, 50, 58
1, 1369786, Control_c, 0, 64, 35
1, 1369790, Note_on_c, 0, 78, 50
1, 1369817, Control_c, 0, 64, 49
1, 1369832, Control_c, 0, 64, 62
1, 1369846, Control_c, 0, 64, 72
1, 1369860, Note_on_c, 0, 54, 61
1, 1369861, Control_c, 0, 64, 88
1, 1369873, Note_off_c, 0, 50, 57
1, 1369876, Control_c, 0, 64, 105
1, 1369891, Control_c, 0, 64, 127
1, 1369908, Note_off_c, 0, 78, 56
1, 1369925, Note_off_c, 0, 90, 58
1, 1369947, Note_on_c, 0, 57, 64
1, 1369961, Note_off_c, 0, 54, 60
1, 1370009, Control_c, 0, 64, 118
1, 1370024, Control_c, 0, 64, 77
1, 1370035, Note_off_c, 0, 57, 62
1, 1370039, Control_c, 0, 64, 58
1, 1370044, Note_on_c, 0, 50, 63
1, 1370044, Note_on_c, 0, 90, 82
1, 1370053, Note_on_c, 0, 78, 80
1, 1370053, Control_c, 0, 64, 43
1, 1370068, Control_c, 0, 64, 47
1, 1370083, Control_c, 0, 64, 59
1, 1370098, Control_c, 0, 64, 69
1, 1370113, Control_c, 0, 64, 81
1, 1370125, Note_on_c, 0, 54, 69
1, 1370128, Control_c, 0, 64, 91
1, 1370143, Control_c, 0, 64, 96
1, 1370144, Note_off_c, 0, 50, 62
1, 1370158, Control_c, 0, 64, 104
1, 1370172, Control_c, 0, 64, 117
1, 1370176, Note_off_c, 0, 90, 63
1, 1370187, Control_c, 0, 64, 127
1, 1370209, Note_off_c, 0, 54, 62
1, 1370210, Note_off_c, 0, 78, 60
1, 1370225, Note_on_c, 0, 57, 61
1, 1370306, Control_c, 0, 64, 112
1, 1370320, Control_c, 0, 64, 85
1, 1370335, Control_c, 0, 64, 65
1, 1370335, Control_c, 0, 67, 34
1, 1370336, Note_on_c, 0, 49, 65
1, 1370338, Note_off_c, 0, 57, 61
1, 1370340, Note_on_c, 0, 88, 78
1, 1370350, Control_c, 0, 64, 42
1, 1370350, Control_c, 0, 67, 42
1, 1370363, Note_on_c, 0, 76, 63
1, 1370365, Control_c, 0, 64, 0
1, 1370365, Control_c, 0, 67, 53
1, 1370379, Control_c, 0, 67, 60
1, 1370394, Control_c, 0, 67, 63
1, 1370409, Control_c, 0, 64, 37
1, 1370424, Control_c, 0, 64, 55
1, 1370432, Note_on_c, 0, 52, 60
1, 1370438, Note_off_c, 0, 49, 64
1, 1370439, Control_c, 0, 64, 63
1, 1370453, Control_c, 0, 64, 67
1, 1370468, Control_c, 0, 64, 70
1, 1370468, Control_c, 0, 67, 62
1, 1370483, Control_c, 0, 64, 73
1, 1370483, Control_c, 0, 67, 61
1, 1370506, Control_c, 0, 64, 76
1, 1370506, Control_c, 0, 67, 60
1, 1370513, Note_off_c, 0, 76, 57
1, 1370521, Control_c, 0, 64, 78
1, 1370521, Control_c, 0, 67, 60
1, 1370522, Note_off_c, 0, 52, 62
1, 1370536, Control_c, 0, 64, 80
1, 1370537, Note_on_c, 0, 57, 59
1, 1370551, Control_c, 0, 64, 82
1, 1370566, Control_c, 0, 64, 84
1, 1370566, Control_c, 0, 67, 59
1, 1370581, Control_c, 0, 64, 84
1, 1370610, Control_c, 0, 64, 84
1, 1370625, Control_c, 0, 64, 80
1, 1370627, Note_off_c, 0, 57, 58
1, 1370639, Note_on_c, 0, 86, 73
1, 1370640, Control_c, 0, 64, 70
1, 1370646, Note_on_c, 0, 50, 55
1, 1370655, Control_c, 0, 64, 56
1, 1370659, Note_off_c, 0, 88, 49
1, 1370664, Note_on_c, 0, 74, 58
1, 1370669, Control_c, 0, 64, 0
1, 1370669, Control_c, 0, 67, 60
1, 1370699, Control_c, 0, 67, 59
1, 1370714, Control_c, 0, 64, 29
1, 1370724, Note_off_c, 0, 50, 63
1, 1370729, Control_c, 0, 64, 44
1, 1370731, Note_on_c, 0, 54, 62
1, 1370744, Control_c, 0, 64, 55
1, 1370744, Control_c, 0, 67, 58
1, 1370758, Control_c, 0, 64, 61
1, 1370758, Control_c, 0, 67, 58
1, 1370766, Note_off_c, 0, 74, 63
1, 1370773, Control_c, 0, 64, 63
1, 1370788, Control_c, 0, 64, 65
1, 1370788, Control_c, 0, 67, 57
1, 1370802, Control_c, 0, 64, 67
1, 1370806, Note_off_c, 0, 54, 61
1, 1370817, Control_c, 0, 64, 69
1, 1370829, Note_on_c, 0, 57, 56
1, 1370832, Control_c, 0, 64, 72
1, 1370832, Control_c, 0, 67, 57
1, 1370847, Control_c, 0, 64, 75
1, 1370862, Control_c, 0, 64, 76
1, 1370862, Control_c, 0, 67, 57
1, 1370876, Control_c, 0, 64, 74
1, 1370888, Note_off_c, 0, 57, 53
1, 1370891, Control_c, 0, 64, 67
1, 1370891, Control_c, 0, 67, 58
1, 1370906, Control_c, 0, 64, 53
1, 1370921, Control_c, 0, 64, 0
1, 1370921, Control_c, 0, 67, 58
1, 1370925, Note_on_c, 0, 52, 60
1, 1370938, Note_on_c, 0, 85, 72
1, 1370971, Note_on_c, 0, 73, 51
1, 1370980, Control_c, 0, 64, 48
1, 1370993, Note_off_c, 0, 86, 55
1, 1370995, Control_c, 0, 64, 61
1, 1370997, Note_off_c, 0, 52, 62
1, 1371010, Control_c, 0, 64, 65
1, 1371012, Note_on_c, 0, 57, 60
1, 1371025, Control_c, 0, 64, 67
1, 1371040, Control_c, 0, 64, 70
1, 1371055, Control_c, 0, 64, 73
1, 1371069, Control_c, 0, 64, 76
1, 1371073, Note_off_c, 0, 85, 60
1, 1371084, Control_c, 0, 64, 78
1, 1371094, Note_off_c, 0, 57, 56
1, 1371097, Note_off_c, 0, 73, 63
1, 1371099, Control_c, 0, 64, 79
1, 1371114, Control_c, 0, 64, 80
1, 1371119, Note_on_c, 0, 61, 59
1, 1371128, Control_c, 0, 64, 80
1, 1371143, Control_c, 0, 64, 81
1, 1371158, Control_c, 0, 64, 81
1, 1371183, Note_off_c, 0, 61, 45
1, 1371202, Control_c, 0, 64, 79
1, 1371217, Control_c, 0, 64, 70
1, 1371224, Note_on_c, 0, 83, 67
1, 1371230, Note_on_c, 0, 52, 52
1, 1371232, Control_c, 0, 64, 58
1, 1371255, Control_c, 0, 64, 33
1, 1371260, Note_on_c, 0, 71, 54
1, 1371269, Control_c, 0, 64, 0
1, 1371299, Control_c, 0, 67, 58
1, 1371303, Note_off_c, 0, 52, 60
1, 1371313, Note_on_c, 0, 56, 61
1, 1371329, Control_c, 0, 64, 40
1, 1371329, Control_c, 0, 67, 57
1, 1371344, Control_c, 0, 64, 55
1, 1371359, Control_c, 0, 64, 63
1, 1371373, Control_c, 0, 64, 66
1, 1371373, Control_c, 0, 67, 57
1, 1371388, Note_off_c, 0, 71, 47
1, 1371388, Control_c, 0, 64, 67
1, 1371392, Note_off_c, 0, 56, 62
1, 1371403, Control_c, 0, 64, 68
1, 1371403, Control_c, 0, 67, 56
1, 1371418, Control_c, 0, 64, 69
1, 1371419, Note_on_c, 0, 62, 50
1, 1371432, Control_c, 0, 64, 70
1, 1371447, Control_c, 0, 64, 71
1, 1371447, Control_c, 0, 67, 56
1, 1371462, Control_c, 0, 64, 72
1, 1371481, Note_off_c, 0, 62, 49
1, 1371549, Note_on_c, 0, 57, 53
1, 1371549, Note_on_c, 0, 81, 60
1, 1371551, Control_c, 0, 64, 70
1, 1371562, Note_off_c, 0, 83, 38
1, 1371566, Control_c, 0, 64, 67
1, 1371580, Control_c, 0, 64, 62
1, 1371588, Note_on_c, 0, 69, 40
1, 1371595, Control_c, 0, 64, 56
1, 1371610, Control_c, 0, 64, 51
1, 1371624, Control_c, 0, 64, 45
1, 1371624, Control_c, 0, 67, 55
1, 1371638, Note_off_c, 0, 57, 62
1, 1371639, Note_on_c, 0, 61, 62
1, 1371639, Control_c, 0, 64, 40
1, 1371654, Control_c, 0, 64, 40
1, 1371691, Note_off_c, 0, 69, 59
1, 1371714, Control_c, 0, 67, 54
1, 1371728, Control_c, 0, 67, 53
1, 1371729, Note_on_c, 0, 64, 69
1, 1371743, Control_c, 0, 67, 52
1, 1371758, Control_c, 0, 67, 49
1, 1371763, Note_off_c, 0, 61, 55
1, 1371773, Control_c, 0, 67, 46
1, 1371788, Control_c, 0, 64, 41
1, 1371788, Control_c, 0, 67, 40
1, 1371788, Note_off_c, 0, 81, 61
1, 1371803, Control_c, 0, 64, 41
1, 1371803, Control_c, 0, 67, 0
1, 1371810, Note_on_c, 0, 69, 69
1, 1371812, Note_off_c, 0, 64, 65
1, 1371817, Control_c, 0, 64, 42
1, 1371832, Control_c, 0, 64, 43
1, 1371847, Control_c, 0, 64, 44
1, 1371862, Control_c, 0, 64, 45
1, 1371877, Control_c, 0, 64, 46
1, 1371891, Control_c, 0, 64, 47
1, 1371895, Note_off_c, 0, 69, 49
1, 1371896, Note_on_c, 0, 73, 73
1, 1371906, Control_c, 0, 64, 48
1, 1371921, Control_c, 0, 64, 48
1, 1371935, Control_c, 0, 64, 49
1, 1371965, Control_c, 0, 64, 49
1, 1371978, Note_on_c, 0, 76, 70
1, 1371978, Note_off_c, 0, 73, 58
1, 1372032, Control_c, 0, 64, 50
1, 1372062, Control_c, 0, 64, 50
1, 1372080, Note_off_c, 0, 76, 61
1, 1372092, Note_on_c, 0, 64, 85
1, 1372097, Note_on_c, 0, 69, 66
1, 1372106, Control_c, 0, 64, 51
1, 1372137, Control_c, 0, 64, 51
1, 1372166, Note_off_c, 0, 69, 55
1, 1372184, Note_on_c, 0, 73, 68
1, 1372211, Control_c, 0, 64, 52
1, 1372217, Note_off_c, 0, 64, 65
1, 1372270, Control_c, 0, 64, 52
1, 1372283, Note_on_c, 0, 76, 63
1, 1372288, Note_off_c, 0, 73, 57
1, 1372362, Note_off_c, 0, 76, 61
1, 1372388, Note_on_c, 0, 64, 86
1, 1372391, Note_on_c, 0, 69, 64
1, 1372456, Note_off_c, 0, 69, 56
1, 1372489, Note_on_c, 0, 73, 69
1, 1372499, Note_off_c, 0, 64, 62
1, 1372578, Note_on_c, 0, 76, 57
1, 1372581, Control_c, 0, 64, 53
1, 1372602, Note_off_c, 0, 73, 59
1, 1372647, Note_off_c, 0, 76, 63
1, 1372679, Note_on_c, 0, 68, 68
1, 1372685, Note_on_c, 0, 64, 89
1, 1372763, Note_off_c, 0, 68, 57
1, 1372775, Note_on_c, 0, 71, 67
1, 1372840, Control_c, 0, 64, 52
1, 1372869, Note_on_c, 0, 76, 65
1, 1372894, Note_off_c, 0, 71, 55
1, 1372915, Control_c, 0, 64, 53
1, 1372954, Note_off_c, 0, 76, 62
1, 1372969, Note_on_c, 0, 68, 71
1, 1373051, Note_off_c, 0, 68, 61
1, 1373055, Note_on_c, 0, 71, 69
1, 1373086, Note_off_c, 0, 64, 65
1, 1373139, Note_on_c, 0, 76, 69
1, 1373144, Note_off_c, 0, 71, 57
1, 1373229, Note_off_c, 0, 76, 62
1, 1373249, Note_on_c, 0, 64, 78
1, 1373253, Note_on_c, 0, 71, 72
1, 1373273, Note_off_c, 0, 64, 69
1, 1373292, Note_off_c, 0, 71, 62
1, 1373335, Note_on_c, 0, 74, 78
1, 1373390, Note_on_c, 0, 64, 69
1, 1373422, Note_on_c, 0, 76, 73
1, 1373423, Note_off_c, 0, 74, 59
1, 1373427, Note_off_c, 0, 64, 68
1, 1373520, Note_off_c, 0, 76, 62
1, 1373538, Note_on_c, 0, 71, 76
1, 1373542, Note_on_c, 0, 66, 84
1, 1373564, Note_off_c, 0, 66, 72
1, 1373592, Note_off_c, 0, 71, 61
1, 1373631, Note_on_c, 0, 74, 81
1, 1373653, Note_on_c, 0, 68, 82
1, 1373676, Note_off_c, 0, 68, 67
1, 1373700, Note_off_c, 0, 74, 57
1, 1373720, Note_on_c, 0, 76, 76
1, 1373739, Control_c, 0, 64, 53
1, 1373796, Note_off_c, 0, 76, 62
1, 1373811, Note_on_c, 0, 69, 88
1, 1373822, Note_on_c, 0, 72, 82
1, 1373884, Note_off_c, 0, 72, 62
1, 1373912, Note_on_c, 0, 76, 75
1, 1373991, Control_c, 0, 64, 54
1, 1373992, Note_off_c, 0, 69, 60
1, 1373994, Note_on_c, 0, 72, 74
1, 1374016, Note_off_c, 0, 76, 58
1, 1374068, Note_off_c, 0, 72, 62
1, 1374088, Note_on_c, 0, 69, 84
1, 1374119, Note_off_c, 0, 69, 66
1, 1374167, Note_on_c, 0, 72, 72
1, 1374223, Note_off_c, 0, 72, 54
1, 1374262, Note_on_c, 0, 76, 69
1, 1374297, Note_off_c, 0, 76, 61
1, 1374366, Note_on_c, 0, 57, 76
1, 1374372, Note_on_c, 0, 76, 76
1, 1374401, Note_off_c, 0, 57, 63
1, 1374426, Note_off_c, 0, 76, 64
1, 1374457, Note_on_c, 0, 79, 70
1, 1374506, Note_on_c, 0, 57, 85
1, 1374539, Note_off_c, 0, 79, 62
1, 1374541, Note_on_c, 0, 81, 76
1, 1374553, Note_off_c, 0, 57, 65
1, 1374621, Note_off_c, 0, 81, 62
1, 1374621, Control_c, 0, 64, 54
1, 1374638, Note_on_c, 0, 76, 84
1, 1374640, Note_on_c, 0, 59, 98
1, 1374677, Note_off_c, 0, 59, 69
1, 1374691, Note_off_c, 0, 76, 64
1, 1374709, Control_c, 0, 64, 55
1, 1374736, Note_on_c, 0, 79, 81
1, 1374769, Control_c, 0, 64, 55
1, 1374770, Note_on_c, 0, 61, 83
1, 1374791, Note_off_c, 0, 61, 73
1, 1374799, Control_c, 0, 64, 56
1, 1374830, Note_off_c, 0, 79, 58
1, 1374841, Note_on_c, 0, 81, 79
1, 1374888, Control_c, 0, 64, 56
1, 1374919, Note_off_c, 0, 81, 64
1, 1374943, Note_on_c, 0, 62, 93
1, 1374945, Note_on_c, 0, 74, 87
1, 1375008, Note_off_c, 0, 74, 59
1, 1375013, Control_c, 0, 64, 56
1, 1375041, Note_on_c, 0, 77, 79
1, 1375072, Control_c, 0, 64, 55
1, 1375116, Control_c, 0, 64, 55
1, 1375124, Note_off_c, 0, 77, 63
1, 1375130, Note_on_c, 0, 81, 80
1, 1375131, Control_c, 0, 64, 54
1, 1375161, Control_c, 0, 64, 54
1, 1375205, Control_c, 0, 64, 53
1, 1375210, Note_off_c, 0, 81, 62
1, 1375215, Note_on_c, 0, 74, 83
1, 1375255, Note_off_c, 0, 62, 52
1, 1375285, Note_off_c, 0, 74, 56
1, 1375304, Note_on_c, 0, 77, 79
1, 1375386, Note_off_c, 0, 77, 64
1, 1375392, Note_on_c, 0, 81, 75
1, 1375428, Note_off_c, 0, 81, 65
1, 1375428, Control_c, 0, 64, 54
1, 1375455, Note_on_c, 0, 50, 72
1, 1375481, Note_on_c, 0, 81, 71
1, 1375503, Note_off_c, 0, 50, 61
1, 1375517, Control_c, 0, 64, 54
1, 1375546, Note_off_c, 0, 81, 59
1, 1375568, Note_on_c, 0, 86, 79
1, 1375596, Note_on_c, 0, 50, 80
1, 1375648, Note_off_c, 0, 86, 65
1, 1375651, Note_off_c, 0, 50, 63
1, 1375653, Note_on_c, 0, 89, 78
1, 1375723, Note_off_c, 0, 89, 63
1, 1375730, Note_on_c, 0, 52, 77
1, 1375747, Note_on_c, 0, 81, 82
1, 1375774, Note_off_c, 0, 52, 62
1, 1375824, Note_off_c, 0, 81, 61
1, 1375830, Note_on_c, 0, 86, 77
1, 1375863, Note_on_c, 0, 53, 71
1, 1375893, Note_off_c, 0, 53, 64
1, 1375911, Note_off_c, 0, 86, 64
1, 1375914, Note_on_c, 0, 89, 74
1, 1375954, Control_c, 0, 64, 54
1, 1375969, Control_c, 0, 64, 53
1, 1375984, Control_c, 0, 64, 53
1, 1375998, Control_c, 0, 64, 52
1, 1376004, Note_off_c, 0, 89, 60
1, 1376030, Note_on_c, 0, 79, 63
1, 1376036, Note_on_c, 0, 52, 49
1, 1376058, Control_c, 0, 64, 53
1, 1376072, Control_c, 0, 64, 55
1, 1376087, Control_c, 0, 64, 57
1, 1376102, Control_c, 0, 64, 59
1, 1376118, Control_c, 0, 64, 61
1, 1376126, Note_on_c, 0, 84, 68
1, 1376126, Note_off_c, 0, 79, 59
1, 1376133, Control_c, 0, 64, 63
1, 1376147, Control_c, 0, 64, 65
1, 1376162, Control_c, 0, 64, 67
1, 1376177, Control_c, 0, 64, 69
1, 1376192, Control_c, 0, 64, 71
1, 1376207, Control_c, 0, 64, 73
1, 1376215, Note_on_c, 0, 91, 75
1, 1376221, Control_c, 0, 64, 74
1, 1376236, Control_c, 0, 64, 75
1, 1376242, Note_off_c, 0, 84, 59
1, 1376251, Control_c, 0, 64, 77
1, 1376266, Control_c, 0, 64, 79
1, 1376281, Control_c, 0, 64, 82
1, 1376295, Control_c, 0, 64, 84
1, 1376303, Note_off_c, 0, 91, 65
1, 1376310, Control_c, 0, 64, 82
1, 1376315, Note_on_c, 0, 53, 81
1, 1376315, Note_on_c, 0, 81, 84
1, 1376325, Control_c, 0, 64, 72
1, 1376337, Note_off_c, 0, 52, 57
1, 1376340, Control_c, 0, 64, 60
1, 1376355, Control_c, 0, 64, 49
1, 1376370, Control_c, 0, 64, 51
1, 1376385, Control_c, 0, 64, 57
1, 1376400, Control_c, 0, 64, 62
1, 1376408, Note_on_c, 0, 84, 83
1, 1376414, Control_c, 0, 64, 70
1, 1376429, Note_off_c, 0, 81, 59
1, 1376429, Control_c, 0, 64, 80
1, 1376444, Control_c, 0, 64, 92
1, 1376459, Control_c, 0, 64, 104
1, 1376474, Control_c, 0, 64, 127
1, 1376501, Note_on_c, 0, 89, 85
1, 1376521, Note_off_c, 0, 84, 61
1, 1376600, Control_c, 0, 64, 104
1, 1376605, Note_on_c, 0, 79, 85
1, 1376605, Note_on_c, 0, 55, 96
1, 1376614, Control_c, 0, 64, 70
1, 1376618, Note_off_c, 0, 89, 60
1, 1376623, Note_off_c, 0, 53, 58
1, 1376629, Control_c, 0, 64, 48
1, 1376644, Control_c, 0, 64, 38
1, 1376659, Control_c, 0, 64, 48
1, 1376674, Control_c, 0, 64, 64
1, 1376688, Note_on_c, 0, 84, 86
1, 1376689, Control_c, 0, 64, 97
1, 1376704, Control_c, 0, 64, 127
1, 1376705, Note_off_c, 0, 79, 61
1, 1376740, Note_off_c, 0, 55, 60
1, 1376773, Note_on_c, 0, 88, 86
1, 1376797, Note_off_c, 0, 84, 62
1, 1376860, Note_off_c, 0, 88, 67
1, 1376874, Note_on_c, 0, 79, 85
1, 1376882, Control_c, 0, 64, 74
1, 1376891, Note_on_c, 0, 55, 97
1, 1376896, Control_c, 0, 64, 34
1, 1376912, Control_c, 0, 64, 0
1, 1376936, Note_off_c, 0, 79, 57
1, 1376940, Note_off_c, 0, 55, 65
1, 1376942, Control_c, 0, 64, 45
1, 1376957, Control_c, 0, 64, 69
1, 1376963, Note_on_c, 0, 83, 87
1, 1376971, Control_c, 0, 64, 103
1, 1376986, Control_c, 0, 64, 127
1, 1377046, Note_on_c, 0, 86, 88
1, 1377058, Note_off_c, 0, 83, 60
1, 1377178, Control_c, 0, 64, 105
1, 1377193, Control_c, 0, 64, 58
1, 1377208, Note_on_c, 0, 88, 87
1, 1377208, Control_c, 0, 64, 0
1, 1377209, Note_on_c, 0, 56, 95
1, 1377215, Note_on_c, 0, 44, 78
1, 1377216, Note_on_c, 0, 52, 77
1, 1377217, Note_off_c, 0, 86, 64
1, 1377290, Control_c, 0, 64, 29
1, 1377305, Control_c, 0, 64, 57
1, 1377315, Note_on_c, 0, 86, 86
1, 1377319, Control_c, 0, 64, 65
1, 1377326, Note_off_c, 0, 88, 65
1, 1377334, Control_c, 0, 64, 72
1, 1377349, Control_c, 0, 64, 84
1, 1377363, Control_c, 0, 64, 104
1, 1377378, Control_c, 0, 64, 127
1, 1377398, Note_on_c, 0, 83, 88
1, 1377398, Note_off_c, 0, 86, 65
1, 1377455, Note_off_c, 0, 83, 64
1, 1377488, Note_on_c, 0, 76, 74
1, 1377510, Note_off_c, 0, 56, 62
1, 1377511, Note_off_c, 0, 76, 70
1, 1377531, Note_off_c, 0, 52, 61
1, 1377534, Note_off_c, 0, 44, 60
1, 1377572, Note_on_c, 0, 74, 84
1, 1377643, Note_off_c, 0, 74, 62
1, 1377655, Note_on_c, 0, 71, 77
1, 1377729, Note_off_c, 0, 71, 60
1, 1377765, Control_c, 0, 64, 77
1, 1377774, Note_on_c, 0, 64, 88
1, 1377776, Note_on_c, 0, 52, 83
1, 1377780, Control_c, 0, 64, 53
1, 1377782, Note_on_c, 0, 44, 72
1, 1377794, Control_c, 0, 64, 0
1, 1377839, Control_c, 0, 64, 48
1, 1377847, Note_off_c, 0, 64, 63
1, 1377853, Note_off_c, 0, 52, 54
1, 1377854, Control_c, 0, 64, 64
1, 1377867, Note_on_c, 0, 76, 82
1, 1377868, Control_c, 0, 64, 74
1, 1377880, Note_off_c, 0, 44, 54
1, 1377883, Control_c, 0, 64, 84
1, 1377898, Control_c, 0, 64, 90
1, 1377913, Control_c, 0, 64, 97
1, 1377928, Control_c, 0, 64, 113
1, 1377932, Note_off_c, 0, 76, 65
1, 1377942, Control_c, 0, 64, 127
1, 1377953, Note_on_c, 0, 64, 83
1, 1378024, Control_c, 0, 64, 88
1, 1378030, Note_off_c, 0, 64, 64
1, 1378039, Control_c, 0, 64, 64
1, 1378051, Note_on_c, 0, 76, 78
1, 1378054, Control_c, 0, 64, 35
1, 1378055, Note_on_c, 0, 52, 73
1, 1378057, Note_on_c, 0, 44, 67
1, 1378068, Control_c, 0, 64, 0
1, 1378094, Note_off_c, 0, 52, 64
1, 1378095, Note_off_c, 0, 44, 65
1, 1378098, Control_c, 0, 64, 41
1, 1378111, Note_off_c, 0, 76, 64
1, 1378112, Control_c, 0, 64, 62
1, 1378127, Control_c, 0, 64, 71
1, 1378137, Note_on_c, 0, 64, 89
1, 1378142, Control_c, 0, 64, 79
1, 1378157, Control_c, 0, 64, 85
1, 1378172, Control_c, 0, 64, 89
1, 1378186, Control_c, 0, 64, 93
1, 1378199, Note_off_c, 0, 64, 64
1, 1378201, Control_c, 0, 64, 96
1, 1378216, Control_c, 0, 64, 99
1, 1378222, Note_on_c, 0, 76, 80
1, 1378246, Control_c, 0, 64, 101
1, 1378315, Note_off_c, 0, 76, 61
1, 1378319, Control_c, 0, 64, 79
1, 1378334, Control_c, 0, 64, 57
1, 1378340, Note_on_c, 0, 53, 86
1, 1378348, Note_on_c, 0, 71, 85
1, 1378349, Note_on_c, 0, 45, 76
1, 1378349, Control_c, 0, 64, 0
1, 1378431, Note_off_c, 0, 71, 61
1, 1378439, Note_on_c, 0, 74, 84
1, 1378513, Control_c, 0, 64, 40
1, 1378518, Note_off_c, 0, 74, 62
1, 1378528, Control_c, 0, 64, 61
1, 1378531, Note_on_c, 0, 77, 81
1, 1378543, Control_c, 0, 64, 67
1, 1378558, Control_c, 0, 64, 72
1, 1378561, Note_off_c, 0, 77, 66
1, 1378573, Control_c, 0, 64, 78
1, 1378588, Control_c, 0, 64, 87
1, 1378602, Control_c, 0, 64, 99
1, 1378614, Note_on_c, 0, 83, 89
1, 1378617, Control_c, 0, 64, 117
1, 1378632, Control_c, 0, 64, 127
1, 1378700, Note_on_c, 0, 86, 83
1, 1378703, Note_off_c, 0, 83, 57
1, 1378761, Note_off_c, 0, 45, 54
1, 1378769, Note_off_c, 0, 86, 63
1, 1378770, Note_off_c, 0, 53, 55
1, 1378799, Note_on_c, 0, 89, 80
1, 1378860, Control_c, 0, 64, 91
1, 1378862, Note_off_c, 0, 89, 62
1, 1378875, Control_c, 0, 64, 66
1, 1378889, Control_c, 0, 64, 42
1, 1378895, Note_on_c, 0, 95, 95
1, 1378898, Note_on_c, 0, 53, 80
1, 1378904, Control_c, 0, 64, 28
1, 1378907, Note_on_c, 0, 45, 71
1, 1378919, Control_c, 0, 64, 38
1, 1378933, Control_c, 0, 64, 60
1, 1378948, Control_c, 0, 64, 72
1, 1378963, Control_c, 0, 64, 89
1, 1378978, Control_c, 0, 64, 111
1, 1378987, Note_on_c, 0, 83, 89
1, 1378988, Note_off_c, 0, 95, 60
1, 1378993, Control_c, 0, 64, 127
1, 1378996, Note_off_c, 0, 53, 57
1, 1379014, Note_off_c, 0, 45, 56
1, 1379067, Note_off_c, 0, 83, 62
1, 1379082, Note_on_c, 0, 95, 89
1, 1379112, Control_c, 0, 64, 81
1, 1379127, Control_c, 0, 64, 52
1, 1379141, Control_c, 0, 64, 0
1, 1379154, Note_off_c, 0, 95, 67
1, 1379164, Note_on_c, 0, 53, 75
1, 1379165, Note_on_c, 0, 45, 69
1, 1379170, Note_on_c, 0, 83, 85
1, 1379171, Control_c, 0, 64, 32
1, 1379186, Control_c, 0, 64, 58
1, 1379196, Note_off_c, 0, 53, 66
1, 1379201, Note_off_c, 0, 45, 66
1, 1379201, Control_c, 0, 64, 72
1, 1379215, Control_c, 0, 64, 86
1, 1379230, Control_c, 0, 64, 102
1, 1379244, Note_off_c, 0, 83, 65
1, 1379245, Control_c, 0, 64, 120
1, 1379253, Note_on_c, 0, 95, 88
1, 1379259, Control_c, 0, 64, 127
1, 1379304, Note_off_c, 0, 95, 68
1, 1379342, Note_on_c, 0, 83, 84
1, 1379404, Note_off_c, 0, 83, 63
1, 1379438, Control_c, 0, 64, 76
1, 1379453, Control_c, 0, 64, 42
1, 1379467, Note_on_c, 0, 52, 86
1, 1379468, Control_c, 0, 64, 0
1, 1379471, Note_on_c, 0, 44, 82
1, 1379474, Note_on_c, 0, 88, 90
1, 1379574, Note_on_c, 0, 86, 87
1, 1379586, Note_off_c, 0, 88, 65
1, 1379625, Control_c, 0, 64, 38
1, 1379639, Control_c, 0, 64, 59
1, 1379654, Control_c, 0, 64, 68
1, 1379664, Note_on_c, 0, 83, 84
1, 1379666, Note_off_c, 0, 86, 66
1, 1379669, Control_c, 0, 64, 74
1, 1379684, Control_c, 0, 64, 80
1, 1379699, Control_c, 0, 64, 87
1, 1379713, Control_c, 0, 64, 95
1, 1379720, Note_off_c, 0, 83, 65
1, 1379728, Control_c, 0, 64, 106
1, 1379743, Control_c, 0, 64, 127
1, 1379747, Note_on_c, 0, 76, 74
1, 1379781, Note_off_c, 0, 76, 64
1, 1379839, Note_on_c, 0, 74, 82
1, 1379864, Note_off_c, 0, 44, 57
1, 1379868, Note_off_c, 0, 52, 53
1, 1379908, Note_off_c, 0, 74, 62
1, 1379917, Note_on_c, 0, 71, 75
1, 1379976, Note_off_c, 0, 71, 61
1, 1379995, Control_c, 0, 64, 101
1, 1380009, Control_c, 0, 64, 66
1, 1380016, Note_on_c, 0, 64, 90
1, 1380024, Control_c, 0, 64, 0
1, 1380027, Note_on_c, 0, 44, 77
1, 1380029, Note_on_c, 0, 52, 79
1, 1380069, Control_c, 0, 64, 33
1, 1380079, Note_off_c, 0, 64, 64
1, 1380083, Control_c, 0, 64, 58
1, 1380099, Control_c, 0, 64, 71
1, 1380107, Note_on_c, 0, 76, 84
1, 1380114, Control_c, 0, 64, 87
1, 1380129, Control_c, 0, 64, 127
1, 1380167, Note_off_c, 0, 52, 52
1, 1380179, Note_off_c, 0, 76, 64
1, 1380191, Note_on_c, 0, 64, 84
1, 1380193, Note_off_c, 0, 44, 58
1, 1380218, Control_c, 0, 64, 88
1, 1380240, Control_c, 0, 64, 65
1, 1380254, Control_c, 0, 64, 39
1, 1380268, Note_off_c, 0, 64, 64
1, 1380269, Control_c, 0, 64, 32
1, 1380284, Control_c, 0, 64, 49
1, 1380290, Note_on_c, 0, 76, 81
1, 1380296, Note_on_c, 0, 52, 72
1, 1380299, Control_c, 0, 64, 66
1, 1380301, Note_on_c, 0, 44, 75
1, 1380313, Control_c, 0, 64, 85
1, 1380328, Control_c, 0, 64, 127
1, 1380352, Note_off_c, 0, 76, 65
1, 1380354, Note_off_c, 0, 52, 59
1, 1380361, Note_off_c, 0, 44, 62
1, 1380378, Note_on_c, 0, 64, 85
1, 1380439, Note_off_c, 0, 64, 63
1, 1380458, Note_on_c, 0, 76, 84
1, 1380536, Control_c, 0, 64, 93
1, 1380538, Note_off_c, 0, 76, 60
1, 1380551, Control_c, 0, 64, 69
1, 1380566, Control_c, 0, 64, 33
1, 1380567, Note_on_c, 0, 53, 82
1, 1380573, Note_on_c, 0, 45, 83
1, 1380578, Note_on_c, 0, 71, 83
1, 1380580, Control_c, 0, 64, 0
1, 1380657, Note_off_c, 0, 71, 62
1, 1380668, Note_on_c, 0, 74, 86
1, 1380728, Control_c, 0, 64, 42
1, 1380743, Control_c, 0, 64, 57
1, 1380748, Note_off_c, 0, 74, 61
1, 1380758, Control_c, 0, 64, 65
1, 1380761, Note_on_c, 0, 77, 82
1, 1380773, Control_c, 0, 64, 68
1, 1380787, Control_c, 0, 64, 72
1, 1380795, Note_off_c, 0, 77, 63
1, 1380802, Control_c, 0, 64, 76
1, 1380817, Control_c, 0, 64, 80
1, 1380832, Control_c, 0, 64, 85
1, 1380847, Note_on_c, 0, 83, 89
1, 1380847, Control_c, 0, 64, 89
1, 1380862, Control_c, 0, 64, 92
1, 1380877, Control_c, 0, 64, 95
1, 1380907, Control_c, 0, 64, 98
1, 1380936, Note_on_c, 0, 86, 84
1, 1380944, Note_off_c, 0, 83, 63
1, 1380951, Note_off_c, 0, 53, 55
1, 1380958, Note_off_c, 0, 45, 56
1, 1381031, Note_on_c, 0, 89, 86
1, 1381037, Note_off_c, 0, 86, 64
1, 1381077, Control_c, 0, 64, 90
1, 1381092, Control_c, 0, 64, 72
1, 1381107, Control_c, 0, 64, 52
1, 1381121, Note_off_c, 0, 89, 59
1, 1381122, Control_c, 0, 64, 0
1, 1381129, Note_on_c, 0, 45, 67
1, 1381129, Note_on_c, 0, 95, 92
1, 1381131, Note_on_c, 0, 53, 68
1, 1381167, Control_c, 0, 64, 42
1, 1381182, Control_c, 0, 64, 62
1, 1381197, Control_c, 0, 64, 70
1, 1381211, Control_c, 0, 64, 77
1, 1381224, Note_on_c, 0, 83, 86
1, 1381226, Note_off_c, 0, 95, 62
1, 1381226, Control_c, 0, 64, 84
1, 1381241, Control_c, 0, 64, 91
1, 1381256, Control_c, 0, 64, 101
1, 1381261, Note_off_c, 0, 45, 57
1, 1381271, Control_c, 0, 64, 117
1, 1381273, Note_off_c, 0, 53, 53
1, 1381285, Control_c, 0, 64, 127
1, 1381303, Note_off_c, 0, 83, 64
1, 1381318, Note_on_c, 0, 95, 90
1, 1381375, Control_c, 0, 64, 104
1, 1381387, Note_off_c, 0, 95, 67
1, 1381390, Control_c, 0, 64, 69
1, 1381404, Control_c, 0, 64, 44
1, 1381406, Note_on_c, 0, 83, 86
1, 1381419, Control_c, 0, 64, 0
1, 1381422, Note_on_c, 0, 53, 55
1, 1381431, Note_on_c, 0, 45, 58
1, 1381434, Control_c, 0, 64, 29
1, 1381449, Control_c, 0, 64, 50
1, 1381464, Control_c, 0, 64, 65
1, 1381478, Control_c, 0, 64, 79
1, 1381487, Note_off_c, 0, 83, 65
1, 1381493, Control_c, 0, 64, 91
1, 1381504, Note_on_c, 0, 95, 81
1, 1381508, Control_c, 0, 64, 97
1, 1381512, Note_off_c, 0, 53, 59
1, 1381522, Note_off_c, 0, 45, 60
1, 1381523, Control_c, 0, 64, 111
1, 1381537, Control_c, 0, 64, 127
1, 1381578, Note_off_c, 0, 95, 64
1, 1381602, Note_on_c, 0, 83, 82
1, 1381673, Note_off_c, 0, 83, 60
1, 1381811, Note_on_c, 0, 98, 75
1, 1381832, Note_on_c, 0, 52, 47
1, 1381840, Note_on_c, 0, 44, 46
1, 1381841, Control_c, 0, 64, 110
1, 1381856, Control_c, 0, 64, 102
1, 1381871, Control_c, 0, 64, 97
1, 1381886, Control_c, 0, 64, 91
1, 1381901, Control_c, 0, 64, 86
1, 1381915, Control_c, 0, 64, 81
1, 1381930, Control_c, 0, 64, 76
1, 1381945, Control_c, 0, 64, 70
1, 1381956, Note_on_c, 0, 97, 76
1, 1381959, Control_c, 0, 64, 65
1, 1381974, Control_c, 0, 64, 62
1, 1381989, Control_c, 0, 64, 61
1, 1381995, Note_off_c, 0, 98, 62
1, 1382004, Control_c, 0, 64, 60
1, 1382019, Control_c, 0, 64, 59
1, 1382033, Control_c, 0, 64, 59
1, 1382046, Note_on_c, 0, 95, 75
1, 1382048, Control_c, 0, 64, 58
1, 1382071, Note_off_c, 0, 97, 64
1, 1382104, Note_off_c, 0, 95, 66
1, 1382126, Note_on_c, 0, 93, 74
1, 1382180, Note_off_c, 0, 93, 61
1, 1382182, Control_c, 0, 67, 46
1, 1382197, Control_c, 0, 67, 61
1, 1382212, Control_c, 0, 67, 83
1, 1382215, Note_on_c, 0, 92, 74
1, 1382226, Control_c, 0, 64, 58
1, 1382226, Control_c, 0, 67, 108
1, 1382241, Control_c, 0, 67, 127
1, 1382300, Control_c, 0, 64, 57
1, 1382302, Note_on_c, 0, 90, 71
1, 1382325, Note_off_c, 0, 92, 63
1, 1382379, Note_off_c, 0, 52, 54
1, 1382379, Note_on_c, 0, 88, 74
1, 1382382, Note_off_c, 0, 90, 64
1, 1382419, Note_off_c, 0, 44, 60
1, 1382438, Note_off_c, 0, 88, 65
1, 1382460, Note_on_c, 0, 86, 71
1, 1382500, Control_c, 0, 64, 57
1, 1382531, Note_off_c, 0, 86, 59
1, 1382551, Note_on_c, 0, 85, 69
1, 1382631, Note_on_c, 0, 83, 72
1, 1382633, Note_off_c, 0, 85, 65
1, 1382683, Note_off_c, 0, 83, 61
1, 1382713, Note_on_c, 0, 81, 66
1, 1382759, Note_off_c, 0, 81, 61
1, 1382796, Note_on_c, 0, 80, 66
1, 1382874, Note_on_c, 0, 78, 64
1, 1382885, Note_off_c, 0, 80, 60
1, 1382949, Note_off_c, 0, 78, 61
1, 1382955, Note_on_c, 0, 76, 65
1, 1383003, Note_off_c, 0, 76, 61
1, 1383035, Note_on_c, 0, 74, 69
1, 1383075, Note_off_c, 0, 74, 58
1, 1383118, Note_on_c, 0, 73, 62
1, 1383189, Note_off_c, 0, 73, 63
1, 1383202, Note_on_c, 0, 71, 62
1, 1383258, Note_off_c, 0, 71, 55
1, 1383286, Note_on_c, 0, 69, 61
1, 1383335, Note_off_c, 0, 69, 56
1, 1383375, Note_on_c, 0, 68, 61
1, 1383443, Control_c, 0, 64, 56
1, 1383461, Note_off_c, 0, 68, 61
1, 1383464, Note_on_c, 0, 66, 65
1, 1383526, Note_off_c, 0, 66, 64
1, 1383541, Note_on_c, 0, 64, 58
1, 1383584, Note_off_c, 0, 64, 60
1, 1383592, Control_c, 0, 64, 56
1, 1383624, Note_on_c, 0, 63, 64
1, 1383671, Note_off_c, 0, 63, 58
1, 1383702, Note_on_c, 0, 64, 60
1, 1383754, Note_off_c, 0, 64, 58
1, 1383797, Note_on_c, 0, 66, 56
1, 1383874, Note_off_c, 0, 66, 62
1, 1383884, Note_on_c, 0, 68, 60
1, 1383924, Note_off_c, 0, 68, 61
1, 1383977, Note_on_c, 0, 69, 61
1, 1384018, Note_off_c, 0, 69, 60
1, 1384069, Note_on_c, 0, 71, 59
1, 1384116, Note_off_c, 0, 71, 56
1, 1384147, Control_c, 0, 64, 55
1, 1384158, Note_on_c, 0, 73, 59
1, 1384162, Control_c, 0, 64, 55
1, 1384177, Control_c, 0, 64, 54
1, 1384191, Note_off_c, 0, 73, 64
1, 1384192, Control_c, 0, 64, 52
1, 1384207, Control_c, 0, 64, 49
1, 1384222, Control_c, 0, 64, 43
1, 1384236, Control_c, 0, 64, 33
1, 1384251, Control_c, 0, 64, 0
1, 1384254, Note_on_c, 0, 74, 55
1, 1384307, Note_off_c, 0, 74, 50
1, 1384362, Note_on_c, 0, 75, 46
1, 1384496, Note_on_c, 0, 76, 61
1, 1384498, Note_off_c, 0, 75, 49
1, 1384508, Note_on_c, 0, 57, 18
1, 1384533, Control_c, 0, 64, 40
1, 1384547, Control_c, 0, 64, 51
1, 1384562, Control_c, 0, 64, 58
1, 1384577, Control_c, 0, 64, 61
1, 1384592, Control_c, 0, 64, 62
1, 1384607, Note_off_c, 0, 57, 38
1, 1384607, Control_c, 0, 64, 64
1, 1384621, Control_c, 0, 64, 65
1, 1384624, Note_on_c, 0, 60, 36
1, 1384636, Control_c, 0, 64, 68
1, 1384651, Control_c, 0, 64, 72
1, 1384666, Control_c, 0, 64, 74
1, 1384675, Note_off_c, 0, 60, 59
1, 1384678, Note_off_c, 0, 76, 58
1, 1384681, Control_c, 0, 64, 76
1, 1384695, Control_c, 0, 64, 78
1, 1384710, Control_c, 0, 64, 80
1, 1384731, Note_on_c, 0, 64, 28
1, 1384733, Control_c, 0, 64, 82
1, 1384748, Control_c, 0, 64, 84
1, 1384762, Control_c, 0, 64, 85
1, 1384777, Control_c, 0, 64, 85
1, 1384792, Control_c, 0, 64, 86
1, 1384794, Note_off_c, 0, 64, 44
1, 1384812, Note_on_c, 0, 76, 76
1, 1384821, Control_c, 0, 64, 86
1, 1384824, Note_on_c, 0, 57, 42
1, 1384882, Note_off_c, 0, 57, 61
1, 1384912, Note_on_c, 0, 60, 52
1, 1384970, Note_off_c, 0, 76, 52
1, 1384978, Note_off_c, 0, 60, 48
1, 1385025, Note_on_c, 0, 64, 42
1, 1385059, Control_c, 0, 64, 86
1, 1385104, Control_c, 0, 64, 85
1, 1385119, Control_c, 0, 64, 84
1, 1385134, Control_c, 0, 64, 83
1, 1385149, Control_c, 0, 64, 81
1, 1385163, Control_c, 0, 64, 79
1, 1385178, Control_c, 0, 64, 77
1, 1385193, Note_on_c, 0, 76, 60
1, 1385193, Control_c, 0, 64, 74
1, 1385206, Note_off_c, 0, 64, 38
1, 1385208, Control_c, 0, 64, 70
1, 1385219, Note_on_c, 0, 56, 37
1, 1385223, Control_c, 0, 64, 63
1, 1385238, Control_c, 0, 64, 54
1, 1385252, Control_c, 0, 64, 43
1, 1385267, Control_c, 0, 64, 34
1, 1385282, Control_c, 0, 64, 34
1, 1385296, Control_c, 0, 64, 37
1, 1385311, Control_c, 0, 64, 43
1, 1385326, Note_on_c, 0, 59, 39
1, 1385326, Control_c, 0, 64, 50
1, 1385333, Note_off_c, 0, 56, 49
1, 1385341, Control_c, 0, 64, 58
1, 1385356, Control_c, 0, 64, 64
1, 1385370, Control_c, 0, 64, 69
1, 1385385, Control_c, 0, 64, 72
1, 1385400, Control_c, 0, 64, 75
1, 1385415, Control_c, 0, 64, 77
1, 1385419, Note_off_c, 0, 59, 57
1, 1385430, Control_c, 0, 64, 80
1, 1385432, Note_on_c, 0, 64, 42
1, 1385444, Control_c, 0, 64, 82
1, 1385459, Control_c, 0, 64, 84
1, 1385482, Control_c, 0, 64, 85
1, 1385512, Note_off_c, 0, 64, 54
1, 1385514, Note_on_c, 0, 56, 44
1, 1385562, Note_off_c, 0, 76, 58
1, 1385606, Note_off_c, 0, 56, 57
1, 1385631, Note_on_c, 0, 59, 43
1, 1385658, Control_c, 0, 64, 85
1, 1385673, Control_c, 0, 64, 84
1, 1385688, Note_off_c, 0, 59, 56
1, 1385688, Control_c, 0, 64, 84
1, 1385704, Control_c, 0, 64, 82
1, 1385715, Note_on_c, 0, 64, 42
1, 1385718, Control_c, 0, 64, 81
1, 1385733, Control_c, 0, 64, 80
1, 1385748, Control_c, 0, 64, 79
1, 1385763, Control_c, 0, 64, 77
1, 1385778, Control_c, 0, 64, 74
1, 1385792, Control_c, 0, 64, 71
1, 1385796, Note_off_c, 0, 64, 54
1, 1385806, Note_on_c, 0, 76, 63
1, 1385807, Control_c, 0, 64, 65
1, 1385822, Control_c, 0, 64, 56
1, 1385837, Note_off_c, 0, 76, 64
1, 1385837, Control_c, 0, 64, 39
1, 1385852, Control_c, 0, 64, 0
1, 1385885, Poly_aftertouch_c, 0, 52, 127
1, 1385950, Poly_aftertouch_c, 0, 52, 0
1, 1385958, Note_on_c, 0, 76, 62
1, 1385966, Note_on_c, 0, 59, 30
1, 1385990, Note_off_c, 0, 76, 63
1, 1385999, Note_off_c, 0, 59, 54
1, 1386039, Note_on_c, 0, 62, 37
1, 1386102, Note_off_c, 0, 62, 47
1, 1386109, Note_on_c, 0, 78, 63
1, 1386145, Note_on_c, 0, 52, 36
1, 1386148, Note_off_c, 0, 78, 54
1, 1386258, Note_on_c, 0, 59, 33
1, 1386271, Note_on_c, 0, 80, 59
1, 1386275, Note_off_c, 0, 52, 36
1, 1386317, Note_off_c, 0, 80, 58
1, 1386362, Note_off_c, 0, 59, 39
1, 1386369, Note_on_c, 0, 62, 29
1, 1386484, Note_off_c, 0, 62, 36
1, 1386505, Note_on_c, 0, 81, 51
1, 1386542, Control_c, 0, 64, 33
1, 1386545, Note_on_c, 0, 53, 32
1, 1386557, Control_c, 0, 64, 42
1, 1386572, Control_c, 0, 64, 50
1, 1386587, Control_c, 0, 64, 55
1, 1386602, Control_c, 0, 64, 56
1, 1386617, Control_c, 0, 64, 58
1, 1386631, Control_c, 0, 64, 60
1, 1386646, Control_c, 0, 64, 62
1, 1386661, Control_c, 0, 64, 64
1, 1386675, Control_c, 0, 64, 65
1, 1386684, Note_on_c, 0, 57, 39
1, 1386690, Control_c, 0, 64, 67
1, 1386705, Control_c, 0, 64, 69
1, 1386711, Note_off_c, 0, 53, 33
1, 1386720, Control_c, 0, 64, 71
1, 1386735, Control_c, 0, 64, 74
1, 1386749, Control_c, 0, 64, 77
1, 1386764, Control_c, 0, 64, 80
1, 1386779, Control_c, 0, 64, 84
1, 1386794, Control_c, 0, 64, 89
1, 1386799, Note_off_c, 0, 57, 52
1, 1386809, Control_c, 0, 64, 94
1, 1386818, Note_on_c, 0, 60, 38
1, 1386824, Control_c, 0, 64, 99
1, 1386839, Control_c, 0, 64, 106
1, 1386854, Control_c, 0, 64, 116
1, 1386868, Control_c, 0, 64, 127
1, 1386910, Note_off_c, 0, 60, 54
1, 1386945, Note_on_c, 0, 53, 32
1, 1387002, Note_off_c, 0, 81, 36
1, 1387017, Note_off_c, 0, 53, 56
1, 1387051, Note_on_c, 0, 57, 39
1, 1387107, Note_off_c, 0, 57, 56
1, 1387149, Note_on_c, 0, 60, 33
1, 1387232, Note_off_c, 0, 60, 50
1, 1387252, Note_on_c, 0, 72, 53
1, 1387277, Note_on_c, 0, 53, 26
1, 1387339, Note_off_c, 0, 53, 54
1, 1387369, Note_on_c, 0, 57, 40
1, 1387414, Note_off_c, 0, 72, 56
1, 1387440, Note_off_c, 0, 57, 56
1, 1387468, Note_on_c, 0, 60, 40
1, 1387536, Note_off_c, 0, 60, 55
1, 1387550, Note_on_c, 0, 72, 65
1, 1387579, Note_on_c, 0, 53, 30
1, 1387632, Note_off_c, 0, 53, 58
1, 1387669, Note_on_c, 0, 57, 41
1, 1387698, Note_off_c, 0, 72, 55
1, 1387730, Note_off_c, 0, 57, 58
1, 1387772, Note_on_c, 0, 60, 35
1, 1387921, Note_on_c, 0, 72, 67
1, 1387933, Note_off_c, 0, 60, 28
1, 1387951, Note_on_c, 0, 53, 18
1, 1388019, Note_off_c, 0, 53, 50
1, 1388046, Note_on_c, 0, 57, 40
1, 1388136, Note_off_c, 0, 57, 52
1, 1388175, Note_on_c, 0, 60, 27
1, 1388243, Note_off_c, 0, 60, 51
1, 1388264, Note_on_c, 0, 53, 36
1, 1388311, Note_off_c, 0, 72, 56
1, 1388338, Note_off_c, 0, 53, 56
1, 1388371, Note_on_c, 0, 57, 42
1, 1388421, Note_off_c, 0, 57, 58
1, 1388469, Note_on_c, 0, 60, 33
1, 1388556, Note_on_c, 0, 81, 67
1, 1388589, Note_off_c, 0, 60, 35
1, 1388600, Note_on_c, 0, 53, 37
1, 1388605, Note_on_c, 0, 69, 42
1, 1388669, Note_off_c, 0, 53, 57
1, 1388688, Note_on_c, 0, 57, 46
1, 1388702, Note_off_c, 0, 69, 36
1, 1388714, Note_off_c, 0, 81, 57
1, 1388745, Note_off_c, 0, 57, 56
1, 1388764, Note_on_c, 0, 60, 42
1, 1388842, Note_on_c, 0, 81, 74
1, 1388854, Note_off_c, 0, 60, 58
1, 1388868, Note_on_c, 0, 53, 48
1, 1388881, Note_on_c, 0, 69, 54
1, 1388925, Note_off_c, 0, 53, 59
1, 1388935, Note_on_c, 0, 57, 45
1, 1388946, Note_off_c, 0, 69, 59
1, 1388970, Note_off_c, 0, 81, 62
1, 1388990, Note_off_c, 0, 57, 59
1, 1389028, Note_on_c, 0, 60, 38
1, 1389115, Control_c, 0, 64, 101
1, 1389130, Control_c, 0, 64, 88
1, 1389144, Control_c, 0, 64, 79
1, 1389158, Note_on_c, 0, 82, 65
1, 1389159, Control_c, 0, 64, 70
1, 1389174, Control_c, 0, 64, 60
1, 1389179, Note_off_c, 0, 60, 37
1, 1389189, Control_c, 0, 64, 45
1, 1389194, Note_on_c, 0, 52, 37
1, 1389197, Note_on_c, 0, 70, 42
1, 1389204, Control_c, 0, 64, 0
1, 1389286, Control_c, 0, 64, 35
1, 1389301, Control_c, 0, 64, 49
1, 1389313, Note_on_c, 0, 55, 37
1, 1389316, Control_c, 0, 64, 60
1, 1389317, Note_off_c, 0, 52, 49
1, 1389331, Control_c, 0, 64, 65
1, 1389345, Control_c, 0, 64, 70
1, 1389360, Control_c, 0, 64, 75
1, 1389375, Control_c, 0, 64, 80
1, 1389390, Control_c, 0, 64, 87
1, 1389405, Control_c, 0, 64, 95
1, 1389408, Note_off_c, 0, 55, 53
1, 1389410, Note_on_c, 0, 60, 48
1, 1389419, Control_c, 0, 64, 106
1, 1389434, Control_c, 0, 64, 127
1, 1389490, Note_off_c, 0, 60, 60
1, 1389506, Note_on_c, 0, 52, 35
1, 1389521, Note_off_c, 0, 70, 58
1, 1389554, Note_off_c, 0, 52, 60
1, 1389570, Note_off_c, 0, 82, 38
1, 1389578, Note_on_c, 0, 55, 42
1, 1389647, Note_off_c, 0, 55, 58
1, 1389680, Note_on_c, 0, 60, 40
1, 1389749, Note_off_c, 0, 60, 56
1, 1389754, Note_on_c, 0, 72, 67
1, 1389777, Note_on_c, 0, 52, 46
1, 1389829, Note_off_c, 0, 52, 60
1, 1389866, Note_on_c, 0, 55, 46
1, 1389878, Note_off_c, 0, 72, 57
1, 1389922, Note_off_c, 0, 55, 57
1, 1389969, Note_on_c, 0, 60, 44
1, 1390022, Note_off_c, 0, 60, 59
1, 1390058, Note_on_c, 0, 72, 62
1, 1390063, Note_on_c, 0, 52, 49
1, 1390111, Note_off_c, 0, 52, 61
1, 1390136, Note_off_c, 0, 72, 54
1, 1390147, Note_on_c, 0, 55, 46
1, 1390196, Note_off_c, 0, 55, 60
1, 1390241, Note_on_c, 0, 60, 43
1, 1390328, Note_off_c, 0, 60, 53
1, 1390345, Control_c, 0, 64, 106
1, 1390350, Note_on_c, 0, 72, 66
1, 1390360, Control_c, 0, 64, 82
1, 1390366, Note_on_c, 0, 52, 42
1, 1390374, Control_c, 0, 64, 66
1, 1390389, Control_c, 0, 64, 51
1, 1390404, Control_c, 0, 64, 42
1, 1390423, Note_off_c, 0, 52, 56
1, 1390434, Control_c, 0, 64, 48
1, 1390449, Control_c, 0, 64, 56
1, 1390462, Note_on_c, 0, 55, 41
1, 1390463, Control_c, 0, 64, 62
1, 1390478, Control_c, 0, 64, 67
1, 1390494, Control_c, 0, 64, 72
1, 1390508, Control_c, 0, 64, 79
1, 1390523, Control_c, 0, 64, 87
1, 1390530, Note_off_c, 0, 55, 57
1, 1390537, Note_off_c, 0, 72, 62
1, 1390538, Control_c, 0, 64, 94
1, 1390553, Control_c, 0, 64, 103
1, 1390561, Note_on_c, 0, 60, 43
1, 1390568, Control_c, 0, 64, 123
1, 1390583, Control_c, 0, 64, 127
1, 1390612, Note_off_c, 0, 60, 59
1, 1390636, Note_on_c, 0, 52, 59
1, 1390690, Note_off_c, 0, 52, 55
1, 1390738, Note_on_c, 0, 55, 49
1, 1390789, Note_off_c, 0, 55, 60
1, 1390828, Note_on_c, 0, 60, 50
1, 1390884, Note_on_c, 0, 94, 68
1, 1390891, Note_off_c, 0, 60, 53
1, 1390925, Note_off_c, 0, 94, 58
1, 1390927, Note_on_c, 0, 52, 53
1, 1390946, Note_on_c, 0, 91, 67
1, 1390973, Note_off_c, 0, 91, 67
1, 1390989, Note_off_c, 0, 52, 58
1, 1391006, Note_on_c, 0, 55, 55
1, 1391011, Note_on_c, 0, 88, 60
1, 1391029, Note_off_c, 0, 88, 64
1, 1391092, Note_off_c, 0, 55, 55
1, 1391094, Note_on_c, 0, 82, 74
1, 1391116, Note_on_c, 0, 60, 51
1, 1391161, Note_off_c, 0, 82, 62
1, 1391168, Note_on_c, 0, 79, 75
1, 1391187, Note_off_c, 0, 60, 61
1, 1391201, Note_on_c, 0, 52, 50
1, 1391214, Note_off_c, 0, 79, 62
1, 1391252, Note_on_c, 0, 76, 68
1, 1391266, Note_off_c, 0, 52, 61
1, 1391277, Note_off_c, 0, 76, 68
1, 1391289, Note_on_c, 0, 55, 49
1, 1391324, Note_off_c, 0, 55, 63
1, 1391347, Note_on_c, 0, 70, 55
1, 1391361, Control_c, 0, 64, 123
1, 1391375, Note_on_c, 0, 60, 43
1, 1391376, Control_c, 0, 64, 111
1, 1391391, Control_c, 0, 64, 105
1, 1391405, Control_c, 0, 64, 99
1, 1391408, Note_off_c, 0, 70, 51
1, 1391420, Control_c, 0, 64, 94
1, 1391435, Control_c, 0, 64, 87
1, 1391450, Control_c, 0, 64, 81
1, 1391472, Control_c, 0, 64, 72
1, 1391477, Note_off_c, 0, 60, 50
1, 1391487, Control_c, 0, 64, 62
1, 1391502, Control_c, 0, 64, 48
1, 1391505, Note_on_c, 0, 69, 69
1, 1391517, Control_c, 0, 64, 0
1, 1391522, Note_on_c, 0, 53, 41
1, 1391624, Note_on_c, 0, 57, 48
1, 1391635, Control_c, 0, 64, 37
1, 1391641, Note_off_c, 0, 53, 51
1, 1391650, Control_c, 0, 64, 53
1, 1391664, Control_c, 0, 64, 64
1, 1391679, Control_c, 0, 64, 71
1, 1391694, Control_c, 0, 64, 77
1, 1391709, Control_c, 0, 64, 82
1, 1391710, Note_off_c, 0, 57, 59
1, 1391714, Note_on_c, 0, 60, 48
1, 1391724, Control_c, 0, 64, 88
1, 1391738, Control_c, 0, 64, 96
1, 1391753, Control_c, 0, 64, 104
1, 1391768, Control_c, 0, 64, 116
1, 1391772, Note_off_c, 0, 69, 60
1, 1391783, Control_c, 0, 64, 127
1, 1391797, Note_off_c, 0, 60, 61
1, 1391810, Note_on_c, 0, 53, 47
1, 1391827, Control_c, 0, 67, 88
1, 1391842, Control_c, 0, 67, 41
1, 1391857, Control_c, 0, 67, 0
1, 1391874, Note_off_c, 0, 53, 59
1, 1391893, Note_on_c, 0, 57, 54
1, 1391942, Note_off_c, 0, 57, 60
1, 1391990, Note_on_c, 0, 60, 46
1, 1392047, Note_off_c, 0, 60, 52
1, 1392077, Note_on_c, 0, 72, 68
1, 1392097, Note_on_c, 0, 53, 43
1, 1392148, Note_off_c, 0, 53, 58
1, 1392178, Note_on_c, 0, 57, 52
1, 1392213, Note_off_c, 0, 72, 61
1, 1392235, Note_off_c, 0, 57, 58
1, 1392279, Note_on_c, 0, 60, 44
1, 1392336, Note_off_c, 0, 60, 53
1, 1392366, Note_on_c, 0, 72, 76
1, 1392388, Note_on_c, 0, 53, 43
1, 1392433, Note_off_c, 0, 53, 61
1, 1392449, Note_off_c, 0, 72, 58
1, 1392464, Note_on_c, 0, 57, 51
1, 1392524, Note_off_c, 0, 57, 58
1, 1392553, Note_on_c, 0, 60, 47
1, 1392660, Note_off_c, 0, 60, 50
1, 1392678, Note_on_c, 0, 72, 58
1, 1392693, Control_c, 0, 64, 97
1, 1392699, Note_on_c, 0, 53, 40
1, 1392708, Control_c, 0, 64, 76
1, 1392723, Control_c, 0, 64, 63
1, 1392738, Control_c, 0, 64, 52
1, 1392753, Control_c, 0, 64, 46
1, 1392768, Control_c, 0, 64, 47
1, 1392783, Control_c, 0, 64, 52
1, 1392797, Note_on_c, 0, 57, 42
1, 1392798, Control_c, 0, 64, 58
1, 1392801, Note_off_c, 0, 53, 43
1, 1392812, Control_c, 0, 64, 63
1, 1392827, Control_c, 0, 64, 67
1, 1392842, Control_c, 0, 64, 73
1, 1392857, Control_c, 0, 64, 78
1, 1392872, Control_c, 0, 64, 82
1, 1392878, Note_off_c, 0, 57, 57
1, 1392887, Control_c, 0, 64, 84
1, 1392895, Note_on_c, 0, 60, 45
1, 1392902, Control_c, 0, 64, 87
1, 1392917, Control_c, 0, 64, 91
1, 1392932, Control_c, 0, 64, 94
1, 1392947, Control_c, 0, 64, 97
1, 1392973, Note_off_c, 0, 60, 56
1, 1392973, Note_off_c, 0, 72, 62
1, 1392984, Control_c, 0, 64, 100
1, 1392993, Note_on_c, 0, 53, 45
1, 1393049, Note_off_c, 0, 53, 59
1, 1393073, Note_on_c, 0, 57, 51
1, 1393073, Control_c, 0, 67, 38
1, 1393088, Control_c, 0, 67, 47
1, 1393103, Control_c, 0, 67, 50
1, 1393117, Control_c, 0, 67, 51
1, 1393122, Note_off_c, 0, 57, 58
1, 1393132, Control_c, 0, 67, 52
1, 1393147, Control_c, 0, 67, 53
1, 1393154, Note_on_c, 0, 60, 48
1, 1393162, Control_c, 0, 67, 59
1, 1393177, Control_c, 0, 67, 73
1, 1393191, Control_c, 0, 67, 84
1, 1393206, Control_c, 0, 67, 87
1, 1393236, Control_c, 0, 67, 87
1, 1393251, Control_c, 0, 67, 88
1, 1393259, Note_off_c, 0, 60, 58
1, 1393266, Control_c, 0, 64, 98
1, 1393266, Control_c, 0, 67, 89
1, 1393266, Note_on_c, 0, 81, 64
1, 1393271, Note_on_c, 0, 53, 52
1, 1393273, Note_on_c, 0, 69, 59
1, 1393280, Control_c, 0, 64, 85
1, 1393280, Control_c, 0, 67, 90
1, 1393295, Control_c, 0, 64, 70
1, 1393295, Control_c, 0, 67, 90
1, 1393306, Note_off_c, 0, 69, 63
1, 1393310, Control_c, 0, 64, 56
1, 1393310, Control_c, 0, 67, 91
1, 1393313, Note_off_c, 0, 81, 59
1, 1393325, Control_c, 0, 64, 54
1, 1393325, Control_c, 0, 67, 95
1, 1393340, Control_c, 0, 64, 57
1, 1393340, Control_c, 0, 67, 101
1, 1393355, Control_c, 0, 64, 62
1, 1393364, Note_off_c, 0, 53, 56
1, 1393370, Control_c, 0, 64, 68
1, 1393373, Note_on_c, 0, 57, 46
1, 1393384, Control_c, 0, 64, 79
1, 1393399, Control_c, 0, 64, 92
1, 1393403, Note_on_c, 0, 81, 83
1, 1393407, Note_on_c, 0, 69, 74
1, 1393414, Control_c, 0, 64, 104
1, 1393429, Note_off_c, 0, 57, 57
1, 1393429, Control_c, 0, 64, 111
1, 1393429, Control_c, 0, 67, 99
1, 1393437, Note_off_c, 0, 69, 61
1, 1393443, Control_c, 0, 64, 127
1, 1393449, Note_on_c, 0, 60, 50
1, 1393449, Note_off_c, 0, 81, 65
1, 1393473, Control_c, 0, 67, 97
1, 1393503, Control_c, 0, 67, 95
1, 1393517, Control_c, 0, 67, 95
1, 1393532, Control_c, 0, 67, 94
1, 1393538, Note_on_c, 0, 81, 85
1, 1393543, Note_on_c, 0, 69, 77
1, 1393543, Note_off_c, 0, 60, 58
1, 1393546, Note_on_c, 0, 53, 54
1, 1393562, Control_c, 0, 67, 94
1, 1393577, Control_c, 0, 67, 93
1, 1393579, Note_off_c, 0, 69, 57
1, 1393587, Note_off_c, 0, 81, 63
1, 1393634, Note_on_c, 0, 57, 56
1, 1393638, Note_off_c, 0, 53, 60
1, 1393650, Control_c, 0, 67, 93
1, 1393666, Note_on_c, 0, 81, 86
1, 1393672, Note_on_c, 0, 69, 76
1, 1393681, Control_c, 0, 67, 92
1, 1393682, Note_off_c, 0, 57, 61
1, 1393696, Control_c, 0, 67, 93
1, 1393719, Note_off_c, 0, 69, 56
1, 1393722, Note_off_c, 0, 81, 63
1, 1393731, Note_on_c, 0, 60, 50
1, 1393734, Control_c, 0, 67, 93
1, 1393808, Control_c, 0, 64, 111
1, 1393808, Control_c, 0, 67, 94
1, 1393822, Control_c, 0, 64, 94
1, 1393837, Control_c, 0, 64, 76
1, 1393837, Control_c, 0, 67, 94
1, 1393850, Note_off_c, 0, 60, 55
1, 1393852, Control_c, 0, 64, 60
1, 1393852, Control_c, 0, 67, 95
1, 1393857, Note_on_c, 0, 82, 76
1, 1393863, Note_on_c, 0, 70, 68
1, 1393866, Control_c, 0, 64, 32
1, 1393881, Control_c, 0, 64, 0
1, 1393883, Note_on_c, 0, 52, 44
1, 1393926, Control_c, 0, 67, 95
1, 1393940, Control_c, 0, 64, 30
1, 1393942, Note_off_c, 0, 52, 61
1, 1393955, Control_c, 0, 64, 47
1, 1393957, Note_on_c, 0, 55, 52
1, 1393970, Control_c, 0, 64, 61
1, 1393985, Control_c, 0, 64, 68
1, 1394000, Control_c, 0, 64, 74
1, 1394014, Control_c, 0, 64, 80
1, 1394029, Control_c, 0, 64, 86
1, 1394041, Note_off_c, 0, 55, 60
1, 1394044, Control_c, 0, 64, 98
1, 1394056, Note_on_c, 0, 60, 55
1, 1394058, Control_c, 0, 64, 114
1, 1394073, Control_c, 0, 64, 127
1, 1394097, Note_off_c, 0, 82, 61
1, 1394118, Control_c, 0, 67, 95
1, 1394129, Note_off_c, 0, 70, 63
1, 1394132, Note_off_c, 0, 60, 61
1, 1394133, Control_c, 0, 67, 94
1, 1394148, Note_on_c, 0, 52, 62
1, 1394163, Control_c, 0, 67, 94
1, 1394178, Control_c, 0, 67, 93
1, 1394207, Note_off_c, 0, 52, 59
1, 1394222, Control_c, 0, 67, 93
1, 1394229, Note_on_c, 0, 55, 56
1, 1394266, Control_c, 0, 67, 92
1, 1394278, Note_off_c, 0, 55, 62
1, 1394296, Control_c, 0, 67, 91
1, 1394309, Note_on_c, 0, 60, 55
1, 1394340, Control_c, 0, 67, 91
1, 1394370, Control_c, 0, 67, 90
1, 1394397, Note_off_c, 0, 60, 54
1, 1394399, Control_c, 0, 67, 90
1, 1394412, Note_on_c, 0, 74, 68
1, 1394414, Control_c, 0, 64, 114
1, 1394429, Control_c, 0, 64, 79
1, 1394429, Control_c, 0, 67, 89
1, 1394433, Note_on_c, 0, 52, 55
1, 1394444, Control_c, 0, 64, 60
1, 1394447, Note_on_c, 0, 72, 70
1, 1394466, Control_c, 0, 64, 31
1, 1394466, Control_c, 0, 67, 88
1, 1394481, Control_c, 0, 64, 0
1, 1394481, Control_c, 0, 67, 87
1, 1394497, Control_c, 0, 67, 87
1, 1394512, Note_off_c, 0, 74, 53
1, 1394512, Control_c, 0, 67, 86
1, 1394515, Note_off_c, 0, 52, 61
1, 1394526, Control_c, 0, 67, 85
1, 1394533, Note_on_c, 0, 55, 49
1, 1394541, Control_c, 0, 64, 42
1, 1394541, Control_c, 0, 67, 84
1, 1394556, Control_c, 0, 64, 57
1, 1394556, Control_c, 0, 67, 84
1, 1394571, Control_c, 0, 64, 65
1, 1394571, Control_c, 0, 67, 83
1, 1394580, Note_on_c, 0, 71, 82
1, 1394581, Note_off_c, 0, 72, 61
1, 1394586, Control_c, 0, 64, 71
1, 1394586, Control_c, 0, 67, 83
1, 1394587, Note_off_c, 0, 55, 58
1, 1394601, Control_c, 0, 64, 75
1, 1394601, Control_c, 0, 67, 82
1, 1394616, Control_c, 0, 64, 79
1, 1394616, Control_c, 0, 67, 82
1, 1394619, Note_on_c, 0, 60, 57
1, 1394631, Control_c, 0, 64, 84
1, 1394645, Control_c, 0, 64, 91
1, 1394660, Control_c, 0, 64, 98
1, 1394675, Control_c, 0, 64, 105
1, 1394675, Control_c, 0, 67, 82
1, 1394689, Control_c, 0, 64, 112
1, 1394689, Control_c, 0, 67, 83
1, 1394693, Note_off_c, 0, 60, 60
1, 1394704, Control_c, 0, 64, 120
1, 1394704, Control_c, 0, 67, 83
1, 1394710, Note_on_c, 0, 72, 82
1, 1394719, Control_c, 0, 64, 127
1, 1394719, Control_c, 0, 67, 84
1, 1394721, Note_on_c, 0, 52, 57
1, 1394734, Control_c, 0, 67, 84
1, 1394746, Note_off_c, 0, 71, 60
1, 1394749, Control_c, 0, 67, 86
1, 1394763, Control_c, 0, 67, 87
1, 1394778, Note_off_c, 0, 52, 59
1, 1394778, Control_c, 0, 67, 88
1, 1394793, Control_c, 0, 67, 89
1, 1394798, Note_on_c, 0, 55, 53
1, 1394807, Control_c, 0, 67, 90
1, 1394822, Control_c, 0, 67, 91
1, 1394830, Note_on_c, 0, 74, 86
1, 1394837, Control_c, 0, 67, 92
1, 1394848, Note_off_c, 0, 72, 60
1, 1394852, Control_c, 0, 67, 93
1, 1394863, Note_off_c, 0, 55, 60
1, 1394867, Control_c, 0, 67, 93
1, 1394877, Note_off_c, 0, 74, 64
1, 1394881, Control_c, 0, 67, 94
1, 1394884, Note_on_c, 0, 60, 54
1, 1394956, Control_c, 0, 64, 108
1, 1394971, Control_c, 0, 64, 96
1, 1394985, Control_c, 0, 64, 85
1, 1395000, Control_c, 0, 64, 73
1, 1395006, Note_off_c, 0, 60, 46
1, 1395015, Control_c, 0, 64, 61
1, 1395022, Note_on_c, 0, 52, 47
1, 1395024, Note_on_c, 0, 74, 72
1, 1395030, Control_c, 0, 64, 42
1, 1395045, Control_c, 0, 64, 0
1, 1395110, Note_off_c, 0, 52, 60
1, 1395126, Note_on_c, 0, 55, 48
1, 1395134, Control_c, 0, 64, 27
1, 1395134, Control_c, 0, 67, 93
1, 1395148, Control_c, 0, 64, 47
1, 1395163, Control_c, 0, 64, 59
1, 1395163, Control_c, 0, 67, 93
1, 1395178, Control_c, 0, 64, 64
1, 1395178, Control_c, 0, 67, 91
1, 1395193, Control_c, 0, 64, 67
1, 1395193, Control_c, 0, 67, 91
1, 1395194, Note_off_c, 0, 55, 56
1, 1395215, Control_c, 0, 64, 70
1, 1395215, Control_c, 0, 67, 90
1, 1395226, Note_on_c, 0, 60, 47
1, 1395230, Control_c, 0, 64, 74
1, 1395230, Control_c, 0, 67, 90
1, 1395245, Control_c, 0, 64, 79
1, 1395245, Control_c, 0, 67, 88
1, 1395260, Control_c, 0, 64, 85
1, 1395260, Control_c, 0, 67, 87
1, 1395275, Control_c, 0, 64, 91
1, 1395275, Control_c, 0, 67, 86
1, 1395277, Note_off_c, 0, 60, 60
1, 1395290, Control_c, 0, 64, 99
1, 1395290, Control_c, 0, 67, 85
1, 1395298, Note_off_c, 0, 74, 62
1, 1395304, Note_on_c, 0, 72, 51
1, 1395305, Control_c, 0, 64, 112
1, 1395305, Control_c, 0, 67, 84
1, 1395319, Control_c, 0, 64, 127
1, 1395319, Control_c, 0, 67, 83
1, 1395320, Note_on_c, 0, 52, 57
1, 1395331, Note_off_c, 0, 72, 64
1, 1395334, Control_c, 0, 67, 81
1, 1395349, Control_c, 0, 67, 79
1, 1395364, Control_c, 0, 67, 78
1, 1395379, Control_c, 0, 67, 78
1, 1395380, Note_off_c, 0, 52, 55
1, 1395394, Control_c, 0, 67, 77
1, 1395413, Note_on_c, 0, 55, 55
1, 1395424, Control_c, 0, 67, 78
1, 1395438, Control_c, 0, 67, 78
1, 1395453, Control_c, 0, 67, 79
1, 1395462, Note_off_c, 0, 55, 62
1, 1395468, Control_c, 0, 67, 79
1, 1395483, Control_c, 0, 67, 81
1, 1395498, Control_c, 0, 67, 83
1, 1395504, Note_on_c, 0, 60, 55
1, 1395512, Control_c, 0, 67, 84
1, 1395527, Control_c, 0, 67, 87
1, 1395542, Control_c, 0, 67, 88
1, 1395557, Control_c, 0, 64, 98
1, 1395557, Control_c, 0, 67, 89
1, 1395561, Note_off_c, 0, 60, 48
1, 1395572, Control_c, 0, 64, 69
1, 1395572, Control_c, 0, 67, 90
1, 1395586, Control_c, 0, 64, 47
1, 1395586, Control_c, 0, 67, 91
1, 1395600, Note_on_c, 0, 94, 64
1, 1395601, Control_c, 0, 64, 0
1, 1395601, Control_c, 0, 67, 91
1, 1395608, Note_on_c, 0, 52, 57
1, 1395630, Control_c, 0, 64, 37
1, 1395645, Control_c, 0, 64, 57
1, 1395648, Note_on_c, 0, 91, 69
1, 1395656, Note_off_c, 0, 94, 64
1, 1395660, Control_c, 0, 64, 70
1, 1395675, Control_c, 0, 64, 80
1, 1395686, Note_off_c, 0, 52, 60
1, 1395690, Note_off_c, 0, 91, 65
1, 1395690, Control_c, 0, 64, 91
1, 1395694, Note_on_c, 0, 55, 60
1, 1395704, Control_c, 0, 64, 102
1, 1395719, Control_c, 0, 64, 127
1, 1395732, Note_on_c, 0, 88, 56
1, 1395751, Note_off_c, 0, 55, 58
1, 1395754, Note_off_c, 0, 88, 61
1, 1395778, Control_c, 0, 67, 92
1, 1395786, Note_on_c, 0, 60, 54
1, 1395804, Note_on_c, 0, 82, 80
1, 1395823, Control_c, 0, 67, 93
1, 1395861, Note_off_c, 0, 60, 61
1, 1395868, Control_c, 0, 67, 93
1, 1395870, Note_on_c, 0, 52, 54
1, 1395882, Note_on_c, 0, 79, 75
1, 1395886, Note_off_c, 0, 82, 62
1, 1395898, Control_c, 0, 67, 94
1, 1395927, Note_off_c, 0, 79, 66
1, 1395947, Note_on_c, 0, 55, 57
1, 1395947, Note_off_c, 0, 52, 59
1, 1395975, Note_on_c, 0, 76, 71
1, 1395978, Control_c, 0, 67, 94
1, 1395998, Note_off_c, 0, 76, 69
1, 1396005, Note_off_c, 0, 55, 62
1, 1396044, Note_on_c, 0, 60, 51
1, 1396048, Note_on_c, 0, 70, 73
1, 1396053, Control_c, 0, 67, 94
1, 1396068, Control_c, 0, 64, 103
1, 1396083, Control_c, 0, 64, 92
1, 1396098, Control_c, 0, 64, 85
1, 1396113, Control_c, 0, 64, 79
1, 1396113, Control_c, 0, 67, 94
1, 1396128, Control_c, 0, 64, 70
1, 1396128, Control_c, 0, 67, 95
1, 1396139, Note_off_c, 0, 60, 51
1, 1396142, Control_c, 0, 64, 58
1, 1396142, Control_c, 0, 67, 95
1, 1396151, Note_off_c, 0, 70, 60
1, 1396157, Control_c, 0, 64, 29
1, 1396172, Note_on_c, 0, 69, 76
1, 1396172, Control_c, 0, 64, 0
1, 1396184, Note_on_c, 0, 53, 48
1, 1396187, Control_c, 0, 67, 94
1, 1396202, Control_c, 0, 67, 92
1, 1396217, Control_c, 0, 67, 88
1, 1396232, Control_c, 0, 67, 85
1, 1396246, Control_c, 0, 67, 83
1, 1396261, Control_c, 0, 64, 31
1, 1396261, Control_c, 0, 67, 80
1, 1396271, Note_off_c, 0, 53, 57
1, 1396276, Control_c, 0, 64, 51
1, 1396276, Control_c, 0, 67, 77
1, 1396277, Note_on_c, 0, 57, 52
1, 1396291, Control_c, 0, 64, 63
1, 1396291, Control_c, 0, 67, 71
1, 1396306, Control_c, 0, 64, 69
1, 1396306, Control_c, 0, 67, 54
1, 1396321, Control_c, 0, 64, 77
1, 1396321, Control_c, 0, 67, 0
1, 1396324, Note_off_c, 0, 69, 63
1, 1396335, Control_c, 0, 64, 90
1, 1396350, Control_c, 0, 64, 108
1, 1396359, Note_off_c, 0, 57, 60
1, 1396363, Note_on_c, 0, 60, 56
1, 1396365, Control_c, 0, 64, 127
1, 1396431, Note_off_c, 0, 60, 60
1, 1396449, Note_on_c, 0, 53, 58
1, 1396521, Note_off_c, 0, 53, 61
1, 1396522, Note_on_c, 0, 57, 59
1, 1396562, Note_on_c, 0, 93, 82
1, 1396573, Note_off_c, 0, 57, 59
1, 1396604, Note_on_c, 0, 60, 53
1, 1396619, Note_off_c, 0, 93, 61
1, 1396691, Control_c, 0, 64, 91
1, 1396705, Note_off_c, 0, 60, 58
1, 1396713, Control_c, 0, 64, 65
1, 1396724, Note_on_c, 0, 94, 80
1, 1396727, Note_on_c, 0, 52, 58
1, 1396728, Control_c, 0, 64, 43
1, 1396742, Control_c, 0, 64, 41
1, 1396757, Control_c, 0, 64, 54
1, 1396772, Control_c, 0, 64, 65
1, 1396778, Note_off_c, 0, 94, 64
1, 1396781, Note_on_c, 0, 91, 82
1, 1396786, Control_c, 0, 64, 82
1, 1396801, Control_c, 0, 64, 127
1, 1396805, Note_off_c, 0, 52, 61
1, 1396813, Note_on_c, 0, 55, 65
1, 1396824, Note_off_c, 0, 91, 67
1, 1396851, Note_on_c, 0, 88, 74
1, 1396870, Note_off_c, 0, 88, 73
1, 1396898, Note_off_c, 0, 55, 57
1, 1396913, Note_on_c, 0, 60, 62
1, 1396931, Note_on_c, 0, 82, 83
1, 1397003, Note_off_c, 0, 60, 60
1, 1397007, Note_on_c, 0, 52, 60
1, 1397009, Note_on_c, 0, 79, 83
1, 1397015, Note_off_c, 0, 82, 63
1, 1397062, Note_off_c, 0, 79, 66
1, 1397082, Note_on_c, 0, 55, 64
1, 1397090, Note_off_c, 0, 52, 60
1, 1397096, Note_on_c, 0, 76, 76
1, 1397123, Note_off_c, 0, 76, 64
1, 1397147, Note_off_c, 0, 55, 61
1, 1397173, Note_on_c, 0, 70, 80
1, 1397179, Note_on_c, 0, 60, 59
1, 1397252, Note_off_c, 0, 70, 64
1, 1397262, Control_c, 0, 64, 79
1, 1397266, Note_off_c, 0, 60, 61
1, 1397276, Control_c, 0, 64, 53
1, 1397281, Note_on_c, 0, 69, 88
1, 1397291, Control_c, 0, 64, 0
1, 1397293, Note_on_c, 0, 53, 65
1, 1397365, Control_c, 0, 64, 43
1, 1397380, Control_c, 0, 64, 60
1, 1397393, Note_on_c, 0, 57, 65
1, 1397395, Control_c, 0, 64, 72
1, 1397397, Note_off_c, 0, 53, 60
1, 1397409, Control_c, 0, 64, 84
1, 1397424, Control_c, 0, 64, 98
1, 1397439, Control_c, 0, 64, 126
1, 1397440, Note_off_c, 0, 69, 63
1, 1397481, Note_on_c, 0, 60, 66
1, 1397481, Note_off_c, 0, 57, 60
1, 1397561, Note_off_c, 0, 60, 61
1, 1397573, Note_on_c, 0, 53, 76
1, 1397646, Note_on_c, 0, 57, 72
1, 1397661, Note_off_c, 0, 53, 62
1, 1397702, Note_on_c, 0, 93, 89
1, 1397716, Note_off_c, 0, 57, 62
1, 1397722, Note_on_c, 0, 60, 71
1, 1397765, Note_off_c, 0, 93, 64
1, 1397818, Control_c, 0, 64, 105
1, 1397826, Note_off_c, 0, 60, 60
1, 1397832, Control_c, 0, 64, 66
1, 1397840, Note_on_c, 0, 52, 80
1, 1397847, Control_c, 0, 64, 0
1, 1397848, Note_on_c, 0, 94, 91
1, 1397892, Control_c, 0, 64, 43
1, 1397907, Control_c, 0, 64, 67
1, 1397910, Note_off_c, 0, 94, 65
1, 1397911, Note_on_c, 0, 91, 83
1, 1397921, Note_on_c, 0, 55, 77
1, 1397922, Control_c, 0, 64, 85
1, 1397925, Note_off_c, 0, 52, 61
1, 1397937, Control_c, 0, 64, 127
1, 1397957, Note_off_c, 0, 91, 67
1, 1397973, Note_on_c, 0, 88, 78
1, 1397999, Note_off_c, 0, 55, 62
1, 1398004, Note_off_c, 0, 88, 63
1, 1398017, Note_on_c, 0, 60, 71
1, 1398066, Note_on_c, 0, 82, 84
1, 1398111, Note_on_c, 0, 52, 72
1, 1398115, Note_off_c, 0, 60, 62
1, 1398144, Note_on_c, 0, 79, 80
1, 1398153, Note_off_c, 0, 82, 62
1, 1398196, Note_off_c, 0, 79, 65
1, 1398207, Note_on_c, 0, 55, 67
1, 1398213, Note_off_c, 0, 52, 61
1, 1398238, Note_on_c, 0, 76, 75
1, 1398263, Note_off_c, 0, 76, 67
1, 1398267, Note_off_c, 0, 55, 61
1, 1398301, Note_on_c, 0, 60, 61
1, 1398329, Note_on_c, 0, 70, 71
1, 1398375, Note_off_c, 0, 60, 55
1, 1398418, Control_c, 0, 64, 78
1, 1398432, Control_c, 0, 64, 56
1, 1398437, Note_on_c, 0, 53, 56
1, 1398447, Control_c, 0, 64, 0
1, 1398449, Note_off_c, 0, 70, 62
1, 1398449, Note_on_c, 0, 69, 64
1, 1398508, Control_c, 0, 64, 41
1, 1398523, Control_c, 0, 64, 60
1, 1398526, Note_off_c, 0, 53, 62
1, 1398528, Note_on_c, 0, 57, 61
1, 1398537, Control_c, 0, 64, 69
1, 1398552, Control_c, 0, 64, 77
1, 1398567, Control_c, 0, 64, 88
1, 1398582, Control_c, 0, 64, 104
1, 1398587, Note_off_c, 0, 69, 59
1, 1398597, Note_off_c, 0, 57, 59
1, 1398597, Control_c, 0, 64, 127
1, 1398616, Note_on_c, 0, 60, 51
1, 1398641, Control_c, 0, 64, 93
1, 1398655, Control_c, 0, 64, 76
1, 1398670, Control_c, 0, 64, 72
1, 1398685, Control_c, 0, 64, 75
1, 1398700, Control_c, 0, 64, 84
1, 1398709, Note_off_c, 0, 60, 53
1, 1398715, Control_c, 0, 64, 104
1, 1398718, Note_on_c, 0, 81, 74
1, 1398729, Note_on_c, 0, 53, 56
1, 1398730, Control_c, 0, 64, 127
1, 1398768, Note_off_c, 0, 81, 64
1, 1398803, Note_on_c, 0, 57, 59
1, 1398807, Note_off_c, 0, 53, 57
1, 1398809, Note_on_c, 0, 69, 71
1, 1398857, Note_off_c, 0, 69, 58
1, 1398860, Note_off_c, 0, 57, 53
1, 1398896, Note_on_c, 0, 60, 50
1, 1398899, Note_on_c, 0, 81, 71
1, 1398937, Control_c, 0, 64, 112
1, 1398959, Control_c, 0, 64, 75
1, 1398962, Note_off_c, 0, 60, 52
1, 1398966, Note_off_c, 0, 81, 62
1, 1398974, Control_c, 0, 64, 55
1, 1398989, Control_c, 0, 64, 41
1, 1399001, Note_on_c, 0, 52, 63
1, 1399002, Note_on_c, 0, 82, 73
1, 1399004, Control_c, 0, 64, 48
1, 1399019, Control_c, 0, 64, 60
1, 1399034, Control_c, 0, 64, 72
1, 1399049, Control_c, 0, 64, 88
1, 1399063, Control_c, 0, 64, 110
1, 1399066, Note_off_c, 0, 82, 61
1, 1399078, Control_c, 0, 64, 127
1, 1399080, Note_off_c, 0, 52, 60
1, 1399091, Note_on_c, 0, 55, 58
1, 1399093, Note_on_c, 0, 70, 74
1, 1399158, Note_off_c, 0, 70, 61
1, 1399175, Note_off_c, 0, 55, 59
1, 1399176, Note_on_c, 0, 82, 72
1, 1399179, Note_on_c, 0, 60, 61
1, 1399235, Note_off_c, 0, 60, 61
1, 1399256, Control_c, 0, 64, 82
1, 1399262, Note_off_c, 0, 82, 56
1, 1399271, Control_c, 0, 64, 61
1, 1399276, Note_on_c, 0, 52, 71
1, 1399276, Note_on_c, 0, 83, 79
1, 1399287, Control_c, 0, 64, 48
1, 1399302, Control_c, 0, 64, 53
1, 1399317, Control_c, 0, 64, 62
1, 1399332, Control_c, 0, 64, 73
1, 1399335, Note_off_c, 0, 83, 63
1, 1399347, Control_c, 0, 64, 93
1, 1399359, Note_off_c, 0, 52, 62
1, 1399361, Note_on_c, 0, 55, 72
1, 1399361, Control_c, 0, 64, 127
1, 1399366, Note_on_c, 0, 71, 81
1, 1399409, Note_off_c, 0, 71, 61
1, 1399436, Note_off_c, 0, 55, 61
1, 1399450, Note_on_c, 0, 83, 75
1, 1399456, Note_on_c, 0, 59, 64
1, 1399509, Control_c, 0, 64, 102
1, 1399520, Note_off_c, 0, 59, 62
1, 1399524, Control_c, 0, 64, 67
1, 1399527, Note_off_c, 0, 83, 60
1, 1399538, Note_on_c, 0, 52, 73
1, 1399539, Control_c, 0, 64, 42
1, 1399543, Note_on_c, 0, 84, 84
1, 1399553, Control_c, 0, 64, 46
1, 1399568, Control_c, 0, 64, 60
1, 1399583, Control_c, 0, 64, 74
1, 1399597, Control_c, 0, 64, 114
1, 1399605, Note_off_c, 0, 84, 62
1, 1399612, Control_c, 0, 64, 127
1, 1399615, Note_off_c, 0, 52, 63
1, 1399622, Note_on_c, 0, 72, 84
1, 1399628, Note_on_c, 0, 55, 71
1, 1399686, Note_off_c, 0, 72, 62
1, 1399717, Note_on_c, 0, 84, 87
1, 1399718, Note_on_c, 0, 58, 75
1, 1399723, Note_off_c, 0, 55, 58
1, 1399782, Note_off_c, 0, 58, 62
1, 1399784, Note_off_c, 0, 84, 61
1, 1399797, Control_c, 0, 64, 72
1, 1399809, Note_on_c, 0, 85, 84
1, 1399810, Note_on_c, 0, 52, 78
1, 1399812, Control_c, 0, 64, 48
1, 1399827, Control_c, 0, 64, 44
1, 1399842, Control_c, 0, 64, 60
1, 1399857, Control_c, 0, 64, 73
1, 1399872, Control_c, 0, 64, 113
1, 1399886, Note_off_c, 0, 85, 65
1, 1399886, Control_c, 0, 64, 127
1, 1399889, Note_on_c, 0, 55, 73
1, 1399897, Note_on_c, 0, 73, 85
1, 1399907, Note_off_c, 0, 52, 61
1, 1399967, Note_off_c, 0, 73, 60
1, 1399970, Note_off_c, 0, 55, 60
1, 1399974, Note_on_c, 0, 57, 71
1, 1399979, Note_on_c, 0, 85, 83
1, 1400017, Note_off_c, 0, 57, 62
1, 1400035, Control_c, 0, 64, 94
1, 1400050, Control_c, 0, 64, 59
1, 1400056, Note_off_c, 0, 85, 58
1, 1400065, Control_c, 0, 64, 28
1, 1400073, Note_on_c, 0, 53, 81
1, 1400077, Note_on_c, 0, 86, 82
1, 1400080, Control_c, 0, 64, 37
1, 1400095, Control_c, 0, 64, 57
1, 1400110, Control_c, 0, 64, 73
1, 1400125, Control_c, 0, 64, 110
1, 1400139, Control_c, 0, 64, 127
1, 1400140, Note_off_c, 0, 86, 63
1, 1400149, Note_on_c, 0, 57, 81
1, 1400157, Note_off_c, 0, 53, 62
1, 1400163, Note_on_c, 0, 74, 87
1, 1400221, Note_off_c, 0, 57, 63
1, 1400223, Note_off_c, 0, 74, 62
1, 1400242, Note_on_c, 0, 86, 85
1, 1400246, Note_on_c, 0, 62, 75
1, 1400317, Control_c, 0, 64, 78
1, 1400319, Note_off_c, 0, 62, 59
1, 1400328, Note_on_c, 0, 54, 83
1, 1400332, Control_c, 0, 64, 49
1, 1400339, Note_on_c, 0, 87, 87
1, 1400347, Control_c, 0, 64, 0
1, 1400361, Note_off_c, 0, 86, 32
1, 1400362, Control_c, 0, 64, 34
1, 1400376, Control_c, 0, 64, 56
1, 1400391, Control_c, 0, 64, 70
1, 1400406, Control_c, 0, 64, 81
1, 1400414, Note_on_c, 0, 57, 76
1, 1400420, Control_c, 0, 64, 91
1, 1400422, Note_off_c, 0, 87, 63
1, 1400423, Note_on_c, 0, 75, 89
1, 1400435, Control_c, 0, 64, 97
1, 1400451, Note_off_c, 0, 54, 61
1, 1400458, Control_c, 0, 64, 116
1, 1400473, Control_c, 0, 64, 127
1, 1400500, Note_off_c, 0, 57, 64
1, 1400506, Note_off_c, 0, 75, 58
1, 1400509, Note_on_c, 0, 60, 75
1, 1400515, Note_on_c, 0, 87, 99
1, 1400551, Note_off_c, 0, 60, 60
1, 1400584, Note_off_c, 0, 87, 63
1, 1400649, Control_c, 0, 64, 108
1, 1400664, Control_c, 0, 64, 74
1, 1400679, Control_c, 0, 64, 44
1, 1400694, Control_c, 0, 64, 0
1, 1400701, Note_on_c, 0, 88, 95
1, 1400703, Note_on_c, 0, 61, 91
1, 1400703, Note_on_c, 0, 57, 71
1, 1400708, Note_on_c, 0, 52, 74
1, 1400783, Control_c, 0, 64, 47
1, 1400788, Note_on_c, 0, 85, 82
1, 1400798, Control_c, 0, 64, 64
1, 1400813, Control_c, 0, 64, 73
1, 1400820, Note_off_c, 0, 88, 65
1, 1400827, Control_c, 0, 64, 84
1, 1400842, Control_c, 0, 64, 97
1, 1400857, Control_c, 0, 64, 117
1, 1400864, Note_on_c, 0, 81, 80
1, 1400873, Control_c, 0, 64, 127
1, 1400898, Note_off_c, 0, 85, 64
1, 1400929, Note_off_c, 0, 81, 67
1, 1400952, Note_on_c, 0, 76, 82
1, 1400956, Note_off_c, 0, 52, 61
1, 1400956, Note_off_c, 0, 61, 61
1, 1400962, Control_c, 0, 67, 33
1, 1400964, Note_off_c, 0, 57, 61
1, 1400977, Control_c, 0, 67, 34
1, 1400992, Note_off_c, 0, 76, 64
1, 1401006, Control_c, 0, 67, 35
1, 1401048, Note_on_c, 0, 73, 81
1, 1401117, Note_off_c, 0, 73, 63
1, 1401124, Control_c, 0, 67, 34
1, 1401127, Note_on_c, 0, 69, 86
1, 1401154, Control_c, 0, 67, 35
1, 1401168, Control_c, 0, 64, 106
1, 1401168, Control_c, 0, 67, 35
1, 1401183, Control_c, 0, 64, 81
1, 1401183, Control_c, 0, 67, 38
1, 1401189, Note_off_c, 0, 69, 59
1, 1401206, Control_c, 0, 64, 58
1, 1401206, Control_c, 0, 67, 52
1, 1401221, Control_c, 0, 64, 0
1, 1401221, Control_c, 0, 67, 72
1, 1401236, Control_c, 0, 67, 83
1, 1401237, Note_on_c, 0, 64, 87
1, 1401244, Note_on_c, 0, 76, 77
1, 1401250, Control_c, 0, 67, 87
1, 1401265, Control_c, 0, 64, 31
1, 1401265, Control_c, 0, 67, 88
1, 1401280, Control_c, 0, 64, 55
1, 1401295, Control_c, 0, 64, 68
1, 1401310, Control_c, 0, 64, 75
1, 1401310, Control_c, 0, 67, 87
1, 1401320, Note_on_c, 0, 61, 80
1, 1401324, Control_c, 0, 64, 81
1, 1401328, Note_on_c, 0, 73, 84
1, 1401335, Note_off_c, 0, 64, 59
1, 1401339, Control_c, 0, 64, 85
1, 1401339, Control_c, 0, 67, 87
1, 1401348, Note_off_c, 0, 76, 61
1, 1401354, Control_c, 0, 64, 88
1, 1401354, Control_c, 0, 67, 86
1, 1401369, Control_c, 0, 64, 92
1, 1401383, Control_c, 0, 64, 97
1, 1401387, Note_off_c, 0, 61, 63
1, 1401394, Note_on_c, 0, 57, 78
1, 1401398, Control_c, 0, 64, 101
1, 1401411, Note_on_c, 0, 69, 82
1, 1401413, Control_c, 0, 64, 103
1, 1401421, Note_off_c, 0, 73, 63
1, 1401427, Note_off_c, 0, 57, 66
1, 1401443, Control_c, 0, 67, 87
1, 1401457, Control_c, 0, 64, 106
1, 1401469, Note_off_c, 0, 69, 62
1, 1401487, Control_c, 0, 67, 87
1, 1401493, Note_on_c, 0, 52, 81
1, 1401497, Note_on_c, 0, 64, 72
1, 1401529, Note_off_c, 0, 64, 66
1, 1401532, Control_c, 0, 67, 88
1, 1401565, Poly_aftertouch_c, 0, 65, 127
1, 1401573, Note_on_c, 0, 49, 85
1, 1401576, Control_c, 0, 67, 87
1, 1401588, Note_on_c, 0, 61, 76
1, 1401594, Note_off_c, 0, 52, 60
1, 1401594, Poly_aftertouch_c, 0, 65, 0
1, 1401636, Control_c, 0, 64, 101
1, 1401636, Control_c, 0, 67, 88
1, 1401650, Control_c, 0, 64, 83
1, 1401664, Note_on_c, 0, 45, 77
1, 1401665, Control_c, 0, 64, 65
1, 1401665, Control_c, 0, 67, 88
1, 1401672, Note_on_c, 0, 57, 82
1, 1401676, Note_off_c, 0, 49, 65
1, 1401680, Note_off_c, 0, 61, 65
1, 1401681, Control_c, 0, 64, 43
1, 1401696, Control_c, 0, 64, 0
1, 1401696, Control_c, 0, 67, 87
1, 1401710, Control_c, 0, 67, 84
1, 1401725, Control_c, 0, 64, 33
1, 1401725, Control_c, 0, 67, 77
1, 1401740, Control_c, 0, 64, 49
1, 1401740, Control_c, 0, 67, 66
1, 1401749, Note_off_c, 0, 57, 64
1, 1401755, Control_c, 0, 64, 65
1, 1401755, Control_c, 0, 67, 48
1, 1401762, Note_on_c, 0, 40, 91
1, 1401770, Control_c, 0, 64, 84
1, 1401770, Control_c, 0, 67, 0
1, 1401774, Note_on_c, 0, 52, 90
1, 1401785, Control_c, 0, 64, 127
1, 1401786, Note_off_c, 0, 45, 63
1, 1401804, Note_off_c, 0, 52, 66
1, 1401807, Note_off_c, 0, 40, 65
1, 1401918, Control_c, 0, 64, 105
1, 1401933, Control_c, 0, 64, 82
1, 1401955, Control_c, 0, 64, 67
1, 1401970, Control_c, 0, 64, 54
1, 1401985, Control_c, 0, 64, 36
1, 1401999, Control_c, 0, 64, 0
1, 1402203, Note_on_c, 0, 73, 88
1, 1402211, Note_on_c, 0, 69, 73
1, 1402217, Note_on_c, 0, 52, 68
1, 1402220, Note_on_c, 0, 57, 62
1, 1402223, Note_on_c, 0, 61, 66
1, 1402223, Note_on_c, 0, 64, 74
1, 1402429, Control_c, 0, 64, 32
1, 1402444, Control_c, 0, 64, 47
1, 1402459, Control_c, 0, 64, 58
1, 1402474, Control_c, 0, 64, 64
1, 1402488, Control_c, 0, 64, 67
1, 1402503, Control_c, 0, 64, 70
1, 1402518, Control_c, 0, 64, 74
1, 1402533, Control_c, 0, 64, 79
1, 1402548, Control_c, 0, 64, 84
1, 1402563, Control_c, 0, 64, 88
1, 1402569, Note_off_c, 0, 61, 62
1, 1402570, Note_off_c, 0, 57, 63
1, 1402578, Note_off_c, 0, 64, 63
1, 1402578, Control_c, 0, 64, 91
1, 1402585, Note_off_c, 0, 52, 59
1, 1402593, Control_c, 0, 64, 95
1, 1402597, Note_off_c, 0, 69, 62
1, 1402605, Note_off_c, 0, 73, 57
1, 1402608, Control_c, 0, 64, 98
1, 1402637, Control_c, 0, 64, 100
1, 1402793, Control_c, 0, 64, 97
1, 1402808, Control_c, 0, 64, 95
1, 1402822, Control_c, 0, 64, 92
1, 1402837, Control_c, 0, 64, 88
1, 1402852, Control_c, 0, 64, 83
1, 1402867, Control_c, 0, 64, 77
1, 1402882, Control_c, 0, 64, 67
1, 1402897, Control_c, 0, 64, 51
1, 1402898, Note_on_c, 0, 71, 64
1, 1402906, Note_on_c, 0, 68, 55
1, 1402912, Control_c, 0, 64, 0
1, 1402915, Note_on_c, 0, 64, 54
1, 1402918, Note_on_c, 0, 52, 51
1, 1402919, Note_on_c, 0, 59, 52
1, 1402921, Note_on_c, 0, 56, 44
1, 1402971, Control_c, 0, 64, 44
1, 1402986, Control_c, 0, 64, 63
1, 1403001, Control_c, 0, 64, 75
1, 1403013, Note_off_c, 0, 56, 63
1, 1403016, Control_c, 0, 64, 87
1, 1403018, Note_off_c, 0, 59, 64
1, 1403022, Note_off_c, 0, 68, 62
1, 1403024, Note_off_c, 0, 71, 62
1, 1403030, Control_c, 0, 64, 94
1, 1403034, Note_off_c, 0, 52, 62
1, 1403045, Control_c, 0, 64, 100
1, 1403060, Control_c, 0, 64, 107
1, 1403075, Control_c, 0, 64, 117
1, 1403083, Note_off_c, 0, 64, 62
1, 1403090, Control_c, 0, 64, 127
1, 1403252, Control_c, 0, 64, 118
1, 1403268, Control_c, 0, 64, 89
1, 1403283, Control_c, 0, 64, 69
1, 1403292, Note_on_c, 0, 69, 54
1, 1403298, Control_c, 0, 64, 49
1, 1403302, Note_on_c, 0, 57, 40
1, 1403308, Note_on_c, 0, 45, 38
1, 1403311, Note_on_c, 0, 52, 41
1, 1403312, Control_c, 0, 64, 0
1, 1403342, Note_off_c, 0, 69, 60
1, 1403357, Control_c, 0, 64, 44
1, 1403368, Note_on_c, 0, 64, 59
1, 1403371, Control_c, 0, 64, 58
1, 1403386, Control_c, 0, 64, 64
1, 1403401, Control_c, 0, 64, 67
1, 1403416, Control_c, 0, 64, 70
1, 1403416, Control_c, 0, 67, 39
1, 1403431, Control_c, 0, 64, 73
1, 1403431, Control_c, 0, 67, 50
1, 1403445, Note_off_c, 0, 64, 63
1, 1403453, Control_c, 0, 64, 77
1, 1403453, Control_c, 0, 67, 58
1, 1403463, Note_on_c, 0, 61, 65
1, 1403468, Control_c, 0, 64, 79
1, 1403468, Control_c, 0, 67, 63
1, 1403483, Control_c, 0, 64, 82
1, 1403483, Control_c, 0, 67, 67
1, 1403485, Note_off_c, 0, 45, 62
1, 1403491, Note_off_c, 0, 52, 63
1, 1403491, Note_off_c, 0, 57, 64
1, 1403498, Control_c, 0, 64, 85
1, 1403498, Control_c, 0, 67, 71
1, 1403513, Control_c, 0, 64, 87
1, 1403513, Control_c, 0, 67, 77
1, 1403520, Note_off_c, 0, 61, 61
1, 1403527, Control_c, 0, 64, 88
1, 1403527, Control_c, 0, 67, 85
1, 1403542, Control_c, 0, 67, 91
1, 1403550, Note_on_c, 0, 64, 73
1, 1403557, Control_c, 0, 67, 93
1, 1403571, Control_c, 0, 67, 94
1, 1403585, Note_off_c, 0, 64, 61
1, 1403639, Note_on_c, 0, 69, 68
1, 1403645, Control_c, 0, 67, 93
1, 1403684, Note_off_c, 0, 69, 56
1, 1403705, Control_c, 0, 64, 88
1, 1403705, Control_c, 0, 67, 93
1, 1403718, Note_on_c, 0, 73, 65
1, 1403720, Control_c, 0, 64, 87
1, 1403734, Control_c, 0, 64, 84
1, 1403749, Control_c, 0, 64, 77
1, 1403764, Control_c, 0, 64, 67
1, 1403779, Control_c, 0, 64, 52
1, 1403794, Control_c, 0, 64, 31
1, 1403799, Note_off_c, 0, 73, 62
1, 1403809, Control_c, 0, 64, 0
1, 1403818, Note_on_c, 0, 76, 72
1, 1403824, Control_c, 0, 64, 36
1, 1403827, Note_on_c, 0, 57, 58
1, 1403834, Note_on_c, 0, 64, 60
1, 1403839, Control_c, 0, 64, 49
1, 1403841, Note_on_c, 0, 61, 55
1, 1403853, Control_c, 0, 64, 60
1, 1403868, Control_c, 0, 64, 66
1, 1403883, Control_c, 0, 64, 71
1, 1403883, Control_c, 0, 67, 92
1, 1403898, Control_c, 0, 64, 75
1, 1403904, Note_off_c, 0, 76, 62
1, 1403913, Control_c, 0, 64, 78
1, 1403913, Control_c, 0, 67, 91
1, 1403913, Note_on_c, 0, 73, 69
1, 1403922, Note_off_c, 0, 61, 60
1, 1403922, Note_off_c, 0, 64, 62
1, 1403927, Control_c, 0, 64, 82
1, 1403928, Note_off_c, 0, 57, 57
1, 1403942, Control_c, 0, 64, 86
1, 1403957, Control_c, 0, 64, 93
1, 1403971, Control_c, 0, 64, 96
1, 1403973, Note_off_c, 0, 73, 62
1, 1403986, Control_c, 0, 67, 92
1, 1404001, Control_c, 0, 64, 91
1, 1404008, Note_on_c, 0, 69, 70
1, 1404016, Control_c, 0, 64, 82
1, 1404031, Control_c, 0, 64, 75
1, 1404031, Control_c, 0, 67, 93
1, 1404045, Control_c, 0, 64, 74
1, 1404046, Note_off_c, 0, 69, 56
1, 1404076, Control_c, 0, 67, 93
1, 1404091, Control_c, 0, 64, 75
1, 1404091, Control_c, 0, 67, 94
1, 1404106, Control_c, 0, 64, 75
1, 1404106, Control_c, 0, 67, 95
1, 1404107, Note_on_c, 0, 76, 66
1, 1404119, Note_on_c, 0, 61, 48
1, 1404119, Note_on_c, 0, 64, 52
1, 1404121, Control_c, 0, 64, 76
1, 1404126, Note_on_c, 0, 57, 47
1, 1404136, Control_c, 0, 67, 95
1, 1404157, Note_off_c, 0, 61, 63
1, 1404158, Note_off_c, 0, 64, 62
1, 1404171, Note_off_c, 0, 57, 59
1, 1404181, Note_off_c, 0, 76, 63
1, 1404199, Note_on_c, 0, 73, 65
1, 1404217, Control_c, 0, 67, 97
1, 1404275, Control_c, 0, 64, 76
1, 1404283, Note_off_c, 0, 73, 59
1, 1404290, Control_c, 0, 64, 75
1, 1404303, Note_on_c, 0, 69, 59
1, 1404305, Control_c, 0, 64, 74
1, 1404320, Control_c, 0, 64, 73
1, 1404335, Control_c, 0, 64, 72
1, 1404349, Control_c, 0, 64, 71
1, 1404364, Control_c, 0, 64, 70
1, 1404379, Control_c, 0, 64, 69
1, 1404393, Control_c, 0, 64, 68
1, 1404408, Control_c, 0, 64, 67
1, 1404423, Control_c, 0, 64, 66
1, 1404438, Control_c, 0, 64, 65
1, 1404448, Note_on_c, 0, 62, 55
1, 1404453, Note_on_c, 0, 68, 51
1, 1404453, Control_c, 0, 64, 64
1, 1404464, Note_on_c, 0, 64, 44
1, 1404468, Control_c, 0, 64, 63
1, 1404468, Note_on_c, 0, 57, 44
1, 1404472, Note_off_c, 0, 69, 38
1, 1404483, Control_c, 0, 64, 62
1, 1404498, Control_c, 0, 64, 60
1, 1404512, Control_c, 0, 64, 58
1, 1404527, Control_c, 0, 64, 55
1, 1404537, Note_off_c, 0, 68, 62
1, 1404542, Control_c, 0, 64, 49
1, 1404556, Note_on_c, 0, 71, 56
1, 1404557, Control_c, 0, 64, 39
1, 1404572, Control_c, 0, 64, 0
1, 1404614, Note_off_c, 0, 71, 57
1, 1404617, Control_c, 0, 67, 95
1, 1404632, Control_c, 0, 67, 95
1, 1404640, Note_on_c, 0, 76, 62
1, 1404647, Control_c, 0, 64, 31
1, 1404662, Control_c, 0, 64, 44
1, 1404676, Control_c, 0, 64, 56
1, 1404676, Control_c, 0, 67, 94
1, 1404691, Control_c, 0, 64, 63
1, 1404702, Note_off_c, 0, 76, 61
1, 1404706, Control_c, 0, 64, 67
1, 1404720, Control_c, 0, 64, 69
1, 1404720, Control_c, 0, 67, 94
1, 1404733, Note_on_c, 0, 68, 62
1, 1404735, Control_c, 0, 64, 73
1, 1404750, Control_c, 0, 64, 77
1, 1404750, Control_c, 0, 67, 93
1, 1404765, Control_c, 0, 64, 81
1, 1404780, Control_c, 0, 64, 84
1, 1404780, Control_c, 0, 67, 93
1, 1404794, Control_c, 0, 64, 87
1, 1404794, Control_c, 0, 67, 92
1, 1404809, Note_off_c, 0, 64, 62
1, 1404809, Control_c, 0, 64, 90
1, 1404817, Note_off_c, 0, 57, 56
1, 1404819, Note_on_c, 0, 71, 68
1, 1404819, Note_off_c, 0, 68, 61
1, 1404822, Note_off_c, 0, 62, 62
1, 1404824, Control_c, 0, 64, 91
1, 1404824, Control_c, 0, 67, 91
1, 1404839, Control_c, 0, 64, 93
1, 1404839, Control_c, 0, 67, 90
1, 1404854, Control_c, 0, 64, 95
1, 1404870, Control_c, 0, 64, 101
1, 1404870, Control_c, 0, 67, 90
1, 1404880, Note_off_c, 0, 71, 63
1, 1404885, Control_c, 0, 64, 109
1, 1404900, Note_on_c, 0, 76, 66
1, 1404914, Control_c, 0, 64, 103
1, 1404929, Control_c, 0, 64, 86
1, 1404932, Note_off_c, 0, 76, 64
1, 1404951, Control_c, 0, 64, 66
1, 1404966, Control_c, 0, 64, 50
1, 1404966, Control_c, 0, 67, 89
1, 1404980, Control_c, 0, 64, 31
1, 1404980, Control_c, 0, 67, 87
1, 1404995, Control_c, 0, 64, 0
1, 1404995, Control_c, 0, 67, 83
1, 1405002, Note_on_c, 0, 76, 66
1, 1405006, Note_on_c, 0, 57, 56
1, 1405010, Note_on_c, 0, 64, 59
1, 1405010, Control_c, 0, 64, 30
1, 1405010, Control_c, 0, 67, 78
1, 1405010, Note_on_c, 0, 62, 58
1, 1405024, Control_c, 0, 64, 43
1, 1405024, Control_c, 0, 67, 71
1, 1405039, Control_c, 0, 64, 54
1, 1405039, Control_c, 0, 67, 60
1, 1405054, Control_c, 0, 64, 63
1, 1405054, Control_c, 0, 67, 33
1, 1405069, Control_c, 0, 64, 69
1, 1405069, Control_c, 0, 67, 0
1, 1405071, Note_off_c, 0, 76, 56
1, 1405084, Control_c, 0, 64, 74
1, 1405090, Note_on_c, 0, 80, 71
1, 1405098, Control_c, 0, 64, 78
1, 1405113, Control_c, 0, 64, 82
1, 1405128, Control_c, 0, 64, 87
1, 1405139, Note_off_c, 0, 62, 57
1, 1405141, Note_off_c, 0, 64, 58
1, 1405142, Control_c, 0, 64, 93
1, 1405153, Note_off_c, 0, 57, 61
1, 1405156, Note_off_c, 0, 80, 63
1, 1405157, Control_c, 0, 64, 98
1, 1405172, Control_c, 0, 64, 100
1, 1405177, Note_on_c, 0, 83, 72
1, 1405187, Control_c, 0, 64, 102
1, 1405202, Control_c, 0, 64, 106
1, 1405216, Note_off_c, 0, 83, 62
1, 1405216, Control_c, 0, 64, 109
1, 1405231, Control_c, 0, 64, 114
1, 1405246, Control_c, 0, 64, 117
1, 1405261, Control_c, 0, 64, 121
1, 1405272, Note_on_c, 0, 88, 79
1, 1405276, Control_c, 0, 64, 126
1, 1405285, Note_on_c, 0, 64, 60
1, 1405293, Note_on_c, 0, 62, 49
1, 1405299, Note_on_c, 0, 57, 52
1, 1405367, Note_off_c, 0, 62, 50
1, 1405371, Note_on_c, 0, 92, 79
1, 1405382, Note_off_c, 0, 64, 54
1, 1405407, Note_off_c, 0, 57, 56
1, 1405418, Note_off_c, 0, 88, 53
1, 1405460, Note_on_c, 0, 95, 77
1, 1405463, Note_off_c, 0, 92, 64
1, 1405554, Note_off_c, 0, 95, 64
1, 1405557, Note_on_c, 0, 93, 76
1, 1405557, Control_c, 0, 64, 95
1, 1405565, Note_on_c, 0, 64, 57
1, 1405568, Note_on_c, 0, 57, 52
1, 1405572, Control_c, 0, 64, 75
1, 1405575, Note_on_c, 0, 61, 54
1, 1405587, Control_c, 0, 64, 60
1, 1405602, Control_c, 0, 64, 45
1, 1405612, Note_off_c, 0, 93, 63
1, 1405616, Control_c, 0, 64, 42
1, 1405631, Control_c, 0, 64, 48
1, 1405646, Control_c, 0, 64, 58
1, 1405658, Note_on_c, 0, 88, 67
1, 1405662, Control_c, 0, 64, 63
1, 1405677, Control_c, 0, 64, 69
1, 1405695, Note_off_c, 0, 88, 64
1, 1405699, Control_c, 0, 64, 75
1, 1405714, Control_c, 0, 64, 80
1, 1405729, Control_c, 0, 64, 82
1, 1405744, Control_c, 0, 64, 83
1, 1405758, Note_on_c, 0, 85, 73
1, 1405759, Control_c, 0, 64, 84
1, 1405759, Control_c, 0, 67, 36
1, 1405773, Control_c, 0, 64, 85
1, 1405773, Control_c, 0, 67, 43
1, 1405788, Control_c, 0, 64, 86
1, 1405788, Control_c, 0, 67, 48
1, 1405803, Control_c, 0, 64, 87
1, 1405803, Control_c, 0, 67, 52
1, 1405818, Control_c, 0, 64, 87
1, 1405818, Control_c, 0, 67, 54
1, 1405832, Note_off_c, 0, 85, 64
1, 1405833, Control_c, 0, 64, 88
1, 1405833, Control_c, 0, 67, 57
1, 1405840, Note_on_c, 0, 81, 72
1, 1405848, Control_c, 0, 64, 88
1, 1405848, Control_c, 0, 67, 61
1, 1405863, Control_c, 0, 67, 67
1, 1405878, Control_c, 0, 64, 89
1, 1405878, Control_c, 0, 67, 69
1, 1405881, Note_off_c, 0, 81, 61
1, 1405893, Control_c, 0, 64, 89
1, 1405893, Control_c, 0, 67, 70
1, 1405922, Control_c, 0, 64, 90
1, 1405922, Note_off_c, 0, 64, 62
1, 1405928, Note_on_c, 0, 76, 70
1, 1405934, Note_off_c, 0, 57, 62
1, 1405934, Note_off_c, 0, 61, 63
1, 1405952, Control_c, 0, 64, 90
1, 1405952, Control_c, 0, 67, 69
1, 1405953, Note_off_c, 0, 76, 66
1, 1405996, Control_c, 0, 67, 69
1, 1406011, Control_c, 0, 64, 91
1, 1406011, Control_c, 0, 67, 68
1, 1406020, Note_on_c, 0, 73, 60
1, 1406070, Control_c, 0, 64, 91
1, 1406090, Note_off_c, 0, 73, 57
1, 1406119, Note_on_c, 0, 76, 69
1, 1406129, Control_c, 0, 64, 87
1, 1406144, Control_c, 0, 64, 74
1, 1406156, Note_on_c, 0, 64, 57
1, 1406159, Control_c, 0, 64, 60
1, 1406162, Note_on_c, 0, 57, 51
1, 1406163, Note_on_c, 0, 61, 47
1, 1406173, Control_c, 0, 64, 37
1, 1406187, Note_off_c, 0, 76, 61
1, 1406188, Control_c, 0, 64, 0
1, 1406209, Note_on_c, 0, 73, 66
1, 1406218, Control_c, 0, 64, 34
1, 1406218, Control_c, 0, 67, 68
1, 1406233, Control_c, 0, 64, 50
1, 1406247, Control_c, 0, 64, 63
1, 1406262, Control_c, 0, 64, 70
1, 1406262, Control_c, 0, 67, 67
1, 1406277, Control_c, 0, 64, 78
1, 1406277, Control_c, 0, 67, 67
1, 1406283, Note_off_c, 0, 64, 59
1, 1406288, Note_off_c, 0, 73, 61
1, 1406292, Control_c, 0, 64, 83
1, 1406292, Control_c, 0, 67, 66
1, 1406295, Note_off_c, 0, 61, 61
1, 1406297, Note_off_c, 0, 57, 59
1, 1406307, Control_c, 0, 64, 87
1, 1406307, Control_c, 0, 67, 65
1, 1406312, Note_on_c, 0, 69, 66
1, 1406322, Control_c, 0, 64, 93
1, 1406322, Control_c, 0, 67, 65
1, 1406337, Control_c, 0, 64, 97
1, 1406337, Control_c, 0, 67, 64
1, 1406352, Control_c, 0, 64, 101
1, 1406365, Note_off_c, 0, 69, 59
1, 1406366, Control_c, 0, 64, 106
1, 1406381, Control_c, 0, 64, 109
1, 1406381, Control_c, 0, 67, 64
1, 1406411, Control_c, 0, 67, 63
1, 1406413, Note_on_c, 0, 76, 73
1, 1406433, Note_on_c, 0, 61, 60
1, 1406447, Note_on_c, 0, 64, 62
1, 1406449, Note_on_c, 0, 57, 58
1, 1406482, Note_off_c, 0, 64, 63
1, 1406486, Note_off_c, 0, 61, 62
1, 1406502, Note_off_c, 0, 76, 63
1, 1406506, Note_off_c, 0, 57, 60
1, 1406510, Note_on_c, 0, 73, 70
1, 1406593, Note_off_c, 0, 73, 59
1, 1406613, Note_on_c, 0, 69, 66
1, 1406715, Control_c, 0, 64, 103
1, 1406719, Note_on_c, 0, 68, 65
1, 1406722, Note_off_c, 0, 69, 55
1, 1406725, Note_on_c, 0, 62, 69
1, 1406729, Note_on_c, 0, 64, 67
1, 1406730, Control_c, 0, 64, 92
1, 1406744, Control_c, 0, 64, 77
1, 1406745, Note_on_c, 0, 57, 54
1, 1406759, Control_c, 0, 64, 63
1, 1406774, Control_c, 0, 64, 45
1, 1406788, Control_c, 0, 64, 0
1, 1406802, Note_off_c, 0, 68, 61
1, 1406823, Note_on_c, 0, 71, 64
1, 1406833, Control_c, 0, 64, 29
1, 1406848, Control_c, 0, 64, 43
1, 1406862, Control_c, 0, 64, 56
1, 1406877, Control_c, 0, 64, 65
1, 1406883, Note_off_c, 0, 71, 61
1, 1406892, Control_c, 0, 64, 69
1, 1406892, Control_c, 0, 67, 63
1, 1406896, Note_on_c, 0, 76, 66
1, 1406907, Control_c, 0, 64, 73
1, 1406921, Control_c, 0, 64, 77
1, 1406921, Control_c, 0, 67, 62
1, 1406936, Control_c, 0, 64, 82
1, 1406951, Control_c, 0, 64, 87
1, 1406962, Note_off_c, 0, 76, 60
1, 1406966, Control_c, 0, 64, 93
1, 1406966, Control_c, 0, 67, 61
1, 1406981, Control_c, 0, 64, 99
1, 1406996, Control_c, 0, 64, 106
1, 1406998, Note_on_c, 0, 68, 65
1, 1407010, Control_c, 0, 64, 115
1, 1407025, Control_c, 0, 64, 127
1, 1407079, Note_off_c, 0, 62, 60
1, 1407090, Note_on_c, 0, 71, 66
1, 1407091, Note_off_c, 0, 57, 59
1, 1407091, Note_off_c, 0, 64, 61
1, 1407094, Note_off_c, 0, 68, 60
1, 1407151, Note_off_c, 0, 71, 62
1, 1407168, Note_on_c, 0, 76, 64
1, 1407195, Control_c, 0, 67, 62
1, 1407205, Note_off_c, 0, 76, 66
1, 1407240, Control_c, 0, 64, 92
1, 1407240, Control_c, 0, 67, 61
1, 1407255, Control_c, 0, 64, 70
1, 1407255, Control_c, 0, 67, 59
1, 1407271, Note_on_c, 0, 76, 70
1, 1407271, Control_c, 0, 64, 51
1, 1407271, Control_c, 0, 67, 52
1, 1407286, Control_c, 0, 64, 0
1, 1407286, Control_c, 0, 67, 42
1, 1407287, Note_on_c, 0, 64, 63
1, 1407288, Note_on_c, 0, 57, 57
1, 1407294, Note_on_c, 0, 62, 57
1, 1407300, Control_c, 0, 67, 0
1, 1407315, Control_c, 0, 64, 33
1, 1407330, Control_c, 0, 64, 49
1, 1407338, Note_off_c, 0, 76, 58
1, 1407344, Control_c, 0, 64, 62
1, 1407359, Note_on_c, 0, 80, 70
1, 1407359, Control_c, 0, 64, 70
1, 1407374, Control_c, 0, 64, 78
1, 1407389, Control_c, 0, 64, 85
1, 1407404, Note_off_c, 0, 62, 58
1, 1407404, Control_c, 0, 64, 90
1, 1407406, Note_off_c, 0, 64, 60
1, 1407416, Note_off_c, 0, 57, 60
1, 1407419, Control_c, 0, 64, 98
1, 1407425, Note_off_c, 0, 80, 63
1, 1407434, Control_c, 0, 64, 108
1, 1407441, Note_on_c, 0, 83, 77
1, 1407449, Control_c, 0, 64, 127
1, 1407484, Note_off_c, 0, 83, 65
1, 1407537, Note_on_c, 0, 88, 83
1, 1407538, Note_on_c, 0, 64, 65
1, 1407543, Note_on_c, 0, 62, 56
1, 1407545, Note_on_c, 0, 57, 60
1, 1407583, Note_off_c, 0, 62, 61
1, 1407595, Note_off_c, 0, 64, 60
1, 1407614, Note_off_c, 0, 57, 53
1, 1407627, Note_on_c, 0, 92, 78
1, 1407675, Note_off_c, 0, 88, 59
1, 1407716, Note_on_c, 0, 95, 76
1, 1407716, Note_off_c, 0, 92, 65
1, 1407789, Control_c, 0, 64, 103
1, 1407800, Note_off_c, 0, 95, 66
1, 1407804, Control_c, 0, 64, 67
1, 1407810, Note_on_c, 0, 93, 82
1, 1407817, Note_on_c, 0, 64, 66
1, 1407818, Control_c, 0, 64, 41
1, 1407820, Note_on_c, 0, 57, 63
1, 1407822, Note_on_c, 0, 61, 61
1, 1407833, Control_c, 0, 64, 0
1, 1407866, Note_off_c, 0, 93, 64
1, 1407878, Control_c, 0, 64, 27
1, 1407893, Control_c, 0, 64, 46
1, 1407906, Note_on_c, 0, 88, 73
1, 1407908, Control_c, 0, 64, 60
1, 1407923, Control_c, 0, 64, 66
1, 1407944, Control_c, 0, 64, 71
1, 1407946, Note_off_c, 0, 88, 63
1, 1407959, Control_c, 0, 64, 76
1, 1407974, Control_c, 0, 64, 81
1, 1407989, Control_c, 0, 64, 87
1, 1408004, Control_c, 0, 64, 94
1, 1408009, Note_on_c, 0, 85, 78
1, 1408018, Control_c, 0, 64, 100
1, 1408033, Control_c, 0, 64, 108
1, 1408048, Control_c, 0, 64, 121
1, 1408064, Control_c, 0, 64, 127
1, 1408090, Note_off_c, 0, 85, 63
1, 1408096, Note_on_c, 0, 81, 77
1, 1408139, Note_off_c, 0, 64, 64
1, 1408143, Note_off_c, 0, 61, 63
1, 1408143, Note_off_c, 0, 81, 65
1, 1408146, Note_off_c, 0, 57, 63
1, 1408179, Note_on_c, 0, 76, 75
1, 1408261, Note_off_c, 0, 76, 59
1, 1408275, Note_on_c, 0, 73, 63
1, 1408320, Note_off_c, 0, 73, 60
1, 1408331, Control_c, 0, 64, 123
1, 1408346, Control_c, 0, 64, 80
1, 1408360, Control_c, 0, 64, 57
1, 1408372, Note_on_c, 0, 76, 80
1, 1408375, Control_c, 0, 64, 0
1, 1408390, Note_on_c, 0, 57, 75
1, 1408390, Note_on_c, 0, 64, 79
1, 1408394, Note_on_c, 0, 62, 71
1, 1408420, Control_c, 0, 64, 39
1, 1408434, Control_c, 0, 64, 59
1, 1408449, Control_c, 0, 64, 70
1, 1408459, Note_off_c, 0, 76, 62
1, 1408461, Note_on_c, 0, 80, 75
1, 1408464, Control_c, 0, 64, 81
1, 1408479, Control_c, 0, 64, 90
1, 1408494, Control_c, 0, 64, 97
1, 1408497, Note_off_c, 0, 62, 57
1, 1408504, Note_off_c, 0, 64, 59
1, 1408508, Control_c, 0, 64, 108
1, 1408516, Note_off_c, 0, 57, 60
1, 1408523, Control_c, 0, 64, 126
1, 1408551, Note_off_c, 0, 80, 62
1, 1408552, Note_on_c, 0, 83, 80
1, 1408597, Note_off_c, 0, 83, 64
1, 1408652, Note_on_c, 0, 88, 91
1, 1408657, Note_on_c, 0, 62, 72
1, 1408657, Note_on_c, 0, 64, 77
1, 1408662, Note_on_c, 0, 57, 71
1, 1408727, Note_off_c, 0, 62, 58
1, 1408748, Note_off_c, 0, 64, 49
1, 1408751, Note_on_c, 0, 92, 88
1, 1408766, Note_off_c, 0, 57, 55
1, 1408820, Note_off_c, 0, 88, 49
1, 1408836, Note_on_c, 0, 95, 87
1, 1408844, Note_off_c, 0, 92, 66
1, 1408933, Control_c, 0, 64, 71
1, 1408936, Note_on_c, 0, 93, 92
1, 1408938, Note_on_c, 0, 61, 79
1, 1408938, Note_on_c, 0, 64, 89
1, 1408939, Note_off_c, 0, 95, 66
1, 1408942, Note_on_c, 0, 57, 79
1, 1408947, Control_c, 0, 64, 41
1, 1408962, Control_c, 0, 64, 0
1, 1408997, Note_off_c, 0, 93, 64
1, 1409021, Control_c, 0, 64, 52
1, 1409033, Note_on_c, 0, 88, 77
1, 1409036, Control_c, 0, 64, 64
1, 1409051, Control_c, 0, 64, 72
1, 1409065, Control_c, 0, 64, 80
1, 1409068, Note_off_c, 0, 88, 66
1, 1409080, Control_c, 0, 64, 87
1, 1409095, Control_c, 0, 64, 95
1, 1409110, Control_c, 0, 64, 107
1, 1409125, Control_c, 0, 64, 127
1, 1409128, Note_on_c, 0, 85, 80
1, 1409209, Note_off_c, 0, 85, 64
1, 1409212, Note_on_c, 0, 81, 76
1, 1409258, Note_off_c, 0, 61, 62
1, 1409258, Note_off_c, 0, 64, 63
1, 1409261, Note_off_c, 0, 81, 65
1, 1409272, Note_off_c, 0, 57, 63
1, 1409302, Note_on_c, 0, 76, 76
1, 1409366, Note_off_c, 0, 76, 52
1, 1409443, Control_c, 0, 64, 91
1, 1409454, Note_on_c, 0, 74, 22
1, 1409458, Control_c, 0, 64, 62
1, 1409473, Control_c, 0, 64, 0
1, 1409478, Note_off_c, 0, 74, 46
1, 1409501, Note_on_c, 0, 64, 89
1, 1409505, Note_on_c, 0, 76, 83
1, 1409505, Note_on_c, 0, 57, 83
1, 1409508, Note_on_c, 0, 62, 79
1, 1409517, Control_c, 0, 64, 31
1, 1409532, Control_c, 0, 64, 56
1, 1409547, Control_c, 0, 64, 74
1, 1409562, Control_c, 0, 64, 93
1, 1409577, Control_c, 0, 64, 127
1, 1409580, Note_off_c, 0, 76, 61
1, 1409581, Note_on_c, 0, 80, 79
1, 1409607, Note_off_c, 0, 62, 59
1, 1409619, Note_off_c, 0, 64, 59
1, 1409634, Note_off_c, 0, 57, 60
1, 1409663, Note_off_c, 0, 80, 62
1, 1409669, Note_on_c, 0, 83, 80
1, 1409710, Note_off_c, 0, 83, 64
1, 1409762, Note_on_c, 0, 88, 92
1, 1409771, Note_on_c, 0, 64, 79
1, 1409772, Note_on_c, 0, 62, 74
1, 1409776, Note_on_c, 0, 57, 70
1, 1409845, Note_off_c, 0, 62, 52
1, 1409852, Note_on_c, 0, 92, 87
1, 1409869, Note_off_c, 0, 64, 58
1, 1409885, Note_off_c, 0, 57, 57
1, 1409893, Note_off_c, 0, 88, 63
1, 1409941, Note_on_c, 0, 95, 86
1, 1409942, Note_off_c, 0, 92, 67
1, 1409983, Note_off_c, 0, 95, 66
1, 1410036, Control_c, 0, 64, 97
1, 1410051, Control_c, 0, 64, 64
1, 1410057, Note_on_c, 0, 93, 97
1, 1410060, Note_on_c, 0, 64, 85
1, 1410063, Note_on_c, 0, 57, 79
1, 1410063, Note_on_c, 0, 61, 76
1, 1410066, Control_c, 0, 64, 0
1, 1410140, Note_on_c, 0, 88, 84
1, 1410140, Control_c, 0, 64, 49
1, 1410151, Note_off_c, 0, 93, 64
1, 1410155, Control_c, 0, 64, 60
1, 1410170, Control_c, 0, 64, 66
1, 1410192, Control_c, 0, 64, 72
1, 1410207, Control_c, 0, 64, 76
1, 1410221, Control_c, 0, 64, 81
1, 1410234, Note_on_c, 0, 85, 84
1, 1410236, Control_c, 0, 64, 87
1, 1410251, Control_c, 0, 64, 96
1, 1410254, Note_off_c, 0, 88, 66
1, 1410266, Control_c, 0, 64, 104
1, 1410281, Control_c, 0, 64, 116
1, 1410295, Control_c, 0, 64, 127
1, 1410296, Note_off_c, 0, 64, 63
1, 1410316, Note_on_c, 0, 81, 78
1, 1410316, Note_off_c, 0, 85, 64
1, 1410320, Note_off_c, 0, 57, 62
1, 1410331, Note_off_c, 0, 61, 61
1, 1410353, Note_off_c, 0, 81, 62
1, 1410410, Note_on_c, 0, 76, 83
1, 1410465, Note_off_c, 0, 76, 63
1, 1410489, Note_on_c, 0, 73, 72
1, 1410512, Note_off_c, 0, 73, 69
1, 1410549, Control_c, 0, 64, 105
1, 1410563, Control_c, 0, 64, 61
1, 1410578, Control_c, 0, 64, 0
1, 1410605, Note_on_c, 0, 52, 79
1, 1410612, Note_on_c, 0, 88, 92
1, 1410618, Note_on_c, 0, 86, 80
1, 1410620, Note_on_c, 0, 80, 89
1, 1410637, Control_c, 0, 64, 49
1, 1410652, Control_c, 0, 64, 65
1, 1410667, Control_c, 0, 64, 71
1, 1410671, Note_off_c, 0, 80, 58
1, 1410680, Note_off_c, 0, 86, 58
1, 1410682, Control_c, 0, 64, 77
1, 1410683, Note_off_c, 0, 88, 59
1, 1410693, Note_on_c, 0, 56, 88
1, 1410697, Control_c, 0, 64, 82
1, 1410704, Note_off_c, 0, 52, 62
1, 1410711, Control_c, 0, 64, 88
1, 1410726, Control_c, 0, 64, 93
1, 1410741, Control_c, 0, 64, 98
1, 1410755, Control_c, 0, 64, 106
1, 1410770, Control_c, 0, 64, 127
1, 1410790, Note_on_c, 0, 59, 82
1, 1410808, Note_off_c, 0, 56, 63
1, 1410829, Control_c, 0, 64, 91
1, 1410844, Control_c, 0, 64, 67
1, 1410859, Control_c, 0, 64, 48
1, 1410862, Note_off_c, 0, 59, 65
1, 1410874, Control_c, 0, 64, 53
1, 1410881, Note_on_c, 0, 88, 90
1, 1410883, Note_on_c, 0, 86, 84
1, 1410884, Note_on_c, 0, 64, 78
1, 1410886, Note_on_c, 0, 80, 92
1, 1410889, Control_c, 0, 64, 63
1, 1410904, Control_c, 0, 64, 74
1, 1410915, Note_off_c, 0, 64, 68
1, 1410918, Control_c, 0, 64, 89
1, 1410941, Control_c, 0, 64, 99
1, 1410954, Note_off_c, 0, 80, 61
1, 1410956, Control_c, 0, 64, 104
1, 1410970, Control_c, 0, 64, 114
1, 1410984, Note_on_c, 0, 68, 78
1, 1410985, Control_c, 0, 64, 127
1, 1410997, Note_off_c, 0, 86, 58
1, 1411026, Note_off_c, 0, 88, 45
1, 1411033, Note_off_c, 0, 68, 64
1, 1411063, Note_on_c, 0, 71, 74
1, 1411086, Note_off_c, 0, 71, 68
1, 1411148, Control_c, 0, 64, 104
1, 1411162, Control_c, 0, 64, 82
1, 1411176, Note_on_c, 0, 88, 94
1, 1411177, Control_c, 0, 64, 64
1, 1411178, Note_on_c, 0, 85, 87
1, 1411180, Note_on_c, 0, 81, 90
1, 1411187, Note_on_c, 0, 69, 72
1, 1411192, Control_c, 0, 64, 41
1, 1411207, Control_c, 0, 64, 0
1, 1411239, Note_off_c, 0, 69, 59
1, 1411279, Note_on_c, 0, 64, 69
1, 1411356, Control_c, 0, 64, 33
1, 1411359, Note_off_c, 0, 64, 64
1, 1411363, Note_on_c, 0, 61, 66
1, 1411371, Control_c, 0, 64, 49
1, 1411385, Control_c, 0, 64, 59
1, 1411400, Control_c, 0, 64, 62
1, 1411415, Control_c, 0, 64, 64
1, 1411430, Control_c, 0, 64, 66
1, 1411435, Note_off_c, 0, 61, 64
1, 1411445, Control_c, 0, 64, 69
1, 1411455, Note_on_c, 0, 64, 68
1, 1411459, Control_c, 0, 64, 73
1, 1411474, Control_c, 0, 64, 77
1, 1411489, Control_c, 0, 64, 80
1, 1411503, Control_c, 0, 64, 82
1, 1411518, Control_c, 0, 64, 84
1, 1411520, Note_off_c, 0, 64, 51
1, 1411533, Control_c, 0, 64, 85
1, 1411542, Note_on_c, 0, 61, 68
1, 1411548, Control_c, 0, 64, 86
1, 1411550, Note_off_c, 0, 85, 63
1, 1411594, Note_off_c, 0, 81, 47
1, 1411601, Note_off_c, 0, 88, 49
1, 1411615, Note_off_c, 0, 61, 64
1, 1411622, Note_on_c, 0, 57, 69
1, 1411704, Control_c, 0, 64, 84
1, 1411718, Control_c, 0, 64, 75
1, 1411723, Note_off_c, 0, 57, 61
1, 1411733, Control_c, 0, 64, 60
1, 1411747, Note_on_c, 0, 88, 71
1, 1411748, Control_c, 0, 64, 0
1, 1411749, Note_on_c, 0, 52, 60
1, 1411751, Note_on_c, 0, 80, 73
1, 1411751, Note_on_c, 0, 86, 72
1, 1411807, Control_c, 0, 64, 34
1, 1411822, Control_c, 0, 64, 55
1, 1411827, Note_off_c, 0, 52, 62
1, 1411837, Control_c, 0, 64, 67
1, 1411839, Note_on_c, 0, 56, 66
1, 1411852, Control_c, 0, 64, 74
1, 1411857, Note_off_c, 0, 88, 63
1, 1411858, Note_off_c, 0, 80, 62
1, 1411866, Note_off_c, 0, 86, 63
1, 1411866, Control_c, 0, 64, 79
1, 1411881, Control_c, 0, 64, 83
1, 1411896, Control_c, 0, 64, 89
1, 1411911, Control_c, 0, 64, 97
1, 1411914, Note_off_c, 0, 56, 63
1, 1411920, Note_on_c, 0, 59, 66
1, 1411926, Control_c, 0, 64, 112
1, 1411941, Control_c, 0, 64, 127
1, 1411971, Control_c, 0, 64, 103
1, 1411977, Note_off_c, 0, 59, 59
1, 1411985, Control_c, 0, 64, 77
1, 1412000, Control_c, 0, 64, 61
1, 1412015, Control_c, 0, 64, 52
1, 1412029, Note_on_c, 0, 64, 62
1, 1412030, Control_c, 0, 64, 57
1, 1412031, Note_on_c, 0, 86, 71
1, 1412033, Note_on_c, 0, 88, 74
1, 1412037, Note_on_c, 0, 80, 70
1, 1412045, Control_c, 0, 64, 63
1, 1412060, Note_off_c, 0, 64, 66
1, 1412060, Control_c, 0, 64, 67
1, 1412075, Control_c, 0, 64, 71
1, 1412090, Control_c, 0, 64, 74
1, 1412105, Control_c, 0, 64, 76
1, 1412120, Control_c, 0, 64, 77
1, 1412124, Note_off_c, 0, 80, 59
1, 1412131, Note_on_c, 0, 68, 65
1, 1412134, Control_c, 0, 64, 78
1, 1412162, Note_off_c, 0, 86, 58
1, 1412185, Note_off_c, 0, 88, 55
1, 1412191, Note_off_c, 0, 68, 63
1, 1412212, Note_on_c, 0, 71, 62
1, 1412238, Control_c, 0, 64, 77
1, 1412253, Control_c, 0, 64, 74
1, 1412254, Note_off_c, 0, 71, 62
1, 1412268, Control_c, 0, 64, 71
1, 1412282, Control_c, 0, 64, 68
1, 1412297, Control_c, 0, 64, 67
1, 1412312, Note_on_c, 0, 88, 64
1, 1412313, Note_on_c, 0, 85, 67
1, 1412314, Note_on_c, 0, 81, 63
1, 1412319, Note_on_c, 0, 69, 59
1, 1412356, Control_c, 0, 64, 67
1, 1412371, Control_c, 0, 64, 65
1, 1412380, Note_off_c, 0, 69, 61
1, 1412386, Control_c, 0, 64, 62
1, 1412400, Control_c, 0, 64, 56
1, 1412406, Note_on_c, 0, 64, 62
1, 1412415, Control_c, 0, 64, 49
1, 1412438, Control_c, 0, 64, 36
1, 1412453, Control_c, 0, 64, 0
1, 1412506, Note_off_c, 0, 64, 62
1, 1412510, Note_on_c, 0, 61, 61
1, 1412528, Control_c, 0, 64, 32
1, 1412542, Control_c, 0, 64, 41
1, 1412557, Control_c, 0, 64, 50
1, 1412572, Control_c, 0, 64, 56
1, 1412580, Note_off_c, 0, 61, 64
1, 1412587, Control_c, 0, 64, 59
1, 1412602, Control_c, 0, 64, 61
1, 1412602, Control_c, 0, 67, 35
1, 1412606, Note_on_c, 0, 64, 57
1, 1412616, Control_c, 0, 64, 63
1, 1412616, Control_c, 0, 67, 37
1, 1412631, Control_c, 0, 64, 64
1, 1412631, Control_c, 0, 67, 37
1, 1412646, Control_c, 0, 64, 65
1, 1412646, Control_c, 0, 67, 38
1, 1412655, Note_off_c, 0, 64, 53
1, 1412661, Control_c, 0, 64, 65
1, 1412676, Control_c, 0, 64, 66
1, 1412676, Control_c, 0, 67, 38
1, 1412693, Note_off_c, 0, 85, 61
1, 1412701, Note_on_c, 0, 61, 54
1, 1412731, Note_off_c, 0, 88, 53
1, 1412733, Note_off_c, 0, 81, 51
1, 1412761, Note_off_c, 0, 61, 63
1, 1412778, Note_on_c, 0, 57, 59
1, 1412779, Control_c, 0, 67, 39
1, 1412823, Control_c, 0, 67, 39
1, 1412854, Control_c, 0, 67, 41
1, 1412869, Control_c, 0, 67, 42
1, 1412883, Note_off_c, 0, 57, 60
1, 1412884, Control_c, 0, 64, 65
1, 1412884, Control_c, 0, 67, 43
1, 1412899, Control_c, 0, 64, 62
1, 1412899, Control_c, 0, 67, 54
1, 1412913, Control_c, 0, 64, 53
1, 1412913, Control_c, 0, 67, 78
1, 1412914, Note_on_c, 0, 88, 57
1, 1412919, Note_on_c, 0, 86, 51
1, 1412922, Note_on_c, 0, 80, 49
1, 1412928, Note_on_c, 0, 52, 50
1, 1412928, Control_c, 0, 64, 0
1, 1412928, Control_c, 0, 67, 98
1, 1412943, Control_c, 0, 67, 116
1, 1412957, Control_c, 0, 67, 127
1, 1413005, Note_off_c, 0, 52, 62
1, 1413017, Control_c, 0, 64, 40
1, 1413022, Note_on_c, 0, 56, 59
1, 1413032, Control_c, 0, 64, 56
1, 1413047, Control_c, 0, 64, 63
1, 1413062, Control_c, 0, 64, 64
1, 1413065, Note_off_c, 0, 80, 53
1, 1413075, Note_off_c, 0, 86, 55
1, 1413077, Control_c, 0, 64, 66
1, 1413083, Note_off_c, 0, 88, 58
1, 1413091, Control_c, 0, 64, 68
1, 1413098, Note_off_c, 0, 56, 62
1, 1413106, Control_c, 0, 64, 71
1, 1413108, Note_on_c, 0, 59, 56
1, 1413121, Control_c, 0, 64, 74
1, 1413136, Control_c, 0, 64, 75
1, 1413150, Control_c, 0, 64, 76
1, 1413160, Note_off_c, 0, 59, 57
1, 1413165, Control_c, 0, 64, 77
1, 1413187, Control_c, 0, 64, 77
1, 1413233, Note_on_c, 0, 88, 52
1, 1413238, Note_on_c, 0, 64, 49
1, 1413246, Note_on_c, 0, 86, 48
1, 1413248, Note_on_c, 0, 80, 51
1, 1413306, Note_off_c, 0, 64, 47
1, 1413351, Control_c, 0, 64, 77
1, 1413363, Note_on_c, 0, 68, 55
1, 1413380, Control_c, 0, 64, 76
1, 1413395, Control_c, 0, 64, 75
1, 1413410, Control_c, 0, 64, 73
1, 1413425, Control_c, 0, 64, 71
1, 1413435, Note_off_c, 0, 88, 37
1, 1413439, Control_c, 0, 64, 68
1, 1413451, Note_off_c, 0, 68, 51
1, 1413454, Control_c, 0, 64, 65
1, 1413469, Control_c, 0, 64, 61
1, 1413476, Note_off_c, 0, 86, 31
1, 1413480, Note_off_c, 0, 80, 34
1, 1413482, Note_on_c, 0, 71, 52
1, 1413483, Control_c, 0, 64, 57
1, 1413498, Control_c, 0, 64, 53
1, 1413513, Control_c, 0, 64, 46
1, 1413528, Control_c, 0, 64, 36
1, 1413543, Control_c, 0, 64, 0
1, 1413565, Note_off_c, 0, 71, 56
1, 1415745, Control_c, 0, 64, 32
1, 1415759, Control_c, 0, 64, 45
1, 1415774, Control_c, 0, 64, 54
1, 1415789, Control_c, 0, 64, 58
1, 1415804, Control_c, 0, 64, 59
1, 1415819, Control_c, 0, 64, 60
1, 1415834, Control_c, 0, 64, 62
1, 1415849, Control_c, 0, 64, 63
1, 1415864, Control_c, 0, 64, 65
1, 1415878, Control_c, 0, 64, 67
1, 1415893, Control_c, 0, 64, 69
1, 1415908, Control_c, 0, 64, 71
1, 1415923, Control_c, 0, 64, 73
1, 1415938, Control_c, 0, 64, 74
1, 1415952, Control_c, 0, 64, 76
1, 1415967, Control_c, 0, 64, 78
1, 1415982, Control_c, 0, 64, 79
1, 1415997, Control_c, 0, 64, 80
1, 1416026, Control_c, 0, 64, 81
1, 1416057, Control_c, 0, 64, 81
1, 1416165, Note_on_c, 0, 61, 39
1, 1416213, Note_on_c, 0, 45, 29
1, 1416227, Control_c, 0, 64, 81
1, 1416257, Control_c, 0, 64, 80
1, 1416272, Control_c, 0, 64, 79
1, 1416287, Control_c, 0, 64, 78
1, 1416301, Control_c, 0, 64, 77
1, 1416316, Control_c, 0, 64, 75
1, 1416331, Control_c, 0, 64, 74
1, 1416346, Control_c, 0, 64, 73
1, 1416361, Control_c, 0, 64, 72
1, 1416375, Control_c, 0, 64, 71
1, 1416390, Control_c, 0, 64, 70
1, 1416405, Control_c, 0, 64, 68
1, 1416416, Note_off_c, 0, 61, 59
1, 1416420, Control_c, 0, 64, 67
1, 1416435, Control_c, 0, 64, 65
1, 1416449, Note_on_c, 0, 52, 32
1, 1416449, Control_c, 0, 64, 64
1, 1416464, Control_c, 0, 64, 63
1, 1416479, Control_c, 0, 64, 61
1, 1416494, Control_c, 0, 64, 60
1, 1416508, Control_c, 0, 64, 59
1, 1416523, Control_c, 0, 64, 58
1, 1416538, Control_c, 0, 64, 56
1, 1416553, Control_c, 0, 64, 55
1, 1416568, Control_c, 0, 64, 53
1, 1416582, Control_c, 0, 64, 52
1, 1416597, Control_c, 0, 64, 50
1, 1416612, Control_c, 0, 64, 47
1, 1416627, Control_c, 0, 64, 44
1, 1416642, Note_on_c, 0, 64, 54
1, 1416642, Control_c, 0, 64, 40
1, 1416653, Note_off_c, 0, 52, 42
1, 1416657, Control_c, 0, 64, 34
1, 1416663, Note_on_c, 0, 57, 36
1, 1416672, Control_c, 0, 64, 27
1, 1416673, Note_on_c, 0, 61, 35
1, 1416686, Control_c, 0, 64, 0
1, 1416814, Note_on_c, 0, 52, 38
1, 1416832, Note_off_c, 0, 57, 35
1, 1416834, Control_c, 0, 64, 38
1, 1416850, Control_c, 0, 64, 49
1, 1416865, Control_c, 0, 64, 57
1, 1416880, Control_c, 0, 64, 60
1, 1416895, Control_c, 0, 64, 61
1, 1416910, Control_c, 0, 64, 63
1, 1416931, Control_c, 0, 64, 65
1, 1416946, Control_c, 0, 64, 66
1, 1416961, Control_c, 0, 64, 68
1, 1416976, Control_c, 0, 64, 69
1, 1416986, Note_off_c, 0, 52, 58
1, 1416991, Note_on_c, 0, 49, 47
1, 1416991, Control_c, 0, 64, 70
1, 1417005, Control_c, 0, 64, 71
1, 1417020, Control_c, 0, 64, 72
1, 1417035, Control_c, 0, 64, 72
1, 1417050, Control_c, 0, 64, 73
1, 1417065, Control_c, 0, 64, 74
1, 1417077, Note_off_c, 0, 64, 53
1, 1417080, Control_c, 0, 64, 75
1, 1417091, Note_off_c, 0, 61, 36
1, 1417095, Control_c, 0, 64, 76
1, 1417110, Control_c, 0, 64, 76
1, 1417123, Note_on_c, 0, 52, 50
1, 1417124, Control_c, 0, 64, 77
1, 1417146, Note_off_c, 0, 45, 38
1, 1417259, Note_on_c, 0, 69, 68
1, 1417268, Note_on_c, 0, 61, 46
1, 1417269, Note_on_c, 0, 64, 51
1, 1417273, Note_off_c, 0, 52, 56
1, 1417295, Note_on_c, 0, 57, 42
1, 1417336, Note_off_c, 0, 61, 61
1, 1417351, Note_off_c, 0, 64, 63
1, 1417389, Note_off_c, 0, 69, 56
1, 1417403, Note_off_c, 0, 57, 56
1, 1417438, Note_on_c, 0, 52, 38
1, 1417503, Note_off_c, 0, 49, 58
1, 1417570, Note_on_c, 0, 69, 69
1, 1417584, Control_c, 0, 64, 76
1, 1417590, Note_off_c, 0, 52, 0
1, 1417598, Control_c, 0, 64, 74
1, 1417599, Note_on_c, 0, 64, 45
1, 1417603, Note_on_c, 0, 47, 53
1, 1417613, Note_on_c, 0, 62, 46
1, 1417613, Control_c, 0, 64, 71
1, 1417620, Poly_aftertouch_c, 0, 52, 0
1, 1417628, Control_c, 0, 64, 65
1, 1417643, Control_c, 0, 64, 55
1, 1417658, Control_c, 0, 64, 41
1, 1417681, Control_c, 0, 64, 0
1, 1417740, Note_on_c, 0, 52, 49
1, 1417768, Control_c, 0, 64, 29
1, 1417783, Control_c, 0, 64, 41
1, 1417798, Control_c, 0, 64, 51
1, 1417813, Control_c, 0, 64, 57
1, 1417827, Control_c, 0, 64, 58
1, 1417842, Control_c, 0, 64, 59
1, 1417857, Control_c, 0, 64, 61
1, 1417871, Control_c, 0, 64, 62
1, 1417882, Note_off_c, 0, 52, 55
1, 1417885, Note_on_c, 0, 68, 69
1, 1417886, Control_c, 0, 64, 63
1, 1417901, Control_c, 0, 64, 63
1, 1417907, Note_on_c, 0, 56, 46
1, 1417945, Control_c, 0, 64, 64
1, 1417966, Note_off_c, 0, 62, 56
1, 1417968, Note_off_c, 0, 69, 57
1, 1417977, Note_off_c, 0, 64, 38
1, 1418021, Note_on_c, 0, 52, 48
1, 1418046, Note_off_c, 0, 47, 37
1, 1418046, Note_off_c, 0, 68, 61
1, 1418068, Note_off_c, 0, 56, 37
1, 1418153, Control_c, 0, 64, 63
1, 1418183, Control_c, 0, 64, 63
1, 1418198, Control_c, 0, 64, 62
1, 1418213, Control_c, 0, 64, 61
1, 1418217, Note_off_c, 0, 52, 49
1, 1418227, Control_c, 0, 64, 59
1, 1418242, Control_c, 0, 64, 57
1, 1418242, Note_on_c, 0, 69, 51
1, 1418246, Note_on_c, 0, 49, 41
1, 1418257, Control_c, 0, 64, 55
1, 1418268, Note_on_c, 0, 64, 34
1, 1418271, Control_c, 0, 64, 51
1, 1418275, Note_on_c, 0, 61, 34
1, 1418286, Control_c, 0, 64, 42
1, 1418301, Control_c, 0, 64, 0
1, 1418409, Note_on_c, 0, 52, 39
1, 1418517, Control_c, 0, 64, 41
1, 1418532, Control_c, 0, 64, 52
1, 1418547, Note_off_c, 0, 52, 58
1, 1418547, Control_c, 0, 64, 59
1, 1418562, Control_c, 0, 64, 62
1, 1418576, Control_c, 0, 64, 64
1, 1418586, Note_on_c, 0, 57, 33
1, 1418589, Note_off_c, 0, 61, 59
1, 1418591, Control_c, 0, 64, 67
1, 1418606, Control_c, 0, 64, 69
1, 1418621, Control_c, 0, 64, 72
1, 1418636, Control_c, 0, 64, 74
1, 1418642, Note_off_c, 0, 64, 42
1, 1418651, Control_c, 0, 64, 76
1, 1418658, Note_off_c, 0, 69, 62
1, 1418666, Control_c, 0, 64, 78
1, 1418681, Control_c, 0, 64, 79
1, 1418710, Control_c, 0, 64, 79
1, 1418737, Note_on_c, 0, 52, 41
1, 1418771, Note_off_c, 0, 49, 36
1, 1418782, Note_off_c, 0, 57, 42
1, 1418785, Note_off_c, 0, 52, 59
1, 1418917, Control_c, 0, 64, 79
1, 1418935, Note_on_c, 0, 71, 61
1, 1418947, Control_c, 0, 64, 78
1, 1418962, Control_c, 0, 64, 77
1, 1418964, Note_on_c, 0, 69, 39
1, 1418976, Control_c, 0, 64, 75
1, 1418991, Note_on_c, 0, 50, 46
1, 1418991, Control_c, 0, 64, 73
1, 1419006, Control_c, 0, 64, 69
1, 1419021, Control_c, 0, 64, 62
1, 1419021, Control_c, 0, 67, 123
1, 1419036, Control_c, 0, 64, 51
1, 1419036, Control_c, 0, 67, 102
1, 1419044, Poly_aftertouch_c, 0, 66, 127
1, 1419050, Control_c, 0, 64, 0
1, 1419050, Control_c, 0, 67, 75
1, 1419065, Control_c, 0, 67, 39
1, 1419080, Control_c, 0, 67, 0
1, 1419131, Note_on_c, 0, 54, 43
1, 1419191, Control_c, 0, 64, 43
1, 1419206, Control_c, 0, 64, 57
1, 1419220, Control_c, 0, 64, 63
1, 1419235, Control_c, 0, 64, 67
1, 1419252, Control_c, 0, 64, 70
1, 1419266, Control_c, 0, 64, 73
1, 1419270, Note_on_c, 0, 59, 52
1, 1419274, Note_off_c, 0, 54, 55
1, 1419278, Note_off_c, 0, 71, 57
1, 1419281, Control_c, 0, 64, 77
1, 1419286, Poly_aftertouch_c, 0, 66, 0
1, 1419296, Control_c, 0, 64, 82
1, 1419300, Note_off_c, 0, 69, 57
1, 1419311, Control_c, 0, 64, 87
1, 1419325, Control_c, 0, 64, 91
1, 1419340, Control_c, 0, 64, 95
1, 1419355, Control_c, 0, 64, 98
1, 1419385, Control_c, 0, 64, 100
1, 1419394, Note_on_c, 0, 71, 72
1, 1419402, Note_on_c, 0, 54, 55
1, 1419402, Note_off_c, 0, 59, 51
1, 1419406, Note_on_c, 0, 66, 56
1, 1419413, Note_on_c, 0, 69, 62
1, 1419414, Control_c, 0, 64, 103
1, 1419444, Control_c, 0, 64, 105
1, 1419483, Note_off_c, 0, 66, 60
1, 1419502, Note_off_c, 0, 71, 59
1, 1419515, Note_off_c, 0, 69, 58
1, 1419592, Note_off_c, 0, 50, 51
1, 1419596, Note_on_c, 0, 73, 70
1, 1419607, Control_c, 0, 64, 100
1, 1419610, Note_on_c, 0, 69, 45
1, 1419615, Note_on_c, 0, 66, 56
1, 1419619, Note_on_c, 0, 51, 53
1, 1419622, Control_c, 0, 64, 92
1, 1419637, Control_c, 0, 64, 79
1, 1419651, Control_c, 0, 64, 67
1, 1419666, Control_c, 0, 64, 51
1, 1419681, Control_c, 0, 64, 0
1, 1419697, Note_off_c, 0, 69, 63
1, 1419740, Control_c, 0, 64, 31
1, 1419754, Note_off_c, 0, 66, 56
1, 1419755, Control_c, 0, 64, 48
1, 1419770, Control_c, 0, 64, 59
1, 1419785, Control_c, 0, 64, 65
1, 1419799, Control_c, 0, 64, 68
1, 1419814, Control_c, 0, 64, 71
1, 1419829, Control_c, 0, 64, 76
1, 1419843, Control_c, 0, 64, 82
1, 1419858, Control_c, 0, 64, 87
1, 1419873, Control_c, 0, 64, 87
1, 1419888, Note_off_c, 0, 54, 45
1, 1419888, Control_c, 0, 64, 81
1, 1419903, Control_c, 0, 64, 70
1, 1419909, Note_on_c, 0, 69, 65
1, 1419914, Note_on_c, 0, 66, 49
1, 1419923, Note_on_c, 0, 57, 41
1, 1419925, Control_c, 0, 64, 62
1, 1419938, Note_on_c, 0, 61, 45
1, 1419940, Control_c, 0, 64, 61
1, 1419955, Control_c, 0, 64, 64
1, 1419970, Control_c, 0, 64, 67
1, 1419985, Control_c, 0, 64, 71
1, 1419993, Note_off_c, 0, 73, 63
1, 1419999, Control_c, 0, 64, 75
1, 1420014, Control_c, 0, 64, 77
1, 1420029, Control_c, 0, 64, 78
1, 1420030, Note_off_c, 0, 66, 63
1, 1420045, Control_c, 0, 64, 80
1, 1420059, Note_off_c, 0, 69, 62
1, 1420060, Control_c, 0, 64, 80
1, 1420065, Note_off_c, 0, 57, 61
1, 1420074, Control_c, 0, 64, 81
1, 1420091, Note_off_c, 0, 51, 60
1, 1420103, Note_on_c, 0, 54, 33
1, 1420114, Note_off_c, 0, 61, 63
1, 1420138, Note_off_c, 0, 54, 54
1, 1420237, Control_c, 0, 64, 81
1, 1420252, Control_c, 0, 64, 80
1, 1420267, Control_c, 0, 64, 80
1, 1420281, Control_c, 0, 64, 79
1, 1420296, Control_c, 0, 64, 78
1, 1420307, Note_on_c, 0, 69, 61
1, 1420311, Control_c, 0, 64, 76
1, 1420317, Note_on_c, 0, 64, 45
1, 1420326, Control_c, 0, 64, 74
1, 1420341, Control_c, 0, 64, 71
1, 1420356, Control_c, 0, 64, 67
1, 1420371, Control_c, 0, 64, 63
1, 1420371, Note_on_c, 0, 40, 39
1, 1420386, Control_c, 0, 64, 59
1, 1420388, Note_on_c, 0, 61, 3
1, 1420401, Control_c, 0, 64, 50
1, 1420415, Control_c, 0, 64, 34
1, 1420430, Control_c, 0, 64, 0
1, 1420504, Control_c, 0, 64, 35
1, 1420519, Control_c, 0, 64, 50
1, 1420534, Control_c, 0, 64, 60
1, 1420540, Note_on_c, 0, 52, 36
1, 1420548, Control_c, 0, 64, 64
1, 1420563, Control_c, 0, 64, 66
1, 1420578, Control_c, 0, 64, 69
1, 1420588, Note_off_c, 0, 61, 39
1, 1420593, Control_c, 0, 64, 73
1, 1420608, Control_c, 0, 64, 76
1, 1420608, Control_c, 0, 67, 40
1, 1420622, Control_c, 0, 64, 78
1, 1420622, Control_c, 0, 67, 52
1, 1420633, Note_off_c, 0, 40, 40
1, 1420637, Control_c, 0, 64, 80
1, 1420637, Control_c, 0, 67, 63
1, 1420642, Note_off_c, 0, 52, 50
1, 1420652, Control_c, 0, 64, 82
1, 1420652, Control_c, 0, 67, 76
1, 1420674, Control_c, 0, 64, 83
1, 1420674, Control_c, 0, 67, 93
1, 1420689, Control_c, 0, 64, 84
1, 1420689, Control_c, 0, 67, 113
1, 1420696, Note_on_c, 0, 57, 47
1, 1420704, Control_c, 0, 64, 84
1, 1420704, Control_c, 0, 67, 127
1, 1420829, Note_off_c, 0, 64, 57
1, 1420851, Note_on_c, 0, 61, 52
1, 1420868, Control_c, 0, 64, 84
1, 1420898, Note_off_c, 0, 57, 37
1, 1420942, Control_c, 0, 64, 83
1, 1420957, Control_c, 0, 64, 83
1, 1420971, Control_c, 0, 64, 82
1, 1420986, Control_c, 0, 64, 81
1, 1420989, Note_off_c, 0, 61, 34
1, 1421001, Control_c, 0, 64, 80
1, 1421016, Control_c, 0, 64, 80
1, 1421024, Note_on_c, 0, 68, 50
1, 1421027, Note_on_c, 0, 59, 44
1, 1421031, Control_c, 0, 64, 79
1, 1421045, Control_c, 0, 64, 78
1, 1421060, Control_c, 0, 64, 76
1, 1421075, Control_c, 0, 64, 75
1, 1421089, Control_c, 0, 64, 73
1, 1421104, Control_c, 0, 64, 71
1, 1421119, Control_c, 0, 64, 69
1, 1421134, Control_c, 0, 64, 67
1, 1421149, Control_c, 0, 64, 64
1, 1421155, Note_off_c, 0, 59, 53
1, 1421164, Control_c, 0, 64, 61
1, 1421173, Note_off_c, 0, 69, 46
1, 1421173, Note_on_c, 0, 66, 57
1, 1421179, Control_c, 0, 64, 59
1, 1421188, Note_on_c, 0, 62, 39
1, 1421194, Control_c, 0, 64, 57
1, 1421208, Control_c, 0, 64, 54
1, 1421223, Control_c, 0, 64, 51
1, 1421238, Control_c, 0, 64, 47
1, 1421253, Control_c, 0, 64, 42
1, 1421268, Control_c, 0, 64, 33
1, 1421280, Note_off_c, 0, 68, 35
1, 1421283, Control_c, 0, 64, 0
1, 1421298, Note_off_c, 0, 62, 53
1, 1421346, Note_on_c, 0, 64, 48
1, 1421352, Note_on_c, 0, 61, 38
1, 1421377, Note_off_c, 0, 66, 52
1, 1421468, Note_off_c, 0, 61, 61
1, 1421528, Note_on_c, 0, 62, 38
1, 1421538, Note_on_c, 0, 59, 30
1, 1421570, Note_off_c, 0, 64, 36
1, 1421688, Note_off_c, 0, 59, 37
1, 1421692, Note_off_c, 0, 62, 37
1, 1422735, Control_c, 0, 64, 29
1, 1422750, Control_c, 0, 64, 35
1, 1422765, Control_c, 0, 64, 39
1, 1422780, Control_c, 0, 64, 42
1, 1422780, Control_c, 0, 67, 120
1, 1422795, Control_c, 0, 64, 46
1, 1422795, Control_c, 0, 67, 113
1, 1422809, Control_c, 0, 64, 49
1, 1422809, Control_c, 0, 67, 105
1, 1422824, Control_c, 0, 64, 53
1, 1422824, Control_c, 0, 67, 96
1, 1422839, Control_c, 0, 64, 55
1, 1422839, Control_c, 0, 67, 87
1, 1422854, Control_c, 0, 64, 57
1, 1422854, Control_c, 0, 67, 79
1, 1422869, Control_c, 0, 64, 58
1, 1422869, Control_c, 0, 67, 72
1, 1422884, Control_c, 0, 64, 59
1, 1422884, Control_c, 0, 67, 63
1, 1422899, Control_c, 0, 64, 60
1, 1422899, Control_c, 0, 67, 53
1, 1422921, Control_c, 0, 64, 62
1, 1422921, Control_c, 0, 67, 43
1, 1422936, Control_c, 0, 64, 63
1, 1422936, Control_c, 0, 67, 0
1, 1422950, Control_c, 0, 64, 64
1, 1422965, Control_c, 0, 64, 65
1, 1422980, Control_c, 0, 64, 66
1, 1422995, Control_c, 0, 64, 67
1, 1423010, Control_c, 0, 64, 68
1, 1423024, Control_c, 0, 64, 68
1, 1423039, Control_c, 0, 64, 69
1, 1423054, Control_c, 0, 64, 70
1, 1423069, Control_c, 0, 64, 70
1, 1423083, Control_c, 0, 64, 71
1, 1423098, Control_c, 0, 64, 72
1, 1423113, Control_c, 0, 64, 74
1, 1423128, Control_c, 0, 64, 75
1, 1423143, Control_c, 0, 64, 77
1, 1423158, Control_c, 0, 64, 78
1, 1423173, Control_c, 0, 64, 80
1, 1423187, Control_c, 0, 64, 82
1, 1423202, Control_c, 0, 64, 84
1, 1423217, Control_c, 0, 64, 86
1, 1423232, Control_c, 0, 64, 86
1, 1423247, Control_c, 0, 64, 87
1, 1423262, Control_c, 0, 64, 87
1, 1423277, Control_c, 0, 64, 88
1, 1423307, Control_c, 0, 64, 88
1, 1423337, Control_c, 0, 64, 89
1, 1423366, Control_c, 0, 67, 43
1, 1423381, Control_c, 0, 67, 72
1, 1423396, Control_c, 0, 67, 92
1, 1423411, Control_c, 0, 67, 105
1, 1423426, Control_c, 0, 67, 114
1, 1423440, Control_c, 0, 67, 124
1, 1423455, Control_c, 0, 67, 127
1, 1423501, Note_on_c, 0, 72, 39
1, 1423567, Note_on_c, 0, 57, 28
1, 1423785, Note_off_c, 0, 72, 59
1, 1423818, Note_on_c, 0, 64, 28
1, 1423877, Control_c, 0, 64, 89
1, 1424002, Note_on_c, 0, 76, 58
1, 1424020, Note_off_c, 0, 64, 45
1, 1424035, Note_on_c, 0, 69, 35
1, 1424047, Note_on_c, 0, 72, 33
1, 1424172, Note_on_c, 0, 64, 28
1, 1424201, Note_off_c, 0, 69, 32
1, 1424204, Control_c, 0, 64, 90
1, 1424318, Note_off_c, 0, 57, 42
1, 1424350, Note_on_c, 0, 60, 44
1, 1424366, Note_off_c, 0, 64, 45
1, 1424437, Note_off_c, 0, 72, 37
1, 1424444, Note_off_c, 0, 76, 51
1, 1424495, Note_on_c, 0, 64, 44
1, 1424508, Control_c, 0, 64, 90
1, 1424631, Note_on_c, 0, 81, 66
1, 1424653, Note_on_c, 0, 76, 43
1, 1424660, Note_off_c, 0, 64, 55
1, 1424685, Note_on_c, 0, 72, 26
1, 1424686, Note_on_c, 0, 69, 39
1, 1424732, Note_off_c, 0, 72, 46
1, 1424791, Note_off_c, 0, 69, 46
1, 1424795, Note_off_c, 0, 76, 35
1, 1424806, Note_on_c, 0, 64, 42
1, 1424810, Note_off_c, 0, 81, 57
1, 1424853, Note_off_c, 0, 60, 34
1, 1424887, Note_off_c, 0, 64, 52
1, 1424938, Control_c, 0, 64, 90
1, 1424982, Control_c, 0, 64, 89
1, 1424988, Note_on_c, 0, 81, 58
1, 1424997, Control_c, 0, 64, 89
1, 1425012, Control_c, 0, 64, 87
1, 1425020, Note_on_c, 0, 76, 40
1, 1425023, Note_on_c, 0, 74, 43
1, 1425027, Control_c, 0, 64, 86
1, 1425028, Note_on_c, 0, 59, 41
1, 1425042, Control_c, 0, 64, 84
1, 1425056, Control_c, 0, 64, 81
1, 1425071, Control_c, 0, 64, 79
1, 1425086, Control_c, 0, 64, 76
1, 1425101, Control_c, 0, 64, 73
1, 1425116, Control_c, 0, 64, 68
1, 1425130, Control_c, 0, 64, 63
1, 1425145, Control_c, 0, 64, 53
1, 1425167, Control_c, 0, 64, 44
1, 1425182, Control_c, 0, 64, 36
1, 1425197, Control_c, 0, 64, 32
1, 1425210, Note_on_c, 0, 64, 33
1, 1425212, Control_c, 0, 64, 33
1, 1425227, Control_c, 0, 64, 36
1, 1425242, Control_c, 0, 64, 41
1, 1425257, Control_c, 0, 64, 48
1, 1425271, Control_c, 0, 64, 53
1, 1425286, Control_c, 0, 64, 59
1, 1425301, Control_c, 0, 64, 64
1, 1425316, Control_c, 0, 64, 66
1, 1425329, Note_on_c, 0, 80, 59
1, 1425331, Note_off_c, 0, 64, 54
1, 1425331, Control_c, 0, 64, 69
1, 1425345, Control_c, 0, 64, 72
1, 1425360, Control_c, 0, 64, 74
1, 1425366, Note_on_c, 0, 68, 31
1, 1425375, Control_c, 0, 64, 76
1, 1425389, Control_c, 0, 64, 78
1, 1425404, Control_c, 0, 64, 80
1, 1425419, Control_c, 0, 64, 82
1, 1425434, Control_c, 0, 64, 84
1, 1425438, Note_off_c, 0, 76, 31
1, 1425449, Control_c, 0, 64, 86
1, 1425453, Note_off_c, 0, 81, 49
1, 1425463, Control_c, 0, 64, 87
1, 1425464, Note_off_c, 0, 74, 38
1, 1425478, Control_c, 0, 64, 88
1, 1425490, Note_on_c, 0, 64, 37
1, 1425493, Control_c, 0, 64, 88
1, 1425508, Control_c, 0, 64, 89
1, 1425515, Note_off_c, 0, 80, 58
1, 1425521, Note_off_c, 0, 68, 36
1, 1425537, Control_c, 0, 64, 89
1, 1425551, Note_off_c, 0, 59, 33
1, 1425644, Note_off_c, 0, 64, 32
1, 1425686, Control_c, 0, 64, 89
1, 1425719, Note_on_c, 0, 81, 49
1, 1425731, Control_c, 0, 64, 88
1, 1425746, Control_c, 0, 64, 88
1, 1425751, Note_on_c, 0, 76, 33
1, 1425751, Note_on_c, 0, 60, 39
1, 1425751, Note_on_c, 0, 72, 32
1, 1425760, Control_c, 0, 64, 87
1, 1425775, Control_c, 0, 64, 86
1, 1425790, Control_c, 0, 64, 84
1, 1425805, Control_c, 0, 64, 82
1, 1425820, Control_c, 0, 64, 79
1, 1425835, Control_c, 0, 64, 76
1, 1425850, Control_c, 0, 64, 73
1, 1425865, Control_c, 0, 64, 68
1, 1425879, Control_c, 0, 64, 62
1, 1425894, Control_c, 0, 64, 53
1, 1425916, Control_c, 0, 64, 45
1, 1425931, Control_c, 0, 64, 37
1, 1425946, Control_c, 0, 64, 30
1, 1425963, Note_on_c, 0, 64, 35
1, 1425990, Control_c, 0, 64, 38
1, 1426005, Control_c, 0, 64, 46
1, 1426020, Control_c, 0, 64, 53
1, 1426035, Control_c, 0, 64, 59
1, 1426049, Control_c, 0, 64, 63
1, 1426064, Control_c, 0, 64, 67
1, 1426079, Control_c, 0, 64, 70
1, 1426091, Note_off_c, 0, 72, 52
1, 1426094, Control_c, 0, 64, 73
1, 1426109, Control_c, 0, 64, 75
1, 1426124, Control_c, 0, 64, 78
1, 1426125, Note_on_c, 0, 69, 39
1, 1426129, Note_off_c, 0, 76, 55
1, 1426139, Note_off_c, 0, 64, 45
1, 1426139, Control_c, 0, 64, 81
1, 1426154, Control_c, 0, 64, 84
1, 1426163, Note_off_c, 0, 81, 63
1, 1426168, Control_c, 0, 64, 88
1, 1426183, Control_c, 0, 64, 90
1, 1426198, Control_c, 0, 64, 92
1, 1426212, Control_c, 0, 64, 94
1, 1426227, Control_c, 0, 64, 95
1, 1426264, Note_on_c, 0, 64, 45
1, 1426272, Control_c, 0, 64, 97
1, 1426276, Note_off_c, 0, 69, 37
1, 1426355, Note_off_c, 0, 60, 42
1, 1426373, Note_off_c, 0, 64, 52
1, 1426450, Control_c, 0, 64, 95
1, 1426455, Note_on_c, 0, 82, 64
1, 1426465, Control_c, 0, 64, 94
1, 1426476, Note_on_c, 0, 62, 47
1, 1426480, Control_c, 0, 64, 92
1, 1426495, Control_c, 0, 64, 89
1, 1426498, Note_on_c, 0, 77, 43
1, 1426509, Control_c, 0, 64, 85
1, 1426524, Control_c, 0, 64, 78
1, 1426539, Control_c, 0, 64, 68
1, 1426554, Control_c, 0, 64, 56
1, 1426569, Control_c, 0, 64, 37
1, 1426583, Control_c, 0, 64, 32
1, 1426598, Control_c, 0, 64, 35
1, 1426613, Control_c, 0, 64, 45
1, 1426628, Note_on_c, 0, 65, 43
1, 1426628, Control_c, 0, 64, 55
1, 1426643, Control_c, 0, 64, 62
1, 1426665, Control_c, 0, 64, 67
1, 1426677, Note_off_c, 0, 65, 61
1, 1426678, Note_off_c, 0, 62, 57
1, 1426680, Control_c, 0, 64, 72
1, 1426690, Note_off_c, 0, 77, 39
1, 1426695, Control_c, 0, 64, 76
1, 1426708, Note_off_c, 0, 82, 57
1, 1426709, Control_c, 0, 64, 78
1, 1426724, Control_c, 0, 64, 81
1, 1426739, Control_c, 0, 64, 84
1, 1426754, Control_c, 0, 64, 86
1, 1426769, Control_c, 0, 64, 87
1, 1426804, Note_on_c, 0, 84, 67
1, 1426807, Note_on_c, 0, 77, 55
1, 1426832, Note_on_c, 0, 69, 40
1, 1426836, Note_on_c, 0, 60, 41
1, 1426836, Note_on_c, 0, 65, 31
1, 1426842, Control_c, 0, 64, 86
1, 1426857, Control_c, 0, 64, 86
1, 1426869, Note_off_c, 0, 60, 55
1, 1426869, Note_off_c, 0, 69, 53
1, 1426872, Control_c, 0, 64, 84
1, 1426883, Note_off_c, 0, 77, 56
1, 1426887, Note_off_c, 0, 84, 61
1, 1426887, Control_c, 0, 64, 82
1, 1426893, Note_off_c, 0, 65, 43
1, 1426902, Control_c, 0, 64, 80
1, 1426917, Control_c, 0, 64, 79
1, 1426932, Control_c, 0, 64, 77
1, 1426947, Control_c, 0, 64, 74
1, 1426962, Control_c, 0, 64, 73
1, 1426977, Control_c, 0, 64, 71
1, 1426991, Control_c, 0, 64, 70
1, 1427002, Note_on_c, 0, 86, 61
1, 1427006, Control_c, 0, 64, 68
1, 1427009, Note_on_c, 0, 77, 52
1, 1427011, Note_on_c, 0, 70, 52
1, 1427014, Note_on_c, 0, 58, 54
1, 1427021, Control_c, 0, 64, 65
1, 1427035, Control_c, 0, 64, 62
1, 1427050, Control_c, 0, 64, 59
1, 1427057, Note_off_c, 0, 58, 60
1, 1427062, Note_off_c, 0, 70, 52
1, 1427065, Control_c, 0, 64, 56
1, 1427076, Note_off_c, 0, 86, 59
1, 1427080, Control_c, 0, 64, 51
1, 1427082, Note_off_c, 0, 77, 52
1, 1427095, Control_c, 0, 64, 45
1, 1427109, Control_c, 0, 64, 35
1, 1427124, Control_c, 0, 64, 0
1, 1427250, Note_on_c, 0, 84, 50
1, 1427265, Note_on_c, 0, 77, 37
1, 1427266, Note_on_c, 0, 69, 41
1, 1427275, Note_on_c, 0, 60, 34
1, 1427384, Note_off_c, 0, 60, 55
1, 1427396, Note_off_c, 0, 77, 49
1, 1427427, Note_off_c, 0, 84, 55
1, 1427438, Note_off_c, 0, 69, 49
1, 1427751, Note_on_c, 0, 84, 30
1, 1427762, Note_on_c, 0, 76, 34
1, 1427780, Note_on_c, 0, 67, 31
1, 1427787, Note_on_c, 0, 60, 23
1, 1427958, Note_off_c, 0, 84, 36
1, 1427971, Note_off_c, 0, 60, 44
1, 1428001, Note_off_c, 0, 76, 43
1, 1428035, Note_off_c, 0, 67, 45
1, 1429238, Control_c, 0, 64, 28
1, 1429253, Control_c, 0, 64, 31
1, 1429268, Control_c, 0, 64, 34
1, 1429283, Control_c, 0, 64, 39
1, 1429298, Control_c, 0, 64, 46
1, 1429312, Control_c, 0, 64, 51
1, 1429327, Control_c, 0, 64, 53
1, 1429342, Control_c, 0, 64, 55
1, 1429357, Control_c, 0, 64, 56
1, 1429372, Control_c, 0, 64, 57
1, 1429386, Control_c, 0, 64, 58
1, 1429401, Control_c, 0, 64, 60
1, 1429405, Note_on_c, 0, 72, 58
1, 1429416, Control_c, 0, 64, 62
1, 1429430, Control_c, 0, 64, 63
1, 1429445, Control_c, 0, 64, 64
1, 1429460, Control_c, 0, 64, 65
1, 1429463, Note_on_c, 0, 60, 22
1, 1429469, Note_on_c, 0, 45, 31
1, 1429475, Control_c, 0, 64, 66
1, 1429490, Control_c, 0, 64, 68
1, 1429504, Control_c, 0, 64, 69
1, 1429519, Control_c, 0, 64, 71
1, 1429534, Control_c, 0, 64, 72
1, 1429549, Control_c, 0, 64, 74
1, 1429564, Control_c, 0, 64, 75
1, 1429579, Control_c, 0, 64, 77
1, 1429594, Control_c, 0, 64, 80
1, 1429600, Note_on_c, 0, 48, 54
1, 1429609, Control_c, 0, 64, 82
1, 1429624, Control_c, 0, 64, 85
1, 1429639, Control_c, 0, 64, 87
1, 1429661, Control_c, 0, 64, 88
1, 1429676, Control_c, 0, 64, 90
1, 1429691, Control_c, 0, 64, 90
1, 1429705, Note_off_c, 0, 72, 58
1, 1429706, Control_c, 0, 64, 91
1, 1429716, Note_off_c, 0, 60, 43
1, 1429720, Control_c, 0, 64, 92
1, 1429720, Control_c, 0, 67, 118
1, 1429726, Note_off_c, 0, 48, 60
1, 1429734, Control_c, 0, 64, 93
1, 1429734, Control_c, 0, 67, 108
1, 1429743, Note_on_c, 0, 53, 64
1, 1429749, Control_c, 0, 67, 98
1, 1429764, Control_c, 0, 64, 93
1, 1429764, Control_c, 0, 67, 88
1, 1429779, Control_c, 0, 67, 83
1, 1429794, Control_c, 0, 67, 81
1, 1429823, Control_c, 0, 64, 94
1, 1429838, Control_c, 0, 67, 82
1, 1429853, Control_c, 0, 67, 82
1, 1429868, Control_c, 0, 67, 83
1, 1429869, Note_on_c, 0, 72, 71
1, 1429874, Note_on_c, 0, 48, 60
1, 1429883, Control_c, 0, 67, 84
1, 1429889, Note_on_c, 0, 60, 46
1, 1429890, Note_off_c, 0, 53, 52
1, 1429898, Control_c, 0, 67, 85
1, 1429922, Note_off_c, 0, 60, 59
1, 1429942, Control_c, 0, 67, 86
1, 1429957, Control_c, 0, 67, 87
1, 1429972, Note_off_c, 0, 48, 59
1, 1429972, Control_c, 0, 67, 88
1, 1429986, Control_c, 0, 64, 93
1, 1429986, Control_c, 0, 67, 88
1, 1430001, Control_c, 0, 67, 89
1, 1430016, Control_c, 0, 64, 92
1, 1430016, Control_c, 0, 67, 90
1, 1430031, Control_c, 0, 64, 91
1, 1430031, Control_c, 0, 67, 90
1, 1430045, Note_on_c, 0, 74, 81
1, 1430046, Control_c, 0, 64, 88
1, 1430046, Control_c, 0, 67, 91
1, 1430060, Note_on_c, 0, 42, 68
1, 1430060, Control_c, 0, 64, 80
1, 1430060, Control_c, 0, 67, 93
1, 1430070, Note_on_c, 0, 62, 56
1, 1430075, Control_c, 0, 64, 70
1, 1430075, Control_c, 0, 67, 93
1, 1430083, Note_off_c, 0, 72, 61
1, 1430090, Control_c, 0, 64, 58
1, 1430099, Note_off_c, 0, 45, 41
1, 1430105, Control_c, 0, 64, 41
1, 1430105, Control_c, 0, 67, 94
1, 1430120, Control_c, 0, 64, 0
1, 1430164, Control_c, 0, 64, 38
1, 1430178, Control_c, 0, 64, 53
1, 1430193, Control_c, 0, 64, 63
1, 1430202, Note_on_c, 0, 50, 59
1, 1430208, Control_c, 0, 64, 68
1, 1430223, Control_c, 0, 64, 73
1, 1430238, Control_c, 0, 64, 77
1, 1430238, Control_c, 0, 67, 95
1, 1430253, Control_c, 0, 64, 80
1, 1430253, Control_c, 0, 67, 95
1, 1430267, Control_c, 0, 64, 84
1, 1430282, Control_c, 0, 64, 89
1, 1430296, Note_off_c, 0, 42, 60
1, 1430297, Control_c, 0, 64, 95
1, 1430312, Control_c, 0, 64, 99
1, 1430327, Control_c, 0, 64, 103
1, 1430327, Control_c, 0, 67, 98
1, 1430337, Note_on_c, 0, 57, 62
1, 1430342, Control_c, 0, 64, 106
1, 1430348, Note_off_c, 0, 50, 62
1, 1430363, Note_off_c, 0, 62, 61
1, 1430371, Control_c, 0, 64, 108
1, 1430375, Note_off_c, 0, 74, 63
1, 1430386, Control_c, 0, 67, 100
1, 1430408, Control_c, 0, 64, 110
1, 1430449, Note_off_c, 0, 57, 53
1, 1430454, Control_c, 0, 67, 102
1, 1430476, Note_on_c, 0, 50, 55
1, 1430557, Control_c, 0, 67, 104
1, 1430601, Control_c, 0, 64, 107
1, 1430616, Control_c, 0, 64, 105
1, 1430631, Control_c, 0, 64, 102
1, 1430646, Control_c, 0, 64, 98
1, 1430646, Control_c, 0, 67, 106
1, 1430661, Control_c, 0, 64, 95
1, 1430664, Note_on_c, 0, 72, 64
1, 1430670, Note_off_c, 0, 50, 46
1, 1430675, Control_c, 0, 64, 91
1, 1430690, Control_c, 0, 64, 86
1, 1430690, Control_c, 0, 67, 109
1, 1430693, Note_on_c, 0, 43, 47
1, 1430705, Control_c, 0, 64, 80
1, 1430705, Control_c, 0, 67, 114
1, 1430717, Note_on_c, 0, 60, 44
1, 1430720, Control_c, 0, 64, 72
1, 1430720, Control_c, 0, 67, 122
1, 1430735, Control_c, 0, 64, 63
1, 1430735, Control_c, 0, 67, 127
1, 1430750, Control_c, 0, 64, 47
1, 1430764, Control_c, 0, 64, 0
1, 1430810, Note_on_c, 0, 50, 49
1, 1430813, Note_off_c, 0, 60, 54
1, 1430838, Control_c, 0, 64, 34
1, 1430853, Control_c, 0, 64, 50
1, 1430868, Control_c, 0, 64, 60
1, 1430882, Control_c, 0, 64, 63
1, 1430897, Control_c, 0, 64, 64
1, 1430912, Control_c, 0, 64, 65
1, 1430927, Control_c, 0, 64, 67
1, 1430942, Control_c, 0, 64, 69
1, 1430956, Control_c, 0, 64, 71
1, 1430959, Note_on_c, 0, 71, 63
1, 1430967, Note_off_c, 0, 50, 61
1, 1430971, Control_c, 0, 64, 72
1, 1430983, Note_on_c, 0, 55, 48
1, 1430986, Control_c, 0, 64, 73
1, 1430991, Note_on_c, 0, 59, 48
1, 1430991, Note_off_c, 0, 72, 59
1, 1431001, Control_c, 0, 64, 74
1, 1431016, Control_c, 0, 64, 75
1, 1431022, Note_off_c, 0, 71, 60
1, 1431023, Note_off_c, 0, 59, 54
1, 1431031, Control_c, 0, 64, 75
1, 1431045, Control_c, 0, 64, 76
1, 1431071, Note_off_c, 0, 55, 55
1, 1431075, Control_c, 0, 64, 76
1, 1431101, Note_on_c, 0, 50, 52
1, 1431134, Note_off_c, 0, 43, 32
1, 1431275, Note_on_c, 0, 67, 70
1, 1431288, Note_off_c, 0, 50, 27
1, 1431289, Note_on_c, 0, 43, 48
1, 1431291, Control_c, 0, 64, 76
1, 1431303, Note_on_c, 0, 55, 49
1, 1431320, Control_c, 0, 64, 75
1, 1431335, Control_c, 0, 64, 74
1, 1431350, Control_c, 0, 64, 70
1, 1431365, Control_c, 0, 64, 62
1, 1431379, Control_c, 0, 64, 47
1, 1431394, Control_c, 0, 64, 0
1, 1431403, Note_on_c, 0, 50, 57
1, 1431406, Note_off_c, 0, 55, 44
1, 1431454, Control_c, 0, 67, 123
1, 1431469, Control_c, 0, 64, 36
1, 1431469, Control_c, 0, 67, 120
1, 1431484, Control_c, 0, 64, 53
1, 1431484, Control_c, 0, 67, 116
1, 1431498, Control_c, 0, 64, 62
1, 1431498, Control_c, 0, 67, 108
1, 1431513, Control_c, 0, 64, 66
1, 1431513, Control_c, 0, 67, 90
1, 1431528, Control_c, 0, 64, 69
1, 1431528, Control_c, 0, 67, 65
1, 1431543, Control_c, 0, 64, 71
1, 1431543, Control_c, 0, 67, 0
1, 1431552, Note_off_c, 0, 50, 61
1, 1431558, Control_c, 0, 64, 74
1, 1431558, Note_on_c, 0, 55, 63
1, 1431572, Control_c, 0, 64, 78
1, 1431587, Control_c, 0, 64, 82
1, 1431602, Control_c, 0, 64, 86
1, 1431617, Control_c, 0, 64, 90
1, 1431631, Control_c, 0, 64, 95
1, 1431646, Control_c, 0, 64, 98
1, 1431661, Control_c, 0, 64, 101
1, 1431668, Note_off_c, 0, 55, 59
1, 1431674, Note_off_c, 0, 67, 60
1, 1431676, Control_c, 0, 64, 104
1, 1431681, Note_on_c, 0, 50, 61
1, 1431683, Note_off_c, 0, 43, 56
1, 1431686, Note_on_c, 0, 69, 74
1, 1431700, Note_on_c, 0, 57, 56
1, 1431718, Note_off_c, 0, 50, 65
1, 1431720, Control_c, 0, 64, 106
1, 1431733, Note_off_c, 0, 57, 63
1, 1431868, Control_c, 0, 64, 102
1, 1431883, Control_c, 0, 64, 98
1, 1431905, Control_c, 0, 64, 94
1, 1431920, Control_c, 0, 64, 87
1, 1431922, Note_on_c, 0, 70, 68
1, 1431923, Note_off_c, 0, 69, 57
1, 1431935, Control_c, 0, 64, 78
1, 1431937, Note_on_c, 0, 38, 73
1, 1431949, Control_c, 0, 64, 67
1, 1431964, Note_on_c, 0, 58, 26
1, 1431964, Control_c, 0, 64, 52
1, 1431979, Control_c, 0, 64, 31
1, 1431994, Control_c, 0, 64, 0
1, 1432009, Control_c, 0, 64, 31
1, 1432025, Control_c, 0, 64, 43
1, 1432040, Control_c, 0, 64, 56
1, 1432054, Control_c, 0, 64, 64
1, 1432069, Control_c, 0, 64, 70
1, 1432084, Control_c, 0, 64, 78
1, 1432091, Note_off_c, 0, 38, 62
1, 1432099, Control_c, 0, 64, 84
1, 1432108, Note_on_c, 0, 50, 60
1, 1432114, Control_c, 0, 64, 89
1, 1432128, Control_c, 0, 64, 95
1, 1432143, Control_c, 0, 64, 101
1, 1432158, Control_c, 0, 64, 108
1, 1432173, Control_c, 0, 64, 120
1, 1432188, Control_c, 0, 64, 127
1, 1432196, Note_off_c, 0, 58, 41
1, 1432233, Note_off_c, 0, 70, 51
1, 1432275, Note_on_c, 0, 53, 59
1, 1432277, Note_off_c, 0, 50, 46
1, 1432351, Note_off_c, 0, 53, 60
1, 1432403, Note_on_c, 0, 70, 65
1, 1432409, Note_on_c, 0, 58, 52
1, 1432410, Note_on_c, 0, 50, 48
1, 1432459, Note_off_c, 0, 58, 59
1, 1432528, Control_c, 0, 64, 118
1, 1432543, Control_c, 0, 64, 111
1, 1432558, Control_c, 0, 64, 106
1, 1432572, Control_c, 0, 64, 101
1, 1432587, Control_c, 0, 64, 96
1, 1432602, Control_c, 0, 64, 90
1, 1432604, Note_off_c, 0, 50, 52
1, 1432610, Note_on_c, 0, 72, 62
1, 1432615, Note_on_c, 0, 40, 49
1, 1432617, Control_c, 0, 64, 84
1, 1432632, Control_c, 0, 64, 76
1, 1432640, Note_on_c, 0, 60, 41
1, 1432654, Control_c, 0, 64, 67
1, 1432662, Note_off_c, 0, 70, 37
1, 1432669, Control_c, 0, 64, 55
1, 1432684, Control_c, 0, 64, 35
1, 1432699, Control_c, 0, 64, 0
1, 1432758, Control_c, 0, 64, 46
1, 1432772, Control_c, 0, 64, 60
1, 1432787, Control_c, 0, 64, 68
1, 1432796, Note_on_c, 0, 48, 53
1, 1432802, Control_c, 0, 64, 73
1, 1432805, Note_off_c, 0, 40, 37
1, 1432817, Control_c, 0, 64, 77
1, 1432833, Control_c, 0, 64, 81
1, 1432848, Control_c, 0, 64, 87
1, 1432863, Control_c, 0, 64, 92
1, 1432877, Control_c, 0, 64, 97
1, 1432892, Control_c, 0, 64, 102
1, 1432907, Control_c, 0, 64, 104
1, 1432923, Note_off_c, 0, 48, 52
1, 1432935, Note_off_c, 0, 60, 56
1, 1432941, Note_on_c, 0, 55, 51
1, 1432993, Note_off_c, 0, 72, 49
1, 1433045, Note_off_c, 0, 55, 51
1, 1433067, Note_on_c, 0, 48, 53
1, 1433144, Control_c, 0, 64, 102
1, 1433159, Control_c, 0, 64, 100
1, 1433174, Control_c, 0, 64, 98
1, 1433189, Control_c, 0, 64, 95
1, 1433203, Control_c, 0, 64, 93
1, 1433218, Control_c, 0, 64, 91
1, 1433233, Note_off_c, 0, 48, 36
1, 1433233, Control_c, 0, 64, 88
1, 1433248, Control_c, 0, 64, 85
1, 1433248, Note_on_c, 0, 65, 51
1, 1433263, Control_c, 0, 64, 82
1, 1433277, Control_c, 0, 64, 79
1, 1433279, Note_on_c, 0, 45, 38
1, 1433292, Control_c, 0, 64, 77
1, 1433295, Note_off_c, 0, 65, 60
1, 1433307, Control_c, 0, 64, 73
1, 1433307, Control_c, 0, 67, 38
1, 1433322, Control_c, 0, 64, 70
1, 1433322, Control_c, 0, 67, 45
1, 1433326, Note_on_c, 0, 67, 65
1, 1433337, Control_c, 0, 64, 66
1, 1433337, Control_c, 0, 67, 50
1, 1433351, Control_c, 0, 64, 62
1, 1433351, Control_c, 0, 67, 53
1, 1433366, Control_c, 0, 64, 58
1, 1433366, Control_c, 0, 67, 55
1, 1433367, Note_off_c, 0, 67, 62
1, 1433381, Control_c, 0, 64, 54
1, 1433381, Control_c, 0, 67, 58
1, 1433403, Control_c, 0, 64, 43
1, 1433403, Control_c, 0, 67, 63
1, 1433403, Note_on_c, 0, 65, 65
1, 1433418, Control_c, 0, 64, 0
1, 1433418, Control_c, 0, 67, 67
1, 1433424, Note_on_c, 0, 48, 43
1, 1433433, Control_c, 0, 67, 71
1, 1433448, Control_c, 0, 67, 75
1, 1433463, Control_c, 0, 67, 79
1, 1433465, Note_off_c, 0, 65, 58
1, 1433477, Control_c, 0, 67, 83
1, 1433487, Note_on_c, 0, 64, 67
1, 1433492, Control_c, 0, 67, 86
1, 1433507, Control_c, 0, 67, 90
1, 1433521, Control_c, 0, 67, 91
1, 1433536, Control_c, 0, 67, 93
1, 1433541, Note_off_c, 0, 64, 64
1, 1433546, Note_off_c, 0, 48, 50
1, 1433558, Note_on_c, 0, 53, 44
1, 1433558, Note_on_c, 0, 65, 64
1, 1433678, Note_off_c, 0, 65, 58
1, 1433706, Note_off_c, 0, 53, 50
1, 1433710, Note_on_c, 0, 67, 61
1, 1433737, Note_on_c, 0, 48, 26
1, 1433745, Control_c, 0, 67, 92
1, 1433836, Note_off_c, 0, 45, 35
1, 1433879, Note_off_c, 0, 67, 59
1, 1433899, Note_off_c, 0, 48, 31
1, 1433901, Note_on_c, 0, 69, 50
1, 1433927, Note_on_c, 0, 65, 32
1, 1433937, Note_on_c, 0, 60, 33
1, 1433937, Control_c, 0, 67, 93
1, 1433952, Control_c, 0, 67, 93
1, 1433955, Note_on_c, 0, 41, 33
1, 1433967, Control_c, 0, 67, 94
1, 1433982, Control_c, 0, 67, 94
1, 1433997, Control_c, 0, 67, 95
1, 1434026, Control_c, 0, 67, 97
1, 1434056, Control_c, 0, 67, 109
1, 1434071, Control_c, 0, 67, 127
1, 1434108, Note_on_c, 0, 48, 34
1, 1434152, Control_c, 0, 64, 33
1, 1434166, Control_c, 0, 64, 44
1, 1434181, Control_c, 0, 64, 53
1, 1434196, Control_c, 0, 64, 58
1, 1434211, Control_c, 0, 64, 60
1, 1434226, Control_c, 0, 64, 63
1, 1434241, Control_c, 0, 64, 65
1, 1434256, Control_c, 0, 64, 68
1, 1434271, Control_c, 0, 64, 71
1, 1434286, Note_on_c, 0, 53, 35
1, 1434286, Control_c, 0, 64, 73
1, 1434292, Note_off_c, 0, 48, 37
1, 1434300, Control_c, 0, 64, 74
1, 1434315, Control_c, 0, 64, 76
1, 1434330, Control_c, 0, 64, 78
1, 1434344, Control_c, 0, 64, 79
1, 1434359, Control_c, 0, 64, 80
1, 1434374, Control_c, 0, 64, 81
1, 1434389, Control_c, 0, 64, 82
1, 1434419, Control_c, 0, 64, 82
1, 1434465, Note_off_c, 0, 60, 39
1, 1434497, Note_off_c, 0, 65, 37
1, 1434504, Note_on_c, 0, 48, 22
1, 1434504, Note_off_c, 0, 69, 34
1, 1434542, Note_off_c, 0, 41, 39
1, 1434575, Note_off_c, 0, 53, 35
1, 1434627, Control_c, 0, 64, 82
1, 1434655, Note_off_c, 0, 48, 38
1, 1434686, Control_c, 0, 64, 81
1, 1434701, Control_c, 0, 64, 81
1, 1434715, Control_c, 0, 64, 80
1, 1434730, Control_c, 0, 64, 77
1, 1434745, Control_c, 0, 64, 75
1, 1434760, Control_c, 0, 64, 72
1, 1434775, Control_c, 0, 64, 69
1, 1434789, Control_c, 0, 64, 66
1, 1434804, Control_c, 0, 64, 62
1, 1434819, Control_c, 0, 64, 59
1, 1434834, Control_c, 0, 64, 55
1, 1434849, Control_c, 0, 64, 53
1, 1434864, Control_c, 0, 64, 50
1, 1434879, Control_c, 0, 64, 47
1, 1434901, Control_c, 0, 64, 44
1, 1434916, Control_c, 0, 64, 41
1, 1434930, Control_c, 0, 64, 38
1, 1434945, Control_c, 0, 64, 36
1, 1434961, Control_c, 0, 64, 35
1, 1434975, Control_c, 0, 64, 35
1, 1434990, Control_c, 0, 64, 33
1, 1435005, Control_c, 0, 64, 32
1, 1435436, Control_c, 0, 64, 33
1, 1435451, Control_c, 0, 64, 34
1, 1435465, Control_c, 0, 64, 35
1, 1435480, Control_c, 0, 64, 36
1, 1435495, Control_c, 0, 64, 38
1, 1435510, Control_c, 0, 64, 40
1, 1435525, Control_c, 0, 64, 41
1, 1435539, Control_c, 0, 64, 44
1, 1435554, Control_c, 0, 64, 47
1, 1435569, Control_c, 0, 64, 51
1, 1435584, Control_c, 0, 64, 53
1, 1435598, Control_c, 0, 64, 55
1, 1435613, Control_c, 0, 64, 56
1, 1435628, Control_c, 0, 64, 57
1, 1435651, Control_c, 0, 64, 59
1, 1435666, Control_c, 0, 64, 60
1, 1435680, Control_c, 0, 64, 61
1, 1435709, Control_c, 0, 64, 61
1, 1435709, Control_c, 0, 67, 125
1, 1435723, Control_c, 0, 64, 62
1, 1435723, Control_c, 0, 67, 111
1, 1435738, Control_c, 0, 64, 63
1, 1435738, Control_c, 0, 67, 95
1, 1435753, Control_c, 0, 64, 64
1, 1435753, Control_c, 0, 67, 80
1, 1435768, Control_c, 0, 64, 65
1, 1435768, Control_c, 0, 67, 70
1, 1435783, Control_c, 0, 64, 66
1, 1435783, Control_c, 0, 67, 68
1, 1435797, Control_c, 0, 64, 66
1, 1435812, Control_c, 0, 64, 67
1, 1435827, Control_c, 0, 64, 67
1, 1435842, Control_c, 0, 64, 68
1, 1435842, Control_c, 0, 67, 68
1, 1435857, Control_c, 0, 64, 68
1, 1435872, Control_c, 0, 67, 69
1, 1435886, Control_c, 0, 67, 69
1, 1435916, Control_c, 0, 64, 69
1, 1435916, Control_c, 0, 67, 70
1, 1435931, Control_c, 0, 67, 71
1, 1435946, Control_c, 0, 67, 72
1, 1435961, Control_c, 0, 64, 69
1, 1435961, Control_c, 0, 67, 72
1, 1435976, Control_c, 0, 67, 73
1, 1435990, Control_c, 0, 64, 70
1, 1435990, Control_c, 0, 67, 74
1, 1436005, Control_c, 0, 64, 71
1, 1436005, Control_c, 0, 67, 75
1, 1436021, Control_c, 0, 64, 72
1, 1436021, Control_c, 0, 67, 76
1, 1436036, Control_c, 0, 64, 73
1, 1436036, Control_c, 0, 67, 78
1, 1436050, Control_c, 0, 64, 73
1, 1436050, Control_c, 0, 67, 79
1, 1436065, Control_c, 0, 64, 74
1, 1436065, Control_c, 0, 67, 80
1, 1436080, Control_c, 0, 64, 75
1, 1436080, Control_c, 0, 67, 82
1, 1436095, Control_c, 0, 64, 75
1, 1436095, Control_c, 0, 67, 83
1, 1436110, Control_c, 0, 64, 76
1, 1436110, Control_c, 0, 67, 84
1, 1436125, Control_c, 0, 64, 76
1, 1436125, Control_c, 0, 67, 87
1, 1436140, Control_c, 0, 67, 88
1, 1436155, Control_c, 0, 64, 77
1, 1436155, Control_c, 0, 67, 90
1, 1436169, Control_c, 0, 64, 77
1, 1436169, Control_c, 0, 67, 92
1, 1436184, Control_c, 0, 64, 78
1, 1436184, Control_c, 0, 67, 94
1, 1436199, Control_c, 0, 67, 100
1, 1436213, Control_c, 0, 64, 78
1, 1436213, Control_c, 0, 67, 117
1, 1436228, Control_c, 0, 64, 79
1, 1436228, Control_c, 0, 67, 127
1, 1436346, Control_c, 0, 64, 79
1, 1436473, Note_on_c, 0, 81, 44
1, 1436473, Control_c, 0, 64, 80
1, 1436518, Note_on_c, 0, 53, 23
1, 1436550, Note_off_c, 0, 81, 61
1, 1436582, Note_on_c, 0, 83, 54
1, 1436650, Note_off_c, 0, 83, 59
1, 1436673, Note_on_c, 0, 81, 54
1, 1436712, Note_on_c, 0, 60, 25
1, 1436738, Note_off_c, 0, 81, 59
1, 1436754, Control_c, 0, 64, 79
1, 1436755, Note_on_c, 0, 80, 64
1, 1436829, Note_off_c, 0, 80, 60
1, 1436843, Note_on_c, 0, 81, 72
1, 1436863, Note_off_c, 0, 60, 43
1, 1436879, Note_on_c, 0, 65, 32
1, 1436888, Control_c, 0, 64, 79
1, 1436918, Control_c, 0, 64, 78
1, 1436933, Control_c, 0, 64, 77
1, 1436948, Control_c, 0, 64, 77
1, 1436972, Note_off_c, 0, 81, 60
1, 1436977, Control_c, 0, 64, 76
1, 1436992, Control_c, 0, 64, 76
1, 1437022, Control_c, 0, 64, 75
1, 1437027, Note_on_c, 0, 83, 70
1, 1437036, Control_c, 0, 64, 75
1, 1437045, Note_off_c, 0, 65, 38
1, 1437051, Control_c, 0, 64, 74
1, 1437055, Note_on_c, 0, 60, 36
1, 1437065, Note_off_c, 0, 53, 40
1, 1437066, Control_c, 0, 64, 73
1, 1437081, Control_c, 0, 64, 72
1, 1437096, Control_c, 0, 64, 71
1, 1437110, Control_c, 0, 64, 71
1, 1437114, Note_off_c, 0, 83, 59
1, 1437115, Note_off_c, 0, 60, 53
1, 1437125, Control_c, 0, 64, 70
1, 1437147, Control_c, 0, 64, 70
1, 1437162, Control_c, 0, 64, 69
1, 1437177, Control_c, 0, 64, 68
1, 1437192, Control_c, 0, 64, 67
1, 1437207, Control_c, 0, 64, 67
1, 1437222, Control_c, 0, 64, 66
1, 1437237, Control_c, 0, 64, 65
1, 1437251, Control_c, 0, 64, 65
1, 1437266, Control_c, 0, 64, 64
1, 1437281, Control_c, 0, 64, 64
1, 1437311, Control_c, 0, 64, 63
1, 1437317, Note_on_c, 0, 84, 58
1, 1437325, Control_c, 0, 64, 62
1, 1437340, Control_c, 0, 64, 62
1, 1437355, Note_on_c, 0, 75, 29
1, 1437355, Control_c, 0, 64, 61
1, 1437369, Note_on_c, 0, 53, 24
1, 1437374, Note_on_c, 0, 81, 21
1, 1437384, Control_c, 0, 64, 60
1, 1437399, Control_c, 0, 64, 60
1, 1437414, Control_c, 0, 64, 59
1, 1437429, Control_c, 0, 64, 58
1, 1437443, Control_c, 0, 64, 56
1, 1437458, Control_c, 0, 64, 54
1, 1437473, Control_c, 0, 64, 50
1, 1437488, Control_c, 0, 64, 40
1, 1437503, Control_c, 0, 64, 0
1, 1437569, Note_on_c, 0, 60, 23
1, 1437606, Control_c, 0, 64, 35
1, 1437622, Control_c, 0, 64, 44
1, 1437637, Control_c, 0, 64, 52
1, 1437652, Control_c, 0, 64, 58
1, 1437666, Control_c, 0, 64, 60
1, 1437681, Control_c, 0, 64, 60
1, 1437696, Control_c, 0, 64, 61
1, 1437711, Control_c, 0, 64, 63
1, 1437726, Control_c, 0, 64, 63
1, 1437741, Control_c, 0, 64, 64
1, 1437755, Control_c, 0, 64, 64
1, 1437763, Note_on_c, 0, 65, 30
1, 1437770, Note_off_c, 0, 60, 40
1, 1437800, Control_c, 0, 64, 65
1, 1437995, Note_off_c, 0, 75, 35
1, 1438000, Control_c, 0, 64, 64
1, 1438001, Note_off_c, 0, 84, 33
1, 1438002, Note_on_c, 0, 60, 24
1, 1438002, Note_off_c, 0, 65, 39
1, 1438073, Note_off_c, 0, 81, 42
1, 1438089, Control_c, 0, 64, 64
1, 1438119, Control_c, 0, 64, 63
1, 1438149, Control_c, 0, 64, 63
1, 1438179, Control_c, 0, 64, 62
1, 1438193, Control_c, 0, 64, 61
1, 1438208, Control_c, 0, 64, 61
1, 1438223, Control_c, 0, 64, 60
1, 1438238, Control_c, 0, 64, 59
1, 1438252, Note_off_c, 0, 53, 35
1, 1438253, Control_c, 0, 64, 59
1, 1438267, Control_c, 0, 64, 58
1, 1438282, Control_c, 0, 64, 57
1, 1438297, Control_c, 0, 64, 56
1, 1438312, Control_c, 0, 64, 56
1, 1438326, Control_c, 0, 64, 55
1, 1438341, Control_c, 0, 64, 54
1, 1438348, Note_off_c, 0, 60, 40
1, 1438356, Control_c, 0, 64, 53
1, 1438371, Control_c, 0, 64, 52
1, 1438385, Control_c, 0, 64, 51
1, 1438400, Control_c, 0, 64, 50
1, 1438416, Control_c, 0, 64, 50
1, 1438431, Control_c, 0, 64, 48
1, 1438446, Control_c, 0, 64, 47
1, 1438461, Control_c, 0, 64, 45
1, 1438476, Control_c, 0, 64, 43
1, 1438490, Control_c, 0, 64, 42
1, 1438505, Control_c, 0, 64, 40
1, 1438520, Control_c, 0, 64, 37
1, 1438535, Control_c, 0, 64, 34
1, 1438550, Control_c, 0, 64, 32
1, 1438564, Control_c, 0, 64, 30
1, 1438594, Control_c, 0, 64, 0
1, 1439410, Control_c, 0, 64, 28
1, 1439425, Control_c, 0, 64, 31
1, 1439439, Control_c, 0, 64, 33
1, 1439454, Control_c, 0, 64, 35
1, 1439469, Control_c, 0, 64, 35
1, 1439484, Control_c, 0, 64, 36
1, 1439499, Control_c, 0, 64, 37
1, 1439513, Control_c, 0, 64, 39
1, 1439528, Control_c, 0, 64, 41
1, 1439543, Control_c, 0, 64, 42
1, 1439558, Control_c, 0, 64, 44
1, 1439572, Control_c, 0, 64, 44
1, 1439587, Control_c, 0, 64, 45
1, 1439602, Control_c, 0, 64, 45
1, 1439617, Control_c, 0, 64, 46
1, 1439632, Control_c, 0, 64, 48
1, 1439646, Control_c, 0, 64, 49
1, 1439661, Control_c, 0, 64, 50
1, 1439676, Control_c, 0, 64, 51
1, 1439691, Control_c, 0, 64, 51
1, 1439706, Control_c, 0, 64, 52
1, 1439720, Control_c, 0, 64, 53
1, 1439735, Control_c, 0, 64, 54
1, 1439750, Control_c, 0, 64, 55
1, 1439765, Control_c, 0, 64, 57
1, 1439780, Control_c, 0, 64, 57
1, 1439794, Control_c, 0, 64, 58
1, 1439809, Control_c, 0, 64, 58
1, 1439824, Note_on_c, 0, 69, 35
1, 1439824, Control_c, 0, 64, 59
1, 1439839, Control_c, 0, 64, 60
1, 1439844, Note_on_c, 0, 49, 31
1, 1439854, Control_c, 0, 64, 61
1, 1439869, Control_c, 0, 64, 62
1, 1439883, Control_c, 0, 64, 63
1, 1439884, Note_off_c, 0, 69, 59
1, 1439898, Control_c, 0, 64, 64
1, 1439913, Control_c, 0, 64, 65
1, 1439920, Note_on_c, 0, 71, 51
1, 1439928, Control_c, 0, 64, 66
1, 1439943, Control_c, 0, 64, 67
1, 1439957, Control_c, 0, 64, 69
1, 1439972, Control_c, 0, 64, 70
1, 1439982, Note_on_c, 0, 52, 43
1, 1439984, Note_off_c, 0, 71, 61
1, 1439987, Control_c, 0, 64, 72
1, 1439994, Note_on_c, 0, 69, 62
1, 1440002, Control_c, 0, 64, 74
1, 1440018, Control_c, 0, 64, 77
1, 1440033, Control_c, 0, 64, 80
1, 1440048, Control_c, 0, 64, 82
1, 1440062, Control_c, 0, 64, 85
1, 1440074, Note_off_c, 0, 69, 60
1, 1440077, Control_c, 0, 64, 87
1, 1440087, Note_on_c, 0, 68, 64
1, 1440092, Control_c, 0, 64, 89
1, 1440107, Control_c, 0, 64, 90
1, 1440122, Control_c, 0, 64, 90
1, 1440131, Note_off_c, 0, 52, 37
1, 1440143, Control_c, 0, 64, 91
1, 1440146, Note_on_c, 0, 57, 41
1, 1440158, Note_on_c, 0, 69, 73
1, 1440173, Note_off_c, 0, 68, 59
1, 1440173, Control_c, 0, 64, 91
1, 1440247, Control_c, 0, 67, 121
1, 1440261, Control_c, 0, 67, 103
1, 1440276, Control_c, 0, 67, 83
1, 1440282, Note_off_c, 0, 57, 52
1, 1440291, Note_off_c, 0, 69, 47
1, 1440291, Control_c, 0, 67, 63
1, 1440306, Control_c, 0, 67, 37
1, 1440307, Note_on_c, 0, 71, 73
1, 1440321, Control_c, 0, 67, 0
1, 1440333, Note_on_c, 0, 52, 36
1, 1440380, Control_c, 0, 64, 91
1, 1440439, Control_c, 0, 64, 90
1, 1440454, Control_c, 0, 64, 90
1, 1440459, Note_off_c, 0, 52, 32
1, 1440468, Control_c, 0, 64, 89
1, 1440483, Control_c, 0, 64, 88
1, 1440497, Note_off_c, 0, 49, 34
1, 1440498, Control_c, 0, 64, 87
1, 1440513, Control_c, 0, 64, 85
1, 1440528, Control_c, 0, 64, 84
1, 1440543, Control_c, 0, 64, 82
1, 1440549, Note_on_c, 0, 73, 62
1, 1440558, Control_c, 0, 64, 80
1, 1440572, Control_c, 0, 64, 78
1, 1440575, Note_off_c, 0, 71, 55
1, 1440587, Control_c, 0, 64, 76
1, 1440587, Note_on_c, 0, 64, 35
1, 1440596, Note_on_c, 0, 69, 31
1, 1440602, Control_c, 0, 64, 73
1, 1440617, Control_c, 0, 64, 70
1, 1440620, Note_on_c, 0, 45, 23
1, 1440632, Control_c, 0, 64, 67
1, 1440647, Control_c, 0, 64, 63
1, 1440661, Control_c, 0, 64, 58
1, 1440676, Control_c, 0, 64, 51
1, 1440691, Control_c, 0, 64, 42
1, 1440705, Control_c, 0, 64, 0
1, 1440778, Note_on_c, 0, 52, 41
1, 1440780, Control_c, 0, 64, 33
1, 1440794, Control_c, 0, 64, 43
1, 1440810, Control_c, 0, 64, 53
1, 1440825, Control_c, 0, 64, 61
1, 1440840, Control_c, 0, 64, 64
1, 1440855, Control_c, 0, 64, 66
1, 1440870, Control_c, 0, 64, 69
1, 1440891, Control_c, 0, 64, 73
1, 1440892, Note_off_c, 0, 52, 58
1, 1440906, Control_c, 0, 64, 77
1, 1440921, Control_c, 0, 64, 81
1, 1440927, Note_on_c, 0, 57, 44
1, 1440927, Note_off_c, 0, 64, 41
1, 1440936, Control_c, 0, 64, 84
1, 1440951, Control_c, 0, 64, 90
1, 1440966, Control_c, 0, 64, 95
1, 1440981, Control_c, 0, 64, 102
1, 1440994, Note_off_c, 0, 69, 41
1, 1440996, Control_c, 0, 64, 109
1, 1441001, Note_off_c, 0, 73, 61
1, 1441011, Control_c, 0, 64, 120
1, 1441025, Control_c, 0, 64, 127
1, 1441043, Note_off_c, 0, 45, 38
1, 1441061, Note_on_c, 0, 52, 44
1, 1441070, Note_off_c, 0, 57, 55
1, 1441095, Note_off_c, 0, 52, 63
1, 1441203, Control_c, 0, 64, 92
1, 1441217, Control_c, 0, 64, 73
1, 1441220, Note_on_c, 0, 71, 52
1, 1441230, Note_on_c, 0, 69, 38
1, 1441232, Control_c, 0, 64, 61
1, 1441246, Note_on_c, 0, 66, 40
1, 1441247, Control_c, 0, 64, 55
1, 1441262, Control_c, 0, 64, 57
1, 1441264, Note_on_c, 0, 50, 40
1, 1441277, Control_c, 0, 64, 60
1, 1441291, Control_c, 0, 64, 63
1, 1441306, Control_c, 0, 64, 66
1, 1441321, Control_c, 0, 64, 72
1, 1441336, Control_c, 0, 64, 80
1, 1441350, Control_c, 0, 64, 87
1, 1441354, Note_off_c, 0, 71, 53
1, 1441360, Note_off_c, 0, 66, 39
1, 1441365, Note_off_c, 0, 69, 37
1, 1441365, Control_c, 0, 64, 91
1, 1441380, Control_c, 0, 64, 92
1, 1441390, Note_on_c, 0, 54, 51
1, 1441410, Control_c, 0, 64, 89
1, 1441425, Control_c, 0, 64, 80
1, 1441440, Control_c, 0, 64, 69
1, 1441455, Control_c, 0, 64, 57
1, 1441470, Control_c, 0, 64, 49
1, 1441484, Control_c, 0, 64, 51
1, 1441492, Note_off_c, 0, 54, 56
1, 1441499, Control_c, 0, 64, 58
1, 1441514, Control_c, 0, 64, 64
1, 1441520, Note_on_c, 0, 71, 69
1, 1441523, Note_on_c, 0, 69, 51
1, 1441528, Control_c, 0, 64, 70
1, 1441532, Note_on_c, 0, 59, 52
1, 1441534, Note_on_c, 0, 66, 63
1, 1441543, Control_c, 0, 64, 78
1, 1441558, Control_c, 0, 64, 85
1, 1441573, Control_c, 0, 64, 89
1, 1441588, Control_c, 0, 64, 94
1, 1441598, Note_off_c, 0, 69, 62
1, 1441604, Control_c, 0, 64, 99
1, 1441619, Control_c, 0, 64, 105
1, 1441620, Note_off_c, 0, 66, 58
1, 1441640, Control_c, 0, 64, 110
1, 1441653, Note_off_c, 0, 71, 58
1, 1441655, Control_c, 0, 64, 112
1, 1441663, Note_on_c, 0, 54, 42
1, 1441670, Control_c, 0, 64, 114
1, 1441681, Note_off_c, 0, 59, 51
1, 1441786, Note_off_c, 0, 54, 44
1, 1441804, Note_off_c, 0, 50, 36
1, 1441804, Control_c, 0, 64, 110
1, 1441815, Note_on_c, 0, 71, 74
1, 1441819, Control_c, 0, 64, 95
1, 1441831, Note_on_c, 0, 52, 54
1, 1441834, Control_c, 0, 64, 75
1, 1441836, Note_on_c, 0, 64, 59
1, 1441848, Control_c, 0, 64, 57
1, 1441858, Note_on_c, 0, 68, 45
1, 1441863, Control_c, 0, 64, 0
1, 1441903, Note_off_c, 0, 68, 57
1, 1441923, Control_c, 0, 64, 28
1, 1441929, Note_off_c, 0, 64, 52
1, 1441938, Control_c, 0, 64, 46
1, 1441953, Control_c, 0, 64, 59
1, 1441956, Note_on_c, 0, 56, 59
1, 1441967, Control_c, 0, 64, 65
1, 1441982, Control_c, 0, 64, 69
1, 1441997, Control_c, 0, 64, 73
1, 1442012, Control_c, 0, 64, 77
1, 1442027, Control_c, 0, 64, 82
1, 1442041, Control_c, 0, 64, 89
1, 1442056, Control_c, 0, 64, 96
1, 1442071, Control_c, 0, 64, 103
1, 1442085, Control_c, 0, 64, 109
1, 1442087, Note_off_c, 0, 56, 58
1, 1442099, Note_on_c, 0, 74, 77
1, 1442100, Control_c, 0, 64, 116
1, 1442114, Note_on_c, 0, 64, 46
1, 1442115, Control_c, 0, 64, 127
1, 1442120, Note_on_c, 0, 59, 50
1, 1442125, Note_on_c, 0, 68, 48
1, 1442203, Note_off_c, 0, 71, 57
1, 1442224, Note_off_c, 0, 59, 57
1, 1442233, Note_on_c, 0, 56, 50
1, 1442233, Note_off_c, 0, 64, 60
1, 1442257, Note_off_c, 0, 74, 53
1, 1442270, Note_off_c, 0, 68, 37
1, 1442292, Note_off_c, 0, 56, 57
1, 1442307, Note_on_c, 0, 73, 62
1, 1442334, Note_off_c, 0, 52, 33
1, 1442340, Note_off_c, 0, 73, 62
1, 1442367, Control_c, 0, 64, 118
1, 1442389, Control_c, 0, 64, 107
1, 1442404, Control_c, 0, 64, 94
1, 1442420, Control_c, 0, 64, 78
1, 1442428, Note_on_c, 0, 73, 71
1, 1442435, Control_c, 0, 64, 62
1, 1442439, Note_on_c, 0, 45, 56
1, 1442450, Control_c, 0, 64, 39
1, 1442452, Note_on_c, 0, 64, 36
1, 1442462, Note_on_c, 0, 69, 38
1, 1442464, Control_c, 0, 64, 0
1, 1442538, Control_c, 0, 64, 47
1, 1442553, Control_c, 0, 64, 60
1, 1442568, Control_c, 0, 64, 65
1, 1442578, Note_on_c, 0, 52, 48
1, 1442582, Control_c, 0, 64, 70
1, 1442597, Control_c, 0, 64, 74
1, 1442612, Control_c, 0, 64, 79
1, 1442615, Note_off_c, 0, 45, 37
1, 1442627, Control_c, 0, 64, 85
1, 1442642, Control_c, 0, 64, 91
1, 1442656, Control_c, 0, 64, 95
1, 1442671, Control_c, 0, 64, 99
1, 1442686, Control_c, 0, 64, 103
1, 1442701, Control_c, 0, 64, 106
1, 1442716, Control_c, 0, 64, 108
1, 1442729, Note_on_c, 0, 61, 51
1, 1442736, Note_off_c, 0, 52, 57
1, 1442746, Control_c, 0, 64, 111
1, 1442753, Note_off_c, 0, 64, 44
1, 1442781, Note_off_c, 0, 69, 36
1, 1442804, Note_off_c, 0, 73, 60
1, 1442815, Note_off_c, 0, 61, 55
1, 1442879, Note_on_c, 0, 52, 49
1, 1442971, Note_off_c, 0, 52, 48
1, 1442997, Control_c, 0, 64, 108
1, 1443012, Control_c, 0, 64, 106
1, 1443027, Control_c, 0, 64, 103
1, 1443027, Control_c, 0, 67, 35
1, 1443042, Control_c, 0, 64, 100
1, 1443042, Control_c, 0, 67, 44
1, 1443052, Note_on_c, 0, 76, 59
1, 1443056, Control_c, 0, 64, 97
1, 1443056, Control_c, 0, 67, 52
1, 1443071, Control_c, 0, 64, 93
1, 1443071, Control_c, 0, 67, 61
1, 1443086, Control_c, 0, 64, 88
1, 1443086, Control_c, 0, 67, 77
1, 1443094, Note_on_c, 0, 49, 36
1, 1443101, Control_c, 0, 64, 82
1, 1443101, Control_c, 0, 67, 94
1, 1443103, Note_on_c, 0, 69, 31
1, 1443111, Note_on_c, 0, 64, 38
1, 1443115, Control_c, 0, 64, 76
1, 1443115, Control_c, 0, 67, 114
1, 1443138, Control_c, 0, 64, 69
1, 1443138, Control_c, 0, 67, 127
1, 1443153, Control_c, 0, 64, 59
1, 1443168, Control_c, 0, 64, 44
1, 1443182, Control_c, 0, 64, 0
1, 1443237, Note_on_c, 0, 52, 46
1, 1443241, Control_c, 0, 64, 29
1, 1443256, Control_c, 0, 64, 46
1, 1443271, Control_c, 0, 64, 60
1, 1443285, Control_c, 0, 64, 66
1, 1443300, Control_c, 0, 64, 70
1, 1443315, Control_c, 0, 64, 74
1, 1443330, Control_c, 0, 64, 78
1, 1443342, Note_off_c, 0, 69, 40
1, 1443345, Control_c, 0, 64, 82
1, 1443360, Control_c, 0, 64, 86
1, 1443371, Note_off_c, 0, 64, 37
1, 1443374, Control_c, 0, 64, 90
1, 1443385, Note_on_c, 0, 57, 44
1, 1443389, Control_c, 0, 64, 93
1, 1443394, Note_off_c, 0, 52, 53
1, 1443404, Control_c, 0, 64, 98
1, 1443419, Control_c, 0, 64, 102
1, 1443434, Control_c, 0, 64, 105
1, 1443464, Control_c, 0, 64, 108
1, 1443505, Note_off_c, 0, 76, 56
1, 1443512, Note_on_c, 0, 74, 63
1, 1443530, Note_off_c, 0, 57, 56
1, 1443539, Note_on_c, 0, 52, 49
1, 1443558, Note_off_c, 0, 49, 52
1, 1443566, Note_off_c, 0, 74, 63
1, 1443576, Note_on_c, 0, 73, 60
1, 1443589, Note_off_c, 0, 52, 57
1, 1443613, Note_off_c, 0, 73, 64
1, 1443656, Control_c, 0, 64, 94
1, 1443671, Control_c, 0, 64, 75
1, 1443685, Control_c, 0, 64, 58
1, 1443687, Note_on_c, 0, 71, 63
1, 1443697, Note_on_c, 0, 69, 43
1, 1443699, Note_on_c, 0, 66, 32
1, 1443700, Control_c, 0, 64, 31
1, 1443709, Note_on_c, 0, 50, 47
1, 1443729, Control_c, 0, 64, 38
1, 1443744, Control_c, 0, 64, 51
1, 1443759, Control_c, 0, 64, 63
1, 1443774, Control_c, 0, 64, 72
1, 1443789, Control_c, 0, 64, 79
1, 1443804, Control_c, 0, 64, 82
1, 1443807, Note_off_c, 0, 66, 55
1, 1443807, Note_off_c, 0, 71, 58
1, 1443814, Note_off_c, 0, 69, 60
1, 1443819, Control_c, 0, 64, 84
1, 1443852, Note_on_c, 0, 54, 41
1, 1443863, Control_c, 0, 64, 82
1, 1443885, Control_c, 0, 64, 76
1, 1443900, Control_c, 0, 64, 65
1, 1443915, Control_c, 0, 64, 42
1, 1443930, Control_c, 0, 64, 0
1, 1443952, Note_off_c, 0, 54, 57
1, 1443989, Control_c, 0, 64, 42
1, 1443991, Note_on_c, 0, 71, 65
1, 1444005, Control_c, 0, 64, 57
1, 1444006, Note_on_c, 0, 59, 47
1, 1444009, Note_on_c, 0, 66, 56
1, 1444020, Control_c, 0, 64, 63
1, 1444021, Note_on_c, 0, 69, 37
1, 1444034, Control_c, 0, 64, 64
1, 1444049, Control_c, 0, 64, 65
1, 1444064, Control_c, 0, 64, 66
1, 1444078, Note_off_c, 0, 69, 49
1, 1444079, Control_c, 0, 64, 67
1, 1444094, Control_c, 0, 64, 68
1, 1444108, Control_c, 0, 64, 68
1, 1444109, Note_on_c, 0, 54, 40
1, 1444117, Note_off_c, 0, 71, 57
1, 1444120, Note_off_c, 0, 66, 63
1, 1444157, Note_off_c, 0, 59, 38
1, 1444212, Control_c, 0, 64, 68
1, 1444215, Note_off_c, 0, 54, 52
1, 1444227, Control_c, 0, 64, 67
1, 1444242, Control_c, 0, 64, 67
1, 1444243, Note_off_c, 0, 50, 33
1, 1444257, Control_c, 0, 64, 66
1, 1444272, Control_c, 0, 64, 65
1, 1444287, Control_c, 0, 64, 63
1, 1444300, Note_on_c, 0, 71, 58
1, 1444301, Control_c, 0, 64, 59
1, 1444316, Control_c, 0, 64, 46
1, 1444316, Note_on_c, 0, 64, 50
1, 1444318, Note_on_c, 0, 52, 43
1, 1444331, Control_c, 0, 64, 0
1, 1444336, Note_on_c, 0, 68, 39
1, 1444439, Note_off_c, 0, 68, 36
1, 1444449, Note_off_c, 0, 64, 47
1, 1444457, Note_on_c, 0, 56, 44
1, 1444478, Control_c, 0, 64, 38
1, 1444493, Control_c, 0, 64, 48
1, 1444508, Control_c, 0, 64, 55
1, 1444523, Control_c, 0, 64, 59
1, 1444538, Control_c, 0, 64, 61
1, 1444552, Control_c, 0, 64, 62
1, 1444567, Control_c, 0, 64, 63
1, 1444582, Control_c, 0, 64, 64
1, 1444597, Control_c, 0, 64, 66
1, 1444612, Control_c, 0, 64, 67
1, 1444633, Note_off_c, 0, 56, 55
1, 1444634, Control_c, 0, 64, 68
1, 1444649, Control_c, 0, 64, 68
1, 1444659, Note_on_c, 0, 64, 36
1, 1444661, Note_on_c, 0, 74, 47
1, 1444664, Control_c, 0, 64, 69
1, 1444669, Note_on_c, 0, 59, 37
1, 1444683, Note_on_c, 0, 68, 35
1, 1444732, Note_off_c, 0, 71, 37
1, 1444739, Control_c, 0, 64, 68
1, 1444768, Control_c, 0, 64, 68
1, 1444783, Control_c, 0, 64, 66
1, 1444798, Control_c, 0, 64, 65
1, 1444814, Control_c, 0, 64, 63
1, 1444829, Control_c, 0, 64, 60
1, 1444841, Note_off_c, 0, 59, 37
1, 1444844, Note_on_c, 0, 56, 30
1, 1444844, Control_c, 0, 64, 57
1, 1444858, Control_c, 0, 64, 54
1, 1444873, Control_c, 0, 64, 49
1, 1444888, Control_c, 0, 64, 43
1, 1444902, Control_c, 0, 64, 34
1, 1444917, Control_c, 0, 64, 0
1, 1444942, Note_on_c, 0, 73, 45
1, 1444952, Note_off_c, 0, 52, 59
1, 1444984, Note_off_c, 0, 56, 54
1, 1444993, Note_off_c, 0, 74, 36
1, 1445014, Note_off_c, 0, 68, 40
1, 1445020, Note_off_c, 0, 73, 53
1, 1445039, Note_off_c, 0, 64, 46
1, 1446324, Control_c, 0, 64, 38
1, 1446339, Control_c, 0, 64, 53
1, 1446354, Control_c, 0, 64, 61
1, 1446369, Control_c, 0, 64, 65
1, 1446384, Control_c, 0, 64, 67
1, 1446395, Note_on_c, 0, 57, 67
1, 1446395, Note_on_c, 0, 61, 64
1, 1446399, Control_c, 0, 64, 70
1, 1446415, Control_c, 0, 64, 72
1, 1446423, Note_off_c, 0, 61, 66
1, 1446427, Note_off_c, 0, 57, 67
1, 1446429, Control_c, 0, 64, 74
1, 1446444, Control_c, 0, 64, 77
1, 1446459, Control_c, 0, 64, 80
1, 1446474, Control_c, 0, 64, 83
1, 1446479, Note_on_c, 0, 64, 47
1, 1446489, Control_c, 0, 64, 84
1, 1446503, Control_c, 0, 64, 85
1, 1446516, Note_off_c, 0, 64, 63
1, 1446533, Control_c, 0, 64, 85
1, 1446551, Note_on_c, 0, 69, 57
1, 1446577, Control_c, 0, 64, 85
1, 1446594, Note_off_c, 0, 69, 61
1, 1446623, Note_on_c, 0, 73, 65
1, 1446636, Note_on_c, 0, 57, 68
1, 1446647, Note_off_c, 0, 73, 68
1, 1446671, Note_off_c, 0, 57, 62
1, 1446697, Note_on_c, 0, 76, 74
1, 1446736, Note_off_c, 0, 76, 55
1, 1446797, Note_on_c, 0, 81, 59
1, 1446829, Control_c, 0, 64, 82
1, 1446844, Control_c, 0, 64, 73
1, 1446845, Note_off_c, 0, 81, 60
1, 1446852, Note_on_c, 0, 57, 80
1, 1446859, Control_c, 0, 64, 61
1, 1446869, Note_on_c, 0, 85, 61
1, 1446880, Control_c, 0, 64, 45
1, 1446895, Control_c, 0, 64, 44
1, 1446910, Control_c, 0, 64, 47
1, 1446911, Note_off_c, 0, 85, 62
1, 1446925, Control_c, 0, 64, 53
1, 1446940, Control_c, 0, 64, 57
1, 1446955, Note_on_c, 0, 81, 63
1, 1446955, Control_c, 0, 64, 60
1, 1446969, Control_c, 0, 64, 64
1, 1446984, Control_c, 0, 64, 69
1, 1446999, Note_off_c, 0, 81, 61
1, 1446999, Control_c, 0, 64, 73
1, 1447014, Control_c, 0, 64, 73
1, 1447029, Control_c, 0, 64, 72
1, 1447033, Note_on_c, 0, 85, 64
1, 1447044, Control_c, 0, 64, 66
1, 1447059, Control_c, 0, 64, 59
1, 1447073, Control_c, 0, 64, 55
1, 1447085, Note_off_c, 0, 85, 64
1, 1447088, Control_c, 0, 64, 57
1, 1447101, Note_on_c, 0, 61, 81
1, 1447101, Note_on_c, 0, 88, 74
1, 1447103, Control_c, 0, 64, 62
1, 1447118, Control_c, 0, 64, 65
1, 1447133, Control_c, 0, 64, 67
1, 1447147, Control_c, 0, 64, 69
1, 1447155, Note_off_c, 0, 88, 65
1, 1447162, Control_c, 0, 64, 71
1, 1447177, Control_c, 0, 64, 73
1, 1447181, Note_on_c, 0, 85, 68
1, 1447192, Control_c, 0, 64, 74
1, 1447202, Note_off_c, 0, 57, 45
1, 1447208, Control_c, 0, 64, 75
1, 1447220, Note_off_c, 0, 85, 63
1, 1447223, Control_c, 0, 64, 77
1, 1447238, Control_c, 0, 64, 78
1, 1447239, Note_on_c, 0, 88, 66
1, 1447252, Control_c, 0, 64, 80
1, 1447253, Note_off_c, 0, 88, 67
1, 1447260, Note_off_c, 0, 61, 61
1, 1447262, Note_on_c, 0, 59, 73
1, 1447282, Control_c, 0, 64, 73
1, 1447296, Control_c, 0, 64, 60
1, 1447311, Control_c, 0, 64, 37
1, 1447326, Control_c, 0, 64, 0
1, 1447334, Note_off_c, 0, 59, 63
1, 1447339, Note_on_c, 0, 55, 86
1, 1447340, Note_on_c, 0, 61, 93
1, 1447341, Control_c, 0, 64, 33
1, 1447356, Control_c, 0, 64, 51
1, 1447370, Control_c, 0, 64, 64
1, 1447385, Control_c, 0, 64, 72
1, 1447394, Note_on_c, 0, 64, 73
1, 1447400, Control_c, 0, 64, 76
1, 1447402, Note_off_c, 0, 61, 56
1, 1447415, Control_c, 0, 64, 78
1, 1447430, Control_c, 0, 64, 81
1, 1447445, Control_c, 0, 64, 84
1, 1447452, Note_off_c, 0, 64, 61
1, 1447459, Control_c, 0, 64, 87
1, 1447467, Note_off_c, 0, 55, 59
1, 1447474, Control_c, 0, 64, 89
1, 1447489, Control_c, 0, 64, 92
1, 1447491, Note_on_c, 0, 69, 66
1, 1447503, Control_c, 0, 64, 95
1, 1447518, Control_c, 0, 64, 98
1, 1447548, Note_off_c, 0, 69, 62
1, 1447548, Control_c, 0, 64, 86
1, 1447563, Control_c, 0, 64, 68
1, 1447567, Note_on_c, 0, 73, 67
1, 1447578, Control_c, 0, 64, 44
1, 1447578, Control_c, 0, 67, 106
1, 1447588, Note_on_c, 0, 55, 86
1, 1447592, Note_off_c, 0, 73, 69
1, 1447592, Control_c, 0, 64, 34
1, 1447592, Control_c, 0, 67, 74
1, 1447607, Control_c, 0, 64, 42
1, 1447607, Control_c, 0, 67, 40
1, 1447630, Control_c, 0, 64, 58
1, 1447630, Control_c, 0, 67, 0
1, 1447645, Control_c, 0, 64, 67
1, 1447659, Control_c, 0, 64, 74
1, 1447660, Note_on_c, 0, 76, 71
1, 1447674, Control_c, 0, 64, 79
1, 1447690, Control_c, 0, 64, 82
1, 1447699, Note_off_c, 0, 76, 54
1, 1447704, Control_c, 0, 64, 86
1, 1447719, Control_c, 0, 64, 91
1, 1447727, Note_off_c, 0, 55, 54
1, 1447734, Control_c, 0, 64, 96
1, 1447746, Note_on_c, 0, 81, 62
1, 1447749, Control_c, 0, 64, 101
1, 1447764, Control_c, 0, 64, 108
1, 1447778, Control_c, 0, 64, 127
1, 1447797, Note_off_c, 0, 81, 62
1, 1447819, Note_on_c, 0, 85, 68
1, 1447823, Control_c, 0, 64, 115
1, 1447838, Control_c, 0, 64, 77
1, 1447843, Note_on_c, 0, 55, 85
1, 1447852, Control_c, 0, 64, 55
1, 1447861, Note_off_c, 0, 85, 61
1, 1447867, Control_c, 0, 64, 0
1, 1447900, Note_on_c, 0, 81, 64
1, 1447911, Control_c, 0, 64, 46
1, 1447926, Control_c, 0, 64, 59
1, 1447941, Control_c, 0, 64, 63
1, 1447944, Note_off_c, 0, 81, 62
1, 1447956, Control_c, 0, 64, 65
1, 1447971, Control_c, 0, 64, 68
1, 1447978, Note_on_c, 0, 85, 70
1, 1447986, Control_c, 0, 64, 76
1, 1448001, Control_c, 0, 64, 84
1, 1448016, Control_c, 0, 64, 90
1, 1448031, Control_c, 0, 64, 98
1, 1448042, Note_off_c, 0, 85, 64
1, 1448046, Control_c, 0, 64, 109
1, 1448059, Note_on_c, 0, 88, 77
1, 1448061, Control_c, 0, 64, 127
1, 1448067, Note_off_c, 0, 55, 58
1, 1448068, Note_on_c, 0, 59, 82
1, 1448117, Note_off_c, 0, 88, 63
1, 1448139, Note_on_c, 0, 85, 71
1, 1448186, Note_off_c, 0, 85, 62
1, 1448204, Note_on_c, 0, 88, 70
1, 1448225, Note_off_c, 0, 88, 67
1, 1448239, Note_off_c, 0, 59, 62
1, 1448240, Note_on_c, 0, 57, 71
1, 1448268, Control_c, 0, 64, 77
1, 1448279, Note_off_c, 0, 57, 57
1, 1448283, Control_c, 0, 64, 53
1, 1448298, Control_c, 0, 64, 0
1, 1448304, Note_on_c, 0, 54, 85
1, 1448305, Note_on_c, 0, 74, 76
1, 1448327, Control_c, 0, 64, 43
1, 1448342, Control_c, 0, 64, 59
1, 1448357, Note_off_c, 0, 74, 64
1, 1448357, Control_c, 0, 64, 69
1, 1448379, Control_c, 0, 64, 79
1, 1448394, Control_c, 0, 64, 93
1, 1448395, Note_on_c, 0, 78, 54
1, 1448409, Control_c, 0, 64, 127
1, 1448416, Note_off_c, 0, 78, 58
1, 1448469, Control_c, 0, 64, 118
1, 1448475, Note_on_c, 0, 81, 67
1, 1448483, Control_c, 0, 64, 80
1, 1448498, Control_c, 0, 64, 66
1, 1448513, Control_c, 0, 64, 67
1, 1448520, Note_off_c, 0, 81, 52
1, 1448527, Control_c, 0, 64, 80
1, 1448541, Note_on_c, 0, 86, 74
1, 1448542, Control_c, 0, 64, 101
1, 1448557, Control_c, 0, 64, 127
1, 1448558, Note_on_c, 0, 59, 87
1, 1448599, Note_off_c, 0, 86, 63
1, 1448618, Note_on_c, 0, 90, 69
1, 1448618, Note_off_c, 0, 54, 47
1, 1448670, Note_off_c, 0, 90, 65
1, 1448691, Note_on_c, 0, 93, 39
1, 1448723, Note_off_c, 0, 59, 58
1, 1448728, Note_off_c, 0, 93, 49
1, 1448730, Note_on_c, 0, 57, 75
1, 1448749, Control_c, 0, 64, 99
1, 1448764, Control_c, 0, 64, 66
1, 1448774, Note_off_c, 0, 57, 49
1, 1448779, Control_c, 0, 64, 33
1, 1448794, Note_on_c, 0, 55, 93
1, 1448795, Control_c, 0, 64, 0
1, 1448796, Note_on_c, 0, 73, 77
1, 1448817, Note_off_c, 0, 73, 70
1, 1448824, Control_c, 0, 64, 30
1, 1448839, Control_c, 0, 64, 47
1, 1448846, Note_on_c, 0, 74, 41
1, 1448854, Control_c, 0, 64, 62
1, 1448869, Control_c, 0, 64, 67
1, 1448874, Note_off_c, 0, 74, 54
1, 1448874, Note_on_c, 0, 76, 70
1, 1448884, Control_c, 0, 64, 74
1, 1448897, Note_off_c, 0, 76, 68
1, 1448898, Control_c, 0, 64, 80
1, 1448913, Control_c, 0, 64, 85
1, 1448928, Control_c, 0, 64, 93
1, 1448943, Control_c, 0, 64, 127
1, 1448954, Note_on_c, 0, 81, 77
1, 1449023, Note_on_c, 0, 85, 83
1, 1449029, Note_on_c, 0, 59, 85
1, 1449034, Note_off_c, 0, 81, 55
1, 1449094, Note_on_c, 0, 88, 81
1, 1449106, Note_off_c, 0, 55, 52
1, 1449149, Note_off_c, 0, 85, 58
1, 1449154, Note_on_c, 0, 93, 70
1, 1449157, Note_off_c, 0, 88, 67
1, 1449175, Note_off_c, 0, 93, 64
1, 1449190, Note_on_c, 0, 91, 38
1, 1449205, Note_on_c, 0, 57, 77
1, 1449210, Note_off_c, 0, 59, 63
1, 1449220, Note_off_c, 0, 91, 53
1, 1449232, Control_c, 0, 64, 114
1, 1449247, Control_c, 0, 64, 68
1, 1449262, Control_c, 0, 64, 31
1, 1449266, Note_off_c, 0, 57, 58
1, 1449268, Note_on_c, 0, 54, 95
1, 1449276, Control_c, 0, 64, 0
1, 1449280, Note_on_c, 0, 74, 77
1, 1449286, Note_on_c, 0, 76, 73
1, 1449306, Control_c, 0, 64, 57
1, 1449319, Note_off_c, 0, 74, 64
1, 1449321, Control_c, 0, 64, 87
1, 1449323, Note_off_c, 0, 76, 62
1, 1449336, Control_c, 0, 64, 127
1, 1449385, Note_on_c, 0, 77, 30
1, 1449421, Note_off_c, 0, 77, 54
1, 1449424, Control_c, 0, 64, 94
1, 1449435, Note_on_c, 0, 81, 78
1, 1449439, Control_c, 0, 64, 74
1, 1449454, Control_c, 0, 64, 74
1, 1449469, Control_c, 0, 64, 88
1, 1449483, Control_c, 0, 64, 127
1, 1449497, Note_off_c, 0, 81, 51
1, 1449505, Note_on_c, 0, 86, 81
1, 1449511, Note_on_c, 0, 59, 89
1, 1449553, Note_off_c, 0, 54, 52
1, 1449564, Note_on_c, 0, 90, 73
1, 1449606, Note_off_c, 0, 86, 62
1, 1449624, Note_on_c, 0, 93, 78
1, 1449631, Note_off_c, 0, 90, 65
1, 1449647, Note_off_c, 0, 93, 66
1, 1449673, Note_on_c, 0, 57, 74
1, 1449677, Note_off_c, 0, 59, 62
1, 1449709, Note_off_c, 0, 57, 65
1, 1449721, Control_c, 0, 64, 72
1, 1449736, Control_c, 0, 64, 0
1, 1449753, Note_on_c, 0, 73, 82
1, 1449754, Note_on_c, 0, 55, 96
1, 1449789, Note_off_c, 0, 73, 65
1, 1449795, Control_c, 0, 64, 36
1, 1449807, Note_on_c, 0, 74, 40
1, 1449810, Control_c, 0, 64, 62
1, 1449821, Note_on_c, 0, 76, 76
1, 1449825, Control_c, 0, 64, 83
1, 1449836, Note_off_c, 0, 74, 50
1, 1449840, Control_c, 0, 64, 127
1, 1449852, Note_off_c, 0, 76, 62
1, 1449916, Note_on_c, 0, 81, 78
1, 1449981, Note_on_c, 0, 85, 84
1, 1450006, Note_off_c, 0, 81, 49
1, 1450038, Note_on_c, 0, 59, 62
1, 1450042, Note_on_c, 0, 88, 80
1, 1450075, Note_off_c, 0, 85, 64
1, 1450078, Note_off_c, 0, 55, 54
1, 1450080, Note_on_c, 0, 93, 77
1, 1450085, Note_off_c, 0, 88, 67
1, 1450105, Note_off_c, 0, 93, 66
1, 1450119, Note_off_c, 0, 59, 65
1, 1450136, Note_on_c, 0, 57, 68
1, 1450162, Note_off_c, 0, 57, 64
1, 1450247, Control_c, 0, 64, 114
1, 1450262, Control_c, 0, 64, 70
1, 1450277, Control_c, 0, 64, 48
1, 1450292, Note_on_c, 0, 62, 60
1, 1450292, Control_c, 0, 64, 44
1, 1450306, Control_c, 0, 64, 54
1, 1450313, Note_on_c, 0, 41, 71
1, 1450315, Note_on_c, 0, 29, 71
1, 1450321, Control_c, 0, 64, 63
1, 1450335, Note_off_c, 0, 62, 60
1, 1450336, Control_c, 0, 64, 73
1, 1450351, Control_c, 0, 64, 90
1, 1450366, Control_c, 0, 64, 127
1, 1450375, Note_on_c, 0, 65, 62
1, 1450416, Note_off_c, 0, 41, 59
1, 1450435, Note_off_c, 0, 29, 61
1, 1450443, Note_off_c, 0, 65, 61
1, 1450448, Note_on_c, 0, 64, 76
1, 1450500, Control_c, 0, 64, 91
1, 1450508, Note_off_c, 0, 64, 62
1, 1450514, Control_c, 0, 64, 62
1, 1450526, Note_on_c, 0, 41, 90
1, 1450529, Control_c, 0, 64, 44
1, 1450532, Note_on_c, 0, 65, 80
1, 1450535, Note_on_c, 0, 29, 85
1, 1450544, Control_c, 0, 64, 55
1, 1450559, Control_c, 0, 64, 69
1, 1450574, Control_c, 0, 64, 95
1, 1450588, Control_c, 0, 64, 127
1, 1450597, Note_off_c, 0, 65, 58
1, 1450607, Note_on_c, 0, 69, 78
1, 1450654, Note_off_c, 0, 41, 63
1, 1450662, Note_off_c, 0, 29, 57
1, 1450683, Note_off_c, 0, 69, 63
1, 1450684, Note_on_c, 0, 68, 77
1, 1450728, Control_c, 0, 64, 90
1, 1450743, Note_off_c, 0, 68, 61
1, 1450743, Control_c, 0, 64, 59
1, 1450756, Note_on_c, 0, 69, 82
1, 1450758, Control_c, 0, 64, 0
1, 1450764, Note_on_c, 0, 41, 102
1, 1450766, Note_on_c, 0, 29, 91
1, 1450788, Control_c, 0, 64, 51
1, 1450794, Note_off_c, 0, 29, 70
1, 1450803, Control_c, 0, 64, 69
1, 1450807, Note_off_c, 0, 41, 67
1, 1450818, Control_c, 0, 64, 87
1, 1450829, Note_off_c, 0, 69, 58
1, 1450833, Control_c, 0, 64, 114
1, 1450835, Note_on_c, 0, 74, 83
1, 1450847, Control_c, 0, 64, 127
1, 1450910, Note_off_c, 0, 74, 62
1, 1450916, Note_on_c, 0, 73, 76
1, 1450951, Control_c, 0, 64, 96
1, 1450964, Note_off_c, 0, 73, 63
1, 1450966, Control_c, 0, 64, 58
1, 1450981, Control_c, 0, 64, 0
1, 1450994, Note_on_c, 0, 74, 83
1, 1450997, Note_on_c, 0, 46, 101
1, 1451002, Note_on_c, 0, 34, 104
1, 1451029, Note_off_c, 0, 34, 64
1, 1451033, Note_off_c, 0, 46, 64
1, 1451050, Note_off_c, 0, 74, 61
1, 1451054, Control_c, 0, 64, 54
1, 1451069, Control_c, 0, 64, 71
1, 1451084, Control_c, 0, 64, 86
1, 1451087, Note_on_c, 0, 86, 70
1, 1451099, Control_c, 0, 64, 117
1, 1451113, Control_c, 0, 64, 127
1, 1451171, Note_off_c, 0, 86, 59
1, 1451189, Note_on_c, 0, 45, 82
1, 1451190, Note_on_c, 0, 85, 75
1, 1451196, Note_on_c, 0, 33, 83
1, 1451213, Note_off_c, 0, 45, 66
1, 1451218, Note_off_c, 0, 33, 65
1, 1451233, Control_c, 0, 64, 74
1, 1451248, Control_c, 0, 64, 29
1, 1451250, Note_off_c, 0, 85, 65
1, 1451253, Note_on_c, 0, 86, 85
1, 1451263, Note_on_c, 0, 46, 109
1, 1451263, Control_c, 0, 64, 0
1, 1451268, Note_on_c, 0, 34, 96
1, 1451289, Note_on_c, 0, 39, 58
1, 1451290, Note_on_c, 0, 47, 58
1, 1451303, Note_on_c, 0, 35, 50
1, 1451314, Note_on_c, 0, 37, 27
1, 1451335, Note_on_c, 0, 82, 76
1, 1451339, Note_off_c, 0, 86, 64
1, 1451348, Note_on_c, 0, 48, 14
1, 1451351, Control_c, 0, 64, 42
1, 1451359, Note_off_c, 0, 37, 50
1, 1451374, Control_c, 0, 64, 59
1, 1451386, Note_off_c, 0, 47, 28
1, 1451389, Control_c, 0, 64, 72
1, 1451390, Note_off_c, 0, 48, 26
1, 1451394, Note_off_c, 0, 35, 61
1, 1451404, Control_c, 0, 64, 92
1, 1451405, Note_off_c, 0, 82, 64
1, 1451408, Note_on_c, 0, 77, 74
1, 1451418, Control_c, 0, 64, 127
1, 1451423, Note_off_c, 0, 39, 45
1, 1451451, Note_off_c, 0, 77, 64
1, 1451538, Poly_aftertouch_c, 0, 76, 127
1, 1451561, Note_on_c, 0, 70, 79
1, 1451564, Poly_aftertouch_c, 0, 76, 0
1, 1451572, Poly_aftertouch_c, 0, 74, 0
1, 1451626, Control_c, 0, 64, 99
1, 1451628, Note_off_c, 0, 70, 62
1, 1451632, Note_on_c, 0, 65, 79
1, 1451641, Control_c, 0, 64, 65
1, 1451656, Control_c, 0, 64, 39
1, 1451670, Control_c, 0, 64, 47
1, 1451685, Control_c, 0, 64, 61
1, 1451694, Note_off_c, 0, 65, 63
1, 1451697, Note_on_c, 0, 62, 76
1, 1451700, Control_c, 0, 64, 71
1, 1451715, Control_c, 0, 64, 97
1, 1451730, Control_c, 0, 64, 127
1, 1451778, Note_off_c, 0, 62, 62
1, 1451778, Note_on_c, 0, 65, 80
1, 1451837, Note_off_c, 0, 65, 62
1, 1451843, Note_on_c, 0, 70, 83
1, 1451852, Note_off_c, 0, 46, 59
1, 1451873, Note_off_c, 0, 34, 61
1, 1451917, Note_off_c, 0, 70, 65
1, 1451919, Note_on_c, 0, 74, 85
1, 1451937, Control_c, 0, 64, 83
1, 1451952, Control_c, 0, 64, 54
1, 1451967, Control_c, 0, 64, 0
1, 1451998, Note_on_c, 0, 70, 83
1, 1452002, Note_off_c, 0, 74, 61
1, 1452060, Note_on_c, 0, 65, 70
1, 1452070, Note_off_c, 0, 70, 62
1, 1452132, Note_off_c, 0, 65, 62
1, 1452153, Control_c, 0, 64, 50
1, 1452158, Note_on_c, 0, 62, 68
1, 1452161, Note_on_c, 0, 41, 64
1, 1452168, Control_c, 0, 64, 65
1, 1452171, Note_on_c, 0, 29, 64
1, 1452183, Control_c, 0, 64, 76
1, 1452198, Control_c, 0, 64, 86
1, 1452202, Note_off_c, 0, 62, 56
1, 1452213, Control_c, 0, 64, 96
1, 1452228, Control_c, 0, 64, 116
1, 1452240, Note_on_c, 0, 65, 71
1, 1452243, Control_c, 0, 64, 127
1, 1452281, Note_off_c, 0, 41, 61
1, 1452290, Note_off_c, 0, 29, 60
1, 1452312, Note_off_c, 0, 65, 60
1, 1452313, Note_on_c, 0, 64, 77
1, 1452361, Control_c, 0, 64, 111
1, 1452364, Note_off_c, 0, 64, 63
1, 1452375, Control_c, 0, 64, 71
1, 1452390, Control_c, 0, 64, 43
1, 1452397, Note_on_c, 0, 41, 90
1, 1452397, Note_on_c, 0, 65, 83
1, 1452401, Note_on_c, 0, 29, 90
1, 1452405, Control_c, 0, 64, 42
1, 1452420, Control_c, 0, 64, 57
1, 1452435, Control_c, 0, 64, 69
1, 1452449, Control_c, 0, 64, 98
1, 1452457, Note_off_c, 0, 65, 59
1, 1452464, Control_c, 0, 64, 127
1, 1452469, Note_on_c, 0, 69, 80
1, 1452506, Note_off_c, 0, 41, 61
1, 1452515, Note_off_c, 0, 29, 59
1, 1452542, Note_off_c, 0, 69, 62
1, 1452547, Note_on_c, 0, 68, 75
1, 1452583, Control_c, 0, 64, 101
1, 1452597, Control_c, 0, 64, 66
1, 1452601, Note_off_c, 0, 68, 64
1, 1452612, Control_c, 0, 64, 37
1, 1452622, Note_on_c, 0, 69, 78
1, 1452626, Note_on_c, 0, 41, 102
1, 1452627, Control_c, 0, 64, 29
1, 1452629, Note_on_c, 0, 29, 89
1, 1452642, Control_c, 0, 64, 48
1, 1452657, Control_c, 0, 64, 66
1, 1452661, Note_off_c, 0, 29, 65
1, 1452672, Control_c, 0, 64, 90
1, 1452674, Note_off_c, 0, 41, 64
1, 1452681, Note_on_c, 0, 30, 6
1, 1452686, Control_c, 0, 64, 127
1, 1452693, Note_off_c, 0, 69, 57
1, 1452700, Note_on_c, 0, 74, 83
1, 1452735, Note_off_c, 0, 30, 38
1, 1452777, Note_off_c, 0, 74, 63
1, 1452784, Note_on_c, 0, 73, 75
1, 1452821, Control_c, 0, 64, 85
1, 1452836, Control_c, 0, 64, 52
1, 1452837, Note_off_c, 0, 73, 62
1, 1452851, Control_c, 0, 64, 0
1, 1452866, Note_on_c, 0, 74, 84
1, 1452868, Note_on_c, 0, 46, 94
1, 1452872, Note_on_c, 0, 34, 102
1, 1452906, Note_off_c, 0, 34, 62
1, 1452907, Note_off_c, 0, 46, 64
1, 1452916, Note_on_c, 0, 33, 42
1, 1452917, Control_c, 0, 64, 55
1, 1452925, Note_off_c, 0, 74, 62
1, 1452931, Control_c, 0, 64, 69
1, 1452946, Control_c, 0, 64, 83
1, 1452949, Note_on_c, 0, 86, 78
1, 1452958, Note_off_c, 0, 33, 48
1, 1452961, Control_c, 0, 64, 104
1, 1452976, Control_c, 0, 64, 127
1, 1453029, Note_off_c, 0, 86, 62
1, 1453056, Note_on_c, 0, 33, 84
1, 1453058, Note_on_c, 0, 45, 81
1, 1453059, Note_on_c, 0, 85, 77
1, 1453080, Note_off_c, 0, 45, 66
1, 1453084, Note_off_c, 0, 33, 64
1, 1453095, Control_c, 0, 64, 83
1, 1453110, Control_c, 0, 64, 53
1, 1453121, Note_on_c, 0, 86, 86
1, 1453122, Note_off_c, 0, 85, 64
1, 1453124, Control_c, 0, 64, 0
1, 1453128, Note_on_c, 0, 46, 103
1, 1453132, Note_on_c, 0, 34, 102
1, 1453177, Note_on_c, 0, 47, 29
1, 1453204, Note_on_c, 0, 82, 81
1, 1453207, Note_off_c, 0, 86, 64
1, 1453225, Note_off_c, 0, 47, 45
1, 1453265, Note_off_c, 0, 82, 66
1, 1453271, Note_on_c, 0, 77, 76
1, 1453325, Note_off_c, 0, 77, 65
1, 1453331, Control_c, 0, 64, 38
1, 1453337, Note_on_c, 0, 74, 79
1, 1453346, Control_c, 0, 64, 53
1, 1453361, Control_c, 0, 64, 63
1, 1453362, Note_off_c, 0, 74, 65
1, 1453376, Control_c, 0, 64, 68
1, 1453390, Control_c, 0, 64, 74
1, 1453405, Control_c, 0, 64, 81
1, 1453420, Control_c, 0, 64, 87
1, 1453421, Note_on_c, 0, 70, 83
1, 1453435, Control_c, 0, 64, 93
1, 1453450, Control_c, 0, 64, 101
1, 1453465, Control_c, 0, 64, 111
1, 1453480, Control_c, 0, 64, 127
1, 1453490, Note_on_c, 0, 65, 78
1, 1453499, Note_off_c, 0, 70, 63
1, 1453560, Note_off_c, 0, 65, 63
1, 1453563, Note_on_c, 0, 62, 78
1, 1453580, Note_off_c, 0, 34, 61
1, 1453581, Note_off_c, 0, 46, 60
1, 1453649, Note_off_c, 0, 62, 62
1, 1453652, Note_on_c, 0, 65, 76
1, 1453700, Note_off_c, 0, 65, 62
1, 1453709, Note_on_c, 0, 70, 82
1, 1453725, Control_c, 0, 64, 112
1, 1453739, Control_c, 0, 64, 67
1, 1453752, Note_off_c, 0, 70, 62
1, 1453754, Control_c, 0, 64, 0
1, 1453799, Note_on_c, 0, 35, 85
1, 1453799, Note_on_c, 0, 65, 92
1, 1453800, Note_on_c, 0, 47, 86
1, 1453800, Note_on_c, 0, 74, 96
1, 1453802, Note_on_c, 0, 68, 93
1, 1453819, Note_off_c, 0, 65, 66
1, 1453829, Control_c, 0, 64, 46
1, 1453832, Note_off_c, 0, 47, 67
1, 1453832, Note_off_c, 0, 35, 66
1, 1453841, Note_off_c, 0, 74, 66
1, 1453843, Note_off_c, 0, 68, 64
1, 1453843, Control_c, 0, 64, 67
1, 1453858, Control_c, 0, 64, 84
1, 1453873, Control_c, 0, 64, 127
1, 1454021, Control_c, 0, 64, 97
1, 1454036, Control_c, 0, 64, 64
1, 1454051, Control_c, 0, 64, 0
1, 1454067, Note_on_c, 0, 69, 72
1, 1454072, Note_on_c, 0, 48, 75
1, 1454075, Note_on_c, 0, 36, 66
1, 1454095, Control_c, 0, 64, 41
1, 1454110, Control_c, 0, 64, 65
1, 1454125, Control_c, 0, 64, 80
1, 1454128, Note_off_c, 0, 69, 62
1, 1454139, Control_c, 0, 64, 113
1, 1454142, Note_on_c, 0, 72, 77
1, 1454150, Note_off_c, 0, 36, 58
1, 1454154, Control_c, 0, 64, 127
1, 1454157, Note_off_c, 0, 48, 60
1, 1454213, Control_c, 0, 64, 120
1, 1454218, Note_off_c, 0, 72, 62
1, 1454220, Note_on_c, 0, 71, 79
1, 1454228, Control_c, 0, 64, 73
1, 1454243, Control_c, 0, 64, 47
1, 1454258, Control_c, 0, 64, 0
1, 1454273, Control_c, 0, 64, 38
1, 1454273, Note_off_c, 0, 71, 59
1, 1454288, Control_c, 0, 64, 58
1, 1454295, Note_on_c, 0, 72, 85
1, 1454302, Note_on_c, 0, 48, 87
1, 1454302, Control_c, 0, 64, 75
1, 1454304, Note_on_c, 0, 36, 72
1, 1454317, Control_c, 0, 64, 120
1, 1454332, Control_c, 0, 64, 127
1, 1454371, Note_off_c, 0, 72, 61
1, 1454372, Note_on_c, 0, 76, 83
1, 1454409, Note_off_c, 0, 36, 59
1, 1454410, Note_off_c, 0, 48, 56
1, 1454444, Note_off_c, 0, 76, 65
1, 1454444, Control_c, 0, 64, 107
1, 1454448, Note_on_c, 0, 75, 79
1, 1454459, Control_c, 0, 64, 74
1, 1454474, Control_c, 0, 64, 55
1, 1454488, Control_c, 0, 64, 45
1, 1454503, Control_c, 0, 64, 54
1, 1454506, Note_off_c, 0, 75, 63
1, 1454518, Control_c, 0, 64, 67
1, 1454523, Note_on_c, 0, 76, 82
1, 1454532, Note_on_c, 0, 36, 83
1, 1454532, Note_on_c, 0, 48, 96
1, 1454533, Control_c, 0, 64, 81
1, 1454548, Control_c, 0, 64, 127
1, 1454562, Note_off_c, 0, 36, 66
1, 1454576, Note_off_c, 0, 48, 64
1, 1454582, Note_off_c, 0, 76, 61
1, 1454606, Note_on_c, 0, 81, 81
1, 1454675, Note_off_c, 0, 81, 61
1, 1454687, Note_on_c, 0, 80, 78
1, 1454726, Control_c, 0, 64, 68
1, 1454737, Note_off_c, 0, 80, 62
1, 1454741, Control_c, 0, 64, 34
1, 1454756, Control_c, 0, 64, 0
1, 1454757, Note_on_c, 0, 53, 103
1, 1454759, Note_on_c, 0, 81, 84
1, 1454761, Note_on_c, 0, 41, 103
1, 1454785, Control_c, 0, 64, 48
1, 1454791, Note_off_c, 0, 53, 67
1, 1454794, Note_off_c, 0, 41, 68
1, 1454800, Control_c, 0, 64, 69
1, 1454815, Control_c, 0, 64, 97
1, 1454815, Note_off_c, 0, 81, 66
1, 1454830, Control_c, 0, 64, 127
1, 1454842, Note_on_c, 0, 93, 79
1, 1454917, Note_off_c, 0, 93, 57
1, 1454940, Note_on_c, 0, 92, 74
1, 1454948, Note_on_c, 0, 52, 82
1, 1454949, Note_on_c, 0, 40, 85
1, 1454970, Note_off_c, 0, 52, 67
1, 1454970, Note_off_c, 0, 40, 66
1, 1455005, Note_on_c, 0, 93, 93
1, 1455006, Note_off_c, 0, 92, 66
1, 1455007, Control_c, 0, 64, 85
1, 1455012, Note_on_c, 0, 53, 96
1, 1455018, Note_on_c, 0, 48, 91
1, 1455018, Note_on_c, 0, 41, 87
1, 1455021, Note_on_c, 0, 45, 83
1, 1455021, Control_c, 0, 64, 55
1, 1455036, Control_c, 0, 64, 0
1, 1455083, Note_on_c, 0, 89, 83
1, 1455104, Note_off_c, 0, 93, 60
1, 1455148, Control_c, 0, 64, 32
1, 1455157, Note_on_c, 0, 84, 81
1, 1455160, Note_off_c, 0, 89, 65
1, 1455163, Control_c, 0, 64, 53
1, 1455177, Control_c, 0, 64, 68
1, 1455193, Control_c, 0, 64, 81
1, 1455208, Control_c, 0, 64, 106
1, 1455213, Note_off_c, 0, 84, 65
1, 1455218, Note_on_c, 0, 81, 79
1, 1455223, Control_c, 0, 64, 127
1, 1455249, Note_off_c, 0, 81, 63
1, 1455297, Note_on_c, 0, 77, 82
1, 1455311, Control_c, 0, 64, 79
1, 1455326, Control_c, 0, 64, 55
1, 1455341, Control_c, 0, 64, 36
1, 1455356, Control_c, 0, 64, 52
1, 1455362, Note_on_c, 0, 72, 79
1, 1455370, Note_off_c, 0, 77, 61
1, 1455371, Control_c, 0, 64, 66
1, 1455385, Control_c, 0, 64, 86
1, 1455400, Control_c, 0, 64, 127
1, 1455429, Note_off_c, 0, 72, 63
1, 1455433, Note_on_c, 0, 69, 84
1, 1455444, Control_c, 0, 64, 76
1, 1455459, Control_c, 0, 64, 55
1, 1455474, Control_c, 0, 64, 30
1, 1455489, Control_c, 0, 64, 0
1, 1455504, Control_c, 0, 64, 33
1, 1455513, Note_on_c, 0, 72, 88
1, 1455514, Note_off_c, 0, 69, 59
1, 1455519, Control_c, 0, 64, 39
1, 1455534, Control_c, 0, 64, 48
1, 1455549, Control_c, 0, 64, 61
1, 1455563, Control_c, 0, 64, 75
1, 1455578, Control_c, 0, 64, 102
1, 1455583, Note_off_c, 0, 72, 56
1, 1455587, Note_on_c, 0, 77, 88
1, 1455593, Control_c, 0, 64, 127
1, 1455600, Note_off_c, 0, 53, 61
1, 1455626, Note_off_c, 0, 48, 62
1, 1455631, Note_off_c, 0, 41, 63
1, 1455634, Note_off_c, 0, 45, 61
1, 1455652, Control_c, 0, 64, 96
1, 1455665, Note_off_c, 0, 77, 64
1, 1455666, Note_on_c, 0, 81, 90
1, 1455667, Control_c, 0, 64, 63
1, 1455682, Control_c, 0, 64, 0
1, 1455711, Control_c, 0, 64, 31
1, 1455726, Control_c, 0, 64, 59
1, 1455734, Note_on_c, 0, 77, 79
1, 1455741, Control_c, 0, 64, 83
1, 1455756, Control_c, 0, 64, 127
1, 1455763, Note_off_c, 0, 81, 65
1, 1455808, Note_on_c, 0, 72, 78
1, 1455813, Note_off_c, 0, 77, 64
1, 1455815, Control_c, 0, 64, 81
1, 1455830, Control_c, 0, 64, 59
1, 1455844, Control_c, 0, 64, 0
1, 1455885, Note_off_c, 0, 72, 62
1, 1455897, Control_c, 0, 64, 30
1, 1455897, Note_on_c, 0, 69, 67
1, 1455912, Control_c, 0, 64, 50
1, 1455913, Note_on_c, 0, 48, 65
1, 1455924, Note_on_c, 0, 36, 58
1, 1455925, Control_c, 0, 64, 65
1, 1455940, Control_c, 0, 64, 79
1, 1455955, Control_c, 0, 64, 127
1, 1455963, Note_off_c, 0, 69, 55
1, 1455981, Note_on_c, 0, 72, 74
1, 1456002, Note_off_c, 0, 48, 58
1, 1456025, Note_off_c, 0, 36, 59
1, 1456045, Control_c, 0, 64, 83
1, 1456050, Note_off_c, 0, 72, 60
1, 1456051, Note_on_c, 0, 71, 78
1, 1456059, Control_c, 0, 64, 60
1, 1456074, Control_c, 0, 64, 35
1, 1456089, Control_c, 0, 64, 37
1, 1456103, Note_off_c, 0, 71, 58
1, 1456104, Control_c, 0, 64, 54
1, 1456119, Control_c, 0, 64, 66
1, 1456133, Note_on_c, 0, 72, 82
1, 1456133, Control_c, 0, 64, 81
1, 1456139, Note_on_c, 0, 48, 92
1, 1456140, Note_on_c, 0, 36, 83
1, 1456148, Control_c, 0, 64, 127
1, 1456198, Note_off_c, 0, 72, 61
1, 1456205, Note_on_c, 0, 76, 80
1, 1456271, Note_off_c, 0, 36, 59
1, 1456271, Note_off_c, 0, 48, 57
1, 1456278, Note_off_c, 0, 76, 62
1, 1456279, Note_on_c, 0, 75, 79
1, 1456297, Control_c, 0, 64, 106
1, 1456312, Control_c, 0, 64, 70
1, 1456327, Control_c, 0, 64, 44
1, 1456335, Note_off_c, 0, 75, 64
1, 1456341, Control_c, 0, 64, 0
1, 1456364, Note_on_c, 0, 76, 80
1, 1456371, Control_c, 0, 64, 43
1, 1456374, Note_on_c, 0, 48, 99
1, 1456376, Note_on_c, 0, 36, 88
1, 1456386, Control_c, 0, 64, 63
1, 1456401, Control_c, 0, 64, 80
1, 1456415, Control_c, 0, 64, 127
1, 1456416, Note_off_c, 0, 36, 61
1, 1456422, Note_off_c, 0, 48, 62
1, 1456423, Note_off_c, 0, 76, 61
1, 1456439, Note_on_c, 0, 81, 78
1, 1456511, Note_off_c, 0, 81, 62
1, 1456518, Note_on_c, 0, 80, 76
1, 1456563, Control_c, 0, 64, 95
1, 1456570, Note_off_c, 0, 80, 62
1, 1456577, Control_c, 0, 64, 62
1, 1456592, Control_c, 0, 64, 0
1, 1456597, Note_on_c, 0, 81, 84
1, 1456619, Note_on_c, 0, 53, 100
1, 1456621, Note_on_c, 0, 41, 103
1, 1456645, Control_c, 0, 64, 43
1, 1456652, Note_off_c, 0, 53, 68
1, 1456657, Note_off_c, 0, 41, 68
1, 1456660, Control_c, 0, 64, 67
1, 1456660, Note_off_c, 0, 81, 64
1, 1456673, Control_c, 0, 64, 83
1, 1456682, Note_on_c, 0, 93, 83
1, 1456688, Control_c, 0, 64, 118
1, 1456703, Control_c, 0, 64, 127
1, 1456759, Note_off_c, 0, 93, 60
1, 1456787, Note_on_c, 0, 92, 80
1, 1456806, Note_on_c, 0, 52, 88
1, 1456806, Note_on_c, 0, 40, 90
1, 1456827, Note_off_c, 0, 52, 71
1, 1456833, Note_off_c, 0, 40, 67
1, 1456837, Control_c, 0, 64, 113
1, 1456852, Control_c, 0, 64, 69
1, 1456863, Note_on_c, 0, 93, 88
1, 1456867, Control_c, 0, 64, 0
1, 1456868, Note_off_c, 0, 92, 66
1, 1456874, Note_on_c, 0, 53, 94
1, 1456883, Note_on_c, 0, 41, 71
1, 1456883, Note_on_c, 0, 48, 86
1, 1456884, Note_on_c, 0, 45, 80
1, 1456895, Note_on_c, 0, 40, 66
1, 1456914, Note_on_c, 0, 47, 28
1, 1456914, Note_off_c, 0, 47, 127
1, 1456926, Note_on_c, 0, 52, 15
1, 1456941, Note_on_c, 0, 89, 80
1, 1456950, Note_off_c, 0, 40, 47
1, 1456952, Note_off_c, 0, 93, 61
1, 1456975, Note_off_c, 0, 52, 50
1, 1457012, Note_on_c, 0, 84, 78
1, 1457013, Note_off_c, 0, 89, 64
1, 1457060, Control_c, 0, 64, 38
1, 1457065, Note_off_c, 0, 84, 63
1, 1457074, Note_on_c, 0, 81, 76
1, 1457075, Control_c, 0, 64, 59
1, 1457089, Control_c, 0, 64, 69
1, 1457104, Control_c, 0, 64, 82
1, 1457105, Note_off_c, 0, 81, 66
1, 1457119, Control_c, 0, 64, 110
1, 1457134, Control_c, 0, 64, 127
1, 1457155, Note_on_c, 0, 77, 79
1, 1457163, Control_c, 0, 64, 89
1, 1457178, Control_c, 0, 64, 62
1, 1457193, Control_c, 0, 64, 39
1, 1457207, Control_c, 0, 64, 40
1, 1457215, Note_off_c, 0, 77, 62
1, 1457218, Note_on_c, 0, 72, 77
1, 1457222, Control_c, 0, 64, 55
1, 1457237, Control_c, 0, 64, 66
1, 1457252, Control_c, 0, 64, 84
1, 1457267, Control_c, 0, 64, 127
1, 1457278, Note_off_c, 0, 72, 62
1, 1457282, Note_off_c, 0, 41, 62
1, 1457291, Note_on_c, 0, 69, 81
1, 1457301, Note_off_c, 0, 53, 61
1, 1457316, Note_off_c, 0, 48, 61
1, 1457319, Note_off_c, 0, 45, 59
1, 1457336, Poly_aftertouch_c, 0, 49, 127
1, 1457359, Note_off_c, 0, 69, 63
1, 1457373, Note_on_c, 0, 72, 81
1, 1457376, Poly_aftertouch_c, 0, 49, 0
1, 1457438, Note_off_c, 0, 72, 59
1, 1457438, Note_on_c, 0, 77, 84
1, 1457453, Control_c, 0, 64, 82
1, 1457468, Control_c, 0, 64, 55
1, 1457481, Note_off_c, 0, 77, 64
1, 1457482, Control_c, 0, 64, 0
1, 1457519, Note_on_c, 0, 56, 98
1, 1457523, Note_on_c, 0, 44, 89
1, 1457527, Control_c, 0, 64, 48
1, 1457528, Note_on_c, 0, 72, 93
1, 1457542, Control_c, 0, 64, 66
1, 1457544, Note_off_c, 0, 56, 63
1, 1457549, Note_off_c, 0, 44, 68
1, 1457556, Control_c, 0, 64, 81
1, 1457571, Control_c, 0, 64, 109
1, 1457587, Control_c, 0, 64, 127
1, 1457599, Note_off_c, 0, 72, 62
1, 1457615, Note_on_c, 0, 84, 83
1, 1457706, Control_c, 0, 64, 78
1, 1457707, Note_on_c, 0, 83, 78
1, 1457710, Note_on_c, 0, 43, 86
1, 1457710, Note_on_c, 0, 55, 81
1, 1457711, Note_off_c, 0, 84, 56
1, 1457720, Control_c, 0, 64, 51
1, 1457732, Note_off_c, 0, 43, 66
1, 1457733, Note_off_c, 0, 55, 69
1, 1457735, Control_c, 0, 64, 0
1, 1457765, Control_c, 0, 64, 42
1, 1457766, Note_off_c, 0, 83, 61
1, 1457779, Note_on_c, 0, 56, 109
1, 1457780, Control_c, 0, 64, 67
1, 1457781, Note_on_c, 0, 44, 98
1, 1457782, Note_on_c, 0, 72, 82
1, 1457794, Control_c, 0, 64, 95
1, 1457809, Control_c, 0, 64, 127
1, 1457850, Note_on_c, 0, 84, 80
1, 1457853, Control_c, 0, 64, 117
1, 1457865, Note_off_c, 0, 72, 62
1, 1457868, Control_c, 0, 64, 72
1, 1457883, Control_c, 0, 64, 45
1, 1457898, Control_c, 0, 64, 28
1, 1457912, Control_c, 0, 64, 41
1, 1457927, Control_c, 0, 64, 60
1, 1457931, Note_on_c, 0, 80, 70
1, 1457934, Note_off_c, 0, 84, 63
1, 1457942, Control_c, 0, 64, 74
1, 1457957, Control_c, 0, 64, 80
1, 1457972, Control_c, 0, 64, 70
1, 1457987, Control_c, 0, 64, 36
1, 1457998, Note_on_c, 0, 77, 72
1, 1458002, Control_c, 0, 64, 0
1, 1458014, Note_off_c, 0, 80, 63
1, 1458031, Control_c, 0, 64, 32
1, 1458046, Control_c, 0, 64, 57
1, 1458047, Note_off_c, 0, 77, 65
1, 1458058, Note_on_c, 0, 72, 73
1, 1458061, Control_c, 0, 64, 71
1, 1458076, Control_c, 0, 64, 87
1, 1458080, Note_off_c, 0, 72, 69
1, 1458091, Control_c, 0, 64, 117
1, 1458112, Control_c, 0, 64, 127
1, 1458158, Note_on_c, 0, 68, 76
1, 1458190, Note_off_c, 0, 44, 63
1, 1458206, Note_off_c, 0, 68, 63
1, 1458210, Note_off_c, 0, 56, 59
1, 1458222, Note_on_c, 0, 65, 77
1, 1458297, Note_on_c, 0, 68, 81
1, 1458298, Note_off_c, 0, 65, 62
1, 1458344, Note_off_c, 0, 68, 64
1, 1458351, Note_on_c, 0, 73, 71
1, 1458367, Note_off_c, 0, 73, 67
1, 1458374, Note_on_c, 0, 72, 67
1, 1458392, Note_off_c, 0, 72, 67
1, 1458395, Control_c, 0, 64, 71
1, 1458410, Control_c, 0, 64, 39
1, 1458425, Control_c, 0, 64, 0
1, 1458456, Note_on_c, 0, 73, 89
1, 1458458, Note_on_c, 0, 64, 104
1, 1458465, Note_on_c, 0, 61, 82
1, 1458468, Note_on_c, 0, 56, 80
1, 1458469, Control_c, 0, 64, 39
1, 1458484, Control_c, 0, 64, 60
1, 1458499, Control_c, 0, 64, 78
1, 1458503, Note_off_c, 0, 64, 66
1, 1458514, Control_c, 0, 64, 117
1, 1458517, Note_off_c, 0, 61, 63
1, 1458526, Note_off_c, 0, 56, 63
1, 1458529, Control_c, 0, 64, 127
1, 1458529, Note_off_c, 0, 73, 58
1, 1458546, Note_on_c, 0, 85, 82
1, 1458627, Note_on_c, 0, 84, 76
1, 1458634, Note_on_c, 0, 63, 90
1, 1458637, Note_on_c, 0, 61, 79
1, 1458643, Note_on_c, 0, 56, 72
1, 1458647, Control_c, 0, 64, 104
1, 1458652, Note_off_c, 0, 85, 62
1, 1458658, Note_off_c, 0, 61, 70
1, 1458661, Control_c, 0, 64, 68
1, 1458664, Note_off_c, 0, 56, 70
1, 1458673, Note_off_c, 0, 63, 62
1, 1458676, Control_c, 0, 64, 46
1, 1458691, Control_c, 0, 64, 48
1, 1458702, Note_off_c, 0, 84, 59
1, 1458702, Note_on_c, 0, 73, 89
1, 1458706, Control_c, 0, 64, 63
1, 1458711, Note_on_c, 0, 56, 98
1, 1458711, Note_on_c, 0, 64, 104
1, 1458713, Note_on_c, 0, 61, 89
1, 1458721, Control_c, 0, 64, 78
1, 1458735, Control_c, 0, 64, 127
1, 1458740, Note_on_c, 0, 62, 55
1, 1458766, Note_on_c, 0, 85, 85
1, 1458776, Note_off_c, 0, 62, 45
1, 1458789, Note_off_c, 0, 73, 57
1, 1458795, Control_c, 0, 64, 120
1, 1458810, Control_c, 0, 64, 67
1, 1458825, Control_c, 0, 64, 37
1, 1458839, Control_c, 0, 64, 0
1, 1458848, Note_on_c, 0, 80, 73
1, 1458867, Note_off_c, 0, 85, 64
1, 1458876, Control_c, 0, 64, 39
1, 1458891, Control_c, 0, 64, 62
1, 1458906, Control_c, 0, 64, 74
1, 1458921, Note_on_c, 0, 76, 76
1, 1458921, Control_c, 0, 64, 75
1, 1458935, Control_c, 0, 64, 70
1, 1458940, Note_off_c, 0, 80, 62
1, 1458950, Control_c, 0, 64, 65
1, 1458965, Control_c, 0, 64, 67
1, 1458979, Note_off_c, 0, 76, 66
1, 1458980, Control_c, 0, 64, 76
1, 1458989, Note_on_c, 0, 73, 78
1, 1458994, Control_c, 0, 64, 91
1, 1459009, Control_c, 0, 64, 127
1, 1459014, Note_off_c, 0, 73, 66
1, 1459032, Note_off_c, 0, 64, 57
1, 1459067, Note_on_c, 0, 68, 77
1, 1459115, Note_off_c, 0, 68, 62
1, 1459128, Control_c, 0, 64, 116
1, 1459143, Note_on_c, 0, 64, 94
1, 1459143, Control_c, 0, 64, 71
1, 1459158, Control_c, 0, 64, 48
1, 1459170, Note_off_c, 0, 61, 62
1, 1459173, Control_c, 0, 64, 40
1, 1459179, Note_off_c, 0, 56, 56
1, 1459188, Note_off_c, 0, 64, 67
1, 1459188, Control_c, 0, 64, 56
1, 1459203, Control_c, 0, 64, 68
1, 1459218, Control_c, 0, 64, 99
1, 1459224, Note_on_c, 0, 68, 79
1, 1459233, Control_c, 0, 64, 127
1, 1459289, Note_off_c, 0, 68, 61
1, 1459298, Note_on_c, 0, 73, 77
1, 1459337, Control_c, 0, 64, 121
1, 1459337, Note_off_c, 0, 73, 60
1, 1459351, Control_c, 0, 64, 70
1, 1459366, Control_c, 0, 64, 42
1, 1459377, Note_on_c, 0, 64, 96
1, 1459381, Control_c, 0, 64, 0
1, 1459382, Note_on_c, 0, 59, 84
1, 1459383, Note_on_c, 0, 56, 82
1, 1459383, Note_on_c, 0, 74, 100
1, 1459396, Control_c, 0, 64, 40
1, 1459410, Note_off_c, 0, 64, 69
1, 1459410, Control_c, 0, 64, 66
1, 1459421, Note_off_c, 0, 59, 65
1, 1459425, Control_c, 0, 64, 95
1, 1459433, Note_off_c, 0, 56, 64
1, 1459440, Control_c, 0, 64, 127
1, 1459456, Note_off_c, 0, 74, 60
1, 1459471, Note_on_c, 0, 86, 81
1, 1459560, Note_on_c, 0, 85, 84
1, 1459563, Note_on_c, 0, 65, 95
1, 1459570, Note_off_c, 0, 86, 63
1, 1459573, Control_c, 0, 64, 96
1, 1459582, Note_on_c, 0, 56, 59
1, 1459588, Control_c, 0, 64, 62
1, 1459595, Note_off_c, 0, 65, 67
1, 1459610, Control_c, 0, 64, 0
1, 1459613, Note_off_c, 0, 56, 59
1, 1459622, Note_off_c, 0, 85, 64
1, 1459625, Control_c, 0, 64, 28
1, 1459634, Note_on_c, 0, 64, 70
1, 1459640, Control_c, 0, 64, 55
1, 1459641, Note_on_c, 0, 59, 78
1, 1459641, Note_on_c, 0, 74, 93
1, 1459645, Note_on_c, 0, 56, 83
1, 1459655, Control_c, 0, 64, 73
1, 1459670, Control_c, 0, 64, 127
1, 1459713, Note_on_c, 0, 86, 85
1, 1459723, Note_off_c, 0, 74, 62
1, 1459744, Control_c, 0, 64, 106
1, 1459758, Control_c, 0, 64, 73
1, 1459773, Control_c, 0, 64, 54
1, 1459785, Note_on_c, 0, 83, 81
1, 1459788, Control_c, 0, 64, 44
1, 1459799, Note_off_c, 0, 86, 65
1, 1459803, Control_c, 0, 64, 51
1, 1459817, Control_c, 0, 64, 62
1, 1459832, Control_c, 0, 64, 80
1, 1459847, Control_c, 0, 64, 127
1, 1459862, Note_on_c, 0, 80, 80
1, 1459873, Note_off_c, 0, 83, 65
1, 1459907, Control_c, 0, 64, 84
1, 1459916, Note_off_c, 0, 80, 62
1, 1459921, Control_c, 0, 64, 55
1, 1459923, Note_on_c, 0, 74, 80
1, 1459936, Control_c, 0, 64, 40
1, 1459951, Control_c, 0, 64, 52
1, 1459966, Control_c, 0, 64, 65
1, 1459969, Note_off_c, 0, 74, 66
1, 1459981, Control_c, 0, 64, 84
1, 1459996, Control_c, 0, 64, 127
1, 1460008, Note_on_c, 0, 71, 84
1, 1460042, Note_off_c, 0, 71, 60
1, 1460065, Note_off_c, 0, 64, 60
1, 1460077, Note_on_c, 0, 68, 84
1, 1460086, Note_off_c, 0, 59, 59
1, 1460108, Note_off_c, 0, 56, 61
1, 1460109, Note_off_c, 0, 68, 62
1, 1460140, Note_on_c, 0, 71, 87
1, 1460195, Note_off_c, 0, 71, 59
1, 1460218, Note_on_c, 0, 74, 64
1, 1460221, Note_on_c, 0, 76, 64
1, 1460238, Note_off_c, 0, 76, 65
1, 1460243, Note_off_c, 0, 74, 65
1, 1460248, Control_c, 0, 64, 89
1, 1460263, Control_c, 0, 64, 59
1, 1460278, Control_c, 0, 64, 0
1, 1460291, Note_on_c, 0, 63, 83
1, 1460295, Note_on_c, 0, 59, 75
1, 1460296, Note_on_c, 0, 56, 80
1, 1460301, Note_on_c, 0, 75, 93
1, 1460307, Control_c, 0, 64, 31
1, 1460322, Control_c, 0, 64, 57
1, 1460323, Note_off_c, 0, 63, 65
1, 1460327, Note_off_c, 0, 59, 66
1, 1460336, Note_off_c, 0, 56, 63
1, 1460337, Control_c, 0, 64, 74
1, 1460360, Control_c, 0, 64, 97
1, 1460375, Control_c, 0, 64, 127
1, 1460376, Note_off_c, 0, 75, 58
1, 1460391, Note_on_c, 0, 87, 74
1, 1460464, Note_on_c, 0, 86, 70
1, 1460467, Note_on_c, 0, 64, 94
1, 1460484, Note_off_c, 0, 87, 62
1, 1460492, Note_on_c, 0, 59, 46
1, 1460493, Control_c, 0, 64, 75
1, 1460496, Note_on_c, 0, 56, 41
1, 1460503, Note_off_c, 0, 64, 61
1, 1460507, Control_c, 0, 64, 52
1, 1460514, Note_off_c, 0, 86, 65
1, 1460516, Note_off_c, 0, 59, 57
1, 1460522, Control_c, 0, 64, 42
1, 1460524, Note_off_c, 0, 56, 0
1, 1460530, Note_on_c, 0, 75, 88
1, 1460537, Note_on_c, 0, 63, 99
1, 1460537, Control_c, 0, 64, 60
1, 1460538, Note_on_c, 0, 56, 73
1, 1460542, Note_on_c, 0, 59, 75
1, 1460552, Control_c, 0, 64, 74
1, 1460567, Control_c, 0, 64, 127
1, 1460580, Note_off_c, 0, 63, 65
1, 1460587, Note_off_c, 0, 59, 65
1, 1460596, Note_off_c, 0, 56, 63
1, 1460607, Note_on_c, 0, 87, 82
1, 1460622, Note_off_c, 0, 75, 62
1, 1460674, Note_on_c, 0, 83, 75
1, 1460682, Note_off_c, 0, 87, 62
1, 1460729, Control_c, 0, 64, 78
1, 1460732, Note_off_c, 0, 83, 63
1, 1460744, Control_c, 0, 64, 40
1, 1460759, Control_c, 0, 64, 0
1, 1460761, Note_on_c, 0, 62, 90
1, 1460761, Note_on_c, 0, 76, 92
1, 1460766, Note_on_c, 0, 56, 87
1, 1460768, Note_on_c, 0, 59, 78
1, 1460775, Control_c, 0, 64, 33
1, 1460790, Control_c, 0, 64, 61
1, 1460804, Control_c, 0, 64, 90
1, 1460814, Note_off_c, 0, 62, 64
1, 1460819, Note_off_c, 0, 56, 64
1, 1460819, Control_c, 0, 64, 127
1, 1460829, Note_off_c, 0, 59, 62
1, 1460840, Note_on_c, 0, 88, 85
1, 1460847, Note_off_c, 0, 76, 63
1, 1460905, Note_on_c, 0, 64, 84
1, 1460920, Note_on_c, 0, 86, 88
1, 1460949, Note_off_c, 0, 88, 66
1, 1460953, Control_c, 0, 64, 68
1, 1460968, Control_c, 0, 64, 47
1, 1460983, Control_c, 0, 64, 61
1, 1460987, Note_on_c, 0, 62, 74
1, 1460989, Note_on_c, 0, 59, 71
1, 1460992, Note_on_c, 0, 76, 85
1, 1460997, Control_c, 0, 64, 86
1, 1461006, Note_on_c, 0, 56, 83
1, 1461006, Note_off_c, 0, 64, 65
1, 1461008, Note_off_c, 0, 86, 63
1, 1461012, Control_c, 0, 64, 127
1, 1461033, Note_off_c, 0, 62, 63
1, 1461046, Note_off_c, 0, 59, 64
1, 1461052, Note_off_c, 0, 56, 64
1, 1461060, Note_on_c, 0, 88, 87
1, 1461075, Note_off_c, 0, 76, 64
1, 1461147, Note_on_c, 0, 83, 79
1, 1461160, Note_off_c, 0, 88, 66
1, 1461197, Control_c, 0, 64, 82
1, 1461204, Note_off_c, 0, 83, 63
1, 1461212, Control_c, 0, 64, 48
1, 1461227, Control_c, 0, 64, 0
1, 1461242, Note_on_c, 0, 59, 90
1, 1461242, Control_c, 0, 64, 36
1, 1461242, Note_on_c, 0, 53, 86
1, 1461243, Note_on_c, 0, 62, 96
1, 1461244, Note_on_c, 0, 80, 93
1, 1461256, Control_c, 0, 64, 65
1, 1461271, Control_c, 0, 64, 89
1, 1461286, Control_c, 0, 64, 127
1, 1461299, Note_on_c, 0, 92, 83
1, 1461331, Note_off_c, 0, 62, 63
1, 1461337, Note_off_c, 0, 80, 60
1, 1461357, Note_off_c, 0, 59, 58
1, 1461376, Note_off_c, 0, 53, 59
1, 1461383, Note_on_c, 0, 86, 79
1, 1461390, Note_off_c, 0, 92, 66
1, 1461448, Note_off_c, 0, 86, 64
1, 1461449, Control_c, 0, 64, 87
1, 1461463, Control_c, 0, 64, 44
1, 1461478, Control_c, 0, 64, 0
1, 1461493, Control_c, 0, 67, 36
1, 1461498, Note_on_c, 0, 61, 99
1, 1461504, Note_on_c, 0, 54, 85
1, 1461504, Note_on_c, 0, 57, 85
1, 1461507, Note_on_c, 0, 93, 106
1, 1461508, Control_c, 0, 64, 51
1, 1461508, Control_c, 0, 67, 34
1, 1461510, Note_on_c, 0, 81, 97
1, 1461513, Note_on_c, 0, 85, 92
1, 1461523, Control_c, 0, 64, 78
1, 1461523, Control_c, 0, 67, 0
1, 1461534, Note_off_c, 0, 61, 67
1, 1461537, Control_c, 0, 64, 127
1, 1461541, Note_off_c, 0, 81, 67
1, 1461550, Note_off_c, 0, 93, 65
1, 1461556, Note_off_c, 0, 57, 65
1, 1461560, Note_off_c, 0, 85, 66
1, 1461562, Note_off_c, 0, 54, 63
1, 1461686, Control_c, 0, 64, 93
1, 1461701, Control_c, 0, 64, 68
1, 1461716, Control_c, 0, 64, 48
1, 1461731, Control_c, 0, 64, 0
1, 1461981, Note_on_c, 0, 62, 91
1, 1461981, Note_on_c, 0, 50, 82
1, 1461984, Note_on_c, 0, 54, 78
1, 1461984, Note_on_c, 0, 78, 99
1, 1461984, Note_on_c, 0, 90, 91
1, 1461985, Note_on_c, 0, 81, 87
1, 1461986, Note_on_c, 0, 86, 82
1, 1461990, Control_c, 0, 64, 46
1, 1461993, Note_on_c, 0, 57, 80
1, 1462005, Control_c, 0, 64, 71
1, 1462020, Note_off_c, 0, 78, 64
1, 1462020, Control_c, 0, 64, 127
1, 1462022, Note_off_c, 0, 62, 64
1, 1462029, Note_off_c, 0, 90, 67
1, 1462031, Note_off_c, 0, 81, 66
1, 1462032, Note_off_c, 0, 50, 64
1, 1462034, Note_off_c, 0, 86, 66
1, 1462044, Note_off_c, 0, 57, 65
1, 1462048, Note_off_c, 0, 54, 62
1, 1462197, Control_c, 0, 64, 103
1, 1462212, Control_c, 0, 64, 82
1, 1462227, Control_c, 0, 64, 67
1, 1462242, Control_c, 0, 64, 55
1, 1462257, Control_c, 0, 64, 40
1, 1462272, Control_c, 0, 64, 0
1, 1462467, Note_on_c, 0, 85, 91
1, 1462472, Note_on_c, 0, 61, 90
1, 1462472, Note_on_c, 0, 76, 85
1, 1462473, Note_on_c, 0, 81, 83
1, 1462474, Note_on_c, 0, 52, 83
1, 1462477, Note_on_c, 0, 57, 77
1, 1462495, Control_c, 0, 64, 68
1, 1462500, Note_off_c, 0, 76, 67
1, 1462509, Control_c, 0, 64, 127
1, 1462514, Note_off_c, 0, 61, 64
1, 1462517, Note_off_c, 0, 81, 65
1, 1462523, Note_off_c, 0, 52, 64
1, 1462523, Note_off_c, 0, 85, 67
1, 1462530, Note_off_c, 0, 57, 65
1, 1462680, Control_c, 0, 64, 84
1, 1462695, Control_c, 0, 64, 58
1, 1462709, Control_c, 0, 64, 0
1, 1463020, Control_c, 0, 64, 52
1, 1463035, Control_c, 0, 64, 73
1, 1463047, Note_on_c, 0, 64, 93
1, 1463048, Note_on_c, 0, 52, 80
1, 1463049, Note_on_c, 0, 88, 88
1, 1463050, Note_on_c, 0, 83, 82
1, 1463050, Control_c, 0, 64, 127
1, 1463051, Note_on_c, 0, 80, 87
1, 1463052, Note_on_c, 0, 59, 88
1, 1463052, Note_on_c, 0, 76, 85
1, 1463053, Note_on_c, 0, 56, 81
1, 1463120, Note_off_c, 0, 52, 62
1, 1463128, Note_off_c, 0, 64, 63
1, 1463142, Note_off_c, 0, 76, 62
1, 1463150, Note_off_c, 0, 83, 61
1, 1463152, Note_off_c, 0, 59, 63
1, 1463156, Note_off_c, 0, 56, 62
1, 1463161, Note_off_c, 0, 88, 67
1, 1463193, Note_off_c, 0, 80, 59
1, 1463332, Control_c, 0, 64, 118
1, 1463355, Control_c, 0, 64, 99
1, 1463370, Control_c, 0, 64, 90
1, 1463384, Control_c, 0, 64, 84
1, 1463399, Control_c, 0, 64, 79
1, 1463414, Control_c, 0, 64, 75
1, 1463429, Control_c, 0, 64, 71
1, 1463444, Control_c, 0, 64, 68
1, 1463458, Control_c, 0, 64, 66
1, 1463473, Control_c, 0, 64, 64
1, 1463488, Control_c, 0, 64, 62
1, 1463503, Control_c, 0, 64, 59
1, 1463518, Control_c, 0, 64, 58
1, 1463532, Control_c, 0, 64, 55
1, 1463547, Control_c, 0, 64, 52
1, 1463562, Control_c, 0, 64, 47
1, 1463576, Control_c, 0, 64, 42
1, 1463591, Control_c, 0, 64, 38
1, 1463606, Control_c, 0, 64, 33
1, 1463621, Control_c, 0, 64, 0
1, 1464460, Control_c, 0, 64, 28
1, 1464489, Control_c, 0, 64, 30
1, 1464504, Control_c, 0, 64, 32
1, 1464519, Control_c, 0, 64, 37
1, 1464534, Control_c, 0, 64, 43
1, 1464548, Control_c, 0, 64, 48
1, 1464548, Control_c, 0, 67, 45
1, 1464563, Control_c, 0, 64, 53
1, 1464563, Control_c, 0, 67, 67
1, 1464578, Control_c, 0, 64, 56
1, 1464578, Control_c, 0, 67, 91
1, 1464593, Control_c, 0, 64, 58
1, 1464593, Control_c, 0, 67, 111
1, 1464607, Control_c, 0, 64, 59
1, 1464607, Control_c, 0, 67, 127
1, 1464622, Control_c, 0, 64, 61
1, 1464637, Control_c, 0, 64, 62
1, 1464652, Control_c, 0, 64, 63
1, 1464667, Control_c, 0, 64, 64
1, 1464682, Control_c, 0, 64, 64
1, 1464697, Control_c, 0, 64, 65
1, 1464712, Control_c, 0, 64, 65
1, 1464726, Control_c, 0, 64, 67
1, 1464741, Control_c, 0, 64, 68
1, 1464756, Control_c, 0, 64, 69
1, 1464771, Control_c, 0, 64, 70
1, 1464786, Control_c, 0, 64, 71
1, 1464801, Control_c, 0, 64, 73
1, 1464816, Control_c, 0, 64, 74
1, 1464831, Control_c, 0, 64, 77
1, 1464853, Control_c, 0, 64, 79
1, 1464868, Control_c, 0, 64, 82
1, 1464883, Control_c, 0, 64, 86
1, 1464897, Control_c, 0, 64, 89
1, 1464912, Control_c, 0, 64, 92
1, 1464926, Control_c, 0, 64, 95
1, 1464941, Control_c, 0, 64, 98
1, 1464956, Control_c, 0, 64, 102
1, 1464971, Control_c, 0, 64, 106
1, 1464986, Control_c, 0, 64, 109
1, 1465001, Control_c, 0, 64, 114
1, 1465016, Control_c, 0, 64, 117
1, 1465030, Control_c, 0, 64, 126
1, 1465372, Note_on_c, 0, 45, 20
1, 1465563, Note_on_c, 0, 52, 29
1, 1465722, Note_on_c, 0, 57, 45
1, 1465736, Note_off_c, 0, 52, 35
1, 1465806, Note_off_c, 0, 57, 51
1, 1465848, Note_off_c, 0, 45, 37
1, 1465850, Note_on_c, 0, 52, 49
1, 1466028, Note_off_c, 0, 52, 28
1, 1466058, Note_on_c, 0, 76, 55
1, 1466071, Note_on_c, 0, 61, 40
1, 1466088, Note_on_c, 0, 69, 35
1, 1466113, Note_on_c, 0, 45, 33
1, 1466149, Control_c, 0, 64, 104
1, 1466164, Control_c, 0, 64, 84
1, 1466178, Control_c, 0, 64, 70
1, 1466193, Control_c, 0, 64, 62
1, 1466208, Control_c, 0, 64, 60
1, 1466223, Control_c, 0, 64, 62
1, 1466238, Control_c, 0, 64, 65
1, 1466251, Note_on_c, 0, 52, 38
1, 1466253, Control_c, 0, 64, 69
1, 1466259, Note_off_c, 0, 61, 36
1, 1466268, Control_c, 0, 64, 77
1, 1466283, Control_c, 0, 64, 87
1, 1466298, Control_c, 0, 64, 95
1, 1466313, Control_c, 0, 64, 101
1, 1466321, Note_off_c, 0, 52, 56
1, 1466327, Control_c, 0, 64, 107
1, 1466327, Note_off_c, 0, 69, 35
1, 1466349, Control_c, 0, 64, 115
1, 1466351, Note_on_c, 0, 57, 44
1, 1466364, Control_c, 0, 64, 127
1, 1466410, Note_off_c, 0, 76, 60
1, 1466463, Note_on_c, 0, 74, 64
1, 1466475, Note_off_c, 0, 57, 53
1, 1466509, Note_on_c, 0, 52, 48
1, 1466519, Note_off_c, 0, 74, 64
1, 1466521, Note_off_c, 0, 45, 38
1, 1466526, Note_on_c, 0, 73, 61
1, 1466542, Control_c, 0, 64, 94
1, 1466553, Note_off_c, 0, 73, 69
1, 1466557, Control_c, 0, 64, 72
1, 1466572, Control_c, 0, 64, 64
1, 1466587, Control_c, 0, 64, 66
1, 1466590, Note_off_c, 0, 52, 50
1, 1466602, Control_c, 0, 64, 69
1, 1466617, Control_c, 0, 64, 74
1, 1466619, Note_on_c, 0, 71, 69
1, 1466632, Control_c, 0, 64, 78
1, 1466643, Note_on_c, 0, 45, 47
1, 1466646, Control_c, 0, 64, 79
1, 1466653, Note_on_c, 0, 69, 41
1, 1466656, Note_on_c, 0, 63, 37
1, 1466676, Control_c, 0, 64, 78
1, 1466691, Control_c, 0, 64, 76
1, 1466692, Note_off_c, 0, 63, 50
1, 1466697, Note_off_c, 0, 71, 58
1, 1466706, Control_c, 0, 64, 73
1, 1466711, Note_off_c, 0, 69, 57
1, 1466721, Control_c, 0, 64, 70
1, 1466736, Control_c, 0, 64, 67
1, 1466750, Control_c, 0, 64, 65
1, 1466754, Note_on_c, 0, 54, 51
1, 1466765, Control_c, 0, 64, 62
1, 1466780, Control_c, 0, 64, 59
1, 1466794, Control_c, 0, 64, 57
1, 1466809, Control_c, 0, 64, 57
1, 1466854, Control_c, 0, 64, 57
1, 1466868, Control_c, 0, 64, 58
1, 1466870, Note_off_c, 0, 54, 60
1, 1466874, Note_on_c, 0, 71, 74
1, 1466883, Control_c, 0, 64, 59
1, 1466891, Note_on_c, 0, 63, 58
1, 1466894, Note_on_c, 0, 69, 57
1, 1466898, Control_c, 0, 64, 60
1, 1466901, Note_on_c, 0, 59, 53
1, 1466913, Control_c, 0, 64, 61
1, 1466928, Control_c, 0, 64, 61
1, 1466936, Note_off_c, 0, 69, 60
1, 1466942, Control_c, 0, 64, 62
1, 1466957, Note_off_c, 0, 63, 54
1, 1466957, Control_c, 0, 64, 63
1, 1466972, Control_c, 0, 64, 64
1, 1466987, Control_c, 0, 64, 64
1, 1466988, Note_off_c, 0, 71, 61
1, 1467006, Note_off_c, 0, 45, 38
1, 1467013, Note_off_c, 0, 59, 53
1, 1467015, Note_on_c, 0, 54, 49
1, 1467098, Control_c, 0, 64, 64
1, 1467113, Control_c, 0, 64, 63
1, 1467130, Note_off_c, 0, 54, 58
1, 1467142, Control_c, 0, 64, 63
1, 1467158, Control_c, 0, 64, 62
1, 1467163, Note_on_c, 0, 71, 70
1, 1467174, Control_c, 0, 64, 61
1, 1467189, Control_c, 0, 64, 61
1, 1467204, Note_on_c, 0, 45, 42
1, 1467204, Control_c, 0, 64, 59
1, 1467210, Note_on_c, 0, 68, 42
1, 1467218, Note_on_c, 0, 62, 35
1, 1467218, Control_c, 0, 64, 56
1, 1467233, Control_c, 0, 64, 49
1, 1467248, Control_c, 0, 64, 34
1, 1467263, Control_c, 0, 64, 0
1, 1467314, Note_on_c, 0, 52, 47
1, 1467322, Control_c, 0, 64, 30
1, 1467337, Control_c, 0, 64, 43
1, 1467352, Control_c, 0, 64, 55
1, 1467366, Control_c, 0, 64, 62
1, 1467381, Control_c, 0, 64, 66
1, 1467396, Control_c, 0, 64, 69
1, 1467411, Control_c, 0, 64, 72
1, 1467425, Control_c, 0, 64, 76
1, 1467429, Note_off_c, 0, 52, 60
1, 1467433, Note_on_c, 0, 74, 73
1, 1467440, Note_off_c, 0, 71, 61
1, 1467440, Control_c, 0, 64, 79
1, 1467455, Control_c, 0, 64, 81
1, 1467459, Note_on_c, 0, 59, 49
1, 1467470, Control_c, 0, 64, 83
1, 1467485, Control_c, 0, 64, 85
1, 1467499, Control_c, 0, 64, 86
1, 1467514, Control_c, 0, 64, 88
1, 1467529, Control_c, 0, 64, 89
1, 1467544, Control_c, 0, 64, 90
1, 1467570, Note_off_c, 0, 45, 36
1, 1467570, Note_off_c, 0, 62, 58
1, 1467597, Note_off_c, 0, 59, 42
1, 1467598, Note_on_c, 0, 52, 44
1, 1467600, Note_off_c, 0, 74, 54
1, 1467622, Note_off_c, 0, 68, 42
1, 1467640, Note_on_c, 0, 73, 60
1, 1467648, Control_c, 0, 64, 89
1, 1467663, Control_c, 0, 64, 87
1, 1467665, Note_off_c, 0, 52, 48
1, 1467678, Control_c, 0, 64, 78
1, 1467692, Control_c, 0, 64, 64
1, 1467707, Control_c, 0, 64, 43
1, 1467719, Note_on_c, 0, 69, 58
1, 1467721, Note_off_c, 0, 73, 57
1, 1467722, Control_c, 0, 64, 0
1, 1467739, Note_on_c, 0, 61, 28
1, 1467745, Note_on_c, 0, 45, 34
1, 1467796, Control_c, 0, 64, 32
1, 1467810, Control_c, 0, 64, 47
1, 1467825, Control_c, 0, 64, 59
1, 1467848, Control_c, 0, 64, 64
1, 1467855, Note_off_c, 0, 61, 59
1, 1467863, Control_c, 0, 64, 66
1, 1467875, Note_off_c, 0, 69, 60
1, 1467877, Note_on_c, 0, 52, 42
1, 1467878, Control_c, 0, 64, 70
1, 1467892, Control_c, 0, 64, 75
1, 1467907, Control_c, 0, 64, 82
1, 1467922, Control_c, 0, 64, 89
1, 1467937, Control_c, 0, 64, 95
1, 1467951, Control_c, 0, 64, 101
1, 1467966, Control_c, 0, 64, 106
1, 1467977, Note_off_c, 0, 52, 59
1, 1467982, Control_c, 0, 64, 109
1, 1468006, Note_on_c, 0, 57, 46
1, 1468086, Control_c, 0, 64, 104
1, 1468089, Note_off_c, 0, 45, 39
1, 1468090, Note_off_c, 0, 57, 56
1, 1468101, Control_c, 0, 64, 98
1, 1468116, Note_on_c, 0, 52, 44
1, 1468116, Control_c, 0, 64, 92
1, 1468130, Control_c, 0, 64, 87
1, 1468145, Control_c, 0, 64, 81
1, 1468160, Control_c, 0, 64, 77
1, 1468174, Control_c, 0, 64, 72
1, 1468189, Control_c, 0, 64, 66
1, 1468204, Control_c, 0, 64, 60
1, 1468219, Control_c, 0, 64, 54
1, 1468223, Note_off_c, 0, 52, 38
1, 1468234, Control_c, 0, 64, 47
1, 1468248, Control_c, 0, 64, 37
1, 1468252, Note_on_c, 0, 76, 71
1, 1468263, Control_c, 0, 64, 0
1, 1468277, Note_on_c, 0, 61, 47
1, 1468279, Note_on_c, 0, 69, 49
1, 1468284, Note_on_c, 0, 45, 39
1, 1468396, Control_c, 0, 64, 32
1, 1468402, Note_on_c, 0, 52, 46
1, 1468411, Control_c, 0, 64, 51
1, 1468414, Note_off_c, 0, 61, 56
1, 1468426, Control_c, 0, 64, 65
1, 1468434, Note_off_c, 0, 69, 47
1, 1468441, Control_c, 0, 64, 71
1, 1468456, Control_c, 0, 64, 76
1, 1468471, Control_c, 0, 64, 80
1, 1468483, Note_off_c, 0, 52, 61
1, 1468486, Control_c, 0, 64, 86
1, 1468501, Control_c, 0, 64, 93
1, 1468515, Control_c, 0, 64, 97
1, 1468517, Note_on_c, 0, 57, 49
1, 1468530, Control_c, 0, 64, 101
1, 1468545, Control_c, 0, 64, 104
1, 1468559, Control_c, 0, 64, 108
1, 1468574, Control_c, 0, 64, 110
1, 1468596, Control_c, 0, 64, 114
1, 1468603, Note_off_c, 0, 76, 60
1, 1468611, Control_c, 0, 64, 120
1, 1468626, Control_c, 0, 64, 127
1, 1468634, Note_off_c, 0, 57, 54
1, 1468637, Note_on_c, 0, 74, 70
1, 1468656, Note_on_c, 0, 52, 46
1, 1468657, Note_off_c, 0, 45, 40
1, 1468706, Note_off_c, 0, 74, 64
1, 1468707, Note_on_c, 0, 73, 74
1, 1468728, Control_c, 0, 64, 94
1, 1468730, Note_off_c, 0, 73, 70
1, 1468743, Control_c, 0, 64, 77
1, 1468754, Note_off_c, 0, 52, 58
1, 1468758, Control_c, 0, 64, 68
1, 1468774, Control_c, 0, 64, 63
1, 1468787, Note_on_c, 0, 71, 82
1, 1468789, Control_c, 0, 64, 60
1, 1468791, Note_on_c, 0, 45, 51
1, 1468803, Control_c, 0, 64, 58
1, 1468805, Note_on_c, 0, 62, 62
1, 1468818, Control_c, 0, 64, 54
1, 1468819, Note_on_c, 0, 69, 44
1, 1468833, Control_c, 0, 64, 46
1, 1468848, Control_c, 0, 64, 28
1, 1468853, Note_off_c, 0, 62, 45
1, 1468863, Control_c, 0, 64, 0
1, 1468921, Note_off_c, 0, 71, 60
1, 1468924, Note_on_c, 0, 53, 56
1, 1468936, Note_off_c, 0, 69, 45
1, 1468937, Control_c, 0, 64, 44
1, 1468951, Control_c, 0, 64, 57
1, 1468966, Control_c, 0, 64, 62
1, 1468981, Control_c, 0, 64, 64
1, 1468995, Control_c, 0, 64, 65
1, 1469010, Control_c, 0, 64, 68
1, 1469025, Control_c, 0, 64, 71
1, 1469027, Note_off_c, 0, 53, 58
1, 1469040, Control_c, 0, 64, 75
1, 1469049, Note_on_c, 0, 71, 81
1, 1469055, Control_c, 0, 64, 77
1, 1469070, Note_on_c, 0, 69, 59
1, 1469070, Control_c, 0, 64, 78
1, 1469073, Note_on_c, 0, 62, 53
1, 1469082, Note_on_c, 0, 59, 48
1, 1469085, Control_c, 0, 64, 79
1, 1469100, Note_off_c, 0, 62, 57
1, 1469100, Control_c, 0, 64, 79
1, 1469113, Note_off_c, 0, 69, 59
1, 1469115, Control_c, 0, 64, 80
1, 1469130, Control_c, 0, 64, 81
1, 1469136, Note_off_c, 0, 71, 63
1, 1469144, Control_c, 0, 64, 82
1, 1469175, Note_off_c, 0, 59, 53
1, 1469189, Note_off_c, 0, 45, 36
1, 1469194, Note_on_c, 0, 53, 46
1, 1469273, Note_off_c, 0, 53, 49
1, 1469292, Control_c, 0, 64, 82
1, 1469306, Control_c, 0, 64, 81
1, 1469321, Control_c, 0, 64, 80
1, 1469344, Control_c, 0, 64, 78
1, 1469351, Note_on_c, 0, 71, 71
1, 1469359, Control_c, 0, 64, 76
1, 1469374, Control_c, 0, 64, 72
1, 1469386, Note_on_c, 0, 45, 49
1, 1469388, Control_c, 0, 64, 67
1, 1469394, Note_on_c, 0, 62, 46
1, 1469399, Note_on_c, 0, 68, 45
1, 1469403, Control_c, 0, 64, 58
1, 1469418, Control_c, 0, 64, 36
1, 1469433, Control_c, 0, 64, 0
1, 1469499, Note_on_c, 0, 52, 51
1, 1469521, Control_c, 0, 64, 27
1, 1469536, Control_c, 0, 64, 47
1, 1469551, Control_c, 0, 64, 61
1, 1469562, Note_off_c, 0, 68, 52
1, 1469567, Control_c, 0, 64, 66
1, 1469582, Control_c, 0, 64, 70
1, 1469597, Control_c, 0, 64, 74
1, 1469611, Control_c, 0, 64, 79
1, 1469613, Note_off_c, 0, 71, 58
1, 1469616, Note_off_c, 0, 52, 59
1, 1469621, Note_on_c, 0, 74, 71
1, 1469626, Control_c, 0, 64, 84
1, 1469630, Note_on_c, 0, 68, 5
1, 1469633, Note_on_c, 0, 59, 53
1, 1469641, Control_c, 0, 64, 87
1, 1469656, Control_c, 0, 64, 89
1, 1469671, Control_c, 0, 64, 91
1, 1469685, Control_c, 0, 64, 94
1, 1469700, Control_c, 0, 64, 94
1, 1469715, Control_c, 0, 64, 95
1, 1469730, Control_c, 0, 64, 95
1, 1469732, Note_off_c, 0, 68, 34
1, 1469737, Note_off_c, 0, 62, 57
1, 1469761, Note_off_c, 0, 74, 58
1, 1469762, Note_off_c, 0, 59, 37
1, 1469788, Note_off_c, 0, 45, 37
1, 1469789, Note_on_c, 0, 52, 43
1, 1469820, Note_on_c, 0, 73, 61
1, 1469833, Control_c, 0, 64, 95
1, 1469844, Note_off_c, 0, 52, 53
1, 1469848, Control_c, 0, 64, 93
1, 1469857, Note_off_c, 0, 73, 60
1, 1469863, Control_c, 0, 64, 83
1, 1469878, Control_c, 0, 64, 68
1, 1469893, Control_c, 0, 64, 46
1, 1469898, Note_on_c, 0, 69, 65
1, 1469904, Note_on_c, 0, 61, 55
1, 1469908, Control_c, 0, 64, 0
1, 1469918, Note_on_c, 0, 45, 45
1, 1469997, Control_c, 0, 64, 44
1, 1470011, Control_c, 0, 64, 60
1, 1470024, Note_off_c, 0, 61, 64
1, 1470026, Control_c, 0, 64, 66
1, 1470041, Note_on_c, 0, 52, 49
1, 1470041, Control_c, 0, 64, 70
1, 1470045, Note_off_c, 0, 69, 61
1, 1470056, Control_c, 0, 64, 74
1, 1470071, Control_c, 0, 64, 80
1, 1470092, Control_c, 0, 64, 86
1, 1470107, Control_c, 0, 64, 91
1, 1470122, Control_c, 0, 64, 95
1, 1470137, Control_c, 0, 64, 98
1, 1470143, Note_off_c, 0, 52, 60
1, 1470173, Note_on_c, 0, 57, 54
1, 1470241, Control_c, 0, 64, 92
1, 1470256, Control_c, 0, 64, 85
1, 1470265, Note_off_c, 0, 57, 57
1, 1470271, Control_c, 0, 64, 77
1, 1470277, Note_off_c, 0, 45, 35
1, 1470285, Control_c, 0, 64, 69
1, 1470288, Note_on_c, 0, 52, 43
1, 1470300, Control_c, 0, 64, 61
1, 1470315, Control_c, 0, 64, 51
1, 1470330, Control_c, 0, 64, 37
1, 1470344, Control_c, 0, 64, 0
1, 1470387, Note_off_c, 0, 52, 34
1, 1470431, Note_on_c, 0, 71, 70
1, 1470456, Note_on_c, 0, 45, 44
1, 1470467, Note_on_c, 0, 68, 44
1, 1470482, Note_on_c, 0, 62, 30
1, 1470553, Control_c, 0, 64, 33
1, 1470567, Control_c, 0, 64, 46
1, 1470582, Control_c, 0, 64, 57
1, 1470584, Note_on_c, 0, 52, 44
1, 1470597, Control_c, 0, 64, 64
1, 1470612, Control_c, 0, 64, 67
1, 1470627, Control_c, 0, 64, 69
1, 1470641, Control_c, 0, 64, 72
1, 1470656, Control_c, 0, 64, 76
1, 1470671, Control_c, 0, 64, 79
1, 1470686, Control_c, 0, 64, 82
1, 1470694, Note_off_c, 0, 52, 58
1, 1470697, Note_off_c, 0, 68, 0
1, 1470701, Control_c, 0, 64, 83
1, 1470703, Note_off_c, 0, 71, 57
1, 1470706, Note_on_c, 0, 74, 72
1, 1470715, Control_c, 0, 64, 83
1, 1470724, Note_on_c, 0, 56, 51
1, 1470733, Poly_aftertouch_c, 0, 68, 127
1, 1470745, Control_c, 0, 67, 112
1, 1470760, Control_c, 0, 67, 95
1, 1470775, Control_c, 0, 67, 79
1, 1470775, Note_off_c, 0, 62, 42
1, 1470790, Control_c, 0, 64, 83
1, 1470790, Control_c, 0, 67, 64
1, 1470797, Poly_aftertouch_c, 0, 68, 0
1, 1470805, Control_c, 0, 64, 82
1, 1470805, Control_c, 0, 67, 54
1, 1470820, Control_c, 0, 64, 81
1, 1470820, Control_c, 0, 67, 50
1, 1470835, Note_off_c, 0, 56, 49
1, 1470839, Note_off_c, 0, 45, 36
1, 1470841, Control_c, 0, 64, 79
1, 1470856, Control_c, 0, 64, 76
1, 1470871, Control_c, 0, 64, 74
1, 1470871, Control_c, 0, 67, 53
1, 1470881, Note_on_c, 0, 52, 44
1, 1470886, Control_c, 0, 64, 71
1, 1470886, Control_c, 0, 67, 55
1, 1470892, Note_off_c, 0, 74, 61
1, 1470902, Control_c, 0, 64, 68
1, 1470902, Control_c, 0, 67, 56
1, 1470916, Control_c, 0, 64, 64
1, 1470916, Control_c, 0, 67, 58
1, 1470918, Note_on_c, 0, 73, 61
1, 1470931, Control_c, 0, 64, 58
1, 1470931, Control_c, 0, 67, 61
1, 1470941, Note_off_c, 0, 52, 53
1, 1470946, Control_c, 0, 64, 47
1, 1470946, Control_c, 0, 67, 64
1, 1470961, Control_c, 0, 64, 0
1, 1470961, Control_c, 0, 67, 67
1, 1470975, Control_c, 0, 67, 68
1, 1470990, Control_c, 0, 67, 69
1, 1470996, Note_on_c, 0, 61, 42
1, 1470996, Note_on_c, 0, 69, 59
1, 1470996, Note_off_c, 0, 73, 57
1, 1471005, Control_c, 0, 67, 71
1, 1471007, Note_on_c, 0, 45, 36
1, 1471020, Control_c, 0, 67, 72
1, 1471035, Control_c, 0, 67, 73
1, 1471049, Control_c, 0, 67, 75
1, 1471064, Control_c, 0, 64, 31
1, 1471064, Control_c, 0, 67, 76
1, 1471079, Control_c, 0, 64, 46
1, 1471094, Control_c, 0, 64, 60
1, 1471109, Control_c, 0, 64, 64
1, 1471109, Control_c, 0, 67, 76
1, 1471115, Note_off_c, 0, 61, 63
1, 1471124, Control_c, 0, 64, 65
1, 1471124, Control_c, 0, 67, 75
1, 1471132, Note_off_c, 0, 69, 60
1, 1471139, Control_c, 0, 64, 67
1, 1471139, Control_c, 0, 67, 73
1, 1471141, Note_on_c, 0, 52, 47
1, 1471154, Control_c, 0, 64, 72
1, 1471154, Control_c, 0, 67, 71
1, 1471169, Control_c, 0, 64, 77
1, 1471169, Control_c, 0, 67, 69
1, 1471183, Control_c, 0, 64, 81
1, 1471183, Control_c, 0, 67, 67
1, 1471198, Control_c, 0, 64, 84
1, 1471198, Control_c, 0, 67, 65
1, 1471213, Control_c, 0, 64, 87
1, 1471213, Control_c, 0, 67, 63
1, 1471228, Control_c, 0, 64, 90
1, 1471228, Control_c, 0, 67, 57
1, 1471237, Note_off_c, 0, 52, 59
1, 1471243, Control_c, 0, 64, 93
1, 1471243, Control_c, 0, 67, 53
1, 1471258, Control_c, 0, 64, 95
1, 1471258, Control_c, 0, 67, 50
1, 1471268, Note_on_c, 0, 57, 49
1, 1471273, Control_c, 0, 67, 49
1, 1471303, Control_c, 0, 67, 49
1, 1471317, Control_c, 0, 67, 52
1, 1471332, Control_c, 0, 67, 55
1, 1471347, Control_c, 0, 67, 60
1, 1471355, Note_off_c, 0, 45, 39
1, 1471362, Control_c, 0, 64, 95
1, 1471362, Control_c, 0, 67, 65
1, 1471371, Note_off_c, 0, 57, 57
1, 1471377, Control_c, 0, 64, 91
1, 1471377, Control_c, 0, 67, 67
1, 1471391, Control_c, 0, 64, 86
1, 1471391, Control_c, 0, 67, 69
1, 1471395, Note_on_c, 0, 52, 42
1, 1471406, Control_c, 0, 64, 80
1, 1471406, Control_c, 0, 67, 72
1, 1471421, Control_c, 0, 64, 76
1, 1471421, Control_c, 0, 67, 75
1, 1471436, Control_c, 0, 64, 73
1, 1471436, Control_c, 0, 67, 77
1, 1471451, Control_c, 0, 64, 70
1, 1471451, Control_c, 0, 67, 80
1, 1471465, Control_c, 0, 64, 66
1, 1471465, Control_c, 0, 67, 87
1, 1471479, Note_off_c, 0, 52, 38
1, 1471480, Control_c, 0, 64, 63
1, 1471480, Control_c, 0, 67, 97
1, 1471495, Control_c, 0, 64, 59
1, 1471495, Control_c, 0, 67, 111
1, 1471509, Control_c, 0, 64, 55
1, 1471509, Control_c, 0, 67, 127
1, 1471524, Control_c, 0, 64, 50
1, 1471534, Note_on_c, 0, 71, 63
1, 1471539, Control_c, 0, 64, 41
1, 1471552, Note_on_c, 0, 62, 44
1, 1471552, Note_on_c, 0, 68, 48
1, 1471554, Control_c, 0, 64, 0
1, 1471556, Note_on_c, 0, 45, 34
1, 1471679, Control_c, 0, 64, 31
1, 1471694, Control_c, 0, 64, 46
1, 1471698, Note_on_c, 0, 52, 45
1, 1471709, Control_c, 0, 64, 59
1, 1471723, Control_c, 0, 64, 63
1, 1471738, Control_c, 0, 64, 65
1, 1471753, Control_c, 0, 64, 67
1, 1471768, Control_c, 0, 64, 72
1, 1471780, Note_off_c, 0, 71, 57
1, 1471783, Control_c, 0, 64, 76
1, 1471797, Control_c, 0, 64, 79
1, 1471809, Note_off_c, 0, 52, 58
1, 1471812, Control_c, 0, 64, 80
1, 1471815, Note_on_c, 0, 74, 64
1, 1471827, Control_c, 0, 64, 82
1, 1471839, Note_on_c, 0, 56, 50
1, 1471842, Control_c, 0, 64, 83
1, 1471857, Control_c, 0, 64, 84
1, 1471860, Note_off_c, 0, 62, 36
1, 1471872, Control_c, 0, 64, 84
1, 1471880, Note_off_c, 0, 68, 45
1, 1471955, Note_off_c, 0, 45, 36
1, 1471955, Note_off_c, 0, 56, 39
1, 1471972, Note_off_c, 0, 74, 55
1, 1472003, Note_on_c, 0, 52, 42
1, 1472012, Note_on_c, 0, 73, 56
1, 1472036, Control_c, 0, 64, 83
1, 1472051, Control_c, 0, 64, 79
1, 1472066, Control_c, 0, 64, 68
1, 1472067, Note_off_c, 0, 52, 46
1, 1472080, Control_c, 0, 64, 54
1, 1472089, Note_off_c, 0, 73, 53
1, 1472094, Note_on_c, 0, 69, 51
1, 1472095, Control_c, 0, 64, 34
1, 1472100, Note_on_c, 0, 61, 38
1, 1472110, Control_c, 0, 64, 0
1, 1472112, Note_on_c, 0, 45, 36
1, 1472139, Control_c, 0, 64, 34
1, 1472154, Control_c, 0, 64, 42
1, 1472169, Control_c, 0, 64, 53
1, 1472184, Control_c, 0, 64, 60
1, 1472199, Control_c, 0, 64, 64
1, 1472213, Control_c, 0, 64, 68
1, 1472227, Note_off_c, 0, 61, 61
1, 1472228, Control_c, 0, 64, 72
1, 1472243, Control_c, 0, 64, 76
1, 1472248, Note_off_c, 0, 69, 57
1, 1472249, Note_on_c, 0, 52, 42
1, 1472258, Control_c, 0, 64, 79
1, 1472273, Control_c, 0, 64, 82
1, 1472287, Control_c, 0, 64, 85
1, 1472302, Control_c, 0, 64, 87
1, 1472317, Control_c, 0, 64, 88
1, 1472352, Note_off_c, 0, 52, 60
1, 1472384, Note_on_c, 0, 57, 48
1, 1472399, Control_c, 0, 64, 88
1, 1472413, Control_c, 0, 64, 86
1, 1472428, Control_c, 0, 64, 82
1, 1472443, Control_c, 0, 64, 78
1, 1472458, Control_c, 0, 64, 73
1, 1472473, Control_c, 0, 64, 68
1, 1472481, Note_off_c, 0, 45, 38
1, 1472487, Control_c, 0, 64, 64
1, 1472488, Note_off_c, 0, 57, 57
1, 1472502, Control_c, 0, 64, 59
1, 1472507, Note_on_c, 0, 52, 41
1, 1472517, Control_c, 0, 64, 56
1, 1472532, Control_c, 0, 64, 53
1, 1472546, Control_c, 0, 64, 48
1, 1472561, Control_c, 0, 64, 42
1, 1472576, Control_c, 0, 64, 31
1, 1472591, Control_c, 0, 64, 0
1, 1472622, Note_off_c, 0, 52, 49
1, 1472682, Note_on_c, 0, 71, 53
1, 1472693, Note_on_c, 0, 45, 37
1, 1472698, Note_on_c, 0, 62, 38
1, 1472716, Note_on_c, 0, 68, 33
1, 1472829, Control_c, 0, 64, 34
1, 1472844, Control_c, 0, 64, 46
1, 1472856, Note_on_c, 0, 53, 45
1, 1472859, Control_c, 0, 64, 56
1, 1472874, Control_c, 0, 64, 59
1, 1472888, Control_c, 0, 64, 60
1, 1472903, Control_c, 0, 64, 62
1, 1472918, Control_c, 0, 64, 64
1, 1472933, Control_c, 0, 64, 67
1, 1472948, Control_c, 0, 64, 70
1, 1472962, Control_c, 0, 64, 72
1, 1472977, Control_c, 0, 64, 75
1, 1472992, Control_c, 0, 64, 77
1, 1472998, Note_off_c, 0, 53, 54
1, 1473004, Note_on_c, 0, 74, 55
1, 1473007, Control_c, 0, 64, 78
1, 1473022, Control_c, 0, 64, 80
1, 1473026, Note_on_c, 0, 56, 48
1, 1473036, Control_c, 0, 64, 83
1, 1473043, Note_off_c, 0, 71, 51
1, 1473051, Control_c, 0, 64, 86
1, 1473066, Control_c, 0, 64, 89
1, 1473088, Control_c, 0, 64, 92
1, 1473103, Control_c, 0, 64, 95
1, 1473118, Control_c, 0, 64, 98
1, 1473133, Control_c, 0, 64, 101
1, 1473142, Note_off_c, 0, 68, 42
1, 1473148, Control_c, 0, 64, 106
1, 1473162, Control_c, 0, 64, 109
1, 1473177, Control_c, 0, 64, 111
1, 1473187, Note_on_c, 0, 53, 43
1, 1473204, Note_off_c, 0, 56, 38
1, 1473212, Note_off_c, 0, 62, 35
1, 1473225, Note_off_c, 0, 45, 34
1, 1473227, Note_off_c, 0, 74, 53
1, 1473242, Note_off_c, 0, 53, 56
1, 1473298, Note_on_c, 0, 73, 51
1, 1473337, Note_off_c, 0, 73, 60
1, 1473399, Control_c, 0, 64, 109
1, 1473429, Control_c, 0, 64, 106
1, 1473443, Control_c, 0, 64, 102
1, 1473453, Note_on_c, 0, 69, 43
1, 1473458, Control_c, 0, 64, 94
1, 1473469, Note_on_c, 0, 61, 41
1, 1473473, Control_c, 0, 64, 81
1, 1473488, Control_c, 0, 64, 63
1, 1473501, Note_on_c, 0, 57, 26
1, 1473502, Note_on_c, 0, 45, 34
1, 1473502, Control_c, 0, 64, 35
1, 1473508, Note_on_c, 0, 52, 29
1, 1473517, Control_c, 0, 64, 0
1, 1473607, Control_c, 0, 64, 41
1, 1473622, Control_c, 0, 64, 58
1, 1473637, Control_c, 0, 64, 64
1, 1473652, Control_c, 0, 64, 68
1, 1473666, Control_c, 0, 64, 73
1, 1473672, Note_off_c, 0, 57, 57
1, 1473681, Control_c, 0, 64, 80
1, 1473685, Note_off_c, 0, 69, 60
1, 1473696, Control_c, 0, 64, 89
1, 1473711, Control_c, 0, 64, 98
1, 1473726, Control_c, 0, 64, 106
1, 1473728, Note_off_c, 0, 45, 41
1, 1473739, Note_off_c, 0, 52, 41
1, 1473741, Control_c, 0, 64, 120
1, 1473743, Note_off_c, 0, 61, 61
1, 1473756, Control_c, 0, 64, 127
1, 1473837, Control_c, 0, 67, 117
1, 1473852, Control_c, 0, 67, 90
1, 1473866, Control_c, 0, 67, 58
1, 1473881, Control_c, 0, 67, 0
1, 1473897, Control_c, 0, 64, 114
1, 1473911, Control_c, 0, 64, 83
1, 1473926, Control_c, 0, 64, 66
1, 1473941, Control_c, 0, 64, 49
1, 1473956, Control_c, 0, 64, 0
1, 1474218, Note_on_c, 0, 45, 83
1, 1474231, Note_on_c, 0, 33, 73
1, 1474238, Control_c, 0, 64, 27
1, 1474252, Control_c, 0, 64, 81
1, 1474266, Note_off_c, 0, 45, 64
1, 1474267, Control_c, 0, 64, 127
1, 1474295, Note_on_c, 0, 49, 84
1, 1474295, Note_off_c, 0, 33, 60
1, 1474296, Note_on_c, 0, 37, 78
1, 1474340, Note_off_c, 0, 49, 64
1, 1474362, Note_on_c, 0, 50, 50
1, 1474369, Note_on_c, 0, 52, 77
1, 1474370, Note_on_c, 0, 40, 77
1, 1474384, Note_off_c, 0, 37, 62
1, 1474393, Note_off_c, 0, 50, 55
1, 1474413, Note_off_c, 0, 52, 63
1, 1474424, Note_off_c, 0, 40, 61
1, 1474443, Note_on_c, 0, 45, 69
1, 1474458, Note_on_c, 0, 57, 83
1, 1474469, Note_off_c, 0, 45, 66
1, 1474513, Note_off_c, 0, 57, 62
1, 1474534, Note_on_c, 0, 61, 86
1, 1474541, Note_on_c, 0, 49, 65
1, 1474609, Note_off_c, 0, 61, 64
1, 1474614, Note_on_c, 0, 64, 79
1, 1474618, Note_on_c, 0, 52, 73
1, 1474618, Note_off_c, 0, 49, 63
1, 1474653, Note_off_c, 0, 52, 64
1, 1474656, Note_off_c, 0, 64, 67
1, 1474689, Note_on_c, 0, 57, 68
1, 1474697, Note_on_c, 0, 69, 85
1, 1474719, Note_off_c, 0, 57, 67
1, 1474757, Note_off_c, 0, 69, 59
1, 1474772, Note_on_c, 0, 73, 87
1, 1474783, Note_on_c, 0, 61, 69
1, 1474839, Note_off_c, 0, 73, 64
1, 1474841, Note_on_c, 0, 76, 82
1, 1474844, Note_on_c, 0, 64, 77
1, 1474844, Note_off_c, 0, 61, 65
1, 1474873, Note_off_c, 0, 64, 66
1, 1474875, Note_off_c, 0, 76, 64
1, 1474917, Note_on_c, 0, 81, 92
1, 1474921, Note_on_c, 0, 69, 72
1, 1474958, Note_off_c, 0, 69, 62
1, 1474993, Note_on_c, 0, 85, 89
1, 1475000, Note_on_c, 0, 73, 80
1, 1475002, Note_off_c, 0, 81, 57
1, 1475039, Note_off_c, 0, 73, 67
1, 1475058, Note_on_c, 0, 88, 87
1, 1475060, Control_c, 0, 64, 98
1, 1475067, Note_on_c, 0, 76, 90
1, 1475070, Note_off_c, 0, 85, 65
1, 1475075, Control_c, 0, 64, 63
1, 1475090, Control_c, 0, 64, 0
1, 1475118, Note_off_c, 0, 76, 67
1, 1475120, Control_c, 0, 64, 48
1, 1475134, Control_c, 0, 64, 66
1, 1475138, Note_on_c, 0, 93, 109
1, 1475142, Note_on_c, 0, 81, 98
1, 1475150, Control_c, 0, 64, 95
1, 1475154, Note_off_c, 0, 88, 63
1, 1475160, Note_off_c, 0, 81, 71
1, 1475165, Note_on_c, 0, 90, 53
1, 1475165, Note_off_c, 0, 90, 127
1, 1475165, Control_c, 0, 64, 127
1, 1475175, Note_off_c, 0, 93, 69
1, 1475336, Control_c, 0, 64, 95
1, 1475351, Control_c, 0, 64, 68
1, 1475365, Control_c, 0, 64, 44
1, 1475380, Control_c, 0, 64, 0
1, 1475619, Note_on_c, 0, 81, 94
1, 1475622, Note_on_c, 0, 69, 95
1, 1475624, Note_on_c, 0, 78, 84
1, 1475625, Note_on_c, 0, 66, 100
1, 1475626, Note_on_c, 0, 57, 83
1, 1475627, Note_on_c, 0, 74, 82
1, 1475630, Note_on_c, 0, 62, 88
1, 1475646, Control_c, 0, 64, 61
1, 1475654, Note_off_c, 0, 69, 65
1, 1475656, Note_off_c, 0, 81, 68
1, 1475661, Control_c, 0, 64, 87
1, 1475664, Note_off_c, 0, 66, 67
1, 1475664, Note_off_c, 0, 74, 63
1, 1475669, Note_off_c, 0, 78, 65
1, 1475676, Control_c, 0, 64, 127
1, 1475679, Note_off_c, 0, 57, 66
1, 1475681, Note_off_c, 0, 62, 65
1, 1475882, Control_c, 0, 64, 110
1, 1475897, Control_c, 0, 64, 90
1, 1475912, Control_c, 0, 64, 78
1, 1475927, Control_c, 0, 64, 70
1, 1475942, Control_c, 0, 64, 62
1, 1475958, Control_c, 0, 64, 54
1, 1475972, Control_c, 0, 64, 44
1, 1475987, Control_c, 0, 64, 28
1, 1476002, Control_c, 0, 64, 0
1, 1476127, Note_on_c, 0, 45, 96
1, 1476132, Note_on_c, 0, 33, 93
1, 1476135, Note_on_c, 0, 57, 96
1, 1476158, Control_c, 0, 64, 35
1, 1476167, Note_off_c, 0, 45, 66
1, 1476168, Note_off_c, 0, 33, 63
1, 1476173, Control_c, 0, 64, 70
1, 1476179, Note_off_c, 0, 57, 68
1, 1476187, Control_c, 0, 64, 109
1, 1476202, Control_c, 0, 64, 127
1, 1476558, Control_c, 0, 64, 70
1, 1476573, Control_c, 0, 64, 0
1, 1476612, Note_on_c, 0, 57, 86
1, 1476613, Note_on_c, 0, 81, 93
1, 1476615, Note_on_c, 0, 67, 94
1, 1476617, Note_on_c, 0, 69, 86
1, 1476617, Note_on_c, 0, 79, 83
1, 1476618, Note_on_c, 0, 64, 93
1, 1476620, Note_on_c, 0, 76, 83
1, 1476641, Note_on_c, 0, 71, 63
1, 1476641, Note_off_c, 0, 71, 127
1, 1476647, Control_c, 0, 64, 55
1, 1476650, Note_off_c, 0, 69, 67
1, 1476653, Note_off_c, 0, 81, 68
1, 1476656, Note_off_c, 0, 67, 66
1, 1476661, Control_c, 0, 64, 101
1, 1476662, Note_off_c, 0, 76, 67
1, 1476662, Note_off_c, 0, 79, 65
1, 1476671, Note_off_c, 0, 64, 68
1, 1476674, Note_off_c, 0, 57, 66
1, 1476676, Control_c, 0, 64, 127
1, 1476877, Control_c, 0, 64, 109
1, 1476892, Control_c, 0, 64, 90
1, 1476907, Control_c, 0, 64, 78
1, 1476922, Control_c, 0, 64, 68
1, 1476936, Control_c, 0, 64, 59
1, 1476951, Control_c, 0, 64, 48
1, 1476966, Control_c, 0, 64, 31
1, 1476981, Control_c, 0, 64, 0
1, 1477115, Note_on_c, 0, 45, 103
1, 1477119, Note_on_c, 0, 33, 98
1, 1477120, Note_on_c, 0, 57, 101
1, 1477144, Note_off_c, 0, 33, 70
1, 1477144, Control_c, 0, 64, 44
1, 1477152, Note_off_c, 0, 45, 67
1, 1477157, Note_off_c, 0, 57, 68
1, 1477159, Control_c, 0, 64, 88
1, 1477174, Control_c, 0, 64, 127
1, 1477544, Control_c, 0, 64, 88
1, 1477560, Control_c, 0, 64, 53
1, 1477582, Control_c, 0, 64, 0
1, 1477617, Note_on_c, 0, 81, 89
1, 1477618, Note_on_c, 0, 66, 99
1, 1477618, Note_on_c, 0, 69, 95
1, 1477619, Note_on_c, 0, 57, 87
1, 1477619, Note_on_c, 0, 78, 83
1, 1477622, Note_on_c, 0, 74, 86
1, 1477625, Note_on_c, 0, 62, 87
1, 1477650, Note_off_c, 0, 81, 69
1, 1477650, Note_off_c, 0, 69, 66
1, 1477655, Note_off_c, 0, 66, 67
1, 1477656, Control_c, 0, 64, 46
1, 1477664, Note_off_c, 0, 74, 65
1, 1477668, Note_off_c, 0, 78, 63
1, 1477670, Note_off_c, 0, 57, 66
1, 1477671, Note_off_c, 0, 62, 64
1, 1477671, Control_c, 0, 64, 82
1, 1477686, Control_c, 0, 64, 127
1, 1478026, Control_c, 0, 64, 103
1, 1478041, Control_c, 0, 64, 87
1, 1478056, Control_c, 0, 64, 68
1, 1478071, Control_c, 0, 64, 37
1, 1478085, Control_c, 0, 64, 0
1, 1478127, Note_on_c, 0, 45, 93
1, 1478127, Note_on_c, 0, 57, 104
1, 1478130, Note_on_c, 0, 33, 90
1, 1478159, Control_c, 0, 64, 50
1, 1478164, Note_off_c, 0, 33, 64
1, 1478165, Note_off_c, 0, 57, 68
1, 1478168, Note_off_c, 0, 45, 66
1, 1478174, Control_c, 0, 64, 74
1, 1478189, Control_c, 0, 64, 127
1, 1478220, Poly_aftertouch_c, 0, 34, 127
1, 1478253, Poly_aftertouch_c, 0, 34, 0
1, 1478553, Control_c, 0, 64, 69
1, 1478568, Control_c, 0, 64, 0
1, 1478571, Note_on_c, 0, 73, 82
1, 1478573, Note_on_c, 0, 81, 81
1, 1478573, Note_on_c, 0, 57, 81
1, 1478575, Note_on_c, 0, 61, 87
1, 1478575, Note_on_c, 0, 64, 92
1, 1478575, Note_on_c, 0, 69, 86
1, 1478594, Note_off_c, 0, 81, 68
1, 1478597, Control_c, 0, 64, 40
1, 1478601, Note_off_c, 0, 64, 67
1, 1478603, Note_on_c, 0, 76, 22
1, 1478612, Control_c, 0, 64, 65
1, 1478616, Note_off_c, 0, 61, 66
1, 1478618, Note_off_c, 0, 73, 64
1, 1478625, Note_off_c, 0, 57, 65
1, 1478627, Control_c, 0, 64, 97
1, 1478630, Note_off_c, 0, 69, 63
1, 1478642, Control_c, 0, 64, 127
1, 1478645, Note_off_c, 0, 76, 30
1, 1478775, Control_c, 0, 64, 74
1, 1478775, Control_c, 0, 67, 33
1, 1478790, Control_c, 0, 64, 59
1, 1478790, Control_c, 0, 67, 0
1, 1478805, Control_c, 0, 64, 65
1, 1478807, Note_on_c, 0, 57, 77
1, 1478811, Note_on_c, 0, 43, 82
1, 1478811, Note_on_c, 0, 45, 76
1, 1478820, Control_c, 0, 64, 77
1, 1478831, Note_off_c, 0, 57, 66
1, 1478835, Control_c, 0, 64, 127
1, 1478840, Note_off_c, 0, 43, 65
1, 1478860, Note_off_c, 0, 45, 63
1, 1479012, Control_c, 0, 64, 102
1, 1479027, Control_c, 0, 64, 63
1, 1479038, Note_on_c, 0, 74, 63
1, 1479039, Note_on_c, 0, 81, 89
1, 1479042, Note_on_c, 0, 71, 86
1, 1479042, Control_c, 0, 64, 30
1, 1479044, Note_on_c, 0, 62, 100
1, 1479048, Note_on_c, 0, 59, 91
1, 1479049, Note_on_c, 0, 69, 94
1, 1479050, Note_on_c, 0, 57, 87
1, 1479056, Control_c, 0, 64, 46
1, 1479074, Note_off_c, 0, 74, 68
1, 1479075, Note_off_c, 0, 81, 69
1, 1479079, Control_c, 0, 64, 69
1, 1479084, Note_off_c, 0, 71, 66
1, 1479086, Note_off_c, 0, 62, 67
1, 1479094, Control_c, 0, 64, 107
1, 1479098, Note_off_c, 0, 59, 65
1, 1479099, Note_off_c, 0, 69, 66
1, 1479101, Note_off_c, 0, 57, 66
1, 1479108, Control_c, 0, 64, 127
1, 1479258, Control_c, 0, 64, 105
1, 1479273, Control_c, 0, 64, 63
1, 1479284, Note_on_c, 0, 57, 93
1, 1479287, Control_c, 0, 64, 0
1, 1479291, Note_on_c, 0, 45, 93
1, 1479302, Control_c, 0, 64, 34
1, 1479309, Note_on_c, 0, 43, 49
1, 1479309, Note_off_c, 0, 43, 127
1, 1479317, Control_c, 0, 64, 65
1, 1479324, Note_off_c, 0, 57, 67
1, 1479331, Control_c, 0, 64, 96
1, 1479344, Note_off_c, 0, 45, 67
1, 1479346, Control_c, 0, 64, 127
1, 1479351, Poly_aftertouch_c, 0, 43, 0
1, 1479554, Control_c, 0, 64, 78
1, 1479560, Poly_aftertouch_c, 0, 58, 127
1, 1479569, Control_c, 0, 64, 29
1, 1479575, Poly_aftertouch_c, 0, 58, 0
1, 1479581, Note_on_c, 0, 69, 97
1, 1479583, Note_on_c, 0, 81, 91
1, 1479584, Control_c, 0, 64, 0
1, 1479584, Note_on_c, 0, 73, 95
1, 1479585, Note_on_c, 0, 76, 68
1, 1479587, Note_on_c, 0, 57, 91
1, 1479587, Note_on_c, 0, 64, 99
1, 1479589, Note_on_c, 0, 61, 92
1, 1479607, Note_off_c, 0, 76, 71
1, 1479613, Control_c, 0, 64, 51
1, 1479619, Note_off_c, 0, 69, 66
1, 1479619, Note_off_c, 0, 81, 68
1, 1479622, Note_off_c, 0, 64, 68
1, 1479628, Control_c, 0, 64, 97
1, 1479636, Note_off_c, 0, 73, 66
1, 1479642, Control_c, 0, 64, 127
1, 1479652, Note_off_c, 0, 61, 66
1, 1479661, Note_off_c, 0, 57, 64
1, 1479946, Control_c, 0, 64, 94
1, 1479961, Control_c, 0, 64, 77
1, 1479976, Control_c, 0, 64, 66
1, 1479991, Control_c, 0, 64, 56
1, 1480006, Control_c, 0, 64, 46
1, 1480021, Control_c, 0, 64, 30
1, 1480035, Control_c, 0, 64, 0
1, 1480248, Note_on_c, 0, 57, 97
1, 1480256, Note_on_c, 0, 45, 104
1, 1480259, Note_on_c, 0, 33, 98
1, 1480332, Control_c, 0, 64, 64
1, 1480346, Control_c, 0, 64, 82
1, 1480353, Poly_aftertouch_c, 0, 41, 127
1, 1480361, Control_c, 0, 64, 127
1, 1480657, Poly_aftertouch_c, 0, 41, 0
1, 1481196, Poly_aftertouch_c, 0, 41, 127
1, 1482341, Note_off_c, 0, 33, 60
1, 1482368, Note_off_c, 0, 45, 63
1, 1482387, Poly_aftertouch_c, 0, 41, 0
1, 1482461, Note_off_c, 0, 57, 62
1, 1482473, Control_c, 0, 64, 70
1, 1482488, Control_c, 0, 64, 36
1, 1482503, Control_c, 0, 64, 0
1, 1482503, End_track
0, 0, End_of_file
