0, 0, Header, 0, 1, 384
1, 0, Start_track
1, 0, Title_t, "Funerailles--K. Krasnitsky      "
1, 0, Text_t, "2006 International Piano-e-Competition Recital Round"
1, 0, Text_t, "St. Paul, Minnesota, July 2006"
1, 0, Text_t, "http://www.piano-e-competition.com/"
1, 0, Instrument_name_t, "Yamaha Disklavier Pro Mark IV concert grand piano"
1, 0, Sequencer_specific, 39, 67, 113, 0, 1, 0, 1, 0, 70, 117, 110, 101, 114, 97, 105, 108, 108, 101, 115, 32, 32, 32, 32, 32, 75, 46, 32, 75, 114, 97, 115, 110, 105, 116, 115, 107, 121, 32, 32, 32
1, 0, Sequencer_specific, 6, 67, 113, 0, 0, 0, 69
1, 0, System_exclusive, 21, 67, 113, 126, 21, 0, 2, 2, 0, 14, 5, 1, 4, 4, 10, 12, 0, 11, 1, 5, 2, 247
1, 0, Sequencer_specific, 5, 67, 123, 12, 2, 1
1, 0, Tempo, 512820
1, 0, Time_signature, 4, 2, 24, 8
1, 0, System_exclusive, 5, 126, 127, 9, 1, 247
1, 1, System_exclusive, 8, 67, 16, 76, 0, 0, 126, 0, 247
1, 2, System_exclusive, 8, 67, 16, 76, 8, 9, 7, 1, 247
1, 3, Control_c, 0, 0, 0
1, 4, Control_c, 0, 32, 0
1, 5, Program_c, 0, 0
1, 6, Control_c, 0, 7, 100
1, 95, Control_c, 0, 64, 15
1, 95, Control_c, 0, 67, 15
1, 184, Control_c, 0, 64, 31
1, 184, Control_c, 0, 67, 31
1, 273, Control_c, 0, 64, 46
1, 273, Control_c, 0, 67, 46
1, 362, Control_c, 0, 64, 63
1, 362, Control_c, 0, 67, 63
1, 452, Control_c, 0, 64, 77
1, 452, Control_c, 0, 67, 77
1, 541, Control_c, 0, 64, 94
1, 541, Control_c, 0, 67, 94
1, 630, Control_c, 0, 64, 108
1, 630, Control_c, 0, 67, 108
1, 719, Control_c, 0, 64, 127
1, 719, Control_c, 0, 67, 127
1, 911, Note_on_c, 0, 37, 43
1, 2529, Note_on_c, 0, 24, 47
1, 3596, Note_off_c, 0, 37, 22
1, 3954, Note_on_c, 0, 37, 57
1, 4676, Note_off_c, 0, 24, 36
1, 5362, Note_on_c, 0, 24, 50
1, 6116, Note_off_c, 0, 37, 25
1, 6743, Note_on_c, 0, 37, 56
1, 7434, Note_on_c, 0, 53, 57
1, 7436, Note_on_c, 0, 46, 53
1, 7451, Note_on_c, 0, 44, 42
1, 7675, Note_off_c, 0, 24, 39
1, 8025, Note_on_c, 0, 24, 51
1, 8225, Note_off_c, 0, 53, 37
1, 8353, Note_off_c, 0, 44, 58
1, 8688, Note_on_c, 0, 52, 47
1, 8703, Note_on_c, 0, 49, 49
1, 8709, Note_on_c, 0, 43, 38
1, 8864, Note_off_c, 0, 43, 56
1, 8909, Note_off_c, 0, 46, 30
1, 8925, Note_off_c, 0, 52, 59
1, 8957, Note_off_c, 0, 49, 36
1, 9038, Note_off_c, 0, 37, 37
1, 9347, Note_on_c, 0, 37, 63
1, 9488, Control_c, 0, 67, 116
1, 9502, Control_c, 0, 67, 105
1, 9517, Control_c, 0, 67, 96
1, 9532, Control_c, 0, 67, 86
1, 9547, Control_c, 0, 67, 72
1, 9562, Control_c, 0, 67, 61
1, 9584, Control_c, 0, 67, 52
1, 9600, Control_c, 0, 67, 44
1, 9615, Control_c, 0, 67, 38
1, 9630, Control_c, 0, 67, 34
1, 9644, Control_c, 0, 67, 34
1, 9659, Control_c, 0, 67, 0
1, 9976, Note_on_c, 0, 53, 67
1, 9986, Note_on_c, 0, 46, 54
1, 10001, Note_on_c, 0, 44, 47
1, 10256, Note_off_c, 0, 24, 41
1, 10363, Control_c, 0, 67, 35
1, 10377, Control_c, 0, 67, 35
1, 10393, Control_c, 0, 67, 37
1, 10408, Control_c, 0, 67, 38
1, 10423, Control_c, 0, 67, 39
1, 10468, Control_c, 0, 67, 40
1, 10482, Control_c, 0, 67, 41
1, 10497, Control_c, 0, 67, 42
1, 10512, Control_c, 0, 67, 42
1, 10556, Control_c, 0, 67, 42
1, 10571, Control_c, 0, 67, 44
1, 10616, Note_on_c, 0, 24, 61
1, 10630, Control_c, 0, 67, 45
1, 10644, Control_c, 0, 67, 47
1, 10658, Control_c, 0, 67, 51
1, 10703, Control_c, 0, 67, 52
1, 10718, Control_c, 0, 67, 53
1, 10747, Control_c, 0, 67, 52
1, 10772, Note_off_c, 0, 53, 38
1, 10777, Control_c, 0, 67, 53
1, 10791, Control_c, 0, 67, 54
1, 10821, Control_c, 0, 67, 53
1, 10851, Control_c, 0, 67, 54
1, 10895, Control_c, 0, 67, 53
1, 10900, Note_off_c, 0, 44, 49
1, 10969, Control_c, 0, 67, 52
1, 11043, Control_c, 0, 67, 51
1, 11140, Control_c, 0, 67, 51
1, 11200, Control_c, 0, 67, 50
1, 11224, Note_on_c, 0, 52, 54
1, 11263, Note_on_c, 0, 43, 33
1, 11264, Note_on_c, 0, 49, 39
1, 11274, Control_c, 0, 67, 49
1, 11289, Control_c, 0, 67, 48
1, 11333, Control_c, 0, 67, 47
1, 11348, Control_c, 0, 67, 46
1, 11362, Control_c, 0, 67, 45
1, 11374, Note_off_c, 0, 46, 36
1, 11376, Note_off_c, 0, 43, 37
1, 11395, Note_off_c, 0, 49, 33
1, 11408, Control_c, 0, 67, 45
1, 11422, Control_c, 0, 67, 43
1, 11433, Note_off_c, 0, 52, 60
1, 11437, Control_c, 0, 67, 42
1, 11452, Control_c, 0, 67, 42
1, 11467, Control_c, 0, 67, 41
1, 11482, Control_c, 0, 67, 40
1, 11496, Control_c, 0, 67, 38
1, 11508, Note_off_c, 0, 37, 38
1, 11511, Control_c, 0, 67, 38
1, 11556, Control_c, 0, 67, 37
1, 11571, Control_c, 0, 67, 35
1, 11585, Control_c, 0, 67, 34
1, 11600, Control_c, 0, 67, 0
1, 11848, Note_on_c, 0, 37, 62
1, 12283, Note_on_c, 0, 52, 58
1, 12290, Note_on_c, 0, 43, 53
1, 12301, Note_on_c, 0, 46, 45
1, 12316, Note_off_c, 0, 43, 58
1, 12333, Note_off_c, 0, 46, 53
1, 12340, Note_off_c, 0, 52, 59
1, 12407, Note_on_c, 0, 53, 66
1, 12411, Note_on_c, 0, 49, 63
1, 12435, Note_on_c, 0, 44, 47
1, 12563, Control_c, 0, 64, 103
1, 12578, Control_c, 0, 64, 85
1, 12593, Control_c, 0, 64, 75
1, 12608, Control_c, 0, 64, 67
1, 12623, Control_c, 0, 64, 62
1, 12638, Control_c, 0, 64, 58
1, 12653, Control_c, 0, 64, 57
1, 12668, Control_c, 0, 64, 56
1, 12682, Control_c, 0, 64, 58
1, 12697, Control_c, 0, 64, 61
1, 12712, Control_c, 0, 64, 66
1, 12727, Control_c, 0, 64, 76
1, 12742, Control_c, 0, 64, 92
1, 12757, Control_c, 0, 64, 127
1, 12843, Note_off_c, 0, 24, 61
1, 12888, Note_off_c, 0, 53, 62
1, 12921, Note_off_c, 0, 44, 46
1, 12927, Note_off_c, 0, 49, 61
1, 13000, Note_on_c, 0, 24, 61
1, 13453, Note_on_c, 0, 55, 63
1, 13463, Note_on_c, 0, 46, 55
1, 13467, Note_on_c, 0, 49, 53
1, 13499, Note_off_c, 0, 46, 63
1, 13501, Note_off_c, 0, 49, 64
1, 13511, Note_off_c, 0, 55, 60
1, 13592, Note_on_c, 0, 49, 62
1, 13595, Note_on_c, 0, 56, 78
1, 13607, Note_on_c, 0, 48, 72
1, 13743, Control_c, 0, 64, 111
1, 13758, Control_c, 0, 64, 92
1, 13772, Control_c, 0, 64, 81
1, 13787, Control_c, 0, 64, 73
1, 13802, Control_c, 0, 64, 66
1, 13816, Control_c, 0, 64, 62
1, 13831, Control_c, 0, 64, 61
1, 13846, Control_c, 0, 64, 60
1, 13861, Control_c, 0, 64, 61
1, 13876, Control_c, 0, 64, 63
1, 13890, Control_c, 0, 64, 67
1, 13905, Control_c, 0, 64, 77
1, 13920, Control_c, 0, 64, 88
1, 13935, Control_c, 0, 64, 97
1, 13950, Control_c, 0, 64, 108
1, 13964, Control_c, 0, 64, 127
1, 14069, Note_off_c, 0, 37, 37
1, 14164, Control_c, 0, 67, 35
1, 14179, Control_c, 0, 67, 43
1, 14194, Control_c, 0, 67, 46
1, 14209, Control_c, 0, 67, 47
1, 14224, Control_c, 0, 67, 50
1, 14238, Control_c, 0, 67, 60
1, 14253, Control_c, 0, 67, 76
1, 14268, Control_c, 0, 67, 82
1, 14274, Note_on_c, 0, 37, 61
1, 14298, Control_c, 0, 67, 84
1, 14313, Control_c, 0, 67, 89
1, 14328, Control_c, 0, 67, 117
1, 14342, Control_c, 0, 67, 127
1, 14344, Note_off_c, 0, 56, 63
1, 14369, Note_off_c, 0, 48, 58
1, 14728, Note_on_c, 0, 55, 66
1, 14751, Note_on_c, 0, 46, 49
1, 14838, Note_off_c, 0, 46, 61
1, 14896, Note_on_c, 0, 54, 71
1, 14901, Note_on_c, 0, 45, 62
1, 14921, Note_off_c, 0, 55, 61
1, 14941, Note_off_c, 0, 45, 63
1, 14968, Note_off_c, 0, 49, 63
1, 14977, Note_off_c, 0, 54, 62
1, 15115, Note_off_c, 0, 24, 36
1, 15419, Note_on_c, 0, 53, 59
1, 15451, Note_on_c, 0, 49, 43
1, 15455, Note_on_c, 0, 44, 38
1, 15522, Note_off_c, 0, 44, 0
1, 15522, Note_on_c, 0, 44, 14
1, 15594, Note_on_c, 0, 24, 63
1, 15663, Control_c, 0, 64, 98
1, 15678, Control_c, 0, 64, 84
1, 15693, Control_c, 0, 64, 72
1, 15708, Control_c, 0, 64, 63
1, 15720, Note_off_c, 0, 49, 36
1, 15723, Control_c, 0, 64, 59
1, 15737, Control_c, 0, 64, 58
1, 15767, Control_c, 0, 64, 58
1, 15782, Control_c, 0, 64, 61
1, 15796, Control_c, 0, 64, 64
1, 15811, Control_c, 0, 64, 70
1, 15826, Control_c, 0, 64, 79
1, 15841, Control_c, 0, 64, 92
1, 15856, Control_c, 0, 64, 98
1, 15870, Control_c, 0, 64, 104
1, 15885, Control_c, 0, 64, 113
1, 15900, Control_c, 0, 64, 127
1, 15947, Note_off_c, 0, 44, 41
1, 16308, Note_on_c, 0, 52, 54
1, 16329, Note_on_c, 0, 46, 41
1, 16338, Note_on_c, 0, 43, 36
1, 16368, Note_off_c, 0, 53, 36
1, 16411, Note_off_c, 0, 43, 49
1, 16472, Note_off_c, 0, 37, 37
1, 16488, Note_off_c, 0, 46, 57
1, 16580, Note_off_c, 0, 52, 61
1, 16619, Control_c, 0, 67, 124
1, 16634, Control_c, 0, 67, 116
1, 16649, Control_c, 0, 67, 113
1, 16679, Control_c, 0, 67, 109
1, 16693, Control_c, 0, 67, 104
1, 16708, Control_c, 0, 67, 101
1, 16723, Control_c, 0, 67, 99
1, 16752, Control_c, 0, 67, 96
1, 16783, Control_c, 0, 67, 96
1, 16798, Control_c, 0, 67, 95
1, 16813, Control_c, 0, 67, 95
1, 16828, Control_c, 0, 67, 94
1, 16872, Control_c, 0, 67, 92
1, 16887, Control_c, 0, 67, 89
1, 16902, Control_c, 0, 67, 65
1, 16916, Control_c, 0, 67, 0
1, 16978, Note_on_c, 0, 39, 76
1, 17673, Note_on_c, 0, 55, 67
1, 17696, Note_on_c, 0, 48, 52
1, 17698, Note_on_c, 0, 46, 43
1, 17738, Control_c, 0, 64, 112
1, 17753, Control_c, 0, 64, 91
1, 17768, Control_c, 0, 64, 79
1, 17783, Control_c, 0, 64, 69
1, 17798, Control_c, 0, 64, 65
1, 17820, Control_c, 0, 64, 64
1, 17835, Control_c, 0, 64, 64
1, 17864, Control_c, 0, 64, 65
1, 17879, Control_c, 0, 64, 67
1, 17894, Control_c, 0, 64, 73
1, 17909, Control_c, 0, 64, 78
1, 17924, Control_c, 0, 64, 81
1, 17938, Control_c, 0, 64, 83
1, 17953, Control_c, 0, 64, 89
1, 17968, Control_c, 0, 64, 97
1, 17983, Control_c, 0, 64, 113
1, 17997, Control_c, 0, 64, 127
1, 18006, Note_off_c, 0, 24, 56
1, 18355, Note_on_c, 0, 24, 55
1, 18468, Note_off_c, 0, 55, 52
1, 18569, Note_off_c, 0, 46, 59
1, 18981, Note_on_c, 0, 54, 54
1, 19007, Note_on_c, 0, 45, 46
1, 19009, Note_on_c, 0, 51, 47
1, 19095, Note_off_c, 0, 45, 51
1, 19120, Note_off_c, 0, 48, 34
1, 19190, Note_off_c, 0, 54, 53
1, 19206, Note_off_c, 0, 39, 36
1, 19255, Note_off_c, 0, 51, 59
1, 19641, Note_on_c, 0, 39, 65
1, 20318, Note_on_c, 0, 55, 73
1, 20332, Note_on_c, 0, 46, 50
1, 20336, Note_on_c, 0, 48, 60
1, 20378, Control_c, 0, 64, 117
1, 20393, Control_c, 0, 64, 94
1, 20408, Control_c, 0, 64, 80
1, 20423, Control_c, 0, 64, 69
1, 20438, Control_c, 0, 64, 61
1, 20452, Control_c, 0, 64, 57
1, 20467, Control_c, 0, 64, 55
1, 20482, Control_c, 0, 64, 55
1, 20497, Control_c, 0, 64, 56
1, 20512, Control_c, 0, 64, 59
1, 20526, Control_c, 0, 64, 64
1, 20541, Control_c, 0, 64, 72
1, 20556, Control_c, 0, 64, 80
1, 20571, Control_c, 0, 64, 84
1, 20585, Control_c, 0, 64, 86
1, 20600, Control_c, 0, 64, 90
1, 20615, Control_c, 0, 64, 98
1, 20630, Control_c, 0, 64, 111
1, 20645, Control_c, 0, 64, 127
1, 20698, Note_off_c, 0, 24, 41
1, 20951, Note_on_c, 0, 24, 55
1, 21183, Note_off_c, 0, 55, 51
1, 21342, Note_off_c, 0, 46, 44
1, 21586, Note_on_c, 0, 54, 53
1, 21613, Note_on_c, 0, 45, 42
1, 21618, Note_on_c, 0, 51, 51
1, 21692, Note_off_c, 0, 45, 48
1, 21774, Note_off_c, 0, 48, 32
1, 21807, Note_off_c, 0, 54, 59
1, 21843, Note_off_c, 0, 51, 60
1, 21867, Note_off_c, 0, 39, 37
1, 22232, Note_on_c, 0, 39, 67
1, 22437, Poly_aftertouch_c, 0, 31, 127
1, 22473, Poly_aftertouch_c, 0, 32, 127
1, 22694, Note_on_c, 0, 54, 61
1, 22702, Note_on_c, 0, 45, 54
1, 22719, Note_on_c, 0, 48, 41
1, 22730, Note_off_c, 0, 45, 54
1, 22746, Note_off_c, 0, 54, 60
1, 22755, Note_off_c, 0, 48, 54
1, 22810, Note_on_c, 0, 55, 69
1, 22823, Note_on_c, 0, 51, 66
1, 22828, Note_on_c, 0, 46, 57
1, 22891, Control_c, 0, 64, 99
1, 22906, Control_c, 0, 64, 81
1, 22921, Control_c, 0, 64, 69
1, 22936, Control_c, 0, 64, 62
1, 22951, Control_c, 0, 64, 59
1, 22980, Control_c, 0, 64, 59
1, 22995, Control_c, 0, 64, 62
1, 23010, Control_c, 0, 64, 67
1, 23025, Control_c, 0, 64, 78
1, 23040, Control_c, 0, 64, 92
1, 23062, Control_c, 0, 64, 105
1, 23077, Control_c, 0, 64, 120
1, 23092, Control_c, 0, 64, 127
1, 23207, Note_off_c, 0, 24, 37
1, 23366, Note_off_c, 0, 55, 59
1, 23372, Note_off_c, 0, 46, 60
1, 23384, Note_on_c, 0, 24, 69
1, 23387, Note_off_c, 0, 51, 61
1, 23698, Poly_aftertouch_c, 0, 31, 0
1, 23735, Poly_aftertouch_c, 0, 31, 127
1, 23804, Note_on_c, 0, 57, 68
1, 23816, Note_on_c, 0, 48, 64
1, 23820, Note_on_c, 0, 51, 59
1, 23849, Note_off_c, 0, 48, 64
1, 23857, Note_off_c, 0, 51, 60
1, 23861, Note_off_c, 0, 57, 63
1, 23944, Note_on_c, 0, 58, 80
1, 23951, Note_on_c, 0, 51, 63
1, 23972, Note_on_c, 0, 50, 60
1, 24064, Control_c, 0, 64, 103
1, 24078, Control_c, 0, 64, 83
1, 24093, Control_c, 0, 64, 69
1, 24108, Control_c, 0, 64, 59
1, 24121, Control_c, 0, 64, 56
1, 24136, Control_c, 0, 64, 56
1, 24150, Control_c, 0, 64, 58
1, 24165, Control_c, 0, 64, 63
1, 24180, Control_c, 0, 64, 70
1, 24195, Control_c, 0, 64, 81
1, 24210, Control_c, 0, 64, 95
1, 24225, Control_c, 0, 64, 105
1, 24239, Control_c, 0, 64, 127
1, 24364, Note_off_c, 0, 39, 50
1, 24635, Note_on_c, 0, 39, 72
1, 24766, Note_off_c, 0, 50, 49
1, 24802, Note_off_c, 0, 58, 36
1, 25083, Note_on_c, 0, 57, 68
1, 25098, Note_on_c, 0, 48, 64
1, 25104, Poly_aftertouch_c, 0, 31, 0
1, 25141, Poly_aftertouch_c, 0, 31, 127
1, 25158, Note_off_c, 0, 48, 61
1, 25246, Note_on_c, 0, 56, 67
1, 25253, Note_on_c, 0, 47, 64
1, 25274, Note_off_c, 0, 57, 63
1, 25295, Note_off_c, 0, 47, 63
1, 25316, Note_off_c, 0, 51, 59
1, 25347, Note_off_c, 0, 56, 62
1, 25675, Note_off_c, 0, 24, 38
1, 25763, Note_on_c, 0, 55, 65
1, 25781, Note_on_c, 0, 46, 40
1, 25782, Note_on_c, 0, 51, 50
1, 25942, Note_on_c, 0, 24, 60
1, 25960, Control_c, 0, 64, 111
1, 25975, Control_c, 0, 64, 91
1, 25989, Control_c, 0, 64, 78
1, 26004, Control_c, 0, 64, 68
1, 26019, Control_c, 0, 64, 63
1, 26034, Control_c, 0, 64, 61
1, 26057, Control_c, 0, 64, 61
1, 26064, Note_off_c, 0, 51, 37
1, 26071, Control_c, 0, 64, 63
1, 26081, Poly_aftertouch_c, 0, 31, 0
1, 26086, Control_c, 0, 64, 68
1, 26101, Control_c, 0, 64, 79
1, 26116, Control_c, 0, 64, 94
1, 26130, Control_c, 0, 64, 110
1, 26145, Control_c, 0, 64, 127
1, 26178, Note_off_c, 0, 46, 54
1, 26238, Note_off_c, 0, 39, 57
1, 26332, Poly_aftertouch_c, 0, 32, 0
1, 26618, Note_on_c, 0, 54, 54
1, 26637, Note_on_c, 0, 45, 37
1, 26637, Note_on_c, 0, 48, 52
1, 26664, Note_off_c, 0, 55, 57
1, 26720, Note_off_c, 0, 45, 58
1, 26791, Note_off_c, 0, 48, 51
1, 26839, Note_off_c, 0, 54, 62
1, 27223, Note_on_c, 0, 41, 71
1, 27927, Note_on_c, 0, 57, 76
1, 27947, Note_on_c, 0, 48, 63
1, 27947, Note_on_c, 0, 50, 59
1, 27970, Control_c, 0, 64, 106
1, 27985, Control_c, 0, 64, 84
1, 27999, Control_c, 0, 64, 70
1, 28014, Control_c, 0, 64, 61
1, 28029, Control_c, 0, 64, 56
1, 28044, Control_c, 0, 64, 55
1, 28088, Control_c, 0, 64, 56
1, 28103, Control_c, 0, 64, 60
1, 28118, Control_c, 0, 64, 66
1, 28132, Control_c, 0, 64, 76
1, 28147, Control_c, 0, 64, 95
1, 28162, Control_c, 0, 64, 127
1, 28325, Note_off_c, 0, 24, 37
1, 28606, Note_on_c, 0, 24, 51
1, 28820, Note_off_c, 0, 57, 59
1, 28952, Note_off_c, 0, 48, 38
1, 29224, Note_on_c, 0, 56, 64
1, 29244, Note_on_c, 0, 47, 45
1, 29246, Note_on_c, 0, 53, 48
1, 29395, Note_off_c, 0, 47, 36
1, 29417, Note_off_c, 0, 56, 58
1, 29432, Note_off_c, 0, 50, 59
1, 29470, Note_off_c, 0, 53, 37
1, 29520, Note_off_c, 0, 41, 43
1, 29824, Note_on_c, 0, 41, 74
1, 30464, Note_on_c, 0, 57, 76
1, 30477, Note_on_c, 0, 50, 61
1, 30483, Note_on_c, 0, 48, 65
1, 30848, Note_off_c, 0, 24, 41
1, 31086, Note_on_c, 0, 24, 64
1, 31161, Note_off_c, 0, 57, 58
1, 31329, Note_off_c, 0, 48, 60
1, 31707, Note_on_c, 0, 56, 62
1, 31722, Note_on_c, 0, 47, 53
1, 31730, Note_on_c, 0, 53, 52
1, 31744, Note_off_c, 0, 41, 39
1, 31847, Note_off_c, 0, 47, 51
1, 31852, Note_off_c, 0, 24, 61
1, 31900, Note_off_c, 0, 56, 57
1, 31911, Note_off_c, 0, 50, 34
1, 31938, Poly_aftertouch_c, 0, 31, 127
1, 31966, Note_off_c, 0, 53, 57
1, 32314, Note_on_c, 0, 42, 78
1, 32761, Note_on_c, 0, 56, 65
1, 32765, Note_on_c, 0, 47, 60
1, 32771, Note_on_c, 0, 50, 52
1, 32806, Note_off_c, 0, 50, 60
1, 32808, Note_off_c, 0, 47, 63
1, 32838, Note_off_c, 0, 56, 61
1, 32890, Note_on_c, 0, 57, 75
1, 32897, Note_on_c, 0, 51, 69
1, 32905, Note_on_c, 0, 48, 69
1, 32959, Control_c, 0, 64, 91
1, 32974, Control_c, 0, 64, 71
1, 32988, Control_c, 0, 64, 56
1, 33003, Control_c, 0, 64, 51
1, 33018, Control_c, 0, 64, 53
1, 33033, Control_c, 0, 64, 56
1, 33048, Control_c, 0, 64, 63
1, 33063, Control_c, 0, 64, 74
1, 33078, Control_c, 0, 64, 96
1, 33093, Control_c, 0, 64, 127
1, 33124, Note_off_c, 0, 42, 62
1, 33143, Poly_aftertouch_c, 0, 31, 0
1, 33356, Note_off_c, 0, 48, 55
1, 33378, Note_off_c, 0, 51, 61
1, 33383, Note_off_c, 0, 57, 62
1, 33473, Note_on_c, 0, 24, 73
1, 33837, Poly_aftertouch_c, 0, 32, 127
1, 33909, Note_on_c, 0, 50, 67
1, 33911, Note_on_c, 0, 59, 70
1, 33927, Note_on_c, 0, 53, 54
1, 33939, Poly_aftertouch_c, 0, 32, 0
1, 33954, Note_off_c, 0, 50, 60
1, 33957, Note_off_c, 0, 53, 61
1, 33984, Note_off_c, 0, 59, 64
1, 34038, Note_on_c, 0, 60, 78
1, 34041, Note_on_c, 0, 57, 74
1, 34049, Note_on_c, 0, 51, 70
1, 34108, Control_c, 0, 64, 106
1, 34122, Control_c, 0, 64, 86
1, 34137, Control_c, 0, 64, 75
1, 34152, Control_c, 0, 64, 68
1, 34167, Control_c, 0, 64, 64
1, 34182, Control_c, 0, 64, 63
1, 34197, Control_c, 0, 64, 65
1, 34211, Control_c, 0, 64, 72
1, 34226, Control_c, 0, 64, 88
1, 34241, Control_c, 0, 64, 127
1, 34297, Note_off_c, 0, 24, 38
1, 34566, Note_off_c, 0, 60, 56
1, 34655, Note_on_c, 0, 42, 72
1, 34695, Note_off_c, 0, 57, 63
1, 34733, Note_off_c, 0, 51, 54
1, 35058, Note_on_c, 0, 59, 71
1, 35066, Note_on_c, 0, 50, 59
1, 35069, Note_on_c, 0, 53, 57
1, 35102, Note_off_c, 0, 50, 61
1, 35114, Note_off_c, 0, 53, 57
1, 35209, Note_on_c, 0, 58, 78
1, 35226, Note_on_c, 0, 52, 64
1, 35229, Note_on_c, 0, 49, 70
1, 35252, Note_off_c, 0, 59, 43
1, 35257, Note_off_c, 0, 49, 65
1, 35287, Note_off_c, 0, 52, 58
1, 35313, Note_off_c, 0, 58, 63
1, 35330, Poly_aftertouch_c, 0, 34, 127
1, 35351, Note_off_c, 0, 42, 62
1, 35383, Poly_aftertouch_c, 0, 34, 0
1, 35651, Note_on_c, 0, 57, 60
1, 35656, Note_on_c, 0, 51, 57
1, 35665, Note_on_c, 0, 48, 55
1, 35709, Note_off_c, 0, 48, 60
1, 35723, Note_off_c, 0, 51, 58
1, 35737, Note_off_c, 0, 57, 63
1, 35820, Note_on_c, 0, 24, 78
1, 36211, Note_on_c, 0, 59, 76
1, 36216, Note_on_c, 0, 50, 66
1, 36240, Note_on_c, 0, 53, 33
1, 36261, Note_off_c, 0, 50, 61
1, 36273, Note_off_c, 0, 53, 55
1, 36292, Note_off_c, 0, 59, 64
1, 36336, Note_on_c, 0, 60, 88
1, 36344, Note_on_c, 0, 56, 83
1, 36351, Note_on_c, 0, 51, 78
1, 36399, Control_c, 0, 64, 107
1, 36413, Control_c, 0, 64, 80
1, 36428, Control_c, 0, 64, 66
1, 36443, Control_c, 0, 64, 60
1, 36458, Control_c, 0, 64, 61
1, 36473, Control_c, 0, 64, 64
1, 36488, Control_c, 0, 64, 72
1, 36503, Control_c, 0, 64, 90
1, 36518, Control_c, 0, 64, 127
1, 36564, Note_off_c, 0, 24, 61
1, 36974, Note_on_c, 0, 44, 85
1, 37093, Note_off_c, 0, 56, 61
1, 37097, Note_off_c, 0, 51, 60
1, 37114, Note_off_c, 0, 60, 61
1, 37453, Note_on_c, 0, 61, 70
1, 37461, Note_on_c, 0, 52, 64
1, 37466, Note_on_c, 0, 57, 59
1, 37501, Note_off_c, 0, 52, 60
1, 37519, Note_off_c, 0, 57, 60
1, 37549, Note_off_c, 0, 61, 58
1, 37589, Note_on_c, 0, 62, 78
1, 37593, Note_on_c, 0, 53, 66
1, 37595, Note_on_c, 0, 59, 73
1, 37753, Note_off_c, 0, 44, 62
1, 37755, Note_off_c, 0, 59, 63
1, 37915, Note_off_c, 0, 53, 38
1, 38170, Note_on_c, 0, 24, 68
1, 38542, Note_on_c, 0, 61, 67
1, 38547, Note_on_c, 0, 52, 57
1, 38557, Note_on_c, 0, 57, 53
1, 38572, Note_off_c, 0, 62, 61
1, 38599, Note_off_c, 0, 57, 61
1, 38601, Note_off_c, 0, 52, 62
1, 38625, Note_off_c, 0, 61, 62
1, 38692, Note_on_c, 0, 60, 75
1, 38700, Note_on_c, 0, 56, 75
1, 38709, Note_on_c, 0, 51, 69
1, 38737, Note_off_c, 0, 56, 63
1, 38738, Note_off_c, 0, 51, 63
1, 38784, Note_off_c, 0, 60, 62
1, 38856, Note_off_c, 0, 24, 63
1, 39084, Note_on_c, 0, 59, 70
1, 39102, Note_on_c, 0, 53, 51
1, 39112, Note_on_c, 0, 50, 35
1, 39130, Note_off_c, 0, 53, 56
1, 39146, Note_off_c, 0, 59, 65
1, 39150, Note_off_c, 0, 50, 55
1, 39288, Note_on_c, 0, 47, 66
1, 39290, Note_on_c, 0, 44, 62
1, 39701, Note_on_c, 0, 62, 76
1, 39707, Note_on_c, 0, 56, 72
1, 39710, Note_on_c, 0, 53, 65
1, 39737, Note_off_c, 0, 56, 66
1, 39740, Note_off_c, 0, 53, 63
1, 39750, Note_off_c, 0, 62, 62
1, 39830, Note_on_c, 0, 63, 83
1, 39841, Note_on_c, 0, 57, 65
1, 39847, Note_on_c, 0, 54, 63
1, 39874, Control_c, 0, 64, 96
1, 39889, Control_c, 0, 64, 89
1, 39904, Control_c, 0, 64, 89
1, 39919, Control_c, 0, 64, 91
1, 39934, Control_c, 0, 64, 117
1, 39950, Control_c, 0, 64, 127
1, 40002, Note_off_c, 0, 47, 63
1, 40027, Note_off_c, 0, 44, 62
1, 40400, Note_on_c, 0, 24, 77
1, 40455, Note_off_c, 0, 57, 62
1, 40461, Note_off_c, 0, 54, 59
1, 40494, Note_off_c, 0, 63, 51
1, 40799, Note_on_c, 0, 64, 73
1, 40801, Note_on_c, 0, 58, 70
1, 40805, Note_on_c, 0, 55, 63
1, 40837, Note_off_c, 0, 55, 64
1, 40840, Note_off_c, 0, 58, 64
1, 40850, Note_off_c, 0, 64, 65
1, 40915, Note_on_c, 0, 65, 87
1, 40927, Note_on_c, 0, 56, 77
1, 40929, Note_on_c, 0, 59, 76
1, 41022, Note_off_c, 0, 24, 62
1, 41542, Note_on_c, 0, 53, 90
1, 41547, Note_on_c, 0, 50, 84
1, 41551, Note_on_c, 0, 44, 75
1, 41558, Note_on_c, 0, 47, 74
1, 41591, Note_off_c, 0, 59, 64
1, 41600, Note_off_c, 0, 56, 57
1, 41604, Note_off_c, 0, 65, 63
1, 42023, Note_on_c, 0, 66, 78
1, 42026, Note_on_c, 0, 57, 70
1, 42032, Note_on_c, 0, 60, 67
1, 42059, Note_off_c, 0, 57, 65
1, 42062, Note_off_c, 0, 60, 65
1, 42094, Note_off_c, 0, 66, 62
1, 42140, Note_on_c, 0, 67, 85
1, 42143, Note_on_c, 0, 61, 78
1, 42149, Note_on_c, 0, 58, 84
1, 42267, Note_off_c, 0, 53, 59
1, 42290, Note_off_c, 0, 50, 60
1, 42307, Note_off_c, 0, 47, 60
1, 42310, Note_off_c, 0, 67, 62
1, 42311, Note_off_c, 0, 58, 59
1, 42316, Note_off_c, 0, 61, 59
1, 42340, Note_off_c, 0, 44, 62
1, 42636, Note_on_c, 0, 68, 79
1, 42647, Note_on_c, 0, 59, 63
1, 42647, Note_on_c, 0, 62, 66
1, 42780, Note_on_c, 0, 24, 71
1, 42810, Note_off_c, 0, 59, 59
1, 42835, Note_off_c, 0, 62, 62
1, 42864, Note_off_c, 0, 68, 58
1, 42919, Note_on_c, 0, 36, 68
1, 42967, Note_off_c, 0, 24, 61
1, 42993, Note_off_c, 0, 36, 59
1, 43051, Note_on_c, 0, 24, 75
1, 43173, Note_on_c, 0, 63, 73
1, 43175, Note_on_c, 0, 69, 75
1, 43180, Note_on_c, 0, 60, 65
1, 43182, Note_on_c, 0, 36, 68
1, 43208, Note_off_c, 0, 60, 67
1, 43223, Note_off_c, 0, 63, 58
1, 43225, Note_off_c, 0, 69, 60
1, 43232, Note_off_c, 0, 24, 59
1, 43263, Note_off_c, 0, 36, 52
1, 43309, Note_on_c, 0, 70, 86
1, 43314, Note_on_c, 0, 24, 84
1, 43318, Note_on_c, 0, 64, 79
1, 43320, Note_on_c, 0, 61, 78
1, 43360, Note_off_c, 0, 61, 51
1, 43398, Note_off_c, 0, 64, 62
1, 43411, Note_off_c, 0, 70, 60
1, 43440, Note_on_c, 0, 36, 72
1, 43457, Note_off_c, 0, 24, 60
1, 43492, Note_off_c, 0, 36, 60
1, 43547, Note_on_c, 0, 24, 76
1, 43580, Note_on_c, 0, 36, 62
1, 43581, Note_off_c, 0, 24, 64
1, 43603, Note_off_c, 0, 36, 59
1, 43715, Note_on_c, 0, 62, 71
1, 43719, Note_on_c, 0, 65, 65
1, 43722, Note_on_c, 0, 71, 69
1, 43739, Note_on_c, 0, 72, 52
1, 43767, Note_off_c, 0, 72, 35
1, 43805, Note_off_c, 0, 62, 63
1, 43812, Note_off_c, 0, 65, 61
1, 43836, Note_off_c, 0, 71, 62
1, 43867, Note_on_c, 0, 56, 98
1, 43869, Note_on_c, 0, 53, 82
1, 43878, Note_on_c, 0, 50, 76
1, 43879, Note_on_c, 0, 47, 83
1, 44293, Poly_aftertouch_c, 0, 63, 0
1, 44360, Note_on_c, 0, 72, 83
1, 44365, Note_on_c, 0, 66, 77
1, 44369, Note_on_c, 0, 63, 88
1, 44414, Note_off_c, 0, 72, 64
1, 44421, Note_off_c, 0, 63, 62
1, 44427, Note_off_c, 0, 66, 63
1, 44478, Note_on_c, 0, 73, 92
1, 44479, Note_on_c, 0, 64, 86
1, 44483, Note_on_c, 0, 67, 81
1, 44504, Note_on_c, 0, 68, 37
1, 44528, Note_off_c, 0, 68, 35
1, 44553, Note_off_c, 0, 64, 54
1, 44566, Note_off_c, 0, 67, 59
1, 44614, Note_off_c, 0, 73, 59
1, 44627, Note_off_c, 0, 56, 59
1, 44756, Note_off_c, 0, 53, 56
1, 44794, Note_off_c, 0, 47, 59
1, 44797, Note_off_c, 0, 50, 61
1, 44915, Note_on_c, 0, 74, 81
1, 44920, Note_on_c, 0, 65, 75
1, 44926, Note_on_c, 0, 68, 68
1, 44944, Note_off_c, 0, 65, 70
1, 44954, Note_off_c, 0, 68, 67
1, 44964, Note_off_c, 0, 74, 63
1, 45070, Note_on_c, 0, 75, 79
1, 45075, Note_on_c, 0, 66, 78
1, 45075, Note_on_c, 0, 69, 76
1, 45086, Note_on_c, 0, 24, 85
1, 45128, Note_off_c, 0, 66, 59
1, 45145, Poly_aftertouch_c, 0, 73, 127
1, 45153, Note_off_c, 0, 69, 57
1, 45187, Poly_aftertouch_c, 0, 73, 0
1, 45193, Note_off_c, 0, 75, 50
1, 45218, Note_on_c, 0, 36, 80
1, 45283, Note_off_c, 0, 24, 60
1, 45345, Note_on_c, 0, 70, 86
1, 45350, Note_on_c, 0, 76, 90
1, 45352, Note_on_c, 0, 67, 89
1, 45356, Note_on_c, 0, 24, 89
1, 45383, Note_off_c, 0, 36, 63
1, 45389, Note_off_c, 0, 67, 65
1, 45397, Note_off_c, 0, 70, 64
1, 45429, Note_off_c, 0, 76, 60
1, 45477, Note_on_c, 0, 36, 88
1, 45558, Note_off_c, 0, 24, 41
1, 45631, Note_on_c, 0, 24, 101
1, 45633, Note_on_c, 0, 68, 96
1, 45633, Note_on_c, 0, 77, 90
1, 45636, Note_on_c, 0, 71, 89
1, 45646, Note_off_c, 0, 36, 59
1, 45668, Note_off_c, 0, 68, 64
1, 45678, Note_off_c, 0, 71, 63
1, 45751, Note_off_c, 0, 77, 61
1, 45754, Note_on_c, 0, 36, 83
1, 45791, Poly_aftertouch_c, 0, 32, 127
1, 45804, Note_off_c, 0, 24, 61
1, 45858, Note_off_c, 0, 36, 61
1, 45903, Note_on_c, 0, 78, 88
1, 45905, Note_on_c, 0, 24, 79
1, 45910, Note_on_c, 0, 68, 96
1, 45910, Note_on_c, 0, 71, 87
1, 45928, Note_on_c, 0, 36, 81
1, 45932, Poly_aftertouch_c, 0, 32, 0
1, 45934, Note_off_c, 0, 24, 68
1, 45940, Note_on_c, 0, 70, 39
1, 45940, Note_off_c, 0, 70, 127
1, 45956, Note_off_c, 0, 36, 62
1, 45967, Note_on_c, 0, 77, 54
1, 45970, Note_off_c, 0, 68, 57
1, 45989, Note_off_c, 0, 78, 58
1, 46006, Note_off_c, 0, 77, 58
1, 46062, Note_off_c, 0, 71, 0
1, 46118, Poly_aftertouch_c, 0, 71, 0
1, 46139, Poly_aftertouch_c, 0, 77, 127
1, 46213, Note_on_c, 0, 58, 77
1, 46218, Note_on_c, 0, 61, 96
1, 46228, Note_on_c, 0, 49, 84
1, 46268, Poly_aftertouch_c, 0, 77, 0
1, 46364, Control_c, 0, 64, 107
1, 46379, Control_c, 0, 64, 76
1, 46393, Control_c, 0, 64, 59
1, 46408, Control_c, 0, 64, 47
1, 46423, Control_c, 0, 64, 41
1, 46438, Control_c, 0, 64, 39
1, 46453, Control_c, 0, 64, 37
1, 46467, Control_c, 0, 64, 34
1, 46482, Control_c, 0, 64, 32
1, 46497, Control_c, 0, 64, 0
1, 46852, Control_c, 0, 64, 30
1, 46866, Control_c, 0, 64, 0
1, 46896, Control_c, 0, 64, 35
1, 46900, Note_on_c, 0, 68, 89
1, 46900, Note_on_c, 0, 77, 90
1, 46901, Note_on_c, 0, 65, 93
1, 46911, Control_c, 0, 64, 52
1, 46926, Control_c, 0, 64, 68
1, 46940, Control_c, 0, 64, 86
1, 46955, Control_c, 0, 64, 127
1, 46979, Note_off_c, 0, 61, 60
1, 47027, Note_off_c, 0, 58, 62
1, 47085, Note_off_c, 0, 49, 61
1, 47410, Note_off_c, 0, 77, 47
1, 47413, Note_off_c, 0, 65, 49
1, 47461, Note_on_c, 0, 24, 53
1, 47525, Note_off_c, 0, 68, 64
1, 47621, Note_on_c, 0, 36, 46
1, 47637, Note_off_c, 0, 24, 39
1, 47682, Note_off_c, 0, 36, 51
1, 47749, Note_on_c, 0, 24, 57
1, 47869, Note_on_c, 0, 36, 53
1, 47927, Note_off_c, 0, 24, 35
1, 47965, Note_off_c, 0, 36, 53
1, 48018, Note_on_c, 0, 24, 74
1, 48018, Note_on_c, 0, 64, 74
1, 48023, Note_on_c, 0, 52, 77
1, 48024, Note_on_c, 0, 55, 73
1, 48045, Note_off_c, 0, 52, 65
1, 48050, Note_off_c, 0, 55, 66
1, 48062, Note_off_c, 0, 64, 63
1, 48137, Note_on_c, 0, 36, 67
1, 48147, Note_off_c, 0, 24, 56
1, 48209, Note_off_c, 0, 36, 60
1, 48284, Note_on_c, 0, 24, 64
1, 48326, Note_off_c, 0, 24, 64
1, 48344, Note_on_c, 0, 36, 54
1, 48378, Note_off_c, 0, 36, 57
1, 48602, Note_on_c, 0, 58, 79
1, 48605, Note_on_c, 0, 61, 92
1, 48620, Note_on_c, 0, 49, 81
1, 49204, Note_on_c, 0, 65, 87
1, 49204, Note_on_c, 0, 68, 87
1, 49204, Note_on_c, 0, 77, 92
1, 49232, Control_c, 0, 64, 87
1, 49247, Control_c, 0, 64, 66
1, 49269, Control_c, 0, 64, 50
1, 49284, Control_c, 0, 64, 43
1, 49299, Control_c, 0, 64, 45
1, 49314, Control_c, 0, 64, 51
1, 49329, Control_c, 0, 64, 65
1, 49343, Control_c, 0, 64, 81
1, 49344, Note_off_c, 0, 61, 61
1, 49358, Control_c, 0, 64, 127
1, 49409, Note_off_c, 0, 58, 62
1, 49455, Note_off_c, 0, 49, 64
1, 49774, Note_off_c, 0, 65, 47
1, 49786, Note_off_c, 0, 77, 47
1, 49790, Note_on_c, 0, 24, 57
1, 49890, Note_off_c, 0, 68, 63
1, 49950, Note_on_c, 0, 36, 50
1, 49956, Note_off_c, 0, 24, 60
1, 50015, Note_off_c, 0, 36, 55
1, 50087, Note_on_c, 0, 24, 63
1, 50213, Note_on_c, 0, 36, 55
1, 50234, Note_off_c, 0, 24, 56
1, 50288, Note_off_c, 0, 36, 52
1, 50338, Note_on_c, 0, 64, 77
1, 50346, Note_on_c, 0, 55, 68
1, 50348, Note_on_c, 0, 52, 64
1, 50349, Note_on_c, 0, 24, 76
1, 50371, Note_off_c, 0, 52, 63
1, 50373, Note_off_c, 0, 55, 65
1, 50389, Note_off_c, 0, 64, 64
1, 50463, Note_on_c, 0, 36, 66
1, 50504, Note_off_c, 0, 24, 37
1, 50536, Note_off_c, 0, 36, 60
1, 50626, Note_on_c, 0, 24, 67
1, 50689, Note_on_c, 0, 36, 66
1, 50693, Note_off_c, 0, 24, 61
1, 50716, Note_off_c, 0, 36, 64
1, 50947, Note_on_c, 0, 58, 88
1, 50951, Note_on_c, 0, 61, 85
1, 50958, Note_on_c, 0, 49, 71
1, 51384, Note_on_c, 0, 64, 75
1, 51384, Note_on_c, 0, 76, 74
1, 51387, Note_on_c, 0, 67, 73
1, 51409, Note_off_c, 0, 64, 70
1, 51409, Note_off_c, 0, 67, 70
1, 51429, Note_off_c, 0, 76, 62
1, 51491, Note_on_c, 0, 77, 95
1, 51491, Note_on_c, 0, 68, 86
1, 51494, Note_on_c, 0, 65, 87
1, 51559, Control_c, 0, 64, 87
1, 51574, Control_c, 0, 64, 72
1, 51589, Control_c, 0, 64, 69
1, 51604, Control_c, 0, 64, 72
1, 51619, Control_c, 0, 64, 81
1, 51634, Control_c, 0, 64, 111
1, 51643, Note_off_c, 0, 61, 63
1, 51649, Control_c, 0, 64, 127
1, 51679, Note_off_c, 0, 58, 64
1, 51722, Note_off_c, 0, 49, 64
1, 52035, Note_off_c, 0, 65, 60
1, 52045, Note_off_c, 0, 68, 62
1, 52045, Note_on_c, 0, 24, 60
1, 52062, Note_off_c, 0, 77, 61
1, 52179, Note_on_c, 0, 36, 59
1, 52211, Note_off_c, 0, 24, 35
1, 52216, Note_off_c, 0, 36, 59
1, 52305, Note_on_c, 0, 24, 70
1, 52425, Note_on_c, 0, 36, 69
1, 52426, Note_on_c, 0, 67, 81
1, 52427, Note_on_c, 0, 70, 80
1, 52428, Note_on_c, 0, 79, 73
1, 52462, Note_off_c, 0, 79, 58
1, 52463, Note_off_c, 0, 67, 61
1, 52472, Note_off_c, 0, 70, 64
1, 52480, Note_off_c, 0, 24, 51
1, 52537, Note_on_c, 0, 80, 93
1, 52539, Note_on_c, 0, 72, 87
1, 52542, Note_on_c, 0, 68, 92
1, 52549, Note_on_c, 0, 24, 82
1, 52574, Note_off_c, 0, 36, 53
1, 52670, Note_on_c, 0, 36, 76
1, 52704, Note_off_c, 0, 24, 59
1, 52746, Note_off_c, 0, 36, 59
1, 52795, Note_on_c, 0, 24, 77
1, 52858, Note_off_c, 0, 24, 63
1, 52869, Note_on_c, 0, 36, 71
1, 52895, Note_off_c, 0, 36, 65
1, 53133, Note_on_c, 0, 58, 93
1, 53133, Note_on_c, 0, 61, 94
1, 53139, Note_on_c, 0, 49, 80
1, 53208, Note_off_c, 0, 72, 63
1, 53235, Note_off_c, 0, 68, 58
1, 53260, Note_off_c, 0, 80, 47
1, 53535, Note_on_c, 0, 79, 74
1, 53537, Note_on_c, 0, 67, 81
1, 53540, Note_on_c, 0, 70, 79
1, 53576, Note_off_c, 0, 67, 65
1, 53579, Note_off_c, 0, 79, 61
1, 53586, Note_off_c, 0, 70, 64
1, 53658, Note_on_c, 0, 78, 89
1, 53665, Note_on_c, 0, 69, 85
1, 53667, Note_on_c, 0, 66, 88
1, 53680, Note_off_c, 0, 61, 59
1, 53717, Note_off_c, 0, 66, 60
1, 53751, Note_off_c, 0, 69, 62
1, 53760, Note_off_c, 0, 78, 61
1, 53766, Note_off_c, 0, 49, 62
1, 53780, Note_off_c, 0, 58, 61
1, 54156, Note_on_c, 0, 68, 79
1, 54156, Note_on_c, 0, 77, 86
1, 54159, Note_on_c, 0, 65, 82
1, 54310, Note_on_c, 0, 24, 72
1, 54447, Note_on_c, 0, 36, 72
1, 54508, Note_off_c, 0, 24, 62
1, 54555, Note_off_c, 0, 77, 56
1, 54567, Note_off_c, 0, 68, 56
1, 54576, Note_on_c, 0, 24, 77
1, 54609, Note_off_c, 0, 36, 52
1, 54640, Note_off_c, 0, 65, 60
1, 54686, Note_on_c, 0, 36, 71
1, 54756, Note_off_c, 0, 24, 61
1, 54815, Note_on_c, 0, 24, 84
1, 54818, Note_on_c, 0, 76, 85
1, 54821, Note_on_c, 0, 64, 88
1, 54821, Note_on_c, 0, 67, 83
1, 54837, Note_off_c, 0, 36, 60
1, 54850, Note_off_c, 0, 76, 61
1, 54854, Note_off_c, 0, 64, 64
1, 54861, Note_off_c, 0, 67, 63
1, 54943, Note_on_c, 0, 36, 86
1, 54993, Note_off_c, 0, 24, 61
1, 55028, Note_off_c, 0, 36, 62
1, 55071, Note_on_c, 0, 24, 76
1, 55131, Note_off_c, 0, 24, 63
1, 55139, Note_on_c, 0, 36, 63
1, 55165, Note_off_c, 0, 36, 58
1, 55403, Note_on_c, 0, 60, 81
1, 55406, Note_on_c, 0, 63, 92
1, 55411, Note_on_c, 0, 51, 80
1, 56023, Note_on_c, 0, 79, 87
1, 56025, Note_on_c, 0, 67, 90
1, 56025, Note_on_c, 0, 70, 88
1, 56038, Control_c, 0, 64, 86
1, 56052, Control_c, 0, 64, 66
1, 56067, Control_c, 0, 64, 48
1, 56082, Control_c, 0, 64, 40
1, 56097, Control_c, 0, 64, 41
1, 56112, Control_c, 0, 64, 45
1, 56126, Control_c, 0, 64, 56
1, 56141, Control_c, 0, 64, 70
1, 56156, Control_c, 0, 64, 94
1, 56171, Control_c, 0, 64, 127
1, 56177, Note_off_c, 0, 63, 63
1, 56204, Note_off_c, 0, 60, 62
1, 56266, Note_off_c, 0, 51, 62
1, 56546, Note_off_c, 0, 79, 56
1, 56558, Note_off_c, 0, 67, 54
1, 56579, Note_on_c, 0, 24, 58
1, 56625, Note_off_c, 0, 70, 64
1, 56735, Note_on_c, 0, 36, 48
1, 56790, Note_off_c, 0, 24, 37
1, 56796, Note_off_c, 0, 36, 55
1, 56874, Note_on_c, 0, 24, 56
1, 56981, Note_on_c, 0, 36, 61
1, 57009, Note_off_c, 0, 24, 58
1, 57083, Note_off_c, 0, 36, 37
1, 57098, Note_on_c, 0, 66, 78
1, 57099, Note_on_c, 0, 57, 70
1, 57101, Note_on_c, 0, 54, 74
1, 57112, Note_on_c, 0, 24, 76
1, 57122, Note_off_c, 0, 54, 67
1, 57124, Note_off_c, 0, 57, 67
1, 57134, Note_off_c, 0, 66, 64
1, 57223, Note_on_c, 0, 36, 77
1, 57231, Note_off_c, 0, 24, 58
1, 57277, Note_off_c, 0, 36, 61
1, 57375, Note_on_c, 0, 24, 63
1, 57423, Note_on_c, 0, 36, 70
1, 57424, Note_off_c, 0, 24, 64
1, 57449, Note_off_c, 0, 36, 65
1, 57678, Note_on_c, 0, 60, 74
1, 57683, Note_on_c, 0, 63, 94
1, 57693, Note_on_c, 0, 51, 74
1, 58263, Note_on_c, 0, 70, 87
1, 58265, Note_on_c, 0, 67, 85
1, 58265, Note_on_c, 0, 79, 86
1, 58314, Control_c, 0, 64, 98
1, 58329, Control_c, 0, 64, 79
1, 58344, Control_c, 0, 64, 69
1, 58359, Control_c, 0, 64, 65
1, 58373, Control_c, 0, 64, 66
1, 58388, Control_c, 0, 64, 70
1, 58403, Control_c, 0, 64, 84
1, 58418, Control_c, 0, 64, 127
1, 58436, Note_off_c, 0, 63, 62
1, 58457, Note_off_c, 0, 60, 63
1, 58503, Note_off_c, 0, 51, 63
1, 58788, Note_off_c, 0, 67, 53
1, 58809, Note_off_c, 0, 79, 57
1, 58816, Note_on_c, 0, 24, 62
1, 58893, Note_off_c, 0, 70, 63
1, 58967, Note_on_c, 0, 36, 49
1, 58992, Note_off_c, 0, 24, 58
1, 59041, Note_off_c, 0, 36, 57
1, 59107, Note_on_c, 0, 24, 60
1, 59210, Note_on_c, 0, 36, 46
1, 59280, Note_off_c, 0, 24, 36
1, 59288, Note_off_c, 0, 36, 54
1, 59336, Note_on_c, 0, 24, 69
1, 59337, Note_on_c, 0, 66, 77
1, 59340, Note_on_c, 0, 54, 73
1, 59346, Note_on_c, 0, 57, 65
1, 59363, Note_off_c, 0, 54, 68
1, 59373, Note_off_c, 0, 57, 64
1, 59389, Note_off_c, 0, 66, 65
1, 59457, Note_on_c, 0, 36, 64
1, 59463, Note_off_c, 0, 24, 55
1, 59516, Note_off_c, 0, 36, 54
1, 59591, Note_on_c, 0, 24, 67
1, 59643, Note_off_c, 0, 24, 63
1, 59651, Note_on_c, 0, 36, 71
1, 59680, Note_off_c, 0, 36, 64
1, 59925, Note_on_c, 0, 60, 52
1, 59930, Note_on_c, 0, 63, 93
1, 59939, Note_on_c, 0, 51, 84
1, 60337, Note_on_c, 0, 78, 73
1, 60340, Note_on_c, 0, 66, 83
1, 60347, Note_on_c, 0, 69, 69
1, 60371, Note_off_c, 0, 69, 69
1, 60374, Note_off_c, 0, 66, 62
1, 60392, Note_off_c, 0, 78, 61
1, 60453, Note_on_c, 0, 79, 82
1, 60454, Note_on_c, 0, 70, 85
1, 60455, Note_on_c, 0, 67, 87
1, 60539, Note_off_c, 0, 63, 62
1, 60576, Note_off_c, 0, 60, 64
1, 60621, Note_off_c, 0, 51, 61
1, 60949, Note_off_c, 0, 67, 62
1, 60955, Note_off_c, 0, 70, 62
1, 60961, Note_on_c, 0, 24, 67
1, 60974, Note_off_c, 0, 79, 63
1, 61092, Note_on_c, 0, 36, 55
1, 61140, Note_off_c, 0, 36, 58
1, 61148, Note_off_c, 0, 24, 33
1, 61206, Note_on_c, 0, 24, 79
1, 61325, Note_on_c, 0, 69, 72
1, 61331, Note_on_c, 0, 72, 69
1, 61331, Note_on_c, 0, 81, 65
1, 61335, Note_on_c, 0, 36, 79
1, 61356, Note_off_c, 0, 69, 62
1, 61356, Note_off_c, 0, 72, 66
1, 61358, Note_off_c, 0, 81, 67
1, 61364, Note_off_c, 0, 24, 60
1, 61408, Note_off_c, 0, 36, 58
1, 61446, Note_on_c, 0, 24, 89
1, 61451, Note_on_c, 0, 82, 86
1, 61454, Note_on_c, 0, 74, 85
1, 61456, Note_on_c, 0, 70, 88
1, 61565, Note_on_c, 0, 36, 78
1, 61584, Note_off_c, 0, 24, 62
1, 61622, Note_off_c, 0, 36, 60
1, 61689, Note_on_c, 0, 24, 79
1, 61716, Note_off_c, 0, 24, 63
1, 61721, Note_on_c, 0, 36, 68
1, 61745, Note_off_c, 0, 36, 61
1, 62025, Note_on_c, 0, 63, 94
1, 62028, Note_on_c, 0, 60, 84
1, 62029, Note_on_c, 0, 51, 87
1, 62070, Note_off_c, 0, 74, 66
1, 62090, Note_off_c, 0, 70, 61
1, 62097, Note_off_c, 0, 82, 59
1, 62404, Note_on_c, 0, 81, 78
1, 62405, Note_on_c, 0, 69, 81
1, 62407, Note_on_c, 0, 72, 82
1, 62445, Note_off_c, 0, 69, 60
1, 62448, Note_off_c, 0, 81, 61
1, 62452, Note_off_c, 0, 72, 64
1, 62520, Note_on_c, 0, 80, 95
1, 62526, Note_on_c, 0, 71, 86
1, 62529, Note_on_c, 0, 68, 86
1, 62551, Note_off_c, 0, 68, 62
1, 62559, Note_off_c, 0, 63, 61
1, 62590, Note_off_c, 0, 71, 59
1, 62603, Note_off_c, 0, 80, 60
1, 62611, Note_off_c, 0, 60, 65
1, 62656, Note_off_c, 0, 51, 62
1, 62941, Note_on_c, 0, 70, 86
1, 62944, Note_on_c, 0, 79, 84
1, 62945, Note_on_c, 0, 67, 86
1, 63088, Note_on_c, 0, 24, 85
1, 63222, Note_on_c, 0, 36, 80
1, 63277, Note_off_c, 0, 79, 60
1, 63280, Note_off_c, 0, 24, 62
1, 63320, Note_off_c, 0, 70, 63
1, 63322, Note_off_c, 0, 67, 62
1, 63340, Note_on_c, 0, 24, 84
1, 63379, Note_off_c, 0, 36, 45
1, 63456, Note_on_c, 0, 36, 77
1, 63503, Note_off_c, 0, 24, 61
1, 63552, Note_on_c, 0, 78, 83
1, 63560, Note_on_c, 0, 66, 92
1, 63560, Note_on_c, 0, 69, 86
1, 63569, Note_off_c, 0, 36, 0
1, 63575, Note_on_c, 0, 24, 94
1, 63581, Note_off_c, 0, 66, 71
1, 63593, Poly_aftertouch_c, 0, 36, 0
1, 63599, Note_off_c, 0, 69, 67
1, 63601, Note_off_c, 0, 78, 64
1, 63683, Note_on_c, 0, 36, 84
1, 63695, Note_off_c, 0, 24, 63
1, 63742, Note_off_c, 0, 36, 62
1, 63789, Note_on_c, 0, 24, 81
1, 63829, Note_off_c, 0, 24, 63
1, 63832, Note_on_c, 0, 36, 78
1, 63865, Note_off_c, 0, 36, 63
1, 64087, Note_on_c, 0, 65, 92
1, 64091, Note_on_c, 0, 53, 78
1, 64091, Note_on_c, 0, 62, 85
1, 64673, Control_c, 0, 64, 85
1, 64675, Note_on_c, 0, 72, 90
1, 64675, Note_on_c, 0, 81, 93
1, 64678, Note_on_c, 0, 69, 93
1, 64688, Control_c, 0, 64, 69
1, 64704, Control_c, 0, 64, 62
1, 64719, Control_c, 0, 64, 63
1, 64733, Control_c, 0, 64, 69
1, 64748, Control_c, 0, 64, 86
1, 64763, Control_c, 0, 64, 127
1, 64774, Note_off_c, 0, 65, 61
1, 64804, Note_off_c, 0, 62, 64
1, 64851, Note_off_c, 0, 53, 63
1, 65207, Note_off_c, 0, 69, 56
1, 65211, Note_on_c, 0, 24, 68
1, 65224, Note_off_c, 0, 81, 60
1, 65295, Note_off_c, 0, 72, 64
1, 65362, Note_on_c, 0, 36, 63
1, 65401, Note_off_c, 0, 24, 61
1, 65418, Note_off_c, 0, 36, 54
1, 65481, Note_on_c, 0, 24, 74
1, 65595, Note_on_c, 0, 36, 62
1, 65653, Note_off_c, 0, 24, 34
1, 65692, Note_on_c, 0, 68, 83
1, 65695, Note_on_c, 0, 59, 82
1, 65696, Note_on_c, 0, 56, 85
1, 65708, Note_on_c, 0, 24, 77
1, 65708, Note_off_c, 0, 36, 35
1, 65728, Note_off_c, 0, 56, 68
1, 65728, Note_off_c, 0, 59, 70
1, 65745, Note_off_c, 0, 68, 66
1, 65828, Note_off_c, 0, 24, 59
1, 65835, Note_on_c, 0, 36, 63
1, 65870, Poly_aftertouch_c, 0, 56, 0
1, 65883, Note_off_c, 0, 36, 53
1, 65944, Note_on_c, 0, 24, 70
1, 65987, Note_off_c, 0, 24, 63
1, 65997, Note_on_c, 0, 36, 75
1, 66023, Note_off_c, 0, 36, 63
1, 66253, Note_on_c, 0, 62, 79
1, 66255, Note_on_c, 0, 65, 89
1, 66258, Note_on_c, 0, 53, 77
1, 66845, Note_on_c, 0, 81, 95
1, 66847, Note_on_c, 0, 69, 94
1, 66850, Note_on_c, 0, 72, 90
1, 66891, Control_c, 0, 64, 105
1, 66905, Control_c, 0, 64, 102
1, 66935, Control_c, 0, 64, 113
1, 66950, Control_c, 0, 64, 127
1, 66975, Note_off_c, 0, 65, 60
1, 67024, Note_off_c, 0, 62, 63
1, 67072, Note_off_c, 0, 53, 63
1, 67303, Note_off_c, 0, 69, 48
1, 67340, Note_off_c, 0, 81, 57
1, 67379, Note_on_c, 0, 24, 67
1, 67419, Note_off_c, 0, 72, 61
1, 67506, Note_on_c, 0, 36, 60
1, 67514, Note_off_c, 0, 24, 58
1, 67546, Note_off_c, 0, 36, 59
1, 67615, Note_on_c, 0, 24, 77
1, 67718, Note_on_c, 0, 36, 63
1, 67761, Note_off_c, 0, 24, 52
1, 67800, Note_off_c, 0, 36, 57
1, 67844, Note_on_c, 0, 24, 86
1, 67856, Note_on_c, 0, 68, 78
1, 67862, Note_on_c, 0, 56, 82
1, 67867, Note_on_c, 0, 59, 72
1, 67886, Note_off_c, 0, 56, 68
1, 67892, Note_off_c, 0, 59, 67
1, 67908, Note_off_c, 0, 68, 65
1, 67954, Note_on_c, 0, 36, 77
1, 67965, Note_off_c, 0, 24, 59
1, 67997, Poly_aftertouch_c, 0, 56, 127
1, 68023, Note_off_c, 0, 36, 58
1, 68035, Poly_aftertouch_c, 0, 56, 0
1, 68070, Note_on_c, 0, 24, 72
1, 68147, Note_off_c, 0, 24, 62
1, 68152, Note_on_c, 0, 36, 71
1, 68184, Note_off_c, 0, 36, 64
1, 68423, Note_on_c, 0, 66, 90
1, 68425, Note_on_c, 0, 63, 81
1, 68428, Note_on_c, 0, 54, 73
1, 68804, Note_on_c, 0, 68, 83
1, 68810, Note_on_c, 0, 80, 73
1, 68813, Note_on_c, 0, 71, 72
1, 68837, Note_off_c, 0, 71, 68
1, 68847, Note_off_c, 0, 68, 58
1, 68858, Note_off_c, 0, 80, 64
1, 68885, Control_c, 0, 64, 91
1, 68899, Control_c, 0, 64, 76
1, 68901, Note_on_c, 0, 72, 89
1, 68903, Note_on_c, 0, 69, 91
1, 68903, Note_on_c, 0, 81, 89
1, 68914, Control_c, 0, 64, 71
1, 68929, Control_c, 0, 64, 76
1, 68944, Control_c, 0, 64, 94
1, 68959, Control_c, 0, 64, 127
1, 68964, Note_off_c, 0, 66, 65
1, 69008, Note_off_c, 0, 63, 63
1, 69053, Note_off_c, 0, 54, 63
1, 69385, Note_on_c, 0, 24, 78
1, 69416, Note_off_c, 0, 69, 60
1, 69420, Note_off_c, 0, 72, 62
1, 69466, Note_off_c, 0, 81, 54
1, 69522, Note_on_c, 0, 36, 65
1, 69532, Note_off_c, 0, 24, 60
1, 69569, Note_off_c, 0, 36, 62
1, 69642, Note_on_c, 0, 24, 78
1, 69725, Note_off_c, 0, 24, 61
1, 69761, Note_on_c, 0, 83, 91
1, 69763, Note_on_c, 0, 74, 86
1, 69764, Note_on_c, 0, 71, 82
1, 69764, Note_on_c, 0, 36, 75
1, 69791, Note_off_c, 0, 74, 65
1, 69804, Note_off_c, 0, 71, 60
1, 69808, Note_off_c, 0, 83, 66
1, 69833, Note_off_c, 0, 36, 61
1, 69862, Note_on_c, 0, 24, 87
1, 69868, Note_on_c, 0, 75, 93
1, 69868, Note_on_c, 0, 84, 91
1, 69873, Note_on_c, 0, 72, 81
1, 69963, Note_on_c, 0, 36, 74
1, 69980, Note_off_c, 0, 24, 61
1, 69981, Note_on_c, 0, 32, 43
1, 70025, Note_off_c, 0, 36, 60
1, 70078, Note_on_c, 0, 24, 75
1, 70114, Note_off_c, 0, 32, 25
1, 70130, Note_on_c, 0, 36, 76
1, 70133, Note_off_c, 0, 24, 61
1, 70154, Note_off_c, 0, 36, 67
1, 70396, Note_on_c, 0, 66, 100
1, 70396, Note_on_c, 0, 63, 92
1, 70402, Note_on_c, 0, 54, 77
1, 70487, Note_off_c, 0, 84, 61
1, 70503, Note_off_c, 0, 75, 63
1, 70506, Note_off_c, 0, 72, 63
1, 70771, Note_on_c, 0, 83, 79
1, 70774, Note_on_c, 0, 74, 85
1, 70777, Note_on_c, 0, 71, 84
1, 70813, Note_off_c, 0, 71, 60
1, 70814, Note_off_c, 0, 83, 64
1, 70820, Note_off_c, 0, 74, 66
1, 70844, Note_off_c, 0, 66, 59
1, 70895, Note_on_c, 0, 82, 93
1, 70899, Note_on_c, 0, 70, 95
1, 70899, Note_on_c, 0, 73, 89
1, 70947, Note_off_c, 0, 70, 60
1, 70954, Note_off_c, 0, 73, 58
1, 70981, Note_off_c, 0, 63, 66
1, 70982, Note_off_c, 0, 82, 61
1, 71003, Note_off_c, 0, 54, 63
1, 71313, Note_on_c, 0, 81, 79
1, 71314, Note_on_c, 0, 72, 73
1, 71316, Note_on_c, 0, 69, 75
1, 71448, Note_on_c, 0, 24, 77
1, 71573, Note_on_c, 0, 36, 78
1, 71615, Note_off_c, 0, 24, 60
1, 71689, Note_on_c, 0, 24, 89
1, 71710, Note_off_c, 0, 36, 62
1, 71731, Note_off_c, 0, 81, 53
1, 71737, Note_off_c, 0, 72, 36
1, 71746, Note_off_c, 0, 69, 31
1, 71810, Note_on_c, 0, 36, 87
1, 71820, Note_on_c, 0, 72, 91
1, 71827, Note_on_c, 0, 81, 84
1, 71827, Note_on_c, 0, 69, 90
1, 71849, Note_off_c, 0, 69, 66
1, 71853, Note_off_c, 0, 81, 57
1, 71858, Note_off_c, 0, 24, 63
1, 71862, Note_off_c, 0, 72, 64
1, 71921, Note_on_c, 0, 24, 95
1, 71937, Note_on_c, 0, 73, 93
1, 71937, Note_on_c, 0, 82, 95
1, 71940, Note_on_c, 0, 70, 93
1, 71941, Note_off_c, 0, 36, 61
1, 72022, Note_on_c, 0, 36, 84
1, 72044, Note_off_c, 0, 24, 63
1, 72084, Poly_aftertouch_c, 0, 32, 127
1, 72100, Note_off_c, 0, 36, 61
1, 72134, Note_on_c, 0, 24, 85
1, 72145, Poly_aftertouch_c, 0, 32, 0
1, 72165, Note_on_c, 0, 36, 81
1, 72177, Note_off_c, 0, 24, 64
1, 72189, Note_off_c, 0, 36, 68
1, 72437, Note_on_c, 0, 64, 97
1, 72440, Note_on_c, 0, 67, 95
1, 72442, Note_on_c, 0, 55, 86
1, 72469, Note_off_c, 0, 73, 61
1, 72470, Note_off_c, 0, 70, 61
1, 72505, Note_off_c, 0, 82, 57
1, 72826, Note_on_c, 0, 72, 84
1, 72829, Note_on_c, 0, 75, 87
1, 72829, Note_on_c, 0, 84, 74
1, 72868, Note_off_c, 0, 72, 65
1, 72873, Note_off_c, 0, 84, 62
1, 72883, Note_off_c, 0, 75, 63
1, 72942, Note_on_c, 0, 76, 94
1, 72944, Note_on_c, 0, 85, 92
1, 72947, Note_on_c, 0, 73, 92
1, 72983, Note_off_c, 0, 67, 57
1, 73028, Note_off_c, 0, 64, 65
1, 73067, Note_off_c, 0, 55, 60
1, 73447, Note_on_c, 0, 24, 71
1, 73508, Note_off_c, 0, 76, 62
1, 73538, Note_off_c, 0, 73, 55
1, 73556, Note_off_c, 0, 85, 53
1, 73570, Note_on_c, 0, 36, 64
1, 73573, Note_off_c, 0, 24, 52
1, 73629, Note_off_c, 0, 36, 60
1, 73687, Note_on_c, 0, 24, 86
1, 73802, Note_on_c, 0, 36, 77
1, 73824, Note_on_c, 0, 75, 85
1, 73825, Note_on_c, 0, 84, 84
1, 73827, Note_on_c, 0, 72, 88
1, 73851, Note_off_c, 0, 24, 60
1, 73869, Note_off_c, 0, 72, 65
1, 73871, Note_off_c, 0, 75, 64
1, 73877, Note_off_c, 0, 84, 64
1, 73894, Note_off_c, 0, 36, 61
1, 73926, Note_on_c, 0, 24, 93
1, 73942, Note_on_c, 0, 74, 99
1, 73943, Note_on_c, 0, 83, 90
1, 73943, Note_on_c, 0, 71, 99
1, 73979, Note_off_c, 0, 71, 63
1, 73981, Note_off_c, 0, 74, 66
1, 73988, Note_off_c, 0, 83, 63
1, 74035, Note_on_c, 0, 36, 80
1, 74061, Note_off_c, 0, 24, 62
1, 74105, Note_off_c, 0, 36, 61
1, 74151, Note_on_c, 0, 24, 85
1, 74217, Note_on_c, 0, 36, 79
1, 74223, Note_off_c, 0, 24, 63
1, 74253, Note_off_c, 0, 36, 64
1, 74324, Note_on_c, 0, 70, 88
1, 74325, Note_on_c, 0, 73, 84
1, 74328, Note_on_c, 0, 82, 83
1, 74342, Note_off_c, 0, 70, 72
1, 74345, Note_off_c, 0, 73, 71
1, 74373, Note_off_c, 0, 82, 63
1, 74503, Note_on_c, 0, 65, 84
1, 74504, Note_on_c, 0, 68, 99
1, 74509, Note_on_c, 0, 56, 82
1, 74632, Control_c, 0, 64, 99
1, 74646, Control_c, 0, 64, 94
1, 74676, Control_c, 0, 64, 100
1, 74691, Control_c, 0, 64, 127
1, 74873, Note_on_c, 0, 72, 83
1, 74875, Note_on_c, 0, 84, 76
1, 74877, Note_on_c, 0, 76, 81
1, 74906, Note_off_c, 0, 72, 63
1, 74912, Note_off_c, 0, 76, 64
1, 74918, Note_off_c, 0, 84, 62
1, 74954, Note_off_c, 0, 68, 58
1, 74974, Note_on_c, 0, 85, 97
1, 74977, Note_on_c, 0, 77, 87
1, 74982, Note_on_c, 0, 73, 94
1, 75023, Note_off_c, 0, 65, 63
1, 75038, Note_off_c, 0, 56, 61
1, 75513, Note_on_c, 0, 24, 61
1, 75528, Note_off_c, 0, 77, 62
1, 75538, Note_off_c, 0, 73, 55
1, 75577, Note_off_c, 0, 85, 56
1, 75641, Note_on_c, 0, 36, 59
1, 75648, Note_off_c, 0, 24, 49
1, 75697, Note_off_c, 0, 36, 53
1, 75750, Note_on_c, 0, 24, 75
1, 75858, Note_on_c, 0, 78, 80
1, 75859, Note_on_c, 0, 74, 84
1, 75861, Note_on_c, 0, 86, 75
1, 75866, Note_on_c, 0, 36, 78
1, 75890, Note_off_c, 0, 86, 65
1, 75896, Note_off_c, 0, 74, 63
1, 75899, Note_off_c, 0, 78, 60
1, 75940, Note_off_c, 0, 36, 60
1, 75948, Note_off_c, 0, 24, 0
1, 75961, Note_on_c, 0, 79, 85
1, 75964, Note_on_c, 0, 24, 67
1, 75964, Note_on_c, 0, 87, 87
1, 75967, Note_on_c, 0, 75, 91
1, 76071, Note_on_c, 0, 36, 78
1, 76106, Note_off_c, 0, 24, 61
1, 76141, Note_off_c, 0, 36, 61
1, 76152, Poly_aftertouch_c, 0, 32, 127
1, 76195, Poly_aftertouch_c, 0, 32, 0
1, 76198, Note_on_c, 0, 24, 77
1, 76256, Note_off_c, 0, 24, 61
1, 76274, Note_on_c, 0, 36, 69
1, 76305, Note_off_c, 0, 36, 64
1, 76496, Note_on_c, 0, 65, 78
1, 76510, Note_on_c, 0, 56, 64
1, 76513, Note_on_c, 0, 68, 81
1, 76566, Note_off_c, 0, 75, 63
1, 76574, Note_off_c, 0, 79, 63
1, 76607, Note_off_c, 0, 87, 59
1, 76892, Note_on_c, 0, 80, 84
1, 76894, Note_on_c, 0, 76, 84
1, 76894, Note_on_c, 0, 88, 83
1, 76932, Note_off_c, 0, 76, 67
1, 76932, Note_off_c, 0, 80, 66
1, 76941, Note_off_c, 0, 88, 66
1, 77013, Note_off_c, 0, 68, 60
1, 77015, Note_on_c, 0, 81, 92
1, 77016, Note_on_c, 0, 89, 89
1, 77018, Note_on_c, 0, 77, 91
1, 77037, Note_off_c, 0, 77, 68
1, 77040, Note_off_c, 0, 81, 64
1, 77057, Note_off_c, 0, 89, 59
1, 77070, Note_off_c, 0, 65, 63
1, 77074, Note_off_c, 0, 56, 63
1, 77387, Note_on_c, 0, 82, 84
1, 77389, Note_on_c, 0, 90, 85
1, 77391, Note_on_c, 0, 78, 84
1, 77424, Note_off_c, 0, 78, 58
1, 77428, Note_off_c, 0, 82, 64
1, 77461, Note_off_c, 0, 90, 61
1, 77508, Note_on_c, 0, 24, 82
1, 77638, Note_on_c, 0, 36, 70
1, 77685, Note_off_c, 0, 24, 61
1, 77760, Note_on_c, 0, 91, 85
1, 77764, Note_on_c, 0, 79, 79
1, 77765, Note_on_c, 0, 24, 88
1, 77765, Note_on_c, 0, 83, 82
1, 77782, Note_off_c, 0, 36, 36
1, 77790, Note_off_c, 0, 79, 65
1, 77795, Note_off_c, 0, 83, 62
1, 77796, Note_on_c, 0, 82, 27
1, 77796, Note_off_c, 0, 82, 127
1, 77803, Note_off_c, 0, 91, 66
1, 77890, Note_on_c, 0, 36, 74
1, 77939, Note_off_c, 0, 24, 62
1, 77971, Note_off_c, 0, 36, 59
1, 78019, Note_on_c, 0, 24, 94
1, 78024, Note_on_c, 0, 84, 87
1, 78025, Note_on_c, 0, 92, 91
1, 78027, Note_on_c, 0, 80, 90
1, 78057, Note_off_c, 0, 80, 63
1, 78062, Note_off_c, 0, 84, 66
1, 78089, Note_off_c, 0, 92, 64
1, 78135, Note_on_c, 0, 36, 76
1, 78182, Note_off_c, 0, 24, 58
1, 78209, Note_off_c, 0, 36, 60
1, 78209, Poly_aftertouch_c, 0, 32, 127
1, 78267, Note_on_c, 0, 85, 82
1, 78272, Note_on_c, 0, 81, 93
1, 78273, Note_on_c, 0, 93, 89
1, 78285, Note_on_c, 0, 24, 75
1, 78295, Poly_aftertouch_c, 0, 32, 0
1, 78299, Note_on_c, 0, 36, 86
1, 78303, Note_off_c, 0, 81, 63
1, 78304, Note_on_c, 0, 90, 39
1, 78304, Note_off_c, 0, 85, 65
1, 78318, Note_off_c, 0, 93, 62
1, 78322, Note_off_c, 0, 36, 70
1, 78322, Note_off_c, 0, 24, 58
1, 78334, Note_off_c, 0, 90, 49
1, 78574, Note_on_c, 0, 65, 53
1, 78578, Note_on_c, 0, 86, 92
1, 78579, Note_on_c, 0, 82, 94
1, 78582, Note_on_c, 0, 94, 94
1, 78590, Note_on_c, 0, 68, 87
1, 78600, Note_on_c, 0, 56, 71
1, 78608, Note_off_c, 0, 86, 70
1, 78610, Note_off_c, 0, 82, 63
1, 78636, Note_off_c, 0, 94, 64
1, 78894, Note_on_c, 0, 87, 88
1, 78895, Note_on_c, 0, 83, 87
1, 78895, Note_on_c, 0, 95, 90
1, 78928, Note_off_c, 0, 83, 62
1, 78933, Note_off_c, 0, 87, 63
1, 78950, Note_off_c, 0, 95, 65
1, 79243, Note_on_c, 0, 84, 92
1, 79244, Note_on_c, 0, 88, 91
1, 79246, Note_on_c, 0, 96, 90
1, 79280, Note_off_c, 0, 84, 66
1, 79281, Note_off_c, 0, 88, 68
1, 79289, Note_off_c, 0, 96, 66
1, 79714, Note_on_c, 0, 85, 94
1, 79714, Note_on_c, 0, 97, 95
1, 79714, Note_on_c, 0, 89, 93
1, 79786, Note_off_c, 0, 68, 62
1, 79790, Note_off_c, 0, 56, 64
1, 79803, Note_off_c, 0, 65, 63
1, 79845, Note_off_c, 0, 97, 63
1, 79854, Note_off_c, 0, 85, 59
1, 79878, Note_off_c, 0, 89, 63
1, 80191, Control_c, 0, 64, 86
1, 80206, Control_c, 0, 64, 65
1, 80221, Control_c, 0, 64, 41
1, 80236, Control_c, 0, 64, 0
1, 80784, Note_on_c, 0, 73, 94
1, 80784, Note_on_c, 0, 61, 84
1, 80792, Control_c, 0, 64, 32
1, 80805, Note_off_c, 0, 61, 72
1, 80807, Control_c, 0, 64, 64
1, 80821, Control_c, 0, 64, 84
1, 80836, Control_c, 0, 64, 127
1, 82141, Note_off_c, 0, 73, 53
1, 82910, Note_on_c, 0, 73, 77
1, 82930, Note_on_c, 0, 61, 34
1, 82936, Note_off_c, 0, 73, 64
1, 82972, Note_off_c, 0, 61, 51
1, 83024, Note_on_c, 0, 73, 82
1, 83045, Note_on_c, 0, 61, 53
1, 83047, Note_off_c, 0, 73, 63
1, 83072, Note_off_c, 0, 61, 57
1, 83115, Note_on_c, 0, 73, 89
1, 83138, Note_off_c, 0, 73, 63
1, 83140, Note_on_c, 0, 61, 73
1, 83173, Note_off_c, 0, 61, 61
1, 83208, Note_on_c, 0, 73, 96
1, 83213, Note_on_c, 0, 61, 97
1, 83236, Note_off_c, 0, 61, 68
1, 84307, Note_off_c, 0, 73, 30
1, 85115, Note_on_c, 0, 73, 81
1, 85124, Note_on_c, 0, 61, 51
1, 85151, Note_off_c, 0, 73, 59
1, 85151, Note_off_c, 0, 61, 56
1, 85232, Note_on_c, 0, 73, 86
1, 85241, Note_on_c, 0, 61, 63
1, 85266, Note_off_c, 0, 73, 60
1, 85277, Note_off_c, 0, 61, 59
1, 85329, Note_on_c, 0, 73, 87
1, 85341, Note_on_c, 0, 61, 73
1, 85371, Note_off_c, 0, 73, 60
1, 85373, Note_off_c, 0, 61, 59
1, 85436, Note_on_c, 0, 73, 96
1, 85441, Note_on_c, 0, 61, 81
1, 85462, Note_off_c, 0, 61, 70
1, 85467, Note_off_c, 0, 73, 65
1, 86259, Note_on_c, 0, 73, 97
1, 86264, Note_on_c, 0, 69, 83
1, 86269, Note_on_c, 0, 57, 73
1, 86274, Note_on_c, 0, 61, 73
1, 86427, Note_off_c, 0, 69, 59
1, 86452, Note_off_c, 0, 61, 55
1, 86469, Note_off_c, 0, 73, 65
1, 86520, Note_off_c, 0, 57, 62
1, 87049, Note_on_c, 0, 69, 85
1, 87049, Note_on_c, 0, 73, 89
1, 87051, Note_on_c, 0, 57, 75
1, 87052, Note_on_c, 0, 61, 80
1, 87053, Note_on_c, 0, 65, 80
1, 87067, Note_on_c, 0, 53, 68
1, 87167, Control_c, 0, 64, 103
1, 87182, Control_c, 0, 64, 73
1, 87197, Control_c, 0, 64, 59
1, 87212, Control_c, 0, 64, 51
1, 87227, Control_c, 0, 64, 52
1, 87241, Control_c, 0, 64, 54
1, 87256, Control_c, 0, 64, 62
1, 87271, Control_c, 0, 64, 70
1, 87286, Control_c, 0, 64, 79
1, 87301, Control_c, 0, 64, 87
1, 87316, Control_c, 0, 64, 101
1, 87330, Control_c, 0, 64, 127
1, 87408, Note_off_c, 0, 53, 55
1, 87458, Note_off_c, 0, 69, 60
1, 87470, Note_off_c, 0, 73, 60
1, 87472, Note_off_c, 0, 57, 51
1, 87473, Note_off_c, 0, 65, 60
1, 87475, Note_off_c, 0, 61, 37
1, 87879, Note_on_c, 0, 73, 86
1, 87880, Note_on_c, 0, 69, 79
1, 87888, Note_on_c, 0, 64, 75
1, 87889, Note_on_c, 0, 61, 72
1, 87891, Note_on_c, 0, 57, 66
1, 87908, Note_on_c, 0, 52, 59
1, 87960, Control_c, 0, 64, 107
1, 87975, Control_c, 0, 64, 82
1, 87989, Control_c, 0, 64, 66
1, 88004, Control_c, 0, 64, 51
1, 88019, Control_c, 0, 64, 46
1, 88034, Control_c, 0, 64, 47
1, 88049, Control_c, 0, 64, 53
1, 88064, Control_c, 0, 64, 63
1, 88078, Control_c, 0, 64, 76
1, 88093, Control_c, 0, 64, 98
1, 88108, Control_c, 0, 64, 127
1, 88180, Note_off_c, 0, 61, 63
1, 88225, Note_off_c, 0, 57, 63
1, 88242, Note_off_c, 0, 64, 63
1, 88270, Note_off_c, 0, 52, 61
1, 88274, Note_off_c, 0, 69, 62
1, 88290, Note_off_c, 0, 73, 63
1, 88412, Control_c, 0, 67, 40
1, 88427, Control_c, 0, 67, 66
1, 88442, Control_c, 0, 67, 86
1, 88457, Control_c, 0, 67, 101
1, 88471, Control_c, 0, 67, 108
1, 88486, Control_c, 0, 67, 114
1, 88501, Control_c, 0, 67, 126
1, 88574, Control_c, 0, 64, 100
1, 88588, Control_c, 0, 64, 81
1, 88603, Control_c, 0, 64, 67
1, 88618, Control_c, 0, 64, 57
1, 88633, Control_c, 0, 64, 53
1, 88648, Control_c, 0, 64, 49
1, 88664, Control_c, 0, 64, 44
1, 88679, Control_c, 0, 64, 38
1, 88693, Control_c, 0, 64, 35
1, 88708, Control_c, 0, 64, 34
1, 88723, Control_c, 0, 64, 33
1, 88853, Note_on_c, 0, 61, 84
1, 88856, Control_c, 0, 64, 35
1, 88864, Note_on_c, 0, 49, 67
1, 88871, Control_c, 0, 64, 38
1, 88886, Control_c, 0, 64, 39
1, 88916, Control_c, 0, 64, 40
1, 88931, Control_c, 0, 64, 41
1, 88952, Control_c, 0, 64, 43
1, 88967, Control_c, 0, 64, 44
1, 89190, Control_c, 0, 64, 44
1, 89264, Control_c, 0, 64, 45
1, 89279, Control_c, 0, 64, 45
1, 89402, Note_on_c, 0, 53, 72
1, 89410, Note_on_c, 0, 46, 66
1, 89416, Note_on_c, 0, 44, 61
1, 89517, Control_c, 0, 64, 45
1, 89561, Control_c, 0, 64, 45
1, 89576, Control_c, 0, 64, 46
1, 89635, Control_c, 0, 64, 48
1, 89650, Control_c, 0, 64, 51
1, 89665, Control_c, 0, 64, 55
1, 89680, Control_c, 0, 64, 59
1, 89703, Control_c, 0, 64, 61
1, 89717, Control_c, 0, 64, 65
1, 89732, Control_c, 0, 64, 70
1, 89747, Control_c, 0, 64, 78
1, 89762, Control_c, 0, 64, 84
1, 89776, Control_c, 0, 64, 89
1, 89791, Control_c, 0, 64, 93
1, 89806, Control_c, 0, 64, 96
1, 89821, Control_c, 0, 64, 99
1, 89836, Control_c, 0, 64, 103
1, 89850, Control_c, 0, 64, 112
1, 89865, Control_c, 0, 64, 127
1, 90010, Note_off_c, 0, 44, 52
1, 90036, Note_off_c, 0, 53, 35
1, 90399, Control_c, 0, 64, 107
1, 90414, Control_c, 0, 64, 86
1, 90427, Note_on_c, 0, 52, 52
1, 90429, Control_c, 0, 64, 71
1, 90445, Note_on_c, 0, 43, 48
1, 90451, Control_c, 0, 64, 58
1, 90466, Control_c, 0, 64, 50
1, 90481, Control_c, 0, 64, 47
1, 90496, Control_c, 0, 64, 47
1, 90511, Control_c, 0, 64, 48
1, 90525, Control_c, 0, 64, 53
1, 90540, Control_c, 0, 64, 61
1, 90555, Control_c, 0, 64, 68
1, 90570, Control_c, 0, 64, 76
1, 90585, Control_c, 0, 64, 85
1, 90599, Control_c, 0, 64, 94
1, 90614, Control_c, 0, 64, 107
1, 90629, Control_c, 0, 64, 127
1, 90636, Note_off_c, 0, 61, 59
1, 90652, Note_off_c, 0, 49, 60
1, 90688, Control_c, 0, 67, 104
1, 90703, Control_c, 0, 67, 73
1, 90705, Note_off_c, 0, 52, 63
1, 90707, Note_off_c, 0, 46, 62
1, 90717, Control_c, 0, 67, 48
1, 90726, Note_off_c, 0, 43, 61
1, 90732, Control_c, 0, 67, 0
1, 90996, Note_on_c, 0, 61, 82
1, 91002, Note_on_c, 0, 49, 68
1, 91074, Control_c, 0, 67, 49
1, 91089, Control_c, 0, 67, 67
1, 91104, Control_c, 0, 67, 71
1, 91119, Control_c, 0, 67, 72
1, 91133, Control_c, 0, 67, 74
1, 91148, Control_c, 0, 64, 101
1, 91148, Control_c, 0, 67, 81
1, 91163, Control_c, 0, 64, 84
1, 91163, Control_c, 0, 67, 102
1, 91178, Control_c, 0, 64, 72
1, 91178, Control_c, 0, 67, 122
1, 91200, Control_c, 0, 64, 62
1, 91200, Control_c, 0, 67, 127
1, 91214, Control_c, 0, 64, 53
1, 91229, Control_c, 0, 64, 48
1, 91244, Control_c, 0, 64, 44
1, 91259, Control_c, 0, 64, 39
1, 91274, Control_c, 0, 64, 34
1, 91289, Control_c, 0, 64, 33
1, 91319, Control_c, 0, 64, 34
1, 91378, Control_c, 0, 64, 34
1, 91393, Control_c, 0, 64, 37
1, 91408, Control_c, 0, 64, 39
1, 91466, Control_c, 0, 64, 40
1, 91481, Control_c, 0, 64, 42
1, 91540, Control_c, 0, 64, 43
1, 91555, Control_c, 0, 64, 46
1, 91570, Control_c, 0, 64, 48
1, 91600, Control_c, 0, 64, 48
1, 91614, Control_c, 0, 64, 49
1, 91629, Control_c, 0, 64, 51
1, 91644, Note_on_c, 0, 53, 62
1, 91644, Control_c, 0, 64, 53
1, 91647, Note_on_c, 0, 46, 58
1, 91656, Note_on_c, 0, 44, 56
1, 91659, Control_c, 0, 64, 54
1, 91688, Control_c, 0, 64, 54
1, 91703, Control_c, 0, 64, 55
1, 91718, Control_c, 0, 64, 58
1, 91733, Control_c, 0, 64, 61
1, 91748, Control_c, 0, 64, 63
1, 91763, Control_c, 0, 64, 64
1, 91778, Control_c, 0, 64, 67
1, 91793, Control_c, 0, 64, 72
1, 91807, Control_c, 0, 64, 79
1, 91822, Control_c, 0, 64, 87
1, 91837, Control_c, 0, 64, 92
1, 91852, Control_c, 0, 64, 95
1, 91867, Control_c, 0, 64, 102
1, 91882, Control_c, 0, 64, 127
1, 91993, Control_c, 0, 67, 123
1, 92008, Control_c, 0, 67, 106
1, 92023, Control_c, 0, 67, 78
1, 92038, Control_c, 0, 67, 47
1, 92052, Control_c, 0, 67, 0
1, 92233, Note_off_c, 0, 53, 33
1, 92250, Note_off_c, 0, 44, 37
1, 92304, Control_c, 0, 67, 47
1, 92319, Control_c, 0, 67, 67
1, 92334, Control_c, 0, 67, 82
1, 92347, Note_off_c, 0, 46, 29
1, 92349, Control_c, 0, 67, 96
1, 92363, Control_c, 0, 67, 115
1, 92378, Control_c, 0, 67, 127
1, 92935, Note_on_c, 0, 46, 38
1, 92935, Note_on_c, 0, 52, 43
1, 92938, Note_on_c, 0, 43, 41
1, 92949, Control_c, 0, 64, 100
1, 92964, Control_c, 0, 64, 85
1, 92979, Control_c, 0, 64, 72
1, 92994, Control_c, 0, 64, 60
1, 93009, Control_c, 0, 64, 50
1, 93024, Control_c, 0, 64, 49
1, 93054, Control_c, 0, 64, 51
1, 93068, Control_c, 0, 64, 56
1, 93083, Control_c, 0, 64, 62
1, 93098, Control_c, 0, 64, 70
1, 93112, Control_c, 0, 64, 83
1, 93127, Control_c, 0, 64, 99
1, 93142, Control_c, 0, 64, 112
1, 93143, Note_off_c, 0, 52, 61
1, 93157, Control_c, 0, 64, 126
1, 93175, Note_off_c, 0, 46, 60
1, 93189, Note_off_c, 0, 43, 60
1, 93370, Note_off_c, 0, 61, 57
1, 93404, Note_off_c, 0, 49, 62
1, 93698, Control_c, 0, 64, 115
1, 93713, Control_c, 0, 64, 109
1, 93728, Control_c, 0, 64, 106
1, 93772, Control_c, 0, 64, 103
1, 93802, Control_c, 0, 64, 100
1, 93817, Control_c, 0, 64, 98
1, 93832, Control_c, 0, 64, 95
1, 93847, Control_c, 0, 64, 91
1, 93861, Control_c, 0, 64, 85
1, 93864, Note_on_c, 0, 25, 43
1, 93867, Note_on_c, 0, 37, 45
1, 93876, Control_c, 0, 64, 79
1, 93891, Control_c, 0, 64, 73
1, 93906, Control_c, 0, 64, 64
1, 93921, Control_c, 0, 64, 54
1, 93935, Control_c, 0, 64, 45
1, 93950, Control_c, 0, 64, 35
1, 93965, Control_c, 0, 64, 29
1, 93980, Control_c, 0, 64, 0
1, 93995, Control_c, 0, 64, 32
1, 94009, Control_c, 0, 64, 42
1, 94024, Control_c, 0, 64, 57
1, 94039, Control_c, 0, 64, 67
1, 94053, Control_c, 0, 64, 77
1, 94068, Control_c, 0, 64, 86
1, 94083, Control_c, 0, 64, 92
1, 94098, Control_c, 0, 64, 99
1, 94113, Control_c, 0, 64, 115
1, 94127, Control_c, 0, 64, 127
1, 94207, Note_off_c, 0, 37, 0
1, 94230, Note_on_c, 0, 37, 19
1, 94281, Note_off_c, 0, 37, 49
1, 94352, Note_on_c, 0, 37, 28
1, 94453, Note_on_c, 0, 52, 62
1, 94461, Note_off_c, 0, 37, 0
1, 94462, Note_on_c, 0, 43, 49
1, 94470, Note_on_c, 0, 46, 47
1, 94483, Note_on_c, 0, 37, 25
1, 94491, Note_off_c, 0, 43, 53
1, 94500, Note_off_c, 0, 46, 52
1, 94517, Note_off_c, 0, 52, 60
1, 94550, Note_off_c, 0, 25, 0
1, 94568, Note_on_c, 0, 25, 29
1, 94593, Note_on_c, 0, 53, 73
1, 94596, Note_off_c, 0, 37, 0
1, 94600, Note_on_c, 0, 49, 62
1, 94615, Note_on_c, 0, 44, 51
1, 94622, Note_on_c, 0, 37, 38
1, 94666, Note_off_c, 0, 44, 0
1, 94667, Note_off_c, 0, 25, 0
1, 94681, Note_on_c, 0, 25, 43
1, 94684, Control_c, 0, 64, 89
1, 94699, Control_c, 0, 64, 70
1, 94702, Poly_aftertouch_c, 0, 44, 127
1, 94706, Note_off_c, 0, 37, 0
1, 94713, Note_on_c, 0, 44, 3
1, 94714, Control_c, 0, 64, 57
1, 94729, Control_c, 0, 64, 48
1, 94744, Poly_aftertouch_c, 0, 37, 127
1, 94744, Control_c, 0, 64, 45
1, 94753, Note_on_c, 0, 37, 19
1, 94773, Control_c, 0, 64, 50
1, 94788, Control_c, 0, 64, 59
1, 94796, Note_off_c, 0, 25, 0
1, 94803, Note_off_c, 0, 37, 56
1, 94803, Control_c, 0, 64, 68
1, 94817, Note_on_c, 0, 25, 24
1, 94818, Control_c, 0, 64, 76
1, 94832, Control_c, 0, 64, 85
1, 94847, Control_c, 0, 64, 97
1, 94862, Control_c, 0, 64, 118
1, 94872, Note_on_c, 0, 37, 51
1, 94877, Control_c, 0, 64, 127
1, 94909, Note_off_c, 0, 25, 0
1, 94920, Note_off_c, 0, 37, 61
1, 94935, Note_on_c, 0, 25, 37
1, 94993, Note_on_c, 0, 37, 50
1, 95036, Note_off_c, 0, 25, 0
1, 95036, Note_off_c, 0, 37, 61
1, 95054, Note_on_c, 0, 25, 41
1, 95091, Note_off_c, 0, 53, 62
1, 95102, Note_off_c, 0, 25, 58
1, 95103, Note_on_c, 0, 37, 56
1, 95116, Note_off_c, 0, 44, 40
1, 95116, Note_off_c, 0, 49, 61
1, 95148, Note_off_c, 0, 37, 61
1, 95176, Note_on_c, 0, 25, 44
1, 95224, Note_off_c, 0, 25, 46
1, 95231, Note_on_c, 0, 37, 32
1, 95241, Control_c, 0, 67, 122
1, 95255, Control_c, 0, 67, 97
1, 95270, Control_c, 0, 67, 69
1, 95283, Note_off_c, 0, 37, 49
1, 95285, Control_c, 0, 67, 36
1, 95289, Note_on_c, 0, 25, 47
1, 95300, Control_c, 0, 67, 0
1, 95337, Note_off_c, 0, 25, 53
1, 95340, Note_on_c, 0, 37, 56
1, 95391, Note_off_c, 0, 37, 59
1, 95414, Note_on_c, 0, 25, 56
1, 95463, Note_off_c, 0, 25, 57
1, 95472, Note_on_c, 0, 37, 53
1, 95519, Note_off_c, 0, 37, 60
1, 95530, Note_on_c, 0, 55, 84
1, 95535, Note_on_c, 0, 46, 76
1, 95538, Note_on_c, 0, 49, 70
1, 95543, Note_on_c, 0, 25, 57
1, 95582, Note_off_c, 0, 49, 59
1, 95586, Note_off_c, 0, 46, 60
1, 95603, Note_off_c, 0, 25, 48
1, 95605, Note_on_c, 0, 37, 51
1, 95605, Note_off_c, 0, 55, 63
1, 95674, Note_off_c, 0, 37, 49
1, 95711, Note_on_c, 0, 56, 91
1, 95713, Note_on_c, 0, 49, 82
1, 95718, Note_on_c, 0, 25, 58
1, 95718, Note_on_c, 0, 47, 85
1, 95772, Note_off_c, 0, 25, 55
1, 95784, Note_on_c, 0, 37, 56
1, 95840, Control_c, 0, 64, 92
1, 95841, Note_off_c, 0, 37, 57
1, 95856, Control_c, 0, 64, 74
1, 95858, Note_on_c, 0, 25, 63
1, 95871, Control_c, 0, 64, 60
1, 95885, Control_c, 0, 64, 52
1, 95900, Control_c, 0, 64, 49
1, 95906, Note_off_c, 0, 25, 62
1, 95912, Note_on_c, 0, 37, 44
1, 95915, Control_c, 0, 64, 48
1, 95945, Control_c, 0, 64, 49
1, 95945, Control_c, 0, 67, 78
1, 95960, Control_c, 0, 64, 49
1, 95960, Control_c, 0, 67, 115
1, 95968, Note_off_c, 0, 37, 58
1, 95975, Control_c, 0, 64, 50
1, 95975, Control_c, 0, 67, 121
1, 95990, Control_c, 0, 64, 54
1, 95996, Note_on_c, 0, 25, 37
1, 96004, Control_c, 0, 64, 55
1, 96004, Control_c, 0, 67, 126
1, 96030, Note_on_c, 0, 37, 40
1, 96034, Control_c, 0, 64, 54
1, 96035, Note_off_c, 0, 25, 42
1, 96049, Control_c, 0, 64, 54
1, 96064, Control_c, 0, 64, 54
1, 96078, Note_off_c, 0, 37, 62
1, 96079, Control_c, 0, 64, 55
1, 96094, Control_c, 0, 64, 58
1, 96109, Control_c, 0, 64, 61
1, 96113, Note_on_c, 0, 25, 53
1, 96124, Control_c, 0, 64, 64
1, 96138, Control_c, 0, 64, 68
1, 96148, Note_off_c, 0, 25, 56
1, 96153, Control_c, 0, 64, 79
1, 96160, Note_on_c, 0, 37, 62
1, 96168, Control_c, 0, 64, 104
1, 96183, Control_c, 0, 64, 127
1, 96207, Note_off_c, 0, 37, 61
1, 96230, Note_on_c, 0, 25, 55
1, 96282, Note_off_c, 0, 25, 45
1, 96287, Note_on_c, 0, 37, 58
1, 96335, Note_off_c, 0, 37, 51
1, 96353, Note_on_c, 0, 25, 44
1, 96397, Note_off_c, 0, 25, 51
1, 96401, Note_on_c, 0, 37, 50
1, 96454, Note_off_c, 0, 37, 53
1, 96531, Note_off_c, 0, 56, 61
1, 96551, Note_on_c, 0, 37, 39
1, 96580, Note_off_c, 0, 47, 60
1, 96612, Note_off_c, 0, 37, 47
1, 96647, Note_on_c, 0, 25, 31
1, 96690, Note_on_c, 0, 37, 48
1, 96696, Note_off_c, 0, 25, 51
1, 96752, Note_off_c, 0, 37, 60
1, 96777, Note_on_c, 0, 25, 44
1, 96830, Note_off_c, 0, 25, 45
1, 96837, Note_on_c, 0, 37, 49
1, 96889, Note_off_c, 0, 37, 53
1, 96938, Note_on_c, 0, 25, 40
1, 96990, Note_off_c, 0, 25, 45
1, 97021, Note_on_c, 0, 37, 46
1, 97027, Note_on_c, 0, 55, 74
1, 97033, Note_on_c, 0, 46, 67
1, 97064, Control_c, 0, 64, 108
1, 97066, Note_off_c, 0, 37, 61
1, 97078, Control_c, 0, 64, 83
1, 97084, Note_on_c, 0, 25, 49
1, 97093, Control_c, 0, 64, 66
1, 97108, Control_c, 0, 64, 51
1, 97123, Control_c, 0, 64, 37
1, 97137, Note_off_c, 0, 25, 44
1, 97138, Control_c, 0, 64, 0
1, 97159, Note_on_c, 0, 37, 47
1, 97190, Control_c, 0, 64, 29
1, 97204, Control_c, 0, 64, 41
1, 97218, Note_off_c, 0, 37, 59
1, 97219, Control_c, 0, 64, 54
1, 97234, Control_c, 0, 64, 65
1, 97248, Note_on_c, 0, 25, 44
1, 97249, Control_c, 0, 64, 74
1, 97264, Control_c, 0, 64, 79
1, 97278, Control_c, 0, 64, 81
1, 97293, Control_c, 0, 64, 84
1, 97294, Note_off_c, 0, 25, 46
1, 97307, Note_on_c, 0, 37, 55
1, 97308, Control_c, 0, 64, 87
1, 97323, Control_c, 0, 64, 90
1, 97338, Control_c, 0, 64, 93
1, 97341, Note_off_c, 0, 46, 60
1, 97352, Control_c, 0, 64, 94
1, 97357, Note_off_c, 0, 37, 60
1, 97367, Control_c, 0, 64, 95
1, 97370, Note_off_c, 0, 49, 59
1, 97382, Control_c, 0, 64, 96
1, 97403, Note_on_c, 0, 25, 35
1, 97427, Control_c, 0, 64, 98
1, 97451, Note_off_c, 0, 25, 40
1, 97454, Note_on_c, 0, 37, 47
1, 97472, Control_c, 0, 64, 100
1, 97504, Note_off_c, 0, 37, 54
1, 97540, Note_on_c, 0, 25, 56
1, 97549, Note_on_c, 0, 54, 72
1, 97558, Note_on_c, 0, 49, 61
1, 97561, Control_c, 0, 64, 95
1, 97566, Note_on_c, 0, 45, 51
1, 97576, Control_c, 0, 64, 82
1, 97591, Control_c, 0, 64, 66
1, 97599, Note_off_c, 0, 25, 48
1, 97605, Control_c, 0, 64, 53
1, 97620, Note_on_c, 0, 37, 38
1, 97620, Control_c, 0, 64, 43
1, 97635, Control_c, 0, 64, 40
1, 97650, Control_c, 0, 64, 39
1, 97665, Control_c, 0, 64, 44
1, 97665, Note_off_c, 0, 37, 61
1, 97667, Note_off_c, 0, 55, 56
1, 97680, Control_c, 0, 64, 54
1, 97695, Control_c, 0, 64, 65
1, 97695, Note_on_c, 0, 25, 31
1, 97709, Control_c, 0, 64, 74
1, 97724, Control_c, 0, 64, 83
1, 97739, Note_off_c, 0, 25, 48
1, 97739, Control_c, 0, 64, 89
1, 97747, Note_on_c, 0, 37, 53
1, 97754, Control_c, 0, 64, 95
1, 97769, Control_c, 0, 64, 109
1, 97783, Control_c, 0, 64, 127
1, 97785, Note_off_c, 0, 45, 58
1, 97798, Note_off_c, 0, 37, 60
1, 97818, Note_off_c, 0, 54, 63
1, 97839, Note_on_c, 0, 25, 38
1, 97877, Note_off_c, 0, 25, 46
1, 97908, Note_on_c, 0, 37, 19
1, 97967, Note_off_c, 0, 37, 47
1, 98058, Note_on_c, 0, 53, 69
1, 98061, Note_on_c, 0, 37, 63
1, 98062, Poly_aftertouch_c, 0, 25, 127
1, 98079, Note_on_c, 0, 44, 52
1, 98112, Note_off_c, 0, 37, 56
1, 98130, Poly_aftertouch_c, 0, 25, 0
1, 98153, Note_on_c, 0, 25, 12
1, 98181, Note_off_c, 0, 49, 60
1, 98190, Control_c, 0, 64, 120
1, 98191, Note_on_c, 0, 37, 50
1, 98200, Note_off_c, 0, 25, 42
1, 98205, Control_c, 0, 64, 108
1, 98220, Control_c, 0, 64, 103
1, 98231, Note_off_c, 0, 44, 46
1, 98234, Control_c, 0, 64, 100
1, 98246, Note_off_c, 0, 37, 57
1, 98250, Control_c, 0, 64, 97
1, 98265, Control_c, 0, 64, 95
1, 98270, Note_on_c, 0, 25, 40
1, 98280, Control_c, 0, 64, 93
1, 98295, Control_c, 0, 64, 91
1, 98310, Control_c, 0, 64, 90
1, 98318, Note_off_c, 0, 25, 43
1, 98324, Note_on_c, 0, 37, 41
1, 98324, Control_c, 0, 64, 89
1, 98339, Control_c, 0, 64, 88
1, 98354, Control_c, 0, 64, 86
1, 98369, Control_c, 0, 64, 85
1, 98384, Control_c, 0, 64, 84
1, 98399, Note_on_c, 0, 25, 39
1, 98416, Note_off_c, 0, 37, 0
1, 98428, Control_c, 0, 64, 83
1, 98434, Note_off_c, 0, 25, 51
1, 98443, Control_c, 0, 64, 83
1, 98458, Control_c, 0, 64, 82
1, 98473, Control_c, 0, 64, 82
1, 98503, Control_c, 0, 64, 81
1, 98518, Control_c, 0, 64, 80
1, 98532, Control_c, 0, 64, 80
1, 98538, Note_on_c, 0, 25, 45
1, 98553, Poly_aftertouch_c, 0, 37, 0
1, 98562, Control_c, 0, 64, 79
1, 98568, Note_on_c, 0, 46, 59
1, 98569, Note_on_c, 0, 52, 68
1, 98577, Note_on_c, 0, 43, 46
1, 98577, Control_c, 0, 64, 79
1, 98592, Control_c, 0, 64, 77
1, 98606, Control_c, 0, 64, 74
1, 98621, Control_c, 0, 64, 71
1, 98636, Control_c, 0, 64, 67
1, 98650, Control_c, 0, 64, 65
1, 98663, Note_off_c, 0, 53, 35
1, 98665, Control_c, 0, 64, 62
1, 98687, Control_c, 0, 64, 58
1, 98702, Control_c, 0, 64, 55
1, 98717, Control_c, 0, 64, 53
1, 98732, Control_c, 0, 64, 51
1, 98747, Control_c, 0, 64, 50
1, 98762, Control_c, 0, 64, 47
1, 98777, Control_c, 0, 64, 44
1, 98792, Control_c, 0, 64, 41
1, 98796, Poly_aftertouch_c, 0, 37, 0
1, 98806, Control_c, 0, 64, 40
1, 98910, Control_c, 0, 64, 40
1, 98924, Control_c, 0, 64, 39
1, 98939, Control_c, 0, 64, 39
1, 99029, Note_off_c, 0, 25, 30
1, 99119, Control_c, 0, 64, 39
1, 99128, Note_on_c, 0, 51, 65
1, 99134, Control_c, 0, 64, 40
1, 99169, Note_off_c, 0, 52, 62
1, 99208, Control_c, 0, 64, 40
1, 99270, Note_off_c, 0, 46, 62
1, 99281, Control_c, 0, 64, 41
1, 99296, Control_c, 0, 64, 42
1, 99319, Note_off_c, 0, 43, 60
1, 99355, Control_c, 0, 64, 43
1, 99370, Control_c, 0, 64, 44
1, 99452, Control_c, 0, 64, 44
1, 99511, Control_c, 0, 64, 45
1, 99541, Control_c, 0, 64, 45
1, 99645, Note_on_c, 0, 50, 58
1, 99659, Note_on_c, 0, 45, 46
1, 99666, Note_on_c, 0, 42, 42
1, 99740, Note_off_c, 0, 51, 38
1, 99793, Control_c, 0, 64, 46
1, 99853, Control_c, 0, 64, 46
1, 99927, Control_c, 0, 64, 47
1, 99942, Control_c, 0, 64, 47
1, 99986, Control_c, 0, 64, 48
1, 100001, Control_c, 0, 64, 48
1, 100075, Control_c, 0, 64, 49
1, 100104, Control_c, 0, 64, 49
1, 100186, Control_c, 0, 64, 50
1, 100285, Note_on_c, 0, 49, 55
1, 100294, Note_off_c, 0, 50, 58
1, 100408, Control_c, 0, 64, 50
1, 100482, Note_off_c, 0, 45, 43
1, 100506, Note_off_c, 0, 42, 57
1, 100570, Control_c, 0, 64, 51
1, 100978, Control_c, 0, 64, 51
1, 101007, Control_c, 0, 64, 52
1, 101060, Note_on_c, 0, 44, 39
1, 101066, Control_c, 0, 64, 52
1, 101067, Note_on_c, 0, 41, 31
1, 101081, Control_c, 0, 64, 53
1, 101096, Control_c, 0, 64, 53
1, 101141, Control_c, 0, 64, 54
1, 101156, Control_c, 0, 64, 55
1, 101171, Control_c, 0, 64, 55
1, 101200, Control_c, 0, 64, 56
1, 101215, Control_c, 0, 64, 56
1, 101230, Control_c, 0, 64, 58
1, 101245, Control_c, 0, 64, 60
1, 101259, Control_c, 0, 64, 62
1, 101274, Control_c, 0, 64, 62
1, 101304, Control_c, 0, 64, 63
1, 101319, Control_c, 0, 64, 65
1, 101333, Control_c, 0, 64, 68
1, 101348, Control_c, 0, 64, 71
1, 101363, Control_c, 0, 64, 73
1, 101377, Control_c, 0, 64, 74
1, 101392, Control_c, 0, 64, 75
1, 101407, Control_c, 0, 64, 77
1, 101422, Control_c, 0, 64, 78
1, 101437, Control_c, 0, 64, 78
1, 101453, Control_c, 0, 64, 79
1, 101467, Control_c, 0, 64, 81
1, 101482, Control_c, 0, 64, 82
1, 101497, Control_c, 0, 64, 83
1, 101512, Control_c, 0, 64, 84
1, 101527, Control_c, 0, 64, 85
1, 101541, Control_c, 0, 64, 85
1, 101556, Control_c, 0, 64, 86
1, 101571, Control_c, 0, 64, 88
1, 101586, Control_c, 0, 64, 89
1, 101601, Control_c, 0, 64, 90
1, 101615, Control_c, 0, 64, 91
1, 101630, Control_c, 0, 64, 92
1, 101645, Control_c, 0, 64, 94
1, 101660, Control_c, 0, 64, 95
1, 101697, Control_c, 0, 64, 98
1, 101727, Control_c, 0, 64, 101
1, 101742, Control_c, 0, 64, 103
1, 101756, Control_c, 0, 64, 105
1, 101786, Control_c, 0, 64, 107
1, 102082, Note_off_c, 0, 41, 41
1, 102082, Control_c, 0, 64, 104
1, 102127, Control_c, 0, 64, 102
1, 102156, Control_c, 0, 64, 98
1, 102171, Control_c, 0, 64, 95
1, 102186, Control_c, 0, 64, 92
1, 102200, Control_c, 0, 64, 91
1, 102215, Control_c, 0, 64, 89
1, 102216, Note_off_c, 0, 44, 36
1, 102230, Control_c, 0, 64, 86
1, 102246, Control_c, 0, 64, 84
1, 102261, Control_c, 0, 64, 81
1, 102276, Control_c, 0, 64, 80
1, 102291, Control_c, 0, 64, 79
1, 102305, Control_c, 0, 64, 78
1, 102320, Control_c, 0, 64, 76
1, 102335, Control_c, 0, 64, 73
1, 102350, Control_c, 0, 64, 71
1, 102364, Control_c, 0, 64, 69
1, 102379, Control_c, 0, 64, 67
1, 102394, Control_c, 0, 64, 64
1, 102409, Control_c, 0, 64, 62
1, 102431, Control_c, 0, 64, 60
1, 102446, Control_c, 0, 64, 58
1, 102476, Control_c, 0, 64, 58
1, 102491, Control_c, 0, 64, 57
1, 102505, Control_c, 0, 64, 57
1, 102550, Control_c, 0, 64, 56
1, 102565, Control_c, 0, 64, 56
1, 102579, Control_c, 0, 64, 55
1, 102594, Control_c, 0, 64, 54
1, 102609, Control_c, 0, 64, 54
1, 102668, Control_c, 0, 64, 53
1, 102683, Control_c, 0, 64, 54
1, 102772, Control_c, 0, 64, 54
1, 102846, Control_c, 0, 64, 55
1, 102920, Control_c, 0, 64, 55
1, 102995, Control_c, 0, 64, 56
1, 103010, Control_c, 0, 64, 56
1, 103181, Control_c, 0, 64, 57
1, 103418, Control_c, 0, 64, 57
1, 103576, Note_on_c, 0, 40, 37
1, 103577, Note_on_c, 0, 46, 35
1, 103580, Control_c, 0, 64, 58
1, 103585, Note_on_c, 0, 43, 33
1, 103743, Control_c, 0, 64, 58
1, 103877, Control_c, 0, 64, 59
1, 103973, Control_c, 0, 64, 59
1, 104032, Control_c, 0, 64, 60
1, 104047, Control_c, 0, 64, 60
1, 104107, Control_c, 0, 64, 61
1, 104122, Control_c, 0, 64, 61
1, 104137, Control_c, 0, 64, 62
1, 104195, Control_c, 0, 64, 63
1, 104210, Control_c, 0, 64, 63
1, 104225, Control_c, 0, 64, 64
1, 104240, Control_c, 0, 64, 65
1, 104269, Control_c, 0, 64, 65
1, 104284, Control_c, 0, 64, 66
1, 104299, Control_c, 0, 64, 67
1, 104314, Control_c, 0, 64, 69
1, 104329, Control_c, 0, 64, 71
1, 104343, Control_c, 0, 64, 72
1, 104373, Control_c, 0, 64, 72
1, 104387, Control_c, 0, 64, 73
1, 104402, Control_c, 0, 64, 74
1, 104417, Control_c, 0, 64, 76
1, 104432, Control_c, 0, 64, 78
1, 104447, Control_c, 0, 64, 79
1, 104462, Control_c, 0, 64, 81
1, 104476, Control_c, 0, 64, 82
1, 104491, Control_c, 0, 64, 83
1, 104506, Control_c, 0, 64, 85
1, 104521, Control_c, 0, 64, 86
1, 104536, Control_c, 0, 64, 88
1, 104551, Control_c, 0, 64, 89
1, 104566, Control_c, 0, 64, 90
1, 104581, Control_c, 0, 64, 92
1, 104595, Control_c, 0, 64, 93
1, 104610, Control_c, 0, 64, 94
1, 104625, Control_c, 0, 64, 95
1, 104655, Control_c, 0, 64, 98
1, 104678, Control_c, 0, 64, 100
1, 104692, Control_c, 0, 64, 103
1, 104707, Control_c, 0, 64, 107
1, 104722, Control_c, 0, 64, 110
1, 104737, Control_c, 0, 64, 115
1, 104752, Control_c, 0, 64, 127
1, 105833, Note_off_c, 0, 40, 35
1, 105959, Note_off_c, 0, 46, 37
1, 106063, Note_off_c, 0, 49, 31
1, 106089, Note_off_c, 0, 43, 23
1, 107088, Control_c, 0, 64, 116
1, 107103, Control_c, 0, 64, 113
1, 107132, Control_c, 0, 64, 111
1, 107147, Control_c, 0, 64, 109
1, 107162, Control_c, 0, 64, 107
1, 107221, Control_c, 0, 64, 105
1, 107236, Control_c, 0, 64, 103
1, 107265, Control_c, 0, 64, 101
1, 107339, Control_c, 0, 64, 99
1, 107398, Control_c, 0, 64, 95
1, 107413, Control_c, 0, 64, 94
1, 107428, Control_c, 0, 64, 93
1, 107457, Control_c, 0, 64, 93
1, 107472, Control_c, 0, 64, 92
1, 107487, Control_c, 0, 64, 90
1, 107502, Control_c, 0, 64, 88
1, 107517, Control_c, 0, 64, 87
1, 107532, Control_c, 0, 64, 87
1, 107547, Control_c, 0, 64, 86
1, 107561, Control_c, 0, 64, 84
1, 107576, Control_c, 0, 64, 82
1, 107591, Control_c, 0, 64, 80
1, 107605, Control_c, 0, 64, 80
1, 107635, Control_c, 0, 64, 79
1, 107650, Control_c, 0, 64, 78
1, 107672, Control_c, 0, 64, 76
1, 107687, Control_c, 0, 64, 75
1, 107702, Control_c, 0, 64, 74
1, 107717, Control_c, 0, 64, 73
1, 107732, Control_c, 0, 64, 72
1, 107746, Control_c, 0, 64, 70
1, 107761, Control_c, 0, 64, 68
1, 107776, Control_c, 0, 64, 68
1, 107806, Control_c, 0, 64, 67
1, 107820, Control_c, 0, 64, 66
1, 107835, Control_c, 0, 64, 65
1, 107866, Control_c, 0, 64, 65
1, 107896, Control_c, 0, 64, 64
1, 107910, Control_c, 0, 64, 63
1, 107925, Control_c, 0, 64, 63
1, 107985, Control_c, 0, 64, 62
1, 107999, Control_c, 0, 64, 61
1, 108014, Control_c, 0, 64, 61
1, 108058, Control_c, 0, 64, 60
1, 108073, Control_c, 0, 64, 58
1, 108088, Control_c, 0, 64, 56
1, 108103, Control_c, 0, 64, 56
1, 108147, Control_c, 0, 64, 55
1, 108250, Control_c, 0, 64, 55
1, 108265, Control_c, 0, 64, 57
1, 108280, Control_c, 0, 64, 59
1, 108325, Control_c, 0, 64, 59
1, 108340, Control_c, 0, 64, 61
1, 108354, Control_c, 0, 64, 63
1, 108369, Control_c, 0, 64, 66
1, 108384, Control_c, 0, 64, 68
1, 108399, Control_c, 0, 64, 70
1, 108421, Control_c, 0, 64, 71
1, 108435, Control_c, 0, 64, 74
1, 108450, Control_c, 0, 64, 76
1, 108465, Control_c, 0, 64, 78
1, 108480, Control_c, 0, 64, 80
1, 108495, Control_c, 0, 64, 81
1, 108510, Control_c, 0, 64, 82
1, 108524, Control_c, 0, 64, 83
1, 108539, Control_c, 0, 64, 84
1, 108554, Control_c, 0, 64, 85
1, 108569, Control_c, 0, 64, 87
1, 108584, Control_c, 0, 64, 89
1, 108599, Control_c, 0, 64, 91
1, 108614, Control_c, 0, 64, 93
1, 108629, Control_c, 0, 64, 95
1, 108659, Control_c, 0, 64, 98
1, 108674, Control_c, 0, 64, 100
1, 108688, Control_c, 0, 64, 103
1, 108703, Control_c, 0, 64, 105
1, 108718, Control_c, 0, 64, 109
1, 108733, Control_c, 0, 64, 113
1, 108748, Control_c, 0, 64, 119
1, 108763, Control_c, 0, 64, 127
1, 109791, Note_on_c, 0, 36, 40
1, 109928, Note_off_c, 0, 36, 34
1, 110027, Note_on_c, 0, 44, 55
1, 110053, Control_c, 0, 64, 103
1, 110068, Control_c, 0, 64, 92
1, 110082, Control_c, 0, 64, 82
1, 110097, Control_c, 0, 64, 72
1, 110112, Control_c, 0, 64, 63
1, 110127, Control_c, 0, 64, 56
1, 110141, Control_c, 0, 64, 53
1, 110156, Control_c, 0, 64, 51
1, 110171, Control_c, 0, 64, 48
1, 110186, Control_c, 0, 64, 44
1, 110201, Control_c, 0, 64, 43
1, 110231, Control_c, 0, 64, 44
1, 110246, Control_c, 0, 64, 45
1, 110320, Control_c, 0, 64, 45
1, 110364, Control_c, 0, 64, 46
1, 110379, Control_c, 0, 64, 47
1, 110394, Control_c, 0, 64, 50
1, 110409, Control_c, 0, 64, 51
1, 110424, Control_c, 0, 64, 51
1, 110453, Control_c, 0, 64, 51
1, 110468, Control_c, 0, 64, 52
1, 110483, Control_c, 0, 64, 53
1, 110631, Control_c, 0, 64, 53
1, 110757, Note_on_c, 0, 56, 42
1, 110759, Note_on_c, 0, 60, 48
1, 110761, Note_on_c, 0, 48, 42
1, 110763, Note_on_c, 0, 53, 40
1, 110787, Control_c, 0, 64, 54
1, 110950, Control_c, 0, 64, 54
1, 111008, Note_off_c, 0, 44, 53
1, 111024, Control_c, 0, 64, 55
1, 111103, Note_on_c, 0, 43, 45
1, 111143, Control_c, 0, 64, 54
1, 111232, Control_c, 0, 64, 54
1, 111252, Note_on_c, 0, 41, 58
1, 111303, Note_off_c, 0, 43, 33
1, 111306, Control_c, 0, 64, 53
1, 111380, Control_c, 0, 64, 53
1, 111437, Note_on_c, 0, 40, 49
1, 111459, Note_off_c, 0, 60, 56
1, 111468, Note_off_c, 0, 48, 58
1, 111471, Note_off_c, 0, 53, 62
1, 111479, Note_off_c, 0, 56, 63
1, 111482, Note_off_c, 0, 41, 37
1, 111521, Control_c, 0, 64, 52
1, 111654, Control_c, 0, 64, 53
1, 112110, Note_on_c, 0, 56, 36
1, 112121, Note_on_c, 0, 60, 44
1, 112122, Note_on_c, 0, 52, 45
1, 112128, Control_c, 0, 64, 53
1, 112131, Note_on_c, 0, 48, 48
1, 112442, Note_on_c, 0, 39, 55
1, 112446, Note_off_c, 0, 40, 37
1, 112597, Note_on_c, 0, 37, 56
1, 112622, Note_off_c, 0, 39, 36
1, 112730, Control_c, 0, 64, 53
1, 112766, Note_on_c, 0, 36, 48
1, 112782, Note_off_c, 0, 37, 36
1, 112792, Note_off_c, 0, 52, 43
1, 112805, Note_off_c, 0, 48, 58
1, 112807, Note_off_c, 0, 60, 59
1, 112814, Note_off_c, 0, 56, 63
1, 113419, Note_on_c, 0, 60, 44
1, 113422, Note_on_c, 0, 56, 42
1, 113428, Note_on_c, 0, 53, 39
1, 113446, Note_on_c, 0, 48, 38
1, 113609, Note_off_c, 0, 53, 54
1, 113612, Note_off_c, 0, 56, 59
1, 113613, Note_off_c, 0, 60, 58
1, 113634, Note_off_c, 0, 48, 38
1, 113906, Note_on_c, 0, 56, 41
1, 113907, Note_on_c, 0, 53, 41
1, 113914, Note_on_c, 0, 60, 43
1, 113921, Note_on_c, 0, 48, 42
1, 113977, Note_off_c, 0, 60, 54
1, 113979, Note_off_c, 0, 48, 54
1, 113980, Note_off_c, 0, 56, 56
1, 113983, Note_off_c, 0, 53, 57
1, 114084, Note_on_c, 0, 56, 46
1, 114086, Note_on_c, 0, 48, 48
1, 114087, Note_on_c, 0, 60, 42
1, 114090, Note_on_c, 0, 53, 37
1, 114432, Note_on_c, 0, 37, 58
1, 114462, Note_off_c, 0, 36, 47
1, 114633, Control_c, 0, 64, 52
1, 114707, Control_c, 0, 64, 52
1, 114764, Note_on_c, 0, 40, 60
1, 114784, Note_off_c, 0, 53, 60
1, 114791, Note_off_c, 0, 48, 42
1, 114791, Note_off_c, 0, 60, 62
1, 114792, Note_off_c, 0, 56, 63
1, 114859, Note_off_c, 0, 37, 59
1, 114870, Control_c, 0, 64, 51
1, 115190, Control_c, 0, 64, 51
1, 115257, Note_on_c, 0, 41, 57
1, 115279, Control_c, 0, 64, 50
1, 115306, Note_off_c, 0, 40, 61
1, 115397, Control_c, 0, 64, 51
1, 115452, Note_on_c, 0, 44, 59
1, 115516, Control_c, 0, 64, 50
1, 115531, Note_off_c, 0, 41, 63
1, 115560, Control_c, 0, 64, 51
1, 115634, Control_c, 0, 64, 51
1, 115679, Control_c, 0, 64, 52
1, 115708, Control_c, 0, 64, 52
1, 115723, Control_c, 0, 64, 53
1, 115783, Control_c, 0, 64, 53
1, 115798, Control_c, 0, 64, 55
1, 115813, Control_c, 0, 64, 55
1, 115858, Control_c, 0, 64, 56
1, 115872, Control_c, 0, 64, 57
1, 115887, Control_c, 0, 64, 59
1, 115969, Control_c, 0, 64, 59
1, 115983, Control_c, 0, 64, 60
1, 115998, Control_c, 0, 64, 59
1, 116043, Control_c, 0, 64, 60
1, 116057, Control_c, 0, 64, 60
1, 116102, Control_c, 0, 64, 61
1, 116117, Control_c, 0, 64, 61
1, 116132, Control_c, 0, 64, 62
1, 116147, Control_c, 0, 64, 65
1, 116155, Note_on_c, 0, 56, 42
1, 116162, Control_c, 0, 64, 67
1, 116167, Note_on_c, 0, 53, 42
1, 116168, Note_on_c, 0, 60, 45
1, 116172, Note_on_c, 0, 48, 42
1, 116176, Control_c, 0, 64, 70
1, 116191, Control_c, 0, 64, 72
1, 116206, Control_c, 0, 64, 75
1, 116221, Control_c, 0, 64, 79
1, 116236, Control_c, 0, 64, 85
1, 116250, Control_c, 0, 64, 90
1, 116265, Control_c, 0, 64, 94
1, 116280, Control_c, 0, 64, 97
1, 116295, Control_c, 0, 64, 100
1, 116309, Control_c, 0, 64, 103
1, 116356, Note_off_c, 0, 44, 51
1, 116480, Note_on_c, 0, 43, 59
1, 116516, Control_c, 0, 64, 101
1, 116546, Control_c, 0, 64, 96
1, 116561, Control_c, 0, 64, 92
1, 116576, Control_c, 0, 64, 90
1, 116591, Control_c, 0, 64, 89
1, 116606, Control_c, 0, 64, 87
1, 116621, Control_c, 0, 64, 85
1, 116625, Note_on_c, 0, 41, 62
1, 116636, Control_c, 0, 64, 81
1, 116659, Control_c, 0, 64, 78
1, 116673, Control_c, 0, 64, 75
1, 116685, Note_off_c, 0, 43, 58
1, 116688, Control_c, 0, 64, 72
1, 116703, Control_c, 0, 64, 69
1, 116718, Control_c, 0, 64, 64
1, 116733, Control_c, 0, 64, 60
1, 116747, Control_c, 0, 64, 57
1, 116762, Control_c, 0, 64, 55
1, 116777, Control_c, 0, 64, 54
1, 116792, Control_c, 0, 64, 50
1, 116806, Control_c, 0, 64, 45
1, 116821, Control_c, 0, 64, 42
1, 116828, Note_on_c, 0, 40, 65
1, 116836, Control_c, 0, 64, 40
1, 116841, Note_off_c, 0, 60, 55
1, 116844, Note_off_c, 0, 48, 59
1, 116854, Note_off_c, 0, 53, 63
1, 116866, Note_off_c, 0, 56, 62
1, 116866, Control_c, 0, 64, 40
1, 116880, Control_c, 0, 64, 39
1, 116895, Control_c, 0, 64, 38
1, 116905, Note_off_c, 0, 41, 39
1, 116910, Control_c, 0, 64, 37
1, 116925, Control_c, 0, 64, 38
1, 116940, Control_c, 0, 64, 38
1, 116969, Control_c, 0, 64, 39
1, 116999, Control_c, 0, 64, 41
1, 117014, Control_c, 0, 64, 43
1, 117073, Control_c, 0, 64, 43
1, 117088, Control_c, 0, 64, 46
1, 117103, Control_c, 0, 64, 47
1, 117162, Control_c, 0, 64, 48
1, 117177, Control_c, 0, 64, 49
1, 117192, Control_c, 0, 64, 50
1, 117221, Control_c, 0, 64, 50
1, 117236, Control_c, 0, 64, 51
1, 117251, Control_c, 0, 64, 54
1, 117266, Control_c, 0, 64, 56
1, 117310, Control_c, 0, 64, 56
1, 117324, Control_c, 0, 64, 57
1, 117339, Control_c, 0, 64, 59
1, 117354, Control_c, 0, 64, 62
1, 117369, Control_c, 0, 64, 63
1, 117384, Control_c, 0, 64, 64
1, 117406, Control_c, 0, 64, 65
1, 117422, Control_c, 0, 64, 66
1, 117437, Control_c, 0, 64, 68
1, 117452, Control_c, 0, 64, 70
1, 117467, Control_c, 0, 64, 71
1, 117496, Control_c, 0, 64, 72
1, 117511, Control_c, 0, 64, 73
1, 117516, Note_on_c, 0, 56, 40
1, 117526, Note_on_c, 0, 60, 44
1, 117526, Control_c, 0, 64, 76
1, 117529, Note_on_c, 0, 52, 42
1, 117533, Note_on_c, 0, 48, 44
1, 117541, Control_c, 0, 64, 78
1, 117555, Control_c, 0, 64, 80
1, 117570, Control_c, 0, 64, 82
1, 117585, Control_c, 0, 64, 83
1, 117600, Control_c, 0, 64, 85
1, 117615, Control_c, 0, 64, 87
1, 117629, Control_c, 0, 64, 88
1, 117644, Control_c, 0, 64, 89
1, 117659, Control_c, 0, 64, 89
1, 117688, Note_off_c, 0, 40, 49
1, 117836, Control_c, 0, 64, 89
1, 117843, Note_on_c, 0, 39, 58
1, 117851, Control_c, 0, 64, 88
1, 117866, Control_c, 0, 64, 88
1, 117881, Control_c, 0, 64, 87
1, 117895, Control_c, 0, 64, 86
1, 117910, Control_c, 0, 64, 84
1, 117925, Control_c, 0, 64, 81
1, 117940, Control_c, 0, 64, 78
1, 117954, Control_c, 0, 64, 77
1, 117969, Control_c, 0, 64, 75
1, 117984, Control_c, 0, 64, 73
1, 117989, Note_on_c, 0, 37, 63
1, 117999, Control_c, 0, 64, 70
1, 118014, Control_c, 0, 64, 65
1, 118028, Control_c, 0, 64, 62
1, 118040, Note_off_c, 0, 39, 32
1, 118043, Control_c, 0, 64, 60
1, 118058, Control_c, 0, 64, 58
1, 118072, Control_c, 0, 64, 56
1, 118087, Control_c, 0, 64, 53
1, 118102, Control_c, 0, 64, 50
1, 118117, Control_c, 0, 64, 48
1, 118132, Control_c, 0, 64, 46
1, 118154, Control_c, 0, 64, 44
1, 118169, Control_c, 0, 64, 42
1, 118182, Note_on_c, 0, 36, 57
1, 118184, Control_c, 0, 64, 39
1, 118199, Control_c, 0, 64, 38
1, 118205, Note_off_c, 0, 52, 61
1, 118210, Note_off_c, 0, 48, 62
1, 118222, Note_off_c, 0, 60, 60
1, 118230, Note_off_c, 0, 56, 63
1, 118242, Note_off_c, 0, 37, 60
1, 118259, Control_c, 0, 64, 37
1, 118289, Control_c, 0, 64, 38
1, 118304, Control_c, 0, 64, 39
1, 118363, Control_c, 0, 64, 39
1, 118377, Control_c, 0, 64, 41
1, 118392, Control_c, 0, 64, 42
1, 118451, Control_c, 0, 64, 42
1, 118466, Control_c, 0, 64, 43
1, 118526, Control_c, 0, 64, 44
1, 118541, Control_c, 0, 64, 45
1, 118556, Control_c, 0, 64, 45
1, 118615, Control_c, 0, 64, 46
1, 118630, Control_c, 0, 64, 46
1, 118778, Control_c, 0, 64, 47
1, 118874, Note_on_c, 0, 56, 43
1, 118874, Note_on_c, 0, 60, 47
1, 118879, Note_on_c, 0, 53, 43
1, 118885, Note_on_c, 0, 48, 43
1, 119023, Control_c, 0, 64, 47
1, 119038, Control_c, 0, 64, 48
1, 119082, Note_off_c, 0, 48, 62
1, 119088, Note_off_c, 0, 60, 62
1, 119089, Note_off_c, 0, 53, 62
1, 119094, Note_off_c, 0, 56, 63
1, 119113, Control_c, 0, 64, 48
1, 119187, Control_c, 0, 64, 49
1, 119371, Note_on_c, 0, 56, 42
1, 119384, Note_on_c, 0, 60, 48
1, 119384, Note_on_c, 0, 53, 47
1, 119389, Note_on_c, 0, 48, 50
1, 119442, Note_off_c, 0, 48, 56
1, 119448, Note_off_c, 0, 53, 57
1, 119450, Note_off_c, 0, 60, 52
1, 119454, Note_off_c, 0, 56, 57
1, 119542, Control_c, 0, 64, 48
1, 119542, Note_on_c, 0, 56, 31
1, 119550, Note_on_c, 0, 60, 40
1, 119554, Note_on_c, 0, 53, 38
1, 119555, Note_on_c, 0, 48, 50
1, 119667, Control_c, 0, 64, 49
1, 119852, Note_on_c, 0, 40, 54
1, 119950, Control_c, 0, 64, 48
1, 120024, Control_c, 0, 64, 48
1, 120028, Note_off_c, 0, 36, 36
1, 120054, Control_c, 0, 64, 47
1, 120113, Control_c, 0, 64, 47
1, 120128, Control_c, 0, 64, 46
1, 120149, Note_off_c, 0, 48, 36
1, 120156, Note_on_c, 0, 41, 67
1, 120202, Control_c, 0, 64, 46
1, 120239, Note_off_c, 0, 40, 57
1, 120275, Control_c, 0, 64, 45
1, 120335, Control_c, 0, 64, 45
1, 120350, Control_c, 0, 64, 44
1, 120354, Note_off_c, 0, 53, 57
1, 120365, Control_c, 0, 64, 44
1, 120402, Control_c, 0, 64, 44
1, 120463, Note_off_c, 0, 56, 43
1, 120465, Note_on_c, 0, 44, 70
1, 120475, Control_c, 0, 64, 45
1, 120499, Note_off_c, 0, 60, 64
1, 120505, Control_c, 0, 67, 120
1, 120520, Note_off_c, 0, 41, 64
1, 120520, Control_c, 0, 67, 115
1, 120535, Control_c, 0, 64, 45
1, 120549, Control_c, 0, 64, 46
1, 120564, Control_c, 0, 64, 46
1, 120625, Control_c, 0, 64, 47
1, 120669, Control_c, 0, 64, 46
1, 120669, Control_c, 0, 67, 112
1, 120713, Control_c, 0, 64, 47
1, 120743, Control_c, 0, 67, 109
1, 120788, Control_c, 0, 64, 47
1, 120803, Control_c, 0, 67, 99
1, 120818, Control_c, 0, 67, 85
1, 120833, Control_c, 0, 67, 79
1, 120847, Control_c, 0, 67, 74
1, 120862, Control_c, 0, 67, 68
1, 120877, Control_c, 0, 67, 62
1, 120885, Note_on_c, 0, 49, 72
1, 120891, Control_c, 0, 67, 58
1, 120906, Control_c, 0, 67, 54
1, 120921, Control_c, 0, 67, 48
1, 120936, Control_c, 0, 67, 41
1, 120951, Control_c, 0, 67, 38
1, 120965, Control_c, 0, 67, 37
1, 120980, Control_c, 0, 67, 36
1, 120983, Note_off_c, 0, 44, 60
1, 120995, Control_c, 0, 67, 35
1, 121010, Control_c, 0, 67, 35
1, 121084, Control_c, 0, 64, 48
1, 121084, Control_c, 0, 67, 35
1, 121098, Control_c, 0, 67, 37
1, 121113, Control_c, 0, 64, 48
1, 121113, Control_c, 0, 67, 38
1, 121128, Control_c, 0, 67, 40
1, 121151, Control_c, 0, 64, 49
1, 121151, Control_c, 0, 67, 44
1, 121166, Control_c, 0, 64, 52
1, 121166, Control_c, 0, 67, 49
1, 121180, Control_c, 0, 64, 57
1, 121180, Control_c, 0, 67, 54
1, 121195, Control_c, 0, 64, 60
1, 121195, Control_c, 0, 67, 55
1, 121210, Control_c, 0, 67, 56
1, 121225, Control_c, 0, 64, 61
1, 121225, Control_c, 0, 67, 57
1, 121240, Control_c, 0, 64, 62
1, 121240, Control_c, 0, 67, 61
1, 121254, Control_c, 0, 64, 64
1, 121254, Control_c, 0, 67, 67
1, 121269, Control_c, 0, 64, 67
1, 121269, Control_c, 0, 67, 74
1, 121284, Control_c, 0, 64, 70
1, 121284, Control_c, 0, 67, 75
1, 121298, Control_c, 0, 64, 72
1, 121298, Control_c, 0, 67, 75
1, 121313, Control_c, 0, 64, 74
1, 121313, Control_c, 0, 67, 77
1, 121328, Control_c, 0, 64, 76
1, 121328, Control_c, 0, 67, 83
1, 121343, Control_c, 0, 64, 80
1, 121343, Control_c, 0, 67, 109
1, 121358, Control_c, 0, 64, 85
1, 121358, Control_c, 0, 67, 127
1, 121372, Control_c, 0, 64, 91
1, 121387, Control_c, 0, 64, 97
1, 121402, Control_c, 0, 64, 102
1, 121418, Control_c, 0, 64, 107
1, 121433, Control_c, 0, 64, 113
1, 121448, Control_c, 0, 64, 126
1, 121596, Note_on_c, 0, 58, 48
1, 121599, Note_on_c, 0, 65, 53
1, 121601, Note_on_c, 0, 61, 44
1, 121602, Note_on_c, 0, 53, 41
1, 121688, Note_off_c, 0, 49, 51
1, 121918, Note_on_c, 0, 48, 74
1, 121974, Control_c, 0, 64, 112
1, 121989, Control_c, 0, 64, 105
1, 122003, Control_c, 0, 64, 103
1, 122018, Control_c, 0, 64, 100
1, 122033, Control_c, 0, 64, 96
1, 122047, Control_c, 0, 64, 90
1, 122062, Control_c, 0, 64, 86
1, 122070, Note_on_c, 0, 46, 69
1, 122077, Control_c, 0, 64, 83
1, 122092, Control_c, 0, 64, 81
1, 122107, Control_c, 0, 64, 79
1, 122121, Control_c, 0, 64, 75
1, 122125, Note_off_c, 0, 48, 62
1, 122136, Control_c, 0, 64, 70
1, 122151, Control_c, 0, 64, 65
1, 122166, Control_c, 0, 64, 61
1, 122181, Control_c, 0, 64, 60
1, 122195, Control_c, 0, 64, 56
1, 122211, Control_c, 0, 64, 52
1, 122226, Control_c, 0, 64, 48
1, 122241, Control_c, 0, 64, 44
1, 122249, Note_off_c, 0, 53, 58
1, 122253, Note_off_c, 0, 65, 56
1, 122256, Control_c, 0, 64, 42
1, 122260, Note_off_c, 0, 58, 63
1, 122262, Note_off_c, 0, 61, 62
1, 122269, Note_on_c, 0, 45, 73
1, 122271, Control_c, 0, 64, 40
1, 122285, Control_c, 0, 64, 39
1, 122300, Control_c, 0, 64, 37
1, 122315, Control_c, 0, 64, 36
1, 122359, Control_c, 0, 64, 36
1, 122418, Control_c, 0, 64, 37
1, 122423, Note_off_c, 0, 46, 62
1, 122433, Control_c, 0, 64, 37
1, 122448, Control_c, 0, 64, 38
1, 122493, Control_c, 0, 64, 38
1, 122508, Control_c, 0, 64, 40
1, 122523, Control_c, 0, 64, 41
1, 122582, Control_c, 0, 64, 42
1, 122597, Control_c, 0, 64, 44
1, 122663, Control_c, 0, 64, 45
1, 122678, Control_c, 0, 64, 46
1, 122752, Control_c, 0, 64, 47
1, 122826, Control_c, 0, 64, 48
1, 122870, Control_c, 0, 64, 48
1, 122885, Control_c, 0, 64, 49
1, 122900, Control_c, 0, 64, 51
1, 122915, Control_c, 0, 64, 57
1, 122930, Control_c, 0, 64, 60
1, 122944, Control_c, 0, 64, 61
1, 122959, Control_c, 0, 64, 62
1, 122967, Note_on_c, 0, 61, 42
1, 122970, Note_on_c, 0, 65, 49
1, 122972, Note_on_c, 0, 53, 37
1, 122972, Note_on_c, 0, 57, 45
1, 122974, Control_c, 0, 64, 64
1, 122989, Control_c, 0, 64, 68
1, 123004, Control_c, 0, 64, 72
1, 123020, Control_c, 0, 64, 78
1, 123034, Control_c, 0, 64, 81
1, 123049, Control_c, 0, 64, 83
1, 123064, Control_c, 0, 64, 86
1, 123079, Control_c, 0, 64, 89
1, 123093, Control_c, 0, 64, 92
1, 123108, Control_c, 0, 64, 95
1, 123121, Note_off_c, 0, 45, 60
1, 123123, Control_c, 0, 64, 97
1, 123138, Control_c, 0, 64, 99
1, 123153, Control_c, 0, 64, 101
1, 123282, Note_on_c, 0, 44, 58
1, 123346, Control_c, 0, 64, 97
1, 123360, Control_c, 0, 64, 94
1, 123375, Control_c, 0, 64, 92
1, 123397, Control_c, 0, 64, 90
1, 123412, Control_c, 0, 64, 87
1, 123427, Control_c, 0, 64, 84
1, 123429, Note_on_c, 0, 42, 63
1, 123441, Control_c, 0, 64, 81
1, 123456, Control_c, 0, 64, 80
1, 123471, Control_c, 0, 64, 78
1, 123486, Control_c, 0, 64, 76
1, 123501, Control_c, 0, 64, 74
1, 123515, Control_c, 0, 64, 71
1, 123524, Note_off_c, 0, 44, 38
1, 123530, Control_c, 0, 64, 69
1, 123545, Control_c, 0, 64, 66
1, 123560, Control_c, 0, 64, 64
1, 123575, Control_c, 0, 64, 62
1, 123590, Control_c, 0, 64, 60
1, 123605, Control_c, 0, 64, 57
1, 123619, Note_on_c, 0, 41, 58
1, 123620, Control_c, 0, 64, 55
1, 123635, Control_c, 0, 64, 52
1, 123644, Note_off_c, 0, 53, 54
1, 123645, Note_off_c, 0, 57, 63
1, 123649, Control_c, 0, 64, 48
1, 123657, Note_off_c, 0, 65, 57
1, 123660, Note_off_c, 0, 42, 64
1, 123661, Note_off_c, 0, 61, 62
1, 123664, Control_c, 0, 64, 43
1, 123679, Control_c, 0, 64, 39
1, 123693, Control_c, 0, 64, 36
1, 123708, Control_c, 0, 64, 35
1, 123723, Control_c, 0, 64, 34
1, 123738, Control_c, 0, 64, 32
1, 123797, Control_c, 0, 64, 32
1, 123843, Control_c, 0, 64, 33
1, 123857, Control_c, 0, 64, 35
1, 123872, Control_c, 0, 64, 37
1, 123887, Control_c, 0, 64, 38
1, 123931, Control_c, 0, 64, 39
1, 123946, Control_c, 0, 64, 41
1, 123961, Control_c, 0, 64, 41
1, 124020, Control_c, 0, 64, 42
1, 124035, Control_c, 0, 64, 43
1, 124064, Control_c, 0, 64, 42
1, 124109, Control_c, 0, 64, 43
1, 124190, Control_c, 0, 64, 43
1, 124326, Note_on_c, 0, 65, 48
1, 124326, Note_on_c, 0, 61, 37
1, 124330, Note_on_c, 0, 58, 40
1, 124341, Note_on_c, 0, 53, 35
1, 124502, Control_c, 0, 64, 44
1, 124547, Note_off_c, 0, 58, 61
1, 124550, Note_off_c, 0, 53, 59
1, 124554, Note_off_c, 0, 61, 62
1, 124557, Note_off_c, 0, 65, 61
1, 124621, Control_c, 0, 64, 44
1, 124739, Control_c, 0, 64, 44
1, 124800, Note_on_c, 0, 65, 51
1, 124801, Note_on_c, 0, 58, 49
1, 124807, Note_on_c, 0, 61, 46
1, 124809, Note_on_c, 0, 53, 42
1, 124875, Note_off_c, 0, 53, 56
1, 124885, Note_off_c, 0, 58, 60
1, 124890, Note_off_c, 0, 61, 60
1, 124898, Note_off_c, 0, 65, 59
1, 124939, Control_c, 0, 64, 44
1, 124976, Note_on_c, 0, 65, 46
1, 124982, Note_on_c, 0, 53, 47
1, 124983, Note_on_c, 0, 58, 46
1, 124984, Note_on_c, 0, 61, 40
1, 124984, Control_c, 0, 64, 44
1, 125087, Control_c, 0, 64, 44
1, 125265, Control_c, 0, 64, 43
1, 125274, Note_on_c, 0, 42, 65
1, 125340, Control_c, 0, 64, 43
1, 125352, Note_off_c, 0, 41, 38
1, 125355, Control_c, 0, 64, 42
1, 125415, Control_c, 0, 64, 42
1, 125430, Control_c, 0, 64, 41
1, 125474, Control_c, 0, 67, 119
1, 125489, Control_c, 0, 67, 109
1, 125504, Control_c, 0, 64, 40
1, 125504, Control_c, 0, 67, 101
1, 125519, Control_c, 0, 64, 40
1, 125519, Control_c, 0, 67, 93
1, 125534, Control_c, 0, 64, 39
1, 125534, Control_c, 0, 67, 79
1, 125548, Control_c, 0, 64, 39
1, 125548, Control_c, 0, 67, 57
1, 125563, Control_c, 0, 64, 37
1, 125563, Control_c, 0, 67, 37
1, 125563, Note_off_c, 0, 53, 52
1, 125578, Control_c, 0, 64, 35
1, 125578, Control_c, 0, 67, 0
1, 125592, Note_on_c, 0, 45, 64
1, 125593, Control_c, 0, 64, 33
1, 125623, Control_c, 0, 64, 31
1, 125678, Note_off_c, 0, 65, 50
1, 125689, Note_off_c, 0, 42, 63
1, 125692, Note_off_c, 0, 58, 54
1, 125750, Note_off_c, 0, 61, 58
1, 125926, Control_c, 0, 64, 0
1, 126079, Note_on_c, 0, 46, 65
1, 126153, Note_off_c, 0, 45, 57
1, 126264, Note_on_c, 0, 49, 68
1, 126395, Note_off_c, 0, 46, 49
1, 126452, Control_c, 0, 64, 30
1, 126496, Control_c, 0, 64, 32
1, 126511, Control_c, 0, 64, 33
1, 126526, Control_c, 0, 64, 36
1, 126541, Control_c, 0, 64, 39
1, 126556, Control_c, 0, 64, 40
1, 126571, Control_c, 0, 64, 40
1, 126585, Control_c, 0, 64, 41
1, 126600, Control_c, 0, 64, 43
1, 126615, Control_c, 0, 64, 47
1, 126630, Control_c, 0, 64, 51
1, 126674, Control_c, 0, 64, 51
1, 126689, Control_c, 0, 64, 54
1, 126704, Control_c, 0, 64, 58
1, 126717, Control_c, 0, 64, 62
1, 126732, Control_c, 0, 64, 63
1, 126762, Control_c, 0, 64, 64
1, 126777, Control_c, 0, 64, 65
1, 126791, Control_c, 0, 64, 68
1, 126806, Control_c, 0, 64, 70
1, 126821, Control_c, 0, 64, 72
1, 126836, Control_c, 0, 64, 74
1, 126851, Control_c, 0, 64, 76
1, 126866, Control_c, 0, 64, 78
1, 126881, Control_c, 0, 64, 80
1, 126896, Control_c, 0, 64, 85
1, 126910, Control_c, 0, 64, 89
1, 126925, Control_c, 0, 64, 93
1, 126940, Control_c, 0, 64, 97
1, 126954, Note_on_c, 0, 58, 50
1, 126955, Control_c, 0, 64, 102
1, 126958, Note_on_c, 0, 53, 47
1, 126958, Note_on_c, 0, 65, 57
1, 126960, Note_on_c, 0, 61, 45
1, 126970, Control_c, 0, 64, 107
1, 126984, Control_c, 0, 64, 117
1, 127000, Control_c, 0, 64, 127
1, 127046, Note_off_c, 0, 49, 54
1, 127280, Note_on_c, 0, 48, 69
1, 127319, Control_c, 0, 64, 116
1, 127333, Control_c, 0, 64, 110
1, 127348, Control_c, 0, 64, 105
1, 127363, Control_c, 0, 64, 99
1, 127378, Control_c, 0, 64, 92
1, 127393, Control_c, 0, 64, 87
1, 127407, Control_c, 0, 64, 84
1, 127415, Note_on_c, 0, 46, 68
1, 127422, Control_c, 0, 64, 82
1, 127422, Control_c, 0, 67, 34
1, 127437, Control_c, 0, 64, 79
1, 127437, Control_c, 0, 67, 36
1, 127452, Control_c, 0, 64, 75
1, 127452, Control_c, 0, 67, 38
1, 127464, Note_off_c, 0, 48, 62
1, 127466, Control_c, 0, 64, 70
1, 127466, Control_c, 0, 67, 39
1, 127481, Control_c, 0, 64, 66
1, 127496, Control_c, 0, 64, 62
1, 127496, Control_c, 0, 67, 40
1, 127511, Control_c, 0, 64, 59
1, 127511, Control_c, 0, 67, 41
1, 127526, Control_c, 0, 64, 57
1, 127540, Control_c, 0, 64, 54
1, 127555, Control_c, 0, 64, 51
1, 127555, Control_c, 0, 67, 41
1, 127570, Control_c, 0, 64, 48
1, 127585, Control_c, 0, 64, 45
1, 127585, Control_c, 0, 67, 42
1, 127600, Control_c, 0, 64, 43
1, 127600, Control_c, 0, 67, 43
1, 127601, Note_off_c, 0, 53, 50
1, 127609, Note_off_c, 0, 65, 55
1, 127612, Note_on_c, 0, 45, 68
1, 127614, Note_off_c, 0, 58, 61
1, 127614, Control_c, 0, 64, 41
1, 127618, Note_off_c, 0, 61, 63
1, 127629, Control_c, 0, 64, 38
1, 127629, Control_c, 0, 67, 42
1, 127644, Control_c, 0, 64, 36
1, 127659, Control_c, 0, 67, 43
1, 127674, Control_c, 0, 67, 44
1, 127689, Control_c, 0, 67, 45
1, 127704, Control_c, 0, 67, 51
1, 127719, Control_c, 0, 67, 53
1, 127733, Control_c, 0, 67, 54
1, 127744, Note_off_c, 0, 46, 51
1, 127748, Control_c, 0, 64, 37
1, 127748, Control_c, 0, 67, 57
1, 127763, Control_c, 0, 64, 37
1, 127763, Control_c, 0, 67, 67
1, 127778, Control_c, 0, 67, 73
1, 127808, Control_c, 0, 64, 38
1, 127808, Control_c, 0, 67, 74
1, 127823, Control_c, 0, 64, 40
1, 127823, Control_c, 0, 67, 75
1, 127838, Control_c, 0, 64, 42
1, 127838, Control_c, 0, 67, 78
1, 127853, Control_c, 0, 67, 89
1, 127868, Control_c, 0, 67, 101
1, 127889, Control_c, 0, 67, 104
1, 127904, Control_c, 0, 64, 42
1, 127919, Control_c, 0, 64, 44
1, 127934, Control_c, 0, 67, 107
1, 127949, Control_c, 0, 67, 112
1, 127963, Control_c, 0, 67, 125
1, 127978, Control_c, 0, 64, 44
1, 127978, Control_c, 0, 67, 127
1, 127993, Control_c, 0, 64, 45
1, 128067, Control_c, 0, 64, 45
1, 128082, Control_c, 0, 64, 46
1, 128127, Control_c, 0, 64, 46
1, 128142, Control_c, 0, 64, 48
1, 128156, Control_c, 0, 64, 50
1, 128171, Control_c, 0, 64, 50
1, 128201, Control_c, 0, 64, 51
1, 128216, Control_c, 0, 64, 53
1, 128230, Control_c, 0, 64, 57
1, 128245, Control_c, 0, 64, 61
1, 128260, Control_c, 0, 64, 63
1, 128275, Control_c, 0, 64, 65
1, 128287, Note_on_c, 0, 65, 49
1, 128289, Control_c, 0, 64, 66
1, 128293, Note_on_c, 0, 61, 41
1, 128294, Note_on_c, 0, 57, 40
1, 128304, Control_c, 0, 64, 69
1, 128309, Note_on_c, 0, 53, 28
1, 128319, Control_c, 0, 64, 74
1, 128334, Control_c, 0, 64, 78
1, 128349, Control_c, 0, 64, 82
1, 128363, Control_c, 0, 64, 85
1, 128378, Control_c, 0, 64, 88
1, 128393, Control_c, 0, 64, 90
1, 128407, Control_c, 0, 64, 92
1, 128422, Control_c, 0, 64, 94
1, 128425, Note_off_c, 0, 45, 54
1, 128437, Control_c, 0, 64, 95
1, 128467, Control_c, 0, 64, 99
1, 128497, Control_c, 0, 64, 101
1, 128608, Note_on_c, 0, 44, 52
1, 128698, Control_c, 0, 64, 98
1, 128712, Control_c, 0, 64, 94
1, 128727, Control_c, 0, 64, 90
1, 128742, Control_c, 0, 64, 85
1, 128755, Note_on_c, 0, 42, 61
1, 128757, Control_c, 0, 64, 82
1, 128772, Control_c, 0, 64, 78
1, 128786, Control_c, 0, 64, 75
1, 128801, Control_c, 0, 64, 71
1, 128816, Control_c, 0, 64, 67
1, 128830, Control_c, 0, 64, 62
1, 128839, Note_off_c, 0, 44, 46
1, 128845, Control_c, 0, 64, 60
1, 128860, Control_c, 0, 64, 59
1, 128875, Control_c, 0, 64, 57
1, 128890, Control_c, 0, 64, 55
1, 128905, Control_c, 0, 64, 52
1, 128920, Control_c, 0, 64, 50
1, 128926, Note_off_c, 0, 57, 55
1, 128929, Note_off_c, 0, 65, 54
1, 128934, Note_off_c, 0, 53, 40
1, 128935, Control_c, 0, 64, 47
1, 128944, Note_on_c, 0, 41, 59
1, 128947, Note_off_c, 0, 61, 60
1, 128950, Control_c, 0, 64, 45
1, 128965, Control_c, 0, 64, 42
1, 128979, Control_c, 0, 64, 39
1, 128994, Control_c, 0, 64, 37
1, 129009, Control_c, 0, 64, 35
1, 129023, Control_c, 0, 64, 35
1, 129025, Note_off_c, 0, 42, 61
1, 129186, Control_c, 0, 64, 35
1, 129216, Control_c, 0, 64, 36
1, 129230, Control_c, 0, 64, 36
1, 129275, Control_c, 0, 64, 37
1, 129290, Control_c, 0, 64, 39
1, 129304, Control_c, 0, 64, 40
1, 129349, Control_c, 0, 64, 40
1, 129364, Control_c, 0, 64, 42
1, 129386, Control_c, 0, 64, 43
1, 129461, Control_c, 0, 64, 43
1, 129665, Note_on_c, 0, 65, 47
1, 129668, Note_on_c, 0, 58, 44
1, 129668, Note_on_c, 0, 61, 41
1, 129683, Note_on_c, 0, 53, 30
1, 129884, Note_off_c, 0, 53, 62
1, 129888, Note_off_c, 0, 58, 63
1, 129890, Note_off_c, 0, 61, 63
1, 129894, Note_off_c, 0, 65, 61
1, 129906, Control_c, 0, 64, 44
1, 129935, Control_c, 0, 64, 44
1, 129994, Control_c, 0, 64, 45
1, 130083, Control_c, 0, 64, 46
1, 130113, Control_c, 0, 64, 45
1, 130130, Note_on_c, 0, 61, 49
1, 130131, Note_on_c, 0, 58, 51
1, 130133, Note_on_c, 0, 65, 55
1, 130140, Note_on_c, 0, 53, 45
1, 130217, Note_off_c, 0, 53, 59
1, 130220, Note_off_c, 0, 58, 58
1, 130227, Note_off_c, 0, 61, 60
1, 130228, Note_off_c, 0, 65, 60
1, 130255, Control_c, 0, 64, 46
1, 130284, Control_c, 0, 64, 45
1, 130293, Note_on_c, 0, 61, 43
1, 130295, Note_on_c, 0, 65, 51
1, 130298, Note_on_c, 0, 58, 47
1, 130306, Note_on_c, 0, 53, 43
1, 130329, Control_c, 0, 64, 46
1, 130358, Control_c, 0, 64, 45
1, 130418, Control_c, 0, 64, 46
1, 130491, Control_c, 0, 64, 46
1, 130565, Control_c, 0, 67, 112
1, 130580, Control_c, 0, 67, 101
1, 130584, Note_on_c, 0, 45, 64
1, 130595, Control_c, 0, 64, 46
1, 130595, Control_c, 0, 67, 92
1, 130610, Control_c, 0, 64, 45
1, 130610, Control_c, 0, 67, 81
1, 130625, Control_c, 0, 67, 62
1, 130640, Control_c, 0, 67, 45
1, 130655, Control_c, 0, 67, 0
1, 130679, Note_off_c, 0, 41, 62
1, 130684, Control_c, 0, 64, 45
1, 130699, Control_c, 0, 64, 44
1, 130729, Control_c, 0, 64, 44
1, 130735, Note_off_c, 0, 53, 50
1, 130743, Control_c, 0, 64, 43
1, 130758, Control_c, 0, 64, 42
1, 130788, Control_c, 0, 64, 42
1, 130802, Control_c, 0, 64, 40
1, 130817, Control_c, 0, 64, 39
1, 130832, Control_c, 0, 64, 37
1, 130847, Control_c, 0, 64, 35
1, 130862, Control_c, 0, 64, 30
1, 130867, Note_off_c, 0, 58, 54
1, 130884, Control_c, 0, 64, 0
1, 130884, Note_on_c, 0, 46, 67
1, 130920, Note_off_c, 0, 65, 57
1, 130962, Note_off_c, 0, 61, 59
1, 130971, Note_off_c, 0, 45, 61
1, 131177, Note_on_c, 0, 48, 86
1, 131261, Note_off_c, 0, 46, 61
1, 131523, Note_on_c, 0, 49, 74
1, 131586, Note_off_c, 0, 48, 61
1, 131811, Control_c, 0, 64, 36
1, 131826, Control_c, 0, 64, 44
1, 131841, Control_c, 0, 64, 47
1, 131856, Control_c, 0, 64, 48
1, 131871, Control_c, 0, 64, 51
1, 131886, Control_c, 0, 64, 57
1, 131901, Control_c, 0, 64, 63
1, 131916, Control_c, 0, 64, 66
1, 131930, Control_c, 0, 64, 69
1, 131945, Control_c, 0, 64, 71
1, 131960, Control_c, 0, 64, 73
1, 131975, Control_c, 0, 64, 78
1, 131990, Control_c, 0, 64, 87
1, 132005, Control_c, 0, 64, 98
1, 132020, Control_c, 0, 64, 113
1, 132035, Control_c, 0, 64, 127
1, 132128, Note_on_c, 0, 66, 66
1, 132135, Note_on_c, 0, 57, 57
1, 132135, Note_on_c, 0, 61, 57
1, 132151, Note_off_c, 0, 49, 65
1, 132352, Note_off_c, 0, 57, 35
1, 132426, Note_off_c, 0, 61, 60
1, 132431, Note_off_c, 0, 66, 62
1, 132607, Note_on_c, 0, 52, 71
1, 132742, Note_on_c, 0, 50, 76
1, 132785, Note_off_c, 0, 52, 59
1, 132857, Control_c, 0, 64, 111
1, 132871, Control_c, 0, 64, 97
1, 132886, Control_c, 0, 64, 87
1, 132901, Control_c, 0, 64, 79
1, 132916, Control_c, 0, 64, 70
1, 132931, Control_c, 0, 64, 61
1, 132945, Control_c, 0, 64, 50
1, 132960, Control_c, 0, 64, 43
1, 132975, Control_c, 0, 64, 37
1, 132990, Control_c, 0, 64, 31
1, 133004, Control_c, 0, 64, 0
1, 133131, Control_c, 0, 67, 41
1, 133146, Control_c, 0, 67, 44
1, 133160, Control_c, 0, 67, 44
1, 133175, Control_c, 0, 64, 29
1, 133175, Control_c, 0, 67, 44
1, 133190, Control_c, 0, 64, 31
1, 133190, Control_c, 0, 67, 47
1, 133204, Control_c, 0, 64, 36
1, 133204, Control_c, 0, 67, 50
1, 133219, Control_c, 0, 64, 43
1, 133219, Control_c, 0, 67, 57
1, 133234, Control_c, 0, 64, 53
1, 133234, Control_c, 0, 67, 56
1, 133249, Control_c, 0, 64, 57
1, 133264, Control_c, 0, 64, 59
1, 133278, Control_c, 0, 64, 60
1, 133278, Control_c, 0, 67, 57
1, 133293, Control_c, 0, 64, 63
1, 133308, Control_c, 0, 64, 68
1, 133308, Control_c, 0, 67, 55
1, 133323, Control_c, 0, 64, 74
1, 133323, Control_c, 0, 67, 54
1, 133338, Control_c, 0, 64, 78
1, 133338, Control_c, 0, 67, 53
1, 133352, Control_c, 0, 64, 81
1, 133367, Control_c, 0, 64, 83
1, 133376, Note_on_c, 0, 65, 54
1, 133378, Note_on_c, 0, 56, 48
1, 133382, Control_c, 0, 64, 88
1, 133382, Control_c, 0, 67, 51
1, 133384, Note_on_c, 0, 59, 50
1, 133398, Control_c, 0, 64, 97
1, 133398, Control_c, 0, 67, 49
1, 133413, Control_c, 0, 64, 118
1, 133413, Control_c, 0, 67, 48
1, 133427, Control_c, 0, 64, 127
1, 133439, Note_off_c, 0, 50, 63
1, 133457, Control_c, 0, 67, 47
1, 133472, Control_c, 0, 67, 47
1, 133500, Note_off_c, 0, 56, 37
1, 133501, Control_c, 0, 67, 48
1, 133531, Control_c, 0, 67, 47
1, 133546, Control_c, 0, 67, 46
1, 133549, Note_off_c, 0, 59, 60
1, 133552, Note_off_c, 0, 65, 55
1, 133576, Control_c, 0, 67, 47
1, 133606, Control_c, 0, 67, 47
1, 133620, Control_c, 0, 67, 46
1, 133650, Control_c, 0, 67, 47
1, 133680, Control_c, 0, 67, 45
1, 133694, Control_c, 0, 67, 45
1, 133724, Control_c, 0, 67, 46
1, 133754, Control_c, 0, 67, 45
1, 133783, Control_c, 0, 67, 45
1, 133798, Control_c, 0, 67, 46
1, 133827, Control_c, 0, 67, 45
1, 133842, Control_c, 0, 67, 45
1, 133880, Control_c, 0, 67, 46
1, 133908, Note_on_c, 0, 49, 60
1, 133909, Control_c, 0, 67, 45
1, 133939, Control_c, 0, 67, 46
1, 133954, Control_c, 0, 67, 47
1, 133969, Control_c, 0, 67, 48
1, 133975, Note_off_c, 0, 49, 54
1, 133983, Control_c, 0, 67, 47
1, 134027, Control_c, 0, 67, 47
1, 134057, Control_c, 0, 67, 47
1, 134072, Control_c, 0, 67, 46
1, 134093, Note_on_c, 0, 49, 66
1, 134101, Control_c, 0, 67, 47
1, 134116, Control_c, 0, 67, 48
1, 134131, Control_c, 0, 67, 47
1, 134145, Control_c, 0, 64, 113
1, 134160, Control_c, 0, 64, 98
1, 134175, Control_c, 0, 64, 88
1, 134175, Control_c, 0, 67, 48
1, 134190, Control_c, 0, 64, 80
1, 134190, Control_c, 0, 67, 50
1, 134206, Control_c, 0, 64, 76
1, 134206, Control_c, 0, 67, 49
1, 134221, Control_c, 0, 64, 72
1, 134236, Control_c, 0, 64, 65
1, 134250, Control_c, 0, 64, 60
1, 134250, Control_c, 0, 67, 51
1, 134265, Control_c, 0, 64, 56
1, 134265, Control_c, 0, 67, 51
1, 134280, Control_c, 0, 64, 54
1, 134295, Control_c, 0, 64, 54
1, 134310, Control_c, 0, 64, 51
1, 134324, Control_c, 0, 64, 48
1, 134324, Control_c, 0, 67, 52
1, 134339, Control_c, 0, 64, 44
1, 134339, Control_c, 0, 67, 53
1, 134354, Control_c, 0, 64, 43
1, 134354, Control_c, 0, 67, 52
1, 134369, Control_c, 0, 67, 52
1, 134399, Control_c, 0, 64, 43
1, 134399, Control_c, 0, 67, 52
1, 134414, Control_c, 0, 64, 42
1, 134414, Control_c, 0, 67, 53
1, 134443, Control_c, 0, 64, 43
1, 134443, Control_c, 0, 67, 52
1, 134458, Control_c, 0, 64, 43
1, 134473, Control_c, 0, 67, 53
1, 134488, Control_c, 0, 64, 43
1, 134503, Control_c, 0, 67, 52
1, 134517, Control_c, 0, 64, 44
1, 134517, Control_c, 0, 67, 52
1, 134532, Control_c, 0, 64, 44
1, 134532, Control_c, 0, 67, 51
1, 134547, Control_c, 0, 67, 52
1, 134577, Control_c, 0, 67, 51
1, 134591, Control_c, 0, 64, 45
1, 134591, Control_c, 0, 67, 50
1, 134606, Control_c, 0, 64, 47
1, 134643, Control_c, 0, 64, 46
1, 134658, Control_c, 0, 64, 47
1, 134658, Control_c, 0, 67, 50
1, 134673, Control_c, 0, 64, 48
1, 134673, Control_c, 0, 67, 48
1, 134688, Control_c, 0, 64, 51
1, 134688, Control_c, 0, 67, 48
1, 134703, Control_c, 0, 64, 55
1, 134703, Control_c, 0, 67, 48
1, 134718, Control_c, 0, 64, 58
1, 134718, Control_c, 0, 67, 49
1, 134732, Control_c, 0, 64, 59
1, 134732, Control_c, 0, 67, 48
1, 134742, Note_on_c, 0, 66, 49
1, 134747, Control_c, 0, 64, 61
1, 134747, Control_c, 0, 67, 46
1, 134751, Note_on_c, 0, 61, 45
1, 134759, Note_on_c, 0, 57, 47
1, 134762, Control_c, 0, 64, 65
1, 134762, Control_c, 0, 67, 45
1, 134776, Control_c, 0, 64, 72
1, 134791, Control_c, 0, 64, 79
1, 134806, Control_c, 0, 64, 83
1, 134806, Control_c, 0, 67, 42
1, 134821, Control_c, 0, 64, 84
1, 134821, Control_c, 0, 67, 38
1, 134836, Control_c, 0, 64, 86
1, 134836, Control_c, 0, 67, 36
1, 134850, Control_c, 0, 64, 89
1, 134865, Control_c, 0, 64, 93
1, 134865, Control_c, 0, 67, 35
1, 134880, Control_c, 0, 64, 96
1, 134880, Control_c, 0, 67, 0
1, 134900, Note_off_c, 0, 57, 51
1, 134910, Control_c, 0, 64, 99
1, 134915, Note_off_c, 0, 66, 61
1, 134924, Note_off_c, 0, 61, 53
1, 134939, Control_c, 0, 64, 101
1, 134955, Control_c, 0, 64, 103
1, 134984, Control_c, 0, 64, 106
1, 135067, Note_on_c, 0, 53, 66
1, 135163, Control_c, 0, 64, 104
1, 135176, Note_off_c, 0, 49, 61
1, 135178, Control_c, 0, 64, 99
1, 135192, Control_c, 0, 64, 93
1, 135207, Control_c, 0, 64, 88
1, 135222, Control_c, 0, 64, 84
1, 135237, Control_c, 0, 64, 81
1, 135252, Control_c, 0, 64, 78
1, 135266, Control_c, 0, 64, 74
1, 135281, Control_c, 0, 64, 70
1, 135296, Control_c, 0, 64, 66
1, 135311, Control_c, 0, 64, 62
1, 135326, Control_c, 0, 64, 59
1, 135341, Control_c, 0, 64, 57
1, 135356, Control_c, 0, 64, 56
1, 135378, Control_c, 0, 64, 54
1, 135392, Control_c, 0, 64, 52
1, 135407, Control_c, 0, 64, 49
1, 135422, Control_c, 0, 64, 46
1, 135437, Control_c, 0, 64, 43
1, 135452, Control_c, 0, 64, 41
1, 135454, Note_on_c, 0, 54, 60
1, 135466, Control_c, 0, 64, 40
1, 135481, Control_c, 0, 64, 38
1, 135496, Control_c, 0, 64, 36
1, 135511, Control_c, 0, 64, 31
1, 135526, Control_c, 0, 64, 0
1, 135582, Note_off_c, 0, 53, 59
1, 135600, Control_c, 0, 64, 29
1, 135615, Control_c, 0, 64, 32
1, 135630, Control_c, 0, 64, 37
1, 135645, Control_c, 0, 64, 40
1, 135660, Control_c, 0, 64, 41
1, 135674, Control_c, 0, 64, 40
1, 135704, Control_c, 0, 64, 40
1, 135734, Control_c, 0, 64, 39
1, 135748, Control_c, 0, 64, 38
1, 135757, Note_on_c, 0, 55, 83
1, 135763, Control_c, 0, 64, 36
1, 135778, Control_c, 0, 64, 34
1, 135794, Control_c, 0, 64, 34
1, 135823, Control_c, 0, 64, 33
1, 135838, Control_c, 0, 64, 30
1, 135853, Control_c, 0, 64, 0
1, 135864, Note_off_c, 0, 54, 63
1, 136058, Note_on_c, 0, 56, 83
1, 136127, Note_off_c, 0, 55, 63
1, 136171, Control_c, 0, 64, 42
1, 136186, Control_c, 0, 64, 58
1, 136201, Control_c, 0, 64, 67
1, 136215, Control_c, 0, 64, 74
1, 136230, Control_c, 0, 64, 85
1, 136245, Control_c, 0, 64, 101
1, 136260, Control_c, 0, 64, 127
1, 136354, Note_on_c, 0, 57, 84
1, 136382, Note_off_c, 0, 56, 63
1, 136395, Note_off_c, 0, 57, 65
1, 136733, Note_on_c, 0, 49, 77
1, 136837, Control_c, 0, 64, 102
1, 136852, Control_c, 0, 64, 85
1, 136875, Control_c, 0, 64, 73
1, 136890, Control_c, 0, 64, 59
1, 136905, Control_c, 0, 64, 47
1, 136919, Control_c, 0, 64, 38
1, 136934, Control_c, 0, 64, 33
1, 136949, Control_c, 0, 64, 29
1, 136964, Control_c, 0, 64, 0
1, 137038, Control_c, 0, 64, 29
1, 137067, Control_c, 0, 64, 32
1, 137082, Control_c, 0, 64, 34
1, 137112, Control_c, 0, 64, 34
1, 137126, Control_c, 0, 64, 35
1, 137141, Control_c, 0, 64, 37
1, 137156, Control_c, 0, 64, 41
1, 137171, Control_c, 0, 64, 44
1, 137186, Control_c, 0, 64, 45
1, 137201, Control_c, 0, 64, 46
1, 137216, Control_c, 0, 64, 50
1, 137231, Control_c, 0, 64, 56
1, 137245, Control_c, 0, 64, 62
1, 137260, Control_c, 0, 64, 65
1, 137275, Control_c, 0, 64, 67
1, 137290, Control_c, 0, 64, 69
1, 137305, Control_c, 0, 64, 73
1, 137319, Control_c, 0, 64, 81
1, 137334, Control_c, 0, 64, 93
1, 137344, Note_on_c, 0, 66, 63
1, 137349, Control_c, 0, 64, 111
1, 137351, Note_on_c, 0, 61, 55
1, 137362, Note_on_c, 0, 57, 51
1, 137363, Control_c, 0, 64, 127
1, 137435, Note_off_c, 0, 57, 64
1, 137466, Note_off_c, 0, 61, 61
1, 137468, Note_off_c, 0, 66, 63
1, 137819, Note_on_c, 0, 52, 77
1, 137994, Note_on_c, 0, 50, 72
1, 138060, Note_off_c, 0, 52, 58
1, 138113, Control_c, 0, 64, 98
1, 138128, Control_c, 0, 64, 86
1, 138143, Control_c, 0, 64, 76
1, 138157, Note_off_c, 0, 49, 24
1, 138158, Control_c, 0, 64, 67
1, 138173, Control_c, 0, 64, 58
1, 138188, Control_c, 0, 64, 50
1, 138203, Control_c, 0, 64, 45
1, 138217, Control_c, 0, 64, 40
1, 138232, Control_c, 0, 64, 31
1, 138232, Control_c, 0, 67, 41
1, 138247, Control_c, 0, 64, 0
1, 138247, Control_c, 0, 67, 42
1, 138262, Control_c, 0, 67, 44
1, 138277, Control_c, 0, 67, 46
1, 138292, Control_c, 0, 67, 61
1, 138307, Control_c, 0, 67, 84
1, 138322, Control_c, 0, 67, 99
1, 138336, Control_c, 0, 67, 102
1, 138373, Control_c, 0, 67, 104
1, 138388, Control_c, 0, 64, 33
1, 138388, Control_c, 0, 67, 106
1, 138403, Control_c, 0, 64, 40
1, 138403, Control_c, 0, 67, 116
1, 138417, Control_c, 0, 64, 44
1, 138417, Control_c, 0, 67, 127
1, 138432, Control_c, 0, 64, 49
1, 138447, Control_c, 0, 64, 57
1, 138462, Control_c, 0, 64, 64
1, 138477, Control_c, 0, 64, 70
1, 138492, Control_c, 0, 64, 73
1, 138506, Control_c, 0, 64, 75
1, 138521, Control_c, 0, 64, 77
1, 138536, Control_c, 0, 64, 80
1, 138551, Control_c, 0, 64, 84
1, 138566, Control_c, 0, 64, 88
1, 138581, Control_c, 0, 64, 92
1, 138596, Control_c, 0, 64, 97
1, 138611, Control_c, 0, 64, 102
1, 138625, Control_c, 0, 64, 111
1, 138640, Control_c, 0, 64, 127
1, 138700, Note_on_c, 0, 65, 46
1, 138705, Note_on_c, 0, 59, 45
1, 138706, Note_on_c, 0, 56, 41
1, 138718, Note_off_c, 0, 50, 61
1, 138801, Note_off_c, 0, 56, 52
1, 138831, Note_off_c, 0, 65, 55
1, 138837, Note_off_c, 0, 59, 62
1, 139179, Note_on_c, 0, 49, 56
1, 139231, Note_off_c, 0, 49, 54
1, 139383, Note_on_c, 0, 49, 51
1, 139433, Control_c, 0, 64, 116
1, 139446, Control_c, 0, 64, 100
1, 139461, Control_c, 0, 64, 92
1, 139476, Control_c, 0, 64, 85
1, 139491, Control_c, 0, 64, 78
1, 139506, Control_c, 0, 64, 70
1, 139520, Control_c, 0, 64, 61
1, 139535, Control_c, 0, 64, 53
1, 139550, Control_c, 0, 64, 51
1, 139580, Control_c, 0, 64, 50
1, 139609, Control_c, 0, 64, 51
1, 139624, Control_c, 0, 64, 51
1, 139639, Control_c, 0, 64, 52
1, 139669, Control_c, 0, 64, 51
1, 139699, Control_c, 0, 64, 52
1, 139713, Control_c, 0, 64, 52
1, 139743, Control_c, 0, 64, 53
1, 139772, Control_c, 0, 64, 54
1, 139788, Control_c, 0, 64, 55
1, 139803, Control_c, 0, 64, 55
1, 139833, Control_c, 0, 64, 56
1, 139848, Control_c, 0, 64, 56
1, 139869, Control_c, 0, 64, 58
1, 139884, Control_c, 0, 64, 60
1, 139899, Control_c, 0, 64, 62
1, 139914, Control_c, 0, 64, 63
1, 139943, Control_c, 0, 64, 63
1, 139949, Note_on_c, 0, 61, 43
1, 139950, Note_on_c, 0, 66, 51
1, 139956, Note_on_c, 0, 57, 39
1, 139958, Control_c, 0, 64, 65
1, 139973, Control_c, 0, 64, 68
1, 139988, Control_c, 0, 64, 72
1, 140003, Control_c, 0, 64, 75
1, 140018, Control_c, 0, 64, 76
1, 140033, Control_c, 0, 64, 78
1, 140048, Control_c, 0, 64, 81
1, 140062, Control_c, 0, 64, 85
1, 140077, Control_c, 0, 64, 86
1, 140092, Control_c, 0, 64, 86
1, 140107, Control_c, 0, 64, 87
1, 140122, Control_c, 0, 64, 88
1, 140125, Note_off_c, 0, 57, 57
1, 140137, Note_off_c, 0, 66, 59
1, 140166, Note_off_c, 0, 61, 37
1, 140166, Control_c, 0, 67, 122
1, 140181, Control_c, 0, 67, 114
1, 140225, Control_c, 0, 67, 110
1, 140240, Control_c, 0, 67, 108
1, 140261, Note_on_c, 0, 53, 68
1, 140269, Control_c, 0, 67, 103
1, 140284, Control_c, 0, 64, 87
1, 140299, Control_c, 0, 67, 101
1, 140314, Control_c, 0, 67, 98
1, 140329, Control_c, 0, 64, 86
1, 140329, Control_c, 0, 67, 87
1, 140343, Control_c, 0, 64, 85
1, 140343, Control_c, 0, 67, 80
1, 140358, Control_c, 0, 64, 82
1, 140373, Control_c, 0, 64, 81
1, 140373, Control_c, 0, 67, 78
1, 140379, Note_off_c, 0, 49, 61
1, 140387, Control_c, 0, 64, 79
1, 140387, Control_c, 0, 67, 75
1, 140402, Control_c, 0, 64, 78
1, 140402, Control_c, 0, 67, 71
1, 140417, Control_c, 0, 64, 76
1, 140417, Control_c, 0, 67, 65
1, 140432, Control_c, 0, 64, 73
1, 140447, Control_c, 0, 64, 71
1, 140447, Control_c, 0, 67, 63
1, 140462, Control_c, 0, 64, 69
1, 140462, Control_c, 0, 67, 58
1, 140477, Control_c, 0, 64, 67
1, 140477, Control_c, 0, 67, 41
1, 140492, Control_c, 0, 64, 66
1, 140492, Control_c, 0, 67, 0
1, 140506, Control_c, 0, 64, 64
1, 140521, Control_c, 0, 64, 62
1, 140536, Control_c, 0, 64, 59
1, 140551, Control_c, 0, 64, 56
1, 140563, Note_on_c, 0, 54, 80
1, 140566, Control_c, 0, 64, 52
1, 140581, Control_c, 0, 64, 49
1, 140596, Control_c, 0, 64, 46
1, 140618, Control_c, 0, 64, 44
1, 140633, Control_c, 0, 64, 44
1, 140663, Control_c, 0, 64, 41
1, 140678, Control_c, 0, 64, 34
1, 140692, Control_c, 0, 64, 0
1, 140701, Note_off_c, 0, 53, 47
1, 140846, Note_on_c, 0, 55, 82
1, 140945, Note_off_c, 0, 54, 62
1, 141147, Note_on_c, 0, 56, 91
1, 141172, Note_off_c, 0, 55, 64
1, 141196, Control_c, 0, 64, 44
1, 141210, Control_c, 0, 64, 61
1, 141216, Note_off_c, 0, 56, 63
1, 141225, Control_c, 0, 64, 69
1, 141240, Control_c, 0, 64, 74
1, 141255, Control_c, 0, 64, 85
1, 141270, Control_c, 0, 64, 127
1, 141757, Note_on_c, 0, 57, 77
1, 141847, Note_off_c, 0, 57, 65
1, 141915, Note_on_c, 0, 57, 92
1, 142049, Control_c, 0, 64, 100
1, 142064, Control_c, 0, 64, 83
1, 142079, Control_c, 0, 64, 70
1, 142094, Control_c, 0, 64, 58
1, 142116, Control_c, 0, 64, 51
1, 142131, Control_c, 0, 64, 48
1, 142146, Control_c, 0, 64, 46
1, 142160, Control_c, 0, 64, 43
1, 142175, Control_c, 0, 64, 38
1, 142191, Control_c, 0, 64, 33
1, 142206, Control_c, 0, 64, 31
1, 142310, Control_c, 0, 64, 32
1, 142369, Control_c, 0, 64, 36
1, 142383, Control_c, 0, 64, 40
1, 142398, Control_c, 0, 64, 41
1, 142428, Control_c, 0, 64, 42
1, 142443, Control_c, 0, 64, 47
1, 142457, Control_c, 0, 64, 57
1, 142472, Control_c, 0, 64, 68
1, 142480, Note_on_c, 0, 66, 66
1, 142485, Note_on_c, 0, 63, 58
1, 142487, Control_c, 0, 64, 78
1, 142488, Note_on_c, 0, 48, 67
1, 142502, Control_c, 0, 64, 94
1, 142517, Control_c, 0, 64, 123
1, 142522, Note_off_c, 0, 63, 66
1, 142531, Note_off_c, 0, 66, 62
1, 142531, Control_c, 0, 64, 127
1, 142555, Note_off_c, 0, 48, 48
1, 142581, Note_off_c, 0, 57, 58
1, 143079, Note_on_c, 0, 57, 91
1, 143205, Control_c, 0, 64, 110
1, 143220, Control_c, 0, 64, 86
1, 143235, Control_c, 0, 64, 74
1, 143250, Control_c, 0, 64, 65
1, 143265, Control_c, 0, 64, 58
1, 143279, Control_c, 0, 64, 54
1, 143294, Control_c, 0, 64, 51
1, 143309, Control_c, 0, 64, 48
1, 143324, Control_c, 0, 64, 45
1, 143338, Control_c, 0, 64, 42
1, 143353, Control_c, 0, 64, 35
1, 143368, Control_c, 0, 64, 0
1, 143628, Control_c, 0, 64, 31
1, 143643, Control_c, 0, 64, 45
1, 143657, Note_on_c, 0, 66, 69
1, 143657, Control_c, 0, 64, 62
1, 143664, Note_on_c, 0, 63, 67
1, 143666, Note_on_c, 0, 47, 58
1, 143672, Control_c, 0, 64, 74
1, 143687, Control_c, 0, 64, 88
1, 143702, Control_c, 0, 64, 114
1, 143717, Note_off_c, 0, 63, 62
1, 143717, Control_c, 0, 64, 127
1, 143724, Note_off_c, 0, 66, 64
1, 143761, Note_off_c, 0, 47, 62
1, 143774, Note_off_c, 0, 57, 59
1, 143941, Note_on_c, 0, 57, 91
1, 144136, Note_off_c, 0, 57, 61
1, 144277, Note_on_c, 0, 57, 88
1, 144337, Poly_aftertouch_c, 0, 50, 127
1, 144435, Control_c, 0, 64, 97
1, 144450, Control_c, 0, 64, 80
1, 144461, Poly_aftertouch_c, 0, 50, 0
1, 144465, Control_c, 0, 64, 69
1, 144480, Control_c, 0, 64, 59
1, 144495, Control_c, 0, 64, 42
1, 144510, Control_c, 0, 64, 0
1, 144963, Note_on_c, 0, 46, 65
1, 144963, Note_on_c, 0, 66, 78
1, 144971, Control_c, 0, 64, 38
1, 144974, Note_on_c, 0, 63, 68
1, 144985, Control_c, 0, 64, 60
1, 145000, Control_c, 0, 64, 76
1, 145015, Control_c, 0, 64, 104
1, 145030, Control_c, 0, 64, 127
1, 145046, Note_off_c, 0, 46, 61
1, 145054, Note_off_c, 0, 63, 63
1, 145078, Note_off_c, 0, 66, 64
1, 145460, Note_on_c, 0, 58, 86
1, 145586, Control_c, 0, 64, 123
1, 145590, Note_off_c, 0, 57, 54
1, 145601, Control_c, 0, 64, 106
1, 145616, Control_c, 0, 64, 101
1, 145631, Control_c, 0, 64, 99
1, 145661, Control_c, 0, 64, 97
1, 145675, Control_c, 0, 64, 94
1, 145690, Control_c, 0, 64, 91
1, 145705, Control_c, 0, 64, 88
1, 145719, Control_c, 0, 64, 86
1, 145734, Control_c, 0, 64, 83
1, 145749, Control_c, 0, 64, 80
1, 145764, Control_c, 0, 64, 75
1, 145779, Control_c, 0, 64, 68
1, 145794, Control_c, 0, 64, 63
1, 145808, Control_c, 0, 64, 59
1, 145823, Control_c, 0, 64, 57
1, 145838, Control_c, 0, 64, 54
1, 145860, Control_c, 0, 64, 50
1, 145875, Control_c, 0, 64, 45
1, 145890, Control_c, 0, 64, 40
1, 145905, Control_c, 0, 64, 36
1, 145920, Control_c, 0, 64, 31
1, 145934, Control_c, 0, 64, 0
1, 145984, Note_on_c, 0, 59, 82
1, 146171, Note_off_c, 0, 58, 56
1, 146377, Note_on_c, 0, 58, 84
1, 146424, Control_c, 0, 64, 40
1, 146439, Control_c, 0, 64, 55
1, 146453, Control_c, 0, 64, 66
1, 146468, Control_c, 0, 64, 73
1, 146483, Control_c, 0, 64, 80
1, 146492, Note_off_c, 0, 59, 57
1, 146498, Control_c, 0, 64, 85
1, 146513, Control_c, 0, 64, 93
1, 146528, Control_c, 0, 64, 118
1, 146542, Control_c, 0, 64, 127
1, 146689, Note_on_c, 0, 54, 78
1, 146713, Control_c, 0, 64, 100
1, 146728, Control_c, 0, 64, 76
1, 146743, Control_c, 0, 64, 60
1, 146757, Control_c, 0, 64, 35
1, 146772, Control_c, 0, 64, 0
1, 146831, Control_c, 0, 64, 40
1, 146846, Control_c, 0, 64, 60
1, 146861, Control_c, 0, 64, 72
1, 146875, Control_c, 0, 64, 82
1, 146890, Control_c, 0, 64, 89
1, 146905, Control_c, 0, 64, 94
1, 146910, Note_off_c, 0, 58, 55
1, 146920, Control_c, 0, 64, 103
1, 146934, Control_c, 0, 64, 127
1, 146970, Note_on_c, 0, 51, 77
1, 146996, Note_off_c, 0, 54, 64
1, 147002, Note_off_c, 0, 51, 66
1, 147363, Note_on_c, 0, 47, 79
1, 147505, Control_c, 0, 64, 110
1, 147520, Control_c, 0, 64, 90
1, 147535, Control_c, 0, 64, 79
1, 147550, Control_c, 0, 64, 69
1, 147565, Control_c, 0, 64, 61
1, 147579, Control_c, 0, 64, 53
1, 147594, Control_c, 0, 64, 50
1, 147609, Control_c, 0, 64, 45
1, 147624, Control_c, 0, 64, 39
1, 147639, Control_c, 0, 64, 35
1, 147653, Control_c, 0, 64, 33
1, 147668, Control_c, 0, 64, 32
1, 147684, Control_c, 0, 64, 32
1, 147698, Control_c, 0, 64, 33
1, 147713, Control_c, 0, 64, 33
1, 147758, Control_c, 0, 64, 35
1, 147774, Control_c, 0, 64, 40
1, 147789, Control_c, 0, 64, 41
1, 147833, Control_c, 0, 64, 42
1, 147848, Control_c, 0, 64, 44
1, 147863, Control_c, 0, 64, 45
1, 147921, Control_c, 0, 64, 46
1, 147936, Control_c, 0, 64, 47
1, 147951, Control_c, 0, 64, 46
1, 147966, Control_c, 0, 64, 46
1, 147981, Control_c, 0, 64, 45
1, 148010, Control_c, 0, 64, 46
1, 148040, Control_c, 0, 64, 46
1, 148069, Note_on_c, 0, 66, 72
1, 148075, Note_on_c, 0, 62, 62
1, 148081, Note_on_c, 0, 56, 58
1, 148084, Control_c, 0, 64, 47
1, 148107, Control_c, 0, 64, 51
1, 148122, Control_c, 0, 64, 56
1, 148136, Control_c, 0, 64, 59
1, 148151, Control_c, 0, 64, 61
1, 148166, Control_c, 0, 64, 64
1, 148181, Control_c, 0, 64, 67
1, 148196, Control_c, 0, 64, 71
1, 148210, Control_c, 0, 64, 75
1, 148225, Control_c, 0, 64, 79
1, 148240, Control_c, 0, 64, 83
1, 148255, Control_c, 0, 64, 89
1, 148270, Control_c, 0, 64, 97
1, 148284, Control_c, 0, 64, 109
1, 148299, Control_c, 0, 64, 127
1, 148793, Note_on_c, 0, 42, 45
1, 148900, Control_c, 0, 64, 113
1, 148915, Control_c, 0, 64, 99
1, 148930, Control_c, 0, 64, 91
1, 148945, Control_c, 0, 64, 85
1, 148959, Control_c, 0, 64, 81
1, 148974, Control_c, 0, 64, 76
1, 148989, Control_c, 0, 64, 70
1, 149004, Control_c, 0, 64, 65
1, 149004, Control_c, 0, 67, 34
1, 149019, Control_c, 0, 64, 63
1, 149019, Control_c, 0, 67, 51
1, 149027, Note_off_c, 0, 47, 56
1, 149033, Control_c, 0, 64, 63
1, 149033, Control_c, 0, 67, 64
1, 149048, Control_c, 0, 67, 75
1, 149063, Control_c, 0, 67, 81
1, 149078, Control_c, 0, 64, 62
1, 149078, Control_c, 0, 67, 85
1, 149093, Control_c, 0, 67, 89
1, 149107, Control_c, 0, 64, 62
1, 149107, Control_c, 0, 67, 95
1, 149122, Control_c, 0, 67, 107
1, 149137, Control_c, 0, 67, 123
1, 149151, Control_c, 0, 64, 61
1, 149151, Control_c, 0, 67, 127
1, 149166, Control_c, 0, 64, 59
1, 149181, Control_c, 0, 64, 59
1, 149226, Control_c, 0, 64, 58
1, 149241, Control_c, 0, 64, 56
1, 149256, Control_c, 0, 64, 55
1, 149270, Control_c, 0, 64, 54
1, 149315, Control_c, 0, 64, 53
1, 149330, Control_c, 0, 64, 51
1, 149344, Control_c, 0, 64, 49
1, 149359, Control_c, 0, 64, 49
1, 149375, Control_c, 0, 64, 48
1, 149381, Note_on_c, 0, 65, 63
1, 149390, Control_c, 0, 64, 46
1, 149405, Control_c, 0, 64, 42
1, 149406, Note_on_c, 0, 44, 52
1, 149413, Note_off_c, 0, 66, 63
1, 149419, Control_c, 0, 64, 36
1, 149434, Control_c, 0, 64, 31
1, 149452, Note_off_c, 0, 42, 64
1, 149464, Control_c, 0, 64, 0
1, 149553, Control_c, 0, 64, 33
1, 149567, Control_c, 0, 64, 41
1, 149582, Control_c, 0, 64, 50
1, 149604, Control_c, 0, 64, 59
1, 149619, Control_c, 0, 64, 66
1, 149634, Control_c, 0, 64, 71
1, 149649, Control_c, 0, 64, 74
1, 149664, Control_c, 0, 64, 76
1, 149664, Control_c, 0, 67, 119
1, 149679, Control_c, 0, 64, 78
1, 149679, Control_c, 0, 67, 110
1, 149694, Control_c, 0, 64, 81
1, 149694, Control_c, 0, 67, 99
1, 149708, Control_c, 0, 64, 84
1, 149708, Control_c, 0, 67, 85
1, 149723, Control_c, 0, 64, 88
1, 149723, Control_c, 0, 67, 75
1, 149738, Control_c, 0, 64, 91
1, 149738, Control_c, 0, 67, 74
1, 149753, Control_c, 0, 64, 93
1, 149753, Control_c, 0, 67, 84
1, 149768, Control_c, 0, 64, 94
1, 149768, Control_c, 0, 67, 93
1, 149777, Note_off_c, 0, 56, 55
1, 149782, Control_c, 0, 64, 95
1, 149782, Control_c, 0, 67, 98
1, 149797, Control_c, 0, 67, 102
1, 149812, Control_c, 0, 64, 96
1, 149812, Control_c, 0, 67, 108
1, 149827, Control_c, 0, 67, 121
1, 149842, Control_c, 0, 67, 127
1, 149855, Note_off_c, 0, 62, 57
1, 149867, Note_off_c, 0, 65, 57
1, 150004, Control_c, 0, 64, 95
1, 150063, Control_c, 0, 64, 94
1, 150075, Note_on_c, 0, 46, 56
1, 150078, Control_c, 0, 64, 94
1, 150093, Control_c, 0, 64, 93
1, 150108, Control_c, 0, 64, 92
1, 150123, Control_c, 0, 64, 91
1, 150138, Control_c, 0, 64, 90
1, 150153, Control_c, 0, 64, 87
1, 150168, Control_c, 0, 64, 84
1, 150183, Control_c, 0, 64, 81
1, 150198, Control_c, 0, 64, 80
1, 150212, Control_c, 0, 64, 78
1, 150227, Control_c, 0, 64, 75
1, 150231, Note_off_c, 0, 44, 37
1, 150242, Control_c, 0, 64, 72
1, 150257, Control_c, 0, 64, 67
1, 150272, Control_c, 0, 64, 63
1, 150287, Control_c, 0, 64, 60
1, 150302, Control_c, 0, 64, 58
1, 150316, Control_c, 0, 64, 55
1, 150331, Control_c, 0, 64, 53
1, 150353, Control_c, 0, 64, 51
1, 150368, Control_c, 0, 64, 49
1, 150383, Control_c, 0, 64, 49
1, 150397, Control_c, 0, 64, 48
1, 150412, Control_c, 0, 64, 46
1, 150427, Control_c, 0, 64, 44
1, 150442, Control_c, 0, 64, 43
1, 150472, Control_c, 0, 64, 43
1, 150487, Control_c, 0, 64, 41
1, 150502, Control_c, 0, 64, 37
1, 150516, Control_c, 0, 64, 35
1, 150665, Control_c, 0, 64, 34
1, 150679, Control_c, 0, 64, 34
1, 150709, Control_c, 0, 64, 34
1, 150753, Note_on_c, 0, 47, 49
1, 150812, Control_c, 0, 64, 34
1, 150889, Note_off_c, 0, 46, 59
1, 150916, Control_c, 0, 64, 34
1, 151080, Control_c, 0, 64, 35
1, 151146, Control_c, 0, 64, 36
1, 151161, Control_c, 0, 64, 37
1, 151176, Control_c, 0, 64, 38
1, 151220, Control_c, 0, 64, 38
1, 151235, Control_c, 0, 64, 40
1, 151250, Control_c, 0, 64, 42
1, 151294, Control_c, 0, 64, 42
1, 151309, Control_c, 0, 64, 43
1, 151324, Control_c, 0, 64, 45
1, 151384, Control_c, 0, 64, 45
1, 151399, Control_c, 0, 64, 47
1, 151413, Note_on_c, 0, 61, 50
1, 151414, Control_c, 0, 64, 50
1, 151428, Control_c, 0, 64, 51
1, 151432, Note_on_c, 0, 56, 35
1, 151443, Note_on_c, 0, 53, 34
1, 151443, Control_c, 0, 64, 52
1, 151458, Control_c, 0, 64, 52
1, 151472, Control_c, 0, 64, 55
1, 151487, Control_c, 0, 64, 60
1, 151502, Control_c, 0, 64, 65
1, 151517, Control_c, 0, 64, 68
1, 151532, Control_c, 0, 64, 71
1, 151546, Control_c, 0, 64, 74
1, 151561, Control_c, 0, 64, 77
1, 151576, Control_c, 0, 64, 82
1, 151591, Control_c, 0, 64, 88
1, 151606, Control_c, 0, 64, 95
1, 151620, Control_c, 0, 64, 105
1, 151635, Control_c, 0, 64, 127
1, 151645, Note_off_c, 0, 53, 54
1, 151679, Note_off_c, 0, 56, 40
1, 151760, Note_off_c, 0, 47, 29
1, 152204, Note_on_c, 0, 48, 43
1, 152207, Note_on_c, 0, 58, 38
1, 152229, Note_on_c, 0, 52, 34
1, 152235, Control_c, 0, 64, 111
1, 152237, Note_on_c, 0, 55, 20
1, 152250, Control_c, 0, 64, 93
1, 152265, Control_c, 0, 64, 79
1, 152280, Control_c, 0, 64, 66
1, 152294, Control_c, 0, 64, 50
1, 152309, Control_c, 0, 64, 37
1, 152324, Control_c, 0, 64, 31
1, 152354, Control_c, 0, 64, 33
1, 152368, Control_c, 0, 64, 41
1, 152383, Control_c, 0, 64, 51
1, 152398, Control_c, 0, 64, 61
1, 152413, Control_c, 0, 64, 66
1, 152428, Control_c, 0, 64, 70
1, 152442, Control_c, 0, 64, 76
1, 152457, Control_c, 0, 64, 83
1, 152461, Note_off_c, 0, 61, 36
1, 152472, Control_c, 0, 64, 91
1, 152487, Control_c, 0, 64, 99
1, 152502, Control_c, 0, 64, 109
1, 152517, Control_c, 0, 64, 127
1, 152574, Note_off_c, 0, 52, 41
1, 152588, Note_off_c, 0, 48, 57
1, 152666, Note_off_c, 0, 58, 36
1, 152810, Note_on_c, 0, 60, 46
1, 152845, Note_off_c, 0, 55, 44
1, 152862, Note_off_c, 0, 60, 59
1, 153479, Note_on_c, 0, 80, 62
1, 153521, Note_on_c, 0, 29, 36
1, 153526, Control_c, 0, 64, 118
1, 153536, Note_on_c, 0, 41, 38
1, 153540, Control_c, 0, 64, 84
1, 153547, Note_on_c, 0, 68, 3
1, 153555, Control_c, 0, 64, 65
1, 153570, Control_c, 0, 64, 51
1, 153585, Control_c, 0, 64, 44
1, 153600, Control_c, 0, 64, 44
1, 153614, Control_c, 0, 64, 46
1, 153629, Control_c, 0, 64, 54
1, 153644, Control_c, 0, 64, 64
1, 153659, Control_c, 0, 64, 72
1, 153673, Control_c, 0, 64, 82
1, 153688, Control_c, 0, 64, 95
1, 153700, Note_off_c, 0, 29, 53
1, 153703, Control_c, 0, 64, 110
1, 153718, Control_c, 0, 64, 127
1, 153734, Note_off_c, 0, 41, 48
1, 153745, Note_off_c, 0, 68, 18
1, 154165, Note_on_c, 0, 65, 39
1, 154177, Note_on_c, 0, 77, 49
1, 154178, Note_on_c, 0, 56, 38
1, 154179, Note_on_c, 0, 68, 34
1, 154189, Note_on_c, 0, 60, 38
1, 154225, Poly_aftertouch_c, 0, 72, 127
1, 154238, Note_off_c, 0, 68, 56
1, 154240, Note_off_c, 0, 80, 59
1, 154287, Note_off_c, 0, 65, 45
1, 154300, Note_off_c, 0, 56, 57
1, 154314, Note_off_c, 0, 60, 51
1, 154473, Note_on_c, 0, 79, 63
1, 154498, Note_on_c, 0, 67, 35
1, 154512, Poly_aftertouch_c, 0, 72, 0
1, 154532, Note_off_c, 0, 77, 46
1, 154557, Note_off_c, 0, 67, 43
1, 154609, Note_on_c, 0, 77, 72
1, 154612, Note_off_c, 0, 79, 58
1, 154791, Note_on_c, 0, 76, 73
1, 154806, Note_on_c, 0, 64, 50
1, 154812, Note_off_c, 0, 77, 62
1, 154824, Note_on_c, 0, 29, 39
1, 154824, Note_on_c, 0, 41, 37
1, 154845, Control_c, 0, 64, 85
1, 154860, Control_c, 0, 64, 63
1, 154875, Control_c, 0, 64, 50
1, 154889, Control_c, 0, 64, 45
1, 154904, Control_c, 0, 64, 45
1, 154919, Control_c, 0, 64, 47
1, 154934, Control_c, 0, 64, 56
1, 154949, Control_c, 0, 64, 64
1, 154964, Control_c, 0, 64, 76
1, 154979, Control_c, 0, 64, 96
1, 154994, Note_off_c, 0, 29, 54
1, 154994, Control_c, 0, 64, 127
1, 155012, Note_off_c, 0, 41, 54
1, 155059, Note_off_c, 0, 64, 40
1, 155411, Note_on_c, 0, 68, 40
1, 155415, Note_on_c, 0, 72, 49
1, 155422, Note_on_c, 0, 52, 38
1, 155429, Note_on_c, 0, 56, 35
1, 155432, Note_on_c, 0, 60, 39
1, 155438, Note_on_c, 0, 64, 37
1, 155462, Note_off_c, 0, 76, 53
1, 155486, Note_off_c, 0, 52, 56
1, 155496, Note_off_c, 0, 56, 50
1, 155497, Note_off_c, 0, 64, 63
1, 155507, Note_off_c, 0, 60, 46
1, 155702, Note_on_c, 0, 75, 70
1, 155703, Note_off_c, 0, 72, 63
1, 155709, Note_on_c, 0, 63, 55
1, 155741, Note_off_c, 0, 68, 61
1, 155761, Note_off_c, 0, 63, 58
1, 155837, Note_on_c, 0, 73, 68
1, 155854, Note_off_c, 0, 75, 64
1, 155873, Note_on_c, 0, 61, 47
1, 155955, Note_off_c, 0, 61, 58
1, 156005, Note_off_c, 0, 73, 62
1, 156028, Note_on_c, 0, 72, 59
1, 156047, Note_on_c, 0, 60, 45
1, 156057, Note_on_c, 0, 41, 42
1, 156060, Note_on_c, 0, 29, 45
1, 156083, Control_c, 0, 64, 86
1, 156098, Control_c, 0, 64, 63
1, 156113, Control_c, 0, 64, 39
1, 156128, Control_c, 0, 64, 0
1, 156172, Control_c, 0, 64, 30
1, 156187, Control_c, 0, 64, 51
1, 156202, Control_c, 0, 64, 65
1, 156216, Control_c, 0, 64, 76
1, 156221, Note_off_c, 0, 29, 62
1, 156231, Control_c, 0, 64, 95
1, 156246, Note_off_c, 0, 41, 64
1, 156246, Control_c, 0, 64, 127
1, 156321, Note_off_c, 0, 60, 60
1, 156683, Note_on_c, 0, 68, 49
1, 156686, Note_on_c, 0, 65, 46
1, 156699, Note_on_c, 0, 56, 45
1, 156705, Note_on_c, 0, 48, 41
1, 156707, Note_on_c, 0, 53, 33
1, 156726, Note_off_c, 0, 65, 51
1, 156731, Note_on_c, 0, 60, 12
1, 156741, Note_off_c, 0, 68, 54
1, 156746, Note_off_c, 0, 53, 55
1, 156749, Note_off_c, 0, 56, 63
1, 156750, Note_off_c, 0, 48, 59
1, 156776, Note_off_c, 0, 60, 44
1, 157157, Note_on_c, 0, 68, 52
1, 157164, Note_on_c, 0, 56, 44
1, 157165, Note_on_c, 0, 65, 47
1, 157171, Note_on_c, 0, 53, 45
1, 157176, Note_on_c, 0, 48, 49
1, 157179, Note_on_c, 0, 60, 33
1, 157197, Note_off_c, 0, 65, 56
1, 157211, Note_off_c, 0, 56, 59
1, 157213, Note_off_c, 0, 53, 59
1, 157213, Note_off_c, 0, 68, 56
1, 157221, Note_off_c, 0, 48, 55
1, 157223, Note_off_c, 0, 60, 49
1, 157296, Note_on_c, 0, 65, 51
1, 157314, Note_on_c, 0, 68, 46
1, 157327, Note_on_c, 0, 56, 39
1, 157327, Note_on_c, 0, 60, 42
1, 157330, Note_off_c, 0, 65, 59
1, 157340, Note_on_c, 0, 48, 40
1, 157340, Note_on_c, 0, 53, 33
1, 157342, Note_off_c, 0, 68, 56
1, 157575, Note_on_c, 0, 73, 72
1, 157587, Note_on_c, 0, 61, 60
1, 157594, Note_off_c, 0, 72, 60
1, 157626, Control_c, 0, 67, 119
1, 157641, Control_c, 0, 67, 108
1, 157655, Control_c, 0, 67, 94
1, 157659, Note_off_c, 0, 60, 42
1, 157670, Control_c, 0, 67, 84
1, 157681, Note_off_c, 0, 61, 62
1, 157685, Control_c, 0, 67, 79
1, 157699, Control_c, 0, 67, 78
1, 157714, Control_c, 0, 67, 75
1, 157729, Control_c, 0, 67, 63
1, 157744, Control_c, 0, 67, 46
1, 157759, Control_c, 0, 67, 34
1, 157764, Note_off_c, 0, 56, 51
1, 157773, Control_c, 0, 67, 0
1, 157839, Note_off_c, 0, 48, 38
1, 157863, Note_on_c, 0, 76, 80
1, 157876, Note_on_c, 0, 64, 69
1, 157906, Note_off_c, 0, 64, 67
1, 157910, Note_off_c, 0, 73, 61
1, 157912, Note_off_c, 0, 53, 51
1, 157950, Note_off_c, 0, 76, 60
1, 158320, Note_on_c, 0, 77, 69
1, 158330, Note_on_c, 0, 65, 54
1, 158353, Note_off_c, 0, 65, 60
1, 158504, Note_on_c, 0, 80, 72
1, 158516, Note_on_c, 0, 68, 45
1, 158521, Note_on_c, 0, 41, 44
1, 158522, Control_c, 0, 64, 107
1, 158523, Note_on_c, 0, 29, 49
1, 158537, Control_c, 0, 64, 75
1, 158541, Note_off_c, 0, 77, 63
1, 158552, Control_c, 0, 64, 56
1, 158567, Control_c, 0, 64, 38
1, 158589, Control_c, 0, 64, 33
1, 158619, Control_c, 0, 64, 35
1, 158633, Control_c, 0, 64, 50
1, 158648, Control_c, 0, 64, 63
1, 158663, Control_c, 0, 64, 74
1, 158669, Note_off_c, 0, 29, 62
1, 158678, Control_c, 0, 64, 91
1, 158691, Note_off_c, 0, 41, 63
1, 158693, Control_c, 0, 64, 110
1, 158708, Control_c, 0, 64, 127
1, 158832, Note_off_c, 0, 68, 40
1, 159064, Control_c, 0, 67, 36
1, 159078, Control_c, 0, 67, 43
1, 159093, Control_c, 0, 67, 41
1, 159109, Note_on_c, 0, 77, 54
1, 159115, Note_on_c, 0, 72, 45
1, 159116, Note_on_c, 0, 65, 41
1, 159123, Control_c, 0, 67, 41
1, 159133, Note_on_c, 0, 56, 32
1, 159134, Note_on_c, 0, 60, 38
1, 159134, Note_on_c, 0, 68, 33
1, 159152, Control_c, 0, 67, 38
1, 159167, Control_c, 0, 67, 34
1, 159182, Control_c, 0, 67, 0
1, 159186, Note_off_c, 0, 68, 56
1, 159193, Note_off_c, 0, 80, 61
1, 159197, Control_c, 0, 67, 34
1, 159215, Note_off_c, 0, 65, 55
1, 159227, Control_c, 0, 67, 0
1, 159277, Note_off_c, 0, 56, 34
1, 159298, Note_off_c, 0, 60, 35
1, 159367, Note_off_c, 0, 72, 0
1, 159397, Note_on_c, 0, 79, 68
1, 159404, Poly_aftertouch_c, 0, 72, 127
1, 159414, Note_on_c, 0, 67, 52
1, 159436, Note_off_c, 0, 77, 54
1, 159456, Note_off_c, 0, 67, 47
1, 159457, Poly_aftertouch_c, 0, 72, 0
1, 159516, Note_off_c, 0, 79, 57
1, 159534, Note_on_c, 0, 77, 78
1, 159634, Poly_aftertouch_c, 0, 65, 127
1, 159665, Poly_aftertouch_c, 0, 65, 0
1, 159719, Note_on_c, 0, 76, 67
1, 159723, Control_c, 0, 67, 34
1, 159731, Note_on_c, 0, 64, 51
1, 159738, Control_c, 0, 67, 35
1, 159744, Note_on_c, 0, 41, 46
1, 159748, Note_off_c, 0, 77, 59
1, 159750, Note_on_c, 0, 29, 49
1, 159783, Control_c, 0, 64, 88
1, 159783, Control_c, 0, 67, 37
1, 159798, Control_c, 0, 64, 66
1, 159798, Control_c, 0, 67, 42
1, 159813, Control_c, 0, 64, 48
1, 159813, Control_c, 0, 67, 50
1, 159828, Control_c, 0, 64, 39
1, 159828, Control_c, 0, 67, 55
1, 159843, Control_c, 0, 64, 39
1, 159843, Control_c, 0, 67, 54
1, 159857, Control_c, 0, 64, 45
1, 159857, Control_c, 0, 67, 54
1, 159872, Control_c, 0, 64, 59
1, 159887, Control_c, 0, 64, 71
1, 159887, Control_c, 0, 67, 54
1, 159901, Control_c, 0, 64, 86
1, 159901, Control_c, 0, 67, 53
1, 159910, Note_off_c, 0, 29, 62
1, 159916, Control_c, 0, 64, 113
1, 159916, Control_c, 0, 67, 51
1, 159931, Control_c, 0, 64, 127
1, 159931, Control_c, 0, 67, 50
1, 159932, Note_off_c, 0, 41, 64
1, 159964, Note_off_c, 0, 64, 63
1, 160005, Control_c, 0, 67, 51
1, 160020, Control_c, 0, 67, 52
1, 160064, Control_c, 0, 67, 51
1, 160102, Control_c, 0, 67, 52
1, 160131, Control_c, 0, 67, 52
1, 160176, Control_c, 0, 67, 54
1, 160190, Control_c, 0, 67, 55
1, 160249, Control_c, 0, 67, 58
1, 160264, Control_c, 0, 67, 63
1, 160279, Control_c, 0, 67, 71
1, 160297, Note_on_c, 0, 72, 49
1, 160309, Control_c, 0, 67, 72
1, 160314, Note_on_c, 0, 68, 41
1, 160319, Note_on_c, 0, 60, 44
1, 160323, Note_on_c, 0, 52, 39
1, 160324, Control_c, 0, 67, 73
1, 160324, Note_on_c, 0, 56, 44
1, 160339, Control_c, 0, 67, 72
1, 160345, Note_on_c, 0, 64, 32
1, 160347, Note_off_c, 0, 76, 64
1, 160353, Control_c, 0, 67, 71
1, 160368, Control_c, 0, 67, 69
1, 160383, Note_off_c, 0, 52, 56
1, 160383, Control_c, 0, 67, 69
1, 160383, Note_off_c, 0, 60, 60
1, 160386, Note_off_c, 0, 68, 0
1, 160386, Note_on_c, 0, 68, 14
1, 160389, Note_off_c, 0, 56, 55
1, 160393, Note_off_c, 0, 64, 48
1, 160398, Control_c, 0, 67, 70
1, 160413, Control_c, 0, 67, 69
1, 160427, Control_c, 0, 67, 68
1, 160442, Control_c, 0, 67, 67
1, 160457, Control_c, 0, 67, 66
1, 160472, Control_c, 0, 67, 67
1, 160487, Control_c, 0, 67, 67
1, 160501, Control_c, 0, 67, 66
1, 160547, Control_c, 0, 67, 69
1, 160562, Control_c, 0, 67, 73
1, 160577, Control_c, 0, 67, 74
1, 160580, Note_on_c, 0, 75, 68
1, 160581, Note_on_c, 0, 63, 63
1, 160599, Note_off_c, 0, 72, 63
1, 160621, Control_c, 0, 67, 75
1, 160635, Note_off_c, 0, 63, 50
1, 160636, Control_c, 0, 67, 79
1, 160640, Note_off_c, 0, 68, 40
1, 160650, Control_c, 0, 67, 93
1, 160665, Control_c, 0, 67, 101
1, 160719, Note_on_c, 0, 73, 68
1, 160732, Note_off_c, 0, 75, 64
1, 160749, Note_on_c, 0, 61, 48
1, 160794, Note_off_c, 0, 61, 60
1, 160843, Note_off_c, 0, 73, 63
1, 160896, Note_on_c, 0, 72, 57
1, 160916, Note_on_c, 0, 60, 44
1, 160924, Note_on_c, 0, 41, 44
1, 160929, Note_on_c, 0, 29, 35
1, 160954, Control_c, 0, 67, 105
1, 160969, Control_c, 0, 64, 87
1, 160969, Control_c, 0, 67, 107
1, 160984, Control_c, 0, 64, 61
1, 160984, Control_c, 0, 67, 116
1, 160999, Control_c, 0, 64, 40
1, 160999, Control_c, 0, 67, 125
1, 161013, Control_c, 0, 64, 31
1, 161028, Control_c, 0, 67, 127
1, 161043, Control_c, 0, 64, 37
1, 161057, Control_c, 0, 64, 52
1, 161072, Control_c, 0, 64, 67
1, 161087, Control_c, 0, 64, 82
1, 161102, Control_c, 0, 64, 97
1, 161105, Note_off_c, 0, 29, 56
1, 161117, Note_off_c, 0, 41, 64
1, 161117, Control_c, 0, 64, 116
1, 161131, Control_c, 0, 64, 127
1, 161146, Control_c, 0, 67, 123
1, 161162, Control_c, 0, 67, 121
1, 161207, Note_off_c, 0, 60, 58
1, 161221, Control_c, 0, 67, 119
1, 161236, Control_c, 0, 67, 116
1, 161310, Control_c, 0, 67, 112
1, 161370, Control_c, 0, 67, 115
1, 161400, Control_c, 0, 67, 112
1, 161444, Control_c, 0, 67, 114
1, 161474, Control_c, 0, 67, 112
1, 161504, Control_c, 0, 67, 114
1, 161529, Note_on_c, 0, 68, 48
1, 161537, Note_on_c, 0, 65, 40
1, 161541, Note_on_c, 0, 48, 44
1, 161548, Note_on_c, 0, 53, 40
1, 161552, Note_on_c, 0, 56, 39
1, 161567, Note_on_c, 0, 60, 18
1, 161594, Note_off_c, 0, 65, 45
1, 161603, Note_off_c, 0, 68, 48
1, 161610, Note_off_c, 0, 48, 59
1, 161610, Note_off_c, 0, 56, 60
1, 161612, Note_off_c, 0, 53, 60
1, 161620, Note_off_c, 0, 60, 61
1, 161629, Control_c, 0, 67, 111
1, 161749, Control_c, 0, 67, 114
1, 161778, Control_c, 0, 67, 111
1, 161822, Control_c, 0, 67, 114
1, 161837, Control_c, 0, 67, 112
1, 161852, Control_c, 0, 67, 109
1, 161896, Control_c, 0, 67, 112
1, 161910, Control_c, 0, 67, 110
1, 161940, Control_c, 0, 67, 108
1, 161960, Note_on_c, 0, 68, 53
1, 161966, Note_on_c, 0, 53, 44
1, 161967, Note_on_c, 0, 56, 45
1, 161967, Note_on_c, 0, 65, 41
1, 161969, Note_on_c, 0, 48, 52
1, 161969, Control_c, 0, 67, 110
1, 161977, Note_on_c, 0, 60, 36
1, 161995, Note_off_c, 0, 65, 56
1, 161997, Note_off_c, 0, 68, 62
1, 161999, Control_c, 0, 67, 105
1, 162004, Note_off_c, 0, 56, 62
1, 162008, Note_off_c, 0, 53, 61
1, 162011, Note_off_c, 0, 60, 53
1, 162012, Note_off_c, 0, 48, 61
1, 162014, Control_c, 0, 67, 101
1, 162029, Control_c, 0, 67, 98
1, 162073, Control_c, 0, 67, 95
1, 162088, Control_c, 0, 67, 92
1, 162103, Control_c, 0, 67, 91
1, 162106, Note_on_c, 0, 60, 51
1, 162107, Note_on_c, 0, 68, 58
1, 162112, Note_on_c, 0, 56, 44
1, 162118, Note_on_c, 0, 53, 51
1, 162118, Note_on_c, 0, 65, 18
1, 162118, Control_c, 0, 67, 91
1, 162126, Note_on_c, 0, 48, 47
1, 162133, Control_c, 0, 67, 90
1, 162136, Note_off_c, 0, 68, 67
1, 162148, Control_c, 0, 67, 88
1, 162160, Note_off_c, 0, 72, 61
1, 162163, Control_c, 0, 67, 87
1, 162165, Note_off_c, 0, 65, 51
1, 162174, Note_off_c, 0, 60, 0
1, 162174, Note_on_c, 0, 60, 29
1, 162178, Control_c, 0, 67, 88
1, 162193, Control_c, 0, 67, 89
1, 162208, Control_c, 0, 67, 88
1, 162222, Control_c, 0, 67, 85
1, 162237, Control_c, 0, 67, 85
1, 162252, Control_c, 0, 67, 88
1, 162267, Control_c, 0, 67, 89
1, 162282, Control_c, 0, 67, 87
1, 162296, Control_c, 0, 67, 85
1, 162333, Control_c, 0, 67, 87
1, 162363, Control_c, 0, 67, 85
1, 162377, Control_c, 0, 67, 83
1, 162401, Note_on_c, 0, 76, 65
1, 162407, Control_c, 0, 67, 84
1, 162422, Control_c, 0, 67, 85
1, 162429, Note_on_c, 0, 64, 41
1, 162437, Control_c, 0, 67, 84
1, 162452, Control_c, 0, 67, 82
1, 162467, Control_c, 0, 67, 82
1, 162511, Control_c, 0, 67, 79
1, 162518, Note_off_c, 0, 64, 38
1, 162526, Control_c, 0, 67, 65
1, 162541, Control_c, 0, 67, 51
1, 162556, Control_c, 0, 67, 49
1, 162571, Control_c, 0, 67, 48
1, 162581, Note_off_c, 0, 60, 42
1, 162585, Control_c, 0, 67, 46
1, 162600, Control_c, 0, 67, 44
1, 162615, Control_c, 0, 67, 0
1, 162670, Note_on_c, 0, 77, 84
1, 162670, Note_off_c, 0, 56, 63
1, 162693, Note_on_c, 0, 65, 50
1, 162694, Note_off_c, 0, 76, 64
1, 162716, Note_off_c, 0, 65, 59
1, 162759, Note_off_c, 0, 48, 47
1, 162764, Note_off_c, 0, 53, 61
1, 162929, Note_off_c, 0, 77, 60
1, 162947, Note_on_c, 0, 80, 81
1, 162954, Note_on_c, 0, 68, 72
1, 162978, Note_off_c, 0, 68, 69
1, 163030, Note_off_c, 0, 80, 65
1, 163290, Note_on_c, 0, 85, 81
1, 163306, Note_on_c, 0, 41, 53
1, 163308, Note_on_c, 0, 73, 63
1, 163316, Note_on_c, 0, 29, 51
1, 163334, Control_c, 0, 64, 109
1, 163349, Control_c, 0, 64, 71
1, 163364, Control_c, 0, 64, 39
1, 163379, Control_c, 0, 64, 0
1, 163423, Control_c, 0, 64, 30
1, 163438, Control_c, 0, 64, 57
1, 163449, Note_off_c, 0, 29, 63
1, 163452, Control_c, 0, 64, 76
1, 163467, Control_c, 0, 64, 114
1, 163482, Control_c, 0, 64, 127
1, 163485, Note_off_c, 0, 41, 64
1, 163585, Note_off_c, 0, 73, 61
1, 163895, Note_on_c, 0, 70, 50
1, 163895, Note_on_c, 0, 82, 54
1, 163896, Note_on_c, 0, 77, 38
1, 163902, Note_on_c, 0, 61, 42
1, 163910, Note_on_c, 0, 73, 41
1, 163914, Note_on_c, 0, 65, 43
1, 163954, Note_off_c, 0, 73, 64
1, 163965, Note_off_c, 0, 70, 62
1, 163966, Note_off_c, 0, 65, 51
1, 163993, Note_off_c, 0, 61, 56
1, 164006, Note_off_c, 0, 85, 63
1, 164178, Note_on_c, 0, 84, 71
1, 164189, Note_on_c, 0, 72, 58
1, 164197, Note_off_c, 0, 82, 59
1, 164219, Note_off_c, 0, 72, 65
1, 164243, Note_off_c, 0, 77, 42
1, 164325, Note_on_c, 0, 82, 76
1, 164344, Note_on_c, 0, 70, 62
1, 164345, Note_off_c, 0, 84, 63
1, 164381, Note_off_c, 0, 70, 58
1, 164464, Note_off_c, 0, 82, 63
1, 164495, Note_on_c, 0, 81, 73
1, 164519, Note_on_c, 0, 69, 58
1, 164524, Note_on_c, 0, 29, 43
1, 164530, Note_on_c, 0, 41, 44
1, 164559, Control_c, 0, 64, 102
1, 164580, Control_c, 0, 64, 70
1, 164595, Control_c, 0, 64, 45
1, 164610, Control_c, 0, 64, 0
1, 164640, Control_c, 0, 64, 35
1, 164655, Control_c, 0, 64, 63
1, 164670, Control_c, 0, 64, 83
1, 164679, Note_off_c, 0, 29, 62
1, 164685, Control_c, 0, 64, 127
1, 164694, Note_off_c, 0, 41, 64
1, 164801, Note_off_c, 0, 69, 59
1, 165080, Note_on_c, 0, 57, 45
1, 165080, Note_on_c, 0, 77, 57
1, 165084, Note_on_c, 0, 73, 40
1, 165091, Note_on_c, 0, 65, 44
1, 165094, Note_on_c, 0, 61, 37
1, 165097, Note_on_c, 0, 69, 33
1, 165122, Note_off_c, 0, 81, 63
1, 165129, Note_off_c, 0, 69, 56
1, 165136, Note_off_c, 0, 61, 59
1, 165137, Note_off_c, 0, 57, 61
1, 165137, Note_off_c, 0, 65, 47
1, 165352, Note_on_c, 0, 80, 74
1, 165359, Note_on_c, 0, 68, 64
1, 165372, Note_off_c, 0, 77, 62
1, 165376, Note_off_c, 0, 73, 54
1, 165411, Note_off_c, 0, 68, 50
1, 165496, Note_on_c, 0, 78, 72
1, 165509, Note_on_c, 0, 66, 59
1, 165536, Note_off_c, 0, 80, 60
1, 165582, Note_off_c, 0, 66, 61
1, 165641, Note_off_c, 0, 78, 62
1, 165661, Note_on_c, 0, 77, 69
1, 165679, Note_on_c, 0, 65, 56
1, 165683, Note_on_c, 0, 29, 54
1, 165692, Note_on_c, 0, 41, 50
1, 165698, Control_c, 0, 64, 99
1, 165713, Control_c, 0, 64, 71
1, 165728, Control_c, 0, 64, 50
1, 165743, Control_c, 0, 64, 31
1, 165773, Control_c, 0, 64, 43
1, 165788, Control_c, 0, 64, 62
1, 165802, Control_c, 0, 64, 80
1, 165817, Control_c, 0, 64, 127
1, 165826, Note_off_c, 0, 29, 55
1, 165837, Note_off_c, 0, 41, 63
1, 165924, Note_off_c, 0, 65, 58
1, 166270, Note_on_c, 0, 73, 55
1, 166274, Note_on_c, 0, 70, 50
1, 166279, Note_on_c, 0, 53, 45
1, 166285, Note_on_c, 0, 58, 50
1, 166286, Note_on_c, 0, 61, 47
1, 166294, Note_on_c, 0, 65, 35
1, 166320, Note_off_c, 0, 58, 64
1, 166321, Note_off_c, 0, 61, 64
1, 166326, Note_off_c, 0, 53, 63
1, 166330, Note_off_c, 0, 70, 55
1, 166332, Note_off_c, 0, 65, 60
1, 166336, Note_off_c, 0, 73, 61
1, 166738, Note_on_c, 0, 73, 55
1, 166739, Note_on_c, 0, 61, 54
1, 166739, Note_on_c, 0, 58, 54
1, 166740, Note_on_c, 0, 70, 53
1, 166748, Note_on_c, 0, 53, 49
1, 166755, Note_on_c, 0, 65, 40
1, 166781, Note_off_c, 0, 70, 59
1, 166781, Note_off_c, 0, 61, 61
1, 166783, Note_off_c, 0, 53, 61
1, 166784, Note_off_c, 0, 58, 59
1, 166786, Note_off_c, 0, 65, 52
1, 166786, Note_off_c, 0, 73, 56
1, 166881, Note_on_c, 0, 65, 57
1, 166885, Note_on_c, 0, 70, 61
1, 166887, Note_on_c, 0, 73, 60
1, 166892, Note_on_c, 0, 53, 45
1, 166893, Note_on_c, 0, 58, 51
1, 166894, Note_on_c, 0, 61, 49
1, 166917, Note_off_c, 0, 70, 63
1, 166921, Note_off_c, 0, 73, 63
1, 167174, Note_on_c, 0, 78, 75
1, 167186, Note_on_c, 0, 66, 62
1, 167201, Note_off_c, 0, 77, 60
1, 167276, Note_off_c, 0, 66, 60
1, 167323, Note_off_c, 0, 65, 38
1, 167446, Note_on_c, 0, 81, 89
1, 167461, Note_on_c, 0, 69, 75
1, 167467, Note_off_c, 0, 61, 65
1, 167477, Note_off_c, 0, 53, 62
1, 167484, Note_off_c, 0, 69, 68
1, 167484, Note_off_c, 0, 78, 61
1, 167488, Note_off_c, 0, 58, 64
1, 167880, Note_off_c, 0, 81, 61
1, 167883, Note_on_c, 0, 82, 84
1, 167887, Note_on_c, 0, 70, 76
1, 167929, Note_off_c, 0, 70, 57
1, 168067, Note_on_c, 0, 85, 85
1, 168072, Note_on_c, 0, 29, 58
1, 168075, Note_on_c, 0, 41, 55
1, 168077, Note_on_c, 0, 73, 56
1, 168078, Control_c, 0, 64, 88
1, 168093, Control_c, 0, 64, 61
1, 168107, Control_c, 0, 64, 0
1, 168112, Note_off_c, 0, 82, 59
1, 168152, Control_c, 0, 64, 35
1, 168166, Control_c, 0, 64, 62
1, 168181, Control_c, 0, 64, 89
1, 168183, Note_off_c, 0, 29, 63
1, 168196, Control_c, 0, 64, 127
1, 168207, Note_off_c, 0, 41, 64
1, 168271, Note_off_c, 0, 73, 57
1, 168640, Note_on_c, 0, 70, 59
1, 168640, Note_on_c, 0, 82, 65
1, 168652, Note_on_c, 0, 73, 47
1, 168655, Note_on_c, 0, 65, 42
1, 168658, Note_on_c, 0, 61, 43
1, 168661, Note_on_c, 0, 77, 41
1, 168678, Note_off_c, 0, 73, 64
1, 168696, Note_off_c, 0, 70, 64
1, 168703, Note_off_c, 0, 65, 62
1, 168703, Note_off_c, 0, 61, 62
1, 168749, Note_off_c, 0, 85, 51
1, 168917, Note_on_c, 0, 84, 81
1, 168925, Note_on_c, 0, 72, 60
1, 168947, Note_off_c, 0, 82, 64
1, 168958, Note_off_c, 0, 72, 61
1, 168971, Note_off_c, 0, 77, 46
1, 169058, Note_on_c, 0, 82, 83
1, 169079, Note_on_c, 0, 70, 73
1, 169101, Note_off_c, 0, 84, 59
1, 169138, Note_off_c, 0, 70, 57
1, 169213, Note_off_c, 0, 82, 64
1, 169229, Note_on_c, 0, 81, 82
1, 169249, Note_on_c, 0, 69, 68
1, 169252, Note_on_c, 0, 41, 53
1, 169257, Note_on_c, 0, 29, 56
1, 169263, Control_c, 0, 64, 107
1, 169278, Control_c, 0, 64, 72
1, 169293, Control_c, 0, 64, 47
1, 169308, Control_c, 0, 64, 0
1, 169339, Control_c, 0, 64, 30
1, 169354, Control_c, 0, 64, 55
1, 169368, Control_c, 0, 64, 74
1, 169377, Note_off_c, 0, 29, 63
1, 169383, Control_c, 0, 64, 111
1, 169392, Note_off_c, 0, 41, 65
1, 169398, Control_c, 0, 64, 127
1, 169538, Note_off_c, 0, 69, 60
1, 169836, Note_on_c, 0, 57, 46
1, 169839, Note_on_c, 0, 73, 47
1, 169843, Note_on_c, 0, 65, 41
1, 169847, Note_on_c, 0, 77, 51
1, 169855, Note_on_c, 0, 61, 46
1, 169860, Note_on_c, 0, 69, 40
1, 169885, Note_off_c, 0, 81, 63
1, 169908, Note_off_c, 0, 69, 64
1, 169919, Note_off_c, 0, 61, 56
1, 169943, Note_off_c, 0, 57, 56
1, 169961, Note_off_c, 0, 65, 44
1, 170110, Note_on_c, 0, 80, 72
1, 170121, Note_on_c, 0, 68, 59
1, 170128, Note_off_c, 0, 77, 63
1, 170155, Note_off_c, 0, 73, 53
1, 170158, Note_off_c, 0, 68, 63
1, 170250, Note_on_c, 0, 78, 76
1, 170262, Note_on_c, 0, 66, 62
1, 170287, Note_off_c, 0, 80, 63
1, 170354, Note_off_c, 0, 66, 54
1, 170393, Note_off_c, 0, 78, 61
1, 170425, Note_on_c, 0, 77, 67
1, 170440, Note_on_c, 0, 29, 51
1, 170447, Note_on_c, 0, 41, 46
1, 170451, Note_on_c, 0, 65, 54
1, 170488, Control_c, 0, 64, 90
1, 170503, Control_c, 0, 64, 64
1, 170517, Control_c, 0, 64, 32
1, 170532, Control_c, 0, 64, 0
1, 170569, Control_c, 0, 64, 30
1, 170584, Control_c, 0, 64, 59
1, 170599, Control_c, 0, 64, 78
1, 170614, Control_c, 0, 64, 112
1, 170621, Note_off_c, 0, 29, 62
1, 170629, Control_c, 0, 64, 127
1, 170650, Note_off_c, 0, 41, 65
1, 170754, Note_off_c, 0, 65, 59
1, 171076, Note_on_c, 0, 73, 50
1, 171076, Note_on_c, 0, 70, 53
1, 171083, Note_on_c, 0, 61, 52
1, 171085, Note_on_c, 0, 58, 48
1, 171088, Note_on_c, 0, 65, 44
1, 171088, Note_on_c, 0, 53, 38
1, 171117, Note_off_c, 0, 70, 62
1, 171119, Note_off_c, 0, 58, 64
1, 171120, Note_off_c, 0, 73, 59
1, 171122, Note_off_c, 0, 61, 64
1, 171122, Note_off_c, 0, 65, 64
1, 171123, Note_off_c, 0, 53, 61
1, 171514, Note_on_c, 0, 53, 55
1, 171517, Note_on_c, 0, 65, 52
1, 171517, Note_on_c, 0, 70, 54
1, 171519, Note_on_c, 0, 73, 55
1, 171520, Note_on_c, 0, 58, 52
1, 171520, Note_on_c, 0, 61, 48
1, 171556, Note_off_c, 0, 58, 61
1, 171558, Note_off_c, 0, 61, 63
1, 171560, Note_off_c, 0, 65, 61
1, 171567, Note_off_c, 0, 70, 56
1, 171568, Note_off_c, 0, 53, 58
1, 171577, Note_off_c, 0, 73, 59
1, 171655, Note_on_c, 0, 70, 67
1, 171656, Note_on_c, 0, 73, 63
1, 171657, Note_on_c, 0, 61, 51
1, 171659, Note_on_c, 0, 58, 52
1, 171664, Note_on_c, 0, 65, 54
1, 171668, Note_on_c, 0, 53, 51
1, 171692, Note_off_c, 0, 70, 59
1, 171693, Note_off_c, 0, 77, 63
1, 171700, Note_off_c, 0, 73, 62
1, 171925, Note_off_c, 0, 65, 50
1, 171946, Note_on_c, 0, 81, 71
1, 171956, Note_on_c, 0, 69, 58
1, 172012, Note_off_c, 0, 69, 58
1, 172045, Note_off_c, 0, 61, 64
1, 172121, Note_off_c, 0, 58, 64
1, 172122, Note_off_c, 0, 53, 59
1, 172224, Note_on_c, 0, 82, 79
1, 172234, Note_on_c, 0, 70, 69
1, 172238, Note_off_c, 0, 81, 54
1, 172321, Note_off_c, 0, 70, 60
1, 172493, Note_on_c, 0, 84, 85
1, 172502, Note_on_c, 0, 72, 82
1, 172548, Note_off_c, 0, 72, 59
1, 172550, Note_off_c, 0, 82, 57
1, 172576, Note_off_c, 0, 84, 62
1, 172835, Note_on_c, 0, 85, 80
1, 172839, Note_on_c, 0, 49, 66
1, 172841, Note_on_c, 0, 73, 72
1, 172847, Note_on_c, 0, 37, 60
1, 172875, Control_c, 0, 64, 110
1, 172890, Control_c, 0, 64, 76
1, 172905, Control_c, 0, 64, 51
1, 172919, Control_c, 0, 64, 0
1, 172993, Control_c, 0, 64, 46
1, 173008, Control_c, 0, 64, 70
1, 173023, Control_c, 0, 64, 127
1, 173029, Note_off_c, 0, 37, 62
1, 173055, Note_off_c, 0, 49, 64
1, 173398, Note_on_c, 0, 81, 70
1, 173404, Note_on_c, 0, 78, 63
1, 173407, Note_on_c, 0, 66, 64
1, 173408, Note_on_c, 0, 57, 57
1, 173412, Note_on_c, 0, 61, 55
1, 173421, Note_on_c, 0, 69, 54
1, 173440, Note_off_c, 0, 66, 68
1, 173447, Note_off_c, 0, 61, 64
1, 173448, Note_off_c, 0, 57, 65
1, 173449, Note_off_c, 0, 69, 64
1, 173493, Note_off_c, 0, 73, 57
1, 173498, Note_off_c, 0, 85, 56
1, 174017, Note_on_c, 0, 86, 88
1, 174024, Note_on_c, 0, 74, 83
1, 174038, Note_on_c, 0, 49, 68
1, 174045, Note_on_c, 0, 37, 64
1, 174069, Control_c, 0, 64, 87
1, 174083, Control_c, 0, 64, 59
1, 174092, Note_off_c, 0, 81, 60
1, 174098, Control_c, 0, 64, 0
1, 174119, Note_off_c, 0, 78, 62
1, 174158, Control_c, 0, 64, 51
1, 174173, Control_c, 0, 64, 75
1, 174188, Control_c, 0, 64, 127
1, 174228, Note_off_c, 0, 37, 61
1, 174253, Note_off_c, 0, 49, 64
1, 174618, Note_on_c, 0, 80, 65
1, 174623, Note_on_c, 0, 65, 52
1, 174624, Note_on_c, 0, 77, 49
1, 174625, Note_on_c, 0, 68, 55
1, 174635, Note_on_c, 0, 56, 48
1, 174638, Note_on_c, 0, 59, 52
1, 174689, Note_off_c, 0, 86, 63
1, 174692, Note_off_c, 0, 68, 62
1, 174731, Note_off_c, 0, 74, 60
1, 174746, Note_off_c, 0, 56, 57
1, 174760, Note_off_c, 0, 65, 56
1, 174800, Note_off_c, 0, 59, 56
1, 174895, Note_on_c, 0, 85, 82
1, 174908, Note_on_c, 0, 73, 55
1, 174960, Note_off_c, 0, 77, 60
1, 174981, Note_off_c, 0, 80, 58
1, 175026, Note_off_c, 0, 73, 49
1, 175094, Note_off_c, 0, 85, 41
1, 175189, Note_on_c, 0, 85, 81
1, 175207, Note_on_c, 0, 73, 66
1, 175210, Note_on_c, 0, 37, 57
1, 175211, Note_on_c, 0, 49, 56
1, 175240, Control_c, 0, 64, 92
1, 175255, Control_c, 0, 64, 65
1, 175270, Control_c, 0, 64, 0
1, 175330, Control_c, 0, 64, 34
1, 175344, Control_c, 0, 64, 57
1, 175359, Control_c, 0, 64, 75
1, 175364, Note_off_c, 0, 37, 63
1, 175374, Control_c, 0, 64, 127
1, 175388, Note_off_c, 0, 49, 64
1, 175737, Note_on_c, 0, 81, 60
1, 175741, Note_on_c, 0, 78, 52
1, 175752, Note_on_c, 0, 66, 56
1, 175755, Note_on_c, 0, 61, 50
1, 175756, Note_on_c, 0, 69, 53
1, 175759, Note_on_c, 0, 57, 51
1, 175767, Note_off_c, 0, 81, 67
1, 175768, Note_off_c, 0, 73, 63
1, 175768, Note_off_c, 0, 78, 62
1, 175772, Note_off_c, 0, 85, 62
1, 176045, Note_on_c, 0, 89, 62
1, 176060, Note_on_c, 0, 77, 54
1, 176213, Note_off_c, 0, 77, 62
1, 176236, Note_off_c, 0, 69, 37
1, 176355, Note_off_c, 0, 66, 62
1, 176409, Note_on_c, 0, 90, 81
1, 176415, Note_on_c, 0, 78, 72
1, 176444, Note_off_c, 0, 89, 60
1, 176528, Note_off_c, 0, 57, 51
1, 176535, Note_off_c, 0, 61, 64
1, 176580, Note_off_c, 0, 78, 51
1, 176696, Note_on_c, 0, 91, 89
1, 176703, Note_on_c, 0, 79, 79
1, 176746, Note_off_c, 0, 79, 64
1, 176757, Note_off_c, 0, 90, 63
1, 176957, Note_on_c, 0, 92, 88
1, 176963, Note_on_c, 0, 80, 88
1, 176988, Note_off_c, 0, 91, 63
1, 177143, Note_off_c, 0, 80, 60
1, 177205, Note_on_c, 0, 93, 85
1, 177213, Note_on_c, 0, 81, 84
1, 177237, Note_off_c, 0, 81, 66
1, 177237, Note_off_c, 0, 92, 66
1, 177249, Note_off_c, 0, 93, 63
1, 177570, Note_on_c, 0, 85, 82
1, 177577, Note_on_c, 0, 73, 75
1, 177586, Note_on_c, 0, 49, 68
1, 177598, Note_on_c, 0, 37, 64
1, 177634, Control_c, 0, 64, 90
1, 177649, Control_c, 0, 64, 63
1, 177664, Control_c, 0, 64, 0
1, 177723, Control_c, 0, 64, 32
1, 177738, Control_c, 0, 64, 59
1, 177753, Control_c, 0, 64, 79
1, 177768, Control_c, 0, 64, 127
1, 177798, Note_off_c, 0, 37, 62
1, 177816, Note_off_c, 0, 49, 63
1, 178152, Note_on_c, 0, 81, 74
1, 178155, Note_on_c, 0, 78, 68
1, 178157, Note_on_c, 0, 66, 70
1, 178164, Note_on_c, 0, 57, 54
1, 178164, Note_on_c, 0, 69, 60
1, 178170, Note_on_c, 0, 61, 52
1, 178191, Note_off_c, 0, 57, 63
1, 178191, Note_off_c, 0, 66, 66
1, 178193, Note_off_c, 0, 69, 66
1, 178202, Note_off_c, 0, 61, 65
1, 178222, Note_off_c, 0, 85, 58
1, 178225, Note_off_c, 0, 73, 60
1, 178703, Note_on_c, 0, 86, 88
1, 178709, Note_on_c, 0, 74, 86
1, 178721, Note_on_c, 0, 49, 74
1, 178728, Note_on_c, 0, 37, 72
1, 178767, Control_c, 0, 64, 85
1, 178782, Control_c, 0, 64, 61
1, 178783, Note_off_c, 0, 81, 52
1, 178805, Control_c, 0, 64, 0
1, 178832, Note_off_c, 0, 78, 57
1, 178864, Control_c, 0, 64, 40
1, 178879, Control_c, 0, 64, 63
1, 178894, Control_c, 0, 64, 76
1, 178908, Control_c, 0, 64, 95
1, 178924, Control_c, 0, 64, 127
1, 178952, Note_off_c, 0, 37, 62
1, 178970, Note_off_c, 0, 49, 64
1, 179342, Note_on_c, 0, 80, 67
1, 179352, Note_on_c, 0, 77, 55
1, 179360, Note_on_c, 0, 68, 42
1, 179361, Note_on_c, 0, 65, 54
1, 179365, Note_on_c, 0, 56, 49
1, 179371, Note_on_c, 0, 59, 49
1, 179434, Note_off_c, 0, 68, 61
1, 179443, Note_off_c, 0, 86, 60
1, 179471, Note_off_c, 0, 74, 62
1, 179503, Note_off_c, 0, 65, 59
1, 179549, Note_off_c, 0, 59, 51
1, 179559, Note_off_c, 0, 56, 30
1, 179648, Note_on_c, 0, 85, 75
1, 179658, Note_on_c, 0, 73, 64
1, 179707, Note_off_c, 0, 80, 50
1, 179715, Note_off_c, 0, 77, 61
1, 179773, Note_off_c, 0, 73, 48
1, 179846, Note_off_c, 0, 85, 42
1, 179962, Note_on_c, 0, 85, 79
1, 179975, Note_on_c, 0, 73, 64
1, 179987, Note_on_c, 0, 37, 53
1, 179989, Note_on_c, 0, 49, 49
1, 180014, Control_c, 0, 64, 89
1, 180028, Control_c, 0, 64, 64
1, 180043, Control_c, 0, 64, 29
1, 180058, Control_c, 0, 64, 0
1, 180102, Control_c, 0, 64, 34
1, 180117, Control_c, 0, 64, 56
1, 180132, Control_c, 0, 64, 74
1, 180144, Note_off_c, 0, 37, 62
1, 180147, Control_c, 0, 64, 104
1, 180162, Control_c, 0, 64, 127
1, 180170, Note_off_c, 0, 49, 63
1, 180549, Note_on_c, 0, 78, 58
1, 180552, Note_on_c, 0, 81, 58
1, 180567, Note_on_c, 0, 66, 44
1, 180569, Note_on_c, 0, 61, 49
1, 180570, Note_on_c, 0, 57, 48
1, 180577, Note_on_c, 0, 69, 44
1, 180579, Note_off_c, 0, 78, 64
1, 180580, Note_off_c, 0, 73, 63
1, 180583, Note_off_c, 0, 81, 65
1, 180590, Note_off_c, 0, 85, 63
1, 180857, Note_on_c, 0, 89, 64
1, 180862, Note_on_c, 0, 77, 57
1, 180999, Note_off_c, 0, 77, 64
1, 181160, Note_on_c, 0, 90, 87
1, 181169, Note_on_c, 0, 78, 77
1, 181191, Note_off_c, 0, 69, 35
1, 181203, Note_off_c, 0, 89, 61
1, 181302, Note_off_c, 0, 78, 59
1, 181306, Note_off_c, 0, 66, 64
1, 181418, Note_on_c, 0, 91, 91
1, 181422, Note_off_c, 0, 57, 54
1, 181425, Note_on_c, 0, 79, 76
1, 181443, Note_off_c, 0, 61, 64
1, 181476, Note_off_c, 0, 90, 59
1, 181507, Note_off_c, 0, 79, 60
1, 181676, Note_on_c, 0, 92, 94
1, 181683, Note_on_c, 0, 80, 89
1, 181712, Note_off_c, 0, 91, 62
1, 181873, Note_off_c, 0, 80, 55
1, 181929, Note_on_c, 0, 93, 90
1, 181932, Note_on_c, 0, 81, 84
1, 182117, Note_off_c, 0, 92, 22
1, 182126, Note_off_c, 0, 81, 56
1, 182138, Note_off_c, 0, 93, 60
1, 182260, Note_on_c, 0, 93, 88
1, 182264, Note_on_c, 0, 81, 81
1, 182266, Note_on_c, 0, 48, 81
1, 182266, Note_on_c, 0, 36, 71
1, 182305, Control_c, 0, 64, 98
1, 182320, Control_c, 0, 64, 71
1, 182335, Control_c, 0, 64, 45
1, 182350, Control_c, 0, 64, 0
1, 182409, Control_c, 0, 64, 46
1, 182424, Control_c, 0, 64, 66
1, 182439, Control_c, 0, 64, 83
1, 182454, Control_c, 0, 64, 127
1, 182455, Note_off_c, 0, 36, 62
1, 182497, Note_off_c, 0, 48, 64
1, 182831, Note_on_c, 0, 69, 76
1, 182832, Note_on_c, 0, 66, 71
1, 182839, Note_on_c, 0, 63, 65
1, 182840, Note_on_c, 0, 57, 67
1, 182899, Note_off_c, 0, 69, 63
1, 182916, Note_off_c, 0, 63, 62
1, 182919, Note_off_c, 0, 57, 62
1, 182921, Note_off_c, 0, 66, 64
1, 183043, Note_off_c, 0, 93, 57
1, 183084, Note_off_c, 0, 81, 58
1, 183384, Note_on_c, 0, 93, 86
1, 183385, Note_on_c, 0, 81, 85
1, 183387, Note_on_c, 0, 47, 81
1, 183388, Note_on_c, 0, 35, 81
1, 183417, Control_c, 0, 64, 91
1, 183432, Control_c, 0, 64, 59
1, 183446, Control_c, 0, 64, 0
1, 183505, Control_c, 0, 64, 41
1, 183520, Control_c, 0, 64, 62
1, 183535, Control_c, 0, 64, 80
1, 183540, Note_off_c, 0, 35, 63
1, 183550, Control_c, 0, 64, 111
1, 183564, Control_c, 0, 64, 127
1, 183579, Note_off_c, 0, 47, 64
1, 183915, Note_on_c, 0, 69, 82
1, 183919, Note_on_c, 0, 66, 76
1, 183920, Note_on_c, 0, 57, 67
1, 183922, Note_on_c, 0, 63, 68
1, 183944, Note_off_c, 0, 93, 62
1, 183967, Note_off_c, 0, 81, 58
1, 183974, Note_off_c, 0, 69, 62
1, 183978, Note_off_c, 0, 57, 62
1, 184004, Note_off_c, 0, 66, 62
1, 184020, Note_off_c, 0, 63, 63
1, 184180, Note_on_c, 0, 93, 90
1, 184183, Note_on_c, 0, 81, 81
1, 184400, Note_off_c, 0, 93, 55
1, 184421, Note_off_c, 0, 81, 56
1, 184568, Note_on_c, 0, 93, 76
1, 184577, Note_on_c, 0, 81, 64
1, 184579, Note_on_c, 0, 46, 74
1, 184584, Note_on_c, 0, 34, 75
1, 184656, Control_c, 0, 64, 80
1, 184671, Control_c, 0, 64, 59
1, 184685, Control_c, 0, 64, 0
1, 184759, Control_c, 0, 64, 29
1, 184774, Control_c, 0, 64, 58
1, 184797, Control_c, 0, 64, 77
1, 184797, Note_off_c, 0, 81, 64
1, 184812, Control_c, 0, 64, 106
1, 184826, Control_c, 0, 64, 127
1, 184877, Note_off_c, 0, 34, 62
1, 184896, Note_off_c, 0, 46, 62
1, 185022, Note_on_c, 0, 94, 85
1, 185027, Note_on_c, 0, 82, 80
1, 185052, Note_off_c, 0, 93, 61
1, 185331, Note_on_c, 0, 70, 91
1, 185332, Note_on_c, 0, 63, 65
1, 185338, Note_on_c, 0, 66, 78
1, 185345, Note_off_c, 0, 82, 33
1, 185345, Note_on_c, 0, 58, 73
1, 185445, Note_off_c, 0, 70, 61
1, 185498, Note_off_c, 0, 66, 63
1, 185509, Note_off_c, 0, 63, 62
1, 185523, Note_off_c, 0, 58, 63
1, 185599, Note_on_c, 0, 95, 91
1, 185602, Note_on_c, 0, 83, 95
1, 185745, Note_off_c, 0, 94, 26
1, 185873, Note_on_c, 0, 45, 86
1, 185882, Note_on_c, 0, 33, 77
1, 185886, Control_c, 0, 64, 86
1, 185900, Control_c, 0, 64, 62
1, 185900, Control_c, 0, 67, 37
1, 185915, Control_c, 0, 64, 32
1, 185915, Control_c, 0, 67, 44
1, 185930, Control_c, 0, 64, 0
1, 185930, Control_c, 0, 67, 45
1, 185945, Control_c, 0, 64, 32
1, 185945, Control_c, 0, 67, 49
1, 185960, Control_c, 0, 64, 54
1, 185960, Control_c, 0, 67, 65
1, 185974, Control_c, 0, 64, 72
1, 185974, Control_c, 0, 67, 94
1, 185989, Control_c, 0, 64, 107
1, 185989, Control_c, 0, 67, 110
1, 186004, Control_c, 0, 64, 127
1, 186016, Note_off_c, 0, 95, 60
1, 186049, Control_c, 0, 67, 113
1, 186063, Note_off_c, 0, 33, 60
1, 186074, Note_off_c, 0, 83, 59
1, 186093, Control_c, 0, 67, 115
1, 186120, Note_off_c, 0, 45, 63
1, 186123, Control_c, 0, 67, 119
1, 186138, Control_c, 0, 67, 127
1, 186168, Note_on_c, 0, 96, 98
1, 186171, Note_on_c, 0, 84, 86
1, 186212, Note_on_c, 0, 94, 22
1, 186251, Note_off_c, 0, 94, 30
1, 186254, Note_off_c, 0, 84, 61
1, 186569, Note_on_c, 0, 99, 88
1, 186578, Note_on_c, 0, 87, 70
1, 186587, Note_on_c, 0, 66, 55
1, 186589, Note_on_c, 0, 72, 47
1, 186594, Note_off_c, 0, 96, 66
1, 186612, Note_on_c, 0, 63, 40
1, 186613, Note_on_c, 0, 60, 30
1, 186622, Note_off_c, 0, 72, 53
1, 186650, Note_off_c, 0, 60, 52
1, 186690, Note_off_c, 0, 66, 51
1, 186695, Note_off_c, 0, 63, 59
1, 186723, Note_off_c, 0, 87, 59
1, 187094, Note_on_c, 0, 97, 82
1, 187101, Note_on_c, 0, 85, 58
1, 187135, Note_off_c, 0, 99, 63
1, 187199, Note_off_c, 0, 97, 64
1, 187241, Note_off_c, 0, 85, 27
1, 187793, Note_on_c, 0, 95, 65
1, 187818, Note_on_c, 0, 83, 36
1, 187820, Note_on_c, 0, 37, 47
1, 187825, Note_on_c, 0, 49, 45
1, 187969, Control_c, 0, 64, 102
1, 187984, Control_c, 0, 64, 86
1, 187999, Control_c, 0, 64, 72
1, 188014, Control_c, 0, 64, 59
1, 188029, Control_c, 0, 64, 39
1, 188043, Control_c, 0, 64, 0
1, 188132, Control_c, 0, 64, 44
1, 188147, Control_c, 0, 64, 61
1, 188162, Control_c, 0, 64, 73
1, 188177, Control_c, 0, 64, 81
1, 188192, Control_c, 0, 64, 89
1, 188207, Control_c, 0, 64, 93
1, 188222, Control_c, 0, 64, 99
1, 188236, Control_c, 0, 64, 113
1, 188251, Control_c, 0, 64, 127
1, 188252, Note_off_c, 0, 83, 57
1, 188277, Note_off_c, 0, 37, 60
1, 188366, Note_off_c, 0, 49, 62
1, 188474, Note_on_c, 0, 93, 65
1, 188480, Note_on_c, 0, 81, 52
1, 188585, Note_off_c, 0, 95, 63
1, 188855, Note_off_c, 0, 81, 56
1, 188856, Note_on_c, 0, 73, 34
1, 188857, Note_on_c, 0, 69, 35
1, 188866, Note_on_c, 0, 64, 43
1, 188882, Note_on_c, 0, 61, 38
1, 188967, Note_off_c, 0, 73, 63
1, 188998, Note_off_c, 0, 69, 36
1, 189003, Note_off_c, 0, 64, 59
1, 189051, Note_off_c, 0, 61, 62
1, 189151, Note_on_c, 0, 92, 69
1, 189180, Note_on_c, 0, 80, 51
1, 189206, Note_off_c, 0, 93, 59
1, 189475, Note_on_c, 0, 50, 38
1, 189481, Note_on_c, 0, 38, 41
1, 189482, Control_c, 0, 64, 119
1, 189497, Control_c, 0, 64, 81
1, 189512, Control_c, 0, 64, 63
1, 189527, Control_c, 0, 64, 49
1, 189541, Control_c, 0, 64, 47
1, 189556, Control_c, 0, 64, 55
1, 189571, Control_c, 0, 64, 63
1, 189586, Control_c, 0, 64, 72
1, 189595, Note_off_c, 0, 80, 61
1, 189601, Control_c, 0, 64, 84
1, 189615, Control_c, 0, 64, 99
1, 189630, Control_c, 0, 64, 127
1, 189646, Note_off_c, 0, 38, 52
1, 189680, Note_off_c, 0, 50, 62
1, 189901, Note_on_c, 0, 90, 58
1, 189915, Note_on_c, 0, 78, 42
1, 189998, Note_off_c, 0, 92, 31
1, 190064, Note_off_c, 0, 78, 34
1, 190225, Note_on_c, 0, 64, 42
1, 190228, Note_on_c, 0, 56, 35
1, 190229, Note_on_c, 0, 59, 39
1, 190237, Note_on_c, 0, 89, 60
1, 190239, Note_on_c, 0, 68, 33
1, 190255, Note_on_c, 0, 77, 38
1, 190264, Note_off_c, 0, 90, 64
1, 190315, Note_off_c, 0, 68, 63
1, 190320, Note_off_c, 0, 56, 59
1, 190320, Note_off_c, 0, 77, 62
1, 190332, Note_off_c, 0, 59, 58
1, 190334, Note_off_c, 0, 64, 58
1, 190505, Note_on_c, 0, 88, 79
1, 190532, Note_on_c, 0, 76, 49
1, 190543, Note_off_c, 0, 89, 64
1, 190555, Note_off_c, 0, 76, 58
1, 190580, Note_off_c, 0, 88, 64
1, 190912, Note_on_c, 0, 88, 55
1, 190936, Note_on_c, 0, 39, 33
1, 190937, Note_on_c, 0, 76, 39
1, 190951, Note_on_c, 0, 51, 38
1, 190979, Control_c, 0, 64, 91
1, 190994, Control_c, 0, 64, 69
1, 191007, Note_off_c, 0, 76, 0
1, 191007, Note_on_c, 0, 76, 6
1, 191009, Control_c, 0, 64, 54
1, 191024, Control_c, 0, 64, 40
1, 191039, Control_c, 0, 64, 34
1, 191069, Control_c, 0, 64, 40
1, 191084, Control_c, 0, 64, 54
1, 191098, Control_c, 0, 64, 69
1, 191113, Control_c, 0, 64, 83
1, 191128, Control_c, 0, 64, 99
1, 191143, Control_c, 0, 64, 110
1, 191158, Control_c, 0, 64, 127
1, 191179, Note_off_c, 0, 76, 51
1, 191288, Note_off_c, 0, 39, 39
1, 191332, Note_off_c, 0, 51, 59
1, 191450, Note_on_c, 0, 75, 37
1, 191453, Note_on_c, 0, 87, 44
1, 191517, Note_off_c, 0, 88, 63
1, 191533, Note_off_c, 0, 75, 63
1, 191546, Note_off_c, 0, 87, 63
1, 191766, Note_on_c, 0, 59, 41
1, 191784, Note_on_c, 0, 63, 46
1, 191835, Note_off_c, 0, 59, 61
1, 191843, Note_off_c, 0, 63, 58
1, 192170, Note_on_c, 0, 80, 60
1, 192188, Note_on_c, 0, 68, 46
1, 192188, Control_c, 0, 67, 117
1, 192202, Control_c, 0, 67, 99
1, 192216, Note_off_c, 0, 68, 57
1, 192217, Control_c, 0, 67, 82
1, 192232, Control_c, 0, 67, 64
1, 192239, Note_off_c, 0, 80, 56
1, 192246, Control_c, 0, 67, 44
1, 192261, Control_c, 0, 67, 34
1, 192284, Control_c, 0, 67, 34
1, 192328, Control_c, 0, 67, 34
1, 192343, Control_c, 0, 67, 38
1, 192358, Control_c, 0, 67, 47
1, 192373, Control_c, 0, 67, 51
1, 192417, Control_c, 0, 67, 55
1, 192432, Control_c, 0, 67, 62
1, 192447, Control_c, 0, 67, 75
1, 192461, Control_c, 0, 67, 96
1, 192476, Control_c, 0, 67, 109
1, 192491, Control_c, 0, 67, 116
1, 192507, Control_c, 0, 67, 122
1, 192522, Control_c, 0, 67, 127
1, 192769, Note_on_c, 0, 71, 71
1, 192892, Control_c, 0, 64, 123
1, 192907, Control_c, 0, 64, 101
1, 192922, Control_c, 0, 64, 89
1, 192937, Control_c, 0, 64, 82
1, 192951, Control_c, 0, 64, 76
1, 192966, Control_c, 0, 64, 70
1, 192981, Control_c, 0, 64, 64
1, 192995, Control_c, 0, 64, 59
1, 193010, Control_c, 0, 64, 57
1, 193033, Control_c, 0, 64, 56
1, 193048, Control_c, 0, 64, 54
1, 193063, Control_c, 0, 64, 50
1, 193077, Control_c, 0, 64, 45
1, 193092, Control_c, 0, 64, 42
1, 193103, Note_on_c, 0, 83, 51
1, 193107, Control_c, 0, 64, 41
1, 193122, Control_c, 0, 64, 41
1, 193137, Control_c, 0, 64, 40
1, 193196, Control_c, 0, 64, 41
1, 193240, Control_c, 0, 64, 42
1, 193255, Control_c, 0, 64, 42
1, 193270, Control_c, 0, 64, 44
1, 193284, Control_c, 0, 64, 47
1, 193300, Control_c, 0, 64, 47
1, 193330, Control_c, 0, 64, 48
1, 193345, Control_c, 0, 64, 48
1, 193360, Control_c, 0, 64, 50
1, 193374, Control_c, 0, 64, 51
1, 193433, Control_c, 0, 64, 52
1, 193448, Control_c, 0, 64, 54
1, 193463, Control_c, 0, 64, 56
1, 193478, Control_c, 0, 64, 57
1, 193493, Control_c, 0, 64, 58
1, 193507, Control_c, 0, 64, 60
1, 193522, Control_c, 0, 64, 63
1, 193537, Control_c, 0, 64, 69
1, 193552, Control_c, 0, 64, 73
1, 193567, Control_c, 0, 64, 75
1, 193582, Control_c, 0, 64, 77
1, 193596, Control_c, 0, 64, 80
1, 193611, Control_c, 0, 64, 84
1, 193620, Note_on_c, 0, 51, 32
1, 193626, Control_c, 0, 64, 93
1, 193641, Control_c, 0, 64, 108
1, 193656, Control_c, 0, 64, 127
1, 193811, Note_on_c, 0, 61, 21
1, 193835, Note_off_c, 0, 51, 42
1, 193851, Note_off_c, 0, 61, 54
1, 194139, Note_on_c, 0, 67, 37
1, 194182, Note_off_c, 0, 67, 62
1, 194434, Note_off_c, 0, 71, 55
1, 195424, Note_off_c, 0, 83, 36
1, 195439, Note_on_c, 0, 82, 39
1, 195460, Note_on_c, 0, 70, 25
1, 196443, Control_c, 0, 64, 118
1, 196458, Control_c, 0, 64, 113
1, 196473, Control_c, 0, 64, 111
1, 196488, Control_c, 0, 64, 109
1, 196503, Control_c, 0, 64, 105
1, 196518, Control_c, 0, 64, 101
1, 196533, Control_c, 0, 64, 98
1, 196548, Control_c, 0, 64, 95
1, 196562, Control_c, 0, 64, 93
1, 196577, Control_c, 0, 64, 92
1, 196592, Control_c, 0, 64, 91
1, 196607, Control_c, 0, 64, 90
1, 196622, Control_c, 0, 64, 89
1, 196637, Control_c, 0, 64, 87
1, 196651, Control_c, 0, 64, 86
1, 196666, Control_c, 0, 64, 84
1, 196681, Control_c, 0, 64, 83
1, 196696, Control_c, 0, 64, 81
1, 196711, Control_c, 0, 64, 80
1, 196725, Control_c, 0, 64, 78
1, 196740, Control_c, 0, 64, 74
1, 196755, Control_c, 0, 64, 69
1, 196777, Control_c, 0, 64, 64
1, 196792, Control_c, 0, 64, 61
1, 196807, Control_c, 0, 64, 60
1, 196837, Control_c, 0, 64, 59
1, 196866, Control_c, 0, 64, 60
1, 196881, Control_c, 0, 64, 61
1, 196896, Control_c, 0, 64, 63
1, 196911, Control_c, 0, 64, 66
1, 196925, Control_c, 0, 64, 70
1, 196940, Control_c, 0, 64, 76
1, 196955, Control_c, 0, 64, 82
1, 196969, Control_c, 0, 64, 87
1, 196984, Control_c, 0, 64, 89
1, 196999, Control_c, 0, 64, 92
1, 197014, Control_c, 0, 64, 94
1, 197029, Control_c, 0, 64, 95
1, 197043, Control_c, 0, 64, 96
1, 197103, Control_c, 0, 64, 98
1, 197132, Control_c, 0, 64, 102
1, 197147, Control_c, 0, 64, 104
1, 197162, Control_c, 0, 64, 107
1, 197177, Control_c, 0, 64, 112
1, 197191, Control_c, 0, 64, 126
1, 197239, Note_off_c, 0, 70, 43
1, 197342, Note_off_c, 0, 82, 51
1, 197852, Control_c, 0, 64, 111
1, 197866, Control_c, 0, 64, 103
1, 197881, Control_c, 0, 64, 98
1, 197896, Control_c, 0, 64, 96
1, 197911, Control_c, 0, 64, 94
1, 197926, Control_c, 0, 64, 93
1, 197940, Control_c, 0, 64, 90
1, 197955, Control_c, 0, 64, 87
1, 197970, Control_c, 0, 64, 84
1, 197985, Control_c, 0, 64, 83
1, 197999, Control_c, 0, 64, 82
1, 198014, Control_c, 0, 64, 80
1, 198029, Control_c, 0, 64, 76
1, 198044, Control_c, 0, 64, 71
1, 198059, Control_c, 0, 64, 66
1, 198074, Control_c, 0, 64, 64
1, 198089, Control_c, 0, 64, 63
1, 198104, Control_c, 0, 64, 63
1, 198119, Control_c, 0, 64, 62
1, 198193, Control_c, 0, 64, 62
1, 198208, Control_c, 0, 64, 61
1, 198223, Control_c, 0, 64, 61
1, 198378, Control_c, 0, 64, 60
1, 198408, Control_c, 0, 64, 61
1, 198704, Control_c, 0, 64, 61
1, 198719, Control_c, 0, 64, 62
1, 198734, Control_c, 0, 64, 63
1, 198748, Control_c, 0, 64, 64
1, 198763, Control_c, 0, 64, 65
1, 198778, Control_c, 0, 64, 66
1, 198793, Control_c, 0, 64, 67
1, 198808, Control_c, 0, 64, 70
1, 198822, Control_c, 0, 64, 74
1, 198837, Control_c, 0, 64, 78
1, 198852, Control_c, 0, 64, 81
1, 198867, Control_c, 0, 64, 82
1, 198882, Control_c, 0, 64, 84
1, 198898, Control_c, 0, 64, 88
1, 198913, Control_c, 0, 64, 96
1, 198914, Note_on_c, 0, 72, 53
1, 198927, Control_c, 0, 64, 107
1, 198942, Control_c, 0, 64, 127
1, 199388, Note_on_c, 0, 44, 33
1, 199583, Note_on_c, 0, 51, 44
1, 199632, Note_off_c, 0, 51, 57
1, 199636, Note_off_c, 0, 44, 41
1, 199871, Note_on_c, 0, 60, 31
1, 199919, Note_off_c, 0, 60, 59
1, 200223, Note_on_c, 0, 68, 33
1, 200271, Note_off_c, 0, 68, 63
1, 200645, Note_on_c, 0, 77, 72
1, 200816, Note_off_c, 0, 72, 58
1, 200892, Control_c, 0, 64, 102
1, 200907, Control_c, 0, 64, 83
1, 200922, Control_c, 0, 64, 69
1, 200937, Control_c, 0, 64, 58
1, 200952, Control_c, 0, 64, 51
1, 200966, Control_c, 0, 64, 48
1, 200975, Note_on_c, 0, 44, 37
1, 200996, Control_c, 0, 64, 49
1, 201010, Control_c, 0, 64, 53
1, 201025, Control_c, 0, 64, 61
1, 201040, Control_c, 0, 64, 68
1, 201055, Control_c, 0, 64, 80
1, 201070, Control_c, 0, 64, 99
1, 201085, Control_c, 0, 64, 127
1, 201147, Note_on_c, 0, 50, 37
1, 201213, Note_off_c, 0, 44, 32
1, 201356, Note_off_c, 0, 50, 34
1, 201365, Note_on_c, 0, 59, 42
1, 201412, Note_off_c, 0, 59, 62
1, 201887, Note_on_c, 0, 68, 40
1, 201964, Note_off_c, 0, 68, 55
1, 202193, Note_off_c, 0, 77, 53
1, 202196, Note_on_c, 0, 76, 62
1, 202337, Note_off_c, 0, 76, 53
1, 202527, Note_on_c, 0, 76, 53
1, 202811, Control_c, 0, 64, 117
1, 202826, Control_c, 0, 64, 96
1, 202841, Control_c, 0, 64, 82
1, 202856, Control_c, 0, 64, 67
1, 202870, Control_c, 0, 64, 54
1, 202886, Control_c, 0, 64, 46
1, 202901, Note_on_c, 0, 44, 35
1, 202901, Control_c, 0, 64, 45
1, 202916, Control_c, 0, 64, 45
1, 202931, Control_c, 0, 64, 50
1, 202946, Control_c, 0, 64, 57
1, 202960, Control_c, 0, 64, 63
1, 202975, Control_c, 0, 64, 70
1, 202990, Control_c, 0, 64, 83
1, 203005, Control_c, 0, 64, 105
1, 203019, Control_c, 0, 64, 127
1, 203089, Note_on_c, 0, 51, 37
1, 203121, Note_off_c, 0, 44, 49
1, 203159, Note_off_c, 0, 51, 60
1, 203418, Note_on_c, 0, 60, 20
1, 203509, Note_off_c, 0, 60, 40
1, 203987, Note_on_c, 0, 68, 8
1, 204059, Note_off_c, 0, 68, 41
1, 204809, Note_on_c, 0, 75, 50
1, 204872, Note_off_c, 0, 76, 34
1, 205228, Note_on_c, 0, 68, 54
1, 205419, Note_off_c, 0, 68, 56
1, 205458, Control_c, 0, 67, 123
1, 205473, Control_c, 0, 67, 118
1, 205487, Control_c, 0, 67, 114
1, 205555, Note_on_c, 0, 70, 65
1, 205562, Control_c, 0, 67, 112
1, 205607, Note_off_c, 0, 75, 49
1, 205724, Control_c, 0, 67, 114
1, 205762, Control_c, 0, 67, 116
1, 205843, Note_off_c, 0, 70, 61
1, 205887, Note_on_c, 0, 72, 64
1, 205895, Control_c, 0, 67, 118
1, 205910, Control_c, 0, 67, 122
1, 205969, Control_c, 0, 67, 126
1, 205984, Note_off_c, 0, 72, 61
1, 206194, Note_on_c, 0, 44, 52
1, 206370, Note_on_c, 0, 51, 49
1, 206504, Note_off_c, 0, 44, 56
1, 206588, Note_on_c, 0, 72, 77
1, 206614, Control_c, 0, 64, 117
1, 206629, Control_c, 0, 64, 85
1, 206641, Note_on_c, 0, 60, 45
1, 206644, Control_c, 0, 64, 73
1, 206659, Control_c, 0, 64, 70
1, 206674, Control_c, 0, 64, 76
1, 206689, Control_c, 0, 64, 93
1, 206703, Control_c, 0, 64, 127
1, 206720, Note_off_c, 0, 51, 58
1, 206741, Note_off_c, 0, 60, 63
1, 206914, Note_on_c, 0, 68, 59
1, 206942, Note_off_c, 0, 68, 68
1, 207352, Note_on_c, 0, 77, 83
1, 207537, Note_off_c, 0, 72, 56
1, 207645, Control_c, 0, 64, 107
1, 207659, Control_c, 0, 64, 87
1, 207675, Control_c, 0, 64, 70
1, 207681, Note_on_c, 0, 44, 46
1, 207690, Control_c, 0, 64, 57
1, 207705, Control_c, 0, 64, 47
1, 207720, Control_c, 0, 64, 46
1, 207735, Control_c, 0, 64, 46
1, 207749, Control_c, 0, 64, 49
1, 207764, Control_c, 0, 64, 57
1, 207779, Control_c, 0, 64, 64
1, 207794, Control_c, 0, 64, 73
1, 207808, Control_c, 0, 64, 87
1, 207823, Control_c, 0, 64, 115
1, 207838, Control_c, 0, 64, 127
1, 207844, Note_on_c, 0, 50, 42
1, 207967, Note_off_c, 0, 44, 31
1, 208066, Note_off_c, 0, 50, 56
1, 208071, Note_on_c, 0, 59, 47
1, 208127, Note_off_c, 0, 59, 59
1, 208561, Note_on_c, 0, 68, 37
1, 208641, Note_off_c, 0, 68, 50
1, 208825, Note_on_c, 0, 76, 62
1, 208850, Note_off_c, 0, 77, 46
1, 208982, Note_off_c, 0, 76, 55
1, 209135, Note_on_c, 0, 76, 60
1, 209395, Control_c, 0, 64, 111
1, 209410, Control_c, 0, 64, 105
1, 209425, Control_c, 0, 64, 96
1, 209440, Control_c, 0, 64, 85
1, 209454, Control_c, 0, 64, 71
1, 209469, Control_c, 0, 64, 62
1, 209484, Control_c, 0, 64, 55
1, 209494, Note_on_c, 0, 44, 37
1, 209506, Control_c, 0, 64, 52
1, 209520, Control_c, 0, 64, 51
1, 209565, Control_c, 0, 64, 54
1, 209580, Control_c, 0, 64, 59
1, 209595, Control_c, 0, 64, 66
1, 209610, Control_c, 0, 64, 77
1, 209625, Control_c, 0, 64, 92
1, 209640, Control_c, 0, 64, 113
1, 209654, Control_c, 0, 64, 127
1, 209681, Note_on_c, 0, 51, 42
1, 209714, Note_off_c, 0, 44, 56
1, 209774, Note_off_c, 0, 51, 47
1, 209986, Note_on_c, 0, 60, 43
1, 210066, Note_off_c, 0, 60, 58
1, 210495, Note_on_c, 0, 68, 37
1, 210593, Note_off_c, 0, 68, 56
1, 211267, Note_on_c, 0, 75, 59
1, 211478, Control_c, 0, 67, 122
1, 211493, Control_c, 0, 67, 114
1, 211508, Control_c, 0, 67, 108
1, 211514, Note_off_c, 0, 76, 23
1, 211523, Control_c, 0, 67, 98
1, 211538, Control_c, 0, 67, 84
1, 211552, Control_c, 0, 67, 67
1, 211567, Control_c, 0, 67, 55
1, 211582, Control_c, 0, 67, 49
1, 211597, Control_c, 0, 67, 45
1, 211612, Control_c, 0, 67, 0
1, 211630, Note_on_c, 0, 68, 67
1, 211951, Note_on_c, 0, 70, 79
1, 212026, Note_off_c, 0, 68, 57
1, 212090, Note_off_c, 0, 75, 54
1, 212281, Note_on_c, 0, 72, 76
1, 212328, Note_off_c, 0, 70, 60
1, 212546, Control_c, 0, 64, 85
1, 212555, Note_on_c, 0, 43, 52
1, 212561, Control_c, 0, 64, 63
1, 212576, Control_c, 0, 64, 37
1, 212591, Control_c, 0, 64, 0
1, 212620, Control_c, 0, 64, 30
1, 212635, Control_c, 0, 64, 57
1, 212650, Control_c, 0, 64, 78
1, 212665, Control_c, 0, 64, 127
1, 212705, Note_on_c, 0, 52, 57
1, 212792, Note_off_c, 0, 72, 60
1, 212883, Note_on_c, 0, 72, 86
1, 212888, Note_off_c, 0, 43, 33
1, 212901, Note_on_c, 0, 58, 62
1, 212992, Note_off_c, 0, 58, 58
1, 213007, Note_off_c, 0, 52, 53
1, 213192, Note_on_c, 0, 60, 58
1, 213223, Note_off_c, 0, 60, 66
1, 213591, Note_on_c, 0, 73, 72
1, 213592, Control_c, 0, 67, 61
1, 213607, Control_c, 0, 67, 85
1, 213621, Control_c, 0, 67, 96
1, 213636, Control_c, 0, 67, 106
1, 213651, Control_c, 0, 67, 121
1, 213665, Control_c, 0, 67, 127
1, 213687, Note_off_c, 0, 72, 57
1, 213799, Control_c, 0, 64, 105
1, 213814, Control_c, 0, 64, 96
1, 213828, Control_c, 0, 64, 89
1, 213843, Control_c, 0, 64, 79
1, 213858, Control_c, 0, 64, 69
1, 213873, Control_c, 0, 64, 59
1, 213887, Control_c, 0, 64, 49
1, 213892, Note_on_c, 0, 42, 52
1, 213902, Control_c, 0, 64, 40
1, 213917, Control_c, 0, 64, 35
1, 213932, Control_c, 0, 64, 33
1, 213947, Control_c, 0, 64, 35
1, 213962, Control_c, 0, 64, 44
1, 213977, Control_c, 0, 64, 56
1, 213999, Control_c, 0, 64, 65
1, 214014, Control_c, 0, 64, 70
1, 214028, Control_c, 0, 64, 75
1, 214043, Control_c, 0, 64, 80
1, 214058, Control_c, 0, 64, 88
1, 214074, Control_c, 0, 64, 99
1, 214078, Note_on_c, 0, 51, 46
1, 214089, Control_c, 0, 64, 118
1, 214104, Control_c, 0, 64, 127
1, 214221, Note_off_c, 0, 42, 29
1, 214301, Note_on_c, 0, 57, 47
1, 214335, Note_off_c, 0, 57, 64
1, 214338, Note_off_c, 0, 51, 59
1, 214710, Note_on_c, 0, 69, 61
1, 214722, Note_on_c, 0, 61, 40
1, 214800, Note_off_c, 0, 61, 56
1, 215077, Note_on_c, 0, 70, 72
1, 215176, Note_off_c, 0, 69, 50
1, 215240, Note_off_c, 0, 73, 34
1, 215326, Control_c, 0, 64, 97
1, 215341, Control_c, 0, 64, 72
1, 215356, Control_c, 0, 64, 51
1, 215371, Control_c, 0, 64, 0
1, 215378, Note_on_c, 0, 41, 48
1, 215430, Control_c, 0, 64, 47
1, 215444, Control_c, 0, 64, 68
1, 215459, Control_c, 0, 64, 90
1, 215474, Control_c, 0, 64, 127
1, 215533, Note_on_c, 0, 50, 53
1, 215571, Control_c, 0, 67, 125
1, 215586, Control_c, 0, 67, 108
1, 215598, Note_off_c, 0, 70, 52
1, 215600, Control_c, 0, 67, 88
1, 215615, Control_c, 0, 67, 64
1, 215630, Control_c, 0, 67, 34
1, 215644, Control_c, 0, 67, 0
1, 215691, Note_off_c, 0, 41, 33
1, 215739, Note_on_c, 0, 70, 74
1, 215777, Note_on_c, 0, 56, 49
1, 215851, Note_off_c, 0, 56, 58
1, 216049, Note_on_c, 0, 58, 62
1, 216106, Note_off_c, 0, 58, 60
1, 216125, Note_off_c, 0, 50, 60
1, 216410, Note_on_c, 0, 72, 80
1, 216514, Note_off_c, 0, 70, 61
1, 216690, Control_c, 0, 64, 90
1, 216704, Control_c, 0, 64, 63
1, 216719, Control_c, 0, 64, 0
1, 216731, Note_on_c, 0, 40, 62
1, 216794, Control_c, 0, 64, 51
1, 216809, Control_c, 0, 64, 79
1, 216824, Control_c, 0, 64, 127
1, 216937, Note_off_c, 0, 40, 32
1, 217079, Note_on_c, 0, 55, 65
1, 217081, Note_on_c, 0, 49, 63
1, 217128, Note_off_c, 0, 49, 55
1, 217153, Note_off_c, 0, 55, 48
1, 217375, Note_on_c, 0, 67, 82
1, 217395, Note_on_c, 0, 58, 67
1, 217453, Note_off_c, 0, 58, 59
1, 217730, Note_on_c, 0, 68, 81
1, 217761, Note_off_c, 0, 67, 60
1, 217860, Note_off_c, 0, 72, 60
1, 217920, Control_c, 0, 64, 113
1, 217935, Control_c, 0, 64, 86
1, 217950, Control_c, 0, 64, 73
1, 217965, Control_c, 0, 64, 60
1, 217980, Control_c, 0, 64, 43
1, 217994, Control_c, 0, 64, 0
1, 218107, Note_on_c, 0, 39, 63
1, 218172, Control_c, 0, 64, 42
1, 218187, Control_c, 0, 64, 64
1, 218202, Control_c, 0, 64, 75
1, 218216, Control_c, 0, 64, 96
1, 218231, Control_c, 0, 64, 127
1, 218294, Note_off_c, 0, 39, 60
1, 218491, Note_on_c, 0, 79, 79
1, 218526, Note_on_c, 0, 56, 46
1, 218536, Note_on_c, 0, 48, 55
1, 218585, Note_off_c, 0, 48, 59
1, 218625, Note_off_c, 0, 56, 53
1, 218707, Note_off_c, 0, 68, 56
1, 218853, Note_on_c, 0, 60, 50
1, 218915, Note_off_c, 0, 60, 62
1, 219300, Note_on_c, 0, 77, 74
1, 219411, Note_off_c, 0, 79, 51
1, 219477, Control_c, 0, 64, 121
1, 219491, Control_c, 0, 64, 93
1, 219506, Control_c, 0, 64, 79
1, 219521, Control_c, 0, 64, 68
1, 219536, Control_c, 0, 64, 57
1, 219551, Control_c, 0, 64, 42
1, 219566, Control_c, 0, 64, 0
1, 219640, Control_c, 0, 64, 44
1, 219653, Note_on_c, 0, 38, 51
1, 219656, Control_c, 0, 64, 64
1, 219670, Control_c, 0, 64, 83
1, 219685, Control_c, 0, 64, 102
1, 219689, Note_off_c, 0, 38, 62
1, 219700, Control_c, 0, 64, 113
1, 219715, Control_c, 0, 64, 127
1, 220064, Note_on_c, 0, 56, 42
1, 220078, Note_on_c, 0, 47, 28
1, 220118, Note_off_c, 0, 47, 41
1, 220130, Note_off_c, 0, 56, 61
1, 220507, Note_on_c, 0, 68, 61
1, 220536, Note_on_c, 0, 65, 32
1, 220574, Note_off_c, 0, 77, 60
1, 220601, Note_off_c, 0, 65, 42
1, 220696, Note_off_c, 0, 68, 29
1, 221106, Note_on_c, 0, 69, 65
1, 221301, Control_c, 0, 67, 41
1, 221316, Control_c, 0, 67, 68
1, 221331, Control_c, 0, 67, 102
1, 221346, Control_c, 0, 67, 127
1, 221361, Control_c, 0, 64, 108
1, 221376, Control_c, 0, 64, 98
1, 221390, Control_c, 0, 64, 92
1, 221405, Control_c, 0, 64, 85
1, 221420, Control_c, 0, 64, 80
1, 221435, Control_c, 0, 64, 75
1, 221450, Control_c, 0, 64, 68
1, 221465, Control_c, 0, 64, 61
1, 221486, Control_c, 0, 64, 55
1, 221501, Control_c, 0, 64, 48
1, 221516, Control_c, 0, 64, 39
1, 221531, Control_c, 0, 64, 0
1, 221568, Note_on_c, 0, 39, 42
1, 221590, Control_c, 0, 64, 40
1, 221605, Control_c, 0, 64, 54
1, 221620, Control_c, 0, 64, 64
1, 221635, Control_c, 0, 64, 71
1, 221650, Control_c, 0, 64, 79
1, 221665, Control_c, 0, 64, 87
1, 221679, Control_c, 0, 64, 94
1, 221694, Control_c, 0, 64, 106
1, 221709, Control_c, 0, 64, 127
1, 221885, Note_on_c, 0, 46, 41
1, 221892, Note_on_c, 0, 65, 43
1, 221916, Note_on_c, 0, 61, 40
1, 221952, Note_off_c, 0, 39, 34
1, 222043, Note_off_c, 0, 61, 27
1, 222201, Note_on_c, 0, 53, 47
1, 222222, Note_off_c, 0, 46, 57
1, 222284, Note_off_c, 0, 53, 55
1, 222570, Note_on_c, 0, 56, 45
1, 222571, Note_off_c, 0, 65, 49
1, 222924, Note_on_c, 0, 70, 74
1, 222980, Note_on_c, 0, 61, 35
1, 222985, Control_c, 0, 64, 108
1, 222998, Note_off_c, 0, 69, 49
1, 223000, Control_c, 0, 64, 82
1, 223014, Control_c, 0, 64, 67
1, 223029, Control_c, 0, 64, 56
1, 223044, Control_c, 0, 64, 53
1, 223058, Control_c, 0, 64, 56
1, 223065, Note_off_c, 0, 56, 53
1, 223073, Control_c, 0, 64, 62
1, 223088, Control_c, 0, 64, 70
1, 223103, Control_c, 0, 64, 82
1, 223118, Control_c, 0, 64, 96
1, 223132, Control_c, 0, 64, 106
1, 223147, Control_c, 0, 64, 115
1, 223162, Control_c, 0, 64, 127
1, 223179, Note_off_c, 0, 61, 42
1, 223373, Note_on_c, 0, 63, 42
1, 223376, Note_on_c, 0, 61, 23
1, 223397, Note_on_c, 0, 55, 15
1, 223444, Control_c, 0, 64, 110
1, 223458, Control_c, 0, 64, 84
1, 223473, Control_c, 0, 64, 68
1, 223488, Control_c, 0, 64, 58
1, 223503, Control_c, 0, 64, 57
1, 223518, Control_c, 0, 64, 61
1, 223532, Control_c, 0, 64, 68
1, 223547, Control_c, 0, 64, 81
1, 223562, Control_c, 0, 64, 100
1, 223576, Control_c, 0, 64, 127
1, 223693, Note_off_c, 0, 61, 42
1, 223828, Note_off_c, 0, 70, 32
1, 223926, Note_on_c, 0, 71, 59
1, 223940, Note_on_c, 0, 51, 31
1, 223948, Note_off_c, 0, 63, 32
1, 223968, Note_off_c, 0, 55, 23
1, 223995, Note_off_c, 0, 71, 62
1, 224054, Note_off_c, 0, 51, 52
1, 224133, Control_c, 0, 67, 121
1, 224148, Control_c, 0, 67, 109
1, 224163, Control_c, 0, 67, 98
1, 224178, Control_c, 0, 67, 88
1, 224192, Control_c, 0, 67, 77
1, 224207, Control_c, 0, 67, 70
1, 224237, Control_c, 0, 67, 72
1, 224252, Control_c, 0, 67, 73
1, 224281, Control_c, 0, 67, 74
1, 224296, Control_c, 0, 67, 78
1, 224311, Control_c, 0, 67, 86
1, 224326, Control_c, 0, 67, 87
1, 224370, Control_c, 0, 67, 88
1, 224385, Control_c, 0, 67, 95
1, 224399, Control_c, 0, 67, 98
1, 224429, Control_c, 0, 67, 96
1, 224460, Control_c, 0, 67, 99
1, 224511, Note_on_c, 0, 72, 65
1, 224541, Control_c, 0, 67, 104
1, 224556, Control_c, 0, 67, 116
1, 224571, Control_c, 0, 67, 127
1, 224675, Control_c, 0, 64, 92
1, 224690, Control_c, 0, 64, 75
1, 224704, Control_c, 0, 64, 63
1, 224719, Control_c, 0, 64, 51
1, 224734, Control_c, 0, 64, 40
1, 224749, Control_c, 0, 64, 30
1, 224764, Control_c, 0, 64, 0
1, 224793, Control_c, 0, 64, 32
1, 224808, Control_c, 0, 64, 42
1, 224822, Control_c, 0, 64, 53
1, 224837, Control_c, 0, 64, 62
1, 224848, Note_on_c, 0, 44, 34
1, 224852, Control_c, 0, 64, 67
1, 224867, Control_c, 0, 64, 74
1, 224882, Control_c, 0, 64, 84
1, 224896, Control_c, 0, 64, 104
1, 224911, Control_c, 0, 64, 127
1, 225010, Note_on_c, 0, 51, 47
1, 225033, Note_off_c, 0, 44, 43
1, 225232, Note_on_c, 0, 60, 50
1, 225279, Note_off_c, 0, 51, 41
1, 225282, Note_off_c, 0, 60, 62
1, 225364, Control_c, 0, 67, 125
1, 225379, Control_c, 0, 67, 112
1, 225394, Control_c, 0, 67, 109
1, 225424, Control_c, 0, 67, 98
1, 225438, Control_c, 0, 67, 75
1, 225453, Control_c, 0, 67, 50
1, 225468, Control_c, 0, 67, 35
1, 225483, Control_c, 0, 67, 0
1, 225526, Note_on_c, 0, 68, 59
1, 225561, Note_off_c, 0, 68, 64
1, 225915, Note_on_c, 0, 77, 78
1, 226069, Control_c, 0, 67, 36
1, 226083, Control_c, 0, 64, 116
1, 226083, Control_c, 0, 67, 58
1, 226085, Note_off_c, 0, 72, 60
1, 226098, Control_c, 0, 64, 83
1, 226098, Control_c, 0, 67, 70
1, 226113, Control_c, 0, 64, 65
1, 226128, Control_c, 0, 64, 48
1, 226143, Control_c, 0, 64, 32
1, 226143, Control_c, 0, 67, 72
1, 226157, Control_c, 0, 64, 0
1, 226157, Control_c, 0, 67, 77
1, 226172, Control_c, 0, 67, 84
1, 226187, Control_c, 0, 64, 36
1, 226187, Control_c, 0, 67, 83
1, 226202, Control_c, 0, 64, 55
1, 226202, Control_c, 0, 67, 81
1, 226207, Note_on_c, 0, 44, 52
1, 226217, Control_c, 0, 64, 71
1, 226231, Control_c, 0, 64, 94
1, 226246, Control_c, 0, 64, 127
1, 226246, Control_c, 0, 67, 80
1, 226261, Control_c, 0, 67, 77
1, 226276, Control_c, 0, 67, 74
1, 226291, Control_c, 0, 67, 71
1, 226306, Control_c, 0, 67, 69
1, 226321, Control_c, 0, 67, 66
1, 226336, Control_c, 0, 67, 62
1, 226350, Control_c, 0, 67, 58
1, 226351, Note_on_c, 0, 50, 54
1, 226365, Control_c, 0, 67, 56
1, 226380, Control_c, 0, 67, 54
1, 226394, Control_c, 0, 67, 50
1, 226409, Control_c, 0, 67, 0
1, 226497, Note_off_c, 0, 44, 31
1, 226550, Note_on_c, 0, 59, 63
1, 226562, Note_off_c, 0, 50, 61
1, 226604, Note_off_c, 0, 59, 60
1, 226664, Note_on_c, 0, 69, 49
1, 226690, Note_off_c, 0, 69, 56
1, 226968, Note_on_c, 0, 68, 61
1, 227029, Note_off_c, 0, 68, 59
1, 227175, Note_on_c, 0, 76, 79
1, 227276, Note_off_c, 0, 77, 58
1, 227364, Note_off_c, 0, 76, 59
1, 227510, Note_on_c, 0, 76, 77
1, 227655, Control_c, 0, 67, 47
1, 227670, Control_c, 0, 67, 49
1, 227700, Control_c, 0, 67, 51
1, 227715, Control_c, 0, 67, 59
1, 227729, Control_c, 0, 67, 78
1, 227744, Control_c, 0, 67, 84
1, 227759, Control_c, 0, 67, 85
1, 227774, Control_c, 0, 67, 87
1, 227789, Control_c, 0, 67, 94
1, 227803, Control_c, 0, 64, 107
1, 227803, Control_c, 0, 67, 119
1, 227818, Control_c, 0, 64, 87
1, 227818, Control_c, 0, 67, 127
1, 227833, Control_c, 0, 64, 68
1, 227847, Control_c, 0, 64, 52
1, 227857, Note_on_c, 0, 44, 44
1, 227862, Control_c, 0, 64, 33
1, 227877, Control_c, 0, 64, 0
1, 227936, Control_c, 0, 64, 44
1, 227951, Control_c, 0, 64, 61
1, 227966, Control_c, 0, 64, 76
1, 227981, Control_c, 0, 64, 95
1, 227996, Control_c, 0, 64, 127
1, 228005, Note_on_c, 0, 51, 56
1, 228105, Note_off_c, 0, 44, 39
1, 228299, Note_on_c, 0, 60, 51
1, 228324, Note_off_c, 0, 51, 59
1, 228344, Note_off_c, 0, 60, 60
1, 228742, Note_on_c, 0, 68, 48
1, 228813, Note_off_c, 0, 68, 59
1, 229138, Control_c, 0, 67, 125
1, 229182, Control_c, 0, 67, 127
1, 229211, Control_c, 0, 67, 125
1, 229257, Control_c, 0, 67, 127
1, 229300, Control_c, 0, 67, 125
1, 229330, Control_c, 0, 67, 127
1, 229360, Control_c, 0, 67, 125
1, 229433, Control_c, 0, 67, 123
1, 229451, Note_on_c, 0, 75, 69
1, 229493, Control_c, 0, 67, 118
1, 229507, Control_c, 0, 67, 112
1, 229522, Control_c, 0, 67, 98
1, 229537, Control_c, 0, 67, 87
1, 229548, Note_off_c, 0, 76, 60
1, 229552, Control_c, 0, 67, 85
1, 229567, Control_c, 0, 67, 82
1, 229582, Control_c, 0, 67, 72
1, 229597, Control_c, 0, 67, 0
1, 229835, Note_on_c, 0, 68, 72
1, 230120, Note_on_c, 0, 70, 83
1, 230196, Note_off_c, 0, 68, 60
1, 230315, Note_off_c, 0, 75, 50
1, 230423, Note_on_c, 0, 72, 88
1, 230469, Note_off_c, 0, 70, 61
1, 230734, Note_off_c, 0, 72, 58
1, 230765, Note_on_c, 0, 44, 56
1, 230941, Note_on_c, 0, 51, 68
1, 231153, Control_c, 0, 64, 93
1, 231168, Control_c, 0, 64, 71
1, 231180, Note_on_c, 0, 72, 83
1, 231183, Control_c, 0, 64, 55
1, 231198, Control_c, 0, 64, 45
1, 231220, Control_c, 0, 64, 52
1, 231235, Control_c, 0, 64, 64
1, 231237, Poly_aftertouch_c, 0, 46, 127
1, 231248, Note_off_c, 0, 44, 63
1, 231250, Control_c, 0, 64, 84
1, 231264, Control_c, 0, 64, 127
1, 231323, Note_on_c, 0, 60, 54
1, 231390, Note_off_c, 0, 51, 61
1, 231392, Poly_aftertouch_c, 0, 46, 0
1, 231404, Note_off_c, 0, 60, 63
1, 231421, Note_on_c, 0, 73, 88
1, 231471, Note_off_c, 0, 72, 62
1, 231580, Note_on_c, 0, 72, 92
1, 231625, Note_on_c, 0, 68, 58
1, 231635, Note_off_c, 0, 73, 57
1, 231658, Note_off_c, 0, 68, 66
1, 231717, Note_on_c, 0, 71, 91
1, 231752, Note_off_c, 0, 72, 62
1, 231838, Note_on_c, 0, 72, 97
1, 231880, Note_off_c, 0, 71, 59
1, 232067, Note_on_c, 0, 79, 86
1, 232119, Note_off_c, 0, 72, 56
1, 232161, Control_c, 0, 64, 91
1, 232176, Control_c, 0, 64, 68
1, 232191, Control_c, 0, 64, 45
1, 232206, Control_c, 0, 64, 0
1, 232265, Control_c, 0, 64, 52
1, 232280, Control_c, 0, 64, 72
1, 232295, Control_c, 0, 64, 101
1, 232310, Control_c, 0, 64, 127
1, 232417, Note_off_c, 0, 79, 52
1, 232648, Note_on_c, 0, 77, 79
1, 232697, Note_on_c, 0, 44, 49
1, 232792, Control_c, 0, 64, 86
1, 232807, Control_c, 0, 64, 64
1, 232822, Control_c, 0, 64, 42
1, 232837, Control_c, 0, 64, 0
1, 232852, Control_c, 0, 64, 29
1, 232867, Control_c, 0, 64, 41
1, 232879, Note_on_c, 0, 50, 48
1, 232882, Control_c, 0, 64, 57
1, 232897, Control_c, 0, 64, 68
1, 232911, Control_c, 0, 64, 75
1, 232926, Control_c, 0, 64, 82
1, 232941, Control_c, 0, 64, 96
1, 232956, Control_c, 0, 64, 127
1, 233090, Note_off_c, 0, 44, 35
1, 233096, Note_on_c, 0, 59, 51
1, 233117, Note_off_c, 0, 50, 61
1, 233168, Note_off_c, 0, 59, 63
1, 233543, Note_on_c, 0, 68, 50
1, 233615, Note_off_c, 0, 68, 53
1, 233882, Note_on_c, 0, 76, 71
1, 233984, Note_off_c, 0, 77, 55
1, 234052, Note_off_c, 0, 76, 58
1, 234149, Control_c, 0, 67, 37
1, 234176, Note_on_c, 0, 76, 57
1, 234179, Control_c, 0, 67, 40
1, 234193, Control_c, 0, 67, 48
1, 234215, Control_c, 0, 67, 72
1, 234230, Control_c, 0, 67, 101
1, 234245, Control_c, 0, 67, 126
1, 234408, Control_c, 0, 64, 114
1, 234423, Control_c, 0, 64, 100
1, 234438, Control_c, 0, 64, 92
1, 234453, Control_c, 0, 64, 85
1, 234468, Control_c, 0, 64, 75
1, 234483, Control_c, 0, 64, 64
1, 234497, Control_c, 0, 64, 51
1, 234512, Control_c, 0, 64, 39
1, 234527, Control_c, 0, 64, 0
1, 234586, Note_on_c, 0, 44, 38
1, 234615, Control_c, 0, 64, 44
1, 234630, Control_c, 0, 64, 58
1, 234645, Control_c, 0, 64, 67
1, 234660, Control_c, 0, 64, 71
1, 234675, Control_c, 0, 64, 74
1, 234689, Control_c, 0, 64, 77
1, 234704, Control_c, 0, 64, 83
1, 234719, Control_c, 0, 64, 92
1, 234733, Control_c, 0, 64, 104
1, 234748, Control_c, 0, 64, 127
1, 234757, Note_on_c, 0, 51, 46
1, 234812, Note_off_c, 0, 44, 48
1, 234825, Note_off_c, 0, 51, 56
1, 235060, Note_on_c, 0, 60, 47
1, 235146, Note_off_c, 0, 60, 56
1, 235519, Note_on_c, 0, 68, 38
1, 235589, Note_off_c, 0, 68, 53
1, 236384, Note_on_c, 0, 75, 58
1, 236626, Note_off_c, 0, 76, 27
1, 236762, Note_on_c, 0, 68, 61
1, 237075, Note_on_c, 0, 70, 74
1, 237155, Note_off_c, 0, 68, 59
1, 237210, Note_off_c, 0, 75, 55
1, 237403, Note_on_c, 0, 72, 75
1, 237493, Note_off_c, 0, 70, 53
1, 237566, Control_c, 0, 64, 95
1, 237581, Control_c, 0, 64, 73
1, 237596, Control_c, 0, 64, 54
1, 237611, Control_c, 0, 64, 0
1, 237685, Control_c, 0, 64, 36
1, 237695, Note_on_c, 0, 43, 60
1, 237699, Control_c, 0, 64, 62
1, 237714, Control_c, 0, 64, 85
1, 237729, Control_c, 0, 64, 127
1, 237785, Note_off_c, 0, 72, 61
1, 237854, Note_on_c, 0, 52, 64
1, 238035, Note_on_c, 0, 72, 86
1, 238036, Note_off_c, 0, 43, 37
1, 238045, Note_on_c, 0, 58, 70
1, 238093, Control_c, 0, 67, 111
1, 238108, Control_c, 0, 67, 94
1, 238123, Control_c, 0, 67, 81
1, 238137, Control_c, 0, 67, 74
1, 238144, Note_off_c, 0, 58, 57
1, 238152, Control_c, 0, 67, 63
1, 238167, Note_off_c, 0, 52, 57
1, 238167, Control_c, 0, 67, 44
1, 238182, Control_c, 0, 67, 0
1, 238307, Note_on_c, 0, 60, 74
1, 238334, Note_off_c, 0, 60, 68
1, 238649, Note_on_c, 0, 75, 85
1, 238671, Control_c, 0, 64, 115
1, 238686, Control_c, 0, 64, 80
1, 238707, Control_c, 0, 64, 59
1, 238722, Control_c, 0, 64, 0
1, 238737, Control_c, 0, 67, 43
1, 238752, Control_c, 0, 67, 57
1, 238767, Control_c, 0, 67, 62
1, 238777, Note_off_c, 0, 72, 58
1, 238781, Control_c, 0, 67, 67
1, 238796, Control_c, 0, 67, 77
1, 238811, Control_c, 0, 67, 92
1, 238827, Control_c, 0, 67, 101
1, 238872, Control_c, 0, 67, 103
1, 238886, Control_c, 0, 67, 105
1, 238901, Control_c, 0, 67, 107
1, 238930, Control_c, 0, 67, 105
1, 238945, Control_c, 0, 64, 44
1, 238951, Note_on_c, 0, 41, 64
1, 238960, Control_c, 0, 64, 86
1, 238975, Control_c, 0, 64, 127
1, 238979, Note_off_c, 0, 41, 66
1, 238990, Control_c, 0, 67, 102
1, 239005, Control_c, 0, 67, 98
1, 239019, Control_c, 0, 67, 94
1, 239035, Control_c, 0, 67, 92
1, 239050, Control_c, 0, 67, 94
1, 239065, Control_c, 0, 67, 96
1, 239079, Control_c, 0, 67, 98
1, 239124, Control_c, 0, 67, 103
1, 239139, Control_c, 0, 67, 105
1, 239244, Note_on_c, 0, 58, 77
1, 239252, Note_on_c, 0, 53, 61
1, 239258, Control_c, 0, 67, 101
1, 239273, Control_c, 0, 67, 96
1, 239287, Control_c, 0, 67, 94
1, 239302, Control_c, 0, 67, 92
1, 239317, Control_c, 0, 67, 88
1, 239331, Control_c, 0, 67, 82
1, 239346, Control_c, 0, 67, 74
1, 239361, Control_c, 0, 67, 47
1, 239376, Control_c, 0, 67, 0
1, 239491, Note_on_c, 0, 61, 77
1, 239512, Note_on_c, 0, 73, 88
1, 239527, Note_off_c, 0, 53, 62
1, 239527, Note_off_c, 0, 61, 63
1, 239532, Note_off_c, 0, 58, 63
1, 239664, Note_off_c, 0, 75, 58
1, 239800, Note_off_c, 0, 73, 56
1, 239917, Note_on_c, 0, 73, 81
1, 240110, Control_c, 0, 64, 121
1, 240125, Control_c, 0, 64, 89
1, 240140, Control_c, 0, 64, 72
1, 240154, Control_c, 0, 64, 55
1, 240169, Control_c, 0, 64, 0
1, 240206, Control_c, 0, 67, 40
1, 240221, Control_c, 0, 67, 55
1, 240236, Control_c, 0, 67, 59
1, 240251, Control_c, 0, 67, 60
1, 240266, Control_c, 0, 67, 61
1, 240280, Control_c, 0, 67, 62
1, 240284, Note_on_c, 0, 40, 74
1, 240295, Control_c, 0, 67, 62
1, 240310, Control_c, 0, 67, 58
1, 240325, Control_c, 0, 64, 62
1, 240325, Control_c, 0, 67, 56
1, 240340, Control_c, 0, 64, 85
1, 240340, Control_c, 0, 67, 55
1, 240352, Note_off_c, 0, 40, 62
1, 240354, Control_c, 0, 64, 127
1, 240354, Control_c, 0, 67, 57
1, 240369, Control_c, 0, 67, 55
1, 240384, Control_c, 0, 67, 54
1, 240399, Control_c, 0, 67, 52
1, 240429, Control_c, 0, 67, 54
1, 240444, Control_c, 0, 67, 53
1, 240459, Control_c, 0, 67, 52
1, 240474, Control_c, 0, 67, 51
1, 240489, Control_c, 0, 67, 50
1, 240533, Control_c, 0, 67, 48
1, 240548, Control_c, 0, 67, 46
1, 240563, Control_c, 0, 67, 45
1, 240607, Control_c, 0, 67, 45
1, 240622, Control_c, 0, 67, 42
1, 240637, Control_c, 0, 67, 38
1, 240638, Note_on_c, 0, 72, 84
1, 240651, Control_c, 0, 67, 37
1, 240653, Note_on_c, 0, 55, 63
1, 240666, Control_c, 0, 67, 38
1, 240687, Note_off_c, 0, 55, 64
1, 240696, Control_c, 0, 67, 37
1, 240709, Note_off_c, 0, 73, 58
1, 240710, Control_c, 0, 67, 35
1, 240725, Control_c, 0, 67, 35
1, 240740, Control_c, 0, 67, 37
1, 240770, Control_c, 0, 67, 36
1, 240784, Control_c, 0, 67, 34
1, 240799, Control_c, 0, 67, 34
1, 240814, Control_c, 0, 67, 34
1, 240844, Control_c, 0, 67, 34
1, 240859, Control_c, 0, 67, 0
1, 240968, Note_on_c, 0, 60, 66
1, 241321, Note_off_c, 0, 72, 34
1, 241339, Note_on_c, 0, 82, 87
1, 241362, Note_on_c, 0, 67, 65
1, 241453, Note_off_c, 0, 60, 52
1, 241680, Note_off_c, 0, 67, 31
1, 241759, Note_on_c, 0, 60, 48
1, 241836, Control_c, 0, 67, 37
1, 241851, Control_c, 0, 67, 45
1, 241881, Control_c, 0, 67, 47
1, 241896, Control_c, 0, 67, 51
1, 241911, Control_c, 0, 67, 67
1, 241925, Control_c, 0, 67, 86
1, 241940, Control_c, 0, 67, 90
1, 241970, Control_c, 0, 67, 91
1, 241985, Control_c, 0, 67, 95
1, 241999, Control_c, 0, 67, 105
1, 242014, Control_c, 0, 67, 123
1, 242030, Control_c, 0, 67, 127
1, 242213, Note_on_c, 0, 52, 48
1, 242247, Note_off_c, 0, 82, 29
1, 242258, Note_off_c, 0, 60, 60
1, 242687, Note_on_c, 0, 82, 81
1, 242710, Note_on_c, 0, 60, 60
1, 242751, Note_off_c, 0, 60, 57
1, 242765, Note_off_c, 0, 52, 62
1, 243350, Note_on_c, 0, 44, 56
1, 243423, Control_c, 0, 64, 120
1, 243438, Control_c, 0, 64, 91
1, 243452, Control_c, 0, 64, 70
1, 243467, Control_c, 0, 64, 51
1, 243482, Control_c, 0, 64, 0
1, 243556, Control_c, 0, 64, 45
1, 243570, Control_c, 0, 64, 64
1, 243585, Control_c, 0, 64, 80
1, 243600, Control_c, 0, 64, 109
1, 243615, Control_c, 0, 64, 127
1, 243744, Note_off_c, 0, 82, 57
1, 243979, Note_on_c, 0, 81, 79
1, 244020, Note_on_c, 0, 52, 37
1, 244176, Note_off_c, 0, 81, 59
1, 244404, Note_on_c, 0, 80, 79
1, 244448, Note_on_c, 0, 59, 51
1, 244448, Note_off_c, 0, 44, 54
1, 244479, Note_off_c, 0, 52, 60
1, 244513, Note_off_c, 0, 59, 62
1, 244567, Note_off_c, 0, 80, 60
1, 244812, Note_on_c, 0, 71, 78
1, 244854, Note_on_c, 0, 68, 47
1, 244898, Note_off_c, 0, 68, 61
1, 245074, Note_off_c, 0, 71, 35
1, 245348, Note_on_c, 0, 78, 70
1, 245408, Note_on_c, 0, 46, 37
1, 245551, Control_c, 0, 64, 99
1, 245566, Control_c, 0, 64, 87
1, 245580, Control_c, 0, 64, 78
1, 245595, Control_c, 0, 64, 68
1, 245610, Control_c, 0, 64, 56
1, 245625, Control_c, 0, 64, 39
1, 245640, Control_c, 0, 64, 0
1, 245698, Control_c, 0, 64, 34
1, 245713, Control_c, 0, 64, 51
1, 245728, Control_c, 0, 64, 65
1, 245743, Control_c, 0, 64, 77
1, 245750, Note_on_c, 0, 56, 46
1, 245758, Control_c, 0, 64, 90
1, 245773, Control_c, 0, 64, 98
1, 245788, Control_c, 0, 64, 106
1, 245803, Control_c, 0, 64, 127
1, 245852, Note_off_c, 0, 46, 37
1, 246093, Note_off_c, 0, 78, 37
1, 246141, Note_on_c, 0, 62, 38
1, 246248, Note_off_c, 0, 56, 53
1, 246254, Note_off_c, 0, 62, 60
1, 246638, Note_on_c, 0, 77, 59
1, 247079, Note_on_c, 0, 75, 55
1, 247101, Note_on_c, 0, 39, 32
1, 247148, Note_off_c, 0, 77, 38
1, 247197, Control_c, 0, 64, 101
1, 247212, Control_c, 0, 64, 85
1, 247226, Control_c, 0, 64, 67
1, 247241, Control_c, 0, 64, 52
1, 247256, Control_c, 0, 64, 39
1, 247270, Control_c, 0, 64, 34
1, 247300, Control_c, 0, 64, 37
1, 247315, Control_c, 0, 64, 46
1, 247330, Control_c, 0, 64, 59
1, 247344, Control_c, 0, 64, 67
1, 247359, Control_c, 0, 64, 75
1, 247374, Control_c, 0, 64, 83
1, 247389, Control_c, 0, 64, 88
1, 247404, Control_c, 0, 64, 94
1, 247418, Control_c, 0, 64, 106
1, 247420, Note_on_c, 0, 46, 31
1, 247433, Control_c, 0, 64, 127
1, 247533, Note_off_c, 0, 39, 36
1, 247731, Note_on_c, 0, 54, 24
1, 247758, Note_off_c, 0, 46, 39
1, 247781, Note_off_c, 0, 54, 56
1, 248037, Note_on_c, 0, 58, 29
1, 248399, Note_on_c, 0, 63, 35
1, 248498, Note_off_c, 0, 63, 49
1, 248537, Note_off_c, 0, 58, 41
1, 248943, Note_off_c, 0, 75, 53
1, 249139, Control_c, 0, 67, 112
1, 249154, Control_c, 0, 67, 104
1, 249169, Control_c, 0, 67, 99
1, 249190, Control_c, 0, 67, 90
1, 249205, Control_c, 0, 67, 79
1, 249221, Control_c, 0, 67, 74
1, 249251, Control_c, 0, 67, 73
1, 249266, Control_c, 0, 67, 72
1, 249310, Control_c, 0, 67, 74
1, 249354, Control_c, 0, 67, 75
1, 249369, Control_c, 0, 67, 79
1, 249384, Control_c, 0, 67, 81
1, 249414, Control_c, 0, 67, 80
1, 249429, Control_c, 0, 67, 82
1, 249444, Control_c, 0, 67, 87
1, 249459, Control_c, 0, 67, 91
1, 249473, Control_c, 0, 67, 92
1, 249503, Control_c, 0, 67, 94
1, 249518, Control_c, 0, 67, 96
1, 249533, Control_c, 0, 67, 99
1, 249562, Control_c, 0, 67, 101
1, 249592, Control_c, 0, 64, 100
1, 249592, Control_c, 0, 67, 104
1, 249607, Control_c, 0, 64, 86
1, 249607, Control_c, 0, 67, 108
1, 249621, Control_c, 0, 64, 78
1, 249621, Control_c, 0, 67, 119
1, 249636, Control_c, 0, 64, 70
1, 249636, Control_c, 0, 67, 122
1, 249651, Control_c, 0, 64, 59
1, 249665, Control_c, 0, 64, 41
1, 249680, Control_c, 0, 64, 0
1, 249695, Control_c, 0, 67, 124
1, 249725, Control_c, 0, 64, 31
1, 249725, Control_c, 0, 67, 122
1, 249739, Control_c, 0, 64, 42
1, 249754, Control_c, 0, 64, 53
1, 249754, Control_c, 0, 67, 120
1, 249769, Control_c, 0, 64, 62
1, 249784, Control_c, 0, 64, 68
1, 249799, Control_c, 0, 64, 74
1, 249799, Control_c, 0, 67, 116
1, 249813, Control_c, 0, 64, 78
1, 249828, Note_on_c, 0, 63, 77
1, 249828, Control_c, 0, 64, 81
1, 249843, Control_c, 0, 64, 88
1, 249858, Control_c, 0, 64, 96
1, 249858, Control_c, 0, 67, 113
1, 249873, Control_c, 0, 64, 111
1, 249873, Control_c, 0, 67, 111
1, 249888, Control_c, 0, 64, 127
1, 249893, Note_off_c, 0, 63, 57
1, 249972, Note_on_c, 0, 63, 72
1, 249999, Control_c, 0, 67, 115
1, 250030, Control_c, 0, 67, 117
1, 250044, Control_c, 0, 67, 119
1, 250059, Control_c, 0, 67, 122
1, 250074, Control_c, 0, 67, 125
1, 250118, Control_c, 0, 67, 127
1, 250295, Note_on_c, 0, 75, 52
1, 250419, Note_on_c, 0, 40, 33
1, 250459, Note_off_c, 0, 40, 54
1, 250723, Note_on_c, 0, 66, 45
1, 250734, Note_on_c, 0, 58, 33
1, 250746, Note_on_c, 0, 54, 27
1, 250848, Note_off_c, 0, 58, 54
1, 250881, Note_off_c, 0, 54, 42
1, 250989, Note_on_c, 0, 70, 56
1, 251004, Note_off_c, 0, 63, 61
1, 251009, Note_off_c, 0, 66, 63
1, 251015, Note_off_c, 0, 75, 54
1, 251022, Note_off_c, 0, 70, 65
1, 251045, Control_c, 0, 67, 121
1, 251059, Control_c, 0, 67, 111
1, 251074, Control_c, 0, 67, 105
1, 251089, Control_c, 0, 67, 96
1, 251104, Control_c, 0, 67, 82
1, 251119, Control_c, 0, 67, 68
1, 251134, Control_c, 0, 67, 57
1, 251149, Control_c, 0, 67, 51
1, 251164, Control_c, 0, 67, 50
1, 251179, Control_c, 0, 67, 49
1, 251237, Control_c, 0, 67, 50
1, 251252, Control_c, 0, 67, 50
1, 251267, Control_c, 0, 67, 51
1, 251282, Control_c, 0, 67, 53
1, 251287, Note_on_c, 0, 68, 83
1, 251297, Control_c, 0, 67, 61
1, 251311, Control_c, 0, 67, 67
1, 251326, Control_c, 0, 67, 65
1, 251341, Control_c, 0, 67, 64
1, 251356, Control_c, 0, 67, 64
1, 251371, Control_c, 0, 67, 68
1, 251385, Control_c, 0, 67, 78
1, 251400, Control_c, 0, 67, 85
1, 251415, Control_c, 0, 67, 85
1, 251437, Control_c, 0, 67, 87
1, 251452, Control_c, 0, 67, 91
1, 251467, Control_c, 0, 67, 111
1, 251482, Control_c, 0, 67, 127
1, 251575, Note_on_c, 0, 80, 58
1, 251585, Control_c, 0, 64, 113
1, 251600, Control_c, 0, 64, 94
1, 251616, Control_c, 0, 64, 75
1, 251626, Note_on_c, 0, 52, 45
1, 251631, Control_c, 0, 64, 59
1, 251646, Control_c, 0, 64, 32
1, 251661, Control_c, 0, 64, 0
1, 251720, Control_c, 0, 64, 31
1, 251734, Control_c, 0, 64, 45
1, 251749, Control_c, 0, 64, 58
1, 251754, Note_on_c, 0, 58, 35
1, 251764, Control_c, 0, 64, 68
1, 251779, Control_c, 0, 64, 77
1, 251794, Control_c, 0, 64, 87
1, 251808, Control_c, 0, 64, 94
1, 251823, Control_c, 0, 64, 103
1, 251838, Control_c, 0, 64, 115
1, 251853, Control_c, 0, 64, 127
1, 251937, Note_on_c, 0, 61, 42
1, 251946, Note_on_c, 0, 70, 41
1, 251971, Note_off_c, 0, 52, 35
1, 251989, Note_off_c, 0, 61, 59
1, 252024, Note_off_c, 0, 58, 41
1, 252321, Note_on_c, 0, 73, 48
1, 252329, Note_off_c, 0, 80, 33
1, 252362, Note_off_c, 0, 70, 32
1, 252445, Note_off_c, 0, 68, 30
1, 252502, Note_off_c, 0, 73, 29
1, 252612, Note_on_c, 0, 67, 60
1, 252687, Note_off_c, 0, 67, 54
1, 252810, Note_on_c, 0, 67, 68
1, 253068, Control_c, 0, 64, 120
1, 253083, Control_c, 0, 64, 109
1, 253098, Control_c, 0, 64, 100
1, 253113, Control_c, 0, 64, 88
1, 253122, Note_on_c, 0, 79, 49
1, 253128, Control_c, 0, 64, 74
1, 253143, Control_c, 0, 64, 57
1, 253157, Control_c, 0, 64, 40
1, 253172, Control_c, 0, 64, 0
1, 253184, Note_on_c, 0, 51, 43
1, 253262, Control_c, 0, 64, 41
1, 253277, Control_c, 0, 64, 55
1, 253292, Control_c, 0, 64, 63
1, 253306, Control_c, 0, 64, 66
1, 253321, Note_on_c, 0, 59, 25
1, 253321, Control_c, 0, 64, 68
1, 253336, Control_c, 0, 64, 71
1, 253351, Control_c, 0, 64, 78
1, 253366, Control_c, 0, 64, 86
1, 253380, Control_c, 0, 64, 99
1, 253395, Control_c, 0, 64, 114
1, 253410, Control_c, 0, 64, 127
1, 253531, Note_off_c, 0, 51, 34
1, 253536, Note_on_c, 0, 71, 36
1, 253543, Note_on_c, 0, 63, 42
1, 253585, Note_off_c, 0, 63, 61
1, 253609, Note_off_c, 0, 59, 42
1, 253984, Note_on_c, 0, 75, 38
1, 254035, Note_off_c, 0, 79, 39
1, 254070, Note_off_c, 0, 67, 37
1, 254137, Note_off_c, 0, 71, 40
1, 254188, Note_off_c, 0, 75, 58
1, 254699, Note_on_c, 0, 66, 60
1, 254845, Note_off_c, 0, 66, 63
1, 254891, Control_c, 0, 67, 124
1, 254921, Control_c, 0, 67, 121
1, 254936, Control_c, 0, 67, 118
1, 254950, Control_c, 0, 67, 105
1, 254965, Control_c, 0, 67, 89
1, 254980, Control_c, 0, 67, 75
1, 254995, Control_c, 0, 67, 69
1, 255010, Control_c, 0, 67, 65
1, 255024, Control_c, 0, 67, 59
1, 255039, Control_c, 0, 67, 52
1, 255054, Control_c, 0, 67, 44
1, 255060, Note_on_c, 0, 59, 74
1, 255069, Control_c, 0, 67, 0
1, 255165, Note_off_c, 0, 59, 62
1, 255348, Note_on_c, 0, 61, 77
1, 255438, Note_off_c, 0, 61, 63
1, 255657, Note_on_c, 0, 63, 88
1, 255804, Control_c, 0, 64, 84
1, 255819, Control_c, 0, 64, 65
1, 255833, Control_c, 0, 64, 45
1, 255848, Control_c, 0, 64, 0
1, 255930, Control_c, 0, 64, 48
1, 255945, Control_c, 0, 64, 69
1, 255960, Control_c, 0, 64, 86
1, 255966, Note_on_c, 0, 75, 68
1, 255975, Control_c, 0, 64, 113
1, 255989, Control_c, 0, 64, 127
1, 256060, Note_on_c, 0, 40, 51
1, 256071, Note_off_c, 0, 63, 55
1, 256071, Note_off_c, 0, 75, 56
1, 256092, Note_off_c, 0, 40, 63
1, 256284, Note_on_c, 0, 63, 90
1, 256310, Note_on_c, 0, 54, 58
1, 256312, Note_on_c, 0, 58, 59
1, 256341, Note_off_c, 0, 54, 64
1, 256357, Note_off_c, 0, 58, 57
1, 256547, Note_on_c, 0, 70, 61
1, 256562, Note_off_c, 0, 63, 60
1, 256562, Poly_aftertouch_c, 0, 66, 127
1, 256582, Note_off_c, 0, 70, 62
1, 256598, Poly_aftertouch_c, 0, 66, 0
1, 256867, Note_on_c, 0, 68, 76
1, 256901, Control_c, 0, 67, 37
1, 256916, Control_c, 0, 67, 74
1, 256930, Control_c, 0, 67, 108
1, 256945, Control_c, 0, 67, 115
1, 256974, Control_c, 0, 67, 119
1, 256989, Control_c, 0, 67, 127
1, 257004, Control_c, 0, 64, 112
1, 257019, Control_c, 0, 64, 103
1, 257034, Control_c, 0, 64, 96
1, 257048, Control_c, 0, 64, 89
1, 257063, Control_c, 0, 64, 83
1, 257078, Control_c, 0, 64, 79
1, 257093, Control_c, 0, 64, 75
1, 257108, Control_c, 0, 64, 70
1, 257123, Control_c, 0, 64, 63
1, 257137, Control_c, 0, 64, 56
1, 257142, Note_on_c, 0, 80, 52
1, 257152, Control_c, 0, 64, 48
1, 257167, Control_c, 0, 64, 39
1, 257182, Control_c, 0, 64, 0
1, 257228, Note_on_c, 0, 52, 45
1, 257286, Control_c, 0, 64, 33
1, 257301, Control_c, 0, 64, 46
1, 257316, Control_c, 0, 64, 58
1, 257331, Control_c, 0, 64, 67
1, 257346, Control_c, 0, 64, 74
1, 257361, Control_c, 0, 64, 79
1, 257364, Note_on_c, 0, 58, 35
1, 257376, Control_c, 0, 64, 83
1, 257391, Control_c, 0, 64, 86
1, 257406, Control_c, 0, 64, 89
1, 257427, Control_c, 0, 64, 93
1, 257442, Control_c, 0, 64, 99
1, 257457, Control_c, 0, 64, 107
1, 257472, Control_c, 0, 64, 119
1, 257486, Control_c, 0, 64, 127
1, 257543, Note_on_c, 0, 70, 44
1, 257567, Note_on_c, 0, 61, 40
1, 257573, Note_off_c, 0, 52, 51
1, 257627, Note_off_c, 0, 61, 58
1, 257657, Note_off_c, 0, 58, 40
1, 257885, Note_on_c, 0, 73, 48
1, 257951, Note_off_c, 0, 70, 40
1, 257958, Note_off_c, 0, 68, 53
1, 257967, Note_off_c, 0, 80, 36
1, 258062, Note_on_c, 0, 67, 57
1, 258066, Note_off_c, 0, 73, 35
1, 258139, Note_off_c, 0, 67, 54
1, 258270, Note_on_c, 0, 67, 65
1, 258339, Control_c, 0, 64, 121
1, 258354, Control_c, 0, 64, 93
1, 258368, Control_c, 0, 64, 79
1, 258383, Control_c, 0, 64, 67
1, 258398, Control_c, 0, 64, 57
1, 258413, Control_c, 0, 64, 51
1, 258427, Control_c, 0, 64, 50
1, 258442, Control_c, 0, 64, 51
1, 258457, Control_c, 0, 64, 53
1, 258472, Control_c, 0, 64, 55
1, 258487, Control_c, 0, 64, 57
1, 258502, Control_c, 0, 64, 57
1, 258532, Control_c, 0, 64, 58
1, 258547, Control_c, 0, 64, 58
1, 258562, Control_c, 0, 64, 59
1, 258576, Control_c, 0, 64, 59
1, 258591, Control_c, 0, 64, 60
1, 258595, Note_on_c, 0, 79, 43
1, 258693, Note_on_c, 0, 51, 40
1, 258724, Control_c, 0, 64, 60
1, 258739, Control_c, 0, 64, 62
1, 258753, Control_c, 0, 64, 65
1, 258768, Control_c, 0, 64, 67
1, 258783, Control_c, 0, 64, 70
1, 258799, Control_c, 0, 64, 72
1, 258814, Control_c, 0, 64, 76
1, 258817, Note_on_c, 0, 59, 27
1, 258829, Control_c, 0, 64, 80
1, 258843, Control_c, 0, 64, 84
1, 258858, Control_c, 0, 64, 89
1, 258873, Control_c, 0, 64, 94
1, 258888, Control_c, 0, 64, 97
1, 258903, Control_c, 0, 64, 101
1, 258925, Control_c, 0, 64, 106
1, 258940, Control_c, 0, 64, 114
1, 258955, Control_c, 0, 64, 127
1, 259015, Note_on_c, 0, 71, 33
1, 259036, Note_on_c, 0, 63, 34
1, 259050, Note_off_c, 0, 51, 42
1, 259085, Note_off_c, 0, 63, 58
1, 259121, Note_off_c, 0, 59, 40
1, 259388, Note_on_c, 0, 75, 33
1, 259504, Note_off_c, 0, 79, 45
1, 259522, Note_off_c, 0, 67, 60
1, 259540, Note_off_c, 0, 75, 59
1, 259567, Note_off_c, 0, 71, 40
1, 259881, Control_c, 0, 67, 125
1, 259926, Control_c, 0, 67, 120
1, 259940, Control_c, 0, 67, 112
1, 259955, Control_c, 0, 67, 97
1, 259970, Control_c, 0, 67, 91
1, 259975, Note_on_c, 0, 66, 69
1, 259985, Control_c, 0, 67, 91
1, 259999, Control_c, 0, 67, 88
1, 260014, Control_c, 0, 67, 81
1, 260029, Control_c, 0, 67, 67
1, 260044, Control_c, 0, 67, 59
1, 260059, Control_c, 0, 67, 57
1, 260074, Control_c, 0, 67, 51
1, 260089, Control_c, 0, 67, 0
1, 260166, Note_off_c, 0, 66, 62
1, 260277, Note_on_c, 0, 65, 74
1, 260431, Note_off_c, 0, 65, 58
1, 260550, Note_on_c, 0, 64, 70
1, 260661, Note_off_c, 0, 64, 63
1, 260852, Note_on_c, 0, 63, 77
1, 260971, Control_c, 0, 64, 91
1, 260986, Control_c, 0, 64, 69
1, 261001, Control_c, 0, 64, 44
1, 261015, Control_c, 0, 64, 0
1, 261075, Control_c, 0, 64, 43
1, 261089, Control_c, 0, 64, 70
1, 261104, Control_c, 0, 64, 127
1, 261111, Note_on_c, 0, 75, 68
1, 261117, Note_on_c, 0, 67, 51
1, 261142, Note_off_c, 0, 67, 60
1, 261147, Note_on_c, 0, 49, 52
1, 261151, Note_off_c, 0, 63, 64
1, 261177, Note_off_c, 0, 75, 64
1, 261421, Note_on_c, 0, 71, 90
1, 261460, Note_on_c, 0, 55, 49
1, 261462, Note_on_c, 0, 63, 50
1, 261469, Note_off_c, 0, 49, 58
1, 261516, Note_off_c, 0, 63, 53
1, 261535, Note_off_c, 0, 55, 60
1, 261805, Note_on_c, 0, 83, 64
1, 261818, Note_on_c, 0, 75, 60
1, 261861, Note_off_c, 0, 83, 53
1, 261892, Note_off_c, 0, 71, 51
1, 261934, Note_off_c, 0, 75, 62
1, 262202, Note_on_c, 0, 70, 73
1, 262424, Control_c, 0, 64, 116
1, 262439, Control_c, 0, 64, 103
1, 262454, Control_c, 0, 64, 89
1, 262468, Control_c, 0, 64, 75
1, 262483, Control_c, 0, 64, 61
1, 262498, Control_c, 0, 64, 41
1, 262513, Control_c, 0, 64, 0
1, 262535, Note_on_c, 0, 82, 54
1, 262542, Note_on_c, 0, 75, 41
1, 262548, Note_on_c, 0, 47, 46
1, 262587, Control_c, 0, 64, 38
1, 262601, Control_c, 0, 64, 59
1, 262616, Control_c, 0, 64, 70
1, 262631, Control_c, 0, 64, 78
1, 262646, Control_c, 0, 64, 83
1, 262668, Control_c, 0, 64, 92
1, 262683, Control_c, 0, 64, 127
1, 262767, Note_off_c, 0, 47, 37
1, 262806, Note_on_c, 0, 56, 59
1, 262812, Note_on_c, 0, 63, 55
1, 262827, Note_off_c, 0, 70, 62
1, 262876, Note_off_c, 0, 63, 50
1, 262887, Note_off_c, 0, 56, 53
1, 263044, Note_on_c, 0, 68, 79
1, 263096, Note_off_c, 0, 82, 58
1, 263122, Note_off_c, 0, 75, 65
1, 263178, Note_off_c, 0, 68, 58
1, 263328, Note_on_c, 0, 68, 83
1, 263462, Control_c, 0, 67, 40
1, 263477, Control_c, 0, 64, 113
1, 263477, Control_c, 0, 67, 77
1, 263491, Control_c, 0, 64, 96
1, 263491, Control_c, 0, 67, 94
1, 263506, Control_c, 0, 64, 82
1, 263506, Control_c, 0, 67, 96
1, 263521, Control_c, 0, 64, 70
1, 263521, Control_c, 0, 67, 99
1, 263536, Control_c, 0, 64, 59
1, 263536, Control_c, 0, 67, 107
1, 263550, Control_c, 0, 64, 47
1, 263550, Control_c, 0, 67, 127
1, 263565, Control_c, 0, 64, 32
1, 263580, Control_c, 0, 64, 0
1, 263640, Control_c, 0, 64, 36
1, 263655, Control_c, 0, 64, 58
1, 263660, Note_on_c, 0, 80, 57
1, 263670, Control_c, 0, 64, 72
1, 263671, Note_on_c, 0, 48, 44
1, 263672, Note_on_c, 0, 75, 47
1, 263685, Control_c, 0, 64, 83
1, 263700, Control_c, 0, 64, 93
1, 263714, Control_c, 0, 64, 98
1, 263729, Control_c, 0, 64, 107
1, 263744, Control_c, 0, 64, 127
1, 263755, Note_off_c, 0, 75, 61
1, 263768, Note_off_c, 0, 80, 61
1, 263790, Note_off_c, 0, 68, 62
1, 263999, Note_on_c, 0, 66, 87
1, 264028, Note_on_c, 0, 63, 50
1, 264032, Note_on_c, 0, 57, 43
1, 264055, Control_c, 0, 64, 106
1, 264070, Control_c, 0, 64, 77
1, 264085, Control_c, 0, 64, 59
1, 264100, Control_c, 0, 64, 33
1, 264114, Control_c, 0, 64, 0
1, 264166, Control_c, 0, 64, 44
1, 264181, Control_c, 0, 64, 64
1, 264196, Control_c, 0, 64, 73
1, 264211, Control_c, 0, 64, 82
1, 264226, Control_c, 0, 64, 90
1, 264240, Control_c, 0, 64, 103
1, 264255, Control_c, 0, 64, 127
1, 264292, Note_on_c, 0, 75, 58
1, 264296, Note_off_c, 0, 48, 41
1, 264301, Note_on_c, 0, 78, 51
1, 264307, Note_off_c, 0, 63, 58
1, 264330, Note_off_c, 0, 75, 58
1, 264342, Note_off_c, 0, 78, 56
1, 264361, Note_off_c, 0, 66, 57
1, 264400, Note_off_c, 0, 57, 31
1, 264586, Note_on_c, 0, 65, 73
1, 264685, Control_c, 0, 64, 118
1, 264700, Control_c, 0, 64, 94
1, 264715, Control_c, 0, 64, 79
1, 264730, Control_c, 0, 64, 68
1, 264745, Control_c, 0, 64, 57
1, 264760, Control_c, 0, 64, 46
1, 264775, Control_c, 0, 64, 32
1, 264789, Control_c, 0, 64, 0
1, 264834, Control_c, 0, 64, 33
1, 264849, Control_c, 0, 64, 47
1, 264863, Control_c, 0, 64, 60
1, 264875, Note_on_c, 0, 49, 43
1, 264878, Control_c, 0, 64, 68
1, 264886, Note_on_c, 0, 77, 51
1, 264893, Control_c, 0, 64, 72
1, 264913, Note_on_c, 0, 69, 31
1, 264915, Control_c, 0, 64, 73
1, 264930, Control_c, 0, 64, 76
1, 264944, Control_c, 0, 64, 81
1, 264959, Control_c, 0, 64, 91
1, 264974, Control_c, 0, 64, 106
1, 264989, Control_c, 0, 64, 127
1, 265177, Note_off_c, 0, 65, 53
1, 265247, Note_on_c, 0, 57, 37
1, 265251, Note_on_c, 0, 61, 41
1, 265260, Note_off_c, 0, 49, 35
1, 265314, Note_off_c, 0, 61, 53
1, 265325, Note_off_c, 0, 57, 52
1, 265635, Note_on_c, 0, 64, 68
1, 265636, Note_off_c, 0, 77, 44
1, 265672, Note_off_c, 0, 69, 37
1, 265688, Note_off_c, 0, 64, 61
1, 266131, Note_on_c, 0, 61, 72
1, 266242, Control_c, 0, 64, 99
1, 266257, Control_c, 0, 64, 78
1, 266272, Control_c, 0, 64, 61
1, 266287, Control_c, 0, 64, 34
1, 266302, Control_c, 0, 64, 0
1, 266360, Control_c, 0, 64, 32
1, 266375, Control_c, 0, 64, 48
1, 266390, Control_c, 0, 64, 60
1, 266413, Control_c, 0, 64, 69
1, 266428, Control_c, 0, 64, 73
1, 266442, Control_c, 0, 64, 79
1, 266457, Control_c, 0, 64, 87
1, 266472, Control_c, 0, 64, 103
1, 266478, Note_on_c, 0, 64, 43
1, 266487, Control_c, 0, 64, 127
1, 266521, Note_off_c, 0, 61, 62
1, 266530, Note_off_c, 0, 64, 61
1, 266617, Poly_aftertouch_c, 0, 40, 127
1, 266657, Poly_aftertouch_c, 0, 40, 0
1, 266813, Note_on_c, 0, 73, 80
1, 266825, Note_on_c, 0, 61, 64
1, 266840, Note_on_c, 0, 57, 47
1, 266864, Note_off_c, 0, 57, 60
1, 267100, Note_on_c, 0, 64, 55
1, 267129, Note_off_c, 0, 61, 54
1, 267132, Note_off_c, 0, 64, 65
1, 267175, Note_off_c, 0, 73, 56
1, 267246, Note_on_c, 0, 40, 36
1, 267551, Note_on_c, 0, 73, 60
1, 267585, Note_on_c, 0, 62, 34
1, 267589, Note_on_c, 0, 65, 28
1, 267591, Note_on_c, 0, 56, 48
1, 267636, Control_c, 0, 64, 117
1, 267651, Control_c, 0, 64, 88
1, 267666, Control_c, 0, 64, 70
1, 267680, Control_c, 0, 64, 54
1, 267695, Control_c, 0, 64, 39
1, 267710, Control_c, 0, 64, 35
1, 267725, Control_c, 0, 64, 36
1, 267740, Control_c, 0, 64, 48
1, 267754, Control_c, 0, 64, 63
1, 267769, Control_c, 0, 64, 74
1, 267784, Control_c, 0, 64, 85
1, 267799, Control_c, 0, 64, 93
1, 267813, Control_c, 0, 64, 99
1, 267828, Control_c, 0, 64, 118
1, 267843, Control_c, 0, 64, 127
1, 267888, Note_on_c, 0, 68, 49
1, 267895, Note_off_c, 0, 40, 39
1, 267933, Note_off_c, 0, 56, 53
1, 267938, Note_off_c, 0, 65, 43
1, 268288, Note_on_c, 0, 64, 42
1, 268307, Note_off_c, 0, 73, 61
1, 268364, Note_off_c, 0, 68, 56
1, 268384, Note_off_c, 0, 62, 42
1, 268474, Note_off_c, 0, 64, 33
1, 268707, Note_on_c, 0, 71, 59
1, 269043, Note_on_c, 0, 69, 55
1, 269109, Note_off_c, 0, 71, 35
1, 269192, Control_c, 0, 64, 121
1, 269207, Control_c, 0, 64, 106
1, 269222, Control_c, 0, 64, 95
1, 269237, Control_c, 0, 64, 86
1, 269252, Control_c, 0, 64, 78
1, 269267, Control_c, 0, 64, 70
1, 269282, Control_c, 0, 64, 63
1, 269297, Control_c, 0, 64, 56
1, 269311, Control_c, 0, 64, 50
1, 269326, Control_c, 0, 64, 43
1, 269341, Control_c, 0, 64, 37
1, 269356, Control_c, 0, 64, 0
1, 269378, Note_on_c, 0, 64, 40
1, 269381, Note_on_c, 0, 45, 40
1, 269452, Control_c, 0, 64, 34
1, 269466, Control_c, 0, 64, 44
1, 269481, Control_c, 0, 64, 54
1, 269496, Control_c, 0, 64, 61
1, 269511, Control_c, 0, 64, 65
1, 269526, Control_c, 0, 64, 68
1, 269541, Control_c, 0, 64, 71
1, 269556, Control_c, 0, 64, 74
1, 269571, Control_c, 0, 64, 75
1, 269585, Control_c, 0, 64, 79
1, 269600, Control_c, 0, 64, 83
1, 269615, Control_c, 0, 64, 90
1, 269630, Control_c, 0, 64, 97
1, 269645, Control_c, 0, 64, 109
1, 269646, Note_on_c, 0, 61, 50
1, 269655, Note_on_c, 0, 52, 34
1, 269659, Control_c, 0, 64, 127
1, 269696, Note_off_c, 0, 61, 47
1, 269717, Note_off_c, 0, 64, 35
1, 269896, Note_off_c, 0, 45, 35
1, 269914, Note_on_c, 0, 57, 31
1, 269917, Note_off_c, 0, 52, 52
1, 269921, Note_on_c, 0, 64, 32
1, 269949, Note_off_c, 0, 57, 48
1, 270063, Note_off_c, 0, 64, 40
1, 270203, Note_on_c, 0, 61, 28
1, 270341, Note_off_c, 0, 69, 30
1, 270504, Note_on_c, 0, 64, 36
1, 270963, Note_on_c, 0, 69, 36
1, 271019, Note_off_c, 0, 69, 57
1, 271059, Note_off_c, 0, 64, 57
1, 271079, Note_off_c, 0, 61, 42
1, 271142, Control_c, 0, 67, 116
1, 271157, Control_c, 0, 67, 85
1, 271172, Control_c, 0, 67, 51
1, 271186, Control_c, 0, 67, 0
1, 271603, Control_c, 0, 64, 120
1, 271618, Control_c, 0, 64, 83
1, 271633, Control_c, 0, 64, 64
1, 271654, Control_c, 0, 64, 36
1, 271669, Control_c, 0, 64, 0
1, 271744, Control_c, 0, 64, 47
1, 271759, Control_c, 0, 64, 66
1, 271774, Control_c, 0, 64, 82
1, 271788, Control_c, 0, 64, 110
1, 271798, Note_on_c, 0, 69, 80
1, 271803, Control_c, 0, 64, 127
1, 271851, Note_off_c, 0, 69, 60
1, 271935, Note_on_c, 0, 69, 84
1, 272248, Note_on_c, 0, 81, 63
1, 272341, Note_on_c, 0, 46, 53
1, 272373, Note_off_c, 0, 46, 62
1, 272692, Note_on_c, 0, 73, 58
1, 272693, Note_on_c, 0, 61, 40
1, 272713, Note_on_c, 0, 64, 42
1, 272793, Note_off_c, 0, 64, 60
1, 272829, Note_off_c, 0, 61, 30
1, 272951, Note_on_c, 0, 76, 67
1, 272958, Note_off_c, 0, 81, 60
1, 272978, Note_off_c, 0, 69, 61
1, 272987, Note_off_c, 0, 76, 63
1, 272987, Note_off_c, 0, 73, 63
1, 273318, Note_on_c, 0, 74, 83
1, 273463, Control_c, 0, 64, 107
1, 273478, Control_c, 0, 64, 84
1, 273493, Control_c, 0, 64, 70
1, 273507, Control_c, 0, 64, 58
1, 273522, Control_c, 0, 64, 41
1, 273537, Control_c, 0, 64, 0
1, 273596, Control_c, 0, 64, 41
1, 273611, Control_c, 0, 64, 55
1, 273618, Note_on_c, 0, 86, 56
1, 273625, Control_c, 0, 64, 67
1, 273640, Control_c, 0, 64, 77
1, 273655, Control_c, 0, 64, 95
1, 273670, Control_c, 0, 64, 115
1, 273679, Note_on_c, 0, 58, 53
1, 273685, Control_c, 0, 64, 127
1, 273830, Note_on_c, 0, 64, 42
1, 273992, Note_off_c, 0, 58, 38
1, 274017, Note_on_c, 0, 76, 52
1, 274040, Note_on_c, 0, 67, 36
1, 274055, Note_off_c, 0, 86, 55
1, 274085, Note_off_c, 0, 64, 47
1, 274087, Note_off_c, 0, 67, 59
1, 274445, Note_off_c, 0, 74, 63
1, 274470, Note_on_c, 0, 79, 44
1, 274521, Note_off_c, 0, 76, 62
1, 274624, Note_on_c, 0, 73, 73
1, 274717, Note_off_c, 0, 73, 58
1, 274792, Note_on_c, 0, 73, 77
1, 274892, Note_off_c, 0, 79, 53
1, 274930, Control_c, 0, 67, 56
1, 274945, Control_c, 0, 67, 84
1, 274960, Control_c, 0, 67, 104
1, 274976, Control_c, 0, 64, 108
1, 274976, Control_c, 0, 67, 122
1, 274990, Control_c, 0, 64, 92
1, 274990, Control_c, 0, 67, 127
1, 275005, Control_c, 0, 64, 81
1, 275020, Control_c, 0, 64, 70
1, 275035, Control_c, 0, 64, 60
1, 275050, Control_c, 0, 64, 53
1, 275065, Control_c, 0, 64, 48
1, 275079, Control_c, 0, 64, 42
1, 275094, Note_on_c, 0, 85, 58
1, 275094, Control_c, 0, 64, 30
1, 275101, Note_on_c, 0, 57, 42
1, 275109, Control_c, 0, 64, 0
1, 275154, Control_c, 0, 64, 31
1, 275169, Control_c, 0, 64, 40
1, 275184, Control_c, 0, 64, 49
1, 275198, Control_c, 0, 64, 55
1, 275213, Control_c, 0, 64, 62
1, 275223, Note_on_c, 0, 65, 37
1, 275228, Control_c, 0, 64, 69
1, 275243, Control_c, 0, 64, 75
1, 275258, Control_c, 0, 64, 79
1, 275272, Control_c, 0, 64, 80
1, 275287, Control_c, 0, 64, 82
1, 275302, Control_c, 0, 64, 85
1, 275316, Control_c, 0, 64, 88
1, 275331, Control_c, 0, 64, 92
1, 275346, Control_c, 0, 64, 97
1, 275361, Control_c, 0, 64, 103
1, 275376, Control_c, 0, 64, 112
1, 275398, Control_c, 0, 64, 127
1, 275427, Note_off_c, 0, 57, 33
1, 275434, Note_on_c, 0, 77, 52
1, 275438, Note_on_c, 0, 69, 39
1, 275484, Note_off_c, 0, 69, 59
1, 275497, Note_off_c, 0, 65, 49
1, 275722, Note_off_c, 0, 85, 52
1, 275791, Note_on_c, 0, 81, 48
1, 275870, Note_off_c, 0, 73, 59
1, 275877, Note_off_c, 0, 77, 50
1, 275938, Note_off_c, 0, 81, 61
1, 276095, Control_c, 0, 67, 115
1, 276110, Control_c, 0, 67, 87
1, 276125, Control_c, 0, 67, 62
1, 276147, Control_c, 0, 67, 47
1, 276162, Control_c, 0, 67, 0
1, 276377, Note_on_c, 0, 72, 71
1, 276523, Note_off_c, 0, 72, 61
1, 276776, Note_on_c, 0, 65, 78
1, 276928, Note_off_c, 0, 65, 58
1, 277068, Note_on_c, 0, 67, 86
1, 277171, Note_off_c, 0, 67, 63
1, 277371, Note_on_c, 0, 69, 90
1, 277488, Control_c, 0, 64, 97
1, 277503, Control_c, 0, 64, 71
1, 277518, Control_c, 0, 64, 48
1, 277533, Control_c, 0, 64, 0
1, 277592, Control_c, 0, 64, 33
1, 277607, Control_c, 0, 64, 59
1, 277622, Control_c, 0, 64, 77
1, 277644, Control_c, 0, 64, 114
1, 277659, Control_c, 0, 64, 127
1, 277664, Note_on_c, 0, 81, 72
1, 277711, Note_off_c, 0, 69, 62
1, 277719, Note_off_c, 0, 81, 61
1, 277721, Note_on_c, 0, 46, 44
1, 277754, Note_off_c, 0, 46, 49
1, 277960, Note_on_c, 0, 69, 80
1, 277981, Note_on_c, 0, 61, 55
1, 277982, Note_on_c, 0, 64, 57
1, 278020, Note_off_c, 0, 64, 62
1, 278021, Note_off_c, 0, 61, 64
1, 278048, Poly_aftertouch_c, 0, 73, 127
1, 278218, Note_on_c, 0, 76, 77
1, 278236, Note_off_c, 0, 69, 63
1, 278261, Poly_aftertouch_c, 0, 73, 0
1, 278263, Note_off_c, 0, 76, 65
1, 278570, Note_on_c, 0, 74, 94
1, 278586, Control_c, 0, 67, 60
1, 278601, Control_c, 0, 67, 74
1, 278630, Control_c, 0, 67, 75
1, 278645, Control_c, 0, 67, 81
1, 278660, Control_c, 0, 67, 105
1, 278674, Control_c, 0, 67, 127
1, 278704, Control_c, 0, 64, 114
1, 278719, Control_c, 0, 64, 100
1, 278734, Control_c, 0, 64, 93
1, 278749, Control_c, 0, 64, 88
1, 278764, Control_c, 0, 64, 82
1, 278779, Control_c, 0, 64, 77
1, 278794, Control_c, 0, 64, 71
1, 278809, Control_c, 0, 64, 65
1, 278824, Control_c, 0, 64, 60
1, 278838, Control_c, 0, 64, 56
1, 278853, Note_on_c, 0, 86, 68
1, 278853, Control_c, 0, 64, 50
1, 278868, Control_c, 0, 64, 39
1, 278883, Control_c, 0, 64, 0
1, 278919, Note_on_c, 0, 58, 56
1, 278972, Control_c, 0, 64, 34
1, 278987, Control_c, 0, 64, 52
1, 279002, Control_c, 0, 64, 66
1, 279017, Control_c, 0, 64, 76
1, 279032, Control_c, 0, 64, 85
1, 279046, Control_c, 0, 64, 89
1, 279053, Note_on_c, 0, 64, 50
1, 279061, Control_c, 0, 64, 93
1, 279076, Control_c, 0, 64, 102
1, 279090, Control_c, 0, 64, 127
1, 279223, Note_on_c, 0, 76, 61
1, 279236, Note_off_c, 0, 86, 45
1, 279241, Note_on_c, 0, 67, 39
1, 279298, Note_off_c, 0, 58, 43
1, 279342, Note_off_c, 0, 64, 58
1, 279360, Note_off_c, 0, 67, 38
1, 279579, Note_off_c, 0, 74, 61
1, 279617, Note_on_c, 0, 79, 37
1, 279646, Note_off_c, 0, 76, 63
1, 279867, Note_on_c, 0, 73, 68
1, 279958, Note_off_c, 0, 73, 54
1, 280073, Note_on_c, 0, 73, 63
1, 280158, Control_c, 0, 64, 115
1, 280168, Note_off_c, 0, 79, 43
1, 280173, Control_c, 0, 64, 101
1, 280187, Control_c, 0, 64, 93
1, 280202, Control_c, 0, 64, 85
1, 280216, Control_c, 0, 64, 80
1, 280230, Control_c, 0, 64, 73
1, 280245, Control_c, 0, 64, 66
1, 280260, Control_c, 0, 64, 59
1, 280275, Control_c, 0, 64, 53
1, 280290, Control_c, 0, 64, 50
1, 280305, Control_c, 0, 64, 47
1, 280319, Control_c, 0, 64, 41
1, 280334, Control_c, 0, 64, 32
1, 280349, Control_c, 0, 64, 0
1, 280393, Note_on_c, 0, 85, 51
1, 280409, Control_c, 0, 64, 32
1, 280424, Control_c, 0, 64, 40
1, 280439, Control_c, 0, 64, 46
1, 280448, Note_on_c, 0, 56, 40
1, 280454, Control_c, 0, 64, 53
1, 280468, Control_c, 0, 64, 61
1, 280483, Control_c, 0, 64, 68
1, 280498, Control_c, 0, 64, 73
1, 280513, Control_c, 0, 64, 75
1, 280527, Control_c, 0, 64, 77
1, 280542, Control_c, 0, 64, 80
1, 280557, Control_c, 0, 64, 83
1, 280572, Control_c, 0, 64, 88
1, 280587, Control_c, 0, 64, 92
1, 280601, Control_c, 0, 64, 98
1, 280616, Control_c, 0, 64, 104
1, 280639, Control_c, 0, 64, 114
1, 280648, Note_on_c, 0, 65, 28
1, 280654, Control_c, 0, 64, 127
1, 280837, Note_on_c, 0, 77, 37
1, 280847, Note_on_c, 0, 68, 33
1, 280909, Note_off_c, 0, 68, 53
1, 280915, Note_off_c, 0, 56, 33
1, 280947, Note_off_c, 0, 65, 40
1, 281211, Note_on_c, 0, 80, 24
1, 281259, Note_off_c, 0, 80, 45
1, 281274, Note_off_c, 0, 77, 40
1, 281352, Note_off_c, 0, 85, 29
1, 281372, Note_off_c, 0, 73, 34
1, 281759, Note_on_c, 0, 72, 54
1, 281818, Control_c, 0, 67, 116
1, 281824, Note_off_c, 0, 72, 57
1, 281832, Control_c, 0, 67, 114
1, 281847, Control_c, 0, 67, 111
1, 281862, Control_c, 0, 67, 103
1, 281877, Control_c, 0, 67, 88
1, 281891, Control_c, 0, 67, 78
1, 281906, Control_c, 0, 67, 72
1, 281921, Control_c, 0, 67, 58
1, 281936, Control_c, 0, 67, 0
1, 282074, Note_on_c, 0, 70, 65
1, 282193, Note_off_c, 0, 70, 54
1, 282345, Note_on_c, 0, 69, 77
1, 282415, Note_off_c, 0, 69, 58
1, 282627, Note_on_c, 0, 68, 70
1, 282760, Control_c, 0, 64, 96
1, 282775, Control_c, 0, 64, 70
1, 282790, Control_c, 0, 64, 45
1, 282804, Control_c, 0, 64, 0
1, 282863, Control_c, 0, 64, 46
1, 282886, Control_c, 0, 64, 70
1, 282901, Control_c, 0, 64, 102
1, 282907, Note_on_c, 0, 75, 56
1, 282916, Control_c, 0, 64, 127
1, 282922, Note_on_c, 0, 54, 49
1, 282923, Note_on_c, 0, 80, 62
1, 282937, Note_on_c, 0, 72, 27
1, 282944, Note_off_c, 0, 75, 63
1, 282950, Note_off_c, 0, 68, 63
1, 282975, Note_off_c, 0, 72, 50
1, 282981, Note_off_c, 0, 80, 63
1, 283284, Note_off_c, 0, 54, 37
1, 283289, Note_on_c, 0, 77, 81
1, 283325, Note_on_c, 0, 68, 44
1, 283328, Note_on_c, 0, 63, 40
1, 283342, Note_on_c, 0, 60, 42
1, 283400, Note_off_c, 0, 68, 58
1, 283403, Note_off_c, 0, 60, 59
1, 283450, Note_off_c, 0, 63, 37
1, 283653, Note_on_c, 0, 89, 43
1, 283653, Note_on_c, 0, 80, 63
1, 283676, Note_off_c, 0, 77, 59
1, 283680, Note_off_c, 0, 80, 70
1, 283680, Note_off_c, 0, 89, 50
1, 283898, Note_on_c, 0, 75, 87
1, 284093, Control_c, 0, 64, 95
1, 284108, Control_c, 0, 64, 72
1, 284123, Control_c, 0, 64, 45
1, 284138, Control_c, 0, 64, 0
1, 284176, Note_on_c, 0, 87, 62
1, 284182, Note_on_c, 0, 53, 43
1, 284183, Note_on_c, 0, 80, 50
1, 284211, Control_c, 0, 64, 34
1, 284226, Control_c, 0, 64, 54
1, 284241, Control_c, 0, 64, 70
1, 284256, Control_c, 0, 64, 79
1, 284271, Control_c, 0, 64, 86
1, 284285, Control_c, 0, 64, 89
1, 284300, Control_c, 0, 64, 95
1, 284315, Control_c, 0, 64, 107
1, 284330, Control_c, 0, 64, 127
1, 284469, Note_off_c, 0, 75, 57
1, 284502, Note_on_c, 0, 61, 44
1, 284505, Note_on_c, 0, 68, 46
1, 284613, Note_off_c, 0, 53, 34
1, 284618, Note_off_c, 0, 68, 54
1, 284657, Note_off_c, 0, 87, 28
1, 284699, Note_off_c, 0, 61, 32
1, 284773, Note_on_c, 0, 73, 78
1, 284845, Note_off_c, 0, 80, 61
1, 284899, Note_off_c, 0, 73, 55
1, 285027, Note_on_c, 0, 73, 81
1, 285146, Control_c, 0, 64, 99
1, 285162, Control_c, 0, 64, 73
1, 285177, Control_c, 0, 64, 51
1, 285192, Control_c, 0, 64, 0
1, 285236, Control_c, 0, 64, 40
1, 285250, Control_c, 0, 64, 60
1, 285265, Control_c, 0, 64, 75
1, 285277, Note_on_c, 0, 51, 67
1, 285279, Note_on_c, 0, 78, 66
1, 285280, Note_on_c, 0, 85, 68
1, 285280, Control_c, 0, 64, 95
1, 285283, Note_on_c, 0, 81, 61
1, 285295, Control_c, 0, 64, 127
1, 285339, Note_off_c, 0, 81, 63
1, 285347, Note_off_c, 0, 85, 63
1, 285351, Note_off_c, 0, 78, 59
1, 285376, Note_off_c, 0, 73, 62
1, 285532, Note_on_c, 0, 69, 86
1, 285540, Note_on_c, 0, 66, 59
1, 285569, Note_on_c, 0, 57, 44
1, 285573, Note_on_c, 0, 60, 39
1, 285672, Note_off_c, 0, 51, 37
1, 285694, Note_off_c, 0, 66, 50
1, 285715, Note_off_c, 0, 57, 53
1, 285748, Note_off_c, 0, 60, 59
1, 285814, Note_on_c, 0, 78, 52
1, 285816, Note_on_c, 0, 81, 57
1, 285923, Note_off_c, 0, 78, 34
1, 285928, Note_off_c, 0, 69, 56
1, 285981, Note_off_c, 0, 81, 39
1, 286101, Note_on_c, 0, 69, 57
1, 286162, Control_c, 0, 67, 47
1, 286177, Control_c, 0, 67, 76
1, 286192, Control_c, 0, 67, 105
1, 286207, Control_c, 0, 67, 127
1, 286296, Control_c, 0, 64, 104
1, 286311, Control_c, 0, 64, 85
1, 286326, Control_c, 0, 64, 70
1, 286341, Control_c, 0, 64, 54
1, 286355, Control_c, 0, 64, 32
1, 286370, Control_c, 0, 64, 0
1, 286414, Control_c, 0, 64, 34
1, 286416, Note_on_c, 0, 81, 49
1, 286420, Note_on_c, 0, 49, 45
1, 286429, Note_on_c, 0, 77, 41
1, 286429, Control_c, 0, 64, 49
1, 286444, Control_c, 0, 64, 63
1, 286459, Control_c, 0, 64, 72
1, 286473, Control_c, 0, 64, 79
1, 286488, Control_c, 0, 64, 83
1, 286503, Control_c, 0, 64, 86
1, 286518, Control_c, 0, 64, 92
1, 286533, Control_c, 0, 64, 98
1, 286547, Control_c, 0, 64, 108
1, 286558, Note_off_c, 0, 49, 53
1, 286562, Control_c, 0, 64, 127
1, 286748, Note_off_c, 0, 69, 58
1, 286784, Note_off_c, 0, 81, 57
1, 286789, Note_on_c, 0, 58, 48
1, 286806, Note_on_c, 0, 65, 32
1, 286841, Note_off_c, 0, 77, 62
1, 287004, Note_off_c, 0, 65, 36
1, 287077, Note_off_c, 0, 58, 27
1, 287119, Note_on_c, 0, 70, 59
1, 287282, Note_off_c, 0, 70, 32
1, 287495, Note_on_c, 0, 71, 64
1, 287720, Control_c, 0, 64, 121
1, 287734, Control_c, 0, 64, 97
1, 287749, Control_c, 0, 64, 77
1, 287764, Control_c, 0, 64, 59
1, 287779, Control_c, 0, 64, 0
1, 287803, Note_on_c, 0, 50, 48
1, 287809, Note_on_c, 0, 83, 58
1, 287820, Note_on_c, 0, 77, 45
1, 287822, Note_on_c, 0, 80, 47
1, 287853, Control_c, 0, 64, 49
1, 287868, Control_c, 0, 64, 64
1, 287882, Control_c, 0, 64, 73
1, 287897, Control_c, 0, 64, 83
1, 287912, Control_c, 0, 64, 91
1, 287927, Control_c, 0, 64, 100
1, 287942, Control_c, 0, 64, 127
1, 287992, Note_off_c, 0, 71, 56
1, 288055, Note_on_c, 0, 71, 76
1, 288067, Note_on_c, 0, 65, 47
1, 288073, Note_on_c, 0, 56, 51
1, 288086, Note_on_c, 0, 59, 40
1, 288091, Note_off_c, 0, 50, 38
1, 288095, Note_off_c, 0, 77, 62
1, 288129, Note_off_c, 0, 80, 63
1, 288135, Note_off_c, 0, 83, 60
1, 288145, Note_off_c, 0, 65, 57
1, 288157, Control_c, 0, 67, 101
1, 288172, Control_c, 0, 67, 72
1, 288186, Control_c, 0, 67, 59
1, 288201, Control_c, 0, 67, 55
1, 288209, Note_off_c, 0, 56, 54
1, 288209, Note_off_c, 0, 59, 52
1, 288216, Control_c, 0, 67, 47
1, 288231, Control_c, 0, 67, 0
1, 288329, Note_on_c, 0, 80, 72
1, 288330, Note_on_c, 0, 75, 72
1, 288330, Note_on_c, 0, 83, 77
1, 288347, Note_on_c, 0, 51, 56
1, 288365, Control_c, 0, 64, 114
1, 288380, Control_c, 0, 64, 77
1, 288395, Control_c, 0, 64, 54
1, 288410, Control_c, 0, 64, 0
1, 288454, Control_c, 0, 64, 29
1, 288469, Control_c, 0, 64, 54
1, 288483, Control_c, 0, 64, 70
1, 288498, Control_c, 0, 64, 88
1, 288513, Control_c, 0, 64, 127
1, 288536, Note_off_c, 0, 71, 59
1, 288612, Note_on_c, 0, 71, 93
1, 288623, Note_on_c, 0, 63, 48
1, 288624, Note_on_c, 0, 56, 50
1, 288632, Note_off_c, 0, 51, 61
1, 288640, Note_on_c, 0, 59, 33
1, 288644, Note_off_c, 0, 75, 64
1, 288652, Note_off_c, 0, 80, 61
1, 288661, Note_off_c, 0, 83, 28
1, 288690, Control_c, 0, 67, 34
1, 288696, Note_off_c, 0, 63, 49
1, 288705, Control_c, 0, 67, 35
1, 288750, Control_c, 0, 67, 38
1, 288765, Control_c, 0, 67, 48
1, 288780, Control_c, 0, 67, 48
1, 288824, Control_c, 0, 67, 52
1, 288839, Control_c, 0, 67, 70
1, 288854, Control_c, 0, 67, 98
1, 288875, Note_off_c, 0, 59, 38
1, 288875, Control_c, 0, 67, 102
1, 288920, Control_c, 0, 67, 109
1, 288935, Control_c, 0, 67, 126
1, 288969, Note_on_c, 0, 80, 53
1, 288969, Note_on_c, 0, 83, 56
1, 288970, Note_on_c, 0, 74, 45
1, 288979, Note_on_c, 0, 52, 44
1, 288979, Control_c, 0, 64, 105
1, 288994, Control_c, 0, 64, 78
1, 289009, Control_c, 0, 64, 58
1, 289012, Note_off_c, 0, 56, 21
1, 289024, Control_c, 0, 64, 0
1, 289083, Control_c, 0, 64, 32
1, 289098, Control_c, 0, 64, 54
1, 289113, Control_c, 0, 64, 67
1, 289128, Control_c, 0, 64, 74
1, 289143, Control_c, 0, 64, 78
1, 289158, Control_c, 0, 64, 81
1, 289173, Control_c, 0, 64, 87
1, 289188, Note_off_c, 0, 83, 52
1, 289188, Control_c, 0, 64, 97
1, 289203, Control_c, 0, 64, 117
1, 289204, Note_off_c, 0, 71, 59
1, 289218, Control_c, 0, 64, 127
1, 289259, Note_off_c, 0, 74, 64
1, 289259, Note_off_c, 0, 80, 63
1, 289297, Note_on_c, 0, 56, 42
1, 289303, Note_on_c, 0, 59, 32
1, 289312, Note_on_c, 0, 62, 33
1, 289346, Note_off_c, 0, 59, 61
1, 289346, Note_off_c, 0, 62, 61
1, 289361, Note_off_c, 0, 56, 61
1, 289370, Note_off_c, 0, 52, 62
1, 289674, Note_on_c, 0, 70, 60
1, 289696, Note_on_c, 0, 62, 51
1, 289704, Note_on_c, 0, 68, 43
1, 289722, Note_on_c, 0, 40, 34
1, 289758, Control_c, 0, 64, 107
1, 289772, Control_c, 0, 64, 81
1, 289787, Control_c, 0, 64, 59
1, 289802, Control_c, 0, 64, 34
1, 289817, Control_c, 0, 64, 0
1, 289862, Control_c, 0, 64, 34
1, 289877, Control_c, 0, 64, 50
1, 289892, Control_c, 0, 64, 65
1, 289906, Control_c, 0, 64, 74
1, 289921, Control_c, 0, 64, 83
1, 289936, Control_c, 0, 64, 92
1, 289951, Control_c, 0, 64, 103
1, 289960, Note_off_c, 0, 40, 38
1, 289966, Control_c, 0, 64, 127
1, 290288, Note_on_c, 0, 39, 51
1, 290292, Control_c, 0, 64, 103
1, 290307, Control_c, 0, 64, 76
1, 290321, Control_c, 0, 64, 56
1, 290336, Control_c, 0, 64, 30
1, 290351, Control_c, 0, 64, 0
1, 290388, Control_c, 0, 64, 41
1, 290403, Control_c, 0, 64, 62
1, 290418, Control_c, 0, 64, 76
1, 290433, Control_c, 0, 64, 95
1, 290447, Control_c, 0, 64, 127
1, 290452, Note_off_c, 0, 39, 62
1, 290477, Note_off_c, 0, 62, 60
1, 290479, Note_off_c, 0, 68, 60
1, 290512, Note_off_c, 0, 70, 62
1, 290828, Note_on_c, 0, 72, 42
1, 290851, Note_on_c, 0, 65, 31
1, 290857, Note_on_c, 0, 68, 14
1, 290859, Note_on_c, 0, 61, 11
1, 290865, Note_on_c, 0, 56, 30
1, 290869, Note_on_c, 0, 51, 20
1, 290900, Poly_aftertouch_c, 0, 58, 127
1, 290937, Note_off_c, 0, 56, 51
1, 290947, Note_off_c, 0, 72, 54
1, 290951, Poly_aftertouch_c, 0, 58, 0
1, 290958, Note_off_c, 0, 51, 34
1, 290974, Note_off_c, 0, 61, 35
1, 290974, Note_off_c, 0, 68, 30
1, 290990, Note_off_c, 0, 65, 36
1, 291221, Note_on_c, 0, 72, 48
1, 291224, Note_on_c, 0, 61, 37
1, 291228, Note_on_c, 0, 68, 40
1, 291232, Note_on_c, 0, 51, 32
1, 291233, Note_on_c, 0, 56, 39
1, 291237, Note_on_c, 0, 58, 36
1, 291238, Note_on_c, 0, 65, 38
1, 291284, Note_off_c, 0, 56, 58
1, 291285, Note_off_c, 0, 72, 59
1, 291286, Note_off_c, 0, 68, 55
1, 291287, Note_off_c, 0, 58, 56
1, 291290, Note_off_c, 0, 65, 54
1, 291294, Note_off_c, 0, 51, 54
1, 291300, Note_off_c, 0, 61, 56
1, 291551, Note_on_c, 0, 73, 43
1, 291579, Note_on_c, 0, 61, 21
1, 291588, Note_on_c, 0, 58, 25
1, 291596, Note_on_c, 0, 56, 34
1, 291599, Note_on_c, 0, 51, 24
1, 291600, Note_on_c, 0, 68, 21
1, 291606, Note_on_c, 0, 65, 24
1, 291644, Note_off_c, 0, 58, 56
1, 291644, Note_off_c, 0, 56, 48
1, 291656, Note_off_c, 0, 68, 44
1, 291657, Note_off_c, 0, 51, 45
1, 291676, Note_off_c, 0, 65, 39
1, 291677, Note_off_c, 0, 73, 51
1, 291685, Note_off_c, 0, 61, 35
1, 291821, Note_on_c, 0, 73, 47
1, 291850, Note_on_c, 0, 61, 28
1, 291850, Note_on_c, 0, 65, 36
1, 291858, Note_on_c, 0, 58, 40
1, 291859, Note_on_c, 0, 56, 45
1, 291859, Note_on_c, 0, 68, 35
1, 291872, Note_on_c, 0, 51, 34
1, 291907, Note_off_c, 0, 68, 48
1, 291921, Note_off_c, 0, 56, 58
1, 291921, Note_off_c, 0, 73, 59
1, 291923, Note_off_c, 0, 58, 54
1, 291931, Note_off_c, 0, 65, 54
1, 291932, Note_off_c, 0, 51, 47
1, 291943, Note_off_c, 0, 61, 50
1, 292106, Note_on_c, 0, 75, 61
1, 292125, Note_on_c, 0, 61, 32
1, 292134, Note_on_c, 0, 58, 36
1, 292135, Note_on_c, 0, 65, 29
1, 292142, Note_on_c, 0, 56, 39
1, 292148, Note_on_c, 0, 51, 29
1, 292152, Note_on_c, 0, 73, 14
1, 292159, Note_on_c, 0, 68, 5
1, 292202, Note_off_c, 0, 73, 46
1, 292204, Note_off_c, 0, 56, 49
1, 292214, Note_off_c, 0, 58, 48
1, 292217, Note_off_c, 0, 68, 49
1, 292226, Note_off_c, 0, 51, 38
1, 292238, Note_off_c, 0, 75, 56
1, 292247, Note_off_c, 0, 61, 36
1, 292252, Note_off_c, 0, 65, 34
1, 292363, Note_on_c, 0, 75, 60
1, 292371, Note_on_c, 0, 61, 45
1, 292375, Note_on_c, 0, 65, 40
1, 292381, Note_on_c, 0, 58, 46
1, 292387, Note_on_c, 0, 56, 46
1, 292388, Note_on_c, 0, 51, 33
1, 292399, Note_on_c, 0, 68, 15
1, 292406, Note_on_c, 0, 73, 20
1, 292437, Note_off_c, 0, 56, 59
1, 292437, Note_off_c, 0, 58, 55
1, 292441, Note_off_c, 0, 51, 49
1, 292441, Note_off_c, 0, 65, 38
1, 292447, Note_off_c, 0, 68, 49
1, 292450, Note_off_c, 0, 73, 48
1, 292468, Note_off_c, 0, 75, 52
1, 292471, Note_off_c, 0, 61, 38
1, 292622, Note_on_c, 0, 76, 58
1, 292628, Note_on_c, 0, 61, 34
1, 292639, Note_on_c, 0, 58, 47
1, 292642, Note_on_c, 0, 56, 47
1, 292642, Note_on_c, 0, 51, 44
1, 292643, Note_on_c, 0, 65, 31
1, 292647, Note_on_c, 0, 73, 29
1, 292652, Note_on_c, 0, 68, 20
1, 292696, Note_off_c, 0, 73, 43
1, 292703, Note_off_c, 0, 68, 45
1, 292727, Note_off_c, 0, 58, 54
1, 292731, Note_off_c, 0, 56, 48
1, 292738, Note_off_c, 0, 76, 53
1, 292740, Note_off_c, 0, 51, 41
1, 292752, Note_off_c, 0, 65, 37
1, 292760, Note_off_c, 0, 61, 36
1, 292870, Note_on_c, 0, 76, 55
1, 292872, Control_c, 0, 67, 123
1, 292884, Note_on_c, 0, 65, 40
1, 292892, Note_on_c, 0, 61, 48
1, 292893, Note_on_c, 0, 51, 41
1, 292899, Note_on_c, 0, 56, 48
1, 292900, Note_on_c, 0, 58, 47
1, 292900, Note_on_c, 0, 68, 39
1, 292947, Note_off_c, 0, 68, 53
1, 292950, Poly_aftertouch_c, 0, 73, 127
1, 292952, Note_off_c, 0, 76, 62
1, 292956, Note_off_c, 0, 56, 58
1, 292961, Control_c, 0, 67, 113
1, 292962, Note_off_c, 0, 65, 56
1, 292962, Note_off_c, 0, 61, 53
1, 292963, Note_off_c, 0, 58, 53
1, 292967, Note_off_c, 0, 51, 41
1, 292975, Control_c, 0, 67, 111
1, 292988, Poly_aftertouch_c, 0, 73, 0
1, 292990, Control_c, 0, 67, 109
1, 293005, Control_c, 0, 67, 104
1, 293020, Control_c, 0, 67, 87
1, 293035, Control_c, 0, 67, 73
1, 293049, Control_c, 0, 67, 69
1, 293064, Control_c, 0, 67, 68
1, 293078, Note_on_c, 0, 65, 63
1, 293079, Control_c, 0, 67, 65
1, 293090, Note_on_c, 0, 51, 38
1, 293094, Control_c, 0, 67, 64
1, 293105, Note_on_c, 0, 56, 47
1, 293109, Note_on_c, 0, 68, 53
1, 293109, Control_c, 0, 67, 56
1, 293113, Note_on_c, 0, 58, 58
1, 293123, Control_c, 0, 67, 51
1, 293144, Note_on_c, 0, 61, 58
1, 293148, Note_on_c, 0, 73, 55
1, 293154, Control_c, 0, 67, 50
1, 293169, Control_c, 0, 67, 48
1, 293180, Note_on_c, 0, 77, 61
1, 293206, Note_off_c, 0, 65, 53
1, 293217, Note_off_c, 0, 61, 50
1, 293217, Note_off_c, 0, 68, 38
1, 293220, Note_off_c, 0, 58, 60
1, 293221, Note_off_c, 0, 56, 57
1, 293224, Note_off_c, 0, 73, 59
1, 293239, Note_off_c, 0, 51, 36
1, 293243, Control_c, 0, 67, 48
1, 293253, Note_off_c, 0, 77, 62
1, 293302, Control_c, 0, 67, 46
1, 293317, Control_c, 0, 67, 45
1, 293342, Note_on_c, 0, 65, 48
1, 293369, Control_c, 0, 67, 44
1, 293370, Note_on_c, 0, 56, 49
1, 293373, Note_on_c, 0, 68, 50
1, 293384, Control_c, 0, 67, 42
1, 293388, Note_on_c, 0, 58, 52
1, 293390, Note_on_c, 0, 51, 36
1, 293398, Control_c, 0, 67, 40
1, 293403, Note_on_c, 0, 61, 63
1, 293412, Note_on_c, 0, 73, 48
1, 293413, Control_c, 0, 67, 0
1, 293443, Note_on_c, 0, 78, 68
1, 293472, Note_off_c, 0, 65, 53
1, 293475, Note_off_c, 0, 73, 57
1, 293475, Note_off_c, 0, 68, 55
1, 293476, Note_off_c, 0, 56, 54
1, 293491, Note_off_c, 0, 58, 58
1, 293491, Note_off_c, 0, 61, 54
1, 293501, Note_off_c, 0, 51, 36
1, 293555, Note_off_c, 0, 78, 34
1, 293597, Note_on_c, 0, 65, 57
1, 293606, Note_on_c, 0, 56, 60
1, 293613, Note_on_c, 0, 51, 45
1, 293629, Note_on_c, 0, 58, 64
1, 293629, Note_on_c, 0, 68, 54
1, 293645, Note_on_c, 0, 61, 65
1, 293659, Note_on_c, 0, 73, 63
1, 293683, Note_on_c, 0, 79, 66
1, 293686, Note_off_c, 0, 68, 61
1, 293687, Note_off_c, 0, 65, 57
1, 293688, Note_off_c, 0, 51, 59
1, 293700, Note_off_c, 0, 56, 61
1, 293716, Note_off_c, 0, 58, 60
1, 293719, Note_off_c, 0, 73, 61
1, 293723, Note_off_c, 0, 61, 52
1, 293743, Note_off_c, 0, 79, 60
1, 293806, Note_on_c, 0, 65, 55
1, 293825, Note_on_c, 0, 51, 52
1, 293835, Note_on_c, 0, 56, 59
1, 293848, Note_on_c, 0, 68, 67
1, 293851, Note_on_c, 0, 58, 63
1, 293876, Note_on_c, 0, 73, 59
1, 293877, Note_on_c, 0, 61, 70
1, 293905, Note_off_c, 0, 65, 52
1, 293913, Note_off_c, 0, 68, 61
1, 293918, Note_on_c, 0, 80, 76
1, 293945, Note_off_c, 0, 73, 60
1, 293953, Note_off_c, 0, 56, 59
1, 293955, Note_off_c, 0, 51, 54
1, 293956, Note_off_c, 0, 58, 62
1, 293988, Note_off_c, 0, 61, 55
1, 293988, Note_off_c, 0, 80, 59
1, 294037, Note_on_c, 0, 65, 51
1, 294068, Note_on_c, 0, 56, 65
1, 294073, Note_on_c, 0, 51, 62
1, 294080, Note_on_c, 0, 68, 62
1, 294083, Note_on_c, 0, 58, 64
1, 294098, Note_off_c, 0, 65, 60
1, 294104, Note_on_c, 0, 73, 59
1, 294117, Note_off_c, 0, 68, 67
1, 294129, Note_on_c, 0, 61, 71
1, 294147, Note_off_c, 0, 73, 65
1, 294151, Note_on_c, 0, 81, 72
1, 294157, Note_off_c, 0, 56, 63
1, 294163, Note_off_c, 0, 58, 63
1, 294165, Note_off_c, 0, 51, 58
1, 294183, Note_off_c, 0, 81, 58
1, 294195, Note_off_c, 0, 61, 62
1, 294295, Note_on_c, 0, 67, 70
1, 294299, Note_on_c, 0, 51, 59
1, 294306, Note_on_c, 0, 55, 66
1, 294346, Note_on_c, 0, 73, 69
1, 294348, Note_on_c, 0, 61, 76
1, 294368, Control_c, 0, 64, 99
1, 294375, Note_on_c, 0, 75, 74
1, 294375, Note_off_c, 0, 67, 59
1, 294383, Control_c, 0, 64, 65
1, 294398, Control_c, 0, 64, 37
1, 294412, Control_c, 0, 64, 0
1, 294413, Note_on_c, 0, 82, 82
1, 294414, Note_on_c, 0, 63, 81
1, 294419, Note_off_c, 0, 73, 62
1, 294427, Control_c, 0, 64, 40
1, 294443, Control_c, 0, 64, 63
1, 294455, Note_off_c, 0, 75, 61
1, 294458, Control_c, 0, 64, 102
1, 294473, Control_c, 0, 64, 127
1, 294495, Note_off_c, 0, 82, 56
1, 294497, Note_off_c, 0, 55, 61
1, 294503, Note_off_c, 0, 51, 59
1, 294524, Note_off_c, 0, 61, 62
1, 294528, Note_off_c, 0, 63, 48
1, 294558, Note_on_c, 0, 67, 63
1, 294595, Note_on_c, 0, 73, 74
1, 294610, Note_on_c, 0, 51, 49
1, 294621, Note_on_c, 0, 55, 64
1, 294630, Note_on_c, 0, 75, 72
1, 294637, Note_off_c, 0, 67, 61
1, 294664, Note_on_c, 0, 61, 72
1, 294685, Note_on_c, 0, 83, 72
1, 294688, Note_off_c, 0, 73, 64
1, 294691, Note_off_c, 0, 75, 65
1, 294692, Note_on_c, 0, 63, 81
1, 294712, Note_off_c, 0, 63, 71
1, 294719, Note_off_c, 0, 83, 61
1, 294726, Note_off_c, 0, 61, 64
1, 294733, Note_off_c, 0, 55, 62
1, 294745, Note_off_c, 0, 51, 59
1, 294799, Control_c, 0, 67, 78
1, 294814, Control_c, 0, 67, 109
1, 294881, Control_c, 0, 67, 118
1, 294896, Control_c, 0, 67, 127
1, 295058, Control_c, 0, 64, 91
1, 295060, Note_on_c, 0, 84, 74
1, 295068, Note_on_c, 0, 72, 62
1, 295073, Control_c, 0, 64, 64
1, 295083, Note_on_c, 0, 32, 67
1, 295088, Note_on_c, 0, 44, 56
1, 295088, Control_c, 0, 64, 0
1, 295132, Control_c, 0, 64, 39
1, 295138, Note_off_c, 0, 84, 65
1, 295147, Control_c, 0, 64, 63
1, 295162, Control_c, 0, 64, 86
1, 295165, Note_off_c, 0, 32, 62
1, 295171, Note_off_c, 0, 72, 63
1, 295177, Control_c, 0, 64, 127
1, 295186, Note_off_c, 0, 44, 63
1, 295404, Note_on_c, 0, 72, 56
1, 295419, Note_on_c, 0, 63, 58
1, 295420, Note_on_c, 0, 56, 44
1, 295425, Note_on_c, 0, 60, 35
1, 295431, Note_on_c, 0, 51, 31
1, 295443, Note_off_c, 0, 63, 63
1, 295448, Note_off_c, 0, 56, 54
1, 295457, Note_off_c, 0, 60, 53
1, 295466, Note_off_c, 0, 72, 60
1, 295469, Note_off_c, 0, 51, 54
1, 295470, Poly_aftertouch_c, 0, 68, 127
1, 295510, Poly_aftertouch_c, 0, 68, 0
1, 295680, Note_on_c, 0, 56, 57
1, 295684, Note_on_c, 0, 68, 51
1, 295693, Note_on_c, 0, 60, 45
1, 295697, Note_on_c, 0, 63, 53
1, 295736, Note_off_c, 0, 60, 56
1, 295736, Note_off_c, 0, 63, 59
1, 295739, Note_off_c, 0, 56, 54
1, 295746, Note_off_c, 0, 68, 53
1, 295945, Note_on_c, 0, 72, 59
1, 295947, Note_on_c, 0, 51, 63
1, 295951, Note_on_c, 0, 63, 46
1, 295973, Note_off_c, 0, 51, 65
1, 295979, Note_off_c, 0, 72, 63
1, 295982, Note_off_c, 0, 63, 50
1, 295986, Poly_aftertouch_c, 0, 60, 127
1, 295999, Poly_aftertouch_c, 0, 56, 127
1, 296020, Poly_aftertouch_c, 0, 60, 0
1, 296029, Poly_aftertouch_c, 0, 56, 0
1, 296040, Poly_aftertouch_c, 0, 68, 0
1, 296222, Control_c, 0, 64, 104
1, 296233, Note_on_c, 0, 89, 88
1, 296237, Control_c, 0, 64, 73
1, 296238, Note_on_c, 0, 32, 85
1, 296238, Note_on_c, 0, 77, 81
1, 296240, Note_on_c, 0, 44, 70
1, 296252, Control_c, 0, 64, 58
1, 296266, Control_c, 0, 64, 57
1, 296274, Note_off_c, 0, 32, 63
1, 296281, Control_c, 0, 64, 64
1, 296285, Note_off_c, 0, 77, 63
1, 296286, Note_off_c, 0, 89, 65
1, 296296, Control_c, 0, 64, 79
1, 296302, Note_off_c, 0, 44, 64
1, 296310, Control_c, 0, 64, 127
1, 296534, Note_on_c, 0, 77, 64
1, 296552, Note_on_c, 0, 50, 39
1, 296555, Note_on_c, 0, 53, 34
1, 296564, Note_on_c, 0, 56, 24
1, 296567, Note_on_c, 0, 65, 31
1, 296572, Note_on_c, 0, 59, 14
1, 296590, Note_off_c, 0, 53, 45
1, 296591, Note_off_c, 0, 50, 52
1, 296603, Note_off_c, 0, 56, 53
1, 296608, Note_off_c, 0, 65, 49
1, 296617, Note_off_c, 0, 77, 60
1, 296617, Note_off_c, 0, 59, 52
1, 296748, Control_c, 0, 67, 124
1, 296763, Control_c, 0, 67, 113
1, 296778, Control_c, 0, 67, 98
1, 296793, Control_c, 0, 67, 81
1, 296799, Note_on_c, 0, 71, 64
1, 296801, Note_on_c, 0, 59, 54
1, 296803, Note_on_c, 0, 65, 58
1, 296807, Control_c, 0, 67, 60
1, 296808, Note_on_c, 0, 50, 47
1, 296810, Note_on_c, 0, 56, 44
1, 296817, Note_on_c, 0, 68, 35
1, 296819, Note_on_c, 0, 53, 38
1, 296822, Control_c, 0, 67, 41
1, 296831, Note_off_c, 0, 59, 54
1, 296835, Note_off_c, 0, 65, 56
1, 296837, Control_c, 0, 67, 0
1, 296840, Note_off_c, 0, 56, 54
1, 296850, Note_off_c, 0, 68, 49
1, 296852, Note_off_c, 0, 53, 46
1, 296858, Note_off_c, 0, 50, 48
1, 296879, Note_off_c, 0, 71, 55
1, 297034, Note_on_c, 0, 59, 63
1, 297037, Note_on_c, 0, 56, 60
1, 297037, Note_on_c, 0, 65, 49
1, 297047, Note_on_c, 0, 77, 63
1, 297049, Note_on_c, 0, 53, 47
1, 297053, Note_off_c, 0, 59, 67
1, 297055, Note_on_c, 0, 68, 9
1, 297062, Note_off_c, 0, 56, 64
1, 297067, Note_off_c, 0, 65, 54
1, 297073, Note_on_c, 0, 50, 24
1, 297076, Note_off_c, 0, 77, 68
1, 297077, Note_off_c, 0, 53, 55
1, 297114, Note_off_c, 0, 68, 52
1, 297121, Note_off_c, 0, 50, 55
1, 297267, Note_on_c, 0, 88, 76
1, 297287, Note_on_c, 0, 76, 53
1, 297308, Note_off_c, 0, 76, 60
1, 297320, Note_off_c, 0, 88, 59
1, 297415, Note_on_c, 0, 88, 78
1, 297424, Note_on_c, 0, 76, 56
1, 297436, Note_on_c, 0, 32, 68
1, 297436, Note_on_c, 0, 44, 63
1, 297438, Control_c, 0, 64, 112
1, 297453, Control_c, 0, 64, 72
1, 297468, Control_c, 0, 64, 45
1, 297483, Control_c, 0, 64, 0
1, 297512, Control_c, 0, 64, 43
1, 297527, Control_c, 0, 64, 63
1, 297537, Note_off_c, 0, 32, 62
1, 297542, Control_c, 0, 64, 86
1, 297543, Note_off_c, 0, 88, 66
1, 297556, Control_c, 0, 64, 127
1, 297557, Note_off_c, 0, 44, 62
1, 297566, Note_off_c, 0, 76, 65
1, 297755, Note_on_c, 0, 76, 66
1, 297760, Note_on_c, 0, 56, 48
1, 297771, Note_on_c, 0, 51, 34
1, 297803, Note_off_c, 0, 56, 46
1, 297806, Poly_aftertouch_c, 0, 60, 127
1, 297828, Poly_aftertouch_c, 0, 64, 127
1, 297857, Poly_aftertouch_c, 0, 60, 0
1, 297875, Note_off_c, 0, 76, 56
1, 297876, Note_off_c, 0, 51, 29
1, 297878, Poly_aftertouch_c, 0, 64, 0
1, 297998, Note_on_c, 0, 64, 57
1, 297999, Note_on_c, 0, 56, 56
1, 298006, Note_on_c, 0, 51, 50
1, 298006, Note_on_c, 0, 72, 65
1, 298010, Note_on_c, 0, 68, 50
1, 298050, Note_on_c, 0, 60, 23
1, 298052, Note_off_c, 0, 51, 48
1, 298056, Note_off_c, 0, 68, 58
1, 298060, Note_off_c, 0, 64, 56
1, 298094, Note_off_c, 0, 56, 57
1, 298100, Note_off_c, 0, 60, 45
1, 298128, Note_off_c, 0, 72, 48
1, 298232, Note_on_c, 0, 56, 60
1, 298233, Note_on_c, 0, 51, 56
1, 298256, Note_on_c, 0, 60, 42
1, 298256, Note_on_c, 0, 68, 51
1, 298259, Note_on_c, 0, 76, 63
1, 298262, Note_off_c, 0, 51, 64
1, 298264, Note_off_c, 0, 56, 64
1, 298289, Note_off_c, 0, 60, 51
1, 298298, Note_off_c, 0, 68, 64
1, 298330, Note_off_c, 0, 76, 65
1, 298496, Note_on_c, 0, 56, 55
1, 298498, Note_on_c, 0, 60, 54
1, 298777, Note_on_c, 0, 87, 64
1, 298791, Note_on_c, 0, 63, 60
1, 298791, Note_on_c, 0, 75, 42
1, 298803, Control_c, 0, 64, 87
1, 298817, Control_c, 0, 64, 67
1, 298832, Control_c, 0, 64, 55
1, 298847, Control_c, 0, 64, 57
1, 298862, Control_c, 0, 64, 66
1, 298877, Control_c, 0, 64, 93
1, 298891, Note_off_c, 0, 87, 64
1, 298891, Control_c, 0, 64, 127
1, 298905, Note_off_c, 0, 75, 63
1, 298983, Note_off_c, 0, 63, 61
1, 299030, Note_on_c, 0, 80, 73
1, 299044, Note_on_c, 0, 68, 59
1, 299090, Note_off_c, 0, 60, 63
1, 299112, Note_off_c, 0, 56, 65
1, 299116, Note_off_c, 0, 68, 60
1, 299147, Note_off_c, 0, 80, 62
1, 299260, Note_on_c, 0, 82, 78
1, 299268, Note_on_c, 0, 70, 76
1, 299349, Note_off_c, 0, 70, 46
1, 299521, Control_c, 0, 64, 73
1, 299537, Control_c, 0, 64, 49
1, 299542, Note_on_c, 0, 84, 78
1, 299549, Note_on_c, 0, 72, 79
1, 299552, Control_c, 0, 64, 39
1, 299554, Note_on_c, 0, 32, 71
1, 299561, Note_on_c, 0, 44, 63
1, 299566, Control_c, 0, 64, 54
1, 299570, Note_off_c, 0, 82, 59
1, 299581, Control_c, 0, 64, 73
1, 299589, Note_off_c, 0, 32, 64
1, 299591, Note_off_c, 0, 84, 66
1, 299596, Control_c, 0, 64, 127
1, 299603, Note_off_c, 0, 72, 60
1, 299613, Note_off_c, 0, 44, 61
1, 299817, Note_on_c, 0, 56, 41
1, 299817, Note_on_c, 0, 60, 46
1, 299818, Note_on_c, 0, 72, 51
1, 299824, Note_on_c, 0, 63, 50
1, 299843, Note_off_c, 0, 60, 59
1, 299847, Note_off_c, 0, 56, 53
1, 299848, Note_off_c, 0, 72, 63
1, 299854, Note_off_c, 0, 63, 53
1, 299878, Poly_aftertouch_c, 0, 68, 127
1, 299904, Poly_aftertouch_c, 0, 68, 0
1, 300050, Note_on_c, 0, 56, 51
1, 300055, Note_on_c, 0, 68, 47
1, 300058, Note_on_c, 0, 63, 61
1, 300082, Note_on_c, 0, 60, 35
1, 300089, Note_off_c, 0, 63, 64
1, 300092, Note_off_c, 0, 68, 61
1, 300115, Note_off_c, 0, 56, 54
1, 300125, Note_off_c, 0, 60, 50
1, 300279, Note_on_c, 0, 51, 66
1, 300284, Note_on_c, 0, 56, 39
1, 300290, Note_on_c, 0, 72, 62
1, 300291, Note_on_c, 0, 63, 55
1, 300308, Note_off_c, 0, 51, 64
1, 300318, Note_off_c, 0, 63, 55
1, 300323, Note_off_c, 0, 56, 49
1, 300329, Note_off_c, 0, 72, 62
1, 300524, Control_c, 0, 64, 99
1, 300538, Control_c, 0, 64, 66
1, 300548, Note_on_c, 0, 89, 82
1, 300553, Control_c, 0, 64, 40
1, 300556, Note_on_c, 0, 77, 79
1, 300564, Note_on_c, 0, 32, 68
1, 300564, Note_on_c, 0, 44, 67
1, 300568, Control_c, 0, 64, 45
1, 300582, Control_c, 0, 64, 62
1, 300595, Note_off_c, 0, 89, 65
1, 300596, Note_off_c, 0, 32, 61
1, 300597, Control_c, 0, 64, 84
1, 300608, Note_off_c, 0, 77, 63
1, 300608, Note_off_c, 0, 44, 64
1, 300612, Control_c, 0, 64, 127
1, 300826, Note_on_c, 0, 77, 62
1, 300858, Note_on_c, 0, 56, 39
1, 300860, Note_on_c, 0, 65, 53
1, 300861, Note_on_c, 0, 53, 36
1, 300866, Note_on_c, 0, 59, 38
1, 300882, Note_on_c, 0, 50, 23
1, 300891, Note_off_c, 0, 56, 53
1, 300900, Note_off_c, 0, 53, 45
1, 300900, Note_off_c, 0, 59, 52
1, 300903, Note_off_c, 0, 65, 56
1, 300924, Note_off_c, 0, 77, 51
1, 300929, Note_off_c, 0, 50, 51
1, 301093, Note_on_c, 0, 71, 66
1, 301094, Note_on_c, 0, 65, 60
1, 301098, Note_on_c, 0, 59, 54
1, 301100, Note_on_c, 0, 56, 51
1, 301102, Note_on_c, 0, 68, 47
1, 301112, Note_on_c, 0, 50, 38
1, 301127, Note_on_c, 0, 53, 27
1, 301133, Note_off_c, 0, 68, 60
1, 301138, Note_off_c, 0, 59, 53
1, 301147, Note_off_c, 0, 56, 59
1, 301149, Note_off_c, 0, 65, 52
1, 301165, Note_off_c, 0, 53, 54
1, 301171, Note_off_c, 0, 50, 50
1, 301180, Note_off_c, 0, 71, 59
1, 301319, Note_on_c, 0, 77, 76
1, 301321, Note_on_c, 0, 56, 63
1, 301326, Note_on_c, 0, 65, 49
1, 301329, Note_on_c, 0, 50, 52
1, 301333, Note_on_c, 0, 68, 41
1, 301338, Note_on_c, 0, 53, 45
1, 301340, Note_on_c, 0, 59, 35
1, 301345, Note_off_c, 0, 56, 62
1, 301345, Note_off_c, 0, 65, 63
1, 301361, Note_off_c, 0, 50, 56
1, 301362, Note_off_c, 0, 68, 54
1, 301363, Note_off_c, 0, 59, 58
1, 301363, Note_off_c, 0, 77, 63
1, 301368, Note_off_c, 0, 53, 53
1, 301505, Note_on_c, 0, 88, 74
1, 301519, Note_on_c, 0, 76, 58
1, 301544, Note_off_c, 0, 76, 64
1, 301547, Note_off_c, 0, 88, 50
1, 301668, Note_on_c, 0, 88, 83
1, 301679, Note_on_c, 0, 44, 65
1, 301679, Control_c, 0, 64, 112
1, 301680, Note_on_c, 0, 76, 59
1, 301687, Note_on_c, 0, 32, 62
1, 301694, Control_c, 0, 64, 73
1, 301709, Control_c, 0, 64, 49
1, 301724, Control_c, 0, 64, 0
1, 301738, Control_c, 0, 64, 40
1, 301753, Control_c, 0, 64, 59
1, 301768, Control_c, 0, 64, 81
1, 301770, Note_off_c, 0, 88, 66
1, 301773, Note_off_c, 0, 32, 62
1, 301783, Control_c, 0, 64, 127
1, 301794, Note_off_c, 0, 44, 63
1, 301799, Note_off_c, 0, 76, 64
1, 301973, Note_on_c, 0, 76, 69
1, 301997, Note_on_c, 0, 56, 43
1, 301998, Note_on_c, 0, 51, 33
1, 301998, Note_on_c, 0, 64, 48
1, 302009, Note_on_c, 0, 60, 10
1, 302023, Note_off_c, 0, 64, 59
1, 302025, Note_on_c, 0, 59, 17
1, 302027, Note_off_c, 0, 76, 62
1, 302043, Note_off_c, 0, 56, 42
1, 302050, Note_off_c, 0, 51, 43
1, 302066, Note_off_c, 0, 60, 45
1, 302071, Note_off_c, 0, 59, 52
1, 302083, Poly_aftertouch_c, 0, 68, 0
1, 302203, Note_on_c, 0, 56, 63
1, 302215, Note_on_c, 0, 51, 55
1, 302217, Note_on_c, 0, 72, 64
1, 302222, Note_on_c, 0, 68, 46
1, 302230, Note_on_c, 0, 64, 54
1, 302278, Note_off_c, 0, 64, 57
1, 302280, Note_off_c, 0, 68, 51
1, 302309, Note_off_c, 0, 56, 59
1, 302312, Note_off_c, 0, 51, 54
1, 302355, Note_off_c, 0, 72, 38
1, 302443, Note_on_c, 0, 56, 62
1, 302448, Note_on_c, 0, 68, 62
1, 302456, Note_on_c, 0, 76, 64
1, 302456, Note_on_c, 0, 51, 47
1, 302459, Note_on_c, 0, 60, 58
1, 302475, Note_off_c, 0, 56, 64
1, 302485, Note_off_c, 0, 51, 56
1, 302492, Note_off_c, 0, 60, 61
1, 302501, Note_off_c, 0, 68, 62
1, 302507, Poly_aftertouch_c, 0, 64, 127
1, 302546, Poly_aftertouch_c, 0, 64, 0
1, 302563, Note_off_c, 0, 76, 62
1, 302695, Note_on_c, 0, 56, 66
1, 302703, Note_on_c, 0, 60, 71
1, 302971, Note_on_c, 0, 75, 68
1, 302972, Note_on_c, 0, 87, 69
1, 302981, Note_on_c, 0, 63, 56
1, 302991, Control_c, 0, 64, 103
1, 303006, Control_c, 0, 64, 78
1, 303021, Control_c, 0, 64, 65
1, 303036, Control_c, 0, 64, 63
1, 303050, Control_c, 0, 64, 72
1, 303065, Control_c, 0, 64, 100
1, 303080, Control_c, 0, 64, 127
1, 303094, Note_off_c, 0, 87, 64
1, 303125, Note_off_c, 0, 75, 63
1, 303149, Note_off_c, 0, 63, 59
1, 303222, Note_on_c, 0, 80, 82
1, 303230, Note_off_c, 0, 60, 64
1, 303234, Note_on_c, 0, 68, 79
1, 303259, Note_off_c, 0, 56, 63
1, 303275, Note_on_c, 0, 78, 17
1, 303288, Note_off_c, 0, 68, 60
1, 303314, Note_off_c, 0, 78, 44
1, 303332, Note_off_c, 0, 80, 60
1, 303447, Note_on_c, 0, 82, 83
1, 303449, Note_on_c, 0, 70, 77
1, 303555, Note_off_c, 0, 70, 62
1, 303560, Note_on_c, 0, 31, 78
1, 303667, Control_c, 0, 64, 89
1, 303681, Control_c, 0, 64, 59
1, 303696, Control_c, 0, 64, 0
1, 303703, Note_on_c, 0, 43, 80
1, 303711, Note_on_c, 0, 84, 76
1, 303711, Control_c, 0, 64, 40
1, 303716, Note_on_c, 0, 72, 82
1, 303722, Note_off_c, 0, 31, 63
1, 303726, Control_c, 0, 64, 68
1, 303731, Note_off_c, 0, 82, 58
1, 303733, Note_off_c, 0, 43, 66
1, 303741, Control_c, 0, 64, 127
1, 303746, Note_off_c, 0, 84, 63
1, 303747, Note_off_c, 0, 72, 60
1, 303964, Note_on_c, 0, 58, 71
1, 303964, Note_on_c, 0, 64, 71
1, 303967, Note_on_c, 0, 72, 77
1, 303973, Note_on_c, 0, 52, 60
1, 303973, Note_on_c, 0, 60, 73
1, 303976, Note_on_c, 0, 70, 59
1, 303992, Note_off_c, 0, 64, 67
1, 304004, Note_off_c, 0, 58, 59
1, 304004, Note_off_c, 0, 60, 65
1, 304005, Note_off_c, 0, 70, 66
1, 304005, Note_off_c, 0, 72, 62
1, 304009, Note_off_c, 0, 52, 63
1, 304206, Note_on_c, 0, 84, 87
1, 304210, Note_on_c, 0, 72, 90
1, 304212, Note_on_c, 0, 64, 73
1, 304217, Note_on_c, 0, 60, 71
1, 304220, Note_on_c, 0, 58, 75
1, 304224, Note_off_c, 0, 84, 70
1, 304232, Note_off_c, 0, 72, 66
1, 304236, Note_off_c, 0, 64, 68
1, 304245, Note_off_c, 0, 60, 66
1, 304246, Note_off_c, 0, 58, 65
1, 304424, Note_on_c, 0, 72, 74
1, 304426, Note_on_c, 0, 60, 76
1, 304427, Note_on_c, 0, 70, 69
1, 304429, Note_on_c, 0, 58, 67
1, 304434, Note_on_c, 0, 52, 60
1, 304447, Note_off_c, 0, 72, 67
1, 304450, Note_off_c, 0, 60, 70
1, 304451, Note_on_c, 0, 64, 25
1, 304453, Note_off_c, 0, 70, 69
1, 304454, Note_off_c, 0, 58, 59
1, 304462, Note_off_c, 0, 52, 64
1, 304479, Note_off_c, 0, 64, 56
1, 304691, Control_c, 0, 64, 106
1, 304705, Control_c, 0, 64, 68
1, 304710, Note_on_c, 0, 85, 85
1, 304714, Note_on_c, 0, 42, 79
1, 304716, Note_on_c, 0, 30, 83
1, 304716, Note_on_c, 0, 73, 86
1, 304720, Control_c, 0, 64, 46
1, 304735, Control_c, 0, 64, 51
1, 304745, Note_off_c, 0, 30, 67
1, 304749, Control_c, 0, 64, 66
1, 304756, Note_off_c, 0, 42, 63
1, 304757, Note_off_c, 0, 85, 65
1, 304764, Control_c, 0, 64, 97
1, 304766, Note_off_c, 0, 73, 62
1, 304779, Control_c, 0, 64, 127
1, 305014, Note_on_c, 0, 63, 79
1, 305015, Note_on_c, 0, 57, 68
1, 305015, Note_on_c, 0, 73, 68
1, 305020, Note_on_c, 0, 61, 70
1, 305025, Note_on_c, 0, 69, 62
1, 305028, Note_on_c, 0, 51, 47
1, 305053, Note_off_c, 0, 57, 65
1, 305064, Note_off_c, 0, 63, 62
1, 305073, Note_off_c, 0, 69, 57
1, 305081, Note_off_c, 0, 61, 57
1, 305097, Note_off_c, 0, 73, 62
1, 305097, Note_off_c, 0, 51, 49
1, 305224, Note_on_c, 0, 61, 72
1, 305224, Note_on_c, 0, 63, 82
1, 305236, Note_on_c, 0, 57, 52
1, 305264, Note_off_c, 0, 63, 51
1, 305276, Note_off_c, 0, 61, 60
1, 305281, Note_off_c, 0, 57, 58
1, 305449, Note_on_c, 0, 51, 79
1, 305455, Note_on_c, 0, 61, 35
1, 305460, Note_on_c, 0, 69, 77
1, 305460, Note_on_c, 0, 81, 77
1, 305474, Note_off_c, 0, 51, 69
1, 305480, Note_off_c, 0, 61, 58
1, 305498, Note_off_c, 0, 69, 58
1, 305540, Poly_aftertouch_c, 0, 57, 0
1, 305616, Note_on_c, 0, 30, 32
1, 305645, Note_off_c, 0, 30, 56
1, 305735, Control_c, 0, 64, 80
1, 305750, Control_c, 0, 64, 47
1, 305765, Control_c, 0, 64, 0
1, 305772, Note_off_c, 0, 81, 51
1, 305775, Note_on_c, 0, 82, 78
1, 305779, Note_on_c, 0, 29, 70
1, 305780, Note_on_c, 0, 70, 76
1, 305784, Note_on_c, 0, 41, 72
1, 305809, Control_c, 0, 64, 62
1, 305824, Control_c, 0, 64, 127
1, 305839, Note_off_c, 0, 29, 63
1, 305856, Note_off_c, 0, 82, 62
1, 305860, Note_off_c, 0, 41, 65
1, 305878, Note_off_c, 0, 70, 63
1, 306047, Note_on_c, 0, 58, 83
1, 306047, Note_on_c, 0, 70, 79
1, 306048, Note_on_c, 0, 50, 61
1, 306055, Note_on_c, 0, 56, 67
1, 306055, Note_on_c, 0, 68, 64
1, 306063, Note_on_c, 0, 62, 57
1, 306081, Note_off_c, 0, 56, 66
1, 306082, Note_off_c, 0, 68, 67
1, 306083, Note_off_c, 0, 58, 62
1, 306085, Note_off_c, 0, 50, 65
1, 306085, Note_off_c, 0, 62, 59
1, 306102, Note_off_c, 0, 70, 64
1, 306267, Note_on_c, 0, 70, 101
1, 306269, Note_on_c, 0, 82, 87
1, 306271, Note_on_c, 0, 58, 83
1, 306274, Note_on_c, 0, 56, 84
1, 306275, Note_on_c, 0, 62, 83
1, 306290, Note_off_c, 0, 82, 64
1, 306300, Note_off_c, 0, 70, 66
1, 306301, Note_on_c, 0, 80, 49
1, 306301, Note_off_c, 0, 62, 66
1, 306307, Note_off_c, 0, 58, 66
1, 306323, Note_off_c, 0, 80, 59
1, 306328, Note_off_c, 0, 56, 59
1, 306490, Note_on_c, 0, 56, 77
1, 306497, Note_on_c, 0, 58, 63
1, 306498, Note_on_c, 0, 70, 74
1, 306504, Note_on_c, 0, 50, 82
1, 306504, Note_on_c, 0, 62, 62
1, 306506, Note_on_c, 0, 68, 63
1, 306515, Note_off_c, 0, 56, 66
1, 306520, Note_off_c, 0, 58, 61
1, 306520, Note_off_c, 0, 62, 69
1, 306529, Note_off_c, 0, 50, 66
1, 306534, Note_off_c, 0, 68, 66
1, 306534, Note_off_c, 0, 70, 62
1, 306707, Poly_aftertouch_c, 0, 28, 127
1, 306739, Note_on_c, 0, 84, 86
1, 306743, Note_on_c, 0, 72, 93
1, 306747, Note_on_c, 0, 26, 80
1, 306747, Poly_aftertouch_c, 0, 28, 0
1, 306749, Note_on_c, 0, 40, 85
1, 306750, Control_c, 0, 64, 75
1, 306765, Control_c, 0, 64, 53
1, 306768, Note_on_c, 0, 28, 52
1, 306773, Note_on_c, 0, 38, 54
1, 306773, Note_off_c, 0, 26, 66
1, 306773, Note_off_c, 0, 84, 69
1, 306779, Note_off_c, 0, 72, 67
1, 306780, Control_c, 0, 64, 54
1, 306790, Note_off_c, 0, 40, 63
1, 306795, Control_c, 0, 64, 68
1, 306800, Note_off_c, 0, 28, 54
1, 306806, Note_off_c, 0, 38, 39
1, 306810, Control_c, 0, 64, 105
1, 306824, Control_c, 0, 64, 127
1, 307009, Note_on_c, 0, 72, 85
1, 307010, Note_on_c, 0, 61, 89
1, 307011, Note_on_c, 0, 49, 69
1, 307016, Note_on_c, 0, 55, 83
1, 307016, Note_on_c, 0, 67, 83
1, 307020, Note_on_c, 0, 58, 84
1, 307029, Note_off_c, 0, 61, 73
1, 307040, Note_off_c, 0, 67, 68
1, 307046, Note_off_c, 0, 58, 66
1, 307047, Note_off_c, 0, 49, 60
1, 307052, Note_off_c, 0, 72, 65
1, 307055, Note_off_c, 0, 55, 60
1, 307255, Note_on_c, 0, 61, 88
1, 307258, Note_on_c, 0, 58, 87
1, 307260, Note_on_c, 0, 55, 79
1, 307297, Note_off_c, 0, 61, 63
1, 307324, Note_off_c, 0, 58, 60
1, 307345, Note_off_c, 0, 55, 59
1, 307482, Note_on_c, 0, 67, 92
1, 307482, Note_on_c, 0, 58, 66
1, 307484, Note_on_c, 0, 79, 88
1, 307485, Note_on_c, 0, 49, 81
1, 307500, Note_on_c, 0, 55, 40
1, 307507, Note_off_c, 0, 58, 59
1, 307515, Note_off_c, 0, 49, 67
1, 307528, Note_off_c, 0, 55, 56
1, 307530, Note_off_c, 0, 67, 67
1, 307819, Control_c, 0, 64, 69
1, 307828, Note_on_c, 0, 80, 92
1, 307833, Note_on_c, 0, 68, 89
1, 307834, Control_c, 0, 64, 0
1, 307834, Note_on_c, 0, 27, 96
1, 307834, Note_on_c, 0, 39, 93
1, 307845, Note_off_c, 0, 79, 58
1, 307878, Control_c, 0, 64, 38
1, 307887, Note_off_c, 0, 68, 64
1, 307892, Control_c, 0, 64, 70
1, 307905, Note_off_c, 0, 27, 62
1, 307907, Control_c, 0, 64, 127
1, 307916, Note_off_c, 0, 39, 63
1, 307923, Note_off_c, 0, 80, 60
1, 308174, Note_on_c, 0, 56, 79
1, 308180, Note_on_c, 0, 48, 87
1, 308191, Note_on_c, 0, 51, 74
1, 308230, Note_off_c, 0, 51, 61
1, 308242, Note_off_c, 0, 48, 62
1, 308257, Note_off_c, 0, 56, 62
1, 308466, Note_on_c, 0, 51, 82
1, 308469, Note_on_c, 0, 56, 81
1, 308471, Note_on_c, 0, 60, 78
1, 308480, Note_on_c, 0, 91, 94
1, 308489, Note_on_c, 0, 79, 78
1, 308498, Note_off_c, 0, 56, 64
1, 308505, Note_off_c, 0, 60, 64
1, 308516, Note_off_c, 0, 51, 60
1, 308671, Poly_aftertouch_c, 0, 60, 127
1, 308709, Note_on_c, 0, 68, 85
1, 308710, Note_on_c, 0, 63, 87
1, 308716, Note_on_c, 0, 60, 31
1, 308725, Note_off_c, 0, 68, 74
1, 308740, Note_off_c, 0, 63, 65
1, 308755, Note_off_c, 0, 91, 62
1, 308755, Note_off_c, 0, 60, 66
1, 308776, Note_off_c, 0, 79, 61
1, 308954, Poly_aftertouch_c, 0, 26, 127
1, 308956, Note_on_c, 0, 26, 3
1, 308981, Control_c, 0, 64, 77
1, 308989, Note_on_c, 0, 38, 85
1, 308996, Control_c, 0, 64, 31
1, 308996, Note_on_c, 0, 89, 80
1, 309000, Note_on_c, 0, 77, 82
1, 309011, Control_c, 0, 64, 0
1, 309036, Note_off_c, 0, 26, 63
1, 309040, Control_c, 0, 64, 42
1, 309044, Note_off_c, 0, 38, 60
1, 309055, Control_c, 0, 64, 70
1, 309070, Control_c, 0, 64, 127
1, 309092, Note_off_c, 0, 77, 62
1, 309105, Note_off_c, 0, 89, 64
1, 309303, Note_on_c, 0, 53, 65
1, 309303, Note_on_c, 0, 56, 75
1, 309339, Note_off_c, 0, 53, 65
1, 309356, Note_off_c, 0, 56, 58
1, 309538, Note_on_c, 0, 62, 78
1, 309539, Note_on_c, 0, 56, 66
1, 309543, Note_on_c, 0, 80, 83
1, 309553, Note_on_c, 0, 68, 73
1, 309554, Note_on_c, 0, 53, 31
1, 309568, Note_off_c, 0, 56, 67
1, 309581, Note_off_c, 0, 53, 53
1, 309592, Note_off_c, 0, 62, 63
1, 309644, Note_off_c, 0, 68, 59
1, 309766, Note_on_c, 0, 68, 78
1, 309771, Note_on_c, 0, 65, 71
1, 309772, Note_on_c, 0, 59, 71
1, 309787, Note_off_c, 0, 68, 71
1, 309796, Note_off_c, 0, 65, 69
1, 309804, Note_off_c, 0, 59, 67
1, 310123, Note_on_c, 0, 81, 82
1, 310123, Control_c, 0, 64, 82
1, 310138, Control_c, 0, 64, 56
1, 310145, Note_on_c, 0, 69, 61
1, 310151, Note_on_c, 0, 27, 79
1, 310153, Control_c, 0, 64, 0
1, 310156, Note_on_c, 0, 39, 69
1, 310213, Control_c, 0, 64, 43
1, 310218, Note_off_c, 0, 80, 59
1, 310221, Note_off_c, 0, 27, 62
1, 310228, Control_c, 0, 64, 69
1, 310237, Note_off_c, 0, 39, 64
1, 310242, Control_c, 0, 64, 108
1, 310257, Control_c, 0, 64, 127
1, 310468, Note_on_c, 0, 46, 49
1, 310470, Note_on_c, 0, 56, 59
1, 310473, Note_on_c, 0, 53, 56
1, 310499, Note_off_c, 0, 53, 62
1, 310504, Note_off_c, 0, 46, 62
1, 310538, Note_off_c, 0, 56, 61
1, 310548, Note_off_c, 0, 69, 59
1, 310696, Note_on_c, 0, 56, 67
1, 310701, Note_on_c, 0, 61, 72
1, 310716, Note_on_c, 0, 53, 43
1, 310728, Note_off_c, 0, 56, 65
1, 310745, Note_off_c, 0, 61, 53
1, 310746, Note_off_c, 0, 53, 50
1, 310817, Note_on_c, 0, 82, 83
1, 310826, Note_on_c, 0, 70, 80
1, 310845, Note_off_c, 0, 81, 62
1, 310862, Note_off_c, 0, 70, 62
1, 310882, Note_off_c, 0, 82, 62
1, 310952, Note_on_c, 0, 85, 93
1, 310960, Note_on_c, 0, 73, 77
1, 310961, Note_on_c, 0, 65, 70
1, 310964, Note_on_c, 0, 68, 74
1, 310967, Note_on_c, 0, 58, 67
1, 310989, Note_off_c, 0, 65, 66
1, 310998, Note_off_c, 0, 58, 63
1, 311010, Note_off_c, 0, 73, 61
1, 311012, Note_off_c, 0, 68, 57
1, 311017, Note_off_c, 0, 85, 62
1, 311063, Note_on_c, 0, 84, 85
1, 311078, Note_on_c, 0, 72, 77
1, 311107, Note_off_c, 0, 72, 62
1, 311119, Note_off_c, 0, 84, 66
1, 311125, Note_on_c, 0, 65, 15
1, 311172, Note_on_c, 0, 68, 76
1, 311175, Note_off_c, 0, 65, 0
1, 311175, Note_on_c, 0, 65, 11
1, 311187, Note_on_c, 0, 82, 90
1, 311190, Note_on_c, 0, 70, 81
1, 311199, Note_off_c, 0, 68, 64
1, 311217, Note_off_c, 0, 65, 57
1, 311272, Poly_aftertouch_c, 0, 73, 0
1, 311401, Note_on_c, 0, 68, 84
1, 311404, Note_on_c, 0, 65, 77
1, 311407, Note_on_c, 0, 58, 83
1, 311418, Note_off_c, 0, 68, 74
1, 311424, Note_off_c, 0, 65, 71
1, 311446, Note_off_c, 0, 58, 64
1, 311457, Note_off_c, 0, 70, 58
1, 311500, Note_off_c, 0, 82, 57
1, 311666, Control_c, 0, 64, 89
1, 311680, Note_on_c, 0, 83, 91
1, 311681, Note_on_c, 0, 61, 92
1, 311681, Control_c, 0, 64, 59
1, 311682, Note_on_c, 0, 71, 90
1, 311685, Note_on_c, 0, 55, 80
1, 311688, Note_on_c, 0, 51, 86
1, 311696, Control_c, 0, 64, 0
1, 311711, Control_c, 0, 64, 46
1, 311724, Note_off_c, 0, 61, 67
1, 311726, Control_c, 0, 64, 70
1, 311740, Control_c, 0, 64, 127
1, 311742, Note_off_c, 0, 55, 63
1, 311768, Note_off_c, 0, 51, 64
1, 311982, Note_off_c, 0, 83, 61
1, 312007, Note_on_c, 0, 51, 85
1, 312008, Note_on_c, 0, 39, 90
1, 312021, Note_off_c, 0, 71, 59
1, 312027, Note_off_c, 0, 51, 71
1, 312034, Note_off_c, 0, 39, 65
1, 312341, Control_c, 0, 64, 72
1, 312344, Note_on_c, 0, 84, 87
1, 312350, Note_on_c, 0, 72, 88
1, 312356, Control_c, 0, 64, 31
1, 312357, Note_on_c, 0, 44, 86
1, 312358, Note_on_c, 0, 32, 93
1, 312371, Control_c, 0, 64, 0
1, 312385, Control_c, 0, 64, 39
1, 312400, Control_c, 0, 64, 62
1, 312405, Note_off_c, 0, 84, 67
1, 312415, Control_c, 0, 64, 92
1, 312416, Note_off_c, 0, 32, 60
1, 312419, Note_off_c, 0, 44, 63
1, 312424, Note_off_c, 0, 72, 64
1, 312430, Control_c, 0, 64, 127
1, 312624, Note_on_c, 0, 56, 72
1, 312627, Note_on_c, 0, 60, 76
1, 312632, Note_on_c, 0, 63, 79
1, 312634, Note_on_c, 0, 72, 69
1, 312655, Note_off_c, 0, 56, 65
1, 312662, Note_off_c, 0, 60, 63
1, 312666, Note_off_c, 0, 63, 61
1, 312681, Note_off_c, 0, 72, 61
1, 312700, Poly_aftertouch_c, 0, 51, 127
1, 312728, Poly_aftertouch_c, 0, 51, 0
1, 312851, Note_on_c, 0, 56, 76
1, 312858, Note_on_c, 0, 68, 79
1, 312871, Note_on_c, 0, 63, 63
1, 312895, Note_off_c, 0, 63, 66
1, 312899, Note_on_c, 0, 60, 11
1, 312913, Note_off_c, 0, 56, 60
1, 312913, Note_off_c, 0, 68, 61
1, 312931, Note_off_c, 0, 60, 55
1, 313083, Note_on_c, 0, 63, 86
1, 313084, Note_on_c, 0, 56, 66
1, 313089, Note_on_c, 0, 51, 75
1, 313090, Note_on_c, 0, 72, 78
1, 313095, Note_on_c, 0, 68, 66
1, 313100, Note_off_c, 0, 56, 67
1, 313106, Note_off_c, 0, 63, 70
1, 313114, Note_off_c, 0, 51, 66
1, 313116, Note_off_c, 0, 68, 71
1, 313134, Note_off_c, 0, 72, 65
1, 313326, Control_c, 0, 64, 89
1, 313341, Control_c, 0, 64, 58
1, 313353, Note_on_c, 0, 89, 92
1, 313354, Note_on_c, 0, 44, 96
1, 313354, Note_on_c, 0, 77, 93
1, 313356, Note_on_c, 0, 32, 95
1, 313356, Control_c, 0, 64, 0
1, 313371, Control_c, 0, 64, 53
1, 313383, Note_off_c, 0, 32, 67
1, 313383, Note_off_c, 0, 44, 66
1, 313384, Note_off_c, 0, 89, 67
1, 313385, Control_c, 0, 64, 79
1, 313387, Note_off_c, 0, 77, 67
1, 313400, Control_c, 0, 64, 127
1, 313617, Note_on_c, 0, 77, 79
1, 313623, Note_on_c, 0, 65, 76
1, 313628, Note_on_c, 0, 50, 55
1, 313628, Note_on_c, 0, 56, 63
1, 313628, Note_on_c, 0, 59, 69
1, 313633, Note_on_c, 0, 53, 53
1, 313653, Note_off_c, 0, 59, 66
1, 313658, Note_off_c, 0, 56, 65
1, 313660, Note_off_c, 0, 53, 61
1, 313661, Note_off_c, 0, 50, 63
1, 313685, Note_off_c, 0, 77, 47
1, 313691, Note_off_c, 0, 65, 40
1, 313847, Note_on_c, 0, 56, 81
1, 313852, Note_on_c, 0, 59, 82
1, 313853, Note_on_c, 0, 68, 87
1, 313854, Note_on_c, 0, 65, 83
1, 313854, Note_on_c, 0, 71, 85
1, 313855, Note_on_c, 0, 50, 63
1, 313855, Note_on_c, 0, 53, 70
1, 313878, Note_off_c, 0, 59, 64
1, 313881, Note_on_c, 0, 70, 40
1, 313881, Note_off_c, 0, 70, 127
1, 313887, Note_on_c, 0, 54, 18
1, 313900, Note_off_c, 0, 56, 60
1, 313904, Note_off_c, 0, 54, 36
1, 313905, Note_off_c, 0, 65, 57
1, 313911, Note_off_c, 0, 50, 43
1, 313917, Note_off_c, 0, 53, 57
1, 314021, Note_off_c, 0, 68, 23
1, 314034, Note_off_c, 0, 71, 45
1, 314070, Note_on_c, 0, 50, 83
1, 314076, Note_on_c, 0, 53, 78
1, 314077, Note_on_c, 0, 56, 77
1, 314077, Note_on_c, 0, 59, 74
1, 314079, Note_on_c, 0, 65, 85
1, 314079, Note_on_c, 0, 77, 90
1, 314085, Note_on_c, 0, 68, 64
1, 314091, Note_off_c, 0, 59, 73
1, 314092, Note_off_c, 0, 50, 73
1, 314094, Note_off_c, 0, 53, 73
1, 314096, Note_off_c, 0, 65, 74
1, 314101, Note_off_c, 0, 56, 70
1, 314112, Note_off_c, 0, 68, 64
1, 314121, Note_off_c, 0, 77, 67
1, 314181, Note_on_c, 0, 59, 7
1, 314243, Note_off_c, 0, 59, 48
1, 314456, Note_on_c, 0, 88, 88
1, 314457, Note_on_c, 0, 76, 89
1, 314499, Note_off_c, 0, 76, 66
1, 314501, Note_off_c, 0, 88, 67
1, 314544, Note_on_c, 0, 88, 92
1, 314545, Note_on_c, 0, 44, 95
1, 314547, Note_on_c, 0, 32, 95
1, 314547, Note_on_c, 0, 76, 95
1, 314557, Control_c, 0, 64, 67
1, 314572, Control_c, 0, 64, 0
1, 314616, Control_c, 0, 64, 60
1, 314631, Control_c, 0, 64, 118
1, 314646, Control_c, 0, 64, 127
1, 314657, Note_off_c, 0, 88, 64
1, 314660, Note_off_c, 0, 32, 60
1, 314669, Note_off_c, 0, 44, 64
1, 314681, Note_off_c, 0, 76, 66
1, 314898, Note_on_c, 0, 76, 79
1, 314911, Note_on_c, 0, 56, 64
1, 314914, Note_on_c, 0, 51, 57
1, 314916, Note_on_c, 0, 60, 62
1, 314916, Note_on_c, 0, 64, 68
1, 314931, Note_on_c, 0, 68, 43
1, 314960, Note_off_c, 0, 68, 54
1, 314992, Note_off_c, 0, 51, 53
1, 315010, Note_off_c, 0, 64, 49
1, 315024, Note_off_c, 0, 56, 61
1, 315037, Note_off_c, 0, 60, 59
1, 315040, Note_off_c, 0, 76, 59
1, 315126, Note_on_c, 0, 56, 82
1, 315130, Note_on_c, 0, 64, 78
1, 315130, Note_on_c, 0, 72, 81
1, 315131, Note_on_c, 0, 51, 69
1, 315134, Note_on_c, 0, 68, 75
1, 315224, Note_off_c, 0, 64, 50
1, 315227, Note_off_c, 0, 68, 58
1, 315251, Note_off_c, 0, 56, 62
1, 315261, Note_off_c, 0, 51, 61
1, 315299, Note_off_c, 0, 72, 59
1, 315347, Note_on_c, 0, 64, 80
1, 315347, Note_on_c, 0, 68, 78
1, 315347, Note_on_c, 0, 76, 87
1, 315351, Note_on_c, 0, 56, 73
1, 315354, Note_on_c, 0, 60, 71
1, 315355, Note_on_c, 0, 51, 71
1, 315366, Note_off_c, 0, 64, 72
1, 315383, Note_off_c, 0, 56, 64
1, 315384, Note_off_c, 0, 51, 65
1, 315387, Note_off_c, 0, 60, 57
1, 315408, Note_off_c, 0, 68, 65
1, 315500, Note_off_c, 0, 76, 63
1, 315576, Note_on_c, 0, 60, 75
1, 315577, Note_on_c, 0, 56, 79
1, 315781, Control_c, 0, 64, 101
1, 315796, Control_c, 0, 64, 71
1, 315804, Note_on_c, 0, 75, 80
1, 315806, Note_on_c, 0, 87, 78
1, 315811, Control_c, 0, 64, 49
1, 315815, Note_on_c, 0, 63, 71
1, 315832, Control_c, 0, 64, 47
1, 315847, Control_c, 0, 64, 58
1, 315862, Control_c, 0, 64, 73
1, 315877, Control_c, 0, 64, 127
1, 315925, Note_off_c, 0, 87, 64
1, 315930, Note_off_c, 0, 63, 60
1, 315931, Note_off_c, 0, 75, 65
1, 316014, Note_off_c, 0, 60, 62
1, 316023, Note_on_c, 0, 80, 85
1, 316031, Note_on_c, 0, 68, 88
1, 316041, Note_off_c, 0, 56, 63
1, 316132, Note_off_c, 0, 68, 59
1, 316156, Note_off_c, 0, 80, 58
1, 316234, Note_on_c, 0, 82, 90
1, 316240, Note_on_c, 0, 70, 92
1, 316369, Note_off_c, 0, 70, 59
1, 316410, Control_c, 0, 64, 71
1, 316425, Control_c, 0, 64, 0
1, 316451, Note_on_c, 0, 32, 92
1, 316451, Note_on_c, 0, 44, 92
1, 316453, Note_on_c, 0, 84, 81
1, 316455, Control_c, 0, 64, 45
1, 316461, Note_on_c, 0, 72, 96
1, 316470, Control_c, 0, 64, 82
1, 316477, Note_off_c, 0, 32, 66
1, 316478, Note_off_c, 0, 44, 67
1, 316481, Note_off_c, 0, 82, 49
1, 316485, Control_c, 0, 64, 127
1, 316496, Note_off_c, 0, 84, 66
1, 316505, Note_off_c, 0, 72, 65
1, 316664, Note_on_c, 0, 56, 89
1, 316666, Note_on_c, 0, 72, 74
1, 316673, Note_on_c, 0, 68, 85
1, 316674, Note_on_c, 0, 60, 84
1, 316678, Note_on_c, 0, 63, 86
1, 316699, Note_off_c, 0, 63, 72
1, 316702, Note_off_c, 0, 68, 62
1, 316712, Note_off_c, 0, 56, 63
1, 316723, Note_off_c, 0, 72, 65
1, 316734, Note_off_c, 0, 60, 56
1, 316895, Note_on_c, 0, 60, 85
1, 316898, Note_on_c, 0, 84, 91
1, 316900, Note_on_c, 0, 63, 94
1, 316900, Note_on_c, 0, 72, 98
1, 316913, Note_on_c, 0, 56, 73
1, 316944, Note_off_c, 0, 72, 67
1, 316952, Note_off_c, 0, 84, 65
1, 317002, Note_off_c, 0, 63, 56
1, 317044, Note_on_c, 0, 85, 93
1, 317045, Note_on_c, 0, 73, 97
1, 317076, Note_off_c, 0, 60, 60
1, 317079, Note_off_c, 0, 73, 66
1, 317081, Note_off_c, 0, 85, 68
1, 317097, Note_off_c, 0, 56, 61
1, 317134, Note_on_c, 0, 84, 99
1, 317137, Note_on_c, 0, 72, 100
1, 317140, Note_on_c, 0, 56, 74
1, 317146, Note_on_c, 0, 60, 80
1, 317148, Note_on_c, 0, 51, 65
1, 317169, Note_off_c, 0, 60, 68
1, 317170, Note_off_c, 0, 72, 71
1, 317170, Note_off_c, 0, 84, 70
1, 317176, Note_off_c, 0, 56, 66
1, 317184, Note_off_c, 0, 51, 64
1, 317228, Note_on_c, 0, 71, 102
1, 317228, Note_on_c, 0, 83, 105
1, 317260, Note_off_c, 0, 71, 69
1, 317268, Note_off_c, 0, 83, 63
1, 317312, Note_on_c, 0, 84, 97
1, 317314, Note_on_c, 0, 72, 103
1, 317350, Note_off_c, 0, 72, 70
1, 317359, Note_on_c, 0, 44, 25
1, 317365, Note_off_c, 0, 84, 64
1, 317406, Note_off_c, 0, 44, 51
1, 317485, Note_on_c, 0, 44, 100
1, 317488, Note_on_c, 0, 32, 106
1, 317489, Note_on_c, 0, 79, 96
1, 317489, Note_on_c, 0, 91, 104
1, 317509, Control_c, 0, 64, 84
1, 317524, Control_c, 0, 64, 53
1, 317539, Control_c, 0, 64, 0
1, 317553, Control_c, 0, 64, 36
1, 317568, Control_c, 0, 64, 59
1, 317583, Control_c, 0, 64, 83
1, 317594, Note_off_c, 0, 32, 60
1, 317598, Control_c, 0, 64, 127
1, 317605, Note_off_c, 0, 44, 63
1, 317650, Note_off_c, 0, 79, 59
1, 317679, Note_off_c, 0, 91, 58
1, 318043, Note_on_c, 0, 56, 76
1, 318049, Note_on_c, 0, 59, 86
1, 318054, Note_on_c, 0, 50, 78
1, 318072, Note_on_c, 0, 89, 92
1, 318083, Note_on_c, 0, 77, 99
1, 318211, Note_off_c, 0, 50, 54
1, 318234, Note_off_c, 0, 56, 36
1, 318234, Note_off_c, 0, 59, 64
1, 318305, Note_on_c, 0, 65, 98
1, 318312, Note_on_c, 0, 56, 83
1, 318314, Note_on_c, 0, 59, 90
1, 318348, Note_on_c, 0, 58, 13
1, 318380, Note_off_c, 0, 58, 30
1, 318410, Note_off_c, 0, 56, 61
1, 318413, Note_off_c, 0, 59, 61
1, 318421, Note_off_c, 0, 65, 59
1, 318503, Note_on_c, 0, 59, 81
1, 318506, Note_on_c, 0, 56, 83
1, 318518, Note_on_c, 0, 50, 75
1, 318521, Note_off_c, 0, 59, 74
1, 318525, Note_off_c, 0, 89, 60
1, 318535, Note_off_c, 0, 56, 64
1, 318553, Note_off_c, 0, 50, 65
1, 318566, Note_off_c, 0, 77, 57
1, 318642, Note_on_c, 0, 76, 100
1, 318642, Note_on_c, 0, 88, 93
1, 318747, Note_on_c, 0, 30, 97
1, 318854, Poly_aftertouch_c, 0, 32, 127
1, 318888, Poly_aftertouch_c, 0, 32, 0
1, 318891, Note_off_c, 0, 88, 58
1, 318906, Note_off_c, 0, 76, 55
1, 319077, Note_on_c, 0, 76, 97
1, 319079, Note_on_c, 0, 88, 90
1, 319081, Control_c, 0, 64, 72
1, 319085, Note_on_c, 0, 42, 99
1, 319096, Control_c, 0, 64, 0
1, 319168, Control_c, 0, 64, 43
1, 319183, Control_c, 0, 64, 95
1, 319188, Note_off_c, 0, 30, 64
1, 319197, Control_c, 0, 64, 127
1, 319226, Note_off_c, 0, 42, 64
1, 319527, Note_on_c, 0, 59, 68
1, 319538, Note_on_c, 0, 51, 63
1, 319539, Note_on_c, 0, 54, 57
1, 319666, Note_off_c, 0, 54, 54
1, 319673, Note_off_c, 0, 51, 60
1, 319748, Note_off_c, 0, 59, 57
1, 319808, Note_on_c, 0, 59, 54
1, 319811, Note_on_c, 0, 66, 75
1, 319912, Note_off_c, 0, 66, 59
1, 319958, Note_off_c, 0, 59, 48
1, 320034, Note_on_c, 0, 59, 76
1, 320039, Note_on_c, 0, 54, 70
1, 320044, Note_on_c, 0, 51, 74
1, 320118, Note_off_c, 0, 51, 56
1, 320121, Note_off_c, 0, 54, 56
1, 320166, Note_off_c, 0, 59, 63
1, 320238, Note_on_c, 0, 59, 78
1, 320250, Note_on_c, 0, 66, 77
1, 320303, Note_off_c, 0, 76, 59
1, 320340, Note_off_c, 0, 66, 60
1, 320374, Note_off_c, 0, 59, 53
1, 320539, Note_on_c, 0, 87, 79
1, 320546, Note_on_c, 0, 75, 81
1, 320547, Note_on_c, 0, 59, 68
1, 320556, Note_on_c, 0, 54, 59
1, 320559, Note_on_c, 0, 51, 59
1, 320573, Note_off_c, 0, 88, 66
1, 320629, Note_off_c, 0, 51, 59
1, 320657, Note_off_c, 0, 54, 50
1, 320658, Note_off_c, 0, 87, 63
1, 320660, Note_off_c, 0, 75, 65
1, 320712, Note_off_c, 0, 59, 55
1, 320801, Note_on_c, 0, 82, 90
1, 320810, Note_on_c, 0, 70, 92
1, 320814, Note_on_c, 0, 66, 79
1, 320815, Note_on_c, 0, 59, 73
1, 320817, Note_on_c, 0, 54, 57
1, 320834, Note_on_c, 0, 51, 60
1, 320887, Poly_aftertouch_c, 0, 56, 127
1, 320905, Note_off_c, 0, 70, 58
1, 320913, Note_off_c, 0, 66, 59
1, 320931, Note_off_c, 0, 51, 57
1, 320934, Poly_aftertouch_c, 0, 56, 0
1, 320945, Note_off_c, 0, 54, 59
1, 320950, Note_off_c, 0, 82, 60
1, 320952, Note_off_c, 0, 59, 58
1, 321007, Note_on_c, 0, 66, 88
1, 321009, Note_on_c, 0, 71, 98
1, 321009, Note_on_c, 0, 83, 98
1, 321016, Note_on_c, 0, 59, 65
1, 321018, Note_on_c, 0, 54, 68
1, 321024, Note_off_c, 0, 66, 73
1, 321025, Note_on_c, 0, 51, 78
1, 321035, Note_on_c, 0, 56, 47
1, 321045, Note_off_c, 0, 59, 65
1, 321063, Note_off_c, 0, 54, 62
1, 321066, Note_off_c, 0, 56, 53
1, 321084, Note_off_c, 0, 51, 62
1, 321137, Note_off_c, 0, 71, 54
1, 321183, Note_off_c, 0, 83, 59
1, 321269, Note_on_c, 0, 29, 92
1, 321270, Note_on_c, 0, 84, 85
1, 321275, Note_on_c, 0, 72, 93
1, 321281, Note_on_c, 0, 40, 76
1, 321282, Control_c, 0, 64, 78
1, 321292, Note_on_c, 0, 83, 55
1, 321297, Control_c, 0, 64, 44
1, 321301, Note_off_c, 0, 29, 68
1, 321312, Control_c, 0, 64, 0
1, 321326, Control_c, 0, 64, 39
1, 321328, Note_off_c, 0, 40, 62
1, 321341, Control_c, 0, 64, 62
1, 321356, Control_c, 0, 64, 92
1, 321371, Control_c, 0, 64, 127
1, 321412, Note_off_c, 0, 83, 21
1, 321413, Note_off_c, 0, 72, 61
1, 321430, Note_off_c, 0, 84, 63
1, 321433, Note_on_c, 0, 82, 50
1, 321468, Note_off_c, 0, 82, 65
1, 321510, Note_on_c, 0, 61, 80
1, 321514, Note_on_c, 0, 58, 74
1, 321528, Note_on_c, 0, 52, 45
1, 321567, Note_off_c, 0, 58, 58
1, 321573, Note_off_c, 0, 52, 46
1, 321581, Note_off_c, 0, 61, 60
1, 321701, Note_on_c, 0, 58, 84
1, 321701, Note_on_c, 0, 66, 92
1, 321704, Note_on_c, 0, 85, 94
1, 321705, Note_on_c, 0, 73, 96
1, 321706, Note_on_c, 0, 54, 72
1, 321715, Note_on_c, 0, 52, 64
1, 321744, Note_off_c, 0, 66, 62
1, 321749, Note_on_c, 0, 72, 36
1, 321781, Note_off_c, 0, 72, 53
1, 321796, Note_off_c, 0, 52, 31
1, 321837, Note_off_c, 0, 58, 59
1, 321845, Note_off_c, 0, 54, 58
1, 321857, Note_off_c, 0, 73, 57
1, 321888, Note_off_c, 0, 85, 63
1, 321892, Note_on_c, 0, 54, 62
1, 321895, Note_on_c, 0, 58, 76
1, 321896, Note_on_c, 0, 61, 91
1, 321904, Note_on_c, 0, 52, 79
1, 321972, Note_off_c, 0, 52, 58
1, 321974, Note_off_c, 0, 61, 58
1, 321984, Note_off_c, 0, 58, 63
1, 322017, Note_off_c, 0, 54, 51
1, 322069, Note_on_c, 0, 54, 64
1, 322069, Note_on_c, 0, 66, 97
1, 322071, Note_on_c, 0, 58, 87
1, 322074, Note_on_c, 0, 75, 105
1, 322077, Note_on_c, 0, 87, 93
1, 322092, Note_on_c, 0, 52, 63
1, 322108, Note_on_c, 0, 85, 40
1, 322112, Note_off_c, 0, 66, 66
1, 322160, Note_off_c, 0, 52, 61
1, 322168, Poly_aftertouch_c, 0, 53, 0
1, 322170, Note_off_c, 0, 58, 58
1, 322205, Poly_aftertouch_c, 0, 53, 0
1, 322221, Note_off_c, 0, 54, 0
1, 322238, Note_on_c, 0, 54, 41
1, 322242, Note_on_c, 0, 58, 82
1, 322245, Note_on_c, 0, 52, 81
1, 322246, Note_on_c, 0, 61, 92
1, 322272, Note_off_c, 0, 75, 51
1, 322319, Note_off_c, 0, 61, 56
1, 322329, Note_off_c, 0, 85, 15
1, 322330, Note_off_c, 0, 87, 48
1, 322339, Note_off_c, 0, 58, 62
1, 322340, Note_off_c, 0, 52, 53
1, 322357, Note_off_c, 0, 54, 57
1, 322412, Note_on_c, 0, 54, 64
1, 322415, Note_on_c, 0, 66, 99
1, 322416, Note_on_c, 0, 76, 107
1, 322416, Note_on_c, 0, 88, 95
1, 322417, Note_on_c, 0, 58, 92
1, 322424, Note_on_c, 0, 52, 66
1, 322458, Note_off_c, 0, 66, 65
1, 322459, Note_off_c, 0, 76, 68
1, 322483, Note_off_c, 0, 88, 64
1, 322490, Note_off_c, 0, 52, 56
1, 322490, Note_off_c, 0, 58, 61
1, 322515, Note_off_c, 0, 54, 62
1, 322579, Note_on_c, 0, 61, 87
1, 322583, Note_on_c, 0, 54, 66
1, 322585, Note_on_c, 0, 58, 80
1, 322595, Note_on_c, 0, 52, 77
1, 322605, Note_off_c, 0, 58, 69
1, 322607, Note_off_c, 0, 61, 64
1, 322633, Note_off_c, 0, 54, 63
1, 322634, Note_off_c, 0, 52, 66
1, 322735, Control_c, 0, 64, 87
1, 322750, Control_c, 0, 64, 51
1, 322755, Note_on_c, 0, 27, 102
1, 322755, Note_on_c, 0, 39, 108
1, 322764, Note_on_c, 0, 92, 94
1, 322765, Note_on_c, 0, 80, 103
1, 322765, Control_c, 0, 64, 0
1, 322773, Note_off_c, 0, 39, 69
1, 322776, Note_off_c, 0, 27, 66
1, 322780, Control_c, 0, 64, 43
1, 322793, Note_on_c, 0, 85, 52
1, 322795, Control_c, 0, 64, 65
1, 322798, Note_off_c, 0, 80, 68
1, 322803, Note_on_c, 0, 40, 27
1, 322803, Note_off_c, 0, 40, 127
1, 322805, Note_off_c, 0, 92, 66
1, 322810, Control_c, 0, 64, 127
1, 322816, Note_off_c, 0, 85, 38
1, 322825, Note_on_c, 0, 39, 48
1, 322841, Note_on_c, 0, 27, 39
1, 322848, Note_off_c, 0, 39, 61
1, 322848, Poly_aftertouch_c, 0, 40, 0
1, 322866, Note_off_c, 0, 27, 56
1, 322878, Poly_aftertouch_c, 0, 41, 0
1, 322959, Note_on_c, 0, 63, 92
1, 322961, Note_on_c, 0, 66, 99
1, 322967, Note_on_c, 0, 54, 71
1, 322967, Note_on_c, 0, 60, 60
1, 322999, Note_off_c, 0, 66, 64
1, 323000, Note_on_c, 0, 59, 32
1, 323006, Note_off_c, 0, 60, 64
1, 323011, Note_off_c, 0, 63, 61
1, 323032, Note_off_c, 0, 59, 56
1, 323086, Note_off_c, 0, 54, 58
1, 323131, Note_on_c, 0, 90, 103
1, 323132, Note_on_c, 0, 54, 57
1, 323132, Note_on_c, 0, 66, 101
1, 323132, Note_on_c, 0, 78, 106
1, 323135, Note_on_c, 0, 59, 82
1, 323135, Note_on_c, 0, 63, 90
1, 323158, Note_on_c, 0, 85, 52
1, 323171, Note_on_c, 0, 77, 44
1, 323180, Note_off_c, 0, 85, 57
1, 323190, Note_on_c, 0, 58, 13
1, 323193, Note_off_c, 0, 66, 58
1, 323199, Note_off_c, 0, 77, 60
1, 323222, Note_off_c, 0, 63, 60
1, 323243, Note_off_c, 0, 58, 46
1, 323253, Note_off_c, 0, 59, 51
1, 323254, Note_off_c, 0, 54, 38
1, 323321, Note_on_c, 0, 63, 85
1, 323322, Note_on_c, 0, 66, 78
1, 323331, Note_on_c, 0, 54, 84
1, 323331, Note_on_c, 0, 59, 68
1, 323337, Note_off_c, 0, 63, 75
1, 323337, Note_off_c, 0, 66, 76
1, 323354, Note_off_c, 0, 59, 68
1, 323364, Note_off_c, 0, 54, 68
1, 323481, Note_on_c, 0, 30, 26
1, 323489, Note_off_c, 0, 78, 50
1, 323498, Poly_aftertouch_c, 0, 59, 0
1, 323530, Note_off_c, 0, 30, 45
1, 323543, Control_c, 0, 64, 116
1, 323552, Note_on_c, 0, 26, 77
1, 323552, Note_on_c, 0, 38, 100
1, 323558, Control_c, 0, 64, 65
1, 323573, Control_c, 0, 64, 0
1, 323588, Control_c, 0, 64, 30
1, 323599, Note_off_c, 0, 26, 65
1, 323600, Note_off_c, 0, 38, 65
1, 323602, Control_c, 0, 64, 56
1, 323617, Control_c, 0, 64, 85
1, 323632, Control_c, 0, 64, 127
1, 323688, Note_off_c, 0, 90, 61
1, 323694, Poly_aftertouch_c, 0, 78, 0
1, 323834, Note_on_c, 0, 65, 82
1, 323841, Note_on_c, 0, 68, 97
1, 323852, Note_on_c, 0, 56, 73
1, 323856, Note_on_c, 0, 59, 59
1, 323889, Note_on_c, 0, 60, 35
1, 323922, Note_off_c, 0, 60, 53
1, 323956, Note_off_c, 0, 68, 50
1, 323990, Note_off_c, 0, 59, 32
1, 324002, Note_off_c, 0, 56, 26
1, 324007, Note_off_c, 0, 65, 55
1, 324036, Note_on_c, 0, 89, 96
1, 324037, Note_on_c, 0, 77, 108
1, 324039, Note_on_c, 0, 65, 69
1, 324040, Note_on_c, 0, 56, 68
1, 324044, Note_on_c, 0, 68, 93
1, 324050, Note_on_c, 0, 59, 72
1, 324074, Note_off_c, 0, 77, 72
1, 324087, Note_off_c, 0, 89, 67
1, 324104, Note_off_c, 0, 68, 56
1, 324156, Note_off_c, 0, 56, 50
1, 324187, Note_off_c, 0, 59, 57
1, 324226, Note_off_c, 0, 65, 45
1, 324312, Note_on_c, 0, 68, 85
1, 324315, Note_on_c, 0, 59, 70
1, 324316, Note_on_c, 0, 56, 68
1, 324322, Note_on_c, 0, 65, 76
1, 324331, Note_off_c, 0, 68, 69
1, 324345, Note_off_c, 0, 65, 69
1, 324352, Note_off_c, 0, 56, 64
1, 324356, Note_off_c, 0, 59, 62
1, 324760, Note_on_c, 0, 83, 104
1, 324761, Note_on_c, 0, 42, 99
1, 324761, Note_on_c, 0, 95, 88
1, 324762, Note_on_c, 0, 30, 96
1, 324766, Control_c, 0, 64, 90
1, 324781, Control_c, 0, 64, 58
1, 324795, Control_c, 0, 64, 0
1, 324833, Control_c, 0, 64, 52
1, 324848, Control_c, 0, 64, 80
1, 324863, Control_c, 0, 64, 127
1, 324898, Note_off_c, 0, 95, 65
1, 324908, Note_off_c, 0, 83, 64
1, 324937, Note_off_c, 0, 30, 60
1, 324952, Note_off_c, 0, 42, 59
1, 325634, Note_on_c, 0, 69, 99
1, 325643, Note_on_c, 0, 62, 73
1, 325645, Note_on_c, 0, 54, 62
1, 325646, Note_on_c, 0, 57, 68
1, 325814, Note_off_c, 0, 69, 63
1, 325841, Note_off_c, 0, 62, 55
1, 325853, Note_off_c, 0, 57, 53
1, 325911, Note_off_c, 0, 54, 37
1, 326166, Note_on_c, 0, 69, 104
1, 326167, Note_on_c, 0, 57, 63
1, 326167, Note_on_c, 0, 62, 67
1, 326168, Note_on_c, 0, 54, 60
1, 326291, Note_off_c, 0, 62, 51
1, 326292, Note_off_c, 0, 57, 54
1, 326336, Note_off_c, 0, 54, 47
1, 326342, Note_off_c, 0, 69, 57
1, 326489, Note_on_c, 0, 54, 65
1, 326491, Note_on_c, 0, 69, 102
1, 326495, Note_on_c, 0, 62, 73
1, 326497, Note_on_c, 0, 57, 66
1, 326612, Note_off_c, 0, 62, 57
1, 326628, Note_off_c, 0, 57, 60
1, 326631, Note_off_c, 0, 69, 57
1, 326635, Note_off_c, 0, 54, 45
1, 326718, Note_on_c, 0, 62, 79
1, 326722, Note_on_c, 0, 54, 73
1, 326724, Note_on_c, 0, 69, 100
1, 326732, Note_on_c, 0, 57, 71
1, 326769, Note_off_c, 0, 69, 68
1, 326824, Note_off_c, 0, 62, 54
1, 326830, Note_off_c, 0, 54, 55
1, 326843, Note_off_c, 0, 57, 53
1, 326939, Note_on_c, 0, 62, 76
1, 326944, Note_on_c, 0, 54, 65
1, 326950, Note_on_c, 0, 57, 47
1, 326971, Note_off_c, 0, 54, 62
1, 326973, Note_off_c, 0, 57, 61
1, 326992, Note_off_c, 0, 62, 63
1, 327186, Note_on_c, 0, 93, 102
1, 327188, Note_on_c, 0, 69, 88
1, 327190, Note_on_c, 0, 81, 88
1, 327198, Note_on_c, 0, 62, 73
1, 327215, Note_off_c, 0, 81, 65
1, 327224, Note_off_c, 0, 93, 67
1, 327228, Note_on_c, 0, 57, 28
1, 327230, Note_on_c, 0, 54, 29
1, 327272, Note_off_c, 0, 57, 45
1, 327286, Note_off_c, 0, 69, 39
1, 327289, Note_off_c, 0, 54, 37
1, 327370, Note_off_c, 0, 62, 37
1, 327460, Note_on_c, 0, 62, 51
1, 327463, Note_on_c, 0, 69, 75
1, 327476, Note_on_c, 0, 54, 50
1, 327549, Poly_aftertouch_c, 0, 57, 127
1, 327566, Note_off_c, 0, 69, 51
1, 327582, Poly_aftertouch_c, 0, 57, 0
1, 327583, Note_off_c, 0, 62, 52
1, 327598, Note_off_c, 0, 54, 35
1, 327693, Note_on_c, 0, 92, 97
1, 327696, Note_on_c, 0, 80, 92
1, 327705, Note_on_c, 0, 69, 72
1, 327710, Note_on_c, 0, 62, 67
1, 327713, Note_on_c, 0, 54, 54
1, 327800, Note_off_c, 0, 69, 58
1, 327803, Note_off_c, 0, 92, 64
1, 327814, Note_off_c, 0, 54, 56
1, 327815, Note_off_c, 0, 80, 59
1, 327824, Note_off_c, 0, 62, 60
1, 327892, Note_on_c, 0, 69, 87
1, 327904, Note_on_c, 0, 62, 68
1, 327907, Note_on_c, 0, 54, 56
1, 327941, Note_on_c, 0, 57, 33
1, 327991, Note_off_c, 0, 69, 58
1, 328008, Note_off_c, 0, 57, 36
1, 328014, Note_off_c, 0, 54, 50
1, 328014, Note_off_c, 0, 62, 61
1, 328083, Note_on_c, 0, 69, 89
1, 328083, Note_on_c, 0, 90, 95
1, 328084, Note_on_c, 0, 78, 94
1, 328087, Note_on_c, 0, 62, 75
1, 328105, Note_on_c, 0, 54, 55
1, 328131, Note_on_c, 0, 57, 38
1, 328175, Note_off_c, 0, 69, 58
1, 328177, Note_off_c, 0, 57, 50
1, 328181, Note_off_c, 0, 62, 63
1, 328193, Note_off_c, 0, 54, 57
1, 328211, Note_off_c, 0, 90, 61
1, 328229, Note_off_c, 0, 78, 50
1, 328250, Note_on_c, 0, 69, 89
1, 328260, Note_on_c, 0, 62, 75
1, 328280, Note_on_c, 0, 54, 41
1, 328305, Note_on_c, 0, 57, 28
1, 328317, Note_off_c, 0, 69, 60
1, 328331, Note_off_c, 0, 54, 55
1, 328359, Note_off_c, 0, 62, 62
1, 328381, Note_off_c, 0, 57, 41
1, 328424, Note_on_c, 0, 88, 93
1, 328429, Note_on_c, 0, 76, 88
1, 328432, Note_on_c, 0, 66, 93
1, 328434, Note_on_c, 0, 62, 80
1, 328444, Note_on_c, 0, 57, 62
1, 328453, Note_on_c, 0, 54, 60
1, 328506, Note_off_c, 0, 66, 57
1, 328523, Note_off_c, 0, 62, 59
1, 328525, Note_off_c, 0, 54, 53
1, 328530, Note_off_c, 0, 57, 61
1, 328545, Note_off_c, 0, 76, 59
1, 328564, Note_off_c, 0, 88, 61
1, 328602, Note_on_c, 0, 66, 84
1, 328606, Note_on_c, 0, 57, 62
1, 328607, Note_on_c, 0, 62, 78
1, 328608, Note_on_c, 0, 54, 61
1, 328665, Note_off_c, 0, 66, 63
1, 328680, Note_off_c, 0, 54, 55
1, 328691, Note_off_c, 0, 57, 63
1, 328691, Note_off_c, 0, 62, 63
1, 328764, Note_on_c, 0, 66, 88
1, 328768, Note_on_c, 0, 62, 78
1, 328777, Note_on_c, 0, 57, 61
1, 328780, Note_off_c, 0, 66, 76
1, 328788, Note_off_c, 0, 62, 71
1, 328792, Note_on_c, 0, 54, 58
1, 328807, Note_off_c, 0, 57, 65
1, 328818, Note_off_c, 0, 54, 57
1, 329116, Note_on_c, 0, 86, 84
1, 329117, Note_on_c, 0, 74, 91
1, 329160, Note_off_c, 0, 74, 66
1, 329163, Note_off_c, 0, 86, 66
1, 329213, Note_on_c, 0, 86, 87
1, 329216, Note_on_c, 0, 44, 89
1, 329216, Note_on_c, 0, 74, 91
1, 329221, Note_on_c, 0, 32, 95
1, 329230, Control_c, 0, 64, 90
1, 329245, Control_c, 0, 64, 62
1, 329259, Control_c, 0, 64, 0
1, 329326, Control_c, 0, 64, 57
1, 329336, Note_off_c, 0, 32, 62
1, 329341, Control_c, 0, 64, 81
1, 329347, Note_off_c, 0, 44, 64
1, 329356, Control_c, 0, 64, 127
1, 329605, Note_on_c, 0, 65, 83
1, 329609, Note_on_c, 0, 61, 74
1, 329610, Note_on_c, 0, 56, 67
1, 329620, Note_on_c, 0, 53, 64
1, 329699, Note_off_c, 0, 56, 53
1, 329700, Note_off_c, 0, 53, 58
1, 329703, Note_off_c, 0, 61, 50
1, 329705, Note_off_c, 0, 65, 57
1, 329800, Note_on_c, 0, 65, 81
1, 329808, Note_on_c, 0, 61, 68
1, 329809, Note_on_c, 0, 53, 66
1, 329811, Note_on_c, 0, 56, 73
1, 329925, Note_off_c, 0, 65, 59
1, 329927, Note_off_c, 0, 61, 61
1, 329931, Note_off_c, 0, 56, 60
1, 329933, Note_off_c, 0, 53, 59
1, 330001, Note_on_c, 0, 65, 77
1, 330009, Note_on_c, 0, 61, 67
1, 330010, Note_on_c, 0, 53, 53
1, 330013, Note_on_c, 0, 56, 60
1, 330133, Note_off_c, 0, 65, 59
1, 330136, Note_off_c, 0, 61, 60
1, 330139, Note_off_c, 0, 53, 57
1, 330144, Note_off_c, 0, 56, 60
1, 330207, Note_on_c, 0, 65, 75
1, 330211, Note_on_c, 0, 61, 64
1, 330216, Note_on_c, 0, 56, 56
1, 330216, Note_off_c, 0, 74, 61
1, 330218, Note_on_c, 0, 53, 60
1, 330317, Note_off_c, 0, 53, 51
1, 330317, Note_off_c, 0, 65, 54
1, 330323, Note_off_c, 0, 56, 58
1, 330323, Note_off_c, 0, 61, 60
1, 330393, Note_on_c, 0, 65, 71
1, 330396, Note_on_c, 0, 61, 56
1, 330405, Note_on_c, 0, 56, 57
1, 330406, Note_on_c, 0, 53, 58
1, 330521, Note_off_c, 0, 53, 50
1, 330521, Note_off_c, 0, 65, 46
1, 330524, Note_off_c, 0, 56, 54
1, 330524, Note_off_c, 0, 61, 53
1, 330590, Note_on_c, 0, 85, 90
1, 330593, Note_on_c, 0, 73, 83
1, 330607, Note_on_c, 0, 65, 68
1, 330617, Note_on_c, 0, 53, 61
1, 330619, Note_on_c, 0, 56, 61
1, 330619, Note_on_c, 0, 61, 59
1, 330641, Note_off_c, 0, 86, 63
1, 330715, Note_off_c, 0, 65, 53
1, 330729, Note_off_c, 0, 61, 57
1, 330732, Note_off_c, 0, 53, 54
1, 330732, Note_off_c, 0, 56, 56
1, 330802, Note_on_c, 0, 65, 73
1, 330813, Note_on_c, 0, 53, 52
1, 330814, Note_on_c, 0, 61, 57
1, 330819, Note_on_c, 0, 56, 57
1, 330820, Note_off_c, 0, 73, 60
1, 330844, Note_off_c, 0, 85, 62
1, 330872, Note_off_c, 0, 65, 59
1, 330873, Note_off_c, 0, 53, 60
1, 330881, Note_off_c, 0, 56, 60
1, 330900, Note_off_c, 0, 61, 52
1, 331073, Note_on_c, 0, 61, 65
1, 331079, Note_on_c, 0, 64, 76
1, 331079, Note_on_c, 0, 56, 67
1, 331091, Note_on_c, 0, 52, 70
1, 331135, Control_c, 0, 64, 77
1, 331150, Control_c, 0, 64, 47
1, 331164, Control_c, 0, 64, 0
1, 331209, Control_c, 0, 64, 46
1, 331224, Control_c, 0, 64, 70
1, 331238, Control_c, 0, 64, 95
1, 331253, Control_c, 0, 64, 127
1, 331263, Note_off_c, 0, 64, 64
1, 331273, Note_off_c, 0, 61, 61
1, 331275, Note_off_c, 0, 52, 57
1, 331287, Note_off_c, 0, 56, 59
1, 331330, Note_on_c, 0, 64, 76
1, 331331, Note_on_c, 0, 61, 58
1, 331334, Note_on_c, 0, 56, 50
1, 331336, Note_on_c, 0, 52, 58
1, 331476, Note_off_c, 0, 52, 56
1, 331499, Note_off_c, 0, 64, 38
1, 331513, Note_off_c, 0, 61, 48
1, 331526, Note_off_c, 0, 56, 41
1, 331617, Note_on_c, 0, 80, 86
1, 331621, Note_on_c, 0, 68, 78
1, 331630, Note_on_c, 0, 64, 61
1, 331634, Note_on_c, 0, 52, 61
1, 331636, Note_on_c, 0, 61, 56
1, 331641, Note_on_c, 0, 56, 59
1, 331761, Note_off_c, 0, 52, 50
1, 331767, Note_off_c, 0, 61, 60
1, 331770, Note_off_c, 0, 64, 56
1, 331773, Note_off_c, 0, 56, 59
1, 331839, Note_on_c, 0, 64, 69
1, 331845, Note_on_c, 0, 61, 60
1, 331853, Note_on_c, 0, 52, 52
1, 331853, Note_on_c, 0, 56, 50
1, 331965, Note_off_c, 0, 68, 57
1, 331982, Note_off_c, 0, 80, 61
1, 331990, Note_off_c, 0, 64, 52
1, 331994, Note_off_c, 0, 61, 60
1, 331999, Note_off_c, 0, 52, 57
1, 332000, Note_off_c, 0, 56, 56
1, 332074, Note_on_c, 0, 80, 90
1, 332079, Note_on_c, 0, 68, 79
1, 332097, Note_on_c, 0, 64, 68
1, 332100, Note_on_c, 0, 61, 63
1, 332101, Note_on_c, 0, 56, 60
1, 332108, Note_on_c, 0, 52, 57
1, 332226, Note_off_c, 0, 64, 56
1, 332240, Note_off_c, 0, 52, 50
1, 332240, Note_off_c, 0, 61, 57
1, 332241, Note_off_c, 0, 56, 55
1, 332316, Note_off_c, 0, 68, 56
1, 332341, Note_on_c, 0, 64, 75
1, 332345, Note_on_c, 0, 61, 75
1, 332349, Note_on_c, 0, 56, 67
1, 332362, Note_on_c, 0, 52, 67
1, 332505, Note_off_c, 0, 64, 53
1, 332513, Note_off_c, 0, 61, 53
1, 332519, Note_off_c, 0, 56, 53
1, 332519, Note_off_c, 0, 52, 55
1, 332637, Note_on_c, 0, 61, 73
1, 332637, Note_on_c, 0, 64, 73
1, 332646, Note_on_c, 0, 52, 71
1, 332647, Note_on_c, 0, 56, 72
1, 332761, Note_off_c, 0, 52, 50
1, 332769, Note_off_c, 0, 56, 49
1, 332774, Note_off_c, 0, 61, 48
1, 332821, Note_off_c, 0, 64, 32
1, 332930, Note_on_c, 0, 81, 86
1, 332939, Note_on_c, 0, 69, 83
1, 332946, Note_on_c, 0, 64, 71
1, 332948, Note_on_c, 0, 61, 73
1, 332958, Note_on_c, 0, 52, 66
1, 332966, Note_on_c, 0, 56, 63
1, 332979, Note_off_c, 0, 64, 66
1, 332998, Note_off_c, 0, 61, 61
1, 333019, Note_off_c, 0, 80, 62
1, 333031, Note_off_c, 0, 52, 60
1, 333032, Note_off_c, 0, 56, 59
1, 333035, Note_off_c, 0, 69, 60
1, 333112, Note_on_c, 0, 69, 94
1, 333156, Note_off_c, 0, 81, 61
1, 333395, Control_c, 0, 64, 108
1, 333410, Note_on_c, 0, 81, 91
1, 333410, Control_c, 0, 64, 68
1, 333425, Control_c, 0, 64, 0
1, 333425, Control_c, 0, 67, 36
1, 333428, Note_on_c, 0, 44, 80
1, 333431, Note_on_c, 0, 32, 85
1, 333440, Control_c, 0, 67, 82
1, 333455, Control_c, 0, 67, 127
1, 333499, Control_c, 0, 64, 52
1, 333514, Control_c, 0, 64, 80
1, 333529, Control_c, 0, 64, 127
1, 333559, Note_off_c, 0, 32, 60
1, 333568, Note_off_c, 0, 44, 63
1, 333603, Control_c, 0, 67, 95
1, 333618, Control_c, 0, 67, 57
1, 333632, Control_c, 0, 67, 0
1, 334185, Note_on_c, 0, 61, 81
1, 334195, Note_on_c, 0, 63, 70
1, 334206, Note_on_c, 0, 54, 51
1, 334222, Note_off_c, 0, 63, 64
1, 334241, Note_off_c, 0, 54, 63
1, 334244, Note_off_c, 0, 61, 61
1, 334258, Poly_aftertouch_c, 0, 51, 127
1, 334304, Poly_aftertouch_c, 0, 51, 0
1, 334529, Control_c, 0, 67, 38
1, 334551, Control_c, 0, 67, 50
1, 334566, Control_c, 0, 67, 54
1, 334581, Control_c, 0, 67, 58
1, 334596, Control_c, 0, 67, 60
1, 334603, Note_on_c, 0, 61, 73
1, 334608, Note_on_c, 0, 63, 71
1, 334611, Control_c, 0, 67, 65
1, 334624, Note_on_c, 0, 54, 47
1, 334626, Control_c, 0, 67, 73
1, 334640, Note_off_c, 0, 63, 57
1, 334641, Control_c, 0, 67, 82
1, 334649, Note_on_c, 0, 51, 26
1, 334655, Control_c, 0, 67, 97
1, 334659, Note_off_c, 0, 61, 60
1, 334662, Note_off_c, 0, 54, 59
1, 334670, Control_c, 0, 67, 119
1, 334686, Control_c, 0, 67, 127
1, 334692, Note_off_c, 0, 51, 53
1, 334885, Note_on_c, 0, 61, 64
1, 334894, Note_on_c, 0, 63, 61
1, 334899, Note_on_c, 0, 54, 50
1, 334909, Note_on_c, 0, 51, 51
1, 334975, Note_off_c, 0, 61, 54
1, 334975, Note_off_c, 0, 63, 49
1, 334987, Note_off_c, 0, 51, 55
1, 335033, Note_off_c, 0, 54, 35
1, 335132, Note_on_c, 0, 61, 62
1, 335139, Note_on_c, 0, 63, 61
1, 335142, Note_on_c, 0, 51, 54
1, 335147, Note_on_c, 0, 54, 49
1, 335179, Note_off_c, 0, 63, 54
1, 335186, Note_off_c, 0, 61, 60
1, 335192, Note_off_c, 0, 54, 55
1, 335199, Note_off_c, 0, 51, 59
1, 335406, Note_on_c, 0, 63, 51
1, 335419, Control_c, 0, 64, 87
1, 335420, Note_on_c, 0, 57, 53
1, 335423, Note_on_c, 0, 61, 50
1, 335424, Note_on_c, 0, 51, 43
1, 335431, Note_on_c, 0, 54, 36
1, 335434, Control_c, 0, 64, 68
1, 335449, Control_c, 0, 64, 58
1, 335464, Control_c, 0, 64, 57
1, 335479, Control_c, 0, 64, 63
1, 335494, Control_c, 0, 64, 72
1, 335508, Control_c, 0, 64, 88
1, 335514, Note_off_c, 0, 61, 57
1, 335520, Note_off_c, 0, 63, 48
1, 335523, Control_c, 0, 64, 127
1, 335531, Note_off_c, 0, 54, 35
1, 335543, Note_off_c, 0, 57, 57
1, 335575, Note_off_c, 0, 51, 42
1, 335669, Note_on_c, 0, 63, 49
1, 335670, Note_on_c, 0, 61, 50
1, 335678, Note_on_c, 0, 57, 52
1, 335682, Note_on_c, 0, 51, 54
1, 335691, Note_on_c, 0, 54, 38
1, 335741, Note_off_c, 0, 54, 48
1, 335764, Note_off_c, 0, 61, 53
1, 335765, Note_off_c, 0, 57, 58
1, 335783, Note_off_c, 0, 63, 36
1, 335786, Note_off_c, 0, 51, 48
1, 335934, Note_on_c, 0, 51, 38
1, 335934, Note_on_c, 0, 63, 38
1, 335947, Note_on_c, 0, 57, 34
1, 335976, Note_off_c, 0, 63, 48
1, 335985, Note_off_c, 0, 57, 52
1, 335990, Poly_aftertouch_c, 0, 61, 127
1, 335991, Note_off_c, 0, 51, 49
1, 336000, Poly_aftertouch_c, 0, 54, 127
1, 336018, Poly_aftertouch_c, 0, 61, 0
1, 336049, Poly_aftertouch_c, 0, 54, 0
1, 336241, Note_on_c, 0, 60, 46
1, 336241, Note_on_c, 0, 63, 43
1, 336242, Control_c, 0, 64, 116
1, 336256, Note_on_c, 0, 51, 44
1, 336257, Control_c, 0, 64, 81
1, 336260, Note_on_c, 0, 54, 38
1, 336272, Control_c, 0, 64, 61
1, 336287, Control_c, 0, 64, 36
1, 336302, Control_c, 0, 64, 0
1, 336331, Control_c, 0, 64, 38
1, 336346, Control_c, 0, 64, 54
1, 336361, Control_c, 0, 64, 67
1, 336376, Control_c, 0, 64, 79
1, 336391, Control_c, 0, 64, 95
1, 336406, Control_c, 0, 64, 111
1, 336410, Note_off_c, 0, 63, 48
1, 336421, Control_c, 0, 64, 127
1, 336422, Note_off_c, 0, 51, 38
1, 336429, Note_off_c, 0, 60, 38
1, 336431, Note_off_c, 0, 54, 43
1, 336543, Note_on_c, 0, 63, 43
1, 336555, Note_on_c, 0, 60, 42
1, 336558, Note_on_c, 0, 51, 37
1, 336571, Note_on_c, 0, 54, 25
1, 336614, Note_off_c, 0, 54, 48
1, 336626, Note_off_c, 0, 51, 48
1, 336630, Note_off_c, 0, 60, 57
1, 336630, Note_off_c, 0, 63, 48
1, 336862, Note_on_c, 0, 63, 38
1, 336871, Note_on_c, 0, 60, 40
1, 336882, Note_on_c, 0, 51, 31
1, 336910, Note_on_c, 0, 54, 27
1, 336954, Note_off_c, 0, 54, 47
1, 336955, Note_off_c, 0, 63, 50
1, 336986, Note_off_c, 0, 51, 35
1, 337000, Note_off_c, 0, 60, 36
1, 337006, Note_off_c, 0, 69, 53
1, 337263, Note_on_c, 0, 63, 36
1, 337265, Note_on_c, 0, 60, 32
1, 337280, Note_on_c, 0, 51, 12
1, 337321, Poly_aftertouch_c, 0, 54, 127
1, 337322, Note_on_c, 0, 54, 3
1, 337345, Note_off_c, 0, 63, 60
1, 337347, Note_off_c, 0, 60, 51
1, 337368, Note_off_c, 0, 54, 45
1, 337387, Note_off_c, 0, 51, 39
1, 337891, Note_on_c, 0, 80, 47
1, 337902, Note_on_c, 0, 68, 36
1, 337941, Note_off_c, 0, 81, 55
1, 338518, Control_c, 0, 64, 119
1, 338533, Control_c, 0, 64, 111
1, 338547, Control_c, 0, 64, 107
1, 338562, Control_c, 0, 64, 104
1, 338577, Control_c, 0, 64, 102
1, 338592, Control_c, 0, 64, 100
1, 338607, Control_c, 0, 64, 98
1, 338621, Control_c, 0, 64, 96
1, 338636, Control_c, 0, 64, 93
1, 338651, Control_c, 0, 64, 91
1, 338667, Control_c, 0, 64, 90
1, 338682, Control_c, 0, 64, 88
1, 338697, Control_c, 0, 64, 87
1, 338712, Control_c, 0, 64, 86
1, 338726, Control_c, 0, 64, 84
1, 338741, Control_c, 0, 64, 82
1, 338756, Control_c, 0, 64, 80
1, 338770, Control_c, 0, 64, 79
1, 338785, Control_c, 0, 64, 78
1, 338800, Control_c, 0, 64, 77
1, 338815, Control_c, 0, 64, 75
1, 338830, Control_c, 0, 64, 73
1, 338844, Control_c, 0, 64, 72
1, 338859, Control_c, 0, 64, 71
1, 338874, Control_c, 0, 64, 70
1, 338889, Control_c, 0, 64, 69
1, 338904, Control_c, 0, 64, 68
1, 338933, Control_c, 0, 64, 68
1, 338948, Control_c, 0, 64, 67
1, 338963, Control_c, 0, 64, 65
1, 338978, Control_c, 0, 64, 64
1, 339023, Control_c, 0, 64, 63
1, 339044, Control_c, 0, 64, 62
1, 339059, Control_c, 0, 64, 61
1, 339074, Control_c, 0, 64, 59
1, 339089, Control_c, 0, 64, 58
1, 339103, Control_c, 0, 64, 58
1, 339118, Control_c, 0, 64, 57
1, 339133, Control_c, 0, 64, 56
1, 339148, Control_c, 0, 64, 54
1, 339163, Control_c, 0, 64, 51
1, 339178, Control_c, 0, 64, 49
1, 339193, Control_c, 0, 64, 46
1, 339208, Control_c, 0, 64, 44
1, 339223, Control_c, 0, 64, 41
1, 339237, Control_c, 0, 64, 40
1, 339252, Control_c, 0, 64, 39
1, 339311, Control_c, 0, 64, 40
1, 339326, Control_c, 0, 64, 42
1, 339341, Control_c, 0, 64, 45
1, 339356, Control_c, 0, 64, 51
1, 339371, Control_c, 0, 64, 58
1, 339386, Control_c, 0, 64, 63
1, 339401, Control_c, 0, 64, 67
1, 339416, Control_c, 0, 64, 70
1, 339431, Control_c, 0, 64, 74
1, 339445, Control_c, 0, 64, 78
1, 339460, Control_c, 0, 64, 83
1, 339476, Control_c, 0, 64, 88
1, 339491, Control_c, 0, 64, 94
1, 339502, Note_off_c, 0, 80, 55
1, 339506, Control_c, 0, 64, 99
1, 339520, Control_c, 0, 64, 105
1, 339535, Control_c, 0, 64, 115
1, 339550, Control_c, 0, 64, 127
1, 339576, Note_off_c, 0, 68, 50
1, 340284, Control_c, 0, 64, 104
1, 340299, Control_c, 0, 64, 75
1, 340314, Control_c, 0, 64, 47
1, 340328, Control_c, 0, 64, 0
1, 340590, Note_on_c, 0, 32, 58
1, 340620, Note_off_c, 0, 32, 57
1, 340750, Note_on_c, 0, 37, 53
1, 340782, Note_off_c, 0, 37, 59
1, 340872, Note_on_c, 0, 36, 60
1, 340913, Note_off_c, 0, 36, 63
1, 341009, Note_on_c, 0, 34, 67
1, 341040, Note_off_c, 0, 34, 63
1, 341149, Note_on_c, 0, 36, 58
1, 341180, Note_off_c, 0, 36, 62
1, 341276, Note_on_c, 0, 34, 58
1, 341315, Note_off_c, 0, 34, 62
1, 341408, Note_on_c, 0, 32, 53
1, 341445, Note_off_c, 0, 32, 51
1, 341544, Note_on_c, 0, 37, 59
1, 341575, Note_off_c, 0, 37, 63
1, 341662, Note_on_c, 0, 36, 59
1, 341701, Note_off_c, 0, 36, 63
1, 341797, Note_on_c, 0, 34, 51
1, 341827, Note_off_c, 0, 34, 58
1, 341919, Note_on_c, 0, 36, 58
1, 341958, Note_off_c, 0, 36, 63
1, 342063, Note_on_c, 0, 34, 54
1, 342095, Note_off_c, 0, 34, 62
1, 342178, Note_on_c, 0, 32, 64
1, 342208, Note_off_c, 0, 32, 61
1, 342318, Note_on_c, 0, 37, 60
1, 342350, Note_off_c, 0, 37, 64
1, 342439, Note_on_c, 0, 36, 59
1, 342484, Note_off_c, 0, 36, 62
1, 342577, Note_on_c, 0, 34, 48
1, 342609, Note_off_c, 0, 34, 53
1, 342701, Note_on_c, 0, 36, 55
1, 342737, Note_off_c, 0, 36, 61
1, 342838, Note_on_c, 0, 34, 52
1, 342868, Note_off_c, 0, 34, 58
1, 342953, Note_on_c, 0, 32, 56
1, 342985, Note_off_c, 0, 32, 52
1, 343084, Note_on_c, 0, 37, 60
1, 343117, Note_off_c, 0, 37, 62
1, 343202, Note_on_c, 0, 36, 58
1, 343242, Note_off_c, 0, 36, 64
1, 343336, Note_on_c, 0, 34, 50
1, 343367, Note_off_c, 0, 34, 57
1, 343449, Note_on_c, 0, 36, 57
1, 343486, Note_off_c, 0, 36, 63
1, 343588, Note_on_c, 0, 34, 59
1, 343619, Note_off_c, 0, 34, 64
1, 343709, Note_on_c, 0, 32, 57
1, 343739, Note_off_c, 0, 32, 56
1, 343779, Note_on_c, 0, 53, 65
1, 343789, Note_on_c, 0, 49, 53
1, 343792, Note_on_c, 0, 44, 53
1, 343809, Note_off_c, 0, 53, 66
1, 343815, Note_off_c, 0, 49, 58
1, 343819, Note_off_c, 0, 44, 56
1, 343879, Note_on_c, 0, 53, 62
1, 343887, Note_on_c, 0, 44, 56
1, 343891, Note_on_c, 0, 49, 42
1, 343899, Note_on_c, 0, 37, 38
1, 343939, Note_off_c, 0, 37, 46
1, 343964, Note_off_c, 0, 49, 0
1, 343964, Note_on_c, 0, 49, 22
1, 344001, Note_on_c, 0, 36, 41
1, 344040, Note_off_c, 0, 36, 50
1, 344125, Note_on_c, 0, 34, 27
1, 344168, Note_off_c, 0, 34, 42
1, 344246, Note_on_c, 0, 36, 50
1, 344281, Note_off_c, 0, 36, 54
1, 344373, Note_on_c, 0, 34, 54
1, 344404, Note_off_c, 0, 34, 62
1, 344489, Note_off_c, 0, 44, 43
1, 344498, Note_on_c, 0, 32, 52
1, 344513, Note_off_c, 0, 49, 48
1, 344517, Note_off_c, 0, 53, 61
1, 344545, Note_off_c, 0, 32, 47
1, 344623, Note_on_c, 0, 53, 70
1, 344624, Note_on_c, 0, 37, 65
1, 344627, Note_on_c, 0, 49, 52
1, 344630, Note_on_c, 0, 44, 57
1, 344657, Note_off_c, 0, 37, 60
1, 344745, Note_on_c, 0, 36, 63
1, 344790, Note_off_c, 0, 36, 60
1, 344884, Note_on_c, 0, 34, 43
1, 344922, Note_off_c, 0, 34, 46
1, 344996, Note_on_c, 0, 36, 53
1, 345038, Note_off_c, 0, 36, 62
1, 345137, Note_on_c, 0, 34, 58
1, 345170, Note_off_c, 0, 34, 62
1, 345263, Note_on_c, 0, 32, 48
1, 345298, Note_off_c, 0, 53, 56
1, 345301, Note_off_c, 0, 44, 58
1, 345303, Note_off_c, 0, 49, 60
1, 345304, Note_off_c, 0, 32, 52
1, 345409, Note_on_c, 0, 37, 53
1, 345414, Note_on_c, 0, 53, 53
1, 345427, Note_on_c, 0, 44, 40
1, 345444, Note_on_c, 0, 49, 38
1, 345444, Note_off_c, 0, 37, 61
1, 345518, Note_on_c, 0, 36, 61
1, 345562, Note_off_c, 0, 36, 61
1, 345646, Note_on_c, 0, 34, 59
1, 345678, Note_off_c, 0, 34, 63
1, 345767, Note_on_c, 0, 36, 54
1, 345813, Note_off_c, 0, 36, 63
1, 345892, Note_on_c, 0, 34, 59
1, 345925, Note_off_c, 0, 34, 62
1, 346011, Note_on_c, 0, 32, 58
1, 346050, Note_off_c, 0, 32, 57
1, 346140, Note_off_c, 0, 44, 63
1, 346143, Note_on_c, 0, 37, 68
1, 346161, Note_off_c, 0, 49, 63
1, 346165, Note_off_c, 0, 53, 61
1, 346173, Note_off_c, 0, 37, 64
1, 346256, Note_on_c, 0, 36, 58
1, 346305, Note_off_c, 0, 36, 61
1, 346383, Note_on_c, 0, 34, 54
1, 346429, Note_off_c, 0, 34, 57
1, 346496, Note_on_c, 0, 49, 74
1, 346503, Note_on_c, 0, 36, 60
1, 346532, Note_off_c, 0, 49, 66
1, 346543, Note_off_c, 0, 36, 63
1, 346636, Note_on_c, 0, 34, 57
1, 346669, Note_off_c, 0, 34, 63
1, 346751, Note_on_c, 0, 32, 58
1, 346781, Note_off_c, 0, 32, 57
1, 346818, Note_on_c, 0, 53, 65
1, 346821, Note_on_c, 0, 49, 62
1, 346848, Note_off_c, 0, 53, 65
1, 346851, Note_off_c, 0, 49, 64
1, 346899, Note_on_c, 0, 56, 76
1, 346910, Note_on_c, 0, 37, 62
1, 346913, Note_on_c, 0, 53, 66
1, 346919, Note_on_c, 0, 49, 52
1, 346926, Poly_aftertouch_c, 0, 44, 127
1, 346940, Note_off_c, 0, 37, 64
1, 346968, Note_off_c, 0, 49, 0
1, 346988, Note_on_c, 0, 49, 35
1, 347005, Note_on_c, 0, 36, 62
1, 347048, Note_off_c, 0, 36, 63
1, 347152, Note_on_c, 0, 34, 35
1, 347193, Note_off_c, 0, 34, 45
1, 347248, Note_on_c, 0, 36, 57
1, 347295, Note_off_c, 0, 36, 63
1, 347393, Note_on_c, 0, 34, 56
1, 347429, Note_off_c, 0, 34, 60
1, 347503, Note_on_c, 0, 32, 64
1, 347525, Note_off_c, 0, 56, 37
1, 347532, Poly_aftertouch_c, 0, 44, 0
1, 347534, Note_off_c, 0, 32, 62
1, 347540, Note_off_c, 0, 49, 58
1, 347552, Note_off_c, 0, 53, 57
1, 347636, Note_on_c, 0, 56, 67
1, 347642, Note_on_c, 0, 44, 51
1, 347651, Note_on_c, 0, 37, 55
1, 347651, Note_on_c, 0, 51, 59
1, 347685, Note_off_c, 0, 37, 63
1, 347752, Note_on_c, 0, 36, 66
1, 347794, Note_off_c, 0, 36, 64
1, 347893, Note_on_c, 0, 34, 47
1, 347927, Note_off_c, 0, 34, 50
1, 348001, Note_on_c, 0, 36, 57
1, 348049, Note_off_c, 0, 36, 62
1, 348147, Note_on_c, 0, 34, 63
1, 348185, Note_off_c, 0, 34, 61
1, 348251, Note_off_c, 0, 44, 36
1, 348258, Note_off_c, 0, 56, 34
1, 348262, Note_on_c, 0, 32, 61
1, 348274, Note_off_c, 0, 51, 56
1, 348306, Note_off_c, 0, 32, 52
1, 348385, Note_on_c, 0, 56, 53
1, 348397, Note_on_c, 0, 44, 48
1, 348401, Note_on_c, 0, 37, 63
1, 348404, Note_on_c, 0, 53, 48
1, 348408, Note_on_c, 0, 49, 45
1, 348433, Note_off_c, 0, 37, 62
1, 348510, Note_on_c, 0, 36, 62
1, 348550, Note_off_c, 0, 36, 63
1, 348639, Note_on_c, 0, 34, 51
1, 348670, Note_off_c, 0, 34, 57
1, 348749, Note_on_c, 0, 36, 61
1, 348795, Note_off_c, 0, 36, 63
1, 348886, Note_on_c, 0, 34, 57
1, 348919, Note_off_c, 0, 34, 64
1, 348994, Note_on_c, 0, 32, 63
1, 349028, Note_off_c, 0, 32, 62
1, 349113, Note_on_c, 0, 37, 75
1, 349152, Note_off_c, 0, 37, 65
1, 349219, Note_on_c, 0, 36, 67
1, 349271, Note_off_c, 0, 36, 51
1, 349290, Note_off_c, 0, 44, 49
1, 349336, Note_on_c, 0, 34, 65
1, 349356, Note_off_c, 0, 53, 50
1, 349365, Note_off_c, 0, 34, 63
1, 349372, Note_off_c, 0, 49, 60
1, 349429, Note_off_c, 0, 56, 63
1, 349437, Note_on_c, 0, 36, 65
1, 349483, Note_off_c, 0, 36, 61
1, 349569, Note_on_c, 0, 34, 73
1, 349607, Note_off_c, 0, 34, 66
1, 349653, Note_on_c, 0, 56, 69
1, 349662, Note_on_c, 0, 53, 56
1, 349668, Note_on_c, 0, 49, 54
1, 349682, Note_on_c, 0, 32, 68
1, 349685, Note_off_c, 0, 56, 65
1, 349692, Note_off_c, 0, 53, 64
1, 349694, Note_off_c, 0, 49, 58
1, 349712, Note_off_c, 0, 32, 62
1, 349742, Note_on_c, 0, 56, 77
1, 349753, Note_on_c, 0, 53, 70
1, 349757, Note_on_c, 0, 49, 66
1, 349775, Note_off_c, 0, 56, 64
1, 349777, Note_off_c, 0, 49, 63
1, 349781, Note_off_c, 0, 53, 64
1, 349831, Note_on_c, 0, 37, 66
1, 349832, Note_on_c, 0, 53, 72
1, 349839, Note_on_c, 0, 49, 64
1, 349851, Note_on_c, 0, 52, 57
1, 349852, Note_on_c, 0, 55, 58
1, 349861, Note_off_c, 0, 49, 63
1, 349863, Note_on_c, 0, 44, 20
1, 349873, Note_off_c, 0, 37, 59
1, 349886, Note_on_c, 0, 56, 4
1, 349909, Note_off_c, 0, 44, 29
1, 349945, Note_on_c, 0, 36, 64
1, 349945, Note_on_c, 0, 49, 37
1, 349948, Note_off_c, 0, 56, 24
1, 349956, Note_off_c, 0, 55, 29
1, 349996, Note_off_c, 0, 49, 0
1, 349996, Note_off_c, 0, 36, 61
1, 350032, Poly_aftertouch_c, 0, 49, 127
1, 350051, Note_off_c, 0, 52, 14
1, 350059, Note_on_c, 0, 34, 71
1, 350089, Note_off_c, 0, 53, 60
1, 350092, Note_off_c, 0, 34, 62
1, 350159, Poly_aftertouch_c, 0, 49, 0
1, 350210, Note_on_c, 0, 36, 62
1, 350228, Note_on_c, 0, 61, 71
1, 350248, Note_off_c, 0, 36, 62
1, 350257, Note_on_c, 0, 49, 42
1, 350257, Note_on_c, 0, 53, 27
1, 350257, Note_on_c, 0, 56, 35
1, 350316, Note_off_c, 0, 49, 43
1, 350340, Note_off_c, 0, 56, 34
1, 350342, Note_off_c, 0, 53, 35
1, 350365, Note_on_c, 0, 34, 62
1, 350405, Note_off_c, 0, 34, 62
1, 350461, Note_off_c, 0, 61, 51
1, 350461, Note_on_c, 0, 32, 74
1, 350489, Note_off_c, 0, 32, 63
1, 350583, Note_on_c, 0, 56, 69
1, 350606, Note_on_c, 0, 53, 46
1, 350608, Note_on_c, 0, 37, 56
1, 350619, Note_on_c, 0, 49, 29
1, 350654, Note_off_c, 0, 37, 57
1, 350714, Note_on_c, 0, 36, 64
1, 350764, Note_off_c, 0, 36, 61
1, 350830, Note_off_c, 0, 53, 61
1, 350833, Note_on_c, 0, 34, 72
1, 350838, Note_off_c, 0, 49, 43
1, 350863, Note_off_c, 0, 34, 64
1, 350883, Note_off_c, 0, 56, 63
1, 350953, Note_on_c, 0, 36, 66
1, 350956, Note_on_c, 0, 63, 82
1, 350970, Note_on_c, 0, 51, 67
1, 350986, Note_off_c, 0, 36, 60
1, 350991, Note_on_c, 0, 56, 36
1, 351089, Note_on_c, 0, 34, 64
1, 351173, Control_c, 0, 64, 31
1, 351176, Note_off_c, 0, 34, 56
1, 351184, Note_on_c, 0, 32, 70
1, 351202, Note_off_c, 0, 51, 52
1, 351214, Note_off_c, 0, 32, 62
1, 351236, Note_off_c, 0, 63, 59
1, 351253, Note_off_c, 0, 56, 51
1, 351307, Control_c, 0, 64, 0
1, 351330, Note_on_c, 0, 37, 65
1, 351337, Note_on_c, 0, 65, 68
1, 351340, Note_on_c, 0, 56, 67
1, 351343, Note_on_c, 0, 53, 63
1, 351345, Note_on_c, 0, 44, 43
1, 351377, Note_off_c, 0, 44, 51
1, 351382, Note_off_c, 0, 37, 54
1, 351394, Note_off_c, 0, 53, 0
1, 351430, Poly_aftertouch_c, 0, 53, 127
1, 351454, Note_on_c, 0, 36, 60
1, 351501, Note_off_c, 0, 36, 62
1, 351569, Note_on_c, 0, 34, 61
1, 351598, Note_off_c, 0, 34, 63
1, 351701, Note_on_c, 0, 36, 58
1, 351733, Note_off_c, 0, 36, 63
1, 351831, Note_on_c, 0, 34, 55
1, 351874, Note_off_c, 0, 34, 58
1, 351912, Note_off_c, 0, 56, 26
1, 351922, Note_on_c, 0, 32, 73
1, 351949, Poly_aftertouch_c, 0, 53, 0
1, 351951, Note_off_c, 0, 32, 62
1, 352065, Note_on_c, 0, 56, 52
1, 352066, Note_on_c, 0, 53, 51
1, 352066, Note_on_c, 0, 61, 56
1, 352068, Note_on_c, 0, 37, 65
1, 352096, Note_on_c, 0, 44, 26
1, 352118, Note_off_c, 0, 37, 55
1, 352136, Note_off_c, 0, 44, 30
1, 352176, Note_on_c, 0, 36, 60
1, 352190, Note_off_c, 0, 53, 0
1, 352227, Poly_aftertouch_c, 0, 53, 127
1, 352230, Note_off_c, 0, 36, 61
1, 352300, Note_on_c, 0, 34, 72
1, 352310, Note_off_c, 0, 56, 17
1, 352331, Note_off_c, 0, 34, 63
1, 352336, Note_off_c, 0, 65, 53
1, 352362, Poly_aftertouch_c, 0, 53, 0
1, 352365, Note_off_c, 0, 61, 61
1, 352416, Note_on_c, 0, 56, 74
1, 352425, Note_on_c, 0, 36, 73
1, 352441, Note_off_c, 0, 56, 66
1, 352449, Note_on_c, 0, 53, 16
1, 352459, Note_off_c, 0, 36, 63
1, 352502, Note_off_c, 0, 53, 26
1, 352550, Note_on_c, 0, 34, 73
1, 352553, Note_on_c, 0, 61, 79
1, 352556, Note_on_c, 0, 56, 46
1, 352585, Note_off_c, 0, 34, 62
1, 352598, Note_off_c, 0, 56, 63
1, 352602, Note_off_c, 0, 61, 60
1, 352663, Note_on_c, 0, 32, 77
1, 352675, Note_on_c, 0, 65, 64
1, 352678, Note_on_c, 0, 56, 65
1, 352691, Note_off_c, 0, 32, 62
1, 352699, Note_off_c, 0, 56, 63
1, 352720, Note_off_c, 0, 65, 62
1, 352787, Note_on_c, 0, 65, 60
1, 352798, Note_on_c, 0, 56, 57
1, 352800, Note_on_c, 0, 37, 66
1, 352805, Note_on_c, 0, 68, 58
1, 352817, Note_on_c, 0, 44, 39
1, 352824, Note_on_c, 0, 61, 36
1, 352838, Note_off_c, 0, 37, 62
1, 352851, Note_off_c, 0, 44, 52
1, 352929, Note_on_c, 0, 36, 52
1, 352965, Note_off_c, 0, 36, 63
1, 353039, Note_on_c, 0, 34, 58
1, 353069, Note_off_c, 0, 34, 63
1, 353160, Note_on_c, 0, 36, 66
1, 353192, Note_off_c, 0, 36, 62
1, 353286, Note_on_c, 0, 34, 65
1, 353326, Note_off_c, 0, 34, 62
1, 353367, Note_off_c, 0, 61, 52
1, 353378, Note_off_c, 0, 56, 50
1, 353384, Note_off_c, 0, 68, 48
1, 353394, Note_on_c, 0, 32, 65
1, 353409, Note_off_c, 0, 65, 60
1, 353427, Note_off_c, 0, 32, 62
1, 353507, Note_on_c, 0, 68, 59
1, 353508, Note_on_c, 0, 56, 61
1, 353513, Note_on_c, 0, 63, 68
1, 353532, Note_on_c, 0, 37, 65
1, 353564, Note_off_c, 0, 37, 61
1, 353567, Note_on_c, 0, 44, 6
1, 353620, Note_off_c, 0, 44, 27
1, 353638, Note_on_c, 0, 36, 62
1, 353680, Note_off_c, 0, 36, 68
1, 353758, Note_on_c, 0, 34, 61
1, 353790, Note_off_c, 0, 34, 64
1, 353868, Note_on_c, 0, 36, 70
1, 353892, Note_off_c, 0, 56, 61
1, 353904, Note_off_c, 0, 63, 61
1, 353906, Note_off_c, 0, 36, 65
1, 353912, Note_off_c, 0, 68, 60
1, 353993, Note_on_c, 0, 34, 73
1, 354039, Note_off_c, 0, 34, 65
1, 354046, Note_on_c, 0, 63, 66
1, 354049, Note_on_c, 0, 68, 59
1, 354053, Note_on_c, 0, 56, 63
1, 354091, Note_off_c, 0, 56, 61
1, 354100, Note_off_c, 0, 63, 58
1, 354110, Note_off_c, 0, 68, 55
1, 354113, Note_on_c, 0, 32, 75
1, 354140, Note_off_c, 0, 32, 63
1, 354228, Note_on_c, 0, 65, 63
1, 354231, Note_on_c, 0, 56, 56
1, 354231, Note_on_c, 0, 61, 59
1, 354231, Note_on_c, 0, 68, 62
1, 354238, Note_on_c, 0, 37, 68
1, 354273, Note_on_c, 0, 44, 10
1, 354284, Note_off_c, 0, 37, 61
1, 354327, Note_off_c, 0, 44, 27
1, 354355, Note_on_c, 0, 36, 65
1, 354393, Note_off_c, 0, 36, 65
1, 354469, Note_on_c, 0, 34, 69
1, 354497, Note_off_c, 0, 34, 64
1, 354583, Note_on_c, 0, 36, 71
1, 354622, Note_off_c, 0, 36, 65
1, 354714, Note_on_c, 0, 34, 66
1, 354753, Note_off_c, 0, 34, 64
1, 354830, Note_on_c, 0, 32, 71
1, 354860, Note_off_c, 0, 32, 61
1, 354950, Note_on_c, 0, 37, 80
1, 354965, Note_on_c, 0, 44, 56
1, 354990, Note_off_c, 0, 44, 57
1, 354991, Note_off_c, 0, 37, 61
1, 355024, Note_off_c, 0, 65, 62
1, 355029, Note_off_c, 0, 61, 63
1, 355033, Note_off_c, 0, 56, 62
1, 355038, Note_off_c, 0, 68, 59
1, 355067, Note_on_c, 0, 36, 64
1, 355107, Note_off_c, 0, 36, 64
1, 355184, Note_on_c, 0, 34, 61
1, 355217, Note_off_c, 0, 34, 63
1, 355309, Note_on_c, 0, 36, 61
1, 355319, Note_on_c, 0, 56, 69
1, 355325, Note_on_c, 0, 53, 61
1, 355340, Note_off_c, 0, 36, 65
1, 355349, Note_off_c, 0, 56, 64
1, 355355, Note_off_c, 0, 53, 65
1, 355436, Note_on_c, 0, 34, 69
1, 355449, Note_on_c, 0, 61, 73
1, 355451, Note_on_c, 0, 56, 39
1, 355469, Note_off_c, 0, 34, 63
1, 355487, Note_off_c, 0, 56, 63
1, 355489, Note_off_c, 0, 61, 61
1, 355555, Note_on_c, 0, 32, 77
1, 355575, Note_on_c, 0, 65, 59
1, 355579, Note_on_c, 0, 56, 61
1, 355585, Note_off_c, 0, 32, 62
1, 355596, Note_on_c, 0, 61, 41
1, 355603, Note_off_c, 0, 56, 63
1, 355626, Note_off_c, 0, 61, 53
1, 355630, Note_off_c, 0, 65, 61
1, 355686, Note_on_c, 0, 65, 59
1, 355693, Note_on_c, 0, 37, 65
1, 355693, Note_on_c, 0, 68, 54
1, 355698, Note_on_c, 0, 56, 61
1, 355703, Note_on_c, 0, 61, 55
1, 355709, Note_on_c, 0, 44, 35
1, 355734, Note_off_c, 0, 37, 61
1, 355745, Note_off_c, 0, 44, 53
1, 355811, Note_on_c, 0, 36, 58
1, 355849, Note_off_c, 0, 36, 64
1, 355927, Note_on_c, 0, 34, 58
1, 355957, Note_off_c, 0, 34, 62
1, 356043, Note_on_c, 0, 36, 66
1, 356084, Note_off_c, 0, 36, 64
1, 356169, Note_on_c, 0, 34, 70
1, 356205, Note_off_c, 0, 34, 62
1, 356270, Note_off_c, 0, 56, 49
1, 356274, Note_off_c, 0, 61, 50
1, 356289, Note_on_c, 0, 32, 66
1, 356298, Note_off_c, 0, 65, 57
1, 356305, Note_off_c, 0, 68, 49
1, 356320, Note_off_c, 0, 32, 61
1, 356412, Note_on_c, 0, 68, 68
1, 356413, Note_on_c, 0, 56, 56
1, 356416, Note_on_c, 0, 63, 65
1, 356424, Note_on_c, 0, 37, 57
1, 356439, Note_on_c, 0, 44, 29
1, 356460, Note_off_c, 0, 37, 62
1, 356479, Note_off_c, 0, 44, 48
1, 356534, Note_on_c, 0, 36, 49
1, 356573, Note_off_c, 0, 36, 66
1, 356653, Note_on_c, 0, 34, 49
1, 356687, Note_off_c, 0, 34, 53
1, 356758, Note_on_c, 0, 36, 66
1, 356794, Note_off_c, 0, 36, 62
1, 356802, Note_off_c, 0, 56, 59
1, 356804, Note_off_c, 0, 68, 59
1, 356808, Note_off_c, 0, 63, 60
1, 356872, Note_on_c, 0, 34, 58
1, 356911, Note_off_c, 0, 34, 62
1, 356923, Note_on_c, 0, 68, 68
1, 356928, Note_on_c, 0, 63, 66
1, 356936, Note_on_c, 0, 56, 62
1, 356981, Note_on_c, 0, 32, 74
1, 356996, Note_off_c, 0, 56, 49
1, 357016, Note_off_c, 0, 32, 62
1, 357021, Note_off_c, 0, 68, 59
1, 357022, Note_off_c, 0, 63, 54
1, 357123, Note_on_c, 0, 37, 59
1, 357129, Note_on_c, 0, 65, 64
1, 357131, Note_on_c, 0, 68, 64
1, 357135, Note_on_c, 0, 61, 55
1, 357136, Note_on_c, 0, 56, 51
1, 357166, Note_off_c, 0, 37, 62
1, 357232, Note_on_c, 0, 36, 66
1, 357275, Note_off_c, 0, 36, 63
1, 357360, Note_on_c, 0, 34, 52
1, 357392, Note_off_c, 0, 34, 55
1, 357485, Note_on_c, 0, 36, 57
1, 357515, Note_off_c, 0, 36, 61
1, 357610, Note_on_c, 0, 34, 37
1, 357651, Note_off_c, 0, 34, 45
1, 357698, Note_on_c, 0, 32, 70
1, 357709, Note_off_c, 0, 65, 53
1, 357713, Note_off_c, 0, 61, 53
1, 357721, Note_off_c, 0, 68, 55
1, 357727, Note_off_c, 0, 56, 44
1, 357729, Note_off_c, 0, 32, 62
1, 357838, Note_on_c, 0, 56, 55
1, 357842, Note_on_c, 0, 68, 64
1, 357844, Note_on_c, 0, 63, 60
1, 357846, Note_on_c, 0, 37, 57
1, 357880, Note_off_c, 0, 37, 61
1, 357949, Note_on_c, 0, 36, 59
1, 357993, Note_off_c, 0, 36, 63
1, 358073, Note_on_c, 0, 34, 64
1, 358103, Note_off_c, 0, 34, 64
1, 358189, Note_on_c, 0, 36, 57
1, 358224, Note_off_c, 0, 36, 63
1, 358250, Note_off_c, 0, 63, 55
1, 358259, Note_off_c, 0, 56, 62
1, 358263, Note_off_c, 0, 68, 60
1, 358301, Note_on_c, 0, 34, 61
1, 358333, Note_off_c, 0, 34, 62
1, 358373, Note_on_c, 0, 63, 65
1, 358381, Note_on_c, 0, 56, 65
1, 358384, Note_on_c, 0, 68, 58
1, 358409, Note_on_c, 0, 32, 71
1, 358440, Note_off_c, 0, 32, 62
1, 358445, Note_off_c, 0, 56, 46
1, 358447, Note_off_c, 0, 68, 52
1, 358454, Note_off_c, 0, 63, 54
1, 358546, Note_on_c, 0, 37, 70
1, 358554, Note_on_c, 0, 61, 68
1, 358555, Note_on_c, 0, 68, 61
1, 358557, Note_on_c, 0, 65, 60
1, 358560, Note_on_c, 0, 56, 67
1, 358574, Note_on_c, 0, 44, 22
1, 358586, Note_off_c, 0, 37, 64
1, 358612, Note_off_c, 0, 56, 0
1, 358620, Note_off_c, 0, 44, 29
1, 358650, Poly_aftertouch_c, 0, 56, 127
1, 358655, Note_on_c, 0, 36, 73
1, 358703, Note_off_c, 0, 36, 60
1, 358779, Note_on_c, 0, 34, 74
1, 358807, Note_off_c, 0, 34, 64
1, 358840, Note_off_c, 0, 61, 63
1, 358840, Poly_aftertouch_c, 0, 56, 0
1, 358853, Note_off_c, 0, 65, 61
1, 358855, Note_off_c, 0, 68, 61
1, 358902, Note_on_c, 0, 36, 76
1, 358908, Note_on_c, 0, 68, 73
1, 358917, Note_on_c, 0, 63, 80
1, 358920, Note_on_c, 0, 56, 74
1, 358938, Note_off_c, 0, 36, 65
1, 359024, Note_on_c, 0, 34, 77
1, 359075, Note_off_c, 0, 34, 60
1, 359125, Note_off_c, 0, 56, 49
1, 359136, Note_off_c, 0, 63, 59
1, 359149, Note_on_c, 0, 32, 65
1, 359168, Note_off_c, 0, 68, 57
1, 359178, Note_off_c, 0, 32, 56
1, 359252, Note_on_c, 0, 56, 73
1, 359254, Note_on_c, 0, 65, 65
1, 359257, Note_on_c, 0, 68, 64
1, 359269, Note_on_c, 0, 61, 58
1, 359271, Note_on_c, 0, 37, 75
1, 359281, Note_on_c, 0, 44, 50
1, 359305, Note_off_c, 0, 37, 56
1, 359308, Note_off_c, 0, 44, 55
1, 359382, Note_on_c, 0, 36, 68
1, 359418, Note_off_c, 0, 36, 63
1, 359488, Note_on_c, 0, 34, 73
1, 359516, Note_off_c, 0, 34, 64
1, 359529, Note_off_c, 0, 61, 59
1, 359531, Note_off_c, 0, 56, 45
1, 359537, Note_off_c, 0, 65, 61
1, 359542, Note_off_c, 0, 68, 59
1, 359608, Note_on_c, 0, 68, 61
1, 359609, Note_on_c, 0, 36, 73
1, 359618, Note_on_c, 0, 63, 67
1, 359618, Note_on_c, 0, 56, 65
1, 359645, Note_off_c, 0, 36, 65
1, 359717, Note_on_c, 0, 34, 80
1, 359758, Note_off_c, 0, 34, 62
1, 359766, Note_off_c, 0, 56, 62
1, 359786, Note_off_c, 0, 63, 62
1, 359794, Note_off_c, 0, 68, 63
1, 359830, Note_on_c, 0, 32, 79
1, 359866, Note_off_c, 0, 32, 63
1, 359869, Control_c, 0, 64, 32
1, 359884, Control_c, 0, 64, 0
1, 359946, Note_on_c, 0, 33, 87
1, 359961, Note_on_c, 0, 73, 67
1, 359966, Note_on_c, 0, 40, 55
1, 359970, Note_on_c, 0, 64, 61
1, 359971, Note_on_c, 0, 61, 64
1, 359974, Note_on_c, 0, 69, 58
1, 359982, Note_off_c, 0, 33, 61
1, 359994, Note_off_c, 0, 40, 54
1, 360086, Note_on_c, 0, 32, 75
1, 360114, Note_off_c, 0, 32, 63
1, 360199, Note_on_c, 0, 30, 70
1, 360235, Note_off_c, 0, 30, 63
1, 360324, Note_on_c, 0, 32, 77
1, 360351, Note_off_c, 0, 32, 62
1, 360438, Note_on_c, 0, 30, 62
1, 360474, Note_off_c, 0, 30, 59
1, 360559, Note_on_c, 0, 28, 55
1, 360589, Note_off_c, 0, 28, 58
1, 360673, Note_on_c, 0, 33, 64
1, 360704, Note_off_c, 0, 33, 63
1, 360819, Note_on_c, 0, 32, 45
1, 360858, Note_off_c, 0, 32, 44
1, 360915, Note_on_c, 0, 30, 61
1, 360949, Note_off_c, 0, 30, 63
1, 361044, Note_on_c, 0, 32, 64
1, 361076, Note_off_c, 0, 32, 60
1, 361163, Note_on_c, 0, 30, 46
1, 361200, Note_off_c, 0, 30, 59
1, 361260, Note_on_c, 0, 28, 63
1, 361293, Note_off_c, 0, 28, 64
1, 361395, Note_on_c, 0, 33, 56
1, 361424, Note_off_c, 0, 33, 61
1, 361530, Note_on_c, 0, 32, 37
1, 361565, Note_off_c, 0, 61, 50
1, 361573, Note_off_c, 0, 32, 48
1, 361577, Note_off_c, 0, 73, 56
1, 361592, Note_off_c, 0, 64, 61
1, 361603, Note_off_c, 0, 69, 37
1, 361625, Note_on_c, 0, 30, 48
1, 361661, Note_off_c, 0, 30, 59
1, 361748, Note_on_c, 0, 32, 51
1, 361780, Note_off_c, 0, 32, 57
1, 361863, Note_on_c, 0, 30, 35
1, 361907, Note_off_c, 0, 30, 49
1, 361969, Note_on_c, 0, 28, 52
1, 362001, Note_off_c, 0, 28, 61
1, 362089, Note_on_c, 0, 33, 60
1, 362121, Note_off_c, 0, 33, 63
1, 362211, Note_on_c, 0, 32, 59
1, 362244, Note_off_c, 0, 32, 59
1, 362334, Note_on_c, 0, 30, 55
1, 362366, Note_off_c, 0, 30, 61
1, 362463, Note_on_c, 0, 32, 51
1, 362497, Note_off_c, 0, 32, 49
1, 362562, Note_on_c, 0, 30, 46
1, 362604, Note_off_c, 0, 30, 57
1, 362652, Note_on_c, 0, 28, 68
1, 362683, Note_off_c, 0, 28, 64
1, 362689, Note_on_c, 0, 49, 63
1, 362693, Note_on_c, 0, 52, 58
1, 362693, Note_on_c, 0, 57, 51
1, 362719, Note_off_c, 0, 49, 65
1, 362722, Note_off_c, 0, 52, 64
1, 362725, Note_off_c, 0, 57, 65
1, 362784, Note_on_c, 0, 52, 67
1, 362787, Note_on_c, 0, 49, 62
1, 362792, Note_on_c, 0, 33, 71
1, 362793, Note_on_c, 0, 57, 65
1, 362815, Note_on_c, 0, 40, 34
1, 362820, Note_off_c, 0, 33, 63
1, 362855, Note_off_c, 0, 40, 30
1, 362927, Note_on_c, 0, 32, 42
1, 362968, Note_off_c, 0, 32, 49
1, 363043, Note_on_c, 0, 30, 38
1, 363083, Note_off_c, 0, 30, 43
1, 363151, Note_on_c, 0, 32, 62
1, 363183, Note_off_c, 0, 32, 61
1, 363258, Note_on_c, 0, 30, 53
1, 363295, Note_off_c, 0, 30, 62
1, 363335, Note_off_c, 0, 49, 53
1, 363365, Note_on_c, 0, 28, 69
1, 363372, Note_off_c, 0, 57, 54
1, 363386, Note_off_c, 0, 52, 59
1, 363395, Note_off_c, 0, 28, 64
1, 363500, Note_on_c, 0, 57, 60
1, 363508, Note_on_c, 0, 54, 49
1, 363509, Note_on_c, 0, 33, 66
1, 363514, Note_on_c, 0, 50, 54
1, 363541, Note_off_c, 0, 33, 63
1, 363637, Note_on_c, 0, 32, 39
1, 363680, Note_off_c, 0, 32, 50
1, 363732, Note_on_c, 0, 30, 57
1, 363774, Note_off_c, 0, 30, 63
1, 363883, Note_on_c, 0, 32, 54
1, 363916, Note_off_c, 0, 32, 56
1, 363977, Note_on_c, 0, 30, 56
1, 364012, Note_off_c, 0, 30, 62
1, 364051, Control_c, 0, 64, 30
1, 364065, Control_c, 0, 64, 33
1, 364079, Note_off_c, 0, 50, 62
1, 364080, Control_c, 0, 64, 35
1, 364084, Note_on_c, 0, 28, 66
1, 364090, Note_off_c, 0, 57, 55
1, 364091, Note_off_c, 0, 54, 60
1, 364095, Control_c, 0, 64, 36
1, 364110, Control_c, 0, 64, 36
1, 364116, Note_off_c, 0, 28, 64
1, 364124, Control_c, 0, 64, 37
1, 364139, Control_c, 0, 64, 38
1, 364169, Control_c, 0, 64, 35
1, 364184, Control_c, 0, 64, 0
1, 364217, Note_on_c, 0, 33, 67
1, 364217, Note_on_c, 0, 52, 64
1, 364217, Note_on_c, 0, 57, 55
1, 364226, Note_on_c, 0, 49, 59
1, 364240, Note_on_c, 0, 40, 33
1, 364250, Note_off_c, 0, 33, 63
1, 364278, Note_off_c, 0, 40, 47
1, 364332, Note_on_c, 0, 32, 60
1, 364361, Note_off_c, 0, 32, 57
1, 364444, Note_on_c, 0, 30, 45
1, 364477, Note_off_c, 0, 30, 54
1, 364569, Note_on_c, 0, 32, 68
1, 364601, Note_off_c, 0, 32, 61
1, 364671, Note_on_c, 0, 30, 61
1, 364705, Note_off_c, 0, 30, 63
1, 364784, Note_on_c, 0, 28, 65
1, 364816, Note_off_c, 0, 28, 64
1, 364906, Note_on_c, 0, 33, 75
1, 364908, Note_off_c, 0, 49, 49
1, 364912, Note_off_c, 0, 52, 61
1, 364917, Note_on_c, 0, 40, 54
1, 364932, Note_off_c, 0, 33, 64
1, 364937, Note_off_c, 0, 57, 63
1, 364945, Note_off_c, 0, 40, 56
1, 365015, Note_on_c, 0, 32, 76
1, 365044, Note_off_c, 0, 32, 63
1, 365130, Note_on_c, 0, 30, 58
1, 365161, Note_off_c, 0, 30, 59
1, 365254, Note_on_c, 0, 32, 79
1, 365258, Note_on_c, 0, 52, 74
1, 365262, Note_on_c, 0, 49, 67
1, 365283, Note_off_c, 0, 32, 62
1, 365284, Note_off_c, 0, 52, 65
1, 365293, Note_off_c, 0, 49, 65
1, 365361, Note_on_c, 0, 30, 65
1, 365392, Note_off_c, 0, 30, 63
1, 365467, Note_on_c, 0, 28, 73
1, 365503, Note_off_c, 0, 28, 66
1, 365547, Note_on_c, 0, 57, 76
1, 365556, Note_on_c, 0, 52, 69
1, 365569, Note_on_c, 0, 61, 46
1, 365571, Note_off_c, 0, 57, 68
1, 365586, Note_off_c, 0, 52, 64
1, 365602, Note_off_c, 0, 61, 0
1, 365604, Note_on_c, 0, 33, 79
1, 365615, Note_on_c, 0, 57, 85
1, 365615, Note_on_c, 0, 61, 76
1, 365628, Note_on_c, 0, 52, 84
1, 365637, Note_off_c, 0, 33, 67
1, 365641, Note_on_c, 0, 40, 30
1, 365684, Note_off_c, 0, 40, 30
1, 365751, Note_on_c, 0, 32, 53
1, 365783, Note_off_c, 0, 32, 53
1, 365850, Note_on_c, 0, 30, 64
1, 365880, Note_off_c, 0, 30, 64
1, 365974, Note_on_c, 0, 32, 59
1, 366013, Note_off_c, 0, 32, 61
1, 366079, Note_on_c, 0, 30, 50
1, 366111, Note_off_c, 0, 30, 59
1, 366149, Control_c, 0, 64, 32
1, 366164, Control_c, 0, 64, 41
1, 366179, Control_c, 0, 64, 43
1, 366182, Note_on_c, 0, 28, 65
1, 366215, Note_off_c, 0, 28, 63
1, 366224, Control_c, 0, 64, 44
1, 366238, Control_c, 0, 64, 47
1, 366246, Note_off_c, 0, 52, 25
1, 366246, Note_off_c, 0, 57, 61
1, 366253, Control_c, 0, 64, 49
1, 366264, Note_off_c, 0, 61, 63
1, 366268, Control_c, 0, 64, 48
1, 366283, Control_c, 0, 64, 41
1, 366298, Control_c, 0, 64, 0
1, 366323, Note_on_c, 0, 33, 77
1, 366323, Note_on_c, 0, 64, 77
1, 366336, Note_on_c, 0, 52, 69
1, 366340, Note_on_c, 0, 59, 60
1, 366347, Note_on_c, 0, 40, 44
1, 366355, Note_off_c, 0, 33, 66
1, 366380, Note_off_c, 0, 40, 49
1, 366449, Note_on_c, 0, 32, 70
1, 366483, Note_off_c, 0, 32, 60
1, 366566, Note_on_c, 0, 30, 53
1, 366599, Note_off_c, 0, 30, 63
1, 366685, Note_on_c, 0, 32, 68
1, 366718, Note_off_c, 0, 32, 61
1, 366799, Note_on_c, 0, 30, 56
1, 366835, Note_off_c, 0, 30, 61
1, 366868, Control_c, 0, 64, 30
1, 366883, Control_c, 0, 64, 32
1, 366906, Note_on_c, 0, 28, 70
1, 366936, Note_off_c, 0, 28, 64
1, 366942, Control_c, 0, 64, 34
1, 366957, Control_c, 0, 64, 36
1, 366963, Note_off_c, 0, 52, 57
1, 366963, Note_off_c, 0, 64, 59
1, 366981, Note_off_c, 0, 59, 64
1, 366987, Control_c, 0, 64, 33
1, 367002, Control_c, 0, 64, 0
1, 367042, Note_on_c, 0, 33, 71
1, 367043, Note_on_c, 0, 61, 73
1, 367055, Note_on_c, 0, 57, 59
1, 367055, Note_on_c, 0, 64, 68
1, 367061, Note_on_c, 0, 40, 43
1, 367067, Note_on_c, 0, 52, 58
1, 367073, Note_off_c, 0, 33, 62
1, 367095, Note_off_c, 0, 40, 48
1, 367160, Note_on_c, 0, 32, 72
1, 367192, Note_off_c, 0, 32, 60
1, 367278, Note_on_c, 0, 30, 55
1, 367309, Note_off_c, 0, 30, 58
1, 367405, Note_on_c, 0, 32, 72
1, 367437, Note_off_c, 0, 32, 61
1, 367516, Note_on_c, 0, 30, 68
1, 367547, Note_off_c, 0, 30, 63
1, 367634, Note_on_c, 0, 28, 65
1, 367666, Note_off_c, 0, 28, 64
1, 367752, Note_on_c, 0, 33, 80
1, 367765, Note_on_c, 0, 40, 61
1, 367783, Note_off_c, 0, 33, 67
1, 367792, Note_off_c, 0, 40, 61
1, 367872, Note_on_c, 0, 32, 66
1, 367901, Note_off_c, 0, 32, 60
1, 367976, Note_on_c, 0, 30, 63
1, 368007, Note_off_c, 0, 30, 64
1, 368049, Note_off_c, 0, 52, 53
1, 368082, Note_on_c, 0, 32, 67
1, 368087, Note_off_c, 0, 57, 63
1, 368115, Note_off_c, 0, 32, 63
1, 368128, Note_off_c, 0, 61, 62
1, 368143, Note_off_c, 0, 64, 63
1, 368173, Note_on_c, 0, 30, 69
1, 368212, Note_off_c, 0, 30, 64
1, 368225, Control_c, 0, 67, 125
1, 368240, Control_c, 0, 67, 116
1, 368263, Control_c, 0, 67, 104
1, 368277, Control_c, 0, 67, 87
1, 368280, Note_on_c, 0, 64, 74
1, 368286, Note_on_c, 0, 28, 73
1, 368290, Note_on_c, 0, 57, 67
1, 368292, Control_c, 0, 67, 68
1, 368293, Note_on_c, 0, 61, 60
1, 368305, Note_off_c, 0, 64, 70
1, 368307, Control_c, 0, 67, 45
1, 368314, Note_off_c, 0, 61, 64
1, 368320, Note_off_c, 0, 28, 66
1, 368320, Note_off_c, 0, 57, 66
1, 368322, Control_c, 0, 67, 0
1, 368359, Note_on_c, 0, 64, 92
1, 368364, Note_on_c, 0, 57, 87
1, 368365, Note_on_c, 0, 61, 88
1, 368386, Note_off_c, 0, 61, 71
1, 368387, Note_off_c, 0, 57, 72
1, 368392, Note_off_c, 0, 64, 66
1, 368429, Note_on_c, 0, 33, 83
1, 368438, Note_on_c, 0, 64, 90
1, 368441, Note_on_c, 0, 57, 91
1, 368441, Note_on_c, 0, 61, 95
1, 368465, Note_off_c, 0, 33, 64
1, 368474, Note_on_c, 0, 40, 14
1, 368523, Note_off_c, 0, 40, 29
1, 368576, Note_on_c, 0, 32, 62
1, 368605, Note_off_c, 0, 32, 56
1, 368676, Note_on_c, 0, 30, 68
1, 368709, Note_off_c, 0, 30, 63
1, 368719, Note_off_c, 0, 61, 59
1, 368721, Note_off_c, 0, 57, 53
1, 368748, Note_off_c, 0, 64, 63
1, 368816, Note_on_c, 0, 69, 84
1, 368817, Note_on_c, 0, 64, 80
1, 368817, Note_on_c, 0, 32, 66
1, 368817, Note_on_c, 0, 61, 83
1, 368847, Note_off_c, 0, 32, 62
1, 368870, Control_c, 0, 64, 30
1, 368885, Control_c, 0, 64, 41
1, 368900, Control_c, 0, 64, 53
1, 368911, Note_on_c, 0, 30, 66
1, 368914, Control_c, 0, 64, 60
1, 368929, Control_c, 0, 64, 63
1, 368944, Control_c, 0, 64, 64
1, 368959, Note_off_c, 0, 30, 61
1, 368959, Control_c, 0, 64, 66
1, 368974, Control_c, 0, 64, 67
1, 368996, Control_c, 0, 64, 70
1, 369011, Control_c, 0, 64, 72
1, 369021, Note_on_c, 0, 28, 73
1, 369026, Control_c, 0, 64, 74
1, 369041, Control_c, 0, 64, 76
1, 369049, Note_off_c, 0, 28, 64
1, 369056, Control_c, 0, 64, 78
1, 369067, Note_off_c, 0, 61, 48
1, 369069, Note_off_c, 0, 64, 58
1, 369071, Control_c, 0, 64, 79
1, 369088, Note_off_c, 0, 69, 57
1, 369100, Control_c, 0, 64, 79
1, 369130, Control_c, 0, 64, 78
1, 369145, Control_c, 0, 64, 73
1, 369160, Control_c, 0, 64, 63
1, 369167, Note_on_c, 0, 64, 88
1, 369169, Note_on_c, 0, 33, 78
1, 369169, Note_on_c, 0, 61, 86
1, 369175, Control_c, 0, 64, 45
1, 369181, Note_on_c, 0, 57, 77
1, 369190, Control_c, 0, 64, 0
1, 369190, Note_on_c, 0, 40, 45
1, 369201, Note_off_c, 0, 33, 65
1, 369219, Control_c, 0, 64, 34
1, 369222, Note_off_c, 0, 40, 48
1, 369234, Control_c, 0, 64, 46
1, 369249, Control_c, 0, 64, 59
1, 369264, Control_c, 0, 64, 65
1, 369279, Control_c, 0, 64, 68
1, 369292, Note_off_c, 0, 57, 53
1, 369293, Note_on_c, 0, 32, 78
1, 369294, Control_c, 0, 64, 69
1, 369300, Note_off_c, 0, 61, 62
1, 369308, Control_c, 0, 64, 72
1, 369318, Note_off_c, 0, 32, 64
1, 369323, Note_off_c, 0, 64, 66
1, 369323, Control_c, 0, 64, 76
1, 369338, Control_c, 0, 64, 80
1, 369352, Control_c, 0, 64, 84
1, 369367, Control_c, 0, 64, 89
1, 369382, Control_c, 0, 64, 94
1, 369397, Control_c, 0, 64, 99
1, 369402, Note_on_c, 0, 30, 72
1, 369412, Control_c, 0, 64, 101
1, 369426, Control_c, 0, 64, 104
1, 369434, Note_off_c, 0, 30, 64
1, 369441, Control_c, 0, 64, 106
1, 369470, Control_c, 0, 64, 94
1, 369485, Control_c, 0, 64, 72
1, 369500, Control_c, 0, 64, 45
1, 369515, Note_on_c, 0, 71, 98
1, 369515, Control_c, 0, 64, 0
1, 369518, Note_on_c, 0, 64, 93
1, 369520, Note_on_c, 0, 59, 87
1, 369527, Note_on_c, 0, 32, 82
1, 369559, Control_c, 0, 64, 48
1, 369562, Note_off_c, 0, 32, 64
1, 369574, Control_c, 0, 64, 67
1, 369577, Note_off_c, 0, 59, 57
1, 369589, Control_c, 0, 64, 82
1, 369604, Control_c, 0, 64, 117
1, 369610, Note_off_c, 0, 64, 66
1, 369619, Control_c, 0, 64, 127
1, 369622, Note_off_c, 0, 71, 63
1, 369624, Note_on_c, 0, 30, 79
1, 369667, Note_off_c, 0, 30, 63
1, 369735, Note_on_c, 0, 28, 73
1, 369780, Note_off_c, 0, 28, 63
1, 369879, Control_c, 0, 64, 97
1, 369887, Note_on_c, 0, 33, 76
1, 369889, Note_on_c, 0, 73, 93
1, 369893, Note_on_c, 0, 64, 87
1, 369894, Control_c, 0, 64, 73
1, 369901, Note_on_c, 0, 61, 78
1, 369902, Note_on_c, 0, 40, 56
1, 369908, Control_c, 0, 64, 52
1, 369918, Note_off_c, 0, 33, 66
1, 369923, Control_c, 0, 64, 34
1, 369932, Note_off_c, 0, 40, 54
1, 369938, Control_c, 0, 64, 0
1, 370010, Note_on_c, 0, 32, 81
1, 370042, Note_off_c, 0, 32, 65
1, 370099, Control_c, 0, 67, 44
1, 370114, Control_c, 0, 67, 65
1, 370123, Note_on_c, 0, 30, 71
1, 370129, Control_c, 0, 67, 97
1, 370144, Control_c, 0, 67, 127
1, 370151, Note_off_c, 0, 30, 64
1, 370235, Note_on_c, 0, 32, 78
1, 370267, Note_off_c, 0, 32, 64
1, 370340, Note_on_c, 0, 30, 67
1, 370372, Note_off_c, 0, 30, 62
1, 370388, Note_off_c, 0, 64, 59
1, 370403, Note_off_c, 0, 61, 51
1, 370440, Control_c, 0, 64, 30
1, 370444, Note_on_c, 0, 28, 77
1, 370479, Note_off_c, 0, 28, 65
1, 370567, Control_c, 0, 64, 0
1, 370596, Note_on_c, 0, 33, 69
1, 370609, Note_on_c, 0, 64, 66
1, 370611, Note_on_c, 0, 69, 74
1, 370622, Note_on_c, 0, 61, 58
1, 370626, Control_c, 0, 64, 38
1, 370629, Note_on_c, 0, 40, 18
1, 370630, Note_off_c, 0, 33, 61
1, 370641, Control_c, 0, 64, 52
1, 370656, Control_c, 0, 64, 63
1, 370670, Note_off_c, 0, 61, 55
1, 370671, Control_c, 0, 64, 69
1, 370674, Note_off_c, 0, 40, 28
1, 370686, Control_c, 0, 64, 75
1, 370699, Note_off_c, 0, 64, 66
1, 370699, Note_off_c, 0, 73, 57
1, 370701, Control_c, 0, 64, 79
1, 370715, Control_c, 0, 64, 84
1, 370716, Note_off_c, 0, 69, 63
1, 370720, Note_on_c, 0, 32, 75
1, 370730, Control_c, 0, 64, 90
1, 370745, Control_c, 0, 64, 96
1, 370760, Control_c, 0, 64, 103
1, 370761, Note_off_c, 0, 32, 60
1, 370775, Control_c, 0, 64, 114
1, 370789, Control_c, 0, 64, 127
1, 370840, Note_on_c, 0, 30, 72
1, 370870, Note_off_c, 0, 30, 64
1, 370908, Control_c, 0, 64, 123
1, 370922, Control_c, 0, 64, 84
1, 370937, Control_c, 0, 64, 66
1, 370952, Control_c, 0, 64, 59
1, 370959, Note_on_c, 0, 61, 77
1, 370963, Note_on_c, 0, 32, 77
1, 370963, Note_on_c, 0, 57, 74
1, 370967, Note_on_c, 0, 64, 74
1, 370967, Control_c, 0, 64, 61
1, 370982, Control_c, 0, 64, 67
1, 370982, Control_c, 0, 67, 90
1, 370987, Note_off_c, 0, 57, 66
1, 370988, Note_off_c, 0, 61, 67
1, 370996, Note_off_c, 0, 64, 67
1, 370996, Control_c, 0, 64, 79
1, 370996, Control_c, 0, 67, 41
1, 370997, Note_off_c, 0, 32, 61
1, 371011, Control_c, 0, 64, 123
1, 371011, Control_c, 0, 67, 0
1, 371026, Control_c, 0, 64, 127
1, 371059, Note_on_c, 0, 30, 77
1, 371069, Poly_aftertouch_c, 0, 63, 0
1, 371094, Note_on_c, 0, 69, 80
1, 371097, Note_on_c, 0, 64, 70
1, 371097, Note_off_c, 0, 30, 64
1, 371114, Note_off_c, 0, 69, 70
1, 371119, Note_off_c, 0, 64, 71
1, 371169, Note_on_c, 0, 28, 78
1, 371196, Note_on_c, 0, 73, 86
1, 371199, Note_on_c, 0, 69, 75
1, 371202, Note_on_c, 0, 64, 78
1, 371208, Note_off_c, 0, 28, 64
1, 371224, Note_off_c, 0, 69, 66
1, 371229, Note_off_c, 0, 64, 68
1, 371246, Note_off_c, 0, 73, 64
1, 371314, Note_on_c, 0, 73, 88
1, 371317, Note_on_c, 0, 76, 82
1, 371318, Note_on_c, 0, 33, 77
1, 371323, Note_on_c, 0, 64, 75
1, 371328, Note_on_c, 0, 69, 59
1, 371330, Control_c, 0, 64, 88
1, 371345, Control_c, 0, 64, 65
1, 371348, Note_on_c, 0, 40, 34
1, 371351, Note_off_c, 0, 33, 64
1, 371360, Control_c, 0, 64, 45
1, 371375, Control_c, 0, 64, 0
1, 371387, Note_off_c, 0, 40, 44
1, 371434, Note_on_c, 0, 32, 78
1, 371465, Note_off_c, 0, 32, 61
1, 371545, Note_on_c, 0, 30, 67
1, 371581, Note_off_c, 0, 30, 63
1, 371657, Control_c, 0, 64, 32
1, 371663, Note_on_c, 0, 32, 73
1, 371691, Note_off_c, 0, 32, 62
1, 371701, Control_c, 0, 64, 35
1, 371716, Control_c, 0, 64, 46
1, 371731, Control_c, 0, 64, 60
1, 371745, Control_c, 0, 64, 68
1, 371760, Control_c, 0, 64, 71
1, 371769, Note_on_c, 0, 30, 60
1, 371775, Control_c, 0, 64, 74
1, 371790, Control_c, 0, 64, 77
1, 371803, Note_off_c, 0, 30, 64
1, 371805, Control_c, 0, 64, 81
1, 371805, Control_c, 0, 67, 43
1, 371819, Control_c, 0, 64, 86
1, 371819, Control_c, 0, 67, 45
1, 371834, Control_c, 0, 64, 91
1, 371834, Control_c, 0, 67, 44
1, 371849, Control_c, 0, 64, 94
1, 371863, Control_c, 0, 64, 95
1, 371863, Control_c, 0, 67, 45
1, 371866, Note_on_c, 0, 28, 75
1, 371878, Control_c, 0, 67, 48
1, 371893, Control_c, 0, 64, 96
1, 371896, Note_off_c, 0, 28, 64
1, 371896, Note_off_c, 0, 76, 35
1, 371908, Control_c, 0, 67, 47
1, 371923, Note_off_c, 0, 69, 56
1, 371926, Note_off_c, 0, 64, 36
1, 371937, Note_off_c, 0, 73, 59
1, 371938, Control_c, 0, 67, 48
1, 371953, Control_c, 0, 64, 95
1, 371953, Control_c, 0, 67, 49
1, 371968, Control_c, 0, 64, 89
1, 371968, Control_c, 0, 67, 51
1, 371983, Control_c, 0, 64, 78
1, 371983, Control_c, 0, 67, 62
1, 372005, Control_c, 0, 64, 66
1, 372005, Control_c, 0, 67, 71
1, 372010, Note_on_c, 0, 76, 84
1, 372013, Note_on_c, 0, 33, 73
1, 372019, Control_c, 0, 64, 52
1, 372019, Control_c, 0, 67, 74
1, 372020, Note_on_c, 0, 71, 74
1, 372021, Note_on_c, 0, 64, 75
1, 372034, Control_c, 0, 64, 41
1, 372034, Control_c, 0, 67, 77
1, 372040, Note_on_c, 0, 40, 33
1, 372045, Note_off_c, 0, 33, 62
1, 372049, Control_c, 0, 64, 37
1, 372049, Control_c, 0, 67, 84
1, 372064, Control_c, 0, 64, 33
1, 372064, Control_c, 0, 67, 92
1, 372078, Note_off_c, 0, 40, 50
1, 372078, Control_c, 0, 64, 0
1, 372078, Control_c, 0, 67, 98
1, 372108, Control_c, 0, 67, 101
1, 372120, Note_on_c, 0, 32, 80
1, 372123, Control_c, 0, 67, 104
1, 372138, Control_c, 0, 64, 31
1, 372138, Control_c, 0, 67, 109
1, 372153, Control_c, 0, 67, 115
1, 372162, Note_off_c, 0, 32, 59
1, 372168, Control_c, 0, 67, 119
1, 372182, Control_c, 0, 67, 125
1, 372197, Control_c, 0, 64, 32
1, 372197, Control_c, 0, 67, 127
1, 372212, Control_c, 0, 64, 39
1, 372228, Control_c, 0, 64, 43
1, 372240, Note_on_c, 0, 30, 61
1, 372272, Control_c, 0, 64, 46
1, 372275, Note_off_c, 0, 30, 63
1, 372287, Control_c, 0, 64, 54
1, 372302, Control_c, 0, 64, 63
1, 372317, Control_c, 0, 64, 68
1, 372332, Control_c, 0, 64, 69
1, 372348, Note_on_c, 0, 32, 67
1, 372377, Note_off_c, 0, 32, 63
1, 372404, Note_off_c, 0, 64, 59
1, 372406, Control_c, 0, 64, 68
1, 372421, Control_c, 0, 64, 67
1, 372427, Note_off_c, 0, 76, 60
1, 372430, Note_off_c, 0, 71, 58
1, 372430, Note_on_c, 0, 30, 67
1, 372436, Control_c, 0, 64, 66
1, 372451, Control_c, 0, 64, 66
1, 372471, Note_off_c, 0, 30, 61
1, 372531, Note_on_c, 0, 76, 82
1, 372533, Note_on_c, 0, 71, 85
1, 372540, Control_c, 0, 64, 66
1, 372546, Note_on_c, 0, 64, 71
1, 372547, Note_on_c, 0, 28, 79
1, 372555, Control_c, 0, 64, 67
1, 372569, Control_c, 0, 64, 68
1, 372574, Note_off_c, 0, 64, 63
1, 372584, Control_c, 0, 64, 69
1, 372589, Note_off_c, 0, 28, 65
1, 372597, Note_off_c, 0, 71, 60
1, 372626, Note_off_c, 0, 76, 63
1, 372643, Control_c, 0, 64, 68
1, 372658, Control_c, 0, 64, 63
1, 372673, Control_c, 0, 64, 51
1, 372686, Note_on_c, 0, 33, 78
1, 372687, Control_c, 0, 64, 37
1, 372695, Note_on_c, 0, 76, 81
1, 372698, Note_on_c, 0, 73, 82
1, 372701, Note_on_c, 0, 69, 75
1, 372702, Control_c, 0, 64, 0
1, 372705, Note_on_c, 0, 64, 77
1, 372707, Note_on_c, 0, 40, 48
1, 372720, Note_off_c, 0, 33, 67
1, 372747, Note_off_c, 0, 40, 50
1, 372790, Note_off_c, 0, 64, 0
1, 372804, Note_on_c, 0, 32, 78
1, 372827, Poly_aftertouch_c, 0, 64, 127
1, 372837, Note_off_c, 0, 32, 64
1, 372873, Control_c, 0, 64, 31
1, 372919, Note_on_c, 0, 30, 69
1, 372947, Control_c, 0, 64, 35
1, 372953, Note_off_c, 0, 30, 63
1, 372962, Control_c, 0, 64, 38
1, 372976, Control_c, 0, 64, 38
1, 373022, Control_c, 0, 64, 41
1, 373028, Note_on_c, 0, 32, 74
1, 373037, Control_c, 0, 64, 45
1, 373052, Control_c, 0, 64, 46
1, 373062, Note_off_c, 0, 32, 64
1, 373095, Control_c, 0, 64, 46
1, 373110, Control_c, 0, 64, 49
1, 373124, Control_c, 0, 64, 54
1, 373128, Note_on_c, 0, 30, 64
1, 373139, Control_c, 0, 64, 56
1, 373159, Note_off_c, 0, 30, 62
1, 373169, Control_c, 0, 64, 57
1, 373184, Control_c, 0, 64, 60
1, 373199, Control_c, 0, 64, 63
1, 373214, Control_c, 0, 64, 65
1, 373235, Note_on_c, 0, 28, 69
1, 373268, Note_off_c, 0, 28, 65
1, 373282, Note_off_c, 0, 76, 61
1, 373287, Poly_aftertouch_c, 0, 64, 0
1, 373287, Note_off_c, 0, 69, 61
1, 373300, Note_off_c, 0, 73, 61
1, 373303, Control_c, 0, 64, 65
1, 373317, Control_c, 0, 64, 62
1, 373332, Control_c, 0, 64, 53
1, 373347, Control_c, 0, 64, 44
1, 373362, Control_c, 0, 64, 39
1, 373369, Note_on_c, 0, 33, 73
1, 373376, Note_on_c, 0, 71, 77
1, 373377, Note_on_c, 0, 76, 74
1, 373377, Control_c, 0, 64, 38
1, 373382, Note_on_c, 0, 64, 70
1, 373389, Note_on_c, 0, 40, 44
1, 373391, Control_c, 0, 64, 39
1, 373402, Note_off_c, 0, 33, 62
1, 373421, Control_c, 0, 64, 39
1, 373422, Note_off_c, 0, 40, 48
1, 373435, Control_c, 0, 64, 41
1, 373450, Control_c, 0, 64, 45
1, 373465, Control_c, 0, 64, 48
1, 373488, Note_on_c, 0, 32, 77
1, 373521, Note_off_c, 0, 32, 62
1, 373532, Control_c, 0, 64, 48
1, 373547, Control_c, 0, 64, 50
1, 373602, Note_on_c, 0, 30, 66
1, 373621, Control_c, 0, 64, 51
1, 373635, Control_c, 0, 64, 54
1, 373636, Note_off_c, 0, 30, 62
1, 373650, Control_c, 0, 64, 55
1, 373665, Control_c, 0, 64, 55
1, 373680, Control_c, 0, 64, 56
1, 373695, Control_c, 0, 64, 59
1, 373709, Note_on_c, 0, 32, 73
1, 373710, Control_c, 0, 64, 62
1, 373724, Control_c, 0, 64, 65
1, 373735, Note_off_c, 0, 32, 63
1, 373739, Control_c, 0, 64, 68
1, 373754, Control_c, 0, 64, 70
1, 373756, Note_off_c, 0, 64, 59
1, 373763, Note_off_c, 0, 76, 59
1, 373766, Note_off_c, 0, 71, 55
1, 373769, Control_c, 0, 64, 72
1, 373784, Control_c, 0, 64, 75
1, 373788, Note_on_c, 0, 30, 77
1, 373798, Control_c, 0, 64, 76
1, 373798, Control_c, 0, 67, 108
1, 373814, Control_c, 0, 64, 77
1, 373814, Control_c, 0, 67, 77
1, 373829, Control_c, 0, 64, 78
1, 373829, Control_c, 0, 67, 48
1, 373832, Note_off_c, 0, 30, 63
1, 373844, Control_c, 0, 64, 79
1, 373844, Control_c, 0, 67, 0
1, 373859, Control_c, 0, 64, 80
1, 373874, Control_c, 0, 64, 80
1, 373888, Control_c, 0, 64, 81
1, 373890, Note_on_c, 0, 71, 79
1, 373897, Note_on_c, 0, 76, 74
1, 373900, Note_on_c, 0, 28, 79
1, 373903, Control_c, 0, 64, 82
1, 373905, Note_on_c, 0, 64, 65
1, 373918, Control_c, 0, 64, 82
1, 373927, Note_off_c, 0, 64, 66
1, 373933, Control_c, 0, 64, 83
1, 373934, Note_off_c, 0, 28, 65
1, 373937, Note_off_c, 0, 71, 59
1, 373947, Note_off_c, 0, 76, 59
1, 373977, Control_c, 0, 64, 82
1, 373992, Control_c, 0, 64, 74
1, 374007, Control_c, 0, 64, 63
1, 374022, Control_c, 0, 64, 47
1, 374031, Note_on_c, 0, 33, 79
1, 374037, Note_on_c, 0, 64, 60
1, 374037, Note_on_c, 0, 76, 77
1, 374037, Control_c, 0, 64, 39
1, 374040, Note_on_c, 0, 73, 76
1, 374041, Note_on_c, 0, 69, 72
1, 374050, Note_on_c, 0, 40, 50
1, 374051, Control_c, 0, 64, 39
1, 374066, Note_off_c, 0, 33, 65
1, 374066, Control_c, 0, 64, 41
1, 374081, Control_c, 0, 64, 48
1, 374081, Note_off_c, 0, 40, 51
1, 374096, Control_c, 0, 64, 58
1, 374111, Control_c, 0, 64, 63
1, 374139, Note_on_c, 0, 32, 81
1, 374173, Note_off_c, 0, 32, 62
1, 374185, Control_c, 0, 64, 64
1, 374200, Control_c, 0, 64, 65
1, 374257, Note_on_c, 0, 30, 70
1, 374266, Control_c, 0, 64, 64
1, 374281, Control_c, 0, 64, 61
1, 374294, Note_off_c, 0, 30, 64
1, 374296, Control_c, 0, 64, 54
1, 374299, Note_off_c, 0, 76, 61
1, 374308, Note_off_c, 0, 69, 60
1, 374311, Control_c, 0, 64, 47
1, 374314, Note_off_c, 0, 64, 57
1, 374320, Note_off_c, 0, 73, 62
1, 374326, Control_c, 0, 64, 39
1, 374340, Control_c, 0, 64, 36
1, 374355, Control_c, 0, 64, 37
1, 374370, Control_c, 0, 64, 43
1, 374381, Note_on_c, 0, 32, 72
1, 374383, Note_on_c, 0, 76, 81
1, 374385, Control_c, 0, 64, 52
1, 374386, Note_on_c, 0, 71, 73
1, 374393, Note_on_c, 0, 64, 75
1, 374400, Control_c, 0, 64, 58
1, 374410, Note_off_c, 0, 32, 63
1, 374414, Control_c, 0, 64, 58
1, 374444, Control_c, 0, 64, 59
1, 374458, Control_c, 0, 64, 61
1, 374472, Note_on_c, 0, 30, 71
1, 374473, Control_c, 0, 64, 65
1, 374488, Control_c, 0, 64, 69
1, 374503, Control_c, 0, 64, 72
1, 374511, Note_off_c, 0, 30, 64
1, 374518, Control_c, 0, 64, 73
1, 374562, Control_c, 0, 64, 74
1, 374585, Note_on_c, 0, 28, 75
1, 374615, Note_off_c, 0, 28, 65
1, 374623, Control_c, 0, 64, 73
1, 374627, Note_off_c, 0, 64, 62
1, 374628, Note_off_c, 0, 71, 63
1, 374637, Control_c, 0, 64, 70
1, 374643, Note_off_c, 0, 76, 63
1, 374652, Control_c, 0, 64, 61
1, 374667, Control_c, 0, 64, 41
1, 374682, Control_c, 0, 64, 0
1, 374713, Note_on_c, 0, 33, 73
1, 374719, Note_on_c, 0, 73, 79
1, 374721, Note_on_c, 0, 76, 76
1, 374726, Control_c, 0, 64, 40
1, 374728, Note_on_c, 0, 69, 64
1, 374728, Note_on_c, 0, 64, 76
1, 374741, Control_c, 0, 64, 54
1, 374746, Note_off_c, 0, 33, 61
1, 374746, Note_on_c, 0, 40, 28
1, 374756, Control_c, 0, 64, 65
1, 374770, Control_c, 0, 64, 71
1, 374785, Control_c, 0, 64, 74
1, 374788, Note_off_c, 0, 40, 48
1, 374800, Control_c, 0, 64, 76
1, 374815, Control_c, 0, 64, 78
1, 374820, Note_on_c, 0, 32, 79
1, 374830, Control_c, 0, 64, 82
1, 374844, Control_c, 0, 64, 88
1, 374849, Note_off_c, 0, 32, 64
1, 374859, Control_c, 0, 64, 99
1, 374874, Control_c, 0, 64, 127
1, 374929, Note_on_c, 0, 30, 71
1, 374958, Note_off_c, 0, 76, 52
1, 374964, Note_off_c, 0, 30, 64
1, 374965, Note_off_c, 0, 69, 47
1, 374971, Note_off_c, 0, 73, 56
1, 374998, Note_off_c, 0, 64, 38
1, 375000, Control_c, 0, 64, 82
1, 375015, Control_c, 0, 64, 48
1, 375030, Control_c, 0, 64, 0
1, 375049, Note_on_c, 0, 32, 86
1, 375056, Note_on_c, 0, 71, 86
1, 375058, Note_on_c, 0, 76, 88
1, 375064, Note_on_c, 0, 64, 81
1, 375074, Control_c, 0, 64, 55
1, 375081, Note_off_c, 0, 32, 66
1, 375086, Note_off_c, 0, 64, 72
1, 375089, Control_c, 0, 64, 80
1, 375101, Note_off_c, 0, 71, 62
1, 375104, Control_c, 0, 64, 127
1, 375122, Note_off_c, 0, 76, 64
1, 375144, Note_on_c, 0, 30, 83
1, 375188, Note_off_c, 0, 30, 65
1, 375254, Note_on_c, 0, 28, 79
1, 375289, Note_off_c, 0, 28, 64
1, 375371, Control_c, 0, 64, 93
1, 375386, Note_on_c, 0, 29, 77
1, 375386, Control_c, 0, 64, 66
1, 375389, Note_on_c, 0, 41, 77
1, 375396, Note_on_c, 0, 81, 78
1, 375397, Note_on_c, 0, 72, 78
1, 375401, Note_on_c, 0, 77, 77
1, 375401, Control_c, 0, 64, 36
1, 375402, Note_on_c, 0, 69, 79
1, 375414, Note_off_c, 0, 29, 65
1, 375417, Note_off_c, 0, 41, 66
1, 375417, Control_c, 0, 64, 0
1, 375470, Note_off_c, 0, 69, 0
1, 375491, Note_on_c, 0, 69, 37
1, 375494, Note_on_c, 0, 28, 82
1, 375501, Note_on_c, 0, 40, 70
1, 375521, Note_off_c, 0, 28, 64
1, 375527, Note_off_c, 0, 40, 65
1, 375604, Note_on_c, 0, 26, 62
1, 375608, Note_on_c, 0, 38, 71
1, 375630, Note_off_c, 0, 26, 65
1, 375634, Note_off_c, 0, 38, 65
1, 375653, Control_c, 0, 67, 35
1, 375668, Control_c, 0, 67, 51
1, 375683, Control_c, 0, 67, 59
1, 375698, Control_c, 0, 67, 59
1, 375712, Control_c, 0, 67, 60
1, 375719, Note_on_c, 0, 40, 70
1, 375720, Note_on_c, 0, 28, 72
1, 375727, Control_c, 0, 67, 61
1, 375750, Control_c, 0, 67, 64
1, 375757, Note_off_c, 0, 28, 61
1, 375759, Note_off_c, 0, 40, 63
1, 375765, Control_c, 0, 67, 71
1, 375780, Control_c, 0, 67, 72
1, 375794, Control_c, 0, 67, 71
1, 375824, Control_c, 0, 67, 72
1, 375833, Note_on_c, 0, 26, 61
1, 375839, Note_on_c, 0, 38, 56
1, 375853, Control_c, 0, 67, 71
1, 375863, Note_off_c, 0, 26, 64
1, 375868, Control_c, 0, 67, 70
1, 375869, Note_off_c, 0, 38, 57
1, 375883, Control_c, 0, 67, 69
1, 375898, Control_c, 0, 67, 70
1, 375912, Control_c, 0, 67, 71
1, 375927, Control_c, 0, 67, 71
1, 375942, Note_on_c, 0, 36, 67
1, 375942, Control_c, 0, 67, 71
1, 375946, Note_on_c, 0, 24, 64
1, 375972, Note_off_c, 0, 36, 61
1, 375979, Note_off_c, 0, 24, 51
1, 375986, Control_c, 0, 67, 72
1, 376001, Control_c, 0, 67, 74
1, 376055, Note_on_c, 0, 29, 71
1, 376055, Note_on_c, 0, 41, 74
1, 376082, Note_off_c, 0, 41, 66
1, 376085, Note_off_c, 0, 29, 63
1, 376105, Control_c, 0, 67, 72
1, 376120, Control_c, 0, 67, 71
1, 376150, Control_c, 0, 67, 71
1, 376164, Note_on_c, 0, 28, 71
1, 376165, Control_c, 0, 67, 72
1, 376166, Note_on_c, 0, 40, 62
1, 376180, Control_c, 0, 67, 70
1, 376192, Note_off_c, 0, 40, 61
1, 376194, Control_c, 0, 67, 68
1, 376195, Note_off_c, 0, 28, 63
1, 376239, Control_c, 0, 67, 69
1, 376254, Control_c, 0, 67, 68
1, 376265, Note_on_c, 0, 26, 60
1, 376269, Control_c, 0, 67, 66
1, 376272, Note_on_c, 0, 38, 65
1, 376296, Note_off_c, 0, 26, 64
1, 376300, Note_off_c, 0, 38, 57
1, 376314, Control_c, 0, 67, 67
1, 376328, Control_c, 0, 67, 67
1, 376343, Control_c, 0, 67, 65
1, 376348, Note_off_c, 0, 81, 63
1, 376357, Note_off_c, 0, 77, 62
1, 376370, Note_off_c, 0, 72, 63
1, 376373, Note_on_c, 0, 40, 75
1, 376373, Control_c, 0, 67, 66
1, 376377, Note_on_c, 0, 28, 77
1, 376382, Note_off_c, 0, 69, 63
1, 376388, Control_c, 0, 67, 68
1, 376401, Note_off_c, 0, 40, 64
1, 376409, Note_off_c, 0, 28, 64
1, 376417, Control_c, 0, 67, 67
1, 376432, Control_c, 0, 67, 67
1, 376461, Control_c, 0, 67, 68
1, 376489, Note_on_c, 0, 26, 55
1, 376492, Note_on_c, 0, 38, 68
1, 376499, Control_c, 0, 67, 67
1, 376514, Control_c, 0, 67, 67
1, 376520, Note_off_c, 0, 26, 65
1, 376521, Note_off_c, 0, 38, 64
1, 376543, Control_c, 0, 67, 67
1, 376558, Control_c, 0, 67, 65
1, 376573, Control_c, 0, 67, 62
1, 376588, Control_c, 0, 67, 59
1, 376600, Note_on_c, 0, 24, 79
1, 376602, Note_on_c, 0, 36, 76
1, 376603, Control_c, 0, 67, 59
1, 376628, Note_off_c, 0, 24, 66
1, 376632, Control_c, 0, 67, 57
1, 376633, Note_off_c, 0, 36, 62
1, 376647, Control_c, 0, 67, 53
1, 376661, Control_c, 0, 67, 52
1, 376674, Note_on_c, 0, 57, 82
1, 376682, Note_on_c, 0, 53, 70
1, 376691, Control_c, 0, 67, 51
1, 376699, Note_off_c, 0, 57, 70
1, 376704, Note_off_c, 0, 53, 64
1, 376706, Control_c, 0, 67, 50
1, 376721, Control_c, 0, 67, 46
1, 376735, Control_c, 0, 67, 42
1, 376741, Note_on_c, 0, 29, 81
1, 376741, Note_on_c, 0, 41, 78
1, 376746, Note_on_c, 0, 57, 96
1, 376749, Note_on_c, 0, 53, 96
1, 376750, Control_c, 0, 67, 41
1, 376765, Control_c, 0, 67, 41
1, 376773, Note_off_c, 0, 41, 67
1, 376775, Note_off_c, 0, 29, 68
1, 376780, Control_c, 0, 67, 41
1, 376795, Control_c, 0, 67, 38
1, 376809, Control_c, 0, 67, 35
1, 376824, Control_c, 0, 67, 0
1, 376856, Note_on_c, 0, 28, 82
1, 376859, Note_on_c, 0, 40, 70
1, 376882, Note_off_c, 0, 28, 65
1, 376892, Note_off_c, 0, 40, 64
1, 376966, Note_on_c, 0, 26, 63
1, 376979, Note_on_c, 0, 38, 56
1, 376994, Note_off_c, 0, 26, 64
1, 377009, Note_off_c, 0, 38, 53
1, 377076, Note_on_c, 0, 28, 71
1, 377081, Note_on_c, 0, 40, 69
1, 377108, Note_off_c, 0, 28, 64
1, 377112, Note_off_c, 0, 40, 64
1, 377194, Note_on_c, 0, 26, 53
1, 377194, Note_on_c, 0, 38, 50
1, 377234, Note_off_c, 0, 26, 58
1, 377234, Note_off_c, 0, 38, 51
1, 377301, Note_on_c, 0, 24, 78
1, 377306, Note_on_c, 0, 36, 69
1, 377327, Note_off_c, 0, 24, 64
1, 377333, Note_off_c, 0, 36, 64
1, 377351, Note_off_c, 0, 53, 64
1, 377362, Note_off_c, 0, 57, 65
1, 377409, Control_c, 0, 64, 32
1, 377417, Note_on_c, 0, 29, 73
1, 377417, Note_on_c, 0, 57, 96
1, 377418, Note_on_c, 0, 41, 79
1, 377422, Note_on_c, 0, 53, 92
1, 377424, Control_c, 0, 64, 40
1, 377439, Control_c, 0, 64, 49
1, 377444, Note_off_c, 0, 29, 65
1, 377448, Note_off_c, 0, 41, 66
1, 377454, Control_c, 0, 64, 50
1, 377469, Control_c, 0, 64, 49
1, 377483, Control_c, 0, 64, 48
1, 377498, Control_c, 0, 64, 47
1, 377513, Control_c, 0, 64, 46
1, 377528, Control_c, 0, 64, 46
1, 377530, Note_on_c, 0, 28, 82
1, 377533, Note_on_c, 0, 40, 66
1, 377543, Control_c, 0, 64, 45
1, 377557, Control_c, 0, 64, 44
1, 377558, Note_off_c, 0, 28, 65
1, 377565, Note_off_c, 0, 40, 63
1, 377572, Control_c, 0, 64, 45
1, 377587, Control_c, 0, 64, 45
1, 377617, Control_c, 0, 64, 45
1, 377639, Note_on_c, 0, 26, 71
1, 377641, Note_on_c, 0, 38, 78
1, 377664, Note_off_c, 0, 26, 66
1, 377667, Note_off_c, 0, 38, 66
1, 377676, Control_c, 0, 64, 44
1, 377691, Control_c, 0, 64, 44
1, 377706, Control_c, 0, 64, 43
1, 377721, Control_c, 0, 64, 42
1, 377745, Note_on_c, 0, 28, 80
1, 377746, Note_on_c, 0, 40, 81
1, 377765, Control_c, 0, 64, 42
1, 377772, Note_off_c, 0, 28, 65
1, 377773, Note_off_c, 0, 40, 65
1, 377780, Control_c, 0, 64, 41
1, 377795, Control_c, 0, 64, 41
1, 377825, Control_c, 0, 64, 41
1, 377840, Control_c, 0, 64, 42
1, 377849, Note_on_c, 0, 26, 61
1, 377853, Note_on_c, 0, 38, 74
1, 377870, Control_c, 0, 64, 41
1, 377878, Note_off_c, 0, 26, 65
1, 377881, Note_off_c, 0, 38, 65
1, 377885, Control_c, 0, 64, 42
1, 377959, Note_on_c, 0, 24, 82
1, 377963, Note_on_c, 0, 36, 81
1, 377980, Control_c, 0, 64, 42
1, 377995, Note_off_c, 0, 24, 67
1, 377995, Control_c, 0, 64, 43
1, 378001, Note_off_c, 0, 36, 70
1, 378010, Control_c, 0, 64, 42
1, 378017, Note_off_c, 0, 53, 61
1, 378025, Control_c, 0, 64, 41
1, 378040, Control_c, 0, 64, 40
1, 378041, Note_off_c, 0, 57, 64
1, 378085, Note_on_c, 0, 60, 96
1, 378085, Control_c, 0, 64, 36
1, 378085, Note_on_c, 0, 29, 89
1, 378087, Note_on_c, 0, 41, 87
1, 378091, Note_on_c, 0, 53, 93
1, 378095, Note_on_c, 0, 57, 78
1, 378100, Control_c, 0, 64, 0
1, 378114, Note_off_c, 0, 53, 67
1, 378120, Note_off_c, 0, 57, 70
1, 378123, Note_off_c, 0, 41, 66
1, 378124, Note_off_c, 0, 29, 61
1, 378124, Note_off_c, 0, 60, 68
1, 378204, Note_on_c, 0, 40, 84
1, 378204, Note_on_c, 0, 28, 84
1, 378233, Note_off_c, 0, 40, 66
1, 378236, Note_off_c, 0, 28, 67
1, 378317, Note_on_c, 0, 26, 72
1, 378321, Note_on_c, 0, 38, 81
1, 378349, Note_off_c, 0, 26, 68
1, 378355, Note_off_c, 0, 38, 66
1, 378388, Note_on_c, 0, 53, 88
1, 378412, Note_off_c, 0, 53, 69
1, 378440, Note_on_c, 0, 28, 87
1, 378443, Note_on_c, 0, 40, 79
1, 378452, Note_on_c, 0, 57, 94
1, 378459, Note_on_c, 0, 53, 90
1, 378476, Note_off_c, 0, 28, 66
1, 378476, Note_off_c, 0, 40, 66
1, 378561, Note_on_c, 0, 38, 75
1, 378565, Note_on_c, 0, 26, 65
1, 378589, Note_off_c, 0, 38, 62
1, 378591, Note_off_c, 0, 26, 65
1, 378677, Note_on_c, 0, 24, 78
1, 378678, Note_on_c, 0, 36, 77
1, 378702, Note_off_c, 0, 24, 64
1, 378708, Note_off_c, 0, 36, 64
1, 378799, Note_on_c, 0, 29, 88
1, 378799, Note_on_c, 0, 41, 90
1, 378827, Note_off_c, 0, 29, 68
1, 378829, Note_off_c, 0, 41, 67
1, 378904, Note_off_c, 0, 53, 60
1, 378905, Note_on_c, 0, 28, 84
1, 378905, Note_on_c, 0, 40, 81
1, 378930, Note_off_c, 0, 28, 66
1, 378932, Note_off_c, 0, 40, 64
1, 378948, Note_off_c, 0, 57, 61
1, 379015, Note_on_c, 0, 26, 72
1, 379019, Note_on_c, 0, 38, 81
1, 379044, Note_off_c, 0, 26, 67
1, 379050, Note_off_c, 0, 38, 63
1, 379071, Note_on_c, 0, 53, 89
1, 379095, Note_off_c, 0, 53, 69
1, 379121, Note_on_c, 0, 28, 78
1, 379125, Note_on_c, 0, 40, 87
1, 379134, Note_on_c, 0, 57, 97
1, 379137, Note_on_c, 0, 53, 93
1, 379156, Note_off_c, 0, 28, 66
1, 379156, Note_off_c, 0, 40, 66
1, 379173, Note_off_c, 0, 53, 68
1, 379185, Note_off_c, 0, 57, 66
1, 379244, Note_on_c, 0, 26, 58
1, 379247, Note_on_c, 0, 38, 70
1, 379269, Note_off_c, 0, 26, 65
1, 379277, Note_off_c, 0, 38, 64
1, 379349, Note_on_c, 0, 24, 85
1, 379349, Note_on_c, 0, 36, 87
1, 379384, Note_off_c, 0, 24, 65
1, 379389, Note_off_c, 0, 36, 60
1, 379412, Note_on_c, 0, 60, 84
1, 379415, Note_on_c, 0, 57, 92
1, 379423, Note_on_c, 0, 53, 81
1, 379435, Note_off_c, 0, 60, 70
1, 379444, Note_off_c, 0, 53, 71
1, 379449, Note_off_c, 0, 57, 65
1, 379465, Note_on_c, 0, 63, 11
1, 379465, Note_off_c, 0, 63, 127
1, 379472, Control_c, 0, 64, 38
1, 379483, Note_on_c, 0, 29, 90
1, 379486, Note_on_c, 0, 41, 89
1, 379488, Note_on_c, 0, 65, 99
1, 379494, Control_c, 0, 64, 0
1, 379498, Note_on_c, 0, 57, 82
1, 379507, Note_on_c, 0, 52, 68
1, 379509, Note_on_c, 0, 53, 73
1, 379514, Note_off_c, 0, 29, 68
1, 379514, Note_off_c, 0, 41, 68
1, 379518, Note_off_c, 0, 57, 71
1, 379527, Note_off_c, 0, 53, 66
1, 379527, Note_off_c, 0, 52, 62
1, 379534, Note_off_c, 0, 65, 70
1, 379600, Note_on_c, 0, 28, 87
1, 379601, Note_on_c, 0, 40, 78
1, 379632, Note_off_c, 0, 40, 67
1, 379641, Note_off_c, 0, 28, 62
1, 379721, Note_on_c, 0, 26, 76
1, 379723, Note_on_c, 0, 38, 85
1, 379753, Note_off_c, 0, 26, 68
1, 379754, Note_on_c, 0, 57, 90
1, 379755, Note_off_c, 0, 38, 67
1, 379767, Note_on_c, 0, 53, 75
1, 379779, Note_off_c, 0, 57, 69
1, 379786, Note_off_c, 0, 53, 66
1, 379824, Note_on_c, 0, 60, 98
1, 379827, Note_on_c, 0, 57, 101
1, 379828, Note_on_c, 0, 53, 101
1, 379830, Note_on_c, 0, 40, 89
1, 379831, Note_on_c, 0, 28, 93
1, 379864, Note_off_c, 0, 28, 66
1, 379869, Note_off_c, 0, 40, 62
1, 379945, Note_on_c, 0, 26, 75
1, 379948, Note_on_c, 0, 38, 80
1, 379972, Note_off_c, 0, 26, 70
1, 379980, Note_off_c, 0, 38, 64
1, 380058, Note_on_c, 0, 24, 85
1, 380059, Note_on_c, 0, 36, 83
1, 380082, Note_off_c, 0, 24, 67
1, 380088, Note_off_c, 0, 36, 65
1, 380170, Note_on_c, 0, 41, 95
1, 380171, Note_on_c, 0, 29, 89
1, 380201, Note_off_c, 0, 29, 68
1, 380201, Note_off_c, 0, 41, 66
1, 380278, Note_off_c, 0, 53, 55
1, 380281, Note_on_c, 0, 28, 86
1, 380282, Note_on_c, 0, 40, 81
1, 380294, Note_off_c, 0, 57, 58
1, 380310, Note_off_c, 0, 28, 67
1, 380311, Note_off_c, 0, 40, 67
1, 380317, Note_off_c, 0, 60, 58
1, 380392, Note_on_c, 0, 26, 70
1, 380393, Note_on_c, 0, 38, 87
1, 380422, Note_off_c, 0, 26, 67
1, 380422, Note_off_c, 0, 38, 69
1, 380431, Note_on_c, 0, 57, 88
1, 380459, Note_on_c, 0, 53, 55
1, 380462, Note_off_c, 0, 57, 67
1, 380498, Note_on_c, 0, 28, 86
1, 380498, Note_on_c, 0, 40, 93
1, 380504, Note_off_c, 0, 53, 0
1, 380504, Note_on_c, 0, 53, 83
1, 380505, Note_on_c, 0, 60, 99
1, 380508, Note_on_c, 0, 57, 84
1, 380509, Control_c, 0, 64, 49
1, 380519, Note_on_c, 0, 62, 65
1, 380519, Note_off_c, 0, 62, 127
1, 380524, Control_c, 0, 64, 63
1, 380525, Note_on_c, 0, 59, 62
1, 380525, Note_off_c, 0, 59, 127
1, 380525, Note_off_c, 0, 53, 71
1, 380532, Note_off_c, 0, 28, 66
1, 380532, Note_off_c, 0, 57, 72
1, 380538, Note_off_c, 0, 40, 63
1, 380549, Note_off_c, 0, 60, 66
1, 380583, Control_c, 0, 64, 64
1, 380613, Control_c, 0, 64, 64
1, 380617, Note_on_c, 0, 38, 79
1, 380618, Note_on_c, 0, 26, 67
1, 380642, Note_off_c, 0, 26, 66
1, 380648, Note_off_c, 0, 38, 64
1, 380702, Control_c, 0, 64, 65
1, 380725, Note_on_c, 0, 24, 88
1, 380725, Note_on_c, 0, 36, 86
1, 380732, Control_c, 0, 64, 63
1, 380747, Control_c, 0, 64, 54
1, 380755, Note_off_c, 0, 36, 67
1, 380756, Note_off_c, 0, 24, 63
1, 380761, Control_c, 0, 64, 0
1, 380770, Note_on_c, 0, 65, 82
1, 380771, Note_on_c, 0, 60, 82
1, 380774, Note_on_c, 0, 57, 78
1, 380792, Note_off_c, 0, 60, 72
1, 380792, Note_off_c, 0, 65, 66
1, 380799, Note_off_c, 0, 57, 67
1, 380821, Control_c, 0, 64, 32
1, 380835, Control_c, 0, 64, 58
1, 380836, Note_on_c, 0, 57, 100
1, 380836, Note_on_c, 0, 69, 96
1, 380837, Note_on_c, 0, 65, 86
1, 380838, Note_on_c, 0, 29, 88
1, 380839, Note_on_c, 0, 41, 90
1, 380842, Note_on_c, 0, 60, 85
1, 380850, Control_c, 0, 64, 68
1, 380859, Note_off_c, 0, 57, 68
1, 380862, Note_off_c, 0, 60, 70
1, 380865, Control_c, 0, 64, 69
1, 380869, Note_off_c, 0, 29, 67
1, 380872, Note_off_c, 0, 41, 66
1, 380882, Note_off_c, 0, 69, 64
1, 380884, Note_off_c, 0, 65, 65
1, 380924, Control_c, 0, 64, 71
1, 380939, Control_c, 0, 64, 76
1, 380951, Note_on_c, 0, 40, 88
1, 380952, Note_on_c, 0, 28, 87
1, 380954, Control_c, 0, 64, 84
1, 380976, Control_c, 0, 64, 94
1, 380984, Note_off_c, 0, 40, 68
1, 380986, Note_off_c, 0, 28, 67
1, 380991, Control_c, 0, 64, 106
1, 381006, Control_c, 0, 64, 127
1, 381073, Note_on_c, 0, 26, 68
1, 381075, Note_on_c, 0, 38, 89
1, 381095, Control_c, 0, 64, 88
1, 381101, Note_on_c, 0, 53, 86
1, 381103, Note_on_c, 0, 60, 75
1, 381104, Note_off_c, 0, 38, 67
1, 381104, Note_off_c, 0, 26, 64
1, 381110, Note_on_c, 0, 57, 75
1, 381110, Control_c, 0, 64, 63
1, 381113, Note_on_c, 0, 24, 28
1, 381122, Note_on_c, 0, 63, 39
1, 381124, Note_off_c, 0, 60, 70
1, 381125, Control_c, 0, 64, 0
1, 381128, Note_off_c, 0, 53, 66
1, 381135, Note_off_c, 0, 57, 68
1, 381143, Note_off_c, 0, 24, 56
1, 381154, Note_off_c, 0, 63, 36
1, 381167, Note_on_c, 0, 57, 98
1, 381170, Control_c, 0, 64, 51
1, 381172, Note_on_c, 0, 65, 93
1, 381177, Note_on_c, 0, 60, 75
1, 381178, Note_on_c, 0, 28, 95
1, 381179, Note_on_c, 0, 53, 53
1, 381181, Note_on_c, 0, 40, 81
1, 381185, Control_c, 0, 64, 70
1, 381186, Note_on_c, 0, 62, 70
1, 381190, Note_off_c, 0, 57, 71
1, 381194, Note_on_c, 0, 41, 66
1, 381198, Note_off_c, 0, 60, 71
1, 381200, Control_c, 0, 64, 84
1, 381203, Note_off_c, 0, 53, 57
1, 381205, Note_off_c, 0, 28, 68
1, 381206, Note_off_c, 0, 62, 65
1, 381214, Control_c, 0, 64, 96
1, 381215, Note_off_c, 0, 40, 65
1, 381217, Note_off_c, 0, 41, 60
1, 381226, Note_off_c, 0, 65, 65
1, 381229, Control_c, 0, 64, 100
1, 381234, Note_on_c, 0, 29, 8
1, 381244, Control_c, 0, 64, 120
1, 381258, Control_c, 0, 64, 127
1, 381265, Note_off_c, 0, 29, 52
1, 381282, Note_on_c, 0, 28, 84
1, 381289, Note_on_c, 0, 40, 90
1, 381314, Note_off_c, 0, 40, 66
1, 381326, Note_off_c, 0, 28, 62
1, 381392, Note_on_c, 0, 26, 88
1, 381396, Note_on_c, 0, 38, 84
1, 381405, Note_on_c, 0, 36, 76
1, 381424, Note_off_c, 0, 26, 66
1, 381427, Note_off_c, 0, 38, 66
1, 381435, Note_off_c, 0, 36, 63
1, 381435, Control_c, 0, 64, 106
1, 381445, Note_on_c, 0, 69, 91
1, 381446, Note_on_c, 0, 60, 92
1, 381447, Note_on_c, 0, 65, 87
1, 381450, Control_c, 0, 64, 65
1, 381465, Control_c, 0, 64, 0
1, 381473, Note_off_c, 0, 60, 66
1, 381473, Note_off_c, 0, 65, 66
1, 381492, Note_off_c, 0, 69, 64
1, 381504, Note_on_c, 0, 41, 102
1, 381504, Note_on_c, 0, 29, 94
1, 381510, Control_c, 0, 64, 53
1, 381519, Note_on_c, 0, 65, 95
1, 381520, Note_on_c, 0, 72, 100
1, 381522, Note_on_c, 0, 69, 63
1, 381523, Note_on_c, 0, 60, 86
1, 381524, Control_c, 0, 64, 79
1, 381539, Control_c, 0, 64, 127
1, 381539, Note_off_c, 0, 60, 78
1, 381541, Note_off_c, 0, 41, 67
1, 381547, Note_off_c, 0, 65, 64
1, 381547, Note_off_c, 0, 29, 64
1, 381557, Note_off_c, 0, 69, 63
1, 381582, Note_off_c, 0, 72, 67
1, 381620, Note_on_c, 0, 28, 98
1, 381622, Note_on_c, 0, 40, 92
1, 381650, Note_off_c, 0, 40, 66
1, 381653, Note_off_c, 0, 28, 63
1, 381745, Note_on_c, 0, 38, 81
1, 381748, Note_on_c, 0, 26, 54
1, 381752, Note_on_c, 0, 36, 77
1, 381757, Note_on_c, 0, 24, 68
1, 381773, Note_off_c, 0, 26, 64
1, 381778, Note_off_c, 0, 38, 63
1, 381781, Note_off_c, 0, 36, 64
1, 381783, Control_c, 0, 64, 112
1, 381794, Note_off_c, 0, 24, 52
1, 381799, Control_c, 0, 64, 71
1, 381814, Control_c, 0, 64, 37
1, 381829, Control_c, 0, 64, 0
1, 381842, Note_on_c, 0, 69, 99
1, 381843, Note_on_c, 0, 65, 102
1, 381843, Note_on_c, 0, 72, 91
1, 381845, Note_on_c, 0, 77, 96
1, 381847, Note_on_c, 0, 40, 99
1, 381849, Note_on_c, 0, 28, 97
1, 381858, Control_c, 0, 64, 54
1, 381870, Note_off_c, 0, 65, 69
1, 381870, Note_on_c, 0, 74, 56
1, 381873, Control_c, 0, 64, 89
1, 381874, Note_off_c, 0, 28, 69
1, 381877, Note_off_c, 0, 69, 66
1, 381883, Note_off_c, 0, 40, 62
1, 381888, Control_c, 0, 64, 127
1, 381891, Note_off_c, 0, 72, 61
1, 381892, Note_off_c, 0, 74, 60
1, 381897, Note_off_c, 0, 77, 64
1, 381956, Note_on_c, 0, 26, 70
1, 381958, Note_on_c, 0, 38, 95
1, 381989, Note_off_c, 0, 38, 66
1, 381990, Note_off_c, 0, 26, 66
1, 382042, Note_on_c, 0, 79, 19
1, 382059, Note_on_c, 0, 26, 83
1, 382064, Note_on_c, 0, 38, 87
1, 382076, Note_on_c, 0, 36, 70
1, 382090, Note_off_c, 0, 79, 49
1, 382100, Note_off_c, 0, 38, 64
1, 382102, Note_off_c, 0, 26, 63
1, 382104, Note_off_c, 0, 36, 58
1, 382156, Control_c, 0, 64, 80
1, 382167, Note_on_c, 0, 27, 86
1, 382167, Note_on_c, 0, 39, 99
1, 382171, Note_on_c, 0, 67, 96
1, 382171, Control_c, 0, 64, 55
1, 382171, Note_on_c, 0, 79, 93
1, 382172, Note_on_c, 0, 70, 97
1, 382174, Note_on_c, 0, 75, 98
1, 382186, Control_c, 0, 64, 0
1, 382207, Note_on_c, 0, 30, 32
1, 382207, Note_off_c, 0, 30, 127
1, 382208, Note_off_c, 0, 27, 63
1, 382212, Note_off_c, 0, 39, 64
1, 382213, Note_on_c, 0, 37, 29
1, 382252, Poly_aftertouch_c, 0, 30, 0
1, 382261, Poly_aftertouch_c, 0, 26, 127
1, 382262, Note_off_c, 0, 37, 51
1, 382276, Note_on_c, 0, 26, 29
1, 382279, Note_on_c, 0, 38, 90
1, 382313, Note_off_c, 0, 38, 65
1, 382320, Note_off_c, 0, 26, 65
1, 382381, Note_on_c, 0, 36, 93
1, 382383, Note_on_c, 0, 24, 95
1, 382409, Note_off_c, 0, 24, 67
1, 382417, Note_off_c, 0, 36, 63
1, 382437, Control_c, 0, 64, 29
1, 382467, Control_c, 0, 64, 38
1, 382489, Control_c, 0, 64, 48
1, 382492, Note_on_c, 0, 38, 94
1, 382494, Note_on_c, 0, 26, 80
1, 382503, Note_on_c, 0, 24, 73
1, 382504, Control_c, 0, 64, 56
1, 382519, Control_c, 0, 64, 58
1, 382524, Note_off_c, 0, 38, 65
1, 382526, Note_off_c, 0, 26, 68
1, 382530, Note_off_c, 0, 24, 51
1, 382534, Control_c, 0, 64, 57
1, 382549, Control_c, 0, 64, 55
1, 382563, Control_c, 0, 64, 53
1, 382578, Control_c, 0, 64, 53
1, 382601, Note_on_c, 0, 24, 95
1, 382601, Note_on_c, 0, 36, 95
1, 382624, Control_c, 0, 64, 52
1, 382636, Note_off_c, 0, 36, 63
1, 382637, Note_off_c, 0, 24, 65
1, 382638, Control_c, 0, 64, 51
1, 382653, Control_c, 0, 64, 51
1, 382683, Control_c, 0, 64, 51
1, 382697, Control_c, 0, 64, 49
1, 382712, Control_c, 0, 64, 47
1, 382714, Note_on_c, 0, 22, 87
1, 382717, Note_on_c, 0, 34, 102
1, 382727, Control_c, 0, 64, 45
1, 382741, Note_off_c, 0, 22, 65
1, 382741, Note_off_c, 0, 34, 72
1, 382742, Control_c, 0, 64, 44
1, 382757, Control_c, 0, 64, 40
1, 382771, Control_c, 0, 64, 0
1, 382825, Note_on_c, 0, 27, 98
1, 382826, Note_on_c, 0, 39, 98
1, 382860, Control_c, 0, 64, 37
1, 382863, Note_off_c, 0, 27, 61
1, 382875, Note_off_c, 0, 39, 62
1, 382875, Control_c, 0, 64, 64
1, 382890, Control_c, 0, 64, 79
1, 382905, Control_c, 0, 64, 105
1, 382905, Poly_aftertouch_c, 0, 30, 127
1, 382920, Control_c, 0, 64, 127
1, 382929, Note_on_c, 0, 26, 75
1, 382934, Note_on_c, 0, 38, 84
1, 382943, Poly_aftertouch_c, 0, 30, 0
1, 382965, Note_off_c, 0, 38, 67
1, 382972, Note_off_c, 0, 26, 61
1, 382980, Note_off_c, 0, 79, 62
1, 382983, Note_off_c, 0, 67, 60
1, 383023, Control_c, 0, 64, 118
1, 383031, Note_off_c, 0, 75, 63
1, 383033, Note_off_c, 0, 70, 63
1, 383038, Control_c, 0, 64, 87
1, 383047, Note_on_c, 0, 36, 86
1, 383048, Note_on_c, 0, 24, 82
1, 383053, Control_c, 0, 64, 72
1, 383068, Control_c, 0, 64, 65
1, 383075, Note_off_c, 0, 36, 69
1, 383082, Note_off_c, 0, 24, 54
1, 383083, Control_c, 0, 64, 66
1, 383097, Control_c, 0, 64, 75
1, 383112, Control_c, 0, 64, 96
1, 383127, Control_c, 0, 64, 127
1, 383149, Poly_aftertouch_c, 0, 26, 127
1, 383152, Note_on_c, 0, 38, 92
1, 383152, Note_on_c, 0, 26, 27
1, 383182, Note_off_c, 0, 26, 64
1, 383182, Note_off_c, 0, 38, 66
1, 383268, Note_on_c, 0, 36, 80
1, 383271, Note_on_c, 0, 24, 80
1, 383281, Note_on_c, 0, 26, 47
1, 383298, Note_off_c, 0, 36, 64
1, 383304, Note_off_c, 0, 24, 63
1, 383310, Note_off_c, 0, 26, 64
1, 383386, Note_on_c, 0, 34, 96
1, 383389, Note_on_c, 0, 22, 91
1, 383397, Note_on_c, 0, 58, 93
1, 383400, Note_on_c, 0, 55, 82
1, 383403, Note_on_c, 0, 51, 85
1, 383416, Note_off_c, 0, 34, 67
1, 383422, Note_off_c, 0, 22, 60
1, 383423, Note_off_c, 0, 58, 66
1, 383429, Note_off_c, 0, 51, 67
1, 383441, Note_off_c, 0, 55, 61
1, 383461, Control_c, 0, 64, 103
1, 383476, Note_on_c, 0, 58, 109
1, 383476, Control_c, 0, 64, 67
1, 383479, Note_on_c, 0, 55, 90
1, 383481, Note_on_c, 0, 51, 106
1, 383491, Control_c, 0, 64, 0
1, 383501, Note_on_c, 0, 27, 92
1, 383509, Note_on_c, 0, 39, 84
1, 383535, Control_c, 0, 64, 45
1, 383537, Note_off_c, 0, 27, 61
1, 383537, Note_off_c, 0, 39, 68
1, 383549, Control_c, 0, 64, 69
1, 383564, Control_c, 0, 64, 101
1, 383578, Control_c, 0, 64, 127
1, 383615, Note_on_c, 0, 26, 63
1, 383618, Note_on_c, 0, 38, 85
1, 383652, Note_off_c, 0, 38, 65
1, 383654, Note_off_c, 0, 26, 64
1, 383679, Note_off_c, 0, 51, 53
1, 383732, Note_on_c, 0, 24, 86
1, 383737, Note_on_c, 0, 36, 75
1, 383741, Control_c, 0, 64, 95
1, 383756, Control_c, 0, 64, 73
1, 383760, Note_off_c, 0, 24, 65
1, 383766, Note_off_c, 0, 36, 64
1, 383770, Control_c, 0, 64, 58
1, 383785, Control_c, 0, 64, 54
1, 383800, Control_c, 0, 64, 64
1, 383815, Control_c, 0, 64, 82
1, 383830, Control_c, 0, 64, 127
1, 383844, Note_on_c, 0, 38, 78
1, 383846, Note_on_c, 0, 26, 66
1, 383873, Note_off_c, 0, 26, 65
1, 383874, Note_off_c, 0, 38, 63
1, 383950, Note_on_c, 0, 24, 87
1, 383951, Note_on_c, 0, 36, 75
1, 383985, Note_off_c, 0, 36, 65
1, 383988, Note_on_c, 0, 26, 29
1, 383990, Note_off_c, 0, 24, 64
1, 384013, Note_off_c, 0, 26, 64
1, 384014, Note_off_c, 0, 58, 58
1, 384064, Note_off_c, 0, 55, 42
1, 384066, Note_on_c, 0, 34, 93
1, 384067, Note_on_c, 0, 22, 86
1, 384094, Note_off_c, 0, 34, 65
1, 384094, Note_off_c, 0, 22, 64
1, 384178, Control_c, 0, 64, 88
1, 384192, Control_c, 0, 64, 49
1, 384199, Note_on_c, 0, 27, 83
1, 384201, Note_on_c, 0, 58, 114
1, 384204, Note_on_c, 0, 39, 86
1, 384204, Note_on_c, 0, 55, 95
1, 384207, Note_on_c, 0, 51, 104
1, 384209, Control_c, 0, 64, 0
1, 384238, Control_c, 0, 64, 41
1, 384248, Note_on_c, 0, 54, 25
1, 384248, Note_off_c, 0, 54, 127
1, 384248, Note_off_c, 0, 39, 59
1, 384253, Control_c, 0, 64, 65
1, 384260, Note_off_c, 0, 27, 62
1, 384268, Control_c, 0, 64, 105
1, 384282, Control_c, 0, 64, 127
1, 384327, Note_on_c, 0, 26, 68
1, 384331, Note_on_c, 0, 38, 76
1, 384350, Note_off_c, 0, 51, 49
1, 384364, Note_off_c, 0, 38, 63
1, 384367, Note_off_c, 0, 26, 62
1, 384441, Note_on_c, 0, 24, 82
1, 384445, Note_on_c, 0, 36, 75
1, 384461, Note_off_c, 0, 55, 56
1, 384467, Note_off_c, 0, 24, 64
1, 384472, Note_off_c, 0, 36, 66
1, 384550, Note_on_c, 0, 26, 66
1, 384553, Note_on_c, 0, 38, 75
1, 384577, Note_off_c, 0, 26, 65
1, 384580, Note_off_c, 0, 38, 65
1, 384598, Note_off_c, 0, 58, 44
1, 384661, Note_on_c, 0, 36, 68
1, 384666, Note_on_c, 0, 26, 35
1, 384669, Note_on_c, 0, 24, 59
1, 384683, Note_off_c, 0, 26, 68
1, 384692, Note_off_c, 0, 36, 64
1, 384705, Note_off_c, 0, 24, 51
1, 384768, Note_on_c, 0, 26, 21
1, 384784, Note_on_c, 0, 22, 74
1, 384791, Note_on_c, 0, 34, 62
1, 384813, Note_off_c, 0, 26, 54
1, 384815, Note_off_c, 0, 22, 61
1, 384829, Note_off_c, 0, 34, 53
1, 384853, Control_c, 0, 64, 84
1, 384868, Control_c, 0, 64, 51
1, 384882, Control_c, 0, 64, 0
1, 384887, Note_on_c, 0, 27, 95
1, 384887, Note_on_c, 0, 39, 95
1, 384893, Note_on_c, 0, 55, 94
1, 384894, Note_on_c, 0, 63, 97
1, 384896, Note_on_c, 0, 58, 92
1, 384896, Note_on_c, 0, 51, 101
1, 384912, Control_c, 0, 64, 41
1, 384921, Note_off_c, 0, 39, 63
1, 384927, Control_c, 0, 64, 67
1, 384935, Note_off_c, 0, 27, 63
1, 384942, Control_c, 0, 64, 127
1, 384963, Note_off_c, 0, 51, 60
1, 384976, Note_off_c, 0, 63, 64
1, 384994, Note_off_c, 0, 55, 63
1, 385003, Note_on_c, 0, 26, 47
1, 385015, Note_on_c, 0, 38, 78
1, 385016, Note_off_c, 0, 58, 64
1, 385041, Note_off_c, 0, 38, 65
1, 385042, Note_off_c, 0, 26, 63
1, 385142, Note_on_c, 0, 24, 75
1, 385144, Note_on_c, 0, 36, 71
1, 385170, Note_off_c, 0, 36, 64
1, 385171, Note_off_c, 0, 24, 65
1, 385200, Note_on_c, 0, 55, 88
1, 385203, Note_on_c, 0, 51, 88
1, 385203, Note_on_c, 0, 56, 53
1, 385210, Control_c, 0, 64, 81
1, 385219, Note_off_c, 0, 55, 69
1, 385222, Note_off_c, 0, 51, 72
1, 385224, Control_c, 0, 64, 40
1, 385227, Note_off_c, 0, 56, 59
1, 385239, Control_c, 0, 64, 0
1, 385258, Note_on_c, 0, 55, 85
1, 385259, Note_on_c, 0, 58, 98
1, 385260, Note_on_c, 0, 51, 94
1, 385264, Note_on_c, 0, 26, 72
1, 385265, Note_on_c, 0, 38, 78
1, 385296, Note_off_c, 0, 38, 65
1, 385298, Note_off_c, 0, 26, 66
1, 385314, Note_on_c, 0, 54, 16
1, 385314, Note_off_c, 0, 54, 127
1, 385378, Note_on_c, 0, 36, 82
1, 385379, Note_on_c, 0, 24, 83
1, 385407, Note_off_c, 0, 36, 70
1, 385412, Note_off_c, 0, 24, 66
1, 385417, Note_on_c, 0, 26, 21
1, 385451, Note_off_c, 0, 26, 55
1, 385498, Note_on_c, 0, 22, 78
1, 385501, Note_on_c, 0, 34, 78
1, 385530, Note_off_c, 0, 22, 65
1, 385532, Note_off_c, 0, 34, 65
1, 385596, Note_on_c, 0, 27, 94
1, 385599, Note_on_c, 0, 39, 90
1, 385602, Control_c, 0, 64, 30
1, 385617, Control_c, 0, 64, 66
1, 385626, Note_off_c, 0, 27, 67
1, 385629, Note_off_c, 0, 39, 66
1, 385632, Control_c, 0, 64, 90
1, 385647, Control_c, 0, 64, 100
1, 385649, Note_off_c, 0, 51, 60
1, 385659, Note_off_c, 0, 55, 59
1, 385677, Note_off_c, 0, 58, 64
1, 385699, Note_on_c, 0, 26, 75
1, 385702, Note_on_c, 0, 38, 89
1, 385732, Note_off_c, 0, 38, 68
1, 385735, Note_off_c, 0, 26, 65
1, 385796, Control_c, 0, 64, 96
1, 385811, Control_c, 0, 64, 76
1, 385814, Note_on_c, 0, 24, 90
1, 385818, Note_on_c, 0, 36, 87
1, 385825, Note_on_c, 0, 55, 96
1, 385826, Control_c, 0, 64, 51
1, 385832, Note_on_c, 0, 51, 93
1, 385841, Note_off_c, 0, 24, 68
1, 385841, Control_c, 0, 64, 0
1, 385846, Note_off_c, 0, 36, 68
1, 385855, Note_off_c, 0, 51, 65
1, 385866, Note_off_c, 0, 55, 64
1, 385898, Note_on_c, 0, 58, 100
1, 385898, Note_on_c, 0, 55, 75
1, 385900, Note_on_c, 0, 51, 89
1, 385900, Control_c, 0, 64, 43
1, 385915, Control_c, 0, 64, 69
1, 385918, Note_off_c, 0, 55, 71
1, 385921, Note_on_c, 0, 26, 76
1, 385921, Note_on_c, 0, 38, 93
1, 385924, Note_off_c, 0, 51, 67
1, 385929, Control_c, 0, 64, 99
1, 385930, Note_on_c, 0, 59, 64
1, 385944, Control_c, 0, 64, 127
1, 385951, Note_off_c, 0, 59, 63
1, 385954, Note_off_c, 0, 26, 64
1, 385955, Note_off_c, 0, 58, 63
1, 385959, Note_off_c, 0, 38, 62
1, 386035, Note_on_c, 0, 36, 86
1, 386036, Note_on_c, 0, 24, 89
1, 386062, Note_off_c, 0, 24, 69
1, 386069, Note_off_c, 0, 36, 64
1, 386161, Note_on_c, 0, 22, 86
1, 386165, Note_on_c, 0, 34, 85
1, 386175, Note_on_c, 0, 63, 92
1, 386178, Note_on_c, 0, 55, 92
1, 386191, Note_on_c, 0, 58, 68
1, 386195, Note_off_c, 0, 22, 62
1, 386196, Note_off_c, 0, 63, 67
1, 386197, Note_off_c, 0, 34, 64
1, 386201, Note_off_c, 0, 55, 69
1, 386222, Note_off_c, 0, 58, 64
1, 386233, Control_c, 0, 64, 86
1, 386247, Control_c, 0, 64, 49
1, 386258, Note_on_c, 0, 63, 111
1, 386258, Note_on_c, 0, 67, 91
1, 386262, Note_on_c, 0, 55, 103
1, 386262, Control_c, 0, 64, 0
1, 386267, Note_on_c, 0, 58, 92
1, 386279, Note_on_c, 0, 27, 93
1, 386284, Note_on_c, 0, 39, 90
1, 386292, Control_c, 0, 64, 29
1, 386304, Note_off_c, 0, 55, 66
1, 386307, Control_c, 0, 64, 57
1, 386314, Note_off_c, 0, 27, 62
1, 386318, Note_off_c, 0, 39, 63
1, 386321, Control_c, 0, 64, 79
1, 386336, Control_c, 0, 64, 117
1, 386348, Note_off_c, 0, 67, 58
1, 386351, Control_c, 0, 64, 127
1, 386363, Note_off_c, 0, 58, 59
1, 386388, Note_off_c, 0, 63, 63
1, 386395, Note_on_c, 0, 26, 71
1, 386400, Note_on_c, 0, 38, 74
1, 386432, Note_off_c, 0, 38, 65
1, 386436, Note_off_c, 0, 26, 63
1, 386515, Note_on_c, 0, 36, 62
1, 386520, Note_on_c, 0, 24, 83
1, 386553, Note_off_c, 0, 24, 63
1, 386556, Note_on_c, 0, 58, 94
1, 386556, Note_off_c, 0, 36, 63
1, 386556, Note_on_c, 0, 55, 87
1, 386580, Note_off_c, 0, 58, 68
1, 386583, Note_off_c, 0, 55, 67
1, 386604, Control_c, 0, 64, 107
1, 386619, Control_c, 0, 64, 71
1, 386622, Note_on_c, 0, 63, 94
1, 386629, Note_on_c, 0, 55, 96
1, 386630, Note_on_c, 0, 58, 94
1, 386632, Note_on_c, 0, 38, 87
1, 386634, Control_c, 0, 64, 40
1, 386636, Note_on_c, 0, 26, 77
1, 386649, Control_c, 0, 64, 0
1, 386664, Note_off_c, 0, 38, 66
1, 386671, Note_off_c, 0, 26, 61
1, 386678, Control_c, 0, 64, 43
1, 386693, Control_c, 0, 64, 67
1, 386708, Control_c, 0, 64, 93
1, 386723, Control_c, 0, 64, 127
1, 386744, Note_on_c, 0, 36, 87
1, 386746, Note_on_c, 0, 24, 83
1, 386767, Control_c, 0, 64, 116
1, 386773, Note_off_c, 0, 36, 68
1, 386774, Note_off_c, 0, 24, 66
1, 386782, Control_c, 0, 64, 89
1, 386796, Control_c, 0, 64, 68
1, 386811, Control_c, 0, 64, 29
1, 386826, Control_c, 0, 64, 0
1, 386854, Note_on_c, 0, 22, 85
1, 386857, Note_on_c, 0, 34, 91
1, 386880, Note_off_c, 0, 34, 67
1, 386881, Note_off_c, 0, 22, 66
1, 386915, Control_c, 0, 64, 31
1, 386930, Control_c, 0, 64, 67
1, 386944, Control_c, 0, 64, 127
1, 386946, Note_on_c, 0, 27, 102
1, 386947, Note_on_c, 0, 39, 98
1, 386977, Note_off_c, 0, 58, 58
1, 386980, Note_off_c, 0, 27, 68
1, 386983, Note_off_c, 0, 55, 61
1, 386995, Note_off_c, 0, 39, 62
1, 387015, Note_off_c, 0, 63, 58
1, 387060, Note_on_c, 0, 26, 78
1, 387061, Note_on_c, 0, 38, 89
1, 387065, Poly_aftertouch_c, 0, 30, 0
1, 387092, Note_off_c, 0, 38, 66
1, 387093, Note_off_c, 0, 26, 66
1, 387100, Control_c, 0, 64, 113
1, 387115, Control_c, 0, 64, 97
1, 387130, Control_c, 0, 64, 76
1, 387144, Control_c, 0, 64, 52
1, 387159, Control_c, 0, 64, 0
1, 387169, Note_on_c, 0, 24, 83
1, 387176, Note_on_c, 0, 36, 90
1, 387179, Note_on_c, 0, 55, 85
1, 387179, Note_on_c, 0, 58, 83
1, 387201, Note_on_c, 0, 62, 47
1, 387202, Note_off_c, 0, 24, 64
1, 387204, Note_off_c, 0, 36, 68
1, 387205, Note_off_c, 0, 58, 67
1, 387209, Note_off_c, 0, 55, 65
1, 387229, Note_off_c, 0, 62, 56
1, 387248, Note_on_c, 0, 63, 78
1, 387248, Control_c, 0, 64, 47
1, 387251, Note_on_c, 0, 55, 87
1, 387251, Note_on_c, 0, 58, 97
1, 387263, Control_c, 0, 64, 87
1, 387274, Note_on_c, 0, 38, 98
1, 387275, Note_on_c, 0, 26, 75
1, 387275, Note_off_c, 0, 55, 68
1, 387278, Note_off_c, 0, 58, 63
1, 387278, Control_c, 0, 64, 127
1, 387290, Note_off_c, 0, 26, 0
1, 387290, Note_on_c, 0, 26, 72
1, 387298, Note_off_c, 0, 63, 64
1, 387306, Note_off_c, 0, 26, 68
1, 387316, Note_off_c, 0, 38, 62
1, 387381, Note_on_c, 0, 36, 91
1, 387382, Note_on_c, 0, 24, 93
1, 387397, Note_on_c, 0, 66, 50
1, 387418, Note_off_c, 0, 24, 63
1, 387421, Note_off_c, 0, 66, 60
1, 387422, Note_off_c, 0, 36, 63
1, 387498, Note_on_c, 0, 34, 96
1, 387499, Note_on_c, 0, 67, 89
1, 387500, Note_on_c, 0, 22, 90
1, 387507, Note_on_c, 0, 63, 88
1, 387508, Note_on_c, 0, 58, 90
1, 387519, Note_on_c, 0, 66, 44
1, 387523, Note_off_c, 0, 34, 70
1, 387526, Note_off_c, 0, 22, 64
1, 387527, Note_off_c, 0, 63, 72
1, 387530, Control_c, 0, 64, 70
1, 387531, Note_off_c, 0, 58, 71
1, 387542, Note_off_c, 0, 67, 66
1, 387543, Note_off_c, 0, 66, 34
1, 387545, Control_c, 0, 64, 0
1, 387573, Note_on_c, 0, 70, 105
1, 387575, Note_on_c, 0, 58, 104
1, 387576, Note_on_c, 0, 63, 95
1, 387589, Control_c, 0, 64, 59
1, 387593, Note_on_c, 0, 67, 55
1, 387602, Note_on_c, 0, 27, 101
1, 387604, Control_c, 0, 64, 108
1, 387607, Note_on_c, 0, 39, 100
1, 387611, Note_off_c, 0, 58, 65
1, 387612, Note_off_c, 0, 67, 62
1, 387616, Note_off_c, 0, 70, 70
1, 387618, Note_off_c, 0, 63, 65
1, 387618, Control_c, 0, 64, 127
1, 387640, Note_off_c, 0, 27, 61
1, 387645, Note_off_c, 0, 39, 60
1, 387719, Note_on_c, 0, 26, 72
1, 387722, Note_on_c, 0, 38, 87
1, 387754, Note_off_c, 0, 38, 65
1, 387760, Note_off_c, 0, 26, 64
1, 387834, Note_on_c, 0, 58, 93
1, 387834, Note_on_c, 0, 63, 92
1, 387835, Note_on_c, 0, 55, 88
1, 387837, Note_on_c, 0, 24, 88
1, 387841, Note_on_c, 0, 36, 86
1, 387849, Note_off_c, 0, 58, 77
1, 387852, Note_off_c, 0, 63, 73
1, 387856, Note_off_c, 0, 55, 71
1, 387870, Note_off_c, 0, 24, 62
1, 387873, Note_off_c, 0, 36, 64
1, 387878, Control_c, 0, 64, 92
1, 387892, Control_c, 0, 64, 63
1, 387905, Note_on_c, 0, 63, 111
1, 387907, Note_on_c, 0, 67, 97
1, 387907, Note_on_c, 0, 58, 100
1, 387907, Control_c, 0, 64, 0
1, 387910, Note_on_c, 0, 55, 97
1, 387925, Note_off_c, 0, 55, 74
1, 387928, Note_off_c, 0, 58, 69
1, 387932, Note_on_c, 0, 26, 76
1, 387932, Note_on_c, 0, 38, 96
1, 387937, Control_c, 0, 64, 32
1, 387948, Note_off_c, 0, 63, 61
1, 387951, Control_c, 0, 64, 60
1, 387958, Note_off_c, 0, 67, 64
1, 387961, Note_off_c, 0, 26, 68
1, 387966, Control_c, 0, 64, 95
1, 387971, Note_off_c, 0, 38, 62
1, 387981, Control_c, 0, 64, 127
1, 388038, Note_on_c, 0, 36, 92
1, 388041, Note_on_c, 0, 24, 90
1, 388067, Note_off_c, 0, 24, 70
1, 388079, Note_off_c, 0, 36, 64
1, 388144, Note_on_c, 0, 22, 95
1, 388146, Note_on_c, 0, 34, 102
1, 388164, Note_on_c, 0, 70, 84
1, 388166, Note_on_c, 0, 67, 81
1, 388169, Note_on_c, 0, 63, 97
1, 388169, Note_off_c, 0, 34, 71
1, 388175, Note_off_c, 0, 22, 62
1, 388190, Control_c, 0, 64, 81
1, 388196, Note_on_c, 0, 66, 47
1, 388196, Note_off_c, 0, 66, 127
1, 388199, Note_off_c, 0, 63, 62
1, 388204, Note_off_c, 0, 70, 64
1, 388205, Note_off_c, 0, 67, 65
1, 388205, Control_c, 0, 64, 39
1, 388220, Control_c, 0, 64, 0
1, 388231, Poly_aftertouch_c, 0, 25, 0
1, 388240, Note_on_c, 0, 75, 87
1, 388241, Note_on_c, 0, 68, 99
1, 388247, Note_on_c, 0, 70, 81
1, 388249, Control_c, 0, 64, 31
1, 388252, Note_on_c, 0, 27, 107
1, 388257, Note_on_c, 0, 39, 107
1, 388261, Note_on_c, 0, 64, 77
1, 388264, Note_on_c, 0, 67, 83
1, 388264, Control_c, 0, 64, 77
1, 388270, Note_on_c, 0, 72, 54
1, 388279, Control_c, 0, 64, 127
1, 388285, Note_off_c, 0, 64, 70
1, 388286, Note_off_c, 0, 67, 67
1, 388293, Note_off_c, 0, 72, 60
1, 388294, Note_on_c, 0, 30, 34
1, 388298, Note_off_c, 0, 68, 59
1, 388299, Note_off_c, 0, 39, 66
1, 388300, Note_off_c, 0, 27, 64
1, 388300, Note_off_c, 0, 75, 67
1, 388301, Note_on_c, 0, 66, 44
1, 388301, Note_off_c, 0, 66, 127
1, 388312, Note_off_c, 0, 70, 66
1, 388338, Note_off_c, 0, 30, 50
1, 388387, Note_on_c, 0, 38, 96
1, 388388, Note_on_c, 0, 26, 80
1, 388434, Note_off_c, 0, 38, 63
1, 388437, Note_off_c, 0, 26, 62
1, 388525, Note_on_c, 0, 24, 91
1, 388532, Note_on_c, 0, 36, 94
1, 388571, Note_off_c, 0, 24, 64
1, 388574, Note_off_c, 0, 36, 66
1, 388693, Note_on_c, 0, 67, 78
1, 388693, Note_on_c, 0, 70, 88
1, 388694, Note_on_c, 0, 79, 98
1, 388697, Note_on_c, 0, 75, 104
1, 388702, Control_c, 0, 64, 80
1, 388703, Note_on_c, 0, 26, 82
1, 388704, Note_on_c, 0, 38, 97
1, 388716, Control_c, 0, 64, 46
1, 388731, Control_c, 0, 64, 0
1, 388761, Control_c, 0, 64, 49
1, 388762, Note_off_c, 0, 38, 63
1, 388775, Control_c, 0, 64, 75
1, 388789, Note_off_c, 0, 26, 42
1, 388790, Control_c, 0, 64, 127
1, 388823, Note_off_c, 0, 67, 61
1, 388831, Note_off_c, 0, 79, 53
1, 388860, Note_on_c, 0, 36, 89
1, 388862, Note_on_c, 0, 24, 91
1, 388875, Note_off_c, 0, 70, 63
1, 388902, Note_off_c, 0, 75, 66
1, 388908, Note_off_c, 0, 24, 62
1, 388908, Note_off_c, 0, 36, 61
1, 388993, Note_on_c, 0, 34, 98
1, 388995, Note_on_c, 0, 22, 99
1, 389034, Note_off_c, 0, 34, 65
1, 389037, Note_off_c, 0, 22, 64
1, 389258, Control_c, 0, 64, 97
1, 389267, Note_on_c, 0, 69, 102
1, 389267, Note_on_c, 0, 74, 99
1, 389268, Note_on_c, 0, 81, 96
1, 389269, Note_on_c, 0, 26, 86
1, 389269, Note_on_c, 0, 38, 104
1, 389272, Control_c, 0, 64, 60
1, 389273, Note_on_c, 0, 78, 95
1, 389287, Control_c, 0, 64, 0
1, 389332, Control_c, 0, 64, 45
1, 389346, Control_c, 0, 64, 73
1, 389361, Control_c, 0, 64, 127
1, 389373, Note_off_c, 0, 26, 65
1, 389397, Note_off_c, 0, 38, 61
1, 389405, Poly_aftertouch_c, 0, 32, 0
1, 389540, Note_on_c, 0, 33, 74
1, 389557, Note_on_c, 0, 45, 65
1, 389570, Note_off_c, 0, 33, 63
1, 389585, Note_off_c, 0, 45, 65
1, 389655, Note_on_c, 0, 34, 81
1, 389668, Note_on_c, 0, 46, 66
1, 389686, Note_off_c, 0, 34, 64
1, 389697, Note_off_c, 0, 46, 64
1, 389746, Note_on_c, 0, 35, 88
1, 389751, Note_on_c, 0, 47, 85
1, 389774, Note_off_c, 0, 35, 67
1, 389778, Note_off_c, 0, 47, 68
1, 389842, Note_on_c, 0, 36, 94
1, 389844, Note_on_c, 0, 48, 100
1, 389880, Note_off_c, 0, 48, 65
1, 389881, Note_off_c, 0, 36, 59
1, 389934, Note_on_c, 0, 49, 97
1, 389938, Note_on_c, 0, 37, 93
1, 389955, Control_c, 0, 64, 107
1, 389972, Note_off_c, 0, 37, 68
1, 389977, Control_c, 0, 64, 60
1, 389978, Note_off_c, 0, 49, 59
1, 389991, Note_on_c, 0, 39, 19
1, 389992, Control_c, 0, 64, 0
1, 390020, Note_off_c, 0, 39, 0
1, 390021, Control_c, 0, 64, 57
1, 390023, Note_on_c, 0, 38, 102
1, 390023, Note_on_c, 0, 50, 98
1, 390036, Control_c, 0, 64, 127
1, 390055, Note_off_c, 0, 69, 62
1, 390056, Note_off_c, 0, 81, 64
1, 390063, Note_off_c, 0, 50, 67
1, 390069, Note_off_c, 0, 38, 62
1, 390073, Poly_aftertouch_c, 0, 39, 0
1, 390089, Note_off_c, 0, 74, 66
1, 390110, Note_off_c, 0, 78, 59
1, 390162, Note_on_c, 0, 49, 71
1, 390180, Note_on_c, 0, 37, 41
1, 390193, Note_off_c, 0, 49, 66
1, 390217, Note_off_c, 0, 37, 51
1, 390264, Note_on_c, 0, 36, 76
1, 390266, Note_on_c, 0, 48, 78
1, 390289, Note_off_c, 0, 36, 64
1, 390291, Note_off_c, 0, 48, 65
1, 390358, Note_on_c, 0, 35, 92
1, 390360, Note_on_c, 0, 47, 86
1, 390384, Note_off_c, 0, 35, 69
1, 390386, Note_off_c, 0, 47, 69
1, 390465, Note_on_c, 0, 34, 91
1, 390471, Note_on_c, 0, 46, 87
1, 390512, Note_off_c, 0, 34, 60
1, 390513, Note_off_c, 0, 46, 58
1, 390524, Note_on_c, 0, 69, 90
1, 390527, Note_on_c, 0, 66, 83
1, 390528, Note_on_c, 0, 62, 87
1, 390548, Note_off_c, 0, 66, 72
1, 390549, Note_off_c, 0, 62, 69
1, 390552, Note_off_c, 0, 69, 61
1, 390581, Note_on_c, 0, 33, 77
1, 390584, Note_on_c, 0, 45, 81
1, 390609, Note_on_c, 0, 69, 95
1, 390610, Note_off_c, 0, 45, 67
1, 390613, Note_on_c, 0, 66, 93
1, 390616, Note_on_c, 0, 62, 93
1, 390623, Note_off_c, 0, 33, 63
1, 390633, Note_off_c, 0, 66, 66
1, 390637, Note_off_c, 0, 62, 71
1, 390643, Note_off_c, 0, 69, 66
1, 390644, Control_c, 0, 64, 82
1, 390659, Control_c, 0, 64, 42
1, 390674, Control_c, 0, 64, 0
1, 390683, Note_on_c, 0, 69, 99
1, 390688, Note_on_c, 0, 62, 101
1, 390689, Note_on_c, 0, 66, 106
1, 390694, Note_on_c, 0, 38, 93
1, 390696, Note_on_c, 0, 26, 81
1, 390723, Note_off_c, 0, 62, 67
1, 390726, Control_c, 0, 64, 61
1, 390727, Note_off_c, 0, 26, 71
1, 390731, Note_off_c, 0, 38, 68
1, 390737, Note_off_c, 0, 69, 67
1, 390741, Control_c, 0, 64, 117
1, 390742, Note_off_c, 0, 66, 66
1, 390756, Control_c, 0, 64, 127
1, 390843, Note_on_c, 0, 33, 64
1, 390856, Note_on_c, 0, 45, 53
1, 390867, Note_off_c, 0, 33, 60
1, 390885, Note_off_c, 0, 45, 52
1, 390951, Note_on_c, 0, 34, 78
1, 390954, Note_on_c, 0, 46, 69
1, 390983, Note_off_c, 0, 34, 64
1, 390986, Note_off_c, 0, 46, 62
1, 391037, Control_c, 0, 64, 111
1, 391052, Control_c, 0, 64, 74
1, 391055, Note_on_c, 0, 47, 78
1, 391056, Note_on_c, 0, 35, 78
1, 391063, Note_on_c, 0, 66, 98
1, 391065, Note_on_c, 0, 62, 96
1, 391065, Note_on_c, 0, 74, 99
1, 391066, Control_c, 0, 64, 58
1, 391070, Note_on_c, 0, 69, 84
1, 391081, Note_off_c, 0, 35, 66
1, 391081, Control_c, 0, 64, 61
1, 391087, Note_off_c, 0, 47, 68
1, 391096, Control_c, 0, 64, 79
1, 391103, Note_off_c, 0, 62, 62
1, 391109, Note_on_c, 0, 71, 29
1, 391111, Note_off_c, 0, 69, 61
1, 391111, Control_c, 0, 64, 127
1, 391112, Note_off_c, 0, 66, 66
1, 391119, Note_off_c, 0, 74, 64
1, 391146, Note_off_c, 0, 71, 47
1, 391157, Note_on_c, 0, 36, 89
1, 391160, Note_on_c, 0, 48, 89
1, 391184, Note_off_c, 0, 36, 66
1, 391187, Note_off_c, 0, 48, 68
1, 391251, Note_on_c, 0, 37, 89
1, 391256, Note_on_c, 0, 49, 89
1, 391287, Note_off_c, 0, 37, 64
1, 391287, Note_off_c, 0, 49, 62
1, 391333, Control_c, 0, 64, 76
1, 391341, Note_on_c, 0, 57, 106
1, 391341, Note_on_c, 0, 66, 102
1, 391342, Note_on_c, 0, 62, 96
1, 391343, Note_on_c, 0, 69, 96
1, 391348, Control_c, 0, 64, 44
1, 391353, Note_on_c, 0, 38, 96
1, 391358, Note_on_c, 0, 50, 91
1, 391362, Note_off_c, 0, 57, 71
1, 391362, Control_c, 0, 64, 0
1, 391375, Note_off_c, 0, 62, 66
1, 391377, Control_c, 0, 64, 58
1, 391387, Note_off_c, 0, 69, 58
1, 391388, Note_off_c, 0, 66, 68
1, 391393, Note_off_c, 0, 50, 66
1, 391393, Control_c, 0, 64, 90
1, 391394, Note_off_c, 0, 38, 65
1, 391408, Control_c, 0, 64, 127
1, 391472, Note_on_c, 0, 37, 81
1, 391472, Note_on_c, 0, 49, 85
1, 391475, Poly_aftertouch_c, 0, 48, 0
1, 391500, Note_off_c, 0, 49, 66
1, 391505, Note_off_c, 0, 37, 58
1, 391570, Note_on_c, 0, 36, 86
1, 391572, Note_on_c, 0, 48, 87
1, 391603, Note_off_c, 0, 48, 66
1, 391609, Note_off_c, 0, 36, 60
1, 391623, Control_c, 0, 64, 111
1, 391638, Control_c, 0, 64, 78
1, 391653, Control_c, 0, 64, 65
1, 391663, Note_on_c, 0, 64, 99
1, 391663, Note_on_c, 0, 69, 102
1, 391664, Note_on_c, 0, 76, 92
1, 391667, Control_c, 0, 64, 73
1, 391669, Note_on_c, 0, 35, 98
1, 391669, Note_on_c, 0, 47, 96
1, 391682, Control_c, 0, 64, 127
1, 391690, Note_off_c, 0, 64, 67
1, 391698, Note_off_c, 0, 69, 68
1, 391704, Note_off_c, 0, 47, 69
1, 391708, Note_off_c, 0, 35, 63
1, 391713, Note_off_c, 0, 76, 65
1, 391767, Note_on_c, 0, 34, 96
1, 391770, Note_on_c, 0, 46, 86
1, 391773, Poly_aftertouch_c, 0, 73, 0
1, 391801, Note_off_c, 0, 34, 63
1, 391809, Note_off_c, 0, 46, 61
1, 391857, Note_on_c, 0, 33, 80
1, 391866, Note_on_c, 0, 45, 88
1, 391898, Note_off_c, 0, 45, 65
1, 391911, Note_off_c, 0, 33, 62
1, 391964, Control_c, 0, 64, 82
1, 391974, Note_on_c, 0, 78, 100
1, 391976, Note_on_c, 0, 38, 97
1, 391976, Note_on_c, 0, 69, 100
1, 391977, Note_on_c, 0, 66, 113
1, 391978, Note_on_c, 0, 26, 82
1, 391979, Control_c, 0, 64, 46
1, 391993, Control_c, 0, 64, 0
1, 391994, Note_on_c, 0, 74, 73
1, 392001, Note_on_c, 0, 70, 44
1, 392001, Note_off_c, 0, 70, 127
1, 392002, Note_off_c, 0, 26, 71
1, 392019, Note_off_c, 0, 38, 63
1, 392023, Control_c, 0, 64, 30
1, 392038, Control_c, 0, 64, 59
1, 392053, Control_c, 0, 64, 97
1, 392067, Control_c, 0, 64, 127
1, 392116, Note_off_c, 0, 74, 47
1, 392121, Note_on_c, 0, 31, 69
1, 392132, Note_on_c, 0, 45, 70
1, 392149, Note_on_c, 0, 33, 40
1, 392154, Note_off_c, 0, 31, 63
1, 392163, Note_off_c, 0, 45, 64
1, 392186, Note_off_c, 0, 33, 51
1, 392217, Note_off_c, 0, 66, 0
1, 392229, Note_on_c, 0, 34, 86
1, 392233, Note_on_c, 0, 46, 80
1, 392252, Note_off_c, 0, 34, 67
1, 392254, Poly_aftertouch_c, 0, 66, 127
1, 392256, Note_off_c, 0, 46, 66
1, 392270, Note_on_c, 0, 66, 11
1, 392312, Note_on_c, 0, 35, 89
1, 392312, Note_on_c, 0, 47, 90
1, 392342, Note_off_c, 0, 47, 67
1, 392344, Note_off_c, 0, 69, 32
1, 392345, Note_off_c, 0, 35, 66
1, 392351, Note_off_c, 0, 66, 61
1, 392370, Poly_aftertouch_c, 0, 34, 127
1, 392411, Note_on_c, 0, 48, 104
1, 392411, Note_on_c, 0, 36, 94
1, 392411, Poly_aftertouch_c, 0, 34, 0
1, 392437, Note_off_c, 0, 36, 68
1, 392444, Note_off_c, 0, 48, 66
1, 392503, Note_on_c, 0, 37, 93
1, 392503, Note_on_c, 0, 49, 95
1, 392508, Poly_aftertouch_c, 0, 38, 127
1, 392537, Note_off_c, 0, 37, 63
1, 392541, Note_off_c, 0, 49, 64
1, 392548, Poly_aftertouch_c, 0, 38, 0
1, 392549, Control_c, 0, 64, 89
1, 392554, Note_off_c, 0, 78, 55
1, 392564, Control_c, 0, 64, 47
1, 392579, Control_c, 0, 64, 0
1, 392590, Note_on_c, 0, 69, 99
1, 392590, Note_on_c, 0, 74, 96
1, 392591, Note_on_c, 0, 66, 109
1, 392594, Control_c, 0, 64, 51
1, 392599, Note_on_c, 0, 78, 70
1, 392601, Note_on_c, 0, 38, 101
1, 392601, Note_on_c, 0, 50, 105
1, 392608, Control_c, 0, 64, 83
1, 392613, Note_off_c, 0, 66, 68
1, 392621, Note_off_c, 0, 78, 68
1, 392623, Control_c, 0, 64, 127
1, 392628, Note_off_c, 0, 69, 67
1, 392630, Note_on_c, 0, 68, 16
1, 392630, Note_off_c, 0, 68, 127
1, 392630, Note_off_c, 0, 74, 70
1, 392633, Note_off_c, 0, 38, 63
1, 392637, Note_off_c, 0, 50, 69
1, 392716, Note_on_c, 0, 49, 94
1, 392720, Note_on_c, 0, 37, 88
1, 392748, Note_off_c, 0, 49, 62
1, 392749, Note_off_c, 0, 37, 67
1, 392822, Note_on_c, 0, 36, 93
1, 392826, Note_on_c, 0, 48, 94
1, 392838, Poly_aftertouch_c, 0, 66, 127
1, 392852, Note_on_c, 0, 37, 43
1, 392866, Note_off_c, 0, 48, 62
1, 392872, Note_off_c, 0, 37, 67
1, 392873, Note_off_c, 0, 36, 62
1, 392879, Poly_aftertouch_c, 0, 66, 0
1, 392932, Note_on_c, 0, 62, 101
1, 392932, Note_on_c, 0, 66, 107
1, 392938, Note_on_c, 0, 69, 87
1, 392940, Note_on_c, 0, 35, 98
1, 392942, Note_on_c, 0, 47, 102
1, 392976, Note_off_c, 0, 62, 68
1, 392989, Note_off_c, 0, 66, 67
1, 392992, Note_off_c, 0, 69, 66
1, 392993, Note_off_c, 0, 35, 66
1, 392994, Note_off_c, 0, 47, 67
1, 393077, Note_on_c, 0, 34, 100
1, 393080, Note_on_c, 0, 46, 91
1, 393083, Note_on_c, 0, 69, 105
1, 393085, Note_on_c, 0, 74, 105
1, 393126, Note_off_c, 0, 34, 63
1, 393126, Note_off_c, 0, 46, 63
1, 393129, Note_off_c, 0, 69, 67
1, 393135, Note_off_c, 0, 74, 67
1, 393198, Note_on_c, 0, 33, 94
1, 393201, Note_on_c, 0, 45, 91
1, 393204, Note_on_c, 0, 69, 103
1, 393204, Note_on_c, 0, 78, 111
1, 393207, Note_on_c, 0, 74, 104
1, 393239, Note_on_c, 0, 81, 37
1, 393243, Note_off_c, 0, 45, 65
1, 393249, Note_off_c, 0, 33, 63
1, 393272, Note_off_c, 0, 74, 52
1, 393275, Note_off_c, 0, 81, 51
1, 393279, Note_off_c, 0, 69, 54
1, 393293, Note_off_c, 0, 78, 63
1, 393347, Note_on_c, 0, 81, 107
1, 393351, Note_on_c, 0, 69, 104
1, 393353, Note_on_c, 0, 78, 100
1, 393354, Note_on_c, 0, 26, 75
1, 393355, Note_on_c, 0, 38, 97
1, 393355, Note_on_c, 0, 74, 99
1, 393357, Control_c, 0, 64, 83
1, 393372, Control_c, 0, 64, 48
1, 393387, Control_c, 0, 64, 0
1, 393389, Note_off_c, 0, 38, 65
1, 393389, Note_off_c, 0, 26, 66
1, 393392, Note_on_c, 0, 79, 37
1, 393417, Control_c, 0, 64, 47
1, 393423, Note_off_c, 0, 79, 33
1, 393431, Control_c, 0, 64, 71
1, 393446, Control_c, 0, 64, 127
1, 393497, Note_on_c, 0, 33, 83
1, 393518, Note_on_c, 0, 45, 61
1, 393521, Note_on_c, 0, 43, 50
1, 393527, Note_off_c, 0, 33, 65
1, 393544, Note_off_c, 0, 45, 57
1, 393552, Note_off_c, 0, 43, 52
1, 393607, Note_on_c, 0, 34, 77
1, 393610, Note_on_c, 0, 46, 70
1, 393627, Note_off_c, 0, 74, 0
1, 393631, Note_off_c, 0, 46, 62
1, 393636, Note_off_c, 0, 34, 67
1, 393664, Poly_aftertouch_c, 0, 74, 127
1, 393684, Note_on_c, 0, 47, 78
1, 393687, Note_on_c, 0, 35, 92
1, 393720, Note_off_c, 0, 35, 65
1, 393723, Note_off_c, 0, 47, 67
1, 393775, Poly_aftertouch_c, 0, 74, 0
1, 393789, Note_on_c, 0, 36, 94
1, 393793, Note_on_c, 0, 48, 94
1, 393818, Note_off_c, 0, 36, 65
1, 393820, Note_off_c, 0, 48, 66
1, 393880, Note_on_c, 0, 49, 98
1, 393883, Note_on_c, 0, 37, 87
1, 393902, Note_off_c, 0, 81, 54
1, 393904, Note_off_c, 0, 49, 65
1, 393910, Note_off_c, 0, 37, 66
1, 393917, Note_off_c, 0, 78, 56
1, 393924, Note_off_c, 0, 69, 53
1, 393943, Control_c, 0, 64, 77
1, 393958, Control_c, 0, 64, 43
1, 393964, Note_on_c, 0, 76, 100
1, 393966, Note_on_c, 0, 69, 82
1, 393970, Note_on_c, 0, 81, 96
1, 393972, Note_on_c, 0, 50, 76
1, 393973, Note_on_c, 0, 38, 91
1, 393973, Control_c, 0, 64, 0
1, 393988, Control_c, 0, 64, 51
1, 393997, Note_on_c, 0, 77, 47
1, 393998, Note_on_c, 0, 39, 46
1, 394003, Control_c, 0, 64, 83
1, 394012, Note_off_c, 0, 50, 65
1, 394018, Note_off_c, 0, 38, 62
1, 394018, Control_c, 0, 64, 127
1, 394021, Note_off_c, 0, 77, 56
1, 394038, Note_off_c, 0, 39, 55
1, 394067, Poly_aftertouch_c, 0, 37, 0
1, 394074, Note_on_c, 0, 49, 89
1, 394076, Note_on_c, 0, 37, 74
1, 394097, Note_off_c, 0, 49, 69
1, 394102, Note_off_c, 0, 37, 66
1, 394127, Note_off_c, 0, 69, 56
1, 394173, Note_on_c, 0, 36, 87
1, 394174, Note_on_c, 0, 48, 92
1, 394188, Note_on_c, 0, 38, 61
1, 394195, Note_off_c, 0, 36, 73
1, 394198, Note_off_c, 0, 48, 68
1, 394214, Note_off_c, 0, 38, 57
1, 394262, Note_on_c, 0, 35, 99
1, 394262, Note_on_c, 0, 47, 100
1, 394274, Note_off_c, 0, 76, 57
1, 394288, Note_on_c, 0, 36, 52
1, 394291, Note_off_c, 0, 35, 66
1, 394300, Note_off_c, 0, 47, 67
1, 394317, Note_off_c, 0, 36, 60
1, 394348, Note_off_c, 0, 81, 57
1, 394354, Note_on_c, 0, 34, 102
1, 394355, Note_on_c, 0, 46, 96
1, 394395, Note_off_c, 0, 34, 65
1, 394396, Note_off_c, 0, 46, 65
1, 394429, Note_on_c, 0, 81, 107
1, 394429, Note_on_c, 0, 76, 104
1, 394435, Note_on_c, 0, 69, 105
1, 394466, Note_on_c, 0, 77, 52
1, 394479, Note_on_c, 0, 45, 93
1, 394481, Note_on_c, 0, 35, 90
1, 394483, Note_on_c, 0, 33, 96
1, 394489, Note_off_c, 0, 77, 59
1, 394508, Note_off_c, 0, 33, 63
1, 394518, Note_off_c, 0, 45, 62
1, 394522, Note_off_c, 0, 69, 57
1, 394524, Note_off_c, 0, 35, 61
1, 394540, Note_off_c, 0, 76, 62
1, 394558, Note_off_c, 0, 81, 59
1, 394618, Note_on_c, 0, 28, 100
1, 394623, Note_on_c, 0, 81, 99
1, 394624, Note_on_c, 0, 74, 105
1, 394624, Note_on_c, 0, 78, 100
1, 394626, Note_on_c, 0, 69, 108
1, 394626, Note_on_c, 0, 40, 92
1, 394630, Note_on_c, 0, 38, 88
1, 394633, Control_c, 0, 64, 75
1, 394648, Control_c, 0, 64, 37
1, 394658, Note_off_c, 0, 38, 65
1, 394658, Note_off_c, 0, 40, 65
1, 394661, Note_off_c, 0, 28, 64
1, 394663, Control_c, 0, 64, 0
1, 394692, Control_c, 0, 64, 43
1, 394707, Control_c, 0, 64, 79
1, 394722, Control_c, 0, 64, 127
1, 394764, Note_on_c, 0, 45, 78
1, 394778, Note_on_c, 0, 33, 53
1, 394788, Note_off_c, 0, 45, 66
1, 394813, Note_off_c, 0, 33, 50
1, 394858, Note_on_c, 0, 46, 89
1, 394861, Note_on_c, 0, 34, 76
1, 394878, Note_off_c, 0, 46, 68
1, 394889, Note_off_c, 0, 34, 56
1, 394933, Note_on_c, 0, 47, 82
1, 394936, Note_on_c, 0, 35, 92
1, 394962, Note_off_c, 0, 35, 65
1, 394968, Note_off_c, 0, 47, 66
1, 394969, Note_on_c, 0, 48, 41
1, 394969, Note_off_c, 0, 48, 127
1, 395004, Poly_aftertouch_c, 0, 48, 0
1, 395031, Note_on_c, 0, 36, 101
1, 395031, Note_on_c, 0, 48, 103
1, 395061, Note_off_c, 0, 36, 62
1, 395072, Note_off_c, 0, 48, 66
1, 395129, Note_on_c, 0, 49, 106
1, 395138, Note_on_c, 0, 37, 92
1, 395152, Control_c, 0, 64, 69
1, 395156, Note_off_c, 0, 49, 61
1, 395163, Note_off_c, 0, 37, 66
1, 395167, Control_c, 0, 64, 0
1, 395173, Note_off_c, 0, 74, 53
1, 395185, Note_off_c, 0, 69, 0
1, 395197, Note_on_c, 0, 69, 73
1, 395197, Control_c, 0, 64, 48
1, 395219, Control_c, 0, 64, 85
1, 395224, Note_on_c, 0, 50, 93
1, 395227, Note_on_c, 0, 38, 107
1, 395229, Poly_aftertouch_c, 0, 74, 127
1, 395234, Control_c, 0, 64, 127
1, 395242, Note_on_c, 0, 39, 44
1, 395242, Note_off_c, 0, 81, 61
1, 395254, Note_off_c, 0, 69, 64
1, 395259, Note_off_c, 0, 38, 63
1, 395267, Note_off_c, 0, 50, 65
1, 395270, Poly_aftertouch_c, 0, 74, 0
1, 395277, Note_off_c, 0, 39, 49
1, 395281, Note_off_c, 0, 78, 66
1, 395350, Poly_aftertouch_c, 0, 40, 0
1, 395352, Note_on_c, 0, 49, 93
1, 395354, Note_on_c, 0, 37, 69
1, 395379, Note_off_c, 0, 49, 62
1, 395389, Note_off_c, 0, 37, 62
1, 395460, Note_on_c, 0, 36, 93
1, 395461, Note_on_c, 0, 48, 97
1, 395483, Note_on_c, 0, 38, 49
1, 395500, Note_off_c, 0, 48, 62
1, 395508, Note_off_c, 0, 36, 63
1, 395517, Note_off_c, 0, 38, 34
1, 395568, Note_on_c, 0, 66, 84
1, 395572, Note_on_c, 0, 35, 96
1, 395572, Note_on_c, 0, 62, 94
1, 395574, Note_on_c, 0, 47, 103
1, 395574, Note_on_c, 0, 69, 96
1, 395605, Note_off_c, 0, 62, 66
1, 395615, Note_off_c, 0, 69, 69
1, 395615, Note_off_c, 0, 66, 66
1, 395616, Note_off_c, 0, 35, 66
1, 395617, Note_off_c, 0, 47, 66
1, 395692, Note_on_c, 0, 69, 99
1, 395693, Note_on_c, 0, 34, 97
1, 395693, Note_on_c, 0, 74, 109
1, 395695, Note_on_c, 0, 46, 88
1, 395732, Note_off_c, 0, 74, 67
1, 395732, Note_off_c, 0, 69, 66
1, 395740, Note_off_c, 0, 46, 61
1, 395744, Note_off_c, 0, 34, 59
1, 395803, Note_on_c, 0, 78, 103
1, 395804, Note_on_c, 0, 74, 104
1, 395805, Note_on_c, 0, 45, 95
1, 395805, Note_on_c, 0, 69, 103
1, 395806, Note_on_c, 0, 33, 94
1, 395844, Note_off_c, 0, 74, 66
1, 395847, Note_off_c, 0, 45, 65
1, 395852, Note_off_c, 0, 69, 57
1, 395856, Note_off_c, 0, 33, 63
1, 395875, Note_off_c, 0, 78, 55
1, 395961, Note_on_c, 0, 81, 103
1, 395963, Note_on_c, 0, 69, 103
1, 395965, Note_on_c, 0, 78, 96
1, 395967, Control_c, 0, 64, 92
1, 395967, Note_on_c, 0, 74, 96
1, 395968, Note_on_c, 0, 26, 75
1, 395970, Note_on_c, 0, 38, 106
1, 395982, Control_c, 0, 64, 59
1, 395997, Control_c, 0, 64, 0
1, 396006, Note_off_c, 0, 26, 66
1, 396018, Note_off_c, 0, 38, 61
1, 396026, Control_c, 0, 64, 36
1, 396041, Control_c, 0, 64, 65
1, 396056, Control_c, 0, 64, 111
1, 396071, Control_c, 0, 64, 127
1, 396113, Note_on_c, 0, 33, 85
1, 396121, Note_on_c, 0, 45, 81
1, 396146, Note_off_c, 0, 33, 62
1, 396147, Note_off_c, 0, 45, 65
1, 396220, Note_on_c, 0, 34, 84
1, 396224, Note_on_c, 0, 46, 81
1, 396242, Note_off_c, 0, 34, 68
1, 396248, Note_off_c, 0, 46, 65
1, 396289, Poly_aftertouch_c, 0, 44, 127
1, 396302, Note_on_c, 0, 47, 90
1, 396305, Note_on_c, 0, 35, 91
1, 396325, Poly_aftertouch_c, 0, 44, 0
1, 396326, Note_off_c, 0, 35, 67
1, 396328, Note_off_c, 0, 74, 59
1, 396334, Note_off_c, 0, 47, 64
1, 396336, Note_off_c, 0, 69, 50
1, 396349, Note_off_c, 0, 78, 55
1, 396397, Poly_aftertouch_c, 0, 34, 0
1, 396399, Note_on_c, 0, 48, 109
1, 396400, Note_on_c, 0, 36, 100
1, 396429, Note_off_c, 0, 36, 69
1, 396435, Note_off_c, 0, 48, 67
1, 396475, Poly_aftertouch_c, 0, 35, 0
1, 396486, Note_off_c, 0, 81, 48
1, 396498, Note_on_c, 0, 49, 108
1, 396501, Note_on_c, 0, 37, 87
1, 396518, Note_off_c, 0, 49, 67
1, 396526, Note_off_c, 0, 37, 67
1, 396533, Note_on_c, 0, 39, 43
1, 396545, Control_c, 0, 64, 86
1, 396560, Control_c, 0, 64, 54
1, 396566, Note_off_c, 0, 39, 54
1, 396574, Control_c, 0, 64, 0
1, 396580, Note_on_c, 0, 76, 102
1, 396581, Note_on_c, 0, 69, 99
1, 396581, Note_on_c, 0, 81, 104
1, 396589, Control_c, 0, 64, 34
1, 396596, Note_on_c, 0, 38, 92
1, 396596, Note_on_c, 0, 50, 71
1, 396602, Note_on_c, 0, 77, 58
1, 396602, Note_off_c, 0, 77, 127
1, 396604, Control_c, 0, 64, 60
1, 396605, Note_on_c, 0, 36, 87
1, 396606, Note_on_c, 0, 48, 74
1, 396619, Control_c, 0, 64, 87
1, 396623, Note_off_c, 0, 36, 64
1, 396623, Note_off_c, 0, 38, 69
1, 396624, Note_off_c, 0, 48, 66
1, 396632, Note_off_c, 0, 50, 64
1, 396634, Control_c, 0, 64, 127
1, 396713, Note_on_c, 0, 49, 93
1, 396720, Note_on_c, 0, 37, 74
1, 396743, Note_off_c, 0, 49, 67
1, 396747, Poly_aftertouch_c, 0, 36, 127
1, 396756, Note_off_c, 0, 37, 62
1, 396775, Control_c, 0, 64, 115
1, 396787, Poly_aftertouch_c, 0, 36, 0
1, 396789, Control_c, 0, 64, 101
1, 396804, Control_c, 0, 64, 110
1, 396815, Note_on_c, 0, 48, 87
1, 396816, Note_on_c, 0, 36, 72
1, 396819, Control_c, 0, 64, 127
1, 396841, Note_off_c, 0, 48, 68
1, 396845, Note_on_c, 0, 38, 29
1, 396852, Note_off_c, 0, 36, 60
1, 396876, Note_off_c, 0, 38, 51
1, 396916, Note_on_c, 0, 47, 91
1, 396918, Note_on_c, 0, 35, 90
1, 396945, Note_on_c, 0, 36, 52
1, 396951, Note_off_c, 0, 35, 64
1, 396955, Note_off_c, 0, 47, 62
1, 396979, Note_off_c, 0, 36, 57
1, 396979, Note_off_c, 0, 76, 57
1, 396984, Note_off_c, 0, 69, 55
1, 396997, Note_off_c, 0, 81, 60
1, 397019, Note_on_c, 0, 46, 94
1, 397020, Note_on_c, 0, 34, 95
1, 397070, Note_off_c, 0, 46, 62
1, 397078, Note_off_c, 0, 34, 62
1, 397080, Note_on_c, 0, 76, 92
1, 397083, Note_on_c, 0, 81, 94
1, 397085, Note_on_c, 0, 69, 89
1, 397143, Note_on_c, 0, 33, 84
1, 397147, Note_on_c, 0, 45, 80
1, 397192, Note_off_c, 0, 33, 59
1, 397196, Note_off_c, 0, 76, 62
1, 397198, Note_off_c, 0, 45, 62
1, 397198, Note_off_c, 0, 69, 61
1, 397233, Note_off_c, 0, 81, 61
1, 397249, Control_c, 0, 64, 98
1, 397264, Control_c, 0, 64, 60
1, 397279, Control_c, 0, 64, 0
1, 397305, Note_on_c, 0, 81, 75
1, 397306, Note_on_c, 0, 74, 82
1, 397308, Note_on_c, 0, 38, 78
1, 397308, Control_c, 0, 64, 48
1, 397310, Note_on_c, 0, 69, 81
1, 397310, Note_on_c, 0, 78, 79
1, 397317, Note_on_c, 0, 50, 70
1, 397323, Control_c, 0, 64, 71
1, 397338, Control_c, 0, 64, 127
1, 397347, Note_off_c, 0, 50, 67
1, 397348, Note_off_c, 0, 38, 61
1, 397431, Note_on_c, 0, 49, 81
1, 397434, Note_on_c, 0, 37, 76
1, 397471, Note_off_c, 0, 49, 62
1, 397475, Note_off_c, 0, 37, 63
1, 397553, Note_on_c, 0, 36, 79
1, 397556, Note_on_c, 0, 48, 78
1, 397573, Note_off_c, 0, 81, 62
1, 397574, Note_off_c, 0, 74, 61
1, 397577, Note_off_c, 0, 69, 59
1, 397582, Note_off_c, 0, 48, 64
1, 397585, Note_off_c, 0, 36, 63
1, 397586, Note_off_c, 0, 78, 60
1, 397612, Control_c, 0, 64, 93
1, 397627, Control_c, 0, 64, 74
1, 397642, Note_on_c, 0, 76, 87
1, 397642, Control_c, 0, 64, 70
1, 397646, Note_on_c, 0, 81, 80
1, 397651, Note_on_c, 0, 69, 77
1, 397656, Control_c, 0, 64, 80
1, 397659, Note_on_c, 0, 35, 90
1, 397662, Note_on_c, 0, 47, 84
1, 397671, Control_c, 0, 64, 127
1, 397687, Note_off_c, 0, 35, 67
1, 397687, Note_off_c, 0, 47, 69
1, 397755, Note_on_c, 0, 46, 90
1, 397757, Note_on_c, 0, 34, 85
1, 397769, Note_off_c, 0, 76, 63
1, 397786, Note_off_c, 0, 34, 65
1, 397788, Note_off_c, 0, 46, 61
1, 397853, Note_on_c, 0, 33, 82
1, 397858, Note_on_c, 0, 45, 75
1, 397860, Note_off_c, 0, 69, 22
1, 397876, Note_off_c, 0, 33, 64
1, 397884, Note_off_c, 0, 45, 66
1, 397888, Note_off_c, 0, 81, 52
1, 397953, Control_c, 0, 64, 76
1, 397958, Note_on_c, 0, 69, 77
1, 397959, Note_on_c, 0, 74, 78
1, 397961, Note_on_c, 0, 78, 73
1, 397962, Note_on_c, 0, 81, 69
1, 397968, Note_on_c, 0, 38, 83
1, 397968, Control_c, 0, 64, 59
1, 397970, Note_on_c, 0, 50, 83
1, 397983, Control_c, 0, 64, 62
1, 397997, Note_off_c, 0, 38, 68
1, 397998, Note_off_c, 0, 50, 65
1, 397998, Control_c, 0, 64, 73
1, 398013, Control_c, 0, 64, 100
1, 398027, Control_c, 0, 64, 127
1, 398076, Note_on_c, 0, 49, 88
1, 398081, Note_on_c, 0, 37, 77
1, 398101, Note_off_c, 0, 49, 66
1, 398107, Note_off_c, 0, 37, 65
1, 398161, Control_c, 0, 64, 102
1, 398172, Note_off_c, 0, 69, 59
1, 398175, Note_off_c, 0, 81, 61
1, 398176, Note_on_c, 0, 36, 90
1, 398176, Control_c, 0, 64, 72
1, 398176, Note_on_c, 0, 48, 93
1, 398185, Note_off_c, 0, 74, 62
1, 398185, Note_off_c, 0, 78, 59
1, 398191, Control_c, 0, 64, 61
1, 398210, Note_off_c, 0, 36, 69
1, 398212, Note_off_c, 0, 48, 67
1, 398213, Control_c, 0, 64, 64
1, 398227, Control_c, 0, 64, 72
1, 398242, Control_c, 0, 64, 88
1, 398247, Note_on_c, 0, 76, 94
1, 398252, Note_on_c, 0, 81, 88
1, 398257, Control_c, 0, 64, 127
1, 398258, Note_on_c, 0, 69, 85
1, 398276, Note_on_c, 0, 35, 96
1, 398278, Note_on_c, 0, 47, 99
1, 398309, Note_off_c, 0, 47, 65
1, 398312, Note_off_c, 0, 35, 65
1, 398351, Note_off_c, 0, 69, 58
1, 398370, Note_on_c, 0, 46, 98
1, 398382, Note_on_c, 0, 32, 86
1, 398394, Note_on_c, 0, 34, 64
1, 398408, Note_off_c, 0, 46, 64
1, 398410, Note_on_c, 0, 44, 36
1, 398410, Note_off_c, 0, 44, 127
1, 398413, Note_off_c, 0, 76, 38
1, 398414, Note_off_c, 0, 32, 62
1, 398428, Note_off_c, 0, 34, 59
1, 398443, Poly_aftertouch_c, 0, 44, 0
1, 398472, Poly_aftertouch_c, 0, 69, 127
1, 398478, Note_on_c, 0, 34, 94
1, 398479, Note_on_c, 0, 46, 87
1, 398502, Note_off_c, 0, 34, 70
1, 398502, Note_off_c, 0, 46, 69
1, 398511, Note_off_c, 0, 81, 59
1, 398522, Poly_aftertouch_c, 0, 69, 0
1, 398539, Control_c, 0, 64, 80
1, 398553, Control_c, 0, 64, 51
1, 398569, Control_c, 0, 64, 0
1, 398580, Note_on_c, 0, 37, 93
1, 398580, Note_on_c, 0, 77, 93
1, 398581, Note_on_c, 0, 69, 97
1, 398581, Note_on_c, 0, 49, 98
1, 398581, Note_on_c, 0, 81, 93
1, 398584, Control_c, 0, 64, 38
1, 398599, Control_c, 0, 64, 62
1, 398609, Note_off_c, 0, 49, 60
1, 398614, Control_c, 0, 64, 94
1, 398629, Control_c, 0, 64, 127
1, 398631, Note_off_c, 0, 37, 59
1, 398688, Note_on_c, 0, 48, 91
1, 398695, Note_on_c, 0, 36, 74
1, 398698, Note_on_c, 0, 35, 75
1, 398720, Note_off_c, 0, 48, 64
1, 398724, Note_off_c, 0, 35, 63
1, 398731, Note_off_c, 0, 77, 60
1, 398732, Note_off_c, 0, 36, 62
1, 398732, Note_off_c, 0, 69, 58
1, 398738, Note_off_c, 0, 81, 63
1, 398787, Note_on_c, 0, 35, 96
1, 398790, Note_on_c, 0, 47, 87
1, 398832, Note_off_c, 0, 35, 62
1, 398832, Note_off_c, 0, 47, 65
1, 398836, Control_c, 0, 64, 87
1, 398850, Control_c, 0, 64, 73
1, 398865, Control_c, 0, 64, 78
1, 398880, Control_c, 0, 64, 127
1, 398900, Note_on_c, 0, 82, 90
1, 398903, Note_on_c, 0, 49, 99
1, 398904, Note_on_c, 0, 37, 99
1, 398909, Note_on_c, 0, 77, 72
1, 398910, Note_on_c, 0, 70, 86
1, 398911, Note_on_c, 0, 73, 81
1, 398930, Note_on_c, 0, 80, 56
1, 398933, Note_on_c, 0, 50, 51
1, 398938, Note_off_c, 0, 49, 62
1, 398941, Note_on_c, 0, 39, 43
1, 398958, Note_off_c, 0, 80, 58
1, 398959, Note_off_c, 0, 37, 63
1, 398966, Note_off_c, 0, 50, 62
1, 398984, Note_off_c, 0, 39, 50
1, 399022, Note_on_c, 0, 46, 97
1, 399025, Note_on_c, 0, 34, 105
1, 399066, Note_off_c, 0, 34, 65
1, 399067, Note_off_c, 0, 46, 64
1, 399134, Note_on_c, 0, 45, 99
1, 399135, Note_on_c, 0, 33, 96
1, 399163, Note_off_c, 0, 33, 66
1, 399176, Note_off_c, 0, 45, 63
1, 399177, Note_off_c, 0, 70, 62
1, 399178, Note_off_c, 0, 73, 53
1, 399204, Note_off_c, 0, 82, 60
1, 399222, Note_off_c, 0, 77, 58
1, 399264, Note_on_c, 0, 49, 101
1, 399266, Note_on_c, 0, 37, 103
1, 399273, Note_on_c, 0, 69, 95
1, 399274, Note_on_c, 0, 81, 90
1, 399277, Note_on_c, 0, 77, 76
1, 399279, Note_on_c, 0, 73, 91
1, 399297, Note_off_c, 0, 49, 68
1, 399317, Control_c, 0, 64, 81
1, 399318, Note_off_c, 0, 37, 64
1, 399332, Control_c, 0, 64, 63
1, 399347, Control_c, 0, 64, 65
1, 399362, Control_c, 0, 64, 87
1, 399377, Control_c, 0, 64, 127
1, 399382, Poly_aftertouch_c, 0, 39, 0
1, 399398, Note_on_c, 0, 32, 100
1, 399400, Note_on_c, 0, 44, 98
1, 399445, Note_off_c, 0, 32, 61
1, 399446, Note_off_c, 0, 44, 63
1, 399460, Note_off_c, 0, 81, 61
1, 399490, Note_off_c, 0, 69, 59
1, 399523, Note_on_c, 0, 31, 96
1, 399526, Note_on_c, 0, 43, 104
1, 399537, Note_off_c, 0, 73, 57
1, 399562, Note_off_c, 0, 31, 65
1, 399572, Note_off_c, 0, 43, 63
1, 399577, Note_on_c, 0, 32, 26
1, 399596, Note_off_c, 0, 32, 64
1, 399622, Note_off_c, 0, 77, 61
1, 399672, Note_on_c, 0, 37, 107
1, 399672, Note_on_c, 0, 49, 98
1, 399673, Note_on_c, 0, 82, 101
1, 399675, Note_on_c, 0, 77, 76
1, 399675, Note_on_c, 0, 73, 98
1, 399678, Note_on_c, 0, 70, 102
1, 399688, Note_on_c, 0, 32, 13
1, 399708, Note_on_c, 0, 36, 61
1, 399708, Note_off_c, 0, 49, 65
1, 399736, Note_off_c, 0, 32, 51
1, 399737, Note_off_c, 0, 37, 62
1, 399738, Note_off_c, 0, 36, 55
1, 399762, Note_off_c, 0, 70, 59
1, 399783, Note_off_c, 0, 73, 64
1, 399804, Note_off_c, 0, 77, 65
1, 399821, Poly_aftertouch_c, 0, 79, 0
1, 399836, Note_off_c, 0, 82, 64
1, 399838, Note_on_c, 0, 30, 100
1, 399839, Note_on_c, 0, 42, 100
1, 399890, Note_off_c, 0, 42, 63
1, 399914, Note_off_c, 0, 30, 62
1, 399939, Poly_aftertouch_c, 0, 29, 127
1, 399970, Poly_aftertouch_c, 0, 29, 0
1, 400000, Note_on_c, 0, 29, 89
1, 400003, Note_on_c, 0, 41, 102
1, 400017, Note_on_c, 0, 78, 10
1, 400033, Note_on_c, 0, 30, 52
1, 400063, Note_off_c, 0, 78, 28
1, 400065, Note_off_c, 0, 30, 54
1, 400066, Note_off_c, 0, 41, 59
1, 400145, Note_off_c, 0, 29, 46
1, 400241, Note_on_c, 0, 28, 106
1, 400241, Note_on_c, 0, 40, 108
1, 400244, Note_on_c, 0, 73, 115
1, 400245, Control_c, 0, 64, 96
1, 400245, Note_on_c, 0, 85, 109
1, 400246, Note_on_c, 0, 79, 96
1, 400249, Note_on_c, 0, 82, 95
1, 400260, Control_c, 0, 64, 64
1, 400274, Control_c, 0, 64, 58
1, 400289, Control_c, 0, 64, 84
1, 400292, Note_off_c, 0, 28, 66
1, 400294, Note_off_c, 0, 40, 66
1, 400304, Control_c, 0, 64, 127
1, 400383, Note_off_c, 0, 85, 50
1, 400429, Note_off_c, 0, 82, 58
1, 400429, Note_off_c, 0, 79, 60
1, 400465, Note_off_c, 0, 73, 58
1, 400741, Control_c, 0, 64, 64
1, 400755, Control_c, 0, 64, 0
1, 401038, Control_c, 0, 64, 37
1, 401052, Control_c, 0, 64, 41
1, 401067, Control_c, 0, 64, 47
1, 401082, Control_c, 0, 64, 53
1, 401097, Control_c, 0, 64, 58
1, 401112, Control_c, 0, 64, 60
1, 401127, Control_c, 0, 64, 60
1, 401171, Control_c, 0, 64, 61
1, 401186, Control_c, 0, 64, 62
1, 401189, Note_on_c, 0, 64, 65
1, 401206, Note_on_c, 0, 28, 63
1, 401208, Control_c, 0, 64, 63
1, 401217, Note_on_c, 0, 52, 42
1, 401223, Note_on_c, 0, 40, 45
1, 401223, Control_c, 0, 64, 63
1, 401238, Control_c, 0, 64, 65
1, 401252, Control_c, 0, 64, 68
1, 401267, Control_c, 0, 64, 73
1, 401282, Control_c, 0, 64, 83
1, 401297, Control_c, 0, 64, 100
1, 401312, Control_c, 0, 64, 127
1, 401322, Note_off_c, 0, 28, 48
1, 401337, Note_off_c, 0, 52, 57
1, 401361, Note_off_c, 0, 40, 61
1, 401446, Note_on_c, 0, 65, 70
1, 401453, Note_on_c, 0, 53, 59
1, 401459, Note_on_c, 0, 41, 62
1, 401461, Note_on_c, 0, 29, 61
1, 401497, Note_off_c, 0, 29, 59
1, 401512, Note_off_c, 0, 41, 59
1, 401528, Note_off_c, 0, 53, 59
1, 401575, Note_off_c, 0, 64, 51
1, 401607, Note_off_c, 0, 65, 54
1, 401609, Note_on_c, 0, 67, 79
1, 401613, Note_on_c, 0, 31, 65
1, 401619, Note_on_c, 0, 43, 65
1, 401620, Note_on_c, 0, 55, 69
1, 401645, Note_off_c, 0, 31, 62
1, 401648, Note_off_c, 0, 55, 65
1, 401649, Note_off_c, 0, 43, 63
1, 401664, Note_off_c, 0, 67, 62
1, 401735, Note_on_c, 0, 68, 83
1, 401738, Note_on_c, 0, 44, 67
1, 401739, Note_on_c, 0, 32, 66
1, 401747, Note_on_c, 0, 56, 73
1, 401762, Note_off_c, 0, 44, 63
1, 401770, Note_off_c, 0, 32, 59
1, 401777, Note_off_c, 0, 56, 65
1, 401783, Note_off_c, 0, 68, 62
1, 401815, Poly_aftertouch_c, 0, 46, 127
1, 401833, Note_on_c, 0, 34, 74
1, 401836, Note_on_c, 0, 46, 33
1, 401837, Note_on_c, 0, 70, 99
1, 401845, Note_on_c, 0, 58, 90
1, 401876, Note_off_c, 0, 34, 64
1, 401878, Note_off_c, 0, 58, 62
1, 401884, Note_off_c, 0, 46, 62
1, 401893, Note_off_c, 0, 70, 64
1, 401952, Note_on_c, 0, 72, 98
1, 401953, Note_on_c, 0, 48, 101
1, 401953, Note_on_c, 0, 36, 93
1, 401956, Note_on_c, 0, 60, 94
1, 402004, Note_off_c, 0, 60, 66
1, 402021, Note_off_c, 0, 48, 64
1, 402022, Note_off_c, 0, 36, 51
1, 402072, Note_off_c, 0, 72, 59
1, 402091, Control_c, 0, 64, 107
1, 402102, Note_on_c, 0, 73, 92
1, 402106, Control_c, 0, 64, 70
1, 402109, Note_on_c, 0, 61, 89
1, 402110, Note_on_c, 0, 48, 65
1, 402114, Note_on_c, 0, 37, 83
1, 402120, Control_c, 0, 64, 42
1, 402128, Note_on_c, 0, 49, 20
1, 402129, Note_off_c, 0, 48, 62
1, 402135, Control_c, 0, 64, 0
1, 402164, Note_on_c, 0, 50, 3
1, 402177, Note_off_c, 0, 49, 28
1, 402180, Control_c, 0, 64, 37
1, 402194, Control_c, 0, 64, 61
1, 402206, Note_off_c, 0, 50, 27
1, 402209, Control_c, 0, 64, 85
1, 402224, Control_c, 0, 64, 127
1, 402229, Note_off_c, 0, 37, 59
1, 402229, Note_off_c, 0, 73, 63
1, 402245, Note_off_c, 0, 61, 63
1, 402328, Note_on_c, 0, 31, 70
1, 402331, Note_on_c, 0, 43, 66
1, 402355, Note_on_c, 0, 67, 50
1, 402366, Note_off_c, 0, 31, 62
1, 402372, Note_off_c, 0, 43, 62
1, 402395, Note_off_c, 0, 67, 51
1, 402414, Poly_aftertouch_c, 0, 55, 127
1, 402457, Poly_aftertouch_c, 0, 55, 0
1, 402458, Poly_aftertouch_c, 0, 65, 0
1, 402476, Note_on_c, 0, 32, 71
1, 402477, Note_on_c, 0, 44, 70
1, 402491, Note_on_c, 0, 68, 70
1, 402508, Note_off_c, 0, 44, 64
1, 402509, Note_off_c, 0, 32, 62
1, 402519, Note_off_c, 0, 68, 64
1, 402527, Note_on_c, 0, 56, 19
1, 402574, Note_off_c, 0, 56, 53
1, 402594, Note_on_c, 0, 34, 79
1, 402594, Note_on_c, 0, 46, 81
1, 402599, Note_on_c, 0, 70, 80
1, 402602, Note_on_c, 0, 58, 82
1, 402623, Note_off_c, 0, 34, 64
1, 402625, Note_off_c, 0, 46, 62
1, 402631, Note_off_c, 0, 70, 59
1, 402634, Note_off_c, 0, 58, 63
1, 402701, Note_on_c, 0, 36, 79
1, 402701, Note_on_c, 0, 72, 84
1, 402702, Note_on_c, 0, 48, 89
1, 402708, Note_on_c, 0, 60, 84
1, 402733, Note_off_c, 0, 36, 64
1, 402737, Note_off_c, 0, 60, 66
1, 402738, Note_off_c, 0, 48, 62
1, 402743, Note_off_c, 0, 72, 65
1, 402791, Poly_aftertouch_c, 0, 38, 127
1, 402793, Note_on_c, 0, 73, 96
1, 402794, Note_on_c, 0, 49, 101
1, 402796, Note_on_c, 0, 37, 90
1, 402796, Note_on_c, 0, 61, 101
1, 402825, Note_off_c, 0, 37, 68
1, 402830, Poly_aftertouch_c, 0, 38, 0
1, 402832, Note_off_c, 0, 61, 68
1, 402833, Note_off_c, 0, 49, 64
1, 402839, Note_off_c, 0, 73, 63
1, 402877, Poly_aftertouch_c, 0, 39, 127
1, 402886, Note_on_c, 0, 64, 104
1, 402887, Note_on_c, 0, 40, 100
1, 402890, Note_on_c, 0, 76, 88
1, 402892, Note_on_c, 0, 52, 91
1, 402895, Note_on_c, 0, 74, 88
1, 402898, Note_on_c, 0, 73, 70
1, 402900, Note_on_c, 0, 50, 78
1, 402919, Poly_aftertouch_c, 0, 39, 0
1, 402919, Note_off_c, 0, 50, 67
1, 402921, Note_off_c, 0, 73, 69
1, 402922, Note_off_c, 0, 64, 69
1, 402925, Note_off_c, 0, 40, 62
1, 402929, Note_off_c, 0, 74, 57
1, 402933, Note_off_c, 0, 52, 65
1, 402939, Note_off_c, 0, 76, 61
1, 402981, Note_on_c, 0, 53, 100
1, 402982, Note_on_c, 0, 41, 100
1, 402984, Note_on_c, 0, 77, 101
1, 402987, Note_on_c, 0, 65, 99
1, 402987, Control_c, 0, 64, 85
1, 402997, Note_on_c, 0, 67, 78
1, 403002, Control_c, 0, 64, 60
1, 403014, Note_off_c, 0, 67, 41
1, 403017, Control_c, 0, 64, 41
1, 403018, Note_off_c, 0, 77, 65
1, 403019, Note_off_c, 0, 53, 66
1, 403025, Note_off_c, 0, 65, 67
1, 403026, Note_off_c, 0, 41, 66
1, 403032, Control_c, 0, 64, 48
1, 403047, Control_c, 0, 64, 60
1, 403062, Control_c, 0, 64, 76
1, 403076, Control_c, 0, 64, 127
1, 403130, Note_on_c, 0, 70, 64
1, 403132, Note_on_c, 0, 34, 69
1, 403133, Note_on_c, 0, 46, 70
1, 403150, Note_on_c, 0, 58, 53
1, 403157, Note_off_c, 0, 34, 66
1, 403159, Note_off_c, 0, 70, 58
1, 403163, Note_off_c, 0, 46, 63
1, 403175, Note_off_c, 0, 58, 57
1, 403240, Note_on_c, 0, 60, 67
1, 403241, Note_on_c, 0, 72, 63
1, 403242, Note_on_c, 0, 36, 76
1, 403260, Note_on_c, 0, 48, 52
1, 403266, Note_off_c, 0, 60, 69
1, 403268, Note_off_c, 0, 72, 64
1, 403271, Note_on_c, 0, 47, 45
1, 403273, Note_off_c, 0, 36, 62
1, 403291, Note_off_c, 0, 48, 52
1, 403306, Note_off_c, 0, 47, 51
1, 403332, Note_on_c, 0, 73, 87
1, 403345, Note_on_c, 0, 61, 78
1, 403348, Note_on_c, 0, 49, 85
1, 403348, Note_on_c, 0, 37, 84
1, 403368, Note_off_c, 0, 73, 57
1, 403369, Note_off_c, 0, 61, 70
1, 403372, Note_off_c, 0, 49, 71
1, 403375, Note_off_c, 0, 37, 65
1, 403432, Note_on_c, 0, 76, 84
1, 403434, Note_on_c, 0, 64, 84
1, 403443, Note_on_c, 0, 52, 96
1, 403443, Note_on_c, 0, 62, 85
1, 403445, Note_on_c, 0, 40, 84
1, 403447, Note_on_c, 0, 73, 66
1, 403461, Note_off_c, 0, 76, 66
1, 403463, Note_off_c, 0, 64, 71
1, 403464, Note_off_c, 0, 73, 67
1, 403465, Note_off_c, 0, 62, 71
1, 403473, Note_off_c, 0, 40, 66
1, 403482, Note_off_c, 0, 52, 66
1, 403530, Note_on_c, 0, 65, 95
1, 403530, Note_on_c, 0, 77, 89
1, 403538, Note_on_c, 0, 53, 102
1, 403540, Note_on_c, 0, 41, 86
1, 403545, Poly_aftertouch_c, 0, 68, 0
1, 403557, Note_on_c, 0, 43, 72
1, 403562, Note_off_c, 0, 65, 66
1, 403570, Note_off_c, 0, 41, 61
1, 403570, Note_off_c, 0, 77, 61
1, 403574, Note_off_c, 0, 53, 68
1, 403586, Note_off_c, 0, 43, 65
1, 403622, Note_on_c, 0, 67, 105
1, 403622, Note_on_c, 0, 79, 90
1, 403629, Poly_aftertouch_c, 0, 75, 0
1, 403634, Note_on_c, 0, 55, 99
1, 403637, Note_on_c, 0, 43, 92
1, 403638, Poly_aftertouch_c, 0, 70, 0
1, 403655, Note_off_c, 0, 67, 68
1, 403657, Note_off_c, 0, 79, 60
1, 403659, Note_off_c, 0, 43, 69
1, 403676, Note_off_c, 0, 55, 66
1, 403705, Note_on_c, 0, 80, 97
1, 403705, Note_on_c, 0, 68, 112
1, 403720, Note_on_c, 0, 56, 94
1, 403724, Note_on_c, 0, 44, 87
1, 403726, Poly_aftertouch_c, 0, 78, 0
1, 403731, Note_on_c, 0, 75, 54
1, 403731, Note_off_c, 0, 75, 127
1, 403735, Note_off_c, 0, 68, 68
1, 403737, Note_off_c, 0, 80, 64
1, 403747, Note_off_c, 0, 56, 65
1, 403764, Note_off_c, 0, 44, 62
1, 403765, Control_c, 0, 64, 99
1, 403767, Poly_aftertouch_c, 0, 78, 0
1, 403780, Control_c, 0, 64, 65
1, 403795, Control_c, 0, 64, 0
1, 403810, Control_c, 0, 64, 36
1, 403825, Control_c, 0, 64, 59
1, 403840, Control_c, 0, 64, 81
1, 403848, Note_on_c, 0, 76, 68
1, 403854, Note_on_c, 0, 40, 78
1, 403855, Control_c, 0, 64, 127
1, 403860, Note_on_c, 0, 64, 62
1, 403869, Note_on_c, 0, 52, 66
1, 403879, Note_off_c, 0, 76, 61
1, 403881, Note_off_c, 0, 40, 64
1, 403888, Note_off_c, 0, 64, 67
1, 403896, Note_off_c, 0, 52, 65
1, 403965, Note_on_c, 0, 41, 62
1, 403970, Note_on_c, 0, 53, 69
1, 403971, Note_on_c, 0, 65, 73
1, 403979, Note_on_c, 0, 77, 64
1, 403994, Note_off_c, 0, 41, 66
1, 403995, Note_off_c, 0, 65, 69
1, 404000, Note_off_c, 0, 77, 65
1, 404002, Note_off_c, 0, 53, 65
1, 404071, Note_on_c, 0, 43, 83
1, 404072, Note_on_c, 0, 67, 85
1, 404075, Note_on_c, 0, 55, 78
1, 404075, Note_on_c, 0, 79, 74
1, 404093, Note_off_c, 0, 67, 69
1, 404094, Note_off_c, 0, 79, 73
1, 404096, Note_off_c, 0, 55, 70
1, 404099, Note_off_c, 0, 43, 63
1, 404150, Note_on_c, 0, 80, 95
1, 404159, Note_on_c, 0, 68, 88
1, 404159, Note_on_c, 0, 44, 91
1, 404160, Note_on_c, 0, 56, 99
1, 404177, Note_off_c, 0, 68, 69
1, 404191, Note_off_c, 0, 44, 69
1, 404194, Note_off_c, 0, 56, 67
1, 404195, Note_on_c, 0, 78, 29
1, 404201, Note_off_c, 0, 80, 59
1, 404227, Note_off_c, 0, 78, 54
1, 404245, Note_on_c, 0, 70, 101
1, 404245, Note_on_c, 0, 82, 105
1, 404251, Note_on_c, 0, 58, 106
1, 404252, Note_on_c, 0, 46, 85
1, 404271, Note_on_c, 0, 49, 64
1, 404277, Note_off_c, 0, 70, 69
1, 404278, Note_off_c, 0, 46, 68
1, 404282, Note_off_c, 0, 58, 65
1, 404284, Note_off_c, 0, 82, 63
1, 404304, Note_off_c, 0, 49, 64
1, 404338, Note_on_c, 0, 83, 98
1, 404341, Note_on_c, 0, 72, 103
1, 404345, Poly_aftertouch_c, 0, 78, 0
1, 404349, Note_on_c, 0, 60, 101
1, 404354, Note_on_c, 0, 84, 68
1, 404354, Note_off_c, 0, 84, 127
1, 404366, Note_off_c, 0, 83, 69
1, 404367, Note_on_c, 0, 49, 70
1, 404367, Note_off_c, 0, 72, 65
1, 404373, Note_on_c, 0, 48, 63
1, 404382, Note_off_c, 0, 60, 69
1, 404388, Note_off_c, 0, 49, 62
1, 404400, Note_off_c, 0, 48, 57
1, 404427, Note_on_c, 0, 85, 113
1, 404427, Note_on_c, 0, 73, 108
1, 404439, Note_on_c, 0, 49, 95
1, 404444, Note_on_c, 0, 61, 85
1, 404453, Note_off_c, 0, 73, 71
1, 404460, Note_off_c, 0, 85, 63
1, 404462, Note_on_c, 0, 75, 43
1, 404462, Note_off_c, 0, 75, 127
1, 404463, Note_off_c, 0, 49, 65
1, 404466, Note_off_c, 0, 61, 71
1, 404485, Control_c, 0, 64, 111
1, 404500, Control_c, 0, 64, 69
1, 404515, Control_c, 0, 64, 43
1, 404530, Control_c, 0, 64, 50
1, 404545, Control_c, 0, 64, 62
1, 404560, Control_c, 0, 64, 78
1, 404575, Control_c, 0, 64, 127
1, 404578, Note_on_c, 0, 43, 64
1, 404587, Note_on_c, 0, 45, 53
1, 404587, Note_on_c, 0, 77, 48
1, 404589, Note_on_c, 0, 67, 66
1, 404602, Note_on_c, 0, 55, 29
1, 404603, Note_off_c, 0, 43, 60
1, 404609, Note_off_c, 0, 67, 65
1, 404610, Note_off_c, 0, 77, 61
1, 404615, Note_off_c, 0, 45, 52
1, 404640, Note_off_c, 0, 55, 51
1, 404679, Note_on_c, 0, 44, 80
1, 404681, Note_on_c, 0, 56, 88
1, 404682, Note_on_c, 0, 80, 80
1, 404684, Note_on_c, 0, 68, 83
1, 404699, Note_on_c, 0, 78, 50
1, 404704, Note_off_c, 0, 68, 72
1, 404704, Note_off_c, 0, 80, 69
1, 404706, Note_off_c, 0, 56, 68
1, 404707, Note_off_c, 0, 44, 68
1, 404722, Note_off_c, 0, 78, 56
1, 404772, Note_on_c, 0, 46, 85
1, 404773, Note_on_c, 0, 70, 90
1, 404776, Note_on_c, 0, 58, 95
1, 404778, Note_on_c, 0, 82, 83
1, 404779, Note_on_c, 0, 80, 82
1, 404794, Note_off_c, 0, 70, 67
1, 404796, Note_off_c, 0, 82, 72
1, 404796, Note_off_c, 0, 58, 68
1, 404797, Note_off_c, 0, 80, 71
1, 404799, Note_off_c, 0, 46, 66
1, 404857, Note_on_c, 0, 72, 104
1, 404859, Note_on_c, 0, 84, 89
1, 404864, Note_on_c, 0, 60, 96
1, 404865, Note_on_c, 0, 48, 97
1, 404880, Note_on_c, 0, 82, 59
1, 404884, Note_on_c, 0, 49, 36
1, 404886, Note_off_c, 0, 72, 69
1, 404889, Note_off_c, 0, 48, 68
1, 404889, Note_off_c, 0, 84, 64
1, 404897, Note_off_c, 0, 82, 63
1, 404899, Note_off_c, 0, 60, 69
1, 404918, Note_off_c, 0, 49, 46
1, 404952, Note_on_c, 0, 85, 102
1, 404957, Note_on_c, 0, 73, 98
1, 404960, Note_on_c, 0, 61, 105
1, 404963, Note_on_c, 0, 49, 91
1, 404970, Note_on_c, 0, 80, 51
1, 404987, Note_off_c, 0, 73, 63
1, 404991, Note_off_c, 0, 85, 67
1, 404994, Note_on_c, 0, 82, 18
1, 404994, Note_off_c, 0, 80, 35
1, 404998, Note_off_c, 0, 61, 69
1, 405005, Note_off_c, 0, 49, 63
1, 405006, Note_on_c, 0, 51, 33
1, 405029, Note_off_c, 0, 82, 36
1, 405042, Note_on_c, 0, 76, 102
1, 405043, Note_on_c, 0, 88, 94
1, 405046, Note_off_c, 0, 51, 51
1, 405053, Note_on_c, 0, 52, 98
1, 405056, Note_on_c, 0, 64, 100
1, 405062, Note_on_c, 0, 86, 69
1, 405065, Note_on_c, 0, 80, 59
1, 405066, Note_on_c, 0, 85, 59
1, 405072, Note_off_c, 0, 76, 70
1, 405079, Note_off_c, 0, 86, 67
1, 405080, Note_off_c, 0, 88, 65
1, 405080, Note_off_c, 0, 52, 62
1, 405085, Note_off_c, 0, 80, 66
1, 405086, Note_off_c, 0, 85, 62
1, 405093, Note_off_c, 0, 64, 69
1, 405137, Note_on_c, 0, 77, 108
1, 405137, Note_on_c, 0, 89, 99
1, 405145, Note_on_c, 0, 53, 87
1, 405151, Note_off_c, 0, 89, 72
1, 405154, Note_on_c, 0, 87, 64
1, 405165, Note_off_c, 0, 53, 70
1, 405165, Note_off_c, 0, 77, 71
1, 405172, Note_off_c, 0, 87, 44
1, 405179, Note_on_c, 0, 65, 25
1, 405190, Control_c, 0, 64, 106
1, 405205, Control_c, 0, 64, 66
1, 405216, Note_off_c, 0, 65, 52
1, 405220, Control_c, 0, 64, 30
1, 405250, Control_c, 0, 64, 55
1, 405252, Note_on_c, 0, 58, 85
1, 405256, Note_on_c, 0, 82, 95
1, 405259, Note_on_c, 0, 46, 81
1, 405264, Note_on_c, 0, 70, 91
1, 405264, Control_c, 0, 64, 80
1, 405276, Note_off_c, 0, 58, 69
1, 405279, Control_c, 0, 64, 127
1, 405282, Note_off_c, 0, 70, 74
1, 405283, Note_off_c, 0, 46, 66
1, 405300, Note_off_c, 0, 82, 64
1, 405346, Note_on_c, 0, 48, 99
1, 405347, Poly_aftertouch_c, 0, 78, 0
1, 405349, Note_on_c, 0, 60, 92
1, 405353, Note_on_c, 0, 84, 88
1, 405357, Note_on_c, 0, 72, 89
1, 405362, Poly_aftertouch_c, 0, 78, 0
1, 405375, Note_off_c, 0, 48, 63
1, 405378, Note_off_c, 0, 72, 67
1, 405379, Note_off_c, 0, 60, 65
1, 405379, Note_off_c, 0, 84, 62
1, 405437, Note_on_c, 0, 85, 101
1, 405437, Note_on_c, 0, 49, 91
1, 405439, Note_on_c, 0, 61, 99
1, 405443, Note_on_c, 0, 73, 93
1, 405462, Note_off_c, 0, 49, 68
1, 405464, Note_off_c, 0, 73, 67
1, 405466, Note_on_c, 0, 51, 50
1, 405467, Note_off_c, 0, 61, 66
1, 405476, Note_off_c, 0, 85, 63
1, 405494, Note_off_c, 0, 51, 60
1, 405524, Note_on_c, 0, 76, 98
1, 405527, Note_on_c, 0, 88, 90
1, 405532, Note_on_c, 0, 64, 104
1, 405533, Note_on_c, 0, 52, 95
1, 405548, Note_off_c, 0, 88, 61
1, 405554, Note_off_c, 0, 76, 65
1, 405555, Note_off_c, 0, 52, 68
1, 405556, Note_on_c, 0, 85, 41
1, 405556, Note_on_c, 0, 86, 51
1, 405566, Note_off_c, 0, 64, 69
1, 405581, Note_off_c, 0, 86, 61
1, 405586, Note_off_c, 0, 85, 34
1, 405619, Note_on_c, 0, 89, 94
1, 405621, Note_on_c, 0, 77, 101
1, 405627, Note_on_c, 0, 53, 81
1, 405628, Note_on_c, 0, 65, 96
1, 405634, Note_on_c, 0, 55, 82
1, 405651, Note_off_c, 0, 77, 69
1, 405656, Note_on_c, 0, 79, 28
1, 405656, Note_off_c, 0, 79, 127
1, 405658, Note_off_c, 0, 89, 61
1, 405663, Note_off_c, 0, 53, 60
1, 405664, Note_off_c, 0, 65, 67
1, 405666, Note_off_c, 0, 55, 65
1, 405720, Note_on_c, 0, 79, 89
1, 405721, Note_on_c, 0, 91, 87
1, 405727, Note_on_c, 0, 89, 85
1, 405745, Note_off_c, 0, 89, 71
1, 405752, Note_off_c, 0, 91, 69
1, 405753, Note_off_c, 0, 79, 69
1, 405765, Note_on_c, 0, 56, 94
1, 405765, Note_on_c, 0, 68, 101
1, 405794, Note_off_c, 0, 68, 66
1, 405801, Note_on_c, 0, 92, 111
1, 405807, Note_on_c, 0, 80, 102
1, 405807, Note_off_c, 0, 56, 61
1, 405821, Note_off_c, 0, 80, 75
1, 405834, Note_on_c, 0, 82, 47
1, 405834, Note_off_c, 0, 82, 127
1, 405837, Note_off_c, 0, 92, 69
1, 405857, Poly_aftertouch_c, 0, 55, 127
1, 405885, Poly_aftertouch_c, 0, 55, 0
1, 405983, Control_c, 0, 64, 82
1, 405986, Note_on_c, 0, 76, 104
1, 405986, Note_on_c, 0, 88, 97
1, 405995, Note_on_c, 0, 64, 86
1, 405998, Note_on_c, 0, 52, 81
1, 405998, Control_c, 0, 64, 45
1, 406005, Note_on_c, 0, 53, 68
1, 406013, Control_c, 0, 64, 0
1, 406020, Note_on_c, 0, 85, 38
1, 406042, Control_c, 0, 64, 34
1, 406046, Note_off_c, 0, 85, 36
1, 406057, Control_c, 0, 64, 63
1, 406072, Control_c, 0, 64, 112
1, 406086, Note_off_c, 0, 53, 51
1, 406086, Control_c, 0, 64, 127
1, 406094, Note_off_c, 0, 76, 66
1, 406108, Note_off_c, 0, 52, 62
1, 406110, Note_off_c, 0, 88, 66
1, 406114, Note_off_c, 0, 64, 62
1, 406175, Control_c, 0, 64, 118
1, 406190, Control_c, 0, 64, 73
1, 406205, Control_c, 0, 64, 52
1, 406206, Note_on_c, 0, 89, 104
1, 406209, Note_on_c, 0, 53, 75
1, 406211, Note_on_c, 0, 65, 89
1, 406211, Note_on_c, 0, 77, 93
1, 406215, Note_on_c, 0, 76, 93
1, 406220, Control_c, 0, 64, 49
1, 406224, Note_on_c, 0, 88, 55
1, 406234, Control_c, 0, 64, 66
1, 406249, Control_c, 0, 64, 127
1, 406250, Note_off_c, 0, 76, 61
1, 406251, Note_off_c, 0, 88, 37
1, 406305, Note_off_c, 0, 77, 62
1, 406314, Note_off_c, 0, 53, 55
1, 406317, Note_off_c, 0, 65, 59
1, 406328, Note_off_c, 0, 89, 65
1, 406449, Control_c, 0, 64, 75
1, 406464, Control_c, 0, 64, 40
1, 406466, Note_on_c, 0, 91, 97
1, 406468, Note_on_c, 0, 55, 83
1, 406468, Note_on_c, 0, 79, 99
1, 406470, Note_on_c, 0, 67, 91
1, 406479, Control_c, 0, 64, 0
1, 406492, Note_off_c, 0, 79, 70
1, 406494, Note_off_c, 0, 91, 71
1, 406502, Note_off_c, 0, 67, 64
1, 406508, Control_c, 0, 64, 54
1, 406513, Note_off_c, 0, 55, 63
1, 406523, Control_c, 0, 64, 88
1, 406538, Control_c, 0, 64, 127
1, 406567, Poly_aftertouch_c, 0, 90, 0
1, 406700, Note_on_c, 0, 92, 111
1, 406702, Control_c, 0, 64, 77
1, 406705, Note_on_c, 0, 80, 99
1, 406710, Note_on_c, 0, 56, 81
1, 406711, Note_on_c, 0, 68, 85
1, 406716, Control_c, 0, 64, 58
1, 406718, Note_off_c, 0, 80, 76
1, 406728, Note_off_c, 0, 92, 69
1, 406731, Control_c, 0, 64, 53
1, 406746, Control_c, 0, 64, 62
1, 406751, Note_off_c, 0, 68, 59
1, 406761, Control_c, 0, 64, 79
1, 406773, Note_off_c, 0, 56, 61
1, 406776, Control_c, 0, 64, 127
1, 406924, Control_c, 0, 64, 106
1, 406939, Control_c, 0, 64, 72
1, 406951, Note_on_c, 0, 58, 84
1, 406954, Note_on_c, 0, 70, 85
1, 406954, Note_on_c, 0, 94, 117
1, 406954, Control_c, 0, 64, 62
1, 406955, Note_on_c, 0, 82, 98
1, 406969, Note_off_c, 0, 82, 75
1, 406969, Control_c, 0, 64, 77
1, 406973, Note_off_c, 0, 70, 70
1, 406982, Note_off_c, 0, 94, 64
1, 406983, Control_c, 0, 64, 127
1, 406985, Note_off_c, 0, 58, 62
1, 406990, Note_on_c, 0, 90, 37
1, 406990, Note_off_c, 0, 90, 127
1, 407272, Control_c, 0, 64, 68
1, 407287, Control_c, 0, 64, 34
1, 407289, Note_on_c, 0, 72, 88
1, 407290, Note_on_c, 0, 96, 108
1, 407292, Note_on_c, 0, 60, 75
1, 407296, Note_on_c, 0, 84, 86
1, 407302, Control_c, 0, 64, 43
1, 407306, Note_off_c, 0, 72, 72
1, 407311, Note_off_c, 0, 84, 75
1, 407312, Note_off_c, 0, 96, 67
1, 407315, Note_off_c, 0, 60, 68
1, 407316, Control_c, 0, 64, 67
1, 407331, Control_c, 0, 64, 100
1, 407346, Control_c, 0, 64, 127
1, 407703, Control_c, 0, 64, 93
1, 407718, Control_c, 0, 64, 61
1, 407731, Note_on_c, 0, 85, 100
1, 407731, Note_on_c, 0, 97, 105
1, 407733, Control_c, 0, 64, 39
1, 407739, Note_on_c, 0, 61, 74
1, 407742, Note_on_c, 0, 73, 80
1, 407748, Control_c, 0, 64, 65
1, 407757, Note_off_c, 0, 85, 68
1, 407760, Note_off_c, 0, 73, 71
1, 407762, Control_c, 0, 64, 127
1, 407767, Note_off_c, 0, 61, 68
1, 407775, Note_off_c, 0, 97, 66
1, 408555, Control_c, 0, 64, 99
1, 408570, Control_c, 0, 64, 61
1, 408585, Control_c, 0, 64, 0
1, 409014, Note_on_c, 0, 72, 87
1, 409025, Note_on_c, 0, 48, 64
1, 409037, Note_on_c, 0, 60, 56
1, 409065, Note_off_c, 0, 48, 65
1, 409069, Note_off_c, 0, 60, 65
1, 409085, Note_off_c, 0, 72, 0
1, 409091, Note_on_c, 0, 80, 94
1, 409094, Note_on_c, 0, 68, 103
1, 409095, Note_on_c, 0, 56, 102
1, 409110, Poly_aftertouch_c, 0, 72, 0
1, 409110, Control_c, 0, 64, 51
1, 409115, Note_off_c, 0, 56, 73
1, 409122, Note_off_c, 0, 68, 68
1, 409125, Note_off_c, 0, 80, 71
1, 409125, Control_c, 0, 64, 127
1, 409411, Poly_aftertouch_c, 0, 54, 127
1, 409446, Poly_aftertouch_c, 0, 54, 0
1, 409601, Note_on_c, 0, 48, 109
1, 409602, Note_on_c, 0, 53, 93
1, 409602, Note_on_c, 0, 60, 91
1, 409603, Note_on_c, 0, 41, 93
1, 409606, Note_on_c, 0, 56, 87
1, 409607, Note_on_c, 0, 36, 94
1, 409611, Note_on_c, 0, 32, 77
1, 409612, Note_on_c, 0, 29, 80
1, 409627, Note_off_c, 0, 48, 67
1, 409634, Note_off_c, 0, 36, 68
1, 409634, Note_off_c, 0, 53, 67
1, 409637, Note_off_c, 0, 41, 64
1, 409637, Note_off_c, 0, 29, 65
1, 409638, Note_off_c, 0, 60, 67
1, 409644, Note_off_c, 0, 32, 62
1, 409644, Note_off_c, 0, 56, 63
1, 409720, Poly_aftertouch_c, 0, 52, 0
1, 409885, Note_on_c, 0, 79, 90
1, 409886, Note_on_c, 0, 67, 98
1, 409888, Note_on_c, 0, 55, 81
1, 409918, Note_off_c, 0, 67, 63
1, 409921, Note_off_c, 0, 79, 68
1, 409944, Note_off_c, 0, 55, 60
1, 409995, Note_on_c, 0, 77, 92
1, 409999, Note_on_c, 0, 65, 98
1, 410026, Note_on_c, 0, 53, 76
1, 410031, Note_off_c, 0, 77, 66
1, 410034, Note_off_c, 0, 65, 68
1, 410083, Note_off_c, 0, 53, 63
1, 410111, Control_c, 0, 64, 89
1, 410123, Note_on_c, 0, 64, 105
1, 410124, Note_on_c, 0, 76, 100
1, 410126, Control_c, 0, 64, 55
1, 410137, Note_on_c, 0, 52, 95
1, 410141, Control_c, 0, 64, 0
1, 410147, Note_on_c, 0, 53, 69
1, 410162, Note_off_c, 0, 52, 67
1, 410162, Note_off_c, 0, 53, 40
1, 410207, Control_c, 0, 64, 47
1, 410222, Control_c, 0, 64, 71
1, 410237, Control_c, 0, 64, 127
1, 410254, Note_off_c, 0, 76, 66
1, 410279, Note_off_c, 0, 64, 66
1, 410616, Note_on_c, 0, 48, 102
1, 410616, Note_on_c, 0, 60, 97
1, 410618, Note_on_c, 0, 56, 92
1, 410621, Note_on_c, 0, 36, 89
1, 410621, Note_on_c, 0, 52, 86
1, 410622, Note_on_c, 0, 40, 87
1, 410626, Note_on_c, 0, 29, 83
1, 410628, Note_on_c, 0, 32, 83
1, 410630, Note_on_c, 0, 51, 75
1, 410636, Note_off_c, 0, 48, 71
1, 410642, Note_off_c, 0, 52, 71
1, 410649, Note_off_c, 0, 36, 67
1, 410649, Note_off_c, 0, 40, 67
1, 410653, Note_off_c, 0, 51, 45
1, 410654, Note_off_c, 0, 60, 67
1, 410657, Note_off_c, 0, 29, 63
1, 410658, Note_off_c, 0, 56, 66
1, 410659, Note_off_c, 0, 32, 63
1, 410879, Note_on_c, 0, 75, 96
1, 410880, Note_on_c, 0, 51, 80
1, 410881, Note_on_c, 0, 63, 96
1, 410914, Note_off_c, 0, 63, 62
1, 410917, Note_off_c, 0, 51, 60
1, 410930, Note_off_c, 0, 75, 62
1, 410992, Note_on_c, 0, 73, 95
1, 410997, Note_on_c, 0, 49, 74
1, 410997, Note_on_c, 0, 61, 94
1, 411050, Note_off_c, 0, 61, 61
1, 411051, Note_off_c, 0, 73, 62
1, 411093, Note_off_c, 0, 49, 62
1, 411134, Control_c, 0, 64, 80
1, 411144, Note_on_c, 0, 60, 101
1, 411144, Note_on_c, 0, 72, 101
1, 411149, Control_c, 0, 64, 37
1, 411155, Note_on_c, 0, 48, 97
1, 411164, Control_c, 0, 64, 0
1, 411208, Control_c, 0, 64, 39
1, 411223, Control_c, 0, 64, 65
1, 411238, Control_c, 0, 64, 97
1, 411242, Note_off_c, 0, 48, 63
1, 411253, Control_c, 0, 64, 127
1, 411276, Note_off_c, 0, 72, 64
1, 411288, Note_off_c, 0, 60, 67
1, 411334, Note_on_c, 0, 70, 4
1, 411371, Note_off_c, 0, 70, 48
1, 411772, Note_on_c, 0, 60, 95
1, 411774, Note_on_c, 0, 48, 111
1, 411775, Note_on_c, 0, 53, 98
1, 411777, Note_on_c, 0, 56, 92
1, 411780, Note_on_c, 0, 41, 97
1, 411781, Note_on_c, 0, 36, 93
1, 411782, Note_on_c, 0, 29, 85
1, 411787, Note_on_c, 0, 32, 89
1, 411816, Note_off_c, 0, 60, 69
1, 411818, Note_off_c, 0, 48, 65
1, 411841, Note_off_c, 0, 41, 63
1, 411842, Note_off_c, 0, 53, 66
1, 411848, Note_off_c, 0, 29, 62
1, 411852, Note_off_c, 0, 56, 64
1, 411882, Note_off_c, 0, 36, 60
1, 411892, Note_off_c, 0, 32, 59
1, 412299, Note_on_c, 0, 48, 99
1, 412301, Note_on_c, 0, 41, 82
1, 412301, Note_on_c, 0, 56, 81
1, 412301, Note_on_c, 0, 60, 79
1, 412303, Note_on_c, 0, 36, 78
1, 412305, Note_on_c, 0, 53, 78
1, 412309, Note_on_c, 0, 29, 73
1, 412311, Note_on_c, 0, 32, 75
1, 412333, Note_off_c, 0, 53, 64
1, 412335, Note_off_c, 0, 56, 66
1, 412338, Note_off_c, 0, 48, 64
1, 412338, Note_off_c, 0, 60, 64
1, 412346, Note_off_c, 0, 41, 62
1, 412347, Note_off_c, 0, 32, 60
1, 412349, Note_off_c, 0, 36, 60
1, 412359, Note_off_c, 0, 29, 59
1, 412383, Note_on_c, 0, 60, 73
1, 412384, Note_on_c, 0, 53, 76
1, 412385, Note_on_c, 0, 56, 75
1, 412386, Note_on_c, 0, 36, 75
1, 412391, Note_on_c, 0, 48, 75
1, 412392, Note_on_c, 0, 41, 71
1, 412398, Note_on_c, 0, 29, 52
1, 412403, Note_off_c, 0, 53, 71
1, 412404, Poly_aftertouch_c, 0, 54, 0
1, 412409, Note_off_c, 0, 56, 67
1, 412410, Note_on_c, 0, 32, 66
1, 412410, Note_off_c, 0, 48, 64
1, 412417, Note_off_c, 0, 41, 67
1, 412418, Note_off_c, 0, 36, 65
1, 412423, Note_off_c, 0, 60, 65
1, 412445, Note_off_c, 0, 32, 56
1, 412448, Note_off_c, 0, 29, 48
1, 412648, Note_on_c, 0, 73, 91
1, 412653, Note_on_c, 0, 61, 78
1, 412659, Note_on_c, 0, 49, 76
1, 412707, Control_c, 0, 64, 85
1, 412722, Control_c, 0, 64, 65
1, 412736, Control_c, 0, 64, 50
1, 412750, Control_c, 0, 64, 51
1, 412765, Control_c, 0, 64, 62
1, 412779, Control_c, 0, 64, 81
1, 412794, Control_c, 0, 64, 127
1, 412832, Note_off_c, 0, 61, 63
1, 412859, Note_off_c, 0, 73, 61
1, 412914, Note_on_c, 0, 76, 99
1, 412917, Note_on_c, 0, 64, 97
1, 412927, Note_on_c, 0, 52, 89
1, 412937, Note_off_c, 0, 64, 71
1, 412949, Note_off_c, 0, 76, 70
1, 412952, Note_off_c, 0, 49, 64
1, 412982, Note_off_c, 0, 52, 64
1, 413033, Poly_aftertouch_c, 0, 46, 0
1, 413103, Note_on_c, 0, 49, 46
1, 413144, Note_off_c, 0, 49, 50
1, 413344, Note_on_c, 0, 53, 83
1, 413344, Note_on_c, 0, 65, 87
1, 413346, Note_on_c, 0, 77, 86
1, 413373, Note_off_c, 0, 65, 62
1, 413385, Note_off_c, 0, 77, 65
1, 413414, Note_off_c, 0, 53, 63
1, 413462, Note_on_c, 0, 56, 103
1, 413462, Note_on_c, 0, 80, 100
1, 413463, Note_on_c, 0, 68, 104
1, 413484, Control_c, 0, 64, 78
1, 413499, Control_c, 0, 64, 39
1, 413514, Control_c, 0, 64, 0
1, 413558, Control_c, 0, 64, 53
1, 413573, Control_c, 0, 64, 81
1, 413577, Note_off_c, 0, 56, 67
1, 413588, Control_c, 0, 64, 127
1, 413596, Note_off_c, 0, 80, 63
1, 413623, Note_off_c, 0, 68, 66
1, 413953, Note_on_c, 0, 48, 94
1, 413954, Note_on_c, 0, 60, 88
1, 413954, Note_on_c, 0, 56, 83
1, 413957, Note_on_c, 0, 53, 79
1, 413960, Note_on_c, 0, 41, 85
1, 413962, Note_on_c, 0, 29, 81
1, 413966, Note_on_c, 0, 36, 73
1, 413968, Note_on_c, 0, 32, 81
1, 413974, Note_off_c, 0, 48, 71
1, 413978, Note_off_c, 0, 53, 67
1, 413983, Note_off_c, 0, 41, 68
1, 413987, Note_off_c, 0, 29, 63
1, 413989, Note_off_c, 0, 56, 62
1, 413993, Note_off_c, 0, 32, 64
1, 413995, Note_off_c, 0, 36, 64
1, 413997, Note_off_c, 0, 60, 65
1, 414236, Note_on_c, 0, 79, 84
1, 414241, Note_on_c, 0, 67, 86
1, 414249, Note_on_c, 0, 55, 76
1, 414269, Note_off_c, 0, 67, 64
1, 414274, Note_off_c, 0, 79, 67
1, 414314, Note_off_c, 0, 55, 57
1, 414360, Note_on_c, 0, 53, 86
1, 414362, Note_on_c, 0, 65, 92
1, 414368, Note_on_c, 0, 77, 76
1, 414379, Note_on_c, 0, 76, 72
1, 414396, Note_off_c, 0, 76, 66
1, 414400, Note_off_c, 0, 65, 66
1, 414401, Note_off_c, 0, 77, 64
1, 414423, Note_off_c, 0, 53, 62
1, 414484, Note_on_c, 0, 76, 84
1, 414486, Control_c, 0, 64, 79
1, 414490, Note_on_c, 0, 64, 105
1, 414491, Note_on_c, 0, 52, 101
1, 414500, Control_c, 0, 64, 48
1, 414515, Control_c, 0, 64, 0
1, 414532, Note_on_c, 0, 73, 38
1, 414541, Note_off_c, 0, 52, 66
1, 414561, Control_c, 0, 64, 54
1, 414562, Note_off_c, 0, 73, 34
1, 414576, Control_c, 0, 64, 79
1, 414591, Control_c, 0, 64, 127
1, 414622, Note_off_c, 0, 76, 67
1, 414642, Note_off_c, 0, 64, 70
1, 414975, Note_on_c, 0, 48, 100
1, 414978, Note_on_c, 0, 40, 84
1, 414979, Note_on_c, 0, 36, 84
1, 414980, Note_on_c, 0, 56, 82
1, 414980, Note_on_c, 0, 60, 83
1, 414981, Note_on_c, 0, 52, 74
1, 414984, Note_on_c, 0, 29, 74
1, 414992, Note_on_c, 0, 32, 70
1, 414996, Note_off_c, 0, 48, 71
1, 415000, Note_on_c, 0, 51, 56
1, 415005, Note_off_c, 0, 40, 68
1, 415006, Note_off_c, 0, 52, 68
1, 415008, Note_off_c, 0, 36, 67
1, 415012, Note_off_c, 0, 29, 64
1, 415022, Note_off_c, 0, 32, 57
1, 415022, Note_off_c, 0, 56, 63
1, 415026, Note_off_c, 0, 60, 67
1, 415030, Note_off_c, 0, 51, 35
1, 415236, Note_on_c, 0, 75, 93
1, 415239, Note_on_c, 0, 63, 95
1, 415247, Note_on_c, 0, 51, 79
1, 415270, Note_off_c, 0, 63, 60
1, 415280, Note_off_c, 0, 75, 64
1, 415282, Note_off_c, 0, 51, 58
1, 415343, Note_on_c, 0, 49, 76
1, 415345, Note_on_c, 0, 73, 91
1, 415349, Note_on_c, 0, 61, 95
1, 415391, Note_off_c, 0, 61, 64
1, 415397, Note_off_c, 0, 73, 62
1, 415424, Note_off_c, 0, 49, 60
1, 415443, Poly_aftertouch_c, 0, 63, 127
1, 415475, Poly_aftertouch_c, 0, 63, 0
1, 415480, Control_c, 0, 64, 77
1, 415484, Note_on_c, 0, 72, 97
1, 415486, Note_on_c, 0, 60, 105
1, 415490, Note_on_c, 0, 48, 102
1, 415495, Control_c, 0, 64, 42
1, 415510, Control_c, 0, 64, 0
1, 415545, Note_off_c, 0, 48, 67
1, 415554, Control_c, 0, 64, 36
1, 415569, Control_c, 0, 64, 62
1, 415584, Control_c, 0, 64, 86
1, 415598, Control_c, 0, 64, 127
1, 415629, Note_off_c, 0, 72, 66
1, 415658, Note_off_c, 0, 60, 64
1, 416067, Note_on_c, 0, 48, 109
1, 416067, Note_on_c, 0, 60, 92
1, 416068, Note_on_c, 0, 53, 90
1, 416070, Note_on_c, 0, 56, 93
1, 416074, Note_on_c, 0, 41, 89
1, 416076, Note_on_c, 0, 36, 85
1, 416080, Note_on_c, 0, 29, 80
1, 416082, Note_on_c, 0, 32, 83
1, 416088, Note_off_c, 0, 48, 68
1, 416095, Note_off_c, 0, 60, 69
1, 416104, Note_off_c, 0, 53, 67
1, 416109, Note_off_c, 0, 56, 66
1, 416114, Note_off_c, 0, 41, 63
1, 416121, Note_off_c, 0, 36, 59
1, 416121, Note_off_c, 0, 29, 63
1, 416122, Note_off_c, 0, 32, 62
1, 416543, Note_on_c, 0, 56, 80
1, 416546, Note_on_c, 0, 48, 91
1, 416547, Note_on_c, 0, 41, 78
1, 416547, Note_on_c, 0, 53, 80
1, 416548, Note_on_c, 0, 36, 72
1, 416556, Note_on_c, 0, 29, 65
1, 416556, Note_on_c, 0, 60, 67
1, 416563, Note_on_c, 0, 32, 63
1, 416579, Note_off_c, 0, 60, 71
1, 416584, Note_off_c, 0, 53, 61
1, 416588, Note_off_c, 0, 41, 61
1, 416589, Note_off_c, 0, 48, 62
1, 416589, Note_off_c, 0, 56, 62
1, 416591, Note_off_c, 0, 29, 62
1, 416591, Note_off_c, 0, 36, 58
1, 416592, Note_off_c, 0, 32, 62
1, 416629, Note_on_c, 0, 60, 91
1, 416631, Note_on_c, 0, 56, 77
1, 416633, Note_on_c, 0, 36, 76
1, 416633, Note_on_c, 0, 53, 76
1, 416634, Note_on_c, 0, 41, 78
1, 416637, Note_on_c, 0, 48, 73
1, 416649, Note_off_c, 0, 53, 73
1, 416652, Note_on_c, 0, 47, 47
1, 416654, Note_off_c, 0, 48, 68
1, 416661, Note_on_c, 0, 29, 47
1, 416661, Note_off_c, 0, 36, 66
1, 416672, Note_off_c, 0, 56, 63
1, 416673, Note_off_c, 0, 41, 64
1, 416674, Note_off_c, 0, 60, 66
1, 416683, Note_off_c, 0, 47, 58
1, 416685, Note_on_c, 0, 32, 22
1, 416690, Note_off_c, 0, 29, 57
1, 416706, Poly_aftertouch_c, 0, 52, 127
1, 416710, Note_off_c, 0, 32, 57
1, 416745, Poly_aftertouch_c, 0, 52, 0
1, 416946, Note_on_c, 0, 76, 86
1, 416952, Note_on_c, 0, 64, 81
1, 416953, Note_on_c, 0, 52, 62
1, 417135, Note_off_c, 0, 64, 63
1, 417139, Note_off_c, 0, 76, 62
1, 417214, Note_on_c, 0, 53, 71
1, 417214, Note_on_c, 0, 77, 100
1, 417215, Note_on_c, 0, 65, 94
1, 417257, Note_off_c, 0, 65, 67
1, 417288, Note_off_c, 0, 77, 62
1, 417322, Note_off_c, 0, 52, 51
1, 417423, Note_off_c, 0, 53, 54
1, 417459, Note_on_c, 0, 80, 102
1, 417462, Note_on_c, 0, 68, 95
1, 417465, Note_on_c, 0, 56, 75
1, 417495, Note_off_c, 0, 68, 64
1, 417510, Note_off_c, 0, 80, 62
1, 417520, Note_off_c, 0, 56, 62
1, 417771, Control_c, 0, 64, 90
1, 417786, Control_c, 0, 64, 51
1, 417797, Note_on_c, 0, 85, 98
1, 417798, Note_on_c, 0, 73, 99
1, 417800, Control_c, 0, 64, 0
1, 417804, Note_on_c, 0, 61, 97
1, 417845, Control_c, 0, 64, 35
1, 417860, Control_c, 0, 64, 60
1, 417868, Note_off_c, 0, 61, 67
1, 417874, Control_c, 0, 64, 83
1, 417889, Control_c, 0, 64, 108
1, 417904, Control_c, 0, 64, 120
1, 417909, Note_off_c, 0, 85, 63
1, 417936, Note_off_c, 0, 73, 64
1, 417948, Control_c, 0, 64, 127
1, 418302, Note_on_c, 0, 49, 95
1, 418305, Note_on_c, 0, 53, 84
1, 418305, Note_on_c, 0, 61, 83
1, 418306, Note_on_c, 0, 58, 83
1, 418308, Note_on_c, 0, 41, 90
1, 418310, Note_on_c, 0, 29, 84
1, 418310, Note_on_c, 0, 37, 80
1, 418312, Note_on_c, 0, 34, 88
1, 418322, Note_off_c, 0, 49, 73
1, 418328, Note_off_c, 0, 53, 69
1, 418336, Note_off_c, 0, 41, 69
1, 418341, Note_off_c, 0, 29, 67
1, 418342, Note_off_c, 0, 37, 66
1, 418343, Note_off_c, 0, 34, 67
1, 418350, Note_off_c, 0, 58, 65
1, 418353, Note_off_c, 0, 61, 68
1, 418590, Note_on_c, 0, 84, 87
1, 418600, Note_on_c, 0, 72, 79
1, 418608, Note_on_c, 0, 60, 62
1, 418622, Note_off_c, 0, 72, 69
1, 418631, Note_off_c, 0, 84, 65
1, 418644, Note_on_c, 0, 59, 30
1, 418646, Note_off_c, 0, 59, 43
1, 418656, Note_off_c, 0, 60, 60
1, 418705, Note_on_c, 0, 82, 88
1, 418707, Note_on_c, 0, 70, 98
1, 418711, Note_on_c, 0, 58, 76
1, 418744, Note_off_c, 0, 70, 65
1, 418755, Note_off_c, 0, 82, 61
1, 418787, Note_off_c, 0, 58, 63
1, 418826, Note_on_c, 0, 81, 101
1, 418831, Control_c, 0, 64, 94
1, 418831, Note_on_c, 0, 57, 99
1, 418831, Note_on_c, 0, 69, 104
1, 418845, Control_c, 0, 64, 61
1, 418860, Control_c, 0, 64, 0
1, 418888, Note_off_c, 0, 57, 67
1, 418905, Control_c, 0, 64, 41
1, 418920, Control_c, 0, 64, 65
1, 418935, Control_c, 0, 64, 90
1, 418941, Note_off_c, 0, 81, 64
1, 418949, Control_c, 0, 64, 127
1, 418973, Note_off_c, 0, 69, 66
1, 419182, Note_on_c, 0, 56, 19
1, 419229, Note_off_c, 0, 56, 52
1, 419317, Note_on_c, 0, 53, 88
1, 419318, Note_on_c, 0, 49, 96
1, 419319, Note_on_c, 0, 61, 86
1, 419319, Note_on_c, 0, 41, 89
1, 419319, Note_on_c, 0, 57, 80
1, 419320, Note_on_c, 0, 37, 89
1, 419323, Note_on_c, 0, 33, 88
1, 419325, Note_on_c, 0, 29, 77
1, 419338, Note_off_c, 0, 49, 72
1, 419346, Note_off_c, 0, 53, 64
1, 419350, Note_off_c, 0, 29, 66
1, 419352, Note_off_c, 0, 41, 66
1, 419354, Note_off_c, 0, 57, 67
1, 419356, Note_off_c, 0, 33, 65
1, 419364, Note_off_c, 0, 37, 61
1, 419365, Note_off_c, 0, 61, 67
1, 419603, Note_on_c, 0, 68, 98
1, 419605, Note_on_c, 0, 80, 90
1, 419613, Note_on_c, 0, 56, 81
1, 419636, Note_off_c, 0, 80, 52
1, 419638, Note_off_c, 0, 68, 64
1, 419668, Note_off_c, 0, 56, 54
1, 419710, Note_on_c, 0, 78, 89
1, 419712, Note_on_c, 0, 54, 71
1, 419715, Note_on_c, 0, 66, 95
1, 419761, Note_off_c, 0, 66, 62
1, 419768, Note_off_c, 0, 54, 62
1, 419768, Note_off_c, 0, 78, 59
1, 419841, Note_on_c, 0, 77, 99
1, 419842, Note_on_c, 0, 65, 100
1, 419846, Control_c, 0, 64, 115
1, 419848, Note_on_c, 0, 53, 96
1, 419861, Control_c, 0, 64, 72
1, 419876, Control_c, 0, 64, 33
1, 419891, Control_c, 0, 64, 0
1, 419955, Note_off_c, 0, 53, 66
1, 419957, Control_c, 0, 64, 43
1, 419972, Control_c, 0, 64, 70
1, 419987, Control_c, 0, 64, 116
1, 420002, Control_c, 0, 64, 127
1, 420017, Note_off_c, 0, 77, 63
1, 420049, Note_off_c, 0, 65, 66
1, 420446, Note_on_c, 0, 49, 94
1, 420447, Note_on_c, 0, 61, 90
1, 420449, Note_on_c, 0, 53, 86
1, 420453, Note_on_c, 0, 37, 93
1, 420454, Note_on_c, 0, 58, 90
1, 420458, Note_on_c, 0, 41, 88
1, 420458, Note_on_c, 0, 34, 86
1, 420461, Note_on_c, 0, 29, 71
1, 420479, Note_off_c, 0, 49, 68
1, 420480, Note_on_c, 0, 56, 49
1, 420485, Note_off_c, 0, 41, 68
1, 420489, Note_off_c, 0, 61, 66
1, 420493, Note_off_c, 0, 29, 63
1, 420493, Note_off_c, 0, 53, 64
1, 420497, Note_off_c, 0, 34, 63
1, 420499, Note_off_c, 0, 37, 62
1, 420502, Note_on_c, 0, 31, 29
1, 420502, Note_off_c, 0, 58, 66
1, 420508, Note_off_c, 0, 56, 57
1, 420550, Note_off_c, 0, 31, 47
1, 420565, Poly_aftertouch_c, 0, 52, 0
1, 420864, Note_on_c, 0, 49, 86
1, 420868, Note_on_c, 0, 53, 78
1, 420873, Note_on_c, 0, 37, 77
1, 420873, Note_on_c, 0, 61, 68
1, 420873, Note_on_c, 0, 41, 79
1, 420873, Note_on_c, 0, 58, 72
1, 420874, Note_on_c, 0, 29, 77
1, 420877, Note_on_c, 0, 34, 76
1, 420907, Note_off_c, 0, 49, 64
1, 420911, Note_off_c, 0, 37, 65
1, 420912, Note_off_c, 0, 41, 63
1, 420912, Note_off_c, 0, 53, 61
1, 420912, Note_off_c, 0, 58, 61
1, 420912, Note_off_c, 0, 61, 57
1, 420913, Note_off_c, 0, 34, 64
1, 420914, Note_off_c, 0, 29, 65
1, 420953, Poly_aftertouch_c, 0, 53, 0
1, 420958, Note_on_c, 0, 49, 77
1, 420959, Note_on_c, 0, 53, 68
1, 420964, Note_on_c, 0, 61, 74
1, 420967, Poly_aftertouch_c, 0, 56, 0
1, 420968, Note_on_c, 0, 58, 72
1, 420968, Note_on_c, 0, 37, 78
1, 420970, Note_on_c, 0, 41, 78
1, 420978, Note_off_c, 0, 49, 67
1, 420981, Note_off_c, 0, 53, 69
1, 420988, Note_on_c, 0, 29, 42
1, 420989, Note_off_c, 0, 58, 71
1, 420990, Note_on_c, 0, 34, 56
1, 420993, Note_off_c, 0, 37, 64
1, 420993, Note_off_c, 0, 41, 68
1, 421006, Note_off_c, 0, 61, 66
1, 421012, Note_off_c, 0, 29, 62
1, 421014, Note_off_c, 0, 34, 59
1, 421087, Poly_aftertouch_c, 0, 49, 127
1, 421121, Poly_aftertouch_c, 0, 49, 0
1, 421242, Note_on_c, 0, 78, 93
1, 421245, Note_on_c, 0, 66, 94
1, 421270, Note_on_c, 0, 54, 68
1, 421428, Note_off_c, 0, 66, 60
1, 421457, Note_off_c, 0, 78, 56
1, 421515, Note_on_c, 0, 81, 94
1, 421519, Note_on_c, 0, 69, 93
1, 421523, Note_on_c, 0, 57, 83
1, 421542, Note_off_c, 0, 69, 66
1, 421549, Note_off_c, 0, 81, 71
1, 421564, Note_off_c, 0, 54, 62
1, 421564, Note_off_c, 0, 57, 63
1, 421567, Note_on_c, 0, 51, 29
1, 421611, Note_off_c, 0, 51, 54
1, 421948, Note_on_c, 0, 82, 88
1, 421949, Note_on_c, 0, 70, 90
1, 421955, Note_on_c, 0, 58, 79
1, 421986, Note_off_c, 0, 70, 66
1, 421996, Note_off_c, 0, 82, 63
1, 422008, Note_off_c, 0, 58, 63
1, 422047, Control_c, 0, 64, 72
1, 422060, Note_on_c, 0, 85, 110
1, 422062, Note_on_c, 0, 61, 96
1, 422062, Control_c, 0, 64, 0
1, 422065, Note_on_c, 0, 73, 107
1, 422114, Note_off_c, 0, 61, 66
1, 422121, Control_c, 0, 64, 45
1, 422136, Control_c, 0, 64, 68
1, 422151, Control_c, 0, 64, 95
1, 422173, Control_c, 0, 64, 127
1, 422196, Note_off_c, 0, 85, 60
1, 422219, Note_off_c, 0, 73, 63
1, 422568, Note_on_c, 0, 49, 96
1, 422569, Note_on_c, 0, 37, 85
1, 422569, Note_on_c, 0, 41, 88
1, 422574, Note_on_c, 0, 34, 86
1, 422574, Note_on_c, 0, 58, 79
1, 422575, Note_on_c, 0, 53, 75
1, 422575, Note_on_c, 0, 61, 82
1, 422578, Note_on_c, 0, 29, 77
1, 422588, Note_off_c, 0, 49, 73
1, 422596, Note_off_c, 0, 41, 69
1, 422598, Note_off_c, 0, 53, 68
1, 422601, Note_off_c, 0, 37, 66
1, 422601, Note_off_c, 0, 29, 65
1, 422605, Note_off_c, 0, 34, 67
1, 422616, Note_off_c, 0, 58, 62
1, 422622, Note_off_c, 0, 61, 65
1, 422845, Note_on_c, 0, 84, 88
1, 422849, Note_on_c, 0, 60, 76
1, 422851, Note_on_c, 0, 72, 89
1, 422884, Note_off_c, 0, 84, 67
1, 422885, Note_off_c, 0, 72, 63
1, 422894, Note_off_c, 0, 60, 60
1, 422968, Note_on_c, 0, 82, 93
1, 422970, Note_on_c, 0, 70, 96
1, 422975, Note_on_c, 0, 58, 82
1, 423011, Note_off_c, 0, 70, 61
1, 423021, Note_off_c, 0, 82, 60
1, 423040, Note_off_c, 0, 58, 63
1, 423090, Note_on_c, 0, 81, 98
1, 423095, Note_on_c, 0, 69, 104
1, 423097, Note_on_c, 0, 57, 102
1, 423100, Control_c, 0, 64, 93
1, 423114, Control_c, 0, 64, 61
1, 423129, Control_c, 0, 64, 0
1, 423159, Note_off_c, 0, 57, 67
1, 423174, Control_c, 0, 64, 34
1, 423189, Control_c, 0, 64, 65
1, 423204, Control_c, 0, 64, 98
1, 423218, Control_c, 0, 64, 127
1, 423219, Note_off_c, 0, 81, 62
1, 423247, Note_off_c, 0, 69, 67
1, 423427, Note_on_c, 0, 56, 42
1, 423515, Note_off_c, 0, 56, 53
1, 423573, Note_on_c, 0, 49, 95
1, 423573, Note_on_c, 0, 53, 91
1, 423573, Note_on_c, 0, 57, 85
1, 423574, Note_on_c, 0, 37, 92
1, 423574, Note_on_c, 0, 41, 91
1, 423575, Note_on_c, 0, 33, 84
1, 423576, Note_on_c, 0, 61, 84
1, 423578, Note_on_c, 0, 29, 85
1, 423594, Note_off_c, 0, 49, 72
1, 423602, Note_off_c, 0, 53, 63
1, 423606, Note_off_c, 0, 41, 66
1, 423606, Note_off_c, 0, 37, 65
1, 423609, Note_off_c, 0, 33, 64
1, 423613, Note_off_c, 0, 29, 65
1, 423613, Note_off_c, 0, 57, 67
1, 423622, Note_off_c, 0, 61, 66
1, 423864, Note_on_c, 0, 80, 85
1, 423868, Note_on_c, 0, 68, 86
1, 423868, Note_on_c, 0, 56, 79
1, 423910, Note_off_c, 0, 68, 63
1, 423914, Note_off_c, 0, 80, 62
1, 423938, Note_off_c, 0, 56, 61
1, 423985, Note_on_c, 0, 78, 89
1, 423988, Note_on_c, 0, 54, 67
1, 423989, Note_on_c, 0, 66, 95
1, 424036, Note_off_c, 0, 66, 64
1, 424049, Note_off_c, 0, 78, 60
1, 424074, Note_off_c, 0, 54, 62
1, 424114, Note_on_c, 0, 77, 99
1, 424116, Note_on_c, 0, 65, 96
1, 424116, Control_c, 0, 64, 81
1, 424117, Note_on_c, 0, 53, 97
1, 424129, Note_on_c, 0, 67, 84
1, 424131, Control_c, 0, 64, 46
1, 424146, Control_c, 0, 64, 0
1, 424194, Note_off_c, 0, 53, 65
1, 424205, Control_c, 0, 64, 45
1, 424220, Control_c, 0, 64, 69
1, 424235, Control_c, 0, 64, 99
1, 424246, Note_off_c, 0, 67, 23
1, 424250, Control_c, 0, 64, 127
1, 424272, Note_off_c, 0, 77, 63
1, 424318, Note_off_c, 0, 65, 64
1, 424703, Note_on_c, 0, 49, 97
1, 424705, Note_on_c, 0, 61, 82
1, 424707, Note_on_c, 0, 53, 89
1, 424707, Note_on_c, 0, 58, 88
1, 424714, Note_on_c, 0, 41, 84
1, 424715, Note_on_c, 0, 29, 80
1, 424716, Note_on_c, 0, 37, 82
1, 424718, Note_on_c, 0, 34, 84
1, 424731, Note_off_c, 0, 49, 66
1, 424740, Note_off_c, 0, 61, 63
1, 424742, Note_off_c, 0, 41, 68
1, 424746, Note_off_c, 0, 53, 65
1, 424748, Note_off_c, 0, 37, 67
1, 424754, Note_off_c, 0, 34, 66
1, 424757, Note_off_c, 0, 29, 64
1, 424758, Note_off_c, 0, 58, 63
1, 424789, Poly_aftertouch_c, 0, 56, 127
1, 424820, Poly_aftertouch_c, 0, 56, 0
1, 425122, Note_on_c, 0, 49, 82
1, 425125, Note_on_c, 0, 53, 70
1, 425128, Note_on_c, 0, 41, 77
1, 425129, Note_on_c, 0, 29, 74
1, 425130, Note_on_c, 0, 37, 76
1, 425132, Note_on_c, 0, 58, 70
1, 425133, Note_on_c, 0, 34, 70
1, 425135, Note_on_c, 0, 61, 58
1, 425166, Note_off_c, 0, 58, 66
1, 425168, Note_off_c, 0, 49, 62
1, 425171, Note_off_c, 0, 53, 62
1, 425173, Note_off_c, 0, 37, 66
1, 425173, Note_off_c, 0, 41, 64
1, 425173, Note_off_c, 0, 61, 66
1, 425176, Note_off_c, 0, 29, 64
1, 425176, Note_off_c, 0, 34, 63
1, 425222, Note_on_c, 0, 49, 77
1, 425225, Note_on_c, 0, 61, 82
1, 425228, Note_on_c, 0, 58, 74
1, 425231, Note_on_c, 0, 53, 55
1, 425231, Note_on_c, 0, 41, 82
1, 425238, Note_on_c, 0, 37, 75
1, 425244, Note_off_c, 0, 49, 71
1, 425247, Note_off_c, 0, 53, 68
1, 425249, Note_off_c, 0, 58, 70
1, 425254, Note_off_c, 0, 41, 67
1, 425255, Note_on_c, 0, 34, 50
1, 425259, Note_on_c, 0, 29, 39
1, 425266, Note_off_c, 0, 61, 66
1, 425269, Note_off_c, 0, 37, 61
1, 425282, Note_off_c, 0, 34, 60
1, 425290, Note_off_c, 0, 29, 58
1, 425571, Note_on_c, 0, 69, 67
1, 425572, Note_on_c, 0, 57, 68
1, 425575, Note_on_c, 0, 81, 68
1, 425576, Note_on_c, 0, 83, 68
1, 425716, Note_off_c, 0, 83, 40
1, 425757, Note_off_c, 0, 69, 62
1, 425855, Note_on_c, 0, 58, 83
1, 425856, Note_on_c, 0, 82, 92
1, 425861, Note_on_c, 0, 70, 87
1, 425877, Note_on_c, 0, 80, 75
1, 425891, Note_on_c, 0, 69, 51
1, 425924, Note_off_c, 0, 69, 58
1, 425935, Note_off_c, 0, 81, 63
1, 425940, Note_off_c, 0, 80, 54
1, 425967, Note_off_c, 0, 70, 59
1, 425976, Note_off_c, 0, 57, 61
1, 426110, Note_off_c, 0, 82, 63
1, 426111, Note_on_c, 0, 72, 96
1, 426116, Note_on_c, 0, 84, 77
1, 426118, Note_on_c, 0, 60, 90
1, 426120, Note_on_c, 0, 86, 85
1, 426137, Note_off_c, 0, 86, 73
1, 426141, Note_off_c, 0, 72, 59
1, 426149, Note_off_c, 0, 58, 64
1, 426157, Note_off_c, 0, 84, 66
1, 426196, Note_off_c, 0, 60, 60
1, 426406, Control_c, 0, 64, 96
1, 426421, Control_c, 0, 64, 62
1, 426436, Control_c, 0, 64, 0
1, 426449, Note_on_c, 0, 85, 95
1, 426451, Note_on_c, 0, 61, 96
1, 426453, Note_on_c, 0, 73, 99
1, 426495, Control_c, 0, 64, 61
1, 426500, Note_off_c, 0, 61, 65
1, 426501, Note_on_c, 0, 53, 12
1, 426510, Control_c, 0, 64, 97
1, 426526, Control_c, 0, 64, 127
1, 426532, Note_off_c, 0, 53, 35
1, 426551, Note_off_c, 0, 85, 64
1, 426571, Note_off_c, 0, 73, 62
1, 426976, Note_on_c, 0, 54, 91
1, 426979, Note_on_c, 0, 66, 87
1, 426984, Note_on_c, 0, 42, 79
1, 426984, Note_on_c, 0, 49, 88
1, 426984, Note_on_c, 0, 61, 81
1, 426988, Note_on_c, 0, 57, 72
1, 426989, Note_on_c, 0, 37, 82
1, 426995, Note_off_c, 0, 54, 72
1, 427001, Note_on_c, 0, 45, 57
1, 427006, Note_off_c, 0, 49, 71
1, 427015, Note_off_c, 0, 42, 67
1, 427015, Note_off_c, 0, 61, 66
1, 427016, Note_off_c, 0, 57, 66
1, 427017, Note_off_c, 0, 37, 65
1, 427028, Note_off_c, 0, 45, 53
1, 427028, Note_off_c, 0, 66, 66
1, 427582, Note_on_c, 0, 86, 93
1, 427585, Note_on_c, 0, 74, 99
1, 427592, Note_on_c, 0, 62, 104
1, 427623, Control_c, 0, 64, 73
1, 427638, Control_c, 0, 64, 0
1, 427708, Note_off_c, 0, 62, 65
1, 427711, Control_c, 0, 64, 52
1, 427726, Control_c, 0, 64, 74
1, 427741, Control_c, 0, 64, 127
1, 427753, Note_off_c, 0, 86, 65
1, 427758, Note_off_c, 0, 74, 65
1, 428075, Note_on_c, 0, 37, 67
1, 428167, Note_on_c, 0, 41, 48
1, 428217, Note_on_c, 0, 44, 77
1, 428220, Note_off_c, 0, 37, 61
1, 428253, Note_on_c, 0, 53, 95
1, 428255, Note_on_c, 0, 56, 90
1, 428256, Note_on_c, 0, 65, 82
1, 428257, Note_off_c, 0, 41, 62
1, 428258, Note_on_c, 0, 50, 84
1, 428262, Note_on_c, 0, 59, 76
1, 428280, Note_off_c, 0, 50, 69
1, 428283, Note_off_c, 0, 53, 63
1, 428283, Note_off_c, 0, 44, 63
1, 428295, Note_off_c, 0, 59, 65
1, 428296, Note_off_c, 0, 56, 65
1, 428307, Note_off_c, 0, 65, 66
1, 428799, Note_on_c, 0, 85, 88
1, 428802, Note_on_c, 0, 73, 93
1, 428820, Note_on_c, 0, 61, 73
1, 428841, Note_off_c, 0, 73, 64
1, 428845, Note_off_c, 0, 61, 67
1, 428846, Note_off_c, 0, 85, 65
1, 428903, Note_on_c, 0, 85, 98
1, 428911, Note_on_c, 0, 73, 102
1, 428912, Note_on_c, 0, 61, 87
1, 428912, Control_c, 0, 64, 95
1, 428928, Control_c, 0, 64, 61
1, 428943, Control_c, 0, 64, 0
1, 428987, Control_c, 0, 64, 31
1, 429002, Control_c, 0, 64, 57
1, 429017, Control_c, 0, 64, 81
1, 429026, Note_off_c, 0, 61, 65
1, 429031, Control_c, 0, 64, 127
1, 429058, Note_off_c, 0, 85, 63
1, 429071, Note_off_c, 0, 73, 65
1, 429374, Note_on_c, 0, 54, 85
1, 429377, Note_on_c, 0, 66, 83
1, 429379, Note_on_c, 0, 61, 72
1, 429380, Note_on_c, 0, 49, 82
1, 429381, Note_on_c, 0, 37, 81
1, 429382, Note_on_c, 0, 57, 67
1, 429394, Note_off_c, 0, 54, 73
1, 429397, Note_on_c, 0, 42, 64
1, 429403, Note_on_c, 0, 45, 49
1, 429407, Note_off_c, 0, 49, 68
1, 429407, Note_off_c, 0, 61, 68
1, 429407, Note_off_c, 0, 57, 64
1, 429410, Note_off_c, 0, 37, 64
1, 429424, Note_off_c, 0, 66, 66
1, 429426, Note_off_c, 0, 42, 63
1, 429434, Note_off_c, 0, 45, 49
1, 429698, Note_on_c, 0, 89, 79
1, 429712, Note_on_c, 0, 77, 67
1, 429742, Note_on_c, 0, 65, 34
1, 429782, Poly_aftertouch_c, 0, 64, 127
1, 429826, Poly_aftertouch_c, 0, 64, 0
1, 429896, Note_off_c, 0, 77, 61
1, 429998, Note_on_c, 0, 90, 94
1, 430006, Note_on_c, 0, 78, 86
1, 430018, Note_on_c, 0, 66, 79
1, 430038, Note_off_c, 0, 89, 59
1, 430170, Note_off_c, 0, 78, 57
1, 430185, Note_off_c, 0, 65, 62
1, 430266, Note_on_c, 0, 91, 91
1, 430272, Note_on_c, 0, 79, 86
1, 430279, Note_on_c, 0, 67, 95
1, 430322, Note_off_c, 0, 90, 63
1, 430341, Note_off_c, 0, 79, 62
1, 430367, Note_off_c, 0, 66, 62
1, 430554, Note_on_c, 0, 92, 94
1, 430557, Note_on_c, 0, 80, 88
1, 430561, Note_on_c, 0, 68, 90
1, 430584, Note_off_c, 0, 91, 64
1, 430668, Note_off_c, 0, 67, 49
1, 430734, Note_off_c, 0, 80, 60
1, 430797, Note_on_c, 0, 69, 80
1, 430799, Note_on_c, 0, 93, 85
1, 430802, Note_on_c, 0, 81, 89
1, 430810, Note_off_c, 0, 68, 64
1, 430817, Note_off_c, 0, 69, 72
1, 430817, Note_off_c, 0, 92, 60
1, 430821, Note_off_c, 0, 81, 71
1, 430823, Note_off_c, 0, 93, 66
1, 431108, Control_c, 0, 64, 84
1, 431122, Control_c, 0, 64, 47
1, 431130, Note_on_c, 0, 85, 101
1, 431133, Note_on_c, 0, 73, 95
1, 431136, Note_on_c, 0, 61, 93
1, 431137, Control_c, 0, 64, 0
1, 431189, Control_c, 0, 64, 52
1, 431194, Note_off_c, 0, 61, 65
1, 431204, Control_c, 0, 64, 72
1, 431219, Control_c, 0, 64, 107
1, 431234, Control_c, 0, 64, 127
1, 431253, Note_off_c, 0, 85, 61
1, 431259, Note_off_c, 0, 73, 61
1, 431646, Note_on_c, 0, 66, 85
1, 431647, Note_on_c, 0, 54, 88
1, 431650, Note_on_c, 0, 37, 78
1, 431651, Note_on_c, 0, 61, 78
1, 431653, Note_on_c, 0, 49, 82
1, 431654, Note_on_c, 0, 57, 73
1, 431658, Note_on_c, 0, 45, 77
1, 431660, Note_on_c, 0, 42, 79
1, 431666, Note_off_c, 0, 54, 72
1, 431678, Note_off_c, 0, 49, 68
1, 431678, Note_off_c, 0, 57, 66
1, 431679, Note_off_c, 0, 37, 64
1, 431682, Note_off_c, 0, 45, 66
1, 431686, Note_off_c, 0, 61, 65
1, 431689, Note_off_c, 0, 42, 65
1, 431698, Note_off_c, 0, 66, 66
1, 432190, Control_c, 0, 64, 109
1, 432200, Note_on_c, 0, 86, 99
1, 432203, Note_on_c, 0, 62, 100
1, 432204, Note_on_c, 0, 74, 102
1, 432205, Control_c, 0, 64, 64
1, 432220, Control_c, 0, 64, 0
1, 432254, Note_on_c, 0, 54, 30
1, 432279, Control_c, 0, 64, 49
1, 432280, Note_off_c, 0, 62, 65
1, 432292, Note_off_c, 0, 54, 32
1, 432294, Control_c, 0, 64, 70
1, 432308, Control_c, 0, 64, 96
1, 432323, Control_c, 0, 64, 127
1, 432367, Note_off_c, 0, 86, 66
1, 432385, Note_off_c, 0, 74, 61
1, 432577, Note_on_c, 0, 37, 71
1, 432668, Note_on_c, 0, 41, 74
1, 432734, Note_on_c, 0, 44, 73
1, 432830, Note_on_c, 0, 50, 93
1, 432837, Note_on_c, 0, 53, 96
1, 432837, Note_on_c, 0, 56, 94
1, 432838, Note_on_c, 0, 65, 87
1, 432841, Note_on_c, 0, 59, 83
1, 432845, Note_off_c, 0, 37, 58
1, 432849, Note_off_c, 0, 41, 62
1, 432868, Note_off_c, 0, 50, 67
1, 432868, Note_off_c, 0, 53, 64
1, 432872, Note_off_c, 0, 44, 63
1, 432886, Note_off_c, 0, 56, 62
1, 432887, Note_off_c, 0, 59, 65
1, 432895, Note_off_c, 0, 65, 67
1, 433406, Note_on_c, 0, 85, 88
1, 433407, Note_on_c, 0, 73, 88
1, 433422, Note_on_c, 0, 61, 73
1, 433443, Note_off_c, 0, 73, 65
1, 433447, Note_off_c, 0, 61, 66
1, 433449, Note_off_c, 0, 85, 65
1, 433488, Note_on_c, 0, 85, 92
1, 433489, Note_on_c, 0, 61, 95
1, 433494, Control_c, 0, 64, 82
1, 433497, Note_on_c, 0, 73, 94
1, 433509, Control_c, 0, 64, 35
1, 433523, Control_c, 0, 64, 0
1, 433583, Control_c, 0, 64, 49
1, 433598, Control_c, 0, 64, 71
1, 433613, Control_c, 0, 64, 98
1, 433628, Control_c, 0, 64, 127
1, 433637, Note_off_c, 0, 61, 65
1, 433651, Note_off_c, 0, 85, 64
1, 433670, Note_off_c, 0, 73, 64
1, 433969, Note_on_c, 0, 54, 86
1, 433973, Note_on_c, 0, 57, 72
1, 433973, Note_on_c, 0, 66, 82
1, 433974, Note_on_c, 0, 61, 74
1, 433977, Note_on_c, 0, 49, 80
1, 433985, Note_on_c, 0, 37, 74
1, 433985, Note_on_c, 0, 42, 71
1, 433990, Note_off_c, 0, 54, 70
1, 433993, Note_on_c, 0, 45, 55
1, 434000, Note_off_c, 0, 57, 67
1, 434002, Note_off_c, 0, 49, 67
1, 434004, Note_off_c, 0, 61, 68
1, 434009, Note_off_c, 0, 42, 66
1, 434014, Note_off_c, 0, 37, 66
1, 434020, Note_off_c, 0, 45, 52
1, 434020, Note_off_c, 0, 66, 65
1, 434290, Note_on_c, 0, 89, 81
1, 434306, Note_on_c, 0, 77, 68
1, 434310, Note_on_c, 0, 65, 67
1, 434483, Note_off_c, 0, 77, 57
1, 434641, Note_on_c, 0, 90, 86
1, 434645, Note_on_c, 0, 66, 69
1, 434648, Note_on_c, 0, 78, 77
1, 434678, Note_off_c, 0, 89, 56
1, 434810, Note_off_c, 0, 78, 47
1, 434820, Note_off_c, 0, 65, 57
1, 434927, Note_on_c, 0, 91, 94
1, 434928, Note_on_c, 0, 67, 89
1, 434934, Note_on_c, 0, 79, 81
1, 434977, Note_off_c, 0, 90, 62
1, 435011, Note_off_c, 0, 66, 62
1, 435027, Note_off_c, 0, 79, 62
1, 435177, Note_on_c, 0, 68, 101
1, 435178, Note_on_c, 0, 92, 98
1, 435181, Note_on_c, 0, 80, 97
1, 435192, Note_off_c, 0, 67, 67
1, 435204, Note_off_c, 0, 68, 66
1, 435205, Note_off_c, 0, 91, 65
1, 435207, Note_on_c, 0, 93, 60
1, 435223, Note_off_c, 0, 80, 65
1, 435226, Note_off_c, 0, 93, 59
1, 435266, Note_off_c, 0, 92, 65
1, 435745, Note_on_c, 0, 69, 81
1, 435747, Note_on_c, 0, 93, 95
1, 435750, Note_on_c, 0, 81, 86
1, 435801, Note_off_c, 0, 81, 66
1, 435801, Note_off_c, 0, 69, 64
1, 435817, Note_off_c, 0, 93, 64
1, 435843, Control_c, 0, 64, 114
1, 435852, Note_on_c, 0, 93, 91
1, 435855, Note_on_c, 0, 69, 95
1, 435858, Note_on_c, 0, 81, 95
1, 435858, Control_c, 0, 64, 66
1, 435873, Control_c, 0, 64, 0
1, 435913, Note_off_c, 0, 69, 65
1, 435917, Control_c, 0, 64, 32
1, 435932, Control_c, 0, 64, 59
1, 435947, Control_c, 0, 64, 88
1, 435962, Control_c, 0, 64, 127
1, 435977, Note_off_c, 0, 93, 63
1, 436010, Note_off_c, 0, 81, 67
1, 436466, Note_on_c, 0, 51, 95
1, 436467, Note_on_c, 0, 63, 92
1, 436469, Note_on_c, 0, 54, 81
1, 436469, Note_on_c, 0, 57, 77
1, 436471, Note_on_c, 0, 36, 85
1, 436471, Note_on_c, 0, 48, 94
1, 436474, Note_on_c, 0, 42, 88
1, 436479, Note_on_c, 0, 39, 79
1, 436492, Note_off_c, 0, 51, 65
1, 436497, Note_off_c, 0, 48, 67
1, 436503, Note_off_c, 0, 36, 66
1, 436503, Note_off_c, 0, 54, 64
1, 436511, Note_off_c, 0, 42, 62
1, 436511, Note_off_c, 0, 57, 63
1, 436513, Note_off_c, 0, 39, 63
1, 436526, Note_off_c, 0, 63, 67
1, 437189, Note_on_c, 0, 93, 97
1, 437190, Note_on_c, 0, 81, 93
1, 437193, Control_c, 0, 64, 89
1, 437196, Note_on_c, 0, 69, 95
1, 437208, Control_c, 0, 64, 56
1, 437223, Control_c, 0, 64, 0
1, 437297, Control_c, 0, 64, 59
1, 437312, Control_c, 0, 64, 77
1, 437327, Control_c, 0, 64, 106
1, 437342, Control_c, 0, 64, 127
1, 437363, Note_off_c, 0, 93, 62
1, 437365, Note_off_c, 0, 69, 61
1, 437375, Note_off_c, 0, 81, 64
1, 437379, Note_on_c, 0, 90, 50
1, 437400, Note_off_c, 0, 90, 60
1, 438013, Note_on_c, 0, 63, 90
1, 438016, Note_on_c, 0, 51, 85
1, 438018, Note_on_c, 0, 54, 82
1, 438021, Note_on_c, 0, 47, 85
1, 438024, Note_on_c, 0, 57, 73
1, 438025, Note_on_c, 0, 35, 77
1, 438025, Note_on_c, 0, 42, 81
1, 438031, Note_on_c, 0, 39, 75
1, 438049, Note_off_c, 0, 51, 63
1, 438060, Note_off_c, 0, 47, 64
1, 438060, Note_off_c, 0, 35, 65
1, 438063, Note_off_c, 0, 54, 63
1, 438069, Note_off_c, 0, 57, 63
1, 438074, Note_off_c, 0, 39, 63
1, 438077, Note_off_c, 0, 42, 62
1, 438093, Note_off_c, 0, 63, 65
1, 438874, Note_on_c, 0, 93, 89
1, 438882, Note_on_c, 0, 81, 81
1, 439042, Note_off_c, 0, 81, 61
1, 439050, Note_off_c, 0, 93, 64
1, 439104, Note_on_c, 0, 93, 82
1, 439115, Note_on_c, 0, 81, 76
1, 439118, Note_on_c, 0, 46, 81
1, 439122, Note_on_c, 0, 34, 78
1, 439180, Control_c, 0, 64, 80
1, 439195, Control_c, 0, 64, 53
1, 439209, Control_c, 0, 64, 0
1, 439253, Control_c, 0, 64, 47
1, 439268, Control_c, 0, 64, 69
1, 439283, Control_c, 0, 64, 103
1, 439298, Control_c, 0, 64, 127
1, 439304, Note_off_c, 0, 81, 64
1, 439438, Note_off_c, 0, 34, 61
1, 439490, Note_off_c, 0, 46, 62
1, 439581, Note_on_c, 0, 94, 92
1, 439586, Note_on_c, 0, 82, 88
1, 439629, Note_off_c, 0, 93, 61
1, 439837, Note_on_c, 0, 70, 89
1, 439843, Note_on_c, 0, 66, 86
1, 439847, Note_on_c, 0, 63, 76
1, 439850, Note_on_c, 0, 58, 75
1, 439886, Note_off_c, 0, 82, 50
1, 439946, Note_off_c, 0, 70, 62
1, 439998, Note_off_c, 0, 66, 64
1, 440010, Note_off_c, 0, 63, 62
1, 440031, Note_off_c, 0, 58, 63
1, 440120, Note_on_c, 0, 95, 94
1, 440125, Note_on_c, 0, 83, 98
1, 440174, Note_off_c, 0, 94, 66
1, 440406, Note_on_c, 0, 45, 92
1, 440408, Note_on_c, 0, 33, 92
1, 440426, Control_c, 0, 64, 83
1, 440440, Control_c, 0, 64, 42
1, 440456, Control_c, 0, 64, 0
1, 440486, Control_c, 0, 64, 32
1, 440501, Control_c, 0, 64, 58
1, 440515, Control_c, 0, 64, 87
1, 440530, Control_c, 0, 64, 127
1, 440582, Note_off_c, 0, 95, 65
1, 440584, Note_off_c, 0, 83, 58
1, 440636, Note_off_c, 0, 33, 60
1, 440684, Note_off_c, 0, 45, 62
1, 440745, Note_on_c, 0, 96, 99
1, 440746, Note_on_c, 0, 84, 96
1, 440869, Note_off_c, 0, 84, 61
1, 441152, Note_on_c, 0, 99, 105
1, 441155, Note_on_c, 0, 87, 98
1, 441156, Note_on_c, 0, 73, 91
1, 441161, Note_on_c, 0, 61, 74
1, 441165, Note_on_c, 0, 67, 82
1, 441169, Note_on_c, 0, 64, 75
1, 441176, Note_off_c, 0, 96, 63
1, 441186, Note_off_c, 0, 73, 61
1, 441194, Note_off_c, 0, 61, 64
1, 441196, Note_off_c, 0, 67, 61
1, 441198, Note_off_c, 0, 64, 67
1, 441410, Note_off_c, 0, 87, 63
1, 441679, Note_on_c, 0, 85, 96
1, 441681, Note_on_c, 0, 97, 93
1, 441787, Note_off_c, 0, 99, 63
1, 441930, Note_off_c, 0, 85, 61
1, 441936, Note_off_c, 0, 97, 63
1, 442224, Note_on_c, 0, 97, 87
1, 442230, Note_on_c, 0, 85, 84
1, 442238, Note_on_c, 0, 44, 73
1, 442245, Note_on_c, 0, 32, 70
1, 442308, Control_c, 0, 64, 102
1, 442323, Control_c, 0, 64, 71
1, 442338, Control_c, 0, 64, 39
1, 442353, Control_c, 0, 64, 0
1, 442434, Control_c, 0, 64, 58
1, 442449, Control_c, 0, 64, 77
1, 442464, Control_c, 0, 64, 127
1, 442572, Note_off_c, 0, 32, 60
1, 442609, Note_off_c, 0, 44, 62
1, 443091, Note_on_c, 0, 72, 74
1, 443093, Note_on_c, 0, 65, 62
1, 443095, Note_on_c, 0, 60, 58
1, 443110, Note_off_c, 0, 72, 69
1, 443134, Note_off_c, 0, 60, 65
1, 443152, Note_off_c, 0, 65, 61
1, 443196, Note_off_c, 0, 97, 65
1, 443265, Note_off_c, 0, 85, 55
1, 443662, Note_on_c, 0, 96, 82
1, 443664, Note_on_c, 0, 84, 71
1, 443715, Note_off_c, 0, 84, 63
1, 443812, Note_on_c, 0, 94, 88
1, 443829, Note_on_c, 0, 82, 70
1, 443869, Note_off_c, 0, 82, 54
1, 443897, Note_off_c, 0, 96, 43
1, 443994, Note_on_c, 0, 92, 87
1, 443997, Note_on_c, 0, 80, 76
1, 444004, Note_on_c, 0, 34, 65
1, 444004, Note_on_c, 0, 46, 63
1, 444094, Note_off_c, 0, 94, 62
1, 444096, Control_c, 0, 64, 93
1, 444112, Control_c, 0, 64, 61
1, 444127, Control_c, 0, 64, 0
1, 444201, Control_c, 0, 64, 44
1, 444216, Control_c, 0, 64, 66
1, 444230, Control_c, 0, 64, 84
1, 444245, Control_c, 0, 64, 127
1, 444278, Note_off_c, 0, 34, 62
1, 444314, Note_off_c, 0, 46, 61
1, 444755, Note_on_c, 0, 67, 63
1, 444762, Note_on_c, 0, 65, 54
1, 444764, Note_on_c, 0, 55, 53
1, 444776, Note_on_c, 0, 61, 54
1, 444836, Note_off_c, 0, 92, 63
1, 444888, Note_off_c, 0, 80, 45
1, 444922, Note_off_c, 0, 67, 60
1, 444982, Note_off_c, 0, 55, 53
1, 445011, Note_off_c, 0, 61, 63
1, 445039, Note_off_c, 0, 65, 62
1, 445216, Note_on_c, 0, 91, 72
1, 445225, Note_on_c, 0, 79, 65
1, 445268, Note_off_c, 0, 79, 59
1, 445271, Note_off_c, 0, 91, 65
1, 445380, Note_on_c, 0, 89, 76
1, 445387, Note_on_c, 0, 77, 66
1, 445417, Note_off_c, 0, 77, 62
1, 445609, Note_on_c, 0, 87, 73
1, 445620, Note_on_c, 0, 75, 58
1, 445621, Note_on_c, 0, 48, 61
1, 445622, Note_on_c, 0, 36, 57
1, 445647, Note_off_c, 0, 89, 52
1, 445683, Control_c, 0, 64, 79
1, 445697, Control_c, 0, 64, 55
1, 445712, Control_c, 0, 64, 0
1, 445787, Control_c, 0, 64, 54
1, 445801, Control_c, 0, 64, 72
1, 445816, Control_c, 0, 64, 96
1, 445831, Control_c, 0, 64, 127
1, 445866, Note_off_c, 0, 36, 60
1, 445912, Note_off_c, 0, 87, 63
1, 445915, Note_off_c, 0, 48, 61
1, 445968, Note_off_c, 0, 75, 37
1, 446160, Note_on_c, 0, 86, 77
1, 446167, Note_on_c, 0, 74, 74
1, 446452, Note_on_c, 0, 68, 72
1, 446452, Note_on_c, 0, 65, 69
1, 446461, Note_on_c, 0, 60, 61
1, 446461, Note_on_c, 0, 56, 67
1, 446506, Note_off_c, 0, 74, 63
1, 446623, Note_off_c, 0, 68, 60
1, 446668, Note_off_c, 0, 56, 60
1, 446717, Note_off_c, 0, 65, 60
1, 446742, Note_off_c, 0, 60, 56
1, 446779, Note_on_c, 0, 85, 92
1, 446783, Note_on_c, 0, 73, 90
1, 446836, Note_off_c, 0, 86, 61
1, 447138, Note_on_c, 0, 46, 80
1, 447139, Note_on_c, 0, 34, 79
1, 447165, Control_c, 0, 64, 94
1, 447180, Control_c, 0, 64, 58
1, 447194, Control_c, 0, 64, 0
1, 447224, Control_c, 0, 64, 34
1, 447239, Control_c, 0, 64, 61
1, 447253, Control_c, 0, 64, 92
1, 447257, Note_off_c, 0, 85, 55
1, 447268, Control_c, 0, 64, 127
1, 447349, Note_off_c, 0, 73, 57
1, 447507, Note_off_c, 0, 34, 62
1, 447517, Note_on_c, 0, 83, 84
1, 447524, Note_on_c, 0, 71, 83
1, 447528, Note_off_c, 0, 46, 61
1, 447629, Note_off_c, 0, 71, 59
1, 447738, Note_on_c, 0, 84, 93
1, 447745, Note_on_c, 0, 72, 85
1, 447775, Note_off_c, 0, 72, 61
1, 447784, Note_off_c, 0, 83, 63
1, 447811, Note_off_c, 0, 84, 68
1, 447958, Note_on_c, 0, 92, 97
1, 447962, Note_on_c, 0, 80, 90
1, 447968, Note_on_c, 0, 55, 68
1, 447969, Note_on_c, 0, 64, 71
1, 447971, Note_on_c, 0, 67, 73
1, 447980, Note_on_c, 0, 60, 63
1, 448035, Note_off_c, 0, 67, 61
1, 448036, Note_off_c, 0, 55, 61
1, 448058, Note_off_c, 0, 64, 59
1, 448069, Note_off_c, 0, 60, 59
1, 448081, Note_off_c, 0, 80, 59
1, 448110, Note_off_c, 0, 92, 64
1, 448178, Note_on_c, 0, 91, 87
1, 448186, Note_on_c, 0, 79, 83
1, 448226, Note_off_c, 0, 79, 67
1, 448232, Note_off_c, 0, 91, 68
1, 448320, Note_on_c, 0, 88, 86
1, 448322, Note_on_c, 0, 76, 99
1, 448356, Note_off_c, 0, 88, 67
1, 448361, Note_off_c, 0, 76, 65
1, 448455, Note_on_c, 0, 73, 98
1, 448867, Note_on_c, 0, 85, 91
1, 448893, Note_on_c, 0, 32, 62
1, 448896, Note_on_c, 0, 44, 59
1, 448959, Control_c, 0, 64, 89
1, 448973, Control_c, 0, 64, 65
1, 448988, Control_c, 0, 64, 34
1, 449003, Control_c, 0, 64, 0
1, 449077, Control_c, 0, 64, 29
1, 449092, Control_c, 0, 64, 54
1, 449107, Control_c, 0, 64, 72
1, 449129, Control_c, 0, 64, 83
1, 449144, Control_c, 0, 64, 95
1, 449158, Control_c, 0, 64, 110
1, 449164, Poly_aftertouch_c, 0, 82, 127
1, 449173, Control_c, 0, 64, 127
1, 449193, Note_off_c, 0, 32, 59
1, 449222, Note_off_c, 0, 44, 61
1, 449271, Note_off_c, 0, 73, 53
1, 449292, Poly_aftertouch_c, 0, 82, 0
1, 449810, Note_on_c, 0, 65, 43
1, 449829, Note_on_c, 0, 60, 38
1, 449832, Note_on_c, 0, 53, 36
1, 449939, Note_off_c, 0, 65, 63
1, 449990, Note_off_c, 0, 85, 60
1, 450039, Note_off_c, 0, 53, 33
1, 450167, Note_off_c, 0, 60, 41
1, 450293, Note_on_c, 0, 84, 69
1, 450298, Note_on_c, 0, 72, 61
1, 450327, Note_off_c, 0, 72, 64
1, 450453, Note_on_c, 0, 82, 79
1, 450470, Note_on_c, 0, 70, 61
1, 450480, Note_off_c, 0, 84, 62
1, 450491, Note_off_c, 0, 70, 64
1, 450685, Note_on_c, 0, 80, 79
1, 450699, Note_on_c, 0, 68, 64
1, 450726, Note_off_c, 0, 82, 62
1, 450734, Note_on_c, 0, 46, 36
1, 450736, Note_on_c, 0, 34, 37
1, 450805, Control_c, 0, 64, 107
1, 450820, Control_c, 0, 64, 86
1, 450835, Control_c, 0, 64, 70
1, 450849, Control_c, 0, 64, 48
1, 450864, Control_c, 0, 64, 0
1, 450923, Control_c, 0, 67, 35
1, 450938, Control_c, 0, 64, 36
1, 450938, Control_c, 0, 67, 44
1, 450953, Control_c, 0, 64, 56
1, 450953, Control_c, 0, 67, 52
1, 450968, Control_c, 0, 64, 70
1, 450968, Control_c, 0, 67, 64
1, 450983, Control_c, 0, 64, 81
1, 450983, Control_c, 0, 67, 78
1, 450998, Control_c, 0, 64, 94
1, 450998, Control_c, 0, 67, 93
1, 451012, Control_c, 0, 64, 105
1, 451012, Control_c, 0, 67, 102
1, 451027, Control_c, 0, 64, 127
1, 451027, Control_c, 0, 67, 107
1, 451042, Control_c, 0, 67, 113
1, 451057, Control_c, 0, 67, 121
1, 451072, Control_c, 0, 67, 127
1, 451081, Note_off_c, 0, 34, 40
1, 451102, Note_off_c, 0, 46, 60
1, 451203, Note_off_c, 0, 68, 56
1, 451531, Note_on_c, 0, 58, 49
1, 451531, Note_on_c, 0, 61, 48
1, 451590, Note_off_c, 0, 58, 59
1, 451599, Note_off_c, 0, 61, 58
1, 451692, Note_off_c, 0, 80, 40
1, 452011, Note_on_c, 0, 78, 59
1, 452026, Note_on_c, 0, 66, 55
1, 452066, Note_off_c, 0, 66, 64
1, 452086, Note_off_c, 0, 78, 52
1, 452199, Note_on_c, 0, 77, 59
1, 452220, Note_on_c, 0, 65, 40
1, 452252, Note_off_c, 0, 65, 54
1, 452295, Note_off_c, 0, 77, 54
1, 452466, Note_on_c, 0, 75, 67
1, 452509, Control_c, 0, 64, 111
1, 452513, Note_on_c, 0, 36, 44
1, 452524, Note_on_c, 0, 48, 39
1, 452524, Control_c, 0, 64, 83
1, 452539, Control_c, 0, 64, 65
1, 452554, Control_c, 0, 64, 45
1, 452568, Control_c, 0, 64, 0
1, 452643, Control_c, 0, 64, 34
1, 452658, Control_c, 0, 64, 52
1, 452673, Control_c, 0, 64, 65
1, 452687, Control_c, 0, 64, 70
1, 452702, Control_c, 0, 64, 73
1, 452717, Control_c, 0, 64, 78
1, 452726, Note_off_c, 0, 75, 47
1, 452731, Control_c, 0, 64, 91
1, 452742, Note_off_c, 0, 36, 36
1, 452746, Control_c, 0, 64, 127
1, 452780, Note_off_c, 0, 48, 41
1, 453172, Note_on_c, 0, 74, 77
1, 453533, Note_off_c, 0, 74, 61
1, 453561, Note_on_c, 0, 56, 37
1, 453564, Note_on_c, 0, 60, 37
1, 453573, Note_on_c, 0, 65, 36
1, 453980, Note_on_c, 0, 73, 73
1, 454053, Control_c, 0, 64, 105
1, 454067, Control_c, 0, 64, 80
1, 454082, Control_c, 0, 64, 64
1, 454097, Control_c, 0, 64, 50
1, 454112, Control_c, 0, 64, 45
1, 454127, Control_c, 0, 64, 47
1, 454141, Control_c, 0, 64, 53
1, 454156, Control_c, 0, 64, 62
1, 454171, Control_c, 0, 64, 71
1, 454185, Control_c, 0, 64, 81
1, 454200, Control_c, 0, 64, 90
1, 454215, Control_c, 0, 64, 96
1, 454230, Control_c, 0, 64, 103
1, 454245, Control_c, 0, 64, 116
1, 454259, Control_c, 0, 64, 127
1, 454399, Note_off_c, 0, 73, 54
1, 454426, Note_off_c, 0, 65, 34
1, 454475, Note_off_c, 0, 56, 42
1, 454491, Note_off_c, 0, 60, 37
1, 455168, Note_on_c, 0, 72, 60
1, 455418, Note_off_c, 0, 72, 60
1, 455600, Note_on_c, 0, 71, 66
1, 455654, Control_c, 0, 64, 85
1, 455669, Control_c, 0, 64, 67
1, 455683, Control_c, 0, 64, 54
1, 455698, Control_c, 0, 64, 47
1, 455713, Control_c, 0, 64, 48
1, 455728, Control_c, 0, 64, 54
1, 455743, Control_c, 0, 64, 64
1, 455757, Control_c, 0, 64, 76
1, 455772, Control_c, 0, 64, 93
1, 455787, Control_c, 0, 64, 127
1, 455806, Note_off_c, 0, 71, 61
1, 455941, Note_on_c, 0, 70, 79
1, 455972, Control_c, 0, 64, 94
1, 455987, Control_c, 0, 64, 70
1, 456002, Control_c, 0, 64, 55
1, 456017, Control_c, 0, 64, 47
1, 456031, Control_c, 0, 64, 48
1, 456046, Control_c, 0, 64, 54
1, 456061, Control_c, 0, 64, 67
1, 456076, Control_c, 0, 64, 82
1, 456092, Control_c, 0, 64, 106
1, 456107, Control_c, 0, 64, 127
1, 456150, Note_off_c, 0, 70, 55
1, 456180, Control_c, 0, 67, 123
1, 456253, Note_on_c, 0, 69, 81
1, 456254, Control_c, 0, 67, 126
1, 456299, Control_c, 0, 64, 82
1, 456314, Control_c, 0, 64, 62
1, 456328, Control_c, 0, 64, 48
1, 456343, Control_c, 0, 64, 47
1, 456358, Control_c, 0, 64, 53
1, 456373, Control_c, 0, 64, 64
1, 456387, Control_c, 0, 64, 79
1, 456402, Control_c, 0, 64, 107
1, 456417, Control_c, 0, 64, 127
1, 456448, Note_off_c, 0, 69, 62
1, 456540, Note_on_c, 0, 68, 82
1, 456617, Control_c, 0, 64, 82
1, 456632, Control_c, 0, 64, 61
1, 456647, Control_c, 0, 64, 42
1, 456661, Control_c, 0, 64, 35
1, 456676, Control_c, 0, 64, 41
1, 456681, Note_on_c, 0, 48, 44
1, 456691, Control_c, 0, 64, 56
1, 456706, Control_c, 0, 64, 70
1, 456721, Control_c, 0, 64, 87
1, 456736, Control_c, 0, 64, 113
1, 456751, Control_c, 0, 64, 127
1, 456766, Note_on_c, 0, 52, 44
1, 456848, Note_off_c, 0, 68, 54
1, 456927, Note_on_c, 0, 58, 41
1, 457007, Note_on_c, 0, 67, 68
1, 457033, Control_c, 0, 64, 96
1, 457048, Control_c, 0, 64, 74
1, 457063, Control_c, 0, 64, 57
1, 457077, Control_c, 0, 64, 32
1, 457092, Control_c, 0, 64, 0
1, 457122, Control_c, 0, 64, 36
1, 457136, Control_c, 0, 64, 54
1, 457149, Note_on_c, 0, 61, 36
1, 457151, Control_c, 0, 64, 67
1, 457166, Control_c, 0, 64, 78
1, 457181, Control_c, 0, 64, 90
1, 457196, Control_c, 0, 64, 97
1, 457210, Control_c, 0, 64, 108
1, 457225, Control_c, 0, 64, 127
1, 457255, Note_off_c, 0, 67, 60
1, 457439, Note_on_c, 0, 66, 57
1, 457455, Control_c, 0, 64, 112
1, 457470, Control_c, 0, 64, 83
1, 457484, Control_c, 0, 64, 63
1, 457499, Control_c, 0, 64, 46
1, 457514, Control_c, 0, 64, 33
1, 457529, Control_c, 0, 64, 31
1, 457544, Control_c, 0, 64, 32
1, 457558, Control_c, 0, 64, 39
1, 457573, Control_c, 0, 64, 51
1, 457588, Control_c, 0, 64, 64
1, 457603, Control_c, 0, 64, 74
1, 457618, Control_c, 0, 64, 86
1, 457633, Control_c, 0, 64, 97
1, 457648, Control_c, 0, 64, 102
1, 457662, Control_c, 0, 64, 108
1, 457678, Control_c, 0, 64, 116
1, 457693, Control_c, 0, 64, 127
1, 457716, Note_off_c, 0, 66, 56
1, 457880, Note_on_c, 0, 65, 47
1, 457900, Control_c, 0, 64, 114
1, 457915, Control_c, 0, 64, 89
1, 457930, Control_c, 0, 64, 72
1, 457945, Control_c, 0, 64, 57
1, 457959, Control_c, 0, 64, 38
1, 457974, Control_c, 0, 64, 0
1, 458033, Control_c, 0, 64, 45
1, 458048, Control_c, 0, 64, 60
1, 458063, Control_c, 0, 64, 70
1, 458078, Control_c, 0, 64, 77
1, 458093, Control_c, 0, 64, 82
1, 458115, Control_c, 0, 64, 86
1, 458130, Control_c, 0, 64, 93
1, 458145, Control_c, 0, 64, 102
1, 458159, Control_c, 0, 64, 113
1, 458174, Control_c, 0, 64, 127
1, 458275, Note_off_c, 0, 65, 55
1, 458280, Note_off_c, 0, 61, 39
1, 458307, Note_off_c, 0, 48, 36
1, 458371, Note_off_c, 0, 52, 35
1, 458420, Note_off_c, 0, 58, 36
1, 458802, Note_on_c, 0, 64, 44
1, 458864, Control_c, 0, 64, 104
1, 458879, Control_c, 0, 64, 93
1, 458894, Control_c, 0, 64, 83
1, 458908, Control_c, 0, 64, 73
1, 458923, Control_c, 0, 64, 61
1, 458938, Control_c, 0, 64, 52
1, 458953, Control_c, 0, 64, 47
1, 458968, Control_c, 0, 64, 47
1, 458982, Control_c, 0, 64, 47
1, 458997, Control_c, 0, 64, 49
1, 459012, Control_c, 0, 64, 53
1, 459027, Control_c, 0, 64, 59
1, 459042, Control_c, 0, 64, 64
1, 459056, Control_c, 0, 64, 72
1, 459071, Control_c, 0, 64, 83
1, 459086, Control_c, 0, 64, 93
1, 459100, Control_c, 0, 64, 96
1, 459115, Control_c, 0, 64, 100
1, 459130, Control_c, 0, 64, 108
1, 459145, Control_c, 0, 64, 127
1, 459255, Note_off_c, 0, 64, 49
1, 459717, Control_c, 0, 64, 115
1, 459731, Control_c, 0, 64, 109
1, 459746, Control_c, 0, 64, 105
1, 459761, Control_c, 0, 64, 102
1, 459776, Control_c, 0, 64, 100
1, 459791, Control_c, 0, 64, 98
1, 459820, Control_c, 0, 64, 94
1, 459835, Control_c, 0, 64, 92
1, 459850, Control_c, 0, 64, 91
1, 459865, Control_c, 0, 64, 89
1, 459879, Control_c, 0, 64, 88
1, 459894, Control_c, 0, 64, 87
1, 459909, Control_c, 0, 64, 85
1, 459923, Control_c, 0, 64, 84
1, 459937, Control_c, 0, 64, 82
1, 459952, Control_c, 0, 64, 81
1, 459967, Control_c, 0, 64, 79
1, 459982, Control_c, 0, 64, 77
1, 459997, Control_c, 0, 64, 74
1, 460012, Control_c, 0, 64, 71
1, 460027, Control_c, 0, 64, 69
1, 460042, Control_c, 0, 64, 66
1, 460056, Control_c, 0, 64, 65
1, 460072, Control_c, 0, 64, 64
1, 460087, Control_c, 0, 64, 63
1, 460101, Control_c, 0, 64, 63
1, 460161, Control_c, 0, 64, 62
1, 460191, Control_c, 0, 64, 62
1, 460206, Control_c, 0, 64, 61
1, 460220, Control_c, 0, 64, 61
1, 460235, Control_c, 0, 64, 59
1, 460250, Control_c, 0, 64, 59
1, 460265, Control_c, 0, 64, 58
1, 460309, Control_c, 0, 64, 58
1, 460324, Control_c, 0, 64, 57
1, 460339, Control_c, 0, 64, 57
1, 460465, Control_c, 0, 64, 57
1, 460568, Control_c, 0, 64, 57
1, 460613, Control_c, 0, 64, 57
1, 460640, Note_on_c, 0, 68, 54
1, 460642, Control_c, 0, 64, 57
1, 460775, Control_c, 0, 64, 57
1, 460805, Control_c, 0, 64, 57
1, 460924, Control_c, 0, 64, 57
1, 461088, Control_c, 0, 67, 115
1, 461109, Control_c, 0, 67, 110
1, 461139, Control_c, 0, 67, 106
1, 461154, Control_c, 0, 67, 99
1, 461169, Control_c, 0, 67, 81
1, 461183, Control_c, 0, 67, 65
1, 461198, Control_c, 0, 67, 57
1, 461213, Control_c, 0, 67, 55
1, 461243, Control_c, 0, 67, 58
1, 461258, Control_c, 0, 67, 64
1, 461273, Control_c, 0, 67, 71
1, 461288, Control_c, 0, 67, 77
1, 461302, Control_c, 0, 67, 82
1, 461317, Control_c, 0, 67, 85
1, 461332, Control_c, 0, 67, 90
1, 461347, Control_c, 0, 67, 99
1, 461362, Control_c, 0, 67, 108
1, 461376, Control_c, 0, 67, 116
1, 461391, Control_c, 0, 67, 125
1, 461406, Control_c, 0, 67, 127
1, 462214, Control_c, 0, 64, 57
1, 462555, Control_c, 0, 64, 56
1, 463356, Note_on_c, 0, 67, 30
1, 463401, Control_c, 0, 64, 57
1, 463445, Control_c, 0, 64, 56
1, 463517, Note_off_c, 0, 68, 32
1, 463549, Control_c, 0, 64, 57
1, 463726, Control_c, 0, 64, 57
1, 463741, Control_c, 0, 64, 58
1, 463771, Control_c, 0, 64, 59
1, 463786, Control_c, 0, 64, 60
1, 463800, Control_c, 0, 64, 61
1, 463815, Control_c, 0, 64, 63
1, 463830, Control_c, 0, 64, 66
1, 463845, Control_c, 0, 64, 68
1, 463860, Control_c, 0, 64, 71
1, 463875, Control_c, 0, 64, 74
1, 463889, Control_c, 0, 64, 77
1, 463904, Control_c, 0, 64, 79
1, 463919, Control_c, 0, 64, 81
1, 463934, Control_c, 0, 64, 83
1, 463949, Control_c, 0, 64, 85
1, 463964, Control_c, 0, 64, 86
1, 463978, Control_c, 0, 64, 87
1, 463993, Control_c, 0, 64, 89
1, 464008, Control_c, 0, 64, 91
1, 464023, Control_c, 0, 64, 93
1, 464038, Control_c, 0, 64, 96
1, 464052, Control_c, 0, 64, 98
1, 464068, Control_c, 0, 64, 100
1, 464083, Control_c, 0, 64, 102
1, 464120, Control_c, 0, 64, 104
1, 464149, Control_c, 0, 64, 107
1, 464164, Control_c, 0, 64, 110
1, 464179, Control_c, 0, 64, 113
1, 464194, Control_c, 0, 64, 118
1, 464209, Control_c, 0, 64, 123
1, 464224, Control_c, 0, 64, 127
1, 464984, Note_off_c, 0, 67, 12
1, 465357, Control_c, 0, 64, 123
1, 465372, Control_c, 0, 64, 118
1, 465387, Control_c, 0, 64, 115
1, 465402, Control_c, 0, 64, 113
1, 465431, Control_c, 0, 64, 111
1, 465461, Control_c, 0, 64, 109
1, 465476, Control_c, 0, 64, 107
1, 465491, Control_c, 0, 64, 105
1, 465520, Control_c, 0, 64, 103
1, 465550, Control_c, 0, 64, 100
1, 465580, Control_c, 0, 64, 97
1, 465616, Control_c, 0, 64, 96
1, 465631, Control_c, 0, 64, 95
1, 465646, Control_c, 0, 64, 94
1, 465661, Control_c, 0, 64, 92
1, 465677, Control_c, 0, 64, 90
1, 465691, Control_c, 0, 64, 89
1, 465706, Control_c, 0, 64, 88
1, 465721, Control_c, 0, 64, 87
1, 465736, Control_c, 0, 64, 86
1, 465751, Control_c, 0, 64, 84
1, 465766, Control_c, 0, 64, 83
1, 465780, Control_c, 0, 64, 82
1, 465795, Control_c, 0, 64, 81
1, 465810, Control_c, 0, 64, 81
1, 465825, Control_c, 0, 64, 80
1, 465840, Control_c, 0, 64, 80
1, 465854, Control_c, 0, 64, 79
1, 465899, Control_c, 0, 64, 79
1, 465914, Control_c, 0, 64, 78
1, 465929, Control_c, 0, 64, 76
1, 465944, Control_c, 0, 64, 75
1, 465973, Control_c, 0, 64, 75
1, 465988, Control_c, 0, 64, 74
1, 466003, Control_c, 0, 64, 73
1, 466018, Control_c, 0, 64, 73
1, 466062, Control_c, 0, 64, 72
1, 466077, Control_c, 0, 64, 71
1, 466091, Control_c, 0, 64, 70
1, 466106, Control_c, 0, 64, 69
1, 466165, Control_c, 0, 64, 68
1, 466254, Control_c, 0, 64, 68
1, 466328, Control_c, 0, 64, 67
1, 466351, Control_c, 0, 64, 66
1, 466365, Control_c, 0, 64, 65
1, 466424, Control_c, 0, 64, 65
1, 466439, Control_c, 0, 64, 64
1, 466500, Control_c, 0, 64, 63
1, 466514, Control_c, 0, 64, 62
1, 466529, Control_c, 0, 64, 61
1, 466588, Control_c, 0, 64, 61
1, 466603, Control_c, 0, 64, 60
1, 466618, Control_c, 0, 64, 60
1, 466707, Control_c, 0, 64, 60
1, 466722, Control_c, 0, 64, 61
1, 466737, Control_c, 0, 64, 61
1, 466766, Control_c, 0, 64, 62
1, 466781, Control_c, 0, 64, 63
1, 466796, Control_c, 0, 64, 64
1, 466811, Control_c, 0, 64, 65
1, 466826, Control_c, 0, 64, 66
1, 466840, Control_c, 0, 64, 67
1, 466855, Control_c, 0, 64, 69
1, 466870, Control_c, 0, 64, 71
1, 466885, Control_c, 0, 64, 74
1, 466900, Control_c, 0, 64, 77
1, 466914, Control_c, 0, 64, 78
1, 466929, Control_c, 0, 64, 78
1, 466944, Control_c, 0, 64, 79
1, 466959, Control_c, 0, 64, 80
1, 466974, Control_c, 0, 64, 82
1, 466988, Control_c, 0, 64, 84
1, 467003, Control_c, 0, 64, 86
1, 467018, Control_c, 0, 64, 89
1, 467033, Control_c, 0, 64, 92
1, 467047, Control_c, 0, 64, 94
1, 467062, Control_c, 0, 64, 96
1, 467100, Control_c, 0, 64, 99
1, 467115, Control_c, 0, 64, 102
1, 467129, Control_c, 0, 64, 106
1, 467144, Control_c, 0, 64, 111
1, 467159, Control_c, 0, 64, 117
1, 467174, Control_c, 0, 64, 127
1, 468426, Note_on_c, 0, 80, 59
1, 468923, Note_on_c, 0, 47, 29
1, 469133, Note_on_c, 0, 56, 40
1, 469164, Note_off_c, 0, 47, 37
1, 469199, Note_off_c, 0, 56, 57
1, 469480, Note_on_c, 0, 64, 46
1, 469548, Note_off_c, 0, 64, 57
1, 469899, Note_on_c, 0, 71, 38
1, 469936, Note_off_c, 0, 71, 61
1, 470415, Note_on_c, 0, 85, 72
1, 470470, Note_off_c, 0, 80, 61
1, 470674, Control_c, 0, 64, 94
1, 470689, Control_c, 0, 64, 77
1, 470704, Control_c, 0, 64, 61
1, 470719, Control_c, 0, 64, 46
1, 470734, Control_c, 0, 64, 39
1, 470749, Control_c, 0, 64, 38
1, 470778, Control_c, 0, 64, 40
1, 470787, Note_on_c, 0, 47, 35
1, 470793, Control_c, 0, 64, 49
1, 470808, Control_c, 0, 64, 59
1, 470823, Control_c, 0, 64, 68
1, 470844, Control_c, 0, 64, 79
1, 470859, Control_c, 0, 64, 94
1, 470874, Control_c, 0, 64, 104
1, 470889, Control_c, 0, 64, 126
1, 470983, Note_on_c, 0, 55, 40
1, 470984, Note_off_c, 0, 47, 41
1, 471035, Note_off_c, 0, 55, 61
1, 471253, Note_on_c, 0, 64, 41
1, 471306, Note_off_c, 0, 64, 62
1, 471785, Note_off_c, 0, 85, 60
1, 471843, Note_on_c, 0, 70, 31
1, 471962, Note_off_c, 0, 70, 37
1, 472184, Note_on_c, 0, 84, 55
1, 472317, Note_off_c, 0, 84, 38
1, 472545, Note_on_c, 0, 84, 46
1, 472831, Control_c, 0, 64, 110
1, 472846, Control_c, 0, 64, 95
1, 472862, Control_c, 0, 64, 82
1, 472876, Control_c, 0, 64, 68
1, 472891, Control_c, 0, 64, 55
1, 472906, Control_c, 0, 64, 46
1, 472921, Control_c, 0, 64, 45
1, 472946, Note_on_c, 0, 47, 31
1, 472950, Control_c, 0, 64, 48
1, 472965, Control_c, 0, 64, 56
1, 472980, Control_c, 0, 64, 64
1, 472995, Control_c, 0, 64, 72
1, 473010, Control_c, 0, 64, 80
1, 473024, Control_c, 0, 64, 88
1, 473039, Control_c, 0, 64, 96
1, 473054, Control_c, 0, 64, 107
1, 473069, Control_c, 0, 64, 127
1, 473135, Note_on_c, 0, 56, 31
1, 473148, Note_off_c, 0, 47, 40
1, 473190, Note_off_c, 0, 56, 53
1, 473440, Note_on_c, 0, 64, 28
1, 473519, Note_off_c, 0, 64, 50
1, 474046, Note_on_c, 0, 71, 7
1, 474100, Note_off_c, 0, 71, 45
1, 474872, Note_off_c, 0, 84, 37
1, 475002, Note_on_c, 0, 83, 37
1, 475474, Note_on_c, 0, 76, 49
1, 475632, Control_c, 0, 67, 112
1, 475647, Control_c, 0, 67, 91
1, 475662, Control_c, 0, 67, 81
1, 475676, Control_c, 0, 67, 72
1, 475691, Control_c, 0, 67, 60
1, 475706, Control_c, 0, 67, 44
1, 475721, Control_c, 0, 67, 0
1, 475838, Note_on_c, 0, 78, 61
1, 475846, Note_off_c, 0, 76, 55
1, 475898, Note_off_c, 0, 83, 53
1, 475906, Note_off_c, 0, 78, 60
1, 476219, Control_c, 0, 67, 52
1, 476233, Control_c, 0, 67, 64
1, 476248, Control_c, 0, 67, 65
1, 476261, Note_on_c, 0, 80, 74
1, 476263, Control_c, 0, 67, 67
1, 476278, Control_c, 0, 67, 73
1, 476293, Control_c, 0, 67, 92
1, 476307, Control_c, 0, 67, 112
1, 476322, Control_c, 0, 67, 124
1, 476337, Control_c, 0, 67, 127
1, 476560, Control_c, 0, 64, 104
1, 476574, Control_c, 0, 64, 79
1, 476589, Control_c, 0, 64, 64
1, 476604, Control_c, 0, 64, 53
1, 476611, Note_on_c, 0, 47, 36
1, 476618, Control_c, 0, 64, 49
1, 476633, Control_c, 0, 64, 50
1, 476648, Control_c, 0, 64, 52
1, 476663, Control_c, 0, 64, 59
1, 476678, Control_c, 0, 64, 67
1, 476693, Control_c, 0, 64, 78
1, 476708, Control_c, 0, 64, 94
1, 476723, Control_c, 0, 64, 113
1, 476738, Control_c, 0, 64, 127
1, 476759, Note_on_c, 0, 56, 47
1, 476791, Note_off_c, 0, 47, 33
1, 476817, Note_off_c, 0, 56, 50
1, 476990, Note_on_c, 0, 64, 47
1, 477037, Note_off_c, 0, 64, 58
1, 477306, Note_on_c, 0, 71, 49
1, 477353, Note_off_c, 0, 71, 58
1, 477731, Note_on_c, 0, 85, 71
1, 477817, Note_off_c, 0, 80, 60
1, 478042, Control_c, 0, 64, 96
1, 478057, Control_c, 0, 64, 78
1, 478071, Control_c, 0, 64, 64
1, 478086, Control_c, 0, 64, 53
1, 478087, Note_on_c, 0, 47, 39
1, 478101, Control_c, 0, 64, 48
1, 478131, Control_c, 0, 64, 49
1, 478145, Control_c, 0, 64, 53
1, 478160, Control_c, 0, 64, 61
1, 478175, Control_c, 0, 64, 68
1, 478190, Control_c, 0, 64, 78
1, 478204, Control_c, 0, 64, 94
1, 478219, Control_c, 0, 64, 106
1, 478234, Control_c, 0, 64, 117
1, 478249, Control_c, 0, 64, 127
1, 478285, Note_on_c, 0, 55, 28
1, 478285, Note_off_c, 0, 47, 31
1, 478332, Note_off_c, 0, 55, 60
1, 478591, Note_on_c, 0, 64, 42
1, 478636, Note_off_c, 0, 64, 63
1, 478857, Note_off_c, 0, 85, 37
1, 479136, Note_on_c, 0, 70, 43
1, 479233, Note_off_c, 0, 70, 52
1, 479543, Note_on_c, 0, 84, 52
1, 479656, Note_off_c, 0, 84, 53
1, 479967, Note_on_c, 0, 84, 46
1, 480274, Control_c, 0, 64, 111
1, 480289, Control_c, 0, 64, 98
1, 480304, Control_c, 0, 64, 86
1, 480319, Control_c, 0, 64, 73
1, 480334, Control_c, 0, 64, 62
1, 480348, Control_c, 0, 64, 54
1, 480363, Control_c, 0, 64, 54
1, 480378, Control_c, 0, 64, 55
1, 480381, Note_on_c, 0, 47, 29
1, 480392, Control_c, 0, 64, 59
1, 480407, Control_c, 0, 64, 63
1, 480422, Control_c, 0, 64, 68
1, 480437, Control_c, 0, 64, 76
1, 480452, Control_c, 0, 64, 86
1, 480467, Control_c, 0, 64, 94
1, 480482, Control_c, 0, 64, 100
1, 480497, Control_c, 0, 64, 112
1, 480511, Control_c, 0, 64, 127
1, 480578, Note_on_c, 0, 56, 32
1, 480592, Note_off_c, 0, 47, 40
1, 480627, Note_off_c, 0, 56, 46
1, 480935, Note_on_c, 0, 64, 29
1, 481009, Note_off_c, 0, 64, 59
1, 481567, Note_on_c, 0, 71, 28
1, 481648, Note_off_c, 0, 71, 48
1, 482637, Note_on_c, 0, 83, 51
1, 482687, Note_off_c, 0, 84, 45
1, 483374, Note_on_c, 0, 76, 60
1, 483799, Note_on_c, 0, 78, 74
1, 483853, Note_off_c, 0, 76, 64
1, 483878, Note_off_c, 0, 78, 59
1, 483879, Note_off_c, 0, 83, 59
1, 484197, Note_on_c, 0, 80, 80
1, 484530, Note_on_c, 0, 47, 43
1, 484530, Control_c, 0, 64, 110
1, 484545, Control_c, 0, 64, 79
1, 484560, Control_c, 0, 64, 59
1, 484574, Control_c, 0, 64, 42
1, 484589, Control_c, 0, 64, 39
1, 484604, Control_c, 0, 64, 43
1, 484619, Control_c, 0, 64, 50
1, 484634, Control_c, 0, 64, 62
1, 484648, Control_c, 0, 64, 72
1, 484663, Control_c, 0, 64, 86
1, 484678, Control_c, 0, 64, 118
1, 484693, Control_c, 0, 64, 127
1, 484706, Note_on_c, 0, 53, 42
1, 484762, Note_off_c, 0, 47, 33
1, 485022, Note_off_c, 0, 53, 14
1, 485025, Note_on_c, 0, 92, 85
1, 485051, Note_on_c, 0, 62, 47
1, 485101, Note_off_c, 0, 62, 61
1, 485413, Note_on_c, 0, 68, 41
1, 485448, Note_off_c, 0, 68, 53
1, 486002, Note_on_c, 0, 46, 39
1, 486027, Control_c, 0, 64, 121
1, 486042, Control_c, 0, 64, 86
1, 486057, Control_c, 0, 64, 68
1, 486072, Control_c, 0, 64, 54
1, 486086, Control_c, 0, 64, 53
1, 486101, Control_c, 0, 64, 56
1, 486116, Control_c, 0, 64, 62
1, 486130, Control_c, 0, 64, 70
1, 486145, Control_c, 0, 64, 85
1, 486160, Control_c, 0, 64, 127
1, 486188, Note_on_c, 0, 52, 38
1, 486290, Note_off_c, 0, 92, 37
1, 486315, Note_off_c, 0, 46, 37
1, 486354, Note_off_c, 0, 80, 59
1, 486500, Note_on_c, 0, 91, 57
1, 486518, Note_on_c, 0, 61, 35
1, 486525, Note_on_c, 0, 79, 35
1, 486584, Note_off_c, 0, 52, 41
1, 486622, Note_off_c, 0, 61, 57
1, 486688, Note_off_c, 0, 79, 59
1, 486730, Note_off_c, 0, 91, 53
1, 486956, Note_on_c, 0, 67, 45
1, 487037, Note_off_c, 0, 67, 51
1, 487293, Note_on_c, 0, 85, 72
1, 487316, Note_on_c, 0, 73, 58
1, 487636, Note_on_c, 0, 51, 60
1, 487642, Control_c, 0, 64, 91
1, 487657, Control_c, 0, 64, 67
1, 487672, Control_c, 0, 64, 46
1, 487686, Control_c, 0, 64, 32
1, 487701, Control_c, 0, 64, 35
1, 487716, Control_c, 0, 64, 45
1, 487731, Control_c, 0, 64, 62
1, 487746, Control_c, 0, 64, 82
1, 487761, Control_c, 0, 64, 127
1, 487853, Note_off_c, 0, 73, 58
1, 487885, Note_off_c, 0, 85, 63
1, 488047, Note_on_c, 0, 84, 75
1, 488065, Note_on_c, 0, 72, 59
1, 488072, Note_off_c, 0, 51, 52
1, 488073, Note_on_c, 0, 57, 52
1, 488082, Note_on_c, 0, 66, 53
1, 488184, Control_c, 0, 67, 125
1, 488199, Control_c, 0, 67, 121
1, 488213, Control_c, 0, 67, 115
1, 488228, Control_c, 0, 67, 109
1, 488243, Control_c, 0, 67, 104
1, 488258, Control_c, 0, 67, 98
1, 488273, Control_c, 0, 67, 92
1, 488287, Control_c, 0, 67, 88
1, 488290, Note_off_c, 0, 72, 58
1, 488301, Note_off_c, 0, 66, 56
1, 488302, Control_c, 0, 67, 85
1, 488317, Control_c, 0, 67, 81
1, 488331, Control_c, 0, 67, 76
1, 488336, Note_off_c, 0, 84, 64
1, 488346, Control_c, 0, 67, 73
1, 488391, Control_c, 0, 67, 72
1, 488435, Control_c, 0, 67, 74
1, 488438, Note_on_c, 0, 60, 62
1, 488450, Control_c, 0, 67, 75
1, 488465, Control_c, 0, 67, 76
1, 488479, Control_c, 0, 67, 77
1, 488494, Control_c, 0, 67, 79
1, 488500, Note_off_c, 0, 57, 51
1, 488509, Control_c, 0, 67, 84
1, 488524, Control_c, 0, 67, 88
1, 488552, Note_off_c, 0, 60, 62
1, 488554, Control_c, 0, 67, 87
1, 488584, Control_c, 0, 67, 90
1, 488599, Control_c, 0, 67, 96
1, 488628, Control_c, 0, 67, 96
1, 488673, Control_c, 0, 67, 102
1, 488687, Control_c, 0, 67, 114
1, 488702, Control_c, 0, 67, 125
1, 488746, Control_c, 0, 67, 127
1, 488936, Note_on_c, 0, 89, 71
1, 488938, Note_on_c, 0, 77, 66
1, 488965, Note_on_c, 0, 50, 51
1, 488992, Control_c, 0, 64, 83
1, 489007, Control_c, 0, 64, 60
1, 489022, Control_c, 0, 64, 0
1, 489066, Control_c, 0, 64, 34
1, 489081, Control_c, 0, 64, 55
1, 489096, Control_c, 0, 64, 72
1, 489110, Control_c, 0, 64, 92
1, 489125, Control_c, 0, 64, 127
1, 489156, Note_off_c, 0, 89, 63
1, 489197, Note_off_c, 0, 77, 64
1, 489465, Note_on_c, 0, 83, 75
1, 489483, Note_on_c, 0, 71, 53
1, 489486, Note_on_c, 0, 65, 54
1, 489565, Note_off_c, 0, 50, 59
1, 489675, Note_off_c, 0, 65, 30
1, 489957, Note_on_c, 0, 49, 47
1, 489978, Control_c, 0, 64, 101
1, 489993, Control_c, 0, 64, 76
1, 490008, Control_c, 0, 64, 60
1, 490023, Control_c, 0, 64, 49
1, 490038, Control_c, 0, 64, 49
1, 490052, Control_c, 0, 64, 54
1, 490067, Control_c, 0, 64, 63
1, 490082, Control_c, 0, 64, 75
1, 490097, Control_c, 0, 64, 94
1, 490111, Control_c, 0, 64, 127
1, 490148, Note_off_c, 0, 71, 61
1, 490154, Note_off_c, 0, 49, 56
1, 490359, Note_on_c, 0, 82, 67
1, 490375, Note_on_c, 0, 65, 45
1, 490380, Note_on_c, 0, 70, 52
1, 490401, Note_off_c, 0, 65, 55
1, 490420, Note_off_c, 0, 83, 50
1, 490713, Note_on_c, 0, 48, 52
1, 490742, Control_c, 0, 64, 107
1, 490757, Control_c, 0, 64, 75
1, 490772, Control_c, 0, 64, 57
1, 490787, Control_c, 0, 64, 43
1, 490801, Control_c, 0, 64, 42
1, 490816, Control_c, 0, 64, 47
1, 490831, Control_c, 0, 64, 58
1, 490846, Control_c, 0, 64, 70
1, 490861, Control_c, 0, 64, 91
1, 490875, Control_c, 0, 64, 127
1, 490920, Note_off_c, 0, 70, 58
1, 490924, Note_off_c, 0, 82, 56
1, 491069, Note_on_c, 0, 81, 62
1, 491087, Note_on_c, 0, 53, 38
1, 491087, Note_on_c, 0, 60, 42
1, 491097, Note_on_c, 0, 69, 42
1, 491128, Note_off_c, 0, 53, 58
1, 491135, Note_off_c, 0, 60, 57
1, 491138, Note_off_c, 0, 48, 60
1, 491475, Note_on_c, 0, 47, 36
1, 491491, Control_c, 0, 64, 99
1, 491505, Control_c, 0, 64, 76
1, 491520, Control_c, 0, 64, 61
1, 491535, Control_c, 0, 64, 50
1, 491550, Control_c, 0, 64, 50
1, 491565, Control_c, 0, 64, 52
1, 491580, Control_c, 0, 64, 60
1, 491590, Note_off_c, 0, 69, 55
1, 491594, Control_c, 0, 64, 68
1, 491609, Control_c, 0, 64, 80
1, 491624, Control_c, 0, 64, 93
1, 491639, Control_c, 0, 64, 101
1, 491654, Control_c, 0, 64, 105
1, 491668, Control_c, 0, 64, 110
1, 491683, Control_c, 0, 64, 120
1, 491698, Control_c, 0, 64, 127
1, 491872, Note_on_c, 0, 61, 38
1, 491873, Note_on_c, 0, 80, 49
1, 491886, Note_on_c, 0, 53, 35
1, 491887, Note_on_c, 0, 68, 35
1, 491901, Note_off_c, 0, 81, 58
1, 491916, Note_off_c, 0, 61, 54
1, 491930, Note_off_c, 0, 47, 37
1, 492000, Note_off_c, 0, 53, 33
1, 492073, Note_off_c, 0, 68, 59
1, 492188, Note_off_c, 0, 80, 54
1, 492346, Note_on_c, 0, 46, 43
1, 492491, Control_c, 0, 64, 105
1, 492506, Control_c, 0, 64, 89
1, 492521, Control_c, 0, 64, 77
1, 492536, Control_c, 0, 64, 66
1, 492558, Control_c, 0, 64, 59
1, 492572, Control_c, 0, 64, 57
1, 492587, Control_c, 0, 64, 56
1, 492632, Control_c, 0, 64, 56
1, 492647, Control_c, 0, 64, 53
1, 492662, Control_c, 0, 64, 50
1, 492677, Control_c, 0, 64, 48
1, 492691, Control_c, 0, 64, 47
1, 492721, Control_c, 0, 64, 49
1, 492736, Control_c, 0, 64, 52
1, 492751, Control_c, 0, 64, 56
1, 492766, Control_c, 0, 64, 61
1, 492780, Control_c, 0, 64, 67
1, 492795, Control_c, 0, 64, 75
1, 492810, Control_c, 0, 64, 80
1, 492826, Control_c, 0, 64, 82
1, 492840, Control_c, 0, 64, 83
1, 492855, Note_on_c, 0, 54, 39
1, 492855, Control_c, 0, 64, 88
1, 492865, Note_on_c, 0, 61, 37
1, 492870, Control_c, 0, 64, 95
1, 492885, Control_c, 0, 64, 103
1, 492900, Control_c, 0, 64, 116
1, 492915, Control_c, 0, 64, 127
1, 492992, Note_off_c, 0, 46, 52
1, 493054, Note_off_c, 0, 61, 35
1, 493084, Note_off_c, 0, 54, 31
1, 493473, Note_on_c, 0, 85, 48
1, 493496, Note_on_c, 0, 73, 36
1, 493499, Note_on_c, 0, 45, 37
1, 493514, Control_c, 0, 64, 112
1, 493529, Control_c, 0, 64, 87
1, 493544, Control_c, 0, 64, 68
1, 493559, Control_c, 0, 64, 50
1, 493574, Control_c, 0, 64, 33
1, 493589, Control_c, 0, 64, 30
1, 493603, Control_c, 0, 64, 33
1, 493618, Control_c, 0, 64, 45
1, 493633, Control_c, 0, 64, 60
1, 493648, Control_c, 0, 64, 71
1, 493663, Control_c, 0, 64, 81
1, 493678, Control_c, 0, 64, 89
1, 493693, Control_c, 0, 64, 94
1, 493708, Control_c, 0, 64, 103
1, 493723, Control_c, 0, 64, 127
1, 493814, Note_off_c, 0, 45, 40
1, 494226, Note_on_c, 0, 61, 30
1, 494232, Note_on_c, 0, 54, 29
1, 494381, Note_off_c, 0, 61, 37
1, 494405, Note_off_c, 0, 54, 23
1, 494587, Note_off_c, 0, 73, 40
1, 494648, Note_off_c, 0, 85, 51
1, 495142, Note_on_c, 0, 43, 44
1, 495189, Control_c, 0, 64, 110
1, 495204, Control_c, 0, 64, 81
1, 495220, Control_c, 0, 64, 62
1, 495235, Control_c, 0, 64, 41
1, 495250, Control_c, 0, 64, 32
1, 495264, Control_c, 0, 64, 37
1, 495279, Control_c, 0, 64, 49
1, 495294, Control_c, 0, 64, 64
1, 495309, Control_c, 0, 64, 76
1, 495324, Control_c, 0, 64, 88
1, 495338, Control_c, 0, 64, 101
1, 495353, Control_c, 0, 64, 127
1, 495398, Note_off_c, 0, 43, 61
1, 495516, Control_c, 0, 67, 125
1, 495531, Control_c, 0, 67, 115
1, 495553, Control_c, 0, 67, 106
1, 495568, Control_c, 0, 67, 98
1, 495583, Control_c, 0, 67, 90
1, 495598, Control_c, 0, 67, 78
1, 495613, Control_c, 0, 67, 61
1, 495628, Control_c, 0, 67, 44
1, 495643, Control_c, 0, 67, 0
1, 495994, Note_on_c, 0, 58, 48
1, 495998, Note_on_c, 0, 52, 45
1, 496000, Note_on_c, 0, 61, 48
1, 496158, Note_off_c, 0, 61, 62
1, 496162, Note_off_c, 0, 52, 38
1, 496172, Note_off_c, 0, 58, 53
1, 496876, Note_on_c, 0, 85, 77
1, 496886, Note_on_c, 0, 73, 55
1, 497258, Control_c, 0, 67, 37
1, 497273, Control_c, 0, 67, 38
1, 497303, Control_c, 0, 67, 42
1, 497318, Control_c, 0, 67, 51
1, 497333, Control_c, 0, 67, 77
1, 497348, Control_c, 0, 67, 108
1, 497362, Control_c, 0, 67, 127
1, 497889, Control_c, 0, 64, 123
1, 497904, Control_c, 0, 64, 114
1, 497918, Control_c, 0, 64, 110
1, 497933, Control_c, 0, 64, 108
1, 497948, Control_c, 0, 64, 106
1, 497963, Control_c, 0, 64, 104
1, 497978, Control_c, 0, 64, 102
1, 497992, Control_c, 0, 64, 100
1, 498022, Control_c, 0, 64, 97
1, 498051, Control_c, 0, 64, 95
1, 498066, Control_c, 0, 64, 94
1, 498081, Control_c, 0, 64, 92
1, 498096, Control_c, 0, 64, 91
1, 498111, Control_c, 0, 64, 89
1, 498126, Control_c, 0, 64, 88
1, 498141, Control_c, 0, 64, 87
1, 498155, Control_c, 0, 64, 86
1, 498170, Control_c, 0, 64, 84
1, 498185, Control_c, 0, 64, 83
1, 498200, Control_c, 0, 64, 82
1, 498215, Control_c, 0, 64, 81
1, 498230, Control_c, 0, 64, 80
1, 498244, Control_c, 0, 64, 78
1, 498259, Control_c, 0, 64, 76
1, 498274, Control_c, 0, 64, 74
1, 498289, Control_c, 0, 64, 72
1, 498304, Control_c, 0, 64, 69
1, 498318, Control_c, 0, 64, 67
1, 498333, Control_c, 0, 64, 65
1, 498348, Control_c, 0, 64, 63
1, 498363, Control_c, 0, 64, 62
1, 498378, Control_c, 0, 64, 62
1, 498453, Control_c, 0, 64, 61
1, 498467, Control_c, 0, 64, 61
1, 498482, Control_c, 0, 64, 60
1, 498527, Control_c, 0, 64, 59
1, 498549, Control_c, 0, 64, 59
1, 498564, Control_c, 0, 64, 58
1, 498579, Control_c, 0, 64, 57
1, 498653, Control_c, 0, 64, 58
1, 498667, Control_c, 0, 64, 58
1, 498682, Control_c, 0, 64, 60
1, 498697, Control_c, 0, 64, 62
1, 498712, Control_c, 0, 64, 63
1, 498727, Control_c, 0, 64, 64
1, 498741, Control_c, 0, 64, 65
1, 498756, Control_c, 0, 64, 67
1, 498771, Control_c, 0, 64, 70
1, 498786, Control_c, 0, 64, 75
1, 498801, Control_c, 0, 64, 82
1, 498815, Control_c, 0, 64, 84
1, 498830, Control_c, 0, 64, 85
1, 498845, Control_c, 0, 64, 86
1, 498860, Control_c, 0, 64, 89
1, 498874, Control_c, 0, 64, 93
1, 498889, Control_c, 0, 64, 97
1, 498904, Control_c, 0, 64, 101
1, 498919, Control_c, 0, 64, 105
1, 498933, Control_c, 0, 64, 109
1, 498948, Control_c, 0, 64, 115
1, 498963, Control_c, 0, 64, 127
1, 499040, Note_on_c, 0, 36, 34
1, 499139, Note_off_c, 0, 36, 53
1, 500120, Note_on_c, 0, 52, 25
1, 500129, Note_on_c, 0, 64, 25
1, 500138, Note_on_c, 0, 58, 20
1, 500364, Note_off_c, 0, 73, 39
1, 500410, Note_off_c, 0, 85, 51
1, 500689, Note_off_c, 0, 52, 34
1, 500691, Note_off_c, 0, 64, 42
1, 500736, Note_off_c, 0, 58, 39
1, 501223, Note_on_c, 0, 84, 33
1, 501231, Note_on_c, 0, 72, 29
1, 501944, Control_c, 0, 64, 119
1, 501959, Control_c, 0, 64, 116
1, 501974, Control_c, 0, 64, 114
1, 501989, Control_c, 0, 64, 111
1, 502004, Control_c, 0, 64, 109
1, 502018, Control_c, 0, 64, 107
1, 502033, Control_c, 0, 64, 105
1, 502063, Control_c, 0, 64, 102
1, 502092, Control_c, 0, 64, 99
1, 502122, Control_c, 0, 64, 96
1, 502137, Control_c, 0, 64, 95
1, 502152, Control_c, 0, 64, 95
1, 502166, Control_c, 0, 64, 94
1, 502181, Control_c, 0, 64, 93
1, 502196, Control_c, 0, 64, 93
1, 502210, Control_c, 0, 64, 92
1, 502225, Control_c, 0, 64, 92
1, 502240, Control_c, 0, 64, 91
1, 502255, Control_c, 0, 64, 90
1, 502270, Control_c, 0, 64, 90
1, 502292, Control_c, 0, 64, 88
1, 502307, Control_c, 0, 64, 87
1, 502322, Control_c, 0, 64, 86
1, 502337, Control_c, 0, 64, 85
1, 502352, Control_c, 0, 64, 83
1, 502366, Control_c, 0, 64, 82
1, 502381, Control_c, 0, 64, 80
1, 502396, Control_c, 0, 64, 78
1, 502412, Control_c, 0, 64, 77
1, 502427, Control_c, 0, 64, 75
1, 502442, Control_c, 0, 64, 74
1, 502457, Control_c, 0, 64, 73
1, 502471, Control_c, 0, 64, 71
1, 502486, Control_c, 0, 64, 70
1, 502501, Control_c, 0, 64, 69
1, 502530, Control_c, 0, 64, 69
1, 502545, Control_c, 0, 64, 68
1, 502560, Control_c, 0, 64, 68
1, 502575, Control_c, 0, 64, 67
1, 502589, Control_c, 0, 64, 66
1, 502604, Control_c, 0, 64, 66
1, 502618, Control_c, 0, 64, 65
1, 502633, Control_c, 0, 64, 64
1, 502648, Control_c, 0, 64, 64
1, 502663, Control_c, 0, 64, 63
1, 502707, Control_c, 0, 64, 63
1, 502722, Control_c, 0, 64, 62
1, 502737, Control_c, 0, 64, 62
1, 502752, Control_c, 0, 64, 61
1, 502914, Control_c, 0, 64, 62
1, 502929, Control_c, 0, 64, 62
1, 502944, Control_c, 0, 64, 63
1, 502959, Control_c, 0, 64, 63
1, 502988, Control_c, 0, 64, 64
1, 503003, Control_c, 0, 64, 65
1, 503018, Control_c, 0, 64, 66
1, 503040, Control_c, 0, 64, 68
1, 503055, Control_c, 0, 64, 70
1, 503070, Control_c, 0, 64, 74
1, 503085, Control_c, 0, 64, 77
1, 503100, Control_c, 0, 64, 80
1, 503114, Control_c, 0, 64, 82
1, 503129, Control_c, 0, 64, 85
1, 503144, Control_c, 0, 64, 88
1, 503159, Control_c, 0, 64, 92
1, 503174, Control_c, 0, 64, 95
1, 503188, Control_c, 0, 64, 99
1, 503203, Control_c, 0, 64, 103
1, 503219, Control_c, 0, 64, 108
1, 503234, Control_c, 0, 64, 113
1, 503249, Control_c, 0, 64, 121
1, 503263, Control_c, 0, 64, 127
1, 503411, Note_off_c, 0, 84, 51
1, 503452, Note_on_c, 0, 41, 32
1, 503455, Note_on_c, 0, 29, 29
1, 503486, Note_off_c, 0, 72, 40
1, 503509, Note_off_c, 0, 29, 48
1, 503538, Note_off_c, 0, 41, 46
1, 503834, Note_on_c, 0, 39, 13
1, 503938, Note_off_c, 0, 39, 36
1, 504043, Note_on_c, 0, 37, 29
1, 504095, Note_off_c, 0, 37, 46
1, 504232, Note_on_c, 0, 39, 26
1, 504283, Note_off_c, 0, 39, 46
1, 504402, Note_on_c, 0, 37, 31
1, 504475, Note_off_c, 0, 37, 42
1, 504538, Note_on_c, 0, 36, 36
1, 504660, Note_off_c, 0, 36, 33
1, 504704, Note_on_c, 0, 41, 38
1, 504737, Note_off_c, 0, 41, 54
1, 504865, Note_on_c, 0, 39, 26
1, 504968, Note_on_c, 0, 37, 45
1, 504985, Note_off_c, 0, 39, 37
1, 505020, Note_off_c, 0, 37, 58
1, 505104, Note_on_c, 0, 39, 50
1, 505153, Note_off_c, 0, 39, 54
1, 505277, Note_on_c, 0, 37, 32
1, 505324, Note_off_c, 0, 37, 48
1, 505346, Note_on_c, 0, 36, 47
1, 505393, Note_off_c, 0, 36, 59
1, 505477, Note_on_c, 0, 41, 51
1, 505527, Note_off_c, 0, 41, 61
1, 505539, Control_c, 0, 64, 116
1, 505553, Control_c, 0, 64, 107
1, 505568, Control_c, 0, 64, 101
1, 505583, Control_c, 0, 64, 97
1, 505599, Control_c, 0, 64, 94
1, 505614, Control_c, 0, 64, 91
1, 505620, Note_on_c, 0, 39, 43
1, 505629, Control_c, 0, 64, 88
1, 505644, Control_c, 0, 64, 85
1, 505658, Control_c, 0, 64, 81
1, 505673, Control_c, 0, 64, 76
1, 505681, Note_off_c, 0, 39, 41
1, 505688, Control_c, 0, 64, 72
1, 505703, Control_c, 0, 64, 69
1, 505718, Note_on_c, 0, 37, 49
1, 505718, Control_c, 0, 64, 68
1, 505763, Control_c, 0, 64, 67
1, 505769, Note_off_c, 0, 37, 56
1, 505778, Control_c, 0, 64, 67
1, 505792, Control_c, 0, 64, 66
1, 505822, Control_c, 0, 64, 66
1, 505829, Note_on_c, 0, 39, 52
1, 505851, Control_c, 0, 64, 65
1, 505866, Control_c, 0, 64, 64
1, 505876, Note_off_c, 0, 39, 58
1, 505881, Control_c, 0, 64, 63
1, 505896, Control_c, 0, 64, 62
1, 505911, Control_c, 0, 64, 62
1, 505925, Control_c, 0, 64, 61
1, 505937, Note_on_c, 0, 37, 46
1, 505940, Control_c, 0, 64, 59
1, 505955, Control_c, 0, 64, 57
1, 505970, Control_c, 0, 64, 55
1, 505985, Control_c, 0, 64, 53
1, 505999, Control_c, 0, 64, 51
1, 506012, Note_off_c, 0, 37, 49
1, 506014, Control_c, 0, 64, 48
1, 506037, Control_c, 0, 64, 43
1, 506043, Note_on_c, 0, 36, 44
1, 506052, Control_c, 0, 64, 38
1, 506066, Control_c, 0, 64, 34
1, 506081, Control_c, 0, 64, 32
1, 506091, Note_off_c, 0, 36, 60
1, 506096, Control_c, 0, 64, 0
1, 506152, Note_on_c, 0, 41, 54
1, 506189, Note_off_c, 0, 41, 64
1, 506271, Note_on_c, 0, 39, 43
1, 506311, Note_off_c, 0, 39, 46
1, 506376, Note_on_c, 0, 37, 49
1, 506416, Note_off_c, 0, 37, 60
1, 506482, Note_on_c, 0, 39, 52
1, 506521, Note_off_c, 0, 39, 62
1, 506585, Note_on_c, 0, 37, 46
1, 506654, Note_on_c, 0, 57, 62
1, 506658, Note_off_c, 0, 37, 58
1, 506666, Note_on_c, 0, 48, 61
1, 506679, Note_on_c, 0, 53, 43
1, 506685, Note_off_c, 0, 57, 64
1, 506689, Note_on_c, 0, 36, 38
1, 506693, Note_off_c, 0, 48, 59
1, 506712, Note_off_c, 0, 53, 50
1, 506730, Note_off_c, 0, 36, 45
1, 506761, Note_on_c, 0, 57, 55
1, 506779, Note_on_c, 0, 48, 54
1, 506792, Note_on_c, 0, 29, 57
1, 506807, Note_on_c, 0, 53, 38
1, 506827, Note_off_c, 0, 29, 49
1, 506913, Note_on_c, 0, 39, 49
1, 506946, Note_off_c, 0, 39, 51
1, 507021, Note_on_c, 0, 37, 32
1, 507066, Note_off_c, 0, 37, 51
1, 507105, Note_on_c, 0, 39, 59
1, 507125, Control_c, 0, 64, 42
1, 507140, Control_c, 0, 64, 56
1, 507143, Note_off_c, 0, 39, 62
1, 507155, Control_c, 0, 64, 60
1, 507170, Control_c, 0, 64, 62
1, 507185, Control_c, 0, 64, 65
1, 507186, Note_off_c, 0, 48, 50
1, 507186, Note_off_c, 0, 57, 61
1, 507200, Control_c, 0, 64, 67
1, 507205, Note_off_c, 0, 53, 56
1, 507215, Control_c, 0, 64, 68
1, 507220, Note_on_c, 0, 37, 42
1, 507285, Note_off_c, 0, 37, 57
1, 507304, Control_c, 0, 64, 69
1, 507313, Note_on_c, 0, 36, 54
1, 507348, Note_off_c, 0, 36, 61
1, 507378, Control_c, 0, 64, 68
1, 507393, Control_c, 0, 64, 63
1, 507408, Control_c, 0, 64, 50
1, 507422, Control_c, 0, 64, 0
1, 507439, Note_on_c, 0, 57, 54
1, 507442, Note_on_c, 0, 41, 58
1, 507448, Note_on_c, 0, 49, 55
1, 507456, Note_on_c, 0, 53, 47
1, 507474, Note_off_c, 0, 41, 64
1, 507566, Note_on_c, 0, 39, 58
1, 507607, Note_off_c, 0, 39, 60
1, 507674, Note_on_c, 0, 37, 59
1, 507713, Note_off_c, 0, 37, 62
1, 507794, Note_on_c, 0, 39, 53
1, 507827, Note_off_c, 0, 39, 62
1, 507829, Control_c, 0, 64, 31
1, 507844, Control_c, 0, 64, 39
1, 507859, Control_c, 0, 64, 43
1, 507874, Control_c, 0, 64, 48
1, 507889, Control_c, 0, 64, 55
1, 507903, Note_on_c, 0, 37, 49
1, 507903, Control_c, 0, 64, 61
1, 507918, Control_c, 0, 64, 63
1, 507933, Control_c, 0, 64, 63
1, 507966, Note_off_c, 0, 37, 57
1, 507977, Control_c, 0, 64, 64
1, 507989, Note_off_c, 0, 49, 57
1, 507992, Control_c, 0, 64, 64
1, 507998, Note_off_c, 0, 53, 35
1, 507998, Note_off_c, 0, 57, 54
1, 508010, Note_on_c, 0, 36, 50
1, 508023, Control_c, 0, 64, 64
1, 508038, Control_c, 0, 64, 61
1, 508049, Note_off_c, 0, 36, 62
1, 508052, Control_c, 0, 64, 53
1, 508067, Control_c, 0, 64, 40
1, 508082, Control_c, 0, 64, 0
1, 508119, Note_on_c, 0, 57, 60
1, 508132, Note_on_c, 0, 41, 50
1, 508134, Note_on_c, 0, 53, 43
1, 508141, Note_on_c, 0, 48, 59
1, 508170, Note_off_c, 0, 41, 62
1, 508255, Note_on_c, 0, 39, 54
1, 508300, Note_off_c, 0, 39, 51
1, 508383, Note_on_c, 0, 37, 35
1, 508422, Note_off_c, 0, 37, 47
1, 508481, Note_on_c, 0, 39, 50
1, 508516, Note_off_c, 0, 39, 60
1, 508565, Note_on_c, 0, 37, 53
1, 508624, Note_off_c, 0, 37, 60
1, 508678, Note_on_c, 0, 36, 63
1, 508714, Note_off_c, 0, 36, 63
1, 508785, Note_on_c, 0, 41, 66
1, 508804, Note_off_c, 0, 48, 63
1, 508813, Note_off_c, 0, 57, 65
1, 508816, Note_off_c, 0, 41, 66
1, 508817, Note_off_c, 0, 53, 62
1, 508886, Note_on_c, 0, 39, 61
1, 508914, Note_off_c, 0, 39, 57
1, 508986, Note_on_c, 0, 37, 54
1, 509023, Note_off_c, 0, 37, 59
1, 509080, Note_on_c, 0, 39, 53
1, 509121, Note_on_c, 0, 53, 69
1, 509122, Note_off_c, 0, 39, 64
1, 509134, Note_on_c, 0, 48, 61
1, 509152, Note_off_c, 0, 53, 63
1, 509159, Note_off_c, 0, 48, 58
1, 509184, Note_on_c, 0, 37, 48
1, 509261, Note_off_c, 0, 37, 55
1, 509307, Note_on_c, 0, 36, 60
1, 509343, Note_on_c, 0, 57, 72
1, 509352, Note_off_c, 0, 36, 61
1, 509354, Note_on_c, 0, 48, 68
1, 509358, Note_on_c, 0, 53, 50
1, 509376, Note_off_c, 0, 57, 67
1, 509379, Note_off_c, 0, 48, 60
1, 509384, Note_off_c, 0, 53, 57
1, 509429, Note_on_c, 0, 57, 69
1, 509438, Note_on_c, 0, 60, 72
1, 509439, Note_on_c, 0, 41, 50
1, 509444, Note_on_c, 0, 48, 67
1, 509447, Note_on_c, 0, 29, 30
1, 509456, Note_on_c, 0, 53, 56
1, 509468, Note_off_c, 0, 41, 60
1, 509492, Note_off_c, 0, 29, 47
1, 509509, Note_off_c, 0, 48, 0
1, 509509, Note_on_c, 0, 48, 24
1, 509553, Note_on_c, 0, 39, 55
1, 509588, Note_off_c, 0, 39, 51
1, 509658, Note_on_c, 0, 37, 49
1, 509690, Note_off_c, 0, 37, 54
1, 509699, Control_c, 0, 64, 30
1, 509714, Control_c, 0, 64, 47
1, 509729, Control_c, 0, 64, 60
1, 509744, Control_c, 0, 64, 66
1, 509759, Control_c, 0, 64, 69
1, 509772, Note_on_c, 0, 39, 50
1, 509781, Control_c, 0, 64, 73
1, 509796, Control_c, 0, 64, 79
1, 509802, Note_off_c, 0, 48, 49
1, 509805, Note_off_c, 0, 39, 52
1, 509807, Note_off_c, 0, 53, 61
1, 509810, Note_off_c, 0, 60, 65
1, 509811, Control_c, 0, 64, 87
1, 509812, Note_off_c, 0, 57, 63
1, 509825, Control_c, 0, 64, 96
1, 509840, Control_c, 0, 64, 115
1, 509855, Control_c, 0, 64, 127
1, 509870, Note_on_c, 0, 37, 53
1, 509921, Note_off_c, 0, 37, 58
1, 509975, Note_on_c, 0, 36, 60
1, 510015, Note_off_c, 0, 36, 62
1, 510092, Control_c, 0, 64, 113
1, 510106, Control_c, 0, 64, 86
1, 510116, Note_on_c, 0, 61, 72
1, 510121, Control_c, 0, 64, 70
1, 510125, Note_on_c, 0, 41, 59
1, 510125, Note_on_c, 0, 57, 59
1, 510129, Note_on_c, 0, 49, 54
1, 510129, Note_on_c, 0, 53, 54
1, 510136, Control_c, 0, 64, 57
1, 510151, Control_c, 0, 64, 40
1, 510157, Note_off_c, 0, 41, 65
1, 510165, Control_c, 0, 64, 32
1, 510180, Control_c, 0, 64, 29
1, 510195, Control_c, 0, 64, 0
1, 510246, Note_on_c, 0, 39, 52
1, 510289, Note_off_c, 0, 39, 48
1, 510355, Note_on_c, 0, 37, 40
1, 510390, Note_off_c, 0, 37, 51
1, 510404, Control_c, 0, 64, 31
1, 510419, Control_c, 0, 64, 40
1, 510434, Control_c, 0, 64, 54
1, 510448, Control_c, 0, 64, 65
1, 510455, Note_on_c, 0, 39, 48
1, 510463, Control_c, 0, 64, 70
1, 510478, Control_c, 0, 64, 72
1, 510486, Note_off_c, 0, 39, 57
1, 510493, Control_c, 0, 64, 74
1, 510508, Control_c, 0, 64, 80
1, 510529, Control_c, 0, 64, 88
1, 510544, Control_c, 0, 64, 96
1, 510559, Control_c, 0, 64, 106
1, 510561, Note_on_c, 0, 37, 42
1, 510574, Control_c, 0, 64, 118
1, 510589, Control_c, 0, 64, 127
1, 510616, Note_off_c, 0, 57, 56
1, 510618, Note_off_c, 0, 37, 54
1, 510619, Note_off_c, 0, 49, 42
1, 510658, Note_off_c, 0, 53, 28
1, 510672, Note_on_c, 0, 36, 39
1, 510677, Note_off_c, 0, 61, 37
1, 510712, Note_off_c, 0, 36, 49
1, 510796, Control_c, 0, 64, 94
1, 510806, Note_on_c, 0, 41, 52
1, 510811, Control_c, 0, 64, 77
1, 510818, Note_on_c, 0, 60, 62
1, 510820, Note_on_c, 0, 53, 47
1, 510823, Note_on_c, 0, 57, 53
1, 510826, Control_c, 0, 64, 66
1, 510827, Note_on_c, 0, 48, 50
1, 510838, Note_off_c, 0, 41, 63
1, 510841, Control_c, 0, 64, 58
1, 510854, Control_c, 0, 64, 51
1, 510869, Control_c, 0, 64, 49
1, 510875, Note_off_c, 0, 48, 0
1, 510884, Control_c, 0, 64, 48
1, 510913, Poly_aftertouch_c, 0, 48, 127
1, 510923, Note_on_c, 0, 39, 58
1, 510929, Control_c, 0, 64, 48
1, 510943, Control_c, 0, 64, 46
1, 510958, Control_c, 0, 64, 45
1, 510961, Note_off_c, 0, 39, 59
1, 511033, Note_on_c, 0, 37, 49
1, 511062, Control_c, 0, 64, 45
1, 511064, Note_off_c, 0, 37, 57
1, 511107, Control_c, 0, 64, 45
1, 511140, Note_on_c, 0, 39, 56
1, 511151, Control_c, 0, 64, 45
1, 511174, Note_off_c, 0, 39, 64
1, 511180, Control_c, 0, 64, 44
1, 511196, Control_c, 0, 64, 44
1, 511241, Control_c, 0, 64, 44
1, 511247, Note_on_c, 0, 37, 50
1, 511296, Note_off_c, 0, 37, 61
1, 511365, Note_on_c, 0, 36, 56
1, 511367, Control_c, 0, 64, 44
1, 511398, Note_off_c, 0, 36, 63
1, 511426, Control_c, 0, 64, 42
1, 511441, Control_c, 0, 64, 37
1, 511456, Control_c, 0, 64, 0
1, 511462, Note_on_c, 0, 41, 66
1, 511491, Note_off_c, 0, 41, 66
1, 511504, Poly_aftertouch_c, 0, 48, 0
1, 511504, Note_off_c, 0, 53, 48
1, 511509, Note_off_c, 0, 57, 62
1, 511547, Note_off_c, 0, 60, 63
1, 511555, Note_on_c, 0, 39, 72
1, 511584, Note_off_c, 0, 39, 64
1, 511661, Note_on_c, 0, 37, 70
1, 511692, Note_off_c, 0, 37, 63
1, 511772, Note_on_c, 0, 39, 51
1, 511775, Note_on_c, 0, 57, 74
1, 511784, Note_on_c, 0, 53, 64
1, 511802, Note_off_c, 0, 39, 55
1, 511805, Note_off_c, 0, 57, 67
1, 511811, Note_off_c, 0, 53, 65
1, 511865, Note_on_c, 0, 37, 61
1, 511919, Note_off_c, 0, 37, 60
1, 511984, Note_on_c, 0, 36, 57
1, 512011, Note_on_c, 0, 60, 68
1, 512023, Note_on_c, 0, 53, 70
1, 512026, Note_on_c, 0, 57, 57
1, 512036, Note_off_c, 0, 36, 62
1, 512047, Note_off_c, 0, 60, 67
1, 512048, Note_off_c, 0, 57, 61
1, 512049, Note_off_c, 0, 53, 67
1, 512105, Note_on_c, 0, 29, 54
1, 512108, Note_on_c, 0, 65, 82
1, 512115, Note_on_c, 0, 57, 64
1, 512121, Note_on_c, 0, 41, 44
1, 512124, Note_on_c, 0, 53, 59
1, 512125, Note_on_c, 0, 60, 64
1, 512142, Note_off_c, 0, 29, 48
1, 512145, Control_c, 0, 64, 39
1, 512153, Note_off_c, 0, 41, 50
1, 512160, Control_c, 0, 64, 43
1, 512172, Note_off_c, 0, 57, 0
1, 512175, Control_c, 0, 64, 41
1, 512190, Control_c, 0, 64, 40
1, 512204, Control_c, 0, 64, 41
1, 512213, Note_on_c, 0, 39, 63
1, 512219, Control_c, 0, 64, 44
1, 512234, Control_c, 0, 64, 49
1, 512241, Note_off_c, 0, 39, 60
1, 512249, Control_c, 0, 64, 50
1, 512264, Control_c, 0, 64, 51
1, 512279, Control_c, 0, 64, 54
1, 512293, Control_c, 0, 64, 59
1, 512308, Control_c, 0, 64, 62
1, 512318, Note_on_c, 0, 37, 52
1, 512323, Control_c, 0, 64, 65
1, 512338, Control_c, 0, 64, 66
1, 512350, Note_off_c, 0, 37, 54
1, 512382, Control_c, 0, 64, 67
1, 512397, Control_c, 0, 64, 71
1, 512412, Control_c, 0, 64, 77
1, 512424, Note_on_c, 0, 39, 52
1, 512426, Control_c, 0, 64, 86
1, 512441, Control_c, 0, 64, 96
1, 512456, Control_c, 0, 64, 106
1, 512457, Note_off_c, 0, 39, 53
1, 512471, Control_c, 0, 64, 127
1, 512478, Note_off_c, 0, 53, 7
1, 512491, Note_off_c, 0, 60, 61
1, 512500, Poly_aftertouch_c, 0, 57, 0
1, 512520, Note_on_c, 0, 37, 55
1, 512561, Note_off_c, 0, 37, 54
1, 512628, Note_on_c, 0, 36, 64
1, 512653, Note_off_c, 0, 65, 27
1, 512659, Note_off_c, 0, 36, 63
1, 512723, Control_c, 0, 64, 91
1, 512734, Note_on_c, 0, 65, 65
1, 512737, Control_c, 0, 64, 70
1, 512744, Note_on_c, 0, 61, 57
1, 512746, Note_on_c, 0, 53, 52
1, 512750, Note_on_c, 0, 41, 63
1, 512750, Note_on_c, 0, 57, 53
1, 512752, Control_c, 0, 64, 54
1, 512774, Control_c, 0, 64, 44
1, 512787, Note_off_c, 0, 41, 66
1, 512789, Control_c, 0, 64, 45
1, 512805, Control_c, 0, 64, 53
1, 512815, Note_off_c, 0, 53, 0
1, 512820, Control_c, 0, 64, 62
1, 512835, Control_c, 0, 64, 70
1, 512849, Control_c, 0, 64, 75
1, 512851, Poly_aftertouch_c, 0, 53, 127
1, 512862, Note_on_c, 0, 39, 65
1, 512864, Control_c, 0, 64, 77
1, 512895, Note_off_c, 0, 39, 57
1, 512963, Note_on_c, 0, 37, 62
1, 512991, Note_off_c, 0, 37, 57
1, 512997, Control_c, 0, 64, 77
1, 513012, Control_c, 0, 64, 82
1, 513027, Control_c, 0, 64, 91
1, 513042, Control_c, 0, 64, 103
1, 513057, Note_on_c, 0, 39, 60
1, 513057, Control_c, 0, 64, 123
1, 513072, Control_c, 0, 64, 127
1, 513073, Note_off_c, 0, 57, 62
1, 513087, Poly_aftertouch_c, 0, 53, 0
1, 513089, Note_off_c, 0, 39, 63
1, 513096, Note_off_c, 0, 61, 62
1, 513102, Note_off_c, 0, 65, 62
1, 513151, Note_on_c, 0, 37, 52
1, 513205, Note_off_c, 0, 37, 49
1, 513255, Note_on_c, 0, 36, 67
1, 513293, Note_off_c, 0, 36, 62
1, 513337, Control_c, 0, 64, 96
1, 513352, Control_c, 0, 64, 73
1, 513367, Control_c, 0, 64, 58
1, 513373, Note_on_c, 0, 41, 66
1, 513374, Note_on_c, 0, 69, 66
1, 513381, Note_on_c, 0, 29, 61
1, 513382, Control_c, 0, 64, 51
1, 513384, Note_on_c, 0, 57, 53
1, 513385, Note_on_c, 0, 65, 56
1, 513397, Control_c, 0, 64, 54
1, 513402, Note_off_c, 0, 41, 66
1, 513412, Control_c, 0, 64, 61
1, 513412, Note_off_c, 0, 29, 54
1, 513427, Control_c, 0, 64, 69
1, 513441, Note_off_c, 0, 57, 0
1, 513441, Poly_aftertouch_c, 0, 60, 127
1, 513441, Control_c, 0, 64, 74
1, 513460, Note_on_c, 0, 57, 23
1, 513492, Note_on_c, 0, 39, 54
1, 513503, Note_on_c, 0, 27, 52
1, 513531, Note_off_c, 0, 39, 54
1, 513547, Note_off_c, 0, 27, 49
1, 513552, Control_c, 0, 64, 72
1, 513567, Control_c, 0, 64, 69
1, 513582, Control_c, 0, 64, 67
1, 513594, Note_on_c, 0, 37, 68
1, 513597, Control_c, 0, 64, 68
1, 513599, Note_on_c, 0, 25, 52
1, 513612, Control_c, 0, 64, 72
1, 513621, Note_off_c, 0, 37, 58
1, 513627, Control_c, 0, 64, 80
1, 513637, Note_off_c, 0, 25, 49
1, 513642, Control_c, 0, 64, 90
1, 513657, Control_c, 0, 64, 99
1, 513671, Control_c, 0, 64, 104
1, 513686, Control_c, 0, 64, 108
1, 513692, Note_on_c, 0, 27, 79
1, 513697, Note_on_c, 0, 39, 78
1, 513701, Control_c, 0, 64, 115
1, 513716, Control_c, 0, 64, 127
1, 513722, Note_off_c, 0, 27, 64
1, 513726, Note_off_c, 0, 39, 64
1, 513807, Note_on_c, 0, 25, 56
1, 513808, Note_on_c, 0, 27, 53
1, 513813, Poly_aftertouch_c, 0, 60, 0
1, 513820, Note_on_c, 0, 37, 49
1, 513839, Note_off_c, 0, 27, 58
1, 513843, Note_off_c, 0, 25, 56
1, 513849, Note_off_c, 0, 37, 57
1, 513902, Note_on_c, 0, 24, 74
1, 513905, Note_off_c, 0, 65, 33
1, 513921, Note_off_c, 0, 57, 35
1, 513933, Note_off_c, 0, 24, 56
1, 513933, Note_off_c, 0, 69, 30
1, 513953, Control_c, 0, 64, 81
1, 513968, Control_c, 0, 64, 61
1, 513982, Control_c, 0, 64, 41
1, 513997, Control_c, 0, 64, 36
1, 514002, Note_on_c, 0, 69, 66
1, 514011, Note_on_c, 0, 29, 67
1, 514011, Note_on_c, 0, 41, 70
1, 514012, Note_on_c, 0, 57, 54
1, 514012, Control_c, 0, 64, 42
1, 514014, Note_on_c, 0, 65, 56
1, 514024, Note_on_c, 0, 61, 32
1, 514027, Control_c, 0, 64, 59
1, 514039, Note_off_c, 0, 29, 58
1, 514039, Note_off_c, 0, 41, 66
1, 514042, Control_c, 0, 64, 72
1, 514057, Control_c, 0, 64, 83
1, 514071, Note_off_c, 0, 57, 0
1, 514071, Note_on_c, 0, 57, 20
1, 514071, Control_c, 0, 64, 89
1, 514074, Note_off_c, 0, 61, 0
1, 514074, Note_on_c, 0, 61, 20
1, 514086, Control_c, 0, 64, 89
1, 514101, Control_c, 0, 64, 91
1, 514115, Control_c, 0, 64, 96
1, 514123, Note_on_c, 0, 27, 62
1, 514127, Note_on_c, 0, 39, 44
1, 514130, Control_c, 0, 64, 106
1, 514141, Note_off_c, 0, 57, 0
1, 514141, Note_on_c, 0, 57, 12
1, 514145, Control_c, 0, 64, 126
1, 514156, Note_off_c, 0, 27, 52
1, 514163, Note_off_c, 0, 39, 54
1, 514175, Control_c, 0, 67, 125
1, 514205, Control_c, 0, 67, 118
1, 514219, Control_c, 0, 67, 102
1, 514227, Note_on_c, 0, 37, 60
1, 514234, Control_c, 0, 67, 88
1, 514237, Note_on_c, 0, 27, 50
1, 514247, Note_on_c, 0, 25, 30
1, 514249, Control_c, 0, 67, 82
1, 514265, Note_off_c, 0, 37, 54
1, 514271, Control_c, 0, 67, 83
1, 514276, Note_off_c, 0, 27, 56
1, 514286, Control_c, 0, 67, 84
1, 514301, Note_off_c, 0, 25, 42
1, 514301, Note_off_c, 0, 57, 53
1, 514301, Control_c, 0, 67, 85
1, 514312, Note_off_c, 0, 65, 62
1, 514315, Control_c, 0, 67, 85
1, 514319, Note_off_c, 0, 61, 50
1, 514322, Note_off_c, 0, 69, 63
1, 514329, Note_on_c, 0, 27, 64
1, 514331, Note_on_c, 0, 39, 73
1, 514357, Note_off_c, 0, 39, 59
1, 514363, Note_off_c, 0, 27, 55
1, 514375, Control_c, 0, 67, 86
1, 514421, Note_on_c, 0, 25, 76
1, 514435, Control_c, 0, 67, 85
1, 514452, Note_off_c, 0, 25, 63
1, 514465, Control_c, 0, 67, 85
1, 514480, Control_c, 0, 67, 82
1, 514494, Control_c, 0, 67, 80
1, 514509, Control_c, 0, 67, 79
1, 514516, Note_on_c, 0, 24, 81
1, 514524, Control_c, 0, 67, 78
1, 514539, Control_c, 0, 67, 77
1, 514546, Note_off_c, 0, 24, 63
1, 514554, Control_c, 0, 67, 65
1, 514568, Control_c, 0, 67, 47
1, 514583, Control_c, 0, 64, 95
1, 514583, Control_c, 0, 67, 0
1, 514598, Control_c, 0, 64, 72
1, 514613, Control_c, 0, 64, 59
1, 514624, Note_on_c, 0, 72, 78
1, 514625, Note_on_c, 0, 29, 76
1, 514627, Note_on_c, 0, 41, 77
1, 514633, Note_on_c, 0, 60, 62
1, 514634, Note_on_c, 0, 69, 63
1, 514643, Control_c, 0, 64, 68
1, 514648, Note_on_c, 0, 65, 40
1, 514652, Note_off_c, 0, 29, 66
1, 514654, Note_off_c, 0, 41, 67
1, 514654, Note_off_c, 0, 60, 65
1, 514658, Control_c, 0, 64, 85
1, 514673, Control_c, 0, 64, 127
1, 514680, Note_off_c, 0, 65, 57
1, 514685, Note_off_c, 0, 69, 49
1, 514689, Note_off_c, 0, 72, 60
1, 514739, Note_on_c, 0, 27, 74
1, 514740, Note_on_c, 0, 39, 60
1, 514770, Note_off_c, 0, 39, 56
1, 514774, Note_off_c, 0, 27, 59
1, 514844, Note_on_c, 0, 25, 62
1, 514850, Control_c, 0, 64, 116
1, 514858, Note_on_c, 0, 37, 47
1, 514865, Control_c, 0, 64, 100
1, 514866, Note_off_c, 0, 25, 62
1, 514894, Control_c, 0, 64, 114
1, 514898, Note_off_c, 0, 37, 49
1, 514909, Control_c, 0, 64, 127
1, 514932, Note_on_c, 0, 73, 79
1, 514935, Note_on_c, 0, 27, 80
1, 514935, Note_on_c, 0, 61, 64
1, 514941, Note_on_c, 0, 39, 81
1, 514943, Note_on_c, 0, 65, 48
1, 514948, Note_on_c, 0, 69, 50
1, 514955, Note_off_c, 0, 61, 64
1, 514965, Note_off_c, 0, 27, 64
1, 514965, Note_off_c, 0, 39, 64
1, 514967, Note_off_c, 0, 65, 59
1, 514974, Note_off_c, 0, 69, 57
1, 514986, Note_off_c, 0, 73, 63
1, 515045, Note_on_c, 0, 25, 77
1, 515061, Note_on_c, 0, 37, 64
1, 515080, Note_off_c, 0, 25, 63
1, 515093, Note_off_c, 0, 37, 65
1, 515144, Note_on_c, 0, 24, 86
1, 515176, Note_off_c, 0, 24, 63
1, 515199, Control_c, 0, 64, 112
1, 515214, Control_c, 0, 64, 110
1, 515229, Control_c, 0, 64, 127
1, 515242, Note_on_c, 0, 65, 79
1, 515245, Note_on_c, 0, 77, 83
1, 515249, Note_on_c, 0, 41, 81
1, 515252, Note_on_c, 0, 29, 76
1, 515254, Note_on_c, 0, 69, 61
1, 515266, Note_off_c, 0, 65, 70
1, 515275, Note_off_c, 0, 41, 67
1, 515276, Note_off_c, 0, 69, 63
1, 515284, Note_off_c, 0, 77, 64
1, 515290, Note_off_c, 0, 29, 60
1, 515320, Poly_aftertouch_c, 0, 72, 0
1, 515348, Poly_aftertouch_c, 0, 72, 0
1, 515351, Note_on_c, 0, 39, 80
1, 515364, Note_on_c, 0, 27, 62
1, 515381, Note_off_c, 0, 39, 63
1, 515388, Note_off_c, 0, 27, 63
1, 515453, Note_on_c, 0, 37, 78
1, 515455, Note_on_c, 0, 27, 70
1, 515460, Note_on_c, 0, 25, 68
1, 515481, Note_off_c, 0, 27, 60
1, 515486, Note_off_c, 0, 37, 65
1, 515494, Note_off_c, 0, 25, 53
1, 515547, Note_on_c, 0, 81, 77
1, 515549, Note_on_c, 0, 69, 66
1, 515550, Note_on_c, 0, 73, 65
1, 515550, Note_on_c, 0, 77, 69
1, 515551, Note_on_c, 0, 27, 87
1, 515558, Note_on_c, 0, 39, 86
1, 515567, Note_off_c, 0, 69, 66
1, 515568, Note_off_c, 0, 73, 66
1, 515573, Note_off_c, 0, 77, 70
1, 515575, Note_off_c, 0, 27, 65
1, 515575, Note_off_c, 0, 39, 70
1, 515578, Note_off_c, 0, 81, 60
1, 515645, Note_on_c, 0, 25, 80
1, 515652, Note_on_c, 0, 37, 80
1, 515678, Note_off_c, 0, 25, 61
1, 515685, Note_off_c, 0, 37, 61
1, 515689, Note_on_c, 0, 80, 41
1, 515692, Poly_aftertouch_c, 0, 39, 127
1, 515728, Poly_aftertouch_c, 0, 39, 0
1, 515735, Note_on_c, 0, 24, 95
1, 515743, Poly_aftertouch_c, 0, 27, 0
1, 515776, Note_off_c, 0, 24, 62
1, 515793, Note_off_c, 0, 80, 59
1, 515838, Note_on_c, 0, 81, 84
1, 515840, Note_on_c, 0, 41, 98
1, 515841, Note_on_c, 0, 84, 86
1, 515842, Note_on_c, 0, 29, 91
1, 515843, Note_on_c, 0, 77, 79
1, 515844, Note_on_c, 0, 72, 78
1, 515854, Note_on_c, 0, 28, 73
1, 515864, Note_off_c, 0, 77, 72
1, 515866, Note_off_c, 0, 72, 70
1, 515872, Note_off_c, 0, 29, 68
1, 515875, Note_off_c, 0, 41, 66
1, 515880, Note_off_c, 0, 81, 60
1, 515880, Note_off_c, 0, 84, 57
1, 515882, Note_off_c, 0, 28, 62
1, 515935, Note_on_c, 0, 39, 100
1, 515941, Note_on_c, 0, 27, 99
1, 515967, Note_off_c, 0, 27, 69
1, 515967, Note_off_c, 0, 39, 63
1, 516038, Note_on_c, 0, 37, 102
1, 516039, Note_on_c, 0, 25, 100
1, 516068, Note_off_c, 0, 37, 63
1, 516071, Note_off_c, 0, 25, 64
1, 516127, Note_on_c, 0, 81, 76
1, 516128, Note_on_c, 0, 77, 77
1, 516129, Note_on_c, 0, 73, 84
1, 516130, Note_on_c, 0, 85, 89
1, 516131, Note_on_c, 0, 39, 103
1, 516133, Note_on_c, 0, 27, 96
1, 516148, Note_on_c, 0, 37, 80
1, 516148, Note_off_c, 0, 37, 127
1, 516148, Note_off_c, 0, 77, 70
1, 516149, Note_off_c, 0, 73, 68
1, 516169, Note_off_c, 0, 39, 61
1, 516171, Note_off_c, 0, 27, 66
1, 516173, Note_off_c, 0, 81, 63
1, 516198, Note_off_c, 0, 85, 62
1, 516207, Poly_aftertouch_c, 0, 26, 127
1, 516214, Poly_aftertouch_c, 0, 30, 127
1, 516229, Note_on_c, 0, 37, 99
1, 516234, Note_on_c, 0, 25, 98
1, 516241, Poly_aftertouch_c, 0, 26, 0
1, 516263, Note_off_c, 0, 25, 65
1, 516266, Poly_aftertouch_c, 0, 30, 0
1, 516279, Note_off_c, 0, 37, 61
1, 516332, Note_on_c, 0, 24, 107
1, 516344, Note_on_c, 0, 36, 84
1, 516366, Note_off_c, 0, 36, 65
1, 516370, Note_off_c, 0, 24, 65
1, 516450, Note_on_c, 0, 77, 92
1, 516450, Note_on_c, 0, 81, 83
1, 516450, Note_on_c, 0, 89, 98
1, 516453, Note_on_c, 0, 41, 109
1, 516453, Note_on_c, 0, 84, 79
1, 516455, Note_on_c, 0, 29, 102
1, 516471, Note_on_c, 0, 80, 16
1, 516477, Note_on_c, 0, 85, 48
1, 516477, Note_off_c, 0, 85, 127
1, 516478, Note_off_c, 0, 81, 64
1, 516478, Note_off_c, 0, 84, 67
1, 516479, Note_off_c, 0, 77, 63
1, 516480, Note_off_c, 0, 29, 68
1, 516485, Note_off_c, 0, 41, 69
1, 516517, Note_off_c, 0, 89, 61
1, 516520, Note_off_c, 0, 80, 33
1, 516577, Note_on_c, 0, 39, 106
1, 516580, Note_on_c, 0, 27, 101
1, 516606, Note_off_c, 0, 39, 64
1, 516611, Note_off_c, 0, 27, 67
1, 516694, Note_on_c, 0, 37, 107
1, 516697, Note_on_c, 0, 25, 102
1, 516732, Note_off_c, 0, 37, 69
1, 516735, Note_off_c, 0, 25, 62
1, 516746, Note_on_c, 0, 27, 21
1, 516763, Note_off_c, 0, 27, 68
1, 516837, Note_on_c, 0, 39, 114
1, 516838, Note_on_c, 0, 27, 116
1, 516841, Note_on_c, 0, 85, 103
1, 516843, Note_on_c, 0, 81, 98
1, 516843, Note_on_c, 0, 93, 106
1, 516846, Note_on_c, 0, 89, 83
1, 516869, Note_on_c, 0, 90, 49
1, 516869, Note_off_c, 0, 90, 127
1, 516870, Note_off_c, 0, 81, 72
1, 516880, Note_off_c, 0, 39, 65
1, 516889, Note_off_c, 0, 93, 66
1, 516896, Note_off_c, 0, 85, 61
1, 516897, Note_off_c, 0, 27, 60
1, 516905, Note_off_c, 0, 89, 65
1, 516956, Poly_aftertouch_c, 0, 37, 0
1, 516965, Poly_aftertouch_c, 0, 30, 0
1, 517013, Note_on_c, 0, 25, 105
1, 517014, Note_on_c, 0, 37, 106
1, 517095, Poly_aftertouch_c, 0, 27, 127
1, 517119, Note_off_c, 0, 37, 58
1, 517136, Poly_aftertouch_c, 0, 27, 0
1, 517174, Note_off_c, 0, 25, 57
1, 517210, Note_on_c, 0, 24, 103
1, 517214, Note_on_c, 0, 36, 102
1, 517250, Note_off_c, 0, 36, 67
1, 517253, Note_off_c, 0, 24, 64
1, 517338, Poly_aftertouch_c, 0, 25, 0
1, 517489, Control_c, 0, 64, 102
1, 517504, Control_c, 0, 64, 74
1, 517519, Control_c, 0, 64, 59
1, 517533, Control_c, 0, 64, 45
1, 517548, Control_c, 0, 64, 33
1, 517563, Control_c, 0, 64, 0
1, 517745, Note_on_c, 0, 37, 100
1, 517746, Note_on_c, 0, 25, 90
1, 517746, Note_on_c, 0, 33, 96
1, 517746, Note_on_c, 0, 61, 100
1, 517748, Note_on_c, 0, 49, 100
1, 517751, Note_on_c, 0, 53, 96
1, 517754, Note_on_c, 0, 29, 82
1, 517755, Note_on_c, 0, 57, 75
1, 517803, Note_on_c, 0, 59, 33
1, 517853, Note_off_c, 0, 59, 43
1, 518869, Control_c, 0, 64, 35
1, 518884, Control_c, 0, 64, 46
1, 518899, Control_c, 0, 64, 50
1, 518913, Control_c, 0, 64, 52
1, 518928, Control_c, 0, 64, 55
1, 518943, Control_c, 0, 64, 59
1, 518958, Control_c, 0, 64, 62
1, 518973, Control_c, 0, 64, 65
1, 518987, Control_c, 0, 64, 65
1, 519002, Control_c, 0, 64, 66
1, 519032, Control_c, 0, 64, 67
1, 519047, Control_c, 0, 64, 68
1, 519061, Control_c, 0, 64, 71
1, 519076, Control_c, 0, 64, 73
1, 519091, Control_c, 0, 64, 74
1, 519105, Control_c, 0, 64, 76
1, 519120, Control_c, 0, 64, 78
1, 519135, Control_c, 0, 64, 80
1, 519150, Control_c, 0, 64, 81
1, 519165, Control_c, 0, 64, 83
1, 519181, Control_c, 0, 64, 85
1, 519196, Control_c, 0, 64, 88
1, 519210, Control_c, 0, 64, 91
1, 519225, Control_c, 0, 64, 94
1, 519240, Control_c, 0, 64, 97
1, 519255, Control_c, 0, 64, 99
1, 519270, Control_c, 0, 64, 103
1, 519284, Control_c, 0, 64, 110
1, 519299, Control_c, 0, 64, 127
1, 520322, Control_c, 0, 67, 37
1, 520337, Control_c, 0, 67, 50
1, 520352, Control_c, 0, 67, 67
1, 520366, Control_c, 0, 67, 83
1, 520381, Control_c, 0, 67, 99
1, 520396, Control_c, 0, 67, 114
1, 520411, Control_c, 0, 67, 127
1, 520846, Note_off_c, 0, 61, 60
1, 520875, Note_off_c, 0, 25, 33
1, 520903, Note_off_c, 0, 37, 33
1, 521050, Note_off_c, 0, 49, 54
1, 521104, Note_off_c, 0, 57, 34
1, 521716, Note_off_c, 0, 53, 23
1, 522096, Note_off_c, 0, 29, 37
1, 522105, Note_off_c, 0, 33, 36
1, 522379, Note_on_c, 0, 24, 68
1, 522386, Note_on_c, 0, 48, 66
1, 522387, Note_on_c, 0, 60, 53
1, 522399, Control_c, 0, 64, 99
1, 522400, Note_on_c, 0, 36, 39
1, 522411, Note_off_c, 0, 24, 63
1, 522414, Control_c, 0, 64, 69
1, 522415, Note_off_c, 0, 60, 64
1, 522415, Note_off_c, 0, 48, 64
1, 522428, Control_c, 0, 64, 40
1, 522435, Note_off_c, 0, 36, 45
1, 522443, Control_c, 0, 64, 0
1, 522514, Note_on_c, 0, 36, 74
1, 522517, Note_on_c, 0, 29, 75
1, 522519, Note_on_c, 0, 60, 56
1, 522520, Note_on_c, 0, 48, 72
1, 522520, Note_on_c, 0, 53, 66
1, 522539, Note_off_c, 0, 36, 65
1, 522542, Note_off_c, 0, 29, 66
1, 522548, Note_off_c, 0, 53, 67
1, 522549, Note_off_c, 0, 48, 65
1, 522552, Note_off_c, 0, 60, 65
1, 524846, Note_on_c, 0, 29, 47
1, 524852, Note_on_c, 0, 48, 60
1, 524856, Note_on_c, 0, 60, 37
1, 524859, Note_on_c, 0, 53, 38
1, 524861, Note_on_c, 0, 36, 38
1, 524879, Note_off_c, 0, 48, 59
1, 524883, Note_off_c, 0, 29, 47
1, 524886, Note_off_c, 0, 60, 50
1, 524894, Note_off_c, 0, 53, 48
1, 524900, Note_off_c, 0, 36, 47
1, 527381, Note_on_c, 0, 41, 39
1, 527386, Note_on_c, 0, 29, 45
1, 527410, Note_off_c, 0, 41, 56
1, 527418, Note_off_c, 0, 29, 50
1, 534890, Control_c, 0, 67, 113
1, 534905, Control_c, 0, 67, 94
1, 534920, Control_c, 0, 67, 73
1, 534934, Control_c, 0, 67, 50
1, 534949, Control_c, 0, 67, 0
1, 534949, End_track
0, 0, End_of_file
