0, 0, Header, 0, 1, 384
1, 0, Start_track
1, 0, Title_t, "Corelli Var. Op42--K. Krasnitsky"
1, 0, Text_t, "2006 International Piano-e-Competition Recital Round"
1, 0, Text_t, "St. Paul, Minnesota, July 2006"
1, 0, Text_t, "http://www.piano-e-competition.com/"
1, 0, Instrument_name_t, "Yamaha Disklavier Pro Mark IV concert grand piano"
1, 0, Sequencer_specific, 39, 67, 113, 0, 1, 0, 1, 0, 67, 111, 114, 101, 108, 108, 105, 32, 86, 97, 114, 46, 79, 112, 52, 50, 75, 46, 32, 75, 114, 97, 115, 110, 105, 116, 115, 107, 121, 32, 32, 32
1, 0, Sequencer_specific, 6, 67, 113, 0, 0, 0, 69
1, 0, System_exclusive, 21, 67, 113, 126, 21, 0, 2, 2, 0, 14, 5, 1, 4, 4, 10, 12, 0, 11, 1, 5, 2, 247
1, 0, Sequencer_specific, 5, 67, 123, 12, 2, 1
1, 0, Tempo, 512820
1, 0, Time_signature, 4, 2, 24, 8
1, 0, System_exclusive, 5, 126, 127, 9, 1, 247
1, 1, System_exclusive, 8, 67, 16, 76, 0, 0, 126, 0, 247
1, 2, System_exclusive, 8, 67, 16, 76, 8, 9, 7, 1, 247
1, 3, Control_c, 0, 0, 0
1, 4, Control_c, 0, 32, 0
1, 5, Program_c, 0, 0
1, 6, Control_c, 0, 7, 100
1, 95, Control_c, 0, 64, 15
1, 95, Control_c, 0, 67, 15
1, 184, Control_c, 0, 64, 31
1, 184, Control_c, 0, 67, 31
1, 273, Control_c, 0, 64, 46
1, 273, Control_c, 0, 67, 46
1, 362, Control_c, 0, 64, 63
1, 362, Control_c, 0, 67, 63
1, 452, Control_c, 0, 64, 77
1, 452, Control_c, 0, 67, 77
1, 541, Control_c, 0, 64, 94
1, 541, Control_c, 0, 67, 94
1, 630, Control_c, 0, 64, 108
1, 630, Control_c, 0, 67, 108
1, 719, Control_c, 0, 64, 127
1, 719, Control_c, 0, 67, 127
1, 906, Note_on_c, 0, 74, 60
1, 922, Note_on_c, 0, 62, 37
1, 947, Note_on_c, 0, 65, 29
1, 1051, Note_off_c, 0, 74, 60
1, 1829, Note_on_c, 0, 74, 74
1, 2058, Control_c, 0, 64, 105
1, 2073, Control_c, 0, 64, 94
1, 2087, Control_c, 0, 64, 85
1, 2102, Control_c, 0, 64, 76
1, 2117, Control_c, 0, 64, 67
1, 2132, Control_c, 0, 64, 58
1, 2147, Control_c, 0, 64, 53
1, 2162, Control_c, 0, 64, 49
1, 2177, Control_c, 0, 64, 45
1, 2192, Control_c, 0, 64, 42
1, 2207, Control_c, 0, 64, 42
1, 2244, Control_c, 0, 64, 45
1, 2259, Control_c, 0, 64, 52
1, 2273, Control_c, 0, 64, 60
1, 2288, Control_c, 0, 64, 64
1, 2303, Control_c, 0, 64, 67
1, 2318, Control_c, 0, 64, 72
1, 2333, Control_c, 0, 64, 81
1, 2347, Control_c, 0, 64, 89
1, 2362, Control_c, 0, 64, 95
1, 2377, Control_c, 0, 64, 101
1, 2391, Control_c, 0, 64, 108
1, 2406, Control_c, 0, 64, 121
1, 2421, Control_c, 0, 64, 127
1, 2778, Note_off_c, 0, 65, 40
1, 2842, Note_off_c, 0, 62, 39
1, 2970, Note_on_c, 0, 76, 55
1, 3029, Note_off_c, 0, 74, 52
1, 3365, Note_on_c, 0, 73, 45
1, 3397, Note_on_c, 0, 57, 35
1, 3398, Note_on_c, 0, 69, 27
1, 3401, Note_on_c, 0, 64, 35
1, 3485, Note_off_c, 0, 76, 33
1, 3511, Control_c, 0, 64, 108
1, 3526, Control_c, 0, 64, 100
1, 3540, Control_c, 0, 64, 94
1, 3555, Control_c, 0, 64, 87
1, 3570, Control_c, 0, 64, 81
1, 3585, Control_c, 0, 64, 74
1, 3600, Control_c, 0, 64, 67
1, 3614, Control_c, 0, 64, 61
1, 3629, Control_c, 0, 64, 56
1, 3644, Control_c, 0, 64, 52
1, 3659, Control_c, 0, 64, 48
1, 3674, Control_c, 0, 64, 44
1, 3688, Control_c, 0, 64, 41
1, 3703, Control_c, 0, 64, 39
1, 3718, Control_c, 0, 64, 38
1, 3740, Control_c, 0, 64, 39
1, 3755, Control_c, 0, 64, 42
1, 3771, Control_c, 0, 64, 46
1, 3786, Control_c, 0, 64, 48
1, 3801, Control_c, 0, 64, 51
1, 3816, Control_c, 0, 64, 56
1, 3831, Control_c, 0, 64, 62
1, 3845, Control_c, 0, 64, 66
1, 3860, Control_c, 0, 64, 69
1, 3875, Control_c, 0, 64, 70
1, 3890, Control_c, 0, 64, 71
1, 3905, Control_c, 0, 64, 74
1, 3919, Control_c, 0, 64, 78
1, 3934, Control_c, 0, 64, 82
1, 3949, Control_c, 0, 64, 85
1, 3963, Control_c, 0, 64, 87
1, 3978, Control_c, 0, 64, 89
1, 3993, Control_c, 0, 64, 90
1, 4008, Control_c, 0, 64, 93
1, 4023, Control_c, 0, 64, 96
1, 4037, Control_c, 0, 64, 101
1, 4052, Control_c, 0, 64, 107
1, 4068, Control_c, 0, 64, 127
1, 4248, Note_off_c, 0, 73, 58
1, 4830, Note_on_c, 0, 73, 64
1, 5008, Note_off_c, 0, 57, 43
1, 5068, Note_off_c, 0, 64, 45
1, 5146, Note_off_c, 0, 69, 41
1, 5517, Note_on_c, 0, 74, 73
1, 5550, Note_on_c, 0, 62, 39
1, 5551, Note_on_c, 0, 69, 45
1, 5571, Note_on_c, 0, 65, 32
1, 5624, Control_c, 0, 64, 95
1, 5639, Control_c, 0, 64, 77
1, 5654, Control_c, 0, 64, 63
1, 5659, Note_off_c, 0, 73, 46
1, 5669, Control_c, 0, 64, 48
1, 5683, Control_c, 0, 64, 38
1, 5698, Control_c, 0, 64, 37
1, 5713, Control_c, 0, 64, 40
1, 5728, Control_c, 0, 64, 50
1, 5742, Control_c, 0, 64, 60
1, 5757, Control_c, 0, 64, 67
1, 5772, Control_c, 0, 64, 77
1, 5787, Control_c, 0, 64, 90
1, 5802, Control_c, 0, 64, 111
1, 5817, Control_c, 0, 64, 127
1, 5898, Note_off_c, 0, 74, 62
1, 6394, Note_on_c, 0, 74, 78
1, 6619, Note_off_c, 0, 62, 60
1, 6624, Note_off_c, 0, 69, 58
1, 6646, Note_off_c, 0, 65, 49
1, 7112, Note_on_c, 0, 67, 49
1, 7119, Note_on_c, 0, 55, 41
1, 7130, Note_on_c, 0, 65, 36
1, 7196, Control_c, 0, 64, 109
1, 7211, Control_c, 0, 64, 89
1, 7226, Control_c, 0, 64, 73
1, 7241, Control_c, 0, 64, 58
1, 7255, Control_c, 0, 64, 48
1, 7270, Control_c, 0, 64, 46
1, 7285, Control_c, 0, 64, 47
1, 7300, Control_c, 0, 64, 53
1, 7314, Control_c, 0, 64, 62
1, 7329, Control_c, 0, 64, 73
1, 7344, Control_c, 0, 64, 87
1, 7359, Control_c, 0, 64, 104
1, 7374, Control_c, 0, 64, 127
1, 7483, Note_on_c, 0, 72, 66
1, 7492, Note_off_c, 0, 55, 35
1, 7531, Note_off_c, 0, 74, 60
1, 7626, Note_off_c, 0, 65, 51
1, 7646, Note_on_c, 0, 74, 78
1, 7713, Note_off_c, 0, 72, 57
1, 7758, Note_off_c, 0, 67, 38
1, 7889, Note_on_c, 0, 76, 78
1, 7922, Note_on_c, 0, 67, 37
1, 7927, Note_on_c, 0, 64, 44
1, 7932, Note_on_c, 0, 60, 42
1, 7975, Control_c, 0, 64, 121
1, 7990, Control_c, 0, 64, 97
1, 7991, Note_off_c, 0, 74, 59
1, 8004, Control_c, 0, 64, 81
1, 8019, Control_c, 0, 64, 68
1, 8034, Control_c, 0, 64, 58
1, 8049, Control_c, 0, 64, 47
1, 8064, Control_c, 0, 64, 39
1, 8079, Control_c, 0, 64, 29
1, 8094, Control_c, 0, 64, 0
1, 8183, Control_c, 0, 64, 31
1, 8198, Control_c, 0, 64, 42
1, 8212, Control_c, 0, 64, 52
1, 8234, Control_c, 0, 64, 61
1, 8249, Control_c, 0, 64, 68
1, 8264, Control_c, 0, 64, 75
1, 8279, Control_c, 0, 64, 78
1, 8294, Control_c, 0, 64, 80
1, 8309, Control_c, 0, 64, 84
1, 8323, Control_c, 0, 64, 91
1, 8338, Control_c, 0, 64, 107
1, 8353, Control_c, 0, 64, 127
1, 8559, Note_off_c, 0, 67, 37
1, 8593, Note_off_c, 0, 64, 51
1, 8606, Note_off_c, 0, 60, 47
1, 8725, Note_off_c, 0, 76, 63
1, 9251, Note_on_c, 0, 76, 82
1, 9276, Note_on_c, 0, 67, 49
1, 9277, Note_on_c, 0, 72, 52
1, 9284, Note_on_c, 0, 60, 42
1, 9338, Control_c, 0, 64, 89
1, 9354, Control_c, 0, 64, 69
1, 9369, Control_c, 0, 64, 53
1, 9383, Control_c, 0, 64, 43
1, 9398, Control_c, 0, 64, 42
1, 9413, Control_c, 0, 64, 46
1, 9428, Control_c, 0, 64, 55
1, 9443, Control_c, 0, 64, 66
1, 9457, Control_c, 0, 64, 78
1, 9472, Control_c, 0, 64, 103
1, 9487, Control_c, 0, 64, 127
1, 9546, Note_off_c, 0, 60, 61
1, 9596, Note_off_c, 0, 67, 57
1, 9615, Note_off_c, 0, 72, 38
1, 9665, Control_c, 0, 67, 122
1, 9680, Control_c, 0, 67, 108
1, 9694, Control_c, 0, 67, 99
1, 9805, Control_c, 0, 67, 104
1, 9820, Control_c, 0, 67, 108
1, 9835, Control_c, 0, 67, 110
1, 9865, Control_c, 0, 67, 113
1, 9879, Control_c, 0, 67, 115
1, 9894, Control_c, 0, 67, 118
1, 9939, Control_c, 0, 67, 120
1, 9953, Note_on_c, 0, 77, 80
1, 9954, Control_c, 0, 67, 122
1, 9969, Control_c, 0, 67, 126
1, 9972, Note_on_c, 0, 65, 43
1, 9972, Note_on_c, 0, 72, 51
1, 9988, Note_on_c, 0, 69, 40
1, 10028, Control_c, 0, 64, 111
1, 10043, Control_c, 0, 64, 87
1, 10056, Control_c, 0, 64, 71
1, 10071, Control_c, 0, 64, 56
1, 10086, Control_c, 0, 64, 37
1, 10093, Note_off_c, 0, 76, 54
1, 10100, Control_c, 0, 64, 0
1, 10161, Control_c, 0, 64, 40
1, 10176, Control_c, 0, 64, 55
1, 10191, Control_c, 0, 64, 69
1, 10205, Control_c, 0, 64, 82
1, 10220, Control_c, 0, 64, 99
1, 10235, Control_c, 0, 64, 118
1, 10250, Control_c, 0, 64, 127
1, 10294, Note_off_c, 0, 77, 62
1, 10788, Note_on_c, 0, 77, 77
1, 11602, Note_off_c, 0, 65, 56
1, 11675, Note_off_c, 0, 69, 35
1, 11780, Note_on_c, 0, 79, 75
1, 11905, Note_off_c, 0, 72, 38
1, 11923, Note_off_c, 0, 77, 29
1, 12167, Note_on_c, 0, 76, 73
1, 12194, Note_on_c, 0, 60, 40
1, 12198, Note_on_c, 0, 72, 39
1, 12199, Note_on_c, 0, 67, 43
1, 12246, Note_off_c, 0, 79, 59
1, 12303, Control_c, 0, 64, 113
1, 12318, Control_c, 0, 64, 100
1, 12333, Control_c, 0, 64, 91
1, 12348, Control_c, 0, 64, 80
1, 12363, Control_c, 0, 64, 70
1, 12377, Control_c, 0, 64, 59
1, 12392, Control_c, 0, 64, 48
1, 12407, Control_c, 0, 64, 35
1, 12422, Control_c, 0, 64, 0
1, 12481, Control_c, 0, 64, 32
1, 12495, Control_c, 0, 64, 45
1, 12510, Control_c, 0, 64, 57
1, 12525, Control_c, 0, 64, 66
1, 12541, Control_c, 0, 64, 72
1, 12556, Control_c, 0, 64, 77
1, 12571, Control_c, 0, 64, 82
1, 12586, Control_c, 0, 64, 90
1, 12600, Control_c, 0, 64, 103
1, 12615, Control_c, 0, 64, 127
1, 12869, Note_off_c, 0, 67, 35
1, 12915, Note_off_c, 0, 76, 59
1, 12920, Note_off_c, 0, 60, 52
1, 12950, Note_off_c, 0, 72, 54
1, 13521, Note_on_c, 0, 76, 53
1, 13537, Note_on_c, 0, 70, 40
1, 13550, Note_on_c, 0, 61, 32
1, 13554, Note_on_c, 0, 67, 32
1, 13594, Control_c, 0, 64, 112
1, 13609, Control_c, 0, 64, 84
1, 13623, Control_c, 0, 64, 66
1, 13638, Control_c, 0, 64, 51
1, 13653, Control_c, 0, 64, 39
1, 13668, Control_c, 0, 64, 37
1, 13682, Control_c, 0, 64, 39
1, 13697, Control_c, 0, 64, 48
1, 13712, Control_c, 0, 64, 60
1, 13727, Control_c, 0, 64, 70
1, 13742, Control_c, 0, 64, 81
1, 13756, Control_c, 0, 64, 94
1, 13771, Control_c, 0, 64, 105
1, 13786, Control_c, 0, 64, 116
1, 13802, Control_c, 0, 64, 127
1, 13910, Note_off_c, 0, 67, 42
1, 13958, Note_off_c, 0, 70, 37
1, 13961, Note_off_c, 0, 76, 51
1, 13999, Note_off_c, 0, 61, 37
1, 14187, Note_on_c, 0, 74, 55
1, 14208, Note_on_c, 0, 69, 45
1, 14226, Note_on_c, 0, 62, 35
1, 14237, Note_on_c, 0, 65, 27
1, 14284, Control_c, 0, 64, 119
1, 14298, Control_c, 0, 64, 94
1, 14313, Control_c, 0, 64, 78
1, 14328, Control_c, 0, 64, 63
1, 14343, Control_c, 0, 64, 48
1, 14358, Control_c, 0, 64, 33
1, 14372, Control_c, 0, 64, 0
1, 14402, Control_c, 0, 64, 34
1, 14417, Control_c, 0, 64, 44
1, 14432, Control_c, 0, 64, 55
1, 14446, Control_c, 0, 64, 64
1, 14461, Control_c, 0, 64, 72
1, 14476, Control_c, 0, 64, 80
1, 14491, Control_c, 0, 64, 88
1, 14506, Control_c, 0, 64, 95
1, 14518, Note_on_c, 0, 73, 65
1, 14521, Control_c, 0, 64, 103
1, 14536, Control_c, 0, 64, 114
1, 14551, Control_c, 0, 64, 127
1, 14560, Note_off_c, 0, 74, 60
1, 14619, Note_off_c, 0, 62, 42
1, 14635, Note_off_c, 0, 65, 41
1, 14642, Note_off_c, 0, 69, 53
1, 14909, Note_on_c, 0, 74, 57
1, 14927, Note_on_c, 0, 69, 49
1, 14941, Note_on_c, 0, 62, 32
1, 14947, Note_on_c, 0, 58, 36
1, 14974, Control_c, 0, 64, 119
1, 14983, Note_off_c, 0, 73, 55
1, 14989, Control_c, 0, 64, 103
1, 15003, Control_c, 0, 64, 89
1, 15018, Control_c, 0, 64, 78
1, 15033, Control_c, 0, 64, 67
1, 15048, Control_c, 0, 64, 59
1, 15063, Control_c, 0, 64, 54
1, 15077, Control_c, 0, 64, 52
1, 15092, Control_c, 0, 64, 49
1, 15107, Control_c, 0, 64, 45
1, 15121, Control_c, 0, 64, 43
1, 15136, Control_c, 0, 64, 42
1, 15181, Control_c, 0, 64, 43
1, 15254, Control_c, 0, 64, 44
1, 15314, Control_c, 0, 64, 44
1, 15328, Control_c, 0, 64, 45
1, 15343, Control_c, 0, 64, 46
1, 15373, Control_c, 0, 64, 46
1, 15387, Control_c, 0, 64, 47
1, 15402, Control_c, 0, 64, 47
1, 15417, Control_c, 0, 64, 48
1, 15476, Control_c, 0, 64, 48
1, 15491, Control_c, 0, 64, 49
1, 15550, Control_c, 0, 64, 49
1, 15565, Control_c, 0, 64, 50
1, 15624, Control_c, 0, 64, 50
1, 15737, Note_on_c, 0, 67, 38
1, 15795, Note_off_c, 0, 69, 37
1, 15869, Control_c, 0, 64, 51
1, 15884, Control_c, 0, 64, 52
1, 15899, Control_c, 0, 64, 54
1, 15929, Control_c, 0, 64, 55
1, 15943, Control_c, 0, 64, 57
1, 15958, Control_c, 0, 64, 60
1, 15973, Control_c, 0, 64, 63
1, 15988, Control_c, 0, 64, 67
1, 16003, Control_c, 0, 64, 71
1, 16017, Control_c, 0, 64, 76
1, 16032, Control_c, 0, 64, 80
1, 16047, Control_c, 0, 64, 84
1, 16062, Control_c, 0, 64, 88
1, 16077, Control_c, 0, 64, 92
1, 16092, Control_c, 0, 64, 96
1, 16095, Note_on_c, 0, 76, 53
1, 16107, Control_c, 0, 64, 102
1, 16121, Control_c, 0, 64, 107
1, 16136, Control_c, 0, 64, 111
1, 16151, Control_c, 0, 64, 116
1, 16166, Control_c, 0, 64, 121
1, 16177, Note_off_c, 0, 58, 40
1, 16181, Note_off_c, 0, 67, 53
1, 16181, Control_c, 0, 64, 127
1, 16191, Note_off_c, 0, 74, 38
1, 16195, Note_off_c, 0, 62, 41
1, 16519, Note_on_c, 0, 73, 41
1, 16531, Note_on_c, 0, 57, 35
1, 16541, Note_on_c, 0, 64, 33
1, 16542, Note_on_c, 0, 69, 37
1, 16545, Control_c, 0, 64, 116
1, 16560, Control_c, 0, 64, 111
1, 16574, Control_c, 0, 64, 107
1, 16589, Control_c, 0, 64, 103
1, 16604, Control_c, 0, 64, 97
1, 16619, Control_c, 0, 64, 91
1, 16634, Control_c, 0, 64, 84
1, 16648, Control_c, 0, 64, 79
1, 16663, Control_c, 0, 64, 75
1, 16678, Control_c, 0, 64, 70
1, 16679, Note_off_c, 0, 76, 39
1, 16692, Control_c, 0, 64, 66
1, 16707, Control_c, 0, 64, 62
1, 16722, Control_c, 0, 64, 58
1, 16737, Control_c, 0, 64, 55
1, 16752, Control_c, 0, 64, 53
1, 16766, Control_c, 0, 64, 50
1, 16781, Control_c, 0, 64, 46
1, 16796, Control_c, 0, 64, 42
1, 16811, Control_c, 0, 64, 39
1, 16826, Control_c, 0, 64, 38
1, 16840, Control_c, 0, 64, 38
1, 16855, Control_c, 0, 64, 37
1, 16885, Control_c, 0, 64, 38
1, 16914, Control_c, 0, 64, 39
1, 16929, Control_c, 0, 64, 41
1, 16944, Control_c, 0, 64, 42
1, 16959, Control_c, 0, 64, 45
1, 16974, Control_c, 0, 64, 48
1, 16989, Control_c, 0, 64, 51
1, 17004, Control_c, 0, 64, 53
1, 17019, Control_c, 0, 64, 54
1, 17034, Control_c, 0, 64, 56
1, 17048, Control_c, 0, 64, 58
1, 17063, Control_c, 0, 64, 60
1, 17078, Control_c, 0, 64, 63
1, 17092, Control_c, 0, 64, 64
1, 17107, Control_c, 0, 64, 66
1, 17122, Control_c, 0, 64, 68
1, 17137, Control_c, 0, 64, 74
1, 17152, Control_c, 0, 64, 79
1, 17166, Control_c, 0, 64, 82
1, 17181, Control_c, 0, 64, 85
1, 17196, Control_c, 0, 64, 89
1, 17218, Control_c, 0, 64, 94
1, 17233, Control_c, 0, 64, 100
1, 17248, Control_c, 0, 64, 112
1, 17263, Control_c, 0, 64, 127
1, 17402, Note_off_c, 0, 73, 54
1, 18180, Note_on_c, 0, 73, 43
1, 18462, Note_off_c, 0, 57, 41
1, 18527, Note_off_c, 0, 64, 44
1, 18982, Note_on_c, 0, 74, 47
1, 19016, Note_on_c, 0, 62, 29
1, 19018, Note_on_c, 0, 65, 22
1, 19043, Control_c, 0, 64, 108
1, 19049, Note_off_c, 0, 73, 21
1, 19058, Control_c, 0, 64, 98
1, 19073, Control_c, 0, 64, 86
1, 19087, Control_c, 0, 64, 77
1, 19102, Control_c, 0, 64, 68
1, 19117, Control_c, 0, 64, 61
1, 19132, Control_c, 0, 64, 55
1, 19146, Note_off_c, 0, 69, 39
1, 19147, Control_c, 0, 64, 49
1, 19161, Control_c, 0, 64, 42
1, 19176, Control_c, 0, 64, 35
1, 19191, Control_c, 0, 64, 32
1, 19221, Control_c, 0, 64, 35
1, 19235, Control_c, 0, 64, 42
1, 19250, Control_c, 0, 64, 49
1, 19265, Control_c, 0, 64, 56
1, 19280, Control_c, 0, 64, 64
1, 19294, Control_c, 0, 64, 70
1, 19309, Control_c, 0, 64, 76
1, 19324, Control_c, 0, 64, 83
1, 19339, Control_c, 0, 64, 87
1, 19354, Control_c, 0, 64, 92
1, 19368, Control_c, 0, 64, 95
1, 19383, Control_c, 0, 64, 100
1, 19398, Control_c, 0, 64, 105
1, 19412, Control_c, 0, 64, 112
1, 19427, Control_c, 0, 64, 127
1, 19499, Note_off_c, 0, 74, 54
1, 20073, Note_on_c, 0, 74, 45
1, 20788, Note_on_c, 0, 67, 47
1, 20822, Control_c, 0, 67, 121
1, 20837, Control_c, 0, 67, 105
1, 20852, Control_c, 0, 67, 87
1, 20867, Control_c, 0, 67, 68
1, 20882, Control_c, 0, 67, 54
1, 20897, Control_c, 0, 67, 44
1, 20912, Control_c, 0, 67, 40
1, 20927, Control_c, 0, 67, 40
1, 20941, Control_c, 0, 67, 39
1, 20993, Control_c, 0, 67, 38
1, 21052, Control_c, 0, 67, 39
1, 21078, Note_off_c, 0, 62, 42
1, 21097, Control_c, 0, 67, 40
1, 21100, Note_off_c, 0, 67, 53
1, 21112, Control_c, 0, 67, 41
1, 21126, Control_c, 0, 67, 42
1, 21136, Note_on_c, 0, 76, 54
1, 21156, Control_c, 0, 67, 43
1, 21171, Control_c, 0, 67, 45
1, 21179, Note_off_c, 0, 65, 37
1, 21185, Control_c, 0, 67, 47
1, 21192, Note_off_c, 0, 74, 52
1, 21200, Control_c, 0, 67, 48
1, 21245, Control_c, 0, 67, 51
1, 21259, Control_c, 0, 67, 55
1, 21335, Control_c, 0, 67, 57
1, 21350, Control_c, 0, 67, 59
1, 21379, Control_c, 0, 67, 58
1, 21409, Control_c, 0, 67, 61
1, 21424, Control_c, 0, 67, 63
1, 21453, Control_c, 0, 67, 62
1, 21497, Control_c, 0, 67, 64
1, 21542, Control_c, 0, 67, 64
1, 21556, Control_c, 0, 67, 66
1, 21571, Control_c, 0, 67, 67
1, 21574, Note_on_c, 0, 73, 57
1, 21616, Control_c, 0, 67, 68
1, 21622, Note_on_c, 0, 57, 26
1, 21624, Note_on_c, 0, 69, 19
1, 21627, Note_on_c, 0, 64, 36
1, 21630, Control_c, 0, 67, 71
1, 21645, Control_c, 0, 67, 81
1, 21660, Control_c, 0, 67, 84
1, 21690, Control_c, 0, 67, 84
1, 21712, Control_c, 0, 67, 87
1, 21723, Note_off_c, 0, 76, 25
1, 21727, Control_c, 0, 67, 88
1, 21742, Control_c, 0, 67, 94
1, 21757, Control_c, 0, 67, 96
1, 21771, Control_c, 0, 67, 98
1, 21786, Control_c, 0, 67, 102
1, 21801, Control_c, 0, 64, 110
1, 21801, Control_c, 0, 67, 123
1, 21815, Control_c, 0, 64, 99
1, 21815, Control_c, 0, 67, 127
1, 21830, Control_c, 0, 64, 91
1, 21845, Control_c, 0, 64, 86
1, 21860, Control_c, 0, 64, 80
1, 21875, Control_c, 0, 64, 72
1, 21890, Control_c, 0, 64, 64
1, 21904, Control_c, 0, 64, 57
1, 21919, Control_c, 0, 64, 51
1, 21934, Control_c, 0, 64, 46
1, 21949, Control_c, 0, 64, 44
1, 21964, Control_c, 0, 64, 44
1, 21979, Control_c, 0, 64, 47
1, 21994, Control_c, 0, 64, 51
1, 22009, Control_c, 0, 64, 56
1, 22023, Control_c, 0, 64, 61
1, 22038, Control_c, 0, 64, 68
1, 22053, Control_c, 0, 64, 75
1, 22068, Control_c, 0, 64, 84
1, 22082, Control_c, 0, 64, 91
1, 22097, Control_c, 0, 64, 100
1, 22112, Control_c, 0, 64, 126
1, 22357, Note_off_c, 0, 73, 58
1, 22945, Note_on_c, 0, 73, 70
1, 23154, Note_off_c, 0, 57, 49
1, 23229, Note_off_c, 0, 69, 41
1, 23236, Note_off_c, 0, 64, 44
1, 23596, Note_on_c, 0, 74, 75
1, 23627, Note_on_c, 0, 62, 40
1, 23628, Note_on_c, 0, 69, 44
1, 23642, Note_on_c, 0, 65, 31
1, 23692, Note_off_c, 0, 73, 58
1, 23713, Control_c, 0, 64, 99
1, 23729, Control_c, 0, 64, 85
1, 23744, Control_c, 0, 64, 71
1, 23758, Control_c, 0, 64, 58
1, 23773, Control_c, 0, 64, 42
1, 23788, Control_c, 0, 64, 34
1, 23803, Control_c, 0, 64, 33
1, 23832, Control_c, 0, 64, 37
1, 23847, Control_c, 0, 64, 44
1, 23862, Control_c, 0, 64, 54
1, 23876, Control_c, 0, 64, 66
1, 23891, Control_c, 0, 64, 80
1, 23906, Control_c, 0, 64, 112
1, 23921, Control_c, 0, 64, 127
1, 23974, Note_off_c, 0, 74, 61
1, 24474, Note_on_c, 0, 74, 75
1, 24611, Control_c, 0, 67, 124
1, 24625, Control_c, 0, 67, 118
1, 24718, Note_off_c, 0, 69, 57
1, 24721, Control_c, 0, 67, 122
1, 24733, Note_off_c, 0, 62, 61
1, 24736, Control_c, 0, 67, 125
1, 24765, Note_off_c, 0, 65, 37
1, 24796, Control_c, 0, 67, 127
1, 25192, Note_on_c, 0, 67, 54
1, 25215, Note_on_c, 0, 55, 45
1, 25218, Note_on_c, 0, 65, 39
1, 25255, Control_c, 0, 64, 94
1, 25270, Control_c, 0, 64, 75
1, 25285, Control_c, 0, 64, 62
1, 25299, Control_c, 0, 64, 50
1, 25314, Control_c, 0, 64, 46
1, 25330, Control_c, 0, 64, 47
1, 25344, Control_c, 0, 64, 52
1, 25359, Control_c, 0, 64, 62
1, 25374, Control_c, 0, 64, 71
1, 25389, Control_c, 0, 64, 83
1, 25404, Control_c, 0, 64, 97
1, 25419, Control_c, 0, 64, 104
1, 25434, Control_c, 0, 64, 112
1, 25455, Control_c, 0, 64, 127
1, 25582, Note_off_c, 0, 65, 58
1, 25584, Note_on_c, 0, 72, 71
1, 25586, Note_on_c, 0, 64, 54
1, 25642, Note_off_c, 0, 74, 63
1, 25747, Note_off_c, 0, 55, 36
1, 25750, Note_off_c, 0, 67, 37
1, 25755, Note_on_c, 0, 74, 83
1, 25770, Note_off_c, 0, 64, 60
1, 25787, Note_on_c, 0, 65, 44
1, 25813, Note_off_c, 0, 65, 55
1, 25833, Note_off_c, 0, 72, 56
1, 26005, Note_on_c, 0, 76, 80
1, 26019, Note_on_c, 0, 72, 70
1, 26033, Note_on_c, 0, 60, 42
1, 26035, Note_on_c, 0, 67, 47
1, 26077, Control_c, 0, 64, 103
1, 26092, Control_c, 0, 64, 91
1, 26100, Note_off_c, 0, 74, 54
1, 26107, Control_c, 0, 64, 80
1, 26122, Control_c, 0, 64, 67
1, 26137, Control_c, 0, 64, 56
1, 26152, Control_c, 0, 64, 44
1, 26167, Control_c, 0, 64, 30
1, 26182, Control_c, 0, 64, 0
1, 26352, Control_c, 0, 64, 47
1, 26367, Control_c, 0, 64, 60
1, 26382, Control_c, 0, 64, 66
1, 26397, Control_c, 0, 64, 68
1, 26411, Control_c, 0, 64, 70
1, 26426, Control_c, 0, 64, 73
1, 26441, Control_c, 0, 64, 78
1, 26456, Control_c, 0, 64, 85
1, 26470, Control_c, 0, 64, 93
1, 26485, Control_c, 0, 64, 105
1, 26500, Control_c, 0, 64, 127
1, 26718, Note_off_c, 0, 76, 59
1, 26796, Control_c, 0, 67, 118
1, 26811, Control_c, 0, 67, 104
1, 26826, Control_c, 0, 67, 91
1, 26841, Control_c, 0, 67, 79
1, 26856, Control_c, 0, 67, 68
1, 26870, Control_c, 0, 67, 58
1, 26885, Control_c, 0, 67, 51
1, 26900, Control_c, 0, 67, 47
1, 26915, Control_c, 0, 67, 45
1, 26968, Control_c, 0, 67, 44
1, 26982, Control_c, 0, 67, 42
1, 26997, Control_c, 0, 67, 41
1, 27012, Control_c, 0, 67, 38
1, 27026, Control_c, 0, 67, 0
1, 27279, Note_on_c, 0, 76, 81
1, 27302, Note_on_c, 0, 68, 43
1, 27408, Note_off_c, 0, 67, 53
1, 27478, Note_off_c, 0, 68, 61
1, 27494, Note_off_c, 0, 60, 60
1, 27505, Note_off_c, 0, 72, 60
1, 27575, Control_c, 0, 67, 48
1, 27590, Control_c, 0, 67, 52
1, 27605, Control_c, 0, 67, 53
1, 27620, Control_c, 0, 67, 56
1, 27634, Control_c, 0, 67, 68
1, 27649, Control_c, 0, 67, 90
1, 27664, Control_c, 0, 67, 112
1, 27679, Control_c, 0, 67, 119
1, 27701, Control_c, 0, 67, 123
1, 27716, Control_c, 0, 67, 127
1, 27963, Note_on_c, 0, 77, 84
1, 27975, Note_on_c, 0, 72, 55
1, 27988, Note_on_c, 0, 65, 45
1, 27994, Note_on_c, 0, 69, 39
1, 28028, Control_c, 0, 64, 121
1, 28043, Control_c, 0, 64, 98
1, 28057, Control_c, 0, 64, 81
1, 28072, Control_c, 0, 64, 68
1, 28087, Control_c, 0, 64, 54
1, 28102, Control_c, 0, 64, 30
1, 28117, Control_c, 0, 64, 0
1, 28128, Note_off_c, 0, 76, 39
1, 28176, Control_c, 0, 64, 32
1, 28191, Control_c, 0, 64, 49
1, 28206, Control_c, 0, 64, 63
1, 28221, Control_c, 0, 64, 74
1, 28236, Control_c, 0, 64, 84
1, 28250, Control_c, 0, 64, 91
1, 28265, Control_c, 0, 64, 97
1, 28280, Control_c, 0, 64, 110
1, 28295, Control_c, 0, 64, 127
1, 28328, Note_off_c, 0, 77, 61
1, 28718, Note_on_c, 0, 77, 84
1, 28975, Note_off_c, 0, 65, 31
1, 29031, Note_off_c, 0, 69, 37
1, 29404, Note_on_c, 0, 71, 64
1, 29423, Note_on_c, 0, 65, 38
1, 29428, Note_on_c, 0, 62, 38
1, 29496, Control_c, 0, 64, 104
1, 29509, Note_off_c, 0, 72, 58
1, 29511, Control_c, 0, 64, 86
1, 29525, Control_c, 0, 64, 70
1, 29540, Control_c, 0, 64, 55
1, 29555, Control_c, 0, 64, 39
1, 29569, Control_c, 0, 64, 31
1, 29584, Control_c, 0, 64, 32
1, 29599, Control_c, 0, 64, 39
1, 29614, Control_c, 0, 64, 48
1, 29628, Control_c, 0, 64, 57
1, 29643, Control_c, 0, 64, 63
1, 29658, Control_c, 0, 64, 70
1, 29673, Control_c, 0, 64, 79
1, 29688, Control_c, 0, 64, 90
1, 29702, Control_c, 0, 64, 96
1, 29717, Control_c, 0, 64, 101
1, 29732, Control_c, 0, 64, 107
1, 29734, Note_on_c, 0, 79, 79
1, 29747, Control_c, 0, 64, 118
1, 29762, Control_c, 0, 64, 127
1, 29783, Note_off_c, 0, 62, 61
1, 29813, Note_off_c, 0, 71, 60
1, 29866, Note_off_c, 0, 65, 37
1, 29878, Note_off_c, 0, 77, 34
1, 30141, Note_on_c, 0, 76, 74
1, 30171, Note_on_c, 0, 72, 43
1, 30178, Note_on_c, 0, 60, 38
1, 30191, Note_off_c, 0, 79, 59
1, 30198, Note_on_c, 0, 67, 27
1, 30230, Control_c, 0, 64, 110
1, 30244, Control_c, 0, 64, 90
1, 30259, Control_c, 0, 64, 73
1, 30275, Control_c, 0, 64, 58
1, 30290, Control_c, 0, 64, 36
1, 30305, Control_c, 0, 64, 0
1, 30349, Control_c, 0, 64, 37
1, 30364, Control_c, 0, 64, 52
1, 30378, Control_c, 0, 64, 62
1, 30393, Control_c, 0, 64, 68
1, 30408, Control_c, 0, 64, 76
1, 30423, Control_c, 0, 64, 83
1, 30438, Control_c, 0, 64, 87
1, 30452, Control_c, 0, 64, 91
1, 30467, Control_c, 0, 64, 95
1, 30482, Control_c, 0, 64, 100
1, 30497, Control_c, 0, 64, 106
1, 30512, Control_c, 0, 64, 110
1, 30526, Control_c, 0, 64, 115
1, 30541, Control_c, 0, 64, 120
1, 30556, Control_c, 0, 64, 127
1, 30674, Note_off_c, 0, 60, 37
1, 31000, Note_on_c, 0, 70, 48
1, 31012, Note_on_c, 0, 61, 34
1, 31023, Control_c, 0, 64, 116
1, 31038, Control_c, 0, 64, 108
1, 31053, Control_c, 0, 64, 96
1, 31068, Control_c, 0, 64, 82
1, 31083, Control_c, 0, 64, 67
1, 31095, Note_off_c, 0, 72, 38
1, 31098, Control_c, 0, 64, 51
1, 31112, Control_c, 0, 64, 35
1, 31127, Control_c, 0, 64, 30
1, 31157, Control_c, 0, 64, 39
1, 31172, Control_c, 0, 64, 52
1, 31187, Control_c, 0, 64, 62
1, 31201, Note_off_c, 0, 76, 55
1, 31201, Control_c, 0, 64, 70
1, 31216, Control_c, 0, 64, 78
1, 31231, Control_c, 0, 64, 83
1, 31246, Control_c, 0, 64, 84
1, 31261, Control_c, 0, 64, 85
1, 31275, Control_c, 0, 64, 88
1, 31290, Control_c, 0, 64, 93
1, 31305, Control_c, 0, 64, 96
1, 31320, Control_c, 0, 64, 99
1, 31349, Control_c, 0, 64, 101
1, 31364, Control_c, 0, 64, 103
1, 31379, Control_c, 0, 64, 106
1, 31393, Control_c, 0, 64, 108
1, 31396, Note_on_c, 0, 76, 48
1, 31408, Control_c, 0, 64, 112
1, 31423, Control_c, 0, 64, 115
1, 31446, Control_c, 0, 64, 119
1, 31461, Control_c, 0, 64, 127
1, 31491, Note_off_c, 0, 70, 57
1, 31520, Note_off_c, 0, 67, 44
1, 31538, Note_off_c, 0, 61, 43
1, 31920, Control_c, 0, 64, 123
1, 31935, Control_c, 0, 64, 114
1, 31943, Note_on_c, 0, 77, 35
1, 31950, Control_c, 0, 64, 109
1, 31963, Note_on_c, 0, 65, 23
1, 31965, Control_c, 0, 64, 104
1, 31969, Note_on_c, 0, 62, 29
1, 31980, Control_c, 0, 64, 97
1, 31981, Poly_aftertouch_c, 0, 69, 127
1, 31995, Control_c, 0, 64, 89
1, 32010, Control_c, 0, 64, 80
1, 32016, Note_off_c, 0, 76, 30
1, 32024, Control_c, 0, 64, 69
1, 32039, Control_c, 0, 64, 55
1, 32054, Control_c, 0, 64, 45
1, 32069, Control_c, 0, 64, 41
1, 32084, Control_c, 0, 64, 42
1, 32098, Control_c, 0, 64, 46
1, 32113, Control_c, 0, 64, 55
1, 32128, Control_c, 0, 64, 63
1, 32142, Control_c, 0, 64, 72
1, 32157, Control_c, 0, 64, 80
1, 32172, Control_c, 0, 64, 87
1, 32195, Control_c, 0, 64, 91
1, 32209, Control_c, 0, 64, 96
1, 32224, Control_c, 0, 64, 104
1, 32239, Control_c, 0, 64, 127
1, 32296, Poly_aftertouch_c, 0, 69, 0
1, 32308, Note_off_c, 0, 65, 41
1, 32339, Note_off_c, 0, 77, 42
1, 32340, Note_off_c, 0, 62, 44
1, 33057, Note_on_c, 0, 74, 56
1, 33068, Note_on_c, 0, 70, 42
1, 33084, Note_on_c, 0, 55, 39
1, 33090, Note_on_c, 0, 64, 35
1, 33107, Control_c, 0, 64, 109
1, 33121, Control_c, 0, 64, 89
1, 33136, Control_c, 0, 64, 71
1, 33151, Control_c, 0, 64, 56
1, 33166, Control_c, 0, 64, 43
1, 33180, Control_c, 0, 64, 42
1, 33195, Control_c, 0, 64, 45
1, 33210, Control_c, 0, 64, 54
1, 33225, Control_c, 0, 64, 62
1, 33240, Control_c, 0, 64, 68
1, 33254, Control_c, 0, 64, 76
1, 33270, Control_c, 0, 64, 88
1, 33285, Control_c, 0, 64, 98
1, 33299, Control_c, 0, 64, 109
1, 33315, Control_c, 0, 64, 127
1, 33451, Note_off_c, 0, 70, 53
1, 33452, Note_off_c, 0, 74, 63
1, 33524, Note_on_c, 0, 62, 38
1, 33528, Note_off_c, 0, 64, 41
1, 33578, Note_off_c, 0, 55, 53
1, 34112, Note_on_c, 0, 74, 59
1, 34146, Note_on_c, 0, 57, 41
1, 34150, Note_on_c, 0, 69, 39
1, 34151, Note_on_c, 0, 64, 35
1, 34224, Note_off_c, 0, 62, 37
1, 34241, Control_c, 0, 64, 111
1, 34256, Control_c, 0, 64, 104
1, 34271, Control_c, 0, 64, 98
1, 34285, Control_c, 0, 64, 89
1, 34300, Control_c, 0, 64, 81
1, 34315, Control_c, 0, 64, 74
1, 34330, Control_c, 0, 64, 67
1, 34344, Control_c, 0, 64, 63
1, 34359, Control_c, 0, 64, 59
1, 34374, Control_c, 0, 64, 57
1, 34389, Control_c, 0, 64, 56
1, 34404, Control_c, 0, 64, 55
1, 34797, Control_c, 0, 64, 55
1, 34841, Control_c, 0, 64, 55
1, 34871, Control_c, 0, 64, 55
1, 35128, Note_on_c, 0, 67, 49
1, 35294, Control_c, 0, 64, 56
1, 35351, Note_off_c, 0, 64, 36
1, 35629, Note_on_c, 0, 73, 45
1, 35724, Note_off_c, 0, 74, 57
1, 35812, Control_c, 0, 64, 56
1, 35827, Control_c, 0, 64, 57
1, 35842, Control_c, 0, 64, 57
1, 36322, Note_on_c, 0, 62, 35
1, 36322, Note_on_c, 0, 74, 45
1, 36381, Control_c, 0, 64, 57
1, 36430, Note_off_c, 0, 73, 55
1, 36514, Note_off_c, 0, 57, 47
1, 36701, Control_c, 0, 64, 57
1, 36731, Control_c, 0, 64, 58
1, 36745, Control_c, 0, 64, 58
1, 36790, Control_c, 0, 64, 59
1, 36805, Control_c, 0, 64, 60
1, 36819, Control_c, 0, 64, 61
1, 36834, Control_c, 0, 64, 63
1, 36849, Control_c, 0, 64, 64
1, 36864, Control_c, 0, 64, 65
1, 36879, Control_c, 0, 64, 67
1, 36893, Control_c, 0, 64, 69
1, 36908, Control_c, 0, 64, 72
1, 36923, Control_c, 0, 64, 77
1, 36937, Control_c, 0, 64, 81
1, 36952, Control_c, 0, 64, 83
1, 36967, Control_c, 0, 64, 84
1, 36982, Control_c, 0, 64, 87
1, 36997, Control_c, 0, 64, 90
1, 37012, Control_c, 0, 64, 93
1, 37027, Control_c, 0, 64, 95
1, 37042, Control_c, 0, 64, 98
1, 37057, Control_c, 0, 64, 102
1, 37072, Control_c, 0, 64, 107
1, 37086, Control_c, 0, 64, 114
1, 37101, Control_c, 0, 64, 127
1, 37277, Note_off_c, 0, 67, 35
1, 37991, Note_on_c, 0, 65, 23
1, 38103, Control_c, 0, 64, 117
1, 38118, Control_c, 0, 64, 103
1, 38132, Control_c, 0, 64, 93
1, 38147, Control_c, 0, 64, 85
1, 38162, Control_c, 0, 64, 78
1, 38184, Control_c, 0, 64, 71
1, 38199, Control_c, 0, 64, 66
1, 38214, Control_c, 0, 64, 62
1, 38229, Control_c, 0, 64, 60
1, 38244, Control_c, 0, 64, 59
1, 38258, Control_c, 0, 64, 57
1, 38273, Control_c, 0, 64, 56
1, 38288, Control_c, 0, 64, 55
1, 38303, Control_c, 0, 64, 55
1, 38407, Control_c, 0, 64, 55
1, 38422, Control_c, 0, 64, 56
1, 38437, Control_c, 0, 64, 56
1, 38451, Control_c, 0, 64, 57
1, 38466, Control_c, 0, 64, 58
1, 38481, Control_c, 0, 64, 60
1, 38496, Control_c, 0, 64, 62
1, 38510, Control_c, 0, 64, 63
1, 38525, Control_c, 0, 64, 64
1, 38540, Control_c, 0, 64, 66
1, 38555, Control_c, 0, 64, 67
1, 38570, Control_c, 0, 64, 71
1, 38584, Control_c, 0, 64, 77
1, 38599, Control_c, 0, 64, 82
1, 38614, Control_c, 0, 64, 84
1, 38629, Control_c, 0, 64, 86
1, 38644, Control_c, 0, 64, 88
1, 38658, Control_c, 0, 64, 91
1, 38673, Control_c, 0, 64, 95
1, 38688, Control_c, 0, 64, 98
1, 38702, Control_c, 0, 64, 101
1, 38717, Control_c, 0, 64, 106
1, 38732, Control_c, 0, 64, 111
1, 38747, Control_c, 0, 64, 123
1, 38762, Control_c, 0, 64, 127
1, 38833, Note_off_c, 0, 62, 39
1, 39015, Note_off_c, 0, 65, 34
1, 39090, Note_off_c, 0, 74, 34
1, 39179, Note_off_c, 0, 69, 34
1, 39771, Control_c, 0, 64, 123
1, 39786, Control_c, 0, 64, 116
1, 39801, Control_c, 0, 64, 112
1, 39816, Control_c, 0, 64, 109
1, 39830, Control_c, 0, 64, 107
1, 39845, Control_c, 0, 64, 105
1, 39860, Control_c, 0, 64, 102
1, 39875, Control_c, 0, 64, 100
1, 39890, Control_c, 0, 64, 98
1, 39904, Control_c, 0, 64, 95
1, 39919, Control_c, 0, 64, 93
1, 39934, Control_c, 0, 64, 90
1, 39949, Control_c, 0, 64, 87
1, 39963, Control_c, 0, 64, 84
1, 39978, Control_c, 0, 64, 81
1, 39993, Control_c, 0, 64, 78
1, 40008, Control_c, 0, 64, 74
1, 40023, Control_c, 0, 64, 71
1, 40037, Control_c, 0, 64, 68
1, 40052, Control_c, 0, 64, 66
1, 40067, Control_c, 0, 64, 64
1, 40082, Control_c, 0, 64, 63
1, 40097, Control_c, 0, 64, 62
1, 40112, Control_c, 0, 64, 62
1, 40127, Control_c, 0, 64, 61
1, 40142, Control_c, 0, 64, 60
1, 40216, Control_c, 0, 64, 60
1, 40230, Control_c, 0, 64, 60
1, 40245, Control_c, 0, 64, 61
1, 40274, Control_c, 0, 64, 61
1, 40348, Control_c, 0, 64, 62
1, 40378, Control_c, 0, 64, 62
1, 40408, Control_c, 0, 64, 63
1, 40430, Control_c, 0, 64, 65
1, 40434, Note_on_c, 0, 62, 46
1, 40445, Control_c, 0, 64, 66
1, 40460, Control_c, 0, 64, 68
1, 40475, Control_c, 0, 64, 68
1, 40489, Control_c, 0, 64, 69
1, 40505, Control_c, 0, 64, 71
1, 40520, Control_c, 0, 64, 76
1, 40535, Control_c, 0, 64, 80
1, 40550, Control_c, 0, 64, 82
1, 40565, Control_c, 0, 64, 84
1, 40579, Control_c, 0, 64, 86
1, 40594, Control_c, 0, 64, 88
1, 40609, Control_c, 0, 64, 91
1, 40624, Control_c, 0, 64, 93
1, 40639, Control_c, 0, 64, 95
1, 40668, Control_c, 0, 64, 97
1, 40683, Control_c, 0, 64, 99
1, 40698, Control_c, 0, 64, 101
1, 40712, Control_c, 0, 64, 103
1, 40742, Control_c, 0, 64, 107
1, 40757, Control_c, 0, 64, 109
1, 40772, Control_c, 0, 64, 112
1, 40777, Note_on_c, 0, 53, 34
1, 40780, Note_on_c, 0, 38, 33
1, 40786, Control_c, 0, 64, 116
1, 40801, Control_c, 0, 64, 123
1, 40816, Control_c, 0, 64, 127
1, 40839, Note_off_c, 0, 38, 53
1, 41006, Note_on_c, 0, 57, 40
1, 41056, Note_off_c, 0, 53, 41
1, 41161, Note_off_c, 0, 57, 36
1, 41167, Note_on_c, 0, 53, 47
1, 41168, Note_off_c, 0, 62, 37
1, 41327, Note_on_c, 0, 62, 60
1, 41402, Control_c, 0, 64, 104
1, 41417, Control_c, 0, 64, 89
1, 41432, Control_c, 0, 64, 72
1, 41447, Control_c, 0, 64, 60
1, 41462, Control_c, 0, 64, 48
1, 41477, Control_c, 0, 64, 40
1, 41481, Note_on_c, 0, 41, 32
1, 41482, Note_on_c, 0, 57, 55
1, 41483, Note_off_c, 0, 53, 35
1, 41491, Control_c, 0, 64, 35
1, 41506, Control_c, 0, 64, 31
1, 41550, Control_c, 0, 64, 39
1, 41565, Control_c, 0, 64, 50
1, 41580, Control_c, 0, 64, 61
1, 41595, Control_c, 0, 64, 67
1, 41609, Control_c, 0, 64, 73
1, 41624, Control_c, 0, 64, 80
1, 41632, Note_on_c, 0, 65, 60
1, 41639, Control_c, 0, 64, 87
1, 41651, Note_off_c, 0, 41, 47
1, 41654, Control_c, 0, 64, 95
1, 41665, Note_off_c, 0, 57, 30
1, 41669, Control_c, 0, 64, 102
1, 41683, Control_c, 0, 64, 107
1, 41698, Control_c, 0, 64, 112
1, 41713, Control_c, 0, 64, 116
1, 41727, Control_c, 0, 64, 123
1, 41742, Control_c, 0, 64, 127
1, 41748, Note_off_c, 0, 65, 55
1, 41773, Note_on_c, 0, 57, 59
1, 41832, Note_off_c, 0, 57, 46
1, 41906, Control_c, 0, 64, 112
1, 41909, Note_on_c, 0, 58, 52
1, 41927, Control_c, 0, 64, 92
1, 41942, Control_c, 0, 64, 73
1, 41957, Control_c, 0, 64, 59
1, 41972, Control_c, 0, 64, 46
1, 41987, Control_c, 0, 64, 33
1, 42002, Control_c, 0, 64, 0
1, 42029, Note_on_c, 0, 43, 36
1, 42056, Note_off_c, 0, 58, 48
1, 42058, Note_on_c, 0, 52, 37
1, 42182, Note_on_c, 0, 64, 61
1, 42201, Note_off_c, 0, 43, 62
1, 42207, Note_off_c, 0, 52, 36
1, 42298, Note_off_c, 0, 62, 38
1, 42321, Note_on_c, 0, 58, 55
1, 42373, Control_c, 0, 64, 31
1, 42388, Control_c, 0, 64, 40
1, 42403, Control_c, 0, 64, 48
1, 42418, Control_c, 0, 64, 54
1, 42420, Note_off_c, 0, 58, 54
1, 42432, Control_c, 0, 64, 58
1, 42447, Control_c, 0, 64, 61
1, 42462, Control_c, 0, 64, 63
1, 42470, Note_off_c, 0, 64, 56
1, 42473, Note_on_c, 0, 61, 55
1, 42476, Control_c, 0, 64, 63
1, 42506, Control_c, 0, 64, 64
1, 42550, Control_c, 0, 64, 64
1, 42565, Control_c, 0, 64, 65
1, 42580, Control_c, 0, 64, 65
1, 42595, Control_c, 0, 64, 66
1, 42610, Control_c, 0, 64, 67
1, 42613, Note_on_c, 0, 45, 45
1, 42616, Note_on_c, 0, 52, 47
1, 42625, Control_c, 0, 64, 69
1, 42640, Control_c, 0, 64, 72
1, 42645, Note_off_c, 0, 45, 60
1, 42655, Control_c, 0, 64, 77
1, 42676, Control_c, 0, 64, 82
1, 42691, Control_c, 0, 64, 88
1, 42706, Control_c, 0, 64, 95
1, 42721, Control_c, 0, 64, 103
1, 42736, Control_c, 0, 64, 118
1, 42750, Control_c, 0, 64, 127
1, 42766, Note_on_c, 0, 57, 50
1, 42815, Note_off_c, 0, 52, 33
1, 42836, Note_off_c, 0, 57, 57
1, 42884, Note_on_c, 0, 64, 61
1, 42941, Note_off_c, 0, 64, 56
1, 43033, Note_on_c, 0, 69, 65
1, 43052, Note_off_c, 0, 69, 66
1, 43078, Control_c, 0, 64, 103
1, 43093, Control_c, 0, 64, 83
1, 43108, Control_c, 0, 64, 70
1, 43123, Control_c, 0, 64, 60
1, 43137, Control_c, 0, 64, 49
1, 43152, Control_c, 0, 64, 42
1, 43167, Control_c, 0, 64, 39
1, 43177, Note_on_c, 0, 64, 50
1, 43182, Control_c, 0, 64, 36
1, 43197, Control_c, 0, 64, 32
1, 43212, Control_c, 0, 64, 0
1, 43242, Note_off_c, 0, 64, 58
1, 43325, Note_on_c, 0, 57, 29
1, 43371, Note_off_c, 0, 57, 51
1, 43439, Note_on_c, 0, 52, 49
1, 43476, Note_off_c, 0, 52, 63
1, 43583, Note_on_c, 0, 33, 51
1, 43619, Control_c, 0, 64, 29
1, 43634, Control_c, 0, 64, 31
1, 43648, Control_c, 0, 64, 37
1, 43663, Control_c, 0, 64, 45
1, 43678, Control_c, 0, 64, 57
1, 43693, Control_c, 0, 64, 62
1, 43709, Control_c, 0, 64, 64
1, 43722, Note_off_c, 0, 33, 56
1, 43723, Control_c, 0, 64, 66
1, 43732, Note_on_c, 0, 52, 48
1, 43738, Control_c, 0, 64, 69
1, 43753, Control_c, 0, 64, 73
1, 43768, Control_c, 0, 64, 77
1, 43783, Control_c, 0, 64, 82
1, 43797, Control_c, 0, 64, 88
1, 43812, Control_c, 0, 64, 97
1, 43827, Control_c, 0, 64, 110
1, 43842, Control_c, 0, 64, 127
1, 43871, Note_on_c, 0, 57, 57
1, 43892, Note_off_c, 0, 52, 50
1, 43899, Note_off_c, 0, 61, 57
1, 43927, Note_off_c, 0, 57, 60
1, 44010, Note_on_c, 0, 61, 61
1, 44042, Note_off_c, 0, 61, 64
1, 44137, Note_on_c, 0, 62, 69
1, 44190, Control_c, 0, 64, 89
1, 44205, Control_c, 0, 64, 72
1, 44219, Control_c, 0, 64, 60
1, 44234, Control_c, 0, 64, 47
1, 44249, Control_c, 0, 64, 39
1, 44264, Control_c, 0, 64, 34
1, 44279, Control_c, 0, 64, 0
1, 44283, Note_on_c, 0, 38, 47
1, 44302, Note_on_c, 0, 53, 49
1, 44377, Note_off_c, 0, 53, 46
1, 44398, Control_c, 0, 64, 44
1, 44412, Control_c, 0, 64, 62
1, 44427, Control_c, 0, 64, 73
1, 44433, Note_on_c, 0, 57, 60
1, 44434, Note_off_c, 0, 38, 56
1, 44442, Control_c, 0, 64, 80
1, 44456, Control_c, 0, 64, 84
1, 44471, Control_c, 0, 64, 87
1, 44486, Control_c, 0, 64, 96
1, 44499, Note_off_c, 0, 57, 57
1, 44501, Control_c, 0, 64, 110
1, 44516, Control_c, 0, 64, 127
1, 44556, Note_on_c, 0, 53, 64
1, 44594, Note_off_c, 0, 62, 60
1, 44617, Note_off_c, 0, 53, 51
1, 44686, Note_on_c, 0, 62, 77
1, 44753, Control_c, 0, 64, 99
1, 44768, Control_c, 0, 64, 78
1, 44783, Control_c, 0, 64, 64
1, 44798, Control_c, 0, 64, 49
1, 44813, Control_c, 0, 64, 42
1, 44818, Note_on_c, 0, 41, 52
1, 44827, Control_c, 0, 64, 40
1, 44830, Note_on_c, 0, 57, 62
1, 44842, Control_c, 0, 64, 38
1, 44857, Control_c, 0, 64, 36
1, 44871, Control_c, 0, 64, 35
1, 44901, Control_c, 0, 64, 36
1, 44923, Control_c, 0, 64, 36
1, 44929, Note_off_c, 0, 57, 37
1, 44968, Control_c, 0, 64, 38
1, 44977, Note_on_c, 0, 65, 56
1, 44983, Control_c, 0, 64, 43
1, 44998, Control_c, 0, 64, 54
1, 45012, Control_c, 0, 64, 63
1, 45027, Control_c, 0, 64, 68
1, 45042, Control_c, 0, 64, 74
1, 45048, Note_off_c, 0, 41, 58
1, 45057, Control_c, 0, 64, 80
1, 45071, Control_c, 0, 64, 89
1, 45086, Control_c, 0, 64, 99
1, 45091, Note_off_c, 0, 65, 51
1, 45101, Control_c, 0, 64, 110
1, 45108, Note_on_c, 0, 57, 54
1, 45116, Control_c, 0, 64, 120
1, 45131, Control_c, 0, 64, 127
1, 45205, Note_off_c, 0, 57, 49
1, 45233, Note_on_c, 0, 53, 58
1, 45273, Note_off_c, 0, 53, 56
1, 45278, Control_c, 0, 64, 100
1, 45294, Control_c, 0, 64, 72
1, 45309, Control_c, 0, 64, 44
1, 45324, Control_c, 0, 64, 0
1, 45354, Note_on_c, 0, 43, 50
1, 45365, Note_on_c, 0, 60, 58
1, 45467, Note_off_c, 0, 62, 53
1, 45504, Note_on_c, 0, 57, 56
1, 45582, Note_off_c, 0, 57, 54
1, 45621, Note_off_c, 0, 43, 63
1, 45633, Note_on_c, 0, 59, 65
1, 45633, Note_on_c, 0, 62, 61
1, 45659, Note_off_c, 0, 60, 62
1, 45683, Note_off_c, 0, 59, 65
1, 45755, Note_off_c, 0, 62, 64
1, 45768, Note_on_c, 0, 64, 74
1, 45894, Control_c, 0, 64, 40
1, 45895, Note_on_c, 0, 48, 63
1, 45907, Note_on_c, 0, 55, 59
1, 45909, Control_c, 0, 64, 58
1, 45924, Control_c, 0, 64, 71
1, 45925, Note_off_c, 0, 48, 64
1, 45939, Control_c, 0, 64, 80
1, 45946, Note_off_c, 0, 55, 58
1, 45954, Control_c, 0, 64, 87
1, 45968, Control_c, 0, 64, 91
1, 45983, Control_c, 0, 64, 98
1, 45998, Control_c, 0, 64, 115
1, 46013, Control_c, 0, 64, 127
1, 46018, Note_on_c, 0, 60, 65
1, 46077, Note_off_c, 0, 60, 57
1, 46148, Note_on_c, 0, 67, 62
1, 46252, Note_off_c, 0, 67, 61
1, 46291, Note_on_c, 0, 72, 55
1, 46312, Note_off_c, 0, 72, 61
1, 46339, Control_c, 0, 64, 93
1, 46354, Control_c, 0, 64, 67
1, 46369, Control_c, 0, 64, 39
1, 46384, Control_c, 0, 64, 0
1, 46428, Note_on_c, 0, 67, 58
1, 46491, Note_off_c, 0, 67, 60
1, 46559, Note_on_c, 0, 60, 46
1, 46620, Note_off_c, 0, 60, 60
1, 46676, Note_on_c, 0, 55, 47
1, 46709, Note_off_c, 0, 55, 53
1, 46822, Note_on_c, 0, 36, 38
1, 46837, Control_c, 0, 64, 33
1, 46851, Control_c, 0, 64, 37
1, 46866, Control_c, 0, 64, 45
1, 46881, Control_c, 0, 64, 55
1, 46896, Control_c, 0, 64, 63
1, 46911, Control_c, 0, 64, 67
1, 46926, Control_c, 0, 64, 69
1, 46941, Control_c, 0, 64, 70
1, 46956, Control_c, 0, 64, 71
1, 46960, Note_on_c, 0, 55, 37
1, 46970, Note_off_c, 0, 36, 55
1, 46971, Control_c, 0, 64, 73
1, 46986, Control_c, 0, 64, 76
1, 47001, Control_c, 0, 64, 81
1, 47015, Control_c, 0, 64, 88
1, 47030, Control_c, 0, 64, 98
1, 47045, Control_c, 0, 64, 127
1, 47093, Note_on_c, 0, 60, 47
1, 47117, Note_off_c, 0, 64, 48
1, 47120, Note_off_c, 0, 55, 35
1, 47176, Note_off_c, 0, 60, 61
1, 47228, Note_on_c, 0, 64, 67
1, 47256, Note_off_c, 0, 64, 67
1, 47343, Note_on_c, 0, 65, 74
1, 47393, Control_c, 0, 64, 101
1, 47408, Control_c, 0, 64, 78
1, 47422, Control_c, 0, 64, 62
1, 47437, Control_c, 0, 64, 45
1, 47452, Control_c, 0, 64, 35
1, 47466, Control_c, 0, 64, 32
1, 47481, Control_c, 0, 64, 0
1, 47487, Note_on_c, 0, 41, 46
1, 47496, Note_on_c, 0, 57, 59
1, 47546, Note_off_c, 0, 57, 51
1, 47600, Control_c, 0, 64, 36
1, 47615, Control_c, 0, 64, 58
1, 47629, Note_off_c, 0, 41, 62
1, 47630, Control_c, 0, 64, 75
1, 47633, Note_on_c, 0, 60, 53
1, 47645, Control_c, 0, 64, 109
1, 47659, Control_c, 0, 64, 127
1, 47707, Note_off_c, 0, 60, 62
1, 47750, Note_on_c, 0, 57, 65
1, 47788, Note_off_c, 0, 65, 61
1, 47790, Note_off_c, 0, 57, 57
1, 47872, Note_on_c, 0, 65, 84
1, 47964, Control_c, 0, 64, 85
1, 47978, Control_c, 0, 64, 65
1, 47993, Control_c, 0, 64, 43
1, 48008, Control_c, 0, 64, 0
1, 48012, Note_on_c, 0, 45, 52
1, 48027, Note_on_c, 0, 60, 51
1, 48119, Note_off_c, 0, 60, 48
1, 48148, Note_off_c, 0, 45, 62
1, 48154, Note_on_c, 0, 69, 62
1, 48246, Note_off_c, 0, 69, 56
1, 48270, Note_on_c, 0, 60, 62
1, 48332, Note_off_c, 0, 60, 52
1, 48406, Note_on_c, 0, 62, 64
1, 48503, Note_off_c, 0, 62, 58
1, 48527, Note_on_c, 0, 55, 60
1, 48527, Note_on_c, 0, 47, 52
1, 48615, Control_c, 0, 64, 29
1, 48623, Note_off_c, 0, 55, 46
1, 48630, Control_c, 0, 64, 47
1, 48644, Control_c, 0, 64, 63
1, 48667, Control_c, 0, 64, 71
1, 48667, Note_on_c, 0, 67, 77
1, 48682, Control_c, 0, 64, 80
1, 48697, Control_c, 0, 64, 88
1, 48704, Note_off_c, 0, 47, 62
1, 48712, Control_c, 0, 64, 99
1, 48726, Control_c, 0, 64, 114
1, 48741, Control_c, 0, 64, 127
1, 48750, Note_off_c, 0, 65, 56
1, 48792, Note_on_c, 0, 62, 69
1, 48839, Note_off_c, 0, 62, 57
1, 48920, Note_on_c, 0, 64, 85
1, 48978, Control_c, 0, 64, 106
1, 48992, Control_c, 0, 64, 85
1, 49007, Control_c, 0, 64, 70
1, 49022, Control_c, 0, 64, 55
1, 49037, Control_c, 0, 64, 38
1, 49052, Control_c, 0, 64, 0
1, 49055, Note_on_c, 0, 55, 59
1, 49058, Note_off_c, 0, 67, 52
1, 49064, Note_on_c, 0, 48, 56
1, 49152, Note_off_c, 0, 48, 59
1, 49156, Control_c, 0, 64, 34
1, 49171, Control_c, 0, 64, 48
1, 49173, Note_on_c, 0, 60, 61
1, 49185, Control_c, 0, 64, 64
1, 49200, Control_c, 0, 64, 71
1, 49213, Note_off_c, 0, 55, 20
1, 49215, Control_c, 0, 64, 75
1, 49230, Control_c, 0, 64, 77
1, 49244, Control_c, 0, 64, 81
1, 49259, Control_c, 0, 64, 89
1, 49274, Control_c, 0, 64, 98
1, 49290, Note_off_c, 0, 60, 51
1, 49290, Control_c, 0, 64, 110
1, 49305, Control_c, 0, 64, 121
1, 49320, Control_c, 0, 64, 127
1, 49323, Note_on_c, 0, 55, 48
1, 49374, Note_off_c, 0, 55, 55
1, 49460, Note_on_c, 0, 67, 66
1, 49475, Control_c, 0, 64, 92
1, 49490, Control_c, 0, 64, 69
1, 49505, Control_c, 0, 64, 55
1, 49520, Control_c, 0, 64, 49
1, 49534, Control_c, 0, 64, 50
1, 49549, Control_c, 0, 64, 57
1, 49564, Control_c, 0, 64, 64
1, 49575, Note_on_c, 0, 36, 46
1, 49579, Control_c, 0, 64, 73
1, 49594, Control_c, 0, 64, 84
1, 49609, Control_c, 0, 64, 91
1, 49613, Note_on_c, 0, 55, 45
1, 49623, Note_off_c, 0, 67, 38
1, 49623, Control_c, 0, 64, 99
1, 49638, Control_c, 0, 64, 114
1, 49653, Control_c, 0, 64, 127
1, 49737, Note_on_c, 0, 59, 59
1, 49746, Note_off_c, 0, 36, 34
1, 49776, Note_off_c, 0, 64, 59
1, 49790, Note_off_c, 0, 55, 36
1, 49896, Note_on_c, 0, 55, 56
1, 49911, Note_off_c, 0, 59, 35
1, 49952, Note_off_c, 0, 55, 50
1, 50035, Note_on_c, 0, 64, 69
1, 50098, Control_c, 0, 64, 89
1, 50113, Control_c, 0, 64, 71
1, 50128, Control_c, 0, 64, 57
1, 50143, Control_c, 0, 64, 43
1, 50165, Control_c, 0, 64, 34
1, 50180, Control_c, 0, 64, 29
1, 50195, Control_c, 0, 64, 0
1, 50211, Note_on_c, 0, 54, 42
1, 50214, Note_on_c, 0, 37, 37
1, 50225, Control_c, 0, 64, 38
1, 50239, Control_c, 0, 64, 50
1, 50254, Control_c, 0, 64, 61
1, 50269, Control_c, 0, 64, 70
1, 50284, Control_c, 0, 64, 77
1, 50298, Control_c, 0, 64, 81
1, 50313, Control_c, 0, 64, 84
1, 50328, Control_c, 0, 64, 92
1, 50343, Control_c, 0, 64, 103
1, 50353, Note_on_c, 0, 58, 56
1, 50358, Control_c, 0, 64, 118
1, 50372, Control_c, 0, 64, 127
1, 50390, Note_off_c, 0, 37, 42
1, 50420, Note_off_c, 0, 54, 42
1, 50515, Note_on_c, 0, 54, 36
1, 50522, Note_off_c, 0, 58, 33
1, 50554, Note_off_c, 0, 54, 60
1, 50643, Note_on_c, 0, 62, 65
1, 50688, Note_off_c, 0, 64, 57
1, 50727, Control_c, 0, 64, 108
1, 50742, Control_c, 0, 64, 84
1, 50756, Note_on_c, 0, 38, 43
1, 50757, Control_c, 0, 64, 67
1, 50772, Control_c, 0, 64, 52
1, 50786, Control_c, 0, 64, 38
1, 50798, Note_on_c, 0, 53, 52
1, 50801, Control_c, 0, 64, 30
1, 50816, Control_c, 0, 64, 0
1, 50924, Note_on_c, 0, 57, 65
1, 50958, Control_c, 0, 64, 37
1, 50973, Control_c, 0, 64, 49
1, 50987, Control_c, 0, 64, 61
1, 51002, Control_c, 0, 64, 66
1, 51013, Note_off_c, 0, 38, 55
1, 51017, Control_c, 0, 64, 69
1, 51032, Control_c, 0, 64, 73
1, 51046, Control_c, 0, 64, 81
1, 51061, Control_c, 0, 64, 96
1, 51069, Note_on_c, 0, 61, 68
1, 51076, Control_c, 0, 64, 119
1, 51091, Control_c, 0, 64, 127
1, 51104, Note_off_c, 0, 57, 57
1, 51118, Note_off_c, 0, 53, 22
1, 51120, Note_off_c, 0, 62, 62
1, 51226, Note_on_c, 0, 62, 70
1, 51269, Control_c, 0, 64, 121
1, 51272, Note_off_c, 0, 61, 61
1, 51284, Control_c, 0, 64, 90
1, 51299, Control_c, 0, 64, 71
1, 51313, Control_c, 0, 64, 55
1, 51328, Control_c, 0, 64, 39
1, 51343, Control_c, 0, 64, 36
1, 51358, Control_c, 0, 64, 34
1, 51373, Control_c, 0, 64, 0
1, 51379, Note_on_c, 0, 43, 35
1, 51388, Note_on_c, 0, 52, 42
1, 51491, Control_c, 0, 64, 29
1, 51505, Control_c, 0, 64, 40
1, 51508, Note_off_c, 0, 52, 50
1, 51520, Control_c, 0, 64, 45
1, 51535, Note_on_c, 0, 58, 53
1, 51535, Control_c, 0, 64, 44
1, 51602, Note_off_c, 0, 43, 61
1, 51609, Control_c, 0, 64, 43
1, 51624, Control_c, 0, 64, 42
1, 51661, Control_c, 0, 64, 43
1, 51674, Note_on_c, 0, 52, 43
1, 51676, Control_c, 0, 64, 45
1, 51692, Control_c, 0, 64, 45
1, 51736, Control_c, 0, 64, 47
1, 51750, Note_off_c, 0, 52, 60
1, 51751, Control_c, 0, 64, 50
1, 51766, Control_c, 0, 64, 50
1, 51771, Note_off_c, 0, 58, 41
1, 51781, Control_c, 0, 64, 49
1, 51796, Control_c, 0, 64, 48
1, 51811, Control_c, 0, 64, 47
1, 51855, Control_c, 0, 64, 46
1, 51869, Control_c, 0, 64, 44
1, 51884, Control_c, 0, 64, 43
1, 51943, Control_c, 0, 64, 42
1, 51958, Control_c, 0, 64, 41
1, 51973, Control_c, 0, 64, 42
1, 51988, Control_c, 0, 64, 42
1, 52012, Note_on_c, 0, 46, 28
1, 52013, Note_on_c, 0, 55, 38
1, 52062, Control_c, 0, 64, 43
1, 52077, Control_c, 0, 64, 47
1, 52092, Control_c, 0, 64, 51
1, 52107, Control_c, 0, 64, 53
1, 52122, Control_c, 0, 64, 56
1, 52136, Control_c, 0, 64, 60
1, 52151, Control_c, 0, 64, 66
1, 52166, Control_c, 0, 64, 69
1, 52181, Control_c, 0, 64, 72
1, 52196, Control_c, 0, 64, 73
1, 52210, Control_c, 0, 64, 76
1, 52225, Control_c, 0, 64, 81
1, 52240, Note_on_c, 0, 64, 60
1, 52240, Control_c, 0, 64, 90
1, 52254, Control_c, 0, 64, 100
1, 52261, Note_off_c, 0, 46, 50
1, 52269, Control_c, 0, 64, 113
1, 52272, Note_off_c, 0, 55, 32
1, 52284, Control_c, 0, 64, 127
1, 52316, Note_off_c, 0, 62, 55
1, 52448, Note_on_c, 0, 55, 34
1, 52489, Note_off_c, 0, 55, 56
1, 52652, Note_on_c, 0, 61, 63
1, 52722, Control_c, 0, 64, 108
1, 52738, Control_c, 0, 64, 82
1, 52753, Control_c, 0, 64, 65
1, 52767, Control_c, 0, 64, 55
1, 52782, Control_c, 0, 64, 55
1, 52797, Control_c, 0, 64, 59
1, 52811, Control_c, 0, 64, 67
1, 52826, Control_c, 0, 64, 79
1, 52841, Control_c, 0, 64, 93
1, 52849, Note_on_c, 0, 56, 64
1, 52856, Control_c, 0, 64, 106
1, 52871, Control_c, 0, 64, 120
1, 52885, Control_c, 0, 64, 127
1, 52913, Note_off_c, 0, 64, 32
1, 52997, Note_on_c, 0, 53, 46
1, 53135, Note_on_c, 0, 50, 56
1, 53177, Note_off_c, 0, 50, 63
1, 53267, Note_off_c, 0, 53, 0
1, 53298, Note_on_c, 0, 49, 64
1, 53305, Poly_aftertouch_c, 0, 53, 127
1, 53406, Note_off_c, 0, 56, 54
1, 53419, Note_on_c, 0, 46, 59
1, 53428, Poly_aftertouch_c, 0, 53, 0
1, 53487, Control_c, 0, 64, 104
1, 53502, Control_c, 0, 64, 90
1, 53516, Control_c, 0, 64, 79
1, 53531, Control_c, 0, 64, 69
1, 53543, Note_off_c, 0, 46, 63
1, 53546, Control_c, 0, 64, 60
1, 53553, Note_on_c, 0, 43, 53
1, 53561, Control_c, 0, 64, 54
1, 53576, Control_c, 0, 64, 50
1, 53590, Control_c, 0, 64, 45
1, 53605, Control_c, 0, 64, 34
1, 53620, Control_c, 0, 64, 0
1, 53698, Note_on_c, 0, 40, 49
1, 53717, Note_off_c, 0, 43, 59
1, 53833, Note_off_c, 0, 40, 57
1, 53844, Note_on_c, 0, 39, 58
1, 53957, Note_off_c, 0, 39, 57
1, 53990, Note_on_c, 0, 34, 52
1, 54125, Note_off_c, 0, 34, 51
1, 54140, Note_on_c, 0, 33, 57
1, 54167, Note_off_c, 0, 49, 54
1, 54250, Control_c, 0, 64, 35
1, 54265, Control_c, 0, 64, 47
1, 54280, Control_c, 0, 64, 59
1, 54295, Control_c, 0, 64, 64
1, 54310, Control_c, 0, 64, 64
1, 54325, Control_c, 0, 64, 65
1, 54328, Note_on_c, 0, 40, 35
1, 54339, Control_c, 0, 64, 66
1, 54352, Note_off_c, 0, 61, 57
1, 54354, Control_c, 0, 64, 68
1, 54369, Control_c, 0, 64, 70
1, 54384, Control_c, 0, 64, 71
1, 54428, Control_c, 0, 64, 68
1, 54441, Note_off_c, 0, 40, 57
1, 54443, Control_c, 0, 64, 57
1, 54447, Note_on_c, 0, 62, 69
1, 54450, Note_off_c, 0, 33, 61
1, 54457, Control_c, 0, 64, 0
1, 54584, Note_on_c, 0, 38, 72
1, 54588, Note_on_c, 0, 53, 57
1, 54606, Note_off_c, 0, 38, 61
1, 54650, Note_off_c, 0, 53, 48
1, 54720, Note_on_c, 0, 57, 56
1, 54769, Note_off_c, 0, 57, 57
1, 54837, Note_off_c, 0, 62, 58
1, 54860, Note_on_c, 0, 53, 37
1, 54944, Note_off_c, 0, 53, 0
1, 54969, Control_c, 0, 64, 32
1, 54972, Note_on_c, 0, 62, 62
1, 54980, Poly_aftertouch_c, 0, 53, 127
1, 54981, Note_on_c, 0, 40, 66
1, 54984, Control_c, 0, 64, 52
1, 54998, Control_c, 0, 64, 63
1, 55013, Control_c, 0, 64, 65
1, 55043, Control_c, 0, 64, 66
1, 55044, Poly_aftertouch_c, 0, 53, 0
1, 55058, Control_c, 0, 64, 69
1, 55073, Control_c, 0, 64, 72
1, 55087, Control_c, 0, 64, 76
1, 55091, Note_off_c, 0, 40, 61
1, 55102, Control_c, 0, 64, 78
1, 55103, Note_on_c, 0, 41, 86
1, 55117, Control_c, 0, 64, 80
1, 55120, Note_on_c, 0, 57, 59
1, 55132, Control_c, 0, 64, 81
1, 55145, Note_off_c, 0, 41, 65
1, 55147, Control_c, 0, 64, 82
1, 55161, Control_c, 0, 64, 84
1, 55176, Control_c, 0, 64, 84
1, 55191, Control_c, 0, 64, 84
1, 55201, Note_off_c, 0, 57, 52
1, 55205, Control_c, 0, 64, 73
1, 55220, Control_c, 0, 64, 53
1, 55235, Control_c, 0, 64, 0
1, 55245, Note_on_c, 0, 65, 64
1, 55367, Note_on_c, 0, 57, 50
1, 55370, Note_off_c, 0, 65, 49
1, 55416, Note_off_c, 0, 57, 53
1, 55517, Note_on_c, 0, 58, 49
1, 55595, Note_off_c, 0, 58, 42
1, 55640, Note_on_c, 0, 43, 48
1, 55660, Note_on_c, 0, 52, 50
1, 55709, Note_off_c, 0, 52, 49
1, 55718, Note_off_c, 0, 43, 63
1, 55796, Note_on_c, 0, 64, 63
1, 55928, Note_on_c, 0, 58, 59
1, 55943, Note_off_c, 0, 62, 47
1, 55970, Note_off_c, 0, 58, 59
1, 56069, Note_on_c, 0, 61, 59
1, 56101, Note_off_c, 0, 64, 57
1, 56194, Note_on_c, 0, 44, 61
1, 56208, Note_on_c, 0, 52, 53
1, 56228, Control_c, 0, 64, 47
1, 56237, Note_off_c, 0, 44, 64
1, 56243, Control_c, 0, 64, 59
1, 56258, Control_c, 0, 64, 61
1, 56263, Note_off_c, 0, 52, 53
1, 56302, Control_c, 0, 64, 62
1, 56312, Note_on_c, 0, 45, 67
1, 56321, Note_on_c, 0, 57, 65
1, 56332, Control_c, 0, 64, 61
1, 56343, Note_off_c, 0, 45, 64
1, 56347, Control_c, 0, 64, 53
1, 56362, Control_c, 0, 64, 0
1, 56394, Note_off_c, 0, 57, 59
1, 56447, Note_on_c, 0, 64, 68
1, 56526, Note_off_c, 0, 64, 60
1, 56563, Note_on_c, 0, 69, 76
1, 56585, Note_off_c, 0, 69, 70
1, 56702, Note_on_c, 0, 64, 67
1, 56773, Note_off_c, 0, 64, 54
1, 56829, Note_on_c, 0, 57, 60
1, 56888, Note_off_c, 0, 57, 55
1, 56963, Note_on_c, 0, 52, 57
1, 57008, Note_off_c, 0, 52, 57
1, 57010, Note_off_c, 0, 61, 63
1, 57097, Note_on_c, 0, 61, 74
1, 57171, Control_c, 0, 64, 44
1, 57185, Control_c, 0, 64, 58
1, 57200, Control_c, 0, 64, 63
1, 57215, Control_c, 0, 64, 64
1, 57230, Control_c, 0, 64, 65
1, 57237, Note_on_c, 0, 33, 56
1, 57241, Note_on_c, 0, 52, 51
1, 57245, Control_c, 0, 64, 67
1, 57259, Control_c, 0, 64, 72
1, 57275, Control_c, 0, 64, 79
1, 57290, Control_c, 0, 64, 88
1, 57291, Note_off_c, 0, 33, 58
1, 57305, Control_c, 0, 64, 99
1, 57320, Control_c, 0, 64, 112
1, 57324, Note_off_c, 0, 52, 54
1, 57335, Control_c, 0, 64, 127
1, 57373, Note_on_c, 0, 57, 59
1, 57455, Note_off_c, 0, 57, 57
1, 57513, Note_on_c, 0, 52, 57
1, 57556, Control_c, 0, 64, 121
1, 57571, Control_c, 0, 64, 97
1, 57573, Note_off_c, 0, 52, 47
1, 57586, Control_c, 0, 64, 83
1, 57601, Control_c, 0, 64, 74
1, 57616, Control_c, 0, 64, 66
1, 57631, Control_c, 0, 64, 59
1, 57642, Note_on_c, 0, 62, 71
1, 57653, Control_c, 0, 64, 52
1, 57668, Control_c, 0, 64, 44
1, 57682, Control_c, 0, 64, 34
1, 57697, Control_c, 0, 64, 0
1, 57723, Note_on_c, 0, 38, 48
1, 57746, Note_off_c, 0, 61, 55
1, 57798, Note_on_c, 0, 53, 60
1, 57819, Note_off_c, 0, 38, 64
1, 57830, Control_c, 0, 64, 47
1, 57837, Note_off_c, 0, 53, 58
1, 57845, Control_c, 0, 64, 68
1, 57860, Control_c, 0, 64, 92
1, 57875, Control_c, 0, 64, 127
1, 57917, Note_on_c, 0, 57, 67
1, 57980, Note_off_c, 0, 57, 62
1, 58030, Note_on_c, 0, 53, 68
1, 58060, Note_off_c, 0, 62, 59
1, 58147, Note_on_c, 0, 62, 78
1, 58158, Note_on_c, 0, 40, 72
1, 58187, Control_c, 0, 64, 108
1, 58202, Control_c, 0, 64, 78
1, 58204, Note_off_c, 0, 53, 21
1, 58217, Control_c, 0, 64, 57
1, 58231, Control_c, 0, 64, 0
1, 58289, Note_on_c, 0, 41, 86
1, 58292, Note_on_c, 0, 57, 59
1, 58298, Note_off_c, 0, 40, 62
1, 58328, Note_off_c, 0, 41, 66
1, 58367, Note_off_c, 0, 57, 57
1, 58431, Note_on_c, 0, 65, 72
1, 58520, Note_off_c, 0, 65, 57
1, 58548, Note_on_c, 0, 57, 42
1, 58641, Note_off_c, 0, 57, 36
1, 58665, Note_on_c, 0, 53, 61
1, 58728, Note_off_c, 0, 53, 40
1, 58805, Note_on_c, 0, 60, 55
1, 58829, Note_on_c, 0, 43, 49
1, 58860, Control_c, 0, 64, 41
1, 58876, Control_c, 0, 64, 48
1, 58891, Control_c, 0, 64, 52
1, 58906, Control_c, 0, 64, 58
1, 58920, Control_c, 0, 64, 64
1, 58935, Control_c, 0, 64, 71
1, 58946, Note_off_c, 0, 62, 53
1, 58950, Control_c, 0, 64, 81
1, 58956, Note_on_c, 0, 57, 55
1, 58965, Control_c, 0, 64, 103
1, 58972, Note_on_c, 0, 41, 15
1, 58979, Control_c, 0, 64, 127
1, 59044, Note_off_c, 0, 41, 61
1, 59045, Note_off_c, 0, 43, 63
1, 59046, Note_off_c, 0, 57, 61
1, 59082, Note_on_c, 0, 62, 64
1, 59085, Note_on_c, 0, 59, 65
1, 59104, Note_off_c, 0, 60, 57
1, 59127, Note_off_c, 0, 59, 63
1, 59194, Note_off_c, 0, 62, 64
1, 59218, Note_on_c, 0, 64, 75
1, 59298, Control_c, 0, 64, 84
1, 59313, Control_c, 0, 64, 58
1, 59327, Control_c, 0, 64, 0
1, 59354, Note_on_c, 0, 55, 66
1, 59359, Note_on_c, 0, 47, 65
1, 59386, Note_off_c, 0, 55, 62
1, 59412, Note_off_c, 0, 47, 61
1, 59468, Note_on_c, 0, 48, 83
1, 59473, Note_on_c, 0, 60, 68
1, 59491, Note_off_c, 0, 48, 67
1, 59537, Note_off_c, 0, 60, 60
1, 59595, Note_on_c, 0, 67, 63
1, 59637, Note_off_c, 0, 67, 58
1, 59741, Note_on_c, 0, 72, 67
1, 59757, Note_off_c, 0, 72, 67
1, 59759, Control_c, 0, 64, 47
1, 59774, Control_c, 0, 64, 64
1, 59789, Control_c, 0, 64, 70
1, 59803, Control_c, 0, 64, 74
1, 59818, Control_c, 0, 64, 76
1, 59833, Control_c, 0, 64, 81
1, 59848, Control_c, 0, 64, 93
1, 59863, Control_c, 0, 64, 121
1, 59863, Note_on_c, 0, 67, 72
1, 59877, Control_c, 0, 64, 127
1, 59994, Note_on_c, 0, 60, 71
1, 60042, Note_off_c, 0, 67, 32
1, 60069, Note_off_c, 0, 60, 55
1, 60111, Note_on_c, 0, 55, 68
1, 60145, Note_off_c, 0, 55, 62
1, 60155, Note_off_c, 0, 64, 64
1, 60240, Note_on_c, 0, 64, 88
1, 60344, Control_c, 0, 64, 108
1, 60358, Control_c, 0, 64, 77
1, 60367, Note_on_c, 0, 55, 69
1, 60373, Control_c, 0, 64, 55
1, 60388, Control_c, 0, 64, 0
1, 60399, Note_on_c, 0, 36, 66
1, 60448, Control_c, 0, 64, 30
1, 60462, Control_c, 0, 64, 57
1, 60478, Control_c, 0, 64, 74
1, 60492, Control_c, 0, 64, 94
1, 60504, Note_on_c, 0, 60, 76
1, 60507, Control_c, 0, 64, 127
1, 60515, Note_off_c, 0, 55, 58
1, 60564, Note_off_c, 0, 36, 64
1, 60611, Control_c, 0, 67, 116
1, 60626, Control_c, 0, 67, 85
1, 60648, Control_c, 0, 67, 62
1, 60657, Note_on_c, 0, 55, 80
1, 60663, Control_c, 0, 67, 46
1, 60678, Control_c, 0, 67, 35
1, 60680, Note_off_c, 0, 60, 59
1, 60693, Control_c, 0, 67, 0
1, 60748, Note_off_c, 0, 55, 58
1, 60828, Note_on_c, 0, 65, 85
1, 60883, Note_off_c, 0, 64, 62
1, 60900, Control_c, 0, 67, 35
1, 60930, Control_c, 0, 64, 88
1, 60944, Control_c, 0, 64, 69
1, 60944, Control_c, 0, 67, 37
1, 60959, Control_c, 0, 64, 54
1, 60959, Control_c, 0, 67, 41
1, 60961, Note_on_c, 0, 41, 72
1, 60963, Note_on_c, 0, 29, 74
1, 60966, Note_on_c, 0, 57, 76
1, 60974, Control_c, 0, 64, 41
1, 60974, Control_c, 0, 67, 45
1, 60989, Control_c, 0, 64, 34
1, 60989, Control_c, 0, 67, 46
1, 61004, Control_c, 0, 64, 0
1, 61004, Control_c, 0, 67, 47
1, 61019, Control_c, 0, 67, 50
1, 61033, Control_c, 0, 67, 69
1, 61048, Control_c, 0, 67, 93
1, 61063, Control_c, 0, 64, 32
1, 61063, Control_c, 0, 67, 102
1, 61074, Note_off_c, 0, 29, 63
1, 61077, Note_off_c, 0, 41, 65
1, 61078, Control_c, 0, 64, 43
1, 61093, Control_c, 0, 64, 57
1, 61094, Note_on_c, 0, 60, 75
1, 61096, Note_off_c, 0, 57, 59
1, 61107, Control_c, 0, 64, 70
1, 61107, Control_c, 0, 67, 105
1, 61122, Control_c, 0, 64, 89
1, 61122, Control_c, 0, 67, 118
1, 61137, Control_c, 0, 64, 127
1, 61137, Control_c, 0, 67, 127
1, 61172, Note_off_c, 0, 60, 61
1, 61211, Note_on_c, 0, 57, 77
1, 61252, Note_off_c, 0, 65, 62
1, 61318, Note_off_c, 0, 57, 59
1, 61341, Note_on_c, 0, 65, 83
1, 61357, Note_on_c, 0, 32, 68
1, 61360, Note_on_c, 0, 44, 62
1, 61375, Control_c, 0, 64, 108
1, 61397, Control_c, 0, 64, 80
1, 61412, Control_c, 0, 64, 63
1, 61427, Control_c, 0, 64, 41
1, 61433, Note_off_c, 0, 44, 63
1, 61442, Control_c, 0, 64, 0
1, 61454, Note_off_c, 0, 32, 61
1, 61489, Note_on_c, 0, 60, 72
1, 61494, Note_on_c, 0, 33, 71
1, 61499, Note_on_c, 0, 45, 75
1, 61567, Note_off_c, 0, 45, 63
1, 61571, Note_off_c, 0, 60, 56
1, 61572, Note_off_c, 0, 33, 62
1, 61622, Note_on_c, 0, 69, 75
1, 61729, Note_on_c, 0, 60, 61
1, 61733, Note_off_c, 0, 69, 52
1, 61794, Note_off_c, 0, 60, 52
1, 61855, Note_on_c, 0, 62, 69
1, 61980, Note_on_c, 0, 55, 60
1, 61993, Note_on_c, 0, 35, 59
1, 61995, Note_on_c, 0, 47, 57
1, 62011, Note_off_c, 0, 62, 55
1, 62078, Note_off_c, 0, 55, 49
1, 62123, Note_on_c, 0, 67, 80
1, 62159, Note_off_c, 0, 35, 61
1, 62166, Note_off_c, 0, 47, 63
1, 62203, Note_off_c, 0, 65, 50
1, 62242, Note_on_c, 0, 62, 67
1, 62309, Note_off_c, 0, 62, 55
1, 62382, Note_on_c, 0, 64, 75
1, 62485, Note_off_c, 0, 67, 35
1, 62519, Note_on_c, 0, 55, 50
1, 62520, Note_on_c, 0, 48, 55
1, 62522, Note_on_c, 0, 36, 50
1, 62634, Control_c, 0, 64, 46
1, 62643, Note_on_c, 0, 60, 55
1, 62649, Control_c, 0, 64, 63
1, 62650, Note_off_c, 0, 36, 57
1, 62650, Note_off_c, 0, 48, 61
1, 62663, Control_c, 0, 64, 72
1, 62667, Note_off_c, 0, 55, 34
1, 62678, Control_c, 0, 64, 78
1, 62693, Control_c, 0, 64, 85
1, 62708, Control_c, 0, 64, 94
1, 62722, Control_c, 0, 64, 110
1, 62737, Control_c, 0, 64, 127
1, 62776, Note_off_c, 0, 60, 56
1, 62776, Note_on_c, 0, 55, 58
1, 62841, Note_off_c, 0, 55, 55
1, 62922, Note_on_c, 0, 59, 61
1, 62969, Control_c, 0, 64, 83
1, 62983, Control_c, 0, 64, 65
1, 62998, Control_c, 0, 64, 48
1, 63013, Control_c, 0, 64, 0
1, 63068, Note_on_c, 0, 55, 55
1, 63071, Note_off_c, 0, 59, 57
1, 63072, Control_c, 0, 64, 47
1, 63074, Note_on_c, 0, 49, 60
1, 63083, Note_on_c, 0, 37, 50
1, 63087, Control_c, 0, 64, 64
1, 63101, Control_c, 0, 64, 77
1, 63104, Note_off_c, 0, 49, 64
1, 63116, Note_off_c, 0, 37, 52
1, 63116, Control_c, 0, 64, 90
1, 63131, Control_c, 0, 64, 100
1, 63134, Note_off_c, 0, 55, 56
1, 63145, Control_c, 0, 64, 109
1, 63151, Note_off_c, 0, 64, 61
1, 63160, Control_c, 0, 64, 127
1, 63251, Note_on_c, 0, 64, 55
1, 63266, Note_on_c, 0, 58, 54
1, 63426, Note_on_c, 0, 54, 42
1, 63427, Control_c, 0, 64, 101
1, 63442, Control_c, 0, 64, 84
1, 63457, Control_c, 0, 64, 70
1, 63472, Control_c, 0, 64, 57
1, 63476, Note_off_c, 0, 54, 45
1, 63486, Control_c, 0, 64, 49
1, 63501, Control_c, 0, 64, 45
1, 63516, Control_c, 0, 64, 42
1, 63531, Control_c, 0, 64, 39
1, 63545, Control_c, 0, 64, 36
1, 63560, Control_c, 0, 64, 34
1, 63575, Control_c, 0, 64, 31
1, 63600, Note_on_c, 0, 65, 55
1, 63642, Control_c, 0, 64, 0
1, 63707, Note_off_c, 0, 64, 48
1, 63717, Note_on_c, 0, 37, 22
1, 63741, Note_on_c, 0, 49, 19
1, 63769, Note_off_c, 0, 58, 41
1, 63780, Note_on_c, 0, 53, 48
1, 63836, Note_off_c, 0, 49, 53
1, 63880, Note_off_c, 0, 37, 57
1, 63950, Note_on_c, 0, 38, 47
1, 63964, Note_off_c, 0, 53, 30
1, 63979, Note_on_c, 0, 57, 38
1, 64020, Note_off_c, 0, 38, 63
1, 64028, Poly_aftertouch_c, 0, 50, 127
1, 64070, Poly_aftertouch_c, 0, 50, 0
1, 64139, Note_off_c, 0, 57, 39
1, 64171, Note_on_c, 0, 53, 41
1, 64341, Note_off_c, 0, 53, 35
1, 64352, Note_on_c, 0, 62, 50
1, 64451, Note_off_c, 0, 65, 49
1, 64519, Note_on_c, 0, 31, 54
1, 64525, Note_on_c, 0, 52, 37
1, 64543, Note_on_c, 0, 43, 28
1, 64564, Note_off_c, 0, 31, 64
1, 64577, Note_off_c, 0, 52, 43
1, 64579, Note_off_c, 0, 43, 44
1, 64659, Note_on_c, 0, 58, 53
1, 64791, Note_on_c, 0, 52, 48
1, 64829, Note_off_c, 0, 58, 22
1, 64834, Note_off_c, 0, 52, 61
1, 64847, Note_off_c, 0, 62, 60
1, 64918, Note_on_c, 0, 62, 52
1, 64925, Control_c, 0, 64, 32
1, 64926, Note_on_c, 0, 32, 50
1, 64934, Note_on_c, 0, 44, 46
1, 64940, Control_c, 0, 64, 49
1, 64955, Control_c, 0, 64, 62
1, 64970, Control_c, 0, 64, 69
1, 64976, Note_off_c, 0, 44, 63
1, 64984, Control_c, 0, 64, 73
1, 64999, Note_off_c, 0, 32, 56
1, 64999, Control_c, 0, 64, 78
1, 65014, Control_c, 0, 64, 82
1, 65029, Control_c, 0, 64, 86
1, 65044, Control_c, 0, 64, 88
1, 65058, Control_c, 0, 64, 89
1, 65064, Note_on_c, 0, 55, 53
1, 65069, Note_on_c, 0, 33, 48
1, 65073, Control_c, 0, 64, 89
1, 65088, Control_c, 0, 64, 90
1, 65103, Control_c, 0, 64, 91
1, 65105, Note_off_c, 0, 33, 47
1, 65117, Control_c, 0, 64, 92
1, 65119, Poly_aftertouch_c, 0, 45, 0
1, 65122, Note_off_c, 0, 55, 49
1, 65139, Control_c, 0, 64, 93
1, 65154, Control_c, 0, 64, 95
1, 65160, Poly_aftertouch_c, 0, 45, 0
1, 65184, Control_c, 0, 64, 97
1, 65191, Note_on_c, 0, 57, 63
1, 65244, Control_c, 0, 64, 95
1, 65259, Control_c, 0, 64, 87
1, 65274, Control_c, 0, 64, 76
1, 65287, Note_off_c, 0, 57, 52
1, 65289, Control_c, 0, 64, 65
1, 65303, Control_c, 0, 64, 55
1, 65318, Control_c, 0, 64, 47
1, 65333, Control_c, 0, 64, 42
1, 65336, Note_on_c, 0, 64, 58
1, 65348, Control_c, 0, 64, 38
1, 65363, Control_c, 0, 64, 34
1, 65378, Control_c, 0, 64, 31
1, 65422, Control_c, 0, 64, 0
1, 65448, Note_off_c, 0, 64, 55
1, 65497, Note_on_c, 0, 69, 57
1, 65528, Note_off_c, 0, 69, 66
1, 65645, Note_on_c, 0, 57, 56
1, 65755, Note_off_c, 0, 57, 60
1, 65846, Note_on_c, 0, 61, 51
1, 65893, Note_off_c, 0, 62, 55
1, 66060, Note_on_c, 0, 55, 37
1, 66122, Note_off_c, 0, 55, 51
1, 66200, Control_c, 0, 64, 30
1, 66333, Note_on_c, 0, 62, 55
1, 66349, Control_c, 0, 64, 32
1, 66391, Note_off_c, 0, 61, 62
1, 66408, Control_c, 0, 64, 32
1, 66423, Control_c, 0, 64, 33
1, 66437, Control_c, 0, 64, 33
1, 66482, Control_c, 0, 64, 35
1, 66497, Control_c, 0, 64, 40
1, 66511, Control_c, 0, 64, 47
1, 66526, Control_c, 0, 64, 55
1, 66527, Note_on_c, 0, 60, 54
1, 66541, Control_c, 0, 64, 61
1, 66555, Control_c, 0, 64, 63
1, 66570, Control_c, 0, 64, 65
1, 66585, Control_c, 0, 64, 67
1, 66600, Control_c, 0, 64, 72
1, 66615, Control_c, 0, 64, 82
1, 66630, Control_c, 0, 64, 104
1, 66652, Control_c, 0, 64, 127
1, 66698, Note_on_c, 0, 56, 56
1, 66726, Control_c, 0, 67, 98
1, 66741, Control_c, 0, 67, 82
1, 66756, Control_c, 0, 67, 79
1, 66815, Control_c, 0, 67, 81
1, 66830, Note_on_c, 0, 53, 62
1, 66830, Control_c, 0, 67, 86
1, 66845, Control_c, 0, 67, 89
1, 66860, Control_c, 0, 67, 90
1, 66875, Control_c, 0, 67, 91
1, 66890, Control_c, 0, 67, 93
1, 66905, Control_c, 0, 67, 98
1, 66920, Control_c, 0, 67, 101
1, 66964, Note_on_c, 0, 50, 60
1, 66964, Control_c, 0, 67, 104
1, 66979, Control_c, 0, 67, 112
1, 66994, Control_c, 0, 67, 127
1, 67005, Note_off_c, 0, 53, 51
1, 67018, Note_off_c, 0, 60, 34
1, 67021, Note_off_c, 0, 56, 54
1, 67098, Control_c, 0, 64, 114
1, 67110, Note_on_c, 0, 49, 49
1, 67113, Control_c, 0, 64, 100
1, 67128, Control_c, 0, 64, 90
1, 67142, Control_c, 0, 64, 78
1, 67157, Control_c, 0, 64, 68
1, 67172, Control_c, 0, 64, 60
1, 67186, Control_c, 0, 64, 53
1, 67201, Control_c, 0, 64, 50
1, 67216, Control_c, 0, 64, 47
1, 67231, Control_c, 0, 64, 43
1, 67246, Control_c, 0, 64, 37
1, 67260, Control_c, 0, 64, 34
1, 67275, Control_c, 0, 64, 32
1, 67276, Note_on_c, 0, 46, 49
1, 67290, Control_c, 0, 64, 32
1, 67291, Note_off_c, 0, 49, 46
1, 67420, Note_off_c, 0, 46, 62
1, 67465, Note_on_c, 0, 43, 47
1, 67549, Control_c, 0, 64, 32
1, 67651, Note_off_c, 0, 43, 45
1, 67653, Note_on_c, 0, 40, 36
1, 67698, Control_c, 0, 64, 33
1, 67713, Control_c, 0, 64, 33
1, 67854, Note_on_c, 0, 39, 36
1, 67875, Note_off_c, 0, 40, 36
1, 67995, Control_c, 0, 64, 34
1, 68009, Control_c, 0, 64, 35
1, 68069, Control_c, 0, 64, 35
1, 68083, Control_c, 0, 64, 36
1, 68135, Control_c, 0, 64, 36
1, 68195, Control_c, 0, 64, 34
1, 68205, Note_on_c, 0, 38, 32
1, 68209, Control_c, 0, 64, 34
1, 68218, Note_off_c, 0, 39, 55
1, 68224, Control_c, 0, 64, 33
1, 68239, Control_c, 0, 64, 33
1, 68269, Control_c, 0, 64, 30
1, 68328, Control_c, 0, 64, 32
1, 68342, Control_c, 0, 64, 33
1, 68357, Control_c, 0, 64, 36
1, 68372, Control_c, 0, 64, 42
1, 68387, Control_c, 0, 64, 52
1, 68402, Control_c, 0, 64, 60
1, 68416, Control_c, 0, 64, 64
1, 68431, Control_c, 0, 64, 65
1, 68446, Control_c, 0, 64, 67
1, 68462, Control_c, 0, 64, 69
1, 68477, Control_c, 0, 64, 74
1, 68492, Control_c, 0, 64, 80
1, 68506, Control_c, 0, 64, 88
1, 68521, Control_c, 0, 64, 97
1, 68536, Control_c, 0, 64, 109
1, 68551, Control_c, 0, 64, 127
1, 68605, Note_off_c, 0, 50, 59
1, 68753, Note_off_c, 0, 38, 42
1, 68884, Control_c, 0, 67, 124
1, 68892, Note_off_c, 0, 62, 62
1, 68899, Control_c, 0, 67, 100
1, 68913, Control_c, 0, 67, 79
1, 68928, Control_c, 0, 67, 58
1, 68943, Control_c, 0, 67, 42
1, 68958, Control_c, 0, 67, 38
1, 68973, Control_c, 0, 67, 38
1, 68988, Control_c, 0, 67, 37
1, 69003, Control_c, 0, 67, 37
1, 69032, Control_c, 0, 67, 36
1, 69047, Control_c, 0, 67, 35
1, 69062, Control_c, 0, 67, 36
1, 69077, Control_c, 0, 67, 43
1, 69091, Control_c, 0, 67, 50
1, 69106, Control_c, 0, 67, 49
1, 69121, Control_c, 0, 67, 48
1, 69136, Control_c, 0, 67, 49
1, 69151, Control_c, 0, 67, 54
1, 69165, Control_c, 0, 67, 61
1, 69180, Control_c, 0, 67, 62
1, 69210, Control_c, 0, 67, 65
1, 69225, Control_c, 0, 67, 73
1, 69239, Control_c, 0, 67, 98
1, 69255, Control_c, 0, 67, 127
1, 69477, Control_c, 0, 64, 116
1, 69492, Control_c, 0, 64, 78
1, 69507, Control_c, 0, 64, 57
1, 69512, Note_on_c, 0, 74, 57
1, 69518, Note_on_c, 0, 62, 57
1, 69521, Control_c, 0, 64, 0
1, 69529, Note_on_c, 0, 65, 46
1, 69542, Note_off_c, 0, 74, 66
1, 69546, Note_off_c, 0, 62, 64
1, 69554, Note_off_c, 0, 65, 56
1, 69680, Note_on_c, 0, 70, 56
1, 69814, Note_on_c, 0, 69, 60
1, 69841, Note_off_c, 0, 70, 33
1, 69936, Note_on_c, 0, 57, 62
1, 69942, Note_on_c, 0, 77, 64
1, 69945, Note_on_c, 0, 67, 58
1, 69967, Note_off_c, 0, 57, 65
1, 69976, Note_off_c, 0, 67, 65
1, 69985, Note_off_c, 0, 77, 60
1, 70066, Note_on_c, 0, 62, 62
1, 70074, Note_on_c, 0, 65, 60
1, 70074, Note_on_c, 0, 74, 66
1, 70093, Note_off_c, 0, 62, 66
1, 70094, Note_off_c, 0, 65, 63
1, 70114, Note_off_c, 0, 69, 62
1, 70121, Note_off_c, 0, 74, 58
1, 70203, Note_on_c, 0, 72, 65
1, 70344, Note_on_c, 0, 70, 63
1, 70351, Note_off_c, 0, 72, 60
1, 70469, Note_on_c, 0, 60, 60
1, 70469, Note_on_c, 0, 77, 63
1, 70487, Note_on_c, 0, 67, 39
1, 70519, Note_off_c, 0, 67, 55
1, 70527, Note_off_c, 0, 77, 63
1, 70531, Note_off_c, 0, 60, 53
1, 70594, Note_on_c, 0, 65, 57
1, 70598, Note_on_c, 0, 62, 53
1, 70606, Note_on_c, 0, 74, 69
1, 70614, Note_off_c, 0, 65, 63
1, 70624, Note_off_c, 0, 62, 64
1, 70635, Note_off_c, 0, 70, 61
1, 70678, Note_off_c, 0, 74, 56
1, 70732, Note_on_c, 0, 69, 54
1, 70867, Note_on_c, 0, 68, 57
1, 70875, Note_off_c, 0, 69, 61
1, 70988, Note_on_c, 0, 76, 67
1, 70994, Note_on_c, 0, 62, 53
1, 71000, Note_on_c, 0, 58, 55
1, 71030, Note_off_c, 0, 62, 63
1, 71031, Note_off_c, 0, 58, 65
1, 71046, Note_off_c, 0, 76, 62
1, 71122, Note_on_c, 0, 73, 69
1, 71131, Note_on_c, 0, 57, 64
1, 71141, Note_on_c, 0, 64, 50
1, 71154, Note_off_c, 0, 57, 64
1, 71165, Note_off_c, 0, 64, 59
1, 71176, Note_off_c, 0, 73, 56
1, 71225, Note_off_c, 0, 68, 52
1, 71276, Note_on_c, 0, 69, 66
1, 71409, Note_on_c, 0, 67, 66
1, 71413, Note_off_c, 0, 69, 51
1, 71530, Note_on_c, 0, 63, 62
1, 71539, Note_on_c, 0, 74, 73
1, 71542, Note_on_c, 0, 58, 52
1, 71574, Note_off_c, 0, 58, 64
1, 71597, Note_off_c, 0, 74, 63
1, 71606, Note_off_c, 0, 63, 57
1, 71657, Note_on_c, 0, 57, 70
1, 71661, Note_on_c, 0, 73, 74
1, 71667, Note_on_c, 0, 64, 62
1, 71681, Note_off_c, 0, 57, 67
1, 71688, Note_off_c, 0, 64, 65
1, 71708, Note_off_c, 0, 73, 60
1, 71799, Note_on_c, 0, 66, 70
1, 71803, Note_off_c, 0, 67, 56
1, 71907, Note_off_c, 0, 66, 62
1, 71933, Note_on_c, 0, 67, 66
1, 72070, Note_on_c, 0, 62, 54
1, 72073, Note_on_c, 0, 65, 52
1, 72073, Note_on_c, 0, 71, 52
1, 72112, Note_off_c, 0, 65, 61
1, 72119, Note_off_c, 0, 71, 59
1, 72123, Note_off_c, 0, 62, 57
1, 72206, Note_on_c, 0, 64, 64
1, 72212, Note_on_c, 0, 57, 53
1, 72213, Note_on_c, 0, 73, 56
1, 72235, Note_off_c, 0, 64, 66
1, 72236, Note_off_c, 0, 57, 63
1, 72274, Note_off_c, 0, 67, 52
1, 72277, Note_off_c, 0, 73, 53
1, 72344, Note_on_c, 0, 69, 42
1, 72465, Note_on_c, 0, 68, 54
1, 72467, Note_off_c, 0, 69, 59
1, 72594, Note_on_c, 0, 76, 63
1, 72596, Note_on_c, 0, 61, 45
1, 72598, Note_on_c, 0, 64, 54
1, 72642, Note_off_c, 0, 61, 62
1, 72645, Note_off_c, 0, 64, 62
1, 72652, Note_off_c, 0, 76, 58
1, 72736, Note_on_c, 0, 62, 61
1, 72745, Note_on_c, 0, 74, 62
1, 72747, Note_on_c, 0, 65, 53
1, 72760, Note_off_c, 0, 62, 64
1, 72769, Note_off_c, 0, 65, 60
1, 72788, Note_off_c, 0, 74, 60
1, 72807, Note_off_c, 0, 68, 50
1, 72863, Note_on_c, 0, 70, 66
1, 72989, Note_on_c, 0, 69, 68
1, 72999, Note_off_c, 0, 70, 58
1, 73110, Note_on_c, 0, 57, 59
1, 73117, Note_on_c, 0, 67, 62
1, 73118, Note_on_c, 0, 77, 63
1, 73148, Note_off_c, 0, 57, 62
1, 73150, Note_off_c, 0, 67, 63
1, 73165, Note_off_c, 0, 77, 60
1, 73240, Note_on_c, 0, 62, 62
1, 73244, Note_on_c, 0, 65, 60
1, 73249, Note_on_c, 0, 74, 71
1, 73269, Note_off_c, 0, 62, 65
1, 73271, Note_off_c, 0, 65, 64
1, 73313, Note_off_c, 0, 69, 56
1, 73317, Note_off_c, 0, 74, 57
1, 73388, Note_on_c, 0, 72, 74
1, 73519, Note_on_c, 0, 70, 74
1, 73528, Note_off_c, 0, 72, 61
1, 73640, Note_on_c, 0, 77, 70
1, 73647, Note_on_c, 0, 60, 55
1, 73658, Note_on_c, 0, 67, 50
1, 73691, Note_off_c, 0, 67, 62
1, 73699, Note_off_c, 0, 77, 62
1, 73704, Note_off_c, 0, 60, 51
1, 73755, Note_on_c, 0, 65, 73
1, 73763, Note_on_c, 0, 62, 63
1, 73772, Note_on_c, 0, 74, 77
1, 73778, Note_off_c, 0, 65, 70
1, 73790, Note_off_c, 0, 62, 66
1, 73802, Note_off_c, 0, 70, 62
1, 73827, Note_off_c, 0, 74, 62
1, 73894, Note_on_c, 0, 69, 64
1, 73999, Note_off_c, 0, 69, 61
1, 74014, Note_on_c, 0, 68, 66
1, 74158, Note_on_c, 0, 59, 63
1, 74160, Note_on_c, 0, 77, 69
1, 74172, Note_on_c, 0, 62, 54
1, 74207, Note_off_c, 0, 62, 64
1, 74213, Note_off_c, 0, 59, 60
1, 74228, Note_off_c, 0, 77, 62
1, 74284, Note_on_c, 0, 60, 71
1, 74286, Note_on_c, 0, 76, 76
1, 74287, Note_on_c, 0, 64, 70
1, 74309, Note_off_c, 0, 60, 68
1, 74312, Note_off_c, 0, 64, 68
1, 74313, Note_off_c, 0, 68, 61
1, 74331, Note_off_c, 0, 76, 62
1, 74420, Note_on_c, 0, 67, 72
1, 74544, Note_on_c, 0, 72, 80
1, 74640, Note_off_c, 0, 67, 58
1, 74678, Note_on_c, 0, 68, 64
1, 74681, Note_on_c, 0, 62, 59
1, 74681, Note_on_c, 0, 77, 77
1, 74718, Note_off_c, 0, 68, 58
1, 74737, Note_off_c, 0, 62, 54
1, 74774, Note_off_c, 0, 77, 59
1, 74781, Note_off_c, 0, 72, 54
1, 74799, Note_on_c, 0, 64, 66
1, 74809, Note_on_c, 0, 67, 71
1, 74810, Note_on_c, 0, 76, 77
1, 74826, Note_off_c, 0, 64, 68
1, 74833, Note_off_c, 0, 67, 69
1, 74861, Note_off_c, 0, 76, 62
1, 74948, Note_on_c, 0, 71, 73
1, 75048, Note_off_c, 0, 71, 52
1, 75069, Note_on_c, 0, 72, 78
1, 75199, Note_on_c, 0, 68, 61
1, 75202, Note_on_c, 0, 74, 77
1, 75209, Note_on_c, 0, 65, 48
1, 75247, Note_off_c, 0, 74, 57
1, 75253, Note_off_c, 0, 68, 51
1, 75283, Note_off_c, 0, 65, 56
1, 75335, Note_on_c, 0, 60, 49
1, 75337, Note_on_c, 0, 76, 76
1, 75338, Note_on_c, 0, 67, 54
1, 75362, Note_off_c, 0, 67, 59
1, 75364, Note_off_c, 0, 60, 65
1, 75383, Note_off_c, 0, 72, 59
1, 75396, Note_off_c, 0, 76, 61
1, 75463, Note_on_c, 0, 73, 78
1, 75591, Note_on_c, 0, 74, 92
1, 75632, Note_off_c, 0, 73, 60
1, 75731, Note_on_c, 0, 79, 79
1, 75744, Note_on_c, 0, 64, 62
1, 75746, Note_on_c, 0, 70, 67
1, 75773, Note_off_c, 0, 70, 66
1, 75777, Note_off_c, 0, 64, 66
1, 75789, Note_off_c, 0, 79, 63
1, 75857, Note_on_c, 0, 77, 81
1, 75863, Note_on_c, 0, 65, 67
1, 75874, Note_on_c, 0, 69, 58
1, 75889, Note_off_c, 0, 65, 68
1, 75895, Note_off_c, 0, 69, 65
1, 75909, Note_off_c, 0, 77, 62
1, 75999, Note_on_c, 0, 73, 84
1, 76022, Note_off_c, 0, 74, 30
1, 76130, Note_on_c, 0, 72, 83
1, 76167, Note_off_c, 0, 73, 57
1, 76259, Note_on_c, 0, 81, 76
1, 76274, Note_on_c, 0, 60, 59
1, 76282, Note_on_c, 0, 70, 60
1, 76315, Note_off_c, 0, 60, 61
1, 76315, Note_off_c, 0, 81, 61
1, 76321, Note_off_c, 0, 70, 59
1, 76395, Note_on_c, 0, 77, 79
1, 76397, Note_on_c, 0, 65, 59
1, 76407, Note_on_c, 0, 69, 60
1, 76425, Note_off_c, 0, 65, 64
1, 76431, Note_off_c, 0, 69, 65
1, 76447, Note_off_c, 0, 77, 62
1, 76528, Note_on_c, 0, 73, 81
1, 76561, Note_off_c, 0, 72, 62
1, 76659, Note_on_c, 0, 74, 86
1, 76690, Note_off_c, 0, 73, 58
1, 76782, Note_on_c, 0, 81, 76
1, 76785, Note_on_c, 0, 67, 64
1, 76792, Note_on_c, 0, 70, 61
1, 76828, Note_off_c, 0, 70, 60
1, 76838, Note_off_c, 0, 67, 58
1, 76840, Note_off_c, 0, 81, 62
1, 76908, Note_on_c, 0, 77, 79
1, 76916, Note_on_c, 0, 65, 63
1, 76920, Note_on_c, 0, 69, 63
1, 76944, Note_off_c, 0, 65, 66
1, 76947, Note_off_c, 0, 69, 68
1, 76965, Note_off_c, 0, 77, 63
1, 77041, Note_on_c, 0, 73, 82
1, 77072, Note_off_c, 0, 74, 63
1, 77178, Note_on_c, 0, 72, 82
1, 77217, Note_off_c, 0, 73, 60
1, 77289, Note_on_c, 0, 65, 64
1, 77299, Note_on_c, 0, 79, 77
1, 77300, Note_on_c, 0, 62, 53
1, 77330, Note_off_c, 0, 65, 59
1, 77333, Note_off_c, 0, 62, 63
1, 77361, Note_off_c, 0, 79, 63
1, 77423, Note_on_c, 0, 76, 83
1, 77424, Note_on_c, 0, 67, 69
1, 77426, Note_on_c, 0, 60, 69
1, 77449, Note_off_c, 0, 67, 68
1, 77452, Note_off_c, 0, 60, 67
1, 77477, Note_off_c, 0, 76, 63
1, 77562, Note_on_c, 0, 71, 83
1, 77671, Note_off_c, 0, 71, 60
1, 77675, Note_on_c, 0, 70, 87
1, 77675, Note_off_c, 0, 72, 23
1, 77814, Note_on_c, 0, 74, 83
1, 77823, Note_on_c, 0, 58, 68
1, 77825, Note_on_c, 0, 65, 66
1, 77859, Note_off_c, 0, 65, 60
1, 77862, Note_off_c, 0, 58, 59
1, 77895, Note_off_c, 0, 74, 61
1, 77953, Note_on_c, 0, 60, 65
1, 77953, Note_on_c, 0, 64, 62
1, 77962, Note_on_c, 0, 76, 78
1, 77972, Note_off_c, 0, 64, 65
1, 77981, Note_off_c, 0, 60, 66
1, 78045, Note_off_c, 0, 76, 55
1, 78081, Note_on_c, 0, 71, 72
1, 78211, Note_off_c, 0, 70, 29
1, 78217, Note_on_c, 0, 72, 74
1, 78225, Note_off_c, 0, 71, 52
1, 78345, Note_on_c, 0, 77, 68
1, 78347, Note_on_c, 0, 57, 51
1, 78348, Note_on_c, 0, 62, 53
1, 78391, Note_off_c, 0, 62, 61
1, 78394, Note_off_c, 0, 57, 60
1, 78412, Note_off_c, 0, 77, 61
1, 78476, Note_on_c, 0, 76, 69
1, 78483, Note_on_c, 0, 60, 44
1, 78483, Note_on_c, 0, 64, 54
1, 78506, Note_off_c, 0, 64, 61
1, 78512, Note_off_c, 0, 60, 56
1, 78545, Note_off_c, 0, 76, 64
1, 78561, Note_off_c, 0, 72, 56
1, 78607, Note_on_c, 0, 71, 66
1, 78733, Note_on_c, 0, 70, 59
1, 78741, Note_off_c, 0, 71, 60
1, 78864, Note_on_c, 0, 61, 52
1, 78866, Note_on_c, 0, 77, 66
1, 78877, Note_on_c, 0, 67, 43
1, 78908, Note_off_c, 0, 77, 60
1, 78908, Note_off_c, 0, 67, 57
1, 78931, Note_off_c, 0, 61, 57
1, 78990, Note_on_c, 0, 65, 59
1, 79002, Note_on_c, 0, 74, 72
1, 79010, Note_on_c, 0, 62, 46
1, 79020, Note_off_c, 0, 65, 65
1, 79037, Note_off_c, 0, 62, 60
1, 79054, Note_off_c, 0, 70, 57
1, 79067, Note_off_c, 0, 74, 59
1, 79130, Note_on_c, 0, 69, 64
1, 79251, Note_on_c, 0, 68, 62
1, 79266, Note_off_c, 0, 69, 60
1, 79395, Note_on_c, 0, 73, 61
1, 79410, Note_on_c, 0, 64, 51
1, 79412, Note_on_c, 0, 57, 47
1, 79447, Note_off_c, 0, 64, 63
1, 79448, Note_off_c, 0, 73, 61
1, 79452, Note_off_c, 0, 57, 61
1, 79520, Note_on_c, 0, 62, 60
1, 79523, Note_on_c, 0, 74, 72
1, 79528, Note_on_c, 0, 65, 60
1, 79546, Note_off_c, 0, 62, 64
1, 79549, Note_off_c, 0, 65, 64
1, 79568, Note_off_c, 0, 74, 53
1, 79662, Note_on_c, 0, 69, 66
1, 79683, Note_off_c, 0, 68, 37
1, 79790, Note_on_c, 0, 70, 69
1, 79803, Note_off_c, 0, 69, 58
1, 79930, Note_on_c, 0, 67, 57
1, 79932, Note_on_c, 0, 60, 52
1, 79936, Note_on_c, 0, 77, 58
1, 79969, Note_off_c, 0, 67, 61
1, 79978, Note_off_c, 0, 60, 58
1, 79982, Note_off_c, 0, 77, 61
1, 80052, Note_on_c, 0, 65, 60
1, 80059, Note_on_c, 0, 62, 56
1, 80062, Note_on_c, 0, 74, 68
1, 80081, Note_off_c, 0, 65, 65
1, 80088, Note_off_c, 0, 62, 65
1, 80143, Note_off_c, 0, 70, 48
1, 80181, Note_off_c, 0, 74, 48
1, 80202, Note_on_c, 0, 69, 61
1, 80339, Note_off_c, 0, 69, 56
1, 80345, Note_on_c, 0, 68, 54
1, 80486, Note_on_c, 0, 76, 63
1, 80503, Note_on_c, 0, 62, 42
1, 80509, Note_on_c, 0, 65, 41
1, 80527, Note_off_c, 0, 76, 57
1, 80667, Note_on_c, 0, 73, 63
1, 80674, Note_off_c, 0, 65, 40
1, 80685, Note_on_c, 0, 64, 42
1, 80701, Note_off_c, 0, 62, 33
1, 80702, Note_on_c, 0, 57, 42
1, 80774, Note_off_c, 0, 68, 37
1, 80847, Note_on_c, 0, 69, 49
1, 80951, Note_off_c, 0, 69, 56
1, 80966, Note_on_c, 0, 68, 53
1, 81104, Note_off_c, 0, 68, 50
1, 81111, Note_on_c, 0, 63, 56
1, 81114, Note_off_c, 0, 64, 56
1, 81117, Note_on_c, 0, 67, 53
1, 81237, Note_off_c, 0, 67, 53
1, 81257, Note_on_c, 0, 68, 52
1, 81274, Note_on_c, 0, 62, 50
1, 81298, Note_off_c, 0, 63, 41
1, 81382, Note_off_c, 0, 68, 58
1, 81399, Note_on_c, 0, 63, 56
1, 81409, Note_on_c, 0, 69, 49
1, 81430, Note_off_c, 0, 62, 41
1, 81535, Note_off_c, 0, 63, 51
1, 81560, Note_on_c, 0, 64, 43
1, 81629, Note_off_c, 0, 64, 62
1, 81657, Note_off_c, 0, 69, 53
1, 81676, Note_on_c, 0, 70, 50
1, 81731, Note_on_c, 0, 65, 23
1, 81785, Note_off_c, 0, 73, 49
1, 81790, Note_off_c, 0, 65, 42
1, 81803, Note_off_c, 0, 70, 57
1, 81835, Note_on_c, 0, 71, 45
1, 81844, Note_on_c, 0, 66, 34
1, 81958, Note_off_c, 0, 66, 57
1, 81974, Note_on_c, 0, 72, 44
1, 81979, Note_on_c, 0, 67, 43
1, 81997, Note_off_c, 0, 71, 33
1, 82071, Note_off_c, 0, 67, 37
1, 82112, Note_on_c, 0, 68, 46
1, 82116, Note_off_c, 0, 57, 36
1, 82256, Note_on_c, 0, 69, 41
1, 82259, Note_on_c, 0, 73, 45
1, 82282, Note_off_c, 0, 72, 36
1, 82286, Note_off_c, 0, 68, 44
1, 82311, Note_off_c, 0, 69, 47
1, 82315, Note_off_c, 0, 73, 58
1, 82380, Note_on_c, 0, 74, 65
1, 82391, Note_on_c, 0, 62, 31
1, 82407, Note_off_c, 0, 74, 68
1, 82427, Note_off_c, 0, 62, 54
1, 82533, Note_on_c, 0, 70, 52
1, 82543, Note_on_c, 0, 67, 37
1, 82643, Note_off_c, 0, 70, 56
1, 82661, Note_off_c, 0, 67, 56
1, 82674, Note_on_c, 0, 69, 47
1, 82686, Note_on_c, 0, 65, 43
1, 82809, Note_on_c, 0, 57, 50
1, 82816, Note_on_c, 0, 77, 54
1, 82841, Note_off_c, 0, 57, 65
1, 82848, Note_off_c, 0, 77, 63
1, 82872, Note_off_c, 0, 65, 53
1, 82877, Note_off_c, 0, 69, 55
1, 82951, Note_on_c, 0, 62, 49
1, 82963, Note_on_c, 0, 74, 55
1, 82978, Note_off_c, 0, 62, 57
1, 82991, Note_off_c, 0, 74, 64
1, 83077, Note_on_c, 0, 72, 50
1, 83122, Note_on_c, 0, 69, 23
1, 83217, Note_off_c, 0, 69, 43
1, 83228, Note_on_c, 0, 67, 54
1, 83236, Note_on_c, 0, 70, 52
1, 83251, Note_off_c, 0, 72, 50
1, 83365, Note_on_c, 0, 77, 56
1, 83368, Note_on_c, 0, 60, 51
1, 83396, Note_off_c, 0, 77, 66
1, 83399, Note_off_c, 0, 60, 66
1, 83409, Note_off_c, 0, 67, 55
1, 83435, Note_off_c, 0, 70, 49
1, 83493, Note_on_c, 0, 74, 70
1, 83496, Note_on_c, 0, 62, 53
1, 83520, Note_off_c, 0, 62, 59
1, 83535, Note_off_c, 0, 74, 58
1, 83637, Note_on_c, 0, 65, 51
1, 83638, Note_on_c, 0, 69, 47
1, 83747, Note_off_c, 0, 69, 48
1, 83752, Note_on_c, 0, 68, 51
1, 83752, Note_off_c, 0, 65, 38
1, 83775, Note_on_c, 0, 64, 22
1, 83818, Note_off_c, 0, 68, 0
1, 83862, Poly_aftertouch_c, 0, 68, 127
1, 83895, Note_on_c, 0, 58, 55
1, 83898, Note_on_c, 0, 76, 63
1, 83920, Note_off_c, 0, 58, 61
1, 83930, Note_off_c, 0, 76, 63
1, 83987, Note_off_c, 0, 64, 46
1, 84021, Note_on_c, 0, 57, 55
1, 84029, Note_on_c, 0, 73, 60
1, 84042, Note_off_c, 0, 57, 61
1, 84060, Note_off_c, 0, 73, 64
1, 84091, Poly_aftertouch_c, 0, 68, 0
1, 84164, Note_on_c, 0, 69, 54
1, 84178, Note_on_c, 0, 65, 47
1, 84271, Note_off_c, 0, 65, 56
1, 84283, Note_off_c, 0, 69, 46
1, 84301, Note_on_c, 0, 63, 60
1, 84306, Note_on_c, 0, 67, 53
1, 84432, Note_on_c, 0, 58, 67
1, 84434, Note_on_c, 0, 74, 60
1, 84435, Note_off_c, 0, 63, 61
1, 84462, Note_off_c, 0, 58, 64
1, 84470, Note_off_c, 0, 74, 62
1, 84554, Note_on_c, 0, 57, 58
1, 84563, Note_on_c, 0, 73, 59
1, 84589, Note_off_c, 0, 57, 64
1, 84591, Note_off_c, 0, 73, 65
1, 84635, Note_off_c, 0, 67, 42
1, 84700, Note_on_c, 0, 66, 60
1, 84703, Note_on_c, 0, 63, 48
1, 84771, Note_off_c, 0, 66, 54
1, 84806, Note_off_c, 0, 63, 48
1, 84817, Note_on_c, 0, 64, 53
1, 84834, Note_on_c, 0, 67, 57
1, 84918, Note_off_c, 0, 64, 0
1, 84952, Note_on_c, 0, 55, 58
1, 84956, Poly_aftertouch_c, 0, 64, 127
1, 84973, Note_on_c, 0, 71, 44
1, 84982, Note_off_c, 0, 55, 64
1, 85009, Note_off_c, 0, 71, 51
1, 85035, Poly_aftertouch_c, 0, 64, 0
1, 85082, Note_on_c, 0, 57, 60
1, 85088, Note_on_c, 0, 73, 67
1, 85109, Note_off_c, 0, 57, 64
1, 85111, Note_off_c, 0, 67, 58
1, 85115, Note_off_c, 0, 73, 65
1, 85245, Note_on_c, 0, 65, 43
1, 85245, Note_on_c, 0, 69, 50
1, 85257, Poly_aftertouch_c, 0, 68, 127
1, 85331, Poly_aftertouch_c, 0, 68, 0
1, 85350, Note_on_c, 0, 68, 31
1, 85380, Note_off_c, 0, 69, 38
1, 85399, Note_off_c, 0, 65, 35
1, 85404, Note_on_c, 0, 64, 32
1, 85493, Note_on_c, 0, 61, 59
1, 85502, Note_on_c, 0, 76, 53
1, 85522, Note_off_c, 0, 61, 66
1, 85536, Note_off_c, 0, 76, 61
1, 85598, Note_off_c, 0, 64, 40
1, 85622, Note_on_c, 0, 62, 61
1, 85630, Note_on_c, 0, 74, 66
1, 85651, Note_off_c, 0, 62, 64
1, 85660, Note_off_c, 0, 74, 65
1, 85670, Note_off_c, 0, 68, 26
1, 85770, Note_on_c, 0, 70, 49
1, 85786, Note_on_c, 0, 67, 35
1, 85855, Note_off_c, 0, 67, 59
1, 85863, Note_off_c, 0, 70, 55
1, 85898, Note_on_c, 0, 65, 40
1, 85905, Note_on_c, 0, 69, 54
1, 86014, Note_on_c, 0, 57, 57
1, 86033, Note_on_c, 0, 77, 54
1, 86051, Note_off_c, 0, 57, 62
1, 86065, Note_off_c, 0, 77, 63
1, 86084, Note_off_c, 0, 65, 56
1, 86095, Note_off_c, 0, 69, 60
1, 86159, Note_on_c, 0, 62, 56
1, 86164, Note_on_c, 0, 74, 73
1, 86183, Note_off_c, 0, 62, 63
1, 86209, Note_off_c, 0, 74, 60
1, 86291, Note_on_c, 0, 72, 50
1, 86303, Note_on_c, 0, 69, 41
1, 86342, Note_off_c, 0, 69, 50
1, 86394, Note_off_c, 0, 72, 58
1, 86415, Note_on_c, 0, 67, 52
1, 86429, Note_on_c, 0, 70, 52
1, 86544, Note_on_c, 0, 77, 63
1, 86545, Note_on_c, 0, 60, 52
1, 86582, Note_off_c, 0, 60, 65
1, 86582, Note_off_c, 0, 77, 56
1, 86602, Note_off_c, 0, 67, 54
1, 86618, Note_off_c, 0, 70, 55
1, 86673, Note_on_c, 0, 74, 69
1, 86676, Note_on_c, 0, 62, 52
1, 86701, Note_off_c, 0, 62, 58
1, 86703, Note_off_c, 0, 74, 63
1, 86802, Note_on_c, 0, 66, 62
1, 86813, Note_on_c, 0, 69, 37
1, 86866, Note_off_c, 0, 66, 0
1, 86903, Poly_aftertouch_c, 0, 66, 127
1, 86905, Note_off_c, 0, 69, 57
1, 86919, Poly_aftertouch_c, 0, 66, 0
1, 86943, Note_on_c, 0, 65, 47
1, 86946, Note_on_c, 0, 68, 46
1, 87065, Note_on_c, 0, 59, 59
1, 87072, Note_on_c, 0, 77, 56
1, 87112, Note_off_c, 0, 59, 62
1, 87114, Note_off_c, 0, 77, 58
1, 87130, Note_off_c, 0, 65, 44
1, 87148, Note_off_c, 0, 68, 54
1, 87179, Note_on_c, 0, 60, 67
1, 87198, Note_on_c, 0, 76, 67
1, 87207, Note_off_c, 0, 60, 67
1, 87225, Note_off_c, 0, 76, 69
1, 87321, Note_on_c, 0, 64, 67
1, 87328, Note_on_c, 0, 67, 57
1, 87437, Note_off_c, 0, 64, 62
1, 87450, Note_on_c, 0, 68, 58
1, 87462, Note_on_c, 0, 72, 66
1, 87576, Note_off_c, 0, 67, 37
1, 87591, Note_on_c, 0, 62, 66
1, 87605, Note_on_c, 0, 77, 70
1, 87627, Note_off_c, 0, 68, 56
1, 87642, Note_off_c, 0, 72, 60
1, 87657, Note_off_c, 0, 62, 58
1, 87666, Note_off_c, 0, 77, 62
1, 87731, Note_on_c, 0, 76, 69
1, 87737, Note_on_c, 0, 64, 58
1, 87759, Note_off_c, 0, 64, 63
1, 87760, Note_off_c, 0, 76, 64
1, 87866, Note_on_c, 0, 71, 53
1, 87867, Note_on_c, 0, 67, 71
1, 87949, Note_off_c, 0, 67, 57
1, 87958, Note_off_c, 0, 71, 55
1, 87984, Note_on_c, 0, 68, 63
1, 87988, Note_on_c, 0, 72, 70
1, 88105, Note_on_c, 0, 65, 68
1, 88107, Note_on_c, 0, 74, 78
1, 88146, Note_off_c, 0, 74, 59
1, 88173, Note_off_c, 0, 65, 60
1, 88229, Note_on_c, 0, 60, 67
1, 88238, Note_on_c, 0, 76, 82
1, 88240, Note_off_c, 0, 68, 60
1, 88256, Note_off_c, 0, 60, 66
1, 88259, Note_off_c, 0, 72, 57
1, 88281, Note_off_c, 0, 76, 62
1, 88377, Note_on_c, 0, 73, 74
1, 88384, Note_on_c, 0, 69, 55
1, 88504, Note_off_c, 0, 69, 54
1, 88509, Note_on_c, 0, 70, 60
1, 88510, Note_off_c, 0, 73, 58
1, 88513, Note_on_c, 0, 74, 79
1, 88644, Note_on_c, 0, 79, 79
1, 88645, Note_on_c, 0, 64, 69
1, 88698, Note_off_c, 0, 79, 64
1, 88699, Note_off_c, 0, 64, 61
1, 88713, Note_off_c, 0, 70, 57
1, 88768, Note_on_c, 0, 77, 92
1, 88769, Note_on_c, 0, 65, 73
1, 88801, Note_off_c, 0, 65, 62
1, 88818, Note_off_c, 0, 74, 63
1, 88818, Note_off_c, 0, 77, 62
1, 88906, Note_on_c, 0, 70, 63
1, 88916, Note_on_c, 0, 73, 63
1, 89025, Note_off_c, 0, 70, 59
1, 89028, Note_off_c, 0, 73, 58
1, 89039, Note_on_c, 0, 69, 57
1, 89054, Note_on_c, 0, 72, 65
1, 89189, Note_on_c, 0, 60, 56
1, 89194, Note_on_c, 0, 81, 72
1, 89216, Note_off_c, 0, 81, 70
1, 89218, Note_off_c, 0, 60, 67
1, 89270, Note_off_c, 0, 69, 56
1, 89317, Note_on_c, 0, 77, 80
1, 89332, Note_on_c, 0, 65, 51
1, 89356, Note_off_c, 0, 77, 61
1, 89357, Note_off_c, 0, 65, 58
1, 89380, Note_off_c, 0, 72, 58
1, 89458, Note_on_c, 0, 70, 61
1, 89461, Note_on_c, 0, 73, 60
1, 89493, Note_off_c, 0, 70, 61
1, 89597, Note_off_c, 0, 73, 55
1, 89600, Note_on_c, 0, 71, 29
1, 89606, Note_on_c, 0, 74, 60
1, 89719, Note_on_c, 0, 67, 53
1, 89732, Note_on_c, 0, 81, 57
1, 89762, Note_off_c, 0, 67, 63
1, 89763, Note_off_c, 0, 81, 63
1, 89806, Note_off_c, 0, 71, 42
1, 89858, Note_on_c, 0, 65, 60
1, 89860, Note_on_c, 0, 77, 63
1, 89884, Note_off_c, 0, 65, 61
1, 89892, Note_off_c, 0, 77, 61
1, 89902, Note_off_c, 0, 74, 57
1, 89991, Note_on_c, 0, 70, 55
1, 89995, Note_on_c, 0, 73, 50
1, 90030, Note_off_c, 0, 70, 61
1, 90105, Note_on_c, 0, 69, 49
1, 90107, Note_off_c, 0, 73, 50
1, 90128, Note_on_c, 0, 72, 49
1, 90251, Note_on_c, 0, 62, 50
1, 90253, Note_on_c, 0, 79, 53
1, 90285, Note_off_c, 0, 79, 64
1, 90290, Note_off_c, 0, 62, 62
1, 90374, Note_on_c, 0, 60, 67
1, 90390, Note_on_c, 0, 76, 58
1, 90392, Note_off_c, 0, 69, 31
1, 90400, Note_off_c, 0, 60, 66
1, 90416, Note_off_c, 0, 76, 66
1, 90438, Note_off_c, 0, 72, 57
1, 90511, Note_on_c, 0, 71, 60
1, 90516, Note_on_c, 0, 68, 61
1, 90564, Note_off_c, 0, 68, 49
1, 90630, Note_off_c, 0, 71, 58
1, 90641, Note_on_c, 0, 67, 48
1, 90660, Note_on_c, 0, 70, 62
1, 90769, Note_on_c, 0, 58, 66
1, 90786, Note_on_c, 0, 74, 53
1, 90829, Note_off_c, 0, 58, 57
1, 90838, Note_off_c, 0, 74, 60
1, 90910, Note_off_c, 0, 67, 38
1, 90911, Note_on_c, 0, 76, 72
1, 90912, Note_on_c, 0, 60, 62
1, 90936, Note_off_c, 0, 76, 68
1, 90941, Note_off_c, 0, 60, 66
1, 90946, Note_off_c, 0, 70, 64
1, 91053, Note_on_c, 0, 68, 55
1, 91059, Note_on_c, 0, 71, 59
1, 91151, Note_off_c, 0, 68, 56
1, 91177, Note_on_c, 0, 69, 48
1, 91182, Note_on_c, 0, 72, 59
1, 91209, Note_off_c, 0, 71, 38
1, 91315, Note_on_c, 0, 57, 58
1, 91324, Note_on_c, 0, 77, 66
1, 91367, Note_off_c, 0, 57, 61
1, 91384, Note_off_c, 0, 77, 50
1, 91422, Note_off_c, 0, 69, 37
1, 91447, Note_off_c, 0, 72, 0
1, 91452, Note_on_c, 0, 60, 60
1, 91461, Note_on_c, 0, 76, 63
1, 91478, Note_off_c, 0, 60, 66
1, 91499, Poly_aftertouch_c, 0, 72, 0
1, 91502, Note_off_c, 0, 76, 64
1, 91614, Note_on_c, 0, 71, 37
1, 91616, Note_on_c, 0, 68, 29
1, 91726, Note_off_c, 0, 68, 28
1, 91743, Note_on_c, 0, 67, 41
1, 91754, Note_on_c, 0, 70, 49
1, 91758, Note_off_c, 0, 71, 52
1, 91870, Note_on_c, 0, 77, 53
1, 91872, Note_on_c, 0, 61, 43
1, 91914, Note_off_c, 0, 61, 61
1, 91917, Note_off_c, 0, 77, 55
1, 91936, Note_off_c, 0, 70, 50
1, 92006, Note_on_c, 0, 62, 50
1, 92009, Note_off_c, 0, 67, 31
1, 92011, Note_on_c, 0, 74, 59
1, 92032, Note_off_c, 0, 62, 61
1, 92044, Note_off_c, 0, 74, 64
1, 92138, Note_on_c, 0, 66, 58
1, 92158, Note_on_c, 0, 70, 46
1, 92215, Note_off_c, 0, 66, 41
1, 92242, Note_off_c, 0, 70, 53
1, 92273, Note_on_c, 0, 65, 41
1, 92282, Note_on_c, 0, 69, 51
1, 92400, Note_on_c, 0, 53, 62
1, 92406, Note_on_c, 0, 76, 65
1, 92434, Note_off_c, 0, 53, 64
1, 92459, Note_off_c, 0, 69, 57
1, 92467, Note_off_c, 0, 76, 62
1, 92483, Note_off_c, 0, 65, 50
1, 92538, Note_on_c, 0, 74, 69
1, 92554, Note_on_c, 0, 55, 27
1, 92571, Note_off_c, 0, 74, 62
1, 92603, Note_off_c, 0, 55, 28
1, 92675, Note_on_c, 0, 72, 57
1, 92681, Note_on_c, 0, 69, 46
1, 92776, Note_off_c, 0, 69, 60
1, 92805, Note_off_c, 0, 72, 54
1, 92823, Note_on_c, 0, 67, 40
1, 92825, Note_on_c, 0, 70, 51
1, 92953, Note_on_c, 0, 76, 54
1, 92957, Note_on_c, 0, 55, 54
1, 92987, Note_off_c, 0, 55, 64
1, 93028, Note_off_c, 0, 76, 63
1, 93049, Note_off_c, 0, 67, 41
1, 93065, Note_off_c, 0, 70, 49
1, 93098, Note_on_c, 0, 73, 64
1, 93112, Note_on_c, 0, 57, 44
1, 93127, Note_off_c, 0, 73, 65
1, 93140, Note_off_c, 0, 57, 53
1, 93259, Note_on_c, 0, 70, 45
1, 93300, Poly_aftertouch_c, 0, 66, 127
1, 93399, Poly_aftertouch_c, 0, 66, 0
1, 93406, Note_off_c, 0, 70, 37
1, 93421, Note_on_c, 0, 67, 39
1, 93428, Note_on_c, 0, 69, 50
1, 93634, Note_on_c, 0, 74, 50
1, 93634, Note_on_c, 0, 57, 45
1, 93669, Note_off_c, 0, 74, 63
1, 93674, Note_off_c, 0, 57, 60
1, 93918, Note_on_c, 0, 74, 56
1, 93928, Note_on_c, 0, 62, 48
1, 93963, Note_off_c, 0, 69, 60
1, 94071, Note_off_c, 0, 67, 38
1, 94098, Control_c, 0, 64, 34
1, 94113, Control_c, 0, 64, 36
1, 94128, Control_c, 0, 64, 36
1, 94142, Control_c, 0, 64, 37
1, 94157, Control_c, 0, 64, 38
1, 94202, Control_c, 0, 64, 37
1, 94216, Control_c, 0, 64, 36
1, 94276, Control_c, 0, 64, 35
1, 94290, Control_c, 0, 64, 34
1, 94305, Control_c, 0, 64, 34
1, 94321, Note_on_c, 0, 68, 39
1, 94333, Note_on_c, 0, 65, 28
1, 94372, Control_c, 0, 64, 33
1, 94446, Control_c, 0, 64, 33
1, 94507, Note_off_c, 0, 68, 56
1, 94514, Note_on_c, 0, 64, 44
1, 94522, Note_off_c, 0, 65, 40
1, 94525, Note_on_c, 0, 69, 45
1, 94638, Control_c, 0, 64, 32
1, 94665, Note_on_c, 0, 70, 61
1, 94667, Note_off_c, 0, 64, 63
1, 94668, Note_on_c, 0, 65, 41
1, 94677, Note_off_c, 0, 69, 44
1, 94683, Control_c, 0, 64, 32
1, 94756, Control_c, 0, 64, 30
1, 94785, Note_off_c, 0, 70, 57
1, 94786, Control_c, 0, 64, 0
1, 94796, Note_off_c, 0, 65, 56
1, 94806, Note_on_c, 0, 66, 49
1, 94819, Note_on_c, 0, 71, 53
1, 94954, Note_off_c, 0, 71, 55
1, 94975, Note_on_c, 0, 72, 47
1, 94978, Note_on_c, 0, 67, 47
1, 95014, Note_off_c, 0, 66, 58
1, 95179, Note_on_c, 0, 68, 36
1, 95212, Note_off_c, 0, 67, 42
1, 95405, Note_off_c, 0, 72, 36
1, 95418, Note_on_c, 0, 73, 35
1, 95419, Note_on_c, 0, 69, 38
1, 95421, Note_off_c, 0, 74, 43
1, 95462, Note_off_c, 0, 68, 54
1, 95595, Control_c, 0, 64, 29
1, 95655, Control_c, 0, 64, 31
1, 95670, Control_c, 0, 64, 33
1, 95685, Control_c, 0, 64, 34
1, 95700, Control_c, 0, 64, 35
1, 95715, Control_c, 0, 64, 36
1, 95730, Control_c, 0, 64, 37
1, 95744, Control_c, 0, 64, 39
1, 95759, Control_c, 0, 64, 41
1, 95774, Control_c, 0, 64, 42
1, 95788, Control_c, 0, 64, 43
1, 95818, Control_c, 0, 64, 43
1, 95833, Control_c, 0, 64, 44
1, 95929, Control_c, 0, 64, 44
1, 95968, Note_off_c, 0, 73, 59
1, 96006, Note_on_c, 0, 74, 41
1, 96077, Control_c, 0, 64, 45
1, 96121, Control_c, 0, 64, 45
1, 96136, Control_c, 0, 64, 46
1, 96151, Control_c, 0, 64, 48
1, 96166, Control_c, 0, 64, 49
1, 96181, Control_c, 0, 64, 50
1, 96210, Control_c, 0, 64, 51
1, 96225, Control_c, 0, 64, 53
1, 96240, Control_c, 0, 64, 55
1, 96255, Control_c, 0, 64, 56
1, 96329, Control_c, 0, 64, 56
1, 96403, Control_c, 0, 64, 57
1, 96418, Control_c, 0, 64, 59
1, 96433, Control_c, 0, 64, 59
1, 96478, Control_c, 0, 64, 60
1, 96493, Control_c, 0, 64, 60
1, 96508, Control_c, 0, 64, 62
1, 96522, Control_c, 0, 64, 64
1, 96537, Control_c, 0, 64, 64
1, 96552, Control_c, 0, 64, 65
1, 96567, Control_c, 0, 64, 65
1, 96582, Control_c, 0, 64, 66
1, 96604, Control_c, 0, 64, 68
1, 96618, Control_c, 0, 64, 70
1, 96633, Control_c, 0, 64, 72
1, 96648, Control_c, 0, 64, 73
1, 96663, Control_c, 0, 64, 75
1, 96678, Control_c, 0, 64, 77
1, 96692, Control_c, 0, 64, 80
1, 96707, Control_c, 0, 64, 83
1, 96722, Control_c, 0, 64, 87
1, 96737, Control_c, 0, 64, 91
1, 96752, Control_c, 0, 64, 96
1, 96767, Control_c, 0, 64, 101
1, 96782, Control_c, 0, 64, 108
1, 96797, Control_c, 0, 64, 116
1, 96812, Control_c, 0, 64, 127
1, 96862, Note_off_c, 0, 74, 42
1, 96935, Note_off_c, 0, 62, 53
1, 96971, Note_off_c, 0, 69, 60
1, 97271, Control_c, 0, 67, 120
1, 97286, Control_c, 0, 67, 83
1, 97301, Control_c, 0, 67, 49
1, 97315, Control_c, 0, 67, 0
1, 97841, Control_c, 0, 64, 110
1, 97856, Control_c, 0, 64, 91
1, 97871, Control_c, 0, 64, 79
1, 97885, Control_c, 0, 64, 68
1, 97900, Control_c, 0, 64, 57
1, 97915, Control_c, 0, 64, 41
1, 97930, Control_c, 0, 64, 0
1, 98034, Note_on_c, 0, 62, 77
1, 98035, Note_on_c, 0, 38, 74
1, 98035, Note_on_c, 0, 53, 78
1, 98037, Note_on_c, 0, 57, 70
1, 98037, Note_on_c, 0, 50, 73
1, 98058, Note_off_c, 0, 38, 66
1, 98058, Note_off_c, 0, 53, 67
1, 98060, Note_off_c, 0, 57, 67
1, 98064, Note_off_c, 0, 62, 64
1, 98066, Note_off_c, 0, 50, 66
1, 98400, Note_on_c, 0, 62, 57
1, 98413, Note_on_c, 0, 58, 51
1, 98415, Note_on_c, 0, 27, 54
1, 98417, Note_on_c, 0, 55, 51
1, 98430, Note_on_c, 0, 39, 43
1, 98461, Note_off_c, 0, 27, 55
1, 98468, Note_off_c, 0, 39, 53
1, 98559, Note_off_c, 0, 55, 57
1, 98570, Note_off_c, 0, 62, 61
1, 98580, Note_off_c, 0, 58, 64
1, 98592, Note_on_c, 0, 63, 60
1, 98879, Note_on_c, 0, 61, 56
1, 98880, Note_on_c, 0, 57, 38
1, 98889, Note_on_c, 0, 33, 55
1, 98892, Note_on_c, 0, 52, 38
1, 98896, Note_on_c, 0, 45, 29
1, 98915, Note_off_c, 0, 63, 61
1, 99028, Control_c, 0, 64, 37
1, 99043, Control_c, 0, 64, 43
1, 99058, Control_c, 0, 64, 45
1, 99087, Control_c, 0, 64, 48
1, 99102, Control_c, 0, 64, 56
1, 99117, Control_c, 0, 64, 63
1, 99132, Control_c, 0, 64, 65
1, 99146, Control_c, 0, 64, 66
1, 99161, Control_c, 0, 64, 68
1, 99176, Control_c, 0, 64, 71
1, 99191, Control_c, 0, 64, 77
1, 99206, Control_c, 0, 64, 92
1, 99220, Control_c, 0, 64, 127
1, 99244, Note_off_c, 0, 33, 62
1, 99271, Note_off_c, 0, 45, 55
1, 99369, Note_off_c, 0, 52, 50
1, 99722, Note_on_c, 0, 68, 70
1, 99815, Note_off_c, 0, 57, 40
1, 99821, Note_off_c, 0, 61, 62
1, 99825, Note_on_c, 0, 70, 82
1, 99826, Note_off_c, 0, 68, 63
1, 99938, Note_on_c, 0, 69, 93
1, 99953, Note_off_c, 0, 70, 59
1, 99954, Control_c, 0, 64, 79
1, 99968, Control_c, 0, 64, 39
1, 99983, Control_c, 0, 64, 0
1, 100206, Control_c, 0, 67, 41
1, 100221, Control_c, 0, 67, 71
1, 100231, Note_on_c, 0, 64, 64
1, 100233, Note_on_c, 0, 68, 65
1, 100235, Control_c, 0, 67, 82
1, 100243, Note_on_c, 0, 60, 51
1, 100250, Control_c, 0, 67, 84
1, 100260, Note_off_c, 0, 64, 66
1, 100261, Note_off_c, 0, 68, 65
1, 100265, Control_c, 0, 67, 89
1, 100271, Note_off_c, 0, 60, 65
1, 100279, Control_c, 0, 67, 110
1, 100294, Control_c, 0, 67, 127
1, 100404, Note_on_c, 0, 62, 62
1, 100453, Note_off_c, 0, 62, 60
1, 100688, Note_on_c, 0, 63, 37
1, 100689, Note_on_c, 0, 61, 46
1, 100695, Note_on_c, 0, 67, 43
1, 100761, Control_c, 0, 64, 32
1, 100776, Control_c, 0, 64, 49
1, 100791, Control_c, 0, 64, 63
1, 100806, Control_c, 0, 64, 68
1, 100821, Control_c, 0, 64, 70
1, 100836, Control_c, 0, 64, 72
1, 100850, Control_c, 0, 64, 75
1, 100865, Control_c, 0, 64, 81
1, 100880, Control_c, 0, 64, 89
1, 100895, Control_c, 0, 64, 100
1, 100909, Control_c, 0, 64, 112
1, 100924, Control_c, 0, 64, 127
1, 101005, Note_off_c, 0, 69, 56
1, 101009, Note_off_c, 0, 63, 55
1, 101009, Note_off_c, 0, 67, 49
1, 101258, Note_off_c, 0, 61, 61
1, 101318, Control_c, 0, 67, 122
1, 101332, Control_c, 0, 67, 104
1, 101347, Control_c, 0, 67, 74
1, 101362, Control_c, 0, 67, 42
1, 101377, Control_c, 0, 67, 0
1, 101629, Control_c, 0, 64, 91
1, 101644, Control_c, 0, 64, 66
1, 101659, Control_c, 0, 64, 0
1, 101696, Note_on_c, 0, 57, 70
1, 101697, Note_on_c, 0, 62, 71
1, 101700, Note_on_c, 0, 38, 75
1, 101700, Note_on_c, 0, 53, 68
1, 101701, Note_on_c, 0, 50, 70
1, 101723, Note_off_c, 0, 57, 66
1, 101724, Note_off_c, 0, 38, 66
1, 101726, Note_off_c, 0, 53, 65
1, 101727, Note_off_c, 0, 62, 65
1, 101730, Note_off_c, 0, 50, 66
1, 101948, Note_on_c, 0, 58, 71
1, 101950, Note_on_c, 0, 62, 67
1, 101951, Note_on_c, 0, 52, 65
1, 101954, Note_on_c, 0, 31, 65
1, 101961, Note_on_c, 0, 43, 64
1, 101983, Note_off_c, 0, 31, 64
1, 101992, Note_off_c, 0, 52, 59
1, 101993, Note_off_c, 0, 43, 64
1, 102016, Note_off_c, 0, 58, 57
1, 102035, Note_on_c, 0, 64, 80
1, 102059, Note_off_c, 0, 62, 63
1, 102118, Note_on_c, 0, 62, 79
1, 102121, Note_on_c, 0, 33, 78
1, 102121, Note_on_c, 0, 45, 80
1, 102125, Note_on_c, 0, 53, 80
1, 102133, Note_on_c, 0, 57, 66
1, 102134, Note_off_c, 0, 64, 65
1, 102144, Note_off_c, 0, 45, 66
1, 102146, Note_off_c, 0, 33, 64
1, 102147, Note_off_c, 0, 53, 69
1, 102152, Note_off_c, 0, 57, 64
1, 102167, Note_off_c, 0, 62, 63
1, 102372, Note_on_c, 0, 60, 73
1, 102389, Note_on_c, 0, 36, 66
1, 102389, Note_on_c, 0, 57, 47
1, 102397, Note_on_c, 0, 53, 43
1, 102412, Note_off_c, 0, 60, 64
1, 102416, Note_off_c, 0, 57, 53
1, 102420, Note_off_c, 0, 36, 63
1, 102421, Note_on_c, 0, 48, 21
1, 102434, Note_off_c, 0, 53, 32
1, 102471, Note_off_c, 0, 48, 27
1, 102694, Note_on_c, 0, 62, 55
1, 102705, Note_on_c, 0, 59, 51
1, 102706, Note_on_c, 0, 53, 38
1, 102710, Note_on_c, 0, 31, 45
1, 102716, Note_on_c, 0, 43, 35
1, 102727, Control_c, 0, 64, 38
1, 102742, Control_c, 0, 64, 50
1, 102756, Control_c, 0, 64, 56
1, 102771, Control_c, 0, 64, 58
1, 102786, Control_c, 0, 64, 62
1, 102802, Control_c, 0, 64, 66
1, 102817, Control_c, 0, 64, 72
1, 102832, Control_c, 0, 64, 81
1, 102847, Control_c, 0, 64, 92
1, 102860, Note_off_c, 0, 53, 58
1, 102861, Control_c, 0, 64, 107
1, 102866, Note_off_c, 0, 43, 35
1, 102876, Control_c, 0, 64, 127
1, 102884, Note_off_c, 0, 31, 35
1, 102888, Note_off_c, 0, 59, 63
1, 102921, Control_c, 0, 67, 39
1, 102935, Control_c, 0, 67, 72
1, 102950, Control_c, 0, 67, 87
1, 102979, Control_c, 0, 67, 88
1, 102994, Control_c, 0, 67, 88
1, 103009, Control_c, 0, 67, 89
1, 103024, Control_c, 0, 67, 89
1, 103039, Control_c, 0, 67, 89
1, 103054, Control_c, 0, 67, 88
1, 103068, Control_c, 0, 67, 89
1, 103083, Control_c, 0, 67, 89
1, 103098, Control_c, 0, 67, 91
1, 103113, Control_c, 0, 67, 91
1, 103128, Control_c, 0, 64, 92
1, 103143, Control_c, 0, 64, 69
1, 103143, Control_c, 0, 67, 90
1, 103158, Control_c, 0, 64, 54
1, 103158, Control_c, 0, 67, 89
1, 103158, Note_on_c, 0, 60, 65
1, 103167, Note_on_c, 0, 52, 65
1, 103171, Note_on_c, 0, 36, 54
1, 103173, Control_c, 0, 64, 50
1, 103173, Control_c, 0, 67, 87
1, 103179, Note_on_c, 0, 43, 57
1, 103187, Control_c, 0, 64, 60
1, 103187, Control_c, 0, 67, 83
1, 103202, Control_c, 0, 64, 74
1, 103202, Control_c, 0, 67, 79
1, 103203, Note_off_c, 0, 36, 63
1, 103207, Note_off_c, 0, 52, 65
1, 103216, Note_off_c, 0, 43, 63
1, 103217, Control_c, 0, 64, 111
1, 103217, Control_c, 0, 67, 77
1, 103232, Control_c, 0, 64, 127
1, 103232, Control_c, 0, 67, 76
1, 103240, Note_off_c, 0, 62, 61
1, 103244, Note_off_c, 0, 60, 64
1, 103247, Control_c, 0, 67, 73
1, 103261, Control_c, 0, 67, 68
1, 103276, Control_c, 0, 67, 62
1, 103291, Control_c, 0, 67, 58
1, 103305, Control_c, 0, 67, 58
1, 103343, Control_c, 0, 67, 54
1, 103358, Control_c, 0, 67, 42
1, 103373, Control_c, 0, 67, 0
1, 103405, Note_on_c, 0, 63, 86
1, 103409, Note_on_c, 0, 55, 59
1, 103410, Note_on_c, 0, 59, 66
1, 103465, Note_off_c, 0, 55, 58
1, 103501, Note_off_c, 0, 59, 59
1, 103513, Note_on_c, 0, 65, 88
1, 103545, Note_off_c, 0, 63, 61
1, 103682, Note_on_c, 0, 58, 64
1, 103688, Note_on_c, 0, 64, 79
1, 103694, Note_on_c, 0, 54, 55
1, 103695, Note_off_c, 0, 65, 57
1, 103773, Control_c, 0, 64, 108
1, 103788, Control_c, 0, 64, 89
1, 103802, Control_c, 0, 64, 76
1, 103817, Control_c, 0, 64, 65
1, 103832, Control_c, 0, 64, 55
1, 103847, Control_c, 0, 64, 48
1, 103862, Control_c, 0, 64, 44
1, 103876, Control_c, 0, 64, 41
1, 103891, Control_c, 0, 64, 36
1, 103906, Control_c, 0, 64, 31
1, 103921, Control_c, 0, 64, 0
1, 104032, Note_on_c, 0, 71, 55
1, 104180, Note_on_c, 0, 73, 64
1, 104189, Note_off_c, 0, 71, 53
1, 104358, Control_c, 0, 64, 30
1, 104374, Note_on_c, 0, 72, 62
1, 104379, Note_off_c, 0, 73, 54
1, 104404, Control_c, 0, 64, 34
1, 104419, Control_c, 0, 64, 42
1, 104433, Control_c, 0, 64, 53
1, 104448, Control_c, 0, 64, 61
1, 104463, Control_c, 0, 64, 65
1, 104478, Control_c, 0, 64, 70
1, 104493, Control_c, 0, 64, 80
1, 104507, Control_c, 0, 64, 127
1, 104508, Note_off_c, 0, 58, 62
1, 104551, Note_off_c, 0, 54, 63
1, 104568, Note_off_c, 0, 72, 62
1, 104599, Note_off_c, 0, 64, 64
1, 104891, Note_on_c, 0, 65, 80
1, 104898, Note_on_c, 0, 57, 76
1, 104901, Note_on_c, 0, 41, 76
1, 104903, Note_on_c, 0, 53, 76
1, 104904, Note_on_c, 0, 60, 66
1, 104914, Control_c, 0, 64, 100
1, 104924, Note_off_c, 0, 41, 68
1, 104924, Note_off_c, 0, 57, 66
1, 104927, Note_off_c, 0, 53, 67
1, 104929, Control_c, 0, 64, 64
1, 104931, Note_off_c, 0, 60, 67
1, 104944, Note_off_c, 0, 65, 63
1, 104944, Control_c, 0, 64, 0
1, 105125, Note_on_c, 0, 56, 80
1, 105126, Note_on_c, 0, 64, 76
1, 105128, Note_on_c, 0, 50, 89
1, 105128, Note_on_c, 0, 60, 77
1, 105130, Note_on_c, 0, 38, 78
1, 105157, Note_off_c, 0, 56, 65
1, 105162, Note_off_c, 0, 38, 68
1, 105162, Note_off_c, 0, 50, 66
1, 105182, Note_off_c, 0, 60, 65
1, 105214, Note_off_c, 0, 64, 60
1, 105223, Note_on_c, 0, 67, 82
1, 105304, Note_on_c, 0, 41, 90
1, 105304, Note_on_c, 0, 65, 87
1, 105305, Note_on_c, 0, 53, 87
1, 105305, Note_on_c, 0, 57, 90
1, 105310, Note_on_c, 0, 60, 82
1, 105325, Note_off_c, 0, 53, 71
1, 105327, Note_off_c, 0, 57, 73
1, 105328, Note_off_c, 0, 41, 71
1, 105331, Note_off_c, 0, 60, 70
1, 105331, Note_off_c, 0, 67, 65
1, 105354, Note_off_c, 0, 65, 62
1, 105606, Note_on_c, 0, 64, 72
1, 105619, Note_on_c, 0, 55, 56
1, 105619, Note_on_c, 0, 60, 66
1, 105619, Control_c, 0, 64, 43
1, 105627, Note_on_c, 0, 36, 61
1, 105634, Control_c, 0, 64, 57
1, 105635, Note_on_c, 0, 48, 68
1, 105649, Control_c, 0, 64, 63
1, 105663, Control_c, 0, 64, 66
1, 105678, Control_c, 0, 64, 72
1, 105686, Note_off_c, 0, 48, 62
1, 105690, Note_off_c, 0, 36, 63
1, 105693, Control_c, 0, 64, 85
1, 105701, Note_off_c, 0, 55, 62
1, 105707, Control_c, 0, 64, 110
1, 105722, Control_c, 0, 64, 127
1, 105778, Note_off_c, 0, 64, 64
1, 105779, Note_off_c, 0, 60, 60
1, 105841, Control_c, 0, 67, 42
1, 105856, Control_c, 0, 67, 40
1, 105871, Control_c, 0, 67, 41
1, 105885, Control_c, 0, 67, 43
1, 105900, Control_c, 0, 67, 45
1, 105915, Control_c, 0, 67, 44
1, 105930, Control_c, 0, 67, 41
1, 105945, Control_c, 0, 67, 40
1, 105989, Control_c, 0, 67, 37
1, 106005, Control_c, 0, 67, 34
1, 106020, Control_c, 0, 67, 0
1, 106034, Control_c, 0, 67, 35
1, 106049, Control_c, 0, 67, 38
1, 106064, Control_c, 0, 67, 37
1, 106079, Control_c, 0, 64, 85
1, 106079, Control_c, 0, 67, 36
1, 106085, Note_on_c, 0, 60, 70
1, 106088, Note_on_c, 0, 62, 76
1, 106091, Note_on_c, 0, 53, 62
1, 106094, Control_c, 0, 64, 63
1, 106094, Control_c, 0, 67, 35
1, 106099, Note_on_c, 0, 33, 56
1, 106106, Note_on_c, 0, 45, 55
1, 106109, Control_c, 0, 64, 43
1, 106123, Control_c, 0, 64, 40
1, 106123, Control_c, 0, 67, 35
1, 106138, Control_c, 0, 64, 52
1, 106138, Control_c, 0, 67, 0
1, 106153, Control_c, 0, 64, 67
1, 106166, Note_off_c, 0, 33, 60
1, 106168, Control_c, 0, 64, 90
1, 106172, Note_off_c, 0, 45, 60
1, 106183, Control_c, 0, 64, 127
1, 106225, Note_off_c, 0, 60, 60
1, 106252, Note_off_c, 0, 53, 58
1, 106259, Note_off_c, 0, 62, 62
1, 106323, Control_c, 0, 64, 107
1, 106338, Control_c, 0, 64, 73
1, 106353, Control_c, 0, 64, 49
1, 106353, Note_on_c, 0, 62, 82
1, 106356, Note_on_c, 0, 58, 74
1, 106356, Note_on_c, 0, 34, 69
1, 106358, Note_on_c, 0, 53, 74
1, 106364, Note_on_c, 0, 46, 66
1, 106368, Control_c, 0, 64, 44
1, 106383, Control_c, 0, 64, 57
1, 106392, Note_off_c, 0, 34, 67
1, 106393, Note_off_c, 0, 53, 63
1, 106397, Control_c, 0, 64, 75
1, 106406, Note_off_c, 0, 58, 62
1, 106408, Note_off_c, 0, 46, 57
1, 106412, Control_c, 0, 64, 127
1, 106434, Note_off_c, 0, 62, 64
1, 106616, Note_on_c, 0, 69, 89
1, 106625, Note_on_c, 0, 53, 56
1, 106631, Note_on_c, 0, 57, 58
1, 106639, Note_on_c, 0, 62, 67
1, 106678, Note_off_c, 0, 57, 57
1, 106708, Note_off_c, 0, 53, 57
1, 106735, Note_on_c, 0, 72, 86
1, 106743, Note_off_c, 0, 62, 50
1, 106756, Note_off_c, 0, 69, 65
1, 106926, Note_on_c, 0, 70, 85
1, 106928, Note_on_c, 0, 51, 58
1, 106932, Control_c, 0, 64, 123
1, 106932, Note_on_c, 0, 55, 49
1, 106942, Note_on_c, 0, 61, 63
1, 106946, Control_c, 0, 64, 83
1, 106961, Control_c, 0, 64, 61
1, 106976, Control_c, 0, 64, 38
1, 106991, Control_c, 0, 64, 0
1, 107022, Note_off_c, 0, 72, 60
1, 107035, Control_c, 0, 64, 40
1, 107050, Control_c, 0, 64, 59
1, 107065, Control_c, 0, 64, 71
1, 107087, Control_c, 0, 64, 87
1, 107087, Control_c, 0, 67, 59
1, 107102, Control_c, 0, 64, 116
1, 107102, Control_c, 0, 67, 81
1, 107117, Control_c, 0, 64, 127
1, 107117, Control_c, 0, 67, 82
1, 107131, Control_c, 0, 67, 84
1, 107146, Control_c, 0, 67, 88
1, 107161, Control_c, 0, 67, 101
1, 107173, Note_off_c, 0, 61, 49
1, 107176, Control_c, 0, 67, 125
1, 107182, Note_off_c, 0, 70, 51
1, 107188, Note_off_c, 0, 51, 59
1, 107191, Control_c, 0, 67, 127
1, 107198, Note_off_c, 0, 55, 48
1, 107345, Note_on_c, 0, 69, 73
1, 107349, Note_on_c, 0, 60, 57
1, 107364, Note_on_c, 0, 54, 47
1, 107368, Note_on_c, 0, 50, 42
1, 107383, Control_c, 0, 64, 108
1, 107398, Control_c, 0, 64, 82
1, 107413, Control_c, 0, 64, 63
1, 107427, Control_c, 0, 64, 37
1, 107442, Control_c, 0, 64, 0
1, 107501, Control_c, 0, 64, 29
1, 107516, Control_c, 0, 64, 51
1, 107531, Control_c, 0, 64, 65
1, 107546, Control_c, 0, 64, 75
1, 107561, Control_c, 0, 64, 82
1, 107576, Control_c, 0, 64, 89
1, 107591, Control_c, 0, 64, 97
1, 107596, Note_off_c, 0, 54, 63
1, 107606, Control_c, 0, 64, 110
1, 107621, Note_off_c, 0, 50, 62
1, 107621, Control_c, 0, 64, 127
1, 107625, Note_off_c, 0, 60, 61
1, 107948, Note_on_c, 0, 67, 58
1, 107968, Note_on_c, 0, 58, 56
1, 107969, Note_on_c, 0, 48, 58
1, 107969, Control_c, 0, 64, 82
1, 107973, Note_on_c, 0, 51, 44
1, 107984, Control_c, 0, 64, 58
1, 107999, Control_c, 0, 64, 37
1, 108010, Note_off_c, 0, 69, 56
1, 108014, Control_c, 0, 64, 33
1, 108029, Control_c, 0, 64, 38
1, 108044, Control_c, 0, 64, 52
1, 108058, Control_c, 0, 64, 65
1, 108073, Control_c, 0, 64, 81
1, 108088, Control_c, 0, 64, 103
1, 108102, Control_c, 0, 64, 127
1, 108104, Note_off_c, 0, 51, 58
1, 108107, Note_off_c, 0, 48, 0
1, 108112, Note_off_c, 0, 67, 61
1, 108184, Note_off_c, 0, 58, 38
1, 108206, Poly_aftertouch_c, 0, 48, 0
1, 108281, Control_c, 0, 64, 107
1, 108295, Control_c, 0, 64, 73
1, 108310, Control_c, 0, 64, 49
1, 108312, Note_on_c, 0, 67, 58
1, 108325, Control_c, 0, 64, 0
1, 108327, Note_on_c, 0, 58, 51
1, 108333, Note_on_c, 0, 43, 47
1, 108341, Note_on_c, 0, 50, 44
1, 108369, Control_c, 0, 64, 38
1, 108384, Control_c, 0, 64, 58
1, 108390, Note_off_c, 0, 58, 0
1, 108400, Control_c, 0, 64, 71
1, 108415, Note_off_c, 0, 50, 64
1, 108415, Control_c, 0, 64, 90
1, 108428, Poly_aftertouch_c, 0, 58, 127
1, 108430, Control_c, 0, 64, 127
1, 108431, Note_off_c, 0, 43, 63
1, 108526, Poly_aftertouch_c, 0, 58, 0
1, 108580, Note_on_c, 0, 61, 69
1, 108655, Note_off_c, 0, 61, 55
1, 108694, Note_on_c, 0, 63, 66
1, 108725, Note_off_c, 0, 63, 67
1, 108819, Note_on_c, 0, 62, 58
1, 108822, Control_c, 0, 64, 103
1, 108837, Control_c, 0, 64, 79
1, 108851, Control_c, 0, 64, 62
1, 108866, Control_c, 0, 64, 40
1, 108881, Control_c, 0, 64, 0
1, 109421, Note_on_c, 0, 69, 59
1, 109436, Note_on_c, 0, 61, 51
1, 109439, Note_off_c, 0, 67, 61
1, 109445, Note_off_c, 0, 62, 60
1, 109553, Note_off_c, 0, 61, 57
1, 109565, Note_on_c, 0, 58, 53
1, 109567, Note_on_c, 0, 70, 49
1, 109567, Note_on_c, 0, 62, 52
1, 109568, Note_on_c, 0, 68, 42
1, 109598, Note_off_c, 0, 69, 43
1, 109608, Note_off_c, 0, 58, 60
1, 109650, Note_off_c, 0, 68, 41
1, 109652, Note_off_c, 0, 70, 58
1, 109677, Note_on_c, 0, 72, 59
1, 109688, Note_off_c, 0, 62, 33
1, 109691, Note_on_c, 0, 63, 54
1, 109878, Note_off_c, 0, 72, 56
1, 109880, Note_on_c, 0, 73, 48
1, 109901, Note_on_c, 0, 57, 39
1, 109901, Note_on_c, 0, 64, 42
1, 109904, Note_on_c, 0, 69, 28
1, 109939, Note_off_c, 0, 63, 43
1, 110045, Control_c, 0, 64, 32
1, 110055, Note_off_c, 0, 69, 37
1, 110068, Control_c, 0, 64, 58
1, 110083, Control_c, 0, 64, 73
1, 110086, Note_off_c, 0, 57, 65
1, 110089, Note_off_c, 0, 64, 64
1, 110097, Control_c, 0, 64, 87
1, 110112, Control_c, 0, 64, 103
1, 110127, Control_c, 0, 64, 127
1, 110135, Note_off_c, 0, 73, 65
1, 110377, Note_on_c, 0, 65, 41
1, 110381, Note_on_c, 0, 77, 36
1, 110411, Note_off_c, 0, 65, 51
1, 110413, Note_off_c, 0, 77, 54
1, 110433, Note_on_c, 0, 78, 52
1, 110443, Note_on_c, 0, 66, 58
1, 110473, Note_off_c, 0, 78, 56
1, 110488, Note_off_c, 0, 66, 61
1, 110495, Note_on_c, 0, 79, 43
1, 110529, Note_on_c, 0, 67, 52
1, 110562, Note_off_c, 0, 79, 56
1, 110569, Note_on_c, 0, 80, 56
1, 110571, Note_off_c, 0, 67, 54
1, 110607, Note_on_c, 0, 68, 46
1, 110631, Note_off_c, 0, 68, 59
1, 110667, Note_off_c, 0, 80, 55
1, 110689, Note_on_c, 0, 81, 33
1, 110694, Note_on_c, 0, 69, 52
1, 110740, Note_off_c, 0, 69, 50
1, 111436, Note_on_c, 0, 69, 35
1, 111448, Note_on_c, 0, 57, 32
1, 111457, Note_off_c, 0, 81, 35
1, 111542, Note_off_c, 0, 57, 46
1, 111596, Note_off_c, 0, 69, 57
1, 112025, Control_c, 0, 64, 116
1, 112040, Control_c, 0, 64, 108
1, 112055, Control_c, 0, 64, 103
1, 112069, Control_c, 0, 64, 100
1, 112084, Control_c, 0, 64, 96
1, 112099, Control_c, 0, 64, 93
1, 112114, Control_c, 0, 64, 91
1, 112129, Control_c, 0, 64, 89
1, 112143, Control_c, 0, 64, 88
1, 112173, Control_c, 0, 64, 87
1, 112188, Control_c, 0, 64, 85
1, 112203, Control_c, 0, 64, 78
1, 112217, Control_c, 0, 64, 66
1, 112232, Control_c, 0, 64, 49
1, 112232, Control_c, 0, 67, 122
1, 112247, Control_c, 0, 64, 0
1, 112247, Control_c, 0, 67, 107
1, 112262, Control_c, 0, 67, 79
1, 112277, Control_c, 0, 67, 45
1, 112282, Note_on_c, 0, 62, 77
1, 112283, Note_on_c, 0, 53, 77
1, 112289, Note_on_c, 0, 57, 68
1, 112291, Control_c, 0, 67, 0
1, 112294, Note_on_c, 0, 38, 73
1, 112297, Note_on_c, 0, 50, 65
1, 112321, Note_off_c, 0, 53, 65
1, 112321, Note_off_c, 0, 57, 67
1, 112327, Note_off_c, 0, 50, 62
1, 112328, Note_off_c, 0, 38, 65
1, 112343, Note_off_c, 0, 62, 63
1, 112664, Note_on_c, 0, 62, 58
1, 112666, Note_on_c, 0, 27, 70
1, 112673, Note_on_c, 0, 58, 51
1, 112679, Note_on_c, 0, 39, 54
1, 112680, Note_on_c, 0, 55, 46
1, 112697, Note_off_c, 0, 27, 63
1, 112709, Note_off_c, 0, 39, 54
1, 112843, Note_off_c, 0, 62, 62
1, 112853, Note_off_c, 0, 55, 56
1, 112861, Note_on_c, 0, 63, 61
1, 112862, Note_off_c, 0, 58, 55
1, 113120, Note_off_c, 0, 63, 55
1, 113139, Note_on_c, 0, 61, 54
1, 113159, Note_on_c, 0, 57, 42
1, 113164, Note_on_c, 0, 33, 45
1, 113166, Note_on_c, 0, 45, 42
1, 113170, Note_on_c, 0, 52, 46
1, 113284, Control_c, 0, 64, 31
1, 113299, Control_c, 0, 64, 32
1, 113329, Control_c, 0, 64, 35
1, 113344, Control_c, 0, 64, 43
1, 113359, Control_c, 0, 64, 54
1, 113373, Control_c, 0, 64, 59
1, 113403, Control_c, 0, 64, 60
1, 113418, Control_c, 0, 64, 61
1, 113433, Control_c, 0, 64, 65
1, 113447, Control_c, 0, 64, 68
1, 113462, Control_c, 0, 64, 72
1, 113477, Control_c, 0, 64, 74
1, 113492, Control_c, 0, 64, 76
1, 113507, Control_c, 0, 64, 79
1, 113521, Control_c, 0, 64, 84
1, 113536, Control_c, 0, 64, 91
1, 113551, Control_c, 0, 64, 99
1, 113566, Control_c, 0, 64, 110
1, 113581, Control_c, 0, 64, 127
1, 113587, Note_off_c, 0, 33, 61
1, 113629, Note_off_c, 0, 45, 62
1, 113646, Note_off_c, 0, 52, 54
1, 113800, Note_off_c, 0, 57, 58
1, 113862, Note_off_c, 0, 61, 62
1, 113956, Note_on_c, 0, 56, 68
1, 114036, Note_off_c, 0, 56, 62
1, 114050, Note_on_c, 0, 58, 73
1, 114143, Note_off_c, 0, 58, 62
1, 114151, Note_on_c, 0, 57, 76
1, 114166, Control_c, 0, 64, 110
1, 114181, Control_c, 0, 64, 69
1, 114196, Control_c, 0, 64, 0
1, 114375, Note_on_c, 0, 56, 65
1, 114378, Note_on_c, 0, 52, 55
1, 114380, Note_on_c, 0, 67, 64
1, 114382, Note_on_c, 0, 62, 61
1, 114412, Note_off_c, 0, 52, 64
1, 114415, Note_off_c, 0, 56, 62
1, 114422, Note_off_c, 0, 62, 60
1, 114447, Note_off_c, 0, 67, 61
1, 114464, Note_on_c, 0, 70, 76
1, 114527, Note_on_c, 0, 69, 88
1, 114532, Note_on_c, 0, 61, 84
1, 114536, Note_on_c, 0, 51, 78
1, 114537, Note_on_c, 0, 55, 73
1, 114542, Note_off_c, 0, 70, 55
1, 114554, Note_off_c, 0, 61, 70
1, 114566, Note_off_c, 0, 69, 66
1, 114570, Note_off_c, 0, 51, 64
1, 114575, Note_off_c, 0, 55, 65
1, 114603, Control_c, 0, 67, 36
1, 114618, Control_c, 0, 67, 35
1, 114633, Control_c, 0, 67, 35
1, 114648, Control_c, 0, 67, 35
1, 114662, Control_c, 0, 67, 37
1, 114677, Control_c, 0, 67, 37
1, 114692, Control_c, 0, 67, 35
1, 114722, Control_c, 0, 67, 36
1, 114736, Control_c, 0, 67, 38
1, 114751, Control_c, 0, 67, 39
1, 114766, Control_c, 0, 67, 38
1, 114797, Control_c, 0, 67, 39
1, 114812, Control_c, 0, 67, 41
1, 114813, Note_on_c, 0, 68, 74
1, 114821, Note_on_c, 0, 50, 56
1, 114825, Note_on_c, 0, 60, 57
1, 114827, Control_c, 0, 67, 47
1, 114830, Note_on_c, 0, 54, 51
1, 114841, Control_c, 0, 67, 58
1, 114846, Note_off_c, 0, 68, 61
1, 114847, Note_off_c, 0, 60, 61
1, 114852, Note_off_c, 0, 50, 65
1, 114856, Note_off_c, 0, 54, 59
1, 114856, Control_c, 0, 67, 59
1, 114871, Control_c, 0, 67, 60
1, 114886, Control_c, 0, 67, 63
1, 114901, Control_c, 0, 67, 74
1, 114916, Control_c, 0, 67, 84
1, 114931, Control_c, 0, 67, 85
1, 114960, Control_c, 0, 67, 87
1, 114975, Control_c, 0, 67, 90
1, 114990, Control_c, 0, 67, 98
1, 115005, Control_c, 0, 67, 103
1, 115193, Note_on_c, 0, 69, 58
1, 115202, Note_on_c, 0, 61, 48
1, 115203, Note_on_c, 0, 51, 38
1, 115212, Control_c, 0, 67, 105
1, 115222, Note_on_c, 0, 55, 37
1, 115242, Control_c, 0, 67, 102
1, 115272, Control_c, 0, 64, 46
1, 115286, Control_c, 0, 64, 63
1, 115301, Control_c, 0, 64, 69
1, 115301, Control_c, 0, 67, 99
1, 115323, Control_c, 0, 64, 75
1, 115338, Control_c, 0, 64, 84
1, 115338, Control_c, 0, 67, 95
1, 115347, Note_off_c, 0, 57, 59
1, 115353, Control_c, 0, 64, 102
1, 115368, Control_c, 0, 64, 127
1, 115381, Note_off_c, 0, 55, 61
1, 115383, Control_c, 0, 67, 94
1, 115389, Note_off_c, 0, 51, 46
1, 115398, Control_c, 0, 67, 89
1, 115412, Control_c, 0, 67, 86
1, 115415, Note_off_c, 0, 69, 60
1, 115439, Note_off_c, 0, 61, 61
1, 115442, Control_c, 0, 67, 87
1, 115457, Control_c, 0, 67, 87
1, 115472, Control_c, 0, 67, 82
1, 115486, Control_c, 0, 67, 78
1, 115501, Control_c, 0, 67, 75
1, 115516, Control_c, 0, 67, 74
1, 115531, Control_c, 0, 67, 68
1, 115546, Control_c, 0, 67, 50
1, 115560, Control_c, 0, 67, 0
1, 115886, Control_c, 0, 64, 107
1, 115901, Control_c, 0, 64, 76
1, 115916, Control_c, 0, 64, 51
1, 115931, Control_c, 0, 64, 0
1, 115948, Note_on_c, 0, 62, 74
1, 115950, Note_on_c, 0, 53, 75
1, 115951, Note_on_c, 0, 50, 65
1, 115953, Note_on_c, 0, 38, 63
1, 115954, Note_on_c, 0, 57, 69
1, 115974, Note_off_c, 0, 53, 68
1, 115979, Note_off_c, 0, 57, 66
1, 115980, Note_off_c, 0, 50, 66
1, 115985, Note_off_c, 0, 38, 63
1, 115986, Note_off_c, 0, 62, 65
1, 116202, Note_on_c, 0, 34, 80
1, 116211, Note_on_c, 0, 55, 75
1, 116214, Note_on_c, 0, 46, 62
1, 116215, Note_on_c, 0, 62, 71
1, 116220, Note_on_c, 0, 52, 67
1, 116237, Note_off_c, 0, 34, 64
1, 116246, Note_off_c, 0, 46, 63
1, 116250, Note_off_c, 0, 52, 62
1, 116274, Note_off_c, 0, 55, 60
1, 116302, Note_on_c, 0, 64, 84
1, 116324, Note_off_c, 0, 62, 63
1, 116384, Note_on_c, 0, 53, 84
1, 116384, Note_on_c, 0, 62, 77
1, 116386, Note_on_c, 0, 50, 76
1, 116386, Note_on_c, 0, 57, 80
1, 116387, Note_on_c, 0, 38, 79
1, 116399, Note_off_c, 0, 64, 61
1, 116405, Note_off_c, 0, 53, 70
1, 116409, Note_off_c, 0, 50, 67
1, 116410, Note_off_c, 0, 57, 68
1, 116411, Note_off_c, 0, 38, 65
1, 116432, Note_off_c, 0, 62, 63
1, 116608, Note_on_c, 0, 31, 69
1, 116611, Note_on_c, 0, 64, 73
1, 116612, Note_on_c, 0, 59, 72
1, 116618, Note_on_c, 0, 55, 63
1, 116619, Note_on_c, 0, 43, 57
1, 116635, Note_off_c, 0, 31, 64
1, 116637, Note_off_c, 0, 59, 67
1, 116642, Note_off_c, 0, 55, 63
1, 116646, Note_off_c, 0, 64, 65
1, 116647, Note_off_c, 0, 43, 56
1, 116896, Note_on_c, 0, 64, 56
1, 116909, Note_on_c, 0, 55, 46
1, 116909, Note_on_c, 0, 60, 51
1, 116917, Note_on_c, 0, 36, 42
1, 116918, Note_on_c, 0, 48, 54
1, 116951, Note_off_c, 0, 48, 63
1, 116954, Control_c, 0, 64, 40
1, 116959, Note_off_c, 0, 36, 52
1, 116968, Control_c, 0, 64, 62
1, 116983, Control_c, 0, 64, 72
1, 116998, Control_c, 0, 64, 81
1, 117013, Control_c, 0, 64, 89
1, 117015, Note_off_c, 0, 55, 51
1, 117028, Control_c, 0, 64, 98
1, 117043, Control_c, 0, 64, 127
1, 117046, Note_off_c, 0, 60, 64
1, 117062, Note_off_c, 0, 64, 63
1, 117354, Control_c, 0, 64, 84
1, 117369, Control_c, 0, 64, 47
1, 117384, Control_c, 0, 64, 0
1, 117410, Note_on_c, 0, 65, 66
1, 117413, Control_c, 0, 64, 29
1, 117414, Note_on_c, 0, 29, 55
1, 117416, Note_on_c, 0, 41, 51
1, 117416, Note_on_c, 0, 56, 53
1, 117419, Note_on_c, 0, 60, 48
1, 117428, Control_c, 0, 64, 58
1, 117443, Control_c, 0, 64, 83
1, 117445, Note_off_c, 0, 41, 61
1, 117452, Note_off_c, 0, 29, 48
1, 117458, Control_c, 0, 64, 127
1, 117472, Note_off_c, 0, 56, 60
1, 117487, Note_off_c, 0, 60, 60
1, 117540, Note_off_c, 0, 65, 62
1, 117642, Note_on_c, 0, 59, 74
1, 117689, Note_off_c, 0, 59, 56
1, 117732, Note_on_c, 0, 61, 77
1, 117803, Note_off_c, 0, 61, 61
1, 117810, Note_on_c, 0, 60, 84
1, 117851, Control_c, 0, 64, 101
1, 117866, Control_c, 0, 64, 68
1, 117881, Control_c, 0, 64, 0
1, 118030, Note_on_c, 0, 59, 77
1, 118034, Note_on_c, 0, 55, 68
1, 118037, Note_on_c, 0, 71, 73
1, 118040, Note_on_c, 0, 65, 66
1, 118073, Note_off_c, 0, 59, 59
1, 118075, Note_off_c, 0, 55, 63
1, 118085, Note_off_c, 0, 65, 56
1, 118110, Note_off_c, 0, 60, 50
1, 118117, Note_off_c, 0, 71, 50
1, 118127, Note_on_c, 0, 73, 79
1, 118185, Note_off_c, 0, 73, 57
1, 118207, Note_on_c, 0, 58, 82
1, 118209, Note_on_c, 0, 72, 80
1, 118215, Note_on_c, 0, 64, 65
1, 118225, Note_on_c, 0, 60, 64
1, 118229, Note_off_c, 0, 58, 68
1, 118234, Note_off_c, 0, 64, 66
1, 118237, Note_off_c, 0, 72, 61
1, 118244, Note_off_c, 0, 60, 65
1, 118404, Note_on_c, 0, 74, 79
1, 118409, Note_on_c, 0, 53, 81
1, 118411, Note_on_c, 0, 60, 75
1, 118411, Note_on_c, 0, 68, 74
1, 118415, Note_on_c, 0, 62, 75
1, 118425, Note_on_c, 0, 72, 51
1, 118431, Note_off_c, 0, 53, 69
1, 118433, Note_off_c, 0, 68, 70
1, 118435, Note_off_c, 0, 60, 69
1, 118438, Note_off_c, 0, 62, 67
1, 118439, Note_off_c, 0, 74, 63
1, 118447, Note_off_c, 0, 72, 57
1, 118482, Note_on_c, 0, 75, 93
1, 118527, Note_off_c, 0, 75, 68
1, 118569, Note_on_c, 0, 76, 104
1, 118573, Note_on_c, 0, 60, 87
1, 118575, Note_on_c, 0, 53, 85
1, 118575, Note_on_c, 0, 64, 88
1, 118578, Note_on_c, 0, 72, 77
1, 118578, Note_on_c, 0, 69, 87
1, 118595, Note_off_c, 0, 60, 65
1, 118596, Note_off_c, 0, 64, 73
1, 118596, Note_off_c, 0, 69, 73
1, 118597, Note_off_c, 0, 72, 70
1, 118609, Note_off_c, 0, 53, 64
1, 118613, Note_off_c, 0, 76, 67
1, 118760, Note_on_c, 0, 71, 90
1, 118763, Note_on_c, 0, 65, 81
1, 118763, Note_on_c, 0, 68, 75
1, 118772, Note_on_c, 0, 59, 79
1, 118773, Note_on_c, 0, 50, 74
1, 118778, Note_on_c, 0, 53, 70
1, 118784, Note_off_c, 0, 65, 72
1, 118787, Note_off_c, 0, 68, 71
1, 118797, Note_off_c, 0, 59, 67
1, 118798, Note_off_c, 0, 71, 63
1, 118800, Note_off_c, 0, 53, 64
1, 118802, Note_off_c, 0, 50, 66
1, 118852, Note_on_c, 0, 72, 75
1, 118861, Note_on_c, 0, 74, 77
1, 118885, Note_off_c, 0, 74, 54
1, 118892, Note_off_c, 0, 72, 64
1, 118926, Note_on_c, 0, 48, 92
1, 118927, Note_on_c, 0, 64, 96
1, 118928, Note_on_c, 0, 69, 97
1, 118928, Note_on_c, 0, 72, 81
1, 118930, Note_on_c, 0, 57, 83
1, 118933, Note_on_c, 0, 52, 79
1, 118947, Note_off_c, 0, 69, 68
1, 118950, Note_off_c, 0, 64, 67
1, 118953, Note_off_c, 0, 57, 69
1, 118958, Note_off_c, 0, 52, 66
1, 118959, Note_off_c, 0, 48, 66
1, 118960, Note_on_c, 0, 74, 26
1, 118969, Note_off_c, 0, 72, 65
1, 118998, Note_off_c, 0, 74, 33
1, 119147, Note_on_c, 0, 68, 83
1, 119150, Note_on_c, 0, 56, 81
1, 119150, Note_on_c, 0, 64, 73
1, 119152, Note_on_c, 0, 46, 79
1, 119156, Note_on_c, 0, 61, 70
1, 119173, Note_off_c, 0, 56, 70
1, 119177, Note_off_c, 0, 64, 68
1, 119184, Note_off_c, 0, 46, 66
1, 119184, Note_off_c, 0, 61, 65
1, 119198, Note_off_c, 0, 68, 61
1, 119374, Note_on_c, 0, 48, 84
1, 119376, Note_on_c, 0, 53, 82
1, 119378, Note_on_c, 0, 57, 85
1, 119378, Note_on_c, 0, 69, 83
1, 119379, Note_on_c, 0, 41, 74
1, 119381, Note_on_c, 0, 65, 80
1, 119394, Control_c, 0, 64, 47
1, 119397, Note_off_c, 0, 53, 71
1, 119400, Note_off_c, 0, 48, 66
1, 119402, Note_off_c, 0, 57, 69
1, 119404, Note_off_c, 0, 41, 67
1, 119409, Control_c, 0, 64, 85
1, 119422, Note_off_c, 0, 65, 64
1, 119424, Control_c, 0, 64, 127
1, 119440, Note_off_c, 0, 69, 64
1, 119620, Note_on_c, 0, 60, 96
1, 119644, Note_off_c, 0, 60, 69
1, 119662, Control_c, 0, 64, 91
1, 119676, Control_c, 0, 64, 67
1, 119691, Control_c, 0, 64, 36
1, 119706, Control_c, 0, 64, 0
1, 119715, Note_on_c, 0, 62, 98
1, 119737, Note_off_c, 0, 62, 69
1, 119845, Note_on_c, 0, 61, 98
1, 119862, Control_c, 0, 64, 53
1, 119877, Control_c, 0, 64, 86
1, 119884, Note_off_c, 0, 61, 67
1, 119891, Control_c, 0, 64, 127
1, 119946, Poly_aftertouch_c, 0, 70, 0
1, 119961, Poly_aftertouch_c, 0, 70, 0
1, 120089, Note_on_c, 0, 68, 81
1, 120091, Note_on_c, 0, 56, 75
1, 120092, Note_on_c, 0, 64, 80
1, 120092, Note_on_c, 0, 58, 77
1, 120094, Note_on_c, 0, 49, 72
1, 120118, Note_off_c, 0, 64, 66
1, 120119, Note_off_c, 0, 56, 65
1, 120119, Note_off_c, 0, 58, 66
1, 120128, Note_off_c, 0, 49, 64
1, 120131, Note_off_c, 0, 68, 60
1, 120182, Note_on_c, 0, 70, 90
1, 120227, Note_off_c, 0, 70, 65
1, 120276, Control_c, 0, 64, 103
1, 120283, Note_on_c, 0, 69, 93
1, 120283, Note_on_c, 0, 53, 78
1, 120285, Note_on_c, 0, 57, 78
1, 120285, Note_on_c, 0, 65, 94
1, 120289, Note_on_c, 0, 48, 77
1, 120291, Control_c, 0, 64, 68
1, 120306, Control_c, 0, 64, 0
1, 120307, Note_off_c, 0, 53, 69
1, 120310, Note_off_c, 0, 57, 68
1, 120314, Note_off_c, 0, 65, 65
1, 120318, Note_off_c, 0, 48, 65
1, 120328, Note_off_c, 0, 69, 65
1, 120455, Control_c, 0, 67, 37
1, 120470, Control_c, 0, 67, 38
1, 120485, Control_c, 0, 67, 37
1, 120514, Control_c, 0, 67, 40
1, 120529, Control_c, 0, 67, 48
1, 120544, Control_c, 0, 67, 73
1, 120554, Note_on_c, 0, 55, 68
1, 120559, Note_on_c, 0, 49, 68
1, 120559, Note_on_c, 0, 65, 61
1, 120560, Note_on_c, 0, 46, 72
1, 120561, Note_on_c, 0, 64, 68
1, 120566, Control_c, 0, 67, 90
1, 120581, Control_c, 0, 67, 94
1, 120583, Note_off_c, 0, 55, 65
1, 120584, Note_off_c, 0, 49, 66
1, 120587, Note_off_c, 0, 65, 66
1, 120587, Note_off_c, 0, 46, 64
1, 120588, Note_off_c, 0, 64, 66
1, 120596, Control_c, 0, 67, 102
1, 120611, Control_c, 0, 67, 127
1, 120833, Note_on_c, 0, 65, 64
1, 120847, Note_on_c, 0, 61, 62
1, 120850, Note_on_c, 0, 49, 54
1, 120853, Note_on_c, 0, 44, 46
1, 120853, Note_on_c, 0, 53, 45
1, 120857, Note_on_c, 0, 37, 38
1, 120862, Control_c, 0, 64, 50
1, 120874, Note_off_c, 0, 49, 59
1, 120877, Control_c, 0, 64, 72
1, 120882, Note_off_c, 0, 44, 53
1, 120883, Note_off_c, 0, 53, 63
1, 120892, Control_c, 0, 64, 100
1, 120894, Note_off_c, 0, 37, 47
1, 120906, Control_c, 0, 64, 127
1, 120946, Note_off_c, 0, 61, 54
1, 120984, Note_off_c, 0, 65, 56
1, 121116, Note_on_c, 0, 56, 80
1, 121164, Note_off_c, 0, 56, 59
1, 121241, Note_on_c, 0, 58, 73
1, 121267, Note_off_c, 0, 58, 65
1, 121330, Control_c, 0, 64, 100
1, 121344, Control_c, 0, 64, 67
1, 121359, Control_c, 0, 64, 0
1, 121408, Note_on_c, 0, 57, 71
1, 121777, Note_on_c, 0, 64, 57
1, 121784, Note_on_c, 0, 61, 51
1, 121791, Note_on_c, 0, 52, 48
1, 121792, Note_on_c, 0, 33, 58
1, 121799, Note_on_c, 0, 45, 46
1, 121821, Note_off_c, 0, 33, 61
1, 121827, Note_off_c, 0, 64, 60
1, 121829, Note_off_c, 0, 61, 59
1, 121830, Note_off_c, 0, 45, 47
1, 121835, Note_off_c, 0, 52, 44
1, 122246, Note_on_c, 0, 65, 60
1, 122262, Note_on_c, 0, 62, 42
1, 122271, Control_c, 0, 64, 45
1, 122286, Note_on_c, 0, 38, 45
1, 122286, Control_c, 0, 64, 55
1, 122292, Note_on_c, 0, 53, 6
1, 122301, Control_c, 0, 64, 61
1, 122304, Note_on_c, 0, 50, 36
1, 122313, Note_on_c, 0, 45, 28
1, 122316, Control_c, 0, 64, 64
1, 122331, Control_c, 0, 64, 67
1, 122346, Control_c, 0, 64, 71
1, 122361, Control_c, 0, 64, 77
1, 122376, Control_c, 0, 64, 86
1, 122387, Note_off_c, 0, 38, 36
1, 122388, Note_off_c, 0, 45, 54
1, 122391, Control_c, 0, 64, 95
1, 122405, Control_c, 0, 64, 110
1, 122406, Note_off_c, 0, 50, 38
1, 122420, Control_c, 0, 64, 127
1, 122538, Note_off_c, 0, 65, 54
1, 122546, Note_off_c, 0, 62, 54
1, 122563, Note_off_c, 0, 57, 64
1, 122575, Note_off_c, 0, 53, 52
1, 123006, Control_c, 0, 64, 106
1, 123008, Note_on_c, 0, 62, 61
1, 123013, Note_on_c, 0, 58, 55
1, 123017, Note_on_c, 0, 31, 50
1, 123020, Note_on_c, 0, 52, 48
1, 123020, Control_c, 0, 64, 71
1, 123029, Note_on_c, 0, 43, 38
1, 123035, Note_off_c, 0, 58, 62
1, 123035, Control_c, 0, 64, 37
1, 123041, Note_off_c, 0, 62, 64
1, 123049, Note_off_c, 0, 52, 52
1, 123050, Control_c, 0, 64, 0
1, 123052, Note_off_c, 0, 31, 48
1, 123065, Note_off_c, 0, 43, 48
1, 123403, Note_on_c, 0, 62, 38
1, 123405, Note_on_c, 0, 33, 53
1, 123410, Note_on_c, 0, 57, 40
1, 123421, Note_on_c, 0, 55, 30
1, 123428, Note_on_c, 0, 45, 26
1, 123457, Note_off_c, 0, 33, 60
1, 123472, Note_off_c, 0, 45, 39
1, 123646, Note_on_c, 0, 64, 45
1, 123672, Note_off_c, 0, 62, 53
1, 123687, Note_off_c, 0, 57, 42
1, 123721, Note_off_c, 0, 55, 42
1, 124050, Note_on_c, 0, 62, 42
1, 124059, Note_on_c, 0, 53, 26
1, 124070, Note_on_c, 0, 57, 29
1, 124093, Note_on_c, 0, 26, 29
1, 124103, Note_on_c, 0, 38, 21
1, 124139, Control_c, 0, 64, 33
1, 124143, Note_off_c, 0, 64, 32
1, 124154, Control_c, 0, 64, 43
1, 124168, Control_c, 0, 64, 54
1, 124183, Control_c, 0, 64, 61
1, 124198, Control_c, 0, 64, 64
1, 124213, Control_c, 0, 64, 66
1, 124228, Control_c, 0, 64, 69
1, 124242, Control_c, 0, 64, 76
1, 124251, Note_off_c, 0, 26, 54
1, 124257, Control_c, 0, 64, 90
1, 124261, Note_off_c, 0, 38, 45
1, 124272, Control_c, 0, 64, 127
1, 124273, Note_off_c, 0, 53, 53
1, 124352, Note_off_c, 0, 57, 52
1, 124375, Note_off_c, 0, 62, 63
1, 124798, Note_on_c, 0, 82, 52
1, 124808, Note_on_c, 0, 58, 43
1, 124889, Note_off_c, 0, 82, 60
1, 124906, Note_on_c, 0, 59, 49
1, 124919, Note_on_c, 0, 83, 42
1, 124954, Note_off_c, 0, 58, 30
1, 124971, Note_off_c, 0, 59, 61
1, 124997, Note_on_c, 0, 60, 53
1, 125020, Note_on_c, 0, 84, 36
1, 125032, Note_off_c, 0, 60, 59
1, 125059, Note_off_c, 0, 83, 45
1, 125103, Note_on_c, 0, 85, 50
1, 125109, Note_on_c, 0, 61, 25
1, 125184, Note_off_c, 0, 84, 25
1, 125207, Note_on_c, 0, 86, 58
1, 125214, Note_on_c, 0, 62, 45
1, 125228, Note_off_c, 0, 61, 37
1, 125249, Note_off_c, 0, 85, 43
1, 126387, Note_on_c, 0, 74, 35
1, 126408, Note_on_c, 0, 50, 24
1, 126457, Note_off_c, 0, 62, 37
1, 126664, Note_off_c, 0, 50, 43
1, 126690, Note_off_c, 0, 74, 41
1, 127227, Note_off_c, 0, 86, 36
1, 128202, Control_c, 0, 64, 112
1, 128216, Control_c, 0, 64, 107
1, 128231, Control_c, 0, 64, 103
1, 128246, Control_c, 0, 64, 97
1, 128261, Control_c, 0, 64, 90
1, 128276, Control_c, 0, 64, 84
1, 128290, Control_c, 0, 64, 77
1, 128305, Control_c, 0, 64, 73
1, 128320, Control_c, 0, 64, 70
1, 128335, Control_c, 0, 64, 66
1, 128350, Control_c, 0, 64, 64
1, 128365, Control_c, 0, 64, 61
1, 128380, Control_c, 0, 64, 59
1, 128395, Control_c, 0, 64, 58
1, 128410, Control_c, 0, 64, 56
1, 128425, Control_c, 0, 64, 54
1, 128439, Control_c, 0, 64, 48
1, 128454, Control_c, 0, 64, 41
1, 128469, Control_c, 0, 64, 34
1, 128484, Control_c, 0, 64, 0
1, 128603, Control_c, 0, 64, 38
1, 128618, Control_c, 0, 64, 45
1, 128633, Control_c, 0, 64, 48
1, 128647, Control_c, 0, 64, 50
1, 128662, Control_c, 0, 64, 54
1, 128677, Control_c, 0, 64, 59
1, 128692, Control_c, 0, 64, 65
1, 128706, Control_c, 0, 64, 70
1, 128721, Control_c, 0, 64, 72
1, 128736, Control_c, 0, 64, 73
1, 128751, Control_c, 0, 64, 75
1, 128765, Control_c, 0, 64, 79
1, 128780, Control_c, 0, 64, 89
1, 128803, Control_c, 0, 64, 105
1, 128818, Control_c, 0, 64, 127
1, 129107, Note_on_c, 0, 74, 81
1, 129123, Note_on_c, 0, 69, 62
1, 129131, Note_on_c, 0, 62, 53
1, 129134, Note_on_c, 0, 65, 49
1, 129260, Note_off_c, 0, 65, 53
1, 129314, Note_off_c, 0, 62, 63
1, 129357, Note_off_c, 0, 69, 64
1, 129396, Note_off_c, 0, 74, 64
1, 129745, Note_on_c, 0, 67, 40
1, 129771, Note_on_c, 0, 79, 18
1, 129794, Note_off_c, 0, 67, 52
1, 129814, Note_on_c, 0, 80, 59
1, 129816, Note_off_c, 0, 79, 52
1, 129860, Note_on_c, 0, 68, 42
1, 129891, Note_off_c, 0, 80, 58
1, 129908, Note_on_c, 0, 81, 53
1, 129912, Note_off_c, 0, 68, 57
1, 129928, Note_on_c, 0, 69, 61
1, 129940, Note_on_c, 0, 65, 50
1, 129949, Note_on_c, 0, 77, 26
1, 129953, Note_off_c, 0, 69, 68
1, 129974, Note_off_c, 0, 65, 64
1, 129986, Note_off_c, 0, 77, 45
1, 129995, Note_off_c, 0, 81, 65
1, 130669, Note_on_c, 0, 74, 81
1, 130682, Note_on_c, 0, 69, 65
1, 130701, Note_on_c, 0, 62, 49
1, 130707, Note_on_c, 0, 65, 36
1, 130714, Control_c, 0, 67, 122
1, 130729, Control_c, 0, 67, 100
1, 130743, Control_c, 0, 67, 84
1, 130759, Control_c, 0, 67, 60
1, 130774, Control_c, 0, 67, 0
1, 130795, Note_off_c, 0, 65, 35
1, 130900, Note_off_c, 0, 62, 63
1, 130970, Note_off_c, 0, 69, 59
1, 130982, Control_c, 0, 67, 39
1, 130997, Control_c, 0, 67, 88
1, 131011, Control_c, 0, 67, 127
1, 131262, Note_on_c, 0, 76, 84
1, 131278, Note_on_c, 0, 64, 47
1, 131316, Note_off_c, 0, 74, 37
1, 131321, Note_off_c, 0, 64, 59
1, 131465, Note_on_c, 0, 72, 79
1, 131476, Note_on_c, 0, 69, 62
1, 131495, Note_on_c, 0, 60, 48
1, 131503, Note_on_c, 0, 65, 32
1, 131511, Note_on_c, 0, 57, 47
1, 131536, Note_off_c, 0, 76, 60
1, 131538, Control_c, 0, 64, 86
1, 131554, Control_c, 0, 64, 61
1, 131569, Control_c, 0, 64, 31
1, 131583, Control_c, 0, 64, 0
1, 131643, Control_c, 0, 64, 43
1, 131657, Control_c, 0, 64, 66
1, 131672, Control_c, 0, 64, 86
1, 131687, Control_c, 0, 64, 127
1, 131691, Note_off_c, 0, 65, 60
1, 131704, Note_off_c, 0, 57, 63
1, 131713, Note_off_c, 0, 60, 64
1, 131721, Note_off_c, 0, 69, 62
1, 131750, Note_off_c, 0, 72, 65
1, 132053, Note_on_c, 0, 67, 38
1, 132059, Note_on_c, 0, 79, 42
1, 132092, Note_off_c, 0, 79, 59
1, 132105, Note_off_c, 0, 67, 55
1, 132124, Note_on_c, 0, 80, 55
1, 132156, Note_on_c, 0, 68, 6
1, 132186, Note_off_c, 0, 80, 54
1, 132207, Note_off_c, 0, 68, 51
1, 132215, Note_on_c, 0, 81, 62
1, 132232, Note_on_c, 0, 65, 40
1, 132238, Note_on_c, 0, 69, 51
1, 132243, Note_on_c, 0, 77, 46
1, 132269, Note_off_c, 0, 69, 65
1, 132277, Note_off_c, 0, 77, 60
1, 132298, Note_off_c, 0, 65, 58
1, 132377, Note_off_c, 0, 81, 64
1, 133015, Note_on_c, 0, 69, 47
1, 133023, Note_on_c, 0, 57, 32
1, 133109, Note_off_c, 0, 57, 61
1, 133155, Note_off_c, 0, 69, 53
1, 133875, Note_on_c, 0, 74, 82
1, 133877, Note_on_c, 0, 69, 67
1, 133898, Note_on_c, 0, 65, 46
1, 133899, Note_on_c, 0, 62, 50
1, 133903, Control_c, 0, 64, 110
1, 133918, Control_c, 0, 64, 77
1, 133933, Control_c, 0, 64, 57
1, 133948, Control_c, 0, 64, 29
1, 133963, Control_c, 0, 64, 0
1, 133992, Control_c, 0, 64, 33
1, 134007, Control_c, 0, 64, 55
1, 134022, Control_c, 0, 64, 68
1, 134045, Control_c, 0, 64, 84
1, 134059, Control_c, 0, 64, 127
1, 134109, Note_off_c, 0, 65, 62
1, 134125, Note_off_c, 0, 62, 62
1, 134138, Note_off_c, 0, 69, 61
1, 134177, Note_off_c, 0, 74, 64
1, 134473, Note_on_c, 0, 79, 49
1, 134495, Note_on_c, 0, 67, 31
1, 134508, Note_off_c, 0, 79, 62
1, 134535, Note_off_c, 0, 67, 49
1, 134558, Note_on_c, 0, 80, 53
1, 134572, Note_on_c, 0, 68, 51
1, 134600, Note_off_c, 0, 80, 59
1, 134630, Note_off_c, 0, 68, 49
1, 134633, Note_on_c, 0, 81, 74
1, 134647, Note_on_c, 0, 65, 53
1, 134657, Note_on_c, 0, 69, 56
1, 134662, Note_on_c, 0, 77, 39
1, 134678, Note_off_c, 0, 65, 64
1, 134680, Note_off_c, 0, 69, 60
1, 134690, Note_off_c, 0, 77, 55
1, 134693, Note_off_c, 0, 81, 61
1, 135494, Note_on_c, 0, 74, 71
1, 135510, Note_on_c, 0, 69, 54
1, 135533, Note_on_c, 0, 62, 43
1, 135545, Note_on_c, 0, 65, 26
1, 135659, Note_off_c, 0, 69, 56
1, 135686, Note_off_c, 0, 65, 41
1, 135689, Note_off_c, 0, 74, 63
1, 135694, Note_off_c, 0, 62, 55
1, 135759, Note_on_c, 0, 72, 83
1, 135778, Note_on_c, 0, 60, 48
1, 135779, Control_c, 0, 67, 118
1, 135794, Control_c, 0, 67, 110
1, 135809, Control_c, 0, 67, 100
1, 135824, Control_c, 0, 67, 90
1, 135838, Control_c, 0, 67, 80
1, 135853, Control_c, 0, 67, 70
1, 135859, Note_off_c, 0, 60, 48
1, 135868, Control_c, 0, 67, 61
1, 135882, Control_c, 0, 67, 53
1, 135896, Note_off_c, 0, 72, 62
1, 135897, Control_c, 0, 67, 44
1, 135912, Control_c, 0, 67, 0
1, 135956, Note_on_c, 0, 74, 95
1, 135964, Note_on_c, 0, 62, 57
1, 136035, Note_off_c, 0, 62, 55
1, 136075, Note_off_c, 0, 74, 63
1, 136208, Note_on_c, 0, 76, 84
1, 136228, Note_on_c, 0, 72, 62
1, 136232, Note_on_c, 0, 60, 47
1, 136243, Note_on_c, 0, 64, 46
1, 136246, Note_on_c, 0, 69, 35
1, 136275, Control_c, 0, 64, 83
1, 136290, Control_c, 0, 64, 62
1, 136305, Control_c, 0, 64, 0
1, 136365, Control_c, 0, 67, 37
1, 136395, Control_c, 0, 64, 53
1, 136395, Control_c, 0, 67, 36
1, 136410, Control_c, 0, 64, 70
1, 136410, Control_c, 0, 67, 35
1, 136425, Control_c, 0, 64, 96
1, 136425, Control_c, 0, 67, 37
1, 136440, Control_c, 0, 64, 127
1, 136440, Control_c, 0, 67, 38
1, 136454, Control_c, 0, 67, 37
1, 136467, Note_off_c, 0, 64, 64
1, 136468, Note_off_c, 0, 69, 50
1, 136474, Note_off_c, 0, 60, 64
1, 136478, Note_off_c, 0, 72, 62
1, 136484, Control_c, 0, 67, 41
1, 136499, Control_c, 0, 67, 51
1, 136508, Note_off_c, 0, 76, 64
1, 136513, Control_c, 0, 67, 81
1, 136528, Control_c, 0, 67, 89
1, 136558, Control_c, 0, 67, 92
1, 136573, Control_c, 0, 67, 98
1, 136587, Control_c, 0, 67, 116
1, 136602, Control_c, 0, 67, 127
1, 136765, Control_c, 0, 67, 124
1, 136844, Note_on_c, 0, 80, 52
1, 136847, Note_on_c, 0, 68, 45
1, 136881, Note_off_c, 0, 80, 61
1, 136898, Control_c, 0, 67, 122
1, 136913, Control_c, 0, 67, 120
1, 136929, Note_off_c, 0, 68, 59
1, 136955, Note_on_c, 0, 81, 65
1, 136970, Note_on_c, 0, 69, 60
1, 136993, Note_on_c, 0, 76, 37
1, 136997, Note_on_c, 0, 64, 44
1, 137009, Note_off_c, 0, 69, 59
1, 137039, Note_off_c, 0, 76, 49
1, 137073, Note_off_c, 0, 64, 48
1, 137367, Control_c, 0, 67, 117
1, 137426, Control_c, 0, 67, 115
1, 137441, Control_c, 0, 67, 112
1, 137515, Control_c, 0, 67, 110
1, 137589, Control_c, 0, 67, 106
1, 137677, Control_c, 0, 67, 104
1, 137707, Note_on_c, 0, 57, 38
1, 137712, Note_on_c, 0, 69, 38
1, 137736, Control_c, 0, 67, 101
1, 137751, Control_c, 0, 67, 92
1, 137766, Control_c, 0, 67, 84
1, 137781, Note_off_c, 0, 57, 57
1, 137785, Note_off_c, 0, 81, 52
1, 137787, Note_off_c, 0, 69, 51
1, 137789, Control_c, 0, 67, 84
1, 137803, Control_c, 0, 67, 79
1, 137818, Control_c, 0, 67, 71
1, 137833, Control_c, 0, 67, 52
1, 137848, Control_c, 0, 67, 41
1, 137862, Control_c, 0, 67, 35
1, 137877, Control_c, 0, 67, 0
1, 138560, Note_on_c, 0, 77, 83
1, 138571, Note_on_c, 0, 72, 66
1, 138580, Note_on_c, 0, 63, 53
1, 138580, Note_on_c, 0, 65, 54
1, 138582, Note_on_c, 0, 69, 57
1, 138610, Control_c, 0, 64, 92
1, 138625, Control_c, 0, 64, 69
1, 138640, Control_c, 0, 64, 49
1, 138655, Control_c, 0, 64, 0
1, 138699, Control_c, 0, 64, 40
1, 138714, Control_c, 0, 64, 63
1, 138729, Control_c, 0, 64, 79
1, 138744, Control_c, 0, 64, 121
1, 138759, Control_c, 0, 64, 127
1, 138814, Note_off_c, 0, 69, 63
1, 138824, Note_off_c, 0, 63, 63
1, 138824, Note_off_c, 0, 72, 63
1, 138830, Note_off_c, 0, 65, 63
1, 138857, Note_off_c, 0, 77, 65
1, 138863, Control_c, 0, 67, 35
1, 138878, Control_c, 0, 67, 38
1, 138893, Control_c, 0, 67, 50
1, 138907, Control_c, 0, 67, 101
1, 138922, Control_c, 0, 67, 127
1, 139137, Note_on_c, 0, 70, 50
1, 139149, Note_on_c, 0, 82, 44
1, 139192, Note_off_c, 0, 82, 58
1, 139201, Note_off_c, 0, 70, 58
1, 139218, Note_on_c, 0, 71, 49
1, 139222, Note_on_c, 0, 83, 65
1, 139254, Note_off_c, 0, 71, 57
1, 139293, Note_on_c, 0, 69, 67
1, 139298, Note_on_c, 0, 72, 63
1, 139304, Note_on_c, 0, 84, 80
1, 139318, Note_off_c, 0, 69, 68
1, 139325, Note_off_c, 0, 72, 66
1, 139326, Note_on_c, 0, 81, 29
1, 139327, Note_off_c, 0, 83, 65
1, 139345, Note_off_c, 0, 84, 67
1, 139361, Note_off_c, 0, 81, 52
1, 139730, Control_c, 0, 67, 122
1, 139760, Control_c, 0, 67, 119
1, 139775, Control_c, 0, 67, 115
1, 139790, Control_c, 0, 67, 99
1, 139804, Control_c, 0, 67, 92
1, 139819, Control_c, 0, 67, 92
1, 139834, Control_c, 0, 67, 91
1, 139848, Control_c, 0, 67, 88
1, 139863, Control_c, 0, 67, 87
1, 139878, Control_c, 0, 67, 84
1, 139893, Control_c, 0, 67, 74
1, 139908, Control_c, 0, 67, 69
1, 139922, Control_c, 0, 67, 64
1, 139937, Control_c, 0, 67, 59
1, 139952, Control_c, 0, 67, 58
1, 139982, Control_c, 0, 67, 58
1, 139996, Control_c, 0, 67, 57
1, 140048, Control_c, 0, 67, 58
1, 140074, Note_on_c, 0, 77, 78
1, 140078, Control_c, 0, 67, 57
1, 140089, Note_on_c, 0, 72, 65
1, 140097, Note_on_c, 0, 68, 49
1, 140103, Note_on_c, 0, 62, 45
1, 140108, Control_c, 0, 67, 58
1, 140121, Note_on_c, 0, 65, 40
1, 140123, Control_c, 0, 67, 59
1, 140167, Control_c, 0, 64, 82
1, 140182, Control_c, 0, 64, 62
1, 140196, Control_c, 0, 64, 46
1, 140196, Control_c, 0, 67, 60
1, 140211, Control_c, 0, 64, 44
1, 140226, Control_c, 0, 64, 48
1, 140226, Control_c, 0, 67, 59
1, 140241, Control_c, 0, 64, 59
1, 140255, Control_c, 0, 64, 71
1, 140255, Control_c, 0, 67, 61
1, 140270, Control_c, 0, 64, 89
1, 140270, Control_c, 0, 67, 68
1, 140285, Control_c, 0, 64, 127
1, 140285, Control_c, 0, 67, 69
1, 140300, Control_c, 0, 67, 70
1, 140315, Control_c, 0, 67, 71
1, 140330, Control_c, 0, 67, 74
1, 140345, Control_c, 0, 67, 77
1, 140360, Control_c, 0, 67, 77
1, 140379, Note_off_c, 0, 68, 33
1, 140386, Note_off_c, 0, 65, 62
1, 140389, Control_c, 0, 67, 79
1, 140398, Note_off_c, 0, 62, 62
1, 140404, Control_c, 0, 67, 85
1, 140419, Control_c, 0, 67, 101
1, 140434, Control_c, 0, 67, 122
1, 140449, Control_c, 0, 67, 125
1, 140478, Note_off_c, 0, 72, 38
1, 140478, Control_c, 0, 67, 127
1, 140497, Note_off_c, 0, 77, 58
1, 140795, Note_on_c, 0, 79, 68
1, 140818, Note_on_c, 0, 67, 45
1, 140854, Note_off_c, 0, 67, 58
1, 141024, Note_on_c, 0, 76, 76
1, 141035, Note_on_c, 0, 72, 58
1, 141057, Note_on_c, 0, 64, 47
1, 141058, Note_on_c, 0, 69, 37
1, 141060, Note_off_c, 0, 79, 59
1, 141072, Note_on_c, 0, 60, 45
1, 141078, Control_c, 0, 64, 91
1, 141093, Control_c, 0, 64, 67
1, 141108, Control_c, 0, 64, 46
1, 141123, Control_c, 0, 64, 30
1, 141138, Control_c, 0, 64, 0
1, 141154, Control_c, 0, 64, 32
1, 141168, Control_c, 0, 64, 47
1, 141183, Control_c, 0, 64, 64
1, 141198, Control_c, 0, 64, 78
1, 141213, Control_c, 0, 64, 105
1, 141228, Control_c, 0, 64, 127
1, 141238, Note_off_c, 0, 69, 61
1, 141248, Note_off_c, 0, 64, 64
1, 141249, Note_off_c, 0, 60, 64
1, 141257, Note_off_c, 0, 72, 61
1, 141284, Note_off_c, 0, 76, 67
1, 141623, Note_on_c, 0, 71, 48
1, 141629, Note_on_c, 0, 74, 45
1, 141638, Note_on_c, 0, 86, 44
1, 141667, Note_off_c, 0, 74, 49
1, 141692, Note_on_c, 0, 87, 56
1, 141702, Note_off_c, 0, 86, 40
1, 141714, Note_off_c, 0, 71, 61
1, 141731, Note_on_c, 0, 75, 49
1, 141779, Note_on_c, 0, 88, 69
1, 141793, Note_on_c, 0, 72, 53
1, 141798, Note_off_c, 0, 75, 61
1, 141811, Note_on_c, 0, 76, 62
1, 141826, Note_off_c, 0, 87, 35
1, 141832, Note_on_c, 0, 84, 32
1, 141859, Note_off_c, 0, 72, 62
1, 141868, Note_off_c, 0, 84, 50
1, 141995, Note_off_c, 0, 76, 35
1, 142515, Note_on_c, 0, 76, 46
1, 142521, Note_on_c, 0, 64, 40
1, 142579, Note_off_c, 0, 88, 34
1, 142609, Note_off_c, 0, 76, 53
1, 142610, Note_off_c, 0, 64, 59
1, 143367, Note_on_c, 0, 74, 67
1, 143379, Note_on_c, 0, 70, 51
1, 143394, Note_on_c, 0, 58, 41
1, 143398, Note_on_c, 0, 62, 35
1, 143403, Note_on_c, 0, 65, 45
1, 143444, Control_c, 0, 64, 93
1, 143459, Control_c, 0, 64, 69
1, 143473, Control_c, 0, 64, 49
1, 143488, Control_c, 0, 64, 30
1, 143503, Control_c, 0, 64, 0
1, 143518, Control_c, 0, 64, 31
1, 143533, Control_c, 0, 64, 46
1, 143549, Control_c, 0, 64, 63
1, 143563, Control_c, 0, 64, 78
1, 143578, Control_c, 0, 64, 105
1, 143593, Control_c, 0, 64, 127
1, 143639, Note_off_c, 0, 58, 63
1, 143641, Note_off_c, 0, 65, 62
1, 143651, Note_off_c, 0, 62, 51
1, 143656, Note_off_c, 0, 70, 63
1, 143677, Note_off_c, 0, 74, 64
1, 144044, Note_on_c, 0, 73, 41
1, 144047, Note_on_c, 0, 85, 33
1, 144048, Note_on_c, 0, 88, 46
1, 144066, Note_on_c, 0, 76, 34
1, 144089, Note_off_c, 0, 85, 48
1, 144120, Note_off_c, 0, 76, 47
1, 144124, Note_off_c, 0, 88, 58
1, 144142, Note_off_c, 0, 73, 63
1, 144185, Note_on_c, 0, 89, 68
1, 144188, Note_on_c, 0, 74, 56
1, 144194, Note_on_c, 0, 77, 63
1, 144205, Note_on_c, 0, 86, 45
1, 144210, Note_off_c, 0, 89, 69
1, 144214, Note_off_c, 0, 74, 65
1, 144220, Note_off_c, 0, 77, 67
1, 144231, Note_off_c, 0, 86, 56
1, 145036, Note_on_c, 0, 74, 53
1, 145055, Note_on_c, 0, 65, 37
1, 145055, Note_on_c, 0, 69, 38
1, 145059, Note_on_c, 0, 57, 38
1, 145081, Note_on_c, 0, 62, 28
1, 145165, Control_c, 0, 64, 109
1, 145180, Control_c, 0, 64, 86
1, 145195, Control_c, 0, 64, 70
1, 145209, Control_c, 0, 64, 58
1, 145224, Control_c, 0, 64, 51
1, 145239, Control_c, 0, 64, 50
1, 145254, Control_c, 0, 64, 53
1, 145275, Control_c, 0, 64, 60
1, 145290, Control_c, 0, 64, 68
1, 145305, Control_c, 0, 64, 80
1, 145320, Control_c, 0, 64, 95
1, 145335, Control_c, 0, 64, 111
1, 145350, Control_c, 0, 64, 127
1, 145405, Note_off_c, 0, 57, 54
1, 145439, Note_off_c, 0, 62, 45
1, 145475, Note_off_c, 0, 65, 37
1, 145750, Note_on_c, 0, 76, 50
1, 145759, Note_on_c, 0, 64, 41
1, 145769, Note_off_c, 0, 69, 10
1, 145786, Note_off_c, 0, 74, 36
1, 145791, Note_off_c, 0, 64, 58
1, 145960, Note_on_c, 0, 73, 56
1, 145971, Note_on_c, 0, 68, 41
1, 145992, Note_on_c, 0, 61, 34
1, 145992, Note_on_c, 0, 64, 31
1, 146001, Note_on_c, 0, 56, 31
1, 146002, Control_c, 0, 64, 92
1, 146025, Control_c, 0, 64, 69
1, 146039, Control_c, 0, 64, 51
1, 146054, Control_c, 0, 64, 40
1, 146056, Note_off_c, 0, 76, 34
1, 146069, Control_c, 0, 64, 39
1, 146084, Control_c, 0, 64, 42
1, 146098, Control_c, 0, 64, 52
1, 146113, Control_c, 0, 64, 63
1, 146128, Control_c, 0, 64, 71
1, 146143, Control_c, 0, 64, 81
1, 146158, Control_c, 0, 64, 97
1, 146172, Control_c, 0, 64, 127
1, 146211, Note_off_c, 0, 56, 52
1, 146217, Note_off_c, 0, 64, 49
1, 146222, Note_off_c, 0, 61, 48
1, 146229, Note_off_c, 0, 68, 60
1, 146256, Note_off_c, 0, 73, 62
1, 146643, Note_on_c, 0, 90, 38
1, 146644, Note_on_c, 0, 78, 39
1, 146661, Note_on_c, 0, 75, 11
1, 146701, Note_off_c, 0, 78, 55
1, 146701, Note_off_c, 0, 90, 61
1, 146709, Note_off_c, 0, 75, 50
1, 146727, Note_on_c, 0, 91, 48
1, 146746, Note_on_c, 0, 79, 39
1, 146790, Note_off_c, 0, 79, 49
1, 146823, Note_on_c, 0, 92, 75
1, 146857, Note_on_c, 0, 76, 45
1, 146869, Note_on_c, 0, 88, 26
1, 146875, Note_on_c, 0, 80, 37
1, 146901, Note_off_c, 0, 80, 58
1, 146901, Note_off_c, 0, 91, 35
1, 146947, Note_off_c, 0, 76, 51
1, 146962, Note_off_c, 0, 88, 39
1, 147709, Note_on_c, 0, 80, 33
1, 147740, Note_on_c, 0, 68, 15
1, 147804, Note_off_c, 0, 68, 54
1, 147806, Note_off_c, 0, 92, 38
1, 147831, Note_off_c, 0, 80, 53
1, 148579, Note_on_c, 0, 62, 43
1, 148585, Note_on_c, 0, 57, 32
1, 148590, Note_on_c, 0, 53, 30
1, 148597, Note_on_c, 0, 38, 40
1, 148609, Note_on_c, 0, 50, 24
1, 148616, Note_on_c, 0, 45, 26
1, 148641, Control_c, 0, 64, 97
1, 148656, Control_c, 0, 64, 72
1, 148671, Control_c, 0, 64, 57
1, 148685, Control_c, 0, 64, 50
1, 148700, Control_c, 0, 64, 52
1, 148715, Control_c, 0, 64, 57
1, 148730, Control_c, 0, 64, 66
1, 148745, Control_c, 0, 64, 81
1, 148760, Control_c, 0, 64, 108
1, 148775, Control_c, 0, 64, 127
1, 148804, Note_off_c, 0, 53, 61
1, 148816, Note_off_c, 0, 57, 55
1, 148828, Note_off_c, 0, 38, 50
1, 148828, Note_off_c, 0, 45, 53
1, 148836, Note_off_c, 0, 50, 48
1, 148839, Note_off_c, 0, 62, 63
1, 149228, Note_on_c, 0, 91, 39
1, 149234, Note_on_c, 0, 67, 47
1, 149267, Note_off_c, 0, 67, 64
1, 149287, Note_off_c, 0, 91, 42
1, 149311, Note_on_c, 0, 92, 63
1, 149335, Note_on_c, 0, 68, 27
1, 149371, Note_off_c, 0, 68, 54
1, 149422, Note_on_c, 0, 93, 70
1, 149424, Note_on_c, 0, 57, 57
1, 149427, Note_on_c, 0, 81, 56
1, 149443, Note_on_c, 0, 89, 42
1, 149456, Note_on_c, 0, 65, 52
1, 149459, Note_off_c, 0, 92, 48
1, 149462, Note_on_c, 0, 69, 15
1, 149470, Note_off_c, 0, 57, 64
1, 149471, Note_off_c, 0, 81, 64
1, 149478, Note_off_c, 0, 89, 64
1, 149480, Note_off_c, 0, 65, 58
1, 149488, Note_off_c, 0, 93, 62
1, 149505, Note_off_c, 0, 69, 53
1, 150316, Note_on_c, 0, 62, 54
1, 150329, Note_on_c, 0, 38, 65
1, 150340, Note_on_c, 0, 57, 43
1, 150366, Note_on_c, 0, 45, 38
1, 150372, Note_on_c, 0, 53, 27
1, 150441, Poly_aftertouch_c, 0, 50, 127
1, 150545, Note_off_c, 0, 38, 61
1, 150561, Control_c, 0, 67, 122
1, 150574, Poly_aftertouch_c, 0, 50, 0
1, 150576, Control_c, 0, 67, 110
1, 150605, Control_c, 0, 67, 112
1, 150614, Note_off_c, 0, 57, 56
1, 150623, Note_off_c, 0, 62, 59
1, 150635, Control_c, 0, 67, 109
1, 150664, Note_off_c, 0, 45, 36
1, 150709, Control_c, 0, 67, 106
1, 150740, Control_c, 0, 67, 108
1, 150752, Note_off_c, 0, 53, 21
1, 150859, Control_c, 0, 67, 111
1, 150874, Control_c, 0, 67, 116
1, 150888, Control_c, 0, 67, 125
1, 150903, Note_on_c, 0, 64, 60
1, 150906, Note_on_c, 0, 40, 53
1, 150929, Note_on_c, 0, 45, 13
1, 150933, Control_c, 0, 67, 127
1, 150936, Note_off_c, 0, 40, 61
1, 150953, Note_off_c, 0, 64, 58
1, 150960, Poly_aftertouch_c, 0, 52, 127
1, 150981, Note_off_c, 0, 45, 43
1, 150990, Poly_aftertouch_c, 0, 52, 0
1, 151122, Note_on_c, 0, 45, 47
1, 151123, Note_on_c, 0, 60, 62
1, 151126, Note_on_c, 0, 36, 66
1, 151134, Note_on_c, 0, 57, 45
1, 151153, Note_on_c, 0, 53, 27
1, 151169, Note_on_c, 0, 48, 27
1, 151170, Control_c, 0, 64, 86
1, 151185, Control_c, 0, 64, 66
1, 151199, Control_c, 0, 64, 53
1, 151214, Control_c, 0, 64, 49
1, 151229, Control_c, 0, 64, 50
1, 151244, Control_c, 0, 64, 55
1, 151267, Control_c, 0, 64, 70
1, 151282, Control_c, 0, 64, 111
1, 151296, Control_c, 0, 64, 127
1, 151314, Note_off_c, 0, 48, 50
1, 151323, Note_off_c, 0, 53, 51
1, 151326, Note_off_c, 0, 45, 63
1, 151328, Note_off_c, 0, 36, 60
1, 151336, Note_off_c, 0, 57, 53
1, 151347, Note_off_c, 0, 60, 66
1, 151739, Note_on_c, 0, 91, 54
1, 151742, Note_on_c, 0, 67, 53
1, 151787, Note_off_c, 0, 67, 62
1, 151788, Note_on_c, 0, 68, 61
1, 151811, Note_off_c, 0, 91, 65
1, 151817, Note_off_c, 0, 68, 66
1, 151824, Note_on_c, 0, 92, 63
1, 151926, Note_on_c, 0, 89, 57
1, 151928, Note_on_c, 0, 93, 76
1, 151934, Note_on_c, 0, 81, 52
1, 151935, Note_on_c, 0, 65, 58
1, 151937, Note_on_c, 0, 69, 47
1, 151941, Note_on_c, 0, 57, 45
1, 151946, Note_off_c, 0, 92, 58
1, 151962, Note_off_c, 0, 69, 60
1, 151969, Note_off_c, 0, 65, 64
1, 151972, Note_off_c, 0, 81, 51
1, 151979, Note_off_c, 0, 57, 60
1, 151984, Note_off_c, 0, 89, 61
1, 152007, Note_off_c, 0, 93, 63
1, 152793, Note_on_c, 0, 33, 53
1, 152805, Note_on_c, 0, 57, 45
1, 152871, Note_off_c, 0, 33, 61
1, 152936, Note_off_c, 0, 57, 62
1, 153118, Control_c, 0, 67, 110
1, 153134, Control_c, 0, 67, 102
1, 153148, Control_c, 0, 67, 98
1, 153163, Control_c, 0, 67, 87
1, 153178, Control_c, 0, 67, 69
1, 153193, Control_c, 0, 67, 51
1, 153207, Control_c, 0, 67, 38
1, 153222, Control_c, 0, 67, 0
1, 153762, Note_on_c, 0, 62, 70
1, 153769, Note_on_c, 0, 57, 57
1, 153777, Note_on_c, 0, 53, 51
1, 153779, Note_on_c, 0, 50, 55
1, 153780, Note_on_c, 0, 38, 57
1, 153781, Note_on_c, 0, 45, 53
1, 153807, Control_c, 0, 64, 103
1, 153823, Control_c, 0, 64, 73
1, 153838, Control_c, 0, 64, 54
1, 153853, Control_c, 0, 64, 37
1, 153868, Control_c, 0, 64, 34
1, 153897, Control_c, 0, 64, 38
1, 153912, Control_c, 0, 64, 59
1, 153928, Control_c, 0, 64, 79
1, 153943, Control_c, 0, 64, 127
1, 154008, Note_off_c, 0, 53, 62
1, 154012, Note_off_c, 0, 38, 62
1, 154013, Note_off_c, 0, 57, 64
1, 154018, Note_off_c, 0, 45, 62
1, 154019, Note_off_c, 0, 50, 63
1, 154044, Note_off_c, 0, 62, 63
1, 154061, Control_c, 0, 67, 44
1, 154076, Control_c, 0, 67, 66
1, 154091, Control_c, 0, 67, 97
1, 154105, Control_c, 0, 67, 127
1, 154459, Note_on_c, 0, 88, 66
1, 154468, Note_on_c, 0, 85, 66
1, 154470, Note_on_c, 0, 61, 49
1, 154470, Note_on_c, 0, 64, 57
1, 154512, Note_off_c, 0, 85, 54
1, 154558, Note_off_c, 0, 61, 59
1, 154564, Note_off_c, 0, 64, 60
1, 154571, Note_off_c, 0, 88, 49
1, 154610, Note_on_c, 0, 89, 70
1, 154614, Note_on_c, 0, 62, 68
1, 154614, Note_on_c, 0, 86, 74
1, 154618, Note_on_c, 0, 65, 67
1, 154632, Note_on_c, 0, 77, 54
1, 154641, Note_off_c, 0, 62, 66
1, 154641, Note_off_c, 0, 65, 66
1, 154652, Note_off_c, 0, 77, 61
1, 154658, Note_off_c, 0, 86, 63
1, 154663, Note_off_c, 0, 89, 65
1, 155458, Note_on_c, 0, 62, 64
1, 155476, Note_on_c, 0, 57, 46
1, 155477, Note_on_c, 0, 38, 56
1, 155481, Note_on_c, 0, 50, 55
1, 155487, Note_on_c, 0, 45, 48
1, 155491, Note_on_c, 0, 53, 31
1, 155581, Note_off_c, 0, 38, 61
1, 155586, Note_off_c, 0, 50, 61
1, 155630, Note_off_c, 0, 53, 56
1, 155631, Note_off_c, 0, 57, 57
1, 155647, Note_off_c, 0, 45, 59
1, 155648, Note_off_c, 0, 62, 62
1, 155714, Note_on_c, 0, 45, 40
1, 155722, Note_on_c, 0, 60, 80
1, 155726, Note_on_c, 0, 36, 68
1, 155728, Note_on_c, 0, 48, 74
1, 155814, Note_off_c, 0, 48, 61
1, 155827, Note_off_c, 0, 36, 57
1, 155832, Control_c, 0, 67, 122
1, 155847, Control_c, 0, 67, 114
1, 155854, Note_off_c, 0, 45, 57
1, 155862, Control_c, 0, 67, 106
1, 155870, Note_off_c, 0, 60, 62
1, 155876, Control_c, 0, 67, 94
1, 155891, Control_c, 0, 67, 75
1, 155906, Control_c, 0, 67, 52
1, 155920, Control_c, 0, 67, 0
1, 155943, Note_on_c, 0, 38, 75
1, 155943, Note_on_c, 0, 62, 83
1, 155945, Note_on_c, 0, 45, 63
1, 155945, Note_on_c, 0, 50, 74
1, 155983, Note_off_c, 0, 45, 61
1, 155990, Note_off_c, 0, 38, 62
1, 156019, Note_off_c, 0, 50, 59
1, 156041, Note_off_c, 0, 62, 60
1, 156212, Note_on_c, 0, 64, 80
1, 156220, Note_on_c, 0, 60, 67
1, 156221, Note_on_c, 0, 48, 72
1, 156222, Note_on_c, 0, 40, 62
1, 156225, Note_on_c, 0, 52, 65
1, 156229, Note_on_c, 0, 57, 59
1, 156276, Control_c, 0, 64, 80
1, 156291, Control_c, 0, 64, 55
1, 156306, Control_c, 0, 64, 0
1, 156381, Control_c, 0, 64, 45
1, 156396, Control_c, 0, 64, 75
1, 156411, Control_c, 0, 64, 127
1, 156453, Note_off_c, 0, 57, 64
1, 156459, Note_off_c, 0, 60, 64
1, 156462, Note_off_c, 0, 40, 62
1, 156468, Note_off_c, 0, 48, 63
1, 156483, Note_off_c, 0, 52, 62
1, 156503, Note_off_c, 0, 64, 64
1, 156625, Control_c, 0, 67, 35
1, 156655, Control_c, 0, 67, 0
1, 156886, Note_on_c, 0, 86, 69
1, 156891, Note_on_c, 0, 83, 65
1, 156894, Note_on_c, 0, 59, 55
1, 156900, Note_on_c, 0, 62, 56
1, 156932, Note_off_c, 0, 83, 60
1, 156955, Note_off_c, 0, 86, 62
1, 156962, Note_off_c, 0, 59, 63
1, 156964, Note_off_c, 0, 62, 59
1, 157013, Note_on_c, 0, 60, 72
1, 157016, Note_on_c, 0, 88, 80
1, 157017, Note_on_c, 0, 64, 76
1, 157026, Note_on_c, 0, 84, 69
1, 157029, Note_on_c, 0, 76, 72
1, 157036, Note_off_c, 0, 60, 70
1, 157040, Note_off_c, 0, 64, 70
1, 157065, Note_off_c, 0, 76, 61
1, 157069, Note_off_c, 0, 84, 62
1, 157085, Note_off_c, 0, 88, 66
1, 157833, Note_on_c, 0, 57, 82
1, 157837, Note_on_c, 0, 33, 74
1, 157843, Note_on_c, 0, 45, 68
1, 157893, Note_off_c, 0, 33, 61
1, 157908, Note_off_c, 0, 45, 61
1, 157979, Note_off_c, 0, 57, 65
1, 158782, Note_on_c, 0, 67, 83
1, 158790, Note_on_c, 0, 58, 75
1, 158791, Note_on_c, 0, 62, 76
1, 158797, Note_on_c, 0, 50, 73
1, 158797, Note_on_c, 0, 55, 75
1, 158802, Note_on_c, 0, 43, 68
1, 158858, Control_c, 0, 64, 79
1, 158873, Control_c, 0, 64, 56
1, 158888, Control_c, 0, 64, 0
1, 158961, Control_c, 0, 64, 49
1, 158976, Control_c, 0, 64, 76
1, 158991, Control_c, 0, 64, 127
1, 159046, Note_off_c, 0, 58, 64
1, 159050, Note_off_c, 0, 62, 63
1, 159071, Note_off_c, 0, 43, 62
1, 159077, Note_off_c, 0, 55, 62
1, 159078, Note_off_c, 0, 67, 64
1, 159086, Note_off_c, 0, 50, 64
1, 159198, Control_c, 0, 67, 42
1, 159212, Control_c, 0, 67, 44
1, 159227, Control_c, 0, 67, 48
1, 159242, Control_c, 0, 67, 61
1, 159257, Control_c, 0, 67, 75
1, 159286, Control_c, 0, 67, 74
1, 159301, Control_c, 0, 67, 74
1, 159316, Control_c, 0, 67, 75
1, 159331, Control_c, 0, 67, 79
1, 159345, Control_c, 0, 67, 79
1, 159360, Control_c, 0, 67, 78
1, 159375, Control_c, 0, 67, 78
1, 159390, Control_c, 0, 67, 78
1, 159405, Control_c, 0, 67, 79
1, 159434, Control_c, 0, 67, 79
1, 159452, Note_on_c, 0, 84, 81
1, 159458, Note_on_c, 0, 60, 69
1, 159459, Note_on_c, 0, 81, 72
1, 159479, Control_c, 0, 67, 80
1, 159517, Control_c, 0, 67, 79
1, 159532, Control_c, 0, 67, 78
1, 159545, Note_off_c, 0, 81, 61
1, 159547, Control_c, 0, 67, 78
1, 159562, Control_c, 0, 67, 77
1, 159578, Note_off_c, 0, 84, 63
1, 159591, Control_c, 0, 67, 76
1, 159604, Note_off_c, 0, 60, 61
1, 159607, Note_on_c, 0, 86, 92
1, 159613, Note_on_c, 0, 67, 83
1, 159618, Note_on_c, 0, 74, 89
1, 159618, Note_on_c, 0, 82, 86
1, 159619, Note_on_c, 0, 62, 76
1, 159624, Note_on_c, 0, 70, 73
1, 159640, Note_on_c, 0, 84, 21
1, 159645, Note_off_c, 0, 70, 70
1, 159649, Note_off_c, 0, 67, 62
1, 159650, Control_c, 0, 67, 73
1, 159660, Note_off_c, 0, 62, 61
1, 159665, Control_c, 0, 67, 71
1, 159666, Note_off_c, 0, 74, 63
1, 159680, Control_c, 0, 67, 70
1, 159684, Note_off_c, 0, 84, 44
1, 159695, Control_c, 0, 67, 69
1, 159702, Note_off_c, 0, 82, 64
1, 159708, Note_off_c, 0, 86, 65
1, 159724, Control_c, 0, 67, 64
1, 159739, Control_c, 0, 67, 59
1, 159754, Control_c, 0, 67, 56
1, 159768, Control_c, 0, 67, 51
1, 159783, Control_c, 0, 67, 42
1, 159798, Control_c, 0, 67, 0
1, 160200, Note_on_c, 0, 65, 82
1, 160353, Note_on_c, 0, 67, 85
1, 160382, Note_off_c, 0, 65, 60
1, 160534, Note_on_c, 0, 65, 79
1, 160547, Note_on_c, 0, 62, 71
1, 160553, Note_on_c, 0, 56, 60
1, 160559, Note_on_c, 0, 46, 55
1, 160562, Note_on_c, 0, 34, 55
1, 160607, Control_c, 0, 64, 108
1, 160622, Control_c, 0, 64, 84
1, 160637, Control_c, 0, 64, 66
1, 160649, Note_off_c, 0, 67, 38
1, 160652, Control_c, 0, 64, 38
1, 160666, Control_c, 0, 64, 0
1, 160725, Control_c, 0, 64, 31
1, 160740, Control_c, 0, 64, 52
1, 160755, Control_c, 0, 64, 70
1, 160770, Control_c, 0, 64, 83
1, 160785, Control_c, 0, 64, 100
1, 160800, Control_c, 0, 64, 127
1, 160800, Control_c, 0, 67, 34
1, 160815, Control_c, 0, 67, 61
1, 160817, Note_off_c, 0, 56, 58
1, 160829, Control_c, 0, 67, 96
1, 160844, Control_c, 0, 67, 112
1, 160845, Note_off_c, 0, 34, 61
1, 160845, Note_off_c, 0, 46, 59
1, 160889, Control_c, 0, 67, 115
1, 160895, Note_off_c, 0, 65, 60
1, 160901, Note_off_c, 0, 62, 48
1, 160904, Control_c, 0, 67, 123
1, 160918, Control_c, 0, 67, 127
1, 161263, Note_on_c, 0, 64, 85
1, 161384, Note_off_c, 0, 64, 61
1, 161462, Note_on_c, 0, 65, 78
1, 161482, Note_on_c, 0, 60, 76
1, 161489, Control_c, 0, 64, 97
1, 161496, Note_on_c, 0, 57, 53
1, 161497, Note_on_c, 0, 48, 65
1, 161501, Note_on_c, 0, 41, 54
1, 161504, Control_c, 0, 64, 69
1, 161519, Control_c, 0, 64, 47
1, 161533, Control_c, 0, 64, 0
1, 161578, Control_c, 0, 64, 31
1, 161593, Control_c, 0, 64, 51
1, 161608, Control_c, 0, 64, 67
1, 161622, Control_c, 0, 64, 85
1, 161637, Control_c, 0, 64, 127
1, 161688, Note_off_c, 0, 57, 64
1, 161701, Note_off_c, 0, 60, 69
1, 161703, Note_off_c, 0, 48, 63
1, 161704, Note_off_c, 0, 41, 64
1, 161747, Note_off_c, 0, 65, 64
1, 162126, Note_on_c, 0, 83, 69
1, 162134, Note_on_c, 0, 59, 49
1, 162152, Note_on_c, 0, 80, 39
1, 162179, Note_off_c, 0, 80, 55
1, 162219, Note_off_c, 0, 83, 60
1, 162253, Note_off_c, 0, 59, 52
1, 162288, Note_on_c, 0, 84, 70
1, 162290, Note_on_c, 0, 65, 69
1, 162291, Note_on_c, 0, 81, 68
1, 162299, Note_on_c, 0, 69, 60
1, 162303, Note_on_c, 0, 72, 63
1, 162305, Note_on_c, 0, 60, 56
1, 162315, Note_off_c, 0, 65, 68
1, 162318, Note_off_c, 0, 69, 64
1, 162321, Note_off_c, 0, 81, 64
1, 162328, Note_off_c, 0, 72, 66
1, 162333, Note_off_c, 0, 60, 67
1, 162336, Note_off_c, 0, 84, 65
1, 162729, Note_on_c, 0, 64, 80
1, 162895, Note_off_c, 0, 64, 58
1, 163238, Note_on_c, 0, 63, 61
1, 163251, Note_on_c, 0, 59, 49
1, 163268, Note_on_c, 0, 32, 52
1, 163269, Note_on_c, 0, 53, 39
1, 163322, Poly_aftertouch_c, 0, 44, 127
1, 163324, Note_on_c, 0, 44, 3
1, 163365, Control_c, 0, 64, 94
1, 163380, Control_c, 0, 64, 72
1, 163394, Control_c, 0, 64, 54
1, 163409, Control_c, 0, 64, 0
1, 163454, Control_c, 0, 64, 34
1, 163468, Control_c, 0, 64, 50
1, 163483, Control_c, 0, 64, 63
1, 163498, Control_c, 0, 64, 71
1, 163510, Note_off_c, 0, 44, 31
1, 163514, Control_c, 0, 64, 81
1, 163529, Control_c, 0, 64, 88
1, 163543, Control_c, 0, 64, 96
1, 163558, Control_c, 0, 64, 114
1, 163573, Control_c, 0, 64, 127
1, 163611, Note_off_c, 0, 53, 57
1, 163625, Note_off_c, 0, 32, 39
1, 163653, Note_off_c, 0, 59, 61
1, 163657, Note_off_c, 0, 63, 60
1, 164170, Note_on_c, 0, 62, 54
1, 164253, Note_off_c, 0, 62, 57
1, 164402, Note_on_c, 0, 63, 51
1, 164418, Note_on_c, 0, 55, 43
1, 164421, Note_on_c, 0, 58, 47
1, 164439, Note_on_c, 0, 39, 43
1, 164445, Note_on_c, 0, 46, 40
1, 164469, Control_c, 0, 64, 104
1, 164484, Control_c, 0, 64, 78
1, 164499, Control_c, 0, 64, 58
1, 164514, Control_c, 0, 64, 0
1, 164588, Control_c, 0, 64, 38
1, 164603, Control_c, 0, 64, 57
1, 164618, Control_c, 0, 64, 70
1, 164632, Control_c, 0, 64, 84
1, 164647, Control_c, 0, 64, 100
1, 164662, Control_c, 0, 64, 127
1, 164690, Note_off_c, 0, 55, 58
1, 164712, Note_off_c, 0, 58, 62
1, 164721, Note_off_c, 0, 46, 61
1, 164744, Note_off_c, 0, 39, 39
1, 164754, Note_off_c, 0, 63, 62
1, 165196, Note_on_c, 0, 57, 44
1, 165202, Note_on_c, 0, 81, 47
1, 165221, Note_on_c, 0, 78, 25
1, 165256, Note_off_c, 0, 78, 49
1, 165295, Note_off_c, 0, 81, 62
1, 165310, Note_off_c, 0, 57, 57
1, 165408, Note_on_c, 0, 58, 46
1, 165417, Note_on_c, 0, 82, 52
1, 165424, Note_on_c, 0, 79, 43
1, 165426, Note_on_c, 0, 63, 33
1, 165444, Note_on_c, 0, 70, 28
1, 165457, Note_off_c, 0, 58, 63
1, 165457, Note_off_c, 0, 63, 51
1, 165492, Note_off_c, 0, 70, 52
1, 165495, Note_off_c, 0, 79, 60
1, 165500, Note_off_c, 0, 82, 60
1, 166636, Note_on_c, 0, 62, 42
1, 166658, Note_on_c, 0, 57, 35
1, 166659, Note_on_c, 0, 55, 29
1, 166666, Note_on_c, 0, 33, 42
1, 166753, Poly_aftertouch_c, 0, 45, 127
1, 166760, Control_c, 0, 64, 123
1, 166775, Control_c, 0, 64, 95
1, 166790, Control_c, 0, 64, 80
1, 166805, Control_c, 0, 64, 65
1, 166820, Control_c, 0, 64, 51
1, 166834, Control_c, 0, 64, 41
1, 166849, Control_c, 0, 64, 40
1, 166864, Control_c, 0, 64, 40
1, 166878, Control_c, 0, 64, 47
1, 166893, Control_c, 0, 64, 58
1, 166908, Control_c, 0, 64, 66
1, 166923, Control_c, 0, 64, 73
1, 166938, Control_c, 0, 64, 80
1, 166952, Control_c, 0, 64, 87
1, 166967, Control_c, 0, 64, 96
1, 166990, Control_c, 0, 64, 108
1, 167005, Control_c, 0, 64, 127
1, 167032, Poly_aftertouch_c, 0, 45, 0
1, 167120, Note_off_c, 0, 33, 52
1, 167126, Note_off_c, 0, 55, 42
1, 167163, Note_off_c, 0, 57, 40
1, 167325, Note_off_c, 0, 62, 28
1, 167593, Note_on_c, 0, 64, 41
1, 167682, Note_off_c, 0, 64, 57
1, 167872, Note_on_c, 0, 62, 42
1, 167895, Note_on_c, 0, 38, 31
1, 167897, Note_on_c, 0, 53, 33
1, 167906, Note_on_c, 0, 57, 23
1, 167920, Note_on_c, 0, 45, 24
1, 167931, Control_c, 0, 64, 102
1, 167946, Control_c, 0, 64, 77
1, 167961, Control_c, 0, 64, 60
1, 167975, Control_c, 0, 64, 44
1, 167990, Control_c, 0, 64, 39
1, 168005, Control_c, 0, 64, 41
1, 168020, Control_c, 0, 64, 49
1, 168035, Control_c, 0, 64, 61
1, 168050, Control_c, 0, 64, 71
1, 168064, Control_c, 0, 64, 83
1, 168079, Control_c, 0, 64, 101
1, 168094, Control_c, 0, 64, 127
1, 168121, Note_off_c, 0, 53, 60
1, 168135, Note_off_c, 0, 38, 39
1, 168141, Note_off_c, 0, 45, 42
1, 168157, Note_off_c, 0, 57, 50
1, 168190, Note_off_c, 0, 62, 62
1, 168595, Note_on_c, 0, 63, 47
1, 168597, Note_on_c, 0, 79, 37
1, 168723, Note_on_c, 0, 80, 47
1, 168732, Note_off_c, 0, 79, 37
1, 168758, Note_on_c, 0, 64, 52
1, 168767, Note_off_c, 0, 63, 38
1, 168806, Note_off_c, 0, 64, 56
1, 168875, Note_off_c, 0, 80, 34
1, 168972, Note_on_c, 0, 81, 49
1, 168988, Note_on_c, 0, 57, 44
1, 169011, Note_on_c, 0, 69, 35
1, 169027, Poly_aftertouch_c, 0, 65, 127
1, 169066, Note_off_c, 0, 57, 50
1, 169078, Poly_aftertouch_c, 0, 65, 0
1, 169101, Poly_aftertouch_c, 0, 77, 0
1, 169353, Note_off_c, 0, 81, 37
1, 169444, Note_off_c, 0, 69, 56
1, 170242, Note_on_c, 0, 62, 26
1, 170245, Note_on_c, 0, 50, 31
1, 170398, Note_off_c, 0, 50, 35
1, 170467, Note_off_c, 0, 62, 39
1, 171430, Control_c, 0, 64, 112
1, 171444, Control_c, 0, 64, 100
1, 171459, Control_c, 0, 64, 91
1, 171482, Control_c, 0, 64, 84
1, 171498, Control_c, 0, 64, 79
1, 171513, Control_c, 0, 64, 75
1, 171528, Control_c, 0, 64, 71
1, 171543, Control_c, 0, 64, 67
1, 171557, Control_c, 0, 64, 65
1, 171572, Control_c, 0, 64, 64
1, 171587, Control_c, 0, 64, 63
1, 171602, Control_c, 0, 64, 62
1, 171617, Control_c, 0, 64, 60
1, 171631, Control_c, 0, 64, 58
1, 171646, Control_c, 0, 64, 57
1, 171661, Control_c, 0, 64, 54
1, 171675, Control_c, 0, 64, 46
1, 171690, Control_c, 0, 64, 0
1, 171786, Note_on_c, 0, 74, 94
1, 171787, Note_on_c, 0, 38, 75
1, 171787, Note_on_c, 0, 50, 82
1, 171787, Note_on_c, 0, 69, 91
1, 171787, Note_on_c, 0, 81, 76
1, 171791, Note_on_c, 0, 45, 74
1, 171794, Control_c, 0, 67, 106
1, 171807, Note_off_c, 0, 81, 71
1, 171809, Control_c, 0, 64, 58
1, 171809, Control_c, 0, 67, 39
1, 171811, Note_off_c, 0, 38, 66
1, 171811, Note_off_c, 0, 50, 69
1, 171812, Note_off_c, 0, 74, 68
1, 171816, Note_off_c, 0, 69, 67
1, 171821, Note_off_c, 0, 45, 65
1, 171823, Control_c, 0, 64, 127
1, 171823, Control_c, 0, 67, 0
1, 171921, Note_on_c, 0, 45, 56
1, 171943, Note_on_c, 0, 57, 70
1, 171951, Note_off_c, 0, 45, 64
1, 171967, Note_off_c, 0, 57, 67
1, 172031, Control_c, 0, 64, 82
1, 172046, Note_on_c, 0, 52, 60
1, 172046, Control_c, 0, 64, 61
1, 172053, Note_on_c, 0, 64, 51
1, 172061, Control_c, 0, 64, 0
1, 172070, Note_off_c, 0, 52, 58
1, 172078, Note_off_c, 0, 64, 58
1, 172081, Note_on_c, 0, 65, 8
1, 172130, Note_off_c, 0, 65, 28
1, 172145, Note_on_c, 0, 50, 75
1, 172154, Note_on_c, 0, 62, 74
1, 172170, Note_off_c, 0, 50, 67
1, 172179, Note_off_c, 0, 62, 69
1, 172267, Note_on_c, 0, 67, 79
1, 172285, Note_on_c, 0, 55, 64
1, 172294, Note_off_c, 0, 67, 65
1, 172316, Note_off_c, 0, 55, 64
1, 172392, Note_on_c, 0, 52, 61
1, 172395, Note_on_c, 0, 64, 63
1, 172418, Note_off_c, 0, 52, 63
1, 172419, Note_off_c, 0, 64, 65
1, 172496, Note_on_c, 0, 57, 89
1, 172500, Note_on_c, 0, 69, 93
1, 172513, Control_c, 0, 64, 67
1, 172518, Note_off_c, 0, 57, 72
1, 172525, Note_off_c, 0, 69, 65
1, 172528, Control_c, 0, 64, 127
1, 172857, Note_on_c, 0, 40, 72
1, 172857, Note_on_c, 0, 57, 47
1, 172859, Note_on_c, 0, 33, 63
1, 172862, Note_on_c, 0, 45, 71
1, 172869, Note_on_c, 0, 52, 38
1, 172869, Note_on_c, 0, 64, 54
1, 172879, Note_off_c, 0, 57, 60
1, 172887, Note_off_c, 0, 33, 56
1, 172888, Note_off_c, 0, 40, 63
1, 172892, Note_off_c, 0, 45, 65
1, 172897, Note_off_c, 0, 64, 65
1, 172898, Control_c, 0, 64, 83
1, 172904, Note_off_c, 0, 52, 49
1, 172913, Control_c, 0, 64, 58
1, 172928, Control_c, 0, 64, 0
1, 173016, Note_on_c, 0, 74, 57
1, 173020, Note_on_c, 0, 62, 66
1, 173037, Note_off_c, 0, 74, 59
1, 173039, Note_off_c, 0, 62, 64
1, 173124, Note_on_c, 0, 64, 57
1, 173125, Note_on_c, 0, 76, 60
1, 173144, Note_off_c, 0, 76, 64
1, 173145, Note_off_c, 0, 64, 64
1, 173232, Note_on_c, 0, 57, 84
1, 173239, Note_on_c, 0, 69, 98
1, 173256, Note_off_c, 0, 57, 70
1, 173262, Control_c, 0, 64, 34
1, 173276, Note_off_c, 0, 69, 64
1, 173277, Control_c, 0, 64, 83
1, 173293, Control_c, 0, 64, 127
1, 173555, Note_on_c, 0, 74, 100
1, 173562, Note_on_c, 0, 81, 78
1, 173564, Note_on_c, 0, 50, 83
1, 173565, Note_on_c, 0, 45, 83
1, 173565, Note_on_c, 0, 69, 82
1, 173567, Note_on_c, 0, 38, 82
1, 173582, Note_off_c, 0, 81, 73
1, 173584, Note_off_c, 0, 74, 64
1, 173585, Note_off_c, 0, 69, 69
1, 173588, Note_off_c, 0, 50, 70
1, 173589, Note_off_c, 0, 45, 66
1, 173590, Note_off_c, 0, 38, 66
1, 173647, Control_c, 0, 64, 108
1, 173662, Control_c, 0, 64, 72
1, 173677, Control_c, 0, 64, 44
1, 173692, Control_c, 0, 64, 0
1, 173698, Note_on_c, 0, 45, 40
1, 173700, Note_on_c, 0, 57, 66
1, 173736, Note_off_c, 0, 57, 65
1, 173750, Note_off_c, 0, 45, 28
1, 173812, Note_on_c, 0, 64, 65
1, 173814, Note_on_c, 0, 52, 51
1, 173841, Note_off_c, 0, 64, 66
1, 173843, Note_off_c, 0, 52, 56
1, 173938, Note_on_c, 0, 62, 52
1, 173947, Note_on_c, 0, 50, 25
1, 173947, Note_off_c, 0, 50, 127
1, 173962, Note_off_c, 0, 62, 57
1, 174035, Note_on_c, 0, 67, 63
1, 174053, Note_on_c, 0, 55, 44
1, 174062, Note_off_c, 0, 67, 65
1, 174086, Note_off_c, 0, 55, 51
1, 174151, Note_on_c, 0, 52, 52
1, 174164, Note_on_c, 0, 64, 47
1, 174181, Note_off_c, 0, 52, 56
1, 174192, Note_off_c, 0, 64, 57
1, 174259, Note_on_c, 0, 57, 78
1, 174262, Control_c, 0, 64, 41
1, 174267, Note_on_c, 0, 69, 82
1, 174277, Control_c, 0, 64, 91
1, 174281, Note_off_c, 0, 57, 69
1, 174289, Note_off_c, 0, 69, 67
1, 174292, Control_c, 0, 64, 127
1, 174583, Note_on_c, 0, 45, 80
1, 174585, Note_on_c, 0, 57, 73
1, 174586, Note_on_c, 0, 64, 78
1, 174590, Note_on_c, 0, 48, 83
1, 174590, Note_on_c, 0, 52, 63
1, 174593, Note_on_c, 0, 36, 54
1, 174609, Note_off_c, 0, 45, 65
1, 174613, Note_off_c, 0, 57, 64
1, 174613, Note_off_c, 0, 52, 62
1, 174617, Note_off_c, 0, 48, 65
1, 174622, Note_off_c, 0, 64, 64
1, 174627, Note_off_c, 0, 36, 52
1, 174640, Control_c, 0, 64, 106
1, 174655, Control_c, 0, 64, 74
1, 174670, Control_c, 0, 64, 53
1, 174685, Control_c, 0, 64, 0
1, 174726, Note_on_c, 0, 74, 79
1, 174741, Note_on_c, 0, 62, 63
1, 174749, Note_off_c, 0, 74, 70
1, 174762, Note_off_c, 0, 62, 62
1, 174843, Note_on_c, 0, 76, 71
1, 174845, Note_on_c, 0, 64, 61
1, 174864, Note_off_c, 0, 76, 65
1, 174874, Note_off_c, 0, 64, 66
1, 174955, Note_on_c, 0, 57, 83
1, 174962, Note_on_c, 0, 69, 97
1, 174980, Note_off_c, 0, 57, 70
1, 174982, Control_c, 0, 64, 30
1, 174997, Control_c, 0, 64, 84
1, 175002, Note_off_c, 0, 69, 62
1, 175011, Control_c, 0, 64, 127
1, 175069, Poly_aftertouch_c, 0, 71, 0
1, 175285, Note_on_c, 0, 41, 81
1, 175286, Note_on_c, 0, 53, 85
1, 175287, Note_on_c, 0, 77, 89
1, 175288, Note_on_c, 0, 48, 90
1, 175288, Note_on_c, 0, 69, 99
1, 175300, Note_on_c, 0, 81, 62
1, 175311, Note_off_c, 0, 48, 69
1, 175311, Note_off_c, 0, 53, 66
1, 175311, Note_off_c, 0, 77, 66
1, 175313, Note_off_c, 0, 41, 68
1, 175317, Note_off_c, 0, 69, 69
1, 175318, Note_off_c, 0, 81, 64
1, 175374, Control_c, 0, 64, 83
1, 175389, Control_c, 0, 64, 59
1, 175404, Control_c, 0, 64, 0
1, 175411, Note_on_c, 0, 48, 67
1, 175440, Note_on_c, 0, 60, 51
1, 175440, Note_off_c, 0, 48, 61
1, 175464, Note_off_c, 0, 60, 59
1, 175531, Note_on_c, 0, 65, 68
1, 175557, Note_off_c, 0, 65, 68
1, 175642, Note_on_c, 0, 50, 52
1, 175653, Note_on_c, 0, 62, 55
1, 175671, Note_off_c, 0, 50, 57
1, 175675, Note_off_c, 0, 62, 61
1, 175746, Note_on_c, 0, 67, 67
1, 175770, Note_off_c, 0, 67, 68
1, 175773, Note_on_c, 0, 55, 44
1, 175806, Note_off_c, 0, 55, 52
1, 175858, Note_on_c, 0, 64, 68
1, 175859, Note_on_c, 0, 52, 60
1, 175886, Note_off_c, 0, 64, 67
1, 175888, Note_off_c, 0, 52, 63
1, 175975, Control_c, 0, 64, 31
1, 175976, Note_on_c, 0, 69, 97
1, 175977, Note_on_c, 0, 57, 89
1, 175990, Control_c, 0, 64, 84
1, 175999, Note_off_c, 0, 57, 70
1, 176005, Control_c, 0, 64, 127
1, 176006, Note_off_c, 0, 69, 63
1, 176299, Note_on_c, 0, 40, 64
1, 176308, Note_on_c, 0, 52, 66
1, 176309, Note_on_c, 0, 48, 61
1, 176309, Note_on_c, 0, 76, 74
1, 176311, Note_on_c, 0, 81, 69
1, 176318, Note_on_c, 0, 69, 67
1, 176331, Note_off_c, 0, 40, 63
1, 176332, Note_off_c, 0, 76, 71
1, 176333, Control_c, 0, 64, 98
1, 176334, Note_off_c, 0, 69, 69
1, 176335, Note_off_c, 0, 81, 68
1, 176336, Note_off_c, 0, 48, 58
1, 176337, Note_off_c, 0, 52, 64
1, 176347, Control_c, 0, 64, 66
1, 176362, Control_c, 0, 64, 0
1, 176444, Note_on_c, 0, 74, 59
1, 176449, Note_on_c, 0, 62, 44
1, 176464, Note_off_c, 0, 74, 61
1, 176478, Note_off_c, 0, 62, 35
1, 176543, Note_on_c, 0, 76, 80
1, 176557, Note_on_c, 0, 64, 62
1, 176563, Note_off_c, 0, 76, 72
1, 176584, Note_off_c, 0, 64, 67
1, 176660, Note_on_c, 0, 57, 85
1, 176664, Note_on_c, 0, 69, 100
1, 176673, Control_c, 0, 64, 50
1, 176681, Note_off_c, 0, 57, 72
1, 176688, Control_c, 0, 64, 127
1, 176699, Note_off_c, 0, 69, 66
1, 176992, Note_on_c, 0, 46, 73
1, 176995, Note_on_c, 0, 38, 55
1, 176998, Note_on_c, 0, 74, 84
1, 177000, Note_on_c, 0, 50, 62
1, 177005, Note_on_c, 0, 69, 72
1, 177009, Note_on_c, 0, 81, 65
1, 177015, Note_off_c, 0, 46, 66
1, 177019, Note_off_c, 0, 74, 71
1, 177023, Note_off_c, 0, 69, 73
1, 177029, Note_off_c, 0, 38, 52
1, 177029, Note_off_c, 0, 50, 65
1, 177034, Note_off_c, 0, 81, 67
1, 177049, Control_c, 0, 64, 85
1, 177063, Control_c, 0, 64, 59
1, 177078, Control_c, 0, 64, 0
1, 177124, Note_on_c, 0, 64, 66
1, 177128, Note_on_c, 0, 76, 66
1, 177146, Note_off_c, 0, 76, 65
1, 177150, Note_off_c, 0, 64, 66
1, 177232, Note_on_c, 0, 77, 85
1, 177244, Note_on_c, 0, 65, 59
1, 177260, Note_off_c, 0, 77, 66
1, 177273, Note_off_c, 0, 65, 65
1, 177343, Note_on_c, 0, 58, 75
1, 177347, Control_c, 0, 64, 35
1, 177347, Note_on_c, 0, 70, 96
1, 177361, Control_c, 0, 64, 102
1, 177366, Note_off_c, 0, 58, 67
1, 177376, Control_c, 0, 64, 127
1, 177376, Note_off_c, 0, 70, 65
1, 177635, Control_c, 0, 64, 78
1, 177650, Control_c, 0, 64, 43
1, 177665, Control_c, 0, 64, 0
1, 177709, Control_c, 0, 64, 41
1, 177710, Note_on_c, 0, 33, 58
1, 177710, Note_on_c, 0, 45, 63
1, 177714, Note_on_c, 0, 81, 72
1, 177716, Note_on_c, 0, 76, 73
1, 177716, Note_on_c, 0, 69, 74
1, 177719, Note_on_c, 0, 40, 48
1, 177724, Control_c, 0, 64, 75
1, 177739, Note_off_c, 0, 69, 70
1, 177739, Note_off_c, 0, 76, 69
1, 177739, Control_c, 0, 64, 127
1, 177740, Note_off_c, 0, 81, 65
1, 177741, Note_off_c, 0, 33, 54
1, 177742, Note_off_c, 0, 45, 64
1, 177751, Note_off_c, 0, 40, 54
1, 177855, Note_on_c, 0, 80, 63
1, 177872, Note_on_c, 0, 56, 55
1, 177883, Note_off_c, 0, 80, 65
1, 177885, Note_on_c, 0, 68, 29
1, 177906, Note_off_c, 0, 56, 60
1, 177921, Note_off_c, 0, 68, 45
1, 177958, Note_on_c, 0, 81, 78
1, 177959, Note_on_c, 0, 69, 85
1, 177966, Note_on_c, 0, 80, 53
1, 177971, Note_on_c, 0, 52, 65
1, 177979, Note_on_c, 0, 57, 59
1, 177992, Note_off_c, 0, 80, 65
1, 177999, Note_on_c, 0, 45, 31
1, 177999, Note_off_c, 0, 69, 65
1, 178002, Note_off_c, 0, 81, 63
1, 178005, Note_off_c, 0, 52, 63
1, 178008, Note_off_c, 0, 57, 65
1, 178026, Note_off_c, 0, 45, 46
1, 178054, Note_on_c, 0, 52, 83
1, 178054, Note_on_c, 0, 81, 96
1, 178056, Note_on_c, 0, 57, 96
1, 178056, Note_on_c, 0, 76, 96
1, 178057, Note_on_c, 0, 69, 96
1, 178062, Note_on_c, 0, 45, 67
1, 178077, Note_on_c, 0, 80, 52
1, 178077, Note_off_c, 0, 80, 127
1, 178077, Note_off_c, 0, 69, 69
1, 178077, Note_off_c, 0, 76, 68
1, 178088, Note_off_c, 0, 52, 63
1, 178089, Note_off_c, 0, 45, 64
1, 178093, Note_off_c, 0, 57, 66
1, 178095, Note_off_c, 0, 81, 70
1, 178194, Note_on_c, 0, 80, 69
1, 178196, Note_on_c, 0, 92, 89
1, 178208, Note_on_c, 0, 68, 78
1, 178222, Note_off_c, 0, 92, 73
1, 178226, Note_off_c, 0, 80, 69
1, 178241, Note_off_c, 0, 68, 57
1, 178304, Note_on_c, 0, 81, 94
1, 178304, Note_on_c, 0, 93, 91
1, 178315, Note_on_c, 0, 92, 62
1, 178319, Note_on_c, 0, 64, 68
1, 178331, Note_on_c, 0, 69, 53
1, 178338, Note_off_c, 0, 81, 68
1, 178339, Note_off_c, 0, 92, 67
1, 178343, Note_off_c, 0, 93, 65
1, 178358, Note_off_c, 0, 64, 62
1, 178358, Note_off_c, 0, 69, 59
1, 178369, Control_c, 0, 64, 96
1, 178384, Control_c, 0, 64, 60
1, 178396, Note_on_c, 0, 64, 93
1, 178399, Control_c, 0, 64, 0
1, 178399, Note_on_c, 0, 57, 64
1, 178399, Note_on_c, 0, 69, 95
1, 178403, Note_on_c, 0, 88, 111
1, 178403, Note_on_c, 0, 93, 110
1, 178404, Note_on_c, 0, 81, 115
1, 178414, Control_c, 0, 64, 63
1, 178420, Note_off_c, 0, 69, 66
1, 178428, Note_off_c, 0, 81, 73
1, 178429, Control_c, 0, 64, 127
1, 178429, Note_off_c, 0, 64, 68
1, 178431, Note_off_c, 0, 57, 66
1, 178431, Note_off_c, 0, 88, 72
1, 178432, Note_off_c, 0, 93, 69
1, 178576, Control_c, 0, 64, 74
1, 178591, Control_c, 0, 64, 40
1, 178606, Control_c, 0, 64, 0
1, 178832, Note_on_c, 0, 69, 103
1, 178834, Note_on_c, 0, 50, 90
1, 178834, Note_on_c, 0, 74, 99
1, 178834, Note_on_c, 0, 45, 85
1, 178836, Note_on_c, 0, 81, 86
1, 178837, Note_on_c, 0, 38, 80
1, 178844, Control_c, 0, 64, 71
1, 178853, Note_off_c, 0, 81, 72
1, 178856, Note_off_c, 0, 50, 70
1, 178858, Control_c, 0, 64, 127
1, 178859, Note_off_c, 0, 45, 69
1, 178864, Note_off_c, 0, 69, 65
1, 178864, Note_off_c, 0, 74, 66
1, 178867, Note_off_c, 0, 38, 63
1, 179002, Note_on_c, 0, 45, 53
1, 179010, Note_on_c, 0, 57, 66
1, 179030, Note_off_c, 0, 45, 51
1, 179037, Note_off_c, 0, 57, 64
1, 179088, Control_c, 0, 64, 92
1, 179103, Control_c, 0, 64, 63
1, 179107, Note_on_c, 0, 64, 71
1, 179118, Control_c, 0, 64, 0
1, 179125, Note_on_c, 0, 52, 46
1, 179132, Note_off_c, 0, 64, 66
1, 179160, Note_off_c, 0, 52, 52
1, 179220, Note_on_c, 0, 62, 71
1, 179224, Note_on_c, 0, 50, 63
1, 179246, Note_off_c, 0, 62, 67
1, 179253, Note_off_c, 0, 50, 65
1, 179322, Note_on_c, 0, 67, 71
1, 179344, Note_on_c, 0, 55, 52
1, 179350, Note_off_c, 0, 67, 64
1, 179371, Note_off_c, 0, 55, 58
1, 179442, Note_on_c, 0, 64, 69
1, 179447, Note_on_c, 0, 52, 59
1, 179472, Note_off_c, 0, 64, 67
1, 179477, Note_off_c, 0, 52, 64
1, 179548, Note_on_c, 0, 69, 95
1, 179550, Note_on_c, 0, 57, 87
1, 179573, Note_off_c, 0, 57, 71
1, 179573, Note_off_c, 0, 69, 68
1, 179578, Control_c, 0, 64, 77
1, 179593, Control_c, 0, 64, 127
1, 179880, Note_on_c, 0, 40, 72
1, 179881, Note_on_c, 0, 33, 62
1, 179882, Note_on_c, 0, 45, 78
1, 179882, Note_on_c, 0, 81, 88
1, 179884, Note_on_c, 0, 76, 84
1, 179886, Note_on_c, 0, 88, 79
1, 179904, Note_off_c, 0, 76, 71
1, 179904, Note_off_c, 0, 88, 72
1, 179906, Note_off_c, 0, 81, 63
1, 179906, Note_off_c, 0, 40, 65
1, 179910, Note_off_c, 0, 45, 65
1, 179910, Note_off_c, 0, 33, 55
1, 179941, Control_c, 0, 64, 86
1, 179955, Control_c, 0, 64, 58
1, 179970, Control_c, 0, 64, 0
1, 180013, Note_on_c, 0, 72, 81
1, 180033, Note_off_c, 0, 72, 71
1, 180053, Note_on_c, 0, 62, 15
1, 180053, Note_off_c, 0, 62, 127
1, 180125, Note_on_c, 0, 76, 74
1, 180142, Note_on_c, 0, 64, 58
1, 180149, Note_off_c, 0, 76, 71
1, 180170, Note_off_c, 0, 64, 66
1, 180242, Note_on_c, 0, 69, 93
1, 180245, Note_on_c, 0, 57, 75
1, 180271, Note_off_c, 0, 57, 67
1, 180278, Note_off_c, 0, 69, 64
1, 180283, Control_c, 0, 64, 59
1, 180298, Control_c, 0, 64, 127
1, 180557, Note_on_c, 0, 77, 95
1, 180558, Note_on_c, 0, 41, 89
1, 180560, Note_on_c, 0, 53, 91
1, 180560, Note_on_c, 0, 72, 95
1, 180560, Note_on_c, 0, 48, 96
1, 180563, Note_on_c, 0, 84, 78
1, 180581, Note_off_c, 0, 84, 73
1, 180582, Note_off_c, 0, 53, 70
1, 180584, Note_off_c, 0, 48, 69
1, 180584, Note_off_c, 0, 72, 66
1, 180587, Note_off_c, 0, 77, 69
1, 180588, Note_off_c, 0, 41, 66
1, 180630, Control_c, 0, 64, 104
1, 180645, Control_c, 0, 64, 68
1, 180660, Control_c, 0, 64, 0
1, 180704, Note_on_c, 0, 50, 52
1, 180710, Note_on_c, 0, 60, 50
1, 180718, Note_on_c, 0, 62, 38
1, 180736, Note_off_c, 0, 50, 55
1, 180736, Note_off_c, 0, 60, 58
1, 180751, Note_off_c, 0, 62, 33
1, 180798, Note_on_c, 0, 67, 65
1, 180825, Note_off_c, 0, 67, 67
1, 180909, Note_on_c, 0, 53, 58
1, 180916, Note_on_c, 0, 65, 52
1, 180934, Note_off_c, 0, 53, 61
1, 180939, Note_off_c, 0, 65, 59
1, 181010, Note_on_c, 0, 70, 74
1, 181022, Note_on_c, 0, 58, 56
1, 181033, Note_off_c, 0, 70, 70
1, 181052, Note_off_c, 0, 58, 65
1, 181126, Note_on_c, 0, 55, 60
1, 181128, Note_on_c, 0, 67, 71
1, 181153, Note_off_c, 0, 67, 68
1, 181157, Note_off_c, 0, 55, 64
1, 181238, Note_on_c, 0, 60, 92
1, 181240, Note_on_c, 0, 72, 104
1, 181261, Control_c, 0, 64, 58
1, 181268, Note_off_c, 0, 72, 71
1, 181271, Note_off_c, 0, 60, 67
1, 181275, Control_c, 0, 64, 127
1, 181571, Note_on_c, 0, 36, 54
1, 181578, Note_on_c, 0, 91, 69
1, 181579, Note_on_c, 0, 48, 78
1, 181591, Note_on_c, 0, 79, 59
1, 181597, Note_on_c, 0, 84, 48
1, 181599, Note_off_c, 0, 36, 63
1, 181605, Note_off_c, 0, 91, 68
1, 181607, Note_off_c, 0, 48, 66
1, 181610, Note_off_c, 0, 79, 66
1, 181622, Note_off_c, 0, 84, 59
1, 181646, Control_c, 0, 64, 80
1, 181649, Poly_aftertouch_c, 0, 43, 127
1, 181660, Control_c, 0, 64, 57
1, 181673, Poly_aftertouch_c, 0, 43, 0
1, 181675, Control_c, 0, 64, 0
1, 181707, Note_on_c, 0, 63, 69
1, 181715, Note_on_c, 0, 75, 70
1, 181731, Note_off_c, 0, 63, 67
1, 181733, Note_off_c, 0, 75, 67
1, 181820, Note_on_c, 0, 79, 78
1, 181841, Note_off_c, 0, 79, 67
1, 181857, Note_on_c, 0, 69, 38
1, 181869, Note_on_c, 0, 67, 15
1, 181890, Note_off_c, 0, 69, 52
1, 181915, Note_off_c, 0, 67, 51
1, 181940, Note_on_c, 0, 72, 105
1, 181940, Note_on_c, 0, 62, 77
1, 181943, Control_c, 0, 64, 32
1, 181965, Control_c, 0, 64, 93
1, 181970, Note_off_c, 0, 62, 70
1, 181980, Control_c, 0, 64, 127
1, 181983, Note_off_c, 0, 72, 69
1, 182255, Note_on_c, 0, 55, 85
1, 182256, Note_on_c, 0, 43, 82
1, 182258, Note_on_c, 0, 79, 81
1, 182261, Note_on_c, 0, 50, 71
1, 182262, Note_on_c, 0, 74, 86
1, 182265, Note_on_c, 0, 86, 73
1, 182275, Note_on_c, 0, 76, 66
1, 182280, Note_off_c, 0, 79, 66
1, 182282, Note_off_c, 0, 43, 64
1, 182283, Note_off_c, 0, 55, 62
1, 182283, Note_off_c, 0, 74, 70
1, 182286, Note_off_c, 0, 50, 66
1, 182287, Note_off_c, 0, 86, 68
1, 182293, Note_off_c, 0, 76, 65
1, 182336, Control_c, 0, 64, 92
1, 182350, Control_c, 0, 64, 63
1, 182365, Control_c, 0, 64, 0
1, 182383, Note_on_c, 0, 57, 71
1, 182384, Note_on_c, 0, 67, 80
1, 182400, Note_off_c, 0, 57, 67
1, 182403, Note_off_c, 0, 67, 72
1, 182480, Note_on_c, 0, 72, 80
1, 182481, Note_on_c, 0, 60, 72
1, 182502, Note_off_c, 0, 72, 66
1, 182506, Note_off_c, 0, 60, 69
1, 182590, Note_on_c, 0, 70, 80
1, 182594, Note_on_c, 0, 58, 74
1, 182613, Note_off_c, 0, 70, 68
1, 182624, Note_off_c, 0, 58, 67
1, 182710, Note_on_c, 0, 75, 85
1, 182730, Note_off_c, 0, 75, 71
1, 182733, Note_on_c, 0, 63, 74
1, 182756, Note_off_c, 0, 63, 68
1, 182811, Note_on_c, 0, 74, 91
1, 182817, Note_on_c, 0, 62, 80
1, 182836, Note_off_c, 0, 74, 67
1, 182837, Note_off_c, 0, 62, 72
1, 182850, Note_on_c, 0, 75, 20
1, 182850, Note_off_c, 0, 75, 127
1, 182913, Note_on_c, 0, 79, 86
1, 182917, Poly_aftertouch_c, 0, 77, 0
1, 182923, Note_on_c, 0, 67, 87
1, 182947, Note_off_c, 0, 79, 66
1, 182957, Note_off_c, 0, 67, 65
1, 183027, Note_on_c, 0, 70, 74
1, 183048, Note_off_c, 0, 70, 71
1, 183119, Note_on_c, 0, 77, 78
1, 183147, Note_on_c, 0, 65, 69
1, 183154, Note_off_c, 0, 77, 62
1, 183171, Note_off_c, 0, 65, 67
1, 183223, Note_on_c, 0, 74, 106
1, 183228, Note_on_c, 0, 62, 99
1, 183233, Control_c, 0, 64, 30
1, 183248, Control_c, 0, 64, 67
1, 183258, Note_off_c, 0, 62, 67
1, 183263, Note_off_c, 0, 74, 68
1, 183263, Control_c, 0, 64, 127
1, 183414, Note_on_c, 0, 49, 56
1, 183445, Note_off_c, 0, 49, 64
1, 183544, Note_on_c, 0, 41, 77
1, 183547, Note_on_c, 0, 53, 77
1, 183562, Note_on_c, 0, 74, 81
1, 183562, Note_on_c, 0, 86, 65
1, 183566, Note_on_c, 0, 81, 52
1, 183569, Note_off_c, 0, 41, 66
1, 183571, Note_off_c, 0, 53, 69
1, 183574, Note_on_c, 0, 48, 44
1, 183578, Note_off_c, 0, 86, 66
1, 183582, Note_off_c, 0, 74, 71
1, 183582, Control_c, 0, 64, 77
1, 183586, Note_off_c, 0, 81, 60
1, 183597, Control_c, 0, 64, 47
1, 183607, Note_off_c, 0, 48, 47
1, 183612, Control_c, 0, 64, 0
1, 183682, Note_on_c, 0, 69, 82
1, 183709, Note_off_c, 0, 69, 64
1, 183782, Note_on_c, 0, 64, 76
1, 183788, Note_on_c, 0, 76, 80
1, 183815, Note_off_c, 0, 64, 65
1, 183836, Note_off_c, 0, 76, 64
1, 183896, Note_on_c, 0, 60, 100
1, 183905, Note_on_c, 0, 72, 95
1, 183908, Control_c, 0, 64, 46
1, 183919, Note_off_c, 0, 60, 68
1, 183923, Control_c, 0, 64, 127
1, 183932, Note_on_c, 0, 71, 46
1, 183932, Note_off_c, 0, 71, 127
1, 183935, Note_off_c, 0, 72, 68
1, 184087, Note_on_c, 0, 51, 45
1, 184122, Note_off_c, 0, 51, 52
1, 184202, Note_on_c, 0, 51, 87
1, 184206, Note_on_c, 0, 39, 85
1, 184208, Note_on_c, 0, 46, 77
1, 184213, Note_on_c, 0, 74, 104
1, 184217, Note_on_c, 0, 86, 78
1, 184222, Note_on_c, 0, 79, 70
1, 184232, Note_off_c, 0, 46, 65
1, 184234, Note_off_c, 0, 39, 65
1, 184236, Note_off_c, 0, 51, 63
1, 184236, Note_off_c, 0, 86, 73
1, 184243, Note_off_c, 0, 79, 71
1, 184247, Note_off_c, 0, 74, 64
1, 184301, Control_c, 0, 64, 99
1, 184316, Control_c, 0, 64, 75
1, 184331, Control_c, 0, 64, 53
1, 184338, Note_on_c, 0, 55, 65
1, 184346, Note_on_c, 0, 67, 87
1, 184346, Control_c, 0, 64, 0
1, 184347, Note_on_c, 0, 57, 52
1, 184363, Note_off_c, 0, 55, 62
1, 184371, Note_off_c, 0, 57, 58
1, 184373, Note_off_c, 0, 67, 63
1, 184441, Note_on_c, 0, 62, 85
1, 184445, Note_on_c, 0, 74, 93
1, 184481, Note_off_c, 0, 62, 64
1, 184493, Note_off_c, 0, 74, 65
1, 184552, Control_c, 0, 64, 49
1, 184559, Note_on_c, 0, 58, 84
1, 184565, Note_on_c, 0, 70, 89
1, 184567, Control_c, 0, 64, 83
1, 184581, Note_off_c, 0, 58, 67
1, 184582, Control_c, 0, 64, 127
1, 184585, Note_off_c, 0, 70, 68
1, 184596, Note_on_c, 0, 73, 40
1, 184596, Note_off_c, 0, 73, 127
1, 184708, Note_on_c, 0, 35, 73
1, 184708, Note_on_c, 0, 45, 77
1, 184711, Note_on_c, 0, 33, 79
1, 184713, Note_on_c, 0, 85, 93
1, 184715, Note_on_c, 0, 73, 92
1, 184718, Poly_aftertouch_c, 0, 58, 0
1, 184733, Note_off_c, 0, 35, 65
1, 184735, Note_off_c, 0, 45, 67
1, 184740, Note_off_c, 0, 33, 63
1, 184749, Note_off_c, 0, 73, 66
1, 184753, Note_off_c, 0, 85, 64
1, 184830, Note_on_c, 0, 45, 93
1, 184832, Note_on_c, 0, 86, 98
1, 184833, Note_on_c, 0, 50, 100
1, 184834, Note_on_c, 0, 74, 114
1, 184835, Note_on_c, 0, 38, 94
1, 184869, Note_off_c, 0, 50, 65
1, 184876, Note_off_c, 0, 45, 65
1, 184878, Note_off_c, 0, 74, 70
1, 184879, Note_off_c, 0, 38, 63
1, 184887, Note_off_c, 0, 86, 67
1, 184893, Control_c, 0, 64, 75
1, 184908, Control_c, 0, 64, 38
1, 184922, Control_c, 0, 64, 0
1, 184937, Control_c, 0, 64, 43
1, 184958, Note_on_c, 0, 50, 101
1, 184959, Note_on_c, 0, 45, 103
1, 184960, Note_on_c, 0, 38, 103
1, 184960, Control_c, 0, 64, 82
1, 184963, Poly_aftertouch_c, 0, 40, 0
1, 184970, Note_on_c, 0, 86, 105
1, 184972, Note_on_c, 0, 74, 107
1, 184975, Control_c, 0, 64, 127
1, 184981, Note_off_c, 0, 45, 70
1, 184982, Note_off_c, 0, 50, 69
1, 184984, Note_off_c, 0, 38, 69
1, 184999, Note_off_c, 0, 86, 63
1, 185000, Note_off_c, 0, 74, 71
1, 185213, Note_on_c, 0, 45, 79
1, 185224, Note_on_c, 0, 57, 78
1, 185242, Note_off_c, 0, 45, 64
1, 185262, Note_off_c, 0, 57, 62
1, 185341, Note_on_c, 0, 52, 83
1, 185344, Note_on_c, 0, 64, 79
1, 185377, Note_off_c, 0, 52, 62
1, 185388, Note_off_c, 0, 64, 65
1, 185448, Note_on_c, 0, 50, 83
1, 185449, Note_on_c, 0, 62, 83
1, 185487, Note_off_c, 0, 50, 61
1, 185489, Note_off_c, 0, 62, 63
1, 185538, Control_c, 0, 64, 93
1, 185550, Note_on_c, 0, 55, 77
1, 185553, Control_c, 0, 64, 63
1, 185558, Note_on_c, 0, 67, 86
1, 185568, Control_c, 0, 64, 0
1, 185583, Note_off_c, 0, 55, 64
1, 185595, Note_off_c, 0, 67, 63
1, 185659, Note_on_c, 0, 52, 76
1, 185671, Note_on_c, 0, 64, 78
1, 185687, Note_off_c, 0, 52, 68
1, 185702, Note_off_c, 0, 64, 70
1, 185772, Note_on_c, 0, 69, 79
1, 185780, Note_on_c, 0, 57, 74
1, 185805, Note_off_c, 0, 57, 66
1, 185806, Note_off_c, 0, 69, 59
1, 185879, Note_on_c, 0, 65, 69
1, 185888, Note_on_c, 0, 53, 60
1, 185905, Note_off_c, 0, 65, 68
1, 185911, Note_off_c, 0, 53, 60
1, 185986, Note_on_c, 0, 74, 68
1, 185992, Note_on_c, 0, 62, 62
1, 186010, Note_off_c, 0, 74, 65
1, 186017, Note_off_c, 0, 62, 64
1, 186102, Note_on_c, 0, 69, 63
1, 186114, Note_on_c, 0, 57, 34
1, 186114, Note_off_c, 0, 57, 127
1, 186121, Note_off_c, 0, 69, 63
1, 186122, Note_on_c, 0, 59, 11
1, 186167, Note_off_c, 0, 59, 29
1, 186201, Note_on_c, 0, 69, 59
1, 186206, Note_on_c, 0, 81, 68
1, 186230, Note_off_c, 0, 81, 67
1, 186231, Note_off_c, 0, 69, 66
1, 186301, Note_on_c, 0, 74, 75
1, 186304, Note_on_c, 0, 62, 61
1, 186323, Note_off_c, 0, 74, 70
1, 186328, Note_off_c, 0, 62, 64
1, 186410, Note_on_c, 0, 86, 82
1, 186416, Note_on_c, 0, 74, 72
1, 186430, Note_off_c, 0, 86, 68
1, 186441, Note_off_c, 0, 74, 69
1, 186533, Note_on_c, 0, 81, 62
1, 186550, Note_off_c, 0, 81, 64
1, 186631, Note_on_c, 0, 93, 100
1, 186638, Note_on_c, 0, 81, 68
1, 186663, Note_off_c, 0, 81, 70
1, 186665, Note_off_c, 0, 93, 65
1, 186726, Control_c, 0, 64, 48
1, 186736, Note_on_c, 0, 74, 86
1, 186739, Note_on_c, 0, 86, 96
1, 186741, Control_c, 0, 64, 68
1, 186754, Note_off_c, 0, 86, 75
1, 186754, Note_off_c, 0, 74, 73
1, 186755, Control_c, 0, 64, 87
1, 186770, Control_c, 0, 64, 127
1, 186918, Control_c, 0, 64, 75
1, 186933, Control_c, 0, 64, 47
1, 186948, Control_c, 0, 64, 0
1, 187250, Note_on_c, 0, 62, 57
1, 187252, Note_on_c, 0, 77, 65
1, 187257, Note_on_c, 0, 74, 68
1, 187269, Note_on_c, 0, 65, 35
1, 187274, Note_off_c, 0, 62, 64
1, 187279, Note_off_c, 0, 77, 67
1, 187282, Note_off_c, 0, 74, 69
1, 187303, Note_off_c, 0, 65, 32
1, 187353, Note_on_c, 0, 69, 52
1, 187355, Control_c, 0, 67, 54
1, 187370, Control_c, 0, 67, 92
1, 187383, Note_off_c, 0, 69, 66
1, 187385, Control_c, 0, 67, 125
1, 187399, Control_c, 0, 67, 127
1, 187699, Note_on_c, 0, 78, 63
1, 187704, Note_on_c, 0, 74, 60
1, 187715, Note_on_c, 0, 66, 41
1, 187723, Note_off_c, 0, 74, 62
1, 187726, Note_off_c, 0, 78, 66
1, 187728, Note_on_c, 0, 60, 27
1, 187742, Note_off_c, 0, 66, 53
1, 187762, Note_off_c, 0, 60, 42
1, 187786, Note_on_c, 0, 75, 80
1, 187789, Note_on_c, 0, 63, 67
1, 187792, Note_on_c, 0, 67, 55
1, 187794, Note_on_c, 0, 79, 65
1, 187811, Note_off_c, 0, 75, 66
1, 187814, Note_off_c, 0, 67, 61
1, 187817, Note_off_c, 0, 63, 66
1, 187817, Note_off_c, 0, 79, 71
1, 187876, Note_on_c, 0, 77, 87
1, 187879, Note_on_c, 0, 74, 59
1, 187880, Note_on_c, 0, 65, 64
1, 187881, Note_on_c, 0, 58, 72
1, 187902, Note_off_c, 0, 77, 62
1, 187905, Note_off_c, 0, 65, 64
1, 187905, Note_off_c, 0, 74, 67
1, 187910, Note_off_c, 0, 58, 65
1, 187980, Note_on_c, 0, 63, 76
1, 187980, Note_on_c, 0, 78, 80
1, 187982, Note_on_c, 0, 75, 75
1, 187983, Note_on_c, 0, 66, 70
1, 188000, Note_off_c, 0, 78, 71
1, 188003, Note_off_c, 0, 63, 67
1, 188003, Note_off_c, 0, 75, 71
1, 188009, Note_off_c, 0, 66, 68
1, 188079, Note_on_c, 0, 76, 75
1, 188087, Note_on_c, 0, 64, 75
1, 188094, Note_on_c, 0, 57, 59
1, 188100, Note_off_c, 0, 76, 71
1, 188105, Note_on_c, 0, 73, 17
1, 188110, Note_off_c, 0, 64, 71
1, 188115, Note_off_c, 0, 57, 61
1, 188141, Note_off_c, 0, 73, 42
1, 188188, Note_on_c, 0, 65, 62
1, 188189, Note_on_c, 0, 77, 58
1, 188195, Note_on_c, 0, 62, 51
1, 188209, Note_on_c, 0, 74, 27
1, 188209, Note_off_c, 0, 65, 62
1, 188209, Note_off_c, 0, 77, 63
1, 188221, Note_off_c, 0, 62, 39
1, 188248, Note_off_c, 0, 74, 31
1, 188302, Note_on_c, 0, 69, 44
1, 188328, Note_off_c, 0, 69, 57
1, 188384, Note_on_c, 0, 62, 61
1, 188386, Note_on_c, 0, 74, 60
1, 188391, Note_on_c, 0, 53, 52
1, 188406, Note_off_c, 0, 62, 64
1, 188406, Note_off_c, 0, 74, 63
1, 188416, Note_off_c, 0, 53, 60
1, 188486, Note_on_c, 0, 64, 42
1, 188486, Note_on_c, 0, 57, 48
1, 188488, Note_on_c, 0, 73, 60
1, 188489, Note_on_c, 0, 76, 56
1, 188510, Note_off_c, 0, 76, 62
1, 188513, Note_off_c, 0, 57, 36
1, 188513, Note_off_c, 0, 73, 65
1, 188515, Note_off_c, 0, 64, 35
1, 188578, Note_on_c, 0, 69, 70
1, 188601, Note_off_c, 0, 69, 70
1, 188700, Note_on_c, 0, 61, 57
1, 188722, Note_off_c, 0, 61, 61
1, 188801, Note_on_c, 0, 45, 54
1, 188809, Note_on_c, 0, 52, 46
1, 188827, Note_off_c, 0, 45, 53
1, 188841, Note_off_c, 0, 52, 54
1, 189148, Note_on_c, 0, 77, 62
1, 189149, Note_on_c, 0, 74, 72
1, 189154, Note_on_c, 0, 69, 56
1, 189155, Note_on_c, 0, 65, 50
1, 189158, Note_on_c, 0, 62, 48
1, 189174, Note_off_c, 0, 74, 70
1, 189176, Note_off_c, 0, 77, 67
1, 189177, Note_off_c, 0, 69, 61
1, 189179, Note_off_c, 0, 65, 57
1, 189185, Note_off_c, 0, 62, 55
1, 189247, Note_on_c, 0, 69, 69
1, 189271, Note_off_c, 0, 69, 69
1, 189351, Note_on_c, 0, 62, 64
1, 189379, Note_off_c, 0, 62, 65
1, 189587, Note_on_c, 0, 68, 68
1, 189589, Note_on_c, 0, 80, 66
1, 189592, Note_on_c, 0, 60, 53
1, 189600, Note_on_c, 0, 76, 47
1, 189613, Note_off_c, 0, 80, 71
1, 189613, Note_off_c, 0, 68, 66
1, 189625, Note_off_c, 0, 60, 65
1, 189625, Note_off_c, 0, 76, 58
1, 189631, Control_c, 0, 67, 114
1, 189646, Control_c, 0, 67, 72
1, 189661, Control_c, 0, 67, 0
1, 189676, Note_on_c, 0, 81, 77
1, 189676, Note_on_c, 0, 65, 72
1, 189682, Note_on_c, 0, 69, 64
1, 189684, Note_on_c, 0, 77, 65
1, 189701, Note_off_c, 0, 65, 68
1, 189702, Note_off_c, 0, 69, 65
1, 189702, Note_off_c, 0, 77, 66
1, 189708, Note_off_c, 0, 81, 58
1, 189763, Note_on_c, 0, 66, 90
1, 189765, Note_on_c, 0, 74, 86
1, 189765, Note_on_c, 0, 78, 83
1, 189785, Note_off_c, 0, 74, 69
1, 189791, Note_off_c, 0, 78, 61
1, 189795, Note_off_c, 0, 66, 65
1, 189855, Note_on_c, 0, 63, 84
1, 189855, Note_on_c, 0, 67, 77
1, 189858, Note_on_c, 0, 75, 85
1, 189861, Note_on_c, 0, 79, 74
1, 189878, Note_off_c, 0, 67, 71
1, 189880, Note_on_c, 0, 65, 48
1, 189881, Note_off_c, 0, 63, 68
1, 189883, Note_off_c, 0, 79, 70
1, 189887, Note_off_c, 0, 75, 67
1, 189905, Note_off_c, 0, 65, 37
1, 189946, Note_on_c, 0, 76, 82
1, 189949, Note_on_c, 0, 57, 84
1, 189950, Note_on_c, 0, 64, 93
1, 189962, Note_on_c, 0, 73, 68
1, 189978, Note_off_c, 0, 73, 66
1, 189980, Note_off_c, 0, 76, 66
1, 189980, Note_off_c, 0, 57, 63
1, 189981, Note_off_c, 0, 64, 67
1, 190031, Note_on_c, 0, 62, 92
1, 190031, Control_c, 0, 67, 61
1, 190033, Note_on_c, 0, 65, 72
1, 190045, Note_on_c, 0, 74, 79
1, 190046, Control_c, 0, 67, 99
1, 190048, Note_on_c, 0, 77, 56
1, 190052, Note_off_c, 0, 62, 70
1, 190057, Note_off_c, 0, 65, 68
1, 190061, Control_c, 0, 67, 125
1, 190070, Note_off_c, 0, 74, 67
1, 190076, Control_c, 0, 67, 127
1, 190078, Note_off_c, 0, 77, 65
1, 190149, Note_on_c, 0, 69, 55
1, 190170, Note_off_c, 0, 69, 62
1, 190237, Note_on_c, 0, 74, 68
1, 190246, Note_on_c, 0, 71, 54
1, 190252, Note_on_c, 0, 55, 51
1, 190263, Note_on_c, 0, 62, 50
1, 190263, Note_off_c, 0, 74, 70
1, 190266, Note_off_c, 0, 71, 61
1, 190284, Note_off_c, 0, 55, 63
1, 190288, Note_off_c, 0, 62, 58
1, 190346, Note_on_c, 0, 72, 60
1, 190350, Note_on_c, 0, 76, 50
1, 190355, Note_on_c, 0, 60, 58
1, 190355, Note_on_c, 0, 64, 46
1, 190367, Note_off_c, 0, 72, 64
1, 190374, Note_off_c, 0, 76, 58
1, 190377, Note_off_c, 0, 60, 61
1, 190381, Note_off_c, 0, 64, 58
1, 190451, Note_on_c, 0, 67, 67
1, 190478, Note_off_c, 0, 67, 67
1, 190560, Note_on_c, 0, 60, 59
1, 190582, Note_off_c, 0, 60, 62
1, 190657, Note_on_c, 0, 55, 59
1, 190666, Note_on_c, 0, 48, 49
1, 190681, Note_off_c, 0, 55, 59
1, 190699, Note_off_c, 0, 48, 51
1, 190989, Note_on_c, 0, 81, 92
1, 191005, Note_on_c, 0, 69, 66
1, 191011, Note_on_c, 0, 65, 54
1, 191011, Note_on_c, 0, 72, 50
1, 191024, Note_off_c, 0, 69, 66
1, 191032, Note_off_c, 0, 65, 61
1, 191033, Note_off_c, 0, 81, 63
1, 191034, Note_off_c, 0, 72, 59
1, 191035, Note_on_c, 0, 77, 21
1, 191035, Note_off_c, 0, 77, 127
1, 191099, Note_on_c, 0, 72, 80
1, 191124, Note_off_c, 0, 72, 65
1, 191212, Note_on_c, 0, 65, 60
1, 191232, Note_off_c, 0, 65, 62
1, 191440, Note_on_c, 0, 62, 55
1, 191443, Note_on_c, 0, 81, 66
1, 191448, Note_on_c, 0, 69, 60
1, 191449, Note_on_c, 0, 78, 54
1, 191467, Note_off_c, 0, 81, 70
1, 191471, Note_off_c, 0, 78, 58
1, 191472, Note_off_c, 0, 62, 64
1, 191476, Note_off_c, 0, 69, 60
1, 191537, Note_on_c, 0, 67, 62
1, 191551, Note_on_c, 0, 82, 63
1, 191554, Note_on_c, 0, 79, 46
1, 191557, Note_off_c, 0, 67, 62
1, 191559, Note_on_c, 0, 70, 35
1, 191567, Note_off_c, 0, 82, 65
1, 191577, Note_off_c, 0, 79, 60
1, 191589, Note_off_c, 0, 70, 51
1, 191628, Note_on_c, 0, 80, 78
1, 191639, Note_on_c, 0, 61, 43
1, 191646, Note_on_c, 0, 77, 62
1, 191649, Note_on_c, 0, 68, 44
1, 191650, Note_off_c, 0, 80, 67
1, 191663, Note_off_c, 0, 77, 63
1, 191667, Note_off_c, 0, 61, 56
1, 191674, Note_off_c, 0, 68, 56
1, 191738, Note_on_c, 0, 78, 71
1, 191738, Note_on_c, 0, 69, 60
1, 191744, Note_on_c, 0, 66, 45
1, 191747, Note_on_c, 0, 81, 53
1, 191758, Note_off_c, 0, 69, 65
1, 191760, Note_off_c, 0, 78, 69
1, 191767, Note_off_c, 0, 81, 61
1, 191771, Note_off_c, 0, 66, 36
1, 191817, Control_c, 0, 67, 115
1, 191825, Note_on_c, 0, 79, 75
1, 191828, Note_on_c, 0, 67, 82
1, 191832, Control_c, 0, 67, 103
1, 191836, Note_on_c, 0, 81, 60
1, 191837, Note_on_c, 0, 60, 64
1, 191846, Note_off_c, 0, 79, 69
1, 191847, Control_c, 0, 67, 80
1, 191854, Note_off_c, 0, 81, 64
1, 191861, Control_c, 0, 67, 41
1, 191862, Note_off_c, 0, 60, 66
1, 191864, Note_off_c, 0, 67, 64
1, 191876, Control_c, 0, 67, 0
1, 191913, Note_on_c, 0, 77, 91
1, 191913, Note_on_c, 0, 81, 85
1, 191917, Note_on_c, 0, 69, 84
1, 191924, Note_on_c, 0, 65, 71
1, 191929, Note_on_c, 0, 79, 62
1, 191936, Note_off_c, 0, 69, 72
1, 191941, Note_off_c, 0, 65, 66
1, 191941, Note_off_c, 0, 81, 64
1, 191947, Note_off_c, 0, 79, 65
1, 191950, Note_off_c, 0, 77, 65
1, 192007, Note_on_c, 0, 72, 92
1, 192038, Note_off_c, 0, 72, 67
1, 192108, Note_on_c, 0, 65, 74
1, 192132, Note_off_c, 0, 65, 69
1, 192361, Note_on_c, 0, 84, 69
1, 192361, Note_on_c, 0, 81, 66
1, 192364, Note_on_c, 0, 72, 74
1, 192367, Note_on_c, 0, 65, 59
1, 192384, Note_off_c, 0, 84, 71
1, 192387, Note_off_c, 0, 81, 69
1, 192394, Note_off_c, 0, 72, 63
1, 192397, Note_off_c, 0, 65, 64
1, 192459, Note_on_c, 0, 70, 84
1, 192462, Note_on_c, 0, 82, 80
1, 192463, Note_on_c, 0, 85, 78
1, 192463, Control_c, 0, 64, 30
1, 192469, Note_on_c, 0, 73, 70
1, 192478, Control_c, 0, 64, 37
1, 192478, Note_off_c, 0, 70, 71
1, 192481, Note_off_c, 0, 82, 68
1, 192483, Note_off_c, 0, 85, 72
1, 192491, Note_off_c, 0, 73, 65
1, 192492, Control_c, 0, 64, 38
1, 192507, Control_c, 0, 64, 38
1, 192522, Control_c, 0, 64, 40
1, 192536, Control_c, 0, 64, 40
1, 192551, Control_c, 0, 64, 38
1, 192552, Note_on_c, 0, 80, 87
1, 192561, Note_on_c, 0, 77, 79
1, 192566, Control_c, 0, 64, 29
1, 192581, Control_c, 0, 64, 0
1, 192582, Note_off_c, 0, 80, 61
1, 192582, Note_off_c, 0, 77, 72
1, 192587, Note_on_c, 0, 69, 41
1, 192593, Note_on_c, 0, 62, 29
1, 192615, Note_off_c, 0, 62, 37
1, 192618, Note_off_c, 0, 69, 56
1, 192646, Note_on_c, 0, 66, 95
1, 192646, Note_on_c, 0, 81, 85
1, 192647, Note_on_c, 0, 78, 83
1, 192659, Note_on_c, 0, 69, 66
1, 192669, Note_off_c, 0, 81, 65
1, 192671, Note_off_c, 0, 66, 69
1, 192677, Note_off_c, 0, 78, 64
1, 192681, Note_off_c, 0, 69, 65
1, 192686, Note_on_c, 0, 80, 10
1, 192729, Note_off_c, 0, 80, 33
1, 192733, Note_on_c, 0, 79, 89
1, 192740, Note_on_c, 0, 67, 101
1, 192740, Note_on_c, 0, 76, 78
1, 192746, Note_on_c, 0, 60, 85
1, 192747, Note_on_c, 0, 77, 75
1, 192760, Note_off_c, 0, 76, 72
1, 192763, Note_off_c, 0, 77, 69
1, 192774, Note_off_c, 0, 79, 65
1, 192779, Note_off_c, 0, 67, 69
1, 192783, Note_off_c, 0, 60, 63
1, 192810, Poly_aftertouch_c, 0, 78, 0
1, 192819, Note_on_c, 0, 69, 90
1, 192823, Note_on_c, 0, 65, 103
1, 192824, Note_on_c, 0, 81, 96
1, 192826, Note_on_c, 0, 77, 91
1, 192833, Control_c, 0, 67, 39
1, 192837, Note_on_c, 0, 79, 67
1, 192848, Control_c, 0, 67, 48
1, 192850, Note_off_c, 0, 65, 68
1, 192851, Note_off_c, 0, 69, 67
1, 192856, Note_off_c, 0, 79, 62
1, 192861, Note_off_c, 0, 77, 65
1, 192863, Note_off_c, 0, 81, 66
1, 192863, Control_c, 0, 67, 50
1, 192878, Control_c, 0, 67, 65
1, 192892, Control_c, 0, 67, 100
1, 192907, Control_c, 0, 67, 127
1, 192922, Note_on_c, 0, 72, 89
1, 192952, Note_off_c, 0, 72, 59
1, 193016, Note_on_c, 0, 77, 82
1, 193017, Note_on_c, 0, 58, 71
1, 193019, Note_on_c, 0, 65, 76
1, 193026, Note_on_c, 0, 74, 76
1, 193041, Note_off_c, 0, 65, 70
1, 193042, Note_off_c, 0, 58, 66
1, 193048, Note_off_c, 0, 74, 71
1, 193050, Note_off_c, 0, 77, 65
1, 193112, Note_on_c, 0, 63, 84
1, 193113, Note_on_c, 0, 67, 79
1, 193117, Note_on_c, 0, 75, 78
1, 193118, Note_on_c, 0, 79, 63
1, 193133, Note_off_c, 0, 67, 72
1, 193134, Note_off_c, 0, 63, 71
1, 193142, Note_off_c, 0, 79, 70
1, 193147, Note_off_c, 0, 75, 61
1, 193244, Note_on_c, 0, 71, 40
1, 193274, Note_off_c, 0, 71, 34
1, 193314, Note_on_c, 0, 76, 63
1, 193317, Note_on_c, 0, 73, 63
1, 193322, Note_on_c, 0, 64, 67
1, 193330, Note_on_c, 0, 57, 38
1, 193341, Note_off_c, 0, 76, 66
1, 193344, Note_off_c, 0, 73, 68
1, 193345, Note_off_c, 0, 57, 40
1, 193348, Note_off_c, 0, 64, 67
1, 193412, Note_on_c, 0, 77, 69
1, 193414, Note_on_c, 0, 62, 78
1, 193418, Note_on_c, 0, 74, 61
1, 193419, Note_on_c, 0, 65, 68
1, 193436, Note_off_c, 0, 74, 64
1, 193438, Note_off_c, 0, 62, 67
1, 193439, Note_off_c, 0, 77, 65
1, 193444, Note_off_c, 0, 65, 68
1, 193524, Note_on_c, 0, 69, 53
1, 193546, Note_off_c, 0, 69, 61
1, 193604, Note_on_c, 0, 71, 65
1, 193609, Note_on_c, 0, 74, 62
1, 193617, Note_on_c, 0, 55, 47
1, 193621, Note_on_c, 0, 62, 41
1, 193629, Note_off_c, 0, 74, 65
1, 193631, Note_off_c, 0, 71, 66
1, 193646, Note_off_c, 0, 55, 55
1, 193651, Note_off_c, 0, 62, 54
1, 193694, Note_on_c, 0, 57, 65
1, 193694, Note_on_c, 0, 64, 66
1, 193707, Note_on_c, 0, 76, 59
1, 193708, Note_on_c, 0, 73, 66
1, 193712, Note_on_c, 0, 74, 51
1, 193714, Note_off_c, 0, 57, 65
1, 193721, Note_off_c, 0, 64, 65
1, 193733, Note_off_c, 0, 73, 69
1, 193736, Note_off_c, 0, 74, 43
1, 193736, Note_off_c, 0, 76, 67
1, 193806, Note_on_c, 0, 69, 73
1, 193828, Note_off_c, 0, 69, 70
1, 193902, Note_on_c, 0, 64, 55
1, 193924, Note_off_c, 0, 64, 60
1, 193998, Note_on_c, 0, 68, 60
1, 194004, Note_on_c, 0, 73, 61
1, 194017, Note_off_c, 0, 68, 64
1, 194022, Note_off_c, 0, 73, 64
1, 194108, Note_on_c, 0, 77, 71
1, 194115, Note_on_c, 0, 74, 65
1, 194133, Note_on_c, 0, 69, 38
1, 194136, Note_off_c, 0, 77, 60
1, 194143, Note_off_c, 0, 74, 67
1, 194165, Note_off_c, 0, 69, 56
1, 194225, Note_on_c, 0, 73, 60
1, 194242, Note_off_c, 0, 73, 65
1, 194358, Note_on_c, 0, 81, 66
1, 194392, Note_off_c, 0, 81, 61
1, 194395, Note_on_c, 0, 76, 28
1, 194432, Note_off_c, 0, 76, 51
1, 194758, Note_on_c, 0, 65, 54
1, 194762, Note_on_c, 0, 69, 42
1, 194765, Note_on_c, 0, 62, 49
1, 194766, Note_on_c, 0, 74, 64
1, 194767, Note_on_c, 0, 77, 56
1, 194779, Note_off_c, 0, 65, 62
1, 194790, Note_off_c, 0, 62, 59
1, 194791, Note_off_c, 0, 69, 33
1, 194794, Note_off_c, 0, 74, 69
1, 194797, Note_off_c, 0, 77, 65
1, 194855, Note_on_c, 0, 69, 79
1, 194888, Note_off_c, 0, 69, 61
1, 194957, Note_on_c, 0, 62, 71
1, 194980, Note_off_c, 0, 62, 66
1, 195204, Note_on_c, 0, 78, 67
1, 195214, Note_on_c, 0, 66, 57
1, 195215, Note_on_c, 0, 74, 53
1, 195229, Note_on_c, 0, 60, 34
1, 195229, Note_off_c, 0, 78, 66
1, 195238, Note_off_c, 0, 74, 57
1, 195251, Note_off_c, 0, 66, 61
1, 195256, Control_c, 0, 67, 107
1, 195267, Note_off_c, 0, 60, 52
1, 195271, Control_c, 0, 67, 55
1, 195286, Control_c, 0, 67, 0
1, 195295, Note_on_c, 0, 75, 77
1, 195304, Note_on_c, 0, 63, 72
1, 195304, Note_on_c, 0, 79, 62
1, 195313, Note_on_c, 0, 67, 51
1, 195319, Note_off_c, 0, 75, 68
1, 195328, Note_off_c, 0, 79, 68
1, 195329, Note_off_c, 0, 63, 67
1, 195336, Note_off_c, 0, 67, 58
1, 195376, Note_on_c, 0, 74, 71
1, 195382, Note_on_c, 0, 77, 84
1, 195389, Note_on_c, 0, 65, 76
1, 195399, Note_on_c, 0, 58, 74
1, 195407, Note_off_c, 0, 77, 64
1, 195410, Note_off_c, 0, 74, 62
1, 195417, Note_off_c, 0, 65, 63
1, 195432, Note_off_c, 0, 58, 66
1, 195442, Control_c, 0, 64, 36
1, 195458, Control_c, 0, 64, 47
1, 195473, Control_c, 0, 64, 56
1, 195479, Note_on_c, 0, 78, 84
1, 195483, Note_on_c, 0, 75, 81
1, 195486, Note_on_c, 0, 66, 82
1, 195487, Note_on_c, 0, 63, 87
1, 195488, Control_c, 0, 64, 57
1, 195504, Note_off_c, 0, 75, 71
1, 195506, Note_off_c, 0, 78, 58
1, 195508, Note_off_c, 0, 66, 71
1, 195509, Note_off_c, 0, 63, 69
1, 195532, Control_c, 0, 64, 57
1, 195547, Control_c, 0, 64, 52
1, 195561, Control_c, 0, 64, 37
1, 195569, Note_on_c, 0, 73, 61
1, 195570, Note_on_c, 0, 76, 85
1, 195576, Control_c, 0, 64, 0
1, 195578, Note_on_c, 0, 64, 95
1, 195587, Note_on_c, 0, 57, 74
1, 195596, Note_off_c, 0, 73, 67
1, 195604, Note_off_c, 0, 76, 65
1, 195612, Note_off_c, 0, 64, 68
1, 195615, Note_off_c, 0, 57, 57
1, 195665, Note_on_c, 0, 65, 85
1, 195665, Control_c, 0, 67, 71
1, 195670, Note_on_c, 0, 62, 79
1, 195671, Note_on_c, 0, 77, 66
1, 195673, Note_on_c, 0, 74, 74
1, 195679, Control_c, 0, 67, 125
1, 195683, Note_off_c, 0, 65, 72
1, 195686, Note_on_c, 0, 76, 53
1, 195690, Note_off_c, 0, 77, 61
1, 195692, Note_off_c, 0, 62, 69
1, 195694, Control_c, 0, 67, 127
1, 195696, Note_off_c, 0, 74, 69
1, 195708, Note_off_c, 0, 76, 60
1, 195783, Note_on_c, 0, 69, 57
1, 195804, Note_off_c, 0, 69, 61
1, 195867, Note_on_c, 0, 74, 73
1, 195868, Note_on_c, 0, 53, 66
1, 195881, Note_on_c, 0, 62, 58
1, 195886, Note_on_c, 0, 71, 43
1, 195891, Note_off_c, 0, 74, 70
1, 195897, Note_off_c, 0, 53, 64
1, 195903, Note_off_c, 0, 62, 60
1, 195913, Note_off_c, 0, 71, 55
1, 195967, Note_on_c, 0, 64, 74
1, 195977, Note_on_c, 0, 57, 63
1, 195977, Note_on_c, 0, 73, 60
1, 195980, Note_on_c, 0, 76, 45
1, 195992, Note_off_c, 0, 64, 68
1, 195996, Note_off_c, 0, 73, 65
1, 195997, Note_off_c, 0, 57, 64
1, 196005, Note_off_c, 0, 76, 57
1, 196072, Note_on_c, 0, 69, 69
1, 196095, Note_off_c, 0, 69, 70
1, 196189, Note_on_c, 0, 61, 58
1, 196210, Note_off_c, 0, 61, 61
1, 196287, Note_on_c, 0, 52, 61
1, 196291, Note_on_c, 0, 45, 50
1, 196309, Note_off_c, 0, 52, 60
1, 196320, Note_off_c, 0, 45, 50
1, 196622, Control_c, 0, 64, 30
1, 196637, Control_c, 0, 64, 47
1, 196651, Note_on_c, 0, 81, 80
1, 196651, Control_c, 0, 64, 59
1, 196654, Note_on_c, 0, 69, 62
1, 196654, Note_on_c, 0, 72, 67
1, 196655, Note_on_c, 0, 65, 58
1, 196666, Note_on_c, 0, 77, 65
1, 196666, Control_c, 0, 64, 62
1, 196670, Note_off_c, 0, 72, 66
1, 196672, Note_off_c, 0, 69, 65
1, 196677, Note_off_c, 0, 65, 64
1, 196681, Control_c, 0, 64, 61
1, 196691, Note_off_c, 0, 77, 65
1, 196691, Note_off_c, 0, 81, 62
1, 196696, Control_c, 0, 64, 56
1, 196711, Control_c, 0, 64, 37
1, 196726, Control_c, 0, 64, 0
1, 196757, Note_on_c, 0, 72, 59
1, 196782, Note_off_c, 0, 72, 65
1, 196830, Control_c, 0, 67, 123
1, 196859, Control_c, 0, 67, 126
1, 196862, Note_on_c, 0, 65, 70
1, 196888, Note_off_c, 0, 65, 68
1, 197060, Control_c, 0, 67, 121
1, 197075, Control_c, 0, 67, 119
1, 197089, Control_c, 0, 67, 113
1, 197104, Control_c, 0, 67, 85
1, 197112, Note_on_c, 0, 62, 58
1, 197116, Note_on_c, 0, 69, 65
1, 197119, Control_c, 0, 67, 37
1, 197121, Note_on_c, 0, 81, 66
1, 197129, Note_on_c, 0, 78, 50
1, 197134, Control_c, 0, 67, 0
1, 197142, Note_off_c, 0, 62, 64
1, 197145, Note_off_c, 0, 81, 69
1, 197146, Note_off_c, 0, 69, 62
1, 197154, Note_off_c, 0, 78, 54
1, 197208, Note_on_c, 0, 67, 66
1, 197213, Note_on_c, 0, 70, 66
1, 197213, Note_on_c, 0, 79, 66
1, 197230, Note_on_c, 0, 82, 50
1, 197233, Note_off_c, 0, 67, 65
1, 197235, Note_off_c, 0, 79, 66
1, 197238, Note_off_c, 0, 70, 70
1, 197241, Note_on_c, 0, 78, 28
1, 197241, Note_off_c, 0, 78, 127
1, 197253, Note_off_c, 0, 82, 37
1, 197296, Note_on_c, 0, 68, 79
1, 197296, Note_on_c, 0, 80, 80
1, 197297, Note_on_c, 0, 61, 70
1, 197306, Note_on_c, 0, 77, 76
1, 197317, Note_off_c, 0, 68, 70
1, 197317, Note_off_c, 0, 80, 69
1, 197323, Note_off_c, 0, 61, 67
1, 197327, Note_off_c, 0, 77, 71
1, 197378, Note_on_c, 0, 66, 93
1, 197390, Note_on_c, 0, 78, 73
1, 197392, Note_on_c, 0, 69, 76
1, 197399, Note_on_c, 0, 80, 60
1, 197411, Note_off_c, 0, 69, 71
1, 197417, Note_off_c, 0, 66, 61
1, 197417, Note_off_c, 0, 78, 64
1, 197417, Note_off_c, 0, 80, 64
1, 197441, Note_on_c, 0, 81, 5
1, 197441, Note_off_c, 0, 81, 127
1, 197477, Note_on_c, 0, 79, 83
1, 197477, Note_on_c, 0, 81, 15
1, 197482, Note_on_c, 0, 67, 94
1, 197487, Note_on_c, 0, 60, 76
1, 197504, Note_off_c, 0, 81, 62
1, 197509, Note_off_c, 0, 67, 67
1, 197511, Note_off_c, 0, 60, 69
1, 197511, Note_off_c, 0, 79, 64
1, 197568, Note_on_c, 0, 69, 99
1, 197572, Note_on_c, 0, 77, 86
1, 197574, Note_on_c, 0, 65, 86
1, 197583, Note_on_c, 0, 79, 59
1, 197585, Note_on_c, 0, 64, 70
1, 197587, Note_on_c, 0, 81, 66
1, 197592, Note_off_c, 0, 69, 69
1, 197593, Note_off_c, 0, 65, 72
1, 197603, Note_off_c, 0, 64, 66
1, 197603, Note_off_c, 0, 81, 67
1, 197609, Note_off_c, 0, 79, 68
1, 197609, Note_off_c, 0, 77, 65
1, 197673, Note_on_c, 0, 72, 82
1, 197673, Note_on_c, 0, 81, 62
1, 197697, Note_off_c, 0, 81, 66
1, 197702, Note_off_c, 0, 72, 67
1, 197770, Note_on_c, 0, 74, 85
1, 197772, Note_on_c, 0, 57, 75
1, 197785, Note_on_c, 0, 65, 68
1, 197793, Note_off_c, 0, 74, 67
1, 197801, Note_on_c, 0, 77, 21
1, 197803, Note_off_c, 0, 57, 66
1, 197803, Note_off_c, 0, 65, 65
1, 197843, Note_off_c, 0, 77, 30
1, 197852, Control_c, 0, 67, 35
1, 197868, Control_c, 0, 67, 61
1, 197869, Note_on_c, 0, 79, 70
1, 197870, Note_on_c, 0, 60, 68
1, 197870, Note_on_c, 0, 67, 64
1, 197874, Note_on_c, 0, 76, 63
1, 197883, Control_c, 0, 67, 62
1, 197890, Note_off_c, 0, 67, 64
1, 197897, Note_off_c, 0, 79, 65
1, 197898, Note_off_c, 0, 60, 66
1, 197898, Control_c, 0, 67, 62
1, 197900, Note_off_c, 0, 76, 65
1, 197912, Control_c, 0, 67, 64
1, 197927, Control_c, 0, 67, 68
1, 197942, Control_c, 0, 67, 78
1, 197955, Note_on_c, 0, 72, 81
1, 197957, Control_c, 0, 67, 82
1, 197972, Control_c, 0, 67, 78
1, 197974, Note_off_c, 0, 72, 71
1, 197986, Control_c, 0, 67, 78
1, 198001, Control_c, 0, 67, 79
1, 198016, Control_c, 0, 67, 82
1, 198031, Control_c, 0, 67, 81
1, 198046, Control_c, 0, 67, 79
1, 198061, Control_c, 0, 67, 79
1, 198064, Note_on_c, 0, 64, 70
1, 198076, Control_c, 0, 67, 79
1, 198082, Note_off_c, 0, 64, 66
1, 198091, Control_c, 0, 67, 80
1, 198105, Control_c, 0, 67, 76
1, 198120, Control_c, 0, 67, 71
1, 198135, Control_c, 0, 67, 69
1, 198158, Note_on_c, 0, 48, 75
1, 198170, Note_on_c, 0, 55, 56
1, 198179, Control_c, 0, 67, 64
1, 198182, Note_off_c, 0, 48, 65
1, 198194, Control_c, 0, 67, 60
1, 198195, Note_off_c, 0, 55, 57
1, 198209, Control_c, 0, 67, 59
1, 198223, Control_c, 0, 67, 62
1, 198238, Control_c, 0, 67, 65
1, 198253, Control_c, 0, 67, 64
1, 198268, Control_c, 0, 67, 64
1, 198282, Control_c, 0, 67, 64
1, 198297, Control_c, 0, 67, 67
1, 198312, Control_c, 0, 67, 68
1, 198327, Control_c, 0, 67, 66
1, 198342, Control_c, 0, 67, 64
1, 198356, Control_c, 0, 67, 63
1, 198371, Control_c, 0, 67, 62
1, 198386, Control_c, 0, 67, 56
1, 198401, Control_c, 0, 67, 47
1, 198416, Control_c, 0, 67, 0
1, 198417, Note_on_c, 0, 91, 107
1, 198420, Note_on_c, 0, 86, 100
1, 198422, Note_on_c, 0, 79, 101
1, 198432, Note_on_c, 0, 58, 84
1, 198435, Note_on_c, 0, 62, 84
1, 198436, Note_on_c, 0, 67, 89
1, 198479, Note_off_c, 0, 79, 63
1, 198484, Note_off_c, 0, 86, 66
1, 198488, Note_off_c, 0, 62, 63
1, 198493, Note_off_c, 0, 67, 63
1, 198505, Note_off_c, 0, 58, 62
1, 198510, Note_off_c, 0, 91, 70
1, 198580, Note_on_c, 0, 61, 93
1, 198581, Note_on_c, 0, 69, 103
1, 198588, Note_on_c, 0, 57, 84
1, 198588, Note_on_c, 0, 93, 105
1, 198589, Note_on_c, 0, 81, 109
1, 198590, Note_on_c, 0, 85, 109
1, 198601, Control_c, 0, 64, 40
1, 198608, Note_off_c, 0, 69, 65
1, 198609, Note_off_c, 0, 57, 66
1, 198616, Note_off_c, 0, 81, 70
1, 198616, Control_c, 0, 64, 81
1, 198617, Note_off_c, 0, 61, 66
1, 198621, Note_off_c, 0, 85, 70
1, 198630, Control_c, 0, 64, 127
1, 198639, Note_off_c, 0, 93, 65
1, 198690, Note_on_c, 0, 57, 18
1, 198731, Note_off_c, 0, 57, 53
1, 198879, Note_on_c, 0, 89, 80
1, 198883, Note_on_c, 0, 86, 79
1, 198889, Note_on_c, 0, 70, 82
1, 198892, Note_on_c, 0, 77, 83
1, 198904, Note_on_c, 0, 82, 44
1, 198916, Note_off_c, 0, 70, 63
1, 198922, Note_off_c, 0, 77, 62
1, 198925, Note_off_c, 0, 86, 63
1, 198928, Note_off_c, 0, 82, 56
1, 198943, Note_off_c, 0, 89, 63
1, 198957, Control_c, 0, 64, 110
1, 198972, Control_c, 0, 64, 74
1, 198986, Control_c, 0, 64, 48
1, 199001, Note_on_c, 0, 91, 87
1, 199001, Control_c, 0, 64, 0
1, 199009, Note_on_c, 0, 75, 80
1, 199012, Note_on_c, 0, 87, 76
1, 199032, Note_off_c, 0, 75, 69
1, 199033, Note_on_c, 0, 79, 39
1, 199039, Note_off_c, 0, 87, 65
1, 199045, Note_off_c, 0, 91, 66
1, 199058, Note_on_c, 0, 81, 6
1, 199062, Note_off_c, 0, 79, 55
1, 199073, Note_off_c, 0, 81, 38
1, 199119, Note_on_c, 0, 86, 75
1, 199127, Note_on_c, 0, 83, 78
1, 199129, Note_on_c, 0, 74, 73
1, 199140, Note_off_c, 0, 86, 72
1, 199147, Note_off_c, 0, 83, 70
1, 199149, Note_on_c, 0, 69, 23
1, 199155, Note_off_c, 0, 74, 70
1, 199198, Note_off_c, 0, 69, 50
1, 199224, Note_on_c, 0, 72, 70
1, 199230, Note_on_c, 0, 84, 76
1, 199232, Note_on_c, 0, 87, 76
1, 199241, Note_on_c, 0, 75, 74
1, 199252, Note_off_c, 0, 72, 66
1, 199262, Note_off_c, 0, 84, 65
1, 199264, Note_off_c, 0, 75, 71
1, 199268, Note_off_c, 0, 87, 65
1, 199313, Note_on_c, 0, 85, 30
1, 199317, Note_on_c, 0, 73, 87
1, 199324, Note_on_c, 0, 78, 81
1, 199326, Note_on_c, 0, 66, 77
1, 199343, Note_off_c, 0, 78, 72
1, 199351, Note_off_c, 0, 66, 69
1, 199352, Note_off_c, 0, 73, 63
1, 199356, Note_on_c, 0, 81, 29
1, 199356, Note_off_c, 0, 85, 65
1, 199389, Note_off_c, 0, 81, 33
1, 199412, Note_on_c, 0, 74, 91
1, 199423, Note_on_c, 0, 70, 81
1, 199437, Note_on_c, 0, 80, 52
1, 199437, Note_off_c, 0, 80, 127
1, 199444, Note_off_c, 0, 70, 72
1, 199444, Note_off_c, 0, 74, 65
1, 199519, Note_on_c, 0, 69, 85
1, 199522, Note_on_c, 0, 62, 79
1, 199526, Note_on_c, 0, 71, 77
1, 199526, Note_on_c, 0, 78, 71
1, 199528, Note_on_c, 0, 74, 92
1, 199542, Note_off_c, 0, 71, 68
1, 199543, Note_off_c, 0, 78, 62
1, 199545, Note_off_c, 0, 62, 71
1, 199551, Note_off_c, 0, 69, 65
1, 199556, Note_off_c, 0, 74, 63
1, 199606, Note_on_c, 0, 67, 86
1, 199613, Note_on_c, 0, 70, 96
1, 199614, Note_on_c, 0, 79, 94
1, 199632, Note_on_c, 0, 82, 48
1, 199632, Note_off_c, 0, 70, 69
1, 199632, Control_c, 0, 64, 65
1, 199639, Note_off_c, 0, 67, 67
1, 199647, Control_c, 0, 64, 107
1, 199652, Note_off_c, 0, 79, 68
1, 199657, Note_off_c, 0, 82, 55
1, 199662, Control_c, 0, 64, 127
1, 199713, Note_on_c, 0, 74, 93
1, 199745, Note_off_c, 0, 74, 63
1, 199810, Control_c, 0, 64, 84
1, 199822, Note_on_c, 0, 69, 71
1, 199823, Note_on_c, 0, 76, 80
1, 199825, Control_c, 0, 64, 59
1, 199832, Note_on_c, 0, 88, 84
1, 199834, Note_on_c, 0, 85, 76
1, 199840, Control_c, 0, 64, 0
1, 199844, Note_off_c, 0, 69, 69
1, 199847, Note_off_c, 0, 76, 67
1, 199852, Note_off_c, 0, 88, 70
1, 199854, Note_off_c, 0, 85, 72
1, 199876, Note_on_c, 0, 81, 7
1, 199892, Note_on_c, 0, 87, 1
1, 199912, Note_on_c, 0, 77, 80
1, 199915, Note_on_c, 0, 89, 91
1, 199925, Note_off_c, 0, 87, 40
1, 199930, Note_on_c, 0, 74, 73
1, 199931, Note_on_c, 0, 86, 81
1, 199938, Note_off_c, 0, 81, 61
1, 199942, Note_off_c, 0, 77, 67
1, 199951, Note_off_c, 0, 86, 73
1, 199952, Note_off_c, 0, 74, 64
1, 199958, Note_on_c, 0, 88, 33
1, 199962, Note_off_c, 0, 89, 63
1, 199984, Note_off_c, 0, 88, 34
1, 200021, Note_on_c, 0, 72, 78
1, 200025, Note_on_c, 0, 84, 85
1, 200026, Note_on_c, 0, 81, 85
1, 200028, Note_on_c, 0, 65, 68
1, 200037, Note_on_c, 0, 77, 65
1, 200042, Note_off_c, 0, 72, 71
1, 200043, Note_off_c, 0, 81, 74
1, 200054, Note_off_c, 0, 65, 67
1, 200055, Note_off_c, 0, 77, 65
1, 200055, Note_off_c, 0, 84, 64
1, 200109, Note_on_c, 0, 86, 71
1, 200114, Note_on_c, 0, 74, 81
1, 200118, Note_on_c, 0, 70, 76
1, 200120, Note_on_c, 0, 82, 80
1, 200132, Note_on_c, 0, 77, 60
1, 200135, Note_off_c, 0, 74, 71
1, 200138, Note_off_c, 0, 70, 72
1, 200143, Control_c, 0, 67, 40
1, 200144, Note_off_c, 0, 82, 66
1, 200153, Note_off_c, 0, 77, 62
1, 200154, Note_off_c, 0, 86, 64
1, 200158, Control_c, 0, 67, 57
1, 200173, Control_c, 0, 67, 55
1, 200188, Control_c, 0, 67, 48
1, 200202, Control_c, 0, 67, 42
1, 200212, Note_on_c, 0, 69, 77
1, 200213, Note_on_c, 0, 81, 79
1, 200215, Note_on_c, 0, 78, 84
1, 200216, Note_on_c, 0, 71, 73
1, 200217, Control_c, 0, 67, 36
1, 200219, Note_on_c, 0, 62, 70
1, 200232, Control_c, 0, 67, 34
1, 200233, Note_off_c, 0, 81, 72
1, 200234, Note_off_c, 0, 69, 67
1, 200240, Note_off_c, 0, 71, 67
1, 200245, Note_off_c, 0, 78, 61
1, 200248, Control_c, 0, 67, 35
1, 200249, Note_off_c, 0, 62, 65
1, 200263, Control_c, 0, 67, 38
1, 200278, Control_c, 0, 67, 41
1, 200293, Control_c, 0, 67, 49
1, 200296, Note_on_c, 0, 66, 85
1, 200307, Control_c, 0, 67, 59
1, 200308, Note_on_c, 0, 78, 80
1, 200315, Note_on_c, 0, 70, 81
1, 200321, Note_on_c, 0, 80, 58
1, 200322, Control_c, 0, 67, 74
1, 200324, Note_on_c, 0, 81, 63
1, 200333, Note_off_c, 0, 66, 64
1, 200333, Note_off_c, 0, 70, 72
1, 200335, Note_off_c, 0, 78, 61
1, 200336, Note_on_c, 0, 82, 25
1, 200336, Note_off_c, 0, 82, 127
1, 200337, Control_c, 0, 67, 104
1, 200342, Note_off_c, 0, 81, 65
1, 200346, Note_off_c, 0, 80, 64
1, 200351, Control_c, 0, 67, 121
1, 200366, Control_c, 0, 67, 124
1, 200396, Control_c, 0, 67, 127
1, 200410, Note_on_c, 0, 59, 79
1, 200411, Note_on_c, 0, 65, 79
1, 200420, Note_on_c, 0, 77, 65
1, 200430, Note_on_c, 0, 74, 63
1, 200431, Note_off_c, 0, 65, 71
1, 200434, Note_off_c, 0, 59, 66
1, 200437, Note_off_c, 0, 77, 65
1, 200440, Control_c, 0, 67, 125
1, 200448, Note_off_c, 0, 74, 62
1, 200470, Control_c, 0, 67, 127
1, 200494, Note_on_c, 0, 67, 95
1, 200498, Note_on_c, 0, 63, 95
1, 200501, Note_on_c, 0, 79, 76
1, 200517, Note_off_c, 0, 63, 72
1, 200522, Note_off_c, 0, 67, 69
1, 200523, Note_off_c, 0, 79, 68
1, 200612, Note_on_c, 0, 70, 83
1, 200635, Note_off_c, 0, 70, 68
1, 200708, Note_on_c, 0, 73, 73
1, 200710, Note_on_c, 0, 64, 84
1, 200710, Note_on_c, 0, 76, 62
1, 200729, Note_on_c, 0, 57, 56
1, 200732, Note_off_c, 0, 76, 65
1, 200735, Note_off_c, 0, 73, 64
1, 200736, Note_off_c, 0, 64, 68
1, 200750, Note_off_c, 0, 57, 63
1, 200794, Note_on_c, 0, 77, 88
1, 200796, Note_on_c, 0, 74, 89
1, 200797, Note_on_c, 0, 65, 77
1, 200801, Note_on_c, 0, 62, 78
1, 200809, Note_on_c, 0, 76, 56
1, 200819, Note_off_c, 0, 65, 71
1, 200823, Note_off_c, 0, 62, 69
1, 200827, Note_off_c, 0, 74, 63
1, 200829, Note_off_c, 0, 76, 63
1, 200833, Note_off_c, 0, 77, 64
1, 200893, Note_on_c, 0, 67, 83
1, 200920, Note_off_c, 0, 67, 64
1, 200988, Note_on_c, 0, 58, 77
1, 200993, Note_on_c, 0, 67, 81
1, 200994, Note_on_c, 0, 61, 73
1, 201014, Note_off_c, 0, 58, 68
1, 201016, Note_off_c, 0, 67, 68
1, 201020, Note_off_c, 0, 61, 67
1, 201041, Note_on_c, 0, 64, 9
1, 201070, Note_on_c, 0, 57, 96
1, 201073, Note_on_c, 0, 60, 87
1, 201080, Note_on_c, 0, 74, 86
1, 201081, Note_off_c, 0, 64, 0
1, 201081, Note_on_c, 0, 64, 22
1, 201084, Note_on_c, 0, 65, 87
1, 201094, Note_off_c, 0, 60, 72
1, 201098, Note_off_c, 0, 57, 67
1, 201101, Note_off_c, 0, 65, 72
1, 201101, Note_off_c, 0, 74, 62
1, 201106, Note_off_c, 0, 64, 64
1, 201185, Note_on_c, 0, 60, 71
1, 201197, Note_on_c, 0, 62, 62
1, 201212, Note_off_c, 0, 60, 69
1, 201218, Note_off_c, 0, 62, 62
1, 201271, Note_on_c, 0, 61, 83
1, 201286, Note_on_c, 0, 55, 78
1, 201292, Note_on_c, 0, 58, 68
1, 201295, Note_off_c, 0, 61, 66
1, 201310, Note_off_c, 0, 55, 69
1, 201318, Note_off_c, 0, 58, 66
1, 201347, Note_on_c, 0, 69, 82
1, 201352, Note_on_c, 0, 53, 91
1, 201355, Note_on_c, 0, 57, 91
1, 201358, Note_on_c, 0, 64, 64
1, 201365, Note_on_c, 0, 62, 57
1, 201378, Note_off_c, 0, 57, 71
1, 201379, Note_off_c, 0, 64, 63
1, 201388, Note_off_c, 0, 53, 67
1, 201394, Note_off_c, 0, 62, 64
1, 201394, Note_off_c, 0, 69, 61
1, 201460, Note_on_c, 0, 57, 72
1, 201489, Note_off_c, 0, 57, 67
1, 201554, Note_on_c, 0, 62, 61
1, 201561, Note_on_c, 0, 51, 71
1, 201561, Note_on_c, 0, 55, 68
1, 201566, Note_on_c, 0, 58, 54
1, 201587, Note_off_c, 0, 51, 64
1, 201588, Note_off_c, 0, 55, 63
1, 201589, Note_off_c, 0, 58, 60
1, 201591, Note_off_c, 0, 62, 58
1, 201641, Note_on_c, 0, 53, 62
1, 201645, Note_on_c, 0, 65, 58
1, 201650, Note_on_c, 0, 57, 66
1, 201652, Note_on_c, 0, 50, 63
1, 201656, Note_on_c, 0, 48, 54
1, 201663, Note_off_c, 0, 53, 61
1, 201666, Note_off_c, 0, 65, 61
1, 201674, Note_off_c, 0, 50, 63
1, 201677, Note_off_c, 0, 57, 65
1, 201695, Note_off_c, 0, 48, 55
1, 201753, Note_on_c, 0, 53, 57
1, 201778, Note_off_c, 0, 53, 62
1, 201865, Note_on_c, 0, 45, 52
1, 201868, Note_on_c, 0, 52, 50
1, 201875, Note_on_c, 0, 55, 35
1, 201894, Note_off_c, 0, 52, 58
1, 201897, Note_off_c, 0, 45, 59
1, 201915, Note_off_c, 0, 55, 51
1, 202002, Note_on_c, 0, 53, 67
1, 202011, Note_on_c, 0, 62, 58
1, 202014, Note_on_c, 0, 38, 59
1, 202032, Note_off_c, 0, 53, 66
1, 202043, Note_off_c, 0, 38, 60
1, 202043, Note_off_c, 0, 62, 64
1, 202183, Control_c, 0, 67, 77
1, 202197, Control_c, 0, 64, 41
1, 202197, Control_c, 0, 67, 0
1, 202212, Control_c, 0, 64, 50
1, 202227, Control_c, 0, 64, 55
1, 202242, Control_c, 0, 64, 57
1, 202256, Control_c, 0, 64, 59
1, 202271, Control_c, 0, 64, 61
1, 202286, Control_c, 0, 64, 63
1, 202301, Control_c, 0, 64, 65
1, 202316, Control_c, 0, 64, 67
1, 202330, Control_c, 0, 64, 68
1, 202345, Control_c, 0, 64, 70
1, 202360, Control_c, 0, 64, 71
1, 202375, Control_c, 0, 64, 73
1, 202390, Control_c, 0, 64, 75
1, 202404, Control_c, 0, 64, 76
1, 202464, Control_c, 0, 64, 73
1, 202479, Control_c, 0, 64, 67
1, 202493, Control_c, 0, 64, 41
1, 202508, Control_c, 0, 64, 0
1, 202540, Note_on_c, 0, 38, 96
1, 202541, Note_on_c, 0, 26, 75
1, 202552, Control_c, 0, 64, 64
1, 202567, Control_c, 0, 64, 127
1, 202613, Note_off_c, 0, 26, 63
1, 202615, Note_off_c, 0, 38, 63
1, 203087, Note_on_c, 0, 62, 97
1, 203089, Note_on_c, 0, 74, 101
1, 203146, Note_off_c, 0, 62, 64
1, 203164, Note_off_c, 0, 74, 61
1, 203209, Note_on_c, 0, 77, 75
1, 203238, Note_on_c, 0, 65, 56
1, 203280, Note_off_c, 0, 65, 60
1, 203316, Note_on_c, 0, 58, 74
1, 203327, Note_on_c, 0, 70, 69
1, 203329, Note_off_c, 0, 77, 61
1, 203367, Note_off_c, 0, 70, 58
1, 203380, Note_off_c, 0, 58, 62
1, 203410, Note_on_c, 0, 65, 68
1, 203427, Note_on_c, 0, 77, 70
1, 203439, Note_off_c, 0, 65, 67
1, 203474, Note_on_c, 0, 62, 90
1, 203482, Note_on_c, 0, 74, 92
1, 203489, Note_off_c, 0, 77, 64
1, 203520, Note_on_c, 0, 73, 38
1, 203551, Note_off_c, 0, 73, 44
1, 203557, Note_off_c, 0, 62, 60
1, 203558, Note_off_c, 0, 74, 62
1, 203567, Note_on_c, 0, 63, 86
1, 203576, Note_on_c, 0, 75, 66
1, 203611, Note_off_c, 0, 63, 60
1, 203635, Note_off_c, 0, 75, 65
1, 203658, Note_on_c, 0, 56, 68
1, 203706, Note_off_c, 0, 56, 62
1, 203726, Note_on_c, 0, 63, 84
1, 203736, Note_on_c, 0, 75, 83
1, 203755, Note_off_c, 0, 63, 62
1, 203772, Note_off_c, 0, 75, 62
1, 203796, Note_on_c, 0, 62, 96
1, 203802, Note_on_c, 0, 74, 98
1, 203850, Note_on_c, 0, 73, 9
1, 203863, Note_off_c, 0, 62, 62
1, 203876, Note_on_c, 0, 76, 84
1, 203878, Note_off_c, 0, 74, 61
1, 203879, Note_on_c, 0, 64, 78
1, 203895, Note_off_c, 0, 73, 36
1, 203909, Note_off_c, 0, 64, 62
1, 203944, Note_off_c, 0, 76, 60
1, 203955, Note_on_c, 0, 57, 63
1, 203970, Note_on_c, 0, 69, 54
1, 203987, Note_off_c, 0, 57, 65
1, 203993, Note_off_c, 0, 69, 59
1, 204019, Note_on_c, 0, 64, 76
1, 204033, Note_on_c, 0, 76, 82
1, 204057, Note_off_c, 0, 64, 55
1, 204076, Note_off_c, 0, 76, 59
1, 204094, Note_on_c, 0, 61, 84
1, 204100, Note_on_c, 0, 73, 87
1, 204135, Note_off_c, 0, 61, 61
1, 204153, Note_on_c, 0, 64, 82
1, 204165, Note_off_c, 0, 73, 65
1, 204181, Note_on_c, 0, 76, 78
1, 204202, Note_off_c, 0, 64, 60
1, 204218, Note_on_c, 0, 60, 80
1, 204229, Note_on_c, 0, 68, 68
1, 204234, Note_off_c, 0, 76, 64
1, 204236, Note_on_c, 0, 56, 81
1, 204246, Note_on_c, 0, 72, 67
1, 204256, Note_off_c, 0, 68, 65
1, 204275, Note_off_c, 0, 60, 62
1, 204284, Note_off_c, 0, 56, 63
1, 204303, Note_off_c, 0, 72, 60
1, 204305, Note_on_c, 0, 64, 80
1, 204312, Note_on_c, 0, 76, 86
1, 204350, Note_off_c, 0, 64, 63
1, 204357, Note_off_c, 0, 76, 64
1, 204382, Note_on_c, 0, 61, 92
1, 204386, Note_on_c, 0, 73, 92
1, 204440, Note_off_c, 0, 61, 63
1, 204443, Control_c, 0, 64, 78
1, 204448, Note_on_c, 0, 65, 84
1, 204458, Control_c, 0, 64, 70
1, 204467, Note_on_c, 0, 77, 86
1, 204470, Note_off_c, 0, 73, 61
1, 204473, Control_c, 0, 64, 78
1, 204488, Control_c, 0, 64, 115
1, 204496, Note_off_c, 0, 65, 62
1, 204503, Control_c, 0, 64, 127
1, 204534, Note_off_c, 0, 77, 62
1, 204538, Note_on_c, 0, 57, 73
1, 204565, Note_on_c, 0, 69, 66
1, 204588, Note_off_c, 0, 57, 59
1, 204594, Note_off_c, 0, 69, 64
1, 204605, Note_on_c, 0, 65, 80
1, 204617, Note_on_c, 0, 77, 84
1, 204649, Note_off_c, 0, 65, 64
1, 204662, Note_off_c, 0, 77, 64
1, 204680, Control_c, 0, 64, 108
1, 204686, Note_on_c, 0, 62, 87
1, 204687, Note_on_c, 0, 74, 105
1, 204695, Control_c, 0, 64, 72
1, 204703, Note_on_c, 0, 64, 59
1, 204710, Control_c, 0, 64, 61
1, 204724, Control_c, 0, 64, 70
1, 204727, Note_off_c, 0, 64, 37
1, 204739, Control_c, 0, 64, 127
1, 204745, Note_off_c, 0, 74, 65
1, 204747, Note_off_c, 0, 62, 64
1, 204756, Note_on_c, 0, 65, 84
1, 204766, Note_on_c, 0, 77, 78
1, 204807, Note_off_c, 0, 65, 63
1, 204828, Note_off_c, 0, 77, 64
1, 204832, Note_on_c, 0, 58, 74
1, 204864, Note_off_c, 0, 58, 64
1, 204899, Note_on_c, 0, 65, 82
1, 204916, Note_on_c, 0, 77, 73
1, 204941, Note_off_c, 0, 65, 61
1, 204941, Note_off_c, 0, 77, 68
1, 204962, Control_c, 0, 64, 123
1, 204963, Note_on_c, 0, 62, 86
1, 204976, Note_on_c, 0, 74, 103
1, 204977, Control_c, 0, 64, 80
1, 204991, Control_c, 0, 64, 75
1, 204993, Note_on_c, 0, 73, 66
1, 205006, Control_c, 0, 64, 96
1, 205012, Note_off_c, 0, 73, 64
1, 205021, Control_c, 0, 64, 127
1, 205032, Note_on_c, 0, 66, 90
1, 205034, Note_off_c, 0, 62, 65
1, 205049, Note_off_c, 0, 74, 49
1, 205059, Note_on_c, 0, 78, 86
1, 205071, Note_off_c, 0, 66, 65
1, 205111, Note_on_c, 0, 79, 17
1, 205123, Note_on_c, 0, 59, 67
1, 205132, Note_off_c, 0, 78, 58
1, 205143, Note_on_c, 0, 71, 69
1, 205156, Note_off_c, 0, 79, 42
1, 205159, Note_off_c, 0, 59, 65
1, 205174, Note_on_c, 0, 62, 22
1, 205187, Note_on_c, 0, 66, 88
1, 205196, Note_off_c, 0, 71, 58
1, 205205, Note_on_c, 0, 78, 82
1, 205205, Note_off_c, 0, 62, 58
1, 205230, Note_off_c, 0, 66, 67
1, 205263, Note_off_c, 0, 78, 58
1, 205268, Note_on_c, 0, 62, 89
1, 205277, Note_on_c, 0, 74, 106
1, 205281, Control_c, 0, 64, 112
1, 205296, Control_c, 0, 64, 69
1, 205311, Control_c, 0, 64, 54
1, 205325, Control_c, 0, 64, 64
1, 205332, Note_off_c, 0, 62, 62
1, 205334, Note_off_c, 0, 74, 60
1, 205340, Control_c, 0, 64, 90
1, 205341, Note_on_c, 0, 67, 87
1, 205355, Control_c, 0, 64, 127
1, 205362, Note_on_c, 0, 79, 85
1, 205386, Note_off_c, 0, 67, 64
1, 205405, Note_on_c, 0, 80, 14
1, 205405, Note_off_c, 0, 80, 127
1, 205417, Note_off_c, 0, 79, 62
1, 205421, Note_on_c, 0, 60, 79
1, 205445, Note_on_c, 0, 72, 74
1, 205470, Note_off_c, 0, 60, 65
1, 205477, Note_off_c, 0, 72, 60
1, 205505, Note_on_c, 0, 67, 82
1, 205505, Note_on_c, 0, 79, 78
1, 205546, Note_off_c, 0, 67, 62
1, 205552, Note_off_c, 0, 79, 63
1, 205578, Note_on_c, 0, 65, 96
1, 205583, Note_on_c, 0, 77, 96
1, 205592, Control_c, 0, 64, 89
1, 205607, Control_c, 0, 64, 63
1, 205621, Control_c, 0, 64, 58
1, 205636, Control_c, 0, 64, 73
1, 205644, Note_off_c, 0, 65, 64
1, 205651, Control_c, 0, 64, 127
1, 205652, Note_on_c, 0, 67, 87
1, 205673, Note_on_c, 0, 79, 52
1, 205693, Note_off_c, 0, 67, 64
1, 205729, Note_on_c, 0, 59, 78
1, 205735, Note_off_c, 0, 77, 52
1, 205742, Note_off_c, 0, 79, 64
1, 205773, Note_off_c, 0, 59, 60
1, 205774, Note_on_c, 0, 71, 65
1, 205793, Note_off_c, 0, 71, 63
1, 205803, Note_on_c, 0, 67, 78
1, 205821, Note_on_c, 0, 79, 82
1, 205846, Note_off_c, 0, 67, 63
1, 205859, Control_c, 0, 64, 123
1, 205865, Note_on_c, 0, 64, 84
1, 205866, Note_off_c, 0, 79, 63
1, 205874, Control_c, 0, 64, 127
1, 205900, Note_on_c, 0, 76, 85
1, 205935, Note_off_c, 0, 64, 63
1, 205948, Note_off_c, 0, 76, 56
1, 205956, Note_on_c, 0, 68, 80
1, 205968, Note_on_c, 0, 80, 65
1, 205979, Note_off_c, 0, 68, 65
1, 206020, Note_on_c, 0, 63, 84
1, 206038, Note_on_c, 0, 60, 65
1, 206040, Note_on_c, 0, 75, 77
1, 206042, Note_on_c, 0, 72, 52
1, 206065, Note_off_c, 0, 72, 59
1, 206071, Note_off_c, 0, 80, 61
1, 206075, Note_off_c, 0, 60, 57
1, 206082, Note_off_c, 0, 63, 62
1, 206083, Note_on_c, 0, 68, 87
1, 206108, Note_on_c, 0, 80, 66
1, 206118, Note_off_c, 0, 75, 62
1, 206120, Note_off_c, 0, 68, 67
1, 206159, Note_off_c, 0, 80, 64
1, 206163, Note_on_c, 0, 64, 98
1, 206163, Control_c, 0, 64, 84
1, 206172, Note_on_c, 0, 76, 96
1, 206178, Control_c, 0, 64, 62
1, 206193, Control_c, 0, 64, 61
1, 206208, Control_c, 0, 64, 76
1, 206222, Control_c, 0, 64, 127
1, 206235, Note_off_c, 0, 64, 66
1, 206249, Note_on_c, 0, 81, 63
1, 206249, Note_off_c, 0, 76, 59
1, 206250, Note_on_c, 0, 69, 88
1, 206300, Note_off_c, 0, 69, 62
1, 206318, Note_off_c, 0, 81, 63
1, 206327, Note_on_c, 0, 61, 67
1, 206359, Note_off_c, 0, 61, 65
1, 206380, Note_on_c, 0, 81, 76
1, 206388, Note_on_c, 0, 69, 85
1, 206421, Note_off_c, 0, 81, 66
1, 206428, Note_off_c, 0, 69, 60
1, 206429, Control_c, 0, 64, 99
1, 206444, Control_c, 0, 64, 64
1, 206445, Note_on_c, 0, 65, 87
1, 206453, Note_on_c, 0, 77, 92
1, 206459, Control_c, 0, 64, 47
1, 206474, Control_c, 0, 64, 68
1, 206488, Control_c, 0, 64, 127
1, 206520, Note_on_c, 0, 82, 87
1, 206524, Note_off_c, 0, 77, 61
1, 206527, Note_on_c, 0, 70, 91
1, 206530, Note_off_c, 0, 65, 65
1, 206568, Note_off_c, 0, 70, 65
1, 206584, Note_off_c, 0, 82, 61
1, 206609, Note_on_c, 0, 74, 69
1, 206616, Note_on_c, 0, 62, 73
1, 206637, Note_off_c, 0, 74, 65
1, 206672, Note_on_c, 0, 82, 86
1, 206673, Note_on_c, 0, 70, 88
1, 206676, Note_off_c, 0, 62, 62
1, 206715, Note_off_c, 0, 70, 67
1, 206734, Control_c, 0, 64, 93
1, 206735, Note_off_c, 0, 82, 57
1, 206738, Note_on_c, 0, 77, 94
1, 206744, Note_on_c, 0, 65, 87
1, 206749, Control_c, 0, 64, 66
1, 206764, Control_c, 0, 64, 60
1, 206772, Note_on_c, 0, 75, 49
1, 206779, Control_c, 0, 64, 82
1, 206793, Control_c, 0, 64, 127
1, 206796, Note_off_c, 0, 75, 54
1, 206809, Note_on_c, 0, 68, 86
1, 206822, Note_on_c, 0, 80, 81
1, 206825, Note_off_c, 0, 77, 61
1, 206827, Note_off_c, 0, 65, 62
1, 206861, Note_off_c, 0, 68, 63
1, 206876, Note_off_c, 0, 80, 62
1, 206890, Note_on_c, 0, 73, 66
1, 206899, Note_on_c, 0, 61, 75
1, 206920, Note_off_c, 0, 73, 62
1, 206937, Note_off_c, 0, 61, 62
1, 206954, Note_on_c, 0, 68, 86
1, 206956, Note_on_c, 0, 80, 82
1, 206968, Poly_aftertouch_c, 0, 75, 0
1, 206994, Note_off_c, 0, 68, 58
1, 207004, Note_off_c, 0, 80, 63
1, 207016, Control_c, 0, 64, 87
1, 207019, Note_on_c, 0, 65, 94
1, 207019, Note_on_c, 0, 77, 101
1, 207030, Control_c, 0, 64, 62
1, 207042, Poly_aftertouch_c, 0, 78, 0
1, 207045, Control_c, 0, 64, 58
1, 207060, Control_c, 0, 64, 72
1, 207075, Control_c, 0, 64, 127
1, 207090, Note_on_c, 0, 69, 88
1, 207093, Note_on_c, 0, 81, 87
1, 207093, Note_off_c, 0, 65, 54
1, 207102, Note_off_c, 0, 77, 61
1, 207139, Note_off_c, 0, 69, 63
1, 207164, Note_off_c, 0, 81, 59
1, 207173, Note_on_c, 0, 72, 71
1, 207183, Note_on_c, 0, 60, 51
1, 207196, Note_off_c, 0, 72, 68
1, 207208, Note_off_c, 0, 60, 63
1, 207227, Note_on_c, 0, 69, 86
1, 207233, Note_on_c, 0, 81, 82
1, 207259, Note_off_c, 0, 69, 63
1, 207276, Note_off_c, 0, 81, 63
1, 207282, Control_c, 0, 64, 83
1, 207297, Note_on_c, 0, 65, 97
1, 207297, Control_c, 0, 64, 58
1, 207300, Note_on_c, 0, 77, 99
1, 207311, Control_c, 0, 64, 61
1, 207326, Control_c, 0, 64, 81
1, 207330, Note_on_c, 0, 76, 50
1, 207330, Note_off_c, 0, 76, 127
1, 207341, Control_c, 0, 64, 127
1, 207373, Note_off_c, 0, 65, 63
1, 207375, Note_on_c, 0, 79, 67
1, 207376, Note_off_c, 0, 77, 62
1, 207380, Note_on_c, 0, 67, 86
1, 207427, Note_off_c, 0, 67, 59
1, 207439, Note_off_c, 0, 79, 64
1, 207445, Note_on_c, 0, 59, 73
1, 207480, Note_on_c, 0, 71, 27
1, 207490, Note_off_c, 0, 59, 61
1, 207502, Note_on_c, 0, 79, 75
1, 207510, Poly_aftertouch_c, 0, 72, 127
1, 207514, Note_off_c, 0, 71, 47
1, 207519, Note_on_c, 0, 67, 86
1, 207546, Poly_aftertouch_c, 0, 72, 0
1, 207552, Note_off_c, 0, 79, 66
1, 207558, Note_off_c, 0, 67, 66
1, 207590, Note_on_c, 0, 64, 86
1, 207591, Note_on_c, 0, 76, 86
1, 207633, Note_off_c, 0, 76, 63
1, 207661, Note_on_c, 0, 68, 85
1, 207662, Note_off_c, 0, 64, 63
1, 207668, Note_on_c, 0, 79, 74
1, 207674, Note_on_c, 0, 80, 39
1, 207702, Note_off_c, 0, 68, 63
1, 207707, Note_off_c, 0, 80, 49
1, 207715, Note_off_c, 0, 79, 61
1, 207732, Note_on_c, 0, 60, 74
1, 207735, Note_on_c, 0, 72, 74
1, 207736, Note_on_c, 0, 75, 89
1, 207737, Note_on_c, 0, 63, 78
1, 207763, Note_off_c, 0, 72, 66
1, 207766, Note_off_c, 0, 60, 66
1, 207794, Note_off_c, 0, 63, 62
1, 207800, Note_on_c, 0, 68, 89
1, 207805, Note_on_c, 0, 80, 81
1, 207808, Note_off_c, 0, 75, 62
1, 207840, Note_off_c, 0, 68, 65
1, 207845, Note_off_c, 0, 80, 67
1, 207867, Note_on_c, 0, 64, 88
1, 207877, Note_on_c, 0, 76, 92
1, 207883, Control_c, 0, 64, 84
1, 207898, Control_c, 0, 64, 64
1, 207902, Note_on_c, 0, 74, 59
1, 207902, Note_off_c, 0, 74, 127
1, 207913, Control_c, 0, 64, 63
1, 207928, Control_c, 0, 64, 75
1, 207939, Note_off_c, 0, 76, 62
1, 207940, Note_off_c, 0, 64, 65
1, 207943, Control_c, 0, 64, 127
1, 207953, Note_on_c, 0, 67, 83
1, 207955, Note_on_c, 0, 79, 71
1, 207996, Note_off_c, 0, 67, 64
1, 208014, Note_off_c, 0, 79, 60
1, 208021, Note_on_c, 0, 71, 69
1, 208039, Note_on_c, 0, 59, 67
1, 208049, Note_off_c, 0, 71, 65
1, 208069, Note_off_c, 0, 59, 68
1, 208098, Note_on_c, 0, 79, 81
1, 208101, Note_on_c, 0, 67, 82
1, 208135, Control_c, 0, 64, 89
1, 208150, Note_off_c, 0, 79, 52
1, 208150, Control_c, 0, 64, 65
1, 208169, Note_on_c, 0, 75, 92
1, 208170, Note_on_c, 0, 63, 92
1, 208172, Control_c, 0, 64, 62
1, 208182, Note_off_c, 0, 67, 59
1, 208187, Control_c, 0, 64, 78
1, 208202, Control_c, 0, 64, 127
1, 208241, Note_off_c, 0, 63, 63
1, 208243, Note_off_c, 0, 75, 64
1, 208250, Note_on_c, 0, 79, 76
1, 208253, Note_on_c, 0, 67, 74
1, 208303, Note_off_c, 0, 67, 62
1, 208303, Note_off_c, 0, 79, 61
1, 208317, Note_on_c, 0, 58, 76
1, 208322, Note_on_c, 0, 70, 58
1, 208350, Note_off_c, 0, 70, 66
1, 208372, Note_off_c, 0, 58, 63
1, 208377, Note_on_c, 0, 79, 82
1, 208394, Note_on_c, 0, 67, 80
1, 208420, Note_off_c, 0, 67, 60
1, 208425, Control_c, 0, 64, 83
1, 208440, Control_c, 0, 64, 57
1, 208441, Note_off_c, 0, 79, 45
1, 208443, Note_on_c, 0, 76, 94
1, 208447, Note_on_c, 0, 64, 81
1, 208455, Control_c, 0, 64, 51
1, 208464, Note_on_c, 0, 65, 58
1, 208470, Control_c, 0, 64, 69
1, 208484, Control_c, 0, 64, 127
1, 208487, Note_off_c, 0, 65, 37
1, 208518, Note_on_c, 0, 78, 87
1, 208521, Note_on_c, 0, 66, 94
1, 208521, Note_off_c, 0, 64, 63
1, 208539, Note_off_c, 0, 76, 59
1, 208568, Note_off_c, 0, 66, 64
1, 208584, Note_off_c, 0, 78, 60
1, 208599, Note_on_c, 0, 71, 79
1, 208625, Note_on_c, 0, 59, 55
1, 208633, Note_off_c, 0, 71, 60
1, 208651, Note_off_c, 0, 59, 59
1, 208655, Note_on_c, 0, 78, 80
1, 208658, Note_on_c, 0, 66, 95
1, 208693, Note_off_c, 0, 66, 63
1, 208695, Note_off_c, 0, 78, 59
1, 208721, Control_c, 0, 64, 68
1, 208729, Note_on_c, 0, 63, 97
1, 208736, Note_on_c, 0, 75, 91
1, 208736, Control_c, 0, 64, 50
1, 208751, Control_c, 0, 64, 63
1, 208756, Note_on_c, 0, 78, 41
1, 208765, Control_c, 0, 64, 94
1, 208780, Control_c, 0, 64, 127
1, 208789, Note_off_c, 0, 75, 62
1, 208790, Note_off_c, 0, 78, 51
1, 208801, Note_off_c, 0, 63, 61
1, 208803, Note_on_c, 0, 79, 77
1, 208807, Note_on_c, 0, 67, 82
1, 208852, Note_off_c, 0, 67, 65
1, 208877, Note_off_c, 0, 79, 60
1, 208879, Note_on_c, 0, 70, 75
1, 208891, Note_on_c, 0, 58, 66
1, 208905, Note_off_c, 0, 70, 66
1, 208946, Note_off_c, 0, 58, 60
1, 208952, Note_on_c, 0, 67, 87
1, 208968, Note_on_c, 0, 79, 78
1, 208995, Note_off_c, 0, 67, 64
1, 208995, Control_c, 0, 64, 89
1, 209010, Control_c, 0, 64, 61
1, 209015, Note_on_c, 0, 62, 88
1, 209023, Note_on_c, 0, 74, 98
1, 209025, Control_c, 0, 64, 56
1, 209035, Note_off_c, 0, 79, 61
1, 209040, Control_c, 0, 64, 78
1, 209055, Control_c, 0, 64, 127
1, 209058, Note_on_c, 0, 73, 39
1, 209058, Note_off_c, 0, 73, 127
1, 209096, Note_on_c, 0, 66, 90
1, 209099, Note_off_c, 0, 62, 64
1, 209122, Note_on_c, 0, 78, 74
1, 209137, Note_off_c, 0, 66, 67
1, 209139, Note_on_c, 0, 76, 32
1, 209147, Note_off_c, 0, 74, 0
1, 209173, Note_on_c, 0, 79, 9
1, 209174, Note_off_c, 0, 78, 55
1, 209177, Note_on_c, 0, 57, 84
1, 209180, Note_off_c, 0, 76, 51
1, 209184, Poly_aftertouch_c, 0, 74, 127
1, 209198, Note_on_c, 0, 74, 12
1, 209212, Note_on_c, 0, 69, 57
1, 209218, Note_off_c, 0, 79, 42
1, 209228, Note_off_c, 0, 57, 63
1, 209234, Note_on_c, 0, 66, 90
1, 209241, Note_off_c, 0, 69, 66
1, 209274, Note_on_c, 0, 78, 71
1, 209283, Note_off_c, 0, 66, 66
1, 209312, Note_on_c, 0, 61, 94
1, 209314, Note_off_c, 0, 74, 0
1, 209322, Control_c, 0, 64, 77
1, 209325, Poly_aftertouch_c, 0, 76, 127
1, 209333, Note_on_c, 0, 73, 89
1, 209337, Control_c, 0, 64, 57
1, 209344, Note_on_c, 0, 74, 6
1, 209345, Note_off_c, 0, 78, 56
1, 209352, Control_c, 0, 64, 67
1, 209362, Poly_aftertouch_c, 0, 76, 0
1, 209367, Control_c, 0, 64, 127
1, 209403, Note_off_c, 0, 61, 64
1, 209403, Note_off_c, 0, 74, 49
1, 209410, Note_on_c, 0, 65, 91
1, 209416, Note_off_c, 0, 73, 60
1, 209436, Note_on_c, 0, 77, 76
1, 209459, Note_on_c, 0, 76, 47
1, 209505, Note_on_c, 0, 60, 89
1, 209513, Note_on_c, 0, 72, 89
1, 209527, Note_on_c, 0, 68, 80
1, 209528, Note_off_c, 0, 65, 59
1, 209542, Note_on_c, 0, 56, 68
1, 209544, Note_on_c, 0, 58, 54
1, 209549, Note_off_c, 0, 77, 62
1, 209567, Note_off_c, 0, 58, 60
1, 209589, Note_off_c, 0, 76, 21
1, 209600, Note_off_c, 0, 68, 58
1, 209608, Note_off_c, 0, 56, 62
1, 209618, Note_off_c, 0, 60, 66
1, 209619, Note_on_c, 0, 65, 95
1, 209639, Note_on_c, 0, 77, 97
1, 209641, Note_off_c, 0, 72, 61
1, 209755, Note_on_c, 0, 61, 92
1, 209755, Note_on_c, 0, 73, 97
1, 209782, Note_off_c, 0, 65, 62
1, 209821, Note_off_c, 0, 77, 57
1, 209852, Note_on_c, 0, 76, 53
1, 209880, Note_on_c, 0, 64, 90
1, 209881, Note_off_c, 0, 73, 57
1, 209922, Note_on_c, 0, 77, 11
1, 209970, Note_off_c, 0, 77, 52
1, 209997, Control_c, 0, 64, 88
1, 210011, Control_c, 0, 64, 69
1, 210015, Note_on_c, 0, 57, 89
1, 210017, Note_on_c, 0, 69, 101
1, 210026, Control_c, 0, 64, 75
1, 210029, Note_off_c, 0, 61, 57
1, 210037, Note_off_c, 0, 64, 67
1, 210041, Control_c, 0, 64, 127
1, 210068, Note_off_c, 0, 57, 68
1, 210068, Note_off_c, 0, 69, 66
1, 210077, Note_off_c, 0, 76, 65
1, 210434, Control_c, 0, 64, 92
1, 210442, Note_on_c, 0, 38, 87
1, 210447, Note_on_c, 0, 26, 82
1, 210449, Control_c, 0, 64, 60
1, 210456, Note_on_c, 0, 50, 97
1, 210463, Control_c, 0, 64, 38
1, 210478, Control_c, 0, 64, 56
1, 210493, Control_c, 0, 64, 75
1, 210508, Control_c, 0, 64, 127
1, 210545, Poly_aftertouch_c, 0, 51, 127
1, 210563, Note_off_c, 0, 38, 61
1, 210566, Note_off_c, 0, 26, 62
1, 210571, Note_off_c, 0, 50, 65
1, 210581, Poly_aftertouch_c, 0, 51, 0
1, 210953, Note_on_c, 0, 62, 84
1, 210956, Note_on_c, 0, 74, 91
1, 210964, Note_on_c, 0, 76, 79
1, 210981, Note_off_c, 0, 76, 62
1, 211025, Note_off_c, 0, 74, 65
1, 211031, Note_off_c, 0, 62, 62
1, 211057, Note_on_c, 0, 77, 83
1, 211060, Note_on_c, 0, 65, 68
1, 211099, Note_off_c, 0, 65, 55
1, 211162, Note_on_c, 0, 58, 70
1, 211168, Note_on_c, 0, 70, 78
1, 211174, Note_off_c, 0, 77, 59
1, 211201, Note_off_c, 0, 70, 58
1, 211213, Note_off_c, 0, 58, 58
1, 211237, Note_on_c, 0, 65, 64
1, 211244, Note_on_c, 0, 77, 72
1, 211266, Note_off_c, 0, 65, 65
1, 211297, Note_on_c, 0, 62, 90
1, 211297, Note_on_c, 0, 63, 53
1, 211303, Note_on_c, 0, 74, 97
1, 211314, Note_off_c, 0, 77, 62
1, 211323, Note_off_c, 0, 63, 57
1, 211342, Note_on_c, 0, 73, 34
1, 211364, Note_off_c, 0, 73, 36
1, 211374, Note_on_c, 0, 63, 88
1, 211377, Note_off_c, 0, 62, 64
1, 211389, Note_on_c, 0, 75, 87
1, 211389, Note_off_c, 0, 74, 65
1, 211418, Note_off_c, 0, 63, 63
1, 211436, Note_off_c, 0, 75, 66
1, 211450, Note_on_c, 0, 56, 70
1, 211463, Note_on_c, 0, 68, 59
1, 211489, Note_off_c, 0, 68, 64
1, 211507, Note_off_c, 0, 56, 62
1, 211516, Note_on_c, 0, 63, 81
1, 211517, Note_on_c, 0, 75, 85
1, 211541, Note_off_c, 0, 63, 66
1, 211557, Note_off_c, 0, 75, 65
1, 211586, Note_on_c, 0, 74, 96
1, 211592, Note_on_c, 0, 62, 78
1, 211603, Note_on_c, 0, 63, 12
1, 211603, Note_off_c, 0, 63, 127
1, 211616, Note_on_c, 0, 64, 47
1, 211616, Note_off_c, 0, 64, 127
1, 211638, Poly_aftertouch_c, 0, 63, 0
1, 211653, Note_off_c, 0, 62, 60
1, 211654, Note_on_c, 0, 76, 82
1, 211654, Note_off_c, 0, 74, 64
1, 211663, Note_on_c, 0, 64, 58
1, 211698, Note_off_c, 0, 64, 65
1, 211715, Note_off_c, 0, 76, 62
1, 211746, Note_on_c, 0, 69, 57
1, 211768, Note_off_c, 0, 69, 63
1, 211799, Note_on_c, 0, 76, 80
1, 211803, Note_on_c, 0, 64, 77
1, 211837, Note_off_c, 0, 64, 61
1, 211838, Poly_aftertouch_c, 0, 57, 0
1, 211845, Note_off_c, 0, 76, 62
1, 211870, Note_on_c, 0, 60, 84
1, 211872, Note_on_c, 0, 72, 89
1, 211936, Note_off_c, 0, 60, 63
1, 211936, Note_off_c, 0, 72, 63
1, 211946, Note_on_c, 0, 64, 77
1, 211948, Note_on_c, 0, 76, 81
1, 212006, Note_off_c, 0, 64, 59
1, 212008, Note_off_c, 0, 76, 62
1, 212014, Note_on_c, 0, 59, 74
1, 212018, Note_on_c, 0, 56, 72
1, 212024, Note_on_c, 0, 71, 59
1, 212026, Note_on_c, 0, 68, 59
1, 212032, Note_on_c, 0, 70, 56
1, 212047, Note_off_c, 0, 68, 63
1, 212051, Note_off_c, 0, 56, 67
1, 212053, Note_off_c, 0, 71, 66
1, 212056, Note_off_c, 0, 70, 60
1, 212076, Note_off_c, 0, 59, 63
1, 212092, Note_on_c, 0, 64, 81
1, 212104, Note_on_c, 0, 77, 47
1, 212116, Note_on_c, 0, 76, 60
1, 212116, Note_off_c, 0, 64, 68
1, 212128, Note_off_c, 0, 77, 57
1, 212140, Note_off_c, 0, 76, 65
1, 212151, Note_on_c, 0, 72, 92
1, 212152, Note_on_c, 0, 60, 89
1, 212154, Control_c, 0, 64, 114
1, 212168, Control_c, 0, 64, 90
1, 212183, Control_c, 0, 64, 91
1, 212198, Control_c, 0, 64, 127
1, 212221, Note_on_c, 0, 76, 82
1, 212226, Note_on_c, 0, 64, 82
1, 212232, Note_off_c, 0, 60, 65
1, 212232, Note_off_c, 0, 72, 60
1, 212271, Note_off_c, 0, 64, 64
1, 212298, Note_off_c, 0, 76, 62
1, 212320, Note_on_c, 0, 67, 44
1, 212322, Note_on_c, 0, 55, 54
1, 212348, Note_off_c, 0, 67, 55
1, 212350, Note_off_c, 0, 55, 62
1, 212354, Note_on_c, 0, 76, 81
1, 212361, Note_on_c, 0, 64, 81
1, 212399, Note_off_c, 0, 64, 65
1, 212403, Note_off_c, 0, 76, 65
1, 212407, Control_c, 0, 64, 88
1, 212422, Note_on_c, 0, 60, 87
1, 212422, Control_c, 0, 64, 66
1, 212429, Note_on_c, 0, 72, 86
1, 212437, Control_c, 0, 64, 64
1, 212451, Control_c, 0, 64, 83
1, 212466, Control_c, 0, 64, 127
1, 212500, Note_on_c, 0, 63, 83
1, 212503, Note_off_c, 0, 60, 65
1, 212504, Note_on_c, 0, 75, 84
1, 212504, Note_off_c, 0, 72, 63
1, 212548, Note_off_c, 0, 63, 63
1, 212571, Note_on_c, 0, 56, 77
1, 212572, Note_off_c, 0, 75, 62
1, 212577, Note_on_c, 0, 68, 65
1, 212604, Note_off_c, 0, 68, 68
1, 212630, Note_off_c, 0, 56, 60
1, 212633, Note_on_c, 0, 63, 87
1, 212640, Note_on_c, 0, 75, 86
1, 212676, Note_off_c, 0, 63, 64
1, 212691, Note_off_c, 0, 75, 65
1, 212696, Control_c, 0, 64, 100
1, 212711, Control_c, 0, 64, 68
1, 212712, Note_on_c, 0, 60, 78
1, 212712, Note_on_c, 0, 72, 99
1, 212726, Control_c, 0, 64, 62
1, 212740, Control_c, 0, 64, 72
1, 212755, Control_c, 0, 64, 102
1, 212770, Control_c, 0, 64, 127
1, 212774, Note_on_c, 0, 74, 77
1, 212775, Note_off_c, 0, 60, 65
1, 212779, Note_on_c, 0, 62, 79
1, 212780, Note_off_c, 0, 72, 63
1, 212822, Note_off_c, 0, 62, 62
1, 212825, Note_off_c, 0, 74, 63
1, 212843, Note_on_c, 0, 67, 67
1, 212853, Note_on_c, 0, 55, 71
1, 212867, Note_off_c, 0, 67, 69
1, 212894, Note_off_c, 0, 55, 61
1, 212906, Note_on_c, 0, 74, 88
1, 212926, Note_on_c, 0, 62, 69
1, 212948, Control_c, 0, 64, 87
1, 212951, Note_off_c, 0, 62, 65
1, 212952, Note_on_c, 0, 64, 28
1, 212954, Note_off_c, 0, 74, 60
1, 212962, Control_c, 0, 64, 67
1, 212971, Note_on_c, 0, 71, 90
1, 212974, Note_on_c, 0, 59, 85
1, 212977, Control_c, 0, 64, 66
1, 212987, Note_off_c, 0, 64, 49
1, 212992, Control_c, 0, 64, 85
1, 213007, Control_c, 0, 64, 127
1, 213024, Note_off_c, 0, 59, 63
1, 213026, Note_on_c, 0, 74, 91
1, 213028, Note_off_c, 0, 71, 62
1, 213061, Note_on_c, 0, 62, 75
1, 213100, Note_off_c, 0, 74, 58
1, 213103, Note_off_c, 0, 62, 58
1, 213114, Note_on_c, 0, 66, 72
1, 213134, Note_on_c, 0, 54, 68
1, 213141, Note_off_c, 0, 66, 66
1, 213160, Note_off_c, 0, 54, 66
1, 213170, Note_on_c, 0, 74, 79
1, 213191, Note_on_c, 0, 62, 83
1, 213216, Note_off_c, 0, 74, 63
1, 213217, Note_off_c, 0, 62, 65
1, 213240, Note_on_c, 0, 70, 93
1, 213245, Control_c, 0, 64, 74
1, 213249, Note_on_c, 0, 58, 84
1, 213260, Control_c, 0, 64, 53
1, 213289, Control_c, 0, 64, 65
1, 213304, Control_c, 0, 64, 85
1, 213308, Note_off_c, 0, 58, 62
1, 213315, Note_off_c, 0, 70, 57
1, 213319, Note_on_c, 0, 72, 94
1, 213319, Control_c, 0, 64, 127
1, 213324, Note_on_c, 0, 60, 83
1, 213376, Note_off_c, 0, 60, 64
1, 213386, Note_off_c, 0, 72, 61
1, 213428, Note_on_c, 0, 53, 52
1, 213460, Note_off_c, 0, 53, 64
1, 213469, Note_on_c, 0, 72, 72
1, 213480, Note_on_c, 0, 60, 72
1, 213508, Note_off_c, 0, 72, 58
1, 213509, Note_off_c, 0, 60, 62
1, 213519, Control_c, 0, 64, 108
1, 213534, Control_c, 0, 64, 103
1, 213535, Note_on_c, 0, 69, 94
1, 213542, Note_on_c, 0, 57, 84
1, 213549, Control_c, 0, 64, 127
1, 213591, Note_off_c, 0, 69, 62
1, 213595, Note_off_c, 0, 57, 61
1, 213597, Note_on_c, 0, 72, 83
1, 213616, Note_on_c, 0, 60, 75
1, 213655, Note_on_c, 0, 68, 88
1, 213658, Note_off_c, 0, 72, 63
1, 213666, Note_off_c, 0, 60, 50
1, 213671, Note_on_c, 0, 64, 69
1, 213675, Note_on_c, 0, 56, 80
1, 213684, Note_on_c, 0, 52, 73
1, 213696, Note_off_c, 0, 64, 65
1, 213703, Note_off_c, 0, 68, 63
1, 213718, Note_off_c, 0, 52, 56
1, 213725, Note_on_c, 0, 72, 89
1, 213731, Note_off_c, 0, 56, 61
1, 213744, Note_on_c, 0, 60, 80
1, 213782, Note_off_c, 0, 72, 60
1, 213785, Note_off_c, 0, 60, 65
1, 213798, Note_on_c, 0, 69, 93
1, 213804, Note_on_c, 0, 57, 89
1, 213830, Control_c, 0, 64, 79
1, 213845, Control_c, 0, 64, 59
1, 213860, Control_c, 0, 64, 58
1, 213868, Note_off_c, 0, 69, 62
1, 213872, Note_on_c, 0, 72, 82
1, 213872, Note_off_c, 0, 57, 62
1, 213875, Control_c, 0, 64, 69
1, 213888, Note_on_c, 0, 60, 84
1, 213890, Control_c, 0, 64, 103
1, 213904, Control_c, 0, 64, 127
1, 213934, Note_off_c, 0, 60, 61
1, 213937, Note_off_c, 0, 72, 63
1, 213968, Note_on_c, 0, 53, 64
1, 213971, Note_on_c, 0, 65, 29
1, 214000, Note_off_c, 0, 53, 65
1, 214006, Note_off_c, 0, 65, 50
1, 214013, Note_on_c, 0, 72, 69
1, 214033, Note_on_c, 0, 60, 74
1, 214059, Note_off_c, 0, 60, 65
1, 214063, Note_off_c, 0, 72, 61
1, 214096, Note_on_c, 0, 69, 80
1, 214108, Note_on_c, 0, 57, 73
1, 214111, Control_c, 0, 64, 94
1, 214126, Control_c, 0, 64, 65
1, 214141, Control_c, 0, 64, 60
1, 214159, Note_off_c, 0, 69, 61
1, 214164, Control_c, 0, 64, 69
1, 214169, Note_off_c, 0, 57, 57
1, 214178, Control_c, 0, 64, 93
1, 214189, Note_on_c, 0, 59, 71
1, 214193, Note_on_c, 0, 71, 63
1, 214193, Control_c, 0, 64, 127
1, 214204, Note_on_c, 0, 72, 50
1, 214220, Note_off_c, 0, 59, 64
1, 214227, Note_off_c, 0, 72, 57
1, 214240, Note_off_c, 0, 71, 62
1, 214266, Note_on_c, 0, 52, 65
1, 214285, Note_on_c, 0, 64, 48
1, 214301, Note_off_c, 0, 52, 64
1, 214313, Note_off_c, 0, 64, 56
1, 214323, Note_on_c, 0, 59, 70
1, 214328, Note_on_c, 0, 71, 77
1, 214361, Note_off_c, 0, 59, 63
1, 214370, Control_c, 0, 64, 92
1, 214380, Note_off_c, 0, 71, 59
1, 214385, Control_c, 0, 64, 73
1, 214388, Note_on_c, 0, 55, 73
1, 214391, Note_on_c, 0, 67, 81
1, 214400, Control_c, 0, 64, 73
1, 214415, Control_c, 0, 64, 127
1, 214451, Note_off_c, 0, 67, 61
1, 214462, Note_on_c, 0, 58, 86
1, 214463, Note_on_c, 0, 70, 82
1, 214478, Note_off_c, 0, 55, 62
1, 214510, Note_off_c, 0, 58, 61
1, 214527, Note_off_c, 0, 70, 61
1, 214534, Note_on_c, 0, 62, 54
1, 214539, Note_on_c, 0, 50, 69
1, 214557, Note_off_c, 0, 62, 61
1, 214569, Note_off_c, 0, 50, 66
1, 214591, Note_on_c, 0, 58, 95
1, 214599, Note_on_c, 0, 70, 79
1, 214629, Note_off_c, 0, 70, 64
1, 214630, Note_off_c, 0, 58, 64
1, 214668, Control_c, 0, 64, 82
1, 214675, Note_on_c, 0, 67, 103
1, 214677, Note_on_c, 0, 55, 81
1, 214682, Poly_aftertouch_c, 0, 68, 0
1, 214682, Control_c, 0, 64, 58
1, 214697, Control_c, 0, 64, 47
1, 214712, Control_c, 0, 64, 61
1, 214727, Control_c, 0, 64, 85
1, 214739, Note_on_c, 0, 69, 71
1, 214742, Control_c, 0, 64, 127
1, 214744, Note_off_c, 0, 67, 61
1, 214745, Note_on_c, 0, 57, 80
1, 214756, Note_off_c, 0, 55, 61
1, 214790, Note_off_c, 0, 57, 64
1, 214819, Note_on_c, 0, 62, 75
1, 214819, Note_off_c, 0, 69, 61
1, 214820, Note_on_c, 0, 50, 83
1, 214846, Note_off_c, 0, 62, 68
1, 214876, Note_off_c, 0, 50, 63
1, 214879, Note_on_c, 0, 57, 93
1, 214881, Note_on_c, 0, 69, 84
1, 214927, Note_off_c, 0, 57, 67
1, 214942, Control_c, 0, 64, 75
1, 214957, Control_c, 0, 64, 57
1, 214960, Note_on_c, 0, 53, 91
1, 214960, Note_off_c, 0, 69, 43
1, 214961, Note_on_c, 0, 65, 93
1, 214972, Control_c, 0, 64, 67
1, 214986, Control_c, 0, 64, 107
1, 215001, Control_c, 0, 64, 127
1, 215031, Note_on_c, 0, 69, 85
1, 215034, Note_off_c, 0, 65, 62
1, 215042, Note_on_c, 0, 57, 80
1, 215045, Note_off_c, 0, 53, 63
1, 215097, Note_off_c, 0, 57, 63
1, 215109, Note_on_c, 0, 49, 76
1, 215113, Note_on_c, 0, 61, 79
1, 215118, Note_off_c, 0, 69, 59
1, 215143, Note_off_c, 0, 61, 64
1, 215166, Note_off_c, 0, 49, 61
1, 215172, Note_on_c, 0, 57, 86
1, 215177, Note_on_c, 0, 69, 78
1, 215226, Note_off_c, 0, 57, 64
1, 215240, Note_off_c, 0, 69, 60
1, 215246, Note_on_c, 0, 53, 93
1, 215254, Note_on_c, 0, 65, 92
1, 215267, Control_c, 0, 64, 80
1, 215282, Control_c, 0, 64, 64
1, 215297, Control_c, 0, 64, 69
1, 215312, Control_c, 0, 64, 107
1, 215326, Note_on_c, 0, 67, 90
1, 215326, Control_c, 0, 64, 127
1, 215330, Note_on_c, 0, 55, 88
1, 215330, Note_off_c, 0, 53, 66
1, 215369, Note_off_c, 0, 65, 35
1, 215383, Note_off_c, 0, 55, 63
1, 215403, Note_on_c, 0, 49, 86
1, 215416, Note_off_c, 0, 67, 68
1, 215422, Note_on_c, 0, 61, 75
1, 215447, Note_off_c, 0, 61, 70
1, 215469, Note_off_c, 0, 49, 59
1, 215472, Note_on_c, 0, 55, 88
1, 215494, Note_on_c, 0, 67, 82
1, 215520, Control_c, 0, 64, 93
1, 215534, Note_off_c, 0, 55, 62
1, 215535, Control_c, 0, 64, 93
1, 215550, Control_c, 0, 64, 127
1, 215558, Note_on_c, 0, 52, 84
1, 215572, Note_on_c, 0, 64, 94
1, 215607, Note_off_c, 0, 67, 63
1, 215635, Note_on_c, 0, 55, 97
1, 215651, Poly_aftertouch_c, 0, 65, 127
1, 215662, Poly_aftertouch_c, 0, 65, 0
1, 215664, Note_off_c, 0, 52, 61
1, 215669, Note_on_c, 0, 67, 89
1, 215678, Poly_aftertouch_c, 0, 65, 0
1, 215682, Note_off_c, 0, 64, 66
1, 215714, Note_off_c, 0, 55, 63
1, 215762, Note_on_c, 0, 60, 91
1, 215768, Note_on_c, 0, 48, 93
1, 215777, Note_off_c, 0, 67, 62
1, 215797, Note_off_c, 0, 60, 64
1, 215808, Note_off_c, 0, 48, 59
1, 215919, Note_on_c, 0, 56, 40
1, 215950, Note_off_c, 0, 56, 54
1, 215950, Poly_aftertouch_c, 0, 69, 127
1, 215984, Poly_aftertouch_c, 0, 69, 0
1, 216013, Note_on_c, 0, 69, 78
1, 216014, Note_on_c, 0, 72, 99
1, 216015, Note_on_c, 0, 66, 102
1, 216015, Note_on_c, 0, 57, 98
1, 216015, Control_c, 0, 64, 88
1, 216018, Note_on_c, 0, 63, 100
1, 216019, Note_on_c, 0, 60, 99
1, 216022, Note_on_c, 0, 51, 87
1, 216024, Note_on_c, 0, 54, 76
1, 216025, Note_on_c, 0, 48, 87
1, 216030, Control_c, 0, 64, 56
1, 216039, Note_on_c, 0, 62, 69
1, 216045, Control_c, 0, 64, 41
1, 216058, Note_off_c, 0, 62, 67
1, 216058, Note_off_c, 0, 60, 68
1, 216060, Control_c, 0, 64, 63
1, 216066, Note_off_c, 0, 63, 63
1, 216075, Control_c, 0, 64, 127
1, 216077, Note_off_c, 0, 48, 63
1, 216077, Note_off_c, 0, 57, 66
1, 216092, Note_off_c, 0, 66, 65
1, 216093, Note_off_c, 0, 51, 64
1, 216093, Note_off_c, 0, 54, 62
1, 216101, Note_off_c, 0, 69, 64
1, 216111, Note_off_c, 0, 72, 67
1, 216455, Note_on_c, 0, 93, 101
1, 216585, Note_on_c, 0, 89, 93
1, 216688, Poly_aftertouch_c, 0, 32, 127
1, 216721, Note_off_c, 0, 93, 39
1, 216722, Note_on_c, 0, 87, 95
1, 216730, Poly_aftertouch_c, 0, 32, 0
1, 216736, Note_on_c, 0, 26, 81
1, 216736, Note_on_c, 0, 38, 95
1, 216809, Note_off_c, 0, 89, 60
1, 216826, Note_on_c, 0, 84, 79
1, 216829, Note_on_c, 0, 83, 88
1, 216845, Note_off_c, 0, 87, 63
1, 216897, Note_off_c, 0, 83, 58
1, 216903, Note_off_c, 0, 84, 64
1, 216911, Note_on_c, 0, 81, 89
1, 216921, Note_off_c, 0, 26, 61
1, 216949, Note_off_c, 0, 81, 66
1, 216966, Note_off_c, 0, 38, 63
1, 216996, Note_on_c, 0, 77, 90
1, 217076, Note_on_c, 0, 75, 91
1, 217106, Note_off_c, 0, 77, 60
1, 217157, Note_on_c, 0, 72, 90
1, 217172, Note_off_c, 0, 75, 63
1, 217204, Note_off_c, 0, 72, 65
1, 217228, Note_on_c, 0, 69, 86
1, 217231, Note_on_c, 0, 58, 38
1, 217262, Note_off_c, 0, 58, 49
1, 217270, Note_off_c, 0, 69, 63
1, 217319, Note_on_c, 0, 66, 86
1, 217365, Note_off_c, 0, 66, 62
1, 217365, Control_c, 0, 64, 74
1, 217378, Note_on_c, 0, 61, 99
1, 217380, Note_on_c, 0, 57, 86
1, 217380, Control_c, 0, 64, 0
1, 217382, Note_on_c, 0, 63, 96
1, 217383, Note_on_c, 0, 73, 93
1, 217385, Note_on_c, 0, 49, 80
1, 217389, Note_on_c, 0, 51, 80
1, 217395, Note_on_c, 0, 54, 70
1, 217401, Note_off_c, 0, 63, 71
1, 217404, Note_off_c, 0, 61, 68
1, 217410, Control_c, 0, 64, 39
1, 217413, Note_off_c, 0, 57, 65
1, 217419, Note_off_c, 0, 49, 66
1, 217420, Note_off_c, 0, 54, 69
1, 217420, Note_off_c, 0, 73, 66
1, 217425, Control_c, 0, 64, 66
1, 217433, Note_off_c, 0, 51, 61
1, 217440, Control_c, 0, 64, 127
1, 217645, Note_on_c, 0, 87, 91
1, 217747, Note_on_c, 0, 82, 100
1, 217765, Note_off_c, 0, 87, 61
1, 217768, Poly_aftertouch_c, 0, 34, 127
1, 217803, Note_off_c, 0, 82, 64
1, 217816, Poly_aftertouch_c, 0, 34, 0
1, 217837, Note_on_c, 0, 81, 101
1, 217842, Note_on_c, 0, 26, 78
1, 217842, Note_on_c, 0, 38, 96
1, 217876, Note_off_c, 0, 81, 70
1, 217953, Note_on_c, 0, 78, 92
1, 217994, Note_off_c, 0, 78, 61
1, 218051, Note_on_c, 0, 76, 81
1, 218087, Note_off_c, 0, 76, 54
1, 218137, Note_on_c, 0, 73, 86
1, 218183, Note_off_c, 0, 73, 62
1, 218222, Note_on_c, 0, 69, 89
1, 218262, Note_off_c, 0, 69, 65
1, 218284, Note_off_c, 0, 26, 63
1, 218295, Note_off_c, 0, 38, 62
1, 218325, Note_on_c, 0, 66, 89
1, 218350, Note_off_c, 0, 66, 65
1, 218406, Note_on_c, 0, 61, 94
1, 218462, Note_off_c, 0, 61, 64
1, 218495, Note_on_c, 0, 59, 80
1, 218519, Note_off_c, 0, 59, 70
1, 218617, Note_on_c, 0, 74, 99
1, 218618, Control_c, 0, 64, 75
1, 218620, Note_on_c, 0, 58, 100
1, 218621, Note_on_c, 0, 50, 81
1, 218621, Note_on_c, 0, 62, 99
1, 218623, Note_on_c, 0, 64, 95
1, 218623, Note_on_c, 0, 67, 89
1, 218623, Note_on_c, 0, 70, 86
1, 218628, Note_on_c, 0, 52, 80
1, 218629, Note_on_c, 0, 55, 80
1, 218633, Control_c, 0, 64, 36
1, 218656, Control_c, 0, 64, 0
1, 218671, Control_c, 0, 64, 39
1, 218681, Note_off_c, 0, 62, 66
1, 218686, Control_c, 0, 64, 63
1, 218700, Control_c, 0, 64, 95
1, 218703, Note_off_c, 0, 50, 63
1, 218709, Note_off_c, 0, 64, 64
1, 218714, Note_off_c, 0, 52, 63
1, 218714, Note_off_c, 0, 58, 64
1, 218715, Control_c, 0, 64, 127
1, 218719, Note_off_c, 0, 55, 62
1, 218722, Note_off_c, 0, 67, 65
1, 218748, Note_off_c, 0, 70, 63
1, 218754, Note_off_c, 0, 74, 66
1, 218982, Note_on_c, 0, 82, 105
1, 219106, Note_off_c, 0, 82, 0
1, 219117, Note_on_c, 0, 78, 102
1, 219146, Poly_aftertouch_c, 0, 82, 0
1, 219209, Note_off_c, 0, 78, 56
1, 219229, Poly_aftertouch_c, 0, 34, 127
1, 219246, Note_on_c, 0, 76, 98
1, 219266, Note_on_c, 0, 26, 75
1, 219266, Note_on_c, 0, 38, 88
1, 219272, Poly_aftertouch_c, 0, 34, 0
1, 219291, Note_off_c, 0, 76, 70
1, 219382, Note_on_c, 0, 73, 98
1, 219450, Note_off_c, 0, 73, 61
1, 219517, Note_on_c, 0, 70, 99
1, 219565, Poly_aftertouch_c, 0, 34, 127
1, 219585, Note_off_c, 0, 70, 63
1, 219649, Note_on_c, 0, 67, 99
1, 219741, Note_off_c, 0, 67, 61
1, 219798, Note_on_c, 0, 64, 94
1, 219850, Note_off_c, 0, 64, 66
1, 219968, Note_on_c, 0, 61, 91
1, 220078, Note_off_c, 0, 61, 62
1, 220157, Poly_aftertouch_c, 0, 34, 0
1, 220181, Note_on_c, 0, 58, 98
1, 220225, Note_off_c, 0, 26, 61
1, 220228, Note_off_c, 0, 38, 60
1, 220278, Poly_aftertouch_c, 0, 56, 0
1, 220310, Poly_aftertouch_c, 0, 56, 0
1, 220385, Note_off_c, 0, 58, 54
1, 220444, Note_on_c, 0, 55, 96
1, 220498, Note_off_c, 0, 55, 65
1, 221050, Note_on_c, 0, 62, 90
1, 221056, Note_on_c, 0, 53, 84
1, 221074, Note_on_c, 0, 50, 66
1, 221075, Note_on_c, 0, 45, 63
1, 221076, Note_on_c, 0, 38, 63
1, 221199, Control_c, 0, 64, 82
1, 221214, Control_c, 0, 64, 62
1, 221228, Control_c, 0, 64, 41
1, 221243, Control_c, 0, 64, 0
1, 221888, Control_c, 0, 64, 31
1, 221903, Control_c, 0, 64, 32
1, 221932, Control_c, 0, 64, 32
1, 221963, Control_c, 0, 64, 34
1, 221977, Control_c, 0, 64, 36
1, 221992, Control_c, 0, 64, 38
1, 222007, Control_c, 0, 64, 40
1, 222022, Control_c, 0, 64, 43
1, 222037, Control_c, 0, 64, 47
1, 222051, Control_c, 0, 64, 51
1, 222066, Control_c, 0, 64, 54
1, 222081, Control_c, 0, 64, 56
1, 222111, Control_c, 0, 64, 56
1, 222126, Control_c, 0, 64, 57
1, 222141, Control_c, 0, 64, 59
1, 222156, Control_c, 0, 64, 60
1, 222170, Control_c, 0, 64, 61
1, 222185, Control_c, 0, 64, 62
1, 222230, Control_c, 0, 64, 63
1, 222244, Control_c, 0, 64, 63
1, 222259, Control_c, 0, 64, 64
1, 222274, Control_c, 0, 64, 64
1, 222304, Control_c, 0, 64, 65
1, 222333, Control_c, 0, 64, 65
1, 222377, Control_c, 0, 64, 66
1, 222415, Control_c, 0, 64, 66
1, 222607, Control_c, 0, 64, 67
1, 222623, Control_c, 0, 64, 68
1, 222638, Control_c, 0, 64, 69
1, 222653, Control_c, 0, 64, 71
1, 222667, Control_c, 0, 64, 72
1, 222682, Control_c, 0, 64, 72
1, 222815, Control_c, 0, 67, 34
1, 222830, Control_c, 0, 67, 35
1, 222889, Control_c, 0, 67, 35
1, 222904, Control_c, 0, 67, 36
1, 222919, Control_c, 0, 67, 37
1, 222949, Control_c, 0, 67, 38
1, 222963, Control_c, 0, 67, 41
1, 222978, Control_c, 0, 67, 60
1, 222993, Control_c, 0, 64, 73
1, 222993, Control_c, 0, 67, 85
1, 223008, Control_c, 0, 64, 73
1, 223008, Control_c, 0, 67, 102
1, 223023, Control_c, 0, 67, 110
1, 223038, Control_c, 0, 64, 74
1, 223038, Control_c, 0, 67, 115
1, 223053, Control_c, 0, 64, 74
1, 223053, Control_c, 0, 67, 121
1, 223067, Control_c, 0, 64, 75
1, 223067, Control_c, 0, 67, 127
1, 223082, Control_c, 0, 64, 75
1, 223097, Control_c, 0, 64, 76
1, 223111, Control_c, 0, 64, 77
1, 223126, Control_c, 0, 64, 78
1, 223148, Control_c, 0, 64, 79
1, 223163, Control_c, 0, 64, 79
1, 223178, Control_c, 0, 64, 80
1, 223193, Control_c, 0, 64, 81
1, 223208, Control_c, 0, 64, 82
1, 223223, Control_c, 0, 64, 83
1, 223238, Control_c, 0, 64, 84
1, 223253, Control_c, 0, 64, 85
1, 223267, Control_c, 0, 64, 87
1, 223282, Control_c, 0, 64, 88
1, 223297, Control_c, 0, 64, 89
1, 223312, Control_c, 0, 64, 90
1, 223326, Control_c, 0, 64, 92
1, 223341, Control_c, 0, 64, 94
1, 223356, Control_c, 0, 64, 97
1, 223371, Control_c, 0, 64, 99
1, 223386, Control_c, 0, 64, 101
1, 223400, Control_c, 0, 64, 104
1, 223416, Control_c, 0, 64, 108
1, 223431, Control_c, 0, 64, 113
1, 223446, Control_c, 0, 64, 121
1, 223461, Control_c, 0, 64, 127
1, 224772, Note_off_c, 0, 50, 33
1, 225068, Note_off_c, 0, 45, 27
1, 225128, Note_off_c, 0, 38, 37
1, 225520, Note_off_c, 0, 53, 36
1, 225846, Note_off_c, 0, 62, 16
1, 226469, Control_c, 0, 64, 123
1, 226484, Control_c, 0, 64, 118
1, 226499, Control_c, 0, 64, 116
1, 226529, Control_c, 0, 64, 113
1, 226573, Control_c, 0, 64, 110
1, 226603, Control_c, 0, 64, 108
1, 226648, Control_c, 0, 64, 106
1, 226678, Control_c, 0, 64, 103
1, 226707, Control_c, 0, 64, 101
1, 226737, Control_c, 0, 64, 99
1, 226767, Control_c, 0, 64, 97
1, 226797, Control_c, 0, 64, 96
1, 226812, Control_c, 0, 64, 95
1, 226827, Control_c, 0, 64, 94
1, 226841, Control_c, 0, 64, 93
1, 226856, Control_c, 0, 64, 93
1, 226871, Control_c, 0, 64, 92
1, 226892, Control_c, 0, 64, 91
1, 226907, Control_c, 0, 64, 90
1, 226922, Control_c, 0, 64, 89
1, 226937, Control_c, 0, 64, 88
1, 226952, Control_c, 0, 64, 87
1, 226967, Control_c, 0, 64, 86
1, 226982, Control_c, 0, 64, 84
1, 226997, Control_c, 0, 64, 83
1, 227011, Control_c, 0, 64, 83
1, 227026, Control_c, 0, 64, 82
1, 227041, Control_c, 0, 64, 82
1, 227056, Control_c, 0, 64, 81
1, 227071, Control_c, 0, 64, 80
1, 227085, Control_c, 0, 64, 80
1, 227100, Control_c, 0, 64, 79
1, 227115, Control_c, 0, 64, 78
1, 227130, Control_c, 0, 64, 78
1, 227145, Control_c, 0, 64, 77
1, 227159, Control_c, 0, 64, 76
1, 227174, Control_c, 0, 64, 75
1, 227189, Control_c, 0, 64, 74
1, 227204, Control_c, 0, 64, 73
1, 227219, Control_c, 0, 64, 73
1, 227233, Control_c, 0, 64, 72
1, 227248, Control_c, 0, 64, 72
1, 227263, Control_c, 0, 64, 71
1, 227277, Control_c, 0, 64, 71
1, 227292, Control_c, 0, 64, 70
1, 227307, Control_c, 0, 64, 70
1, 227322, Control_c, 0, 64, 69
1, 227351, Control_c, 0, 64, 69
1, 227381, Control_c, 0, 64, 68
1, 227396, Control_c, 0, 64, 68
1, 227427, Control_c, 0, 64, 67
1, 227456, Control_c, 0, 64, 67
1, 227471, Control_c, 0, 64, 66
1, 227501, Control_c, 0, 64, 66
1, 227530, Control_c, 0, 64, 65
1, 227560, Control_c, 0, 64, 65
1, 227590, Control_c, 0, 64, 64
1, 227642, Control_c, 0, 64, 64
1, 227671, Control_c, 0, 64, 63
1, 227686, Control_c, 0, 64, 63
1, 227687, Note_on_c, 0, 26, 35
1, 227701, Control_c, 0, 64, 60
1, 227713, Note_off_c, 0, 26, 62
1, 227715, Control_c, 0, 64, 53
1, 227730, Control_c, 0, 64, 41
1, 227745, Control_c, 0, 64, 0
1, 228269, Note_on_c, 0, 62, 42
1, 228276, Note_on_c, 0, 53, 26
1, 228287, Note_on_c, 0, 57, 38
1, 228430, Note_off_c, 0, 62, 55
1, 228433, Note_on_c, 0, 61, 59
1, 228525, Note_off_c, 0, 53, 42
1, 228561, Note_on_c, 0, 60, 58
1, 228574, Note_off_c, 0, 57, 51
1, 228583, Note_off_c, 0, 61, 53
1, 228681, Note_off_c, 0, 60, 65
1, 228682, Note_on_c, 0, 59, 57
1, 228683, Note_on_c, 0, 31, 43
1, 228711, Note_off_c, 0, 59, 63
1, 228720, Note_off_c, 0, 31, 48
1, 229258, Note_on_c, 0, 60, 34
1, 229262, Note_on_c, 0, 56, 34
1, 229271, Note_on_c, 0, 52, 29
1, 229650, Note_on_c, 0, 44, 38
1, 229650, Note_on_c, 0, 32, 39
1, 229695, Note_off_c, 0, 44, 52
1, 229700, Note_off_c, 0, 32, 46
1, 229762, Note_off_c, 0, 52, 43
1, 229769, Note_off_c, 0, 56, 38
1, 230030, Note_on_c, 0, 61, 66
1, 230038, Note_on_c, 0, 57, 53
1, 230040, Note_on_c, 0, 53, 42
1, 230108, Note_off_c, 0, 60, 56
1, 230375, Control_c, 0, 64, 39
1, 230390, Control_c, 0, 64, 52
1, 230396, Note_on_c, 0, 33, 52
1, 230405, Control_c, 0, 64, 62
1, 230420, Control_c, 0, 64, 66
1, 230433, Note_off_c, 0, 33, 63
1, 230435, Control_c, 0, 64, 67
1, 230449, Control_c, 0, 64, 69
1, 230464, Control_c, 0, 64, 71
1, 230475, Note_off_c, 0, 57, 64
1, 230479, Control_c, 0, 64, 73
1, 230494, Note_off_c, 0, 53, 63
1, 230494, Control_c, 0, 64, 77
1, 230500, Note_off_c, 0, 61, 63
1, 230508, Control_c, 0, 64, 82
1, 230523, Control_c, 0, 64, 85
1, 230538, Control_c, 0, 64, 87
1, 230553, Control_c, 0, 64, 87
1, 230680, Control_c, 0, 64, 87
1, 230725, Control_c, 0, 64, 86
1, 230739, Control_c, 0, 64, 85
1, 230747, Note_on_c, 0, 62, 71
1, 230753, Note_on_c, 0, 58, 59
1, 230754, Control_c, 0, 64, 83
1, 230764, Note_on_c, 0, 54, 48
1, 230769, Control_c, 0, 64, 80
1, 230784, Control_c, 0, 64, 75
1, 230799, Control_c, 0, 64, 71
1, 230813, Control_c, 0, 64, 67
1, 230828, Control_c, 0, 64, 62
1, 230843, Control_c, 0, 64, 57
1, 230858, Control_c, 0, 64, 53
1, 230873, Control_c, 0, 64, 48
1, 230887, Control_c, 0, 64, 44
1, 230902, Control_c, 0, 64, 38
1, 230917, Control_c, 0, 64, 33
1, 230926, Note_on_c, 0, 64, 76
1, 230931, Control_c, 0, 64, 29
1, 230946, Control_c, 0, 64, 0
1, 230972, Note_off_c, 0, 62, 60
1, 231107, Note_on_c, 0, 62, 67
1, 231108, Note_off_c, 0, 64, 57
1, 231128, Note_on_c, 0, 38, 57
1, 231142, Note_off_c, 0, 54, 48
1, 231142, Note_off_c, 0, 58, 52
1, 231156, Note_off_c, 0, 38, 59
1, 231166, Note_off_c, 0, 62, 63
1, 231595, Note_on_c, 0, 62, 49
1, 231603, Note_on_c, 0, 58, 40
1, 231611, Note_on_c, 0, 55, 35
1, 232056, Note_on_c, 0, 41, 38
1, 232097, Poly_aftertouch_c, 0, 53, 127
1, 232177, Control_c, 0, 64, 29
1, 232199, Note_off_c, 0, 41, 35
1, 232211, Poly_aftertouch_c, 0, 53, 0
1, 232267, Control_c, 0, 64, 31
1, 232326, Control_c, 0, 64, 32
1, 232341, Control_c, 0, 64, 32
1, 232372, Note_on_c, 0, 64, 46
1, 232416, Control_c, 0, 64, 33
1, 232431, Control_c, 0, 64, 34
1, 232475, Note_off_c, 0, 62, 44
1, 232478, Note_off_c, 0, 58, 53
1, 232484, Note_off_c, 0, 55, 53
1, 232504, Control_c, 0, 64, 34
1, 232578, Control_c, 0, 64, 35
1, 232652, Control_c, 0, 64, 36
1, 232667, Control_c, 0, 64, 36
1, 232771, Note_on_c, 0, 61, 41
1, 232780, Note_on_c, 0, 59, 36
1, 232787, Note_on_c, 0, 56, 39
1, 232815, Control_c, 0, 64, 37
1, 232830, Control_c, 0, 64, 37
1, 232985, Note_off_c, 0, 64, 56
1, 232985, Control_c, 0, 64, 38
1, 233075, Control_c, 0, 64, 38
1, 233164, Control_c, 0, 64, 39
1, 233327, Control_c, 0, 64, 40
1, 233401, Control_c, 0, 64, 41
1, 233460, Control_c, 0, 64, 41
1, 233475, Control_c, 0, 64, 42
1, 233549, Control_c, 0, 64, 41
1, 233564, Note_on_c, 0, 26, 57
1, 233579, Control_c, 0, 64, 39
1, 233591, Note_off_c, 0, 26, 65
1, 233593, Control_c, 0, 64, 34
1, 233596, Note_off_c, 0, 56, 52
1, 233599, Note_off_c, 0, 59, 48
1, 233608, Control_c, 0, 64, 0
1, 233665, Note_off_c, 0, 61, 63
1, 234110, Note_on_c, 0, 62, 46
1, 234118, Note_on_c, 0, 53, 29
1, 234118, Note_on_c, 0, 57, 35
1, 234276, Note_on_c, 0, 61, 58
1, 234297, Note_off_c, 0, 62, 38
1, 234425, Note_on_c, 0, 60, 58
1, 234445, Note_off_c, 0, 53, 42
1, 234467, Note_off_c, 0, 61, 36
1, 234469, Control_c, 0, 64, 32
1, 234483, Control_c, 0, 64, 33
1, 234498, Control_c, 0, 64, 34
1, 234509, Note_off_c, 0, 57, 49
1, 234513, Control_c, 0, 64, 33
1, 234528, Control_c, 0, 64, 32
1, 234543, Control_c, 0, 64, 0
1, 234575, Note_on_c, 0, 31, 52
1, 234575, Note_on_c, 0, 59, 73
1, 234592, Note_off_c, 0, 60, 64
1, 234601, Note_off_c, 0, 59, 67
1, 234607, Note_off_c, 0, 31, 60
1, 235058, Note_on_c, 0, 60, 53
1, 235059, Note_on_c, 0, 56, 47
1, 235072, Note_on_c, 0, 52, 36
1, 235431, Note_on_c, 0, 32, 61
1, 235440, Note_on_c, 0, 44, 47
1, 235487, Note_off_c, 0, 44, 61
1, 235495, Note_off_c, 0, 32, 56
1, 235516, Note_off_c, 0, 52, 61
1, 235534, Note_off_c, 0, 56, 58
1, 235772, Note_on_c, 0, 61, 74
1, 235783, Note_on_c, 0, 57, 58
1, 235792, Note_on_c, 0, 53, 41
1, 235844, Note_off_c, 0, 60, 58
1, 235877, Control_c, 0, 64, 29
1, 235892, Control_c, 0, 64, 34
1, 235907, Control_c, 0, 64, 37
1, 235921, Control_c, 0, 64, 38
1, 235936, Control_c, 0, 64, 40
1, 235951, Control_c, 0, 64, 45
1, 235966, Control_c, 0, 64, 52
1, 235981, Control_c, 0, 64, 57
1, 235996, Control_c, 0, 64, 58
1, 236011, Control_c, 0, 64, 58
1, 236026, Control_c, 0, 64, 60
1, 236041, Control_c, 0, 64, 61
1, 236055, Control_c, 0, 64, 63
1, 236070, Control_c, 0, 64, 65
1, 236085, Control_c, 0, 64, 67
1, 236100, Control_c, 0, 64, 70
1, 236115, Control_c, 0, 64, 72
1, 236129, Control_c, 0, 64, 75
1, 236136, Note_on_c, 0, 33, 57
1, 236139, Note_on_c, 0, 45, 48
1, 236144, Control_c, 0, 64, 78
1, 236157, Note_off_c, 0, 57, 63
1, 236159, Control_c, 0, 64, 82
1, 236172, Note_off_c, 0, 33, 60
1, 236172, Note_off_c, 0, 53, 54
1, 236174, Note_off_c, 0, 45, 53
1, 236174, Control_c, 0, 64, 85
1, 236189, Control_c, 0, 64, 87
1, 236197, Note_off_c, 0, 61, 61
1, 236205, Control_c, 0, 64, 88
1, 236219, Control_c, 0, 64, 90
1, 236234, Control_c, 0, 64, 90
1, 236249, Control_c, 0, 64, 91
1, 236264, Control_c, 0, 64, 91
1, 236426, Control_c, 0, 64, 91
1, 236458, Note_on_c, 0, 62, 80
1, 236467, Note_on_c, 0, 58, 69
1, 236470, Control_c, 0, 64, 90
1, 236474, Note_on_c, 0, 54, 64
1, 236500, Control_c, 0, 64, 90
1, 236515, Control_c, 0, 64, 89
1, 236530, Control_c, 0, 64, 89
1, 236544, Control_c, 0, 64, 88
1, 236559, Control_c, 0, 64, 88
1, 236589, Control_c, 0, 64, 87
1, 236626, Control_c, 0, 64, 87
1, 236632, Note_on_c, 0, 64, 83
1, 236641, Control_c, 0, 64, 86
1, 236656, Control_c, 0, 64, 86
1, 236689, Note_off_c, 0, 62, 60
1, 236700, Control_c, 0, 64, 85
1, 236715, Control_c, 0, 64, 84
1, 236730, Control_c, 0, 64, 82
1, 236744, Control_c, 0, 64, 79
1, 236759, Control_c, 0, 64, 76
1, 236774, Control_c, 0, 64, 70
1, 236789, Control_c, 0, 64, 60
1, 236804, Control_c, 0, 64, 47
1, 236819, Control_c, 0, 64, 36
1, 236826, Note_on_c, 0, 62, 78
1, 236834, Control_c, 0, 64, 0
1, 236846, Note_on_c, 0, 31, 65
1, 236865, Note_off_c, 0, 58, 64
1, 236877, Note_off_c, 0, 54, 62
1, 236878, Note_off_c, 0, 31, 63
1, 236890, Note_off_c, 0, 64, 62
1, 236919, Note_off_c, 0, 62, 64
1, 237284, Note_on_c, 0, 64, 58
1, 237294, Note_on_c, 0, 59, 46
1, 237316, Note_on_c, 0, 55, 13
1, 237582, Control_c, 0, 64, 30
1, 237656, Control_c, 0, 64, 33
1, 237671, Control_c, 0, 64, 34
1, 237731, Control_c, 0, 64, 35
1, 237746, Control_c, 0, 64, 38
1, 237761, Control_c, 0, 64, 39
1, 237761, Note_on_c, 0, 36, 33
1, 237843, Note_off_c, 0, 36, 49
1, 238013, Control_c, 0, 64, 39
1, 238043, Note_on_c, 0, 65, 49
1, 238093, Note_off_c, 0, 64, 57
1, 238141, Note_off_c, 0, 59, 57
1, 238174, Note_off_c, 0, 55, 50
1, 238403, Note_on_c, 0, 64, 44
1, 238415, Note_on_c, 0, 56, 45
1, 238420, Note_on_c, 0, 60, 33
1, 238583, Control_c, 0, 64, 40
1, 238599, Control_c, 0, 64, 40
1, 238605, Note_off_c, 0, 65, 38
1, 238613, Control_c, 0, 64, 41
1, 238658, Control_c, 0, 64, 42
1, 238673, Control_c, 0, 64, 44
1, 238688, Control_c, 0, 64, 46
1, 238732, Control_c, 0, 64, 47
1, 238747, Control_c, 0, 64, 47
1, 238762, Control_c, 0, 64, 48
1, 238777, Control_c, 0, 64, 49
1, 238973, Note_on_c, 0, 29, 53
1, 239015, Note_off_c, 0, 56, 54
1, 239054, Note_off_c, 0, 29, 55
1, 239063, Note_off_c, 0, 60, 53
1, 239093, Note_off_c, 0, 64, 59
1, 239095, Control_c, 0, 64, 48
1, 239110, Control_c, 0, 64, 48
1, 239125, Control_c, 0, 64, 47
1, 239184, Control_c, 0, 64, 47
1, 239198, Control_c, 0, 64, 46
1, 239243, Control_c, 0, 67, 117
1, 239258, Control_c, 0, 67, 111
1, 239272, Control_c, 0, 64, 46
1, 239272, Control_c, 0, 67, 109
1, 239287, Control_c, 0, 67, 107
1, 239302, Control_c, 0, 64, 46
1, 239302, Control_c, 0, 67, 102
1, 239317, Control_c, 0, 67, 94
1, 239332, Control_c, 0, 67, 87
1, 239346, Control_c, 0, 64, 46
1, 239346, Control_c, 0, 67, 87
1, 239361, Control_c, 0, 67, 86
1, 239376, Control_c, 0, 67, 85
1, 239400, Note_on_c, 0, 65, 62
1, 239404, Note_on_c, 0, 60, 53
1, 239416, Note_on_c, 0, 57, 45
1, 239422, Control_c, 0, 67, 86
1, 239481, Control_c, 0, 67, 88
1, 239496, Control_c, 0, 64, 45
1, 239496, Control_c, 0, 67, 91
1, 239510, Control_c, 0, 64, 44
1, 239525, Note_on_c, 0, 64, 79
1, 239525, Control_c, 0, 64, 43
1, 239525, Control_c, 0, 67, 89
1, 239555, Control_c, 0, 67, 91
1, 239570, Control_c, 0, 64, 42
1, 239570, Control_c, 0, 67, 92
1, 239581, Note_off_c, 0, 60, 60
1, 239585, Control_c, 0, 64, 41
1, 239600, Control_c, 0, 64, 40
1, 239621, Control_c, 0, 64, 39
1, 239633, Note_on_c, 0, 63, 77
1, 239636, Control_c, 0, 64, 39
1, 239636, Control_c, 0, 67, 94
1, 239651, Control_c, 0, 64, 37
1, 239651, Control_c, 0, 67, 97
1, 239666, Control_c, 0, 64, 33
1, 239674, Note_off_c, 0, 65, 49
1, 239681, Control_c, 0, 64, 0
1, 239686, Note_off_c, 0, 64, 60
1, 239710, Control_c, 0, 67, 103
1, 239725, Control_c, 0, 67, 106
1, 239737, Note_on_c, 0, 62, 55
1, 239740, Note_on_c, 0, 36, 63
1, 239740, Note_off_c, 0, 57, 64
1, 239752, Note_off_c, 0, 63, 63
1, 239755, Control_c, 0, 67, 109
1, 239761, Note_off_c, 0, 62, 62
1, 239770, Note_off_c, 0, 36, 63
1, 239770, Control_c, 0, 67, 112
1, 239785, Control_c, 0, 67, 116
1, 239800, Control_c, 0, 67, 127
1, 240232, Note_on_c, 0, 63, 49
1, 240246, Note_on_c, 0, 56, 41
1, 240256, Note_on_c, 0, 60, 40
1, 240664, Note_on_c, 0, 28, 51
1, 240682, Note_off_c, 0, 60, 61
1, 240754, Note_off_c, 0, 28, 53
1, 240760, Note_off_c, 0, 56, 57
1, 241087, Note_on_c, 0, 64, 54
1, 241097, Note_on_c, 0, 59, 43
1, 241102, Note_on_c, 0, 55, 35
1, 241160, Note_off_c, 0, 63, 55
1, 241327, Control_c, 0, 64, 31
1, 241371, Control_c, 0, 64, 0
1, 241386, Note_on_c, 0, 33, 71
1, 241458, Note_off_c, 0, 33, 58
1, 241463, Note_off_c, 0, 59, 63
1, 241476, Note_on_c, 0, 34, 81
1, 241477, Note_off_c, 0, 64, 62
1, 241487, Note_off_c, 0, 55, 59
1, 241511, Note_on_c, 0, 46, 57
1, 241528, Note_off_c, 0, 34, 64
1, 241536, Note_off_c, 0, 46, 57
1, 241770, Control_c, 0, 67, 119
1, 241845, Control_c, 0, 67, 116
1, 241897, Control_c, 0, 67, 119
1, 241910, Note_on_c, 0, 63, 53
1, 241912, Control_c, 0, 67, 122
1, 241930, Note_on_c, 0, 58, 45
1, 241934, Note_on_c, 0, 54, 31
1, 241942, Control_c, 0, 67, 126
1, 242050, Note_on_c, 0, 62, 58
1, 242060, Note_off_c, 0, 58, 59
1, 242166, Note_off_c, 0, 63, 28
1, 242172, Note_on_c, 0, 61, 60
1, 242195, Note_off_c, 0, 62, 55
1, 242271, Note_on_c, 0, 60, 60
1, 242280, Note_on_c, 0, 27, 64
1, 242301, Note_off_c, 0, 61, 62
1, 242310, Note_off_c, 0, 27, 63
1, 242312, Note_off_c, 0, 54, 62
1, 242315, Note_off_c, 0, 60, 65
1, 242851, Note_on_c, 0, 61, 43
1, 242853, Note_on_c, 0, 57, 32
1, 242861, Note_on_c, 0, 54, 27
1, 243061, Control_c, 0, 64, 32
1, 243076, Control_c, 0, 64, 38
1, 243090, Control_c, 0, 64, 47
1, 243105, Control_c, 0, 64, 57
1, 243120, Control_c, 0, 64, 61
1, 243135, Control_c, 0, 64, 62
1, 243149, Control_c, 0, 64, 63
1, 243164, Control_c, 0, 64, 64
1, 243179, Control_c, 0, 64, 65
1, 243194, Control_c, 0, 64, 66
1, 243230, Note_on_c, 0, 32, 43
1, 243243, Note_on_c, 0, 44, 24
1, 243268, Control_c, 0, 64, 65
1, 243281, Note_off_c, 0, 32, 54
1, 243281, Note_off_c, 0, 44, 50
1, 243283, Control_c, 0, 64, 63
1, 243298, Control_c, 0, 64, 56
1, 243312, Control_c, 0, 64, 47
1, 243327, Control_c, 0, 64, 30
1, 243342, Control_c, 0, 64, 0
1, 243347, Note_on_c, 0, 33, 52
1, 243357, Note_on_c, 0, 45, 43
1, 243388, Note_off_c, 0, 33, 62
1, 243393, Note_off_c, 0, 45, 44
1, 243593, Note_off_c, 0, 57, 48
1, 243606, Note_off_c, 0, 54, 56
1, 243624, Note_off_c, 0, 61, 59
1, 244018, Note_on_c, 0, 62, 62
1, 244029, Note_on_c, 0, 58, 55
1, 244047, Note_on_c, 0, 52, 38
1, 244577, Note_on_c, 0, 44, 83
1, 244579, Note_on_c, 0, 32, 88
1, 244609, Note_off_c, 0, 44, 66
1, 244616, Note_off_c, 0, 32, 62
1, 245547, Note_on_c, 0, 43, 62
1, 245551, Note_on_c, 0, 31, 52
1, 245594, Note_off_c, 0, 31, 64
1, 245596, Note_off_c, 0, 43, 61
1, 246267, Note_on_c, 0, 64, 43
1, 246370, Note_off_c, 0, 62, 62
1, 246631, Note_on_c, 0, 61, 43
1, 246653, Note_on_c, 0, 30, 28
1, 246675, Note_on_c, 0, 42, 7
1, 246694, Note_off_c, 0, 64, 55
1, 246746, Note_off_c, 0, 42, 52
1, 246769, Note_off_c, 0, 30, 48
1, 247012, Control_c, 0, 64, 33
1, 247027, Control_c, 0, 64, 37
1, 247042, Control_c, 0, 64, 41
1, 247057, Control_c, 0, 64, 46
1, 247071, Control_c, 0, 64, 54
1, 247086, Control_c, 0, 64, 60
1, 247109, Control_c, 0, 64, 62
1, 247124, Control_c, 0, 64, 63
1, 247139, Control_c, 0, 64, 64
1, 247153, Control_c, 0, 64, 64
1, 247168, Control_c, 0, 64, 65
1, 247183, Control_c, 0, 64, 67
1, 247198, Control_c, 0, 64, 69
1, 247212, Control_c, 0, 64, 72
1, 247227, Control_c, 0, 64, 75
1, 247242, Control_c, 0, 64, 76
1, 247257, Control_c, 0, 64, 78
1, 247272, Control_c, 0, 64, 79
1, 247286, Control_c, 0, 64, 80
1, 247301, Control_c, 0, 64, 81
1, 247316, Control_c, 0, 64, 81
1, 247345, Control_c, 0, 64, 82
1, 247458, Note_off_c, 0, 52, 39
1, 247622, Note_off_c, 0, 61, 37
1, 247628, Note_off_c, 0, 58, 34
1, 247791, Control_c, 0, 64, 81
1, 247840, Note_on_c, 0, 26, 29
1, 247857, Control_c, 0, 64, 81
1, 247872, Control_c, 0, 64, 80
1, 247902, Control_c, 0, 64, 80
1, 247913, Note_off_c, 0, 26, 41
1, 247917, Control_c, 0, 64, 79
1, 247931, Control_c, 0, 64, 77
1, 247946, Control_c, 0, 64, 75
1, 247961, Control_c, 0, 64, 73
1, 247976, Control_c, 0, 64, 71
1, 247991, Control_c, 0, 64, 68
1, 248006, Control_c, 0, 64, 65
1, 248021, Control_c, 0, 64, 61
1, 248035, Control_c, 0, 64, 58
1, 248050, Control_c, 0, 64, 57
1, 248080, Control_c, 0, 64, 56
1, 248095, Control_c, 0, 64, 54
1, 248109, Control_c, 0, 64, 53
1, 248124, Control_c, 0, 64, 52
1, 248153, Control_c, 0, 64, 51
1, 248169, Control_c, 0, 64, 50
1, 248185, Control_c, 0, 64, 47
1, 248200, Control_c, 0, 64, 45
1, 248215, Control_c, 0, 64, 44
1, 248244, Control_c, 0, 64, 44
1, 248259, Control_c, 0, 64, 42
1, 248274, Control_c, 0, 64, 41
1, 248304, Control_c, 0, 64, 41
1, 248319, Control_c, 0, 64, 40
1, 248333, Control_c, 0, 64, 39
1, 248348, Control_c, 0, 64, 37
1, 248363, Control_c, 0, 64, 37
1, 248447, Note_on_c, 0, 62, 38
1, 248450, Note_on_c, 0, 57, 32
1, 248454, Note_on_c, 0, 53, 34
1, 248555, Control_c, 0, 64, 37
1, 248569, Control_c, 0, 64, 38
1, 248637, Control_c, 0, 64, 38
1, 248651, Note_on_c, 0, 61, 51
1, 248692, Note_off_c, 0, 62, 37
1, 248711, Control_c, 0, 64, 39
1, 248725, Control_c, 0, 64, 39
1, 248740, Control_c, 0, 64, 40
1, 248750, Note_off_c, 0, 53, 35
1, 248766, Note_off_c, 0, 61, 52
1, 248814, Note_on_c, 0, 60, 50
1, 248844, Control_c, 0, 64, 39
1, 248873, Control_c, 0, 64, 40
1, 248880, Note_off_c, 0, 57, 41
1, 248962, Control_c, 0, 64, 40
1, 248993, Control_c, 0, 64, 40
1, 249005, Note_on_c, 0, 59, 53
1, 249007, Control_c, 0, 64, 39
1, 249012, Note_on_c, 0, 31, 49
1, 249024, Note_off_c, 0, 60, 62
1, 249037, Note_off_c, 0, 59, 65
1, 249044, Note_off_c, 0, 31, 54
1, 249067, Control_c, 0, 64, 38
1, 249081, Control_c, 0, 64, 37
1, 249155, Control_c, 0, 64, 37
1, 249170, Control_c, 0, 64, 36
1, 249370, Control_c, 0, 64, 36
1, 249444, Control_c, 0, 64, 37
1, 249459, Control_c, 0, 64, 37
1, 249518, Control_c, 0, 64, 38
1, 249532, Control_c, 0, 64, 38
1, 249575, Note_on_c, 0, 60, 37
1, 249577, Note_on_c, 0, 56, 36
1, 249586, Note_on_c, 0, 52, 35
1, 249607, Control_c, 0, 64, 39
1, 249622, Control_c, 0, 64, 40
1, 249786, Control_c, 0, 64, 40
1, 249934, Control_c, 0, 64, 41
1, 249948, Control_c, 0, 64, 41
1, 249977, Note_on_c, 0, 32, 52
1, 249986, Note_on_c, 0, 44, 41
1, 250027, Note_off_c, 0, 32, 59
1, 250037, Control_c, 0, 64, 42
1, 250048, Note_off_c, 0, 44, 54
1, 250114, Note_off_c, 0, 52, 54
1, 250147, Note_off_c, 0, 56, 56
1, 250418, Note_on_c, 0, 61, 58
1, 250430, Note_on_c, 0, 57, 48
1, 250441, Note_on_c, 0, 53, 43
1, 250444, Control_c, 0, 64, 42
1, 250525, Note_off_c, 0, 60, 59
1, 250593, Control_c, 0, 64, 43
1, 250683, Control_c, 0, 64, 43
1, 250757, Control_c, 0, 64, 44
1, 250786, Control_c, 0, 64, 43
1, 250805, Note_on_c, 0, 33, 63
1, 250808, Note_on_c, 0, 45, 61
1, 250831, Control_c, 0, 64, 44
1, 250883, Note_off_c, 0, 33, 56
1, 250886, Note_off_c, 0, 57, 62
1, 250912, Control_c, 0, 64, 44
1, 250927, Control_c, 0, 64, 45
1, 250937, Note_off_c, 0, 45, 29
1, 250940, Note_off_c, 0, 53, 62
1, 250986, Control_c, 0, 67, 116
1, 251001, Control_c, 0, 67, 110
1, 251002, Note_off_c, 0, 61, 60
1, 251016, Control_c, 0, 67, 105
1, 251031, Control_c, 0, 67, 100
1, 251045, Control_c, 0, 67, 92
1, 251060, Control_c, 0, 67, 83
1, 251075, Control_c, 0, 67, 74
1, 251090, Control_c, 0, 67, 65
1, 251105, Control_c, 0, 67, 58
1, 251119, Control_c, 0, 67, 53
1, 251134, Control_c, 0, 64, 46
1, 251134, Control_c, 0, 67, 48
1, 251149, Control_c, 0, 67, 42
1, 251165, Control_c, 0, 64, 46
1, 251165, Control_c, 0, 67, 0
1, 251173, Note_on_c, 0, 62, 70
1, 251185, Note_on_c, 0, 58, 58
1, 251187, Note_on_c, 0, 54, 51
1, 251209, Control_c, 0, 64, 47
1, 251224, Control_c, 0, 64, 47
1, 251253, Control_c, 0, 64, 48
1, 251283, Control_c, 0, 64, 49
1, 251297, Control_c, 0, 64, 50
1, 251312, Control_c, 0, 64, 51
1, 251327, Note_on_c, 0, 64, 82
1, 251327, Control_c, 0, 64, 52
1, 251342, Control_c, 0, 64, 52
1, 251357, Control_c, 0, 64, 53
1, 251373, Control_c, 0, 64, 54
1, 251383, Note_off_c, 0, 62, 62
1, 251385, Note_on_c, 0, 44, 76
1, 251387, Control_c, 0, 64, 55
1, 251398, Note_on_c, 0, 32, 66
1, 251402, Control_c, 0, 64, 56
1, 251417, Control_c, 0, 64, 55
1, 251422, Note_off_c, 0, 44, 61
1, 251431, Note_off_c, 0, 32, 62
1, 251432, Control_c, 0, 64, 48
1, 251447, Control_c, 0, 64, 0
1, 251489, Note_on_c, 0, 31, 77
1, 251494, Note_on_c, 0, 43, 74
1, 251505, Note_on_c, 0, 62, 72
1, 251513, Note_off_c, 0, 64, 60
1, 251520, Note_off_c, 0, 31, 68
1, 251525, Note_off_c, 0, 43, 64
1, 251528, Note_off_c, 0, 58, 63
1, 251541, Note_off_c, 0, 54, 57
1, 251575, Note_off_c, 0, 62, 61
1, 251632, Control_c, 0, 67, 37
1, 251647, Control_c, 0, 67, 83
1, 251662, Control_c, 0, 67, 97
1, 251706, Control_c, 0, 67, 101
1, 251721, Control_c, 0, 67, 109
1, 251736, Control_c, 0, 67, 127
1, 251988, Note_on_c, 0, 64, 58
1, 251994, Note_on_c, 0, 59, 47
1, 252012, Note_on_c, 0, 55, 32
1, 252403, Note_on_c, 0, 36, 51
1, 252482, Poly_aftertouch_c, 0, 48, 127
1, 252513, Poly_aftertouch_c, 0, 48, 0
1, 252539, Note_off_c, 0, 36, 35
1, 252656, Note_on_c, 0, 65, 57
1, 252727, Note_off_c, 0, 59, 61
1, 252737, Note_off_c, 0, 64, 57
1, 252788, Note_off_c, 0, 55, 47
1, 252975, Note_on_c, 0, 64, 55
1, 252985, Note_on_c, 0, 60, 42
1, 252990, Note_on_c, 0, 55, 32
1, 253103, Note_off_c, 0, 65, 44
1, 253322, Control_c, 0, 67, 122
1, 253337, Control_c, 0, 67, 107
1, 253352, Control_c, 0, 67, 92
1, 253366, Control_c, 0, 67, 75
1, 253381, Control_c, 0, 67, 57
1, 253396, Control_c, 0, 67, 41
1, 253410, Control_c, 0, 67, 0
1, 253464, Note_on_c, 0, 29, 64
1, 253540, Note_off_c, 0, 55, 48
1, 253549, Note_off_c, 0, 60, 64
1, 253550, Poly_aftertouch_c, 0, 41, 127
1, 253575, Note_off_c, 0, 29, 57
1, 253589, Poly_aftertouch_c, 0, 41, 0
1, 253642, Note_off_c, 0, 64, 35
1, 253861, Note_on_c, 0, 65, 71
1, 253871, Note_on_c, 0, 56, 58
1, 253873, Note_on_c, 0, 60, 54
1, 253997, Note_on_c, 0, 64, 82
1, 254014, Note_off_c, 0, 60, 64
1, 254101, Note_off_c, 0, 65, 50
1, 254102, Note_on_c, 0, 63, 68
1, 254205, Note_off_c, 0, 64, 58
1, 254225, Note_on_c, 0, 62, 81
1, 254236, Note_on_c, 0, 34, 72
1, 254259, Note_off_c, 0, 63, 62
1, 254262, Note_off_c, 0, 34, 63
1, 254262, Note_off_c, 0, 56, 63
1, 254278, Note_off_c, 0, 62, 63
1, 254679, Note_on_c, 0, 63, 75
1, 254695, Note_on_c, 0, 59, 56
1, 254696, Note_on_c, 0, 56, 54
1, 255041, Note_on_c, 0, 47, 70
1, 255046, Note_on_c, 0, 35, 68
1, 255104, Note_off_c, 0, 59, 60
1, 255116, Note_off_c, 0, 56, 61
1, 255124, Note_off_c, 0, 35, 58
1, 255131, Note_off_c, 0, 47, 63
1, 255428, Note_on_c, 0, 64, 85
1, 255443, Note_on_c, 0, 55, 59
1, 255447, Note_on_c, 0, 58, 66
1, 255538, Note_off_c, 0, 63, 59
1, 255656, Control_c, 0, 64, 31
1, 255671, Control_c, 0, 64, 43
1, 255686, Control_c, 0, 64, 55
1, 255701, Control_c, 0, 64, 61
1, 255715, Control_c, 0, 64, 63
1, 255730, Control_c, 0, 64, 64
1, 255745, Control_c, 0, 64, 66
1, 255759, Control_c, 0, 64, 70
1, 255774, Control_c, 0, 64, 75
1, 255789, Control_c, 0, 64, 79
1, 255795, Note_on_c, 0, 36, 76
1, 255804, Control_c, 0, 64, 84
1, 255806, Note_off_c, 0, 58, 63
1, 255816, Note_off_c, 0, 55, 62
1, 255819, Control_c, 0, 64, 88
1, 255821, Note_off_c, 0, 64, 66
1, 255832, Note_off_c, 0, 36, 64
1, 255834, Control_c, 0, 64, 93
1, 255849, Control_c, 0, 64, 96
1, 255864, Control_c, 0, 64, 99
1, 255879, Control_c, 0, 64, 101
1, 255938, Control_c, 0, 64, 103
1, 256056, Control_c, 0, 64, 100
1, 256093, Control_c, 0, 64, 97
1, 256108, Control_c, 0, 64, 94
1, 256123, Control_c, 0, 64, 91
1, 256138, Control_c, 0, 64, 87
1, 256153, Control_c, 0, 64, 84
1, 256164, Note_on_c, 0, 65, 77
1, 256168, Control_c, 0, 64, 82
1, 256172, Note_on_c, 0, 56, 69
1, 256177, Note_on_c, 0, 59, 66
1, 256183, Control_c, 0, 64, 79
1, 256198, Control_c, 0, 64, 76
1, 256212, Control_c, 0, 64, 71
1, 256227, Control_c, 0, 64, 65
1, 256242, Control_c, 0, 64, 56
1, 256257, Control_c, 0, 64, 48
1, 256272, Control_c, 0, 64, 45
1, 256287, Control_c, 0, 64, 41
1, 256302, Control_c, 0, 64, 32
1, 256316, Control_c, 0, 64, 0
1, 256323, Note_on_c, 0, 67, 82
1, 256370, Note_off_c, 0, 65, 60
1, 256498, Note_on_c, 0, 65, 81
1, 256499, Note_on_c, 0, 38, 77
1, 256502, Note_on_c, 0, 50, 78
1, 256533, Note_off_c, 0, 50, 65
1, 256534, Note_off_c, 0, 38, 67
1, 256568, Note_off_c, 0, 59, 64
1, 256569, Note_off_c, 0, 56, 64
1, 256579, Note_off_c, 0, 67, 61
1, 256615, Note_off_c, 0, 65, 63
1, 256974, Note_on_c, 0, 67, 79
1, 256978, Note_on_c, 0, 58, 65
1, 256979, Note_on_c, 0, 61, 71
1, 257294, Note_on_c, 0, 39, 73
1, 257302, Note_on_c, 0, 51, 65
1, 257361, Control_c, 0, 67, 47
1, 257373, Note_off_c, 0, 51, 64
1, 257376, Control_c, 0, 67, 119
1, 257382, Note_off_c, 0, 39, 64
1, 257387, Note_on_c, 0, 52, 76
1, 257391, Control_c, 0, 67, 127
1, 257396, Note_on_c, 0, 40, 77
1, 257453, Note_off_c, 0, 52, 63
1, 257483, Note_off_c, 0, 40, 59
1, 257768, Note_on_c, 0, 68, 72
1, 257888, Note_off_c, 0, 67, 33
1, 257923, Note_off_c, 0, 61, 37
1, 257982, Note_off_c, 0, 58, 42
1, 258284, Note_on_c, 0, 67, 62
1, 258288, Note_on_c, 0, 59, 30
1, 258297, Note_on_c, 0, 62, 42
1, 258365, Note_off_c, 0, 68, 60
1, 258653, Control_c, 0, 64, 29
1, 258874, Control_c, 0, 64, 31
1, 259110, Note_off_c, 0, 59, 40
1, 259134, Control_c, 0, 64, 32
1, 259135, Note_on_c, 0, 32, 48
1, 259202, Note_off_c, 0, 62, 63
1, 259223, Control_c, 0, 64, 30
1, 259238, Control_c, 0, 64, 0
1, 259242, Note_off_c, 0, 67, 62
1, 259244, Note_off_c, 0, 32, 47
1, 259849, Note_on_c, 0, 60, 36
1, 259852, Note_on_c, 0, 68, 43
1, 259860, Note_on_c, 0, 63, 34
1, 260109, Note_off_c, 0, 68, 26
1, 260120, Note_on_c, 0, 67, 43
1, 260182, Note_off_c, 0, 63, 42
1, 260356, Note_on_c, 0, 66, 44
1, 260381, Note_off_c, 0, 67, 37
1, 260648, Note_on_c, 0, 65, 42
1, 260652, Note_on_c, 0, 27, 43
1, 260682, Note_off_c, 0, 27, 47
1, 260684, Note_off_c, 0, 66, 62
1, 260687, Note_off_c, 0, 65, 59
1, 260710, Note_off_c, 0, 60, 45
1, 261250, Note_on_c, 0, 66, 38
1, 261268, Note_on_c, 0, 59, 32
1, 261268, Note_on_c, 0, 63, 34
1, 261744, Note_on_c, 0, 31, 20
1, 261783, Note_off_c, 0, 63, 47
1, 261795, Note_off_c, 0, 59, 53
1, 261802, Note_off_c, 0, 31, 46
1, 262153, Note_off_c, 0, 66, 34
1, 262249, Note_on_c, 0, 67, 37
1, 262256, Note_on_c, 0, 58, 32
1, 262257, Note_on_c, 0, 62, 29
1, 262701, Note_on_c, 0, 26, 23
1, 262883, Note_off_c, 0, 26, 43
1, 262949, Note_off_c, 0, 62, 53
1, 262970, Note_off_c, 0, 67, 60
1, 263015, Note_off_c, 0, 58, 48
1, 263214, Note_on_c, 0, 66, 62
1, 263216, Note_on_c, 0, 61, 56
1, 263219, Control_c, 0, 67, 118
1, 263224, Note_on_c, 0, 57, 50
1, 263233, Control_c, 0, 67, 91
1, 263248, Control_c, 0, 67, 58
1, 263263, Control_c, 0, 67, 0
1, 263328, Note_on_c, 0, 65, 67
1, 263336, Note_off_c, 0, 61, 60
1, 263352, Note_on_c, 0, 29, 68
1, 263355, Note_off_c, 0, 66, 35
1, 263394, Note_off_c, 0, 57, 51
1, 263427, Control_c, 0, 64, 29
1, 263444, Note_on_c, 0, 64, 78
1, 263446, Note_off_c, 0, 65, 0
1, 263468, Note_off_c, 0, 29, 62
1, 263486, Control_c, 0, 64, 0
1, 263522, Poly_aftertouch_c, 0, 65, 0
1, 263551, Note_on_c, 0, 30, 75
1, 263551, Note_off_c, 0, 64, 63
1, 263554, Note_on_c, 0, 63, 77
1, 263594, Note_off_c, 0, 30, 67
1, 263599, Note_off_c, 0, 63, 60
1, 263849, Control_c, 0, 67, 58
1, 263864, Control_c, 0, 67, 65
1, 263894, Control_c, 0, 67, 69
1, 263908, Control_c, 0, 67, 82
1, 263923, Control_c, 0, 67, 115
1, 263938, Control_c, 0, 67, 127
1, 264264, Note_on_c, 0, 64, 45
1, 264279, Note_on_c, 0, 60, 33
1, 264284, Note_on_c, 0, 56, 25
1, 264803, Note_on_c, 0, 24, 50
1, 264867, Note_off_c, 0, 24, 53
1, 264976, Note_off_c, 0, 60, 43
1, 265060, Note_off_c, 0, 56, 41
1, 265332, Note_on_c, 0, 57, 39
1, 265334, Note_on_c, 0, 60, 40
1, 265357, Note_on_c, 0, 65, 45
1, 265450, Note_off_c, 0, 64, 37
1, 265687, Control_c, 0, 64, 34
1, 265702, Control_c, 0, 64, 42
1, 265717, Control_c, 0, 64, 54
1, 265732, Control_c, 0, 64, 59
1, 265748, Control_c, 0, 64, 60
1, 265755, Note_on_c, 0, 28, 65
1, 265763, Control_c, 0, 64, 61
1, 265777, Control_c, 0, 64, 64
1, 265792, Control_c, 0, 64, 68
1, 265795, Note_off_c, 0, 28, 61
1, 265807, Control_c, 0, 64, 72
1, 265829, Control_c, 0, 64, 75
1, 265844, Control_c, 0, 64, 78
1, 265859, Control_c, 0, 64, 81
1, 265860, Note_off_c, 0, 60, 61
1, 265862, Note_off_c, 0, 65, 63
1, 265868, Note_off_c, 0, 57, 63
1, 265874, Control_c, 0, 64, 83
1, 265874, Control_c, 0, 67, 125
1, 265888, Control_c, 0, 64, 86
1, 265888, Control_c, 0, 67, 121
1, 265903, Control_c, 0, 64, 88
1, 265903, Control_c, 0, 67, 112
1, 265918, Control_c, 0, 64, 90
1, 265918, Control_c, 0, 67, 103
1, 265933, Control_c, 0, 64, 91
1, 265933, Control_c, 0, 67, 99
1, 266022, Control_c, 0, 64, 90
1, 266037, Control_c, 0, 64, 90
1, 266051, Control_c, 0, 64, 88
1, 266051, Control_c, 0, 67, 101
1, 266066, Control_c, 0, 64, 87
1, 266081, Control_c, 0, 64, 86
1, 266095, Control_c, 0, 64, 84
1, 266095, Control_c, 0, 67, 105
1, 266110, Control_c, 0, 64, 81
1, 266125, Control_c, 0, 64, 78
1, 266140, Control_c, 0, 64, 74
1, 266155, Control_c, 0, 64, 72
1, 266169, Control_c, 0, 64, 69
1, 266180, Note_on_c, 0, 64, 74
1, 266184, Control_c, 0, 64, 63
1, 266197, Note_on_c, 0, 59, 57
1, 266199, Control_c, 0, 64, 56
1, 266206, Note_on_c, 0, 56, 48
1, 266214, Control_c, 0, 64, 50
1, 266214, Control_c, 0, 67, 103
1, 266228, Control_c, 0, 64, 49
1, 266243, Control_c, 0, 64, 48
1, 266258, Control_c, 0, 64, 46
1, 266273, Control_c, 0, 64, 43
1, 266288, Control_c, 0, 64, 38
1, 266303, Control_c, 0, 64, 35
1, 266320, Note_on_c, 0, 63, 87
1, 266330, Note_off_c, 0, 59, 63
1, 266333, Control_c, 0, 64, 35
1, 266347, Control_c, 0, 64, 34
1, 266362, Control_c, 0, 64, 34
1, 266377, Control_c, 0, 64, 32
1, 266392, Control_c, 0, 67, 105
1, 266440, Note_off_c, 0, 64, 61
1, 266443, Note_on_c, 0, 62, 77
1, 266481, Control_c, 0, 67, 107
1, 266485, Note_off_c, 0, 63, 52
1, 266523, Note_on_c, 0, 34, 61
1, 266541, Control_c, 0, 67, 114
1, 266556, Control_c, 0, 67, 117
1, 266571, Note_off_c, 0, 34, 66
1, 266572, Note_on_c, 0, 46, 17
1, 266572, Note_on_c, 0, 61, 75
1, 266613, Note_off_c, 0, 62, 60
1, 266620, Note_off_c, 0, 46, 40
1, 266622, Control_c, 0, 67, 120
1, 266623, Note_off_c, 0, 56, 64
1, 266643, Note_off_c, 0, 61, 64
1, 266696, Control_c, 0, 67, 122
1, 266711, Control_c, 0, 67, 124
1, 266786, Control_c, 0, 67, 127
1, 266844, Control_c, 0, 64, 32
1, 266887, Control_c, 0, 64, 32
1, 266902, Control_c, 0, 64, 33
1, 266917, Control_c, 0, 64, 34
1, 266932, Control_c, 0, 64, 35
1, 266947, Control_c, 0, 64, 35
1, 266976, Control_c, 0, 64, 36
1, 266991, Control_c, 0, 64, 37
1, 267006, Control_c, 0, 64, 38
1, 267021, Control_c, 0, 64, 38
1, 267065, Control_c, 0, 64, 39
1, 267080, Control_c, 0, 64, 39
1, 267137, Note_on_c, 0, 62, 48
1, 267138, Note_on_c, 0, 58, 41
1, 267151, Note_on_c, 0, 55, 37
1, 267228, Control_c, 0, 64, 40
1, 267242, Control_c, 0, 64, 41
1, 267287, Control_c, 0, 64, 42
1, 267302, Control_c, 0, 64, 44
1, 267324, Control_c, 0, 64, 47
1, 267340, Control_c, 0, 64, 48
1, 267370, Control_c, 0, 64, 49
1, 267385, Control_c, 0, 64, 51
1, 267400, Control_c, 0, 64, 54
1, 267415, Control_c, 0, 64, 60
1, 267429, Control_c, 0, 64, 61
1, 267444, Control_c, 0, 64, 62
1, 267473, Control_c, 0, 64, 63
1, 267488, Control_c, 0, 64, 64
1, 267503, Control_c, 0, 64, 65
1, 267518, Control_c, 0, 64, 66
1, 267533, Control_c, 0, 64, 67
1, 267547, Control_c, 0, 64, 68
1, 267562, Control_c, 0, 64, 69
1, 267577, Control_c, 0, 64, 69
1, 267592, Control_c, 0, 64, 70
1, 267605, Note_on_c, 0, 27, 36
1, 267607, Control_c, 0, 64, 70
1, 267621, Note_on_c, 0, 39, 24
1, 267621, Control_c, 0, 64, 71
1, 267671, Note_off_c, 0, 55, 58
1, 267678, Note_off_c, 0, 58, 63
1, 267690, Note_off_c, 0, 62, 60
1, 267695, Note_off_c, 0, 27, 57
1, 267729, Note_off_c, 0, 39, 35
1, 267992, Control_c, 0, 64, 70
1, 268022, Control_c, 0, 64, 70
1, 268037, Control_c, 0, 64, 69
1, 268052, Control_c, 0, 64, 69
1, 268073, Control_c, 0, 64, 68
1, 268079, Note_on_c, 0, 63, 59
1, 268088, Control_c, 0, 64, 67
1, 268093, Note_on_c, 0, 54, 40
1, 268094, Note_on_c, 0, 57, 42
1, 268103, Control_c, 0, 64, 65
1, 268118, Control_c, 0, 64, 64
1, 268133, Control_c, 0, 64, 62
1, 268149, Control_c, 0, 64, 61
1, 268164, Control_c, 0, 64, 59
1, 268178, Control_c, 0, 64, 57
1, 268193, Control_c, 0, 64, 56
1, 268208, Control_c, 0, 64, 55
1, 268223, Control_c, 0, 64, 50
1, 268238, Control_c, 0, 64, 45
1, 268244, Note_on_c, 0, 62, 67
1, 268252, Control_c, 0, 64, 38
1, 268254, Note_off_c, 0, 63, 51
1, 268258, Note_off_c, 0, 57, 52
1, 268267, Control_c, 0, 64, 33
1, 268282, Control_c, 0, 64, 0
1, 268354, Note_on_c, 0, 31, 38
1, 268373, Note_on_c, 0, 61, 66
1, 268390, Note_off_c, 0, 62, 56
1, 268446, Note_off_c, 0, 31, 47
1, 268502, Note_off_c, 0, 54, 42
1, 268544, Note_on_c, 0, 60, 60
1, 268550, Note_on_c, 0, 32, 60
1, 268570, Note_off_c, 0, 61, 40
1, 268584, Note_off_c, 0, 32, 60
1, 268592, Note_off_c, 0, 60, 63
1, 269261, Note_on_c, 0, 61, 35
1, 269275, Note_on_c, 0, 56, 40
1, 269284, Note_on_c, 0, 53, 33
1, 270220, Note_on_c, 0, 45, 66
1, 270238, Note_on_c, 0, 33, 53
1, 270423, Control_c, 0, 64, 30
1, 270438, Control_c, 0, 64, 32
1, 270453, Control_c, 0, 64, 33
1, 270467, Control_c, 0, 64, 34
1, 270482, Control_c, 0, 64, 35
1, 270497, Control_c, 0, 64, 38
1, 270512, Control_c, 0, 64, 43
1, 270527, Control_c, 0, 64, 51
1, 270543, Control_c, 0, 64, 55
1, 270558, Control_c, 0, 64, 57
1, 270572, Control_c, 0, 64, 59
1, 270587, Control_c, 0, 64, 60
1, 270602, Control_c, 0, 64, 62
1, 270617, Control_c, 0, 64, 64
1, 270633, Control_c, 0, 64, 67
1, 270647, Control_c, 0, 64, 71
1, 270662, Control_c, 0, 64, 75
1, 270677, Control_c, 0, 64, 83
1, 270691, Control_c, 0, 64, 92
1, 270706, Control_c, 0, 64, 103
1, 270721, Control_c, 0, 64, 127
1, 270774, Note_off_c, 0, 61, 57
1, 270829, Note_off_c, 0, 56, 58
1, 270855, Note_off_c, 0, 53, 37
1, 271466, Note_on_c, 0, 62, 57
1, 271475, Note_on_c, 0, 55, 38
1, 271493, Note_on_c, 0, 52, 39
1, 271559, Control_c, 0, 64, 117
1, 271574, Control_c, 0, 64, 106
1, 271588, Control_c, 0, 64, 99
1, 271603, Control_c, 0, 64, 94
1, 271618, Control_c, 0, 64, 90
1, 271633, Control_c, 0, 64, 84
1, 271648, Control_c, 0, 64, 79
1, 271662, Control_c, 0, 64, 73
1, 271677, Control_c, 0, 64, 67
1, 271692, Control_c, 0, 64, 62
1, 271707, Control_c, 0, 64, 59
1, 271722, Control_c, 0, 64, 57
1, 271737, Control_c, 0, 64, 56
1, 271752, Control_c, 0, 64, 54
1, 271767, Control_c, 0, 64, 53
1, 271781, Control_c, 0, 64, 53
1, 271796, Control_c, 0, 64, 52
1, 271818, Control_c, 0, 64, 51
1, 271833, Control_c, 0, 64, 50
1, 271847, Control_c, 0, 64, 49
1, 271877, Control_c, 0, 64, 49
1, 271907, Control_c, 0, 64, 48
1, 271937, Control_c, 0, 64, 48
1, 271996, Control_c, 0, 64, 47
1, 272011, Control_c, 0, 64, 46
1, 272038, Note_on_c, 0, 64, 59
1, 272070, Control_c, 0, 64, 45
1, 272085, Control_c, 0, 64, 44
1, 272100, Control_c, 0, 64, 44
1, 272141, Note_off_c, 0, 62, 56
1, 272160, Control_c, 0, 64, 43
1, 272500, Control_c, 0, 64, 44
1, 272596, Control_c, 0, 64, 44
1, 272775, Note_on_c, 0, 62, 44
1, 272799, Note_on_c, 0, 38, 37
1, 272801, Note_off_c, 0, 64, 64
1, 272914, Note_off_c, 0, 33, 47
1, 272938, Control_c, 0, 64, 44
1, 273057, Control_c, 0, 64, 44
1, 273072, Control_c, 0, 64, 45
1, 273101, Control_c, 0, 64, 45
1, 273131, Control_c, 0, 64, 46
1, 273146, Control_c, 0, 64, 48
1, 273160, Control_c, 0, 64, 49
1, 273175, Control_c, 0, 64, 50
1, 273190, Control_c, 0, 64, 51
1, 273204, Control_c, 0, 64, 52
1, 273219, Control_c, 0, 64, 54
1, 273234, Control_c, 0, 64, 56
1, 273249, Control_c, 0, 64, 59
1, 273264, Control_c, 0, 64, 61
1, 273278, Control_c, 0, 64, 62
1, 273293, Control_c, 0, 64, 63
1, 273316, Control_c, 0, 64, 65
1, 273331, Control_c, 0, 64, 68
1, 273346, Control_c, 0, 64, 70
1, 273360, Control_c, 0, 64, 71
1, 273375, Control_c, 0, 64, 73
1, 273390, Control_c, 0, 64, 75
1, 273405, Control_c, 0, 64, 76
1, 273419, Control_c, 0, 64, 78
1, 273434, Control_c, 0, 64, 81
1, 273449, Control_c, 0, 64, 83
1, 273464, Control_c, 0, 64, 86
1, 273479, Control_c, 0, 64, 88
1, 273493, Control_c, 0, 64, 90
1, 273508, Control_c, 0, 64, 92
1, 273523, Control_c, 0, 64, 94
1, 273538, Control_c, 0, 64, 97
1, 273553, Control_c, 0, 64, 100
1, 273567, Control_c, 0, 64, 104
1, 273582, Control_c, 0, 64, 107
1, 273597, Control_c, 0, 64, 112
1, 273612, Control_c, 0, 64, 119
1, 273627, Control_c, 0, 64, 127
1, 273627, Note_off_c, 0, 52, 36
1, 274824, Note_on_c, 0, 53, 14
1, 274991, Control_c, 0, 64, 112
1, 275006, Control_c, 0, 64, 105
1, 275021, Control_c, 0, 64, 101
1, 275036, Control_c, 0, 64, 99
1, 275051, Control_c, 0, 64, 93
1, 275065, Control_c, 0, 64, 83
1, 275080, Control_c, 0, 64, 74
1, 275095, Control_c, 0, 64, 67
1, 275110, Control_c, 0, 64, 62
1, 275125, Control_c, 0, 64, 60
1, 275138, Note_off_c, 0, 55, 35
1, 275139, Control_c, 0, 64, 59
1, 275154, Control_c, 0, 64, 58
1, 275169, Control_c, 0, 64, 57
1, 275183, Control_c, 0, 64, 56
1, 275198, Control_c, 0, 64, 55
1, 275243, Control_c, 0, 64, 55
1, 275272, Control_c, 0, 64, 54
1, 275302, Control_c, 0, 64, 54
1, 275377, Control_c, 0, 64, 56
1, 275392, Control_c, 0, 64, 58
1, 275406, Control_c, 0, 64, 60
1, 275421, Control_c, 0, 64, 62
1, 275436, Control_c, 0, 64, 64
1, 275451, Control_c, 0, 64, 66
1, 275466, Control_c, 0, 64, 69
1, 275481, Control_c, 0, 64, 74
1, 275496, Control_c, 0, 64, 77
1, 275511, Control_c, 0, 64, 79
1, 275526, Control_c, 0, 64, 81
1, 275541, Control_c, 0, 64, 83
1, 275562, Control_c, 0, 64, 87
1, 275577, Control_c, 0, 64, 93
1, 275592, Control_c, 0, 64, 99
1, 275606, Control_c, 0, 64, 105
1, 275621, Control_c, 0, 64, 113
1, 275636, Control_c, 0, 64, 127
1, 275857, Note_off_c, 0, 45, 29
1, 275924, Note_off_c, 0, 53, 39
1, 276044, Note_off_c, 0, 38, 38
1, 276336, Note_off_c, 0, 62, 49
1, 277149, Note_on_c, 0, 38, 26
1, 277165, Note_on_c, 0, 26, 12
1, 277223, Control_c, 0, 64, 116
1, 277238, Control_c, 0, 64, 89
1, 277252, Control_c, 0, 64, 74
1, 277267, Control_c, 0, 64, 64
1, 277282, Control_c, 0, 64, 60
1, 277297, Control_c, 0, 64, 61
1, 277312, Control_c, 0, 64, 65
1, 277326, Control_c, 0, 64, 70
1, 277341, Control_c, 0, 64, 77
1, 277356, Control_c, 0, 64, 82
1, 277364, Note_on_c, 0, 57, 38
1, 277372, Control_c, 0, 64, 85
1, 277386, Control_c, 0, 64, 90
1, 277401, Control_c, 0, 64, 98
1, 277416, Control_c, 0, 64, 120
1, 277431, Control_c, 0, 64, 127
1, 277475, Note_off_c, 0, 26, 40
1, 277500, Note_off_c, 0, 38, 49
1, 277570, Note_on_c, 0, 62, 38
1, 277662, Note_off_c, 0, 57, 41
1, 277751, Note_on_c, 0, 64, 45
1, 277794, Note_off_c, 0, 62, 43
1, 277806, Note_off_c, 0, 64, 63
1, 277961, Note_on_c, 0, 65, 52
1, 277995, Note_on_c, 0, 57, 32
1, 277999, Note_on_c, 0, 50, 36
1, 278005, Note_on_c, 0, 45, 32
1, 278009, Note_on_c, 0, 53, 21
1, 278164, Note_on_c, 0, 69, 57
1, 278179, Control_c, 0, 64, 89
1, 278194, Control_c, 0, 64, 72
1, 278209, Control_c, 0, 64, 63
1, 278223, Control_c, 0, 64, 60
1, 278238, Control_c, 0, 64, 62
1, 278253, Control_c, 0, 64, 67
1, 278268, Control_c, 0, 64, 76
1, 278283, Control_c, 0, 64, 87
1, 278298, Control_c, 0, 64, 97
1, 278313, Control_c, 0, 64, 103
1, 278327, Control_c, 0, 64, 118
1, 278342, Control_c, 0, 64, 127
1, 278361, Note_on_c, 0, 74, 54
1, 278390, Note_off_c, 0, 45, 39
1, 278393, Note_off_c, 0, 65, 29
1, 278410, Note_off_c, 0, 57, 41
1, 278420, Note_off_c, 0, 50, 41
1, 278433, Note_off_c, 0, 69, 38
1, 278438, Note_off_c, 0, 53, 39
1, 278585, Note_on_c, 0, 77, 51
1, 278637, Note_off_c, 0, 74, 36
1, 278832, Note_on_c, 0, 49, 40
1, 278841, Note_on_c, 0, 44, 26
1, 278841, Note_on_c, 0, 56, 33
1, 278842, Note_on_c, 0, 53, 30
1, 278913, Control_c, 0, 64, 111
1, 278928, Control_c, 0, 64, 84
1, 278943, Control_c, 0, 64, 65
1, 278957, Control_c, 0, 64, 55
1, 278972, Control_c, 0, 64, 52
1, 278987, Control_c, 0, 64, 53
1, 279002, Control_c, 0, 64, 55
1, 279017, Control_c, 0, 64, 60
1, 279031, Control_c, 0, 64, 67
1, 279046, Control_c, 0, 64, 77
1, 279061, Control_c, 0, 64, 88
1, 279076, Control_c, 0, 64, 100
1, 279091, Control_c, 0, 64, 111
1, 279106, Control_c, 0, 64, 127
1, 279129, Note_off_c, 0, 56, 50
1, 279149, Note_off_c, 0, 53, 57
1, 279177, Note_off_c, 0, 49, 61
1, 279222, Note_off_c, 0, 44, 47
1, 279394, Note_off_c, 0, 77, 64
1, 279726, Note_on_c, 0, 26, 32
1, 279732, Note_on_c, 0, 38, 38
1, 279824, Control_c, 0, 64, 87
1, 279839, Control_c, 0, 64, 68
1, 279854, Control_c, 0, 64, 55
1, 279869, Control_c, 0, 64, 51
1, 279884, Control_c, 0, 64, 53
1, 279899, Control_c, 0, 64, 59
1, 279914, Control_c, 0, 64, 68
1, 279924, Note_on_c, 0, 62, 51
1, 279928, Control_c, 0, 64, 82
1, 279943, Control_c, 0, 64, 103
1, 279958, Control_c, 0, 64, 127
1, 280015, Note_off_c, 0, 26, 39
1, 280037, Note_off_c, 0, 38, 51
1, 280113, Note_on_c, 0, 65, 58
1, 280227, Note_off_c, 0, 62, 53
1, 280300, Note_on_c, 0, 69, 59
1, 280316, Note_off_c, 0, 65, 61
1, 280338, Note_off_c, 0, 69, 61
1, 280513, Note_on_c, 0, 70, 69
1, 280531, Note_on_c, 0, 56, 46
1, 280535, Note_on_c, 0, 44, 40
1, 280537, Note_on_c, 0, 53, 40
1, 280539, Note_on_c, 0, 49, 45
1, 280647, Control_c, 0, 64, 111
1, 280662, Control_c, 0, 64, 82
1, 280677, Control_c, 0, 64, 63
1, 280692, Control_c, 0, 64, 53
1, 280703, Note_on_c, 0, 73, 73
1, 280707, Control_c, 0, 64, 50
1, 280736, Control_c, 0, 64, 53
1, 280751, Control_c, 0, 64, 60
1, 280766, Control_c, 0, 64, 69
1, 280781, Control_c, 0, 64, 89
1, 280802, Control_c, 0, 64, 127
1, 280917, Note_off_c, 0, 44, 49
1, 280933, Note_on_c, 0, 77, 66
1, 280969, Note_off_c, 0, 56, 56
1, 280971, Note_off_c, 0, 53, 57
1, 281017, Note_off_c, 0, 73, 57
1, 281031, Note_off_c, 0, 70, 39
1, 281053, Note_off_c, 0, 49, 30
1, 281151, Note_on_c, 0, 79, 62
1, 281207, Note_off_c, 0, 77, 53
1, 281420, Note_on_c, 0, 76, 61
1, 281440, Note_on_c, 0, 52, 38
1, 281441, Note_on_c, 0, 45, 31
1, 281446, Note_on_c, 0, 49, 36
1, 281447, Note_on_c, 0, 57, 22
1, 281487, Note_off_c, 0, 79, 56
1, 281514, Control_c, 0, 64, 108
1, 281529, Control_c, 0, 64, 84
1, 281551, Control_c, 0, 64, 66
1, 281566, Control_c, 0, 64, 51
1, 281581, Control_c, 0, 64, 44
1, 281596, Control_c, 0, 64, 43
1, 281611, Control_c, 0, 64, 46
1, 281625, Control_c, 0, 64, 56
1, 281640, Control_c, 0, 64, 65
1, 281650, Note_on_c, 0, 73, 56
1, 281655, Control_c, 0, 64, 77
1, 281670, Control_c, 0, 64, 95
1, 281684, Note_off_c, 0, 57, 42
1, 281685, Control_c, 0, 64, 127
1, 281739, Note_off_c, 0, 76, 56
1, 281832, Note_off_c, 0, 73, 58
1, 281841, Note_off_c, 0, 52, 36
1, 281846, Note_off_c, 0, 49, 37
1, 281861, Note_on_c, 0, 69, 43
1, 281902, Note_off_c, 0, 45, 40
1, 281926, Note_off_c, 0, 69, 59
1, 282069, Note_on_c, 0, 64, 48
1, 282122, Note_off_c, 0, 64, 63
1, 282339, Note_on_c, 0, 38, 40
1, 282344, Note_on_c, 0, 26, 35
1, 282434, Control_c, 0, 64, 91
1, 282448, Control_c, 0, 64, 71
1, 282463, Control_c, 0, 64, 58
1, 282478, Control_c, 0, 64, 52
1, 282493, Control_c, 0, 64, 53
1, 282507, Control_c, 0, 64, 57
1, 282513, Note_on_c, 0, 57, 54
1, 282524, Control_c, 0, 64, 65
1, 282539, Control_c, 0, 64, 75
1, 282553, Control_c, 0, 64, 87
1, 282568, Control_c, 0, 64, 101
1, 282583, Control_c, 0, 64, 127
1, 282661, Note_off_c, 0, 26, 40
1, 282700, Note_off_c, 0, 38, 50
1, 282707, Note_on_c, 0, 62, 64
1, 282764, Note_off_c, 0, 57, 60
1, 282888, Note_on_c, 0, 64, 71
1, 282914, Note_off_c, 0, 62, 62
1, 282942, Note_off_c, 0, 64, 64
1, 283103, Note_on_c, 0, 65, 62
1, 283123, Note_on_c, 0, 57, 54
1, 283138, Note_on_c, 0, 53, 41
1, 283143, Note_on_c, 0, 45, 45
1, 283144, Note_on_c, 0, 50, 49
1, 283294, Note_on_c, 0, 69, 79
1, 283301, Control_c, 0, 64, 88
1, 283317, Control_c, 0, 64, 68
1, 283332, Control_c, 0, 64, 54
1, 283346, Control_c, 0, 64, 53
1, 283361, Control_c, 0, 64, 57
1, 283376, Control_c, 0, 64, 64
1, 283391, Control_c, 0, 64, 77
1, 283406, Control_c, 0, 64, 103
1, 283420, Control_c, 0, 64, 127
1, 283474, Note_on_c, 0, 74, 81
1, 283512, Note_off_c, 0, 45, 60
1, 283532, Note_off_c, 0, 65, 26
1, 283544, Note_off_c, 0, 53, 58
1, 283556, Note_off_c, 0, 50, 52
1, 283558, Note_off_c, 0, 57, 61
1, 283559, Note_off_c, 0, 69, 54
1, 283675, Note_on_c, 0, 77, 83
1, 283757, Note_off_c, 0, 74, 58
1, 283928, Note_on_c, 0, 58, 56
1, 283944, Note_on_c, 0, 46, 46
1, 283949, Note_on_c, 0, 53, 50
1, 283953, Note_on_c, 0, 50, 45
1, 284020, Control_c, 0, 64, 91
1, 284035, Control_c, 0, 64, 66
1, 284050, Control_c, 0, 64, 0
1, 284141, Control_c, 0, 64, 42
1, 284155, Control_c, 0, 64, 64
1, 284170, Control_c, 0, 64, 83
1, 284185, Control_c, 0, 64, 127
1, 284252, Note_off_c, 0, 58, 63
1, 284273, Note_off_c, 0, 53, 60
1, 284280, Note_off_c, 0, 50, 59
1, 284322, Note_off_c, 0, 46, 61
1, 284492, Note_off_c, 0, 77, 64
1, 284622, Control_c, 0, 67, 125
1, 284850, Note_on_c, 0, 26, 48
1, 284856, Note_on_c, 0, 38, 62
1, 284948, Control_c, 0, 67, 127
1, 284992, Control_c, 0, 64, 89
1, 285007, Control_c, 0, 64, 69
1, 285022, Control_c, 0, 64, 55
1, 285037, Control_c, 0, 64, 49
1, 285052, Control_c, 0, 64, 50
1, 285059, Note_on_c, 0, 62, 69
1, 285066, Control_c, 0, 64, 59
1, 285081, Control_c, 0, 64, 69
1, 285096, Control_c, 0, 64, 85
1, 285110, Control_c, 0, 64, 127
1, 285159, Note_off_c, 0, 26, 62
1, 285197, Note_off_c, 0, 38, 61
1, 285246, Note_on_c, 0, 65, 80
1, 285296, Control_c, 0, 67, 125
1, 285346, Note_off_c, 0, 62, 60
1, 285441, Note_on_c, 0, 69, 81
1, 285444, Control_c, 0, 67, 123
1, 285467, Note_off_c, 0, 65, 64
1, 285503, Note_off_c, 0, 69, 65
1, 285562, Control_c, 0, 67, 125
1, 285637, Control_c, 0, 67, 127
1, 285694, Note_on_c, 0, 70, 76
1, 285718, Note_on_c, 0, 58, 66
1, 285732, Note_on_c, 0, 46, 49
1, 285738, Note_on_c, 0, 53, 55
1, 285741, Note_on_c, 0, 50, 51
1, 285860, Control_c, 0, 64, 90
1, 285875, Control_c, 0, 64, 68
1, 285889, Control_c, 0, 64, 49
1, 285904, Control_c, 0, 64, 42
1, 285917, Note_on_c, 0, 74, 80
1, 285919, Control_c, 0, 64, 45
1, 285933, Control_c, 0, 64, 55
1, 285948, Control_c, 0, 64, 66
1, 285963, Control_c, 0, 64, 82
1, 285978, Control_c, 0, 64, 127
1, 285993, Control_c, 0, 67, 125
1, 286007, Control_c, 0, 67, 123
1, 286022, Control_c, 0, 67, 121
1, 286045, Control_c, 0, 67, 118
1, 286052, Note_off_c, 0, 70, 57
1, 286060, Control_c, 0, 67, 108
1, 286075, Control_c, 0, 67, 89
1, 286089, Control_c, 0, 67, 74
1, 286104, Control_c, 0, 67, 65
1, 286119, Control_c, 0, 67, 56
1, 286125, Note_on_c, 0, 79, 78
1, 286134, Control_c, 0, 67, 50
1, 286148, Control_c, 0, 67, 47
1, 286149, Note_off_c, 0, 53, 61
1, 286163, Control_c, 0, 67, 47
1, 286168, Note_off_c, 0, 74, 59
1, 286178, Control_c, 0, 67, 46
1, 286184, Note_off_c, 0, 50, 58
1, 286193, Control_c, 0, 67, 45
1, 286194, Note_off_c, 0, 58, 62
1, 286252, Control_c, 0, 67, 45
1, 286256, Note_off_c, 0, 46, 29
1, 286266, Control_c, 0, 67, 44
1, 286327, Note_on_c, 0, 81, 87
1, 286415, Control_c, 0, 67, 44
1, 286527, Note_off_c, 0, 79, 19
1, 286582, Note_on_c, 0, 77, 81
1, 286609, Control_c, 0, 67, 44
1, 286612, Note_on_c, 0, 59, 58
1, 286624, Note_on_c, 0, 55, 41
1, 286631, Note_on_c, 0, 50, 46
1, 286636, Note_on_c, 0, 47, 42
1, 286638, Control_c, 0, 67, 45
1, 286665, Note_off_c, 0, 81, 58
1, 286668, Control_c, 0, 67, 45
1, 286683, Control_c, 0, 67, 47
1, 286698, Control_c, 0, 67, 48
1, 286712, Control_c, 0, 64, 114
1, 286727, Control_c, 0, 64, 81
1, 286727, Control_c, 0, 67, 49
1, 286742, Control_c, 0, 64, 63
1, 286742, Control_c, 0, 67, 50
1, 286756, Control_c, 0, 64, 49
1, 286756, Control_c, 0, 67, 52
1, 286771, Control_c, 0, 64, 46
1, 286771, Control_c, 0, 67, 52
1, 286794, Control_c, 0, 64, 51
1, 286794, Control_c, 0, 67, 52
1, 286800, Note_on_c, 0, 74, 81
1, 286808, Control_c, 0, 64, 64
1, 286808, Control_c, 0, 67, 51
1, 286823, Control_c, 0, 64, 78
1, 286838, Control_c, 0, 64, 114
1, 286838, Control_c, 0, 67, 50
1, 286847, Note_off_c, 0, 59, 57
1, 286853, Control_c, 0, 64, 127
1, 286868, Control_c, 0, 67, 49
1, 286883, Control_c, 0, 67, 47
1, 286898, Control_c, 0, 67, 45
1, 286912, Control_c, 0, 67, 44
1, 286920, Note_off_c, 0, 77, 56
1, 286927, Control_c, 0, 67, 42
1, 286942, Control_c, 0, 67, 41
1, 286957, Control_c, 0, 67, 40
1, 286960, Note_off_c, 0, 55, 61
1, 286992, Note_off_c, 0, 50, 61
1, 287001, Note_on_c, 0, 71, 75
1, 287011, Note_off_c, 0, 47, 62
1, 287021, Note_off_c, 0, 74, 62
1, 287075, Control_c, 0, 67, 37
1, 287089, Control_c, 0, 67, 37
1, 287115, Note_off_c, 0, 71, 59
1, 287194, Control_c, 0, 67, 36
1, 287196, Note_on_c, 0, 67, 68
1, 287209, Control_c, 0, 67, 35
1, 287224, Control_c, 0, 67, 35
1, 287253, Control_c, 0, 67, 34
1, 287265, Note_off_c, 0, 67, 62
1, 287268, Control_c, 0, 67, 34
1, 287417, Control_c, 0, 67, 34
1, 287482, Note_on_c, 0, 38, 62
1, 287487, Note_on_c, 0, 26, 44
1, 287587, Control_c, 0, 67, 35
1, 287602, Control_c, 0, 67, 36
1, 287617, Control_c, 0, 67, 37
1, 287632, Control_c, 0, 67, 38
1, 287647, Control_c, 0, 67, 39
1, 287661, Control_c, 0, 64, 102
1, 287661, Control_c, 0, 67, 40
1, 287676, Control_c, 0, 64, 75
1, 287676, Control_c, 0, 67, 41
1, 287691, Control_c, 0, 64, 59
1, 287703, Note_on_c, 0, 60, 71
1, 287706, Control_c, 0, 64, 46
1, 287721, Control_c, 0, 64, 45
1, 287721, Control_c, 0, 67, 40
1, 287735, Control_c, 0, 64, 52
1, 287735, Control_c, 0, 67, 40
1, 287750, Control_c, 0, 64, 62
1, 287750, Control_c, 0, 67, 39
1, 287765, Control_c, 0, 64, 75
1, 287765, Control_c, 0, 67, 38
1, 287780, Control_c, 0, 64, 99
1, 287780, Control_c, 0, 67, 37
1, 287795, Control_c, 0, 64, 127
1, 287795, Control_c, 0, 67, 35
1, 287801, Note_off_c, 0, 26, 61
1, 287810, Control_c, 0, 67, 34
1, 287825, Control_c, 0, 67, 0
1, 287857, Note_off_c, 0, 38, 61
1, 287880, Note_on_c, 0, 64, 83
1, 287967, Note_off_c, 0, 60, 58
1, 288051, Note_on_c, 0, 66, 86
1, 288079, Note_off_c, 0, 64, 64
1, 288116, Note_off_c, 0, 66, 65
1, 288271, Note_on_c, 0, 67, 72
1, 288304, Note_on_c, 0, 60, 61
1, 288308, Note_on_c, 0, 48, 48
1, 288317, Note_on_c, 0, 55, 50
1, 288330, Note_on_c, 0, 52, 53
1, 288459, Note_on_c, 0, 72, 88
1, 288470, Control_c, 0, 64, 107
1, 288484, Control_c, 0, 64, 76
1, 288499, Control_c, 0, 64, 59
1, 288510, Note_off_c, 0, 67, 59
1, 288514, Control_c, 0, 64, 48
1, 288529, Control_c, 0, 64, 48
1, 288543, Control_c, 0, 64, 58
1, 288558, Control_c, 0, 64, 69
1, 288573, Control_c, 0, 64, 92
1, 288588, Control_c, 0, 64, 127
1, 288666, Note_on_c, 0, 76, 88
1, 288748, Note_off_c, 0, 72, 58
1, 288825, Note_off_c, 0, 48, 60
1, 288841, Note_off_c, 0, 60, 47
1, 288874, Note_off_c, 0, 52, 52
1, 288883, Note_off_c, 0, 55, 62
1, 288889, Note_on_c, 0, 84, 88
1, 288915, Note_off_c, 0, 76, 64
1, 289191, Note_on_c, 0, 80, 78
1, 289261, Note_on_c, 0, 56, 36
1, 289265, Note_on_c, 0, 59, 46
1, 289266, Note_on_c, 0, 52, 41
1, 289268, Note_on_c, 0, 47, 34
1, 289336, Control_c, 0, 64, 98
1, 289351, Control_c, 0, 64, 70
1, 289366, Control_c, 0, 64, 55
1, 289380, Note_off_c, 0, 84, 35
1, 289381, Control_c, 0, 64, 47
1, 289396, Control_c, 0, 64, 48
1, 289410, Poly_aftertouch_c, 0, 83, 127
1, 289411, Control_c, 0, 64, 53
1, 289426, Control_c, 0, 64, 62
1, 289440, Control_c, 0, 64, 73
1, 289442, Note_on_c, 0, 74, 77
1, 289455, Control_c, 0, 64, 98
1, 289470, Control_c, 0, 64, 127
1, 289488, Poly_aftertouch_c, 0, 83, 0
1, 289499, Control_c, 0, 67, 41
1, 289503, Note_off_c, 0, 59, 58
1, 289514, Control_c, 0, 67, 42
1, 289544, Control_c, 0, 67, 43
1, 289558, Control_c, 0, 67, 48
1, 289568, Note_off_c, 0, 56, 54
1, 289573, Note_off_c, 0, 47, 37
1, 289573, Control_c, 0, 67, 67
1, 289588, Control_c, 0, 67, 74
1, 289618, Control_c, 0, 67, 76
1, 289622, Note_off_c, 0, 80, 57
1, 289632, Control_c, 0, 67, 81
1, 289644, Note_off_c, 0, 74, 61
1, 289647, Control_c, 0, 67, 106
1, 289655, Note_off_c, 0, 52, 57
1, 289662, Control_c, 0, 67, 127
1, 289663, Note_on_c, 0, 71, 54
1, 289697, Note_off_c, 0, 71, 63
1, 289879, Note_on_c, 0, 62, 42
1, 289917, Note_off_c, 0, 62, 54
1, 290102, Note_on_c, 0, 26, 34
1, 290104, Note_on_c, 0, 38, 45
1, 290175, Control_c, 0, 64, 115
1, 290189, Control_c, 0, 64, 83
1, 290204, Control_c, 0, 64, 65
1, 290219, Control_c, 0, 64, 50
1, 290234, Control_c, 0, 64, 43
1, 290263, Control_c, 0, 64, 47
1, 290278, Control_c, 0, 64, 58
1, 290293, Control_c, 0, 64, 67
1, 290297, Note_on_c, 0, 59, 69
1, 290308, Control_c, 0, 64, 80
1, 290323, Control_c, 0, 64, 104
1, 290338, Control_c, 0, 64, 127
1, 290362, Note_off_c, 0, 26, 61
1, 290440, Note_off_c, 0, 38, 39
1, 290490, Note_on_c, 0, 62, 80
1, 290551, Note_off_c, 0, 59, 60
1, 290642, Control_c, 0, 67, 123
1, 290657, Control_c, 0, 67, 111
1, 290672, Control_c, 0, 67, 95
1, 290681, Note_on_c, 0, 65, 83
1, 290687, Control_c, 0, 67, 84
1, 290701, Control_c, 0, 67, 78
1, 290707, Note_off_c, 0, 62, 63
1, 290716, Control_c, 0, 67, 77
1, 290731, Control_c, 0, 67, 75
1, 290737, Note_off_c, 0, 65, 64
1, 290746, Control_c, 0, 67, 73
1, 290761, Control_c, 0, 67, 71
1, 290776, Control_c, 0, 67, 67
1, 290791, Control_c, 0, 67, 65
1, 290805, Control_c, 0, 67, 65
1, 290924, Control_c, 0, 67, 67
1, 290928, Note_on_c, 0, 66, 78
1, 290938, Control_c, 0, 67, 67
1, 290952, Note_on_c, 0, 59, 46
1, 290958, Note_on_c, 0, 47, 38
1, 290958, Note_on_c, 0, 50, 46
1, 290962, Note_on_c, 0, 54, 42
1, 290983, Control_c, 0, 67, 68
1, 290998, Control_c, 0, 67, 71
1, 291012, Control_c, 0, 67, 73
1, 291042, Control_c, 0, 64, 97
1, 291056, Control_c, 0, 64, 73
1, 291071, Control_c, 0, 64, 57
1, 291071, Control_c, 0, 67, 75
1, 291086, Control_c, 0, 64, 47
1, 291086, Control_c, 0, 67, 76
1, 291101, Control_c, 0, 64, 47
1, 291116, Control_c, 0, 64, 52
1, 291116, Control_c, 0, 67, 75
1, 291131, Control_c, 0, 64, 63
1, 291140, Note_on_c, 0, 71, 80
1, 291146, Control_c, 0, 64, 74
1, 291161, Control_c, 0, 64, 91
1, 291175, Control_c, 0, 64, 126
1, 291175, Control_c, 0, 67, 73
1, 291190, Control_c, 0, 67, 72
1, 291205, Control_c, 0, 67, 71
1, 291235, Control_c, 0, 67, 69
1, 291247, Note_off_c, 0, 66, 59
1, 291249, Control_c, 0, 67, 66
1, 291264, Control_c, 0, 67, 64
1, 291284, Note_off_c, 0, 50, 60
1, 291332, Control_c, 0, 67, 63
1, 291333, Note_off_c, 0, 47, 62
1, 291338, Note_off_c, 0, 54, 61
1, 291347, Control_c, 0, 67, 62
1, 291357, Note_on_c, 0, 74, 82
1, 291376, Control_c, 0, 67, 62
1, 291386, Note_off_c, 0, 59, 60
1, 291404, Note_off_c, 0, 71, 51
1, 291465, Control_c, 0, 67, 63
1, 291479, Control_c, 0, 67, 62
1, 291509, Control_c, 0, 67, 65
1, 291524, Control_c, 0, 67, 67
1, 291573, Note_on_c, 0, 83, 80
1, 291599, Control_c, 0, 67, 68
1, 291611, Note_off_c, 0, 74, 61
1, 291658, Control_c, 0, 67, 69
1, 291673, Control_c, 0, 67, 72
1, 291717, Control_c, 0, 67, 71
1, 291732, Control_c, 0, 67, 72
1, 291747, Control_c, 0, 67, 76
1, 291776, Control_c, 0, 67, 75
1, 291806, Control_c, 0, 67, 77
1, 291821, Control_c, 0, 67, 81
1, 291831, Note_on_c, 0, 79, 74
1, 291835, Control_c, 0, 67, 81
1, 291863, Note_on_c, 0, 51, 44
1, 291870, Note_on_c, 0, 46, 40
1, 291873, Note_on_c, 0, 55, 33
1, 291879, Control_c, 0, 67, 85
1, 291880, Note_on_c, 0, 58, 32
1, 291894, Control_c, 0, 67, 88
1, 291909, Control_c, 0, 67, 88
1, 291924, Control_c, 0, 67, 87
1, 291953, Control_c, 0, 67, 90
1, 291968, Control_c, 0, 67, 95
1, 291983, Control_c, 0, 64, 121
1, 291983, Control_c, 0, 67, 98
1, 291998, Control_c, 0, 64, 86
1, 292013, Control_c, 0, 64, 65
1, 292013, Control_c, 0, 67, 101
1, 292016, Note_off_c, 0, 83, 34
1, 292035, Control_c, 0, 64, 54
1, 292035, Control_c, 0, 67, 104
1, 292050, Control_c, 0, 64, 51
1, 292050, Control_c, 0, 67, 116
1, 292065, Control_c, 0, 64, 52
1, 292065, Control_c, 0, 67, 127
1, 292078, Note_on_c, 0, 73, 66
1, 292079, Control_c, 0, 64, 56
1, 292094, Control_c, 0, 64, 64
1, 292110, Control_c, 0, 64, 73
1, 292125, Control_c, 0, 64, 94
1, 292140, Control_c, 0, 64, 127
1, 292167, Note_off_c, 0, 58, 43
1, 292229, Note_off_c, 0, 55, 41
1, 292246, Note_off_c, 0, 79, 57
1, 292283, Note_off_c, 0, 73, 60
1, 292294, Note_on_c, 0, 67, 49
1, 292296, Note_off_c, 0, 51, 60
1, 292324, Note_off_c, 0, 46, 60
1, 292344, Note_off_c, 0, 67, 62
1, 292511, Note_on_c, 0, 61, 46
1, 292562, Note_off_c, 0, 61, 59
1, 292740, Note_on_c, 0, 26, 35
1, 292749, Note_on_c, 0, 38, 42
1, 292902, Control_c, 0, 64, 90
1, 292917, Control_c, 0, 64, 70
1, 292931, Control_c, 0, 64, 55
1, 292946, Control_c, 0, 64, 49
1, 292949, Note_on_c, 0, 58, 56
1, 292961, Control_c, 0, 64, 50
1, 292976, Control_c, 0, 64, 54
1, 292991, Control_c, 0, 64, 62
1, 293006, Control_c, 0, 64, 70
1, 293021, Control_c, 0, 64, 81
1, 293036, Control_c, 0, 64, 95
1, 293050, Control_c, 0, 64, 106
1, 293056, Note_off_c, 0, 26, 61
1, 293065, Control_c, 0, 64, 127
1, 293119, Note_off_c, 0, 38, 48
1, 293152, Note_on_c, 0, 61, 65
1, 293238, Note_off_c, 0, 58, 55
1, 293334, Note_on_c, 0, 64, 71
1, 293356, Note_off_c, 0, 61, 61
1, 293385, Note_off_c, 0, 64, 63
1, 293557, Note_on_c, 0, 65, 64
1, 293578, Note_on_c, 0, 53, 45
1, 293578, Note_on_c, 0, 58, 51
1, 293589, Note_on_c, 0, 49, 47
1, 293590, Note_on_c, 0, 46, 40
1, 293694, Control_c, 0, 64, 113
1, 293710, Control_c, 0, 64, 82
1, 293725, Control_c, 0, 64, 64
1, 293740, Control_c, 0, 64, 50
1, 293746, Note_on_c, 0, 70, 77
1, 293754, Control_c, 0, 64, 46
1, 293784, Control_c, 0, 64, 49
1, 293799, Control_c, 0, 64, 56
1, 293814, Control_c, 0, 64, 65
1, 293828, Control_c, 0, 64, 76
1, 293844, Control_c, 0, 64, 100
1, 293859, Control_c, 0, 64, 127
1, 293946, Note_off_c, 0, 58, 59
1, 293951, Note_on_c, 0, 73, 73
1, 293977, Note_off_c, 0, 49, 59
1, 293980, Note_off_c, 0, 53, 51
1, 293982, Note_off_c, 0, 65, 35
1, 294028, Note_off_c, 0, 46, 47
1, 294065, Note_off_c, 0, 70, 40
1, 294183, Note_on_c, 0, 82, 78
1, 294225, Note_off_c, 0, 73, 60
1, 294496, Note_on_c, 0, 78, 66
1, 294526, Note_on_c, 0, 57, 36
1, 294530, Note_on_c, 0, 54, 35
1, 294535, Note_on_c, 0, 50, 37
1, 294547, Note_off_c, 0, 82, 58
1, 294549, Control_c, 0, 64, 91
1, 294553, Note_on_c, 0, 45, 33
1, 294564, Control_c, 0, 64, 67
1, 294578, Control_c, 0, 64, 52
1, 294593, Control_c, 0, 64, 44
1, 294608, Control_c, 0, 64, 45
1, 294623, Control_c, 0, 64, 51
1, 294638, Control_c, 0, 64, 61
1, 294652, Control_c, 0, 64, 72
1, 294667, Control_c, 0, 64, 91
1, 294682, Control_c, 0, 64, 106
1, 294687, Note_off_c, 0, 45, 51
1, 294696, Control_c, 0, 64, 112
1, 294702, Note_off_c, 0, 50, 60
1, 294711, Note_off_c, 0, 54, 61
1, 294711, Control_c, 0, 64, 119
1, 294726, Control_c, 0, 64, 127
1, 294749, Note_off_c, 0, 57, 39
1, 294815, Note_on_c, 0, 72, 56
1, 294864, Note_off_c, 0, 78, 59
1, 294913, Note_off_c, 0, 72, 54
1, 295081, Note_on_c, 0, 66, 50
1, 295237, Note_off_c, 0, 66, 35
1, 295360, Note_on_c, 0, 62, 42
1, 295444, Note_off_c, 0, 62, 60
1, 295755, Note_on_c, 0, 77, 62
1, 295897, Control_c, 0, 64, 113
1, 295912, Control_c, 0, 64, 87
1, 295926, Control_c, 0, 64, 68
1, 295941, Control_c, 0, 64, 54
1, 295956, Control_c, 0, 64, 47
1, 295971, Control_c, 0, 64, 48
1, 295986, Control_c, 0, 64, 53
1, 296000, Control_c, 0, 64, 62
1, 296015, Control_c, 0, 64, 68
1, 296022, Note_on_c, 0, 72, 50
1, 296030, Control_c, 0, 64, 77
1, 296044, Control_c, 0, 64, 92
1, 296059, Control_c, 0, 64, 112
1, 296074, Control_c, 0, 64, 127
1, 296212, Note_on_c, 0, 68, 52
1, 296397, Note_on_c, 0, 65, 58
1, 296467, Note_off_c, 0, 65, 61
1, 296491, Note_off_c, 0, 77, 61
1, 296547, Note_off_c, 0, 68, 60
1, 296550, Note_off_c, 0, 72, 61
1, 296589, Note_on_c, 0, 62, 52
1, 296769, Note_on_c, 0, 61, 53
1, 296932, Note_on_c, 0, 56, 62
1, 297084, Note_off_c, 0, 61, 64
1, 297090, Note_off_c, 0, 62, 39
1, 297109, Note_on_c, 0, 53, 58
1, 297122, Note_off_c, 0, 56, 60
1, 297139, Note_off_c, 0, 53, 64
1, 297295, Note_on_c, 0, 52, 65
1, 297463, Note_on_c, 0, 45, 72
1, 297494, Note_off_c, 0, 52, 55
1, 297647, Note_on_c, 0, 52, 71
1, 297662, Control_c, 0, 64, 112
1, 297677, Control_c, 0, 64, 78
1, 297692, Control_c, 0, 64, 55
1, 297707, Control_c, 0, 64, 0
1, 297736, Control_c, 0, 64, 29
1, 297751, Control_c, 0, 64, 47
1, 297766, Control_c, 0, 64, 64
1, 297781, Control_c, 0, 64, 75
1, 297796, Control_c, 0, 64, 87
1, 297811, Control_c, 0, 64, 100
1, 297813, Note_on_c, 0, 56, 79
1, 297826, Control_c, 0, 64, 113
1, 297840, Note_off_c, 0, 45, 51
1, 297840, Control_c, 0, 64, 127
1, 297916, Note_off_c, 0, 52, 55
1, 298010, Note_off_c, 0, 56, 59
1, 298037, Note_on_c, 0, 57, 68
1, 298144, Control_c, 0, 64, 84
1, 298159, Control_c, 0, 64, 64
1, 298174, Control_c, 0, 64, 42
1, 298189, Control_c, 0, 64, 0
1, 298233, Control_c, 0, 64, 47
1, 298247, Control_c, 0, 64, 63
1, 298262, Note_on_c, 0, 64, 63
1, 298262, Control_c, 0, 64, 73
1, 298277, Control_c, 0, 64, 81
1, 298292, Control_c, 0, 64, 86
1, 298307, Control_c, 0, 64, 91
1, 298321, Control_c, 0, 64, 100
1, 298336, Control_c, 0, 64, 119
1, 298351, Control_c, 0, 64, 127
1, 298486, Note_on_c, 0, 67, 58
1, 298544, Note_off_c, 0, 64, 61
1, 298574, Control_c, 0, 67, 114
1, 298589, Control_c, 0, 67, 109
1, 298619, Control_c, 0, 67, 106
1, 298649, Control_c, 0, 67, 102
1, 298663, Control_c, 0, 67, 98
1, 298665, Note_on_c, 0, 64, 60
1, 298684, Note_off_c, 0, 57, 61
1, 298708, Control_c, 0, 67, 96
1, 298789, Control_c, 0, 67, 95
1, 298804, Control_c, 0, 67, 95
1, 298882, Note_on_c, 0, 82, 84
1, 298908, Note_on_c, 0, 70, 52
1, 298938, Control_c, 0, 67, 94
1, 298940, Note_off_c, 0, 67, 27
1, 298944, Note_on_c, 0, 58, 51
1, 298982, Control_c, 0, 67, 95
1, 298996, Note_off_c, 0, 64, 60
1, 299011, Control_c, 0, 64, 97
1, 299026, Control_c, 0, 64, 74
1, 299041, Control_c, 0, 64, 57
1, 299056, Control_c, 0, 64, 39
1, 299056, Control_c, 0, 67, 96
1, 299070, Control_c, 0, 64, 36
1, 299084, Control_c, 0, 64, 40
1, 299084, Control_c, 0, 67, 95
1, 299099, Note_on_c, 0, 73, 49
1, 299099, Control_c, 0, 64, 51
1, 299099, Control_c, 0, 67, 95
1, 299114, Control_c, 0, 64, 62
1, 299119, Note_on_c, 0, 64, 56
1, 299129, Control_c, 0, 64, 69
1, 299143, Control_c, 0, 64, 77
1, 299143, Control_c, 0, 67, 94
1, 299158, Control_c, 0, 64, 86
1, 299158, Control_c, 0, 67, 92
1, 299173, Control_c, 0, 64, 95
1, 299173, Control_c, 0, 67, 91
1, 299188, Control_c, 0, 64, 107
1, 299203, Control_c, 0, 64, 127
1, 299277, Control_c, 0, 67, 92
1, 299299, Note_on_c, 0, 76, 58
1, 299301, Note_on_c, 0, 68, 46
1, 299307, Control_c, 0, 67, 92
1, 299322, Control_c, 0, 67, 94
1, 299329, Note_off_c, 0, 73, 57
1, 299337, Control_c, 0, 67, 95
1, 299350, Note_off_c, 0, 64, 57
1, 299382, Control_c, 0, 67, 95
1, 299395, Note_off_c, 0, 70, 47
1, 299397, Control_c, 0, 67, 98
1, 299404, Note_off_c, 0, 82, 53
1, 299463, Note_on_c, 0, 73, 60
1, 299471, Control_c, 0, 67, 100
1, 299493, Note_off_c, 0, 58, 63
1, 299495, Note_on_c, 0, 64, 57
1, 299552, Control_c, 0, 67, 103
1, 299565, Note_off_c, 0, 68, 37
1, 299626, Control_c, 0, 67, 107
1, 299641, Control_c, 0, 67, 109
1, 299642, Note_on_c, 0, 83, 92
1, 299659, Note_on_c, 0, 59, 65
1, 299660, Note_on_c, 0, 71, 67
1, 299680, Note_off_c, 0, 73, 62
1, 299700, Control_c, 0, 67, 115
1, 299702, Note_off_c, 0, 76, 60
1, 299715, Control_c, 0, 67, 119
1, 299737, Note_off_c, 0, 64, 61
1, 299745, Control_c, 0, 64, 102
1, 299760, Control_c, 0, 64, 74
1, 299774, Control_c, 0, 64, 58
1, 299774, Control_c, 0, 67, 122
1, 299789, Control_c, 0, 64, 44
1, 299789, Control_c, 0, 67, 126
1, 299804, Control_c, 0, 64, 38
1, 299814, Note_on_c, 0, 73, 60
1, 299818, Control_c, 0, 64, 39
1, 299834, Control_c, 0, 64, 46
1, 299835, Note_on_c, 0, 64, 57
1, 299849, Control_c, 0, 64, 57
1, 299864, Control_c, 0, 64, 67
1, 299879, Control_c, 0, 64, 78
1, 299893, Control_c, 0, 64, 89
1, 299908, Control_c, 0, 64, 95
1, 299923, Control_c, 0, 64, 98
1, 299938, Control_c, 0, 64, 102
1, 299953, Control_c, 0, 64, 113
1, 299967, Control_c, 0, 64, 127
1, 300018, Note_on_c, 0, 76, 59
1, 300020, Note_on_c, 0, 69, 52
1, 300035, Note_off_c, 0, 64, 62
1, 300041, Note_off_c, 0, 73, 55
1, 300102, Note_off_c, 0, 83, 56
1, 300181, Note_on_c, 0, 73, 56
1, 300182, Note_on_c, 0, 64, 54
1, 300184, Note_off_c, 0, 59, 58
1, 300255, Note_off_c, 0, 71, 37
1, 300318, Note_off_c, 0, 69, 41
1, 300354, Note_off_c, 0, 73, 58
1, 300398, Note_on_c, 0, 84, 80
1, 300416, Note_on_c, 0, 60, 54
1, 300417, Note_on_c, 0, 72, 39
1, 300462, Note_off_c, 0, 64, 59
1, 300479, Note_off_c, 0, 76, 41
1, 300509, Control_c, 0, 64, 95
1, 300524, Control_c, 0, 64, 76
1, 300538, Control_c, 0, 64, 62
1, 300553, Control_c, 0, 64, 50
1, 300568, Control_c, 0, 64, 44
1, 300598, Control_c, 0, 64, 48
1, 300608, Note_on_c, 0, 73, 49
1, 300613, Control_c, 0, 64, 57
1, 300613, Note_on_c, 0, 64, 44
1, 300628, Control_c, 0, 64, 64
1, 300642, Control_c, 0, 64, 70
1, 300657, Control_c, 0, 64, 78
1, 300672, Control_c, 0, 64, 85
1, 300687, Control_c, 0, 64, 89
1, 300702, Control_c, 0, 64, 93
1, 300716, Control_c, 0, 64, 97
1, 300731, Control_c, 0, 64, 102
1, 300746, Control_c, 0, 64, 108
1, 300760, Control_c, 0, 64, 113
1, 300775, Control_c, 0, 64, 121
1, 300790, Control_c, 0, 64, 127
1, 300817, Note_on_c, 0, 76, 52
1, 300825, Note_off_c, 0, 84, 39
1, 300827, Note_on_c, 0, 70, 44
1, 300837, Note_off_c, 0, 64, 60
1, 300854, Note_off_c, 0, 73, 38
1, 300882, Note_off_c, 0, 70, 49
1, 300908, Note_off_c, 0, 72, 41
1, 301004, Note_off_c, 0, 60, 38
1, 301018, Note_on_c, 0, 73, 37
1, 301020, Note_on_c, 0, 64, 31
1, 301236, Note_on_c, 0, 83, 62
1, 301246, Note_on_c, 0, 59, 45
1, 301250, Note_off_c, 0, 76, 42
1, 301282, Note_on_c, 0, 71, 29
1, 301284, Note_off_c, 0, 73, 52
1, 301310, Note_off_c, 0, 64, 43
1, 301346, Control_c, 0, 64, 116
1, 301361, Control_c, 0, 64, 91
1, 301376, Control_c, 0, 64, 72
1, 301391, Control_c, 0, 64, 59
1, 301406, Control_c, 0, 64, 49
1, 301421, Control_c, 0, 64, 49
1, 301436, Control_c, 0, 64, 52
1, 301448, Note_on_c, 0, 73, 40
1, 301450, Note_on_c, 0, 64, 38
1, 301451, Control_c, 0, 64, 59
1, 301465, Control_c, 0, 64, 65
1, 301480, Control_c, 0, 64, 69
1, 301495, Control_c, 0, 64, 74
1, 301510, Control_c, 0, 64, 80
1, 301525, Control_c, 0, 64, 84
1, 301539, Control_c, 0, 64, 87
1, 301554, Control_c, 0, 64, 91
1, 301569, Control_c, 0, 64, 95
1, 301583, Control_c, 0, 64, 99
1, 301598, Control_c, 0, 64, 104
1, 301613, Control_c, 0, 64, 108
1, 301628, Control_c, 0, 64, 114
1, 301643, Control_c, 0, 64, 127
1, 301688, Note_on_c, 0, 76, 42
1, 301708, Note_off_c, 0, 83, 36
1, 301713, Note_on_c, 0, 69, 27
1, 301714, Note_off_c, 0, 64, 50
1, 301765, Note_off_c, 0, 73, 36
1, 301823, Note_off_c, 0, 71, 41
1, 301882, Note_off_c, 0, 59, 59
1, 301905, Note_on_c, 0, 73, 33
1, 301913, Note_on_c, 0, 64, 29
1, 301945, Note_off_c, 0, 76, 45
1, 301963, Note_off_c, 0, 69, 39
1, 302160, Note_on_c, 0, 82, 49
1, 302175, Note_on_c, 0, 58, 40
1, 302192, Note_on_c, 0, 70, 28
1, 302241, Note_off_c, 0, 73, 36
1, 302244, Control_c, 0, 64, 111
1, 302249, Note_off_c, 0, 64, 44
1, 302258, Control_c, 0, 64, 96
1, 302273, Control_c, 0, 64, 81
1, 302288, Control_c, 0, 64, 68
1, 302303, Control_c, 0, 64, 59
1, 302318, Control_c, 0, 64, 53
1, 302333, Control_c, 0, 64, 53
1, 302348, Control_c, 0, 64, 53
1, 302362, Control_c, 0, 64, 57
1, 302377, Control_c, 0, 64, 61
1, 302392, Control_c, 0, 64, 64
1, 302406, Control_c, 0, 64, 68
1, 302421, Control_c, 0, 64, 74
1, 302431, Note_on_c, 0, 73, 32
1, 302436, Control_c, 0, 64, 81
1, 302442, Note_on_c, 0, 64, 34
1, 302451, Control_c, 0, 64, 87
1, 302466, Control_c, 0, 64, 91
1, 302482, Control_c, 0, 64, 94
1, 302497, Control_c, 0, 64, 99
1, 302518, Control_c, 0, 64, 104
1, 302533, Control_c, 0, 64, 112
1, 302548, Control_c, 0, 64, 126
1, 302747, Note_on_c, 0, 76, 25
1, 302750, Note_on_c, 0, 68, 14
1, 302778, Note_off_c, 0, 73, 34
1, 302781, Note_off_c, 0, 64, 44
1, 303042, Note_off_c, 0, 68, 40
1, 303120, Note_off_c, 0, 58, 27
1, 303144, Poly_aftertouch_c, 0, 73, 127
1, 303252, Note_off_c, 0, 76, 40
1, 303263, Note_off_c, 0, 82, 41
1, 303281, Note_off_c, 0, 70, 44
1, 303298, Poly_aftertouch_c, 0, 73, 0
1, 303660, Note_on_c, 0, 26, 32
1, 303771, Control_c, 0, 64, 99
1, 303785, Control_c, 0, 64, 81
1, 303800, Control_c, 0, 64, 67
1, 303815, Control_c, 0, 64, 60
1, 303830, Control_c, 0, 64, 58
1, 303845, Control_c, 0, 64, 61
1, 303859, Control_c, 0, 64, 66
1, 303874, Control_c, 0, 64, 72
1, 303889, Control_c, 0, 64, 82
1, 303904, Control_c, 0, 64, 91
1, 303919, Control_c, 0, 64, 99
1, 303934, Control_c, 0, 64, 112
1, 303949, Control_c, 0, 64, 127
1, 303956, Note_on_c, 0, 57, 40
1, 303975, Note_off_c, 0, 26, 41
1, 304203, Note_on_c, 0, 62, 41
1, 304231, Note_off_c, 0, 57, 33
1, 304409, Note_on_c, 0, 64, 35
1, 304427, Note_off_c, 0, 62, 33
1, 304459, Note_off_c, 0, 64, 56
1, 304698, Note_on_c, 0, 57, 63
1, 304728, Note_on_c, 0, 45, 47
1, 304736, Note_on_c, 0, 53, 29
1, 304745, Note_on_c, 0, 50, 39
1, 304943, Control_c, 0, 64, 90
1, 304945, Note_on_c, 0, 69, 39
1, 304958, Control_c, 0, 64, 75
1, 304973, Control_c, 0, 64, 66
1, 305002, Control_c, 0, 64, 70
1, 305017, Control_c, 0, 64, 79
1, 305031, Control_c, 0, 64, 94
1, 305046, Control_c, 0, 64, 113
1, 305061, Control_c, 0, 64, 127
1, 305108, Note_off_c, 0, 45, 50
1, 305166, Note_on_c, 0, 74, 37
1, 305174, Note_off_c, 0, 50, 42
1, 305187, Note_off_c, 0, 57, 63
1, 305189, Note_off_c, 0, 53, 40
1, 305335, Note_off_c, 0, 69, 18
1, 305379, Note_on_c, 0, 77, 40
1, 305636, Note_on_c, 0, 56, 42
1, 305666, Note_on_c, 0, 49, 34
1, 305671, Note_on_c, 0, 53, 32
1, 305678, Note_on_c, 0, 44, 19
1, 305766, Control_c, 0, 64, 98
1, 305781, Control_c, 0, 64, 77
1, 305795, Control_c, 0, 64, 62
1, 305810, Control_c, 0, 64, 57
1, 305824, Control_c, 0, 64, 57
1, 305838, Control_c, 0, 64, 60
1, 305853, Control_c, 0, 64, 66
1, 305868, Control_c, 0, 64, 74
1, 305883, Control_c, 0, 64, 85
1, 305898, Control_c, 0, 64, 96
1, 305913, Control_c, 0, 64, 105
1, 305927, Control_c, 0, 64, 127
1, 305992, Note_off_c, 0, 53, 40
1, 305993, Note_off_c, 0, 56, 63
1, 306022, Note_off_c, 0, 74, 1
1, 306025, Note_off_c, 0, 49, 41
1, 306037, Note_off_c, 0, 44, 50
1, 306185, Note_off_c, 0, 77, 62
1, 306610, Note_on_c, 0, 26, 48
1, 306677, Control_c, 0, 64, 93
1, 306691, Control_c, 0, 64, 68
1, 306706, Control_c, 0, 64, 53
1, 306721, Control_c, 0, 64, 54
1, 306736, Control_c, 0, 64, 59
1, 306751, Control_c, 0, 64, 66
1, 306766, Control_c, 0, 64, 79
1, 306769, Note_off_c, 0, 26, 61
1, 306780, Control_c, 0, 64, 106
1, 306795, Control_c, 0, 64, 127
1, 306871, Note_on_c, 0, 62, 37
1, 307070, Note_on_c, 0, 65, 39
1, 307167, Note_off_c, 0, 62, 43
1, 307263, Note_on_c, 0, 69, 47
1, 307274, Note_off_c, 0, 65, 60
1, 307293, Note_off_c, 0, 69, 61
1, 307507, Note_on_c, 0, 56, 69
1, 307537, Note_on_c, 0, 53, 45
1, 307538, Note_on_c, 0, 49, 46
1, 307542, Note_on_c, 0, 44, 36
1, 307576, Poly_aftertouch_c, 0, 70, 127
1, 307707, Control_c, 0, 64, 92
1, 307722, Control_c, 0, 64, 71
1, 307737, Control_c, 0, 64, 62
1, 307758, Control_c, 0, 64, 61
1, 307770, Note_on_c, 0, 73, 44
1, 307773, Control_c, 0, 64, 63
1, 307788, Control_c, 0, 64, 68
1, 307803, Control_c, 0, 64, 79
1, 307818, Control_c, 0, 64, 98
1, 307833, Control_c, 0, 64, 127
1, 307946, Note_off_c, 0, 53, 38
1, 307995, Note_on_c, 0, 77, 46
1, 307998, Note_off_c, 0, 44, 40
1, 308021, Note_off_c, 0, 73, 36
1, 308092, Note_off_c, 0, 49, 25
1, 308106, Note_off_c, 0, 56, 48
1, 308131, Poly_aftertouch_c, 0, 70, 0
1, 308221, Note_on_c, 0, 79, 41
1, 308253, Note_off_c, 0, 77, 37
1, 308464, Note_on_c, 0, 57, 52
1, 308486, Note_on_c, 0, 52, 46
1, 308493, Note_on_c, 0, 45, 40
1, 308516, Note_on_c, 0, 49, 33
1, 308521, Note_on_c, 0, 76, 39
1, 308552, Control_c, 0, 64, 104
1, 308567, Control_c, 0, 64, 79
1, 308581, Control_c, 0, 64, 64
1, 308596, Control_c, 0, 64, 56
1, 308611, Control_c, 0, 64, 56
1, 308626, Control_c, 0, 64, 59
1, 308641, Control_c, 0, 64, 65
1, 308650, Note_off_c, 0, 79, 28
1, 308655, Control_c, 0, 64, 79
1, 308670, Control_c, 0, 64, 99
1, 308685, Control_c, 0, 64, 127
1, 308700, Note_on_c, 0, 73, 47
1, 308773, Note_off_c, 0, 76, 34
1, 308778, Note_off_c, 0, 57, 63
1, 308821, Note_off_c, 0, 52, 60
1, 308825, Note_off_c, 0, 73, 55
1, 308866, Note_off_c, 0, 49, 49
1, 308868, Note_off_c, 0, 45, 52
1, 308892, Note_on_c, 0, 69, 37
1, 308925, Note_off_c, 0, 69, 60
1, 309091, Note_on_c, 0, 64, 40
1, 309123, Note_off_c, 0, 64, 54
1, 309320, Note_on_c, 0, 26, 56
1, 309390, Control_c, 0, 64, 88
1, 309404, Control_c, 0, 64, 66
1, 309419, Control_c, 0, 64, 52
1, 309434, Control_c, 0, 64, 52
1, 309449, Control_c, 0, 64, 57
1, 309464, Control_c, 0, 64, 66
1, 309478, Control_c, 0, 64, 79
1, 309493, Control_c, 0, 64, 101
1, 309507, Note_off_c, 0, 26, 61
1, 309508, Control_c, 0, 64, 127
1, 309515, Note_on_c, 0, 57, 44
1, 309704, Note_on_c, 0, 62, 50
1, 309727, Note_off_c, 0, 57, 36
1, 309776, Control_c, 0, 67, 118
1, 309791, Control_c, 0, 67, 84
1, 309806, Control_c, 0, 67, 69
1, 309820, Control_c, 0, 67, 67
1, 309850, Control_c, 0, 67, 65
1, 309865, Control_c, 0, 67, 63
1, 309880, Control_c, 0, 67, 62
1, 309885, Note_on_c, 0, 64, 55
1, 309894, Control_c, 0, 67, 61
1, 309897, Note_off_c, 0, 62, 58
1, 309909, Control_c, 0, 67, 60
1, 309920, Note_off_c, 0, 64, 63
1, 309924, Control_c, 0, 67, 59
1, 309939, Control_c, 0, 67, 57
1, 310065, Control_c, 0, 67, 58
1, 310106, Note_on_c, 0, 57, 72
1, 310124, Control_c, 0, 67, 59
1, 310127, Note_on_c, 0, 45, 55
1, 310128, Note_on_c, 0, 53, 49
1, 310135, Note_on_c, 0, 50, 54
1, 310198, Control_c, 0, 67, 62
1, 310213, Control_c, 0, 67, 63
1, 310257, Control_c, 0, 67, 65
1, 310260, Poly_aftertouch_c, 0, 65, 127
1, 310272, Control_c, 0, 67, 69
1, 310287, Control_c, 0, 64, 90
1, 310287, Control_c, 0, 67, 70
1, 310301, Control_c, 0, 64, 70
1, 310316, Control_c, 0, 64, 59
1, 310316, Control_c, 0, 67, 69
1, 310326, Note_on_c, 0, 69, 52
1, 310331, Control_c, 0, 64, 60
1, 310346, Control_c, 0, 64, 66
1, 310361, Control_c, 0, 64, 77
1, 310361, Control_c, 0, 67, 68
1, 310375, Control_c, 0, 64, 108
1, 310375, Control_c, 0, 67, 67
1, 310390, Control_c, 0, 64, 127
1, 310390, Control_c, 0, 67, 65
1, 310405, Control_c, 0, 67, 64
1, 310435, Control_c, 0, 67, 61
1, 310450, Control_c, 0, 67, 58
1, 310457, Note_off_c, 0, 45, 59
1, 310465, Control_c, 0, 67, 57
1, 310490, Note_off_c, 0, 53, 60
1, 310495, Note_off_c, 0, 50, 55
1, 310500, Note_on_c, 0, 74, 60
1, 310524, Control_c, 0, 67, 56
1, 310530, Note_off_c, 0, 57, 64
1, 310539, Control_c, 0, 67, 54
1, 310572, Poly_aftertouch_c, 0, 65, 0
1, 310575, Note_off_c, 0, 69, 33
1, 310584, Control_c, 0, 67, 54
1, 310599, Control_c, 0, 67, 52
1, 310614, Control_c, 0, 67, 51
1, 310629, Control_c, 0, 67, 50
1, 310643, Control_c, 0, 67, 40
1, 310658, Control_c, 0, 67, 38
1, 310673, Control_c, 0, 67, 37
1, 310688, Control_c, 0, 67, 35
1, 310701, Note_on_c, 0, 77, 49
1, 310703, Control_c, 0, 67, 35
1, 310732, Note_off_c, 0, 74, 51
1, 310843, Control_c, 0, 67, 34
1, 310918, Control_c, 0, 67, 0
1, 310948, Note_on_c, 0, 58, 70
1, 310962, Control_c, 0, 67, 34
1, 310966, Note_on_c, 0, 53, 57
1, 310973, Note_on_c, 0, 46, 59
1, 310973, Note_on_c, 0, 50, 50
1, 311021, Control_c, 0, 67, 34
1, 311036, Control_c, 0, 67, 36
1, 311050, Control_c, 0, 67, 37
1, 311065, Control_c, 0, 64, 101
1, 311065, Control_c, 0, 67, 37
1, 311080, Control_c, 0, 64, 74
1, 311080, Control_c, 0, 67, 39
1, 311095, Control_c, 0, 64, 58
1, 311095, Control_c, 0, 67, 40
1, 311110, Control_c, 0, 64, 55
1, 311110, Control_c, 0, 67, 42
1, 311124, Control_c, 0, 64, 59
1, 311139, Control_c, 0, 64, 66
1, 311154, Control_c, 0, 64, 81
1, 311154, Control_c, 0, 67, 41
1, 311168, Control_c, 0, 64, 127
1, 311213, Control_c, 0, 67, 40
1, 311228, Control_c, 0, 67, 39
1, 311243, Control_c, 0, 67, 38
1, 311257, Note_off_c, 0, 58, 63
1, 311268, Note_off_c, 0, 53, 60
1, 311273, Control_c, 0, 67, 38
1, 311279, Note_off_c, 0, 50, 62
1, 311288, Control_c, 0, 67, 37
1, 311310, Note_off_c, 0, 46, 62
1, 311318, Control_c, 0, 67, 35
1, 311333, Control_c, 0, 67, 35
1, 311347, Control_c, 0, 67, 34
1, 311377, Control_c, 0, 67, 0
1, 311461, Note_off_c, 0, 77, 64
1, 311870, Note_on_c, 0, 26, 71
1, 311932, Control_c, 0, 64, 114
1, 311947, Control_c, 0, 64, 82
1, 311962, Control_c, 0, 64, 68
1, 311977, Control_c, 0, 64, 64
1, 311991, Control_c, 0, 64, 68
1, 312006, Control_c, 0, 64, 77
1, 312021, Control_c, 0, 64, 127
1, 312061, Note_off_c, 0, 26, 62
1, 312122, Note_on_c, 0, 62, 51
1, 312322, Note_on_c, 0, 65, 62
1, 312405, Note_off_c, 0, 62, 57
1, 312511, Note_on_c, 0, 69, 61
1, 312522, Note_off_c, 0, 65, 62
1, 312549, Note_off_c, 0, 69, 61
1, 312767, Note_on_c, 0, 58, 93
1, 312782, Note_on_c, 0, 53, 66
1, 312790, Note_on_c, 0, 46, 64
1, 312795, Note_on_c, 0, 50, 59
1, 312912, Note_on_c, 0, 70, 27
1, 312978, Control_c, 0, 64, 93
1, 313001, Control_c, 0, 64, 80
1, 313016, Control_c, 0, 64, 75
1, 313022, Note_on_c, 0, 74, 63
1, 313031, Control_c, 0, 64, 77
1, 313045, Control_c, 0, 64, 89
1, 313060, Control_c, 0, 64, 127
1, 313179, Note_off_c, 0, 53, 59
1, 313218, Note_on_c, 0, 79, 62
1, 313295, Note_off_c, 0, 50, 29
1, 313316, Note_off_c, 0, 58, 59
1, 313317, Note_off_c, 0, 70, 40
1, 313321, Note_off_c, 0, 46, 37
1, 313326, Note_off_c, 0, 74, 35
1, 313425, Note_on_c, 0, 81, 65
1, 313622, Note_off_c, 0, 79, 22
1, 313647, Note_on_c, 0, 59, 88
1, 313654, Note_on_c, 0, 55, 72
1, 313672, Note_on_c, 0, 50, 61
1, 313675, Note_on_c, 0, 47, 63
1, 313678, Note_on_c, 0, 77, 65
1, 313765, Control_c, 0, 64, 89
1, 313780, Control_c, 0, 64, 68
1, 313795, Control_c, 0, 64, 57
1, 313809, Control_c, 0, 64, 55
1, 313824, Control_c, 0, 64, 58
1, 313839, Control_c, 0, 64, 66
1, 313854, Control_c, 0, 64, 86
1, 313864, Note_on_c, 0, 74, 69
1, 313869, Control_c, 0, 64, 127
1, 313920, Note_off_c, 0, 81, 49
1, 313931, Note_off_c, 0, 77, 56
1, 313936, Note_off_c, 0, 59, 60
1, 314007, Note_off_c, 0, 55, 60
1, 314052, Note_off_c, 0, 74, 61
1, 314053, Note_off_c, 0, 47, 54
1, 314060, Note_off_c, 0, 50, 35
1, 314065, Note_on_c, 0, 71, 70
1, 314129, Note_off_c, 0, 71, 56
1, 314253, Note_on_c, 0, 67, 71
1, 314296, Note_off_c, 0, 67, 61
1, 314579, Note_on_c, 0, 29, 82
1, 314691, Control_c, 0, 64, 105
1, 314706, Control_c, 0, 64, 77
1, 314721, Control_c, 0, 64, 59
1, 314736, Control_c, 0, 64, 42
1, 314750, Control_c, 0, 64, 33
1, 314765, Control_c, 0, 64, 32
1, 314780, Control_c, 0, 64, 36
1, 314795, Control_c, 0, 64, 50
1, 314810, Control_c, 0, 64, 67
1, 314824, Control_c, 0, 64, 88
1, 314839, Control_c, 0, 64, 127
1, 314851, Note_on_c, 0, 63, 75
1, 314877, Note_off_c, 0, 29, 62
1, 315060, Note_on_c, 0, 67, 81
1, 315183, Note_off_c, 0, 63, 54
1, 315246, Note_on_c, 0, 68, 74
1, 315246, Control_c, 0, 67, 35
1, 315261, Control_c, 0, 67, 38
1, 315262, Note_off_c, 0, 67, 64
1, 315277, Control_c, 0, 67, 45
1, 315292, Control_c, 0, 67, 45
1, 315300, Note_off_c, 0, 68, 63
1, 315307, Control_c, 0, 67, 48
1, 315321, Control_c, 0, 67, 51
1, 315336, Control_c, 0, 67, 55
1, 315351, Control_c, 0, 67, 55
1, 315380, Control_c, 0, 67, 57
1, 315395, Control_c, 0, 67, 60
1, 315410, Control_c, 0, 67, 66
1, 315425, Control_c, 0, 67, 71
1, 315440, Control_c, 0, 67, 71
1, 315455, Control_c, 0, 67, 73
1, 315470, Control_c, 0, 67, 78
1, 315485, Control_c, 0, 67, 88
1, 315495, Note_on_c, 0, 60, 86
1, 315500, Control_c, 0, 67, 88
1, 315513, Note_on_c, 0, 56, 61
1, 315514, Control_c, 0, 67, 89
1, 315515, Note_on_c, 0, 48, 73
1, 315520, Note_on_c, 0, 51, 63
1, 315529, Control_c, 0, 67, 91
1, 315540, Note_on_c, 0, 72, 64
1, 315544, Control_c, 0, 67, 96
1, 315559, Control_c, 0, 67, 107
1, 315603, Control_c, 0, 67, 111
1, 315618, Control_c, 0, 67, 116
1, 315633, Control_c, 0, 67, 127
1, 315713, Note_on_c, 0, 75, 76
1, 315947, Note_on_c, 0, 79, 81
1, 315959, Control_c, 0, 64, 92
1, 315973, Control_c, 0, 64, 65
1, 315995, Control_c, 0, 64, 37
1, 316010, Control_c, 0, 64, 30
1, 316025, Control_c, 0, 64, 37
1, 316040, Control_c, 0, 64, 52
1, 316054, Control_c, 0, 64, 68
1, 316070, Control_c, 0, 64, 88
1, 316083, Note_off_c, 0, 75, 57
1, 316085, Control_c, 0, 64, 127
1, 316087, Note_off_c, 0, 72, 34
1, 316191, Note_off_c, 0, 48, 60
1, 316201, Note_off_c, 0, 60, 55
1, 316205, Note_off_c, 0, 56, 61
1, 316208, Note_on_c, 0, 87, 64
1, 316209, Note_off_c, 0, 51, 59
1, 316478, Note_off_c, 0, 87, 59
1, 316480, Note_on_c, 0, 59, 75
1, 316495, Note_on_c, 0, 55, 51
1, 316505, Note_on_c, 0, 77, 48
1, 316513, Note_on_c, 0, 47, 53
1, 316535, Note_on_c, 0, 50, 28
1, 316604, Control_c, 0, 64, 86
1, 316619, Control_c, 0, 64, 66
1, 316620, Note_off_c, 0, 79, 43
1, 316634, Control_c, 0, 64, 53
1, 316649, Control_c, 0, 64, 51
1, 316663, Control_c, 0, 64, 56
1, 316678, Control_c, 0, 64, 64
1, 316693, Control_c, 0, 64, 75
1, 316700, Note_on_c, 0, 74, 57
1, 316707, Note_off_c, 0, 77, 59
1, 316708, Control_c, 0, 64, 97
1, 316722, Control_c, 0, 64, 127
1, 316813, Note_off_c, 0, 74, 61
1, 316839, Note_off_c, 0, 59, 63
1, 316853, Note_off_c, 0, 47, 0
1, 316856, Note_off_c, 0, 55, 57
1, 316890, Poly_aftertouch_c, 0, 47, 127
1, 316930, Note_off_c, 0, 50, 45
1, 316939, Note_on_c, 0, 71, 51
1, 316949, Poly_aftertouch_c, 0, 47, 0
1, 317159, Note_on_c, 0, 67, 48
1, 317187, Note_off_c, 0, 67, 58
1, 317189, Note_off_c, 0, 71, 60
1, 317403, Note_on_c, 0, 39, 58
1, 317434, Note_on_c, 0, 27, 47
1, 317538, Control_c, 0, 64, 93
1, 317553, Control_c, 0, 64, 71
1, 317568, Control_c, 0, 64, 57
1, 317583, Control_c, 0, 64, 49
1, 317598, Control_c, 0, 64, 50
1, 317612, Control_c, 0, 64, 55
1, 317621, Note_on_c, 0, 61, 44
1, 317627, Control_c, 0, 64, 63
1, 317642, Control_c, 0, 64, 69
1, 317657, Control_c, 0, 64, 79
1, 317673, Control_c, 0, 64, 93
1, 317688, Control_c, 0, 64, 109
1, 317702, Control_c, 0, 64, 127
1, 317711, Note_off_c, 0, 27, 42
1, 317764, Note_off_c, 0, 39, 62
1, 317828, Note_on_c, 0, 65, 47
1, 317948, Note_off_c, 0, 61, 36
1, 318013, Note_on_c, 0, 66, 57
1, 318014, Note_off_c, 0, 65, 56
1, 318050, Note_off_c, 0, 66, 64
1, 318248, Note_on_c, 0, 58, 66
1, 318274, Note_on_c, 0, 70, 46
1, 318284, Note_on_c, 0, 46, 35
1, 318287, Note_on_c, 0, 54, 40
1, 318294, Note_on_c, 0, 49, 41
1, 318449, Control_c, 0, 64, 99
1, 318465, Control_c, 0, 64, 77
1, 318476, Note_on_c, 0, 73, 53
1, 318480, Control_c, 0, 64, 63
1, 318495, Control_c, 0, 64, 55
1, 318509, Control_c, 0, 64, 57
1, 318524, Control_c, 0, 64, 62
1, 318539, Control_c, 0, 64, 68
1, 318553, Control_c, 0, 64, 80
1, 318568, Control_c, 0, 64, 90
1, 318582, Control_c, 0, 64, 96
1, 318597, Control_c, 0, 64, 101
1, 318612, Control_c, 0, 64, 107
1, 318627, Control_c, 0, 64, 116
1, 318642, Control_c, 0, 64, 127
1, 318683, Note_on_c, 0, 77, 61
1, 318733, Note_off_c, 0, 73, 59
1, 318739, Note_off_c, 0, 70, 38
1, 318758, Note_off_c, 0, 46, 32
1, 318779, Note_off_c, 0, 49, 34
1, 318794, Note_off_c, 0, 58, 58
1, 318860, Note_off_c, 0, 54, 33
1, 318916, Note_on_c, 0, 85, 51
1, 319161, Note_off_c, 0, 85, 53
1, 319175, Note_on_c, 0, 75, 53
1, 319187, Note_on_c, 0, 57, 35
1, 319205, Note_on_c, 0, 53, 28
1, 319222, Note_on_c, 0, 45, 32
1, 319224, Note_on_c, 0, 48, 27
1, 319272, Note_off_c, 0, 77, 14
1, 319273, Control_c, 0, 64, 108
1, 319287, Control_c, 0, 64, 82
1, 319303, Control_c, 0, 64, 66
1, 319318, Control_c, 0, 64, 57
1, 319332, Control_c, 0, 64, 58
1, 319347, Control_c, 0, 64, 63
1, 319362, Control_c, 0, 64, 71
1, 319377, Control_c, 0, 64, 82
1, 319379, Note_off_c, 0, 75, 60
1, 319387, Note_on_c, 0, 72, 48
1, 319392, Control_c, 0, 64, 92
1, 319406, Control_c, 0, 64, 99
1, 319421, Control_c, 0, 64, 108
1, 319436, Control_c, 0, 64, 127
1, 319476, Note_off_c, 0, 57, 41
1, 319477, Note_off_c, 0, 72, 58
1, 319519, Note_off_c, 0, 53, 52
1, 319558, Note_off_c, 0, 48, 50
1, 319579, Note_off_c, 0, 45, 51
1, 319583, Note_on_c, 0, 69, 46
1, 319808, Note_on_c, 0, 65, 24
1, 319818, Note_off_c, 0, 69, 60
1, 319855, Note_off_c, 0, 65, 47
1, 320035, Note_on_c, 0, 38, 36
1, 320045, Note_on_c, 0, 26, 34
1, 320140, Control_c, 0, 64, 117
1, 320154, Control_c, 0, 64, 88
1, 320169, Control_c, 0, 64, 70
1, 320184, Control_c, 0, 64, 57
1, 320199, Control_c, 0, 64, 53
1, 320214, Control_c, 0, 64, 54
1, 320228, Control_c, 0, 64, 59
1, 320240, Note_on_c, 0, 57, 42
1, 320243, Control_c, 0, 64, 65
1, 320258, Control_c, 0, 64, 72
1, 320273, Control_c, 0, 64, 82
1, 320287, Control_c, 0, 64, 92
1, 320302, Control_c, 0, 64, 101
1, 320317, Control_c, 0, 64, 116
1, 320328, Note_off_c, 0, 26, 39
1, 320332, Control_c, 0, 64, 127
1, 320369, Note_off_c, 0, 38, 49
1, 320441, Note_on_c, 0, 60, 42
1, 320519, Note_off_c, 0, 57, 52
1, 320630, Note_on_c, 0, 65, 50
1, 320636, Note_off_c, 0, 60, 53
1, 320683, Note_off_c, 0, 65, 60
1, 320872, Note_on_c, 0, 68, 45
1, 320874, Note_on_c, 0, 56, 37
1, 320881, Note_on_c, 0, 49, 43
1, 320889, Note_on_c, 0, 53, 39
1, 320900, Note_on_c, 0, 44, 36
1, 320992, Control_c, 0, 64, 91
1, 321007, Control_c, 0, 64, 71
1, 321022, Control_c, 0, 64, 58
1, 321037, Control_c, 0, 64, 49
1, 321051, Control_c, 0, 64, 45
1, 321081, Control_c, 0, 64, 46
1, 321096, Control_c, 0, 64, 47
1, 321110, Control_c, 0, 64, 48
1, 321125, Control_c, 0, 64, 51
1, 321140, Control_c, 0, 64, 57
1, 321155, Control_c, 0, 64, 64
1, 321157, Note_on_c, 0, 70, 43
1, 321170, Control_c, 0, 64, 69
1, 321184, Control_c, 0, 64, 75
1, 321199, Control_c, 0, 64, 82
1, 321214, Control_c, 0, 64, 90
1, 321237, Control_c, 0, 64, 103
1, 321252, Control_c, 0, 64, 127
1, 321375, Note_off_c, 0, 49, 60
1, 321390, Note_on_c, 0, 73, 46
1, 321409, Note_off_c, 0, 56, 56
1, 321426, Note_off_c, 0, 44, 35
1, 321469, Note_off_c, 0, 70, 37
1, 321506, Note_off_c, 0, 53, 26
1, 321605, Note_off_c, 0, 68, 33
1, 321609, Note_on_c, 0, 76, 52
1, 321625, Note_off_c, 0, 73, 51
1, 321896, Note_on_c, 0, 77, 48
1, 321917, Note_on_c, 0, 57, 29
1, 321923, Note_on_c, 0, 50, 28
1, 321924, Note_on_c, 0, 53, 9
1, 321937, Note_on_c, 0, 45, 20
1, 321956, Note_off_c, 0, 76, 38
1, 322074, Control_c, 0, 64, 118
1, 322089, Control_c, 0, 64, 86
1, 322104, Control_c, 0, 64, 67
1, 322119, Control_c, 0, 64, 51
1, 322133, Control_c, 0, 64, 46
1, 322148, Control_c, 0, 64, 48
1, 322150, Note_on_c, 0, 74, 47
1, 322163, Control_c, 0, 64, 56
1, 322178, Control_c, 0, 64, 64
1, 322193, Control_c, 0, 64, 72
1, 322207, Control_c, 0, 64, 81
1, 322222, Control_c, 0, 64, 93
1, 322237, Control_c, 0, 64, 103
1, 322251, Control_c, 0, 64, 127
1, 322317, Note_off_c, 0, 45, 50
1, 322365, Note_off_c, 0, 57, 41
1, 322369, Note_off_c, 0, 53, 52
1, 322371, Note_off_c, 0, 50, 40
1, 322372, Note_on_c, 0, 69, 41
1, 322575, Note_on_c, 0, 65, 48
1, 322615, Note_off_c, 0, 65, 64
1, 322668, Note_off_c, 0, 69, 57
1, 322677, Note_off_c, 0, 77, 38
1, 322745, Note_off_c, 0, 74, 41
1, 322782, Note_on_c, 0, 60, 41
1, 322986, Control_c, 0, 64, 111
1, 322988, Note_on_c, 0, 69, 62
1, 323001, Control_c, 0, 64, 92
1, 323016, Control_c, 0, 64, 77
1, 323030, Control_c, 0, 64, 63
1, 323046, Control_c, 0, 64, 40
1, 323061, Control_c, 0, 64, 0
1, 323149, Control_c, 0, 64, 30
1, 323164, Control_c, 0, 64, 42
1, 323171, Note_on_c, 0, 70, 58
1, 323179, Control_c, 0, 64, 56
1, 323194, Control_c, 0, 64, 69
1, 323209, Control_c, 0, 64, 81
1, 323223, Control_c, 0, 64, 102
1, 323238, Control_c, 0, 64, 127
1, 323251, Note_off_c, 0, 69, 61
1, 323364, Note_on_c, 0, 69, 67
1, 323398, Note_off_c, 0, 60, 64
1, 323499, Control_c, 0, 67, 122
1, 323513, Control_c, 0, 67, 119
1, 323528, Control_c, 0, 67, 117
1, 323543, Control_c, 0, 67, 110
1, 323558, Control_c, 0, 67, 94
1, 323565, Note_on_c, 0, 85, 85
1, 323573, Control_c, 0, 67, 80
1, 323587, Control_c, 0, 67, 77
1, 323598, Note_on_c, 0, 61, 51
1, 323602, Control_c, 0, 67, 77
1, 323604, Note_on_c, 0, 73, 23
1, 323647, Control_c, 0, 67, 76
1, 323657, Note_off_c, 0, 69, 56
1, 323661, Control_c, 0, 64, 108
1, 323664, Note_off_c, 0, 70, 43
1, 323676, Control_c, 0, 64, 79
1, 323691, Control_c, 0, 64, 63
1, 323691, Control_c, 0, 67, 75
1, 323692, Note_off_c, 0, 73, 0
1, 323706, Control_c, 0, 64, 53
1, 323706, Control_c, 0, 67, 74
1, 323721, Control_c, 0, 64, 51
1, 323721, Control_c, 0, 67, 72
1, 323729, Poly_aftertouch_c, 0, 73, 127
1, 323736, Control_c, 0, 64, 54
1, 323751, Control_c, 0, 64, 62
1, 323757, Note_on_c, 0, 77, 53
1, 323766, Control_c, 0, 64, 67
1, 323766, Control_c, 0, 67, 71
1, 323778, Note_on_c, 0, 69, 57
1, 323780, Control_c, 0, 64, 73
1, 323780, Control_c, 0, 67, 69
1, 323795, Control_c, 0, 64, 79
1, 323795, Control_c, 0, 67, 60
1, 323810, Control_c, 0, 64, 84
1, 323810, Control_c, 0, 67, 41
1, 323825, Control_c, 0, 64, 90
1, 323825, Control_c, 0, 67, 0
1, 323839, Control_c, 0, 64, 99
1, 323854, Control_c, 0, 64, 116
1, 323869, Control_c, 0, 64, 127
1, 323942, Note_on_c, 0, 81, 71
1, 323957, Note_on_c, 0, 71, 61
1, 323982, Note_off_c, 0, 77, 57
1, 324031, Poly_aftertouch_c, 0, 73, 0
1, 324034, Note_off_c, 0, 69, 59
1, 324044, Note_off_c, 0, 61, 62
1, 324083, Note_off_c, 0, 85, 58
1, 324114, Note_on_c, 0, 77, 49
1, 324129, Note_off_c, 0, 71, 36
1, 324150, Note_on_c, 0, 69, 55
1, 324305, Note_on_c, 0, 86, 88
1, 324318, Note_on_c, 0, 62, 58
1, 324329, Note_on_c, 0, 74, 48
1, 324338, Note_off_c, 0, 77, 60
1, 324358, Note_off_c, 0, 81, 61
1, 324377, Note_off_c, 0, 69, 57
1, 324380, Note_off_c, 0, 74, 0
1, 324380, Note_on_c, 0, 74, 20
1, 324381, Control_c, 0, 64, 100
1, 324396, Control_c, 0, 64, 75
1, 324410, Control_c, 0, 64, 57
1, 324425, Control_c, 0, 64, 37
1, 324440, Control_c, 0, 64, 30
1, 324454, Control_c, 0, 64, 33
1, 324469, Control_c, 0, 64, 45
1, 324484, Control_c, 0, 64, 57
1, 324490, Note_on_c, 0, 69, 62
1, 324499, Control_c, 0, 64, 64
1, 324514, Control_c, 0, 64, 70
1, 324514, Control_c, 0, 67, 34
1, 324515, Note_on_c, 0, 77, 48
1, 324529, Control_c, 0, 64, 77
1, 324529, Control_c, 0, 67, 39
1, 324543, Control_c, 0, 64, 86
1, 324543, Control_c, 0, 67, 38
1, 324558, Control_c, 0, 64, 96
1, 324573, Control_c, 0, 64, 112
1, 324573, Control_c, 0, 67, 41
1, 324588, Control_c, 0, 64, 127
1, 324588, Control_c, 0, 67, 45
1, 324602, Control_c, 0, 67, 52
1, 324617, Control_c, 0, 67, 55
1, 324632, Control_c, 0, 67, 57
1, 324647, Control_c, 0, 67, 59
1, 324661, Control_c, 0, 67, 67
1, 324676, Control_c, 0, 67, 88
1, 324691, Control_c, 0, 67, 108
1, 324706, Control_c, 0, 67, 119
1, 324709, Note_on_c, 0, 81, 57
1, 324711, Note_on_c, 0, 72, 44
1, 324720, Control_c, 0, 67, 125
1, 324731, Note_off_c, 0, 77, 48
1, 324735, Control_c, 0, 67, 127
1, 324770, Note_off_c, 0, 86, 60
1, 324788, Note_off_c, 0, 69, 38
1, 324870, Note_off_c, 0, 62, 62
1, 324905, Note_on_c, 0, 69, 46
1, 324906, Note_on_c, 0, 77, 62
1, 324928, Note_off_c, 0, 74, 51
1, 324945, Note_off_c, 0, 72, 37
1, 325156, Note_on_c, 0, 87, 75
1, 325160, Note_on_c, 0, 63, 60
1, 325188, Note_off_c, 0, 77, 40
1, 325238, Note_off_c, 0, 81, 62
1, 325241, Poly_aftertouch_c, 0, 75, 127
1, 325247, Control_c, 0, 64, 109
1, 325262, Control_c, 0, 64, 94
1, 325277, Control_c, 0, 64, 78
1, 325292, Control_c, 0, 64, 66
1, 325297, Note_off_c, 0, 69, 37
1, 325307, Control_c, 0, 64, 56
1, 325322, Control_c, 0, 64, 49
1, 325337, Control_c, 0, 64, 46
1, 325351, Control_c, 0, 64, 45
1, 325381, Control_c, 0, 64, 46
1, 325396, Control_c, 0, 64, 51
1, 325411, Control_c, 0, 64, 58
1, 325418, Note_on_c, 0, 69, 42
1, 325425, Control_c, 0, 64, 64
1, 325428, Note_on_c, 0, 77, 41
1, 325440, Control_c, 0, 64, 72
1, 325455, Control_c, 0, 64, 79
1, 325459, Poly_aftertouch_c, 0, 75, 0
1, 325470, Control_c, 0, 64, 82
1, 325484, Control_c, 0, 64, 84
1, 325496, Poly_aftertouch_c, 0, 75, 127
1, 325499, Control_c, 0, 64, 86
1, 325514, Control_c, 0, 64, 89
1, 325529, Control_c, 0, 64, 94
1, 325544, Control_c, 0, 64, 99
1, 325558, Control_c, 0, 64, 104
1, 325573, Control_c, 0, 64, 108
1, 325588, Control_c, 0, 64, 114
1, 325599, Poly_aftertouch_c, 0, 75, 0
1, 325603, Control_c, 0, 64, 127
1, 325656, Note_on_c, 0, 81, 47
1, 325656, Note_on_c, 0, 73, 39
1, 325683, Note_off_c, 0, 77, 37
1, 325750, Note_off_c, 0, 87, 41
1, 325754, Poly_aftertouch_c, 0, 75, 127
1, 325766, Note_off_c, 0, 69, 34
1, 325835, Note_off_c, 0, 73, 36
1, 325864, Poly_aftertouch_c, 0, 75, 0
1, 325877, Note_on_c, 0, 77, 54
1, 325884, Note_on_c, 0, 69, 49
1, 325954, Note_off_c, 0, 81, 27
1, 325959, Note_off_c, 0, 63, 32
1, 326121, Note_on_c, 0, 86, 62
1, 326128, Note_on_c, 0, 62, 44
1, 326155, Note_off_c, 0, 77, 34
1, 326168, Note_on_c, 0, 74, 27
1, 326174, Control_c, 0, 64, 113
1, 326189, Control_c, 0, 64, 96
1, 326204, Control_c, 0, 64, 79
1, 326210, Note_off_c, 0, 69, 42
1, 326219, Control_c, 0, 64, 67
1, 326234, Control_c, 0, 64, 58
1, 326249, Control_c, 0, 64, 52
1, 326264, Control_c, 0, 64, 51
1, 326293, Control_c, 0, 64, 53
1, 326308, Control_c, 0, 64, 57
1, 326323, Control_c, 0, 64, 61
1, 326338, Control_c, 0, 64, 64
1, 326350, Note_on_c, 0, 69, 36
1, 326353, Control_c, 0, 64, 69
1, 326358, Note_on_c, 0, 77, 47
1, 326368, Control_c, 0, 64, 76
1, 326382, Control_c, 0, 64, 83
1, 326397, Control_c, 0, 64, 87
1, 326412, Control_c, 0, 64, 92
1, 326426, Control_c, 0, 64, 96
1, 326443, Control_c, 0, 64, 100
1, 326457, Control_c, 0, 64, 103
1, 326479, Control_c, 0, 64, 106
1, 326494, Control_c, 0, 64, 110
1, 326509, Control_c, 0, 64, 115
1, 326524, Control_c, 0, 64, 127
1, 326597, Note_on_c, 0, 72, 44
1, 326602, Note_off_c, 0, 86, 51
1, 326618, Note_on_c, 0, 81, 43
1, 326637, Note_off_c, 0, 77, 48
1, 326642, Note_off_c, 0, 69, 45
1, 326847, Note_on_c, 0, 69, 44
1, 326854, Note_off_c, 0, 74, 32
1, 326863, Note_off_c, 0, 62, 62
1, 326869, Note_on_c, 0, 77, 33
1, 326889, Note_off_c, 0, 81, 44
1, 327016, Note_off_c, 0, 72, 25
1, 327145, Note_on_c, 0, 85, 53
1, 327166, Note_on_c, 0, 61, 38
1, 327237, Poly_aftertouch_c, 0, 73, 127
1, 327258, Control_c, 0, 64, 107
1, 327262, Note_off_c, 0, 77, 42
1, 327273, Control_c, 0, 64, 94
1, 327277, Note_off_c, 0, 69, 37
1, 327287, Control_c, 0, 64, 83
1, 327302, Control_c, 0, 64, 71
1, 327317, Control_c, 0, 64, 61
1, 327332, Control_c, 0, 64, 50
1, 327347, Control_c, 0, 64, 44
1, 327361, Control_c, 0, 64, 42
1, 327391, Control_c, 0, 64, 44
1, 327406, Control_c, 0, 64, 47
1, 327420, Control_c, 0, 64, 53
1, 327435, Control_c, 0, 64, 59
1, 327450, Control_c, 0, 64, 63
1, 327465, Note_on_c, 0, 77, 36
1, 327465, Control_c, 0, 64, 66
1, 327480, Control_c, 0, 64, 72
1, 327487, Note_on_c, 0, 69, 10
1, 327495, Control_c, 0, 64, 79
1, 327510, Control_c, 0, 64, 83
1, 327525, Control_c, 0, 64, 86
1, 327539, Control_c, 0, 64, 89
1, 327554, Control_c, 0, 64, 95
1, 327569, Control_c, 0, 64, 102
1, 327584, Control_c, 0, 64, 112
1, 327599, Control_c, 0, 64, 127
1, 327784, Note_on_c, 0, 81, 41
1, 327805, Note_on_c, 0, 71, 27
1, 327830, Note_off_c, 0, 77, 45
1, 327869, Note_off_c, 0, 69, 43
1, 327922, Poly_aftertouch_c, 0, 73, 0
1, 328217, Note_on_c, 0, 77, 39
1, 328226, Note_on_c, 0, 69, 38
1, 328315, Note_off_c, 0, 71, 40
1, 328317, Note_off_c, 0, 69, 56
1, 328364, Note_off_c, 0, 61, 59
1, 328365, Note_off_c, 0, 81, 39
1, 328375, Note_off_c, 0, 77, 38
1, 328508, Note_off_c, 0, 85, 35
1, 328828, Note_on_c, 0, 69, 60
1, 328831, Note_on_c, 0, 77, 47
1, 328833, Note_on_c, 0, 62, 53
1, 328838, Note_on_c, 0, 74, 50
1, 328845, Note_on_c, 0, 65, 33
1, 328856, Note_off_c, 0, 77, 57
1, 328858, Note_off_c, 0, 62, 60
1, 328858, Note_off_c, 0, 69, 66
1, 328863, Note_off_c, 0, 74, 57
1, 328873, Control_c, 0, 64, 78
1, 328879, Note_off_c, 0, 65, 52
1, 328888, Control_c, 0, 64, 55
1, 328903, Control_c, 0, 64, 0
1, 329234, Note_on_c, 0, 74, 65
1, 329241, Note_on_c, 0, 65, 47
1, 329241, Note_on_c, 0, 69, 50
1, 329242, Note_on_c, 0, 77, 52
1, 329251, Note_on_c, 0, 62, 33
1, 329270, Note_off_c, 0, 65, 57
1, 329270, Note_off_c, 0, 69, 59
1, 329276, Note_off_c, 0, 77, 59
1, 329285, Note_off_c, 0, 62, 47
1, 329300, Note_off_c, 0, 74, 61
1, 329328, Note_on_c, 0, 68, 60
1, 329353, Note_off_c, 0, 68, 64
1, 329388, Note_on_c, 0, 57, 59
1, 329415, Note_off_c, 0, 57, 64
1, 329419, Note_on_c, 0, 69, 9
1, 329476, Note_off_c, 0, 69, 41
1, 329483, Note_on_c, 0, 70, 56
1, 329514, Note_off_c, 0, 70, 64
1, 329551, Note_on_c, 0, 69, 67
1, 329552, Note_on_c, 0, 77, 68
1, 329553, Note_on_c, 0, 62, 67
1, 329554, Note_on_c, 0, 74, 67
1, 329558, Note_on_c, 0, 65, 53
1, 329575, Note_off_c, 0, 69, 70
1, 329575, Note_off_c, 0, 62, 65
1, 329576, Note_off_c, 0, 77, 70
1, 329580, Note_off_c, 0, 65, 60
1, 329581, Note_off_c, 0, 74, 65
1, 329882, Note_on_c, 0, 65, 48
1, 329886, Note_on_c, 0, 62, 44
1, 329886, Note_on_c, 0, 69, 51
1, 329891, Note_on_c, 0, 74, 61
1, 329897, Note_on_c, 0, 77, 47
1, 329909, Note_off_c, 0, 65, 56
1, 329912, Note_off_c, 0, 69, 59
1, 329913, Note_off_c, 0, 62, 59
1, 329933, Note_off_c, 0, 74, 59
1, 329936, Note_off_c, 0, 77, 55
1, 329972, Note_on_c, 0, 68, 60
1, 330000, Note_off_c, 0, 68, 64
1, 330040, Note_on_c, 0, 69, 53
1, 330058, Note_on_c, 0, 57, 18
1, 330079, Note_off_c, 0, 69, 61
1, 330100, Note_off_c, 0, 57, 29
1, 330111, Note_on_c, 0, 70, 52
1, 330138, Note_off_c, 0, 70, 61
1, 330173, Note_on_c, 0, 77, 68
1, 330178, Note_on_c, 0, 74, 67
1, 330183, Note_on_c, 0, 62, 58
1, 330189, Note_on_c, 0, 65, 40
1, 330202, Note_on_c, 0, 69, 43
1, 330226, Note_off_c, 0, 65, 52
1, 330237, Note_off_c, 0, 62, 58
1, 330237, Note_off_c, 0, 69, 56
1, 330246, Note_on_c, 0, 70, 71
1, 330249, Note_off_c, 0, 77, 61
1, 330253, Note_off_c, 0, 74, 62
1, 330279, Note_off_c, 0, 70, 66
1, 330331, Note_on_c, 0, 64, 59
1, 330334, Note_on_c, 0, 73, 76
1, 330336, Note_on_c, 0, 76, 72
1, 330347, Note_on_c, 0, 68, 46
1, 330348, Note_on_c, 0, 57, 7
1, 330361, Note_off_c, 0, 64, 66
1, 330371, Note_off_c, 0, 76, 62
1, 330371, Note_off_c, 0, 68, 59
1, 330381, Note_off_c, 0, 73, 62
1, 330402, Note_off_c, 0, 57, 26
1, 330413, Note_on_c, 0, 69, 69
1, 330437, Note_off_c, 0, 69, 70
1, 330467, Note_on_c, 0, 68, 67
1, 330470, Note_on_c, 0, 62, 65
1, 330479, Note_on_c, 0, 65, 60
1, 330479, Note_on_c, 0, 77, 73
1, 330482, Note_on_c, 0, 74, 73
1, 330505, Note_off_c, 0, 74, 70
1, 330507, Note_off_c, 0, 65, 65
1, 330508, Note_off_c, 0, 77, 61
1, 330509, Note_off_c, 0, 62, 62
1, 330522, Note_off_c, 0, 68, 63
1, 330559, Note_on_c, 0, 69, 64
1, 330586, Note_off_c, 0, 69, 68
1, 330624, Control_c, 0, 67, 124
1, 330638, Control_c, 0, 67, 122
1, 330644, Note_on_c, 0, 69, 62
1, 330653, Control_c, 0, 67, 118
1, 330663, Note_off_c, 0, 69, 64
1, 330668, Control_c, 0, 67, 109
1, 330683, Control_c, 0, 67, 103
1, 330721, Note_on_c, 0, 69, 66
1, 330739, Note_off_c, 0, 69, 66
1, 330771, Control_c, 0, 67, 106
1, 330787, Note_on_c, 0, 57, 55
1, 330787, Note_on_c, 0, 73, 68
1, 330787, Note_on_c, 0, 76, 73
1, 330789, Note_on_c, 0, 64, 58
1, 330810, Note_off_c, 0, 57, 58
1, 330810, Note_off_c, 0, 73, 65
1, 330810, Note_on_c, 0, 69, 38
1, 330811, Note_off_c, 0, 64, 63
1, 330812, Note_off_c, 0, 76, 68
1, 330839, Note_off_c, 0, 69, 56
1, 330845, Control_c, 0, 67, 111
1, 330860, Control_c, 0, 67, 113
1, 330920, Control_c, 0, 67, 117
1, 330971, Control_c, 0, 67, 115
1, 331001, Control_c, 0, 67, 117
1, 331075, Control_c, 0, 67, 119
1, 331090, Control_c, 0, 67, 121
1, 331111, Note_on_c, 0, 68, 67
1, 331134, Control_c, 0, 67, 124
1, 331149, Note_off_c, 0, 68, 64
1, 331149, Control_c, 0, 67, 127
1, 331182, Note_on_c, 0, 69, 67
1, 331208, Note_off_c, 0, 69, 69
1, 331263, Note_on_c, 0, 69, 59
1, 331283, Note_off_c, 0, 69, 65
1, 331339, Note_on_c, 0, 69, 65
1, 331366, Note_off_c, 0, 69, 66
1, 331390, Note_on_c, 0, 73, 75
1, 331397, Note_on_c, 0, 57, 66
1, 331397, Note_on_c, 0, 64, 69
1, 331397, Note_on_c, 0, 76, 67
1, 331412, Note_on_c, 0, 69, 60
1, 331414, Note_off_c, 0, 73, 67
1, 331422, Note_off_c, 0, 76, 68
1, 331424, Note_off_c, 0, 64, 68
1, 331426, Note_off_c, 0, 57, 66
1, 331434, Note_off_c, 0, 69, 61
1, 331580, Note_on_c, 0, 68, 68
1, 331588, Note_on_c, 0, 64, 49
1, 331608, Note_off_c, 0, 68, 65
1, 331619, Note_off_c, 0, 64, 61
1, 331656, Note_on_c, 0, 65, 63
1, 331656, Note_on_c, 0, 69, 65
1, 331682, Note_off_c, 0, 69, 69
1, 331684, Note_off_c, 0, 65, 66
1, 331730, Note_on_c, 0, 66, 73
1, 331730, Note_on_c, 0, 70, 63
1, 331757, Note_off_c, 0, 70, 68
1, 331760, Note_off_c, 0, 66, 64
1, 331786, Note_on_c, 0, 71, 73
1, 331808, Note_off_c, 0, 71, 66
1, 331814, Note_on_c, 0, 69, 45
1, 331816, Note_on_c, 0, 67, 36
1, 331840, Note_off_c, 0, 69, 57
1, 331847, Note_off_c, 0, 67, 50
1, 331859, Note_on_c, 0, 72, 78
1, 331868, Note_on_c, 0, 68, 77
1, 331884, Note_off_c, 0, 72, 64
1, 331909, Note_off_c, 0, 68, 63
1, 331934, Note_on_c, 0, 73, 81
1, 331959, Note_off_c, 0, 73, 65
1, 331986, Note_on_c, 0, 69, 86
1, 331989, Note_on_c, 0, 77, 92
1, 331990, Note_on_c, 0, 74, 86
1, 331994, Note_on_c, 0, 62, 82
1, 332008, Note_off_c, 0, 69, 65
1, 332008, Note_off_c, 0, 74, 74
1, 332017, Note_off_c, 0, 62, 70
1, 332020, Note_off_c, 0, 77, 66
1, 332361, Note_on_c, 0, 65, 52
1, 332369, Note_on_c, 0, 77, 57
1, 332370, Note_on_c, 0, 62, 39
1, 332372, Note_on_c, 0, 69, 41
1, 332377, Note_on_c, 0, 74, 56
1, 332383, Note_off_c, 0, 65, 59
1, 332399, Note_off_c, 0, 62, 51
1, 332400, Note_off_c, 0, 69, 54
1, 332401, Note_off_c, 0, 74, 62
1, 332407, Note_off_c, 0, 77, 61
1, 332439, Note_on_c, 0, 68, 68
1, 332471, Note_off_c, 0, 68, 69
1, 332520, Note_on_c, 0, 57, 64
1, 332522, Note_on_c, 0, 69, 57
1, 332545, Note_off_c, 0, 57, 66
1, 332550, Note_off_c, 0, 69, 66
1, 332599, Note_on_c, 0, 70, 60
1, 332628, Note_off_c, 0, 70, 68
1, 332670, Note_on_c, 0, 74, 70
1, 332671, Note_on_c, 0, 77, 63
1, 332676, Note_on_c, 0, 69, 70
1, 332676, Note_on_c, 0, 62, 74
1, 332677, Note_on_c, 0, 65, 67
1, 332695, Note_off_c, 0, 74, 69
1, 332696, Note_off_c, 0, 65, 66
1, 332698, Note_off_c, 0, 77, 68
1, 332699, Note_off_c, 0, 69, 69
1, 332702, Note_off_c, 0, 62, 67
1, 332985, Note_on_c, 0, 74, 63
1, 332987, Note_on_c, 0, 65, 51
1, 332994, Note_on_c, 0, 69, 54
1, 332995, Note_on_c, 0, 77, 46
1, 332997, Note_on_c, 0, 62, 41
1, 333010, Note_off_c, 0, 65, 59
1, 333017, Note_off_c, 0, 69, 62
1, 333025, Note_off_c, 0, 62, 52
1, 333025, Note_off_c, 0, 74, 62
1, 333027, Note_off_c, 0, 77, 54
1, 333069, Note_on_c, 0, 68, 58
1, 333088, Note_off_c, 0, 68, 63
1, 333134, Note_on_c, 0, 69, 54
1, 333143, Note_on_c, 0, 57, 46
1, 333169, Note_off_c, 0, 57, 52
1, 333171, Note_off_c, 0, 69, 62
1, 333233, Note_on_c, 0, 70, 39
1, 333261, Note_off_c, 0, 70, 56
1, 333278, Note_on_c, 0, 65, 62
1, 333281, Note_on_c, 0, 77, 69
1, 333282, Note_on_c, 0, 74, 67
1, 333284, Note_on_c, 0, 62, 59
1, 333284, Note_on_c, 0, 69, 58
1, 333311, Note_off_c, 0, 65, 62
1, 333316, Note_off_c, 0, 69, 64
1, 333323, Note_off_c, 0, 62, 59
1, 333344, Note_on_c, 0, 70, 70
1, 333350, Note_off_c, 0, 77, 60
1, 333352, Note_off_c, 0, 74, 62
1, 333377, Note_off_c, 0, 70, 66
1, 333409, Control_c, 0, 67, 122
1, 333424, Control_c, 0, 67, 119
1, 333428, Note_on_c, 0, 73, 80
1, 333433, Note_on_c, 0, 76, 72
1, 333434, Note_on_c, 0, 64, 58
1, 333439, Control_c, 0, 67, 108
1, 333442, Note_on_c, 0, 68, 46
1, 333452, Note_on_c, 0, 62, 32
1, 333454, Control_c, 0, 67, 88
1, 333462, Note_off_c, 0, 64, 66
1, 333468, Note_off_c, 0, 68, 57
1, 333469, Control_c, 0, 67, 62
1, 333480, Note_off_c, 0, 76, 56
1, 333484, Control_c, 0, 67, 40
1, 333486, Note_off_c, 0, 62, 53
1, 333487, Note_off_c, 0, 73, 62
1, 333498, Control_c, 0, 67, 0
1, 333505, Note_on_c, 0, 69, 76
1, 333540, Note_off_c, 0, 69, 60
1, 333558, Note_on_c, 0, 55, 80
1, 333558, Note_on_c, 0, 66, 84
1, 333573, Note_on_c, 0, 74, 82
1, 333575, Note_on_c, 0, 62, 44
1, 333576, Note_on_c, 0, 77, 72
1, 333598, Note_off_c, 0, 74, 65
1, 333599, Note_off_c, 0, 55, 64
1, 333605, Note_off_c, 0, 62, 53
1, 333606, Note_off_c, 0, 77, 62
1, 333624, Note_on_c, 0, 67, 84
1, 333629, Note_off_c, 0, 66, 66
1, 333656, Note_off_c, 0, 67, 64
1, 333719, Note_on_c, 0, 67, 73
1, 333741, Note_off_c, 0, 67, 71
1, 333798, Note_on_c, 0, 67, 72
1, 333821, Note_off_c, 0, 67, 70
1, 333865, Note_on_c, 0, 76, 79
1, 333866, Note_on_c, 0, 60, 61
1, 333869, Note_on_c, 0, 64, 64
1, 333869, Note_on_c, 0, 72, 71
1, 333892, Note_off_c, 0, 72, 69
1, 333894, Note_off_c, 0, 60, 67
1, 333895, Note_off_c, 0, 76, 62
1, 333896, Note_off_c, 0, 64, 65
1, 333903, Note_on_c, 0, 67, 23
1, 333942, Note_off_c, 0, 67, 30
1, 334173, Control_c, 0, 67, 37
1, 334188, Control_c, 0, 67, 64
1, 334201, Note_on_c, 0, 66, 76
1, 334203, Control_c, 0, 67, 69
1, 334218, Control_c, 0, 67, 71
1, 334232, Control_c, 0, 67, 78
1, 334238, Note_off_c, 0, 66, 63
1, 334247, Control_c, 0, 67, 101
1, 334262, Control_c, 0, 67, 127
1, 334267, Note_on_c, 0, 67, 76
1, 334288, Note_off_c, 0, 67, 70
1, 334356, Note_on_c, 0, 67, 65
1, 334381, Note_off_c, 0, 67, 64
1, 334422, Note_on_c, 0, 67, 75
1, 334447, Note_off_c, 0, 67, 69
1, 334494, Note_on_c, 0, 64, 68
1, 334494, Note_on_c, 0, 76, 76
1, 334498, Note_on_c, 0, 60, 59
1, 334507, Note_on_c, 0, 72, 57
1, 334517, Note_on_c, 0, 67, 42
1, 334518, Note_off_c, 0, 60, 64
1, 334520, Note_off_c, 0, 64, 65
1, 334527, Note_off_c, 0, 72, 61
1, 334530, Note_off_c, 0, 76, 65
1, 334545, Note_off_c, 0, 67, 56
1, 334662, Note_on_c, 0, 71, 71
1, 334665, Note_on_c, 0, 67, 62
1, 334697, Note_off_c, 0, 67, 63
1, 334712, Note_off_c, 0, 71, 56
1, 334739, Note_on_c, 0, 72, 62
1, 334750, Note_on_c, 0, 68, 69
1, 334781, Note_off_c, 0, 72, 62
1, 334786, Note_off_c, 0, 68, 64
1, 334801, Note_on_c, 0, 73, 57
1, 334822, Note_off_c, 0, 73, 65
1, 334826, Note_on_c, 0, 69, 64
1, 334859, Note_on_c, 0, 74, 73
1, 334859, Note_off_c, 0, 69, 56
1, 334887, Note_on_c, 0, 70, 80
1, 334894, Note_off_c, 0, 74, 53
1, 334923, Note_on_c, 0, 75, 66
1, 334927, Note_off_c, 0, 70, 65
1, 334991, Note_off_c, 0, 75, 64
1, 334994, Note_on_c, 0, 76, 70
1, 334995, Note_on_c, 0, 73, 68
1, 335044, Note_off_c, 0, 73, 54
1, 335077, Note_on_c, 0, 69, 85
1, 335078, Note_on_c, 0, 65, 81
1, 335079, Note_off_c, 0, 76, 65
1, 335081, Note_on_c, 0, 72, 68
1, 335084, Note_on_c, 0, 77, 66
1, 335090, Note_on_c, 0, 79, 57
1, 335097, Note_off_c, 0, 65, 72
1, 335097, Note_off_c, 0, 69, 68
1, 335097, Note_off_c, 0, 72, 67
1, 335108, Note_off_c, 0, 77, 70
1, 335108, Note_off_c, 0, 79, 64
1, 335415, Note_on_c, 0, 77, 68
1, 335419, Note_on_c, 0, 65, 62
1, 335424, Note_on_c, 0, 72, 61
1, 335425, Note_on_c, 0, 69, 65
1, 335448, Note_off_c, 0, 65, 64
1, 335459, Note_off_c, 0, 69, 68
1, 335469, Note_off_c, 0, 72, 59
1, 335491, Note_off_c, 0, 77, 61
1, 335507, Note_on_c, 0, 68, 60
1, 335525, Note_off_c, 0, 68, 64
1, 335582, Note_on_c, 0, 69, 72
1, 335588, Note_on_c, 0, 64, 59
1, 335591, Note_on_c, 0, 60, 59
1, 335609, Note_off_c, 0, 69, 64
1, 335612, Note_off_c, 0, 64, 65
1, 335616, Note_off_c, 0, 60, 65
1, 335645, Note_on_c, 0, 70, 61
1, 335672, Note_off_c, 0, 70, 67
1, 335725, Note_on_c, 0, 72, 68
1, 335727, Note_on_c, 0, 77, 72
1, 335734, Note_on_c, 0, 65, 79
1, 335739, Note_on_c, 0, 69, 74
1, 335748, Note_off_c, 0, 72, 68
1, 335754, Note_off_c, 0, 77, 65
1, 335755, Note_off_c, 0, 65, 70
1, 335760, Note_off_c, 0, 69, 71
1, 336035, Note_on_c, 0, 65, 64
1, 336041, Note_on_c, 0, 72, 59
1, 336043, Note_on_c, 0, 69, 62
1, 336043, Note_on_c, 0, 77, 57
1, 336062, Note_off_c, 0, 65, 67
1, 336074, Note_off_c, 0, 69, 64
1, 336081, Note_off_c, 0, 72, 61
1, 336095, Note_off_c, 0, 77, 54
1, 336120, Note_on_c, 0, 68, 59
1, 336139, Note_off_c, 0, 68, 65
1, 336190, Note_on_c, 0, 64, 57
1, 336191, Note_on_c, 0, 60, 57
1, 336193, Note_on_c, 0, 69, 63
1, 336231, Note_off_c, 0, 64, 65
1, 336232, Note_off_c, 0, 60, 65
1, 336235, Note_off_c, 0, 69, 58
1, 336257, Note_on_c, 0, 70, 60
1, 336286, Note_off_c, 0, 70, 67
1, 336324, Note_on_c, 0, 77, 65
1, 336336, Note_on_c, 0, 72, 61
1, 336342, Note_on_c, 0, 65, 72
1, 336347, Note_on_c, 0, 69, 67
1, 336373, Note_off_c, 0, 65, 62
1, 336376, Note_off_c, 0, 69, 63
1, 336396, Note_off_c, 0, 72, 59
1, 336399, Note_off_c, 0, 77, 60
1, 336401, Note_on_c, 0, 68, 76
1, 336429, Note_off_c, 0, 68, 65
1, 336483, Note_on_c, 0, 60, 67
1, 336489, Note_on_c, 0, 76, 67
1, 336491, Note_on_c, 0, 72, 75
1, 336510, Note_off_c, 0, 60, 65
1, 336517, Note_off_c, 0, 76, 67
1, 336526, Note_off_c, 0, 72, 60
1, 336539, Note_on_c, 0, 67, 68
1, 336572, Note_off_c, 0, 67, 57
1, 336595, Note_on_c, 0, 68, 85
1, 336597, Note_on_c, 0, 72, 76
1, 336602, Note_on_c, 0, 65, 72
1, 336603, Note_on_c, 0, 77, 80
1, 336622, Note_off_c, 0, 72, 65
1, 336624, Note_on_c, 0, 74, 39
1, 336628, Note_off_c, 0, 65, 65
1, 336637, Note_off_c, 0, 68, 66
1, 336637, Note_off_c, 0, 77, 62
1, 336642, Control_c, 0, 67, 123
1, 336651, Note_off_c, 0, 74, 56
1, 336657, Control_c, 0, 67, 105
1, 336664, Note_on_c, 0, 69, 87
1, 336672, Control_c, 0, 67, 74
1, 336687, Control_c, 0, 67, 40
1, 336691, Note_off_c, 0, 69, 65
1, 336702, Control_c, 0, 67, 0
1, 336753, Note_on_c, 0, 69, 78
1, 336779, Note_off_c, 0, 69, 64
1, 336825, Note_on_c, 0, 69, 80
1, 336861, Note_off_c, 0, 69, 65
1, 336891, Note_on_c, 0, 76, 91
1, 336892, Note_on_c, 0, 64, 88
1, 336893, Note_on_c, 0, 72, 82
1, 336895, Note_on_c, 0, 69, 68
1, 336897, Note_on_c, 0, 60, 76
1, 336911, Note_off_c, 0, 72, 72
1, 336914, Note_off_c, 0, 64, 69
1, 336915, Note_off_c, 0, 69, 72
1, 336919, Note_off_c, 0, 60, 65
1, 336920, Note_off_c, 0, 76, 66
1, 337139, Control_c, 0, 67, 57
1, 337154, Control_c, 0, 67, 75
1, 337169, Control_c, 0, 67, 78
1, 337198, Control_c, 0, 67, 79
1, 337213, Control_c, 0, 67, 85
1, 337220, Note_on_c, 0, 68, 71
1, 337228, Control_c, 0, 67, 113
1, 337243, Control_c, 0, 67, 127
1, 337272, Note_off_c, 0, 68, 61
1, 337287, Note_on_c, 0, 69, 72
1, 337311, Note_off_c, 0, 69, 70
1, 337366, Note_on_c, 0, 69, 69
1, 337391, Note_off_c, 0, 69, 68
1, 337436, Note_on_c, 0, 69, 65
1, 337463, Note_off_c, 0, 69, 66
1, 337515, Note_on_c, 0, 76, 66
1, 337517, Note_on_c, 0, 69, 75
1, 337518, Note_on_c, 0, 64, 65
1, 337520, Note_on_c, 0, 60, 64
1, 337529, Note_on_c, 0, 72, 43
1, 337540, Note_off_c, 0, 76, 67
1, 337541, Note_off_c, 0, 69, 66
1, 337546, Note_off_c, 0, 64, 66
1, 337547, Note_off_c, 0, 60, 67
1, 337556, Note_off_c, 0, 72, 54
1, 337843, Note_on_c, 0, 76, 67
1, 337865, Note_on_c, 0, 69, 60
1, 337868, Note_on_c, 0, 61, 55
1, 337868, Note_on_c, 0, 66, 45
1, 337877, Note_off_c, 0, 76, 62
1, 337908, Note_off_c, 0, 66, 64
1, 337914, Note_off_c, 0, 61, 58
1, 337925, Note_off_c, 0, 69, 53
1, 337946, Note_on_c, 0, 70, 74
1, 337968, Note_off_c, 0, 70, 71
1, 338051, Note_on_c, 0, 70, 69
1, 338077, Note_off_c, 0, 70, 67
1, 338175, Note_on_c, 0, 70, 43
1, 338202, Note_off_c, 0, 70, 56
1, 338282, Note_on_c, 0, 77, 63
1, 338289, Note_on_c, 0, 69, 68
1, 338289, Note_on_c, 0, 74, 53
1, 338295, Note_on_c, 0, 62, 52
1, 338295, Note_on_c, 0, 65, 56
1, 338308, Note_off_c, 0, 77, 68
1, 338311, Note_off_c, 0, 74, 59
1, 338312, Note_off_c, 0, 69, 70
1, 338317, Note_off_c, 0, 65, 60
1, 338320, Note_off_c, 0, 62, 59
1, 338626, Note_on_c, 0, 62, 60
1, 338627, Note_on_c, 0, 74, 55
1, 338628, Note_on_c, 0, 77, 45
1, 338628, Note_on_c, 0, 69, 59
1, 338630, Note_on_c, 0, 65, 45
1, 338655, Note_off_c, 0, 69, 65
1, 338657, Note_off_c, 0, 62, 64
1, 338658, Note_off_c, 0, 65, 55
1, 338662, Note_off_c, 0, 74, 64
1, 338664, Note_off_c, 0, 77, 52
1, 338699, Note_on_c, 0, 68, 59
1, 338718, Note_off_c, 0, 68, 65
1, 338786, Note_on_c, 0, 69, 58
1, 338786, Note_on_c, 0, 57, 63
1, 338815, Note_off_c, 0, 57, 65
1, 338819, Note_off_c, 0, 69, 63
1, 338847, Note_on_c, 0, 70, 60
1, 338877, Note_off_c, 0, 70, 68
1, 338932, Note_on_c, 0, 77, 65
1, 338934, Note_on_c, 0, 74, 67
1, 338938, Note_on_c, 0, 65, 73
1, 338938, Note_on_c, 0, 69, 71
1, 338939, Note_on_c, 0, 62, 73
1, 338956, Note_off_c, 0, 77, 70
1, 338959, Note_off_c, 0, 74, 68
1, 338960, Note_off_c, 0, 69, 70
1, 338962, Note_off_c, 0, 65, 69
1, 338963, Note_off_c, 0, 62, 67
1, 339248, Note_on_c, 0, 62, 58
1, 339255, Note_on_c, 0, 69, 54
1, 339255, Note_on_c, 0, 74, 59
1, 339257, Note_on_c, 0, 65, 46
1, 339265, Note_on_c, 0, 77, 41
1, 339281, Note_off_c, 0, 62, 64
1, 339283, Note_off_c, 0, 65, 58
1, 339283, Note_off_c, 0, 69, 62
1, 339289, Note_off_c, 0, 74, 65
1, 339295, Note_off_c, 0, 77, 56
1, 339336, Note_on_c, 0, 68, 54
1, 339358, Note_off_c, 0, 68, 62
1, 339402, Note_on_c, 0, 69, 65
1, 339406, Note_on_c, 0, 57, 57
1, 339429, Note_off_c, 0, 57, 62
1, 339448, Note_off_c, 0, 69, 59
1, 339481, Note_on_c, 0, 70, 48
1, 339505, Note_off_c, 0, 70, 59
1, 339544, Note_on_c, 0, 77, 67
1, 339545, Note_on_c, 0, 74, 70
1, 339546, Note_on_c, 0, 65, 71
1, 339547, Note_on_c, 0, 62, 72
1, 339550, Note_on_c, 0, 69, 68
1, 339577, Note_off_c, 0, 69, 65
1, 339583, Note_off_c, 0, 65, 58
1, 339590, Note_off_c, 0, 62, 62
1, 339609, Note_on_c, 0, 70, 67
1, 339616, Note_off_c, 0, 77, 62
1, 339621, Note_off_c, 0, 74, 60
1, 339642, Note_off_c, 0, 70, 66
1, 339697, Note_on_c, 0, 73, 80
1, 339699, Note_on_c, 0, 76, 76
1, 339702, Note_on_c, 0, 64, 64
1, 339708, Note_on_c, 0, 68, 53
1, 339728, Note_off_c, 0, 68, 60
1, 339731, Note_off_c, 0, 64, 66
1, 339749, Note_off_c, 0, 76, 60
1, 339754, Note_off_c, 0, 73, 63
1, 339776, Note_on_c, 0, 69, 78
1, 339800, Control_c, 0, 67, 108
1, 339815, Control_c, 0, 67, 81
1, 339818, Note_off_c, 0, 69, 63
1, 339824, Note_on_c, 0, 66, 87
1, 339830, Control_c, 0, 67, 56
1, 339832, Note_on_c, 0, 55, 66
1, 339845, Control_c, 0, 67, 41
1, 339854, Note_on_c, 0, 77, 74
1, 339860, Control_c, 0, 67, 35
1, 339861, Note_on_c, 0, 74, 64
1, 339874, Control_c, 0, 67, 0
1, 339885, Note_off_c, 0, 74, 65
1, 339886, Note_off_c, 0, 77, 58
1, 339891, Note_off_c, 0, 55, 63
1, 339901, Note_on_c, 0, 67, 88
1, 339907, Note_off_c, 0, 66, 67
1, 339932, Note_off_c, 0, 67, 64
1, 340007, Note_on_c, 0, 67, 74
1, 340030, Note_off_c, 0, 67, 71
1, 340081, Note_on_c, 0, 67, 77
1, 340102, Note_off_c, 0, 67, 71
1, 340156, Note_on_c, 0, 76, 86
1, 340158, Note_on_c, 0, 57, 66
1, 340158, Note_on_c, 0, 69, 84
1, 340159, Note_on_c, 0, 73, 72
1, 340163, Note_on_c, 0, 64, 68
1, 340176, Note_off_c, 0, 76, 67
1, 340181, Note_off_c, 0, 69, 66
1, 340181, Note_off_c, 0, 73, 70
1, 340187, Note_off_c, 0, 57, 65
1, 340190, Note_off_c, 0, 64, 68
1, 340499, Note_on_c, 0, 68, 68
1, 340542, Note_off_c, 0, 68, 62
1, 340549, Control_c, 0, 67, 38
1, 340550, Note_on_c, 0, 69, 72
1, 340564, Control_c, 0, 67, 36
1, 340573, Note_off_c, 0, 69, 70
1, 340608, Control_c, 0, 67, 37
1, 340623, Control_c, 0, 67, 35
1, 340638, Control_c, 0, 67, 0
1, 340643, Note_on_c, 0, 69, 76
1, 340672, Note_off_c, 0, 69, 63
1, 340739, Note_on_c, 0, 69, 66
1, 340775, Note_off_c, 0, 69, 64
1, 340799, Note_on_c, 0, 81, 77
1, 340845, Note_off_c, 0, 81, 63
1, 340876, Note_on_c, 0, 69, 70
1, 340918, Note_off_c, 0, 69, 59
1, 340953, Note_on_c, 0, 70, 58
1, 340986, Note_off_c, 0, 70, 64
1, 341019, Note_on_c, 0, 69, 72
1, 341073, Note_off_c, 0, 69, 56
1, 341098, Note_on_c, 0, 75, 74
1, 341100, Note_on_c, 0, 81, 66
1, 341100, Note_on_c, 0, 67, 56
1, 341131, Note_off_c, 0, 75, 64
1, 341148, Note_off_c, 0, 81, 64
1, 341150, Control_c, 0, 64, 31
1, 341165, Control_c, 0, 64, 55
1, 341169, Note_on_c, 0, 69, 73
1, 341180, Control_c, 0, 64, 67
1, 341195, Control_c, 0, 64, 73
1, 341210, Control_c, 0, 64, 81
1, 341219, Note_off_c, 0, 69, 58
1, 341224, Control_c, 0, 64, 88
1, 341239, Control_c, 0, 64, 101
1, 341249, Note_on_c, 0, 70, 64
1, 341254, Control_c, 0, 64, 127
1, 341285, Note_off_c, 0, 70, 64
1, 341314, Note_on_c, 0, 71, 77
1, 341348, Note_off_c, 0, 71, 57
1, 341422, Note_on_c, 0, 81, 77
1, 341439, Note_on_c, 0, 72, 71
1, 341442, Note_on_c, 0, 65, 50
1, 341469, Control_c, 0, 64, 119
1, 341484, Control_c, 0, 64, 91
1, 341498, Note_off_c, 0, 67, 45
1, 341499, Control_c, 0, 64, 73
1, 341513, Control_c, 0, 64, 53
1, 341526, Note_on_c, 0, 82, 78
1, 341528, Control_c, 0, 64, 0
1, 341532, Note_off_c, 0, 81, 63
1, 341572, Note_off_c, 0, 82, 62
1, 341587, Control_c, 0, 64, 31
1, 341591, Note_on_c, 0, 83, 85
1, 341602, Control_c, 0, 64, 50
1, 341617, Control_c, 0, 64, 69
1, 341633, Control_c, 0, 64, 81
1, 341634, Note_off_c, 0, 72, 61
1, 341647, Control_c, 0, 64, 98
1, 341662, Control_c, 0, 64, 118
1, 341666, Note_on_c, 0, 84, 90
1, 341677, Control_c, 0, 64, 127
1, 341682, Note_off_c, 0, 83, 51
1, 341712, Note_off_c, 0, 84, 66
1, 341736, Control_c, 0, 64, 85
1, 341738, Note_on_c, 0, 93, 96
1, 341747, Note_on_c, 0, 85, 92
1, 341749, Note_on_c, 0, 73, 94
1, 341751, Note_on_c, 0, 64, 80
1, 341751, Note_on_c, 0, 69, 86
1, 341751, Control_c, 0, 64, 62
1, 341766, Control_c, 0, 64, 36
1, 341780, Control_c, 0, 64, 42
1, 341784, Note_off_c, 0, 73, 64
1, 341793, Note_off_c, 0, 69, 63
1, 341795, Control_c, 0, 64, 60
1, 341797, Note_off_c, 0, 65, 51
1, 341798, Note_off_c, 0, 64, 61
1, 341803, Note_off_c, 0, 93, 59
1, 341810, Control_c, 0, 64, 78
1, 341825, Control_c, 0, 64, 127
1, 341829, Note_on_c, 0, 82, 88
1, 341862, Note_off_c, 0, 85, 63
1, 341880, Note_off_c, 0, 82, 64
1, 341901, Note_on_c, 0, 81, 77
1, 341948, Note_off_c, 0, 81, 62
1, 341988, Note_on_c, 0, 76, 63
1, 342033, Note_off_c, 0, 76, 60
1, 342033, Control_c, 0, 64, 84
1, 342047, Control_c, 0, 64, 58
1, 342062, Control_c, 0, 64, 0
1, 342062, Note_on_c, 0, 64, 72
1, 342068, Note_on_c, 0, 81, 55
1, 342070, Note_on_c, 0, 57, 65
1, 342073, Note_on_c, 0, 79, 52
1, 342087, Note_off_c, 0, 64, 68
1, 342098, Note_off_c, 0, 57, 66
1, 342098, Note_off_c, 0, 81, 66
1, 342099, Note_off_c, 0, 79, 65
1, 342121, Control_c, 0, 64, 52
1, 342131, Note_on_c, 0, 69, 70
1, 342136, Control_c, 0, 64, 69
1, 342151, Control_c, 0, 64, 83
1, 342166, Control_c, 0, 64, 101
1, 342180, Control_c, 0, 64, 127
1, 342198, Note_off_c, 0, 69, 47
1, 342226, Note_on_c, 0, 70, 47
1, 342252, Note_off_c, 0, 70, 57
1, 342283, Note_on_c, 0, 69, 69
1, 342325, Note_off_c, 0, 69, 56
1, 342351, Control_c, 0, 64, 85
1, 342360, Note_on_c, 0, 81, 72
1, 342366, Control_c, 0, 64, 61
1, 342373, Note_on_c, 0, 67, 64
1, 342373, Note_on_c, 0, 75, 72
1, 342380, Control_c, 0, 64, 0
1, 342402, Note_off_c, 0, 75, 67
1, 342410, Control_c, 0, 64, 32
1, 342414, Note_off_c, 0, 81, 64
1, 342426, Control_c, 0, 64, 54
1, 342428, Note_on_c, 0, 69, 74
1, 342441, Control_c, 0, 64, 75
1, 342456, Control_c, 0, 64, 96
1, 342468, Note_off_c, 0, 67, 0
1, 342470, Control_c, 0, 64, 127
1, 342487, Note_off_c, 0, 69, 60
1, 342498, Note_on_c, 0, 67, 39
1, 342516, Note_on_c, 0, 70, 71
1, 342545, Note_off_c, 0, 70, 66
1, 342595, Note_on_c, 0, 71, 57
1, 342597, Note_on_c, 0, 69, 55
1, 342623, Note_off_c, 0, 71, 63
1, 342628, Note_off_c, 0, 69, 55
1, 342649, Control_c, 0, 64, 99
1, 342664, Control_c, 0, 64, 70
1, 342674, Note_on_c, 0, 81, 75
1, 342678, Note_on_c, 0, 72, 97
1, 342678, Control_c, 0, 64, 48
1, 342685, Note_on_c, 0, 65, 73
1, 342693, Control_c, 0, 64, 34
1, 342708, Control_c, 0, 64, 44
1, 342721, Note_off_c, 0, 67, 59
1, 342723, Control_c, 0, 64, 60
1, 342738, Control_c, 0, 64, 80
1, 342752, Control_c, 0, 64, 127
1, 342756, Note_on_c, 0, 82, 83
1, 342769, Note_off_c, 0, 81, 64
1, 342806, Note_off_c, 0, 82, 64
1, 342833, Note_on_c, 0, 83, 94
1, 342900, Note_on_c, 0, 84, 88
1, 342904, Note_off_c, 0, 72, 60
1, 342914, Note_off_c, 0, 83, 58
1, 342958, Note_off_c, 0, 84, 66
1, 342973, Note_off_c, 0, 65, 62
1, 343001, Note_on_c, 0, 93, 102
1, 343001, Note_on_c, 0, 85, 94
1, 343002, Note_on_c, 0, 64, 89
1, 343006, Note_on_c, 0, 69, 94
1, 343007, Note_on_c, 0, 73, 98
1, 343011, Control_c, 0, 64, 91
1, 343026, Control_c, 0, 64, 63
1, 343041, Control_c, 0, 64, 36
1, 343056, Control_c, 0, 64, 47
1, 343071, Control_c, 0, 64, 64
1, 343082, Note_off_c, 0, 93, 50
1, 343085, Note_on_c, 0, 82, 96
1, 343085, Control_c, 0, 64, 89
1, 343095, Note_off_c, 0, 73, 59
1, 343100, Control_c, 0, 64, 127
1, 343117, Note_off_c, 0, 69, 64
1, 343123, Note_off_c, 0, 64, 61
1, 343123, Note_off_c, 0, 85, 62
1, 343150, Note_off_c, 0, 82, 66
1, 343161, Note_on_c, 0, 81, 87
1, 343202, Note_off_c, 0, 81, 67
1, 343249, Note_on_c, 0, 76, 74
1, 343281, Note_on_c, 0, 77, 34
1, 343289, Note_off_c, 0, 76, 63
1, 343313, Note_off_c, 0, 77, 38
1, 343320, Note_on_c, 0, 64, 72
1, 343322, Note_on_c, 0, 81, 72
1, 343332, Note_on_c, 0, 57, 69
1, 343338, Control_c, 0, 64, 77
1, 343352, Control_c, 0, 64, 43
1, 343362, Note_off_c, 0, 64, 65
1, 343367, Control_c, 0, 64, 0
1, 343376, Note_off_c, 0, 57, 60
1, 343377, Note_off_c, 0, 81, 63
1, 343397, Control_c, 0, 64, 42
1, 343399, Note_on_c, 0, 69, 72
1, 343412, Control_c, 0, 64, 66
1, 343426, Control_c, 0, 64, 95
1, 343441, Control_c, 0, 64, 127
1, 343462, Note_off_c, 0, 69, 59
1, 343488, Note_on_c, 0, 70, 60
1, 343519, Note_off_c, 0, 70, 67
1, 343554, Note_on_c, 0, 69, 77
1, 343602, Note_off_c, 0, 69, 57
1, 343628, Note_on_c, 0, 81, 73
1, 343663, Control_c, 0, 64, 88
1, 343678, Control_c, 0, 64, 63
1, 343700, Control_c, 0, 64, 30
1, 343714, Note_on_c, 0, 76, 64
1, 343715, Control_c, 0, 64, 0
1, 343716, Note_off_c, 0, 81, 60
1, 343776, Note_off_c, 0, 76, 63
1, 343787, Note_on_c, 0, 77, 71
1, 343804, Control_c, 0, 67, 41
1, 343819, Control_c, 0, 67, 81
1, 343823, Note_off_c, 0, 77, 63
1, 343833, Control_c, 0, 67, 127
1, 343863, Note_on_c, 0, 76, 71
1, 343916, Note_off_c, 0, 76, 58
1, 343955, Note_on_c, 0, 82, 70
1, 344048, Note_on_c, 0, 81, 71
1, 344056, Control_c, 0, 64, 45
1, 344071, Control_c, 0, 64, 56
1, 344086, Control_c, 0, 64, 62
1, 344101, Control_c, 0, 64, 64
1, 344106, Note_off_c, 0, 82, 51
1, 344116, Control_c, 0, 64, 66
1, 344119, Note_off_c, 0, 81, 56
1, 344125, Note_on_c, 0, 80, 74
1, 344130, Control_c, 0, 64, 68
1, 344145, Control_c, 0, 64, 71
1, 344160, Control_c, 0, 64, 77
1, 344174, Control_c, 0, 64, 83
1, 344187, Note_off_c, 0, 80, 57
1, 344189, Control_c, 0, 64, 89
1, 344191, Note_on_c, 0, 79, 69
1, 344204, Control_c, 0, 64, 95
1, 344218, Note_off_c, 0, 79, 65
1, 344219, Control_c, 0, 64, 100
1, 344247, Note_on_c, 0, 78, 66
1, 344248, Control_c, 0, 64, 103
1, 344263, Control_c, 0, 64, 116
1, 344278, Control_c, 0, 64, 127
1, 344301, Note_off_c, 0, 78, 59
1, 344316, Note_on_c, 0, 77, 82
1, 344365, Note_off_c, 0, 77, 63
1, 344410, Note_on_c, 0, 76, 73
1, 344469, Note_off_c, 0, 76, 63
1, 344472, Note_on_c, 0, 75, 71
1, 344530, Note_off_c, 0, 75, 64
1, 344568, Note_on_c, 0, 79, 64
1, 344581, Control_c, 0, 64, 103
1, 344588, Note_on_c, 0, 82, 75
1, 344596, Control_c, 0, 64, 77
1, 344611, Control_c, 0, 64, 65
1, 344613, Note_off_c, 0, 79, 56
1, 344626, Control_c, 0, 64, 64
1, 344641, Control_c, 0, 64, 69
1, 344647, Note_on_c, 0, 78, 70
1, 344656, Control_c, 0, 64, 80
1, 344656, Note_on_c, 0, 81, 85
1, 344671, Control_c, 0, 64, 109
1, 344686, Control_c, 0, 64, 127
1, 344700, Note_off_c, 0, 78, 58
1, 344703, Note_off_c, 0, 82, 55
1, 344722, Note_off_c, 0, 81, 58
1, 344726, Note_on_c, 0, 77, 71
1, 344741, Note_on_c, 0, 80, 85
1, 344760, Control_c, 0, 67, 125
1, 344774, Control_c, 0, 67, 89
1, 344778, Note_off_c, 0, 77, 61
1, 344789, Control_c, 0, 67, 54
1, 344792, Note_off_c, 0, 80, 63
1, 344804, Control_c, 0, 67, 0
1, 344805, Note_on_c, 0, 76, 74
1, 344811, Note_on_c, 0, 79, 78
1, 344855, Note_off_c, 0, 79, 66
1, 344870, Note_off_c, 0, 76, 63
1, 344873, Note_on_c, 0, 75, 76
1, 344883, Note_on_c, 0, 78, 80
1, 344924, Note_off_c, 0, 75, 64
1, 344953, Note_on_c, 0, 77, 81
1, 344956, Note_on_c, 0, 74, 67
1, 344960, Note_off_c, 0, 78, 58
1, 345001, Note_off_c, 0, 77, 62
1, 345022, Note_off_c, 0, 74, 61
1, 345024, Note_on_c, 0, 76, 82
1, 345039, Note_on_c, 0, 73, 70
1, 345077, Note_off_c, 0, 76, 62
1, 345112, Note_on_c, 0, 75, 78
1, 345122, Note_off_c, 0, 73, 61
1, 345136, Note_off_c, 0, 75, 68
1, 345151, Note_on_c, 0, 72, 70
1, 345193, Note_off_c, 0, 72, 57
1, 345197, Control_c, 0, 64, 99
1, 345212, Note_on_c, 0, 82, 84
1, 345212, Control_c, 0, 64, 69
1, 345217, Note_on_c, 0, 76, 77
1, 345227, Control_c, 0, 64, 55
1, 345237, Note_on_c, 0, 73, 78
1, 345242, Control_c, 0, 64, 63
1, 345248, Note_off_c, 0, 76, 64
1, 345249, Note_off_c, 0, 82, 59
1, 345257, Control_c, 0, 64, 81
1, 345271, Control_c, 0, 64, 127
1, 345281, Note_off_c, 0, 73, 60
1, 345293, Note_on_c, 0, 81, 90
1, 345303, Note_on_c, 0, 75, 80
1, 345307, Note_on_c, 0, 72, 78
1, 345324, Note_off_c, 0, 75, 67
1, 345336, Note_off_c, 0, 81, 62
1, 345351, Note_off_c, 0, 72, 62
1, 345377, Note_on_c, 0, 74, 91
1, 345378, Note_on_c, 0, 80, 84
1, 345383, Note_on_c, 0, 71, 81
1, 345416, Note_off_c, 0, 74, 66
1, 345418, Note_off_c, 0, 80, 63
1, 345447, Note_off_c, 0, 71, 59
1, 345449, Note_on_c, 0, 70, 78
1, 345459, Note_on_c, 0, 73, 93
1, 345481, Note_on_c, 0, 78, 62
1, 345486, Note_on_c, 0, 79, 54
1, 345496, Note_off_c, 0, 70, 62
1, 345499, Note_off_c, 0, 73, 62
1, 345499, Note_off_c, 0, 78, 62
1, 345500, Note_on_c, 0, 69, 76
1, 345506, Note_off_c, 0, 79, 63
1, 345553, Note_on_c, 0, 72, 70
1, 345562, Note_on_c, 0, 78, 46
1, 345568, Note_off_c, 0, 69, 65
1, 345574, Note_on_c, 0, 71, 75
1, 345577, Note_off_c, 0, 72, 66
1, 345585, Note_on_c, 0, 79, 40
1, 345589, Note_on_c, 0, 74, 22
1, 345589, Note_off_c, 0, 78, 58
1, 345600, Note_on_c, 0, 68, 75
1, 345609, Note_on_c, 0, 77, 73
1, 345613, Note_off_c, 0, 79, 56
1, 345617, Note_off_c, 0, 71, 61
1, 345629, Note_off_c, 0, 74, 44
1, 345648, Note_off_c, 0, 68, 57
1, 345652, Note_on_c, 0, 70, 82
1, 345663, Note_off_c, 0, 77, 64
1, 345667, Note_on_c, 0, 76, 63
1, 345703, Note_off_c, 0, 76, 58
1, 345714, Note_on_c, 0, 66, 79
1, 345717, Note_off_c, 0, 70, 65
1, 345719, Note_on_c, 0, 75, 86
1, 345737, Note_off_c, 0, 66, 71
1, 345747, Note_off_c, 0, 75, 64
1, 345806, Control_c, 0, 64, 81
1, 345811, Note_on_c, 0, 82, 97
1, 345815, Note_on_c, 0, 73, 95
1, 345819, Note_on_c, 0, 70, 76
1, 345821, Control_c, 0, 64, 53
1, 345830, Note_on_c, 0, 77, 74
1, 345833, Note_on_c, 0, 79, 65
1, 345836, Control_c, 0, 64, 0
1, 345845, Note_off_c, 0, 73, 66
1, 345846, Note_off_c, 0, 70, 61
1, 345851, Control_c, 0, 64, 52
1, 345851, Note_off_c, 0, 77, 71
1, 345856, Note_off_c, 0, 82, 65
1, 345857, Note_off_c, 0, 79, 70
1, 345866, Control_c, 0, 64, 79
1, 345881, Control_c, 0, 64, 127
1, 345901, Note_on_c, 0, 76, 95
1, 345902, Note_on_c, 0, 69, 89
1, 345911, Note_on_c, 0, 81, 81
1, 345911, Note_on_c, 0, 83, 79
1, 345929, Note_off_c, 0, 83, 71
1, 345942, Note_off_c, 0, 76, 69
1, 345947, Control_c, 0, 64, 113
1, 345949, Note_off_c, 0, 81, 63
1, 345961, Control_c, 0, 64, 119
1, 345976, Control_c, 0, 64, 127
1, 345985, Note_on_c, 0, 71, 91
1, 345991, Note_on_c, 0, 80, 98
1, 345993, Note_off_c, 0, 69, 0
1, 346002, Note_on_c, 0, 75, 87
1, 346006, Note_on_c, 0, 68, 79
1, 346027, Note_off_c, 0, 71, 61
1, 346028, Note_off_c, 0, 80, 70
1, 346030, Poly_aftertouch_c, 0, 69, 127
1, 346042, Note_off_c, 0, 75, 64
1, 346043, Note_off_c, 0, 68, 0
1, 346056, Poly_aftertouch_c, 0, 69, 0
1, 346071, Note_on_c, 0, 70, 82
1, 346077, Note_on_c, 0, 74, 103
1, 346081, Poly_aftertouch_c, 0, 68, 127
1, 346097, Note_on_c, 0, 67, 75
1, 346100, Poly_aftertouch_c, 0, 68, 0
1, 346120, Note_off_c, 0, 74, 67
1, 346127, Note_off_c, 0, 70, 65
1, 346140, Control_c, 0, 64, 75
1, 346154, Control_c, 0, 64, 53
1, 346162, Note_on_c, 0, 73, 100
1, 346163, Note_on_c, 0, 78, 100
1, 346169, Control_c, 0, 64, 56
1, 346174, Note_on_c, 0, 69, 88
1, 346179, Note_on_c, 0, 74, 58
1, 346179, Note_off_c, 0, 74, 127
1, 346184, Control_c, 0, 64, 84
1, 346187, Note_off_c, 0, 73, 68
1, 346191, Note_on_c, 0, 66, 83
1, 346195, Note_off_c, 0, 67, 60
1, 346197, Note_on_c, 0, 80, 34
1, 346197, Note_off_c, 0, 80, 127
1, 346199, Control_c, 0, 64, 127
1, 346209, Note_off_c, 0, 78, 63
1, 346210, Note_off_c, 0, 69, 62
1, 346278, Note_off_c, 0, 66, 57
1, 346280, Note_on_c, 0, 65, 64
1, 346346, Note_off_c, 0, 65, 61
1, 346393, Note_on_c, 0, 63, 91
1, 346397, Note_on_c, 0, 73, 82
1, 346398, Note_on_c, 0, 78, 66
1, 346407, Note_on_c, 0, 77, 76
1, 346417, Note_off_c, 0, 78, 62
1, 346421, Note_off_c, 0, 73, 68
1, 346429, Note_off_c, 0, 77, 71
1, 346474, Note_on_c, 0, 78, 69
1, 346477, Note_on_c, 0, 79, 88
1, 346491, Note_on_c, 0, 64, 64
1, 346508, Note_off_c, 0, 78, 51
1, 346519, Note_off_c, 0, 79, 65
1, 346555, Note_off_c, 0, 63, 61
1, 346564, Note_off_c, 0, 64, 65
1, 346578, Note_on_c, 0, 80, 99
1, 346582, Note_on_c, 0, 65, 104
1, 346584, Note_on_c, 0, 68, 104
1, 346587, Note_on_c, 0, 74, 101
1, 346592, Note_on_c, 0, 66, 54
1, 346592, Note_off_c, 0, 66, 127
1, 346609, Note_off_c, 0, 74, 64
1, 346621, Note_off_c, 0, 80, 68
1, 346621, Note_off_c, 0, 68, 67
1, 346624, Note_off_c, 0, 65, 69
1, 346629, Control_c, 0, 64, 81
1, 346629, Control_c, 0, 67, 42
1, 346644, Control_c, 0, 64, 51
1, 346644, Control_c, 0, 67, 47
1, 346659, Control_c, 0, 64, 0
1, 346674, Control_c, 0, 67, 49
1, 346693, Note_on_c, 0, 79, 82
1, 346696, Control_c, 0, 67, 54
1, 346711, Control_c, 0, 67, 64
1, 346725, Control_c, 0, 67, 69
1, 346726, Note_off_c, 0, 79, 65
1, 346755, Control_c, 0, 67, 71
1, 346769, Control_c, 0, 67, 74
1, 346784, Control_c, 0, 67, 84
1, 346787, Note_on_c, 0, 78, 81
1, 346799, Control_c, 0, 67, 116
1, 346809, Note_on_c, 0, 58, 82
1, 346814, Control_c, 0, 67, 127
1, 346833, Note_off_c, 0, 58, 70
1, 346835, Note_off_c, 0, 78, 59
1, 346878, Note_on_c, 0, 77, 84
1, 346909, Note_off_c, 0, 77, 65
1, 346969, Note_on_c, 0, 76, 81
1, 347000, Note_off_c, 0, 76, 65
1, 347054, Note_on_c, 0, 75, 70
1, 347079, Note_off_c, 0, 75, 69
1, 347126, Note_on_c, 0, 74, 80
1, 347127, Note_on_c, 0, 67, 76
1, 347161, Note_off_c, 0, 74, 62
1, 347164, Note_off_c, 0, 67, 65
1, 347199, Note_on_c, 0, 73, 79
1, 347207, Note_on_c, 0, 68, 77
1, 347233, Note_off_c, 0, 73, 60
1, 347251, Note_on_c, 0, 65, 57
1, 347255, Note_on_c, 0, 69, 86
1, 347264, Note_on_c, 0, 62, 80
1, 347267, Note_off_c, 0, 68, 58
1, 347278, Note_on_c, 0, 72, 88
1, 347278, Note_on_c, 0, 77, 83
1, 347285, Note_off_c, 0, 69, 66
1, 347288, Note_off_c, 0, 65, 63
1, 347292, Note_off_c, 0, 62, 67
1, 347312, Note_off_c, 0, 72, 66
1, 347333, Note_off_c, 0, 77, 63
1, 347360, Note_on_c, 0, 71, 86
1, 347397, Note_off_c, 0, 71, 64
1, 347445, Note_on_c, 0, 70, 82
1, 347453, Note_on_c, 0, 55, 77
1, 347479, Note_off_c, 0, 55, 68
1, 347491, Note_off_c, 0, 70, 63
1, 347529, Note_on_c, 0, 69, 72
1, 347550, Note_off_c, 0, 69, 69
1, 347586, Note_on_c, 0, 58, 79
1, 347589, Note_on_c, 0, 74, 78
1, 347589, Note_on_c, 0, 65, 69
1, 347592, Note_on_c, 0, 62, 65
1, 347600, Note_on_c, 0, 68, 72
1, 347608, Note_off_c, 0, 58, 67
1, 347608, Note_off_c, 0, 65, 66
1, 347611, Note_off_c, 0, 62, 63
1, 347612, Note_on_c, 0, 64, 43
1, 347625, Note_off_c, 0, 68, 67
1, 347643, Note_off_c, 0, 64, 35
1, 347643, Note_off_c, 0, 74, 62
1, 347670, Note_on_c, 0, 67, 71
1, 347708, Note_off_c, 0, 67, 58
1, 347745, Note_on_c, 0, 66, 66
1, 347746, Note_on_c, 0, 60, 76
1, 347771, Note_off_c, 0, 66, 68
1, 347792, Note_on_c, 0, 61, 66
1, 347805, Note_off_c, 0, 60, 63
1, 347813, Note_on_c, 0, 65, 72
1, 347830, Note_off_c, 0, 61, 67
1, 347839, Note_off_c, 0, 65, 66
1, 347863, Note_on_c, 0, 55, 87
1, 347869, Note_on_c, 0, 64, 85
1, 347882, Note_on_c, 0, 70, 70
1, 347883, Note_on_c, 0, 62, 58
1, 347894, Note_off_c, 0, 55, 65
1, 347906, Note_off_c, 0, 62, 62
1, 347908, Note_off_c, 0, 70, 67
1, 347909, Note_off_c, 0, 64, 66
1, 347955, Note_on_c, 0, 63, 86
1, 347999, Note_off_c, 0, 63, 62
1, 348029, Note_on_c, 0, 62, 74
1, 348051, Note_on_c, 0, 46, 68
1, 348083, Note_off_c, 0, 62, 64
1, 348090, Note_off_c, 0, 46, 63
1, 348111, Note_on_c, 0, 61, 78
1, 348139, Note_off_c, 0, 61, 65
1, 348146, Note_on_c, 0, 58, 84
1, 348152, Note_on_c, 0, 49, 76
1, 348158, Note_on_c, 0, 53, 65
1, 348159, Note_on_c, 0, 54, 36
1, 348170, Note_off_c, 0, 58, 69
1, 348171, Note_on_c, 0, 65, 73
1, 348176, Note_off_c, 0, 49, 66
1, 348182, Note_off_c, 0, 53, 64
1, 348204, Note_off_c, 0, 54, 33
1, 348245, Note_off_c, 0, 65, 60
1, 348254, Note_on_c, 0, 57, 49
1, 348281, Note_off_c, 0, 57, 37
1, 348314, Note_on_c, 0, 45, 66
1, 348318, Note_on_c, 0, 55, 78
1, 348349, Note_off_c, 0, 55, 65
1, 348352, Note_off_c, 0, 45, 55
1, 348376, Note_on_c, 0, 44, 78
1, 348411, Note_on_c, 0, 55, 63
1, 348425, Note_off_c, 0, 44, 64
1, 348427, Note_on_c, 0, 62, 94
1, 348428, Note_on_c, 0, 53, 96
1, 348433, Note_on_c, 0, 38, 96
1, 348440, Note_off_c, 0, 55, 65
1, 348449, Note_off_c, 0, 53, 69
1, 348458, Note_off_c, 0, 38, 66
1, 348460, Control_c, 0, 64, 30
1, 348461, Note_off_c, 0, 62, 67
1, 348475, Control_c, 0, 64, 0
1, 348734, Note_on_c, 0, 53, 61
1, 348745, Note_on_c, 0, 45, 63
1, 348749, Note_on_c, 0, 62, 61
1, 348756, Note_on_c, 0, 65, 50
1, 348759, Note_off_c, 0, 53, 63
1, 348769, Note_off_c, 0, 45, 62
1, 348777, Note_off_c, 0, 62, 65
1, 348796, Note_off_c, 0, 65, 49
1, 348805, Note_on_c, 0, 57, 54
1, 348828, Note_off_c, 0, 57, 61
1, 348859, Note_on_c, 0, 33, 65
1, 348864, Note_on_c, 0, 60, 67
1, 348886, Note_off_c, 0, 33, 59
1, 348890, Note_on_c, 0, 64, 58
1, 348910, Note_off_c, 0, 60, 60
1, 348932, Note_on_c, 0, 69, 79
1, 348933, Note_off_c, 0, 64, 66
1, 348978, Note_off_c, 0, 69, 63
1, 349001, Note_on_c, 0, 62, 90
1, 349003, Note_on_c, 0, 53, 75
1, 349005, Note_on_c, 0, 65, 83
1, 349007, Note_on_c, 0, 45, 72
1, 349020, Note_off_c, 0, 62, 73
1, 349024, Note_off_c, 0, 65, 72
1, 349027, Note_off_c, 0, 53, 69
1, 349032, Note_off_c, 0, 45, 66
1, 349274, Note_on_c, 0, 65, 62
1, 349278, Note_on_c, 0, 62, 58
1, 349282, Note_on_c, 0, 53, 61
1, 349284, Note_on_c, 0, 45, 61
1, 349306, Note_off_c, 0, 62, 65
1, 349312, Note_off_c, 0, 53, 64
1, 349320, Note_off_c, 0, 65, 57
1, 349322, Note_off_c, 0, 45, 62
1, 349339, Note_on_c, 0, 57, 66
1, 349369, Note_off_c, 0, 57, 65
1, 349404, Note_on_c, 0, 38, 59
1, 349409, Note_on_c, 0, 60, 52
1, 349413, Note_on_c, 0, 64, 60
1, 349432, Note_off_c, 0, 60, 62
1, 349439, Note_off_c, 0, 38, 63
1, 349448, Note_off_c, 0, 64, 64
1, 349457, Note_on_c, 0, 69, 71
1, 349536, Note_on_c, 0, 65, 71
1, 349538, Note_on_c, 0, 62, 71
1, 349539, Note_on_c, 0, 53, 59
1, 349539, Note_on_c, 0, 45, 66
1, 349545, Note_off_c, 0, 69, 55
1, 349561, Note_off_c, 0, 53, 62
1, 349565, Note_off_c, 0, 62, 67
1, 349568, Note_off_c, 0, 65, 61
1, 349570, Note_off_c, 0, 45, 64
1, 349601, Note_on_c, 0, 57, 71
1, 349628, Note_off_c, 0, 57, 66
1, 349664, Note_on_c, 0, 33, 62
1, 349674, Note_on_c, 0, 60, 56
1, 349678, Note_on_c, 0, 64, 63
1, 349700, Note_off_c, 0, 33, 55
1, 349708, Note_off_c, 0, 60, 65
1, 349733, Note_off_c, 0, 64, 61
1, 349734, Note_on_c, 0, 69, 86
1, 349807, Note_on_c, 0, 65, 69
1, 349808, Note_on_c, 0, 53, 77
1, 349811, Note_on_c, 0, 45, 80
1, 349816, Note_on_c, 0, 62, 72
1, 349818, Note_off_c, 0, 69, 61
1, 349828, Note_on_c, 0, 64, 60
1, 349831, Note_off_c, 0, 53, 70
1, 349840, Note_off_c, 0, 45, 68
1, 349852, Note_off_c, 0, 62, 62
1, 349852, Note_off_c, 0, 64, 61
1, 349862, Note_off_c, 0, 65, 64
1, 349880, Note_on_c, 0, 57, 82
1, 349899, Control_c, 0, 67, 116
1, 349913, Control_c, 0, 67, 77
1, 349926, Note_off_c, 0, 57, 57
1, 349928, Control_c, 0, 67, 0
1, 349938, Note_on_c, 0, 36, 80
1, 349953, Note_on_c, 0, 58, 86
1, 349955, Note_on_c, 0, 62, 76
1, 349970, Note_off_c, 0, 36, 66
1, 349995, Note_off_c, 0, 62, 63
1, 349996, Note_off_c, 0, 58, 64
1, 350027, Note_on_c, 0, 67, 85
1, 350048, Note_on_c, 0, 64, 84
1, 350053, Note_on_c, 0, 43, 97
1, 350054, Note_on_c, 0, 52, 95
1, 350066, Note_on_c, 0, 60, 75
1, 350071, Note_off_c, 0, 67, 64
1, 350073, Note_off_c, 0, 52, 73
1, 350076, Note_on_c, 0, 59, 69
1, 350079, Note_off_c, 0, 43, 68
1, 350081, Note_off_c, 0, 64, 63
1, 350090, Note_off_c, 0, 60, 68
1, 350095, Note_off_c, 0, 59, 65
1, 350336, Note_on_c, 0, 43, 66
1, 350340, Note_on_c, 0, 52, 54
1, 350349, Note_on_c, 0, 60, 56
1, 350357, Note_on_c, 0, 64, 46
1, 350365, Note_off_c, 0, 43, 64
1, 350367, Note_off_c, 0, 52, 57
1, 350379, Note_off_c, 0, 60, 66
1, 350386, Note_off_c, 0, 64, 58
1, 350421, Note_on_c, 0, 55, 44
1, 350463, Note_off_c, 0, 55, 53
1, 350475, Note_on_c, 0, 31, 48
1, 350478, Note_on_c, 0, 58, 73
1, 350497, Note_on_c, 0, 62, 55
1, 350509, Note_off_c, 0, 31, 50
1, 350516, Note_off_c, 0, 58, 62
1, 350531, Note_off_c, 0, 62, 62
1, 350563, Note_on_c, 0, 67, 68
1, 350609, Note_on_c, 0, 43, 72
1, 350613, Note_on_c, 0, 52, 65
1, 350615, Note_on_c, 0, 64, 76
1, 350615, Note_off_c, 0, 67, 59
1, 350620, Note_on_c, 0, 60, 66
1, 350636, Note_off_c, 0, 52, 61
1, 350638, Note_off_c, 0, 64, 70
1, 350639, Note_off_c, 0, 43, 64
1, 350639, Note_off_c, 0, 60, 65
1, 350869, Note_on_c, 0, 64, 62
1, 350875, Note_on_c, 0, 60, 54
1, 350889, Note_on_c, 0, 52, 58
1, 350893, Note_on_c, 0, 43, 56
1, 350904, Note_off_c, 0, 60, 66
1, 350913, Note_off_c, 0, 64, 61
1, 350914, Note_off_c, 0, 52, 60
1, 350925, Note_off_c, 0, 43, 62
1, 350954, Note_on_c, 0, 55, 47
1, 350987, Note_off_c, 0, 55, 53
1, 351005, Note_on_c, 0, 58, 64
1, 351017, Note_on_c, 0, 36, 54
1, 351023, Note_on_c, 0, 62, 58
1, 351042, Note_off_c, 0, 58, 64
1, 351050, Note_off_c, 0, 36, 60
1, 351059, Note_off_c, 0, 62, 61
1, 351085, Note_on_c, 0, 67, 63
1, 351141, Note_off_c, 0, 67, 46
1, 351146, Note_on_c, 0, 43, 67
1, 351153, Note_on_c, 0, 60, 63
1, 351155, Note_on_c, 0, 52, 45
1, 351164, Note_on_c, 0, 64, 44
1, 351178, Note_off_c, 0, 43, 64
1, 351190, Note_off_c, 0, 60, 66
1, 351195, Note_off_c, 0, 52, 53
1, 351200, Note_off_c, 0, 64, 56
1, 351225, Note_on_c, 0, 55, 65
1, 351261, Note_off_c, 0, 55, 58
1, 351284, Note_on_c, 0, 58, 65
1, 351285, Note_on_c, 0, 31, 54
1, 351312, Note_on_c, 0, 62, 47
1, 351316, Note_off_c, 0, 31, 54
1, 351324, Note_off_c, 0, 58, 63
1, 351345, Note_off_c, 0, 62, 64
1, 351363, Note_on_c, 0, 67, 71
1, 351402, Note_on_c, 0, 64, 37
1, 351415, Note_on_c, 0, 43, 85
1, 351417, Note_on_c, 0, 52, 77
1, 351419, Note_on_c, 0, 60, 74
1, 351433, Note_off_c, 0, 67, 61
1, 351440, Note_off_c, 0, 52, 66
1, 351442, Note_off_c, 0, 60, 69
1, 351443, Note_off_c, 0, 43, 67
1, 351453, Note_off_c, 0, 64, 64
1, 351558, Note_on_c, 0, 35, 83
1, 351572, Note_on_c, 0, 58, 59
1, 351587, Note_off_c, 0, 35, 68
1, 351595, Note_off_c, 0, 58, 38
1, 351629, Note_on_c, 0, 66, 82
1, 351674, Note_on_c, 0, 42, 105
1, 351676, Note_on_c, 0, 50, 97
1, 351685, Poly_aftertouch_c, 0, 59, 0
1, 351694, Note_on_c, 0, 61, 81
1, 351700, Note_on_c, 0, 59, 51
1, 351705, Note_off_c, 0, 50, 67
1, 351717, Note_off_c, 0, 42, 62
1, 351735, Note_on_c, 0, 60, 28
1, 351738, Note_off_c, 0, 59, 64
1, 351743, Note_off_c, 0, 66, 55
1, 351752, Note_off_c, 0, 61, 64
1, 351753, Note_on_c, 0, 54, 83
1, 351766, Control_c, 0, 64, 51
1, 351777, Note_off_c, 0, 60, 29
1, 351788, Note_off_c, 0, 54, 58
1, 351796, Control_c, 0, 64, 0
1, 351802, Note_on_c, 0, 30, 93
1, 351843, Note_off_c, 0, 30, 64
1, 351846, Note_on_c, 0, 57, 61
1, 351852, Note_on_c, 0, 61, 54
1, 351873, Note_off_c, 0, 57, 56
1, 351877, Note_on_c, 0, 32, 11
1, 351877, Note_off_c, 0, 32, 127
1, 351894, Note_off_c, 0, 61, 51
1, 351908, Note_on_c, 0, 66, 95
1, 351916, Note_on_c, 0, 62, 74
1, 351938, Note_on_c, 0, 42, 103
1, 351944, Note_on_c, 0, 50, 87
1, 351955, Note_off_c, 0, 62, 64
1, 351962, Note_off_c, 0, 66, 67
1, 351965, Note_off_c, 0, 50, 72
1, 351968, Note_off_c, 0, 42, 67
1, 352112, Note_on_c, 0, 34, 77
1, 352113, Note_on_c, 0, 60, 60
1, 352119, Note_on_c, 0, 57, 43
1, 352144, Note_off_c, 0, 34, 65
1, 352146, Note_off_c, 0, 57, 55
1, 352150, Note_off_c, 0, 60, 64
1, 352188, Note_on_c, 0, 65, 65
1, 352204, Control_c, 0, 67, 59
1, 352219, Control_c, 0, 67, 111
1, 352234, Control_c, 0, 67, 127
1, 352236, Note_on_c, 0, 62, 47
1, 352242, Note_on_c, 0, 42, 60
1, 352248, Note_on_c, 0, 50, 69
1, 352258, Note_off_c, 0, 65, 61
1, 352262, Note_on_c, 0, 58, 77
1, 352265, Note_on_c, 0, 41, 66
1, 352265, Note_on_c, 0, 60, 57
1, 352275, Note_off_c, 0, 50, 66
1, 352289, Note_off_c, 0, 42, 64
1, 352289, Note_off_c, 0, 62, 63
1, 352290, Note_off_c, 0, 41, 63
1, 352294, Note_off_c, 0, 60, 67
1, 352296, Note_off_c, 0, 58, 65
1, 352319, Note_on_c, 0, 53, 77
1, 352357, Note_off_c, 0, 53, 52
1, 352364, Note_on_c, 0, 29, 75
1, 352391, Note_off_c, 0, 29, 65
1, 352397, Note_on_c, 0, 56, 72
1, 352410, Note_on_c, 0, 60, 47
1, 352420, Note_off_c, 0, 56, 67
1, 352446, Note_off_c, 0, 60, 64
1, 352467, Note_on_c, 0, 65, 76
1, 352476, Note_on_c, 0, 62, 58
1, 352504, Note_on_c, 0, 50, 71
1, 352507, Note_on_c, 0, 41, 67
1, 352520, Note_on_c, 0, 58, 80
1, 352521, Note_off_c, 0, 65, 62
1, 352529, Note_off_c, 0, 50, 67
1, 352536, Note_off_c, 0, 41, 66
1, 352545, Note_off_c, 0, 58, 68
1, 352546, Note_off_c, 0, 62, 63
1, 352666, Note_on_c, 0, 55, 72
1, 352667, Note_on_c, 0, 59, 64
1, 352690, Note_on_c, 0, 33, 63
1, 352710, Note_off_c, 0, 55, 61
1, 352715, Note_off_c, 0, 59, 62
1, 352724, Note_off_c, 0, 33, 61
1, 352743, Note_on_c, 0, 64, 78
1, 352794, Note_on_c, 0, 40, 68
1, 352798, Note_on_c, 0, 49, 76
1, 352822, Note_on_c, 0, 57, 69
1, 352822, Note_off_c, 0, 49, 66
1, 352823, Note_off_c, 0, 40, 64
1, 352826, Note_on_c, 0, 61, 60
1, 352850, Note_off_c, 0, 64, 58
1, 352851, Note_off_c, 0, 57, 65
1, 352879, Note_off_c, 0, 61, 63
1, 352889, Note_on_c, 0, 52, 71
1, 352927, Note_off_c, 0, 52, 60
1, 352973, Note_on_c, 0, 61, 60
1, 352998, Note_on_c, 0, 64, 70
1, 353011, Note_off_c, 0, 61, 65
1, 353063, Note_off_c, 0, 64, 50
1, 353065, Note_on_c, 0, 62, 66
1, 353081, Note_on_c, 0, 50, 70
1, 353086, Note_on_c, 0, 53, 55
1, 353086, Note_on_c, 0, 45, 59
1, 353098, Note_on_c, 0, 38, 44
1, 353105, Note_off_c, 0, 62, 65
1, 353107, Note_off_c, 0, 50, 67
1, 353112, Note_off_c, 0, 45, 57
1, 353115, Note_off_c, 0, 53, 35
1, 353133, Note_off_c, 0, 38, 54
1, 353239, Note_on_c, 0, 64, 66
1, 353264, Note_off_c, 0, 64, 67
1, 353286, Note_on_c, 0, 65, 45
1, 353312, Note_off_c, 0, 65, 56
1, 353327, Note_on_c, 0, 64, 86
1, 353351, Note_off_c, 0, 64, 69
1, 353354, Note_on_c, 0, 68, 42
1, 353383, Note_off_c, 0, 68, 35
1, 353411, Note_on_c, 0, 69, 40
1, 353423, Note_on_c, 0, 65, 53
1, 353460, Note_off_c, 0, 65, 65
1, 353460, Note_off_c, 0, 69, 66
1, 353485, Note_on_c, 0, 70, 78
1, 353486, Note_on_c, 0, 66, 69
1, 353506, Note_off_c, 0, 70, 72
1, 353514, Note_off_c, 0, 66, 69
1, 353537, Note_on_c, 0, 71, 71
1, 353539, Note_on_c, 0, 67, 73
1, 353562, Note_off_c, 0, 67, 70
1, 353566, Note_off_c, 0, 71, 63
1, 353613, Note_on_c, 0, 70, 73
1, 353634, Note_off_c, 0, 70, 71
1, 353680, Note_on_c, 0, 71, 79
1, 353682, Note_on_c, 0, 74, 77
1, 353703, Note_off_c, 0, 71, 66
1, 353706, Note_off_c, 0, 74, 67
1, 353721, Note_on_c, 0, 70, 96
1, 353734, Note_on_c, 0, 73, 66
1, 353751, Note_off_c, 0, 73, 67
1, 353755, Note_off_c, 0, 70, 65
1, 353786, Note_on_c, 0, 77, 85
1, 353814, Note_on_c, 0, 74, 37
1, 353818, Note_off_c, 0, 77, 65
1, 353840, Note_on_c, 0, 71, 98
1, 353840, Note_off_c, 0, 74, 0
1, 353840, Note_on_c, 0, 74, 53
1, 353879, Note_off_c, 0, 74, 65
1, 353882, Note_off_c, 0, 71, 59
1, 353906, Note_on_c, 0, 79, 72
1, 353918, Note_on_c, 0, 75, 62
1, 353930, Note_off_c, 0, 79, 63
1, 353936, Note_off_c, 0, 75, 63
1, 353953, Note_on_c, 0, 76, 79
1, 353983, Note_on_c, 0, 73, 43
1, 353992, Note_off_c, 0, 76, 63
1, 354009, Note_off_c, 0, 73, 56
1, 354024, Note_on_c, 0, 80, 78
1, 354043, Note_off_c, 0, 80, 70
1, 354078, Note_on_c, 0, 73, 72
1, 354104, Note_on_c, 0, 76, 42
1, 354105, Note_off_c, 0, 73, 64
1, 354116, Note_on_c, 0, 77, 16
1, 354132, Note_off_c, 0, 76, 56
1, 354161, Note_off_c, 0, 77, 38
1, 354180, Note_on_c, 0, 78, 64
1, 354198, Note_off_c, 0, 78, 64
1, 354198, Note_on_c, 0, 82, 28
1, 354198, Note_off_c, 0, 82, 127
1, 354230, Note_on_c, 0, 76, 69
1, 354250, Note_on_c, 0, 79, 47
1, 354271, Note_off_c, 0, 76, 50
1, 354277, Note_off_c, 0, 79, 58
1, 354325, Note_on_c, 0, 80, 46
1, 354347, Note_off_c, 0, 80, 58
1, 354487, Note_on_c, 0, 74, 35
1, 354491, Note_on_c, 0, 86, 45
1, 354493, Note_on_c, 0, 77, 41
1, 354494, Note_on_c, 0, 81, 45
1, 354510, Control_c, 0, 64, 45
1, 354518, Note_off_c, 0, 77, 58
1, 354523, Note_off_c, 0, 74, 63
1, 354525, Control_c, 0, 64, 62
1, 354526, Note_off_c, 0, 81, 64
1, 354529, Note_off_c, 0, 86, 56
1, 354540, Control_c, 0, 64, 70
1, 354555, Control_c, 0, 64, 84
1, 354570, Control_c, 0, 64, 127
1, 354747, Control_c, 0, 67, 66
1, 354762, Control_c, 0, 67, 0
1, 355065, Control_c, 0, 64, 87
1, 355080, Control_c, 0, 64, 57
1, 355095, Control_c, 0, 64, 0
1, 355369, Note_on_c, 0, 49, 49
1, 355397, Note_off_c, 0, 49, 56
1, 355491, Note_on_c, 0, 50, 99
1, 355491, Note_on_c, 0, 58, 106
1, 355491, Note_on_c, 0, 62, 93
1, 355494, Note_on_c, 0, 53, 92
1, 355495, Note_on_c, 0, 41, 91
1, 355498, Note_on_c, 0, 65, 78
1, 355526, Control_c, 0, 64, 68
1, 355528, Note_off_c, 0, 53, 67
1, 355531, Note_off_c, 0, 41, 66
1, 355532, Note_on_c, 0, 61, 25
1, 355532, Note_off_c, 0, 61, 127
1, 355533, Note_off_c, 0, 50, 66
1, 355541, Control_c, 0, 64, 127
1, 355573, Note_on_c, 0, 57, 99
1, 355584, Note_off_c, 0, 65, 56
1, 355593, Note_off_c, 0, 62, 61
1, 355595, Note_off_c, 0, 58, 61
1, 355605, Note_off_c, 0, 57, 69
1, 355615, Control_c, 0, 64, 78
1, 355630, Control_c, 0, 64, 42
1, 355644, Note_on_c, 0, 49, 85
1, 355644, Control_c, 0, 64, 0
1, 355645, Note_on_c, 0, 57, 74
1, 355652, Note_on_c, 0, 52, 65
1, 355667, Note_off_c, 0, 49, 69
1, 355669, Note_off_c, 0, 57, 67
1, 355682, Note_off_c, 0, 52, 62
1, 355820, Note_on_c, 0, 62, 95
1, 355822, Note_on_c, 0, 50, 100
1, 355825, Note_on_c, 0, 58, 100
1, 355825, Note_on_c, 0, 41, 91
1, 355825, Note_on_c, 0, 53, 98
1, 355834, Note_on_c, 0, 65, 76
1, 355845, Control_c, 0, 64, 50
1, 355854, Note_off_c, 0, 53, 65
1, 355859, Control_c, 0, 64, 127
1, 355860, Note_off_c, 0, 50, 67
1, 355861, Note_off_c, 0, 41, 65
1, 355879, Note_off_c, 0, 62, 57
1, 355891, Note_off_c, 0, 58, 66
1, 355900, Note_on_c, 0, 57, 87
1, 355919, Note_off_c, 0, 65, 58
1, 355919, Control_c, 0, 64, 88
1, 355925, Note_off_c, 0, 57, 69
1, 355928, Note_on_c, 0, 59, 54
1, 355933, Control_c, 0, 64, 62
1, 355948, Control_c, 0, 64, 0
1, 355956, Note_off_c, 0, 59, 58
1, 355988, Note_on_c, 0, 49, 89
1, 355993, Note_on_c, 0, 52, 79
1, 355994, Note_on_c, 0, 57, 87
1, 356017, Note_off_c, 0, 52, 67
1, 356017, Note_off_c, 0, 57, 71
1, 356034, Note_off_c, 0, 49, 64
1, 356141, Note_on_c, 0, 62, 91
1, 356143, Note_on_c, 0, 58, 102
1, 356144, Note_on_c, 0, 50, 102
1, 356149, Note_on_c, 0, 53, 92
1, 356150, Note_on_c, 0, 41, 93
1, 356152, Note_on_c, 0, 65, 75
1, 356172, Control_c, 0, 64, 65
1, 356186, Note_off_c, 0, 41, 66
1, 356186, Note_off_c, 0, 50, 68
1, 356187, Control_c, 0, 64, 127
1, 356192, Note_off_c, 0, 53, 62
1, 356195, Note_off_c, 0, 62, 58
1, 356197, Note_off_c, 0, 58, 68
1, 356209, Note_off_c, 0, 65, 39
1, 356212, Note_on_c, 0, 57, 83
1, 356235, Note_off_c, 0, 57, 71
1, 356290, Note_on_c, 0, 57, 80
1, 356290, Control_c, 0, 64, 90
1, 356305, Note_on_c, 0, 55, 73
1, 356305, Control_c, 0, 64, 57
1, 356313, Note_on_c, 0, 48, 68
1, 356316, Note_off_c, 0, 57, 67
1, 356320, Control_c, 0, 64, 0
1, 356326, Note_off_c, 0, 55, 62
1, 356338, Note_off_c, 0, 48, 58
1, 356345, Note_on_c, 0, 49, 17
1, 356345, Note_off_c, 0, 49, 127
1, 356458, Note_on_c, 0, 61, 107
1, 356460, Note_on_c, 0, 37, 105
1, 356463, Note_on_c, 0, 49, 79
1, 356472, Note_on_c, 0, 48, 82
1, 356476, Control_c, 0, 64, 103
1, 356481, Note_off_c, 0, 49, 67
1, 356481, Note_on_c, 0, 47, 64
1, 356481, Note_off_c, 0, 37, 70
1, 356485, Note_off_c, 0, 61, 71
1, 356490, Control_c, 0, 64, 127
1, 356500, Note_on_c, 0, 63, 19
1, 356501, Note_off_c, 0, 48, 67
1, 356505, Note_off_c, 0, 47, 61
1, 356532, Note_off_c, 0, 63, 55
1, 356660, Note_on_c, 0, 44, 71
1, 356662, Note_on_c, 0, 65, 70
1, 356702, Note_off_c, 0, 44, 61
1, 356725, Note_on_c, 0, 68, 85
1, 356736, Note_off_c, 0, 65, 53
1, 356786, Note_on_c, 0, 73, 97
1, 356789, Note_on_c, 0, 53, 77
1, 356791, Note_off_c, 0, 68, 58
1, 356812, Note_off_c, 0, 73, 70
1, 356823, Note_off_c, 0, 53, 64
1, 356861, Note_on_c, 0, 76, 93
1, 356942, Note_on_c, 0, 61, 58
1, 356952, Note_off_c, 0, 76, 62
1, 356955, Note_on_c, 0, 78, 55
1, 356959, Note_on_c, 0, 79, 65
1, 356966, Note_off_c, 0, 61, 56
1, 356988, Note_off_c, 0, 78, 49
1, 357000, Note_on_c, 0, 84, 74
1, 357008, Note_off_c, 0, 79, 63
1, 357021, Note_on_c, 0, 83, 63
1, 357036, Note_on_c, 0, 89, 97
1, 357036, Note_off_c, 0, 84, 68
1, 357037, Note_on_c, 0, 61, 95
1, 357038, Note_on_c, 0, 56, 93
1, 357038, Note_on_c, 0, 65, 97
1, 357038, Note_on_c, 0, 85, 64
1, 357038, Note_off_c, 0, 83, 65
1, 357041, Note_on_c, 0, 77, 101
1, 357052, Note_off_c, 0, 65, 77
1, 357054, Note_on_c, 0, 53, 64
1, 357056, Note_off_c, 0, 61, 73
1, 357059, Note_off_c, 0, 56, 70
1, 357065, Note_off_c, 0, 85, 67
1, 357067, Note_off_c, 0, 89, 67
1, 357068, Note_off_c, 0, 77, 68
1, 357071, Note_off_c, 0, 53, 69
1, 357179, Control_c, 0, 64, 92
1, 357194, Control_c, 0, 64, 60
1, 357208, Control_c, 0, 64, 0
1, 357363, Note_on_c, 0, 50, 101
1, 357363, Note_on_c, 0, 53, 98
1, 357364, Note_on_c, 0, 41, 90
1, 357365, Note_on_c, 0, 62, 88
1, 357367, Note_on_c, 0, 58, 103
1, 357368, Note_on_c, 0, 65, 82
1, 357386, Control_c, 0, 64, 52
1, 357399, Note_on_c, 0, 61, 39
1, 357399, Note_off_c, 0, 50, 67
1, 357401, Note_off_c, 0, 53, 65
1, 357401, Control_c, 0, 64, 76
1, 357403, Note_off_c, 0, 41, 65
1, 357416, Control_c, 0, 64, 83
1, 357427, Note_off_c, 0, 61, 57
1, 357430, Control_c, 0, 64, 81
1, 357441, Note_on_c, 0, 57, 96
1, 357441, Note_off_c, 0, 58, 56
1, 357445, Control_c, 0, 64, 61
1, 357453, Note_off_c, 0, 62, 40
1, 357460, Control_c, 0, 64, 0
1, 357470, Note_off_c, 0, 65, 61
1, 357477, Note_off_c, 0, 57, 67
1, 357531, Note_on_c, 0, 52, 53
1, 357534, Note_on_c, 0, 55, 57
1, 357536, Note_on_c, 0, 48, 73
1, 357536, Note_on_c, 0, 57, 62
1, 357556, Note_off_c, 0, 57, 63
1, 357560, Note_off_c, 0, 52, 57
1, 357560, Note_off_c, 0, 55, 60
1, 357560, Note_off_c, 0, 48, 62
1, 357663, Note_on_c, 0, 62, 95
1, 357666, Note_on_c, 0, 58, 101
1, 357668, Note_on_c, 0, 41, 88
1, 357669, Note_on_c, 0, 50, 93
1, 357671, Note_on_c, 0, 53, 89
1, 357675, Note_on_c, 0, 65, 78
1, 357680, Note_on_c, 0, 52, 73
1, 357684, Control_c, 0, 64, 60
1, 357699, Control_c, 0, 64, 69
1, 357703, Note_off_c, 0, 52, 55
1, 357706, Note_off_c, 0, 53, 59
1, 357708, Note_off_c, 0, 50, 65
1, 357709, Note_off_c, 0, 41, 58
1, 357712, Note_on_c, 0, 43, 34
1, 357714, Control_c, 0, 64, 68
1, 357728, Control_c, 0, 64, 66
1, 357733, Note_on_c, 0, 57, 93
1, 357740, Note_off_c, 0, 58, 54
1, 357743, Control_c, 0, 64, 63
1, 357751, Note_off_c, 0, 43, 46
1, 357753, Note_off_c, 0, 65, 56
1, 357754, Note_off_c, 0, 62, 57
1, 357758, Control_c, 0, 64, 59
1, 357769, Note_off_c, 0, 57, 66
1, 357773, Control_c, 0, 64, 36
1, 357788, Control_c, 0, 64, 0
1, 357811, Note_on_c, 0, 49, 82
1, 357825, Note_on_c, 0, 52, 61
1, 357825, Note_on_c, 0, 57, 63
1, 357849, Note_off_c, 0, 52, 63
1, 357852, Note_off_c, 0, 57, 65
1, 357857, Note_off_c, 0, 49, 63
1, 357963, Note_on_c, 0, 50, 97
1, 357963, Note_on_c, 0, 62, 92
1, 357965, Note_on_c, 0, 41, 90
1, 357966, Note_on_c, 0, 58, 101
1, 357968, Note_on_c, 0, 53, 88
1, 357975, Note_on_c, 0, 65, 68
1, 357988, Control_c, 0, 64, 49
1, 358001, Note_off_c, 0, 53, 65
1, 358002, Control_c, 0, 64, 83
1, 358007, Note_off_c, 0, 41, 65
1, 358010, Note_off_c, 0, 50, 65
1, 358017, Control_c, 0, 64, 127
1, 358033, Note_off_c, 0, 58, 52
1, 358035, Note_on_c, 0, 57, 95
1, 358040, Note_off_c, 0, 62, 59
1, 358043, Note_off_c, 0, 65, 54
1, 358061, Note_off_c, 0, 57, 66
1, 358076, Control_c, 0, 64, 77
1, 358091, Control_c, 0, 64, 49
1, 358100, Note_on_c, 0, 57, 76
1, 358103, Note_on_c, 0, 49, 82
1, 358106, Control_c, 0, 64, 0
1, 358125, Note_off_c, 0, 57, 67
1, 358138, Note_off_c, 0, 49, 65
1, 358253, Note_on_c, 0, 60, 107
1, 358259, Note_on_c, 0, 36, 93
1, 358260, Note_on_c, 0, 48, 98
1, 358270, Control_c, 0, 64, 49
1, 358282, Note_off_c, 0, 36, 73
1, 358285, Control_c, 0, 64, 127
1, 358285, Note_off_c, 0, 48, 68
1, 358287, Note_off_c, 0, 60, 67
1, 358335, Note_on_c, 0, 62, 11
1, 358383, Note_off_c, 0, 62, 44
1, 358451, Note_on_c, 0, 65, 67
1, 358455, Note_on_c, 0, 45, 72
1, 358484, Note_off_c, 0, 65, 57
1, 358509, Note_on_c, 0, 69, 80
1, 358509, Note_off_c, 0, 45, 61
1, 358563, Note_off_c, 0, 69, 59
1, 358568, Note_on_c, 0, 53, 69
1, 358587, Note_on_c, 0, 72, 86
1, 358605, Note_off_c, 0, 72, 70
1, 358618, Note_off_c, 0, 53, 60
1, 358662, Note_on_c, 0, 77, 89
1, 358724, Note_on_c, 0, 60, 59
1, 358736, Note_on_c, 0, 81, 95
1, 358746, Note_off_c, 0, 77, 62
1, 358779, Note_off_c, 0, 60, 62
1, 358794, Poly_aftertouch_c, 0, 59, 127
1, 358798, Note_on_c, 0, 84, 92
1, 358818, Note_off_c, 0, 81, 68
1, 358827, Poly_aftertouch_c, 0, 59, 0
1, 358839, Note_on_c, 0, 60, 85
1, 358840, Note_on_c, 0, 57, 92
1, 358840, Note_on_c, 0, 65, 95
1, 358840, Note_on_c, 0, 77, 106
1, 358843, Note_on_c, 0, 89, 95
1, 358847, Note_on_c, 0, 53, 77
1, 358856, Note_on_c, 0, 86, 72
1, 358857, Note_off_c, 0, 84, 69
1, 358860, Note_off_c, 0, 65, 70
1, 358861, Note_off_c, 0, 60, 71
1, 358869, Note_off_c, 0, 57, 66
1, 358870, Note_off_c, 0, 53, 67
1, 358870, Note_off_c, 0, 77, 70
1, 358871, Note_off_c, 0, 89, 69
1, 358872, Note_off_c, 0, 86, 66
1, 358989, Control_c, 0, 64, 105
1, 359004, Control_c, 0, 64, 66
1, 359019, Control_c, 0, 64, 0
1, 359149, Note_on_c, 0, 50, 99
1, 359150, Note_on_c, 0, 62, 90
1, 359151, Note_on_c, 0, 41, 86
1, 359152, Note_on_c, 0, 53, 92
1, 359155, Note_on_c, 0, 58, 102
1, 359155, Note_on_c, 0, 65, 85
1, 359167, Control_c, 0, 64, 64
1, 359182, Control_c, 0, 64, 85
1, 359184, Note_on_c, 0, 61, 54
1, 359191, Note_off_c, 0, 50, 66
1, 359191, Note_off_c, 0, 53, 63
1, 359195, Note_off_c, 0, 41, 65
1, 359197, Control_c, 0, 64, 93
1, 359209, Note_off_c, 0, 61, 58
1, 359212, Control_c, 0, 64, 87
1, 359227, Note_on_c, 0, 57, 93
1, 359227, Control_c, 0, 64, 64
1, 359242, Control_c, 0, 64, 0
1, 359244, Note_off_c, 0, 58, 62
1, 359244, Note_off_c, 0, 62, 62
1, 359244, Note_off_c, 0, 65, 60
1, 359262, Note_off_c, 0, 57, 65
1, 359292, Note_on_c, 0, 49, 83
1, 359299, Note_on_c, 0, 52, 75
1, 359301, Note_on_c, 0, 57, 64
1, 359325, Note_off_c, 0, 52, 65
1, 359328, Note_off_c, 0, 57, 67
1, 359343, Note_off_c, 0, 49, 65
1, 359453, Note_on_c, 0, 50, 93
1, 359454, Note_on_c, 0, 62, 89
1, 359459, Note_on_c, 0, 41, 85
1, 359459, Note_on_c, 0, 58, 101
1, 359459, Note_on_c, 0, 53, 89
1, 359464, Note_on_c, 0, 65, 75
1, 359471, Control_c, 0, 64, 41
1, 359486, Control_c, 0, 64, 69
1, 359500, Note_off_c, 0, 53, 61
1, 359501, Control_c, 0, 64, 71
1, 359503, Note_off_c, 0, 50, 65
1, 359504, Note_off_c, 0, 41, 64
1, 359516, Control_c, 0, 64, 68
1, 359522, Note_off_c, 0, 58, 63
1, 359530, Note_off_c, 0, 62, 56
1, 359531, Note_on_c, 0, 57, 82
1, 359531, Control_c, 0, 64, 57
1, 359545, Control_c, 0, 64, 0
1, 359547, Note_off_c, 0, 65, 59
1, 359555, Note_off_c, 0, 57, 68
1, 359602, Note_on_c, 0, 57, 82
1, 359603, Note_on_c, 0, 49, 81
1, 359605, Note_on_c, 0, 52, 75
1, 359631, Note_off_c, 0, 52, 66
1, 359636, Note_off_c, 0, 57, 64
1, 359656, Note_off_c, 0, 49, 63
1, 359753, Note_on_c, 0, 41, 91
1, 359753, Note_on_c, 0, 50, 94
1, 359759, Note_on_c, 0, 53, 87
1, 359760, Note_on_c, 0, 62, 85
1, 359760, Note_on_c, 0, 58, 97
1, 359769, Note_on_c, 0, 65, 75
1, 359781, Control_c, 0, 64, 51
1, 359796, Control_c, 0, 64, 75
1, 359798, Note_off_c, 0, 53, 63
1, 359805, Note_off_c, 0, 41, 64
1, 359805, Note_off_c, 0, 50, 65
1, 359811, Control_c, 0, 64, 88
1, 359821, Note_off_c, 0, 62, 55
1, 359822, Note_off_c, 0, 58, 66
1, 359826, Control_c, 0, 64, 89
1, 359835, Note_on_c, 0, 57, 91
1, 359841, Control_c, 0, 64, 86
1, 359852, Note_off_c, 0, 65, 49
1, 359855, Control_c, 0, 64, 80
1, 359870, Control_c, 0, 64, 72
1, 359874, Note_off_c, 0, 57, 64
1, 359885, Control_c, 0, 64, 61
1, 359896, Note_on_c, 0, 49, 85
1, 359900, Control_c, 0, 64, 38
1, 359903, Note_on_c, 0, 57, 56
1, 359915, Control_c, 0, 64, 0
1, 359924, Note_off_c, 0, 57, 65
1, 359927, Note_on_c, 0, 52, 24
1, 359931, Note_off_c, 0, 49, 65
1, 359976, Note_off_c, 0, 52, 48
1, 360043, Note_on_c, 0, 57, 92
1, 360051, Note_on_c, 0, 45, 104
1, 360052, Note_on_c, 0, 33, 96
1, 360073, Note_off_c, 0, 33, 72
1, 360079, Control_c, 0, 64, 83
1, 360087, Note_off_c, 0, 57, 66
1, 360088, Note_off_c, 0, 45, 65
1, 360094, Control_c, 0, 64, 127
1, 360256, Note_on_c, 0, 50, 82
1, 360261, Note_on_c, 0, 65, 72
1, 360312, Note_off_c, 0, 50, 62
1, 360312, Note_off_c, 0, 65, 60
1, 360316, Note_on_c, 0, 69, 84
1, 360369, Note_on_c, 0, 53, 77
1, 360377, Note_off_c, 0, 69, 57
1, 360378, Note_on_c, 0, 74, 93
1, 360406, Note_off_c, 0, 53, 61
1, 360412, Note_off_c, 0, 74, 68
1, 360468, Note_on_c, 0, 77, 85
1, 360495, Note_on_c, 0, 62, 85
1, 360524, Note_on_c, 0, 81, 92
1, 360530, Note_off_c, 0, 77, 64
1, 360566, Note_off_c, 0, 62, 59
1, 360592, Note_on_c, 0, 86, 69
1, 360604, Note_off_c, 0, 81, 63
1, 360615, Note_on_c, 0, 89, 100
1, 360618, Note_on_c, 0, 77, 104
1, 360619, Note_on_c, 0, 65, 94
1, 360621, Note_on_c, 0, 62, 81
1, 360625, Note_on_c, 0, 57, 76
1, 360628, Note_on_c, 0, 53, 68
1, 360639, Note_off_c, 0, 86, 68
1, 360643, Note_off_c, 0, 65, 65
1, 360645, Note_off_c, 0, 77, 71
1, 360646, Note_off_c, 0, 62, 67
1, 360647, Note_off_c, 0, 57, 70
1, 360647, Note_off_c, 0, 89, 68
1, 360648, Note_off_c, 0, 53, 64
1, 360738, Control_c, 0, 64, 110
1, 360753, Control_c, 0, 64, 72
1, 360768, Control_c, 0, 64, 43
1, 360783, Control_c, 0, 64, 0
1, 360941, Note_on_c, 0, 72, 73
1, 360945, Note_on_c, 0, 69, 63
1, 360964, Note_on_c, 0, 64, 37
1, 360969, Note_off_c, 0, 72, 63
1, 360972, Note_off_c, 0, 69, 68
1, 360988, Note_on_c, 0, 70, 77
1, 360995, Note_on_c, 0, 65, 65
1, 361000, Note_off_c, 0, 64, 33
1, 361006, Note_on_c, 0, 73, 73
1, 361024, Note_off_c, 0, 65, 64
1, 361034, Note_off_c, 0, 70, 60
1, 361036, Note_off_c, 0, 73, 57
1, 361066, Note_on_c, 0, 74, 87
1, 361073, Note_on_c, 0, 71, 77
1, 361079, Note_on_c, 0, 67, 68
1, 361098, Note_off_c, 0, 71, 66
1, 361105, Note_off_c, 0, 67, 68
1, 361113, Note_off_c, 0, 74, 65
1, 361122, Note_on_c, 0, 68, 83
1, 361127, Note_on_c, 0, 72, 36
1, 361128, Note_on_c, 0, 75, 84
1, 361147, Note_off_c, 0, 75, 71
1, 361150, Note_off_c, 0, 68, 65
1, 361154, Note_off_c, 0, 72, 62
1, 361184, Note_on_c, 0, 69, 103
1, 361185, Note_on_c, 0, 76, 104
1, 361188, Note_on_c, 0, 73, 76
1, 361198, Note_off_c, 0, 69, 77
1, 361208, Note_off_c, 0, 73, 62
1, 361210, Note_off_c, 0, 76, 66
1, 361505, Note_on_c, 0, 64, 108
1, 361512, Note_on_c, 0, 40, 86
1, 361513, Note_on_c, 0, 53, 85
1, 361518, Note_on_c, 0, 52, 84
1, 361531, Control_c, 0, 64, 45
1, 361546, Note_off_c, 0, 64, 70
1, 361546, Control_c, 0, 64, 89
1, 361547, Note_off_c, 0, 53, 67
1, 361549, Note_off_c, 0, 52, 67
1, 361552, Note_off_c, 0, 40, 66
1, 361561, Control_c, 0, 64, 127
1, 361564, Note_on_c, 0, 66, 11
1, 361616, Note_off_c, 0, 66, 38
1, 361749, Note_on_c, 0, 58, 53
1, 361762, Control_c, 0, 64, 81
1, 361776, Control_c, 0, 64, 48
1, 361791, Control_c, 0, 64, 0
1, 361793, Note_off_c, 0, 58, 63
1, 361859, Note_on_c, 0, 65, 104
1, 361861, Note_on_c, 0, 58, 100
1, 361864, Note_on_c, 0, 53, 96
1, 361867, Note_on_c, 0, 81, 101
1, 361869, Note_on_c, 0, 69, 107
1, 361891, Note_off_c, 0, 65, 68
1, 361894, Control_c, 0, 64, 85
1, 361903, Note_off_c, 0, 53, 63
1, 361906, Note_off_c, 0, 58, 66
1, 361909, Control_c, 0, 64, 127
1, 361930, Note_off_c, 0, 69, 56
1, 362088, Note_on_c, 0, 74, 88
1, 362100, Note_on_c, 0, 47, 54
1, 362103, Note_off_c, 0, 81, 58
1, 362124, Note_off_c, 0, 47, 0
1, 362143, Note_on_c, 0, 47, 54
1, 362154, Note_off_c, 0, 74, 64
1, 362161, Note_on_c, 0, 69, 80
1, 362200, Note_off_c, 0, 69, 60
1, 362209, Note_off_c, 0, 47, 59
1, 362237, Note_on_c, 0, 44, 58
1, 362240, Note_on_c, 0, 69, 77
1, 362262, Note_on_c, 0, 67, 56
1, 362279, Note_off_c, 0, 44, 60
1, 362283, Note_off_c, 0, 67, 60
1, 362299, Poly_aftertouch_c, 0, 46, 127
1, 362300, Note_on_c, 0, 43, 84
1, 362316, Note_on_c, 0, 64, 87
1, 362327, Note_off_c, 0, 69, 62
1, 362331, Poly_aftertouch_c, 0, 46, 0
1, 362354, Note_off_c, 0, 43, 63
1, 362362, Note_off_c, 0, 64, 66
1, 362373, Note_on_c, 0, 42, 88
1, 362378, Note_on_c, 0, 57, 78
1, 362437, Note_off_c, 0, 57, 62
1, 362443, Note_off_c, 0, 42, 63
1, 362449, Note_on_c, 0, 41, 95
1, 362467, Note_on_c, 0, 57, 73
1, 362492, Note_off_c, 0, 41, 67
1, 362497, Control_c, 0, 64, 93
1, 362511, Control_c, 0, 64, 55
1, 362523, Note_on_c, 0, 40, 102
1, 362526, Control_c, 0, 64, 0
1, 362531, Note_on_c, 0, 33, 95
1, 362550, Note_on_c, 0, 50, 89
1, 362555, Note_on_c, 0, 49, 61
1, 362571, Control_c, 0, 64, 50
1, 362580, Note_off_c, 0, 40, 65
1, 362580, Note_off_c, 0, 50, 66
1, 362580, Note_off_c, 0, 33, 66
1, 362580, Note_off_c, 0, 49, 59
1, 362586, Control_c, 0, 64, 81
1, 362586, Note_off_c, 0, 57, 65
1, 362600, Control_c, 0, 64, 127
1, 362763, Control_c, 0, 64, 123
1, 362778, Control_c, 0, 64, 77
1, 362792, Control_c, 0, 64, 56
1, 362807, Control_c, 0, 64, 0
1, 362947, Note_on_c, 0, 86, 91
1, 362948, Note_on_c, 0, 62, 93
1, 362949, Note_on_c, 0, 89, 83
1, 362950, Note_on_c, 0, 81, 87
1, 362951, Note_on_c, 0, 65, 95
1, 362952, Note_on_c, 0, 57, 82
1, 362956, Note_on_c, 0, 53, 82
1, 362960, Note_on_c, 0, 83, 82
1, 362970, Control_c, 0, 64, 54
1, 362979, Note_off_c, 0, 83, 40
1, 362985, Control_c, 0, 64, 127
1, 362998, Note_off_c, 0, 65, 65
1, 363000, Note_off_c, 0, 62, 65
1, 363008, Note_off_c, 0, 53, 63
1, 363015, Note_off_c, 0, 57, 64
1, 363015, Note_off_c, 0, 89, 63
1, 363026, Note_off_c, 0, 86, 62
1, 363028, Note_off_c, 0, 81, 64
1, 363039, Note_on_c, 0, 77, 92
1, 363069, Note_off_c, 0, 77, 62
1, 363108, Note_on_c, 0, 61, 77
1, 363111, Note_on_c, 0, 64, 78
1, 363116, Note_on_c, 0, 69, 70
1, 363117, Note_on_c, 0, 81, 94
1, 363118, Control_c, 0, 64, 105
1, 363126, Note_on_c, 0, 76, 87
1, 363133, Note_off_c, 0, 64, 69
1, 363133, Control_c, 0, 64, 70
1, 363138, Note_off_c, 0, 69, 70
1, 363143, Note_off_c, 0, 81, 65
1, 363144, Note_off_c, 0, 76, 73
1, 363148, Control_c, 0, 64, 0
1, 363151, Note_off_c, 0, 61, 62
1, 363258, Note_on_c, 0, 81, 104
1, 363262, Note_on_c, 0, 86, 91
1, 363265, Note_on_c, 0, 89, 88
1, 363268, Note_on_c, 0, 62, 93
1, 363269, Note_on_c, 0, 57, 88
1, 363271, Note_on_c, 0, 65, 91
1, 363275, Control_c, 0, 64, 30
1, 363277, Note_on_c, 0, 53, 80
1, 363289, Control_c, 0, 64, 79
1, 363303, Note_off_c, 0, 81, 66
1, 363304, Control_c, 0, 64, 127
1, 363312, Note_off_c, 0, 89, 53
1, 363313, Note_off_c, 0, 62, 65
1, 363316, Note_off_c, 0, 65, 62
1, 363319, Note_off_c, 0, 86, 57
1, 363326, Note_off_c, 0, 53, 57
1, 363340, Note_off_c, 0, 57, 62
1, 363343, Note_on_c, 0, 77, 99
1, 363377, Note_off_c, 0, 77, 68
1, 363421, Note_on_c, 0, 81, 88
1, 363428, Note_on_c, 0, 61, 78
1, 363429, Note_on_c, 0, 69, 81
1, 363431, Note_on_c, 0, 64, 75
1, 363438, Control_c, 0, 64, 94
1, 363442, Note_on_c, 0, 76, 57
1, 363450, Note_off_c, 0, 81, 64
1, 363453, Control_c, 0, 64, 67
1, 363456, Note_off_c, 0, 64, 70
1, 363459, Note_off_c, 0, 69, 64
1, 363462, Note_off_c, 0, 76, 61
1, 363467, Control_c, 0, 64, 0
1, 363475, Note_off_c, 0, 61, 64
1, 363558, Note_on_c, 0, 81, 93
1, 363560, Note_on_c, 0, 86, 88
1, 363563, Note_on_c, 0, 89, 76
1, 363567, Note_on_c, 0, 62, 94
1, 363567, Note_on_c, 0, 57, 87
1, 363570, Note_on_c, 0, 65, 96
1, 363575, Note_on_c, 0, 53, 73
1, 363586, Control_c, 0, 64, 73
1, 363587, Note_off_c, 0, 89, 63
1, 363588, Note_on_c, 0, 84, 49
1, 363588, Note_off_c, 0, 84, 127
1, 363598, Note_off_c, 0, 81, 67
1, 363600, Control_c, 0, 64, 127
1, 363608, Note_off_c, 0, 86, 64
1, 363618, Note_off_c, 0, 65, 62
1, 363626, Note_off_c, 0, 53, 59
1, 363636, Note_off_c, 0, 57, 63
1, 363638, Note_off_c, 0, 62, 58
1, 363647, Note_on_c, 0, 77, 101
1, 363679, Note_on_c, 0, 82, 37
1, 363679, Note_off_c, 0, 82, 127
1, 363679, Note_off_c, 0, 77, 66
1, 363713, Note_on_c, 0, 69, 90
1, 363716, Note_on_c, 0, 61, 93
1, 363717, Note_on_c, 0, 81, 93
1, 363722, Note_on_c, 0, 77, 77
1, 363724, Note_on_c, 0, 64, 63
1, 363725, Note_on_c, 0, 76, 70
1, 363730, Note_on_c, 0, 79, 69
1, 363731, Note_off_c, 0, 69, 71
1, 363742, Note_off_c, 0, 64, 67
1, 363742, Note_off_c, 0, 77, 72
1, 363746, Note_off_c, 0, 61, 64
1, 363746, Note_off_c, 0, 76, 71
1, 363746, Note_off_c, 0, 79, 67
1, 363748, Note_off_c, 0, 81, 64
1, 363793, Control_c, 0, 64, 103
1, 363808, Control_c, 0, 64, 69
1, 363823, Control_c, 0, 64, 0
1, 363994, Note_on_c, 0, 33, 73
1, 363996, Note_on_c, 0, 57, 69
1, 363999, Note_on_c, 0, 45, 68
1, 364019, Note_off_c, 0, 33, 64
1, 364026, Note_off_c, 0, 45, 65
1, 364030, Note_off_c, 0, 57, 62
1, 364072, Note_on_c, 0, 58, 77
1, 364109, Note_off_c, 0, 58, 60
1, 364109, Note_on_c, 0, 35, 71
1, 364112, Note_on_c, 0, 47, 71
1, 364138, Note_off_c, 0, 35, 65
1, 364145, Note_on_c, 0, 59, 82
1, 364151, Note_off_c, 0, 47, 63
1, 364181, Note_off_c, 0, 59, 65
1, 364219, Note_on_c, 0, 60, 88
1, 364230, Note_on_c, 0, 36, 82
1, 364230, Note_on_c, 0, 48, 93
1, 364257, Note_off_c, 0, 48, 68
1, 364261, Note_off_c, 0, 36, 66
1, 364262, Note_off_c, 0, 60, 66
1, 364295, Note_on_c, 0, 61, 100
1, 364304, Control_c, 0, 64, 46
1, 364319, Control_c, 0, 64, 127
1, 364322, Note_on_c, 0, 37, 95
1, 364324, Note_on_c, 0, 49, 88
1, 364328, Note_off_c, 0, 61, 69
1, 364345, Note_off_c, 0, 49, 70
1, 364347, Note_off_c, 0, 37, 70
1, 364353, Note_on_c, 0, 51, 53
1, 364378, Note_off_c, 0, 51, 60
1, 364410, Note_on_c, 0, 65, 92
1, 364483, Note_on_c, 0, 68, 95
1, 364498, Note_off_c, 0, 65, 58
1, 364516, Note_on_c, 0, 46, 53
1, 364553, Note_off_c, 0, 46, 58
1, 364558, Note_on_c, 0, 73, 89
1, 364566, Note_off_c, 0, 68, 66
1, 364610, Note_on_c, 0, 53, 77
1, 364619, Note_on_c, 0, 77, 107
1, 364619, Note_on_c, 0, 65, 97
1, 364628, Note_on_c, 0, 61, 98
1, 364644, Note_off_c, 0, 73, 62
1, 364647, Note_off_c, 0, 65, 64
1, 364655, Note_off_c, 0, 61, 62
1, 364656, Note_off_c, 0, 53, 64
1, 364671, Note_off_c, 0, 77, 72
1, 364741, Control_c, 0, 64, 93
1, 364756, Control_c, 0, 64, 67
1, 364771, Control_c, 0, 64, 0
1, 364938, Note_on_c, 0, 86, 94
1, 364939, Note_on_c, 0, 81, 98
1, 364940, Note_on_c, 0, 62, 99
1, 364940, Note_on_c, 0, 89, 88
1, 364941, Note_on_c, 0, 65, 96
1, 364942, Note_on_c, 0, 57, 84
1, 364949, Note_on_c, 0, 53, 78
1, 364965, Control_c, 0, 64, 64
1, 364978, Note_off_c, 0, 65, 67
1, 364980, Control_c, 0, 64, 127
1, 364981, Note_off_c, 0, 53, 63
1, 364983, Note_off_c, 0, 62, 65
1, 364984, Note_off_c, 0, 81, 66
1, 364991, Note_off_c, 0, 86, 65
1, 364992, Note_off_c, 0, 57, 64
1, 364995, Note_off_c, 0, 89, 61
1, 365025, Note_on_c, 0, 77, 99
1, 365056, Note_off_c, 0, 77, 69
1, 365084, Control_c, 0, 64, 77
1, 365099, Control_c, 0, 64, 44
1, 365105, Note_on_c, 0, 61, 78
1, 365108, Note_on_c, 0, 81, 96
1, 365113, Control_c, 0, 64, 0
1, 365114, Note_on_c, 0, 64, 72
1, 365117, Note_on_c, 0, 69, 72
1, 365123, Note_on_c, 0, 76, 73
1, 365138, Note_off_c, 0, 76, 69
1, 365139, Note_off_c, 0, 64, 68
1, 365141, Note_off_c, 0, 81, 67
1, 365141, Note_off_c, 0, 69, 69
1, 365154, Note_off_c, 0, 61, 63
1, 365158, Note_on_c, 0, 67, 11
1, 365202, Note_off_c, 0, 67, 29
1, 365247, Note_on_c, 0, 81, 102
1, 365250, Note_on_c, 0, 62, 97
1, 365251, Note_on_c, 0, 57, 87
1, 365252, Note_on_c, 0, 86, 90
1, 365253, Note_on_c, 0, 65, 94
1, 365254, Note_on_c, 0, 89, 81
1, 365259, Note_on_c, 0, 53, 77
1, 365261, Control_c, 0, 64, 47
1, 365276, Control_c, 0, 64, 83
1, 365287, Note_off_c, 0, 81, 67
1, 365287, Note_off_c, 0, 53, 62
1, 365291, Control_c, 0, 64, 127
1, 365294, Note_off_c, 0, 62, 65
1, 365294, Note_off_c, 0, 65, 64
1, 365298, Note_off_c, 0, 86, 62
1, 365302, Note_off_c, 0, 89, 56
1, 365307, Note_off_c, 0, 57, 62
1, 365339, Note_on_c, 0, 77, 92
1, 365373, Note_off_c, 0, 77, 62
1, 365418, Note_on_c, 0, 81, 89
1, 365421, Note_on_c, 0, 61, 80
1, 365424, Note_on_c, 0, 64, 74
1, 365424, Note_on_c, 0, 69, 79
1, 365432, Control_c, 0, 64, 83
1, 365445, Note_off_c, 0, 69, 67
1, 365446, Control_c, 0, 64, 59
1, 365447, Note_off_c, 0, 64, 70
1, 365447, Note_off_c, 0, 81, 65
1, 365461, Control_c, 0, 64, 0
1, 365462, Note_off_c, 0, 61, 60
1, 365558, Note_on_c, 0, 81, 92
1, 365559, Note_on_c, 0, 86, 90
1, 365568, Note_on_c, 0, 57, 84
1, 365569, Note_on_c, 0, 62, 95
1, 365570, Note_on_c, 0, 65, 91
1, 365570, Note_on_c, 0, 89, 64
1, 365573, Note_on_c, 0, 53, 78
1, 365596, Control_c, 0, 64, 59
1, 365597, Note_off_c, 0, 81, 64
1, 365603, Note_off_c, 0, 86, 65
1, 365603, Note_off_c, 0, 89, 63
1, 365611, Control_c, 0, 64, 127
1, 365613, Note_off_c, 0, 53, 59
1, 365617, Note_off_c, 0, 65, 62
1, 365624, Note_off_c, 0, 62, 60
1, 365636, Note_off_c, 0, 57, 60
1, 365647, Note_on_c, 0, 77, 98
1, 365676, Note_off_c, 0, 77, 64
1, 365713, Note_on_c, 0, 81, 64
1, 365714, Note_on_c, 0, 69, 87
1, 365715, Note_on_c, 0, 61, 92
1, 365722, Note_on_c, 0, 76, 98
1, 365728, Note_on_c, 0, 64, 57
1, 365731, Note_off_c, 0, 69, 73
1, 365740, Note_off_c, 0, 61, 65
1, 365743, Note_off_c, 0, 76, 66
1, 365749, Note_off_c, 0, 64, 64
1, 365760, Note_off_c, 0, 81, 65
1, 365788, Control_c, 0, 64, 86
1, 365803, Control_c, 0, 64, 60
1, 365817, Control_c, 0, 64, 0
1, 365973, Note_on_c, 0, 44, 66
1, 365974, Note_on_c, 0, 32, 68
1, 365980, Note_on_c, 0, 56, 56
1, 366001, Note_off_c, 0, 56, 62
1, 366003, Note_off_c, 0, 32, 59
1, 366003, Note_off_c, 0, 44, 65
1, 366052, Note_on_c, 0, 57, 65
1, 366073, Note_on_c, 0, 33, 69
1, 366076, Note_on_c, 0, 45, 71
1, 366080, Note_off_c, 0, 57, 66
1, 366099, Note_off_c, 0, 33, 64
1, 366104, Note_off_c, 0, 45, 65
1, 366122, Note_on_c, 0, 58, 78
1, 366148, Note_off_c, 0, 58, 67
1, 366188, Note_on_c, 0, 35, 82
1, 366190, Note_on_c, 0, 47, 86
1, 366202, Note_on_c, 0, 59, 93
1, 366218, Note_off_c, 0, 35, 67
1, 366221, Note_off_c, 0, 47, 67
1, 366232, Note_off_c, 0, 59, 65
1, 366272, Note_on_c, 0, 60, 96
1, 366280, Note_on_c, 0, 36, 87
1, 366283, Note_on_c, 0, 48, 101
1, 366291, Note_off_c, 0, 60, 70
1, 366299, Control_c, 0, 64, 76
1, 366306, Note_off_c, 0, 36, 68
1, 366311, Note_off_c, 0, 48, 66
1, 366314, Control_c, 0, 64, 127
1, 366393, Note_on_c, 0, 65, 83
1, 366447, Note_off_c, 0, 65, 0
1, 366467, Note_on_c, 0, 69, 98
1, 366470, Poly_aftertouch_c, 0, 65, 0
1, 366475, Note_on_c, 0, 45, 68
1, 366482, Note_on_c, 0, 44, 58
1, 366506, Note_off_c, 0, 44, 59
1, 366542, Note_off_c, 0, 45, 60
1, 366547, Note_on_c, 0, 72, 93
1, 366548, Note_off_c, 0, 69, 37
1, 366604, Note_on_c, 0, 53, 88
1, 366608, Note_on_c, 0, 60, 100
1, 366611, Note_on_c, 0, 77, 112
1, 366613, Note_on_c, 0, 65, 91
1, 366620, Note_off_c, 0, 72, 63
1, 366629, Note_off_c, 0, 65, 76
1, 366643, Note_on_c, 0, 74, 43
1, 366645, Note_off_c, 0, 60, 66
1, 366645, Note_off_c, 0, 77, 72
1, 366655, Note_off_c, 0, 53, 63
1, 366670, Note_off_c, 0, 74, 57
1, 366726, Poly_aftertouch_c, 0, 67, 0
1, 366759, Control_c, 0, 64, 103
1, 366774, Control_c, 0, 64, 75
1, 366789, Control_c, 0, 64, 54
1, 366804, Control_c, 0, 64, 0
1, 366954, Note_on_c, 0, 86, 91
1, 366955, Note_on_c, 0, 81, 97
1, 366957, Note_on_c, 0, 62, 100
1, 366957, Note_on_c, 0, 89, 87
1, 366959, Note_on_c, 0, 65, 98
1, 366960, Note_on_c, 0, 57, 88
1, 366968, Note_on_c, 0, 53, 75
1, 366989, Control_c, 0, 64, 82
1, 366998, Note_off_c, 0, 53, 65
1, 367003, Note_off_c, 0, 65, 67
1, 367004, Control_c, 0, 64, 127
1, 367004, Note_off_c, 0, 81, 65
1, 367010, Note_off_c, 0, 62, 63
1, 367012, Note_off_c, 0, 86, 65
1, 367016, Note_off_c, 0, 57, 64
1, 367016, Note_off_c, 0, 89, 61
1, 367045, Note_on_c, 0, 77, 92
1, 367079, Note_off_c, 0, 77, 64
1, 367107, Control_c, 0, 64, 92
1, 367108, Note_on_c, 0, 61, 83
1, 367117, Note_on_c, 0, 69, 79
1, 367121, Note_on_c, 0, 64, 71
1, 367121, Note_on_c, 0, 81, 84
1, 367122, Control_c, 0, 64, 64
1, 367137, Control_c, 0, 64, 0
1, 367140, Note_off_c, 0, 64, 66
1, 367140, Note_off_c, 0, 69, 69
1, 367150, Note_off_c, 0, 81, 67
1, 367157, Note_off_c, 0, 61, 64
1, 367255, Note_on_c, 0, 81, 101
1, 367257, Note_on_c, 0, 62, 97
1, 367257, Note_on_c, 0, 86, 91
1, 367259, Note_on_c, 0, 57, 89
1, 367259, Note_on_c, 0, 89, 89
1, 367260, Note_on_c, 0, 65, 95
1, 367269, Note_on_c, 0, 53, 72
1, 367271, Control_c, 0, 64, 77
1, 367286, Control_c, 0, 64, 127
1, 367301, Note_off_c, 0, 81, 64
1, 367304, Note_off_c, 0, 62, 65
1, 367304, Note_off_c, 0, 65, 65
1, 367305, Note_off_c, 0, 53, 62
1, 367308, Note_off_c, 0, 86, 63
1, 367314, Note_off_c, 0, 57, 64
1, 367316, Note_off_c, 0, 89, 57
1, 367343, Note_on_c, 0, 77, 93
1, 367376, Note_off_c, 0, 77, 68
1, 367412, Note_on_c, 0, 61, 79
1, 367413, Note_on_c, 0, 69, 87
1, 367417, Note_on_c, 0, 64, 82
1, 367419, Control_c, 0, 64, 93
1, 367423, Note_on_c, 0, 81, 95
1, 367433, Control_c, 0, 64, 66
1, 367436, Note_on_c, 0, 76, 71
1, 367439, Note_off_c, 0, 69, 62
1, 367440, Note_off_c, 0, 64, 71
1, 367448, Control_c, 0, 64, 0
1, 367451, Note_off_c, 0, 76, 68
1, 367455, Note_off_c, 0, 81, 63
1, 367458, Note_off_c, 0, 61, 64
1, 367554, Note_on_c, 0, 81, 101
1, 367555, Note_on_c, 0, 86, 89
1, 367558, Note_on_c, 0, 57, 90
1, 367559, Note_on_c, 0, 89, 78
1, 367561, Note_on_c, 0, 62, 89
1, 367562, Note_on_c, 0, 65, 98
1, 367563, Note_on_c, 0, 53, 80
1, 367582, Control_c, 0, 64, 92
1, 367587, Note_off_c, 0, 89, 57
1, 367594, Note_off_c, 0, 81, 66
1, 367597, Control_c, 0, 64, 127
1, 367597, Note_off_c, 0, 86, 63
1, 367605, Note_off_c, 0, 53, 59
1, 367605, Note_off_c, 0, 62, 65
1, 367606, Note_off_c, 0, 65, 61
1, 367618, Note_off_c, 0, 57, 61
1, 367645, Note_on_c, 0, 77, 106
1, 367677, Note_off_c, 0, 77, 65
1, 367699, Note_on_c, 0, 84, 12
1, 367699, Note_off_c, 0, 84, 127
1, 367711, Note_on_c, 0, 69, 86
1, 367714, Note_on_c, 0, 61, 86
1, 367719, Note_on_c, 0, 64, 73
1, 367723, Note_on_c, 0, 81, 61
1, 367728, Note_off_c, 0, 69, 73
1, 367729, Note_on_c, 0, 76, 96
1, 367747, Note_off_c, 0, 64, 66
1, 367748, Note_off_c, 0, 61, 64
1, 367753, Note_off_c, 0, 76, 65
1, 367764, Note_off_c, 0, 81, 65
1, 367782, Control_c, 0, 64, 95
1, 367797, Control_c, 0, 64, 62
1, 367811, Control_c, 0, 64, 0
1, 367978, Note_on_c, 0, 28, 75
1, 367981, Note_on_c, 0, 52, 70
1, 367984, Note_on_c, 0, 40, 69
1, 368006, Note_off_c, 0, 28, 64
1, 368010, Note_off_c, 0, 52, 64
1, 368013, Note_off_c, 0, 40, 64
1, 368058, Note_on_c, 0, 53, 71
1, 368091, Note_on_c, 0, 52, 33
1, 368091, Note_off_c, 0, 52, 127
1, 368094, Note_on_c, 0, 30, 79
1, 368098, Note_off_c, 0, 53, 63
1, 368101, Note_on_c, 0, 42, 74
1, 368126, Note_off_c, 0, 30, 67
1, 368130, Note_off_c, 0, 42, 64
1, 368133, Note_on_c, 0, 54, 70
1, 368176, Note_off_c, 0, 54, 62
1, 368198, Note_on_c, 0, 55, 82
1, 368212, Note_on_c, 0, 31, 85
1, 368216, Note_on_c, 0, 43, 86
1, 368240, Note_off_c, 0, 55, 64
1, 368241, Note_off_c, 0, 31, 69
1, 368250, Note_off_c, 0, 43, 67
1, 368280, Note_on_c, 0, 56, 98
1, 368301, Control_c, 0, 64, 77
1, 368303, Note_on_c, 0, 32, 108
1, 368304, Note_on_c, 0, 44, 106
1, 368315, Note_on_c, 0, 55, 22
1, 368316, Control_c, 0, 64, 127
1, 368327, Note_off_c, 0, 56, 65
1, 368329, Note_off_c, 0, 32, 67
1, 368335, Note_off_c, 0, 44, 61
1, 368352, Note_off_c, 0, 55, 53
1, 368362, Note_on_c, 0, 61, 94
1, 368389, Note_off_c, 0, 61, 58
1, 368397, Note_on_c, 0, 62, 50
1, 368430, Note_off_c, 0, 62, 60
1, 368468, Note_on_c, 0, 65, 85
1, 368472, Note_on_c, 0, 64, 76
1, 368478, Note_on_c, 0, 44, 71
1, 368496, Note_off_c, 0, 64, 71
1, 368533, Note_on_c, 0, 68, 95
1, 368554, Note_off_c, 0, 65, 55
1, 368561, Note_off_c, 0, 44, 60
1, 368579, Note_off_c, 0, 68, 65
1, 368610, Note_on_c, 0, 53, 80
1, 368614, Note_on_c, 0, 77, 99
1, 368615, Note_on_c, 0, 61, 105
1, 368617, Note_on_c, 0, 65, 98
1, 368619, Note_on_c, 0, 73, 81
1, 368643, Note_off_c, 0, 65, 66
1, 368647, Note_off_c, 0, 61, 68
1, 368651, Note_off_c, 0, 53, 65
1, 368656, Note_off_c, 0, 77, 67
1, 368657, Note_off_c, 0, 73, 59
1, 368658, Note_on_c, 0, 74, 39
1, 368665, Note_on_c, 0, 75, 16
1, 368689, Note_off_c, 0, 74, 51
1, 368694, Control_c, 0, 64, 76
1, 368705, Note_off_c, 0, 75, 40
1, 368709, Control_c, 0, 64, 37
1, 368724, Control_c, 0, 64, 0
1, 368944, Note_on_c, 0, 77, 73
1, 368950, Note_on_c, 0, 74, 62
1, 368957, Note_on_c, 0, 69, 60
1, 368968, Note_off_c, 0, 74, 63
1, 368975, Note_off_c, 0, 77, 60
1, 368978, Note_off_c, 0, 69, 62
1, 369022, Note_on_c, 0, 70, 51
1, 369023, Note_on_c, 0, 78, 67
1, 369026, Note_on_c, 0, 75, 59
1, 369045, Note_off_c, 0, 78, 63
1, 369049, Note_off_c, 0, 75, 65
1, 369052, Note_off_c, 0, 70, 65
1, 369085, Note_on_c, 0, 79, 72
1, 369089, Note_on_c, 0, 77, 70
1, 369103, Note_on_c, 0, 76, 52
1, 369115, Note_off_c, 0, 77, 65
1, 369115, Note_off_c, 0, 79, 62
1, 369117, Note_on_c, 0, 71, 33
1, 369127, Note_off_c, 0, 76, 39
1, 369130, Note_on_c, 0, 78, 69
1, 369140, Note_on_c, 0, 73, 68
1, 369159, Note_on_c, 0, 80, 76
1, 369159, Note_off_c, 0, 71, 32
1, 369170, Note_off_c, 0, 73, 69
1, 369172, Note_off_c, 0, 80, 70
1, 369185, Note_off_c, 0, 78, 60
1, 369217, Note_on_c, 0, 77, 63
1, 369218, Note_on_c, 0, 81, 100
1, 369222, Note_on_c, 0, 74, 106
1, 369232, Note_on_c, 0, 79, 64
1, 369232, Note_off_c, 0, 79, 127
1, 369236, Note_off_c, 0, 74, 77
1, 369242, Note_off_c, 0, 81, 61
1, 369245, Note_off_c, 0, 77, 68
1, 369594, Note_on_c, 0, 57, 103
1, 369594, Note_on_c, 0, 69, 94
1, 369596, Note_on_c, 0, 33, 92
1, 369596, Note_on_c, 0, 45, 95
1, 369617, Note_off_c, 0, 57, 73
1, 369621, Note_off_c, 0, 45, 70
1, 369621, Control_c, 0, 64, 64
1, 369627, Note_off_c, 0, 69, 64
1, 369635, Note_off_c, 0, 33, 66
1, 369635, Control_c, 0, 64, 127
1, 369813, Control_c, 0, 64, 77
1, 369827, Control_c, 0, 64, 48
1, 369842, Control_c, 0, 64, 0
1, 370084, Note_on_c, 0, 69, 88
1, 370084, Note_on_c, 0, 86, 98
1, 370086, Note_on_c, 0, 62, 78
1, 370086, Note_on_c, 0, 74, 107
1, 370102, Control_c, 0, 64, 70
1, 370116, Control_c, 0, 64, 127
1, 370117, Note_off_c, 0, 74, 71
1, 370122, Note_off_c, 0, 62, 64
1, 370122, Note_off_c, 0, 86, 65
1, 370126, Note_off_c, 0, 69, 62
1, 370176, Note_on_c, 0, 81, 104
1, 370220, Control_c, 0, 64, 90
1, 370234, Control_c, 0, 64, 59
1, 370249, Note_off_c, 0, 81, 59
1, 370249, Control_c, 0, 64, 0
1, 370259, Note_on_c, 0, 74, 100
1, 370296, Note_off_c, 0, 74, 69
1, 370333, Note_on_c, 0, 69, 90
1, 370363, Note_off_c, 0, 69, 69
1, 370419, Note_on_c, 0, 62, 97
1, 370436, Note_off_c, 0, 62, 76
1, 370509, Note_on_c, 0, 57, 89
1, 370536, Note_off_c, 0, 57, 67
1, 370584, Note_on_c, 0, 50, 79
1, 370609, Note_off_c, 0, 50, 67
1, 370674, Note_on_c, 0, 45, 86
1, 370700, Note_off_c, 0, 45, 69
1, 370755, Note_on_c, 0, 38, 105
1, 370775, Note_off_c, 0, 38, 68
1, 370846, Note_on_c, 0, 38, 26
1, 370889, Note_off_c, 0, 38, 31
1, 371198, Note_on_c, 0, 26, 98
1, 371203, Note_on_c, 0, 38, 98
1, 371222, Note_off_c, 0, 26, 70
1, 371225, Note_off_c, 0, 38, 66
1, 371326, Note_on_c, 0, 26, 38
1, 371359, Note_off_c, 0, 26, 29
1, 371390, Note_on_c, 0, 57, 77
1, 371391, Note_on_c, 0, 62, 80
1, 371398, Note_on_c, 0, 53, 68
1, 371420, Note_off_c, 0, 57, 68
1, 371425, Note_off_c, 0, 53, 62
1, 371429, Note_off_c, 0, 62, 64
1, 371547, Note_on_c, 0, 41, 98
1, 371548, Note_on_c, 0, 29, 100
1, 371570, Note_off_c, 0, 41, 70
1, 371572, Note_off_c, 0, 29, 72
1, 371712, Note_on_c, 0, 63, 82
1, 371719, Note_on_c, 0, 57, 66
1, 371722, Note_on_c, 0, 55, 65
1, 371737, Note_off_c, 0, 57, 63
1, 371742, Note_off_c, 0, 63, 62
1, 371744, Note_off_c, 0, 55, 60
1, 371853, Note_on_c, 0, 38, 95
1, 371854, Note_on_c, 0, 26, 86
1, 371877, Note_off_c, 0, 26, 69
1, 371877, Note_off_c, 0, 38, 70
1, 372017, Note_on_c, 0, 56, 89
1, 372017, Note_on_c, 0, 59, 82
1, 372018, Note_on_c, 0, 64, 86
1, 372038, Note_off_c, 0, 56, 70
1, 372039, Note_off_c, 0, 59, 70
1, 372053, Note_off_c, 0, 64, 67
1, 372167, Note_on_c, 0, 50, 102
1, 372169, Note_on_c, 0, 38, 97
1, 372199, Note_off_c, 0, 50, 66
1, 372199, Note_off_c, 0, 38, 66
1, 372332, Note_on_c, 0, 62, 72
1, 372334, Note_on_c, 0, 65, 74
1, 372335, Note_on_c, 0, 57, 69
1, 372352, Note_off_c, 0, 57, 65
1, 372358, Note_off_c, 0, 62, 68
1, 372362, Note_off_c, 0, 65, 63
1, 372462, Note_on_c, 0, 48, 93
1, 372467, Note_on_c, 0, 36, 83
1, 372490, Note_off_c, 0, 48, 65
1, 372492, Note_off_c, 0, 36, 65
1, 372608, Note_on_c, 0, 49, 86
1, 372610, Note_on_c, 0, 37, 85
1, 372614, Note_on_c, 0, 64, 75
1, 372615, Note_on_c, 0, 69, 76
1, 372617, Note_on_c, 0, 57, 75
1, 372630, Note_off_c, 0, 49, 70
1, 372635, Note_off_c, 0, 37, 65
1, 372637, Note_off_c, 0, 64, 70
1, 372644, Note_off_c, 0, 57, 66
1, 372654, Note_off_c, 0, 69, 63
1, 372749, Note_on_c, 0, 46, 92
1, 372751, Note_on_c, 0, 34, 100
1, 372769, Note_off_c, 0, 46, 71
1, 372775, Note_off_c, 0, 34, 71
1, 372920, Note_on_c, 0, 64, 72
1, 372922, Note_on_c, 0, 61, 67
1, 372931, Note_on_c, 0, 55, 54
1, 372949, Note_off_c, 0, 61, 66
1, 372953, Note_off_c, 0, 64, 64
1, 372959, Note_off_c, 0, 55, 57
1, 373050, Note_on_c, 0, 33, 85
1, 373050, Note_on_c, 0, 45, 87
1, 373075, Note_off_c, 0, 45, 69
1, 373077, Note_off_c, 0, 33, 64
1, 373194, Note_on_c, 0, 34, 83
1, 373195, Note_on_c, 0, 46, 76
1, 373198, Note_on_c, 0, 62, 69
1, 373198, Note_on_c, 0, 67, 72
1, 373198, Note_on_c, 0, 55, 72
1, 373223, Note_off_c, 0, 46, 66
1, 373224, Note_off_c, 0, 62, 66
1, 373225, Note_off_c, 0, 34, 63
1, 373225, Note_off_c, 0, 55, 66
1, 373231, Note_off_c, 0, 67, 61
1, 373331, Note_on_c, 0, 31, 89
1, 373331, Note_on_c, 0, 43, 98
1, 373354, Note_off_c, 0, 43, 69
1, 373355, Note_off_c, 0, 31, 71
1, 373488, Note_on_c, 0, 58, 75
1, 373490, Note_on_c, 0, 61, 72
1, 373494, Note_on_c, 0, 52, 67
1, 373514, Note_off_c, 0, 58, 66
1, 373516, Note_off_c, 0, 52, 63
1, 373520, Note_off_c, 0, 61, 66
1, 373614, Note_on_c, 0, 28, 96
1, 373615, Note_on_c, 0, 40, 89
1, 373636, Note_off_c, 0, 28, 70
1, 373636, Note_off_c, 0, 40, 67
1, 373774, Note_on_c, 0, 56, 72
1, 373777, Note_on_c, 0, 59, 63
1, 373783, Note_on_c, 0, 62, 63
1, 373797, Note_off_c, 0, 59, 63
1, 373803, Note_off_c, 0, 56, 65
1, 373809, Note_off_c, 0, 62, 65
1, 373921, Note_on_c, 0, 45, 94
1, 373922, Note_on_c, 0, 33, 91
1, 373994, Control_c, 0, 64, 39
1, 374009, Control_c, 0, 64, 56
1, 374024, Control_c, 0, 64, 66
1, 374039, Control_c, 0, 64, 77
1, 374053, Control_c, 0, 64, 127
1, 374076, Note_on_c, 0, 57, 60
1, 374078, Note_on_c, 0, 62, 56
1, 374080, Note_on_c, 0, 53, 58
1, 374085, Note_off_c, 0, 45, 64
1, 374089, Note_off_c, 0, 33, 64
1, 374098, Note_off_c, 0, 57, 63
1, 374104, Note_off_c, 0, 53, 60
1, 374114, Note_off_c, 0, 62, 63
1, 374343, Note_on_c, 0, 62, 62
1, 374360, Note_on_c, 0, 54, 30
1, 374371, Note_on_c, 0, 58, 28
1, 374405, Note_off_c, 0, 54, 48
1, 374405, Note_off_c, 0, 62, 59
1, 374417, Note_off_c, 0, 58, 42
1, 374563, Note_on_c, 0, 77, 71
1, 374579, Note_on_c, 0, 74, 70
1, 374669, Control_c, 0, 64, 97
1, 374672, Note_off_c, 0, 74, 63
1, 374684, Control_c, 0, 64, 84
1, 374698, Control_c, 0, 64, 74
1, 374713, Control_c, 0, 64, 66
1, 374728, Control_c, 0, 64, 58
1, 374743, Control_c, 0, 64, 51
1, 374757, Control_c, 0, 64, 46
1, 374772, Control_c, 0, 64, 43
1, 374787, Control_c, 0, 64, 41
1, 374802, Control_c, 0, 64, 40
1, 374832, Control_c, 0, 64, 39
1, 374846, Control_c, 0, 64, 37
1, 374861, Control_c, 0, 64, 35
1, 374876, Control_c, 0, 64, 32
1, 374885, Note_on_c, 0, 70, 58
1, 374891, Note_on_c, 0, 66, 57
1, 374891, Control_c, 0, 64, 30
1, 374906, Control_c, 0, 64, 0
1, 374906, Control_c, 0, 67, 45
1, 374921, Control_c, 0, 67, 55
1, 374936, Control_c, 0, 67, 57
1, 374950, Control_c, 0, 67, 59
1, 374965, Control_c, 0, 67, 67
1, 374980, Control_c, 0, 67, 87
1, 374995, Control_c, 0, 67, 101
1, 375010, Control_c, 0, 67, 106
1, 375010, Note_off_c, 0, 77, 58
1, 375024, Control_c, 0, 67, 109
1, 375039, Control_c, 0, 67, 119
1, 375050, Note_on_c, 0, 64, 60
1, 375053, Note_on_c, 0, 60, 54
1, 375054, Control_c, 0, 67, 127
1, 375084, Note_off_c, 0, 64, 65
1, 375085, Note_off_c, 0, 60, 66
1, 375406, Note_on_c, 0, 61, 54
1, 375411, Note_on_c, 0, 65, 45
1, 375440, Note_off_c, 0, 61, 65
1, 375443, Note_off_c, 0, 65, 61
1, 375714, Note_on_c, 0, 67, 42
1, 375757, Note_off_c, 0, 66, 49
1, 375833, Control_c, 0, 64, 34
1, 375847, Control_c, 0, 64, 44
1, 375862, Control_c, 0, 64, 56
1, 375877, Control_c, 0, 64, 65
1, 375899, Control_c, 0, 64, 73
1, 375914, Control_c, 0, 64, 88
1, 375919, Note_off_c, 0, 70, 65
1, 375928, Control_c, 0, 64, 116
1, 375934, Note_off_c, 0, 67, 63
1, 375943, Control_c, 0, 64, 127
1, 376314, Control_c, 0, 64, 70
1, 376322, Note_on_c, 0, 38, 90
1, 376324, Note_on_c, 0, 26, 77
1, 376329, Control_c, 0, 64, 0
1, 376343, Note_off_c, 0, 26, 68
1, 376344, Note_off_c, 0, 38, 66
1, 376374, Control_c, 0, 67, 115
1, 376389, Control_c, 0, 67, 92
1, 376403, Control_c, 0, 67, 63
1, 376418, Control_c, 0, 67, 43
1, 376433, Control_c, 0, 67, 0
1, 376484, Note_on_c, 0, 57, 75
1, 376485, Poly_aftertouch_c, 0, 26, 0
1, 376487, Note_on_c, 0, 53, 77
1, 376493, Note_on_c, 0, 65, 64
1, 376508, Note_off_c, 0, 57, 67
1, 376512, Note_off_c, 0, 53, 69
1, 376513, Note_on_c, 0, 62, 38
1, 376521, Note_off_c, 0, 65, 67
1, 376544, Note_off_c, 0, 62, 34
1, 376621, Note_on_c, 0, 41, 86
1, 376622, Note_on_c, 0, 29, 86
1, 376652, Note_off_c, 0, 29, 67
1, 376652, Note_off_c, 0, 41, 68
1, 376792, Note_on_c, 0, 55, 81
1, 376792, Note_on_c, 0, 58, 78
1, 376792, Note_on_c, 0, 61, 80
1, 376798, Note_on_c, 0, 67, 73
1, 376814, Note_off_c, 0, 55, 68
1, 376817, Note_off_c, 0, 58, 67
1, 376823, Note_off_c, 0, 61, 67
1, 376829, Note_off_c, 0, 67, 63
1, 376918, Note_on_c, 0, 38, 86
1, 376921, Note_on_c, 0, 26, 71
1, 376942, Note_off_c, 0, 38, 67
1, 376951, Note_off_c, 0, 26, 66
1, 377060, Note_on_c, 0, 56, 89
1, 377062, Note_on_c, 0, 59, 76
1, 377064, Note_on_c, 0, 62, 72
1, 377067, Note_on_c, 0, 68, 76
1, 377082, Note_off_c, 0, 56, 73
1, 377089, Note_off_c, 0, 59, 67
1, 377092, Note_off_c, 0, 62, 67
1, 377117, Note_off_c, 0, 68, 64
1, 377197, Note_on_c, 0, 41, 97
1, 377198, Note_on_c, 0, 53, 91
1, 377220, Note_on_c, 0, 52, 51
1, 377220, Note_off_c, 0, 52, 127
1, 377222, Note_off_c, 0, 53, 67
1, 377229, Note_off_c, 0, 41, 67
1, 377349, Note_on_c, 0, 62, 79
1, 377350, Note_on_c, 0, 69, 81
1, 377351, Note_on_c, 0, 57, 76
1, 377373, Note_off_c, 0, 62, 69
1, 377377, Note_off_c, 0, 57, 66
1, 377404, Note_off_c, 0, 69, 61
1, 377494, Note_on_c, 0, 52, 79
1, 377495, Note_on_c, 0, 40, 75
1, 377517, Note_off_c, 0, 52, 66
1, 377522, Note_off_c, 0, 40, 65
1, 377633, Note_on_c, 0, 53, 85
1, 377635, Note_on_c, 0, 68, 83
1, 377636, Note_on_c, 0, 41, 86
1, 377637, Note_on_c, 0, 72, 83
1, 377637, Note_on_c, 0, 60, 85
1, 377654, Note_off_c, 0, 53, 70
1, 377657, Note_off_c, 0, 60, 72
1, 377660, Note_off_c, 0, 41, 67
1, 377666, Note_off_c, 0, 68, 65
1, 377670, Note_off_c, 0, 72, 59
1, 377765, Note_on_c, 0, 38, 96
1, 377765, Note_on_c, 0, 50, 95
1, 377784, Note_off_c, 0, 50, 70
1, 377788, Note_off_c, 0, 38, 65
1, 377909, Note_on_c, 0, 65, 72
1, 377911, Note_on_c, 0, 57, 71
1, 377915, Note_on_c, 0, 60, 62
1, 377918, Note_on_c, 0, 69, 62
1, 377938, Note_off_c, 0, 60, 65
1, 377941, Note_off_c, 0, 57, 66
1, 377947, Note_off_c, 0, 69, 59
1, 377950, Note_off_c, 0, 65, 64
1, 378045, Note_on_c, 0, 48, 87
1, 378051, Note_on_c, 0, 36, 69
1, 378066, Note_off_c, 0, 48, 66
1, 378077, Note_off_c, 0, 36, 59
1, 378188, Note_on_c, 0, 49, 86
1, 378190, Note_on_c, 0, 37, 90
1, 378192, Note_on_c, 0, 70, 69
1, 378194, Note_on_c, 0, 65, 65
1, 378195, Note_on_c, 0, 58, 68
1, 378210, Note_off_c, 0, 49, 68
1, 378213, Note_off_c, 0, 58, 66
1, 378217, Note_off_c, 0, 37, 68
1, 378217, Note_off_c, 0, 70, 70
1, 378221, Note_off_c, 0, 65, 67
1, 378316, Note_on_c, 0, 46, 97
1, 378317, Note_on_c, 0, 34, 100
1, 378335, Note_off_c, 0, 46, 71
1, 378339, Note_off_c, 0, 34, 68
1, 378471, Note_on_c, 0, 64, 70
1, 378474, Note_on_c, 0, 61, 64
1, 378477, Note_on_c, 0, 55, 58
1, 378502, Note_off_c, 0, 61, 65
1, 378503, Note_off_c, 0, 64, 65
1, 378504, Note_off_c, 0, 55, 57
1, 378599, Note_on_c, 0, 31, 82
1, 378601, Note_on_c, 0, 43, 84
1, 378628, Note_off_c, 0, 43, 67
1, 378629, Note_off_c, 0, 31, 68
1, 378751, Note_on_c, 0, 65, 70
1, 378757, Note_on_c, 0, 58, 58
1, 378757, Note_on_c, 0, 62, 52
1, 378779, Note_off_c, 0, 65, 65
1, 378780, Note_off_c, 0, 58, 60
1, 378783, Note_off_c, 0, 62, 57
1, 378883, Note_on_c, 0, 48, 104
1, 378885, Note_on_c, 0, 36, 97
1, 378939, Control_c, 0, 64, 38
1, 378942, Note_off_c, 0, 48, 66
1, 378948, Note_off_c, 0, 36, 65
1, 378954, Control_c, 0, 64, 63
1, 378969, Control_c, 0, 64, 85
1, 378984, Control_c, 0, 64, 127
1, 379038, Note_on_c, 0, 65, 62
1, 379047, Note_on_c, 0, 57, 63
1, 379055, Note_on_c, 0, 62, 59
1, 379076, Note_off_c, 0, 57, 65
1, 379077, Note_off_c, 0, 62, 61
1, 379094, Note_off_c, 0, 65, 61
1, 379177, Control_c, 0, 67, 42
1, 379192, Control_c, 0, 67, 68
1, 379197, Note_on_c, 0, 63, 15
1, 379207, Control_c, 0, 67, 119
1, 379221, Control_c, 0, 67, 127
1, 379224, Note_off_c, 0, 63, 0
1, 379240, Poly_aftertouch_c, 0, 63, 0
1, 379339, Note_on_c, 0, 66, 60
1, 379350, Note_on_c, 0, 62, 47
1, 379386, Note_off_c, 0, 62, 57
1, 379411, Note_off_c, 0, 66, 61
1, 379411, Poly_aftertouch_c, 0, 58, 127
1, 379437, Poly_aftertouch_c, 0, 58, 0
1, 379522, Note_on_c, 0, 77, 69
1, 379527, Note_on_c, 0, 74, 70
1, 379621, Control_c, 0, 64, 87
1, 379643, Control_c, 0, 64, 66
1, 379658, Control_c, 0, 64, 34
1, 379673, Note_off_c, 0, 74, 63
1, 379673, Control_c, 0, 64, 0
1, 379929, Note_on_c, 0, 73, 60
1, 379933, Note_on_c, 0, 69, 60
1, 380090, Note_on_c, 0, 66, 66
1, 380094, Note_off_c, 0, 77, 62
1, 380117, Note_on_c, 0, 62, 39
1, 380130, Note_off_c, 0, 66, 63
1, 380147, Note_off_c, 0, 62, 50
1, 380432, Note_on_c, 0, 63, 48
1, 380436, Note_on_c, 0, 67, 40
1, 380466, Note_off_c, 0, 67, 57
1, 380469, Note_off_c, 0, 63, 63
1, 380634, Note_on_c, 0, 70, 57
1, 380641, Note_off_c, 0, 69, 61
1, 380733, Control_c, 0, 64, 30
1, 380748, Control_c, 0, 64, 44
1, 380764, Control_c, 0, 64, 59
1, 380778, Control_c, 0, 64, 66
1, 380793, Control_c, 0, 64, 71
1, 380808, Control_c, 0, 64, 77
1, 380814, Note_off_c, 0, 73, 65
1, 380823, Control_c, 0, 64, 83
1, 380825, Note_off_c, 0, 70, 65
1, 380838, Control_c, 0, 64, 91
1, 380853, Control_c, 0, 64, 101
1, 380864, Note_on_c, 0, 68, 49
1, 380867, Control_c, 0, 64, 110
1, 380882, Note_on_c, 0, 64, 39
1, 380882, Control_c, 0, 64, 118
1, 380897, Control_c, 0, 64, 127
1, 380907, Note_off_c, 0, 68, 60
1, 380913, Note_off_c, 0, 64, 54
1, 381104, Control_c, 0, 64, 79
1, 381117, Note_on_c, 0, 41, 92
1, 381118, Control_c, 0, 64, 0
1, 381120, Note_on_c, 0, 29, 86
1, 381146, Note_off_c, 0, 41, 72
1, 381154, Note_off_c, 0, 29, 67
1, 381260, Control_c, 0, 67, 102
1, 381270, Note_on_c, 0, 57, 76
1, 381274, Control_c, 0, 67, 84
1, 381275, Note_on_c, 0, 60, 67
1, 381277, Note_on_c, 0, 69, 70
1, 381278, Note_on_c, 0, 65, 65
1, 381289, Control_c, 0, 67, 70
1, 381294, Note_off_c, 0, 57, 68
1, 381297, Note_off_c, 0, 60, 66
1, 381304, Control_c, 0, 67, 65
1, 381305, Note_off_c, 0, 65, 67
1, 381314, Note_off_c, 0, 69, 65
1, 381318, Control_c, 0, 67, 64
1, 381333, Control_c, 0, 67, 62
1, 381348, Control_c, 0, 67, 51
1, 381363, Control_c, 0, 67, 0
1, 381404, Note_on_c, 0, 53, 91
1, 381410, Note_on_c, 0, 41, 82
1, 381424, Note_off_c, 0, 53, 71
1, 381428, Note_on_c, 0, 43, 53
1, 381436, Note_off_c, 0, 41, 68
1, 381460, Note_off_c, 0, 43, 54
1, 381547, Note_on_c, 0, 74, 76
1, 381550, Note_on_c, 0, 62, 81
1, 381550, Note_on_c, 0, 69, 76
1, 381573, Note_off_c, 0, 62, 71
1, 381573, Note_off_c, 0, 69, 69
1, 381579, Note_off_c, 0, 74, 60
1, 381684, Note_on_c, 0, 50, 99
1, 381685, Note_on_c, 0, 38, 99
1, 381706, Note_off_c, 0, 50, 71
1, 381711, Note_off_c, 0, 38, 70
1, 381827, Note_on_c, 0, 64, 75
1, 381828, Note_on_c, 0, 59, 72
1, 381833, Note_on_c, 0, 56, 71
1, 381852, Note_off_c, 0, 56, 67
1, 381854, Note_off_c, 0, 59, 65
1, 381870, Note_off_c, 0, 64, 64
1, 381974, Note_on_c, 0, 35, 88
1, 381974, Note_on_c, 0, 47, 90
1, 381997, Note_off_c, 0, 47, 71
1, 382001, Note_off_c, 0, 35, 69
1, 382112, Note_on_c, 0, 62, 72
1, 382113, Note_on_c, 0, 65, 71
1, 382117, Note_on_c, 0, 57, 63
1, 382137, Note_off_c, 0, 57, 62
1, 382138, Note_off_c, 0, 62, 66
1, 382143, Note_off_c, 0, 65, 62
1, 382246, Note_on_c, 0, 44, 85
1, 382247, Note_on_c, 0, 32, 92
1, 382271, Note_off_c, 0, 44, 69
1, 382274, Note_off_c, 0, 32, 67
1, 382370, Note_on_c, 0, 41, 96
1, 382379, Note_on_c, 0, 28, 79
1, 382382, Note_on_c, 0, 29, 77
1, 382389, Note_on_c, 0, 62, 72
1, 382389, Note_on_c, 0, 67, 75
1, 382393, Note_off_c, 0, 41, 72
1, 382396, Note_on_c, 0, 58, 66
1, 382404, Note_off_c, 0, 28, 60
1, 382412, Note_off_c, 0, 29, 62
1, 382414, Note_off_c, 0, 58, 65
1, 382418, Note_off_c, 0, 62, 65
1, 382427, Note_off_c, 0, 67, 60
1, 382512, Note_on_c, 0, 52, 109
1, 382516, Note_on_c, 0, 40, 95
1, 382531, Note_off_c, 0, 52, 71
1, 382536, Note_off_c, 0, 40, 67
1, 382665, Note_on_c, 0, 68, 73
1, 382667, Note_on_c, 0, 62, 56
1, 382679, Note_on_c, 0, 59, 44
1, 382689, Note_off_c, 0, 62, 60
1, 382691, Note_off_c, 0, 68, 66
1, 382707, Note_off_c, 0, 59, 36
1, 382808, Note_on_c, 0, 75, 94
1, 382815, Note_on_c, 0, 63, 98
1, 382816, Control_c, 0, 64, 36
1, 382831, Control_c, 0, 64, 57
1, 382845, Control_c, 0, 64, 65
1, 382860, Control_c, 0, 64, 68
1, 382875, Control_c, 0, 64, 69
1, 382889, Control_c, 0, 64, 68
1, 382904, Control_c, 0, 64, 65
1, 382919, Control_c, 0, 64, 55
1, 382934, Control_c, 0, 64, 0
1, 382944, Note_on_c, 0, 55, 74
1, 382944, Note_off_c, 0, 63, 65
1, 382947, Note_on_c, 0, 46, 60
1, 382947, Note_on_c, 0, 51, 68
1, 382949, Note_on_c, 0, 43, 57
1, 382949, Note_on_c, 0, 70, 66
1, 382957, Note_off_c, 0, 75, 64
1, 382969, Note_off_c, 0, 51, 63
1, 382971, Note_off_c, 0, 55, 67
1, 382973, Note_off_c, 0, 70, 70
1, 382976, Note_off_c, 0, 43, 55
1, 382977, Note_off_c, 0, 46, 64
1, 383104, Note_on_c, 0, 87, 83
1, 383111, Note_on_c, 0, 73, 70
1, 383114, Note_on_c, 0, 75, 71
1, 383129, Note_off_c, 0, 73, 65
1, 383159, Note_on_c, 0, 85, 12
1, 383198, Note_off_c, 0, 85, 30
1, 383238, Note_on_c, 0, 69, 77
1, 383239, Note_on_c, 0, 61, 70
1, 383239, Note_on_c, 0, 63, 73
1, 383239, Note_on_c, 0, 81, 78
1, 383250, Note_off_c, 0, 87, 63
1, 383253, Note_off_c, 0, 75, 61
1, 383258, Note_off_c, 0, 69, 71
1, 383262, Note_off_c, 0, 63, 68
1, 383267, Note_off_c, 0, 61, 67
1, 383276, Note_off_c, 0, 81, 65
1, 383398, Note_on_c, 0, 84, 91
1, 383400, Note_on_c, 0, 72, 90
1, 383534, Note_on_c, 0, 63, 73
1, 383540, Note_on_c, 0, 68, 67
1, 383542, Note_on_c, 0, 80, 68
1, 383544, Note_on_c, 0, 60, 64
1, 383560, Note_off_c, 0, 63, 68
1, 383563, Note_off_c, 0, 72, 64
1, 383563, Note_off_c, 0, 84, 64
1, 383566, Note_off_c, 0, 80, 71
1, 383566, Note_off_c, 0, 68, 69
1, 383572, Note_off_c, 0, 60, 67
1, 383676, Note_on_c, 0, 81, 88
1, 383682, Note_on_c, 0, 69, 89
1, 383683, Control_c, 0, 64, 34
1, 383698, Control_c, 0, 64, 44
1, 383706, Note_on_c, 0, 58, 22
1, 383712, Control_c, 0, 64, 30
1, 383723, Note_off_c, 0, 58, 36
1, 383727, Control_c, 0, 64, 0
1, 383826, Note_on_c, 0, 75, 79
1, 383829, Note_on_c, 0, 59, 65
1, 383831, Note_on_c, 0, 63, 74
1, 383836, Note_on_c, 0, 67, 57
1, 383837, Note_off_c, 0, 81, 62
1, 383842, Note_off_c, 0, 69, 62
1, 383855, Note_off_c, 0, 59, 66
1, 383855, Note_off_c, 0, 63, 68
1, 383857, Note_off_c, 0, 67, 62
1, 383863, Note_off_c, 0, 75, 61
1, 383965, Control_c, 0, 64, 33
1, 383977, Note_on_c, 0, 66, 79
1, 383977, Note_on_c, 0, 78, 71
1, 383980, Control_c, 0, 64, 0
1, 384002, Note_off_c, 0, 66, 69
1, 384016, Note_off_c, 0, 78, 59
1, 384096, Note_on_c, 0, 73, 74
1, 384111, Note_on_c, 0, 58, 63
1, 384111, Note_on_c, 0, 62, 67
1, 384150, Note_off_c, 0, 62, 61
1, 384151, Note_off_c, 0, 73, 65
1, 384154, Note_off_c, 0, 58, 60
1, 384158, Note_on_c, 0, 66, 19
1, 384202, Note_off_c, 0, 66, 28
1, 384248, Note_on_c, 0, 86, 99
1, 384252, Note_on_c, 0, 74, 101
1, 384268, Note_on_c, 0, 58, 26
1, 384269, Control_c, 0, 64, 65
1, 384272, Note_on_c, 0, 82, 50
1, 384284, Control_c, 0, 64, 99
1, 384292, Note_off_c, 0, 74, 65
1, 384293, Note_off_c, 0, 82, 58
1, 384299, Control_c, 0, 64, 127
1, 384310, Note_off_c, 0, 58, 53
1, 384335, Poly_aftertouch_c, 0, 66, 127
1, 384356, Poly_aftertouch_c, 0, 66, 0
1, 384358, Note_on_c, 0, 74, 70
1, 384377, Note_on_c, 0, 66, 38
1, 384379, Note_on_c, 0, 78, 75
1, 384380, Note_off_c, 0, 86, 63
1, 384385, Note_on_c, 0, 60, 59
1, 384390, Note_off_c, 0, 74, 66
1, 384391, Note_on_c, 0, 57, 61
1, 384403, Note_off_c, 0, 78, 68
1, 384405, Note_off_c, 0, 60, 64
1, 384412, Note_off_c, 0, 66, 50
1, 384413, Note_off_c, 0, 57, 62
1, 384462, Control_c, 0, 64, 90
1, 384477, Control_c, 0, 64, 67
1, 384492, Control_c, 0, 64, 0
1, 384529, Note_on_c, 0, 67, 107
1, 384581, Control_c, 0, 64, 42
1, 384596, Control_c, 0, 64, 69
1, 384610, Control_c, 0, 64, 90
1, 384625, Control_c, 0, 64, 127
1, 384677, Note_off_c, 0, 67, 62
1, 384680, Note_on_c, 0, 46, 65
1, 384680, Note_on_c, 0, 70, 76
1, 384683, Note_on_c, 0, 62, 72
1, 384685, Note_on_c, 0, 74, 65
1, 384688, Note_on_c, 0, 55, 48
1, 384697, Note_on_c, 0, 39, 34
1, 384701, Note_off_c, 0, 70, 71
1, 384702, Note_off_c, 0, 74, 64
1, 384709, Note_off_c, 0, 46, 63
1, 384709, Note_off_c, 0, 62, 64
1, 384713, Note_off_c, 0, 55, 58
1, 384740, Note_off_c, 0, 39, 48
1, 384774, Control_c, 0, 64, 92
1, 384789, Control_c, 0, 64, 56
1, 384804, Control_c, 0, 64, 0
1, 384809, Note_on_c, 0, 55, 96
1, 384885, Control_c, 0, 64, 37
1, 384900, Control_c, 0, 64, 68
1, 384915, Control_c, 0, 64, 107
1, 384930, Control_c, 0, 64, 127
1, 384946, Note_on_c, 0, 61, 69
1, 384951, Note_on_c, 0, 64, 68
1, 384952, Note_on_c, 0, 45, 50
1, 384955, Note_off_c, 0, 55, 61
1, 384959, Note_on_c, 0, 52, 63
1, 384961, Note_on_c, 0, 67, 46
1, 384974, Note_off_c, 0, 61, 68
1, 384983, Note_off_c, 0, 64, 67
1, 384984, Note_off_c, 0, 45, 48
1, 384989, Note_off_c, 0, 52, 65
1, 384992, Note_off_c, 0, 67, 64
1, 385033, Control_c, 0, 64, 79
1, 385048, Control_c, 0, 64, 36
1, 385063, Control_c, 0, 64, 0
1, 385095, Note_on_c, 0, 68, 104
1, 385104, Note_on_c, 0, 56, 76
1, 385107, Control_c, 0, 64, 43
1, 385122, Control_c, 0, 64, 88
1, 385137, Control_c, 0, 64, 127
1, 385218, Poly_aftertouch_c, 0, 80, 0
1, 385221, Note_on_c, 0, 73, 70
1, 385229, Note_on_c, 0, 76, 72
1, 385229, Note_off_c, 0, 68, 59
1, 385233, Note_on_c, 0, 80, 36
1, 385236, Note_off_c, 0, 56, 56
1, 385239, Note_on_c, 0, 61, 65
1, 385244, Note_off_c, 0, 73, 69
1, 385256, Note_off_c, 0, 76, 66
1, 385262, Note_off_c, 0, 61, 64
1, 385263, Note_off_c, 0, 80, 66
1, 385281, Note_on_c, 0, 64, 4
1, 385329, Control_c, 0, 64, 86
1, 385343, Note_off_c, 0, 64, 48
1, 385344, Control_c, 0, 64, 48
1, 385358, Control_c, 0, 64, 0
1, 385371, Note_on_c, 0, 69, 107
1, 385418, Control_c, 0, 64, 56
1, 385432, Control_c, 0, 64, 74
1, 385447, Control_c, 0, 64, 94
1, 385462, Control_c, 0, 64, 127
1, 385505, Note_on_c, 0, 57, 67
1, 385509, Note_on_c, 0, 72, 82
1, 385509, Note_off_c, 0, 69, 59
1, 385518, Note_on_c, 0, 48, 67
1, 385521, Note_on_c, 0, 76, 63
1, 385522, Note_on_c, 0, 41, 53
1, 385532, Note_off_c, 0, 57, 66
1, 385539, Note_off_c, 0, 72, 62
1, 385539, Note_off_c, 0, 76, 64
1, 385542, Note_off_c, 0, 48, 59
1, 385545, Note_on_c, 0, 64, 38
1, 385552, Note_off_c, 0, 41, 55
1, 385578, Note_off_c, 0, 64, 53
1, 385596, Control_c, 0, 64, 79
1, 385611, Control_c, 0, 64, 0
1, 385645, Note_on_c, 0, 57, 96
1, 385663, Control_c, 0, 64, 39
1, 385678, Control_c, 0, 64, 75
1, 385682, Note_on_c, 0, 49, 53
1, 385693, Control_c, 0, 64, 127
1, 385711, Note_off_c, 0, 49, 56
1, 385771, Note_on_c, 0, 63, 80
1, 385774, Note_off_c, 0, 57, 62
1, 385775, Note_on_c, 0, 66, 71
1, 385787, Note_on_c, 0, 47, 69
1, 385788, Note_on_c, 0, 54, 74
1, 385805, Note_off_c, 0, 63, 64
1, 385812, Note_off_c, 0, 54, 68
1, 385814, Note_off_c, 0, 47, 65
1, 385824, Note_off_c, 0, 66, 64
1, 385861, Poly_aftertouch_c, 0, 69, 127
1, 385885, Control_c, 0, 64, 73
1, 385895, Poly_aftertouch_c, 0, 69, 0
1, 385900, Control_c, 0, 64, 0
1, 385919, Note_on_c, 0, 70, 105
1, 385920, Note_on_c, 0, 58, 92
1, 385944, Control_c, 0, 64, 64
1, 385959, Control_c, 0, 64, 127
1, 385972, Note_off_c, 0, 58, 63
1, 386060, Note_on_c, 0, 78, 86
1, 386067, Note_on_c, 0, 66, 61
1, 386068, Note_on_c, 0, 62, 67
1, 386068, Note_off_c, 0, 70, 63
1, 386075, Note_on_c, 0, 75, 64
1, 386088, Note_off_c, 0, 62, 64
1, 386093, Note_off_c, 0, 66, 65
1, 386093, Note_off_c, 0, 75, 65
1, 386096, Note_on_c, 0, 82, 36
1, 386099, Note_off_c, 0, 78, 64
1, 386126, Note_off_c, 0, 82, 54
1, 386225, Control_c, 0, 64, 101
1, 386240, Control_c, 0, 64, 64
1, 386255, Control_c, 0, 64, 0
1, 386263, Note_on_c, 0, 71, 103
1, 386445, Note_on_c, 0, 59, 98
1, 386447, Note_on_c, 0, 66, 102
1, 386447, Note_on_c, 0, 78, 88
1, 386448, Note_on_c, 0, 75, 91
1, 386450, Note_on_c, 0, 51, 83
1, 386457, Control_c, 0, 64, 63
1, 386460, Note_off_c, 0, 71, 61
1, 386463, Note_off_c, 0, 78, 74
1, 386469, Note_off_c, 0, 59, 67
1, 386469, Note_off_c, 0, 66, 69
1, 386472, Control_c, 0, 64, 127
1, 386475, Note_off_c, 0, 51, 66
1, 386488, Note_on_c, 0, 44, 15
1, 386492, Note_off_c, 0, 75, 48
1, 386532, Note_off_c, 0, 44, 38
1, 386572, Note_on_c, 0, 63, 92
1, 386590, Note_off_c, 0, 63, 73
1, 386687, Note_on_c, 0, 59, 108
1, 386708, Control_c, 0, 64, 83
1, 386723, Control_c, 0, 64, 59
1, 386725, Note_on_c, 0, 60, 29
1, 386725, Note_off_c, 0, 60, 127
1, 386737, Control_c, 0, 64, 0
1, 386851, Note_on_c, 0, 46, 93
1, 386852, Note_on_c, 0, 62, 93
1, 386854, Note_on_c, 0, 34, 100
1, 386859, Note_on_c, 0, 53, 90
1, 386865, Note_on_c, 0, 56, 83
1, 386874, Note_off_c, 0, 46, 71
1, 386879, Note_off_c, 0, 34, 66
1, 386889, Note_off_c, 0, 53, 62
1, 386892, Note_off_c, 0, 56, 64
1, 386964, Note_off_c, 0, 62, 63
1, 387029, Note_on_c, 0, 47, 107
1, 387032, Note_on_c, 0, 35, 96
1, 387056, Note_off_c, 0, 47, 67
1, 387057, Note_off_c, 0, 35, 68
1, 387231, Note_on_c, 0, 54, 92
1, 387236, Note_on_c, 0, 63, 89
1, 387241, Note_on_c, 0, 57, 74
1, 387262, Note_off_c, 0, 54, 63
1, 387281, Note_on_c, 0, 56, 24
1, 387281, Note_off_c, 0, 56, 127
1, 387289, Note_off_c, 0, 57, 56
1, 387327, Note_off_c, 0, 63, 61
1, 387735, Note_on_c, 0, 52, 93
1, 387738, Note_on_c, 0, 55, 78
1, 387738, Note_on_c, 0, 61, 85
1, 387741, Note_on_c, 0, 33, 78
1, 387741, Note_on_c, 0, 45, 81
1, 387760, Note_off_c, 0, 52, 66
1, 387765, Note_off_c, 0, 45, 66
1, 387770, Note_off_c, 0, 55, 62
1, 387774, Note_off_c, 0, 33, 68
1, 387817, Note_off_c, 0, 61, 58
1, 388034, Note_on_c, 0, 46, 90
1, 388034, Note_on_c, 0, 34, 97
1, 388054, Note_off_c, 0, 46, 70
1, 388059, Note_off_c, 0, 34, 71
1, 388305, Note_on_c, 0, 62, 74
1, 388306, Note_on_c, 0, 53, 72
1, 388310, Note_on_c, 0, 56, 68
1, 388325, Control_c, 0, 67, 47
1, 388335, Note_off_c, 0, 53, 64
1, 388340, Control_c, 0, 67, 81
1, 388347, Note_off_c, 0, 56, 60
1, 388355, Control_c, 0, 67, 127
1, 388383, Note_off_c, 0, 62, 59
1, 388837, Control_c, 0, 64, 33
1, 388851, Control_c, 0, 64, 47
1, 388866, Control_c, 0, 64, 58
1, 388881, Control_c, 0, 64, 63
1, 388896, Control_c, 0, 64, 65
1, 388911, Control_c, 0, 64, 67
1, 388925, Control_c, 0, 64, 69
1, 388940, Control_c, 0, 64, 73
1, 388955, Control_c, 0, 64, 77
1, 388970, Control_c, 0, 64, 80
1, 388985, Control_c, 0, 64, 85
1, 388999, Control_c, 0, 64, 89
1, 389014, Control_c, 0, 64, 92
1, 389029, Control_c, 0, 64, 94
1, 389044, Control_c, 0, 64, 96
1, 389088, Control_c, 0, 64, 98
1, 389162, Control_c, 0, 64, 100
1, 389236, Control_c, 0, 64, 97
1, 389246, Note_on_c, 0, 53, 64
1, 389247, Note_on_c, 0, 62, 65
1, 389250, Control_c, 0, 64, 80
1, 389252, Note_on_c, 0, 31, 56
1, 389252, Note_on_c, 0, 56, 60
1, 389253, Note_on_c, 0, 43, 58
1, 389265, Control_c, 0, 64, 62
1, 389271, Note_off_c, 0, 53, 58
1, 389277, Note_off_c, 0, 56, 58
1, 389279, Note_off_c, 0, 43, 60
1, 389280, Control_c, 0, 64, 0
1, 389283, Note_off_c, 0, 31, 55
1, 389345, Note_off_c, 0, 62, 42
1, 389452, Note_on_c, 0, 32, 54
1, 389456, Note_on_c, 0, 44, 44
1, 389486, Note_off_c, 0, 32, 50
1, 389487, Note_off_c, 0, 44, 52
1, 389591, Note_on_c, 0, 53, 49
1, 389591, Note_on_c, 0, 56, 48
1, 389593, Note_on_c, 0, 63, 57
1, 389624, Note_off_c, 0, 53, 51
1, 389628, Note_off_c, 0, 56, 50
1, 389634, Note_off_c, 0, 63, 61
1, 389739, Note_on_c, 0, 31, 47
1, 389760, Note_on_c, 0, 43, 19
1, 389775, Note_off_c, 0, 31, 49
1, 389811, Note_off_c, 0, 43, 28
1, 389876, Note_on_c, 0, 57, 49
1, 389876, Note_on_c, 0, 64, 60
1, 389896, Note_on_c, 0, 53, 30
1, 389921, Note_off_c, 0, 57, 61
1, 389924, Note_off_c, 0, 64, 58
1, 389936, Note_off_c, 0, 53, 30
1, 390019, Note_on_c, 0, 32, 56
1, 390029, Note_on_c, 0, 44, 37
1, 390051, Note_off_c, 0, 32, 56
1, 390064, Note_off_c, 0, 44, 47
1, 390177, Note_on_c, 0, 63, 58
1, 390178, Note_on_c, 0, 56, 41
1, 390183, Note_on_c, 0, 53, 39
1, 390211, Note_off_c, 0, 56, 53
1, 390216, Note_off_c, 0, 53, 49
1, 390218, Note_off_c, 0, 63, 58
1, 390308, Note_on_c, 0, 31, 50
1, 390344, Note_off_c, 0, 31, 50
1, 390455, Note_on_c, 0, 64, 50
1, 390461, Note_on_c, 0, 57, 44
1, 390464, Note_on_c, 0, 53, 33
1, 390493, Note_off_c, 0, 57, 59
1, 390496, Note_off_c, 0, 64, 60
1, 390502, Note_off_c, 0, 53, 47
1, 390593, Note_on_c, 0, 32, 58
1, 390625, Note_off_c, 0, 32, 51
1, 390747, Note_on_c, 0, 63, 44
1, 390753, Note_on_c, 0, 56, 49
1, 390760, Note_on_c, 0, 53, 38
1, 390783, Note_off_c, 0, 63, 49
1, 390793, Note_off_c, 0, 53, 54
1, 390796, Note_off_c, 0, 56, 61
1, 391277, Note_on_c, 0, 31, 43
1, 391310, Note_off_c, 0, 31, 51
1, 391494, Note_on_c, 0, 53, 41
1, 391495, Note_on_c, 0, 64, 50
1, 391499, Note_on_c, 0, 57, 42
1, 391527, Note_off_c, 0, 53, 54
1, 391535, Note_off_c, 0, 57, 53
1, 391545, Note_off_c, 0, 64, 59
1, 391709, Note_on_c, 0, 32, 53
1, 391742, Note_off_c, 0, 32, 55
1, 391918, Note_on_c, 0, 63, 52
1, 391926, Note_on_c, 0, 53, 31
1, 391926, Note_on_c, 0, 56, 47
1, 391965, Note_off_c, 0, 53, 52
1, 391980, Note_off_c, 0, 63, 56
1, 392041, Note_off_c, 0, 56, 44
1, 392216, Note_on_c, 0, 60, 59
1, 392264, Note_off_c, 0, 59, 61
1, 392502, Note_on_c, 0, 33, 49
1, 392512, Note_on_c, 0, 45, 41
1, 392565, Note_off_c, 0, 33, 58
1, 392567, Note_off_c, 0, 45, 60
1, 392869, Note_on_c, 0, 61, 49
1, 392894, Note_on_c, 0, 34, 44
1, 392913, Note_on_c, 0, 46, 28
1, 392933, Note_off_c, 0, 60, 61
1, 393049, Note_off_c, 0, 46, 33
1, 393092, Note_off_c, 0, 34, 39
1, 393376, Note_on_c, 0, 56, 43
1, 393378, Note_on_c, 0, 64, 52
1, 393467, Note_off_c, 0, 56, 48
1, 393492, Note_off_c, 0, 64, 57
1, 393952, Note_on_c, 0, 62, 55
1, 393999, Note_on_c, 0, 26, 26
1, 394077, Control_c, 0, 64, 32
1, 394092, Control_c, 0, 64, 35
1, 394107, Control_c, 0, 64, 39
1, 394110, Note_off_c, 0, 61, 55
1, 394121, Control_c, 0, 64, 44
1, 394136, Control_c, 0, 64, 51
1, 394151, Control_c, 0, 64, 57
1, 394166, Control_c, 0, 64, 60
1, 394181, Control_c, 0, 64, 62
1, 394196, Control_c, 0, 64, 64
1, 394211, Control_c, 0, 64, 67
1, 394226, Control_c, 0, 64, 70
1, 394240, Control_c, 0, 64, 75
1, 394255, Control_c, 0, 64, 80
1, 394270, Control_c, 0, 64, 87
1, 394285, Control_c, 0, 64, 98
1, 394300, Control_c, 0, 64, 114
1, 394310, Note_off_c, 0, 26, 38
1, 394315, Control_c, 0, 64, 127
1, 394655, Note_on_c, 0, 65, 43
1, 394671, Note_on_c, 0, 57, 29
1, 394914, Note_off_c, 0, 57, 52
1, 395621, Note_on_c, 0, 77, 50
1, 395632, Note_on_c, 0, 74, 37
1, 395677, Note_off_c, 0, 74, 49
1, 395723, Note_off_c, 0, 77, 33
1, 397635, Note_off_c, 0, 65, 28
1, 397752, Note_off_c, 0, 62, 35
1, 399040, Note_on_c, 0, 62, 54
1, 399041, Note_on_c, 0, 53, 58
1, 399044, Note_on_c, 0, 38, 57
1, 399045, Note_on_c, 0, 57, 54
1, 399045, Note_on_c, 0, 64, 51
1, 399072, Note_off_c, 0, 53, 64
1, 399074, Control_c, 0, 64, 87
1, 399075, Note_off_c, 0, 57, 65
1, 399077, Note_off_c, 0, 38, 63
1, 399081, Note_off_c, 0, 62, 62
1, 399085, Note_off_c, 0, 64, 60
1, 399089, Control_c, 0, 64, 69
1, 399111, Control_c, 0, 64, 53
1, 399126, Control_c, 0, 64, 35
1, 399141, Control_c, 0, 64, 0
1, 399418, Note_on_c, 0, 33, 51
1, 399423, Note_on_c, 0, 67, 48
1, 399435, Note_on_c, 0, 65, 59
1, 399443, Note_on_c, 0, 62, 56
1, 399445, Note_on_c, 0, 26, 56
1, 399453, Note_on_c, 0, 57, 50
1, 399460, Note_off_c, 0, 67, 62
1, 399463, Note_off_c, 0, 33, 61
1, 399470, Note_off_c, 0, 65, 62
1, 399473, Note_off_c, 0, 26, 64
1, 399473, Note_off_c, 0, 62, 65
1, 399477, Note_off_c, 0, 57, 59
1, 399629, Note_on_c, 0, 38, 66
1, 399639, Note_on_c, 0, 60, 56
1, 399640, Note_on_c, 0, 53, 58
1, 399642, Note_on_c, 0, 64, 50
1, 399644, Note_on_c, 0, 45, 45
1, 399652, Note_on_c, 0, 62, 30
1, 399659, Note_off_c, 0, 38, 64
1, 399662, Note_off_c, 0, 60, 63
1, 399664, Note_off_c, 0, 53, 59
1, 399668, Note_off_c, 0, 64, 63
1, 399677, Note_off_c, 0, 45, 50
1, 399685, Note_off_c, 0, 62, 46
1, 399903, Note_on_c, 0, 33, 62
1, 399904, Note_on_c, 0, 67, 64
1, 399932, Note_on_c, 0, 62, 60
1, 399934, Note_on_c, 0, 65, 55
1, 399940, Note_on_c, 0, 60, 61
1, 399941, Note_on_c, 0, 26, 59
1, 399950, Note_off_c, 0, 33, 62
1, 399954, Note_off_c, 0, 67, 59
1, 399966, Note_off_c, 0, 62, 65
1, 399968, Note_off_c, 0, 60, 67
1, 399969, Note_off_c, 0, 65, 62
1, 399972, Note_off_c, 0, 26, 64
1, 400089, Note_on_c, 0, 38, 77
1, 400094, Note_on_c, 0, 62, 69
1, 400096, Note_on_c, 0, 43, 71
1, 400099, Note_on_c, 0, 59, 69
1, 400099, Note_on_c, 0, 64, 65
1, 400101, Note_on_c, 0, 53, 69
1, 400115, Note_off_c, 0, 38, 66
1, 400124, Note_off_c, 0, 59, 67
1, 400127, Note_off_c, 0, 43, 65
1, 400128, Note_off_c, 0, 53, 67
1, 400132, Note_off_c, 0, 64, 65
1, 400133, Note_off_c, 0, 62, 62
1, 400323, Note_on_c, 0, 67, 65
1, 400337, Note_on_c, 0, 31, 66
1, 400369, Note_on_c, 0, 26, 66
1, 400369, Note_on_c, 0, 65, 70
1, 400373, Note_on_c, 0, 62, 73
1, 400378, Note_on_c, 0, 59, 72
1, 400378, Note_off_c, 0, 31, 64
1, 400401, Note_off_c, 0, 26, 67
1, 400404, Note_off_c, 0, 59, 67
1, 400404, Note_off_c, 0, 67, 63
1, 400407, Note_off_c, 0, 62, 62
1, 400411, Note_off_c, 0, 65, 62
1, 400518, Note_on_c, 0, 38, 80
1, 400518, Note_on_c, 0, 64, 79
1, 400519, Note_on_c, 0, 62, 79
1, 400520, Note_on_c, 0, 58, 82
1, 400521, Note_on_c, 0, 44, 74
1, 400521, Note_on_c, 0, 53, 80
1, 400541, Note_off_c, 0, 53, 72
1, 400542, Note_off_c, 0, 38, 66
1, 400543, Note_off_c, 0, 58, 69
1, 400551, Note_off_c, 0, 44, 64
1, 400552, Note_off_c, 0, 64, 59
1, 400554, Note_off_c, 0, 62, 62
1, 400762, Note_on_c, 0, 32, 74
1, 400765, Note_on_c, 0, 67, 72
1, 400795, Note_on_c, 0, 65, 60
1, 400802, Note_on_c, 0, 26, 60
1, 400805, Note_off_c, 0, 32, 62
1, 400806, Note_on_c, 0, 62, 63
1, 400810, Note_on_c, 0, 58, 70
1, 400824, Note_off_c, 0, 67, 63
1, 400833, Note_off_c, 0, 26, 64
1, 400834, Note_off_c, 0, 62, 65
1, 400835, Note_off_c, 0, 58, 66
1, 400839, Note_off_c, 0, 65, 60
1, 400974, Note_on_c, 0, 62, 61
1, 400979, Note_on_c, 0, 45, 54
1, 400989, Note_on_c, 0, 59, 54
1, 400992, Note_on_c, 0, 53, 49
1, 401005, Note_off_c, 0, 45, 58
1, 401013, Note_off_c, 0, 59, 60
1, 401013, Note_off_c, 0, 62, 63
1, 401026, Note_off_c, 0, 53, 34
1, 401194, Note_on_c, 0, 33, 66
1, 401200, Note_on_c, 0, 65, 58
1, 401237, Note_off_c, 0, 33, 60
1, 401246, Note_on_c, 0, 62, 66
1, 401251, Note_on_c, 0, 59, 65
1, 401254, Note_on_c, 0, 64, 57
1, 401260, Note_off_c, 0, 65, 58
1, 401269, Note_on_c, 0, 38, 53
1, 401277, Note_off_c, 0, 62, 65
1, 401279, Note_off_c, 0, 59, 66
1, 401283, Note_off_c, 0, 64, 66
1, 401299, Note_off_c, 0, 38, 55
1, 401451, Note_on_c, 0, 45, 59
1, 401480, Note_off_c, 0, 45, 64
1, 401663, Note_on_c, 0, 40, 61
1, 401678, Note_on_c, 0, 65, 50
1, 401707, Note_off_c, 0, 40, 59
1, 401711, Note_on_c, 0, 64, 62
1, 401717, Note_off_c, 0, 65, 63
1, 401726, Note_on_c, 0, 61, 49
1, 401731, Note_on_c, 0, 57, 48
1, 401731, Note_on_c, 0, 33, 66
1, 401751, Note_off_c, 0, 61, 61
1, 401751, Note_off_c, 0, 64, 62
1, 401755, Note_off_c, 0, 57, 58
1, 401761, Note_off_c, 0, 33, 63
1, 401900, Note_on_c, 0, 38, 73
1, 401906, Note_on_c, 0, 45, 59
1, 401910, Note_on_c, 0, 64, 64
1, 401911, Note_on_c, 0, 53, 69
1, 401911, Note_on_c, 0, 57, 50
1, 401911, Note_on_c, 0, 62, 54
1, 401926, Note_off_c, 0, 38, 65
1, 401931, Note_off_c, 0, 45, 57
1, 401934, Note_off_c, 0, 57, 61
1, 401939, Note_off_c, 0, 53, 67
1, 401945, Note_off_c, 0, 64, 65
1, 401946, Note_off_c, 0, 62, 65
1, 402107, Control_c, 0, 67, 109
1, 402122, Control_c, 0, 67, 88
1, 402136, Control_c, 0, 67, 66
1, 402140, Note_on_c, 0, 67, 67
1, 402151, Note_on_c, 0, 33, 66
1, 402151, Control_c, 0, 67, 42
1, 402166, Control_c, 0, 67, 0
1, 402174, Note_on_c, 0, 65, 72
1, 402181, Note_on_c, 0, 62, 72
1, 402183, Note_on_c, 0, 26, 58
1, 402191, Note_off_c, 0, 33, 64
1, 402197, Note_on_c, 0, 57, 57
1, 402211, Note_off_c, 0, 67, 62
1, 402214, Note_off_c, 0, 62, 62
1, 402216, Note_off_c, 0, 26, 64
1, 402220, Note_off_c, 0, 57, 63
1, 402222, Note_off_c, 0, 65, 59
1, 402340, Note_on_c, 0, 61, 77
1, 402341, Note_on_c, 0, 56, 77
1, 402343, Note_on_c, 0, 38, 72
1, 402345, Note_on_c, 0, 53, 74
1, 402348, Note_on_c, 0, 44, 62
1, 402348, Note_on_c, 0, 64, 63
1, 402366, Note_off_c, 0, 56, 66
1, 402371, Note_off_c, 0, 53, 68
1, 402372, Note_off_c, 0, 44, 59
1, 402373, Note_off_c, 0, 38, 64
1, 402374, Note_off_c, 0, 61, 61
1, 402375, Note_off_c, 0, 64, 66
1, 402569, Note_on_c, 0, 67, 72
1, 402572, Note_on_c, 0, 32, 69
1, 402599, Note_on_c, 0, 65, 73
1, 402604, Note_on_c, 0, 26, 69
1, 402614, Note_on_c, 0, 60, 68
1, 402618, Note_on_c, 0, 56, 77
1, 402620, Note_off_c, 0, 32, 62
1, 402635, Note_off_c, 0, 67, 63
1, 402640, Note_off_c, 0, 26, 66
1, 402643, Note_off_c, 0, 60, 68
1, 402644, Note_off_c, 0, 56, 68
1, 402655, Note_off_c, 0, 65, 63
1, 402765, Note_on_c, 0, 64, 87
1, 402766, Note_on_c, 0, 38, 77
1, 402770, Note_on_c, 0, 53, 81
1, 402771, Note_on_c, 0, 43, 66
1, 402775, Note_on_c, 0, 57, 65
1, 402783, Note_on_c, 0, 60, 52
1, 402792, Note_off_c, 0, 38, 65
1, 402792, Note_off_c, 0, 53, 70
1, 402795, Note_off_c, 0, 57, 65
1, 402798, Note_off_c, 0, 43, 63
1, 402806, Note_off_c, 0, 64, 67
1, 402807, Note_off_c, 0, 60, 60
1, 402992, Note_on_c, 0, 38, 74
1, 402998, Note_on_c, 0, 67, 76
1, 403028, Note_off_c, 0, 38, 65
1, 403033, Note_on_c, 0, 65, 76
1, 403038, Note_on_c, 0, 60, 82
1, 403040, Note_on_c, 0, 57, 83
1, 403058, Note_on_c, 0, 31, 82
1, 403064, Note_off_c, 0, 60, 70
1, 403064, Note_off_c, 0, 57, 70
1, 403078, Note_off_c, 0, 67, 62
1, 403091, Note_off_c, 0, 65, 65
1, 403093, Note_off_c, 0, 31, 64
1, 403196, Note_on_c, 0, 36, 100
1, 403198, Note_on_c, 0, 43, 91
1, 403228, Note_off_c, 0, 43, 67
1, 403237, Note_off_c, 0, 36, 65
1, 403418, Note_on_c, 0, 31, 71
1, 403420, Note_on_c, 0, 69, 67
1, 403450, Note_on_c, 0, 67, 70
1, 403455, Note_off_c, 0, 31, 66
1, 403459, Note_on_c, 0, 24, 77
1, 403466, Note_on_c, 0, 64, 64
1, 403473, Note_on_c, 0, 60, 67
1, 403478, Note_off_c, 0, 69, 58
1, 403491, Note_off_c, 0, 24, 64
1, 403496, Note_off_c, 0, 64, 65
1, 403496, Note_off_c, 0, 67, 61
1, 403498, Note_off_c, 0, 60, 67
1, 403635, Note_on_c, 0, 59, 76
1, 403635, Note_on_c, 0, 64, 68
1, 403636, Note_on_c, 0, 53, 70
1, 403637, Note_on_c, 0, 55, 71
1, 403644, Note_on_c, 0, 62, 64
1, 403660, Note_off_c, 0, 59, 67
1, 403660, Note_off_c, 0, 53, 66
1, 403666, Note_off_c, 0, 55, 66
1, 403671, Note_off_c, 0, 64, 65
1, 403672, Note_off_c, 0, 62, 65
1, 403852, Note_on_c, 0, 69, 70
1, 403862, Note_on_c, 0, 43, 69
1, 403886, Note_on_c, 0, 67, 70
1, 403899, Note_on_c, 0, 62, 69
1, 403903, Note_on_c, 0, 59, 72
1, 403903, Note_off_c, 0, 43, 64
1, 403930, Note_off_c, 0, 62, 66
1, 403931, Note_off_c, 0, 59, 68
1, 403932, Note_off_c, 0, 69, 61
1, 403933, Note_on_c, 0, 36, 56
1, 403937, Note_off_c, 0, 67, 60
1, 403955, Note_on_c, 0, 35, 37
1, 403966, Note_off_c, 0, 36, 62
1, 403998, Note_off_c, 0, 35, 32
1, 404005, Control_c, 0, 67, 55
1, 404020, Control_c, 0, 67, 78
1, 404035, Control_c, 0, 67, 83
1, 404064, Control_c, 0, 67, 86
1, 404070, Note_on_c, 0, 52, 74
1, 404072, Note_on_c, 0, 64, 68
1, 404073, Note_on_c, 0, 62, 64
1, 404077, Note_on_c, 0, 55, 63
1, 404077, Note_on_c, 0, 58, 62
1, 404079, Control_c, 0, 67, 89
1, 404094, Control_c, 0, 67, 105
1, 404098, Note_off_c, 0, 58, 64
1, 404101, Note_off_c, 0, 55, 62
1, 404104, Note_off_c, 0, 52, 65
1, 404105, Note_off_c, 0, 62, 64
1, 404109, Control_c, 0, 67, 111
1, 404111, Note_off_c, 0, 64, 64
1, 404138, Control_c, 0, 67, 109
1, 404256, Control_c, 0, 67, 104
1, 404271, Note_on_c, 0, 43, 58
1, 404271, Control_c, 0, 67, 98
1, 404274, Note_on_c, 0, 69, 60
1, 404286, Control_c, 0, 67, 96
1, 404307, Note_on_c, 0, 36, 72
1, 404320, Note_off_c, 0, 43, 60
1, 404322, Note_on_c, 0, 67, 79
1, 404331, Note_on_c, 0, 62, 65
1, 404333, Note_on_c, 0, 58, 75
1, 404342, Note_off_c, 0, 36, 61
1, 404345, Control_c, 0, 67, 94
1, 404358, Note_off_c, 0, 62, 64
1, 404362, Note_off_c, 0, 69, 63
1, 404368, Note_off_c, 0, 58, 67
1, 404368, Control_c, 0, 67, 92
1, 404373, Note_off_c, 0, 67, 64
1, 404397, Control_c, 0, 67, 95
1, 404427, Control_c, 0, 67, 95
1, 404442, Control_c, 0, 67, 91
1, 404456, Control_c, 0, 67, 84
1, 404468, Note_on_c, 0, 48, 93
1, 404471, Control_c, 0, 67, 77
1, 404478, Note_on_c, 0, 67, 90
1, 404485, Note_on_c, 0, 60, 80
1, 404486, Note_on_c, 0, 64, 78
1, 404486, Control_c, 0, 67, 67
1, 404499, Note_off_c, 0, 48, 68
1, 404501, Control_c, 0, 67, 48
1, 404506, Note_off_c, 0, 60, 71
1, 404508, Note_off_c, 0, 64, 71
1, 404516, Control_c, 0, 67, 0
1, 404521, Note_off_c, 0, 67, 64
1, 404665, Note_on_c, 0, 36, 90
1, 404674, Note_on_c, 0, 72, 81
1, 404716, Note_on_c, 0, 69, 85
1, 404723, Note_on_c, 0, 67, 78
1, 404724, Note_off_c, 0, 36, 63
1, 404727, Note_on_c, 0, 29, 93
1, 404734, Note_on_c, 0, 64, 72
1, 404739, Note_on_c, 0, 62, 73
1, 404741, Note_off_c, 0, 72, 65
1, 404746, Note_on_c, 0, 65, 54
1, 404746, Note_off_c, 0, 65, 127
1, 404758, Note_off_c, 0, 64, 68
1, 404760, Note_off_c, 0, 67, 63
1, 404763, Note_off_c, 0, 69, 62
1, 404764, Note_off_c, 0, 62, 66
1, 404766, Note_off_c, 0, 29, 63
1, 404867, Note_on_c, 0, 65, 84
1, 404868, Note_on_c, 0, 62, 80
1, 404871, Note_on_c, 0, 60, 105
1, 404882, Note_on_c, 0, 64, 48
1, 404895, Note_off_c, 0, 60, 67
1, 404906, Note_off_c, 0, 62, 66
1, 404907, Note_off_c, 0, 64, 60
1, 404917, Note_off_c, 0, 65, 65
1, 404971, Poly_aftertouch_c, 0, 67, 0
1, 405055, Note_on_c, 0, 72, 83
1, 405064, Note_on_c, 0, 57, 74
1, 405084, Note_on_c, 0, 69, 70
1, 405094, Note_off_c, 0, 57, 67
1, 405115, Note_on_c, 0, 60, 87
1, 405119, Note_on_c, 0, 65, 69
1, 405125, Note_on_c, 0, 48, 94
1, 405127, Note_off_c, 0, 72, 64
1, 405129, Note_on_c, 0, 64, 67
1, 405135, Note_off_c, 0, 60, 67
1, 405143, Note_off_c, 0, 65, 69
1, 405144, Note_on_c, 0, 62, 41
1, 405144, Note_off_c, 0, 62, 127
1, 405149, Note_off_c, 0, 64, 66
1, 405149, Note_off_c, 0, 48, 68
1, 405159, Note_off_c, 0, 69, 63
1, 405280, Note_on_c, 0, 48, 84
1, 405316, Note_off_c, 0, 48, 66
1, 405338, Control_c, 0, 67, 47
1, 405353, Control_c, 0, 67, 82
1, 405368, Control_c, 0, 67, 91
1, 405413, Control_c, 0, 67, 94
1, 405428, Control_c, 0, 67, 98
1, 405442, Control_c, 0, 67, 108
1, 405450, Note_on_c, 0, 36, 73
1, 405457, Control_c, 0, 67, 117
1, 405472, Control_c, 0, 67, 121
1, 405474, Note_on_c, 0, 67, 58
1, 405483, Note_on_c, 0, 65, 69
1, 405487, Control_c, 0, 67, 127
1, 405501, Note_on_c, 0, 62, 64
1, 405502, Note_on_c, 0, 56, 69
1, 405505, Note_off_c, 0, 36, 57
1, 405509, Note_off_c, 0, 67, 63
1, 405520, Note_on_c, 0, 41, 57
1, 405531, Note_off_c, 0, 56, 66
1, 405531, Note_off_c, 0, 62, 65
1, 405542, Note_off_c, 0, 65, 61
1, 405548, Note_off_c, 0, 41, 56
1, 405669, Note_on_c, 0, 65, 62
1, 405671, Note_on_c, 0, 43, 62
1, 405672, Note_on_c, 0, 57, 68
1, 405675, Note_on_c, 0, 60, 58
1, 405696, Note_off_c, 0, 60, 65
1, 405700, Note_off_c, 0, 43, 64
1, 405702, Note_off_c, 0, 57, 66
1, 405712, Note_off_c, 0, 65, 63
1, 405717, Poly_aftertouch_c, 0, 62, 127
1, 405764, Poly_aftertouch_c, 0, 62, 0
1, 405866, Note_on_c, 0, 69, 68
1, 405878, Note_on_c, 0, 31, 49
1, 405901, Note_on_c, 0, 36, 67
1, 405909, Note_on_c, 0, 67, 73
1, 405912, Note_off_c, 0, 31, 63
1, 405921, Note_on_c, 0, 60, 66
1, 405922, Note_off_c, 0, 69, 51
1, 405927, Note_on_c, 0, 64, 55
1, 405927, Note_off_c, 0, 36, 58
1, 405949, Note_off_c, 0, 60, 67
1, 405949, Note_off_c, 0, 64, 61
1, 405951, Note_off_c, 0, 67, 63
1, 406077, Note_on_c, 0, 64, 67
1, 406087, Note_on_c, 0, 56, 74
1, 406088, Note_on_c, 0, 60, 58
1, 406110, Note_off_c, 0, 60, 64
1, 406112, Note_off_c, 0, 56, 67
1, 406132, Note_off_c, 0, 64, 63
1, 406268, Note_on_c, 0, 68, 70
1, 406275, Note_on_c, 0, 52, 54
1, 406292, Note_off_c, 0, 68, 70
1, 406301, Note_off_c, 0, 52, 60
1, 406329, Note_on_c, 0, 67, 81
1, 406337, Note_on_c, 0, 44, 80
1, 406337, Note_on_c, 0, 64, 68
1, 406342, Note_on_c, 0, 60, 59
1, 406364, Note_off_c, 0, 60, 63
1, 406365, Note_off_c, 0, 64, 67
1, 406366, Note_off_c, 0, 44, 68
1, 406369, Note_off_c, 0, 67, 63
1, 406486, Note_on_c, 0, 47, 107
1, 406504, Control_c, 0, 67, 88
1, 406518, Control_c, 0, 67, 55
1, 406531, Note_off_c, 0, 47, 67
1, 406533, Control_c, 0, 67, 0
1, 406646, Note_on_c, 0, 40, 63
1, 406655, Note_on_c, 0, 38, 50
1, 406666, Note_on_c, 0, 67, 80
1, 406671, Note_off_c, 0, 40, 59
1, 406693, Note_off_c, 0, 38, 35
1, 406708, Note_on_c, 0, 66, 73
1, 406718, Note_on_c, 0, 63, 89
1, 406721, Note_off_c, 0, 67, 61
1, 406724, Note_on_c, 0, 59, 88
1, 406727, Note_on_c, 0, 55, 87
1, 406745, Note_off_c, 0, 59, 71
1, 406748, Note_off_c, 0, 63, 65
1, 406751, Note_off_c, 0, 55, 69
1, 406756, Note_off_c, 0, 66, 66
1, 406882, Note_on_c, 0, 62, 90
1, 406885, Note_on_c, 0, 45, 90
1, 406891, Note_on_c, 0, 58, 75
1, 406893, Note_on_c, 0, 55, 69
1, 406915, Note_off_c, 0, 55, 63
1, 406918, Note_off_c, 0, 58, 64
1, 406922, Note_off_c, 0, 62, 63
1, 406925, Note_off_c, 0, 45, 65
1, 407059, Note_on_c, 0, 38, 80
1, 407090, Note_on_c, 0, 67, 74
1, 407109, Note_off_c, 0, 38, 60
1, 407135, Note_on_c, 0, 33, 94
1, 407136, Note_on_c, 0, 65, 84
1, 407146, Note_on_c, 0, 58, 78
1, 407149, Control_c, 0, 67, 95
1, 407153, Note_on_c, 0, 62, 67
1, 407160, Note_off_c, 0, 33, 69
1, 407160, Note_off_c, 0, 67, 64
1, 407164, Control_c, 0, 67, 127
1, 407171, Note_off_c, 0, 58, 66
1, 407174, Note_off_c, 0, 62, 64
1, 407177, Note_off_c, 0, 65, 64
1, 407289, Note_on_c, 0, 45, 103
1, 407328, Note_off_c, 0, 45, 67
1, 407464, Note_on_c, 0, 38, 78
1, 407491, Note_off_c, 0, 38, 64
1, 407496, Note_on_c, 0, 65, 60
1, 407531, Note_on_c, 0, 64, 62
1, 407538, Note_off_c, 0, 65, 62
1, 407544, Note_on_c, 0, 53, 79
1, 407554, Note_on_c, 0, 57, 69
1, 407559, Note_on_c, 0, 61, 45
1, 407567, Note_off_c, 0, 53, 68
1, 407574, Note_off_c, 0, 64, 63
1, 407581, Note_off_c, 0, 57, 67
1, 407585, Note_off_c, 0, 61, 57
1, 407717, Note_on_c, 0, 38, 72
1, 407730, Note_on_c, 0, 57, 39
1, 407733, Note_on_c, 0, 60, 49
1, 407736, Note_on_c, 0, 53, 54
1, 407747, Note_off_c, 0, 38, 65
1, 407760, Note_off_c, 0, 60, 59
1, 407762, Note_off_c, 0, 53, 59
1, 407763, Note_off_c, 0, 57, 48
1, 407911, Note_on_c, 0, 31, 56
1, 407917, Note_on_c, 0, 65, 66
1, 407943, Note_off_c, 0, 31, 54
1, 407970, Note_on_c, 0, 64, 81
1, 407970, Note_off_c, 0, 65, 55
1, 407973, Note_on_c, 0, 60, 77
1, 407974, Note_on_c, 0, 57, 76
1, 407991, Note_on_c, 0, 43, 69
1, 407993, Note_off_c, 0, 64, 71
1, 407998, Note_off_c, 0, 60, 70
1, 408001, Note_off_c, 0, 57, 67
1, 408018, Note_off_c, 0, 43, 65
1, 408166, Note_on_c, 0, 38, 68
1, 408206, Note_off_c, 0, 38, 65
1, 408376, Note_on_c, 0, 32, 57
1, 408383, Note_on_c, 0, 64, 59
1, 408420, Note_off_c, 0, 32, 57
1, 408429, Note_off_c, 0, 64, 56
1, 408460, Note_on_c, 0, 59, 68
1, 408462, Note_on_c, 0, 53, 68
1, 408462, Note_on_c, 0, 63, 68
1, 408468, Note_on_c, 0, 44, 70
1, 408487, Note_off_c, 0, 59, 66
1, 408490, Note_off_c, 0, 63, 68
1, 408491, Note_off_c, 0, 53, 66
1, 408494, Note_off_c, 0, 44, 66
1, 408707, Note_on_c, 0, 45, 57
1, 408738, Note_off_c, 0, 45, 63
1, 408996, Note_on_c, 0, 34, 56
1, 409004, Note_on_c, 0, 63, 58
1, 409037, Note_off_c, 0, 34, 59
1, 409054, Note_off_c, 0, 63, 54
1, 409129, Note_on_c, 0, 33, 72
1, 409136, Note_on_c, 0, 62, 63
1, 409137, Note_on_c, 0, 58, 60
1, 409145, Note_on_c, 0, 55, 48
1, 409155, Note_off_c, 0, 33, 63
1, 409166, Note_off_c, 0, 58, 66
1, 409169, Note_off_c, 0, 62, 65
1, 409172, Note_off_c, 0, 55, 56
1, 409502, Note_on_c, 0, 53, 56
1, 409505, Note_on_c, 0, 38, 62
1, 409506, Note_on_c, 0, 57, 50
1, 409515, Note_on_c, 0, 62, 40
1, 409520, Note_on_c, 0, 64, 42
1, 409527, Note_off_c, 0, 53, 61
1, 409532, Note_off_c, 0, 57, 57
1, 409538, Note_off_c, 0, 38, 64
1, 409544, Note_off_c, 0, 62, 53
1, 409547, Note_off_c, 0, 64, 57
1, 409813, Note_on_c, 0, 67, 60
1, 409815, Note_on_c, 0, 33, 60
1, 409857, Note_on_c, 0, 65, 62
1, 409866, Note_off_c, 0, 33, 61
1, 409867, Note_on_c, 0, 26, 58
1, 409870, Note_on_c, 0, 62, 44
1, 409874, Note_on_c, 0, 57, 46
1, 409877, Note_off_c, 0, 67, 62
1, 409889, Note_off_c, 0, 65, 63
1, 409898, Note_off_c, 0, 62, 54
1, 409899, Note_off_c, 0, 26, 63
1, 409900, Note_off_c, 0, 57, 55
1, 410074, Note_on_c, 0, 38, 72
1, 410084, Note_on_c, 0, 64, 60
1, 410086, Note_on_c, 0, 53, 62
1, 410087, Note_on_c, 0, 45, 51
1, 410089, Note_on_c, 0, 60, 49
1, 410100, Note_off_c, 0, 38, 65
1, 410106, Note_on_c, 0, 62, 39
1, 410107, Note_off_c, 0, 53, 61
1, 410114, Note_off_c, 0, 60, 58
1, 410115, Note_off_c, 0, 64, 66
1, 410116, Note_off_c, 0, 45, 52
1, 410137, Note_off_c, 0, 62, 54
1, 410260, Control_c, 0, 67, 116
1, 410274, Control_c, 0, 67, 101
1, 410289, Control_c, 0, 67, 81
1, 410304, Control_c, 0, 67, 58
1, 410313, Note_on_c, 0, 33, 69
1, 410314, Note_on_c, 0, 67, 65
1, 410320, Control_c, 0, 67, 0
1, 410358, Note_on_c, 0, 65, 67
1, 410367, Note_on_c, 0, 62, 64
1, 410367, Note_off_c, 0, 33, 61
1, 410371, Note_on_c, 0, 26, 59
1, 410376, Note_on_c, 0, 60, 55
1, 410379, Note_off_c, 0, 67, 62
1, 410395, Note_off_c, 0, 62, 64
1, 410397, Note_off_c, 0, 65, 61
1, 410398, Note_off_c, 0, 60, 60
1, 410402, Note_off_c, 0, 26, 60
1, 410536, Note_on_c, 0, 38, 80
1, 410536, Note_on_c, 0, 62, 64
1, 410540, Note_on_c, 0, 53, 81
1, 410541, Note_on_c, 0, 64, 69
1, 410542, Note_on_c, 0, 43, 67
1, 410545, Note_on_c, 0, 59, 69
1, 410562, Note_off_c, 0, 53, 68
1, 410564, Note_off_c, 0, 38, 64
1, 410567, Note_off_c, 0, 43, 62
1, 410567, Note_off_c, 0, 59, 65
1, 410573, Note_off_c, 0, 64, 67
1, 410575, Note_off_c, 0, 62, 64
1, 410759, Note_on_c, 0, 67, 71
1, 410760, Note_on_c, 0, 31, 69
1, 410801, Note_off_c, 0, 31, 65
1, 410802, Note_on_c, 0, 65, 75
1, 410802, Note_on_c, 0, 26, 61
1, 410804, Note_on_c, 0, 62, 78
1, 410805, Note_on_c, 0, 59, 80
1, 410829, Note_off_c, 0, 62, 68
1, 410829, Note_off_c, 0, 67, 63
1, 410830, Note_off_c, 0, 59, 69
1, 410831, Note_off_c, 0, 26, 64
1, 410843, Note_off_c, 0, 65, 63
1, 410951, Note_on_c, 0, 37, 85
1, 410956, Note_on_c, 0, 53, 89
1, 410957, Note_on_c, 0, 62, 77
1, 410957, Note_on_c, 0, 64, 80
1, 410960, Note_on_c, 0, 58, 76
1, 410960, Note_on_c, 0, 44, 69
1, 410973, Note_off_c, 0, 37, 64
1, 410976, Note_off_c, 0, 53, 71
1, 410981, Note_off_c, 0, 44, 63
1, 410983, Note_off_c, 0, 58, 67
1, 410986, Note_off_c, 0, 62, 64
1, 410987, Note_off_c, 0, 64, 62
1, 411183, Note_on_c, 0, 32, 71
1, 411190, Note_on_c, 0, 67, 70
1, 411219, Note_on_c, 0, 65, 66
1, 411234, Note_on_c, 0, 62, 60
1, 411234, Note_off_c, 0, 32, 61
1, 411235, Note_on_c, 0, 58, 61
1, 411238, Note_off_c, 0, 67, 62
1, 411246, Note_on_c, 0, 26, 41
1, 411251, Note_off_c, 0, 65, 62
1, 411255, Control_c, 0, 67, 57
1, 411257, Note_off_c, 0, 62, 64
1, 411264, Note_off_c, 0, 58, 64
1, 411270, Control_c, 0, 67, 64
1, 411285, Control_c, 0, 67, 63
1, 411288, Note_off_c, 0, 26, 49
1, 411300, Control_c, 0, 67, 65
1, 411315, Control_c, 0, 67, 72
1, 411330, Control_c, 0, 67, 93
1, 411345, Control_c, 0, 67, 126
1, 411394, Note_on_c, 0, 62, 62
1, 411399, Note_on_c, 0, 45, 59
1, 411402, Note_on_c, 0, 59, 63
1, 411406, Note_on_c, 0, 53, 55
1, 411422, Note_off_c, 0, 59, 63
1, 411428, Note_off_c, 0, 45, 64
1, 411430, Note_off_c, 0, 62, 62
1, 411431, Note_off_c, 0, 53, 59
1, 411601, Note_on_c, 0, 33, 63
1, 411613, Note_on_c, 0, 65, 61
1, 411641, Note_off_c, 0, 33, 63
1, 411651, Note_on_c, 0, 64, 59
1, 411663, Note_on_c, 0, 59, 54
1, 411663, Note_on_c, 0, 62, 52
1, 411664, Note_on_c, 0, 38, 76
1, 411674, Note_off_c, 0, 65, 61
1, 411682, Note_off_c, 0, 64, 64
1, 411686, Note_off_c, 0, 59, 59
1, 411687, Note_off_c, 0, 62, 58
1, 411690, Note_off_c, 0, 38, 65
1, 411824, Note_on_c, 0, 45, 72
1, 411863, Note_off_c, 0, 45, 66
1, 412004, Control_c, 0, 67, 107
1, 412018, Note_on_c, 0, 40, 75
1, 412019, Control_c, 0, 67, 39
1, 412024, Note_on_c, 0, 65, 73
1, 412034, Control_c, 0, 67, 0
1, 412065, Note_on_c, 0, 61, 77
1, 412069, Note_on_c, 0, 33, 73
1, 412069, Note_on_c, 0, 64, 66
1, 412071, Note_on_c, 0, 57, 70
1, 412075, Note_off_c, 0, 40, 61
1, 412093, Note_off_c, 0, 65, 62
1, 412096, Note_off_c, 0, 33, 63
1, 412099, Note_off_c, 0, 57, 66
1, 412100, Note_off_c, 0, 61, 65
1, 412113, Note_off_c, 0, 64, 67
1, 412221, Note_on_c, 0, 48, 90
1, 412221, Note_on_c, 0, 67, 99
1, 412226, Note_on_c, 0, 55, 75
1, 412226, Note_on_c, 0, 64, 89
1, 412227, Note_on_c, 0, 60, 87
1, 412241, Note_on_c, 0, 57, 45
1, 412245, Note_off_c, 0, 48, 68
1, 412246, Note_off_c, 0, 55, 63
1, 412246, Note_off_c, 0, 60, 72
1, 412247, Note_off_c, 0, 64, 72
1, 412264, Note_off_c, 0, 67, 67
1, 412270, Note_off_c, 0, 57, 32
1, 412426, Note_on_c, 0, 72, 77
1, 412427, Note_on_c, 0, 36, 83
1, 412465, Note_on_c, 0, 67, 81
1, 412467, Note_on_c, 0, 69, 77
1, 412473, Note_on_c, 0, 29, 79
1, 412477, Note_off_c, 0, 36, 63
1, 412479, Note_on_c, 0, 64, 75
1, 412495, Note_off_c, 0, 72, 64
1, 412503, Note_off_c, 0, 67, 64
1, 412503, Note_off_c, 0, 64, 70
1, 412507, Note_off_c, 0, 29, 68
1, 412507, Note_off_c, 0, 69, 62
1, 412617, Note_on_c, 0, 65, 89
1, 412618, Note_on_c, 0, 62, 92
1, 412619, Note_on_c, 0, 60, 94
1, 412644, Note_off_c, 0, 60, 69
1, 412651, Note_off_c, 0, 62, 67
1, 412664, Note_off_c, 0, 65, 66
1, 412814, Note_on_c, 0, 72, 81
1, 412816, Note_on_c, 0, 57, 70
1, 412850, Note_off_c, 0, 57, 66
1, 412859, Note_on_c, 0, 69, 80
1, 412869, Note_on_c, 0, 65, 86
1, 412872, Note_on_c, 0, 60, 83
1, 412877, Note_on_c, 0, 48, 95
1, 412883, Note_off_c, 0, 72, 64
1, 412890, Note_off_c, 0, 60, 72
1, 412891, Note_on_c, 0, 62, 56
1, 412899, Note_off_c, 0, 65, 60
1, 412901, Note_off_c, 0, 48, 68
1, 412909, Note_off_c, 0, 69, 63
1, 412916, Note_off_c, 0, 62, 37
1, 413020, Note_on_c, 0, 48, 90
1, 413026, Note_on_c, 0, 47, 80
1, 413053, Note_off_c, 0, 47, 68
1, 413054, Note_off_c, 0, 48, 67
1, 413183, Note_on_c, 0, 36, 83
1, 413192, Note_on_c, 0, 67, 75
1, 413205, Note_on_c, 0, 65, 78
1, 413218, Note_on_c, 0, 62, 77
1, 413219, Note_on_c, 0, 56, 88
1, 413222, Note_on_c, 0, 41, 94
1, 413243, Note_off_c, 0, 36, 65
1, 413247, Note_off_c, 0, 56, 66
1, 413257, Note_off_c, 0, 67, 63
1, 413261, Note_off_c, 0, 41, 67
1, 413261, Note_off_c, 0, 62, 64
1, 413273, Note_off_c, 0, 65, 64
1, 413381, Note_on_c, 0, 43, 102
1, 413387, Note_on_c, 0, 65, 91
1, 413387, Note_on_c, 0, 57, 93
1, 413388, Note_on_c, 0, 60, 88
1, 413394, Note_on_c, 0, 62, 66
1, 413407, Note_on_c, 0, 64, 50
1, 413410, Note_off_c, 0, 57, 70
1, 413414, Note_off_c, 0, 62, 68
1, 413417, Note_off_c, 0, 60, 65
1, 413425, Note_off_c, 0, 43, 65
1, 413431, Note_off_c, 0, 64, 62
1, 413435, Note_off_c, 0, 65, 66
1, 413568, Note_on_c, 0, 69, 79
1, 413574, Note_on_c, 0, 31, 85
1, 413616, Note_on_c, 0, 67, 85
1, 413622, Note_on_c, 0, 36, 83
1, 413625, Note_on_c, 0, 60, 76
1, 413625, Note_on_c, 0, 64, 78
1, 413640, Note_off_c, 0, 31, 63
1, 413643, Note_off_c, 0, 69, 63
1, 413649, Note_off_c, 0, 60, 68
1, 413661, Note_off_c, 0, 64, 63
1, 413664, Note_off_c, 0, 67, 62
1, 413670, Note_off_c, 0, 36, 64
1, 413764, Note_on_c, 0, 64, 91
1, 413771, Note_on_c, 0, 56, 90
1, 413773, Note_on_c, 0, 60, 81
1, 413792, Note_off_c, 0, 56, 72
1, 413796, Note_off_c, 0, 60, 70
1, 413811, Note_off_c, 0, 64, 67
1, 413829, Control_c, 0, 67, 48
1, 413858, Control_c, 0, 67, 44
1, 413873, Control_c, 0, 67, 42
1, 413902, Control_c, 0, 67, 41
1, 413917, Control_c, 0, 67, 37
1, 413932, Control_c, 0, 67, 0
1, 413935, Note_on_c, 0, 68, 90
1, 413940, Note_on_c, 0, 52, 87
1, 413974, Note_off_c, 0, 68, 61
1, 413979, Note_off_c, 0, 52, 65
1, 414001, Note_on_c, 0, 67, 81
1, 414008, Note_on_c, 0, 60, 94
1, 414014, Note_on_c, 0, 64, 81
1, 414017, Note_on_c, 0, 44, 90
1, 414026, Note_on_c, 0, 66, 58
1, 414026, Note_off_c, 0, 66, 127
1, 414027, Note_off_c, 0, 60, 71
1, 414033, Note_on_c, 0, 69, 40
1, 414035, Note_off_c, 0, 64, 70
1, 414044, Note_off_c, 0, 44, 69
1, 414048, Poly_aftertouch_c, 0, 66, 0
1, 414050, Note_off_c, 0, 67, 66
1, 414064, Note_off_c, 0, 69, 39
1, 414239, Note_on_c, 0, 57, 101
1, 414239, Note_on_c, 0, 60, 100
1, 414240, Note_on_c, 0, 52, 95
1, 414266, Note_off_c, 0, 60, 66
1, 414266, Control_c, 0, 64, 77
1, 414268, Note_off_c, 0, 57, 65
1, 414281, Control_c, 0, 64, 127
1, 414286, Note_off_c, 0, 52, 66
1, 414426, Note_on_c, 0, 40, 93
1, 414430, Note_on_c, 0, 76, 88
1, 414459, Control_c, 0, 64, 82
1, 414463, Note_off_c, 0, 40, 64
1, 414473, Control_c, 0, 64, 48
1, 414488, Control_c, 0, 64, 0
1, 414493, Note_on_c, 0, 72, 87
1, 414495, Note_on_c, 0, 33, 101
1, 414497, Note_on_c, 0, 69, 95
1, 414500, Note_on_c, 0, 64, 96
1, 414512, Note_off_c, 0, 76, 64
1, 414521, Note_off_c, 0, 69, 68
1, 414522, Note_off_c, 0, 64, 68
1, 414536, Note_off_c, 0, 33, 60
1, 414541, Note_off_c, 0, 72, 64
1, 414663, Note_on_c, 0, 63, 99
1, 414665, Note_on_c, 0, 60, 84
1, 414665, Note_on_c, 0, 69, 87
1, 414669, Note_on_c, 0, 48, 85
1, 414671, Note_on_c, 0, 55, 80
1, 414675, Note_on_c, 0, 71, 68
1, 414678, Note_on_c, 0, 62, 69
1, 414683, Note_off_c, 0, 63, 69
1, 414686, Note_off_c, 0, 60, 73
1, 414693, Note_off_c, 0, 71, 41
1, 414694, Note_off_c, 0, 55, 68
1, 414695, Note_off_c, 0, 48, 66
1, 414698, Note_off_c, 0, 62, 64
1, 414704, Note_off_c, 0, 69, 65
1, 414857, Note_on_c, 0, 45, 80
1, 414857, Note_on_c, 0, 74, 88
1, 414859, Note_on_c, 0, 43, 80
1, 414886, Note_off_c, 0, 45, 66
1, 414889, Note_off_c, 0, 43, 63
1, 414904, Note_on_c, 0, 66, 47
1, 414912, Note_on_c, 0, 63, 85
1, 414912, Note_on_c, 0, 70, 77
1, 414916, Note_on_c, 0, 67, 73
1, 414930, Note_on_c, 0, 36, 97
1, 414931, Note_off_c, 0, 74, 62
1, 414932, Note_off_c, 0, 63, 71
1, 414938, Note_off_c, 0, 67, 70
1, 414941, Note_off_c, 0, 66, 58
1, 414946, Note_off_c, 0, 70, 64
1, 414963, Note_off_c, 0, 36, 64
1, 415074, Note_on_c, 0, 50, 96
1, 415074, Control_c, 0, 67, 58
1, 415089, Control_c, 0, 67, 104
1, 415104, Control_c, 0, 67, 122
1, 415115, Note_off_c, 0, 50, 68
1, 415193, Control_c, 0, 67, 118
1, 415238, Control_c, 0, 67, 122
1, 415243, Note_on_c, 0, 38, 76
1, 415249, Note_on_c, 0, 66, 66
1, 415250, Note_on_c, 0, 62, 63
1, 415253, Control_c, 0, 67, 124
1, 415253, Note_on_c, 0, 58, 65
1, 415267, Control_c, 0, 67, 126
1, 415272, Note_off_c, 0, 58, 63
1, 415279, Note_off_c, 0, 38, 66
1, 415280, Note_off_c, 0, 62, 63
1, 415311, Note_on_c, 0, 69, 81
1, 415317, Note_off_c, 0, 66, 62
1, 415327, Note_on_c, 0, 43, 71
1, 415348, Note_off_c, 0, 43, 62
1, 415351, Note_off_c, 0, 69, 64
1, 415478, Note_on_c, 0, 43, 80
1, 415478, Note_on_c, 0, 61, 72
1, 415482, Note_on_c, 0, 58, 72
1, 415488, Note_on_c, 0, 65, 63
1, 415503, Note_off_c, 0, 43, 68
1, 415503, Note_off_c, 0, 61, 68
1, 415505, Note_off_c, 0, 58, 65
1, 415516, Note_off_c, 0, 65, 66
1, 415638, Note_on_c, 0, 36, 62
1, 415666, Note_on_c, 0, 72, 72
1, 415669, Note_off_c, 0, 36, 63
1, 415720, Note_on_c, 0, 69, 80
1, 415721, Note_off_c, 0, 72, 57
1, 415724, Note_on_c, 0, 65, 76
1, 415724, Note_on_c, 0, 53, 75
1, 415727, Note_on_c, 0, 61, 71
1, 415744, Note_off_c, 0, 65, 71
1, 415746, Note_off_c, 0, 69, 63
1, 415747, Note_off_c, 0, 53, 67
1, 415753, Note_off_c, 0, 61, 67
1, 415897, Note_on_c, 0, 48, 76
1, 415924, Note_off_c, 0, 48, 65
1, 416054, Note_on_c, 0, 36, 65
1, 416074, Note_on_c, 0, 60, 52
1, 416074, Note_on_c, 0, 64, 57
1, 416084, Note_on_c, 0, 57, 37
1, 416091, Note_off_c, 0, 36, 62
1, 416097, Note_off_c, 0, 60, 61
1, 416117, Note_off_c, 0, 57, 49
1, 416119, Note_on_c, 0, 41, 77
1, 416138, Note_off_c, 0, 64, 57
1, 416144, Note_off_c, 0, 41, 66
1, 416147, Note_on_c, 0, 67, 61
1, 416168, Note_off_c, 0, 67, 62
1, 416317, Note_on_c, 0, 35, 53
1, 416353, Note_off_c, 0, 35, 57
1, 416492, Note_on_c, 0, 47, 65
1, 416496, Note_on_c, 0, 55, 61
1, 416500, Note_on_c, 0, 59, 56
1, 416504, Note_on_c, 0, 63, 59
1, 416523, Note_off_c, 0, 59, 61
1, 416524, Note_off_c, 0, 47, 64
1, 416525, Note_off_c, 0, 55, 64
1, 416541, Note_off_c, 0, 63, 63
1, 416567, Note_on_c, 0, 40, 60
1, 416569, Note_on_c, 0, 66, 81
1, 416594, Note_off_c, 0, 40, 56
1, 416599, Note_off_c, 0, 66, 62
1, 416737, Note_on_c, 0, 46, 68
1, 416763, Note_off_c, 0, 46, 65
1, 416906, Note_on_c, 0, 34, 66
1, 416922, Note_on_c, 0, 62, 57
1, 416928, Note_on_c, 0, 58, 51
1, 416933, Note_on_c, 0, 55, 40
1, 416937, Note_off_c, 0, 34, 64
1, 416952, Note_off_c, 0, 58, 58
1, 416966, Note_off_c, 0, 62, 55
1, 416968, Note_off_c, 0, 55, 52
1, 416978, Note_on_c, 0, 39, 77
1, 416985, Note_on_c, 0, 65, 72
1, 416999, Note_off_c, 0, 39, 67
1, 417008, Note_off_c, 0, 65, 69
1, 417017, Control_c, 0, 67, 115
1, 417032, Control_c, 0, 67, 77
1, 417047, Control_c, 0, 67, 38
1, 417062, Control_c, 0, 67, 0
1, 417209, Note_on_c, 0, 33, 94
1, 417214, Note_on_c, 0, 61, 85
1, 417215, Note_on_c, 0, 53, 85
1, 417217, Note_on_c, 0, 57, 83
1, 417243, Note_off_c, 0, 57, 68
1, 417244, Note_off_c, 0, 53, 62
1, 417265, Note_off_c, 0, 61, 63
1, 417274, Note_off_c, 0, 33, 51
1, 417469, Note_on_c, 0, 64, 68
1, 417475, Note_on_c, 0, 45, 69
1, 417506, Note_off_c, 0, 45, 63
1, 417519, Note_off_c, 0, 64, 60
1, 417529, Control_c, 0, 67, 88
1, 417544, Control_c, 0, 67, 127
1, 417548, Note_on_c, 0, 62, 71
1, 417550, Note_on_c, 0, 38, 72
1, 417555, Note_on_c, 0, 54, 68
1, 417558, Note_on_c, 0, 57, 55
1, 417576, Note_off_c, 0, 62, 67
1, 417581, Note_off_c, 0, 38, 63
1, 417582, Note_off_c, 0, 54, 68
1, 417583, Note_off_c, 0, 57, 37
1, 417963, Note_on_c, 0, 32, 69
1, 417976, Note_on_c, 0, 62, 61
1, 417995, Note_off_c, 0, 32, 61
1, 418015, Note_off_c, 0, 62, 59
1, 418053, Note_on_c, 0, 37, 72
1, 418053, Note_on_c, 0, 61, 66
1, 418064, Note_on_c, 0, 53, 56
1, 418067, Note_on_c, 0, 56, 52
1, 418077, Note_off_c, 0, 37, 66
1, 418081, Note_off_c, 0, 61, 66
1, 418089, Note_off_c, 0, 53, 59
1, 418093, Note_off_c, 0, 56, 57
1, 418292, Note_on_c, 0, 43, 55
1, 418323, Note_off_c, 0, 43, 63
1, 418526, Note_on_c, 0, 33, 59
1, 418531, Note_on_c, 0, 62, 52
1, 418568, Note_off_c, 0, 33, 60
1, 418569, Note_off_c, 0, 62, 62
1, 418629, Note_on_c, 0, 60, 70
1, 418631, Note_on_c, 0, 57, 65
1, 418633, Note_on_c, 0, 53, 63
1, 418636, Note_on_c, 0, 31, 65
1, 418651, Note_off_c, 0, 57, 65
1, 418654, Note_off_c, 0, 60, 67
1, 418655, Note_off_c, 0, 53, 63
1, 418664, Note_off_c, 0, 31, 61
1, 418955, Note_on_c, 0, 45, 43
1, 419038, Note_off_c, 0, 45, 60
1, 419295, Note_on_c, 0, 62, 44
1, 419321, Note_on_c, 0, 34, 30
1, 419380, Note_off_c, 0, 34, 45
1, 419511, Note_off_c, 0, 62, 56
1, 419560, Note_on_c, 0, 61, 34
1, 419572, Note_on_c, 0, 33, 33
1, 419597, Poly_aftertouch_c, 0, 55, 127
1, 419610, Poly_aftertouch_c, 0, 52, 127
1, 419634, Note_off_c, 0, 33, 54
1, 419720, Note_off_c, 0, 61, 53
1, 419730, Poly_aftertouch_c, 0, 52, 0
1, 419738, Poly_aftertouch_c, 0, 55, 0
1, 420094, Control_c, 0, 67, 116
1, 420108, Control_c, 0, 67, 101
1, 420123, Control_c, 0, 67, 95
1, 420138, Control_c, 0, 67, 88
1, 420153, Control_c, 0, 67, 71
1, 420168, Control_c, 0, 67, 50
1, 420183, Control_c, 0, 67, 38
1, 420198, Control_c, 0, 67, 34
1, 420212, Control_c, 0, 67, 0
1, 420371, Note_on_c, 0, 26, 79
1, 420372, Note_on_c, 0, 38, 101
1, 420375, Control_c, 0, 64, 62
1, 420390, Control_c, 0, 64, 127
1, 420401, Note_off_c, 0, 38, 67
1, 420410, Note_off_c, 0, 26, 66
1, 421341, Note_on_c, 0, 86, 97
1, 421342, Note_on_c, 0, 77, 87
1, 421343, Note_on_c, 0, 74, 99
1, 421343, Note_on_c, 0, 81, 83
1, 421349, Note_on_c, 0, 62, 81
1, 421351, Note_on_c, 0, 65, 85
1, 421357, Note_on_c, 0, 57, 74
1, 421360, Note_on_c, 0, 53, 72
1, 424050, Note_off_c, 0, 65, 59
1, 424105, Note_off_c, 0, 53, 31
1, 424106, Note_off_c, 0, 86, 55
1, 424138, Note_off_c, 0, 74, 54
1, 424144, Note_off_c, 0, 57, 56
1, 424160, Note_off_c, 0, 62, 60
1, 424200, Note_off_c, 0, 77, 57
1, 424201, Note_off_c, 0, 81, 54
1, 424571, Control_c, 0, 64, 113
1, 424586, Control_c, 0, 64, 98
1, 424601, Control_c, 0, 64, 84
1, 424616, Control_c, 0, 64, 72
1, 424630, Control_c, 0, 64, 61
1, 424645, Control_c, 0, 64, 49
1, 424660, Control_c, 0, 64, 36
1, 424675, Control_c, 0, 64, 0
1, 425104, Control_c, 0, 67, 35
1, 425119, Control_c, 0, 67, 44
1, 425134, Control_c, 0, 67, 52
1, 425149, Control_c, 0, 67, 66
1, 425164, Control_c, 0, 67, 85
1, 425179, Control_c, 0, 67, 102
1, 425193, Control_c, 0, 67, 117
1, 425208, Control_c, 0, 67, 127
1, 425483, Note_on_c, 0, 74, 91
1, 425486, Note_on_c, 0, 62, 71
1, 425531, Note_off_c, 0, 74, 62
1, 425543, Note_on_c, 0, 76, 82
1, 425543, Note_off_c, 0, 62, 63
1, 425555, Note_on_c, 0, 64, 73
1, 425583, Note_off_c, 0, 64, 62
1, 425604, Note_on_c, 0, 74, 101
1, 425608, Note_on_c, 0, 62, 72
1, 425617, Note_off_c, 0, 76, 64
1, 425749, Control_c, 0, 64, 31
1, 425764, Control_c, 0, 64, 43
1, 425779, Control_c, 0, 64, 54
1, 425794, Control_c, 0, 64, 62
1, 425809, Control_c, 0, 64, 67
1, 425823, Control_c, 0, 64, 73
1, 425838, Control_c, 0, 64, 79
1, 425853, Control_c, 0, 64, 88
1, 425868, Control_c, 0, 64, 100
1, 425882, Control_c, 0, 64, 127
1, 425962, Note_off_c, 0, 62, 63
1, 426021, Note_off_c, 0, 74, 65
1, 426548, Note_on_c, 0, 38, 56
1, 426622, Note_off_c, 0, 38, 59
1, 426640, Note_on_c, 0, 43, 52
1, 426687, Note_off_c, 0, 43, 60
1, 426711, Note_on_c, 0, 50, 62
1, 426749, Note_off_c, 0, 50, 66
1, 426762, Note_on_c, 0, 53, 50
1, 426801, Note_on_c, 0, 58, 70
1, 426863, Note_on_c, 0, 62, 62
1, 426881, Note_off_c, 0, 53, 61
1, 426925, Note_on_c, 0, 65, 67
1, 426941, Note_off_c, 0, 58, 62
1, 426971, Note_off_c, 0, 62, 59
1, 426997, Note_off_c, 0, 65, 62
1, 427129, Control_c, 0, 67, 125
1, 427159, Control_c, 0, 67, 122
1, 427188, Control_c, 0, 67, 111
1, 427203, Control_c, 0, 67, 94
1, 427218, Control_c, 0, 67, 82
1, 427233, Control_c, 0, 67, 71
1, 427248, Control_c, 0, 67, 59
1, 427263, Control_c, 0, 67, 46
1, 427278, Control_c, 0, 67, 35
1, 427292, Control_c, 0, 67, 0
1, 427959, Note_on_c, 0, 73, 77
1, 427963, Note_on_c, 0, 61, 51
1, 428108, Note_on_c, 0, 74, 94
1, 428118, Note_on_c, 0, 62, 58
1, 428139, Note_off_c, 0, 61, 49
1, 428168, Note_off_c, 0, 73, 58
1, 428237, Note_on_c, 0, 76, 92
1, 428267, Note_on_c, 0, 64, 59
1, 428283, Note_off_c, 0, 62, 59
1, 428285, Note_off_c, 0, 74, 64
1, 428410, Note_off_c, 0, 64, 60
1, 428449, Control_c, 0, 67, 35
1, 428463, Control_c, 0, 67, 68
1, 428478, Control_c, 0, 67, 98
1, 428493, Control_c, 0, 67, 122
1, 428508, Control_c, 0, 67, 127
1, 428634, Note_off_c, 0, 76, 58
1, 428640, Note_on_c, 0, 61, 61
1, 428643, Note_on_c, 0, 73, 75
1, 428674, Note_off_c, 0, 61, 63
1, 428675, Note_off_c, 0, 73, 61
1, 428706, Note_on_c, 0, 62, 66
1, 428708, Note_on_c, 0, 74, 77
1, 428730, Control_c, 0, 64, 104
1, 428737, Note_off_c, 0, 62, 60
1, 428745, Control_c, 0, 64, 77
1, 428752, Note_on_c, 0, 73, 78
1, 428759, Control_c, 0, 64, 59
1, 428760, Note_off_c, 0, 74, 61
1, 428770, Note_on_c, 0, 61, 57
1, 428774, Control_c, 0, 64, 0
1, 428923, Control_c, 0, 64, 38
1, 428938, Control_c, 0, 64, 56
1, 428953, Control_c, 0, 64, 68
1, 428967, Control_c, 0, 64, 78
1, 428982, Control_c, 0, 64, 91
1, 428997, Control_c, 0, 64, 113
1, 429011, Control_c, 0, 64, 127
1, 429015, Note_off_c, 0, 61, 64
1, 429086, Note_off_c, 0, 73, 64
1, 429442, Note_on_c, 0, 37, 43
1, 429570, Note_on_c, 0, 42, 45
1, 429632, Note_off_c, 0, 37, 38
1, 429670, Note_off_c, 0, 42, 59
1, 429683, Note_on_c, 0, 52, 33
1, 429773, Note_on_c, 0, 54, 52
1, 429781, Note_off_c, 0, 52, 62
1, 429884, Note_on_c, 0, 58, 41
1, 429942, Note_on_c, 0, 61, 53
1, 429979, Note_off_c, 0, 54, 37
1, 430029, Note_off_c, 0, 58, 34
1, 430074, Note_on_c, 0, 66, 48
1, 430157, Note_off_c, 0, 61, 31
1, 430223, Note_off_c, 0, 66, 60
1, 431558, Note_on_c, 0, 73, 81
1, 431566, Note_on_c, 0, 61, 54
1, 431695, Control_c, 0, 67, 121
1, 431710, Control_c, 0, 67, 106
1, 431725, Control_c, 0, 67, 95
1, 431740, Control_c, 0, 67, 87
1, 431755, Control_c, 0, 67, 73
1, 431770, Control_c, 0, 67, 50
1, 431785, Control_c, 0, 67, 0
1, 431790, Note_on_c, 0, 74, 96
1, 431802, Note_on_c, 0, 62, 65
1, 431874, Note_off_c, 0, 73, 40
1, 431880, Note_off_c, 0, 61, 55
1, 431940, Note_on_c, 0, 76, 93
1, 431952, Note_on_c, 0, 64, 75
1, 431970, Note_off_c, 0, 74, 63
1, 431977, Note_off_c, 0, 62, 62
1, 432011, Note_off_c, 0, 64, 62
1, 432074, Note_off_c, 0, 76, 59
1, 432123, Note_on_c, 0, 62, 66
1, 432140, Note_on_c, 0, 74, 85
1, 432175, Note_off_c, 0, 62, 60
1, 432181, Note_on_c, 0, 64, 71
1, 432187, Note_on_c, 0, 76, 84
1, 432196, Note_off_c, 0, 74, 63
1, 432208, Control_c, 0, 64, 108
1, 432212, Note_off_c, 0, 64, 64
1, 432223, Control_c, 0, 64, 78
1, 432234, Note_on_c, 0, 62, 71
1, 432237, Control_c, 0, 64, 59
1, 432239, Note_on_c, 0, 74, 84
1, 432252, Control_c, 0, 64, 0
1, 432261, Note_off_c, 0, 76, 66
1, 432356, Control_c, 0, 64, 45
1, 432370, Control_c, 0, 64, 62
1, 432385, Control_c, 0, 64, 75
1, 432390, Note_off_c, 0, 62, 65
1, 432400, Control_c, 0, 64, 94
1, 432415, Control_c, 0, 64, 127
1, 432504, Note_off_c, 0, 74, 66
1, 432665, Note_on_c, 0, 38, 58
1, 432702, Note_off_c, 0, 38, 62
1, 432718, Note_on_c, 0, 43, 59
1, 432766, Note_off_c, 0, 43, 62
1, 432785, Note_on_c, 0, 53, 68
1, 432821, Note_off_c, 0, 53, 65
1, 432835, Note_on_c, 0, 55, 68
1, 432885, Note_on_c, 0, 59, 83
1, 432903, Note_off_c, 0, 55, 60
1, 432929, Note_on_c, 0, 62, 80
1, 432972, Note_off_c, 0, 59, 62
1, 432982, Note_on_c, 0, 67, 89
1, 433008, Note_off_c, 0, 62, 64
1, 433028, Note_off_c, 0, 67, 68
1, 433703, Note_on_c, 0, 73, 79
1, 433710, Note_on_c, 0, 61, 51
1, 433847, Note_on_c, 0, 74, 90
1, 433871, Note_on_c, 0, 62, 65
1, 433877, Note_off_c, 0, 73, 62
1, 433883, Note_off_c, 0, 61, 61
1, 433959, Note_on_c, 0, 73, 93
1, 433970, Note_on_c, 0, 61, 63
1, 433973, Note_off_c, 0, 62, 61
1, 433984, Note_off_c, 0, 74, 65
1, 434062, Note_on_c, 0, 74, 98
1, 434074, Note_on_c, 0, 62, 65
1, 434107, Note_off_c, 0, 61, 54
1, 434121, Note_off_c, 0, 73, 57
1, 434244, Note_on_c, 0, 76, 89
1, 434260, Note_on_c, 0, 64, 55
1, 434316, Note_off_c, 0, 74, 59
1, 434324, Note_off_c, 0, 62, 61
1, 434409, Control_c, 0, 64, 95
1, 434409, Control_c, 0, 67, 42
1, 434424, Control_c, 0, 64, 79
1, 434424, Control_c, 0, 67, 54
1, 434438, Control_c, 0, 64, 64
1, 434438, Control_c, 0, 67, 57
1, 434453, Control_c, 0, 64, 43
1, 434453, Control_c, 0, 67, 61
1, 434468, Control_c, 0, 64, 0
1, 434468, Control_c, 0, 67, 85
1, 434483, Control_c, 0, 67, 118
1, 434498, Control_c, 0, 67, 127
1, 434527, Control_c, 0, 64, 37
1, 434542, Control_c, 0, 64, 56
1, 434557, Control_c, 0, 64, 70
1, 434572, Control_c, 0, 64, 82
1, 434587, Control_c, 0, 64, 100
1, 434602, Control_c, 0, 64, 127
1, 434718, Note_off_c, 0, 64, 49
1, 434882, Note_on_c, 0, 73, 63
1, 434884, Note_on_c, 0, 61, 54
1, 434894, Note_off_c, 0, 76, 54
1, 434923, Note_off_c, 0, 61, 63
1, 434929, Note_off_c, 0, 73, 57
1, 434948, Note_on_c, 0, 62, 61
1, 434950, Note_on_c, 0, 74, 66
1, 434983, Note_off_c, 0, 62, 63
1, 434986, Control_c, 0, 64, 114
1, 434998, Note_off_c, 0, 74, 57
1, 435001, Control_c, 0, 64, 84
1, 435016, Control_c, 0, 64, 66
1, 435024, Note_on_c, 0, 61, 45
1, 435031, Control_c, 0, 64, 46
1, 435032, Note_on_c, 0, 73, 64
1, 435046, Control_c, 0, 64, 0
1, 435158, Control_c, 0, 64, 37
1, 435173, Control_c, 0, 64, 54
1, 435187, Control_c, 0, 64, 65
1, 435202, Control_c, 0, 64, 72
1, 435217, Control_c, 0, 64, 80
1, 435232, Control_c, 0, 64, 89
1, 435247, Control_c, 0, 64, 102
1, 435260, Note_off_c, 0, 61, 64
1, 435261, Control_c, 0, 64, 127
1, 435406, Note_off_c, 0, 73, 64
1, 435590, Note_on_c, 0, 37, 50
1, 435676, Note_off_c, 0, 37, 58
1, 435711, Note_on_c, 0, 44, 35
1, 435780, Note_on_c, 0, 52, 46
1, 435808, Note_off_c, 0, 44, 53
1, 435860, Note_off_c, 0, 52, 56
1, 435924, Note_on_c, 0, 56, 46
1, 435973, Note_on_c, 0, 58, 50
1, 436019, Note_on_c, 0, 61, 54
1, 436131, Note_on_c, 0, 64, 45
1, 436137, Note_off_c, 0, 58, 37
1, 436163, Note_off_c, 0, 56, 50
1, 436201, Note_on_c, 0, 68, 48
1, 436224, Note_off_c, 0, 61, 38
1, 436261, Note_off_c, 0, 64, 55
1, 436345, Note_off_c, 0, 68, 55
1, 437505, Note_on_c, 0, 73, 48
1, 437509, Note_on_c, 0, 61, 45
1, 437833, Note_on_c, 0, 74, 60
1, 437851, Note_on_c, 0, 62, 48
1, 437859, Note_off_c, 0, 73, 36
1, 437872, Note_off_c, 0, 61, 45
1, 437919, Note_off_c, 0, 62, 47
1, 437973, Note_off_c, 0, 74, 60
1, 437985, Note_on_c, 0, 75, 68
1, 437995, Note_on_c, 0, 63, 62
1, 438110, Note_off_c, 0, 63, 53
1, 438118, Note_off_c, 0, 75, 58
1, 438120, Note_on_c, 0, 64, 58
1, 438121, Note_on_c, 0, 76, 68
1, 438190, Note_off_c, 0, 64, 56
1, 438282, Note_on_c, 0, 60, 54
1, 438287, Note_off_c, 0, 76, 57
1, 438289, Note_on_c, 0, 72, 60
1, 438350, Note_off_c, 0, 60, 62
1, 438355, Note_off_c, 0, 72, 60
1, 438361, Control_c, 0, 64, 105
1, 438361, Note_on_c, 0, 74, 72
1, 438362, Note_on_c, 0, 62, 64
1, 438375, Control_c, 0, 64, 71
1, 438390, Control_c, 0, 64, 45
1, 438399, Note_off_c, 0, 62, 59
1, 438405, Control_c, 0, 64, 0
1, 438430, Note_on_c, 0, 72, 72
1, 438437, Note_on_c, 0, 60, 63
1, 438439, Note_off_c, 0, 74, 57
1, 438509, Control_c, 0, 64, 39
1, 438523, Control_c, 0, 64, 56
1, 438538, Control_c, 0, 64, 65
1, 438553, Control_c, 0, 64, 72
1, 438556, Note_off_c, 0, 60, 65
1, 438568, Control_c, 0, 64, 85
1, 438583, Control_c, 0, 64, 127
1, 438658, Note_off_c, 0, 72, 65
1, 438918, Note_on_c, 0, 36, 49
1, 438994, Note_off_c, 0, 36, 54
1, 439029, Note_on_c, 0, 45, 45
1, 439096, Note_off_c, 0, 45, 56
1, 439112, Note_on_c, 0, 52, 52
1, 439147, Note_off_c, 0, 52, 61
1, 439210, Note_on_c, 0, 57, 53
1, 439287, Note_on_c, 0, 64, 59
1, 439313, Note_off_c, 0, 57, 51
1, 439389, Note_on_c, 0, 69, 61
1, 439419, Control_c, 0, 67, 116
1, 439434, Control_c, 0, 67, 98
1, 439443, Note_off_c, 0, 64, 58
1, 439449, Control_c, 0, 67, 75
1, 439464, Control_c, 0, 67, 42
1, 439469, Note_off_c, 0, 69, 59
1, 439479, Control_c, 0, 67, 0
1, 440330, Note_on_c, 0, 60, 89
1, 440333, Note_on_c, 0, 48, 98
1, 440429, Control_c, 0, 64, 80
1, 440443, Control_c, 0, 64, 59
1, 440458, Control_c, 0, 64, 0
1, 441243, Note_on_c, 0, 23, 93
1, 441245, Note_on_c, 0, 35, 96
1, 441266, Control_c, 0, 64, 51
1, 441281, Control_c, 0, 64, 75
1, 441296, Control_c, 0, 64, 127
1, 441399, Note_off_c, 0, 48, 60
1, 441404, Note_off_c, 0, 23, 64
1, 441431, Note_off_c, 0, 35, 62
1, 441560, Note_off_c, 0, 60, 65
1, 441885, Note_on_c, 0, 41, 89
1, 442254, Note_on_c, 0, 48, 93
1, 442412, Note_on_c, 0, 51, 90
1, 442461, Note_off_c, 0, 48, 60
1, 442462, Note_off_c, 0, 41, 58
1, 442516, Note_on_c, 0, 53, 86
1, 442532, Note_off_c, 0, 51, 63
1, 442565, Note_off_c, 0, 53, 63
1, 442618, Note_on_c, 0, 57, 76
1, 442687, Note_on_c, 0, 60, 80
1, 442690, Note_off_c, 0, 57, 62
1, 442747, Note_on_c, 0, 63, 81
1, 442789, Note_off_c, 0, 60, 61
1, 442799, Note_on_c, 0, 69, 81
1, 442820, Note_off_c, 0, 63, 65
1, 442863, Note_off_c, 0, 69, 68
1, 442871, Note_on_c, 0, 72, 79
1, 442915, Note_on_c, 0, 75, 77
1, 442955, Note_off_c, 0, 72, 60
1, 442964, Note_on_c, 0, 76, 88
1, 442991, Note_off_c, 0, 75, 65
1, 443026, Note_off_c, 0, 76, 62
1, 443029, Note_on_c, 0, 77, 96
1, 443077, Note_off_c, 0, 77, 66
1, 443100, Note_on_c, 0, 81, 75
1, 443180, Note_on_c, 0, 84, 89
1, 443191, Note_off_c, 0, 81, 57
1, 443268, Note_on_c, 0, 87, 87
1, 443311, Note_off_c, 0, 84, 58
1, 443353, Note_on_c, 0, 88, 82
1, 443440, Note_on_c, 0, 89, 89
1, 443449, Note_off_c, 0, 87, 58
1, 443472, Note_off_c, 0, 88, 64
1, 443521, Note_on_c, 0, 84, 83
1, 443544, Note_off_c, 0, 89, 60
1, 443586, Note_off_c, 0, 84, 64
1, 443592, Note_on_c, 0, 85, 87
1, 443648, Note_off_c, 0, 85, 64
1, 443664, Note_on_c, 0, 83, 94
1, 443706, Note_off_c, 0, 83, 63
1, 443716, Note_on_c, 0, 88, 92
1, 443765, Note_on_c, 0, 86, 21
1, 443786, Note_on_c, 0, 83, 88
1, 443807, Note_off_c, 0, 86, 43
1, 443830, Note_off_c, 0, 88, 62
1, 443847, Note_on_c, 0, 84, 85
1, 443870, Note_off_c, 0, 83, 62
1, 443906, Note_off_c, 0, 84, 66
1, 443910, Note_on_c, 0, 81, 81
1, 443949, Note_on_c, 0, 89, 92
1, 443965, Note_off_c, 0, 81, 64
1, 444012, Note_on_c, 0, 84, 89
1, 444064, Note_off_c, 0, 89, 60
1, 444078, Note_on_c, 0, 85, 84
1, 444096, Note_off_c, 0, 84, 67
1, 444135, Note_on_c, 0, 83, 86
1, 444144, Note_off_c, 0, 85, 65
1, 444182, Note_off_c, 0, 83, 61
1, 444197, Note_on_c, 0, 88, 99
1, 444264, Note_on_c, 0, 83, 96
1, 444326, Note_on_c, 0, 84, 94
1, 444334, Note_off_c, 0, 88, 64
1, 444348, Note_off_c, 0, 83, 63
1, 444404, Note_on_c, 0, 81, 84
1, 444409, Note_off_c, 0, 84, 66
1, 444456, Note_on_c, 0, 89, 93
1, 444472, Note_off_c, 0, 81, 64
1, 444533, Note_on_c, 0, 84, 88
1, 444606, Note_on_c, 0, 85, 91
1, 444627, Note_off_c, 0, 89, 59
1, 444644, Note_off_c, 0, 84, 61
1, 444699, Note_on_c, 0, 83, 86
1, 444719, Note_off_c, 0, 85, 62
1, 444776, Note_on_c, 0, 88, 88
1, 444796, Note_off_c, 0, 83, 60
1, 444865, Note_on_c, 0, 83, 87
1, 444911, Note_off_c, 0, 88, 63
1, 444943, Note_on_c, 0, 84, 87
1, 444956, Note_off_c, 0, 83, 59
1, 445020, Note_off_c, 0, 84, 64
1, 445037, Note_on_c, 0, 81, 81
1, 445094, Note_off_c, 0, 81, 61
1, 445115, Note_on_c, 0, 85, 84
1, 445190, Note_on_c, 0, 81, 80
1, 445214, Note_off_c, 0, 85, 64
1, 445242, Note_off_c, 0, 81, 64
1, 445250, Note_on_c, 0, 82, 78
1, 445304, Note_off_c, 0, 82, 65
1, 445309, Note_on_c, 0, 78, 74
1, 445334, Note_off_c, 0, 78, 61
1, 445365, Note_on_c, 0, 84, 89
1, 445428, Note_on_c, 0, 80, 78
1, 445460, Note_off_c, 0, 84, 59
1, 445489, Note_on_c, 0, 81, 83
1, 445497, Note_off_c, 0, 80, 64
1, 445548, Note_off_c, 0, 81, 66
1, 445556, Note_on_c, 0, 77, 78
1, 445613, Note_off_c, 0, 77, 52
1, 445619, Note_on_c, 0, 82, 89
1, 445688, Note_on_c, 0, 77, 88
1, 445717, Note_off_c, 0, 82, 59
1, 445722, Poly_aftertouch_c, 0, 80, 0
1, 445745, Note_on_c, 0, 78, 88
1, 445768, Note_off_c, 0, 77, 62
1, 445826, Note_on_c, 0, 76, 80
1, 445834, Note_off_c, 0, 78, 58
1, 445878, Control_c, 0, 67, 35
1, 445893, Control_c, 0, 67, 50
1, 445896, Note_on_c, 0, 81, 89
1, 445907, Note_off_c, 0, 76, 62
1, 445908, Control_c, 0, 67, 68
1, 445923, Control_c, 0, 67, 97
1, 445938, Control_c, 0, 67, 123
1, 445953, Control_c, 0, 67, 127
1, 445992, Note_on_c, 0, 76, 80
1, 446006, Note_off_c, 0, 81, 62
1, 446045, Note_off_c, 0, 76, 60
1, 446053, Note_on_c, 0, 77, 74
1, 446132, Note_off_c, 0, 77, 61
1, 446140, Note_on_c, 0, 75, 78
1, 446192, Note_off_c, 0, 75, 60
1, 446237, Note_on_c, 0, 77, 77
1, 446349, Note_on_c, 0, 73, 83
1, 446409, Note_off_c, 0, 77, 62
1, 446447, Note_on_c, 0, 72, 80
1, 446456, Note_off_c, 0, 73, 61
1, 446599, Note_off_c, 0, 72, 59
1, 446618, Note_on_c, 0, 74, 11
1, 446618, Note_on_c, 0, 76, 14
1, 446647, Note_off_c, 0, 74, 0
1, 446663, Poly_aftertouch_c, 0, 74, 0
1, 446663, Note_off_c, 0, 76, 52
1, 446728, Note_on_c, 0, 76, 75
1, 446844, Note_on_c, 0, 72, 72
1, 446862, Note_off_c, 0, 76, 58
1, 446918, Note_off_c, 0, 72, 60
1, 446939, Note_on_c, 0, 71, 75
1, 447022, Note_on_c, 0, 73, 79
1, 447063, Note_off_c, 0, 71, 29
1, 447139, Note_on_c, 0, 70, 70
1, 447153, Note_off_c, 0, 73, 55
1, 447230, Note_off_c, 0, 70, 62
1, 447235, Note_on_c, 0, 69, 62
1, 447268, Note_off_c, 0, 69, 57
1, 447311, Note_on_c, 0, 72, 74
1, 447422, Note_off_c, 0, 72, 60
1, 447423, Note_on_c, 0, 68, 63
1, 447564, Note_on_c, 0, 66, 31
1, 447583, Note_off_c, 0, 68, 34
1, 447600, Note_off_c, 0, 66, 52
1, 447607, Note_on_c, 0, 64, 73
1, 447752, Note_on_c, 0, 65, 76
1, 447887, Note_on_c, 0, 66, 86
1, 447889, Note_off_c, 0, 64, 28
1, 447920, Note_off_c, 0, 65, 59
1, 448001, Note_on_c, 0, 64, 85
1, 448035, Control_c, 0, 64, 114
1, 448049, Note_off_c, 0, 66, 62
1, 448050, Control_c, 0, 64, 106
1, 448064, Control_c, 0, 64, 100
1, 448079, Control_c, 0, 64, 96
1, 448094, Control_c, 0, 64, 92
1, 448099, Note_on_c, 0, 65, 83
1, 448108, Control_c, 0, 64, 87
1, 448123, Control_c, 0, 64, 82
1, 448138, Control_c, 0, 64, 77
1, 448153, Control_c, 0, 64, 72
1, 448159, Note_off_c, 0, 64, 60
1, 448168, Control_c, 0, 64, 68
1, 448183, Control_c, 0, 64, 64
1, 448198, Control_c, 0, 64, 63
1, 448209, Note_on_c, 0, 66, 92
1, 448212, Control_c, 0, 64, 62
1, 448227, Control_c, 0, 64, 62
1, 448230, Note_off_c, 0, 65, 63
1, 448257, Control_c, 0, 64, 61
1, 448272, Control_c, 0, 64, 60
1, 448287, Control_c, 0, 64, 59
1, 448320, Note_on_c, 0, 63, 83
1, 448331, Control_c, 0, 64, 58
1, 448361, Control_c, 0, 64, 58
1, 448376, Control_c, 0, 64, 57
1, 448390, Control_c, 0, 64, 56
1, 448398, Note_off_c, 0, 66, 55
1, 448405, Control_c, 0, 64, 56
1, 448434, Control_c, 0, 64, 55
1, 448448, Note_on_c, 0, 65, 73
1, 448449, Control_c, 0, 64, 55
1, 448464, Control_c, 0, 64, 54
1, 448481, Note_off_c, 0, 63, 57
1, 448508, Control_c, 0, 64, 54
1, 448580, Note_on_c, 0, 66, 58
1, 448602, Note_off_c, 0, 65, 63
1, 448620, Control_c, 0, 64, 53
1, 448718, Note_on_c, 0, 64, 72
1, 448798, Note_off_c, 0, 66, 39
1, 448861, Note_on_c, 0, 65, 61
1, 448885, Note_off_c, 0, 64, 46
1, 449000, Note_on_c, 0, 66, 70
1, 449001, Note_off_c, 0, 65, 56
1, 449154, Note_on_c, 0, 63, 61
1, 449195, Note_off_c, 0, 66, 50
1, 449199, Control_c, 0, 64, 54
1, 449337, Note_on_c, 0, 65, 54
1, 449345, Note_off_c, 0, 63, 54
1, 449488, Control_c, 0, 64, 54
1, 449495, Note_on_c, 0, 66, 58
1, 449533, Note_off_c, 0, 65, 40
1, 449694, Note_on_c, 0, 64, 42
1, 449724, Note_off_c, 0, 66, 52
1, 449920, Note_on_c, 0, 65, 45
1, 449941, Note_off_c, 0, 64, 60
1, 449962, Control_c, 0, 64, 55
1, 449977, Control_c, 0, 64, 55
1, 449992, Control_c, 0, 64, 57
1, 450007, Control_c, 0, 64, 60
1, 450022, Control_c, 0, 64, 64
1, 450043, Control_c, 0, 64, 68
1, 450058, Control_c, 0, 64, 72
1, 450073, Control_c, 0, 64, 78
1, 450087, Control_c, 0, 64, 83
1, 450102, Control_c, 0, 64, 90
1, 450117, Control_c, 0, 64, 104
1, 450132, Control_c, 0, 64, 127
1, 450162, Control_c, 0, 67, 111
1, 450177, Control_c, 0, 67, 96
1, 450192, Control_c, 0, 67, 80
1, 450195, Note_on_c, 0, 66, 54
1, 450206, Control_c, 0, 67, 72
1, 450213, Note_off_c, 0, 65, 35
1, 450221, Control_c, 0, 67, 70
1, 450256, Note_off_c, 0, 66, 62
1, 450296, Control_c, 0, 67, 73
1, 450311, Control_c, 0, 67, 76
1, 450356, Control_c, 0, 67, 77
1, 450371, Control_c, 0, 67, 81
1, 450385, Control_c, 0, 67, 85
1, 450445, Control_c, 0, 67, 85
1, 450459, Control_c, 0, 67, 89
1, 450503, Control_c, 0, 67, 89
1, 450518, Control_c, 0, 67, 92
1, 450533, Control_c, 0, 67, 95
1, 450592, Control_c, 0, 67, 97
1, 450607, Control_c, 0, 67, 99
1, 450621, Control_c, 0, 67, 104
1, 450636, Control_c, 0, 67, 106
1, 450666, Control_c, 0, 67, 108
1, 450696, Control_c, 0, 67, 115
1, 450740, Control_c, 0, 67, 117
1, 450892, Note_on_c, 0, 75, 85
1, 450895, Note_on_c, 0, 63, 60
1, 450896, Control_c, 0, 67, 120
1, 450910, Control_c, 0, 67, 123
1, 450925, Control_c, 0, 64, 114
1, 450925, Control_c, 0, 67, 127
1, 450940, Control_c, 0, 64, 81
1, 450955, Control_c, 0, 64, 67
1, 450970, Control_c, 0, 64, 62
1, 450985, Control_c, 0, 64, 64
1, 451000, Control_c, 0, 64, 71
1, 451000, Control_c, 0, 67, 124
1, 451014, Control_c, 0, 64, 85
1, 451014, Control_c, 0, 67, 119
1, 451029, Control_c, 0, 64, 127
1, 451029, Control_c, 0, 67, 112
1, 451044, Control_c, 0, 67, 103
1, 451050, Note_on_c, 0, 76, 88
1, 451057, Note_on_c, 0, 64, 72
1, 451060, Control_c, 0, 67, 90
1, 451075, Control_c, 0, 67, 63
1, 451089, Control_c, 0, 67, 0
1, 451098, Note_off_c, 0, 63, 62
1, 451098, Note_off_c, 0, 75, 63
1, 451108, Note_off_c, 0, 64, 62
1, 451167, Note_off_c, 0, 76, 60
1, 451203, Note_on_c, 0, 65, 68
1, 451209, Note_on_c, 0, 77, 86
1, 451253, Note_off_c, 0, 65, 62
1, 451266, Note_off_c, 0, 77, 61
1, 451270, Note_on_c, 0, 79, 86
1, 451280, Note_on_c, 0, 67, 62
1, 451297, Control_c, 0, 64, 99
1, 451310, Note_off_c, 0, 67, 62
1, 451312, Control_c, 0, 64, 75
1, 451317, Note_on_c, 0, 77, 87
1, 451321, Note_on_c, 0, 65, 70
1, 451326, Control_c, 0, 64, 58
1, 451341, Control_c, 0, 64, 0
1, 451342, Note_off_c, 0, 79, 65
1, 451444, Control_c, 0, 64, 36
1, 451459, Control_c, 0, 64, 59
1, 451474, Control_c, 0, 64, 73
1, 451489, Control_c, 0, 64, 84
1, 451504, Control_c, 0, 64, 101
1, 451511, Note_off_c, 0, 65, 65
1, 451526, Control_c, 0, 64, 127
1, 451674, Note_off_c, 0, 77, 66
1, 451805, Note_on_c, 0, 41, 60
1, 451897, Note_on_c, 0, 47, 47
1, 451905, Note_off_c, 0, 41, 63
1, 451947, Note_on_c, 0, 51, 74
1, 451958, Note_off_c, 0, 47, 59
1, 452007, Note_off_c, 0, 51, 60
1, 452019, Note_on_c, 0, 53, 66
1, 452047, Note_off_c, 0, 53, 64
1, 452049, Note_on_c, 0, 56, 78
1, 452119, Note_on_c, 0, 59, 77
1, 452126, Note_off_c, 0, 56, 58
1, 452147, Note_on_c, 0, 63, 78
1, 452205, Poly_aftertouch_c, 0, 58, 0
1, 452215, Note_on_c, 0, 68, 85
1, 452218, Note_off_c, 0, 59, 63
1, 452245, Note_off_c, 0, 63, 64
1, 452266, Note_off_c, 0, 68, 65
1, 452955, Note_on_c, 0, 76, 75
1, 452971, Note_on_c, 0, 64, 59
1, 453089, Note_on_c, 0, 77, 89
1, 453116, Note_on_c, 0, 65, 63
1, 453122, Note_off_c, 0, 64, 62
1, 453124, Note_off_c, 0, 76, 63
1, 453194, Note_on_c, 0, 76, 97
1, 453208, Note_off_c, 0, 65, 63
1, 453209, Note_on_c, 0, 64, 66
1, 453221, Note_off_c, 0, 77, 63
1, 453286, Note_on_c, 0, 77, 96
1, 453307, Note_on_c, 0, 65, 69
1, 453312, Note_off_c, 0, 64, 62
1, 453324, Note_off_c, 0, 76, 64
1, 453411, Note_on_c, 0, 79, 94
1, 453437, Note_off_c, 0, 77, 63
1, 453444, Note_on_c, 0, 67, 71
1, 453506, Note_off_c, 0, 65, 60
1, 453529, Control_c, 0, 64, 91
1, 453544, Control_c, 0, 64, 68
1, 453559, Control_c, 0, 64, 46
1, 453574, Control_c, 0, 64, 0
1, 453603, Control_c, 0, 64, 31
1, 453618, Control_c, 0, 64, 49
1, 453633, Control_c, 0, 64, 66
1, 453647, Control_c, 0, 64, 84
1, 453662, Control_c, 0, 64, 127
1, 453728, Note_off_c, 0, 79, 57
1, 453759, Note_off_c, 0, 67, 52
1, 453766, Control_c, 0, 67, 57
1, 453789, Control_c, 0, 67, 82
1, 453803, Control_c, 0, 67, 83
1, 453818, Control_c, 0, 67, 84
1, 453833, Control_c, 0, 67, 87
1, 453848, Control_c, 0, 67, 94
1, 453862, Control_c, 0, 67, 116
1, 453877, Control_c, 0, 67, 127
1, 454070, Note_on_c, 0, 76, 64
1, 454073, Note_on_c, 0, 64, 56
1, 454106, Note_off_c, 0, 64, 65
1, 454108, Note_off_c, 0, 76, 60
1, 454120, Note_on_c, 0, 65, 56
1, 454137, Note_on_c, 0, 77, 65
1, 454150, Note_off_c, 0, 65, 63
1, 454177, Note_on_c, 0, 64, 67
1, 454180, Note_off_c, 0, 77, 58
1, 454184, Note_on_c, 0, 76, 75
1, 454202, Control_c, 0, 64, 112
1, 454217, Control_c, 0, 64, 85
1, 454232, Control_c, 0, 64, 66
1, 454248, Control_c, 0, 64, 42
1, 454263, Control_c, 0, 64, 0
1, 454351, Control_c, 0, 64, 42
1, 454366, Control_c, 0, 64, 60
1, 454381, Control_c, 0, 64, 72
1, 454396, Control_c, 0, 64, 83
1, 454411, Control_c, 0, 64, 96
1, 454417, Note_off_c, 0, 64, 65
1, 454425, Control_c, 0, 64, 106
1, 454440, Control_c, 0, 64, 127
1, 454523, Note_off_c, 0, 76, 66
1, 454744, Note_on_c, 0, 40, 47
1, 454850, Note_off_c, 0, 40, 57
1, 454889, Note_on_c, 0, 45, 31
1, 454944, Note_off_c, 0, 45, 52
1, 454960, Note_on_c, 0, 49, 42
1, 455018, Note_off_c, 0, 49, 57
1, 455033, Note_on_c, 0, 55, 46
1, 455094, Note_off_c, 0, 55, 59
1, 455122, Note_on_c, 0, 57, 45
1, 455196, Note_on_c, 0, 61, 47
1, 455278, Note_off_c, 0, 57, 48
1, 455279, Note_on_c, 0, 67, 45
1, 455286, Note_off_c, 0, 61, 42
1, 455361, Note_on_c, 0, 69, 50
1, 455484, Note_off_c, 0, 67, 27
1, 455503, Note_off_c, 0, 69, 57
1, 456168, Control_c, 0, 67, 112
1, 456183, Control_c, 0, 67, 98
1, 456198, Control_c, 0, 67, 91
1, 456213, Control_c, 0, 67, 87
1, 456228, Control_c, 0, 67, 79
1, 456242, Control_c, 0, 67, 72
1, 456257, Control_c, 0, 67, 65
1, 456272, Control_c, 0, 67, 58
1, 456287, Control_c, 0, 67, 50
1, 456302, Control_c, 0, 67, 41
1, 456316, Control_c, 0, 67, 0
1, 456517, Note_on_c, 0, 76, 74
1, 456538, Note_on_c, 0, 64, 49
1, 456816, Note_on_c, 0, 77, 84
1, 456826, Note_on_c, 0, 65, 67
1, 456896, Note_off_c, 0, 76, 54
1, 456921, Note_off_c, 0, 64, 59
1, 456985, Note_on_c, 0, 66, 82
1, 456988, Note_on_c, 0, 78, 85
1, 457006, Note_off_c, 0, 65, 50
1, 457024, Note_off_c, 0, 77, 59
1, 457105, Note_on_c, 0, 79, 86
1, 457119, Note_on_c, 0, 67, 77
1, 457128, Note_off_c, 0, 66, 63
1, 457131, Note_off_c, 0, 78, 61
1, 457165, Note_off_c, 0, 67, 62
1, 457187, Note_off_c, 0, 79, 61
1, 457244, Note_on_c, 0, 65, 81
1, 457247, Note_on_c, 0, 77, 79
1, 457299, Note_off_c, 0, 77, 61
1, 457300, Note_on_c, 0, 79, 80
1, 457307, Note_off_c, 0, 65, 61
1, 457317, Control_c, 0, 64, 119
1, 457318, Note_on_c, 0, 67, 81
1, 457332, Control_c, 0, 64, 79
1, 457346, Control_c, 0, 64, 58
1, 457351, Note_on_c, 0, 77, 83
1, 457354, Note_on_c, 0, 65, 79
1, 457361, Control_c, 0, 64, 0
1, 457364, Note_off_c, 0, 79, 64
1, 457372, Note_off_c, 0, 67, 64
1, 457435, Control_c, 0, 64, 34
1, 457451, Control_c, 0, 64, 60
1, 457466, Control_c, 0, 64, 78
1, 457471, Note_off_c, 0, 65, 66
1, 457481, Control_c, 0, 64, 127
1, 457566, Note_off_c, 0, 77, 67
1, 457735, Note_on_c, 0, 41, 66
1, 457772, Note_on_c, 0, 46, 73
1, 457795, Note_off_c, 0, 41, 60
1, 457832, Note_on_c, 0, 50, 61
1, 457836, Note_off_c, 0, 46, 62
1, 457865, Note_on_c, 0, 56, 85
1, 457870, Note_on_c, 0, 58, 79
1, 457894, Note_off_c, 0, 50, 60
1, 457895, Note_off_c, 0, 56, 63
1, 457913, Note_on_c, 0, 62, 70
1, 457953, Note_off_c, 0, 58, 57
1, 457957, Note_on_c, 0, 68, 83
1, 457988, Note_on_c, 0, 70, 85
1, 457994, Note_off_c, 0, 62, 64
1, 458035, Note_off_c, 0, 68, 64
1, 458040, Note_off_c, 0, 70, 69
1, 458547, Note_on_c, 0, 76, 78
1, 458559, Note_on_c, 0, 64, 59
1, 458678, Note_on_c, 0, 77, 89
1, 458712, Note_off_c, 0, 76, 61
1, 458718, Note_on_c, 0, 65, 54
1, 458730, Note_off_c, 0, 64, 55
1, 458796, Note_on_c, 0, 76, 98
1, 458816, Note_off_c, 0, 65, 61
1, 458818, Note_on_c, 0, 64, 61
1, 458824, Note_off_c, 0, 77, 65
1, 458904, Note_on_c, 0, 77, 98
1, 458915, Note_off_c, 0, 64, 64
1, 458920, Note_on_c, 0, 65, 64
1, 458962, Note_off_c, 0, 76, 56
1, 459120, Note_on_c, 0, 79, 91
1, 459147, Note_on_c, 0, 67, 63
1, 459188, Note_off_c, 0, 65, 59
1, 459191, Note_off_c, 0, 77, 35
1, 459266, Control_c, 0, 64, 87
1, 459281, Control_c, 0, 64, 68
1, 459296, Control_c, 0, 64, 49
1, 459311, Control_c, 0, 64, 30
1, 459340, Control_c, 0, 64, 35
1, 459355, Control_c, 0, 64, 49
1, 459355, Control_c, 0, 67, 44
1, 459370, Control_c, 0, 64, 64
1, 459370, Control_c, 0, 67, 59
1, 459385, Control_c, 0, 64, 78
1, 459385, Control_c, 0, 67, 62
1, 459400, Control_c, 0, 64, 99
1, 459400, Control_c, 0, 67, 65
1, 459415, Control_c, 0, 64, 127
1, 459415, Control_c, 0, 67, 82
1, 459430, Control_c, 0, 67, 109
1, 459444, Control_c, 0, 67, 127
1, 459695, Note_on_c, 0, 78, 80
1, 459704, Note_on_c, 0, 66, 50
1, 459731, Note_off_c, 0, 67, 57
1, 459770, Note_off_c, 0, 79, 58
1, 459898, Note_on_c, 0, 77, 79
1, 459919, Note_on_c, 0, 65, 53
1, 459936, Note_off_c, 0, 66, 61
1, 459983, Note_off_c, 0, 78, 42
1, 460004, Note_off_c, 0, 77, 59
1, 460041, Note_off_c, 0, 65, 37
1, 460136, Note_on_c, 0, 64, 59
1, 460142, Note_on_c, 0, 76, 59
1, 460187, Note_off_c, 0, 64, 61
1, 460207, Note_off_c, 0, 76, 61
1, 460218, Note_on_c, 0, 77, 67
1, 460219, Note_on_c, 0, 65, 50
1, 460251, Note_off_c, 0, 65, 60
1, 460252, Control_c, 0, 64, 94
1, 460267, Control_c, 0, 64, 72
1, 460282, Control_c, 0, 64, 53
1, 460284, Note_on_c, 0, 76, 67
1, 460284, Note_off_c, 0, 77, 59
1, 460286, Note_on_c, 0, 64, 53
1, 460296, Control_c, 0, 64, 0
1, 460385, Control_c, 0, 64, 34
1, 460400, Control_c, 0, 64, 55
1, 460414, Control_c, 0, 64, 69
1, 460429, Control_c, 0, 64, 80
1, 460444, Control_c, 0, 64, 89
1, 460458, Note_off_c, 0, 64, 65
1, 460459, Control_c, 0, 64, 98
1, 460474, Control_c, 0, 64, 123
1, 460488, Control_c, 0, 64, 127
1, 460571, Note_off_c, 0, 76, 66
1, 460807, Note_on_c, 0, 40, 36
1, 460907, Note_off_c, 0, 40, 29
1, 460911, Note_on_c, 0, 47, 50
1, 460978, Note_off_c, 0, 47, 44
1, 461014, Note_on_c, 0, 49, 38
1, 461051, Note_off_c, 0, 49, 60
1, 461078, Note_on_c, 0, 55, 50
1, 461125, Note_off_c, 0, 55, 61
1, 461177, Note_on_c, 0, 59, 44
1, 461244, Note_on_c, 0, 61, 47
1, 461320, Note_on_c, 0, 67, 50
1, 461335, Note_off_c, 0, 61, 56
1, 461346, Note_off_c, 0, 59, 36
1, 461407, Note_on_c, 0, 71, 56
1, 461495, Note_off_c, 0, 67, 33
1, 461530, Note_off_c, 0, 71, 60
1, 462952, Note_on_c, 0, 76, 51
1, 462962, Note_on_c, 0, 64, 36
1, 463361, Note_off_c, 0, 64, 46
1, 463363, Note_on_c, 0, 77, 61
1, 463376, Note_on_c, 0, 65, 45
1, 463394, Note_off_c, 0, 76, 37
1, 463533, Note_on_c, 0, 78, 62
1, 463549, Note_on_c, 0, 66, 56
1, 463560, Note_off_c, 0, 65, 51
1, 463608, Note_off_c, 0, 77, 51
1, 463678, Note_off_c, 0, 66, 62
1, 463687, Note_on_c, 0, 67, 60
1, 463692, Note_on_c, 0, 79, 57
1, 463699, Note_off_c, 0, 78, 55
1, 463724, Note_off_c, 0, 67, 60
1, 463785, Note_off_c, 0, 79, 38
1, 463859, Note_on_c, 0, 63, 59
1, 463861, Note_on_c, 0, 75, 56
1, 463894, Note_off_c, 0, 75, 65
1, 463901, Note_off_c, 0, 63, 63
1, 463917, Note_on_c, 0, 77, 49
1, 463923, Note_on_c, 0, 65, 61
1, 463958, Note_off_c, 0, 77, 59
1, 463958, Note_off_c, 0, 65, 61
1, 463969, Note_on_c, 0, 75, 68
1, 463981, Control_c, 0, 64, 85
1, 463985, Note_on_c, 0, 63, 64
1, 463996, Control_c, 0, 64, 60
1, 464011, Control_c, 0, 64, 0
1, 464086, Control_c, 0, 64, 44
1, 464101, Control_c, 0, 64, 63
1, 464116, Control_c, 0, 64, 70
1, 464130, Note_off_c, 0, 63, 65
1, 464130, Control_c, 0, 64, 78
1, 464145, Control_c, 0, 64, 89
1, 464160, Control_c, 0, 64, 105
1, 464175, Control_c, 0, 64, 127
1, 464236, Note_off_c, 0, 75, 66
1, 464431, Note_on_c, 0, 39, 54
1, 464510, Note_off_c, 0, 39, 58
1, 464515, Note_on_c, 0, 48, 62
1, 464584, Note_off_c, 0, 48, 61
1, 464610, Note_on_c, 0, 55, 54
1, 464648, Note_off_c, 0, 55, 61
1, 464673, Note_on_c, 0, 60, 54
1, 464726, Note_on_c, 0, 63, 53
1, 464727, Note_off_c, 0, 60, 50
1, 464759, Control_c, 0, 67, 125
1, 464768, Note_on_c, 0, 67, 65
1, 464774, Control_c, 0, 67, 71
1, 464782, Note_off_c, 0, 63, 61
1, 464789, Control_c, 0, 67, 0
1, 464821, Note_on_c, 0, 72, 79
1, 464841, Note_off_c, 0, 67, 61
1, 464866, Note_off_c, 0, 72, 64
1, 465285, Note_on_c, 0, 59, 60
1, 465300, Note_on_c, 0, 47, 60
1, 465331, Note_off_c, 0, 47, 64
1, 465332, Note_on_c, 0, 48, 77
1, 465334, Note_off_c, 0, 59, 63
1, 465344, Note_on_c, 0, 60, 60
1, 465374, Note_on_c, 0, 61, 78
1, 465376, Note_off_c, 0, 60, 65
1, 465390, Note_off_c, 0, 48, 62
1, 465393, Note_on_c, 0, 49, 75
1, 465410, Note_off_c, 0, 61, 60
1, 465426, Note_on_c, 0, 50, 80
1, 465428, Note_off_c, 0, 49, 63
1, 465436, Note_on_c, 0, 62, 84
1, 465479, Note_on_c, 0, 63, 104
1, 465489, Note_on_c, 0, 51, 102
1, 465510, Note_off_c, 0, 62, 58
1, 465568, Control_c, 0, 64, 97
1, 465583, Control_c, 0, 64, 74
1, 465598, Control_c, 0, 64, 58
1, 465613, Control_c, 0, 64, 33
1, 465627, Control_c, 0, 64, 0
1, 465697, Note_off_c, 0, 50, 22
1, 465857, Control_c, 0, 64, 46
1, 465872, Control_c, 0, 64, 61
1, 465887, Control_c, 0, 64, 70
1, 465902, Control_c, 0, 64, 79
1, 465916, Control_c, 0, 64, 95
1, 465931, Control_c, 0, 64, 127
1, 465978, Note_off_c, 0, 51, 61
1, 466172, Note_off_c, 0, 63, 69
1, 466390, Note_on_c, 0, 38, 99
1, 466394, Note_on_c, 0, 26, 90
1, 466450, Control_c, 0, 64, 116
1, 466465, Control_c, 0, 64, 113
1, 466480, Control_c, 0, 64, 116
1, 466495, Control_c, 0, 64, 127
1, 466505, Note_off_c, 0, 26, 63
1, 466517, Note_off_c, 0, 38, 61
1, 466903, Note_on_c, 0, 44, 86
1, 467064, Note_on_c, 0, 51, 82
1, 467088, Note_off_c, 0, 44, 63
1, 467145, Note_on_c, 0, 54, 84
1, 467145, Note_off_c, 0, 51, 62
1, 467192, Note_off_c, 0, 54, 64
1, 467209, Note_on_c, 0, 56, 79
1, 467232, Note_off_c, 0, 56, 67
1, 467241, Note_on_c, 0, 60, 68
1, 467298, Note_on_c, 0, 63, 75
1, 467299, Note_off_c, 0, 60, 62
1, 467340, Note_on_c, 0, 66, 68
1, 467348, Note_off_c, 0, 63, 65
1, 467359, Note_on_c, 0, 72, 81
1, 467374, Note_off_c, 0, 66, 66
1, 467416, Note_off_c, 0, 72, 62
1, 467438, Note_on_c, 0, 75, 75
1, 467473, Note_off_c, 0, 75, 64
1, 467491, Note_on_c, 0, 78, 75
1, 467520, Note_off_c, 0, 78, 59
1, 467526, Note_on_c, 0, 80, 81
1, 467545, Note_on_c, 0, 84, 58
1, 467550, Note_off_c, 0, 80, 66
1, 467577, Note_off_c, 0, 84, 66
1, 467583, Note_on_c, 0, 87, 72
1, 467606, Note_on_c, 0, 90, 70
1, 467640, Note_on_c, 0, 91, 69
1, 467647, Note_off_c, 0, 87, 64
1, 467651, Note_off_c, 0, 90, 63
1, 467667, Note_on_c, 0, 92, 116
1, 467668, Note_off_c, 0, 91, 67
1, 467691, Note_off_c, 0, 92, 65
1, 467731, Note_on_c, 0, 91, 85
1, 467764, Note_on_c, 0, 90, 73
1, 467796, Note_off_c, 0, 91, 62
1, 467812, Note_on_c, 0, 87, 80
1, 467835, Note_off_c, 0, 90, 65
1, 467853, Note_off_c, 0, 87, 68
1, 467866, Note_on_c, 0, 84, 67
1, 467883, Note_off_c, 0, 84, 67
1, 467904, Note_on_c, 0, 80, 82
1, 467957, Note_off_c, 0, 80, 61
1, 467982, Note_on_c, 0, 78, 80
1, 468039, Note_on_c, 0, 75, 66
1, 468053, Note_on_c, 0, 72, 81
1, 468059, Note_off_c, 0, 78, 60
1, 468065, Note_off_c, 0, 75, 70
1, 468080, Note_off_c, 0, 72, 67
1, 468138, Note_on_c, 0, 66, 75
1, 468141, Note_on_c, 0, 68, 45
1, 468166, Poly_aftertouch_c, 0, 74, 0
1, 468191, Note_off_c, 0, 68, 49
1, 468195, Note_on_c, 0, 65, 54
1, 468228, Note_on_c, 0, 63, 79
1, 468250, Note_off_c, 0, 66, 62
1, 468257, Note_off_c, 0, 65, 62
1, 468265, Poly_aftertouch_c, 0, 67, 127
1, 468282, Note_off_c, 0, 63, 63
1, 468292, Note_on_c, 0, 60, 70
1, 468305, Poly_aftertouch_c, 0, 67, 0
1, 468314, Note_off_c, 0, 60, 70
1, 468353, Note_on_c, 0, 56, 61
1, 468388, Note_off_c, 0, 56, 65
1, 468417, Note_on_c, 0, 54, 72
1, 468485, Note_off_c, 0, 54, 61
1, 468500, Note_on_c, 0, 44, 80
1, 468560, Note_on_c, 0, 51, 80
1, 468563, Note_off_c, 0, 44, 64
1, 468590, Note_on_c, 0, 54, 83
1, 468596, Note_off_c, 0, 51, 64
1, 468628, Note_on_c, 0, 56, 95
1, 468632, Note_off_c, 0, 54, 61
1, 468652, Note_on_c, 0, 59, 82
1, 468655, Note_off_c, 0, 56, 65
1, 468694, Note_on_c, 0, 60, 67
1, 468719, Note_off_c, 0, 59, 59
1, 468725, Note_on_c, 0, 61, 82
1, 468754, Note_on_c, 0, 62, 81
1, 468755, Note_off_c, 0, 61, 72
1, 468774, Note_off_c, 0, 60, 62
1, 468775, Note_off_c, 0, 62, 71
1, 468878, Note_on_c, 0, 63, 110
1, 468879, Note_on_c, 0, 51, 99
1, 469000, Control_c, 0, 64, 80
1, 469015, Control_c, 0, 64, 60
1, 469030, Control_c, 0, 64, 0
1, 469193, Control_c, 0, 64, 51
1, 469208, Control_c, 0, 64, 74
1, 469223, Control_c, 0, 64, 101
1, 469238, Control_c, 0, 64, 127
1, 469318, Note_off_c, 0, 63, 64
1, 469401, Note_off_c, 0, 51, 57
1, 470118, Note_on_c, 0, 41, 96
1, 470121, Note_on_c, 0, 29, 93
1, 470364, Note_off_c, 0, 29, 61
1, 470420, Note_off_c, 0, 41, 63
1, 470975, Note_on_c, 0, 47, 85
1, 471240, Note_on_c, 0, 51, 89
1, 471406, Note_on_c, 0, 54, 88
1, 471538, Note_on_c, 0, 57, 85
1, 471598, Note_off_c, 0, 47, 59
1, 471611, Note_off_c, 0, 57, 62
1, 471624, Note_off_c, 0, 54, 55
1, 471630, Note_off_c, 0, 51, 58
1, 471654, Note_on_c, 0, 59, 82
1, 471718, Note_off_c, 0, 59, 60
1, 471758, Note_on_c, 0, 63, 86
1, 471845, Note_on_c, 0, 66, 86
1, 471874, Note_off_c, 0, 63, 59
1, 471926, Note_on_c, 0, 69, 80
1, 471943, Note_off_c, 0, 66, 64
1, 471991, Note_off_c, 0, 69, 68
1, 472018, Note_on_c, 0, 71, 71
1, 472091, Note_on_c, 0, 75, 74
1, 472093, Note_off_c, 0, 71, 61
1, 472158, Note_on_c, 0, 78, 80
1, 472158, Note_off_c, 0, 75, 63
1, 472212, Note_off_c, 0, 78, 61
1, 472230, Note_on_c, 0, 81, 87
1, 472277, Note_off_c, 0, 81, 63
1, 472313, Note_on_c, 0, 83, 82
1, 472392, Note_on_c, 0, 87, 84
1, 472396, Note_off_c, 0, 83, 60
1, 472476, Note_on_c, 0, 90, 87
1, 472504, Note_off_c, 0, 87, 62
1, 472554, Note_off_c, 0, 90, 69
1, 472569, Note_on_c, 0, 93, 88
1, 472671, Note_on_c, 0, 95, 96
1, 472765, Note_off_c, 0, 93, 31
1, 472798, Note_on_c, 0, 89, 74
1, 472894, Note_on_c, 0, 92, 79
1, 472894, Note_off_c, 0, 95, 57
1, 472939, Note_off_c, 0, 89, 57
1, 472996, Note_on_c, 0, 90, 73
1, 473005, Note_off_c, 0, 92, 62
1, 473082, Note_off_c, 0, 90, 65
1, 473085, Note_on_c, 0, 94, 80
1, 473161, Note_on_c, 0, 88, 78
1, 473201, Note_off_c, 0, 94, 60
1, 473245, Note_on_c, 0, 90, 76
1, 473251, Note_off_c, 0, 88, 63
1, 473309, Note_off_c, 0, 90, 65
1, 473309, Note_on_c, 0, 89, 84
1, 473359, Note_off_c, 0, 89, 61
1, 473378, Note_on_c, 0, 95, 90
1, 473440, Note_on_c, 0, 89, 85
1, 473508, Note_on_c, 0, 92, 80
1, 473513, Note_off_c, 0, 95, 65
1, 473568, Note_on_c, 0, 90, 82
1, 473570, Note_off_c, 0, 89, 59
1, 473588, Note_off_c, 0, 92, 66
1, 473648, Note_on_c, 0, 94, 91
1, 473654, Note_off_c, 0, 90, 62
1, 473714, Note_on_c, 0, 88, 83
1, 473768, Note_off_c, 0, 94, 57
1, 473789, Note_on_c, 0, 90, 81
1, 473806, Note_off_c, 0, 88, 64
1, 473853, Note_on_c, 0, 89, 89
1, 473856, Note_off_c, 0, 90, 65
1, 473922, Note_on_c, 0, 95, 98
1, 473930, Note_off_c, 0, 89, 58
1, 473974, Note_on_c, 0, 89, 75
1, 474063, Note_on_c, 0, 92, 85
1, 474082, Note_off_c, 0, 95, 64
1, 474100, Note_off_c, 0, 89, 62
1, 474147, Note_on_c, 0, 90, 78
1, 474158, Note_off_c, 0, 92, 65
1, 474218, Note_off_c, 0, 90, 66
1, 474232, Note_on_c, 0, 94, 83
1, 474296, Note_on_c, 0, 87, 78
1, 474360, Note_off_c, 0, 94, 59
1, 474367, Note_on_c, 0, 90, 75
1, 474370, Note_off_c, 0, 87, 63
1, 474442, Note_off_c, 0, 90, 63
1, 474447, Note_on_c, 0, 89, 70
1, 474494, Note_off_c, 0, 89, 59
1, 474511, Note_on_c, 0, 95, 82
1, 474598, Note_on_c, 0, 89, 79
1, 474634, Note_off_c, 0, 95, 62
1, 474657, Control_c, 0, 67, 37
1, 474662, Note_on_c, 0, 92, 65
1, 474671, Control_c, 0, 67, 38
1, 474686, Control_c, 0, 67, 39
1, 474701, Control_c, 0, 67, 40
1, 474716, Note_off_c, 0, 89, 37
1, 474716, Control_c, 0, 67, 41
1, 474738, Control_c, 0, 67, 47
1, 474743, Note_on_c, 0, 90, 67
1, 474749, Note_off_c, 0, 92, 65
1, 474753, Control_c, 0, 67, 56
1, 474768, Control_c, 0, 67, 61
1, 474783, Control_c, 0, 67, 62
1, 474797, Control_c, 0, 67, 62
1, 474807, Note_off_c, 0, 90, 65
1, 474812, Control_c, 0, 67, 63
1, 474813, Note_on_c, 0, 94, 78
1, 474857, Control_c, 0, 67, 64
1, 474886, Control_c, 0, 67, 64
1, 474892, Note_on_c, 0, 86, 67
1, 474901, Control_c, 0, 67, 65
1, 474927, Note_off_c, 0, 94, 57
1, 474930, Control_c, 0, 67, 65
1, 474970, Note_off_c, 0, 86, 55
1, 474978, Note_on_c, 0, 90, 69
1, 474990, Control_c, 0, 67, 66
1, 475020, Control_c, 0, 67, 67
1, 475039, Note_off_c, 0, 90, 63
1, 475055, Note_on_c, 0, 89, 70
1, 475065, Control_c, 0, 67, 67
1, 475080, Control_c, 0, 67, 68
1, 475094, Control_c, 0, 67, 75
1, 475105, Note_off_c, 0, 89, 61
1, 475109, Control_c, 0, 67, 90
1, 475124, Control_c, 0, 67, 98
1, 475139, Note_on_c, 0, 95, 78
1, 475209, Note_on_c, 0, 89, 65
1, 475243, Control_c, 0, 67, 100
1, 475252, Note_off_c, 0, 95, 59
1, 475287, Note_on_c, 0, 92, 64
1, 475334, Note_off_c, 0, 89, 54
1, 475361, Note_on_c, 0, 90, 67
1, 475362, Note_off_c, 0, 92, 66
1, 475376, Control_c, 0, 67, 103
1, 475406, Control_c, 0, 67, 114
1, 475415, Note_off_c, 0, 90, 65
1, 475420, Control_c, 0, 67, 127
1, 475464, Note_on_c, 0, 94, 62
1, 475536, Note_on_c, 0, 85, 68
1, 475581, Note_off_c, 0, 94, 55
1, 475619, Note_off_c, 0, 85, 57
1, 475622, Note_on_c, 0, 89, 51
1, 475695, Note_on_c, 0, 87, 67
1, 475697, Note_off_c, 0, 89, 45
1, 475752, Note_off_c, 0, 87, 59
1, 475798, Note_on_c, 0, 95, 72
1, 475881, Note_on_c, 0, 89, 53
1, 475908, Note_off_c, 0, 95, 53
1, 475967, Note_on_c, 0, 92, 62
1, 476004, Note_off_c, 0, 89, 62
1, 476051, Note_off_c, 0, 92, 63
1, 476053, Note_on_c, 0, 90, 61
1, 476102, Note_off_c, 0, 90, 62
1, 476155, Note_on_c, 0, 94, 62
1, 476274, Note_on_c, 0, 83, 58
1, 476334, Note_off_c, 0, 94, 33
1, 476409, Note_on_c, 0, 89, 47
1, 476425, Note_off_c, 0, 83, 38
1, 476525, Note_on_c, 0, 87, 52
1, 476543, Note_off_c, 0, 89, 36
1, 476592, Note_off_c, 0, 87, 52
1, 476665, Note_on_c, 0, 95, 52
1, 476772, Note_off_c, 0, 95, 58
1, 476795, Note_on_c, 0, 90, 51
1, 476851, Note_off_c, 0, 90, 55
1, 476893, Note_on_c, 0, 94, 57
1, 476937, Note_off_c, 0, 94, 62
1, 476975, Note_on_c, 0, 89, 51
1, 477005, Note_off_c, 0, 89, 57
1, 477063, Note_on_c, 0, 93, 61
1, 477109, Note_off_c, 0, 93, 62
1, 477131, Note_on_c, 0, 88, 41
1, 477158, Note_off_c, 0, 88, 56
1, 477187, Note_on_c, 0, 92, 68
1, 477215, Note_off_c, 0, 92, 67
1, 477250, Note_on_c, 0, 87, 66
1, 477275, Note_off_c, 0, 87, 68
1, 477313, Note_on_c, 0, 91, 70
1, 477374, Note_off_c, 0, 91, 64
1, 477384, Note_on_c, 0, 86, 61
1, 477413, Note_off_c, 0, 86, 68
1, 477448, Note_on_c, 0, 90, 72
1, 477487, Note_off_c, 0, 90, 62
1, 477512, Note_on_c, 0, 85, 66
1, 477536, Note_off_c, 0, 85, 70
1, 477582, Note_on_c, 0, 88, 71
1, 477638, Note_off_c, 0, 88, 60
1, 477644, Note_on_c, 0, 83, 65
1, 477690, Note_off_c, 0, 83, 59
1, 477720, Note_on_c, 0, 87, 63
1, 477758, Note_off_c, 0, 87, 66
1, 477795, Note_on_c, 0, 82, 69
1, 477822, Note_off_c, 0, 82, 62
1, 477875, Note_on_c, 0, 86, 64
1, 477967, Note_off_c, 0, 86, 62
1, 477995, Note_on_c, 0, 81, 4
1, 478025, Note_on_c, 0, 85, 64
1, 478043, Note_off_c, 0, 81, 38
1, 478054, Note_off_c, 0, 85, 67
1, 478099, Note_on_c, 0, 80, 51
1, 478123, Note_off_c, 0, 80, 59
1, 478184, Note_on_c, 0, 83, 53
1, 478255, Note_on_c, 0, 78, 47
1, 478287, Note_off_c, 0, 83, 37
1, 478308, Note_on_c, 0, 82, 56
1, 478321, Note_off_c, 0, 78, 58
1, 478354, Note_off_c, 0, 82, 55
1, 478391, Note_on_c, 0, 77, 55
1, 478427, Note_off_c, 0, 77, 60
1, 478463, Note_on_c, 0, 81, 63
1, 478523, Note_off_c, 0, 81, 62
1, 478558, Note_on_c, 0, 75, 62
1, 478592, Note_off_c, 0, 75, 66
1, 478641, Note_on_c, 0, 74, 57
1, 478676, Note_off_c, 0, 74, 56
1, 478701, Note_on_c, 0, 78, 60
1, 478751, Note_off_c, 0, 78, 64
1, 478791, Note_on_c, 0, 77, 34
1, 478842, Note_on_c, 0, 73, 66
1, 478850, Note_off_c, 0, 77, 43
1, 478895, Note_off_c, 0, 73, 61
1, 478931, Note_on_c, 0, 71, 63
1, 478975, Note_off_c, 0, 71, 51
1, 479001, Note_on_c, 0, 75, 66
1, 479056, Note_off_c, 0, 75, 66
1, 479092, Note_on_c, 0, 74, 61
1, 479159, Note_on_c, 0, 70, 59
1, 479163, Note_off_c, 0, 74, 58
1, 479243, Note_off_c, 0, 70, 62
1, 479258, Note_on_c, 0, 69, 62
1, 479348, Note_on_c, 0, 73, 67
1, 479362, Note_off_c, 0, 69, 32
1, 479453, Note_on_c, 0, 71, 62
1, 479473, Note_off_c, 0, 73, 50
1, 479539, Note_on_c, 0, 66, 64
1, 479567, Note_off_c, 0, 71, 47
1, 479634, Note_off_c, 0, 66, 58
1, 479637, Note_on_c, 0, 65, 59
1, 479732, Note_on_c, 0, 69, 70
1, 479765, Note_off_c, 0, 65, 59
1, 479856, Note_on_c, 0, 63, 67
1, 479914, Control_c, 0, 64, 119
1, 479914, Note_off_c, 0, 69, 55
1, 479928, Control_c, 0, 64, 111
1, 479943, Control_c, 0, 64, 106
1, 479958, Control_c, 0, 64, 101
1, 479970, Note_on_c, 0, 62, 65
1, 479973, Control_c, 0, 64, 98
1, 479995, Control_c, 0, 64, 95
1, 480010, Control_c, 0, 64, 92
1, 480025, Control_c, 0, 64, 89
1, 480029, Note_off_c, 0, 63, 59
1, 480040, Control_c, 0, 64, 87
1, 480054, Control_c, 0, 64, 85
1, 480069, Control_c, 0, 64, 83
1, 480084, Control_c, 0, 64, 81
1, 480099, Control_c, 0, 64, 79
1, 480103, Note_on_c, 0, 65, 60
1, 480114, Control_c, 0, 64, 77
1, 480129, Control_c, 0, 64, 75
1, 480143, Control_c, 0, 64, 73
1, 480158, Control_c, 0, 64, 71
1, 480173, Control_c, 0, 64, 68
1, 480181, Note_off_c, 0, 62, 57
1, 480188, Control_c, 0, 64, 67
1, 480203, Control_c, 0, 64, 66
1, 480217, Control_c, 0, 64, 66
1, 480223, Note_on_c, 0, 61, 58
1, 480232, Control_c, 0, 64, 65
1, 480284, Note_off_c, 0, 65, 57
1, 480361, Note_on_c, 0, 59, 63
1, 480405, Note_off_c, 0, 61, 65
1, 480424, Control_c, 0, 64, 65
1, 480531, Note_on_c, 0, 63, 56
1, 480633, Control_c, 0, 64, 64
1, 480671, Note_off_c, 0, 59, 57
1, 480692, Note_on_c, 0, 58, 60
1, 480764, Note_off_c, 0, 63, 61
1, 480919, Note_on_c, 0, 57, 49
1, 480919, Note_off_c, 0, 58, 64
1, 481271, Note_on_c, 0, 59, 74
1, 481336, Control_c, 0, 64, 64
1, 481425, Note_off_c, 0, 57, 51
1, 481441, Control_c, 0, 64, 63
1, 481593, Note_on_c, 0, 56, 78
1, 481611, Control_c, 0, 64, 63
1, 481759, Note_off_c, 0, 59, 52
1, 481819, Control_c, 0, 64, 62
1, 481828, Note_on_c, 0, 55, 84
1, 481894, Control_c, 0, 67, 124
1, 481908, Control_c, 0, 64, 62
1, 481908, Control_c, 0, 67, 119
1, 481938, Control_c, 0, 67, 115
1, 481953, Control_c, 0, 67, 107
1, 481968, Control_c, 0, 67, 89
1, 481982, Control_c, 0, 64, 61
1, 481982, Control_c, 0, 67, 76
1, 481997, Control_c, 0, 67, 68
1, 482012, Control_c, 0, 67, 61
1, 482017, Note_on_c, 0, 54, 83
1, 482026, Control_c, 0, 64, 61
1, 482026, Control_c, 0, 67, 52
1, 482041, Control_c, 0, 64, 60
1, 482041, Control_c, 0, 67, 45
1, 482056, Control_c, 0, 67, 40
1, 482071, Control_c, 0, 64, 60
1, 482071, Control_c, 0, 67, 38
1, 482086, Control_c, 0, 64, 59
1, 482086, Control_c, 0, 67, 36
1, 482092, Note_off_c, 0, 56, 60
1, 482100, Note_off_c, 0, 55, 56
1, 482100, Control_c, 0, 67, 0
1, 482248, Note_on_c, 0, 53, 85
1, 482272, Control_c, 0, 64, 59
1, 482337, Note_off_c, 0, 54, 59
1, 482420, Control_c, 0, 67, 34
1, 482435, Control_c, 0, 67, 38
1, 482450, Control_c, 0, 67, 38
1, 482494, Control_c, 0, 67, 39
1, 482496, Note_on_c, 0, 58, 79
1, 482509, Control_c, 0, 67, 43
1, 482524, Control_c, 0, 67, 45
1, 482568, Control_c, 0, 67, 45
1, 482583, Control_c, 0, 67, 48
1, 482598, Control_c, 0, 67, 51
1, 482612, Control_c, 0, 67, 52
1, 482642, Control_c, 0, 67, 53
1, 482657, Control_c, 0, 67, 54
1, 482662, Note_off_c, 0, 53, 51
1, 482672, Control_c, 0, 67, 56
1, 482687, Control_c, 0, 67, 58
1, 482701, Control_c, 0, 67, 61
1, 482716, Control_c, 0, 67, 64
1, 482731, Control_c, 0, 67, 67
1, 482746, Control_c, 0, 67, 68
1, 482761, Control_c, 0, 67, 71
1, 482770, Note_on_c, 0, 53, 81
1, 482776, Control_c, 0, 67, 77
1, 482791, Control_c, 0, 67, 83
1, 482805, Control_c, 0, 67, 87
1, 482820, Control_c, 0, 67, 90
1, 482835, Control_c, 0, 67, 92
1, 482849, Control_c, 0, 67, 94
1, 482864, Control_c, 0, 67, 95
1, 482877, Note_off_c, 0, 58, 63
1, 482879, Control_c, 0, 67, 96
1, 482953, Control_c, 0, 67, 98
1, 483083, Note_on_c, 0, 52, 75
1, 483184, Note_off_c, 0, 53, 56
1, 483228, Control_c, 0, 67, 100
1, 483381, Note_on_c, 0, 51, 72
1, 483405, Control_c, 0, 67, 102
1, 483420, Control_c, 0, 67, 112
1, 483435, Control_c, 0, 67, 126
1, 483450, Note_off_c, 0, 52, 62
1, 483739, Note_on_c, 0, 52, 62
1, 483779, Note_off_c, 0, 51, 62
1, 484162, Note_on_c, 0, 59, 62
1, 484230, Note_off_c, 0, 52, 47
1, 484317, Control_c, 0, 64, 58
1, 484723, Note_on_c, 0, 60, 61
1, 484770, Control_c, 0, 64, 58
1, 484800, Control_c, 0, 64, 57
1, 484813, Note_off_c, 0, 59, 58
1, 484815, Control_c, 0, 64, 57
1, 484830, Control_c, 0, 64, 56
1, 484845, Control_c, 0, 64, 54
1, 484859, Control_c, 0, 64, 50
1, 484874, Control_c, 0, 64, 48
1, 484889, Control_c, 0, 64, 46
1, 484919, Control_c, 0, 64, 49
1, 484933, Control_c, 0, 64, 54
1, 484948, Control_c, 0, 64, 60
1, 484963, Control_c, 0, 64, 64
1, 484978, Control_c, 0, 64, 66
1, 484992, Control_c, 0, 64, 69
1, 485007, Control_c, 0, 64, 75
1, 485022, Control_c, 0, 64, 84
1, 485037, Control_c, 0, 64, 94
1, 485051, Control_c, 0, 64, 112
1, 485066, Control_c, 0, 64, 127
1, 485145, Note_off_c, 0, 60, 63
1, 485855, Note_on_c, 0, 61, 56
1, 485891, Note_on_c, 0, 53, 36
1, 485907, Note_on_c, 0, 37, 37
1, 485921, Note_on_c, 0, 44, 31
1, 486088, Control_c, 0, 64, 115
1, 486103, Control_c, 0, 64, 102
1, 486118, Control_c, 0, 64, 92
1, 486132, Control_c, 0, 64, 82
1, 486147, Control_c, 0, 64, 71
1, 486162, Control_c, 0, 64, 61
1, 486177, Control_c, 0, 64, 51
1, 486192, Control_c, 0, 64, 40
1, 486207, Control_c, 0, 64, 31
1, 486222, Control_c, 0, 64, 0
1, 486252, Control_c, 0, 64, 34
1, 486267, Control_c, 0, 64, 45
1, 486282, Control_c, 0, 64, 57
1, 486296, Control_c, 0, 64, 66
1, 486311, Control_c, 0, 64, 73
1, 486326, Control_c, 0, 64, 79
1, 486341, Control_c, 0, 64, 83
1, 486356, Control_c, 0, 64, 91
1, 486370, Control_c, 0, 64, 101
1, 486385, Control_c, 0, 64, 127
1, 486489, Note_off_c, 0, 61, 61
1, 486934, Note_on_c, 0, 61, 64
1, 487143, Note_off_c, 0, 37, 41
1, 487182, Note_off_c, 0, 53, 60
1, 487352, Note_off_c, 0, 44, 40
1, 487706, Note_on_c, 0, 54, 42
1, 487741, Note_on_c, 0, 39, 33
1, 487753, Note_on_c, 0, 46, 28
1, 487809, Control_c, 0, 64, 107
1, 487823, Control_c, 0, 64, 94
1, 487838, Control_c, 0, 64, 82
1, 487853, Control_c, 0, 64, 69
1, 487867, Control_c, 0, 64, 58
1, 487882, Control_c, 0, 64, 46
1, 487897, Control_c, 0, 64, 39
1, 487912, Control_c, 0, 64, 35
1, 487927, Control_c, 0, 64, 31
1, 487942, Control_c, 0, 64, 0
1, 487987, Control_c, 0, 64, 33
1, 488001, Control_c, 0, 64, 42
1, 488016, Control_c, 0, 64, 52
1, 488031, Control_c, 0, 64, 60
1, 488046, Control_c, 0, 64, 66
1, 488050, Note_on_c, 0, 63, 62
1, 488061, Control_c, 0, 64, 71
1, 488075, Control_c, 0, 64, 78
1, 488090, Control_c, 0, 64, 84
1, 488105, Control_c, 0, 64, 92
1, 488120, Control_c, 0, 64, 101
1, 488135, Control_c, 0, 64, 113
1, 488149, Control_c, 0, 64, 127
1, 488152, Note_off_c, 0, 61, 38
1, 488183, Note_off_c, 0, 46, 39
1, 488238, Note_off_c, 0, 39, 42
1, 488238, Note_off_c, 0, 63, 58
1, 488250, Note_off_c, 0, 54, 37
1, 488497, Note_on_c, 0, 60, 56
1, 488523, Note_on_c, 0, 56, 44
1, 488550, Note_on_c, 0, 41, 34
1, 488568, Note_on_c, 0, 48, 31
1, 488603, Control_c, 0, 64, 115
1, 488617, Control_c, 0, 64, 104
1, 488632, Control_c, 0, 64, 95
1, 488647, Control_c, 0, 64, 87
1, 488662, Control_c, 0, 64, 81
1, 488677, Control_c, 0, 64, 75
1, 488691, Control_c, 0, 64, 68
1, 488706, Control_c, 0, 64, 61
1, 488721, Control_c, 0, 64, 55
1, 488736, Control_c, 0, 64, 50
1, 488751, Control_c, 0, 64, 43
1, 488765, Control_c, 0, 64, 34
1, 488780, Control_c, 0, 64, 0
1, 488929, Control_c, 0, 64, 35
1, 488943, Control_c, 0, 64, 40
1, 488958, Control_c, 0, 64, 45
1, 488980, Control_c, 0, 64, 50
1, 488995, Control_c, 0, 64, 56
1, 489010, Control_c, 0, 64, 60
1, 489024, Control_c, 0, 64, 62
1, 489039, Control_c, 0, 64, 64
1, 489054, Control_c, 0, 64, 67
1, 489069, Control_c, 0, 64, 70
1, 489084, Control_c, 0, 64, 72
1, 489098, Control_c, 0, 64, 74
1, 489113, Control_c, 0, 64, 77
1, 489128, Control_c, 0, 64, 79
1, 489143, Control_c, 0, 64, 83
1, 489158, Control_c, 0, 64, 86
1, 489173, Control_c, 0, 64, 91
1, 489188, Control_c, 0, 64, 98
1, 489203, Control_c, 0, 64, 109
1, 489217, Control_c, 0, 64, 127
1, 489357, Note_off_c, 0, 60, 57
1, 490129, Note_on_c, 0, 60, 53
1, 490381, Note_off_c, 0, 48, 41
1, 490409, Note_off_c, 0, 41, 38
1, 490428, Note_off_c, 0, 60, 55
1, 490497, Note_off_c, 0, 56, 37
1, 490958, Note_on_c, 0, 61, 53
1, 490980, Note_on_c, 0, 37, 38
1, 490988, Note_on_c, 0, 53, 37
1, 491015, Note_on_c, 0, 44, 26
1, 491115, Control_c, 0, 64, 110
1, 491130, Control_c, 0, 64, 100
1, 491145, Control_c, 0, 64, 89
1, 491159, Control_c, 0, 64, 79
1, 491174, Control_c, 0, 64, 68
1, 491189, Control_c, 0, 64, 55
1, 491204, Control_c, 0, 64, 41
1, 491226, Control_c, 0, 64, 32
1, 491271, Control_c, 0, 64, 35
1, 491286, Control_c, 0, 64, 47
1, 491300, Control_c, 0, 64, 59
1, 491315, Control_c, 0, 64, 68
1, 491330, Control_c, 0, 64, 76
1, 491345, Control_c, 0, 64, 83
1, 491360, Control_c, 0, 64, 89
1, 491374, Control_c, 0, 64, 97
1, 491389, Control_c, 0, 64, 111
1, 491404, Control_c, 0, 64, 127
1, 491499, Note_off_c, 0, 61, 62
1, 491745, Control_c, 0, 67, 123
1, 491760, Control_c, 0, 67, 118
1, 491775, Control_c, 0, 67, 109
1, 491790, Control_c, 0, 67, 101
1, 491805, Control_c, 0, 67, 95
1, 491820, Control_c, 0, 67, 91
1, 491835, Control_c, 0, 67, 82
1, 491844, Note_on_c, 0, 61, 66
1, 491850, Control_c, 0, 67, 70
1, 491865, Control_c, 0, 67, 61
1, 491880, Control_c, 0, 67, 56
1, 491895, Control_c, 0, 67, 54
1, 491909, Control_c, 0, 67, 51
1, 491924, Control_c, 0, 67, 50
1, 491939, Control_c, 0, 67, 49
1, 492020, Control_c, 0, 67, 52
1, 492035, Control_c, 0, 67, 54
1, 492050, Control_c, 0, 67, 54
1, 492064, Control_c, 0, 67, 55
1, 492068, Note_off_c, 0, 37, 41
1, 492070, Note_off_c, 0, 53, 59
1, 492079, Control_c, 0, 67, 58
1, 492094, Control_c, 0, 67, 65
1, 492097, Note_off_c, 0, 44, 41
1, 492109, Control_c, 0, 67, 68
1, 492124, Control_c, 0, 67, 67
1, 492154, Control_c, 0, 67, 68
1, 492168, Control_c, 0, 67, 71
1, 492183, Control_c, 0, 67, 78
1, 492198, Control_c, 0, 67, 84
1, 492213, Control_c, 0, 67, 91
1, 492228, Control_c, 0, 67, 98
1, 492242, Control_c, 0, 67, 106
1, 492257, Control_c, 0, 67, 118
1, 492272, Control_c, 0, 67, 127
1, 492573, Note_on_c, 0, 55, 54
1, 492606, Note_on_c, 0, 46, 35
1, 492613, Note_on_c, 0, 34, 39
1, 492614, Note_on_c, 0, 51, 22
1, 492628, Control_c, 0, 64, 114
1, 492643, Control_c, 0, 64, 91
1, 492658, Control_c, 0, 64, 73
1, 492673, Control_c, 0, 64, 56
1, 492687, Control_c, 0, 64, 44
1, 492702, Control_c, 0, 64, 42
1, 492725, Control_c, 0, 64, 45
1, 492739, Control_c, 0, 64, 53
1, 492754, Control_c, 0, 64, 63
1, 492769, Control_c, 0, 64, 72
1, 492784, Control_c, 0, 64, 86
1, 492798, Control_c, 0, 64, 99
1, 492813, Control_c, 0, 64, 109
1, 492828, Control_c, 0, 64, 127
1, 492905, Note_off_c, 0, 61, 61
1, 492986, Note_on_c, 0, 60, 72
1, 493086, Note_off_c, 0, 46, 58
1, 493088, Note_off_c, 0, 51, 20
1, 493095, Note_off_c, 0, 34, 44
1, 493121, Note_off_c, 0, 55, 58
1, 493137, Note_off_c, 0, 60, 61
1, 493174, Note_on_c, 0, 61, 76
1, 493248, Note_off_c, 0, 61, 63
1, 493451, Note_on_c, 0, 63, 74
1, 493476, Note_on_c, 0, 60, 52
1, 493486, Note_on_c, 0, 44, 41
1, 493488, Note_on_c, 0, 56, 39
1, 493491, Note_on_c, 0, 51, 38
1, 493495, Note_on_c, 0, 32, 43
1, 493577, Control_c, 0, 64, 103
1, 493592, Control_c, 0, 64, 88
1, 493607, Control_c, 0, 64, 73
1, 493621, Control_c, 0, 64, 61
1, 493636, Control_c, 0, 64, 50
1, 493651, Control_c, 0, 64, 42
1, 493666, Control_c, 0, 64, 34
1, 493681, Control_c, 0, 64, 0
1, 493770, Control_c, 0, 64, 39
1, 493784, Control_c, 0, 64, 48
1, 493799, Control_c, 0, 64, 57
1, 493813, Control_c, 0, 64, 63
1, 493828, Control_c, 0, 64, 68
1, 493843, Control_c, 0, 64, 73
1, 493858, Control_c, 0, 64, 76
1, 493873, Control_c, 0, 64, 77
1, 493887, Control_c, 0, 64, 79
1, 493902, Control_c, 0, 64, 86
1, 493917, Control_c, 0, 64, 97
1, 493931, Control_c, 0, 64, 121
1, 493946, Control_c, 0, 64, 127
1, 494021, Note_off_c, 0, 51, 43
1, 494160, Note_off_c, 0, 32, 40
1, 494178, Note_off_c, 0, 56, 59
1, 494187, Note_off_c, 0, 63, 53
1, 494370, Control_c, 0, 67, 122
1, 494415, Note_off_c, 0, 44, 55
1, 494488, Control_c, 0, 67, 125
1, 494711, Control_c, 0, 67, 127
1, 494790, Note_on_c, 0, 63, 81
1, 494810, Note_on_c, 0, 58, 65
1, 494816, Note_on_c, 0, 48, 59
1, 494822, Note_on_c, 0, 42, 51
1, 494903, Control_c, 0, 64, 98
1, 494918, Control_c, 0, 64, 74
1, 494933, Control_c, 0, 64, 59
1, 494948, Control_c, 0, 64, 40
1, 494970, Control_c, 0, 64, 0
1, 495016, Control_c, 0, 64, 32
1, 495030, Control_c, 0, 64, 53
1, 495045, Control_c, 0, 64, 66
1, 495060, Control_c, 0, 64, 78
1, 495075, Control_c, 0, 64, 93
1, 495090, Control_c, 0, 64, 109
1, 495105, Control_c, 0, 64, 127
1, 495105, Control_c, 0, 67, 125
1, 495120, Control_c, 0, 67, 123
1, 495154, Note_off_c, 0, 42, 37
1, 495166, Note_off_c, 0, 60, 30
1, 495179, Note_off_c, 0, 48, 58
1, 495268, Note_off_c, 0, 58, 55
1, 495490, Control_c, 0, 67, 125
1, 495516, Note_on_c, 0, 65, 78
1, 495522, Note_on_c, 0, 56, 63
1, 495534, Control_c, 0, 67, 127
1, 495537, Note_on_c, 0, 41, 49
1, 495541, Note_on_c, 0, 49, 44
1, 495579, Control_c, 0, 64, 92
1, 495593, Control_c, 0, 64, 71
1, 495600, Note_off_c, 0, 63, 55
1, 495608, Control_c, 0, 64, 53
1, 495623, Control_c, 0, 64, 0
1, 495734, Control_c, 0, 64, 42
1, 495749, Control_c, 0, 64, 63
1, 495764, Control_c, 0, 64, 72
1, 495779, Control_c, 0, 64, 80
1, 495794, Control_c, 0, 64, 89
1, 495809, Control_c, 0, 64, 105
1, 495823, Control_c, 0, 64, 127
1, 495841, Note_off_c, 0, 65, 60
1, 496216, Note_on_c, 0, 65, 79
1, 496288, Note_off_c, 0, 49, 57
1, 496521, Note_on_c, 0, 63, 58
1, 496534, Note_on_c, 0, 47, 52
1, 496575, Note_off_c, 0, 47, 60
1, 496590, Note_off_c, 0, 41, 62
1, 496637, Note_off_c, 0, 63, 54
1, 496673, Note_off_c, 0, 56, 53
1, 496929, Note_on_c, 0, 62, 54
1, 496931, Note_on_c, 0, 56, 48
1, 496953, Note_on_c, 0, 34, 42
1, 496964, Note_on_c, 0, 46, 33
1, 497017, Control_c, 0, 64, 120
1, 497031, Control_c, 0, 64, 96
1, 497046, Control_c, 0, 64, 80
1, 497061, Control_c, 0, 64, 63
1, 497076, Control_c, 0, 64, 44
1, 497091, Control_c, 0, 64, 0
1, 497165, Control_c, 0, 64, 32
1, 497180, Control_c, 0, 64, 48
1, 497202, Control_c, 0, 64, 63
1, 497217, Control_c, 0, 64, 72
1, 497231, Control_c, 0, 64, 77
1, 497246, Control_c, 0, 64, 80
1, 497261, Control_c, 0, 64, 82
1, 497276, Control_c, 0, 64, 91
1, 497291, Control_c, 0, 64, 106
1, 497298, Note_on_c, 0, 66, 83
1, 497305, Control_c, 0, 64, 127
1, 497388, Note_off_c, 0, 65, 59
1, 497403, Note_off_c, 0, 62, 62
1, 497403, Note_off_c, 0, 46, 36
1, 497421, Note_off_c, 0, 66, 63
1, 497448, Note_off_c, 0, 56, 59
1, 497465, Note_off_c, 0, 34, 40
1, 497749, Note_on_c, 0, 63, 68
1, 497766, Note_on_c, 0, 54, 45
1, 497769, Note_on_c, 0, 61, 58
1, 497790, Note_on_c, 0, 46, 37
1, 497798, Note_on_c, 0, 39, 36
1, 497883, Control_c, 0, 64, 105
1, 497898, Control_c, 0, 64, 92
1, 497913, Control_c, 0, 64, 82
1, 497928, Control_c, 0, 64, 73
1, 497943, Control_c, 0, 64, 63
1, 497965, Control_c, 0, 64, 51
1, 497979, Control_c, 0, 64, 39
1, 497994, Control_c, 0, 64, 0
1, 498098, Control_c, 0, 64, 48
1, 498113, Control_c, 0, 64, 60
1, 498128, Control_c, 0, 64, 67
1, 498143, Control_c, 0, 64, 71
1, 498157, Control_c, 0, 64, 75
1, 498172, Control_c, 0, 64, 78
1, 498188, Control_c, 0, 64, 85
1, 498202, Control_c, 0, 64, 92
1, 498207, Note_off_c, 0, 61, 59
1, 498217, Control_c, 0, 64, 100
1, 498232, Control_c, 0, 64, 107
1, 498247, Control_c, 0, 64, 115
1, 498262, Control_c, 0, 64, 127
1, 498581, Note_on_c, 0, 60, 48
1, 498691, Control_c, 0, 64, 114
1, 498714, Control_c, 0, 64, 93
1, 498728, Control_c, 0, 64, 80
1, 498743, Control_c, 0, 64, 71
1, 498758, Control_c, 0, 64, 68
1, 498788, Control_c, 0, 64, 70
1, 498802, Control_c, 0, 64, 73
1, 498817, Control_c, 0, 64, 77
1, 498832, Control_c, 0, 64, 80
1, 498847, Control_c, 0, 64, 85
1, 498862, Control_c, 0, 64, 92
1, 498876, Control_c, 0, 64, 99
1, 498891, Control_c, 0, 64, 105
1, 498906, Control_c, 0, 64, 116
1, 498921, Control_c, 0, 64, 127
1, 498929, Note_on_c, 0, 58, 55
1, 498980, Note_off_c, 0, 60, 58
1, 498986, Note_off_c, 0, 46, 45
1, 499009, Note_off_c, 0, 39, 40
1, 499028, Note_off_c, 0, 58, 45
1, 499044, Note_off_c, 0, 63, 37
1, 499079, Note_off_c, 0, 54, 56
1, 499459, Note_on_c, 0, 60, 39
1, 499459, Note_on_c, 0, 63, 42
1, 499484, Note_on_c, 0, 53, 37
1, 499503, Note_on_c, 0, 33, 33
1, 499503, Note_on_c, 0, 45, 17
1, 499537, Control_c, 0, 64, 120
1, 499551, Control_c, 0, 64, 101
1, 499566, Control_c, 0, 64, 89
1, 499581, Control_c, 0, 64, 77
1, 499596, Control_c, 0, 64, 67
1, 499611, Control_c, 0, 64, 56
1, 499625, Control_c, 0, 64, 41
1, 499640, Control_c, 0, 64, 32
1, 499655, Control_c, 0, 64, 30
1, 499685, Control_c, 0, 64, 33
1, 499699, Control_c, 0, 64, 43
1, 499714, Control_c, 0, 64, 55
1, 499729, Control_c, 0, 64, 66
1, 499744, Control_c, 0, 64, 73
1, 499758, Control_c, 0, 64, 79
1, 499773, Control_c, 0, 64, 82
1, 499788, Control_c, 0, 64, 86
1, 499803, Control_c, 0, 64, 92
1, 499818, Control_c, 0, 64, 104
1, 499833, Control_c, 0, 64, 127
1, 499955, Note_off_c, 0, 33, 40
1, 499996, Note_off_c, 0, 60, 41
1, 499998, Note_off_c, 0, 45, 40
1, 500028, Note_off_c, 0, 63, 36
1, 500072, Note_off_c, 0, 53, 34
1, 500339, Note_on_c, 0, 61, 48
1, 500359, Note_on_c, 0, 58, 40
1, 500366, Note_on_c, 0, 53, 24
1, 500387, Note_on_c, 0, 34, 25
1, 500393, Note_on_c, 0, 46, 11
1, 500433, Control_c, 0, 64, 116
1, 500447, Control_c, 0, 64, 92
1, 500462, Control_c, 0, 64, 74
1, 500477, Control_c, 0, 64, 59
1, 500492, Control_c, 0, 64, 40
1, 500506, Control_c, 0, 64, 0
1, 500536, Control_c, 0, 64, 31
1, 500551, Control_c, 0, 64, 39
1, 500566, Control_c, 0, 64, 49
1, 500582, Control_c, 0, 64, 57
1, 500596, Control_c, 0, 64, 63
1, 500611, Control_c, 0, 64, 69
1, 500626, Control_c, 0, 64, 75
1, 500641, Control_c, 0, 64, 83
1, 500656, Control_c, 0, 64, 92
1, 500668, Note_on_c, 0, 60, 61
1, 500670, Control_c, 0, 64, 108
1, 500685, Control_c, 0, 64, 127
1, 500731, Note_off_c, 0, 61, 51
1, 500746, Note_off_c, 0, 53, 61
1, 500766, Note_off_c, 0, 58, 57
1, 500775, Note_off_c, 0, 46, 39
1, 500776, Note_off_c, 0, 34, 40
1, 500825, Note_off_c, 0, 60, 60
1, 501066, Note_on_c, 0, 61, 52
1, 501067, Note_on_c, 0, 58, 48
1, 501084, Note_on_c, 0, 56, 40
1, 501102, Note_on_c, 0, 39, 33
1, 501109, Note_on_c, 0, 46, 27
1, 501152, Control_c, 0, 64, 99
1, 501167, Control_c, 0, 64, 85
1, 501182, Control_c, 0, 64, 72
1, 501196, Control_c, 0, 64, 60
1, 501211, Control_c, 0, 64, 45
1, 501226, Control_c, 0, 64, 0
1, 501301, Control_c, 0, 64, 31
1, 501316, Control_c, 0, 64, 46
1, 501330, Control_c, 0, 64, 61
1, 501345, Control_c, 0, 64, 69
1, 501360, Control_c, 0, 64, 73
1, 501376, Control_c, 0, 64, 75
1, 501391, Control_c, 0, 64, 78
1, 501406, Control_c, 0, 64, 82
1, 501420, Control_c, 0, 64, 87
1, 501435, Control_c, 0, 64, 92
1, 501450, Control_c, 0, 64, 95
1, 501465, Control_c, 0, 64, 97
1, 501494, Control_c, 0, 64, 100
1, 501524, Control_c, 0, 64, 102
1, 501821, Note_on_c, 0, 55, 47
1, 501827, Control_c, 0, 64, 100
1, 501842, Control_c, 0, 64, 97
1, 501857, Control_c, 0, 64, 89
1, 501872, Control_c, 0, 64, 76
1, 501887, Control_c, 0, 64, 65
1, 501901, Control_c, 0, 64, 51
1, 501916, Control_c, 0, 64, 36
1, 501931, Control_c, 0, 64, 0
1, 501991, Control_c, 0, 64, 36
1, 502006, Control_c, 0, 64, 51
1, 502021, Control_c, 0, 64, 63
1, 502035, Control_c, 0, 64, 69
1, 502050, Control_c, 0, 64, 72
1, 502065, Control_c, 0, 64, 74
1, 502079, Control_c, 0, 64, 77
1, 502094, Control_c, 0, 64, 81
1, 502109, Control_c, 0, 64, 88
1, 502121, Note_off_c, 0, 56, 0
1, 502124, Control_c, 0, 64, 97
1, 502139, Control_c, 0, 64, 106
1, 502153, Control_c, 0, 64, 113
1, 502158, Poly_aftertouch_c, 0, 56, 127
1, 502169, Control_c, 0, 64, 127
1, 502170, Note_on_c, 0, 63, 61
1, 502199, Note_off_c, 0, 55, 59
1, 502215, Note_off_c, 0, 61, 63
1, 502233, Note_off_c, 0, 58, 60
1, 502237, Poly_aftertouch_c, 0, 56, 0
1, 502406, Note_off_c, 0, 63, 53
1, 502614, Note_on_c, 0, 60, 55
1, 502625, Note_on_c, 0, 58, 52
1, 502647, Note_on_c, 0, 54, 31
1, 502694, Control_c, 0, 64, 116
1, 502709, Control_c, 0, 64, 100
1, 502724, Control_c, 0, 64, 88
1, 502739, Control_c, 0, 64, 77
1, 502754, Control_c, 0, 64, 65
1, 502769, Control_c, 0, 64, 54
1, 502784, Control_c, 0, 64, 42
1, 502799, Control_c, 0, 64, 30
1, 502814, Control_c, 0, 64, 0
1, 502858, Control_c, 0, 64, 33
1, 502873, Control_c, 0, 64, 48
1, 502888, Control_c, 0, 64, 63
1, 502902, Control_c, 0, 64, 70
1, 502917, Control_c, 0, 64, 75
1, 502932, Control_c, 0, 64, 78
1, 502947, Control_c, 0, 64, 80
1, 502957, Note_off_c, 0, 39, 41
1, 502962, Control_c, 0, 64, 83
1, 502978, Control_c, 0, 64, 87
1, 502992, Control_c, 0, 64, 93
1, 503007, Control_c, 0, 64, 95
1, 503022, Control_c, 0, 64, 98
1, 503037, Control_c, 0, 64, 101
1, 503052, Control_c, 0, 64, 105
1, 503066, Control_c, 0, 64, 110
1, 503081, Control_c, 0, 64, 117
1, 503096, Control_c, 0, 64, 127
1, 503388, Note_on_c, 0, 41, 40
1, 503399, Control_c, 0, 64, 116
1, 503402, Note_on_c, 0, 53, 39
1, 503414, Control_c, 0, 64, 103
1, 503429, Control_c, 0, 64, 87
1, 503444, Control_c, 0, 64, 73
1, 503459, Control_c, 0, 64, 61
1, 503473, Control_c, 0, 64, 48
1, 503488, Control_c, 0, 64, 38
1, 503503, Control_c, 0, 64, 30
1, 503517, Control_c, 0, 64, 0
1, 503547, Control_c, 0, 64, 31
1, 503562, Control_c, 0, 64, 40
1, 503577, Control_c, 0, 64, 51
1, 503592, Control_c, 0, 64, 59
1, 503603, Note_off_c, 0, 54, 24
1, 503607, Control_c, 0, 64, 64
1, 503621, Control_c, 0, 64, 66
1, 503636, Control_c, 0, 64, 69
1, 503651, Control_c, 0, 64, 73
1, 503666, Control_c, 0, 64, 78
1, 503681, Control_c, 0, 64, 82
1, 503696, Control_c, 0, 64, 86
1, 503711, Control_c, 0, 64, 89
1, 503725, Note_off_c, 0, 41, 40
1, 503725, Control_c, 0, 64, 92
1, 503739, Note_on_c, 0, 42, 47
1, 503740, Control_c, 0, 64, 96
1, 503755, Control_c, 0, 64, 100
1, 503770, Control_c, 0, 64, 106
1, 503785, Control_c, 0, 64, 113
1, 503800, Control_c, 0, 64, 127
1, 503818, Note_off_c, 0, 58, 37
1, 503830, Note_off_c, 0, 42, 48
1, 503883, Note_off_c, 0, 53, 37
1, 504311, Control_c, 0, 64, 120
1, 504316, Note_on_c, 0, 43, 36
1, 504316, Note_on_c, 0, 52, 39
1, 504326, Control_c, 0, 64, 110
1, 504340, Control_c, 0, 64, 103
1, 504355, Control_c, 0, 64, 95
1, 504370, Control_c, 0, 64, 86
1, 504385, Control_c, 0, 64, 77
1, 504400, Control_c, 0, 64, 67
1, 504414, Control_c, 0, 64, 57
1, 504429, Control_c, 0, 64, 49
1, 504444, Control_c, 0, 64, 40
1, 504459, Control_c, 0, 64, 0
1, 504593, Control_c, 0, 64, 35
1, 504608, Control_c, 0, 64, 43
1, 504623, Control_c, 0, 64, 52
1, 504638, Control_c, 0, 64, 58
1, 504653, Control_c, 0, 64, 62
1, 504668, Control_c, 0, 64, 64
1, 504683, Control_c, 0, 64, 67
1, 504705, Control_c, 0, 64, 69
1, 504719, Control_c, 0, 64, 72
1, 504734, Control_c, 0, 64, 76
1, 504749, Control_c, 0, 64, 80
1, 504764, Control_c, 0, 64, 83
1, 504778, Control_c, 0, 64, 87
1, 504787, Note_off_c, 0, 46, 31
1, 504793, Control_c, 0, 64, 91
1, 504808, Control_c, 0, 64, 96
1, 504823, Control_c, 0, 64, 102
1, 504838, Control_c, 0, 64, 111
1, 504853, Control_c, 0, 64, 127
1, 504900, Note_off_c, 0, 43, 37
1, 504934, Note_off_c, 0, 60, 55
1, 504953, Note_off_c, 0, 52, 34
1, 505691, Note_on_c, 0, 61, 38
1, 505726, Note_on_c, 0, 53, 31
1, 505728, Note_on_c, 0, 37, 30
1, 505732, Note_on_c, 0, 44, 24
1, 505824, Control_c, 0, 64, 107
1, 505839, Control_c, 0, 64, 90
1, 505854, Control_c, 0, 64, 74
1, 505868, Control_c, 0, 64, 62
1, 505883, Control_c, 0, 64, 46
1, 505898, Control_c, 0, 64, 32
1, 505912, Control_c, 0, 64, 29
1, 505942, Control_c, 0, 64, 36
1, 505957, Control_c, 0, 64, 48
1, 505972, Control_c, 0, 64, 61
1, 505986, Control_c, 0, 64, 69
1, 506001, Control_c, 0, 64, 75
1, 506016, Control_c, 0, 64, 80
1, 506031, Control_c, 0, 64, 83
1, 506045, Control_c, 0, 64, 90
1, 506060, Control_c, 0, 64, 100
1, 506075, Control_c, 0, 64, 127
1, 506212, Note_off_c, 0, 61, 56
1, 506725, Note_on_c, 0, 61, 59
1, 506868, Control_c, 0, 67, 125
1, 506883, Control_c, 0, 67, 118
1, 506898, Control_c, 0, 67, 113
1, 506913, Control_c, 0, 67, 110
1, 506928, Control_c, 0, 67, 108
1, 506950, Control_c, 0, 67, 103
1, 506962, Note_off_c, 0, 37, 43
1, 506966, Control_c, 0, 67, 98
1, 506981, Control_c, 0, 67, 94
1, 506996, Control_c, 0, 67, 92
1, 506999, Note_off_c, 0, 53, 60
1, 507006, Note_off_c, 0, 44, 41
1, 507011, Control_c, 0, 67, 89
1, 507026, Control_c, 0, 67, 84
1, 507040, Control_c, 0, 67, 78
1, 507055, Control_c, 0, 67, 75
1, 507070, Control_c, 0, 67, 74
1, 507099, Control_c, 0, 67, 74
1, 507114, Control_c, 0, 67, 73
1, 507203, Control_c, 0, 67, 74
1, 507218, Control_c, 0, 67, 75
1, 507233, Control_c, 0, 67, 77
1, 507247, Control_c, 0, 67, 77
1, 507277, Control_c, 0, 67, 79
1, 507291, Control_c, 0, 67, 82
1, 507306, Control_c, 0, 67, 84
1, 507380, Control_c, 0, 67, 85
1, 507455, Control_c, 0, 67, 86
1, 507464, Note_on_c, 0, 55, 47
1, 507470, Control_c, 0, 67, 87
1, 507486, Note_on_c, 0, 46, 33
1, 507488, Note_on_c, 0, 51, 41
1, 507494, Note_on_c, 0, 34, 43
1, 507499, Control_c, 0, 67, 87
1, 507514, Control_c, 0, 64, 106
1, 507514, Control_c, 0, 67, 88
1, 507529, Control_c, 0, 64, 83
1, 507529, Control_c, 0, 67, 90
1, 507544, Control_c, 0, 64, 68
1, 507558, Control_c, 0, 64, 56
1, 507573, Control_c, 0, 64, 49
1, 507588, Control_c, 0, 64, 50
1, 507603, Control_c, 0, 64, 55
1, 507618, Control_c, 0, 64, 64
1, 507618, Control_c, 0, 67, 89
1, 507633, Control_c, 0, 64, 72
1, 507633, Control_c, 0, 67, 88
1, 507647, Control_c, 0, 64, 82
1, 507647, Control_c, 0, 67, 87
1, 507662, Control_c, 0, 64, 88
1, 507677, Control_c, 0, 64, 93
1, 507677, Control_c, 0, 67, 86
1, 507699, Control_c, 0, 64, 102
1, 507699, Control_c, 0, 67, 84
1, 507714, Control_c, 0, 64, 127
1, 507714, Control_c, 0, 67, 83
1, 507729, Control_c, 0, 67, 82
1, 507759, Control_c, 0, 67, 81
1, 507774, Control_c, 0, 67, 79
1, 507789, Control_c, 0, 67, 77
1, 507804, Control_c, 0, 67, 75
1, 507819, Control_c, 0, 67, 74
1, 507822, Note_on_c, 0, 63, 72
1, 507833, Control_c, 0, 67, 74
1, 507848, Control_c, 0, 67, 71
1, 507860, Note_off_c, 0, 46, 40
1, 507863, Control_c, 0, 67, 69
1, 507878, Control_c, 0, 67, 68
1, 507881, Note_off_c, 0, 34, 45
1, 507905, Note_off_c, 0, 61, 61
1, 507914, Note_off_c, 0, 55, 59
1, 507917, Note_off_c, 0, 51, 44
1, 507922, Control_c, 0, 67, 67
1, 507937, Control_c, 0, 67, 66
1, 507951, Note_off_c, 0, 63, 56
1, 507952, Control_c, 0, 67, 64
1, 507967, Control_c, 0, 67, 50
1, 507982, Control_c, 0, 67, 47
1, 507996, Control_c, 0, 67, 45
1, 508011, Control_c, 0, 67, 45
1, 508231, Note_on_c, 0, 60, 64
1, 508233, Control_c, 0, 67, 45
1, 508242, Note_on_c, 0, 56, 54
1, 508248, Control_c, 0, 67, 47
1, 508263, Control_c, 0, 67, 48
1, 508263, Note_on_c, 0, 32, 49
1, 508265, Note_on_c, 0, 51, 38
1, 508278, Control_c, 0, 67, 48
1, 508287, Note_on_c, 0, 44, 26
1, 508307, Control_c, 0, 67, 49
1, 508322, Control_c, 0, 67, 50
1, 508337, Control_c, 0, 67, 52
1, 508352, Control_c, 0, 64, 116
1, 508352, Control_c, 0, 67, 52
1, 508367, Control_c, 0, 64, 95
1, 508381, Control_c, 0, 64, 82
1, 508381, Control_c, 0, 67, 53
1, 508396, Control_c, 0, 64, 69
1, 508396, Control_c, 0, 67, 54
1, 508411, Control_c, 0, 64, 60
1, 508411, Control_c, 0, 67, 56
1, 508426, Control_c, 0, 64, 52
1, 508426, Control_c, 0, 67, 57
1, 508448, Control_c, 0, 64, 47
1, 508462, Control_c, 0, 64, 42
1, 508477, Control_c, 0, 64, 34
1, 508477, Control_c, 0, 67, 58
1, 508492, Control_c, 0, 64, 0
1, 508492, Control_c, 0, 67, 58
1, 508567, Control_c, 0, 64, 36
1, 508582, Control_c, 0, 64, 41
1, 508582, Control_c, 0, 67, 59
1, 508597, Control_c, 0, 64, 50
1, 508597, Control_c, 0, 67, 58
1, 508611, Control_c, 0, 64, 58
1, 508611, Control_c, 0, 67, 58
1, 508626, Control_c, 0, 64, 64
1, 508641, Control_c, 0, 64, 68
1, 508656, Control_c, 0, 64, 71
1, 508656, Control_c, 0, 67, 57
1, 508671, Control_c, 0, 64, 72
1, 508671, Control_c, 0, 67, 57
1, 508686, Control_c, 0, 64, 73
1, 508686, Control_c, 0, 67, 56
1, 508701, Control_c, 0, 64, 78
1, 508701, Control_c, 0, 67, 55
1, 508716, Control_c, 0, 64, 84
1, 508731, Control_c, 0, 64, 91
1, 508745, Control_c, 0, 64, 96
1, 508745, Control_c, 0, 67, 55
1, 508760, Control_c, 0, 64, 101
1, 508760, Control_c, 0, 67, 54
1, 508775, Control_c, 0, 64, 110
1, 508775, Control_c, 0, 67, 53
1, 508790, Control_c, 0, 64, 127
1, 508819, Control_c, 0, 67, 52
1, 508834, Control_c, 0, 67, 51
1, 508849, Control_c, 0, 67, 51
1, 508893, Control_c, 0, 67, 49
1, 508908, Control_c, 0, 67, 48
1, 508923, Control_c, 0, 67, 48
1, 508937, Note_off_c, 0, 60, 61
1, 508967, Control_c, 0, 67, 46
1, 508982, Control_c, 0, 67, 43
1, 508997, Control_c, 0, 67, 42
1, 509041, Control_c, 0, 67, 41
1, 509056, Control_c, 0, 67, 39
1, 509071, Control_c, 0, 67, 38
1, 509130, Control_c, 0, 67, 37
1, 509145, Control_c, 0, 67, 0
1, 509627, Note_on_c, 0, 60, 69
1, 509812, Note_off_c, 0, 51, 54
1, 509904, Note_off_c, 0, 32, 42
1, 510006, Note_off_c, 0, 44, 36
1, 510331, Note_on_c, 0, 61, 74
1, 510345, Note_on_c, 0, 53, 55
1, 510376, Note_on_c, 0, 44, 41
1, 510379, Note_on_c, 0, 37, 43
1, 510420, Note_off_c, 0, 60, 60
1, 510451, Control_c, 0, 64, 103
1, 510465, Control_c, 0, 64, 87
1, 510475, Note_off_c, 0, 56, 54
1, 510480, Control_c, 0, 64, 71
1, 510495, Control_c, 0, 64, 53
1, 510509, Control_c, 0, 64, 0
1, 510613, Control_c, 0, 64, 35
1, 510627, Control_c, 0, 64, 53
1, 510642, Control_c, 0, 64, 67
1, 510657, Control_c, 0, 64, 77
1, 510672, Control_c, 0, 64, 92
1, 510695, Control_c, 0, 64, 118
1, 510709, Control_c, 0, 64, 127
1, 510737, Note_off_c, 0, 61, 62
1, 511188, Note_on_c, 0, 61, 83
1, 511405, Note_off_c, 0, 53, 51
1, 511446, Note_off_c, 0, 44, 59
1, 511687, Note_off_c, 0, 37, 40
1, 512028, Note_on_c, 0, 58, 76
1, 512035, Note_on_c, 0, 52, 69
1, 512060, Note_on_c, 0, 42, 52
1, 512063, Note_on_c, 0, 30, 52
1, 512169, Control_c, 0, 64, 80
1, 512192, Control_c, 0, 64, 62
1, 512206, Control_c, 0, 64, 43
1, 512221, Control_c, 0, 64, 31
1, 512266, Control_c, 0, 64, 37
1, 512281, Control_c, 0, 64, 52
1, 512295, Control_c, 0, 64, 63
1, 512310, Control_c, 0, 64, 72
1, 512325, Control_c, 0, 64, 80
1, 512340, Control_c, 0, 64, 88
1, 512354, Control_c, 0, 64, 95
1, 512369, Control_c, 0, 64, 110
1, 512384, Control_c, 0, 64, 127
1, 512419, Note_on_c, 0, 59, 83
1, 512477, Note_off_c, 0, 61, 61
1, 512587, Note_on_c, 0, 61, 88
1, 512630, Note_off_c, 0, 52, 59
1, 512632, Note_off_c, 0, 58, 55
1, 512635, Note_off_c, 0, 59, 60
1, 512738, Note_off_c, 0, 61, 60
1, 512741, Note_off_c, 0, 42, 57
1, 512839, Note_on_c, 0, 63, 86
1, 512852, Note_on_c, 0, 59, 74
1, 512863, Note_on_c, 0, 42, 52
1, 512880, Note_on_c, 0, 35, 53
1, 512896, Note_on_c, 0, 51, 49
1, 512903, Note_off_c, 0, 30, 36
1, 512940, Control_c, 0, 64, 102
1, 512955, Control_c, 0, 64, 80
1, 512970, Control_c, 0, 64, 64
1, 512984, Control_c, 0, 64, 47
1, 512999, Control_c, 0, 64, 0
1, 513103, Control_c, 0, 64, 40
1, 513118, Control_c, 0, 64, 57
1, 513133, Control_c, 0, 64, 65
1, 513148, Control_c, 0, 64, 68
1, 513163, Control_c, 0, 64, 71
1, 513178, Control_c, 0, 64, 77
1, 513192, Control_c, 0, 64, 92
1, 513207, Control_c, 0, 64, 121
1, 513222, Control_c, 0, 64, 127
1, 513518, Note_off_c, 0, 51, 38
1, 513542, Note_on_c, 0, 58, 79
1, 513661, Note_off_c, 0, 59, 58
1, 513696, Note_off_c, 0, 35, 59
1, 513723, Note_off_c, 0, 42, 62
1, 513730, Note_off_c, 0, 58, 63
1, 513744, Note_off_c, 0, 63, 63
1, 514204, Note_on_c, 0, 65, 88
1, 514212, Note_on_c, 0, 56, 73
1, 514214, Note_on_c, 0, 62, 77
1, 514228, Note_on_c, 0, 46, 59
1, 514237, Note_on_c, 0, 34, 56
1, 514282, Control_c, 0, 64, 90
1, 514297, Control_c, 0, 64, 69
1, 514312, Control_c, 0, 64, 45
1, 514327, Control_c, 0, 64, 0
1, 514416, Control_c, 0, 64, 40
1, 514438, Control_c, 0, 64, 60
1, 514453, Control_c, 0, 64, 69
1, 514468, Control_c, 0, 64, 75
1, 514482, Control_c, 0, 64, 81
1, 514497, Control_c, 0, 64, 94
1, 514512, Control_c, 0, 64, 127
1, 514547, Note_off_c, 0, 56, 63
1, 514551, Note_off_c, 0, 46, 37
1, 514558, Note_off_c, 0, 62, 63
1, 514568, Note_off_c, 0, 65, 64
1, 514622, Note_off_c, 0, 34, 36
1, 515054, Note_on_c, 0, 66, 87
1, 515068, Note_on_c, 0, 61, 68
1, 515086, Note_on_c, 0, 54, 52
1, 515087, Note_on_c, 0, 38, 50
1, 515089, Note_on_c, 0, 45, 51
1, 515202, Control_c, 0, 64, 97
1, 515217, Control_c, 0, 64, 80
1, 515231, Control_c, 0, 64, 67
1, 515246, Control_c, 0, 64, 51
1, 515261, Control_c, 0, 64, 34
1, 515276, Control_c, 0, 64, 0
1, 515365, Control_c, 0, 64, 33
1, 515379, Control_c, 0, 64, 46
1, 515394, Control_c, 0, 64, 54
1, 515409, Control_c, 0, 64, 58
1, 515423, Control_c, 0, 64, 59
1, 515438, Control_c, 0, 64, 62
1, 515453, Control_c, 0, 64, 66
1, 515468, Control_c, 0, 64, 69
1, 515483, Control_c, 0, 64, 73
1, 515497, Control_c, 0, 64, 75
1, 515512, Control_c, 0, 64, 77
1, 515512, Control_c, 0, 67, 39
1, 515527, Control_c, 0, 64, 81
1, 515527, Control_c, 0, 67, 49
1, 515542, Control_c, 0, 64, 89
1, 515557, Control_c, 0, 64, 97
1, 515557, Control_c, 0, 67, 51
1, 515572, Control_c, 0, 64, 107
1, 515572, Control_c, 0, 67, 53
1, 515587, Control_c, 0, 64, 119
1, 515587, Control_c, 0, 67, 60
1, 515602, Control_c, 0, 64, 127
1, 515602, Control_c, 0, 67, 78
1, 515617, Control_c, 0, 67, 91
1, 515631, Control_c, 0, 67, 95
1, 515646, Control_c, 0, 67, 97
1, 515676, Control_c, 0, 67, 101
1, 515691, Control_c, 0, 67, 111
1, 515705, Control_c, 0, 67, 122
1, 515720, Control_c, 0, 67, 127
1, 515962, Note_on_c, 0, 60, 71
1, 516092, Note_off_c, 0, 66, 61
1, 516129, Note_off_c, 0, 61, 60
1, 516131, Note_off_c, 0, 60, 61
1, 516246, Note_off_c, 0, 45, 56
1, 516380, Note_on_c, 0, 68, 78
1, 516391, Note_on_c, 0, 59, 61
1, 516438, Note_off_c, 0, 38, 35
1, 516490, Note_off_c, 0, 59, 60
1, 516493, Note_off_c, 0, 54, 52
1, 516562, Note_off_c, 0, 68, 51
1, 516886, Note_on_c, 0, 65, 64
1, 516905, Note_on_c, 0, 60, 52
1, 516921, Note_on_c, 0, 44, 33
1, 516922, Note_on_c, 0, 54, 39
1, 516931, Note_on_c, 0, 32, 38
1, 516966, Control_c, 0, 64, 106
1, 516981, Control_c, 0, 64, 85
1, 516995, Control_c, 0, 64, 68
1, 517010, Control_c, 0, 64, 50
1, 517025, Control_c, 0, 64, 0
1, 517084, Control_c, 0, 64, 39
1, 517099, Control_c, 0, 64, 55
1, 517114, Control_c, 0, 64, 65
1, 517129, Control_c, 0, 64, 73
1, 517143, Control_c, 0, 64, 79
1, 517158, Control_c, 0, 64, 85
1, 517173, Control_c, 0, 64, 91
1, 517188, Control_c, 0, 64, 97
1, 517202, Control_c, 0, 64, 106
1, 517217, Control_c, 0, 64, 117
1, 517223, Note_on_c, 0, 66, 81
1, 517232, Control_c, 0, 64, 127
1, 517290, Note_off_c, 0, 65, 59
1, 517314, Note_off_c, 0, 32, 39
1, 517364, Note_off_c, 0, 44, 40
1, 517501, Note_on_c, 0, 63, 85
1, 517536, Note_off_c, 0, 66, 65
1, 517551, Note_off_c, 0, 60, 60
1, 517608, Note_off_c, 0, 54, 44
1, 517637, Note_off_c, 0, 63, 58
1, 517880, Note_on_c, 0, 65, 64
1, 517894, Note_on_c, 0, 63, 58
1, 517903, Note_on_c, 0, 59, 46
1, 517911, Note_on_c, 0, 53, 36
1, 517912, Note_on_c, 0, 37, 38
1, 517924, Note_on_c, 0, 44, 33
1, 517938, Control_c, 0, 64, 108
1, 517953, Control_c, 0, 64, 92
1, 517967, Control_c, 0, 64, 79
1, 517982, Control_c, 0, 64, 65
1, 517997, Control_c, 0, 64, 50
1, 518012, Control_c, 0, 64, 0
1, 518130, Control_c, 0, 64, 40
1, 518146, Control_c, 0, 64, 51
1, 518161, Control_c, 0, 64, 58
1, 518183, Control_c, 0, 64, 63
1, 518198, Control_c, 0, 64, 68
1, 518213, Control_c, 0, 64, 73
1, 518228, Control_c, 0, 64, 78
1, 518243, Control_c, 0, 64, 83
1, 518257, Control_c, 0, 64, 89
1, 518267, Note_off_c, 0, 59, 52
1, 518272, Control_c, 0, 64, 94
1, 518287, Control_c, 0, 64, 101
1, 518302, Control_c, 0, 64, 111
1, 518317, Control_c, 0, 64, 127
1, 518360, Note_off_c, 0, 63, 53
1, 518542, Note_off_c, 0, 44, 37
1, 518771, Note_on_c, 0, 61, 52
1, 518775, Note_on_c, 0, 58, 48
1, 518783, Note_on_c, 0, 49, 42
1, 518789, Control_c, 0, 64, 112
1, 518804, Control_c, 0, 64, 82
1, 518819, Control_c, 0, 64, 67
1, 518834, Control_c, 0, 64, 57
1, 518848, Control_c, 0, 64, 54
1, 518863, Control_c, 0, 64, 56
1, 518872, Note_off_c, 0, 65, 55
1, 518878, Control_c, 0, 64, 62
1, 518893, Control_c, 0, 64, 68
1, 518908, Control_c, 0, 64, 78
1, 518930, Control_c, 0, 64, 88
1, 518946, Control_c, 0, 64, 94
1, 518961, Control_c, 0, 64, 98
1, 518976, Control_c, 0, 64, 103
1, 518976, Note_off_c, 0, 53, 41
1, 518991, Control_c, 0, 64, 107
1, 519006, Control_c, 0, 64, 112
1, 519020, Control_c, 0, 64, 123
1, 519035, Control_c, 0, 64, 127
1, 519040, Note_off_c, 0, 58, 51
1, 519203, Note_on_c, 0, 66, 61
1, 519212, Control_c, 0, 64, 94
1, 519223, Note_on_c, 0, 59, 39
1, 519227, Control_c, 0, 64, 75
1, 519239, Note_on_c, 0, 56, 27
1, 519242, Control_c, 0, 64, 61
1, 519257, Control_c, 0, 64, 49
1, 519271, Control_c, 0, 64, 47
1, 519275, Note_off_c, 0, 59, 0
1, 519275, Note_on_c, 0, 59, 5
1, 519286, Control_c, 0, 64, 50
1, 519301, Control_c, 0, 64, 57
1, 519316, Control_c, 0, 64, 66
1, 519331, Control_c, 0, 64, 73
1, 519346, Control_c, 0, 64, 81
1, 519361, Control_c, 0, 64, 87
1, 519376, Control_c, 0, 64, 92
1, 519390, Control_c, 0, 64, 97
1, 519402, Note_off_c, 0, 61, 28
1, 519405, Control_c, 0, 64, 103
1, 519420, Control_c, 0, 64, 113
1, 519435, Control_c, 0, 64, 127
1, 519456, Note_off_c, 0, 56, 41
1, 519467, Note_off_c, 0, 37, 43
1, 519486, Note_off_c, 0, 59, 42
1, 519685, Note_on_c, 0, 63, 58
1, 519707, Note_on_c, 0, 42, 40
1, 519708, Note_on_c, 0, 58, 37
1, 519738, Note_off_c, 0, 66, 55
1, 519739, Control_c, 0, 64, 99
1, 519754, Control_c, 0, 64, 84
1, 519769, Control_c, 0, 64, 71
1, 519784, Control_c, 0, 64, 60
1, 519797, Note_off_c, 0, 49, 50
1, 519799, Control_c, 0, 64, 49
1, 519814, Control_c, 0, 64, 39
1, 519828, Control_c, 0, 64, 30
1, 519843, Control_c, 0, 64, 0
1, 519888, Control_c, 0, 64, 35
1, 519902, Control_c, 0, 64, 48
1, 519917, Control_c, 0, 64, 58
1, 519932, Control_c, 0, 64, 64
1, 519947, Control_c, 0, 64, 68
1, 519962, Control_c, 0, 64, 73
1, 519976, Control_c, 0, 64, 80
1, 519991, Control_c, 0, 64, 87
1, 520006, Control_c, 0, 64, 94
1, 520020, Control_c, 0, 64, 102
1, 520035, Control_c, 0, 64, 115
1, 520050, Control_c, 0, 64, 127
1, 520102, Note_off_c, 0, 42, 58
1, 520214, Note_on_c, 0, 65, 54
1, 520284, Note_off_c, 0, 63, 38
1, 520290, Note_off_c, 0, 58, 40
1, 520323, Note_off_c, 0, 65, 57
1, 520766, Note_on_c, 0, 62, 42
1, 520794, Note_on_c, 0, 53, 31
1, 520795, Note_on_c, 0, 38, 38
1, 520799, Note_on_c, 0, 57, 32
1, 520815, Control_c, 0, 64, 114
1, 520819, Note_on_c, 0, 45, 26
1, 520830, Control_c, 0, 64, 106
1, 520844, Control_c, 0, 64, 99
1, 520859, Control_c, 0, 64, 94
1, 520874, Control_c, 0, 64, 88
1, 520889, Control_c, 0, 64, 79
1, 520904, Control_c, 0, 64, 67
1, 520918, Control_c, 0, 64, 55
1, 520933, Control_c, 0, 64, 45
1, 520948, Control_c, 0, 64, 37
1, 520963, Control_c, 0, 64, 32
1, 520978, Control_c, 0, 64, 30
1, 521007, Control_c, 0, 64, 35
1, 521022, Control_c, 0, 64, 46
1, 521036, Control_c, 0, 64, 58
1, 521051, Control_c, 0, 64, 65
1, 521066, Control_c, 0, 64, 67
1, 521081, Control_c, 0, 64, 70
1, 521096, Control_c, 0, 64, 74
1, 521110, Control_c, 0, 64, 78
1, 521125, Control_c, 0, 64, 84
1, 521140, Control_c, 0, 64, 90
1, 521143, Note_off_c, 0, 45, 32
1, 521155, Control_c, 0, 64, 95
1, 521177, Control_c, 0, 64, 97
1, 521207, Control_c, 0, 64, 100
1, 521237, Control_c, 0, 64, 103
1, 521239, Note_off_c, 0, 38, 37
1, 521251, Control_c, 0, 64, 107
1, 521266, Control_c, 0, 64, 112
1, 521281, Control_c, 0, 64, 119
1, 521296, Control_c, 0, 64, 127
1, 521355, Note_on_c, 0, 64, 50
1, 521414, Note_off_c, 0, 62, 61
1, 521453, Note_off_c, 0, 64, 61
1, 521470, Note_off_c, 0, 57, 40
1, 521478, Note_off_c, 0, 53, 41
1, 521939, Note_on_c, 0, 61, 47
1, 521957, Note_on_c, 0, 57, 37
1, 521966, Note_on_c, 0, 52, 32
1, 521978, Note_on_c, 0, 30, 29
1, 521987, Note_on_c, 0, 42, 31
1, 522045, Control_c, 0, 64, 120
1, 522060, Control_c, 0, 64, 109
1, 522074, Control_c, 0, 64, 100
1, 522089, Control_c, 0, 64, 93
1, 522104, Control_c, 0, 64, 84
1, 522119, Control_c, 0, 64, 74
1, 522134, Control_c, 0, 64, 64
1, 522150, Control_c, 0, 64, 53
1, 522164, Control_c, 0, 64, 43
1, 522179, Control_c, 0, 64, 34
1, 522194, Control_c, 0, 64, 31
1, 522223, Control_c, 0, 64, 32
1, 522238, Control_c, 0, 64, 40
1, 522253, Control_c, 0, 64, 52
1, 522268, Control_c, 0, 64, 62
1, 522283, Control_c, 0, 64, 69
1, 522297, Control_c, 0, 64, 73
1, 522312, Control_c, 0, 64, 76
1, 522327, Control_c, 0, 64, 80
1, 522342, Control_c, 0, 64, 86
1, 522357, Control_c, 0, 64, 94
1, 522371, Control_c, 0, 64, 102
1, 522386, Control_c, 0, 64, 113
1, 522401, Control_c, 0, 64, 127
1, 522418, Note_off_c, 0, 30, 41
1, 522443, Note_off_c, 0, 57, 53
1, 522515, Note_off_c, 0, 42, 41
1, 522577, Note_off_c, 0, 52, 40
1, 523096, Note_on_c, 0, 51, 38
1, 523100, Note_on_c, 0, 54, 36
1, 523111, Note_on_c, 0, 32, 35
1, 523123, Note_on_c, 0, 44, 18
1, 523194, Control_c, 0, 64, 107
1, 523209, Control_c, 0, 64, 97
1, 523224, Control_c, 0, 64, 89
1, 523238, Control_c, 0, 64, 81
1, 523253, Control_c, 0, 64, 72
1, 523268, Control_c, 0, 64, 62
1, 523283, Control_c, 0, 64, 50
1, 523298, Control_c, 0, 64, 38
1, 523312, Control_c, 0, 64, 0
1, 523371, Control_c, 0, 64, 32
1, 523386, Control_c, 0, 64, 43
1, 523401, Control_c, 0, 64, 57
1, 523424, Control_c, 0, 64, 64
1, 523438, Control_c, 0, 64, 68
1, 523453, Control_c, 0, 64, 70
1, 523468, Control_c, 0, 64, 72
1, 523483, Control_c, 0, 64, 75
1, 523498, Control_c, 0, 64, 78
1, 523513, Control_c, 0, 64, 84
1, 523527, Control_c, 0, 64, 90
1, 523542, Control_c, 0, 64, 95
1, 523557, Control_c, 0, 64, 98
1, 523571, Control_c, 0, 64, 101
1, 523586, Control_c, 0, 64, 105
1, 523601, Control_c, 0, 64, 108
1, 523616, Control_c, 0, 64, 113
1, 523631, Control_c, 0, 64, 119
1, 523645, Control_c, 0, 64, 127
1, 523735, Note_off_c, 0, 61, 34
1, 523763, Note_on_c, 0, 60, 50
1, 523772, Note_off_c, 0, 51, 39
1, 523878, Note_off_c, 0, 54, 33
1, 523894, Note_off_c, 0, 60, 58
1, 523918, Note_off_c, 0, 44, 41
1, 523925, Note_off_c, 0, 32, 42
1, 524713, Note_on_c, 0, 61, 42
1, 524732, Note_on_c, 0, 54, 25
1, 524752, Note_on_c, 0, 44, 17
1, 524753, Note_on_c, 0, 37, 30
1, 524780, Control_c, 0, 64, 123
1, 524795, Control_c, 0, 64, 110
1, 524810, Control_c, 0, 64, 105
1, 524825, Control_c, 0, 64, 100
1, 524840, Control_c, 0, 64, 96
1, 524854, Control_c, 0, 64, 92
1, 524869, Control_c, 0, 64, 88
1, 524884, Control_c, 0, 64, 82
1, 524899, Control_c, 0, 64, 75
1, 524921, Control_c, 0, 64, 66
1, 524936, Control_c, 0, 64, 55
1, 524951, Control_c, 0, 64, 46
1, 524965, Control_c, 0, 64, 39
1, 524980, Control_c, 0, 64, 32
1, 524995, Control_c, 0, 64, 0
1, 525054, Control_c, 0, 64, 32
1, 525069, Control_c, 0, 64, 41
1, 525084, Control_c, 0, 64, 49
1, 525099, Control_c, 0, 64, 56
1, 525114, Control_c, 0, 64, 62
1, 525129, Control_c, 0, 64, 67
1, 525143, Control_c, 0, 64, 71
1, 525158, Control_c, 0, 64, 74
1, 525173, Control_c, 0, 64, 75
1, 525188, Control_c, 0, 64, 77
1, 525203, Control_c, 0, 64, 80
1, 525217, Control_c, 0, 64, 84
1, 525231, Control_c, 0, 64, 90
1, 525246, Control_c, 0, 64, 97
1, 525261, Control_c, 0, 64, 103
1, 525276, Control_c, 0, 64, 108
1, 525290, Control_c, 0, 64, 118
1, 525305, Control_c, 0, 64, 127
1, 526096, Note_off_c, 0, 54, 26
1, 526255, Note_on_c, 0, 53, 40
1, 526306, Note_off_c, 0, 44, 10
1, 526342, Note_off_c, 0, 37, 41
1, 526583, Note_off_c, 0, 53, 39
1, 527015, Note_off_c, 0, 61, 29
1, 527322, Note_on_c, 0, 56, 34
1, 527530, Note_off_c, 0, 56, 37
1, 527757, Note_on_c, 0, 58, 46
1, 527936, Note_off_c, 0, 58, 29
1, 528132, Note_on_c, 0, 63, 48
1, 528193, Note_off_c, 0, 63, 51
1, 528458, Note_on_c, 0, 60, 45
1, 528516, Note_off_c, 0, 60, 54
1, 529092, Note_on_c, 0, 73, 63
1, 529127, Note_on_c, 0, 61, 38
1, 529257, Control_c, 0, 64, 123
1, 529272, Control_c, 0, 64, 106
1, 529287, Control_c, 0, 64, 94
1, 529301, Control_c, 0, 64, 81
1, 529316, Control_c, 0, 64, 66
1, 529332, Control_c, 0, 64, 52
1, 529347, Control_c, 0, 64, 34
1, 529362, Control_c, 0, 64, 0
1, 529502, Control_c, 0, 64, 33
1, 529517, Control_c, 0, 64, 45
1, 529531, Control_c, 0, 64, 60
1, 529546, Control_c, 0, 64, 68
1, 529561, Control_c, 0, 64, 72
1, 529576, Control_c, 0, 64, 74
1, 529591, Control_c, 0, 64, 75
1, 529606, Control_c, 0, 64, 78
1, 529618, Note_on_c, 0, 65, 36
1, 529621, Control_c, 0, 64, 84
1, 529622, Note_on_c, 0, 68, 37
1, 529636, Control_c, 0, 64, 96
1, 529651, Control_c, 0, 64, 107
1, 529666, Control_c, 0, 64, 119
1, 529680, Control_c, 0, 64, 127
1, 529886, Note_on_c, 0, 56, 41
1, 529991, Note_off_c, 0, 61, 31
1, 530014, Note_off_c, 0, 65, 37
1, 530169, Note_off_c, 0, 68, 28
1, 530171, Note_on_c, 0, 60, 36
1, 530266, Control_c, 0, 64, 93
1, 530281, Control_c, 0, 64, 73
1, 530296, Control_c, 0, 64, 60
1, 530298, Note_off_c, 0, 56, 43
1, 530310, Control_c, 0, 64, 53
1, 530325, Control_c, 0, 64, 54
1, 530340, Control_c, 0, 64, 61
1, 530354, Control_c, 0, 64, 66
1, 530369, Control_c, 0, 64, 71
1, 530384, Control_c, 0, 64, 75
1, 530399, Control_c, 0, 64, 77
1, 530414, Control_c, 0, 64, 81
1, 530429, Control_c, 0, 64, 86
1, 530444, Control_c, 0, 64, 92
1, 530459, Control_c, 0, 64, 96
1, 530474, Control_c, 0, 64, 102
1, 530489, Control_c, 0, 64, 111
1, 530496, Note_on_c, 0, 68, 31
1, 530503, Control_c, 0, 64, 127
1, 530508, Note_on_c, 0, 65, 22
1, 530775, Note_on_c, 0, 75, 63
1, 530825, Note_on_c, 0, 56, 37
1, 530834, Note_off_c, 0, 60, 36
1, 530836, Note_off_c, 0, 73, 58
1, 530868, Note_off_c, 0, 65, 40
1, 530924, Note_off_c, 0, 68, 38
1, 531079, Note_on_c, 0, 73, 67
1, 531096, Note_on_c, 0, 58, 46
1, 531208, Control_c, 0, 64, 103
1, 531214, Note_off_c, 0, 56, 37
1, 531223, Control_c, 0, 64, 83
1, 531238, Control_c, 0, 64, 69
1, 531252, Control_c, 0, 64, 59
1, 531267, Control_c, 0, 64, 54
1, 531282, Control_c, 0, 64, 55
1, 531297, Control_c, 0, 64, 59
1, 531312, Control_c, 0, 64, 65
1, 531320, Note_on_c, 0, 72, 72
1, 531322, Note_off_c, 0, 75, 54
1, 531326, Control_c, 0, 64, 70
1, 531341, Note_on_c, 0, 68, 34
1, 531341, Control_c, 0, 64, 75
1, 531346, Note_on_c, 0, 61, 39
1, 531356, Control_c, 0, 64, 80
1, 531371, Control_c, 0, 64, 84
1, 531386, Control_c, 0, 64, 89
1, 531400, Control_c, 0, 64, 96
1, 531408, Note_off_c, 0, 73, 60
1, 531415, Control_c, 0, 64, 105
1, 531430, Control_c, 0, 64, 114
1, 531445, Control_c, 0, 64, 127
1, 531559, Note_on_c, 0, 73, 70
1, 531570, Note_on_c, 0, 56, 46
1, 531617, Note_off_c, 0, 56, 58
1, 531623, Note_off_c, 0, 58, 36
1, 531630, Note_off_c, 0, 61, 41
1, 531636, Note_off_c, 0, 72, 57
1, 531752, Note_off_c, 0, 68, 34
1, 531815, Note_on_c, 0, 70, 69
1, 531839, Note_on_c, 0, 61, 44
1, 531874, Note_off_c, 0, 73, 61
1, 531898, Control_c, 0, 64, 112
1, 531913, Control_c, 0, 64, 93
1, 531927, Control_c, 0, 64, 75
1, 531942, Control_c, 0, 64, 61
1, 531957, Control_c, 0, 64, 44
1, 531972, Control_c, 0, 64, 34
1, 532001, Control_c, 0, 64, 38
1, 532016, Control_c, 0, 64, 50
1, 532031, Control_c, 0, 64, 60
1, 532046, Control_c, 0, 64, 66
1, 532061, Control_c, 0, 64, 72
1, 532064, Note_on_c, 0, 72, 67
1, 532071, Note_on_c, 0, 65, 43
1, 532075, Control_c, 0, 64, 80
1, 532083, Note_on_c, 0, 68, 43
1, 532090, Control_c, 0, 64, 84
1, 532096, Note_off_c, 0, 70, 60
1, 532105, Control_c, 0, 64, 87
1, 532119, Control_c, 0, 64, 91
1, 532123, Note_off_c, 0, 68, 48
1, 532131, Note_off_c, 0, 65, 54
1, 532134, Control_c, 0, 64, 95
1, 532149, Control_c, 0, 64, 99
1, 532179, Control_c, 0, 64, 101
1, 532289, Note_off_c, 0, 61, 39
1, 532304, Note_on_c, 0, 70, 62
1, 532344, Note_off_c, 0, 72, 56
1, 532348, Note_on_c, 0, 53, 19
1, 532557, Control_c, 0, 64, 98
1, 532587, Control_c, 0, 64, 96
1, 532602, Control_c, 0, 64, 96
1, 532617, Control_c, 0, 64, 95
1, 532630, Note_on_c, 0, 72, 61
1, 532632, Control_c, 0, 64, 95
1, 532647, Control_c, 0, 64, 94
1, 532649, Note_on_c, 0, 60, 36
1, 532661, Control_c, 0, 64, 93
1, 532667, Note_off_c, 0, 70, 53
1, 532676, Control_c, 0, 64, 91
1, 532691, Control_c, 0, 64, 87
1, 532706, Control_c, 0, 64, 81
1, 532721, Control_c, 0, 64, 72
1, 532724, Note_off_c, 0, 53, 42
1, 532736, Control_c, 0, 64, 61
1, 532750, Control_c, 0, 64, 48
1, 532765, Control_c, 0, 64, 36
1, 532780, Control_c, 0, 64, 30
1, 532824, Control_c, 0, 64, 32
1, 532839, Control_c, 0, 64, 37
1, 532854, Control_c, 0, 64, 45
1, 532869, Control_c, 0, 64, 53
1, 532884, Control_c, 0, 64, 59
1, 532898, Control_c, 0, 64, 64
1, 532913, Control_c, 0, 64, 66
1, 532928, Control_c, 0, 64, 68
1, 532942, Control_c, 0, 64, 72
1, 532957, Control_c, 0, 64, 76
1, 532971, Note_on_c, 0, 63, 29
1, 532972, Note_on_c, 0, 68, 30
1, 532972, Control_c, 0, 64, 80
1, 532987, Control_c, 0, 64, 84
1, 533002, Control_c, 0, 64, 88
1, 533016, Control_c, 0, 64, 90
1, 533031, Control_c, 0, 64, 92
1, 533046, Control_c, 0, 64, 94
1, 533058, Note_off_c, 0, 72, 61
1, 533061, Control_c, 0, 64, 96
1, 533076, Control_c, 0, 64, 99
1, 533091, Control_c, 0, 64, 102
1, 533095, Note_off_c, 0, 68, 36
1, 533106, Control_c, 0, 64, 105
1, 533120, Control_c, 0, 64, 108
1, 533135, Control_c, 0, 64, 111
1, 533157, Control_c, 0, 64, 114
1, 533172, Control_c, 0, 64, 117
1, 533187, Control_c, 0, 64, 120
1, 533202, Control_c, 0, 64, 123
1, 533217, Control_c, 0, 64, 126
1, 533236, Note_on_c, 0, 53, 44
1, 533291, Note_off_c, 0, 60, 36
1, 533309, Note_off_c, 0, 63, 41
1, 533481, Note_on_c, 0, 58, 51
1, 533543, Control_c, 0, 64, 123
1, 533587, Control_c, 0, 64, 120
1, 533646, Control_c, 0, 64, 117
1, 533676, Control_c, 0, 64, 113
1, 533691, Control_c, 0, 64, 107
1, 533705, Control_c, 0, 64, 92
1, 533710, Note_on_c, 0, 70, 75
1, 533720, Control_c, 0, 64, 76
1, 533730, Note_on_c, 0, 68, 50
1, 533735, Control_c, 0, 64, 60
1, 533743, Note_on_c, 0, 61, 40
1, 533750, Control_c, 0, 64, 41
1, 533765, Control_c, 0, 64, 32
1, 533768, Note_off_c, 0, 53, 36
1, 533779, Control_c, 0, 64, 32
1, 533794, Control_c, 0, 64, 37
1, 533809, Control_c, 0, 64, 52
1, 533824, Control_c, 0, 64, 62
1, 533839, Control_c, 0, 64, 69
1, 533854, Control_c, 0, 64, 75
1, 533869, Control_c, 0, 64, 79
1, 533884, Control_c, 0, 64, 83
1, 533905, Control_c, 0, 64, 88
1, 533920, Control_c, 0, 64, 96
1, 533935, Control_c, 0, 64, 106
1, 533943, Note_on_c, 0, 72, 79
1, 533950, Control_c, 0, 64, 121
1, 533965, Control_c, 0, 64, 127
1, 533980, Note_on_c, 0, 53, 37
1, 534007, Note_off_c, 0, 70, 63
1, 534009, Note_off_c, 0, 58, 60
1, 534010, Note_off_c, 0, 68, 36
1, 534013, Note_off_c, 0, 53, 48
1, 534016, Note_off_c, 0, 61, 60
1, 534129, Control_c, 0, 67, 125
1, 534158, Control_c, 0, 67, 127
1, 534314, Note_on_c, 0, 73, 74
1, 534339, Note_on_c, 0, 61, 41
1, 534366, Control_c, 0, 64, 120
1, 534375, Note_off_c, 0, 72, 58
1, 534381, Control_c, 0, 64, 112
1, 534396, Control_c, 0, 64, 106
1, 534411, Control_c, 0, 64, 101
1, 534426, Control_c, 0, 64, 97
1, 534441, Control_c, 0, 64, 93
1, 534456, Control_c, 0, 64, 89
1, 534470, Control_c, 0, 64, 84
1, 534485, Control_c, 0, 64, 79
1, 534500, Control_c, 0, 64, 73
1, 534515, Control_c, 0, 64, 67
1, 534529, Control_c, 0, 64, 60
1, 534544, Control_c, 0, 64, 54
1, 534559, Control_c, 0, 64, 46
1, 534574, Control_c, 0, 64, 36
1, 534589, Control_c, 0, 64, 30
1, 534603, Control_c, 0, 64, 0
1, 534633, Control_c, 0, 64, 33
1, 534656, Control_c, 0, 64, 44
1, 534671, Note_on_c, 0, 65, 39
1, 534671, Control_c, 0, 64, 54
1, 534679, Note_on_c, 0, 68, 39
1, 534685, Control_c, 0, 64, 60
1, 534700, Control_c, 0, 64, 63
1, 534715, Control_c, 0, 64, 68
1, 534729, Control_c, 0, 64, 73
1, 534744, Control_c, 0, 64, 78
1, 534759, Control_c, 0, 64, 81
1, 534774, Control_c, 0, 64, 83
1, 534789, Control_c, 0, 64, 84
1, 534803, Control_c, 0, 64, 85
1, 534818, Control_c, 0, 64, 88
1, 534833, Control_c, 0, 64, 93
1, 534848, Control_c, 0, 64, 96
1, 534877, Control_c, 0, 64, 98
1, 534903, Note_on_c, 0, 56, 43
1, 534923, Control_c, 0, 64, 101
1, 534952, Control_c, 0, 64, 103
1, 535033, Note_off_c, 0, 61, 36
1, 535088, Note_off_c, 0, 65, 27
1, 535198, Note_on_c, 0, 60, 45
1, 535200, Note_off_c, 0, 68, 31
1, 535249, Control_c, 0, 64, 101
1, 535279, Control_c, 0, 64, 98
1, 535293, Control_c, 0, 64, 92
1, 535308, Control_c, 0, 64, 83
1, 535323, Control_c, 0, 64, 71
1, 535337, Note_off_c, 0, 56, 38
1, 535338, Control_c, 0, 64, 57
1, 535352, Control_c, 0, 64, 46
1, 535367, Control_c, 0, 64, 42
1, 535404, Control_c, 0, 64, 46
1, 535419, Control_c, 0, 64, 55
1, 535434, Control_c, 0, 64, 62
1, 535449, Control_c, 0, 64, 66
1, 535463, Control_c, 0, 64, 69
1, 535478, Control_c, 0, 64, 73
1, 535478, Note_on_c, 0, 75, 71
1, 535493, Control_c, 0, 64, 77
1, 535494, Note_on_c, 0, 65, 41
1, 535505, Note_on_c, 0, 68, 41
1, 535508, Control_c, 0, 64, 82
1, 535523, Control_c, 0, 64, 87
1, 535538, Control_c, 0, 64, 92
1, 535552, Control_c, 0, 64, 95
1, 535567, Control_c, 0, 64, 99
1, 535582, Control_c, 0, 64, 102
1, 535597, Control_c, 0, 64, 106
1, 535612, Control_c, 0, 64, 108
1, 535629, Note_off_c, 0, 73, 56
1, 535641, Control_c, 0, 64, 111
1, 535656, Control_c, 0, 64, 113
1, 535670, Control_c, 0, 64, 115
1, 535685, Control_c, 0, 64, 119
1, 535700, Control_c, 0, 64, 127
1, 535711, Note_on_c, 0, 72, 78
1, 535726, Note_off_c, 0, 60, 55
1, 535728, Note_on_c, 0, 56, 57
1, 535770, Note_off_c, 0, 65, 34
1, 535774, Note_off_c, 0, 68, 40
1, 535781, Note_off_c, 0, 75, 61
1, 536009, Note_on_c, 0, 75, 72
1, 536026, Note_on_c, 0, 58, 42
1, 536072, Control_c, 0, 64, 120
1, 536076, Note_off_c, 0, 72, 63
1, 536078, Note_off_c, 0, 56, 59
1, 536086, Control_c, 0, 64, 102
1, 536101, Control_c, 0, 64, 88
1, 536116, Control_c, 0, 64, 73
1, 536131, Control_c, 0, 64, 57
1, 536153, Control_c, 0, 64, 0
1, 536251, Note_on_c, 0, 73, 76
1, 536255, Note_on_c, 0, 68, 44
1, 536256, Control_c, 0, 64, 41
1, 536270, Note_on_c, 0, 61, 43
1, 536271, Control_c, 0, 64, 61
1, 536286, Control_c, 0, 64, 69
1, 536301, Control_c, 0, 64, 73
1, 536316, Control_c, 0, 64, 77
1, 536331, Control_c, 0, 64, 82
1, 536346, Control_c, 0, 64, 89
1, 536361, Control_c, 0, 64, 100
1, 536375, Control_c, 0, 64, 116
1, 536390, Control_c, 0, 64, 127
1, 536405, Control_c, 0, 67, 122
1, 536420, Control_c, 0, 67, 109
1, 536435, Control_c, 0, 67, 95
1, 536449, Control_c, 0, 67, 84
1, 536457, Note_on_c, 0, 77, 78
1, 536462, Control_c, 0, 67, 74
1, 536468, Note_on_c, 0, 56, 56
1, 536477, Control_c, 0, 67, 64
1, 536481, Note_off_c, 0, 75, 39
1, 536492, Control_c, 0, 67, 56
1, 536507, Control_c, 0, 67, 52
1, 536510, Note_off_c, 0, 61, 61
1, 536519, Note_off_c, 0, 73, 61
1, 536522, Control_c, 0, 67, 51
1, 536526, Note_off_c, 0, 56, 59
1, 536530, Note_off_c, 0, 58, 34
1, 536567, Control_c, 0, 67, 50
1, 536583, Note_off_c, 0, 68, 38
1, 536611, Control_c, 0, 67, 51
1, 536626, Control_c, 0, 67, 51
1, 536641, Control_c, 0, 67, 52
1, 536656, Control_c, 0, 67, 52
1, 536671, Control_c, 0, 67, 55
1, 536686, Control_c, 0, 67, 59
1, 536701, Control_c, 0, 67, 60
1, 536705, Note_on_c, 0, 73, 74
1, 536722, Note_on_c, 0, 61, 48
1, 536730, Control_c, 0, 67, 61
1, 536745, Control_c, 0, 67, 63
1, 536760, Control_c, 0, 67, 67
1, 536775, Control_c, 0, 67, 67
1, 536787, Note_off_c, 0, 77, 60
1, 536819, Control_c, 0, 64, 92
1, 536819, Control_c, 0, 67, 68
1, 536834, Control_c, 0, 64, 72
1, 536834, Control_c, 0, 67, 72
1, 536849, Control_c, 0, 64, 56
1, 536849, Control_c, 0, 67, 74
1, 536863, Control_c, 0, 64, 39
1, 536863, Control_c, 0, 67, 74
1, 536878, Control_c, 0, 64, 35
1, 536878, Control_c, 0, 67, 73
1, 536900, Control_c, 0, 64, 41
1, 536915, Control_c, 0, 64, 53
1, 536915, Control_c, 0, 67, 74
1, 536930, Control_c, 0, 64, 64
1, 536930, Control_c, 0, 67, 79
1, 536945, Control_c, 0, 64, 73
1, 536945, Control_c, 0, 67, 83
1, 536953, Note_on_c, 0, 75, 78
1, 536955, Note_on_c, 0, 70, 57
1, 536960, Control_c, 0, 64, 81
1, 536968, Note_on_c, 0, 63, 53
1, 536975, Control_c, 0, 64, 86
1, 536975, Control_c, 0, 67, 84
1, 536989, Control_c, 0, 64, 87
1, 536989, Control_c, 0, 67, 85
1, 536990, Note_off_c, 0, 70, 65
1, 537004, Control_c, 0, 64, 88
1, 537004, Control_c, 0, 67, 86
1, 537014, Note_off_c, 0, 63, 57
1, 537019, Control_c, 0, 64, 90
1, 537019, Control_c, 0, 67, 87
1, 537026, Note_off_c, 0, 73, 59
1, 537033, Note_off_c, 0, 61, 60
1, 537034, Control_c, 0, 64, 93
1, 537049, Control_c, 0, 64, 97
1, 537063, Control_c, 0, 64, 99
1, 537078, Control_c, 0, 64, 101
1, 537078, Control_c, 0, 67, 88
1, 537093, Control_c, 0, 67, 89
1, 537108, Control_c, 0, 67, 88
1, 537122, Control_c, 0, 67, 88
1, 537152, Control_c, 0, 67, 89
1, 537167, Control_c, 0, 67, 91
1, 537182, Control_c, 0, 67, 92
1, 537192, Note_on_c, 0, 73, 76
1, 537196, Control_c, 0, 67, 103
1, 537212, Control_c, 0, 67, 111
1, 537213, Note_on_c, 0, 51, 53
1, 537227, Control_c, 0, 67, 119
1, 537242, Control_c, 0, 67, 127
1, 537251, Note_off_c, 0, 75, 61
1, 537450, Control_c, 0, 64, 99
1, 537480, Control_c, 0, 64, 96
1, 537492, Note_off_c, 0, 51, 37
1, 537494, Control_c, 0, 64, 95
1, 537509, Control_c, 0, 64, 94
1, 537516, Note_on_c, 0, 75, 72
1, 537524, Control_c, 0, 64, 93
1, 537538, Control_c, 0, 64, 92
1, 537540, Note_on_c, 0, 59, 44
1, 537553, Control_c, 0, 64, 90
1, 537568, Control_c, 0, 64, 89
1, 537583, Control_c, 0, 64, 86
1, 537598, Control_c, 0, 64, 83
1, 537611, Note_off_c, 0, 73, 54
1, 537613, Control_c, 0, 64, 80
1, 537628, Control_c, 0, 64, 75
1, 537650, Control_c, 0, 64, 67
1, 537664, Control_c, 0, 64, 57
1, 537679, Control_c, 0, 64, 43
1, 537694, Control_c, 0, 64, 0
1, 537768, Control_c, 0, 64, 38
1, 537783, Control_c, 0, 64, 50
1, 537798, Control_c, 0, 64, 61
1, 537812, Note_on_c, 0, 68, 43
1, 537812, Control_c, 0, 64, 68
1, 537820, Note_on_c, 0, 63, 40
1, 537827, Control_c, 0, 64, 73
1, 537842, Control_c, 0, 64, 77
1, 537857, Control_c, 0, 64, 80
1, 537872, Control_c, 0, 64, 82
1, 537887, Control_c, 0, 64, 85
1, 537887, Note_off_c, 0, 68, 57
1, 537902, Control_c, 0, 64, 87
1, 537917, Control_c, 0, 64, 89
1, 537932, Control_c, 0, 64, 91
1, 537946, Control_c, 0, 64, 92
1, 537953, Note_off_c, 0, 63, 35
1, 537961, Control_c, 0, 64, 93
1, 537976, Control_c, 0, 64, 93
1, 538071, Note_on_c, 0, 51, 56
1, 538143, Note_off_c, 0, 59, 36
1, 538399, Control_c, 0, 64, 93
1, 538406, Note_on_c, 0, 58, 53
1, 538443, Control_c, 0, 64, 92
1, 538458, Control_c, 0, 64, 89
1, 538473, Control_c, 0, 64, 81
1, 538487, Control_c, 0, 64, 70
1, 538502, Control_c, 0, 64, 57
1, 538517, Control_c, 0, 64, 42
1, 538519, Note_off_c, 0, 51, 59
1, 538532, Control_c, 0, 64, 38
1, 538547, Control_c, 0, 64, 41
1, 538561, Control_c, 0, 64, 49
1, 538576, Control_c, 0, 64, 60
1, 538591, Control_c, 0, 64, 68
1, 538606, Control_c, 0, 64, 74
1, 538621, Control_c, 0, 64, 79
1, 538635, Control_c, 0, 64, 80
1, 538650, Control_c, 0, 64, 83
1, 538665, Control_c, 0, 64, 87
1, 538680, Control_c, 0, 64, 93
1, 538695, Control_c, 0, 64, 101
1, 538710, Control_c, 0, 64, 111
1, 538725, Control_c, 0, 64, 120
1, 538735, Note_on_c, 0, 73, 79
1, 538739, Control_c, 0, 64, 127
1, 538758, Note_on_c, 0, 63, 47
1, 538762, Note_on_c, 0, 66, 48
1, 538811, Note_off_c, 0, 75, 62
1, 538814, Control_c, 0, 67, 124
1, 538829, Control_c, 0, 67, 111
1, 538843, Control_c, 0, 67, 95
1, 538846, Note_off_c, 0, 63, 56
1, 538858, Control_c, 0, 67, 79
1, 538873, Control_c, 0, 67, 64
1, 538887, Control_c, 0, 67, 48
1, 538890, Note_off_c, 0, 66, 56
1, 538902, Control_c, 0, 67, 0
1, 539014, Note_on_c, 0, 75, 84
1, 539042, Note_on_c, 0, 51, 51
1, 539068, Note_off_c, 0, 58, 62
1, 539079, Note_off_c, 0, 51, 62
1, 539082, Note_off_c, 0, 73, 60
1, 539422, Note_on_c, 0, 77, 85
1, 539429, Control_c, 0, 67, 34
1, 539432, Note_on_c, 0, 61, 48
1, 539444, Control_c, 0, 67, 35
1, 539458, Control_c, 0, 67, 37
1, 539473, Control_c, 0, 67, 40
1, 539488, Control_c, 0, 67, 48
1, 539503, Control_c, 0, 67, 59
1, 539517, Control_c, 0, 67, 62
1, 539532, Control_c, 0, 67, 63
1, 539541, Note_off_c, 0, 75, 57
1, 539547, Control_c, 0, 67, 67
1, 539562, Control_c, 0, 67, 76
1, 539577, Control_c, 0, 64, 117
1, 539577, Control_c, 0, 67, 88
1, 539591, Control_c, 0, 64, 104
1, 539591, Control_c, 0, 67, 95
1, 539606, Control_c, 0, 64, 95
1, 539606, Control_c, 0, 67, 102
1, 539621, Control_c, 0, 64, 85
1, 539621, Control_c, 0, 67, 118
1, 539635, Control_c, 0, 64, 72
1, 539635, Control_c, 0, 67, 127
1, 539650, Control_c, 0, 64, 60
1, 539665, Control_c, 0, 64, 43
1, 539680, Control_c, 0, 64, 0
1, 539755, Control_c, 0, 64, 29
1, 539770, Control_c, 0, 64, 48
1, 539785, Control_c, 0, 64, 61
1, 539795, Note_on_c, 0, 70, 47
1, 539800, Control_c, 0, 64, 68
1, 539803, Note_on_c, 0, 65, 31
1, 539814, Control_c, 0, 64, 72
1, 539829, Control_c, 0, 64, 77
1, 539844, Control_c, 0, 64, 84
1, 539857, Note_off_c, 0, 70, 55
1, 539858, Control_c, 0, 64, 93
1, 539873, Control_c, 0, 64, 101
1, 539876, Note_off_c, 0, 65, 49
1, 539896, Control_c, 0, 64, 110
1, 539911, Control_c, 0, 64, 127
1, 540012, Note_off_c, 0, 61, 56
1, 540060, Note_on_c, 0, 53, 46
1, 540391, Note_on_c, 0, 60, 51
1, 540430, Control_c, 0, 64, 111
1, 540445, Control_c, 0, 64, 97
1, 540459, Control_c, 0, 64, 85
1, 540474, Control_c, 0, 64, 73
1, 540489, Control_c, 0, 64, 62
1, 540504, Control_c, 0, 64, 55
1, 540519, Control_c, 0, 64, 53
1, 540548, Note_off_c, 0, 53, 30
1, 540564, Control_c, 0, 64, 54
1, 540579, Control_c, 0, 64, 57
1, 540594, Control_c, 0, 64, 62
1, 540609, Control_c, 0, 64, 67
1, 540623, Control_c, 0, 64, 73
1, 540645, Control_c, 0, 64, 78
1, 540660, Control_c, 0, 64, 82
1, 540675, Control_c, 0, 64, 84
1, 540689, Control_c, 0, 64, 86
1, 540704, Control_c, 0, 64, 88
1, 540719, Control_c, 0, 64, 91
1, 540734, Control_c, 0, 64, 95
1, 540749, Control_c, 0, 64, 99
1, 540764, Control_c, 0, 64, 104
1, 540774, Note_on_c, 0, 80, 70
1, 540775, Note_on_c, 0, 70, 46
1, 540778, Control_c, 0, 64, 109
1, 540792, Note_on_c, 0, 63, 38
1, 540793, Control_c, 0, 64, 117
1, 540808, Control_c, 0, 64, 127
1, 540849, Note_off_c, 0, 70, 59
1, 540939, Note_off_c, 0, 77, 46
1, 541117, Note_on_c, 0, 77, 82
1, 541143, Note_on_c, 0, 53, 38
1, 541175, Note_off_c, 0, 60, 60
1, 541211, Note_off_c, 0, 80, 62
1, 541234, Note_off_c, 0, 63, 36
1, 541394, Control_c, 0, 64, 123
1, 541404, Note_on_c, 0, 78, 76
1, 541409, Control_c, 0, 64, 116
1, 541424, Control_c, 0, 64, 113
1, 541429, Note_on_c, 0, 58, 42
1, 541439, Control_c, 0, 64, 111
1, 541468, Control_c, 0, 64, 107
1, 541483, Control_c, 0, 64, 105
1, 541498, Note_off_c, 0, 77, 54
1, 541512, Control_c, 0, 64, 103
1, 541542, Control_c, 0, 64, 100
1, 541557, Control_c, 0, 64, 96
1, 541572, Control_c, 0, 64, 85
1, 541586, Control_c, 0, 64, 72
1, 541601, Control_c, 0, 64, 60
1, 541606, Note_off_c, 0, 53, 32
1, 541616, Control_c, 0, 64, 46
1, 541631, Control_c, 0, 64, 37
1, 541646, Control_c, 0, 64, 35
1, 541651, Note_on_c, 0, 77, 79
1, 541661, Control_c, 0, 64, 36
1, 541676, Control_c, 0, 64, 44
1, 541685, Note_on_c, 0, 61, 36
1, 541691, Control_c, 0, 64, 56
1, 541694, Note_on_c, 0, 68, 33
1, 541705, Control_c, 0, 64, 64
1, 541720, Control_c, 0, 64, 71
1, 541735, Control_c, 0, 64, 78
1, 541750, Control_c, 0, 64, 83
1, 541756, Note_off_c, 0, 78, 55
1, 541765, Control_c, 0, 64, 85
1, 541779, Control_c, 0, 64, 89
1, 541783, Note_off_c, 0, 68, 57
1, 541794, Control_c, 0, 64, 94
1, 541809, Control_c, 0, 64, 100
1, 541824, Control_c, 0, 64, 105
1, 541838, Control_c, 0, 64, 109
1, 541868, Control_c, 0, 64, 111
1, 541905, Note_on_c, 0, 80, 76
1, 541905, Note_on_c, 0, 53, 43
1, 541936, Note_off_c, 0, 53, 59
1, 541947, Note_off_c, 0, 58, 51
1, 541971, Note_off_c, 0, 77, 58
1, 541976, Note_off_c, 0, 61, 45
1, 542200, Note_on_c, 0, 77, 68
1, 542204, Note_on_c, 0, 61, 44
1, 542217, Control_c, 0, 64, 109
1, 542261, Control_c, 0, 64, 106
1, 542276, Control_c, 0, 64, 101
1, 542280, Note_off_c, 0, 80, 55
1, 542291, Control_c, 0, 64, 93
1, 542306, Control_c, 0, 64, 83
1, 542321, Control_c, 0, 64, 69
1, 542335, Control_c, 0, 64, 56
1, 542350, Control_c, 0, 64, 41
1, 542365, Control_c, 0, 64, 36
1, 542380, Control_c, 0, 64, 37
1, 542395, Control_c, 0, 64, 45
1, 542409, Control_c, 0, 64, 56
1, 542424, Control_c, 0, 64, 64
1, 542439, Control_c, 0, 64, 68
1, 542454, Control_c, 0, 64, 72
1, 542463, Note_on_c, 0, 75, 66
1, 542468, Note_on_c, 0, 63, 42
1, 542469, Note_on_c, 0, 68, 38
1, 542469, Control_c, 0, 64, 76
1, 542483, Control_c, 0, 64, 81
1, 542498, Control_c, 0, 64, 85
1, 542511, Note_off_c, 0, 68, 49
1, 542513, Control_c, 0, 64, 89
1, 542522, Note_off_c, 0, 63, 58
1, 542522, Note_off_c, 0, 61, 63
1, 542528, Control_c, 0, 64, 93
1, 542529, Note_off_c, 0, 77, 63
1, 542543, Control_c, 0, 64, 96
1, 542573, Control_c, 0, 64, 98
1, 542725, Note_on_c, 0, 78, 63
1, 542730, Note_on_c, 0, 51, 49
1, 542781, Note_off_c, 0, 75, 63
1, 542853, Control_c, 0, 64, 96
1, 542868, Control_c, 0, 64, 95
1, 542891, Control_c, 0, 64, 94
1, 542907, Control_c, 0, 64, 94
1, 542922, Control_c, 0, 64, 93
1, 542937, Control_c, 0, 64, 92
1, 542951, Control_c, 0, 64, 91
1, 542966, Control_c, 0, 64, 90
1, 542981, Control_c, 0, 64, 89
1, 542996, Control_c, 0, 64, 88
1, 543011, Control_c, 0, 64, 88
1, 543026, Control_c, 0, 64, 87
1, 543040, Control_c, 0, 64, 87
1, 543055, Control_c, 0, 64, 86
1, 543065, Note_on_c, 0, 75, 58
1, 543068, Note_on_c, 0, 59, 37
1, 543070, Control_c, 0, 64, 85
1, 543084, Control_c, 0, 64, 84
1, 543099, Control_c, 0, 64, 81
1, 543114, Control_c, 0, 64, 75
1, 543129, Control_c, 0, 64, 66
1, 543142, Note_off_c, 0, 51, 37
1, 543143, Note_off_c, 0, 78, 52
1, 543144, Control_c, 0, 64, 57
1, 543158, Control_c, 0, 64, 49
1, 543173, Control_c, 0, 64, 41
1, 543188, Control_c, 0, 64, 37
1, 543218, Control_c, 0, 64, 40
1, 543232, Control_c, 0, 64, 49
1, 543247, Control_c, 0, 64, 59
1, 543262, Control_c, 0, 64, 64
1, 543276, Control_c, 0, 64, 67
1, 543291, Control_c, 0, 64, 69
1, 543306, Control_c, 0, 64, 73
1, 543321, Control_c, 0, 64, 77
1, 543336, Control_c, 0, 64, 81
1, 543351, Control_c, 0, 64, 86
1, 543366, Control_c, 0, 64, 89
1, 543369, Note_on_c, 0, 63, 43
1, 543373, Note_on_c, 0, 66, 41
1, 543381, Control_c, 0, 64, 91
1, 543396, Control_c, 0, 64, 93
1, 543411, Control_c, 0, 64, 95
1, 543425, Control_c, 0, 64, 97
1, 543440, Control_c, 0, 64, 100
1, 543446, Note_off_c, 0, 66, 53
1, 543470, Control_c, 0, 64, 102
1, 543479, Note_off_c, 0, 63, 38
1, 543641, Note_on_c, 0, 51, 42
1, 543698, Note_off_c, 0, 59, 42
1, 543759, Control_c, 0, 64, 99
1, 543789, Control_c, 0, 64, 97
1, 543819, Control_c, 0, 64, 96
1, 543834, Control_c, 0, 64, 95
1, 543849, Control_c, 0, 64, 94
1, 543863, Control_c, 0, 64, 93
1, 543878, Control_c, 0, 64, 92
1, 543893, Control_c, 0, 64, 92
1, 543907, Control_c, 0, 64, 91
1, 543922, Control_c, 0, 64, 91
1, 543937, Control_c, 0, 64, 90
1, 543952, Control_c, 0, 64, 89
1, 543961, Note_on_c, 0, 58, 44
1, 543967, Control_c, 0, 64, 89
1, 543981, Control_c, 0, 64, 88
1, 543996, Control_c, 0, 64, 88
1, 544026, Control_c, 0, 64, 86
1, 544037, Note_off_c, 0, 51, 52
1, 544041, Control_c, 0, 64, 83
1, 544055, Control_c, 0, 64, 77
1, 544070, Control_c, 0, 64, 69
1, 544085, Control_c, 0, 64, 60
1, 544099, Control_c, 0, 64, 54
1, 544114, Control_c, 0, 64, 52
1, 544129, Control_c, 0, 64, 53
1, 544144, Control_c, 0, 64, 56
1, 544159, Control_c, 0, 64, 60
1, 544174, Control_c, 0, 64, 64
1, 544189, Control_c, 0, 64, 67
1, 544203, Control_c, 0, 64, 69
1, 544218, Control_c, 0, 64, 73
1, 544233, Control_c, 0, 64, 77
1, 544248, Control_c, 0, 64, 80
1, 544263, Control_c, 0, 64, 82
1, 544278, Control_c, 0, 64, 84
1, 544293, Control_c, 0, 64, 86
1, 544307, Control_c, 0, 64, 88
1, 544312, Note_on_c, 0, 73, 48
1, 544321, Note_on_c, 0, 66, 36
1, 544322, Control_c, 0, 64, 91
1, 544329, Note_on_c, 0, 61, 32
1, 544337, Control_c, 0, 64, 94
1, 544352, Control_c, 0, 64, 95
1, 544367, Control_c, 0, 64, 96
1, 544371, Note_off_c, 0, 75, 57
1, 544433, Control_c, 0, 64, 98
1, 544451, Note_off_c, 0, 66, 44
1, 544707, Note_on_c, 0, 75, 52
1, 544725, Note_on_c, 0, 51, 40
1, 544788, Note_off_c, 0, 73, 37
1, 544794, Note_off_c, 0, 58, 37
1, 544830, Note_off_c, 0, 61, 13
1, 544841, Note_off_c, 0, 75, 50
1, 544853, Note_off_c, 0, 51, 35
1, 545071, Control_c, 0, 64, 96
1, 545086, Control_c, 0, 64, 95
1, 545101, Control_c, 0, 64, 94
1, 545116, Control_c, 0, 64, 94
1, 545137, Control_c, 0, 64, 93
1, 545152, Control_c, 0, 64, 92
1, 545167, Control_c, 0, 64, 92
1, 545175, Note_on_c, 0, 75, 55
1, 545182, Control_c, 0, 64, 91
1, 545194, Note_on_c, 0, 58, 40
1, 545197, Control_c, 0, 64, 91
1, 545211, Control_c, 0, 64, 90
1, 545226, Control_c, 0, 64, 89
1, 545241, Control_c, 0, 64, 88
1, 545256, Control_c, 0, 64, 87
1, 545271, Control_c, 0, 64, 81
1, 545286, Control_c, 0, 64, 71
1, 545301, Control_c, 0, 64, 60
1, 545316, Control_c, 0, 64, 49
1, 545331, Control_c, 0, 64, 46
1, 545346, Control_c, 0, 64, 48
1, 545360, Control_c, 0, 64, 53
1, 545375, Control_c, 0, 64, 61
1, 545390, Control_c, 0, 64, 67
1, 545405, Control_c, 0, 64, 73
1, 545420, Control_c, 0, 64, 78
1, 545435, Control_c, 0, 64, 80
1, 545449, Control_c, 0, 64, 81
1, 545464, Control_c, 0, 64, 83
1, 545479, Control_c, 0, 64, 86
1, 545494, Control_c, 0, 64, 90
1, 545509, Control_c, 0, 64, 94
1, 545514, Note_on_c, 0, 73, 58
1, 545524, Control_c, 0, 64, 97
1, 545528, Note_on_c, 0, 66, 50
1, 545539, Control_c, 0, 64, 99
1, 545545, Note_on_c, 0, 61, 30
1, 545553, Note_off_c, 0, 66, 59
1, 545553, Control_c, 0, 64, 102
1, 545568, Note_off_c, 0, 75, 54
1, 545568, Control_c, 0, 64, 105
1, 545581, Note_off_c, 0, 61, 49
1, 545583, Control_c, 0, 64, 108
1, 545606, Note_off_c, 0, 58, 58
1, 545613, Control_c, 0, 64, 110
1, 545812, Note_on_c, 0, 77, 50
1, 545816, Note_on_c, 0, 49, 46
1, 545860, Note_off_c, 0, 73, 50
1, 546040, Note_off_c, 0, 49, 38
1, 546049, Control_c, 0, 64, 108
1, 546124, Control_c, 0, 64, 106
1, 546169, Control_c, 0, 64, 104
1, 546198, Control_c, 0, 64, 102
1, 546221, Note_on_c, 0, 73, 50
1, 546222, Note_on_c, 0, 57, 38
1, 546227, Note_off_c, 0, 77, 53
1, 546228, Control_c, 0, 64, 99
1, 546243, Control_c, 0, 64, 97
1, 546257, Control_c, 0, 64, 95
1, 546272, Control_c, 0, 64, 94
1, 546287, Control_c, 0, 64, 92
1, 546302, Control_c, 0, 64, 91
1, 546317, Control_c, 0, 64, 88
1, 546332, Control_c, 0, 64, 84
1, 546347, Control_c, 0, 64, 76
1, 546362, Control_c, 0, 64, 64
1, 546376, Control_c, 0, 64, 55
1, 546391, Control_c, 0, 64, 48
1, 546406, Control_c, 0, 64, 44
1, 546420, Control_c, 0, 64, 41
1, 546435, Control_c, 0, 64, 40
1, 546480, Control_c, 0, 64, 40
1, 546524, Control_c, 0, 64, 40
1, 546554, Control_c, 0, 64, 39
1, 546583, Control_c, 0, 64, 38
1, 546598, Control_c, 0, 64, 37
1, 546613, Control_c, 0, 64, 35
1, 546620, Note_on_c, 0, 75, 55
1, 546642, Note_on_c, 0, 65, 34
1, 546650, Control_c, 0, 64, 37
1, 546655, Note_on_c, 0, 60, 30
1, 546665, Control_c, 0, 64, 42
1, 546680, Control_c, 0, 64, 51
1, 546695, Control_c, 0, 64, 56
1, 546696, Note_off_c, 0, 73, 37
1, 546709, Control_c, 0, 64, 58
1, 546724, Control_c, 0, 64, 61
1, 546739, Control_c, 0, 64, 66
1, 546754, Control_c, 0, 64, 73
1, 546769, Control_c, 0, 64, 80
1, 546783, Control_c, 0, 64, 86
1, 546798, Control_c, 0, 64, 92
1, 546813, Control_c, 0, 64, 99
1, 546824, Note_off_c, 0, 65, 41
1, 546827, Control_c, 0, 64, 113
1, 546842, Control_c, 0, 64, 127
1, 546930, Note_off_c, 0, 60, 36
1, 546943, Note_on_c, 0, 49, 37
1, 546999, Note_off_c, 0, 57, 41
1, 547234, Note_on_c, 0, 56, 40
1, 547289, Control_c, 0, 64, 119
1, 547304, Control_c, 0, 64, 92
1, 547318, Control_c, 0, 64, 78
1, 547327, Note_off_c, 0, 49, 37
1, 547333, Control_c, 0, 64, 68
1, 547348, Control_c, 0, 64, 60
1, 547363, Control_c, 0, 64, 58
1, 547385, Control_c, 0, 64, 60
1, 547399, Control_c, 0, 64, 64
1, 547414, Control_c, 0, 64, 71
1, 547429, Control_c, 0, 64, 79
1, 547444, Control_c, 0, 64, 86
1, 547459, Control_c, 0, 64, 89
1, 547474, Control_c, 0, 64, 92
1, 547488, Control_c, 0, 64, 97
1, 547503, Control_c, 0, 64, 104
1, 547518, Control_c, 0, 64, 113
1, 547533, Control_c, 0, 64, 127
1, 547595, Note_on_c, 0, 74, 49
1, 547620, Note_on_c, 0, 66, 30
1, 547623, Note_on_c, 0, 59, 28
1, 547722, Note_off_c, 0, 66, 55
1, 547764, Note_on_c, 0, 76, 50
1, 547778, Note_off_c, 0, 74, 37
1, 547805, Note_off_c, 0, 75, 26
1, 547915, Note_off_c, 0, 76, 51
1, 547915, Note_on_c, 0, 74, 45
1, 547924, Note_on_c, 0, 49, 42
1, 547947, Control_c, 0, 67, 123
1, 547962, Control_c, 0, 67, 118
1, 547966, Note_off_c, 0, 49, 58
1, 547977, Control_c, 0, 67, 112
1, 547986, Note_off_c, 0, 56, 56
1, 547992, Control_c, 0, 67, 106
1, 548007, Control_c, 0, 67, 104
1, 548011, Note_off_c, 0, 59, 34
1, 548019, Note_off_c, 0, 74, 60
1, 548037, Control_c, 0, 67, 102
1, 548049, Note_on_c, 0, 76, 55
1, 548126, Note_off_c, 0, 76, 62
1, 548339, Note_on_c, 0, 75, 72
1, 548341, Note_on_c, 0, 58, 47
1, 548341, Control_c, 0, 67, 104
1, 548414, Control_c, 0, 67, 106
1, 548444, Control_c, 0, 67, 108
1, 548488, Control_c, 0, 67, 112
1, 548519, Control_c, 0, 64, 120
1, 548534, Control_c, 0, 64, 93
1, 548549, Control_c, 0, 64, 76
1, 548549, Control_c, 0, 67, 114
1, 548564, Control_c, 0, 64, 62
1, 548564, Control_c, 0, 67, 118
1, 548578, Control_c, 0, 64, 52
1, 548578, Control_c, 0, 67, 121
1, 548593, Control_c, 0, 64, 49
1, 548608, Control_c, 0, 64, 50
1, 548608, Control_c, 0, 67, 119
1, 548622, Control_c, 0, 64, 53
1, 548637, Control_c, 0, 64, 60
1, 548652, Control_c, 0, 64, 67
1, 548652, Control_c, 0, 67, 121
1, 548653, Note_on_c, 0, 73, 78
1, 548666, Note_on_c, 0, 61, 42
1, 548667, Control_c, 0, 64, 80
1, 548672, Note_on_c, 0, 66, 46
1, 548682, Control_c, 0, 64, 99
1, 548696, Control_c, 0, 64, 110
1, 548711, Control_c, 0, 64, 113
1, 548726, Control_c, 0, 64, 120
1, 548726, Control_c, 0, 67, 123
1, 548741, Control_c, 0, 64, 127
1, 548752, Note_off_c, 0, 66, 56
1, 548784, Note_off_c, 0, 61, 51
1, 548800, Control_c, 0, 67, 126
1, 548830, Note_off_c, 0, 58, 61
1, 548858, Note_off_c, 0, 75, 51
1, 548913, Note_on_c, 0, 77, 75
1, 548928, Note_on_c, 0, 49, 42
1, 548970, Note_off_c, 0, 73, 62
1, 548978, Note_off_c, 0, 49, 55
1, 549268, Note_on_c, 0, 57, 38
1, 549271, Note_on_c, 0, 73, 56
1, 549326, Control_c, 0, 64, 123
1, 549341, Control_c, 0, 64, 116
1, 549345, Note_off_c, 0, 77, 62
1, 549356, Control_c, 0, 64, 110
1, 549371, Control_c, 0, 64, 102
1, 549386, Control_c, 0, 64, 92
1, 549400, Control_c, 0, 64, 82
1, 549415, Control_c, 0, 64, 72
1, 549430, Control_c, 0, 64, 61
1, 549444, Control_c, 0, 64, 55
1, 549459, Control_c, 0, 64, 52
1, 549474, Control_c, 0, 64, 51
1, 549533, Control_c, 0, 64, 50
1, 549548, Control_c, 0, 64, 50
1, 549563, Control_c, 0, 64, 50
1, 549578, Control_c, 0, 64, 51
1, 549593, Control_c, 0, 64, 53
1, 549608, Control_c, 0, 64, 55
1, 549630, Control_c, 0, 64, 56
1, 549645, Control_c, 0, 64, 59
1, 549659, Note_on_c, 0, 75, 61
1, 549659, Control_c, 0, 64, 62
1, 549672, Note_on_c, 0, 60, 33
1, 549674, Control_c, 0, 64, 66
1, 549676, Note_on_c, 0, 65, 39
1, 549689, Control_c, 0, 64, 72
1, 549704, Control_c, 0, 64, 79
1, 549718, Control_c, 0, 64, 82
1, 549733, Control_c, 0, 64, 83
1, 549748, Control_c, 0, 64, 84
1, 549763, Control_c, 0, 64, 86
1, 549772, Note_off_c, 0, 73, 47
1, 549778, Control_c, 0, 64, 88
1, 549786, Note_off_c, 0, 65, 44
1, 549793, Control_c, 0, 64, 91
1, 549808, Control_c, 0, 64, 94
1, 549822, Control_c, 0, 64, 96
1, 549837, Control_c, 0, 64, 99
1, 549867, Control_c, 0, 64, 102
1, 549893, Note_off_c, 0, 60, 37
1, 550001, Note_on_c, 0, 49, 42
1, 550067, Note_off_c, 0, 57, 41
1, 550312, Control_c, 0, 64, 100
1, 550327, Control_c, 0, 64, 91
1, 550341, Control_c, 0, 64, 75
1, 550350, Note_on_c, 0, 56, 42
1, 550356, Control_c, 0, 64, 63
1, 550379, Control_c, 0, 64, 54
1, 550408, Control_c, 0, 64, 58
1, 550423, Control_c, 0, 64, 63
1, 550438, Note_off_c, 0, 49, 52
1, 550438, Control_c, 0, 64, 69
1, 550453, Control_c, 0, 64, 76
1, 550468, Control_c, 0, 64, 80
1, 550482, Control_c, 0, 64, 83
1, 550497, Control_c, 0, 64, 86
1, 550512, Control_c, 0, 64, 91
1, 550527, Control_c, 0, 64, 97
1, 550542, Control_c, 0, 64, 104
1, 550556, Control_c, 0, 64, 111
1, 550571, Control_c, 0, 64, 120
1, 550586, Control_c, 0, 64, 127
1, 550667, Note_on_c, 0, 74, 51
1, 550684, Note_on_c, 0, 59, 44
1, 550690, Note_on_c, 0, 66, 45
1, 550779, Note_off_c, 0, 66, 43
1, 550821, Note_on_c, 0, 76, 56
1, 550863, Note_off_c, 0, 74, 35
1, 550884, Note_off_c, 0, 75, 51
1, 550967, Note_on_c, 0, 74, 61
1, 550972, Note_off_c, 0, 76, 56
1, 550989, Note_on_c, 0, 49, 45
1, 551027, Note_off_c, 0, 49, 50
1, 551037, Note_off_c, 0, 56, 46
1, 551057, Note_off_c, 0, 59, 23
1, 551119, Note_on_c, 0, 76, 65
1, 551158, Note_off_c, 0, 74, 57
1, 551364, Note_on_c, 0, 75, 72
1, 551370, Note_on_c, 0, 57, 37
1, 551395, Note_off_c, 0, 76, 58
1, 551528, Control_c, 0, 64, 90
1, 551542, Control_c, 0, 64, 69
1, 551557, Control_c, 0, 64, 48
1, 551572, Control_c, 0, 64, 0
1, 551646, Control_c, 0, 64, 42
1, 551653, Note_on_c, 0, 60, 37
1, 551661, Control_c, 0, 64, 56
1, 551666, Note_on_c, 0, 65, 41
1, 551676, Control_c, 0, 64, 65
1, 551692, Control_c, 0, 64, 71
1, 551706, Control_c, 0, 64, 78
1, 551721, Control_c, 0, 64, 85
1, 551736, Control_c, 0, 64, 92
1, 551748, Note_off_c, 0, 65, 53
1, 551751, Control_c, 0, 64, 101
1, 551766, Control_c, 0, 64, 113
1, 551781, Control_c, 0, 64, 127
1, 551900, Note_off_c, 0, 60, 32
1, 551906, Note_on_c, 0, 49, 54
1, 551977, Note_off_c, 0, 57, 36
1, 552138, Note_on_c, 0, 56, 60
1, 552202, Control_c, 0, 64, 94
1, 552217, Control_c, 0, 64, 76
1, 552232, Note_off_c, 0, 49, 54
1, 552232, Control_c, 0, 64, 65
1, 552246, Control_c, 0, 64, 62
1, 552261, Control_c, 0, 64, 65
1, 552276, Control_c, 0, 64, 72
1, 552291, Control_c, 0, 64, 86
1, 552306, Control_c, 0, 64, 101
1, 552320, Control_c, 0, 64, 110
1, 552335, Control_c, 0, 64, 123
1, 552350, Control_c, 0, 64, 127
1, 552375, Note_on_c, 0, 74, 72
1, 552401, Note_on_c, 0, 65, 52
1, 552410, Note_on_c, 0, 59, 49
1, 552480, Note_off_c, 0, 65, 46
1, 552512, Note_on_c, 0, 76, 74
1, 552543, Note_off_c, 0, 74, 59
1, 552544, Control_c, 0, 67, 121
1, 552559, Control_c, 0, 67, 109
1, 552574, Control_c, 0, 67, 102
1, 552581, Note_off_c, 0, 75, 53
1, 552588, Control_c, 0, 67, 98
1, 552603, Control_c, 0, 67, 90
1, 552625, Control_c, 0, 67, 81
1, 552640, Control_c, 0, 67, 79
1, 552657, Note_on_c, 0, 74, 82
1, 552663, Note_on_c, 0, 49, 53
1, 552669, Control_c, 0, 67, 78
1, 552684, Control_c, 0, 67, 77
1, 552685, Note_off_c, 0, 76, 61
1, 552699, Control_c, 0, 67, 76
1, 552706, Note_off_c, 0, 56, 61
1, 552709, Note_off_c, 0, 49, 58
1, 552743, Note_off_c, 0, 59, 38
1, 552744, Control_c, 0, 67, 75
1, 552788, Control_c, 0, 67, 77
1, 552789, Note_on_c, 0, 76, 84
1, 552803, Control_c, 0, 67, 79
1, 552855, Note_off_c, 0, 74, 60
1, 552877, Control_c, 0, 67, 81
1, 552936, Control_c, 0, 67, 81
1, 552951, Control_c, 0, 67, 84
1, 553019, Note_on_c, 0, 75, 89
1, 553025, Control_c, 0, 67, 86
1, 553029, Note_on_c, 0, 58, 48
1, 553069, Control_c, 0, 67, 85
1, 553099, Control_c, 0, 67, 87
1, 553100, Note_off_c, 0, 76, 59
1, 553158, Control_c, 0, 67, 88
1, 553173, Control_c, 0, 67, 92
1, 553218, Control_c, 0, 64, 105
1, 553218, Control_c, 0, 67, 92
1, 553233, Control_c, 0, 64, 92
1, 553233, Control_c, 0, 67, 94
1, 553248, Control_c, 0, 64, 81
1, 553248, Control_c, 0, 67, 98
1, 553262, Control_c, 0, 64, 71
1, 553277, Control_c, 0, 64, 61
1, 553292, Control_c, 0, 64, 52
1, 553292, Control_c, 0, 67, 100
1, 553307, Control_c, 0, 64, 39
1, 553322, Control_c, 0, 64, 0
1, 553322, Control_c, 0, 67, 104
1, 553374, Control_c, 0, 64, 36
1, 553378, Note_on_c, 0, 61, 47
1, 553379, Note_on_c, 0, 66, 54
1, 553389, Control_c, 0, 64, 53
1, 553389, Control_c, 0, 67, 107
1, 553404, Control_c, 0, 64, 66
1, 553404, Control_c, 0, 67, 115
1, 553418, Control_c, 0, 64, 77
1, 553418, Control_c, 0, 67, 127
1, 553433, Control_c, 0, 64, 84
1, 553448, Control_c, 0, 64, 89
1, 553463, Control_c, 0, 64, 95
1, 553470, Note_off_c, 0, 66, 62
1, 553478, Control_c, 0, 64, 108
1, 553492, Control_c, 0, 64, 127
1, 553503, Note_off_c, 0, 61, 56
1, 553569, Note_off_c, 0, 58, 59
1, 553620, Note_on_c, 0, 49, 50
1, 553714, Note_off_c, 0, 49, 58
1, 553894, Note_on_c, 0, 57, 56
1, 554087, Control_c, 0, 64, 102
1, 554102, Control_c, 0, 64, 82
1, 554124, Control_c, 0, 64, 64
1, 554139, Control_c, 0, 64, 51
1, 554154, Control_c, 0, 64, 45
1, 554168, Note_on_c, 0, 76, 78
1, 554169, Control_c, 0, 64, 46
1, 554184, Control_c, 0, 64, 54
1, 554198, Control_c, 0, 64, 62
1, 554210, Note_on_c, 0, 67, 46
1, 554213, Control_c, 0, 64, 70
1, 554213, Note_on_c, 0, 60, 46
1, 554228, Control_c, 0, 64, 80
1, 554242, Control_c, 0, 64, 91
1, 554257, Control_c, 0, 64, 100
1, 554271, Note_off_c, 0, 75, 53
1, 554272, Control_c, 0, 64, 112
1, 554278, Note_off_c, 0, 67, 55
1, 554287, Control_c, 0, 64, 127
1, 554340, Note_off_c, 0, 60, 56
1, 554361, Control_c, 0, 67, 115
1, 554376, Control_c, 0, 67, 97
1, 554390, Control_c, 0, 67, 80
1, 554405, Control_c, 0, 67, 67
1, 554420, Control_c, 0, 67, 56
1, 554434, Control_c, 0, 67, 43
1, 554449, Control_c, 0, 67, 0
1, 554464, Note_on_c, 0, 77, 88
1, 554490, Note_on_c, 0, 49, 50
1, 554524, Note_off_c, 0, 57, 57
1, 554539, Note_off_c, 0, 76, 55
1, 554542, Note_off_c, 0, 49, 62
1, 554890, Note_on_c, 0, 75, 83
1, 554918, Note_on_c, 0, 58, 50
1, 554976, Note_off_c, 0, 77, 62
1, 555050, Control_c, 0, 64, 114
1, 555064, Control_c, 0, 64, 93
1, 555079, Control_c, 0, 64, 75
1, 555079, Control_c, 0, 67, 52
1, 555094, Control_c, 0, 64, 60
1, 555094, Control_c, 0, 67, 67
1, 555109, Control_c, 0, 64, 43
1, 555109, Control_c, 0, 67, 67
1, 555124, Control_c, 0, 64, 0
1, 555124, Control_c, 0, 67, 68
1, 555138, Control_c, 0, 67, 70
1, 555153, Control_c, 0, 67, 75
1, 555168, Control_c, 0, 64, 31
1, 555168, Control_c, 0, 67, 89
1, 555183, Control_c, 0, 64, 47
1, 555183, Control_c, 0, 67, 91
1, 555197, Control_c, 0, 64, 62
1, 555197, Control_c, 0, 67, 90
1, 555207, Note_on_c, 0, 66, 38
1, 555210, Note_on_c, 0, 61, 32
1, 555212, Control_c, 0, 64, 72
1, 555227, Control_c, 0, 64, 83
1, 555227, Control_c, 0, 67, 92
1, 555242, Control_c, 0, 64, 95
1, 555242, Control_c, 0, 67, 96
1, 555257, Control_c, 0, 64, 101
1, 555257, Control_c, 0, 67, 102
1, 555272, Control_c, 0, 64, 108
1, 555272, Control_c, 0, 67, 105
1, 555273, Note_off_c, 0, 66, 63
1, 555286, Control_c, 0, 64, 123
1, 555293, Note_off_c, 0, 61, 60
1, 555301, Control_c, 0, 64, 127
1, 555316, Control_c, 0, 67, 110
1, 555331, Control_c, 0, 67, 118
1, 555346, Control_c, 0, 67, 122
1, 555377, Note_off_c, 0, 58, 58
1, 555390, Control_c, 0, 67, 125
1, 555433, Note_on_c, 0, 49, 49
1, 555464, Control_c, 0, 67, 127
1, 555620, Note_off_c, 0, 49, 38
1, 555681, Note_on_c, 0, 57, 55
1, 555799, Control_c, 0, 64, 93
1, 555813, Control_c, 0, 64, 73
1, 555828, Control_c, 0, 64, 57
1, 555843, Control_c, 0, 64, 36
1, 555858, Control_c, 0, 64, 0
1, 555902, Control_c, 0, 64, 36
1, 555917, Control_c, 0, 64, 48
1, 555932, Control_c, 0, 64, 59
1, 555947, Control_c, 0, 64, 67
1, 555961, Control_c, 0, 64, 77
1, 555963, Note_on_c, 0, 76, 76
1, 555976, Control_c, 0, 64, 88
1, 555991, Control_c, 0, 64, 96
1, 556001, Note_on_c, 0, 60, 34
1, 556001, Note_on_c, 0, 67, 32
1, 556006, Control_c, 0, 64, 105
1, 556020, Control_c, 0, 64, 127
1, 556046, Note_off_c, 0, 67, 48
1, 556085, Note_off_c, 0, 75, 59
1, 556139, Control_c, 0, 67, 122
1, 556141, Note_off_c, 0, 60, 35
1, 556154, Control_c, 0, 67, 107
1, 556169, Control_c, 0, 67, 99
1, 556184, Control_c, 0, 67, 94
1, 556199, Control_c, 0, 67, 89
1, 556213, Control_c, 0, 67, 81
1, 556228, Control_c, 0, 67, 74
1, 556243, Control_c, 0, 67, 68
1, 556251, Note_on_c, 0, 77, 81
1, 556258, Control_c, 0, 67, 61
1, 556273, Control_c, 0, 67, 56
1, 556275, Note_on_c, 0, 49, 40
1, 556280, Note_off_c, 0, 57, 37
1, 556287, Control_c, 0, 67, 51
1, 556302, Control_c, 0, 67, 50
1, 556308, Note_off_c, 0, 49, 55
1, 556317, Control_c, 0, 67, 49
1, 556363, Note_off_c, 0, 76, 53
1, 556369, Control_c, 0, 67, 50
1, 556383, Control_c, 0, 67, 50
1, 556398, Control_c, 0, 67, 51
1, 556413, Control_c, 0, 67, 51
1, 556428, Control_c, 0, 67, 54
1, 556443, Control_c, 0, 67, 55
1, 556458, Control_c, 0, 67, 57
1, 556473, Control_c, 0, 67, 58
1, 556488, Control_c, 0, 67, 59
1, 556503, Control_c, 0, 67, 60
1, 556518, Control_c, 0, 67, 62
1, 556532, Control_c, 0, 67, 64
1, 556547, Control_c, 0, 67, 65
1, 556562, Control_c, 0, 67, 65
1, 556577, Control_c, 0, 67, 66
1, 556592, Control_c, 0, 67, 68
1, 556601, Note_on_c, 0, 76, 70
1, 556607, Control_c, 0, 67, 72
1, 556620, Note_on_c, 0, 58, 48
1, 556622, Control_c, 0, 67, 72
1, 556651, Control_c, 0, 67, 74
1, 556659, Note_off_c, 0, 77, 62
1, 556666, Control_c, 0, 67, 78
1, 556682, Control_c, 0, 67, 85
1, 556696, Control_c, 0, 67, 90
1, 556711, Control_c, 0, 64, 92
1, 556726, Control_c, 0, 64, 71
1, 556726, Control_c, 0, 67, 91
1, 556741, Control_c, 0, 64, 54
1, 556741, Control_c, 0, 67, 94
1, 556756, Control_c, 0, 64, 36
1, 556756, Control_c, 0, 67, 104
1, 556770, Control_c, 0, 64, 30
1, 556770, Control_c, 0, 67, 115
1, 556785, Control_c, 0, 64, 34
1, 556800, Control_c, 0, 64, 45
1, 556815, Control_c, 0, 64, 58
1, 556830, Control_c, 0, 64, 67
1, 556830, Control_c, 0, 67, 118
1, 556844, Control_c, 0, 64, 74
1, 556859, Control_c, 0, 64, 78
1, 556874, Control_c, 0, 64, 78
1, 556889, Control_c, 0, 64, 79
1, 556904, Control_c, 0, 64, 82
1, 556918, Control_c, 0, 64, 90
1, 556918, Control_c, 0, 67, 120
1, 556924, Note_on_c, 0, 68, 38
1, 556925, Note_on_c, 0, 77, 68
1, 556933, Control_c, 0, 64, 101
1, 556944, Note_on_c, 0, 61, 41
1, 556948, Control_c, 0, 64, 112
1, 556962, Control_c, 0, 64, 123
1, 556977, Control_c, 0, 64, 127
1, 556977, Control_c, 0, 67, 125
1, 556986, Note_off_c, 0, 68, 58
1, 556992, Control_c, 0, 67, 127
1, 557034, Note_off_c, 0, 61, 54
1, 557114, Note_off_c, 0, 76, 39
1, 557173, Note_off_c, 0, 58, 27
1, 557304, Note_on_c, 0, 78, 73
1, 557347, Note_on_c, 0, 49, 45
1, 557379, Note_off_c, 0, 49, 60
1, 557380, Note_off_c, 0, 77, 62
1, 557778, Note_on_c, 0, 77, 60
1, 557793, Note_on_c, 0, 59, 42
1, 557869, Note_off_c, 0, 78, 54
1, 557941, Control_c, 0, 64, 121
1, 557956, Control_c, 0, 64, 113
1, 557971, Control_c, 0, 64, 106
1, 557985, Control_c, 0, 64, 97
1, 558000, Control_c, 0, 64, 85
1, 558015, Control_c, 0, 64, 73
1, 558030, Control_c, 0, 64, 60
1, 558045, Control_c, 0, 64, 46
1, 558059, Control_c, 0, 64, 38
1, 558074, Control_c, 0, 64, 37
1, 558090, Control_c, 0, 64, 39
1, 558105, Control_c, 0, 64, 49
1, 558120, Control_c, 0, 64, 58
1, 558135, Control_c, 0, 64, 64
1, 558150, Control_c, 0, 64, 68
1, 558164, Control_c, 0, 64, 73
1, 558178, Control_c, 0, 64, 77
1, 558193, Control_c, 0, 64, 80
1, 558208, Control_c, 0, 64, 82
1, 558223, Control_c, 0, 64, 86
1, 558238, Control_c, 0, 64, 89
1, 558252, Control_c, 0, 64, 91
1, 558267, Control_c, 0, 64, 95
1, 558279, Note_on_c, 0, 69, 32
1, 558282, Control_c, 0, 64, 99
1, 558285, Note_on_c, 0, 62, 36
1, 558297, Control_c, 0, 64, 102
1, 558312, Control_c, 0, 64, 106
1, 558327, Control_c, 0, 64, 109
1, 558342, Control_c, 0, 64, 111
1, 558371, Control_c, 0, 64, 113
1, 558400, Control_c, 0, 64, 116
1, 558417, Note_off_c, 0, 69, 36
1, 558454, Note_off_c, 0, 62, 50
1, 558460, Control_c, 0, 64, 118
1, 558464, Note_off_c, 0, 59, 62
1, 558544, Note_on_c, 0, 78, 56
1, 558631, Note_off_c, 0, 77, 45
1, 558850, Note_on_c, 0, 79, 47
1, 558852, Control_c, 0, 64, 116
1, 558868, Note_on_c, 0, 60, 29
1, 558883, Control_c, 0, 64, 113
1, 558887, Note_on_c, 0, 49, 25
1, 558899, Note_off_c, 0, 78, 49
1, 558912, Control_c, 0, 64, 106
1, 558927, Control_c, 0, 64, 94
1, 558942, Control_c, 0, 64, 78
1, 558956, Control_c, 0, 64, 62
1, 558971, Control_c, 0, 64, 48
1, 558986, Control_c, 0, 64, 43
1, 559001, Control_c, 0, 64, 44
1, 559016, Control_c, 0, 64, 51
1, 559030, Control_c, 0, 64, 62
1, 559045, Control_c, 0, 64, 68
1, 559060, Control_c, 0, 64, 74
1, 559075, Control_c, 0, 64, 78
1, 559090, Control_c, 0, 64, 81
1, 559105, Control_c, 0, 64, 85
1, 559120, Control_c, 0, 64, 90
1, 559135, Control_c, 0, 64, 95
1, 559149, Control_c, 0, 64, 98
1, 559162, Note_on_c, 0, 80, 51
1, 559164, Control_c, 0, 64, 102
1, 559177, Note_off_c, 0, 49, 40
1, 559179, Control_c, 0, 64, 106
1, 559194, Control_c, 0, 64, 109
1, 559209, Control_c, 0, 64, 111
1, 559218, Note_off_c, 0, 79, 53
1, 559238, Control_c, 0, 64, 114
1, 559252, Note_off_c, 0, 60, 42
1, 559606, Note_on_c, 0, 77, 49
1, 559640, Note_on_c, 0, 61, 36
1, 559649, Note_off_c, 0, 80, 34
1, 559676, Control_c, 0, 64, 112
1, 559692, Control_c, 0, 64, 109
1, 559707, Control_c, 0, 64, 101
1, 559722, Control_c, 0, 64, 90
1, 559736, Control_c, 0, 64, 74
1, 559751, Control_c, 0, 64, 62
1, 559766, Control_c, 0, 64, 49
1, 559780, Control_c, 0, 64, 42
1, 559810, Control_c, 0, 64, 45
1, 559825, Control_c, 0, 64, 54
1, 559840, Control_c, 0, 64, 64
1, 559854, Control_c, 0, 64, 68
1, 559869, Control_c, 0, 64, 72
1, 559884, Control_c, 0, 64, 77
1, 559899, Control_c, 0, 64, 81
1, 559914, Control_c, 0, 64, 87
1, 559928, Control_c, 0, 64, 94
1, 559943, Control_c, 0, 64, 104
1, 559958, Control_c, 0, 64, 111
1, 559972, Note_off_c, 0, 77, 60
1, 559972, Control_c, 0, 64, 127
1, 560336, Note_on_c, 0, 73, 44
1, 560342, Note_on_c, 0, 65, 27
1, 560351, Note_on_c, 0, 68, 21
1, 560742, Note_on_c, 0, 56, 30
1, 560879, Note_off_c, 0, 61, 38
1, 561007, Note_off_c, 0, 65, 27
1, 561103, Note_on_c, 0, 60, 39
1, 561180, Note_off_c, 0, 68, 34
1, 561203, Control_c, 0, 64, 111
1, 561218, Control_c, 0, 64, 95
1, 561233, Control_c, 0, 64, 81
1, 561245, Note_off_c, 0, 56, 38
1, 561248, Control_c, 0, 64, 68
1, 561263, Control_c, 0, 64, 56
1, 561278, Control_c, 0, 64, 52
1, 561293, Control_c, 0, 64, 53
1, 561308, Control_c, 0, 64, 57
1, 561323, Control_c, 0, 64, 62
1, 561338, Control_c, 0, 64, 67
1, 561352, Control_c, 0, 64, 71
1, 561367, Control_c, 0, 64, 77
1, 561382, Control_c, 0, 64, 79
1, 561397, Control_c, 0, 64, 82
1, 561412, Control_c, 0, 64, 86
1, 561426, Control_c, 0, 64, 91
1, 561441, Control_c, 0, 64, 96
1, 561456, Control_c, 0, 64, 101
1, 561469, Note_on_c, 0, 68, 37
1, 561471, Control_c, 0, 64, 107
1, 561484, Note_on_c, 0, 65, 24
1, 561486, Control_c, 0, 64, 114
1, 561500, Control_c, 0, 64, 127
1, 561769, Note_on_c, 0, 75, 58
1, 561802, Note_on_c, 0, 56, 33
1, 561803, Note_off_c, 0, 60, 55
1, 561831, Note_off_c, 0, 73, 51
1, 561856, Note_off_c, 0, 68, 30
1, 561858, Note_off_c, 0, 65, 41
1, 562080, Note_on_c, 0, 73, 61
1, 562104, Note_on_c, 0, 58, 40
1, 562190, Control_c, 0, 64, 104
1, 562199, Note_off_c, 0, 56, 39
1, 562205, Control_c, 0, 64, 86
1, 562220, Control_c, 0, 64, 71
1, 562235, Control_c, 0, 64, 59
1, 562249, Control_c, 0, 64, 50
1, 562264, Control_c, 0, 64, 46
1, 562271, Note_off_c, 0, 75, 38
1, 562279, Control_c, 0, 64, 45
1, 562294, Control_c, 0, 64, 47
1, 562309, Control_c, 0, 64, 54
1, 562323, Control_c, 0, 64, 63
1, 562338, Control_c, 0, 64, 71
1, 562342, Note_on_c, 0, 72, 64
1, 562360, Control_c, 0, 64, 79
1, 562375, Control_c, 0, 64, 82
1, 562376, Note_on_c, 0, 68, 42
1, 562390, Control_c, 0, 64, 82
1, 562392, Note_on_c, 0, 61, 38
1, 562405, Control_c, 0, 64, 85
1, 562420, Control_c, 0, 64, 91
1, 562432, Note_off_c, 0, 73, 59
1, 562435, Control_c, 0, 64, 101
1, 562450, Control_c, 0, 64, 116
1, 562464, Control_c, 0, 64, 127
1, 562601, Note_on_c, 0, 73, 66
1, 562619, Note_on_c, 0, 56, 45
1, 562655, Note_off_c, 0, 56, 61
1, 562657, Note_off_c, 0, 61, 47
1, 562658, Note_off_c, 0, 58, 42
1, 562708, Note_off_c, 0, 72, 38
1, 562737, Note_off_c, 0, 68, 38
1, 562870, Note_on_c, 0, 70, 57
1, 562888, Note_on_c, 0, 61, 42
1, 562927, Note_off_c, 0, 73, 61
1, 562967, Control_c, 0, 64, 103
1, 562982, Control_c, 0, 64, 80
1, 562996, Control_c, 0, 64, 61
1, 563011, Control_c, 0, 64, 44
1, 563026, Control_c, 0, 64, 36
1, 563056, Control_c, 0, 64, 40
1, 563070, Control_c, 0, 64, 50
1, 563085, Control_c, 0, 64, 60
1, 563108, Control_c, 0, 64, 68
1, 563122, Control_c, 0, 64, 75
1, 563137, Control_c, 0, 64, 82
1, 563147, Note_on_c, 0, 72, 61
1, 563152, Control_c, 0, 64, 88
1, 563163, Note_on_c, 0, 65, 37
1, 563167, Control_c, 0, 64, 92
1, 563168, Note_on_c, 0, 68, 39
1, 563182, Control_c, 0, 64, 97
1, 563196, Control_c, 0, 64, 102
1, 563202, Note_off_c, 0, 70, 53
1, 563211, Control_c, 0, 64, 113
1, 563221, Note_off_c, 0, 65, 46
1, 563226, Control_c, 0, 64, 127
1, 563231, Note_off_c, 0, 68, 52
1, 563350, Note_off_c, 0, 61, 34
1, 563404, Note_on_c, 0, 70, 59
1, 563418, Note_on_c, 0, 53, 30
1, 563431, Note_off_c, 0, 72, 57
1, 563687, Control_c, 0, 64, 118
1, 563702, Control_c, 0, 64, 115
1, 563716, Control_c, 0, 64, 113
1, 563746, Control_c, 0, 64, 110
1, 563752, Note_on_c, 0, 72, 54
1, 563783, Note_on_c, 0, 60, 36
1, 563788, Note_off_c, 0, 70, 50
1, 563791, Control_c, 0, 64, 107
1, 563820, Control_c, 0, 64, 104
1, 563835, Control_c, 0, 64, 102
1, 563857, Control_c, 0, 64, 98
1, 563868, Note_off_c, 0, 53, 41
1, 563872, Control_c, 0, 64, 89
1, 563887, Control_c, 0, 64, 75
1, 563901, Control_c, 0, 64, 62
1, 563916, Control_c, 0, 64, 49
1, 563931, Control_c, 0, 64, 40
1, 563946, Control_c, 0, 64, 40
1, 563961, Control_c, 0, 64, 40
1, 563976, Control_c, 0, 64, 44
1, 563991, Control_c, 0, 64, 51
1, 564006, Control_c, 0, 64, 59
1, 564020, Control_c, 0, 64, 65
1, 564035, Control_c, 0, 64, 69
1, 564050, Control_c, 0, 64, 72
1, 564064, Note_on_c, 0, 68, 31
1, 564065, Control_c, 0, 64, 76
1, 564077, Note_on_c, 0, 63, 39
1, 564080, Control_c, 0, 64, 80
1, 564094, Control_c, 0, 64, 85
1, 564109, Control_c, 0, 64, 90
1, 564124, Control_c, 0, 64, 93
1, 564139, Control_c, 0, 64, 96
1, 564168, Control_c, 0, 64, 100
1, 564172, Note_off_c, 0, 68, 35
1, 564183, Control_c, 0, 64, 103
1, 564198, Control_c, 0, 64, 110
1, 564213, Control_c, 0, 64, 126
1, 564298, Note_on_c, 0, 53, 45
1, 564353, Note_off_c, 0, 60, 56
1, 564374, Note_off_c, 0, 63, 40
1, 564545, Note_on_c, 0, 58, 55
1, 564636, Control_c, 0, 64, 99
1, 564650, Control_c, 0, 64, 78
1, 564665, Control_c, 0, 64, 62
1, 564680, Control_c, 0, 64, 43
1, 564695, Control_c, 0, 64, 0
1, 564706, Note_off_c, 0, 53, 29
1, 564739, Control_c, 0, 64, 30
1, 564754, Control_c, 0, 64, 42
1, 564769, Control_c, 0, 64, 54
1, 564784, Control_c, 0, 64, 64
1, 564799, Control_c, 0, 64, 75
1, 564813, Control_c, 0, 64, 88
1, 564815, Note_on_c, 0, 70, 74
1, 564828, Control_c, 0, 64, 100
1, 564831, Note_on_c, 0, 61, 46
1, 564837, Note_on_c, 0, 68, 44
1, 564843, Control_c, 0, 64, 107
1, 564858, Control_c, 0, 64, 119
1, 564873, Control_c, 0, 64, 127
1, 564927, Note_off_c, 0, 72, 53
1, 564951, Note_off_c, 0, 68, 50
1, 565049, Control_c, 0, 67, 122
1, 565064, Control_c, 0, 67, 114
1, 565074, Note_on_c, 0, 72, 79
1, 565079, Control_c, 0, 67, 109
1, 565094, Control_c, 0, 67, 104
1, 565109, Note_on_c, 0, 53, 35
1, 565109, Control_c, 0, 67, 92
1, 565123, Control_c, 0, 67, 77
1, 565130, Note_off_c, 0, 70, 63
1, 565138, Control_c, 0, 67, 69
1, 565142, Note_off_c, 0, 58, 61
1, 565143, Note_off_c, 0, 53, 47
1, 565144, Note_off_c, 0, 61, 61
1, 565153, Control_c, 0, 67, 68
1, 565183, Control_c, 0, 67, 67
1, 565302, Control_c, 0, 67, 68
1, 565369, Control_c, 0, 67, 69
1, 565384, Control_c, 0, 67, 72
1, 565398, Control_c, 0, 67, 72
1, 565458, Control_c, 0, 67, 75
1, 565469, Note_on_c, 0, 73, 74
1, 565472, Control_c, 0, 67, 76
1, 565515, Note_on_c, 0, 61, 49
1, 565517, Control_c, 0, 67, 79
1, 565532, Control_c, 0, 67, 84
1, 565536, Note_off_c, 0, 72, 59
1, 565547, Control_c, 0, 67, 85
1, 565562, Control_c, 0, 64, 117
1, 565562, Control_c, 0, 67, 84
1, 565577, Control_c, 0, 64, 113
1, 565577, Control_c, 0, 67, 84
1, 565591, Control_c, 0, 64, 110
1, 565606, Control_c, 0, 64, 108
1, 565606, Control_c, 0, 67, 85
1, 565621, Control_c, 0, 67, 85
1, 565636, Control_c, 0, 64, 104
1, 565651, Control_c, 0, 64, 102
1, 565666, Control_c, 0, 64, 100
1, 565666, Control_c, 0, 67, 87
1, 565680, Control_c, 0, 64, 96
1, 565680, Control_c, 0, 67, 93
1, 565695, Control_c, 0, 64, 88
1, 565695, Control_c, 0, 67, 94
1, 565710, Control_c, 0, 64, 77
1, 565724, Control_c, 0, 64, 66
1, 565739, Control_c, 0, 64, 54
1, 565739, Control_c, 0, 67, 95
1, 565754, Control_c, 0, 64, 42
1, 565754, Control_c, 0, 67, 98
1, 565769, Control_c, 0, 64, 37
1, 565784, Control_c, 0, 67, 96
1, 565798, Control_c, 0, 64, 42
1, 565798, Control_c, 0, 67, 96
1, 565813, Control_c, 0, 64, 54
1, 565827, Note_on_c, 0, 65, 40
1, 565828, Control_c, 0, 64, 65
1, 565835, Note_on_c, 0, 68, 32
1, 565842, Control_c, 0, 64, 74
1, 565857, Control_c, 0, 64, 83
1, 565857, Control_c, 0, 67, 93
1, 565872, Control_c, 0, 64, 86
1, 565872, Control_c, 0, 67, 91
1, 565887, Control_c, 0, 64, 89
1, 565902, Control_c, 0, 64, 95
1, 565916, Control_c, 0, 64, 108
1, 565916, Control_c, 0, 67, 91
1, 565931, Control_c, 0, 64, 127
1, 565931, Control_c, 0, 67, 88
1, 565946, Control_c, 0, 67, 86
1, 566006, Control_c, 0, 67, 82
1, 566021, Control_c, 0, 67, 81
1, 566055, Note_on_c, 0, 56, 48
1, 566066, Control_c, 0, 67, 80
1, 566081, Control_c, 0, 67, 78
1, 566103, Control_c, 0, 67, 77
1, 566133, Control_c, 0, 67, 77
1, 566140, Note_off_c, 0, 61, 51
1, 566177, Control_c, 0, 67, 76
1, 566221, Control_c, 0, 67, 77
1, 566251, Control_c, 0, 67, 76
1, 566280, Note_on_c, 0, 60, 54
1, 566331, Note_off_c, 0, 56, 51
1, 566336, Note_off_c, 0, 68, 34
1, 566340, Control_c, 0, 67, 75
1, 566355, Control_c, 0, 67, 76
1, 566359, Note_off_c, 0, 65, 41
1, 566369, Control_c, 0, 67, 77
1, 566399, Control_c, 0, 67, 76
1, 566444, Control_c, 0, 67, 77
1, 566474, Control_c, 0, 64, 110
1, 566489, Control_c, 0, 64, 85
1, 566489, Control_c, 0, 67, 77
1, 566504, Control_c, 0, 64, 69
1, 566504, Control_c, 0, 67, 79
1, 566507, Note_on_c, 0, 75, 80
1, 566519, Control_c, 0, 64, 61
1, 566519, Control_c, 0, 67, 80
1, 566533, Note_on_c, 0, 65, 37
1, 566533, Control_c, 0, 64, 62
1, 566540, Note_on_c, 0, 68, 45
1, 566548, Control_c, 0, 64, 65
1, 566548, Control_c, 0, 67, 79
1, 566563, Control_c, 0, 64, 72
1, 566563, Control_c, 0, 67, 78
1, 566578, Control_c, 0, 64, 81
1, 566593, Control_c, 0, 64, 88
1, 566608, Control_c, 0, 64, 93
1, 566622, Control_c, 0, 64, 97
1, 566622, Control_c, 0, 67, 77
1, 566637, Control_c, 0, 64, 103
1, 566637, Control_c, 0, 67, 77
1, 566652, Control_c, 0, 64, 111
1, 566666, Control_c, 0, 64, 118
1, 566681, Control_c, 0, 64, 123
1, 566681, Control_c, 0, 67, 75
1, 566685, Note_off_c, 0, 73, 40
1, 566696, Control_c, 0, 64, 127
1, 566696, Control_c, 0, 67, 73
1, 566711, Control_c, 0, 67, 72
1, 566737, Note_on_c, 0, 72, 84
1, 566745, Note_on_c, 0, 56, 58
1, 566763, Note_off_c, 0, 60, 59
1, 566770, Control_c, 0, 67, 70
1, 566785, Control_c, 0, 67, 69
1, 566790, Note_off_c, 0, 65, 47
1, 566817, Note_off_c, 0, 75, 60
1, 566829, Control_c, 0, 67, 68
1, 566852, Control_c, 0, 67, 65
1, 566867, Control_c, 0, 67, 60
1, 566876, Note_off_c, 0, 68, 33
1, 566882, Control_c, 0, 67, 50
1, 566897, Control_c, 0, 67, 49
1, 567025, Note_on_c, 0, 75, 80
1, 567029, Note_on_c, 0, 58, 52
1, 567045, Control_c, 0, 67, 51
1, 567060, Control_c, 0, 67, 52
1, 567075, Control_c, 0, 64, 120
1, 567090, Control_c, 0, 64, 93
1, 567090, Control_c, 0, 67, 53
1, 567100, Note_off_c, 0, 56, 54
1, 567104, Control_c, 0, 64, 73
1, 567104, Control_c, 0, 67, 54
1, 567119, Control_c, 0, 64, 56
1, 567119, Control_c, 0, 67, 55
1, 567134, Control_c, 0, 64, 39
1, 567134, Control_c, 0, 67, 55
1, 567149, Control_c, 0, 64, 35
1, 567164, Control_c, 0, 64, 37
1, 567164, Control_c, 0, 67, 55
1, 567178, Control_c, 0, 64, 47
1, 567178, Control_c, 0, 67, 54
1, 567185, Note_off_c, 0, 72, 55
1, 567193, Control_c, 0, 64, 61
1, 567208, Control_c, 0, 64, 68
1, 567223, Control_c, 0, 64, 74
1, 567223, Control_c, 0, 67, 54
1, 567238, Control_c, 0, 64, 79
1, 567238, Control_c, 0, 67, 52
1, 567249, Note_on_c, 0, 73, 84
1, 567252, Control_c, 0, 64, 84
1, 567252, Control_c, 0, 67, 52
1, 567266, Note_on_c, 0, 68, 55
1, 567267, Control_c, 0, 64, 89
1, 567275, Note_on_c, 0, 61, 48
1, 567282, Control_c, 0, 64, 100
1, 567297, Control_c, 0, 64, 127
1, 567297, Control_c, 0, 67, 50
1, 567311, Control_c, 0, 67, 47
1, 567326, Control_c, 0, 67, 46
1, 567371, Control_c, 0, 67, 42
1, 567386, Control_c, 0, 67, 34
1, 567401, Control_c, 0, 67, 0
1, 567475, Note_on_c, 0, 77, 79
1, 567479, Note_off_c, 0, 75, 0
1, 567490, Note_on_c, 0, 56, 54
1, 567495, Note_off_c, 0, 68, 0
1, 567502, Note_on_c, 0, 75, 13
1, 567522, Note_off_c, 0, 58, 60
1, 567524, Note_off_c, 0, 73, 64
1, 567525, Note_off_c, 0, 61, 62
1, 567532, Poly_aftertouch_c, 0, 68, 127
1, 567550, Note_off_c, 0, 75, 42
1, 567561, Note_off_c, 0, 56, 53
1, 567601, Poly_aftertouch_c, 0, 68, 0
1, 567761, Note_on_c, 0, 73, 72
1, 567785, Note_on_c, 0, 61, 49
1, 567868, Note_off_c, 0, 77, 57
1, 567883, Control_c, 0, 64, 94
1, 567898, Control_c, 0, 64, 70
1, 567913, Control_c, 0, 64, 55
1, 567927, Control_c, 0, 64, 49
1, 567942, Control_c, 0, 64, 53
1, 567957, Control_c, 0, 64, 61
1, 567972, Control_c, 0, 64, 70
1, 567987, Control_c, 0, 64, 83
1, 568001, Control_c, 0, 64, 97
1, 568016, Control_c, 0, 64, 102
1, 568021, Note_on_c, 0, 75, 84
1, 568023, Note_on_c, 0, 63, 59
1, 568023, Note_on_c, 0, 70, 54
1, 568031, Control_c, 0, 64, 108
1, 568046, Control_c, 0, 64, 126
1, 568067, Note_off_c, 0, 70, 58
1, 568099, Note_off_c, 0, 73, 62
1, 568107, Note_off_c, 0, 63, 59
1, 568125, Note_off_c, 0, 61, 63
1, 568259, Note_on_c, 0, 73, 85
1, 568285, Note_on_c, 0, 51, 53
1, 568364, Note_off_c, 0, 75, 61
1, 568583, Note_on_c, 0, 75, 84
1, 568605, Note_on_c, 0, 59, 53
1, 568614, Note_off_c, 0, 51, 38
1, 568632, Control_c, 0, 64, 123
1, 568661, Control_c, 0, 64, 116
1, 568661, Control_c, 0, 67, 34
1, 568676, Control_c, 0, 64, 107
1, 568676, Control_c, 0, 67, 42
1, 568690, Control_c, 0, 64, 90
1, 568690, Control_c, 0, 67, 44
1, 568691, Note_off_c, 0, 73, 56
1, 568705, Control_c, 0, 64, 71
1, 568705, Control_c, 0, 67, 45
1, 568720, Control_c, 0, 64, 51
1, 568720, Control_c, 0, 67, 47
1, 568734, Control_c, 0, 64, 32
1, 568734, Control_c, 0, 67, 47
1, 568749, Control_c, 0, 64, 0
1, 568749, Control_c, 0, 67, 48
1, 568808, Control_c, 0, 64, 29
1, 568808, Control_c, 0, 67, 49
1, 568823, Control_c, 0, 64, 44
1, 568823, Control_c, 0, 67, 50
1, 568838, Control_c, 0, 64, 59
1, 568853, Control_c, 0, 64, 70
1, 568853, Control_c, 0, 67, 49
1, 568867, Control_c, 0, 64, 77
1, 568870, Note_on_c, 0, 63, 44
1, 568873, Note_on_c, 0, 68, 51
1, 568882, Control_c, 0, 64, 83
1, 568882, Control_c, 0, 67, 50
1, 568897, Control_c, 0, 64, 89
1, 568897, Control_c, 0, 67, 52
1, 568912, Control_c, 0, 64, 98
1, 568912, Control_c, 0, 67, 52
1, 568927, Control_c, 0, 64, 127
1, 568927, Control_c, 0, 67, 57
1, 568942, Control_c, 0, 67, 59
1, 568953, Note_off_c, 0, 68, 55
1, 568957, Control_c, 0, 67, 59
1, 569002, Control_c, 0, 67, 59
1, 569016, Control_c, 0, 67, 58
1, 569065, Note_off_c, 0, 63, 38
1, 569124, Note_on_c, 0, 51, 55
1, 569127, Control_c, 0, 67, 59
1, 569157, Control_c, 0, 67, 58
1, 569201, Control_c, 0, 67, 59
1, 569212, Note_off_c, 0, 59, 57
1, 569261, Control_c, 0, 67, 59
1, 569276, Control_c, 0, 67, 61
1, 569321, Control_c, 0, 67, 59
1, 569350, Control_c, 0, 67, 61
1, 569365, Control_c, 0, 67, 61
1, 569410, Control_c, 0, 67, 62
1, 569425, Control_c, 0, 67, 64
1, 569441, Note_on_c, 0, 58, 66
1, 569470, Control_c, 0, 64, 94
1, 569470, Control_c, 0, 67, 65
1, 569484, Control_c, 0, 64, 73
1, 569484, Control_c, 0, 67, 75
1, 569499, Control_c, 0, 64, 54
1, 569499, Control_c, 0, 67, 88
1, 569514, Control_c, 0, 64, 0
1, 569514, Control_c, 0, 67, 89
1, 569544, Control_c, 0, 67, 88
1, 569558, Control_c, 0, 67, 87
1, 569573, Note_off_c, 0, 51, 50
1, 569573, Control_c, 0, 67, 85
1, 569588, Control_c, 0, 64, 30
1, 569588, Control_c, 0, 67, 85
1, 569603, Control_c, 0, 64, 47
1, 569603, Control_c, 0, 67, 84
1, 569618, Control_c, 0, 64, 59
1, 569618, Control_c, 0, 67, 82
1, 569632, Control_c, 0, 64, 67
1, 569632, Control_c, 0, 67, 81
1, 569647, Control_c, 0, 64, 73
1, 569647, Control_c, 0, 67, 80
1, 569662, Control_c, 0, 64, 80
1, 569662, Control_c, 0, 67, 78
1, 569677, Control_c, 0, 64, 91
1, 569677, Control_c, 0, 67, 76
1, 569691, Control_c, 0, 64, 106
1, 569691, Control_c, 0, 67, 73
1, 569706, Control_c, 0, 64, 127
1, 569706, Control_c, 0, 67, 71
1, 569721, Control_c, 0, 67, 70
1, 569736, Control_c, 0, 67, 68
1, 569751, Control_c, 0, 67, 66
1, 569765, Control_c, 0, 67, 62
1, 569772, Note_on_c, 0, 73, 82
1, 569780, Control_c, 0, 67, 57
1, 569795, Control_c, 0, 67, 50
1, 569803, Note_on_c, 0, 63, 45
1, 569808, Note_on_c, 0, 66, 47
1, 569810, Control_c, 0, 67, 45
1, 569825, Control_c, 0, 67, 37
1, 569847, Control_c, 0, 67, 0
1, 569875, Note_off_c, 0, 75, 61
1, 569932, Note_off_c, 0, 66, 54
1, 569953, Note_off_c, 0, 63, 48
1, 570100, Note_on_c, 0, 75, 88
1, 570110, Note_on_c, 0, 51, 53
1, 570157, Note_off_c, 0, 73, 63
1, 570160, Note_off_c, 0, 58, 63
1, 570165, Note_off_c, 0, 51, 59
1, 570514, Control_c, 0, 67, 34
1, 570529, Control_c, 0, 67, 55
1, 570536, Note_on_c, 0, 77, 81
1, 570544, Control_c, 0, 67, 68
1, 570556, Note_on_c, 0, 61, 53
1, 570574, Control_c, 0, 67, 69
1, 570596, Control_c, 0, 67, 73
1, 570611, Control_c, 0, 67, 84
1, 570626, Control_c, 0, 67, 102
1, 570641, Control_c, 0, 67, 108
1, 570664, Note_off_c, 0, 75, 55
1, 570670, Control_c, 0, 64, 104
1, 570670, Control_c, 0, 67, 115
1, 570685, Control_c, 0, 64, 91
1, 570685, Control_c, 0, 67, 127
1, 570700, Control_c, 0, 64, 78
1, 570714, Control_c, 0, 64, 65
1, 570729, Control_c, 0, 64, 48
1, 570744, Control_c, 0, 64, 0
1, 570803, Control_c, 0, 64, 33
1, 570818, Control_c, 0, 64, 44
1, 570833, Control_c, 0, 64, 55
1, 570847, Control_c, 0, 64, 63
1, 570864, Control_c, 0, 64, 72
1, 570879, Control_c, 0, 64, 78
1, 570893, Control_c, 0, 64, 83
1, 570908, Control_c, 0, 64, 88
1, 570923, Control_c, 0, 64, 95
1, 570937, Control_c, 0, 64, 105
1, 570942, Note_on_c, 0, 70, 45
1, 570952, Control_c, 0, 64, 127
1, 570954, Note_on_c, 0, 65, 33
1, 571022, Note_off_c, 0, 70, 59
1, 571023, Note_off_c, 0, 65, 57
1, 571151, Note_off_c, 0, 61, 59
1, 571255, Note_on_c, 0, 53, 47
1, 571626, Control_c, 0, 64, 115
1, 571630, Note_on_c, 0, 60, 54
1, 571641, Control_c, 0, 64, 103
1, 571656, Control_c, 0, 64, 88
1, 571672, Control_c, 0, 64, 72
1, 571686, Control_c, 0, 64, 58
1, 571701, Control_c, 0, 64, 51
1, 571731, Control_c, 0, 64, 55
1, 571746, Control_c, 0, 64, 60
1, 571760, Control_c, 0, 64, 66
1, 571775, Control_c, 0, 64, 73
1, 571780, Note_off_c, 0, 53, 34
1, 571790, Control_c, 0, 64, 82
1, 571805, Control_c, 0, 64, 87
1, 571820, Control_c, 0, 64, 89
1, 571834, Control_c, 0, 64, 92
1, 571849, Control_c, 0, 64, 94
1, 571864, Control_c, 0, 64, 97
1, 571879, Control_c, 0, 64, 101
1, 571893, Control_c, 0, 64, 104
1, 571923, Control_c, 0, 64, 107
1, 572011, Note_on_c, 0, 80, 69
1, 572027, Control_c, 0, 64, 109
1, 572047, Note_on_c, 0, 63, 42
1, 572047, Note_on_c, 0, 70, 28
1, 572107, Note_off_c, 0, 70, 57
1, 572186, Note_off_c, 0, 77, 56
1, 572431, Note_on_c, 0, 77, 74
1, 572450, Note_on_c, 0, 53, 45
1, 572509, Note_off_c, 0, 80, 62
1, 572519, Note_off_c, 0, 60, 52
1, 572565, Note_off_c, 0, 63, 36
1, 572788, Note_on_c, 0, 78, 70
1, 572805, Note_on_c, 0, 58, 43
1, 572873, Control_c, 0, 64, 106
1, 572888, Control_c, 0, 64, 99
1, 572895, Note_off_c, 0, 77, 54
1, 572903, Control_c, 0, 64, 85
1, 572917, Control_c, 0, 64, 71
1, 572932, Control_c, 0, 64, 59
1, 572939, Note_off_c, 0, 53, 40
1, 572947, Control_c, 0, 64, 50
1, 572962, Control_c, 0, 64, 46
1, 572991, Control_c, 0, 64, 48
1, 573006, Control_c, 0, 64, 51
1, 573021, Control_c, 0, 64, 55
1, 573035, Control_c, 0, 64, 59
1, 573050, Control_c, 0, 64, 64
1, 573065, Control_c, 0, 64, 70
1, 573080, Control_c, 0, 64, 76
1, 573095, Control_c, 0, 64, 81
1, 573096, Note_on_c, 0, 77, 73
1, 573109, Control_c, 0, 64, 85
1, 573112, Note_on_c, 0, 61, 41
1, 573120, Note_on_c, 0, 68, 36
1, 573124, Control_c, 0, 64, 89
1, 573139, Control_c, 0, 64, 95
1, 573154, Control_c, 0, 64, 102
1, 573169, Control_c, 0, 64, 107
1, 573175, Note_off_c, 0, 78, 57
1, 573184, Control_c, 0, 64, 109
1, 573202, Note_off_c, 0, 68, 48
1, 573214, Control_c, 0, 64, 112
1, 573348, Note_off_c, 0, 61, 0
1, 573369, Note_on_c, 0, 80, 65
1, 573378, Note_on_c, 0, 53, 42
1, 573387, Poly_aftertouch_c, 0, 61, 127
1, 573409, Note_off_c, 0, 53, 53
1, 573435, Poly_aftertouch_c, 0, 61, 0
1, 573440, Note_off_c, 0, 58, 38
1, 573446, Note_off_c, 0, 77, 60
1, 573681, Note_on_c, 0, 77, 71
1, 573701, Note_on_c, 0, 61, 42
1, 573755, Control_c, 0, 64, 100
1, 573770, Control_c, 0, 64, 85
1, 573785, Control_c, 0, 64, 70
1, 573800, Control_c, 0, 64, 56
1, 573814, Control_c, 0, 64, 45
1, 573821, Note_off_c, 0, 80, 35
1, 573829, Control_c, 0, 64, 44
1, 573844, Control_c, 0, 64, 48
1, 573858, Control_c, 0, 64, 57
1, 573873, Control_c, 0, 64, 64
1, 573888, Control_c, 0, 64, 68
1, 573903, Control_c, 0, 64, 72
1, 573918, Control_c, 0, 64, 76
1, 573932, Control_c, 0, 64, 80
1, 573947, Control_c, 0, 64, 83
1, 573962, Control_c, 0, 64, 85
1, 573963, Note_on_c, 0, 75, 62
1, 573977, Control_c, 0, 64, 87
1, 573983, Note_on_c, 0, 63, 44
1, 573987, Note_on_c, 0, 68, 35
1, 573992, Control_c, 0, 64, 89
1, 574007, Control_c, 0, 64, 91
1, 574019, Note_off_c, 0, 63, 55
1, 574021, Note_off_c, 0, 61, 57
1, 574021, Control_c, 0, 64, 93
1, 574023, Note_off_c, 0, 68, 52
1, 574036, Note_off_c, 0, 77, 60
1, 574036, Control_c, 0, 64, 95
1, 574052, Control_c, 0, 64, 98
1, 574081, Control_c, 0, 64, 100
1, 574156, Control_c, 0, 64, 102
1, 574260, Note_on_c, 0, 78, 66
1, 574287, Note_on_c, 0, 51, 43
1, 574344, Note_off_c, 0, 75, 62
1, 574519, Note_off_c, 0, 51, 29
1, 574563, Control_c, 0, 64, 100
1, 574593, Control_c, 0, 64, 98
1, 574630, Note_on_c, 0, 75, 55
1, 574634, Note_on_c, 0, 59, 45
1, 574637, Control_c, 0, 64, 95
1, 574652, Control_c, 0, 64, 94
1, 574667, Control_c, 0, 64, 93
1, 574681, Control_c, 0, 64, 91
1, 574696, Control_c, 0, 64, 89
1, 574698, Note_off_c, 0, 78, 51
1, 574711, Control_c, 0, 64, 88
1, 574726, Control_c, 0, 64, 87
1, 574741, Control_c, 0, 64, 85
1, 574755, Control_c, 0, 64, 80
1, 574770, Control_c, 0, 64, 71
1, 574785, Control_c, 0, 64, 63
1, 574800, Control_c, 0, 64, 55
1, 574814, Control_c, 0, 64, 48
1, 574829, Control_c, 0, 64, 41
1, 574844, Control_c, 0, 64, 35
1, 574860, Control_c, 0, 64, 34
1, 574875, Control_c, 0, 64, 34
1, 574890, Control_c, 0, 64, 41
1, 574904, Control_c, 0, 64, 52
1, 574919, Control_c, 0, 64, 60
1, 574934, Control_c, 0, 64, 63
1, 574949, Control_c, 0, 64, 64
1, 574964, Control_c, 0, 64, 67
1, 574978, Control_c, 0, 64, 72
1, 574983, Note_on_c, 0, 67, 37
1, 574991, Note_on_c, 0, 63, 30
1, 574993, Control_c, 0, 64, 79
1, 575008, Control_c, 0, 64, 84
1, 575023, Control_c, 0, 64, 86
1, 575038, Control_c, 0, 64, 87
1, 575053, Note_off_c, 0, 67, 53
1, 575053, Control_c, 0, 64, 88
1, 575068, Control_c, 0, 64, 89
1, 575090, Control_c, 0, 64, 90
1, 575104, Control_c, 0, 64, 91
1, 575148, Note_off_c, 0, 63, 39
1, 575149, Control_c, 0, 64, 91
1, 575318, Note_on_c, 0, 51, 27
1, 575364, Note_off_c, 0, 59, 42
1, 575458, Control_c, 0, 64, 91
1, 575548, Control_c, 0, 64, 90
1, 575613, Note_on_c, 0, 58, 45
1, 575652, Control_c, 0, 64, 90
1, 575697, Control_c, 0, 64, 89
1, 575712, Control_c, 0, 64, 89
1, 575715, Note_off_c, 0, 51, 42
1, 575726, Control_c, 0, 64, 87
1, 575741, Control_c, 0, 64, 81
1, 575756, Control_c, 0, 64, 71
1, 575771, Control_c, 0, 64, 61
1, 575786, Control_c, 0, 64, 54
1, 575800, Control_c, 0, 64, 52
1, 575815, Control_c, 0, 64, 53
1, 575837, Control_c, 0, 64, 55
1, 575852, Control_c, 0, 64, 61
1, 575867, Control_c, 0, 64, 66
1, 575882, Control_c, 0, 64, 70
1, 575896, Control_c, 0, 64, 72
1, 575911, Control_c, 0, 64, 73
1, 575926, Control_c, 0, 64, 74
1, 575941, Control_c, 0, 64, 76
1, 575956, Control_c, 0, 64, 79
1, 575971, Control_c, 0, 64, 82
1, 575986, Control_c, 0, 64, 85
1, 576000, Control_c, 0, 64, 87
1, 576010, Note_on_c, 0, 66, 36
1, 576014, Note_on_c, 0, 73, 47
1, 576015, Control_c, 0, 64, 88
1, 576018, Note_on_c, 0, 61, 32
1, 576030, Control_c, 0, 64, 90
1, 576045, Control_c, 0, 64, 92
1, 576059, Control_c, 0, 64, 94
1, 576074, Control_c, 0, 64, 97
1, 576078, Note_off_c, 0, 75, 55
1, 576089, Control_c, 0, 64, 99
1, 576119, Control_c, 0, 64, 101
1, 576149, Note_off_c, 0, 66, 34
1, 576164, Control_c, 0, 64, 103
1, 576267, Control_c, 0, 64, 105
1, 576495, Note_on_c, 0, 77, 55
1, 576513, Note_on_c, 0, 51, 32
1, 576533, Note_off_c, 0, 73, 53
1, 576591, Note_off_c, 0, 77, 62
1, 576620, Note_off_c, 0, 61, 41
1, 576621, Note_off_c, 0, 58, 36
1, 576684, Note_off_c, 0, 51, 42
1, 577061, Control_c, 0, 64, 103
1, 577090, Control_c, 0, 64, 101
1, 577123, Note_on_c, 0, 70, 51
1, 577135, Control_c, 0, 64, 98
1, 577150, Note_on_c, 0, 53, 34
1, 577179, Control_c, 0, 64, 96
1, 577193, Control_c, 0, 64, 95
1, 577208, Control_c, 0, 64, 95
1, 577223, Control_c, 0, 64, 94
1, 577238, Control_c, 0, 64, 94
1, 577254, Control_c, 0, 64, 93
1, 577269, Control_c, 0, 64, 93
1, 577284, Control_c, 0, 64, 92
1, 577298, Control_c, 0, 64, 92
1, 577313, Control_c, 0, 64, 91
1, 577336, Control_c, 0, 64, 91
1, 577351, Control_c, 0, 64, 90
1, 577366, Control_c, 0, 64, 89
1, 577380, Control_c, 0, 64, 87
1, 577395, Control_c, 0, 64, 85
1, 577410, Control_c, 0, 64, 80
1, 577425, Control_c, 0, 64, 74
1, 577440, Control_c, 0, 64, 66
1, 577454, Control_c, 0, 64, 59
1, 577469, Control_c, 0, 64, 52
1, 577484, Control_c, 0, 64, 45
1, 577499, Control_c, 0, 64, 37
1, 577513, Control_c, 0, 64, 36
1, 577528, Control_c, 0, 64, 37
1, 577543, Control_c, 0, 64, 43
1, 577558, Control_c, 0, 64, 54
1, 577573, Control_c, 0, 64, 62
1, 577584, Note_on_c, 0, 68, 61
1, 577587, Control_c, 0, 64, 67
1, 577600, Note_on_c, 0, 56, 34
1, 577602, Control_c, 0, 64, 70
1, 577603, Note_on_c, 0, 61, 33
1, 577617, Control_c, 0, 64, 73
1, 577631, Control_c, 0, 64, 77
1, 577646, Control_c, 0, 64, 82
1, 577661, Control_c, 0, 64, 87
1, 577676, Control_c, 0, 64, 90
1, 577691, Control_c, 0, 64, 92
1, 577706, Control_c, 0, 64, 93
1, 577715, Note_off_c, 0, 70, 39
1, 577721, Control_c, 0, 64, 95
1, 577736, Note_off_c, 0, 61, 35
1, 577736, Control_c, 0, 64, 97
1, 577751, Control_c, 0, 64, 100
1, 577763, Note_off_c, 0, 56, 33
1, 577766, Note_off_c, 0, 53, 40
1, 577780, Control_c, 0, 64, 103
1, 577824, Control_c, 0, 64, 106
1, 577854, Control_c, 0, 64, 108
1, 577880, Note_on_c, 0, 72, 68
1, 577889, Note_on_c, 0, 44, 40
1, 577939, Note_off_c, 0, 68, 59
1, 577940, Note_off_c, 0, 44, 42
1, 578248, Control_c, 0, 64, 106
1, 578258, Note_on_c, 0, 68, 48
1, 578268, Note_on_c, 0, 52, 37
1, 578277, Control_c, 0, 64, 104
1, 578307, Control_c, 0, 64, 100
1, 578328, Note_off_c, 0, 72, 58
1, 578336, Control_c, 0, 64, 97
1, 578351, Control_c, 0, 64, 95
1, 578366, Control_c, 0, 64, 93
1, 578381, Control_c, 0, 64, 91
1, 578396, Control_c, 0, 64, 89
1, 578410, Control_c, 0, 64, 85
1, 578425, Control_c, 0, 64, 79
1, 578440, Control_c, 0, 64, 72
1, 578454, Control_c, 0, 64, 64
1, 578469, Control_c, 0, 64, 58
1, 578484, Control_c, 0, 64, 53
1, 578499, Control_c, 0, 64, 49
1, 578514, Control_c, 0, 64, 46
1, 578529, Control_c, 0, 64, 43
1, 578543, Control_c, 0, 64, 41
1, 578558, Control_c, 0, 64, 39
1, 578588, Control_c, 0, 64, 40
1, 578603, Control_c, 0, 64, 43
1, 578618, Control_c, 0, 64, 49
1, 578633, Control_c, 0, 64, 54
1, 578647, Control_c, 0, 64, 58
1, 578662, Control_c, 0, 64, 62
1, 578677, Control_c, 0, 64, 66
1, 578688, Note_on_c, 0, 70, 48
1, 578692, Control_c, 0, 64, 70
1, 578704, Note_on_c, 0, 60, 41
1, 578707, Control_c, 0, 64, 72
1, 578710, Note_on_c, 0, 55, 21
1, 578721, Control_c, 0, 64, 75
1, 578736, Control_c, 0, 64, 78
1, 578751, Control_c, 0, 64, 82
1, 578766, Control_c, 0, 64, 85
1, 578780, Control_c, 0, 64, 87
1, 578795, Control_c, 0, 64, 88
1, 578798, Note_off_c, 0, 68, 38
1, 578807, Note_off_c, 0, 60, 54
1, 578810, Control_c, 0, 64, 89
1, 578833, Control_c, 0, 64, 91
1, 578848, Control_c, 0, 64, 92
1, 578863, Control_c, 0, 64, 93
1, 578877, Control_c, 0, 64, 94
1, 578878, Note_off_c, 0, 55, 41
1, 578922, Control_c, 0, 64, 94
1, 579009, Note_on_c, 0, 44, 37
1, 579083, Note_off_c, 0, 52, 43
1, 579233, Control_c, 0, 64, 94
1, 579322, Control_c, 0, 64, 93
1, 579324, Note_on_c, 0, 51, 40
1, 579337, Control_c, 0, 64, 92
1, 579351, Control_c, 0, 64, 91
1, 579366, Control_c, 0, 64, 87
1, 579381, Control_c, 0, 64, 77
1, 579395, Note_off_c, 0, 44, 47
1, 579396, Control_c, 0, 64, 65
1, 579411, Control_c, 0, 64, 52
1, 579426, Control_c, 0, 64, 44
1, 579441, Control_c, 0, 64, 43
1, 579456, Control_c, 0, 64, 45
1, 579470, Control_c, 0, 64, 52
1, 579485, Control_c, 0, 64, 59
1, 579500, Control_c, 0, 64, 63
1, 579515, Control_c, 0, 64, 65
1, 579530, Control_c, 0, 64, 69
1, 579544, Control_c, 0, 64, 74
1, 579559, Control_c, 0, 64, 81
1, 579581, Control_c, 0, 64, 84
1, 579596, Control_c, 0, 64, 86
1, 579611, Control_c, 0, 64, 87
1, 579626, Control_c, 0, 64, 89
1, 579640, Control_c, 0, 64, 93
1, 579656, Control_c, 0, 64, 97
1, 579671, Control_c, 0, 64, 102
1, 579686, Control_c, 0, 64, 106
1, 579698, Note_on_c, 0, 69, 40
1, 579700, Control_c, 0, 64, 110
1, 579715, Control_c, 0, 64, 114
1, 579720, Note_on_c, 0, 61, 25
1, 579725, Note_on_c, 0, 54, 33
1, 579730, Control_c, 0, 64, 127
1, 579848, Note_off_c, 0, 61, 36
1, 579888, Note_on_c, 0, 71, 46
1, 579925, Note_off_c, 0, 69, 51
1, 580013, Note_off_c, 0, 70, 37
1, 580052, Note_on_c, 0, 69, 52
1, 580057, Note_off_c, 0, 71, 47
1, 580067, Note_on_c, 0, 44, 44
1, 580116, Note_off_c, 0, 44, 56
1, 580152, Note_off_c, 0, 69, 60
1, 580165, Note_off_c, 0, 51, 37
1, 580183, Note_off_c, 0, 54, 42
1, 580197, Note_on_c, 0, 71, 54
1, 580265, Note_off_c, 0, 71, 60
1, 580469, Note_on_c, 0, 70, 63
1, 580494, Note_on_c, 0, 53, 42
1, 580612, Control_c, 0, 64, 98
1, 580627, Control_c, 0, 64, 77
1, 580642, Control_c, 0, 64, 58
1, 580657, Control_c, 0, 64, 0
1, 580746, Control_c, 0, 64, 38
1, 580761, Control_c, 0, 64, 56
1, 580776, Control_c, 0, 64, 70
1, 580790, Control_c, 0, 64, 86
1, 580796, Note_on_c, 0, 68, 71
1, 580805, Control_c, 0, 64, 110
1, 580815, Note_on_c, 0, 56, 52
1, 580820, Control_c, 0, 64, 127
1, 580829, Note_on_c, 0, 61, 37
1, 580901, Note_off_c, 0, 53, 58
1, 580907, Note_off_c, 0, 61, 54
1, 580916, Note_off_c, 0, 56, 62
1, 580940, Note_off_c, 0, 70, 39
1, 581027, Control_c, 0, 67, 117
1, 581041, Control_c, 0, 67, 103
1, 581056, Control_c, 0, 67, 89
1, 581074, Note_on_c, 0, 72, 77
1, 581079, Control_c, 0, 67, 77
1, 581094, Control_c, 0, 67, 61
1, 581109, Control_c, 0, 67, 43
1, 581123, Control_c, 0, 67, 0
1, 581145, Note_off_c, 0, 68, 61
1, 581177, Poly_aftertouch_c, 0, 44, 127
1, 581206, Poly_aftertouch_c, 0, 44, 0
1, 581302, Control_c, 0, 67, 36
1, 581317, Control_c, 0, 67, 39
1, 581332, Control_c, 0, 67, 38
1, 581361, Control_c, 0, 67, 41
1, 581376, Control_c, 0, 67, 52
1, 581391, Control_c, 0, 67, 78
1, 581406, Control_c, 0, 67, 96
1, 581441, Note_on_c, 0, 68, 71
1, 581450, Control_c, 0, 67, 100
1, 581459, Note_on_c, 0, 52, 41
1, 581465, Control_c, 0, 67, 109
1, 581480, Control_c, 0, 67, 127
1, 581535, Note_off_c, 0, 72, 60
1, 581584, Control_c, 0, 64, 120
1, 581598, Control_c, 0, 64, 104
1, 581613, Control_c, 0, 64, 90
1, 581628, Control_c, 0, 64, 77
1, 581643, Control_c, 0, 64, 66
1, 581658, Control_c, 0, 64, 56
1, 581672, Control_c, 0, 64, 47
1, 581687, Control_c, 0, 64, 41
1, 581702, Control_c, 0, 64, 38
1, 581717, Control_c, 0, 64, 37
1, 581776, Control_c, 0, 64, 36
1, 581790, Control_c, 0, 64, 32
1, 581805, Control_c, 0, 64, 30
1, 581846, Note_on_c, 0, 70, 70
1, 581855, Note_on_c, 0, 55, 34
1, 581872, Note_on_c, 0, 60, 31
1, 581872, Control_c, 0, 64, 32
1, 581887, Control_c, 0, 64, 39
1, 581902, Control_c, 0, 64, 50
1, 581917, Control_c, 0, 64, 61
1, 581932, Control_c, 0, 64, 70
1, 581941, Note_off_c, 0, 68, 58
1, 581946, Control_c, 0, 64, 77
1, 581961, Control_c, 0, 64, 82
1, 581976, Control_c, 0, 64, 85
1, 581991, Control_c, 0, 64, 88
1, 582005, Control_c, 0, 64, 91
1, 582007, Note_off_c, 0, 60, 34
1, 582020, Control_c, 0, 64, 94
1, 582035, Control_c, 0, 64, 98
1, 582044, Note_off_c, 0, 55, 43
1, 582051, Control_c, 0, 64, 101
1, 582066, Control_c, 0, 64, 105
1, 582081, Control_c, 0, 64, 107
1, 582095, Control_c, 0, 64, 110
1, 582146, Note_on_c, 0, 44, 51
1, 582198, Note_off_c, 0, 52, 36
1, 582421, Control_c, 0, 64, 108
1, 582436, Control_c, 0, 64, 106
1, 582451, Note_on_c, 0, 51, 48
1, 582451, Control_c, 0, 64, 104
1, 582481, Control_c, 0, 64, 101
1, 582495, Control_c, 0, 64, 99
1, 582501, Note_off_c, 0, 44, 50
1, 582510, Control_c, 0, 64, 96
1, 582525, Control_c, 0, 64, 89
1, 582540, Control_c, 0, 64, 80
1, 582555, Control_c, 0, 64, 69
1, 582577, Control_c, 0, 64, 57
1, 582592, Control_c, 0, 64, 44
1, 582606, Control_c, 0, 64, 35
1, 582636, Control_c, 0, 64, 39
1, 582651, Control_c, 0, 64, 48
1, 582666, Control_c, 0, 64, 56
1, 582681, Control_c, 0, 64, 61
1, 582695, Control_c, 0, 64, 64
1, 582710, Control_c, 0, 64, 69
1, 582725, Control_c, 0, 64, 73
1, 582740, Control_c, 0, 64, 77
1, 582755, Control_c, 0, 64, 80
1, 582769, Control_c, 0, 64, 81
1, 582784, Control_c, 0, 64, 83
1, 582797, Note_on_c, 0, 69, 50
1, 582799, Control_c, 0, 64, 85
1, 582800, Note_on_c, 0, 54, 34
1, 582805, Note_on_c, 0, 61, 37
1, 582813, Control_c, 0, 64, 88
1, 582828, Control_c, 0, 64, 92
1, 582844, Control_c, 0, 64, 94
1, 582859, Control_c, 0, 64, 96
1, 582870, Note_off_c, 0, 61, 55
1, 582890, Control_c, 0, 64, 98
1, 582919, Control_c, 0, 64, 101
1, 582949, Control_c, 0, 64, 103
1, 582977, Note_on_c, 0, 71, 53
1, 582989, Note_off_c, 0, 69, 37
1, 583101, Note_off_c, 0, 70, 33
1, 583131, Note_on_c, 0, 44, 44
1, 583133, Note_off_c, 0, 71, 50
1, 583145, Note_on_c, 0, 69, 47
1, 583190, Note_off_c, 0, 44, 53
1, 583203, Note_off_c, 0, 51, 46
1, 583221, Note_off_c, 0, 54, 42
1, 583308, Note_on_c, 0, 71, 60
1, 583359, Note_off_c, 0, 69, 37
1, 583593, Control_c, 0, 64, 101
1, 583632, Note_on_c, 0, 70, 55
1, 583633, Note_on_c, 0, 52, 38
1, 583637, Control_c, 0, 64, 98
1, 583646, Note_off_c, 0, 71, 47
1, 583667, Control_c, 0, 64, 95
1, 583682, Control_c, 0, 64, 94
1, 583697, Control_c, 0, 64, 91
1, 583712, Control_c, 0, 64, 87
1, 583727, Control_c, 0, 64, 77
1, 583741, Control_c, 0, 64, 66
1, 583756, Control_c, 0, 64, 56
1, 583771, Control_c, 0, 64, 48
1, 583786, Control_c, 0, 64, 42
1, 583800, Control_c, 0, 64, 41
1, 583830, Control_c, 0, 64, 45
1, 583845, Control_c, 0, 64, 51
1, 583860, Control_c, 0, 64, 58
1, 583874, Control_c, 0, 64, 63
1, 583889, Control_c, 0, 64, 67
1, 583904, Control_c, 0, 64, 69
1, 583919, Control_c, 0, 64, 72
1, 583934, Control_c, 0, 64, 76
1, 583948, Control_c, 0, 64, 80
1, 583963, Control_c, 0, 64, 84
1, 583978, Control_c, 0, 64, 86
1, 583979, Note_on_c, 0, 60, 43
1, 583991, Note_on_c, 0, 55, 29
1, 583993, Control_c, 0, 64, 88
1, 584007, Control_c, 0, 64, 89
1, 584022, Control_c, 0, 64, 91
1, 584037, Control_c, 0, 64, 93
1, 584052, Control_c, 0, 64, 94
1, 584060, Note_off_c, 0, 60, 52
1, 584074, Control_c, 0, 64, 95
1, 584089, Control_c, 0, 64, 95
1, 584117, Note_off_c, 0, 55, 36
1, 584134, Control_c, 0, 64, 96
1, 584264, Note_on_c, 0, 44, 38
1, 584312, Control_c, 0, 64, 95
1, 584326, Note_off_c, 0, 52, 41
1, 584535, Control_c, 0, 64, 91
1, 584539, Note_on_c, 0, 51, 45
1, 584550, Control_c, 0, 64, 75
1, 584564, Control_c, 0, 64, 63
1, 584579, Control_c, 0, 64, 56
1, 584594, Control_c, 0, 64, 59
1, 584608, Control_c, 0, 64, 66
1, 584623, Control_c, 0, 64, 76
1, 584626, Note_off_c, 0, 44, 41
1, 584638, Control_c, 0, 64, 92
1, 584653, Control_c, 0, 64, 102
1, 584668, Control_c, 0, 64, 110
1, 584683, Control_c, 0, 64, 127
1, 584856, Note_on_c, 0, 69, 52
1, 584870, Note_on_c, 0, 54, 36
1, 584899, Note_on_c, 0, 61, 23
1, 584941, Control_c, 0, 67, 118
1, 584956, Control_c, 0, 67, 100
1, 584971, Control_c, 0, 67, 76
1, 584986, Control_c, 0, 67, 45
1, 585001, Control_c, 0, 67, 0
1, 585027, Note_off_c, 0, 61, 45
1, 585037, Note_on_c, 0, 71, 66
1, 585110, Note_off_c, 0, 69, 47
1, 585224, Note_on_c, 0, 69, 70
1, 585236, Note_on_c, 0, 44, 47
1, 585251, Note_off_c, 0, 70, 22
1, 585259, Note_off_c, 0, 71, 61
1, 585283, Note_off_c, 0, 44, 56
1, 585310, Note_off_c, 0, 51, 47
1, 585365, Note_off_c, 0, 54, 36
1, 585382, Note_on_c, 0, 71, 75
1, 585482, Note_off_c, 0, 69, 60
1, 585739, Note_on_c, 0, 70, 74
1, 585772, Note_on_c, 0, 53, 38
1, 585787, Note_off_c, 0, 71, 60
1, 585868, Control_c, 0, 67, 40
1, 585884, Control_c, 0, 67, 47
1, 585913, Control_c, 0, 64, 114
1, 585913, Control_c, 0, 67, 51
1, 585928, Control_c, 0, 64, 101
1, 585928, Control_c, 0, 67, 76
1, 585943, Control_c, 0, 64, 91
1, 585943, Control_c, 0, 67, 127
1, 585958, Control_c, 0, 64, 81
1, 585972, Control_c, 0, 64, 68
1, 585987, Control_c, 0, 64, 55
1, 586002, Control_c, 0, 64, 40
1, 586017, Control_c, 0, 64, 30
1, 586032, Control_c, 0, 64, 0
1, 586062, Control_c, 0, 64, 36
1, 586077, Control_c, 0, 64, 51
1, 586092, Control_c, 0, 64, 63
1, 586107, Control_c, 0, 64, 73
1, 586121, Note_on_c, 0, 61, 44
1, 586122, Control_c, 0, 64, 84
1, 586130, Note_on_c, 0, 56, 45
1, 586136, Control_c, 0, 64, 92
1, 586151, Control_c, 0, 64, 95
1, 586166, Control_c, 0, 64, 100
1, 586181, Control_c, 0, 64, 108
1, 586195, Note_off_c, 0, 61, 49
1, 586195, Control_c, 0, 64, 127
1, 586218, Note_off_c, 0, 53, 58
1, 586243, Note_off_c, 0, 56, 50
1, 586402, Note_on_c, 0, 44, 44
1, 586485, Note_off_c, 0, 44, 54
1, 586715, Note_on_c, 0, 52, 44
1, 586959, Control_c, 0, 64, 101
1, 586974, Control_c, 0, 64, 89
1, 586989, Control_c, 0, 64, 78
1, 587004, Control_c, 0, 64, 69
1, 587018, Control_c, 0, 64, 60
1, 587033, Control_c, 0, 64, 53
1, 587048, Control_c, 0, 64, 50
1, 587071, Control_c, 0, 64, 47
1, 587086, Control_c, 0, 64, 46
1, 587099, Note_on_c, 0, 71, 65
1, 587100, Control_c, 0, 64, 47
1, 587115, Control_c, 0, 64, 53
1, 587118, Note_on_c, 0, 62, 38
1, 587130, Control_c, 0, 64, 61
1, 587136, Note_on_c, 0, 55, 27
1, 587145, Control_c, 0, 64, 68
1, 587160, Control_c, 0, 64, 75
1, 587174, Control_c, 0, 64, 82
1, 587189, Control_c, 0, 64, 86
1, 587204, Control_c, 0, 64, 89
1, 587218, Note_off_c, 0, 62, 58
1, 587218, Control_c, 0, 64, 92
1, 587230, Note_off_c, 0, 70, 40
1, 587233, Control_c, 0, 64, 96
1, 587248, Control_c, 0, 64, 101
1, 587263, Control_c, 0, 64, 107
1, 587278, Control_c, 0, 64, 113
1, 587292, Control_c, 0, 64, 126
1, 587329, Note_off_c, 0, 55, 43
1, 587434, Note_on_c, 0, 72, 55
1, 587450, Note_on_c, 0, 44, 33
1, 587490, Note_off_c, 0, 71, 57
1, 587492, Note_off_c, 0, 44, 49
1, 587515, Note_off_c, 0, 52, 32
1, 587579, Note_off_c, 0, 72, 58
1, 587942, Note_on_c, 0, 70, 64
1, 587971, Note_on_c, 0, 53, 34
1, 588041, Control_c, 0, 64, 117
1, 588056, Control_c, 0, 64, 109
1, 588070, Control_c, 0, 64, 102
1, 588085, Control_c, 0, 64, 97
1, 588100, Control_c, 0, 64, 90
1, 588115, Control_c, 0, 64, 79
1, 588129, Control_c, 0, 64, 68
1, 588144, Control_c, 0, 64, 56
1, 588158, Control_c, 0, 64, 46
1, 588173, Control_c, 0, 64, 39
1, 588188, Control_c, 0, 64, 38
1, 588203, Control_c, 0, 64, 39
1, 588218, Control_c, 0, 64, 48
1, 588232, Control_c, 0, 64, 58
1, 588247, Control_c, 0, 64, 66
1, 588262, Control_c, 0, 64, 72
1, 588264, Note_on_c, 0, 56, 34
1, 588273, Note_on_c, 0, 61, 42
1, 588277, Control_c, 0, 64, 78
1, 588292, Control_c, 0, 64, 81
1, 588306, Control_c, 0, 64, 84
1, 588321, Control_c, 0, 64, 90
1, 588336, Control_c, 0, 64, 97
1, 588340, Note_off_c, 0, 61, 57
1, 588351, Control_c, 0, 64, 103
1, 588366, Control_c, 0, 64, 106
1, 588379, Note_off_c, 0, 56, 52
1, 588398, Note_off_c, 0, 53, 51
1, 588410, Control_c, 0, 64, 108
1, 588544, Note_on_c, 0, 44, 36
1, 588693, Note_off_c, 0, 44, 34
1, 588878, Control_c, 0, 64, 106
1, 588882, Note_on_c, 0, 52, 37
1, 588938, Control_c, 0, 64, 103
1, 588953, Control_c, 0, 64, 100
1, 588968, Control_c, 0, 64, 93
1, 588982, Control_c, 0, 64, 82
1, 588997, Control_c, 0, 64, 68
1, 589012, Control_c, 0, 64, 56
1, 589027, Control_c, 0, 64, 45
1, 589042, Control_c, 0, 64, 41
1, 589071, Control_c, 0, 64, 45
1, 589086, Control_c, 0, 64, 54
1, 589101, Control_c, 0, 64, 64
1, 589115, Control_c, 0, 64, 70
1, 589130, Control_c, 0, 64, 74
1, 589145, Control_c, 0, 64, 76
1, 589160, Control_c, 0, 64, 78
1, 589174, Control_c, 0, 64, 81
1, 589189, Control_c, 0, 64, 85
1, 589204, Control_c, 0, 64, 90
1, 589219, Control_c, 0, 64, 94
1, 589235, Control_c, 0, 64, 97
1, 589248, Note_on_c, 0, 71, 48
1, 589250, Control_c, 0, 64, 99
1, 589251, Note_on_c, 0, 62, 47
1, 589265, Control_c, 0, 64, 103
1, 589272, Note_on_c, 0, 55, 35
1, 589279, Control_c, 0, 64, 107
1, 589294, Control_c, 0, 64, 110
1, 589316, Control_c, 0, 64, 113
1, 589317, Note_off_c, 0, 70, 50
1, 589331, Control_c, 0, 64, 116
1, 589346, Control_c, 0, 64, 119
1, 589355, Note_off_c, 0, 62, 52
1, 589361, Control_c, 0, 64, 123
1, 589376, Control_c, 0, 64, 126
1, 589470, Note_off_c, 0, 55, 42
1, 589561, Note_off_c, 0, 52, 40
1, 589616, Note_on_c, 0, 72, 53
1, 589650, Note_off_c, 0, 71, 49
1, 589686, Poly_aftertouch_c, 0, 44, 127
1, 589728, Poly_aftertouch_c, 0, 44, 0
1, 589819, Control_c, 0, 64, 123
1, 589908, Control_c, 0, 64, 120
1, 589967, Control_c, 0, 64, 117
1, 589990, Note_off_c, 0, 72, 55
1, 589997, Control_c, 0, 64, 115
1, 590023, Note_on_c, 0, 53, 38
1, 590024, Note_on_c, 0, 71, 47
1, 590027, Control_c, 0, 64, 112
1, 590042, Control_c, 0, 64, 110
1, 590065, Control_c, 0, 64, 108
1, 590080, Control_c, 0, 64, 105
1, 590094, Control_c, 0, 64, 103
1, 590109, Control_c, 0, 64, 100
1, 590139, Control_c, 0, 64, 97
1, 590153, Control_c, 0, 64, 95
1, 590168, Control_c, 0, 64, 93
1, 590183, Control_c, 0, 64, 92
1, 590198, Control_c, 0, 64, 90
1, 590213, Control_c, 0, 64, 86
1, 590228, Control_c, 0, 64, 78
1, 590242, Control_c, 0, 64, 66
1, 590257, Control_c, 0, 64, 53
1, 590272, Control_c, 0, 64, 45
1, 590287, Control_c, 0, 64, 41
1, 590302, Control_c, 0, 64, 41
1, 590316, Control_c, 0, 64, 42
1, 590331, Control_c, 0, 64, 48
1, 590346, Control_c, 0, 64, 55
1, 590360, Control_c, 0, 64, 62
1, 590375, Control_c, 0, 64, 65
1, 590390, Control_c, 0, 64, 67
1, 590405, Control_c, 0, 64, 69
1, 590420, Control_c, 0, 64, 73
1, 590434, Control_c, 0, 64, 77
1, 590447, Note_on_c, 0, 72, 40
1, 590449, Note_on_c, 0, 63, 40
1, 590449, Control_c, 0, 64, 82
1, 590450, Note_on_c, 0, 56, 37
1, 590464, Control_c, 0, 64, 85
1, 590479, Control_c, 0, 64, 88
1, 590494, Control_c, 0, 64, 89
1, 590509, Control_c, 0, 64, 91
1, 590512, Note_off_c, 0, 71, 44
1, 590523, Note_off_c, 0, 63, 51
1, 590524, Control_c, 0, 64, 93
1, 590539, Control_c, 0, 64, 96
1, 590553, Control_c, 0, 64, 98
1, 590568, Control_c, 0, 64, 100
1, 590598, Control_c, 0, 64, 104
1, 590613, Control_c, 0, 64, 106
1, 590642, Control_c, 0, 64, 109
1, 590649, Note_off_c, 0, 56, 35
1, 590658, Note_off_c, 0, 53, 34
1, 590701, Control_c, 0, 64, 111
1, 590775, Control_c, 0, 64, 113
1, 590921, Note_on_c, 0, 73, 50
1, 590945, Note_on_c, 0, 44, 30
1, 590981, Note_off_c, 0, 72, 42
1, 591047, Note_off_c, 0, 44, 36
1, 591488, Note_on_c, 0, 54, 36
1, 591500, Note_on_c, 0, 72, 44
1, 591557, Note_off_c, 0, 73, 35
1, 591561, Control_c, 0, 64, 111
1, 591591, Control_c, 0, 64, 107
1, 591606, Control_c, 0, 64, 101
1, 591621, Control_c, 0, 64, 93
1, 591636, Control_c, 0, 64, 80
1, 591651, Control_c, 0, 64, 67
1, 591666, Control_c, 0, 64, 52
1, 591680, Control_c, 0, 64, 0
1, 591785, Control_c, 0, 64, 39
1, 591800, Control_c, 0, 64, 58
1, 591814, Control_c, 0, 64, 70
1, 591829, Control_c, 0, 64, 78
1, 591841, Note_on_c, 0, 73, 45
1, 591844, Control_c, 0, 64, 84
1, 591859, Control_c, 0, 64, 89
1, 591866, Note_off_c, 0, 72, 36
1, 591873, Control_c, 0, 64, 95
1, 591888, Control_c, 0, 64, 106
1, 591903, Control_c, 0, 64, 121
1, 591918, Control_c, 0, 64, 127
1, 592028, Note_off_c, 0, 73, 54
1, 592029, Note_on_c, 0, 72, 37
1, 592113, Note_off_c, 0, 72, 56
1, 592164, Note_on_c, 0, 73, 41
1, 592204, Note_off_c, 0, 73, 57
1, 592249, Note_on_c, 0, 72, 40
1, 592282, Note_off_c, 0, 72, 54
1, 592306, Note_on_c, 0, 73, 58
1, 592357, Note_off_c, 0, 73, 51
1, 592376, Note_on_c, 0, 57, 31
1, 592385, Note_on_c, 0, 72, 53
1, 592400, Note_on_c, 0, 64, 25
1, 592439, Note_off_c, 0, 72, 56
1, 592474, Note_on_c, 0, 73, 53
1, 592499, Note_off_c, 0, 73, 62
1, 592548, Note_on_c, 0, 72, 54
1, 592579, Note_on_c, 0, 73, 59
1, 592579, Note_off_c, 0, 72, 62
1, 592611, Note_off_c, 0, 64, 45
1, 592626, Note_off_c, 0, 73, 55
1, 592662, Note_on_c, 0, 72, 58
1, 592696, Note_off_c, 0, 72, 63
1, 592723, Note_on_c, 0, 73, 53
1, 592746, Note_off_c, 0, 57, 52
1, 592758, Note_off_c, 0, 73, 62
1, 592789, Note_on_c, 0, 72, 45
1, 592792, Note_off_c, 0, 54, 58
1, 592828, Note_off_c, 0, 72, 61
1, 592857, Note_on_c, 0, 73, 45
1, 592894, Note_off_c, 0, 73, 57
1, 592951, Note_on_c, 0, 72, 39
1, 592989, Note_off_c, 0, 72, 55
1, 593012, Note_on_c, 0, 73, 43
1, 593095, Note_off_c, 0, 73, 57
1, 593114, Note_on_c, 0, 72, 46
1, 593200, Note_on_c, 0, 44, 27
1, 593207, Note_on_c, 0, 55, 27
1, 593222, Note_off_c, 0, 72, 52
1, 593226, Note_on_c, 0, 73, 55
1, 593311, Note_off_c, 0, 55, 47
1, 593338, Note_off_c, 0, 44, 35
1, 593366, Note_on_c, 0, 72, 52
1, 593411, Note_off_c, 0, 73, 27
1, 593494, Note_on_c, 0, 73, 29
1, 593514, Note_off_c, 0, 72, 53
1, 593636, Note_on_c, 0, 72, 37
1, 593706, Note_off_c, 0, 73, 25
1, 593834, Note_on_c, 0, 70, 45
1, 593863, Note_off_c, 0, 72, 32
1, 594043, Note_off_c, 0, 70, 37
1, 594046, Note_on_c, 0, 72, 42
1, 594495, Note_off_c, 0, 72, 35
1, 594528, Note_on_c, 0, 73, 41
1, 594557, Note_on_c, 0, 56, 25
1, 594587, Note_on_c, 0, 49, 27
1, 594622, Note_off_c, 0, 56, 0
1, 594622, Note_on_c, 0, 56, 5
1, 594675, Control_c, 0, 64, 110
1, 594690, Control_c, 0, 64, 88
1, 594705, Control_c, 0, 64, 71
1, 594720, Control_c, 0, 64, 58
1, 594734, Control_c, 0, 64, 45
1, 594749, Control_c, 0, 64, 39
1, 594764, Control_c, 0, 64, 42
1, 594779, Control_c, 0, 64, 52
1, 594793, Control_c, 0, 64, 64
1, 594808, Control_c, 0, 64, 76
1, 594824, Control_c, 0, 64, 91
1, 594839, Control_c, 0, 64, 104
1, 594854, Control_c, 0, 64, 111
1, 594869, Control_c, 0, 64, 127
1, 594929, Note_off_c, 0, 49, 40
1, 594974, Note_off_c, 0, 56, 41
1, 595222, Note_on_c, 0, 61, 27
1, 595232, Note_on_c, 0, 65, 19
1, 595402, Note_off_c, 0, 65, 40
1, 595537, Note_on_c, 0, 58, 31
1, 595613, Note_off_c, 0, 61, 41
1, 595855, Note_on_c, 0, 63, 37
1, 595960, Note_off_c, 0, 58, 41
1, 596300, Note_on_c, 0, 70, 46
1, 596322, Note_on_c, 0, 65, 23
1, 596405, Note_off_c, 0, 65, 34
1, 596482, Note_off_c, 0, 70, 43
1, 596760, Note_on_c, 0, 61, 32
1, 596920, Note_off_c, 0, 63, 41
1, 597464, Note_on_c, 0, 68, 41
1, 597612, Control_c, 0, 64, 113
1, 597627, Control_c, 0, 64, 105
1, 597642, Control_c, 0, 64, 95
1, 597657, Control_c, 0, 64, 84
1, 597671, Control_c, 0, 64, 72
1, 597686, Control_c, 0, 64, 61
1, 597701, Control_c, 0, 64, 54
1, 597716, Control_c, 0, 64, 50
1, 597731, Control_c, 0, 64, 49
1, 597745, Control_c, 0, 64, 49
1, 597760, Control_c, 0, 64, 51
1, 597775, Control_c, 0, 64, 55
1, 597790, Control_c, 0, 64, 60
1, 597805, Control_c, 0, 64, 65
1, 597819, Control_c, 0, 64, 70
1, 597834, Control_c, 0, 64, 75
1, 597849, Control_c, 0, 64, 80
1, 597863, Control_c, 0, 64, 84
1, 597878, Control_c, 0, 64, 88
1, 597893, Control_c, 0, 64, 94
1, 597907, Control_c, 0, 64, 103
1, 597922, Control_c, 0, 64, 112
1, 597937, Control_c, 0, 64, 127
1, 598037, Note_off_c, 0, 61, 42
1, 598594, Note_on_c, 0, 77, 34
1, 598705, Note_off_c, 0, 77, 42
1, 598805, Note_off_c, 0, 68, 36
1, 599844, Control_c, 0, 64, 121
1, 599859, Control_c, 0, 64, 118
1, 599874, Control_c, 0, 64, 116
1, 599903, Control_c, 0, 64, 113
1, 599918, Control_c, 0, 64, 111
1, 599947, Control_c, 0, 64, 108
1, 599977, Control_c, 0, 64, 106
1, 600007, Control_c, 0, 64, 103
1, 600036, Control_c, 0, 64, 101
1, 600066, Control_c, 0, 64, 99
1, 600110, Control_c, 0, 64, 97
1, 600155, Control_c, 0, 64, 96
1, 600170, Control_c, 0, 64, 95
1, 600185, Control_c, 0, 64, 94
1, 600214, Control_c, 0, 64, 94
1, 600244, Control_c, 0, 64, 93
1, 600273, Control_c, 0, 64, 93
1, 600303, Control_c, 0, 64, 92
1, 600333, Control_c, 0, 64, 92
1, 600362, Control_c, 0, 64, 91
1, 600377, Control_c, 0, 64, 91
1, 600408, Control_c, 0, 64, 90
1, 600437, Control_c, 0, 64, 90
1, 600467, Control_c, 0, 64, 89
1, 600482, Control_c, 0, 64, 89
1, 600496, Control_c, 0, 64, 88
1, 600526, Control_c, 0, 64, 88
1, 600549, Control_c, 0, 64, 87
1, 600563, Control_c, 0, 64, 86
1, 600578, Control_c, 0, 64, 86
1, 600593, Control_c, 0, 64, 85
1, 600608, Control_c, 0, 64, 84
1, 600623, Control_c, 0, 64, 84
1, 600638, Control_c, 0, 64, 83
1, 600652, Control_c, 0, 64, 81
1, 600667, Control_c, 0, 64, 79
1, 600682, Control_c, 0, 64, 78
1, 600696, Control_c, 0, 64, 77
1, 600711, Control_c, 0, 64, 76
1, 600726, Control_c, 0, 64, 74
1, 600741, Control_c, 0, 64, 73
1, 600756, Control_c, 0, 64, 71
1, 600770, Control_c, 0, 64, 70
1, 600785, Control_c, 0, 64, 69
1, 600800, Control_c, 0, 64, 69
1, 600815, Control_c, 0, 64, 68
1, 600830, Control_c, 0, 64, 68
1, 600917, Control_c, 0, 64, 67
1, 600991, Control_c, 0, 64, 67
1, 601021, Control_c, 0, 64, 66
1, 601035, Control_c, 0, 64, 66
1, 601065, Control_c, 0, 64, 65
1, 601080, Control_c, 0, 64, 65
1, 601124, Control_c, 0, 64, 64
1, 601139, Control_c, 0, 64, 64
1, 601154, Control_c, 0, 64, 63
1, 601355, Control_c, 0, 64, 64
1, 601370, Control_c, 0, 64, 64
1, 601385, Control_c, 0, 64, 65
1, 601399, Control_c, 0, 64, 66
1, 601414, Control_c, 0, 64, 67
1, 601429, Control_c, 0, 64, 68
1, 601444, Control_c, 0, 64, 69
1, 601459, Control_c, 0, 64, 70
1, 601473, Control_c, 0, 64, 73
1, 601488, Control_c, 0, 64, 76
1, 601503, Control_c, 0, 64, 79
1, 601517, Control_c, 0, 64, 81
1, 601532, Control_c, 0, 64, 83
1, 601547, Control_c, 0, 64, 85
1, 601562, Control_c, 0, 64, 88
1, 601577, Control_c, 0, 64, 89
1, 601592, Control_c, 0, 64, 90
1, 601607, Control_c, 0, 64, 92
1, 601622, Control_c, 0, 64, 94
1, 601637, Control_c, 0, 64, 95
1, 601651, Control_c, 0, 64, 97
1, 601666, Control_c, 0, 64, 99
1, 601696, Control_c, 0, 64, 101
1, 601714, Note_off_c, 0, 73, 36
1, 601755, Control_c, 0, 64, 103
1, 602163, Control_c, 0, 64, 101
1, 602237, Control_c, 0, 64, 99
1, 602296, Control_c, 0, 64, 97
1, 602340, Control_c, 0, 64, 96
1, 602356, Control_c, 0, 64, 95
1, 602371, Control_c, 0, 64, 94
1, 602386, Control_c, 0, 64, 94
1, 602415, Control_c, 0, 64, 93
1, 602445, Control_c, 0, 64, 93
1, 602459, Control_c, 0, 64, 92
1, 602504, Control_c, 0, 64, 92
1, 602519, Control_c, 0, 64, 91
1, 602534, Control_c, 0, 64, 91
1, 602549, Control_c, 0, 64, 90
1, 602593, Control_c, 0, 64, 90
1, 602608, Control_c, 0, 64, 89
1, 602623, Control_c, 0, 64, 88
1, 602638, Control_c, 0, 64, 88
1, 602653, Control_c, 0, 64, 87
1, 602667, Control_c, 0, 64, 86
1, 602682, Control_c, 0, 64, 85
1, 602697, Control_c, 0, 64, 84
1, 602712, Control_c, 0, 64, 82
1, 602727, Control_c, 0, 64, 80
1, 602741, Control_c, 0, 64, 78
1, 602756, Control_c, 0, 64, 77
1, 602771, Control_c, 0, 64, 76
1, 602793, Control_c, 0, 64, 74
1, 602808, Control_c, 0, 64, 72
1, 602824, Control_c, 0, 64, 70
1, 602838, Control_c, 0, 64, 69
1, 602853, Control_c, 0, 64, 69
1, 602868, Control_c, 0, 64, 68
1, 602883, Control_c, 0, 64, 67
1, 602897, Control_c, 0, 64, 67
1, 602912, Control_c, 0, 64, 66
1, 602957, Control_c, 0, 64, 66
1, 602972, Control_c, 0, 64, 65
1, 602987, Control_c, 0, 64, 64
1, 603002, Control_c, 0, 64, 63
1, 603017, Control_c, 0, 64, 62
1, 603046, Control_c, 0, 64, 62
1, 603061, Control_c, 0, 64, 61
1, 603076, Control_c, 0, 64, 60
1, 603090, Control_c, 0, 64, 60
1, 603105, Control_c, 0, 64, 59
1, 603135, Control_c, 0, 64, 58
1, 603150, Control_c, 0, 64, 58
1, 603164, Control_c, 0, 64, 57
1, 603179, Control_c, 0, 64, 57
1, 603209, Control_c, 0, 64, 56
1, 603224, Control_c, 0, 64, 55
1, 603238, Control_c, 0, 64, 53
1, 603253, Control_c, 0, 64, 52
1, 603282, Control_c, 0, 64, 52
1, 603297, Control_c, 0, 64, 50
1, 603312, Control_c, 0, 64, 46
1, 603327, Control_c, 0, 64, 43
1, 603342, Control_c, 0, 64, 40
1, 603357, Control_c, 0, 64, 38
1, 603371, Control_c, 0, 64, 33
1, 603386, Control_c, 0, 64, 0
1, 603669, Note_on_c, 0, 62, 56
1, 603670, Note_on_c, 0, 69, 59
1, 603690, Note_off_c, 0, 69, 64
1, 603690, Note_off_c, 0, 62, 61
1, 603923, Note_on_c, 0, 74, 65
1, 603928, Note_on_c, 0, 69, 56
1, 603928, Control_c, 0, 64, 37
1, 603943, Control_c, 0, 64, 66
1, 603950, Note_off_c, 0, 69, 63
1, 603950, Note_off_c, 0, 74, 67
1, 603958, Control_c, 0, 64, 82
1, 603973, Control_c, 0, 64, 104
1, 603987, Control_c, 0, 64, 127
1, 604155, Note_on_c, 0, 69, 53
1, 604155, Note_on_c, 0, 81, 61
1, 604192, Note_off_c, 0, 69, 61
1, 604203, Note_on_c, 0, 77, 75
1, 604209, Control_c, 0, 67, 109
1, 604218, Note_on_c, 0, 65, 76
1, 604224, Control_c, 0, 67, 92
1, 604226, Note_off_c, 0, 81, 61
1, 604239, Control_c, 0, 67, 75
1, 604248, Note_off_c, 0, 77, 66
1, 604254, Control_c, 0, 67, 54
1, 604255, Note_off_c, 0, 65, 62
1, 604256, Note_on_c, 0, 74, 74
1, 604263, Note_on_c, 0, 62, 59
1, 604269, Control_c, 0, 64, 100
1, 604269, Control_c, 0, 67, 38
1, 604287, Note_off_c, 0, 74, 70
1, 604291, Control_c, 0, 64, 76
1, 604291, Control_c, 0, 67, 0
1, 604292, Note_off_c, 0, 62, 61
1, 604306, Control_c, 0, 64, 58
1, 604320, Control_c, 0, 64, 0
1, 604452, Note_on_c, 0, 53, 72
1, 604452, Note_on_c, 0, 58, 75
1, 604476, Note_off_c, 0, 58, 66
1, 604478, Note_off_c, 0, 53, 66
1, 604622, Note_on_c, 0, 65, 81
1, 604623, Note_on_c, 0, 58, 72
1, 604647, Note_off_c, 0, 58, 66
1, 604647, Control_c, 0, 64, 62
1, 604655, Note_off_c, 0, 65, 66
1, 604661, Control_c, 0, 64, 89
1, 604676, Control_c, 0, 64, 127
1, 604831, Note_on_c, 0, 61, 69
1, 604840, Note_on_c, 0, 73, 45
1, 604878, Note_on_c, 0, 70, 79
1, 604887, Note_off_c, 0, 61, 63
1, 604898, Note_on_c, 0, 58, 73
1, 604936, Note_off_c, 0, 70, 64
1, 604936, Note_off_c, 0, 73, 45
1, 604941, Note_on_c, 0, 65, 80
1, 604945, Note_on_c, 0, 53, 55
1, 604948, Note_off_c, 0, 58, 63
1, 604962, Note_off_c, 0, 65, 71
1, 604972, Note_off_c, 0, 53, 62
1, 604972, Control_c, 0, 64, 80
1, 604987, Control_c, 0, 64, 57
1, 605002, Control_c, 0, 64, 0
1, 605127, Note_on_c, 0, 64, 82
1, 605132, Note_on_c, 0, 57, 74
1, 605133, Note_on_c, 0, 52, 70
1, 605147, Note_off_c, 0, 64, 72
1, 605160, Note_off_c, 0, 52, 64
1, 605162, Note_off_c, 0, 57, 70
1, 605306, Note_on_c, 0, 64, 84
1, 605307, Note_on_c, 0, 57, 94
1, 605307, Note_on_c, 0, 69, 93
1, 605321, Control_c, 0, 64, 48
1, 605327, Note_off_c, 0, 57, 73
1, 605336, Control_c, 0, 64, 90
1, 605338, Note_off_c, 0, 64, 64
1, 605352, Control_c, 0, 64, 127
1, 605357, Note_off_c, 0, 69, 65
1, 605514, Note_on_c, 0, 76, 81
1, 605522, Note_on_c, 0, 64, 79
1, 605577, Note_on_c, 0, 73, 83
1, 605580, Note_off_c, 0, 64, 56
1, 605592, Note_on_c, 0, 61, 82
1, 605612, Note_off_c, 0, 76, 60
1, 605614, Note_on_c, 0, 57, 78
1, 605625, Note_off_c, 0, 61, 63
1, 605628, Note_off_c, 0, 73, 65
1, 605630, Note_on_c, 0, 69, 89
1, 605638, Note_off_c, 0, 57, 71
1, 605658, Note_off_c, 0, 69, 63
1, 605737, Control_c, 0, 64, 88
1, 605751, Control_c, 0, 64, 65
1, 605766, Control_c, 0, 64, 0
1, 605882, Note_on_c, 0, 52, 72
1, 605884, Note_on_c, 0, 33, 40
1, 605895, Note_on_c, 0, 40, 56
1, 605918, Note_off_c, 0, 52, 58
1, 605921, Note_off_c, 0, 33, 43
1, 605928, Note_off_c, 0, 40, 63
1, 605937, Control_c, 0, 64, 43
1, 605938, Note_on_c, 0, 45, 71
1, 605945, Note_on_c, 0, 53, 66
1, 605951, Control_c, 0, 64, 91
1, 605966, Control_c, 0, 64, 127
1, 605971, Note_off_c, 0, 45, 66
1, 606004, Note_on_c, 0, 56, 81
1, 606007, Note_off_c, 0, 53, 61
1, 606036, Note_on_c, 0, 49, 71
1, 606054, Note_off_c, 0, 56, 65
1, 606064, Note_on_c, 0, 52, 77
1, 606069, Note_off_c, 0, 49, 66
1, 606069, Note_on_c, 0, 57, 84
1, 606101, Note_on_c, 0, 53, 85
1, 606135, Note_on_c, 0, 58, 59
1, 606146, Note_off_c, 0, 53, 63
1, 606170, Note_off_c, 0, 58, 48
1, 606173, Note_on_c, 0, 49, 87
1, 606188, Note_off_c, 0, 52, 64
1, 606194, Note_on_c, 0, 56, 55
1, 606205, Note_off_c, 0, 49, 64
1, 606221, Note_off_c, 0, 57, 64
1, 606234, Note_on_c, 0, 53, 78
1, 606248, Note_off_c, 0, 56, 65
1, 606257, Note_on_c, 0, 45, 77
1, 606258, Note_off_c, 0, 53, 68
1, 606269, Note_on_c, 0, 52, 65
1, 606281, Note_off_c, 0, 45, 66
1, 606310, Note_on_c, 0, 35, 97
1, 606328, Note_off_c, 0, 52, 66
1, 606331, Note_off_c, 0, 35, 70
1, 606332, Note_on_c, 0, 51, 67
1, 606339, Note_on_c, 0, 50, 58
1, 606355, Note_off_c, 0, 51, 63
1, 606364, Note_off_c, 0, 50, 61
1, 606412, Control_c, 0, 64, 97
1, 606426, Control_c, 0, 64, 66
1, 606441, Control_c, 0, 64, 0
1, 606661, Note_on_c, 0, 69, 78
1, 606662, Note_on_c, 0, 62, 73
1, 606683, Note_off_c, 0, 69, 70
1, 606685, Note_off_c, 0, 62, 67
1, 606865, Note_on_c, 0, 74, 77
1, 606871, Note_on_c, 0, 69, 63
1, 606879, Control_c, 0, 64, 38
1, 606888, Note_off_c, 0, 74, 71
1, 606891, Note_off_c, 0, 69, 65
1, 606894, Control_c, 0, 64, 86
1, 606909, Control_c, 0, 64, 127
1, 607072, Note_on_c, 0, 81, 64
1, 607088, Note_on_c, 0, 69, 69
1, 607123, Note_on_c, 0, 77, 83
1, 607127, Note_off_c, 0, 69, 57
1, 607145, Note_off_c, 0, 81, 58
1, 607147, Note_on_c, 0, 65, 86
1, 607173, Note_on_c, 0, 62, 77
1, 607175, Note_off_c, 0, 77, 66
1, 607179, Note_on_c, 0, 74, 91
1, 607181, Note_off_c, 0, 65, 64
1, 607190, Control_c, 0, 64, 71
1, 607197, Note_off_c, 0, 62, 69
1, 607199, Note_off_c, 0, 74, 70
1, 607205, Control_c, 0, 64, 0
1, 607369, Note_on_c, 0, 57, 79
1, 607372, Note_on_c, 0, 62, 82
1, 607393, Note_off_c, 0, 62, 71
1, 607393, Note_off_c, 0, 57, 67
1, 607561, Note_on_c, 0, 62, 72
1, 607561, Note_on_c, 0, 69, 80
1, 607568, Control_c, 0, 64, 62
1, 607582, Control_c, 0, 64, 91
1, 607586, Note_off_c, 0, 69, 66
1, 607586, Note_off_c, 0, 62, 67
1, 607598, Control_c, 0, 64, 127
1, 607630, Poly_aftertouch_c, 0, 68, 127
1, 607661, Poly_aftertouch_c, 0, 68, 0
1, 607745, Note_on_c, 0, 77, 72
1, 607765, Note_on_c, 0, 65, 62
1, 607799, Note_off_c, 0, 65, 61
1, 607814, Note_on_c, 0, 74, 83
1, 607821, Note_on_c, 0, 62, 76
1, 607832, Note_off_c, 0, 77, 55
1, 607854, Note_off_c, 0, 74, 64
1, 607861, Note_on_c, 0, 71, 82
1, 607862, Note_off_c, 0, 62, 63
1, 607864, Note_on_c, 0, 59, 63
1, 607865, Control_c, 0, 64, 98
1, 607879, Note_off_c, 0, 71, 71
1, 607879, Control_c, 0, 64, 65
1, 607882, Note_off_c, 0, 59, 63
1, 607894, Control_c, 0, 64, 0
1, 608047, Note_on_c, 0, 67, 82
1, 608050, Note_on_c, 0, 60, 79
1, 608052, Note_on_c, 0, 55, 74
1, 608066, Note_off_c, 0, 67, 73
1, 608077, Note_off_c, 0, 55, 67
1, 608087, Note_off_c, 0, 60, 66
1, 608229, Note_on_c, 0, 60, 94
1, 608232, Note_on_c, 0, 67, 83
1, 608232, Note_on_c, 0, 72, 87
1, 608242, Control_c, 0, 64, 79
1, 608248, Note_off_c, 0, 60, 73
1, 608257, Note_off_c, 0, 67, 67
1, 608257, Control_c, 0, 64, 127
1, 608279, Note_off_c, 0, 72, 65
1, 608286, Note_on_c, 0, 71, 4
1, 608286, Note_off_c, 0, 71, 127
1, 608340, Poly_aftertouch_c, 0, 71, 0
1, 608436, Note_on_c, 0, 79, 74
1, 608441, Note_on_c, 0, 67, 78
1, 608493, Note_on_c, 0, 76, 86
1, 608502, Note_on_c, 0, 64, 80
1, 608503, Note_off_c, 0, 67, 62
1, 608527, Note_off_c, 0, 79, 57
1, 608532, Note_on_c, 0, 60, 81
1, 608543, Note_off_c, 0, 64, 66
1, 608544, Note_on_c, 0, 77, 16
1, 608550, Note_off_c, 0, 76, 67
1, 608552, Note_on_c, 0, 72, 91
1, 608560, Note_off_c, 0, 60, 66
1, 608582, Note_off_c, 0, 72, 60
1, 608585, Note_off_c, 0, 77, 46
1, 608673, Control_c, 0, 64, 99
1, 608688, Control_c, 0, 64, 76
1, 608702, Control_c, 0, 64, 59
1, 608717, Control_c, 0, 64, 0
1, 608789, Poly_aftertouch_c, 0, 44, 0
1, 608792, Note_on_c, 0, 36, 68
1, 608804, Note_on_c, 0, 43, 65
1, 608806, Note_on_c, 0, 55, 77
1, 608830, Note_off_c, 0, 36, 65
1, 608842, Note_off_c, 0, 43, 65
1, 608843, Control_c, 0, 64, 44
1, 608851, Note_off_c, 0, 55, 60
1, 608858, Control_c, 0, 64, 80
1, 608861, Note_on_c, 0, 48, 79
1, 608873, Control_c, 0, 64, 127
1, 608878, Note_on_c, 0, 56, 74
1, 608906, Note_off_c, 0, 48, 61
1, 608923, Note_on_c, 0, 59, 83
1, 608927, Note_off_c, 0, 56, 63
1, 608963, Note_on_c, 0, 52, 72
1, 608972, Note_off_c, 0, 59, 64
1, 608989, Note_off_c, 0, 52, 65
1, 608996, Note_on_c, 0, 60, 81
1, 609014, Note_on_c, 0, 55, 72
1, 609053, Note_off_c, 0, 60, 0
1, 609059, Note_on_c, 0, 56, 81
1, 609065, Note_on_c, 0, 61, 73
1, 609091, Poly_aftertouch_c, 0, 60, 127
1, 609108, Note_off_c, 0, 56, 50
1, 609118, Note_on_c, 0, 59, 70
1, 609140, Note_off_c, 0, 61, 54
1, 609141, Note_on_c, 0, 52, 79
1, 609146, Note_off_c, 0, 55, 61
1, 609163, Note_off_c, 0, 52, 71
1, 609166, Note_on_c, 0, 56, 68
1, 609181, Note_off_c, 0, 59, 63
1, 609181, Poly_aftertouch_c, 0, 60, 0
1, 609206, Note_off_c, 0, 56, 63
1, 609214, Note_on_c, 0, 55, 70
1, 609234, Note_on_c, 0, 48, 75
1, 609258, Note_off_c, 0, 48, 69
1, 609262, Note_on_c, 0, 52, 94
1, 609273, Note_on_c, 0, 36, 92
1, 609273, Note_off_c, 0, 55, 67
1, 609285, Note_on_c, 0, 38, 73
1, 609294, Note_off_c, 0, 52, 66
1, 609300, Note_off_c, 0, 36, 66
1, 609314, Note_off_c, 0, 38, 65
1, 609363, Control_c, 0, 64, 83
1, 609378, Control_c, 0, 64, 59
1, 609393, Control_c, 0, 64, 0
1, 609529, Note_on_c, 0, 55, 100
1, 609529, Note_on_c, 0, 64, 89
1, 609531, Note_on_c, 0, 60, 90
1, 609534, Note_on_c, 0, 67, 85
1, 609536, Note_on_c, 0, 36, 100
1, 609536, Note_on_c, 0, 48, 102
1, 609570, Note_off_c, 0, 55, 65
1, 609580, Note_off_c, 0, 60, 65
1, 609584, Note_off_c, 0, 48, 65
1, 609601, Note_off_c, 0, 64, 64
1, 609607, Note_off_c, 0, 67, 62
1, 609615, Note_off_c, 0, 36, 54
1, 609755, Note_on_c, 0, 57, 95
1, 609760, Note_on_c, 0, 41, 100
1, 609760, Note_on_c, 0, 60, 91
1, 609760, Note_on_c, 0, 65, 76
1, 609760, Note_on_c, 0, 48, 106
1, 609764, Note_on_c, 0, 69, 90
1, 609775, Note_off_c, 0, 57, 73
1, 609780, Note_off_c, 0, 60, 72
1, 609785, Control_c, 0, 64, 85
1, 609797, Note_off_c, 0, 41, 67
1, 609798, Note_off_c, 0, 48, 66
1, 609800, Control_c, 0, 64, 127
1, 609804, Note_off_c, 0, 65, 64
1, 609819, Note_off_c, 0, 69, 65
1, 609985, Note_on_c, 0, 84, 68
1, 609990, Note_on_c, 0, 86, 58
1, 610004, Note_on_c, 0, 72, 77
1, 610028, Note_off_c, 0, 86, 49
1, 610031, Note_on_c, 0, 81, 84
1, 610052, Note_on_c, 0, 83, 53
1, 610067, Note_off_c, 0, 72, 64
1, 610070, Note_on_c, 0, 69, 82
1, 610074, Note_off_c, 0, 84, 63
1, 610075, Note_off_c, 0, 83, 61
1, 610089, Note_off_c, 0, 69, 69
1, 610089, Note_off_c, 0, 81, 65
1, 610090, Note_on_c, 0, 77, 89
1, 610095, Note_on_c, 0, 65, 71
1, 610109, Note_off_c, 0, 77, 71
1, 610126, Note_off_c, 0, 65, 65
1, 610141, Control_c, 0, 64, 87
1, 610156, Control_c, 0, 64, 53
1, 610171, Control_c, 0, 64, 0
1, 610331, Note_on_c, 0, 68, 73
1, 610332, Note_on_c, 0, 49, 70
1, 610334, Note_on_c, 0, 56, 73
1, 610334, Note_on_c, 0, 61, 68
1, 610337, Note_on_c, 0, 37, 67
1, 610362, Note_off_c, 0, 56, 65
1, 610363, Note_off_c, 0, 49, 62
1, 610366, Note_off_c, 0, 61, 64
1, 610374, Note_off_c, 0, 37, 62
1, 610388, Note_off_c, 0, 68, 62
1, 610529, Note_on_c, 0, 42, 64
1, 610532, Note_on_c, 0, 61, 62
1, 610534, Control_c, 0, 64, 49
1, 610536, Note_on_c, 0, 49, 63
1, 610538, Note_on_c, 0, 57, 50
1, 610542, Note_on_c, 0, 69, 57
1, 610548, Control_c, 0, 64, 80
1, 610555, Note_off_c, 0, 61, 64
1, 610559, Note_off_c, 0, 42, 63
1, 610562, Note_off_c, 0, 57, 57
1, 610563, Control_c, 0, 64, 127
1, 610564, Note_off_c, 0, 49, 64
1, 610567, Note_off_c, 0, 69, 64
1, 610709, Note_on_c, 0, 73, 60
1, 610743, Note_on_c, 0, 61, 73
1, 610768, Note_on_c, 0, 69, 76
1, 610808, Note_off_c, 0, 61, 63
1, 610810, Note_on_c, 0, 57, 57
1, 610815, Note_off_c, 0, 73, 63
1, 610823, Note_on_c, 0, 54, 74
1, 610824, Note_on_c, 0, 66, 88
1, 610829, Note_off_c, 0, 69, 65
1, 610833, Note_off_c, 0, 57, 63
1, 610845, Note_off_c, 0, 54, 67
1, 610851, Note_off_c, 0, 66, 64
1, 610875, Control_c, 0, 64, 84
1, 610890, Control_c, 0, 64, 60
1, 610904, Control_c, 0, 64, 0
1, 611045, Note_on_c, 0, 56, 88
1, 611045, Note_on_c, 0, 63, 83
1, 611047, Note_on_c, 0, 44, 100
1, 611047, Note_on_c, 0, 51, 92
1, 611050, Note_on_c, 0, 32, 104
1, 611058, Note_on_c, 0, 60, 71
1, 611093, Note_off_c, 0, 51, 64
1, 611098, Note_off_c, 0, 56, 65
1, 611100, Note_off_c, 0, 60, 63
1, 611101, Note_off_c, 0, 44, 63
1, 611117, Note_off_c, 0, 32, 62
1, 611123, Note_off_c, 0, 63, 64
1, 611214, Note_on_c, 0, 44, 103
1, 611217, Note_on_c, 0, 37, 99
1, 611217, Note_on_c, 0, 53, 108
1, 611219, Note_on_c, 0, 56, 97
1, 611219, Note_on_c, 0, 65, 102
1, 611234, Note_on_c, 0, 61, 67
1, 611238, Control_c, 0, 64, 72
1, 611244, Note_off_c, 0, 53, 69
1, 611244, Note_off_c, 0, 56, 65
1, 611245, Note_off_c, 0, 37, 67
1, 611253, Control_c, 0, 64, 127
1, 611254, Note_off_c, 0, 44, 66
1, 611262, Note_off_c, 0, 61, 66
1, 611267, Note_off_c, 0, 65, 67
1, 611429, Note_on_c, 0, 77, 82
1, 611441, Note_on_c, 0, 65, 75
1, 611482, Note_on_c, 0, 73, 86
1, 611494, Note_off_c, 0, 65, 60
1, 611498, Note_on_c, 0, 61, 75
1, 611528, Note_off_c, 0, 77, 61
1, 611530, Note_on_c, 0, 68, 84
1, 611530, Note_off_c, 0, 61, 66
1, 611535, Note_on_c, 0, 56, 69
1, 611548, Note_off_c, 0, 73, 63
1, 611559, Note_off_c, 0, 68, 60
1, 611563, Note_off_c, 0, 56, 64
1, 611563, Control_c, 0, 64, 78
1, 611578, Control_c, 0, 64, 48
1, 611594, Control_c, 0, 64, 0
1, 611741, Note_on_c, 0, 61, 55
1, 611745, Note_on_c, 0, 33, 63
1, 611750, Note_on_c, 0, 52, 53
1, 611757, Note_on_c, 0, 45, 51
1, 611757, Note_on_c, 0, 57, 35
1, 611760, Note_on_c, 0, 64, 33
1, 611784, Note_off_c, 0, 52, 58
1, 611787, Note_off_c, 0, 61, 61
1, 611792, Note_off_c, 0, 33, 61
1, 611798, Note_off_c, 0, 57, 46
1, 611801, Note_off_c, 0, 64, 52
1, 611801, Note_off_c, 0, 45, 62
1, 611927, Control_c, 0, 64, 31
1, 611931, Note_on_c, 0, 65, 68
1, 611934, Note_on_c, 0, 53, 63
1, 611935, Note_on_c, 0, 38, 43
1, 611938, Note_on_c, 0, 45, 52
1, 611942, Control_c, 0, 64, 65
1, 611948, Note_on_c, 0, 57, 28
1, 611957, Control_c, 0, 64, 91
1, 611965, Note_off_c, 0, 53, 64
1, 611967, Note_off_c, 0, 45, 61
1, 611972, Control_c, 0, 64, 127
1, 611973, Note_off_c, 0, 38, 44
1, 611974, Note_off_c, 0, 65, 60
1, 611985, Note_off_c, 0, 57, 55
1, 612133, Note_on_c, 0, 69, 68
1, 612144, Note_on_c, 0, 57, 59
1, 612189, Note_on_c, 0, 65, 75
1, 612195, Note_off_c, 0, 57, 60
1, 612206, Note_on_c, 0, 53, 69
1, 612207, Note_off_c, 0, 69, 56
1, 612225, Control_c, 0, 64, 117
1, 612234, Note_off_c, 0, 53, 63
1, 612235, Note_on_c, 0, 50, 62
1, 612236, Note_off_c, 0, 65, 64
1, 612240, Control_c, 0, 64, 71
1, 612248, Note_on_c, 0, 62, 70
1, 612254, Control_c, 0, 64, 0
1, 612259, Note_off_c, 0, 50, 59
1, 612268, Note_off_c, 0, 62, 66
1, 612423, Note_on_c, 0, 49, 52
1, 612425, Note_on_c, 0, 61, 66
1, 612433, Note_on_c, 0, 44, 41
1, 612435, Note_on_c, 0, 52, 44
1, 612445, Note_on_c, 0, 58, 47
1, 612454, Note_off_c, 0, 61, 66
1, 612456, Note_off_c, 0, 49, 62
1, 612463, Note_off_c, 0, 44, 52
1, 612464, Note_off_c, 0, 52, 57
1, 612473, Note_off_c, 0, 58, 35
1, 612605, Note_on_c, 0, 62, 75
1, 612606, Note_on_c, 0, 53, 64
1, 612607, Note_on_c, 0, 58, 66
1, 612609, Note_on_c, 0, 43, 56
1, 612624, Note_on_c, 0, 50, 39
1, 612632, Note_off_c, 0, 53, 65
1, 612633, Note_off_c, 0, 58, 66
1, 612636, Note_off_c, 0, 43, 55
1, 612637, Note_off_c, 0, 62, 62
1, 612668, Note_off_c, 0, 50, 31
1, 612839, Note_on_c, 0, 63, 62
1, 612839, Control_c, 0, 64, 36
1, 612845, Note_on_c, 0, 61, 58
1, 612852, Note_on_c, 0, 42, 45
1, 612854, Note_on_c, 0, 54, 45
1, 612854, Control_c, 0, 64, 60
1, 612859, Note_on_c, 0, 57, 37
1, 612860, Note_on_c, 0, 49, 41
1, 612869, Control_c, 0, 64, 66
1, 612883, Control_c, 0, 64, 69
1, 612898, Control_c, 0, 64, 73
1, 612913, Control_c, 0, 64, 81
1, 612928, Control_c, 0, 64, 92
1, 612943, Control_c, 0, 64, 109
1, 612947, Note_off_c, 0, 49, 60
1, 612953, Note_off_c, 0, 54, 51
1, 612958, Control_c, 0, 64, 127
1, 612979, Note_off_c, 0, 42, 52
1, 612988, Note_off_c, 0, 61, 58
1, 612993, Note_off_c, 0, 57, 36
1, 612995, Note_off_c, 0, 63, 61
1, 613076, Control_c, 0, 64, 101
1, 613091, Control_c, 0, 64, 82
1, 613106, Control_c, 0, 64, 69
1, 613121, Control_c, 0, 64, 51
1, 613136, Control_c, 0, 64, 0
1, 613192, Note_on_c, 0, 64, 72
1, 613194, Note_on_c, 0, 55, 64
1, 613202, Note_on_c, 0, 48, 65
1, 613203, Note_on_c, 0, 41, 57
1, 613205, Note_on_c, 0, 60, 60
1, 613206, Note_on_c, 0, 57, 63
1, 613240, Control_c, 0, 64, 43
1, 613255, Control_c, 0, 64, 66
1, 613269, Note_off_c, 0, 55, 62
1, 613277, Note_off_c, 0, 48, 63
1, 613277, Control_c, 0, 64, 87
1, 613285, Note_off_c, 0, 60, 64
1, 613286, Note_off_c, 0, 57, 63
1, 613292, Control_c, 0, 64, 127
1, 613302, Note_off_c, 0, 41, 64
1, 613303, Note_off_c, 0, 64, 63
1, 613542, Note_on_c, 0, 40, 81
1, 613542, Note_on_c, 0, 65, 79
1, 613545, Note_on_c, 0, 56, 77
1, 613548, Note_on_c, 0, 48, 86
1, 613557, Note_on_c, 0, 60, 68
1, 613580, Note_off_c, 0, 56, 58
1, 613599, Note_off_c, 0, 48, 61
1, 613603, Note_off_c, 0, 65, 61
1, 613605, Note_off_c, 0, 60, 57
1, 613611, Note_off_c, 0, 40, 56
1, 613703, Note_on_c, 0, 48, 96
1, 613703, Note_on_c, 0, 40, 87
1, 613704, Note_on_c, 0, 66, 93
1, 613706, Note_on_c, 0, 57, 88
1, 613706, Control_c, 0, 64, 100
1, 613709, Note_on_c, 0, 60, 78
1, 613712, Note_on_c, 0, 39, 91
1, 613721, Control_c, 0, 64, 67
1, 613729, Note_on_c, 0, 61, 35
1, 613733, Note_off_c, 0, 48, 60
1, 613736, Control_c, 0, 64, 0
1, 613741, Note_off_c, 0, 60, 65
1, 613744, Note_off_c, 0, 61, 38
1, 613747, Note_off_c, 0, 40, 64
1, 613750, Note_off_c, 0, 57, 64
1, 613763, Note_off_c, 0, 39, 64
1, 613766, Note_off_c, 0, 66, 62
1, 613873, Note_on_c, 0, 38, 94
1, 613880, Note_on_c, 0, 59, 91
1, 613881, Note_on_c, 0, 41, 81
1, 613881, Note_on_c, 0, 67, 81
1, 613908, Note_off_c, 0, 59, 63
1, 613916, Note_off_c, 0, 41, 63
1, 613918, Note_off_c, 0, 67, 65
1, 613924, Note_off_c, 0, 38, 63
1, 613968, Note_on_c, 0, 68, 72
1, 613986, Note_on_c, 0, 37, 92
1, 614038, Note_off_c, 0, 68, 64
1, 614041, Note_off_c, 0, 37, 65
1, 614091, Note_on_c, 0, 69, 105
1, 614096, Note_on_c, 0, 45, 95
1, 614097, Note_on_c, 0, 37, 83
1, 614098, Note_on_c, 0, 33, 95
1, 614103, Note_on_c, 0, 40, 81
1, 614115, Control_c, 0, 64, 59
1, 614115, Note_off_c, 0, 45, 72
1, 614118, Note_off_c, 0, 33, 67
1, 614122, Note_off_c, 0, 37, 71
1, 614129, Control_c, 0, 64, 127
1, 614131, Note_off_c, 0, 69, 70
1, 614132, Note_off_c, 0, 40, 66
1, 614237, Poly_aftertouch_c, 0, 33, 127
1, 614273, Poly_aftertouch_c, 0, 33, 0
1, 614319, Note_on_c, 0, 57, 80
1, 614388, Note_on_c, 0, 61, 86
1, 614398, Note_off_c, 0, 57, 61
1, 614447, Note_off_c, 0, 61, 66
1, 614463, Note_on_c, 0, 64, 83
1, 614508, Note_off_c, 0, 64, 69
1, 614550, Note_on_c, 0, 65, 69
1, 614586, Note_on_c, 0, 68, 76
1, 614609, Note_off_c, 0, 65, 59
1, 614639, Note_on_c, 0, 71, 68
1, 614649, Note_off_c, 0, 68, 63
1, 614684, Note_on_c, 0, 77, 82
1, 614684, Note_off_c, 0, 71, 52
1, 614686, Note_on_c, 0, 73, 90
1, 614736, Note_off_c, 0, 77, 66
1, 614737, Note_off_c, 0, 73, 59
1, 614741, Note_on_c, 0, 80, 68
1, 614787, Note_on_c, 0, 82, 86
1, 614802, Note_off_c, 0, 80, 66
1, 614831, Note_off_c, 0, 82, 66
1, 614843, Note_on_c, 0, 81, 111
1, 614875, Note_off_c, 0, 81, 72
1, 614895, Note_on_c, 0, 76, 94
1, 614954, Note_off_c, 0, 76, 47
1, 614973, Note_on_c, 0, 73, 76
1, 615001, Note_off_c, 0, 73, 66
1, 615019, Note_on_c, 0, 69, 81
1, 615039, Note_off_c, 0, 69, 72
1, 615130, Control_c, 0, 64, 89
1, 615144, Control_c, 0, 64, 63
1, 615159, Control_c, 0, 64, 0
1, 615542, Note_on_c, 0, 52, 57
1, 615566, Note_off_c, 0, 52, 60
1, 615760, Control_c, 0, 64, 30
1, 615775, Control_c, 0, 64, 66
1, 615775, Note_on_c, 0, 40, 59
1, 615778, Note_on_c, 0, 52, 54
1, 615778, Note_on_c, 0, 62, 56
1, 615780, Note_on_c, 0, 33, 60
1, 615784, Note_on_c, 0, 45, 54
1, 615785, Note_on_c, 0, 64, 59
1, 615790, Control_c, 0, 64, 86
1, 615796, Note_on_c, 0, 57, 25
1, 615802, Note_off_c, 0, 40, 55
1, 615805, Control_c, 0, 64, 127
1, 615806, Note_off_c, 0, 62, 65
1, 615807, Note_off_c, 0, 52, 56
1, 615809, Note_off_c, 0, 33, 54
1, 615812, Note_off_c, 0, 45, 51
1, 615813, Note_off_c, 0, 64, 66
1, 615835, Note_off_c, 0, 57, 46
1, 616008, Note_on_c, 0, 76, 58
1, 616025, Note_on_c, 0, 64, 68
1, 616045, Note_off_c, 0, 76, 63
1, 616061, Note_on_c, 0, 74, 78
1, 616073, Note_on_c, 0, 62, 72
1, 616079, Note_off_c, 0, 64, 66
1, 616085, Note_off_c, 0, 74, 67
1, 616096, Note_off_c, 0, 62, 66
1, 616102, Note_on_c, 0, 69, 76
1, 616112, Note_on_c, 0, 57, 59
1, 616122, Note_off_c, 0, 69, 71
1, 616130, Control_c, 0, 64, 80
1, 616133, Note_off_c, 0, 57, 62
1, 616145, Control_c, 0, 64, 56
1, 616160, Control_c, 0, 64, 0
1, 616306, Note_on_c, 0, 29, 58
1, 616306, Note_on_c, 0, 41, 58
1, 616306, Note_on_c, 0, 53, 70
1, 616332, Note_off_c, 0, 53, 66
1, 616335, Note_off_c, 0, 41, 56
1, 616341, Note_off_c, 0, 29, 52
1, 616471, Note_on_c, 0, 34, 80
1, 616473, Note_on_c, 0, 46, 73
1, 616479, Note_on_c, 0, 62, 55
1, 616491, Note_on_c, 0, 58, 51
1, 616493, Note_on_c, 0, 64, 50
1, 616495, Note_off_c, 0, 46, 63
1, 616500, Note_off_c, 0, 34, 66
1, 616518, Note_off_c, 0, 58, 56
1, 616617, Note_off_c, 0, 62, 20
1, 616647, Note_on_c, 0, 30, 72
1, 616648, Note_on_c, 0, 42, 73
1, 616653, Note_on_c, 0, 54, 66
1, 616676, Note_off_c, 0, 30, 65
1, 616677, Note_off_c, 0, 42, 65
1, 616683, Note_off_c, 0, 54, 65
1, 616706, Note_off_c, 0, 64, 55
1, 616818, Note_on_c, 0, 42, 66
1, 616818, Note_on_c, 0, 35, 71
1, 616819, Note_on_c, 0, 47, 74
1, 616824, Note_on_c, 0, 64, 68
1, 616824, Note_on_c, 0, 59, 67
1, 616835, Note_on_c, 0, 52, 56
1, 616847, Note_off_c, 0, 35, 65
1, 616849, Note_off_c, 0, 42, 65
1, 616849, Note_off_c, 0, 47, 66
1, 616866, Note_off_c, 0, 52, 52
1, 616955, Note_off_c, 0, 59, 61
1, 616983, Note_on_c, 0, 31, 74
1, 616986, Note_on_c, 0, 43, 73
1, 617000, Note_on_c, 0, 55, 68
1, 617015, Note_off_c, 0, 31, 66
1, 617024, Note_off_c, 0, 43, 64
1, 617039, Note_off_c, 0, 55, 64
1, 617087, Note_off_c, 0, 64, 47
1, 617158, Note_on_c, 0, 48, 89
1, 617159, Note_on_c, 0, 36, 81
1, 617164, Note_on_c, 0, 43, 60
1, 617174, Note_on_c, 0, 52, 79
1, 617177, Note_on_c, 0, 60, 73
1, 617179, Note_off_c, 0, 48, 67
1, 617179, Note_on_c, 0, 45, 48
1, 617182, Note_off_c, 0, 36, 66
1, 617182, Control_c, 0, 64, 38
1, 617183, Note_on_c, 0, 64, 79
1, 617191, Note_off_c, 0, 43, 57
1, 617198, Note_off_c, 0, 52, 67
1, 617198, Control_c, 0, 64, 90
1, 617210, Note_off_c, 0, 60, 65
1, 617213, Control_c, 0, 64, 127
1, 617218, Note_off_c, 0, 45, 33
1, 617230, Note_off_c, 0, 64, 66
1, 617374, Note_on_c, 0, 60, 81
1, 617435, Note_on_c, 0, 64, 77
1, 617438, Note_off_c, 0, 60, 63
1, 617499, Note_on_c, 0, 67, 72
1, 617521, Note_off_c, 0, 64, 63
1, 617544, Note_off_c, 0, 67, 65
1, 617582, Note_on_c, 0, 68, 75
1, 617601, Note_on_c, 0, 71, 65
1, 617617, Note_on_c, 0, 72, 53
1, 617629, Note_on_c, 0, 70, 31
1, 617644, Note_off_c, 0, 72, 54
1, 617644, Note_on_c, 0, 73, 86
1, 617658, Note_off_c, 0, 68, 59
1, 617665, Note_off_c, 0, 70, 46
1, 617669, Note_off_c, 0, 71, 62
1, 617697, Note_on_c, 0, 80, 79
1, 617712, Note_on_c, 0, 77, 84
1, 617714, Note_off_c, 0, 73, 60
1, 617745, Note_off_c, 0, 80, 62
1, 617791, Note_on_c, 0, 85, 90
1, 617794, Note_off_c, 0, 77, 61
1, 617807, Note_on_c, 0, 83, 32
1, 617840, Note_on_c, 0, 84, 84
1, 617842, Note_off_c, 0, 83, 47
1, 617843, Note_off_c, 0, 85, 64
1, 617885, Note_off_c, 0, 84, 70
1, 617885, Note_on_c, 0, 79, 93
1, 617952, Note_off_c, 0, 79, 69
1, 617964, Note_on_c, 0, 76, 77
1, 618007, Note_on_c, 0, 72, 91
1, 618022, Note_off_c, 0, 76, 67
1, 618029, Note_off_c, 0, 72, 68
1, 618156, Control_c, 0, 64, 83
1, 618170, Control_c, 0, 64, 59
1, 618185, Control_c, 0, 64, 0
1, 618390, Note_on_c, 0, 45, 83
1, 618392, Note_on_c, 0, 57, 89
1, 618397, Note_on_c, 0, 33, 76
1, 618415, Note_off_c, 0, 45, 69
1, 618421, Note_off_c, 0, 33, 65
1, 618434, Note_off_c, 0, 57, 64
1, 618607, Note_on_c, 0, 57, 91
1, 618609, Note_on_c, 0, 62, 88
1, 618610, Note_on_c, 0, 67, 84
1, 618611, Note_on_c, 0, 38, 88
1, 618611, Note_on_c, 0, 50, 94
1, 618612, Note_on_c, 0, 45, 92
1, 618612, Note_on_c, 0, 69, 86
1, 618625, Note_off_c, 0, 57, 73
1, 618631, Note_off_c, 0, 62, 68
1, 618637, Control_c, 0, 64, 69
1, 618639, Note_off_c, 0, 38, 66
1, 618639, Note_off_c, 0, 50, 67
1, 618639, Note_off_c, 0, 45, 68
1, 618652, Control_c, 0, 64, 127
1, 618655, Note_off_c, 0, 67, 63
1, 618670, Note_off_c, 0, 69, 64
1, 618825, Note_on_c, 0, 81, 77
1, 618845, Note_on_c, 0, 69, 81
1, 618883, Note_on_c, 0, 79, 83
1, 618883, Note_off_c, 0, 81, 65
1, 618905, Note_on_c, 0, 67, 88
1, 618909, Note_off_c, 0, 69, 66
1, 618920, Note_on_c, 0, 74, 95
1, 618929, Note_on_c, 0, 62, 82
1, 618931, Note_off_c, 0, 79, 63
1, 618932, Note_off_c, 0, 67, 64
1, 618949, Note_off_c, 0, 62, 72
1, 618949, Note_off_c, 0, 74, 63
1, 618992, Control_c, 0, 64, 87
1, 619007, Control_c, 0, 64, 60
1, 619022, Control_c, 0, 64, 0
1, 619120, Note_on_c, 0, 58, 84
1, 619121, Note_on_c, 0, 46, 87
1, 619126, Note_on_c, 0, 34, 84
1, 619144, Note_off_c, 0, 46, 67
1, 619144, Note_off_c, 0, 58, 70
1, 619153, Note_off_c, 0, 34, 66
1, 619296, Note_on_c, 0, 46, 63
1, 619297, Note_on_c, 0, 39, 80
1, 619297, Note_on_c, 0, 51, 80
1, 619302, Note_on_c, 0, 67, 75
1, 619304, Note_on_c, 0, 63, 82
1, 619304, Note_on_c, 0, 69, 78
1, 619313, Note_on_c, 0, 57, 74
1, 619319, Note_off_c, 0, 51, 66
1, 619325, Note_off_c, 0, 46, 64
1, 619330, Note_off_c, 0, 39, 69
1, 619350, Note_off_c, 0, 57, 53
1, 619392, Note_off_c, 0, 63, 59
1, 619475, Note_on_c, 0, 47, 78
1, 619480, Note_on_c, 0, 35, 72
1, 619484, Note_on_c, 0, 59, 79
1, 619487, Note_on_c, 0, 36, 60
1, 619487, Note_off_c, 0, 67, 32
1, 619488, Note_on_c, 0, 60, 72
1, 619500, Note_off_c, 0, 47, 67
1, 619503, Note_off_c, 0, 35, 60
1, 619513, Note_off_c, 0, 59, 66
1, 619513, Note_off_c, 0, 60, 67
1, 619515, Note_off_c, 0, 36, 56
1, 619522, Note_off_c, 0, 69, 55
1, 619635, Note_on_c, 0, 52, 89
1, 619636, Note_on_c, 0, 47, 83
1, 619642, Note_on_c, 0, 40, 81
1, 619643, Note_on_c, 0, 69, 83
1, 619644, Note_on_c, 0, 64, 84
1, 619647, Note_on_c, 0, 57, 87
1, 619660, Note_off_c, 0, 52, 68
1, 619665, Note_off_c, 0, 47, 67
1, 619667, Note_off_c, 0, 40, 65
1, 619680, Note_on_c, 0, 65, 38
1, 619713, Note_off_c, 0, 65, 50
1, 619766, Note_off_c, 0, 57, 59
1, 619802, Note_on_c, 0, 36, 86
1, 619805, Note_on_c, 0, 48, 91
1, 619815, Note_on_c, 0, 60, 81
1, 619830, Note_off_c, 0, 36, 69
1, 619835, Note_off_c, 0, 48, 65
1, 619839, Note_off_c, 0, 64, 60
1, 619875, Note_off_c, 0, 60, 63
1, 619886, Note_off_c, 0, 69, 53
1, 619962, Note_on_c, 0, 48, 92
1, 619962, Note_on_c, 0, 53, 91
1, 619963, Note_on_c, 0, 41, 89
1, 619974, Note_on_c, 0, 57, 95
1, 619975, Note_on_c, 0, 65, 90
1, 619981, Note_off_c, 0, 53, 70
1, 619982, Note_on_c, 0, 69, 78
1, 619982, Note_off_c, 0, 48, 66
1, 619985, Note_off_c, 0, 41, 69
1, 619993, Control_c, 0, 64, 57
1, 620009, Note_off_c, 0, 69, 71
1, 620015, Control_c, 0, 64, 127
1, 620019, Note_off_c, 0, 65, 62
1, 620020, Note_off_c, 0, 57, 66
1, 620168, Note_on_c, 0, 53, 80
1, 620222, Note_on_c, 0, 57, 84
1, 620250, Note_off_c, 0, 53, 62
1, 620285, Note_on_c, 0, 60, 72
1, 620323, Note_off_c, 0, 57, 63
1, 620339, Note_off_c, 0, 60, 67
1, 620356, Note_on_c, 0, 61, 68
1, 620395, Note_on_c, 0, 64, 70
1, 620440, Note_on_c, 0, 68, 86
1, 620476, Note_off_c, 0, 64, 64
1, 620479, Note_off_c, 0, 61, 62
1, 620494, Note_on_c, 0, 71, 90
1, 620510, Note_on_c, 0, 73, 49
1, 620512, Note_off_c, 0, 68, 62
1, 620525, Note_on_c, 0, 72, 52
1, 620537, Note_on_c, 0, 75, 64
1, 620544, Note_off_c, 0, 73, 49
1, 620547, Note_off_c, 0, 71, 63
1, 620550, Note_off_c, 0, 72, 57
1, 620580, Note_on_c, 0, 78, 82
1, 620597, Note_off_c, 0, 75, 66
1, 620635, Note_off_c, 0, 78, 59
1, 620648, Note_on_c, 0, 77, 103
1, 620682, Note_off_c, 0, 77, 73
1, 620701, Note_on_c, 0, 72, 92
1, 620780, Note_off_c, 0, 72, 63
1, 620798, Note_on_c, 0, 69, 88
1, 620840, Note_on_c, 0, 65, 79
1, 620842, Note_off_c, 0, 69, 69
1, 620857, Note_off_c, 0, 65, 70
1, 620927, Control_c, 0, 64, 86
1, 620932, Note_on_c, 0, 65, 15
1, 620941, Control_c, 0, 64, 53
1, 620956, Control_c, 0, 64, 0
1, 620966, Note_off_c, 0, 65, 44
1, 621220, Note_on_c, 0, 56, 98
1, 621223, Note_on_c, 0, 68, 80
1, 621224, Note_on_c, 0, 61, 85
1, 621225, Note_on_c, 0, 65, 73
1, 621227, Note_on_c, 0, 49, 90
1, 621229, Note_on_c, 0, 37, 83
1, 621258, Note_off_c, 0, 56, 67
1, 621267, Note_off_c, 0, 61, 58
1, 621272, Note_off_c, 0, 49, 65
1, 621273, Note_off_c, 0, 37, 60
1, 621276, Note_off_c, 0, 65, 60
1, 621290, Note_off_c, 0, 68, 64
1, 621418, Note_on_c, 0, 58, 102
1, 621418, Note_on_c, 0, 61, 97
1, 621418, Note_on_c, 0, 70, 96
1, 621418, Note_on_c, 0, 49, 101
1, 621420, Note_on_c, 0, 42, 95
1, 621431, Control_c, 0, 64, 46
1, 621436, Note_off_c, 0, 58, 71
1, 621446, Control_c, 0, 64, 127
1, 621447, Note_off_c, 0, 42, 69
1, 621448, Note_off_c, 0, 61, 63
1, 621454, Note_off_c, 0, 49, 67
1, 621459, Note_on_c, 0, 66, 29
1, 621470, Note_off_c, 0, 70, 67
1, 621494, Note_off_c, 0, 66, 54
1, 621653, Note_on_c, 0, 85, 81
1, 621668, Note_on_c, 0, 73, 72
1, 621708, Note_on_c, 0, 82, 88
1, 621722, Note_on_c, 0, 70, 82
1, 621729, Note_off_c, 0, 73, 60
1, 621746, Note_on_c, 0, 66, 83
1, 621749, Note_off_c, 0, 70, 65
1, 621752, Note_off_c, 0, 85, 62
1, 621760, Note_on_c, 0, 78, 84
1, 621767, Note_off_c, 0, 82, 65
1, 621767, Note_off_c, 0, 66, 69
1, 621778, Note_off_c, 0, 78, 72
1, 621809, Control_c, 0, 64, 104
1, 621825, Control_c, 0, 64, 70
1, 621839, Control_c, 0, 64, 33
1, 621854, Control_c, 0, 64, 0
1, 621966, Note_on_c, 0, 50, 75
1, 621969, Note_on_c, 0, 38, 67
1, 621970, Note_on_c, 0, 62, 74
1, 621979, Note_on_c, 0, 57, 62
1, 621984, Note_on_c, 0, 69, 48
1, 621998, Note_off_c, 0, 62, 67
1, 622005, Note_off_c, 0, 50, 65
1, 622008, Note_off_c, 0, 57, 64
1, 622009, Note_off_c, 0, 69, 59
1, 622014, Note_off_c, 0, 38, 62
1, 622136, Control_c, 0, 64, 54
1, 622142, Note_on_c, 0, 43, 82
1, 622147, Note_on_c, 0, 50, 84
1, 622148, Note_on_c, 0, 70, 81
1, 622149, Note_on_c, 0, 58, 69
1, 622151, Control_c, 0, 64, 96
1, 622158, Note_on_c, 0, 62, 55
1, 622166, Control_c, 0, 64, 127
1, 622167, Note_off_c, 0, 58, 64
1, 622169, Note_off_c, 0, 43, 67
1, 622171, Note_off_c, 0, 50, 70
1, 622182, Note_off_c, 0, 62, 59
1, 622193, Note_off_c, 0, 70, 64
1, 622341, Note_on_c, 0, 74, 74
1, 622358, Note_on_c, 0, 62, 73
1, 622398, Note_on_c, 0, 58, 69
1, 622399, Note_on_c, 0, 70, 86
1, 622416, Note_off_c, 0, 62, 60
1, 622442, Note_off_c, 0, 58, 66
1, 622445, Note_off_c, 0, 74, 60
1, 622449, Note_on_c, 0, 55, 64
1, 622450, Note_on_c, 0, 67, 85
1, 622460, Note_off_c, 0, 70, 63
1, 622470, Control_c, 0, 64, 99
1, 622470, Note_off_c, 0, 55, 60
1, 622476, Note_off_c, 0, 67, 65
1, 622485, Control_c, 0, 64, 66
1, 622500, Control_c, 0, 64, 0
1, 622635, Note_on_c, 0, 41, 94
1, 622635, Note_on_c, 0, 53, 96
1, 622637, Note_on_c, 0, 60, 100
1, 622639, Note_on_c, 0, 65, 93
1, 622640, Note_on_c, 0, 69, 90
1, 622642, Note_on_c, 0, 72, 87
1, 622673, Note_off_c, 0, 60, 65
1, 622682, Note_off_c, 0, 65, 62
1, 622688, Note_off_c, 0, 41, 65
1, 622688, Note_off_c, 0, 53, 64
1, 622699, Note_off_c, 0, 69, 63
1, 622702, Note_off_c, 0, 72, 65
1, 622803, Note_on_c, 0, 53, 93
1, 622806, Note_on_c, 0, 46, 98
1, 622806, Note_on_c, 0, 62, 102
1, 622807, Note_on_c, 0, 65, 92
1, 622807, Note_on_c, 0, 70, 94
1, 622808, Note_on_c, 0, 74, 97
1, 622811, Control_c, 0, 64, 49
1, 622822, Note_on_c, 0, 68, 69
1, 622822, Note_off_c, 0, 68, 127
1, 622823, Note_off_c, 0, 62, 73
1, 622826, Control_c, 0, 64, 127
1, 622828, Note_off_c, 0, 46, 72
1, 622830, Note_off_c, 0, 65, 67
1, 622840, Note_off_c, 0, 53, 68
1, 622849, Note_off_c, 0, 70, 68
1, 622855, Note_off_c, 0, 74, 67
1, 623030, Note_on_c, 0, 89, 81
1, 623037, Note_on_c, 0, 77, 80
1, 623079, Note_on_c, 0, 86, 74
1, 623097, Note_on_c, 0, 74, 88
1, 623103, Note_off_c, 0, 77, 61
1, 623118, Note_on_c, 0, 82, 94
1, 623128, Note_on_c, 0, 70, 77
1, 623129, Note_off_c, 0, 74, 66
1, 623129, Note_off_c, 0, 89, 62
1, 623142, Note_off_c, 0, 86, 67
1, 623151, Note_off_c, 0, 70, 68
1, 623154, Note_off_c, 0, 82, 66
1, 623174, Control_c, 0, 64, 88
1, 623189, Control_c, 0, 64, 57
1, 623203, Control_c, 0, 64, 0
1, 623321, Note_on_c, 0, 54, 72
1, 623324, Note_on_c, 0, 42, 62
1, 623324, Note_on_c, 0, 73, 67
1, 623326, Note_on_c, 0, 66, 73
1, 623329, Note_on_c, 0, 70, 69
1, 623337, Note_on_c, 0, 61, 62
1, 623351, Control_c, 0, 67, 41
1, 623352, Note_off_c, 0, 66, 69
1, 623362, Note_off_c, 0, 42, 64
1, 623364, Note_off_c, 0, 61, 65
1, 623366, Note_off_c, 0, 70, 58
1, 623366, Control_c, 0, 67, 71
1, 623377, Note_off_c, 0, 73, 59
1, 623379, Note_off_c, 0, 54, 56
1, 623381, Control_c, 0, 67, 100
1, 623396, Control_c, 0, 67, 121
1, 623410, Control_c, 0, 67, 127
1, 623495, Note_on_c, 0, 71, 67
1, 623496, Note_on_c, 0, 62, 66
1, 623496, Note_on_c, 0, 74, 76
1, 623498, Note_on_c, 0, 66, 56
1, 623499, Control_c, 0, 64, 56
1, 623500, Note_on_c, 0, 54, 75
1, 623501, Note_on_c, 0, 47, 76
1, 623514, Note_off_c, 0, 62, 65
1, 623514, Control_c, 0, 64, 79
1, 623519, Note_off_c, 0, 66, 61
1, 623521, Note_off_c, 0, 71, 67
1, 623524, Note_off_c, 0, 47, 66
1, 623525, Note_off_c, 0, 54, 67
1, 623528, Control_c, 0, 64, 127
1, 623540, Note_off_c, 0, 74, 62
1, 623686, Note_on_c, 0, 78, 74
1, 623716, Note_on_c, 0, 66, 78
1, 623762, Note_on_c, 0, 74, 83
1, 623771, Note_on_c, 0, 62, 63
1, 623776, Note_off_c, 0, 78, 60
1, 623785, Note_off_c, 0, 66, 65
1, 623796, Note_on_c, 0, 71, 83
1, 623797, Note_on_c, 0, 59, 73
1, 623801, Note_off_c, 0, 74, 66
1, 623804, Control_c, 0, 64, 98
1, 623814, Note_off_c, 0, 62, 62
1, 623816, Note_off_c, 0, 71, 69
1, 623819, Control_c, 0, 64, 63
1, 623824, Note_off_c, 0, 59, 65
1, 623833, Control_c, 0, 64, 0
1, 623981, Note_on_c, 0, 78, 91
1, 623985, Note_on_c, 0, 75, 81
1, 623996, Note_on_c, 0, 61, 65
1, 623997, Note_on_c, 0, 69, 69
1, 624005, Note_off_c, 0, 75, 74
1, 624022, Note_off_c, 0, 69, 69
1, 624023, Note_off_c, 0, 78, 59
1, 624028, Note_off_c, 0, 61, 64
1, 624154, Note_on_c, 0, 79, 89
1, 624166, Note_on_c, 0, 62, 63
1, 624167, Note_on_c, 0, 70, 65
1, 624167, Note_on_c, 0, 76, 70
1, 624184, Note_off_c, 0, 76, 67
1, 624185, Note_off_c, 0, 70, 66
1, 624187, Note_off_c, 0, 79, 67
1, 624192, Note_on_c, 0, 67, 29
1, 624192, Note_off_c, 0, 62, 65
1, 624229, Note_off_c, 0, 67, 31
1, 624394, Note_on_c, 0, 81, 87
1, 624408, Note_on_c, 0, 59, 59
1, 624422, Note_on_c, 0, 65, 56
1, 624426, Note_on_c, 0, 62, 45
1, 624426, Note_on_c, 0, 77, 60
1, 624427, Note_on_c, 0, 55, 53
1, 624427, Control_c, 0, 64, 46
1, 624442, Control_c, 0, 64, 63
1, 624442, Control_c, 0, 67, 122
1, 624456, Control_c, 0, 64, 70
1, 624456, Control_c, 0, 67, 106
1, 624471, Control_c, 0, 64, 83
1, 624471, Control_c, 0, 67, 84
1, 624485, Note_off_c, 0, 65, 54
1, 624486, Control_c, 0, 64, 127
1, 624486, Control_c, 0, 67, 56
1, 624505, Note_off_c, 0, 62, 56
1, 624508, Note_off_c, 0, 55, 61
1, 624509, Note_off_c, 0, 77, 63
1, 624509, Control_c, 0, 67, 0
1, 624509, Note_off_c, 0, 59, 61
1, 624522, Poly_aftertouch_c, 0, 69, 0
1, 624545, Note_off_c, 0, 81, 65
1, 624745, Control_c, 0, 64, 98
1, 624760, Control_c, 0, 64, 62
1, 624774, Control_c, 0, 64, 0
1, 624775, Note_on_c, 0, 82, 86
1, 624786, Note_on_c, 0, 75, 83
1, 624786, Note_on_c, 0, 78, 78
1, 624792, Note_on_c, 0, 70, 74
1, 624792, Note_on_c, 0, 66, 80
1, 624796, Note_on_c, 0, 56, 75
1, 624796, Note_on_c, 0, 60, 62
1, 624796, Note_on_c, 0, 63, 66
1, 624818, Note_off_c, 0, 70, 63
1, 624820, Control_c, 0, 64, 41
1, 624835, Control_c, 0, 64, 65
1, 624849, Control_c, 0, 64, 105
1, 624860, Note_off_c, 0, 60, 62
1, 624864, Control_c, 0, 64, 127
1, 624868, Note_off_c, 0, 66, 61
1, 624871, Note_off_c, 0, 56, 62
1, 624876, Note_off_c, 0, 63, 62
1, 624888, Note_off_c, 0, 75, 64
1, 624898, Note_off_c, 0, 78, 61
1, 624924, Note_off_c, 0, 82, 60
1, 625130, Note_on_c, 0, 84, 90
1, 625135, Note_on_c, 0, 58, 75
1, 625135, Note_on_c, 0, 72, 90
1, 625135, Note_on_c, 0, 80, 86
1, 625136, Note_on_c, 0, 68, 80
1, 625141, Note_on_c, 0, 62, 66
1, 625146, Note_on_c, 0, 65, 64
1, 625146, Control_c, 0, 64, 77
1, 625153, Note_off_c, 0, 72, 70
1, 625161, Control_c, 0, 64, 0
1, 625165, Note_off_c, 0, 65, 64
1, 625174, Note_off_c, 0, 62, 67
1, 625174, Note_off_c, 0, 68, 60
1, 625176, Note_off_c, 0, 84, 66
1, 625177, Note_off_c, 0, 58, 61
1, 625181, Note_off_c, 0, 80, 61
1, 625221, Control_c, 0, 67, 37
1, 625236, Control_c, 0, 67, 39
1, 625258, Control_c, 0, 67, 37
1, 625273, Control_c, 0, 67, 35
1, 625287, Control_c, 0, 67, 36
1, 625302, Control_c, 0, 67, 40
1, 625317, Control_c, 0, 67, 45
1, 625332, Control_c, 0, 67, 60
1, 625347, Control_c, 0, 67, 79
1, 625350, Note_on_c, 0, 85, 97
1, 625356, Note_on_c, 0, 63, 69
1, 625357, Note_on_c, 0, 66, 65
1, 625359, Note_on_c, 0, 73, 81
1, 625361, Note_on_c, 0, 69, 72
1, 625362, Control_c, 0, 67, 109
1, 625362, Note_on_c, 0, 82, 74
1, 625372, Note_on_c, 0, 59, 48
1, 625376, Control_c, 0, 67, 127
1, 625378, Note_off_c, 0, 73, 72
1, 625382, Note_off_c, 0, 82, 72
1, 625383, Note_off_c, 0, 69, 70
1, 625385, Note_off_c, 0, 66, 68
1, 625398, Note_off_c, 0, 59, 57
1, 625399, Note_off_c, 0, 63, 59
1, 625403, Note_off_c, 0, 85, 64
1, 625581, Note_on_c, 0, 86, 86
1, 625584, Note_on_c, 0, 82, 78
1, 625585, Note_on_c, 0, 74, 85
1, 625593, Note_on_c, 0, 70, 63
1, 625595, Note_on_c, 0, 61, 46
1, 625603, Note_off_c, 0, 74, 73
1, 625607, Note_off_c, 0, 82, 64
1, 625618, Note_off_c, 0, 70, 66
1, 625621, Note_off_c, 0, 61, 56
1, 625627, Note_off_c, 0, 86, 64
1, 625645, Poly_aftertouch_c, 0, 64, 127
1, 625681, Poly_aftertouch_c, 0, 64, 0
1, 625836, Control_c, 0, 64, 29
1, 625845, Note_on_c, 0, 86, 76
1, 625850, Note_on_c, 0, 69, 66
1, 625850, Control_c, 0, 64, 63
1, 625853, Note_on_c, 0, 62, 53
1, 625861, Note_on_c, 0, 81, 56
1, 625862, Note_on_c, 0, 65, 53
1, 625865, Control_c, 0, 64, 94
1, 625875, Note_on_c, 0, 74, 31
1, 625875, Note_off_c, 0, 69, 69
1, 625877, Note_off_c, 0, 62, 64
1, 625879, Note_off_c, 0, 81, 64
1, 625880, Control_c, 0, 64, 127
1, 625884, Note_off_c, 0, 65, 59
1, 625903, Note_off_c, 0, 86, 65
1, 625912, Note_off_c, 0, 74, 48
1, 626131, Note_on_c, 0, 69, 60
1, 626163, Note_off_c, 0, 69, 66
1, 626163, Note_on_c, 0, 74, 74
1, 626210, Note_off_c, 0, 74, 64
1, 626221, Note_on_c, 0, 77, 67
1, 626245, Note_off_c, 0, 77, 69
1, 626250, Note_on_c, 0, 81, 87
1, 626267, Note_off_c, 0, 81, 74
1, 626506, Note_on_c, 0, 69, 63
1, 626509, Note_on_c, 0, 62, 47
1, 626535, Note_off_c, 0, 62, 55
1, 626589, Note_off_c, 0, 69, 33
1, 626715, Note_on_c, 0, 69, 70
1, 626726, Note_on_c, 0, 62, 53
1, 626751, Note_off_c, 0, 69, 66
1, 626759, Note_off_c, 0, 62, 57
1, 626960, Note_on_c, 0, 69, 64
1, 626989, Note_off_c, 0, 69, 62
1, 627002, Note_on_c, 0, 74, 68
1, 627056, Note_off_c, 0, 74, 64
1, 627063, Note_on_c, 0, 77, 69
1, 627104, Note_off_c, 0, 77, 58
1, 627115, Note_on_c, 0, 81, 83
1, 627133, Note_off_c, 0, 81, 73
1, 627383, Note_on_c, 0, 62, 52
1, 627392, Note_on_c, 0, 69, 45
1, 627415, Note_off_c, 0, 62, 63
1, 627428, Note_off_c, 0, 69, 49
1, 627734, Note_on_c, 0, 86, 88
1, 627764, Note_on_c, 0, 62, 56
1, 627770, Control_c, 0, 67, 123
1, 627775, Note_on_c, 0, 69, 54
1, 627785, Control_c, 0, 67, 115
1, 627804, Note_off_c, 0, 62, 63
1, 627815, Note_off_c, 0, 69, 63
1, 627830, Control_c, 0, 67, 112
1, 627918, Control_c, 0, 67, 115
1, 627933, Control_c, 0, 67, 117
1, 628007, Control_c, 0, 67, 114
1, 628022, Control_c, 0, 67, 111
1, 628026, Note_on_c, 0, 69, 47
1, 628037, Control_c, 0, 67, 105
1, 628052, Control_c, 0, 67, 80
1, 628054, Note_off_c, 0, 69, 63
1, 628064, Note_on_c, 0, 74, 65
1, 628066, Control_c, 0, 67, 39
1, 628081, Control_c, 0, 67, 0
1, 628119, Note_off_c, 0, 74, 64
1, 628119, Note_on_c, 0, 77, 70
1, 628145, Note_off_c, 0, 77, 70
1, 628173, Note_on_c, 0, 81, 79
1, 628191, Note_off_c, 0, 81, 73
1, 628415, Note_on_c, 0, 69, 55
1, 628420, Note_on_c, 0, 62, 35
1, 628456, Note_off_c, 0, 69, 53
1, 628459, Note_off_c, 0, 62, 50
1, 628622, Note_on_c, 0, 69, 55
1, 628642, Note_on_c, 0, 62, 15
1, 628642, Note_off_c, 0, 69, 64
1, 628691, Note_off_c, 0, 62, 52
1, 628756, Control_c, 0, 67, 38
1, 628771, Control_c, 0, 67, 40
1, 628786, Control_c, 0, 67, 45
1, 628801, Control_c, 0, 67, 67
1, 628815, Control_c, 0, 67, 108
1, 628830, Control_c, 0, 67, 127
1, 628838, Note_on_c, 0, 69, 50
1, 628869, Note_off_c, 0, 69, 64
1, 628879, Note_on_c, 0, 74, 60
1, 628928, Note_off_c, 0, 74, 64
1, 628933, Note_on_c, 0, 77, 70
1, 628957, Note_off_c, 0, 77, 68
1, 628989, Note_on_c, 0, 81, 74
1, 629019, Note_off_c, 0, 81, 70
1, 629264, Note_on_c, 0, 88, 87
1, 629279, Note_on_c, 0, 64, 52
1, 629296, Note_on_c, 0, 57, 32
1, 629298, Control_c, 0, 64, 109
1, 629312, Control_c, 0, 64, 95
1, 629326, Control_c, 0, 64, 86
1, 629339, Note_off_c, 0, 86, 63
1, 629341, Control_c, 0, 64, 79
1, 629346, Note_off_c, 0, 64, 44
1, 629356, Control_c, 0, 64, 75
1, 629359, Note_off_c, 0, 57, 45
1, 629371, Control_c, 0, 64, 70
1, 629386, Control_c, 0, 64, 65
1, 629401, Control_c, 0, 64, 59
1, 629416, Control_c, 0, 64, 53
1, 629430, Control_c, 0, 64, 47
1, 629445, Control_c, 0, 64, 33
1, 629460, Control_c, 0, 64, 0
1, 629519, Note_on_c, 0, 84, 88
1, 629533, Note_on_c, 0, 57, 62
1, 629538, Note_on_c, 0, 64, 56
1, 629549, Control_c, 0, 64, 29
1, 629562, Note_off_c, 0, 57, 65
1, 629563, Control_c, 0, 64, 56
1, 629577, Note_off_c, 0, 64, 65
1, 629578, Control_c, 0, 64, 78
1, 629593, Control_c, 0, 64, 127
1, 629598, Note_off_c, 0, 88, 59
1, 629770, Note_on_c, 0, 64, 63
1, 629811, Note_off_c, 0, 64, 62
1, 629828, Note_on_c, 0, 69, 59
1, 629881, Note_off_c, 0, 69, 60
1, 629884, Note_on_c, 0, 72, 75
1, 629908, Note_off_c, 0, 72, 66
1, 629917, Note_on_c, 0, 76, 89
1, 629939, Note_off_c, 0, 76, 68
1, 629987, Control_c, 0, 64, 88
1, 630001, Control_c, 0, 64, 65
1, 630016, Control_c, 0, 64, 43
1, 630031, Control_c, 0, 64, 0
1, 630144, Note_on_c, 0, 57, 58
1, 630148, Note_on_c, 0, 64, 61
1, 630178, Note_off_c, 0, 57, 65
1, 630182, Note_off_c, 0, 64, 64
1, 630327, Control_c, 0, 64, 58
1, 630342, Control_c, 0, 64, 79
1, 630343, Note_on_c, 0, 57, 55
1, 630346, Note_on_c, 0, 64, 63
1, 630357, Control_c, 0, 64, 127
1, 630364, Note_off_c, 0, 57, 61
1, 630366, Note_off_c, 0, 64, 66
1, 630569, Note_on_c, 0, 64, 66
1, 630604, Note_off_c, 0, 64, 66
1, 630616, Note_on_c, 0, 69, 64
1, 630667, Note_on_c, 0, 72, 75
1, 630669, Note_off_c, 0, 69, 63
1, 630696, Note_off_c, 0, 72, 59
1, 630713, Note_on_c, 0, 76, 84
1, 630719, Control_c, 0, 64, 86
1, 630734, Control_c, 0, 64, 65
1, 630735, Note_off_c, 0, 76, 68
1, 630749, Control_c, 0, 64, 42
1, 630765, Control_c, 0, 64, 0
1, 630940, Note_on_c, 0, 57, 58
1, 630945, Note_on_c, 0, 64, 57
1, 630972, Note_off_c, 0, 57, 64
1, 630992, Note_off_c, 0, 64, 48
1, 631121, Control_c, 0, 64, 48
1, 631135, Control_c, 0, 64, 62
1, 631137, Note_on_c, 0, 57, 47
1, 631150, Note_on_c, 0, 64, 47
1, 631150, Control_c, 0, 64, 69
1, 631162, Note_off_c, 0, 57, 58
1, 631165, Control_c, 0, 64, 75
1, 631176, Note_off_c, 0, 64, 57
1, 631180, Control_c, 0, 64, 83
1, 631195, Control_c, 0, 64, 91
1, 631209, Control_c, 0, 64, 103
1, 631224, Control_c, 0, 64, 127
1, 631355, Note_on_c, 0, 66, 57
1, 631431, Note_on_c, 0, 69, 58
1, 631449, Note_off_c, 0, 66, 58
1, 631462, Note_off_c, 0, 69, 66
1, 631463, Note_on_c, 0, 72, 70
1, 631492, Note_off_c, 0, 72, 64
1, 631521, Note_on_c, 0, 76, 71
1, 631528, Control_c, 0, 64, 88
1, 631542, Control_c, 0, 64, 71
1, 631545, Note_off_c, 0, 76, 69
1, 631558, Control_c, 0, 64, 58
1, 631574, Control_c, 0, 64, 44
1, 631589, Control_c, 0, 64, 33
1, 631604, Control_c, 0, 64, 30
1, 631618, Control_c, 0, 64, 0
1, 631741, Note_off_c, 0, 84, 65
1, 631752, Note_on_c, 0, 67, 62
1, 631761, Note_on_c, 0, 60, 47
1, 631785, Note_off_c, 0, 60, 60
1, 631788, Note_off_c, 0, 67, 61
1, 631884, Control_c, 0, 64, 33
1, 631899, Control_c, 0, 64, 43
1, 631914, Control_c, 0, 64, 57
1, 631929, Control_c, 0, 64, 67
1, 631944, Control_c, 0, 64, 73
1, 631958, Control_c, 0, 64, 79
1, 631973, Control_c, 0, 64, 84
1, 631976, Note_on_c, 0, 60, 50
1, 631978, Note_on_c, 0, 67, 58
1, 631996, Control_c, 0, 64, 93
1, 632009, Note_off_c, 0, 60, 61
1, 632011, Control_c, 0, 64, 109
1, 632021, Note_off_c, 0, 67, 62
1, 632026, Control_c, 0, 64, 127
1, 632210, Note_on_c, 0, 67, 43
1, 632242, Note_off_c, 0, 67, 60
1, 632247, Control_c, 0, 67, 112
1, 632262, Control_c, 0, 67, 98
1, 632271, Note_on_c, 0, 72, 55
1, 632277, Control_c, 0, 67, 87
1, 632292, Control_c, 0, 67, 75
1, 632307, Note_off_c, 0, 72, 63
1, 632307, Control_c, 0, 67, 62
1, 632322, Control_c, 0, 67, 47
1, 632336, Note_on_c, 0, 75, 51
1, 632337, Control_c, 0, 67, 35
1, 632352, Control_c, 0, 67, 0
1, 632359, Note_off_c, 0, 75, 64
1, 632425, Note_on_c, 0, 79, 47
1, 632450, Note_off_c, 0, 79, 58
1, 632524, Note_on_c, 0, 84, 86
1, 632701, Note_on_c, 0, 67, 48
1, 632705, Note_on_c, 0, 60, 44
1, 632740, Note_off_c, 0, 60, 58
1, 632742, Note_off_c, 0, 67, 61
1, 632913, Note_on_c, 0, 67, 56
1, 632931, Note_on_c, 0, 60, 11
1, 632937, Note_off_c, 0, 67, 62
1, 632981, Note_off_c, 0, 60, 52
1, 633134, Poly_aftertouch_c, 0, 67, 127
1, 633141, Note_on_c, 0, 72, 65
1, 633174, Note_off_c, 0, 72, 60
1, 633178, Poly_aftertouch_c, 0, 67, 0
1, 633200, Note_on_c, 0, 75, 61
1, 633271, Note_on_c, 0, 79, 61
1, 633272, Note_off_c, 0, 75, 56
1, 633291, Note_off_c, 0, 79, 66
1, 633534, Note_on_c, 0, 86, 84
1, 633562, Note_on_c, 0, 67, 35
1, 633580, Note_off_c, 0, 84, 65
1, 633589, Note_on_c, 0, 60, 13
1, 633622, Note_off_c, 0, 67, 43
1, 633637, Note_off_c, 0, 60, 52
1, 633761, Note_on_c, 0, 84, 90
1, 633766, Note_on_c, 0, 60, 50
1, 633771, Note_on_c, 0, 67, 59
1, 633798, Note_off_c, 0, 60, 65
1, 633802, Note_off_c, 0, 67, 64
1, 633892, Note_off_c, 0, 86, 58
1, 633969, Note_on_c, 0, 67, 58
1, 634010, Note_off_c, 0, 67, 63
1, 634026, Note_on_c, 0, 72, 65
1, 634077, Note_off_c, 0, 72, 60
1, 634081, Note_on_c, 0, 75, 79
1, 634115, Note_off_c, 0, 75, 60
1, 634143, Note_on_c, 0, 79, 67
1, 634166, Note_off_c, 0, 79, 69
1, 634205, Control_c, 0, 67, 35
1, 634220, Control_c, 0, 67, 42
1, 634242, Control_c, 0, 67, 39
1, 634257, Control_c, 0, 67, 37
1, 634271, Control_c, 0, 67, 36
1, 634286, Control_c, 0, 67, 35
1, 634360, Control_c, 0, 67, 35
1, 634375, Control_c, 0, 67, 34
1, 634379, Note_on_c, 0, 86, 97
1, 634382, Note_on_c, 0, 60, 57
1, 634390, Control_c, 0, 67, 0
1, 634391, Note_on_c, 0, 67, 53
1, 634424, Note_off_c, 0, 60, 57
1, 634425, Note_off_c, 0, 84, 63
1, 634428, Note_off_c, 0, 67, 61
1, 634584, Note_on_c, 0, 84, 94
1, 634587, Note_on_c, 0, 60, 57
1, 634605, Note_on_c, 0, 67, 48
1, 634614, Note_off_c, 0, 60, 65
1, 634627, Note_off_c, 0, 67, 62
1, 634768, Note_on_c, 0, 82, 86
1, 634781, Note_on_c, 0, 67, 21
1, 634819, Note_on_c, 0, 72, 63
1, 634820, Note_off_c, 0, 67, 52
1, 634822, Poly_aftertouch_c, 0, 69, 127
1, 634844, Note_off_c, 0, 86, 60
1, 634860, Poly_aftertouch_c, 0, 69, 0
1, 634862, Note_off_c, 0, 72, 57
1, 634887, Note_on_c, 0, 75, 63
1, 634905, Note_off_c, 0, 84, 38
1, 634924, Note_off_c, 0, 75, 60
1, 634960, Note_on_c, 0, 78, 68
1, 634963, Note_on_c, 0, 81, 90
1, 634986, Note_off_c, 0, 78, 64
1, 635008, Note_off_c, 0, 82, 62
1, 635021, Control_c, 0, 67, 65
1, 635036, Control_c, 0, 67, 84
1, 635065, Control_c, 0, 67, 87
1, 635080, Control_c, 0, 67, 93
1, 635095, Control_c, 0, 64, 92
1, 635095, Control_c, 0, 67, 111
1, 635109, Control_c, 0, 64, 71
1, 635109, Control_c, 0, 67, 123
1, 635124, Control_c, 0, 64, 55
1, 635139, Control_c, 0, 64, 37
1, 635153, Note_on_c, 0, 82, 84
1, 635154, Control_c, 0, 64, 0
1, 635154, Control_c, 0, 67, 127
1, 635189, Note_off_c, 0, 81, 63
1, 635240, Note_on_c, 0, 55, 42
1, 635250, Note_on_c, 0, 62, 44
1, 635298, Note_off_c, 0, 55, 53
1, 635306, Note_off_c, 0, 62, 60
1, 635333, Note_on_c, 0, 78, 79
1, 635380, Note_off_c, 0, 82, 61
1, 635495, Control_c, 0, 64, 39
1, 635506, Note_on_c, 0, 79, 79
1, 635507, Note_on_c, 0, 62, 56
1, 635509, Control_c, 0, 64, 64
1, 635510, Note_on_c, 0, 55, 56
1, 635524, Control_c, 0, 64, 84
1, 635533, Note_off_c, 0, 78, 60
1, 635536, Note_off_c, 0, 55, 62
1, 635539, Control_c, 0, 64, 127
1, 635542, Note_off_c, 0, 62, 64
1, 635723, Note_on_c, 0, 62, 56
1, 635777, Note_off_c, 0, 62, 64
1, 635785, Control_c, 0, 67, 121
1, 635787, Note_on_c, 0, 67, 68
1, 635800, Control_c, 0, 67, 112
1, 635829, Control_c, 0, 67, 109
1, 635842, Note_off_c, 0, 67, 63
1, 635851, Note_on_c, 0, 70, 70
1, 635858, Control_c, 0, 67, 112
1, 635873, Control_c, 0, 67, 121
1, 635888, Control_c, 0, 67, 127
1, 635899, Note_on_c, 0, 74, 81
1, 635915, Note_off_c, 0, 70, 60
1, 635920, Note_off_c, 0, 74, 72
1, 635933, Control_c, 0, 64, 100
1, 635947, Control_c, 0, 64, 68
1, 635962, Control_c, 0, 64, 0
1, 636105, Note_on_c, 0, 55, 66
1, 636111, Note_on_c, 0, 62, 61
1, 636138, Note_off_c, 0, 55, 62
1, 636146, Note_off_c, 0, 62, 63
1, 636295, Note_on_c, 0, 55, 64
1, 636303, Control_c, 0, 64, 46
1, 636304, Note_on_c, 0, 62, 62
1, 636318, Control_c, 0, 64, 71
1, 636324, Note_off_c, 0, 55, 64
1, 636325, Note_off_c, 0, 62, 65
1, 636332, Control_c, 0, 64, 99
1, 636347, Control_c, 0, 64, 127
1, 636504, Note_on_c, 0, 62, 54
1, 636534, Control_c, 0, 67, 112
1, 636549, Control_c, 0, 67, 95
1, 636549, Note_off_c, 0, 62, 61
1, 636557, Note_on_c, 0, 67, 67
1, 636563, Control_c, 0, 67, 75
1, 636578, Control_c, 0, 67, 55
1, 636593, Control_c, 0, 67, 48
1, 636603, Note_off_c, 0, 67, 63
1, 636604, Note_on_c, 0, 70, 79
1, 636623, Control_c, 0, 67, 48
1, 636637, Control_c, 0, 67, 52
1, 636649, Note_on_c, 0, 74, 90
1, 636652, Control_c, 0, 67, 59
1, 636665, Note_off_c, 0, 70, 63
1, 636667, Control_c, 0, 64, 81
1, 636667, Control_c, 0, 67, 68
1, 636668, Note_off_c, 0, 74, 70
1, 636681, Control_c, 0, 64, 61
1, 636681, Control_c, 0, 67, 81
1, 636696, Control_c, 0, 64, 0
1, 636696, Control_c, 0, 67, 99
1, 636711, Control_c, 0, 67, 118
1, 636726, Control_c, 0, 67, 127
1, 636869, Note_on_c, 0, 55, 58
1, 636873, Note_on_c, 0, 62, 59
1, 636898, Note_off_c, 0, 55, 64
1, 636900, Note_off_c, 0, 62, 63
1, 637037, Control_c, 0, 64, 49
1, 637047, Note_on_c, 0, 55, 60
1, 637052, Control_c, 0, 64, 68
1, 637054, Note_on_c, 0, 62, 63
1, 637067, Control_c, 0, 64, 80
1, 637077, Note_off_c, 0, 55, 64
1, 637079, Note_off_c, 0, 62, 64
1, 637081, Control_c, 0, 64, 99
1, 637096, Control_c, 0, 64, 127
1, 637220, Note_on_c, 0, 62, 41
1, 637276, Note_off_c, 0, 62, 62
1, 637300, Note_on_c, 0, 67, 56
1, 637308, Note_on_c, 0, 81, 61
1, 637335, Note_off_c, 0, 67, 66
1, 637343, Note_on_c, 0, 70, 75
1, 637350, Note_off_c, 0, 79, 60
1, 637390, Note_off_c, 0, 70, 62
1, 637426, Note_on_c, 0, 73, 70
1, 637443, Note_off_c, 0, 73, 68
1, 637445, Control_c, 0, 64, 87
1, 637460, Control_c, 0, 64, 64
1, 637475, Control_c, 0, 64, 0
1, 637513, Note_on_c, 0, 79, 67
1, 637564, Note_off_c, 0, 81, 60
1, 637703, Note_on_c, 0, 46, 53
1, 637722, Note_on_c, 0, 53, 42
1, 637725, Note_on_c, 0, 76, 65
1, 637743, Note_off_c, 0, 46, 48
1, 637765, Note_off_c, 0, 53, 56
1, 637812, Note_off_c, 0, 79, 50
1, 637919, Control_c, 0, 64, 49
1, 637929, Note_on_c, 0, 46, 56
1, 637932, Note_on_c, 0, 74, 65
1, 637934, Control_c, 0, 64, 69
1, 637935, Note_on_c, 0, 53, 57
1, 637950, Control_c, 0, 64, 88
1, 637958, Note_off_c, 0, 46, 61
1, 637959, Note_off_c, 0, 76, 58
1, 637965, Control_c, 0, 64, 127
1, 637967, Note_off_c, 0, 53, 64
1, 638180, Note_on_c, 0, 53, 47
1, 638204, Note_off_c, 0, 53, 59
1, 638210, Note_on_c, 0, 58, 68
1, 638263, Note_on_c, 0, 62, 66
1, 638268, Note_off_c, 0, 58, 65
1, 638283, Control_c, 0, 64, 83
1, 638298, Control_c, 0, 64, 62
1, 638308, Note_on_c, 0, 67, 74
1, 638313, Control_c, 0, 64, 0
1, 638318, Note_off_c, 0, 62, 61
1, 638328, Note_off_c, 0, 67, 70
1, 638519, Note_on_c, 0, 53, 50
1, 638525, Note_on_c, 0, 46, 44
1, 638552, Note_off_c, 0, 53, 60
1, 638555, Note_off_c, 0, 46, 56
1, 638668, Control_c, 0, 64, 35
1, 638683, Control_c, 0, 64, 59
1, 638686, Note_on_c, 0, 46, 61
1, 638698, Control_c, 0, 64, 75
1, 638703, Note_on_c, 0, 53, 55
1, 638713, Control_c, 0, 64, 98
1, 638716, Note_off_c, 0, 46, 64
1, 638734, Control_c, 0, 64, 127
1, 638737, Note_off_c, 0, 53, 61
1, 638925, Note_on_c, 0, 53, 45
1, 638951, Note_off_c, 0, 53, 58
1, 638954, Note_on_c, 0, 58, 68
1, 638999, Note_on_c, 0, 62, 65
1, 639024, Note_off_c, 0, 58, 64
1, 639032, Control_c, 0, 64, 81
1, 639044, Note_on_c, 0, 67, 76
1, 639046, Control_c, 0, 64, 56
1, 639049, Note_off_c, 0, 62, 56
1, 639061, Control_c, 0, 64, 0
1, 639067, Note_off_c, 0, 67, 71
1, 639276, Note_on_c, 0, 46, 47
1, 639288, Note_on_c, 0, 53, 38
1, 639308, Note_off_c, 0, 46, 62
1, 639325, Note_off_c, 0, 53, 50
1, 639461, Control_c, 0, 64, 42
1, 639482, Control_c, 0, 64, 62
1, 639493, Note_on_c, 0, 53, 40
1, 639495, Note_on_c, 0, 46, 34
1, 639497, Control_c, 0, 64, 72
1, 639512, Control_c, 0, 64, 82
1, 639525, Note_off_c, 0, 53, 53
1, 639527, Control_c, 0, 64, 93
1, 639535, Note_off_c, 0, 46, 54
1, 639542, Control_c, 0, 64, 103
1, 639558, Control_c, 0, 64, 127
1, 639694, Note_on_c, 0, 53, 33
1, 639732, Note_on_c, 0, 58, 59
1, 639737, Note_off_c, 0, 53, 41
1, 639795, Note_off_c, 0, 58, 62
1, 639811, Note_on_c, 0, 62, 31
1, 639860, Note_on_c, 0, 68, 59
1, 639868, Control_c, 0, 64, 86
1, 639879, Note_off_c, 0, 68, 63
1, 639883, Control_c, 0, 64, 62
1, 639892, Note_off_c, 0, 62, 38
1, 639897, Control_c, 0, 64, 0
1, 639900, Note_on_c, 0, 76, 62
1, 639911, Note_off_c, 0, 74, 53
1, 640141, Note_on_c, 0, 52, 50
1, 640152, Note_on_c, 0, 45, 31
1, 640171, Note_off_c, 0, 52, 63
1, 640192, Note_off_c, 0, 45, 41
1, 640395, Control_c, 0, 64, 39
1, 640407, Note_on_c, 0, 73, 50
1, 640409, Control_c, 0, 64, 59
1, 640412, Note_on_c, 0, 52, 48
1, 640415, Note_on_c, 0, 45, 44
1, 640424, Control_c, 0, 64, 69
1, 640439, Control_c, 0, 64, 76
1, 640447, Note_off_c, 0, 45, 48
1, 640447, Note_off_c, 0, 52, 64
1, 640451, Note_off_c, 0, 76, 42
1, 640454, Control_c, 0, 64, 85
1, 640469, Control_c, 0, 64, 94
1, 640484, Control_c, 0, 64, 103
1, 640499, Control_c, 0, 64, 118
1, 640513, Control_c, 0, 64, 127
1, 640689, Note_on_c, 0, 52, 48
1, 640722, Note_off_c, 0, 52, 64
1, 640731, Note_on_c, 0, 57, 61
1, 640780, Note_off_c, 0, 57, 63
1, 640780, Control_c, 0, 64, 89
1, 640794, Control_c, 0, 64, 63
1, 640801, Note_on_c, 0, 61, 69
1, 640809, Control_c, 0, 64, 0
1, 640837, Note_off_c, 0, 61, 63
1, 640840, Note_on_c, 0, 64, 74
1, 640863, Note_off_c, 0, 64, 68
1, 641094, Note_on_c, 0, 52, 51
1, 641097, Note_on_c, 0, 45, 45
1, 641131, Note_off_c, 0, 45, 49
1, 641131, Note_off_c, 0, 52, 56
1, 641288, Note_on_c, 0, 45, 60
1, 641290, Note_on_c, 0, 53, 61
1, 641307, Control_c, 0, 64, 52
1, 641316, Note_off_c, 0, 45, 63
1, 641320, Note_off_c, 0, 53, 64
1, 641322, Control_c, 0, 64, 80
1, 641337, Control_c, 0, 64, 102
1, 641351, Control_c, 0, 64, 113
1, 641381, Control_c, 0, 64, 123
1, 641396, Control_c, 0, 64, 127
1, 641510, Note_on_c, 0, 53, 60
1, 641539, Note_on_c, 0, 57, 75
1, 641549, Note_off_c, 0, 53, 61
1, 641600, Note_on_c, 0, 61, 78
1, 641603, Note_off_c, 0, 57, 63
1, 641636, Note_on_c, 0, 65, 84
1, 641648, Control_c, 0, 64, 80
1, 641654, Note_off_c, 0, 61, 63
1, 641662, Note_off_c, 0, 65, 64
1, 641663, Control_c, 0, 64, 50
1, 641677, Control_c, 0, 64, 0
1, 641847, Note_on_c, 0, 45, 74
1, 641877, Note_off_c, 0, 45, 65
1, 642019, Note_on_c, 0, 56, 94
1, 642026, Control_c, 0, 64, 29
1, 642031, Note_on_c, 0, 45, 62
1, 642041, Control_c, 0, 64, 64
1, 642042, Note_off_c, 0, 56, 68
1, 642055, Note_off_c, 0, 45, 58
1, 642056, Control_c, 0, 64, 100
1, 642071, Control_c, 0, 64, 127
1, 642189, Control_c, 0, 67, 120
1, 642204, Control_c, 0, 67, 97
1, 642210, Note_on_c, 0, 56, 68
1, 642219, Control_c, 0, 67, 78
1, 642233, Control_c, 0, 67, 61
1, 642248, Control_c, 0, 67, 50
1, 642257, Note_on_c, 0, 61, 76
1, 642261, Note_off_c, 0, 56, 63
1, 642263, Control_c, 0, 67, 38
1, 642278, Control_c, 0, 67, 0
1, 642290, Note_on_c, 0, 65, 78
1, 642320, Note_off_c, 0, 61, 67
1, 642335, Note_on_c, 0, 68, 86
1, 642347, Note_off_c, 0, 65, 64
1, 642353, Note_off_c, 0, 68, 72
1, 642366, Note_off_c, 0, 73, 64
1, 642368, Control_c, 0, 64, 73
1, 642382, Control_c, 0, 64, 38
1, 642397, Control_c, 0, 64, 0
1, 642538, Note_on_c, 0, 57, 75
1, 642539, Note_on_c, 0, 50, 67
1, 642575, Note_off_c, 0, 50, 64
1, 642576, Note_off_c, 0, 57, 62
1, 642715, Control_c, 0, 64, 29
1, 642717, Note_on_c, 0, 57, 79
1, 642718, Note_on_c, 0, 50, 69
1, 642730, Control_c, 0, 64, 64
1, 642744, Note_off_c, 0, 50, 67
1, 642745, Note_off_c, 0, 57, 69
1, 642746, Control_c, 0, 64, 89
1, 642761, Control_c, 0, 64, 127
1, 642913, Note_on_c, 0, 57, 62
1, 642947, Note_off_c, 0, 57, 65
1, 642955, Note_on_c, 0, 62, 74
1, 643007, Note_on_c, 0, 65, 81
1, 643012, Note_off_c, 0, 62, 62
1, 643056, Note_on_c, 0, 69, 88
1, 643075, Note_off_c, 0, 65, 59
1, 643086, Control_c, 0, 64, 86
1, 643094, Note_off_c, 0, 69, 60
1, 643101, Control_c, 0, 64, 61
1, 643116, Control_c, 0, 64, 0
1, 643312, Note_on_c, 0, 57, 67
1, 643339, Note_on_c, 0, 50, 24
1, 643349, Note_off_c, 0, 57, 64
1, 643361, Note_on_c, 0, 52, 5
1, 643392, Note_off_c, 0, 50, 36
1, 643411, Note_off_c, 0, 52, 26
1, 643538, Control_c, 0, 64, 37
1, 643554, Control_c, 0, 64, 52
1, 643569, Control_c, 0, 64, 63
1, 643584, Note_on_c, 0, 50, 46
1, 643584, Control_c, 0, 64, 69
1, 643596, Note_on_c, 0, 74, 91
1, 643599, Control_c, 0, 64, 75
1, 643614, Control_c, 0, 64, 85
1, 643622, Note_on_c, 0, 57, 35
1, 643628, Control_c, 0, 64, 105
1, 643636, Note_off_c, 0, 50, 60
1, 643643, Control_c, 0, 64, 127
1, 643655, Note_off_c, 0, 57, 45
1, 643828, Note_on_c, 0, 57, 55
1, 643865, Note_off_c, 0, 57, 62
1, 643871, Note_on_c, 0, 62, 66
1, 643927, Note_off_c, 0, 62, 63
1, 643932, Note_on_c, 0, 65, 72
1, 643980, Note_off_c, 0, 65, 58
1, 643986, Note_on_c, 0, 69, 82
1, 643991, Control_c, 0, 64, 113
1, 644005, Note_off_c, 0, 69, 72
1, 644005, Control_c, 0, 64, 75
1, 644020, Control_c, 0, 64, 49
1, 644035, Control_c, 0, 64, 0
1, 644109, Control_c, 0, 67, 47
1, 644124, Control_c, 0, 67, 54
1, 644139, Control_c, 0, 67, 55
1, 644153, Control_c, 0, 67, 60
1, 644168, Control_c, 0, 67, 82
1, 644183, Control_c, 0, 67, 124
1, 644198, Control_c, 0, 67, 127
1, 644212, Note_on_c, 0, 57, 51
1, 644218, Note_on_c, 0, 50, 46
1, 644258, Note_off_c, 0, 57, 57
1, 644263, Note_off_c, 0, 50, 56
1, 644392, Control_c, 0, 64, 39
1, 644407, Note_on_c, 0, 57, 58
1, 644407, Control_c, 0, 64, 60
1, 644409, Note_on_c, 0, 50, 48
1, 644421, Control_c, 0, 64, 72
1, 644436, Control_c, 0, 64, 84
1, 644436, Note_off_c, 0, 50, 59
1, 644437, Note_off_c, 0, 57, 65
1, 644451, Control_c, 0, 64, 100
1, 644466, Control_c, 0, 64, 119
1, 644481, Control_c, 0, 64, 127
1, 644629, Note_on_c, 0, 57, 48
1, 644660, Note_off_c, 0, 57, 64
1, 644675, Note_on_c, 0, 62, 56
1, 644736, Note_off_c, 0, 62, 60
1, 644740, Note_on_c, 0, 65, 63
1, 644772, Note_off_c, 0, 65, 61
1, 644794, Note_on_c, 0, 69, 72
1, 644799, Control_c, 0, 64, 102
1, 644814, Control_c, 0, 64, 74
1, 644817, Note_off_c, 0, 69, 71
1, 644828, Control_c, 0, 64, 53
1, 644843, Control_c, 0, 64, 0
1, 645082, Note_on_c, 0, 42, 52
1, 645089, Note_on_c, 0, 49, 42
1, 645090, Note_on_c, 0, 76, 56
1, 645122, Note_off_c, 0, 42, 61
1, 645122, Note_off_c, 0, 74, 58
1, 645123, Note_off_c, 0, 49, 60
1, 645363, Control_c, 0, 64, 30
1, 645378, Note_on_c, 0, 42, 54
1, 645378, Control_c, 0, 64, 56
1, 645381, Note_on_c, 0, 73, 54
1, 645387, Note_on_c, 0, 49, 50
1, 645392, Control_c, 0, 64, 71
1, 645405, Note_off_c, 0, 42, 61
1, 645407, Control_c, 0, 64, 84
1, 645418, Note_off_c, 0, 49, 63
1, 645422, Control_c, 0, 64, 101
1, 645432, Note_off_c, 0, 76, 56
1, 645437, Control_c, 0, 64, 127
1, 645636, Note_on_c, 0, 57, 53
1, 645667, Note_off_c, 0, 57, 65
1, 645671, Note_on_c, 0, 61, 67
1, 645718, Note_on_c, 0, 66, 75
1, 645733, Note_off_c, 0, 61, 63
1, 645740, Control_c, 0, 64, 93
1, 645755, Control_c, 0, 64, 64
1, 645760, Note_on_c, 0, 69, 78
1, 645761, Note_off_c, 0, 66, 55
1, 645769, Control_c, 0, 64, 0
1, 645778, Note_off_c, 0, 69, 72
1, 645981, Note_on_c, 0, 49, 63
1, 645990, Note_on_c, 0, 42, 44
1, 646011, Note_off_c, 0, 49, 65
1, 646026, Note_off_c, 0, 42, 53
1, 646149, Note_on_c, 0, 49, 55
1, 646155, Note_on_c, 0, 42, 54
1, 646156, Control_c, 0, 64, 56
1, 646171, Control_c, 0, 64, 73
1, 646180, Note_off_c, 0, 49, 64
1, 646183, Note_off_c, 0, 42, 55
1, 646186, Control_c, 0, 64, 91
1, 646200, Control_c, 0, 64, 99
1, 646267, Control_c, 0, 64, 101
1, 646341, Control_c, 0, 64, 103
1, 646352, Note_on_c, 0, 51, 40
1, 646371, Control_c, 0, 64, 107
1, 646386, Control_c, 0, 64, 126
1, 646416, Note_on_c, 0, 57, 66
1, 646419, Note_off_c, 0, 51, 62
1, 646456, Note_on_c, 0, 61, 82
1, 646469, Note_off_c, 0, 57, 62
1, 646474, Control_c, 0, 64, 88
1, 646489, Control_c, 0, 64, 60
1, 646497, Note_on_c, 0, 63, 81
1, 646503, Note_off_c, 0, 61, 66
1, 646504, Control_c, 0, 64, 0
1, 646518, Note_off_c, 0, 63, 71
1, 646700, Note_on_c, 0, 51, 62
1, 646701, Note_on_c, 0, 42, 57
1, 646728, Note_off_c, 0, 42, 58
1, 646737, Note_off_c, 0, 51, 58
1, 646875, Control_c, 0, 64, 36
1, 646888, Note_on_c, 0, 52, 57
1, 646890, Control_c, 0, 64, 61
1, 646895, Note_on_c, 0, 43, 48
1, 646905, Control_c, 0, 64, 72
1, 646919, Control_c, 0, 64, 83
1, 646920, Note_off_c, 0, 52, 64
1, 646926, Note_off_c, 0, 43, 51
1, 646934, Control_c, 0, 64, 92
1, 646949, Control_c, 0, 64, 97
1, 646971, Control_c, 0, 64, 103
1, 646986, Control_c, 0, 64, 113
1, 647001, Control_c, 0, 64, 127
1, 647126, Note_on_c, 0, 52, 33
1, 647143, Note_on_c, 0, 59, 65
1, 647159, Note_off_c, 0, 52, 56
1, 647179, Note_off_c, 0, 59, 65
1, 647185, Note_on_c, 0, 61, 67
1, 647209, Control_c, 0, 64, 75
1, 647213, Note_on_c, 0, 64, 72
1, 647213, Note_off_c, 0, 61, 68
1, 647223, Control_c, 0, 64, 47
1, 647226, Note_off_c, 0, 73, 64
1, 647229, Note_off_c, 0, 64, 68
1, 647238, Control_c, 0, 64, 0
1, 647421, Note_on_c, 0, 44, 43
1, 647423, Note_on_c, 0, 51, 49
1, 647453, Note_off_c, 0, 44, 54
1, 647459, Note_off_c, 0, 51, 56
1, 647581, Control_c, 0, 64, 34
1, 647595, Control_c, 0, 64, 56
1, 647602, Note_on_c, 0, 44, 42
1, 647609, Note_on_c, 0, 51, 43
1, 647610, Control_c, 0, 64, 70
1, 647625, Control_c, 0, 64, 80
1, 647634, Note_off_c, 0, 44, 48
1, 647639, Control_c, 0, 64, 89
1, 647641, Note_off_c, 0, 51, 53
1, 647654, Control_c, 0, 64, 95
1, 647669, Control_c, 0, 64, 100
1, 647684, Control_c, 0, 64, 107
1, 647699, Control_c, 0, 64, 120
1, 647721, Control_c, 0, 64, 127
1, 647801, Note_on_c, 0, 51, 42
1, 647838, Note_on_c, 0, 56, 64
1, 647841, Note_off_c, 0, 51, 59
1, 647897, Note_off_c, 0, 56, 59
1, 647902, Note_on_c, 0, 60, 57
1, 647928, Control_c, 0, 64, 87
1, 647933, Note_on_c, 0, 63, 68
1, 647938, Note_off_c, 0, 60, 66
1, 647943, Control_c, 0, 64, 62
1, 647951, Note_off_c, 0, 63, 65
1, 647958, Control_c, 0, 64, 0
1, 648157, Note_on_c, 0, 51, 45
1, 648166, Note_on_c, 0, 44, 36
1, 648201, Note_off_c, 0, 44, 48
1, 648225, Note_off_c, 0, 51, 56
1, 648343, Control_c, 0, 64, 31
1, 648358, Control_c, 0, 64, 40
1, 648373, Control_c, 0, 64, 54
1, 648380, Note_on_c, 0, 72, 61
1, 648387, Control_c, 0, 64, 65
1, 648396, Note_on_c, 0, 44, 44
1, 648402, Control_c, 0, 64, 72
1, 648414, Note_on_c, 0, 51, 26
1, 648417, Control_c, 0, 64, 79
1, 648427, Note_off_c, 0, 44, 53
1, 648432, Control_c, 0, 64, 86
1, 648447, Control_c, 0, 64, 91
1, 648457, Note_off_c, 0, 51, 52
1, 648469, Control_c, 0, 64, 95
1, 648484, Control_c, 0, 64, 100
1, 648499, Control_c, 0, 64, 106
1, 648514, Control_c, 0, 64, 112
1, 648529, Control_c, 0, 64, 118
1, 648543, Control_c, 0, 64, 127
1, 648595, Note_on_c, 0, 51, 47
1, 648639, Note_off_c, 0, 51, 61
1, 648643, Note_on_c, 0, 56, 60
1, 648689, Note_on_c, 0, 60, 59
1, 648690, Note_off_c, 0, 56, 53
1, 648721, Control_c, 0, 64, 98
1, 648732, Note_on_c, 0, 65, 72
1, 648735, Control_c, 0, 64, 70
1, 648750, Control_c, 0, 64, 49
1, 648756, Note_off_c, 0, 65, 69
1, 648757, Note_off_c, 0, 60, 63
1, 648765, Control_c, 0, 64, 0
1, 648955, Note_on_c, 0, 51, 40
1, 648963, Note_on_c, 0, 44, 18
1, 648988, Note_off_c, 0, 51, 53
1, 649005, Note_off_c, 0, 44, 48
1, 649120, Control_c, 0, 64, 43
1, 649137, Control_c, 0, 64, 60
1, 649138, Note_on_c, 0, 44, 47
1, 649152, Control_c, 0, 64, 70
1, 649164, Note_on_c, 0, 51, 31
1, 649166, Control_c, 0, 64, 76
1, 649167, Note_off_c, 0, 44, 55
1, 649181, Control_c, 0, 64, 81
1, 649196, Control_c, 0, 64, 85
1, 649206, Note_off_c, 0, 51, 54
1, 649218, Control_c, 0, 64, 90
1, 649233, Control_c, 0, 64, 95
1, 649248, Control_c, 0, 64, 101
1, 649262, Control_c, 0, 64, 106
1, 649277, Control_c, 0, 64, 108
1, 649292, Control_c, 0, 64, 110
1, 649307, Control_c, 0, 64, 112
1, 649337, Control_c, 0, 64, 114
1, 649369, Note_on_c, 0, 51, 11
1, 649391, Note_on_c, 0, 56, 57
1, 649423, Note_off_c, 0, 51, 49
1, 649477, Note_on_c, 0, 60, 33
1, 649488, Note_off_c, 0, 56, 57
1, 649499, Control_c, 0, 64, 102
1, 649514, Control_c, 0, 64, 80
1, 649518, Note_off_c, 0, 60, 64
1, 649522, Note_on_c, 0, 66, 43
1, 649529, Control_c, 0, 64, 60
1, 649543, Control_c, 0, 64, 0
1, 649549, Note_off_c, 0, 66, 59
1, 649805, Note_on_c, 0, 40, 44
1, 649805, Note_on_c, 0, 74, 58
1, 649814, Note_on_c, 0, 47, 33
1, 649845, Note_off_c, 0, 40, 57
1, 649853, Note_off_c, 0, 47, 51
1, 649853, Note_off_c, 0, 72, 51
1, 650116, Note_off_c, 0, 74, 53
1, 650130, Control_c, 0, 64, 45
1, 650132, Note_on_c, 0, 71, 39
1, 650145, Control_c, 0, 64, 62
1, 650146, Note_on_c, 0, 40, 41
1, 650154, Note_on_c, 0, 47, 40
1, 650159, Control_c, 0, 64, 70
1, 650174, Control_c, 0, 64, 77
1, 650181, Note_off_c, 0, 40, 47
1, 650184, Note_off_c, 0, 47, 57
1, 650189, Control_c, 0, 64, 81
1, 650204, Control_c, 0, 64, 85
1, 650219, Control_c, 0, 64, 91
1, 650233, Control_c, 0, 64, 99
1, 650248, Control_c, 0, 64, 108
1, 650263, Control_c, 0, 64, 119
1, 650278, Control_c, 0, 64, 127
1, 650410, Note_on_c, 0, 55, 39
1, 650443, Note_on_c, 0, 59, 62
1, 650444, Note_off_c, 0, 55, 52
1, 650455, Control_c, 0, 64, 94
1, 650470, Control_c, 0, 64, 69
1, 650482, Note_on_c, 0, 64, 70
1, 650482, Note_off_c, 0, 59, 64
1, 650485, Control_c, 0, 64, 30
1, 650500, Control_c, 0, 64, 0
1, 650514, Note_off_c, 0, 64, 66
1, 650524, Note_on_c, 0, 67, 69
1, 650549, Note_off_c, 0, 67, 70
1, 650747, Note_on_c, 0, 40, 42
1, 650759, Note_on_c, 0, 47, 39
1, 650780, Note_off_c, 0, 40, 48
1, 650793, Note_off_c, 0, 47, 50
1, 650893, Control_c, 0, 64, 31
1, 650908, Control_c, 0, 64, 57
1, 650920, Note_on_c, 0, 47, 57
1, 650923, Control_c, 0, 64, 72
1, 650938, Control_c, 0, 64, 85
1, 650951, Note_off_c, 0, 47, 64
1, 650953, Control_c, 0, 64, 100
1, 650968, Control_c, 0, 64, 106
1, 650976, Poly_aftertouch_c, 0, 40, 0
1, 650982, Control_c, 0, 64, 110
1, 650997, Control_c, 0, 64, 112
1, 651012, Control_c, 0, 64, 114
1, 651014, Poly_aftertouch_c, 0, 40, 0
1, 651027, Control_c, 0, 64, 116
1, 651057, Control_c, 0, 64, 118
1, 651131, Control_c, 0, 64, 121
1, 651143, Note_on_c, 0, 47, 34
1, 651146, Control_c, 0, 64, 127
1, 651169, Note_on_c, 0, 52, 59
1, 651177, Note_off_c, 0, 47, 47
1, 651205, Control_c, 0, 64, 110
1, 651209, Note_on_c, 0, 55, 68
1, 651211, Note_off_c, 0, 52, 62
1, 651220, Control_c, 0, 64, 86
1, 651235, Control_c, 0, 64, 68
1, 651245, Note_off_c, 0, 55, 65
1, 651249, Note_on_c, 0, 59, 78
1, 651250, Control_c, 0, 64, 47
1, 651264, Control_c, 0, 64, 0
1, 651273, Note_off_c, 0, 59, 69
1, 651468, Note_on_c, 0, 47, 56
1, 651469, Note_on_c, 0, 40, 49
1, 651499, Note_off_c, 0, 40, 60
1, 651502, Note_off_c, 0, 47, 64
1, 651613, Control_c, 0, 64, 34
1, 651628, Control_c, 0, 64, 51
1, 651643, Control_c, 0, 64, 65
1, 651647, Note_on_c, 0, 40, 52
1, 651658, Note_on_c, 0, 47, 62
1, 651658, Control_c, 0, 64, 77
1, 651673, Control_c, 0, 64, 98
1, 651680, Note_off_c, 0, 40, 63
1, 651687, Control_c, 0, 64, 127
1, 651689, Note_off_c, 0, 47, 65
1, 651890, Note_on_c, 0, 47, 6
1, 651898, Note_on_c, 0, 52, 59
1, 651930, Note_off_c, 0, 47, 54
1, 651932, Note_on_c, 0, 55, 64
1, 651960, Note_off_c, 0, 52, 60
1, 651996, Note_on_c, 0, 61, 74
1, 652013, Control_c, 0, 64, 97
1, 652017, Note_off_c, 0, 55, 56
1, 652021, Note_off_c, 0, 61, 69
1, 652028, Control_c, 0, 64, 81
1, 652043, Control_c, 0, 64, 71
1, 652058, Control_c, 0, 64, 62
1, 652073, Control_c, 0, 64, 54
1, 652087, Control_c, 0, 64, 47
1, 652102, Control_c, 0, 64, 43
1, 652117, Control_c, 0, 64, 40
1, 652131, Control_c, 0, 64, 37
1, 652146, Control_c, 0, 64, 33
1, 652161, Control_c, 0, 64, 0
1, 652220, Note_off_c, 0, 71, 64
1, 652237, Note_on_c, 0, 43, 58
1, 652243, Note_on_c, 0, 50, 60
1, 652276, Note_off_c, 0, 43, 61
1, 652300, Note_off_c, 0, 50, 46
1, 652363, Control_c, 0, 64, 36
1, 652377, Control_c, 0, 64, 54
1, 652392, Control_c, 0, 64, 64
1, 652407, Control_c, 0, 64, 65
1, 652436, Control_c, 0, 64, 66
1, 652451, Control_c, 0, 64, 69
1, 652466, Control_c, 0, 64, 76
1, 652476, Note_on_c, 0, 43, 53
1, 652480, Note_on_c, 0, 50, 53
1, 652481, Control_c, 0, 64, 90
1, 652481, Control_c, 0, 67, 125
1, 652496, Control_c, 0, 64, 118
1, 652496, Control_c, 0, 67, 108
1, 652505, Note_off_c, 0, 43, 61
1, 652510, Control_c, 0, 64, 127
1, 652510, Control_c, 0, 67, 104
1, 652512, Note_off_c, 0, 50, 63
1, 652538, Control_c, 0, 67, 102
1, 652583, Control_c, 0, 67, 98
1, 652598, Control_c, 0, 67, 94
1, 652613, Control_c, 0, 67, 89
1, 652627, Control_c, 0, 67, 83
1, 652642, Control_c, 0, 67, 76
1, 652657, Control_c, 0, 67, 69
1, 652672, Control_c, 0, 67, 63
1, 652687, Control_c, 0, 67, 55
1, 652691, Note_on_c, 0, 50, 48
1, 652702, Control_c, 0, 67, 45
1, 652716, Control_c, 0, 67, 34
1, 652717, Note_off_c, 0, 50, 59
1, 652731, Control_c, 0, 67, 0
1, 652738, Note_on_c, 0, 55, 52
1, 652769, Note_off_c, 0, 55, 63
1, 652774, Note_on_c, 0, 58, 63
1, 652822, Note_off_c, 0, 58, 52
1, 652870, Note_on_c, 0, 62, 30
1, 652909, Note_off_c, 0, 62, 54
1, 652947, Note_on_c, 0, 70, 80
1, 652990, Control_c, 0, 64, 117
1, 653005, Control_c, 0, 64, 95
1, 653020, Control_c, 0, 64, 82
1, 653034, Control_c, 0, 64, 70
1, 653049, Control_c, 0, 64, 61
1, 653064, Control_c, 0, 64, 51
1, 653078, Control_c, 0, 64, 47
1, 653093, Control_c, 0, 64, 45
1, 653108, Control_c, 0, 64, 41
1, 653123, Control_c, 0, 64, 35
1, 653129, Note_on_c, 0, 43, 44
1, 653139, Control_c, 0, 64, 0
1, 653141, Note_on_c, 0, 50, 41
1, 653180, Note_off_c, 0, 50, 58
1, 653183, Control_c, 0, 67, 34
1, 653184, Note_off_c, 0, 43, 49
1, 653198, Control_c, 0, 67, 37
1, 653213, Control_c, 0, 67, 42
1, 653228, Control_c, 0, 67, 44
1, 653243, Control_c, 0, 67, 46
1, 653257, Control_c, 0, 67, 48
1, 653272, Control_c, 0, 64, 34
1, 653287, Control_c, 0, 64, 56
1, 653287, Control_c, 0, 67, 47
1, 653302, Control_c, 0, 64, 73
1, 653313, Note_on_c, 0, 45, 53
1, 653316, Note_on_c, 0, 52, 59
1, 653317, Control_c, 0, 64, 96
1, 653317, Control_c, 0, 67, 46
1, 653331, Control_c, 0, 64, 127
1, 653331, Control_c, 0, 67, 45
1, 653340, Note_off_c, 0, 52, 61
1, 653340, Note_off_c, 0, 45, 53
1, 653346, Control_c, 0, 67, 44
1, 653361, Control_c, 0, 67, 42
1, 653376, Control_c, 0, 67, 41
1, 653391, Control_c, 0, 67, 41
1, 653406, Control_c, 0, 67, 40
1, 653421, Control_c, 0, 67, 39
1, 653436, Control_c, 0, 67, 38
1, 653450, Control_c, 0, 67, 37
1, 653480, Control_c, 0, 67, 38
1, 653495, Control_c, 0, 67, 38
1, 653505, Note_on_c, 0, 52, 47
1, 653525, Control_c, 0, 67, 37
1, 653533, Note_off_c, 0, 52, 62
1, 653539, Control_c, 0, 67, 37
1, 653541, Note_on_c, 0, 55, 64
1, 653554, Control_c, 0, 67, 36
1, 653583, Control_c, 0, 67, 35
1, 653588, Note_on_c, 0, 61, 71
1, 653589, Note_off_c, 0, 55, 59
1, 653598, Control_c, 0, 67, 34
1, 653613, Control_c, 0, 67, 0
1, 653647, Note_off_c, 0, 61, 59
1, 653649, Note_on_c, 0, 64, 63
1, 653677, Note_off_c, 0, 64, 66
1, 653709, Control_c, 0, 64, 106
1, 653724, Control_c, 0, 64, 87
1, 653739, Control_c, 0, 64, 73
1, 653754, Control_c, 0, 64, 63
1, 653769, Control_c, 0, 64, 49
1, 653780, Note_on_c, 0, 72, 81
1, 653783, Control_c, 0, 64, 36
1, 653798, Control_c, 0, 64, 0
1, 653869, Note_off_c, 0, 70, 59
1, 653898, Note_on_c, 0, 45, 48
1, 653900, Note_on_c, 0, 52, 52
1, 653901, Control_c, 0, 67, 36
1, 653916, Control_c, 0, 67, 38
1, 653933, Control_c, 0, 67, 40
1, 653942, Note_off_c, 0, 45, 53
1, 653947, Note_off_c, 0, 52, 61
1, 653948, Control_c, 0, 67, 44
1, 653962, Control_c, 0, 67, 50
1, 653977, Control_c, 0, 67, 54
1, 653992, Control_c, 0, 67, 58
1, 654006, Control_c, 0, 67, 59
1, 654022, Control_c, 0, 67, 60
1, 654037, Control_c, 0, 67, 64
1, 654052, Control_c, 0, 67, 84
1, 654067, Control_c, 0, 67, 98
1, 654125, Control_c, 0, 67, 101
1, 654169, Note_on_c, 0, 46, 40
1, 654171, Note_on_c, 0, 53, 47
1, 654185, Control_c, 0, 64, 40
1, 654192, Note_on_c, 0, 69, 72
1, 654199, Control_c, 0, 64, 60
1, 654212, Note_off_c, 0, 46, 59
1, 654214, Control_c, 0, 64, 72
1, 654214, Control_c, 0, 67, 107
1, 654229, Control_c, 0, 64, 82
1, 654229, Control_c, 0, 67, 114
1, 654237, Note_off_c, 0, 53, 59
1, 654244, Control_c, 0, 64, 89
1, 654259, Control_c, 0, 64, 92
1, 654273, Note_off_c, 0, 72, 58
1, 654273, Control_c, 0, 64, 97
1, 654288, Control_c, 0, 64, 106
1, 654288, Control_c, 0, 67, 118
1, 654303, Control_c, 0, 64, 127
1, 654318, Control_c, 0, 67, 115
1, 654378, Control_c, 0, 67, 118
1, 654401, Note_on_c, 0, 53, 34
1, 654431, Note_off_c, 0, 53, 54
1, 654436, Note_on_c, 0, 58, 64
1, 654459, Control_c, 0, 67, 121
1, 654474, Control_c, 0, 67, 127
1, 654496, Note_off_c, 0, 58, 57
1, 654500, Note_on_c, 0, 61, 60
1, 654533, Control_c, 0, 64, 119
1, 654540, Note_on_c, 0, 65, 77
1, 654548, Control_c, 0, 64, 81
1, 654562, Note_off_c, 0, 61, 61
1, 654562, Note_off_c, 0, 65, 70
1, 654562, Control_c, 0, 64, 57
1, 654577, Control_c, 0, 64, 0
1, 654822, Note_on_c, 0, 46, 43
1, 654824, Note_on_c, 0, 53, 44
1, 654837, Note_on_c, 0, 70, 67
1, 654860, Note_off_c, 0, 46, 56
1, 654878, Note_off_c, 0, 69, 51
1, 654893, Note_off_c, 0, 53, 53
1, 655114, Note_on_c, 0, 67, 63
1, 655126, Note_off_c, 0, 70, 62
1, 655130, Note_on_c, 0, 47, 51
1, 655147, Note_on_c, 0, 53, 23
1, 655155, Control_c, 0, 64, 46
1, 655170, Control_c, 0, 64, 66
1, 655178, Note_off_c, 0, 47, 58
1, 655185, Control_c, 0, 64, 73
1, 655203, Note_off_c, 0, 53, 48
1, 655207, Control_c, 0, 64, 81
1, 655222, Control_c, 0, 64, 86
1, 655236, Control_c, 0, 64, 92
1, 655251, Control_c, 0, 64, 100
1, 655266, Control_c, 0, 64, 112
1, 655281, Control_c, 0, 64, 127
1, 655396, Note_on_c, 0, 53, 49
1, 655428, Note_off_c, 0, 53, 63
1, 655445, Note_on_c, 0, 59, 59
1, 655491, Note_off_c, 0, 59, 62
1, 655497, Note_on_c, 0, 62, 66
1, 655534, Control_c, 0, 64, 106
1, 655549, Control_c, 0, 64, 81
1, 655560, Note_on_c, 0, 65, 72
1, 655564, Control_c, 0, 64, 63
1, 655567, Note_off_c, 0, 62, 56
1, 655578, Control_c, 0, 64, 35
1, 655583, Note_off_c, 0, 65, 69
1, 655593, Control_c, 0, 64, 0
1, 655883, Note_on_c, 0, 38, 47
1, 655889, Note_on_c, 0, 45, 45
1, 655889, Note_on_c, 0, 69, 63
1, 655927, Note_off_c, 0, 67, 60
1, 655933, Note_off_c, 0, 45, 58
1, 655939, Note_off_c, 0, 38, 58
1, 656193, Control_c, 0, 64, 45
1, 656199, Note_on_c, 0, 65, 61
1, 656206, Note_on_c, 0, 38, 55
1, 656207, Note_off_c, 0, 69, 60
1, 656208, Control_c, 0, 64, 63
1, 656222, Note_on_c, 0, 45, 33
1, 656223, Control_c, 0, 64, 72
1, 656238, Control_c, 0, 64, 80
1, 656239, Note_off_c, 0, 38, 62
1, 656252, Control_c, 0, 64, 83
1, 656260, Note_off_c, 0, 45, 54
1, 656267, Control_c, 0, 64, 85
1, 656282, Control_c, 0, 64, 88
1, 656296, Control_c, 0, 64, 92
1, 656311, Control_c, 0, 64, 96
1, 656327, Control_c, 0, 64, 101
1, 656342, Control_c, 0, 64, 105
1, 656357, Control_c, 0, 64, 109
1, 656372, Control_c, 0, 64, 113
1, 656387, Control_c, 0, 64, 120
1, 656401, Control_c, 0, 64, 127
1, 656445, Note_on_c, 0, 45, 45
1, 656479, Note_off_c, 0, 45, 63
1, 656484, Note_on_c, 0, 50, 59
1, 656548, Note_off_c, 0, 50, 62
1, 656548, Note_on_c, 0, 53, 70
1, 656588, Note_off_c, 0, 53, 56
1, 656594, Control_c, 0, 64, 104
1, 656598, Note_on_c, 0, 57, 71
1, 656608, Control_c, 0, 64, 74
1, 656609, Note_on_c, 0, 62, 67
1, 656623, Control_c, 0, 64, 52
1, 656625, Note_off_c, 0, 57, 66
1, 656638, Control_c, 0, 64, 0
1, 656643, Note_off_c, 0, 65, 55
1, 656837, Note_on_c, 0, 45, 55
1, 656839, Note_on_c, 0, 38, 47
1, 656864, Note_off_c, 0, 45, 61
1, 656871, Note_off_c, 0, 38, 55
1, 657016, Control_c, 0, 64, 32
1, 657031, Control_c, 0, 64, 55
1, 657046, Control_c, 0, 64, 70
1, 657052, Note_on_c, 0, 36, 54
1, 657055, Note_on_c, 0, 43, 55
1, 657061, Control_c, 0, 64, 82
1, 657075, Control_c, 0, 64, 95
1, 657081, Note_off_c, 0, 43, 57
1, 657084, Note_off_c, 0, 36, 52
1, 657090, Control_c, 0, 64, 99
1, 657121, Control_c, 0, 64, 102
1, 657150, Control_c, 0, 64, 106
1, 657165, Control_c, 0, 64, 108
1, 657180, Control_c, 0, 64, 111
1, 657245, Note_on_c, 0, 43, 44
1, 657254, Control_c, 0, 64, 113
1, 657284, Control_c, 0, 64, 116
1, 657289, Note_off_c, 0, 43, 62
1, 657299, Control_c, 0, 64, 121
1, 657304, Note_on_c, 0, 48, 67
1, 657314, Control_c, 0, 64, 127
1, 657346, Note_on_c, 0, 51, 68
1, 657346, Note_off_c, 0, 48, 61
1, 657388, Control_c, 0, 64, 99
1, 657400, Note_on_c, 0, 55, 67
1, 657403, Control_c, 0, 64, 74
1, 657411, Note_off_c, 0, 51, 60
1, 657418, Control_c, 0, 64, 46
1, 657419, Note_off_c, 0, 62, 58
1, 657421, Note_off_c, 0, 55, 63
1, 657428, Note_on_c, 0, 60, 53
1, 657432, Control_c, 0, 64, 0
1, 657657, Note_on_c, 0, 36, 52
1, 657657, Note_on_c, 0, 43, 53
1, 657684, Note_off_c, 0, 43, 58
1, 657686, Note_off_c, 0, 36, 58
1, 657898, Control_c, 0, 64, 42
1, 657913, Control_c, 0, 64, 58
1, 657922, Note_on_c, 0, 62, 46
1, 657928, Note_off_c, 0, 60, 54
1, 657929, Control_c, 0, 64, 66
1, 657934, Note_on_c, 0, 34, 44
1, 657936, Note_on_c, 0, 41, 45
1, 657944, Control_c, 0, 64, 72
1, 657959, Control_c, 0, 64, 79
1, 657969, Note_off_c, 0, 41, 62
1, 657971, Note_off_c, 0, 34, 47
1, 657973, Control_c, 0, 64, 88
1, 657988, Control_c, 0, 64, 99
1, 658003, Control_c, 0, 64, 110
1, 658018, Control_c, 0, 64, 127
1, 658181, Note_on_c, 0, 41, 40
1, 658223, Note_off_c, 0, 41, 63
1, 658229, Note_on_c, 0, 46, 61
1, 658291, Note_on_c, 0, 50, 63
1, 658292, Control_c, 0, 64, 90
1, 658304, Note_off_c, 0, 46, 60
1, 658307, Control_c, 0, 64, 66
1, 658321, Control_c, 0, 64, 31
1, 658324, Note_on_c, 0, 53, 73
1, 658324, Note_off_c, 0, 50, 66
1, 658336, Control_c, 0, 64, 0
1, 658349, Note_off_c, 0, 53, 66
1, 658571, Note_on_c, 0, 41, 56
1, 658584, Note_on_c, 0, 34, 41
1, 658605, Note_off_c, 0, 41, 64
1, 658623, Note_off_c, 0, 34, 49
1, 658840, Control_c, 0, 64, 46
1, 658855, Control_c, 0, 64, 63
1, 658857, Note_on_c, 0, 33, 41
1, 658867, Note_on_c, 0, 40, 41
1, 658870, Control_c, 0, 64, 70
1, 658885, Control_c, 0, 64, 76
1, 658892, Note_off_c, 0, 33, 49
1, 658900, Control_c, 0, 64, 81
1, 658901, Note_off_c, 0, 40, 52
1, 658914, Control_c, 0, 64, 85
1, 658929, Control_c, 0, 64, 91
1, 658951, Control_c, 0, 64, 101
1, 658966, Control_c, 0, 64, 112
1, 658981, Control_c, 0, 64, 127
1, 659129, Note_on_c, 0, 40, 43
1, 659165, Note_off_c, 0, 40, 62
1, 659183, Note_on_c, 0, 45, 60
1, 659233, Control_c, 0, 64, 105
1, 659243, Note_off_c, 0, 45, 60
1, 659248, Control_c, 0, 64, 74
1, 659254, Note_on_c, 0, 50, 65
1, 659263, Control_c, 0, 64, 50
1, 659277, Control_c, 0, 64, 0
1, 659284, Note_off_c, 0, 50, 66
1, 659295, Note_on_c, 0, 52, 73
1, 659319, Note_off_c, 0, 52, 66
1, 659609, Note_on_c, 0, 40, 51
1, 659612, Note_on_c, 0, 33, 48
1, 659636, Note_off_c, 0, 40, 58
1, 659645, Note_off_c, 0, 33, 62
1, 659952, Control_c, 0, 64, 36
1, 659967, Control_c, 0, 64, 50
1, 659982, Control_c, 0, 64, 55
1, 659997, Control_c, 0, 64, 57
1, 660012, Control_c, 0, 64, 60
1, 660018, Note_on_c, 0, 31, 37
1, 660019, Note_on_c, 0, 38, 49
1, 660026, Control_c, 0, 64, 65
1, 660041, Control_c, 0, 64, 72
1, 660056, Note_off_c, 0, 31, 51
1, 660056, Control_c, 0, 64, 84
1, 660059, Note_off_c, 0, 38, 62
1, 660070, Control_c, 0, 64, 109
1, 660085, Control_c, 0, 64, 127
1, 660088, Note_off_c, 0, 62, 62
1, 660421, Note_on_c, 0, 64, 35
1, 660451, Note_on_c, 0, 55, 50
1, 660477, Note_off_c, 0, 64, 59
1, 660479, Note_on_c, 0, 67, 57
1, 660502, Note_off_c, 0, 55, 59
1, 660507, Note_on_c, 0, 58, 66
1, 660513, Note_on_c, 0, 70, 67
1, 660539, Note_off_c, 0, 67, 57
1, 660557, Note_on_c, 0, 62, 68
1, 660569, Note_off_c, 0, 58, 61
1, 660590, Note_off_c, 0, 70, 66
1, 660608, Note_on_c, 0, 77, 60
1, 660610, Note_off_c, 0, 62, 60
1, 660612, Control_c, 0, 64, 108
1, 660617, Note_on_c, 0, 65, 61
1, 660627, Note_off_c, 0, 77, 64
1, 660627, Control_c, 0, 64, 80
1, 660636, Note_off_c, 0, 65, 63
1, 660641, Control_c, 0, 64, 64
1, 660656, Control_c, 0, 64, 49
1, 660671, Control_c, 0, 64, 38
1, 660686, Control_c, 0, 64, 37
1, 660805, Control_c, 0, 64, 36
1, 660820, Control_c, 0, 64, 35
1, 660835, Control_c, 0, 64, 34
1, 660849, Control_c, 0, 64, 33
1, 660864, Control_c, 0, 64, 32
1, 660879, Control_c, 0, 64, 30
1, 660924, Control_c, 0, 64, 0
1, 660957, Note_on_c, 0, 62, 55
1, 660961, Note_on_c, 0, 58, 53
1, 660962, Note_on_c, 0, 43, 53
1, 660971, Note_on_c, 0, 55, 45
1, 660990, Note_off_c, 0, 58, 63
1, 660994, Note_off_c, 0, 43, 63
1, 660996, Note_off_c, 0, 62, 61
1, 661001, Note_off_c, 0, 55, 54
1, 661013, Poly_aftertouch_c, 0, 50, 127
1, 661049, Poly_aftertouch_c, 0, 50, 0
1, 661072, Control_c, 0, 64, 29
1, 661177, Control_c, 0, 64, 0
1, 661243, Control_c, 0, 64, 34
1, 661258, Control_c, 0, 64, 52
1, 661263, Note_on_c, 0, 62, 49
1, 661265, Note_on_c, 0, 43, 50
1, 661267, Note_on_c, 0, 58, 41
1, 661271, Note_on_c, 0, 55, 36
1, 661273, Control_c, 0, 64, 68
1, 661287, Note_on_c, 0, 50, 24
1, 661287, Control_c, 0, 64, 84
1, 661293, Note_off_c, 0, 43, 55
1, 661294, Note_off_c, 0, 58, 57
1, 661300, Note_off_c, 0, 62, 62
1, 661302, Control_c, 0, 64, 101
1, 661306, Note_off_c, 0, 55, 50
1, 661317, Control_c, 0, 64, 116
1, 661329, Note_off_c, 0, 50, 53
1, 661332, Control_c, 0, 64, 127
1, 661564, Note_on_c, 0, 64, 52
1, 661582, Note_on_c, 0, 55, 57
1, 661601, Note_off_c, 0, 64, 63
1, 661607, Poly_aftertouch_c, 0, 52, 127
1, 661613, Note_on_c, 0, 67, 59
1, 661613, Control_c, 0, 67, 124
1, 661617, Note_on_c, 0, 58, 65
1, 661628, Control_c, 0, 67, 116
1, 661630, Note_off_c, 0, 55, 58
1, 661643, Control_c, 0, 67, 99
1, 661645, Poly_aftertouch_c, 0, 52, 0
1, 661651, Note_on_c, 0, 70, 71
1, 661658, Control_c, 0, 67, 75
1, 661672, Control_c, 0, 67, 46
1, 661676, Note_on_c, 0, 62, 72
1, 661685, Note_off_c, 0, 58, 63
1, 661687, Note_off_c, 0, 67, 60
1, 661687, Control_c, 0, 67, 0
1, 661719, Note_on_c, 0, 65, 74
1, 661719, Note_off_c, 0, 70, 66
1, 661723, Note_on_c, 0, 77, 70
1, 661729, Note_off_c, 0, 62, 62
1, 661741, Note_off_c, 0, 65, 70
1, 661746, Note_off_c, 0, 77, 70
1, 661761, Control_c, 0, 64, 114
1, 661776, Control_c, 0, 64, 79
1, 661791, Control_c, 0, 64, 59
1, 661806, Control_c, 0, 64, 0
1, 661981, Note_on_c, 0, 62, 75
1, 661984, Note_on_c, 0, 43, 64
1, 661985, Note_on_c, 0, 50, 61
1, 661997, Note_on_c, 0, 58, 58
1, 662000, Note_on_c, 0, 55, 51
1, 662019, Note_off_c, 0, 62, 62
1, 662020, Note_off_c, 0, 43, 61
1, 662020, Note_off_c, 0, 58, 59
1, 662025, Note_off_c, 0, 50, 63
1, 662026, Note_off_c, 0, 55, 57
1, 662182, Note_on_c, 0, 43, 75
1, 662186, Note_on_c, 0, 62, 71
1, 662188, Note_on_c, 0, 58, 62
1, 662190, Note_on_c, 0, 55, 65
1, 662191, Note_on_c, 0, 50, 72
1, 662200, Control_c, 0, 64, 54
1, 662211, Note_off_c, 0, 43, 63
1, 662214, Control_c, 0, 64, 89
1, 662216, Note_off_c, 0, 58, 65
1, 662219, Note_off_c, 0, 50, 66
1, 662219, Note_off_c, 0, 55, 63
1, 662220, Note_off_c, 0, 62, 65
1, 662229, Control_c, 0, 64, 127
1, 662426, Note_on_c, 0, 64, 59
1, 662429, Note_on_c, 0, 52, 70
1, 662450, Note_on_c, 0, 55, 72
1, 662457, Note_off_c, 0, 64, 66
1, 662462, Note_on_c, 0, 67, 75
1, 662465, Note_off_c, 0, 52, 59
1, 662492, Note_on_c, 0, 58, 73
1, 662505, Note_on_c, 0, 70, 74
1, 662522, Note_off_c, 0, 55, 61
1, 662524, Note_on_c, 0, 62, 80
1, 662540, Note_off_c, 0, 67, 61
1, 662553, Note_on_c, 0, 74, 79
1, 662557, Note_off_c, 0, 58, 63
1, 662561, Note_off_c, 0, 70, 65
1, 662566, Note_on_c, 0, 77, 86
1, 662566, Note_on_c, 0, 65, 76
1, 662576, Note_off_c, 0, 62, 65
1, 662581, Note_off_c, 0, 74, 65
1, 662584, Control_c, 0, 64, 87
1, 662588, Note_off_c, 0, 65, 70
1, 662599, Note_off_c, 0, 77, 61
1, 662599, Control_c, 0, 64, 66
1, 662614, Control_c, 0, 64, 45
1, 662629, Control_c, 0, 64, 0
1, 662756, Control_c, 0, 67, 65
1, 662770, Control_c, 0, 64, 49
1, 662770, Control_c, 0, 67, 98
1, 662785, Control_c, 0, 64, 74
1, 662785, Control_c, 0, 67, 127
1, 662799, Note_on_c, 0, 61, 64
1, 662799, Note_on_c, 0, 73, 70
1, 662800, Control_c, 0, 64, 127
1, 662804, Note_on_c, 0, 70, 67
1, 662805, Note_on_c, 0, 54, 57
1, 662811, Note_on_c, 0, 66, 65
1, 662823, Note_off_c, 0, 73, 69
1, 662825, Note_off_c, 0, 61, 66
1, 662828, Note_off_c, 0, 54, 61
1, 662829, Note_off_c, 0, 66, 66
1, 662830, Note_off_c, 0, 70, 69
1, 663001, Note_on_c, 0, 62, 68
1, 663013, Note_on_c, 0, 50, 66
1, 663036, Note_on_c, 0, 58, 31
1, 663037, Note_off_c, 0, 62, 63
1, 663037, Control_c, 0, 64, 106
1, 663040, Note_off_c, 0, 50, 66
1, 663051, Control_c, 0, 64, 75
1, 663066, Control_c, 0, 64, 53
1, 663070, Note_off_c, 0, 58, 48
1, 663081, Control_c, 0, 64, 0
1, 663106, Poly_aftertouch_c, 0, 43, 0
1, 663125, Poly_aftertouch_c, 0, 41, 0
1, 663256, Note_on_c, 0, 73, 52
1, 663258, Control_c, 0, 64, 49
1, 663260, Note_on_c, 0, 61, 62
1, 663261, Note_on_c, 0, 54, 11
1, 663264, Note_on_c, 0, 70, 56
1, 663270, Note_on_c, 0, 66, 57
1, 663273, Control_c, 0, 64, 66
1, 663288, Note_off_c, 0, 61, 66
1, 663288, Control_c, 0, 64, 75
1, 663295, Note_off_c, 0, 70, 66
1, 663299, Note_off_c, 0, 66, 66
1, 663302, Note_off_c, 0, 73, 63
1, 663302, Note_off_c, 0, 54, 60
1, 663302, Control_c, 0, 64, 81
1, 663317, Control_c, 0, 64, 84
1, 663332, Control_c, 0, 64, 91
1, 663347, Control_c, 0, 64, 103
1, 663362, Control_c, 0, 64, 127
1, 663563, Note_on_c, 0, 62, 48
1, 663583, Note_on_c, 0, 58, 46
1, 663587, Note_on_c, 0, 43, 46
1, 663602, Note_on_c, 0, 50, 34
1, 663618, Note_on_c, 0, 55, 35
1, 663637, Control_c, 0, 64, 101
1, 663652, Control_c, 0, 64, 85
1, 663656, Note_off_c, 0, 50, 60
1, 663666, Control_c, 0, 64, 73
1, 663680, Note_off_c, 0, 55, 56
1, 663681, Control_c, 0, 64, 63
1, 663692, Note_off_c, 0, 62, 62
1, 663695, Note_off_c, 0, 43, 63
1, 663696, Control_c, 0, 64, 49
1, 663701, Note_off_c, 0, 58, 63
1, 663711, Control_c, 0, 64, 36
1, 663726, Control_c, 0, 64, 0
1, 664111, Control_c, 0, 64, 35
1, 664126, Control_c, 0, 64, 47
1, 664134, Note_on_c, 0, 57, 43
1, 664141, Control_c, 0, 64, 62
1, 664149, Note_on_c, 0, 53, 35
1, 664153, Note_on_c, 0, 50, 35
1, 664156, Control_c, 0, 64, 71
1, 664157, Note_on_c, 0, 38, 35
1, 664171, Note_on_c, 0, 45, 32
1, 664171, Control_c, 0, 64, 81
1, 664191, Note_off_c, 0, 53, 50
1, 664193, Control_c, 0, 64, 94
1, 664196, Note_off_c, 0, 50, 50
1, 664203, Note_off_c, 0, 38, 47
1, 664207, Note_off_c, 0, 57, 62
1, 664208, Control_c, 0, 64, 123
1, 664217, Note_off_c, 0, 45, 42
1, 664223, Control_c, 0, 64, 127
1, 664434, Note_on_c, 0, 43, 28
1, 664436, Note_on_c, 0, 62, 48
1, 664459, Note_on_c, 0, 48, 67
1, 664473, Note_off_c, 0, 43, 53
1, 664480, Note_off_c, 0, 62, 60
1, 664488, Note_on_c, 0, 65, 65
1, 664497, Note_off_c, 0, 48, 60
1, 664540, Note_on_c, 0, 69, 70
1, 664549, Note_on_c, 0, 52, 32
1, 664551, Note_off_c, 0, 65, 57
1, 664588, Note_on_c, 0, 55, 59
1, 664589, Note_off_c, 0, 52, 55
1, 664608, Note_off_c, 0, 69, 62
1, 664616, Note_off_c, 0, 55, 64
1, 664648, Note_on_c, 0, 77, 71
1, 664661, Note_on_c, 0, 62, 54
1, 664670, Note_off_c, 0, 77, 71
1, 664671, Note_on_c, 0, 60, 39
1, 664683, Control_c, 0, 64, 108
1, 664684, Note_off_c, 0, 62, 59
1, 664698, Control_c, 0, 64, 79
1, 664701, Note_off_c, 0, 60, 55
1, 664712, Control_c, 0, 64, 62
1, 664727, Control_c, 0, 64, 48
1, 664742, Control_c, 0, 64, 42
1, 664757, Control_c, 0, 64, 38
1, 664772, Control_c, 0, 64, 35
1, 664787, Control_c, 0, 64, 34
1, 664831, Control_c, 0, 64, 33
1, 664846, Control_c, 0, 64, 32
1, 664860, Control_c, 0, 64, 0
1, 664972, Control_c, 0, 64, 33
1, 664987, Control_c, 0, 64, 54
1, 664997, Note_on_c, 0, 73, 49
1, 664999, Note_on_c, 0, 51, 53
1, 665002, Control_c, 0, 64, 70
1, 665002, Note_on_c, 0, 66, 49
1, 665003, Note_on_c, 0, 70, 48
1, 665013, Note_on_c, 0, 58, 22
1, 665016, Control_c, 0, 64, 90
1, 665018, Note_off_c, 0, 73, 64
1, 665025, Note_off_c, 0, 66, 60
1, 665025, Note_off_c, 0, 70, 61
1, 665026, Note_off_c, 0, 51, 55
1, 665031, Control_c, 0, 64, 127
1, 665054, Note_off_c, 0, 58, 52
1, 665341, Control_c, 0, 64, 111
1, 665356, Control_c, 0, 64, 86
1, 665371, Control_c, 0, 64, 67
1, 665386, Control_c, 0, 64, 48
1, 665401, Control_c, 0, 64, 0
1, 665438, Note_on_c, 0, 57, 45
1, 665441, Note_on_c, 0, 38, 49
1, 665444, Note_on_c, 0, 50, 40
1, 665445, Note_on_c, 0, 53, 38
1, 665457, Note_on_c, 0, 45, 47
1, 665487, Note_off_c, 0, 38, 65
1, 665488, Note_off_c, 0, 50, 63
1, 665489, Control_c, 0, 64, 34
1, 665490, Note_off_c, 0, 45, 64
1, 665492, Note_off_c, 0, 53, 59
1, 665504, Control_c, 0, 64, 57
1, 665519, Control_c, 0, 64, 74
1, 665527, Note_off_c, 0, 57, 64
1, 665534, Control_c, 0, 64, 100
1, 665549, Control_c, 0, 64, 127
1, 665769, Note_on_c, 0, 62, 50
1, 665774, Note_on_c, 0, 50, 62
1, 665806, Note_off_c, 0, 62, 60
1, 665833, Note_on_c, 0, 65, 55
1, 665833, Note_off_c, 0, 50, 61
1, 665862, Note_on_c, 0, 53, 65
1, 665876, Note_off_c, 0, 65, 56
1, 665888, Note_on_c, 0, 69, 58
1, 665905, Note_off_c, 0, 53, 57
1, 665944, Note_on_c, 0, 57, 59
1, 665946, Note_off_c, 0, 69, 63
1, 665961, Note_on_c, 0, 74, 62
1, 665975, Note_off_c, 0, 57, 66
1, 666019, Note_on_c, 0, 77, 69
1, 666027, Note_on_c, 0, 62, 58
1, 666027, Note_off_c, 0, 74, 63
1, 666048, Note_off_c, 0, 77, 66
1, 666050, Note_off_c, 0, 62, 65
1, 666060, Control_c, 0, 64, 112
1, 666075, Control_c, 0, 64, 81
1, 666090, Control_c, 0, 64, 63
1, 666105, Control_c, 0, 64, 52
1, 666119, Control_c, 0, 64, 48
1, 666134, Control_c, 0, 64, 47
1, 666149, Control_c, 0, 64, 46
1, 666164, Control_c, 0, 64, 45
1, 666179, Control_c, 0, 64, 45
1, 666194, Control_c, 0, 64, 42
1, 666209, Control_c, 0, 64, 39
1, 666224, Control_c, 0, 64, 37
1, 666238, Control_c, 0, 64, 36
1, 666298, Control_c, 0, 64, 35
1, 666386, Control_c, 0, 64, 37
1, 666401, Control_c, 0, 64, 43
1, 666416, Control_c, 0, 64, 53
1, 666438, Control_c, 0, 64, 63
1, 666453, Control_c, 0, 64, 70
1, 666468, Control_c, 0, 64, 77
1, 666475, Note_on_c, 0, 73, 41
1, 666481, Note_on_c, 0, 58, 44
1, 666483, Control_c, 0, 64, 86
1, 666486, Note_on_c, 0, 51, 41
1, 666489, Note_on_c, 0, 70, 40
1, 666490, Note_on_c, 0, 66, 43
1, 666498, Control_c, 0, 64, 95
1, 666512, Control_c, 0, 64, 106
1, 666517, Note_off_c, 0, 58, 64
1, 666527, Control_c, 0, 64, 120
1, 666535, Note_off_c, 0, 70, 59
1, 666538, Note_off_c, 0, 51, 57
1, 666542, Control_c, 0, 64, 127
1, 666549, Note_off_c, 0, 66, 58
1, 666551, Note_off_c, 0, 73, 61
1, 667061, Control_c, 0, 64, 120
1, 667076, Control_c, 0, 64, 100
1, 667091, Control_c, 0, 64, 83
1, 667106, Control_c, 0, 64, 64
1, 667114, Note_on_c, 0, 57, 39
1, 667121, Control_c, 0, 64, 47
1, 667132, Note_on_c, 0, 53, 36
1, 667136, Control_c, 0, 64, 32
1, 667144, Note_on_c, 0, 38, 40
1, 667148, Note_on_c, 0, 50, 30
1, 667167, Note_on_c, 0, 45, 14
1, 667188, Control_c, 0, 64, 36
1, 667203, Control_c, 0, 64, 47
1, 667217, Control_c, 0, 64, 64
1, 667232, Control_c, 0, 64, 78
1, 667247, Control_c, 0, 64, 105
1, 667259, Note_off_c, 0, 50, 56
1, 667261, Control_c, 0, 64, 127
1, 667279, Note_off_c, 0, 53, 60
1, 667309, Note_off_c, 0, 57, 63
1, 667312, Note_off_c, 0, 45, 50
1, 667384, Note_off_c, 0, 38, 38
1, 667532, Note_on_c, 0, 62, 32
1, 667616, Note_on_c, 0, 65, 53
1, 667629, Note_off_c, 0, 62, 37
1, 667720, Note_off_c, 0, 65, 57
1, 667726, Note_on_c, 0, 69, 57
1, 667822, Note_off_c, 0, 69, 59
1, 667845, Note_on_c, 0, 74, 50
1, 667991, Note_on_c, 0, 77, 56
1, 668003, Note_off_c, 0, 74, 50
1, 668041, Note_off_c, 0, 77, 61
1, 668523, Note_on_c, 0, 45, 31
1, 668653, Note_off_c, 0, 45, 35
1, 668656, Note_on_c, 0, 50, 46
1, 668825, Note_on_c, 0, 53, 40
1, 668841, Note_off_c, 0, 50, 34
1, 668989, Note_on_c, 0, 57, 47
1, 669009, Note_off_c, 0, 53, 37
1, 669036, Note_off_c, 0, 57, 58
1, 669396, Note_on_c, 0, 62, 33
1, 669494, Note_off_c, 0, 62, 57
1, 669849, Control_c, 0, 67, 122
1, 669863, Control_c, 0, 67, 114
1, 669878, Control_c, 0, 67, 103
1, 669893, Control_c, 0, 67, 86
1, 669908, Control_c, 0, 67, 69
1, 669923, Control_c, 0, 67, 49
1, 669938, Control_c, 0, 67, 0
1, 670910, Control_c, 0, 64, 119
1, 670932, Control_c, 0, 64, 114
1, 670947, Control_c, 0, 64, 110
1, 670962, Control_c, 0, 64, 106
1, 670976, Control_c, 0, 64, 102
1, 670991, Control_c, 0, 64, 99
1, 671006, Control_c, 0, 64, 95
1, 671021, Control_c, 0, 64, 92
1, 671035, Control_c, 0, 64, 87
1, 671050, Control_c, 0, 64, 83
1, 671065, Control_c, 0, 64, 78
1, 671080, Control_c, 0, 64, 75
1, 671095, Control_c, 0, 64, 71
1, 671109, Control_c, 0, 64, 66
1, 671124, Control_c, 0, 64, 63
1, 671139, Control_c, 0, 64, 61
1, 671184, Control_c, 0, 64, 60
1, 671199, Control_c, 0, 64, 59
1, 671214, Control_c, 0, 64, 58
1, 671228, Control_c, 0, 64, 54
1, 671243, Control_c, 0, 64, 46
1, 671258, Control_c, 0, 64, 0
1, 671967, Note_on_c, 0, 50, 69
1, 671967, Note_on_c, 0, 57, 75
1, 671971, Note_on_c, 0, 53, 70
1, 671972, Note_on_c, 0, 45, 65
1, 671974, Note_on_c, 0, 38, 57
1, 671992, Control_c, 0, 64, 68
1, 671995, Note_off_c, 0, 50, 64
1, 671998, Note_off_c, 0, 53, 67
1, 671998, Note_off_c, 0, 57, 67
1, 672001, Note_off_c, 0, 45, 64
1, 672003, Note_off_c, 0, 38, 56
1, 672007, Control_c, 0, 64, 127
1, 672258, Control_c, 0, 64, 88
1, 672265, Note_on_c, 0, 45, 73
1, 672265, Note_on_c, 0, 52, 78
1, 672271, Note_on_c, 0, 62, 71
1, 672273, Control_c, 0, 64, 63
1, 672275, Note_on_c, 0, 55, 61
1, 672288, Control_c, 0, 64, 0
1, 672293, Note_off_c, 0, 52, 67
1, 672297, Note_off_c, 0, 45, 64
1, 672297, Note_off_c, 0, 55, 61
1, 672311, Note_off_c, 0, 62, 59
1, 672346, Note_on_c, 0, 53, 92
1, 672348, Note_on_c, 0, 65, 83
1, 672350, Note_on_c, 0, 50, 84
1, 672351, Note_on_c, 0, 62, 44
1, 672361, Note_on_c, 0, 57, 57
1, 672373, Note_off_c, 0, 53, 64
1, 672374, Note_off_c, 0, 50, 69
1, 672379, Note_off_c, 0, 62, 60
1, 672386, Note_off_c, 0, 57, 38
1, 672389, Note_off_c, 0, 65, 63
1, 672548, Note_on_c, 0, 53, 83
1, 672553, Note_on_c, 0, 65, 84
1, 672554, Note_on_c, 0, 50, 74
1, 672557, Note_on_c, 0, 57, 70
1, 672563, Control_c, 0, 64, 51
1, 672564, Note_on_c, 0, 62, 69
1, 672578, Control_c, 0, 64, 74
1, 672579, Note_off_c, 0, 50, 67
1, 672580, Note_off_c, 0, 53, 66
1, 672585, Note_off_c, 0, 57, 67
1, 672589, Note_off_c, 0, 62, 64
1, 672591, Note_off_c, 0, 65, 64
1, 672593, Control_c, 0, 64, 94
1, 672597, Note_on_c, 0, 67, 27
1, 672597, Note_off_c, 0, 67, 127
1, 672607, Control_c, 0, 64, 127
1, 672633, Poly_aftertouch_c, 0, 64, 127
1, 672639, Poly_aftertouch_c, 0, 67, 0
1, 672674, Poly_aftertouch_c, 0, 64, 0
1, 672788, Note_on_c, 0, 69, 84
1, 672790, Note_on_c, 0, 58, 84
1, 672792, Note_on_c, 0, 64, 73
1, 672806, Note_on_c, 0, 55, 65
1, 672818, Note_off_c, 0, 64, 69
1, 672835, Note_off_c, 0, 55, 63
1, 672835, Note_off_c, 0, 58, 65
1, 672844, Control_c, 0, 64, 103
1, 672859, Control_c, 0, 64, 70
1, 672867, Note_on_c, 0, 57, 91
1, 672868, Note_on_c, 0, 74, 99
1, 672869, Note_on_c, 0, 62, 87
1, 672874, Note_off_c, 0, 69, 67
1, 672874, Control_c, 0, 64, 0
1, 672896, Note_off_c, 0, 62, 67
1, 672906, Note_off_c, 0, 74, 67
1, 672907, Note_off_c, 0, 57, 63
1, 673037, Note_on_c, 0, 57, 78
1, 673041, Note_on_c, 0, 65, 73
1, 673045, Note_on_c, 0, 62, 68
1, 673047, Note_on_c, 0, 77, 94
1, 673051, Note_on_c, 0, 69, 87
1, 673062, Note_off_c, 0, 65, 70
1, 673067, Control_c, 0, 64, 46
1, 673068, Note_off_c, 0, 62, 65
1, 673069, Note_off_c, 0, 57, 67
1, 673069, Note_off_c, 0, 69, 69
1, 673081, Note_off_c, 0, 77, 59
1, 673081, Control_c, 0, 64, 48
1, 673097, Control_c, 0, 64, 33
1, 673112, Control_c, 0, 64, 0
1, 673223, Note_on_c, 0, 71, 79
1, 673225, Note_on_c, 0, 56, 65
1, 673226, Note_on_c, 0, 68, 65
1, 673227, Note_on_c, 0, 59, 68
1, 673230, Note_on_c, 0, 53, 61
1, 673231, Note_on_c, 0, 65, 60
1, 673248, Note_off_c, 0, 71, 63
1, 673250, Note_off_c, 0, 59, 65
1, 673251, Note_off_c, 0, 65, 62
1, 673252, Note_off_c, 0, 56, 64
1, 673253, Note_off_c, 0, 68, 66
1, 673254, Note_off_c, 0, 53, 61
1, 673387, Note_on_c, 0, 52, 75
1, 673389, Note_on_c, 0, 57, 61
1, 673391, Note_on_c, 0, 73, 77
1, 673393, Note_on_c, 0, 64, 73
1, 673409, Note_on_c, 0, 69, 53
1, 673411, Note_on_c, 0, 61, 44
1, 673414, Note_off_c, 0, 57, 59
1, 673417, Note_off_c, 0, 64, 68
1, 673421, Note_off_c, 0, 52, 62
1, 673429, Note_off_c, 0, 73, 54
1, 673432, Note_off_c, 0, 69, 59
1, 673436, Note_off_c, 0, 61, 57
1, 673549, Control_c, 0, 64, 39
1, 673560, Note_on_c, 0, 57, 66
1, 673564, Note_on_c, 0, 61, 58
1, 673564, Note_on_c, 0, 73, 85
1, 673564, Control_c, 0, 64, 67
1, 673565, Note_on_c, 0, 64, 79
1, 673568, Note_on_c, 0, 52, 67
1, 673569, Note_on_c, 0, 69, 63
1, 673578, Control_c, 0, 64, 82
1, 673585, Note_off_c, 0, 61, 62
1, 673587, Note_off_c, 0, 57, 65
1, 673587, Note_off_c, 0, 64, 72
1, 673593, Note_off_c, 0, 52, 63
1, 673593, Control_c, 0, 64, 108
1, 673595, Note_off_c, 0, 69, 66
1, 673597, Note_off_c, 0, 73, 56
1, 673608, Control_c, 0, 64, 127
1, 673815, Control_c, 0, 64, 82
1, 673822, Note_on_c, 0, 45, 63
1, 673824, Note_on_c, 0, 69, 68
1, 673825, Note_on_c, 0, 61, 68
1, 673826, Note_on_c, 0, 57, 59
1, 673830, Control_c, 0, 64, 59
1, 673832, Note_on_c, 0, 52, 56
1, 673845, Control_c, 0, 64, 0
1, 673846, Note_off_c, 0, 61, 66
1, 673846, Note_off_c, 0, 69, 69
1, 673847, Note_off_c, 0, 45, 61
1, 673847, Note_off_c, 0, 57, 62
1, 673854, Note_off_c, 0, 52, 61
1, 673896, Note_on_c, 0, 69, 83
1, 673898, Note_on_c, 0, 61, 87
1, 673905, Note_on_c, 0, 45, 66
1, 673911, Note_on_c, 0, 57, 65
1, 673912, Note_on_c, 0, 52, 61
1, 673925, Note_off_c, 0, 61, 70
1, 673935, Note_off_c, 0, 45, 63
1, 673936, Note_off_c, 0, 57, 65
1, 673940, Note_off_c, 0, 52, 62
1, 673952, Note_off_c, 0, 69, 61
1, 674093, Note_on_c, 0, 69, 75
1, 674096, Note_on_c, 0, 61, 75
1, 674098, Note_on_c, 0, 52, 65
1, 674099, Note_on_c, 0, 45, 67
1, 674099, Note_on_c, 0, 57, 50
1, 674105, Control_c, 0, 64, 52
1, 674119, Note_off_c, 0, 61, 69
1, 674120, Note_off_c, 0, 69, 64
1, 674120, Control_c, 0, 64, 68
1, 674121, Note_off_c, 0, 52, 61
1, 674124, Note_off_c, 0, 57, 54
1, 674129, Note_off_c, 0, 45, 64
1, 674135, Control_c, 0, 64, 79
1, 674150, Control_c, 0, 64, 87
1, 674165, Control_c, 0, 64, 89
1, 674180, Control_c, 0, 64, 90
1, 674195, Control_c, 0, 64, 91
1, 674209, Control_c, 0, 64, 92
1, 674224, Control_c, 0, 64, 94
1, 674239, Control_c, 0, 64, 95
1, 674268, Control_c, 0, 64, 97
1, 674341, Note_on_c, 0, 61, 75
1, 674342, Control_c, 0, 64, 94
1, 674350, Note_on_c, 0, 57, 64
1, 674353, Note_on_c, 0, 45, 63
1, 674353, Note_on_c, 0, 52, 65
1, 674357, Control_c, 0, 64, 78
1, 674361, Note_on_c, 0, 40, 50
1, 674365, Note_off_c, 0, 61, 70
1, 674371, Control_c, 0, 64, 62
1, 674374, Note_off_c, 0, 52, 65
1, 674374, Note_off_c, 0, 57, 65
1, 674381, Note_off_c, 0, 45, 67
1, 674386, Control_c, 0, 64, 29
1, 674390, Note_off_c, 0, 40, 48
1, 674401, Control_c, 0, 64, 0
1, 674424, Note_on_c, 0, 61, 87
1, 674426, Note_on_c, 0, 57, 77
1, 674431, Note_on_c, 0, 52, 73
1, 674433, Note_on_c, 0, 45, 73
1, 674449, Note_off_c, 0, 57, 67
1, 674453, Note_on_c, 0, 40, 36
1, 674455, Note_off_c, 0, 61, 61
1, 674458, Note_off_c, 0, 52, 66
1, 674467, Note_off_c, 0, 45, 65
1, 674491, Note_off_c, 0, 40, 45
1, 674609, Note_on_c, 0, 40, 59
1, 674609, Control_c, 0, 64, 36
1, 674612, Note_on_c, 0, 45, 70
1, 674615, Note_on_c, 0, 61, 77
1, 674624, Note_on_c, 0, 57, 65
1, 674624, Control_c, 0, 64, 57
1, 674624, Note_on_c, 0, 52, 56
1, 674638, Note_off_c, 0, 45, 65
1, 674638, Control_c, 0, 64, 70
1, 674642, Note_off_c, 0, 61, 66
1, 674645, Note_off_c, 0, 40, 64
1, 674652, Note_off_c, 0, 57, 65
1, 674652, Note_off_c, 0, 52, 56
1, 674653, Control_c, 0, 64, 78
1, 674675, Control_c, 0, 64, 84
1, 674690, Control_c, 0, 64, 85
1, 674706, Control_c, 0, 64, 87
1, 674721, Control_c, 0, 64, 88
1, 674736, Control_c, 0, 64, 90
1, 674750, Control_c, 0, 64, 93
1, 674765, Control_c, 0, 64, 96
1, 674780, Control_c, 0, 64, 100
1, 674795, Control_c, 0, 64, 106
1, 674810, Control_c, 0, 64, 111
1, 674824, Control_c, 0, 64, 116
1, 674854, Control_c, 0, 64, 110
1, 674868, Control_c, 0, 64, 82
1, 674877, Note_on_c, 0, 33, 73
1, 674883, Control_c, 0, 64, 62
1, 674884, Note_on_c, 0, 45, 62
1, 674884, Note_on_c, 0, 57, 77
1, 674889, Note_on_c, 0, 49, 72
1, 674891, Note_on_c, 0, 40, 52
1, 674898, Control_c, 0, 64, 0
1, 674907, Note_off_c, 0, 45, 59
1, 674910, Note_off_c, 0, 49, 65
1, 674911, Note_off_c, 0, 33, 63
1, 674913, Note_off_c, 0, 57, 66
1, 674919, Note_off_c, 0, 40, 54
1, 674959, Note_on_c, 0, 57, 88
1, 674964, Note_on_c, 0, 45, 76
1, 674964, Note_on_c, 0, 49, 76
1, 674973, Note_on_c, 0, 40, 64
1, 674976, Note_on_c, 0, 33, 61
1, 674989, Note_off_c, 0, 49, 66
1, 674991, Note_off_c, 0, 45, 65
1, 674994, Note_off_c, 0, 57, 62
1, 674997, Note_off_c, 0, 40, 61
1, 675009, Note_off_c, 0, 33, 53
1, 675164, Note_on_c, 0, 57, 77
1, 675169, Note_on_c, 0, 38, 71
1, 675172, Note_on_c, 0, 45, 72
1, 675172, Note_on_c, 0, 50, 69
1, 675180, Note_on_c, 0, 53, 58
1, 675180, Control_c, 0, 64, 32
1, 675194, Control_c, 0, 64, 57
1, 675196, Note_off_c, 0, 38, 65
1, 675200, Note_off_c, 0, 45, 65
1, 675202, Note_off_c, 0, 53, 60
1, 675203, Note_off_c, 0, 50, 66
1, 675204, Note_off_c, 0, 57, 61
1, 675209, Control_c, 0, 64, 71
1, 675224, Control_c, 0, 64, 84
1, 675239, Control_c, 0, 64, 100
1, 675254, Control_c, 0, 64, 108
1, 675268, Control_c, 0, 64, 123
1, 675283, Control_c, 0, 64, 127
1, 675427, Note_on_c, 0, 45, 74
1, 675429, Note_on_c, 0, 62, 81
1, 675434, Note_on_c, 0, 52, 73
1, 675446, Note_on_c, 0, 55, 54
1, 675454, Control_c, 0, 64, 110
1, 675460, Note_off_c, 0, 45, 64
1, 675460, Note_off_c, 0, 52, 66
1, 675468, Control_c, 0, 64, 79
1, 675471, Note_off_c, 0, 55, 57
1, 675476, Note_off_c, 0, 62, 57
1, 675483, Control_c, 0, 64, 54
1, 675492, Poly_aftertouch_c, 0, 53, 0
1, 675499, Control_c, 0, 64, 0
1, 675503, Note_on_c, 0, 65, 95
1, 675506, Note_on_c, 0, 53, 15
1, 675511, Note_on_c, 0, 50, 84
1, 675523, Note_on_c, 0, 52, 48
1, 675523, Note_off_c, 0, 52, 127
1, 675536, Note_off_c, 0, 50, 68
1, 675539, Note_off_c, 0, 53, 64
1, 675551, Note_off_c, 0, 65, 66
1, 675553, Note_on_c, 0, 62, 6
1, 675586, Note_off_c, 0, 62, 24
1, 675689, Note_on_c, 0, 57, 73
1, 675690, Note_on_c, 0, 53, 68
1, 675698, Note_on_c, 0, 48, 59
1, 675700, Note_on_c, 0, 65, 86
1, 675706, Note_on_c, 0, 62, 73
1, 675706, Control_c, 0, 64, 54
1, 675715, Note_off_c, 0, 57, 67
1, 675720, Note_off_c, 0, 53, 66
1, 675721, Control_c, 0, 64, 72
1, 675722, Note_on_c, 0, 52, 35
1, 675728, Note_off_c, 0, 48, 55
1, 675731, Note_off_c, 0, 62, 66
1, 675736, Note_off_c, 0, 65, 64
1, 675736, Control_c, 0, 64, 86
1, 675751, Control_c, 0, 64, 107
1, 675765, Note_off_c, 0, 52, 55
1, 675766, Control_c, 0, 64, 127
1, 675934, Note_on_c, 0, 69, 81
1, 675936, Note_on_c, 0, 58, 78
1, 675941, Note_on_c, 0, 64, 68
1, 675944, Note_on_c, 0, 55, 73
1, 675962, Note_off_c, 0, 58, 69
1, 675969, Note_off_c, 0, 64, 66
1, 675971, Note_off_c, 0, 55, 67
1, 675973, Control_c, 0, 64, 85
1, 675988, Control_c, 0, 64, 51
1, 676003, Control_c, 0, 64, 0
1, 676007, Note_on_c, 0, 74, 95
1, 676008, Note_on_c, 0, 57, 82
1, 676010, Note_on_c, 0, 62, 89
1, 676016, Note_off_c, 0, 69, 62
1, 676019, Note_on_c, 0, 65, 55
1, 676042, Note_off_c, 0, 57, 65
1, 676042, Note_off_c, 0, 62, 65
1, 676042, Note_off_c, 0, 65, 37
1, 676045, Note_off_c, 0, 74, 68
1, 676187, Note_on_c, 0, 77, 92
1, 676189, Note_on_c, 0, 57, 69
1, 676190, Note_on_c, 0, 69, 89
1, 676198, Note_on_c, 0, 62, 54
1, 676207, Note_on_c, 0, 65, 40
1, 676209, Note_off_c, 0, 69, 70
1, 676216, Note_on_c, 0, 64, 26
1, 676217, Note_off_c, 0, 57, 66
1, 676222, Note_off_c, 0, 62, 37
1, 676228, Note_off_c, 0, 77, 62
1, 676238, Note_off_c, 0, 65, 54
1, 676254, Note_off_c, 0, 64, 54
1, 676350, Note_on_c, 0, 53, 76
1, 676352, Note_on_c, 0, 57, 62
1, 676354, Note_on_c, 0, 74, 90
1, 676363, Note_on_c, 0, 65, 58
1, 676373, Note_on_c, 0, 69, 61
1, 676376, Note_off_c, 0, 53, 67
1, 676382, Note_off_c, 0, 74, 57
1, 676383, Note_off_c, 0, 65, 63
1, 676388, Note_off_c, 0, 57, 66
1, 676393, Note_off_c, 0, 69, 62
1, 676517, Note_on_c, 0, 59, 79
1, 676522, Note_on_c, 0, 55, 64
1, 676528, Note_on_c, 0, 71, 74
1, 676528, Note_on_c, 0, 76, 77
1, 676531, Note_on_c, 0, 67, 72
1, 676534, Note_on_c, 0, 64, 64
1, 676550, Note_off_c, 0, 59, 64
1, 676550, Note_off_c, 0, 71, 69
1, 676553, Note_off_c, 0, 55, 64
1, 676555, Note_off_c, 0, 64, 66
1, 676557, Note_off_c, 0, 67, 69
1, 676559, Note_off_c, 0, 76, 60
1, 676697, Note_on_c, 0, 55, 69
1, 676702, Note_on_c, 0, 60, 71
1, 676703, Note_on_c, 0, 76, 84
1, 676706, Note_on_c, 0, 64, 59
1, 676707, Note_on_c, 0, 67, 81
1, 676708, Control_c, 0, 64, 60
1, 676710, Note_on_c, 0, 72, 71
1, 676723, Note_off_c, 0, 55, 64
1, 676723, Control_c, 0, 64, 81
1, 676726, Note_off_c, 0, 60, 65
1, 676726, Note_off_c, 0, 64, 63
1, 676727, Note_off_c, 0, 67, 71
1, 676727, Note_off_c, 0, 76, 64
1, 676732, Note_off_c, 0, 72, 68
1, 676737, Control_c, 0, 64, 106
1, 676752, Control_c, 0, 64, 127
1, 676967, Control_c, 0, 64, 88
1, 676982, Control_c, 0, 64, 66
1, 676988, Note_on_c, 0, 72, 64
1, 676991, Note_on_c, 0, 48, 64
1, 676992, Note_on_c, 0, 60, 68
1, 676997, Control_c, 0, 64, 39
1, 676998, Note_on_c, 0, 55, 62
1, 677003, Note_on_c, 0, 64, 46
1, 677006, Note_off_c, 0, 72, 63
1, 677012, Control_c, 0, 64, 0
1, 677017, Note_off_c, 0, 60, 68
1, 677021, Note_off_c, 0, 48, 63
1, 677028, Note_off_c, 0, 64, 61
1, 677030, Note_off_c, 0, 55, 63
1, 677052, Note_on_c, 0, 64, 72
1, 677052, Note_on_c, 0, 72, 95
1, 677062, Note_on_c, 0, 55, 70
1, 677064, Note_on_c, 0, 48, 75
1, 677065, Note_on_c, 0, 60, 78
1, 677076, Note_off_c, 0, 64, 70
1, 677087, Note_off_c, 0, 72, 63
1, 677089, Note_off_c, 0, 60, 70
1, 677096, Note_off_c, 0, 48, 62
1, 677098, Note_off_c, 0, 55, 64
1, 677234, Note_on_c, 0, 72, 81
1, 677234, Control_c, 0, 64, 58
1, 677235, Note_on_c, 0, 55, 74
1, 677239, Note_on_c, 0, 48, 80
1, 677241, Note_on_c, 0, 60, 57
1, 677243, Note_on_c, 0, 64, 77
1, 677249, Control_c, 0, 64, 76
1, 677260, Note_off_c, 0, 55, 65
1, 677263, Note_off_c, 0, 60, 60
1, 677263, Control_c, 0, 64, 93
1, 677265, Note_off_c, 0, 64, 71
1, 677266, Note_off_c, 0, 48, 64
1, 677266, Note_off_c, 0, 72, 57
1, 677278, Control_c, 0, 64, 99
1, 677411, Control_c, 0, 64, 93
1, 677426, Control_c, 0, 64, 79
1, 677441, Control_c, 0, 64, 64
1, 677456, Control_c, 0, 64, 41
1, 677471, Control_c, 0, 64, 0
1, 677495, Note_on_c, 0, 48, 73
1, 677499, Note_on_c, 0, 55, 71
1, 677503, Note_on_c, 0, 43, 62
1, 677504, Note_on_c, 0, 64, 76
1, 677513, Note_on_c, 0, 60, 66
1, 677527, Note_off_c, 0, 55, 64
1, 677529, Note_off_c, 0, 64, 69
1, 677531, Note_off_c, 0, 48, 64
1, 677535, Note_off_c, 0, 43, 64
1, 677543, Note_off_c, 0, 60, 67
1, 677584, Note_on_c, 0, 64, 91
1, 677586, Note_on_c, 0, 55, 75
1, 677588, Note_on_c, 0, 48, 74
1, 677593, Note_on_c, 0, 60, 79
1, 677600, Note_on_c, 0, 43, 63
1, 677615, Note_off_c, 0, 60, 66
1, 677617, Note_off_c, 0, 55, 61
1, 677624, Note_off_c, 0, 48, 63
1, 677625, Note_off_c, 0, 43, 61
1, 677626, Note_off_c, 0, 64, 63
1, 677775, Control_c, 0, 64, 35
1, 677776, Note_on_c, 0, 48, 81
1, 677778, Note_on_c, 0, 55, 70
1, 677782, Note_on_c, 0, 43, 67
1, 677786, Note_on_c, 0, 64, 84
1, 677790, Control_c, 0, 64, 58
1, 677792, Note_on_c, 0, 60, 80
1, 677804, Control_c, 0, 64, 70
1, 677805, Note_off_c, 0, 48, 63
1, 677806, Note_off_c, 0, 55, 63
1, 677817, Note_off_c, 0, 60, 66
1, 677817, Note_off_c, 0, 43, 63
1, 677819, Control_c, 0, 64, 78
1, 677819, Note_off_c, 0, 64, 63
1, 677834, Control_c, 0, 64, 84
1, 677849, Control_c, 0, 64, 86
1, 677864, Control_c, 0, 64, 86
1, 677982, Control_c, 0, 64, 85
1, 677997, Control_c, 0, 64, 76
1, 678012, Control_c, 0, 64, 60
1, 678026, Control_c, 0, 64, 0
1, 678047, Note_on_c, 0, 36, 67
1, 678050, Note_on_c, 0, 60, 72
1, 678052, Note_on_c, 0, 48, 69
1, 678054, Note_on_c, 0, 43, 61
1, 678057, Note_on_c, 0, 52, 71
1, 678078, Note_off_c, 0, 36, 64
1, 678081, Note_off_c, 0, 60, 65
1, 678084, Note_off_c, 0, 43, 63
1, 678084, Note_off_c, 0, 48, 64
1, 678085, Note_off_c, 0, 52, 65
1, 678130, Note_on_c, 0, 60, 72
1, 678133, Note_on_c, 0, 52, 77
1, 678150, Note_on_c, 0, 43, 54
1, 678156, Note_on_c, 0, 36, 53
1, 678156, Note_on_c, 0, 48, 60
1, 678159, Note_off_c, 0, 52, 65
1, 678174, Note_off_c, 0, 60, 64
1, 678179, Note_off_c, 0, 43, 53
1, 678186, Note_off_c, 0, 36, 55
1, 678186, Note_off_c, 0, 48, 55
1, 678335, Note_on_c, 0, 41, 73
1, 678337, Control_c, 0, 64, 48
1, 678340, Note_on_c, 0, 60, 74
1, 678342, Note_on_c, 0, 48, 80
1, 678342, Note_on_c, 0, 53, 68
1, 678351, Note_on_c, 0, 57, 57
1, 678352, Control_c, 0, 64, 67
1, 678365, Note_off_c, 0, 41, 65
1, 678367, Control_c, 0, 64, 75
1, 678371, Note_off_c, 0, 53, 66
1, 678372, Note_off_c, 0, 48, 64
1, 678373, Note_off_c, 0, 57, 60
1, 678382, Control_c, 0, 64, 75
1, 678383, Note_off_c, 0, 60, 64
1, 678448, Control_c, 0, 64, 76
1, 678523, Control_c, 0, 64, 76
1, 678552, Control_c, 0, 64, 74
1, 678567, Control_c, 0, 64, 64
1, 678582, Control_c, 0, 64, 34
1, 678589, Note_on_c, 0, 58, 80
1, 678594, Note_on_c, 0, 64, 84
1, 678597, Note_on_c, 0, 55, 74
1, 678597, Control_c, 0, 64, 0
1, 678607, Note_on_c, 0, 61, 59
1, 678621, Note_off_c, 0, 58, 64
1, 678624, Note_off_c, 0, 55, 66
1, 678627, Note_off_c, 0, 61, 63
1, 678627, Note_off_c, 0, 64, 65
1, 678676, Note_on_c, 0, 60, 84
1, 678678, Note_on_c, 0, 69, 86
1, 678684, Note_on_c, 0, 57, 69
1, 678686, Note_on_c, 0, 65, 73
1, 678697, Note_on_c, 0, 53, 49
1, 678699, Note_off_c, 0, 60, 70
1, 678710, Note_off_c, 0, 65, 70
1, 678713, Note_off_c, 0, 57, 66
1, 678726, Note_off_c, 0, 53, 55
1, 678727, Note_off_c, 0, 69, 63
1, 678855, Note_on_c, 0, 69, 90
1, 678856, Note_on_c, 0, 57, 74
1, 678859, Note_on_c, 0, 60, 82
1, 678860, Note_on_c, 0, 53, 73
1, 678863, Note_on_c, 0, 65, 78
1, 678879, Control_c, 0, 64, 32
1, 678881, Note_off_c, 0, 60, 67
1, 678884, Note_off_c, 0, 65, 71
1, 678886, Note_off_c, 0, 53, 66
1, 678887, Note_off_c, 0, 57, 68
1, 678894, Control_c, 0, 64, 66
1, 678897, Note_off_c, 0, 69, 62
1, 678909, Control_c, 0, 64, 80
1, 678923, Control_c, 0, 64, 89
1, 678938, Control_c, 0, 64, 91
1, 678953, Control_c, 0, 64, 92
1, 678967, Control_c, 0, 64, 93
1, 678982, Control_c, 0, 64, 94
1, 678997, Control_c, 0, 64, 95
1, 679057, Control_c, 0, 64, 93
1, 679071, Control_c, 0, 64, 76
1, 679086, Control_c, 0, 64, 56
1, 679088, Note_on_c, 0, 72, 90
1, 679092, Note_on_c, 0, 62, 82
1, 679094, Note_on_c, 0, 58, 84
1, 679096, Note_on_c, 0, 67, 77
1, 679101, Control_c, 0, 64, 0
1, 679117, Note_off_c, 0, 67, 71
1, 679130, Note_off_c, 0, 58, 60
1, 679134, Note_off_c, 0, 62, 63
1, 679173, Note_on_c, 0, 65, 92
1, 679173, Note_on_c, 0, 77, 94
1, 679178, Note_off_c, 0, 72, 61
1, 679184, Note_on_c, 0, 60, 78
1, 679189, Note_on_c, 0, 69, 56
1, 679206, Note_off_c, 0, 65, 65
1, 679208, Note_off_c, 0, 60, 69
1, 679210, Note_off_c, 0, 77, 64
1, 679214, Note_off_c, 0, 69, 37
1, 679353, Note_on_c, 0, 79, 90
1, 679356, Note_on_c, 0, 60, 94
1, 679356, Note_on_c, 0, 77, 92
1, 679357, Note_on_c, 0, 65, 93
1, 679359, Note_on_c, 0, 67, 87
1, 679361, Note_on_c, 0, 72, 89
1, 679375, Control_c, 0, 64, 55
1, 679390, Control_c, 0, 64, 74
1, 679405, Control_c, 0, 64, 92
1, 679420, Control_c, 0, 64, 127
1, 679483, Note_off_c, 0, 67, 53
1, 679489, Note_off_c, 0, 72, 55
1, 679506, Note_off_c, 0, 60, 58
1, 679512, Note_off_c, 0, 65, 56
1, 679535, Note_on_c, 0, 76, 80
1, 679545, Note_on_c, 0, 64, 80
1, 679553, Note_off_c, 0, 79, 50
1, 679560, Note_on_c, 0, 60, 34
1, 679561, Note_on_c, 0, 67, 57
1, 679561, Note_off_c, 0, 77, 62
1, 679570, Note_off_c, 0, 76, 60
1, 679573, Note_off_c, 0, 64, 65
1, 679577, Note_off_c, 0, 67, 69
1, 679581, Note_off_c, 0, 60, 64
1, 679597, Control_c, 0, 64, 86
1, 679612, Control_c, 0, 64, 66
1, 679627, Control_c, 0, 64, 43
1, 679642, Control_c, 0, 64, 0
1, 679700, Note_on_c, 0, 79, 62
1, 679700, Note_on_c, 0, 63, 74
1, 679709, Note_on_c, 0, 67, 17
1, 679712, Note_on_c, 0, 59, 63
1, 679718, Note_on_c, 0, 71, 53
1, 679724, Note_off_c, 0, 79, 65
1, 679725, Note_off_c, 0, 63, 68
1, 679732, Note_off_c, 0, 59, 63
1, 679740, Note_off_c, 0, 67, 43
1, 679740, Note_off_c, 0, 71, 57
1, 679916, Control_c, 0, 64, 43
1, 679918, Note_on_c, 0, 46, 67
1, 679923, Note_on_c, 0, 51, 63
1, 679924, Note_on_c, 0, 58, 65
1, 679931, Note_on_c, 0, 55, 53
1, 679931, Control_c, 0, 64, 66
1, 679942, Note_off_c, 0, 46, 59
1, 679943, Note_on_c, 0, 39, 34
1, 679943, Note_off_c, 0, 58, 64
1, 679945, Control_c, 0, 64, 76
1, 679946, Note_off_c, 0, 51, 61
1, 679960, Note_off_c, 0, 55, 57
1, 679960, Control_c, 0, 64, 80
1, 679975, Control_c, 0, 64, 80
1, 679984, Note_off_c, 0, 39, 51
1, 680019, Control_c, 0, 64, 81
1, 680034, Control_c, 0, 64, 82
1, 680049, Control_c, 0, 64, 83
1, 680064, Control_c, 0, 64, 84
1, 680079, Control_c, 0, 64, 85
1, 680094, Control_c, 0, 64, 86
1, 680109, Control_c, 0, 64, 87
1, 680138, Control_c, 0, 64, 86
1, 680153, Note_on_c, 0, 56, 87
1, 680153, Control_c, 0, 64, 75
1, 680160, Note_on_c, 0, 62, 78
1, 680165, Note_on_c, 0, 59, 67
1, 680168, Control_c, 0, 64, 51
1, 680182, Control_c, 0, 64, 0
1, 680183, Note_on_c, 0, 46, 41
1, 680183, Note_off_c, 0, 62, 70
1, 680183, Note_off_c, 0, 59, 65
1, 680193, Note_off_c, 0, 56, 61
1, 680222, Note_off_c, 0, 46, 31
1, 680238, Note_on_c, 0, 67, 92
1, 680241, Note_on_c, 0, 63, 84
1, 680242, Note_on_c, 0, 51, 86
1, 680247, Note_on_c, 0, 58, 86
1, 680256, Note_on_c, 0, 62, 55
1, 680256, Note_off_c, 0, 62, 127
1, 680270, Note_off_c, 0, 58, 68
1, 680272, Note_on_c, 0, 55, 41
1, 680281, Note_off_c, 0, 63, 63
1, 680290, Note_on_c, 0, 65, 13
1, 680292, Note_off_c, 0, 67, 63
1, 680299, Note_off_c, 0, 51, 63
1, 680320, Note_off_c, 0, 55, 30
1, 680341, Note_off_c, 0, 65, 26
1, 680416, Note_on_c, 0, 67, 94
1, 680419, Note_on_c, 0, 51, 81
1, 680419, Note_on_c, 0, 58, 91
1, 680419, Note_on_c, 0, 63, 90
1, 680424, Note_on_c, 0, 55, 68
1, 680436, Control_c, 0, 64, 50
1, 680439, Note_off_c, 0, 63, 71
1, 680448, Note_off_c, 0, 58, 65
1, 680449, Note_off_c, 0, 55, 65
1, 680451, Control_c, 0, 64, 77
1, 680452, Note_off_c, 0, 51, 64
1, 680457, Note_off_c, 0, 67, 65
1, 680466, Control_c, 0, 64, 105
1, 680480, Control_c, 0, 64, 127
1, 680660, Note_on_c, 0, 70, 86
1, 680667, Note_on_c, 0, 56, 73
1, 680669, Note_on_c, 0, 60, 85
1, 680681, Control_c, 0, 64, 79
1, 680681, Note_on_c, 0, 65, 56
1, 680695, Control_c, 0, 64, 47
1, 680703, Note_off_c, 0, 65, 58
1, 680708, Note_off_c, 0, 56, 61
1, 680710, Control_c, 0, 64, 0
1, 680720, Note_off_c, 0, 60, 59
1, 680743, Note_on_c, 0, 63, 96
1, 680746, Note_on_c, 0, 58, 95
1, 680754, Note_off_c, 0, 70, 59
1, 680766, Note_on_c, 0, 75, 38
1, 680766, Note_off_c, 0, 75, 127
1, 680777, Note_on_c, 0, 74, 48
1, 680779, Note_off_c, 0, 63, 67
1, 680785, Note_off_c, 0, 58, 67
1, 680804, Note_off_c, 0, 74, 37
1, 680934, Note_on_c, 0, 77, 88
1, 680935, Note_on_c, 0, 58, 78
1, 680935, Note_on_c, 0, 65, 76
1, 680936, Note_on_c, 0, 63, 76
1, 680940, Note_on_c, 0, 75, 77
1, 680943, Note_on_c, 0, 70, 75
1, 680946, Control_c, 0, 64, 43
1, 680961, Control_c, 0, 64, 67
1, 680966, Note_off_c, 0, 70, 71
1, 680976, Control_c, 0, 64, 83
1, 680988, Note_off_c, 0, 75, 52
1, 680991, Control_c, 0, 64, 107
1, 680996, Note_off_c, 0, 65, 49
1, 681006, Control_c, 0, 64, 112
1, 681036, Control_c, 0, 64, 115
1, 681051, Control_c, 0, 64, 123
1, 681066, Control_c, 0, 64, 127
1, 681066, Note_off_c, 0, 58, 62
1, 681070, Note_off_c, 0, 63, 54
1, 681070, Note_off_c, 0, 77, 58
1, 681125, Note_on_c, 0, 62, 79
1, 681127, Note_on_c, 0, 74, 74
1, 681137, Note_on_c, 0, 65, 70
1, 681155, Note_off_c, 0, 62, 63
1, 681155, Control_c, 0, 64, 93
1, 681155, Note_off_c, 0, 74, 63
1, 681159, Note_off_c, 0, 65, 70
1, 681164, Note_on_c, 0, 59, 28
1, 681170, Control_c, 0, 64, 69
1, 681185, Control_c, 0, 64, 46
1, 681197, Note_off_c, 0, 59, 45
1, 681200, Control_c, 0, 64, 0
1, 681281, Note_on_c, 0, 61, 73
1, 681281, Note_on_c, 0, 77, 71
1, 681282, Note_on_c, 0, 73, 71
1, 681287, Note_on_c, 0, 65, 62
1, 681288, Note_on_c, 0, 69, 66
1, 681303, Note_off_c, 0, 77, 71
1, 681304, Note_off_c, 0, 61, 67
1, 681306, Note_off_c, 0, 65, 63
1, 681306, Note_off_c, 0, 73, 68
1, 681307, Note_off_c, 0, 69, 65
1, 681474, Control_c, 0, 64, 35
1, 681489, Control_c, 0, 64, 64
1, 681492, Note_on_c, 0, 57, 72
1, 681495, Note_on_c, 0, 45, 66
1, 681501, Note_on_c, 0, 50, 53
1, 681504, Control_c, 0, 64, 79
1, 681507, Note_on_c, 0, 38, 46
1, 681507, Note_on_c, 0, 53, 55
1, 681518, Note_off_c, 0, 45, 57
1, 681518, Control_c, 0, 64, 86
1, 681519, Note_off_c, 0, 57, 66
1, 681528, Note_off_c, 0, 50, 57
1, 681531, Note_off_c, 0, 53, 59
1, 681533, Control_c, 0, 64, 87
1, 681543, Note_off_c, 0, 38, 50
1, 681562, Control_c, 0, 64, 87
1, 681577, Control_c, 0, 64, 88
1, 681592, Control_c, 0, 64, 89
1, 681607, Control_c, 0, 64, 90
1, 681651, Control_c, 0, 64, 90
1, 681681, Control_c, 0, 64, 91
1, 681710, Control_c, 0, 64, 82
1, 681725, Control_c, 0, 64, 65
1, 681740, Control_c, 0, 64, 0
1, 681741, Note_on_c, 0, 62, 79
1, 681745, Note_on_c, 0, 52, 80
1, 681746, Note_on_c, 0, 45, 73
1, 681754, Note_on_c, 0, 55, 62
1, 681769, Note_off_c, 0, 52, 68
1, 681775, Note_off_c, 0, 45, 65
1, 681775, Note_off_c, 0, 55, 60
1, 681798, Note_off_c, 0, 62, 0
1, 681817, Note_on_c, 0, 65, 93
1, 681826, Note_on_c, 0, 53, 83
1, 681832, Note_on_c, 0, 50, 65
1, 681838, Poly_aftertouch_c, 0, 62, 0
1, 681849, Note_off_c, 0, 53, 69
1, 681853, Note_on_c, 0, 52, 51
1, 681857, Note_off_c, 0, 50, 62
1, 681858, Note_on_c, 0, 57, 17
1, 681858, Note_off_c, 0, 57, 127
1, 681862, Note_off_c, 0, 65, 63
1, 681890, Note_off_c, 0, 52, 35
1, 682003, Note_on_c, 0, 57, 81
1, 682005, Note_on_c, 0, 65, 92
1, 682006, Note_on_c, 0, 53, 80
1, 682008, Control_c, 0, 64, 30
1, 682008, Note_on_c, 0, 50, 75
1, 682010, Note_on_c, 0, 62, 82
1, 682023, Control_c, 0, 64, 64
1, 682028, Note_off_c, 0, 57, 70
1, 682030, Note_off_c, 0, 53, 69
1, 682031, Note_off_c, 0, 62, 70
1, 682032, Note_off_c, 0, 50, 67
1, 682033, Note_off_c, 0, 65, 67
1, 682037, Control_c, 0, 64, 82
1, 682052, Control_c, 0, 64, 106
1, 682067, Control_c, 0, 64, 110
1, 682222, Control_c, 0, 64, 112
1, 682239, Note_on_c, 0, 58, 95
1, 682247, Note_on_c, 0, 64, 75
1, 682250, Note_on_c, 0, 69, 76
1, 682252, Note_on_c, 0, 55, 77
1, 682252, Control_c, 0, 64, 94
1, 682267, Control_c, 0, 64, 69
1, 682271, Note_off_c, 0, 64, 71
1, 682278, Note_off_c, 0, 55, 67
1, 682282, Control_c, 0, 64, 34
1, 682288, Note_off_c, 0, 58, 64
1, 682297, Control_c, 0, 64, 0
1, 682321, Note_on_c, 0, 62, 91
1, 682327, Note_on_c, 0, 74, 88
1, 682330, Note_off_c, 0, 69, 62
1, 682331, Note_on_c, 0, 57, 82
1, 682355, Note_off_c, 0, 74, 66
1, 682357, Note_off_c, 0, 57, 68
1, 682359, Note_off_c, 0, 62, 65
1, 682474, Control_c, 0, 64, 31
1, 682489, Control_c, 0, 64, 45
1, 682504, Control_c, 0, 64, 55
1, 682518, Control_c, 0, 64, 63
1, 682532, Note_on_c, 0, 77, 66
1, 682533, Control_c, 0, 64, 69
1, 682548, Note_on_c, 0, 57, 57
1, 682548, Control_c, 0, 64, 77
1, 682551, Note_on_c, 0, 65, 61
1, 682553, Note_on_c, 0, 69, 60
1, 682556, Note_on_c, 0, 62, 58
1, 682563, Control_c, 0, 64, 86
1, 682578, Control_c, 0, 64, 95
1, 682580, Note_off_c, 0, 62, 63
1, 682580, Note_off_c, 0, 65, 65
1, 682586, Note_off_c, 0, 57, 64
1, 682587, Note_off_c, 0, 69, 59
1, 682592, Control_c, 0, 64, 105
1, 682606, Note_off_c, 0, 77, 61
1, 682607, Control_c, 0, 64, 127
1, 682732, Note_on_c, 0, 74, 73
1, 682738, Note_on_c, 0, 54, 66
1, 682741, Note_on_c, 0, 70, 60
1, 682742, Note_on_c, 0, 58, 52
1, 682749, Note_on_c, 0, 62, 44
1, 682750, Note_on_c, 0, 66, 55
1, 682759, Note_off_c, 0, 74, 63
1, 682768, Note_off_c, 0, 58, 54
1, 682770, Note_off_c, 0, 70, 66
1, 682771, Note_off_c, 0, 54, 58
1, 682771, Note_off_c, 0, 66, 60
1, 682771, Control_c, 0, 64, 92
1, 682774, Note_off_c, 0, 62, 57
1, 682786, Control_c, 0, 64, 72
1, 682801, Control_c, 0, 64, 54
1, 682815, Control_c, 0, 64, 0
1, 682921, Note_on_c, 0, 54, 62
1, 682923, Note_on_c, 0, 74, 70
1, 682928, Note_on_c, 0, 62, 62
1, 682931, Note_on_c, 0, 66, 48
1, 682938, Note_on_c, 0, 58, 34
1, 682938, Note_on_c, 0, 70, 51
1, 682948, Note_off_c, 0, 54, 65
1, 682951, Note_off_c, 0, 62, 62
1, 682956, Note_off_c, 0, 66, 56
1, 682959, Note_off_c, 0, 70, 60
1, 682961, Note_off_c, 0, 74, 58
1, 682970, Note_off_c, 0, 58, 45
1, 683105, Control_c, 0, 64, 53
1, 683117, Note_on_c, 0, 58, 59
1, 683120, Control_c, 0, 64, 73
1, 683121, Note_on_c, 0, 74, 59
1, 683128, Note_on_c, 0, 65, 58
1, 683128, Note_on_c, 0, 77, 60
1, 683132, Note_on_c, 0, 70, 40
1, 683134, Control_c, 0, 64, 127
1, 683139, Note_on_c, 0, 62, 49
1, 683170, Note_off_c, 0, 65, 56
1, 683180, Note_off_c, 0, 70, 57
1, 683194, Note_off_c, 0, 62, 54
1, 683214, Note_off_c, 0, 77, 57
1, 683224, Note_off_c, 0, 74, 52
1, 683289, Note_off_c, 0, 58, 0
1, 683301, Note_on_c, 0, 55, 68
1, 683302, Note_on_c, 0, 62, 61
1, 683304, Note_on_c, 0, 74, 71
1, 683311, Note_on_c, 0, 71, 67
1, 683317, Note_on_c, 0, 67, 64
1, 683325, Note_on_c, 0, 59, 46
1, 683326, Poly_aftertouch_c, 0, 58, 127
1, 683328, Control_c, 0, 64, 86
1, 683336, Note_off_c, 0, 62, 60
1, 683341, Note_off_c, 0, 71, 61
1, 683342, Control_c, 0, 64, 60
1, 683344, Note_off_c, 0, 67, 65
1, 683352, Poly_aftertouch_c, 0, 58, 0
1, 683352, Note_off_c, 0, 59, 56
1, 683353, Note_off_c, 0, 55, 53
1, 683357, Control_c, 0, 64, 0
1, 683361, Note_off_c, 0, 74, 61
1, 683466, Note_on_c, 0, 55, 72
1, 683468, Note_on_c, 0, 74, 81
1, 683471, Note_on_c, 0, 71, 76
1, 683473, Note_on_c, 0, 62, 73
1, 683474, Note_on_c, 0, 59, 49
1, 683475, Note_on_c, 0, 67, 70
1, 683494, Note_off_c, 0, 55, 67
1, 683496, Note_off_c, 0, 71, 65
1, 683501, Note_off_c, 0, 67, 69
1, 683504, Note_off_c, 0, 59, 65
1, 683506, Note_off_c, 0, 62, 65
1, 683519, Note_off_c, 0, 74, 66
1, 683607, Note_on_c, 0, 61, 31
1, 683607, Note_off_c, 0, 61, 127
1, 683662, Control_c, 0, 64, 40
1, 683667, Note_on_c, 0, 77, 78
1, 683668, Note_on_c, 0, 74, 81
1, 683668, Note_on_c, 0, 81, 81
1, 683671, Note_on_c, 0, 71, 82
1, 683677, Control_c, 0, 64, 73
1, 683677, Note_on_c, 0, 59, 72
1, 683678, Note_on_c, 0, 69, 76
1, 683679, Note_on_c, 0, 65, 70
1, 683680, Note_on_c, 0, 62, 71
1, 683692, Control_c, 0, 64, 127
1, 683704, Note_off_c, 0, 65, 67
1, 683710, Note_off_c, 0, 69, 59
1, 683722, Note_off_c, 0, 62, 62
1, 683726, Note_off_c, 0, 59, 65
1, 683761, Note_off_c, 0, 71, 45
1, 683764, Note_off_c, 0, 74, 55
1, 683775, Note_off_c, 0, 81, 62
1, 683776, Note_off_c, 0, 77, 58
1, 683847, Note_on_c, 0, 60, 71
1, 683850, Note_on_c, 0, 65, 80
1, 683856, Note_on_c, 0, 56, 73
1, 683858, Note_on_c, 0, 74, 93
1, 683859, Note_on_c, 0, 77, 92
1, 683860, Note_on_c, 0, 71, 93
1, 683869, Control_c, 0, 64, 97
1, 683884, Control_c, 0, 64, 65
1, 683891, Note_off_c, 0, 56, 61
1, 683891, Note_off_c, 0, 71, 62
1, 683895, Note_off_c, 0, 65, 56
1, 683897, Note_off_c, 0, 74, 62
1, 683899, Control_c, 0, 64, 0
1, 683901, Note_off_c, 0, 60, 63
1, 683912, Note_off_c, 0, 77, 64
1, 684026, Note_on_c, 0, 56, 84
1, 684029, Note_on_c, 0, 65, 87
1, 684030, Note_on_c, 0, 60, 79
1, 684030, Note_on_c, 0, 77, 88
1, 684036, Note_on_c, 0, 74, 83
1, 684037, Note_on_c, 0, 72, 85
1, 684052, Note_on_c, 0, 81, 61
1, 684061, Note_off_c, 0, 56, 63
1, 684064, Note_off_c, 0, 60, 65
1, 684065, Note_off_c, 0, 65, 63
1, 684070, Note_off_c, 0, 81, 62
1, 684073, Note_off_c, 0, 74, 56
1, 684075, Note_off_c, 0, 72, 63
1, 684102, Note_off_c, 0, 77, 63
1, 684212, Note_on_c, 0, 60, 88
1, 684212, Note_on_c, 0, 65, 97
1, 684213, Note_on_c, 0, 81, 93
1, 684214, Note_on_c, 0, 69, 94
1, 684217, Note_on_c, 0, 72, 100
1, 684221, Note_on_c, 0, 74, 90
1, 684224, Control_c, 0, 64, 65
1, 684227, Note_on_c, 0, 77, 72
1, 684238, Control_c, 0, 64, 127
1, 684240, Note_off_c, 0, 69, 61
1, 684244, Note_off_c, 0, 65, 65
1, 684246, Note_off_c, 0, 74, 64
1, 684248, Note_off_c, 0, 60, 65
1, 684251, Note_off_c, 0, 77, 69
1, 684252, Note_off_c, 0, 72, 65
1, 684264, Note_off_c, 0, 81, 60
1, 684425, Note_on_c, 0, 77, 99
1, 684428, Note_on_c, 0, 61, 78
1, 684429, Note_on_c, 0, 65, 82
1, 684430, Note_on_c, 0, 57, 85
1, 684430, Note_on_c, 0, 69, 96
1, 684433, Note_on_c, 0, 73, 94
1, 684468, Note_off_c, 0, 69, 64
1, 684474, Note_off_c, 0, 73, 63
1, 684476, Note_off_c, 0, 65, 63
1, 684479, Note_off_c, 0, 61, 61
1, 684482, Note_off_c, 0, 77, 60
1, 684482, Note_off_c, 0, 57, 61
1, 684514, Control_c, 0, 64, 83
1, 684529, Control_c, 0, 64, 60
1, 684543, Control_c, 0, 64, 0
1, 684592, Note_on_c, 0, 61, 81
1, 684599, Note_on_c, 0, 65, 73
1, 684605, Note_on_c, 0, 57, 74
1, 684605, Note_on_c, 0, 69, 99
1, 684606, Note_on_c, 0, 77, 89
1, 684617, Note_off_c, 0, 61, 70
1, 684623, Note_on_c, 0, 79, 56
1, 684623, Note_off_c, 0, 79, 127
1, 684623, Note_off_c, 0, 65, 69
1, 684626, Note_on_c, 0, 73, 51
1, 684629, Note_off_c, 0, 57, 67
1, 684634, Note_off_c, 0, 69, 66
1, 684638, Note_off_c, 0, 77, 65
1, 684649, Note_off_c, 0, 73, 60
1, 684822, Note_on_c, 0, 45, 97
1, 684824, Note_on_c, 0, 50, 90
1, 684825, Note_on_c, 0, 38, 93
1, 684826, Note_on_c, 0, 53, 94
1, 684827, Note_on_c, 0, 57, 91
1, 684830, Note_on_c, 0, 62, 83
1, 684830, Note_on_c, 0, 65, 80
1, 684840, Control_c, 0, 64, 41
1, 684851, Note_off_c, 0, 57, 69
1, 684854, Note_off_c, 0, 50, 68
1, 684854, Note_off_c, 0, 53, 67
1, 684854, Control_c, 0, 64, 99
1, 684857, Note_off_c, 0, 38, 67
1, 684857, Note_off_c, 0, 45, 64
1, 684869, Control_c, 0, 64, 127
1, 684877, Note_off_c, 0, 62, 65
1, 684887, Note_off_c, 0, 65, 64
1, 685108, Note_on_c, 0, 74, 91
1, 685112, Note_on_c, 0, 50, 75
1, 685113, Note_on_c, 0, 65, 83
1, 685117, Note_on_c, 0, 53, 74
1, 685117, Note_on_c, 0, 69, 77
1, 685120, Note_on_c, 0, 45, 63
1, 685122, Control_c, 0, 64, 76
1, 685132, Note_off_c, 0, 65, 70
1, 685136, Control_c, 0, 64, 46
1, 685137, Note_off_c, 0, 69, 71
1, 685155, Note_off_c, 0, 74, 62
1, 685156, Note_off_c, 0, 45, 62
1, 685158, Control_c, 0, 64, 0
1, 685182, Note_on_c, 0, 57, 96
1, 685189, Note_on_c, 0, 74, 91
1, 685194, Poly_aftertouch_c, 0, 45, 0
1, 685196, Note_on_c, 0, 65, 98
1, 685198, Note_on_c, 0, 69, 87
1, 685199, Note_on_c, 0, 77, 90
1, 685209, Note_off_c, 0, 53, 64
1, 685212, Note_off_c, 0, 50, 64
1, 685223, Note_off_c, 0, 57, 66
1, 685224, Note_off_c, 0, 69, 64
1, 685227, Note_off_c, 0, 65, 64
1, 685251, Note_off_c, 0, 74, 65
1, 685260, Note_off_c, 0, 77, 64
1, 685366, Note_on_c, 0, 50, 68
1, 685366, Note_on_c, 0, 57, 93
1, 685367, Note_on_c, 0, 53, 77
1, 685367, Note_on_c, 0, 65, 90
1, 685368, Note_on_c, 0, 74, 86
1, 685370, Note_on_c, 0, 77, 92
1, 685376, Note_on_c, 0, 45, 62
1, 685377, Note_on_c, 0, 69, 68
1, 685381, Control_c, 0, 64, 45
1, 685386, Note_off_c, 0, 65, 71
1, 685394, Note_off_c, 0, 53, 65
1, 685396, Control_c, 0, 64, 95
1, 685400, Note_off_c, 0, 50, 67
1, 685402, Note_off_c, 0, 69, 65
1, 685403, Note_off_c, 0, 45, 56
1, 685406, Note_off_c, 0, 74, 63
1, 685407, Note_off_c, 0, 57, 62
1, 685411, Control_c, 0, 64, 127
1, 685421, Note_off_c, 0, 77, 69
1, 685465, Poly_aftertouch_c, 0, 71, 0
1, 685482, Poly_aftertouch_c, 0, 71, 0
1, 685619, Note_on_c, 0, 57, 77
1, 685626, Note_on_c, 0, 62, 81
1, 685629, Note_on_c, 0, 74, 87
1, 685636, Note_on_c, 0, 53, 59
1, 685638, Note_on_c, 0, 77, 69
1, 685645, Note_on_c, 0, 81, 69
1, 685654, Note_on_c, 0, 83, 55
1, 685669, Note_off_c, 0, 74, 63
1, 685669, Note_off_c, 0, 77, 65
1, 685675, Note_off_c, 0, 83, 59
1, 685684, Note_on_c, 0, 65, 98
1, 685695, Note_on_c, 0, 86, 84
1, 685701, Note_off_c, 0, 53, 59
1, 685701, Note_off_c, 0, 81, 66
1, 685710, Note_off_c, 0, 62, 66
1, 685717, Note_off_c, 0, 65, 69
1, 685720, Note_off_c, 0, 57, 63
1, 685729, Note_off_c, 0, 86, 63
1, 685796, Control_c, 0, 64, 87
1, 685811, Control_c, 0, 64, 57
1, 685826, Control_c, 0, 64, 0
1, 685837, Note_on_c, 0, 89, 95
1, 685838, Note_on_c, 0, 62, 89
1, 685838, Note_on_c, 0, 65, 97
1, 685840, Note_on_c, 0, 77, 101
1, 685844, Note_on_c, 0, 57, 63
1, 685844, Note_on_c, 0, 81, 88
1, 685850, Note_on_c, 0, 53, 78
1, 685861, Note_off_c, 0, 81, 74
1, 685864, Note_off_c, 0, 89, 65
1, 685868, Note_off_c, 0, 65, 67
1, 685870, Note_off_c, 0, 77, 67
1, 685874, Note_off_c, 0, 62, 66
1, 685882, Note_off_c, 0, 57, 67
1, 685892, Note_off_c, 0, 53, 63
1, 686014, Note_on_c, 0, 83, 89
1, 686015, Note_on_c, 0, 56, 80
1, 686016, Note_on_c, 0, 71, 91
1, 686028, Note_on_c, 0, 53, 62
1, 686029, Note_on_c, 0, 59, 67
1, 686044, Note_off_c, 0, 71, 64
1, 686049, Note_off_c, 0, 59, 65
1, 686050, Note_off_c, 0, 53, 62
1, 686057, Note_off_c, 0, 56, 60
1, 686064, Note_off_c, 0, 83, 65
1, 686182, Note_on_c, 0, 57, 76
1, 686182, Note_on_c, 0, 61, 82
1, 686183, Note_on_c, 0, 52, 74
1, 686183, Note_on_c, 0, 76, 86
1, 686187, Note_on_c, 0, 85, 88
1, 686189, Note_on_c, 0, 73, 86
1, 686190, Note_on_c, 0, 81, 75
1, 686209, Note_off_c, 0, 61, 65
1, 686214, Note_off_c, 0, 76, 62
1, 686215, Note_off_c, 0, 52, 64
1, 686217, Note_off_c, 0, 73, 58
1, 686219, Note_off_c, 0, 57, 64
1, 686222, Note_off_c, 0, 81, 60
1, 686253, Note_off_c, 0, 85, 62
1, 686351, Note_on_c, 0, 52, 80
1, 686351, Note_on_c, 0, 76, 91
1, 686353, Note_on_c, 0, 85, 86
1, 686357, Note_on_c, 0, 61, 81
1, 686358, Note_on_c, 0, 57, 74
1, 686358, Note_on_c, 0, 73, 94
1, 686366, Note_on_c, 0, 81, 59
1, 686368, Control_c, 0, 64, 47
1, 686376, Note_off_c, 0, 73, 71
1, 686379, Note_off_c, 0, 61, 71
1, 686382, Note_off_c, 0, 57, 67
1, 686383, Control_c, 0, 64, 109
1, 686384, Note_off_c, 0, 52, 67
1, 686385, Note_off_c, 0, 76, 67
1, 686391, Note_off_c, 0, 81, 64
1, 686392, Note_off_c, 0, 85, 68
1, 686398, Control_c, 0, 64, 127
1, 686614, Note_on_c, 0, 69, 84
1, 686615, Note_on_c, 0, 81, 84
1, 686618, Note_on_c, 0, 57, 72
1, 686619, Note_on_c, 0, 52, 73
1, 686620, Note_on_c, 0, 45, 74
1, 686633, Note_off_c, 0, 81, 71
1, 686634, Note_off_c, 0, 69, 69
1, 686642, Note_off_c, 0, 57, 66
1, 686644, Note_off_c, 0, 52, 69
1, 686658, Note_off_c, 0, 45, 65
1, 686672, Control_c, 0, 64, 105
1, 686688, Control_c, 0, 64, 70
1, 686694, Note_on_c, 0, 57, 89
1, 686695, Note_on_c, 0, 81, 96
1, 686696, Note_on_c, 0, 69, 92
1, 686697, Note_on_c, 0, 73, 81
1, 686698, Note_on_c, 0, 52, 81
1, 686700, Note_on_c, 0, 45, 81
1, 686703, Control_c, 0, 64, 0
1, 686721, Note_off_c, 0, 57, 68
1, 686721, Note_off_c, 0, 69, 67
1, 686722, Note_off_c, 0, 52, 67
1, 686726, Note_off_c, 0, 73, 62
1, 686730, Note_off_c, 0, 45, 63
1, 686730, Note_off_c, 0, 81, 58
1, 686876, Note_on_c, 0, 52, 86
1, 686877, Note_on_c, 0, 57, 77
1, 686878, Note_on_c, 0, 45, 82
1, 686878, Note_on_c, 0, 69, 95
1, 686879, Note_on_c, 0, 73, 83
1, 686880, Control_c, 0, 64, 40
1, 686883, Note_on_c, 0, 81, 77
1, 686895, Note_off_c, 0, 69, 73
1, 686895, Control_c, 0, 64, 87
1, 686896, Note_off_c, 0, 73, 73
1, 686896, Note_off_c, 0, 81, 71
1, 686899, Note_off_c, 0, 52, 67
1, 686900, Note_off_c, 0, 45, 66
1, 686904, Note_off_c, 0, 57, 67
1, 686910, Control_c, 0, 64, 127
1, 687141, Note_on_c, 0, 61, 74
1, 687142, Note_on_c, 0, 52, 80
1, 687145, Note_on_c, 0, 45, 70
1, 687148, Note_on_c, 0, 40, 69
1, 687149, Note_on_c, 0, 57, 71
1, 687162, Control_c, 0, 64, 80
1, 687163, Note_off_c, 0, 52, 68
1, 687165, Note_off_c, 0, 61, 70
1, 687169, Note_off_c, 0, 45, 69
1, 687171, Note_off_c, 0, 40, 62
1, 687172, Note_off_c, 0, 57, 64
1, 687176, Control_c, 0, 64, 48
1, 687191, Control_c, 0, 64, 0
1, 687208, Note_on_c, 0, 61, 90
1, 687213, Note_on_c, 0, 52, 84
1, 687217, Note_on_c, 0, 57, 81
1, 687219, Note_on_c, 0, 45, 80
1, 687234, Note_off_c, 0, 61, 67
1, 687239, Note_on_c, 0, 40, 56
1, 687242, Note_off_c, 0, 52, 68
1, 687244, Note_off_c, 0, 57, 68
1, 687245, Note_off_c, 0, 45, 64
1, 687269, Note_off_c, 0, 40, 57
1, 687411, Note_on_c, 0, 45, 80
1, 687412, Note_on_c, 0, 61, 80
1, 687414, Note_on_c, 0, 52, 72
1, 687416, Note_on_c, 0, 40, 62
1, 687421, Control_c, 0, 64, 40
1, 687433, Note_off_c, 0, 52, 65
1, 687435, Note_off_c, 0, 45, 66
1, 687435, Note_off_c, 0, 61, 69
1, 687436, Control_c, 0, 64, 75
1, 687445, Note_off_c, 0, 40, 62
1, 687451, Control_c, 0, 64, 93
1, 687465, Control_c, 0, 64, 116
1, 687468, Note_on_c, 0, 55, 3
1, 687481, Control_c, 0, 64, 127
1, 687508, Note_off_c, 0, 55, 51
1, 687522, Poly_aftertouch_c, 0, 57, 0
1, 687659, Control_c, 0, 64, 118
1, 687665, Note_on_c, 0, 55, 83
1, 687666, Note_on_c, 0, 45, 77
1, 687668, Note_on_c, 0, 33, 77
1, 687671, Note_on_c, 0, 40, 69
1, 687673, Note_on_c, 0, 49, 80
1, 687673, Control_c, 0, 64, 71
1, 687675, Note_on_c, 0, 57, 70
1, 687688, Control_c, 0, 64, 0
1, 687690, Note_off_c, 0, 45, 67
1, 687692, Note_off_c, 0, 40, 62
1, 687694, Note_off_c, 0, 57, 66
1, 687697, Note_off_c, 0, 33, 63
1, 687698, Note_off_c, 0, 49, 67
1, 687698, Note_off_c, 0, 55, 65
1, 687735, Note_on_c, 0, 45, 87
1, 687741, Note_on_c, 0, 49, 91
1, 687743, Note_on_c, 0, 33, 82
1, 687743, Note_on_c, 0, 57, 83
1, 687745, Note_on_c, 0, 55, 66
1, 687748, Note_on_c, 0, 40, 73
1, 687764, Note_off_c, 0, 49, 70
1, 687773, Poly_aftertouch_c, 0, 56, 0
1, 687774, Note_off_c, 0, 45, 58
1, 687775, Note_off_c, 0, 33, 65
1, 687778, Note_off_c, 0, 40, 64
1, 687780, Note_off_c, 0, 55, 63
1, 687781, Note_off_c, 0, 57, 61
1, 687917, Note_on_c, 0, 57, 94
1, 687925, Note_on_c, 0, 38, 91
1, 687925, Note_on_c, 0, 45, 89
1, 687925, Note_on_c, 0, 53, 80
1, 687927, Note_on_c, 0, 50, 78
1, 687946, Note_off_c, 0, 53, 69
1, 687951, Note_off_c, 0, 38, 66
1, 687951, Note_off_c, 0, 45, 67
1, 687954, Control_c, 0, 64, 64
1, 687955, Note_off_c, 0, 50, 69
1, 687958, Note_off_c, 0, 57, 68
1, 687969, Control_c, 0, 64, 127
1, 688190, Note_on_c, 0, 74, 92
1, 688193, Note_on_c, 0, 65, 89
1, 688195, Note_on_c, 0, 69, 84
1, 688199, Note_on_c, 0, 50, 82
1, 688199, Control_c, 0, 64, 79
1, 688201, Note_on_c, 0, 53, 85
1, 688211, Note_on_c, 0, 45, 64
1, 688213, Control_c, 0, 64, 47
1, 688214, Note_off_c, 0, 65, 70
1, 688214, Note_off_c, 0, 69, 72
1, 688224, Note_off_c, 0, 74, 61
1, 688228, Control_c, 0, 64, 0
1, 688232, Note_off_c, 0, 53, 64
1, 688234, Note_off_c, 0, 45, 60
1, 688238, Note_off_c, 0, 50, 62
1, 688266, Note_on_c, 0, 57, 96
1, 688268, Note_on_c, 0, 74, 82
1, 688273, Note_on_c, 0, 69, 88
1, 688277, Note_on_c, 0, 65, 84
1, 688279, Note_on_c, 0, 77, 77
1, 688284, Note_on_c, 0, 50, 52
1, 688285, Note_on_c, 0, 53, 52
1, 688292, Note_off_c, 0, 69, 66
1, 688295, Note_off_c, 0, 65, 72
1, 688308, Note_off_c, 0, 57, 67
1, 688314, Note_off_c, 0, 53, 55
1, 688314, Note_off_c, 0, 74, 66
1, 688318, Note_off_c, 0, 50, 57
1, 688318, Note_off_c, 0, 77, 61
1, 688440, Note_on_c, 0, 50, 48
1, 688445, Note_on_c, 0, 65, 83
1, 688446, Note_on_c, 0, 57, 92
1, 688446, Note_on_c, 0, 69, 79
1, 688446, Note_on_c, 0, 74, 75
1, 688447, Note_on_c, 0, 77, 90
1, 688449, Note_on_c, 0, 53, 78
1, 688457, Note_on_c, 0, 45, 64
1, 688465, Note_off_c, 0, 65, 72
1, 688466, Control_c, 0, 64, 57
1, 688469, Note_off_c, 0, 69, 69
1, 688470, Note_off_c, 0, 74, 70
1, 688474, Note_off_c, 0, 53, 68
1, 688481, Note_off_c, 0, 50, 65
1, 688481, Control_c, 0, 64, 127
1, 688482, Note_off_c, 0, 45, 58
1, 688488, Note_off_c, 0, 77, 68
1, 688489, Note_off_c, 0, 57, 63
1, 688678, Note_on_c, 0, 81, 79
1, 688679, Note_on_c, 0, 57, 68
1, 688682, Note_on_c, 0, 74, 83
1, 688685, Note_on_c, 0, 62, 84
1, 688685, Note_on_c, 0, 77, 77
1, 688698, Note_on_c, 0, 53, 58
1, 688702, Note_off_c, 0, 74, 70
1, 688730, Note_off_c, 0, 77, 0
1, 688742, Note_on_c, 0, 65, 95
1, 688745, Note_on_c, 0, 86, 92
1, 688751, Poly_aftertouch_c, 0, 77, 0
1, 688753, Note_off_c, 0, 53, 42
1, 688754, Note_off_c, 0, 81, 66
1, 688763, Note_off_c, 0, 62, 64
1, 688773, Note_off_c, 0, 57, 63
1, 688777, Note_on_c, 0, 83, 35
1, 688777, Note_off_c, 0, 65, 63
1, 688786, Note_off_c, 0, 86, 67
1, 688810, Note_off_c, 0, 83, 54
1, 688905, Note_on_c, 0, 89, 97
1, 688906, Note_on_c, 0, 65, 95
1, 688908, Note_on_c, 0, 77, 101
1, 688909, Note_on_c, 0, 81, 100
1, 688910, Note_on_c, 0, 57, 73
1, 688917, Note_on_c, 0, 62, 70
1, 688917, Control_c, 0, 64, 81
1, 688918, Note_on_c, 0, 53, 65
1, 688926, Note_off_c, 0, 81, 71
1, 688932, Note_off_c, 0, 77, 68
1, 688932, Control_c, 0, 64, 48
1, 688934, Note_off_c, 0, 62, 67
1, 688935, Note_off_c, 0, 57, 68
1, 688936, Note_off_c, 0, 89, 65
1, 688938, Note_off_c, 0, 53, 63
1, 688941, Note_off_c, 0, 65, 65
1, 688947, Control_c, 0, 64, 0
1, 689082, Note_on_c, 0, 74, 92
1, 689085, Note_on_c, 0, 69, 80
1, 689087, Note_on_c, 0, 65, 69
1, 689087, Note_on_c, 0, 77, 75
1, 689087, Note_on_c, 0, 86, 71
1, 689090, Note_on_c, 0, 81, 65
1, 689093, Note_on_c, 0, 62, 44
1, 689097, Note_on_c, 0, 57, 57
1, 689105, Note_off_c, 0, 74, 66
1, 689108, Note_off_c, 0, 77, 72
1, 689109, Note_off_c, 0, 69, 66
1, 689111, Note_off_c, 0, 65, 68
1, 689115, Note_off_c, 0, 81, 70
1, 689120, Note_off_c, 0, 57, 62
1, 689126, Note_off_c, 0, 62, 62
1, 689126, Note_off_c, 0, 86, 62
1, 689251, Note_on_c, 0, 76, 88
1, 689251, Note_on_c, 0, 88, 85
1, 689252, Note_on_c, 0, 64, 72
1, 689255, Note_on_c, 0, 71, 79
1, 689257, Note_on_c, 0, 83, 69
1, 689258, Note_on_c, 0, 79, 66
1, 689259, Note_on_c, 0, 67, 71
1, 689266, Note_on_c, 0, 59, 58
1, 689278, Note_off_c, 0, 71, 69
1, 689278, Note_off_c, 0, 76, 63
1, 689281, Note_off_c, 0, 83, 68
1, 689281, Note_off_c, 0, 79, 70
1, 689282, Note_off_c, 0, 67, 69
1, 689289, Note_off_c, 0, 59, 60
1, 689291, Note_off_c, 0, 64, 63
1, 689296, Note_off_c, 0, 88, 64
1, 689407, Note_on_c, 0, 72, 88
1, 689412, Note_on_c, 0, 60, 72
1, 689412, Note_on_c, 0, 67, 66
1, 689412, Note_on_c, 0, 88, 92
1, 689413, Note_on_c, 0, 64, 67
1, 689415, Note_on_c, 0, 76, 98
1, 689417, Note_on_c, 0, 79, 87
1, 689422, Control_c, 0, 64, 47
1, 689423, Note_off_c, 0, 72, 73
1, 689430, Note_off_c, 0, 76, 77
1, 689432, Note_off_c, 0, 79, 77
1, 689433, Note_off_c, 0, 64, 66
1, 689434, Note_off_c, 0, 67, 65
1, 689437, Control_c, 0, 64, 127
1, 689439, Note_off_c, 0, 60, 70
1, 689439, Note_off_c, 0, 88, 65
1, 689694, Note_on_c, 0, 76, 82
1, 689695, Note_on_c, 0, 72, 83
1, 689698, Note_on_c, 0, 84, 71
1, 689707, Note_on_c, 0, 67, 54
1, 689710, Note_off_c, 0, 72, 73
1, 689714, Note_on_c, 0, 64, 34
1, 689714, Note_off_c, 0, 76, 71
1, 689719, Note_off_c, 0, 84, 72
1, 689725, Control_c, 0, 64, 118
1, 689727, Note_off_c, 0, 67, 63
1, 689740, Control_c, 0, 64, 68
1, 689745, Note_off_c, 0, 64, 0
1, 689755, Control_c, 0, 64, 0
1, 689758, Note_on_c, 0, 60, 31
1, 689759, Note_on_c, 0, 64, 74
1, 689764, Note_on_c, 0, 67, 89
1, 689764, Note_on_c, 0, 76, 101
1, 689766, Note_on_c, 0, 84, 88
1, 689770, Note_on_c, 0, 72, 94
1, 689782, Note_on_c, 0, 55, 47
1, 689782, Note_off_c, 0, 67, 71
1, 689785, Note_off_c, 0, 72, 73
1, 689794, Note_off_c, 0, 76, 64
1, 689797, Note_off_c, 0, 64, 65
1, 689806, Note_off_c, 0, 84, 62
1, 689813, Note_off_c, 0, 55, 54
1, 689813, Note_off_c, 0, 60, 63
1, 689940, Note_on_c, 0, 64, 86
1, 689941, Note_on_c, 0, 60, 81
1, 689941, Note_on_c, 0, 72, 97
1, 689941, Note_on_c, 0, 76, 97
1, 689943, Note_on_c, 0, 84, 92
1, 689945, Note_on_c, 0, 67, 77
1, 689949, Control_c, 0, 64, 68
1, 689952, Note_on_c, 0, 55, 62
1, 689958, Note_off_c, 0, 76, 71
1, 689961, Note_off_c, 0, 72, 66
1, 689962, Note_off_c, 0, 64, 73
1, 689962, Note_off_c, 0, 67, 70
1, 689963, Note_off_c, 0, 84, 71
1, 689964, Control_c, 0, 64, 127
1, 689965, Note_off_c, 0, 60, 70
1, 689982, Note_off_c, 0, 55, 64
1, 690213, Note_on_c, 0, 48, 72
1, 690214, Note_on_c, 0, 64, 66
1, 690217, Note_on_c, 0, 43, 60
1, 690218, Note_on_c, 0, 55, 65
1, 690232, Note_off_c, 0, 64, 68
1, 690232, Note_on_c, 0, 60, 40
1, 690234, Note_on_c, 0, 65, 34
1, 690241, Note_off_c, 0, 48, 64
1, 690243, Note_off_c, 0, 43, 60
1, 690246, Control_c, 0, 64, 104
1, 690248, Note_off_c, 0, 55, 63
1, 690255, Note_off_c, 0, 60, 61
1, 690261, Control_c, 0, 64, 69
1, 690266, Note_off_c, 0, 65, 51
1, 690275, Control_c, 0, 64, 0
1, 690277, Note_on_c, 0, 64, 97
1, 690287, Note_on_c, 0, 60, 58
1, 690288, Note_on_c, 0, 48, 85
1, 690289, Note_on_c, 0, 43, 72
1, 690295, Note_on_c, 0, 55, 75
1, 690302, Note_off_c, 0, 64, 63
1, 690309, Note_off_c, 0, 60, 59
1, 690316, Note_off_c, 0, 43, 64
1, 690316, Note_off_c, 0, 48, 65
1, 690320, Note_off_c, 0, 55, 67
1, 690474, Note_on_c, 0, 64, 90
1, 690476, Note_on_c, 0, 48, 80
1, 690479, Note_on_c, 0, 55, 68
1, 690481, Note_on_c, 0, 60, 74
1, 690490, Note_on_c, 0, 43, 54
1, 690490, Control_c, 0, 64, 70
1, 690500, Note_off_c, 0, 48, 66
1, 690500, Note_off_c, 0, 55, 61
1, 690501, Note_off_c, 0, 64, 65
1, 690504, Note_off_c, 0, 60, 70
1, 690505, Control_c, 0, 64, 104
1, 690518, Note_off_c, 0, 43, 52
1, 690519, Control_c, 0, 64, 127
1, 690709, Poly_aftertouch_c, 0, 61, 127
1, 690725, Note_on_c, 0, 58, 86
1, 690731, Note_on_c, 0, 48, 72
1, 690738, Note_on_c, 0, 52, 73
1, 690742, Note_on_c, 0, 60, 65
1, 690742, Poly_aftertouch_c, 0, 61, 0
1, 690744, Note_on_c, 0, 43, 43
1, 690745, Note_on_c, 0, 36, 45
1, 690754, Note_on_c, 0, 35, 32
1, 690754, Note_off_c, 0, 58, 64
1, 690756, Control_c, 0, 64, 83
1, 690760, Note_off_c, 0, 48, 65
1, 690761, Note_off_c, 0, 60, 67
1, 690766, Note_off_c, 0, 52, 64
1, 690771, Note_off_c, 0, 43, 55
1, 690771, Control_c, 0, 64, 57
1, 690780, Note_off_c, 0, 35, 48
1, 690782, Note_off_c, 0, 36, 0
1, 690786, Control_c, 0, 64, 0
1, 690800, Note_on_c, 0, 36, 66
1, 690800, Note_on_c, 0, 58, 78
1, 690801, Note_on_c, 0, 60, 93
1, 690803, Note_on_c, 0, 43, 69
1, 690804, Note_on_c, 0, 48, 87
1, 690804, Note_on_c, 0, 52, 85
1, 690826, Note_off_c, 0, 52, 65
1, 690834, Note_off_c, 0, 43, 64
1, 690835, Note_off_c, 0, 48, 64
1, 690843, Note_off_c, 0, 58, 62
1, 690849, Note_off_c, 0, 60, 63
1, 690855, Note_off_c, 0, 36, 62
1, 690988, Note_on_c, 0, 60, 88
1, 690992, Note_on_c, 0, 53, 78
1, 690993, Note_on_c, 0, 48, 93
1, 690994, Note_on_c, 0, 41, 81
1, 690995, Note_on_c, 0, 57, 72
1, 691008, Control_c, 0, 64, 29
1, 691014, Note_off_c, 0, 53, 69
1, 691019, Note_off_c, 0, 41, 66
1, 691021, Note_off_c, 0, 48, 66
1, 691022, Control_c, 0, 64, 73
1, 691023, Note_off_c, 0, 60, 68
1, 691024, Note_off_c, 0, 57, 66
1, 691037, Control_c, 0, 64, 127
1, 691251, Note_on_c, 0, 77, 83
1, 691253, Note_on_c, 0, 57, 80
1, 691255, Note_on_c, 0, 53, 71
1, 691259, Note_on_c, 0, 69, 74
1, 691260, Note_on_c, 0, 72, 70
1, 691266, Note_on_c, 0, 48, 67
1, 691278, Note_off_c, 0, 69, 71
1, 691281, Note_off_c, 0, 77, 61
1, 691281, Control_c, 0, 64, 81
1, 691282, Note_off_c, 0, 72, 67
1, 691289, Note_off_c, 0, 57, 59
1, 691296, Note_off_c, 0, 48, 63
1, 691296, Control_c, 0, 64, 41
1, 691311, Control_c, 0, 64, 0
1, 691315, Note_on_c, 0, 60, 92
1, 691320, Note_on_c, 0, 77, 91
1, 691322, Note_off_c, 0, 53, 0
1, 691327, Note_on_c, 0, 57, 53
1, 691327, Note_on_c, 0, 69, 87
1, 691328, Note_on_c, 0, 72, 87
1, 691331, Note_on_c, 0, 81, 79
1, 691342, Note_on_c, 0, 48, 49
1, 691346, Note_off_c, 0, 72, 67
1, 691347, Note_off_c, 0, 57, 63
1, 691347, Note_off_c, 0, 69, 64
1, 691356, Note_on_c, 0, 53, 3
1, 691361, Note_off_c, 0, 60, 65
1, 691370, Note_off_c, 0, 48, 52
1, 691373, Note_off_c, 0, 77, 65
1, 691383, Note_off_c, 0, 81, 62
1, 691391, Note_off_c, 0, 53, 36
1, 691507, Note_on_c, 0, 77, 85
1, 691508, Note_on_c, 0, 57, 79
1, 691508, Note_on_c, 0, 69, 88
1, 691509, Note_on_c, 0, 72, 83
1, 691510, Note_on_c, 0, 53, 65
1, 691511, Note_on_c, 0, 60, 88
1, 691513, Note_on_c, 0, 81, 86
1, 691520, Control_c, 0, 64, 33
1, 691521, Note_on_c, 0, 48, 57
1, 691524, Note_off_c, 0, 69, 73
1, 691526, Note_off_c, 0, 72, 71
1, 691535, Control_c, 0, 64, 80
1, 691538, Note_off_c, 0, 53, 64
1, 691539, Note_off_c, 0, 57, 66
1, 691545, Note_off_c, 0, 77, 65
1, 691546, Note_off_c, 0, 60, 63
1, 691550, Control_c, 0, 64, 127
1, 691553, Note_off_c, 0, 48, 54
1, 691560, Note_off_c, 0, 81, 67
1, 691743, Poly_aftertouch_c, 0, 61, 127
1, 691755, Note_on_c, 0, 60, 80
1, 691757, Note_on_c, 0, 81, 87
1, 691758, Note_on_c, 0, 84, 83
1, 691759, Note_on_c, 0, 77, 85
1, 691761, Note_on_c, 0, 65, 82
1, 691763, Note_on_c, 0, 57, 66
1, 691768, Poly_aftertouch_c, 0, 61, 0
1, 691788, Note_off_c, 0, 77, 63
1, 691796, Note_off_c, 0, 81, 65
1, 691810, Note_off_c, 0, 57, 60
1, 691818, Note_on_c, 0, 69, 96
1, 691830, Note_on_c, 0, 89, 96
1, 691834, Note_off_c, 0, 60, 64
1, 691837, Note_off_c, 0, 84, 42
1, 691843, Note_off_c, 0, 65, 62
1, 691845, Control_c, 0, 64, 77
1, 691855, Note_off_c, 0, 69, 66
1, 691860, Control_c, 0, 64, 52
1, 691875, Note_off_c, 0, 89, 64
1, 691875, Control_c, 0, 64, 0
1, 692015, Note_on_c, 0, 89, 96
1, 692016, Note_on_c, 0, 67, 99
1, 692017, Note_on_c, 0, 65, 83
1, 692017, Note_on_c, 0, 91, 97
1, 692018, Note_on_c, 0, 79, 104
1, 692018, Note_on_c, 0, 84, 104
1, 692019, Note_on_c, 0, 72, 97
1, 692022, Note_on_c, 0, 60, 84
1, 692031, Control_c, 0, 64, 58
1, 692045, Control_c, 0, 64, 127
1, 692169, Note_off_c, 0, 65, 57
1, 692184, Note_on_c, 0, 64, 75
1, 692198, Note_off_c, 0, 72, 54
1, 692202, Note_on_c, 0, 88, 81
1, 692229, Note_off_c, 0, 91, 64
1, 692235, Note_off_c, 0, 67, 61
1, 692235, Note_off_c, 0, 89, 59
1, 692236, Note_off_c, 0, 84, 65
1, 692238, Note_off_c, 0, 79, 62
1, 692242, Note_off_c, 0, 60, 58
1, 692253, Note_off_c, 0, 88, 65
1, 692258, Note_off_c, 0, 64, 63
1, 692345, Note_on_c, 0, 63, 75
1, 692346, Note_on_c, 0, 79, 89
1, 692347, Note_on_c, 0, 71, 67
1, 692351, Note_on_c, 0, 87, 77
1, 692355, Note_on_c, 0, 91, 71
1, 692363, Note_on_c, 0, 59, 57
1, 692363, Note_on_c, 0, 67, 32
1, 692364, Note_off_c, 0, 71, 65
1, 692366, Note_off_c, 0, 79, 67
1, 692369, Note_off_c, 0, 63, 68
1, 692370, Note_off_c, 0, 91, 68
1, 692371, Note_on_c, 0, 84, 45
1, 692371, Note_off_c, 0, 84, 127
1, 692372, Note_off_c, 0, 87, 72
1, 692381, Note_on_c, 0, 89, 34
1, 692384, Note_off_c, 0, 67, 63
1, 692386, Note_off_c, 0, 59, 59
1, 692387, Control_c, 0, 64, 84
1, 692402, Control_c, 0, 64, 58
1, 692407, Note_off_c, 0, 89, 47
1, 692417, Control_c, 0, 64, 0
1, 692569, Note_on_c, 0, 70, 82
1, 692570, Note_on_c, 0, 50, 84
1, 692572, Note_on_c, 0, 58, 86
1, 692572, Note_on_c, 0, 43, 78
1, 692572, Note_on_c, 0, 55, 84
1, 692578, Note_on_c, 0, 62, 73
1, 692581, Control_c, 0, 64, 55
1, 692592, Note_off_c, 0, 58, 68
1, 692593, Note_off_c, 0, 55, 71
1, 692593, Note_off_c, 0, 50, 72
1, 692595, Control_c, 0, 64, 127
1, 692598, Note_off_c, 0, 43, 64
1, 692602, Note_off_c, 0, 62, 66
1, 692620, Note_off_c, 0, 70, 65
1, 692689, Poly_aftertouch_c, 0, 67, 0
1, 692711, Poly_aftertouch_c, 0, 58, 127
1, 692747, Poly_aftertouch_c, 0, 58, 0
1, 692858, Note_on_c, 0, 79, 80
1, 692859, Note_on_c, 0, 74, 85
1, 692860, Note_on_c, 0, 55, 81
1, 692860, Note_on_c, 0, 58, 86
1, 692860, Note_on_c, 0, 70, 86
1, 692864, Note_on_c, 0, 50, 76
1, 692879, Note_off_c, 0, 70, 73
1, 692879, Note_off_c, 0, 74, 74
1, 692882, Note_off_c, 0, 79, 63
1, 692884, Control_c, 0, 64, 98
1, 692899, Control_c, 0, 64, 64
1, 692914, Control_c, 0, 64, 0
1, 692921, Note_on_c, 0, 62, 91
1, 692929, Note_on_c, 0, 74, 91
1, 692930, Note_on_c, 0, 79, 77
1, 692932, Note_on_c, 0, 82, 84
1, 692933, Note_on_c, 0, 70, 88
1, 692943, Note_off_c, 0, 58, 65
1, 692950, Note_off_c, 0, 70, 73
1, 692951, Note_off_c, 0, 55, 62
1, 692957, Note_off_c, 0, 50, 59
1, 692965, Note_off_c, 0, 62, 65
1, 692971, Note_off_c, 0, 74, 63
1, 692986, Note_off_c, 0, 79, 62
1, 692995, Note_off_c, 0, 82, 64
1, 693105, Note_on_c, 0, 58, 82
1, 693110, Note_on_c, 0, 62, 92
1, 693112, Note_on_c, 0, 50, 64
1, 693112, Note_on_c, 0, 70, 89
1, 693112, Note_on_c, 0, 79, 78
1, 693112, Note_on_c, 0, 74, 85
1, 693113, Note_on_c, 0, 55, 65
1, 693115, Note_on_c, 0, 82, 88
1, 693123, Control_c, 0, 64, 60
1, 693128, Note_off_c, 0, 70, 75
1, 693131, Note_off_c, 0, 74, 74
1, 693137, Control_c, 0, 64, 127
1, 693141, Note_off_c, 0, 55, 64
1, 693141, Note_off_c, 0, 50, 65
1, 693145, Note_off_c, 0, 58, 64
1, 693148, Note_off_c, 0, 62, 62
1, 693148, Note_off_c, 0, 79, 65
1, 693165, Note_off_c, 0, 82, 66
1, 693371, Note_on_c, 0, 67, 85
1, 693377, Note_on_c, 0, 82, 95
1, 693377, Note_on_c, 0, 58, 78
1, 693377, Note_on_c, 0, 62, 74
1, 693379, Note_on_c, 0, 79, 89
1, 693380, Note_on_c, 0, 86, 87
1, 693424, Note_off_c, 0, 79, 62
1, 693425, Note_off_c, 0, 82, 65
1, 693436, Note_off_c, 0, 86, 62
1, 693440, Note_off_c, 0, 62, 62
1, 693448, Note_on_c, 0, 70, 100
1, 693453, Note_off_c, 0, 58, 58
1, 693456, Control_c, 0, 64, 80
1, 693462, Note_on_c, 0, 91, 100
1, 693470, Control_c, 0, 64, 54
1, 693471, Note_off_c, 0, 67, 61
1, 693478, Note_on_c, 0, 88, 63
1, 693485, Control_c, 0, 64, 0
1, 693486, Note_off_c, 0, 70, 68
1, 693496, Note_off_c, 0, 88, 64
1, 693504, Note_off_c, 0, 91, 69
1, 693639, Note_on_c, 0, 69, 94
1, 693639, Note_on_c, 0, 91, 97
1, 693640, Note_on_c, 0, 81, 108
1, 693640, Note_on_c, 0, 86, 103
1, 693640, Note_on_c, 0, 93, 101
1, 693642, Note_on_c, 0, 74, 100
1, 693643, Note_on_c, 0, 67, 85
1, 693657, Note_on_c, 0, 62, 74
1, 693663, Control_c, 0, 64, 84
1, 693678, Control_c, 0, 64, 127
1, 693740, Poly_aftertouch_c, 0, 90, 0
1, 693776, Note_off_c, 0, 62, 60
1, 693782, Note_off_c, 0, 86, 61
1, 693804, Note_off_c, 0, 81, 56
1, 693821, Note_off_c, 0, 74, 59
1, 693822, Note_on_c, 0, 66, 87
1, 693831, Note_on_c, 0, 90, 90
1, 693842, Note_on_c, 0, 81, 62
1, 693850, Note_off_c, 0, 69, 62
1, 693857, Note_off_c, 0, 93, 63
1, 693862, Note_off_c, 0, 91, 65
1, 693865, Note_off_c, 0, 67, 54
1, 693871, Note_off_c, 0, 81, 66
1, 693890, Note_off_c, 0, 90, 66
1, 693893, Note_off_c, 0, 66, 62
1, 693980, Note_on_c, 0, 81, 100
1, 693982, Note_on_c, 0, 73, 95
1, 693982, Note_on_c, 0, 93, 96
1, 693984, Note_on_c, 0, 85, 97
1, 693984, Note_on_c, 0, 90, 80
1, 693991, Note_on_c, 0, 69, 71
1, 693993, Note_on_c, 0, 61, 74
1, 693997, Note_on_c, 0, 65, 64
1, 693997, Note_off_c, 0, 73, 75
1, 694001, Note_off_c, 0, 85, 69
1, 694003, Note_on_c, 0, 89, 70
1, 694003, Note_off_c, 0, 93, 65
1, 694005, Note_off_c, 0, 90, 71
1, 694010, Note_off_c, 0, 81, 69
1, 694013, Note_off_c, 0, 69, 70
1, 694021, Note_off_c, 0, 61, 64
1, 694021, Note_off_c, 0, 89, 63
1, 694026, Note_off_c, 0, 65, 65
1, 694034, Control_c, 0, 64, 110
1, 694049, Control_c, 0, 64, 71
1, 694064, Control_c, 0, 64, 45
1, 694079, Control_c, 0, 64, 0
1, 694209, Note_on_c, 0, 58, 96
1, 694210, Note_on_c, 0, 46, 86
1, 694210, Note_on_c, 0, 53, 88
1, 694210, Note_on_c, 0, 61, 94
1, 694211, Note_on_c, 0, 65, 93
1, 694212, Note_on_c, 0, 73, 82
1, 694213, Note_on_c, 0, 70, 86
1, 694220, Control_c, 0, 64, 75
1, 694228, Note_off_c, 0, 61, 74
1, 694229, Note_off_c, 0, 65, 72
1, 694231, Note_off_c, 0, 58, 68
1, 694235, Control_c, 0, 64, 127
1, 694240, Note_off_c, 0, 46, 65
1, 694240, Note_off_c, 0, 53, 64
1, 694256, Note_off_c, 0, 70, 64
1, 694258, Note_off_c, 0, 73, 65
1, 694277, Note_on_c, 0, 68, 21
1, 694319, Note_off_c, 0, 68, 40
1, 694486, Note_on_c, 0, 70, 92
1, 694487, Note_on_c, 0, 77, 79
1, 694489, Note_on_c, 0, 58, 81
1, 694489, Note_on_c, 0, 61, 83
1, 694489, Note_on_c, 0, 73, 80
1, 694491, Note_on_c, 0, 53, 74
1, 694501, Control_c, 0, 64, 100
1, 694508, Note_off_c, 0, 70, 67
1, 694510, Note_off_c, 0, 73, 70
1, 694516, Control_c, 0, 64, 63
1, 694516, Note_off_c, 0, 77, 65
1, 694530, Control_c, 0, 64, 0
1, 694540, Note_off_c, 0, 53, 59
1, 694553, Note_on_c, 0, 65, 94
1, 694557, Note_on_c, 0, 70, 97
1, 694558, Note_on_c, 0, 73, 83
1, 694558, Note_on_c, 0, 82, 92
1, 694560, Note_on_c, 0, 77, 73
1, 694572, Note_on_c, 0, 53, 40
1, 694581, Note_off_c, 0, 61, 63
1, 694581, Note_off_c, 0, 58, 62
1, 694592, Note_off_c, 0, 53, 64
1, 694592, Note_off_c, 0, 70, 64
1, 694596, Note_off_c, 0, 73, 62
1, 694596, Note_off_c, 0, 77, 60
1, 694599, Note_off_c, 0, 65, 65
1, 694623, Note_off_c, 0, 82, 63
1, 694738, Note_on_c, 0, 73, 79
1, 694741, Note_on_c, 0, 70, 89
1, 694742, Note_on_c, 0, 82, 86
1, 694745, Note_on_c, 0, 61, 82
1, 694746, Note_on_c, 0, 58, 74
1, 694746, Note_on_c, 0, 65, 89
1, 694748, Note_on_c, 0, 77, 67
1, 694754, Control_c, 0, 64, 61
1, 694757, Note_on_c, 0, 53, 61
1, 694759, Note_off_c, 0, 70, 73
1, 694762, Note_off_c, 0, 73, 67
1, 694769, Control_c, 0, 64, 127
1, 694771, Note_off_c, 0, 61, 69
1, 694773, Note_off_c, 0, 77, 69
1, 694775, Note_off_c, 0, 58, 66
1, 694775, Note_off_c, 0, 65, 61
1, 694780, Note_off_c, 0, 53, 61
1, 694802, Note_off_c, 0, 82, 64
1, 695004, Note_on_c, 0, 77, 87
1, 695005, Note_on_c, 0, 82, 85
1, 695007, Note_on_c, 0, 85, 78
1, 695015, Note_on_c, 0, 70, 84
1, 695020, Note_on_c, 0, 65, 69
1, 695047, Note_off_c, 0, 77, 66
1, 695059, Note_on_c, 0, 61, 49
1, 695076, Note_off_c, 0, 82, 42
1, 695078, Note_off_c, 0, 70, 66
1, 695081, Note_on_c, 0, 89, 94
1, 695084, Note_on_c, 0, 73, 85
1, 695091, Note_off_c, 0, 85, 64
1, 695100, Note_off_c, 0, 61, 65
1, 695102, Note_off_c, 0, 65, 63
1, 695102, Note_off_c, 0, 73, 72
1, 695102, Control_c, 0, 64, 78
1, 695116, Control_c, 0, 64, 47
1, 695118, Note_off_c, 0, 89, 64
1, 695131, Control_c, 0, 64, 0
1, 695250, Note_on_c, 0, 61, 88
1, 695253, Note_on_c, 0, 69, 88
1, 695254, Note_on_c, 0, 65, 80
1, 695254, Note_on_c, 0, 93, 104
1, 695255, Note_on_c, 0, 81, 108
1, 695258, Note_on_c, 0, 85, 95
1, 695260, Note_on_c, 0, 89, 88
1, 695264, Control_c, 0, 64, 65
1, 695275, Note_off_c, 0, 65, 72
1, 695275, Note_off_c, 0, 69, 66
1, 695275, Note_off_c, 0, 85, 74
1, 695279, Control_c, 0, 64, 127
1, 695285, Note_off_c, 0, 81, 69
1, 695287, Note_off_c, 0, 61, 65
1, 695288, Note_off_c, 0, 89, 62
1, 695289, Note_off_c, 0, 93, 64
1, 695422, Note_on_c, 0, 68, 38
1, 695431, Note_on_c, 0, 80, 22
1, 695450, Note_off_c, 0, 68, 54
1, 695472, Note_off_c, 0, 80, 41
1, 695553, Note_on_c, 0, 81, 94
1, 695553, Note_on_c, 0, 85, 91
1, 695556, Note_on_c, 0, 77, 87
1, 695562, Note_on_c, 0, 69, 83
1, 695565, Note_on_c, 0, 61, 80
1, 695574, Note_off_c, 0, 77, 74
1, 695591, Note_off_c, 0, 81, 67
1, 695602, Note_off_c, 0, 61, 60
1, 695625, Note_on_c, 0, 89, 101
1, 695629, Note_on_c, 0, 73, 103
1, 695644, Note_off_c, 0, 85, 66
1, 695658, Control_c, 0, 64, 101
1, 695663, Note_off_c, 0, 89, 67
1, 695666, Note_off_c, 0, 69, 59
1, 695672, Control_c, 0, 64, 65
1, 695676, Note_off_c, 0, 73, 65
1, 695687, Control_c, 0, 64, 0
1, 695863, Note_on_c, 0, 74, 106
1, 695863, Note_on_c, 0, 69, 94
1, 695864, Note_on_c, 0, 86, 105
1, 695864, Note_on_c, 0, 98, 98
1, 695865, Note_on_c, 0, 62, 80
1, 695866, Note_on_c, 0, 93, 99
1, 695880, Control_c, 0, 64, 33
1, 695881, Note_on_c, 0, 92, 69
1, 695881, Note_off_c, 0, 92, 127
1, 695881, Note_off_c, 0, 74, 71
1, 695883, Note_on_c, 0, 95, 64
1, 695883, Note_off_c, 0, 95, 127
1, 695884, Note_off_c, 0, 93, 66
1, 695887, Note_off_c, 0, 86, 70
1, 695890, Note_off_c, 0, 62, 69
1, 695890, Note_off_c, 0, 69, 68
1, 695895, Control_c, 0, 64, 127
1, 695899, Note_off_c, 0, 98, 68
1, 695977, Poly_aftertouch_c, 0, 66, 0
1, 696134, Note_on_c, 0, 68, 80
1, 696137, Note_on_c, 0, 56, 81
1, 696137, Note_on_c, 0, 92, 88
1, 696144, Note_on_c, 0, 80, 84
1, 696155, Note_off_c, 0, 68, 69
1, 696159, Note_off_c, 0, 56, 68
1, 696162, Note_off_c, 0, 80, 73
1, 696174, Note_off_c, 0, 92, 63
1, 696177, Control_c, 0, 64, 105
1, 696192, Control_c, 0, 64, 67
1, 696206, Control_c, 0, 64, 0
1, 696213, Note_on_c, 0, 93, 105
1, 696215, Note_on_c, 0, 81, 99
1, 696215, Note_on_c, 0, 69, 87
1, 696216, Note_on_c, 0, 57, 93
1, 696228, Note_on_c, 0, 92, 57
1, 696233, Note_off_c, 0, 69, 72
1, 696238, Note_off_c, 0, 57, 73
1, 696243, Note_off_c, 0, 81, 69
1, 696244, Note_off_c, 0, 93, 67
1, 696249, Note_off_c, 0, 92, 60
1, 696405, Note_on_c, 0, 62, 86
1, 696406, Note_on_c, 0, 50, 89
1, 696409, Note_on_c, 0, 86, 96
1, 696410, Note_on_c, 0, 74, 104
1, 696423, Control_c, 0, 64, 66
1, 696425, Note_off_c, 0, 62, 72
1, 696428, Note_off_c, 0, 50, 71
1, 696430, Note_off_c, 0, 74, 71
1, 696433, Note_off_c, 0, 86, 69
1, 696438, Control_c, 0, 64, 127
1, 696661, Note_on_c, 0, 80, 81
1, 696663, Note_on_c, 0, 56, 91
1, 696663, Note_on_c, 0, 68, 83
1, 696669, Note_on_c, 0, 44, 80
1, 696682, Note_off_c, 0, 80, 69
1, 696683, Note_off_c, 0, 68, 72
1, 696684, Note_off_c, 0, 56, 73
1, 696694, Note_off_c, 0, 44, 66
1, 696704, Control_c, 0, 64, 82
1, 696718, Control_c, 0, 64, 53
1, 696729, Note_on_c, 0, 81, 99
1, 696730, Note_on_c, 0, 69, 103
1, 696733, Control_c, 0, 64, 0
1, 696736, Note_on_c, 0, 57, 82
1, 696738, Note_on_c, 0, 45, 92
1, 696757, Note_off_c, 0, 69, 69
1, 696757, Note_off_c, 0, 57, 69
1, 696758, Note_off_c, 0, 81, 67
1, 696760, Note_off_c, 0, 45, 71
1, 696914, Note_on_c, 0, 62, 104
1, 696915, Note_on_c, 0, 74, 106
1, 696917, Note_on_c, 0, 38, 88
1, 696924, Note_on_c, 0, 52, 79
1, 696924, Note_on_c, 0, 50, 68
1, 696926, Control_c, 0, 64, 50
1, 696930, Note_off_c, 0, 74, 75
1, 696931, Note_off_c, 0, 62, 73
1, 696936, Note_on_c, 0, 40, 58
1, 696941, Control_c, 0, 64, 88
1, 696942, Note_off_c, 0, 38, 66
1, 696942, Note_off_c, 0, 52, 67
1, 696955, Note_off_c, 0, 50, 65
1, 696956, Control_c, 0, 64, 127
1, 696964, Note_off_c, 0, 40, 35
1, 697172, Control_c, 0, 64, 111
1, 697186, Control_c, 0, 64, 70
1, 697201, Control_c, 0, 64, 35
1, 697216, Control_c, 0, 64, 0
1, 697231, Control_c, 0, 67, 45
1, 697246, Control_c, 0, 67, 69
1, 697260, Control_c, 0, 67, 82
1, 697275, Control_c, 0, 67, 82
1, 697290, Control_c, 0, 67, 83
1, 697305, Control_c, 0, 67, 85
1, 697319, Control_c, 0, 67, 91
1, 697334, Control_c, 0, 67, 115
1, 697349, Control_c, 0, 67, 127
1, 697502, Note_on_c, 0, 53, 73
1, 697503, Note_on_c, 0, 62, 65
1, 697508, Note_on_c, 0, 65, 57
1, 697511, Note_on_c, 0, 45, 65
1, 697511, Note_on_c, 0, 50, 59
1, 697513, Note_on_c, 0, 38, 58
1, 697526, Note_off_c, 0, 53, 68
1, 697532, Note_off_c, 0, 62, 64
1, 697535, Note_off_c, 0, 45, 62
1, 697535, Note_off_c, 0, 50, 61
1, 697537, Note_off_c, 0, 65, 64
1, 697541, Note_off_c, 0, 38, 57
1, 697739, Note_on_c, 0, 42, 54
1, 697768, Note_on_c, 0, 54, 65
1, 697777, Note_on_c, 0, 45, 63
1, 697777, Note_off_c, 0, 42, 64
1, 697794, Note_on_c, 0, 57, 53
1, 697806, Note_off_c, 0, 54, 62
1, 697807, Note_on_c, 0, 37, 72
1, 697814, Note_off_c, 0, 45, 66
1, 697817, Note_off_c, 0, 57, 63
1, 697824, Note_on_c, 0, 49, 60
1, 697825, Note_on_c, 0, 61, 59
1, 697831, Note_off_c, 0, 37, 68
1, 697851, Note_off_c, 0, 49, 63
1, 697854, Note_off_c, 0, 61, 65
1, 697988, Note_on_c, 0, 53, 71
1, 697988, Note_on_c, 0, 65, 67
1, 697991, Note_on_c, 0, 60, 65
1, 697995, Note_on_c, 0, 44, 59
1, 697996, Note_on_c, 0, 36, 68
1, 698003, Note_on_c, 0, 48, 57
1, 698012, Note_off_c, 0, 53, 68
1, 698018, Note_off_c, 0, 65, 64
1, 698019, Note_off_c, 0, 44, 59
1, 698020, Note_off_c, 0, 60, 67
1, 698026, Note_off_c, 0, 36, 64
1, 698033, Note_off_c, 0, 48, 56
1, 698188, Note_on_c, 0, 40, 57
1, 698199, Note_on_c, 0, 52, 55
1, 698214, Note_on_c, 0, 55, 65
1, 698226, Note_off_c, 0, 52, 57
1, 698227, Note_on_c, 0, 43, 58
1, 698239, Note_off_c, 0, 40, 59
1, 698247, Note_off_c, 0, 55, 63
1, 698250, Note_on_c, 0, 59, 77
1, 698251, Note_on_c, 0, 35, 59
1, 698252, Note_on_c, 0, 47, 69
1, 698253, Note_off_c, 0, 43, 60
1, 698279, Note_off_c, 0, 35, 62
1, 698279, Note_off_c, 0, 59, 65
1, 698280, Note_off_c, 0, 47, 65
1, 698405, Note_on_c, 0, 34, 71
1, 698409, Note_on_c, 0, 58, 77
1, 698415, Note_on_c, 0, 42, 50
1, 698416, Note_on_c, 0, 65, 68
1, 698418, Note_on_c, 0, 53, 68
1, 698434, Note_off_c, 0, 34, 64
1, 698435, Note_on_c, 0, 46, 31
1, 698435, Note_off_c, 0, 58, 67
1, 698436, Note_off_c, 0, 65, 66
1, 698444, Note_on_c, 0, 39, 8
1, 698447, Note_off_c, 0, 42, 54
1, 698447, Note_off_c, 0, 53, 64
1, 698483, Note_off_c, 0, 46, 28
1, 698495, Note_off_c, 0, 39, 41
1, 698603, Note_on_c, 0, 38, 68
1, 698646, Note_on_c, 0, 50, 27
1, 698647, Note_on_c, 0, 53, 57
1, 698650, Note_on_c, 0, 41, 69
1, 698667, Note_off_c, 0, 38, 62
1, 698680, Note_off_c, 0, 53, 64
1, 698682, Note_on_c, 0, 57, 74
1, 698682, Note_off_c, 0, 41, 65
1, 698687, Note_on_c, 0, 33, 56
1, 698695, Note_off_c, 0, 50, 29
1, 698700, Note_on_c, 0, 45, 50
1, 698707, Note_off_c, 0, 57, 67
1, 698717, Note_off_c, 0, 33, 53
1, 698731, Note_off_c, 0, 45, 52
1, 698834, Note_on_c, 0, 33, 56
1, 698835, Note_on_c, 0, 61, 76
1, 698841, Note_on_c, 0, 52, 76
1, 698847, Note_on_c, 0, 45, 58
1, 698857, Note_on_c, 0, 40, 41
1, 698862, Note_on_c, 0, 64, 31
1, 698862, Note_off_c, 0, 61, 69
1, 698866, Note_off_c, 0, 52, 66
1, 698869, Note_off_c, 0, 33, 62
1, 698871, Note_off_c, 0, 45, 60
1, 698891, Note_off_c, 0, 40, 50
1, 698898, Note_off_c, 0, 64, 32
1, 699027, Note_on_c, 0, 37, 61
1, 699059, Note_on_c, 0, 49, 50
1, 699073, Note_on_c, 0, 41, 72
1, 699074, Note_on_c, 0, 53, 50
1, 699085, Note_on_c, 0, 56, 75
1, 699085, Note_off_c, 0, 49, 57
1, 699088, Note_on_c, 0, 32, 79
1, 699094, Note_on_c, 0, 44, 73
1, 699100, Note_off_c, 0, 37, 65
1, 699100, Note_off_c, 0, 53, 57
1, 699106, Note_off_c, 0, 41, 64
1, 699119, Note_off_c, 0, 44, 66
1, 699120, Note_off_c, 0, 32, 62
1, 699141, Note_off_c, 0, 56, 62
1, 699238, Note_on_c, 0, 64, 60
1, 699241, Note_on_c, 0, 60, 58
1, 699243, Note_on_c, 0, 31, 66
1, 699243, Note_on_c, 0, 43, 70
1, 699255, Note_on_c, 0, 52, 49
1, 699258, Note_off_c, 0, 64, 64
1, 699260, Note_on_c, 0, 40, 40
1, 699261, Note_off_c, 0, 60, 65
1, 699273, Note_off_c, 0, 43, 65
1, 699276, Note_off_c, 0, 31, 64
1, 699282, Note_off_c, 0, 52, 57
1, 699294, Note_off_c, 0, 40, 53
1, 699447, Note_on_c, 0, 35, 54
1, 699466, Note_on_c, 0, 47, 66
1, 699479, Note_on_c, 0, 39, 79
1, 699487, Note_on_c, 0, 51, 67
1, 699498, Note_off_c, 0, 35, 63
1, 699498, Note_off_c, 0, 47, 62
1, 699502, Note_on_c, 0, 30, 84
1, 699514, Note_on_c, 0, 54, 68
1, 699519, Note_on_c, 0, 42, 73
1, 699522, Note_off_c, 0, 51, 65
1, 699529, Note_off_c, 0, 39, 63
1, 699536, Note_off_c, 0, 30, 66
1, 699543, Note_off_c, 0, 42, 67
1, 699549, Note_off_c, 0, 54, 66
1, 699661, Note_on_c, 0, 61, 68
1, 699670, Note_on_c, 0, 41, 74
1, 699670, Note_on_c, 0, 64, 52
1, 699675, Note_on_c, 0, 29, 64
1, 699681, Note_on_c, 0, 57, 41
1, 699682, Note_on_c, 0, 53, 46
1, 699690, Note_on_c, 0, 37, 41
1, 699690, Note_off_c, 0, 61, 66
1, 699694, Note_off_c, 0, 64, 59
1, 699701, Note_off_c, 0, 41, 66
1, 699705, Note_off_c, 0, 29, 59
1, 699707, Note_off_c, 0, 57, 37
1, 699717, Note_off_c, 0, 53, 33
1, 699729, Note_off_c, 0, 37, 31
1, 699853, Note_on_c, 0, 33, 63
1, 699890, Note_on_c, 0, 37, 73
1, 699890, Note_on_c, 0, 49, 66
1, 699903, Note_on_c, 0, 28, 76
1, 699922, Note_off_c, 0, 33, 59
1, 699923, Note_off_c, 0, 49, 66
1, 699924, Note_on_c, 0, 52, 76
1, 699928, Note_on_c, 0, 40, 72
1, 699931, Note_off_c, 0, 28, 64
1, 699941, Note_off_c, 0, 37, 61
1, 699950, Note_off_c, 0, 52, 67
1, 699954, Note_off_c, 0, 40, 65
1, 700039, Control_c, 0, 67, 101
1, 700054, Control_c, 0, 67, 65
1, 700069, Control_c, 0, 67, 58
1, 700080, Note_on_c, 0, 65, 66
1, 700081, Note_on_c, 0, 38, 68
1, 700081, Note_on_c, 0, 45, 61
1, 700084, Note_on_c, 0, 53, 65
1, 700084, Control_c, 0, 67, 59
1, 700092, Note_on_c, 0, 50, 55
1, 700099, Control_c, 0, 67, 59
1, 700101, Note_on_c, 0, 62, 39
1, 700102, Note_off_c, 0, 62, 47
1, 700104, Note_off_c, 0, 65, 68
1, 700105, Note_off_c, 0, 53, 63
1, 700106, Note_off_c, 0, 45, 61
1, 700112, Note_off_c, 0, 38, 63
1, 700117, Note_off_c, 0, 50, 59
1, 700166, Control_c, 0, 67, 61
1, 700181, Control_c, 0, 67, 62
1, 700210, Control_c, 0, 67, 62
1, 700225, Control_c, 0, 67, 66
1, 700239, Control_c, 0, 67, 68
1, 700274, Note_on_c, 0, 42, 63
1, 700300, Note_on_c, 0, 54, 53
1, 700300, Control_c, 0, 67, 68
1, 700315, Control_c, 0, 67, 71
1, 700330, Control_c, 0, 67, 72
1, 700331, Note_off_c, 0, 54, 58
1, 700334, Note_on_c, 0, 45, 50
1, 700334, Note_on_c, 0, 37, 79
1, 700336, Note_on_c, 0, 61, 78
1, 700337, Note_on_c, 0, 57, 40
1, 700344, Control_c, 0, 67, 73
1, 700349, Note_on_c, 0, 49, 75
1, 700356, Note_off_c, 0, 42, 61
1, 700359, Control_c, 0, 67, 74
1, 700364, Note_off_c, 0, 45, 64
1, 700368, Note_off_c, 0, 57, 51
1, 700369, Note_off_c, 0, 37, 67
1, 700373, Note_off_c, 0, 49, 67
1, 700374, Control_c, 0, 67, 74
1, 700387, Note_off_c, 0, 61, 66
1, 700404, Control_c, 0, 67, 73
1, 700418, Control_c, 0, 67, 71
1, 700433, Control_c, 0, 67, 69
1, 700477, Control_c, 0, 67, 69
1, 700488, Note_on_c, 0, 65, 70
1, 700491, Note_on_c, 0, 44, 70
1, 700492, Control_c, 0, 67, 68
1, 700495, Note_on_c, 0, 60, 61
1, 700497, Note_on_c, 0, 53, 69
1, 700498, Note_on_c, 0, 48, 77
1, 700510, Note_on_c, 0, 36, 50
1, 700518, Note_off_c, 0, 44, 65
1, 700522, Note_on_c, 0, 35, 43
1, 700524, Note_off_c, 0, 48, 65
1, 700524, Note_off_c, 0, 60, 67
1, 700525, Note_off_c, 0, 53, 66
1, 700528, Note_off_c, 0, 65, 60
1, 700540, Note_off_c, 0, 36, 57
1, 700558, Note_off_c, 0, 35, 49
1, 700597, Control_c, 0, 67, 69
1, 700626, Control_c, 0, 67, 68
1, 700641, Control_c, 0, 67, 65
1, 700655, Control_c, 0, 67, 61
1, 700670, Note_on_c, 0, 40, 70
1, 700670, Control_c, 0, 67, 55
1, 700678, Note_on_c, 0, 52, 63
1, 700685, Control_c, 0, 67, 48
1, 700691, Note_on_c, 0, 55, 65
1, 700694, Note_on_c, 0, 43, 75
1, 700700, Control_c, 0, 67, 0
1, 700709, Note_off_c, 0, 52, 64
1, 700713, Note_on_c, 0, 35, 66
1, 700722, Note_on_c, 0, 59, 79
1, 700731, Note_off_c, 0, 55, 61
1, 700741, Note_off_c, 0, 40, 60
1, 700743, Note_on_c, 0, 47, 69
1, 700751, Note_off_c, 0, 43, 62
1, 700752, Note_off_c, 0, 35, 67
1, 700769, Note_off_c, 0, 47, 65
1, 700770, Note_off_c, 0, 59, 63
1, 700849, Note_on_c, 0, 58, 93
1, 700851, Note_on_c, 0, 65, 89
1, 700852, Note_on_c, 0, 53, 88
1, 700853, Note_on_c, 0, 42, 79
1, 700862, Note_on_c, 0, 34, 70
1, 700862, Note_on_c, 0, 39, 68
1, 700862, Note_on_c, 0, 46, 66
1, 700874, Note_off_c, 0, 53, 69
1, 700885, Note_off_c, 0, 42, 67
1, 700894, Note_off_c, 0, 46, 60
1, 700894, Note_off_c, 0, 65, 63
1, 700895, Note_off_c, 0, 58, 61
1, 700897, Note_off_c, 0, 34, 58
1, 700899, Note_off_c, 0, 39, 65
1, 700985, Note_on_c, 0, 57, 92
1, 700996, Note_on_c, 0, 45, 79
1, 700999, Note_on_c, 0, 33, 73
1, 701016, Note_off_c, 0, 57, 66
1, 701023, Note_off_c, 0, 45, 65
1, 701029, Note_off_c, 0, 33, 64
1, 701111, Note_on_c, 0, 56, 99
1, 701121, Note_on_c, 0, 44, 77
1, 701127, Note_on_c, 0, 32, 76
1, 701150, Note_off_c, 0, 56, 66
1, 701151, Note_off_c, 0, 44, 67
1, 701156, Note_off_c, 0, 32, 63
1, 701241, Note_on_c, 0, 60, 92
1, 701241, Note_on_c, 0, 67, 87
1, 701243, Note_on_c, 0, 64, 87
1, 701245, Note_on_c, 0, 40, 79
1, 701245, Note_on_c, 0, 55, 94
1, 701246, Note_on_c, 0, 31, 76
1, 701246, Note_on_c, 0, 43, 79
1, 701262, Note_off_c, 0, 67, 65
1, 701263, Note_off_c, 0, 55, 71
1, 701265, Note_off_c, 0, 60, 67
1, 701266, Note_off_c, 0, 64, 70
1, 701267, Note_on_c, 0, 63, 43
1, 701267, Note_off_c, 0, 63, 127
1, 701270, Note_off_c, 0, 40, 66
1, 701270, Note_off_c, 0, 43, 66
1, 701275, Note_off_c, 0, 31, 64
1, 701455, Note_on_c, 0, 47, 68
1, 701476, Note_on_c, 0, 35, 35
1, 701485, Note_on_c, 0, 39, 78
1, 701494, Note_on_c, 0, 51, 73
1, 701497, Note_off_c, 0, 47, 58
1, 701508, Control_c, 0, 67, 54
1, 701509, Note_on_c, 0, 30, 77
1, 701511, Note_off_c, 0, 35, 51
1, 701523, Control_c, 0, 67, 84
1, 701524, Note_on_c, 0, 42, 69
1, 701524, Note_on_c, 0, 54, 72
1, 701524, Note_off_c, 0, 39, 65
1, 701526, Note_off_c, 0, 51, 67
1, 701538, Control_c, 0, 67, 114
1, 701545, Note_off_c, 0, 30, 65
1, 701550, Note_off_c, 0, 42, 65
1, 701550, Note_off_c, 0, 54, 66
1, 701552, Control_c, 0, 67, 127
1, 701680, Note_on_c, 0, 67, 66
1, 701682, Note_on_c, 0, 60, 66
1, 701690, Note_on_c, 0, 41, 67
1, 701690, Note_on_c, 0, 55, 61
1, 701691, Note_on_c, 0, 29, 67
1, 701701, Note_off_c, 0, 60, 65
1, 701705, Note_off_c, 0, 67, 67
1, 701715, Note_off_c, 0, 55, 59
1, 701720, Note_off_c, 0, 41, 65
1, 701724, Note_off_c, 0, 29, 64
1, 701871, Note_on_c, 0, 33, 60
1, 701914, Note_on_c, 0, 37, 60
1, 701914, Note_on_c, 0, 49, 59
1, 701929, Note_on_c, 0, 45, 15
1, 701929, Note_off_c, 0, 45, 127
1, 701932, Note_off_c, 0, 33, 55
1, 701943, Note_on_c, 0, 28, 70
1, 701943, Note_off_c, 0, 49, 65
1, 701944, Note_on_c, 0, 52, 73
1, 701946, Note_off_c, 0, 37, 63
1, 701948, Note_on_c, 0, 40, 69
1, 701971, Note_off_c, 0, 52, 66
1, 701975, Note_off_c, 0, 28, 64
1, 701977, Note_off_c, 0, 40, 64
1, 702080, Note_on_c, 0, 33, 51
1, 702084, Note_on_c, 0, 67, 59
1, 702085, Note_on_c, 0, 55, 57
1, 702086, Note_on_c, 0, 26, 41
1, 702101, Note_on_c, 0, 38, 31
1, 702104, Note_off_c, 0, 67, 62
1, 702108, Note_off_c, 0, 55, 59
1, 702114, Note_off_c, 0, 33, 52
1, 702122, Note_off_c, 0, 26, 54
1, 702142, Note_off_c, 0, 38, 30
1, 702219, Note_on_c, 0, 25, 53
1, 702224, Note_on_c, 0, 37, 51
1, 702236, Note_on_c, 0, 49, 53
1, 702249, Note_off_c, 0, 25, 53
1, 702254, Note_off_c, 0, 37, 57
1, 702262, Note_off_c, 0, 49, 58
1, 702332, Note_on_c, 0, 24, 67
1, 702332, Note_on_c, 0, 36, 69
1, 702348, Note_on_c, 0, 48, 67
1, 702361, Note_off_c, 0, 36, 64
1, 702364, Note_off_c, 0, 24, 63
1, 702372, Note_off_c, 0, 48, 60
1, 702499, Note_on_c, 0, 41, 84
1, 702499, Note_on_c, 0, 48, 87
1, 702501, Note_on_c, 0, 57, 84
1, 702501, Control_c, 0, 67, 118
1, 702501, Note_on_c, 0, 53, 82
1, 702502, Note_on_c, 0, 69, 88
1, 702503, Note_on_c, 0, 60, 82
1, 702507, Note_on_c, 0, 65, 69
1, 702519, Note_off_c, 0, 60, 68
1, 702521, Note_off_c, 0, 48, 66
1, 702524, Note_off_c, 0, 53, 70
1, 702525, Note_off_c, 0, 41, 67
1, 702525, Note_off_c, 0, 57, 69
1, 702530, Note_off_c, 0, 65, 69
1, 702531, Control_c, 0, 67, 113
1, 702534, Note_off_c, 0, 69, 63
1, 702546, Control_c, 0, 67, 98
1, 702561, Control_c, 0, 67, 68
1, 702576, Control_c, 0, 67, 48
1, 702590, Control_c, 0, 67, 39
1, 702605, Control_c, 0, 67, 37
1, 702650, Control_c, 0, 67, 35
1, 702665, Control_c, 0, 67, 0
1, 702697, Note_on_c, 0, 44, 73
1, 702719, Note_on_c, 0, 56, 59
1, 702722, Note_on_c, 0, 49, 71
1, 702732, Note_on_c, 0, 61, 65
1, 702738, Note_on_c, 0, 43, 64
1, 702748, Note_on_c, 0, 64, 85
1, 702750, Note_off_c, 0, 49, 63
1, 702756, Note_off_c, 0, 56, 52
1, 702760, Note_on_c, 0, 48, 75
1, 702764, Note_on_c, 0, 38, 58
1, 702768, Note_on_c, 0, 40, 41
1, 702770, Note_on_c, 0, 52, 74
1, 702779, Note_off_c, 0, 43, 66
1, 702779, Note_on_c, 0, 50, 57
1, 702783, Note_off_c, 0, 61, 62
1, 702788, Note_off_c, 0, 48, 65
1, 702788, Note_off_c, 0, 44, 55
1, 702794, Note_off_c, 0, 38, 54
1, 702796, Note_off_c, 0, 52, 66
1, 702800, Note_off_c, 0, 64, 68
1, 702803, Note_off_c, 0, 40, 44
1, 702805, Note_off_c, 0, 50, 59
1, 702898, Note_on_c, 0, 48, 85
1, 702898, Note_on_c, 0, 49, 44
1, 702898, Note_on_c, 0, 51, 93
1, 702901, Note_on_c, 0, 69, 91
1, 702901, Note_on_c, 0, 40, 71
1, 702901, Note_on_c, 0, 55, 103
1, 702902, Note_on_c, 0, 43, 72
1, 702905, Note_on_c, 0, 63, 86
1, 702919, Note_on_c, 0, 60, 57
1, 702921, Note_off_c, 0, 51, 71
1, 702926, Note_off_c, 0, 55, 64
1, 702928, Note_off_c, 0, 40, 64
1, 702929, Note_off_c, 0, 48, 65
1, 702931, Note_off_c, 0, 49, 56
1, 702934, Note_off_c, 0, 43, 62
1, 702935, Note_off_c, 0, 63, 63
1, 702937, Note_off_c, 0, 69, 62
1, 702940, Note_off_c, 0, 60, 62
1, 703110, Note_on_c, 0, 38, 73
1, 703115, Note_on_c, 0, 42, 80
1, 703142, Note_on_c, 0, 54, 67
1, 703153, Note_on_c, 0, 45, 81
1, 703156, Note_on_c, 0, 57, 63
1, 703175, Note_on_c, 0, 50, 98
1, 703181, Note_on_c, 0, 62, 87
1, 703182, Note_off_c, 0, 54, 60
1, 703192, Note_off_c, 0, 38, 60
1, 703205, Note_on_c, 0, 56, 11
1, 703205, Note_off_c, 0, 56, 127
1, 703206, Note_off_c, 0, 42, 65
1, 703210, Note_on_c, 0, 61, 45
1, 703210, Note_off_c, 0, 57, 65
1, 703213, Note_off_c, 0, 45, 64
1, 703215, Note_off_c, 0, 50, 67
1, 703230, Note_off_c, 0, 62, 66
1, 703242, Note_off_c, 0, 61, 35
1, 703393, Note_on_c, 0, 39, 49
1, 703425, Note_off_c, 0, 39, 60
1, 703514, Note_on_c, 0, 42, 83
1, 703515, Note_on_c, 0, 48, 95
1, 703520, Note_on_c, 0, 57, 87
1, 703521, Note_on_c, 0, 38, 72
1, 703521, Note_on_c, 0, 63, 85
1, 703521, Note_on_c, 0, 69, 89
1, 703526, Note_on_c, 0, 36, 68
1, 703529, Note_on_c, 0, 60, 78
1, 703562, Note_off_c, 0, 48, 62
1, 703563, Note_off_c, 0, 36, 67
1, 703575, Note_off_c, 0, 42, 64
1, 703580, Note_off_c, 0, 57, 53
1, 703583, Note_off_c, 0, 38, 60
1, 703592, Note_off_c, 0, 60, 62
1, 703669, Note_on_c, 0, 35, 96
1, 703670, Note_on_c, 0, 47, 102
1, 703673, Note_on_c, 0, 59, 101
1, 703682, Note_off_c, 0, 69, 59
1, 703700, Note_off_c, 0, 35, 66
1, 703704, Note_off_c, 0, 63, 64
1, 703713, Note_off_c, 0, 47, 64
1, 703724, Note_off_c, 0, 59, 65
1, 703815, Note_on_c, 0, 47, 91
1, 703816, Note_on_c, 0, 63, 66
1, 703819, Note_on_c, 0, 40, 85
1, 703819, Note_on_c, 0, 68, 80
1, 703822, Note_on_c, 0, 52, 81
1, 703822, Note_on_c, 0, 56, 96
1, 703824, Note_on_c, 0, 64, 89
1, 703838, Note_off_c, 0, 47, 70
1, 703841, Note_off_c, 0, 56, 74
1, 703842, Note_off_c, 0, 63, 54
1, 703846, Note_off_c, 0, 52, 68
1, 703847, Note_off_c, 0, 40, 66
1, 703854, Note_off_c, 0, 64, 59
1, 703866, Note_off_c, 0, 68, 59
1, 703891, Note_on_c, 0, 50, 7
1, 703891, Note_off_c, 0, 50, 127
1, 704051, Note_on_c, 0, 55, 53
1, 704062, Note_on_c, 0, 39, 80
1, 704064, Note_on_c, 0, 46, 71
1, 704069, Note_on_c, 0, 43, 13
1, 704075, Note_on_c, 0, 58, 70
1, 704082, Note_off_c, 0, 55, 61
1, 704099, Note_on_c, 0, 63, 69
1, 704105, Note_off_c, 0, 46, 62
1, 704105, Note_on_c, 0, 51, 68
1, 704114, Note_off_c, 0, 58, 62
1, 704118, Note_off_c, 0, 43, 27
1, 704119, Note_off_c, 0, 39, 61
1, 704132, Note_off_c, 0, 51, 65
1, 704132, Control_c, 0, 67, 45
1, 704136, Note_off_c, 0, 63, 61
1, 704147, Control_c, 0, 67, 89
1, 704162, Control_c, 0, 67, 123
1, 704177, Control_c, 0, 67, 127
1, 704242, Note_on_c, 0, 38, 75
1, 704242, Note_on_c, 0, 67, 76
1, 704248, Note_on_c, 0, 46, 71
1, 704255, Note_on_c, 0, 53, 63
1, 704257, Note_on_c, 0, 62, 58
1, 704258, Note_on_c, 0, 50, 60
1, 704262, Note_on_c, 0, 58, 57
1, 704275, Note_off_c, 0, 46, 65
1, 704277, Note_off_c, 0, 53, 62
1, 704281, Note_off_c, 0, 62, 64
1, 704285, Note_off_c, 0, 38, 63
1, 704285, Note_off_c, 0, 58, 59
1, 704287, Note_off_c, 0, 67, 62
1, 704289, Note_off_c, 0, 50, 66
1, 704444, Note_on_c, 0, 39, 42
1, 704469, Note_on_c, 0, 51, 79
1, 704498, Note_on_c, 0, 55, 54
1, 704498, Note_off_c, 0, 51, 65
1, 704502, Note_on_c, 0, 43, 53
1, 704510, Note_on_c, 0, 36, 58
1, 704514, Note_on_c, 0, 60, 70
1, 704518, Control_c, 0, 64, 42
1, 704523, Note_off_c, 0, 55, 59
1, 704533, Control_c, 0, 64, 44
1, 704534, Note_off_c, 0, 43, 63
1, 704539, Note_off_c, 0, 39, 62
1, 704540, Note_off_c, 0, 36, 53
1, 704548, Note_off_c, 0, 60, 68
1, 704548, Control_c, 0, 64, 43
1, 704577, Control_c, 0, 64, 44
1, 704592, Control_c, 0, 64, 44
1, 704629, Control_c, 0, 64, 43
1, 704644, Control_c, 0, 64, 40
1, 704659, Control_c, 0, 64, 38
1, 704674, Control_c, 0, 64, 37
1, 704689, Control_c, 0, 64, 36
1, 704703, Control_c, 0, 64, 32
1, 704718, Control_c, 0, 64, 0
1, 704808, Note_on_c, 0, 61, 67
1, 704810, Note_on_c, 0, 46, 64
1, 704814, Note_on_c, 0, 55, 58
1, 704815, Note_on_c, 0, 40, 59
1, 704815, Note_on_c, 0, 67, 63
1, 704821, Note_on_c, 0, 34, 43
1, 704822, Control_c, 0, 64, 31
1, 704836, Note_off_c, 0, 46, 65
1, 704836, Control_c, 0, 64, 33
1, 704840, Note_on_c, 0, 58, 20
1, 704844, Note_on_c, 0, 33, 38
1, 704845, Note_off_c, 0, 58, 40
1, 704846, Note_off_c, 0, 40, 62
1, 704851, Note_off_c, 0, 55, 56
1, 704851, Control_c, 0, 64, 36
1, 704858, Note_off_c, 0, 34, 53
1, 704866, Control_c, 0, 64, 36
1, 704881, Control_c, 0, 64, 36
1, 704886, Note_off_c, 0, 33, 49
1, 704896, Control_c, 0, 64, 35
1, 704925, Control_c, 0, 64, 36
1, 704940, Control_c, 0, 64, 36
1, 704955, Note_on_c, 0, 45, 69
1, 704956, Note_off_c, 0, 67, 39
1, 704961, Note_on_c, 0, 57, 65
1, 704971, Note_on_c, 0, 33, 50
1, 704983, Note_off_c, 0, 45, 65
1, 704987, Note_off_c, 0, 61, 61
1, 704988, Note_off_c, 0, 57, 66
1, 705005, Note_off_c, 0, 33, 53
1, 705128, Note_on_c, 0, 66, 73
1, 705128, Note_on_c, 0, 38, 60
1, 705131, Note_on_c, 0, 54, 70
1, 705133, Note_on_c, 0, 45, 55
1, 705136, Note_on_c, 0, 62, 62
1, 705142, Note_on_c, 0, 50, 49
1, 705148, Control_c, 0, 64, 37
1, 705155, Note_off_c, 0, 38, 58
1, 705157, Note_off_c, 0, 54, 67
1, 705160, Note_off_c, 0, 45, 53
1, 705163, Note_off_c, 0, 62, 66
1, 705163, Control_c, 0, 64, 37
1, 705168, Note_off_c, 0, 66, 63
1, 705172, Note_off_c, 0, 50, 56
1, 705251, Control_c, 0, 64, 37
1, 705266, Control_c, 0, 64, 36
1, 705281, Control_c, 0, 64, 36
1, 705318, Note_on_c, 0, 41, 57
1, 705331, Note_on_c, 0, 53, 53
1, 705337, Note_on_c, 0, 46, 74
1, 705357, Note_on_c, 0, 58, 58
1, 705377, Note_on_c, 0, 49, 78
1, 705388, Note_off_c, 0, 41, 54
1, 705396, Note_off_c, 0, 53, 47
1, 705401, Note_off_c, 0, 46, 63
1, 705403, Note_on_c, 0, 61, 72
1, 705404, Note_off_c, 0, 49, 68
1, 705413, Note_off_c, 0, 58, 62
1, 705437, Note_off_c, 0, 61, 63
1, 705437, Control_c, 0, 64, 35
1, 705451, Control_c, 0, 64, 33
1, 705466, Control_c, 0, 64, 30
1, 705496, Control_c, 0, 64, 0
1, 705558, Note_on_c, 0, 38, 69
1, 705561, Note_on_c, 0, 65, 70
1, 705565, Note_on_c, 0, 50, 63
1, 705569, Note_on_c, 0, 53, 55
1, 705570, Control_c, 0, 67, 124
1, 705571, Note_on_c, 0, 62, 50
1, 705584, Control_c, 0, 67, 121
1, 705587, Note_off_c, 0, 38, 64
1, 705590, Note_off_c, 0, 50, 63
1, 705595, Note_off_c, 0, 53, 59
1, 705597, Note_off_c, 0, 62, 57
1, 705599, Control_c, 0, 67, 119
1, 705601, Note_off_c, 0, 65, 65
1, 705644, Control_c, 0, 67, 121
1, 705658, Control_c, 0, 67, 123
1, 705719, Control_c, 0, 67, 126
1, 705726, Note_on_c, 0, 42, 71
1, 705741, Note_on_c, 0, 66, 70
1, 705750, Note_on_c, 0, 46, 68
1, 705759, Note_on_c, 0, 70, 79
1, 705767, Note_off_c, 0, 66, 67
1, 705790, Note_on_c, 0, 51, 93
1, 705793, Note_on_c, 0, 39, 80
1, 705795, Note_off_c, 0, 42, 58
1, 705798, Note_on_c, 0, 75, 84
1, 705801, Note_on_c, 0, 63, 92
1, 705816, Note_off_c, 0, 70, 63
1, 705818, Note_off_c, 0, 46, 62
1, 705818, Note_off_c, 0, 51, 65
1, 705822, Note_off_c, 0, 75, 68
1, 705823, Note_off_c, 0, 63, 69
1, 705833, Note_off_c, 0, 39, 64
1, 705912, Control_c, 0, 67, 121
1, 705927, Control_c, 0, 67, 109
1, 705942, Control_c, 0, 67, 92
1, 705956, Control_c, 0, 67, 74
1, 705971, Control_c, 0, 67, 57
1, 705979, Note_on_c, 0, 38, 63
1, 705979, Note_on_c, 0, 65, 62
1, 705983, Note_on_c, 0, 50, 64
1, 705986, Control_c, 0, 67, 43
1, 705990, Note_on_c, 0, 53, 40
1, 705992, Note_off_c, 0, 53, 53
1, 706001, Control_c, 0, 67, 38
1, 706007, Note_off_c, 0, 65, 64
1, 706011, Note_off_c, 0, 38, 63
1, 706011, Note_off_c, 0, 50, 65
1, 706147, Note_on_c, 0, 42, 71
1, 706152, Note_on_c, 0, 66, 71
1, 706156, Control_c, 0, 67, 42
1, 706171, Control_c, 0, 67, 52
1, 706186, Control_c, 0, 67, 61
1, 706187, Note_on_c, 0, 45, 72
1, 706194, Note_on_c, 0, 69, 70
1, 706199, Note_off_c, 0, 66, 61
1, 706201, Control_c, 0, 67, 67
1, 706206, Note_on_c, 0, 73, 84
1, 706209, Note_on_c, 0, 37, 85
1, 706209, Note_on_c, 0, 49, 88
1, 706216, Control_c, 0, 67, 77
1, 706216, Note_on_c, 0, 61, 82
1, 706218, Note_off_c, 0, 69, 66
1, 706225, Note_off_c, 0, 42, 63
1, 706225, Note_off_c, 0, 45, 62
1, 706230, Control_c, 0, 67, 95
1, 706234, Note_off_c, 0, 49, 69
1, 706238, Note_off_c, 0, 37, 69
1, 706238, Note_off_c, 0, 61, 72
1, 706245, Control_c, 0, 67, 105
1, 706249, Note_off_c, 0, 73, 63
1, 706290, Control_c, 0, 67, 101
1, 706305, Control_c, 0, 67, 99
1, 706335, Control_c, 0, 67, 95
1, 706349, Control_c, 0, 67, 92
1, 706364, Control_c, 0, 67, 86
1, 706379, Control_c, 0, 67, 82
1, 706393, Control_c, 0, 67, 79
1, 706408, Control_c, 0, 67, 78
1, 706412, Note_on_c, 0, 36, 64
1, 706416, Note_on_c, 0, 65, 62
1, 706418, Note_on_c, 0, 44, 52
1, 706421, Note_on_c, 0, 48, 58
1, 706438, Control_c, 0, 67, 78
1, 706446, Note_off_c, 0, 44, 62
1, 706447, Note_off_c, 0, 65, 65
1, 706448, Note_off_c, 0, 36, 60
1, 706448, Note_off_c, 0, 48, 57
1, 706453, Control_c, 0, 67, 77
1, 706467, Control_c, 0, 67, 77
1, 706512, Control_c, 0, 67, 76
1, 706527, Control_c, 0, 67, 73
1, 706542, Control_c, 0, 67, 71
1, 706556, Control_c, 0, 67, 68
1, 706571, Control_c, 0, 67, 67
1, 706586, Control_c, 0, 67, 64
1, 706594, Note_on_c, 0, 40, 58
1, 706600, Control_c, 0, 67, 62
1, 706606, Note_on_c, 0, 64, 58
1, 706615, Control_c, 0, 67, 58
1, 706630, Control_c, 0, 67, 59
1, 706631, Note_on_c, 0, 43, 48
1, 706641, Note_on_c, 0, 68, 62
1, 706646, Control_c, 0, 67, 68
1, 706648, Note_off_c, 0, 64, 64
1, 706655, Note_on_c, 0, 35, 70
1, 706656, Note_on_c, 0, 47, 78
1, 706661, Control_c, 0, 67, 85
1, 706662, Note_on_c, 0, 71, 75
1, 706666, Note_off_c, 0, 40, 59
1, 706672, Note_off_c, 0, 68, 65
1, 706675, Note_on_c, 0, 59, 69
1, 706676, Control_c, 0, 67, 112
1, 706678, Note_off_c, 0, 43, 64
1, 706682, Note_off_c, 0, 35, 65
1, 706683, Note_off_c, 0, 47, 67
1, 706687, Note_off_c, 0, 71, 66
1, 706691, Control_c, 0, 67, 127
1, 706693, Note_off_c, 0, 59, 66
1, 706843, Note_on_c, 0, 65, 61
1, 706845, Note_on_c, 0, 34, 63
1, 706855, Note_on_c, 0, 42, 43
1, 706858, Note_on_c, 0, 53, 39
1, 706862, Note_on_c, 0, 46, 38
1, 706882, Note_on_c, 0, 39, 27
1, 706888, Note_off_c, 0, 65, 60
1, 706896, Note_off_c, 0, 34, 63
1, 706896, Note_off_c, 0, 42, 49
1, 706898, Note_off_c, 0, 53, 54
1, 706913, Note_off_c, 0, 46, 30
1, 706914, Note_off_c, 0, 39, 44
1, 707035, Note_on_c, 0, 38, 65
1, 707042, Note_on_c, 0, 62, 53
1, 707053, Control_c, 0, 67, 109
1, 707068, Control_c, 0, 67, 96
1, 707083, Control_c, 0, 67, 87
1, 707085, Note_on_c, 0, 41, 60
1, 707098, Control_c, 0, 67, 81
1, 707101, Note_on_c, 0, 65, 34
1, 707101, Note_off_c, 0, 38, 59
1, 707112, Note_off_c, 0, 62, 59
1, 707113, Control_c, 0, 67, 81
1, 707119, Note_on_c, 0, 33, 57
1, 707127, Note_on_c, 0, 45, 61
1, 707127, Note_on_c, 0, 69, 51
1, 707127, Note_off_c, 0, 41, 64
1, 707128, Control_c, 0, 67, 84
1, 707134, Note_off_c, 0, 65, 51
1, 707142, Note_on_c, 0, 57, 50
1, 707143, Control_c, 0, 67, 94
1, 707149, Note_off_c, 0, 33, 55
1, 707152, Note_off_c, 0, 69, 62
1, 707152, Note_off_c, 0, 45, 59
1, 707158, Control_c, 0, 67, 104
1, 707168, Note_off_c, 0, 57, 37
1, 707172, Control_c, 0, 67, 109
1, 707187, Control_c, 0, 67, 122
1, 707202, Control_c, 0, 67, 127
1, 707310, Note_on_c, 0, 32, 74
1, 707320, Note_on_c, 0, 65, 54
1, 707329, Note_on_c, 0, 53, 43
1, 707330, Note_on_c, 0, 44, 55
1, 707331, Note_on_c, 0, 56, 36
1, 707360, Note_off_c, 0, 53, 54
1, 707361, Note_off_c, 0, 32, 62
1, 707363, Note_off_c, 0, 44, 64
1, 707363, Note_off_c, 0, 56, 49
1, 707364, Note_off_c, 0, 65, 59
1, 707514, Control_c, 0, 67, 122
1, 707517, Note_on_c, 0, 37, 63
1, 707528, Control_c, 0, 67, 101
1, 707534, Note_on_c, 0, 61, 42
1, 707539, Note_on_c, 0, 33, 61
1, 707543, Control_c, 0, 67, 91
1, 707558, Control_c, 0, 67, 88
1, 707573, Note_on_c, 0, 40, 57
1, 707573, Control_c, 0, 67, 87
1, 707575, Note_on_c, 0, 64, 56
1, 707578, Note_off_c, 0, 61, 51
1, 707588, Control_c, 0, 67, 87
1, 707602, Note_off_c, 0, 33, 62
1, 707602, Control_c, 0, 67, 86
1, 707605, Note_off_c, 0, 64, 66
1, 707608, Note_off_c, 0, 37, 62
1, 707621, Note_on_c, 0, 69, 63
1, 707623, Note_off_c, 0, 40, 64
1, 707625, Control_c, 0, 67, 91
1, 707626, Note_on_c, 0, 57, 25
1, 707632, Note_off_c, 0, 57, 44
1, 707640, Control_c, 0, 67, 101
1, 707641, Note_on_c, 0, 45, 26
1, 707641, Note_off_c, 0, 45, 127
1, 707647, Note_off_c, 0, 69, 68
1, 707654, Control_c, 0, 67, 109
1, 707684, Control_c, 0, 67, 114
1, 707699, Control_c, 0, 67, 124
1, 707714, Control_c, 0, 67, 127
1, 707876, Control_c, 0, 64, 37
1, 707891, Control_c, 0, 64, 56
1, 707894, Note_on_c, 0, 62, 57
1, 707897, Note_on_c, 0, 57, 46
1, 707900, Note_on_c, 0, 74, 61
1, 707903, Note_on_c, 0, 53, 46
1, 707906, Control_c, 0, 64, 68
1, 707921, Note_on_c, 0, 50, 31
1, 707921, Control_c, 0, 64, 78
1, 707928, Note_off_c, 0, 62, 64
1, 707936, Control_c, 0, 64, 94
1, 707936, Control_c, 0, 67, 104
1, 707946, Note_off_c, 0, 74, 57
1, 707950, Control_c, 0, 64, 99
1, 707950, Control_c, 0, 67, 74
1, 707953, Note_off_c, 0, 57, 62
1, 707965, Control_c, 0, 67, 38
1, 707969, Note_on_c, 0, 69, 73
1, 707980, Note_off_c, 0, 53, 60
1, 707980, Control_c, 0, 64, 102
1, 707980, Control_c, 0, 67, 0
1, 707989, Note_off_c, 0, 50, 62
1, 707995, Control_c, 0, 64, 106
1, 708010, Control_c, 0, 64, 127
1, 708017, Note_off_c, 0, 69, 60
1, 708030, Note_on_c, 0, 77, 64
1, 708060, Note_off_c, 0, 77, 66
1, 708111, Note_on_c, 0, 73, 72
1, 708140, Note_off_c, 0, 73, 61
1, 708170, Note_on_c, 0, 76, 70
1, 708173, Note_on_c, 0, 38, 58
1, 708175, Note_on_c, 0, 85, 65
1, 708180, Note_on_c, 0, 49, 63
1, 708205, Note_off_c, 0, 38, 64
1, 708218, Note_off_c, 0, 49, 64
1, 708247, Note_off_c, 0, 76, 63
1, 708254, Note_off_c, 0, 85, 61
1, 708255, Note_on_c, 0, 73, 75
1, 708278, Note_off_c, 0, 73, 65
1, 708349, Note_on_c, 0, 60, 72
1, 708350, Note_on_c, 0, 51, 61
1, 708351, Control_c, 0, 64, 83
1, 708353, Note_on_c, 0, 55, 65
1, 708372, Note_on_c, 0, 48, 61
1, 708372, Note_on_c, 0, 72, 57
1, 708374, Control_c, 0, 64, 65
1, 708377, Note_on_c, 0, 74, 62
1, 708389, Control_c, 0, 64, 53
1, 708398, Note_off_c, 0, 60, 60
1, 708401, Note_off_c, 0, 55, 64
1, 708403, Control_c, 0, 64, 57
1, 708410, Note_off_c, 0, 74, 62
1, 708411, Note_off_c, 0, 72, 61
1, 708417, Note_on_c, 0, 67, 77
1, 708418, Control_c, 0, 64, 69
1, 708430, Note_off_c, 0, 51, 61
1, 708433, Note_off_c, 0, 48, 62
1, 708433, Control_c, 0, 64, 90
1, 708448, Control_c, 0, 64, 127
1, 708478, Note_off_c, 0, 67, 60
1, 708492, Note_on_c, 0, 75, 64
1, 708498, Note_on_c, 0, 79, 62
1, 708520, Note_off_c, 0, 75, 69
1, 708525, Note_off_c, 0, 79, 68
1, 708559, Note_on_c, 0, 71, 81
1, 708600, Note_on_c, 0, 38, 68
1, 708601, Note_off_c, 0, 71, 61
1, 708604, Note_on_c, 0, 47, 72
1, 708612, Note_on_c, 0, 74, 66
1, 708621, Note_on_c, 0, 83, 62
1, 708625, Note_on_c, 0, 78, 62
1, 708630, Note_off_c, 0, 38, 64
1, 708630, Note_off_c, 0, 47, 66
1, 708649, Note_off_c, 0, 83, 54
1, 708663, Note_off_c, 0, 74, 64
1, 708675, Note_off_c, 0, 78, 60
1, 708680, Note_on_c, 0, 71, 83
1, 708720, Note_off_c, 0, 71, 61
1, 708758, Note_on_c, 0, 58, 83
1, 708761, Note_on_c, 0, 49, 61
1, 708762, Note_on_c, 0, 53, 72
1, 708765, Note_on_c, 0, 70, 78
1, 708776, Note_on_c, 0, 46, 60
1, 708788, Note_off_c, 0, 58, 65
1, 708788, Control_c, 0, 64, 104
1, 708802, Control_c, 0, 64, 70
1, 708806, Note_off_c, 0, 53, 61
1, 708807, Note_off_c, 0, 49, 63
1, 708817, Control_c, 0, 64, 53
1, 708818, Note_on_c, 0, 65, 78
1, 708828, Note_off_c, 0, 70, 59
1, 708832, Control_c, 0, 64, 57
1, 708836, Note_off_c, 0, 46, 62
1, 708847, Control_c, 0, 64, 68
1, 708862, Control_c, 0, 64, 91
1, 708866, Note_off_c, 0, 65, 61
1, 708876, Control_c, 0, 64, 127
1, 708883, Note_on_c, 0, 73, 67
1, 708891, Note_on_c, 0, 77, 72
1, 708915, Note_off_c, 0, 73, 63
1, 708921, Note_off_c, 0, 77, 65
1, 708952, Note_on_c, 0, 69, 86
1, 709000, Note_on_c, 0, 38, 58
1, 709002, Note_on_c, 0, 73, 82
1, 709003, Note_off_c, 0, 69, 60
1, 709013, Note_on_c, 0, 45, 79
1, 709013, Note_on_c, 0, 81, 73
1, 709035, Note_on_c, 0, 76, 38
1, 709041, Note_off_c, 0, 38, 64
1, 709043, Note_off_c, 0, 45, 66
1, 709056, Note_off_c, 0, 81, 61
1, 709066, Note_off_c, 0, 76, 54
1, 709068, Note_off_c, 0, 73, 63
1, 709072, Note_on_c, 0, 69, 86
1, 709108, Note_off_c, 0, 69, 62
1, 709164, Note_on_c, 0, 69, 79
1, 709167, Control_c, 0, 64, 91
1, 709167, Note_on_c, 0, 57, 83
1, 709168, Note_on_c, 0, 49, 74
1, 709174, Note_on_c, 0, 45, 68
1, 709179, Note_on_c, 0, 52, 64
1, 709181, Control_c, 0, 64, 64
1, 709196, Note_on_c, 0, 76, 10
1, 709196, Note_off_c, 0, 57, 64
1, 709196, Control_c, 0, 64, 52
1, 709209, Note_off_c, 0, 52, 63
1, 709211, Control_c, 0, 64, 61
1, 709214, Note_off_c, 0, 69, 62
1, 709221, Note_off_c, 0, 45, 0
1, 709222, Note_off_c, 0, 49, 60
1, 709225, Control_c, 0, 64, 72
1, 709232, Note_on_c, 0, 64, 82
1, 709238, Poly_aftertouch_c, 0, 45, 0
1, 709240, Control_c, 0, 64, 98
1, 709242, Note_off_c, 0, 76, 28
1, 709255, Control_c, 0, 64, 127
1, 709283, Note_off_c, 0, 64, 65
1, 709287, Note_on_c, 0, 73, 69
1, 709342, Note_off_c, 0, 73, 63
1, 709365, Note_on_c, 0, 68, 85
1, 709407, Note_off_c, 0, 68, 62
1, 709409, Note_on_c, 0, 72, 71
1, 709411, Note_on_c, 0, 33, 69
1, 709419, Note_on_c, 0, 44, 74
1, 709428, Note_on_c, 0, 80, 75
1, 709440, Note_off_c, 0, 33, 63
1, 709455, Note_off_c, 0, 44, 64
1, 709489, Note_off_c, 0, 72, 63
1, 709491, Note_off_c, 0, 80, 59
1, 709497, Note_on_c, 0, 68, 82
1, 709513, Note_off_c, 0, 68, 73
1, 709552, Control_c, 0, 64, 100
1, 709567, Control_c, 0, 64, 65
1, 709573, Note_on_c, 0, 67, 90
1, 709575, Note_on_c, 0, 47, 66
1, 709577, Note_on_c, 0, 57, 71
1, 709581, Note_on_c, 0, 43, 61
1, 709582, Note_on_c, 0, 55, 65
1, 709582, Control_c, 0, 64, 52
1, 709587, Note_on_c, 0, 50, 50
1, 709597, Control_c, 0, 64, 61
1, 709605, Note_off_c, 0, 57, 69
1, 709608, Note_on_c, 0, 52, 29
1, 709608, Note_off_c, 0, 55, 65
1, 709612, Control_c, 0, 64, 73
1, 709614, Note_off_c, 0, 47, 66
1, 709615, Note_off_c, 0, 50, 57
1, 709617, Note_on_c, 0, 45, 24
1, 709626, Control_c, 0, 64, 98
1, 709628, Note_off_c, 0, 43, 63
1, 709636, Note_on_c, 0, 62, 84
1, 709638, Note_off_c, 0, 67, 62
1, 709641, Control_c, 0, 64, 127
1, 709648, Note_off_c, 0, 52, 53
1, 709660, Note_off_c, 0, 45, 51
1, 709688, Note_off_c, 0, 62, 64
1, 709692, Note_on_c, 0, 71, 81
1, 709706, Note_on_c, 0, 74, 71
1, 709725, Note_off_c, 0, 71, 60
1, 709725, Note_off_c, 0, 74, 65
1, 709763, Note_on_c, 0, 66, 95
1, 709802, Note_on_c, 0, 42, 82
1, 709802, Note_on_c, 0, 33, 73
1, 709817, Note_on_c, 0, 70, 77
1, 709819, Note_on_c, 0, 78, 80
1, 709822, Note_off_c, 0, 66, 62
1, 709827, Note_on_c, 0, 73, 71
1, 709833, Note_off_c, 0, 33, 62
1, 709835, Note_off_c, 0, 42, 65
1, 709873, Note_off_c, 0, 73, 55
1, 709882, Note_off_c, 0, 70, 63
1, 709892, Note_off_c, 0, 78, 60
1, 709897, Note_on_c, 0, 66, 88
1, 709925, Note_off_c, 0, 66, 60
1, 709976, Control_c, 0, 64, 94
1, 709987, Note_on_c, 0, 53, 78
1, 709989, Note_on_c, 0, 65, 56
1, 709990, Control_c, 0, 64, 67
1, 709992, Note_on_c, 0, 41, 61
1, 709992, Note_on_c, 0, 48, 75
1, 709992, Note_on_c, 0, 45, 66
1, 710005, Control_c, 0, 64, 53
1, 710020, Control_c, 0, 64, 59
1, 710032, Note_off_c, 0, 48, 64
1, 710035, Note_off_c, 0, 53, 59
1, 710035, Control_c, 0, 64, 69
1, 710049, Control_c, 0, 64, 89
1, 710057, Note_on_c, 0, 60, 71
1, 710057, Note_off_c, 0, 65, 62
1, 710060, Note_off_c, 0, 45, 62
1, 710064, Control_c, 0, 64, 127
1, 710070, Note_off_c, 0, 41, 64
1, 710112, Note_off_c, 0, 60, 63
1, 710128, Note_on_c, 0, 72, 71
1, 710130, Note_on_c, 0, 69, 67
1, 710154, Note_off_c, 0, 69, 68
1, 710165, Note_off_c, 0, 72, 62
1, 710189, Note_on_c, 0, 64, 83
1, 710192, Note_on_c, 0, 32, 40
1, 710234, Note_off_c, 0, 32, 52
1, 710239, Note_off_c, 0, 64, 63
1, 710265, Note_on_c, 0, 33, 78
1, 710266, Note_on_c, 0, 76, 80
1, 710267, Note_on_c, 0, 73, 76
1, 710270, Note_on_c, 0, 40, 78
1, 710270, Note_on_c, 0, 69, 55
1, 710289, Note_off_c, 0, 33, 69
1, 710290, Note_off_c, 0, 69, 63
1, 710299, Note_off_c, 0, 40, 64
1, 710299, Note_off_c, 0, 73, 60
1, 710316, Note_off_c, 0, 76, 66
1, 710356, Note_on_c, 0, 69, 81
1, 710464, Control_c, 0, 64, 78
1, 710466, Note_on_c, 0, 74, 80
1, 710476, Note_off_c, 0, 69, 36
1, 710477, Note_on_c, 0, 62, 84
1, 710479, Control_c, 0, 64, 56
1, 710480, Note_on_c, 0, 57, 75
1, 710483, Note_on_c, 0, 50, 71
1, 710486, Note_on_c, 0, 53, 76
1, 710494, Control_c, 0, 64, 47
1, 710502, Note_on_c, 0, 54, 38
1, 710509, Control_c, 0, 64, 59
1, 710523, Control_c, 0, 64, 71
1, 710533, Note_off_c, 0, 74, 61
1, 710538, Control_c, 0, 64, 105
1, 710539, Note_off_c, 0, 54, 50
1, 710544, Note_off_c, 0, 62, 60
1, 710553, Control_c, 0, 64, 127
1, 710560, Note_on_c, 0, 69, 83
1, 710568, Note_off_c, 0, 57, 62
1, 710589, Note_off_c, 0, 53, 62
1, 710603, Note_off_c, 0, 50, 63
1, 710606, Note_off_c, 0, 69, 61
1, 710635, Note_on_c, 0, 77, 72
1, 710660, Note_on_c, 0, 81, 35
1, 710661, Note_off_c, 0, 77, 69
1, 710690, Note_off_c, 0, 81, 53
1, 710711, Note_on_c, 0, 73, 80
1, 710747, Note_off_c, 0, 73, 59
1, 710753, Note_on_c, 0, 38, 72
1, 710755, Note_on_c, 0, 49, 78
1, 710758, Note_on_c, 0, 76, 74
1, 710759, Note_on_c, 0, 85, 73
1, 710781, Note_off_c, 0, 38, 64
1, 710785, Note_off_c, 0, 49, 63
1, 710827, Note_off_c, 0, 85, 61
1, 710833, Note_off_c, 0, 76, 64
1, 710835, Note_on_c, 0, 73, 82
1, 710856, Note_off_c, 0, 73, 70
1, 710902, Control_c, 0, 64, 84
1, 710913, Note_on_c, 0, 60, 87
1, 710915, Note_on_c, 0, 51, 80
1, 710916, Note_on_c, 0, 55, 78
1, 710917, Control_c, 0, 64, 63
1, 710919, Note_on_c, 0, 72, 85
1, 710924, Note_on_c, 0, 48, 75
1, 710932, Control_c, 0, 64, 58
1, 710945, Note_off_c, 0, 55, 65
1, 710946, Note_off_c, 0, 60, 62
1, 710946, Control_c, 0, 64, 65
1, 710961, Control_c, 0, 64, 78
1, 710972, Note_off_c, 0, 51, 63
1, 710975, Note_off_c, 0, 72, 62
1, 710976, Note_off_c, 0, 48, 60
1, 710976, Control_c, 0, 64, 127
1, 710977, Note_on_c, 0, 67, 79
1, 711033, Note_off_c, 0, 67, 58
1, 711046, Note_on_c, 0, 79, 71
1, 711048, Note_on_c, 0, 75, 73
1, 711073, Note_off_c, 0, 75, 67
1, 711087, Note_off_c, 0, 79, 64
1, 711115, Note_on_c, 0, 71, 87
1, 711158, Note_off_c, 0, 71, 60
1, 711164, Note_on_c, 0, 38, 76
1, 711167, Note_on_c, 0, 47, 82
1, 711172, Note_on_c, 0, 78, 80
1, 711175, Note_on_c, 0, 83, 79
1, 711179, Note_on_c, 0, 74, 72
1, 711197, Note_off_c, 0, 47, 66
1, 711197, Note_off_c, 0, 38, 62
1, 711217, Note_off_c, 0, 74, 60
1, 711221, Note_off_c, 0, 83, 62
1, 711232, Note_off_c, 0, 78, 59
1, 711241, Note_on_c, 0, 71, 91
1, 711282, Note_off_c, 0, 71, 65
1, 711306, Note_on_c, 0, 53, 83
1, 711307, Note_on_c, 0, 58, 90
1, 711312, Note_on_c, 0, 49, 78
1, 711313, Note_on_c, 0, 46, 75
1, 711318, Note_on_c, 0, 70, 93
1, 711329, Note_off_c, 0, 58, 70
1, 711332, Control_c, 0, 64, 75
1, 711339, Note_on_c, 0, 54, 40
1, 711339, Note_off_c, 0, 54, 127
1, 711343, Note_off_c, 0, 49, 67
1, 711344, Note_off_c, 0, 53, 65
1, 711346, Note_off_c, 0, 46, 66
1, 711346, Note_on_c, 0, 73, 35
1, 711346, Control_c, 0, 64, 55
1, 711369, Control_c, 0, 64, 56
1, 711381, Note_off_c, 0, 70, 63
1, 711384, Control_c, 0, 64, 68
1, 711385, Note_off_c, 0, 73, 39
1, 711387, Note_on_c, 0, 65, 88
1, 711398, Control_c, 0, 64, 91
1, 711413, Control_c, 0, 64, 127
1, 711439, Note_off_c, 0, 65, 62
1, 711453, Note_on_c, 0, 73, 80
1, 711459, Note_on_c, 0, 77, 63
1, 711491, Note_off_c, 0, 73, 57
1, 711497, Note_off_c, 0, 77, 65
1, 711528, Note_on_c, 0, 69, 84
1, 711572, Note_on_c, 0, 38, 76
1, 711574, Note_on_c, 0, 45, 83
1, 711581, Note_off_c, 0, 69, 59
1, 711582, Note_on_c, 0, 74, 82
1, 711590, Note_on_c, 0, 81, 76
1, 711597, Note_off_c, 0, 38, 66
1, 711604, Note_off_c, 0, 45, 67
1, 711605, Note_on_c, 0, 77, 61
1, 711614, Note_on_c, 0, 76, 58
1, 711635, Note_off_c, 0, 76, 63
1, 711639, Note_off_c, 0, 74, 61
1, 711644, Note_off_c, 0, 77, 63
1, 711649, Note_off_c, 0, 81, 61
1, 711659, Note_on_c, 0, 69, 90
1, 711700, Note_off_c, 0, 69, 63
1, 711722, Note_on_c, 0, 60, 103
1, 711724, Note_on_c, 0, 52, 92
1, 711724, Note_on_c, 0, 55, 96
1, 711725, Control_c, 0, 64, 77
1, 711728, Note_on_c, 0, 48, 90
1, 711736, Note_on_c, 0, 72, 96
1, 711740, Control_c, 0, 64, 55
1, 711755, Control_c, 0, 64, 50
1, 711758, Note_off_c, 0, 60, 68
1, 711763, Note_on_c, 0, 79, 50
1, 711764, Note_off_c, 0, 55, 63
1, 711765, Note_on_c, 0, 76, 30
1, 711765, Note_off_c, 0, 76, 127
1, 711769, Control_c, 0, 64, 63
1, 711784, Control_c, 0, 64, 81
1, 711785, Note_off_c, 0, 52, 64
1, 711787, Note_off_c, 0, 79, 59
1, 711795, Note_off_c, 0, 48, 60
1, 711795, Note_off_c, 0, 72, 61
1, 711797, Note_on_c, 0, 65, 78
1, 711799, Control_c, 0, 64, 127
1, 711801, Note_on_c, 0, 67, 70
1, 711823, Note_off_c, 0, 65, 66
1, 711841, Note_off_c, 0, 67, 65
1, 711869, Note_on_c, 0, 76, 67
1, 711886, Note_on_c, 0, 79, 26
1, 711896, Note_off_c, 0, 76, 65
1, 711923, Note_on_c, 0, 71, 91
1, 711924, Note_off_c, 0, 79, 55
1, 711958, Poly_aftertouch_c, 0, 77, 0
1, 711975, Note_off_c, 0, 71, 56
1, 711986, Note_on_c, 0, 78, 79
1, 711988, Note_on_c, 0, 83, 80
1, 711990, Note_on_c, 0, 75, 79
1, 711991, Note_on_c, 0, 47, 84
1, 711993, Note_on_c, 0, 36, 76
1, 712020, Note_off_c, 0, 36, 63
1, 712032, Note_off_c, 0, 47, 63
1, 712039, Note_off_c, 0, 83, 64
1, 712042, Note_off_c, 0, 78, 59
1, 712049, Note_off_c, 0, 75, 66
1, 712050, Note_on_c, 0, 71, 98
1, 712090, Note_off_c, 0, 71, 67
1, 712093, Poly_aftertouch_c, 0, 79, 0
1, 712143, Note_on_c, 0, 49, 58
1, 712144, Note_on_c, 0, 70, 100
1, 712145, Note_on_c, 0, 58, 94
1, 712147, Control_c, 0, 64, 92
1, 712148, Note_on_c, 0, 53, 80
1, 712156, Note_on_c, 0, 46, 76
1, 712156, Note_on_c, 0, 50, 77
1, 712162, Control_c, 0, 64, 62
1, 712166, Note_on_c, 0, 52, 57
1, 712168, Note_off_c, 0, 49, 61
1, 712177, Note_on_c, 0, 77, 38
1, 712177, Control_c, 0, 64, 45
1, 712183, Note_off_c, 0, 58, 65
1, 712192, Control_c, 0, 64, 58
1, 712197, Note_off_c, 0, 52, 57
1, 712198, Note_off_c, 0, 53, 64
1, 712203, Note_off_c, 0, 70, 65
1, 712207, Control_c, 0, 64, 73
1, 712207, Note_off_c, 0, 77, 35
1, 712213, Note_off_c, 0, 50, 64
1, 712219, Note_on_c, 0, 65, 85
1, 712221, Control_c, 0, 64, 127
1, 712234, Note_off_c, 0, 46, 62
1, 712267, Note_off_c, 0, 65, 64
1, 712274, Note_on_c, 0, 74, 63
1, 712287, Note_on_c, 0, 77, 69
1, 712313, Note_off_c, 0, 74, 56
1, 712316, Note_off_c, 0, 77, 64
1, 712347, Note_on_c, 0, 69, 92
1, 712393, Note_off_c, 0, 69, 63
1, 712411, Note_on_c, 0, 81, 88
1, 712413, Note_on_c, 0, 73, 96
1, 712424, Note_on_c, 0, 36, 84
1, 712425, Note_on_c, 0, 45, 86
1, 712454, Note_off_c, 0, 36, 66
1, 712454, Note_off_c, 0, 45, 65
1, 712456, Note_off_c, 0, 81, 64
1, 712469, Note_off_c, 0, 73, 67
1, 712478, Note_on_c, 0, 69, 92
1, 712521, Note_off_c, 0, 69, 65
1, 712574, Note_on_c, 0, 51, 98
1, 712574, Note_on_c, 0, 56, 98
1, 712577, Note_on_c, 0, 68, 97
1, 712586, Note_on_c, 0, 44, 73
1, 712586, Note_on_c, 0, 48, 82
1, 712589, Note_on_c, 0, 49, 56
1, 712593, Control_c, 0, 64, 78
1, 712608, Control_c, 0, 64, 48
1, 712622, Note_off_c, 0, 56, 65
1, 712623, Control_c, 0, 64, 33
1, 712635, Note_off_c, 0, 68, 62
1, 712637, Control_c, 0, 64, 63
1, 712648, Note_off_c, 0, 51, 64
1, 712652, Control_c, 0, 64, 106
1, 712654, Note_on_c, 0, 63, 91
1, 712662, Note_off_c, 0, 49, 63
1, 712662, Note_off_c, 0, 48, 63
1, 712667, Control_c, 0, 64, 127
1, 712683, Note_off_c, 0, 44, 64
1, 712705, Note_off_c, 0, 63, 64
1, 712735, Note_on_c, 0, 72, 64
1, 712758, Note_on_c, 0, 76, 57
1, 712770, Note_off_c, 0, 72, 59
1, 712780, Note_off_c, 0, 76, 64
1, 712803, Note_on_c, 0, 67, 86
1, 712836, Note_off_c, 0, 67, 62
1, 712872, Note_on_c, 0, 36, 92
1, 712876, Note_on_c, 0, 43, 99
1, 712878, Note_on_c, 0, 72, 93
1, 712878, Note_on_c, 0, 79, 89
1, 712881, Note_on_c, 0, 76, 71
1, 712911, Note_off_c, 0, 72, 63
1, 712917, Note_off_c, 0, 36, 61
1, 712918, Note_off_c, 0, 43, 65
1, 712920, Note_off_c, 0, 76, 60
1, 712944, Note_off_c, 0, 79, 65
1, 712976, Poly_aftertouch_c, 0, 71, 0
1, 712982, Note_on_c, 0, 72, 90
1, 712986, Note_on_c, 0, 71, 76
1, 713041, Note_off_c, 0, 71, 60
1, 713051, Note_off_c, 0, 72, 63
1, 713105, Control_c, 0, 64, 103
1, 713109, Note_on_c, 0, 60, 86
1, 713113, Note_on_c, 0, 65, 94
1, 713115, Note_on_c, 0, 77, 85
1, 713117, Note_on_c, 0, 69, 102
1, 713118, Note_on_c, 0, 64, 85
1, 713120, Control_c, 0, 64, 64
1, 713127, Note_on_c, 0, 57, 71
1, 713135, Control_c, 0, 64, 30
1, 713140, Note_on_c, 0, 61, 35
1, 713140, Note_off_c, 0, 61, 127
1, 713149, Control_c, 0, 64, 51
1, 713156, Note_on_c, 0, 76, 11
1, 713156, Note_off_c, 0, 76, 127
1, 713164, Control_c, 0, 64, 75
1, 713170, Note_off_c, 0, 69, 63
1, 713176, Note_on_c, 0, 81, 34
1, 713179, Control_c, 0, 64, 127
1, 713183, Note_off_c, 0, 64, 63
1, 713183, Note_off_c, 0, 65, 65
1, 713183, Note_off_c, 0, 77, 61
1, 713191, Note_on_c, 0, 72, 83
1, 713200, Note_off_c, 0, 57, 60
1, 713204, Note_off_c, 0, 60, 63
1, 713209, Note_off_c, 0, 81, 51
1, 713252, Note_off_c, 0, 72, 63
1, 713269, Note_on_c, 0, 81, 86
1, 713274, Note_on_c, 0, 84, 84
1, 713305, Note_off_c, 0, 84, 63
1, 713328, Note_off_c, 0, 81, 59
1, 713338, Note_on_c, 0, 76, 90
1, 713373, Note_on_c, 0, 41, 89
1, 713375, Note_on_c, 0, 56, 99
1, 713385, Note_on_c, 0, 80, 95
1, 713388, Note_on_c, 0, 88, 89
1, 713399, Note_off_c, 0, 76, 60
1, 713402, Note_off_c, 0, 41, 67
1, 713403, Note_on_c, 0, 83, 66
1, 713414, Note_on_c, 0, 84, 53
1, 713420, Note_off_c, 0, 56, 67
1, 713420, Note_off_c, 0, 83, 65
1, 713437, Note_off_c, 0, 84, 62
1, 713445, Note_off_c, 0, 88, 67
1, 713456, Note_off_c, 0, 80, 64
1, 713466, Note_on_c, 0, 76, 93
1, 713499, Note_off_c, 0, 76, 68
1, 713531, Note_on_c, 0, 62, 93
1, 713531, Note_on_c, 0, 67, 103
1, 713537, Note_on_c, 0, 57, 72
1, 713543, Note_on_c, 0, 53, 66
1, 713543, Note_on_c, 0, 65, 77
1, 713544, Note_on_c, 0, 55, 78
1, 713548, Note_on_c, 0, 75, 94
1, 713549, Control_c, 0, 64, 79
1, 713559, Note_off_c, 0, 67, 70
1, 713560, Note_off_c, 0, 65, 41
1, 713564, Control_c, 0, 64, 61
1, 713565, Note_off_c, 0, 62, 66
1, 713578, Control_c, 0, 64, 65
1, 713579, Note_on_c, 0, 59, 38
1, 713579, Note_off_c, 0, 59, 127
1, 713580, Note_off_c, 0, 53, 65
1, 713584, Note_off_c, 0, 57, 64
1, 713590, Note_off_c, 0, 55, 61
1, 713593, Control_c, 0, 64, 87
1, 713595, Note_off_c, 0, 75, 66
1, 713615, Control_c, 0, 64, 127
1, 713621, Note_on_c, 0, 70, 84
1, 713624, Poly_aftertouch_c, 0, 59, 0
1, 713659, Note_off_c, 0, 70, 64
1, 713691, Note_on_c, 0, 79, 75
1, 713713, Note_on_c, 0, 84, 47
1, 713719, Note_on_c, 0, 83, 44
1, 713724, Note_off_c, 0, 79, 53
1, 713739, Note_off_c, 0, 84, 57
1, 713748, Note_off_c, 0, 83, 54
1, 713754, Note_on_c, 0, 74, 88
1, 713778, Control_c, 0, 64, 74
1, 713784, Note_on_c, 0, 41, 87
1, 713784, Note_on_c, 0, 54, 99
1, 713793, Control_c, 0, 64, 45
1, 713799, Note_off_c, 0, 74, 60
1, 713802, Note_on_c, 0, 86, 91
1, 713804, Note_on_c, 0, 78, 91
1, 713808, Control_c, 0, 64, 45
1, 713814, Note_off_c, 0, 41, 67
1, 713823, Control_c, 0, 64, 73
1, 713826, Note_on_c, 0, 84, 47
1, 713831, Note_off_c, 0, 54, 64
1, 713838, Control_c, 0, 64, 127
1, 713852, Note_off_c, 0, 84, 60
1, 713861, Note_off_c, 0, 86, 66
1, 713874, Note_off_c, 0, 78, 59
1, 713878, Note_on_c, 0, 74, 95
1, 713916, Note_off_c, 0, 74, 69
1, 713939, Note_on_c, 0, 61, 103
1, 713941, Note_on_c, 0, 65, 98
1, 713945, Note_on_c, 0, 56, 89
1, 713948, Note_on_c, 0, 53, 79
1, 713958, Note_on_c, 0, 73, 94
1, 713969, Note_off_c, 0, 65, 68
1, 713972, Control_c, 0, 64, 72
1, 713978, Note_off_c, 0, 61, 67
1, 713979, Note_on_c, 0, 58, 36
1, 713987, Control_c, 0, 64, 56
1, 713990, Note_off_c, 0, 53, 55
1, 713993, Note_off_c, 0, 56, 65
1, 714002, Control_c, 0, 64, 68
1, 714003, Note_off_c, 0, 58, 41
1, 714006, Note_off_c, 0, 73, 63
1, 714016, Control_c, 0, 64, 127
1, 714024, Note_on_c, 0, 68, 90
1, 714061, Note_off_c, 0, 68, 66
1, 714092, Note_on_c, 0, 77, 71
1, 714108, Note_on_c, 0, 81, 71
1, 714129, Note_off_c, 0, 81, 71
1, 714140, Note_off_c, 0, 77, 60
1, 714166, Note_on_c, 0, 72, 82
1, 714194, Note_off_c, 0, 72, 62
1, 714199, Note_on_c, 0, 52, 98
1, 714215, Note_on_c, 0, 76, 92
1, 714217, Note_on_c, 0, 84, 96
1, 714221, Note_on_c, 0, 41, 47
1, 714222, Note_on_c, 0, 40, 46
1, 714237, Note_off_c, 0, 52, 65
1, 714239, Note_on_c, 0, 79, 61
1, 714243, Note_off_c, 0, 76, 62
1, 714249, Note_off_c, 0, 41, 55
1, 714257, Note_off_c, 0, 40, 50
1, 714258, Note_off_c, 0, 79, 64
1, 714270, Poly_aftertouch_c, 0, 74, 0
1, 714273, Note_off_c, 0, 84, 69
1, 714316, Note_on_c, 0, 77, 103
1, 714350, Note_on_c, 0, 61, 57
1, 714377, Note_off_c, 0, 77, 65
1, 714380, Note_off_c, 0, 61, 62
1, 714421, Note_on_c, 0, 82, 100
1, 714423, Note_on_c, 0, 65, 94
1, 714423, Control_c, 0, 64, 70
1, 714425, Note_on_c, 0, 70, 105
1, 714428, Note_on_c, 0, 62, 82
1, 714436, Note_on_c, 0, 58, 80
1, 714438, Control_c, 0, 64, 0
1, 714440, Note_on_c, 0, 66, 54
1, 714463, Note_off_c, 0, 66, 36
1, 714467, Note_off_c, 0, 70, 69
1, 714468, Control_c, 0, 64, 59
1, 714483, Control_c, 0, 64, 127
1, 714487, Note_off_c, 0, 65, 66
1, 714505, Note_off_c, 0, 82, 62
1, 714509, Note_off_c, 0, 62, 64
1, 714512, Note_on_c, 0, 77, 88
1, 714514, Note_on_c, 0, 79, 77
1, 714521, Note_off_c, 0, 58, 63
1, 714559, Note_off_c, 0, 79, 59
1, 714562, Note_off_c, 0, 77, 66
1, 714587, Note_on_c, 0, 86, 84
1, 714592, Note_on_c, 0, 89, 83
1, 714634, Note_off_c, 0, 89, 65
1, 714637, Note_off_c, 0, 86, 63
1, 714663, Note_on_c, 0, 81, 95
1, 714691, Control_c, 0, 64, 83
1, 714705, Control_c, 0, 64, 54
1, 714709, Note_on_c, 0, 46, 81
1, 714711, Note_on_c, 0, 85, 99
1, 714711, Note_on_c, 0, 57, 84
1, 714716, Note_on_c, 0, 93, 97
1, 714720, Control_c, 0, 64, 0
1, 714726, Note_off_c, 0, 81, 54
1, 714735, Control_c, 0, 64, 53
1, 714743, Note_off_c, 0, 46, 65
1, 714744, Note_off_c, 0, 57, 66
1, 714750, Control_c, 0, 64, 91
1, 714765, Control_c, 0, 64, 127
1, 714768, Note_off_c, 0, 93, 65
1, 714786, Note_off_c, 0, 85, 64
1, 714788, Note_on_c, 0, 81, 91
1, 714821, Note_off_c, 0, 81, 67
1, 714857, Note_on_c, 0, 63, 88
1, 714858, Note_on_c, 0, 68, 90
1, 714859, Note_on_c, 0, 59, 59
1, 714860, Note_on_c, 0, 60, 71
1, 714870, Note_on_c, 0, 80, 94
1, 714879, Note_off_c, 0, 68, 67
1, 714881, Note_on_c, 0, 56, 61
1, 714890, Note_off_c, 0, 59, 60
1, 714901, Note_on_c, 0, 87, 34
1, 714903, Note_off_c, 0, 63, 66
1, 714911, Note_off_c, 0, 60, 65
1, 714913, Control_c, 0, 64, 93
1, 714920, Note_off_c, 0, 80, 62
1, 714925, Note_off_c, 0, 56, 64
1, 714935, Note_on_c, 0, 75, 91
1, 714938, Note_off_c, 0, 87, 42
1, 714943, Control_c, 0, 64, 127
1, 714974, Note_off_c, 0, 75, 66
1, 714976, Note_on_c, 0, 74, 43
1, 715005, Note_off_c, 0, 74, 56
1, 715036, Note_on_c, 0, 89, 39
1, 715070, Note_on_c, 0, 79, 82
1, 715070, Note_off_c, 0, 89, 44
1, 715113, Control_c, 0, 64, 72
1, 715128, Control_c, 0, 64, 43
1, 715130, Note_on_c, 0, 91, 96
1, 715131, Note_on_c, 0, 83, 100
1, 715134, Note_on_c, 0, 55, 92
1, 715139, Note_on_c, 0, 46, 93
1, 715143, Control_c, 0, 64, 50
1, 715146, Note_off_c, 0, 79, 68
1, 715148, Note_on_c, 0, 89, 69
1, 715158, Control_c, 0, 64, 86
1, 715172, Control_c, 0, 64, 127
1, 715173, Note_off_c, 0, 89, 52
1, 715173, Note_on_c, 0, 45, 43
1, 715173, Note_off_c, 0, 83, 67
1, 715174, Note_off_c, 0, 46, 64
1, 715176, Note_off_c, 0, 55, 68
1, 715189, Note_off_c, 0, 91, 65
1, 715205, Note_off_c, 0, 45, 53
1, 715216, Note_on_c, 0, 79, 96
1, 715254, Note_off_c, 0, 79, 69
1, 715305, Note_on_c, 0, 78, 98
1, 715318, Note_on_c, 0, 66, 104
1, 715328, Note_on_c, 0, 54, 72
1, 715328, Note_on_c, 0, 56, 74
1, 715333, Note_on_c, 0, 60, 72
1, 715337, Note_on_c, 0, 61, 61
1, 715342, Note_on_c, 0, 82, 36
1, 715342, Note_off_c, 0, 82, 127
1, 715346, Note_off_c, 0, 66, 64
1, 715349, Note_on_c, 0, 59, 65
1, 715358, Note_on_c, 0, 58, 43
1, 715358, Note_off_c, 0, 61, 39
1, 715360, Note_off_c, 0, 60, 67
1, 715368, Note_off_c, 0, 59, 63
1, 715370, Note_off_c, 0, 78, 58
1, 715376, Note_off_c, 0, 56, 63
1, 715377, Note_off_c, 0, 54, 58
1, 715385, Note_on_c, 0, 73, 94
1, 715389, Note_off_c, 0, 58, 56
1, 715426, Note_off_c, 0, 73, 65
1, 715471, Note_on_c, 0, 82, 59
1, 715479, Note_on_c, 0, 86, 77
1, 715483, Note_on_c, 0, 83, 65
1, 715490, Note_off_c, 0, 82, 62
1, 715500, Note_off_c, 0, 86, 71
1, 715508, Note_off_c, 0, 83, 70
1, 715540, Note_on_c, 0, 77, 98
1, 715592, Note_off_c, 0, 77, 66
1, 715602, Poly_aftertouch_c, 0, 46, 127
1, 715630, Poly_aftertouch_c, 0, 46, 0
1, 715633, Note_on_c, 0, 89, 96
1, 715635, Note_on_c, 0, 82, 98
1, 715640, Note_on_c, 0, 46, 87
1, 715643, Note_on_c, 0, 53, 101
1, 715644, Note_on_c, 0, 86, 97
1, 715649, Note_on_c, 0, 87, 49
1, 715649, Note_off_c, 0, 87, 127
1, 715677, Control_c, 0, 64, 77
1, 715692, Control_c, 0, 64, 55
1, 715693, Note_off_c, 0, 53, 65
1, 715702, Note_off_c, 0, 82, 64
1, 715707, Control_c, 0, 64, 62
1, 715722, Control_c, 0, 64, 77
1, 715724, Note_off_c, 0, 46, 62
1, 715736, Note_off_c, 0, 89, 61
1, 715737, Control_c, 0, 64, 127
1, 715746, Note_off_c, 0, 86, 62
1, 716108, Note_on_c, 0, 66, 50
1, 716151, Note_off_c, 0, 66, 62
1, 716187, Control_c, 0, 64, 92
1, 716195, Note_on_c, 0, 91, 103
1, 716196, Note_on_c, 0, 98, 99
1, 716198, Note_on_c, 0, 70, 95
1, 716199, Note_on_c, 0, 86, 104
1, 716199, Note_on_c, 0, 94, 99
1, 716199, Note_on_c, 0, 74, 100
1, 716200, Note_on_c, 0, 67, 83
1, 716202, Control_c, 0, 64, 57
1, 716217, Control_c, 0, 64, 0
1, 716231, Note_off_c, 0, 74, 71
1, 716232, Control_c, 0, 64, 29
1, 716243, Note_on_c, 0, 95, 35
1, 716247, Control_c, 0, 64, 54
1, 716262, Control_c, 0, 64, 74
1, 716277, Control_c, 0, 64, 127
1, 716278, Note_off_c, 0, 95, 47
1, 716326, Note_off_c, 0, 86, 61
1, 716328, Note_off_c, 0, 98, 62
1, 716351, Note_off_c, 0, 70, 60
1, 716369, Note_off_c, 0, 67, 59
1, 716390, Note_off_c, 0, 91, 64
1, 716406, Note_off_c, 0, 94, 65
1, 716625, Control_c, 0, 64, 78
1, 716640, Control_c, 0, 64, 57
1, 716642, Note_on_c, 0, 97, 97
1, 716643, Note_on_c, 0, 90, 99
1, 716645, Note_on_c, 0, 85, 106
1, 716647, Note_on_c, 0, 93, 96
1, 716648, Note_on_c, 0, 73, 94
1, 716649, Note_on_c, 0, 63, 91
1, 716650, Note_on_c, 0, 69, 92
1, 716652, Note_on_c, 0, 66, 84
1, 716655, Control_c, 0, 64, 50
1, 716670, Control_c, 0, 64, 62
1, 716684, Control_c, 0, 64, 78
1, 716699, Control_c, 0, 64, 127
1, 716726, Note_off_c, 0, 73, 58
1, 716753, Note_off_c, 0, 69, 56
1, 716758, Note_off_c, 0, 97, 60
1, 716760, Note_off_c, 0, 85, 59
1, 716781, Note_off_c, 0, 93, 62
1, 716795, Note_off_c, 0, 66, 55
1, 716807, Note_off_c, 0, 63, 50
1, 716807, Note_off_c, 0, 90, 61
1, 716887, Note_on_c, 0, 97, 53
1, 716948, Note_off_c, 0, 97, 61
1, 716995, Control_c, 0, 64, 84
1, 717009, Control_c, 0, 64, 63
1, 717018, Note_on_c, 0, 72, 97
1, 717018, Note_on_c, 0, 68, 87
1, 717019, Note_on_c, 0, 96, 97
1, 717021, Note_on_c, 0, 84, 102
1, 717022, Note_on_c, 0, 65, 84
1, 717022, Note_on_c, 0, 89, 88
1, 717024, Note_on_c, 0, 92, 93
1, 717024, Control_c, 0, 64, 58
1, 717039, Note_on_c, 0, 88, 69
1, 717040, Control_c, 0, 64, 71
1, 717051, Note_on_c, 0, 94, 68
1, 717055, Control_c, 0, 64, 127
1, 717060, Note_off_c, 0, 88, 40
1, 717079, Note_off_c, 0, 72, 66
1, 717084, Note_off_c, 0, 94, 62
1, 717097, Note_off_c, 0, 68, 63
1, 717110, Note_off_c, 0, 84, 65
1, 717114, Note_off_c, 0, 96, 67
1, 717117, Note_off_c, 0, 65, 60
1, 717131, Note_off_c, 0, 89, 64
1, 717138, Note_off_c, 0, 92, 65
1, 717293, Control_c, 0, 64, 83
1, 717307, Control_c, 0, 64, 62
1, 717309, Note_on_c, 0, 95, 93
1, 717311, Note_on_c, 0, 67, 87
1, 717311, Note_on_c, 0, 71, 94
1, 717311, Note_on_c, 0, 88, 95
1, 717312, Note_on_c, 0, 83, 104
1, 717313, Note_on_c, 0, 64, 81
1, 717313, Note_on_c, 0, 91, 89
1, 717314, Note_on_c, 0, 61, 86
1, 717322, Control_c, 0, 64, 58
1, 717337, Control_c, 0, 64, 72
1, 717358, Control_c, 0, 64, 127
1, 717362, Note_off_c, 0, 71, 65
1, 717376, Note_off_c, 0, 67, 63
1, 717376, Note_off_c, 0, 83, 64
1, 717396, Note_off_c, 0, 61, 63
1, 717396, Note_off_c, 0, 64, 65
1, 717397, Note_off_c, 0, 95, 67
1, 717406, Note_off_c, 0, 88, 65
1, 717406, Note_off_c, 0, 91, 65
1, 717522, Control_c, 0, 64, 123
1, 717537, Control_c, 0, 64, 71
1, 717551, Control_c, 0, 64, 60
1, 717556, Note_on_c, 0, 87, 91
1, 717557, Note_on_c, 0, 63, 91
1, 717557, Note_on_c, 0, 66, 90
1, 717560, Note_on_c, 0, 82, 101
1, 717560, Note_on_c, 0, 90, 94
1, 717561, Note_on_c, 0, 70, 88
1, 717561, Note_on_c, 0, 94, 94
1, 717566, Control_c, 0, 64, 71
1, 717581, Control_c, 0, 64, 127
1, 717602, Note_off_c, 0, 82, 65
1, 717604, Note_off_c, 0, 70, 64
1, 717617, Note_off_c, 0, 66, 63
1, 717624, Note_off_c, 0, 87, 63
1, 717633, Note_off_c, 0, 90, 61
1, 717648, Note_off_c, 0, 94, 60
1, 717732, Note_off_c, 0, 63, 25
1, 717744, Control_c, 0, 64, 80
1, 717758, Control_c, 0, 64, 56
1, 717766, Note_on_c, 0, 86, 96
1, 717767, Note_on_c, 0, 65, 87
1, 717767, Note_on_c, 0, 81, 102
1, 717767, Note_on_c, 0, 69, 94
1, 717767, Note_on_c, 0, 93, 93
1, 717771, Note_on_c, 0, 59, 85
1, 717771, Note_on_c, 0, 89, 79
1, 717773, Note_on_c, 0, 62, 64
1, 717773, Control_c, 0, 64, 52
1, 717788, Control_c, 0, 64, 71
1, 717803, Control_c, 0, 64, 127
1, 717804, Note_off_c, 0, 69, 63
1, 717806, Note_off_c, 0, 65, 64
1, 717810, Note_off_c, 0, 93, 64
1, 717811, Note_off_c, 0, 81, 63
1, 717812, Note_off_c, 0, 89, 59
1, 717820, Note_off_c, 0, 62, 61
1, 717820, Note_off_c, 0, 86, 64
1, 717823, Note_off_c, 0, 59, 64
1, 717967, Control_c, 0, 64, 77
1, 717980, Note_on_c, 0, 65, 90
1, 717981, Note_on_c, 0, 74, 102
1, 717981, Note_on_c, 0, 58, 91
1, 717981, Note_on_c, 0, 77, 93
1, 717982, Control_c, 0, 64, 55
1, 717984, Note_on_c, 0, 62, 80
1, 717985, Note_on_c, 0, 82, 81
1, 717986, Note_on_c, 0, 86, 86
1, 717997, Control_c, 0, 64, 56
1, 718012, Control_c, 0, 64, 76
1, 718024, Note_off_c, 0, 74, 67
1, 718027, Control_c, 0, 64, 127
1, 718031, Note_off_c, 0, 62, 59
1, 718038, Note_off_c, 0, 65, 63
1, 718038, Note_off_c, 0, 77, 63
1, 718045, Note_off_c, 0, 86, 62
1, 718056, Note_off_c, 0, 82, 63
1, 718057, Note_off_c, 0, 58, 63
1, 718153, Control_c, 0, 64, 88
1, 718168, Control_c, 0, 64, 59
1, 718177, Note_on_c, 0, 54, 81
1, 718179, Note_on_c, 0, 64, 86
1, 718180, Note_on_c, 0, 76, 91
1, 718181, Note_on_c, 0, 82, 81
1, 718181, Note_on_c, 0, 85, 87
1, 718182, Note_on_c, 0, 61, 77
1, 718182, Control_c, 0, 64, 45
1, 718183, Note_on_c, 0, 73, 95
1, 718192, Note_on_c, 0, 58, 63
1, 718197, Control_c, 0, 64, 67
1, 718212, Control_c, 0, 64, 127
1, 718220, Note_off_c, 0, 61, 57
1, 718224, Note_off_c, 0, 64, 63
1, 718226, Note_off_c, 0, 58, 63
1, 718227, Note_off_c, 0, 73, 61
1, 718238, Note_off_c, 0, 54, 62
1, 718239, Note_off_c, 0, 76, 63
1, 718266, Note_off_c, 0, 85, 62
1, 718267, Note_off_c, 0, 82, 61
1, 718330, Control_c, 0, 64, 83
1, 718345, Control_c, 0, 64, 69
1, 718348, Note_on_c, 0, 80, 85
1, 718349, Note_on_c, 0, 56, 83
1, 718350, Note_on_c, 0, 72, 98
1, 718350, Note_on_c, 0, 75, 91
1, 718351, Note_on_c, 0, 60, 78
1, 718351, Note_on_c, 0, 84, 90
1, 718355, Note_on_c, 0, 63, 84
1, 718360, Control_c, 0, 64, 86
1, 718375, Control_c, 0, 64, 127
1, 718401, Note_off_c, 0, 63, 59
1, 718404, Note_off_c, 0, 72, 58
1, 718408, Note_off_c, 0, 75, 60
1, 718412, Note_off_c, 0, 60, 63
1, 718423, Note_off_c, 0, 84, 62
1, 718437, Note_off_c, 0, 80, 63
1, 718440, Note_off_c, 0, 56, 61
1, 718494, Control_c, 0, 64, 93
1, 718508, Control_c, 0, 64, 63
1, 718509, Note_on_c, 0, 52, 78
1, 718512, Note_on_c, 0, 62, 79
1, 718517, Note_on_c, 0, 80, 87
1, 718518, Note_on_c, 0, 74, 97
1, 718521, Note_on_c, 0, 71, 98
1, 718521, Note_on_c, 0, 83, 85
1, 718523, Control_c, 0, 64, 47
1, 718535, Note_on_c, 0, 59, 49
1, 718538, Control_c, 0, 64, 62
1, 718550, Note_off_c, 0, 62, 60
1, 718553, Control_c, 0, 64, 127
1, 718559, Note_on_c, 0, 78, 34
1, 718562, Note_off_c, 0, 59, 59
1, 718562, Note_off_c, 0, 71, 63
1, 718565, Note_off_c, 0, 74, 65
1, 718571, Note_off_c, 0, 52, 63
1, 718583, Note_off_c, 0, 83, 63
1, 718591, Note_off_c, 0, 80, 63
1, 718593, Note_off_c, 0, 78, 35
1, 718658, Control_c, 0, 64, 95
1, 718669, Note_on_c, 0, 58, 91
1, 718673, Control_c, 0, 64, 73
1, 718674, Note_on_c, 0, 78, 82
1, 718677, Note_on_c, 0, 73, 93
1, 718681, Note_on_c, 0, 61, 78
1, 718682, Note_on_c, 0, 70, 92
1, 718682, Note_on_c, 0, 54, 76
1, 718683, Note_on_c, 0, 82, 71
1, 718687, Control_c, 0, 64, 79
1, 718702, Control_c, 0, 64, 127
1, 718707, Note_off_c, 0, 61, 68
1, 718722, Note_off_c, 0, 73, 64
1, 718724, Note_off_c, 0, 58, 62
1, 718725, Note_off_c, 0, 70, 63
1, 718732, Note_on_c, 0, 79, 11
1, 718734, Note_off_c, 0, 82, 62
1, 718744, Note_off_c, 0, 54, 61
1, 718747, Note_off_c, 0, 78, 60
1, 718779, Note_off_c, 0, 79, 54
1, 718791, Control_c, 0, 64, 80
1, 718805, Control_c, 0, 64, 57
1, 718820, Control_c, 0, 64, 53
1, 718827, Note_on_c, 0, 69, 93
1, 718828, Note_on_c, 0, 72, 89
1, 718828, Note_on_c, 0, 78, 86
1, 718830, Note_on_c, 0, 54, 75
1, 718830, Note_on_c, 0, 60, 75
1, 718831, Note_on_c, 0, 50, 76
1, 718835, Control_c, 0, 64, 75
1, 718840, Note_on_c, 0, 81, 58
1, 718858, Control_c, 0, 64, 127
1, 718859, Note_off_c, 0, 72, 64
1, 718861, Note_off_c, 0, 60, 69
1, 718863, Note_off_c, 0, 54, 66
1, 718865, Note_off_c, 0, 50, 69
1, 718866, Note_off_c, 0, 81, 65
1, 718871, Note_off_c, 0, 69, 64
1, 718878, Note_off_c, 0, 78, 60
1, 719003, Note_on_c, 0, 38, 83
1, 719003, Note_on_c, 0, 50, 87
1, 719012, Note_on_c, 0, 62, 91
1, 719014, Note_on_c, 0, 57, 88
1, 719020, Note_on_c, 0, 53, 83
1, 719027, Note_off_c, 0, 50, 70
1, 719032, Note_off_c, 0, 38, 66
1, 719035, Control_c, 0, 64, 89
1, 719042, Note_off_c, 0, 53, 70
1, 719043, Note_off_c, 0, 57, 66
1, 719050, Control_c, 0, 64, 57
1, 719054, Note_off_c, 0, 62, 47
1, 719065, Control_c, 0, 64, 0
1, 719168, Note_on_c, 0, 61, 79
1, 719169, Note_on_c, 0, 52, 75
1, 719171, Note_on_c, 0, 44, 72
1, 719171, Note_on_c, 0, 56, 70
1, 719172, Note_on_c, 0, 32, 82
1, 719193, Note_off_c, 0, 52, 66
1, 719198, Note_off_c, 0, 44, 65
1, 719199, Note_off_c, 0, 56, 66
1, 719200, Note_off_c, 0, 32, 64
1, 719206, Note_off_c, 0, 61, 64
1, 719302, Note_on_c, 0, 60, 72
1, 719307, Note_on_c, 0, 48, 83
1, 719308, Note_on_c, 0, 36, 80
1, 719313, Note_on_c, 0, 51, 78
1, 719331, Note_on_c, 0, 55, 45
1, 719335, Note_off_c, 0, 48, 66
1, 719341, Note_off_c, 0, 36, 66
1, 719341, Note_off_c, 0, 51, 63
1, 719352, Note_off_c, 0, 60, 59
1, 719362, Note_off_c, 0, 55, 53
1, 719457, Note_on_c, 0, 42, 84
1, 719463, Note_on_c, 0, 30, 70
1, 719463, Note_on_c, 0, 54, 69
1, 719467, Note_on_c, 0, 50, 72
1, 719472, Note_on_c, 0, 59, 67
1, 719486, Note_off_c, 0, 42, 64
1, 719489, Note_off_c, 0, 30, 59
1, 719493, Note_off_c, 0, 50, 66
1, 719501, Note_off_c, 0, 59, 66
1, 719502, Note_off_c, 0, 54, 61
1, 719608, Note_on_c, 0, 34, 76
1, 719612, Note_on_c, 0, 46, 69
1, 719613, Note_on_c, 0, 58, 74
1, 719626, Note_on_c, 0, 53, 57
1, 719627, Note_on_c, 0, 49, 64
1, 719641, Note_on_c, 0, 56, 23
1, 719644, Note_off_c, 0, 46, 64
1, 719645, Note_off_c, 0, 34, 66
1, 719656, Note_off_c, 0, 49, 65
1, 719663, Note_off_c, 0, 53, 63
1, 719665, Note_off_c, 0, 58, 61
1, 719681, Note_off_c, 0, 56, 39
1, 719750, Note_on_c, 0, 40, 85
1, 719752, Note_on_c, 0, 28, 87
1, 719764, Note_on_c, 0, 58, 77
1, 719781, Note_off_c, 0, 28, 67
1, 719784, Note_off_c, 0, 40, 66
1, 719785, Note_on_c, 0, 48, 56
1, 719790, Note_off_c, 0, 58, 69
1, 719820, Note_off_c, 0, 48, 52
1, 719892, Note_on_c, 0, 38, 106
1, 719894, Note_on_c, 0, 26, 78
1, 719900, Note_on_c, 0, 62, 94
1, 719917, Control_c, 0, 64, 63
1, 719918, Note_off_c, 0, 26, 71
1, 719932, Control_c, 0, 64, 127
1, 719936, Note_off_c, 0, 38, 66
1, 720105, Note_on_c, 0, 57, 83
1, 720111, Note_off_c, 0, 62, 59
1, 720132, Note_on_c, 0, 45, 69
1, 720155, Note_on_c, 0, 53, 78
1, 720158, Note_off_c, 0, 57, 66
1, 720160, Note_on_c, 0, 65, 91
1, 720160, Note_off_c, 0, 45, 65
1, 720182, Note_off_c, 0, 65, 68
1, 720191, Note_off_c, 0, 53, 62
1, 720303, Note_on_c, 0, 57, 93
1, 720303, Control_c, 0, 64, 73
1, 720306, Note_on_c, 0, 45, 82
1, 720315, Note_on_c, 0, 81, 93
1, 720318, Control_c, 0, 64, 30
1, 720321, Note_on_c, 0, 69, 86
1, 720333, Control_c, 0, 64, 0
1, 720355, Control_c, 0, 64, 44
1, 720370, Control_c, 0, 64, 68
1, 720371, Note_off_c, 0, 69, 62
1, 720384, Control_c, 0, 64, 113
1, 720399, Control_c, 0, 64, 127
1, 720417, Note_off_c, 0, 57, 62
1, 720455, Note_off_c, 0, 45, 59
1, 720456, Note_on_c, 0, 53, 72
1, 720457, Note_on_c, 0, 77, 87
1, 720461, Note_off_c, 0, 81, 60
1, 720509, Note_on_c, 0, 60, 85
1, 720518, Note_on_c, 0, 84, 87
1, 720527, Note_off_c, 0, 53, 62
1, 720528, Note_off_c, 0, 77, 66
1, 720529, Note_off_c, 0, 60, 72
1, 720533, Note_off_c, 0, 84, 76
1, 720678, Note_on_c, 0, 44, 98
1, 720681, Control_c, 0, 64, 86
1, 720682, Note_on_c, 0, 32, 94
1, 720687, Note_on_c, 0, 68, 88
1, 720696, Control_c, 0, 64, 54
1, 720710, Control_c, 0, 64, 0
1, 720768, Note_off_c, 0, 32, 61
1, 720781, Note_off_c, 0, 44, 65
1, 720796, Note_on_c, 0, 42, 61
1, 720813, Note_on_c, 0, 41, 78
1, 720814, Control_c, 0, 64, 56
1, 720818, Note_off_c, 0, 68, 59
1, 720821, Note_on_c, 0, 65, 85
1, 720828, Note_off_c, 0, 42, 58
1, 720829, Control_c, 0, 64, 83
1, 720844, Control_c, 0, 64, 127
1, 720863, Note_on_c, 0, 49, 90
1, 720873, Note_off_c, 0, 65, 64
1, 720875, Note_on_c, 0, 73, 86
1, 720875, Note_off_c, 0, 41, 66
1, 720885, Note_off_c, 0, 49, 71
1, 720892, Note_off_c, 0, 73, 73
1, 721074, Note_on_c, 0, 69, 99
1, 721075, Note_on_c, 0, 81, 99
1, 721077, Note_on_c, 0, 92, 74
1, 721077, Note_on_c, 0, 93, 104
1, 721078, Note_on_c, 0, 57, 76
1, 721082, Control_c, 0, 64, 76
1, 721088, Note_on_c, 0, 56, 60
1, 721105, Control_c, 0, 64, 45
1, 721117, Note_off_c, 0, 56, 63
1, 721120, Control_c, 0, 64, 42
1, 721134, Control_c, 0, 64, 62
1, 721149, Control_c, 0, 64, 81
1, 721155, Note_off_c, 0, 81, 58
1, 721164, Control_c, 0, 64, 127
1, 721175, Note_off_c, 0, 69, 61
1, 721180, Note_off_c, 0, 57, 62
1, 721185, Note_on_c, 0, 64, 50
1, 721196, Poly_aftertouch_c, 0, 55, 0
1, 721206, Note_off_c, 0, 92, 64
1, 721209, Note_off_c, 0, 93, 65
1, 721218, Note_on_c, 0, 88, 82
1, 721260, Note_on_c, 0, 97, 94
1, 721264, Poly_aftertouch_c, 0, 62, 127
1, 721266, Note_on_c, 0, 73, 94
1, 721280, Note_off_c, 0, 73, 74
1, 721281, Note_off_c, 0, 88, 66
1, 721289, Note_off_c, 0, 64, 65
1, 721296, Note_off_c, 0, 97, 64
1, 721298, Poly_aftertouch_c, 0, 62, 0
1, 721459, Note_on_c, 0, 45, 82
1, 721460, Control_c, 0, 64, 70
1, 721461, Note_on_c, 0, 81, 89
1, 721462, Note_on_c, 0, 57, 82
1, 721469, Note_on_c, 0, 69, 87
1, 721475, Control_c, 0, 64, 0
1, 721478, Note_on_c, 0, 80, 53
1, 721499, Note_on_c, 0, 55, 42
1, 721499, Note_off_c, 0, 55, 127
1, 721505, Control_c, 0, 64, 38
1, 721520, Control_c, 0, 64, 65
1, 721521, Note_off_c, 0, 69, 62
1, 721526, Note_off_c, 0, 80, 0
1, 721526, Note_on_c, 0, 80, 22
1, 721534, Note_off_c, 0, 57, 65
1, 721534, Control_c, 0, 64, 94
1, 721542, Poly_aftertouch_c, 0, 49, 0
1, 721549, Control_c, 0, 64, 127
1, 721554, Note_off_c, 0, 45, 57
1, 721564, Poly_aftertouch_c, 0, 49, 0
1, 721565, Note_on_c, 0, 52, 65
1, 721567, Note_off_c, 0, 81, 63
1, 721590, Note_off_c, 0, 80, 42
1, 721598, Note_on_c, 0, 76, 87
1, 721630, Note_on_c, 0, 61, 87
1, 721636, Note_on_c, 0, 85, 89
1, 721650, Note_off_c, 0, 61, 73
1, 721650, Note_off_c, 0, 76, 67
1, 721651, Note_off_c, 0, 52, 64
1, 721656, Note_off_c, 0, 85, 68
1, 721693, Poly_aftertouch_c, 0, 75, 0
1, 721815, Control_c, 0, 64, 77
1, 721821, Note_on_c, 0, 69, 67
1, 721830, Note_on_c, 0, 57, 100
1, 721831, Note_on_c, 0, 33, 87
1, 721831, Control_c, 0, 64, 45
1, 721833, Note_on_c, 0, 45, 93
1, 721853, Control_c, 0, 64, 0
1, 721859, Note_on_c, 0, 68, 40
1, 721868, Control_c, 0, 64, 34
1, 721883, Control_c, 0, 64, 59
1, 721894, Note_off_c, 0, 57, 65
1, 721897, Note_off_c, 0, 68, 32
1, 721898, Control_c, 0, 64, 80
1, 721913, Control_c, 0, 64, 127
1, 721924, Note_off_c, 0, 45, 63
1, 721943, Note_off_c, 0, 33, 61
1, 721947, Note_on_c, 0, 40, 63
1, 721964, Note_off_c, 0, 69, 62
1, 721966, Poly_aftertouch_c, 0, 36, 0
1, 721975, Poly_aftertouch_c, 0, 38, 127
1, 721976, Note_on_c, 0, 64, 80
1, 722021, Poly_aftertouch_c, 0, 38, 0
1, 722023, Note_on_c, 0, 49, 92
1, 722025, Note_on_c, 0, 73, 95
1, 722050, Note_off_c, 0, 64, 65
1, 722052, Note_off_c, 0, 49, 64
1, 722062, Note_off_c, 0, 40, 63
1, 722064, Note_off_c, 0, 73, 58
1, 722181, Note_on_c, 0, 63, 6
1, 722195, Control_c, 0, 64, 67
1, 722210, Note_on_c, 0, 26, 31
1, 722210, Note_on_c, 0, 62, 88
1, 722210, Control_c, 0, 64, 0
1, 722214, Note_on_c, 0, 38, 106
1, 722214, Note_on_c, 0, 50, 97
1, 722216, Note_off_c, 0, 63, 47
1, 722238, Note_on_c, 0, 61, 43
1, 722238, Note_off_c, 0, 61, 127
1, 722239, Control_c, 0, 64, 63
1, 722254, Note_off_c, 0, 26, 65
1, 722254, Control_c, 0, 64, 100
1, 722261, Note_off_c, 0, 50, 65
1, 722265, Note_off_c, 0, 38, 66
1, 722269, Control_c, 0, 64, 127
1, 722351, Note_on_c, 0, 57, 81
1, 722355, Note_off_c, 0, 62, 61
1, 722377, Note_on_c, 0, 45, 49
1, 722398, Note_on_c, 0, 53, 89
1, 722405, Note_off_c, 0, 45, 55
1, 722410, Note_on_c, 0, 65, 98
1, 722419, Note_off_c, 0, 57, 65
1, 722443, Note_off_c, 0, 65, 68
1, 722450, Note_off_c, 0, 53, 65
1, 722565, Control_c, 0, 64, 106
1, 722566, Note_on_c, 0, 45, 81
1, 722567, Note_on_c, 0, 81, 97
1, 722569, Note_on_c, 0, 57, 95
1, 722577, Note_on_c, 0, 69, 96
1, 722580, Control_c, 0, 64, 71
1, 722602, Control_c, 0, 64, 63
1, 722612, Note_on_c, 0, 54, 38
1, 722617, Control_c, 0, 64, 76
1, 722633, Control_c, 0, 64, 127
1, 722640, Note_off_c, 0, 69, 60
1, 722654, Note_off_c, 0, 54, 31
1, 722679, Note_off_c, 0, 57, 64
1, 722682, Note_off_c, 0, 45, 58
1, 722700, Note_on_c, 0, 53, 76
1, 722703, Note_off_c, 0, 81, 60
1, 722710, Note_on_c, 0, 77, 81
1, 722754, Note_on_c, 0, 60, 89
1, 722776, Note_on_c, 0, 84, 83
1, 722790, Note_off_c, 0, 60, 64
1, 722792, Note_off_c, 0, 77, 65
1, 722792, Note_off_c, 0, 53, 64
1, 722797, Note_off_c, 0, 84, 65
1, 722807, Note_on_c, 0, 83, 42
1, 722836, Note_off_c, 0, 83, 57
1, 722927, Note_on_c, 0, 35, 92
1, 722929, Note_on_c, 0, 47, 94
1, 722929, Control_c, 0, 64, 72
1, 722941, Note_on_c, 0, 71, 92
1, 722944, Control_c, 0, 64, 0
1, 722952, Note_on_c, 0, 59, 86
1, 722973, Control_c, 0, 64, 54
1, 722988, Control_c, 0, 64, 74
1, 722989, Note_on_c, 0, 57, 27
1, 722989, Note_off_c, 0, 57, 127
1, 723003, Note_off_c, 0, 59, 58
1, 723003, Control_c, 0, 64, 127
1, 723038, Note_off_c, 0, 47, 64
1, 723055, Note_on_c, 0, 43, 76
1, 723060, Note_on_c, 0, 67, 86
1, 723060, Note_off_c, 0, 71, 59
1, 723068, Note_off_c, 0, 35, 32
1, 723111, Note_on_c, 0, 50, 91
1, 723126, Note_on_c, 0, 74, 102
1, 723129, Note_off_c, 0, 43, 61
1, 723135, Note_off_c, 0, 67, 67
1, 723135, Note_off_c, 0, 50, 69
1, 723152, Note_off_c, 0, 74, 70
1, 723276, Note_on_c, 0, 97, 38
1, 723306, Note_off_c, 0, 97, 46
1, 723314, Control_c, 0, 64, 101
1, 723329, Note_on_c, 0, 96, 101
1, 723329, Control_c, 0, 64, 62
1, 723329, Note_on_c, 0, 72, 96
1, 723332, Note_on_c, 0, 84, 94
1, 723332, Note_on_c, 0, 60, 88
1, 723344, Control_c, 0, 64, 0
1, 723366, Control_c, 0, 64, 39
1, 723380, Control_c, 0, 64, 64
1, 723395, Control_c, 0, 64, 101
1, 723410, Control_c, 0, 64, 127
1, 723442, Note_off_c, 0, 72, 61
1, 723446, Note_off_c, 0, 84, 62
1, 723453, Note_on_c, 0, 67, 76
1, 723457, Note_on_c, 0, 91, 87
1, 723474, Note_off_c, 0, 60, 59
1, 723475, Note_off_c, 0, 96, 65
1, 723508, Note_off_c, 0, 67, 68
1, 723518, Note_on_c, 0, 76, 87
1, 723520, Note_on_c, 0, 100, 99
1, 723533, Note_off_c, 0, 91, 69
1, 723538, Note_off_c, 0, 76, 68
1, 723557, Note_off_c, 0, 100, 65
1, 723677, Control_c, 0, 64, 91
1, 723692, Note_on_c, 0, 48, 92
1, 723692, Note_on_c, 0, 60, 89
1, 723692, Control_c, 0, 64, 64
1, 723695, Note_on_c, 0, 84, 95
1, 723699, Note_on_c, 0, 72, 90
1, 723707, Control_c, 0, 64, 50
1, 723716, Note_on_c, 0, 74, 61
1, 723721, Control_c, 0, 64, 63
1, 723736, Control_c, 0, 64, 91
1, 723738, Note_off_c, 0, 74, 38
1, 723746, Note_off_c, 0, 72, 64
1, 723751, Control_c, 0, 64, 127
1, 723785, Note_off_c, 0, 60, 58
1, 723803, Note_on_c, 0, 56, 81
1, 723803, Note_off_c, 0, 48, 58
1, 723812, Note_on_c, 0, 80, 89
1, 723829, Note_off_c, 0, 84, 64
1, 723866, Note_off_c, 0, 56, 64
1, 723870, Note_on_c, 0, 89, 90
1, 723874, Note_on_c, 0, 65, 76
1, 723878, Note_off_c, 0, 80, 66
1, 723892, Note_off_c, 0, 89, 64
1, 723896, Note_off_c, 0, 65, 71
1, 723910, Note_on_c, 0, 64, 27
1, 723948, Note_off_c, 0, 64, 55
1, 724047, Control_c, 0, 64, 72
1, 724053, Note_on_c, 0, 48, 99
1, 724056, Note_on_c, 0, 36, 91
1, 724056, Note_on_c, 0, 72, 83
1, 724058, Note_on_c, 0, 74, 82
1, 724062, Note_on_c, 0, 60, 85
1, 724062, Control_c, 0, 64, 0
1, 724077, Note_on_c, 0, 62, 52
1, 724079, Note_off_c, 0, 74, 69
1, 724099, Control_c, 0, 64, 49
1, 724110, Note_off_c, 0, 62, 36
1, 724114, Control_c, 0, 64, 70
1, 724128, Control_c, 0, 64, 127
1, 724135, Note_off_c, 0, 60, 58
1, 724162, Note_off_c, 0, 36, 61
1, 724173, Note_on_c, 0, 42, 34
1, 724173, Note_off_c, 0, 48, 60
1, 724188, Note_on_c, 0, 43, 77
1, 724193, Note_off_c, 0, 72, 62
1, 724195, Note_on_c, 0, 67, 88
1, 724212, Note_off_c, 0, 42, 51
1, 724246, Note_on_c, 0, 52, 92
1, 724256, Note_on_c, 0, 76, 93
1, 724274, Note_off_c, 0, 67, 65
1, 724276, Note_off_c, 0, 52, 64
1, 724279, Note_off_c, 0, 43, 64
1, 724292, Note_off_c, 0, 76, 64
1, 724411, Control_c, 0, 64, 72
1, 724416, Note_on_c, 0, 41, 104
1, 724417, Note_on_c, 0, 29, 104
1, 724418, Note_on_c, 0, 65, 95
1, 724426, Control_c, 0, 64, 44
1, 724429, Note_on_c, 0, 53, 99
1, 724441, Control_c, 0, 64, 36
1, 724456, Control_c, 0, 64, 59
1, 724456, Note_off_c, 0, 29, 64
1, 724462, Note_off_c, 0, 41, 67
1, 724465, Note_off_c, 0, 53, 67
1, 724471, Control_c, 0, 64, 90
1, 724486, Control_c, 0, 64, 127
1, 724561, Note_on_c, 0, 60, 84
1, 724566, Note_off_c, 0, 65, 59
1, 724576, Note_on_c, 0, 48, 80
1, 724608, Note_off_c, 0, 48, 63
1, 724614, Note_on_c, 0, 57, 88
1, 724627, Note_on_c, 0, 69, 90
1, 724629, Note_off_c, 0, 60, 67
1, 724651, Note_off_c, 0, 69, 66
1, 724657, Note_off_c, 0, 57, 65
1, 724773, Note_on_c, 0, 53, 72
1, 724776, Note_on_c, 0, 65, 86
1, 724778, Note_on_c, 0, 89, 94
1, 724781, Control_c, 0, 64, 82
1, 724784, Note_on_c, 0, 77, 97
1, 724796, Control_c, 0, 64, 64
1, 724811, Control_c, 0, 64, 68
1, 724816, Note_on_c, 0, 79, 41
1, 724816, Note_off_c, 0, 79, 127
1, 724825, Control_c, 0, 64, 98
1, 724834, Note_off_c, 0, 77, 62
1, 724848, Control_c, 0, 64, 127
1, 724852, Note_off_c, 0, 65, 63
1, 724891, Note_off_c, 0, 53, 38
1, 724897, Note_on_c, 0, 84, 90
1, 724903, Note_on_c, 0, 60, 71
1, 724910, Note_off_c, 0, 89, 62
1, 724941, Note_on_c, 0, 69, 95
1, 724943, Note_off_c, 0, 60, 66
1, 724968, Note_off_c, 0, 69, 62
1, 724969, Note_off_c, 0, 84, 70
1, 724971, Poly_aftertouch_c, 0, 61, 127
1, 724971, Note_on_c, 0, 91, 62
1, 724988, Note_on_c, 0, 93, 33
1, 724988, Note_off_c, 0, 93, 127
1, 724991, Note_off_c, 0, 91, 61
1, 725001, Poly_aftertouch_c, 0, 61, 0
1, 725024, Poly_aftertouch_c, 0, 61, 0
1, 725129, Note_on_c, 0, 47, 99
1, 725129, Note_on_c, 0, 71, 90
1, 725130, Control_c, 0, 64, 93
1, 725131, Note_on_c, 0, 59, 100
1, 725132, Note_on_c, 0, 35, 95
1, 725145, Control_c, 0, 64, 55
1, 725155, Note_on_c, 0, 70, 59
1, 725155, Note_off_c, 0, 70, 127
1, 725161, Control_c, 0, 64, 0
1, 725162, Note_on_c, 0, 60, 46
1, 725162, Note_off_c, 0, 60, 127
1, 725166, Note_off_c, 0, 35, 63
1, 725175, Note_off_c, 0, 47, 64
1, 725177, Note_off_c, 0, 59, 65
1, 725205, Control_c, 0, 64, 56
1, 725220, Control_c, 0, 64, 82
1, 725223, Note_on_c, 0, 42, 90
1, 725235, Control_c, 0, 64, 127
1, 725248, Note_on_c, 0, 41, 69
1, 725250, Note_on_c, 0, 66, 90
1, 725269, Note_off_c, 0, 71, 60
1, 725279, Note_off_c, 0, 41, 57
1, 725310, Note_on_c, 0, 51, 86
1, 725315, Note_off_c, 0, 66, 67
1, 725320, Note_on_c, 0, 75, 76
1, 725332, Note_off_c, 0, 42, 59
1, 725332, Note_off_c, 0, 51, 67
1, 725337, Note_off_c, 0, 75, 69
1, 725472, Control_c, 0, 64, 97
1, 725476, Note_on_c, 0, 28, 100
1, 725479, Note_on_c, 0, 40, 95
1, 725481, Note_on_c, 0, 64, 84
1, 725484, Note_on_c, 0, 52, 106
1, 725487, Control_c, 0, 64, 56
1, 725501, Control_c, 0, 64, 0
1, 725503, Note_on_c, 0, 30, 20
1, 725508, Note_on_c, 0, 63, 49
1, 725508, Note_off_c, 0, 63, 127
1, 725516, Control_c, 0, 64, 45
1, 725517, Note_off_c, 0, 28, 64
1, 725529, Note_off_c, 0, 40, 64
1, 725531, Control_c, 0, 64, 66
1, 725535, Note_off_c, 0, 30, 42
1, 725541, Note_off_c, 0, 52, 64
1, 725546, Control_c, 0, 64, 99
1, 725561, Control_c, 0, 64, 127
1, 725601, Note_off_c, 0, 64, 64
1, 725636, Note_on_c, 0, 59, 89
1, 725639, Note_on_c, 0, 48, 92
1, 725667, Poly_aftertouch_c, 0, 63, 0
1, 725672, Note_off_c, 0, 48, 60
1, 725681, Note_on_c, 0, 56, 93
1, 725689, Note_on_c, 0, 68, 85
1, 725692, Note_off_c, 0, 59, 65
1, 725720, Note_off_c, 0, 56, 55
1, 725721, Note_on_c, 0, 57, 40
1, 725726, Note_off_c, 0, 68, 62
1, 725749, Note_off_c, 0, 57, 55
1, 725839, Note_on_c, 0, 52, 76
1, 725841, Note_on_c, 0, 88, 96
1, 725843, Note_on_c, 0, 64, 90
1, 725851, Note_on_c, 0, 76, 97
1, 725851, Control_c, 0, 64, 81
1, 725865, Control_c, 0, 64, 62
1, 725880, Control_c, 0, 64, 65
1, 725895, Note_off_c, 0, 76, 65
1, 725895, Control_c, 0, 64, 88
1, 725910, Control_c, 0, 64, 127
1, 725934, Note_off_c, 0, 88, 64
1, 725940, Note_off_c, 0, 64, 61
1, 725943, Note_off_c, 0, 52, 56
1, 725958, Note_on_c, 0, 83, 90
1, 725964, Note_on_c, 0, 59, 69
1, 726015, Note_on_c, 0, 67, 84
1, 726022, Note_on_c, 0, 91, 86
1, 726036, Note_off_c, 0, 67, 71
1, 726041, Note_off_c, 0, 59, 62
1, 726041, Note_off_c, 0, 83, 65
1, 726041, Note_off_c, 0, 91, 74
1, 726217, Note_on_c, 0, 34, 71
1, 726218, Note_on_c, 0, 46, 71
1, 726220, Note_on_c, 0, 70, 79
1, 726232, Note_on_c, 0, 58, 84
1, 726235, Control_c, 0, 64, 95
1, 726250, Control_c, 0, 64, 59
1, 726265, Control_c, 0, 64, 0
1, 726295, Control_c, 0, 64, 36
1, 726310, Control_c, 0, 64, 65
1, 726324, Control_c, 0, 64, 107
1, 726346, Control_c, 0, 64, 127
1, 726348, Note_on_c, 0, 41, 80
1, 726355, Note_off_c, 0, 58, 57
1, 726355, Note_off_c, 0, 46, 60
1, 726361, Note_on_c, 0, 65, 70
1, 726361, Note_off_c, 0, 70, 62
1, 726373, Note_off_c, 0, 34, 59
1, 726438, Note_on_c, 0, 50, 78
1, 726441, Note_on_c, 0, 72, 57
1, 726445, Note_off_c, 0, 41, 56
1, 726446, Note_on_c, 0, 74, 57
1, 726459, Note_off_c, 0, 65, 62
1, 726462, Note_off_c, 0, 50, 68
1, 726467, Note_off_c, 0, 74, 60
1, 726468, Note_off_c, 0, 72, 65
1, 726505, Poly_aftertouch_c, 0, 42, 127
1, 726534, Poly_aftertouch_c, 0, 42, 0
1, 726629, Note_on_c, 0, 62, 76
1, 726636, Note_on_c, 0, 26, 67
1, 726640, Note_on_c, 0, 38, 84
1, 726644, Note_on_c, 0, 50, 81
1, 726659, Control_c, 0, 64, 80
1, 726673, Control_c, 0, 64, 50
1, 726688, Control_c, 0, 64, 0
1, 726693, Note_off_c, 0, 26, 62
1, 726703, Control_c, 0, 64, 37
1, 726718, Control_c, 0, 64, 66
1, 726721, Note_off_c, 0, 50, 40
1, 726733, Control_c, 0, 64, 114
1, 726742, Note_off_c, 0, 38, 63
1, 726747, Control_c, 0, 64, 127
1, 726796, Note_on_c, 0, 57, 73
1, 726802, Note_off_c, 0, 62, 57
1, 726817, Note_on_c, 0, 41, 58
1, 726845, Note_off_c, 0, 41, 57
1, 726856, Note_on_c, 0, 65, 90
1, 726860, Note_on_c, 0, 50, 73
1, 726865, Note_off_c, 0, 57, 64
1, 726888, Note_off_c, 0, 50, 67
1, 726894, Note_off_c, 0, 65, 67
1, 726984, Control_c, 0, 64, 108
1, 726999, Control_c, 0, 64, 77
1, 727002, Note_on_c, 0, 50, 77
1, 727008, Note_on_c, 0, 62, 82
1, 727013, Note_on_c, 0, 86, 99
1, 727014, Control_c, 0, 64, 73
1, 727016, Note_on_c, 0, 74, 94
1, 727028, Control_c, 0, 64, 99
1, 727043, Control_c, 0, 64, 127
1, 727055, Note_off_c, 0, 74, 65
1, 727118, Note_off_c, 0, 50, 55
1, 727119, Note_off_c, 0, 62, 62
1, 727133, Note_on_c, 0, 57, 73
1, 727135, Note_on_c, 0, 81, 85
1, 727141, Note_off_c, 0, 86, 64
1, 727190, Note_on_c, 0, 65, 83
1, 727198, Note_off_c, 0, 57, 65
1, 727204, Note_on_c, 0, 89, 86
1, 727210, Note_off_c, 0, 65, 70
1, 727216, Note_off_c, 0, 81, 67
1, 727223, Note_off_c, 0, 89, 68
1, 727250, Note_on_c, 0, 88, 15
1, 727294, Note_off_c, 0, 88, 46
1, 727405, Note_on_c, 0, 44, 80
1, 727410, Note_on_c, 0, 32, 85
1, 727410, Note_on_c, 0, 68, 94
1, 727418, Note_on_c, 0, 56, 88
1, 727447, Note_off_c, 0, 32, 60
1, 727451, Control_c, 0, 64, 74
1, 727466, Control_c, 0, 64, 49
1, 727481, Control_c, 0, 64, 40
1, 727495, Control_c, 0, 64, 60
1, 727510, Control_c, 0, 64, 82
1, 727515, Note_off_c, 0, 44, 61
1, 727522, Note_on_c, 0, 39, 79
1, 727525, Control_c, 0, 64, 127
1, 727539, Note_off_c, 0, 56, 51
1, 727553, Note_on_c, 0, 63, 79
1, 727589, Note_off_c, 0, 68, 58
1, 727602, Note_off_c, 0, 39, 65
1, 727622, Note_on_c, 0, 72, 92
1, 727628, Note_on_c, 0, 48, 98
1, 727647, Note_off_c, 0, 63, 63
1, 727677, Note_on_c, 0, 40, 3
1, 727681, Note_off_c, 0, 40, 0
1, 727684, Note_off_c, 0, 48, 62
1, 727703, Note_off_c, 0, 72, 58
1, 727713, Poly_aftertouch_c, 0, 37, 127
1, 727716, Poly_aftertouch_c, 0, 40, 0
1, 727746, Poly_aftertouch_c, 0, 37, 0
1, 727768, Poly_aftertouch_c, 0, 38, 127
1, 727794, Note_on_c, 0, 45, 99
1, 727800, Note_on_c, 0, 57, 99
1, 727802, Note_on_c, 0, 33, 90
1, 727803, Note_on_c, 0, 69, 83
1, 727821, Control_c, 0, 64, 91
1, 727824, Note_on_c, 0, 68, 61
1, 727834, Poly_aftertouch_c, 0, 38, 0
1, 727843, Control_c, 0, 64, 51
1, 727858, Control_c, 0, 64, 0
1, 727873, Control_c, 0, 64, 40
1, 727875, Note_off_c, 0, 68, 0
1, 727875, Note_on_c, 0, 68, 27
1, 727888, Control_c, 0, 64, 70
1, 727902, Control_c, 0, 64, 127
1, 727907, Note_off_c, 0, 57, 59
1, 727909, Note_off_c, 0, 45, 64
1, 727913, Note_off_c, 0, 68, 0
1, 727913, Note_on_c, 0, 68, 14
1, 727924, Note_on_c, 0, 40, 75
1, 727940, Note_off_c, 0, 33, 59
1, 727961, Note_on_c, 0, 64, 83
1, 727965, Note_off_c, 0, 68, 48
1, 727981, Note_off_c, 0, 69, 61
1, 728009, Note_on_c, 0, 49, 98
1, 728015, Note_on_c, 0, 73, 93
1, 728024, Note_off_c, 0, 64, 68
1, 728027, Note_off_c, 0, 40, 62
1, 728033, Note_off_c, 0, 49, 68
1, 728053, Note_off_c, 0, 73, 65
1, 728190, Note_on_c, 0, 57, 98
1, 728191, Note_on_c, 0, 45, 93
1, 728194, Note_on_c, 0, 81, 97
1, 728200, Note_on_c, 0, 69, 99
1, 728230, Control_c, 0, 64, 78
1, 728235, Note_on_c, 0, 80, 39
1, 728235, Note_off_c, 0, 80, 127
1, 728244, Control_c, 0, 64, 68
1, 728259, Control_c, 0, 64, 88
1, 728274, Control_c, 0, 64, 127
1, 728319, Note_off_c, 0, 69, 58
1, 728330, Note_off_c, 0, 57, 61
1, 728352, Note_on_c, 0, 52, 77
1, 728358, Note_on_c, 0, 76, 88
1, 728360, Note_off_c, 0, 45, 62
1, 728376, Note_on_c, 0, 50, 44
1, 728383, Note_off_c, 0, 81, 63
1, 728406, Note_off_c, 0, 50, 65
1, 728415, Note_on_c, 0, 61, 90
1, 728420, Note_on_c, 0, 85, 95
1, 728426, Note_off_c, 0, 76, 68
1, 728427, Note_off_c, 0, 52, 63
1, 728438, Note_off_c, 0, 61, 69
1, 728453, Note_off_c, 0, 85, 67
1, 728642, Note_on_c, 0, 69, 100
1, 728642, Note_on_c, 0, 57, 92
1, 728646, Note_on_c, 0, 93, 101
1, 728647, Note_on_c, 0, 81, 105
1, 728666, Control_c, 0, 64, 84
1, 728675, Note_on_c, 0, 92, 53
1, 728681, Control_c, 0, 64, 72
1, 728686, Note_off_c, 0, 92, 43
1, 728696, Control_c, 0, 64, 83
1, 728711, Control_c, 0, 64, 127
1, 728764, Note_off_c, 0, 69, 63
1, 728780, Note_off_c, 0, 81, 50
1, 728807, Note_on_c, 0, 64, 67
1, 728820, Note_off_c, 0, 57, 62
1, 728829, Note_on_c, 0, 88, 81
1, 728841, Note_on_c, 0, 62, 23
1, 728841, Note_off_c, 0, 93, 62
1, 728885, Note_on_c, 0, 73, 109
1, 728888, Note_on_c, 0, 97, 101
1, 728912, Note_off_c, 0, 88, 67
1, 728913, Note_off_c, 0, 73, 66
1, 728924, Note_off_c, 0, 97, 66
1, 728927, Note_off_c, 0, 64, 64
1, 728933, Note_off_c, 0, 62, 34
1, 729002, Poly_aftertouch_c, 0, 65, 0
1, 729113, Note_on_c, 0, 62, 54
1, 729125, Note_on_c, 0, 30, 15
1, 729148, Poly_aftertouch_c, 0, 32, 127
1, 729167, Note_on_c, 0, 28, 92
1, 729168, Note_on_c, 0, 40, 96
1, 729172, Control_c, 0, 64, 68
1, 729176, Note_on_c, 0, 50, 97
1, 729186, Poly_aftertouch_c, 0, 32, 0
1, 729186, Control_c, 0, 64, 40
1, 729201, Control_c, 0, 64, 43
1, 729216, Control_c, 0, 64, 63
1, 729218, Note_off_c, 0, 28, 66
1, 729231, Control_c, 0, 64, 82
1, 729232, Note_off_c, 0, 40, 65
1, 729246, Control_c, 0, 64, 127
1, 729248, Note_off_c, 0, 30, 33
1, 729265, Note_off_c, 0, 50, 52
1, 729318, Note_off_c, 0, 62, 53
1, 729346, Note_on_c, 0, 57, 83
1, 729370, Note_on_c, 0, 47, 54
1, 729389, Note_on_c, 0, 53, 86
1, 729398, Note_off_c, 0, 47, 55
1, 729402, Note_on_c, 0, 65, 91
1, 729413, Note_off_c, 0, 57, 66
1, 729438, Note_off_c, 0, 65, 67
1, 729443, Note_off_c, 0, 53, 64
1, 729520, Control_c, 0, 64, 87
1, 729535, Control_c, 0, 64, 62
1, 729538, Note_on_c, 0, 45, 80
1, 729540, Note_on_c, 0, 57, 90
1, 729547, Note_on_c, 0, 81, 96
1, 729549, Note_on_c, 0, 69, 102
1, 729549, Control_c, 0, 64, 57
1, 729557, Note_on_c, 0, 59, 68
1, 729557, Note_off_c, 0, 59, 127
1, 729564, Control_c, 0, 64, 74
1, 729579, Control_c, 0, 64, 127
1, 729605, Note_off_c, 0, 69, 55
1, 729624, Note_off_c, 0, 57, 61
1, 729658, Note_on_c, 0, 53, 79
1, 729663, Note_off_c, 0, 45, 57
1, 729666, Note_on_c, 0, 77, 78
1, 729666, Note_off_c, 0, 81, 61
1, 729714, Note_on_c, 0, 60, 97
1, 729731, Note_on_c, 0, 84, 84
1, 729745, Note_off_c, 0, 60, 68
1, 729747, Note_off_c, 0, 84, 75
1, 729748, Note_off_c, 0, 77, 66
1, 729755, Note_off_c, 0, 53, 64
1, 729895, Note_on_c, 0, 44, 100
1, 729902, Note_on_c, 0, 32, 93
1, 729914, Note_on_c, 0, 68, 90
1, 729920, Note_on_c, 0, 56, 83
1, 729978, Control_c, 0, 64, 96
1, 729983, Note_off_c, 0, 56, 59
1, 729993, Control_c, 0, 64, 60
1, 730008, Control_c, 0, 64, 0
1, 730013, Note_off_c, 0, 44, 62
1, 730026, Note_on_c, 0, 41, 81
1, 730032, Note_on_c, 0, 65, 79
1, 730037, Note_off_c, 0, 68, 62
1, 730052, Note_off_c, 0, 32, 56
1, 730052, Control_c, 0, 64, 37
1, 730067, Control_c, 0, 64, 70
1, 730089, Control_c, 0, 64, 127
1, 730096, Note_on_c, 0, 49, 95
1, 730101, Note_on_c, 0, 73, 88
1, 730110, Note_off_c, 0, 65, 65
1, 730111, Note_off_c, 0, 41, 64
1, 730118, Note_off_c, 0, 49, 71
1, 730124, Note_off_c, 0, 73, 65
1, 730249, Note_on_c, 0, 94, 46
1, 730268, Note_off_c, 0, 94, 0
1, 730286, Note_on_c, 0, 94, 60
1, 730296, Control_c, 0, 64, 112
1, 730298, Note_on_c, 0, 69, 99
1, 730300, Note_on_c, 0, 57, 88
1, 730303, Note_on_c, 0, 81, 84
1, 730310, Note_on_c, 0, 83, 81
1, 730311, Control_c, 0, 64, 68
1, 730326, Control_c, 0, 64, 44
1, 730341, Control_c, 0, 64, 49
1, 730351, Note_off_c, 0, 83, 55
1, 730356, Control_c, 0, 64, 65
1, 730367, Note_off_c, 0, 94, 64
1, 730370, Control_c, 0, 64, 85
1, 730373, Note_off_c, 0, 81, 0
1, 730385, Control_c, 0, 64, 127
1, 730387, Note_on_c, 0, 93, 41
1, 730395, Note_off_c, 0, 69, 57
1, 730409, Note_on_c, 0, 88, 82
1, 730409, Poly_aftertouch_c, 0, 81, 127
1, 730411, Note_on_c, 0, 63, 84
1, 730417, Poly_aftertouch_c, 0, 81, 0
1, 730418, Note_off_c, 0, 57, 62
1, 730423, Note_off_c, 0, 93, 62
1, 730433, Note_on_c, 0, 64, 81
1, 730434, Note_on_c, 0, 62, 53
1, 730468, Note_off_c, 0, 62, 63
1, 730482, Note_on_c, 0, 97, 99
1, 730492, Note_on_c, 0, 73, 88
1, 730504, Note_off_c, 0, 88, 66
1, 730509, Note_off_c, 0, 63, 38
1, 730510, Note_off_c, 0, 73, 73
1, 730513, Note_off_c, 0, 64, 66
1, 730519, Note_off_c, 0, 97, 65
1, 730665, Note_on_c, 0, 58, 101
1, 730668, Control_c, 0, 64, 85
1, 730668, Note_on_c, 0, 46, 90
1, 730674, Note_on_c, 0, 82, 94
1, 730677, Note_on_c, 0, 70, 96
1, 730683, Control_c, 0, 64, 50
1, 730694, Note_on_c, 0, 78, 64
1, 730698, Control_c, 0, 64, 0
1, 730707, Note_on_c, 0, 83, 53
1, 730712, Control_c, 0, 64, 34
1, 730720, Note_off_c, 0, 78, 66
1, 730722, Note_on_c, 0, 71, 35
1, 730725, Note_off_c, 0, 70, 65
1, 730727, Control_c, 0, 64, 60
1, 730732, Note_off_c, 0, 83, 55
1, 730742, Control_c, 0, 64, 86
1, 730754, Note_off_c, 0, 71, 34
1, 730757, Control_c, 0, 64, 127
1, 730766, Note_off_c, 0, 58, 61
1, 730794, Poly_aftertouch_c, 0, 72, 0
1, 730794, Note_off_c, 0, 82, 60
1, 730796, Note_on_c, 0, 53, 75
1, 730798, Note_on_c, 0, 77, 76
1, 730830, Note_off_c, 0, 46, 58
1, 730861, Note_on_c, 0, 61, 91
1, 730880, Note_off_c, 0, 61, 73
1, 730882, Note_on_c, 0, 85, 78
1, 730891, Note_off_c, 0, 53, 63
1, 730892, Note_off_c, 0, 77, 65
1, 730903, Note_off_c, 0, 85, 71
1, 731045, Control_c, 0, 64, 69
1, 731054, Note_on_c, 0, 69, 93
1, 731055, Note_on_c, 0, 33, 95
1, 731055, Note_on_c, 0, 57, 96
1, 731058, Note_on_c, 0, 45, 96
1, 731060, Control_c, 0, 64, 0
1, 731077, Note_on_c, 0, 68, 61
1, 731090, Control_c, 0, 64, 35
1, 731099, Note_on_c, 0, 36, 27
1, 731103, Note_off_c, 0, 68, 38
1, 731105, Note_off_c, 0, 57, 65
1, 731105, Control_c, 0, 64, 63
1, 731119, Control_c, 0, 64, 99
1, 731132, Note_off_c, 0, 45, 62
1, 731134, Control_c, 0, 64, 127
1, 731147, Note_off_c, 0, 36, 49
1, 731161, Note_on_c, 0, 40, 58
1, 731174, Note_off_c, 0, 33, 60
1, 731180, Note_off_c, 0, 69, 61
1, 731186, Note_on_c, 0, 64, 68
1, 731209, Note_on_c, 0, 63, 52
1, 731220, Poly_aftertouch_c, 0, 38, 127
1, 731240, Note_off_c, 0, 63, 34
1, 731241, Note_on_c, 0, 49, 89
1, 731241, Note_on_c, 0, 73, 90
1, 731262, Note_off_c, 0, 49, 72
1, 731262, Poly_aftertouch_c, 0, 38, 0
1, 731264, Note_off_c, 0, 64, 66
1, 731272, Note_off_c, 0, 40, 62
1, 731278, Note_off_c, 0, 73, 63
1, 731378, Note_on_c, 0, 30, 33
1, 731386, Control_c, 0, 64, 87
1, 731401, Control_c, 0, 64, 51
1, 731412, Note_off_c, 0, 30, 48
1, 731416, Control_c, 0, 64, 0
1, 731422, Note_on_c, 0, 26, 79
1, 731423, Note_on_c, 0, 38, 92
1, 731424, Note_on_c, 0, 50, 103
1, 731427, Note_on_c, 0, 62, 94
1, 731431, Control_c, 0, 64, 37
1, 731433, Note_on_c, 0, 36, 80
1, 731438, Note_on_c, 0, 61, 67
1, 731446, Control_c, 0, 64, 64
1, 731455, Note_off_c, 0, 36, 62
1, 731461, Control_c, 0, 64, 118
1, 731463, Note_off_c, 0, 38, 65
1, 731463, Note_off_c, 0, 26, 65
1, 731466, Note_off_c, 0, 50, 66
1, 731476, Control_c, 0, 64, 127
1, 731482, Note_off_c, 0, 61, 0
1, 731482, Note_on_c, 0, 61, 35
1, 731547, Note_off_c, 0, 62, 57
1, 731558, Note_on_c, 0, 57, 79
1, 731588, Note_on_c, 0, 43, 55
1, 731607, Note_off_c, 0, 61, 44
1, 731617, Note_off_c, 0, 43, 59
1, 731630, Note_on_c, 0, 65, 97
1, 731637, Note_off_c, 0, 57, 66
1, 731640, Note_on_c, 0, 52, 59
1, 731661, Note_off_c, 0, 65, 67
1, 731666, Note_on_c, 0, 53, 41
1, 731667, Note_off_c, 0, 52, 57
1, 731699, Note_off_c, 0, 53, 52
1, 731750, Control_c, 0, 64, 78
1, 731765, Control_c, 0, 64, 38
1, 731771, Note_on_c, 0, 56, 97
1, 731774, Note_on_c, 0, 44, 87
1, 731780, Control_c, 0, 64, 0
1, 731783, Note_on_c, 0, 68, 99
1, 731786, Note_on_c, 0, 80, 96
1, 731809, Control_c, 0, 64, 58
1, 731824, Control_c, 0, 64, 127
1, 731838, Note_off_c, 0, 68, 59
1, 731864, Note_off_c, 0, 56, 53
1, 731892, Poly_aftertouch_c, 0, 70, 0
1, 731894, Note_off_c, 0, 80, 59
1, 731910, Note_on_c, 0, 53, 67
1, 731915, Note_on_c, 0, 77, 78
1, 731917, Note_off_c, 0, 44, 56
1, 731968, Note_on_c, 0, 60, 90
1, 731974, Note_on_c, 0, 84, 78
1, 731985, Note_on_c, 0, 54, 47
1, 731996, Note_off_c, 0, 84, 65
1, 732000, Note_on_c, 0, 83, 55
1, 732000, Note_off_c, 0, 77, 65
1, 732003, Note_off_c, 0, 60, 67
1, 732012, Note_off_c, 0, 54, 58
1, 732017, Note_off_c, 0, 53, 62
1, 732023, Note_off_c, 0, 83, 64
1, 732131, Note_on_c, 0, 47, 96
1, 732132, Note_on_c, 0, 35, 94
1, 732135, Control_c, 0, 64, 108
1, 732150, Control_c, 0, 64, 66
1, 732152, Note_on_c, 0, 71, 92
1, 732155, Note_on_c, 0, 59, 94
1, 732165, Control_c, 0, 64, 0
1, 732173, Note_on_c, 0, 72, 49
1, 732173, Note_off_c, 0, 72, 127
1, 732180, Note_on_c, 0, 60, 46
1, 732180, Note_off_c, 0, 60, 127
1, 732194, Control_c, 0, 64, 47
1, 732199, Note_on_c, 0, 37, 3
1, 732211, Control_c, 0, 64, 66
1, 732226, Control_c, 0, 64, 95
1, 732239, Note_off_c, 0, 37, 26
1, 732240, Control_c, 0, 64, 127
1, 732242, Note_off_c, 0, 59, 58
1, 732277, Note_on_c, 0, 43, 81
1, 732278, Note_off_c, 0, 47, 61
1, 732280, Note_on_c, 0, 67, 88
1, 732280, Note_off_c, 0, 71, 59
1, 732307, Note_off_c, 0, 35, 62
1, 732341, Note_on_c, 0, 50, 80
1, 732343, Note_on_c, 0, 74, 104
1, 732349, Note_off_c, 0, 43, 64
1, 732352, Note_off_c, 0, 67, 68
1, 732367, Note_off_c, 0, 50, 67
1, 732371, Note_off_c, 0, 74, 71
1, 732409, Poly_aftertouch_c, 0, 65, 0
1, 732544, Control_c, 0, 64, 103
1, 732559, Control_c, 0, 64, 64
1, 732560, Note_on_c, 0, 96, 101
1, 732561, Note_on_c, 0, 60, 92
1, 732562, Note_on_c, 0, 72, 100
1, 732562, Note_on_c, 0, 84, 103
1, 732574, Control_c, 0, 64, 0
1, 732589, Control_c, 0, 64, 32
1, 732604, Control_c, 0, 64, 61
1, 732618, Control_c, 0, 64, 89
1, 732620, Note_on_c, 0, 67, 14
1, 732633, Control_c, 0, 64, 127
1, 732635, Note_off_c, 0, 84, 54
1, 732679, Note_off_c, 0, 67, 0
1, 732692, Note_on_c, 0, 67, 61
1, 732695, Note_on_c, 0, 91, 89
1, 732696, Note_off_c, 0, 72, 62
1, 732710, Note_off_c, 0, 96, 67
1, 732727, Note_off_c, 0, 60, 57
1, 732756, Note_off_c, 0, 67, 67
1, 732764, Note_on_c, 0, 76, 96
1, 732764, Note_on_c, 0, 100, 100
1, 732776, Note_off_c, 0, 91, 70
1, 732790, Note_off_c, 0, 76, 62
1, 732790, Note_off_c, 0, 100, 66
1, 732820, Note_on_c, 0, 98, 11
1, 732847, Note_off_c, 0, 98, 32
1, 732962, Note_on_c, 0, 61, 92
1, 732963, Note_on_c, 0, 49, 83
1, 732964, Note_on_c, 0, 85, 102
1, 732967, Note_on_c, 0, 73, 101
1, 732974, Control_c, 0, 64, 109
1, 732989, Note_on_c, 0, 48, 69
1, 732989, Control_c, 0, 64, 66
1, 733005, Control_c, 0, 64, 0
1, 733022, Note_off_c, 0, 48, 52
1, 733034, Control_c, 0, 64, 47
1, 733049, Control_c, 0, 64, 78
1, 733056, Note_on_c, 0, 84, 47
1, 733064, Control_c, 0, 64, 127
1, 733087, Note_on_c, 0, 83, 51
1, 733100, Note_on_c, 0, 56, 73
1, 733103, Note_off_c, 0, 61, 61
1, 733106, Note_off_c, 0, 84, 63
1, 733107, Note_off_c, 0, 73, 53
1, 733113, Note_off_c, 0, 83, 54
1, 733124, Note_on_c, 0, 80, 82
1, 733125, Note_off_c, 0, 49, 61
1, 733125, Note_off_c, 0, 85, 53
1, 733181, Note_on_c, 0, 88, 92
1, 733185, Note_on_c, 0, 64, 91
1, 733208, Note_off_c, 0, 80, 63
1, 733218, Note_off_c, 0, 64, 63
1, 733220, Note_off_c, 0, 88, 67
1, 733228, Note_off_c, 0, 56, 59
1, 733266, Poly_aftertouch_c, 0, 58, 127
1, 733292, Poly_aftertouch_c, 0, 58, 0
1, 733440, Note_on_c, 0, 36, 93
1, 733440, Note_on_c, 0, 48, 107
1, 733443, Note_on_c, 0, 72, 84
1, 733446, Note_on_c, 0, 60, 95
1, 733487, Note_on_c, 0, 68, 34
1, 733522, Note_off_c, 0, 68, 51
1, 733526, Poly_aftertouch_c, 0, 62, 127
1, 733530, Control_c, 0, 64, 119
1, 733545, Control_c, 0, 64, 73
1, 733560, Control_c, 0, 64, 36
1, 733568, Poly_aftertouch_c, 0, 62, 0
1, 733575, Control_c, 0, 64, 0
1, 733635, Note_off_c, 0, 60, 61
1, 733664, Control_c, 0, 64, 72
1, 733667, Note_on_c, 0, 43, 84
1, 733673, Note_on_c, 0, 67, 94
1, 733673, Note_off_c, 0, 48, 59
1, 733679, Control_c, 0, 64, 127
1, 733709, Note_off_c, 0, 72, 59
1, 733711, Note_on_c, 0, 41, 42
1, 733740, Note_off_c, 0, 36, 56
1, 733754, Note_off_c, 0, 41, 51
1, 733777, Note_on_c, 0, 76, 103
1, 733784, Note_on_c, 0, 52, 98
1, 733804, Note_off_c, 0, 67, 67
1, 733813, Note_on_c, 0, 50, 41
1, 733813, Note_off_c, 0, 50, 127
1, 733816, Note_off_c, 0, 43, 62
1, 733832, Note_off_c, 0, 76, 71
1, 733841, Note_off_c, 0, 52, 65
1, 734234, Control_c, 0, 64, 93
1, 734249, Control_c, 0, 64, 63
1, 734263, Control_c, 0, 64, 0
1, 734278, Control_c, 0, 64, 31
1, 734279, Note_on_c, 0, 101, 99
1, 734281, Note_on_c, 0, 89, 105
1, 734285, Note_on_c, 0, 65, 76
1, 734287, Note_on_c, 0, 77, 90
1, 734293, Control_c, 0, 64, 63
1, 734308, Control_c, 0, 64, 127
1, 734331, Note_off_c, 0, 101, 68
1, 734331, Note_off_c, 0, 89, 67
1, 734334, Note_off_c, 0, 77, 65
1, 734366, Note_off_c, 0, 65, 59
1, 734692, Note_on_c, 0, 74, 75
1, 734693, Note_on_c, 0, 69, 71
1, 734695, Note_on_c, 0, 81, 96
1, 734695, Note_on_c, 0, 86, 93
1, 734697, Note_on_c, 0, 93, 88
1, 734718, Note_off_c, 0, 74, 66
1, 734722, Note_off_c, 0, 86, 66
1, 734725, Note_off_c, 0, 93, 64
1, 734726, Note_off_c, 0, 69, 61
1, 734727, Note_off_c, 0, 81, 67
1, 734752, Note_on_c, 0, 69, 78
1, 734756, Note_on_c, 0, 74, 83
1, 734760, Note_on_c, 0, 93, 91
1, 734765, Note_on_c, 0, 86, 93
1, 734770, Note_on_c, 0, 81, 86
1, 734778, Note_off_c, 0, 74, 69
1, 734787, Note_off_c, 0, 81, 74
1, 734789, Note_off_c, 0, 69, 66
1, 734796, Note_off_c, 0, 86, 68
1, 734812, Note_off_c, 0, 93, 63
1, 734999, Control_c, 0, 64, 71
1, 735013, Control_c, 0, 64, 0
1, 735042, Note_on_c, 0, 92, 105
1, 735043, Note_on_c, 0, 68, 91
1, 735043, Note_on_c, 0, 80, 95
1, 735048, Note_on_c, 0, 56, 82
1, 735058, Control_c, 0, 64, 50
1, 735073, Control_c, 0, 64, 86
1, 735074, Note_off_c, 0, 56, 70
1, 735074, Note_off_c, 0, 80, 69
1, 735077, Note_off_c, 0, 68, 62
1, 735087, Control_c, 0, 64, 127
1, 735088, Note_on_c, 0, 58, 21
1, 735088, Note_off_c, 0, 92, 68
1, 735127, Note_off_c, 0, 58, 51
1, 735319, Note_on_c, 0, 68, 78
1, 735324, Note_on_c, 0, 83, 82
1, 735333, Note_on_c, 0, 87, 78
1, 735334, Note_on_c, 0, 95, 77
1, 735336, Note_on_c, 0, 63, 69
1, 735339, Note_on_c, 0, 71, 70
1, 735351, Note_off_c, 0, 68, 61
1, 735353, Note_off_c, 0, 83, 67
1, 735353, Note_off_c, 0, 87, 73
1, 735357, Note_off_c, 0, 95, 71
1, 735363, Note_off_c, 0, 71, 67
1, 735363, Note_off_c, 0, 63, 66
1, 735400, Note_on_c, 0, 95, 97
1, 735403, Note_on_c, 0, 87, 92
1, 735404, Note_on_c, 0, 83, 82
1, 735409, Note_on_c, 0, 63, 90
1, 735411, Note_on_c, 0, 68, 80
1, 735419, Note_on_c, 0, 71, 75
1, 735429, Note_off_c, 0, 83, 64
1, 735430, Note_off_c, 0, 68, 70
1, 735437, Note_off_c, 0, 87, 64
1, 735440, Note_off_c, 0, 71, 69
1, 735449, Note_off_c, 0, 63, 61
1, 735450, Note_off_c, 0, 95, 65
1, 735481, Control_c, 0, 64, 100
1, 735496, Control_c, 0, 64, 76
1, 735510, Control_c, 0, 64, 58
1, 735525, Control_c, 0, 64, 0
1, 735607, Note_on_c, 0, 70, 88
1, 735612, Note_on_c, 0, 94, 99
1, 735613, Note_on_c, 0, 82, 95
1, 735614, Control_c, 0, 64, 65
1, 735616, Note_on_c, 0, 56, 71
1, 735628, Control_c, 0, 64, 127
1, 735634, Note_off_c, 0, 70, 64
1, 735635, Note_on_c, 0, 58, 53
1, 735641, Note_off_c, 0, 82, 65
1, 735646, Note_off_c, 0, 56, 64
1, 735649, Note_off_c, 0, 94, 66
1, 735660, Note_off_c, 0, 58, 58
1, 735833, Note_on_c, 0, 70, 81
1, 735836, Note_on_c, 0, 77, 92
1, 735836, Note_on_c, 0, 86, 88
1, 735842, Note_on_c, 0, 65, 58
1, 735846, Note_on_c, 0, 74, 62
1, 735852, Note_off_c, 0, 70, 72
1, 735854, Note_off_c, 0, 77, 71
1, 735855, Note_off_c, 0, 86, 70
1, 735865, Note_off_c, 0, 74, 64
1, 735871, Note_off_c, 0, 65, 64
1, 735880, Note_on_c, 0, 64, 14
1, 735902, Note_on_c, 0, 70, 94
1, 735904, Note_on_c, 0, 74, 94
1, 735908, Note_on_c, 0, 86, 105
1, 735910, Control_c, 0, 64, 98
1, 735911, Note_on_c, 0, 65, 82
1, 735911, Note_on_c, 0, 77, 98
1, 735922, Note_off_c, 0, 74, 73
1, 735925, Control_c, 0, 64, 67
1, 735928, Note_off_c, 0, 64, 54
1, 735934, Note_off_c, 0, 70, 67
1, 735935, Note_off_c, 0, 65, 64
1, 735937, Note_off_c, 0, 77, 69
1, 735940, Control_c, 0, 64, 29
1, 735942, Note_off_c, 0, 86, 68
1, 735955, Control_c, 0, 64, 0
1, 736121, Note_on_c, 0, 85, 98
1, 736125, Note_on_c, 0, 73, 90
1, 736125, Control_c, 0, 64, 64
1, 736132, Note_on_c, 0, 61, 75
1, 736140, Control_c, 0, 64, 127
1, 736148, Note_on_c, 0, 51, 51
1, 736148, Note_off_c, 0, 73, 66
1, 736156, Note_off_c, 0, 61, 69
1, 736165, Note_off_c, 0, 85, 64
1, 736177, Note_off_c, 0, 51, 56
1, 736203, Poly_aftertouch_c, 0, 50, 127
1, 736239, Poly_aftertouch_c, 0, 50, 0
1, 736313, Note_on_c, 0, 56, 75
1, 736314, Note_on_c, 0, 76, 92
1, 736314, Note_on_c, 0, 80, 90
1, 736319, Note_on_c, 0, 88, 83
1, 736320, Note_on_c, 0, 61, 73
1, 736335, Note_on_c, 0, 64, 53
1, 736335, Note_off_c, 0, 80, 66
1, 736338, Note_off_c, 0, 88, 70
1, 736339, Note_off_c, 0, 56, 66
1, 736343, Note_off_c, 0, 76, 64
1, 736346, Note_off_c, 0, 61, 68
1, 736348, Control_c, 0, 64, 97
1, 736358, Note_off_c, 0, 64, 61
1, 736363, Control_c, 0, 64, 67
1, 736378, Control_c, 0, 64, 0
1, 736382, Note_on_c, 0, 56, 93
1, 736391, Note_on_c, 0, 64, 80
1, 736394, Note_on_c, 0, 88, 95
1, 736395, Note_on_c, 0, 76, 93
1, 736400, Note_on_c, 0, 80, 91
1, 736406, Note_on_c, 0, 61, 58
1, 736415, Note_off_c, 0, 80, 71
1, 736424, Note_off_c, 0, 76, 67
1, 736425, Note_off_c, 0, 56, 64
1, 736426, Note_off_c, 0, 64, 65
1, 736427, Note_off_c, 0, 61, 64
1, 736436, Note_off_c, 0, 88, 65
1, 736557, Note_on_c, 0, 89, 88
1, 736560, Note_on_c, 0, 53, 80
1, 736561, Note_on_c, 0, 77, 100
1, 736561, Note_on_c, 0, 65, 86
1, 736570, Control_c, 0, 64, 52
1, 736582, Note_off_c, 0, 89, 60
1, 736584, Note_off_c, 0, 53, 70
1, 736585, Control_c, 0, 64, 101
1, 736586, Note_off_c, 0, 77, 67
1, 736600, Control_c, 0, 64, 127
1, 736600, Note_off_c, 0, 65, 60
1, 736732, Note_on_c, 0, 72, 86
1, 736735, Note_on_c, 0, 68, 87
1, 736748, Note_on_c, 0, 80, 64
1, 736752, Note_off_c, 0, 72, 68
1, 736766, Note_off_c, 0, 80, 67
1, 736779, Note_on_c, 0, 65, 38
1, 736787, Note_on_c, 0, 60, 51
1, 736788, Note_on_c, 0, 72, 91
1, 736791, Note_on_c, 0, 80, 103
1, 736804, Note_off_c, 0, 68, 67
1, 736819, Note_off_c, 0, 65, 63
1, 736829, Note_off_c, 0, 72, 70
1, 736829, Control_c, 0, 64, 87
1, 736839, Note_off_c, 0, 80, 61
1, 736844, Control_c, 0, 64, 65
1, 736847, Note_off_c, 0, 60, 64
1, 736859, Control_c, 0, 64, 31
1, 736874, Control_c, 0, 64, 0
1, 736975, Note_on_c, 0, 55, 85
1, 736976, Note_on_c, 0, 43, 78
1, 736976, Note_on_c, 0, 67, 93
1, 736979, Note_on_c, 0, 79, 86
1, 736992, Control_c, 0, 64, 55
1, 737003, Note_off_c, 0, 67, 66
1, 737005, Note_off_c, 0, 55, 63
1, 737008, Control_c, 0, 64, 93
1, 737009, Note_off_c, 0, 43, 67
1, 737014, Note_off_c, 0, 79, 62
1, 737023, Control_c, 0, 64, 127
1, 737164, Note_on_c, 0, 70, 87
1, 737165, Note_on_c, 0, 51, 86
1, 737167, Note_on_c, 0, 82, 80
1, 737168, Note_on_c, 0, 58, 81
1, 737171, Note_on_c, 0, 75, 72
1, 737181, Note_off_c, 0, 70, 74
1, 737189, Note_off_c, 0, 51, 68
1, 737190, Note_off_c, 0, 58, 66
1, 737192, Note_off_c, 0, 82, 62
1, 737196, Note_off_c, 0, 75, 68
1, 737226, Note_on_c, 0, 82, 85
1, 737226, Note_on_c, 0, 70, 95
1, 737230, Control_c, 0, 64, 89
1, 737231, Note_on_c, 0, 75, 94
1, 737239, Note_on_c, 0, 51, 94
1, 737239, Note_on_c, 0, 58, 83
1, 737245, Control_c, 0, 64, 64
1, 737253, Note_off_c, 0, 75, 64
1, 737255, Note_off_c, 0, 70, 68
1, 737260, Control_c, 0, 64, 0
1, 737268, Note_off_c, 0, 51, 61
1, 737268, Note_off_c, 0, 58, 65
1, 737279, Note_off_c, 0, 82, 64
1, 737381, Note_on_c, 0, 50, 92
1, 737384, Note_on_c, 0, 59, 84
1, 737384, Note_on_c, 0, 74, 105
1, 737385, Note_on_c, 0, 54, 84
1, 737385, Note_on_c, 0, 71, 104
1, 737390, Note_on_c, 0, 83, 90
1, 737393, Control_c, 0, 64, 47
1, 737404, Note_off_c, 0, 54, 70
1, 737405, Note_off_c, 0, 59, 71
1, 737405, Note_off_c, 0, 83, 72
1, 737408, Note_off_c, 0, 74, 68
1, 737408, Control_c, 0, 64, 88
1, 737409, Note_off_c, 0, 50, 66
1, 737412, Note_off_c, 0, 71, 68
1, 737423, Control_c, 0, 64, 127
1, 737581, Note_on_c, 0, 46, 88
1, 737593, Note_on_c, 0, 70, 88
1, 737625, Note_off_c, 0, 46, 63
1, 737637, Control_c, 0, 64, 89
1, 737649, Note_on_c, 0, 50, 105
1, 737650, Note_on_c, 0, 41, 96
1, 737652, Note_on_c, 0, 62, 91
1, 737652, Control_c, 0, 64, 58
1, 737660, Note_on_c, 0, 74, 88
1, 737666, Note_off_c, 0, 70, 65
1, 737667, Control_c, 0, 64, 0
1, 737675, Note_on_c, 0, 71, 32
1, 737683, Note_off_c, 0, 62, 64
1, 737685, Note_off_c, 0, 50, 69
1, 737692, Note_off_c, 0, 41, 66
1, 737698, Note_off_c, 0, 74, 62
1, 737709, Note_off_c, 0, 71, 36
1, 737805, Note_on_c, 0, 53, 95
1, 737810, Note_on_c, 0, 43, 85
1, 737810, Note_on_c, 0, 65, 103
1, 737813, Note_on_c, 0, 47, 78
1, 737813, Note_on_c, 0, 77, 94
1, 737816, Control_c, 0, 64, 55
1, 737821, Note_on_c, 0, 48, 79
1, 737825, Note_off_c, 0, 53, 71
1, 737831, Control_c, 0, 64, 110
1, 737833, Note_off_c, 0, 77, 62
1, 737834, Note_off_c, 0, 43, 68
1, 737839, Note_off_c, 0, 47, 68
1, 737840, Note_off_c, 0, 65, 68
1, 737846, Control_c, 0, 64, 127
1, 737848, Note_off_c, 0, 48, 63
1, 737854, Note_on_c, 0, 75, 23
1, 737854, Note_off_c, 0, 75, 127
1, 738001, Note_on_c, 0, 42, 91
1, 738011, Note_on_c, 0, 63, 98
1, 738037, Control_c, 0, 64, 82
1, 738052, Control_c, 0, 64, 49
1, 738066, Note_on_c, 0, 70, 91
1, 738067, Note_on_c, 0, 58, 99
1, 738067, Note_off_c, 0, 63, 62
1, 738067, Control_c, 0, 64, 0
1, 738072, Note_off_c, 0, 42, 60
1, 738074, Note_on_c, 0, 46, 92
1, 738078, Note_on_c, 0, 39, 97
1, 738099, Note_off_c, 0, 46, 67
1, 738099, Note_off_c, 0, 58, 65
1, 738101, Note_off_c, 0, 39, 69
1, 738117, Note_off_c, 0, 70, 66
1, 738206, Note_on_c, 0, 45, 100
1, 738210, Note_on_c, 0, 50, 88
1, 738216, Note_on_c, 0, 57, 103
1, 738216, Note_on_c, 0, 62, 92
1, 738216, Control_c, 0, 64, 53
1, 738217, Note_on_c, 0, 41, 76
1, 738217, Note_on_c, 0, 69, 93
1, 738230, Control_c, 0, 64, 99
1, 738233, Note_off_c, 0, 50, 71
1, 738239, Note_off_c, 0, 41, 65
1, 738240, Note_on_c, 0, 66, 51
1, 738241, Note_off_c, 0, 62, 65
1, 738243, Note_off_c, 0, 45, 62
1, 738245, Control_c, 0, 64, 127
1, 738247, Note_off_c, 0, 57, 60
1, 738261, Note_off_c, 0, 69, 62
1, 738263, Note_off_c, 0, 66, 63
1, 738401, Note_on_c, 0, 40, 82
1, 738401, Note_on_c, 0, 56, 93
1, 738405, Note_on_c, 0, 41, 78
1, 738427, Note_off_c, 0, 41, 65
1, 738434, Note_off_c, 0, 40, 64
1, 738456, Note_off_c, 0, 56, 61
1, 738457, Note_on_c, 0, 52, 92
1, 738463, Note_on_c, 0, 64, 88
1, 738468, Note_on_c, 0, 47, 101
1, 738470, Note_on_c, 0, 35, 99
1, 738484, Note_off_c, 0, 52, 65
1, 738503, Note_off_c, 0, 64, 64
1, 738504, Control_c, 0, 64, 85
1, 738506, Note_off_c, 0, 47, 67
1, 738510, Note_off_c, 0, 35, 63
1, 738519, Control_c, 0, 64, 57
1, 738534, Control_c, 0, 64, 0
1, 738603, Note_on_c, 0, 46, 81
1, 738603, Note_on_c, 0, 58, 96
1, 738606, Note_on_c, 0, 70, 91
1, 738614, Note_on_c, 0, 35, 69
1, 738621, Note_on_c, 0, 48, 74
1, 738624, Note_on_c, 0, 37, 56
1, 738628, Note_off_c, 0, 58, 66
1, 738630, Note_off_c, 0, 46, 68
1, 738645, Note_off_c, 0, 35, 54
1, 738648, Note_off_c, 0, 48, 59
1, 738648, Note_off_c, 0, 70, 64
1, 738650, Note_on_c, 0, 36, 19
1, 738650, Note_off_c, 0, 36, 127
1, 738654, Note_off_c, 0, 37, 58
1, 738674, Note_on_c, 0, 47, 3
1, 738715, Note_off_c, 0, 47, 26
1, 738721, Note_on_c, 0, 38, 94
1, 738721, Note_on_c, 0, 50, 95
1, 738722, Note_on_c, 0, 62, 94
1, 738747, Note_off_c, 0, 50, 69
1, 738754, Note_off_c, 0, 62, 65
1, 738758, Note_off_c, 0, 38, 61
1, 738850, Note_on_c, 0, 31, 88
1, 738856, Note_on_c, 0, 43, 93
1, 738857, Note_on_c, 0, 67, 92
1, 738859, Note_on_c, 0, 55, 94
1, 738887, Note_off_c, 0, 31, 64
1, 738887, Note_off_c, 0, 43, 67
1, 738901, Note_off_c, 0, 55, 64
1, 738904, Note_off_c, 0, 67, 63
1, 739002, Note_on_c, 0, 58, 99
1, 739006, Note_on_c, 0, 46, 91
1, 739007, Note_on_c, 0, 34, 85
1, 739029, Note_off_c, 0, 46, 68
1, 739035, Note_off_c, 0, 34, 68
1, 739044, Note_off_c, 0, 58, 66
1, 739173, Note_on_c, 0, 29, 95
1, 739173, Note_on_c, 0, 41, 94
1, 739175, Note_on_c, 0, 65, 94
1, 739176, Note_on_c, 0, 53, 100
1, 739212, Note_off_c, 0, 41, 66
1, 739214, Note_off_c, 0, 29, 60
1, 739217, Note_off_c, 0, 53, 64
1, 739243, Note_off_c, 0, 65, 55
1, 739356, Note_on_c, 0, 45, 99
1, 739359, Note_on_c, 0, 57, 103
1, 739364, Note_on_c, 0, 33, 83
1, 739371, Note_on_c, 0, 31, 71
1, 739387, Control_c, 0, 64, 77
1, 739391, Note_off_c, 0, 33, 65
1, 739394, Note_off_c, 0, 57, 69
1, 739395, Note_off_c, 0, 31, 61
1, 739396, Note_off_c, 0, 45, 64
1, 739403, Control_c, 0, 64, 127
1, 739604, Note_on_c, 0, 61, 34
1, 739652, Note_on_c, 0, 69, 103
1, 739652, Note_on_c, 0, 81, 96
1, 739653, Note_on_c, 0, 74, 103
1, 739658, Note_on_c, 0, 77, 94
1, 739659, Note_off_c, 0, 61, 0
1, 739661, Note_on_c, 0, 58, 81
1, 739661, Note_on_c, 0, 62, 86
1, 739661, Note_on_c, 0, 64, 91
1, 739670, Note_on_c, 0, 53, 65
1, 739683, Note_off_c, 0, 69, 72
1, 739684, Note_on_c, 0, 52, 46
1, 739685, Note_off_c, 0, 64, 68
1, 739687, Note_on_c, 0, 78, 43
1, 739687, Note_off_c, 0, 78, 127
1, 739693, Note_off_c, 0, 53, 65
1, 739694, Note_on_c, 0, 61, 3
1, 739696, Note_off_c, 0, 74, 70
1, 739700, Note_off_c, 0, 62, 65
1, 739702, Note_off_c, 0, 81, 68
1, 739705, Note_off_c, 0, 58, 65
1, 739705, Note_off_c, 0, 77, 67
1, 739714, Note_off_c, 0, 52, 55
1, 739733, Note_off_c, 0, 61, 50
1, 739992, Poly_aftertouch_c, 0, 70, 0
1, 740059, Note_on_c, 0, 74, 83
1, 740064, Note_on_c, 0, 86, 96
1, 740066, Note_on_c, 0, 98, 87
1, 740088, Note_off_c, 0, 86, 65
1, 740090, Note_off_c, 0, 74, 63
1, 740090, Note_off_c, 0, 98, 67
1, 740129, Note_on_c, 0, 98, 98
1, 740131, Note_on_c, 0, 86, 96
1, 740134, Note_on_c, 0, 74, 90
1, 740168, Note_off_c, 0, 86, 67
1, 740168, Note_off_c, 0, 98, 67
1, 740186, Note_off_c, 0, 74, 65
1, 740295, Note_on_c, 0, 69, 87
1, 740305, Note_on_c, 0, 81, 98
1, 740305, Note_on_c, 0, 93, 91
1, 740323, Note_off_c, 0, 93, 72
1, 740325, Note_off_c, 0, 69, 67
1, 740329, Note_off_c, 0, 81, 64
1, 740505, Note_on_c, 0, 58, 89
1, 740508, Note_on_c, 0, 46, 78
1, 740508, Note_on_c, 0, 70, 94
1, 740524, Note_off_c, 0, 70, 68
1, 740526, Note_off_c, 0, 58, 71
1, 740535, Note_off_c, 0, 46, 68
1, 740579, Note_on_c, 0, 70, 101
1, 740581, Note_on_c, 0, 58, 100
1, 740585, Note_on_c, 0, 46, 100
1, 740610, Note_off_c, 0, 70, 70
1, 740610, Note_off_c, 0, 58, 60
1, 740621, Note_off_c, 0, 46, 62
1, 740747, Note_on_c, 0, 62, 114
1, 740755, Note_on_c, 0, 38, 88
1, 740759, Note_on_c, 0, 50, 76
1, 740767, Note_on_c, 0, 40, 67
1, 740768, Note_on_c, 0, 52, 65
1, 740774, Note_off_c, 0, 62, 67
1, 740779, Note_on_c, 0, 64, 46
1, 740779, Note_off_c, 0, 64, 127
1, 740786, Note_off_c, 0, 50, 66
1, 740786, Note_off_c, 0, 52, 65
1, 740788, Note_off_c, 0, 38, 65
1, 740792, Note_off_c, 0, 40, 57
1, 740935, Note_on_c, 0, 33, 92
1, 740937, Note_on_c, 0, 57, 100
1, 740940, Note_on_c, 0, 45, 87
1, 740959, Control_c, 0, 64, 89
1, 740964, Note_off_c, 0, 57, 67
1, 740967, Note_off_c, 0, 45, 66
1, 740974, Note_off_c, 0, 33, 61
1, 740974, Control_c, 0, 64, 58
1, 740989, Control_c, 0, 64, 32
1, 741005, Note_on_c, 0, 57, 95
1, 741005, Control_c, 0, 64, 66
1, 741008, Note_on_c, 0, 45, 91
1, 741012, Note_on_c, 0, 33, 89
1, 741012, Note_on_c, 0, 55, 85
1, 741020, Control_c, 0, 64, 127
1, 741028, Note_off_c, 0, 55, 70
1, 741037, Note_off_c, 0, 57, 67
1, 741042, Note_off_c, 0, 33, 66
1, 741050, Note_off_c, 0, 45, 64
1, 741241, Control_c, 0, 64, 72
1, 741244, Note_on_c, 0, 63, 105
1, 741245, Note_on_c, 0, 65, 98
1, 741245, Note_on_c, 0, 69, 103
1, 741247, Note_on_c, 0, 75, 100
1, 741247, Note_on_c, 0, 81, 89
1, 741250, Note_on_c, 0, 77, 88
1, 741251, Note_on_c, 0, 59, 75
1, 741253, Note_on_c, 0, 53, 78
1, 741256, Control_c, 0, 64, 0
1, 741260, Note_on_c, 0, 83, 67
1, 741260, Note_off_c, 0, 83, 127
1, 741276, Note_off_c, 0, 53, 68
1, 741278, Note_off_c, 0, 69, 69
1, 741283, Note_off_c, 0, 65, 66
1, 741285, Note_on_c, 0, 78, 34
1, 741285, Note_off_c, 0, 78, 127
1, 741286, Note_off_c, 0, 59, 65
1, 741286, Note_off_c, 0, 63, 67
1, 741286, Control_c, 0, 64, 62
1, 741289, Note_off_c, 0, 75, 68
1, 741295, Note_off_c, 0, 77, 66
1, 741301, Control_c, 0, 64, 110
1, 741305, Note_off_c, 0, 81, 68
1, 741323, Control_c, 0, 64, 127
1, 741495, Note_on_c, 0, 75, 82
1, 741495, Note_on_c, 0, 99, 91
1, 741498, Note_on_c, 0, 87, 77
1, 741514, Note_off_c, 0, 75, 74
1, 741516, Note_off_c, 0, 99, 71
1, 741517, Note_off_c, 0, 87, 73
1, 741556, Note_on_c, 0, 99, 102
1, 741558, Note_on_c, 0, 87, 94
1, 741562, Note_on_c, 0, 75, 95
1, 741571, Poly_aftertouch_c, 0, 68, 127
1, 741575, Note_on_c, 0, 97, 48
1, 741588, Note_off_c, 0, 87, 68
1, 741595, Note_off_c, 0, 99, 65
1, 741599, Note_off_c, 0, 75, 67
1, 741610, Note_off_c, 0, 97, 65
1, 741632, Poly_aftertouch_c, 0, 68, 0
1, 741645, Poly_aftertouch_c, 0, 69, 127
1, 741679, Note_on_c, 0, 69, 32
1, 741695, Note_on_c, 0, 81, 101
1, 741697, Note_on_c, 0, 93, 91
1, 741707, Note_on_c, 0, 91, 74
1, 741715, Note_off_c, 0, 93, 72
1, 741720, Note_off_c, 0, 81, 67
1, 741721, Note_off_c, 0, 69, 64
1, 741730, Note_off_c, 0, 91, 72
1, 741867, Note_on_c, 0, 47, 81
1, 741869, Note_on_c, 0, 59, 88
1, 741871, Note_on_c, 0, 71, 108
1, 741892, Note_off_c, 0, 71, 67
1, 741897, Note_off_c, 0, 59, 68
1, 741899, Note_off_c, 0, 47, 65
1, 741939, Note_on_c, 0, 71, 104
1, 741951, Note_on_c, 0, 59, 100
1, 741951, Note_on_c, 0, 47, 91
1, 741974, Note_off_c, 0, 71, 66
1, 741980, Note_off_c, 0, 59, 62
1, 741986, Note_off_c, 0, 47, 68
1, 742101, Note_on_c, 0, 63, 104
1, 742102, Note_off_c, 0, 63, 0
1, 742106, Note_on_c, 0, 51, 89
1, 742115, Poly_aftertouch_c, 0, 63, 0
1, 742121, Note_on_c, 0, 40, 69
1, 742128, Note_off_c, 0, 51, 71
1, 742146, Note_on_c, 0, 39, 18
1, 742152, Note_off_c, 0, 40, 63
1, 742188, Note_on_c, 0, 63, 10
1, 742189, Note_off_c, 0, 39, 44
1, 742226, Note_off_c, 0, 63, 42
1, 742230, Poly_aftertouch_c, 0, 52, 0
1, 742273, Note_on_c, 0, 57, 106
1, 742277, Note_on_c, 0, 33, 90
1, 742281, Note_on_c, 0, 45, 87
1, 742295, Control_c, 0, 64, 106
1, 742303, Note_off_c, 0, 57, 70
1, 742305, Note_off_c, 0, 33, 69
1, 742306, Note_off_c, 0, 45, 69
1, 742310, Control_c, 0, 64, 65
1, 742324, Control_c, 0, 64, 34
1, 742339, Control_c, 0, 64, 60
1, 742346, Note_on_c, 0, 45, 86
1, 742349, Note_on_c, 0, 31, 94
1, 742354, Control_c, 0, 64, 96
1, 742356, Note_on_c, 0, 57, 83
1, 742369, Control_c, 0, 64, 127
1, 742375, Note_off_c, 0, 31, 69
1, 742378, Note_on_c, 0, 33, 63
1, 742378, Note_off_c, 0, 33, 127
1, 742383, Note_off_c, 0, 45, 67
1, 742383, Note_off_c, 0, 57, 67
1, 742393, Poly_aftertouch_c, 0, 59, 0
1, 742546, Control_c, 0, 64, 71
1, 742549, Note_on_c, 0, 69, 105
1, 742550, Note_on_c, 0, 64, 104
1, 742550, Note_on_c, 0, 81, 100
1, 742552, Note_on_c, 0, 65, 100
1, 742554, Note_on_c, 0, 77, 88
1, 742559, Note_on_c, 0, 76, 87
1, 742560, Note_on_c, 0, 53, 60
1, 742560, Note_on_c, 0, 60, 67
1, 742561, Control_c, 0, 64, 49
1, 742564, Note_on_c, 0, 54, 63
1, 742576, Control_c, 0, 64, 63
1, 742582, Note_off_c, 0, 53, 61
1, 742583, Note_off_c, 0, 69, 71
1, 742584, Note_off_c, 0, 76, 68
1, 742586, Note_off_c, 0, 60, 67
1, 742588, Note_off_c, 0, 65, 66
1, 742589, Note_off_c, 0, 54, 38
1, 742589, Note_on_c, 0, 75, 42
1, 742589, Note_off_c, 0, 75, 127
1, 742592, Note_off_c, 0, 64, 68
1, 742592, Control_c, 0, 64, 100
1, 742594, Note_off_c, 0, 77, 67
1, 742601, Note_on_c, 0, 78, 16
1, 742601, Note_off_c, 0, 78, 127
1, 742604, Note_off_c, 0, 81, 70
1, 742606, Control_c, 0, 64, 127
1, 742612, Note_on_c, 0, 79, 8
1, 742672, Note_off_c, 0, 79, 53
1, 742771, Note_on_c, 0, 76, 89
1, 742775, Note_on_c, 0, 70, 51
1, 742779, Note_on_c, 0, 100, 84
1, 742780, Note_on_c, 0, 88, 87
1, 742797, Note_off_c, 0, 88, 76
1, 742801, Note_off_c, 0, 100, 72
1, 742803, Note_off_c, 0, 76, 62
1, 742805, Note_off_c, 0, 70, 63
1, 742852, Note_on_c, 0, 100, 108
1, 742857, Note_on_c, 0, 76, 87
1, 742858, Note_on_c, 0, 88, 98
1, 742887, Note_off_c, 0, 100, 65
1, 742889, Note_off_c, 0, 88, 67
1, 742895, Note_off_c, 0, 76, 69
1, 742984, Note_on_c, 0, 69, 70
1, 742991, Note_on_c, 0, 81, 97
1, 742997, Note_on_c, 0, 93, 85
1, 743006, Note_off_c, 0, 81, 74
1, 743010, Note_off_c, 0, 69, 68
1, 743010, Note_off_c, 0, 93, 68
1, 743012, Note_on_c, 0, 91, 68
1, 743030, Note_off_c, 0, 91, 63
1, 743154, Note_on_c, 0, 60, 82
1, 743155, Note_on_c, 0, 48, 91
1, 743159, Note_on_c, 0, 72, 101
1, 743182, Note_off_c, 0, 72, 65
1, 743182, Note_off_c, 0, 60, 64
1, 743187, Note_off_c, 0, 48, 63
1, 743196, Note_on_c, 0, 74, 36
1, 743196, Note_off_c, 0, 74, 127
1, 743226, Note_on_c, 0, 72, 100
1, 743231, Note_on_c, 0, 48, 96
1, 743233, Note_on_c, 0, 60, 93
1, 743255, Note_off_c, 0, 72, 70
1, 743262, Note_off_c, 0, 60, 71
1, 743269, Note_off_c, 0, 48, 66
1, 743286, Poly_aftertouch_c, 0, 74, 0
1, 743391, Note_on_c, 0, 52, 98
1, 743394, Note_on_c, 0, 40, 94
1, 743399, Note_on_c, 0, 60, 103
1, 743413, Note_on_c, 0, 42, 65
1, 743424, Note_off_c, 0, 60, 76
1, 743429, Note_off_c, 0, 52, 65
1, 743435, Note_off_c, 0, 40, 65
1, 743435, Note_off_c, 0, 42, 62
1, 743519, Poly_aftertouch_c, 0, 62, 0
1, 743575, Note_on_c, 0, 33, 99
1, 743579, Note_on_c, 0, 45, 89
1, 743579, Note_on_c, 0, 55, 95
1, 743598, Note_off_c, 0, 55, 71
1, 743606, Note_off_c, 0, 45, 67
1, 743610, Note_off_c, 0, 33, 62
1, 743650, Note_on_c, 0, 55, 113
1, 743659, Note_on_c, 0, 45, 99
1, 743660, Note_on_c, 0, 33, 89
1, 743667, Note_on_c, 0, 57, 39
1, 743668, Note_off_c, 0, 57, 55
1, 743674, Control_c, 0, 64, 101
1, 743678, Note_off_c, 0, 55, 70
1, 743689, Control_c, 0, 64, 71
1, 743694, Note_off_c, 0, 45, 69
1, 743697, Note_off_c, 0, 33, 64
1, 743703, Control_c, 0, 64, 68
1, 743706, Note_on_c, 0, 31, 11
1, 743718, Control_c, 0, 64, 87
1, 743733, Control_c, 0, 64, 127
1, 743754, Note_off_c, 0, 31, 48
1, 743896, Control_c, 0, 64, 69
1, 743898, Note_on_c, 0, 64, 105
1, 743900, Note_on_c, 0, 70, 106
1, 743900, Note_on_c, 0, 82, 101
1, 743901, Note_on_c, 0, 61, 89
1, 743901, Note_on_c, 0, 77, 96
1, 743903, Note_on_c, 0, 65, 94
1, 743906, Note_on_c, 0, 53, 81
1, 743911, Control_c, 0, 64, 0
1, 743918, Note_on_c, 0, 80, 67
1, 743925, Note_on_c, 0, 83, 67
1, 743927, Note_on_c, 0, 67, 52
1, 743927, Note_off_c, 0, 67, 127
1, 743934, Note_off_c, 0, 53, 66
1, 743936, Note_off_c, 0, 70, 69
1, 743940, Control_c, 0, 64, 53
1, 743943, Note_off_c, 0, 65, 65
1, 743943, Note_off_c, 0, 80, 69
1, 743946, Note_off_c, 0, 61, 67
1, 743946, Note_off_c, 0, 64, 66
1, 743948, Note_off_c, 0, 77, 66
1, 743948, Note_off_c, 0, 83, 55
1, 743955, Control_c, 0, 64, 81
1, 743966, Note_off_c, 0, 82, 65
1, 743969, Control_c, 0, 64, 127
1, 744142, Note_on_c, 0, 77, 93
1, 744145, Note_on_c, 0, 89, 85
1, 744148, Note_on_c, 0, 101, 84
1, 744165, Note_off_c, 0, 89, 68
1, 744170, Note_off_c, 0, 101, 71
1, 744171, Note_off_c, 0, 77, 64
1, 744219, Note_on_c, 0, 101, 95
1, 744220, Note_on_c, 0, 77, 91
1, 744222, Note_on_c, 0, 88, 101
1, 744227, Note_on_c, 0, 100, 97
1, 744231, Note_on_c, 0, 99, 33
1, 744231, Note_on_c, 0, 70, 50
1, 744251, Note_on_c, 0, 68, 42
1, 744254, Note_off_c, 0, 100, 65
1, 744255, Note_off_c, 0, 88, 68
1, 744256, Note_off_c, 0, 101, 68
1, 744258, Note_off_c, 0, 70, 67
1, 744265, Note_off_c, 0, 99, 48
1, 744267, Note_off_c, 0, 77, 65
1, 744279, Note_off_c, 0, 68, 55
1, 744374, Note_on_c, 0, 70, 94
1, 744382, Note_on_c, 0, 97, 96
1, 744387, Note_on_c, 0, 85, 91
1, 744399, Note_off_c, 0, 97, 70
1, 744404, Note_off_c, 0, 85, 72
1, 744410, Note_on_c, 0, 71, 45
1, 744410, Note_off_c, 0, 70, 67
1, 744437, Note_off_c, 0, 71, 57
1, 744620, Note_on_c, 0, 49, 79
1, 744621, Note_on_c, 0, 73, 102
1, 744622, Note_on_c, 0, 61, 82
1, 744626, Note_on_c, 0, 63, 80
1, 744632, Note_on_c, 0, 51, 63
1, 744646, Note_off_c, 0, 61, 70
1, 744648, Note_off_c, 0, 63, 71
1, 744650, Note_off_c, 0, 73, 66
1, 744651, Note_off_c, 0, 49, 66
1, 744664, Note_off_c, 0, 51, 63
1, 744699, Note_on_c, 0, 73, 105
1, 744700, Poly_aftertouch_c, 0, 75, 0
1, 744710, Note_on_c, 0, 61, 104
1, 744711, Note_on_c, 0, 49, 106
1, 744717, Poly_aftertouch_c, 0, 75, 0
1, 744737, Note_off_c, 0, 73, 68
1, 744744, Note_off_c, 0, 61, 69
1, 744755, Note_off_c, 0, 49, 66
1, 744786, Poly_aftertouch_c, 0, 51, 0
1, 744830, Poly_aftertouch_c, 0, 51, 0
1, 744926, Control_c, 0, 64, 107
1, 744941, Control_c, 0, 64, 77
1, 744950, Note_on_c, 0, 65, 112
1, 744951, Note_on_c, 0, 53, 98
1, 744952, Note_on_c, 0, 41, 90
1, 744955, Control_c, 0, 64, 69
1, 744970, Control_c, 0, 64, 80
1, 744986, Control_c, 0, 64, 127
1, 745003, Note_on_c, 0, 67, 20
1, 745003, Note_off_c, 0, 67, 127
1, 745048, Poly_aftertouch_c, 0, 67, 0
1, 745068, Note_off_c, 0, 53, 56
1, 745106, Note_off_c, 0, 41, 63
1, 745106, Note_off_c, 0, 65, 66
1, 745372, Note_on_c, 0, 45, 77
1, 745376, Note_on_c, 0, 33, 76
1, 745390, Note_on_c, 0, 57, 101
1, 745429, Note_off_c, 0, 57, 68
1, 745432, Note_off_c, 0, 45, 61
1, 745443, Note_off_c, 0, 33, 59
1, 745504, Note_on_c, 0, 57, 115
1, 745520, Note_on_c, 0, 33, 85
1, 745520, Note_on_c, 0, 45, 89
1, 745590, Note_off_c, 0, 57, 61
1, 745617, Note_off_c, 0, 33, 60
1, 745728, Note_off_c, 0, 45, 22
1, 745846, Note_on_c, 0, 62, 91
1, 745846, Control_c, 0, 64, 81
1, 745850, Note_on_c, 0, 53, 95
1, 745852, Note_on_c, 0, 45, 98
1, 745854, Note_on_c, 0, 38, 99
1, 745861, Control_c, 0, 64, 48
1, 745876, Control_c, 0, 64, 0
1, 745906, Control_c, 0, 64, 30
1, 745920, Control_c, 0, 64, 59
1, 745935, Control_c, 0, 64, 94
1, 745950, Control_c, 0, 64, 127
1, 745961, Note_off_c, 0, 45, 62
1, 745972, Poly_aftertouch_c, 0, 59, 0
1, 745987, Note_off_c, 0, 53, 54
1, 745993, Note_off_c, 0, 38, 63
1, 746040, Note_off_c, 0, 62, 61
1, 746627, Note_on_c, 0, 85, 97
1, 746628, Note_on_c, 0, 73, 87
1, 746628, Note_on_c, 0, 88, 89
1, 746630, Note_on_c, 0, 92, 85
1, 746633, Note_on_c, 0, 68, 75
1, 746634, Note_on_c, 0, 61, 72
1, 746635, Note_on_c, 0, 97, 81
1, 746639, Note_on_c, 0, 64, 73
1, 746659, Note_on_c, 0, 87, 40
1, 746659, Note_off_c, 0, 87, 127
1, 746664, Note_off_c, 0, 85, 67
1, 746669, Note_off_c, 0, 73, 61
1, 746669, Note_off_c, 0, 88, 68
1, 746672, Note_off_c, 0, 68, 60
1, 746675, Note_off_c, 0, 64, 61
1, 746675, Note_off_c, 0, 92, 66
1, 746683, Note_off_c, 0, 61, 53
1, 746692, Note_off_c, 0, 97, 0
1, 746706, Note_on_c, 0, 85, 98
1, 746708, Note_on_c, 0, 92, 86
1, 746708, Note_on_c, 0, 61, 69
1, 746708, Note_on_c, 0, 88, 91
1, 746709, Note_on_c, 0, 73, 87
1, 746711, Note_on_c, 0, 68, 78
1, 746713, Note_on_c, 0, 64, 70
1, 746729, Poly_aftertouch_c, 0, 97, 127
1, 746743, Note_off_c, 0, 85, 66
1, 746751, Note_off_c, 0, 73, 64
1, 746756, Note_off_c, 0, 88, 65
1, 746765, Note_off_c, 0, 61, 65
1, 746765, Note_off_c, 0, 64, 65
1, 746767, Note_off_c, 0, 68, 62
1, 746770, Note_off_c, 0, 92, 66
1, 746780, Poly_aftertouch_c, 0, 97, 0
1, 746845, Note_on_c, 0, 66, 47
1, 746877, Note_off_c, 0, 66, 50
1, 746959, Note_on_c, 0, 86, 104
1, 746959, Note_on_c, 0, 98, 93
1, 746960, Note_on_c, 0, 69, 99
1, 746960, Note_on_c, 0, 89, 99
1, 746961, Note_on_c, 0, 74, 99
1, 746962, Note_on_c, 0, 65, 88
1, 746964, Note_on_c, 0, 93, 95
1, 746969, Note_on_c, 0, 62, 86
1, 746988, Note_off_c, 0, 74, 66
1, 746995, Note_off_c, 0, 86, 70
1, 746997, Note_off_c, 0, 98, 63
1, 746999, Note_off_c, 0, 69, 67
1, 747004, Note_off_c, 0, 93, 63
1, 747008, Note_off_c, 0, 89, 65
1, 747010, Note_off_c, 0, 65, 63
1, 747011, Note_off_c, 0, 62, 60
1, 747278, Note_on_c, 0, 80, 88
1, 747278, Note_on_c, 0, 85, 79
1, 747280, Note_on_c, 0, 56, 72
1, 747280, Note_on_c, 0, 68, 80
1, 747283, Note_on_c, 0, 88, 69
1, 747284, Note_on_c, 0, 64, 72
1, 747286, Note_on_c, 0, 61, 67
1, 747299, Note_off_c, 0, 68, 70
1, 747299, Note_off_c, 0, 80, 66
1, 747304, Note_off_c, 0, 85, 66
1, 747312, Note_on_c, 0, 92, 43
1, 747313, Note_off_c, 0, 88, 72
1, 747316, Note_off_c, 0, 64, 68
1, 747328, Note_off_c, 0, 56, 0
1, 747334, Note_off_c, 0, 61, 0
1, 747335, Note_off_c, 0, 92, 0
1, 747349, Note_on_c, 0, 92, 65
1, 747351, Note_on_c, 0, 80, 101
1, 747352, Note_on_c, 0, 85, 89
1, 747355, Note_on_c, 0, 68, 93
1, 747356, Note_on_c, 0, 88, 82
1, 747358, Note_on_c, 0, 64, 95
1, 747366, Poly_aftertouch_c, 0, 56, 127
1, 747372, Poly_aftertouch_c, 0, 61, 127
1, 747385, Note_off_c, 0, 80, 67
1, 747388, Poly_aftertouch_c, 0, 56, 0
1, 747395, Note_off_c, 0, 68, 60
1, 747400, Note_off_c, 0, 64, 58
1, 747404, Poly_aftertouch_c, 0, 61, 0
1, 747404, Note_off_c, 0, 85, 64
1, 747405, Note_off_c, 0, 88, 63
1, 747412, Note_off_c, 0, 92, 66
1, 747462, Control_c, 0, 64, 86
1, 747477, Control_c, 0, 64, 63
1, 747492, Control_c, 0, 64, 0
1, 747546, Note_on_c, 0, 65, 89
1, 747549, Note_on_c, 0, 69, 96
1, 747549, Note_on_c, 0, 81, 96
1, 747550, Note_on_c, 0, 86, 91
1, 747551, Note_on_c, 0, 89, 89
1, 747552, Note_on_c, 0, 57, 84
1, 747553, Note_on_c, 0, 62, 79
1, 747555, Note_on_c, 0, 93, 87
1, 747566, Control_c, 0, 64, 68
1, 747573, Note_off_c, 0, 69, 69
1, 747577, Note_off_c, 0, 93, 63
1, 747580, Note_on_c, 0, 87, 35
1, 747581, Note_off_c, 0, 65, 66
1, 747581, Control_c, 0, 64, 127
1, 747585, Note_off_c, 0, 86, 66
1, 747586, Note_off_c, 0, 62, 61
1, 747587, Note_off_c, 0, 81, 65
1, 747590, Note_off_c, 0, 57, 60
1, 747598, Note_off_c, 0, 89, 61
1, 747614, Note_off_c, 0, 87, 35
1, 747772, Note_on_c, 0, 80, 84
1, 747773, Note_on_c, 0, 56, 79
1, 747776, Note_on_c, 0, 77, 80
1, 747778, Note_on_c, 0, 84, 60
1, 747779, Note_on_c, 0, 65, 76
1, 747782, Note_on_c, 0, 60, 69
1, 747796, Note_off_c, 0, 77, 72
1, 747798, Note_off_c, 0, 80, 65
1, 747802, Note_off_c, 0, 65, 70
1, 747805, Note_off_c, 0, 84, 69
1, 747807, Note_off_c, 0, 56, 62
1, 747808, Note_off_c, 0, 60, 66
1, 747840, Note_on_c, 0, 80, 96
1, 747841, Note_on_c, 0, 56, 88
1, 747841, Note_on_c, 0, 89, 67
1, 747843, Note_on_c, 0, 65, 91
1, 747843, Note_on_c, 0, 77, 95
1, 747845, Note_on_c, 0, 53, 22
1, 747847, Note_on_c, 0, 60, 88
1, 747847, Note_on_c, 0, 84, 86
1, 747862, Control_c, 0, 64, 88
1, 747873, Note_off_c, 0, 60, 69
1, 747874, Note_off_c, 0, 65, 64
1, 747877, Note_on_c, 0, 86, 42
1, 747877, Control_c, 0, 64, 63
1, 747880, Note_off_c, 0, 77, 67
1, 747881, Note_off_c, 0, 89, 59
1, 747882, Note_off_c, 0, 53, 62
1, 747883, Note_off_c, 0, 80, 63
1, 747883, Note_off_c, 0, 84, 62
1, 747892, Control_c, 0, 64, 0
1, 747895, Note_off_c, 0, 56, 65
1, 747899, Note_off_c, 0, 86, 48
1, 748007, Note_on_c, 0, 74, 104
1, 748007, Note_on_c, 0, 77, 103
1, 748008, Note_on_c, 0, 62, 91
1, 748008, Note_on_c, 0, 81, 89
1, 748008, Note_on_c, 0, 86, 81
1, 748010, Note_on_c, 0, 57, 83
1, 748010, Control_c, 0, 64, 65
1, 748011, Note_on_c, 0, 53, 80
1, 748013, Note_on_c, 0, 50, 83
1, 748025, Control_c, 0, 64, 127
1, 748029, Note_off_c, 0, 62, 71
1, 748031, Note_on_c, 0, 83, 53
1, 748031, Note_off_c, 0, 83, 127
1, 748032, Note_off_c, 0, 57, 69
1, 748036, Note_off_c, 0, 50, 68
1, 748036, Note_off_c, 0, 81, 61
1, 748038, Note_off_c, 0, 74, 68
1, 748038, Note_off_c, 0, 77, 65
1, 748039, Note_off_c, 0, 53, 66
1, 748047, Note_off_c, 0, 86, 58
1, 748062, Poly_aftertouch_c, 0, 83, 0
1, 748214, Note_on_c, 0, 74, 95
1, 748224, Note_on_c, 0, 50, 74
1, 748224, Note_on_c, 0, 58, 87
1, 748224, Note_on_c, 0, 70, 81
1, 748228, Note_on_c, 0, 53, 74
1, 748228, Note_on_c, 0, 82, 67
1, 748243, Note_off_c, 0, 70, 73
1, 748244, Note_on_c, 0, 54, 37
1, 748244, Note_off_c, 0, 58, 70
1, 748245, Note_off_c, 0, 82, 63
1, 748246, Note_off_c, 0, 74, 65
1, 748261, Note_off_c, 0, 53, 63
1, 748267, Note_off_c, 0, 50, 0
1, 748278, Note_off_c, 0, 54, 40
1, 748283, Note_on_c, 0, 58, 100
1, 748283, Note_on_c, 0, 74, 95
1, 748285, Note_on_c, 0, 46, 45
1, 748288, Note_on_c, 0, 70, 91
1, 748290, Note_on_c, 0, 53, 73
1, 748294, Note_on_c, 0, 82, 81
1, 748305, Poly_aftertouch_c, 0, 50, 127
1, 748308, Note_off_c, 0, 53, 69
1, 748312, Note_off_c, 0, 82, 70
1, 748315, Control_c, 0, 64, 76
1, 748316, Note_off_c, 0, 46, 62
1, 748317, Note_off_c, 0, 58, 61
1, 748322, Poly_aftertouch_c, 0, 50, 0
1, 748323, Note_off_c, 0, 70, 58
1, 748325, Note_off_c, 0, 74, 65
1, 748330, Control_c, 0, 64, 49
1, 748345, Control_c, 0, 64, 0
1, 748455, Note_on_c, 0, 60, 92
1, 748458, Note_on_c, 0, 48, 91
1, 748458, Note_on_c, 0, 64, 94
1, 748460, Note_on_c, 0, 67, 85
1, 748461, Note_on_c, 0, 76, 86
1, 748463, Control_c, 0, 64, 42
1, 748478, Note_off_c, 0, 67, 73
1, 748478, Control_c, 0, 64, 75
1, 748479, Note_off_c, 0, 64, 70
1, 748480, Note_off_c, 0, 60, 64
1, 748482, Note_on_c, 0, 51, 43
1, 748488, Note_off_c, 0, 48, 65
1, 748490, Note_on_c, 0, 70, 34
1, 748490, Note_off_c, 0, 70, 127
1, 748493, Control_c, 0, 64, 127
1, 748503, Note_off_c, 0, 76, 61
1, 748521, Note_off_c, 0, 51, 53
1, 748650, Note_on_c, 0, 71, 82
1, 748652, Note_on_c, 0, 51, 71
1, 748653, Note_on_c, 0, 56, 86
1, 748655, Note_on_c, 0, 68, 79
1, 748655, Note_on_c, 0, 75, 75
1, 748656, Note_on_c, 0, 47, 69
1, 748656, Note_on_c, 0, 80, 75
1, 748661, Note_on_c, 0, 44, 67
1, 748673, Note_on_c, 0, 70, 51
1, 748673, Note_off_c, 0, 70, 127
1, 748674, Note_off_c, 0, 68, 72
1, 748675, Note_off_c, 0, 56, 71
1, 748676, Note_off_c, 0, 71, 64
1, 748678, Note_off_c, 0, 75, 71
1, 748687, Note_off_c, 0, 51, 66
1, 748690, Note_off_c, 0, 47, 63
1, 748692, Note_off_c, 0, 44, 64
1, 748692, Note_off_c, 0, 80, 51
1, 748712, Poly_aftertouch_c, 0, 71, 0
1, 748714, Note_on_c, 0, 80, 75
1, 748714, Control_c, 0, 64, 101
1, 748715, Note_on_c, 0, 68, 100
1, 748719, Note_on_c, 0, 71, 82
1, 748719, Poly_aftertouch_c, 0, 51, 0
1, 748722, Note_on_c, 0, 75, 81
1, 748723, Note_on_c, 0, 56, 95
1, 748729, Note_on_c, 0, 51, 59
1, 748729, Note_off_c, 0, 51, 127
1, 748729, Control_c, 0, 64, 67
1, 748741, Note_off_c, 0, 56, 69
1, 748742, Note_on_c, 0, 47, 57
1, 748744, Control_c, 0, 64, 0
1, 748748, Note_on_c, 0, 58, 64
1, 748748, Note_off_c, 0, 68, 66
1, 748750, Note_on_c, 0, 45, 37
1, 748760, Note_off_c, 0, 71, 61
1, 748761, Note_off_c, 0, 80, 64
1, 748762, Note_off_c, 0, 75, 59
1, 748767, Note_off_c, 0, 47, 57
1, 748771, Note_off_c, 0, 58, 41
1, 748793, Note_off_c, 0, 45, 45
1, 748890, Note_on_c, 0, 58, 81
1, 748890, Note_on_c, 0, 53, 79
1, 748896, Note_on_c, 0, 62, 96
1, 748898, Note_on_c, 0, 65, 89
1, 748899, Note_on_c, 0, 46, 80
1, 748901, Note_on_c, 0, 74, 86
1, 748902, Note_on_c, 0, 70, 73
1, 748913, Note_on_c, 0, 50, 63
1, 748914, Control_c, 0, 64, 60
1, 748920, Note_off_c, 0, 65, 68
1, 748920, Note_off_c, 0, 70, 43
1, 748923, Note_off_c, 0, 62, 68
1, 748929, Control_c, 0, 64, 108
1, 748932, Note_off_c, 0, 58, 62
1, 748939, Note_off_c, 0, 53, 62
1, 748943, Note_off_c, 0, 74, 59
1, 748944, Note_off_c, 0, 46, 60
1, 748944, Control_c, 0, 64, 127
1, 748947, Note_off_c, 0, 50, 64
1, 749081, Note_on_c, 0, 54, 91
1, 749087, Note_on_c, 0, 42, 87
1, 749091, Note_on_c, 0, 73, 62
1, 749097, Note_on_c, 0, 69, 61
1, 749099, Note_on_c, 0, 66, 61
1, 749109, Note_off_c, 0, 54, 62
1, 749110, Note_off_c, 0, 73, 65
1, 749114, Note_off_c, 0, 42, 68
1, 749118, Note_off_c, 0, 69, 63
1, 749121, Note_off_c, 0, 66, 62
1, 749138, Note_on_c, 0, 78, 78
1, 749141, Note_on_c, 0, 66, 93
1, 749150, Note_on_c, 0, 69, 82
1, 749155, Note_on_c, 0, 73, 78
1, 749165, Note_on_c, 0, 42, 100
1, 749173, Note_off_c, 0, 69, 66
1, 749173, Note_off_c, 0, 66, 67
1, 749174, Note_off_c, 0, 73, 72
1, 749176, Note_on_c, 0, 54, 60
1, 749181, Note_off_c, 0, 78, 65
1, 749182, Note_off_c, 0, 42, 74
1, 749188, Note_off_c, 0, 54, 72
1, 749242, Control_c, 0, 64, 92
1, 749256, Control_c, 0, 64, 66
1, 749271, Control_c, 0, 64, 35
1, 749286, Control_c, 0, 64, 0
1, 749353, Note_on_c, 0, 62, 88
1, 749355, Note_on_c, 0, 50, 82
1, 749356, Note_on_c, 0, 53, 90
1, 749358, Note_on_c, 0, 38, 73
1, 749362, Note_on_c, 0, 57, 77
1, 749376, Note_off_c, 0, 50, 67
1, 749378, Note_off_c, 0, 53, 69
1, 749382, Note_off_c, 0, 38, 65
1, 749385, Note_off_c, 0, 57, 67
1, 749397, Note_off_c, 0, 62, 60
1, 749572, Note_on_c, 0, 64, 70
1, 749628, Note_on_c, 0, 52, 77
1, 749628, Note_on_c, 0, 56, 75
1, 749630, Note_on_c, 0, 61, 71
1, 749631, Note_off_c, 0, 64, 41
1, 749638, Note_on_c, 0, 46, 76
1, 749641, Note_on_c, 0, 34, 81
1, 749653, Note_off_c, 0, 52, 67
1, 749654, Note_off_c, 0, 56, 67
1, 749659, Note_off_c, 0, 61, 67
1, 749662, Note_off_c, 0, 46, 65
1, 749671, Note_off_c, 0, 34, 65
1, 749796, Note_on_c, 0, 62, 79
1, 749798, Note_on_c, 0, 50, 81
1, 749799, Note_on_c, 0, 38, 74
1, 749803, Note_on_c, 0, 57, 68
1, 749804, Note_on_c, 0, 53, 69
1, 749821, Note_off_c, 0, 50, 67
1, 749821, Note_off_c, 0, 38, 65
1, 749824, Note_off_c, 0, 57, 65
1, 749826, Note_off_c, 0, 53, 62
1, 749831, Note_off_c, 0, 62, 63
1, 750003, Note_on_c, 0, 64, 73
1, 750050, Note_on_c, 0, 52, 84
1, 750051, Note_on_c, 0, 56, 80
1, 750053, Note_on_c, 0, 44, 81
1, 750056, Note_on_c, 0, 32, 85
1, 750056, Note_on_c, 0, 61, 79
1, 750065, Note_off_c, 0, 64, 56
1, 750073, Note_off_c, 0, 52, 70
1, 750076, Note_off_c, 0, 56, 70
1, 750080, Note_off_c, 0, 32, 65
1, 750080, Note_off_c, 0, 44, 69
1, 750093, Note_off_c, 0, 61, 64
1, 750211, Note_on_c, 0, 50, 91
1, 750212, Note_on_c, 0, 38, 94
1, 750220, Note_on_c, 0, 57, 86
1, 750223, Note_on_c, 0, 53, 88
1, 750234, Note_on_c, 0, 62, 63
1, 750239, Note_off_c, 0, 50, 67
1, 750241, Note_on_c, 0, 61, 47
1, 750243, Note_off_c, 0, 38, 68
1, 750245, Note_off_c, 0, 53, 69
1, 750258, Note_off_c, 0, 57, 63
1, 750262, Note_off_c, 0, 62, 65
1, 750270, Note_off_c, 0, 61, 54
1, 750402, Note_on_c, 0, 64, 88
1, 750431, Note_on_c, 0, 30, 93
1, 750432, Note_on_c, 0, 42, 95
1, 750460, Note_off_c, 0, 30, 69
1, 750464, Note_off_c, 0, 42, 66
1, 750482, Note_on_c, 0, 61, 93
1, 750494, Note_on_c, 0, 58, 78
1, 750495, Note_off_c, 0, 64, 62
1, 750506, Note_on_c, 0, 52, 62
1, 750522, Note_off_c, 0, 58, 66
1, 750531, Note_off_c, 0, 52, 59
1, 750537, Note_off_c, 0, 61, 66
1, 750583, Note_on_c, 0, 50, 93
1, 750589, Note_on_c, 0, 36, 86
1, 750589, Note_on_c, 0, 48, 90
1, 750592, Note_on_c, 0, 38, 84
1, 750620, Note_on_c, 0, 61, 86
1, 750621, Control_c, 0, 64, 51
1, 750622, Note_off_c, 0, 50, 66
1, 750622, Note_on_c, 0, 60, 80
1, 750622, Note_off_c, 0, 48, 64
1, 750628, Note_on_c, 0, 53, 72
1, 750631, Note_off_c, 0, 38, 62
1, 750635, Control_c, 0, 64, 72
1, 750637, Note_off_c, 0, 36, 61
1, 750640, Note_on_c, 0, 57, 58
1, 750650, Control_c, 0, 64, 121
1, 750655, Note_off_c, 0, 53, 67
1, 750659, Note_on_c, 0, 64, 24
1, 750665, Control_c, 0, 64, 127
1, 750668, Note_off_c, 0, 57, 66
1, 750692, Note_off_c, 0, 60, 58
1, 750697, Note_off_c, 0, 61, 65
1, 750729, Note_on_c, 0, 61, 67
1, 750729, Note_on_c, 0, 51, 96
1, 750732, Note_on_c, 0, 57, 74
1, 750738, Note_on_c, 0, 29, 99
1, 750738, Note_on_c, 0, 41, 105
1, 750739, Control_c, 0, 64, 104
1, 750744, Note_off_c, 0, 64, 62
1, 750753, Control_c, 0, 64, 70
1, 750762, Note_on_c, 0, 56, 48
1, 750762, Note_off_c, 0, 56, 127
1, 750768, Note_off_c, 0, 51, 62
1, 750768, Control_c, 0, 64, 57
1, 750769, Note_off_c, 0, 29, 67
1, 750774, Note_off_c, 0, 41, 68
1, 750777, Note_off_c, 0, 57, 58
1, 750783, Control_c, 0, 64, 65
1, 750794, Note_off_c, 0, 61, 63
1, 750798, Control_c, 0, 64, 81
1, 750813, Control_c, 0, 64, 127
1, 750869, Note_on_c, 0, 61, 93
1, 750870, Note_on_c, 0, 58, 84
1, 750870, Note_on_c, 0, 53, 89
1, 750871, Note_on_c, 0, 38, 98
1, 750873, Control_c, 0, 64, 78
1, 750873, Note_on_c, 0, 50, 93
1, 750877, Note_on_c, 0, 48, 89
1, 750887, Control_c, 0, 64, 58
1, 750896, Note_off_c, 0, 50, 69
1, 750902, Control_c, 0, 64, 44
1, 750903, Note_off_c, 0, 48, 65
1, 750913, Note_off_c, 0, 53, 63
1, 750914, Note_off_c, 0, 38, 60
1, 750917, Control_c, 0, 64, 62
1, 750924, Note_off_c, 0, 58, 59
1, 750932, Control_c, 0, 64, 89
1, 750944, Note_on_c, 0, 64, 92
1, 750947, Control_c, 0, 64, 127
1, 750952, Note_off_c, 0, 61, 65
1, 750991, Control_c, 0, 64, 84
1, 751006, Control_c, 0, 64, 56
1, 751007, Note_on_c, 0, 58, 99
1, 751008, Note_on_c, 0, 54, 98
1, 751008, Note_on_c, 0, 61, 87
1, 751009, Note_on_c, 0, 28, 95
1, 751012, Note_on_c, 0, 38, 96
1, 751021, Control_c, 0, 64, 48
1, 751030, Note_on_c, 0, 40, 67
1, 751035, Control_c, 0, 64, 69
1, 751043, Note_off_c, 0, 28, 64
1, 751046, Note_off_c, 0, 54, 66
1, 751049, Note_off_c, 0, 38, 62
1, 751057, Control_c, 0, 64, 127
1, 751060, Note_off_c, 0, 64, 41
1, 751065, Note_off_c, 0, 40, 65
1, 751075, Note_on_c, 0, 60, 46
1, 751079, Note_off_c, 0, 58, 65
1, 751084, Note_on_c, 0, 53, 22
1, 751090, Note_off_c, 0, 61, 59
1, 751108, Note_off_c, 0, 60, 55
1, 751114, Note_off_c, 0, 53, 0
1, 751135, Poly_aftertouch_c, 0, 53, 0
1, 751168, Note_on_c, 0, 36, 95
1, 751170, Note_on_c, 0, 48, 104
1, 751171, Note_on_c, 0, 53, 90
1, 751173, Note_on_c, 0, 57, 95
1, 751182, Note_on_c, 0, 61, 87
1, 751191, Control_c, 0, 64, 91
1, 751206, Control_c, 0, 64, 60
1, 751206, Note_off_c, 0, 48, 65
1, 751213, Note_off_c, 0, 36, 65
1, 751221, Control_c, 0, 64, 41
1, 751235, Control_c, 0, 64, 64
1, 751248, Note_on_c, 0, 64, 99
1, 751250, Control_c, 0, 64, 103
1, 751252, Note_off_c, 0, 53, 53
1, 751265, Control_c, 0, 64, 127
1, 751272, Note_off_c, 0, 57, 63
1, 751274, Note_off_c, 0, 61, 60
1, 751355, Note_on_c, 0, 61, 98
1, 751356, Note_on_c, 0, 57, 100
1, 751359, Note_on_c, 0, 55, 96
1, 751369, Note_on_c, 0, 27, 108
1, 751371, Note_on_c, 0, 39, 102
1, 751385, Control_c, 0, 64, 97
1, 751400, Control_c, 0, 64, 67
1, 751409, Note_off_c, 0, 39, 63
1, 751415, Control_c, 0, 64, 56
1, 751415, Note_off_c, 0, 27, 62
1, 751418, Note_on_c, 0, 60, 18
1, 751430, Control_c, 0, 64, 70
1, 751445, Control_c, 0, 64, 127
1, 751450, Note_off_c, 0, 64, 59
1, 751541, Note_off_c, 0, 55, 58
1, 751570, Note_off_c, 0, 57, 60
1, 751570, Note_off_c, 0, 60, 21
1, 751597, Note_off_c, 0, 61, 57
1, 751642, Note_on_c, 0, 33, 93
1, 751643, Note_on_c, 0, 45, 103
1, 751645, Note_on_c, 0, 57, 97
1, 751645, Note_on_c, 0, 62, 98
1, 751648, Note_on_c, 0, 55, 96
1, 751651, Control_c, 0, 64, 93
1, 751666, Control_c, 0, 64, 58
1, 751681, Control_c, 0, 64, 0
1, 751725, Control_c, 0, 64, 64
1, 751733, Note_off_c, 0, 45, 59
1, 751740, Control_c, 0, 64, 110
1, 751755, Control_c, 0, 64, 127
1, 751776, Note_off_c, 0, 33, 62
1, 751849, Note_off_c, 0, 57, 61
1, 751868, Note_off_c, 0, 55, 52
1, 751934, Note_off_c, 0, 62, 61
1, 752086, Note_on_c, 0, 26, 83
1, 752086, Note_on_c, 0, 38, 100
1, 752086, Note_on_c, 0, 62, 96
1, 752089, Note_on_c, 0, 53, 102
1, 752089, Note_on_c, 0, 57, 90
1, 752089, Control_c, 0, 64, 83
1, 752103, Control_c, 0, 64, 49
1, 752118, Control_c, 0, 64, 0
1, 752148, Control_c, 0, 64, 47
1, 752163, Control_c, 0, 64, 68
1, 752178, Control_c, 0, 64, 109
1, 752193, Control_c, 0, 64, 127
1, 752239, Note_off_c, 0, 53, 60
1, 752274, Note_off_c, 0, 62, 60
1, 752284, Note_off_c, 0, 57, 63
1, 752333, Note_off_c, 0, 26, 59
1, 752352, Note_off_c, 0, 38, 57
1, 752824, Note_on_c, 0, 26, 80
1, 752824, Note_on_c, 0, 38, 100
1, 752852, Control_c, 0, 64, 87
1, 752866, Control_c, 0, 64, 61
1, 752881, Control_c, 0, 64, 0
1, 752940, Control_c, 0, 64, 47
1, 752955, Control_c, 0, 64, 76
1, 752971, Control_c, 0, 64, 127
1, 753079, Note_off_c, 0, 26, 61
1, 753097, Note_off_c, 0, 38, 54
1, 753241, Note_on_c, 0, 38, 92
1, 753243, Note_on_c, 0, 26, 74
1, 753275, Note_off_c, 0, 26, 62
1, 753278, Note_off_c, 0, 38, 62
1, 753321, Note_on_c, 0, 38, 82
1, 753326, Note_on_c, 0, 26, 76
1, 753403, Note_off_c, 0, 38, 50
1, 753457, Note_off_c, 0, 26, 38
1, 753543, Note_on_c, 0, 38, 94
1, 753551, Note_on_c, 0, 26, 74
1, 753624, Note_off_c, 0, 38, 57
1, 753628, Note_off_c, 0, 26, 58
1, 753865, Note_on_c, 0, 38, 89
1, 753870, Note_on_c, 0, 26, 65
1, 753902, Note_off_c, 0, 26, 64
1, 753903, Note_off_c, 0, 38, 64
1, 753945, Note_on_c, 0, 38, 89
1, 753954, Note_on_c, 0, 26, 76
1, 754011, Note_off_c, 0, 38, 60
1, 754065, Note_off_c, 0, 26, 56
1, 754166, Note_on_c, 0, 38, 96
1, 754177, Note_on_c, 0, 26, 75
1, 754255, Note_off_c, 0, 26, 60
1, 754256, Poly_aftertouch_c, 0, 29, 127
1, 754258, Note_off_c, 0, 38, 60
1, 754294, Poly_aftertouch_c, 0, 29, 0
1, 754493, Note_on_c, 0, 38, 83
1, 754498, Note_on_c, 0, 26, 62
1, 754530, Note_off_c, 0, 38, 58
1, 754535, Note_off_c, 0, 26, 59
1, 754583, Note_on_c, 0, 38, 87
1, 754590, Note_on_c, 0, 26, 62
1, 754662, Note_off_c, 0, 38, 57
1, 754685, Note_off_c, 0, 26, 38
1, 754801, Control_c, 0, 67, 34
1, 754816, Control_c, 0, 67, 35
1, 754831, Control_c, 0, 67, 35
1, 754846, Control_c, 0, 67, 36
1, 754876, Control_c, 0, 67, 37
1, 754906, Control_c, 0, 67, 37
1, 754935, Control_c, 0, 67, 38
1, 754939, Note_on_c, 0, 38, 89
1, 754946, Note_on_c, 0, 26, 67
1, 754965, Control_c, 0, 67, 44
1, 754980, Control_c, 0, 67, 52
1, 754995, Control_c, 0, 67, 57
1, 755009, Control_c, 0, 67, 59
1, 755024, Control_c, 0, 67, 59
1, 755032, Note_off_c, 0, 26, 60
1, 755034, Note_off_c, 0, 38, 61
1, 755053, Control_c, 0, 67, 60
1, 755068, Control_c, 0, 67, 61
1, 755083, Control_c, 0, 67, 61
1, 755098, Control_c, 0, 67, 62
1, 755112, Control_c, 0, 67, 63
1, 755126, Control_c, 0, 67, 72
1, 755141, Control_c, 0, 67, 88
1, 755156, Control_c, 0, 67, 111
1, 755171, Control_c, 0, 67, 127
1, 755478, Note_on_c, 0, 38, 75
1, 755490, Note_on_c, 0, 26, 61
1, 756009, Note_off_c, 0, 26, 34
1, 756038, Note_off_c, 0, 38, 58
1, 756538, Note_on_c, 0, 38, 60
1, 756548, Note_on_c, 0, 26, 46
1, 757221, Note_off_c, 0, 38, 57
1, 757237, Note_off_c, 0, 26, 46
1, 757887, Note_on_c, 0, 38, 47
1, 757898, Note_on_c, 0, 26, 34
1, 758706, Note_off_c, 0, 26, 41
1, 758709, Note_off_c, 0, 38, 37
1, 760271, Note_on_c, 0, 38, 33
1, 760285, Note_on_c, 0, 26, 32
1, 760620, Control_c, 0, 64, 115
1, 760635, Control_c, 0, 64, 111
1, 760650, Control_c, 0, 64, 107
1, 760665, Control_c, 0, 64, 100
1, 760680, Control_c, 0, 64, 94
1, 760695, Control_c, 0, 64, 90
1, 760709, Control_c, 0, 64, 86
1, 760724, Control_c, 0, 64, 84
1, 760739, Control_c, 0, 64, 82
1, 760754, Control_c, 0, 64, 78
1, 760769, Control_c, 0, 64, 74
1, 760791, Control_c, 0, 64, 71
1, 760806, Control_c, 0, 64, 68
1, 760820, Control_c, 0, 64, 66
1, 760835, Control_c, 0, 64, 66
1, 760850, Control_c, 0, 64, 65
1, 760864, Control_c, 0, 64, 65
1, 760879, Control_c, 0, 64, 64
1, 760894, Control_c, 0, 64, 63
1, 760909, Control_c, 0, 64, 62
1, 760924, Control_c, 0, 64, 61
1, 760939, Control_c, 0, 64, 60
1, 760954, Control_c, 0, 64, 60
1, 760984, Control_c, 0, 64, 59
1, 760999, Control_c, 0, 64, 58
1, 761014, Control_c, 0, 64, 56
1, 761029, Control_c, 0, 64, 55
1, 761043, Control_c, 0, 64, 55
1, 761058, Control_c, 0, 64, 54
1, 761073, Control_c, 0, 64, 53
1, 761088, Control_c, 0, 64, 53
1, 761103, Control_c, 0, 64, 52
1, 761118, Control_c, 0, 64, 51
1, 761133, Control_c, 0, 64, 50
1, 761148, Control_c, 0, 64, 49
1, 761163, Control_c, 0, 64, 48
1, 761192, Control_c, 0, 64, 47
1, 761207, Control_c, 0, 64, 47
1, 761222, Control_c, 0, 64, 46
1, 761237, Control_c, 0, 64, 46
1, 761267, Control_c, 0, 64, 45
1, 761282, Control_c, 0, 64, 43
1, 761296, Control_c, 0, 64, 41
1, 761311, Control_c, 0, 64, 40
1, 761341, Control_c, 0, 64, 40
1, 761370, Control_c, 0, 64, 39
1, 761400, Control_c, 0, 64, 39
1, 761488, Control_c, 0, 64, 40
1, 761503, Control_c, 0, 64, 41
1, 761518, Control_c, 0, 64, 44
1, 761533, Control_c, 0, 64, 46
1, 761556, Control_c, 0, 64, 47
1, 761570, Control_c, 0, 64, 49
1, 761585, Control_c, 0, 64, 52
1, 761600, Control_c, 0, 64, 56
1, 761615, Control_c, 0, 64, 59
1, 761629, Control_c, 0, 64, 60
1, 761644, Control_c, 0, 64, 60
1, 761659, Control_c, 0, 64, 61
1, 761674, Control_c, 0, 64, 62
1, 761689, Control_c, 0, 64, 65
1, 761703, Control_c, 0, 64, 68
1, 761718, Control_c, 0, 64, 71
1, 761733, Control_c, 0, 64, 73
1, 761748, Control_c, 0, 64, 73
1, 761764, Control_c, 0, 64, 75
1, 761779, Control_c, 0, 64, 77
1, 761793, Control_c, 0, 64, 80
1, 761808, Control_c, 0, 64, 84
1, 761823, Control_c, 0, 64, 86
1, 761838, Control_c, 0, 64, 89
1, 761853, Control_c, 0, 64, 91
1, 761867, Control_c, 0, 64, 94
1, 761882, Control_c, 0, 64, 97
1, 761897, Control_c, 0, 64, 101
1, 761911, Control_c, 0, 64, 107
1, 761926, Control_c, 0, 64, 113
1, 761941, Control_c, 0, 64, 127
1, 764629, Note_on_c, 0, 62, 59
1, 764680, Note_off_c, 0, 26, 35
1, 764817, Note_off_c, 0, 38, 39
1, 765365, Note_on_c, 0, 45, 12
1, 765730, Note_on_c, 0, 53, 24
1, 765887, Note_off_c, 0, 45, 35
1, 765999, Note_on_c, 0, 45, 39
1, 766244, Note_on_c, 0, 57, 44
1, 766372, Note_on_c, 0, 65, 64
1, 766378, Note_off_c, 0, 45, 34
1, 766411, Note_off_c, 0, 62, 59
1, 766526, Note_on_c, 0, 45, 45
1, 766612, Note_off_c, 0, 57, 37
1, 766697, Note_off_c, 0, 53, 39
1, 766851, Note_on_c, 0, 69, 64
1, 767027, Note_off_c, 0, 65, 60
1, 767041, Note_on_c, 0, 53, 53
1, 767124, Note_off_c, 0, 45, 36
1, 767143, Note_on_c, 0, 73, 82
1, 767253, Note_on_c, 0, 44, 53
1, 767366, Note_off_c, 0, 53, 37
1, 767408, Note_off_c, 0, 69, 27
1, 767410, Note_on_c, 0, 74, 88
1, 767450, Note_on_c, 0, 53, 51
1, 767486, Note_off_c, 0, 44, 54
1, 767512, Note_off_c, 0, 73, 56
1, 767648, Note_on_c, 0, 45, 54
1, 767724, Note_on_c, 0, 76, 83
1, 767753, Control_c, 0, 67, 122
1, 767768, Control_c, 0, 67, 107
1, 767782, Control_c, 0, 67, 100
1, 767789, Note_off_c, 0, 53, 29
1, 767796, Note_off_c, 0, 74, 62
1, 767856, Control_c, 0, 67, 105
1, 767871, Control_c, 0, 67, 109
1, 767901, Control_c, 0, 67, 111
1, 767902, Note_on_c, 0, 38, 57
1, 767930, Control_c, 0, 67, 115
1, 767945, Control_c, 0, 67, 119
1, 767960, Control_c, 0, 67, 122
1, 767989, Control_c, 0, 67, 125
1, 768004, Control_c, 0, 67, 127
1, 768013, Note_off_c, 0, 45, 52
1, 768268, Note_on_c, 0, 73, 79
1, 768383, Note_off_c, 0, 76, 59
1, 768383, Control_c, 0, 64, 101
1, 768398, Control_c, 0, 64, 85
1, 768412, Control_c, 0, 64, 69
1, 768427, Control_c, 0, 64, 55
1, 768442, Control_c, 0, 64, 43
1, 768457, Control_c, 0, 64, 38
1, 768472, Control_c, 0, 64, 37
1, 768487, Control_c, 0, 64, 36
1, 768502, Control_c, 0, 64, 37
1, 768516, Control_c, 0, 64, 41
1, 768531, Control_c, 0, 64, 51
1, 768546, Control_c, 0, 64, 61
1, 768561, Control_c, 0, 64, 68
1, 768576, Control_c, 0, 64, 76
1, 768591, Control_c, 0, 64, 82
1, 768605, Control_c, 0, 64, 89
1, 768620, Control_c, 0, 64, 99
1, 768635, Control_c, 0, 64, 117
1, 768650, Control_c, 0, 64, 127
1, 768714, Note_on_c, 0, 45, 40
1, 768746, Note_off_c, 0, 45, 56
1, 768779, Note_off_c, 0, 38, 58
1, 769056, Note_on_c, 0, 55, 40
1, 769289, Note_on_c, 0, 52, 52
1, 769323, Note_off_c, 0, 55, 59
1, 769504, Note_on_c, 0, 58, 61
1, 769630, Note_on_c, 0, 61, 79
1, 769654, Note_off_c, 0, 58, 59
1, 769783, Note_on_c, 0, 45, 63
1, 769840, Note_off_c, 0, 52, 58
1, 769960, Note_on_c, 0, 64, 87
1, 770043, Note_off_c, 0, 45, 60
1, 770075, Note_off_c, 0, 61, 36
1, 770162, Note_on_c, 0, 67, 83
1, 770174, Note_on_c, 0, 51, 65
1, 770219, Note_off_c, 0, 73, 56
1, 770284, Note_off_c, 0, 64, 57
1, 770344, Note_on_c, 0, 45, 71
1, 770351, Note_off_c, 0, 51, 58
1, 770356, Note_on_c, 0, 70, 81
1, 770385, Note_off_c, 0, 67, 62
1, 770438, Note_off_c, 0, 70, 63
1, 770552, Note_on_c, 0, 73, 92
1, 770649, Note_on_c, 0, 52, 68
1, 770688, Control_c, 0, 67, 118
1, 770695, Note_off_c, 0, 45, 51
1, 770703, Control_c, 0, 67, 108
1, 770718, Control_c, 0, 67, 93
1, 770733, Control_c, 0, 67, 74
1, 770734, Note_on_c, 0, 76, 88
1, 770747, Control_c, 0, 67, 53
1, 770762, Control_c, 0, 67, 0
1, 770780, Note_off_c, 0, 73, 55
1, 770873, Note_on_c, 0, 45, 71
1, 770940, Note_on_c, 0, 79, 83
1, 770951, Note_off_c, 0, 52, 37
1, 770977, Note_off_c, 0, 76, 62
1, 771131, Note_on_c, 0, 38, 64
1, 771172, Note_on_c, 0, 81, 84
1, 771223, Note_off_c, 0, 79, 59
1, 771239, Note_off_c, 0, 45, 60
1, 771274, Control_c, 0, 67, 41
1, 771289, Control_c, 0, 67, 52
1, 771304, Control_c, 0, 67, 52
1, 771319, Control_c, 0, 67, 54
1, 771333, Control_c, 0, 67, 56
1, 771349, Control_c, 0, 67, 58
1, 771364, Control_c, 0, 67, 68
1, 771378, Control_c, 0, 67, 69
1, 771408, Control_c, 0, 67, 71
1, 771423, Control_c, 0, 67, 74
1, 771438, Control_c, 0, 67, 77
1, 771453, Control_c, 0, 67, 91
1, 771468, Control_c, 0, 67, 98
1, 771479, Note_on_c, 0, 78, 90
1, 771482, Control_c, 0, 64, 109
1, 771482, Control_c, 0, 67, 102
1, 771497, Control_c, 0, 64, 82
1, 771497, Control_c, 0, 67, 112
1, 771512, Control_c, 0, 64, 65
1, 771512, Control_c, 0, 67, 127
1, 771527, Control_c, 0, 64, 44
1, 771542, Control_c, 0, 64, 0
1, 771565, Note_off_c, 0, 81, 60
1, 771586, Control_c, 0, 64, 34
1, 771601, Control_c, 0, 64, 52
1, 771616, Control_c, 0, 64, 67
1, 771617, Poly_aftertouch_c, 0, 41, 127
1, 771630, Control_c, 0, 64, 90
1, 771645, Control_c, 0, 64, 127
1, 771737, Note_on_c, 0, 45, 60
1, 771739, Poly_aftertouch_c, 0, 43, 127
1, 771825, Poly_aftertouch_c, 0, 41, 0
1, 771885, Note_off_c, 0, 45, 60
1, 771887, Note_off_c, 0, 38, 32
1, 771887, Poly_aftertouch_c, 0, 43, 0
1, 771922, Note_on_c, 0, 54, 62
1, 772061, Note_off_c, 0, 54, 58
1, 772123, Note_on_c, 0, 52, 54
1, 772157, Note_off_c, 0, 52, 50
1, 772274, Note_on_c, 0, 60, 74
1, 772382, Note_on_c, 0, 66, 90
1, 772470, Note_off_c, 0, 60, 59
1, 772514, Note_on_c, 0, 45, 65
1, 772667, Note_on_c, 0, 69, 88
1, 772809, Note_off_c, 0, 78, 54
1, 772818, Note_off_c, 0, 66, 54
1, 772870, Note_on_c, 0, 72, 90
1, 772872, Note_on_c, 0, 54, 79
1, 772917, Note_off_c, 0, 45, 31
1, 772934, Control_c, 0, 67, 121
1, 772950, Control_c, 0, 67, 112
1, 772965, Control_c, 0, 67, 108
1, 772980, Control_c, 0, 67, 102
1, 772994, Control_c, 0, 67, 87
1, 773000, Note_off_c, 0, 69, 48
1, 773009, Control_c, 0, 67, 74
1, 773024, Control_c, 0, 67, 71
1, 773039, Control_c, 0, 67, 70
1, 773042, Note_on_c, 0, 45, 78
1, 773046, Note_on_c, 0, 75, 91
1, 773054, Control_c, 0, 67, 69
1, 773056, Note_off_c, 0, 54, 60
1, 773068, Control_c, 0, 67, 68
1, 773073, Note_off_c, 0, 72, 60
1, 773121, Note_off_c, 0, 75, 65
1, 773143, Control_c, 0, 67, 68
1, 773173, Control_c, 0, 67, 68
1, 773238, Note_on_c, 0, 78, 89
1, 773247, Control_c, 0, 67, 69
1, 773290, Note_off_c, 0, 45, 60
1, 773291, Control_c, 0, 67, 68
1, 773304, Note_on_c, 0, 51, 71
1, 773306, Control_c, 0, 67, 68
1, 773321, Control_c, 0, 67, 67
1, 773336, Control_c, 0, 67, 65
1, 773350, Control_c, 0, 67, 61
1, 773365, Control_c, 0, 67, 43
1, 773380, Control_c, 0, 67, 0
1, 773406, Note_on_c, 0, 81, 91
1, 773451, Note_off_c, 0, 78, 59
1, 773490, Note_off_c, 0, 51, 59
1, 773509, Note_on_c, 0, 45, 81
1, 773596, Note_on_c, 0, 84, 91
1, 773641, Note_off_c, 0, 81, 58
1, 773756, Note_on_c, 0, 38, 81
1, 773811, Note_on_c, 0, 86, 90
1, 773840, Note_off_c, 0, 84, 59
1, 773902, Note_off_c, 0, 45, 54
1, 774138, Note_on_c, 0, 83, 100
1, 774203, Control_c, 0, 64, 106
1, 774217, Control_c, 0, 64, 77
1, 774232, Control_c, 0, 64, 57
1, 774246, Note_off_c, 0, 86, 60
1, 774247, Control_c, 0, 64, 0
1, 774343, Control_c, 0, 64, 30
1, 774358, Control_c, 0, 64, 55
1, 774373, Control_c, 0, 64, 73
1, 774388, Control_c, 0, 64, 106
1, 774403, Control_c, 0, 64, 127
1, 774464, Note_on_c, 0, 44, 60
1, 774475, Note_off_c, 0, 38, 63
1, 774495, Note_off_c, 0, 44, 64
1, 774726, Note_on_c, 0, 59, 76
1, 774923, Note_on_c, 0, 53, 83
1, 774946, Note_off_c, 0, 59, 62
1, 775049, Note_on_c, 0, 86, 93
1, 775179, Note_on_c, 0, 65, 81
1, 775206, Note_off_c, 0, 83, 40
1, 775298, Note_on_c, 0, 89, 92
1, 775355, Note_off_c, 0, 86, 57
1, 775367, Note_off_c, 0, 65, 55
1, 775410, Note_on_c, 0, 59, 77
1, 775443, Note_off_c, 0, 59, 65
1, 775456, Note_off_c, 0, 53, 63
1, 775495, Note_on_c, 0, 91, 89
1, 775558, Note_off_c, 0, 89, 62
1, 775737, Note_on_c, 0, 38, 77
1, 775778, Note_on_c, 0, 87, 91
1, 775811, Control_c, 0, 64, 78
1, 775826, Control_c, 0, 64, 54
1, 775841, Control_c, 0, 64, 0
1, 775915, Control_c, 0, 64, 52
1, 775930, Control_c, 0, 64, 69
1, 775945, Control_c, 0, 64, 89
1, 775960, Control_c, 0, 64, 127
1, 775989, Note_on_c, 0, 45, 69
1, 776009, Note_off_c, 0, 38, 61
1, 776015, Note_off_c, 0, 45, 65
1, 776093, Note_off_c, 0, 91, 51
1, 776210, Note_on_c, 0, 61, 73
1, 776287, Note_on_c, 0, 91, 31
1, 776288, Note_off_c, 0, 87, 65
1, 776325, Note_off_c, 0, 91, 42
1, 776384, Note_off_c, 0, 61, 54
1, 776419, Note_on_c, 0, 55, 79
1, 776616, Note_on_c, 0, 91, 86
1, 776788, Note_on_c, 0, 70, 85
1, 776965, Note_on_c, 0, 94, 100
1, 776966, Note_off_c, 0, 70, 58
1, 777120, Note_on_c, 0, 61, 70
1, 777146, Note_off_c, 0, 91, 57
1, 777149, Note_off_c, 0, 61, 67
1, 777161, Note_off_c, 0, 55, 60
1, 777280, Note_on_c, 0, 96, 88
1, 777328, Note_off_c, 0, 94, 64
1, 777453, Note_on_c, 0, 38, 79
1, 777590, Note_on_c, 0, 45, 70
1, 777680, Control_c, 0, 64, 116
1, 777694, Control_c, 0, 64, 84
1, 777709, Control_c, 0, 64, 64
1, 777724, Control_c, 0, 64, 37
1, 777739, Control_c, 0, 64, 0
1, 777781, Note_on_c, 0, 93, 100
1, 777814, Control_c, 0, 64, 46
1, 777819, Note_on_c, 0, 54, 62
1, 777829, Control_c, 0, 64, 66
1, 777829, Control_c, 0, 67, 35
1, 777844, Control_c, 0, 64, 85
1, 777847, Note_off_c, 0, 38, 59
1, 777858, Control_c, 0, 64, 127
1, 777865, Note_off_c, 0, 96, 64
1, 777873, Control_c, 0, 67, 35
1, 777874, Note_off_c, 0, 45, 62
1, 777888, Control_c, 0, 67, 40
1, 777903, Control_c, 0, 67, 51
1, 777918, Control_c, 0, 67, 71
1, 777932, Control_c, 0, 67, 78
1, 777962, Control_c, 0, 67, 79
1, 777977, Control_c, 0, 67, 81
1, 777991, Control_c, 0, 67, 82
1, 778079, Note_off_c, 0, 54, 33
1, 778088, Control_c, 0, 67, 82
1, 778118, Control_c, 0, 67, 82
1, 778133, Control_c, 0, 67, 80
1, 778147, Control_c, 0, 67, 79
1, 778206, Control_c, 0, 67, 78
1, 778221, Control_c, 0, 67, 74
1, 778236, Control_c, 0, 67, 71
1, 778239, Poly_aftertouch_c, 0, 54, 127
1, 778251, Control_c, 0, 67, 70
1, 778271, Note_on_c, 0, 45, 70
1, 778280, Control_c, 0, 67, 67
1, 778295, Control_c, 0, 67, 59
1, 778310, Control_c, 0, 67, 52
1, 778311, Poly_aftertouch_c, 0, 54, 0
1, 778324, Control_c, 0, 67, 47
1, 778327, Note_off_c, 0, 93, 57
1, 778339, Control_c, 0, 67, 38
1, 778354, Control_c, 0, 67, 0
1, 778601, Note_on_c, 0, 54, 70
1, 778649, Note_off_c, 0, 45, 38
1, 778954, Note_on_c, 0, 98, 95
1, 778972, Note_on_c, 0, 62, 60
1, 778984, Note_off_c, 0, 54, 62
1, 779015, Note_off_c, 0, 62, 63
1, 779282, Note_on_c, 0, 69, 57
1, 779541, Note_on_c, 0, 74, 60
1, 779808, Note_on_c, 0, 81, 58
1, 779897, Control_c, 0, 67, 40
1, 779907, Note_off_c, 0, 74, 55
1, 779911, Control_c, 0, 67, 45
1, 779926, Control_c, 0, 67, 51
1, 779941, Control_c, 0, 67, 57
1, 779955, Control_c, 0, 67, 61
1, 779970, Control_c, 0, 67, 62
1, 779985, Control_c, 0, 67, 64
1, 780000, Control_c, 0, 67, 64
1, 780015, Control_c, 0, 67, 65
1, 780030, Control_c, 0, 67, 66
1, 780044, Control_c, 0, 67, 67
1, 780054, Note_on_c, 0, 74, 59
1, 780056, Note_off_c, 0, 81, 49
1, 780074, Control_c, 0, 67, 68
1, 780088, Control_c, 0, 67, 70
1, 780103, Control_c, 0, 67, 78
1, 780118, Control_c, 0, 67, 82
1, 780134, Control_c, 0, 67, 84
1, 780140, Note_off_c, 0, 69, 60
1, 780149, Control_c, 0, 67, 84
1, 780223, Control_c, 0, 67, 85
1, 780238, Control_c, 0, 67, 85
1, 780275, Control_c, 0, 67, 86
1, 780305, Control_c, 0, 67, 87
1, 780320, Control_c, 0, 67, 87
1, 780349, Control_c, 0, 67, 88
1, 780353, Note_on_c, 0, 69, 60
1, 780364, Control_c, 0, 67, 88
1, 780379, Control_c, 0, 67, 89
1, 780393, Control_c, 0, 67, 93
1, 780408, Control_c, 0, 67, 111
1, 780423, Control_c, 0, 67, 125
1, 780453, Control_c, 0, 67, 127
1, 780465, Note_off_c, 0, 74, 57
1, 780500, Note_off_c, 0, 69, 56
1, 780664, Note_on_c, 0, 97, 92
1, 780753, Note_off_c, 0, 98, 66
1, 780986, Note_on_c, 0, 66, 61
1, 781144, Note_on_c, 0, 61, 14
1, 781282, Note_off_c, 0, 66, 57
1, 781356, Note_on_c, 0, 54, 48
1, 781389, Note_off_c, 0, 61, 42
1, 781398, Note_off_c, 0, 54, 63
1, 781408, Note_on_c, 0, 98, 86
1, 781459, Note_off_c, 0, 97, 65
1, 781690, Note_on_c, 0, 38, 62
1, 781823, Note_on_c, 0, 45, 54
1, 782038, Control_c, 0, 64, 83
1, 782043, Note_on_c, 0, 93, 89
1, 782053, Control_c, 0, 64, 64
1, 782068, Control_c, 0, 64, 44
1, 782083, Control_c, 0, 64, 31
1, 782090, Note_on_c, 0, 53, 48
1, 782098, Control_c, 0, 64, 32
1, 782112, Control_c, 0, 64, 40
1, 782119, Note_off_c, 0, 98, 65
1, 782127, Control_c, 0, 64, 55
1, 782142, Control_c, 0, 64, 70
1, 782157, Control_c, 0, 64, 82
1, 782165, Note_off_c, 0, 38, 58
1, 782172, Control_c, 0, 64, 96
1, 782187, Control_c, 0, 64, 111
1, 782199, Note_off_c, 0, 45, 62
1, 782202, Control_c, 0, 64, 127
1, 782476, Note_on_c, 0, 45, 42
1, 782485, Note_off_c, 0, 53, 60
1, 782551, Note_off_c, 0, 45, 54
1, 782719, Note_on_c, 0, 60, 45
1, 782916, Note_on_c, 0, 53, 60
1, 782950, Note_off_c, 0, 60, 36
1, 783088, Note_off_c, 0, 53, 57
1, 783118, Note_on_c, 0, 65, 50
1, 783335, Note_off_c, 0, 65, 51
1, 783347, Note_on_c, 0, 60, 50
1, 783635, Note_on_c, 0, 72, 52
1, 783885, Note_on_c, 0, 65, 57
1, 783979, Note_off_c, 0, 60, 37
1, 783990, Note_on_c, 0, 92, 73
1, 784050, Note_off_c, 0, 93, 57
1, 784148, Note_off_c, 0, 72, 34
1, 784177, Note_on_c, 0, 60, 53
1, 784367, Note_off_c, 0, 65, 54
1, 784488, Note_on_c, 0, 93, 81
1, 784492, Note_off_c, 0, 60, 65
1, 784587, Note_off_c, 0, 92, 58
1, 784760, Note_on_c, 0, 53, 54
1, 785030, Note_on_c, 0, 89, 80
1, 785059, Note_on_c, 0, 45, 60
1, 785138, Control_c, 0, 67, 123
1, 785153, Control_c, 0, 67, 114
1, 785168, Control_c, 0, 67, 107
1, 785182, Control_c, 0, 67, 102
1, 785197, Control_c, 0, 67, 96
1, 785210, Note_off_c, 0, 53, 61
1, 785212, Control_c, 0, 67, 91
1, 785227, Control_c, 0, 67, 81
1, 785241, Note_off_c, 0, 93, 37
1, 785242, Control_c, 0, 67, 61
1, 785256, Control_c, 0, 67, 37
1, 785271, Control_c, 0, 67, 0
1, 785284, Note_on_c, 0, 86, 86
1, 785447, Note_off_c, 0, 89, 52
1, 785561, Note_on_c, 0, 88, 87
1, 785578, Note_on_c, 0, 53, 62
1, 785663, Control_c, 0, 64, 95
1, 785678, Control_c, 0, 64, 76
1, 785693, Control_c, 0, 64, 67
1, 785722, Control_c, 0, 64, 73
1, 785738, Control_c, 0, 64, 84
1, 785753, Control_c, 0, 64, 105
1, 785768, Control_c, 0, 64, 127
1, 785804, Note_on_c, 0, 91, 88
1, 785822, Note_on_c, 0, 59, 72
1, 785832, Note_off_c, 0, 86, 62
1, 785901, Note_off_c, 0, 88, 62
1, 786026, Note_on_c, 0, 89, 92
1, 786037, Poly_aftertouch_c, 0, 48, 127
1, 786082, Note_off_c, 0, 53, 29
1, 786099, Note_off_c, 0, 91, 60
1, 786217, Note_on_c, 0, 85, 86
1, 786235, Note_on_c, 0, 53, 63
1, 786286, Note_off_c, 0, 89, 64
1, 786338, Poly_aftertouch_c, 0, 48, 0
1, 786347, Note_off_c, 0, 45, 59
1, 786375, Note_off_c, 0, 59, 60
1, 786412, Note_off_c, 0, 53, 61
1, 786425, Note_on_c, 0, 86, 86
1, 786467, Note_off_c, 0, 85, 63
1, 786476, Poly_aftertouch_c, 0, 45, 127
1, 786506, Poly_aftertouch_c, 0, 45, 0
1, 786579, Note_on_c, 0, 38, 67
1, 786621, Control_c, 0, 67, 52
1, 786635, Control_c, 0, 67, 68
1, 786650, Control_c, 0, 67, 69
1, 786665, Control_c, 0, 67, 71
1, 786680, Control_c, 0, 67, 75
1, 786695, Control_c, 0, 67, 94
1, 786709, Control_c, 0, 67, 118
1, 786718, Note_on_c, 0, 46, 66
1, 786724, Control_c, 0, 67, 127
1, 786739, Control_c, 0, 64, 92
1, 786754, Control_c, 0, 64, 69
1, 786769, Control_c, 0, 64, 52
1, 786783, Control_c, 0, 64, 33
1, 786798, Control_c, 0, 64, 0
1, 786819, Note_on_c, 0, 82, 84
1, 786843, Control_c, 0, 64, 33
1, 786858, Control_c, 0, 64, 52
1, 786861, Note_off_c, 0, 38, 61
1, 786872, Control_c, 0, 64, 66
1, 786877, Note_on_c, 0, 53, 51
1, 786887, Control_c, 0, 64, 79
1, 786902, Control_c, 0, 64, 91
1, 786912, Note_off_c, 0, 46, 62
1, 786917, Control_c, 0, 64, 96
1, 786932, Control_c, 0, 64, 100
1, 786946, Control_c, 0, 64, 121
1, 786961, Control_c, 0, 64, 127
1, 787142, Note_on_c, 0, 46, 58
1, 787287, Note_off_c, 0, 46, 61
1, 787303, Note_off_c, 0, 53, 59
1, 787329, Note_on_c, 0, 56, 58
1, 787503, Note_off_c, 0, 56, 34
1, 787541, Note_on_c, 0, 53, 53
1, 787792, Note_on_c, 0, 68, 60
1, 788063, Note_on_c, 0, 58, 59
1, 788098, Note_off_c, 0, 68, 45
1, 788166, Note_off_c, 0, 53, 36
1, 788528, Note_on_c, 0, 55, 58
1, 788747, Note_on_c, 0, 67, 70
1, 788773, Note_off_c, 0, 58, 57
1, 788788, Note_off_c, 0, 86, 40
1, 789031, Note_on_c, 0, 84, 77
1, 789057, Note_on_c, 0, 58, 58
1, 789089, Note_off_c, 0, 55, 60
1, 789139, Note_off_c, 0, 82, 56
1, 789197, Note_off_c, 0, 67, 55
1, 789370, Note_on_c, 0, 56, 55
1, 789448, Note_off_c, 0, 58, 62
1, 789556, Control_c, 0, 64, 116
1, 789571, Control_c, 0, 64, 97
1, 789585, Control_c, 0, 64, 83
1, 789600, Control_c, 0, 64, 69
1, 789615, Control_c, 0, 64, 57
1, 789630, Control_c, 0, 64, 47
1, 789645, Control_c, 0, 64, 41
1, 789660, Control_c, 0, 64, 37
1, 789674, Control_c, 0, 64, 36
1, 789689, Control_c, 0, 64, 35
1, 789704, Control_c, 0, 64, 39
1, 789706, Note_on_c, 0, 66, 65
1, 789720, Control_c, 0, 64, 48
1, 789735, Control_c, 0, 64, 59
1, 789749, Control_c, 0, 64, 67
1, 789764, Control_c, 0, 64, 73
1, 789779, Control_c, 0, 64, 80
1, 789794, Control_c, 0, 64, 89
1, 789809, Control_c, 0, 64, 102
1, 789824, Control_c, 0, 64, 127
1, 789856, Note_off_c, 0, 66, 65
1, 789898, Note_on_c, 0, 86, 78
1, 789900, Note_off_c, 0, 56, 63
1, 790027, Note_off_c, 0, 84, 38
1, 790149, Note_on_c, 0, 38, 47
1, 790296, Note_on_c, 0, 47, 42
1, 790394, Control_c, 0, 64, 112
1, 790409, Control_c, 0, 64, 89
1, 790423, Control_c, 0, 64, 73
1, 790438, Control_c, 0, 64, 59
1, 790453, Control_c, 0, 64, 48
1, 790468, Control_c, 0, 64, 45
1, 790477, Note_on_c, 0, 79, 75
1, 790483, Control_c, 0, 64, 47
1, 790498, Control_c, 0, 64, 54
1, 790513, Control_c, 0, 64, 66
1, 790527, Note_off_c, 0, 86, 61
1, 790528, Control_c, 0, 64, 79
1, 790533, Note_on_c, 0, 53, 47
1, 790543, Control_c, 0, 64, 103
1, 790558, Note_off_c, 0, 38, 39
1, 790558, Control_c, 0, 64, 127
1, 790587, Note_off_c, 0, 47, 61
1, 790626, Note_off_c, 0, 53, 62
1, 790811, Note_on_c, 0, 55, 39
1, 791038, Note_on_c, 0, 64, 57
1, 791128, Note_off_c, 0, 64, 50
1, 791419, Note_on_c, 0, 59, 49
1, 791425, Note_on_c, 0, 65, 49
1, 791522, Control_c, 0, 64, 94
1, 791537, Control_c, 0, 64, 76
1, 791551, Control_c, 0, 64, 66
1, 791566, Control_c, 0, 64, 63
1, 791581, Control_c, 0, 64, 64
1, 791596, Control_c, 0, 64, 69
1, 791611, Control_c, 0, 64, 80
1, 791625, Control_c, 0, 64, 98
1, 791640, Control_c, 0, 64, 127
1, 791821, Note_off_c, 0, 65, 60
1, 791879, Note_off_c, 0, 55, 57
1, 791933, Note_off_c, 0, 59, 62
1, 791953, Note_on_c, 0, 78, 79
1, 792010, Note_off_c, 0, 79, 59
1, 792051, Note_off_c, 0, 78, 58
1, 792360, Note_on_c, 0, 77, 83
1, 792372, Note_on_c, 0, 66, 63
1, 792379, Note_on_c, 0, 60, 50
1, 792381, Note_on_c, 0, 56, 46
1, 792463, Control_c, 0, 64, 91
1, 792478, Control_c, 0, 64, 69
1, 792492, Control_c, 0, 64, 56
1, 792507, Control_c, 0, 64, 53
1, 792522, Control_c, 0, 64, 53
1, 792537, Control_c, 0, 64, 58
1, 792551, Control_c, 0, 64, 68
1, 792566, Control_c, 0, 64, 83
1, 792581, Control_c, 0, 64, 106
1, 792596, Control_c, 0, 64, 127
1, 792655, Control_c, 0, 67, 125
1, 792670, Control_c, 0, 67, 109
1, 792684, Control_c, 0, 67, 91
1, 792699, Control_c, 0, 67, 74
1, 792714, Control_c, 0, 67, 59
1, 792729, Control_c, 0, 67, 48
1, 792744, Control_c, 0, 67, 38
1, 792758, Control_c, 0, 67, 0
1, 792804, Note_off_c, 0, 60, 60
1, 792881, Note_off_c, 0, 66, 60
1, 793192, Note_on_c, 0, 73, 80
1, 793221, Note_on_c, 0, 61, 54
1, 793248, Note_off_c, 0, 77, 62
1, 793260, Note_off_c, 0, 56, 11
1, 793265, Note_off_c, 0, 61, 61
1, 793324, Note_off_c, 0, 73, 56
1, 793462, Control_c, 0, 67, 45
1, 793477, Control_c, 0, 67, 59
1, 793492, Control_c, 0, 67, 59
1, 793507, Control_c, 0, 67, 61
1, 793521, Control_c, 0, 67, 63
1, 793536, Control_c, 0, 67, 65
1, 793551, Control_c, 0, 67, 77
1, 793566, Control_c, 0, 67, 91
1, 793581, Control_c, 0, 67, 94
1, 793595, Control_c, 0, 67, 95
1, 793610, Control_c, 0, 67, 97
1, 793625, Control_c, 0, 67, 101
1, 793640, Control_c, 0, 67, 112
1, 793654, Control_c, 0, 67, 122
1, 793669, Control_c, 0, 67, 124
1, 793699, Control_c, 0, 67, 127
1, 793714, Note_on_c, 0, 76, 79
1, 793741, Note_on_c, 0, 69, 53
1, 793747, Note_on_c, 0, 67, 51
1, 793944, Control_c, 0, 64, 114
1, 793959, Control_c, 0, 64, 99
1, 793974, Control_c, 0, 64, 89
1, 793989, Control_c, 0, 64, 79
1, 794004, Control_c, 0, 64, 70
1, 794018, Control_c, 0, 64, 64
1, 794033, Control_c, 0, 64, 59
1, 794048, Control_c, 0, 64, 56
1, 794063, Control_c, 0, 64, 53
1, 794078, Control_c, 0, 64, 47
1, 794093, Control_c, 0, 64, 36
1, 794108, Control_c, 0, 64, 0
1, 794157, Note_on_c, 0, 38, 49
1, 794167, Control_c, 0, 64, 30
1, 794182, Control_c, 0, 64, 43
1, 794197, Control_c, 0, 64, 56
1, 794212, Control_c, 0, 64, 65
1, 794227, Control_c, 0, 64, 74
1, 794242, Control_c, 0, 64, 81
1, 794257, Control_c, 0, 64, 85
1, 794271, Control_c, 0, 64, 91
1, 794286, Control_c, 0, 64, 103
1, 794301, Control_c, 0, 64, 127
1, 794519, Note_on_c, 0, 45, 34
1, 794564, Note_off_c, 0, 67, 58
1, 794643, Note_off_c, 0, 38, 40
1, 794725, Note_off_c, 0, 45, 39
1, 794781, Note_on_c, 0, 52, 45
1, 794799, Note_on_c, 0, 74, 55
1, 794811, Note_on_c, 0, 65, 37
1, 794861, Note_off_c, 0, 69, 47
1, 794948, Note_off_c, 0, 52, 32
1, 795017, Note_on_c, 0, 53, 52
1, 795259, Note_on_c, 0, 57, 52
1, 795681, Note_on_c, 0, 69, 57
1, 795683, Note_on_c, 0, 62, 46
1, 795881, Note_off_c, 0, 62, 57
1, 795974, Note_off_c, 0, 57, 56
1, 795984, Note_off_c, 0, 74, 51
1, 795994, Note_off_c, 0, 53, 31
1, 796027, Control_c, 0, 67, 121
1, 796042, Control_c, 0, 67, 97
1, 796057, Control_c, 0, 67, 74
1, 796072, Control_c, 0, 67, 57
1, 796087, Control_c, 0, 67, 37
1, 796102, Control_c, 0, 67, 0
1, 796146, Note_off_c, 0, 76, 31
1, 796410, Note_on_c, 0, 73, 82
1, 796501, Note_off_c, 0, 65, 61
1, 796513, Note_off_c, 0, 69, 60
1, 796612, Note_off_c, 0, 73, 52
1, 796682, Note_on_c, 0, 64, 73
1, 796695, Note_on_c, 0, 65, 70
1, 796838, Note_on_c, 0, 72, 81
1, 797059, Control_c, 0, 67, 38
1, 797074, Control_c, 0, 67, 48
1, 797088, Control_c, 0, 67, 64
1, 797103, Control_c, 0, 67, 79
1, 797118, Control_c, 0, 67, 91
1, 797133, Control_c, 0, 67, 99
1, 797148, Control_c, 0, 67, 112
1, 797163, Control_c, 0, 67, 125
1, 797177, Note_on_c, 0, 77, 86
1, 797178, Control_c, 0, 67, 127
1, 797222, Control_c, 0, 64, 107
1, 797237, Control_c, 0, 64, 86
1, 797252, Control_c, 0, 64, 67
1, 797267, Control_c, 0, 64, 51
1, 797281, Control_c, 0, 64, 0
1, 797370, Control_c, 0, 64, 41
1, 797385, Control_c, 0, 64, 59
1, 797399, Control_c, 0, 64, 68
1, 797414, Control_c, 0, 64, 73
1, 797429, Control_c, 0, 64, 76
1, 797444, Control_c, 0, 64, 80
1, 797459, Control_c, 0, 64, 90
1, 797481, Control_c, 0, 64, 106
1, 797496, Control_c, 0, 64, 127
1, 797574, Note_on_c, 0, 38, 63
1, 797906, Note_on_c, 0, 46, 70
1, 797909, Note_off_c, 0, 65, 37
1, 797927, Note_off_c, 0, 64, 60
1, 798127, Note_off_c, 0, 38, 27
1, 798173, Note_on_c, 0, 70, 75
1, 798198, Note_off_c, 0, 46, 60
1, 798199, Note_on_c, 0, 62, 34
1, 798200, Note_on_c, 0, 52, 57
1, 798283, Note_off_c, 0, 77, 40
1, 798329, Note_off_c, 0, 72, 60
1, 798407, Note_on_c, 0, 53, 67
1, 798451, Note_off_c, 0, 52, 58
1, 798624, Note_on_c, 0, 54, 76
1, 798650, Note_off_c, 0, 53, 59
1, 798730, Note_off_c, 0, 54, 63
1, 798796, Note_off_c, 0, 62, 41
1, 799050, Note_on_c, 0, 62, 64
1, 799200, Control_c, 0, 64, 99
1, 799215, Control_c, 0, 64, 82
1, 799230, Control_c, 0, 64, 67
1, 799245, Control_c, 0, 64, 55
1, 799259, Control_c, 0, 64, 48
1, 799274, Control_c, 0, 64, 47
1, 799289, Control_c, 0, 64, 47
1, 799305, Control_c, 0, 64, 50
1, 799320, Control_c, 0, 64, 56
1, 799335, Control_c, 0, 64, 63
1, 799349, Control_c, 0, 64, 69
1, 799364, Control_c, 0, 64, 78
1, 799379, Control_c, 0, 64, 85
1, 799394, Control_c, 0, 64, 91
1, 799409, Control_c, 0, 64, 96
1, 799423, Control_c, 0, 64, 105
1, 799438, Control_c, 0, 64, 127
1, 799508, Note_off_c, 0, 62, 60
1, 799789, Note_on_c, 0, 61, 56
1, 799789, Note_on_c, 0, 66, 65
1, 799950, Note_off_c, 0, 70, 49
1, 800013, Note_off_c, 0, 61, 37
1, 800040, Note_off_c, 0, 66, 33
1, 800257, Note_on_c, 0, 60, 45
1, 800260, Note_on_c, 0, 62, 44
1, 800449, Note_on_c, 0, 69, 53
1, 800738, Note_on_c, 0, 74, 69
1, 800743, Control_c, 0, 64, 118
1, 800758, Control_c, 0, 64, 111
1, 800773, Control_c, 0, 64, 105
1, 800788, Control_c, 0, 64, 99
1, 800803, Control_c, 0, 64, 92
1, 800818, Control_c, 0, 64, 84
1, 800832, Control_c, 0, 64, 75
1, 800847, Control_c, 0, 64, 66
1, 800862, Control_c, 0, 64, 59
1, 800877, Control_c, 0, 64, 52
1, 800892, Control_c, 0, 64, 49
1, 800907, Control_c, 0, 64, 48
1, 800922, Control_c, 0, 64, 50
1, 800937, Control_c, 0, 64, 52
1, 800952, Control_c, 0, 64, 54
1, 800967, Control_c, 0, 64, 55
1, 800981, Control_c, 0, 64, 56
1, 800996, Control_c, 0, 64, 59
1, 801011, Control_c, 0, 64, 62
1, 801026, Control_c, 0, 64, 65
1, 801041, Control_c, 0, 64, 66
1, 801055, Control_c, 0, 64, 68
1, 801070, Control_c, 0, 64, 71
1, 801082, Note_on_c, 0, 38, 37
1, 801085, Control_c, 0, 64, 76
1, 801100, Control_c, 0, 64, 82
1, 801115, Control_c, 0, 64, 86
1, 801129, Control_c, 0, 64, 89
1, 801144, Control_c, 0, 64, 91
1, 801159, Control_c, 0, 64, 94
1, 801173, Control_c, 0, 64, 100
1, 801188, Control_c, 0, 64, 110
1, 801203, Control_c, 0, 64, 127
1, 801386, Note_on_c, 0, 43, 43
1, 801421, Note_off_c, 0, 60, 57
1, 801424, Note_off_c, 0, 62, 52
1, 801470, Note_off_c, 0, 69, 52
1, 801742, Note_on_c, 0, 67, 46
1, 801748, Note_on_c, 0, 59, 42
1, 801767, Note_on_c, 0, 50, 41
1, 801789, Note_off_c, 0, 43, 59
1, 801821, Note_off_c, 0, 38, 41
1, 801830, Note_off_c, 0, 50, 56
1, 802079, Note_off_c, 0, 74, 33
1, 802083, Note_off_c, 0, 59, 36
1, 802204, Note_on_c, 0, 55, 45
1, 802209, Note_off_c, 0, 67, 62
1, 802319, Note_off_c, 0, 55, 37
1, 802682, Note_on_c, 0, 61, 77
1, 802871, Control_c, 0, 67, 121
1, 802885, Note_off_c, 0, 61, 61
1, 802975, Control_c, 0, 67, 125
1, 802990, Control_c, 0, 67, 127
1, 803167, Note_on_c, 0, 62, 75
1, 803193, Note_on_c, 0, 58, 60
1, 803205, Note_on_c, 0, 49, 43
1, 803212, Control_c, 0, 64, 103
1, 803216, Note_on_c, 0, 42, 46
1, 803226, Control_c, 0, 64, 80
1, 803241, Control_c, 0, 64, 63
1, 803256, Control_c, 0, 64, 40
1, 803271, Control_c, 0, 64, 0
1, 803331, Control_c, 0, 64, 31
1, 803346, Control_c, 0, 64, 51
1, 803361, Control_c, 0, 64, 66
1, 803376, Control_c, 0, 64, 79
1, 803391, Control_c, 0, 64, 90
1, 803405, Control_c, 0, 64, 95
1, 803420, Control_c, 0, 64, 101
1, 803435, Control_c, 0, 64, 116
1, 803450, Note_off_c, 0, 62, 62
1, 803450, Control_c, 0, 64, 127
1, 803584, Note_on_c, 0, 63, 83
1, 803620, Control_c, 0, 64, 88
1, 803635, Control_c, 0, 64, 67
1, 803649, Control_c, 0, 64, 48
1, 803664, Control_c, 0, 64, 34
1, 803679, Control_c, 0, 64, 33
1, 803694, Control_c, 0, 64, 40
1, 803709, Control_c, 0, 64, 56
1, 803724, Control_c, 0, 64, 69
1, 803739, Control_c, 0, 64, 80
1, 803754, Control_c, 0, 64, 89
1, 803769, Control_c, 0, 64, 93
1, 803781, Note_off_c, 0, 63, 59
1, 803783, Control_c, 0, 64, 101
1, 803798, Control_c, 0, 64, 114
1, 803813, Control_c, 0, 64, 127
1, 804058, Note_on_c, 0, 65, 69
1, 804064, Control_c, 0, 64, 91
1, 804079, Control_c, 0, 64, 72
1, 804095, Control_c, 0, 64, 52
1, 804110, Control_c, 0, 64, 0
1, 804184, Control_c, 0, 64, 30
1, 804198, Control_c, 0, 64, 52
1, 804213, Control_c, 0, 64, 67
1, 804236, Control_c, 0, 64, 77
1, 804251, Control_c, 0, 64, 85
1, 804266, Control_c, 0, 64, 92
1, 804276, Note_off_c, 0, 65, 62
1, 804280, Control_c, 0, 64, 100
1, 804295, Control_c, 0, 64, 127
1, 804302, Note_off_c, 0, 58, 60
1, 804309, Note_off_c, 0, 49, 60
1, 804392, Note_off_c, 0, 42, 58
1, 804660, Note_on_c, 0, 66, 62
1, 804671, Note_on_c, 0, 57, 45
1, 804687, Note_on_c, 0, 54, 47
1, 804739, Control_c, 0, 64, 113
1, 804754, Control_c, 0, 64, 97
1, 804769, Control_c, 0, 64, 86
1, 804784, Control_c, 0, 64, 76
1, 804798, Control_c, 0, 64, 66
1, 804813, Control_c, 0, 64, 59
1, 804828, Control_c, 0, 64, 54
1, 804843, Control_c, 0, 64, 51
1, 804858, Control_c, 0, 64, 48
1, 804872, Control_c, 0, 64, 44
1, 804888, Control_c, 0, 64, 39
1, 804903, Control_c, 0, 64, 35
1, 804918, Control_c, 0, 64, 33
1, 804933, Control_c, 0, 64, 32
1, 804970, Control_c, 0, 64, 30
1, 805089, Control_c, 0, 64, 35
1, 805103, Control_c, 0, 64, 41
1, 805118, Control_c, 0, 64, 45
1, 805133, Control_c, 0, 64, 45
1, 805148, Control_c, 0, 64, 46
1, 805163, Control_c, 0, 64, 50
1, 805172, Note_on_c, 0, 38, 40
1, 805177, Control_c, 0, 64, 56
1, 805192, Control_c, 0, 64, 61
1, 805207, Control_c, 0, 64, 63
1, 805221, Control_c, 0, 64, 64
1, 805266, Control_c, 0, 64, 64
1, 805281, Control_c, 0, 64, 65
1, 805295, Control_c, 0, 64, 66
1, 805354, Control_c, 0, 64, 66
1, 805369, Control_c, 0, 64, 67
1, 805384, Control_c, 0, 64, 68
1, 805444, Control_c, 0, 64, 68
1, 805459, Control_c, 0, 64, 69
1, 805489, Control_c, 0, 64, 69
1, 805518, Control_c, 0, 64, 70
1, 805533, Control_c, 0, 64, 71
1, 805547, Control_c, 0, 64, 72
1, 805562, Control_c, 0, 64, 73
1, 805577, Control_c, 0, 64, 73
1, 805588, Note_on_c, 0, 45, 36
1, 805592, Control_c, 0, 64, 75
1, 805607, Control_c, 0, 64, 76
1, 805621, Control_c, 0, 64, 78
1, 805636, Control_c, 0, 64, 81
1, 805651, Control_c, 0, 64, 84
1, 805666, Control_c, 0, 64, 88
1, 805681, Control_c, 0, 64, 91
1, 805697, Control_c, 0, 64, 94
1, 805718, Control_c, 0, 64, 99
1, 805733, Control_c, 0, 64, 107
1, 805748, Control_c, 0, 64, 119
1, 805763, Control_c, 0, 64, 127
1, 806003, Note_on_c, 0, 50, 35
1, 806644, Note_on_c, 0, 62, 37
1, 806736, Note_off_c, 0, 38, 37
1, 806768, Note_off_c, 0, 66, 38
1, 806771, Note_off_c, 0, 50, 41
1, 806848, Note_off_c, 0, 45, 37
1, 806875, Note_off_c, 0, 54, 36
1, 806977, Note_off_c, 0, 57, 38
1, 807086, Note_off_c, 0, 62, 39
1, 807468, Control_c, 0, 64, 119
1, 807483, Control_c, 0, 64, 112
1, 807497, Control_c, 0, 64, 109
1, 807512, Control_c, 0, 64, 106
1, 807527, Control_c, 0, 64, 104
1, 807542, Control_c, 0, 64, 102
1, 807557, Control_c, 0, 64, 97
1, 807571, Control_c, 0, 64, 94
1, 807586, Control_c, 0, 64, 90
1, 807601, Control_c, 0, 64, 88
1, 807615, Control_c, 0, 64, 86
1, 807630, Control_c, 0, 64, 85
1, 807645, Control_c, 0, 64, 82
1, 807660, Control_c, 0, 64, 80
1, 807675, Control_c, 0, 64, 78
1, 807689, Control_c, 0, 64, 76
1, 807704, Control_c, 0, 64, 75
1, 807719, Control_c, 0, 64, 74
1, 807733, Control_c, 0, 64, 72
1, 807748, Control_c, 0, 64, 70
1, 807763, Control_c, 0, 64, 69
1, 807778, Control_c, 0, 64, 67
1, 807793, Control_c, 0, 64, 66
1, 807808, Control_c, 0, 64, 65
1, 807823, Control_c, 0, 64, 64
1, 807838, Control_c, 0, 64, 62
1, 807852, Control_c, 0, 64, 61
1, 807867, Control_c, 0, 64, 60
1, 807882, Control_c, 0, 64, 57
1, 807897, Control_c, 0, 64, 54
1, 807912, Control_c, 0, 64, 48
1, 807927, Control_c, 0, 64, 42
1, 807941, Control_c, 0, 64, 38
1, 807956, Control_c, 0, 64, 35
1, 807978, Control_c, 0, 64, 32
1, 807993, Control_c, 0, 64, 30
1, 808098, Control_c, 0, 64, 34
1, 808113, Control_c, 0, 64, 39
1, 808127, Control_c, 0, 64, 45
1, 808142, Control_c, 0, 64, 48
1, 808157, Control_c, 0, 64, 50
1, 808171, Control_c, 0, 64, 52
1, 808186, Control_c, 0, 64, 55
1, 808201, Control_c, 0, 64, 59
1, 808216, Control_c, 0, 64, 62
1, 808231, Control_c, 0, 64, 64
1, 808246, Control_c, 0, 64, 65
1, 808261, Control_c, 0, 64, 66
1, 808276, Control_c, 0, 64, 67
1, 808291, Control_c, 0, 64, 69
1, 808306, Control_c, 0, 64, 72
1, 808320, Control_c, 0, 64, 74
1, 808335, Control_c, 0, 64, 74
1, 808350, Control_c, 0, 64, 75
1, 808364, Control_c, 0, 64, 75
1, 808379, Control_c, 0, 64, 77
1, 808394, Control_c, 0, 64, 79
1, 808409, Control_c, 0, 64, 81
1, 808424, Control_c, 0, 64, 83
1, 808438, Control_c, 0, 64, 84
1, 808453, Control_c, 0, 64, 86
1, 808460, Note_on_c, 0, 65, 68
1, 808468, Control_c, 0, 64, 89
1, 808472, Note_on_c, 0, 57, 55
1, 808483, Control_c, 0, 64, 96
1, 808498, Control_c, 0, 64, 106
1, 808509, Note_on_c, 0, 41, 36
1, 808509, Note_on_c, 0, 48, 44
1, 808512, Control_c, 0, 64, 127
1, 808908, Note_off_c, 0, 65, 59
1, 809068, Control_c, 0, 67, 125
1, 809098, Control_c, 0, 67, 121
1, 809113, Control_c, 0, 67, 116
1, 809128, Control_c, 0, 67, 114
1, 809142, Control_c, 0, 67, 111
1, 809157, Control_c, 0, 67, 106
1, 809172, Control_c, 0, 67, 102
1, 809186, Control_c, 0, 67, 99
1, 809201, Control_c, 0, 67, 97
1, 809216, Control_c, 0, 67, 95
1, 809231, Control_c, 0, 67, 94
1, 809246, Control_c, 0, 67, 91
1, 809260, Control_c, 0, 67, 88
1, 809275, Control_c, 0, 67, 87
1, 809290, Control_c, 0, 67, 86
1, 809305, Control_c, 0, 67, 85
1, 809319, Control_c, 0, 67, 84
1, 809334, Control_c, 0, 67, 83
1, 809360, Note_on_c, 0, 65, 75
1, 809364, Control_c, 0, 67, 82
1, 809379, Control_c, 0, 67, 80
1, 809394, Control_c, 0, 67, 67
1, 809409, Control_c, 0, 67, 52
1, 809423, Control_c, 0, 67, 40
1, 809438, Control_c, 0, 67, 0
1, 809641, Note_off_c, 0, 57, 64
1, 810067, Note_on_c, 0, 56, 74
1, 810114, Control_c, 0, 64, 93
1, 810129, Control_c, 0, 64, 75
1, 810143, Control_c, 0, 64, 61
1, 810158, Control_c, 0, 64, 47
1, 810173, Control_c, 0, 64, 39
1, 810188, Control_c, 0, 64, 38
1, 810225, Control_c, 0, 64, 43
1, 810240, Control_c, 0, 64, 55
1, 810255, Control_c, 0, 64, 65
1, 810270, Control_c, 0, 64, 75
1, 810285, Control_c, 0, 64, 82
1, 810287, Note_off_c, 0, 48, 57
1, 810299, Control_c, 0, 64, 87
1, 810314, Control_c, 0, 64, 96
1, 810329, Control_c, 0, 64, 127
1, 810370, Note_off_c, 0, 41, 49
1, 810470, Note_off_c, 0, 56, 55
1, 810578, Note_on_c, 0, 67, 81
1, 810618, Note_off_c, 0, 65, 60
1, 810789, Control_c, 0, 67, 52
1, 810804, Control_c, 0, 67, 71
1, 810818, Control_c, 0, 67, 74
1, 810833, Control_c, 0, 67, 77
1, 810848, Control_c, 0, 67, 87
1, 810863, Control_c, 0, 67, 112
1, 810878, Control_c, 0, 67, 127
1, 811109, Note_on_c, 0, 64, 78
1, 811131, Note_on_c, 0, 60, 53
1, 811146, Note_on_c, 0, 36, 51
1, 811179, Note_off_c, 0, 67, 53
1, 811196, Control_c, 0, 64, 108
1, 811201, Poly_aftertouch_c, 0, 55, 127
1, 811211, Control_c, 0, 64, 98
1, 811226, Control_c, 0, 64, 90
1, 811240, Control_c, 0, 64, 82
1, 811255, Control_c, 0, 64, 75
1, 811270, Control_c, 0, 64, 67
1, 811286, Control_c, 0, 64, 59
1, 811301, Control_c, 0, 64, 51
1, 811316, Control_c, 0, 64, 46
1, 811330, Control_c, 0, 64, 39
1, 811345, Control_c, 0, 64, 29
1, 811360, Control_c, 0, 64, 0
1, 811478, Control_c, 0, 64, 35
1, 811487, Note_on_c, 0, 43, 37
1, 811493, Control_c, 0, 64, 47
1, 811508, Control_c, 0, 64, 55
1, 811523, Control_c, 0, 64, 60
1, 811537, Control_c, 0, 64, 64
1, 811552, Control_c, 0, 64, 66
1, 811567, Control_c, 0, 64, 68
1, 811582, Control_c, 0, 64, 70
1, 811596, Control_c, 0, 64, 73
1, 811611, Control_c, 0, 64, 77
1, 811626, Control_c, 0, 64, 80
1, 811641, Control_c, 0, 64, 84
1, 811656, Control_c, 0, 64, 87
1, 811671, Control_c, 0, 64, 90
1, 811686, Control_c, 0, 64, 93
1, 811701, Control_c, 0, 64, 97
1, 811712, Note_off_c, 0, 60, 38
1, 811722, Control_c, 0, 64, 102
1, 811737, Control_c, 0, 64, 112
1, 811752, Control_c, 0, 64, 127
1, 811817, Note_on_c, 0, 52, 44
1, 811954, Note_off_c, 0, 43, 54
1, 811975, Note_off_c, 0, 36, 37
1, 812095, Note_off_c, 0, 52, 27
1, 812148, Note_on_c, 0, 59, 52
1, 812210, Note_off_c, 0, 64, 57
1, 812245, Note_off_c, 0, 59, 62
1, 812252, Poly_aftertouch_c, 0, 55, 0
1, 812666, Note_on_c, 0, 64, 47
1, 812684, Note_on_c, 0, 54, 36
1, 812690, Note_on_c, 0, 58, 41
1, 812708, Note_on_c, 0, 37, 38
1, 812723, Note_on_c, 0, 52, 31
1, 812753, Control_c, 0, 64, 107
1, 812768, Control_c, 0, 64, 93
1, 812783, Control_c, 0, 64, 84
1, 812798, Control_c, 0, 64, 75
1, 812812, Control_c, 0, 64, 66
1, 812827, Control_c, 0, 64, 57
1, 812842, Control_c, 0, 64, 46
1, 812856, Control_c, 0, 64, 33
1, 812871, Control_c, 0, 64, 0
1, 812961, Control_c, 0, 64, 46
1, 812976, Control_c, 0, 64, 62
1, 812991, Control_c, 0, 64, 68
1, 813006, Control_c, 0, 64, 73
1, 813021, Control_c, 0, 64, 77
1, 813035, Control_c, 0, 64, 81
1, 813050, Control_c, 0, 64, 86
1, 813065, Control_c, 0, 64, 95
1, 813080, Control_c, 0, 64, 102
1, 813095, Control_c, 0, 64, 108
1, 813109, Control_c, 0, 64, 116
1, 813124, Control_c, 0, 64, 127
1, 813195, Note_off_c, 0, 54, 36
1, 813230, Note_off_c, 0, 64, 37
1, 813288, Note_off_c, 0, 58, 35
1, 813294, Note_off_c, 0, 52, 32
1, 813322, Note_off_c, 0, 37, 37
1, 813929, Note_on_c, 0, 62, 48
1, 813941, Note_on_c, 0, 53, 38
1, 813948, Note_on_c, 0, 57, 40
1, 813960, Note_on_c, 0, 38, 37
1, 813984, Control_c, 0, 64, 101
1, 813999, Control_c, 0, 64, 81
1, 814014, Control_c, 0, 64, 66
1, 814029, Control_c, 0, 64, 49
1, 814044, Control_c, 0, 64, 0
1, 814117, Control_c, 0, 64, 30
1, 814132, Control_c, 0, 64, 46
1, 814147, Control_c, 0, 64, 61
1, 814162, Control_c, 0, 64, 69
1, 814176, Control_c, 0, 64, 74
1, 814191, Control_c, 0, 64, 76
1, 814206, Control_c, 0, 64, 79
1, 814221, Control_c, 0, 64, 84
1, 814236, Control_c, 0, 64, 91
1, 814243, Note_off_c, 0, 53, 59
1, 814250, Control_c, 0, 64, 98
1, 814254, Note_on_c, 0, 45, 26
1, 814265, Control_c, 0, 64, 104
1, 814280, Control_c, 0, 64, 109
1, 814285, Note_off_c, 0, 62, 60
1, 814286, Note_off_c, 0, 57, 62
1, 814295, Control_c, 0, 64, 117
1, 814309, Control_c, 0, 64, 127
1, 814422, Note_off_c, 0, 45, 29
1, 814470, Note_on_c, 0, 51, 41
1, 814514, Note_off_c, 0, 51, 53
1, 814515, Note_off_c, 0, 38, 22
1, 814792, Note_on_c, 0, 62, 43
1, 814808, Note_on_c, 0, 58, 39
1, 814822, Note_on_c, 0, 52, 37
1, 814822, Control_c, 0, 64, 111
1, 814837, Control_c, 0, 64, 101
1, 814849, Note_on_c, 0, 43, 27
1, 814852, Control_c, 0, 64, 92
1, 814867, Control_c, 0, 64, 82
1, 814881, Control_c, 0, 64, 71
1, 814896, Control_c, 0, 64, 60
1, 814911, Control_c, 0, 64, 45
1, 814926, Control_c, 0, 64, 31
1, 814940, Control_c, 0, 64, 0
1, 815029, Control_c, 0, 64, 40
1, 815044, Control_c, 0, 64, 53
1, 815058, Control_c, 0, 64, 60
1, 815073, Control_c, 0, 64, 64
1, 815088, Control_c, 0, 64, 68
1, 815103, Control_c, 0, 64, 73
1, 815118, Control_c, 0, 64, 78
1, 815132, Control_c, 0, 64, 83
1, 815142, Note_off_c, 0, 52, 35
1, 815147, Control_c, 0, 64, 88
1, 815162, Control_c, 0, 64, 92
1, 815177, Control_c, 0, 64, 95
1, 815178, Note_off_c, 0, 43, 41
1, 815192, Control_c, 0, 64, 98
1, 815206, Control_c, 0, 64, 101
1, 815221, Control_c, 0, 64, 104
1, 815222, Note_off_c, 0, 62, 60
1, 815236, Note_off_c, 0, 58, 54
1, 815236, Control_c, 0, 64, 107
1, 815251, Control_c, 0, 64, 109
1, 815282, Control_c, 0, 64, 111
1, 815311, Control_c, 0, 64, 113
1, 815355, Control_c, 0, 64, 115
1, 815896, Control_c, 0, 64, 113
1, 815996, Note_on_c, 0, 64, 44
1, 816015, Control_c, 0, 64, 111
1, 816059, Control_c, 0, 64, 109
1, 816104, Control_c, 0, 64, 107
1, 816149, Control_c, 0, 64, 105
1, 816216, Control_c, 0, 64, 103
1, 816290, Control_c, 0, 64, 101
1, 816349, Control_c, 0, 64, 99
1, 816393, Control_c, 0, 64, 97
1, 816423, Control_c, 0, 64, 95
1, 816438, Note_on_c, 0, 61, 34
1, 816438, Control_c, 0, 64, 93
1, 816452, Control_c, 0, 64, 91
1, 816461, Note_off_c, 0, 64, 31
1, 816467, Control_c, 0, 64, 88
1, 816468, Note_on_c, 0, 45, 27
1, 816479, Note_on_c, 0, 55, 18
1, 816482, Control_c, 0, 64, 85
1, 816483, Note_on_c, 0, 57, 24
1, 816497, Control_c, 0, 64, 80
1, 816512, Control_c, 0, 64, 75
1, 816527, Control_c, 0, 64, 70
1, 816542, Control_c, 0, 64, 64
1, 816557, Control_c, 0, 64, 60
1, 816572, Control_c, 0, 64, 57
1, 816587, Control_c, 0, 64, 54
1, 816601, Control_c, 0, 64, 52
1, 816616, Control_c, 0, 64, 48
1, 816631, Control_c, 0, 64, 43
1, 816646, Control_c, 0, 64, 39
1, 816661, Control_c, 0, 64, 38
1, 816750, Control_c, 0, 64, 39
1, 816765, Control_c, 0, 64, 41
1, 816779, Control_c, 0, 64, 42
1, 816794, Control_c, 0, 64, 44
1, 816809, Control_c, 0, 64, 45
1, 816824, Control_c, 0, 64, 48
1, 816839, Control_c, 0, 64, 51
1, 816853, Control_c, 0, 64, 55
1, 816869, Control_c, 0, 64, 57
1, 816884, Control_c, 0, 64, 58
1, 816899, Control_c, 0, 64, 59
1, 816914, Control_c, 0, 64, 61
1, 816928, Control_c, 0, 64, 64
1, 816950, Control_c, 0, 64, 67
1, 816965, Control_c, 0, 64, 68
1, 816980, Control_c, 0, 64, 69
1, 816995, Control_c, 0, 64, 70
1, 817010, Control_c, 0, 64, 72
1, 817025, Control_c, 0, 64, 74
1, 817040, Control_c, 0, 64, 77
1, 817055, Control_c, 0, 64, 79
1, 817069, Control_c, 0, 64, 81
1, 817084, Control_c, 0, 64, 82
1, 817099, Control_c, 0, 64, 83
1, 817114, Control_c, 0, 64, 86
1, 817128, Control_c, 0, 64, 89
1, 817143, Control_c, 0, 64, 94
1, 817158, Control_c, 0, 64, 99
1, 817173, Control_c, 0, 64, 103
1, 817188, Control_c, 0, 64, 106
1, 817202, Control_c, 0, 64, 110
1, 817217, Control_c, 0, 64, 114
1, 817232, Control_c, 0, 64, 120
1, 817247, Control_c, 0, 64, 127
1, 817278, Note_off_c, 0, 45, 32
1, 817314, Note_off_c, 0, 57, 22
1, 817381, Note_off_c, 0, 61, 34
1, 817511, Note_off_c, 0, 55, 36
1, 817645, Control_c, 0, 64, 121
1, 817660, Control_c, 0, 64, 118
1, 817677, Control_c, 0, 64, 116
1, 817692, Control_c, 0, 64, 114
1, 817728, Control_c, 0, 64, 112
1, 817758, Control_c, 0, 64, 110
1, 817788, Control_c, 0, 64, 108
1, 817818, Control_c, 0, 64, 106
1, 817847, Control_c, 0, 64, 104
1, 817877, Control_c, 0, 64, 101
1, 817906, Control_c, 0, 64, 99
1, 817936, Control_c, 0, 64, 95
1, 817950, Control_c, 0, 64, 93
1, 817965, Control_c, 0, 64, 91
1, 817980, Control_c, 0, 64, 90
1, 817995, Control_c, 0, 64, 88
1, 818010, Control_c, 0, 64, 87
1, 818024, Control_c, 0, 64, 85
1, 818039, Control_c, 0, 64, 84
1, 818054, Control_c, 0, 64, 82
1, 818068, Control_c, 0, 64, 80
1, 818083, Control_c, 0, 64, 79
1, 818098, Control_c, 0, 64, 78
1, 818113, Control_c, 0, 64, 76
1, 818128, Control_c, 0, 64, 75
1, 818143, Control_c, 0, 64, 74
1, 818157, Control_c, 0, 64, 73
1, 818172, Control_c, 0, 64, 71
1, 818187, Control_c, 0, 64, 69
1, 818202, Control_c, 0, 64, 68
1, 818217, Control_c, 0, 64, 68
1, 818232, Control_c, 0, 64, 67
1, 818247, Control_c, 0, 64, 65
1, 818262, Control_c, 0, 64, 64
1, 818276, Control_c, 0, 64, 63
1, 818291, Control_c, 0, 64, 63
1, 818306, Control_c, 0, 64, 62
1, 818321, Control_c, 0, 64, 61
1, 818336, Control_c, 0, 64, 59
1, 818350, Control_c, 0, 64, 58
1, 818462, Control_c, 0, 64, 59
1, 818477, Control_c, 0, 64, 60
1, 818492, Control_c, 0, 64, 61
1, 818506, Control_c, 0, 64, 62
1, 818521, Control_c, 0, 64, 63
1, 818536, Control_c, 0, 64, 64
1, 818551, Control_c, 0, 64, 66
1, 818566, Control_c, 0, 64, 69
1, 818581, Control_c, 0, 64, 71
1, 818596, Control_c, 0, 64, 73
1, 818611, Control_c, 0, 64, 74
1, 818625, Control_c, 0, 64, 76
1, 818640, Control_c, 0, 64, 78
1, 818655, Control_c, 0, 64, 81
1, 818670, Control_c, 0, 64, 82
1, 818685, Control_c, 0, 64, 83
1, 818699, Control_c, 0, 64, 84
1, 818714, Control_c, 0, 64, 85
1, 818729, Control_c, 0, 64, 86
1, 818744, Control_c, 0, 64, 87
1, 818759, Control_c, 0, 64, 88
1, 818773, Control_c, 0, 64, 89
1, 818788, Control_c, 0, 64, 91
1, 818803, Control_c, 0, 64, 93
1, 818818, Control_c, 0, 64, 94
1, 818833, Control_c, 0, 64, 96
1, 818862, Control_c, 0, 64, 99
1, 818877, Control_c, 0, 64, 101
1, 818891, Control_c, 0, 64, 104
1, 818906, Control_c, 0, 64, 107
1, 818936, Control_c, 0, 64, 109
1, 818965, Control_c, 0, 64, 112
1, 818980, Control_c, 0, 64, 115
1, 818995, Control_c, 0, 64, 120
1, 819010, Control_c, 0, 64, 127
1, 819537, Note_on_c, 0, 62, 27
1, 819556, Note_on_c, 0, 57, 19
1, 819560, Note_on_c, 0, 53, 31
1, 819582, Note_on_c, 0, 26, 17
1, 819591, Note_on_c, 0, 38, 11
1, 819749, Note_off_c, 0, 26, 42
1, 819755, Note_off_c, 0, 38, 33
1, 819836, Note_off_c, 0, 53, 40
1, 819848, Note_off_c, 0, 62, 39
1, 819848, Note_off_c, 0, 57, 40
1, 820669, Note_on_c, 0, 62, 24
1, 820697, Note_on_c, 0, 57, 21
1, 820701, Note_on_c, 0, 53, 21
1, 820703, Note_on_c, 0, 26, 24
1, 820721, Note_on_c, 0, 38, 5
1, 825352, Note_off_c, 0, 38, 1
1, 826099, Note_off_c, 0, 53, 39
1, 826123, Note_off_c, 0, 26, 29
1, 826587, Note_off_c, 0, 62, 34
1, 826699, Control_c, 0, 64, 121
1, 826713, Control_c, 0, 64, 118
1, 826728, Control_c, 0, 64, 116
1, 826743, Control_c, 0, 64, 114
1, 826758, Control_c, 0, 64, 112
1, 826763, Note_off_c, 0, 57, 14
1, 826773, Control_c, 0, 64, 110
1, 826802, Control_c, 0, 64, 108
1, 826847, Control_c, 0, 64, 106
1, 826877, Control_c, 0, 64, 104
1, 826921, Control_c, 0, 64, 102
1, 826966, Control_c, 0, 64, 99
1, 827010, Control_c, 0, 64, 97
1, 827039, Control_c, 0, 64, 95
1, 827054, Control_c, 0, 64, 95
1, 827069, Control_c, 0, 64, 94
1, 827084, Control_c, 0, 64, 93
1, 827099, Control_c, 0, 64, 93
1, 827113, Control_c, 0, 64, 92
1, 827128, Control_c, 0, 64, 92
1, 827143, Control_c, 0, 64, 91
1, 827158, Control_c, 0, 64, 90
1, 827173, Control_c, 0, 64, 89
1, 827187, Control_c, 0, 64, 89
1, 827202, Control_c, 0, 64, 88
1, 827217, Control_c, 0, 64, 88
1, 827231, Control_c, 0, 64, 87
1, 827246, Control_c, 0, 64, 87
1, 827262, Control_c, 0, 64, 86
1, 827277, Control_c, 0, 64, 86
1, 827307, Control_c, 0, 64, 85
1, 827336, Control_c, 0, 64, 85
1, 827366, Control_c, 0, 64, 84
1, 827410, Control_c, 0, 64, 84
1, 827462, Control_c, 0, 64, 83
1, 827522, Control_c, 0, 64, 83
1, 827566, Control_c, 0, 64, 82
1, 827610, Control_c, 0, 64, 82
1, 827655, Control_c, 0, 64, 81
1, 827684, Control_c, 0, 64, 81
1, 827699, Control_c, 0, 64, 80
1, 827729, Control_c, 0, 64, 80
1, 827758, Control_c, 0, 64, 79
1, 827773, Control_c, 0, 64, 79
1, 827802, Control_c, 0, 64, 78
1, 827817, Control_c, 0, 64, 78
1, 827847, Control_c, 0, 64, 77
1, 827876, Control_c, 0, 64, 77
1, 827906, Control_c, 0, 64, 76
1, 827935, Control_c, 0, 64, 76
1, 827994, Control_c, 0, 64, 75
1, 828039, Control_c, 0, 64, 75
1, 828084, Control_c, 0, 64, 74
1, 828099, Control_c, 0, 64, 74
1, 828129, Control_c, 0, 64, 73
1, 828144, Control_c, 0, 64, 73
1, 828181, Control_c, 0, 64, 72
1, 828211, Control_c, 0, 64, 72
1, 828226, Control_c, 0, 64, 71
1, 828240, Control_c, 0, 64, 71
1, 828270, Control_c, 0, 64, 70
1, 828299, Control_c, 0, 64, 70
1, 828314, Control_c, 0, 64, 69
1, 828329, Control_c, 0, 64, 69
1, 828373, Control_c, 0, 64, 68
1, 828403, Control_c, 0, 64, 68
1, 828448, Control_c, 0, 64, 67
1, 828492, Control_c, 0, 64, 67
1, 828522, Control_c, 0, 64, 66
1, 828596, Control_c, 0, 64, 66
1, 828625, Control_c, 0, 64, 65
1, 828655, Control_c, 0, 64, 65
1, 828670, Control_c, 0, 64, 64
1, 828684, Control_c, 0, 64, 64
1, 828714, Control_c, 0, 64, 63
1, 828773, Control_c, 0, 64, 63
1, 828847, Control_c, 0, 64, 62
1, 829004, Control_c, 0, 64, 62
1, 831235, Control_c, 0, 64, 62
1, 831518, Control_c, 0, 67, 115
1, 831533, Control_c, 0, 67, 91
1, 831548, Control_c, 0, 67, 66
1, 831563, Control_c, 0, 67, 40
1, 831577, Control_c, 0, 67, 0
1, 831873, Control_c, 0, 64, 62
1, 831984, Control_c, 0, 64, 61
1, 832028, Control_c, 0, 64, 61
1, 832059, Control_c, 0, 64, 60
1, 832074, Control_c, 0, 64, 59
1, 832089, Control_c, 0, 64, 59
1, 832104, Control_c, 0, 64, 58
1, 832119, Control_c, 0, 64, 58
1, 832133, Control_c, 0, 64, 57
1, 832148, Control_c, 0, 64, 56
1, 832163, Control_c, 0, 64, 51
1, 832178, Control_c, 0, 64, 42
1, 832193, Control_c, 0, 64, 0
1, 832193, End_track
0, 0, End_of_file
