0, 0, Header, 0, 1, 384
1, 0, Start_track
1, 0, Title_t, "Son. in Bb D. 960--K. Krasnitsky"
1, 0, Text_t, "2006 International Piano-e-Competition Schubert Sonata Round"
1, 0, Text_t, "St. Paul, Minnesota, July 8, 2006"
1, 0, Text_t, "http://www.piano-e-competition.com/"
1, 0, Instrument_name_t, "Yamaha Disklavier Pro Mark IV concert grand piano"
1, 0, Sequencer_specific, 39, 67, 113, 0, 1, 0, 1, 0, 83, 111, 110, 46, 32, 105, 110, 32, 66, 98, 32, 68, 46, 57, 54, 48, 75, 46, 32, 75, 114, 97, 115, 110, 105, 116, 115, 107, 121, 32, 32, 32
1, 0, Sequencer_specific, 6, 67, 113, 0, 0, 0, 69
1, 0, System_exclusive, 21, 67, 113, 126, 21, 0, 2, 2, 0, 14, 5, 1, 4, 4, 11, 0, 0, 15, 4, 1, 0, 247
1, 0, Sequencer_specific, 5, 67, 123, 12, 2, 1
1, 0, Tempo, 512820
1, 0, Time_signature, 4, 2, 24, 8
1, 0, System_exclusive, 5, 126, 127, 9, 1, 247
1, 1, System_exclusive, 8, 67, 16, 76, 0, 0, 126, 0, 247
1, 2, System_exclusive, 8, 67, 16, 76, 8, 9, 7, 1, 247
1, 3, Control_c, 0, 0, 0
1, 4, Control_c, 0, 32, 0
1, 5, Program_c, 0, 0
1, 6, Control_c, 0, 7, 100
1, 95, Control_c, 0, 64, 15
1, 95, Control_c, 0, 67, 15
1, 184, Control_c, 0, 64, 31
1, 184, Control_c, 0, 67, 31
1, 273, Control_c, 0, 64, 46
1, 273, Control_c, 0, 67, 46
1, 362, Control_c, 0, 64, 63
1, 362, Control_c, 0, 67, 63
1, 452, Control_c, 0, 64, 77
1, 452, Control_c, 0, 67, 77
1, 541, Control_c, 0, 64, 94
1, 541, Control_c, 0, 67, 94
1, 630, Control_c, 0, 64, 108
1, 630, Control_c, 0, 67, 108
1, 719, Control_c, 0, 64, 127
1, 719, Control_c, 0, 67, 127
1, 910, Note_on_c, 0, 70, 45
1, 939, Note_on_c, 0, 46, 23
1, 943, Note_on_c, 0, 65, 34
1, 946, Note_on_c, 0, 50, 32
1, 1000, Poly_aftertouch_c, 0, 58, 127
1, 1073, Poly_aftertouch_c, 0, 58, 0
1, 1238, Note_off_c, 0, 65, 42
1, 1244, Note_off_c, 0, 70, 57
1, 1452, Note_on_c, 0, 53, 15
1, 1508, Note_off_c, 0, 50, 41
1, 1515, Note_off_c, 0, 46, 39
1, 1647, Note_off_c, 0, 53, 40
1, 1812, Note_on_c, 0, 70, 48
1, 1841, Note_on_c, 0, 46, 10
1, 1845, Note_on_c, 0, 50, 31
1, 1879, Note_on_c, 0, 65, 15
1, 1933, Poly_aftertouch_c, 0, 58, 127
1, 2010, Poly_aftertouch_c, 0, 58, 0
1, 2089, Note_on_c, 0, 53, 32
1, 2153, Note_off_c, 0, 46, 39
1, 2173, Note_off_c, 0, 50, 45
1, 2318, Note_on_c, 0, 69, 64
1, 2332, Note_off_c, 0, 53, 28
1, 2349, Note_on_c, 0, 46, 26
1, 2350, Note_on_c, 0, 48, 43
1, 2408, Note_off_c, 0, 70, 53
1, 2435, Poly_aftertouch_c, 0, 57, 0
1, 2446, Note_off_c, 0, 65, 41
1, 2568, Note_on_c, 0, 53, 36
1, 2632, Note_off_c, 0, 46, 40
1, 2634, Note_off_c, 0, 48, 41
1, 2783, Note_on_c, 0, 70, 72
1, 2797, Note_on_c, 0, 46, 31
1, 2809, Note_on_c, 0, 50, 47
1, 2811, Note_on_c, 0, 65, 44
1, 2817, Note_off_c, 0, 69, 62
1, 2827, Note_on_c, 0, 58, 38
1, 2863, Note_off_c, 0, 53, 23
1, 2911, Control_c, 0, 64, 94
1, 2926, Control_c, 0, 64, 89
1, 2940, Control_c, 0, 64, 90
1, 2955, Control_c, 0, 64, 98
1, 2970, Control_c, 0, 64, 127
1, 2978, Note_off_c, 0, 58, 49
1, 3018, Note_on_c, 0, 53, 43
1, 3069, Note_off_c, 0, 50, 62
1, 3082, Note_off_c, 0, 46, 56
1, 3099, Note_off_c, 0, 65, 33
1, 3251, Note_on_c, 0, 72, 75
1, 3276, Note_on_c, 0, 46, 38
1, 3276, Note_on_c, 0, 65, 45
1, 3286, Note_on_c, 0, 60, 34
1, 3293, Note_on_c, 0, 51, 49
1, 3326, Note_off_c, 0, 70, 61
1, 3334, Control_c, 0, 64, 87
1, 3349, Control_c, 0, 64, 70
1, 3361, Note_off_c, 0, 53, 36
1, 3363, Control_c, 0, 64, 58
1, 3378, Control_c, 0, 64, 50
1, 3393, Control_c, 0, 64, 48
1, 3421, Control_c, 0, 64, 50
1, 3436, Control_c, 0, 64, 56
1, 3451, Control_c, 0, 64, 62
1, 3466, Control_c, 0, 64, 70
1, 3472, Note_off_c, 0, 60, 20
1, 3481, Control_c, 0, 64, 83
1, 3495, Control_c, 0, 64, 110
1, 3510, Control_c, 0, 64, 127
1, 3558, Note_on_c, 0, 53, 32
1, 3567, Note_off_c, 0, 65, 42
1, 3591, Note_off_c, 0, 46, 55
1, 3603, Note_off_c, 0, 51, 56
1, 3688, Note_off_c, 0, 53, 36
1, 3859, Note_on_c, 0, 74, 59
1, 3900, Note_on_c, 0, 65, 25
1, 3900, Note_on_c, 0, 46, 34
1, 3915, Note_on_c, 0, 52, 37
1, 3948, Poly_aftertouch_c, 0, 62, 127
1, 3977, Control_c, 0, 64, 121
1, 3992, Control_c, 0, 64, 92
1, 4004, Note_off_c, 0, 72, 59
1, 4007, Control_c, 0, 64, 76
1, 4021, Control_c, 0, 64, 64
1, 4037, Control_c, 0, 64, 54
1, 4052, Control_c, 0, 64, 50
1, 4067, Control_c, 0, 64, 49
1, 4082, Control_c, 0, 64, 47
1, 4097, Control_c, 0, 64, 43
1, 4111, Control_c, 0, 64, 38
1, 4126, Control_c, 0, 64, 33
1, 4141, Control_c, 0, 64, 31
1, 4166, Note_on_c, 0, 53, 46
1, 4172, Note_off_c, 0, 52, 52
1, 4207, Note_off_c, 0, 53, 61
1, 4318, Control_c, 0, 64, 32
1, 4362, Control_c, 0, 64, 33
1, 4377, Control_c, 0, 64, 34
1, 4392, Control_c, 0, 64, 37
1, 4396, Note_on_c, 0, 53, 56
1, 4407, Control_c, 0, 64, 38
1, 4422, Control_c, 0, 64, 39
1, 4437, Control_c, 0, 64, 40
1, 4437, Note_off_c, 0, 53, 60
1, 4452, Control_c, 0, 64, 44
1, 4467, Control_c, 0, 64, 49
1, 4482, Control_c, 0, 64, 54
1, 4497, Control_c, 0, 64, 57
1, 4511, Control_c, 0, 64, 57
1, 4526, Control_c, 0, 64, 58
1, 4541, Control_c, 0, 64, 61
1, 4562, Control_c, 0, 64, 63
1, 4577, Control_c, 0, 64, 65
1, 4592, Control_c, 0, 64, 67
1, 4607, Control_c, 0, 64, 69
1, 4622, Control_c, 0, 64, 73
1, 4637, Control_c, 0, 64, 77
1, 4642, Note_on_c, 0, 53, 44
1, 4652, Control_c, 0, 64, 82
1, 4666, Control_c, 0, 64, 88
1, 4681, Control_c, 0, 64, 93
1, 4685, Note_off_c, 0, 53, 48
1, 4696, Control_c, 0, 64, 101
1, 4711, Control_c, 0, 64, 123
1, 4726, Control_c, 0, 64, 127
1, 4868, Note_on_c, 0, 53, 44
1, 4933, Note_off_c, 0, 74, 64
1, 4941, Note_off_c, 0, 53, 60
1, 4981, Note_off_c, 0, 65, 39
1, 5005, Poly_aftertouch_c, 0, 62, 0
1, 5101, Note_on_c, 0, 53, 41
1, 5180, Note_off_c, 0, 46, 37
1, 5369, Note_on_c, 0, 72, 63
1, 5372, Note_on_c, 0, 46, 35
1, 5385, Note_on_c, 0, 51, 45
1, 5406, Note_on_c, 0, 65, 20
1, 5419, Note_off_c, 0, 53, 28
1, 5443, Poly_aftertouch_c, 0, 60, 127
1, 5485, Poly_aftertouch_c, 0, 60, 0
1, 5631, Note_on_c, 0, 70, 73
1, 5635, Note_on_c, 0, 50, 51
1, 5658, Note_off_c, 0, 46, 60
1, 5659, Note_on_c, 0, 58, 32
1, 5676, Note_off_c, 0, 72, 60
1, 5689, Note_off_c, 0, 51, 59
1, 5691, Note_off_c, 0, 65, 40
1, 5695, Note_off_c, 0, 58, 46
1, 5704, Note_off_c, 0, 50, 59
1, 5951, Note_on_c, 0, 72, 75
1, 5967, Note_on_c, 0, 41, 46
1, 5974, Note_on_c, 0, 65, 47
1, 5980, Note_on_c, 0, 51, 43
1, 5990, Note_on_c, 0, 60, 26
1, 6009, Control_c, 0, 64, 104
1, 6014, Note_off_c, 0, 70, 56
1, 6024, Control_c, 0, 64, 80
1, 6039, Control_c, 0, 64, 64
1, 6062, Control_c, 0, 64, 50
1, 6076, Control_c, 0, 64, 41
1, 6091, Control_c, 0, 64, 38
1, 6106, Control_c, 0, 64, 33
1, 6121, Control_c, 0, 64, 30
1, 6150, Control_c, 0, 64, 40
1, 6165, Control_c, 0, 64, 51
1, 6180, Control_c, 0, 64, 64
1, 6195, Control_c, 0, 64, 71
1, 6199, Note_off_c, 0, 60, 42
1, 6209, Control_c, 0, 64, 79
1, 6224, Control_c, 0, 64, 88
1, 6234, Note_off_c, 0, 72, 57
1, 6239, Control_c, 0, 64, 103
1, 6242, Note_on_c, 0, 53, 47
1, 6254, Control_c, 0, 64, 127
1, 6283, Note_off_c, 0, 65, 40
1, 6291, Note_off_c, 0, 51, 51
1, 6297, Note_off_c, 0, 41, 56
1, 6468, Note_on_c, 0, 72, 78
1, 6478, Note_off_c, 0, 53, 31
1, 6482, Note_on_c, 0, 51, 47
1, 6482, Note_on_c, 0, 65, 53
1, 6485, Note_on_c, 0, 41, 44
1, 6567, Poly_aftertouch_c, 0, 60, 127
1, 6602, Poly_aftertouch_c, 0, 60, 0
1, 6628, Note_off_c, 0, 72, 57
1, 6679, Note_off_c, 0, 65, 35
1, 6682, Note_off_c, 0, 41, 37
1, 6700, Note_off_c, 0, 51, 58
1, 6707, Note_on_c, 0, 53, 40
1, 6864, Note_off_c, 0, 53, 27
1, 6993, Note_on_c, 0, 72, 61
1, 7010, Note_on_c, 0, 41, 39
1, 7017, Note_on_c, 0, 51, 42
1, 7023, Note_on_c, 0, 65, 36
1, 7057, Note_on_c, 0, 60, 26
1, 7062, Control_c, 0, 64, 118
1, 7077, Control_c, 0, 64, 86
1, 7092, Control_c, 0, 64, 71
1, 7106, Control_c, 0, 64, 62
1, 7121, Control_c, 0, 64, 58
1, 7136, Control_c, 0, 64, 57
1, 7151, Control_c, 0, 64, 57
1, 7165, Control_c, 0, 64, 59
1, 7180, Control_c, 0, 64, 63
1, 7188, Note_off_c, 0, 60, 38
1, 7195, Control_c, 0, 64, 69
1, 7204, Note_off_c, 0, 65, 45
1, 7210, Control_c, 0, 64, 79
1, 7225, Control_c, 0, 64, 93
1, 7241, Control_c, 0, 64, 109
1, 7251, Note_on_c, 0, 53, 45
1, 7255, Control_c, 0, 64, 127
1, 7306, Note_off_c, 0, 41, 0
1, 7338, Note_off_c, 0, 51, 42
1, 7343, Poly_aftertouch_c, 0, 41, 0
1, 7480, Note_on_c, 0, 70, 70
1, 7494, Note_on_c, 0, 65, 50
1, 7498, Note_on_c, 0, 50, 42
1, 7503, Note_on_c, 0, 41, 35
1, 7510, Note_off_c, 0, 53, 54
1, 7538, Note_off_c, 0, 72, 55
1, 7566, Poly_aftertouch_c, 0, 58, 127
1, 7610, Poly_aftertouch_c, 0, 58, 0
1, 7700, Note_off_c, 0, 70, 55
1, 7723, Note_on_c, 0, 69, 75
1, 7743, Note_on_c, 0, 48, 58
1, 7756, Note_off_c, 0, 41, 56
1, 7786, Note_off_c, 0, 65, 58
1, 7787, Note_off_c, 0, 50, 37
1, 7796, Note_off_c, 0, 69, 62
1, 7997, Note_off_c, 0, 48, 57
1, 8026, Note_on_c, 0, 70, 67
1, 8048, Note_on_c, 0, 50, 35
1, 8050, Note_on_c, 0, 46, 40
1, 8074, Note_on_c, 0, 65, 27
1, 8122, Control_c, 0, 64, 106
1, 8137, Control_c, 0, 64, 85
1, 8151, Control_c, 0, 64, 69
1, 8166, Control_c, 0, 64, 57
1, 8181, Control_c, 0, 64, 46
1, 8196, Control_c, 0, 64, 40
1, 8211, Control_c, 0, 64, 37
1, 8226, Control_c, 0, 64, 36
1, 8241, Control_c, 0, 64, 38
1, 8256, Control_c, 0, 64, 46
1, 8270, Control_c, 0, 64, 54
1, 8285, Control_c, 0, 64, 60
1, 8307, Control_c, 0, 64, 66
1, 8322, Control_c, 0, 64, 74
1, 8326, Note_off_c, 0, 65, 42
1, 8335, Note_on_c, 0, 53, 36
1, 8336, Control_c, 0, 64, 85
1, 8351, Control_c, 0, 64, 98
1, 8362, Note_off_c, 0, 50, 60
1, 8366, Control_c, 0, 64, 114
1, 8381, Control_c, 0, 64, 127
1, 8579, Note_on_c, 0, 67, 53
1, 8601, Note_on_c, 0, 63, 32
1, 8607, Note_on_c, 0, 51, 39
1, 8633, Control_c, 0, 64, 97
1, 8647, Note_off_c, 0, 53, 32
1, 8649, Control_c, 0, 64, 78
1, 8664, Control_c, 0, 64, 65
1, 8678, Control_c, 0, 64, 57
1, 8693, Control_c, 0, 64, 55
1, 8723, Control_c, 0, 64, 57
1, 8737, Control_c, 0, 64, 60
1, 8752, Control_c, 0, 64, 64
1, 8767, Control_c, 0, 64, 71
1, 8782, Control_c, 0, 64, 82
1, 8797, Control_c, 0, 64, 95
1, 8811, Control_c, 0, 64, 109
1, 8827, Control_c, 0, 64, 127
1, 8829, Note_on_c, 0, 55, 44
1, 8850, Note_off_c, 0, 63, 26
1, 8867, Note_off_c, 0, 51, 51
1, 8918, Note_off_c, 0, 67, 35
1, 9052, Note_on_c, 0, 65, 61
1, 9061, Note_off_c, 0, 55, 55
1, 9065, Note_on_c, 0, 50, 50
1, 9069, Note_on_c, 0, 62, 41
1, 9087, Control_c, 0, 64, 88
1, 9102, Control_c, 0, 64, 70
1, 9116, Control_c, 0, 64, 59
1, 9131, Control_c, 0, 64, 54
1, 9160, Control_c, 0, 64, 57
1, 9175, Control_c, 0, 64, 63
1, 9190, Control_c, 0, 64, 71
1, 9205, Control_c, 0, 64, 85
1, 9220, Control_c, 0, 64, 109
1, 9234, Control_c, 0, 64, 127
1, 9269, Note_on_c, 0, 53, 53
1, 9269, Note_off_c, 0, 46, 59
1, 9272, Note_off_c, 0, 70, 64
1, 9276, Note_off_c, 0, 50, 62
1, 9292, Note_off_c, 0, 65, 61
1, 9303, Note_off_c, 0, 62, 52
1, 9329, Note_off_c, 0, 53, 49
1, 9541, Note_on_c, 0, 70, 81
1, 9573, Note_on_c, 0, 50, 49
1, 9578, Note_on_c, 0, 46, 42
1, 9590, Control_c, 0, 64, 98
1, 9605, Control_c, 0, 64, 75
1, 9621, Control_c, 0, 64, 61
1, 9636, Control_c, 0, 64, 51
1, 9650, Control_c, 0, 64, 49
1, 9665, Control_c, 0, 64, 50
1, 9680, Control_c, 0, 64, 53
1, 9695, Control_c, 0, 64, 61
1, 9710, Control_c, 0, 64, 67
1, 9724, Control_c, 0, 64, 75
1, 9739, Control_c, 0, 64, 89
1, 9754, Control_c, 0, 64, 113
1, 9769, Control_c, 0, 64, 127
1, 9860, Note_off_c, 0, 70, 63
1, 9882, Note_off_c, 0, 50, 60
1, 9889, Note_on_c, 0, 58, 43
1, 9906, Note_off_c, 0, 46, 56
1, 9959, Note_off_c, 0, 58, 45
1, 10274, Note_on_c, 0, 75, 70
1, 10304, Note_on_c, 0, 70, 41
1, 10339, Note_on_c, 0, 55, 36
1, 10345, Note_on_c, 0, 46, 32
1, 10360, Note_on_c, 0, 63, 4
1, 10369, Control_c, 0, 64, 108
1, 10383, Control_c, 0, 64, 89
1, 10398, Control_c, 0, 64, 77
1, 10413, Control_c, 0, 64, 68
1, 10429, Control_c, 0, 64, 59
1, 10443, Control_c, 0, 64, 52
1, 10458, Control_c, 0, 64, 47
1, 10473, Control_c, 0, 64, 42
1, 10488, Control_c, 0, 64, 34
1, 10503, Control_c, 0, 64, 28
1, 10533, Control_c, 0, 64, 34
1, 10554, Control_c, 0, 64, 45
1, 10569, Control_c, 0, 64, 57
1, 10584, Control_c, 0, 64, 62
1, 10598, Control_c, 0, 64, 64
1, 10602, Note_on_c, 0, 58, 45
1, 10613, Control_c, 0, 64, 68
1, 10628, Control_c, 0, 64, 72
1, 10643, Control_c, 0, 64, 78
1, 10658, Control_c, 0, 64, 84
1, 10673, Control_c, 0, 64, 94
1, 10682, Note_off_c, 0, 58, 55
1, 10688, Control_c, 0, 64, 105
1, 10703, Control_c, 0, 64, 123
1, 10718, Control_c, 0, 64, 127
1, 10838, Note_on_c, 0, 58, 41
1, 10907, Note_off_c, 0, 58, 44
1, 11068, Note_on_c, 0, 58, 38
1, 11146, Note_off_c, 0, 58, 51
1, 11311, Note_on_c, 0, 58, 44
1, 11351, Note_off_c, 0, 58, 48
1, 11540, Note_on_c, 0, 58, 41
1, 11541, Note_off_c, 0, 55, 60
1, 11569, Note_off_c, 0, 46, 60
1, 11617, Note_off_c, 0, 75, 62
1, 11635, Note_off_c, 0, 70, 35
1, 11648, Note_off_c, 0, 63, 41
1, 11651, Note_off_c, 0, 58, 34
1, 11804, Note_on_c, 0, 74, 66
1, 11809, Note_on_c, 0, 53, 45
1, 11815, Note_on_c, 0, 70, 43
1, 11845, Note_on_c, 0, 46, 32
1, 11859, Note_on_c, 0, 62, 12
1, 11907, Note_off_c, 0, 62, 51
1, 12031, Note_on_c, 0, 72, 73
1, 12050, Note_off_c, 0, 70, 56
1, 12053, Note_on_c, 0, 51, 53
1, 12068, Note_on_c, 0, 60, 28
1, 12068, Note_off_c, 0, 74, 56
1, 12093, Note_off_c, 0, 53, 53
1, 12107, Note_off_c, 0, 60, 54
1, 12125, Note_off_c, 0, 46, 39
1, 12293, Note_on_c, 0, 74, 76
1, 12297, Note_on_c, 0, 70, 64
1, 12318, Note_on_c, 0, 46, 51
1, 12321, Note_on_c, 0, 53, 38
1, 12327, Note_on_c, 0, 62, 42
1, 12333, Control_c, 0, 64, 113
1, 12339, Note_off_c, 0, 51, 52
1, 12348, Control_c, 0, 64, 80
1, 12363, Control_c, 0, 64, 64
1, 12378, Control_c, 0, 64, 55
1, 12392, Control_c, 0, 64, 53
1, 12422, Control_c, 0, 64, 55
1, 12437, Control_c, 0, 64, 58
1, 12451, Control_c, 0, 64, 62
1, 12454, Note_off_c, 0, 72, 0
1, 12466, Control_c, 0, 64, 67
1, 12481, Control_c, 0, 64, 77
1, 12491, Poly_aftertouch_c, 0, 72, 127
1, 12496, Control_c, 0, 64, 107
1, 12497, Note_off_c, 0, 74, 61
1, 12510, Control_c, 0, 64, 127
1, 12522, Note_off_c, 0, 62, 63
1, 12529, Note_off_c, 0, 70, 64
1, 12530, Poly_aftertouch_c, 0, 72, 0
1, 12533, Note_on_c, 0, 50, 49
1, 12569, Note_off_c, 0, 46, 61
1, 12580, Note_off_c, 0, 50, 62
1, 12765, Note_on_c, 0, 69, 73
1, 12778, Note_on_c, 0, 65, 58
1, 12798, Note_on_c, 0, 57, 37
1, 12799, Control_c, 0, 64, 96
1, 12802, Note_on_c, 0, 48, 52
1, 12804, Note_on_c, 0, 41, 50
1, 12814, Control_c, 0, 64, 69
1, 12830, Control_c, 0, 64, 53
1, 12843, Note_off_c, 0, 53, 22
1, 12845, Control_c, 0, 64, 40
1, 12860, Control_c, 0, 64, 32
1, 12874, Control_c, 0, 64, 29
1, 12904, Control_c, 0, 64, 35
1, 12919, Control_c, 0, 64, 49
1, 12933, Control_c, 0, 64, 61
1, 12948, Control_c, 0, 64, 69
1, 12963, Control_c, 0, 64, 76
1, 12966, Note_off_c, 0, 65, 62
1, 12969, Note_off_c, 0, 57, 53
1, 12978, Control_c, 0, 64, 82
1, 12993, Control_c, 0, 64, 90
1, 13007, Control_c, 0, 64, 108
1, 13011, Note_on_c, 0, 53, 48
1, 13022, Note_off_c, 0, 48, 59
1, 13022, Control_c, 0, 64, 127
1, 13077, Note_off_c, 0, 41, 52
1, 13219, Note_on_c, 0, 41, 50
1, 13221, Note_on_c, 0, 70, 74
1, 13230, Control_c, 0, 64, 111
1, 13234, Note_on_c, 0, 65, 50
1, 13239, Note_on_c, 0, 50, 52
1, 13245, Control_c, 0, 64, 81
1, 13251, Note_off_c, 0, 69, 61
1, 13260, Control_c, 0, 64, 64
1, 13265, Note_on_c, 0, 58, 27
1, 13274, Control_c, 0, 64, 50
1, 13275, Note_off_c, 0, 53, 47
1, 13289, Control_c, 0, 64, 42
1, 13304, Control_c, 0, 64, 38
1, 13318, Control_c, 0, 64, 36
1, 13333, Control_c, 0, 64, 37
1, 13348, Control_c, 0, 64, 46
1, 13363, Control_c, 0, 64, 57
1, 13378, Control_c, 0, 64, 66
1, 13380, Note_off_c, 0, 58, 55
1, 13392, Control_c, 0, 64, 75
1, 13407, Control_c, 0, 64, 88
1, 13410, Note_off_c, 0, 65, 53
1, 13422, Control_c, 0, 64, 102
1, 13436, Note_on_c, 0, 53, 53
1, 13437, Control_c, 0, 64, 117
1, 13452, Control_c, 0, 64, 127
1, 13457, Note_off_c, 0, 50, 58
1, 13508, Note_off_c, 0, 41, 55
1, 13663, Note_on_c, 0, 72, 76
1, 13671, Note_on_c, 0, 41, 45
1, 13681, Note_on_c, 0, 51, 54
1, 13683, Control_c, 0, 64, 101
1, 13686, Note_on_c, 0, 65, 53
1, 13687, Note_on_c, 0, 60, 43
1, 13697, Control_c, 0, 64, 82
1, 13712, Control_c, 0, 64, 67
1, 13726, Note_off_c, 0, 70, 60
1, 13727, Control_c, 0, 64, 51
1, 13742, Control_c, 0, 64, 37
1, 13750, Note_off_c, 0, 53, 39
1, 13756, Control_c, 0, 64, 0
1, 13816, Control_c, 0, 64, 35
1, 13822, Note_off_c, 0, 60, 54
1, 13830, Control_c, 0, 64, 49
1, 13839, Note_off_c, 0, 65, 54
1, 13845, Control_c, 0, 64, 60
1, 13860, Control_c, 0, 64, 67
1, 13875, Control_c, 0, 64, 73
1, 13889, Control_c, 0, 64, 81
1, 13903, Note_on_c, 0, 53, 47
1, 13904, Control_c, 0, 64, 87
1, 13919, Control_c, 0, 64, 93
1, 13934, Control_c, 0, 64, 99
1, 13940, Note_off_c, 0, 51, 51
1, 13948, Control_c, 0, 64, 106
1, 13963, Control_c, 0, 64, 117
1, 13970, Note_off_c, 0, 41, 40
1, 13978, Control_c, 0, 64, 127
1, 14140, Control_c, 0, 64, 117
1, 14155, Control_c, 0, 64, 92
1, 14158, Note_on_c, 0, 70, 66
1, 14161, Note_on_c, 0, 65, 50
1, 14165, Note_on_c, 0, 41, 45
1, 14168, Note_on_c, 0, 50, 42
1, 14170, Control_c, 0, 64, 73
1, 14175, Note_on_c, 0, 58, 42
1, 14185, Control_c, 0, 64, 57
1, 14200, Control_c, 0, 64, 40
1, 14214, Control_c, 0, 64, 32
1, 14218, Note_off_c, 0, 72, 57
1, 14225, Note_off_c, 0, 53, 37
1, 14244, Control_c, 0, 64, 32
1, 14259, Control_c, 0, 64, 38
1, 14274, Control_c, 0, 64, 48
1, 14296, Control_c, 0, 64, 55
1, 14311, Control_c, 0, 64, 62
1, 14326, Control_c, 0, 64, 69
1, 14341, Control_c, 0, 64, 79
1, 14355, Control_c, 0, 64, 88
1, 14370, Control_c, 0, 64, 96
1, 14379, Note_off_c, 0, 58, 37
1, 14385, Control_c, 0, 64, 103
1, 14397, Note_off_c, 0, 65, 57
1, 14400, Control_c, 0, 64, 112
1, 14415, Control_c, 0, 64, 127
1, 14438, Note_on_c, 0, 53, 40
1, 14480, Note_off_c, 0, 50, 38
1, 14538, Note_off_c, 0, 70, 32
1, 14735, Note_on_c, 0, 74, 61
1, 14752, Note_on_c, 0, 70, 47
1, 14765, Note_on_c, 0, 50, 38
1, 14777, Note_on_c, 0, 65, 28
1, 14784, Note_on_c, 0, 62, 38
1, 14787, Control_c, 0, 64, 123
1, 14802, Control_c, 0, 64, 93
1, 14816, Control_c, 0, 64, 75
1, 14831, Control_c, 0, 64, 61
1, 14846, Control_c, 0, 64, 45
1, 14861, Control_c, 0, 64, 37
1, 14876, Control_c, 0, 64, 35
1, 14890, Control_c, 0, 64, 33
1, 14920, Control_c, 0, 64, 38
1, 14935, Control_c, 0, 64, 46
1, 14950, Control_c, 0, 64, 56
1, 14964, Control_c, 0, 64, 62
1, 14979, Control_c, 0, 64, 67
1, 14994, Control_c, 0, 64, 72
1, 15009, Control_c, 0, 64, 79
1, 15024, Control_c, 0, 64, 87
1, 15029, Note_off_c, 0, 62, 35
1, 15046, Control_c, 0, 64, 100
1, 15061, Control_c, 0, 64, 127
1, 15067, Note_off_c, 0, 74, 52
1, 15115, Note_off_c, 0, 65, 61
1, 15121, Note_on_c, 0, 46, 46
1, 15168, Note_off_c, 0, 70, 60
1, 15171, Note_off_c, 0, 41, 52
1, 15218, Note_off_c, 0, 50, 62
1, 15252, Note_off_c, 0, 53, 0
1, 15288, Poly_aftertouch_c, 0, 53, 127
1, 15440, Poly_aftertouch_c, 0, 53, 0
1, 15672, Note_on_c, 0, 72, 64
1, 15684, Note_on_c, 0, 69, 52
1, 15690, Note_on_c, 0, 41, 38
1, 15696, Note_on_c, 0, 65, 37
1, 15699, Note_on_c, 0, 60, 34
1, 15756, Note_off_c, 0, 65, 0
1, 15756, Note_on_c, 0, 65, 3
1, 15758, Note_off_c, 0, 46, 8
1, 15839, Control_c, 0, 64, 98
1, 15854, Control_c, 0, 64, 82
1, 15869, Control_c, 0, 64, 69
1, 15884, Control_c, 0, 64, 62
1, 15899, Control_c, 0, 64, 58
1, 15913, Control_c, 0, 64, 56
1, 15928, Control_c, 0, 64, 55
1, 15943, Control_c, 0, 64, 53
1, 15958, Control_c, 0, 64, 52
1, 15973, Control_c, 0, 64, 51
1, 15988, Control_c, 0, 64, 50
1, 16077, Control_c, 0, 64, 51
1, 16136, Control_c, 0, 64, 51
1, 16151, Control_c, 0, 64, 52
1, 16225, Control_c, 0, 64, 52
1, 16240, Control_c, 0, 64, 53
1, 16285, Control_c, 0, 64, 54
1, 16299, Control_c, 0, 64, 54
1, 16314, Control_c, 0, 64, 55
1, 16373, Control_c, 0, 64, 55
1, 16388, Control_c, 0, 64, 56
1, 16403, Control_c, 0, 64, 56
1, 16462, Control_c, 0, 64, 57
1, 16543, Control_c, 0, 64, 57
1, 16596, Note_off_c, 0, 41, 41
1, 16603, Control_c, 0, 64, 58
1, 16691, Control_c, 0, 64, 58
1, 16751, Control_c, 0, 64, 59
1, 16766, Control_c, 0, 64, 59
1, 17004, Control_c, 0, 64, 60
1, 17211, Control_c, 0, 64, 60
1, 17226, Control_c, 0, 64, 61
1, 17322, Control_c, 0, 64, 61
1, 17350, Note_on_c, 0, 29, 15
1, 17381, Control_c, 0, 64, 62
1, 17396, Control_c, 0, 64, 63
1, 17411, Control_c, 0, 64, 63
1, 17441, Control_c, 0, 64, 64
1, 17455, Control_c, 0, 64, 65
1, 17470, Control_c, 0, 64, 68
1, 17485, Control_c, 0, 64, 73
1, 17499, Control_c, 0, 64, 81
1, 17514, Control_c, 0, 64, 87
1, 17529, Control_c, 0, 64, 91
1, 17542, Note_on_c, 0, 30, 50
1, 17544, Note_off_c, 0, 29, 40
1, 17544, Control_c, 0, 64, 96
1, 17559, Control_c, 0, 64, 102
1, 17574, Control_c, 0, 64, 111
1, 17589, Control_c, 0, 64, 127
1, 17666, Note_off_c, 0, 30, 54
1, 17687, Note_on_c, 0, 32, 41
1, 17751, Note_off_c, 0, 32, 56
1, 17778, Note_on_c, 0, 30, 41
1, 17830, Note_off_c, 0, 30, 55
1, 17879, Note_on_c, 0, 32, 32
1, 17923, Note_off_c, 0, 32, 52
1, 17937, Note_on_c, 0, 30, 45
1, 17982, Note_off_c, 0, 30, 45
1, 17989, Control_c, 0, 64, 106
1, 18004, Control_c, 0, 64, 97
1, 18007, Note_on_c, 0, 32, 52
1, 18019, Control_c, 0, 64, 94
1, 18042, Control_c, 0, 64, 92
1, 18057, Note_off_c, 0, 32, 47
1, 18057, Control_c, 0, 64, 90
1, 18071, Control_c, 0, 64, 86
1, 18080, Note_on_c, 0, 30, 44
1, 18086, Control_c, 0, 64, 83
1, 18101, Control_c, 0, 64, 81
1, 18115, Control_c, 0, 64, 80
1, 18122, Note_off_c, 0, 30, 50
1, 18130, Control_c, 0, 64, 79
1, 18134, Note_on_c, 0, 32, 64
1, 18145, Control_c, 0, 64, 78
1, 18160, Control_c, 0, 64, 75
1, 18173, Note_off_c, 0, 32, 53
1, 18175, Control_c, 0, 64, 71
1, 18187, Note_on_c, 0, 30, 54
1, 18190, Control_c, 0, 64, 69
1, 18204, Control_c, 0, 64, 68
1, 18219, Control_c, 0, 64, 65
1, 18228, Note_off_c, 0, 30, 55
1, 18234, Control_c, 0, 64, 63
1, 18249, Control_c, 0, 64, 61
1, 18259, Note_on_c, 0, 32, 60
1, 18263, Control_c, 0, 64, 60
1, 18278, Control_c, 0, 64, 60
1, 18289, Note_off_c, 0, 32, 55
1, 18308, Control_c, 0, 64, 59
1, 18311, Note_on_c, 0, 30, 47
1, 18322, Control_c, 0, 64, 58
1, 18337, Control_c, 0, 64, 57
1, 18342, Note_off_c, 0, 30, 55
1, 18352, Control_c, 0, 64, 56
1, 18367, Control_c, 0, 64, 55
1, 18370, Note_on_c, 0, 32, 60
1, 18382, Control_c, 0, 64, 54
1, 18397, Note_off_c, 0, 32, 57
1, 18397, Control_c, 0, 64, 53
1, 18412, Control_c, 0, 64, 51
1, 18427, Control_c, 0, 64, 48
1, 18428, Note_on_c, 0, 30, 45
1, 18442, Control_c, 0, 64, 47
1, 18457, Control_c, 0, 64, 46
1, 18465, Note_off_c, 0, 30, 48
1, 18472, Control_c, 0, 64, 45
1, 18480, Note_on_c, 0, 32, 60
1, 18486, Control_c, 0, 64, 43
1, 18501, Control_c, 0, 64, 41
1, 18513, Note_off_c, 0, 32, 60
1, 18516, Control_c, 0, 64, 40
1, 18531, Note_on_c, 0, 30, 51
1, 18572, Note_off_c, 0, 30, 54
1, 18575, Control_c, 0, 64, 40
1, 18599, Note_on_c, 0, 32, 59
1, 18605, Control_c, 0, 64, 40
1, 18629, Note_off_c, 0, 32, 56
1, 18649, Note_on_c, 0, 30, 46
1, 18683, Note_off_c, 0, 30, 52
1, 18694, Control_c, 0, 64, 41
1, 18710, Note_on_c, 0, 32, 63
1, 18739, Note_off_c, 0, 32, 61
1, 18767, Note_on_c, 0, 30, 53
1, 18768, Control_c, 0, 64, 41
1, 18817, Note_off_c, 0, 30, 58
1, 18844, Note_on_c, 0, 32, 57
1, 18850, Control_c, 0, 64, 42
1, 18864, Control_c, 0, 64, 42
1, 18876, Note_off_c, 0, 32, 57
1, 18948, Note_on_c, 0, 30, 3
1, 18963, Note_on_c, 0, 32, 57
1, 18996, Note_off_c, 0, 32, 57
1, 19011, Note_off_c, 0, 30, 0
1, 19011, Note_on_c, 0, 30, 37
1, 19067, Note_off_c, 0, 30, 48
1, 19086, Control_c, 0, 64, 43
1, 19099, Note_on_c, 0, 32, 52
1, 19101, Control_c, 0, 64, 43
1, 19131, Note_off_c, 0, 32, 56
1, 19159, Note_on_c, 0, 30, 41
1, 19160, Control_c, 0, 64, 44
1, 19175, Control_c, 0, 64, 44
1, 19190, Control_c, 0, 64, 45
1, 19201, Note_off_c, 0, 30, 53
1, 19228, Note_on_c, 0, 32, 53
1, 19264, Note_off_c, 0, 32, 58
1, 19305, Note_on_c, 0, 30, 42
1, 19356, Note_off_c, 0, 30, 61
1, 19376, Note_on_c, 0, 32, 56
1, 19383, Control_c, 0, 64, 45
1, 19462, Note_off_c, 0, 32, 59
1, 19484, Note_on_c, 0, 30, 40
1, 19641, Note_on_c, 0, 29, 29
1, 19685, Note_off_c, 0, 30, 42
1, 19839, Note_on_c, 0, 30, 34
1, 19847, Note_off_c, 0, 29, 39
1, 20117, Control_c, 0, 64, 46
1, 20139, Note_on_c, 0, 29, 36
1, 20221, Note_off_c, 0, 30, 39
1, 20406, Control_c, 0, 64, 46
1, 20436, Control_c, 0, 64, 47
1, 20465, Control_c, 0, 64, 48
1, 20480, Control_c, 0, 64, 49
1, 20495, Control_c, 0, 64, 51
1, 20510, Control_c, 0, 64, 53
1, 20525, Control_c, 0, 64, 54
1, 20555, Control_c, 0, 64, 55
1, 20570, Control_c, 0, 64, 59
1, 20584, Control_c, 0, 64, 64
1, 20599, Control_c, 0, 64, 68
1, 20614, Control_c, 0, 64, 72
1, 20629, Control_c, 0, 64, 73
1, 20643, Control_c, 0, 64, 74
1, 20658, Control_c, 0, 64, 76
1, 20673, Control_c, 0, 64, 78
1, 20688, Control_c, 0, 64, 80
1, 20703, Control_c, 0, 64, 82
1, 20717, Control_c, 0, 64, 84
1, 20732, Control_c, 0, 64, 86
1, 20738, Note_off_c, 0, 29, 31
1, 20747, Control_c, 0, 64, 89
1, 20762, Control_c, 0, 64, 91
1, 20777, Control_c, 0, 64, 94
1, 20791, Control_c, 0, 64, 97
1, 20807, Control_c, 0, 64, 100
1, 20822, Control_c, 0, 64, 103
1, 20837, Control_c, 0, 64, 106
1, 20852, Control_c, 0, 64, 108
1, 20881, Control_c, 0, 64, 110
1, 21014, Control_c, 0, 64, 108
1, 21052, Control_c, 0, 64, 105
1, 21066, Control_c, 0, 64, 103
1, 21081, Control_c, 0, 64, 101
1, 21096, Control_c, 0, 64, 99
1, 21126, Control_c, 0, 64, 95
1, 21140, Control_c, 0, 64, 91
1, 21155, Control_c, 0, 64, 89
1, 21170, Control_c, 0, 64, 87
1, 21185, Control_c, 0, 64, 85
1, 21200, Control_c, 0, 64, 84
1, 21214, Control_c, 0, 64, 80
1, 21229, Control_c, 0, 64, 75
1, 21244, Control_c, 0, 64, 69
1, 21258, Control_c, 0, 64, 65
1, 21273, Control_c, 0, 64, 63
1, 21288, Control_c, 0, 64, 62
1, 21303, Control_c, 0, 64, 61
1, 21318, Control_c, 0, 64, 60
1, 21333, Control_c, 0, 64, 59
1, 21348, Control_c, 0, 64, 59
1, 21363, Control_c, 0, 64, 58
1, 21378, Control_c, 0, 64, 58
1, 21393, Control_c, 0, 64, 57
1, 21437, Control_c, 0, 64, 58
1, 21452, Control_c, 0, 64, 61
1, 21467, Control_c, 0, 64, 64
1, 21482, Control_c, 0, 64, 70
1, 21497, Control_c, 0, 64, 77
1, 21512, Control_c, 0, 64, 83
1, 21526, Control_c, 0, 64, 86
1, 21541, Control_c, 0, 64, 87
1, 21542, Note_off_c, 0, 72, 49
1, 21556, Control_c, 0, 64, 90
1, 21563, Note_off_c, 0, 60, 49
1, 21571, Control_c, 0, 64, 97
1, 21586, Control_c, 0, 64, 110
1, 21601, Control_c, 0, 64, 127
1, 21643, Note_off_c, 0, 69, 58
1, 21669, Note_off_c, 0, 65, 40
1, 21735, Control_c, 0, 64, 109
1, 21749, Control_c, 0, 64, 101
1, 21764, Control_c, 0, 64, 94
1, 21786, Control_c, 0, 64, 89
1, 21801, Control_c, 0, 64, 87
1, 21816, Control_c, 0, 64, 84
1, 21831, Control_c, 0, 64, 82
1, 21845, Control_c, 0, 64, 78
1, 21860, Control_c, 0, 64, 74
1, 21875, Control_c, 0, 64, 70
1, 21890, Control_c, 0, 64, 68
1, 21905, Control_c, 0, 64, 67
1, 21920, Control_c, 0, 64, 67
1, 21935, Control_c, 0, 64, 66
1, 21950, Control_c, 0, 64, 64
1, 21964, Control_c, 0, 64, 63
1, 21979, Control_c, 0, 64, 62
1, 21994, Control_c, 0, 64, 62
1, 22009, Control_c, 0, 64, 61
1, 22024, Control_c, 0, 64, 60
1, 22038, Control_c, 0, 64, 60
1, 22097, Control_c, 0, 64, 59
1, 22185, Control_c, 0, 64, 59
1, 22363, Control_c, 0, 64, 59
1, 22378, Control_c, 0, 64, 60
1, 22424, Control_c, 0, 64, 61
1, 22439, Control_c, 0, 64, 61
1, 22453, Control_c, 0, 64, 63
1, 22468, Control_c, 0, 64, 65
1, 22483, Control_c, 0, 64, 68
1, 22498, Control_c, 0, 64, 70
1, 22512, Control_c, 0, 64, 71
1, 22534, Control_c, 0, 64, 73
1, 22549, Control_c, 0, 64, 76
1, 22564, Control_c, 0, 64, 81
1, 22579, Control_c, 0, 64, 84
1, 22594, Control_c, 0, 64, 86
1, 22609, Control_c, 0, 64, 88
1, 22623, Control_c, 0, 64, 90
1, 22638, Control_c, 0, 64, 92
1, 22653, Control_c, 0, 64, 94
1, 22668, Control_c, 0, 64, 96
1, 22683, Control_c, 0, 64, 98
1, 22698, Control_c, 0, 64, 100
1, 22712, Control_c, 0, 64, 104
1, 22727, Control_c, 0, 64, 107
1, 22742, Control_c, 0, 64, 110
1, 22757, Control_c, 0, 64, 116
1, 22772, Control_c, 0, 64, 127
1, 22817, Note_on_c, 0, 70, 48
1, 22846, Note_on_c, 0, 46, 29
1, 22865, Note_on_c, 0, 50, 37
1, 22874, Note_on_c, 0, 65, 10
1, 23065, Note_off_c, 0, 65, 42
1, 23112, Note_off_c, 0, 70, 56
1, 23303, Note_on_c, 0, 53, 25
1, 23333, Note_off_c, 0, 50, 50
1, 23362, Note_off_c, 0, 46, 30
1, 23405, Note_off_c, 0, 53, 31
1, 23603, Note_on_c, 0, 70, 59
1, 23629, Note_on_c, 0, 46, 30
1, 23644, Note_on_c, 0, 50, 24
1, 23664, Note_on_c, 0, 65, 14
1, 23859, Note_on_c, 0, 53, 32
1, 23947, Note_off_c, 0, 46, 33
1, 23953, Note_off_c, 0, 50, 44
1, 24073, Note_on_c, 0, 69, 69
1, 24081, Note_off_c, 0, 53, 39
1, 24104, Note_on_c, 0, 46, 19
1, 24105, Note_on_c, 0, 48, 44
1, 24154, Note_off_c, 0, 70, 62
1, 24177, Note_off_c, 0, 65, 42
1, 24302, Note_on_c, 0, 53, 43
1, 24349, Note_off_c, 0, 48, 43
1, 24363, Note_off_c, 0, 46, 39
1, 24517, Note_on_c, 0, 70, 72
1, 24536, Note_on_c, 0, 46, 34
1, 24540, Note_on_c, 0, 50, 43
1, 24567, Note_off_c, 0, 53, 36
1, 24572, Note_off_c, 0, 69, 59
1, 24581, Note_on_c, 0, 65, 13
1, 24581, Control_c, 0, 64, 86
1, 24596, Control_c, 0, 64, 66
1, 24610, Control_c, 0, 64, 53
1, 24614, Poly_aftertouch_c, 0, 58, 127
1, 24625, Control_c, 0, 64, 48
1, 24655, Control_c, 0, 64, 50
1, 24670, Control_c, 0, 64, 58
1, 24683, Poly_aftertouch_c, 0, 58, 0
1, 24684, Control_c, 0, 64, 67
1, 24699, Control_c, 0, 64, 78
1, 24714, Control_c, 0, 64, 95
1, 24729, Control_c, 0, 64, 127
1, 24736, Note_off_c, 0, 65, 42
1, 24757, Note_on_c, 0, 53, 43
1, 24800, Note_off_c, 0, 46, 58
1, 24808, Note_off_c, 0, 50, 59
1, 24994, Note_on_c, 0, 72, 74
1, 25021, Note_on_c, 0, 65, 53
1, 25028, Note_on_c, 0, 46, 32
1, 25033, Note_on_c, 0, 51, 46
1, 25048, Control_c, 0, 64, 82
1, 25053, Note_on_c, 0, 60, 10
1, 25063, Control_c, 0, 64, 64
1, 25065, Note_off_c, 0, 70, 60
1, 25078, Control_c, 0, 64, 54
1, 25093, Control_c, 0, 64, 51
1, 25097, Note_off_c, 0, 53, 36
1, 25103, Note_off_c, 0, 65, 0
1, 25103, Note_on_c, 0, 65, 3
1, 25112, Note_off_c, 0, 60, 45
1, 25121, Control_c, 0, 64, 54
1, 25136, Control_c, 0, 64, 60
1, 25151, Control_c, 0, 64, 68
1, 25166, Control_c, 0, 64, 76
1, 25180, Control_c, 0, 64, 87
1, 25195, Control_c, 0, 64, 101
1, 25210, Control_c, 0, 64, 127
1, 25301, Note_off_c, 0, 65, 40
1, 25309, Note_on_c, 0, 53, 31
1, 25345, Note_off_c, 0, 51, 38
1, 25364, Note_off_c, 0, 46, 40
1, 25372, Control_c, 0, 67, 125
1, 25387, Control_c, 0, 67, 123
1, 25397, Note_off_c, 0, 53, 50
1, 25402, Control_c, 0, 67, 120
1, 25543, Control_c, 0, 67, 122
1, 25573, Control_c, 0, 67, 126
1, 25609, Note_on_c, 0, 74, 71
1, 25646, Note_on_c, 0, 46, 36
1, 25654, Note_on_c, 0, 65, 14
1, 25663, Note_on_c, 0, 52, 36
1, 25688, Poly_aftertouch_c, 0, 62, 127
1, 25692, Control_c, 0, 64, 102
1, 25707, Control_c, 0, 64, 81
1, 25722, Control_c, 0, 64, 69
1, 25736, Control_c, 0, 64, 62
1, 25751, Control_c, 0, 64, 58
1, 25766, Control_c, 0, 64, 56
1, 25781, Control_c, 0, 64, 54
1, 25792, Note_off_c, 0, 72, 28
1, 25796, Control_c, 0, 64, 52
1, 25810, Control_c, 0, 64, 50
1, 25825, Control_c, 0, 64, 50
1, 25905, Note_off_c, 0, 52, 42
1, 25914, Control_c, 0, 64, 50
1, 25924, Note_on_c, 0, 53, 16
1, 25959, Control_c, 0, 64, 51
1, 25967, Note_off_c, 0, 53, 48
1, 25974, Control_c, 0, 64, 51
1, 25989, Control_c, 0, 64, 52
1, 26062, Control_c, 0, 64, 54
1, 26077, Control_c, 0, 64, 54
1, 26121, Control_c, 0, 64, 55
1, 26136, Control_c, 0, 64, 58
1, 26149, Note_on_c, 0, 53, 32
1, 26151, Control_c, 0, 64, 62
1, 26166, Control_c, 0, 64, 66
1, 26181, Control_c, 0, 64, 69
1, 26195, Control_c, 0, 64, 71
1, 26206, Note_off_c, 0, 53, 53
1, 26210, Control_c, 0, 64, 75
1, 26225, Control_c, 0, 64, 81
1, 26240, Control_c, 0, 64, 91
1, 26254, Control_c, 0, 64, 102
1, 26277, Control_c, 0, 64, 114
1, 26292, Control_c, 0, 64, 127
1, 26385, Note_on_c, 0, 53, 39
1, 26447, Note_off_c, 0, 53, 54
1, 26597, Note_on_c, 0, 53, 43
1, 26642, Note_off_c, 0, 53, 57
1, 26707, Note_off_c, 0, 74, 62
1, 26764, Note_off_c, 0, 65, 40
1, 26770, Poly_aftertouch_c, 0, 62, 0
1, 26816, Note_on_c, 0, 53, 42
1, 26897, Note_off_c, 0, 46, 40
1, 27092, Note_on_c, 0, 72, 64
1, 27128, Note_on_c, 0, 51, 37
1, 27129, Note_on_c, 0, 46, 25
1, 27143, Note_on_c, 0, 60, 20
1, 27145, Note_on_c, 0, 65, 18
1, 27169, Note_off_c, 0, 53, 53
1, 27186, Note_off_c, 0, 60, 43
1, 27352, Note_on_c, 0, 70, 69
1, 27365, Note_on_c, 0, 50, 49
1, 27377, Note_on_c, 0, 58, 36
1, 27389, Note_off_c, 0, 65, 41
1, 27399, Note_off_c, 0, 72, 54
1, 27408, Note_off_c, 0, 46, 39
1, 27413, Note_off_c, 0, 58, 51
1, 27423, Note_off_c, 0, 50, 58
1, 27427, Note_off_c, 0, 51, 41
1, 27674, Note_on_c, 0, 72, 67
1, 27699, Note_on_c, 0, 41, 43
1, 27704, Note_on_c, 0, 65, 42
1, 27706, Note_on_c, 0, 51, 41
1, 27714, Note_off_c, 0, 70, 41
1, 27723, Control_c, 0, 64, 107
1, 27733, Note_on_c, 0, 60, 22
1, 27738, Control_c, 0, 64, 82
1, 27753, Control_c, 0, 64, 66
1, 27774, Control_c, 0, 64, 55
1, 27789, Control_c, 0, 64, 50
1, 27804, Control_c, 0, 64, 49
1, 27819, Control_c, 0, 64, 50
1, 27834, Control_c, 0, 64, 53
1, 27849, Control_c, 0, 64, 59
1, 27864, Control_c, 0, 64, 63
1, 27879, Control_c, 0, 64, 67
1, 27894, Control_c, 0, 64, 75
1, 27908, Control_c, 0, 64, 96
1, 27923, Control_c, 0, 64, 127
1, 27930, Note_off_c, 0, 60, 44
1, 27955, Note_off_c, 0, 72, 51
1, 27956, Note_on_c, 0, 53, 47
1, 27967, Note_off_c, 0, 65, 59
1, 27991, Note_off_c, 0, 51, 37
1, 28014, Note_off_c, 0, 41, 38
1, 28172, Note_on_c, 0, 72, 73
1, 28190, Note_on_c, 0, 41, 48
1, 28198, Note_on_c, 0, 51, 43
1, 28201, Note_off_c, 0, 53, 24
1, 28207, Note_on_c, 0, 65, 37
1, 28240, Note_on_c, 0, 60, 20
1, 28285, Note_off_c, 0, 60, 49
1, 28351, Note_off_c, 0, 72, 59
1, 28382, Note_off_c, 0, 65, 41
1, 28417, Note_off_c, 0, 41, 29
1, 28424, Note_on_c, 0, 53, 41
1, 28427, Note_off_c, 0, 51, 58
1, 28691, Note_off_c, 0, 53, 27
1, 28706, Note_on_c, 0, 72, 65
1, 28713, Note_on_c, 0, 41, 42
1, 28719, Note_on_c, 0, 51, 40
1, 28737, Note_on_c, 0, 65, 25
1, 28776, Control_c, 0, 64, 118
1, 28777, Note_on_c, 0, 60, 35
1, 28791, Control_c, 0, 64, 88
1, 28807, Control_c, 0, 64, 73
1, 28821, Control_c, 0, 64, 63
1, 28836, Control_c, 0, 64, 60
1, 28851, Control_c, 0, 64, 60
1, 28865, Control_c, 0, 64, 60
1, 28880, Control_c, 0, 64, 63
1, 28893, Note_off_c, 0, 60, 51
1, 28895, Control_c, 0, 64, 68
1, 28910, Control_c, 0, 64, 78
1, 28925, Control_c, 0, 64, 103
1, 28940, Control_c, 0, 64, 127
1, 28945, Note_off_c, 0, 65, 43
1, 28953, Note_on_c, 0, 53, 48
1, 29018, Note_off_c, 0, 41, 57
1, 29036, Note_off_c, 0, 51, 41
1, 29173, Note_on_c, 0, 70, 70
1, 29195, Note_on_c, 0, 50, 47
1, 29199, Note_on_c, 0, 41, 46
1, 29199, Note_on_c, 0, 65, 49
1, 29228, Note_off_c, 0, 53, 53
1, 29238, Note_off_c, 0, 72, 57
1, 29265, Poly_aftertouch_c, 0, 58, 127
1, 29304, Poly_aftertouch_c, 0, 58, 0
1, 29346, Note_off_c, 0, 70, 61
1, 29361, Control_c, 0, 67, 124
1, 29391, Control_c, 0, 67, 122
1, 29415, Note_on_c, 0, 69, 70
1, 29431, Note_on_c, 0, 48, 64
1, 29435, Note_off_c, 0, 41, 61
1, 29435, Control_c, 0, 67, 125
1, 29486, Note_off_c, 0, 50, 33
1, 29496, Note_off_c, 0, 69, 60
1, 29509, Control_c, 0, 67, 127
1, 29510, Note_off_c, 0, 65, 39
1, 29523, Poly_aftertouch_c, 0, 57, 0
1, 29720, Note_on_c, 0, 70, 68
1, 29742, Note_on_c, 0, 50, 37
1, 29754, Note_on_c, 0, 46, 37
1, 29763, Note_on_c, 0, 65, 37
1, 29774, Note_off_c, 0, 48, 37
1, 29821, Control_c, 0, 64, 105
1, 29828, Note_off_c, 0, 65, 0
1, 29828, Note_on_c, 0, 65, 7
1, 29836, Control_c, 0, 64, 82
1, 29851, Control_c, 0, 64, 65
1, 29866, Control_c, 0, 64, 54
1, 29881, Control_c, 0, 64, 49
1, 29895, Control_c, 0, 64, 48
1, 29925, Control_c, 0, 64, 50
1, 29940, Control_c, 0, 64, 57
1, 29955, Control_c, 0, 64, 61
1, 29969, Control_c, 0, 64, 65
1, 29984, Control_c, 0, 64, 72
1, 29999, Control_c, 0, 64, 86
1, 30021, Control_c, 0, 64, 114
1, 30025, Note_off_c, 0, 65, 38
1, 30028, Note_on_c, 0, 53, 37
1, 30036, Control_c, 0, 64, 127
1, 30068, Note_off_c, 0, 50, 61
1, 30267, Note_on_c, 0, 67, 56
1, 30274, Note_on_c, 0, 51, 43
1, 30277, Note_on_c, 0, 63, 39
1, 30302, Control_c, 0, 64, 93
1, 30304, Note_off_c, 0, 53, 37
1, 30317, Control_c, 0, 64, 74
1, 30332, Control_c, 0, 64, 61
1, 30347, Control_c, 0, 64, 53
1, 30362, Control_c, 0, 64, 52
1, 30377, Control_c, 0, 64, 53
1, 30392, Control_c, 0, 64, 57
1, 30407, Control_c, 0, 64, 64
1, 30422, Control_c, 0, 64, 71
1, 30437, Control_c, 0, 64, 81
1, 30451, Control_c, 0, 64, 98
1, 30466, Control_c, 0, 64, 127
1, 30489, Note_on_c, 0, 55, 46
1, 30513, Note_off_c, 0, 51, 60
1, 30514, Note_off_c, 0, 63, 50
1, 30582, Note_off_c, 0, 67, 37
1, 30715, Note_on_c, 0, 50, 56
1, 30720, Note_off_c, 0, 55, 50
1, 30723, Note_on_c, 0, 65, 62
1, 30733, Control_c, 0, 64, 82
1, 30748, Control_c, 0, 64, 64
1, 30759, Note_on_c, 0, 62, 31
1, 30770, Control_c, 0, 64, 54
1, 30785, Control_c, 0, 64, 54
1, 30800, Control_c, 0, 64, 55
1, 30815, Control_c, 0, 64, 60
1, 30830, Control_c, 0, 64, 67
1, 30844, Control_c, 0, 64, 78
1, 30845, Note_off_c, 0, 70, 62
1, 30859, Control_c, 0, 64, 95
1, 30874, Control_c, 0, 64, 127
1, 30889, Control_c, 0, 67, 123
1, 30904, Control_c, 0, 67, 117
1, 30918, Control_c, 0, 67, 108
1, 30922, Note_on_c, 0, 53, 58
1, 30933, Control_c, 0, 67, 75
1, 30943, Note_off_c, 0, 46, 61
1, 30946, Note_off_c, 0, 65, 57
1, 30948, Control_c, 0, 67, 39
1, 30959, Note_off_c, 0, 50, 59
1, 30963, Control_c, 0, 67, 0
1, 30993, Note_off_c, 0, 62, 39
1, 30994, Note_off_c, 0, 53, 58
1, 31209, Note_on_c, 0, 74, 83
1, 31229, Note_on_c, 0, 44, 57
1, 31233, Note_on_c, 0, 50, 51
1, 31241, Note_on_c, 0, 65, 51
1, 31246, Control_c, 0, 64, 88
1, 31254, Note_on_c, 0, 62, 33
1, 31261, Control_c, 0, 64, 66
1, 31275, Control_c, 0, 64, 46
1, 31290, Control_c, 0, 64, 33
1, 31305, Control_c, 0, 64, 29
1, 31335, Control_c, 0, 64, 32
1, 31349, Control_c, 0, 64, 46
1, 31364, Control_c, 0, 64, 61
1, 31379, Control_c, 0, 64, 68
1, 31384, Note_off_c, 0, 62, 41
1, 31394, Control_c, 0, 64, 76
1, 31409, Control_c, 0, 64, 85
1, 31423, Control_c, 0, 64, 97
1, 31438, Control_c, 0, 64, 127
1, 31477, Note_off_c, 0, 65, 40
1, 31484, Note_off_c, 0, 74, 58
1, 31506, Note_on_c, 0, 53, 51
1, 31541, Note_off_c, 0, 44, 60
1, 31545, Note_off_c, 0, 50, 63
1, 31576, Note_off_c, 0, 53, 56
1, 31862, Note_on_c, 0, 74, 80
1, 31886, Note_on_c, 0, 53, 56
1, 31886, Note_on_c, 0, 67, 45
1, 31892, Note_on_c, 0, 43, 55
1, 31897, Note_on_c, 0, 62, 44
1, 31942, Note_off_c, 0, 62, 0
1, 31942, Note_on_c, 0, 62, 19
1, 31949, Control_c, 0, 64, 100
1, 31964, Control_c, 0, 64, 81
1, 31979, Control_c, 0, 64, 66
1, 31995, Control_c, 0, 64, 58
1, 32009, Control_c, 0, 64, 52
1, 32024, Control_c, 0, 64, 50
1, 32039, Control_c, 0, 64, 47
1, 32054, Control_c, 0, 64, 42
1, 32069, Control_c, 0, 64, 38
1, 32084, Control_c, 0, 64, 36
1, 32098, Control_c, 0, 64, 37
1, 32113, Control_c, 0, 64, 39
1, 32128, Control_c, 0, 64, 41
1, 32143, Control_c, 0, 64, 45
1, 32158, Control_c, 0, 64, 49
1, 32172, Control_c, 0, 64, 55
1, 32172, Control_c, 0, 67, 43
1, 32181, Note_on_c, 0, 55, 43
1, 32187, Control_c, 0, 64, 62
1, 32187, Control_c, 0, 67, 50
1, 32202, Control_c, 0, 64, 67
1, 32216, Control_c, 0, 64, 71
1, 32216, Control_c, 0, 67, 52
1, 32231, Control_c, 0, 64, 77
1, 32231, Control_c, 0, 67, 62
1, 32246, Control_c, 0, 64, 84
1, 32246, Control_c, 0, 67, 93
1, 32265, Note_off_c, 0, 55, 60
1, 32269, Control_c, 0, 64, 96
1, 32269, Control_c, 0, 67, 114
1, 32284, Control_c, 0, 64, 118
1, 32284, Control_c, 0, 67, 116
1, 32298, Control_c, 0, 64, 127
1, 32313, Control_c, 0, 67, 123
1, 32328, Control_c, 0, 67, 127
1, 32411, Note_on_c, 0, 55, 46
1, 32467, Note_off_c, 0, 55, 54
1, 32622, Note_on_c, 0, 55, 48
1, 32694, Note_off_c, 0, 55, 61
1, 32837, Note_on_c, 0, 55, 52
1, 32892, Note_off_c, 0, 55, 56
1, 32949, Note_off_c, 0, 74, 57
1, 33006, Note_off_c, 0, 67, 44
1, 33057, Note_off_c, 0, 62, 39
1, 33060, Note_on_c, 0, 55, 52
1, 33085, Note_off_c, 0, 53, 60
1, 33128, Note_off_c, 0, 43, 37
1, 33140, Note_off_c, 0, 55, 51
1, 33310, Note_on_c, 0, 72, 74
1, 33328, Note_on_c, 0, 67, 55
1, 33339, Note_on_c, 0, 43, 47
1, 33339, Note_on_c, 0, 55, 31
1, 33352, Note_on_c, 0, 51, 45
1, 33372, Control_c, 0, 64, 91
1, 33387, Control_c, 0, 64, 74
1, 33402, Control_c, 0, 64, 64
1, 33417, Control_c, 0, 64, 62
1, 33427, Note_off_c, 0, 51, 52
1, 33432, Control_c, 0, 64, 65
1, 33446, Control_c, 0, 64, 74
1, 33461, Control_c, 0, 64, 90
1, 33476, Control_c, 0, 64, 117
1, 33491, Control_c, 0, 64, 127
1, 33527, Note_off_c, 0, 55, 36
1, 33545, Note_off_c, 0, 43, 0
1, 33550, Note_on_c, 0, 71, 78
1, 33560, Note_on_c, 0, 50, 59
1, 33563, Note_on_c, 0, 59, 56
1, 33565, Note_on_c, 0, 43, 13
1, 33576, Note_off_c, 0, 67, 56
1, 33608, Note_off_c, 0, 59, 64
1, 33621, Note_off_c, 0, 43, 52
1, 33640, Control_c, 0, 67, 117
1, 33652, Note_off_c, 0, 50, 61
1, 33655, Control_c, 0, 67, 104
1, 33669, Control_c, 0, 67, 91
1, 33684, Control_c, 0, 67, 84
1, 33699, Control_c, 0, 67, 80
1, 33714, Control_c, 0, 67, 78
1, 33715, Note_off_c, 0, 72, 25
1, 33729, Control_c, 0, 67, 76
1, 33743, Control_c, 0, 67, 75
1, 33781, Control_c, 0, 67, 76
1, 33795, Control_c, 0, 67, 76
1, 33810, Control_c, 0, 67, 77
1, 33825, Control_c, 0, 67, 78
1, 33840, Control_c, 0, 67, 80
1, 33855, Control_c, 0, 67, 81
1, 33856, Note_on_c, 0, 75, 86
1, 33866, Note_on_c, 0, 48, 57
1, 33869, Control_c, 0, 67, 80
1, 33870, Note_on_c, 0, 43, 44
1, 33879, Note_on_c, 0, 67, 45
1, 33884, Control_c, 0, 64, 103
1, 33884, Control_c, 0, 67, 80
1, 33898, Note_on_c, 0, 63, 27
1, 33899, Control_c, 0, 64, 76
1, 33914, Control_c, 0, 64, 60
1, 33914, Control_c, 0, 67, 82
1, 33929, Control_c, 0, 64, 47
1, 33929, Control_c, 0, 67, 83
1, 33939, Note_off_c, 0, 71, 51
1, 33943, Control_c, 0, 64, 45
1, 33943, Control_c, 0, 67, 82
1, 33958, Control_c, 0, 67, 80
1, 33973, Control_c, 0, 64, 50
1, 33973, Control_c, 0, 67, 80
1, 33984, Note_off_c, 0, 63, 37
1, 33988, Control_c, 0, 64, 60
1, 34002, Control_c, 0, 64, 67
1, 34017, Control_c, 0, 64, 76
1, 34017, Control_c, 0, 67, 79
1, 34032, Control_c, 0, 64, 91
1, 34032, Control_c, 0, 67, 77
1, 34034, Note_off_c, 0, 67, 62
1, 34047, Control_c, 0, 64, 127
1, 34047, Control_c, 0, 67, 76
1, 34058, Note_off_c, 0, 48, 62
1, 34062, Control_c, 0, 67, 77
1, 34075, Note_on_c, 0, 55, 51
1, 34076, Control_c, 0, 67, 78
1, 34082, Note_off_c, 0, 43, 60
1, 34091, Control_c, 0, 67, 77
1, 34099, Note_off_c, 0, 75, 55
1, 34107, Control_c, 0, 67, 76
1, 34137, Control_c, 0, 67, 77
1, 34142, Note_off_c, 0, 55, 55
1, 34151, Control_c, 0, 67, 79
1, 34181, Control_c, 0, 67, 78
1, 34210, Control_c, 0, 67, 80
1, 34225, Control_c, 0, 67, 83
1, 34255, Control_c, 0, 67, 82
1, 34285, Control_c, 0, 67, 84
1, 34299, Note_on_c, 0, 43, 51
1, 34299, Note_on_c, 0, 53, 48
1, 34300, Note_on_c, 0, 74, 82
1, 34300, Control_c, 0, 67, 88
1, 34315, Control_c, 0, 67, 88
1, 34322, Note_on_c, 0, 67, 53
1, 34333, Note_on_c, 0, 62, 43
1, 34344, Control_c, 0, 64, 90
1, 34359, Control_c, 0, 64, 71
1, 34359, Control_c, 0, 67, 91
1, 34374, Control_c, 0, 64, 60
1, 34374, Control_c, 0, 67, 95
1, 34389, Control_c, 0, 64, 56
1, 34389, Control_c, 0, 67, 94
1, 34404, Control_c, 0, 67, 94
1, 34419, Control_c, 0, 64, 58
1, 34419, Control_c, 0, 67, 93
1, 34434, Control_c, 0, 64, 64
1, 34449, Control_c, 0, 64, 71
1, 34449, Control_c, 0, 67, 94
1, 34464, Control_c, 0, 64, 83
1, 34464, Control_c, 0, 67, 94
1, 34477, Note_off_c, 0, 62, 20
1, 34479, Control_c, 0, 64, 102
1, 34479, Control_c, 0, 67, 92
1, 34493, Control_c, 0, 64, 127
1, 34515, Control_c, 0, 67, 93
1, 34526, Note_on_c, 0, 55, 59
1, 34530, Control_c, 0, 67, 95
1, 34532, Note_off_c, 0, 67, 38
1, 34538, Note_off_c, 0, 53, 61
1, 34545, Control_c, 0, 67, 95
1, 34560, Control_c, 0, 67, 94
1, 34567, Note_off_c, 0, 43, 52
1, 34574, Control_c, 0, 67, 93
1, 34589, Control_c, 0, 67, 94
1, 34604, Control_c, 0, 67, 97
1, 34634, Control_c, 0, 67, 95
1, 34648, Control_c, 0, 67, 95
1, 34678, Control_c, 0, 67, 99
1, 34753, Control_c, 0, 67, 104
1, 34758, Note_on_c, 0, 72, 78
1, 34767, Control_c, 0, 64, 99
1, 34771, Note_on_c, 0, 43, 54
1, 34778, Note_on_c, 0, 51, 49
1, 34781, Note_on_c, 0, 60, 42
1, 34782, Control_c, 0, 64, 74
1, 34791, Note_on_c, 0, 67, 40
1, 34797, Control_c, 0, 64, 59
1, 34800, Note_off_c, 0, 55, 50
1, 34811, Control_c, 0, 64, 49
1, 34811, Control_c, 0, 67, 108
1, 34826, Control_c, 0, 64, 45
1, 34826, Control_c, 0, 67, 117
1, 34841, Control_c, 0, 64, 44
1, 34841, Control_c, 0, 67, 124
1, 34856, Control_c, 0, 64, 46
1, 34871, Control_c, 0, 64, 53
1, 34885, Control_c, 0, 64, 60
1, 34890, Note_off_c, 0, 74, 60
1, 34900, Control_c, 0, 64, 65
1, 34900, Control_c, 0, 67, 127
1, 34915, Control_c, 0, 64, 72
1, 34930, Control_c, 0, 64, 83
1, 34945, Control_c, 0, 64, 101
1, 34960, Control_c, 0, 64, 126
1, 34986, Note_off_c, 0, 43, 57
1, 35000, Note_on_c, 0, 55, 58
1, 35013, Note_off_c, 0, 67, 44
1, 35018, Note_off_c, 0, 51, 62
1, 35038, Note_off_c, 0, 60, 32
1, 35052, Note_off_c, 0, 55, 51
1, 35057, Note_off_c, 0, 72, 61
1, 35294, Note_on_c, 0, 72, 71
1, 35321, Note_on_c, 0, 51, 50
1, 35322, Note_on_c, 0, 69, 55
1, 35328, Note_on_c, 0, 60, 37
1, 35329, Note_on_c, 0, 42, 52
1, 35353, Control_c, 0, 64, 94
1, 35368, Control_c, 0, 64, 76
1, 35383, Control_c, 0, 64, 63
1, 35397, Control_c, 0, 64, 52
1, 35412, Control_c, 0, 64, 45
1, 35427, Control_c, 0, 64, 40
1, 35441, Control_c, 0, 64, 37
1, 35456, Control_c, 0, 64, 37
1, 35471, Control_c, 0, 64, 43
1, 35486, Control_c, 0, 64, 51
1, 35501, Control_c, 0, 64, 58
1, 35516, Control_c, 0, 64, 62
1, 35531, Control_c, 0, 64, 65
1, 35546, Control_c, 0, 64, 70
1, 35560, Control_c, 0, 64, 81
1, 35570, Note_off_c, 0, 72, 54
1, 35575, Control_c, 0, 64, 95
1, 35590, Control_c, 0, 64, 127
1, 35632, Note_off_c, 0, 69, 62
1, 35635, Note_on_c, 0, 54, 45
1, 35663, Note_off_c, 0, 51, 59
1, 35683, Note_off_c, 0, 42, 57
1, 35687, Note_off_c, 0, 54, 48
1, 35726, Note_off_c, 0, 60, 35
1, 36020, Note_on_c, 0, 72, 65
1, 36026, Note_on_c, 0, 69, 54
1, 36040, Note_on_c, 0, 41, 43
1, 36040, Note_on_c, 0, 60, 39
1, 36040, Note_on_c, 0, 65, 47
1, 36053, Note_on_c, 0, 51, 41
1, 36058, Control_c, 0, 64, 106
1, 36072, Control_c, 0, 64, 82
1, 36087, Control_c, 0, 64, 69
1, 36102, Control_c, 0, 64, 61
1, 36117, Control_c, 0, 64, 55
1, 36124, Note_off_c, 0, 65, 0
1, 36124, Note_on_c, 0, 65, 3
1, 36132, Control_c, 0, 64, 52
1, 36146, Control_c, 0, 64, 48
1, 36161, Control_c, 0, 64, 45
1, 36176, Control_c, 0, 64, 43
1, 36190, Control_c, 0, 64, 43
1, 36205, Control_c, 0, 64, 44
1, 36220, Control_c, 0, 64, 45
1, 36235, Control_c, 0, 64, 46
1, 36250, Control_c, 0, 64, 47
1, 36264, Control_c, 0, 64, 49
1, 36279, Control_c, 0, 64, 52
1, 36294, Control_c, 0, 64, 55
1, 36305, Note_on_c, 0, 53, 42
1, 36309, Control_c, 0, 64, 58
1, 36324, Control_c, 0, 64, 60
1, 36339, Control_c, 0, 64, 62
1, 36354, Control_c, 0, 64, 64
1, 36368, Control_c, 0, 64, 69
1, 36379, Note_off_c, 0, 53, 50
1, 36383, Control_c, 0, 64, 76
1, 36398, Control_c, 0, 64, 87
1, 36413, Control_c, 0, 64, 101
1, 36428, Control_c, 0, 64, 126
1, 36522, Note_on_c, 0, 53, 43
1, 36591, Note_off_c, 0, 53, 57
1, 36741, Note_on_c, 0, 53, 50
1, 36806, Note_off_c, 0, 53, 57
1, 36930, Note_off_c, 0, 60, 41
1, 36936, Note_off_c, 0, 69, 57
1, 36953, Note_off_c, 0, 65, 41
1, 36980, Note_on_c, 0, 53, 49
1, 37033, Note_off_c, 0, 53, 54
1, 37188, Note_on_c, 0, 53, 47
1, 37274, Note_off_c, 0, 51, 53
1, 37285, Note_off_c, 0, 41, 37
1, 37433, Note_on_c, 0, 70, 66
1, 37442, Control_c, 0, 64, 92
1, 37445, Note_on_c, 0, 65, 47
1, 37447, Note_on_c, 0, 50, 44
1, 37454, Note_on_c, 0, 41, 44
1, 37457, Control_c, 0, 64, 74
1, 37462, Note_off_c, 0, 53, 0
1, 37472, Note_on_c, 0, 58, 16
1, 37472, Control_c, 0, 64, 64
1, 37486, Control_c, 0, 64, 61
1, 37509, Control_c, 0, 64, 62
1, 37524, Control_c, 0, 64, 68
1, 37530, Poly_aftertouch_c, 0, 53, 0
1, 37538, Control_c, 0, 64, 83
1, 37553, Control_c, 0, 64, 127
1, 37571, Note_off_c, 0, 72, 56
1, 37580, Note_off_c, 0, 58, 37
1, 37619, Note_off_c, 0, 50, 51
1, 37620, Note_off_c, 0, 70, 63
1, 37662, Note_off_c, 0, 41, 0
1, 37688, Control_c, 0, 64, 93
1, 37690, Note_on_c, 0, 69, 70
1, 37698, Note_on_c, 0, 48, 64
1, 37699, Poly_aftertouch_c, 0, 41, 127
1, 37703, Control_c, 0, 64, 71
1, 37713, Note_on_c, 0, 57, 49
1, 37717, Control_c, 0, 64, 63
1, 37732, Control_c, 0, 64, 62
1, 37747, Control_c, 0, 64, 66
1, 37749, Note_off_c, 0, 65, 60
1, 37761, Control_c, 0, 64, 77
1, 37770, Note_off_c, 0, 57, 61
1, 37776, Control_c, 0, 64, 98
1, 37784, Note_off_c, 0, 48, 61
1, 37791, Control_c, 0, 64, 127
1, 37830, Poly_aftertouch_c, 0, 41, 0
1, 38028, Note_on_c, 0, 46, 52
1, 38032, Note_on_c, 0, 74, 72
1, 38034, Note_on_c, 0, 41, 43
1, 38043, Control_c, 0, 64, 120
1, 38044, Note_on_c, 0, 65, 41
1, 38052, Note_on_c, 0, 62, 21
1, 38058, Control_c, 0, 64, 85
1, 38073, Control_c, 0, 64, 67
1, 38088, Control_c, 0, 64, 54
1, 38102, Control_c, 0, 64, 40
1, 38117, Control_c, 0, 64, 32
1, 38132, Control_c, 0, 64, 28
1, 38161, Control_c, 0, 64, 33
1, 38176, Control_c, 0, 64, 42
1, 38191, Control_c, 0, 64, 52
1, 38196, Note_off_c, 0, 69, 25
1, 38202, Note_off_c, 0, 62, 43
1, 38206, Control_c, 0, 64, 62
1, 38221, Control_c, 0, 64, 70
1, 38235, Control_c, 0, 64, 82
1, 38241, Note_off_c, 0, 74, 65
1, 38258, Control_c, 0, 64, 106
1, 38273, Control_c, 0, 64, 127
1, 38275, Note_on_c, 0, 53, 50
1, 38285, Note_off_c, 0, 65, 62
1, 38323, Note_off_c, 0, 41, 48
1, 38329, Note_off_c, 0, 46, 49
1, 38501, Note_on_c, 0, 69, 70
1, 38522, Note_on_c, 0, 65, 51
1, 38524, Note_on_c, 0, 48, 42
1, 38525, Note_on_c, 0, 41, 40
1, 38526, Control_c, 0, 64, 106
1, 38528, Note_on_c, 0, 57, 39
1, 38540, Control_c, 0, 64, 77
1, 38555, Control_c, 0, 64, 61
1, 38567, Note_off_c, 0, 53, 21
1, 38570, Control_c, 0, 64, 48
1, 38584, Control_c, 0, 64, 44
1, 38614, Control_c, 0, 64, 46
1, 38629, Control_c, 0, 64, 54
1, 38644, Control_c, 0, 64, 61
1, 38658, Control_c, 0, 64, 66
1, 38673, Control_c, 0, 64, 73
1, 38688, Control_c, 0, 64, 85
1, 38689, Note_off_c, 0, 65, 60
1, 38703, Control_c, 0, 64, 102
1, 38711, Note_off_c, 0, 57, 42
1, 38718, Control_c, 0, 64, 127
1, 38729, Note_on_c, 0, 53, 47
1, 38749, Note_off_c, 0, 48, 59
1, 38772, Note_off_c, 0, 41, 62
1, 38981, Note_on_c, 0, 70, 68
1, 38984, Control_c, 0, 64, 88
1, 39007, Note_on_c, 0, 41, 36
1, 39007, Control_c, 0, 64, 69
1, 39007, Note_on_c, 0, 50, 40
1, 39008, Note_on_c, 0, 65, 41
1, 39009, Note_on_c, 0, 58, 40
1, 39009, Note_off_c, 0, 69, 59
1, 39021, Control_c, 0, 64, 55
1, 39036, Control_c, 0, 64, 45
1, 39051, Control_c, 0, 64, 41
1, 39057, Note_off_c, 0, 65, 0
1, 39057, Note_on_c, 0, 65, 9
1, 39064, Note_off_c, 0, 53, 33
1, 39066, Control_c, 0, 64, 35
1, 39068, Note_off_c, 0, 41, 0
1, 39068, Note_on_c, 0, 41, 17
1, 39081, Control_c, 0, 64, 0
1, 39125, Control_c, 0, 64, 37
1, 39140, Control_c, 0, 64, 54
1, 39155, Control_c, 0, 64, 63
1, 39170, Control_c, 0, 64, 66
1, 39185, Control_c, 0, 64, 69
1, 39200, Control_c, 0, 64, 73
1, 39215, Control_c, 0, 64, 80
1, 39225, Note_off_c, 0, 58, 42
1, 39230, Control_c, 0, 64, 93
1, 39245, Control_c, 0, 64, 111
1, 39253, Note_on_c, 0, 53, 40
1, 39260, Control_c, 0, 64, 127
1, 39261, Note_off_c, 0, 50, 56
1, 39284, Note_off_c, 0, 65, 42
1, 39299, Note_off_c, 0, 41, 39
1, 39348, Note_off_c, 0, 70, 38
1, 39522, Note_on_c, 0, 72, 59
1, 39533, Note_on_c, 0, 69, 53
1, 39534, Note_on_c, 0, 41, 41
1, 39548, Note_on_c, 0, 51, 40
1, 39561, Note_on_c, 0, 65, 27
1, 39570, Control_c, 0, 64, 118
1, 39582, Note_on_c, 0, 60, 20
1, 39585, Control_c, 0, 64, 89
1, 39599, Control_c, 0, 64, 70
1, 39614, Control_c, 0, 64, 56
1, 39623, Note_off_c, 0, 53, 27
1, 39629, Control_c, 0, 64, 43
1, 39644, Control_c, 0, 64, 35
1, 39659, Control_c, 0, 64, 34
1, 39688, Control_c, 0, 64, 40
1, 39703, Control_c, 0, 64, 50
1, 39718, Control_c, 0, 64, 58
1, 39732, Control_c, 0, 64, 64
1, 39747, Control_c, 0, 64, 70
1, 39770, Control_c, 0, 64, 78
1, 39785, Note_off_c, 0, 60, 44
1, 39785, Control_c, 0, 64, 87
1, 39799, Control_c, 0, 64, 97
1, 39814, Control_c, 0, 64, 108
1, 39825, Note_off_c, 0, 72, 38
1, 39829, Control_c, 0, 64, 127
1, 39860, Note_on_c, 0, 53, 40
1, 39861, Note_off_c, 0, 69, 61
1, 39898, Note_off_c, 0, 65, 41
1, 39913, Note_off_c, 0, 51, 51
1, 39942, Note_off_c, 0, 41, 40
1, 39944, Note_off_c, 0, 53, 38
1, 40288, Note_on_c, 0, 72, 52
1, 40297, Note_on_c, 0, 69, 36
1, 40297, Note_on_c, 0, 65, 32
1, 40306, Note_on_c, 0, 41, 37
1, 40309, Note_on_c, 0, 51, 36
1, 40315, Note_on_c, 0, 53, 27
1, 40318, Note_on_c, 0, 60, 33
1, 40333, Control_c, 0, 64, 123
1, 40348, Control_c, 0, 64, 97
1, 40363, Control_c, 0, 64, 86
1, 40368, Note_off_c, 0, 65, 0
1, 40368, Note_on_c, 0, 65, 3
1, 40378, Control_c, 0, 64, 75
1, 40393, Control_c, 0, 64, 65
1, 40408, Control_c, 0, 64, 58
1, 40422, Control_c, 0, 64, 52
1, 40437, Control_c, 0, 64, 49
1, 40452, Control_c, 0, 64, 45
1, 40467, Control_c, 0, 64, 41
1, 40482, Control_c, 0, 64, 36
1, 40503, Control_c, 0, 64, 33
1, 40548, Control_c, 0, 64, 34
1, 40577, Control_c, 0, 64, 34
1, 40592, Control_c, 0, 64, 35
1, 40607, Control_c, 0, 64, 38
1, 40622, Control_c, 0, 64, 40
1, 40667, Control_c, 0, 64, 41
1, 40682, Control_c, 0, 64, 44
1, 40697, Control_c, 0, 64, 48
1, 40711, Control_c, 0, 64, 49
1, 40741, Control_c, 0, 64, 50
1, 40755, Control_c, 0, 64, 52
1, 40770, Control_c, 0, 64, 56
1, 40786, Control_c, 0, 64, 58
1, 40831, Control_c, 0, 64, 59
1, 40846, Control_c, 0, 64, 61
1, 40861, Control_c, 0, 64, 64
1, 40876, Control_c, 0, 64, 65
1, 40905, Control_c, 0, 64, 66
1, 40920, Control_c, 0, 64, 68
1, 40935, Control_c, 0, 64, 73
1, 40950, Control_c, 0, 64, 83
1, 40965, Control_c, 0, 64, 99
1, 40979, Control_c, 0, 64, 127
1, 40986, Note_off_c, 0, 69, 59
1, 41015, Note_off_c, 0, 41, 46
1, 41022, Note_off_c, 0, 72, 59
1, 41039, Note_off_c, 0, 51, 41
1, 41051, Note_off_c, 0, 60, 39
1, 41522, Note_on_c, 0, 70, 36
1, 41529, Note_on_c, 0, 46, 34
1, 41536, Note_on_c, 0, 50, 31
1, 41555, Note_on_c, 0, 58, 20
1, 41609, Control_c, 0, 64, 116
1, 41624, Control_c, 0, 64, 98
1, 41639, Control_c, 0, 64, 88
1, 41642, Note_off_c, 0, 53, 37
1, 41654, Control_c, 0, 64, 80
1, 41669, Control_c, 0, 64, 74
1, 41683, Control_c, 0, 64, 67
1, 41698, Control_c, 0, 64, 62
1, 41713, Control_c, 0, 64, 58
1, 41728, Control_c, 0, 64, 58
1, 41743, Control_c, 0, 64, 57
1, 41758, Note_off_c, 0, 50, 57
1, 41758, Control_c, 0, 64, 56
1, 41773, Control_c, 0, 64, 54
1, 41779, Note_off_c, 0, 46, 63
1, 41788, Control_c, 0, 64, 53
1, 41797, Note_off_c, 0, 58, 41
1, 41802, Control_c, 0, 64, 53
1, 41841, Note_off_c, 0, 65, 41
1, 41890, Note_off_c, 0, 70, 65
1, 42017, Control_c, 0, 64, 52
1, 42091, Control_c, 0, 64, 52
1, 42106, Control_c, 0, 64, 52
1, 42121, Control_c, 0, 64, 55
1, 42135, Control_c, 0, 64, 60
1, 42150, Control_c, 0, 64, 65
1, 42154, Note_on_c, 0, 34, 43
1, 42165, Control_c, 0, 64, 70
1, 42180, Control_c, 0, 64, 76
1, 42195, Control_c, 0, 64, 85
1, 42205, Note_off_c, 0, 34, 62
1, 42209, Control_c, 0, 64, 101
1, 42224, Control_c, 0, 64, 127
1, 42551, Control_c, 0, 64, 110
1, 42566, Control_c, 0, 64, 96
1, 42581, Control_c, 0, 64, 87
1, 42596, Control_c, 0, 64, 80
1, 42610, Control_c, 0, 64, 74
1, 42625, Control_c, 0, 64, 68
1, 42640, Control_c, 0, 64, 63
1, 42655, Control_c, 0, 64, 60
1, 42670, Control_c, 0, 64, 59
1, 42685, Control_c, 0, 64, 58
1, 42699, Control_c, 0, 64, 56
1, 42714, Control_c, 0, 64, 54
1, 42729, Control_c, 0, 64, 52
1, 42751, Control_c, 0, 64, 51
1, 42825, Control_c, 0, 64, 52
1, 42840, Control_c, 0, 64, 55
1, 42855, Control_c, 0, 64, 60
1, 42859, Note_on_c, 0, 34, 29
1, 42870, Control_c, 0, 64, 63
1, 42885, Control_c, 0, 64, 65
1, 42899, Control_c, 0, 64, 66
1, 42914, Control_c, 0, 64, 71
1, 42929, Control_c, 0, 64, 82
1, 42944, Control_c, 0, 64, 96
1, 42958, Control_c, 0, 64, 110
1, 42973, Control_c, 0, 64, 127
1, 43015, Note_on_c, 0, 35, 50
1, 43041, Note_off_c, 0, 34, 43
1, 43097, Note_off_c, 0, 35, 60
1, 43144, Note_on_c, 0, 34, 41
1, 43189, Note_off_c, 0, 34, 58
1, 43223, Note_on_c, 0, 35, 42
1, 43258, Note_off_c, 0, 35, 52
1, 43290, Note_on_c, 0, 34, 55
1, 43325, Note_off_c, 0, 34, 54
1, 43346, Note_on_c, 0, 35, 59
1, 43385, Note_off_c, 0, 35, 62
1, 43426, Note_on_c, 0, 34, 35
1, 43456, Note_off_c, 0, 34, 56
1, 43470, Note_on_c, 0, 35, 56
1, 43503, Note_off_c, 0, 35, 61
1, 43563, Note_on_c, 0, 34, 20
1, 43591, Note_on_c, 0, 35, 54
1, 43607, Note_off_c, 0, 34, 0
1, 43626, Note_off_c, 0, 35, 60
1, 43637, Note_on_c, 0, 34, 36
1, 43673, Note_off_c, 0, 34, 58
1, 43708, Note_on_c, 0, 35, 50
1, 43734, Note_off_c, 0, 35, 58
1, 43755, Note_on_c, 0, 34, 57
1, 43792, Note_off_c, 0, 34, 56
1, 43810, Note_on_c, 0, 35, 61
1, 43840, Note_off_c, 0, 35, 63
1, 43867, Note_on_c, 0, 34, 61
1, 43896, Note_off_c, 0, 34, 59
1, 43919, Note_on_c, 0, 35, 61
1, 43962, Note_off_c, 0, 35, 60
1, 43980, Note_on_c, 0, 34, 56
1, 44012, Note_off_c, 0, 34, 63
1, 44033, Note_on_c, 0, 35, 57
1, 44061, Note_off_c, 0, 35, 57
1, 44087, Note_on_c, 0, 34, 54
1, 44127, Note_off_c, 0, 34, 56
1, 44131, Note_on_c, 0, 35, 68
1, 44181, Note_off_c, 0, 35, 58
1, 44206, Note_on_c, 0, 34, 57
1, 44249, Control_c, 0, 64, 116
1, 44257, Note_off_c, 0, 34, 61
1, 44264, Control_c, 0, 64, 112
1, 44273, Note_on_c, 0, 35, 55
1, 44293, Control_c, 0, 64, 108
1, 44308, Control_c, 0, 64, 104
1, 44318, Note_off_c, 0, 35, 62
1, 44323, Control_c, 0, 64, 99
1, 44337, Control_c, 0, 64, 95
1, 44352, Control_c, 0, 64, 94
1, 44359, Note_on_c, 0, 34, 47
1, 44367, Control_c, 0, 64, 93
1, 44382, Control_c, 0, 64, 91
1, 44390, Note_off_c, 0, 34, 61
1, 44397, Control_c, 0, 64, 89
1, 44411, Note_on_c, 0, 35, 61
1, 44411, Control_c, 0, 64, 87
1, 44426, Control_c, 0, 64, 85
1, 44450, Note_off_c, 0, 35, 59
1, 44456, Control_c, 0, 64, 85
1, 44471, Control_c, 0, 64, 84
1, 44473, Note_on_c, 0, 34, 62
1, 44485, Control_c, 0, 64, 81
1, 44500, Control_c, 0, 64, 78
1, 44515, Control_c, 0, 64, 76
1, 44523, Note_off_c, 0, 34, 61
1, 44530, Control_c, 0, 64, 75
1, 44540, Note_on_c, 0, 35, 62
1, 44545, Control_c, 0, 64, 74
1, 44560, Control_c, 0, 64, 74
1, 44575, Control_c, 0, 64, 72
1, 44578, Note_off_c, 0, 35, 62
1, 44590, Control_c, 0, 64, 71
1, 44604, Control_c, 0, 64, 71
1, 44605, Note_on_c, 0, 34, 56
1, 44619, Control_c, 0, 64, 70
1, 44634, Control_c, 0, 64, 69
1, 44649, Control_c, 0, 64, 67
1, 44661, Note_off_c, 0, 34, 61
1, 44664, Control_c, 0, 64, 66
1, 44678, Control_c, 0, 64, 64
1, 44679, Note_on_c, 0, 35, 56
1, 44693, Control_c, 0, 64, 63
1, 44708, Control_c, 0, 64, 62
1, 44722, Control_c, 0, 64, 61
1, 44737, Control_c, 0, 64, 58
1, 44741, Note_off_c, 0, 35, 63
1, 44752, Control_c, 0, 64, 56
1, 44767, Note_on_c, 0, 34, 57
1, 44768, Control_c, 0, 64, 54
1, 44783, Control_c, 0, 64, 53
1, 44798, Control_c, 0, 64, 51
1, 44813, Control_c, 0, 64, 50
1, 44827, Control_c, 0, 64, 48
1, 44837, Note_off_c, 0, 34, 61
1, 44842, Control_c, 0, 64, 47
1, 44852, Note_on_c, 0, 35, 65
1, 44857, Control_c, 0, 64, 45
1, 44872, Control_c, 0, 64, 44
1, 44887, Control_c, 0, 64, 43
1, 44901, Control_c, 0, 64, 41
1, 44916, Control_c, 0, 64, 38
1, 44931, Control_c, 0, 64, 38
1, 44947, Note_off_c, 0, 35, 61
1, 44962, Note_on_c, 0, 34, 57
1, 45050, Note_off_c, 0, 34, 61
1, 45060, Note_on_c, 0, 35, 68
1, 45236, Note_off_c, 0, 35, 62
1, 45241, Note_on_c, 0, 34, 53
1, 45242, Note_on_c, 0, 70, 70
1, 45294, Control_c, 0, 64, 37
1, 45412, Control_c, 0, 64, 37
1, 45419, Note_on_c, 0, 33, 40
1, 45425, Note_off_c, 0, 34, 54
1, 45531, Control_c, 0, 64, 38
1, 45545, Control_c, 0, 64, 41
1, 45591, Control_c, 0, 64, 42
1, 45596, Note_on_c, 0, 32, 43
1, 45606, Control_c, 0, 64, 47
1, 45621, Control_c, 0, 64, 56
1, 45621, Note_off_c, 0, 33, 40
1, 45636, Control_c, 0, 64, 62
1, 45650, Control_c, 0, 64, 62
1, 45665, Control_c, 0, 64, 63
1, 45680, Control_c, 0, 64, 64
1, 45694, Control_c, 0, 64, 68
1, 45709, Control_c, 0, 64, 76
1, 45724, Control_c, 0, 64, 82
1, 45746, Control_c, 0, 64, 92
1, 45761, Control_c, 0, 64, 99
1, 45776, Control_c, 0, 64, 107
1, 45791, Control_c, 0, 64, 127
1, 45799, Note_on_c, 0, 31, 38
1, 45806, Note_off_c, 0, 32, 40
1, 45818, Note_off_c, 0, 70, 61
1, 46101, Control_c, 0, 64, 114
1, 46116, Control_c, 0, 64, 80
1, 46122, Note_off_c, 0, 31, 43
1, 46131, Control_c, 0, 64, 63
1, 46134, Note_on_c, 0, 70, 60
1, 46146, Control_c, 0, 64, 49
1, 46154, Note_on_c, 0, 30, 41
1, 46161, Control_c, 0, 64, 43
1, 46176, Control_c, 0, 64, 42
1, 46190, Control_c, 0, 64, 43
1, 46205, Control_c, 0, 64, 50
1, 46220, Control_c, 0, 64, 60
1, 46235, Control_c, 0, 64, 67
1, 46250, Control_c, 0, 64, 76
1, 46259, Note_off_c, 0, 30, 55
1, 46265, Control_c, 0, 64, 88
1, 46280, Control_c, 0, 64, 100
1, 46294, Control_c, 0, 64, 123
1, 46309, Control_c, 0, 64, 127
1, 46558, Note_on_c, 0, 49, 43
1, 46684, Note_off_c, 0, 49, 31
1, 46781, Note_on_c, 0, 54, 41
1, 46980, Note_on_c, 0, 49, 40
1, 47088, Note_off_c, 0, 54, 34
1, 47150, Note_on_c, 0, 68, 58
1, 47168, Note_on_c, 0, 42, 42
1, 47190, Note_off_c, 0, 49, 0
1, 47212, Poly_aftertouch_c, 0, 49, 0
1, 47222, Note_off_c, 0, 70, 38
1, 47326, Note_on_c, 0, 49, 47
1, 47374, Note_off_c, 0, 42, 34
1, 47434, Note_off_c, 0, 49, 56
1, 47461, Note_on_c, 0, 53, 41
1, 47580, Note_off_c, 0, 53, 35
1, 47593, Note_on_c, 0, 49, 35
1, 47629, Control_c, 0, 67, 117
1, 47644, Control_c, 0, 67, 106
1, 47659, Control_c, 0, 67, 96
1, 47668, Poly_aftertouch_c, 0, 75, 127
1, 47673, Control_c, 0, 67, 84
1, 47688, Control_c, 0, 67, 71
1, 47703, Control_c, 0, 67, 60
1, 47711, Note_off_c, 0, 49, 52
1, 47718, Control_c, 0, 67, 55
1, 47724, Note_on_c, 0, 42, 42
1, 47733, Control_c, 0, 67, 52
1, 47738, Note_on_c, 0, 70, 74
1, 47747, Control_c, 0, 67, 48
1, 47762, Control_c, 0, 67, 41
1, 47777, Control_c, 0, 67, 37
1, 47792, Control_c, 0, 67, 36
1, 47807, Control_c, 0, 67, 35
1, 47821, Control_c, 0, 67, 34
1, 47854, Note_on_c, 0, 49, 47
1, 47886, Note_off_c, 0, 68, 34
1, 47896, Control_c, 0, 67, 34
1, 47900, Note_off_c, 0, 42, 30
1, 47910, Control_c, 0, 67, 0
1, 47912, Poly_aftertouch_c, 0, 75, 0
1, 47945, Note_off_c, 0, 49, 59
1, 47982, Note_on_c, 0, 54, 27
1, 48098, Note_on_c, 0, 49, 44
1, 48098, Note_off_c, 0, 54, 32
1, 48182, Note_off_c, 0, 49, 55
1, 48203, Note_on_c, 0, 71, 81
1, 48215, Note_on_c, 0, 42, 45
1, 48292, Note_off_c, 0, 42, 56
1, 48292, Note_off_c, 0, 70, 59
1, 48330, Note_on_c, 0, 49, 41
1, 48370, Note_off_c, 0, 49, 59
1, 48417, Note_on_c, 0, 56, 38
1, 48504, Note_off_c, 0, 56, 36
1, 48523, Note_on_c, 0, 49, 37
1, 48541, Control_c, 0, 67, 39
1, 48556, Control_c, 0, 67, 46
1, 48570, Control_c, 0, 67, 46
1, 48600, Control_c, 0, 67, 49
1, 48615, Control_c, 0, 67, 56
1, 48630, Control_c, 0, 67, 67
1, 48644, Control_c, 0, 67, 69
1, 48674, Control_c, 0, 67, 71
1, 48688, Control_c, 0, 67, 79
1, 48703, Control_c, 0, 67, 104
1, 48715, Note_on_c, 0, 42, 43
1, 48718, Control_c, 0, 67, 119
1, 48726, Note_on_c, 0, 73, 76
1, 48741, Control_c, 0, 67, 125
1, 48756, Control_c, 0, 67, 127
1, 48759, Note_off_c, 0, 49, 38
1, 48801, Control_c, 0, 64, 120
1, 48816, Control_c, 0, 64, 86
1, 48820, Note_off_c, 0, 71, 59
1, 48831, Control_c, 0, 64, 67
1, 48846, Control_c, 0, 64, 56
1, 48861, Control_c, 0, 64, 49
1, 48875, Control_c, 0, 64, 45
1, 48890, Control_c, 0, 64, 43
1, 48894, Note_on_c, 0, 49, 38
1, 48919, Control_c, 0, 64, 48
1, 48934, Control_c, 0, 64, 60
1, 48949, Control_c, 0, 64, 70
1, 48964, Control_c, 0, 64, 84
1, 48979, Control_c, 0, 64, 103
1, 48990, Note_off_c, 0, 42, 38
1, 48993, Control_c, 0, 64, 127
1, 49022, Note_off_c, 0, 49, 59
1, 49049, Note_on_c, 0, 58, 40
1, 49102, Note_off_c, 0, 58, 48
1, 49162, Note_on_c, 0, 49, 42
1, 49225, Note_off_c, 0, 49, 52
1, 49261, Note_on_c, 0, 42, 46
1, 49322, Note_off_c, 0, 42, 54
1, 49367, Note_on_c, 0, 49, 35
1, 49415, Note_off_c, 0, 49, 58
1, 49460, Note_on_c, 0, 58, 44
1, 49595, Note_off_c, 0, 58, 41
1, 49611, Note_on_c, 0, 49, 31
1, 49669, Note_off_c, 0, 49, 55
1, 49680, Note_on_c, 0, 42, 50
1, 49759, Note_off_c, 0, 42, 58
1, 49794, Note_on_c, 0, 49, 45
1, 49867, Note_off_c, 0, 49, 55
1, 49896, Note_on_c, 0, 58, 53
1, 50003, Note_off_c, 0, 58, 56
1, 50042, Note_on_c, 0, 49, 44
1, 50160, Note_on_c, 0, 71, 72
1, 50196, Note_off_c, 0, 49, 56
1, 50203, Note_on_c, 0, 42, 48
1, 50328, Control_c, 0, 67, 121
1, 50332, Note_off_c, 0, 42, 53
1, 50340, Note_on_c, 0, 49, 47
1, 50342, Control_c, 0, 67, 113
1, 50357, Control_c, 0, 67, 101
1, 50373, Control_c, 0, 67, 83
1, 50388, Control_c, 0, 67, 65
1, 50403, Control_c, 0, 67, 54
1, 50406, Note_off_c, 0, 73, 57
1, 50410, Note_on_c, 0, 70, 70
1, 50417, Control_c, 0, 67, 53
1, 50432, Control_c, 0, 67, 50
1, 50440, Note_on_c, 0, 54, 46
1, 50447, Control_c, 0, 67, 42
1, 50450, Note_off_c, 0, 49, 59
1, 50462, Control_c, 0, 67, 0
1, 50478, Note_off_c, 0, 71, 61
1, 50539, Note_off_c, 0, 54, 27
1, 50638, Control_c, 0, 67, 35
1, 50668, Control_c, 0, 67, 34
1, 50698, Control_c, 0, 67, 35
1, 50704, Note_on_c, 0, 42, 45
1, 50713, Control_c, 0, 67, 37
1, 50715, Note_on_c, 0, 75, 77
1, 50742, Control_c, 0, 67, 36
1, 50772, Control_c, 0, 64, 93
1, 50772, Control_c, 0, 67, 39
1, 50787, Control_c, 0, 64, 68
1, 50787, Control_c, 0, 67, 42
1, 50797, Note_off_c, 0, 70, 58
1, 50802, Control_c, 0, 64, 51
1, 50817, Control_c, 0, 64, 40
1, 50832, Control_c, 0, 64, 39
1, 50832, Control_c, 0, 67, 41
1, 50846, Control_c, 0, 64, 39
1, 50861, Control_c, 0, 64, 49
1, 50861, Control_c, 0, 67, 41
1, 50876, Control_c, 0, 64, 61
1, 50876, Control_c, 0, 67, 39
1, 50890, Control_c, 0, 64, 71
1, 50890, Control_c, 0, 67, 37
1, 50893, Note_on_c, 0, 51, 48
1, 50905, Control_c, 0, 64, 88
1, 50905, Control_c, 0, 67, 35
1, 50920, Control_c, 0, 64, 127
1, 50920, Control_c, 0, 67, 35
1, 50921, Note_off_c, 0, 42, 55
1, 50935, Control_c, 0, 67, 34
1, 50950, Control_c, 0, 67, 0
1, 51018, Note_off_c, 0, 75, 57
1, 51018, Note_off_c, 0, 51, 60
1, 51039, Note_on_c, 0, 59, 52
1, 51086, Note_off_c, 0, 59, 58
1, 51148, Note_on_c, 0, 51, 52
1, 51225, Note_on_c, 0, 75, 84
1, 51249, Note_off_c, 0, 51, 58
1, 51261, Note_on_c, 0, 42, 58
1, 51326, Note_off_c, 0, 42, 59
1, 51368, Note_on_c, 0, 51, 57
1, 51416, Note_off_c, 0, 51, 53
1, 51434, Note_off_c, 0, 75, 56
1, 51454, Note_on_c, 0, 59, 61
1, 51511, Note_off_c, 0, 59, 58
1, 51575, Note_on_c, 0, 51, 50
1, 51736, Note_on_c, 0, 75, 76
1, 51750, Note_off_c, 0, 51, 55
1, 51751, Note_on_c, 0, 42, 55
1, 51850, Note_off_c, 0, 42, 57
1, 51888, Note_on_c, 0, 51, 52
1, 51989, Note_off_c, 0, 51, 61
1, 52004, Note_on_c, 0, 59, 51
1, 52116, Note_off_c, 0, 59, 38
1, 52131, Note_on_c, 0, 51, 50
1, 52273, Note_on_c, 0, 77, 73
1, 52293, Note_on_c, 0, 42, 50
1, 52315, Note_off_c, 0, 51, 42
1, 52361, Note_off_c, 0, 75, 61
1, 52389, Note_off_c, 0, 42, 56
1, 52418, Note_on_c, 0, 51, 47
1, 52570, Note_on_c, 0, 78, 81
1, 52588, Note_off_c, 0, 51, 55
1, 52598, Note_on_c, 0, 59, 52
1, 52623, Note_off_c, 0, 77, 62
1, 52683, Note_off_c, 0, 59, 54
1, 52730, Note_on_c, 0, 51, 52
1, 52841, Control_c, 0, 67, 54
1, 52856, Control_c, 0, 67, 65
1, 52885, Control_c, 0, 67, 68
1, 52900, Control_c, 0, 67, 72
1, 52915, Control_c, 0, 67, 83
1, 52930, Control_c, 0, 67, 88
1, 52940, Note_off_c, 0, 78, 36
1, 52942, Note_on_c, 0, 73, 72
1, 52959, Control_c, 0, 67, 90
1, 52972, Note_on_c, 0, 42, 39
1, 52974, Control_c, 0, 67, 94
1, 52989, Control_c, 0, 67, 112
1, 53004, Control_c, 0, 67, 122
1, 53019, Note_off_c, 0, 51, 42
1, 53019, Control_c, 0, 64, 111
1, 53033, Control_c, 0, 64, 85
1, 53033, Control_c, 0, 67, 124
1, 53048, Control_c, 0, 64, 68
1, 53048, Control_c, 0, 67, 127
1, 53063, Control_c, 0, 64, 56
1, 53077, Control_c, 0, 64, 48
1, 53092, Control_c, 0, 64, 47
1, 53107, Control_c, 0, 64, 48
1, 53122, Control_c, 0, 64, 54
1, 53137, Control_c, 0, 64, 61
1, 53151, Control_c, 0, 64, 68
1, 53166, Control_c, 0, 64, 77
1, 53181, Control_c, 0, 64, 87
1, 53185, Note_on_c, 0, 49, 44
1, 53196, Control_c, 0, 64, 96
1, 53210, Note_off_c, 0, 42, 38
1, 53211, Control_c, 0, 64, 126
1, 53276, Note_off_c, 0, 49, 60
1, 53294, Note_on_c, 0, 58, 48
1, 53389, Note_off_c, 0, 58, 57
1, 53411, Note_on_c, 0, 49, 45
1, 53520, Note_off_c, 0, 49, 52
1, 53524, Note_on_c, 0, 42, 48
1, 53625, Note_off_c, 0, 42, 59
1, 53666, Note_on_c, 0, 49, 42
1, 53717, Note_off_c, 0, 49, 57
1, 53750, Note_on_c, 0, 58, 44
1, 53837, Note_off_c, 0, 58, 60
1, 53890, Note_on_c, 0, 49, 36
1, 53938, Note_off_c, 0, 49, 56
1, 53951, Note_on_c, 0, 42, 41
1, 54047, Note_off_c, 0, 42, 58
1, 54082, Note_on_c, 0, 49, 41
1, 54150, Note_off_c, 0, 49, 50
1, 54195, Note_on_c, 0, 58, 36
1, 54293, Note_off_c, 0, 58, 36
1, 54317, Note_on_c, 0, 49, 38
1, 54462, Note_on_c, 0, 71, 65
1, 54474, Note_on_c, 0, 42, 45
1, 54501, Note_off_c, 0, 49, 34
1, 54627, Note_on_c, 0, 49, 47
1, 54665, Note_off_c, 0, 42, 41
1, 54694, Note_on_c, 0, 70, 66
1, 54727, Note_off_c, 0, 49, 57
1, 54732, Note_on_c, 0, 54, 35
1, 54758, Note_off_c, 0, 71, 54
1, 54882, Note_off_c, 0, 54, 29
1, 54898, Note_on_c, 0, 49, 23
1, 54970, Note_on_c, 0, 42, 47
1, 54971, Note_off_c, 0, 49, 53
1, 54983, Note_on_c, 0, 71, 69
1, 55056, Control_c, 0, 64, 81
1, 55071, Control_c, 0, 64, 63
1, 55076, Note_off_c, 0, 73, 59
1, 55086, Control_c, 0, 64, 52
1, 55101, Control_c, 0, 64, 51
1, 55116, Control_c, 0, 64, 53
1, 55130, Note_on_c, 0, 51, 52
1, 55130, Control_c, 0, 64, 59
1, 55145, Control_c, 0, 64, 69
1, 55161, Control_c, 0, 64, 80
1, 55176, Control_c, 0, 64, 95
1, 55184, Note_off_c, 0, 42, 40
1, 55191, Control_c, 0, 64, 111
1, 55206, Control_c, 0, 64, 127
1, 55236, Note_off_c, 0, 51, 58
1, 55253, Note_on_c, 0, 59, 54
1, 55318, Note_off_c, 0, 59, 53
1, 55366, Note_on_c, 0, 51, 49
1, 55425, Note_off_c, 0, 51, 46
1, 55437, Note_on_c, 0, 75, 78
1, 55466, Note_on_c, 0, 42, 57
1, 55553, Note_off_c, 0, 42, 59
1, 55554, Control_c, 0, 67, 117
1, 55561, Note_off_c, 0, 70, 40
1, 55568, Control_c, 0, 67, 103
1, 55573, Note_off_c, 0, 71, 58
1, 55583, Control_c, 0, 67, 84
1, 55589, Note_on_c, 0, 51, 50
1, 55598, Control_c, 0, 67, 67
1, 55613, Control_c, 0, 67, 53
1, 55628, Control_c, 0, 67, 42
1, 55642, Note_off_c, 0, 51, 55
1, 55643, Control_c, 0, 67, 33
1, 55658, Control_c, 0, 67, 0
1, 55684, Note_on_c, 0, 59, 54
1, 55747, Note_off_c, 0, 59, 60
1, 55776, Note_on_c, 0, 51, 52
1, 55888, Note_on_c, 0, 68, 72
1, 55911, Note_on_c, 0, 42, 48
1, 55920, Note_off_c, 0, 51, 58
1, 56029, Control_c, 0, 64, 94
1, 56044, Control_c, 0, 64, 73
1, 56047, Note_on_c, 0, 49, 55
1, 56058, Control_c, 0, 64, 62
1, 56073, Control_c, 0, 64, 58
1, 56088, Control_c, 0, 64, 59
1, 56102, Control_c, 0, 64, 63
1, 56117, Control_c, 0, 64, 72
1, 56132, Control_c, 0, 64, 91
1, 56147, Note_off_c, 0, 49, 61
1, 56147, Control_c, 0, 64, 127
1, 56148, Note_on_c, 0, 53, 54
1, 56271, Note_off_c, 0, 42, 40
1, 56277, Note_off_c, 0, 53, 53
1, 56283, Note_on_c, 0, 49, 50
1, 56319, Note_on_c, 0, 71, 82
1, 56349, Note_off_c, 0, 49, 57
1, 56361, Note_on_c, 0, 42, 57
1, 56370, Note_off_c, 0, 75, 62
1, 56373, Note_off_c, 0, 68, 61
1, 56466, Note_on_c, 0, 49, 52
1, 56493, Note_off_c, 0, 42, 37
1, 56515, Note_off_c, 0, 49, 60
1, 56560, Note_on_c, 0, 56, 57
1, 56624, Note_off_c, 0, 56, 41
1, 56650, Note_on_c, 0, 49, 53
1, 56803, Note_on_c, 0, 70, 78
1, 56804, Note_on_c, 0, 42, 63
1, 56806, Note_off_c, 0, 49, 60
1, 56851, Control_c, 0, 64, 94
1, 56866, Control_c, 0, 64, 70
1, 56876, Note_off_c, 0, 71, 61
1, 56881, Control_c, 0, 64, 54
1, 56896, Control_c, 0, 64, 49
1, 56922, Note_on_c, 0, 49, 62
1, 56940, Control_c, 0, 64, 53
1, 56955, Control_c, 0, 64, 58
1, 56978, Control_c, 0, 64, 62
1, 56981, Note_off_c, 0, 42, 54
1, 56993, Control_c, 0, 64, 68
1, 57007, Control_c, 0, 64, 79
1, 57022, Control_c, 0, 64, 102
1, 57030, Note_off_c, 0, 49, 62
1, 57034, Note_on_c, 0, 58, 56
1, 57037, Control_c, 0, 64, 127
1, 57122, Note_off_c, 0, 58, 56
1, 57164, Note_on_c, 0, 49, 55
1, 57333, Note_on_c, 0, 78, 82
1, 57343, Note_on_c, 0, 42, 51
1, 57372, Note_on_c, 0, 66, 11
1, 57372, Note_off_c, 0, 49, 40
1, 57420, Note_off_c, 0, 66, 52
1, 57441, Note_off_c, 0, 42, 59
1, 57473, Note_on_c, 0, 49, 52
1, 57491, Note_off_c, 0, 70, 60
1, 57560, Note_off_c, 0, 49, 52
1, 57573, Note_on_c, 0, 58, 51
1, 57601, Control_c, 0, 67, 42
1, 57616, Control_c, 0, 67, 78
1, 57631, Control_c, 0, 67, 90
1, 57646, Control_c, 0, 67, 89
1, 57651, Note_off_c, 0, 58, 55
1, 57661, Control_c, 0, 67, 90
1, 57675, Control_c, 0, 67, 96
1, 57690, Control_c, 0, 67, 117
1, 57701, Note_on_c, 0, 49, 55
1, 57705, Control_c, 0, 67, 127
1, 57843, Note_on_c, 0, 42, 48
1, 57877, Note_off_c, 0, 49, 33
1, 57974, Note_off_c, 0, 42, 54
1, 57999, Note_on_c, 0, 49, 44
1, 58066, Note_on_c, 0, 77, 77
1, 58074, Note_off_c, 0, 49, 59
1, 58084, Note_off_c, 0, 78, 63
1, 58106, Note_on_c, 0, 65, 41
1, 58108, Note_on_c, 0, 58, 36
1, 58136, Note_off_c, 0, 65, 53
1, 58170, Note_off_c, 0, 58, 39
1, 58214, Note_on_c, 0, 49, 53
1, 58257, Note_off_c, 0, 49, 56
1, 58340, Note_on_c, 0, 75, 80
1, 58341, Note_on_c, 0, 42, 58
1, 58358, Note_on_c, 0, 63, 41
1, 58385, Note_off_c, 0, 63, 54
1, 58388, Note_off_c, 0, 77, 43
1, 58455, Note_off_c, 0, 42, 51
1, 58486, Note_on_c, 0, 49, 41
1, 58530, Note_off_c, 0, 49, 58
1, 58579, Note_on_c, 0, 73, 75
1, 58582, Note_on_c, 0, 58, 28
1, 58594, Note_on_c, 0, 61, 49
1, 58608, Note_off_c, 0, 75, 61
1, 58626, Note_off_c, 0, 58, 48
1, 58647, Note_on_c, 0, 49, 44
1, 58671, Note_off_c, 0, 61, 55
1, 58675, Note_off_c, 0, 73, 63
1, 58830, Note_on_c, 0, 42, 52
1, 58835, Note_on_c, 0, 71, 72
1, 58845, Control_c, 0, 64, 113
1, 58860, Control_c, 0, 64, 76
1, 58870, Note_off_c, 0, 49, 55
1, 58875, Control_c, 0, 64, 59
1, 58890, Control_c, 0, 64, 47
1, 58904, Control_c, 0, 64, 44
1, 58934, Control_c, 0, 64, 49
1, 58949, Control_c, 0, 64, 59
1, 58964, Control_c, 0, 64, 66
1, 58979, Control_c, 0, 64, 72
1, 58987, Note_on_c, 0, 51, 53
1, 58993, Note_off_c, 0, 42, 49
1, 58993, Control_c, 0, 64, 79
1, 59008, Control_c, 0, 64, 86
1, 59023, Control_c, 0, 64, 94
1, 59038, Control_c, 0, 64, 107
1, 59053, Control_c, 0, 64, 127
1, 59085, Note_off_c, 0, 51, 56
1, 59102, Note_on_c, 0, 59, 46
1, 59173, Note_off_c, 0, 59, 57
1, 59234, Note_on_c, 0, 51, 52
1, 59320, Note_off_c, 0, 51, 48
1, 59360, Note_on_c, 0, 75, 68
1, 59361, Note_on_c, 0, 42, 48
1, 59364, Note_off_c, 0, 71, 62
1, 59439, Note_off_c, 0, 42, 55
1, 59467, Note_on_c, 0, 51, 47
1, 59572, Note_off_c, 0, 51, 54
1, 59602, Note_on_c, 0, 59, 49
1, 59680, Note_off_c, 0, 59, 58
1, 59717, Note_on_c, 0, 51, 47
1, 59868, Note_off_c, 0, 51, 52
1, 59876, Note_on_c, 0, 68, 58
1, 59889, Note_on_c, 0, 42, 45
1, 59935, Control_c, 0, 64, 101
1, 59950, Control_c, 0, 64, 79
1, 59973, Control_c, 0, 64, 65
1, 59988, Control_c, 0, 64, 55
1, 60003, Control_c, 0, 64, 47
1, 60018, Control_c, 0, 64, 40
1, 60032, Control_c, 0, 64, 35
1, 60047, Control_c, 0, 64, 32
1, 60049, Note_on_c, 0, 49, 39
1, 60062, Control_c, 0, 64, 34
1, 60076, Control_c, 0, 64, 43
1, 60091, Control_c, 0, 64, 55
1, 60106, Control_c, 0, 64, 65
1, 60121, Control_c, 0, 64, 73
1, 60128, Note_off_c, 0, 49, 57
1, 60136, Control_c, 0, 64, 79
1, 60150, Control_c, 0, 64, 83
1, 60161, Note_on_c, 0, 53, 34
1, 60165, Control_c, 0, 64, 87
1, 60180, Control_c, 0, 64, 93
1, 60195, Control_c, 0, 64, 100
1, 60210, Control_c, 0, 64, 109
1, 60225, Control_c, 0, 64, 126
1, 60272, Note_off_c, 0, 42, 40
1, 60279, Note_on_c, 0, 49, 39
1, 60346, Note_off_c, 0, 53, 40
1, 60406, Note_off_c, 0, 49, 50
1, 60436, Note_on_c, 0, 42, 36
1, 60436, Note_on_c, 0, 70, 57
1, 60509, Note_off_c, 0, 75, 2
1, 60522, Control_c, 0, 64, 97
1, 60537, Control_c, 0, 64, 78
1, 60551, Control_c, 0, 64, 65
1, 60566, Control_c, 0, 64, 60
1, 60572, Note_on_c, 0, 49, 32
1, 60581, Control_c, 0, 64, 60
1, 60595, Control_c, 0, 64, 62
1, 60609, Note_off_c, 0, 68, 28
1, 60610, Control_c, 0, 64, 67
1, 60625, Control_c, 0, 64, 74
1, 60640, Control_c, 0, 64, 84
1, 60655, Control_c, 0, 64, 91
1, 60669, Control_c, 0, 64, 95
1, 60684, Control_c, 0, 64, 99
1, 60690, Note_off_c, 0, 49, 59
1, 60699, Control_c, 0, 64, 105
1, 60709, Note_on_c, 0, 56, 45
1, 60722, Control_c, 0, 64, 123
1, 60734, Note_off_c, 0, 42, 28
1, 60737, Control_c, 0, 64, 127
1, 60755, Note_on_c, 0, 71, 56
1, 60786, Note_off_c, 0, 70, 58
1, 60841, Note_on_c, 0, 49, 43
1, 60976, Note_off_c, 0, 56, 38
1, 61062, Note_off_c, 0, 71, 58
1, 61074, Note_on_c, 0, 70, 52
1, 61093, Control_c, 0, 64, 93
1, 61101, Note_on_c, 0, 42, 35
1, 61107, Control_c, 0, 64, 74
1, 61122, Control_c, 0, 64, 62
1, 61137, Control_c, 0, 64, 55
1, 61145, Note_off_c, 0, 49, 41
1, 61152, Control_c, 0, 64, 53
1, 61167, Control_c, 0, 64, 52
1, 61196, Control_c, 0, 64, 56
1, 61211, Control_c, 0, 64, 60
1, 61226, Control_c, 0, 64, 64
1, 61241, Control_c, 0, 64, 69
1, 61256, Control_c, 0, 64, 77
1, 61271, Control_c, 0, 64, 87
1, 61275, Note_off_c, 0, 42, 37
1, 61286, Control_c, 0, 64, 92
1, 61300, Control_c, 0, 64, 97
1, 61304, Note_on_c, 0, 58, 46
1, 61315, Control_c, 0, 64, 104
1, 61330, Control_c, 0, 64, 120
1, 61345, Control_c, 0, 64, 127
1, 61471, Note_off_c, 0, 58, 50
1, 61491, Note_on_c, 0, 73, 44
1, 61507, Note_on_c, 0, 54, 30
1, 61564, Note_off_c, 0, 70, 50
1, 61581, Note_off_c, 0, 54, 44
1, 61628, Note_on_c, 0, 58, 38
1, 61748, Note_off_c, 0, 58, 45
1, 61754, Note_on_c, 0, 82, 62
1, 61764, Note_on_c, 0, 54, 31
1, 61777, Note_off_c, 0, 73, 59
1, 61839, Note_off_c, 0, 54, 57
1, 61882, Note_on_c, 0, 58, 44
1, 61940, Note_off_c, 0, 58, 51
1, 61965, Note_on_c, 0, 54, 45
1, 61972, Note_on_c, 0, 78, 64
1, 62007, Note_off_c, 0, 54, 61
1, 62031, Note_off_c, 0, 82, 49
1, 62062, Note_on_c, 0, 58, 36
1, 62109, Note_off_c, 0, 58, 48
1, 62177, Note_on_c, 0, 42, 48
1, 62190, Note_on_c, 0, 73, 58
1, 62252, Note_off_c, 0, 42, 60
1, 62271, Note_off_c, 0, 78, 49
1, 62340, Note_on_c, 0, 58, 37
1, 62412, Note_off_c, 0, 58, 41
1, 62439, Note_on_c, 0, 70, 52
1, 62439, Note_off_c, 0, 73, 55
1, 62451, Note_on_c, 0, 54, 32
1, 62509, Note_off_c, 0, 54, 52
1, 62551, Note_on_c, 0, 58, 47
1, 62630, Note_on_c, 0, 78, 60
1, 62634, Note_off_c, 0, 58, 54
1, 62660, Note_on_c, 0, 54, 45
1, 62745, Note_off_c, 0, 54, 59
1, 62765, Note_on_c, 0, 58, 48
1, 62836, Note_off_c, 0, 58, 60
1, 62845, Note_on_c, 0, 74, 64
1, 62866, Note_on_c, 0, 54, 53
1, 62872, Note_off_c, 0, 70, 15
1, 62878, Note_off_c, 0, 78, 55
1, 62895, Note_off_c, 0, 54, 65
1, 62946, Note_on_c, 0, 58, 41
1, 62997, Note_off_c, 0, 58, 45
1, 63069, Note_on_c, 0, 75, 73
1, 63070, Note_on_c, 0, 42, 62
1, 63071, Control_c, 0, 64, 98
1, 63086, Control_c, 0, 64, 72
1, 63101, Control_c, 0, 64, 60
1, 63104, Note_off_c, 0, 74, 53
1, 63116, Control_c, 0, 64, 57
1, 63130, Control_c, 0, 64, 59
1, 63145, Note_off_c, 0, 42, 62
1, 63146, Control_c, 0, 64, 65
1, 63161, Control_c, 0, 64, 79
1, 63176, Control_c, 0, 64, 110
1, 63191, Control_c, 0, 64, 127
1, 63215, Note_on_c, 0, 59, 55
1, 63261, Note_off_c, 0, 59, 59
1, 63295, Note_on_c, 0, 54, 43
1, 63322, Note_off_c, 0, 75, 60
1, 63324, Note_on_c, 0, 71, 65
1, 63331, Note_off_c, 0, 54, 60
1, 63384, Note_on_c, 0, 59, 49
1, 63461, Note_off_c, 0, 59, 57
1, 63501, Note_off_c, 0, 71, 54
1, 63512, Note_on_c, 0, 54, 51
1, 63525, Note_on_c, 0, 84, 57
1, 63539, Note_on_c, 0, 83, 62
1, 63560, Control_c, 0, 67, 122
1, 63563, Note_off_c, 0, 54, 56
1, 63575, Control_c, 0, 67, 108
1, 63590, Control_c, 0, 67, 101
1, 63591, Note_on_c, 0, 59, 58
1, 63603, Note_off_c, 0, 83, 0
1, 63603, Note_on_c, 0, 83, 11
1, 63605, Control_c, 0, 67, 97
1, 63623, Note_on_c, 0, 82, 27
1, 63632, Note_off_c, 0, 84, 59
1, 63679, Note_off_c, 0, 59, 59
1, 63687, Note_on_c, 0, 54, 59
1, 63742, Note_on_c, 0, 80, 78
1, 63754, Note_off_c, 0, 83, 56
1, 63780, Note_off_c, 0, 54, 60
1, 63783, Note_off_c, 0, 82, 56
1, 63790, Control_c, 0, 67, 103
1, 63794, Note_on_c, 0, 59, 58
1, 63831, Note_off_c, 0, 59, 62
1, 63834, Control_c, 0, 67, 101
1, 63864, Control_c, 0, 67, 105
1, 63932, Note_on_c, 0, 42, 65
1, 63934, Note_on_c, 0, 77, 76
1, 63939, Control_c, 0, 67, 112
1, 63945, Note_off_c, 0, 80, 58
1, 63998, Control_c, 0, 67, 117
1, 64013, Control_c, 0, 64, 97
1, 64013, Control_c, 0, 67, 122
1, 64028, Control_c, 0, 64, 75
1, 64031, Note_off_c, 0, 42, 64
1, 64043, Control_c, 0, 64, 67
1, 64057, Control_c, 0, 64, 66
1, 64072, Control_c, 0, 64, 68
1, 64072, Control_c, 0, 67, 124
1, 64076, Note_on_c, 0, 59, 64
1, 64087, Control_c, 0, 64, 77
1, 64087, Control_c, 0, 67, 127
1, 64102, Control_c, 0, 64, 99
1, 64116, Control_c, 0, 64, 127
1, 64135, Note_off_c, 0, 59, 53
1, 64149, Note_on_c, 0, 80, 69
1, 64166, Note_on_c, 0, 54, 57
1, 64210, Note_off_c, 0, 54, 52
1, 64290, Note_on_c, 0, 59, 44
1, 64345, Note_off_c, 0, 77, 54
1, 64356, Note_off_c, 0, 59, 52
1, 64361, Note_on_c, 0, 85, 74
1, 64395, Note_on_c, 0, 54, 40
1, 64398, Note_off_c, 0, 80, 60
1, 64437, Note_off_c, 0, 54, 58
1, 64493, Note_on_c, 0, 59, 39
1, 64559, Note_off_c, 0, 59, 54
1, 64579, Note_on_c, 0, 54, 41
1, 64586, Note_on_c, 0, 81, 63
1, 64626, Note_off_c, 0, 85, 56
1, 64631, Note_off_c, 0, 54, 58
1, 64782, Note_on_c, 0, 42, 57
1, 64800, Note_on_c, 0, 82, 64
1, 64803, Note_off_c, 0, 81, 55
1, 64821, Control_c, 0, 64, 92
1, 64836, Control_c, 0, 64, 69
1, 64851, Control_c, 0, 64, 55
1, 64865, Control_c, 0, 64, 53
1, 64880, Control_c, 0, 64, 54
1, 64885, Note_off_c, 0, 42, 56
1, 64895, Control_c, 0, 64, 59
1, 64910, Control_c, 0, 64, 66
1, 64920, Note_on_c, 0, 58, 48
1, 64925, Control_c, 0, 64, 76
1, 64939, Control_c, 0, 64, 92
1, 64954, Control_c, 0, 64, 105
1, 64969, Control_c, 0, 64, 127
1, 65001, Note_off_c, 0, 58, 58
1, 65012, Note_on_c, 0, 54, 49
1, 65025, Note_on_c, 0, 78, 54
1, 65031, Note_off_c, 0, 82, 57
1, 65093, Note_off_c, 0, 54, 56
1, 65140, Note_on_c, 0, 58, 45
1, 65192, Note_off_c, 0, 58, 53
1, 65227, Note_on_c, 0, 54, 54
1, 65230, Note_on_c, 0, 82, 60
1, 65238, Note_off_c, 0, 78, 36
1, 65268, Note_off_c, 0, 54, 53
1, 65320, Note_off_c, 0, 82, 57
1, 65324, Note_on_c, 0, 58, 52
1, 65338, Note_on_c, 0, 78, 58
1, 65384, Note_off_c, 0, 58, 55
1, 65384, Note_off_c, 0, 78, 53
1, 65420, Note_on_c, 0, 54, 47
1, 65432, Note_on_c, 0, 82, 57
1, 65468, Note_off_c, 0, 54, 56
1, 65504, Note_on_c, 0, 58, 57
1, 65516, Note_on_c, 0, 78, 58
1, 65525, Note_off_c, 0, 82, 53
1, 65543, Note_off_c, 0, 58, 56
1, 65608, Note_off_c, 0, 78, 60
1, 65626, Note_on_c, 0, 42, 61
1, 65629, Control_c, 0, 64, 92
1, 65632, Note_on_c, 0, 73, 62
1, 65644, Control_c, 0, 64, 72
1, 65659, Control_c, 0, 64, 62
1, 65674, Control_c, 0, 64, 60
1, 65677, Note_off_c, 0, 42, 59
1, 65688, Control_c, 0, 64, 62
1, 65691, Note_off_c, 0, 73, 49
1, 65703, Control_c, 0, 64, 68
1, 65718, Control_c, 0, 64, 82
1, 65728, Note_on_c, 0, 58, 50
1, 65733, Control_c, 0, 64, 117
1, 65744, Note_on_c, 0, 70, 59
1, 65748, Control_c, 0, 64, 127
1, 65790, Note_off_c, 0, 70, 59
1, 65796, Note_off_c, 0, 58, 56
1, 65818, Note_on_c, 0, 54, 52
1, 65829, Note_on_c, 0, 73, 61
1, 65863, Note_off_c, 0, 54, 59
1, 65881, Note_off_c, 0, 73, 58
1, 65918, Note_on_c, 0, 58, 57
1, 65918, Note_on_c, 0, 70, 63
1, 66001, Note_off_c, 0, 58, 56
1, 66013, Note_off_c, 0, 70, 49
1, 66030, Note_on_c, 0, 78, 68
1, 66031, Note_on_c, 0, 54, 60
1, 66086, Note_off_c, 0, 54, 51
1, 66110, Control_c, 0, 64, 98
1, 66120, Note_on_c, 0, 58, 63
1, 66124, Note_off_c, 0, 78, 59
1, 66125, Control_c, 0, 64, 80
1, 66126, Note_on_c, 0, 74, 69
1, 66139, Control_c, 0, 64, 68
1, 66154, Control_c, 0, 64, 61
1, 66169, Control_c, 0, 64, 57
1, 66184, Control_c, 0, 64, 55
1, 66188, Note_off_c, 0, 58, 58
1, 66199, Control_c, 0, 64, 54
1, 66204, Note_on_c, 0, 54, 58
1, 66206, Note_off_c, 0, 74, 60
1, 66213, Control_c, 0, 64, 51
1, 66218, Note_on_c, 0, 78, 68
1, 66228, Control_c, 0, 64, 50
1, 66243, Control_c, 0, 64, 49
1, 66273, Control_c, 0, 64, 49
1, 66285, Note_off_c, 0, 54, 58
1, 66288, Control_c, 0, 64, 46
1, 66300, Note_off_c, 0, 78, 57
1, 66302, Note_on_c, 0, 58, 55
1, 66303, Control_c, 0, 64, 42
1, 66305, Note_on_c, 0, 74, 76
1, 66318, Control_c, 0, 64, 37
1, 66333, Control_c, 0, 64, 34
1, 66348, Control_c, 0, 64, 30
1, 66351, Note_off_c, 0, 58, 61
1, 66363, Control_c, 0, 64, 0
1, 66377, Note_off_c, 0, 74, 54
1, 66392, Control_c, 0, 64, 28
1, 66394, Note_on_c, 0, 42, 65
1, 66395, Note_on_c, 0, 75, 72
1, 66407, Control_c, 0, 64, 42
1, 66422, Control_c, 0, 64, 60
1, 66427, Note_off_c, 0, 42, 64
1, 66437, Control_c, 0, 64, 73
1, 66452, Control_c, 0, 64, 87
1, 66467, Control_c, 0, 64, 100
1, 66468, Note_off_c, 0, 75, 55
1, 66481, Control_c, 0, 64, 105
1, 66496, Control_c, 0, 64, 117
1, 66508, Note_on_c, 0, 71, 66
1, 66511, Control_c, 0, 64, 127
1, 66514, Note_on_c, 0, 59, 49
1, 66564, Note_off_c, 0, 59, 62
1, 66580, Note_off_c, 0, 71, 57
1, 66582, Note_on_c, 0, 75, 73
1, 66586, Note_on_c, 0, 54, 53
1, 66639, Note_off_c, 0, 54, 50
1, 66645, Note_off_c, 0, 75, 59
1, 66691, Note_on_c, 0, 71, 67
1, 66701, Note_on_c, 0, 59, 48
1, 66732, Note_off_c, 0, 71, 53
1, 66764, Note_off_c, 0, 59, 60
1, 66778, Note_on_c, 0, 83, 77
1, 66790, Note_on_c, 0, 54, 68
1, 66848, Note_off_c, 0, 54, 59
1, 66873, Note_on_c, 0, 59, 65
1, 66876, Note_on_c, 0, 80, 71
1, 66904, Note_off_c, 0, 83, 58
1, 66919, Control_c, 0, 64, 114
1, 66934, Control_c, 0, 64, 95
1, 66949, Control_c, 0, 64, 80
1, 66958, Note_on_c, 0, 54, 64
1, 66959, Note_off_c, 0, 59, 61
1, 66963, Control_c, 0, 64, 69
1, 66967, Note_on_c, 0, 83, 73
1, 66970, Note_off_c, 0, 80, 62
1, 66978, Control_c, 0, 64, 60
1, 66993, Control_c, 0, 64, 56
1, 67008, Control_c, 0, 64, 54
1, 67022, Note_off_c, 0, 54, 58
1, 67023, Control_c, 0, 64, 52
1, 67037, Control_c, 0, 64, 46
1, 67052, Note_on_c, 0, 59, 59
1, 67053, Control_c, 0, 64, 36
1, 67057, Note_on_c, 0, 80, 82
1, 67068, Control_c, 0, 64, 0
1, 67081, Note_off_c, 0, 59, 65
1, 67081, Note_off_c, 0, 83, 52
1, 67112, Control_c, 0, 64, 39
1, 67127, Control_c, 0, 64, 54
1, 67133, Note_on_c, 0, 42, 74
1, 67143, Control_c, 0, 64, 66
1, 67143, Note_off_c, 0, 80, 62
1, 67147, Note_on_c, 0, 77, 79
1, 67158, Control_c, 0, 64, 77
1, 67167, Note_off_c, 0, 42, 65
1, 67173, Control_c, 0, 64, 91
1, 67187, Control_c, 0, 64, 107
1, 67202, Control_c, 0, 64, 127
1, 67239, Note_on_c, 0, 80, 85
1, 67244, Note_on_c, 0, 59, 60
1, 67250, Note_off_c, 0, 77, 60
1, 67313, Note_off_c, 0, 59, 62
1, 67325, Note_on_c, 0, 54, 58
1, 67332, Note_off_c, 0, 80, 62
1, 67336, Note_on_c, 0, 77, 84
1, 67417, Note_off_c, 0, 54, 52
1, 67420, Note_on_c, 0, 80, 85
1, 67426, Note_on_c, 0, 59, 65
1, 67427, Note_off_c, 0, 77, 59
1, 67498, Note_off_c, 0, 59, 58
1, 67524, Note_on_c, 0, 85, 87
1, 67531, Note_off_c, 0, 80, 62
1, 67538, Note_on_c, 0, 54, 64
1, 67550, Control_c, 0, 67, 124
1, 67599, Note_off_c, 0, 54, 59
1, 67609, Control_c, 0, 64, 115
1, 67617, Note_on_c, 0, 59, 74
1, 67622, Note_on_c, 0, 81, 80
1, 67624, Control_c, 0, 64, 95
1, 67639, Control_c, 0, 64, 85
1, 67644, Note_off_c, 0, 85, 63
1, 67654, Control_c, 0, 64, 78
1, 67668, Control_c, 0, 64, 73
1, 67668, Control_c, 0, 67, 126
1, 67683, Control_c, 0, 64, 69
1, 67698, Control_c, 0, 64, 63
1, 67701, Note_off_c, 0, 59, 63
1, 67713, Note_on_c, 0, 54, 62
1, 67713, Note_on_c, 0, 85, 89
1, 67713, Control_c, 0, 64, 59
1, 67719, Note_off_c, 0, 81, 64
1, 67728, Control_c, 0, 64, 57
1, 67742, Control_c, 0, 64, 56
1, 67757, Control_c, 0, 64, 54
1, 67772, Control_c, 0, 64, 51
1, 67781, Note_off_c, 0, 54, 57
1, 67782, Note_on_c, 0, 59, 61
1, 67787, Control_c, 0, 64, 48
1, 67802, Control_c, 0, 64, 44
1, 67805, Note_on_c, 0, 81, 91
1, 67817, Control_c, 0, 64, 42
1, 67827, Note_off_c, 0, 59, 61
1, 67827, Note_off_c, 0, 85, 60
1, 67832, Control_c, 0, 64, 39
1, 67847, Control_c, 0, 64, 35
1, 67861, Control_c, 0, 64, 29
1, 67876, Control_c, 0, 64, 0
1, 67906, Note_on_c, 0, 42, 71
1, 67920, Control_c, 0, 64, 29
1, 67930, Note_on_c, 0, 82, 87
1, 67936, Control_c, 0, 64, 34
1, 67951, Control_c, 0, 64, 35
1, 67955, Note_off_c, 0, 81, 63
1, 67966, Control_c, 0, 64, 39
1, 67981, Control_c, 0, 64, 48
1, 67996, Control_c, 0, 64, 57
1, 68010, Control_c, 0, 64, 63
1, 68012, Note_off_c, 0, 42, 58
1, 68025, Control_c, 0, 64, 64
1, 68039, Note_on_c, 0, 58, 65
1, 68040, Control_c, 0, 64, 65
1, 68043, Note_on_c, 0, 81, 91
1, 68055, Control_c, 0, 64, 65
1, 68070, Control_c, 0, 64, 68
1, 68076, Note_off_c, 0, 82, 61
1, 68084, Control_c, 0, 64, 73
1, 68099, Control_c, 0, 64, 83
1, 68114, Control_c, 0, 64, 96
1, 68129, Control_c, 0, 64, 112
1, 68139, Note_off_c, 0, 58, 56
1, 68144, Control_c, 0, 64, 127
1, 68149, Note_on_c, 0, 54, 60
1, 68160, Note_on_c, 0, 82, 89
1, 68186, Note_off_c, 0, 81, 62
1, 68225, Note_off_c, 0, 54, 52
1, 68265, Note_off_c, 0, 82, 61
1, 68267, Note_on_c, 0, 58, 67
1, 68269, Note_on_c, 0, 77, 82
1, 68352, Note_off_c, 0, 58, 57
1, 68354, Note_on_c, 0, 78, 83
1, 68366, Note_on_c, 0, 54, 57
1, 68373, Note_off_c, 0, 77, 59
1, 68444, Note_off_c, 0, 54, 60
1, 68448, Note_on_c, 0, 77, 84
1, 68455, Note_off_c, 0, 78, 60
1, 68458, Note_on_c, 0, 58, 63
1, 68521, Control_c, 0, 64, 120
1, 68530, Note_off_c, 0, 58, 60
1, 68535, Control_c, 0, 64, 104
1, 68537, Note_on_c, 0, 78, 88
1, 68538, Note_off_c, 0, 77, 62
1, 68538, Note_on_c, 0, 54, 70
1, 68550, Control_c, 0, 64, 96
1, 68565, Control_c, 0, 64, 87
1, 68580, Control_c, 0, 64, 78
1, 68595, Control_c, 0, 64, 69
1, 68597, Note_off_c, 0, 54, 59
1, 68609, Control_c, 0, 64, 61
1, 68610, Note_off_c, 0, 78, 61
1, 68624, Control_c, 0, 64, 57
1, 68628, Note_on_c, 0, 58, 68
1, 68631, Note_on_c, 0, 72, 74
1, 68639, Control_c, 0, 64, 54
1, 68654, Control_c, 0, 64, 52
1, 68669, Control_c, 0, 64, 49
1, 68683, Control_c, 0, 64, 43
1, 68698, Control_c, 0, 64, 33
1, 68705, Note_off_c, 0, 58, 58
1, 68713, Control_c, 0, 64, 0
1, 68715, Note_on_c, 0, 54, 60
1, 68719, Note_on_c, 0, 73, 78
1, 68736, Note_off_c, 0, 72, 58
1, 68792, Note_off_c, 0, 54, 59
1, 68815, Note_on_c, 0, 72, 68
1, 68818, Note_off_c, 0, 73, 62
1, 68819, Note_on_c, 0, 58, 58
1, 68883, Note_off_c, 0, 58, 54
1, 68899, Note_off_c, 0, 72, 60
1, 68905, Note_on_c, 0, 73, 78
1, 68907, Note_on_c, 0, 54, 59
1, 68971, Note_off_c, 0, 54, 54
1, 68971, Note_off_c, 0, 73, 62
1, 69000, Note_on_c, 0, 69, 69
1, 69009, Note_on_c, 0, 58, 61
1, 69074, Note_off_c, 0, 58, 57
1, 69090, Note_off_c, 0, 69, 35
1, 69091, Note_on_c, 0, 70, 71
1, 69094, Note_on_c, 0, 54, 53
1, 69154, Note_off_c, 0, 54, 56
1, 69167, Note_off_c, 0, 70, 61
1, 69183, Note_on_c, 0, 58, 62
1, 69188, Note_on_c, 0, 69, 67
1, 69224, Note_off_c, 0, 58, 61
1, 69228, Note_off_c, 0, 69, 54
1, 69269, Note_on_c, 0, 70, 73
1, 69271, Note_on_c, 0, 54, 58
1, 69331, Note_off_c, 0, 54, 57
1, 69333, Note_off_c, 0, 70, 62
1, 69360, Note_on_c, 0, 65, 62
1, 69368, Note_on_c, 0, 58, 53
1, 69406, Note_off_c, 0, 58, 63
1, 69418, Control_c, 0, 64, 42
1, 69432, Control_c, 0, 64, 62
1, 69447, Control_c, 0, 64, 71
1, 69448, Note_on_c, 0, 66, 66
1, 69454, Note_off_c, 0, 65, 53
1, 69457, Note_on_c, 0, 42, 73
1, 69462, Control_c, 0, 64, 80
1, 69477, Note_off_c, 0, 66, 67
1, 69477, Control_c, 0, 64, 86
1, 69486, Note_off_c, 0, 42, 66
1, 69492, Control_c, 0, 64, 90
1, 69506, Control_c, 0, 64, 95
1, 69521, Control_c, 0, 64, 101
1, 69537, Control_c, 0, 64, 106
1, 69552, Control_c, 0, 64, 109
1, 69567, Control_c, 0, 64, 111
1, 69576, Note_on_c, 0, 58, 57
1, 69581, Control_c, 0, 64, 113
1, 69594, Note_on_c, 0, 81, 73
1, 69596, Control_c, 0, 64, 116
1, 69620, Note_off_c, 0, 58, 59
1, 69626, Control_c, 0, 64, 118
1, 69656, Note_off_c, 0, 81, 61
1, 69667, Note_on_c, 0, 82, 74
1, 69668, Note_on_c, 0, 54, 55
1, 69718, Note_off_c, 0, 54, 61
1, 69733, Note_off_c, 0, 82, 62
1, 69767, Note_on_c, 0, 77, 76
1, 69781, Note_on_c, 0, 58, 61
1, 69833, Note_off_c, 0, 58, 56
1, 69855, Control_c, 0, 64, 116
1, 69857, Note_off_c, 0, 77, 54
1, 69859, Note_on_c, 0, 78, 71
1, 69870, Control_c, 0, 64, 113
1, 69875, Note_on_c, 0, 54, 61
1, 69885, Control_c, 0, 64, 105
1, 69900, Control_c, 0, 64, 93
1, 69915, Control_c, 0, 64, 79
1, 69921, Note_off_c, 0, 54, 57
1, 69929, Control_c, 0, 64, 68
1, 69942, Note_off_c, 0, 78, 60
1, 69944, Control_c, 0, 64, 60
1, 69950, Note_on_c, 0, 77, 70
1, 69955, Note_on_c, 0, 58, 58
1, 69959, Control_c, 0, 64, 55
1, 69974, Control_c, 0, 64, 53
1, 69988, Control_c, 0, 64, 50
1, 70003, Control_c, 0, 64, 45
1, 70012, Note_off_c, 0, 58, 56
1, 70012, Note_off_c, 0, 77, 57
1, 70018, Control_c, 0, 64, 39
1, 70033, Control_c, 0, 64, 32
1, 70038, Note_on_c, 0, 54, 57
1, 70047, Note_on_c, 0, 78, 75
1, 70049, Control_c, 0, 64, 0
1, 70085, Note_off_c, 0, 54, 58
1, 70100, Note_off_c, 0, 78, 57
1, 70129, Note_on_c, 0, 58, 61
1, 70149, Note_on_c, 0, 72, 45
1, 70194, Note_off_c, 0, 72, 54
1, 70197, Note_off_c, 0, 58, 57
1, 70223, Note_on_c, 0, 73, 66
1, 70224, Note_on_c, 0, 54, 53
1, 70264, Note_off_c, 0, 54, 60
1, 70282, Note_off_c, 0, 73, 58
1, 70309, Note_on_c, 0, 72, 68
1, 70316, Note_on_c, 0, 58, 58
1, 70363, Note_off_c, 0, 72, 55
1, 70371, Note_off_c, 0, 58, 57
1, 70395, Note_on_c, 0, 73, 71
1, 70418, Note_on_c, 0, 54, 42
1, 70449, Note_off_c, 0, 73, 60
1, 70464, Note_off_c, 0, 54, 61
1, 70498, Note_on_c, 0, 58, 59
1, 70501, Note_on_c, 0, 69, 65
1, 70543, Note_off_c, 0, 58, 58
1, 70574, Note_off_c, 0, 69, 38
1, 70585, Note_on_c, 0, 70, 65
1, 70592, Note_on_c, 0, 54, 49
1, 70630, Note_off_c, 0, 70, 60
1, 70632, Note_off_c, 0, 54, 61
1, 70682, Note_on_c, 0, 69, 64
1, 70682, Note_on_c, 0, 58, 47
1, 70715, Note_off_c, 0, 69, 60
1, 70738, Note_off_c, 0, 58, 60
1, 70750, Note_on_c, 0, 70, 65
1, 70770, Note_on_c, 0, 54, 42
1, 70795, Note_off_c, 0, 70, 60
1, 70813, Note_off_c, 0, 54, 59
1, 70837, Note_on_c, 0, 65, 61
1, 70851, Note_on_c, 0, 58, 57
1, 70893, Note_off_c, 0, 65, 51
1, 70897, Note_off_c, 0, 58, 58
1, 70920, Note_on_c, 0, 66, 60
1, 70944, Note_on_c, 0, 54, 55
1, 70962, Note_off_c, 0, 66, 64
1, 70982, Note_off_c, 0, 54, 62
1, 71007, Note_on_c, 0, 65, 65
1, 71030, Note_on_c, 0, 58, 55
1, 71061, Note_off_c, 0, 65, 52
1, 71081, Note_off_c, 0, 58, 60
1, 71092, Note_on_c, 0, 66, 68
1, 71114, Note_on_c, 0, 54, 58
1, 71138, Note_off_c, 0, 66, 60
1, 71152, Note_off_c, 0, 54, 62
1, 71182, Note_on_c, 0, 68, 73
1, 71192, Note_on_c, 0, 58, 66
1, 71245, Note_off_c, 0, 68, 56
1, 71247, Note_off_c, 0, 58, 57
1, 71280, Note_on_c, 0, 70, 76
1, 71288, Note_on_c, 0, 54, 78
1, 71328, Note_off_c, 0, 54, 62
1, 71358, Note_off_c, 0, 70, 56
1, 71365, Note_on_c, 0, 58, 67
1, 71367, Note_on_c, 0, 71, 75
1, 71424, Note_off_c, 0, 58, 59
1, 71452, Note_on_c, 0, 70, 76
1, 71456, Note_off_c, 0, 71, 59
1, 71466, Note_on_c, 0, 54, 52
1, 71504, Note_off_c, 0, 54, 64
1, 71528, Note_off_c, 0, 70, 61
1, 71532, Note_on_c, 0, 68, 63
1, 71552, Note_on_c, 0, 58, 66
1, 71570, Note_off_c, 0, 68, 62
1, 71598, Note_off_c, 0, 58, 55
1, 71629, Note_on_c, 0, 66, 61
1, 71656, Note_on_c, 0, 54, 55
1, 71663, Note_off_c, 0, 66, 63
1, 71690, Note_off_c, 0, 54, 63
1, 71716, Note_on_c, 0, 68, 56
1, 71734, Note_on_c, 0, 58, 57
1, 71755, Note_off_c, 0, 68, 60
1, 71784, Note_off_c, 0, 58, 55
1, 71802, Note_on_c, 0, 70, 60
1, 71832, Note_on_c, 0, 54, 49
1, 71876, Note_off_c, 0, 54, 61
1, 71890, Note_on_c, 0, 68, 65
1, 71918, Note_off_c, 0, 70, 38
1, 71922, Note_on_c, 0, 58, 57
1, 71972, Note_off_c, 0, 58, 61
1, 71979, Note_off_c, 0, 68, 40
1, 71993, Note_on_c, 0, 66, 66
1, 72012, Note_on_c, 0, 54, 52
1, 72046, Note_off_c, 0, 66, 55
1, 72055, Note_off_c, 0, 54, 61
1, 72089, Note_on_c, 0, 58, 53
1, 72095, Note_on_c, 0, 68, 61
1, 72139, Note_off_c, 0, 58, 62
1, 72169, Note_on_c, 0, 54, 53
1, 72180, Note_on_c, 0, 66, 62
1, 72181, Note_off_c, 0, 68, 54
1, 72237, Note_off_c, 0, 54, 58
1, 72245, Note_off_c, 0, 66, 57
1, 72268, Note_on_c, 0, 58, 41
1, 72269, Note_on_c, 0, 65, 52
1, 72300, Note_off_c, 0, 58, 52
1, 72373, Note_off_c, 0, 65, 45
1, 72403, Note_on_c, 0, 64, 57
1, 72405, Note_on_c, 0, 42, 41
1, 72413, Control_c, 0, 64, 40
1, 72428, Control_c, 0, 64, 54
1, 72443, Control_c, 0, 64, 59
1, 72457, Control_c, 0, 64, 60
1, 72472, Control_c, 0, 64, 62
1, 72487, Control_c, 0, 64, 67
1, 72501, Control_c, 0, 64, 72
1, 72516, Control_c, 0, 64, 78
1, 72531, Control_c, 0, 64, 86
1, 72546, Control_c, 0, 64, 96
1, 72561, Control_c, 0, 64, 108
1, 72571, Note_on_c, 0, 54, 45
1, 72572, Note_on_c, 0, 70, 53
1, 72575, Control_c, 0, 64, 127
1, 72580, Note_off_c, 0, 64, 61
1, 72595, Note_off_c, 0, 70, 63
1, 72597, Note_off_c, 0, 42, 53
1, 72610, Note_off_c, 0, 54, 56
1, 72725, Note_on_c, 0, 70, 46
1, 72727, Note_on_c, 0, 54, 33
1, 72731, Note_on_c, 0, 64, 53
1, 72734, Note_on_c, 0, 42, 23
1, 72744, Note_on_c, 0, 58, 50
1, 72756, Note_off_c, 0, 54, 56
1, 72764, Note_off_c, 0, 70, 62
1, 72766, Note_off_c, 0, 64, 62
1, 72769, Note_off_c, 0, 58, 56
1, 72784, Note_off_c, 0, 42, 50
1, 72843, Note_on_c, 0, 54, 47
1, 72855, Note_on_c, 0, 42, 31
1, 72864, Note_on_c, 0, 58, 33
1, 72869, Note_on_c, 0, 64, 40
1, 72873, Note_on_c, 0, 70, 54
1, 72879, Note_off_c, 0, 54, 58
1, 72896, Note_off_c, 0, 58, 53
1, 72904, Note_off_c, 0, 42, 48
1, 72909, Note_off_c, 0, 70, 62
1, 72910, Note_off_c, 0, 64, 51
1, 72980, Note_on_c, 0, 58, 57
1, 72989, Note_on_c, 0, 70, 59
1, 72993, Note_on_c, 0, 54, 23
1, 72998, Note_on_c, 0, 64, 57
1, 73004, Note_on_c, 0, 42, 37
1, 73011, Note_off_c, 0, 58, 58
1, 73019, Note_off_c, 0, 64, 65
1, 73022, Note_off_c, 0, 70, 61
1, 73031, Note_off_c, 0, 54, 52
1, 73034, Note_off_c, 0, 42, 55
1, 73099, Note_on_c, 0, 64, 61
1, 73113, Note_on_c, 0, 42, 56
1, 73116, Note_on_c, 0, 58, 46
1, 73123, Note_on_c, 0, 54, 49
1, 73124, Note_on_c, 0, 70, 59
1, 73141, Note_off_c, 0, 58, 60
1, 73150, Note_off_c, 0, 42, 59
1, 73157, Note_off_c, 0, 70, 63
1, 73158, Note_off_c, 0, 54, 52
1, 73159, Note_off_c, 0, 64, 62
1, 73232, Note_on_c, 0, 58, 59
1, 73235, Note_on_c, 0, 70, 62
1, 73236, Note_on_c, 0, 42, 57
1, 73239, Note_on_c, 0, 64, 57
1, 73240, Note_on_c, 0, 54, 54
1, 73267, Note_off_c, 0, 58, 61
1, 73268, Note_off_c, 0, 42, 59
1, 73271, Note_off_c, 0, 64, 65
1, 73275, Note_off_c, 0, 54, 57
1, 73277, Note_off_c, 0, 70, 61
1, 73341, Note_on_c, 0, 64, 65
1, 73347, Note_on_c, 0, 58, 58
1, 73358, Note_on_c, 0, 42, 52
1, 73359, Note_on_c, 0, 70, 44
1, 73366, Note_on_c, 0, 54, 50
1, 73381, Note_off_c, 0, 58, 61
1, 73383, Note_off_c, 0, 42, 59
1, 73385, Control_c, 0, 67, 119
1, 73390, Note_off_c, 0, 64, 61
1, 73390, Note_off_c, 0, 70, 60
1, 73395, Note_off_c, 0, 54, 60
1, 73399, Control_c, 0, 67, 108
1, 73414, Control_c, 0, 67, 97
1, 73429, Control_c, 0, 67, 83
1, 73444, Control_c, 0, 67, 69
1, 73466, Control_c, 0, 67, 57
1, 73478, Note_on_c, 0, 58, 55
1, 73478, Note_on_c, 0, 70, 64
1, 73479, Note_on_c, 0, 64, 56
1, 73481, Control_c, 0, 67, 45
1, 73484, Note_on_c, 0, 54, 54
1, 73488, Note_on_c, 0, 42, 56
1, 73496, Control_c, 0, 67, 0
1, 73505, Note_off_c, 0, 58, 60
1, 73514, Note_off_c, 0, 64, 65
1, 73524, Note_off_c, 0, 70, 62
1, 73532, Note_off_c, 0, 42, 59
1, 73536, Note_off_c, 0, 54, 62
1, 73610, Note_on_c, 0, 64, 51
1, 73615, Note_on_c, 0, 70, 62
1, 73616, Note_on_c, 0, 58, 50
1, 73619, Note_on_c, 0, 42, 55
1, 73626, Note_on_c, 0, 54, 41
1, 73642, Note_off_c, 0, 58, 56
1, 73642, Note_on_c, 0, 49, 49
1, 73652, Note_off_c, 0, 54, 56
1, 73660, Note_off_c, 0, 64, 61
1, 73661, Note_off_c, 0, 42, 59
1, 73668, Note_off_c, 0, 70, 61
1, 73674, Note_off_c, 0, 49, 62
1, 73735, Note_on_c, 0, 70, 60
1, 73737, Note_on_c, 0, 64, 65
1, 73737, Note_on_c, 0, 58, 61
1, 73738, Note_on_c, 0, 54, 53
1, 73749, Note_on_c, 0, 42, 49
1, 73752, Note_on_c, 0, 49, 61
1, 73776, Note_off_c, 0, 58, 61
1, 73779, Note_off_c, 0, 64, 65
1, 73782, Note_off_c, 0, 42, 55
1, 73787, Note_off_c, 0, 49, 63
1, 73790, Note_off_c, 0, 54, 62
1, 73795, Note_off_c, 0, 70, 63
1, 73861, Note_on_c, 0, 58, 66
1, 73861, Note_on_c, 0, 70, 58
1, 73864, Note_on_c, 0, 49, 63
1, 73865, Note_on_c, 0, 42, 66
1, 73868, Note_on_c, 0, 64, 67
1, 73871, Note_on_c, 0, 54, 55
1, 73900, Note_off_c, 0, 58, 63
1, 73901, Note_off_c, 0, 42, 61
1, 73904, Note_off_c, 0, 49, 60
1, 73910, Note_off_c, 0, 54, 58
1, 73917, Note_off_c, 0, 64, 60
1, 73918, Note_off_c, 0, 70, 64
1, 73984, Note_on_c, 0, 64, 66
1, 73985, Note_on_c, 0, 58, 73
1, 73987, Note_on_c, 0, 70, 62
1, 73989, Note_on_c, 0, 42, 58
1, 73991, Note_on_c, 0, 54, 61
1, 73996, Note_on_c, 0, 49, 65
1, 74026, Note_off_c, 0, 58, 62
1, 74030, Note_off_c, 0, 42, 60
1, 74032, Note_off_c, 0, 49, 64
1, 74034, Note_off_c, 0, 64, 65
1, 74042, Note_off_c, 0, 54, 60
1, 74047, Note_off_c, 0, 70, 64
1, 74106, Note_on_c, 0, 70, 64
1, 74110, Note_on_c, 0, 54, 61
1, 74114, Note_on_c, 0, 58, 72
1, 74116, Note_on_c, 0, 64, 67
1, 74120, Note_on_c, 0, 42, 60
1, 74124, Note_on_c, 0, 49, 53
1, 74140, Note_off_c, 0, 58, 65
1, 74151, Note_off_c, 0, 49, 64
1, 74153, Note_off_c, 0, 54, 54
1, 74154, Note_off_c, 0, 42, 64
1, 74157, Note_off_c, 0, 64, 60
1, 74163, Note_off_c, 0, 70, 63
1, 74232, Note_on_c, 0, 49, 59
1, 74235, Note_on_c, 0, 54, 69
1, 74238, Note_on_c, 0, 70, 65
1, 74240, Note_on_c, 0, 42, 63
1, 74241, Note_on_c, 0, 58, 73
1, 74242, Note_on_c, 0, 64, 71
1, 74269, Note_off_c, 0, 58, 58
1, 74277, Note_off_c, 0, 42, 58
1, 74283, Note_off_c, 0, 49, 62
1, 74288, Note_off_c, 0, 54, 59
1, 74291, Note_off_c, 0, 64, 63
1, 74297, Note_off_c, 0, 70, 64
1, 74366, Note_on_c, 0, 42, 64
1, 74366, Note_on_c, 0, 54, 62
1, 74371, Note_on_c, 0, 70, 69
1, 74372, Note_on_c, 0, 64, 79
1, 74373, Note_on_c, 0, 58, 79
1, 74374, Note_on_c, 0, 49, 64
1, 74408, Note_off_c, 0, 54, 51
1, 74409, Note_off_c, 0, 49, 62
1, 74410, Note_off_c, 0, 58, 62
1, 74418, Note_off_c, 0, 42, 58
1, 74421, Note_off_c, 0, 64, 64
1, 74432, Note_off_c, 0, 70, 61
1, 74494, Note_on_c, 0, 49, 63
1, 74497, Note_on_c, 0, 54, 75
1, 74498, Note_on_c, 0, 70, 69
1, 74503, Note_on_c, 0, 58, 82
1, 74503, Note_on_c, 0, 64, 77
1, 74505, Note_on_c, 0, 42, 57
1, 74545, Note_off_c, 0, 58, 59
1, 74552, Note_off_c, 0, 49, 62
1, 74552, Note_off_c, 0, 54, 59
1, 74558, Note_off_c, 0, 64, 64
1, 74561, Note_off_c, 0, 42, 59
1, 74569, Note_off_c, 0, 70, 62
1, 74628, Note_on_c, 0, 54, 72
1, 74633, Note_on_c, 0, 70, 74
1, 74635, Note_on_c, 0, 42, 67
1, 74636, Note_on_c, 0, 49, 67
1, 74640, Note_on_c, 0, 58, 85
1, 74640, Note_on_c, 0, 64, 72
1, 74689, Note_off_c, 0, 49, 59
1, 74691, Note_off_c, 0, 58, 64
1, 74691, Note_off_c, 0, 54, 60
1, 74706, Note_off_c, 0, 42, 61
1, 74708, Note_off_c, 0, 64, 61
1, 74712, Note_off_c, 0, 70, 62
1, 74768, Note_on_c, 0, 49, 69
1, 74771, Note_on_c, 0, 70, 78
1, 74771, Note_on_c, 0, 54, 70
1, 74771, Note_on_c, 0, 64, 77
1, 74777, Note_on_c, 0, 58, 88
1, 74778, Note_on_c, 0, 42, 60
1, 74825, Note_off_c, 0, 58, 61
1, 74839, Note_off_c, 0, 49, 62
1, 74839, Note_off_c, 0, 54, 60
1, 74846, Note_off_c, 0, 64, 63
1, 74850, Note_off_c, 0, 42, 62
1, 74854, Note_off_c, 0, 70, 63
1, 74910, Note_on_c, 0, 49, 68
1, 74918, Note_on_c, 0, 70, 77
1, 74919, Note_on_c, 0, 58, 86
1, 74919, Note_on_c, 0, 64, 79
1, 74920, Note_on_c, 0, 42, 61
1, 74926, Note_on_c, 0, 54, 72
1, 74976, Note_off_c, 0, 58, 60
1, 74985, Note_off_c, 0, 49, 60
1, 74988, Note_off_c, 0, 64, 61
1, 74993, Note_off_c, 0, 54, 54
1, 75004, Note_off_c, 0, 42, 57
1, 75005, Note_off_c, 0, 70, 62
1, 75080, Note_on_c, 0, 58, 79
1, 75080, Note_on_c, 0, 64, 72
1, 75084, Note_on_c, 0, 70, 72
1, 75114, Note_off_c, 0, 58, 59
1, 75123, Poly_aftertouch_c, 0, 42, 127
1, 75129, Note_off_c, 0, 64, 65
1, 75136, Note_off_c, 0, 70, 63
1, 75166, Poly_aftertouch_c, 0, 42, 0
1, 75236, Note_on_c, 0, 70, 93
1, 75242, Note_on_c, 0, 58, 86
1, 75245, Note_on_c, 0, 50, 75
1, 75248, Note_on_c, 0, 66, 56
1, 75254, Note_on_c, 0, 41, 80
1, 75278, Note_on_c, 0, 65, 44
1, 75285, Note_on_c, 0, 53, 49
1, 75290, Control_c, 0, 64, 109
1, 75305, Control_c, 0, 64, 66
1, 75320, Control_c, 0, 64, 29
1, 75323, Note_off_c, 0, 65, 41
1, 75323, Poly_aftertouch_c, 0, 68, 0
1, 75332, Note_off_c, 0, 53, 45
1, 75335, Control_c, 0, 64, 0
1, 75345, Note_off_c, 0, 66, 36
1, 75358, Poly_aftertouch_c, 0, 68, 0
1, 75365, Control_c, 0, 64, 40
1, 75379, Control_c, 0, 64, 64
1, 75380, Note_off_c, 0, 58, 63
1, 75383, Note_off_c, 0, 70, 65
1, 75385, Note_off_c, 0, 50, 62
1, 75391, Note_off_c, 0, 41, 62
1, 75394, Control_c, 0, 64, 101
1, 75409, Control_c, 0, 64, 127
1, 75431, Note_on_c, 0, 50, 59
1, 75436, Note_on_c, 0, 70, 80
1, 75438, Note_on_c, 0, 41, 53
1, 75438, Note_on_c, 0, 53, 77
1, 75447, Note_on_c, 0, 58, 77
1, 75455, Note_on_c, 0, 65, 63
1, 75511, Poly_aftertouch_c, 0, 68, 127
1, 75514, Note_off_c, 0, 53, 51
1, 75524, Note_off_c, 0, 65, 53
1, 75548, Note_off_c, 0, 58, 52
1, 75551, Poly_aftertouch_c, 0, 68, 0
1, 75552, Note_off_c, 0, 41, 58
1, 75567, Note_off_c, 0, 70, 61
1, 75582, Note_off_c, 0, 50, 34
1, 75644, Note_on_c, 0, 70, 87
1, 75645, Note_on_c, 0, 53, 74
1, 75647, Note_on_c, 0, 58, 84
1, 75648, Note_on_c, 0, 50, 70
1, 75659, Note_on_c, 0, 65, 52
1, 75663, Note_on_c, 0, 41, 65
1, 75667, Note_on_c, 0, 68, 56
1, 75713, Note_off_c, 0, 53, 59
1, 75717, Note_off_c, 0, 68, 52
1, 75729, Note_off_c, 0, 41, 58
1, 75750, Note_off_c, 0, 65, 54
1, 75751, Note_off_c, 0, 58, 49
1, 75765, Note_off_c, 0, 50, 39
1, 75770, Note_off_c, 0, 70, 61
1, 75988, Note_on_c, 0, 70, 87
1, 76003, Note_on_c, 0, 58, 65
1, 76008, Note_on_c, 0, 50, 66
1, 76014, Note_on_c, 0, 41, 59
1, 76015, Note_on_c, 0, 65, 63
1, 76024, Control_c, 0, 64, 108
1, 76039, Control_c, 0, 64, 79
1, 76054, Control_c, 0, 64, 60
1, 76069, Control_c, 0, 64, 0
1, 76158, Control_c, 0, 64, 51
1, 76172, Control_c, 0, 64, 70
1, 76187, Control_c, 0, 64, 89
1, 76189, Note_off_c, 0, 58, 55
1, 76202, Control_c, 0, 64, 127
1, 76250, Note_on_c, 0, 53, 63
1, 76274, Note_off_c, 0, 65, 51
1, 76304, Note_off_c, 0, 53, 60
1, 76415, Note_on_c, 0, 53, 66
1, 76484, Note_off_c, 0, 53, 58
1, 76489, Note_off_c, 0, 41, 49
1, 76517, Note_off_c, 0, 50, 53
1, 76569, Note_off_c, 0, 70, 60
1, 76610, Note_on_c, 0, 69, 85
1, 76617, Note_on_c, 0, 57, 74
1, 76617, Note_on_c, 0, 41, 66
1, 76622, Note_on_c, 0, 48, 72
1, 76641, Note_on_c, 0, 65, 52
1, 76683, Control_c, 0, 64, 95
1, 76698, Control_c, 0, 64, 67
1, 76713, Control_c, 0, 64, 47
1, 76729, Control_c, 0, 64, 39
1, 76744, Control_c, 0, 64, 43
1, 76759, Control_c, 0, 64, 56
1, 76773, Control_c, 0, 64, 75
1, 76776, Note_off_c, 0, 65, 35
1, 76786, Note_on_c, 0, 53, 64
1, 76786, Note_off_c, 0, 57, 63
1, 76787, Control_c, 0, 64, 127
1, 76836, Note_off_c, 0, 53, 61
1, 76918, Note_on_c, 0, 53, 69
1, 76965, Note_off_c, 0, 41, 63
1, 76977, Note_off_c, 0, 53, 60
1, 76977, Note_off_c, 0, 48, 61
1, 77060, Note_on_c, 0, 50, 79
1, 77061, Note_on_c, 0, 41, 74
1, 77065, Note_on_c, 0, 70, 91
1, 77067, Note_on_c, 0, 58, 71
1, 77075, Note_on_c, 0, 65, 75
1, 77099, Control_c, 0, 64, 80
1, 77101, Note_off_c, 0, 69, 59
1, 77113, Note_off_c, 0, 58, 56
1, 77114, Control_c, 0, 64, 55
1, 77128, Control_c, 0, 64, 0
1, 77172, Control_c, 0, 64, 34
1, 77178, Note_off_c, 0, 65, 51
1, 77195, Control_c, 0, 64, 58
1, 77200, Note_on_c, 0, 53, 72
1, 77210, Control_c, 0, 64, 73
1, 77225, Control_c, 0, 64, 101
1, 77240, Control_c, 0, 64, 127
1, 77261, Note_off_c, 0, 53, 60
1, 77355, Note_on_c, 0, 53, 61
1, 77356, Note_off_c, 0, 50, 62
1, 77369, Note_off_c, 0, 41, 61
1, 77386, Note_off_c, 0, 53, 63
1, 77493, Note_on_c, 0, 72, 88
1, 77493, Note_on_c, 0, 41, 63
1, 77499, Note_on_c, 0, 51, 73
1, 77521, Control_c, 0, 64, 103
1, 77523, Note_on_c, 0, 60, 61
1, 77528, Note_on_c, 0, 65, 54
1, 77536, Control_c, 0, 64, 67
1, 77551, Control_c, 0, 64, 33
1, 77566, Control_c, 0, 64, 0
1, 77610, Control_c, 0, 64, 48
1, 77625, Control_c, 0, 64, 66
1, 77628, Note_off_c, 0, 60, 57
1, 77631, Note_off_c, 0, 70, 53
1, 77640, Control_c, 0, 64, 80
1, 77641, Note_on_c, 0, 53, 71
1, 77655, Control_c, 0, 64, 117
1, 77669, Control_c, 0, 64, 127
1, 77693, Note_off_c, 0, 53, 58
1, 77727, Note_off_c, 0, 72, 64
1, 77757, Note_off_c, 0, 65, 51
1, 77788, Note_on_c, 0, 53, 66
1, 77827, Note_off_c, 0, 53, 53
1, 77836, Note_off_c, 0, 51, 57
1, 77868, Note_off_c, 0, 41, 50
1, 77979, Note_on_c, 0, 74, 89
1, 77991, Note_on_c, 0, 41, 72
1, 77994, Note_on_c, 0, 65, 56
1, 78005, Note_on_c, 0, 52, 70
1, 78008, Note_on_c, 0, 62, 46
1, 78032, Control_c, 0, 64, 78
1, 78047, Control_c, 0, 64, 57
1, 78062, Control_c, 0, 64, 0
1, 78152, Note_off_c, 0, 52, 62
1, 78155, Note_on_c, 0, 53, 74
1, 78166, Control_c, 0, 64, 29
1, 78181, Control_c, 0, 64, 35
1, 78195, Control_c, 0, 64, 39
1, 78196, Note_off_c, 0, 53, 61
1, 78210, Control_c, 0, 64, 45
1, 78225, Control_c, 0, 64, 50
1, 78240, Control_c, 0, 64, 53
1, 78255, Control_c, 0, 64, 52
1, 78289, Note_on_c, 0, 53, 75
1, 78315, Control_c, 0, 64, 53
1, 78316, Note_off_c, 0, 53, 66
1, 78330, Control_c, 0, 64, 52
1, 78344, Control_c, 0, 64, 52
1, 78374, Control_c, 0, 64, 53
1, 78389, Control_c, 0, 64, 57
1, 78404, Control_c, 0, 64, 59
1, 78409, Note_on_c, 0, 53, 65
1, 78418, Control_c, 0, 64, 59
1, 78433, Control_c, 0, 64, 60
1, 78438, Note_off_c, 0, 53, 64
1, 78448, Control_c, 0, 64, 64
1, 78463, Control_c, 0, 64, 72
1, 78478, Control_c, 0, 64, 89
1, 78492, Control_c, 0, 64, 123
1, 78507, Control_c, 0, 64, 127
1, 78529, Note_on_c, 0, 53, 61
1, 78557, Note_off_c, 0, 53, 65
1, 78652, Note_on_c, 0, 53, 59
1, 78698, Note_off_c, 0, 53, 62
1, 78776, Note_on_c, 0, 53, 70
1, 78797, Note_off_c, 0, 62, 44
1, 78811, Note_off_c, 0, 53, 56
1, 78813, Note_off_c, 0, 74, 54
1, 78894, Note_off_c, 0, 65, 59
1, 78912, Note_on_c, 0, 53, 64
1, 78946, Note_off_c, 0, 53, 62
1, 79040, Note_on_c, 0, 53, 69
1, 79088, Note_off_c, 0, 53, 56
1, 79100, Note_off_c, 0, 41, 61
1, 79198, Note_on_c, 0, 72, 78
1, 79207, Note_on_c, 0, 65, 56
1, 79207, Note_on_c, 0, 51, 66
1, 79213, Note_on_c, 0, 41, 62
1, 79230, Note_on_c, 0, 60, 46
1, 79270, Control_c, 0, 64, 84
1, 79284, Control_c, 0, 64, 63
1, 79299, Note_off_c, 0, 60, 55
1, 79299, Control_c, 0, 64, 45
1, 79314, Control_c, 0, 64, 36
1, 79329, Control_c, 0, 64, 37
1, 79344, Control_c, 0, 64, 44
1, 79359, Control_c, 0, 64, 56
1, 79365, Note_on_c, 0, 53, 59
1, 79374, Control_c, 0, 64, 65
1, 79389, Control_c, 0, 64, 77
1, 79404, Control_c, 0, 64, 101
1, 79419, Control_c, 0, 64, 127
1, 79441, Note_off_c, 0, 51, 60
1, 79451, Note_on_c, 0, 70, 90
1, 79460, Note_on_c, 0, 58, 75
1, 79486, Note_off_c, 0, 65, 47
1, 79488, Note_off_c, 0, 53, 55
1, 79502, Note_off_c, 0, 58, 57
1, 79511, Note_off_c, 0, 72, 63
1, 79546, Note_on_c, 0, 50, 72
1, 79594, Note_off_c, 0, 41, 55
1, 79602, Note_off_c, 0, 50, 60
1, 79744, Note_off_c, 0, 70, 54
1, 79749, Note_on_c, 0, 72, 87
1, 79754, Note_on_c, 0, 41, 53
1, 79755, Note_on_c, 0, 51, 65
1, 79772, Note_on_c, 0, 60, 60
1, 79780, Note_on_c, 0, 65, 54
1, 79782, Control_c, 0, 64, 89
1, 79797, Control_c, 0, 64, 63
1, 79812, Control_c, 0, 64, 41
1, 79827, Control_c, 0, 64, 28
1, 79856, Control_c, 0, 64, 33
1, 79871, Control_c, 0, 64, 46
1, 79886, Control_c, 0, 64, 61
1, 79900, Control_c, 0, 64, 74
1, 79915, Note_on_c, 0, 53, 57
1, 79916, Control_c, 0, 64, 97
1, 79931, Control_c, 0, 64, 127
1, 79933, Note_off_c, 0, 60, 39
1, 79936, Note_off_c, 0, 72, 61
1, 79972, Note_off_c, 0, 53, 59
1, 79987, Note_off_c, 0, 65, 60
1, 80050, Note_off_c, 0, 51, 55
1, 80060, Note_on_c, 0, 53, 65
1, 80101, Note_off_c, 0, 41, 41
1, 80106, Note_off_c, 0, 53, 59
1, 80230, Note_on_c, 0, 41, 57
1, 80231, Note_on_c, 0, 72, 85
1, 80244, Note_on_c, 0, 51, 66
1, 80252, Note_on_c, 0, 65, 50
1, 80265, Control_c, 0, 64, 76
1, 80272, Note_on_c, 0, 60, 44
1, 80279, Control_c, 0, 64, 57
1, 80294, Control_c, 0, 64, 46
1, 80309, Control_c, 0, 64, 47
1, 80310, Note_off_c, 0, 60, 49
1, 80323, Control_c, 0, 64, 52
1, 80338, Control_c, 0, 64, 61
1, 80353, Control_c, 0, 64, 74
1, 80368, Control_c, 0, 64, 101
1, 80377, Note_on_c, 0, 53, 71
1, 80383, Control_c, 0, 64, 127
1, 80413, Note_off_c, 0, 72, 54
1, 80425, Note_off_c, 0, 53, 57
1, 80425, Note_off_c, 0, 65, 55
1, 80510, Note_on_c, 0, 53, 66
1, 80522, Note_off_c, 0, 51, 56
1, 80553, Note_off_c, 0, 41, 57
1, 80569, Note_off_c, 0, 53, 59
1, 80662, Note_on_c, 0, 72, 84
1, 80671, Note_on_c, 0, 41, 69
1, 80677, Note_on_c, 0, 51, 70
1, 80677, Note_on_c, 0, 65, 60
1, 80679, Control_c, 0, 64, 104
1, 80681, Note_on_c, 0, 60, 57
1, 80694, Control_c, 0, 64, 70
1, 80709, Control_c, 0, 64, 50
1, 80724, Control_c, 0, 64, 40
1, 80726, Note_off_c, 0, 60, 48
1, 80754, Control_c, 0, 64, 49
1, 80769, Control_c, 0, 64, 63
1, 80784, Control_c, 0, 64, 78
1, 80799, Control_c, 0, 64, 114
1, 80800, Note_off_c, 0, 65, 59
1, 80810, Note_on_c, 0, 53, 71
1, 80813, Control_c, 0, 64, 127
1, 80866, Note_off_c, 0, 53, 60
1, 80963, Note_on_c, 0, 53, 65
1, 80996, Note_off_c, 0, 51, 56
1, 80996, Note_off_c, 0, 41, 56
1, 81123, Note_on_c, 0, 70, 83
1, 81127, Note_on_c, 0, 41, 60
1, 81132, Note_on_c, 0, 65, 69
1, 81132, Control_c, 0, 64, 92
1, 81133, Note_on_c, 0, 50, 58
1, 81133, Note_off_c, 0, 53, 28
1, 81146, Control_c, 0, 64, 67
1, 81156, Note_on_c, 0, 58, 36
1, 81161, Control_c, 0, 64, 52
1, 81191, Control_c, 0, 64, 58
1, 81206, Control_c, 0, 64, 70
1, 81208, Note_off_c, 0, 72, 58
1, 81220, Control_c, 0, 64, 106
1, 81235, Control_c, 0, 64, 127
1, 81240, Note_off_c, 0, 58, 31
1, 81264, Note_on_c, 0, 53, 69
1, 81266, Note_off_c, 0, 70, 61
1, 81300, Note_off_c, 0, 50, 61
1, 81349, Note_on_c, 0, 69, 83
1, 81372, Note_on_c, 0, 57, 61
1, 81402, Note_off_c, 0, 57, 65
1, 81413, Note_off_c, 0, 53, 52
1, 81418, Note_off_c, 0, 69, 64
1, 81419, Note_off_c, 0, 65, 58
1, 81436, Note_on_c, 0, 48, 63
1, 81452, Note_off_c, 0, 41, 63
1, 81470, Note_off_c, 0, 48, 62
1, 81625, Note_on_c, 0, 70, 75
1, 81631, Note_on_c, 0, 50, 55
1, 81647, Note_on_c, 0, 46, 50
1, 81649, Note_on_c, 0, 65, 49
1, 81666, Control_c, 0, 64, 89
1, 81681, Control_c, 0, 64, 62
1, 81702, Control_c, 0, 64, 40
1, 81717, Control_c, 0, 64, 0
1, 81777, Control_c, 0, 64, 40
1, 81791, Control_c, 0, 64, 56
1, 81797, Note_on_c, 0, 53, 50
1, 81803, Note_off_c, 0, 65, 59
1, 81806, Control_c, 0, 64, 66
1, 81821, Control_c, 0, 64, 76
1, 81831, Note_off_c, 0, 53, 60
1, 81836, Control_c, 0, 64, 92
1, 81851, Control_c, 0, 64, 123
1, 81866, Control_c, 0, 64, 127
1, 81928, Note_on_c, 0, 53, 59
1, 81948, Note_off_c, 0, 50, 61
1, 81996, Note_off_c, 0, 53, 58
1, 82092, Note_on_c, 0, 51, 66
1, 82102, Note_on_c, 0, 67, 67
1, 82111, Note_on_c, 0, 63, 48
1, 82117, Control_c, 0, 64, 81
1, 82132, Control_c, 0, 64, 61
1, 82147, Control_c, 0, 64, 45
1, 82161, Control_c, 0, 64, 42
1, 82176, Control_c, 0, 64, 44
1, 82191, Control_c, 0, 64, 55
1, 82204, Note_off_c, 0, 63, 28
1, 82206, Control_c, 0, 64, 65
1, 82221, Control_c, 0, 64, 80
1, 82230, Note_on_c, 0, 55, 63
1, 82236, Control_c, 0, 64, 127
1, 82281, Note_off_c, 0, 55, 60
1, 82334, Note_off_c, 0, 67, 36
1, 82371, Note_on_c, 0, 55, 70
1, 82389, Note_off_c, 0, 51, 60
1, 82440, Note_off_c, 0, 55, 58
1, 82510, Note_on_c, 0, 50, 67
1, 82510, Note_on_c, 0, 65, 77
1, 82511, Control_c, 0, 64, 104
1, 82525, Control_c, 0, 64, 74
1, 82536, Note_on_c, 0, 62, 43
1, 82540, Control_c, 0, 64, 60
1, 82555, Control_c, 0, 64, 57
1, 82570, Control_c, 0, 64, 60
1, 82584, Note_off_c, 0, 62, 45
1, 82585, Control_c, 0, 64, 69
1, 82599, Control_c, 0, 64, 97
1, 82614, Control_c, 0, 64, 127
1, 82635, Note_on_c, 0, 53, 73
1, 82650, Note_off_c, 0, 70, 62
1, 82678, Note_off_c, 0, 65, 56
1, 82691, Note_off_c, 0, 53, 62
1, 82767, Note_on_c, 0, 53, 77
1, 82783, Note_off_c, 0, 50, 60
1, 82790, Note_off_c, 0, 46, 62
1, 82823, Note_off_c, 0, 53, 62
1, 82948, Note_on_c, 0, 74, 91
1, 82953, Note_on_c, 0, 50, 75
1, 82959, Note_on_c, 0, 44, 75
1, 82963, Note_on_c, 0, 65, 61
1, 82963, Note_on_c, 0, 62, 64
1, 82999, Control_c, 0, 64, 73
1, 83014, Control_c, 0, 64, 53
1, 83028, Control_c, 0, 64, 0
1, 83098, Note_on_c, 0, 53, 74
1, 83104, Control_c, 0, 64, 54
1, 83119, Control_c, 0, 64, 75
1, 83133, Control_c, 0, 64, 106
1, 83143, Note_off_c, 0, 62, 55
1, 83148, Control_c, 0, 64, 127
1, 83168, Note_off_c, 0, 65, 59
1, 83169, Note_off_c, 0, 53, 60
1, 83213, Note_off_c, 0, 74, 60
1, 83257, Note_on_c, 0, 53, 71
1, 83270, Note_off_c, 0, 50, 62
1, 83291, Note_off_c, 0, 44, 62
1, 83306, Note_off_c, 0, 53, 56
1, 83408, Control_c, 0, 64, 68
1, 83416, Note_on_c, 0, 74, 85
1, 83422, Control_c, 0, 64, 44
1, 83425, Note_on_c, 0, 43, 68
1, 83427, Note_on_c, 0, 53, 64
1, 83431, Note_on_c, 0, 62, 64
1, 83431, Note_on_c, 0, 67, 65
1, 83437, Control_c, 0, 64, 31
1, 83452, Control_c, 0, 64, 37
1, 83467, Control_c, 0, 64, 56
1, 83482, Control_c, 0, 64, 77
1, 83496, Control_c, 0, 64, 127
1, 83565, Note_on_c, 0, 55, 72
1, 83611, Note_off_c, 0, 55, 56
1, 83632, Note_off_c, 0, 53, 61
1, 83659, Control_c, 0, 64, 96
1, 83674, Control_c, 0, 64, 69
1, 83689, Control_c, 0, 64, 45
1, 83699, Note_on_c, 0, 55, 76
1, 83704, Control_c, 0, 64, 0
1, 83733, Note_off_c, 0, 55, 56
1, 83778, Control_c, 0, 67, 39
1, 83793, Control_c, 0, 67, 43
1, 83807, Control_c, 0, 67, 46
1, 83822, Control_c, 0, 67, 56
1, 83837, Control_c, 0, 67, 88
1, 83838, Note_on_c, 0, 53, 74
1, 83852, Control_c, 0, 67, 114
1, 83896, Control_c, 0, 64, 34
1, 83896, Control_c, 0, 67, 116
1, 83912, Control_c, 0, 64, 46
1, 83935, Control_c, 0, 64, 56
1, 83950, Control_c, 0, 64, 63
1, 83964, Control_c, 0, 64, 66
1, 83974, Note_on_c, 0, 55, 71
1, 83979, Control_c, 0, 67, 119
1, 83994, Control_c, 0, 64, 65
1, 83995, Note_off_c, 0, 53, 60
1, 84009, Control_c, 0, 64, 61
1, 84024, Control_c, 0, 64, 52
1, 84027, Note_off_c, 0, 55, 59
1, 84038, Control_c, 0, 64, 44
1, 84038, Control_c, 0, 67, 121
1, 84053, Control_c, 0, 64, 37
1, 84053, Control_c, 0, 67, 127
1, 84068, Control_c, 0, 64, 28
1, 84082, Control_c, 0, 64, 0
1, 84119, Note_on_c, 0, 55, 72
1, 84161, Note_off_c, 0, 55, 58
1, 84262, Note_on_c, 0, 53, 61
1, 84304, Control_c, 0, 64, 38
1, 84319, Control_c, 0, 64, 48
1, 84334, Control_c, 0, 64, 57
1, 84349, Control_c, 0, 64, 62
1, 84364, Control_c, 0, 64, 68
1, 84379, Control_c, 0, 64, 77
1, 84394, Control_c, 0, 64, 91
1, 84395, Note_on_c, 0, 55, 68
1, 84409, Control_c, 0, 64, 107
1, 84424, Control_c, 0, 64, 127
1, 84426, Note_off_c, 0, 53, 55
1, 84440, Note_off_c, 0, 55, 57
1, 84465, Note_off_c, 0, 74, 59
1, 84467, Note_off_c, 0, 67, 56
1, 84536, Note_off_c, 0, 62, 57
1, 84543, Note_on_c, 0, 55, 69
1, 84593, Note_off_c, 0, 55, 61
1, 84632, Note_off_c, 0, 43, 56
1, 84735, Note_on_c, 0, 72, 78
1, 84740, Note_on_c, 0, 51, 67
1, 84748, Note_on_c, 0, 67, 62
1, 84756, Note_on_c, 0, 43, 59
1, 84757, Note_on_c, 0, 60, 49
1, 84772, Control_c, 0, 64, 102
1, 84787, Control_c, 0, 64, 73
1, 84802, Control_c, 0, 64, 58
1, 84805, Note_off_c, 0, 60, 50
1, 84817, Control_c, 0, 64, 51
1, 84832, Control_c, 0, 64, 52
1, 84847, Control_c, 0, 64, 58
1, 84861, Control_c, 0, 64, 65
1, 84876, Control_c, 0, 64, 75
1, 84883, Note_on_c, 0, 55, 66
1, 84891, Control_c, 0, 64, 90
1, 84891, Control_c, 0, 67, 123
1, 84905, Control_c, 0, 64, 123
1, 84905, Control_c, 0, 67, 92
1, 84920, Control_c, 0, 64, 127
1, 84920, Control_c, 0, 67, 58
1, 84935, Control_c, 0, 67, 0
1, 84936, Note_off_c, 0, 51, 56
1, 84959, Note_on_c, 0, 71, 86
1, 84968, Note_on_c, 0, 59, 74
1, 84993, Note_off_c, 0, 55, 58
1, 84996, Note_off_c, 0, 59, 65
1, 85002, Note_off_c, 0, 67, 28
1, 85007, Note_off_c, 0, 72, 62
1, 85061, Note_on_c, 0, 50, 68
1, 85095, Note_off_c, 0, 43, 33
1, 85130, Note_off_c, 0, 50, 58
1, 85223, Note_on_c, 0, 75, 94
1, 85230, Note_on_c, 0, 63, 63
1, 85231, Note_on_c, 0, 48, 68
1, 85236, Note_on_c, 0, 43, 61
1, 85239, Note_on_c, 0, 67, 58
1, 85246, Control_c, 0, 64, 81
1, 85261, Control_c, 0, 64, 59
1, 85276, Control_c, 0, 64, 35
1, 85284, Note_off_c, 0, 63, 41
1, 85286, Note_off_c, 0, 71, 55
1, 85291, Control_c, 0, 64, 0
1, 85320, Control_c, 0, 64, 33
1, 85335, Control_c, 0, 64, 49
1, 85350, Control_c, 0, 64, 66
1, 85365, Control_c, 0, 64, 83
1, 85367, Note_on_c, 0, 55, 72
1, 85379, Control_c, 0, 64, 127
1, 85398, Note_off_c, 0, 67, 59
1, 85407, Note_off_c, 0, 75, 57
1, 85410, Note_off_c, 0, 55, 59
1, 85512, Note_on_c, 0, 55, 73
1, 85529, Note_off_c, 0, 48, 62
1, 85543, Note_off_c, 0, 43, 60
1, 85568, Note_off_c, 0, 55, 60
1, 85649, Note_on_c, 0, 74, 95
1, 85651, Note_on_c, 0, 43, 73
1, 85652, Note_on_c, 0, 53, 75
1, 85664, Note_on_c, 0, 62, 66
1, 85665, Note_on_c, 0, 67, 71
1, 85669, Control_c, 0, 64, 75
1, 85684, Control_c, 0, 64, 53
1, 85699, Control_c, 0, 64, 34
1, 85714, Control_c, 0, 64, 33
1, 85728, Control_c, 0, 64, 40
1, 85743, Control_c, 0, 64, 54
1, 85758, Control_c, 0, 64, 69
1, 85773, Control_c, 0, 64, 91
1, 85786, Note_on_c, 0, 55, 79
1, 85788, Control_c, 0, 64, 127
1, 85818, Note_off_c, 0, 74, 60
1, 85836, Note_off_c, 0, 62, 57
1, 85837, Note_off_c, 0, 55, 60
1, 85896, Note_off_c, 0, 67, 56
1, 85919, Note_on_c, 0, 55, 84
1, 85929, Note_off_c, 0, 53, 61
1, 85983, Note_off_c, 0, 43, 58
1, 85990, Note_off_c, 0, 55, 58
1, 86067, Note_on_c, 0, 43, 67
1, 86071, Note_on_c, 0, 72, 88
1, 86075, Note_on_c, 0, 51, 80
1, 86075, Note_on_c, 0, 60, 79
1, 86077, Note_on_c, 0, 67, 77
1, 86114, Control_c, 0, 64, 77
1, 86128, Control_c, 0, 64, 53
1, 86143, Control_c, 0, 64, 0
1, 86209, Note_on_c, 0, 55, 81
1, 86209, Control_c, 0, 64, 46
1, 86224, Control_c, 0, 64, 65
1, 86239, Control_c, 0, 64, 82
1, 86254, Control_c, 0, 64, 127
1, 86259, Note_off_c, 0, 60, 52
1, 86277, Note_off_c, 0, 55, 61
1, 86284, Note_off_c, 0, 72, 58
1, 86322, Note_off_c, 0, 67, 60
1, 86369, Note_on_c, 0, 55, 75
1, 86374, Note_off_c, 0, 43, 57
1, 86383, Note_off_c, 0, 51, 61
1, 86397, Note_off_c, 0, 55, 67
1, 86543, Note_on_c, 0, 72, 79
1, 86546, Note_on_c, 0, 51, 83
1, 86547, Note_on_c, 0, 60, 73
1, 86550, Note_on_c, 0, 69, 70
1, 86555, Note_on_c, 0, 42, 73
1, 86582, Control_c, 0, 64, 103
1, 86597, Control_c, 0, 64, 71
1, 86612, Control_c, 0, 64, 48
1, 86626, Control_c, 0, 64, 0
1, 86700, Control_c, 0, 64, 34
1, 86715, Control_c, 0, 64, 54
1, 86722, Note_on_c, 0, 54, 74
1, 86730, Control_c, 0, 64, 66
1, 86745, Control_c, 0, 64, 76
1, 86759, Control_c, 0, 64, 89
1, 86774, Control_c, 0, 64, 127
1, 86792, Note_off_c, 0, 54, 62
1, 86805, Note_off_c, 0, 72, 48
1, 86822, Note_off_c, 0, 69, 57
1, 86837, Note_off_c, 0, 42, 61
1, 86880, Note_off_c, 0, 60, 30
1, 86881, Note_off_c, 0, 51, 56
1, 86891, Note_on_c, 0, 54, 75
1, 86955, Note_off_c, 0, 54, 60
1, 87126, Note_on_c, 0, 72, 80
1, 87130, Note_on_c, 0, 60, 65
1, 87133, Note_on_c, 0, 51, 78
1, 87133, Note_on_c, 0, 69, 69
1, 87136, Note_on_c, 0, 65, 63
1, 87137, Note_on_c, 0, 41, 74
1, 87168, Control_c, 0, 64, 117
1, 87182, Control_c, 0, 64, 73
1, 87197, Control_c, 0, 64, 55
1, 87212, Control_c, 0, 64, 37
1, 87227, Control_c, 0, 64, 0
1, 87302, Note_on_c, 0, 53, 78
1, 87315, Control_c, 0, 67, 34
1, 87330, Control_c, 0, 67, 35
1, 87345, Control_c, 0, 67, 38
1, 87360, Control_c, 0, 67, 50
1, 87363, Note_off_c, 0, 53, 59
1, 87375, Control_c, 0, 67, 65
1, 87382, Note_off_c, 0, 51, 59
1, 87389, Control_c, 0, 67, 66
1, 87419, Control_c, 0, 67, 67
1, 87434, Control_c, 0, 67, 74
1, 87449, Control_c, 0, 67, 94
1, 87458, Note_on_c, 0, 53, 70
1, 87463, Control_c, 0, 67, 116
1, 87478, Control_c, 0, 67, 125
1, 87493, Control_c, 0, 67, 127
1, 87498, Note_off_c, 0, 53, 60
1, 87588, Note_on_c, 0, 51, 76
1, 87732, Note_on_c, 0, 53, 71
1, 87762, Note_off_c, 0, 51, 60
1, 87783, Note_off_c, 0, 53, 61
1, 87887, Note_on_c, 0, 53, 64
1, 87926, Note_off_c, 0, 53, 61
1, 88004, Control_c, 0, 64, 29
1, 88019, Control_c, 0, 64, 34
1, 88031, Note_on_c, 0, 51, 68
1, 88034, Control_c, 0, 64, 46
1, 88049, Control_c, 0, 64, 58
1, 88063, Control_c, 0, 64, 63
1, 88078, Control_c, 0, 64, 64
1, 88093, Control_c, 0, 64, 66
1, 88108, Control_c, 0, 64, 71
1, 88123, Control_c, 0, 64, 81
1, 88138, Control_c, 0, 64, 104
1, 88153, Control_c, 0, 64, 127
1, 88166, Note_on_c, 0, 53, 64
1, 88174, Note_off_c, 0, 69, 60
1, 88183, Note_off_c, 0, 65, 58
1, 88201, Note_off_c, 0, 60, 61
1, 88205, Note_off_c, 0, 53, 59
1, 88308, Note_on_c, 0, 53, 62
1, 88328, Note_off_c, 0, 51, 58
1, 88387, Note_off_c, 0, 41, 59
1, 88461, Note_off_c, 0, 53, 37
1, 88478, Note_on_c, 0, 70, 76
1, 88497, Note_on_c, 0, 65, 57
1, 88501, Control_c, 0, 64, 95
1, 88511, Note_on_c, 0, 50, 58
1, 88511, Note_on_c, 0, 58, 50
1, 88516, Note_on_c, 0, 41, 58
1, 88516, Control_c, 0, 64, 66
1, 88530, Control_c, 0, 64, 51
1, 88545, Control_c, 0, 64, 47
1, 88560, Control_c, 0, 64, 51
1, 88575, Control_c, 0, 64, 60
1, 88590, Control_c, 0, 64, 71
1, 88604, Control_c, 0, 64, 92
1, 88608, Note_off_c, 0, 58, 54
1, 88608, Note_off_c, 0, 72, 56
1, 88619, Control_c, 0, 64, 127
1, 88645, Note_on_c, 0, 53, 69
1, 88656, Note_off_c, 0, 70, 62
1, 88693, Control_c, 0, 67, 99
1, 88709, Control_c, 0, 67, 64
1, 88717, Note_on_c, 0, 69, 79
1, 88724, Control_c, 0, 67, 0
1, 88727, Note_on_c, 0, 57, 52
1, 88758, Note_off_c, 0, 65, 61
1, 88774, Note_off_c, 0, 50, 51
1, 88776, Note_off_c, 0, 57, 65
1, 88782, Note_off_c, 0, 53, 37
1, 88826, Note_on_c, 0, 48, 71
1, 88863, Note_off_c, 0, 41, 59
1, 88885, Note_off_c, 0, 48, 59
1, 89042, Note_on_c, 0, 74, 80
1, 89055, Note_on_c, 0, 46, 58
1, 89056, Note_on_c, 0, 41, 54
1, 89059, Note_on_c, 0, 62, 39
1, 89062, Note_on_c, 0, 65, 60
1, 89079, Control_c, 0, 64, 105
1, 89094, Control_c, 0, 64, 73
1, 89109, Control_c, 0, 64, 53
1, 89124, Control_c, 0, 64, 0
1, 89163, Note_off_c, 0, 69, 35
1, 89205, Control_c, 0, 64, 38
1, 89219, Note_off_c, 0, 62, 39
1, 89220, Control_c, 0, 64, 60
1, 89230, Note_off_c, 0, 74, 65
1, 89235, Control_c, 0, 64, 74
1, 89247, Note_on_c, 0, 53, 62
1, 89250, Control_c, 0, 64, 90
1, 89265, Control_c, 0, 64, 127
1, 89287, Note_off_c, 0, 65, 60
1, 89295, Note_off_c, 0, 53, 57
1, 89384, Note_on_c, 0, 53, 68
1, 89430, Note_off_c, 0, 41, 63
1, 89446, Note_off_c, 0, 53, 56
1, 89449, Note_off_c, 0, 46, 56
1, 89532, Note_on_c, 0, 69, 74
1, 89539, Note_on_c, 0, 57, 57
1, 89541, Note_on_c, 0, 65, 63
1, 89542, Note_on_c, 0, 48, 74
1, 89542, Note_on_c, 0, 41, 68
1, 89575, Control_c, 0, 64, 87
1, 89590, Control_c, 0, 64, 64
1, 89605, Control_c, 0, 64, 40
1, 89620, Control_c, 0, 64, 0
1, 89664, Control_c, 0, 64, 45
1, 89679, Control_c, 0, 64, 64
1, 89684, Note_on_c, 0, 53, 69
1, 89694, Control_c, 0, 64, 80
1, 89709, Control_c, 0, 64, 107
1, 89721, Note_off_c, 0, 57, 62
1, 89724, Control_c, 0, 64, 127
1, 89739, Note_off_c, 0, 53, 60
1, 89744, Note_off_c, 0, 65, 61
1, 89819, Note_on_c, 0, 53, 75
1, 89843, Note_off_c, 0, 48, 62
1, 89867, Note_off_c, 0, 41, 63
1, 89898, Note_off_c, 0, 53, 58
1, 89978, Note_on_c, 0, 70, 88
1, 89980, Note_on_c, 0, 50, 75
1, 89980, Note_on_c, 0, 41, 73
1, 89987, Note_on_c, 0, 65, 68
1, 89992, Note_on_c, 0, 58, 71
1, 90022, Note_off_c, 0, 69, 51
1, 90027, Control_c, 0, 64, 79
1, 90042, Control_c, 0, 64, 55
1, 90057, Control_c, 0, 64, 35
1, 90072, Control_c, 0, 64, 30
1, 90087, Control_c, 0, 64, 34
1, 90101, Control_c, 0, 64, 49
1, 90116, Control_c, 0, 64, 65
1, 90131, Note_on_c, 0, 53, 73
1, 90131, Control_c, 0, 64, 80
1, 90138, Note_off_c, 0, 58, 52
1, 90146, Control_c, 0, 64, 117
1, 90161, Control_c, 0, 64, 127
1, 90207, Note_off_c, 0, 53, 61
1, 90223, Note_off_c, 0, 65, 57
1, 90256, Note_off_c, 0, 70, 62
1, 90284, Note_on_c, 0, 53, 81
1, 90316, Note_off_c, 0, 50, 63
1, 90335, Note_off_c, 0, 41, 64
1, 90351, Note_off_c, 0, 53, 61
1, 90457, Note_on_c, 0, 72, 84
1, 90462, Note_on_c, 0, 41, 73
1, 90463, Note_on_c, 0, 69, 80
1, 90464, Note_on_c, 0, 65, 69
1, 90466, Note_on_c, 0, 51, 74
1, 90468, Note_on_c, 0, 60, 64
1, 90517, Control_c, 0, 64, 77
1, 90531, Control_c, 0, 64, 54
1, 90546, Control_c, 0, 64, 0
1, 90617, Note_off_c, 0, 60, 51
1, 90621, Control_c, 0, 64, 33
1, 90636, Control_c, 0, 64, 56
1, 90650, Control_c, 0, 64, 70
1, 90660, Note_on_c, 0, 53, 74
1, 90665, Control_c, 0, 64, 82
1, 90687, Control_c, 0, 64, 98
1, 90695, Note_off_c, 0, 72, 58
1, 90702, Control_c, 0, 64, 127
1, 90740, Note_off_c, 0, 53, 61
1, 90761, Note_off_c, 0, 65, 62
1, 90761, Note_off_c, 0, 69, 59
1, 90841, Note_on_c, 0, 53, 74
1, 90869, Note_off_c, 0, 41, 62
1, 90883, Note_off_c, 0, 51, 62
1, 90906, Note_off_c, 0, 53, 61
1, 91118, Control_c, 0, 67, 45
1, 91131, Note_on_c, 0, 72, 80
1, 91133, Control_c, 0, 67, 45
1, 91140, Note_on_c, 0, 69, 67
1, 91147, Control_c, 0, 67, 46
1, 91151, Note_on_c, 0, 41, 61
1, 91151, Note_on_c, 0, 51, 65
1, 91160, Note_on_c, 0, 65, 50
1, 91162, Control_c, 0, 67, 50
1, 91169, Note_on_c, 0, 60, 50
1, 91177, Control_c, 0, 67, 67
1, 91192, Control_c, 0, 64, 101
1, 91192, Control_c, 0, 67, 99
1, 91207, Control_c, 0, 64, 79
1, 91207, Control_c, 0, 67, 120
1, 91221, Control_c, 0, 64, 62
1, 91221, Control_c, 0, 67, 123
1, 91236, Control_c, 0, 64, 44
1, 91236, Control_c, 0, 67, 127
1, 91251, Control_c, 0, 64, 29
1, 91265, Control_c, 0, 64, 0
1, 91339, Control_c, 0, 64, 33
1, 91354, Control_c, 0, 64, 48
1, 91369, Control_c, 0, 64, 61
1, 91384, Control_c, 0, 64, 64
1, 91399, Control_c, 0, 64, 67
1, 91421, Control_c, 0, 64, 71
1, 91436, Control_c, 0, 64, 79
1, 91451, Control_c, 0, 64, 94
1, 91466, Control_c, 0, 64, 127
1, 91505, Note_on_c, 0, 53, 55
1, 91548, Note_off_c, 0, 41, 51
1, 91549, Note_off_c, 0, 51, 60
1, 91571, Note_off_c, 0, 53, 61
1, 91704, Note_on_c, 0, 53, 45
1, 91754, Note_off_c, 0, 53, 63
1, 91861, Note_on_c, 0, 53, 46
1, 91901, Note_off_c, 0, 53, 50
1, 91994, Note_on_c, 0, 53, 48
1, 92046, Note_off_c, 0, 53, 47
1, 92159, Note_on_c, 0, 53, 38
1, 92200, Note_off_c, 0, 53, 53
1, 92314, Note_on_c, 0, 53, 38
1, 92354, Note_off_c, 0, 53, 49
1, 92457, Note_on_c, 0, 53, 38
1, 92499, Note_off_c, 0, 53, 48
1, 92608, Note_on_c, 0, 53, 40
1, 92644, Note_off_c, 0, 53, 53
1, 92749, Note_on_c, 0, 53, 48
1, 92783, Note_off_c, 0, 53, 61
1, 92894, Note_on_c, 0, 53, 47
1, 92943, Note_off_c, 0, 72, 56
1, 92961, Note_off_c, 0, 53, 45
1, 93011, Note_off_c, 0, 69, 46
1, 93013, Note_off_c, 0, 60, 26
1, 93046, Note_off_c, 0, 65, 57
1, 93059, Note_on_c, 0, 53, 26
1, 93120, Note_off_c, 0, 53, 56
1, 93290, Note_on_c, 0, 71, 45
1, 93302, Note_on_c, 0, 65, 31
1, 93313, Note_on_c, 0, 68, 36
1, 93316, Note_on_c, 0, 50, 30
1, 93316, Note_on_c, 0, 62, 32
1, 93323, Note_on_c, 0, 41, 35
1, 93348, Control_c, 0, 64, 120
1, 93363, Control_c, 0, 64, 80
1, 93378, Control_c, 0, 64, 62
1, 93393, Control_c, 0, 64, 48
1, 93408, Control_c, 0, 64, 43
1, 93423, Control_c, 0, 64, 45
1, 93437, Control_c, 0, 64, 50
1, 93452, Control_c, 0, 64, 60
1, 93467, Control_c, 0, 64, 68
1, 93482, Control_c, 0, 64, 78
1, 93497, Control_c, 0, 64, 90
1, 93512, Control_c, 0, 64, 98
1, 93513, Note_on_c, 0, 53, 43
1, 93521, Note_off_c, 0, 41, 43
1, 93527, Control_c, 0, 64, 104
1, 93541, Note_off_c, 0, 50, 38
1, 93542, Control_c, 0, 64, 110
1, 93557, Control_c, 0, 64, 127
1, 93567, Note_off_c, 0, 53, 56
1, 93691, Note_on_c, 0, 53, 29
1, 93724, Note_off_c, 0, 53, 55
1, 93820, Note_on_c, 0, 53, 46
1, 93858, Note_off_c, 0, 53, 57
1, 93952, Note_off_c, 0, 62, 40
1, 93976, Note_on_c, 0, 53, 42
1, 94021, Note_off_c, 0, 53, 54
1, 94138, Note_on_c, 0, 53, 34
1, 94168, Note_off_c, 0, 65, 38
1, 94178, Note_off_c, 0, 53, 51
1, 94277, Note_on_c, 0, 53, 39
1, 94320, Note_off_c, 0, 53, 49
1, 94326, Note_off_c, 0, 71, 61
1, 94329, Note_off_c, 0, 68, 58
1, 94454, Note_on_c, 0, 53, 25
1, 94490, Note_off_c, 0, 53, 55
1, 94600, Note_on_c, 0, 53, 16
1, 94641, Note_off_c, 0, 53, 53
1, 94747, Note_on_c, 0, 53, 45
1, 94753, Note_on_c, 0, 71, 58
1, 94772, Note_on_c, 0, 68, 38
1, 94782, Note_on_c, 0, 65, 19
1, 94785, Note_off_c, 0, 53, 58
1, 94902, Note_on_c, 0, 53, 38
1, 94910, Note_off_c, 0, 65, 29
1, 94917, Note_off_c, 0, 71, 58
1, 94939, Note_off_c, 0, 53, 49
1, 94966, Note_off_c, 0, 68, 37
1, 95059, Note_on_c, 0, 53, 46
1, 95099, Note_off_c, 0, 53, 59
1, 95274, Note_on_c, 0, 71, 59
1, 95282, Note_on_c, 0, 68, 42
1, 95289, Note_on_c, 0, 65, 29
1, 95304, Note_on_c, 0, 53, 40
1, 95547, Note_on_c, 0, 44, 48
1, 95585, Note_off_c, 0, 44, 61
1, 95664, Note_off_c, 0, 53, 39
1, 95709, Note_on_c, 0, 44, 52
1, 95763, Note_off_c, 0, 44, 59
1, 95867, Note_on_c, 0, 44, 57
1, 95917, Note_off_c, 0, 44, 59
1, 96007, Note_on_c, 0, 44, 68
1, 96054, Note_off_c, 0, 44, 61
1, 96141, Note_on_c, 0, 44, 73
1, 96194, Note_off_c, 0, 44, 62
1, 96205, Note_off_c, 0, 71, 57
1, 96266, Note_on_c, 0, 44, 72
1, 96306, Note_off_c, 0, 68, 56
1, 96320, Note_off_c, 0, 44, 63
1, 96389, Control_c, 0, 67, 123
1, 96396, Note_on_c, 0, 44, 79
1, 96397, Note_off_c, 0, 65, 27
1, 96404, Control_c, 0, 67, 104
1, 96419, Control_c, 0, 67, 90
1, 96434, Control_c, 0, 67, 87
1, 96443, Note_off_c, 0, 44, 64
1, 96449, Control_c, 0, 67, 85
1, 96463, Control_c, 0, 67, 82
1, 96478, Control_c, 0, 67, 71
1, 96493, Control_c, 0, 67, 58
1, 96508, Control_c, 0, 67, 57
1, 96517, Note_on_c, 0, 44, 80
1, 96537, Control_c, 0, 67, 57
1, 96552, Control_c, 0, 67, 55
1, 96569, Note_off_c, 0, 44, 64
1, 96596, Control_c, 0, 67, 56
1, 96611, Control_c, 0, 67, 55
1, 96626, Control_c, 0, 67, 53
1, 96656, Control_c, 0, 67, 56
1, 96659, Note_on_c, 0, 44, 88
1, 96702, Note_on_c, 0, 74, 87
1, 96708, Control_c, 0, 67, 54
1, 96714, Note_on_c, 0, 71, 71
1, 96723, Note_on_c, 0, 65, 61
1, 96729, Note_on_c, 0, 68, 45
1, 96757, Note_off_c, 0, 44, 60
1, 96767, Control_c, 0, 67, 53
1, 96782, Control_c, 0, 67, 49
1, 96797, Control_c, 0, 67, 34
1, 96802, Note_off_c, 0, 65, 53
1, 96810, Note_off_c, 0, 71, 58
1, 96812, Control_c, 0, 67, 0
1, 96818, Note_on_c, 0, 44, 72
1, 96833, Note_off_c, 0, 68, 34
1, 96836, Note_off_c, 0, 74, 58
1, 96884, Note_off_c, 0, 44, 62
1, 96922, Poly_aftertouch_c, 0, 65, 127
1, 96957, Note_on_c, 0, 44, 84
1, 96973, Poly_aftertouch_c, 0, 65, 0
1, 97011, Note_off_c, 0, 44, 63
1, 97149, Note_on_c, 0, 44, 88
1, 97154, Note_on_c, 0, 74, 90
1, 97161, Note_on_c, 0, 71, 75
1, 97164, Note_on_c, 0, 65, 72
1, 97164, Note_on_c, 0, 68, 68
1, 97272, Control_c, 0, 64, 108
1, 97286, Control_c, 0, 64, 63
1, 97301, Control_c, 0, 64, 0
1, 97318, Note_off_c, 0, 44, 61
1, 97342, Note_on_c, 0, 37, 87
1, 97355, Note_on_c, 0, 44, 43
1, 97361, Control_c, 0, 64, 50
1, 97373, Note_off_c, 0, 44, 64
1, 97376, Control_c, 0, 64, 77
1, 97390, Control_c, 0, 64, 127
1, 97426, Note_off_c, 0, 37, 62
1, 97486, Note_on_c, 0, 37, 82
1, 97545, Note_off_c, 0, 37, 62
1, 97617, Note_on_c, 0, 37, 88
1, 97683, Note_off_c, 0, 37, 62
1, 97759, Note_on_c, 0, 37, 88
1, 97828, Note_off_c, 0, 37, 61
1, 97903, Note_on_c, 0, 37, 95
1, 97938, Note_off_c, 0, 74, 59
1, 98000, Note_off_c, 0, 37, 62
1, 98085, Note_on_c, 0, 37, 98
1, 98086, Note_on_c, 0, 73, 95
1, 98120, Note_off_c, 0, 65, 64
1, 98124, Note_on_c, 0, 34, 51
1, 98140, Note_off_c, 0, 68, 62
1, 98162, Note_off_c, 0, 71, 57
1, 98168, Note_off_c, 0, 34, 52
1, 98193, Note_off_c, 0, 73, 64
1, 98229, Note_off_c, 0, 37, 55
1, 98284, Note_on_c, 0, 37, 81
1, 98362, Note_off_c, 0, 37, 56
1, 98425, Note_on_c, 0, 37, 80
1, 98475, Note_off_c, 0, 37, 63
1, 98591, Control_c, 0, 64, 88
1, 98606, Control_c, 0, 64, 62
1, 98621, Control_c, 0, 64, 0
1, 98669, Note_on_c, 0, 77, 89
1, 98672, Note_on_c, 0, 73, 83
1, 98673, Note_on_c, 0, 68, 85
1, 98676, Note_on_c, 0, 71, 84
1, 98680, Control_c, 0, 64, 36
1, 98681, Note_on_c, 0, 37, 92
1, 98695, Control_c, 0, 64, 69
1, 98710, Control_c, 0, 64, 127
1, 98711, Note_on_c, 0, 70, 26
1, 98711, Note_off_c, 0, 70, 127
1, 98716, Note_off_c, 0, 68, 66
1, 98721, Note_on_c, 0, 33, 44
1, 98732, Note_off_c, 0, 77, 65
1, 98742, Note_off_c, 0, 71, 65
1, 98759, Note_off_c, 0, 73, 66
1, 98777, Poly_aftertouch_c, 0, 30, 127
1, 98785, Note_off_c, 0, 37, 61
1, 98823, Poly_aftertouch_c, 0, 30, 0
1, 98848, Note_on_c, 0, 35, 78
1, 98923, Note_off_c, 0, 33, 19
1, 98937, Note_off_c, 0, 35, 61
1, 98978, Note_on_c, 0, 33, 76
1, 99058, Note_off_c, 0, 33, 61
1, 99102, Note_on_c, 0, 32, 92
1, 99232, Note_off_c, 0, 32, 60
1, 99289, Note_on_c, 0, 30, 99
1, 99295, Note_on_c, 0, 78, 83
1, 99304, Note_on_c, 0, 73, 78
1, 99306, Note_on_c, 0, 69, 80
1, 99356, Control_c, 0, 67, 37
1, 99370, Control_c, 0, 67, 86
1, 99385, Control_c, 0, 64, 82
1, 99385, Control_c, 0, 67, 127
1, 99400, Control_c, 0, 64, 62
1, 99415, Control_c, 0, 64, 41
1, 99429, Control_c, 0, 64, 0
1, 99495, Note_off_c, 0, 69, 52
1, 99500, Note_off_c, 0, 73, 55
1, 99528, Note_off_c, 0, 78, 51
1, 99696, Note_off_c, 0, 30, 56
1, 99727, Note_on_c, 0, 73, 58
1, 99731, Note_on_c, 0, 69, 54
1, 99841, Note_off_c, 0, 73, 57
1, 99856, Note_off_c, 0, 69, 55
1, 99965, Note_on_c, 0, 73, 55
1, 99990, Note_on_c, 0, 69, 52
1, 100046, Note_off_c, 0, 73, 55
1, 100060, Control_c, 0, 64, 28
1, 100067, Note_off_c, 0, 69, 52
1, 100075, Control_c, 0, 64, 40
1, 100090, Control_c, 0, 64, 47
1, 100105, Control_c, 0, 64, 48
1, 100119, Control_c, 0, 64, 51
1, 100134, Control_c, 0, 64, 57
1, 100149, Control_c, 0, 64, 63
1, 100159, Note_on_c, 0, 73, 46
1, 100163, Control_c, 0, 64, 66
1, 100177, Note_on_c, 0, 69, 37
1, 100178, Control_c, 0, 64, 69
1, 100193, Control_c, 0, 64, 73
1, 100208, Control_c, 0, 64, 76
1, 100223, Control_c, 0, 64, 81
1, 100225, Note_off_c, 0, 73, 52
1, 100237, Note_off_c, 0, 69, 50
1, 100237, Control_c, 0, 64, 86
1, 100252, Control_c, 0, 64, 92
1, 100267, Control_c, 0, 64, 99
1, 100282, Control_c, 0, 64, 111
1, 100297, Control_c, 0, 64, 127
1, 100326, Note_on_c, 0, 73, 45
1, 100341, Note_on_c, 0, 69, 40
1, 100369, Note_off_c, 0, 73, 59
1, 100386, Note_off_c, 0, 69, 56
1, 100496, Note_on_c, 0, 73, 45
1, 100522, Note_on_c, 0, 69, 36
1, 100539, Note_off_c, 0, 73, 58
1, 100584, Note_off_c, 0, 69, 42
1, 100642, Note_on_c, 0, 73, 51
1, 100652, Note_on_c, 0, 69, 36
1, 100699, Note_off_c, 0, 73, 53
1, 100788, Note_off_c, 0, 69, 0
1, 100813, Note_on_c, 0, 69, 25
1, 100816, Note_on_c, 0, 73, 44
1, 100859, Note_off_c, 0, 73, 58
1, 100974, Note_on_c, 0, 73, 46
1, 101021, Note_off_c, 0, 73, 55
1, 101107, Note_off_c, 0, 69, 38
1, 101183, Note_on_c, 0, 78, 61
1, 101229, Note_on_c, 0, 54, 32
1, 101232, Note_on_c, 0, 61, 30
1, 101334, Control_c, 0, 64, 101
1, 101349, Control_c, 0, 64, 81
1, 101364, Control_c, 0, 64, 68
1, 101379, Control_c, 0, 64, 63
1, 101394, Control_c, 0, 64, 62
1, 101409, Control_c, 0, 64, 64
1, 101424, Control_c, 0, 64, 69
1, 101427, Note_on_c, 0, 73, 40
1, 101439, Control_c, 0, 64, 78
1, 101450, Note_on_c, 0, 69, 34
1, 101453, Control_c, 0, 64, 93
1, 101468, Control_c, 0, 64, 118
1, 101483, Control_c, 0, 64, 127
1, 101500, Note_off_c, 0, 73, 54
1, 101528, Note_off_c, 0, 69, 48
1, 101581, Note_off_c, 0, 54, 35
1, 101638, Note_on_c, 0, 73, 40
1, 101642, Note_on_c, 0, 69, 34
1, 101667, Note_off_c, 0, 61, 33
1, 101690, Note_off_c, 0, 78, 48
1, 101710, Note_off_c, 0, 73, 48
1, 101806, Note_on_c, 0, 78, 58
1, 101825, Note_off_c, 0, 69, 36
1, 101838, Note_on_c, 0, 61, 31
1, 101859, Note_on_c, 0, 54, 33
1, 101934, Control_c, 0, 64, 104
1, 101949, Control_c, 0, 64, 81
1, 101964, Control_c, 0, 64, 70
1, 101979, Control_c, 0, 64, 65
1, 102008, Control_c, 0, 64, 68
1, 102023, Control_c, 0, 64, 77
1, 102029, Note_on_c, 0, 73, 37
1, 102038, Control_c, 0, 64, 91
1, 102053, Control_c, 0, 64, 109
1, 102055, Note_on_c, 0, 69, 34
1, 102068, Control_c, 0, 64, 127
1, 102076, Note_off_c, 0, 73, 48
1, 102110, Note_off_c, 0, 69, 49
1, 102185, Note_on_c, 0, 73, 48
1, 102187, Note_on_c, 0, 69, 35
1, 102330, Note_on_c, 0, 81, 69
1, 102360, Note_off_c, 0, 73, 29
1, 102361, Note_off_c, 0, 69, 43
1, 102410, Note_off_c, 0, 78, 38
1, 102489, Note_on_c, 0, 73, 47
1, 102502, Note_on_c, 0, 59, 43
1, 102508, Note_on_c, 0, 69, 39
1, 102526, Note_off_c, 0, 61, 41
1, 102532, Note_off_c, 0, 73, 60
1, 102564, Note_off_c, 0, 69, 49
1, 102637, Note_on_c, 0, 73, 45
1, 102677, Note_on_c, 0, 69, 17
1, 102699, Note_off_c, 0, 73, 53
1, 102726, Note_off_c, 0, 69, 48
1, 102762, Note_off_c, 0, 59, 38
1, 102789, Note_on_c, 0, 78, 62
1, 102790, Note_off_c, 0, 81, 51
1, 102799, Note_on_c, 0, 57, 44
1, 102846, Control_c, 0, 64, 88
1, 102860, Control_c, 0, 64, 67
1, 102875, Control_c, 0, 64, 56
1, 102890, Control_c, 0, 64, 54
1, 102905, Control_c, 0, 64, 55
1, 102920, Control_c, 0, 64, 60
1, 102935, Control_c, 0, 64, 66
1, 102950, Note_on_c, 0, 73, 48
1, 102950, Control_c, 0, 64, 77
1, 102964, Control_c, 0, 64, 93
1, 102966, Note_on_c, 0, 69, 42
1, 102979, Control_c, 0, 64, 112
1, 102995, Control_c, 0, 64, 127
1, 103004, Note_off_c, 0, 73, 55
1, 103011, Note_off_c, 0, 69, 58
1, 103091, Note_off_c, 0, 57, 53
1, 103108, Note_off_c, 0, 54, 36
1, 103111, Note_on_c, 0, 73, 36
1, 103114, Note_on_c, 0, 69, 43
1, 103150, Note_off_c, 0, 69, 57
1, 103155, Note_off_c, 0, 73, 48
1, 103239, Note_off_c, 0, 78, 0
1, 103242, Note_on_c, 0, 81, 68
1, 103252, Note_on_c, 0, 57, 40
1, 103257, Note_on_c, 0, 54, 32
1, 103276, Poly_aftertouch_c, 0, 78, 127
1, 103327, Note_off_c, 0, 57, 63
1, 103328, Poly_aftertouch_c, 0, 78, 0
1, 103347, Note_off_c, 0, 54, 62
1, 103392, Note_on_c, 0, 73, 57
1, 103427, Note_on_c, 0, 69, 42
1, 103440, Note_off_c, 0, 73, 59
1, 103457, Note_off_c, 0, 69, 54
1, 103548, Note_on_c, 0, 69, 51
1, 103561, Note_on_c, 0, 73, 36
1, 103561, Note_off_c, 0, 81, 54
1, 103572, Note_off_c, 0, 69, 59
1, 103589, Note_off_c, 0, 73, 55
1, 103719, Note_on_c, 0, 81, 65
1, 103737, Note_on_c, 0, 57, 53
1, 103742, Note_on_c, 0, 54, 38
1, 103902, Note_on_c, 0, 73, 52
1, 103907, Control_c, 0, 64, 106
1, 103916, Note_on_c, 0, 78, 42
1, 103922, Control_c, 0, 64, 75
1, 103925, Note_off_c, 0, 73, 60
1, 103937, Control_c, 0, 64, 60
1, 103945, Note_off_c, 0, 78, 51
1, 103951, Control_c, 0, 64, 52
1, 103966, Control_c, 0, 64, 51
1, 103981, Control_c, 0, 64, 51
1, 103996, Control_c, 0, 64, 55
1, 104010, Control_c, 0, 64, 63
1, 104023, Note_on_c, 0, 73, 47
1, 104023, Note_on_c, 0, 78, 66
1, 104025, Control_c, 0, 64, 73
1, 104040, Control_c, 0, 64, 88
1, 104055, Control_c, 0, 64, 106
1, 104070, Control_c, 0, 64, 127
1, 104118, Note_off_c, 0, 73, 53
1, 104166, Note_off_c, 0, 78, 57
1, 104178, Note_on_c, 0, 85, 72
1, 104187, Note_off_c, 0, 81, 62
1, 104300, Note_on_c, 0, 78, 63
1, 104313, Note_on_c, 0, 73, 50
1, 104325, Note_on_c, 0, 56, 47
1, 104327, Note_off_c, 0, 57, 52
1, 104356, Note_off_c, 0, 78, 50
1, 104357, Note_off_c, 0, 73, 53
1, 104374, Note_off_c, 0, 54, 44
1, 104463, Note_on_c, 0, 78, 64
1, 104472, Note_on_c, 0, 73, 54
1, 104530, Note_off_c, 0, 73, 44
1, 104577, Note_off_c, 0, 56, 30
1, 104589, Note_off_c, 0, 78, 51
1, 104607, Note_off_c, 0, 85, 57
1, 104608, Note_on_c, 0, 54, 45
1, 104608, Note_on_c, 0, 81, 63
1, 104640, Control_c, 0, 64, 103
1, 104655, Control_c, 0, 64, 81
1, 104670, Control_c, 0, 64, 65
1, 104685, Control_c, 0, 64, 52
1, 104700, Control_c, 0, 64, 43
1, 104715, Control_c, 0, 64, 40
1, 104729, Control_c, 0, 64, 40
1, 104744, Control_c, 0, 64, 42
1, 104759, Control_c, 0, 64, 51
1, 104773, Note_on_c, 0, 78, 47
1, 104774, Control_c, 0, 64, 59
1, 104775, Note_on_c, 0, 73, 39
1, 104789, Control_c, 0, 64, 66
1, 104804, Control_c, 0, 64, 74
1, 104819, Control_c, 0, 64, 87
1, 104819, Note_off_c, 0, 78, 57
1, 104825, Note_off_c, 0, 73, 46
1, 104833, Control_c, 0, 64, 99
1, 104848, Control_c, 0, 64, 106
1, 104849, Note_off_c, 0, 54, 39
1, 104863, Control_c, 0, 64, 123
1, 104878, Control_c, 0, 64, 127
1, 104917, Note_on_c, 0, 78, 61
1, 104936, Note_on_c, 0, 73, 51
1, 104972, Note_off_c, 0, 78, 46
1, 104977, Note_off_c, 0, 73, 53
1, 105097, Note_on_c, 0, 85, 68
1, 105098, Note_on_c, 0, 54, 44
1, 105139, Note_off_c, 0, 81, 53
1, 105190, Note_off_c, 0, 54, 45
1, 105257, Note_on_c, 0, 78, 62
1, 105263, Note_on_c, 0, 73, 53
1, 105300, Note_off_c, 0, 73, 59
1, 105308, Note_off_c, 0, 78, 52
1, 105416, Note_on_c, 0, 78, 62
1, 105421, Note_off_c, 0, 85, 61
1, 105425, Note_on_c, 0, 73, 50
1, 105445, Note_off_c, 0, 78, 64
1, 105466, Note_off_c, 0, 73, 63
1, 105625, Note_on_c, 0, 73, 61
1, 105664, Note_on_c, 0, 54, 34
1, 105767, Control_c, 0, 64, 106
1, 105782, Control_c, 0, 64, 77
1, 105797, Control_c, 0, 64, 61
1, 105812, Control_c, 0, 64, 50
1, 105815, Note_on_c, 0, 66, 47
1, 105820, Note_on_c, 0, 69, 39
1, 105826, Control_c, 0, 64, 48
1, 105841, Control_c, 0, 64, 48
1, 105855, Note_off_c, 0, 66, 53
1, 105856, Control_c, 0, 64, 54
1, 105871, Control_c, 0, 64, 62
1, 105886, Control_c, 0, 64, 70
1, 105887, Note_off_c, 0, 69, 55
1, 105900, Control_c, 0, 64, 80
1, 105915, Control_c, 0, 64, 92
1, 105930, Control_c, 0, 64, 103
1, 105943, Note_on_c, 0, 69, 43
1, 105944, Note_on_c, 0, 66, 68
1, 105945, Control_c, 0, 64, 127
1, 105984, Note_off_c, 0, 66, 56
1, 106003, Note_off_c, 0, 69, 56
1, 106041, Note_off_c, 0, 73, 58
1, 106101, Note_on_c, 0, 56, 54
1, 106109, Note_on_c, 0, 77, 70
1, 106163, Note_off_c, 0, 54, 31
1, 106197, Control_c, 0, 64, 91
1, 106212, Control_c, 0, 64, 69
1, 106227, Control_c, 0, 64, 57
1, 106242, Control_c, 0, 64, 51
1, 106253, Note_on_c, 0, 71, 46
1, 106255, Note_on_c, 0, 65, 34
1, 106255, Note_on_c, 0, 73, 55
1, 106256, Control_c, 0, 64, 52
1, 106272, Control_c, 0, 64, 55
1, 106287, Control_c, 0, 64, 63
1, 106302, Control_c, 0, 64, 73
1, 106303, Note_off_c, 0, 65, 47
1, 106309, Note_off_c, 0, 71, 57
1, 106317, Control_c, 0, 64, 90
1, 106318, Note_off_c, 0, 73, 63
1, 106332, Control_c, 0, 64, 127
1, 106399, Note_on_c, 0, 73, 56
1, 106405, Note_on_c, 0, 65, 54
1, 106409, Note_on_c, 0, 71, 45
1, 106419, Note_off_c, 0, 77, 62
1, 106438, Note_off_c, 0, 65, 51
1, 106441, Note_off_c, 0, 71, 55
1, 106467, Note_off_c, 0, 73, 63
1, 106534, Note_off_c, 0, 56, 57
1, 106546, Note_on_c, 0, 57, 49
1, 106547, Note_on_c, 0, 78, 81
1, 106605, Control_c, 0, 64, 95
1, 106620, Control_c, 0, 64, 71
1, 106635, Control_c, 0, 64, 58
1, 106650, Control_c, 0, 64, 51
1, 106665, Control_c, 0, 64, 50
1, 106679, Note_on_c, 0, 73, 60
1, 106679, Control_c, 0, 64, 51
1, 106691, Note_on_c, 0, 66, 52
1, 106694, Note_on_c, 0, 69, 46
1, 106694, Control_c, 0, 64, 57
1, 106709, Control_c, 0, 64, 66
1, 106721, Note_off_c, 0, 66, 60
1, 106724, Control_c, 0, 64, 79
1, 106739, Control_c, 0, 64, 102
1, 106740, Note_off_c, 0, 73, 62
1, 106746, Note_off_c, 0, 69, 57
1, 106754, Control_c, 0, 64, 127
1, 106809, Note_on_c, 0, 66, 65
1, 106819, Note_on_c, 0, 73, 53
1, 106847, Note_off_c, 0, 66, 64
1, 106855, Note_off_c, 0, 78, 58
1, 106856, Note_off_c, 0, 73, 64
1, 106957, Note_on_c, 0, 80, 87
1, 106980, Note_on_c, 0, 52, 48
1, 106983, Note_on_c, 0, 59, 47
1, 106991, Control_c, 0, 64, 89
1, 106998, Note_on_c, 0, 78, 34
1, 107005, Control_c, 0, 64, 66
1, 107020, Control_c, 0, 64, 50
1, 107031, Note_off_c, 0, 78, 47
1, 107033, Note_off_c, 0, 57, 55
1, 107035, Control_c, 0, 64, 42
1, 107050, Control_c, 0, 64, 41
1, 107065, Control_c, 0, 64, 44
1, 107081, Control_c, 0, 64, 55
1, 107095, Control_c, 0, 64, 65
1, 107110, Control_c, 0, 64, 74
1, 107117, Note_on_c, 0, 76, 64
1, 107120, Note_on_c, 0, 68, 53
1, 107125, Control_c, 0, 64, 88
1, 107126, Note_on_c, 0, 74, 61
1, 107147, Control_c, 0, 64, 114
1, 107160, Note_off_c, 0, 68, 66
1, 107162, Control_c, 0, 64, 127
1, 107169, Note_off_c, 0, 74, 61
1, 107187, Note_off_c, 0, 76, 62
1, 107190, Note_off_c, 0, 59, 56
1, 107252, Note_on_c, 0, 68, 61
1, 107255, Note_on_c, 0, 76, 55
1, 107258, Note_on_c, 0, 74, 69
1, 107283, Note_off_c, 0, 68, 62
1, 107299, Note_off_c, 0, 80, 59
1, 107326, Note_off_c, 0, 74, 53
1, 107335, Note_off_c, 0, 52, 36
1, 107353, Note_off_c, 0, 76, 58
1, 107403, Note_on_c, 0, 81, 90
1, 107414, Note_on_c, 0, 57, 44
1, 107423, Note_on_c, 0, 61, 46
1, 107428, Control_c, 0, 64, 123
1, 107443, Control_c, 0, 64, 79
1, 107458, Control_c, 0, 64, 61
1, 107473, Control_c, 0, 64, 43
1, 107488, Control_c, 0, 64, 0
1, 107532, Control_c, 0, 64, 34
1, 107546, Control_c, 0, 64, 52
1, 107549, Note_on_c, 0, 73, 48
1, 107551, Note_on_c, 0, 76, 64
1, 107561, Control_c, 0, 64, 65
1, 107570, Note_on_c, 0, 69, 39
1, 107576, Control_c, 0, 64, 73
1, 107591, Control_c, 0, 64, 82
1, 107606, Control_c, 0, 64, 88
1, 107612, Note_off_c, 0, 61, 56
1, 107618, Note_off_c, 0, 73, 63
1, 107621, Note_off_c, 0, 76, 63
1, 107621, Control_c, 0, 64, 97
1, 107621, Note_off_c, 0, 69, 63
1, 107636, Control_c, 0, 64, 121
1, 107651, Control_c, 0, 64, 127
1, 107696, Note_on_c, 0, 73, 52
1, 107701, Note_on_c, 0, 76, 51
1, 107706, Note_on_c, 0, 69, 54
1, 107710, Note_off_c, 0, 57, 51
1, 107737, Note_off_c, 0, 73, 60
1, 107739, Note_off_c, 0, 69, 59
1, 107744, Note_off_c, 0, 81, 60
1, 107757, Note_off_c, 0, 76, 59
1, 107846, Note_on_c, 0, 83, 84
1, 107855, Note_on_c, 0, 56, 56
1, 107868, Note_on_c, 0, 61, 45
1, 107925, Control_c, 0, 64, 85
1, 107940, Control_c, 0, 64, 65
1, 107955, Control_c, 0, 64, 49
1, 107970, Control_c, 0, 64, 34
1, 107985, Control_c, 0, 64, 29
1, 108014, Control_c, 0, 64, 36
1, 108017, Note_on_c, 0, 71, 57
1, 108025, Note_on_c, 0, 73, 40
1, 108029, Control_c, 0, 64, 51
1, 108030, Note_on_c, 0, 77, 51
1, 108044, Control_c, 0, 64, 64
1, 108047, Note_off_c, 0, 71, 64
1, 108050, Note_off_c, 0, 73, 58
1, 108059, Control_c, 0, 64, 73
1, 108068, Note_off_c, 0, 77, 61
1, 108074, Control_c, 0, 64, 83
1, 108089, Control_c, 0, 64, 91
1, 108104, Control_c, 0, 64, 97
1, 108118, Control_c, 0, 64, 107
1, 108123, Note_off_c, 0, 61, 35
1, 108133, Control_c, 0, 64, 127
1, 108134, Note_on_c, 0, 73, 52
1, 108140, Note_on_c, 0, 71, 52
1, 108145, Note_on_c, 0, 77, 64
1, 108151, Note_off_c, 0, 56, 58
1, 108172, Note_off_c, 0, 83, 60
1, 108189, Note_off_c, 0, 73, 62
1, 108202, Note_off_c, 0, 77, 63
1, 108202, Note_off_c, 0, 71, 52
1, 108293, Note_on_c, 0, 81, 80
1, 108310, Note_on_c, 0, 54, 38
1, 108318, Note_on_c, 0, 61, 38
1, 108339, Control_c, 0, 64, 91
1, 108354, Control_c, 0, 64, 70
1, 108369, Control_c, 0, 64, 55
1, 108384, Control_c, 0, 64, 41
1, 108399, Control_c, 0, 64, 32
1, 108414, Control_c, 0, 64, 29
1, 108443, Control_c, 0, 64, 40
1, 108458, Control_c, 0, 64, 55
1, 108459, Note_on_c, 0, 78, 38
1, 108469, Note_on_c, 0, 69, 31
1, 108473, Control_c, 0, 64, 66
1, 108486, Note_on_c, 0, 73, 3
1, 108488, Control_c, 0, 64, 76
1, 108500, Note_off_c, 0, 78, 49
1, 108502, Control_c, 0, 64, 90
1, 108503, Note_off_c, 0, 69, 53
1, 108517, Control_c, 0, 64, 95
1, 108524, Note_off_c, 0, 73, 35
1, 108528, Note_off_c, 0, 61, 58
1, 108532, Control_c, 0, 64, 100
1, 108547, Control_c, 0, 64, 111
1, 108562, Control_c, 0, 64, 127
1, 108585, Note_on_c, 0, 78, 54
1, 108590, Note_on_c, 0, 69, 51
1, 108605, Note_off_c, 0, 54, 31
1, 108605, Note_off_c, 0, 81, 61
1, 108616, Note_off_c, 0, 78, 56
1, 108636, Note_off_c, 0, 69, 57
1, 108654, Poly_aftertouch_c, 0, 73, 127
1, 108691, Poly_aftertouch_c, 0, 73, 0
1, 108759, Note_on_c, 0, 62, 42
1, 108761, Note_on_c, 0, 80, 64
1, 108766, Note_on_c, 0, 52, 38
1, 108822, Control_c, 0, 64, 112
1, 108837, Control_c, 0, 64, 80
1, 108852, Control_c, 0, 64, 62
1, 108867, Control_c, 0, 64, 45
1, 108881, Control_c, 0, 64, 34
1, 108896, Control_c, 0, 64, 32
1, 108911, Control_c, 0, 64, 32
1, 108925, Control_c, 0, 64, 39
1, 108926, Note_on_c, 0, 76, 51
1, 108933, Note_on_c, 0, 71, 30
1, 108937, Note_on_c, 0, 68, 37
1, 108940, Control_c, 0, 64, 50
1, 108955, Control_c, 0, 64, 60
1, 108970, Control_c, 0, 64, 67
1, 108979, Note_off_c, 0, 62, 58
1, 108980, Note_off_c, 0, 68, 62
1, 108986, Control_c, 0, 64, 77
1, 108997, Note_off_c, 0, 76, 63
1, 109000, Control_c, 0, 64, 90
1, 109004, Note_off_c, 0, 52, 60
1, 109015, Control_c, 0, 64, 101
1, 109019, Note_off_c, 0, 71, 37
1, 109030, Control_c, 0, 64, 106
1, 109045, Control_c, 0, 64, 117
1, 109060, Control_c, 0, 64, 127
1, 109074, Note_on_c, 0, 76, 43
1, 109079, Note_on_c, 0, 71, 27
1, 109085, Note_on_c, 0, 68, 36
1, 109117, Note_off_c, 0, 76, 60
1, 109119, Note_off_c, 0, 68, 53
1, 109119, Note_off_c, 0, 71, 52
1, 109120, Note_off_c, 0, 80, 61
1, 109261, Note_on_c, 0, 80, 65
1, 109287, Note_on_c, 0, 62, 35
1, 109290, Note_on_c, 0, 52, 42
1, 109371, Control_c, 0, 64, 94
1, 109386, Control_c, 0, 64, 72
1, 109407, Control_c, 0, 64, 57
1, 109422, Control_c, 0, 64, 46
1, 109437, Control_c, 0, 64, 43
1, 109440, Note_on_c, 0, 71, 44
1, 109442, Note_on_c, 0, 68, 46
1, 109448, Note_on_c, 0, 76, 46
1, 109467, Control_c, 0, 64, 47
1, 109483, Control_c, 0, 64, 55
1, 109492, Note_off_c, 0, 68, 61
1, 109497, Control_c, 0, 64, 62
1, 109502, Note_off_c, 0, 76, 58
1, 109504, Note_off_c, 0, 71, 45
1, 109512, Control_c, 0, 64, 65
1, 109527, Control_c, 0, 64, 71
1, 109542, Control_c, 0, 64, 78
1, 109556, Control_c, 0, 64, 88
1, 109571, Control_c, 0, 64, 100
1, 109586, Control_c, 0, 64, 126
1, 109593, Note_on_c, 0, 71, 44
1, 109594, Note_on_c, 0, 68, 38
1, 109594, Note_on_c, 0, 76, 57
1, 109630, Note_off_c, 0, 68, 49
1, 109644, Note_off_c, 0, 71, 44
1, 109655, Note_off_c, 0, 76, 58
1, 109744, Note_on_c, 0, 68, 37
1, 109752, Note_off_c, 0, 62, 51
1, 109753, Note_on_c, 0, 71, 45
1, 109758, Note_on_c, 0, 76, 50
1, 109778, Note_off_c, 0, 68, 53
1, 109788, Note_off_c, 0, 52, 57
1, 109794, Note_off_c, 0, 71, 49
1, 109810, Note_off_c, 0, 76, 60
1, 109886, Note_on_c, 0, 76, 51
1, 109892, Note_on_c, 0, 71, 52
1, 109907, Note_on_c, 0, 68, 29
1, 109942, Note_off_c, 0, 68, 55
1, 109944, Note_off_c, 0, 71, 53
1, 109952, Note_off_c, 0, 76, 58
1, 110027, Note_on_c, 0, 68, 60
1, 110033, Note_on_c, 0, 71, 52
1, 110038, Note_on_c, 0, 76, 34
1, 110059, Note_off_c, 0, 68, 63
1, 110069, Note_off_c, 0, 71, 54
1, 110082, Note_off_c, 0, 76, 54
1, 110087, Note_off_c, 0, 80, 58
1, 110225, Note_on_c, 0, 80, 59
1, 110256, Note_on_c, 0, 53, 44
1, 110267, Note_on_c, 0, 61, 40
1, 110320, Control_c, 0, 64, 93
1, 110335, Control_c, 0, 64, 74
1, 110350, Control_c, 0, 64, 59
1, 110365, Control_c, 0, 64, 50
1, 110379, Control_c, 0, 64, 46
1, 110394, Control_c, 0, 64, 45
1, 110409, Control_c, 0, 64, 45
1, 110420, Note_on_c, 0, 73, 51
1, 110424, Control_c, 0, 64, 51
1, 110430, Note_on_c, 0, 68, 41
1, 110439, Control_c, 0, 64, 60
1, 110453, Control_c, 0, 64, 69
1, 110456, Poly_aftertouch_c, 0, 71, 127
1, 110468, Control_c, 0, 64, 81
1, 110480, Note_off_c, 0, 73, 52
1, 110483, Control_c, 0, 64, 92
1, 110487, Note_off_c, 0, 68, 56
1, 110498, Control_c, 0, 64, 97
1, 110505, Poly_aftertouch_c, 0, 71, 0
1, 110512, Control_c, 0, 64, 102
1, 110527, Control_c, 0, 64, 118
1, 110542, Control_c, 0, 64, 127
1, 110585, Note_off_c, 0, 61, 42
1, 110587, Note_off_c, 0, 53, 56
1, 110599, Note_on_c, 0, 73, 33
1, 110613, Note_on_c, 0, 68, 5
1, 110656, Note_off_c, 0, 73, 46
1, 110682, Poly_aftertouch_c, 0, 71, 0
1, 110685, Note_off_c, 0, 68, 55
1, 110760, Note_off_c, 0, 80, 38
1, 110804, Note_on_c, 0, 81, 54
1, 110808, Note_on_c, 0, 61, 41
1, 110838, Note_on_c, 0, 54, 22
1, 110965, Control_c, 0, 64, 87
1, 110979, Control_c, 0, 64, 69
1, 110994, Control_c, 0, 64, 55
1, 111004, Note_on_c, 0, 73, 47
1, 111009, Control_c, 0, 64, 47
1, 111020, Note_on_c, 0, 69, 46
1, 111024, Control_c, 0, 64, 45
1, 111038, Control_c, 0, 64, 46
1, 111052, Note_off_c, 0, 73, 57
1, 111053, Control_c, 0, 64, 52
1, 111069, Control_c, 0, 64, 63
1, 111076, Note_off_c, 0, 69, 51
1, 111084, Control_c, 0, 64, 74
1, 111099, Control_c, 0, 64, 89
1, 111114, Control_c, 0, 64, 106
1, 111128, Control_c, 0, 64, 116
1, 111135, Note_off_c, 0, 54, 45
1, 111143, Control_c, 0, 64, 127
1, 111186, Note_on_c, 0, 73, 49
1, 111222, Note_on_c, 0, 69, 43
1, 111243, Note_on_c, 0, 54, 37
1, 111252, Note_off_c, 0, 61, 37
1, 111326, Note_off_c, 0, 73, 49
1, 111451, Note_on_c, 0, 78, 61
1, 111520, Note_off_c, 0, 69, 41
1, 111580, Note_on_c, 0, 61, 60
1, 111684, Control_c, 0, 64, 85
1, 111699, Control_c, 0, 64, 67
1, 111708, Note_on_c, 0, 69, 42
1, 111708, Note_on_c, 0, 73, 39
1, 111714, Control_c, 0, 64, 57
1, 111728, Control_c, 0, 64, 56
1, 111743, Control_c, 0, 64, 58
1, 111758, Note_off_c, 0, 73, 60
1, 111758, Control_c, 0, 64, 64
1, 111767, Note_off_c, 0, 69, 52
1, 111773, Control_c, 0, 64, 74
1, 111788, Control_c, 0, 64, 106
1, 111802, Control_c, 0, 64, 127
1, 111850, Note_on_c, 0, 73, 61
1, 111854, Note_on_c, 0, 69, 40
1, 111896, Note_off_c, 0, 81, 56
1, 111940, Note_off_c, 0, 78, 56
1, 111993, Note_on_c, 0, 81, 77
1, 111994, Note_off_c, 0, 73, 40
1, 112004, Note_off_c, 0, 69, 58
1, 112135, Note_on_c, 0, 73, 51
1, 112172, Note_on_c, 0, 59, 54
1, 112174, Note_on_c, 0, 69, 21
1, 112183, Note_off_c, 0, 73, 56
1, 112198, Note_off_c, 0, 61, 60
1, 112226, Note_off_c, 0, 69, 47
1, 112292, Note_on_c, 0, 73, 64
1, 112329, Note_off_c, 0, 73, 59
1, 112451, Note_on_c, 0, 78, 77
1, 112452, Note_on_c, 0, 57, 66
1, 112495, Note_off_c, 0, 59, 50
1, 112506, Control_c, 0, 64, 96
1, 112521, Control_c, 0, 64, 72
1, 112527, Note_off_c, 0, 81, 50
1, 112536, Control_c, 0, 64, 59
1, 112550, Control_c, 0, 64, 53
1, 112565, Control_c, 0, 64, 54
1, 112580, Control_c, 0, 64, 58
1, 112595, Control_c, 0, 64, 68
1, 112598, Note_on_c, 0, 73, 59
1, 112610, Control_c, 0, 64, 82
1, 112615, Note_on_c, 0, 69, 48
1, 112624, Control_c, 0, 64, 127
1, 112650, Note_off_c, 0, 69, 60
1, 112651, Note_off_c, 0, 73, 57
1, 112733, Note_on_c, 0, 73, 62
1, 112736, Note_off_c, 0, 57, 59
1, 112739, Note_on_c, 0, 69, 55
1, 112745, Note_off_c, 0, 54, 39
1, 112769, Note_off_c, 0, 69, 64
1, 112799, Note_off_c, 0, 73, 59
1, 112871, Note_on_c, 0, 81, 80
1, 112885, Note_on_c, 0, 57, 47
1, 112886, Note_on_c, 0, 54, 37
1, 112909, Note_off_c, 0, 78, 57
1, 112922, Control_c, 0, 64, 85
1, 112937, Control_c, 0, 64, 69
1, 112952, Control_c, 0, 64, 64
1, 112966, Control_c, 0, 64, 65
1, 112981, Control_c, 0, 64, 71
1, 112996, Control_c, 0, 64, 95
1, 113006, Note_on_c, 0, 73, 64
1, 113011, Control_c, 0, 64, 127
1, 113033, Note_on_c, 0, 69, 54
1, 113041, Note_off_c, 0, 57, 64
1, 113064, Note_off_c, 0, 69, 64
1, 113070, Note_off_c, 0, 73, 62
1, 113070, Note_off_c, 0, 54, 62
1, 113148, Note_on_c, 0, 69, 62
1, 113157, Note_on_c, 0, 73, 63
1, 113180, Note_off_c, 0, 69, 64
1, 113185, Note_off_c, 0, 73, 67
1, 113187, Note_off_c, 0, 81, 61
1, 113317, Note_on_c, 0, 81, 73
1, 113328, Note_on_c, 0, 57, 56
1, 113329, Note_on_c, 0, 54, 58
1, 113473, Note_on_c, 0, 78, 63
1, 113475, Note_on_c, 0, 73, 43
1, 113508, Control_c, 0, 64, 90
1, 113521, Note_off_c, 0, 73, 61
1, 113523, Control_c, 0, 64, 67
1, 113532, Note_off_c, 0, 78, 60
1, 113538, Control_c, 0, 64, 53
1, 113553, Control_c, 0, 64, 48
1, 113583, Control_c, 0, 64, 50
1, 113587, Note_on_c, 0, 78, 60
1, 113597, Control_c, 0, 64, 58
1, 113602, Note_on_c, 0, 73, 62
1, 113612, Control_c, 0, 64, 68
1, 113627, Control_c, 0, 64, 82
1, 113642, Control_c, 0, 64, 108
1, 113657, Control_c, 0, 64, 127
1, 113703, Note_off_c, 0, 73, 49
1, 113737, Note_on_c, 0, 85, 84
1, 113761, Note_off_c, 0, 78, 32
1, 113767, Note_off_c, 0, 81, 65
1, 113861, Note_on_c, 0, 78, 72
1, 113869, Note_on_c, 0, 56, 60
1, 113876, Note_on_c, 0, 73, 55
1, 113900, Note_off_c, 0, 54, 60
1, 113913, Note_off_c, 0, 73, 59
1, 113929, Note_off_c, 0, 78, 60
1, 113944, Note_off_c, 0, 57, 48
1, 114012, Note_on_c, 0, 78, 69
1, 114039, Note_on_c, 0, 73, 44
1, 114046, Note_off_c, 0, 56, 50
1, 114063, Note_off_c, 0, 73, 59
1, 114154, Note_on_c, 0, 81, 75
1, 114155, Note_off_c, 0, 78, 54
1, 114160, Note_on_c, 0, 54, 51
1, 114182, Note_off_c, 0, 85, 62
1, 114212, Control_c, 0, 64, 97
1, 114227, Control_c, 0, 64, 69
1, 114241, Control_c, 0, 64, 53
1, 114256, Control_c, 0, 64, 37
1, 114272, Control_c, 0, 64, 0
1, 114301, Control_c, 0, 64, 28
1, 114309, Note_on_c, 0, 78, 53
1, 114316, Control_c, 0, 64, 42
1, 114323, Note_on_c, 0, 73, 47
1, 114331, Control_c, 0, 64, 61
1, 114346, Control_c, 0, 64, 73
1, 114356, Note_off_c, 0, 73, 54
1, 114361, Control_c, 0, 64, 91
1, 114376, Note_off_c, 0, 78, 60
1, 114376, Control_c, 0, 64, 116
1, 114391, Control_c, 0, 64, 127
1, 114397, Note_off_c, 0, 54, 57
1, 114447, Note_on_c, 0, 78, 59
1, 114449, Note_on_c, 0, 73, 54
1, 114516, Note_off_c, 0, 73, 48
1, 114547, Note_off_c, 0, 78, 54
1, 114619, Note_on_c, 0, 85, 72
1, 114620, Note_on_c, 0, 54, 45
1, 114664, Control_c, 0, 64, 92
1, 114679, Control_c, 0, 64, 74
1, 114692, Note_off_c, 0, 81, 51
1, 114694, Control_c, 0, 64, 66
1, 114709, Control_c, 0, 64, 63
1, 114724, Control_c, 0, 64, 64
1, 114738, Control_c, 0, 64, 71
1, 114753, Control_c, 0, 64, 80
1, 114765, Note_on_c, 0, 78, 61
1, 114768, Control_c, 0, 64, 90
1, 114783, Control_c, 0, 64, 96
1, 114792, Note_on_c, 0, 73, 35
1, 114798, Control_c, 0, 64, 101
1, 114812, Control_c, 0, 64, 109
1, 114826, Note_off_c, 0, 73, 52
1, 114826, Note_off_c, 0, 78, 57
1, 114827, Control_c, 0, 64, 127
1, 114836, Note_off_c, 0, 54, 57
1, 114915, Note_on_c, 0, 78, 61
1, 114930, Note_on_c, 0, 73, 41
1, 114942, Note_off_c, 0, 78, 64
1, 114942, Note_off_c, 0, 85, 61
1, 114954, Note_off_c, 0, 73, 63
1, 115107, Note_on_c, 0, 73, 65
1, 115132, Note_on_c, 0, 54, 38
1, 115227, Control_c, 0, 64, 94
1, 115241, Control_c, 0, 64, 70
1, 115256, Control_c, 0, 64, 58
1, 115271, Control_c, 0, 64, 51
1, 115285, Control_c, 0, 64, 50
1, 115298, Note_on_c, 0, 69, 51
1, 115300, Control_c, 0, 64, 51
1, 115305, Note_on_c, 0, 66, 49
1, 115315, Control_c, 0, 64, 56
1, 115330, Control_c, 0, 64, 64
1, 115344, Note_off_c, 0, 66, 66
1, 115345, Control_c, 0, 64, 76
1, 115359, Note_off_c, 0, 69, 62
1, 115359, Control_c, 0, 64, 93
1, 115374, Control_c, 0, 64, 117
1, 115397, Control_c, 0, 64, 127
1, 115428, Note_on_c, 0, 69, 43
1, 115430, Note_on_c, 0, 66, 65
1, 115464, Note_off_c, 0, 66, 59
1, 115491, Note_off_c, 0, 69, 59
1, 115518, Note_off_c, 0, 73, 59
1, 115570, Note_on_c, 0, 77, 82
1, 115585, Note_on_c, 0, 56, 59
1, 115601, Note_off_c, 0, 54, 58
1, 115649, Control_c, 0, 64, 79
1, 115663, Control_c, 0, 64, 62
1, 115678, Control_c, 0, 64, 54
1, 115693, Control_c, 0, 64, 53
1, 115708, Control_c, 0, 64, 55
1, 115713, Note_on_c, 0, 71, 45
1, 115717, Note_on_c, 0, 73, 54
1, 115720, Note_on_c, 0, 65, 39
1, 115723, Control_c, 0, 64, 62
1, 115738, Control_c, 0, 64, 72
1, 115753, Control_c, 0, 64, 91
1, 115759, Note_off_c, 0, 71, 52
1, 115760, Note_off_c, 0, 65, 49
1, 115768, Note_off_c, 0, 73, 57
1, 115768, Control_c, 0, 64, 106
1, 115783, Control_c, 0, 64, 112
1, 115798, Control_c, 0, 64, 127
1, 115838, Note_on_c, 0, 73, 58
1, 115854, Note_on_c, 0, 71, 58
1, 115862, Note_on_c, 0, 65, 44
1, 115865, Note_off_c, 0, 77, 61
1, 115888, Note_off_c, 0, 65, 57
1, 115891, Note_off_c, 0, 71, 55
1, 115917, Note_off_c, 0, 73, 62
1, 115986, Note_on_c, 0, 78, 86
1, 115995, Note_on_c, 0, 57, 48
1, 116001, Note_off_c, 0, 56, 60
1, 116036, Control_c, 0, 64, 90
1, 116051, Control_c, 0, 64, 68
1, 116065, Control_c, 0, 64, 52
1, 116080, Control_c, 0, 64, 34
1, 116095, Control_c, 0, 64, 0
1, 116124, Control_c, 0, 64, 32
1, 116127, Note_on_c, 0, 73, 65
1, 116135, Note_on_c, 0, 69, 59
1, 116146, Control_c, 0, 64, 47
1, 116150, Note_on_c, 0, 66, 45
1, 116161, Control_c, 0, 64, 61
1, 116176, Control_c, 0, 64, 70
1, 116177, Note_off_c, 0, 66, 56
1, 116191, Control_c, 0, 64, 82
1, 116201, Note_off_c, 0, 73, 63
1, 116206, Control_c, 0, 64, 109
1, 116211, Note_off_c, 0, 69, 59
1, 116221, Control_c, 0, 64, 127
1, 116257, Note_on_c, 0, 66, 69
1, 116263, Note_on_c, 0, 73, 62
1, 116295, Note_off_c, 0, 78, 59
1, 116302, Poly_aftertouch_c, 0, 69, 127
1, 116304, Note_off_c, 0, 66, 60
1, 116321, Note_off_c, 0, 73, 63
1, 116355, Poly_aftertouch_c, 0, 69, 0
1, 116410, Note_on_c, 0, 80, 86
1, 116427, Note_on_c, 0, 59, 53
1, 116428, Control_c, 0, 64, 96
1, 116432, Note_on_c, 0, 52, 53
1, 116442, Control_c, 0, 64, 71
1, 116457, Control_c, 0, 64, 56
1, 116472, Control_c, 0, 64, 48
1, 116502, Control_c, 0, 64, 51
1, 116507, Note_off_c, 0, 57, 38
1, 116516, Control_c, 0, 64, 59
1, 116531, Control_c, 0, 64, 67
1, 116546, Control_c, 0, 64, 78
1, 116561, Note_on_c, 0, 76, 62
1, 116561, Control_c, 0, 64, 95
1, 116567, Note_on_c, 0, 74, 62
1, 116571, Note_on_c, 0, 68, 55
1, 116576, Control_c, 0, 64, 118
1, 116590, Control_c, 0, 64, 127
1, 116591, Note_off_c, 0, 59, 58
1, 116605, Note_off_c, 0, 68, 65
1, 116620, Note_off_c, 0, 74, 61
1, 116629, Note_off_c, 0, 76, 64
1, 116704, Note_on_c, 0, 74, 62
1, 116705, Note_on_c, 0, 76, 54
1, 116708, Note_on_c, 0, 68, 55
1, 116729, Note_off_c, 0, 80, 48
1, 116739, Note_off_c, 0, 68, 62
1, 116778, Note_off_c, 0, 74, 56
1, 116817, Note_off_c, 0, 76, 54
1, 116853, Note_on_c, 0, 81, 85
1, 116869, Note_on_c, 0, 57, 48
1, 116872, Note_off_c, 0, 52, 22
1, 116874, Note_on_c, 0, 61, 52
1, 116910, Control_c, 0, 64, 92
1, 116925, Control_c, 0, 64, 70
1, 116939, Control_c, 0, 64, 53
1, 116954, Control_c, 0, 64, 35
1, 116969, Control_c, 0, 64, 0
1, 117014, Control_c, 0, 64, 36
1, 117017, Note_on_c, 0, 76, 59
1, 117029, Control_c, 0, 64, 52
1, 117032, Note_on_c, 0, 73, 42
1, 117036, Note_on_c, 0, 69, 44
1, 117044, Control_c, 0, 64, 63
1, 117050, Note_off_c, 0, 61, 52
1, 117058, Control_c, 0, 64, 69
1, 117064, Note_off_c, 0, 73, 57
1, 117073, Note_off_c, 0, 69, 61
1, 117073, Control_c, 0, 64, 74
1, 117076, Note_off_c, 0, 76, 63
1, 117088, Control_c, 0, 64, 80
1, 117103, Control_c, 0, 64, 87
1, 117118, Control_c, 0, 64, 99
1, 117132, Control_c, 0, 64, 127
1, 117149, Note_on_c, 0, 73, 57
1, 117157, Note_on_c, 0, 76, 55
1, 117165, Note_on_c, 0, 69, 50
1, 117180, Note_off_c, 0, 57, 60
1, 117189, Note_off_c, 0, 81, 60
1, 117206, Note_off_c, 0, 69, 56
1, 117206, Note_off_c, 0, 73, 60
1, 117214, Note_off_c, 0, 76, 64
1, 117315, Note_on_c, 0, 83, 60
1, 117326, Note_on_c, 0, 56, 46
1, 117328, Note_on_c, 0, 61, 42
1, 117399, Control_c, 0, 64, 97
1, 117413, Control_c, 0, 64, 73
1, 117428, Control_c, 0, 64, 58
1, 117443, Control_c, 0, 64, 49
1, 117459, Control_c, 0, 64, 47
1, 117478, Note_on_c, 0, 77, 51
1, 117479, Note_on_c, 0, 71, 46
1, 117488, Control_c, 0, 64, 53
1, 117500, Note_on_c, 0, 73, 9
1, 117503, Control_c, 0, 64, 61
1, 117518, Control_c, 0, 64, 67
1, 117526, Note_off_c, 0, 77, 59
1, 117527, Note_off_c, 0, 71, 43
1, 117533, Control_c, 0, 64, 74
1, 117544, Note_off_c, 0, 73, 37
1, 117548, Control_c, 0, 64, 84
1, 117562, Control_c, 0, 64, 96
1, 117577, Control_c, 0, 64, 111
1, 117592, Control_c, 0, 64, 127
1, 117610, Note_on_c, 0, 77, 50
1, 117610, Note_off_c, 0, 61, 34
1, 117611, Note_on_c, 0, 73, 45
1, 117635, Note_on_c, 0, 71, 7
1, 117637, Note_off_c, 0, 83, 58
1, 117645, Note_off_c, 0, 73, 54
1, 117648, Note_off_c, 0, 56, 56
1, 117654, Note_off_c, 0, 77, 64
1, 117687, Note_off_c, 0, 71, 49
1, 117756, Note_on_c, 0, 81, 70
1, 117758, Note_on_c, 0, 54, 43
1, 117759, Note_on_c, 0, 61, 46
1, 117807, Control_c, 0, 64, 102
1, 117822, Control_c, 0, 64, 75
1, 117837, Control_c, 0, 64, 59
1, 117851, Control_c, 0, 64, 47
1, 117866, Control_c, 0, 64, 43
1, 117881, Control_c, 0, 64, 44
1, 117896, Control_c, 0, 64, 50
1, 117909, Note_on_c, 0, 73, 49
1, 117911, Control_c, 0, 64, 60
1, 117915, Note_on_c, 0, 78, 49
1, 117923, Note_on_c, 0, 69, 43
1, 117926, Control_c, 0, 64, 68
1, 117941, Control_c, 0, 64, 77
1, 117947, Note_off_c, 0, 73, 61
1, 117955, Control_c, 0, 64, 90
1, 117958, Note_off_c, 0, 78, 57
1, 117969, Note_off_c, 0, 69, 48
1, 117970, Control_c, 0, 64, 99
1, 117985, Control_c, 0, 64, 107
1, 118000, Control_c, 0, 64, 127
1, 118004, Note_off_c, 0, 61, 54
1, 118043, Note_on_c, 0, 78, 60
1, 118048, Note_off_c, 0, 54, 33
1, 118056, Note_on_c, 0, 73, 45
1, 118075, Note_off_c, 0, 81, 63
1, 118084, Note_off_c, 0, 73, 61
1, 118101, Note_off_c, 0, 78, 58
1, 118102, Note_on_c, 0, 69, 23
1, 118145, Note_off_c, 0, 69, 53
1, 118221, Note_on_c, 0, 80, 67
1, 118225, Note_on_c, 0, 52, 45
1, 118234, Note_on_c, 0, 62, 37
1, 118252, Control_c, 0, 64, 106
1, 118267, Control_c, 0, 64, 80
1, 118282, Control_c, 0, 64, 64
1, 118297, Control_c, 0, 64, 50
1, 118311, Control_c, 0, 64, 39
1, 118326, Control_c, 0, 64, 34
1, 118341, Control_c, 0, 64, 33
1, 118356, Control_c, 0, 64, 36
1, 118378, Control_c, 0, 64, 46
1, 118393, Control_c, 0, 64, 57
1, 118396, Note_on_c, 0, 76, 53
1, 118400, Note_on_c, 0, 71, 42
1, 118408, Control_c, 0, 64, 65
1, 118423, Control_c, 0, 64, 71
1, 118436, Note_off_c, 0, 62, 57
1, 118438, Control_c, 0, 64, 76
1, 118447, Note_off_c, 0, 52, 52
1, 118448, Note_off_c, 0, 71, 46
1, 118453, Control_c, 0, 64, 80
1, 118458, Note_off_c, 0, 76, 58
1, 118460, Poly_aftertouch_c, 0, 68, 127
1, 118467, Control_c, 0, 64, 87
1, 118482, Control_c, 0, 64, 100
1, 118490, Poly_aftertouch_c, 0, 68, 0
1, 118497, Control_c, 0, 64, 127
1, 118555, Note_on_c, 0, 71, 48
1, 118569, Note_on_c, 0, 76, 46
1, 118573, Note_on_c, 0, 68, 34
1, 118583, Note_off_c, 0, 71, 55
1, 118605, Note_off_c, 0, 68, 54
1, 118606, Note_off_c, 0, 76, 55
1, 118606, Note_off_c, 0, 80, 61
1, 118755, Note_on_c, 0, 80, 61
1, 118793, Note_on_c, 0, 62, 44
1, 118798, Note_on_c, 0, 52, 36
1, 118867, Control_c, 0, 64, 90
1, 118882, Control_c, 0, 64, 72
1, 118897, Control_c, 0, 64, 60
1, 118911, Control_c, 0, 64, 50
1, 118926, Control_c, 0, 64, 48
1, 118933, Note_on_c, 0, 71, 49
1, 118936, Note_on_c, 0, 76, 47
1, 118939, Note_on_c, 0, 68, 46
1, 118941, Control_c, 0, 64, 49
1, 118956, Control_c, 0, 64, 52
1, 118971, Control_c, 0, 64, 58
1, 118984, Note_off_c, 0, 68, 53
1, 118985, Control_c, 0, 64, 63
1, 118993, Note_off_c, 0, 71, 50
1, 119000, Control_c, 0, 64, 68
1, 119006, Note_off_c, 0, 76, 58
1, 119015, Control_c, 0, 64, 76
1, 119029, Control_c, 0, 64, 85
1, 119044, Control_c, 0, 64, 92
1, 119061, Control_c, 0, 64, 98
1, 119075, Control_c, 0, 64, 104
1, 119088, Note_on_c, 0, 71, 46
1, 119090, Control_c, 0, 64, 117
1, 119098, Note_on_c, 0, 76, 42
1, 119102, Note_on_c, 0, 68, 30
1, 119105, Control_c, 0, 64, 127
1, 119150, Note_off_c, 0, 68, 49
1, 119169, Note_off_c, 0, 71, 39
1, 119172, Note_off_c, 0, 76, 58
1, 119258, Note_on_c, 0, 68, 43
1, 119260, Note_on_c, 0, 71, 45
1, 119276, Note_off_c, 0, 52, 59
1, 119294, Note_on_c, 0, 76, 20
1, 119308, Note_off_c, 0, 68, 56
1, 119338, Note_off_c, 0, 76, 49
1, 119342, Note_off_c, 0, 71, 37
1, 119425, Note_on_c, 0, 71, 41
1, 119436, Note_on_c, 0, 68, 26
1, 119452, Note_on_c, 0, 76, 29
1, 119473, Note_off_c, 0, 68, 51
1, 119489, Note_off_c, 0, 76, 51
1, 119512, Note_off_c, 0, 71, 37
1, 119567, Note_on_c, 0, 68, 49
1, 119625, Poly_aftertouch_c, 0, 71, 127
1, 119632, Note_off_c, 0, 68, 44
1, 119638, Poly_aftertouch_c, 0, 76, 127
1, 119684, Poly_aftertouch_c, 0, 71, 0
1, 119693, Note_off_c, 0, 80, 39
1, 119756, Poly_aftertouch_c, 0, 76, 0
1, 119761, Note_off_c, 0, 62, 41
1, 119773, Note_on_c, 0, 57, 36
1, 119777, Note_on_c, 0, 61, 29
1, 119780, Note_on_c, 0, 81, 54
1, 119808, Control_c, 0, 64, 121
1, 119823, Control_c, 0, 64, 84
1, 119838, Control_c, 0, 64, 64
1, 119854, Control_c, 0, 64, 52
1, 119869, Control_c, 0, 64, 46
1, 119890, Control_c, 0, 64, 45
1, 119905, Control_c, 0, 64, 46
1, 119920, Control_c, 0, 64, 51
1, 119935, Control_c, 0, 64, 61
1, 119950, Control_c, 0, 64, 70
1, 119963, Note_off_c, 0, 61, 45
1, 119965, Control_c, 0, 64, 82
1, 119980, Control_c, 0, 64, 96
1, 119995, Control_c, 0, 64, 102
1, 119997, Note_off_c, 0, 81, 63
1, 120010, Control_c, 0, 64, 110
1, 120014, Note_on_c, 0, 64, 44
1, 120024, Control_c, 0, 64, 127
1, 120057, Note_off_c, 0, 57, 40
1, 120104, Note_off_c, 0, 64, 60
1, 120224, Note_on_c, 0, 64, 50
1, 120260, Note_off_c, 0, 64, 53
1, 120457, Note_on_c, 0, 76, 76
1, 120491, Note_on_c, 0, 64, 42
1, 120543, Note_off_c, 0, 64, 47
1, 120676, Note_on_c, 0, 64, 44
1, 120736, Note_off_c, 0, 64, 51
1, 120786, Note_off_c, 0, 76, 64
1, 120917, Note_on_c, 0, 64, 36
1, 121289, Note_on_c, 0, 76, 63
1, 121292, Note_on_c, 0, 58, 40
1, 121420, Note_off_c, 0, 64, 46
1, 121446, Control_c, 0, 64, 112
1, 121462, Control_c, 0, 64, 92
1, 121477, Control_c, 0, 64, 73
1, 121492, Control_c, 0, 64, 61
1, 121507, Control_c, 0, 64, 52
1, 121522, Control_c, 0, 64, 51
1, 121536, Control_c, 0, 64, 51
1, 121543, Note_on_c, 0, 64, 31
1, 121551, Control_c, 0, 64, 53
1, 121566, Control_c, 0, 64, 59
1, 121581, Control_c, 0, 64, 64
1, 121596, Control_c, 0, 64, 70
1, 121610, Control_c, 0, 64, 80
1, 121625, Control_c, 0, 64, 90
1, 121640, Control_c, 0, 64, 99
1, 121655, Control_c, 0, 64, 106
1, 121670, Control_c, 0, 64, 127
1, 121740, Note_on_c, 0, 61, 37
1, 121744, Note_off_c, 0, 64, 43
1, 121828, Note_off_c, 0, 58, 36
1, 121874, Note_on_c, 0, 64, 33
1, 121917, Note_off_c, 0, 61, 41
1, 121983, Note_on_c, 0, 58, 37
1, 122046, Note_off_c, 0, 64, 33
1, 122129, Note_on_c, 0, 64, 39
1, 122215, Note_off_c, 0, 64, 60
1, 122222, Note_on_c, 0, 74, 61
1, 122227, Note_off_c, 0, 58, 34
1, 122249, Note_on_c, 0, 61, 35
1, 122259, Note_off_c, 0, 76, 54
1, 122316, Note_off_c, 0, 61, 43
1, 122374, Note_on_c, 0, 64, 8
1, 122424, Note_on_c, 0, 73, 70
1, 122426, Note_off_c, 0, 74, 59
1, 122427, Note_off_c, 0, 64, 48
1, 122428, Note_on_c, 0, 58, 49
1, 122543, Note_off_c, 0, 73, 62
1, 122563, Note_on_c, 0, 64, 43
1, 122609, Note_off_c, 0, 64, 60
1, 122617, Note_off_c, 0, 58, 52
1, 122630, Note_on_c, 0, 61, 49
1, 122705, Note_off_c, 0, 61, 45
1, 122722, Note_on_c, 0, 64, 47
1, 122802, Note_on_c, 0, 73, 81
1, 122811, Note_on_c, 0, 75, 9
1, 122813, Note_off_c, 0, 64, 51
1, 122818, Control_c, 0, 64, 101
1, 122833, Control_c, 0, 64, 76
1, 122845, Note_on_c, 0, 57, 40
1, 122848, Control_c, 0, 64, 64
1, 122856, Note_off_c, 0, 75, 44
1, 122863, Control_c, 0, 64, 60
1, 122900, Control_c, 0, 64, 63
1, 122915, Control_c, 0, 64, 72
1, 122930, Control_c, 0, 64, 87
1, 122945, Control_c, 0, 64, 114
1, 122957, Note_on_c, 0, 64, 41
1, 122959, Control_c, 0, 64, 127
1, 123010, Note_off_c, 0, 57, 61
1, 123012, Note_off_c, 0, 64, 60
1, 123023, Note_off_c, 0, 73, 60
1, 123077, Note_on_c, 0, 61, 10
1, 123124, Note_on_c, 0, 64, 49
1, 123137, Note_off_c, 0, 61, 43
1, 123269, Note_off_c, 0, 64, 53
1, 123274, Note_on_c, 0, 73, 56
1, 123292, Note_on_c, 0, 55, 37
1, 123390, Control_c, 0, 64, 104
1, 123405, Control_c, 0, 64, 75
1, 123407, Note_on_c, 0, 64, 40
1, 123419, Control_c, 0, 64, 62
1, 123434, Control_c, 0, 64, 54
1, 123449, Control_c, 0, 64, 53
1, 123479, Control_c, 0, 64, 56
1, 123493, Control_c, 0, 64, 62
1, 123499, Note_off_c, 0, 64, 49
1, 123508, Control_c, 0, 64, 71
1, 123523, Control_c, 0, 64, 86
1, 123532, Note_on_c, 0, 61, 41
1, 123538, Control_c, 0, 64, 109
1, 123553, Control_c, 0, 64, 127
1, 123608, Note_on_c, 0, 64, 46
1, 123629, Note_off_c, 0, 55, 35
1, 123664, Note_off_c, 0, 64, 58
1, 123667, Note_off_c, 0, 61, 35
1, 123728, Note_on_c, 0, 55, 37
1, 123812, Note_on_c, 0, 64, 46
1, 123878, Note_off_c, 0, 55, 33
1, 123892, Note_on_c, 0, 71, 64
1, 123900, Note_off_c, 0, 64, 56
1, 123918, Note_on_c, 0, 61, 40
1, 123959, Note_off_c, 0, 73, 38
1, 123974, Note_off_c, 0, 61, 46
1, 124013, Note_on_c, 0, 64, 42
1, 124052, Note_off_c, 0, 64, 51
1, 124095, Note_on_c, 0, 55, 48
1, 124096, Note_on_c, 0, 70, 65
1, 124105, Note_off_c, 0, 71, 52
1, 124180, Note_on_c, 0, 64, 48
1, 124240, Note_off_c, 0, 55, 56
1, 124254, Note_off_c, 0, 70, 46
1, 124264, Note_off_c, 0, 64, 59
1, 124299, Note_on_c, 0, 61, 32
1, 124347, Note_off_c, 0, 61, 59
1, 124386, Note_on_c, 0, 64, 48
1, 124477, Note_off_c, 0, 64, 58
1, 124490, Note_on_c, 0, 70, 66
1, 124492, Note_on_c, 0, 54, 49
1, 124508, Poly_aftertouch_c, 0, 73, 127
1, 124517, Control_c, 0, 64, 90
1, 124531, Control_c, 0, 64, 65
1, 124546, Control_c, 0, 64, 53
1, 124561, Control_c, 0, 64, 51
1, 124575, Control_c, 0, 64, 52
1, 124576, Poly_aftertouch_c, 0, 66, 127
1, 124590, Control_c, 0, 64, 58
1, 124605, Note_on_c, 0, 64, 46
1, 124605, Control_c, 0, 64, 67
1, 124620, Control_c, 0, 64, 85
1, 124635, Control_c, 0, 64, 127
1, 124663, Note_off_c, 0, 64, 60
1, 124684, Note_off_c, 0, 54, 61
1, 124705, Note_on_c, 0, 61, 47
1, 124733, Poly_aftertouch_c, 0, 66, 0
1, 124733, Note_off_c, 0, 70, 57
1, 124773, Note_off_c, 0, 61, 48
1, 124778, Note_on_c, 0, 64, 54
1, 124889, Note_off_c, 0, 64, 39
1, 124908, Note_on_c, 0, 54, 44
1, 124916, Note_on_c, 0, 70, 68
1, 124946, Control_c, 0, 64, 113
1, 124961, Control_c, 0, 64, 78
1, 124976, Control_c, 0, 64, 63
1, 124991, Poly_aftertouch_c, 0, 66, 127
1, 124991, Control_c, 0, 64, 57
1, 125006, Control_c, 0, 64, 58
1, 125020, Control_c, 0, 64, 64
1, 125025, Note_on_c, 0, 64, 48
1, 125035, Control_c, 0, 64, 77
1, 125050, Control_c, 0, 64, 112
1, 125065, Control_c, 0, 64, 127
1, 125086, Note_off_c, 0, 64, 58
1, 125086, Note_off_c, 0, 54, 58
1, 125109, Note_on_c, 0, 61, 49
1, 125146, Poly_aftertouch_c, 0, 66, 0
1, 125166, Note_off_c, 0, 70, 59
1, 125172, Note_off_c, 0, 61, 55
1, 125213, Note_on_c, 0, 64, 55
1, 125250, Note_off_c, 0, 64, 62
1, 125250, Poly_aftertouch_c, 0, 73, 0
1, 125295, Note_on_c, 0, 71, 74
1, 125310, Note_on_c, 0, 54, 56
1, 125325, Control_c, 0, 64, 93
1, 125337, Note_on_c, 0, 66, 47
1, 125339, Control_c, 0, 64, 67
1, 125354, Control_c, 0, 64, 57
1, 125369, Control_c, 0, 64, 56
1, 125384, Control_c, 0, 64, 60
1, 125391, Note_on_c, 0, 62, 65
1, 125398, Control_c, 0, 64, 68
1, 125413, Control_c, 0, 64, 87
1, 125428, Control_c, 0, 64, 127
1, 125437, Note_off_c, 0, 66, 0
1, 125438, Note_off_c, 0, 54, 38
1, 125456, Note_off_c, 0, 62, 60
1, 125467, Note_on_c, 0, 66, 10
1, 125482, Note_on_c, 0, 59, 50
1, 125520, Note_off_c, 0, 71, 58
1, 125569, Note_off_c, 0, 66, 34
1, 125575, Note_off_c, 0, 59, 61
1, 125587, Note_on_c, 0, 62, 40
1, 125629, Note_off_c, 0, 62, 61
1, 125651, Note_on_c, 0, 73, 79
1, 125660, Note_on_c, 0, 70, 70
1, 125664, Note_on_c, 0, 54, 62
1, 125667, Control_c, 0, 64, 108
1, 125682, Control_c, 0, 64, 76
1, 125691, Note_on_c, 0, 66, 40
1, 125696, Control_c, 0, 64, 62
1, 125711, Control_c, 0, 64, 57
1, 125726, Control_c, 0, 64, 57
1, 125741, Control_c, 0, 64, 63
1, 125756, Control_c, 0, 64, 77
1, 125758, Note_off_c, 0, 66, 0
1, 125769, Note_off_c, 0, 54, 55
1, 125770, Control_c, 0, 64, 112
1, 125773, Note_on_c, 0, 61, 61
1, 125785, Control_c, 0, 64, 127
1, 125796, Poly_aftertouch_c, 0, 66, 127
1, 125796, Note_off_c, 0, 73, 62
1, 125807, Note_off_c, 0, 70, 62
1, 125825, Note_off_c, 0, 61, 57
1, 125843, Poly_aftertouch_c, 0, 66, 0
1, 125850, Note_on_c, 0, 58, 59
1, 125926, Control_c, 0, 67, 121
1, 125941, Control_c, 0, 67, 116
1, 125942, Note_off_c, 0, 58, 50
1, 125943, Note_on_c, 0, 61, 59
1, 125956, Control_c, 0, 67, 112
1, 125970, Control_c, 0, 67, 106
1, 125985, Control_c, 0, 67, 102
1, 126013, Note_off_c, 0, 61, 57
1, 126022, Note_on_c, 0, 74, 87
1, 126037, Note_on_c, 0, 54, 65
1, 126044, Control_c, 0, 64, 92
1, 126045, Note_on_c, 0, 71, 61
1, 126059, Control_c, 0, 64, 64
1, 126072, Note_on_c, 0, 66, 36
1, 126074, Control_c, 0, 64, 51
1, 126089, Control_c, 0, 64, 48
1, 126103, Control_c, 0, 64, 51
1, 126106, Note_off_c, 0, 66, 50
1, 126118, Control_c, 0, 64, 60
1, 126133, Control_c, 0, 64, 73
1, 126147, Control_c, 0, 64, 100
1, 126152, Note_on_c, 0, 62, 40
1, 126162, Control_c, 0, 64, 127
1, 126162, Control_c, 0, 67, 104
1, 126191, Note_off_c, 0, 54, 51
1, 126198, Note_off_c, 0, 62, 60
1, 126204, Note_off_c, 0, 71, 26
1, 126219, Note_on_c, 0, 59, 55
1, 126222, Control_c, 0, 67, 106
1, 126237, Control_c, 0, 67, 110
1, 126266, Note_off_c, 0, 74, 56
1, 126297, Control_c, 0, 67, 112
1, 126312, Control_c, 0, 67, 114
1, 126316, Note_on_c, 0, 62, 50
1, 126329, Note_off_c, 0, 59, 60
1, 126359, Note_off_c, 0, 62, 58
1, 126371, Control_c, 0, 67, 120
1, 126380, Note_on_c, 0, 76, 81
1, 126386, Control_c, 0, 67, 122
1, 126395, Note_on_c, 0, 54, 63
1, 126395, Note_on_c, 0, 73, 59
1, 126401, Control_c, 0, 64, 87
1, 126404, Note_on_c, 0, 66, 57
1, 126416, Control_c, 0, 64, 63
1, 126430, Control_c, 0, 64, 43
1, 126445, Control_c, 0, 64, 33
1, 126445, Control_c, 0, 67, 127
1, 126460, Control_c, 0, 64, 33
1, 126475, Control_c, 0, 64, 45
1, 126490, Control_c, 0, 64, 61
1, 126505, Control_c, 0, 64, 73
1, 126514, Note_on_c, 0, 64, 31
1, 126519, Control_c, 0, 64, 89
1, 126534, Control_c, 0, 64, 111
1, 126549, Control_c, 0, 64, 127
1, 126554, Note_off_c, 0, 54, 58
1, 126558, Note_off_c, 0, 66, 52
1, 126560, Note_off_c, 0, 64, 60
1, 126579, Note_on_c, 0, 61, 53
1, 126639, Note_off_c, 0, 73, 31
1, 126650, Note_off_c, 0, 76, 41
1, 126671, Note_on_c, 0, 64, 54
1, 126681, Note_off_c, 0, 61, 48
1, 126765, Note_off_c, 0, 64, 61
1, 126782, Note_on_c, 0, 76, 77
1, 126791, Note_on_c, 0, 55, 54
1, 126798, Note_on_c, 0, 73, 53
1, 126808, Control_c, 0, 64, 82
1, 126823, Control_c, 0, 64, 62
1, 126838, Control_c, 0, 64, 46
1, 126852, Control_c, 0, 64, 41
1, 126863, Poly_aftertouch_c, 0, 67, 127
1, 126867, Control_c, 0, 64, 42
1, 126882, Control_c, 0, 64, 51
1, 126889, Note_on_c, 0, 64, 44
1, 126897, Control_c, 0, 64, 62
1, 126912, Control_c, 0, 64, 70
1, 126915, Poly_aftertouch_c, 0, 67, 0
1, 126926, Control_c, 0, 64, 80
1, 126933, Note_off_c, 0, 55, 59
1, 126941, Control_c, 0, 64, 89
1, 126946, Note_off_c, 0, 64, 59
1, 126955, Control_c, 0, 64, 97
1, 126964, Note_on_c, 0, 61, 51
1, 126970, Control_c, 0, 64, 112
1, 126983, Note_off_c, 0, 76, 55
1, 126985, Control_c, 0, 64, 127
1, 126986, Note_off_c, 0, 73, 51
1, 127064, Note_on_c, 0, 64, 50
1, 127066, Note_off_c, 0, 61, 51
1, 127139, Note_off_c, 0, 64, 42
1, 127157, Note_on_c, 0, 56, 56
1, 127170, Note_on_c, 0, 73, 41
1, 127171, Note_on_c, 0, 76, 56
1, 127179, Control_c, 0, 64, 80
1, 127193, Control_c, 0, 64, 62
1, 127208, Control_c, 0, 64, 51
1, 127222, Note_on_c, 0, 68, 19
1, 127223, Control_c, 0, 64, 50
1, 127238, Control_c, 0, 64, 52
1, 127253, Control_c, 0, 64, 58
1, 127264, Note_on_c, 0, 64, 49
1, 127267, Control_c, 0, 64, 67
1, 127282, Control_c, 0, 64, 82
1, 127297, Control_c, 0, 64, 103
1, 127312, Control_c, 0, 64, 123
1, 127318, Note_off_c, 0, 64, 58
1, 127327, Control_c, 0, 64, 127
1, 127352, Note_off_c, 0, 56, 51
1, 127355, Note_on_c, 0, 61, 49
1, 127369, Note_off_c, 0, 76, 39
1, 127389, Note_off_c, 0, 68, 21
1, 127435, Note_off_c, 0, 73, 0
1, 127454, Note_on_c, 0, 64, 43
1, 127472, Poly_aftertouch_c, 0, 73, 127
1, 127498, Note_off_c, 0, 61, 34
1, 127527, Control_c, 0, 64, 100
1, 127540, Note_on_c, 0, 76, 57
1, 127541, Control_c, 0, 64, 73
1, 127544, Note_off_c, 0, 64, 38
1, 127554, Note_on_c, 0, 57, 50
1, 127556, Control_c, 0, 64, 60
1, 127571, Control_c, 0, 64, 54
1, 127586, Control_c, 0, 64, 55
1, 127600, Control_c, 0, 64, 60
1, 127615, Control_c, 0, 64, 69
1, 127630, Control_c, 0, 64, 83
1, 127638, Poly_aftertouch_c, 0, 73, 0
1, 127645, Control_c, 0, 64, 123
1, 127660, Control_c, 0, 64, 127
1, 127666, Note_on_c, 0, 64, 32
1, 127709, Note_off_c, 0, 64, 49
1, 127736, Note_off_c, 0, 76, 52
1, 127739, Note_off_c, 0, 57, 59
1, 127747, Note_on_c, 0, 61, 47
1, 127815, Note_on_c, 0, 64, 46
1, 127876, Note_off_c, 0, 61, 37
1, 127919, Note_off_c, 0, 64, 56
1, 127933, Note_on_c, 0, 57, 55
1, 127945, Note_on_c, 0, 76, 43
1, 127986, Control_c, 0, 64, 104
1, 128001, Control_c, 0, 64, 77
1, 128015, Control_c, 0, 64, 66
1, 128028, Note_on_c, 0, 64, 58
1, 128030, Control_c, 0, 64, 60
1, 128045, Control_c, 0, 64, 59
1, 128075, Control_c, 0, 64, 59
1, 128089, Control_c, 0, 64, 60
1, 128102, Note_off_c, 0, 64, 48
1, 128104, Control_c, 0, 64, 61
1, 128122, Note_off_c, 0, 57, 50
1, 128127, Control_c, 0, 64, 64
1, 128133, Note_on_c, 0, 61, 50
1, 128141, Control_c, 0, 64, 68
1, 128156, Control_c, 0, 64, 77
1, 128171, Control_c, 0, 64, 95
1, 128186, Control_c, 0, 64, 127
1, 128234, Note_on_c, 0, 64, 50
1, 128252, Note_off_c, 0, 61, 49
1, 128305, Note_off_c, 0, 64, 56
1, 128320, Note_on_c, 0, 58, 50
1, 128374, Note_off_c, 0, 58, 57
1, 128395, Note_off_c, 0, 76, 64
1, 128416, Note_on_c, 0, 77, 55
1, 128417, Note_on_c, 0, 64, 54
1, 128460, Note_off_c, 0, 64, 61
1, 128499, Note_on_c, 0, 76, 66
1, 128501, Note_off_c, 0, 77, 58
1, 128508, Note_on_c, 0, 61, 49
1, 128565, Note_off_c, 0, 76, 62
1, 128569, Note_off_c, 0, 61, 48
1, 128584, Note_on_c, 0, 64, 56
1, 128596, Note_on_c, 0, 74, 65
1, 128601, Control_c, 0, 64, 121
1, 128615, Control_c, 0, 64, 102
1, 128631, Control_c, 0, 64, 88
1, 128646, Control_c, 0, 64, 74
1, 128661, Control_c, 0, 64, 62
1, 128663, Note_off_c, 0, 74, 58
1, 128676, Control_c, 0, 64, 54
1, 128681, Note_off_c, 0, 64, 57
1, 128690, Note_on_c, 0, 73, 71
1, 128691, Control_c, 0, 64, 51
1, 128694, Note_on_c, 0, 58, 51
1, 128705, Control_c, 0, 64, 46
1, 128720, Control_c, 0, 64, 38
1, 128735, Control_c, 0, 64, 0
1, 128779, Control_c, 0, 64, 30
1, 128791, Note_on_c, 0, 64, 52
1, 128794, Control_c, 0, 64, 46
1, 128809, Control_c, 0, 64, 61
1, 128824, Control_c, 0, 64, 68
1, 128839, Note_off_c, 0, 64, 57
1, 128839, Control_c, 0, 64, 75
1, 128854, Control_c, 0, 64, 85
1, 128876, Control_c, 0, 64, 102
1, 128891, Control_c, 0, 64, 127
1, 128902, Note_on_c, 0, 61, 48
1, 128928, Note_off_c, 0, 58, 36
1, 128941, Note_off_c, 0, 73, 55
1, 128958, Note_on_c, 0, 64, 54
1, 128958, Note_off_c, 0, 61, 51
1, 129077, Note_off_c, 0, 64, 53
1, 129098, Note_on_c, 0, 73, 79
1, 129119, Note_on_c, 0, 57, 49
1, 129143, Control_c, 0, 64, 102
1, 129158, Control_c, 0, 64, 76
1, 129172, Control_c, 0, 64, 58
1, 129187, Control_c, 0, 64, 37
1, 129201, Control_c, 0, 64, 0
1, 129204, Note_on_c, 0, 64, 54
1, 129231, Control_c, 0, 64, 33
1, 129245, Control_c, 0, 64, 51
1, 129260, Control_c, 0, 64, 67
1, 129271, Note_off_c, 0, 64, 51
1, 129275, Control_c, 0, 64, 83
1, 129290, Control_c, 0, 64, 127
1, 129295, Note_off_c, 0, 57, 61
1, 129316, Note_on_c, 0, 61, 40
1, 129364, Control_c, 0, 67, 116
1, 129368, Note_off_c, 0, 73, 60
1, 129375, Note_off_c, 0, 61, 52
1, 129379, Control_c, 0, 67, 106
1, 129390, Note_on_c, 0, 64, 57
1, 129393, Control_c, 0, 67, 92
1, 129408, Control_c, 0, 67, 73
1, 129423, Control_c, 0, 67, 58
1, 129437, Note_off_c, 0, 64, 58
1, 129439, Control_c, 0, 67, 48
1, 129454, Control_c, 0, 67, 41
1, 129468, Control_c, 0, 67, 37
1, 129483, Control_c, 0, 67, 35
1, 129485, Note_on_c, 0, 73, 69
1, 129513, Note_on_c, 0, 55, 44
1, 129543, Control_c, 0, 67, 36
1, 129557, Control_c, 0, 67, 39
1, 129572, Control_c, 0, 64, 87
1, 129572, Control_c, 0, 67, 43
1, 129587, Control_c, 0, 64, 70
1, 129587, Control_c, 0, 67, 43
1, 129596, Note_on_c, 0, 64, 54
1, 129609, Control_c, 0, 64, 61
1, 129624, Control_c, 0, 64, 55
1, 129639, Control_c, 0, 64, 53
1, 129639, Control_c, 0, 67, 45
1, 129654, Control_c, 0, 64, 51
1, 129654, Control_c, 0, 67, 56
1, 129658, Note_off_c, 0, 64, 49
1, 129668, Control_c, 0, 64, 48
1, 129669, Note_off_c, 0, 55, 59
1, 129683, Control_c, 0, 64, 45
1, 129683, Control_c, 0, 67, 53
1, 129689, Note_on_c, 0, 61, 49
1, 129698, Control_c, 0, 64, 43
1, 129698, Control_c, 0, 67, 52
1, 129713, Control_c, 0, 64, 40
1, 129713, Control_c, 0, 67, 51
1, 129728, Control_c, 0, 64, 40
1, 129728, Control_c, 0, 67, 52
1, 129742, Control_c, 0, 67, 53
1, 129757, Note_on_c, 0, 64, 58
1, 129757, Control_c, 0, 64, 39
1, 129772, Control_c, 0, 64, 37
1, 129787, Control_c, 0, 64, 34
1, 129787, Control_c, 0, 67, 55
1, 129800, Note_off_c, 0, 61, 37
1, 129802, Control_c, 0, 64, 30
1, 129802, Control_c, 0, 67, 64
1, 129815, Note_off_c, 0, 64, 55
1, 129817, Control_c, 0, 64, 0
1, 129817, Control_c, 0, 67, 70
1, 129832, Control_c, 0, 67, 71
1, 129847, Control_c, 0, 67, 70
1, 129853, Note_on_c, 0, 55, 52
1, 129861, Control_c, 0, 67, 72
1, 129876, Control_c, 0, 67, 78
1, 129891, Control_c, 0, 67, 94
1, 129906, Control_c, 0, 67, 102
1, 129929, Note_off_c, 0, 55, 54
1, 129936, Control_c, 0, 67, 104
1, 129939, Note_off_c, 0, 73, 61
1, 129943, Note_on_c, 0, 64, 49
1, 129950, Control_c, 0, 67, 119
1, 129958, Note_on_c, 0, 74, 54
1, 129965, Control_c, 0, 67, 127
1, 129993, Note_off_c, 0, 64, 60
1, 130034, Note_off_c, 0, 74, 62
1, 130037, Note_on_c, 0, 61, 41
1, 130048, Note_on_c, 0, 73, 61
1, 130102, Note_off_c, 0, 61, 41
1, 130103, Note_on_c, 0, 64, 48
1, 130115, Note_off_c, 0, 73, 60
1, 130136, Note_on_c, 0, 71, 60
1, 130195, Note_off_c, 0, 64, 58
1, 130198, Note_off_c, 0, 71, 39
1, 130222, Note_on_c, 0, 70, 66
1, 130232, Control_c, 0, 64, 35
1, 130235, Note_on_c, 0, 55, 36
1, 130247, Control_c, 0, 64, 45
1, 130262, Control_c, 0, 64, 49
1, 130277, Control_c, 0, 64, 53
1, 130291, Control_c, 0, 64, 60
1, 130306, Control_c, 0, 64, 66
1, 130321, Control_c, 0, 64, 72
1, 130324, Note_on_c, 0, 64, 48
1, 130336, Control_c, 0, 64, 80
1, 130344, Note_off_c, 0, 55, 37
1, 130351, Control_c, 0, 64, 84
1, 130373, Control_c, 0, 64, 88
1, 130387, Note_off_c, 0, 64, 44
1, 130388, Control_c, 0, 64, 93
1, 130403, Control_c, 0, 64, 98
1, 130417, Control_c, 0, 64, 107
1, 130430, Note_on_c, 0, 61, 44
1, 130432, Control_c, 0, 64, 123
1, 130447, Control_c, 0, 64, 127
1, 130474, Note_off_c, 0, 70, 61
1, 130484, Note_off_c, 0, 61, 57
1, 130502, Note_on_c, 0, 64, 52
1, 130613, Note_on_c, 0, 70, 65
1, 130622, Note_on_c, 0, 54, 39
1, 130639, Control_c, 0, 64, 114
1, 130644, Note_off_c, 0, 64, 36
1, 130654, Control_c, 0, 64, 79
1, 130669, Control_c, 0, 64, 63
1, 130684, Control_c, 0, 64, 52
1, 130699, Control_c, 0, 64, 51
1, 130714, Control_c, 0, 64, 54
1, 130729, Control_c, 0, 64, 60
1, 130733, Note_on_c, 0, 64, 45
1, 130744, Control_c, 0, 64, 67
1, 130758, Control_c, 0, 64, 80
1, 130773, Control_c, 0, 64, 92
1, 130781, Note_off_c, 0, 54, 52
1, 130788, Control_c, 0, 64, 101
1, 130796, Note_off_c, 0, 64, 56
1, 130803, Control_c, 0, 64, 112
1, 130817, Control_c, 0, 64, 127
1, 130836, Note_on_c, 0, 61, 44
1, 130841, Note_off_c, 0, 70, 47
1, 130908, Note_off_c, 0, 61, 52
1, 130914, Note_on_c, 0, 64, 55
1, 130972, Note_off_c, 0, 64, 46
1, 131003, Note_on_c, 0, 70, 64
1, 131016, Note_on_c, 0, 54, 49
1, 131024, Control_c, 0, 64, 93
1, 131040, Control_c, 0, 64, 73
1, 131055, Control_c, 0, 64, 63
1, 131070, Control_c, 0, 64, 62
1, 131076, Poly_aftertouch_c, 0, 66, 127
1, 131085, Control_c, 0, 64, 65
1, 131100, Control_c, 0, 64, 74
1, 131122, Control_c, 0, 64, 94
1, 131126, Note_on_c, 0, 64, 61
1, 131137, Control_c, 0, 64, 127
1, 131146, Note_off_c, 0, 54, 36
1, 131170, Note_off_c, 0, 64, 60
1, 131194, Note_off_c, 0, 70, 57
1, 131215, Note_on_c, 0, 61, 42
1, 131233, Poly_aftertouch_c, 0, 66, 0
1, 131266, Note_off_c, 0, 61, 49
1, 131286, Note_on_c, 0, 64, 47
1, 131309, Note_on_c, 0, 70, 66
1, 131343, Note_on_c, 0, 66, 43
1, 131355, Note_off_c, 0, 64, 55
1, 131370, Note_off_c, 0, 66, 55
1, 131411, Note_on_c, 0, 71, 73
1, 131416, Note_on_c, 0, 54, 58
1, 131418, Control_c, 0, 64, 91
1, 131432, Control_c, 0, 64, 69
1, 131447, Control_c, 0, 64, 57
1, 131462, Control_c, 0, 64, 54
1, 131477, Control_c, 0, 64, 56
1, 131492, Control_c, 0, 64, 63
1, 131507, Control_c, 0, 64, 77
1, 131508, Note_on_c, 0, 62, 51
1, 131522, Note_off_c, 0, 70, 18
1, 131522, Control_c, 0, 64, 120
1, 131537, Control_c, 0, 64, 127
1, 131537, Control_c, 0, 67, 124
1, 131552, Control_c, 0, 67, 113
1, 131553, Note_off_c, 0, 54, 52
1, 131566, Control_c, 0, 67, 110
1, 131572, Note_off_c, 0, 62, 58
1, 131581, Control_c, 0, 67, 106
1, 131586, Note_on_c, 0, 59, 50
1, 131596, Control_c, 0, 67, 99
1, 131609, Note_off_c, 0, 71, 29
1, 131611, Control_c, 0, 67, 90
1, 131626, Control_c, 0, 67, 83
1, 131640, Control_c, 0, 67, 71
1, 131655, Control_c, 0, 67, 64
1, 131670, Control_c, 0, 67, 60
1, 131683, Note_on_c, 0, 62, 62
1, 131685, Control_c, 0, 67, 56
1, 131690, Note_on_c, 0, 71, 69
1, 131699, Note_off_c, 0, 59, 58
1, 131700, Control_c, 0, 67, 51
1, 131714, Control_c, 0, 67, 50
1, 131719, Note_off_c, 0, 62, 58
1, 131732, Note_on_c, 0, 66, 40
1, 131742, Note_off_c, 0, 71, 63
1, 131758, Control_c, 0, 64, 109
1, 131763, Note_off_c, 0, 66, 53
1, 131773, Control_c, 0, 64, 70
1, 131778, Note_on_c, 0, 73, 84
1, 131788, Note_on_c, 0, 54, 57
1, 131788, Control_c, 0, 64, 53
1, 131797, Note_on_c, 0, 70, 70
1, 131803, Control_c, 0, 64, 45
1, 131818, Control_c, 0, 64, 46
1, 131834, Control_c, 0, 64, 54
1, 131849, Control_c, 0, 64, 67
1, 131849, Control_c, 0, 67, 49
1, 131871, Control_c, 0, 64, 87
1, 131886, Control_c, 0, 64, 127
1, 131886, Poly_aftertouch_c, 0, 66, 127
1, 131895, Note_off_c, 0, 54, 57
1, 131900, Control_c, 0, 67, 48
1, 131909, Note_on_c, 0, 61, 54
1, 131915, Control_c, 0, 67, 45
1, 131930, Control_c, 0, 67, 39
1, 131945, Control_c, 0, 67, 0
1, 131950, Note_off_c, 0, 61, 60
1, 131955, Poly_aftertouch_c, 0, 66, 0
1, 131961, Note_off_c, 0, 70, 36
1, 131972, Note_off_c, 0, 73, 33
1, 131990, Note_on_c, 0, 58, 52
1, 132049, Note_off_c, 0, 58, 52
1, 132066, Note_on_c, 0, 61, 58
1, 132078, Note_on_c, 0, 70, 64
1, 132087, Note_on_c, 0, 73, 65
1, 132103, Note_on_c, 0, 66, 47
1, 132110, Note_off_c, 0, 61, 58
1, 132117, Note_off_c, 0, 73, 65
1, 132124, Note_off_c, 0, 70, 60
1, 132133, Note_off_c, 0, 66, 54
1, 132169, Note_on_c, 0, 54, 63
1, 132177, Note_on_c, 0, 74, 82
1, 132181, Control_c, 0, 64, 94
1, 132196, Note_on_c, 0, 71, 65
1, 132197, Control_c, 0, 64, 69
1, 132200, Note_on_c, 0, 66, 54
1, 132212, Control_c, 0, 64, 54
1, 132227, Control_c, 0, 64, 50
1, 132242, Control_c, 0, 64, 51
1, 132256, Control_c, 0, 64, 59
1, 132271, Control_c, 0, 64, 71
1, 132284, Note_on_c, 0, 62, 45
1, 132286, Control_c, 0, 64, 117
1, 132293, Note_off_c, 0, 66, 28
1, 132301, Control_c, 0, 64, 127
1, 132312, Note_off_c, 0, 74, 62
1, 132334, Note_off_c, 0, 71, 37
1, 132356, Note_off_c, 0, 54, 60
1, 132364, Note_off_c, 0, 62, 62
1, 132374, Note_on_c, 0, 59, 58
1, 132470, Note_on_c, 0, 74, 80
1, 132471, Note_on_c, 0, 62, 52
1, 132476, Note_off_c, 0, 59, 60
1, 132484, Note_on_c, 0, 71, 67
1, 132495, Note_on_c, 0, 66, 64
1, 132509, Note_off_c, 0, 71, 66
1, 132510, Note_off_c, 0, 62, 58
1, 132514, Note_off_c, 0, 66, 65
1, 132541, Note_on_c, 0, 54, 66
1, 132568, Control_c, 0, 64, 98
1, 132571, Note_on_c, 0, 76, 80
1, 132579, Note_on_c, 0, 66, 65
1, 132582, Control_c, 0, 64, 67
1, 132597, Control_c, 0, 64, 52
1, 132619, Control_c, 0, 64, 47
1, 132629, Note_off_c, 0, 66, 0
1, 132635, Control_c, 0, 64, 51
1, 132636, Note_on_c, 0, 73, 47
1, 132650, Control_c, 0, 64, 61
1, 132653, Note_on_c, 0, 64, 53
1, 132661, Note_off_c, 0, 74, 46
1, 132665, Control_c, 0, 64, 77
1, 132667, Poly_aftertouch_c, 0, 66, 127
1, 132680, Control_c, 0, 64, 127
1, 132715, Note_off_c, 0, 64, 59
1, 132738, Note_off_c, 0, 54, 57
1, 132747, Note_on_c, 0, 61, 56
1, 132760, Note_off_c, 0, 76, 58
1, 132786, Note_off_c, 0, 73, 38
1, 132827, Note_on_c, 0, 64, 63
1, 132830, Poly_aftertouch_c, 0, 66, 0
1, 132866, Note_on_c, 0, 66, 71
1, 132872, Note_on_c, 0, 76, 74
1, 132876, Note_off_c, 0, 61, 53
1, 132878, Note_on_c, 0, 73, 68
1, 132904, Note_off_c, 0, 73, 67
1, 132908, Note_off_c, 0, 64, 57
1, 132917, Note_off_c, 0, 66, 56
1, 132938, Note_off_c, 0, 76, 0
1, 132950, Note_on_c, 0, 76, 63
1, 132951, Note_on_c, 0, 55, 65
1, 132959, Note_on_c, 0, 73, 75
1, 132960, Control_c, 0, 64, 94
1, 132969, Note_on_c, 0, 67, 80
1, 132975, Control_c, 0, 64, 67
1, 132990, Control_c, 0, 64, 47
1, 133004, Control_c, 0, 64, 44
1, 133019, Control_c, 0, 64, 48
1, 133034, Control_c, 0, 64, 60
1, 133045, Note_on_c, 0, 64, 55
1, 133049, Control_c, 0, 64, 75
1, 133064, Control_c, 0, 64, 110
1, 133078, Control_c, 0, 64, 127
1, 133130, Note_off_c, 0, 55, 59
1, 133132, Note_off_c, 0, 64, 58
1, 133141, Note_off_c, 0, 73, 60
1, 133153, Note_off_c, 0, 76, 58
1, 133154, Note_on_c, 0, 61, 47
1, 133155, Note_off_c, 0, 67, 58
1, 133235, Note_on_c, 0, 67, 65
1, 133236, Note_on_c, 0, 73, 71
1, 133249, Note_on_c, 0, 64, 62
1, 133250, Note_on_c, 0, 76, 54
1, 133258, Note_off_c, 0, 61, 54
1, 133263, Note_off_c, 0, 67, 65
1, 133275, Note_off_c, 0, 73, 60
1, 133277, Note_off_c, 0, 76, 66
1, 133301, Control_c, 0, 64, 118
1, 133316, Note_off_c, 0, 64, 53
1, 133316, Control_c, 0, 64, 75
1, 133327, Note_on_c, 0, 73, 65
1, 133330, Control_c, 0, 64, 57
1, 133332, Note_on_c, 0, 76, 75
1, 133334, Note_on_c, 0, 56, 66
1, 133340, Note_on_c, 0, 68, 69
1, 133345, Control_c, 0, 64, 46
1, 133353, Note_on_c, 0, 77, 57
1, 133367, Control_c, 0, 64, 47
1, 133382, Note_off_c, 0, 77, 51
1, 133382, Control_c, 0, 64, 55
1, 133397, Control_c, 0, 64, 67
1, 133412, Control_c, 0, 64, 88
1, 133427, Control_c, 0, 64, 127
1, 133443, Note_on_c, 0, 64, 63
1, 133503, Note_off_c, 0, 64, 64
1, 133513, Note_off_c, 0, 68, 44
1, 133520, Note_off_c, 0, 76, 61
1, 133522, Note_on_c, 0, 61, 56
1, 133525, Note_off_c, 0, 56, 52
1, 133542, Note_off_c, 0, 73, 61
1, 133611, Note_on_c, 0, 73, 60
1, 133613, Note_on_c, 0, 68, 75
1, 133615, Note_on_c, 0, 64, 64
1, 133626, Note_on_c, 0, 76, 67
1, 133655, Note_off_c, 0, 76, 64
1, 133669, Note_off_c, 0, 68, 60
1, 133688, Note_off_c, 0, 64, 58
1, 133699, Note_off_c, 0, 73, 0
1, 133707, Note_off_c, 0, 61, 38
1, 133714, Note_on_c, 0, 73, 50
1, 133716, Poly_aftertouch_c, 0, 74, 0
1, 133719, Note_on_c, 0, 76, 89
1, 133724, Control_c, 0, 64, 82
1, 133727, Note_on_c, 0, 69, 80
1, 133729, Note_on_c, 0, 57, 59
1, 133739, Control_c, 0, 64, 62
1, 133753, Control_c, 0, 64, 49
1, 133768, Control_c, 0, 64, 48
1, 133783, Control_c, 0, 64, 51
1, 133798, Control_c, 0, 64, 61
1, 133813, Control_c, 0, 64, 78
1, 133823, Note_on_c, 0, 64, 58
1, 133827, Control_c, 0, 64, 127
1, 133860, Note_off_c, 0, 76, 64
1, 133863, Note_off_c, 0, 73, 63
1, 133911, Note_off_c, 0, 64, 62
1, 133919, Note_off_c, 0, 57, 62
1, 133933, Note_on_c, 0, 61, 54
1, 133946, Control_c, 0, 67, 45
1, 133960, Control_c, 0, 67, 59
1, 133975, Control_c, 0, 67, 60
1, 133990, Control_c, 0, 67, 63
1, 134005, Control_c, 0, 67, 76
1, 134020, Control_c, 0, 67, 119
1, 134032, Note_on_c, 0, 64, 61
1, 134035, Control_c, 0, 67, 127
1, 134042, Note_off_c, 0, 61, 48
1, 134214, Note_on_c, 0, 76, 78
1, 134217, Note_on_c, 0, 57, 48
1, 134223, Note_off_c, 0, 64, 38
1, 134280, Note_off_c, 0, 69, 60
1, 134280, Control_c, 0, 64, 86
1, 134295, Control_c, 0, 64, 67
1, 134310, Control_c, 0, 64, 55
1, 134325, Control_c, 0, 64, 43
1, 134339, Control_c, 0, 64, 36
1, 134343, Note_on_c, 0, 64, 53
1, 134354, Control_c, 0, 64, 34
1, 134369, Control_c, 0, 64, 35
1, 134383, Control_c, 0, 64, 43
1, 134398, Control_c, 0, 64, 53
1, 134413, Control_c, 0, 64, 63
1, 134415, Note_off_c, 0, 64, 57
1, 134428, Control_c, 0, 64, 72
1, 134443, Control_c, 0, 64, 84
1, 134447, Note_on_c, 0, 61, 59
1, 134458, Control_c, 0, 64, 98
1, 134473, Control_c, 0, 64, 109
1, 134474, Note_off_c, 0, 57, 53
1, 134488, Control_c, 0, 64, 117
1, 134503, Control_c, 0, 64, 126
1, 134528, Note_on_c, 0, 64, 62
1, 134542, Note_off_c, 0, 61, 58
1, 134591, Control_c, 0, 64, 110
1, 134592, Note_off_c, 0, 64, 55
1, 134602, Note_on_c, 0, 58, 71
1, 134606, Control_c, 0, 64, 92
1, 134621, Control_c, 0, 64, 76
1, 134636, Control_c, 0, 64, 63
1, 134650, Control_c, 0, 64, 55
1, 134665, Control_c, 0, 64, 51
1, 134680, Control_c, 0, 64, 48
1, 134695, Control_c, 0, 64, 47
1, 134698, Note_on_c, 0, 64, 66
1, 134710, Control_c, 0, 64, 46
1, 134724, Control_c, 0, 64, 48
1, 134739, Control_c, 0, 64, 53
1, 134753, Note_off_c, 0, 58, 0
1, 134754, Control_c, 0, 64, 59
1, 134768, Note_off_c, 0, 64, 58
1, 134769, Control_c, 0, 64, 60
1, 134783, Control_c, 0, 64, 60
1, 134784, Note_on_c, 0, 58, 7
1, 134789, Note_on_c, 0, 61, 62
1, 134798, Control_c, 0, 64, 59
1, 134834, Note_off_c, 0, 58, 51
1, 134843, Control_c, 0, 64, 60
1, 134874, Note_off_c, 0, 61, 55
1, 134876, Note_on_c, 0, 64, 68
1, 134880, Control_c, 0, 64, 59
1, 134889, Note_on_c, 0, 74, 79
1, 134937, Note_off_c, 0, 76, 51
1, 134939, Control_c, 0, 64, 58
1, 134954, Control_c, 0, 64, 54
1, 134969, Control_c, 0, 64, 48
1, 134979, Note_off_c, 0, 64, 55
1, 134983, Note_on_c, 0, 57, 60
1, 134983, Control_c, 0, 64, 39
1, 134984, Note_on_c, 0, 73, 80
1, 134994, Note_off_c, 0, 74, 59
1, 134998, Control_c, 0, 64, 0
1, 135059, Control_c, 0, 64, 35
1, 135074, Control_c, 0, 64, 52
1, 135084, Note_on_c, 0, 64, 57
1, 135088, Control_c, 0, 64, 69
1, 135103, Control_c, 0, 64, 91
1, 135118, Control_c, 0, 64, 127
1, 135124, Note_off_c, 0, 57, 53
1, 135126, Note_off_c, 0, 64, 49
1, 135148, Control_c, 0, 67, 109
1, 135150, Note_on_c, 0, 61, 64
1, 135162, Control_c, 0, 67, 87
1, 135177, Control_c, 0, 67, 68
1, 135193, Control_c, 0, 67, 50
1, 135207, Control_c, 0, 67, 0
1, 135216, Note_off_c, 0, 61, 44
1, 135227, Note_on_c, 0, 64, 64
1, 135278, Note_off_c, 0, 73, 57
1, 135322, Note_off_c, 0, 64, 55
1, 135346, Note_on_c, 0, 55, 58
1, 135355, Control_c, 0, 64, 98
1, 135357, Note_on_c, 0, 73, 79
1, 135370, Control_c, 0, 64, 71
1, 135385, Control_c, 0, 64, 55
1, 135400, Control_c, 0, 64, 47
1, 135415, Control_c, 0, 64, 48
1, 135430, Control_c, 0, 64, 54
1, 135445, Control_c, 0, 64, 65
1, 135460, Control_c, 0, 64, 82
1, 135463, Note_on_c, 0, 64, 47
1, 135470, Note_off_c, 0, 55, 59
1, 135474, Control_c, 0, 64, 127
1, 135516, Note_off_c, 0, 64, 61
1, 135516, Note_on_c, 0, 61, 49
1, 135622, Note_on_c, 0, 64, 59
1, 135656, Note_off_c, 0, 61, 36
1, 135665, Note_off_c, 0, 73, 59
1, 135668, Note_on_c, 0, 76, 67
1, 135673, Note_off_c, 0, 64, 57
1, 135689, Control_c, 0, 67, 56
1, 135704, Control_c, 0, 67, 91
1, 135719, Control_c, 0, 67, 109
1, 135726, Note_on_c, 0, 53, 56
1, 135728, Note_on_c, 0, 74, 69
1, 135733, Control_c, 0, 67, 113
1, 135748, Control_c, 0, 64, 84
1, 135748, Control_c, 0, 67, 121
1, 135763, Control_c, 0, 64, 66
1, 135763, Control_c, 0, 67, 127
1, 135775, Note_off_c, 0, 76, 57
1, 135778, Control_c, 0, 64, 52
1, 135793, Control_c, 0, 64, 40
1, 135798, Note_on_c, 0, 73, 71
1, 135802, Note_off_c, 0, 74, 62
1, 135803, Note_on_c, 0, 62, 55
1, 135807, Control_c, 0, 64, 36
1, 135822, Control_c, 0, 64, 35
1, 135838, Control_c, 0, 64, 34
1, 135853, Control_c, 0, 64, 32
1, 135858, Note_off_c, 0, 62, 56
1, 135859, Note_off_c, 0, 53, 35
1, 135868, Note_off_c, 0, 73, 63
1, 135882, Note_on_c, 0, 57, 57
1, 135883, Control_c, 0, 64, 30
1, 135893, Note_on_c, 0, 74, 76
1, 135952, Note_off_c, 0, 57, 62
1, 135970, Note_on_c, 0, 76, 74
1, 135973, Note_on_c, 0, 62, 58
1, 135973, Note_off_c, 0, 74, 40
1, 136016, Control_c, 0, 64, 0
1, 136017, Note_off_c, 0, 62, 60
1, 136027, Note_off_c, 0, 76, 58
1, 136038, Note_on_c, 0, 79, 76
1, 136050, Note_on_c, 0, 52, 65
1, 136091, Note_on_c, 0, 77, 65
1, 136138, Note_on_c, 0, 62, 53
1, 136142, Note_on_c, 0, 76, 77
1, 136142, Note_off_c, 0, 79, 59
1, 136150, Note_off_c, 0, 52, 48
1, 136175, Note_off_c, 0, 77, 62
1, 136208, Note_off_c, 0, 62, 52
1, 136216, Note_off_c, 0, 76, 63
1, 136220, Note_on_c, 0, 55, 50
1, 136236, Note_on_c, 0, 77, 69
1, 136282, Note_off_c, 0, 55, 56
1, 136297, Note_on_c, 0, 62, 58
1, 136323, Note_on_c, 0, 79, 63
1, 136336, Note_off_c, 0, 77, 59
1, 136361, Note_off_c, 0, 62, 54
1, 136421, Note_on_c, 0, 50, 48
1, 136435, Note_on_c, 0, 81, 67
1, 136437, Control_c, 0, 64, 30
1, 136452, Control_c, 0, 64, 43
1, 136467, Control_c, 0, 64, 59
1, 136482, Control_c, 0, 64, 68
1, 136489, Note_off_c, 0, 50, 54
1, 136496, Note_off_c, 0, 79, 60
1, 136497, Control_c, 0, 64, 77
1, 136512, Control_c, 0, 64, 92
1, 136521, Note_off_c, 0, 81, 66
1, 136524, Note_on_c, 0, 62, 46
1, 136527, Control_c, 0, 64, 127
1, 136586, Note_off_c, 0, 62, 51
1, 136640, Note_on_c, 0, 53, 36
1, 136684, Note_off_c, 0, 53, 49
1, 136720, Note_on_c, 0, 62, 47
1, 136809, Note_off_c, 0, 62, 40
1, 136819, Note_on_c, 0, 81, 64
1, 136834, Note_on_c, 0, 53, 41
1, 136898, Control_c, 0, 64, 86
1, 136913, Control_c, 0, 64, 67
1, 136927, Control_c, 0, 64, 55
1, 136942, Control_c, 0, 64, 51
1, 136955, Note_on_c, 0, 62, 48
1, 136957, Control_c, 0, 64, 51
1, 136971, Control_c, 0, 64, 56
1, 136986, Control_c, 0, 64, 62
1, 137001, Control_c, 0, 64, 67
1, 137016, Control_c, 0, 64, 73
1, 137031, Control_c, 0, 64, 79
1, 137035, Note_off_c, 0, 62, 45
1, 137042, Note_off_c, 0, 53, 53
1, 137045, Control_c, 0, 64, 87
1, 137049, Note_on_c, 0, 77, 66
1, 137060, Control_c, 0, 64, 98
1, 137067, Note_on_c, 0, 57, 48
1, 137074, Note_off_c, 0, 81, 63
1, 137075, Control_c, 0, 64, 127
1, 137089, Note_off_c, 0, 77, 61
1, 137138, Note_off_c, 0, 57, 61
1, 137184, Note_on_c, 0, 62, 48
1, 137338, Note_off_c, 0, 62, 48
1, 137340, Note_on_c, 0, 76, 67
1, 137360, Note_on_c, 0, 57, 49
1, 137409, Control_c, 0, 64, 84
1, 137424, Control_c, 0, 64, 65
1, 137439, Control_c, 0, 64, 50
1, 137454, Control_c, 0, 64, 40
1, 137469, Control_c, 0, 64, 35
1, 137498, Control_c, 0, 64, 41
1, 137509, Note_on_c, 0, 64, 25
1, 137513, Control_c, 0, 64, 53
1, 137527, Control_c, 0, 64, 63
1, 137542, Control_c, 0, 64, 71
1, 137557, Control_c, 0, 64, 78
1, 137572, Control_c, 0, 64, 84
1, 137587, Control_c, 0, 64, 91
1, 137590, Note_off_c, 0, 64, 51
1, 137601, Control_c, 0, 64, 100
1, 137616, Note_on_c, 0, 61, 45
1, 137616, Control_c, 0, 64, 109
1, 137631, Control_c, 0, 64, 127
1, 137681, Note_off_c, 0, 61, 54
1, 137682, Note_off_c, 0, 57, 37
1, 137707, Note_on_c, 0, 64, 43
1, 137747, Note_off_c, 0, 64, 50
1, 137779, Control_c, 0, 67, 112
1, 137788, Note_on_c, 0, 58, 53
1, 137794, Control_c, 0, 67, 101
1, 137809, Control_c, 0, 67, 98
1, 137874, Note_on_c, 0, 64, 51
1, 137890, Control_c, 0, 67, 102
1, 137934, Control_c, 0, 64, 94
1, 137949, Control_c, 0, 64, 81
1, 137950, Note_off_c, 0, 64, 57
1, 137964, Control_c, 0, 64, 76
1, 137967, Note_off_c, 0, 58, 35
1, 137978, Note_on_c, 0, 61, 44
1, 137979, Control_c, 0, 64, 75
1, 137994, Control_c, 0, 64, 78
1, 137994, Control_c, 0, 67, 97
1, 138008, Control_c, 0, 64, 87
1, 138008, Control_c, 0, 67, 95
1, 138023, Control_c, 0, 64, 98
1, 138038, Control_c, 0, 64, 113
1, 138053, Control_c, 0, 64, 127
1, 138057, Note_off_c, 0, 61, 50
1, 138064, Note_on_c, 0, 64, 55
1, 138068, Control_c, 0, 67, 91
1, 138077, Note_off_c, 0, 76, 60
1, 138079, Note_on_c, 0, 74, 66
1, 138083, Control_c, 0, 67, 84
1, 138098, Control_c, 0, 67, 68
1, 138113, Control_c, 0, 67, 64
1, 138127, Control_c, 0, 67, 62
1, 138142, Control_c, 0, 64, 101
1, 138142, Control_c, 0, 67, 58
1, 138152, Note_off_c, 0, 64, 58
1, 138157, Control_c, 0, 64, 85
1, 138157, Control_c, 0, 67, 44
1, 138172, Control_c, 0, 64, 81
1, 138172, Control_c, 0, 67, 0
1, 138175, Note_off_c, 0, 74, 52
1, 138183, Note_on_c, 0, 57, 52
1, 138185, Note_on_c, 0, 73, 72
1, 138187, Control_c, 0, 64, 82
1, 138202, Control_c, 0, 64, 93
1, 138217, Control_c, 0, 64, 127
1, 138264, Note_off_c, 0, 73, 63
1, 138276, Note_on_c, 0, 64, 60
1, 138297, Note_off_c, 0, 57, 59
1, 138345, Note_off_c, 0, 64, 61
1, 138383, Note_on_c, 0, 61, 23
1, 138453, Note_on_c, 0, 64, 58
1, 138475, Note_off_c, 0, 61, 33
1, 138557, Note_off_c, 0, 64, 54
1, 138568, Note_on_c, 0, 85, 82
1, 138579, Note_on_c, 0, 55, 58
1, 138587, Note_on_c, 0, 73, 57
1, 138610, Control_c, 0, 64, 90
1, 138625, Control_c, 0, 64, 64
1, 138640, Control_c, 0, 64, 40
1, 138655, Control_c, 0, 64, 0
1, 138685, Control_c, 0, 64, 29
1, 138696, Note_on_c, 0, 64, 58
1, 138699, Control_c, 0, 64, 50
1, 138714, Control_c, 0, 64, 70
1, 138728, Note_off_c, 0, 73, 53
1, 138729, Control_c, 0, 64, 96
1, 138744, Control_c, 0, 64, 127
1, 138780, Note_off_c, 0, 64, 60
1, 138797, Note_on_c, 0, 61, 56
1, 138822, Note_off_c, 0, 55, 57
1, 138903, Note_on_c, 0, 64, 61
1, 139010, Control_c, 0, 64, 86
1, 139026, Control_c, 0, 64, 66
1, 139039, Note_on_c, 0, 86, 80
1, 139041, Control_c, 0, 64, 59
1, 139048, Note_on_c, 0, 53, 57
1, 139051, Note_off_c, 0, 64, 58
1, 139054, Note_on_c, 0, 74, 54
1, 139055, Control_c, 0, 64, 61
1, 139070, Control_c, 0, 64, 69
1, 139076, Note_off_c, 0, 61, 54
1, 139083, Note_off_c, 0, 74, 57
1, 139085, Control_c, 0, 64, 100
1, 139100, Control_c, 0, 64, 127
1, 139111, Note_off_c, 0, 85, 59
1, 139149, Note_off_c, 0, 86, 65
1, 139196, Note_on_c, 0, 65, 57
1, 139261, Note_off_c, 0, 53, 50
1, 139312, Note_off_c, 0, 65, 37
1, 139329, Note_on_c, 0, 89, 76
1, 139347, Note_on_c, 0, 62, 59
1, 139356, Note_on_c, 0, 77, 55
1, 139397, Note_off_c, 0, 77, 45
1, 139444, Note_on_c, 0, 65, 62
1, 139525, Note_off_c, 0, 65, 57
1, 139526, Note_off_c, 0, 62, 55
1, 139533, Note_on_c, 0, 91, 90
1, 139544, Note_on_c, 0, 53, 69
1, 139545, Note_on_c, 0, 79, 69
1, 139586, Note_off_c, 0, 79, 59
1, 139626, Note_off_c, 0, 89, 57
1, 139637, Note_on_c, 0, 65, 69
1, 139668, Note_off_c, 0, 53, 54
1, 139728, Note_off_c, 0, 65, 56
1, 139734, Note_on_c, 0, 93, 96
1, 139749, Note_on_c, 0, 62, 66
1, 139752, Note_on_c, 0, 81, 62
1, 139769, Note_off_c, 0, 91, 65
1, 139779, Note_off_c, 0, 81, 66
1, 139842, Note_on_c, 0, 65, 72
1, 139943, Note_off_c, 0, 62, 38
1, 139945, Note_on_c, 0, 94, 92
1, 139947, Note_off_c, 0, 65, 57
1, 139952, Note_on_c, 0, 53, 72
1, 139958, Note_on_c, 0, 82, 78
1, 139963, Note_off_c, 0, 93, 61
1, 139980, Note_off_c, 0, 82, 70
1, 139991, Note_off_c, 0, 94, 66
1, 140074, Note_on_c, 0, 65, 64
1, 140080, Note_off_c, 0, 53, 56
1, 140164, Note_off_c, 0, 65, 56
1, 140217, Note_on_c, 0, 62, 56
1, 140316, Note_on_c, 0, 65, 66
1, 140432, Control_c, 0, 67, 34
1, 140447, Control_c, 0, 67, 49
1, 140462, Control_c, 0, 67, 86
1, 140473, Note_on_c, 0, 91, 85
1, 140476, Control_c, 0, 67, 111
1, 140477, Note_on_c, 0, 53, 66
1, 140478, Note_off_c, 0, 65, 55
1, 140482, Note_on_c, 0, 79, 70
1, 140491, Control_c, 0, 67, 119
1, 140506, Control_c, 0, 67, 127
1, 140509, Note_off_c, 0, 62, 61
1, 140521, Control_c, 0, 64, 106
1, 140536, Control_c, 0, 64, 73
1, 140551, Control_c, 0, 64, 52
1, 140566, Control_c, 0, 64, 37
1, 140581, Control_c, 0, 64, 28
1, 140595, Control_c, 0, 64, 0
1, 140623, Note_on_c, 0, 67, 66
1, 140626, Control_c, 0, 64, 36
1, 140640, Control_c, 0, 64, 55
1, 140655, Control_c, 0, 64, 71
1, 140670, Control_c, 0, 64, 97
1, 140685, Control_c, 0, 64, 127
1, 140724, Note_off_c, 0, 79, 62
1, 140734, Note_off_c, 0, 67, 58
1, 140744, Note_on_c, 0, 63, 58
1, 140770, Note_off_c, 0, 53, 53
1, 140854, Note_on_c, 0, 67, 67
1, 140880, Note_off_c, 0, 63, 56
1, 140921, Note_off_c, 0, 67, 57
1, 140948, Note_on_c, 0, 89, 83
1, 140962, Note_on_c, 0, 53, 65
1, 140972, Note_on_c, 0, 77, 67
1, 141004, Control_c, 0, 64, 81
1, 141017, Note_off_c, 0, 91, 62
1, 141019, Control_c, 0, 64, 65
1, 141033, Control_c, 0, 64, 56
1, 141048, Control_c, 0, 64, 56
1, 141063, Control_c, 0, 64, 61
1, 141078, Note_on_c, 0, 65, 53
1, 141078, Control_c, 0, 64, 69
1, 141092, Control_c, 0, 64, 85
1, 141107, Control_c, 0, 64, 127
1, 141136, Note_off_c, 0, 77, 55
1, 141140, Note_off_c, 0, 65, 55
1, 141157, Note_off_c, 0, 53, 59
1, 141171, Note_on_c, 0, 62, 59
1, 141258, Note_off_c, 0, 62, 61
1, 141260, Note_on_c, 0, 65, 62
1, 141309, Note_off_c, 0, 65, 53
1, 141359, Control_c, 0, 64, 84
1, 141374, Note_on_c, 0, 87, 83
1, 141374, Control_c, 0, 64, 64
1, 141377, Note_on_c, 0, 53, 66
1, 141389, Control_c, 0, 64, 53
1, 141397, Note_on_c, 0, 75, 58
1, 141404, Control_c, 0, 64, 49
1, 141419, Control_c, 0, 64, 48
1, 141426, Note_off_c, 0, 89, 60
1, 141434, Control_c, 0, 64, 51
1, 141448, Control_c, 0, 64, 58
1, 141463, Control_c, 0, 64, 67
1, 141478, Control_c, 0, 64, 79
1, 141493, Control_c, 0, 64, 100
1, 141499, Note_off_c, 0, 53, 48
1, 141503, Note_on_c, 0, 63, 61
1, 141508, Control_c, 0, 64, 127
1, 141561, Note_off_c, 0, 63, 61
1, 141582, Note_on_c, 0, 60, 49
1, 141616, Note_off_c, 0, 75, 41
1, 141690, Note_on_c, 0, 63, 58
1, 141702, Note_off_c, 0, 60, 57
1, 141729, Note_off_c, 0, 87, 61
1, 141743, Note_off_c, 0, 63, 54
1, 141782, Control_c, 0, 64, 87
1, 141785, Note_on_c, 0, 86, 81
1, 141797, Note_on_c, 0, 53, 55
1, 141797, Control_c, 0, 64, 64
1, 141808, Note_on_c, 0, 74, 51
1, 141812, Control_c, 0, 64, 45
1, 141827, Control_c, 0, 64, 32
1, 141871, Control_c, 0, 64, 42
1, 141886, Control_c, 0, 64, 53
1, 141892, Note_off_c, 0, 74, 57
1, 141900, Control_c, 0, 64, 61
1, 141907, Note_on_c, 0, 62, 39
1, 141915, Control_c, 0, 64, 66
1, 141931, Control_c, 0, 64, 73
1, 141946, Control_c, 0, 64, 82
1, 141961, Control_c, 0, 64, 89
1, 141968, Note_off_c, 0, 53, 51
1, 141970, Note_off_c, 0, 62, 56
1, 141975, Control_c, 0, 64, 97
1, 141989, Note_on_c, 0, 58, 57
1, 141990, Control_c, 0, 64, 108
1, 142005, Control_c, 0, 64, 127
1, 142047, Note_off_c, 0, 58, 50
1, 142081, Note_on_c, 0, 62, 54
1, 142164, Note_off_c, 0, 62, 55
1, 142182, Control_c, 0, 64, 84
1, 142190, Note_on_c, 0, 84, 72
1, 142192, Note_on_c, 0, 53, 52
1, 142197, Control_c, 0, 64, 66
1, 142213, Note_on_c, 0, 72, 35
1, 142213, Control_c, 0, 64, 53
1, 142228, Control_c, 0, 64, 47
1, 142243, Control_c, 0, 64, 46
1, 142246, Note_off_c, 0, 86, 63
1, 142258, Control_c, 0, 64, 48
1, 142272, Control_c, 0, 64, 52
1, 142287, Control_c, 0, 64, 58
1, 142302, Control_c, 0, 64, 61
1, 142315, Note_on_c, 0, 60, 47
1, 142316, Control_c, 0, 64, 64
1, 142331, Control_c, 0, 64, 68
1, 142354, Control_c, 0, 64, 76
1, 142369, Control_c, 0, 64, 86
1, 142371, Note_off_c, 0, 53, 37
1, 142378, Note_off_c, 0, 60, 58
1, 142384, Control_c, 0, 64, 95
1, 142398, Control_c, 0, 64, 99
1, 142413, Control_c, 0, 64, 104
1, 142427, Note_off_c, 0, 72, 41
1, 142428, Control_c, 0, 64, 110
1, 142432, Note_on_c, 0, 56, 42
1, 142443, Control_c, 0, 64, 117
1, 142458, Control_c, 0, 64, 126
1, 142526, Note_off_c, 0, 56, 46
1, 142530, Note_on_c, 0, 60, 40
1, 142590, Control_c, 0, 64, 115
1, 142605, Control_c, 0, 64, 104
1, 142620, Control_c, 0, 64, 91
1, 142625, Note_off_c, 0, 60, 50
1, 142632, Note_on_c, 0, 83, 62
1, 142635, Control_c, 0, 64, 78
1, 142650, Control_c, 0, 64, 65
1, 142656, Note_on_c, 0, 53, 44
1, 142660, Note_on_c, 0, 71, 36
1, 142662, Note_off_c, 0, 84, 61
1, 142664, Control_c, 0, 64, 51
1, 142679, Control_c, 0, 64, 38
1, 142694, Control_c, 0, 64, 31
1, 142724, Control_c, 0, 64, 33
1, 142739, Control_c, 0, 64, 40
1, 142754, Control_c, 0, 64, 48
1, 142769, Control_c, 0, 64, 55
1, 142779, Note_on_c, 0, 59, 51
1, 142784, Control_c, 0, 64, 61
1, 142798, Control_c, 0, 64, 65
1, 142805, Note_off_c, 0, 53, 56
1, 142813, Control_c, 0, 64, 70
1, 142828, Control_c, 0, 64, 76
1, 142843, Control_c, 0, 64, 80
1, 142858, Control_c, 0, 64, 83
1, 142867, Note_off_c, 0, 59, 60
1, 142872, Control_c, 0, 64, 85
1, 142887, Control_c, 0, 64, 87
1, 142902, Control_c, 0, 64, 89
1, 142905, Note_on_c, 0, 56, 39
1, 142916, Control_c, 0, 64, 91
1, 142931, Control_c, 0, 64, 92
1, 142946, Control_c, 0, 64, 93
1, 142961, Control_c, 0, 64, 93
1, 142968, Note_off_c, 0, 56, 54
1, 142976, Control_c, 0, 64, 94
1, 142989, Note_on_c, 0, 59, 44
1, 142990, Control_c, 0, 64, 95
1, 143021, Control_c, 0, 64, 97
1, 143051, Control_c, 0, 64, 99
1, 143059, Note_off_c, 0, 59, 37
1, 143066, Note_on_c, 0, 53, 45
1, 143081, Control_c, 0, 64, 101
1, 143132, Control_c, 0, 64, 104
1, 143162, Control_c, 0, 64, 106
1, 143191, Note_on_c, 0, 59, 48
1, 143192, Control_c, 0, 64, 109
1, 143206, Note_off_c, 0, 53, 37
1, 143207, Control_c, 0, 64, 112
1, 143221, Control_c, 0, 64, 116
1, 143236, Control_c, 0, 64, 121
1, 143251, Control_c, 0, 64, 127
1, 143296, Note_off_c, 0, 59, 35
1, 143311, Note_on_c, 0, 56, 29
1, 143386, Note_on_c, 0, 59, 28
1, 143389, Note_off_c, 0, 56, 47
1, 143457, Note_off_c, 0, 59, 54
1, 143463, Note_on_c, 0, 53, 43
1, 143562, Note_off_c, 0, 53, 47
1, 143579, Note_on_c, 0, 59, 45
1, 143660, Note_off_c, 0, 59, 44
1, 143690, Note_on_c, 0, 56, 24
1, 143773, Note_on_c, 0, 59, 36
1, 143791, Note_off_c, 0, 56, 38
1, 143842, Note_off_c, 0, 59, 46
1, 143883, Note_on_c, 0, 53, 27
1, 143985, Note_off_c, 0, 53, 32
1, 143985, Note_on_c, 0, 59, 34
1, 143998, Note_off_c, 0, 83, 54
1, 144013, Note_off_c, 0, 71, 40
1, 144092, Note_on_c, 0, 56, 36
1, 144104, Note_off_c, 0, 59, 45
1, 144200, Note_off_c, 0, 56, 37
1, 144215, Note_on_c, 0, 59, 41
1, 144270, Note_off_c, 0, 59, 60
1, 144306, Note_on_c, 0, 53, 36
1, 144365, Note_off_c, 0, 53, 57
1, 144381, Note_on_c, 0, 59, 42
1, 144431, Note_off_c, 0, 59, 43
1, 144478, Note_on_c, 0, 56, 44
1, 144480, Note_on_c, 0, 71, 63
1, 144513, Note_off_c, 0, 71, 61
1, 144536, Note_off_c, 0, 56, 44
1, 144551, Note_on_c, 0, 59, 43
1, 144653, Note_off_c, 0, 59, 38
1, 144668, Note_on_c, 0, 53, 49
1, 144682, Note_on_c, 0, 71, 66
1, 144713, Note_off_c, 0, 71, 61
1, 144721, Note_off_c, 0, 53, 56
1, 144748, Note_on_c, 0, 59, 58
1, 144795, Note_off_c, 0, 59, 55
1, 144852, Note_on_c, 0, 56, 47
1, 144864, Note_on_c, 0, 71, 72
1, 144894, Note_off_c, 0, 71, 62
1, 144925, Note_on_c, 0, 59, 60
1, 144953, Note_off_c, 0, 56, 51
1, 145031, Note_off_c, 0, 59, 52
1, 145049, Note_on_c, 0, 52, 57
1, 145071, Note_on_c, 0, 71, 48
1, 145095, Note_off_c, 0, 71, 60
1, 145133, Control_c, 0, 64, 97
1, 145137, Note_off_c, 0, 52, 59
1, 145146, Note_on_c, 0, 59, 51
1, 145148, Control_c, 0, 64, 78
1, 145163, Control_c, 0, 64, 65
1, 145175, Note_off_c, 0, 59, 55
1, 145178, Control_c, 0, 64, 53
1, 145192, Control_c, 0, 64, 41
1, 145207, Control_c, 0, 64, 0
1, 145236, Note_on_c, 0, 56, 50
1, 145250, Note_on_c, 0, 71, 55
1, 145291, Note_off_c, 0, 71, 64
1, 145315, Note_on_c, 0, 59, 50
1, 145340, Note_off_c, 0, 56, 48
1, 145411, Note_off_c, 0, 59, 56
1, 145444, Note_on_c, 0, 71, 58
1, 145466, Note_on_c, 0, 50, 35
1, 145482, Note_off_c, 0, 71, 65
1, 145556, Note_off_c, 0, 50, 41
1, 145562, Note_on_c, 0, 59, 36
1, 145633, Note_off_c, 0, 59, 56
1, 145663, Note_on_c, 0, 56, 46
1, 145671, Note_on_c, 0, 71, 54
1, 145705, Note_off_c, 0, 71, 64
1, 145754, Note_on_c, 0, 59, 49
1, 145812, Note_off_c, 0, 56, 35
1, 145853, Note_off_c, 0, 59, 58
1, 145899, Note_on_c, 0, 48, 37
1, 145905, Note_on_c, 0, 72, 53
1, 145986, Control_c, 0, 64, 29
1, 146001, Control_c, 0, 64, 48
1, 146015, Control_c, 0, 64, 63
1, 146021, Note_off_c, 0, 48, 31
1, 146025, Note_on_c, 0, 60, 41
1, 146030, Control_c, 0, 64, 70
1, 146045, Control_c, 0, 64, 77
1, 146060, Control_c, 0, 64, 83
1, 146075, Control_c, 0, 64, 88
1, 146075, Note_off_c, 0, 60, 45
1, 146097, Control_c, 0, 64, 98
1, 146112, Control_c, 0, 64, 127
1, 146146, Note_on_c, 0, 57, 35
1, 146201, Note_off_c, 0, 57, 46
1, 146221, Note_on_c, 0, 60, 54
1, 146258, Note_off_c, 0, 60, 63
1, 146305, Note_on_c, 0, 48, 45
1, 146340, Note_off_c, 0, 48, 56
1, 146364, Control_c, 0, 64, 74
1, 146379, Control_c, 0, 64, 52
1, 146387, Note_on_c, 0, 62, 58
1, 146394, Control_c, 0, 64, 0
1, 146423, Note_off_c, 0, 62, 62
1, 146489, Note_on_c, 0, 58, 31
1, 146546, Note_off_c, 0, 58, 45
1, 146546, Note_on_c, 0, 62, 36
1, 146551, Note_off_c, 0, 72, 60
1, 146563, Note_on_c, 0, 74, 62
1, 146604, Note_off_c, 0, 62, 58
1, 146625, Note_off_c, 0, 74, 54
1, 146647, Note_on_c, 0, 48, 57
1, 146657, Note_on_c, 0, 72, 55
1, 146690, Control_c, 0, 64, 44
1, 146696, Note_off_c, 0, 48, 57
1, 146705, Control_c, 0, 64, 59
1, 146720, Control_c, 0, 64, 68
1, 146735, Control_c, 0, 64, 79
1, 146750, Note_on_c, 0, 60, 38
1, 146750, Control_c, 0, 64, 99
1, 146753, Note_off_c, 0, 72, 60
1, 146764, Control_c, 0, 64, 127
1, 146793, Note_off_c, 0, 60, 50
1, 146850, Note_on_c, 0, 57, 42
1, 146927, Note_on_c, 0, 60, 50
1, 146964, Note_off_c, 0, 57, 40
1, 146981, Note_off_c, 0, 60, 61
1, 147017, Note_on_c, 0, 77, 49
1, 147021, Note_on_c, 0, 48, 66
1, 147041, Note_off_c, 0, 77, 63
1, 147058, Note_off_c, 0, 48, 59
1, 147066, Note_on_c, 0, 79, 58
1, 147069, Control_c, 0, 64, 93
1, 147084, Control_c, 0, 64, 63
1, 147092, Note_off_c, 0, 79, 67
1, 147099, Control_c, 0, 64, 35
1, 147113, Note_on_c, 0, 77, 73
1, 147113, Control_c, 0, 64, 0
1, 147119, Note_on_c, 0, 62, 49
1, 147154, Note_off_c, 0, 77, 61
1, 147158, Note_on_c, 0, 79, 72
1, 147160, Note_off_c, 0, 62, 54
1, 147193, Note_on_c, 0, 58, 54
1, 147224, Note_on_c, 0, 77, 64
1, 147226, Note_off_c, 0, 79, 60
1, 147252, Note_off_c, 0, 58, 48
1, 147258, Note_off_c, 0, 77, 65
1, 147262, Note_on_c, 0, 62, 59
1, 147274, Note_on_c, 0, 76, 69
1, 147321, Note_off_c, 0, 76, 63
1, 147330, Note_on_c, 0, 77, 63
1, 147346, Note_off_c, 0, 62, 49
1, 147410, Note_on_c, 0, 48, 48
1, 147431, Note_off_c, 0, 77, 64
1, 147437, Note_on_c, 0, 81, 65
1, 147500, Note_off_c, 0, 48, 46
1, 147513, Control_c, 0, 64, 41
1, 147523, Note_on_c, 0, 60, 30
1, 147527, Poly_aftertouch_c, 0, 69, 127
1, 147528, Control_c, 0, 64, 55
1, 147543, Control_c, 0, 64, 61
1, 147558, Control_c, 0, 64, 64
1, 147559, Poly_aftertouch_c, 0, 69, 0
1, 147573, Control_c, 0, 64, 68
1, 147589, Note_off_c, 0, 60, 43
1, 147595, Control_c, 0, 64, 76
1, 147610, Control_c, 0, 64, 86
1, 147625, Control_c, 0, 64, 103
1, 147635, Note_on_c, 0, 57, 45
1, 147639, Control_c, 0, 64, 127
1, 147709, Note_on_c, 0, 60, 50
1, 147747, Note_off_c, 0, 57, 46
1, 147758, Control_c, 0, 67, 121
1, 147759, Note_off_c, 0, 60, 56
1, 147773, Control_c, 0, 67, 102
1, 147787, Control_c, 0, 67, 95
1, 147792, Note_on_c, 0, 48, 59
1, 147802, Control_c, 0, 67, 93
1, 147818, Control_c, 0, 67, 90
1, 147833, Note_off_c, 0, 48, 58
1, 147833, Control_c, 0, 67, 84
1, 147848, Control_c, 0, 67, 78
1, 147863, Control_c, 0, 67, 76
1, 147900, Note_on_c, 0, 62, 49
1, 147922, Control_c, 0, 67, 76
1, 147936, Control_c, 0, 67, 76
1, 147951, Control_c, 0, 67, 78
1, 147955, Note_off_c, 0, 62, 57
1, 147982, Note_on_c, 0, 58, 52
1, 147996, Control_c, 0, 67, 78
1, 148010, Control_c, 0, 67, 78
1, 148025, Control_c, 0, 67, 81
1, 148036, Note_off_c, 0, 58, 52
1, 148040, Control_c, 0, 67, 80
1, 148054, Note_off_c, 0, 81, 67
1, 148055, Control_c, 0, 67, 80
1, 148062, Note_on_c, 0, 79, 62
1, 148067, Note_on_c, 0, 62, 58
1, 148070, Control_c, 0, 67, 79
1, 148084, Control_c, 0, 64, 98
1, 148084, Control_c, 0, 67, 80
1, 148099, Control_c, 0, 64, 73
1, 148099, Control_c, 0, 67, 82
1, 148109, Note_off_c, 0, 62, 58
1, 148114, Control_c, 0, 64, 58
1, 148114, Control_c, 0, 67, 81
1, 148128, Control_c, 0, 64, 44
1, 148128, Control_c, 0, 67, 79
1, 148143, Control_c, 0, 64, 38
1, 148143, Control_c, 0, 67, 78
1, 148158, Control_c, 0, 64, 39
1, 148158, Control_c, 0, 67, 76
1, 148173, Note_on_c, 0, 48, 55
1, 148173, Control_c, 0, 64, 45
1, 148173, Control_c, 0, 67, 75
1, 148188, Control_c, 0, 64, 57
1, 148188, Control_c, 0, 67, 70
1, 148197, Note_on_c, 0, 77, 63
1, 148203, Control_c, 0, 64, 66
1, 148203, Control_c, 0, 67, 60
1, 148205, Note_off_c, 0, 79, 59
1, 148218, Control_c, 0, 64, 77
1, 148218, Control_c, 0, 67, 0
1, 148233, Control_c, 0, 64, 91
1, 148236, Note_on_c, 0, 65, 4
1, 148248, Control_c, 0, 64, 111
1, 148262, Control_c, 0, 64, 127
1, 148266, Note_off_c, 0, 77, 64
1, 148266, Note_off_c, 0, 48, 54
1, 148277, Note_on_c, 0, 60, 46
1, 148295, Note_off_c, 0, 65, 48
1, 148357, Note_off_c, 0, 60, 63
1, 148382, Note_on_c, 0, 57, 48
1, 148456, Note_on_c, 0, 60, 61
1, 148528, Note_off_c, 0, 60, 51
1, 148558, Note_on_c, 0, 74, 79
1, 148569, Note_on_c, 0, 48, 65
1, 148581, Control_c, 0, 64, 117
1, 148596, Control_c, 0, 64, 84
1, 148611, Note_off_c, 0, 57, 36
1, 148611, Control_c, 0, 64, 63
1, 148626, Control_c, 0, 64, 47
1, 148641, Control_c, 0, 64, 34
1, 148656, Control_c, 0, 64, 0
1, 148671, Note_on_c, 0, 62, 68
1, 148674, Note_off_c, 0, 48, 53
1, 148754, Note_off_c, 0, 62, 60
1, 148767, Note_on_c, 0, 58, 63
1, 148856, Note_on_c, 0, 62, 55
1, 148906, Note_off_c, 0, 62, 59
1, 148915, Note_on_c, 0, 72, 80
1, 148919, Note_off_c, 0, 58, 38
1, 148951, Note_on_c, 0, 48, 64
1, 148986, Note_off_c, 0, 74, 61
1, 149053, Note_on_c, 0, 60, 51
1, 149107, Control_c, 0, 64, 49
1, 149122, Note_off_c, 0, 60, 56
1, 149122, Control_c, 0, 64, 69
1, 149137, Control_c, 0, 64, 86
1, 149147, Note_on_c, 0, 57, 62
1, 149149, Note_off_c, 0, 48, 53
1, 149152, Control_c, 0, 64, 127
1, 149243, Note_on_c, 0, 60, 61
1, 149268, Note_off_c, 0, 57, 53
1, 149291, Note_off_c, 0, 60, 58
1, 149321, Note_on_c, 0, 48, 62
1, 149369, Note_off_c, 0, 48, 56
1, 149423, Note_on_c, 0, 62, 58
1, 149464, Note_off_c, 0, 62, 58
1, 149507, Note_on_c, 0, 58, 62
1, 149553, Control_c, 0, 64, 80
1, 149566, Note_off_c, 0, 72, 62
1, 149568, Control_c, 0, 64, 59
1, 149579, Note_on_c, 0, 74, 69
1, 149582, Note_on_c, 0, 62, 59
1, 149582, Control_c, 0, 64, 0
1, 149619, Note_off_c, 0, 58, 37
1, 149640, Note_off_c, 0, 62, 59
1, 149656, Control_c, 0, 64, 35
1, 149657, Note_off_c, 0, 74, 52
1, 149662, Note_on_c, 0, 72, 73
1, 149671, Control_c, 0, 64, 59
1, 149680, Note_on_c, 0, 48, 71
1, 149686, Control_c, 0, 64, 75
1, 149696, Note_off_c, 0, 72, 60
1, 149700, Control_c, 0, 64, 112
1, 149715, Control_c, 0, 64, 127
1, 149772, Note_on_c, 0, 60, 60
1, 149772, Note_off_c, 0, 48, 55
1, 149846, Note_off_c, 0, 60, 56
1, 149866, Note_on_c, 0, 57, 63
1, 149967, Note_on_c, 0, 60, 62
1, 150012, Note_on_c, 0, 89, 64
1, 150027, Note_off_c, 0, 60, 58
1, 150041, Note_off_c, 0, 57, 35
1, 150041, Note_off_c, 0, 89, 66
1, 150045, Note_on_c, 0, 48, 74
1, 150074, Note_on_c, 0, 91, 59
1, 150084, Note_off_c, 0, 48, 57
1, 150093, Note_off_c, 0, 91, 64
1, 150112, Note_on_c, 0, 89, 78
1, 150152, Note_on_c, 0, 62, 51
1, 150152, Control_c, 0, 64, 89
1, 150155, Note_off_c, 0, 89, 62
1, 150161, Note_on_c, 0, 91, 73
1, 150167, Control_c, 0, 64, 65
1, 150182, Control_c, 0, 64, 38
1, 150197, Control_c, 0, 64, 0
1, 150206, Note_off_c, 0, 62, 60
1, 150209, Note_on_c, 0, 89, 81
1, 150209, Note_off_c, 0, 91, 51
1, 150235, Note_on_c, 0, 58, 52
1, 150253, Note_off_c, 0, 89, 63
1, 150272, Note_on_c, 0, 88, 66
1, 150302, Control_c, 0, 67, 44
1, 150313, Note_on_c, 0, 89, 35
1, 150314, Note_on_c, 0, 62, 61
1, 150316, Control_c, 0, 67, 54
1, 150328, Note_off_c, 0, 88, 64
1, 150331, Control_c, 0, 67, 53
1, 150361, Control_c, 0, 67, 58
1, 150376, Note_off_c, 0, 62, 55
1, 150376, Control_c, 0, 67, 63
1, 150391, Control_c, 0, 67, 66
1, 150403, Note_off_c, 0, 58, 58
1, 150405, Control_c, 0, 67, 65
1, 150420, Control_c, 0, 67, 64
1, 150433, Note_on_c, 0, 93, 94
1, 150435, Control_c, 0, 67, 65
1, 150437, Note_on_c, 0, 48, 57
1, 150438, Note_off_c, 0, 89, 63
1, 150449, Control_c, 0, 67, 64
1, 150462, Note_on_c, 0, 81, 61
1, 150464, Control_c, 0, 67, 60
1, 150479, Control_c, 0, 64, 35
1, 150479, Control_c, 0, 67, 57
1, 150483, Note_off_c, 0, 81, 61
1, 150494, Control_c, 0, 64, 50
1, 150494, Control_c, 0, 67, 56
1, 150509, Control_c, 0, 64, 61
1, 150509, Control_c, 0, 67, 60
1, 150523, Control_c, 0, 64, 68
1, 150523, Control_c, 0, 67, 58
1, 150538, Control_c, 0, 64, 80
1, 150538, Control_c, 0, 67, 54
1, 150552, Note_on_c, 0, 60, 54
1, 150553, Control_c, 0, 64, 102
1, 150553, Control_c, 0, 67, 50
1, 150565, Note_off_c, 0, 48, 52
1, 150568, Control_c, 0, 64, 127
1, 150591, Control_c, 0, 67, 52
1, 150601, Poly_aftertouch_c, 0, 81, 127
1, 150620, Control_c, 0, 67, 50
1, 150623, Note_off_c, 0, 60, 59
1, 150632, Poly_aftertouch_c, 0, 81, 0
1, 150635, Control_c, 0, 67, 48
1, 150653, Note_on_c, 0, 57, 56
1, 150664, Control_c, 0, 67, 49
1, 150694, Control_c, 0, 67, 48
1, 150709, Control_c, 0, 67, 46
1, 150724, Control_c, 0, 67, 45
1, 150738, Control_c, 0, 67, 46
1, 150742, Note_on_c, 0, 60, 63
1, 150753, Control_c, 0, 67, 47
1, 150768, Control_c, 0, 67, 45
1, 150777, Note_off_c, 0, 57, 56
1, 150783, Control_c, 0, 67, 43
1, 150790, Note_off_c, 0, 60, 57
1, 150798, Control_c, 0, 67, 43
1, 150809, Note_on_c, 0, 48, 75
1, 150812, Control_c, 0, 67, 43
1, 150827, Control_c, 0, 67, 45
1, 150842, Control_c, 0, 67, 43
1, 150856, Control_c, 0, 67, 41
1, 150871, Control_c, 0, 67, 40
1, 150886, Control_c, 0, 67, 41
1, 150889, Note_off_c, 0, 48, 47
1, 150901, Control_c, 0, 67, 41
1, 150902, Note_on_c, 0, 62, 70
1, 150916, Control_c, 0, 67, 40
1, 150930, Control_c, 0, 67, 38
1, 150945, Control_c, 0, 67, 36
1, 150960, Control_c, 0, 67, 35
1, 150975, Control_c, 0, 67, 35
1, 150986, Note_on_c, 0, 58, 72
1, 150988, Note_off_c, 0, 62, 60
1, 150990, Control_c, 0, 67, 34
1, 151006, Control_c, 0, 67, 0
1, 151073, Note_on_c, 0, 91, 84
1, 151077, Note_on_c, 0, 62, 70
1, 151086, Note_on_c, 0, 79, 61
1, 151091, Note_off_c, 0, 93, 67
1, 151105, Note_off_c, 0, 79, 65
1, 151127, Note_off_c, 0, 58, 56
1, 151154, Control_c, 0, 64, 114
1, 151160, Note_off_c, 0, 62, 61
1, 151169, Control_c, 0, 64, 73
1, 151184, Control_c, 0, 64, 57
1, 151191, Note_on_c, 0, 48, 71
1, 151193, Note_on_c, 0, 89, 87
1, 151199, Control_c, 0, 64, 46
1, 151206, Note_on_c, 0, 77, 74
1, 151214, Control_c, 0, 64, 47
1, 151228, Control_c, 0, 64, 55
1, 151243, Control_c, 0, 64, 68
1, 151248, Note_off_c, 0, 91, 66
1, 151258, Control_c, 0, 64, 101
1, 151270, Note_off_c, 0, 77, 59
1, 151273, Control_c, 0, 64, 127
1, 151279, Note_off_c, 0, 89, 64
1, 151288, Note_on_c, 0, 60, 68
1, 151358, Note_off_c, 0, 60, 62
1, 151375, Note_on_c, 0, 57, 61
1, 151382, Note_off_c, 0, 48, 32
1, 151463, Note_on_c, 0, 60, 71
1, 151547, Note_off_c, 0, 60, 58
1, 151555, Note_on_c, 0, 86, 81
1, 151565, Note_off_c, 0, 57, 24
1, 151566, Note_on_c, 0, 82, 69
1, 151571, Note_on_c, 0, 48, 73
1, 151575, Note_on_c, 0, 77, 41
1, 151576, Control_c, 0, 64, 92
1, 151590, Note_on_c, 0, 74, 29
1, 151591, Control_c, 0, 64, 66
1, 151605, Control_c, 0, 64, 47
1, 151620, Control_c, 0, 64, 39
1, 151635, Control_c, 0, 64, 41
1, 151650, Control_c, 0, 64, 53
1, 151665, Control_c, 0, 64, 68
1, 151674, Note_on_c, 0, 62, 66
1, 151679, Control_c, 0, 64, 87
1, 151694, Control_c, 0, 64, 127
1, 151714, Note_off_c, 0, 48, 50
1, 151742, Note_off_c, 0, 62, 62
1, 151755, Note_on_c, 0, 58, 69
1, 151758, Note_off_c, 0, 86, 60
1, 151789, Note_off_c, 0, 82, 55
1, 151798, Note_off_c, 0, 77, 42
1, 151801, Note_off_c, 0, 74, 42
1, 151834, Note_on_c, 0, 62, 69
1, 151890, Note_off_c, 0, 58, 58
1, 151897, Note_off_c, 0, 62, 61
1, 151933, Note_on_c, 0, 84, 85
1, 151939, Note_on_c, 0, 48, 77
1, 151943, Note_on_c, 0, 81, 75
1, 151947, Control_c, 0, 64, 108
1, 151956, Note_on_c, 0, 77, 60
1, 151962, Note_on_c, 0, 72, 59
1, 151962, Control_c, 0, 64, 72
1, 151977, Control_c, 0, 64, 45
1, 151992, Control_c, 0, 64, 27
1, 152007, Control_c, 0, 64, 31
1, 152021, Control_c, 0, 64, 45
1, 152036, Control_c, 0, 64, 63
1, 152042, Note_on_c, 0, 60, 69
1, 152051, Control_c, 0, 64, 85
1, 152066, Control_c, 0, 64, 127
1, 152105, Note_off_c, 0, 72, 59
1, 152116, Note_off_c, 0, 60, 62
1, 152116, Note_off_c, 0, 81, 63
1, 152122, Note_off_c, 0, 84, 63
1, 152137, Note_on_c, 0, 57, 68
1, 152139, Note_off_c, 0, 77, 59
1, 152174, Note_off_c, 0, 48, 53
1, 152222, Note_on_c, 0, 60, 78
1, 152299, Note_off_c, 0, 57, 49
1, 152308, Note_off_c, 0, 60, 61
1, 152310, Control_c, 0, 64, 105
1, 152311, Note_on_c, 0, 48, 81
1, 152317, Note_on_c, 0, 86, 88
1, 152318, Note_on_c, 0, 82, 79
1, 152325, Control_c, 0, 64, 70
1, 152330, Note_on_c, 0, 77, 66
1, 152337, Note_on_c, 0, 74, 57
1, 152340, Control_c, 0, 64, 48
1, 152355, Control_c, 0, 64, 29
1, 152367, Note_off_c, 0, 74, 51
1, 152384, Control_c, 0, 64, 45
1, 152399, Control_c, 0, 64, 63
1, 152412, Note_on_c, 0, 62, 80
1, 152414, Control_c, 0, 64, 81
1, 152422, Note_off_c, 0, 77, 64
1, 152428, Control_c, 0, 64, 127
1, 152466, Note_off_c, 0, 82, 62
1, 152471, Note_off_c, 0, 86, 64
1, 152500, Note_off_c, 0, 62, 62
1, 152501, Note_on_c, 0, 58, 78
1, 152561, Note_off_c, 0, 48, 37
1, 152588, Note_on_c, 0, 62, 77
1, 152671, Note_off_c, 0, 62, 56
1, 152692, Note_off_c, 0, 58, 61
1, 152704, Note_on_c, 0, 48, 83
1, 152707, Note_on_c, 0, 89, 89
1, 152711, Note_on_c, 0, 84, 76
1, 152714, Note_on_c, 0, 81, 68
1, 152719, Note_on_c, 0, 77, 73
1, 152740, Control_c, 0, 64, 89
1, 152755, Control_c, 0, 64, 66
1, 152770, Control_c, 0, 64, 41
1, 152785, Control_c, 0, 64, 0
1, 152810, Note_on_c, 0, 60, 82
1, 152851, Control_c, 0, 64, 49
1, 152866, Control_c, 0, 64, 67
1, 152873, Note_off_c, 0, 77, 63
1, 152881, Control_c, 0, 64, 84
1, 152896, Control_c, 0, 64, 127
1, 152903, Note_off_c, 0, 81, 63
1, 152921, Note_off_c, 0, 60, 63
1, 152923, Note_on_c, 0, 57, 76
1, 152925, Note_off_c, 0, 84, 63
1, 152934, Note_off_c, 0, 89, 60
1, 152999, Note_off_c, 0, 48, 55
1, 153029, Note_on_c, 0, 60, 83
1, 153095, Note_off_c, 0, 57, 55
1, 153157, Note_off_c, 0, 60, 0
1, 153160, Note_on_c, 0, 91, 84
1, 153166, Note_on_c, 0, 48, 86
1, 153171, Note_on_c, 0, 79, 64
1, 153171, Note_on_c, 0, 84, 70
1, 153172, Note_on_c, 0, 88, 79
1, 153192, Control_c, 0, 64, 106
1, 153194, Poly_aftertouch_c, 0, 60, 127
1, 153206, Control_c, 0, 64, 69
1, 153221, Control_c, 0, 64, 44
1, 153232, Poly_aftertouch_c, 0, 60, 0
1, 153236, Control_c, 0, 64, 0
1, 153281, Note_on_c, 0, 60, 78
1, 153310, Control_c, 0, 64, 43
1, 153324, Control_c, 0, 64, 61
1, 153339, Control_c, 0, 64, 70
1, 153354, Control_c, 0, 64, 77
1, 153369, Control_c, 0, 64, 82
1, 153384, Control_c, 0, 64, 90
1, 153396, Note_off_c, 0, 79, 51
1, 153400, Control_c, 0, 64, 127
1, 153409, Note_on_c, 0, 58, 81
1, 153438, Note_off_c, 0, 60, 64
1, 153461, Note_off_c, 0, 91, 60
1, 153482, Note_off_c, 0, 88, 61
1, 153494, Note_off_c, 0, 84, 62
1, 153517, Note_off_c, 0, 48, 59
1, 153546, Note_on_c, 0, 60, 81
1, 153578, Note_off_c, 0, 58, 64
1, 153626, Note_off_c, 0, 60, 59
1, 153847, Note_on_c, 0, 91, 81
1, 153853, Note_on_c, 0, 88, 78
1, 153854, Note_on_c, 0, 84, 71
1, 153855, Note_on_c, 0, 79, 65
1, 153864, Note_on_c, 0, 58, 57
1, 153873, Note_on_c, 0, 60, 59
1, 153875, Note_on_c, 0, 48, 61
1, 153925, Control_c, 0, 64, 101
1, 153940, Control_c, 0, 64, 78
1, 153940, Control_c, 0, 67, 35
1, 153954, Control_c, 0, 64, 64
1, 153954, Control_c, 0, 67, 52
1, 153969, Control_c, 0, 64, 52
1, 153969, Control_c, 0, 67, 82
1, 153984, Control_c, 0, 64, 42
1, 153984, Control_c, 0, 67, 101
1, 153998, Control_c, 0, 64, 35
1, 153998, Control_c, 0, 67, 110
1, 154013, Control_c, 0, 64, 27
1, 154013, Control_c, 0, 67, 124
1, 154028, Control_c, 0, 64, 0
1, 154028, Control_c, 0, 67, 127
1, 154087, Control_c, 0, 64, 34
1, 154102, Control_c, 0, 64, 47
1, 154117, Control_c, 0, 64, 55
1, 154132, Control_c, 0, 64, 57
1, 154147, Control_c, 0, 64, 59
1, 154162, Control_c, 0, 64, 63
1, 154177, Control_c, 0, 64, 69
1, 154180, Note_off_c, 0, 79, 54
1, 154192, Control_c, 0, 64, 77
1, 154207, Control_c, 0, 64, 87
1, 154222, Control_c, 0, 64, 94
1, 154237, Control_c, 0, 64, 106
1, 154251, Control_c, 0, 64, 127
1, 154299, Note_off_c, 0, 84, 63
1, 154311, Note_off_c, 0, 88, 59
1, 154986, Note_on_c, 0, 88, 55
1, 155070, Note_off_c, 0, 91, 38
1, 155134, Note_off_c, 0, 88, 61
1, 155135, Note_on_c, 0, 84, 60
1, 155154, Note_off_c, 0, 48, 33
1, 155210, Note_off_c, 0, 60, 59
1, 155239, Note_off_c, 0, 84, 61
1, 155270, Note_on_c, 0, 79, 49
1, 155279, Note_off_c, 0, 58, 51
1, 155394, Note_off_c, 0, 79, 38
1, 155402, Note_on_c, 0, 76, 63
1, 155518, Note_off_c, 0, 76, 59
1, 155544, Note_on_c, 0, 79, 52
1, 155678, Note_off_c, 0, 79, 63
1, 155688, Note_on_c, 0, 84, 56
1, 155810, Control_c, 0, 64, 90
1, 155823, Note_off_c, 0, 84, 33
1, 155831, Control_c, 0, 64, 68
1, 155846, Control_c, 0, 64, 56
1, 155861, Control_c, 0, 64, 54
1, 155863, Note_on_c, 0, 77, 58
1, 155871, Note_on_c, 0, 57, 41
1, 155872, Note_on_c, 0, 60, 37
1, 155874, Note_on_c, 0, 53, 40
1, 155876, Control_c, 0, 64, 60
1, 155891, Control_c, 0, 64, 68
1, 155906, Control_c, 0, 64, 86
1, 155921, Control_c, 0, 64, 127
1, 155959, Note_off_c, 0, 60, 63
1, 156001, Note_off_c, 0, 53, 62
1, 156015, Note_on_c, 0, 84, 65
1, 156022, Note_off_c, 0, 57, 64
1, 156058, Note_off_c, 0, 77, 56
1, 156080, Note_off_c, 0, 84, 61
1, 156136, Note_on_c, 0, 81, 63
1, 156173, Note_off_c, 0, 81, 61
1, 156187, Control_c, 0, 64, 89
1, 156201, Control_c, 0, 64, 64
1, 156216, Control_c, 0, 64, 36
1, 156231, Control_c, 0, 64, 0
1, 156264, Note_on_c, 0, 77, 54
1, 156286, Note_off_c, 0, 77, 64
1, 156387, Note_on_c, 0, 72, 60
1, 156417, Note_off_c, 0, 72, 63
1, 156505, Note_on_c, 0, 69, 56
1, 156530, Note_off_c, 0, 69, 65
1, 156624, Note_on_c, 0, 53, 54
1, 156627, Note_on_c, 0, 60, 55
1, 156638, Note_on_c, 0, 65, 52
1, 156650, Note_off_c, 0, 60, 64
1, 156652, Note_off_c, 0, 53, 65
1, 156662, Note_off_c, 0, 65, 60
1, 156762, Note_on_c, 0, 69, 52
1, 156789, Note_off_c, 0, 69, 63
1, 156880, Note_on_c, 0, 72, 53
1, 156901, Note_off_c, 0, 72, 62
1, 156984, Note_on_c, 0, 63, 67
1, 156989, Note_on_c, 0, 53, 48
1, 156995, Note_on_c, 0, 60, 43
1, 157006, Note_on_c, 0, 69, 55
1, 157009, Note_off_c, 0, 63, 67
1, 157016, Note_off_c, 0, 53, 54
1, 157026, Note_off_c, 0, 60, 57
1, 157041, Note_off_c, 0, 69, 64
1, 157126, Note_on_c, 0, 72, 51
1, 157159, Note_off_c, 0, 72, 63
1, 157237, Note_on_c, 0, 77, 56
1, 157267, Note_off_c, 0, 77, 64
1, 157328, Control_c, 0, 64, 39
1, 157342, Control_c, 0, 64, 55
1, 157357, Control_c, 0, 64, 62
1, 157372, Control_c, 0, 64, 65
1, 157387, Control_c, 0, 64, 66
1, 157395, Note_on_c, 0, 77, 52
1, 157403, Control_c, 0, 64, 69
1, 157408, Note_on_c, 0, 58, 34
1, 157418, Control_c, 0, 64, 73
1, 157419, Note_on_c, 0, 62, 41
1, 157420, Note_on_c, 0, 53, 36
1, 157433, Control_c, 0, 64, 79
1, 157447, Control_c, 0, 64, 85
1, 157462, Note_off_c, 0, 62, 62
1, 157462, Control_c, 0, 64, 90
1, 157468, Note_off_c, 0, 58, 60
1, 157477, Control_c, 0, 64, 94
1, 157478, Note_off_c, 0, 53, 56
1, 157492, Control_c, 0, 64, 98
1, 157507, Control_c, 0, 64, 101
1, 157521, Control_c, 0, 64, 105
1, 157536, Control_c, 0, 64, 107
1, 157547, Note_off_c, 0, 77, 40
1, 157551, Control_c, 0, 64, 109
1, 157554, Note_on_c, 0, 86, 63
1, 157566, Control_c, 0, 64, 112
1, 157581, Control_c, 0, 64, 115
1, 157596, Control_c, 0, 64, 118
1, 157603, Note_off_c, 0, 86, 61
1, 157611, Control_c, 0, 64, 127
1, 157676, Note_on_c, 0, 82, 63
1, 157713, Note_off_c, 0, 82, 60
1, 157775, Control_c, 0, 64, 83
1, 157790, Control_c, 0, 64, 50
1, 157796, Note_on_c, 0, 77, 57
1, 157804, Control_c, 0, 64, 0
1, 157820, Note_off_c, 0, 77, 65
1, 157918, Note_on_c, 0, 74, 58
1, 157937, Note_off_c, 0, 74, 64
1, 158024, Note_on_c, 0, 70, 55
1, 158050, Note_off_c, 0, 70, 66
1, 158153, Note_on_c, 0, 62, 61
1, 158157, Note_on_c, 0, 58, 56
1, 158159, Note_on_c, 0, 53, 50
1, 158159, Note_on_c, 0, 65, 54
1, 158180, Note_off_c, 0, 58, 59
1, 158180, Note_off_c, 0, 62, 64
1, 158182, Note_off_c, 0, 65, 61
1, 158183, Note_off_c, 0, 53, 58
1, 158265, Note_on_c, 0, 70, 57
1, 158299, Note_off_c, 0, 70, 65
1, 158388, Note_on_c, 0, 74, 68
1, 158412, Note_off_c, 0, 74, 69
1, 158503, Note_on_c, 0, 62, 72
1, 158505, Note_on_c, 0, 65, 78
1, 158508, Note_on_c, 0, 53, 67
1, 158522, Note_on_c, 0, 70, 70
1, 158526, Note_off_c, 0, 65, 70
1, 158529, Note_off_c, 0, 62, 67
1, 158536, Note_off_c, 0, 53, 66
1, 158552, Note_off_c, 0, 70, 64
1, 158648, Note_on_c, 0, 74, 71
1, 158691, Note_off_c, 0, 74, 58
1, 158773, Note_on_c, 0, 77, 53
1, 158792, Note_off_c, 0, 77, 63
1, 158900, Control_c, 0, 64, 34
1, 158908, Note_on_c, 0, 77, 64
1, 158915, Control_c, 0, 64, 56
1, 158919, Note_on_c, 0, 57, 46
1, 158930, Control_c, 0, 64, 65
1, 158931, Note_on_c, 0, 53, 43
1, 158938, Note_on_c, 0, 60, 39
1, 158944, Control_c, 0, 64, 69
1, 158955, Note_off_c, 0, 57, 63
1, 158959, Control_c, 0, 64, 73
1, 158967, Note_off_c, 0, 60, 65
1, 158974, Control_c, 0, 64, 78
1, 158990, Control_c, 0, 64, 84
1, 158997, Note_off_c, 0, 53, 64
1, 159005, Control_c, 0, 64, 94
1, 159019, Control_c, 0, 64, 108
1, 159034, Control_c, 0, 64, 126
1, 159060, Note_on_c, 0, 89, 80
1, 159083, Note_off_c, 0, 77, 54
1, 159116, Note_off_c, 0, 89, 62
1, 159174, Note_on_c, 0, 84, 83
1, 159220, Note_off_c, 0, 84, 64
1, 159285, Note_on_c, 0, 81, 86
1, 159316, Control_c, 0, 64, 72
1, 159323, Note_off_c, 0, 81, 66
1, 159331, Control_c, 0, 64, 0
1, 159395, Note_on_c, 0, 77, 75
1, 159416, Note_off_c, 0, 77, 71
1, 159657, Note_on_c, 0, 53, 57
1, 159658, Note_on_c, 0, 57, 64
1, 159665, Note_on_c, 0, 69, 52
1, 159685, Note_off_c, 0, 53, 64
1, 159687, Note_off_c, 0, 57, 65
1, 159688, Note_off_c, 0, 69, 63
1, 159781, Note_on_c, 0, 65, 51
1, 159803, Note_off_c, 0, 65, 60
1, 159906, Note_on_c, 0, 60, 48
1, 159930, Note_off_c, 0, 60, 60
1, 160015, Note_on_c, 0, 57, 65
1, 160015, Note_on_c, 0, 60, 56
1, 160019, Note_on_c, 0, 65, 66
1, 160043, Note_off_c, 0, 57, 66
1, 160044, Note_off_c, 0, 60, 66
1, 160046, Note_off_c, 0, 65, 66
1, 160150, Note_on_c, 0, 69, 57
1, 160183, Note_off_c, 0, 69, 63
1, 160264, Note_on_c, 0, 72, 58
1, 160291, Note_off_c, 0, 72, 65
1, 160383, Control_c, 0, 64, 29
1, 160398, Control_c, 0, 64, 34
1, 160413, Control_c, 0, 64, 46
1, 160416, Note_on_c, 0, 72, 52
1, 160428, Control_c, 0, 64, 59
1, 160432, Note_on_c, 0, 57, 38
1, 160437, Note_on_c, 0, 48, 47
1, 160442, Control_c, 0, 64, 66
1, 160448, Note_on_c, 0, 60, 22
1, 160457, Control_c, 0, 64, 68
1, 160469, Note_off_c, 0, 57, 62
1, 160472, Control_c, 0, 64, 70
1, 160475, Note_off_c, 0, 48, 61
1, 160485, Note_off_c, 0, 60, 53
1, 160487, Control_c, 0, 64, 71
1, 160502, Control_c, 0, 64, 73
1, 160516, Control_c, 0, 64, 74
1, 160531, Control_c, 0, 64, 75
1, 160560, Control_c, 0, 64, 74
1, 160561, Note_on_c, 0, 77, 58
1, 160575, Control_c, 0, 64, 71
1, 160590, Note_off_c, 0, 77, 66
1, 160592, Control_c, 0, 64, 64
1, 160598, Note_off_c, 0, 72, 47
1, 160607, Control_c, 0, 64, 56
1, 160621, Control_c, 0, 64, 47
1, 160636, Control_c, 0, 64, 38
1, 160651, Control_c, 0, 64, 0
1, 160678, Note_on_c, 0, 77, 60
1, 160714, Note_off_c, 0, 77, 60
1, 160798, Control_c, 0, 64, 34
1, 160809, Note_on_c, 0, 74, 63
1, 160813, Control_c, 0, 64, 49
1, 160828, Control_c, 0, 64, 61
1, 160833, Note_on_c, 0, 48, 53
1, 160836, Note_on_c, 0, 58, 37
1, 160837, Note_on_c, 0, 62, 44
1, 160843, Control_c, 0, 64, 66
1, 160857, Control_c, 0, 64, 68
1, 160872, Control_c, 0, 64, 69
1, 160878, Note_off_c, 0, 62, 63
1, 160879, Note_off_c, 0, 58, 63
1, 160883, Note_off_c, 0, 48, 62
1, 160887, Control_c, 0, 64, 69
1, 160902, Control_c, 0, 64, 70
1, 160917, Control_c, 0, 64, 70
1, 160946, Control_c, 0, 64, 70
1, 160950, Note_on_c, 0, 79, 45
1, 160961, Control_c, 0, 64, 65
1, 160971, Note_off_c, 0, 74, 57
1, 160976, Control_c, 0, 64, 56
1, 160981, Note_off_c, 0, 79, 66
1, 160991, Control_c, 0, 64, 43
1, 161006, Control_c, 0, 64, 30
1, 161021, Control_c, 0, 64, 0
1, 161068, Note_on_c, 0, 79, 65
1, 161090, Note_off_c, 0, 79, 70
1, 161191, Control_c, 0, 64, 28
1, 161202, Note_on_c, 0, 72, 60
1, 161206, Control_c, 0, 64, 48
1, 161213, Note_on_c, 0, 48, 48
1, 161215, Note_on_c, 0, 57, 40
1, 161221, Control_c, 0, 64, 61
1, 161226, Note_on_c, 0, 60, 40
1, 161235, Control_c, 0, 64, 65
1, 161250, Control_c, 0, 64, 67
1, 161261, Note_off_c, 0, 60, 62
1, 161265, Control_c, 0, 64, 67
1, 161270, Note_off_c, 0, 57, 64
1, 161276, Note_off_c, 0, 48, 62
1, 161280, Control_c, 0, 64, 68
1, 161295, Control_c, 0, 64, 69
1, 161310, Control_c, 0, 64, 70
1, 161325, Note_on_c, 0, 77, 60
1, 161339, Control_c, 0, 64, 69
1, 161354, Control_c, 0, 64, 63
1, 161360, Note_off_c, 0, 77, 62
1, 161364, Note_off_c, 0, 72, 53
1, 161369, Control_c, 0, 64, 47
1, 161385, Control_c, 0, 64, 0
1, 161458, Note_on_c, 0, 77, 62
1, 161477, Note_off_c, 0, 77, 66
1, 161580, Note_on_c, 0, 72, 65
1, 161581, Note_on_c, 0, 58, 54
1, 161593, Note_on_c, 0, 55, 39
1, 161593, Control_c, 0, 64, 43
1, 161599, Note_on_c, 0, 48, 40
1, 161607, Control_c, 0, 64, 51
1, 161622, Control_c, 0, 64, 54
1, 161637, Control_c, 0, 64, 57
1, 161652, Control_c, 0, 64, 61
1, 161667, Control_c, 0, 64, 65
1, 161670, Note_off_c, 0, 58, 62
1, 161672, Note_off_c, 0, 48, 63
1, 161673, Note_off_c, 0, 55, 54
1, 161681, Control_c, 0, 64, 66
1, 161700, Note_on_c, 0, 76, 66
1, 161711, Control_c, 0, 64, 62
1, 161726, Control_c, 0, 64, 49
1, 161740, Note_off_c, 0, 72, 58
1, 161741, Control_c, 0, 64, 0
1, 161745, Note_off_c, 0, 76, 59
1, 161845, Note_on_c, 0, 76, 68
1, 161870, Note_off_c, 0, 76, 68
1, 161965, Note_on_c, 0, 72, 72
1, 161973, Note_on_c, 0, 57, 60
1, 161979, Note_on_c, 0, 48, 61
1, 161979, Note_on_c, 0, 54, 56
1, 161985, Control_c, 0, 64, 42
1, 162000, Control_c, 0, 64, 55
1, 162014, Control_c, 0, 64, 62
1, 162029, Control_c, 0, 64, 65
1, 162043, Note_off_c, 0, 54, 64
1, 162044, Control_c, 0, 64, 65
1, 162052, Note_off_c, 0, 57, 64
1, 162053, Note_off_c, 0, 48, 64
1, 162088, Control_c, 0, 64, 64
1, 162100, Note_on_c, 0, 75, 72
1, 162103, Control_c, 0, 64, 59
1, 162109, Note_off_c, 0, 72, 60
1, 162118, Control_c, 0, 64, 46
1, 162130, Note_off_c, 0, 75, 63
1, 162133, Control_c, 0, 64, 0
1, 162225, Note_on_c, 0, 75, 75
1, 162250, Note_off_c, 0, 75, 65
1, 162344, Note_on_c, 0, 72, 70
1, 162359, Note_on_c, 0, 48, 63
1, 162359, Note_on_c, 0, 57, 62
1, 162359, Note_on_c, 0, 54, 59
1, 162385, Control_c, 0, 64, 41
1, 162400, Control_c, 0, 64, 57
1, 162415, Control_c, 0, 64, 65
1, 162422, Note_off_c, 0, 54, 64
1, 162425, Note_off_c, 0, 57, 65
1, 162428, Note_off_c, 0, 48, 64
1, 162430, Control_c, 0, 64, 68
1, 162444, Control_c, 0, 64, 69
1, 162459, Control_c, 0, 64, 70
1, 162476, Note_on_c, 0, 74, 82
1, 162504, Control_c, 0, 64, 67
1, 162512, Note_off_c, 0, 72, 61
1, 162518, Control_c, 0, 64, 62
1, 162524, Note_off_c, 0, 74, 62
1, 162533, Control_c, 0, 64, 55
1, 162548, Control_c, 0, 64, 52
1, 162570, Control_c, 0, 64, 50
1, 162585, Control_c, 0, 64, 47
1, 162598, Note_on_c, 0, 74, 78
1, 162600, Control_c, 0, 64, 42
1, 162615, Control_c, 0, 64, 36
1, 162630, Control_c, 0, 64, 28
1, 162635, Note_off_c, 0, 74, 61
1, 162644, Control_c, 0, 64, 0
1, 162729, Note_on_c, 0, 48, 73
1, 162735, Note_on_c, 0, 54, 60
1, 162735, Note_on_c, 0, 57, 68
1, 162735, Note_on_c, 0, 69, 79
1, 162748, Control_c, 0, 64, 29
1, 162752, Note_on_c, 0, 66, 68
1, 162762, Control_c, 0, 64, 46
1, 162770, Note_off_c, 0, 57, 67
1, 162773, Note_off_c, 0, 54, 66
1, 162777, Note_off_c, 0, 48, 63
1, 162777, Control_c, 0, 64, 57
1, 162783, Note_off_c, 0, 66, 61
1, 162792, Control_c, 0, 64, 59
1, 162851, Control_c, 0, 64, 57
1, 162866, Control_c, 0, 64, 53
1, 162872, Note_on_c, 0, 75, 80
1, 162881, Control_c, 0, 64, 50
1, 162887, Note_off_c, 0, 69, 57
1, 162896, Control_c, 0, 64, 49
1, 162911, Note_off_c, 0, 75, 57
1, 162911, Control_c, 0, 64, 50
1, 162941, Control_c, 0, 64, 49
1, 162955, Control_c, 0, 64, 47
1, 162970, Control_c, 0, 64, 47
1, 162985, Control_c, 0, 64, 47
1, 162991, Note_on_c, 0, 75, 73
1, 163000, Control_c, 0, 64, 48
1, 163015, Control_c, 0, 64, 47
1, 163030, Control_c, 0, 64, 46
1, 163036, Note_off_c, 0, 75, 59
1, 163045, Control_c, 0, 64, 44
1, 163060, Control_c, 0, 64, 42
1, 163075, Control_c, 0, 64, 42
1, 163090, Control_c, 0, 64, 40
1, 163097, Note_on_c, 0, 68, 64
1, 163105, Control_c, 0, 64, 38
1, 163111, Note_on_c, 0, 69, 79
1, 163119, Note_on_c, 0, 48, 69
1, 163119, Note_on_c, 0, 66, 63
1, 163119, Control_c, 0, 64, 38
1, 163123, Note_on_c, 0, 57, 66
1, 163123, Note_off_c, 0, 68, 51
1, 163125, Note_on_c, 0, 54, 59
1, 163134, Control_c, 0, 64, 44
1, 163149, Control_c, 0, 64, 53
1, 163154, Note_off_c, 0, 54, 65
1, 163154, Note_off_c, 0, 57, 64
1, 163160, Note_off_c, 0, 48, 67
1, 163164, Control_c, 0, 64, 60
1, 163166, Note_off_c, 0, 66, 54
1, 163193, Control_c, 0, 64, 58
1, 163208, Control_c, 0, 64, 57
1, 163238, Note_on_c, 0, 74, 85
1, 163241, Note_off_c, 0, 69, 62
1, 163252, Control_c, 0, 64, 56
1, 163267, Control_c, 0, 64, 53
1, 163282, Control_c, 0, 64, 51
1, 163289, Note_off_c, 0, 74, 63
1, 163297, Control_c, 0, 64, 51
1, 163319, Control_c, 0, 64, 52
1, 163353, Note_on_c, 0, 74, 75
1, 163364, Control_c, 0, 64, 51
1, 163408, Control_c, 0, 64, 50
1, 163413, Note_off_c, 0, 74, 65
1, 163423, Control_c, 0, 64, 47
1, 163438, Control_c, 0, 64, 40
1, 163453, Control_c, 0, 64, 33
1, 163467, Control_c, 0, 64, 32
1, 163482, Control_c, 0, 64, 34
1, 163488, Note_on_c, 0, 70, 84
1, 163496, Note_on_c, 0, 58, 76
1, 163497, Control_c, 0, 64, 39
1, 163503, Note_on_c, 0, 53, 64
1, 163505, Note_on_c, 0, 46, 57
1, 163512, Control_c, 0, 64, 47
1, 163516, Note_on_c, 0, 65, 53
1, 163527, Control_c, 0, 64, 56
1, 163533, Note_off_c, 0, 58, 61
1, 163534, Note_off_c, 0, 53, 66
1, 163541, Control_c, 0, 64, 63
1, 163542, Note_off_c, 0, 46, 65
1, 163556, Control_c, 0, 64, 68
1, 163571, Control_c, 0, 64, 71
1, 163585, Control_c, 0, 64, 72
1, 163615, Control_c, 0, 64, 71
1, 163617, Note_on_c, 0, 75, 79
1, 163624, Note_off_c, 0, 65, 25
1, 163630, Control_c, 0, 64, 70
1, 163636, Note_off_c, 0, 70, 62
1, 163645, Control_c, 0, 64, 70
1, 163659, Control_c, 0, 64, 69
1, 163665, Note_off_c, 0, 75, 62
1, 163674, Control_c, 0, 64, 67
1, 163689, Control_c, 0, 64, 63
1, 163704, Control_c, 0, 64, 59
1, 163719, Control_c, 0, 64, 57
1, 163733, Control_c, 0, 64, 56
1, 163739, Note_on_c, 0, 75, 65
1, 163748, Control_c, 0, 64, 52
1, 163763, Control_c, 0, 64, 45
1, 163779, Control_c, 0, 64, 30
1, 163787, Note_off_c, 0, 75, 57
1, 163794, Control_c, 0, 64, 0
1, 163886, Note_on_c, 0, 70, 55
1, 163897, Control_c, 0, 64, 32
1, 163901, Note_on_c, 0, 46, 47
1, 163903, Note_on_c, 0, 58, 55
1, 163905, Note_on_c, 0, 65, 37
1, 163907, Note_on_c, 0, 53, 50
1, 163912, Control_c, 0, 64, 42
1, 163942, Control_c, 0, 64, 42
1, 163949, Note_off_c, 0, 53, 63
1, 163949, Note_off_c, 0, 58, 60
1, 163954, Note_off_c, 0, 46, 61
1, 163957, Control_c, 0, 64, 46
1, 163972, Control_c, 0, 64, 55
1, 163979, Note_off_c, 0, 65, 36
1, 163987, Control_c, 0, 64, 62
1, 163993, Note_off_c, 0, 70, 57
1, 164001, Control_c, 0, 64, 63
1, 164007, Note_on_c, 0, 74, 56
1, 164031, Control_c, 0, 64, 63
1, 164045, Note_off_c, 0, 74, 63
1, 164112, Control_c, 0, 64, 62
1, 164127, Control_c, 0, 64, 61
1, 164149, Note_on_c, 0, 74, 63
1, 164172, Note_off_c, 0, 74, 65
1, 164172, Control_c, 0, 64, 58
1, 164187, Control_c, 0, 64, 51
1, 164201, Control_c, 0, 64, 42
1, 164216, Control_c, 0, 64, 35
1, 164231, Control_c, 0, 64, 32
1, 164261, Control_c, 0, 64, 33
1, 164273, Note_on_c, 0, 48, 58
1, 164276, Control_c, 0, 64, 39
1, 164285, Note_on_c, 0, 53, 35
1, 164286, Note_on_c, 0, 69, 56
1, 164290, Note_on_c, 0, 65, 49
1, 164290, Control_c, 0, 64, 49
1, 164292, Note_on_c, 0, 57, 40
1, 164305, Control_c, 0, 64, 55
1, 164320, Control_c, 0, 64, 56
1, 164327, Note_off_c, 0, 57, 58
1, 164334, Note_off_c, 0, 53, 61
1, 164334, Control_c, 0, 64, 55
1, 164339, Note_off_c, 0, 65, 52
1, 164345, Note_off_c, 0, 48, 60
1, 164364, Control_c, 0, 64, 56
1, 164377, Note_off_c, 0, 69, 36
1, 164395, Control_c, 0, 64, 55
1, 164405, Note_on_c, 0, 72, 56
1, 164409, Control_c, 0, 64, 54
1, 164424, Control_c, 0, 64, 52
1, 164440, Note_off_c, 0, 72, 62
1, 164454, Control_c, 0, 64, 53
1, 164483, Control_c, 0, 64, 52
1, 164498, Control_c, 0, 64, 52
1, 164532, Note_on_c, 0, 72, 64
1, 164557, Control_c, 0, 64, 51
1, 164560, Note_off_c, 0, 72, 64
1, 164572, Control_c, 0, 64, 50
1, 164588, Control_c, 0, 64, 49
1, 164603, Control_c, 0, 64, 48
1, 164618, Control_c, 0, 64, 45
1, 164632, Control_c, 0, 64, 38
1, 164647, Control_c, 0, 64, 29
1, 164662, Control_c, 0, 64, 0
1, 164672, Note_on_c, 0, 67, 45
1, 164674, Note_on_c, 0, 55, 42
1, 164677, Note_on_c, 0, 48, 46
1, 164677, Control_c, 0, 64, 31
1, 164687, Note_on_c, 0, 58, 35
1, 164689, Note_on_c, 0, 64, 47
1, 164692, Control_c, 0, 64, 42
1, 164706, Control_c, 0, 64, 55
1, 164721, Control_c, 0, 64, 66
1, 164733, Note_off_c, 0, 48, 60
1, 164736, Control_c, 0, 64, 71
1, 164743, Note_off_c, 0, 58, 58
1, 164748, Note_off_c, 0, 55, 60
1, 164750, Control_c, 0, 64, 75
1, 164765, Control_c, 0, 64, 77
1, 164780, Control_c, 0, 64, 79
1, 164795, Control_c, 0, 64, 81
1, 164798, Note_on_c, 0, 72, 63
1, 164811, Note_off_c, 0, 67, 52
1, 164818, Control_c, 0, 64, 82
1, 164832, Control_c, 0, 64, 83
1, 164844, Note_off_c, 0, 72, 57
1, 164852, Note_off_c, 0, 64, 46
1, 164906, Control_c, 0, 64, 82
1, 164921, Control_c, 0, 64, 81
1, 164936, Control_c, 0, 64, 77
1, 164951, Control_c, 0, 64, 71
1, 164952, Note_on_c, 0, 72, 63
1, 164965, Control_c, 0, 64, 63
1, 164979, Note_off_c, 0, 72, 65
1, 164980, Control_c, 0, 64, 54
1, 164995, Control_c, 0, 64, 46
1, 165010, Control_c, 0, 64, 35
1, 165025, Control_c, 0, 64, 0
1, 165099, Note_on_c, 0, 72, 53
1, 165099, Control_c, 0, 64, 34
1, 165107, Note_on_c, 0, 69, 43
1, 165114, Control_c, 0, 64, 45
1, 165118, Note_on_c, 0, 53, 34
1, 165124, Note_on_c, 0, 65, 32
1, 165129, Control_c, 0, 64, 58
1, 165143, Control_c, 0, 64, 64
1, 165158, Control_c, 0, 64, 70
1, 165173, Control_c, 0, 64, 75
1, 165188, Control_c, 0, 64, 82
1, 165203, Control_c, 0, 64, 89
1, 165218, Control_c, 0, 64, 97
1, 165232, Control_c, 0, 64, 107
1, 165247, Control_c, 0, 64, 127
1, 165252, Note_on_c, 0, 60, 50
1, 165263, Note_off_c, 0, 53, 22
1, 165294, Note_off_c, 0, 60, 60
1, 165391, Note_on_c, 0, 57, 52
1, 165502, Note_off_c, 0, 57, 59
1, 165514, Note_on_c, 0, 53, 61
1, 165529, Control_c, 0, 64, 105
1, 165541, Note_off_c, 0, 53, 65
1, 165544, Control_c, 0, 64, 66
1, 165567, Control_c, 0, 64, 34
1, 165581, Control_c, 0, 64, 0
1, 165585, Note_off_c, 0, 69, 63
1, 165591, Note_off_c, 0, 65, 43
1, 165614, Note_off_c, 0, 72, 62
1, 165638, Note_on_c, 0, 48, 65
1, 165678, Note_off_c, 0, 48, 64
1, 165766, Note_on_c, 0, 45, 66
1, 165796, Note_off_c, 0, 45, 63
1, 165894, Note_on_c, 0, 41, 70
1, 165899, Note_on_c, 0, 77, 76
1, 165909, Note_on_c, 0, 72, 61
1, 165910, Note_on_c, 0, 69, 61
1, 165920, Note_off_c, 0, 77, 70
1, 165921, Note_off_c, 0, 41, 66
1, 165928, Note_off_c, 0, 72, 62
1, 165930, Note_off_c, 0, 69, 63
1, 166038, Note_on_c, 0, 45, 54
1, 166064, Note_off_c, 0, 45, 55
1, 166153, Note_on_c, 0, 48, 58
1, 166180, Note_off_c, 0, 48, 60
1, 166266, Note_on_c, 0, 45, 63
1, 166267, Note_on_c, 0, 77, 73
1, 166267, Note_on_c, 0, 72, 70
1, 166267, Note_on_c, 0, 75, 70
1, 166288, Note_off_c, 0, 77, 70
1, 166291, Note_off_c, 0, 72, 68
1, 166291, Note_off_c, 0, 75, 65
1, 166293, Note_off_c, 0, 45, 65
1, 166407, Note_on_c, 0, 48, 54
1, 166438, Note_off_c, 0, 48, 54
1, 166532, Note_on_c, 0, 53, 54
1, 166567, Control_c, 0, 64, 36
1, 166570, Note_off_c, 0, 53, 63
1, 166582, Control_c, 0, 64, 47
1, 166597, Control_c, 0, 64, 55
1, 166611, Control_c, 0, 64, 61
1, 166626, Control_c, 0, 64, 65
1, 166640, Control_c, 0, 64, 68
1, 166655, Control_c, 0, 64, 71
1, 166670, Control_c, 0, 64, 74
1, 166679, Note_on_c, 0, 77, 66
1, 166684, Control_c, 0, 64, 77
1, 166685, Note_on_c, 0, 53, 64
1, 166687, Note_on_c, 0, 74, 60
1, 166688, Note_on_c, 0, 70, 52
1, 166699, Control_c, 0, 64, 81
1, 166714, Control_c, 0, 64, 85
1, 166719, Note_off_c, 0, 53, 64
1, 166728, Control_c, 0, 64, 89
1, 166743, Control_c, 0, 64, 93
1, 166746, Note_off_c, 0, 70, 50
1, 166758, Control_c, 0, 64, 97
1, 166773, Control_c, 0, 64, 103
1, 166788, Control_c, 0, 64, 110
1, 166802, Control_c, 0, 64, 127
1, 166854, Note_on_c, 0, 62, 65
1, 166885, Note_off_c, 0, 62, 64
1, 166987, Note_on_c, 0, 58, 78
1, 167082, Note_off_c, 0, 74, 62
1, 167101, Note_off_c, 0, 58, 61
1, 167106, Note_off_c, 0, 77, 64
1, 167107, Control_c, 0, 67, 124
1, 167117, Note_on_c, 0, 53, 71
1, 167122, Control_c, 0, 67, 105
1, 167137, Control_c, 0, 67, 85
1, 167139, Note_off_c, 0, 53, 69
1, 167152, Control_c, 0, 67, 71
1, 167166, Control_c, 0, 67, 63
1, 167181, Control_c, 0, 64, 75
1, 167181, Control_c, 0, 67, 58
1, 167196, Control_c, 0, 64, 49
1, 167196, Control_c, 0, 67, 57
1, 167211, Control_c, 0, 64, 0
1, 167211, Control_c, 0, 67, 57
1, 167225, Control_c, 0, 67, 56
1, 167240, Control_c, 0, 67, 55
1, 167255, Control_c, 0, 67, 54
1, 167266, Note_on_c, 0, 50, 53
1, 167293, Note_off_c, 0, 50, 60
1, 167300, Control_c, 0, 67, 55
1, 167373, Control_c, 0, 67, 57
1, 167374, Note_on_c, 0, 46, 70
1, 167389, Control_c, 0, 67, 60
1, 167404, Note_off_c, 0, 46, 63
1, 167419, Control_c, 0, 67, 58
1, 167433, Control_c, 0, 67, 57
1, 167463, Control_c, 0, 67, 57
1, 167482, Note_on_c, 0, 41, 76
1, 167490, Note_on_c, 0, 70, 79
1, 167493, Note_on_c, 0, 74, 77
1, 167497, Note_on_c, 0, 77, 74
1, 167510, Note_off_c, 0, 70, 72
1, 167514, Note_off_c, 0, 74, 71
1, 167519, Note_off_c, 0, 41, 66
1, 167522, Control_c, 0, 67, 58
1, 167523, Note_off_c, 0, 77, 65
1, 167537, Control_c, 0, 67, 63
1, 167582, Control_c, 0, 67, 62
1, 167612, Control_c, 0, 67, 64
1, 167620, Note_on_c, 0, 46, 74
1, 167626, Control_c, 0, 67, 65
1, 167641, Control_c, 0, 67, 64
1, 167647, Note_off_c, 0, 46, 65
1, 167685, Control_c, 0, 67, 66
1, 167700, Control_c, 0, 67, 67
1, 167715, Control_c, 0, 67, 65
1, 167730, Control_c, 0, 67, 65
1, 167743, Note_on_c, 0, 50, 65
1, 167759, Control_c, 0, 67, 67
1, 167775, Control_c, 0, 67, 67
1, 167776, Note_off_c, 0, 50, 65
1, 167790, Control_c, 0, 67, 65
1, 167812, Control_c, 0, 67, 65
1, 167842, Control_c, 0, 67, 67
1, 167856, Control_c, 0, 67, 68
1, 167860, Note_on_c, 0, 77, 80
1, 167865, Note_on_c, 0, 46, 74
1, 167865, Note_on_c, 0, 74, 76
1, 167886, Control_c, 0, 67, 68
1, 167889, Note_off_c, 0, 74, 70
1, 167898, Note_off_c, 0, 77, 64
1, 167901, Note_off_c, 0, 46, 66
1, 167901, Control_c, 0, 67, 71
1, 167916, Control_c, 0, 67, 79
1, 167931, Control_c, 0, 67, 78
1, 167945, Control_c, 0, 67, 75
1, 167960, Control_c, 0, 67, 74
1, 167989, Note_on_c, 0, 50, 70
1, 167990, Control_c, 0, 67, 77
1, 168018, Note_off_c, 0, 50, 64
1, 168050, Control_c, 0, 67, 79
1, 168064, Control_c, 0, 67, 82
1, 168079, Control_c, 0, 67, 80
1, 168094, Control_c, 0, 67, 78
1, 168109, Control_c, 0, 67, 76
1, 168115, Note_on_c, 0, 53, 59
1, 168124, Control_c, 0, 67, 75
1, 168148, Note_off_c, 0, 53, 63
1, 168153, Control_c, 0, 67, 74
1, 168168, Control_c, 0, 67, 71
1, 168182, Control_c, 0, 64, 42
1, 168182, Control_c, 0, 67, 69
1, 168197, Control_c, 0, 64, 61
1, 168197, Control_c, 0, 67, 67
1, 168212, Control_c, 0, 64, 67
1, 168227, Control_c, 0, 64, 73
1, 168227, Control_c, 0, 67, 65
1, 168228, Note_on_c, 0, 53, 73
1, 168232, Note_on_c, 0, 77, 81
1, 168237, Note_on_c, 0, 72, 80
1, 168239, Note_on_c, 0, 69, 72
1, 168242, Control_c, 0, 64, 83
1, 168242, Control_c, 0, 67, 60
1, 168256, Control_c, 0, 64, 103
1, 168256, Control_c, 0, 67, 54
1, 168271, Control_c, 0, 64, 127
1, 168271, Control_c, 0, 67, 50
1, 168285, Note_off_c, 0, 53, 61
1, 168286, Control_c, 0, 67, 40
1, 168300, Control_c, 0, 67, 0
1, 168374, Note_on_c, 0, 65, 70
1, 168403, Note_off_c, 0, 65, 63
1, 168457, Note_off_c, 0, 69, 43
1, 168481, Note_on_c, 0, 60, 72
1, 168509, Note_off_c, 0, 72, 61
1, 168539, Note_off_c, 0, 60, 65
1, 168563, Note_off_c, 0, 77, 64
1, 168606, Note_on_c, 0, 57, 81
1, 168674, Note_off_c, 0, 57, 55
1, 168679, Control_c, 0, 64, 80
1, 168694, Control_c, 0, 64, 53
1, 168709, Control_c, 0, 64, 0
1, 168719, Note_on_c, 0, 53, 69
1, 168747, Note_off_c, 0, 53, 64
1, 168849, Note_on_c, 0, 48, 76
1, 168884, Note_off_c, 0, 48, 65
1, 168968, Note_on_c, 0, 45, 81
1, 168976, Note_on_c, 0, 81, 87
1, 168987, Note_on_c, 0, 77, 67
1, 168990, Control_c, 0, 67, 42
1, 168993, Note_on_c, 0, 72, 55
1, 168996, Note_off_c, 0, 45, 67
1, 169004, Note_off_c, 0, 77, 64
1, 169004, Control_c, 0, 67, 42
1, 169016, Note_off_c, 0, 72, 60
1, 169016, Note_off_c, 0, 81, 65
1, 169034, Control_c, 0, 67, 45
1, 169049, Control_c, 0, 67, 57
1, 169064, Control_c, 0, 67, 93
1, 169078, Control_c, 0, 67, 127
1, 169093, Note_on_c, 0, 41, 74
1, 169124, Note_off_c, 0, 41, 66
1, 169206, Note_on_c, 0, 36, 73
1, 169234, Note_off_c, 0, 36, 64
1, 169329, Note_on_c, 0, 41, 73
1, 169346, Note_on_c, 0, 84, 83
1, 169353, Note_on_c, 0, 81, 63
1, 169356, Note_on_c, 0, 72, 57
1, 169362, Note_off_c, 0, 41, 67
1, 169377, Note_off_c, 0, 72, 62
1, 169381, Note_off_c, 0, 81, 66
1, 169391, Note_off_c, 0, 84, 64
1, 169475, Note_on_c, 0, 45, 47
1, 169507, Note_off_c, 0, 45, 52
1, 169568, Note_on_c, 0, 48, 70
1, 169597, Note_off_c, 0, 48, 65
1, 169680, Control_c, 0, 64, 30
1, 169694, Control_c, 0, 64, 47
1, 169709, Control_c, 0, 64, 58
1, 169722, Note_on_c, 0, 48, 66
1, 169724, Note_on_c, 0, 57, 68
1, 169724, Control_c, 0, 64, 65
1, 169732, Note_on_c, 0, 60, 63
1, 169733, Note_on_c, 0, 84, 55
1, 169739, Control_c, 0, 64, 70
1, 169748, Note_off_c, 0, 57, 67
1, 169750, Note_off_c, 0, 48, 65
1, 169753, Note_off_c, 0, 60, 65
1, 169753, Control_c, 0, 64, 79
1, 169768, Control_c, 0, 64, 89
1, 169783, Control_c, 0, 64, 95
1, 169869, Note_on_c, 0, 89, 51
1, 169887, Control_c, 0, 64, 94
1, 169901, Note_off_c, 0, 89, 57
1, 169901, Control_c, 0, 64, 91
1, 169916, Control_c, 0, 64, 87
1, 169931, Control_c, 0, 64, 84
1, 169946, Control_c, 0, 64, 84
1, 169961, Control_c, 0, 64, 83
1, 169975, Control_c, 0, 64, 82
1, 169990, Note_on_c, 0, 89, 67
1, 169990, Control_c, 0, 64, 81
1, 170005, Control_c, 0, 64, 79
1, 170019, Note_off_c, 0, 89, 62
1, 170020, Control_c, 0, 64, 78
1, 170035, Control_c, 0, 64, 77
1, 170053, Note_off_c, 0, 84, 45
1, 170057, Control_c, 0, 64, 74
1, 170072, Control_c, 0, 64, 68
1, 170086, Control_c, 0, 64, 59
1, 170101, Control_c, 0, 64, 45
1, 170116, Control_c, 0, 64, 31
1, 170131, Control_c, 0, 64, 0
1, 170154, Note_on_c, 0, 86, 69
1, 170155, Note_on_c, 0, 70, 50
1, 170156, Note_on_c, 0, 60, 41
1, 170163, Note_on_c, 0, 74, 60
1, 170176, Control_c, 0, 64, 37
1, 170191, Control_c, 0, 64, 51
1, 170206, Control_c, 0, 64, 63
1, 170221, Control_c, 0, 64, 71
1, 170231, Note_off_c, 0, 70, 62
1, 170234, Note_off_c, 0, 74, 62
1, 170236, Control_c, 0, 64, 78
1, 170244, Note_off_c, 0, 60, 62
1, 170250, Control_c, 0, 64, 80
1, 170265, Control_c, 0, 64, 82
1, 170280, Control_c, 0, 64, 84
1, 170289, Note_on_c, 0, 91, 72
1, 170295, Control_c, 0, 64, 86
1, 170310, Control_c, 0, 64, 88
1, 170321, Note_off_c, 0, 91, 64
1, 170324, Control_c, 0, 64, 90
1, 170339, Control_c, 0, 64, 91
1, 170350, Note_off_c, 0, 86, 49
1, 170354, Control_c, 0, 64, 91
1, 170369, Control_c, 0, 64, 92
1, 170413, Note_on_c, 0, 91, 75
1, 170429, Control_c, 0, 64, 92
1, 170437, Note_off_c, 0, 91, 70
1, 170473, Control_c, 0, 64, 91
1, 170488, Control_c, 0, 64, 84
1, 170502, Control_c, 0, 64, 69
1, 170517, Control_c, 0, 64, 54
1, 170532, Control_c, 0, 64, 42
1, 170542, Note_on_c, 0, 84, 68
1, 170547, Control_c, 0, 64, 38
1, 170554, Note_on_c, 0, 60, 46
1, 170559, Note_on_c, 0, 72, 48
1, 170566, Note_on_c, 0, 69, 35
1, 170576, Control_c, 0, 64, 39
1, 170591, Control_c, 0, 64, 45
1, 170606, Control_c, 0, 64, 53
1, 170616, Note_off_c, 0, 72, 55
1, 170621, Control_c, 0, 64, 62
1, 170628, Note_off_c, 0, 69, 53
1, 170636, Control_c, 0, 64, 68
1, 170650, Note_off_c, 0, 60, 60
1, 170650, Control_c, 0, 64, 75
1, 170665, Control_c, 0, 64, 78
1, 170667, Note_on_c, 0, 89, 63
1, 170680, Control_c, 0, 64, 79
1, 170694, Control_c, 0, 64, 79
1, 170702, Note_off_c, 0, 84, 56
1, 170709, Control_c, 0, 64, 80
1, 170715, Note_off_c, 0, 89, 61
1, 170724, Control_c, 0, 64, 81
1, 170739, Control_c, 0, 64, 82
1, 170754, Control_c, 0, 64, 84
1, 170768, Control_c, 0, 64, 85
1, 170783, Control_c, 0, 64, 85
1, 170806, Control_c, 0, 64, 86
1, 170816, Note_on_c, 0, 89, 58
1, 170835, Note_off_c, 0, 89, 63
1, 170850, Control_c, 0, 64, 82
1, 170865, Control_c, 0, 64, 71
1, 170880, Control_c, 0, 64, 58
1, 170895, Control_c, 0, 64, 38
1, 170909, Control_c, 0, 64, 0
1, 170931, Note_on_c, 0, 84, 57
1, 170941, Note_on_c, 0, 67, 35
1, 170941, Note_on_c, 0, 70, 44
1, 170945, Note_on_c, 0, 60, 39
1, 170969, Control_c, 0, 64, 34
1, 170985, Control_c, 0, 64, 52
1, 170999, Control_c, 0, 64, 65
1, 171014, Control_c, 0, 64, 74
1, 171029, Control_c, 0, 64, 82
1, 171031, Note_off_c, 0, 70, 63
1, 171037, Note_off_c, 0, 67, 56
1, 171043, Note_off_c, 0, 60, 64
1, 171044, Control_c, 0, 64, 86
1, 171059, Control_c, 0, 64, 89
1, 171063, Note_on_c, 0, 88, 69
1, 171073, Control_c, 0, 64, 91
1, 171088, Control_c, 0, 64, 92
1, 171090, Note_off_c, 0, 88, 65
1, 171090, Note_off_c, 0, 84, 51
1, 171148, Control_c, 0, 64, 90
1, 171163, Control_c, 0, 64, 85
1, 171178, Control_c, 0, 64, 79
1, 171187, Note_on_c, 0, 88, 72
1, 171192, Control_c, 0, 64, 71
1, 171207, Control_c, 0, 64, 61
1, 171222, Control_c, 0, 64, 47
1, 171223, Note_off_c, 0, 88, 63
1, 171237, Control_c, 0, 64, 31
1, 171252, Control_c, 0, 64, 0
1, 171317, Note_on_c, 0, 84, 55
1, 171326, Note_on_c, 0, 60, 41
1, 171333, Note_on_c, 0, 66, 44
1, 171341, Control_c, 0, 64, 40
1, 171342, Note_on_c, 0, 69, 41
1, 171356, Control_c, 0, 64, 57
1, 171371, Control_c, 0, 64, 64
1, 171385, Control_c, 0, 64, 68
1, 171397, Note_off_c, 0, 69, 59
1, 171400, Control_c, 0, 64, 70
1, 171411, Note_off_c, 0, 66, 64
1, 171412, Note_off_c, 0, 60, 63
1, 171415, Control_c, 0, 64, 71
1, 171430, Control_c, 0, 64, 73
1, 171445, Control_c, 0, 64, 74
1, 171460, Note_on_c, 0, 87, 64
1, 171460, Control_c, 0, 64, 74
1, 171472, Note_off_c, 0, 84, 40
1, 171474, Control_c, 0, 64, 75
1, 171485, Note_off_c, 0, 87, 68
1, 171570, Control_c, 0, 64, 74
1, 171585, Control_c, 0, 64, 72
1, 171589, Note_on_c, 0, 87, 62
1, 171600, Control_c, 0, 64, 68
1, 171615, Control_c, 0, 64, 60
1, 171630, Control_c, 0, 64, 48
1, 171639, Note_off_c, 0, 87, 60
1, 171645, Control_c, 0, 64, 29
1, 171660, Control_c, 0, 64, 0
1, 171712, Note_on_c, 0, 84, 46
1, 171723, Note_on_c, 0, 66, 56
1, 171728, Note_on_c, 0, 60, 49
1, 171731, Note_on_c, 0, 69, 48
1, 171733, Control_c, 0, 64, 41
1, 171748, Control_c, 0, 64, 55
1, 171763, Control_c, 0, 64, 67
1, 171774, Note_off_c, 0, 69, 63
1, 171779, Control_c, 0, 64, 73
1, 171794, Control_c, 0, 64, 78
1, 171797, Note_off_c, 0, 66, 62
1, 171806, Note_off_c, 0, 60, 63
1, 171809, Control_c, 0, 64, 80
1, 171823, Control_c, 0, 64, 83
1, 171838, Control_c, 0, 64, 86
1, 171844, Note_on_c, 0, 86, 64
1, 171853, Control_c, 0, 64, 91
1, 171868, Control_c, 0, 64, 96
1, 171883, Control_c, 0, 64, 99
1, 171889, Note_off_c, 0, 84, 54
1, 171890, Note_off_c, 0, 86, 60
1, 171897, Control_c, 0, 64, 104
1, 171912, Control_c, 0, 64, 108
1, 171927, Control_c, 0, 64, 118
1, 171941, Control_c, 0, 64, 127
1, 171977, Note_on_c, 0, 86, 52
1, 171997, Note_off_c, 0, 86, 63
1, 172030, Control_c, 0, 64, 86
1, 172045, Control_c, 0, 64, 67
1, 172060, Control_c, 0, 64, 50
1, 172075, Control_c, 0, 64, 0
1, 172094, Note_on_c, 0, 81, 61
1, 172106, Note_on_c, 0, 66, 56
1, 172108, Note_on_c, 0, 69, 56
1, 172113, Note_on_c, 0, 60, 51
1, 172130, Note_on_c, 0, 78, 30
1, 172134, Control_c, 0, 64, 28
1, 172144, Note_off_c, 0, 69, 64
1, 172149, Control_c, 0, 64, 47
1, 172163, Control_c, 0, 64, 62
1, 172175, Note_off_c, 0, 66, 65
1, 172178, Control_c, 0, 64, 74
1, 172184, Note_off_c, 0, 78, 43
1, 172193, Control_c, 0, 64, 86
1, 172199, Note_off_c, 0, 60, 59
1, 172208, Control_c, 0, 64, 93
1, 172223, Control_c, 0, 64, 96
1, 172226, Note_on_c, 0, 87, 75
1, 172238, Note_off_c, 0, 81, 62
1, 172238, Control_c, 0, 64, 99
1, 172253, Control_c, 0, 64, 101
1, 172256, Note_off_c, 0, 87, 63
1, 172351, Note_on_c, 0, 87, 81
1, 172378, Control_c, 0, 64, 96
1, 172393, Control_c, 0, 64, 83
1, 172407, Note_off_c, 0, 87, 64
1, 172408, Control_c, 0, 64, 67
1, 172423, Control_c, 0, 64, 50
1, 172438, Control_c, 0, 64, 29
1, 172453, Control_c, 0, 64, 0
1, 172479, Note_on_c, 0, 81, 76
1, 172498, Note_on_c, 0, 60, 53
1, 172498, Note_on_c, 0, 66, 61
1, 172501, Note_on_c, 0, 69, 60
1, 172512, Control_c, 0, 64, 41
1, 172516, Note_on_c, 0, 78, 35
1, 172527, Control_c, 0, 64, 58
1, 172533, Note_off_c, 0, 69, 67
1, 172541, Control_c, 0, 64, 69
1, 172551, Note_off_c, 0, 78, 48
1, 172556, Control_c, 0, 64, 79
1, 172567, Note_off_c, 0, 60, 60
1, 172572, Control_c, 0, 64, 89
1, 172572, Note_off_c, 0, 66, 62
1, 172587, Control_c, 0, 64, 93
1, 172589, Note_off_c, 0, 81, 54
1, 172602, Control_c, 0, 64, 95
1, 172611, Note_on_c, 0, 86, 82
1, 172617, Control_c, 0, 64, 97
1, 172655, Note_off_c, 0, 86, 65
1, 172675, Control_c, 0, 64, 99
1, 172739, Note_on_c, 0, 86, 82
1, 172764, Control_c, 0, 64, 90
1, 172778, Control_c, 0, 64, 76
1, 172793, Control_c, 0, 64, 59
1, 172798, Note_off_c, 0, 86, 60
1, 172808, Control_c, 0, 64, 41
1, 172823, Control_c, 0, 64, 0
1, 172861, Note_on_c, 0, 82, 82
1, 172878, Note_on_c, 0, 70, 66
1, 172882, Control_c, 0, 64, 29
1, 172885, Note_on_c, 0, 58, 53
1, 172896, Note_on_c, 0, 65, 39
1, 172897, Control_c, 0, 64, 42
1, 172908, Note_on_c, 0, 77, 37
1, 172912, Control_c, 0, 64, 53
1, 172927, Control_c, 0, 64, 63
1, 172935, Note_off_c, 0, 58, 61
1, 172936, Note_off_c, 0, 65, 62
1, 172936, Note_off_c, 0, 70, 61
1, 172941, Control_c, 0, 64, 71
1, 172956, Control_c, 0, 64, 79
1, 172971, Control_c, 0, 64, 84
1, 172986, Control_c, 0, 64, 86
1, 172992, Note_on_c, 0, 87, 82
1, 173001, Control_c, 0, 64, 87
1, 173008, Note_off_c, 0, 82, 62
1, 173010, Note_off_c, 0, 77, 27
1, 173016, Control_c, 0, 64, 88
1, 173046, Note_off_c, 0, 87, 65
1, 173129, Note_on_c, 0, 87, 77
1, 173156, Control_c, 0, 64, 87
1, 173171, Control_c, 0, 64, 84
1, 173177, Note_off_c, 0, 87, 61
1, 173186, Control_c, 0, 64, 76
1, 173201, Control_c, 0, 64, 63
1, 173216, Control_c, 0, 64, 50
1, 173231, Control_c, 0, 64, 38
1, 173245, Control_c, 0, 64, 28
1, 173260, Control_c, 0, 64, 0
1, 173269, Note_on_c, 0, 82, 68
1, 173288, Note_on_c, 0, 70, 50
1, 173291, Note_on_c, 0, 58, 47
1, 173299, Note_on_c, 0, 77, 48
1, 173304, Control_c, 0, 64, 40
1, 173305, Note_on_c, 0, 65, 34
1, 173319, Control_c, 0, 64, 53
1, 173334, Control_c, 0, 64, 62
1, 173349, Control_c, 0, 64, 65
1, 173365, Control_c, 0, 64, 65
1, 173368, Note_off_c, 0, 70, 59
1, 173375, Note_off_c, 0, 58, 53
1, 173380, Control_c, 0, 64, 66
1, 173389, Note_off_c, 0, 77, 33
1, 173394, Control_c, 0, 64, 67
1, 173399, Note_off_c, 0, 82, 51
1, 173404, Note_on_c, 0, 86, 66
1, 173406, Note_off_c, 0, 65, 37
1, 173409, Control_c, 0, 64, 69
1, 173424, Control_c, 0, 64, 72
1, 173439, Control_c, 0, 64, 73
1, 173444, Note_off_c, 0, 86, 60
1, 173454, Control_c, 0, 64, 74
1, 173468, Control_c, 0, 64, 75
1, 173483, Control_c, 0, 64, 76
1, 173498, Control_c, 0, 64, 76
1, 173521, Note_on_c, 0, 86, 71
1, 173527, Control_c, 0, 64, 77
1, 173547, Note_off_c, 0, 86, 66
1, 173572, Control_c, 0, 64, 76
1, 173587, Control_c, 0, 64, 71
1, 173601, Control_c, 0, 64, 60
1, 173616, Control_c, 0, 64, 46
1, 173631, Control_c, 0, 64, 34
1, 173646, Control_c, 0, 64, 0
1, 173665, Note_on_c, 0, 81, 53
1, 173670, Note_on_c, 0, 60, 48
1, 173675, Control_c, 0, 64, 28
1, 173676, Note_on_c, 0, 65, 39
1, 173678, Note_on_c, 0, 77, 40
1, 173690, Control_c, 0, 64, 38
1, 173701, Note_on_c, 0, 69, 18
1, 173705, Control_c, 0, 64, 52
1, 173720, Control_c, 0, 64, 62
1, 173734, Control_c, 0, 64, 67
1, 173747, Note_off_c, 0, 69, 50
1, 173749, Control_c, 0, 64, 70
1, 173758, Note_off_c, 0, 81, 57
1, 173764, Control_c, 0, 64, 70
1, 173768, Note_off_c, 0, 60, 63
1, 173789, Note_off_c, 0, 65, 36
1, 173809, Note_on_c, 0, 84, 58
1, 173816, Control_c, 0, 64, 71
1, 173831, Control_c, 0, 64, 71
1, 173840, Note_off_c, 0, 84, 65
1, 173846, Control_c, 0, 64, 72
1, 173865, Note_off_c, 0, 77, 22
1, 173875, Control_c, 0, 64, 72
1, 173890, Control_c, 0, 64, 73
1, 173919, Control_c, 0, 64, 73
1, 173933, Note_on_c, 0, 84, 64
1, 173949, Control_c, 0, 64, 74
1, 173954, Note_off_c, 0, 84, 65
1, 173964, Control_c, 0, 64, 74
1, 173979, Control_c, 0, 64, 75
1, 174024, Control_c, 0, 64, 72
1, 174038, Control_c, 0, 64, 65
1, 174053, Control_c, 0, 64, 52
1, 174068, Control_c, 0, 64, 40
1, 174076, Note_on_c, 0, 67, 34
1, 174076, Note_on_c, 0, 79, 51
1, 174083, Control_c, 0, 64, 37
1, 174083, Note_on_c, 0, 60, 34
1, 174088, Note_on_c, 0, 70, 38
1, 174089, Note_on_c, 0, 76, 44
1, 174098, Control_c, 0, 64, 38
1, 174112, Control_c, 0, 64, 46
1, 174128, Control_c, 0, 64, 56
1, 174143, Control_c, 0, 64, 65
1, 174144, Note_off_c, 0, 70, 62
1, 174158, Control_c, 0, 64, 70
1, 174158, Note_off_c, 0, 67, 59
1, 174173, Control_c, 0, 64, 73
1, 174188, Control_c, 0, 64, 74
1, 174190, Note_off_c, 0, 60, 59
1, 174203, Control_c, 0, 64, 74
1, 174207, Note_off_c, 0, 79, 39
1, 174217, Control_c, 0, 64, 75
1, 174224, Note_on_c, 0, 84, 49
1, 174232, Control_c, 0, 64, 76
1, 174247, Control_c, 0, 64, 77
1, 174252, Note_off_c, 0, 84, 57
1, 174262, Control_c, 0, 64, 78
1, 174277, Control_c, 0, 64, 79
1, 174322, Control_c, 0, 64, 79
1, 174336, Note_on_c, 0, 84, 59
1, 174351, Control_c, 0, 64, 80
1, 174358, Note_off_c, 0, 84, 66
1, 174370, Note_off_c, 0, 76, 26
1, 174425, Control_c, 0, 64, 77
1, 174440, Control_c, 0, 64, 70
1, 174455, Control_c, 0, 64, 61
1, 174470, Control_c, 0, 64, 49
1, 174485, Control_c, 0, 64, 40
1, 174499, Control_c, 0, 64, 37
1, 174501, Note_on_c, 0, 70, 71
1, 174514, Control_c, 0, 64, 38
1, 174523, Note_on_c, 0, 46, 33
1, 174527, Note_on_c, 0, 55, 37
1, 174529, Control_c, 0, 64, 42
1, 174545, Note_on_c, 0, 52, 42
1, 174551, Control_c, 0, 64, 50
1, 174566, Control_c, 0, 64, 59
1, 174581, Control_c, 0, 64, 64
1, 174596, Control_c, 0, 64, 68
1, 174611, Control_c, 0, 64, 70
1, 174614, Note_off_c, 0, 46, 61
1, 174617, Note_off_c, 0, 55, 61
1, 174625, Control_c, 0, 64, 72
1, 174629, Note_off_c, 0, 52, 62
1, 174640, Control_c, 0, 64, 73
1, 174648, Note_on_c, 0, 73, 59
1, 174655, Control_c, 0, 64, 74
1, 174662, Note_off_c, 0, 70, 54
1, 174676, Note_off_c, 0, 73, 63
1, 174757, Note_on_c, 0, 73, 65
1, 174758, Control_c, 0, 64, 74
1, 174773, Control_c, 0, 64, 73
1, 174788, Control_c, 0, 64, 68
1, 174789, Note_off_c, 0, 73, 61
1, 174803, Control_c, 0, 64, 61
1, 174817, Control_c, 0, 64, 51
1, 174832, Control_c, 0, 64, 33
1, 174847, Control_c, 0, 64, 0
1, 174891, Note_on_c, 0, 70, 66
1, 174915, Note_on_c, 0, 46, 43
1, 174918, Note_on_c, 0, 52, 46
1, 174921, Note_on_c, 0, 55, 44
1, 174921, Control_c, 0, 64, 31
1, 174936, Control_c, 0, 64, 47
1, 174951, Control_c, 0, 64, 60
1, 174966, Control_c, 0, 64, 67
1, 174981, Control_c, 0, 64, 69
1, 174988, Note_off_c, 0, 52, 61
1, 174989, Note_off_c, 0, 55, 61
1, 174996, Control_c, 0, 64, 70
1, 174997, Note_off_c, 0, 46, 62
1, 175011, Control_c, 0, 64, 71
1, 175026, Control_c, 0, 64, 71
1, 175028, Note_on_c, 0, 72, 67
1, 175040, Control_c, 0, 64, 72
1, 175055, Control_c, 0, 64, 72
1, 175057, Note_off_c, 0, 70, 61
1, 175062, Note_off_c, 0, 72, 57
1, 175129, Control_c, 0, 64, 71
1, 175144, Control_c, 0, 64, 67
1, 175156, Note_on_c, 0, 72, 74
1, 175159, Control_c, 0, 64, 61
1, 175174, Control_c, 0, 64, 50
1, 175188, Note_off_c, 0, 72, 56
1, 175189, Control_c, 0, 64, 37
1, 175204, Control_c, 0, 64, 0
1, 175278, Control_c, 0, 64, 34
1, 175282, Note_on_c, 0, 67, 78
1, 175299, Note_on_c, 0, 46, 43
1, 175299, Control_c, 0, 64, 50
1, 175303, Note_on_c, 0, 52, 52
1, 175307, Note_on_c, 0, 55, 47
1, 175314, Control_c, 0, 64, 64
1, 175321, Note_on_c, 0, 64, 38
1, 175329, Control_c, 0, 64, 72
1, 175344, Control_c, 0, 64, 79
1, 175359, Control_c, 0, 64, 82
1, 175374, Control_c, 0, 64, 84
1, 175376, Note_off_c, 0, 55, 56
1, 175376, Note_off_c, 0, 64, 41
1, 175384, Note_off_c, 0, 46, 61
1, 175389, Control_c, 0, 64, 86
1, 175391, Note_off_c, 0, 52, 62
1, 175404, Control_c, 0, 64, 87
1, 175419, Control_c, 0, 64, 88
1, 175419, Note_on_c, 0, 73, 76
1, 175422, Note_off_c, 0, 67, 61
1, 175434, Control_c, 0, 64, 89
1, 175455, Note_off_c, 0, 73, 58
1, 175537, Control_c, 0, 64, 87
1, 175544, Note_on_c, 0, 73, 81
1, 175552, Control_c, 0, 64, 77
1, 175566, Control_c, 0, 64, 66
1, 175581, Control_c, 0, 64, 50
1, 175596, Control_c, 0, 64, 0
1, 175599, Note_off_c, 0, 73, 63
1, 175672, Note_on_c, 0, 67, 82
1, 175691, Note_on_c, 0, 46, 44
1, 175695, Note_on_c, 0, 52, 52
1, 175696, Note_on_c, 0, 55, 55
1, 175699, Control_c, 0, 64, 49
1, 175701, Note_on_c, 0, 64, 49
1, 175714, Control_c, 0, 64, 65
1, 175729, Control_c, 0, 64, 74
1, 175741, Note_off_c, 0, 64, 49
1, 175744, Control_c, 0, 64, 81
1, 175747, Note_off_c, 0, 52, 61
1, 175752, Note_off_c, 0, 55, 59
1, 175756, Note_off_c, 0, 46, 62
1, 175760, Control_c, 0, 64, 82
1, 175783, Note_off_c, 0, 67, 60
1, 175789, Control_c, 0, 64, 82
1, 175803, Note_on_c, 0, 72, 79
1, 175804, Control_c, 0, 64, 83
1, 175851, Note_off_c, 0, 72, 61
1, 175878, Control_c, 0, 64, 82
1, 175893, Control_c, 0, 64, 78
1, 175907, Control_c, 0, 64, 71
1, 175922, Note_on_c, 0, 72, 81
1, 175922, Control_c, 0, 64, 61
1, 175937, Control_c, 0, 64, 47
1, 175952, Control_c, 0, 64, 0
1, 175973, Note_off_c, 0, 72, 63
1, 176062, Note_on_c, 0, 68, 83
1, 176063, Control_c, 0, 64, 33
1, 176074, Note_on_c, 0, 56, 59
1, 176077, Note_on_c, 0, 51, 57
1, 176078, Control_c, 0, 64, 50
1, 176079, Note_on_c, 0, 44, 60
1, 176093, Control_c, 0, 64, 60
1, 176098, Note_on_c, 0, 63, 46
1, 176108, Control_c, 0, 64, 63
1, 176115, Note_off_c, 0, 51, 66
1, 176119, Note_off_c, 0, 56, 62
1, 176119, Note_off_c, 0, 44, 64
1, 176122, Control_c, 0, 64, 65
1, 176128, Note_off_c, 0, 63, 52
1, 176137, Control_c, 0, 64, 67
1, 176152, Control_c, 0, 64, 70
1, 176167, Control_c, 0, 64, 73
1, 176182, Control_c, 0, 64, 74
1, 176194, Note_on_c, 0, 73, 77
1, 176197, Control_c, 0, 64, 73
1, 176210, Note_off_c, 0, 68, 57
1, 176212, Control_c, 0, 64, 72
1, 176226, Control_c, 0, 64, 71
1, 176241, Control_c, 0, 64, 68
1, 176245, Note_off_c, 0, 73, 64
1, 176256, Control_c, 0, 64, 63
1, 176271, Control_c, 0, 64, 58
1, 176286, Control_c, 0, 64, 55
1, 176301, Control_c, 0, 64, 54
1, 176315, Control_c, 0, 64, 53
1, 176325, Note_on_c, 0, 73, 81
1, 176330, Control_c, 0, 64, 53
1, 176345, Control_c, 0, 64, 51
1, 176360, Control_c, 0, 64, 46
1, 176375, Control_c, 0, 64, 43
1, 176378, Note_off_c, 0, 73, 61
1, 176389, Control_c, 0, 64, 41
1, 176404, Control_c, 0, 64, 38
1, 176419, Control_c, 0, 64, 28
1, 176434, Control_c, 0, 64, 0
1, 176446, Note_on_c, 0, 68, 65
1, 176474, Note_on_c, 0, 56, 48
1, 176477, Note_on_c, 0, 51, 54
1, 176478, Note_on_c, 0, 44, 45
1, 176478, Control_c, 0, 64, 29
1, 176493, Control_c, 0, 64, 39
1, 176508, Control_c, 0, 64, 46
1, 176510, Note_on_c, 0, 63, 27
1, 176517, Note_off_c, 0, 51, 63
1, 176522, Control_c, 0, 64, 52
1, 176527, Note_off_c, 0, 56, 63
1, 176533, Note_off_c, 0, 44, 62
1, 176537, Control_c, 0, 64, 57
1, 176547, Note_off_c, 0, 63, 50
1, 176552, Control_c, 0, 64, 62
1, 176568, Control_c, 0, 64, 64
1, 176590, Note_off_c, 0, 68, 53
1, 176591, Note_on_c, 0, 72, 55
1, 176625, Note_off_c, 0, 72, 62
1, 176672, Control_c, 0, 64, 64
1, 176710, Note_on_c, 0, 72, 68
1, 176745, Control_c, 0, 64, 63
1, 176758, Note_off_c, 0, 72, 56
1, 176760, Control_c, 0, 64, 58
1, 176775, Control_c, 0, 64, 52
1, 176798, Control_c, 0, 64, 45
1, 176812, Control_c, 0, 64, 39
1, 176827, Control_c, 0, 64, 34
1, 176842, Control_c, 0, 64, 31
1, 176857, Control_c, 0, 64, 32
1, 176864, Note_on_c, 0, 51, 39
1, 176867, Note_on_c, 0, 67, 30
1, 176871, Note_on_c, 0, 46, 43
1, 176871, Control_c, 0, 64, 38
1, 176876, Note_on_c, 0, 63, 33
1, 176886, Control_c, 0, 64, 48
1, 176887, Note_on_c, 0, 55, 26
1, 176901, Control_c, 0, 64, 56
1, 176916, Control_c, 0, 64, 59
1, 176931, Control_c, 0, 64, 61
1, 176936, Note_off_c, 0, 55, 48
1, 176945, Note_off_c, 0, 51, 56
1, 176945, Control_c, 0, 64, 62
1, 176951, Note_off_c, 0, 46, 58
1, 176960, Control_c, 0, 64, 64
1, 176969, Note_off_c, 0, 67, 40
1, 176971, Note_off_c, 0, 63, 34
1, 176975, Control_c, 0, 64, 65
1, 176982, Note_on_c, 0, 70, 58
1, 176990, Control_c, 0, 64, 66
1, 177018, Note_off_c, 0, 70, 63
1, 177094, Control_c, 0, 64, 65
1, 177122, Note_on_c, 0, 70, 60
1, 177148, Note_off_c, 0, 70, 65
1, 177168, Control_c, 0, 64, 64
1, 177183, Control_c, 0, 64, 63
1, 177198, Control_c, 0, 64, 60
1, 177212, Control_c, 0, 64, 55
1, 177227, Control_c, 0, 64, 52
1, 177242, Control_c, 0, 64, 48
1, 177257, Control_c, 0, 64, 41
1, 177271, Control_c, 0, 64, 33
1, 177273, Note_on_c, 0, 46, 32
1, 177274, Note_on_c, 0, 56, 31
1, 177274, Note_on_c, 0, 65, 54
1, 177280, Note_on_c, 0, 53, 31
1, 177286, Control_c, 0, 64, 32
1, 177287, Note_on_c, 0, 62, 24
1, 177301, Control_c, 0, 64, 34
1, 177316, Control_c, 0, 64, 41
1, 177331, Control_c, 0, 64, 50
1, 177345, Control_c, 0, 64, 57
1, 177361, Control_c, 0, 64, 61
1, 177376, Control_c, 0, 64, 63
1, 177388, Note_off_c, 0, 65, 59
1, 177391, Control_c, 0, 64, 65
1, 177406, Control_c, 0, 64, 68
1, 177418, Note_on_c, 0, 70, 53
1, 177421, Control_c, 0, 64, 70
1, 177435, Control_c, 0, 64, 71
1, 177436, Note_off_c, 0, 46, 51
1, 177436, Note_off_c, 0, 56, 43
1, 177450, Control_c, 0, 64, 72
1, 177461, Note_off_c, 0, 70, 59
1, 177470, Note_off_c, 0, 53, 39
1, 177494, Note_off_c, 0, 62, 42
1, 177598, Note_on_c, 0, 70, 50
1, 177650, Control_c, 0, 64, 71
1, 177665, Control_c, 0, 64, 71
1, 177680, Control_c, 0, 64, 70
1, 177694, Control_c, 0, 64, 70
1, 177702, Note_off_c, 0, 70, 37
1, 177709, Control_c, 0, 64, 69
1, 177724, Control_c, 0, 64, 69
1, 177739, Control_c, 0, 64, 67
1, 177754, Control_c, 0, 64, 65
1, 177768, Control_c, 0, 64, 64
1, 177783, Control_c, 0, 64, 63
1, 177798, Control_c, 0, 64, 63
1, 177813, Control_c, 0, 64, 61
1, 177828, Control_c, 0, 64, 60
1, 177872, Control_c, 0, 64, 59
1, 177887, Control_c, 0, 64, 58
1, 177902, Control_c, 0, 64, 55
1, 177917, Control_c, 0, 64, 53
1, 177932, Control_c, 0, 64, 53
1, 177946, Control_c, 0, 64, 52
1, 177961, Control_c, 0, 64, 52
1, 177976, Control_c, 0, 64, 49
1, 177991, Control_c, 0, 64, 47
1, 178050, Control_c, 0, 64, 47
1, 178065, Control_c, 0, 64, 46
1, 178340, Control_c, 0, 64, 47
1, 178414, Control_c, 0, 64, 47
1, 178473, Control_c, 0, 64, 48
1, 178488, Control_c, 0, 64, 49
1, 178503, Control_c, 0, 64, 50
1, 178532, Control_c, 0, 64, 51
1, 178543, Note_on_c, 0, 78, 52
1, 178547, Control_c, 0, 64, 53
1, 178555, Note_on_c, 0, 73, 40
1, 178560, Note_on_c, 0, 66, 41
1, 178562, Control_c, 0, 64, 57
1, 178577, Control_c, 0, 64, 61
1, 178591, Control_c, 0, 64, 62
1, 178635, Control_c, 0, 64, 63
1, 178650, Control_c, 0, 64, 64
1, 178665, Control_c, 0, 64, 66
1, 178678, Note_on_c, 0, 82, 67
1, 178680, Control_c, 0, 64, 68
1, 178686, Note_off_c, 0, 66, 62
1, 178695, Control_c, 0, 64, 69
1, 178710, Control_c, 0, 64, 69
1, 178714, Note_off_c, 0, 78, 47
1, 178718, Note_off_c, 0, 82, 57
1, 178724, Control_c, 0, 64, 70
1, 178739, Control_c, 0, 64, 70
1, 178743, Note_off_c, 0, 73, 54
1, 178794, Note_on_c, 0, 82, 74
1, 178814, Control_c, 0, 64, 68
1, 178828, Control_c, 0, 64, 64
1, 178843, Control_c, 0, 64, 59
1, 178845, Note_off_c, 0, 82, 55
1, 178858, Control_c, 0, 64, 51
1, 178873, Control_c, 0, 64, 35
1, 178888, Control_c, 0, 64, 0
1, 178912, Note_on_c, 0, 78, 76
1, 178930, Note_on_c, 0, 73, 68
1, 178933, Note_on_c, 0, 63, 52
1, 178947, Control_c, 0, 64, 37
1, 178963, Control_c, 0, 64, 56
1, 178974, Note_off_c, 0, 63, 65
1, 178978, Control_c, 0, 64, 67
1, 178993, Note_off_c, 0, 73, 61
1, 178993, Control_c, 0, 64, 74
1, 179007, Control_c, 0, 64, 80
1, 179022, Control_c, 0, 64, 81
1, 179044, Control_c, 0, 64, 82
1, 179051, Note_on_c, 0, 81, 82
1, 179062, Note_off_c, 0, 78, 58
1, 179088, Control_c, 0, 64, 82
1, 179106, Note_off_c, 0, 81, 62
1, 179133, Control_c, 0, 64, 83
1, 179186, Note_on_c, 0, 81, 73
1, 179192, Control_c, 0, 64, 82
1, 179207, Control_c, 0, 64, 80
1, 179222, Control_c, 0, 64, 74
1, 179237, Control_c, 0, 64, 67
1, 179249, Note_off_c, 0, 81, 50
1, 179252, Control_c, 0, 64, 60
1, 179266, Control_c, 0, 64, 53
1, 179281, Control_c, 0, 64, 48
1, 179296, Control_c, 0, 64, 40
1, 179311, Control_c, 0, 64, 29
1, 179321, Note_on_c, 0, 77, 44
1, 179326, Control_c, 0, 64, 0
1, 179343, Note_on_c, 0, 68, 48
1, 179355, Control_c, 0, 64, 31
1, 179359, Note_on_c, 0, 73, 43
1, 179368, Control_c, 0, 64, 42
1, 179383, Control_c, 0, 64, 53
1, 179398, Control_c, 0, 64, 58
1, 179408, Note_off_c, 0, 73, 41
1, 179413, Control_c, 0, 64, 61
1, 179425, Note_off_c, 0, 68, 37
1, 179428, Control_c, 0, 64, 62
1, 179443, Control_c, 0, 64, 64
1, 179457, Control_c, 0, 64, 66
1, 179463, Note_on_c, 0, 80, 55
1, 179472, Control_c, 0, 64, 68
1, 179477, Note_off_c, 0, 77, 54
1, 179485, Poly_aftertouch_c, 0, 73, 127
1, 179487, Control_c, 0, 64, 69
1, 179499, Note_off_c, 0, 80, 60
1, 179517, Control_c, 0, 64, 69
1, 179553, Poly_aftertouch_c, 0, 73, 0
1, 179561, Control_c, 0, 64, 70
1, 179610, Note_on_c, 0, 80, 48
1, 179620, Control_c, 0, 64, 70
1, 179639, Note_off_c, 0, 80, 62
1, 179754, Control_c, 0, 64, 70
1, 179759, Note_on_c, 0, 75, 41
1, 179762, Note_on_c, 0, 68, 36
1, 179769, Control_c, 0, 64, 69
1, 179792, Control_c, 0, 64, 66
1, 179796, Note_on_c, 0, 72, 42
1, 179807, Control_c, 0, 64, 61
1, 179821, Control_c, 0, 64, 54
1, 179836, Control_c, 0, 64, 49
1, 179851, Control_c, 0, 64, 45
1, 179866, Control_c, 0, 64, 43
1, 179880, Control_c, 0, 64, 43
1, 179895, Control_c, 0, 64, 47
1, 179910, Control_c, 0, 64, 55
1, 179918, Note_on_c, 0, 80, 44
1, 179919, Note_off_c, 0, 68, 58
1, 179923, Note_off_c, 0, 75, 50
1, 179925, Control_c, 0, 64, 61
1, 179940, Control_c, 0, 64, 64
1, 179954, Note_off_c, 0, 80, 60
1, 179954, Control_c, 0, 64, 65
1, 179969, Control_c, 0, 64, 65
1, 179984, Control_c, 0, 64, 66
1, 179999, Control_c, 0, 64, 67
1, 180014, Control_c, 0, 64, 68
1, 180073, Control_c, 0, 64, 69
1, 180076, Note_off_c, 0, 72, 0
1, 180086, Note_on_c, 0, 80, 39
1, 180087, Control_c, 0, 64, 69
1, 180113, Poly_aftertouch_c, 0, 72, 127
1, 180123, Note_off_c, 0, 80, 59
1, 180164, Poly_aftertouch_c, 0, 72, 0
1, 180295, Control_c, 0, 64, 69
1, 180340, Control_c, 0, 64, 68
1, 180354, Control_c, 0, 64, 66
1, 180369, Control_c, 0, 64, 63
1, 180384, Control_c, 0, 64, 61
1, 180399, Control_c, 0, 64, 60
1, 180414, Control_c, 0, 64, 59
1, 180428, Control_c, 0, 64, 56
1, 180443, Control_c, 0, 64, 52
1, 180458, Control_c, 0, 64, 47
1, 180473, Control_c, 0, 64, 42
1, 180487, Control_c, 0, 64, 37
1, 180502, Control_c, 0, 64, 34
1, 180517, Control_c, 0, 64, 32
1, 180540, Control_c, 0, 64, 0
1, 180674, Control_c, 0, 64, 28
1, 180676, Note_on_c, 0, 65, 74
1, 180683, Note_on_c, 0, 61, 62
1, 180688, Note_on_c, 0, 44, 55
1, 180689, Control_c, 0, 64, 50
1, 180703, Control_c, 0, 64, 66
1, 180718, Control_c, 0, 64, 77
1, 180733, Control_c, 0, 64, 89
1, 180748, Control_c, 0, 64, 98
1, 180749, Note_off_c, 0, 44, 61
1, 180763, Control_c, 0, 64, 105
1, 180777, Control_c, 0, 64, 118
1, 180792, Control_c, 0, 64, 127
1, 180798, Note_off_c, 0, 61, 62
1, 180802, Note_off_c, 0, 65, 60
1, 180827, Note_on_c, 0, 68, 71
1, 180836, Control_c, 0, 64, 113
1, 180851, Control_c, 0, 64, 81
1, 180862, Note_off_c, 0, 68, 60
1, 180867, Control_c, 0, 64, 64
1, 180882, Control_c, 0, 64, 47
1, 180897, Control_c, 0, 64, 30
1, 180911, Control_c, 0, 64, 0
1, 180961, Note_on_c, 0, 68, 65
1, 180993, Note_off_c, 0, 68, 60
1, 181102, Note_on_c, 0, 63, 57
1, 181111, Note_on_c, 0, 44, 38
1, 181112, Note_on_c, 0, 60, 49
1, 181238, Note_on_c, 0, 68, 52
1, 181250, Note_off_c, 0, 44, 62
1, 181264, Note_off_c, 0, 63, 46
1, 181285, Note_off_c, 0, 68, 62
1, 181303, Note_off_c, 0, 60, 49
1, 181421, Note_on_c, 0, 68, 46
1, 181464, Note_off_c, 0, 68, 62
1, 181995, Note_on_c, 0, 63, 40
1, 182007, Note_on_c, 0, 60, 36
1, 182009, Note_on_c, 0, 45, 27
1, 182082, Control_c, 0, 64, 30
1, 182097, Control_c, 0, 64, 37
1, 182112, Control_c, 0, 64, 41
1, 182127, Control_c, 0, 64, 42
1, 182141, Control_c, 0, 64, 44
1, 182157, Control_c, 0, 64, 48
1, 182159, Note_off_c, 0, 45, 34
1, 182172, Control_c, 0, 64, 51
1, 182189, Note_on_c, 0, 66, 39
1, 182211, Note_off_c, 0, 63, 45
1, 182221, Note_off_c, 0, 66, 54
1, 182261, Control_c, 0, 64, 50
1, 182268, Note_off_c, 0, 60, 45
1, 182275, Control_c, 0, 64, 50
1, 182290, Control_c, 0, 64, 49
1, 182305, Control_c, 0, 64, 49
1, 182331, Note_on_c, 0, 66, 40
1, 182361, Note_off_c, 0, 66, 55
1, 182364, Control_c, 0, 64, 48
1, 182505, Note_on_c, 0, 63, 38
1, 182516, Note_on_c, 0, 60, 37
1, 182531, Note_on_c, 0, 45, 16
1, 182661, Control_c, 0, 64, 49
1, 182682, Note_on_c, 0, 65, 40
1, 182687, Note_off_c, 0, 63, 36
1, 182725, Note_off_c, 0, 45, 38
1, 182740, Note_off_c, 0, 60, 43
1, 182758, Note_off_c, 0, 65, 55
1, 182920, Note_on_c, 0, 65, 23
1, 183023, Note_off_c, 0, 65, 38
1, 183261, Control_c, 0, 64, 48
1, 183468, Control_c, 0, 64, 49
1, 183483, Control_c, 0, 64, 49
1, 183550, Control_c, 0, 64, 50
1, 183579, Control_c, 0, 64, 50
1, 183609, Control_c, 0, 64, 51
1, 183622, Note_on_c, 0, 57, 20
1, 183623, Control_c, 0, 64, 52
1, 183634, Note_on_c, 0, 75, 37
1, 183636, Note_on_c, 0, 72, 21
1, 183638, Control_c, 0, 64, 56
1, 183653, Control_c, 0, 64, 59
1, 183668, Control_c, 0, 64, 61
1, 183683, Control_c, 0, 64, 61
1, 183697, Control_c, 0, 64, 63
1, 183712, Control_c, 0, 64, 66
1, 183727, Control_c, 0, 64, 69
1, 183742, Control_c, 0, 64, 73
1, 183758, Control_c, 0, 64, 77
1, 183773, Control_c, 0, 64, 80
1, 183784, Note_off_c, 0, 57, 50
1, 183788, Note_on_c, 0, 77, 55
1, 183788, Control_c, 0, 64, 84
1, 183802, Control_c, 0, 64, 88
1, 183817, Control_c, 0, 64, 92
1, 183822, Note_off_c, 0, 77, 63
1, 183824, Note_off_c, 0, 75, 54
1, 183832, Control_c, 0, 64, 94
1, 183847, Control_c, 0, 64, 97
1, 183862, Control_c, 0, 64, 99
1, 183877, Control_c, 0, 64, 102
1, 183892, Control_c, 0, 64, 107
1, 183907, Control_c, 0, 64, 117
1, 183913, Note_on_c, 0, 77, 58
1, 183922, Control_c, 0, 64, 127
1, 183945, Note_off_c, 0, 77, 62
1, 183968, Note_off_c, 0, 72, 39
1, 184040, Control_c, 0, 64, 109
1, 184047, Note_on_c, 0, 58, 36
1, 184047, Note_on_c, 0, 75, 67
1, 184054, Control_c, 0, 64, 80
1, 184069, Control_c, 0, 64, 62
1, 184072, Note_on_c, 0, 70, 51
1, 184084, Control_c, 0, 64, 48
1, 184099, Control_c, 0, 64, 44
1, 184114, Control_c, 0, 64, 46
1, 184129, Control_c, 0, 64, 51
1, 184144, Control_c, 0, 64, 58
1, 184159, Control_c, 0, 64, 65
1, 184174, Control_c, 0, 64, 71
1, 184188, Control_c, 0, 64, 78
1, 184195, Note_on_c, 0, 79, 64
1, 184203, Control_c, 0, 64, 84
1, 184218, Control_c, 0, 64, 93
1, 184232, Note_off_c, 0, 75, 55
1, 184233, Control_c, 0, 64, 101
1, 184247, Control_c, 0, 64, 116
1, 184254, Note_off_c, 0, 79, 61
1, 184257, Note_off_c, 0, 70, 48
1, 184262, Control_c, 0, 64, 127
1, 184289, Note_off_c, 0, 58, 42
1, 184320, Note_on_c, 0, 79, 53
1, 184410, Note_off_c, 0, 79, 50
1, 184454, Note_on_c, 0, 74, 69
1, 184459, Note_on_c, 0, 70, 61
1, 184462, Control_c, 0, 64, 94
1, 184477, Control_c, 0, 64, 70
1, 184478, Note_on_c, 0, 46, 43
1, 184492, Control_c, 0, 64, 57
1, 184507, Control_c, 0, 64, 51
1, 184521, Control_c, 0, 64, 53
1, 184536, Control_c, 0, 64, 58
1, 184552, Control_c, 0, 64, 66
1, 184567, Control_c, 0, 64, 80
1, 184582, Control_c, 0, 64, 112
1, 184587, Note_on_c, 0, 77, 67
1, 184588, Note_off_c, 0, 46, 60
1, 184597, Control_c, 0, 64, 127
1, 184619, Note_off_c, 0, 74, 59
1, 184628, Note_off_c, 0, 77, 60
1, 184650, Note_off_c, 0, 70, 60
1, 184709, Note_on_c, 0, 77, 62
1, 184725, Note_off_c, 0, 77, 67
1, 184856, Note_on_c, 0, 62, 72
1, 184877, Note_on_c, 0, 58, 46
1, 184877, Control_c, 0, 64, 85
1, 184892, Control_c, 0, 64, 64
1, 184899, Note_on_c, 0, 48, 39
1, 184907, Control_c, 0, 64, 49
1, 184922, Control_c, 0, 64, 45
1, 184937, Control_c, 0, 64, 47
1, 184952, Control_c, 0, 64, 56
1, 184966, Control_c, 0, 64, 66
1, 184981, Control_c, 0, 64, 80
1, 184983, Note_on_c, 0, 65, 66
1, 184996, Control_c, 0, 64, 97
1, 185011, Control_c, 0, 64, 106
1, 185033, Control_c, 0, 64, 123
1, 185048, Control_c, 0, 64, 127
1, 185050, Note_off_c, 0, 65, 61
1, 185085, Note_off_c, 0, 58, 53
1, 185092, Control_c, 0, 67, 120
1, 185107, Control_c, 0, 67, 108
1, 185121, Note_off_c, 0, 48, 30
1, 185122, Control_c, 0, 67, 99
1, 185136, Note_on_c, 0, 65, 78
1, 185137, Note_off_c, 0, 62, 35
1, 185137, Control_c, 0, 67, 91
1, 185151, Control_c, 0, 67, 86
1, 185166, Control_c, 0, 67, 81
1, 185181, Control_c, 0, 67, 77
1, 185186, Note_off_c, 0, 65, 57
1, 185196, Control_c, 0, 67, 74
1, 185211, Control_c, 0, 67, 73
1, 185255, Note_on_c, 0, 60, 79
1, 185256, Control_c, 0, 67, 73
1, 185272, Note_on_c, 0, 57, 56
1, 185275, Note_on_c, 0, 48, 58
1, 185285, Control_c, 0, 64, 101
1, 185285, Control_c, 0, 67, 73
1, 185300, Control_c, 0, 64, 71
1, 185315, Control_c, 0, 64, 52
1, 185315, Control_c, 0, 67, 74
1, 185330, Control_c, 0, 64, 39
1, 185345, Control_c, 0, 64, 38
1, 185360, Control_c, 0, 64, 41
1, 185360, Control_c, 0, 67, 73
1, 185375, Control_c, 0, 64, 52
1, 185375, Control_c, 0, 67, 70
1, 185390, Control_c, 0, 64, 64
1, 185390, Control_c, 0, 67, 66
1, 185395, Note_on_c, 0, 65, 75
1, 185405, Control_c, 0, 64, 76
1, 185405, Control_c, 0, 67, 47
1, 185420, Note_off_c, 0, 57, 58
1, 185420, Control_c, 0, 64, 94
1, 185420, Control_c, 0, 67, 0
1, 185431, Note_off_c, 0, 48, 59
1, 185434, Control_c, 0, 64, 114
1, 185449, Control_c, 0, 64, 127
1, 185462, Note_off_c, 0, 65, 58
1, 185532, Note_on_c, 0, 65, 76
1, 185538, Note_off_c, 0, 60, 61
1, 185578, Note_off_c, 0, 65, 62
1, 185725, Note_on_c, 0, 65, 80
1, 185745, Control_c, 0, 64, 108
1, 185748, Note_on_c, 0, 60, 55
1, 185750, Note_on_c, 0, 55, 47
1, 185750, Note_on_c, 0, 58, 50
1, 185760, Control_c, 0, 64, 75
1, 185781, Note_on_c, 0, 48, 44
1, 185782, Control_c, 0, 64, 56
1, 185797, Control_c, 0, 64, 36
1, 185812, Control_c, 0, 64, 28
1, 185856, Control_c, 0, 64, 40
1, 185871, Control_c, 0, 64, 56
1, 185886, Control_c, 0, 64, 67
1, 185900, Control_c, 0, 64, 76
1, 185912, Note_on_c, 0, 72, 65
1, 185915, Control_c, 0, 64, 86
1, 185928, Note_off_c, 0, 58, 58
1, 185930, Control_c, 0, 64, 91
1, 185930, Control_c, 0, 67, 46
1, 185945, Control_c, 0, 64, 98
1, 185945, Control_c, 0, 67, 47
1, 185957, Note_off_c, 0, 48, 42
1, 185960, Control_c, 0, 64, 109
1, 185966, Note_off_c, 0, 55, 57
1, 185974, Control_c, 0, 64, 127
1, 185974, Control_c, 0, 67, 49
1, 185978, Note_off_c, 0, 65, 58
1, 185985, Note_off_c, 0, 72, 54
1, 185989, Control_c, 0, 67, 57
1, 186004, Control_c, 0, 67, 90
1, 186007, Note_off_c, 0, 60, 42
1, 186019, Control_c, 0, 67, 110
1, 186034, Control_c, 0, 67, 112
1, 186063, Control_c, 0, 67, 118
1, 186078, Control_c, 0, 67, 127
1, 186096, Note_on_c, 0, 72, 68
1, 186128, Note_off_c, 0, 72, 59
1, 186290, Note_on_c, 0, 64, 69
1, 186305, Note_on_c, 0, 60, 48
1, 186309, Note_on_c, 0, 55, 41
1, 186320, Note_on_c, 0, 58, 43
1, 186325, Note_on_c, 0, 48, 42
1, 186331, Control_c, 0, 64, 105
1, 186346, Control_c, 0, 64, 79
1, 186361, Control_c, 0, 64, 59
1, 186376, Control_c, 0, 64, 37
1, 186390, Control_c, 0, 64, 0
1, 186449, Control_c, 0, 64, 40
1, 186464, Control_c, 0, 64, 57
1, 186479, Control_c, 0, 64, 68
1, 186482, Note_off_c, 0, 58, 61
1, 186494, Control_c, 0, 64, 76
1, 186502, Note_off_c, 0, 55, 58
1, 186509, Control_c, 0, 64, 83
1, 186515, Note_on_c, 0, 72, 61
1, 186531, Control_c, 0, 64, 86
1, 186546, Control_c, 0, 64, 91
1, 186551, Note_off_c, 0, 48, 55
1, 186561, Control_c, 0, 64, 101
1, 186576, Control_c, 0, 64, 127
1, 186593, Note_off_c, 0, 72, 55
1, 186604, Note_off_c, 0, 64, 39
1, 186663, Note_off_c, 0, 60, 37
1, 186710, Note_on_c, 0, 72, 58
1, 186728, Note_on_c, 0, 60, 13
1, 186733, Note_off_c, 0, 72, 62
1, 186773, Note_off_c, 0, 60, 52
1, 186947, Control_c, 0, 64, 113
1, 186962, Control_c, 0, 64, 77
1, 186967, Note_on_c, 0, 65, 54
1, 186971, Note_on_c, 0, 60, 50
1, 186973, Note_on_c, 0, 57, 46
1, 186977, Control_c, 0, 64, 58
1, 186980, Note_on_c, 0, 48, 39
1, 186985, Note_on_c, 0, 41, 42
1, 186992, Control_c, 0, 64, 49
1, 187001, Note_on_c, 0, 53, 31
1, 187007, Control_c, 0, 64, 48
1, 187021, Control_c, 0, 64, 51
1, 187036, Control_c, 0, 64, 60
1, 187050, Note_off_c, 0, 41, 60
1, 187051, Control_c, 0, 64, 70
1, 187054, Note_off_c, 0, 48, 63
1, 187059, Note_off_c, 0, 57, 64
1, 187065, Control_c, 0, 64, 93
1, 187080, Control_c, 0, 64, 127
1, 187081, Note_off_c, 0, 53, 59
1, 187131, Note_off_c, 0, 60, 61
1, 187163, Note_off_c, 0, 65, 62
1, 187293, Note_on_c, 0, 60, 53
1, 187378, Note_off_c, 0, 60, 64
1, 187461, Note_on_c, 0, 57, 66
1, 187493, Note_off_c, 0, 57, 68
1, 187503, Control_c, 0, 67, 125
1, 187518, Control_c, 0, 67, 98
1, 187533, Control_c, 0, 67, 71
1, 187547, Control_c, 0, 67, 42
1, 187562, Control_c, 0, 67, 0
1, 187623, Note_on_c, 0, 60, 77
1, 187727, Note_off_c, 0, 60, 60
1, 187753, Note_on_c, 0, 65, 86
1, 187828, Control_c, 0, 64, 114
1, 187843, Control_c, 0, 64, 108
1, 187843, Control_c, 0, 67, 35
1, 187858, Control_c, 0, 67, 35
1, 187873, Control_c, 0, 67, 35
1, 187888, Control_c, 0, 67, 41
1, 187900, Note_on_c, 0, 69, 88
1, 187903, Control_c, 0, 64, 106
1, 187903, Control_c, 0, 67, 53
1, 187918, Control_c, 0, 64, 104
1, 187918, Control_c, 0, 67, 63
1, 187919, Note_off_c, 0, 65, 61
1, 187932, Control_c, 0, 64, 102
1, 187932, Control_c, 0, 67, 62
1, 187947, Control_c, 0, 67, 63
1, 187962, Control_c, 0, 64, 100
1, 187962, Control_c, 0, 67, 65
1, 187977, Control_c, 0, 67, 69
1, 187992, Control_c, 0, 64, 98
1, 187992, Control_c, 0, 67, 74
1, 188007, Control_c, 0, 64, 95
1, 188007, Control_c, 0, 67, 73
1, 188028, Control_c, 0, 64, 92
1, 188028, Control_c, 0, 67, 74
1, 188043, Control_c, 0, 64, 89
1, 188043, Control_c, 0, 67, 78
1, 188058, Control_c, 0, 64, 86
1, 188058, Control_c, 0, 67, 91
1, 188073, Control_c, 0, 64, 84
1, 188073, Control_c, 0, 67, 108
1, 188088, Control_c, 0, 64, 80
1, 188088, Control_c, 0, 67, 110
1, 188102, Control_c, 0, 64, 73
1, 188117, Note_on_c, 0, 72, 88
1, 188117, Control_c, 0, 64, 68
1, 188117, Control_c, 0, 67, 115
1, 188132, Control_c, 0, 64, 64
1, 188132, Control_c, 0, 67, 127
1, 188141, Note_off_c, 0, 69, 60
1, 188147, Control_c, 0, 64, 61
1, 188162, Note_on_c, 0, 57, 50
1, 188162, Control_c, 0, 64, 56
1, 188170, Note_on_c, 0, 60, 33
1, 188177, Control_c, 0, 64, 49
1, 188192, Control_c, 0, 64, 40
1, 188207, Control_c, 0, 64, 31
1, 188221, Control_c, 0, 64, 0
1, 188517, Control_c, 0, 64, 29
1, 188532, Control_c, 0, 64, 35
1, 188578, Control_c, 0, 64, 36
1, 188592, Control_c, 0, 64, 41
1, 188607, Control_c, 0, 64, 55
1, 188622, Control_c, 0, 64, 61
1, 188637, Control_c, 0, 64, 62
1, 188666, Control_c, 0, 64, 63
1, 188681, Control_c, 0, 64, 65
1, 188696, Control_c, 0, 64, 70
1, 188710, Control_c, 0, 64, 76
1, 188725, Control_c, 0, 64, 80
1, 188726, Note_on_c, 0, 62, 44
1, 188740, Control_c, 0, 64, 83
1, 188755, Control_c, 0, 64, 86
1, 188776, Note_off_c, 0, 62, 61
1, 188778, Control_c, 0, 64, 91
1, 188793, Control_c, 0, 64, 96
1, 188795, Note_off_c, 0, 57, 57
1, 188807, Control_c, 0, 64, 101
1, 188815, Note_off_c, 0, 60, 42
1, 188822, Control_c, 0, 64, 104
1, 188837, Control_c, 0, 64, 106
1, 188851, Control_c, 0, 64, 108
1, 188866, Control_c, 0, 64, 111
1, 188881, Control_c, 0, 64, 116
1, 188896, Control_c, 0, 64, 123
1, 188911, Control_c, 0, 64, 127
1, 189161, Note_on_c, 0, 70, 72
1, 189199, Note_on_c, 0, 64, 46
1, 189200, Note_on_c, 0, 55, 44
1, 189200, Note_on_c, 0, 58, 39
1, 189207, Control_c, 0, 64, 105
1, 189213, Note_on_c, 0, 60, 31
1, 189222, Control_c, 0, 64, 80
1, 189236, Control_c, 0, 64, 62
1, 189251, Control_c, 0, 64, 47
1, 189266, Control_c, 0, 64, 41
1, 189281, Control_c, 0, 64, 40
1, 189292, Note_off_c, 0, 64, 0
1, 189296, Control_c, 0, 64, 42
1, 189311, Control_c, 0, 64, 52
1, 189325, Control_c, 0, 64, 62
1, 189329, Poly_aftertouch_c, 0, 64, 0
1, 189341, Control_c, 0, 64, 70
1, 189348, Note_off_c, 0, 55, 58
1, 189356, Control_c, 0, 64, 83
1, 189364, Note_off_c, 0, 72, 46
1, 189371, Control_c, 0, 64, 100
1, 189378, Note_off_c, 0, 60, 37
1, 189385, Note_off_c, 0, 58, 36
1, 189386, Control_c, 0, 64, 126
1, 189474, Control_c, 0, 64, 116
1, 189476, Note_on_c, 0, 69, 77
1, 189489, Control_c, 0, 64, 78
1, 189504, Control_c, 0, 64, 59
1, 189506, Note_on_c, 0, 57, 41
1, 189522, Note_on_c, 0, 53, 34
1, 189527, Control_c, 0, 64, 43
1, 189530, Note_on_c, 0, 60, 15
1, 189542, Note_off_c, 0, 70, 54
1, 189542, Control_c, 0, 64, 42
1, 189556, Control_c, 0, 64, 45
1, 189571, Poly_aftertouch_c, 0, 65, 127
1, 189571, Control_c, 0, 64, 55
1, 189586, Control_c, 0, 64, 66
1, 189600, Control_c, 0, 64, 82
1, 189615, Control_c, 0, 64, 127
1, 189617, Note_off_c, 0, 60, 59
1, 189617, Poly_aftertouch_c, 0, 65, 0
1, 189627, Note_off_c, 0, 57, 64
1, 189631, Note_off_c, 0, 69, 61
1, 189649, Note_off_c, 0, 53, 62
1, 189919, Note_on_c, 0, 69, 75
1, 189934, Note_on_c, 0, 67, 68
1, 189944, Note_on_c, 0, 57, 48
1, 189951, Note_on_c, 0, 51, 55
1, 189954, Note_on_c, 0, 61, 38
1, 189956, Control_c, 0, 64, 84
1, 189971, Control_c, 0, 64, 64
1, 189985, Control_c, 0, 64, 50
1, 190000, Control_c, 0, 64, 47
1, 190015, Control_c, 0, 64, 49
1, 190030, Control_c, 0, 64, 60
1, 190045, Control_c, 0, 64, 73
1, 190059, Control_c, 0, 64, 105
1, 190074, Control_c, 0, 64, 127
1, 190074, Control_c, 0, 67, 107
1, 190075, Note_off_c, 0, 67, 63
1, 190088, Note_off_c, 0, 57, 52
1, 190089, Control_c, 0, 67, 67
1, 190104, Control_c, 0, 67, 34
1, 190112, Note_off_c, 0, 69, 62
1, 190115, Note_off_c, 0, 61, 43
1, 190119, Control_c, 0, 67, 0
1, 190126, Note_off_c, 0, 51, 38
1, 190347, Note_on_c, 0, 69, 70
1, 190352, Note_on_c, 0, 66, 71
1, 190365, Note_on_c, 0, 62, 58
1, 190368, Note_on_c, 0, 60, 54
1, 190370, Note_on_c, 0, 50, 52
1, 190376, Note_on_c, 0, 57, 54
1, 190379, Control_c, 0, 64, 110
1, 190394, Control_c, 0, 64, 74
1, 190409, Control_c, 0, 64, 54
1, 190423, Control_c, 0, 64, 34
1, 190438, Control_c, 0, 64, 0
1, 190468, Control_c, 0, 64, 32
1, 190483, Control_c, 0, 64, 51
1, 190497, Control_c, 0, 64, 66
1, 190502, Note_off_c, 0, 50, 62
1, 190502, Note_off_c, 0, 60, 62
1, 190505, Note_off_c, 0, 57, 59
1, 190512, Control_c, 0, 64, 80
1, 190516, Note_off_c, 0, 69, 63
1, 190527, Control_c, 0, 64, 104
1, 190542, Control_c, 0, 64, 127
1, 190571, Note_off_c, 0, 66, 63
1, 190880, Note_on_c, 0, 70, 69
1, 190893, Note_on_c, 0, 58, 55
1, 190898, Control_c, 0, 64, 91
1, 190900, Note_on_c, 0, 67, 49
1, 190907, Note_on_c, 0, 43, 44
1, 190913, Note_on_c, 0, 50, 40
1, 190913, Control_c, 0, 64, 68
1, 190928, Control_c, 0, 64, 49
1, 190943, Control_c, 0, 64, 0
1, 190944, Note_on_c, 0, 55, 17
1, 190988, Control_c, 0, 67, 46
1, 191003, Control_c, 0, 67, 79
1, 191025, Control_c, 0, 67, 110
1, 191039, Control_c, 0, 64, 38
1, 191039, Control_c, 0, 67, 120
1, 191054, Control_c, 0, 64, 59
1, 191054, Control_c, 0, 67, 123
1, 191065, Note_off_c, 0, 55, 51
1, 191069, Control_c, 0, 64, 67
1, 191069, Control_c, 0, 67, 127
1, 191071, Note_off_c, 0, 58, 59
1, 191076, Note_off_c, 0, 43, 60
1, 191084, Control_c, 0, 64, 72
1, 191099, Control_c, 0, 64, 78
1, 191103, Note_off_c, 0, 62, 63
1, 191114, Control_c, 0, 64, 91
1, 191125, Note_off_c, 0, 50, 54
1, 191128, Control_c, 0, 64, 127
1, 191140, Note_off_c, 0, 70, 53
1, 191164, Note_off_c, 0, 67, 44
1, 191452, Note_on_c, 0, 69, 59
1, 191593, Note_off_c, 0, 69, 58
1, 191595, Note_on_c, 0, 67, 53
1, 191634, Note_on_c, 0, 64, 42
1, 191646, Control_c, 0, 64, 108
1, 191650, Note_on_c, 0, 48, 41
1, 191651, Note_on_c, 0, 60, 36
1, 191661, Control_c, 0, 64, 86
1, 191670, Note_on_c, 0, 58, 29
1, 191676, Control_c, 0, 64, 72
1, 191691, Control_c, 0, 64, 60
1, 191706, Control_c, 0, 64, 47
1, 191720, Control_c, 0, 64, 38
1, 191736, Control_c, 0, 64, 31
1, 191751, Control_c, 0, 64, 0
1, 191861, Control_c, 0, 64, 28
1, 191876, Control_c, 0, 64, 34
1, 191891, Control_c, 0, 64, 46
1, 191906, Control_c, 0, 64, 61
1, 191921, Control_c, 0, 64, 72
1, 191936, Control_c, 0, 64, 84
1, 191951, Control_c, 0, 64, 97
1, 191951, Note_off_c, 0, 58, 41
1, 191966, Control_c, 0, 64, 117
1, 191969, Note_off_c, 0, 48, 40
1, 191981, Control_c, 0, 64, 127
1, 192009, Note_off_c, 0, 64, 63
1, 192019, Note_off_c, 0, 67, 61
1, 192327, Note_on_c, 0, 68, 51
1, 192437, Note_off_c, 0, 68, 57
1, 192446, Note_off_c, 0, 60, 42
1, 192592, Note_on_c, 0, 69, 50
1, 192604, Note_on_c, 0, 65, 46
1, 192605, Note_on_c, 0, 60, 24
1, 192608, Note_on_c, 0, 53, 34
1, 192609, Control_c, 0, 64, 88
1, 192615, Note_on_c, 0, 57, 41
1, 192624, Control_c, 0, 64, 68
1, 192639, Control_c, 0, 64, 53
1, 192654, Control_c, 0, 64, 44
1, 192684, Control_c, 0, 64, 51
1, 192699, Control_c, 0, 64, 62
1, 192708, Note_off_c, 0, 57, 64
1, 192712, Note_off_c, 0, 53, 63
1, 192714, Control_c, 0, 64, 76
1, 192729, Control_c, 0, 64, 123
1, 192731, Note_off_c, 0, 65, 62
1, 192738, Note_off_c, 0, 69, 62
1, 192741, Note_off_c, 0, 60, 54
1, 192744, Control_c, 0, 64, 127
1, 192773, Control_c, 0, 64, 100
1, 192788, Control_c, 0, 64, 76
1, 192803, Control_c, 0, 64, 66
1, 192817, Control_c, 0, 64, 62
1, 192832, Control_c, 0, 64, 60
1, 192847, Control_c, 0, 64, 57
1, 192862, Control_c, 0, 64, 54
1, 192877, Control_c, 0, 64, 50
1, 192891, Control_c, 0, 64, 47
1, 192906, Control_c, 0, 64, 46
1, 192951, Control_c, 0, 64, 46
1, 192965, Control_c, 0, 64, 44
1, 193009, Control_c, 0, 64, 45
1, 193024, Control_c, 0, 64, 46
1, 193054, Control_c, 0, 64, 47
1, 193069, Control_c, 0, 64, 51
1, 193083, Control_c, 0, 64, 57
1, 193098, Control_c, 0, 64, 61
1, 193113, Control_c, 0, 64, 62
1, 193128, Control_c, 0, 64, 64
1, 193138, Note_on_c, 0, 69, 37
1, 193143, Control_c, 0, 64, 68
1, 193152, Note_on_c, 0, 53, 28
1, 193156, Note_on_c, 0, 57, 33
1, 193157, Note_on_c, 0, 65, 31
1, 193158, Control_c, 0, 64, 76
1, 193165, Note_on_c, 0, 60, 29
1, 193173, Control_c, 0, 64, 88
1, 193188, Control_c, 0, 64, 105
1, 193203, Control_c, 0, 64, 121
1, 193217, Control_c, 0, 64, 127
1, 193219, Note_off_c, 0, 57, 61
1, 193224, Note_off_c, 0, 53, 57
1, 193246, Note_off_c, 0, 60, 56
1, 193262, Note_off_c, 0, 69, 59
1, 193286, Note_off_c, 0, 65, 36
1, 193418, Control_c, 0, 64, 117
1, 193433, Control_c, 0, 64, 107
1, 193447, Control_c, 0, 64, 98
1, 193462, Control_c, 0, 64, 88
1, 193477, Control_c, 0, 64, 77
1, 193492, Control_c, 0, 64, 66
1, 193507, Control_c, 0, 64, 61
1, 193522, Control_c, 0, 64, 59
1, 193537, Control_c, 0, 64, 58
1, 193551, Control_c, 0, 64, 56
1, 193566, Control_c, 0, 64, 54
1, 193581, Control_c, 0, 64, 52
1, 193596, Control_c, 0, 64, 51
1, 193640, Control_c, 0, 64, 50
1, 193655, Control_c, 0, 64, 50
1, 193670, Control_c, 0, 64, 49
1, 193685, Control_c, 0, 64, 49
1, 193936, Control_c, 0, 64, 49
1, 194107, Control_c, 0, 64, 50
1, 194121, Control_c, 0, 64, 50
1, 194359, Control_c, 0, 64, 51
1, 194581, Control_c, 0, 64, 51
1, 194596, Control_c, 0, 64, 52
1, 194655, Control_c, 0, 64, 52
1, 194729, Control_c, 0, 64, 53
1, 194744, Note_on_c, 0, 48, 48
1, 194744, Control_c, 0, 64, 53
1, 194826, Control_c, 0, 64, 54
1, 194841, Control_c, 0, 64, 55
1, 194870, Control_c, 0, 64, 55
1, 194900, Control_c, 0, 64, 56
1, 194914, Control_c, 0, 64, 58
1, 194929, Control_c, 0, 64, 59
1, 194939, Note_on_c, 0, 45, 48
1, 194958, Note_off_c, 0, 48, 63
1, 194990, Control_c, 0, 64, 60
1, 195079, Control_c, 0, 64, 60
1, 195093, Control_c, 0, 64, 62
1, 195100, Note_on_c, 0, 48, 70
1, 195108, Control_c, 0, 64, 63
1, 195123, Control_c, 0, 64, 65
1, 195138, Control_c, 0, 64, 67
1, 195153, Control_c, 0, 64, 71
1, 195167, Control_c, 0, 64, 75
1, 195182, Control_c, 0, 64, 79
1, 195197, Control_c, 0, 64, 81
1, 195212, Control_c, 0, 64, 81
1, 195212, Control_c, 0, 67, 121
1, 195225, Note_off_c, 0, 45, 57
1, 195227, Control_c, 0, 67, 90
1, 195234, Note_on_c, 0, 53, 75
1, 195242, Control_c, 0, 67, 63
1, 195257, Note_off_c, 0, 48, 61
1, 195257, Control_c, 0, 64, 82
1, 195257, Control_c, 0, 67, 41
1, 195271, Control_c, 0, 64, 85
1, 195271, Control_c, 0, 67, 0
1, 195286, Control_c, 0, 64, 89
1, 195301, Control_c, 0, 64, 91
1, 195316, Control_c, 0, 64, 92
1, 195330, Control_c, 0, 64, 93
1, 195345, Control_c, 0, 64, 94
1, 195360, Control_c, 0, 64, 96
1, 195383, Note_on_c, 0, 57, 84
1, 195404, Note_off_c, 0, 53, 63
1, 195590, Control_c, 0, 64, 95
1, 195604, Control_c, 0, 64, 93
1, 195616, Note_on_c, 0, 60, 81
1, 195619, Control_c, 0, 64, 90
1, 195634, Control_c, 0, 64, 82
1, 195644, Note_on_c, 0, 45, 54
1, 195645, Note_off_c, 0, 57, 60
1, 195649, Control_c, 0, 64, 69
1, 195656, Note_on_c, 0, 48, 46
1, 195664, Control_c, 0, 64, 60
1, 195678, Control_c, 0, 64, 53
1, 195693, Control_c, 0, 64, 46
1, 195708, Control_c, 0, 64, 33
1, 195723, Control_c, 0, 64, 0
1, 195769, Control_c, 0, 64, 29
1, 195783, Control_c, 0, 64, 47
1, 195798, Control_c, 0, 64, 61
1, 195813, Control_c, 0, 64, 66
1, 195827, Control_c, 0, 64, 69
1, 195842, Control_c, 0, 64, 72
1, 195857, Control_c, 0, 64, 76
1, 195859, Note_off_c, 0, 48, 0
1, 195872, Control_c, 0, 64, 83
1, 195882, Note_on_c, 0, 48, 16
1, 195887, Control_c, 0, 64, 91
1, 195902, Control_c, 0, 64, 95
1, 195931, Control_c, 0, 64, 98
1, 195946, Control_c, 0, 64, 102
1, 195960, Control_c, 0, 64, 107
1, 195975, Control_c, 0, 64, 115
1, 195990, Control_c, 0, 64, 127
1, 196051, Note_off_c, 0, 48, 41
1, 196095, Note_on_c, 0, 50, 51
1, 196124, Note_off_c, 0, 50, 63
1, 196144, Note_off_c, 0, 45, 36
1, 196368, Control_c, 0, 64, 104
1, 196381, Note_on_c, 0, 58, 80
1, 196383, Control_c, 0, 64, 77
1, 196398, Control_c, 0, 64, 60
1, 196401, Note_on_c, 0, 52, 57
1, 196406, Note_on_c, 0, 43, 45
1, 196413, Control_c, 0, 64, 44
1, 196414, Note_on_c, 0, 46, 38
1, 196423, Note_on_c, 0, 48, 50
1, 196427, Control_c, 0, 64, 37
1, 196442, Control_c, 0, 64, 36
1, 196457, Control_c, 0, 64, 37
1, 196472, Control_c, 0, 64, 48
1, 196481, Note_off_c, 0, 60, 57
1, 196487, Control_c, 0, 64, 61
1, 196501, Control_c, 0, 64, 72
1, 196511, Note_off_c, 0, 52, 56
1, 196516, Control_c, 0, 64, 88
1, 196532, Control_c, 0, 64, 120
1, 196537, Note_off_c, 0, 43, 55
1, 196547, Control_c, 0, 64, 127
1, 196549, Note_off_c, 0, 48, 56
1, 196561, Note_off_c, 0, 46, 58
1, 196607, Control_c, 0, 64, 104
1, 196618, Note_on_c, 0, 57, 86
1, 196622, Control_c, 0, 64, 73
1, 196636, Note_on_c, 0, 53, 72
1, 196637, Control_c, 0, 64, 55
1, 196638, Note_on_c, 0, 45, 61
1, 196643, Note_on_c, 0, 41, 56
1, 196647, Note_on_c, 0, 48, 65
1, 196652, Control_c, 0, 64, 45
1, 196666, Control_c, 0, 64, 45
1, 196681, Control_c, 0, 64, 50
1, 196696, Control_c, 0, 64, 60
1, 196711, Control_c, 0, 64, 70
1, 196725, Note_off_c, 0, 53, 62
1, 196726, Control_c, 0, 64, 89
1, 196729, Note_off_c, 0, 48, 63
1, 196729, Note_off_c, 0, 58, 48
1, 196738, Note_off_c, 0, 45, 63
1, 196739, Note_off_c, 0, 41, 65
1, 196740, Control_c, 0, 64, 127
1, 196750, Note_off_c, 0, 57, 63
1, 197014, Control_c, 0, 64, 92
1, 197029, Control_c, 0, 64, 64
1, 197033, Note_on_c, 0, 57, 88
1, 197034, Note_on_c, 0, 55, 83
1, 197044, Control_c, 0, 64, 29
1, 197045, Note_on_c, 0, 49, 65
1, 197051, Note_on_c, 0, 39, 64
1, 197058, Control_c, 0, 64, 0
1, 197061, Note_on_c, 0, 45, 55
1, 197075, Note_off_c, 0, 49, 64
1, 197105, Note_off_c, 0, 45, 65
1, 197123, Note_off_c, 0, 39, 63
1, 197132, Control_c, 0, 64, 33
1, 197147, Control_c, 0, 64, 55
1, 197162, Control_c, 0, 64, 68
1, 197177, Control_c, 0, 64, 81
1, 197188, Note_off_c, 0, 55, 54
1, 197191, Control_c, 0, 64, 95
1, 197197, Note_off_c, 0, 57, 60
1, 197206, Control_c, 0, 64, 127
1, 197236, Control_c, 0, 67, 39
1, 197251, Control_c, 0, 67, 60
1, 197281, Control_c, 0, 67, 61
1, 197295, Control_c, 0, 67, 66
1, 197310, Control_c, 0, 67, 84
1, 197326, Control_c, 0, 67, 119
1, 197341, Control_c, 0, 67, 127
1, 197576, Note_on_c, 0, 57, 71
1, 197579, Note_on_c, 0, 54, 63
1, 197593, Control_c, 0, 64, 93
1, 197594, Note_on_c, 0, 50, 56
1, 197603, Note_on_c, 0, 45, 57
1, 197606, Note_on_c, 0, 48, 53
1, 197607, Control_c, 0, 64, 74
1, 197608, Note_on_c, 0, 38, 58
1, 197622, Control_c, 0, 64, 60
1, 197637, Control_c, 0, 64, 42
1, 197652, Control_c, 0, 64, 0
1, 197674, Note_off_c, 0, 48, 0
1, 197674, Note_on_c, 0, 48, 4
1, 197725, Control_c, 0, 64, 34
1, 197740, Control_c, 0, 64, 52
1, 197763, Control_c, 0, 64, 65
1, 197778, Control_c, 0, 64, 75
1, 197793, Control_c, 0, 64, 89
1, 197807, Control_c, 0, 64, 98
1, 197811, Note_off_c, 0, 57, 63
1, 197817, Note_off_c, 0, 45, 55
1, 197822, Control_c, 0, 64, 114
1, 197837, Control_c, 0, 64, 127
1, 197843, Note_off_c, 0, 54, 62
1, 197863, Note_off_c, 0, 48, 42
1, 198233, Note_on_c, 0, 58, 65
1, 198238, Note_on_c, 0, 55, 52
1, 198253, Note_on_c, 0, 46, 41
1, 198269, Note_on_c, 0, 43, 41
1, 198270, Note_on_c, 0, 31, 38
1, 198282, Control_c, 0, 64, 111
1, 198296, Control_c, 0, 64, 81
1, 198311, Control_c, 0, 64, 64
1, 198326, Control_c, 0, 64, 45
1, 198341, Control_c, 0, 64, 0
1, 198429, Control_c, 0, 64, 37
1, 198444, Control_c, 0, 64, 56
1, 198459, Control_c, 0, 64, 69
1, 198474, Control_c, 0, 64, 81
1, 198489, Control_c, 0, 64, 91
1, 198511, Control_c, 0, 64, 95
1, 198526, Control_c, 0, 64, 100
1, 198529, Note_off_c, 0, 46, 46
1, 198541, Control_c, 0, 64, 114
1, 198555, Control_c, 0, 64, 127
1, 198567, Note_off_c, 0, 50, 60
1, 198618, Note_off_c, 0, 55, 54
1, 198619, Note_off_c, 0, 43, 49
1, 198620, Note_off_c, 0, 31, 39
1, 198631, Note_off_c, 0, 38, 60
1, 198681, Note_off_c, 0, 58, 60
1, 198807, Control_c, 0, 67, 125
1, 198881, Control_c, 0, 64, 105
1, 198896, Control_c, 0, 64, 90
1, 198896, Control_c, 0, 67, 122
1, 198911, Control_c, 0, 64, 78
1, 198926, Control_c, 0, 64, 69
1, 198941, Control_c, 0, 64, 61
1, 198956, Control_c, 0, 64, 53
1, 198971, Control_c, 0, 64, 48
1, 198986, Control_c, 0, 64, 45
1, 198986, Control_c, 0, 67, 117
1, 199001, Control_c, 0, 64, 41
1, 199001, Control_c, 0, 67, 107
1, 199015, Control_c, 0, 64, 35
1, 199030, Control_c, 0, 64, 28
1, 199030, Control_c, 0, 67, 104
1, 199045, Control_c, 0, 64, 0
1, 199045, Control_c, 0, 67, 102
1, 199164, Control_c, 0, 67, 104
1, 199193, Control_c, 0, 67, 102
1, 199223, Control_c, 0, 67, 104
1, 199275, Control_c, 0, 67, 102
1, 199305, Control_c, 0, 67, 104
1, 199556, Control_c, 0, 67, 101
1, 199585, Control_c, 0, 64, 28
1, 199600, Control_c, 0, 64, 38
1, 199602, Note_on_c, 0, 70, 53
1, 199609, Note_on_c, 0, 62, 43
1, 199609, Note_on_c, 0, 68, 52
1, 199615, Control_c, 0, 64, 56
1, 199615, Control_c, 0, 67, 99
1, 199623, Note_on_c, 0, 58, 45
1, 199627, Note_on_c, 0, 53, 40
1, 199630, Control_c, 0, 64, 67
1, 199630, Control_c, 0, 67, 93
1, 199645, Control_c, 0, 64, 81
1, 199645, Control_c, 0, 67, 67
1, 199659, Control_c, 0, 64, 115
1, 199659, Control_c, 0, 67, 36
1, 199670, Note_off_c, 0, 53, 62
1, 199674, Control_c, 0, 64, 127
1, 199674, Control_c, 0, 67, 0
1, 199679, Note_off_c, 0, 58, 61
1, 199697, Note_off_c, 0, 68, 61
1, 199698, Note_off_c, 0, 62, 61
1, 199707, Note_off_c, 0, 70, 63
1, 200056, Note_on_c, 0, 70, 87
1, 200058, Note_on_c, 0, 51, 78
1, 200059, Note_on_c, 0, 58, 75
1, 200059, Note_on_c, 0, 67, 73
1, 200060, Note_on_c, 0, 61, 71
1, 200060, Note_on_c, 0, 63, 76
1, 200068, Control_c, 0, 64, 79
1, 200083, Control_c, 0, 64, 56
1, 200098, Control_c, 0, 64, 0
1, 200157, Control_c, 0, 64, 45
1, 200172, Control_c, 0, 64, 68
1, 200187, Control_c, 0, 64, 127
1, 200191, Note_off_c, 0, 58, 61
1, 200229, Note_off_c, 0, 67, 60
1, 200237, Note_off_c, 0, 61, 63
1, 200267, Note_off_c, 0, 51, 37
1, 200282, Note_off_c, 0, 63, 53
1, 200315, Note_off_c, 0, 70, 33
1, 200448, Note_on_c, 0, 44, 78
1, 200488, Note_on_c, 0, 51, 76
1, 200557, Note_on_c, 0, 71, 93
1, 200560, Note_on_c, 0, 63, 78
1, 200560, Note_on_c, 0, 68, 82
1, 200560, Note_on_c, 0, 56, 91
1, 200563, Note_on_c, 0, 59, 75
1, 200573, Control_c, 0, 64, 93
1, 200588, Control_c, 0, 64, 64
1, 200603, Control_c, 0, 64, 34
1, 200618, Control_c, 0, 64, 0
1, 200632, Control_c, 0, 64, 31
1, 200647, Control_c, 0, 64, 56
1, 200662, Control_c, 0, 64, 81
1, 200677, Control_c, 0, 64, 127
1, 200709, Note_off_c, 0, 44, 64
1, 200711, Note_off_c, 0, 56, 63
1, 200732, Note_off_c, 0, 51, 60
1, 200789, Note_off_c, 0, 59, 60
1, 200821, Note_off_c, 0, 63, 59
1, 200856, Note_off_c, 0, 68, 59
1, 200870, Note_off_c, 0, 71, 59
1, 200980, Control_c, 0, 64, 76
1, 200995, Control_c, 0, 64, 48
1, 201010, Control_c, 0, 64, 0
1, 201489, Note_on_c, 0, 83, 90
1, 201493, Note_on_c, 0, 80, 84
1, 201502, Note_on_c, 0, 47, 86
1, 201502, Note_on_c, 0, 52, 90
1, 201503, Note_on_c, 0, 74, 88
1, 201506, Note_on_c, 0, 40, 79
1, 201507, Note_on_c, 0, 76, 83
1, 201507, Control_c, 0, 64, 40
1, 201522, Control_c, 0, 64, 70
1, 201537, Control_c, 0, 64, 108
1, 201546, Note_off_c, 0, 52, 65
1, 201552, Control_c, 0, 64, 127
1, 201555, Note_off_c, 0, 47, 65
1, 201562, Note_off_c, 0, 40, 62
1, 201630, Note_off_c, 0, 83, 58
1, 201633, Note_off_c, 0, 74, 60
1, 201680, Note_off_c, 0, 76, 59
1, 201701, Note_off_c, 0, 80, 55
1, 201943, Note_on_c, 0, 33, 74
1, 202004, Note_on_c, 0, 40, 79
1, 202050, Note_on_c, 0, 84, 91
1, 202053, Note_on_c, 0, 45, 84
1, 202054, Control_c, 0, 64, 79
1, 202055, Note_on_c, 0, 81, 83
1, 202057, Note_on_c, 0, 72, 91
1, 202057, Note_on_c, 0, 76, 87
1, 202069, Control_c, 0, 64, 40
1, 202084, Control_c, 0, 64, 0
1, 202084, Control_c, 0, 67, 60
1, 202098, Control_c, 0, 67, 78
1, 202130, Control_c, 0, 64, 34
1, 202130, Control_c, 0, 67, 81
1, 202144, Control_c, 0, 64, 60
1, 202144, Control_c, 0, 67, 87
1, 202159, Control_c, 0, 64, 81
1, 202159, Control_c, 0, 67, 91
1, 202171, Note_off_c, 0, 84, 66
1, 202174, Control_c, 0, 64, 127
1, 202174, Control_c, 0, 67, 85
1, 202186, Note_off_c, 0, 81, 65
1, 202189, Control_c, 0, 67, 79
1, 202190, Note_off_c, 0, 40, 63
1, 202195, Note_off_c, 0, 33, 59
1, 202203, Control_c, 0, 67, 72
1, 202204, Note_off_c, 0, 72, 58
1, 202208, Note_off_c, 0, 45, 61
1, 202209, Note_off_c, 0, 76, 67
1, 202218, Control_c, 0, 67, 71
1, 202233, Control_c, 0, 67, 63
1, 202256, Control_c, 0, 67, 45
1, 202270, Control_c, 0, 67, 0
1, 202536, Control_c, 0, 67, 49
1, 202551, Control_c, 0, 67, 80
1, 202566, Control_c, 0, 67, 120
1, 202581, Control_c, 0, 67, 127
1, 202952, Control_c, 0, 64, 116
1, 202967, Control_c, 0, 64, 108
1, 202982, Control_c, 0, 64, 102
1, 203004, Control_c, 0, 64, 98
1, 203019, Control_c, 0, 64, 95
1, 203034, Control_c, 0, 64, 91
1, 203049, Control_c, 0, 64, 85
1, 203064, Control_c, 0, 64, 78
1, 203078, Control_c, 0, 64, 72
1, 203093, Control_c, 0, 64, 67
1, 203108, Control_c, 0, 64, 64
1, 203123, Control_c, 0, 64, 62
1, 203138, Control_c, 0, 64, 61
1, 203152, Control_c, 0, 64, 59
1, 203167, Control_c, 0, 64, 57
1, 203182, Control_c, 0, 64, 56
1, 203197, Control_c, 0, 64, 55
1, 203212, Control_c, 0, 64, 53
1, 203226, Control_c, 0, 64, 52
1, 203241, Control_c, 0, 64, 51
1, 203256, Control_c, 0, 64, 49
1, 203271, Control_c, 0, 64, 47
1, 203286, Control_c, 0, 64, 45
1, 203300, Control_c, 0, 64, 41
1, 203315, Control_c, 0, 64, 38
1, 203331, Control_c, 0, 64, 37
1, 203375, Control_c, 0, 64, 36
1, 203390, Control_c, 0, 64, 34
1, 203405, Control_c, 0, 64, 34
1, 203449, Control_c, 0, 64, 33
1, 203657, Control_c, 0, 64, 34
1, 203813, Control_c, 0, 64, 34
1, 203828, Control_c, 0, 64, 35
1, 204065, Control_c, 0, 64, 35
1, 204154, Control_c, 0, 64, 36
1, 204228, Control_c, 0, 64, 36
1, 204316, Control_c, 0, 64, 37
1, 204390, Control_c, 0, 64, 37
1, 204435, Control_c, 0, 64, 38
1, 204450, Control_c, 0, 64, 38
1, 204465, Control_c, 0, 64, 39
1, 204516, Control_c, 0, 64, 39
1, 204532, Control_c, 0, 64, 40
1, 204547, Control_c, 0, 64, 40
1, 204606, Control_c, 0, 64, 41
1, 204680, Control_c, 0, 64, 41
1, 204724, Control_c, 0, 64, 42
1, 204769, Control_c, 0, 64, 42
1, 204813, Control_c, 0, 64, 43
1, 204816, Note_on_c, 0, 84, 59
1, 204827, Control_c, 0, 64, 45
1, 204842, Control_c, 0, 64, 48
1, 204857, Control_c, 0, 64, 50
1, 204860, Note_on_c, 0, 65, 27
1, 204862, Note_on_c, 0, 81, 25
1, 204863, Note_on_c, 0, 75, 25
1, 204871, Control_c, 0, 64, 51
1, 204884, Note_on_c, 0, 77, 16
1, 204886, Control_c, 0, 64, 53
1, 204901, Control_c, 0, 64, 55
1, 204915, Control_c, 0, 64, 60
1, 204930, Control_c, 0, 64, 64
1, 204945, Control_c, 0, 64, 67
1, 204960, Control_c, 0, 64, 68
1, 204975, Control_c, 0, 64, 70
1, 204989, Control_c, 0, 64, 74
1, 205004, Control_c, 0, 64, 81
1, 205019, Control_c, 0, 64, 91
1, 205034, Control_c, 0, 64, 109
1, 205044, Note_off_c, 0, 65, 34
1, 205049, Control_c, 0, 64, 127
1, 205073, Note_off_c, 0, 75, 40
1, 205204, Note_off_c, 0, 81, 55
1, 205219, Note_off_c, 0, 77, 45
1, 205221, Note_off_c, 0, 84, 64
1, 205551, Note_on_c, 0, 85, 77
1, 205677, Note_off_c, 0, 85, 61
1, 205787, Note_on_c, 0, 86, 77
1, 205794, Note_on_c, 0, 70, 49
1, 205804, Note_on_c, 0, 74, 50
1, 205808, Note_on_c, 0, 82, 53
1, 205812, Control_c, 0, 64, 98
1, 205827, Control_c, 0, 64, 71
1, 205842, Control_c, 0, 64, 50
1, 205857, Control_c, 0, 64, 39
1, 205872, Control_c, 0, 64, 37
1, 205886, Control_c, 0, 64, 38
1, 205901, Control_c, 0, 64, 46
1, 205913, Note_off_c, 0, 74, 64
1, 205916, Control_c, 0, 64, 59
1, 205931, Control_c, 0, 64, 72
1, 205933, Note_off_c, 0, 70, 60
1, 205940, Note_off_c, 0, 82, 61
1, 205946, Control_c, 0, 64, 110
1, 205951, Note_off_c, 0, 86, 67
1, 205961, Control_c, 0, 64, 127
1, 206117, Control_c, 0, 64, 95
1, 206132, Control_c, 0, 64, 75
1, 206147, Control_c, 0, 64, 62
1, 206162, Control_c, 0, 64, 53
1, 206176, Control_c, 0, 64, 48
1, 206191, Control_c, 0, 64, 42
1, 206206, Control_c, 0, 64, 33
1, 206221, Control_c, 0, 64, 0
1, 206280, Control_c, 0, 64, 27
1, 206295, Control_c, 0, 64, 31
1, 206308, Note_on_c, 0, 86, 75
1, 206310, Control_c, 0, 64, 34
1, 206325, Control_c, 0, 64, 40
1, 206329, Note_on_c, 0, 70, 47
1, 206339, Note_on_c, 0, 74, 48
1, 206340, Control_c, 0, 64, 54
1, 206345, Note_on_c, 0, 82, 45
1, 206355, Control_c, 0, 64, 69
1, 206369, Control_c, 0, 64, 87
1, 206370, Note_off_c, 0, 74, 65
1, 206372, Note_on_c, 0, 77, 24
1, 206384, Control_c, 0, 64, 127
1, 206387, Note_off_c, 0, 70, 49
1, 206404, Note_off_c, 0, 82, 57
1, 206411, Note_off_c, 0, 77, 54
1, 206432, Note_off_c, 0, 86, 66
1, 206748, Control_c, 0, 64, 93
1, 206762, Control_c, 0, 64, 74
1, 206777, Control_c, 0, 64, 63
1, 206792, Control_c, 0, 64, 57
1, 206807, Control_c, 0, 64, 55
1, 206822, Control_c, 0, 64, 53
1, 206836, Control_c, 0, 64, 50
1, 206851, Control_c, 0, 64, 47
1, 206866, Control_c, 0, 64, 46
1, 206956, Control_c, 0, 64, 47
1, 206971, Control_c, 0, 64, 50
1, 206986, Control_c, 0, 64, 51
1, 207030, Control_c, 0, 64, 52
1, 207045, Control_c, 0, 64, 54
1, 207060, Control_c, 0, 64, 57
1, 207074, Control_c, 0, 64, 61
1, 207089, Control_c, 0, 64, 63
1, 207104, Control_c, 0, 64, 64
1, 207118, Control_c, 0, 64, 67
1, 207126, Note_on_c, 0, 89, 60
1, 207132, Note_on_c, 0, 86, 46
1, 207133, Control_c, 0, 64, 71
1, 207147, Note_on_c, 0, 70, 46
1, 207148, Control_c, 0, 64, 78
1, 207153, Note_on_c, 0, 77, 30
1, 207158, Note_on_c, 0, 74, 41
1, 207163, Control_c, 0, 64, 89
1, 207178, Control_c, 0, 64, 98
1, 207192, Control_c, 0, 64, 106
1, 207207, Control_c, 0, 64, 118
1, 207222, Control_c, 0, 64, 127
1, 207240, Note_off_c, 0, 70, 54
1, 207259, Note_off_c, 0, 74, 36
1, 207295, Note_off_c, 0, 77, 50
1, 207457, Note_off_c, 0, 86, 31
1, 207594, Note_off_c, 0, 89, 58
1, 208349, Control_c, 0, 64, 117
1, 208364, Control_c, 0, 64, 113
1, 208378, Control_c, 0, 64, 110
1, 208393, Control_c, 0, 64, 106
1, 208408, Control_c, 0, 64, 103
1, 208423, Control_c, 0, 64, 100
1, 208438, Control_c, 0, 64, 98
1, 208453, Control_c, 0, 64, 96
1, 208467, Control_c, 0, 64, 94
1, 208482, Control_c, 0, 64, 93
1, 208497, Control_c, 0, 64, 91
1, 208513, Control_c, 0, 64, 88
1, 208528, Control_c, 0, 64, 86
1, 208542, Control_c, 0, 64, 84
1, 208557, Control_c, 0, 64, 83
1, 208571, Control_c, 0, 64, 82
1, 208586, Control_c, 0, 64, 81
1, 208601, Control_c, 0, 64, 79
1, 208616, Control_c, 0, 64, 77
1, 208630, Control_c, 0, 64, 75
1, 208645, Control_c, 0, 64, 74
1, 208660, Control_c, 0, 64, 73
1, 208675, Control_c, 0, 64, 73
1, 208689, Control_c, 0, 64, 72
1, 208704, Control_c, 0, 64, 71
1, 208719, Control_c, 0, 64, 70
1, 208763, Control_c, 0, 64, 69
1, 208778, Control_c, 0, 64, 67
1, 208793, Control_c, 0, 64, 66
1, 208808, Control_c, 0, 64, 65
1, 208823, Control_c, 0, 64, 65
1, 208838, Control_c, 0, 64, 64
1, 208852, Control_c, 0, 64, 64
1, 208867, Control_c, 0, 64, 63
1, 208927, Control_c, 0, 64, 62
1, 208942, Control_c, 0, 64, 61
1, 208956, Control_c, 0, 64, 60
1, 208971, Control_c, 0, 64, 60
1, 209023, Control_c, 0, 64, 59
1, 209037, Control_c, 0, 64, 57
1, 209052, Control_c, 0, 64, 56
1, 209097, Control_c, 0, 64, 55
1, 209112, Control_c, 0, 64, 54
1, 209127, Control_c, 0, 64, 52
1, 209142, Control_c, 0, 64, 51
1, 209156, Control_c, 0, 64, 50
1, 209171, Control_c, 0, 64, 49
1, 209186, Control_c, 0, 64, 48
1, 209201, Control_c, 0, 64, 45
1, 209216, Control_c, 0, 64, 43
1, 209231, Control_c, 0, 64, 42
1, 209289, Control_c, 0, 64, 41
1, 209304, Control_c, 0, 64, 41
1, 209365, Control_c, 0, 64, 40
1, 209409, Control_c, 0, 64, 41
1, 209500, Note_on_c, 0, 77, 71
1, 209660, Control_c, 0, 64, 41
1, 209831, Control_c, 0, 64, 42
1, 209964, Control_c, 0, 64, 42
1, 209979, Control_c, 0, 64, 43
1, 210038, Control_c, 0, 64, 43
1, 210069, Control_c, 0, 64, 44
1, 210143, Control_c, 0, 64, 44
1, 210158, Control_c, 0, 64, 45
1, 210381, Control_c, 0, 64, 45
1, 210440, Control_c, 0, 64, 46
1, 210454, Control_c, 0, 64, 46
1, 210536, Control_c, 0, 64, 47
1, 210551, Control_c, 0, 64, 47
1, 210610, Control_c, 0, 64, 48
1, 210625, Control_c, 0, 64, 48
1, 210699, Control_c, 0, 64, 49
1, 210773, Control_c, 0, 64, 49
1, 210821, Note_on_c, 0, 74, 61
1, 210847, Control_c, 0, 64, 50
1, 210922, Control_c, 0, 64, 52
1, 210937, Control_c, 0, 64, 55
1, 210952, Control_c, 0, 64, 56
1, 210966, Control_c, 0, 64, 57
1, 210981, Control_c, 0, 64, 58
1, 210996, Control_c, 0, 64, 61
1, 211011, Control_c, 0, 64, 66
1, 211026, Control_c, 0, 64, 73
1, 211040, Control_c, 0, 64, 82
1, 211055, Note_on_c, 0, 70, 76
1, 211055, Control_c, 0, 64, 91
1, 211070, Control_c, 0, 64, 103
1, 211085, Control_c, 0, 64, 127
1, 211253, Note_off_c, 0, 77, 58
1, 211278, Note_on_c, 0, 69, 73
1, 211283, Note_off_c, 0, 74, 62
1, 211316, Note_off_c, 0, 70, 63
1, 211322, Note_off_c, 0, 69, 64
1, 211583, Note_on_c, 0, 69, 57
1, 211597, Note_on_c, 0, 64, 50
1, 211613, Note_on_c, 0, 60, 33
1, 211613, Note_on_c, 0, 48, 36
1, 211619, Note_on_c, 0, 58, 38
1, 211640, Control_c, 0, 64, 116
1, 211655, Control_c, 0, 64, 93
1, 211670, Control_c, 0, 64, 82
1, 211684, Control_c, 0, 64, 74
1, 211699, Control_c, 0, 64, 66
1, 211715, Control_c, 0, 64, 59
1, 211730, Control_c, 0, 64, 53
1, 211745, Control_c, 0, 64, 50
1, 211760, Control_c, 0, 64, 45
1, 211775, Control_c, 0, 64, 40
1, 211789, Control_c, 0, 64, 33
1, 211804, Control_c, 0, 64, 28
1, 211819, Control_c, 0, 64, 0
1, 212120, Note_on_c, 0, 67, 49
1, 212122, Control_c, 0, 64, 30
1, 212137, Control_c, 0, 64, 39
1, 212140, Note_off_c, 0, 69, 36
1, 212152, Control_c, 0, 64, 52
1, 212167, Control_c, 0, 64, 63
1, 212182, Control_c, 0, 64, 68
1, 212197, Control_c, 0, 64, 74
1, 212197, Note_off_c, 0, 58, 55
1, 212203, Note_off_c, 0, 64, 52
1, 212212, Control_c, 0, 64, 82
1, 212221, Note_off_c, 0, 48, 43
1, 212227, Control_c, 0, 64, 95
1, 212235, Note_off_c, 0, 67, 59
1, 212241, Control_c, 0, 64, 127
1, 212442, Note_on_c, 0, 68, 48
1, 212522, Note_off_c, 0, 68, 53
1, 212567, Control_c, 0, 64, 94
1, 212571, Note_on_c, 0, 69, 58
1, 212571, Note_off_c, 0, 60, 0
1, 212582, Control_c, 0, 64, 71
1, 212585, Note_on_c, 0, 53, 45
1, 212588, Note_on_c, 0, 65, 39
1, 212596, Note_on_c, 0, 57, 44
1, 212597, Control_c, 0, 64, 59
1, 212608, Poly_aftertouch_c, 0, 60, 127
1, 212611, Control_c, 0, 64, 47
1, 212626, Control_c, 0, 64, 38
1, 212641, Control_c, 0, 64, 32
1, 212656, Control_c, 0, 64, 30
1, 212681, Note_off_c, 0, 57, 63
1, 212689, Note_off_c, 0, 53, 57
1, 212701, Control_c, 0, 64, 32
1, 212704, Note_off_c, 0, 65, 58
1, 212704, Note_off_c, 0, 69, 63
1, 212717, Poly_aftertouch_c, 0, 60, 0
1, 212737, Control_c, 0, 64, 33
1, 212752, Control_c, 0, 64, 35
1, 212767, Control_c, 0, 64, 38
1, 212782, Control_c, 0, 64, 39
1, 212826, Control_c, 0, 64, 40
1, 212841, Control_c, 0, 64, 41
1, 212856, Control_c, 0, 64, 42
1, 212886, Control_c, 0, 64, 41
1, 212901, Control_c, 0, 64, 42
1, 212915, Control_c, 0, 64, 43
1, 212930, Control_c, 0, 64, 48
1, 212945, Control_c, 0, 64, 52
1, 212975, Control_c, 0, 64, 53
1, 212990, Control_c, 0, 64, 56
1, 213004, Control_c, 0, 64, 63
1, 213019, Control_c, 0, 64, 71
1, 213034, Control_c, 0, 64, 83
1, 213049, Control_c, 0, 64, 103
1, 213058, Note_on_c, 0, 65, 42
1, 213061, Note_on_c, 0, 69, 49
1, 213062, Note_on_c, 0, 53, 40
1, 213064, Control_c, 0, 64, 127
1, 213074, Note_on_c, 0, 57, 33
1, 213078, Note_on_c, 0, 60, 35
1, 213118, Note_off_c, 0, 53, 54
1, 213124, Note_off_c, 0, 57, 57
1, 213125, Note_off_c, 0, 60, 60
1, 213157, Note_off_c, 0, 65, 58
1, 213173, Note_off_c, 0, 69, 62
1, 213271, Control_c, 0, 64, 95
1, 213286, Control_c, 0, 64, 73
1, 213302, Control_c, 0, 64, 62
1, 213317, Control_c, 0, 64, 52
1, 213332, Control_c, 0, 64, 44
1, 213346, Control_c, 0, 64, 35
1, 213361, Control_c, 0, 64, 0
1, 213561, Control_c, 0, 64, 28
1, 213635, Control_c, 0, 64, 31
1, 213709, Control_c, 0, 64, 34
1, 213724, Control_c, 0, 64, 35
1, 213768, Control_c, 0, 64, 36
1, 213783, Control_c, 0, 64, 38
1, 213798, Control_c, 0, 64, 41
1, 213828, Control_c, 0, 64, 41
1, 213836, Note_on_c, 0, 72, 61
1, 213842, Control_c, 0, 64, 44
1, 213857, Control_c, 0, 64, 51
1, 213868, Note_on_c, 0, 53, 47
1, 213872, Control_c, 0, 64, 60
1, 213880, Note_on_c, 0, 69, 22
1, 213882, Note_on_c, 0, 60, 38
1, 213887, Control_c, 0, 64, 66
1, 213902, Control_c, 0, 64, 73
1, 213908, Note_on_c, 0, 65, 17
1, 213917, Control_c, 0, 64, 78
1, 213932, Control_c, 0, 64, 82
1, 213941, Note_off_c, 0, 53, 54
1, 213947, Control_c, 0, 64, 89
1, 213956, Note_off_c, 0, 60, 53
1, 213961, Control_c, 0, 64, 99
1, 213976, Control_c, 0, 64, 127
1, 214114, Note_off_c, 0, 65, 42
1, 214386, Note_off_c, 0, 69, 40
1, 214424, Note_off_c, 0, 72, 62
1, 214799, Control_c, 0, 67, 117
1, 214814, Control_c, 0, 67, 106
1, 214828, Control_c, 0, 67, 97
1, 214843, Control_c, 0, 67, 88
1, 214858, Control_c, 0, 67, 79
1, 214873, Control_c, 0, 67, 71
1, 214888, Control_c, 0, 67, 69
1, 214919, Control_c, 0, 67, 70
1, 214985, Control_c, 0, 67, 72
1, 214999, Control_c, 0, 67, 75
1, 215059, Control_c, 0, 67, 77
1, 215074, Control_c, 0, 67, 82
1, 215103, Control_c, 0, 67, 81
1, 215148, Control_c, 0, 67, 83
1, 215163, Control_c, 0, 67, 84
1, 215207, Control_c, 0, 67, 84
1, 215222, Control_c, 0, 67, 90
1, 215237, Control_c, 0, 67, 90
1, 215251, Control_c, 0, 67, 88
1, 215266, Control_c, 0, 67, 88
1, 215296, Control_c, 0, 67, 91
1, 215311, Control_c, 0, 67, 91
1, 215325, Control_c, 0, 67, 90
1, 215340, Control_c, 0, 67, 90
1, 215370, Control_c, 0, 67, 91
1, 215385, Control_c, 0, 67, 93
1, 215429, Control_c, 0, 67, 93
1, 215444, Control_c, 0, 67, 95
1, 215458, Control_c, 0, 64, 116
1, 215458, Control_c, 0, 67, 97
1, 215473, Control_c, 0, 64, 101
1, 215488, Control_c, 0, 64, 94
1, 215503, Control_c, 0, 64, 91
1, 215518, Control_c, 0, 64, 90
1, 215518, Control_c, 0, 67, 99
1, 215533, Control_c, 0, 64, 88
1, 215548, Control_c, 0, 64, 83
1, 215562, Control_c, 0, 64, 79
1, 215577, Control_c, 0, 64, 75
1, 215592, Control_c, 0, 64, 71
1, 215607, Control_c, 0, 64, 69
1, 215622, Control_c, 0, 64, 67
1, 215637, Control_c, 0, 64, 63
1, 215651, Control_c, 0, 64, 60
1, 215666, Control_c, 0, 64, 58
1, 215681, Control_c, 0, 64, 56
1, 215697, Control_c, 0, 64, 54
1, 215711, Control_c, 0, 64, 51
1, 215734, Control_c, 0, 64, 47
1, 215749, Control_c, 0, 64, 39
1, 215763, Control_c, 0, 64, 32
1, 215778, Control_c, 0, 64, 0
1, 215778, Control_c, 0, 67, 97
1, 215852, Control_c, 0, 64, 28
1, 215867, Control_c, 0, 67, 94
1, 215881, Control_c, 0, 64, 30
1, 215896, Control_c, 0, 64, 32
1, 215911, Control_c, 0, 64, 36
1, 215911, Control_c, 0, 67, 95
1, 215926, Control_c, 0, 64, 38
1, 215926, Control_c, 0, 67, 94
1, 215941, Control_c, 0, 67, 91
1, 215956, Control_c, 0, 64, 38
1, 215956, Control_c, 0, 67, 90
1, 215965, Note_on_c, 0, 84, 80
1, 215971, Control_c, 0, 64, 42
1, 215983, Note_on_c, 0, 65, 47
1, 215983, Note_on_c, 0, 81, 59
1, 215986, Control_c, 0, 64, 53
1, 215988, Note_on_c, 0, 75, 50
1, 216001, Control_c, 0, 64, 67
1, 216001, Control_c, 0, 67, 88
1, 216013, Note_on_c, 0, 77, 43
1, 216016, Control_c, 0, 64, 86
1, 216016, Control_c, 0, 67, 86
1, 216025, Note_off_c, 0, 65, 63
1, 216030, Note_off_c, 0, 75, 61
1, 216030, Control_c, 0, 64, 127
1, 216030, Control_c, 0, 67, 84
1, 216045, Control_c, 0, 67, 84
1, 216060, Control_c, 0, 67, 82
1, 216075, Control_c, 0, 67, 78
1, 216090, Control_c, 0, 67, 74
1, 216105, Control_c, 0, 67, 69
1, 216108, Note_off_c, 0, 77, 0
1, 216108, Note_on_c, 0, 77, 8
1, 216120, Control_c, 0, 67, 62
1, 216135, Control_c, 0, 67, 48
1, 216149, Control_c, 0, 67, 0
1, 216300, Note_off_c, 0, 81, 61
1, 216370, Note_off_c, 0, 84, 62
1, 216617, Control_c, 0, 67, 38
1, 216631, Control_c, 0, 67, 62
1, 216646, Control_c, 0, 67, 83
1, 216661, Control_c, 0, 67, 86
1, 216676, Control_c, 0, 67, 87
1, 216691, Control_c, 0, 67, 91
1, 216705, Control_c, 0, 67, 108
1, 216720, Control_c, 0, 67, 127
1, 216812, Note_on_c, 0, 85, 79
1, 216965, Note_off_c, 0, 85, 60
1, 216977, Note_off_c, 0, 77, 45
1, 217068, Note_on_c, 0, 86, 83
1, 217074, Note_on_c, 0, 74, 59
1, 217075, Control_c, 0, 64, 88
1, 217079, Note_on_c, 0, 70, 56
1, 217089, Control_c, 0, 64, 65
1, 217100, Note_on_c, 0, 82, 46
1, 217104, Control_c, 0, 64, 44
1, 217119, Control_c, 0, 64, 0
1, 217126, Poly_aftertouch_c, 0, 77, 127
1, 217152, Note_off_c, 0, 82, 0
1, 217152, Note_on_c, 0, 82, 17
1, 217188, Note_off_c, 0, 74, 64
1, 217193, Control_c, 0, 64, 31
1, 217201, Note_off_c, 0, 70, 65
1, 217208, Control_c, 0, 64, 58
1, 217230, Control_c, 0, 64, 76
1, 217232, Note_off_c, 0, 82, 63
1, 217243, Poly_aftertouch_c, 0, 77, 0
1, 217244, Note_off_c, 0, 86, 67
1, 217245, Control_c, 0, 64, 127
1, 217498, Control_c, 0, 64, 106
1, 217513, Control_c, 0, 64, 79
1, 217527, Control_c, 0, 64, 62
1, 217542, Control_c, 0, 64, 41
1, 217557, Control_c, 0, 64, 0
1, 217621, Note_on_c, 0, 86, 78
1, 217634, Note_on_c, 0, 70, 55
1, 217638, Note_on_c, 0, 74, 67
1, 217646, Note_on_c, 0, 82, 59
1, 217660, Control_c, 0, 64, 30
1, 217671, Note_off_c, 0, 74, 66
1, 217675, Control_c, 0, 64, 57
1, 217688, Note_off_c, 0, 70, 64
1, 217690, Control_c, 0, 64, 75
1, 217705, Control_c, 0, 64, 127
1, 217726, Note_off_c, 0, 82, 52
1, 217828, Note_off_c, 0, 86, 64
1, 218246, Control_c, 0, 64, 95
1, 218261, Control_c, 0, 64, 80
1, 218275, Control_c, 0, 64, 68
1, 218290, Control_c, 0, 64, 57
1, 218305, Control_c, 0, 64, 50
1, 218320, Control_c, 0, 64, 44
1, 218335, Control_c, 0, 64, 36
1, 218350, Control_c, 0, 64, 0
1, 218431, Note_on_c, 0, 70, 73
1, 218468, Control_c, 0, 64, 34
1, 218483, Control_c, 0, 64, 57
1, 218498, Control_c, 0, 64, 76
1, 218513, Control_c, 0, 64, 108
1, 218528, Control_c, 0, 64, 127
1, 218597, Note_on_c, 0, 74, 79
1, 218619, Note_off_c, 0, 74, 69
1, 218622, Note_off_c, 0, 70, 64
1, 218661, Note_on_c, 0, 77, 55
1, 218707, Note_on_c, 0, 82, 73
1, 218709, Note_off_c, 0, 77, 58
1, 218769, Note_off_c, 0, 82, 62
1, 218788, Note_on_c, 0, 86, 61
1, 218806, Note_off_c, 0, 86, 66
1, 218862, Note_on_c, 0, 89, 64
1, 218869, Note_on_c, 0, 88, 53
1, 218891, Note_off_c, 0, 88, 62
1, 218915, Note_off_c, 0, 89, 50
1, 218930, Note_on_c, 0, 94, 79
1, 218990, Note_off_c, 0, 94, 63
1, 218991, Note_on_c, 0, 98, 71
1, 219038, Note_off_c, 0, 98, 64
1, 219068, Note_on_c, 0, 101, 86
1, 219088, Note_off_c, 0, 101, 73
1, 220359, Control_c, 0, 64, 121
1, 220373, Control_c, 0, 64, 114
1, 220388, Control_c, 0, 64, 108
1, 220403, Control_c, 0, 64, 105
1, 220418, Control_c, 0, 64, 103
1, 220433, Control_c, 0, 64, 101
1, 220447, Control_c, 0, 64, 97
1, 220462, Control_c, 0, 64, 93
1, 220477, Control_c, 0, 64, 89
1, 220493, Control_c, 0, 64, 86
1, 220508, Control_c, 0, 64, 85
1, 220523, Control_c, 0, 64, 84
1, 220538, Control_c, 0, 64, 81
1, 220552, Control_c, 0, 64, 79
1, 220567, Control_c, 0, 64, 75
1, 220582, Control_c, 0, 64, 72
1, 220597, Control_c, 0, 64, 70
1, 220611, Control_c, 0, 64, 69
1, 220626, Control_c, 0, 64, 67
1, 220641, Control_c, 0, 64, 65
1, 220656, Control_c, 0, 64, 63
1, 220670, Control_c, 0, 64, 62
1, 220685, Control_c, 0, 64, 61
1, 220700, Control_c, 0, 64, 61
1, 220715, Control_c, 0, 64, 59
1, 220730, Control_c, 0, 64, 56
1, 220744, Control_c, 0, 64, 54
1, 220759, Control_c, 0, 64, 53
1, 220774, Control_c, 0, 64, 53
1, 220788, Control_c, 0, 64, 52
1, 220803, Control_c, 0, 64, 48
1, 220818, Control_c, 0, 64, 43
1, 220833, Control_c, 0, 64, 38
1, 220848, Control_c, 0, 64, 37
1, 220862, Control_c, 0, 64, 37
1, 220877, Control_c, 0, 64, 36
1, 220892, Control_c, 0, 64, 34
1, 220907, Control_c, 0, 64, 33
1, 220937, Control_c, 0, 64, 34
1, 220989, Control_c, 0, 64, 33
1, 221018, Control_c, 0, 64, 33
1, 221033, Control_c, 0, 64, 34
1, 221107, Control_c, 0, 64, 34
1, 221122, Control_c, 0, 64, 35
1, 221181, Control_c, 0, 64, 35
1, 221196, Control_c, 0, 64, 36
1, 221270, Control_c, 0, 64, 36
1, 221273, Note_on_c, 0, 77, 79
1, 221301, Control_c, 0, 64, 36
1, 221330, Control_c, 0, 64, 35
1, 221345, Control_c, 0, 64, 36
1, 221360, Control_c, 0, 64, 36
1, 221508, Control_c, 0, 64, 37
1, 221523, Control_c, 0, 64, 38
1, 221538, Control_c, 0, 64, 38
1, 221582, Control_c, 0, 64, 39
1, 221597, Control_c, 0, 64, 41
1, 221611, Control_c, 0, 64, 42
1, 221671, Control_c, 0, 64, 42
1, 221685, Control_c, 0, 64, 43
1, 221767, Control_c, 0, 64, 43
1, 221782, Control_c, 0, 64, 44
1, 221856, Control_c, 0, 64, 44
1, 221930, Control_c, 0, 64, 45
1, 222004, Control_c, 0, 64, 45
1, 222079, Control_c, 0, 64, 46
1, 222168, Control_c, 0, 64, 46
1, 222242, Control_c, 0, 64, 47
1, 222272, Control_c, 0, 64, 47
1, 222316, Control_c, 0, 64, 48
1, 222331, Control_c, 0, 64, 48
1, 222360, Control_c, 0, 64, 49
1, 222375, Control_c, 0, 64, 49
1, 222390, Control_c, 0, 64, 50
1, 222405, Control_c, 0, 64, 52
1, 222420, Control_c, 0, 64, 52
1, 222472, Control_c, 0, 64, 53
1, 222487, Control_c, 0, 64, 57
1, 222502, Control_c, 0, 64, 60
1, 222516, Control_c, 0, 64, 61
1, 222546, Control_c, 0, 64, 62
1, 222560, Control_c, 0, 64, 64
1, 222575, Control_c, 0, 64, 69
1, 222590, Control_c, 0, 64, 74
1, 222605, Control_c, 0, 64, 81
1, 222620, Control_c, 0, 64, 87
1, 222634, Control_c, 0, 64, 95
1, 222649, Control_c, 0, 64, 108
1, 222664, Control_c, 0, 64, 127
1, 222932, Note_on_c, 0, 76, 78
1, 223018, Note_off_c, 0, 77, 63
1, 223037, Note_off_c, 0, 76, 65
1, 223377, Note_on_c, 0, 76, 60
1, 223487, Control_c, 0, 64, 113
1, 223502, Control_c, 0, 64, 95
1, 223517, Control_c, 0, 64, 85
1, 223531, Control_c, 0, 64, 75
1, 223546, Control_c, 0, 64, 66
1, 223561, Control_c, 0, 64, 60
1, 223576, Control_c, 0, 64, 56
1, 223590, Control_c, 0, 64, 54
1, 223605, Control_c, 0, 64, 51
1, 223620, Control_c, 0, 64, 47
1, 223635, Control_c, 0, 64, 42
1, 223650, Control_c, 0, 64, 38
1, 223665, Control_c, 0, 64, 36
1, 223740, Control_c, 0, 64, 37
1, 223755, Control_c, 0, 64, 38
1, 223769, Control_c, 0, 64, 39
1, 223828, Control_c, 0, 64, 40
1, 223843, Control_c, 0, 64, 41
1, 223903, Control_c, 0, 64, 41
1, 223918, Control_c, 0, 64, 42
1, 223999, Control_c, 0, 64, 43
1, 224058, Control_c, 0, 64, 44
1, 224070, Note_on_c, 0, 74, 60
1, 224073, Control_c, 0, 64, 44
1, 224133, Control_c, 0, 64, 46
1, 224136, Note_off_c, 0, 76, 53
1, 224147, Control_c, 0, 64, 50
1, 224162, Control_c, 0, 64, 56
1, 224177, Control_c, 0, 64, 60
1, 224192, Control_c, 0, 64, 63
1, 224207, Control_c, 0, 64, 68
1, 224221, Control_c, 0, 64, 74
1, 224236, Control_c, 0, 64, 86
1, 224251, Control_c, 0, 64, 103
1, 224266, Control_c, 0, 64, 127
1, 224422, Note_off_c, 0, 74, 59
1, 224428, Note_on_c, 0, 72, 62
1, 224457, Note_off_c, 0, 72, 66
1, 224578, Note_on_c, 0, 72, 61
1, 224696, Control_c, 0, 64, 111
1, 224718, Control_c, 0, 64, 91
1, 224733, Control_c, 0, 64, 79
1, 224748, Control_c, 0, 64, 70
1, 224762, Control_c, 0, 64, 62
1, 224777, Control_c, 0, 64, 57
1, 224792, Control_c, 0, 64, 55
1, 224807, Control_c, 0, 64, 54
1, 224822, Control_c, 0, 64, 50
1, 224836, Control_c, 0, 64, 47
1, 224851, Control_c, 0, 64, 43
1, 224866, Control_c, 0, 64, 40
1, 224881, Control_c, 0, 64, 38
1, 224940, Control_c, 0, 64, 39
1, 224955, Control_c, 0, 64, 41
1, 224970, Control_c, 0, 64, 44
1, 224985, Control_c, 0, 64, 48
1, 225000, Control_c, 0, 64, 51
1, 225015, Control_c, 0, 64, 52
1, 225030, Control_c, 0, 64, 54
1, 225044, Control_c, 0, 64, 58
1, 225059, Control_c, 0, 64, 62
1, 225071, Note_on_c, 0, 70, 55
1, 225074, Control_c, 0, 64, 67
1, 225089, Control_c, 0, 64, 73
1, 225104, Control_c, 0, 64, 80
1, 225114, Note_off_c, 0, 72, 57
1, 225118, Control_c, 0, 64, 87
1, 225133, Control_c, 0, 64, 95
1, 225148, Control_c, 0, 64, 106
1, 225162, Control_c, 0, 64, 127
1, 225408, Note_on_c, 0, 69, 66
1, 225430, Note_off_c, 0, 70, 63
1, 225435, Note_off_c, 0, 69, 68
1, 225614, Note_on_c, 0, 69, 56
1, 225624, Note_on_c, 0, 58, 41
1, 225624, Note_on_c, 0, 64, 39
1, 225641, Note_on_c, 0, 48, 46
1, 225658, Note_on_c, 0, 60, 20
1, 225659, Control_c, 0, 64, 117
1, 225674, Control_c, 0, 64, 98
1, 225677, Note_off_c, 0, 64, 0
1, 225677, Note_on_c, 0, 64, 24
1, 225689, Control_c, 0, 64, 86
1, 225704, Control_c, 0, 64, 76
1, 225719, Control_c, 0, 64, 66
1, 225733, Control_c, 0, 64, 57
1, 225748, Control_c, 0, 64, 54
1, 225763, Control_c, 0, 64, 52
1, 225778, Control_c, 0, 64, 50
1, 225793, Control_c, 0, 64, 48
1, 225808, Control_c, 0, 64, 45
1, 225823, Control_c, 0, 64, 44
1, 225942, Control_c, 0, 64, 45
1, 226016, Control_c, 0, 64, 46
1, 226136, Control_c, 0, 64, 45
1, 226164, Note_on_c, 0, 67, 53
1, 226218, Note_off_c, 0, 69, 36
1, 226246, Control_c, 0, 64, 46
1, 226261, Control_c, 0, 64, 52
1, 226276, Control_c, 0, 64, 59
1, 226291, Control_c, 0, 64, 66
1, 226301, Note_off_c, 0, 64, 55
1, 226306, Control_c, 0, 64, 75
1, 226314, Note_off_c, 0, 67, 59
1, 226321, Control_c, 0, 64, 91
1, 226335, Control_c, 0, 64, 117
1, 226339, Note_off_c, 0, 58, 48
1, 226350, Control_c, 0, 64, 127
1, 226399, Note_off_c, 0, 48, 33
1, 226531, Note_on_c, 0, 68, 54
1, 226582, Note_off_c, 0, 68, 55
1, 226595, Note_off_c, 0, 60, 40
1, 226646, Control_c, 0, 64, 98
1, 226653, Note_on_c, 0, 69, 57
1, 226661, Control_c, 0, 64, 76
1, 226667, Note_on_c, 0, 53, 42
1, 226673, Note_on_c, 0, 57, 41
1, 226676, Note_on_c, 0, 65, 39
1, 226676, Control_c, 0, 64, 64
1, 226686, Note_on_c, 0, 60, 35
1, 226690, Control_c, 0, 64, 56
1, 226705, Control_c, 0, 64, 52
1, 226720, Control_c, 0, 64, 50
1, 226735, Control_c, 0, 64, 46
1, 226750, Control_c, 0, 64, 41
1, 226765, Control_c, 0, 64, 38
1, 226771, Note_off_c, 0, 53, 61
1, 226774, Note_off_c, 0, 65, 0
1, 226774, Note_on_c, 0, 65, 13
1, 226776, Note_off_c, 0, 57, 60
1, 226780, Control_c, 0, 64, 37
1, 226800, Note_off_c, 0, 69, 63
1, 226809, Note_off_c, 0, 60, 59
1, 226809, Note_off_c, 0, 65, 56
1, 226899, Control_c, 0, 64, 38
1, 226966, Control_c, 0, 64, 38
1, 226981, Control_c, 0, 64, 39
1, 227218, Control_c, 0, 64, 38
1, 227232, Control_c, 0, 64, 38
1, 227247, Control_c, 0, 64, 36
1, 227253, Note_on_c, 0, 69, 49
1, 227262, Control_c, 0, 64, 34
1, 227263, Note_on_c, 0, 65, 40
1, 227271, Note_on_c, 0, 53, 22
1, 227277, Control_c, 0, 64, 30
1, 227279, Note_on_c, 0, 57, 22
1, 227291, Note_on_c, 0, 60, 25
1, 227291, Control_c, 0, 64, 0
1, 227403, Note_off_c, 0, 53, 58
1, 227407, Note_off_c, 0, 57, 54
1, 227412, Note_off_c, 0, 60, 58
1, 227426, Note_off_c, 0, 65, 63
1, 227441, Note_off_c, 0, 69, 64
1, 227936, Control_c, 0, 64, 29
1, 227951, Control_c, 0, 64, 31
1, 228010, Control_c, 0, 64, 32
1, 228025, Control_c, 0, 64, 34
1, 228040, Control_c, 0, 64, 34
1, 228054, Control_c, 0, 64, 35
1, 228069, Control_c, 0, 64, 35
1, 228084, Control_c, 0, 64, 37
1, 228099, Control_c, 0, 64, 39
1, 228114, Control_c, 0, 64, 40
1, 228158, Control_c, 0, 64, 41
1, 228172, Control_c, 0, 64, 42
1, 228187, Control_c, 0, 64, 44
1, 228202, Control_c, 0, 64, 45
1, 228217, Control_c, 0, 64, 45
1, 228224, Note_on_c, 0, 72, 61
1, 228232, Control_c, 0, 64, 46
1, 228247, Control_c, 0, 64, 48
1, 228249, Note_on_c, 0, 69, 43
1, 228255, Note_on_c, 0, 53, 39
1, 228261, Control_c, 0, 64, 54
1, 228276, Control_c, 0, 64, 61
1, 228279, Note_on_c, 0, 65, 27
1, 228281, Note_on_c, 0, 60, 18
1, 228291, Control_c, 0, 64, 64
1, 228306, Control_c, 0, 64, 65
1, 228321, Control_c, 0, 64, 66
1, 228336, Control_c, 0, 64, 69
1, 228351, Control_c, 0, 64, 74
1, 228365, Control_c, 0, 64, 80
1, 228380, Control_c, 0, 64, 86
1, 228395, Control_c, 0, 64, 91
1, 228410, Control_c, 0, 64, 96
1, 228425, Control_c, 0, 64, 103
1, 228440, Control_c, 0, 64, 112
1, 228460, Note_off_c, 0, 53, 27
1, 228461, Control_c, 0, 64, 127
1, 228498, Note_off_c, 0, 60, 43
1, 229375, Note_off_c, 0, 65, 34
1, 229459, Note_off_c, 0, 69, 39
1, 229539, Note_off_c, 0, 72, 56
1, 230404, Control_c, 0, 64, 115
1, 230419, Control_c, 0, 64, 111
1, 230434, Control_c, 0, 64, 109
1, 230478, Control_c, 0, 64, 105
1, 230493, Control_c, 0, 64, 102
1, 230522, Control_c, 0, 64, 100
1, 230552, Control_c, 0, 64, 97
1, 230567, Control_c, 0, 64, 95
1, 230581, Control_c, 0, 64, 92
1, 230596, Control_c, 0, 64, 91
1, 230611, Control_c, 0, 64, 90
1, 230626, Control_c, 0, 64, 89
1, 230641, Control_c, 0, 64, 86
1, 230655, Control_c, 0, 64, 82
1, 230670, Control_c, 0, 64, 79
1, 230685, Control_c, 0, 64, 77
1, 230707, Control_c, 0, 64, 76
1, 230722, Control_c, 0, 64, 75
1, 230737, Control_c, 0, 64, 73
1, 230752, Control_c, 0, 64, 71
1, 230767, Control_c, 0, 64, 69
1, 230781, Control_c, 0, 64, 67
1, 230796, Control_c, 0, 64, 65
1, 230811, Control_c, 0, 64, 64
1, 230826, Control_c, 0, 64, 61
1, 230841, Control_c, 0, 64, 59
1, 230855, Control_c, 0, 64, 59
1, 230871, Control_c, 0, 64, 58
1, 230886, Control_c, 0, 64, 56
1, 230901, Control_c, 0, 64, 54
1, 230916, Control_c, 0, 64, 52
1, 230931, Control_c, 0, 64, 50
1, 230945, Control_c, 0, 64, 50
1, 230960, Control_c, 0, 64, 49
1, 230975, Control_c, 0, 64, 49
1, 231019, Control_c, 0, 64, 49
1, 231034, Control_c, 0, 64, 50
1, 231093, Control_c, 0, 64, 52
1, 231108, Control_c, 0, 64, 56
1, 231123, Control_c, 0, 64, 58
1, 231138, Control_c, 0, 64, 60
1, 231144, Note_on_c, 0, 52, 34
1, 231147, Note_on_c, 0, 73, 37
1, 231153, Control_c, 0, 64, 61
1, 231159, Note_on_c, 0, 56, 27
1, 231160, Note_on_c, 0, 68, 19
1, 231166, Note_on_c, 0, 61, 17
1, 231167, Control_c, 0, 64, 63
1, 231182, Control_c, 0, 64, 67
1, 231191, Note_on_c, 0, 64, 14
1, 231197, Control_c, 0, 64, 75
1, 231212, Control_c, 0, 64, 82
1, 231227, Control_c, 0, 64, 94
1, 231242, Control_c, 0, 64, 100
1, 231257, Control_c, 0, 64, 104
1, 231271, Control_c, 0, 64, 110
1, 231281, Note_off_c, 0, 56, 43
1, 231286, Control_c, 0, 64, 127
1, 231295, Note_off_c, 0, 73, 55
1, 231296, Note_off_c, 0, 52, 36
1, 231308, Note_off_c, 0, 61, 39
1, 231323, Note_off_c, 0, 64, 45
1, 231326, Note_off_c, 0, 68, 40
1, 232169, Note_on_c, 0, 73, 43
1, 232199, Note_on_c, 0, 52, 35
1, 232207, Note_on_c, 0, 68, 35
1, 232212, Note_on_c, 0, 56, 28
1, 232215, Note_on_c, 0, 61, 24
1, 232236, Note_on_c, 0, 64, 12
1, 232264, Control_c, 0, 64, 100
1, 232279, Control_c, 0, 64, 80
1, 232294, Control_c, 0, 64, 68
1, 232309, Control_c, 0, 64, 61
1, 232324, Control_c, 0, 64, 55
1, 232336, Note_off_c, 0, 52, 0
1, 232339, Control_c, 0, 64, 51
1, 232353, Control_c, 0, 64, 46
1, 232368, Control_c, 0, 64, 41
1, 232373, Poly_aftertouch_c, 0, 52, 127
1, 232383, Control_c, 0, 64, 39
1, 232413, Control_c, 0, 64, 40
1, 232427, Control_c, 0, 64, 44
1, 232442, Control_c, 0, 64, 50
1, 232457, Control_c, 0, 64, 56
1, 232473, Control_c, 0, 64, 63
1, 232488, Control_c, 0, 64, 69
1, 232503, Control_c, 0, 64, 79
1, 232518, Control_c, 0, 64, 89
1, 232533, Control_c, 0, 64, 97
1, 232548, Control_c, 0, 64, 101
1, 232563, Control_c, 0, 64, 107
1, 232577, Control_c, 0, 64, 127
1, 232604, Note_off_c, 0, 73, 49
1, 232657, Poly_aftertouch_c, 0, 52, 0
1, 232678, Note_off_c, 0, 68, 41
1, 232700, Note_off_c, 0, 64, 37
1, 232718, Note_off_c, 0, 56, 23
1, 232759, Note_off_c, 0, 61, 26
1, 233546, Note_on_c, 0, 76, 41
1, 233570, Note_on_c, 0, 68, 21
1, 233572, Note_on_c, 0, 49, 30
1, 233586, Note_on_c, 0, 56, 34
1, 233594, Note_on_c, 0, 61, 21
1, 233610, Note_on_c, 0, 64, 14
1, 233680, Control_c, 0, 64, 114
1, 233703, Control_c, 0, 64, 103
1, 233718, Control_c, 0, 64, 95
1, 233732, Control_c, 0, 64, 88
1, 233747, Control_c, 0, 64, 82
1, 233762, Control_c, 0, 64, 78
1, 233777, Control_c, 0, 64, 74
1, 233791, Control_c, 0, 64, 69
1, 233806, Control_c, 0, 64, 64
1, 233821, Control_c, 0, 64, 61
1, 233836, Control_c, 0, 64, 59
1, 233851, Control_c, 0, 64, 58
1, 233865, Control_c, 0, 64, 56
1, 233880, Control_c, 0, 64, 53
1, 233895, Control_c, 0, 64, 51
1, 233910, Control_c, 0, 64, 49
1, 233925, Control_c, 0, 64, 48
1, 233940, Control_c, 0, 64, 48
1, 233970, Control_c, 0, 64, 49
1, 233984, Control_c, 0, 64, 52
1, 233999, Control_c, 0, 64, 57
1, 234014, Control_c, 0, 64, 59
1, 234029, Control_c, 0, 64, 59
1, 234044, Control_c, 0, 64, 60
1, 234059, Control_c, 0, 64, 62
1, 234074, Control_c, 0, 64, 66
1, 234089, Control_c, 0, 64, 72
1, 234104, Control_c, 0, 64, 81
1, 234119, Control_c, 0, 64, 84
1, 234133, Control_c, 0, 64, 85
1, 234148, Control_c, 0, 64, 86
1, 234163, Control_c, 0, 64, 87
1, 234178, Control_c, 0, 64, 90
1, 234193, Control_c, 0, 64, 92
1, 234208, Control_c, 0, 64, 96
1, 234222, Control_c, 0, 64, 99
1, 234237, Control_c, 0, 64, 103
1, 234252, Control_c, 0, 64, 107
1, 234267, Control_c, 0, 64, 111
1, 234282, Control_c, 0, 64, 117
1, 234296, Control_c, 0, 64, 127
1, 234781, Note_off_c, 0, 61, 32
1, 234875, Note_off_c, 0, 64, 32
1, 235249, Note_off_c, 0, 76, 35
1, 235313, Note_off_c, 0, 56, 3
1, 235415, Note_off_c, 0, 68, 31
1, 235609, Note_off_c, 0, 49, 40
1, 236217, Control_c, 0, 64, 116
1, 236232, Control_c, 0, 64, 109
1, 236247, Control_c, 0, 64, 107
1, 236276, Control_c, 0, 64, 104
1, 236291, Control_c, 0, 64, 101
1, 236306, Control_c, 0, 64, 98
1, 236320, Control_c, 0, 64, 96
1, 236335, Control_c, 0, 64, 95
1, 236350, Control_c, 0, 64, 94
1, 236365, Control_c, 0, 64, 93
1, 236380, Control_c, 0, 64, 92
1, 236394, Control_c, 0, 64, 91
1, 236409, Control_c, 0, 64, 91
1, 236424, Control_c, 0, 64, 90
1, 236438, Control_c, 0, 64, 90
1, 236453, Control_c, 0, 64, 88
1, 236470, Control_c, 0, 64, 87
1, 236484, Control_c, 0, 64, 85
1, 236499, Control_c, 0, 64, 85
1, 236529, Control_c, 0, 64, 83
1, 236543, Control_c, 0, 64, 81
1, 236558, Control_c, 0, 64, 78
1, 236573, Control_c, 0, 64, 76
1, 236588, Control_c, 0, 64, 76
1, 236603, Control_c, 0, 64, 74
1, 236617, Control_c, 0, 64, 71
1, 236632, Control_c, 0, 64, 67
1, 236647, Control_c, 0, 64, 64
1, 236662, Control_c, 0, 64, 63
1, 236714, Control_c, 0, 64, 62
1, 236729, Control_c, 0, 64, 61
1, 236743, Control_c, 0, 64, 59
1, 236758, Control_c, 0, 64, 59
1, 236773, Control_c, 0, 64, 58
1, 236788, Control_c, 0, 64, 57
1, 236803, Control_c, 0, 64, 55
1, 236817, Control_c, 0, 64, 53
1, 236832, Control_c, 0, 64, 52
1, 236877, Control_c, 0, 64, 52
1, 236906, Control_c, 0, 64, 53
1, 236921, Control_c, 0, 64, 54
1, 236936, Control_c, 0, 64, 56
1, 236950, Control_c, 0, 64, 60
1, 236965, Control_c, 0, 64, 62
1, 236980, Control_c, 0, 64, 62
1, 237010, Control_c, 0, 64, 63
1, 237025, Control_c, 0, 64, 63
1, 237040, Control_c, 0, 64, 64
1, 237055, Control_c, 0, 64, 66
1, 237069, Control_c, 0, 64, 68
1, 237084, Control_c, 0, 64, 69
1, 237099, Control_c, 0, 64, 70
1, 237110, Note_on_c, 0, 64, 55
1, 237114, Control_c, 0, 64, 73
1, 237129, Control_c, 0, 64, 77
1, 237137, Note_on_c, 0, 49, 29
1, 237143, Control_c, 0, 64, 80
1, 237158, Control_c, 0, 64, 83
1, 237173, Control_c, 0, 64, 84
1, 237188, Control_c, 0, 64, 85
1, 237203, Control_c, 0, 64, 87
1, 237217, Control_c, 0, 64, 90
1, 237232, Control_c, 0, 64, 95
1, 237247, Control_c, 0, 64, 103
1, 237263, Control_c, 0, 64, 117
1, 237278, Control_c, 0, 64, 127
1, 237529, Note_on_c, 0, 56, 39
1, 237555, Note_off_c, 0, 49, 34
1, 237593, Note_off_c, 0, 64, 52
1, 237871, Note_on_c, 0, 64, 50
1, 237885, Note_off_c, 0, 56, 31
1, 237913, Note_on_c, 0, 49, 29
1, 237965, Control_c, 0, 64, 104
1, 237980, Control_c, 0, 64, 83
1, 237995, Control_c, 0, 64, 67
1, 238010, Control_c, 0, 64, 56
1, 238025, Control_c, 0, 64, 49
1, 238039, Control_c, 0, 64, 47
1, 238070, Control_c, 0, 64, 47
1, 238085, Control_c, 0, 64, 54
1, 238100, Control_c, 0, 64, 60
1, 238114, Control_c, 0, 64, 65
1, 238129, Note_on_c, 0, 56, 46
1, 238129, Control_c, 0, 64, 71
1, 238144, Control_c, 0, 64, 80
1, 238159, Control_c, 0, 64, 92
1, 238174, Control_c, 0, 64, 103
1, 238196, Control_c, 0, 64, 110
1, 238211, Control_c, 0, 64, 123
1, 238221, Note_off_c, 0, 49, 36
1, 238226, Control_c, 0, 64, 127
1, 238363, Note_on_c, 0, 63, 67
1, 238381, Note_on_c, 0, 48, 41
1, 238418, Control_c, 0, 64, 104
1, 238429, Note_off_c, 0, 64, 60
1, 238433, Control_c, 0, 64, 80
1, 238444, Note_off_c, 0, 56, 31
1, 238448, Control_c, 0, 64, 65
1, 238462, Control_c, 0, 64, 54
1, 238477, Control_c, 0, 64, 48
1, 238492, Control_c, 0, 64, 47
1, 238506, Control_c, 0, 64, 46
1, 238521, Control_c, 0, 64, 49
1, 238536, Control_c, 0, 64, 57
1, 238551, Control_c, 0, 64, 65
1, 238566, Control_c, 0, 64, 74
1, 238575, Note_on_c, 0, 56, 46
1, 238581, Control_c, 0, 64, 89
1, 238596, Control_c, 0, 64, 108
1, 238611, Control_c, 0, 64, 127
1, 238694, Note_off_c, 0, 48, 41
1, 238784, Note_on_c, 0, 64, 73
1, 238813, Note_on_c, 0, 49, 37
1, 238832, Control_c, 0, 64, 101
1, 238846, Note_off_c, 0, 63, 63
1, 238847, Control_c, 0, 64, 75
1, 238853, Note_off_c, 0, 56, 35
1, 238864, Control_c, 0, 64, 59
1, 238879, Control_c, 0, 64, 45
1, 238893, Control_c, 0, 64, 38
1, 238908, Control_c, 0, 64, 37
1, 238945, Control_c, 0, 64, 44
1, 238960, Control_c, 0, 64, 57
1, 238974, Control_c, 0, 64, 68
1, 238989, Control_c, 0, 64, 78
1, 238999, Note_on_c, 0, 56, 43
1, 239004, Control_c, 0, 64, 89
1, 239016, Note_off_c, 0, 49, 60
1, 239019, Control_c, 0, 64, 93
1, 239034, Control_c, 0, 64, 97
1, 239049, Control_c, 0, 64, 105
1, 239064, Control_c, 0, 64, 127
1, 239237, Note_on_c, 0, 66, 74
1, 239257, Note_on_c, 0, 51, 32
1, 239299, Note_off_c, 0, 56, 36
1, 239310, Note_off_c, 0, 64, 56
1, 239316, Control_c, 0, 64, 87
1, 239331, Control_c, 0, 64, 71
1, 239345, Control_c, 0, 64, 60
1, 239360, Control_c, 0, 64, 50
1, 239375, Control_c, 0, 64, 41
1, 239390, Control_c, 0, 64, 33
1, 239404, Control_c, 0, 64, 29
1, 239434, Control_c, 0, 64, 35
1, 239449, Control_c, 0, 64, 50
1, 239463, Note_on_c, 0, 56, 32
1, 239463, Control_c, 0, 64, 63
1, 239478, Control_c, 0, 64, 72
1, 239493, Control_c, 0, 64, 80
1, 239508, Control_c, 0, 64, 85
1, 239523, Control_c, 0, 64, 89
1, 239538, Control_c, 0, 64, 97
1, 239553, Control_c, 0, 64, 112
1, 239568, Control_c, 0, 64, 127
1, 239575, Note_off_c, 0, 51, 43
1, 239774, Note_on_c, 0, 68, 58
1, 239801, Note_on_c, 0, 52, 31
1, 239824, Note_off_c, 0, 66, 58
1, 239881, Note_off_c, 0, 56, 42
1, 239887, Control_c, 0, 64, 104
1, 239902, Control_c, 0, 64, 88
1, 239916, Control_c, 0, 64, 75
1, 239931, Control_c, 0, 64, 63
1, 239946, Control_c, 0, 64, 55
1, 239961, Control_c, 0, 64, 49
1, 239976, Control_c, 0, 64, 44
1, 239991, Control_c, 0, 64, 39
1, 240006, Control_c, 0, 64, 36
1, 240021, Control_c, 0, 64, 36
1, 240035, Control_c, 0, 64, 42
1, 240042, Note_on_c, 0, 56, 33
1, 240050, Control_c, 0, 64, 51
1, 240065, Control_c, 0, 64, 59
1, 240080, Control_c, 0, 64, 64
1, 240094, Control_c, 0, 64, 67
1, 240109, Control_c, 0, 64, 72
1, 240124, Control_c, 0, 64, 78
1, 240139, Control_c, 0, 64, 83
1, 240154, Control_c, 0, 64, 89
1, 240168, Control_c, 0, 64, 96
1, 240183, Control_c, 0, 64, 103
1, 240198, Control_c, 0, 64, 112
1, 240213, Control_c, 0, 64, 127
1, 240268, Note_on_c, 0, 61, 37
1, 240327, Note_off_c, 0, 56, 41
1, 240448, Note_on_c, 0, 56, 50
1, 240492, Note_off_c, 0, 52, 37
1, 240533, Note_off_c, 0, 61, 34
1, 240669, Note_on_c, 0, 52, 46
1, 240716, Note_off_c, 0, 56, 58
1, 240749, Note_off_c, 0, 68, 62
1, 240869, Note_on_c, 0, 56, 47
1, 240909, Note_off_c, 0, 52, 35
1, 241118, Note_on_c, 0, 68, 70
1, 241154, Note_on_c, 0, 51, 40
1, 241211, Note_off_c, 0, 56, 33
1, 241235, Control_c, 0, 64, 105
1, 241250, Control_c, 0, 64, 76
1, 241267, Control_c, 0, 64, 62
1, 241281, Control_c, 0, 64, 53
1, 241296, Control_c, 0, 64, 52
1, 241326, Control_c, 0, 64, 53
1, 241340, Control_c, 0, 64, 57
1, 241355, Control_c, 0, 64, 64
1, 241363, Note_on_c, 0, 56, 43
1, 241370, Control_c, 0, 64, 71
1, 241385, Control_c, 0, 64, 87
1, 241400, Control_c, 0, 64, 126
1, 241487, Note_off_c, 0, 51, 30
1, 241495, Note_off_c, 0, 68, 58
1, 241660, Note_on_c, 0, 68, 67
1, 241690, Note_on_c, 0, 52, 39
1, 241772, Note_off_c, 0, 56, 37
1, 241784, Control_c, 0, 64, 121
1, 241799, Control_c, 0, 64, 88
1, 241813, Control_c, 0, 64, 69
1, 241828, Control_c, 0, 64, 56
1, 241843, Control_c, 0, 64, 46
1, 241857, Control_c, 0, 64, 43
1, 241872, Control_c, 0, 64, 43
1, 241887, Control_c, 0, 64, 43
1, 241902, Control_c, 0, 64, 49
1, 241912, Note_on_c, 0, 56, 46
1, 241917, Note_on_c, 0, 66, 79
1, 241917, Control_c, 0, 64, 56
1, 241939, Control_c, 0, 64, 63
1, 241954, Control_c, 0, 64, 70
1, 241969, Control_c, 0, 64, 82
1, 241984, Control_c, 0, 64, 90
1, 241999, Control_c, 0, 64, 93
1, 242000, Note_off_c, 0, 68, 58
1, 242013, Control_c, 0, 64, 98
1, 242028, Control_c, 0, 64, 108
1, 242043, Control_c, 0, 64, 127
1, 242127, Note_on_c, 0, 68, 75
1, 242148, Note_on_c, 0, 61, 48
1, 242177, Note_off_c, 0, 66, 63
1, 242180, Note_off_c, 0, 56, 60
1, 242323, Note_on_c, 0, 69, 71
1, 242325, Note_off_c, 0, 52, 35
1, 242328, Note_on_c, 0, 56, 47
1, 242347, Note_off_c, 0, 68, 62
1, 242411, Note_off_c, 0, 61, 40
1, 242564, Note_on_c, 0, 71, 70
1, 242587, Note_on_c, 0, 53, 44
1, 242622, Control_c, 0, 64, 100
1, 242626, Note_off_c, 0, 69, 57
1, 242637, Control_c, 0, 64, 76
1, 242650, Note_off_c, 0, 56, 52
1, 242652, Control_c, 0, 64, 60
1, 242667, Control_c, 0, 64, 46
1, 242689, Control_c, 0, 64, 37
1, 242704, Control_c, 0, 64, 35
1, 242718, Control_c, 0, 64, 34
1, 242733, Control_c, 0, 64, 36
1, 242748, Control_c, 0, 64, 47
1, 242763, Control_c, 0, 64, 60
1, 242778, Control_c, 0, 64, 69
1, 242793, Control_c, 0, 64, 75
1, 242803, Note_on_c, 0, 74, 70
1, 242807, Control_c, 0, 64, 78
1, 242822, Control_c, 0, 64, 80
1, 242823, Note_on_c, 0, 61, 51
1, 242837, Control_c, 0, 64, 83
1, 242852, Control_c, 0, 64, 90
1, 242868, Control_c, 0, 64, 99
1, 242879, Note_off_c, 0, 71, 61
1, 242882, Control_c, 0, 64, 109
1, 242897, Control_c, 0, 64, 117
1, 242912, Control_c, 0, 64, 127
1, 242924, Note_off_c, 0, 53, 37
1, 243055, Note_on_c, 0, 73, 69
1, 243063, Note_on_c, 0, 53, 45
1, 243075, Note_off_c, 0, 61, 36
1, 243130, Note_off_c, 0, 74, 61
1, 243148, Control_c, 0, 64, 110
1, 243163, Control_c, 0, 64, 94
1, 243178, Control_c, 0, 64, 80
1, 243192, Control_c, 0, 64, 72
1, 243207, Control_c, 0, 64, 67
1, 243222, Control_c, 0, 64, 64
1, 243237, Control_c, 0, 64, 62
1, 243267, Control_c, 0, 64, 63
1, 243282, Control_c, 0, 64, 67
1, 243297, Control_c, 0, 64, 73
1, 243303, Note_on_c, 0, 61, 40
1, 243308, Note_on_c, 0, 68, 51
1, 243311, Control_c, 0, 64, 82
1, 243320, Note_off_c, 0, 73, 61
1, 243326, Control_c, 0, 64, 88
1, 243341, Control_c, 0, 64, 92
1, 243356, Control_c, 0, 64, 95
1, 243371, Control_c, 0, 64, 100
1, 243385, Control_c, 0, 64, 108
1, 243400, Control_c, 0, 64, 121
1, 243410, Note_off_c, 0, 53, 58
1, 243415, Control_c, 0, 64, 127
1, 243600, Control_c, 0, 64, 108
1, 243604, Note_on_c, 0, 54, 47
1, 243613, Note_on_c, 0, 69, 52
1, 243615, Control_c, 0, 64, 93
1, 243629, Control_c, 0, 64, 79
1, 243644, Control_c, 0, 64, 68
1, 243651, Note_off_c, 0, 68, 37
1, 243656, Note_off_c, 0, 61, 36
1, 243660, Control_c, 0, 64, 59
1, 243675, Control_c, 0, 64, 50
1, 243690, Control_c, 0, 64, 38
1, 243705, Control_c, 0, 64, 0
1, 243778, Control_c, 0, 64, 37
1, 243793, Control_c, 0, 64, 47
1, 243807, Control_c, 0, 64, 55
1, 243822, Control_c, 0, 64, 59
1, 243837, Control_c, 0, 64, 61
1, 243851, Control_c, 0, 64, 64
1, 243866, Control_c, 0, 64, 67
1, 243881, Control_c, 0, 64, 69
1, 243896, Control_c, 0, 64, 71
1, 243911, Control_c, 0, 64, 74
1, 243916, Note_on_c, 0, 61, 42
1, 243926, Control_c, 0, 64, 79
1, 243941, Control_c, 0, 64, 85
1, 243956, Control_c, 0, 64, 92
1, 243970, Control_c, 0, 64, 97
1, 243985, Control_c, 0, 64, 100
1, 244000, Note_off_c, 0, 54, 37
1, 244000, Control_c, 0, 64, 104
1, 244015, Control_c, 0, 64, 109
1, 244030, Control_c, 0, 64, 116
1, 244044, Control_c, 0, 64, 127
1, 244106, Note_on_c, 0, 54, 49
1, 244196, Note_off_c, 0, 61, 49
1, 244316, Note_on_c, 0, 62, 56
1, 244400, Note_off_c, 0, 54, 58
1, 244511, Note_on_c, 0, 54, 53
1, 244527, Control_c, 0, 64, 99
1, 244542, Control_c, 0, 64, 77
1, 244556, Control_c, 0, 64, 65
1, 244564, Note_off_c, 0, 62, 56
1, 244571, Control_c, 0, 64, 60
1, 244586, Control_c, 0, 64, 60
1, 244601, Control_c, 0, 64, 64
1, 244616, Control_c, 0, 64, 74
1, 244630, Control_c, 0, 64, 90
1, 244645, Control_c, 0, 64, 117
1, 244660, Control_c, 0, 64, 127
1, 244708, Note_off_c, 0, 69, 66
1, 244721, Note_on_c, 0, 61, 58
1, 244772, Note_off_c, 0, 54, 59
1, 244999, Note_off_c, 0, 61, 41
1, 245020, Note_on_c, 0, 81, 74
1, 245027, Note_on_c, 0, 54, 49
1, 245054, Note_on_c, 0, 69, 39
1, 245112, Control_c, 0, 64, 95
1, 245127, Control_c, 0, 64, 70
1, 245142, Control_c, 0, 64, 57
1, 245156, Control_c, 0, 64, 51
1, 245186, Control_c, 0, 64, 53
1, 245200, Control_c, 0, 64, 58
1, 245215, Control_c, 0, 64, 65
1, 245230, Control_c, 0, 64, 76
1, 245245, Control_c, 0, 64, 88
1, 245261, Control_c, 0, 64, 100
1, 245276, Control_c, 0, 64, 126
1, 245306, Note_on_c, 0, 60, 48
1, 245338, Note_off_c, 0, 54, 59
1, 245384, Note_off_c, 0, 81, 56
1, 245434, Note_off_c, 0, 69, 33
1, 245583, Note_on_c, 0, 81, 72
1, 245598, Note_on_c, 0, 54, 51
1, 245620, Note_on_c, 0, 69, 31
1, 245624, Note_off_c, 0, 60, 55
1, 245684, Control_c, 0, 64, 106
1, 245699, Control_c, 0, 64, 79
1, 245713, Control_c, 0, 64, 62
1, 245728, Control_c, 0, 64, 50
1, 245743, Control_c, 0, 64, 46
1, 245758, Control_c, 0, 64, 46
1, 245773, Control_c, 0, 64, 51
1, 245787, Control_c, 0, 64, 60
1, 245802, Control_c, 0, 64, 68
1, 245817, Control_c, 0, 64, 78
1, 245831, Control_c, 0, 64, 88
1, 245834, Note_on_c, 0, 61, 56
1, 245843, Note_off_c, 0, 69, 49
1, 245846, Control_c, 0, 64, 94
1, 245861, Control_c, 0, 64, 103
1, 245876, Control_c, 0, 64, 127
1, 245953, Note_off_c, 0, 54, 34
1, 246034, Note_on_c, 0, 80, 80
1, 246045, Note_on_c, 0, 53, 57
1, 246068, Note_off_c, 0, 61, 52
1, 246084, Control_c, 0, 64, 111
1, 246095, Note_on_c, 0, 68, 34
1, 246099, Control_c, 0, 64, 80
1, 246114, Control_c, 0, 64, 63
1, 246129, Control_c, 0, 64, 48
1, 246133, Note_off_c, 0, 81, 53
1, 246144, Control_c, 0, 64, 34
1, 246158, Control_c, 0, 64, 0
1, 246188, Control_c, 0, 64, 30
1, 246194, Note_off_c, 0, 68, 48
1, 246203, Control_c, 0, 64, 45
1, 246218, Control_c, 0, 64, 60
1, 246232, Note_on_c, 0, 61, 53
1, 246233, Control_c, 0, 64, 71
1, 246247, Control_c, 0, 64, 89
1, 246262, Control_c, 0, 64, 107
1, 246277, Control_c, 0, 64, 127
1, 246349, Note_off_c, 0, 53, 46
1, 246438, Note_on_c, 0, 81, 84
1, 246442, Note_on_c, 0, 54, 66
1, 246462, Control_c, 0, 64, 79
1, 246464, Note_on_c, 0, 69, 51
1, 246477, Control_c, 0, 64, 62
1, 246492, Control_c, 0, 64, 49
1, 246495, Note_off_c, 0, 61, 53
1, 246507, Control_c, 0, 64, 45
1, 246536, Control_c, 0, 64, 50
1, 246545, Note_off_c, 0, 80, 53
1, 246551, Control_c, 0, 64, 62
1, 246566, Control_c, 0, 64, 74
1, 246581, Control_c, 0, 64, 98
1, 246596, Control_c, 0, 64, 127
1, 246598, Note_off_c, 0, 69, 55
1, 246626, Note_on_c, 0, 61, 60
1, 246641, Note_off_c, 0, 54, 58
1, 246820, Note_on_c, 0, 83, 87
1, 246828, Note_on_c, 0, 56, 68
1, 246836, Note_on_c, 0, 71, 66
1, 246848, Control_c, 0, 64, 99
1, 246859, Note_off_c, 0, 81, 63
1, 246863, Control_c, 0, 64, 65
1, 246877, Control_c, 0, 64, 41
1, 246892, Note_off_c, 0, 61, 55
1, 246892, Control_c, 0, 64, 0
1, 246951, Control_c, 0, 64, 38
1, 246966, Control_c, 0, 64, 61
1, 246981, Control_c, 0, 64, 73
1, 246996, Control_c, 0, 64, 89
1, 247011, Control_c, 0, 64, 123
1, 247026, Control_c, 0, 64, 127
1, 247029, Note_on_c, 0, 61, 55
1, 247042, Note_off_c, 0, 71, 54
1, 247118, Note_off_c, 0, 56, 59
1, 247285, Note_on_c, 0, 85, 84
1, 247309, Note_on_c, 0, 73, 62
1, 247311, Note_on_c, 0, 57, 47
1, 247313, Note_off_c, 0, 83, 61
1, 247345, Control_c, 0, 64, 98
1, 247359, Control_c, 0, 64, 76
1, 247374, Control_c, 0, 64, 58
1, 247377, Note_off_c, 0, 61, 58
1, 247389, Control_c, 0, 64, 41
1, 247403, Control_c, 0, 64, 0
1, 247477, Control_c, 0, 64, 37
1, 247492, Control_c, 0, 64, 51
1, 247507, Control_c, 0, 64, 61
1, 247522, Control_c, 0, 64, 66
1, 247537, Control_c, 0, 64, 71
1, 247551, Control_c, 0, 64, 77
1, 247566, Control_c, 0, 64, 87
1, 247568, Note_on_c, 0, 61, 53
1, 247581, Control_c, 0, 64, 100
1, 247595, Control_c, 0, 64, 126
1, 247760, Note_on_c, 0, 66, 54
1, 247801, Note_off_c, 0, 61, 57
1, 247953, Note_on_c, 0, 61, 51
1, 247997, Note_off_c, 0, 57, 60
1, 248134, Note_off_c, 0, 66, 39
1, 248135, Note_on_c, 0, 57, 56
1, 248211, Note_off_c, 0, 61, 62
1, 248270, Note_off_c, 0, 73, 62
1, 248284, Poly_aftertouch_c, 0, 80, 0
1, 248286, Note_off_c, 0, 85, 64
1, 248342, Note_on_c, 0, 61, 55
1, 248355, Note_off_c, 0, 57, 59
1, 248573, Note_on_c, 0, 85, 81
1, 248581, Note_on_c, 0, 56, 58
1, 248600, Note_on_c, 0, 73, 53
1, 248612, Control_c, 0, 64, 85
1, 248627, Control_c, 0, 64, 64
1, 248629, Note_off_c, 0, 61, 56
1, 248641, Control_c, 0, 64, 44
1, 248656, Control_c, 0, 64, 0
1, 248722, Control_c, 0, 64, 38
1, 248737, Control_c, 0, 64, 53
1, 248752, Control_c, 0, 64, 65
1, 248767, Control_c, 0, 64, 78
1, 248782, Control_c, 0, 64, 97
1, 248797, Control_c, 0, 64, 127
1, 248828, Note_on_c, 0, 61, 49
1, 248871, Note_off_c, 0, 56, 58
1, 248873, Note_off_c, 0, 73, 62
1, 248880, Note_off_c, 0, 85, 61
1, 249079, Control_c, 0, 64, 89
1, 249080, Note_on_c, 0, 85, 73
1, 249092, Note_on_c, 0, 57, 46
1, 249094, Control_c, 0, 64, 70
1, 249107, Note_on_c, 0, 73, 55
1, 249109, Control_c, 0, 64, 61
1, 249123, Control_c, 0, 64, 62
1, 249138, Control_c, 0, 64, 69
1, 249153, Control_c, 0, 64, 86
1, 249163, Note_off_c, 0, 61, 61
1, 249167, Control_c, 0, 64, 127
1, 249216, Note_off_c, 0, 73, 59
1, 249244, Note_off_c, 0, 85, 62
1, 249318, Note_on_c, 0, 61, 56
1, 249326, Note_on_c, 0, 83, 74
1, 249335, Note_on_c, 0, 71, 61
1, 249357, Note_off_c, 0, 71, 63
1, 249522, Note_on_c, 0, 85, 86
1, 249536, Note_off_c, 0, 83, 58
1, 249540, Note_on_c, 0, 73, 67
1, 249545, Note_on_c, 0, 66, 56
1, 249597, Note_off_c, 0, 61, 59
1, 249601, Note_off_c, 0, 73, 38
1, 249691, Note_off_c, 0, 66, 55
1, 249726, Note_on_c, 0, 86, 88
1, 249733, Note_on_c, 0, 61, 53
1, 249746, Note_on_c, 0, 74, 62
1, 249756, Note_off_c, 0, 57, 59
1, 249761, Note_off_c, 0, 85, 60
1, 249786, Note_off_c, 0, 74, 51
1, 249976, Note_on_c, 0, 88, 80
1, 249980, Note_on_c, 0, 58, 55
1, 249987, Note_on_c, 0, 76, 63
1, 249990, Control_c, 0, 64, 84
1, 250005, Control_c, 0, 64, 63
1, 250007, Note_off_c, 0, 86, 64
1, 250020, Control_c, 0, 64, 47
1, 250035, Control_c, 0, 64, 46
1, 250050, Note_off_c, 0, 61, 38
1, 250051, Control_c, 0, 64, 51
1, 250066, Control_c, 0, 64, 61
1, 250076, Note_off_c, 0, 76, 40
1, 250081, Control_c, 0, 64, 74
1, 250095, Control_c, 0, 64, 105
1, 250110, Control_c, 0, 64, 127
1, 250211, Note_on_c, 0, 91, 90
1, 250218, Note_on_c, 0, 61, 57
1, 250224, Note_on_c, 0, 79, 61
1, 250229, Note_off_c, 0, 88, 62
1, 250259, Note_off_c, 0, 79, 61
1, 250260, Note_off_c, 0, 58, 63
1, 250462, Note_on_c, 0, 90, 84
1, 250470, Note_on_c, 0, 58, 56
1, 250472, Note_on_c, 0, 78, 67
1, 250473, Control_c, 0, 64, 86
1, 250488, Control_c, 0, 64, 66
1, 250502, Control_c, 0, 64, 57
1, 250517, Control_c, 0, 64, 58
1, 250532, Control_c, 0, 64, 64
1, 250539, Note_off_c, 0, 91, 61
1, 250547, Control_c, 0, 64, 75
1, 250562, Control_c, 0, 64, 103
1, 250576, Control_c, 0, 64, 127
1, 250579, Note_off_c, 0, 78, 63
1, 250581, Note_off_c, 0, 90, 65
1, 250689, Note_on_c, 0, 85, 84
1, 250699, Note_on_c, 0, 66, 65
1, 250707, Note_on_c, 0, 73, 63
1, 250737, Note_off_c, 0, 73, 59
1, 250742, Note_off_c, 0, 58, 61
1, 250888, Note_off_c, 0, 66, 43
1, 250982, Note_on_c, 0, 86, 82
1, 251006, Note_on_c, 0, 74, 61
1, 251012, Note_on_c, 0, 59, 53
1, 251041, Note_off_c, 0, 85, 63
1, 251044, Control_c, 0, 64, 97
1, 251054, Note_off_c, 0, 61, 43
1, 251059, Control_c, 0, 64, 74
1, 251074, Control_c, 0, 64, 58
1, 251089, Control_c, 0, 64, 43
1, 251104, Control_c, 0, 64, 28
1, 251118, Control_c, 0, 64, 0
1, 251163, Control_c, 0, 64, 32
1, 251178, Control_c, 0, 64, 47
1, 251192, Control_c, 0, 64, 60
1, 251207, Control_c, 0, 64, 66
1, 251222, Control_c, 0, 64, 70
1, 251237, Control_c, 0, 64, 72
1, 251251, Control_c, 0, 64, 77
1, 251266, Control_c, 0, 64, 88
1, 251270, Note_on_c, 0, 66, 62
1, 251281, Control_c, 0, 64, 120
1, 251296, Control_c, 0, 64, 127
1, 251352, Note_off_c, 0, 59, 59
1, 251473, Note_on_c, 0, 59, 58
1, 251544, Note_off_c, 0, 66, 58
1, 251671, Note_on_c, 0, 67, 63
1, 251716, Note_off_c, 0, 59, 61
1, 251869, Note_on_c, 0, 59, 64
1, 251885, Note_off_c, 0, 67, 61
1, 251941, Note_off_c, 0, 74, 59
1, 251956, Note_off_c, 0, 86, 61
1, 252066, Note_on_c, 0, 66, 58
1, 252085, Note_off_c, 0, 59, 57
1, 252322, Note_on_c, 0, 86, 77
1, 252334, Note_on_c, 0, 59, 52
1, 252352, Note_on_c, 0, 74, 48
1, 252375, Note_off_c, 0, 66, 35
1, 252422, Control_c, 0, 64, 100
1, 252437, Control_c, 0, 64, 74
1, 252453, Control_c, 0, 64, 59
1, 252468, Control_c, 0, 64, 49
1, 252497, Control_c, 0, 64, 54
1, 252512, Control_c, 0, 64, 61
1, 252527, Control_c, 0, 64, 70
1, 252542, Control_c, 0, 64, 85
1, 252557, Control_c, 0, 64, 111
1, 252571, Control_c, 0, 64, 127
1, 252601, Note_on_c, 0, 65, 50
1, 252607, Note_off_c, 0, 74, 62
1, 252732, Note_off_c, 0, 59, 44
1, 252904, Note_on_c, 0, 85, 74
1, 252921, Note_on_c, 0, 73, 37
1, 252925, Note_on_c, 0, 57, 36
1, 252955, Note_off_c, 0, 65, 54
1, 252956, Control_c, 0, 64, 107
1, 252971, Control_c, 0, 64, 86
1, 252978, Note_off_c, 0, 86, 62
1, 252986, Control_c, 0, 64, 70
1, 253001, Control_c, 0, 64, 58
1, 253015, Control_c, 0, 64, 45
1, 253030, Control_c, 0, 64, 30
1, 253045, Control_c, 0, 64, 0
1, 253104, Control_c, 0, 64, 35
1, 253119, Control_c, 0, 64, 47
1, 253134, Control_c, 0, 64, 59
1, 253149, Control_c, 0, 64, 66
1, 253171, Control_c, 0, 64, 71
1, 253186, Control_c, 0, 64, 76
1, 253187, Note_on_c, 0, 66, 49
1, 253201, Control_c, 0, 64, 83
1, 253215, Control_c, 0, 64, 96
1, 253230, Control_c, 0, 64, 127
1, 253282, Note_off_c, 0, 66, 0
1, 253282, Note_on_c, 0, 66, 12
1, 253297, Note_off_c, 0, 85, 64
1, 253373, Note_off_c, 0, 73, 44
1, 253386, Note_on_c, 0, 56, 47
1, 253433, Note_off_c, 0, 66, 39
1, 253463, Note_off_c, 0, 57, 35
1, 253557, Note_on_c, 0, 83, 77
1, 253581, Note_off_c, 0, 56, 59
1, 253584, Note_on_c, 0, 65, 52
1, 253591, Note_on_c, 0, 71, 47
1, 253623, Note_off_c, 0, 71, 64
1, 253763, Note_on_c, 0, 81, 81
1, 253781, Note_on_c, 0, 54, 61
1, 253787, Note_on_c, 0, 69, 60
1, 253793, Note_off_c, 0, 65, 50
1, 253809, Control_c, 0, 64, 100
1, 253823, Note_off_c, 0, 83, 62
1, 253824, Control_c, 0, 64, 71
1, 253838, Control_c, 0, 64, 54
1, 253853, Control_c, 0, 64, 41
1, 253868, Control_c, 0, 64, 39
1, 253879, Note_off_c, 0, 69, 54
1, 253883, Control_c, 0, 64, 44
1, 253898, Control_c, 0, 64, 57
1, 253920, Control_c, 0, 64, 67
1, 253935, Control_c, 0, 64, 80
1, 253950, Control_c, 0, 64, 99
1, 253962, Note_off_c, 0, 81, 66
1, 253964, Control_c, 0, 64, 127
1, 253971, Note_off_c, 0, 54, 61
1, 253989, Note_on_c, 0, 66, 58
1, 254189, Note_off_c, 0, 66, 39
1, 254202, Note_on_c, 0, 81, 80
1, 254225, Note_on_c, 0, 51, 62
1, 254246, Note_on_c, 0, 69, 50
1, 254276, Control_c, 0, 64, 94
1, 254291, Control_c, 0, 64, 70
1, 254306, Control_c, 0, 64, 54
1, 254321, Control_c, 0, 64, 49
1, 254335, Control_c, 0, 64, 50
1, 254350, Control_c, 0, 64, 55
1, 254365, Control_c, 0, 64, 64
1, 254380, Control_c, 0, 64, 77
1, 254385, Note_off_c, 0, 69, 63
1, 254395, Control_c, 0, 64, 101
1, 254410, Note_on_c, 0, 60, 58
1, 254410, Control_c, 0, 64, 127
1, 254496, Note_off_c, 0, 51, 38
1, 254626, Note_on_c, 0, 80, 81
1, 254639, Note_on_c, 0, 68, 60
1, 254647, Control_c, 0, 64, 101
1, 254655, Note_on_c, 0, 52, 60
1, 254669, Control_c, 0, 64, 70
1, 254684, Control_c, 0, 64, 47
1, 254696, Note_off_c, 0, 81, 56
1, 254699, Control_c, 0, 64, 0
1, 254731, Note_off_c, 0, 60, 60
1, 254758, Control_c, 0, 64, 43
1, 254773, Control_c, 0, 64, 60
1, 254787, Control_c, 0, 64, 69
1, 254802, Control_c, 0, 64, 77
1, 254817, Control_c, 0, 64, 88
1, 254832, Control_c, 0, 64, 99
1, 254848, Control_c, 0, 64, 121
1, 254860, Note_off_c, 0, 52, 62
1, 254863, Control_c, 0, 64, 127
1, 254873, Note_on_c, 0, 61, 55
1, 254963, Note_off_c, 0, 68, 61
1, 254988, Note_off_c, 0, 61, 56
1, 255080, Note_on_c, 0, 48, 67
1, 255282, Note_on_c, 0, 78, 83
1, 255307, Note_on_c, 0, 57, 55
1, 255314, Note_on_c, 0, 66, 44
1, 255332, Note_off_c, 0, 48, 62
1, 255340, Note_off_c, 0, 80, 64
1, 255390, Note_off_c, 0, 66, 32
1, 255437, Note_off_c, 0, 78, 56
1, 255580, Note_on_c, 0, 76, 75
1, 255586, Note_on_c, 0, 49, 55
1, 255603, Note_on_c, 0, 64, 46
1, 255611, Note_off_c, 0, 57, 61
1, 255685, Control_c, 0, 64, 84
1, 255700, Control_c, 0, 64, 64
1, 255715, Control_c, 0, 64, 46
1, 255730, Control_c, 0, 64, 30
1, 255744, Control_c, 0, 64, 0
1, 255803, Control_c, 0, 64, 44
1, 255818, Control_c, 0, 64, 60
1, 255821, Note_on_c, 0, 56, 60
1, 255832, Control_c, 0, 64, 73
1, 255847, Control_c, 0, 64, 85
1, 255862, Control_c, 0, 64, 94
1, 255877, Control_c, 0, 64, 104
1, 255882, Note_off_c, 0, 76, 60
1, 255892, Control_c, 0, 64, 127
1, 255921, Note_off_c, 0, 64, 39
1, 256019, Note_on_c, 0, 76, 80
1, 256034, Note_on_c, 0, 52, 62
1, 256042, Note_on_c, 0, 64, 44
1, 256055, Control_c, 0, 64, 89
1, 256064, Note_off_c, 0, 49, 33
1, 256070, Control_c, 0, 64, 69
1, 256085, Control_c, 0, 64, 57
1, 256100, Control_c, 0, 64, 52
1, 256101, Note_off_c, 0, 56, 47
1, 256114, Control_c, 0, 64, 53
1, 256129, Control_c, 0, 64, 58
1, 256132, Note_off_c, 0, 64, 58
1, 256144, Control_c, 0, 64, 66
1, 256165, Control_c, 0, 64, 77
1, 256180, Control_c, 0, 64, 94
1, 256195, Control_c, 0, 64, 114
1, 256210, Control_c, 0, 64, 127
1, 256245, Note_on_c, 0, 56, 53
1, 256374, Note_off_c, 0, 56, 55
1, 256447, Note_off_c, 0, 52, 20
1, 256483, Note_on_c, 0, 74, 82
1, 256500, Note_on_c, 0, 54, 62
1, 256506, Note_on_c, 0, 62, 46
1, 256523, Control_c, 0, 64, 99
1, 256537, Control_c, 0, 64, 71
1, 256552, Control_c, 0, 64, 44
1, 256567, Control_c, 0, 64, 0
1, 256568, Note_off_c, 0, 76, 58
1, 256626, Control_c, 0, 64, 31
1, 256641, Control_c, 0, 64, 52
1, 256646, Note_off_c, 0, 62, 62
1, 256655, Control_c, 0, 64, 68
1, 256670, Control_c, 0, 64, 82
1, 256685, Control_c, 0, 64, 99
1, 256700, Control_c, 0, 64, 111
1, 256715, Control_c, 0, 64, 127
1, 256736, Note_on_c, 0, 57, 63
1, 256874, Note_off_c, 0, 54, 59
1, 256968, Note_on_c, 0, 78, 83
1, 256985, Note_on_c, 0, 66, 63
1, 256992, Note_on_c, 0, 54, 63
1, 257021, Note_off_c, 0, 74, 62
1, 257032, Note_off_c, 0, 66, 54
1, 257033, Control_c, 0, 67, 112
1, 257048, Control_c, 0, 67, 91
1, 257063, Control_c, 0, 67, 71
1, 257066, Note_off_c, 0, 57, 58
1, 257077, Control_c, 0, 67, 51
1, 257089, Note_off_c, 0, 78, 64
1, 257092, Control_c, 0, 67, 0
1, 257177, Note_off_c, 0, 54, 62
1, 257182, Note_on_c, 0, 57, 63
1, 257429, Note_on_c, 0, 73, 71
1, 257435, Note_off_c, 0, 57, 32
1, 257459, Note_on_c, 0, 44, 58
1, 257460, Note_on_c, 0, 52, 57
1, 257461, Note_on_c, 0, 61, 55
1, 257478, Control_c, 0, 64, 86
1, 257493, Control_c, 0, 64, 64
1, 257508, Control_c, 0, 64, 40
1, 257523, Control_c, 0, 64, 0
1, 257611, Control_c, 0, 64, 37
1, 257626, Control_c, 0, 64, 56
1, 257641, Control_c, 0, 64, 69
1, 257664, Control_c, 0, 64, 82
1, 257679, Control_c, 0, 64, 111
1, 257693, Control_c, 0, 64, 127
1, 257702, Note_on_c, 0, 56, 73
1, 257766, Note_off_c, 0, 44, 62
1, 257838, Poly_aftertouch_c, 0, 66, 127
1, 257842, Note_off_c, 0, 73, 62
1, 257849, Note_off_c, 0, 52, 58
1, 257870, Note_off_c, 0, 61, 34
1, 257984, Note_on_c, 0, 72, 81
1, 257996, Note_on_c, 0, 51, 67
1, 258000, Note_on_c, 0, 60, 61
1, 258007, Note_on_c, 0, 44, 58
1, 258034, Control_c, 0, 64, 97
1, 258049, Control_c, 0, 64, 72
1, 258064, Control_c, 0, 64, 53
1, 258079, Control_c, 0, 64, 0
1, 258110, Note_off_c, 0, 56, 53
1, 258153, Control_c, 0, 64, 39
1, 258168, Control_c, 0, 64, 57
1, 258183, Control_c, 0, 64, 68
1, 258198, Control_c, 0, 64, 81
1, 258213, Control_c, 0, 64, 99
1, 258224, Note_off_c, 0, 60, 58
1, 258227, Control_c, 0, 64, 127
1, 258259, Note_off_c, 0, 72, 61
1, 258267, Note_on_c, 0, 56, 65
1, 258302, Poly_aftertouch_c, 0, 66, 0
1, 258315, Note_off_c, 0, 44, 60
1, 258358, Note_off_c, 0, 51, 61
1, 258648, Note_on_c, 0, 74, 88
1, 258649, Control_c, 0, 67, 35
1, 258664, Control_c, 0, 67, 65
1, 258671, Note_off_c, 0, 56, 55
1, 258673, Note_on_c, 0, 50, 56
1, 258673, Note_on_c, 0, 62, 51
1, 258674, Note_on_c, 0, 42, 53
1, 258679, Control_c, 0, 67, 73
1, 258708, Control_c, 0, 64, 98
1, 258708, Control_c, 0, 67, 76
1, 258723, Control_c, 0, 64, 75
1, 258723, Control_c, 0, 67, 85
1, 258738, Control_c, 0, 64, 60
1, 258738, Control_c, 0, 67, 117
1, 258753, Control_c, 0, 64, 44
1, 258753, Control_c, 0, 67, 127
1, 258768, Control_c, 0, 64, 29
1, 258783, Control_c, 0, 64, 0
1, 258872, Control_c, 0, 64, 33
1, 258887, Control_c, 0, 64, 38
1, 258917, Control_c, 0, 64, 41
1, 258932, Control_c, 0, 64, 51
1, 258947, Control_c, 0, 64, 62
1, 258949, Note_off_c, 0, 42, 55
1, 258961, Control_c, 0, 64, 70
1, 258976, Control_c, 0, 64, 77
1, 258991, Control_c, 0, 64, 82
1, 258992, Note_on_c, 0, 57, 48
1, 259006, Control_c, 0, 64, 85
1, 259021, Control_c, 0, 64, 89
1, 259036, Control_c, 0, 64, 95
1, 259050, Control_c, 0, 64, 105
1, 259065, Control_c, 0, 64, 127
1, 259167, Note_off_c, 0, 57, 36
1, 259245, Note_on_c, 0, 54, 40
1, 259414, Note_off_c, 0, 50, 34
1, 259455, Note_on_c, 0, 57, 47
1, 259502, Note_off_c, 0, 54, 60
1, 259657, Note_on_c, 0, 54, 43
1, 259681, Note_off_c, 0, 57, 53
1, 259797, Note_off_c, 0, 74, 57
1, 259802, Note_off_c, 0, 62, 60
1, 259863, Note_on_c, 0, 57, 41
1, 260082, Note_off_c, 0, 54, 29
1, 260089, Note_off_c, 0, 57, 36
1, 260092, Note_on_c, 0, 76, 71
1, 260103, Note_on_c, 0, 50, 44
1, 260121, Note_on_c, 0, 64, 34
1, 260154, Note_off_c, 0, 64, 54
1, 260310, Note_off_c, 0, 76, 62
1, 260311, Note_on_c, 0, 78, 80
1, 260320, Note_on_c, 0, 57, 46
1, 260330, Note_on_c, 0, 66, 50
1, 260336, Note_off_c, 0, 50, 62
1, 260359, Note_off_c, 0, 66, 57
1, 260553, Note_off_c, 0, 57, 57
1, 260568, Note_on_c, 0, 80, 76
1, 260574, Note_on_c, 0, 52, 49
1, 260592, Note_on_c, 0, 68, 42
1, 260618, Note_off_c, 0, 78, 54
1, 260622, Control_c, 0, 64, 86
1, 260637, Control_c, 0, 64, 67
1, 260659, Control_c, 0, 64, 48
1, 260674, Control_c, 0, 64, 0
1, 260762, Control_c, 0, 64, 36
1, 260777, Control_c, 0, 64, 53
1, 260792, Control_c, 0, 64, 65
1, 260804, Note_on_c, 0, 56, 53
1, 260807, Control_c, 0, 64, 73
1, 260822, Control_c, 0, 64, 81
1, 260835, Note_off_c, 0, 52, 56
1, 260836, Control_c, 0, 64, 89
1, 260851, Control_c, 0, 64, 97
1, 260866, Control_c, 0, 64, 108
1, 260881, Control_c, 0, 64, 127
1, 260895, Note_off_c, 0, 68, 32
1, 260995, Note_off_c, 0, 56, 36
1, 261062, Note_on_c, 0, 81, 69
1, 261063, Note_on_c, 0, 54, 42
1, 261087, Note_off_c, 0, 80, 62
1, 261092, Note_on_c, 0, 69, 43
1, 261118, Control_c, 0, 64, 93
1, 261133, Control_c, 0, 64, 71
1, 261147, Control_c, 0, 64, 50
1, 261162, Control_c, 0, 64, 29
1, 261177, Control_c, 0, 64, 0
1, 261223, Control_c, 0, 64, 36
1, 261238, Control_c, 0, 64, 51
1, 261252, Control_c, 0, 64, 64
1, 261267, Control_c, 0, 64, 72
1, 261282, Control_c, 0, 64, 82
1, 261297, Control_c, 0, 64, 94
1, 261310, Note_off_c, 0, 54, 63
1, 261312, Control_c, 0, 64, 107
1, 261314, Note_on_c, 0, 57, 46
1, 261319, Note_off_c, 0, 81, 62
1, 261326, Control_c, 0, 64, 127
1, 261345, Note_off_c, 0, 69, 62
1, 261579, Note_on_c, 0, 73, 61
1, 261605, Note_on_c, 0, 61, 35
1, 261607, Note_on_c, 0, 44, 40
1, 261615, Control_c, 0, 64, 103
1, 261626, Note_off_c, 0, 57, 29
1, 261627, Note_on_c, 0, 52, 39
1, 261630, Control_c, 0, 64, 77
1, 261645, Control_c, 0, 64, 60
1, 261659, Control_c, 0, 64, 38
1, 261674, Control_c, 0, 64, 0
1, 261706, Note_off_c, 0, 61, 0
1, 261706, Note_on_c, 0, 61, 3
1, 261734, Control_c, 0, 64, 37
1, 261749, Control_c, 0, 64, 51
1, 261764, Control_c, 0, 64, 63
1, 261778, Control_c, 0, 64, 70
1, 261793, Control_c, 0, 64, 77
1, 261808, Control_c, 0, 64, 84
1, 261823, Control_c, 0, 64, 92
1, 261838, Control_c, 0, 64, 102
1, 261853, Control_c, 0, 64, 126
1, 261896, Note_on_c, 0, 56, 35
1, 261898, Note_off_c, 0, 44, 55
1, 261945, Note_off_c, 0, 61, 43
1, 261959, Note_off_c, 0, 52, 49
1, 262006, Note_off_c, 0, 73, 40
1, 262220, Note_on_c, 0, 72, 42
1, 262224, Note_on_c, 0, 54, 37
1, 262234, Note_off_c, 0, 56, 36
1, 262261, Note_on_c, 0, 44, 21
1, 262264, Note_on_c, 0, 60, 10
1, 262276, Control_c, 0, 64, 104
1, 262291, Control_c, 0, 64, 80
1, 262306, Control_c, 0, 64, 64
1, 262321, Control_c, 0, 64, 47
1, 262335, Control_c, 0, 64, 28
1, 262350, Control_c, 0, 64, 0
1, 262395, Control_c, 0, 64, 31
1, 262409, Control_c, 0, 64, 46
1, 262424, Control_c, 0, 64, 60
1, 262439, Control_c, 0, 64, 69
1, 262454, Control_c, 0, 64, 77
1, 262469, Control_c, 0, 64, 84
1, 262471, Note_off_c, 0, 60, 44
1, 262482, Control_c, 0, 64, 90
1, 262497, Control_c, 0, 64, 102
1, 262512, Control_c, 0, 64, 127
1, 262582, Note_off_c, 0, 54, 60
1, 262589, Note_off_c, 0, 72, 61
1, 262590, Note_off_c, 0, 44, 37
1, 262610, Note_on_c, 0, 56, 32
1, 262664, Note_off_c, 0, 56, 43
1, 262850, Note_on_c, 0, 45, 36
1, 262971, Note_on_c, 0, 52, 21
1, 263184, Note_on_c, 0, 73, 47
1, 263201, Note_on_c, 0, 57, 40
1, 263246, Control_c, 0, 64, 82
1, 263261, Control_c, 0, 64, 61
1, 263276, Control_c, 0, 64, 29
1, 263291, Control_c, 0, 64, 0
1, 263424, Note_on_c, 0, 85, 66
1, 263454, Note_off_c, 0, 73, 61
1, 263454, Note_off_c, 0, 85, 61
1, 263597, Note_on_c, 0, 81, 55
1, 263624, Note_off_c, 0, 81, 58
1, 263758, Note_on_c, 0, 76, 54
1, 263779, Note_off_c, 0, 76, 64
1, 263894, Note_on_c, 0, 73, 56
1, 263921, Note_off_c, 0, 73, 64
1, 264022, Note_on_c, 0, 69, 58
1, 264051, Note_off_c, 0, 69, 66
1, 264142, Note_off_c, 0, 57, 60
1, 264155, Note_on_c, 0, 64, 57
1, 264160, Note_on_c, 0, 49, 56
1, 264167, Note_off_c, 0, 45, 52
1, 264174, Note_off_c, 0, 52, 58
1, 264185, Note_off_c, 0, 49, 61
1, 264291, Note_off_c, 0, 64, 62
1, 264300, Note_on_c, 0, 61, 52
1, 264402, Note_off_c, 0, 61, 54
1, 264447, Note_on_c, 0, 57, 49
1, 264537, Note_off_c, 0, 57, 43
1, 264576, Note_on_c, 0, 52, 57
1, 264588, Note_on_c, 0, 61, 45
1, 264602, Note_off_c, 0, 52, 63
1, 264715, Note_off_c, 0, 61, 48
1, 264716, Note_on_c, 0, 64, 48
1, 264759, Control_c, 0, 64, 43
1, 264774, Control_c, 0, 64, 57
1, 264789, Control_c, 0, 64, 63
1, 264803, Control_c, 0, 64, 68
1, 264818, Control_c, 0, 64, 75
1, 264833, Control_c, 0, 64, 87
1, 264848, Control_c, 0, 64, 107
1, 264854, Note_off_c, 0, 64, 59
1, 264863, Control_c, 0, 64, 127
1, 264879, Note_on_c, 0, 69, 45
1, 264911, Note_off_c, 0, 69, 54
1, 265072, Note_on_c, 0, 73, 52
1, 265111, Note_on_c, 0, 45, 36
1, 265116, Note_on_c, 0, 52, 30
1, 265122, Note_on_c, 0, 57, 24
1, 265218, Note_off_c, 0, 73, 58
1, 265240, Note_on_c, 0, 85, 67
1, 265300, Note_off_c, 0, 85, 60
1, 265330, Control_c, 0, 64, 98
1, 265344, Control_c, 0, 64, 73
1, 265359, Control_c, 0, 64, 53
1, 265374, Control_c, 0, 64, 0
1, 265378, Note_on_c, 0, 81, 55
1, 265416, Note_off_c, 0, 81, 61
1, 265498, Note_on_c, 0, 76, 66
1, 265525, Note_off_c, 0, 76, 68
1, 265627, Note_on_c, 0, 73, 55
1, 265655, Note_off_c, 0, 73, 65
1, 265742, Note_on_c, 0, 69, 58
1, 265770, Note_off_c, 0, 69, 67
1, 265863, Note_on_c, 0, 49, 55
1, 265863, Note_off_c, 0, 45, 53
1, 265865, Note_off_c, 0, 57, 53
1, 265877, Note_on_c, 0, 64, 40
1, 265880, Note_off_c, 0, 52, 57
1, 265896, Note_off_c, 0, 49, 61
1, 265987, Note_off_c, 0, 64, 54
1, 266007, Note_on_c, 0, 61, 38
1, 266092, Note_off_c, 0, 61, 50
1, 266133, Note_on_c, 0, 57, 49
1, 266205, Note_off_c, 0, 57, 53
1, 266264, Note_on_c, 0, 52, 50
1, 266272, Note_on_c, 0, 61, 45
1, 266291, Note_off_c, 0, 52, 56
1, 266346, Note_off_c, 0, 61, 61
1, 266405, Note_on_c, 0, 64, 52
1, 266538, Note_off_c, 0, 64, 50
1, 266549, Note_on_c, 0, 69, 40
1, 266598, Control_c, 0, 64, 28
1, 266613, Control_c, 0, 64, 43
1, 266628, Control_c, 0, 64, 51
1, 266649, Control_c, 0, 64, 53
1, 266664, Control_c, 0, 64, 56
1, 266679, Control_c, 0, 64, 60
1, 266688, Note_off_c, 0, 69, 47
1, 266691, Note_on_c, 0, 73, 49
1, 266694, Control_c, 0, 64, 64
1, 266709, Control_c, 0, 64, 69
1, 266709, Note_on_c, 0, 45, 34
1, 266724, Control_c, 0, 64, 74
1, 266739, Control_c, 0, 64, 82
1, 266754, Control_c, 0, 64, 90
1, 266768, Control_c, 0, 64, 104
1, 266783, Control_c, 0, 64, 127
1, 266804, Note_off_c, 0, 45, 59
1, 266867, Note_on_c, 0, 69, 40
1, 267040, Note_off_c, 0, 69, 37
1, 267055, Note_on_c, 0, 64, 28
1, 267087, Note_off_c, 0, 73, 32
1, 267184, Note_on_c, 0, 76, 73
1, 267227, Note_on_c, 0, 61, 39
1, 267233, Note_on_c, 0, 52, 34
1, 267305, Note_off_c, 0, 64, 44
1, 267338, Note_on_c, 0, 69, 50
1, 267381, Note_off_c, 0, 76, 55
1, 267432, Note_off_c, 0, 61, 46
1, 267459, Note_on_c, 0, 64, 43
1, 267481, Note_off_c, 0, 69, 58
1, 267534, Note_off_c, 0, 64, 57
1, 267604, Note_on_c, 0, 77, 71
1, 267606, Note_on_c, 0, 74, 59
1, 267630, Note_on_c, 0, 59, 59
1, 267695, Control_c, 0, 64, 98
1, 267710, Control_c, 0, 64, 71
1, 267725, Control_c, 0, 64, 52
1, 267739, Control_c, 0, 64, 37
1, 267746, Note_on_c, 0, 68, 43
1, 267754, Control_c, 0, 64, 35
1, 267760, Note_off_c, 0, 59, 0
1, 267760, Note_on_c, 0, 59, 8
1, 267769, Control_c, 0, 64, 43
1, 267784, Control_c, 0, 64, 59
1, 267799, Control_c, 0, 64, 72
1, 267813, Control_c, 0, 64, 92
1, 267828, Control_c, 0, 64, 127
1, 267833, Note_off_c, 0, 59, 44
1, 267833, Note_off_c, 0, 77, 38
1, 267887, Note_on_c, 0, 65, 52
1, 267891, Note_off_c, 0, 74, 39
1, 267927, Note_off_c, 0, 68, 37
1, 267946, Note_off_c, 0, 65, 50
1, 268035, Note_on_c, 0, 76, 52
1, 268044, Note_on_c, 0, 71, 54
1, 268057, Note_on_c, 0, 62, 38
1, 268095, Control_c, 0, 64, 99
1, 268110, Control_c, 0, 64, 73
1, 268125, Control_c, 0, 64, 60
1, 268146, Control_c, 0, 64, 54
1, 268161, Control_c, 0, 64, 55
1, 268176, Control_c, 0, 64, 61
1, 268191, Control_c, 0, 64, 72
1, 268205, Note_off_c, 0, 62, 59
1, 268206, Control_c, 0, 64, 89
1, 268212, Note_on_c, 0, 68, 47
1, 268220, Control_c, 0, 64, 127
1, 268226, Note_off_c, 0, 52, 52
1, 268241, Note_off_c, 0, 71, 35
1, 268351, Note_on_c, 0, 64, 40
1, 268356, Note_off_c, 0, 68, 36
1, 268469, Note_off_c, 0, 76, 51
1, 268481, Note_on_c, 0, 73, 51
1, 268489, Control_c, 0, 64, 87
1, 268504, Control_c, 0, 64, 67
1, 268518, Control_c, 0, 64, 56
1, 268530, Note_on_c, 0, 45, 43
1, 268533, Control_c, 0, 64, 53
1, 268541, Note_off_c, 0, 64, 35
1, 268548, Control_c, 0, 64, 55
1, 268563, Control_c, 0, 64, 63
1, 268578, Control_c, 0, 64, 75
1, 268593, Control_c, 0, 64, 117
1, 268608, Control_c, 0, 64, 127
1, 268620, Note_off_c, 0, 45, 62
1, 268622, Note_on_c, 0, 69, 56
1, 268751, Note_on_c, 0, 64, 51
1, 268804, Note_off_c, 0, 69, 33
1, 268859, Control_c, 0, 67, 123
1, 268867, Note_on_c, 0, 76, 76
1, 268874, Control_c, 0, 67, 110
1, 268889, Note_on_c, 0, 61, 49
1, 268896, Control_c, 0, 67, 89
1, 268910, Note_on_c, 0, 52, 39
1, 268911, Control_c, 0, 67, 65
1, 268926, Control_c, 0, 67, 50
1, 268930, Note_off_c, 0, 64, 37
1, 268941, Control_c, 0, 67, 45
1, 268956, Control_c, 0, 67, 42
1, 268962, Note_off_c, 0, 73, 40
1, 268970, Control_c, 0, 67, 34
1, 268985, Control_c, 0, 67, 0
1, 269014, Note_on_c, 0, 69, 55
1, 269044, Note_off_c, 0, 76, 58
1, 269083, Note_off_c, 0, 61, 61
1, 269138, Note_on_c, 0, 64, 51
1, 269156, Note_off_c, 0, 69, 50
1, 269185, Note_off_c, 0, 64, 51
1, 269281, Note_on_c, 0, 77, 71
1, 269287, Note_on_c, 0, 74, 66
1, 269323, Note_on_c, 0, 59, 56
1, 269325, Control_c, 0, 67, 33
1, 269370, Control_c, 0, 64, 82
1, 269370, Control_c, 0, 67, 35
1, 269384, Control_c, 0, 64, 61
1, 269384, Control_c, 0, 67, 39
1, 269399, Control_c, 0, 64, 40
1, 269414, Control_c, 0, 64, 31
1, 269414, Control_c, 0, 67, 38
1, 269418, Note_on_c, 0, 68, 64
1, 269429, Control_c, 0, 64, 33
1, 269429, Control_c, 0, 67, 37
1, 269444, Control_c, 0, 64, 47
1, 269444, Control_c, 0, 67, 36
1, 269458, Control_c, 0, 64, 65
1, 269458, Control_c, 0, 67, 35
1, 269473, Control_c, 0, 64, 85
1, 269473, Control_c, 0, 67, 0
1, 269488, Control_c, 0, 64, 127
1, 269541, Note_off_c, 0, 77, 51
1, 269556, Note_on_c, 0, 65, 54
1, 269572, Note_off_c, 0, 74, 57
1, 269601, Note_off_c, 0, 68, 59
1, 269611, Poly_aftertouch_c, 0, 57, 127
1, 269647, Note_off_c, 0, 65, 58
1, 269687, Note_on_c, 0, 76, 72
1, 269699, Note_on_c, 0, 71, 66
1, 269711, Note_on_c, 0, 62, 56
1, 269717, Control_c, 0, 64, 82
1, 269732, Control_c, 0, 64, 68
1, 269747, Control_c, 0, 64, 62
1, 269762, Control_c, 0, 64, 64
1, 269777, Control_c, 0, 64, 76
1, 269791, Control_c, 0, 64, 127
1, 269807, Note_off_c, 0, 62, 62
1, 269828, Note_off_c, 0, 59, 64
1, 269831, Note_on_c, 0, 68, 74
1, 269844, Note_off_c, 0, 52, 62
1, 269853, Poly_aftertouch_c, 0, 57, 0
1, 269972, Note_on_c, 0, 64, 72
1, 269977, Note_off_c, 0, 71, 56
1, 269982, Note_off_c, 0, 68, 60
1, 269995, Note_off_c, 0, 64, 68
1, 270025, Note_off_c, 0, 76, 64
1, 270215, Note_on_c, 0, 73, 75
1, 270232, Note_on_c, 0, 57, 75
1, 270234, Note_on_c, 0, 45, 71
1, 270234, Note_on_c, 0, 52, 67
1, 270311, Control_c, 0, 67, 40
1, 270326, Control_c, 0, 67, 39
1, 270340, Control_c, 0, 64, 111
1, 270340, Control_c, 0, 67, 40
1, 270355, Control_c, 0, 64, 81
1, 270355, Control_c, 0, 67, 43
1, 270370, Control_c, 0, 64, 64
1, 270370, Control_c, 0, 67, 49
1, 270393, Control_c, 0, 64, 45
1, 270393, Control_c, 0, 67, 58
1, 270405, Note_on_c, 0, 85, 82
1, 270408, Control_c, 0, 64, 0
1, 270408, Control_c, 0, 67, 58
1, 270422, Control_c, 0, 67, 60
1, 270437, Control_c, 0, 67, 66
1, 270444, Note_off_c, 0, 73, 62
1, 270452, Control_c, 0, 67, 86
1, 270464, Note_off_c, 0, 85, 61
1, 270466, Control_c, 0, 67, 106
1, 270481, Control_c, 0, 67, 113
1, 270511, Control_c, 0, 67, 116
1, 270526, Control_c, 0, 67, 126
1, 270554, Note_on_c, 0, 81, 70
1, 270581, Note_on_c, 0, 82, 27
1, 270582, Note_off_c, 0, 81, 63
1, 270590, Note_off_c, 0, 82, 38
1, 270683, Note_on_c, 0, 76, 57
1, 270703, Note_off_c, 0, 76, 64
1, 270816, Note_on_c, 0, 73, 60
1, 270839, Note_off_c, 0, 73, 65
1, 270950, Note_on_c, 0, 69, 62
1, 270977, Note_off_c, 0, 69, 67
1, 271076, Note_on_c, 0, 64, 54
1, 271085, Note_on_c, 0, 49, 62
1, 271089, Note_off_c, 0, 57, 64
1, 271093, Note_off_c, 0, 45, 61
1, 271099, Note_off_c, 0, 52, 63
1, 271113, Note_off_c, 0, 49, 65
1, 271222, Note_on_c, 0, 61, 67
1, 271235, Note_off_c, 0, 64, 63
1, 271347, Note_on_c, 0, 57, 63
1, 271367, Note_off_c, 0, 61, 60
1, 271438, Note_off_c, 0, 57, 60
1, 271481, Note_on_c, 0, 61, 71
1, 271481, Note_on_c, 0, 52, 80
1, 271502, Note_off_c, 0, 52, 67
1, 271555, Note_off_c, 0, 61, 59
1, 271619, Note_on_c, 0, 64, 62
1, 271733, Note_on_c, 0, 69, 60
1, 271741, Note_off_c, 0, 64, 53
1, 271772, Note_off_c, 0, 69, 58
1, 271856, Note_on_c, 0, 73, 78
1, 271857, Note_on_c, 0, 46, 77
1, 271887, Note_off_c, 0, 46, 67
1, 271902, Note_off_c, 0, 73, 64
1, 272021, Note_on_c, 0, 67, 51
1, 272043, Note_off_c, 0, 67, 59
1, 272150, Note_on_c, 0, 64, 51
1, 272174, Note_off_c, 0, 64, 59
1, 272271, Note_on_c, 0, 76, 79
1, 272276, Note_on_c, 0, 49, 72
1, 272295, Note_off_c, 0, 76, 66
1, 272300, Note_off_c, 0, 49, 66
1, 272400, Note_on_c, 0, 70, 70
1, 272426, Note_off_c, 0, 70, 70
1, 272522, Note_on_c, 0, 67, 65
1, 272548, Note_off_c, 0, 67, 66
1, 272653, Note_on_c, 0, 43, 72
1, 272674, Note_on_c, 0, 82, 71
1, 272676, Note_off_c, 0, 43, 66
1, 272700, Note_off_c, 0, 82, 63
1, 272822, Note_on_c, 0, 76, 28
1, 272854, Note_off_c, 0, 76, 48
1, 272921, Note_on_c, 0, 73, 55
1, 272940, Note_off_c, 0, 73, 65
1, 273052, Note_on_c, 0, 51, 69
1, 273063, Note_on_c, 0, 79, 47
1, 273075, Note_off_c, 0, 51, 65
1, 273098, Note_off_c, 0, 79, 64
1, 273192, Note_on_c, 0, 75, 56
1, 273224, Note_off_c, 0, 75, 63
1, 273330, Note_on_c, 0, 73, 49
1, 273352, Note_off_c, 0, 73, 63
1, 273521, Control_c, 0, 64, 31
1, 273536, Control_c, 0, 64, 41
1, 273539, Note_on_c, 0, 44, 35
1, 273541, Note_on_c, 0, 71, 23
1, 273544, Note_on_c, 0, 56, 21
1, 273546, Note_on_c, 0, 51, 31
1, 273551, Control_c, 0, 64, 47
1, 273565, Control_c, 0, 64, 51
1, 273580, Control_c, 0, 64, 56
1, 273595, Control_c, 0, 64, 61
1, 273610, Control_c, 0, 64, 64
1, 273625, Control_c, 0, 64, 66
1, 273639, Control_c, 0, 64, 70
1, 273654, Control_c, 0, 64, 75
1, 273669, Control_c, 0, 64, 83
1, 273684, Control_c, 0, 64, 99
1, 273699, Control_c, 0, 64, 127
1, 273729, Note_on_c, 0, 83, 58
1, 273757, Note_off_c, 0, 83, 66
1, 273759, Note_off_c, 0, 71, 43
1, 273860, Note_on_c, 0, 80, 66
1, 273883, Note_off_c, 0, 80, 69
1, 273980, Note_on_c, 0, 75, 65
1, 273980, Control_c, 0, 64, 95
1, 273995, Control_c, 0, 64, 64
1, 274010, Note_off_c, 0, 75, 65
1, 274011, Control_c, 0, 64, 0
1, 274107, Note_on_c, 0, 71, 63
1, 274143, Note_off_c, 0, 71, 65
1, 274244, Note_on_c, 0, 68, 57
1, 274263, Note_off_c, 0, 68, 64
1, 274382, Note_on_c, 0, 63, 65
1, 274389, Note_on_c, 0, 47, 64
1, 274394, Note_off_c, 0, 56, 58
1, 274398, Note_off_c, 0, 51, 57
1, 274401, Note_off_c, 0, 44, 55
1, 274420, Note_off_c, 0, 47, 65
1, 274468, Note_off_c, 0, 63, 44
1, 274511, Note_on_c, 0, 59, 58
1, 274634, Note_off_c, 0, 59, 54
1, 274647, Note_on_c, 0, 56, 47
1, 274741, Note_off_c, 0, 56, 60
1, 274769, Note_on_c, 0, 51, 69
1, 274785, Note_on_c, 0, 59, 51
1, 274793, Note_off_c, 0, 51, 65
1, 274935, Note_on_c, 0, 63, 52
1, 274941, Note_off_c, 0, 59, 37
1, 275043, Note_off_c, 0, 63, 57
1, 275063, Control_c, 0, 64, 36
1, 275074, Note_on_c, 0, 68, 46
1, 275078, Control_c, 0, 64, 51
1, 275093, Control_c, 0, 64, 60
1, 275108, Control_c, 0, 64, 62
1, 275123, Control_c, 0, 64, 64
1, 275137, Control_c, 0, 64, 66
1, 275152, Control_c, 0, 64, 70
1, 275167, Control_c, 0, 64, 75
1, 275182, Control_c, 0, 64, 79
1, 275192, Note_off_c, 0, 68, 63
1, 275197, Control_c, 0, 64, 82
1, 275212, Control_c, 0, 64, 82
1, 275227, Control_c, 0, 64, 83
1, 275242, Note_on_c, 0, 56, 49
1, 275242, Control_c, 0, 64, 83
1, 275244, Note_on_c, 0, 71, 66
1, 275252, Note_on_c, 0, 44, 42
1, 275253, Note_on_c, 0, 51, 46
1, 275256, Control_c, 0, 64, 84
1, 275271, Control_c, 0, 64, 84
1, 275286, Control_c, 0, 64, 85
1, 275301, Control_c, 0, 64, 86
1, 275316, Control_c, 0, 64, 87
1, 275330, Control_c, 0, 64, 88
1, 275345, Control_c, 0, 64, 91
1, 275360, Control_c, 0, 64, 95
1, 275371, Note_off_c, 0, 71, 59
1, 275375, Control_c, 0, 64, 100
1, 275390, Control_c, 0, 64, 107
1, 275392, Note_on_c, 0, 83, 73
1, 275404, Control_c, 0, 64, 114
1, 275415, Note_off_c, 0, 83, 67
1, 275419, Control_c, 0, 64, 118
1, 275519, Note_on_c, 0, 80, 76
1, 275523, Control_c, 0, 64, 111
1, 275538, Control_c, 0, 64, 93
1, 275549, Note_off_c, 0, 80, 58
1, 275553, Control_c, 0, 64, 72
1, 275568, Control_c, 0, 64, 52
1, 275583, Control_c, 0, 64, 0
1, 275655, Note_on_c, 0, 75, 74
1, 275678, Note_off_c, 0, 75, 68
1, 275782, Note_on_c, 0, 71, 63
1, 275809, Note_off_c, 0, 71, 65
1, 275904, Note_on_c, 0, 68, 66
1, 275930, Note_off_c, 0, 68, 67
1, 276035, Note_on_c, 0, 47, 68
1, 276036, Note_off_c, 0, 51, 63
1, 276039, Note_off_c, 0, 56, 64
1, 276043, Note_on_c, 0, 63, 66
1, 276043, Note_off_c, 0, 44, 63
1, 276064, Note_off_c, 0, 47, 62
1, 276125, Note_off_c, 0, 63, 57
1, 276165, Note_on_c, 0, 59, 62
1, 276275, Note_on_c, 0, 56, 63
1, 276275, Note_off_c, 0, 59, 60
1, 276360, Note_off_c, 0, 56, 59
1, 276400, Note_on_c, 0, 51, 84
1, 276410, Note_on_c, 0, 59, 67
1, 276424, Note_off_c, 0, 51, 68
1, 276444, Control_c, 0, 64, 38
1, 276458, Control_c, 0, 64, 44
1, 276473, Control_c, 0, 64, 43
1, 276502, Control_c, 0, 64, 44
1, 276513, Note_on_c, 0, 63, 67
1, 276517, Control_c, 0, 64, 44
1, 276518, Note_off_c, 0, 59, 50
1, 276532, Control_c, 0, 64, 45
1, 276547, Control_c, 0, 64, 45
1, 276591, Control_c, 0, 64, 46
1, 276606, Control_c, 0, 64, 47
1, 276621, Control_c, 0, 64, 48
1, 276626, Note_off_c, 0, 63, 37
1, 276627, Note_on_c, 0, 68, 63
1, 276665, Control_c, 0, 64, 49
1, 276680, Control_c, 0, 64, 50
1, 276695, Control_c, 0, 64, 51
1, 276725, Control_c, 0, 64, 51
1, 276740, Control_c, 0, 64, 53
1, 276754, Control_c, 0, 64, 56
1, 276765, Note_on_c, 0, 44, 83
1, 276769, Control_c, 0, 64, 56
1, 276772, Note_on_c, 0, 71, 73
1, 276784, Control_c, 0, 64, 44
1, 276785, Note_off_c, 0, 68, 56
1, 276788, Note_off_c, 0, 44, 69
1, 276799, Control_c, 0, 64, 0
1, 276815, Note_off_c, 0, 71, 64
1, 276900, Note_on_c, 0, 68, 68
1, 276926, Note_off_c, 0, 68, 68
1, 277022, Note_on_c, 0, 63, 71
1, 277050, Note_off_c, 0, 63, 67
1, 277138, Note_on_c, 0, 47, 95
1, 277145, Note_on_c, 0, 75, 86
1, 277164, Note_off_c, 0, 47, 68
1, 277200, Note_off_c, 0, 75, 61
1, 277265, Note_on_c, 0, 71, 67
1, 277313, Note_off_c, 0, 71, 60
1, 277398, Note_on_c, 0, 68, 48
1, 277420, Note_off_c, 0, 68, 59
1, 277494, Note_on_c, 0, 41, 103
1, 277504, Note_on_c, 0, 80, 84
1, 277512, Note_off_c, 0, 41, 75
1, 277556, Note_off_c, 0, 80, 62
1, 277621, Note_on_c, 0, 74, 71
1, 277650, Note_off_c, 0, 74, 65
1, 277739, Note_on_c, 0, 71, 64
1, 277763, Note_off_c, 0, 71, 64
1, 277848, Note_on_c, 0, 42, 85
1, 277853, Note_on_c, 0, 82, 87
1, 277861, Note_on_c, 0, 78, 84
1, 277877, Note_off_c, 0, 42, 68
1, 277920, Note_off_c, 0, 78, 60
1, 277926, Note_off_c, 0, 82, 56
1, 277979, Note_on_c, 0, 76, 83
1, 278017, Note_off_c, 0, 76, 63
1, 278131, Note_on_c, 0, 73, 41
1, 278157, Note_off_c, 0, 73, 56
1, 278279, Note_on_c, 0, 42, 80
1, 278282, Note_on_c, 0, 47, 82
1, 278285, Note_on_c, 0, 35, 77
1, 278296, Control_c, 0, 64, 47
1, 278309, Note_on_c, 0, 76, 69
1, 278311, Control_c, 0, 64, 63
1, 278314, Note_on_c, 0, 77, 72
1, 278326, Control_c, 0, 64, 73
1, 278341, Control_c, 0, 64, 94
1, 278355, Control_c, 0, 64, 127
1, 278367, Note_off_c, 0, 77, 55
1, 278401, Note_off_c, 0, 76, 59
1, 278445, Control_c, 0, 67, 111
1, 278460, Control_c, 0, 67, 83
1, 278460, Note_on_c, 0, 87, 85
1, 278474, Control_c, 0, 67, 61
1, 278489, Control_c, 0, 67, 35
1, 278504, Control_c, 0, 67, 0
1, 278568, Note_off_c, 0, 87, 61
1, 278594, Note_on_c, 0, 83, 81
1, 278653, Note_off_c, 0, 83, 65
1, 278716, Note_on_c, 0, 78, 89
1, 278741, Note_off_c, 0, 78, 63
1, 278763, Control_c, 0, 64, 77
1, 278778, Control_c, 0, 64, 51
1, 278793, Control_c, 0, 64, 0
1, 278823, Control_c, 0, 67, 47
1, 278838, Control_c, 0, 67, 71
1, 278847, Note_on_c, 0, 75, 76
1, 278853, Control_c, 0, 67, 69
1, 278868, Control_c, 0, 67, 69
1, 278870, Note_off_c, 0, 75, 68
1, 278883, Control_c, 0, 67, 70
1, 278897, Control_c, 0, 67, 75
1, 278912, Control_c, 0, 67, 78
1, 278927, Control_c, 0, 67, 79
1, 278942, Control_c, 0, 67, 78
1, 278957, Control_c, 0, 67, 79
1, 278968, Note_on_c, 0, 71, 70
1, 278971, Control_c, 0, 67, 83
1, 278986, Control_c, 0, 67, 97
1, 278993, Note_off_c, 0, 71, 67
1, 279001, Control_c, 0, 67, 113
1, 279016, Control_c, 0, 67, 120
1, 279045, Control_c, 0, 67, 124
1, 279060, Control_c, 0, 67, 127
1, 279094, Note_off_c, 0, 35, 62
1, 279099, Note_on_c, 0, 39, 62
1, 279100, Note_off_c, 0, 47, 62
1, 279102, Note_off_c, 0, 42, 64
1, 279106, Note_on_c, 0, 66, 68
1, 279124, Note_off_c, 0, 39, 58
1, 279220, Note_on_c, 0, 63, 62
1, 279268, Note_off_c, 0, 66, 47
1, 279340, Note_off_c, 0, 63, 53
1, 279359, Note_on_c, 0, 59, 56
1, 279487, Note_on_c, 0, 42, 72
1, 279496, Note_on_c, 0, 63, 60
1, 279510, Note_off_c, 0, 42, 67
1, 279523, Note_off_c, 0, 59, 38
1, 279627, Note_off_c, 0, 63, 47
1, 279632, Note_on_c, 0, 66, 58
1, 279646, Control_c, 0, 64, 30
1, 279661, Control_c, 0, 64, 41
1, 279676, Control_c, 0, 64, 55
1, 279691, Control_c, 0, 64, 64
1, 279706, Control_c, 0, 64, 70
1, 279720, Control_c, 0, 64, 78
1, 279735, Control_c, 0, 64, 87
1, 279750, Control_c, 0, 64, 97
1, 279765, Control_c, 0, 64, 121
1, 279766, Note_off_c, 0, 66, 58
1, 279768, Note_on_c, 0, 71, 63
1, 279780, Control_c, 0, 64, 127
1, 279817, Note_off_c, 0, 71, 60
1, 279972, Note_on_c, 0, 75, 63
1, 279979, Note_on_c, 0, 35, 52
1, 279980, Note_on_c, 0, 47, 50
1, 279989, Note_on_c, 0, 42, 47
1, 280124, Note_on_c, 0, 87, 64
1, 280141, Note_off_c, 0, 75, 61
1, 280186, Control_c, 0, 64, 114
1, 280190, Note_off_c, 0, 87, 63
1, 280201, Control_c, 0, 64, 73
1, 280216, Control_c, 0, 64, 48
1, 280231, Control_c, 0, 64, 0
1, 280247, Note_on_c, 0, 83, 56
1, 280274, Note_off_c, 0, 83, 67
1, 280364, Note_on_c, 0, 78, 74
1, 280391, Note_off_c, 0, 78, 61
1, 280500, Note_on_c, 0, 75, 71
1, 280528, Note_off_c, 0, 75, 65
1, 280640, Note_on_c, 0, 71, 45
1, 280668, Note_off_c, 0, 71, 58
1, 280740, Note_off_c, 0, 35, 62
1, 280741, Note_off_c, 0, 47, 59
1, 280743, Note_on_c, 0, 39, 64
1, 280755, Note_off_c, 0, 42, 64
1, 280757, Note_on_c, 0, 66, 59
1, 280770, Note_off_c, 0, 39, 60
1, 280879, Note_off_c, 0, 66, 59
1, 280891, Note_on_c, 0, 63, 53
1, 281033, Note_off_c, 0, 63, 56
1, 281044, Note_on_c, 0, 59, 48
1, 281134, Note_off_c, 0, 59, 57
1, 281143, Note_on_c, 0, 42, 39
1, 281163, Note_on_c, 0, 63, 59
1, 281178, Note_off_c, 0, 42, 46
1, 281279, Note_off_c, 0, 63, 62
1, 281298, Note_on_c, 0, 66, 52
1, 281394, Note_off_c, 0, 66, 63
1, 281428, Note_on_c, 0, 71, 58
1, 281588, Control_c, 0, 64, 33
1, 281598, Note_on_c, 0, 75, 64
1, 281603, Control_c, 0, 64, 46
1, 281607, Note_off_c, 0, 71, 56
1, 281625, Control_c, 0, 64, 56
1, 281637, Note_on_c, 0, 35, 43
1, 281640, Control_c, 0, 64, 62
1, 281655, Control_c, 0, 64, 66
1, 281670, Control_c, 0, 64, 70
1, 281685, Control_c, 0, 64, 76
1, 281699, Control_c, 0, 64, 83
1, 281705, Note_off_c, 0, 35, 59
1, 281714, Control_c, 0, 64, 91
1, 281729, Control_c, 0, 64, 106
1, 281744, Control_c, 0, 64, 127
1, 281795, Note_on_c, 0, 71, 47
1, 281797, Note_off_c, 0, 75, 54
1, 281944, Note_on_c, 0, 66, 46
1, 281980, Note_off_c, 0, 71, 33
1, 282022, Note_off_c, 0, 66, 44
1, 282076, Note_on_c, 0, 78, 74
1, 282098, Note_on_c, 0, 63, 49
1, 282114, Note_on_c, 0, 54, 37
1, 282174, Control_c, 0, 67, 121
1, 282188, Control_c, 0, 67, 96
1, 282203, Control_c, 0, 67, 82
1, 282218, Control_c, 0, 67, 80
1, 282235, Note_on_c, 0, 71, 51
1, 282247, Control_c, 0, 67, 81
1, 282271, Note_off_c, 0, 78, 52
1, 282277, Control_c, 0, 67, 83
1, 282292, Control_c, 0, 67, 87
1, 282298, Note_off_c, 0, 63, 50
1, 282307, Control_c, 0, 67, 94
1, 282321, Control_c, 0, 67, 97
1, 282338, Note_on_c, 0, 66, 51
1, 282351, Control_c, 0, 67, 99
1, 282373, Control_c, 0, 67, 103
1, 282386, Note_off_c, 0, 66, 61
1, 282388, Control_c, 0, 67, 113
1, 282403, Control_c, 0, 67, 127
1, 282453, Note_off_c, 0, 71, 33
1, 282508, Note_on_c, 0, 76, 59
1, 282508, Note_on_c, 0, 79, 66
1, 282547, Note_on_c, 0, 61, 51
1, 282640, Control_c, 0, 64, 99
1, 282654, Control_c, 0, 64, 75
1, 282663, Note_on_c, 0, 70, 54
1, 282669, Control_c, 0, 64, 56
1, 282684, Control_c, 0, 64, 36
1, 282699, Control_c, 0, 64, 0
1, 282728, Control_c, 0, 64, 36
1, 282743, Control_c, 0, 64, 52
1, 282758, Control_c, 0, 64, 65
1, 282773, Control_c, 0, 64, 77
1, 282789, Control_c, 0, 64, 97
1, 282799, Note_off_c, 0, 79, 49
1, 282804, Control_c, 0, 64, 115
1, 282818, Control_c, 0, 64, 127
1, 282824, Note_on_c, 0, 67, 40
1, 282829, Note_off_c, 0, 76, 60
1, 282917, Note_off_c, 0, 70, 37
1, 282959, Note_off_c, 0, 67, 32
1, 282976, Note_on_c, 0, 78, 54
1, 282995, Note_on_c, 0, 73, 47
1, 283002, Note_on_c, 0, 64, 48
1, 283038, Note_off_c, 0, 64, 61
1, 283095, Note_off_c, 0, 61, 59
1, 283143, Note_on_c, 0, 70, 50
1, 283143, Note_off_c, 0, 54, 27
1, 283172, Note_off_c, 0, 78, 36
1, 283241, Note_off_c, 0, 73, 38
1, 283273, Note_on_c, 0, 66, 53
1, 283279, Note_off_c, 0, 70, 38
1, 283413, Note_on_c, 0, 75, 65
1, 283433, Control_c, 0, 64, 83
1, 283448, Note_on_c, 0, 47, 51
1, 283448, Control_c, 0, 64, 62
1, 283459, Note_off_c, 0, 66, 55
1, 283463, Control_c, 0, 64, 46
1, 283477, Control_c, 0, 64, 43
1, 283492, Control_c, 0, 64, 49
1, 283507, Control_c, 0, 64, 61
1, 283522, Control_c, 0, 64, 73
1, 283537, Control_c, 0, 64, 97
1, 283551, Control_c, 0, 64, 127
1, 283563, Note_on_c, 0, 71, 55
1, 283569, Note_off_c, 0, 47, 63
1, 283607, Note_off_c, 0, 75, 54
1, 283701, Note_on_c, 0, 66, 58
1, 283717, Note_off_c, 0, 71, 35
1, 283840, Note_on_c, 0, 78, 68
1, 283847, Note_on_c, 0, 75, 66
1, 283869, Note_on_c, 0, 63, 64
1, 283881, Note_on_c, 0, 54, 56
1, 283957, Note_off_c, 0, 66, 40
1, 283974, Control_c, 0, 67, 121
1, 283983, Note_on_c, 0, 71, 69
1, 283989, Control_c, 0, 67, 104
1, 284004, Control_c, 0, 67, 85
1, 284019, Control_c, 0, 67, 73
1, 284034, Control_c, 0, 67, 64
1, 284049, Control_c, 0, 67, 52
1, 284064, Control_c, 0, 67, 0
1, 284108, Note_on_c, 0, 66, 69
1, 284112, Note_off_c, 0, 75, 40
1, 284120, Note_off_c, 0, 78, 52
1, 284171, Note_off_c, 0, 71, 38
1, 284185, Note_off_c, 0, 66, 62
1, 284268, Note_on_c, 0, 76, 72
1, 284268, Note_on_c, 0, 79, 75
1, 284281, Note_on_c, 0, 61, 76
1, 284344, Control_c, 0, 64, 77
1, 284347, Note_off_c, 0, 63, 61
1, 284359, Control_c, 0, 64, 58
1, 284374, Control_c, 0, 64, 41
1, 284382, Note_on_c, 0, 70, 67
1, 284390, Control_c, 0, 64, 35
1, 284405, Control_c, 0, 64, 38
1, 284420, Control_c, 0, 64, 50
1, 284434, Control_c, 0, 64, 64
1, 284449, Control_c, 0, 64, 83
1, 284464, Control_c, 0, 64, 127
1, 284516, Note_off_c, 0, 79, 58
1, 284517, Note_on_c, 0, 67, 75
1, 284570, Note_off_c, 0, 76, 64
1, 284633, Note_off_c, 0, 70, 52
1, 284675, Note_on_c, 0, 78, 75
1, 284675, Note_off_c, 0, 67, 59
1, 284677, Note_on_c, 0, 73, 76
1, 284693, Note_on_c, 0, 64, 70
1, 284700, Note_on_c, 0, 77, 71
1, 284723, Note_off_c, 0, 64, 69
1, 284725, Note_off_c, 0, 78, 0
1, 284764, Poly_aftertouch_c, 0, 78, 127
1, 284770, Note_off_c, 0, 61, 64
1, 284783, Note_off_c, 0, 54, 63
1, 284799, Note_off_c, 0, 77, 58
1, 284809, Poly_aftertouch_c, 0, 78, 0
1, 284825, Note_on_c, 0, 70, 54
1, 284914, Note_off_c, 0, 73, 55
1, 284936, Note_on_c, 0, 66, 75
1, 284945, Note_off_c, 0, 70, 57
1, 284961, Note_off_c, 0, 66, 70
1, 285157, Note_on_c, 0, 54, 67
1, 285159, Note_on_c, 0, 47, 65
1, 285161, Note_on_c, 0, 59, 78
1, 285164, Note_on_c, 0, 75, 79
1, 285164, Note_on_c, 0, 87, 10
1, 285214, Note_off_c, 0, 87, 51
1, 285229, Control_c, 0, 67, 46
1, 285244, Control_c, 0, 67, 60
1, 285273, Control_c, 0, 67, 61
1, 285288, Control_c, 0, 67, 64
1, 285303, Control_c, 0, 67, 70
1, 285318, Control_c, 0, 67, 75
1, 285332, Control_c, 0, 67, 74
1, 285333, Note_on_c, 0, 87, 77
1, 285349, Note_off_c, 0, 75, 64
1, 285369, Control_c, 0, 67, 75
1, 285384, Control_c, 0, 67, 76
1, 285399, Control_c, 0, 64, 117
1, 285399, Control_c, 0, 67, 75
1, 285405, Note_off_c, 0, 87, 57
1, 285414, Control_c, 0, 64, 81
1, 285414, Control_c, 0, 67, 74
1, 285429, Control_c, 0, 64, 55
1, 285444, Control_c, 0, 64, 0
1, 285444, Control_c, 0, 67, 76
1, 285465, Note_on_c, 0, 83, 78
1, 285473, Control_c, 0, 67, 73
1, 285503, Control_c, 0, 67, 75
1, 285510, Note_off_c, 0, 83, 64
1, 285518, Control_c, 0, 67, 79
1, 285533, Control_c, 0, 67, 79
1, 285547, Control_c, 0, 67, 81
1, 285562, Control_c, 0, 67, 82
1, 285577, Control_c, 0, 67, 84
1, 285591, Control_c, 0, 67, 93
1, 285594, Note_on_c, 0, 78, 84
1, 285606, Control_c, 0, 67, 115
1, 285621, Control_c, 0, 67, 127
1, 285629, Note_off_c, 0, 78, 60
1, 285738, Note_on_c, 0, 75, 75
1, 285765, Note_off_c, 0, 75, 64
1, 285867, Note_on_c, 0, 71, 61
1, 285900, Note_off_c, 0, 71, 63
1, 285997, Note_on_c, 0, 66, 66
1, 286000, Note_on_c, 0, 51, 68
1, 286001, Note_off_c, 0, 47, 62
1, 286003, Note_off_c, 0, 59, 65
1, 286013, Note_off_c, 0, 54, 65
1, 286025, Note_off_c, 0, 51, 65
1, 286139, Note_on_c, 0, 63, 70
1, 286173, Note_off_c, 0, 66, 63
1, 286277, Note_on_c, 0, 59, 74
1, 286280, Note_off_c, 0, 63, 60
1, 286385, Note_off_c, 0, 59, 56
1, 286389, Note_on_c, 0, 63, 78
1, 286392, Note_on_c, 0, 54, 74
1, 286415, Note_off_c, 0, 54, 67
1, 286517, Note_off_c, 0, 63, 62
1, 286519, Note_on_c, 0, 66, 77
1, 286612, Note_off_c, 0, 66, 62
1, 286660, Note_on_c, 0, 71, 52
1, 286675, Note_on_c, 0, 69, 38
1, 286713, Note_off_c, 0, 69, 51
1, 286738, Note_off_c, 0, 71, 53
1, 286779, Note_on_c, 0, 75, 88
1, 286789, Note_on_c, 0, 48, 80
1, 286814, Note_off_c, 0, 48, 66
1, 286830, Note_off_c, 0, 75, 65
1, 286916, Note_on_c, 0, 69, 82
1, 286940, Note_off_c, 0, 69, 67
1, 287049, Note_on_c, 0, 66, 79
1, 287072, Note_off_c, 0, 66, 69
1, 287169, Note_on_c, 0, 78, 91
1, 287174, Note_on_c, 0, 51, 77
1, 287200, Note_off_c, 0, 51, 65
1, 287221, Note_off_c, 0, 78, 61
1, 287302, Note_on_c, 0, 72, 81
1, 287331, Note_off_c, 0, 72, 62
1, 287441, Note_on_c, 0, 69, 75
1, 287462, Note_off_c, 0, 69, 71
1, 287563, Note_on_c, 0, 84, 82
1, 287574, Note_on_c, 0, 45, 59
1, 287608, Note_off_c, 0, 45, 62
1, 287611, Note_off_c, 0, 84, 65
1, 287721, Note_on_c, 0, 78, 60
1, 287741, Note_off_c, 0, 78, 63
1, 287866, Note_on_c, 0, 75, 60
1, 287895, Note_off_c, 0, 75, 66
1, 287995, Note_on_c, 0, 81, 61
1, 288001, Note_on_c, 0, 53, 48
1, 288029, Note_off_c, 0, 53, 56
1, 288044, Note_off_c, 0, 81, 56
1, 288144, Note_on_c, 0, 77, 60
1, 288181, Note_off_c, 0, 77, 63
1, 288291, Note_on_c, 0, 75, 55
1, 288311, Note_off_c, 0, 75, 63
1, 288483, Control_c, 0, 64, 30
1, 288487, Note_on_c, 0, 73, 42
1, 288498, Control_c, 0, 64, 45
1, 288502, Note_on_c, 0, 58, 31
1, 288512, Note_on_c, 0, 46, 38
1, 288513, Note_on_c, 0, 53, 35
1, 288513, Control_c, 0, 64, 58
1, 288528, Control_c, 0, 64, 65
1, 288543, Control_c, 0, 64, 70
1, 288557, Control_c, 0, 64, 74
1, 288572, Control_c, 0, 64, 78
1, 288587, Control_c, 0, 64, 84
1, 288602, Control_c, 0, 64, 90
1, 288616, Control_c, 0, 64, 98
1, 288631, Control_c, 0, 64, 107
1, 288646, Control_c, 0, 64, 115
1, 288661, Control_c, 0, 64, 118
1, 288681, Note_on_c, 0, 85, 65
1, 288720, Note_off_c, 0, 85, 54
1, 288721, Note_off_c, 0, 73, 60
1, 288735, Control_c, 0, 64, 121
1, 288794, Control_c, 0, 64, 123
1, 288818, Note_on_c, 0, 82, 64
1, 288824, Control_c, 0, 64, 127
1, 288848, Note_off_c, 0, 82, 62
1, 288950, Note_on_c, 0, 77, 64
1, 288985, Note_off_c, 0, 77, 60
1, 289079, Note_on_c, 0, 73, 66
1, 289112, Note_off_c, 0, 73, 66
1, 289234, Note_on_c, 0, 70, 54
1, 289271, Note_off_c, 0, 70, 63
1, 289355, Note_on_c, 0, 65, 64
1, 289371, Note_off_c, 0, 46, 61
1, 289372, Note_on_c, 0, 49, 48
1, 289372, Note_off_c, 0, 53, 62
1, 289373, Note_off_c, 0, 58, 55
1, 289380, Control_c, 0, 64, 109
1, 289395, Control_c, 0, 64, 73
1, 289402, Note_off_c, 0, 49, 55
1, 289410, Control_c, 0, 64, 41
1, 289425, Control_c, 0, 64, 0
1, 289464, Note_off_c, 0, 65, 49
1, 289495, Note_on_c, 0, 61, 53
1, 289624, Note_on_c, 0, 58, 56
1, 289658, Note_off_c, 0, 61, 52
1, 289719, Note_off_c, 0, 58, 62
1, 289747, Note_on_c, 0, 53, 62
1, 289771, Note_on_c, 0, 61, 54
1, 289776, Note_off_c, 0, 53, 65
1, 289913, Note_on_c, 0, 65, 43
1, 289950, Note_off_c, 0, 61, 48
1, 289996, Control_c, 0, 64, 33
1, 290011, Control_c, 0, 64, 49
1, 290024, Note_off_c, 0, 65, 57
1, 290025, Control_c, 0, 64, 60
1, 290040, Control_c, 0, 64, 64
1, 290046, Note_on_c, 0, 70, 51
1, 290055, Control_c, 0, 64, 67
1, 290070, Control_c, 0, 64, 70
1, 290085, Control_c, 0, 64, 76
1, 290100, Control_c, 0, 64, 84
1, 290105, Note_off_c, 0, 70, 56
1, 290115, Control_c, 0, 64, 94
1, 290129, Control_c, 0, 64, 108
1, 290144, Control_c, 0, 64, 127
1, 290210, Note_on_c, 0, 73, 62
1, 290231, Note_on_c, 0, 58, 35
1, 290234, Note_on_c, 0, 46, 41
1, 290237, Note_on_c, 0, 53, 37
1, 290371, Note_on_c, 0, 85, 75
1, 290375, Note_off_c, 0, 73, 60
1, 290402, Note_off_c, 0, 85, 59
1, 290499, Note_on_c, 0, 82, 74
1, 290559, Note_off_c, 0, 82, 61
1, 290625, Control_c, 0, 64, 96
1, 290626, Note_on_c, 0, 77, 72
1, 290640, Control_c, 0, 64, 61
1, 290654, Control_c, 0, 64, 0
1, 290675, Note_off_c, 0, 77, 61
1, 290757, Note_on_c, 0, 73, 67
1, 290783, Note_off_c, 0, 73, 68
1, 290882, Note_on_c, 0, 70, 60
1, 290915, Note_off_c, 0, 70, 63
1, 291017, Note_on_c, 0, 49, 72
1, 291018, Note_on_c, 0, 65, 44
1, 291024, Note_off_c, 0, 53, 63
1, 291026, Note_off_c, 0, 58, 59
1, 291032, Note_off_c, 0, 46, 63
1, 291039, Note_off_c, 0, 49, 67
1, 291102, Note_off_c, 0, 65, 55
1, 291136, Note_on_c, 0, 61, 62
1, 291274, Note_on_c, 0, 58, 67
1, 291279, Note_off_c, 0, 61, 57
1, 291373, Note_off_c, 0, 58, 61
1, 291400, Note_on_c, 0, 53, 79
1, 291415, Note_on_c, 0, 61, 66
1, 291419, Note_off_c, 0, 53, 70
1, 291546, Note_on_c, 0, 65, 63
1, 291570, Note_off_c, 0, 61, 29
1, 291650, Note_off_c, 0, 65, 53
1, 291671, Note_on_c, 0, 70, 57
1, 291704, Note_off_c, 0, 70, 63
1, 291786, Note_on_c, 0, 46, 76
1, 291793, Note_on_c, 0, 73, 76
1, 291811, Note_off_c, 0, 46, 65
1, 291836, Note_off_c, 0, 73, 60
1, 291923, Note_on_c, 0, 70, 69
1, 291954, Note_off_c, 0, 70, 62
1, 291997, Control_c, 0, 67, 122
1, 292012, Control_c, 0, 67, 109
1, 292026, Control_c, 0, 67, 98
1, 292041, Control_c, 0, 67, 93
1, 292056, Control_c, 0, 67, 84
1, 292057, Note_on_c, 0, 65, 67
1, 292071, Control_c, 0, 67, 72
1, 292086, Control_c, 0, 67, 62
1, 292091, Note_off_c, 0, 65, 59
1, 292108, Control_c, 0, 67, 56
1, 292123, Control_c, 0, 67, 49
1, 292138, Control_c, 0, 67, 0
1, 292177, Note_on_c, 0, 49, 91
1, 292181, Note_on_c, 0, 77, 83
1, 292202, Note_off_c, 0, 49, 65
1, 292228, Note_off_c, 0, 77, 67
1, 292325, Note_on_c, 0, 73, 68
1, 292354, Note_off_c, 0, 73, 63
1, 292440, Note_on_c, 0, 70, 74
1, 292472, Note_off_c, 0, 70, 62
1, 292561, Note_on_c, 0, 43, 87
1, 292562, Note_on_c, 0, 82, 88
1, 292587, Note_off_c, 0, 43, 67
1, 292622, Note_off_c, 0, 82, 60
1, 292693, Note_on_c, 0, 76, 67
1, 292744, Note_off_c, 0, 76, 62
1, 292803, Note_on_c, 0, 73, 73
1, 292835, Note_off_c, 0, 73, 60
1, 292936, Note_on_c, 0, 44, 98
1, 292940, Note_on_c, 0, 84, 88
1, 292942, Note_on_c, 0, 80, 89
1, 292957, Note_off_c, 0, 44, 72
1, 292988, Note_off_c, 0, 80, 65
1, 292989, Note_off_c, 0, 84, 65
1, 293070, Note_on_c, 0, 78, 91
1, 293099, Note_off_c, 0, 78, 63
1, 293190, Note_on_c, 0, 75, 95
1, 293228, Note_off_c, 0, 75, 65
1, 293369, Note_on_c, 0, 44, 86
1, 293371, Note_on_c, 0, 49, 92
1, 293379, Note_on_c, 0, 37, 81
1, 293379, Note_on_c, 0, 77, 98
1, 293391, Control_c, 0, 64, 54
1, 293406, Control_c, 0, 64, 72
1, 293421, Control_c, 0, 64, 92
1, 293436, Control_c, 0, 64, 127
1, 293550, Note_on_c, 0, 89, 95
1, 293571, Note_off_c, 0, 77, 61
1, 293605, Note_off_c, 0, 89, 64
1, 293707, Note_on_c, 0, 85, 96
1, 293761, Note_off_c, 0, 85, 65
1, 293829, Note_on_c, 0, 80, 98
1, 293870, Note_off_c, 0, 80, 67
1, 293942, Note_on_c, 0, 77, 93
1, 293987, Note_off_c, 0, 77, 65
1, 294076, Note_on_c, 0, 73, 91
1, 294081, Control_c, 0, 67, 50
1, 294095, Control_c, 0, 67, 102
1, 294110, Control_c, 0, 67, 127
1, 294116, Note_off_c, 0, 73, 66
1, 294173, Note_off_c, 0, 49, 58
1, 294197, Note_on_c, 0, 68, 88
1, 294203, Note_off_c, 0, 37, 62
1, 294211, Note_off_c, 0, 44, 61
1, 294238, Note_off_c, 0, 68, 63
1, 294310, Note_on_c, 0, 65, 81
1, 294365, Note_off_c, 0, 65, 65
1, 294473, Note_on_c, 0, 61, 81
1, 294518, Control_c, 0, 64, 109
1, 294518, Note_off_c, 0, 61, 58
1, 294533, Control_c, 0, 64, 99
1, 294547, Control_c, 0, 64, 91
1, 294562, Control_c, 0, 64, 83
1, 294577, Control_c, 0, 64, 76
1, 294592, Control_c, 0, 64, 69
1, 294607, Control_c, 0, 64, 64
1, 294608, Note_on_c, 0, 56, 74
1, 294622, Control_c, 0, 64, 61
1, 294636, Control_c, 0, 64, 59
1, 294651, Control_c, 0, 64, 57
1, 294661, Note_off_c, 0, 56, 62
1, 294666, Control_c, 0, 64, 55
1, 294680, Control_c, 0, 64, 53
1, 294694, Control_c, 0, 64, 52
1, 294709, Control_c, 0, 64, 50
1, 294724, Control_c, 0, 64, 48
1, 294739, Control_c, 0, 64, 47
1, 294745, Note_on_c, 0, 53, 59
1, 294753, Control_c, 0, 64, 46
1, 294769, Control_c, 0, 64, 45
1, 294784, Control_c, 0, 64, 43
1, 294796, Note_off_c, 0, 53, 60
1, 294799, Control_c, 0, 64, 41
1, 294814, Control_c, 0, 64, 39
1, 294829, Control_c, 0, 64, 38
1, 294858, Control_c, 0, 64, 38
1, 294873, Control_c, 0, 64, 37
1, 294906, Note_on_c, 0, 49, 59
1, 294968, Note_off_c, 0, 49, 53
1, 294992, Control_c, 0, 64, 39
1, 295007, Control_c, 0, 64, 42
1, 295021, Control_c, 0, 64, 43
1, 295036, Control_c, 0, 64, 44
1, 295051, Control_c, 0, 64, 46
1, 295066, Control_c, 0, 64, 49
1, 295081, Control_c, 0, 64, 54
1, 295102, Control_c, 0, 64, 59
1, 295117, Control_c, 0, 64, 62
1, 295132, Control_c, 0, 64, 64
1, 295147, Control_c, 0, 64, 66
1, 295162, Control_c, 0, 64, 70
1, 295176, Control_c, 0, 64, 75
1, 295179, Note_on_c, 0, 37, 42
1, 295191, Control_c, 0, 64, 81
1, 295206, Control_c, 0, 64, 88
1, 295221, Control_c, 0, 64, 97
1, 295236, Control_c, 0, 64, 112
1, 295244, Note_off_c, 0, 37, 49
1, 295251, Control_c, 0, 64, 127
1, 295461, Note_on_c, 0, 37, 45
1, 295496, Note_off_c, 0, 37, 52
1, 295699, Note_on_c, 0, 37, 29
1, 295739, Note_off_c, 0, 37, 54
1, 295900, Note_on_c, 0, 37, 36
1, 295957, Note_off_c, 0, 37, 44
1, 296115, Note_on_c, 0, 37, 32
1, 296166, Note_off_c, 0, 37, 45
1, 296327, Note_on_c, 0, 37, 13
1, 296375, Note_off_c, 0, 37, 52
1, 296521, Note_on_c, 0, 37, 28
1, 296579, Note_off_c, 0, 37, 47
1, 296732, Note_on_c, 0, 37, 35
1, 296782, Note_off_c, 0, 37, 46
1, 296974, Note_on_c, 0, 61, 50
1, 296995, Note_on_c, 0, 56, 44
1, 297007, Note_on_c, 0, 37, 34
1, 297010, Note_on_c, 0, 53, 35
1, 297051, Note_off_c, 0, 37, 47
1, 297195, Note_off_c, 0, 56, 55
1, 297214, Note_on_c, 0, 37, 32
1, 297238, Note_off_c, 0, 53, 39
1, 297255, Note_off_c, 0, 37, 54
1, 297418, Note_on_c, 0, 37, 33
1, 297458, Note_off_c, 0, 37, 49
1, 297636, Note_on_c, 0, 37, 20
1, 297690, Note_off_c, 0, 37, 45
1, 297857, Note_on_c, 0, 65, 51
1, 297868, Note_on_c, 0, 37, 31
1, 297904, Note_off_c, 0, 37, 53
1, 297915, Note_off_c, 0, 61, 47
1, 297915, Note_off_c, 0, 65, 54
1, 298060, Note_on_c, 0, 37, 32
1, 298102, Note_off_c, 0, 37, 55
1, 298291, Note_on_c, 0, 68, 62
1, 298307, Note_on_c, 0, 37, 47
1, 298336, Control_c, 0, 64, 97
1, 298351, Control_c, 0, 64, 76
1, 298366, Control_c, 0, 64, 66
1, 298381, Control_c, 0, 64, 64
1, 298395, Control_c, 0, 64, 68
1, 298408, Note_off_c, 0, 37, 54
1, 298410, Control_c, 0, 64, 79
1, 298425, Control_c, 0, 64, 116
1, 298439, Control_c, 0, 64, 127
1, 298469, Note_off_c, 0, 68, 63
1, 298518, Note_on_c, 0, 37, 34
1, 298565, Note_off_c, 0, 37, 48
1, 298771, Note_on_c, 0, 63, 58
1, 298774, Note_on_c, 0, 58, 53
1, 298786, Note_on_c, 0, 37, 39
1, 298790, Note_on_c, 0, 54, 43
1, 298825, Control_c, 0, 64, 111
1, 298847, Control_c, 0, 64, 79
1, 298862, Control_c, 0, 64, 64
1, 298874, Note_off_c, 0, 37, 49
1, 298877, Control_c, 0, 64, 57
1, 298891, Control_c, 0, 64, 56
1, 298906, Control_c, 0, 64, 60
1, 298921, Control_c, 0, 64, 67
1, 298936, Control_c, 0, 64, 81
1, 298950, Control_c, 0, 64, 110
1, 298965, Control_c, 0, 64, 127
1, 298979, Note_on_c, 0, 37, 47
1, 299025, Note_off_c, 0, 37, 55
1, 299132, Note_off_c, 0, 54, 37
1, 299179, Note_on_c, 0, 37, 46
1, 299221, Note_off_c, 0, 37, 55
1, 299379, Note_on_c, 0, 37, 45
1, 299420, Note_off_c, 0, 37, 57
1, 299584, Note_on_c, 0, 66, 71
1, 299600, Note_on_c, 0, 37, 46
1, 299625, Note_off_c, 0, 58, 54
1, 299663, Note_off_c, 0, 37, 46
1, 299684, Note_off_c, 0, 63, 37
1, 299726, Note_off_c, 0, 66, 62
1, 299773, Note_on_c, 0, 37, 59
1, 299843, Note_off_c, 0, 37, 57
1, 299982, Note_on_c, 0, 37, 59
1, 299987, Note_on_c, 0, 70, 78
1, 300040, Control_c, 0, 64, 98
1, 300055, Control_c, 0, 64, 78
1, 300070, Control_c, 0, 64, 71
1, 300077, Note_off_c, 0, 37, 55
1, 300085, Control_c, 0, 64, 72
1, 300099, Control_c, 0, 64, 80
1, 300114, Control_c, 0, 64, 120
1, 300129, Control_c, 0, 64, 127
1, 300185, Note_on_c, 0, 37, 55
1, 300226, Note_off_c, 0, 37, 61
1, 300229, Note_off_c, 0, 70, 61
1, 300384, Note_on_c, 0, 70, 72
1, 300418, Note_on_c, 0, 37, 59
1, 300434, Control_c, 0, 64, 90
1, 300449, Control_c, 0, 64, 67
1, 300463, Control_c, 0, 64, 56
1, 300478, Control_c, 0, 64, 54
1, 300493, Control_c, 0, 64, 57
1, 300495, Note_off_c, 0, 37, 41
1, 300508, Control_c, 0, 64, 64
1, 300522, Control_c, 0, 64, 75
1, 300537, Control_c, 0, 64, 108
1, 300552, Control_c, 0, 64, 127
1, 300576, Note_on_c, 0, 37, 60
1, 300587, Note_on_c, 0, 68, 80
1, 300637, Note_off_c, 0, 37, 59
1, 300658, Note_off_c, 0, 70, 63
1, 300679, Note_off_c, 0, 68, 61
1, 300780, Note_on_c, 0, 39, 59
1, 300781, Note_on_c, 0, 68, 78
1, 300789, Note_on_c, 0, 37, 43
1, 300798, Note_on_c, 0, 60, 61
1, 300819, Control_c, 0, 64, 82
1, 300834, Control_c, 0, 64, 63
1, 300849, Control_c, 0, 64, 54
1, 300864, Control_c, 0, 64, 53
1, 300879, Control_c, 0, 64, 54
1, 300894, Control_c, 0, 64, 60
1, 300908, Control_c, 0, 64, 68
1, 300923, Control_c, 0, 64, 82
1, 300930, Note_off_c, 0, 37, 0
1, 300938, Control_c, 0, 64, 107
1, 300947, Note_on_c, 0, 37, 49
1, 300953, Control_c, 0, 64, 127
1, 300976, Note_on_c, 0, 66, 84
1, 300987, Note_off_c, 0, 39, 59
1, 301010, Note_off_c, 0, 68, 62
1, 301015, Note_off_c, 0, 37, 59
1, 301032, Note_off_c, 0, 60, 59
1, 301047, Note_off_c, 0, 66, 61
1, 301165, Note_on_c, 0, 66, 75
1, 301179, Note_on_c, 0, 44, 51
1, 301183, Control_c, 0, 64, 87
1, 301186, Note_on_c, 0, 37, 49
1, 301192, Note_on_c, 0, 60, 44
1, 301198, Control_c, 0, 64, 65
1, 301213, Control_c, 0, 64, 52
1, 301228, Control_c, 0, 64, 49
1, 301243, Control_c, 0, 64, 52
1, 301257, Control_c, 0, 64, 60
1, 301272, Control_c, 0, 64, 69
1, 301287, Control_c, 0, 64, 83
1, 301302, Control_c, 0, 64, 108
1, 301317, Control_c, 0, 64, 127
1, 301319, Note_off_c, 0, 37, 0
1, 301340, Note_on_c, 0, 37, 35
1, 301345, Note_off_c, 0, 66, 61
1, 301352, Note_on_c, 0, 65, 60
1, 301417, Note_off_c, 0, 65, 62
1, 301429, Note_off_c, 0, 60, 49
1, 301430, Note_off_c, 0, 44, 53
1, 301455, Note_off_c, 0, 37, 33
1, 301538, Control_c, 0, 64, 103
1, 301546, Note_on_c, 0, 65, 62
1, 301553, Control_c, 0, 64, 67
1, 301558, Note_on_c, 0, 60, 44
1, 301563, Note_on_c, 0, 37, 53
1, 301568, Control_c, 0, 64, 50
1, 301583, Control_c, 0, 64, 41
1, 301588, Note_on_c, 0, 45, 26
1, 301612, Control_c, 0, 64, 45
1, 301627, Control_c, 0, 64, 57
1, 301638, Note_off_c, 0, 45, 53
1, 301642, Control_c, 0, 64, 69
1, 301657, Control_c, 0, 64, 82
1, 301672, Control_c, 0, 64, 102
1, 301687, Control_c, 0, 64, 127
1, 301691, Note_off_c, 0, 37, 0
1, 301727, Note_on_c, 0, 37, 14
1, 301749, Note_on_c, 0, 64, 63
1, 301752, Note_on_c, 0, 45, 49
1, 301782, Note_off_c, 0, 65, 55
1, 301790, Note_off_c, 0, 45, 61
1, 301800, Note_off_c, 0, 64, 59
1, 301810, Note_off_c, 0, 37, 41
1, 301826, Note_off_c, 0, 60, 44
1, 301939, Note_on_c, 0, 65, 51
1, 301958, Note_on_c, 0, 37, 41
1, 301961, Note_on_c, 0, 44, 42
1, 301964, Note_on_c, 0, 61, 42
1, 301991, Control_c, 0, 64, 89
1, 302006, Control_c, 0, 64, 68
1, 302021, Control_c, 0, 64, 53
1, 302028, Note_off_c, 0, 44, 53
1, 302036, Control_c, 0, 64, 38
1, 302050, Control_c, 0, 64, 0
1, 302095, Note_on_c, 0, 43, 51
1, 302158, Note_off_c, 0, 43, 56
1, 302223, Note_on_c, 0, 44, 63
1, 302292, Note_off_c, 0, 44, 51
1, 302360, Note_on_c, 0, 45, 61
1, 302405, Note_off_c, 0, 45, 57
1, 302486, Note_on_c, 0, 44, 59
1, 302552, Note_off_c, 0, 44, 49
1, 302626, Note_on_c, 0, 43, 67
1, 302665, Note_off_c, 0, 43, 61
1, 302740, Note_on_c, 0, 44, 66
1, 302791, Note_off_c, 0, 44, 57
1, 302830, Note_off_c, 0, 37, 51
1, 302869, Note_on_c, 0, 41, 63
1, 302914, Note_off_c, 0, 41, 58
1, 303004, Note_on_c, 0, 40, 56
1, 303036, Note_off_c, 0, 40, 52
1, 303112, Note_on_c, 0, 41, 61
1, 303154, Note_off_c, 0, 41, 63
1, 303249, Note_on_c, 0, 37, 70
1, 303276, Note_off_c, 0, 65, 61
1, 303289, Note_off_c, 0, 37, 62
1, 303295, Note_off_c, 0, 61, 58
1, 303398, Note_on_c, 0, 38, 56
1, 303435, Note_off_c, 0, 38, 63
1, 303575, Note_on_c, 0, 61, 49
1, 303590, Note_on_c, 0, 56, 42
1, 303592, Control_c, 0, 64, 38
1, 303593, Note_on_c, 0, 37, 54
1, 303604, Note_on_c, 0, 53, 42
1, 303606, Control_c, 0, 64, 51
1, 303621, Control_c, 0, 64, 59
1, 303636, Control_c, 0, 64, 63
1, 303651, Control_c, 0, 64, 66
1, 303656, Note_off_c, 0, 37, 42
1, 303666, Control_c, 0, 64, 69
1, 303681, Control_c, 0, 64, 75
1, 303696, Control_c, 0, 64, 83
1, 303711, Control_c, 0, 64, 93
1, 303726, Control_c, 0, 64, 106
1, 303740, Control_c, 0, 64, 127
1, 303791, Note_off_c, 0, 53, 54
1, 303800, Note_on_c, 0, 37, 51
1, 303825, Note_off_c, 0, 56, 60
1, 303839, Note_off_c, 0, 37, 49
1, 303998, Note_on_c, 0, 37, 53
1, 304030, Note_off_c, 0, 37, 57
1, 304197, Note_on_c, 0, 37, 47
1, 304244, Note_off_c, 0, 37, 44
1, 304396, Note_on_c, 0, 65, 65
1, 304406, Note_on_c, 0, 37, 51
1, 304430, Note_off_c, 0, 61, 62
1, 304432, Note_off_c, 0, 37, 59
1, 304459, Note_off_c, 0, 65, 62
1, 304601, Note_on_c, 0, 37, 30
1, 304638, Note_off_c, 0, 37, 61
1, 304790, Note_on_c, 0, 68, 71
1, 304816, Control_c, 0, 64, 98
1, 304823, Note_on_c, 0, 37, 55
1, 304838, Control_c, 0, 64, 72
1, 304852, Control_c, 0, 64, 57
1, 304867, Control_c, 0, 64, 50
1, 304882, Control_c, 0, 64, 52
1, 304897, Control_c, 0, 64, 59
1, 304912, Control_c, 0, 64, 69
1, 304927, Note_off_c, 0, 37, 38
1, 304927, Control_c, 0, 64, 94
1, 304942, Control_c, 0, 64, 127
1, 304944, Note_off_c, 0, 68, 63
1, 305026, Note_on_c, 0, 37, 39
1, 305106, Note_off_c, 0, 37, 51
1, 305210, Note_on_c, 0, 63, 60
1, 305235, Note_on_c, 0, 57, 46
1, 305242, Note_on_c, 0, 36, 45
1, 305253, Control_c, 0, 64, 95
1, 305268, Control_c, 0, 64, 71
1, 305273, Note_on_c, 0, 54, 32
1, 305283, Control_c, 0, 64, 57
1, 305298, Control_c, 0, 64, 48
1, 305303, Note_off_c, 0, 36, 57
1, 305312, Control_c, 0, 64, 47
1, 305327, Control_c, 0, 64, 48
1, 305342, Control_c, 0, 64, 54
1, 305357, Control_c, 0, 64, 62
1, 305372, Control_c, 0, 64, 70
1, 305386, Control_c, 0, 64, 83
1, 305401, Control_c, 0, 64, 102
1, 305416, Control_c, 0, 64, 126
1, 305434, Note_on_c, 0, 36, 25
1, 305478, Note_off_c, 0, 36, 51
1, 305505, Note_off_c, 0, 54, 37
1, 305616, Note_on_c, 0, 36, 50
1, 305658, Note_off_c, 0, 36, 52
1, 305770, Note_off_c, 0, 57, 32
1, 305803, Note_on_c, 0, 36, 51
1, 305848, Note_off_c, 0, 36, 54
1, 306017, Note_on_c, 0, 36, 46
1, 306017, Note_on_c, 0, 66, 66
1, 306053, Note_off_c, 0, 36, 49
1, 306087, Note_off_c, 0, 63, 40
1, 306091, Note_off_c, 0, 66, 62
1, 306213, Note_on_c, 0, 36, 40
1, 306255, Note_off_c, 0, 36, 47
1, 306396, Note_on_c, 0, 69, 65
1, 306409, Control_c, 0, 64, 91
1, 306424, Control_c, 0, 64, 74
1, 306426, Note_on_c, 0, 36, 48
1, 306439, Control_c, 0, 64, 66
1, 306453, Control_c, 0, 64, 65
1, 306468, Note_off_c, 0, 36, 46
1, 306468, Control_c, 0, 64, 69
1, 306483, Control_c, 0, 64, 79
1, 306498, Control_c, 0, 64, 99
1, 306513, Control_c, 0, 64, 127
1, 306528, Note_off_c, 0, 69, 61
1, 306601, Note_on_c, 0, 36, 42
1, 306632, Note_off_c, 0, 36, 54
1, 306780, Control_c, 0, 64, 103
1, 306781, Note_on_c, 0, 69, 62
1, 306795, Note_on_c, 0, 35, 53
1, 306795, Control_c, 0, 64, 74
1, 306810, Control_c, 0, 64, 59
1, 306824, Control_c, 0, 64, 53
1, 306839, Control_c, 0, 64, 53
1, 306850, Note_off_c, 0, 35, 60
1, 306854, Control_c, 0, 64, 58
1, 306869, Control_c, 0, 64, 64
1, 306883, Control_c, 0, 64, 73
1, 306898, Control_c, 0, 64, 88
1, 306913, Control_c, 0, 64, 114
1, 306928, Control_c, 0, 64, 127
1, 306948, Note_on_c, 0, 35, 56
1, 306955, Note_off_c, 0, 69, 58
1, 306959, Note_on_c, 0, 68, 60
1, 306980, Note_off_c, 0, 35, 64
1, 307031, Note_off_c, 0, 68, 55
1, 307142, Note_on_c, 0, 71, 71
1, 307157, Control_c, 0, 64, 101
1, 307160, Note_on_c, 0, 42, 56
1, 307166, Note_on_c, 0, 63, 52
1, 307172, Control_c, 0, 64, 71
1, 307174, Note_on_c, 0, 35, 45
1, 307187, Control_c, 0, 64, 55
1, 307202, Control_c, 0, 64, 48
1, 307217, Control_c, 0, 64, 49
1, 307231, Control_c, 0, 64, 55
1, 307242, Note_off_c, 0, 35, 59
1, 307246, Control_c, 0, 64, 65
1, 307261, Control_c, 0, 64, 82
1, 307276, Control_c, 0, 64, 109
1, 307291, Control_c, 0, 64, 127
1, 307322, Note_on_c, 0, 69, 72
1, 307327, Note_off_c, 0, 71, 60
1, 307334, Note_on_c, 0, 35, 65
1, 307373, Note_off_c, 0, 63, 63
1, 307374, Note_off_c, 0, 69, 63
1, 307377, Note_off_c, 0, 35, 58
1, 307511, Note_on_c, 0, 69, 65
1, 307513, Control_c, 0, 64, 105
1, 307515, Note_on_c, 0, 47, 60
1, 307519, Note_on_c, 0, 63, 56
1, 307527, Note_on_c, 0, 35, 48
1, 307528, Control_c, 0, 64, 73
1, 307543, Control_c, 0, 64, 59
1, 307559, Control_c, 0, 64, 53
1, 307566, Note_off_c, 0, 42, 32
1, 307574, Control_c, 0, 64, 55
1, 307588, Control_c, 0, 64, 61
1, 307595, Note_off_c, 0, 63, 0
1, 307595, Note_on_c, 0, 63, 7
1, 307603, Control_c, 0, 64, 69
1, 307613, Note_off_c, 0, 35, 54
1, 307618, Control_c, 0, 64, 82
1, 307633, Control_c, 0, 64, 120
1, 307648, Control_c, 0, 64, 127
1, 307685, Note_off_c, 0, 69, 60
1, 307686, Note_on_c, 0, 68, 65
1, 307704, Note_on_c, 0, 35, 63
1, 307733, Note_off_c, 0, 47, 60
1, 307744, Note_off_c, 0, 35, 55
1, 307757, Note_off_c, 0, 68, 59
1, 307780, Note_off_c, 0, 63, 41
1, 307877, Control_c, 0, 64, 87
1, 307883, Note_on_c, 0, 68, 55
1, 307891, Note_on_c, 0, 48, 60
1, 307892, Control_c, 0, 64, 65
1, 307898, Note_on_c, 0, 35, 52
1, 307906, Control_c, 0, 64, 51
1, 307908, Note_on_c, 0, 63, 44
1, 307921, Control_c, 0, 64, 47
1, 307936, Control_c, 0, 64, 48
1, 307951, Note_off_c, 0, 35, 40
1, 307951, Control_c, 0, 64, 52
1, 307960, Note_off_c, 0, 48, 56
1, 307966, Control_c, 0, 64, 60
1, 307980, Control_c, 0, 64, 68
1, 307995, Control_c, 0, 64, 77
1, 308010, Control_c, 0, 64, 89
1, 308024, Control_c, 0, 64, 112
1, 308039, Note_off_c, 0, 68, 53
1, 308039, Control_c, 0, 64, 127
1, 308057, Note_on_c, 0, 35, 65
1, 308062, Note_on_c, 0, 67, 66
1, 308076, Note_on_c, 0, 48, 52
1, 308086, Note_off_c, 0, 35, 65
1, 308109, Note_off_c, 0, 48, 65
1, 308111, Note_off_c, 0, 63, 39
1, 308121, Note_off_c, 0, 67, 59
1, 308271, Note_on_c, 0, 68, 58
1, 308274, Note_on_c, 0, 47, 57
1, 308277, Note_on_c, 0, 40, 48
1, 308295, Note_on_c, 0, 64, 48
1, 308306, Control_c, 0, 64, 94
1, 308321, Control_c, 0, 64, 70
1, 308322, Note_off_c, 0, 47, 59
1, 308336, Control_c, 0, 64, 56
1, 308352, Control_c, 0, 64, 46
1, 308367, Control_c, 0, 64, 38
1, 308382, Control_c, 0, 64, 0
1, 308404, Note_on_c, 0, 46, 67
1, 308448, Note_off_c, 0, 46, 57
1, 308535, Note_on_c, 0, 47, 64
1, 308593, Note_off_c, 0, 47, 60
1, 308663, Note_on_c, 0, 48, 72
1, 308706, Note_off_c, 0, 48, 63
1, 308790, Note_on_c, 0, 47, 61
1, 308829, Note_off_c, 0, 47, 63
1, 308906, Note_on_c, 0, 46, 64
1, 308946, Note_off_c, 0, 46, 59
1, 309037, Note_on_c, 0, 47, 68
1, 309078, Note_off_c, 0, 47, 62
1, 309136, Note_off_c, 0, 40, 41
1, 309161, Note_on_c, 0, 44, 66
1, 309199, Note_off_c, 0, 44, 63
1, 309294, Note_on_c, 0, 43, 60
1, 309312, Note_off_c, 0, 64, 33
1, 309346, Note_off_c, 0, 43, 64
1, 309430, Note_on_c, 0, 44, 61
1, 309477, Note_off_c, 0, 44, 57
1, 309558, Note_on_c, 0, 40, 55
1, 309604, Note_off_c, 0, 40, 59
1, 309656, Note_off_c, 0, 68, 31
1, 309680, Note_on_c, 0, 41, 55
1, 309711, Note_off_c, 0, 41, 57
1, 309834, Note_on_c, 0, 64, 53
1, 309845, Note_on_c, 0, 40, 44
1, 309864, Note_off_c, 0, 64, 64
1, 310042, Note_on_c, 0, 64, 54
1, 310099, Note_off_c, 0, 64, 60
1, 310252, Note_on_c, 0, 64, 47
1, 310293, Note_off_c, 0, 64, 59
1, 310450, Note_on_c, 0, 64, 42
1, 310493, Note_off_c, 0, 64, 57
1, 310508, Control_c, 0, 64, 27
1, 310633, Note_on_c, 0, 44, 44
1, 310635, Note_on_c, 0, 64, 49
1, 310668, Note_off_c, 0, 44, 58
1, 310682, Note_off_c, 0, 64, 57
1, 310701, Note_off_c, 0, 40, 58
1, 310843, Note_on_c, 0, 64, 53
1, 310896, Note_off_c, 0, 64, 55
1, 311037, Note_on_c, 0, 47, 52
1, 311038, Note_on_c, 0, 64, 48
1, 311075, Note_off_c, 0, 47, 61
1, 311086, Note_off_c, 0, 64, 54
1, 311246, Note_on_c, 0, 64, 51
1, 311299, Note_off_c, 0, 64, 55
1, 311375, Control_c, 0, 64, 29
1, 311405, Control_c, 0, 64, 32
1, 311420, Control_c, 0, 64, 34
1, 311435, Control_c, 0, 64, 36
1, 311449, Control_c, 0, 64, 39
1, 311464, Note_on_c, 0, 65, 43
1, 311464, Control_c, 0, 64, 45
1, 311470, Note_on_c, 0, 64, 33
1, 311479, Control_c, 0, 64, 53
1, 311482, Note_on_c, 0, 40, 36
1, 311494, Control_c, 0, 64, 61
1, 311509, Control_c, 0, 64, 64
1, 311524, Control_c, 0, 64, 65
1, 311529, Note_off_c, 0, 65, 51
1, 311539, Control_c, 0, 64, 67
1, 311553, Note_off_c, 0, 64, 40
1, 311554, Control_c, 0, 64, 69
1, 311577, Control_c, 0, 64, 72
1, 311592, Control_c, 0, 64, 76
1, 311607, Control_c, 0, 64, 81
1, 311621, Control_c, 0, 64, 87
1, 311636, Control_c, 0, 64, 94
1, 311651, Control_c, 0, 64, 102
1, 311666, Control_c, 0, 64, 111
1, 311679, Note_on_c, 0, 65, 42
1, 311680, Control_c, 0, 64, 127
1, 311694, Note_on_c, 0, 64, 40
1, 311732, Note_off_c, 0, 65, 56
1, 311734, Note_off_c, 0, 64, 57
1, 311864, Note_on_c, 0, 65, 47
1, 311868, Note_on_c, 0, 64, 44
1, 311913, Note_off_c, 0, 64, 57
1, 311915, Note_off_c, 0, 65, 52
1, 312055, Note_on_c, 0, 65, 46
1, 312066, Note_on_c, 0, 64, 40
1, 312105, Note_off_c, 0, 64, 54
1, 312108, Note_off_c, 0, 65, 54
1, 312239, Note_on_c, 0, 65, 51
1, 312245, Note_on_c, 0, 45, 48
1, 312245, Note_on_c, 0, 64, 47
1, 312281, Note_off_c, 0, 65, 56
1, 312292, Note_off_c, 0, 64, 53
1, 312293, Note_off_c, 0, 45, 59
1, 312326, Note_off_c, 0, 40, 39
1, 312340, Control_c, 0, 64, 106
1, 312355, Control_c, 0, 64, 89
1, 312370, Control_c, 0, 64, 76
1, 312385, Control_c, 0, 64, 69
1, 312400, Control_c, 0, 64, 65
1, 312415, Control_c, 0, 64, 63
1, 312429, Control_c, 0, 64, 61
1, 312432, Note_on_c, 0, 65, 43
1, 312444, Control_c, 0, 64, 61
1, 312445, Note_on_c, 0, 64, 30
1, 312474, Control_c, 0, 64, 60
1, 312488, Note_off_c, 0, 65, 56
1, 312492, Note_off_c, 0, 64, 48
1, 312518, Control_c, 0, 64, 60
1, 312607, Control_c, 0, 64, 60
1, 312615, Note_on_c, 0, 65, 49
1, 312618, Note_on_c, 0, 48, 53
1, 312619, Note_on_c, 0, 64, 44
1, 312621, Control_c, 0, 64, 61
1, 312636, Control_c, 0, 64, 63
1, 312651, Control_c, 0, 64, 64
1, 312688, Note_off_c, 0, 64, 56
1, 312691, Note_off_c, 0, 65, 55
1, 312695, Control_c, 0, 64, 65
1, 312710, Control_c, 0, 64, 67
1, 312725, Control_c, 0, 64, 70
1, 312740, Control_c, 0, 64, 71
1, 312755, Control_c, 0, 64, 71
1, 312757, Note_off_c, 0, 48, 58
1, 312769, Control_c, 0, 64, 70
1, 312817, Note_on_c, 0, 64, 36
1, 312823, Note_on_c, 0, 65, 43
1, 312843, Control_c, 0, 64, 69
1, 312858, Control_c, 0, 64, 69
1, 312862, Note_off_c, 0, 65, 51
1, 312871, Note_off_c, 0, 64, 46
1, 312917, Control_c, 0, 64, 68
1, 312932, Control_c, 0, 64, 66
1, 312947, Control_c, 0, 64, 64
1, 312961, Control_c, 0, 64, 62
1, 312976, Control_c, 0, 64, 61
1, 312990, Note_on_c, 0, 64, 42
1, 312991, Control_c, 0, 64, 60
1, 312995, Note_on_c, 0, 65, 45
1, 313003, Note_on_c, 0, 50, 47
1, 313006, Control_c, 0, 64, 59
1, 313078, Note_off_c, 0, 64, 56
1, 313083, Note_off_c, 0, 65, 57
1, 313102, Control_c, 0, 64, 60
1, 313178, Control_c, 0, 64, 60
1, 313184, Note_on_c, 0, 48, 59
1, 313193, Control_c, 0, 64, 61
1, 313207, Note_on_c, 0, 64, 33
1, 313208, Note_on_c, 0, 65, 33
1, 313220, Note_off_c, 0, 50, 63
1, 313235, Note_off_c, 0, 48, 62
1, 313257, Note_off_c, 0, 64, 50
1, 313259, Note_off_c, 0, 65, 57
1, 313266, Control_c, 0, 64, 61
1, 313281, Control_c, 0, 64, 62
1, 313364, Note_on_c, 0, 48, 61
1, 313371, Note_on_c, 0, 64, 51
1, 313373, Note_on_c, 0, 65, 52
1, 313458, Control_c, 0, 64, 62
1, 313461, Note_off_c, 0, 64, 55
1, 313464, Note_off_c, 0, 65, 55
1, 313546, Note_on_c, 0, 47, 62
1, 313560, Note_on_c, 0, 64, 50
1, 313563, Note_on_c, 0, 65, 53
1, 313563, Note_off_c, 0, 48, 62
1, 313595, Note_off_c, 0, 47, 61
1, 313607, Control_c, 0, 64, 63
1, 313616, Note_off_c, 0, 65, 56
1, 313619, Note_off_c, 0, 64, 57
1, 313696, Control_c, 0, 64, 62
1, 313733, Note_on_c, 0, 65, 62
1, 313740, Note_on_c, 0, 47, 62
1, 313757, Note_on_c, 0, 62, 49
1, 313837, Note_off_c, 0, 65, 55
1, 313848, Note_off_c, 0, 62, 57
1, 313932, Note_on_c, 0, 45, 67
1, 313939, Note_on_c, 0, 65, 65
1, 313943, Note_on_c, 0, 62, 63
1, 313973, Note_off_c, 0, 47, 63
1, 313991, Note_off_c, 0, 65, 59
1, 314007, Note_off_c, 0, 45, 55
1, 314010, Note_off_c, 0, 62, 58
1, 314123, Note_on_c, 0, 45, 72
1, 314124, Note_on_c, 0, 66, 67
1, 314136, Note_on_c, 0, 62, 53
1, 314141, Note_on_c, 0, 60, 57
1, 314207, Note_off_c, 0, 66, 53
1, 314211, Note_off_c, 0, 60, 55
1, 314215, Note_off_c, 0, 62, 52
1, 314301, Note_on_c, 0, 43, 65
1, 314308, Note_on_c, 0, 66, 69
1, 314321, Note_on_c, 0, 62, 52
1, 314329, Note_off_c, 0, 45, 60
1, 314330, Note_on_c, 0, 60, 52
1, 314352, Note_off_c, 0, 43, 60
1, 314359, Note_off_c, 0, 62, 60
1, 314369, Note_off_c, 0, 60, 59
1, 314372, Note_off_c, 0, 66, 62
1, 314445, Control_c, 0, 64, 62
1, 314482, Note_on_c, 0, 43, 59
1, 314491, Note_on_c, 0, 67, 60
1, 314496, Note_on_c, 0, 62, 46
1, 314507, Note_on_c, 0, 59, 47
1, 314548, Note_off_c, 0, 59, 51
1, 314557, Note_off_c, 0, 62, 55
1, 314612, Note_off_c, 0, 67, 39
1, 314679, Note_on_c, 0, 41, 57
1, 314682, Note_on_c, 0, 67, 45
1, 314689, Note_on_c, 0, 62, 50
1, 314693, Note_on_c, 0, 59, 48
1, 314719, Note_off_c, 0, 41, 58
1, 314722, Note_off_c, 0, 43, 40
1, 314734, Note_off_c, 0, 62, 56
1, 314743, Note_off_c, 0, 59, 54
1, 314757, Note_off_c, 0, 67, 55
1, 314794, Control_c, 0, 64, 61
1, 314871, Note_on_c, 0, 41, 46
1, 314877, Note_on_c, 0, 62, 38
1, 314879, Note_on_c, 0, 59, 40
1, 314889, Note_on_c, 0, 67, 47
1, 314937, Note_off_c, 0, 62, 56
1, 314941, Note_off_c, 0, 67, 57
1, 314942, Note_off_c, 0, 59, 45
1, 315047, Note_on_c, 0, 40, 56
1, 315056, Note_on_c, 0, 67, 51
1, 315061, Note_on_c, 0, 62, 44
1, 315062, Note_on_c, 0, 59, 42
1, 315073, Note_off_c, 0, 41, 49
1, 315087, Note_off_c, 0, 40, 59
1, 315098, Note_off_c, 0, 62, 58
1, 315108, Note_off_c, 0, 59, 49
1, 315135, Note_off_c, 0, 67, 56
1, 315235, Note_on_c, 0, 40, 54
1, 315265, Note_on_c, 0, 67, 53
1, 315267, Note_on_c, 0, 64, 17
1, 315268, Note_on_c, 0, 60, 29
1, 315318, Note_off_c, 0, 60, 49
1, 315318, Note_off_c, 0, 64, 52
1, 315319, Note_off_c, 0, 67, 55
1, 315423, Note_on_c, 0, 38, 62
1, 315434, Note_on_c, 0, 64, 51
1, 315439, Note_on_c, 0, 60, 47
1, 315441, Note_on_c, 0, 67, 51
1, 315444, Note_off_c, 0, 40, 55
1, 315464, Note_off_c, 0, 38, 62
1, 315477, Note_off_c, 0, 64, 63
1, 315477, Note_off_c, 0, 67, 62
1, 315479, Note_off_c, 0, 60, 56
1, 315596, Note_on_c, 0, 38, 50
1, 315614, Note_on_c, 0, 67, 54
1, 315625, Note_on_c, 0, 59, 54
1, 315644, Note_on_c, 0, 65, 22
1, 315653, Note_off_c, 0, 59, 58
1, 315683, Note_off_c, 0, 65, 43
1, 315683, Note_off_c, 0, 67, 40
1, 315774, Note_on_c, 0, 36, 62
1, 315786, Note_on_c, 0, 65, 48
1, 315798, Note_off_c, 0, 38, 53
1, 315801, Note_on_c, 0, 67, 50
1, 315804, Note_off_c, 0, 36, 63
1, 315805, Note_on_c, 0, 59, 36
1, 315834, Note_off_c, 0, 65, 56
1, 315835, Note_off_c, 0, 59, 54
1, 315837, Note_off_c, 0, 67, 58
1, 315899, Control_c, 0, 64, 61
1, 315928, Control_c, 0, 64, 60
1, 315943, Control_c, 0, 64, 59
1, 315958, Control_c, 0, 64, 57
1, 315972, Control_c, 0, 64, 53
1, 315979, Note_on_c, 0, 67, 59
1, 315980, Note_on_c, 0, 48, 69
1, 315983, Note_on_c, 0, 36, 59
1, 315987, Control_c, 0, 64, 51
1, 315998, Note_on_c, 0, 64, 39
1, 316007, Note_on_c, 0, 60, 21
1, 316017, Control_c, 0, 64, 53
1, 316029, Note_off_c, 0, 64, 55
1, 316032, Control_c, 0, 64, 59
1, 316044, Note_off_c, 0, 67, 63
1, 316046, Note_off_c, 0, 60, 51
1, 316046, Control_c, 0, 64, 60
1, 316069, Control_c, 0, 64, 60
1, 316084, Control_c, 0, 64, 59
1, 316114, Control_c, 0, 64, 60
1, 316128, Control_c, 0, 64, 61
1, 316172, Control_c, 0, 64, 61
1, 316179, Note_on_c, 0, 72, 73
1, 316187, Control_c, 0, 64, 62
1, 316202, Control_c, 0, 64, 65
1, 316217, Control_c, 0, 64, 71
1, 316225, Note_off_c, 0, 72, 60
1, 316232, Control_c, 0, 64, 80
1, 316245, Note_off_c, 0, 36, 59
1, 316246, Control_c, 0, 64, 93
1, 316261, Control_c, 0, 64, 102
1, 316276, Control_c, 0, 64, 116
1, 316291, Control_c, 0, 64, 127
1, 316368, Note_on_c, 0, 72, 71
1, 316415, Note_off_c, 0, 72, 55
1, 316562, Note_on_c, 0, 72, 56
1, 316601, Note_off_c, 0, 72, 55
1, 316761, Note_on_c, 0, 52, 57
1, 316771, Note_on_c, 0, 72, 59
1, 316815, Note_off_c, 0, 52, 56
1, 316833, Note_off_c, 0, 72, 48
1, 316848, Control_c, 0, 64, 95
1, 316854, Note_off_c, 0, 48, 62
1, 316862, Control_c, 0, 64, 78
1, 316877, Control_c, 0, 64, 70
1, 316892, Control_c, 0, 64, 63
1, 316907, Control_c, 0, 64, 58
1, 316922, Control_c, 0, 64, 56
1, 316951, Control_c, 0, 64, 56
1, 316964, Note_on_c, 0, 72, 50
1, 317020, Note_off_c, 0, 72, 51
1, 317025, Control_c, 0, 64, 55
1, 317040, Control_c, 0, 64, 54
1, 317069, Control_c, 0, 64, 54
1, 317084, Control_c, 0, 64, 53
1, 317099, Control_c, 0, 64, 52
1, 317114, Control_c, 0, 64, 52
1, 317129, Control_c, 0, 64, 51
1, 317156, Note_on_c, 0, 72, 46
1, 317157, Note_on_c, 0, 55, 51
1, 317189, Control_c, 0, 64, 51
1, 317204, Control_c, 0, 64, 50
1, 317229, Note_off_c, 0, 72, 48
1, 317263, Note_off_c, 0, 55, 59
1, 317278, Control_c, 0, 64, 49
1, 317357, Note_on_c, 0, 72, 51
1, 317405, Note_off_c, 0, 72, 56
1, 317544, Control_c, 0, 64, 50
1, 317562, Note_on_c, 0, 48, 58
1, 317566, Control_c, 0, 64, 53
1, 317573, Note_on_c, 0, 73, 45
1, 317581, Control_c, 0, 64, 58
1, 317586, Note_on_c, 0, 72, 32
1, 317596, Control_c, 0, 64, 64
1, 317611, Control_c, 0, 64, 70
1, 317626, Control_c, 0, 64, 78
1, 317641, Control_c, 0, 64, 89
1, 317650, Note_off_c, 0, 73, 55
1, 317651, Note_off_c, 0, 72, 54
1, 317655, Control_c, 0, 64, 106
1, 317670, Control_c, 0, 64, 127
1, 317762, Note_on_c, 0, 73, 44
1, 317772, Note_on_c, 0, 72, 40
1, 317800, Note_off_c, 0, 73, 54
1, 317808, Note_off_c, 0, 72, 50
1, 317928, Note_on_c, 0, 73, 52
1, 317946, Note_on_c, 0, 72, 47
1, 318010, Note_off_c, 0, 72, 48
1, 318015, Note_off_c, 0, 73, 53
1, 318129, Note_on_c, 0, 73, 48
1, 318147, Note_on_c, 0, 72, 42
1, 318183, Note_off_c, 0, 73, 50
1, 318185, Note_off_c, 0, 72, 57
1, 318333, Note_on_c, 0, 53, 53
1, 318335, Note_on_c, 0, 73, 58
1, 318352, Note_on_c, 0, 72, 48
1, 318389, Control_c, 0, 64, 114
1, 318404, Control_c, 0, 64, 97
1, 318419, Control_c, 0, 64, 88
1, 318433, Control_c, 0, 64, 79
1, 318439, Note_off_c, 0, 73, 53
1, 318441, Note_off_c, 0, 72, 57
1, 318448, Control_c, 0, 64, 70
1, 318457, Note_off_c, 0, 48, 61
1, 318463, Control_c, 0, 64, 64
1, 318478, Control_c, 0, 64, 62
1, 318484, Note_off_c, 0, 53, 63
1, 318553, Note_on_c, 0, 73, 41
1, 318553, Control_c, 0, 64, 61
1, 318561, Note_on_c, 0, 72, 47
1, 318582, Control_c, 0, 64, 62
1, 318611, Note_off_c, 0, 73, 56
1, 318612, Control_c, 0, 64, 61
1, 318614, Note_off_c, 0, 72, 52
1, 318671, Control_c, 0, 64, 62
1, 318715, Control_c, 0, 64, 63
1, 318726, Note_on_c, 0, 56, 54
1, 318730, Control_c, 0, 64, 65
1, 318734, Note_on_c, 0, 73, 47
1, 318742, Note_on_c, 0, 72, 43
1, 318746, Control_c, 0, 64, 70
1, 318761, Control_c, 0, 64, 78
1, 318776, Control_c, 0, 64, 90
1, 318790, Control_c, 0, 64, 104
1, 318805, Control_c, 0, 64, 112
1, 318820, Control_c, 0, 64, 118
1, 318827, Note_off_c, 0, 56, 63
1, 318830, Note_off_c, 0, 72, 55
1, 318833, Note_off_c, 0, 73, 54
1, 318916, Note_on_c, 0, 73, 49
1, 318918, Note_on_c, 0, 72, 54
1, 318938, Control_c, 0, 64, 116
1, 318982, Control_c, 0, 64, 114
1, 318999, Note_off_c, 0, 72, 36
1, 319006, Note_off_c, 0, 73, 34
1, 319027, Control_c, 0, 64, 111
1, 319064, Control_c, 0, 64, 104
1, 319079, Control_c, 0, 64, 94
1, 319094, Control_c, 0, 64, 76
1, 319109, Control_c, 0, 64, 64
1, 319124, Control_c, 0, 64, 55
1, 319131, Note_on_c, 0, 58, 51
1, 319136, Note_on_c, 0, 73, 46
1, 319138, Control_c, 0, 64, 52
1, 319143, Note_on_c, 0, 72, 48
1, 319168, Control_c, 0, 64, 55
1, 319182, Control_c, 0, 64, 60
1, 319197, Control_c, 0, 64, 68
1, 319212, Control_c, 0, 64, 74
1, 319227, Note_off_c, 0, 72, 58
1, 319227, Control_c, 0, 64, 79
1, 319232, Note_off_c, 0, 73, 56
1, 319242, Control_c, 0, 64, 81
1, 319256, Control_c, 0, 64, 83
1, 319271, Control_c, 0, 64, 85
1, 319286, Control_c, 0, 64, 85
1, 319301, Note_off_c, 0, 58, 63
1, 319303, Note_on_c, 0, 56, 66
1, 319316, Note_on_c, 0, 73, 55
1, 319320, Note_on_c, 0, 72, 53
1, 319331, Control_c, 0, 64, 87
1, 319346, Control_c, 0, 64, 91
1, 319349, Note_off_c, 0, 56, 50
1, 319360, Control_c, 0, 64, 97
1, 319364, Note_off_c, 0, 72, 52
1, 319365, Note_off_c, 0, 73, 51
1, 319375, Control_c, 0, 64, 105
1, 319390, Control_c, 0, 64, 114
1, 319405, Control_c, 0, 64, 127
1, 319479, Control_c, 0, 64, 104
1, 319494, Control_c, 0, 64, 83
1, 319496, Note_on_c, 0, 56, 66
1, 319503, Note_on_c, 0, 72, 59
1, 319505, Note_on_c, 0, 73, 53
1, 319508, Control_c, 0, 64, 68
1, 319523, Control_c, 0, 64, 63
1, 319539, Control_c, 0, 64, 63
1, 319554, Control_c, 0, 64, 65
1, 319569, Control_c, 0, 64, 70
1, 319584, Control_c, 0, 64, 78
1, 319587, Note_off_c, 0, 73, 52
1, 319590, Note_off_c, 0, 72, 52
1, 319599, Control_c, 0, 64, 87
1, 319613, Control_c, 0, 64, 91
1, 319628, Control_c, 0, 64, 93
1, 319643, Control_c, 0, 64, 96
1, 319658, Control_c, 0, 64, 101
1, 319671, Note_on_c, 0, 55, 60
1, 319673, Control_c, 0, 64, 112
1, 319682, Note_on_c, 0, 72, 46
1, 319685, Note_on_c, 0, 73, 46
1, 319687, Control_c, 0, 64, 127
1, 319712, Note_off_c, 0, 56, 28
1, 319715, Note_off_c, 0, 72, 60
1, 319718, Note_off_c, 0, 73, 59
1, 319727, Note_off_c, 0, 55, 59
1, 319858, Control_c, 0, 64, 97
1, 319870, Note_on_c, 0, 55, 62
1, 319873, Control_c, 0, 64, 74
1, 319873, Note_on_c, 0, 73, 50
1, 319887, Control_c, 0, 64, 60
1, 319894, Note_on_c, 0, 70, 59
1, 319902, Control_c, 0, 64, 52
1, 319917, Control_c, 0, 64, 51
1, 319932, Control_c, 0, 64, 53
1, 319946, Control_c, 0, 64, 58
1, 319961, Control_c, 0, 64, 65
1, 319976, Control_c, 0, 64, 71
1, 319981, Note_off_c, 0, 70, 54
1, 319987, Note_off_c, 0, 73, 59
1, 319991, Control_c, 0, 64, 78
1, 320006, Control_c, 0, 64, 83
1, 320020, Control_c, 0, 64, 87
1, 320035, Control_c, 0, 64, 93
1, 320050, Control_c, 0, 64, 100
1, 320055, Note_on_c, 0, 73, 64
1, 320057, Note_on_c, 0, 53, 68
1, 320065, Control_c, 0, 64, 110
1, 320069, Note_off_c, 0, 55, 57
1, 320070, Note_on_c, 0, 70, 61
1, 320079, Control_c, 0, 64, 127
1, 320104, Note_off_c, 0, 53, 59
1, 320131, Note_off_c, 0, 70, 64
1, 320132, Note_off_c, 0, 73, 61
1, 320227, Control_c, 0, 64, 99
1, 320242, Control_c, 0, 64, 78
1, 320252, Note_on_c, 0, 53, 59
1, 320255, Note_on_c, 0, 74, 61
1, 320257, Control_c, 0, 64, 65
1, 320262, Note_on_c, 0, 70, 56
1, 320272, Control_c, 0, 64, 59
1, 320273, Note_on_c, 0, 68, 53
1, 320286, Control_c, 0, 64, 58
1, 320301, Control_c, 0, 64, 59
1, 320316, Control_c, 0, 64, 61
1, 320319, Note_off_c, 0, 68, 48
1, 320332, Control_c, 0, 64, 65
1, 320347, Control_c, 0, 64, 70
1, 320356, Note_off_c, 0, 70, 49
1, 320362, Control_c, 0, 64, 76
1, 320365, Note_off_c, 0, 74, 64
1, 320376, Control_c, 0, 64, 79
1, 320391, Control_c, 0, 64, 82
1, 320406, Control_c, 0, 64, 87
1, 320421, Control_c, 0, 64, 95
1, 320434, Note_on_c, 0, 51, 63
1, 320435, Control_c, 0, 64, 103
1, 320443, Note_on_c, 0, 74, 66
1, 320449, Note_off_c, 0, 53, 61
1, 320450, Control_c, 0, 64, 114
1, 320455, Note_on_c, 0, 70, 58
1, 320463, Note_on_c, 0, 68, 48
1, 320465, Control_c, 0, 64, 127
1, 320472, Note_off_c, 0, 51, 62
1, 320505, Note_off_c, 0, 68, 57
1, 320508, Note_off_c, 0, 70, 60
1, 320523, Note_off_c, 0, 74, 63
1, 320621, Control_c, 0, 64, 114
1, 320635, Control_c, 0, 64, 78
1, 320648, Note_on_c, 0, 51, 76
1, 320650, Control_c, 0, 64, 63
1, 320652, Note_on_c, 0, 70, 60
1, 320660, Note_on_c, 0, 75, 61
1, 320665, Control_c, 0, 64, 53
1, 320667, Note_on_c, 0, 67, 59
1, 320680, Control_c, 0, 64, 52
1, 320695, Control_c, 0, 64, 52
1, 320709, Control_c, 0, 64, 56
1, 320724, Control_c, 0, 64, 62
1, 320739, Control_c, 0, 64, 66
1, 320748, Note_off_c, 0, 67, 54
1, 320753, Note_off_c, 0, 70, 61
1, 320754, Control_c, 0, 64, 70
1, 320757, Note_off_c, 0, 75, 62
1, 320768, Control_c, 0, 64, 73
1, 320783, Control_c, 0, 64, 78
1, 320798, Control_c, 0, 64, 84
1, 320813, Control_c, 0, 64, 90
1, 320828, Control_c, 0, 64, 96
1, 320829, Note_on_c, 0, 49, 68
1, 320836, Note_on_c, 0, 75, 62
1, 320839, Note_on_c, 0, 70, 58
1, 320842, Control_c, 0, 64, 105
1, 320845, Note_off_c, 0, 51, 58
1, 320851, Note_on_c, 0, 67, 54
1, 320857, Control_c, 0, 64, 126
1, 320864, Note_off_c, 0, 49, 62
1, 320887, Note_off_c, 0, 67, 60
1, 320920, Note_off_c, 0, 70, 54
1, 320931, Note_off_c, 0, 75, 62
1, 321006, Control_c, 0, 64, 108
1, 321019, Note_on_c, 0, 75, 63
1, 321021, Control_c, 0, 64, 79
1, 321025, Note_on_c, 0, 49, 74
1, 321027, Note_on_c, 0, 71, 61
1, 321035, Control_c, 0, 64, 62
1, 321047, Note_on_c, 0, 68, 46
1, 321050, Control_c, 0, 64, 56
1, 321065, Control_c, 0, 64, 55
1, 321080, Control_c, 0, 64, 57
1, 321095, Control_c, 0, 64, 62
1, 321104, Note_off_c, 0, 68, 54
1, 321109, Control_c, 0, 64, 67
1, 321125, Note_off_c, 0, 71, 54
1, 321125, Control_c, 0, 64, 73
1, 321128, Note_off_c, 0, 75, 62
1, 321140, Control_c, 0, 64, 79
1, 321155, Control_c, 0, 64, 82
1, 321170, Control_c, 0, 64, 88
1, 321184, Control_c, 0, 64, 97
1, 321199, Control_c, 0, 64, 111
1, 321207, Note_on_c, 0, 47, 69
1, 321211, Note_off_c, 0, 49, 54
1, 321214, Control_c, 0, 64, 127
1, 321218, Note_on_c, 0, 75, 65
1, 321222, Note_on_c, 0, 71, 67
1, 321229, Note_on_c, 0, 68, 53
1, 321269, Note_off_c, 0, 68, 53
1, 321270, Note_off_c, 0, 47, 62
1, 321306, Note_off_c, 0, 75, 59
1, 321313, Note_off_c, 0, 71, 56
1, 321395, Note_on_c, 0, 47, 76
1, 321399, Control_c, 0, 64, 98
1, 321414, Control_c, 0, 64, 72
1, 321415, Note_on_c, 0, 75, 66
1, 321418, Note_on_c, 0, 73, 64
1, 321424, Note_on_c, 0, 67, 67
1, 321429, Control_c, 0, 64, 53
1, 321441, Note_on_c, 0, 71, 43
1, 321444, Control_c, 0, 64, 0
1, 321473, Control_c, 0, 64, 28
1, 321474, Note_off_c, 0, 71, 50
1, 321488, Control_c, 0, 64, 46
1, 321503, Control_c, 0, 64, 64
1, 321506, Note_off_c, 0, 67, 62
1, 321512, Note_off_c, 0, 73, 61
1, 321518, Control_c, 0, 64, 84
1, 321519, Note_off_c, 0, 75, 61
1, 321532, Control_c, 0, 64, 127
1, 321560, Note_off_c, 0, 47, 54
1, 321578, Note_on_c, 0, 46, 74
1, 321594, Note_on_c, 0, 73, 63
1, 321596, Note_on_c, 0, 67, 73
1, 321599, Note_on_c, 0, 75, 53
1, 321647, Note_off_c, 0, 67, 63
1, 321659, Note_off_c, 0, 75, 60
1, 321667, Note_off_c, 0, 73, 61
1, 321701, Note_off_c, 0, 46, 58
1, 321724, Control_c, 0, 64, 94
1, 321739, Control_c, 0, 64, 64
1, 321754, Control_c, 0, 64, 50
1, 321763, Note_on_c, 0, 44, 78
1, 321769, Control_c, 0, 64, 49
1, 321776, Note_on_c, 0, 75, 70
1, 321782, Note_on_c, 0, 71, 52
1, 321784, Control_c, 0, 64, 55
1, 321787, Note_on_c, 0, 68, 55
1, 321799, Note_off_c, 0, 44, 63
1, 321799, Control_c, 0, 64, 65
1, 321799, Note_on_c, 0, 73, 46
1, 321814, Control_c, 0, 64, 87
1, 321829, Control_c, 0, 64, 127
1, 321832, Note_off_c, 0, 73, 52
1, 321847, Note_off_c, 0, 68, 57
1, 321870, Note_off_c, 0, 75, 61
1, 321880, Note_off_c, 0, 71, 50
1, 321952, Note_on_c, 0, 59, 72
1, 321963, Note_on_c, 0, 68, 64
1, 321967, Note_on_c, 0, 75, 51
1, 321976, Note_on_c, 0, 71, 41
1, 321978, Note_off_c, 0, 59, 67
1, 322008, Note_off_c, 0, 75, 58
1, 322013, Note_off_c, 0, 68, 52
1, 322019, Note_off_c, 0, 71, 48
1, 322191, Note_on_c, 0, 61, 76
1, 322192, Control_c, 0, 64, 97
1, 322202, Note_on_c, 0, 75, 62
1, 322204, Note_on_c, 0, 76, 62
1, 322207, Control_c, 0, 64, 69
1, 322222, Control_c, 0, 64, 53
1, 322237, Control_c, 0, 64, 45
1, 322252, Control_c, 0, 64, 47
1, 322267, Control_c, 0, 64, 55
1, 322281, Control_c, 0, 64, 65
1, 322296, Control_c, 0, 64, 80
1, 322311, Control_c, 0, 64, 123
1, 322326, Control_c, 0, 64, 127
1, 322341, Note_on_c, 0, 64, 69
1, 322380, Note_off_c, 0, 64, 60
1, 322380, Note_off_c, 0, 75, 45
1, 322398, Note_off_c, 0, 61, 59
1, 322416, Note_off_c, 0, 76, 35
1, 322428, Note_on_c, 0, 59, 70
1, 322481, Note_on_c, 0, 75, 70
1, 322493, Note_on_c, 0, 76, 57
1, 322511, Note_off_c, 0, 59, 62
1, 322529, Note_off_c, 0, 76, 60
1, 322534, Note_off_c, 0, 75, 62
1, 322618, Note_on_c, 0, 59, 78
1, 322621, Note_on_c, 0, 76, 65
1, 322626, Note_on_c, 0, 75, 74
1, 322637, Control_c, 0, 64, 110
1, 322651, Control_c, 0, 64, 75
1, 322666, Control_c, 0, 64, 58
1, 322681, Control_c, 0, 64, 54
1, 322696, Control_c, 0, 64, 57
1, 322711, Control_c, 0, 64, 64
1, 322726, Control_c, 0, 64, 77
1, 322741, Control_c, 0, 64, 127
1, 322753, Note_off_c, 0, 76, 0
1, 322762, Note_on_c, 0, 64, 68
1, 322786, Control_c, 0, 67, 121
1, 322790, Poly_aftertouch_c, 0, 76, 127
1, 322792, Note_on_c, 0, 58, 77
1, 322805, Note_off_c, 0, 64, 61
1, 322808, Control_c, 0, 67, 111
1, 322816, Note_off_c, 0, 59, 62
1, 322817, Note_off_c, 0, 75, 57
1, 322823, Control_c, 0, 67, 105
1, 322837, Control_c, 0, 67, 101
1, 322848, Poly_aftertouch_c, 0, 76, 0
1, 322850, Note_off_c, 0, 58, 60
1, 322852, Control_c, 0, 67, 96
1, 322867, Control_c, 0, 67, 90
1, 322882, Control_c, 0, 67, 88
1, 322906, Note_on_c, 0, 75, 70
1, 322911, Control_c, 0, 67, 87
1, 322914, Note_on_c, 0, 76, 67
1, 322926, Control_c, 0, 67, 86
1, 322941, Control_c, 0, 67, 86
1, 322958, Note_off_c, 0, 75, 62
1, 322966, Note_off_c, 0, 76, 64
1, 323028, Note_on_c, 0, 58, 74
1, 323042, Note_on_c, 0, 76, 55
1, 323045, Control_c, 0, 67, 86
1, 323055, Note_on_c, 0, 73, 67
1, 323060, Control_c, 0, 64, 94
1, 323075, Control_c, 0, 64, 68
1, 323090, Control_c, 0, 64, 59
1, 323104, Control_c, 0, 64, 57
1, 323104, Control_c, 0, 67, 88
1, 323119, Control_c, 0, 64, 61
1, 323119, Control_c, 0, 67, 88
1, 323134, Control_c, 0, 64, 69
1, 323147, Control_c, 0, 64, 87
1, 323147, Control_c, 0, 67, 87
1, 323162, Control_c, 0, 64, 127
1, 323162, Control_c, 0, 67, 86
1, 323182, Note_on_c, 0, 64, 71
1, 323192, Control_c, 0, 67, 85
1, 323207, Control_c, 0, 67, 83
1, 323222, Control_c, 0, 67, 79
1, 323226, Note_on_c, 0, 56, 73
1, 323236, Control_c, 0, 67, 71
1, 323240, Note_off_c, 0, 76, 62
1, 323247, Note_off_c, 0, 64, 62
1, 323251, Control_c, 0, 67, 56
1, 323255, Note_off_c, 0, 73, 35
1, 323266, Control_c, 0, 67, 50
1, 323269, Note_off_c, 0, 58, 63
1, 323281, Control_c, 0, 67, 45
1, 323292, Note_off_c, 0, 56, 62
1, 323296, Control_c, 0, 67, 35
1, 323310, Control_c, 0, 67, 0
1, 323328, Note_on_c, 0, 73, 73
1, 323328, Note_on_c, 0, 76, 69
1, 323381, Note_off_c, 0, 73, 62
1, 323388, Note_off_c, 0, 76, 61
1, 323465, Note_on_c, 0, 56, 74
1, 323468, Note_on_c, 0, 77, 77
1, 323473, Control_c, 0, 64, 85
1, 323480, Note_on_c, 0, 71, 70
1, 323480, Note_on_c, 0, 73, 66
1, 323488, Control_c, 0, 64, 64
1, 323503, Control_c, 0, 64, 51
1, 323518, Control_c, 0, 64, 50
1, 323534, Control_c, 0, 64, 54
1, 323556, Control_c, 0, 64, 62
1, 323571, Control_c, 0, 64, 73
1, 323585, Control_c, 0, 64, 111
1, 323600, Control_c, 0, 64, 127
1, 323620, Note_on_c, 0, 65, 68
1, 323662, Note_on_c, 0, 54, 75
1, 323677, Note_off_c, 0, 73, 56
1, 323688, Note_off_c, 0, 71, 30
1, 323689, Note_off_c, 0, 65, 60
1, 323692, Note_off_c, 0, 77, 62
1, 323696, Note_off_c, 0, 56, 60
1, 323733, Note_off_c, 0, 54, 63
1, 323754, Note_on_c, 0, 77, 66
1, 323760, Note_on_c, 0, 73, 71
1, 323769, Note_on_c, 0, 71, 60
1, 323794, Note_off_c, 0, 71, 63
1, 323803, Note_off_c, 0, 77, 63
1, 323814, Note_off_c, 0, 73, 62
1, 323906, Note_on_c, 0, 78, 75
1, 323910, Note_on_c, 0, 54, 75
1, 323920, Note_on_c, 0, 70, 75
1, 323924, Note_on_c, 0, 73, 72
1, 323927, Control_c, 0, 64, 91
1, 323942, Control_c, 0, 64, 66
1, 323957, Control_c, 0, 64, 53
1, 323971, Control_c, 0, 64, 51
1, 323986, Control_c, 0, 64, 55
1, 324001, Control_c, 0, 64, 65
1, 324016, Control_c, 0, 64, 83
1, 324031, Control_c, 0, 64, 127
1, 324043, Note_on_c, 0, 66, 76
1, 324072, Note_off_c, 0, 70, 39
1, 324091, Note_off_c, 0, 73, 25
1, 324116, Note_off_c, 0, 78, 60
1, 324118, Note_on_c, 0, 52, 75
1, 324122, Note_off_c, 0, 66, 63
1, 324127, Note_off_c, 0, 54, 62
1, 324188, Note_on_c, 0, 70, 69
1, 324189, Note_on_c, 0, 73, 70
1, 324191, Note_off_c, 0, 52, 61
1, 324193, Note_on_c, 0, 78, 60
1, 324249, Note_off_c, 0, 70, 61
1, 324260, Note_off_c, 0, 73, 60
1, 324264, Note_off_c, 0, 78, 55
1, 324334, Note_on_c, 0, 52, 79
1, 324339, Note_on_c, 0, 74, 78
1, 324344, Note_on_c, 0, 71, 73
1, 324348, Note_on_c, 0, 78, 45
1, 324351, Control_c, 0, 64, 118
1, 324365, Control_c, 0, 64, 80
1, 324380, Control_c, 0, 64, 66
1, 324395, Control_c, 0, 64, 63
1, 324409, Control_c, 0, 64, 68
1, 324424, Control_c, 0, 64, 86
1, 324428, Note_off_c, 0, 78, 54
1, 324439, Control_c, 0, 64, 127
1, 324459, Note_on_c, 0, 66, 73
1, 324493, Note_off_c, 0, 71, 52
1, 324515, Note_on_c, 0, 50, 81
1, 324521, Note_off_c, 0, 74, 32
1, 324526, Note_off_c, 0, 52, 56
1, 324565, Note_off_c, 0, 66, 54
1, 324592, Note_off_c, 0, 50, 63
1, 324595, Note_on_c, 0, 74, 66
1, 324598, Note_on_c, 0, 71, 75
1, 324611, Note_on_c, 0, 78, 65
1, 324653, Note_off_c, 0, 74, 64
1, 324655, Note_off_c, 0, 71, 60
1, 324663, Note_off_c, 0, 78, 60
1, 324731, Note_on_c, 0, 50, 81
1, 324735, Control_c, 0, 64, 77
1, 324737, Note_on_c, 0, 78, 72
1, 324750, Control_c, 0, 64, 53
1, 324754, Note_on_c, 0, 70, 63
1, 324765, Control_c, 0, 64, 0
1, 324768, Note_on_c, 0, 76, 63
1, 324794, Control_c, 0, 64, 34
1, 324809, Control_c, 0, 64, 60
1, 324824, Control_c, 0, 64, 83
1, 324834, Note_off_c, 0, 70, 64
1, 324839, Control_c, 0, 64, 127
1, 324869, Note_off_c, 0, 76, 0
1, 324873, Note_on_c, 0, 66, 84
1, 324884, Note_off_c, 0, 50, 58
1, 324887, Note_on_c, 0, 76, 43
1, 324887, Note_off_c, 0, 78, 0
1, 324919, Note_on_c, 0, 49, 74
1, 324924, Poly_aftertouch_c, 0, 78, 127
1, 324934, Note_off_c, 0, 76, 55
1, 324939, Note_off_c, 0, 66, 59
1, 324962, Poly_aftertouch_c, 0, 78, 0
1, 325013, Note_on_c, 0, 78, 74
1, 325014, Note_on_c, 0, 70, 75
1, 325015, Note_on_c, 0, 76, 76
1, 325076, Note_off_c, 0, 70, 62
1, 325083, Control_c, 0, 64, 95
1, 325086, Note_off_c, 0, 76, 62
1, 325094, Note_off_c, 0, 78, 60
1, 325098, Control_c, 0, 64, 61
1, 325104, Note_off_c, 0, 49, 62
1, 325113, Control_c, 0, 64, 0
1, 325150, Note_on_c, 0, 47, 84
1, 325152, Note_on_c, 0, 78, 65
1, 325156, Note_on_c, 0, 74, 74
1, 325158, Control_c, 0, 64, 41
1, 325158, Note_on_c, 0, 71, 76
1, 325173, Control_c, 0, 64, 66
1, 325188, Control_c, 0, 64, 107
1, 325193, Note_on_c, 0, 76, 26
1, 325198, Note_off_c, 0, 47, 64
1, 325203, Control_c, 0, 64, 127
1, 325229, Note_off_c, 0, 76, 55
1, 325245, Note_off_c, 0, 78, 54
1, 325257, Note_off_c, 0, 74, 54
1, 325283, Note_on_c, 0, 66, 84
1, 325294, Note_off_c, 0, 71, 59
1, 325325, Note_on_c, 0, 78, 24
1, 325344, Note_on_c, 0, 50, 68
1, 325350, Note_on_c, 0, 62, 62
1, 325362, Note_off_c, 0, 78, 52
1, 325373, Note_off_c, 0, 66, 58
1, 325421, Note_off_c, 0, 50, 53
1, 325424, Note_on_c, 0, 71, 78
1, 325426, Note_on_c, 0, 78, 85
1, 325431, Note_on_c, 0, 74, 76
1, 325433, Note_off_c, 0, 62, 60
1, 325480, Note_off_c, 0, 71, 61
1, 325483, Note_off_c, 0, 74, 60
1, 325518, Note_off_c, 0, 78, 58
1, 325577, Note_on_c, 0, 64, 89
1, 325586, Note_on_c, 0, 52, 77
1, 325594, Note_on_c, 0, 78, 79
1, 325594, Note_on_c, 0, 79, 78
1, 325617, Control_c, 0, 64, 75
1, 325632, Control_c, 0, 64, 47
1, 325647, Control_c, 0, 64, 0
1, 325662, Control_c, 0, 64, 32
1, 325677, Control_c, 0, 64, 48
1, 325692, Control_c, 0, 64, 66
1, 325706, Control_c, 0, 64, 94
1, 325721, Control_c, 0, 64, 127
1, 325735, Note_off_c, 0, 64, 62
1, 325744, Note_on_c, 0, 67, 82
1, 325804, Note_off_c, 0, 79, 59
1, 325809, Note_off_c, 0, 78, 58
1, 325814, Note_off_c, 0, 67, 62
1, 325841, Note_on_c, 0, 62, 92
1, 325844, Note_on_c, 0, 50, 87
1, 325878, Note_off_c, 0, 52, 58
1, 325932, Note_on_c, 0, 78, 80
1, 325938, Note_on_c, 0, 79, 76
1, 325981, Note_off_c, 0, 50, 61
1, 325987, Note_off_c, 0, 62, 58
1, 326014, Note_off_c, 0, 78, 59
1, 326014, Note_off_c, 0, 79, 60
1, 326070, Control_c, 0, 64, 79
1, 326071, Note_on_c, 0, 62, 94
1, 326073, Note_on_c, 0, 50, 84
1, 326085, Control_c, 0, 64, 57
1, 326085, Note_on_c, 0, 78, 82
1, 326088, Note_on_c, 0, 79, 77
1, 326100, Control_c, 0, 64, 39
1, 326115, Control_c, 0, 64, 41
1, 326129, Control_c, 0, 64, 53
1, 326144, Control_c, 0, 64, 73
1, 326159, Control_c, 0, 64, 127
1, 326194, Note_off_c, 0, 62, 63
1, 326224, Note_on_c, 0, 67, 82
1, 326273, Note_off_c, 0, 79, 59
1, 326276, Note_off_c, 0, 50, 61
1, 326287, Note_off_c, 0, 78, 54
1, 326289, Note_on_c, 0, 61, 94
1, 326290, Note_off_c, 0, 67, 60
1, 326295, Note_on_c, 0, 49, 81
1, 326355, Note_off_c, 0, 61, 61
1, 326382, Note_on_c, 0, 78, 87
1, 326389, Note_on_c, 0, 79, 76
1, 326397, Note_off_c, 0, 49, 63
1, 326452, Note_off_c, 0, 79, 62
1, 326460, Note_off_c, 0, 78, 58
1, 326501, Note_on_c, 0, 61, 90
1, 326509, Note_on_c, 0, 49, 80
1, 326529, Control_c, 0, 64, 108
1, 326530, Note_on_c, 0, 76, 80
1, 326530, Note_on_c, 0, 79, 81
1, 326551, Control_c, 0, 64, 67
1, 326566, Control_c, 0, 64, 49
1, 326580, Control_c, 0, 64, 46
1, 326595, Control_c, 0, 64, 54
1, 326610, Control_c, 0, 64, 67
1, 326625, Control_c, 0, 64, 104
1, 326629, Note_off_c, 0, 61, 59
1, 326640, Control_c, 0, 64, 127
1, 326669, Note_on_c, 0, 67, 82
1, 326723, Note_off_c, 0, 76, 36
1, 326726, Note_on_c, 0, 59, 96
1, 326732, Note_on_c, 0, 47, 82
1, 326733, Note_off_c, 0, 79, 56
1, 326746, Note_off_c, 0, 49, 0
1, 326747, Note_off_c, 0, 67, 54
1, 326783, Poly_aftertouch_c, 0, 49, 127
1, 326789, Note_on_c, 0, 49, 3
1, 326821, Note_on_c, 0, 79, 83
1, 326826, Note_on_c, 0, 76, 76
1, 326831, Note_off_c, 0, 49, 49
1, 326849, Note_off_c, 0, 59, 59
1, 326887, Note_off_c, 0, 79, 64
1, 326890, Note_off_c, 0, 76, 61
1, 326898, Note_off_c, 0, 47, 59
1, 326983, Note_on_c, 0, 59, 86
1, 326988, Note_on_c, 0, 47, 80
1, 326989, Note_on_c, 0, 80, 87
1, 326992, Note_on_c, 0, 74, 81
1, 326997, Control_c, 0, 64, 77
1, 326998, Note_on_c, 0, 76, 77
1, 327012, Control_c, 0, 64, 54
1, 327027, Control_c, 0, 64, 31
1, 327042, Control_c, 0, 64, 0
1, 327057, Control_c, 0, 64, 38
1, 327071, Control_c, 0, 64, 59
1, 327086, Control_c, 0, 64, 81
1, 327101, Control_c, 0, 64, 127
1, 327111, Note_off_c, 0, 59, 62
1, 327132, Note_on_c, 0, 68, 83
1, 327167, Note_off_c, 0, 74, 58
1, 327170, Note_off_c, 0, 76, 56
1, 327185, Note_off_c, 0, 80, 55
1, 327191, Note_on_c, 0, 57, 83
1, 327194, Note_on_c, 0, 45, 85
1, 327199, Note_off_c, 0, 68, 51
1, 327204, Note_off_c, 0, 47, 57
1, 327287, Note_on_c, 0, 80, 83
1, 327302, Note_on_c, 0, 76, 76
1, 327305, Note_on_c, 0, 74, 75
1, 327324, Note_off_c, 0, 45, 61
1, 327328, Note_off_c, 0, 57, 55
1, 327356, Note_off_c, 0, 74, 61
1, 327382, Note_off_c, 0, 76, 61
1, 327395, Note_off_c, 0, 80, 60
1, 327447, Note_on_c, 0, 45, 73
1, 327449, Note_on_c, 0, 57, 78
1, 327458, Note_on_c, 0, 73, 74
1, 327461, Note_on_c, 0, 76, 70
1, 327468, Note_on_c, 0, 81, 76
1, 327478, Control_c, 0, 64, 99
1, 327493, Control_c, 0, 64, 69
1, 327508, Control_c, 0, 64, 51
1, 327524, Control_c, 0, 64, 45
1, 327539, Control_c, 0, 64, 51
1, 327553, Control_c, 0, 64, 64
1, 327568, Control_c, 0, 64, 94
1, 327583, Control_c, 0, 64, 127
1, 327588, Note_on_c, 0, 69, 84
1, 327594, Note_off_c, 0, 57, 62
1, 327628, Note_off_c, 0, 73, 61
1, 327640, Note_off_c, 0, 76, 61
1, 327659, Note_off_c, 0, 81, 60
1, 327668, Note_on_c, 0, 55, 88
1, 327669, Note_on_c, 0, 43, 91
1, 327675, Note_off_c, 0, 69, 59
1, 327682, Note_off_c, 0, 45, 58
1, 327748, Note_on_c, 0, 73, 77
1, 327748, Note_on_c, 0, 76, 78
1, 327751, Note_on_c, 0, 81, 82
1, 327819, Note_off_c, 0, 73, 57
1, 327829, Note_off_c, 0, 55, 56
1, 327832, Note_off_c, 0, 76, 59
1, 327838, Note_off_c, 0, 81, 59
1, 327839, Note_off_c, 0, 43, 58
1, 327905, Note_on_c, 0, 43, 82
1, 327906, Note_on_c, 0, 55, 93
1, 327907, Note_on_c, 0, 73, 85
1, 327907, Note_on_c, 0, 76, 78
1, 327908, Control_c, 0, 64, 104
1, 327910, Note_on_c, 0, 81, 78
1, 327923, Control_c, 0, 64, 70
1, 327938, Control_c, 0, 64, 52
1, 327952, Control_c, 0, 64, 49
1, 327967, Control_c, 0, 64, 56
1, 327982, Control_c, 0, 64, 72
1, 327997, Control_c, 0, 64, 127
1, 328020, Note_off_c, 0, 55, 58
1, 328051, Note_on_c, 0, 69, 91
1, 328089, Note_off_c, 0, 73, 62
1, 328100, Note_off_c, 0, 76, 62
1, 328102, Note_on_c, 0, 53, 93
1, 328104, Note_on_c, 0, 41, 93
1, 328112, Note_off_c, 0, 43, 55
1, 328119, Note_off_c, 0, 81, 61
1, 328140, Note_off_c, 0, 69, 58
1, 328199, Note_on_c, 0, 73, 80
1, 328202, Note_on_c, 0, 76, 82
1, 328202, Note_on_c, 0, 81, 82
1, 328265, Note_off_c, 0, 73, 62
1, 328270, Note_off_c, 0, 53, 56
1, 328279, Note_off_c, 0, 81, 60
1, 328297, Note_off_c, 0, 76, 61
1, 328300, Note_off_c, 0, 41, 62
1, 328365, Note_on_c, 0, 53, 94
1, 328366, Note_on_c, 0, 41, 84
1, 328366, Note_on_c, 0, 77, 89
1, 328366, Note_on_c, 0, 81, 85
1, 328367, Note_on_c, 0, 74, 92
1, 328375, Control_c, 0, 64, 103
1, 328390, Control_c, 0, 64, 64
1, 328405, Control_c, 0, 64, 37
1, 328420, Control_c, 0, 64, 0
1, 328435, Control_c, 0, 64, 37
1, 328449, Control_c, 0, 64, 59
1, 328464, Control_c, 0, 64, 86
1, 328479, Control_c, 0, 64, 127
1, 328484, Note_off_c, 0, 53, 56
1, 328512, Note_on_c, 0, 69, 90
1, 328552, Note_off_c, 0, 74, 59
1, 328566, Note_on_c, 0, 52, 98
1, 328566, Note_off_c, 0, 81, 60
1, 328569, Note_off_c, 0, 77, 57
1, 328569, Note_on_c, 0, 40, 93
1, 328598, Note_off_c, 0, 69, 53
1, 328600, Note_off_c, 0, 41, 61
1, 328661, Note_on_c, 0, 74, 86
1, 328662, Note_on_c, 0, 77, 88
1, 328664, Note_on_c, 0, 81, 85
1, 328718, Note_off_c, 0, 74, 66
1, 328730, Note_off_c, 0, 52, 58
1, 328741, Note_off_c, 0, 77, 63
1, 328742, Note_off_c, 0, 81, 61
1, 328748, Note_off_c, 0, 40, 58
1, 328813, Control_c, 0, 64, 72
1, 328813, Note_on_c, 0, 40, 76
1, 328817, Note_on_c, 0, 52, 97
1, 328820, Note_on_c, 0, 81, 86
1, 328823, Note_on_c, 0, 79, 78
1, 328824, Note_on_c, 0, 73, 89
1, 328828, Control_c, 0, 64, 42
1, 328842, Control_c, 0, 64, 0
1, 328872, Control_c, 0, 64, 45
1, 328887, Control_c, 0, 64, 70
1, 328901, Control_c, 0, 64, 127
1, 328913, Note_off_c, 0, 52, 62
1, 328965, Note_on_c, 0, 69, 90
1, 329005, Note_on_c, 0, 50, 97
1, 329008, Note_on_c, 0, 38, 90
1, 329014, Note_off_c, 0, 73, 59
1, 329016, Note_off_c, 0, 81, 58
1, 329019, Note_off_c, 0, 40, 39
1, 329030, Note_off_c, 0, 69, 62
1, 329041, Note_off_c, 0, 79, 61
1, 329109, Note_on_c, 0, 79, 84
1, 329111, Note_on_c, 0, 73, 87
1, 329114, Note_on_c, 0, 81, 82
1, 329132, Note_off_c, 0, 50, 55
1, 329142, Note_off_c, 0, 38, 61
1, 329171, Note_off_c, 0, 73, 62
1, 329189, Note_off_c, 0, 81, 63
1, 329197, Note_off_c, 0, 79, 63
1, 329279, Note_on_c, 0, 38, 94
1, 329282, Note_on_c, 0, 81, 90
1, 329287, Note_on_c, 0, 74, 101
1, 329287, Note_on_c, 0, 77, 87
1, 329317, Control_c, 0, 64, 107
1, 329332, Control_c, 0, 64, 69
1, 329347, Control_c, 0, 64, 39
1, 329361, Control_c, 0, 64, 0
1, 329421, Control_c, 0, 64, 46
1, 329436, Control_c, 0, 64, 78
1, 329439, Note_on_c, 0, 69, 91
1, 329451, Control_c, 0, 64, 127
1, 329510, Note_on_c, 0, 45, 78
1, 329510, Note_on_c, 0, 50, 81
1, 329516, Note_off_c, 0, 74, 57
1, 329525, Note_off_c, 0, 81, 64
1, 329544, Note_off_c, 0, 77, 61
1, 329550, Note_off_c, 0, 69, 58
1, 329599, Note_on_c, 0, 77, 79
1, 329600, Note_on_c, 0, 74, 94
1, 329603, Note_on_c, 0, 81, 83
1, 329648, Note_off_c, 0, 38, 56
1, 329655, Note_off_c, 0, 50, 48
1, 329665, Note_off_c, 0, 74, 64
1, 329685, Note_off_c, 0, 81, 64
1, 329687, Note_off_c, 0, 77, 64
1, 329746, Note_off_c, 0, 45, 53
1, 329763, Note_on_c, 0, 38, 96
1, 329764, Note_on_c, 0, 79, 81
1, 329764, Note_on_c, 0, 81, 94
1, 329767, Note_on_c, 0, 73, 91
1, 329798, Control_c, 0, 64, 102
1, 329813, Control_c, 0, 64, 60
1, 329828, Control_c, 0, 64, 0
1, 329872, Control_c, 0, 64, 31
1, 329888, Control_c, 0, 64, 63
1, 329903, Note_on_c, 0, 69, 90
1, 329903, Control_c, 0, 64, 111
1, 329919, Control_c, 0, 64, 127
1, 329948, Note_off_c, 0, 73, 61
1, 329970, Note_off_c, 0, 81, 60
1, 329977, Note_on_c, 0, 52, 90
1, 329982, Note_on_c, 0, 45, 82
1, 329987, Note_off_c, 0, 69, 58
1, 329988, Note_off_c, 0, 79, 64
1, 330056, Note_on_c, 0, 73, 85
1, 330056, Note_on_c, 0, 79, 84
1, 330062, Note_on_c, 0, 81, 87
1, 330082, Note_off_c, 0, 52, 60
1, 330095, Note_off_c, 0, 38, 57
1, 330115, Note_off_c, 0, 73, 61
1, 330127, Note_off_c, 0, 81, 62
1, 330134, Note_off_c, 0, 79, 64
1, 330137, Note_off_c, 0, 45, 59
1, 330198, Note_on_c, 0, 38, 90
1, 330210, Note_on_c, 0, 81, 87
1, 330214, Note_on_c, 0, 77, 87
1, 330214, Note_on_c, 0, 74, 92
1, 330244, Control_c, 0, 64, 90
1, 330259, Control_c, 0, 64, 57
1, 330274, Control_c, 0, 64, 0
1, 330341, Control_c, 0, 64, 61
1, 330354, Note_on_c, 0, 69, 91
1, 330355, Control_c, 0, 64, 127
1, 330416, Note_off_c, 0, 74, 53
1, 330432, Note_on_c, 0, 45, 80
1, 330434, Note_on_c, 0, 50, 84
1, 330435, Note_off_c, 0, 69, 61
1, 330443, Note_off_c, 0, 81, 59
1, 330451, Note_off_c, 0, 77, 60
1, 330510, Note_on_c, 0, 77, 81
1, 330512, Note_on_c, 0, 74, 91
1, 330512, Note_on_c, 0, 81, 83
1, 330530, Note_off_c, 0, 38, 52
1, 330565, Note_off_c, 0, 50, 57
1, 330579, Note_off_c, 0, 74, 65
1, 330590, Note_off_c, 0, 81, 65
1, 330596, Note_off_c, 0, 77, 66
1, 330611, Note_off_c, 0, 45, 60
1, 330648, Note_on_c, 0, 38, 95
1, 330658, Note_on_c, 0, 81, 88
1, 330659, Note_on_c, 0, 79, 80
1, 330660, Note_on_c, 0, 73, 92
1, 330681, Control_c, 0, 64, 94
1, 330696, Control_c, 0, 64, 61
1, 330711, Control_c, 0, 64, 0
1, 330756, Control_c, 0, 64, 43
1, 330771, Control_c, 0, 64, 64
1, 330786, Control_c, 0, 64, 86
1, 330801, Control_c, 0, 64, 127
1, 330803, Note_on_c, 0, 69, 89
1, 330838, Note_off_c, 0, 73, 62
1, 330847, Note_on_c, 0, 52, 82
1, 330850, Note_on_c, 0, 45, 74
1, 330852, Note_off_c, 0, 81, 59
1, 330868, Note_off_c, 0, 79, 63
1, 330869, Note_off_c, 0, 69, 63
1, 330907, Note_off_c, 0, 38, 60
1, 330932, Note_on_c, 0, 73, 84
1, 330935, Note_on_c, 0, 79, 76
1, 330936, Note_on_c, 0, 81, 89
1, 330944, Note_off_c, 0, 52, 57
1, 330974, Note_off_c, 0, 73, 65
1, 330995, Note_off_c, 0, 79, 65
1, 331008, Note_off_c, 0, 81, 65
1, 331031, Note_off_c, 0, 45, 54
1, 331098, Note_on_c, 0, 38, 91
1, 331111, Note_on_c, 0, 86, 94
1, 331112, Note_on_c, 0, 77, 98
1, 331116, Note_on_c, 0, 81, 83
1, 331149, Control_c, 0, 64, 94
1, 331164, Control_c, 0, 64, 64
1, 331178, Control_c, 0, 64, 28
1, 331193, Control_c, 0, 64, 0
1, 331223, Control_c, 0, 64, 37
1, 331229, Poly_aftertouch_c, 0, 41, 0
1, 331237, Control_c, 0, 64, 64
1, 331244, Note_on_c, 0, 74, 99
1, 331252, Control_c, 0, 64, 84
1, 331267, Control_c, 0, 64, 118
1, 331278, Note_off_c, 0, 77, 61
1, 331282, Control_c, 0, 64, 127
1, 331308, Note_off_c, 0, 81, 61
1, 331313, Note_on_c, 0, 50, 81
1, 331314, Note_on_c, 0, 45, 73
1, 331326, Note_off_c, 0, 74, 59
1, 331329, Note_off_c, 0, 86, 65
1, 331385, Note_on_c, 0, 86, 85
1, 331395, Note_on_c, 0, 77, 85
1, 331396, Note_on_c, 0, 81, 87
1, 331409, Note_off_c, 0, 38, 52
1, 331421, Note_off_c, 0, 50, 60
1, 331439, Note_off_c, 0, 77, 65
1, 331448, Note_off_c, 0, 86, 66
1, 331459, Note_off_c, 0, 81, 63
1, 331464, Note_off_c, 0, 45, 59
1, 331525, Note_on_c, 0, 38, 95
1, 331535, Note_on_c, 0, 85, 90
1, 331535, Note_on_c, 0, 79, 81
1, 331543, Note_on_c, 0, 81, 87
1, 331564, Control_c, 0, 64, 86
1, 331579, Control_c, 0, 64, 60
1, 331587, Note_on_c, 0, 86, 19
1, 331593, Control_c, 0, 64, 0
1, 331633, Note_off_c, 0, 86, 29
1, 331638, Control_c, 0, 64, 36
1, 331653, Control_c, 0, 64, 63
1, 331662, Note_on_c, 0, 73, 98
1, 331667, Control_c, 0, 64, 82
1, 331682, Control_c, 0, 64, 127
1, 331690, Note_off_c, 0, 81, 61
1, 331698, Note_off_c, 0, 79, 60
1, 331701, Note_off_c, 0, 85, 63
1, 331725, Note_on_c, 0, 52, 82
1, 331731, Note_on_c, 0, 45, 78
1, 331763, Note_off_c, 0, 73, 37
1, 331788, Note_off_c, 0, 52, 63
1, 331791, Note_off_c, 0, 38, 61
1, 331810, Note_on_c, 0, 79, 83
1, 331812, Note_off_c, 0, 45, 61
1, 331812, Note_on_c, 0, 81, 79
1, 331817, Note_on_c, 0, 85, 91
1, 331876, Note_off_c, 0, 79, 60
1, 331907, Note_off_c, 0, 81, 53
1, 331913, Note_off_c, 0, 85, 64
1, 331958, Note_on_c, 0, 38, 95
1, 331976, Note_on_c, 0, 86, 87
1, 331979, Note_on_c, 0, 77, 89
1, 331979, Note_on_c, 0, 81, 77
1, 331986, Control_c, 0, 64, 86
1, 332000, Control_c, 0, 64, 61
1, 332014, Note_on_c, 0, 41, 16
1, 332015, Control_c, 0, 64, 27
1, 332030, Control_c, 0, 64, 0
1, 332045, Control_c, 0, 64, 29
1, 332060, Control_c, 0, 64, 57
1, 332065, Note_off_c, 0, 41, 27
1, 332074, Control_c, 0, 64, 77
1, 332089, Control_c, 0, 64, 127
1, 332101, Note_on_c, 0, 74, 95
1, 332131, Note_off_c, 0, 77, 61
1, 332159, Note_on_c, 0, 50, 81
1, 332160, Note_on_c, 0, 45, 72
1, 332169, Note_off_c, 0, 74, 61
1, 332169, Note_off_c, 0, 86, 63
1, 332185, Note_off_c, 0, 81, 61
1, 332226, Note_off_c, 0, 38, 59
1, 332244, Note_on_c, 0, 77, 84
1, 332245, Note_on_c, 0, 86, 89
1, 332252, Note_on_c, 0, 81, 74
1, 332264, Note_off_c, 0, 50, 47
1, 332303, Note_off_c, 0, 77, 65
1, 332313, Note_off_c, 0, 45, 54
1, 332313, Note_off_c, 0, 86, 68
1, 332327, Note_off_c, 0, 81, 64
1, 332371, Note_on_c, 0, 38, 93
1, 332372, Control_c, 0, 64, 99
1, 332379, Note_on_c, 0, 85, 93
1, 332387, Control_c, 0, 64, 64
1, 332388, Note_on_c, 0, 81, 81
1, 332392, Note_on_c, 0, 79, 75
1, 332402, Control_c, 0, 64, 0
1, 332411, Note_on_c, 0, 86, 57
1, 332431, Note_off_c, 0, 86, 63
1, 332446, Control_c, 0, 64, 39
1, 332461, Control_c, 0, 64, 66
1, 332476, Control_c, 0, 64, 127
1, 332511, Note_on_c, 0, 73, 90
1, 332536, Note_off_c, 0, 81, 58
1, 332554, Note_off_c, 0, 79, 61
1, 332561, Note_on_c, 0, 52, 79
1, 332573, Note_on_c, 0, 45, 68
1, 332573, Note_off_c, 0, 85, 62
1, 332639, Note_on_c, 0, 81, 75
1, 332645, Note_on_c, 0, 85, 75
1, 332647, Note_on_c, 0, 79, 63
1, 332661, Note_off_c, 0, 52, 59
1, 332674, Note_off_c, 0, 38, 50
1, 332679, Note_off_c, 0, 73, 60
1, 332685, Note_off_c, 0, 79, 57
1, 332687, Note_off_c, 0, 45, 58
1, 332709, Note_off_c, 0, 81, 63
1, 332715, Note_off_c, 0, 85, 64
1, 332735, Control_c, 0, 64, 97
1, 332735, Control_c, 0, 67, 49
1, 332749, Control_c, 0, 64, 63
1, 332749, Control_c, 0, 67, 119
1, 332764, Control_c, 0, 64, 0
1, 332764, Control_c, 0, 67, 127
1, 332773, Note_on_c, 0, 38, 74
1, 332778, Note_on_c, 0, 50, 77
1, 332783, Note_on_c, 0, 45, 63
1, 332786, Note_on_c, 0, 81, 76
1, 332789, Note_on_c, 0, 86, 88
1, 332791, Note_on_c, 0, 74, 89
1, 332794, Control_c, 0, 64, 30
1, 332795, Note_on_c, 0, 77, 76
1, 332799, Note_off_c, 0, 38, 65
1, 332809, Control_c, 0, 64, 59
1, 332813, Note_off_c, 0, 45, 64
1, 332814, Note_off_c, 0, 50, 66
1, 332823, Control_c, 0, 64, 89
1, 332838, Control_c, 0, 64, 127
1, 332995, Note_on_c, 0, 69, 76
1, 332998, Note_on_c, 0, 65, 67
1, 333005, Note_on_c, 0, 62, 59
1, 333028, Note_off_c, 0, 65, 63
1, 333036, Note_off_c, 0, 69, 49
1, 333037, Note_off_c, 0, 62, 62
1, 333180, Note_off_c, 0, 74, 56
1, 333188, Note_on_c, 0, 69, 62
1, 333192, Note_on_c, 0, 65, 60
1, 333192, Note_on_c, 0, 62, 63
1, 333205, Note_off_c, 0, 86, 64
1, 333236, Note_off_c, 0, 77, 66
1, 333238, Control_c, 0, 64, 88
1, 333246, Note_off_c, 0, 81, 66
1, 333253, Note_off_c, 0, 65, 59
1, 333253, Control_c, 0, 64, 66
1, 333255, Note_off_c, 0, 69, 54
1, 333257, Note_off_c, 0, 62, 58
1, 333268, Control_c, 0, 64, 49
1, 333290, Control_c, 0, 64, 33
1, 333305, Control_c, 0, 64, 0
1, 333400, Note_on_c, 0, 62, 51
1, 333402, Note_on_c, 0, 65, 50
1, 333402, Note_on_c, 0, 69, 56
1, 333448, Note_off_c, 0, 65, 55
1, 333455, Note_off_c, 0, 62, 58
1, 333459, Note_off_c, 0, 69, 58
1, 333482, Control_c, 0, 64, 28
1, 333497, Control_c, 0, 64, 41
1, 333512, Control_c, 0, 64, 51
1, 333527, Control_c, 0, 64, 59
1, 333542, Control_c, 0, 64, 62
1, 333557, Control_c, 0, 64, 64
1, 333571, Control_c, 0, 64, 69
1, 333586, Control_c, 0, 64, 78
1, 333601, Control_c, 0, 64, 90
1, 333611, Note_on_c, 0, 62, 19
1, 333616, Control_c, 0, 64, 103
1, 333617, Note_on_c, 0, 69, 18
1, 333618, Note_on_c, 0, 65, 26
1, 333631, Control_c, 0, 64, 127
1, 333658, Note_off_c, 0, 65, 51
1, 333677, Note_off_c, 0, 69, 50
1, 333684, Note_off_c, 0, 62, 41
1, 333800, Note_on_c, 0, 62, 41
1, 333815, Note_on_c, 0, 69, 31
1, 333820, Note_on_c, 0, 65, 20
1, 333864, Note_off_c, 0, 69, 47
1, 333866, Note_off_c, 0, 65, 50
1, 333876, Note_off_c, 0, 62, 40
1, 333999, Note_on_c, 0, 62, 34
1, 334001, Note_on_c, 0, 65, 20
1, 334020, Note_on_c, 0, 69, 8
1, 334057, Note_off_c, 0, 65, 47
1, 334059, Note_off_c, 0, 62, 46
1, 334077, Note_off_c, 0, 69, 50
1, 334199, Note_on_c, 0, 62, 30
1, 334199, Note_on_c, 0, 69, 35
1, 334201, Note_on_c, 0, 65, 36
1, 334261, Note_off_c, 0, 65, 49
1, 334274, Note_off_c, 0, 62, 42
1, 334291, Note_off_c, 0, 69, 38
1, 334427, Note_on_c, 0, 74, 83
1, 334457, Note_on_c, 0, 62, 51
1, 334462, Note_on_c, 0, 65, 37
1, 334487, Note_on_c, 0, 69, 6
1, 334525, Note_off_c, 0, 65, 52
1, 334540, Note_off_c, 0, 62, 38
1, 334545, Note_off_c, 0, 69, 48
1, 334647, Note_on_c, 0, 65, 35
1, 334653, Note_on_c, 0, 62, 16
1, 334675, Note_on_c, 0, 69, 23
1, 334709, Note_off_c, 0, 62, 44
1, 334718, Note_off_c, 0, 69, 51
1, 334726, Note_off_c, 0, 65, 39
1, 334831, Note_on_c, 0, 62, 33
1, 334840, Note_on_c, 0, 65, 40
1, 334858, Note_on_c, 0, 69, 23
1, 334894, Note_off_c, 0, 65, 54
1, 334896, Note_off_c, 0, 62, 54
1, 334902, Note_off_c, 0, 69, 50
1, 335038, Note_on_c, 0, 62, 34
1, 335049, Note_on_c, 0, 65, 27
1, 335058, Note_on_c, 0, 69, 9
1, 335105, Note_off_c, 0, 65, 45
1, 335112, Note_off_c, 0, 69, 49
1, 335117, Note_off_c, 0, 62, 35
1, 335223, Note_off_c, 0, 74, 59
1, 335244, Note_on_c, 0, 62, 43
1, 335246, Note_on_c, 0, 65, 41
1, 335254, Note_on_c, 0, 77, 54
1, 335291, Note_on_c, 0, 69, 11
1, 335300, Note_off_c, 0, 62, 58
1, 335300, Note_off_c, 0, 77, 59
1, 335316, Note_off_c, 0, 65, 49
1, 335341, Note_off_c, 0, 69, 50
1, 335451, Note_on_c, 0, 62, 32
1, 335452, Note_on_c, 0, 65, 38
1, 335452, Note_on_c, 0, 69, 37
1, 335487, Note_off_c, 0, 62, 52
1, 335503, Note_off_c, 0, 69, 45
1, 335505, Note_off_c, 0, 65, 41
1, 335653, Note_on_c, 0, 81, 73
1, 335655, Control_c, 0, 64, 94
1, 335663, Note_on_c, 0, 65, 42
1, 335670, Control_c, 0, 64, 75
1, 335684, Note_on_c, 0, 69, 21
1, 335684, Control_c, 0, 64, 67
1, 335686, Note_on_c, 0, 62, 19
1, 335714, Control_c, 0, 64, 72
1, 335729, Control_c, 0, 64, 85
1, 335735, Note_off_c, 0, 69, 46
1, 335744, Control_c, 0, 64, 103
1, 335758, Control_c, 0, 64, 127
1, 335796, Note_off_c, 0, 81, 65
1, 335816, Note_off_c, 0, 62, 0
1, 335836, Note_off_c, 0, 65, 0
1, 335837, Note_on_c, 0, 62, 25
1, 335852, Note_on_c, 0, 65, 32
1, 335901, Note_off_c, 0, 62, 60
1, 335902, Note_off_c, 0, 65, 54
1, 335905, Poly_aftertouch_c, 0, 69, 127
1, 335954, Poly_aftertouch_c, 0, 69, 0
1, 336119, Note_on_c, 0, 69, 86
1, 336136, Note_on_c, 0, 61, 51
1, 336144, Control_c, 0, 64, 102
1, 336151, Note_on_c, 0, 65, 38
1, 336158, Control_c, 0, 64, 75
1, 336173, Control_c, 0, 64, 60
1, 336188, Control_c, 0, 64, 51
1, 336203, Control_c, 0, 64, 51
1, 336218, Control_c, 0, 64, 53
1, 336232, Control_c, 0, 64, 61
1, 336234, Note_off_c, 0, 61, 52
1, 336239, Note_off_c, 0, 65, 39
1, 336247, Control_c, 0, 64, 70
1, 336262, Control_c, 0, 64, 84
1, 336284, Control_c, 0, 64, 108
1, 336299, Control_c, 0, 64, 127
1, 336355, Note_on_c, 0, 61, 24
1, 336365, Note_on_c, 0, 65, 40
1, 336393, Note_off_c, 0, 65, 54
1, 336400, Note_off_c, 0, 61, 48
1, 336527, Note_on_c, 0, 61, 47
1, 336556, Note_on_c, 0, 65, 32
1, 336581, Note_off_c, 0, 61, 51
1, 336598, Note_off_c, 0, 65, 47
1, 336738, Note_on_c, 0, 65, 38
1, 336742, Note_on_c, 0, 61, 45
1, 336774, Note_off_c, 0, 61, 57
1, 336789, Note_off_c, 0, 65, 43
1, 336870, Note_off_c, 0, 69, 52
1, 336947, Note_on_c, 0, 61, 43
1, 336955, Note_on_c, 0, 77, 47
1, 336957, Note_on_c, 0, 65, 30
1, 336963, Poly_aftertouch_c, 0, 69, 127
1, 336966, Note_on_c, 0, 69, 3
1, 337002, Note_off_c, 0, 77, 64
1, 337009, Note_off_c, 0, 61, 52
1, 337009, Note_off_c, 0, 65, 53
1, 337053, Note_off_c, 0, 69, 41
1, 337162, Note_on_c, 0, 61, 39
1, 337179, Note_on_c, 0, 65, 23
1, 337191, Note_on_c, 0, 69, 14
1, 337201, Note_off_c, 0, 61, 48
1, 337225, Note_off_c, 0, 65, 46
1, 337243, Note_off_c, 0, 69, 47
1, 337374, Note_on_c, 0, 81, 64
1, 337384, Note_on_c, 0, 65, 43
1, 337390, Note_on_c, 0, 69, 30
1, 337395, Note_on_c, 0, 61, 39
1, 337405, Control_c, 0, 64, 90
1, 337420, Control_c, 0, 64, 74
1, 337435, Control_c, 0, 64, 66
1, 337436, Note_off_c, 0, 61, 48
1, 337450, Control_c, 0, 64, 65
1, 337453, Note_off_c, 0, 69, 42
1, 337457, Note_off_c, 0, 65, 44
1, 337464, Control_c, 0, 64, 68
1, 337479, Control_c, 0, 64, 74
1, 337494, Control_c, 0, 64, 85
1, 337509, Control_c, 0, 64, 106
1, 337524, Control_c, 0, 64, 127
1, 337541, Note_off_c, 0, 81, 64
1, 337583, Note_on_c, 0, 61, 21
1, 337585, Note_on_c, 0, 65, 40
1, 337625, Note_off_c, 0, 61, 54
1, 337633, Poly_aftertouch_c, 0, 69, 127
1, 337640, Note_off_c, 0, 65, 40
1, 337687, Poly_aftertouch_c, 0, 69, 0
1, 337860, Note_on_c, 0, 74, 74
1, 337879, Note_on_c, 0, 62, 31
1, 337884, Note_on_c, 0, 65, 31
1, 337887, Control_c, 0, 64, 86
1, 337893, Note_on_c, 0, 69, 33
1, 337902, Control_c, 0, 64, 65
1, 337917, Control_c, 0, 64, 53
1, 337932, Control_c, 0, 64, 52
1, 337947, Control_c, 0, 64, 56
1, 337961, Control_c, 0, 64, 63
1, 337976, Control_c, 0, 64, 74
1, 337991, Control_c, 0, 64, 91
1, 338006, Control_c, 0, 64, 127
1, 338035, Note_off_c, 0, 65, 0
1, 338052, Note_off_c, 0, 62, 0
1, 338052, Note_on_c, 0, 62, 11
1, 338052, Note_off_c, 0, 69, 0
1, 338056, Note_on_c, 0, 65, 27
1, 338070, Note_on_c, 0, 69, 37
1, 338157, Note_off_c, 0, 69, 45
1, 338158, Note_off_c, 0, 65, 49
1, 338169, Note_off_c, 0, 62, 35
1, 338254, Note_on_c, 0, 62, 53
1, 338268, Note_on_c, 0, 65, 41
1, 338273, Note_on_c, 0, 69, 37
1, 338331, Note_off_c, 0, 65, 45
1, 338331, Note_off_c, 0, 62, 44
1, 338349, Note_off_c, 0, 69, 45
1, 338452, Note_on_c, 0, 62, 52
1, 338463, Note_on_c, 0, 65, 40
1, 338466, Note_on_c, 0, 69, 45
1, 338540, Note_off_c, 0, 65, 46
1, 338542, Note_off_c, 0, 62, 55
1, 338553, Note_off_c, 0, 69, 38
1, 338609, Note_off_c, 0, 74, 62
1, 338650, Note_on_c, 0, 77, 76
1, 338665, Note_on_c, 0, 62, 55
1, 338668, Note_on_c, 0, 65, 53
1, 338671, Note_on_c, 0, 69, 41
1, 338692, Note_off_c, 0, 77, 64
1, 338733, Note_off_c, 0, 62, 50
1, 338760, Note_off_c, 0, 69, 39
1, 338773, Note_off_c, 0, 65, 33
1, 338843, Note_on_c, 0, 62, 46
1, 338846, Note_on_c, 0, 65, 54
1, 338856, Note_on_c, 0, 69, 57
1, 338873, Note_off_c, 0, 62, 58
1, 338879, Note_off_c, 0, 65, 62
1, 338890, Note_off_c, 0, 69, 62
1, 339048, Note_on_c, 0, 81, 83
1, 339051, Note_on_c, 0, 65, 45
1, 339055, Note_on_c, 0, 61, 62
1, 339068, Note_on_c, 0, 69, 44
1, 339080, Control_c, 0, 64, 91
1, 339095, Control_c, 0, 64, 66
1, 339109, Control_c, 0, 64, 57
1, 339124, Control_c, 0, 64, 58
1, 339139, Control_c, 0, 64, 62
1, 339151, Note_off_c, 0, 69, 46
1, 339154, Control_c, 0, 64, 68
1, 339155, Note_off_c, 0, 65, 61
1, 339169, Control_c, 0, 64, 81
1, 339172, Note_off_c, 0, 61, 58
1, 339183, Control_c, 0, 64, 110
1, 339198, Control_c, 0, 64, 127
1, 339231, Note_on_c, 0, 61, 46
1, 339235, Note_on_c, 0, 65, 57
1, 339237, Note_off_c, 0, 81, 64
1, 339259, Note_on_c, 0, 69, 54
1, 339303, Note_off_c, 0, 65, 0
1, 339311, Note_off_c, 0, 69, 52
1, 339349, Poly_aftertouch_c, 0, 65, 0
1, 339351, Note_off_c, 0, 61, 36
1, 339459, Note_on_c, 0, 84, 77
1, 339473, Note_on_c, 0, 65, 51
1, 339482, Note_on_c, 0, 60, 51
1, 339489, Note_on_c, 0, 69, 36
1, 339503, Control_c, 0, 64, 108
1, 339518, Control_c, 0, 64, 77
1, 339532, Control_c, 0, 64, 63
1, 339547, Control_c, 0, 64, 57
1, 339562, Control_c, 0, 64, 60
1, 339577, Note_off_c, 0, 60, 61
1, 339577, Control_c, 0, 64, 66
1, 339578, Note_off_c, 0, 65, 60
1, 339592, Control_c, 0, 64, 81
1, 339607, Control_c, 0, 64, 127
1, 339609, Note_off_c, 0, 69, 40
1, 339670, Note_on_c, 0, 81, 77
1, 339676, Note_on_c, 0, 60, 46
1, 339683, Note_on_c, 0, 65, 45
1, 339684, Note_on_c, 0, 69, 33
1, 339736, Note_off_c, 0, 60, 59
1, 339739, Note_off_c, 0, 69, 55
1, 339747, Note_off_c, 0, 65, 51
1, 339759, Note_off_c, 0, 81, 65
1, 339759, Note_off_c, 0, 84, 64
1, 339851, Note_on_c, 0, 81, 84
1, 339865, Note_on_c, 0, 60, 48
1, 339865, Note_on_c, 0, 69, 48
1, 339872, Note_on_c, 0, 65, 58
1, 339918, Control_c, 0, 64, 80
1, 339933, Control_c, 0, 64, 65
1, 339948, Control_c, 0, 64, 61
1, 339958, Note_off_c, 0, 60, 59
1, 339963, Control_c, 0, 64, 63
1, 339969, Note_off_c, 0, 65, 59
1, 339973, Note_off_c, 0, 69, 53
1, 339978, Control_c, 0, 64, 70
1, 339993, Control_c, 0, 64, 85
1, 340007, Control_c, 0, 64, 127
1, 340051, Note_on_c, 0, 79, 83
1, 340056, Note_on_c, 0, 60, 53
1, 340058, Note_on_c, 0, 69, 50
1, 340072, Note_on_c, 0, 65, 47
1, 340106, Note_off_c, 0, 81, 63
1, 340137, Note_off_c, 0, 79, 67
1, 340154, Note_off_c, 0, 65, 56
1, 340155, Note_off_c, 0, 60, 40
1, 340188, Note_off_c, 0, 69, 37
1, 340242, Note_on_c, 0, 79, 83
1, 340266, Note_on_c, 0, 69, 43
1, 340267, Note_on_c, 0, 60, 54
1, 340269, Note_on_c, 0, 65, 49
1, 340296, Control_c, 0, 64, 89
1, 340312, Control_c, 0, 64, 69
1, 340327, Control_c, 0, 64, 61
1, 340340, Note_off_c, 0, 60, 56
1, 340342, Control_c, 0, 64, 62
1, 340346, Note_off_c, 0, 65, 55
1, 340356, Control_c, 0, 64, 68
1, 340371, Control_c, 0, 64, 81
1, 340386, Control_c, 0, 64, 114
1, 340401, Control_c, 0, 64, 127
1, 340421, Note_off_c, 0, 69, 0
1, 340424, Note_on_c, 0, 77, 86
1, 340431, Note_on_c, 0, 60, 53
1, 340434, Note_on_c, 0, 69, 48
1, 340441, Note_on_c, 0, 65, 55
1, 340473, Note_off_c, 0, 79, 62
1, 340476, Note_off_c, 0, 60, 63
1, 340504, Note_off_c, 0, 69, 58
1, 340510, Note_off_c, 0, 77, 63
1, 340516, Note_off_c, 0, 65, 43
1, 340605, Note_on_c, 0, 77, 91
1, 340623, Control_c, 0, 64, 101
1, 340626, Note_on_c, 0, 69, 55
1, 340627, Note_on_c, 0, 61, 51
1, 340630, Note_on_c, 0, 65, 58
1, 340638, Control_c, 0, 64, 71
1, 340653, Control_c, 0, 64, 56
1, 340667, Control_c, 0, 64, 50
1, 340682, Control_c, 0, 64, 51
1, 340683, Note_off_c, 0, 61, 52
1, 340683, Note_off_c, 0, 69, 53
1, 340691, Note_off_c, 0, 65, 57
1, 340697, Control_c, 0, 64, 57
1, 340712, Control_c, 0, 64, 65
1, 340727, Control_c, 0, 64, 81
1, 340741, Control_c, 0, 64, 111
1, 340756, Control_c, 0, 64, 127
1, 340790, Note_on_c, 0, 61, 53
1, 340792, Note_on_c, 0, 76, 87
1, 340802, Note_on_c, 0, 65, 59
1, 340812, Note_on_c, 0, 69, 56
1, 340833, Note_off_c, 0, 77, 62
1, 340843, Note_off_c, 0, 65, 58
1, 340844, Note_off_c, 0, 61, 58
1, 340862, Note_off_c, 0, 69, 54
1, 340875, Note_off_c, 0, 76, 63
1, 340987, Note_on_c, 0, 76, 83
1, 341003, Note_on_c, 0, 62, 50
1, 341005, Note_on_c, 0, 65, 49
1, 341006, Note_on_c, 0, 69, 45
1, 341030, Control_c, 0, 64, 80
1, 341045, Control_c, 0, 64, 62
1, 341060, Control_c, 0, 64, 53
1, 341074, Control_c, 0, 64, 54
1, 341086, Note_off_c, 0, 65, 52
1, 341089, Control_c, 0, 64, 59
1, 341093, Note_off_c, 0, 69, 43
1, 341105, Control_c, 0, 64, 67
1, 341120, Control_c, 0, 64, 79
1, 341135, Control_c, 0, 64, 126
1, 341147, Note_off_c, 0, 62, 0
1, 341164, Note_on_c, 0, 62, 36
1, 341177, Note_on_c, 0, 65, 49
1, 341184, Note_on_c, 0, 77, 86
1, 341193, Note_on_c, 0, 69, 46
1, 341205, Note_off_c, 0, 76, 67
1, 341223, Note_off_c, 0, 62, 61
1, 341232, Note_off_c, 0, 65, 53
1, 341232, Note_off_c, 0, 69, 51
1, 341250, Note_off_c, 0, 77, 61
1, 341360, Note_on_c, 0, 65, 55
1, 341363, Note_on_c, 0, 77, 87
1, 341380, Note_on_c, 0, 69, 50
1, 341416, Control_c, 0, 64, 100
1, 341431, Control_c, 0, 64, 77
1, 341446, Control_c, 0, 64, 65
1, 341449, Note_off_c, 0, 69, 55
1, 341461, Control_c, 0, 64, 63
1, 341476, Control_c, 0, 64, 65
1, 341490, Note_off_c, 0, 65, 39
1, 341491, Control_c, 0, 64, 73
1, 341505, Control_c, 0, 64, 90
1, 341527, Control_c, 0, 64, 127
1, 341554, Note_on_c, 0, 74, 86
1, 341571, Note_on_c, 0, 69, 66
1, 341598, Note_off_c, 0, 77, 61
1, 341625, Note_off_c, 0, 69, 58
1, 341637, Note_off_c, 0, 74, 61
1, 341744, Note_on_c, 0, 69, 63
1, 341748, Note_on_c, 0, 74, 80
1, 341764, Control_c, 0, 64, 114
1, 341779, Control_c, 0, 64, 77
1, 341794, Control_c, 0, 64, 61
1, 341809, Control_c, 0, 64, 53
1, 341823, Control_c, 0, 64, 52
1, 341838, Control_c, 0, 64, 54
1, 341844, Note_off_c, 0, 69, 55
1, 341853, Control_c, 0, 64, 62
1, 341867, Control_c, 0, 64, 70
1, 341882, Control_c, 0, 64, 84
1, 341898, Control_c, 0, 64, 114
1, 341913, Control_c, 0, 64, 127
1, 341940, Note_on_c, 0, 72, 75
1, 341949, Note_on_c, 0, 69, 66
1, 341969, Note_off_c, 0, 74, 60
1, 341976, Note_off_c, 0, 69, 64
1, 342002, Note_off_c, 0, 72, 58
1, 342120, Note_on_c, 0, 64, 44
1, 342120, Control_c, 0, 64, 90
1, 342127, Note_on_c, 0, 74, 72
1, 342135, Control_c, 0, 64, 67
1, 342145, Note_on_c, 0, 70, 46
1, 342147, Note_on_c, 0, 60, 48
1, 342149, Control_c, 0, 64, 53
1, 342164, Control_c, 0, 64, 50
1, 342176, Note_off_c, 0, 70, 55
1, 342179, Control_c, 0, 64, 51
1, 342182, Note_off_c, 0, 60, 50
1, 342194, Control_c, 0, 64, 59
1, 342202, Note_off_c, 0, 64, 54
1, 342209, Control_c, 0, 64, 68
1, 342224, Control_c, 0, 64, 81
1, 342239, Control_c, 0, 64, 100
1, 342253, Control_c, 0, 64, 127
1, 342316, Note_on_c, 0, 70, 52
1, 342320, Note_on_c, 0, 72, 62
1, 342346, Note_on_c, 0, 60, 36
1, 342349, Note_off_c, 0, 70, 64
1, 342358, Note_on_c, 0, 64, 29
1, 342367, Note_off_c, 0, 74, 53
1, 342394, Note_off_c, 0, 64, 55
1, 342468, Control_c, 0, 64, 73
1, 342482, Note_off_c, 0, 60, 32
1, 342483, Control_c, 0, 64, 58
1, 342498, Control_c, 0, 64, 55
1, 342513, Note_off_c, 0, 72, 45
1, 342513, Control_c, 0, 64, 60
1, 342519, Note_on_c, 0, 69, 62
1, 342523, Note_on_c, 0, 65, 40
1, 342527, Control_c, 0, 64, 69
1, 342528, Note_on_c, 0, 62, 48
1, 342542, Control_c, 0, 64, 92
1, 342552, Note_off_c, 0, 65, 59
1, 342557, Control_c, 0, 64, 127
1, 342558, Note_off_c, 0, 62, 65
1, 342563, Note_off_c, 0, 69, 58
1, 342707, Note_on_c, 0, 69, 52
1, 342713, Note_on_c, 0, 65, 52
1, 342742, Note_on_c, 0, 62, 34
1, 342746, Note_off_c, 0, 65, 63
1, 342749, Note_off_c, 0, 69, 56
1, 342771, Note_off_c, 0, 62, 57
1, 342894, Note_on_c, 0, 69, 59
1, 342897, Note_on_c, 0, 65, 54
1, 342906, Note_on_c, 0, 62, 46
1, 342928, Control_c, 0, 64, 111
1, 342933, Note_off_c, 0, 65, 59
1, 342942, Control_c, 0, 64, 90
1, 342944, Note_off_c, 0, 69, 58
1, 342946, Note_off_c, 0, 62, 57
1, 342957, Control_c, 0, 64, 77
1, 342972, Control_c, 0, 64, 67
1, 342987, Control_c, 0, 64, 62
1, 343002, Control_c, 0, 64, 60
1, 343024, Control_c, 0, 64, 58
1, 343039, Control_c, 0, 64, 57
1, 343054, Control_c, 0, 64, 55
1, 343069, Control_c, 0, 64, 54
1, 343083, Control_c, 0, 64, 53
1, 343094, Note_on_c, 0, 69, 55
1, 343097, Note_on_c, 0, 65, 51
1, 343098, Control_c, 0, 64, 52
1, 343105, Note_on_c, 0, 62, 46
1, 343113, Control_c, 0, 64, 51
1, 343128, Control_c, 0, 64, 50
1, 343141, Note_off_c, 0, 65, 58
1, 343143, Control_c, 0, 64, 50
1, 343145, Note_off_c, 0, 69, 57
1, 343148, Note_off_c, 0, 62, 57
1, 343157, Control_c, 0, 64, 49
1, 343187, Control_c, 0, 64, 49
1, 343202, Control_c, 0, 64, 48
1, 343217, Control_c, 0, 64, 48
1, 343232, Control_c, 0, 64, 47
1, 343276, Control_c, 0, 64, 47
1, 343282, Note_on_c, 0, 69, 49
1, 343288, Note_on_c, 0, 65, 42
1, 343291, Control_c, 0, 64, 46
1, 343297, Note_on_c, 0, 62, 40
1, 343333, Note_off_c, 0, 65, 57
1, 343336, Note_off_c, 0, 69, 58
1, 343336, Control_c, 0, 64, 46
1, 343337, Note_off_c, 0, 62, 56
1, 343410, Control_c, 0, 64, 47
1, 343468, Note_on_c, 0, 69, 50
1, 343470, Note_on_c, 0, 65, 45
1, 343476, Note_on_c, 0, 62, 48
1, 343484, Control_c, 0, 64, 47
1, 343512, Note_off_c, 0, 65, 60
1, 343512, Note_off_c, 0, 69, 59
1, 343526, Note_off_c, 0, 62, 57
1, 343559, Control_c, 0, 64, 48
1, 343667, Note_on_c, 0, 65, 41
1, 343670, Note_on_c, 0, 69, 42
1, 343673, Note_on_c, 0, 62, 42
1, 343707, Note_off_c, 0, 65, 52
1, 343711, Note_off_c, 0, 69, 58
1, 343718, Note_off_c, 0, 62, 48
1, 343819, Control_c, 0, 64, 48
1, 343859, Note_on_c, 0, 69, 53
1, 343862, Note_on_c, 0, 65, 44
1, 343867, Note_on_c, 0, 62, 47
1, 343892, Note_off_c, 0, 65, 58
1, 343893, Control_c, 0, 64, 49
1, 343893, Note_off_c, 0, 62, 59
1, 343905, Note_off_c, 0, 69, 59
1, 343907, Control_c, 0, 64, 50
1, 343967, Control_c, 0, 64, 50
1, 343981, Control_c, 0, 64, 51
1, 344025, Control_c, 0, 64, 52
1, 344040, Control_c, 0, 64, 53
1, 344055, Control_c, 0, 64, 56
1, 344064, Note_on_c, 0, 50, 65
1, 344070, Control_c, 0, 64, 59
1, 344077, Note_on_c, 0, 74, 47
1, 344084, Note_on_c, 0, 69, 29
1, 344085, Control_c, 0, 64, 61
1, 344099, Control_c, 0, 64, 62
1, 344114, Control_c, 0, 64, 63
1, 344129, Control_c, 0, 64, 66
1, 344135, Note_off_c, 0, 74, 52
1, 344142, Note_off_c, 0, 69, 43
1, 344144, Control_c, 0, 64, 70
1, 344159, Control_c, 0, 64, 76
1, 344174, Control_c, 0, 64, 83
1, 344188, Control_c, 0, 64, 89
1, 344203, Control_c, 0, 64, 99
1, 344218, Control_c, 0, 64, 120
1, 344233, Control_c, 0, 64, 127
1, 344273, Note_on_c, 0, 74, 61
1, 344274, Note_on_c, 0, 69, 50
1, 344284, Note_on_c, 0, 65, 47
1, 344320, Note_off_c, 0, 69, 58
1, 344326, Note_off_c, 0, 65, 56
1, 344330, Note_off_c, 0, 74, 56
1, 344458, Note_on_c, 0, 74, 64
1, 344468, Note_on_c, 0, 69, 45
1, 344474, Note_on_c, 0, 65, 41
1, 344507, Note_off_c, 0, 69, 59
1, 344525, Note_off_c, 0, 74, 54
1, 344527, Note_off_c, 0, 65, 47
1, 344657, Note_on_c, 0, 74, 62
1, 344665, Note_on_c, 0, 69, 51
1, 344680, Note_on_c, 0, 65, 36
1, 344704, Note_off_c, 0, 69, 61
1, 344719, Note_off_c, 0, 65, 48
1, 344726, Note_off_c, 0, 74, 45
1, 344852, Note_on_c, 0, 74, 68
1, 344853, Note_on_c, 0, 53, 61
1, 344865, Note_on_c, 0, 69, 51
1, 344882, Note_on_c, 0, 65, 36
1, 344908, Control_c, 0, 64, 114
1, 344920, Note_off_c, 0, 69, 50
1, 344922, Control_c, 0, 64, 98
1, 344927, Note_off_c, 0, 65, 49
1, 344936, Note_off_c, 0, 50, 62
1, 344937, Control_c, 0, 64, 87
1, 344945, Note_off_c, 0, 74, 58
1, 344949, Note_off_c, 0, 53, 61
1, 344952, Control_c, 0, 64, 77
1, 344966, Control_c, 0, 64, 68
1, 344981, Control_c, 0, 64, 61
1, 344996, Control_c, 0, 64, 58
1, 345026, Control_c, 0, 64, 57
1, 345041, Control_c, 0, 64, 56
1, 345043, Note_on_c, 0, 74, 65
1, 345044, Note_on_c, 0, 69, 54
1, 345056, Note_on_c, 0, 65, 44
1, 345056, Control_c, 0, 64, 54
1, 345071, Control_c, 0, 64, 51
1, 345086, Control_c, 0, 64, 49
1, 345094, Note_off_c, 0, 69, 55
1, 345101, Control_c, 0, 64, 49
1, 345103, Note_off_c, 0, 65, 57
1, 345110, Note_off_c, 0, 74, 58
1, 345116, Control_c, 0, 64, 45
1, 345131, Control_c, 0, 64, 38
1, 345145, Control_c, 0, 64, 28
1, 345160, Control_c, 0, 64, 0
1, 345220, Note_on_c, 0, 57, 78
1, 345225, Note_on_c, 0, 74, 69
1, 345229, Note_on_c, 0, 69, 52
1, 345244, Note_on_c, 0, 65, 44
1, 345303, Note_off_c, 0, 74, 56
1, 345311, Note_off_c, 0, 57, 62
1, 345312, Note_off_c, 0, 65, 38
1, 345322, Note_off_c, 0, 69, 39
1, 345424, Note_on_c, 0, 74, 71
1, 345430, Note_on_c, 0, 69, 59
1, 345436, Note_on_c, 0, 65, 55
1, 345473, Note_off_c, 0, 65, 60
1, 345475, Note_off_c, 0, 69, 60
1, 345486, Note_off_c, 0, 74, 62
1, 345629, Note_on_c, 0, 45, 73
1, 345642, Control_c, 0, 64, 31
1, 345643, Note_on_c, 0, 73, 58
1, 345657, Control_c, 0, 64, 44
1, 345671, Note_on_c, 0, 69, 28
1, 345671, Control_c, 0, 64, 56
1, 345686, Control_c, 0, 64, 61
1, 345701, Control_c, 0, 64, 63
1, 345716, Control_c, 0, 64, 64
1, 345731, Control_c, 0, 64, 67
1, 345745, Note_off_c, 0, 73, 57
1, 345745, Control_c, 0, 64, 73
1, 345754, Poly_aftertouch_c, 0, 65, 0
1, 345755, Note_off_c, 0, 69, 39
1, 345760, Control_c, 0, 64, 81
1, 345775, Control_c, 0, 64, 91
1, 345789, Control_c, 0, 64, 102
1, 345804, Control_c, 0, 64, 116
1, 345819, Control_c, 0, 64, 127
1, 345856, Note_on_c, 0, 73, 56
1, 345878, Note_on_c, 0, 69, 28
1, 345905, Note_off_c, 0, 73, 53
1, 345911, Poly_aftertouch_c, 0, 65, 127
1, 345920, Note_off_c, 0, 69, 51
1, 345956, Poly_aftertouch_c, 0, 65, 0
1, 346047, Note_on_c, 0, 73, 50
1, 346054, Note_on_c, 0, 69, 37
1, 346078, Note_on_c, 0, 65, 36
1, 346102, Note_off_c, 0, 69, 53
1, 346119, Note_off_c, 0, 73, 41
1, 346125, Note_off_c, 0, 65, 46
1, 346253, Note_on_c, 0, 73, 53
1, 346255, Note_on_c, 0, 69, 40
1, 346257, Note_on_c, 0, 65, 46
1, 346310, Note_off_c, 0, 69, 53
1, 346322, Note_off_c, 0, 65, 47
1, 346328, Note_off_c, 0, 73, 54
1, 346454, Note_on_c, 0, 53, 56
1, 346457, Note_on_c, 0, 73, 56
1, 346469, Note_on_c, 0, 69, 47
1, 346479, Note_on_c, 0, 65, 39
1, 346523, Control_c, 0, 64, 106
1, 346525, Note_off_c, 0, 45, 61
1, 346537, Control_c, 0, 64, 93
1, 346540, Note_off_c, 0, 65, 45
1, 346540, Note_off_c, 0, 69, 50
1, 346545, Note_off_c, 0, 73, 56
1, 346552, Control_c, 0, 64, 84
1, 346558, Note_off_c, 0, 53, 58
1, 346567, Control_c, 0, 64, 75
1, 346582, Control_c, 0, 64, 67
1, 346597, Control_c, 0, 64, 61
1, 346612, Control_c, 0, 64, 59
1, 346627, Control_c, 0, 64, 58
1, 346642, Control_c, 0, 64, 57
1, 346657, Control_c, 0, 64, 55
1, 346665, Note_on_c, 0, 73, 47
1, 346672, Control_c, 0, 64, 54
1, 346675, Note_on_c, 0, 69, 43
1, 346677, Note_on_c, 0, 65, 27
1, 346687, Control_c, 0, 64, 53
1, 346711, Note_off_c, 0, 69, 59
1, 346713, Note_off_c, 0, 73, 57
1, 346721, Note_off_c, 0, 65, 47
1, 346731, Control_c, 0, 64, 52
1, 346746, Control_c, 0, 64, 51
1, 346769, Control_c, 0, 64, 49
1, 346784, Control_c, 0, 64, 48
1, 346798, Control_c, 0, 64, 47
1, 346813, Control_c, 0, 64, 45
1, 346828, Control_c, 0, 64, 42
1, 346842, Control_c, 0, 64, 37
1, 346850, Note_on_c, 0, 73, 53
1, 346856, Note_on_c, 0, 57, 51
1, 346857, Control_c, 0, 64, 32
1, 346868, Note_on_c, 0, 69, 37
1, 346870, Note_on_c, 0, 65, 40
1, 346915, Note_off_c, 0, 73, 52
1, 346916, Note_off_c, 0, 69, 45
1, 346937, Note_off_c, 0, 65, 42
1, 346952, Note_off_c, 0, 57, 59
1, 347047, Note_on_c, 0, 73, 49
1, 347060, Note_on_c, 0, 69, 34
1, 347073, Note_on_c, 0, 65, 36
1, 347110, Control_c, 0, 64, 32
1, 347124, Control_c, 0, 64, 33
1, 347131, Note_off_c, 0, 73, 52
1, 347139, Control_c, 0, 64, 34
1, 347140, Note_off_c, 0, 69, 50
1, 347145, Note_off_c, 0, 65, 50
1, 347168, Control_c, 0, 64, 35
1, 347198, Control_c, 0, 64, 37
1, 347213, Control_c, 0, 64, 39
1, 347228, Control_c, 0, 64, 40
1, 347242, Control_c, 0, 64, 40
1, 347255, Note_on_c, 0, 74, 56
1, 347257, Control_c, 0, 64, 41
1, 347268, Note_on_c, 0, 50, 53
1, 347272, Control_c, 0, 64, 44
1, 347286, Note_on_c, 0, 69, 28
1, 347287, Control_c, 0, 64, 50
1, 347288, Note_on_c, 0, 65, 37
1, 347302, Control_c, 0, 64, 56
1, 347316, Control_c, 0, 64, 59
1, 347331, Control_c, 0, 64, 60
1, 347347, Note_off_c, 0, 69, 44
1, 347349, Note_off_c, 0, 65, 45
1, 347355, Note_off_c, 0, 74, 50
1, 347360, Control_c, 0, 64, 61
1, 347375, Control_c, 0, 64, 62
1, 347390, Control_c, 0, 64, 65
1, 347405, Control_c, 0, 64, 69
1, 347420, Control_c, 0, 64, 74
1, 347435, Control_c, 0, 64, 77
1, 347450, Control_c, 0, 64, 82
1, 347460, Note_on_c, 0, 74, 62
1, 347464, Control_c, 0, 64, 90
1, 347470, Note_on_c, 0, 69, 42
1, 347473, Note_on_c, 0, 65, 43
1, 347479, Control_c, 0, 64, 101
1, 347495, Control_c, 0, 64, 127
1, 347518, Note_off_c, 0, 69, 54
1, 347529, Note_off_c, 0, 65, 46
1, 347544, Note_off_c, 0, 74, 55
1, 347651, Note_on_c, 0, 74, 72
1, 347661, Note_on_c, 0, 69, 50
1, 347670, Note_on_c, 0, 65, 37
1, 347704, Note_off_c, 0, 69, 58
1, 347721, Note_off_c, 0, 65, 46
1, 347730, Note_off_c, 0, 74, 51
1, 347813, Control_c, 0, 67, 117
1, 347828, Control_c, 0, 67, 110
1, 347840, Note_on_c, 0, 74, 75
1, 347843, Control_c, 0, 67, 108
1, 347861, Note_on_c, 0, 69, 43
1, 347865, Note_on_c, 0, 65, 38
1, 347873, Control_c, 0, 67, 106
1, 347897, Note_off_c, 0, 69, 58
1, 347904, Note_off_c, 0, 65, 48
1, 347918, Control_c, 0, 67, 108
1, 347924, Note_off_c, 0, 74, 48
1, 347932, Control_c, 0, 67, 111
1, 347947, Control_c, 0, 67, 114
1, 347962, Control_c, 0, 67, 117
1, 347977, Control_c, 0, 67, 122
1, 347991, Control_c, 0, 67, 125
1, 348006, Control_c, 0, 67, 127
1, 348029, Note_on_c, 0, 74, 76
1, 348034, Note_on_c, 0, 53, 65
1, 348040, Note_on_c, 0, 69, 48
1, 348056, Note_on_c, 0, 65, 35
1, 348094, Note_off_c, 0, 69, 52
1, 348095, Control_c, 0, 64, 106
1, 348106, Note_off_c, 0, 65, 43
1, 348110, Control_c, 0, 64, 80
1, 348114, Note_off_c, 0, 74, 58
1, 348125, Control_c, 0, 64, 67
1, 348139, Control_c, 0, 64, 60
1, 348169, Control_c, 0, 64, 65
1, 348183, Control_c, 0, 64, 74
1, 348192, Note_off_c, 0, 53, 63
1, 348197, Note_on_c, 0, 74, 74
1, 348198, Control_c, 0, 64, 96
1, 348213, Control_c, 0, 64, 127
1, 348218, Note_on_c, 0, 69, 54
1, 348222, Note_on_c, 0, 65, 47
1, 348239, Note_off_c, 0, 50, 23
1, 348278, Note_off_c, 0, 69, 45
1, 348290, Note_off_c, 0, 65, 43
1, 348293, Note_off_c, 0, 74, 59
1, 348370, Control_c, 0, 64, 93
1, 348385, Control_c, 0, 64, 65
1, 348400, Control_c, 0, 64, 46
1, 348403, Note_on_c, 0, 73, 63
1, 348406, Note_on_c, 0, 57, 76
1, 348414, Control_c, 0, 64, 0
1, 348418, Note_on_c, 0, 69, 52
1, 348433, Note_on_c, 0, 65, 37
1, 348466, Note_off_c, 0, 69, 52
1, 348472, Note_off_c, 0, 65, 47
1, 348488, Control_c, 0, 64, 45
1, 348495, Note_off_c, 0, 73, 55
1, 348503, Control_c, 0, 64, 64
1, 348518, Control_c, 0, 64, 80
1, 348533, Control_c, 0, 64, 127
1, 348537, Note_off_c, 0, 57, 55
1, 348597, Note_on_c, 0, 73, 62
1, 348610, Note_on_c, 0, 69, 43
1, 348624, Note_on_c, 0, 65, 38
1, 348654, Note_off_c, 0, 73, 56
1, 348657, Note_off_c, 0, 69, 57
1, 348661, Note_off_c, 0, 65, 50
1, 348806, Note_on_c, 0, 60, 69
1, 348813, Control_c, 0, 64, 92
1, 348824, Note_on_c, 0, 72, 59
1, 348828, Control_c, 0, 64, 67
1, 348841, Note_on_c, 0, 69, 37
1, 348843, Control_c, 0, 64, 44
1, 348848, Note_on_c, 0, 65, 36
1, 348858, Control_c, 0, 64, 0
1, 348889, Note_off_c, 0, 65, 46
1, 348894, Note_off_c, 0, 69, 44
1, 348917, Control_c, 0, 64, 45
1, 348931, Control_c, 0, 64, 61
1, 348933, Note_off_c, 0, 72, 57
1, 348946, Control_c, 0, 64, 71
1, 348961, Control_c, 0, 64, 82
1, 348976, Control_c, 0, 64, 96
1, 348989, Note_on_c, 0, 57, 73
1, 348991, Control_c, 0, 64, 109
1, 349012, Note_off_c, 0, 60, 64
1, 349013, Control_c, 0, 64, 127
1, 349019, Note_on_c, 0, 69, 56
1, 349021, Note_on_c, 0, 72, 57
1, 349031, Note_on_c, 0, 65, 48
1, 349053, Note_off_c, 0, 57, 63
1, 349060, Note_off_c, 0, 69, 58
1, 349070, Note_off_c, 0, 65, 58
1, 349078, Note_off_c, 0, 72, 57
1, 349170, Note_on_c, 0, 57, 70
1, 349193, Note_on_c, 0, 72, 65
1, 349196, Note_on_c, 0, 69, 58
1, 349211, Note_on_c, 0, 65, 47
1, 349222, Control_c, 0, 64, 85
1, 349236, Control_c, 0, 64, 64
1, 349251, Control_c, 0, 64, 45
1, 349255, Note_off_c, 0, 65, 51
1, 349255, Note_off_c, 0, 69, 46
1, 349262, Note_off_c, 0, 72, 55
1, 349266, Control_c, 0, 64, 33
1, 349281, Control_c, 0, 64, 32
1, 349296, Control_c, 0, 64, 36
1, 349310, Control_c, 0, 64, 48
1, 349325, Control_c, 0, 64, 61
1, 349340, Control_c, 0, 64, 71
1, 349349, Note_on_c, 0, 55, 72
1, 349356, Control_c, 0, 64, 81
1, 349367, Note_on_c, 0, 72, 65
1, 349370, Control_c, 0, 64, 93
1, 349373, Note_on_c, 0, 65, 45
1, 349373, Note_on_c, 0, 69, 56
1, 349385, Control_c, 0, 64, 100
1, 349387, Note_off_c, 0, 57, 62
1, 349400, Control_c, 0, 64, 114
1, 349415, Control_c, 0, 64, 127
1, 349432, Note_off_c, 0, 65, 49
1, 349432, Note_off_c, 0, 55, 61
1, 349437, Note_off_c, 0, 69, 39
1, 349441, Note_off_c, 0, 72, 53
1, 349534, Note_on_c, 0, 55, 76
1, 349553, Note_on_c, 0, 69, 62
1, 349553, Note_on_c, 0, 72, 69
1, 349561, Note_on_c, 0, 65, 56
1, 349578, Control_c, 0, 64, 102
1, 349593, Control_c, 0, 64, 70
1, 349608, Control_c, 0, 64, 54
1, 349623, Control_c, 0, 64, 42
1, 349637, Control_c, 0, 64, 40
1, 349645, Note_off_c, 0, 65, 54
1, 349647, Note_off_c, 0, 72, 57
1, 349652, Control_c, 0, 64, 42
1, 349659, Note_off_c, 0, 69, 37
1, 349667, Control_c, 0, 64, 52
1, 349682, Control_c, 0, 64, 62
1, 349697, Control_c, 0, 64, 73
1, 349710, Note_on_c, 0, 53, 77
1, 349711, Control_c, 0, 64, 83
1, 349721, Note_on_c, 0, 72, 68
1, 349726, Control_c, 0, 64, 91
1, 349727, Note_on_c, 0, 69, 63
1, 349738, Note_off_c, 0, 55, 51
1, 349741, Control_c, 0, 64, 97
1, 349742, Note_on_c, 0, 65, 56
1, 349763, Control_c, 0, 64, 106
1, 349778, Control_c, 0, 64, 127
1, 349784, Note_off_c, 0, 65, 55
1, 349785, Note_off_c, 0, 53, 59
1, 349787, Note_off_c, 0, 72, 61
1, 349788, Note_off_c, 0, 69, 58
1, 349894, Note_on_c, 0, 53, 66
1, 349897, Control_c, 0, 64, 95
1, 349910, Note_on_c, 0, 73, 77
1, 349912, Note_on_c, 0, 69, 66
1, 349912, Control_c, 0, 64, 66
1, 349927, Control_c, 0, 64, 46
1, 349928, Note_on_c, 0, 65, 51
1, 349942, Control_c, 0, 64, 35
1, 349956, Control_c, 0, 64, 34
1, 349971, Control_c, 0, 64, 37
1, 349986, Control_c, 0, 64, 50
1, 350001, Control_c, 0, 64, 62
1, 350005, Note_off_c, 0, 69, 50
1, 350007, Note_off_c, 0, 65, 37
1, 350016, Control_c, 0, 64, 71
1, 350019, Note_off_c, 0, 73, 62
1, 350031, Control_c, 0, 64, 76
1, 350046, Control_c, 0, 64, 79
1, 350060, Control_c, 0, 64, 84
1, 350075, Control_c, 0, 64, 91
1, 350080, Note_on_c, 0, 73, 72
1, 350085, Note_on_c, 0, 52, 71
1, 350090, Control_c, 0, 64, 105
1, 350092, Note_on_c, 0, 69, 68
1, 350103, Note_on_c, 0, 65, 62
1, 350105, Control_c, 0, 64, 127
1, 350127, Note_off_c, 0, 53, 55
1, 350152, Note_off_c, 0, 69, 58
1, 350155, Note_off_c, 0, 52, 62
1, 350167, Note_off_c, 0, 65, 51
1, 350173, Note_off_c, 0, 73, 63
1, 350238, Control_c, 0, 64, 80
1, 350253, Control_c, 0, 64, 61
1, 350259, Note_on_c, 0, 52, 77
1, 350264, Note_on_c, 0, 74, 77
1, 350267, Control_c, 0, 64, 40
1, 350270, Note_on_c, 0, 69, 64
1, 350282, Note_on_c, 0, 65, 62
1, 350282, Control_c, 0, 64, 29
1, 350312, Control_c, 0, 64, 35
1, 350327, Control_c, 0, 64, 48
1, 350341, Control_c, 0, 64, 61
1, 350356, Control_c, 0, 64, 69
1, 350362, Note_off_c, 0, 65, 53
1, 350365, Note_off_c, 0, 69, 56
1, 350371, Control_c, 0, 64, 78
1, 350373, Note_off_c, 0, 74, 63
1, 350386, Control_c, 0, 64, 89
1, 350401, Control_c, 0, 64, 97
1, 350416, Control_c, 0, 64, 106
1, 350430, Control_c, 0, 64, 115
1, 350444, Note_on_c, 0, 74, 82
1, 350445, Note_on_c, 0, 53, 81
1, 350445, Control_c, 0, 64, 127
1, 350450, Note_off_c, 0, 52, 59
1, 350457, Note_on_c, 0, 69, 68
1, 350457, Note_on_c, 0, 65, 68
1, 350510, Note_off_c, 0, 69, 53
1, 350519, Note_off_c, 0, 53, 60
1, 350521, Note_off_c, 0, 65, 56
1, 350555, Note_off_c, 0, 74, 61
1, 350585, Control_c, 0, 64, 100
1, 350600, Control_c, 0, 64, 71
1, 350615, Control_c, 0, 64, 51
1, 350630, Note_on_c, 0, 53, 80
1, 350630, Control_c, 0, 64, 0
1, 350636, Note_on_c, 0, 77, 79
1, 350639, Note_on_c, 0, 65, 76
1, 350642, Note_on_c, 0, 69, 68
1, 350672, Note_on_c, 0, 46, 36
1, 350690, Control_c, 0, 64, 42
1, 350705, Control_c, 0, 64, 58
1, 350720, Control_c, 0, 64, 68
1, 350722, Note_off_c, 0, 46, 45
1, 350729, Note_off_c, 0, 69, 52
1, 350735, Control_c, 0, 64, 78
1, 350741, Note_off_c, 0, 65, 58
1, 350750, Control_c, 0, 64, 83
1, 350755, Note_off_c, 0, 77, 62
1, 350764, Control_c, 0, 64, 88
1, 350779, Control_c, 0, 64, 94
1, 350794, Control_c, 0, 64, 103
1, 350809, Control_c, 0, 64, 117
1, 350811, Note_on_c, 0, 50, 81
1, 350811, Note_off_c, 0, 53, 61
1, 350821, Note_on_c, 0, 77, 85
1, 350824, Note_on_c, 0, 65, 81
1, 350824, Control_c, 0, 64, 127
1, 350828, Note_on_c, 0, 69, 76
1, 350851, Note_off_c, 0, 69, 66
1, 350857, Note_off_c, 0, 65, 60
1, 350871, Note_off_c, 0, 50, 63
1, 350887, Note_off_c, 0, 77, 63
1, 350957, Control_c, 0, 64, 121
1, 350972, Control_c, 0, 64, 78
1, 350987, Control_c, 0, 64, 55
1, 350993, Note_on_c, 0, 50, 85
1, 351001, Control_c, 0, 64, 0
1, 351007, Note_on_c, 0, 81, 80
1, 351017, Note_on_c, 0, 69, 79
1, 351061, Control_c, 0, 64, 44
1, 351075, Control_c, 0, 64, 60
1, 351090, Control_c, 0, 64, 66
1, 351105, Control_c, 0, 64, 69
1, 351113, Note_off_c, 0, 69, 35
1, 351113, Note_off_c, 0, 81, 58
1, 351120, Control_c, 0, 64, 72
1, 351134, Control_c, 0, 64, 79
1, 351149, Control_c, 0, 64, 90
1, 351164, Control_c, 0, 64, 107
1, 351179, Control_c, 0, 64, 127
1, 351183, Note_on_c, 0, 81, 78
1, 351186, Note_on_c, 0, 48, 88
1, 351188, Note_on_c, 0, 69, 76
1, 351229, Note_off_c, 0, 69, 61
1, 351231, Note_off_c, 0, 50, 63
1, 351237, Note_off_c, 0, 81, 66
1, 351279, Note_off_c, 0, 48, 63
1, 351305, Control_c, 0, 64, 95
1, 351320, Control_c, 0, 64, 67
1, 351334, Control_c, 0, 64, 35
1, 351349, Control_c, 0, 64, 0
1, 351367, Note_on_c, 0, 76, 74
1, 351373, Note_on_c, 0, 50, 88
1, 351374, Note_on_c, 0, 82, 72
1, 351375, Note_on_c, 0, 70, 74
1, 351394, Control_c, 0, 64, 30
1, 351408, Control_c, 0, 64, 52
1, 351423, Control_c, 0, 64, 68
1, 351438, Control_c, 0, 64, 90
1, 351453, Control_c, 0, 64, 127
1, 351454, Note_off_c, 0, 70, 53
1, 351464, Note_off_c, 0, 76, 54
1, 351464, Note_off_c, 0, 82, 61
1, 351521, Note_off_c, 0, 50, 51
1, 351542, Note_on_c, 0, 82, 75
1, 351543, Note_on_c, 0, 48, 94
1, 351548, Note_on_c, 0, 70, 73
1, 351553, Note_on_c, 0, 76, 61
1, 351607, Note_off_c, 0, 76, 64
1, 351609, Note_off_c, 0, 70, 63
1, 351622, Note_off_c, 0, 48, 63
1, 351622, Note_off_c, 0, 82, 53
1, 351691, Control_c, 0, 64, 92
1, 351706, Control_c, 0, 64, 63
1, 351721, Control_c, 0, 64, 0
1, 351729, Note_on_c, 0, 50, 96
1, 351748, Note_on_c, 0, 69, 81
1, 351752, Note_on_c, 0, 77, 67
1, 351754, Note_on_c, 0, 81, 57
1, 351765, Control_c, 0, 64, 44
1, 351774, Note_off_c, 0, 81, 64
1, 351778, Note_off_c, 0, 77, 69
1, 351780, Control_c, 0, 64, 66
1, 351795, Note_off_c, 0, 69, 59
1, 351795, Control_c, 0, 64, 93
1, 351810, Control_c, 0, 64, 127
1, 351918, Note_on_c, 0, 69, 69
1, 351939, Note_on_c, 0, 62, 58
1, 351940, Note_on_c, 0, 65, 57
1, 351964, Note_off_c, 0, 65, 60
1, 351979, Note_off_c, 0, 62, 58
1, 351980, Note_off_c, 0, 69, 57
1, 352054, Control_c, 0, 64, 115
1, 352069, Control_c, 0, 64, 97
1, 352084, Control_c, 0, 64, 86
1, 352099, Control_c, 0, 64, 77
1, 352113, Control_c, 0, 64, 71
1, 352118, Note_on_c, 0, 69, 67
1, 352126, Note_on_c, 0, 65, 61
1, 352128, Control_c, 0, 64, 66
1, 352129, Note_off_c, 0, 50, 66
1, 352136, Note_on_c, 0, 62, 61
1, 352143, Control_c, 0, 64, 62
1, 352157, Control_c, 0, 64, 60
1, 352171, Note_off_c, 0, 65, 57
1, 352172, Control_c, 0, 64, 57
1, 352176, Note_off_c, 0, 62, 56
1, 352180, Note_off_c, 0, 69, 60
1, 352187, Control_c, 0, 64, 54
1, 352202, Control_c, 0, 64, 49
1, 352217, Control_c, 0, 64, 44
1, 352231, Control_c, 0, 64, 39
1, 352246, Control_c, 0, 64, 33
1, 352261, Control_c, 0, 64, 0
1, 352303, Note_on_c, 0, 69, 62
1, 352307, Note_on_c, 0, 65, 56
1, 352320, Note_on_c, 0, 62, 55
1, 352368, Note_off_c, 0, 62, 53
1, 352371, Note_off_c, 0, 69, 56
1, 352371, Note_off_c, 0, 65, 53
1, 352493, Note_on_c, 0, 65, 55
1, 352496, Note_on_c, 0, 69, 50
1, 352500, Note_on_c, 0, 62, 47
1, 352544, Note_off_c, 0, 65, 54
1, 352548, Note_off_c, 0, 62, 56
1, 352552, Note_off_c, 0, 69, 55
1, 352669, Note_on_c, 0, 65, 50
1, 352669, Note_on_c, 0, 69, 59
1, 352677, Note_on_c, 0, 62, 53
1, 352719, Note_off_c, 0, 65, 55
1, 352720, Note_off_c, 0, 69, 55
1, 352727, Note_off_c, 0, 62, 55
1, 352859, Note_on_c, 0, 65, 48
1, 352860, Note_on_c, 0, 69, 48
1, 352868, Note_on_c, 0, 62, 50
1, 352910, Note_off_c, 0, 69, 56
1, 352911, Note_off_c, 0, 62, 58
1, 352911, Note_off_c, 0, 65, 57
1, 353037, Note_on_c, 0, 65, 43
1, 353040, Note_on_c, 0, 69, 48
1, 353053, Note_on_c, 0, 62, 39
1, 353097, Note_off_c, 0, 65, 56
1, 353098, Note_off_c, 0, 69, 52
1, 353104, Note_off_c, 0, 62, 48
1, 353159, Control_c, 0, 64, 28
1, 353174, Control_c, 0, 64, 40
1, 353189, Control_c, 0, 64, 54
1, 353203, Control_c, 0, 64, 63
1, 353214, Note_on_c, 0, 40, 32
1, 353214, Note_on_c, 0, 65, 48
1, 353218, Control_c, 0, 64, 67
1, 353227, Note_on_c, 0, 62, 37
1, 353227, Note_on_c, 0, 69, 47
1, 353233, Control_c, 0, 64, 69
1, 353248, Control_c, 0, 64, 70
1, 353252, Note_off_c, 0, 40, 50
1, 353256, Note_off_c, 0, 65, 51
1, 353265, Note_off_c, 0, 69, 49
1, 353269, Note_off_c, 0, 62, 47
1, 353274, Note_on_c, 0, 38, 48
1, 353308, Note_off_c, 0, 38, 53
1, 353337, Note_on_c, 0, 40, 54
1, 353367, Note_off_c, 0, 40, 57
1, 353382, Control_c, 0, 64, 69
1, 353406, Note_on_c, 0, 69, 41
1, 353408, Note_on_c, 0, 38, 38
1, 353411, Note_on_c, 0, 65, 33
1, 353426, Control_c, 0, 64, 68
1, 353441, Control_c, 0, 64, 66
1, 353445, Note_off_c, 0, 38, 46
1, 353447, Poly_aftertouch_c, 0, 62, 127
1, 353455, Note_off_c, 0, 69, 46
1, 353456, Note_on_c, 0, 40, 50
1, 353456, Control_c, 0, 64, 65
1, 353460, Note_off_c, 0, 65, 45
1, 353485, Control_c, 0, 64, 64
1, 353487, Note_off_c, 0, 40, 59
1, 353493, Poly_aftertouch_c, 0, 62, 0
1, 353507, Control_c, 0, 64, 64
1, 353522, Control_c, 0, 64, 63
1, 353527, Note_on_c, 0, 38, 36
1, 353537, Control_c, 0, 64, 62
1, 353551, Control_c, 0, 64, 62
1, 353571, Note_off_c, 0, 38, 44
1, 353572, Note_on_c, 0, 40, 61
1, 353578, Note_on_c, 0, 65, 40
1, 353581, Control_c, 0, 64, 61
1, 353584, Note_on_c, 0, 69, 43
1, 353596, Control_c, 0, 64, 60
1, 353600, Note_on_c, 0, 62, 43
1, 353602, Note_off_c, 0, 40, 63
1, 353611, Control_c, 0, 64, 59
1, 353624, Note_off_c, 0, 69, 56
1, 353626, Control_c, 0, 64, 58
1, 353627, Note_on_c, 0, 38, 51
1, 353628, Note_off_c, 0, 62, 56
1, 353629, Note_off_c, 0, 65, 51
1, 353668, Note_off_c, 0, 38, 54
1, 353694, Note_on_c, 0, 40, 49
1, 353700, Control_c, 0, 64, 57
1, 353715, Control_c, 0, 64, 58
1, 353722, Note_off_c, 0, 40, 57
1, 353751, Note_on_c, 0, 65, 49
1, 353754, Note_on_c, 0, 38, 52
1, 353764, Note_on_c, 0, 69, 43
1, 353781, Note_off_c, 0, 38, 58
1, 353795, Poly_aftertouch_c, 0, 62, 127
1, 353801, Note_off_c, 0, 65, 54
1, 353802, Note_off_c, 0, 69, 58
1, 353803, Note_on_c, 0, 40, 60
1, 353835, Poly_aftertouch_c, 0, 62, 0
1, 353836, Note_off_c, 0, 40, 63
1, 353848, Control_c, 0, 64, 57
1, 353857, Note_on_c, 0, 38, 62
1, 353879, Control_c, 0, 64, 58
1, 353901, Note_off_c, 0, 38, 60
1, 353927, Note_on_c, 0, 65, 45
1, 353927, Note_on_c, 0, 69, 47
1, 353930, Note_on_c, 0, 40, 53
1, 353933, Note_on_c, 0, 62, 46
1, 353960, Note_off_c, 0, 40, 54
1, 353967, Control_c, 0, 64, 58
1, 353968, Note_off_c, 0, 65, 53
1, 353969, Note_off_c, 0, 62, 54
1, 353971, Note_off_c, 0, 69, 59
1, 353993, Note_on_c, 0, 38, 46
1, 354025, Note_off_c, 0, 38, 50
1, 354026, Control_c, 0, 64, 59
1, 354040, Note_on_c, 0, 40, 61
1, 354041, Control_c, 0, 64, 59
1, 354072, Note_off_c, 0, 40, 63
1, 354091, Note_on_c, 0, 65, 45
1, 354100, Control_c, 0, 64, 60
1, 354101, Note_on_c, 0, 62, 32
1, 354112, Note_on_c, 0, 38, 50
1, 354115, Control_c, 0, 64, 61
1, 354119, Note_on_c, 0, 69, 15
1, 354129, Note_off_c, 0, 65, 51
1, 354130, Control_c, 0, 64, 62
1, 354146, Note_off_c, 0, 38, 51
1, 354147, Note_off_c, 0, 62, 45
1, 354165, Note_off_c, 0, 69, 51
1, 354172, Note_on_c, 0, 40, 54
1, 354189, Control_c, 0, 64, 60
1, 354204, Note_off_c, 0, 40, 61
1, 354204, Control_c, 0, 64, 57
1, 354219, Control_c, 0, 64, 51
1, 354231, Note_on_c, 0, 38, 56
1, 354234, Control_c, 0, 64, 42
1, 354256, Control_c, 0, 64, 0
1, 354270, Note_on_c, 0, 69, 56
1, 354276, Note_on_c, 0, 65, 47
1, 354295, Note_on_c, 0, 62, 29
1, 354307, Note_off_c, 0, 65, 55
1, 354312, Note_off_c, 0, 69, 58
1, 354321, Note_off_c, 0, 38, 56
1, 354332, Note_off_c, 0, 62, 47
1, 354353, Note_on_c, 0, 37, 46
1, 354410, Note_off_c, 0, 37, 63
1, 354449, Note_on_c, 0, 38, 51
1, 354462, Note_on_c, 0, 69, 47
1, 354479, Note_on_c, 0, 65, 24
1, 354509, Note_off_c, 0, 69, 56
1, 354520, Note_off_c, 0, 38, 59
1, 354520, Note_off_c, 0, 65, 50
1, 354534, Note_on_c, 0, 40, 51
1, 354546, Poly_aftertouch_c, 0, 62, 0
1, 354568, Note_off_c, 0, 40, 58
1, 354639, Note_on_c, 0, 65, 25
1, 354640, Note_on_c, 0, 69, 41
1, 354672, Note_on_c, 0, 38, 22
1, 354674, Note_on_c, 0, 62, 9
1, 354693, Note_off_c, 0, 69, 50
1, 354697, Note_off_c, 0, 65, 41
1, 354720, Note_off_c, 0, 62, 52
1, 354731, Control_c, 0, 64, 27
1, 354761, Control_c, 0, 64, 29
1, 354775, Control_c, 0, 64, 37
1, 354790, Control_c, 0, 64, 51
1, 354805, Control_c, 0, 64, 64
1, 354814, Note_on_c, 0, 69, 41
1, 354820, Control_c, 0, 64, 70
1, 354821, Note_on_c, 0, 65, 29
1, 354829, Note_on_c, 0, 62, 25
1, 354835, Control_c, 0, 64, 76
1, 354849, Control_c, 0, 64, 81
1, 354856, Note_off_c, 0, 69, 47
1, 354864, Control_c, 0, 64, 87
1, 354868, Note_off_c, 0, 65, 44
1, 354879, Control_c, 0, 64, 96
1, 354881, Note_off_c, 0, 62, 44
1, 354894, Note_off_c, 0, 38, 40
1, 354894, Control_c, 0, 64, 114
1, 354909, Control_c, 0, 64, 127
1, 355018, Note_on_c, 0, 65, 35
1, 355019, Note_on_c, 0, 62, 38
1, 355026, Note_on_c, 0, 69, 24
1, 355053, Note_off_c, 0, 65, 51
1, 355066, Note_off_c, 0, 69, 51
1, 355067, Note_off_c, 0, 62, 42
1, 355210, Note_on_c, 0, 69, 48
1, 355254, Note_off_c, 0, 69, 63
1, 355412, Note_on_c, 0, 65, 21
1, 355416, Note_on_c, 0, 69, 10
1, 355426, Note_on_c, 0, 62, 8
1, 355455, Note_off_c, 0, 65, 52
1, 355463, Note_off_c, 0, 69, 52
1, 355480, Note_off_c, 0, 62, 47
1, 355616, Poly_aftertouch_c, 0, 62, 127
1, 355616, Poly_aftertouch_c, 0, 65, 127
1, 355637, Poly_aftertouch_c, 0, 69, 127
1, 355668, Poly_aftertouch_c, 0, 62, 0
1, 355668, Poly_aftertouch_c, 0, 65, 0
1, 355675, Poly_aftertouch_c, 0, 69, 0
1, 355782, Note_on_c, 0, 77, 63
1, 355827, Note_on_c, 0, 65, 24
1, 355856, Poly_aftertouch_c, 0, 62, 127
1, 355861, Poly_aftertouch_c, 0, 69, 127
1, 355867, Note_off_c, 0, 65, 50
1, 355900, Poly_aftertouch_c, 0, 69, 0
1, 355903, Note_off_c, 0, 77, 62
1, 355904, Poly_aftertouch_c, 0, 62, 0
1, 355984, Note_on_c, 0, 65, 37
1, 355988, Note_on_c, 0, 62, 36
1, 356035, Poly_aftertouch_c, 0, 69, 127
1, 356036, Note_off_c, 0, 65, 44
1, 356048, Note_off_c, 0, 62, 44
1, 356082, Poly_aftertouch_c, 0, 69, 0
1, 356175, Note_on_c, 0, 77, 59
1, 356183, Note_on_c, 0, 62, 40
1, 356187, Note_on_c, 0, 65, 44
1, 356191, Note_on_c, 0, 69, 42
1, 356264, Note_off_c, 0, 65, 57
1, 356264, Note_off_c, 0, 69, 50
1, 356266, Note_off_c, 0, 62, 55
1, 356380, Note_on_c, 0, 62, 20
1, 356383, Note_on_c, 0, 65, 28
1, 356414, Poly_aftertouch_c, 0, 69, 127
1, 356419, Note_off_c, 0, 65, 50
1, 356427, Note_off_c, 0, 62, 45
1, 356460, Poly_aftertouch_c, 0, 69, 0
1, 356566, Note_on_c, 0, 76, 70
1, 356591, Note_on_c, 0, 62, 24
1, 356614, Note_on_c, 0, 65, 8
1, 356622, Note_off_c, 0, 77, 62
1, 356631, Note_off_c, 0, 62, 52
1, 356634, Poly_aftertouch_c, 0, 69, 127
1, 356668, Note_off_c, 0, 65, 48
1, 356678, Poly_aftertouch_c, 0, 69, 0
1, 356726, Control_c, 0, 67, 117
1, 356741, Control_c, 0, 67, 109
1, 356747, Note_on_c, 0, 69, 33
1, 356755, Control_c, 0, 67, 104
1, 356756, Note_on_c, 0, 62, 33
1, 356765, Note_on_c, 0, 65, 34
1, 356770, Control_c, 0, 67, 99
1, 356785, Control_c, 0, 67, 95
1, 356800, Control_c, 0, 67, 93
1, 356801, Note_off_c, 0, 65, 51
1, 356802, Note_off_c, 0, 62, 46
1, 356814, Note_off_c, 0, 69, 44
1, 356917, Control_c, 0, 67, 93
1, 356927, Note_on_c, 0, 77, 79
1, 356944, Note_on_c, 0, 69, 38
1, 356947, Note_on_c, 0, 65, 29
1, 356953, Note_on_c, 0, 62, 25
1, 356977, Control_c, 0, 67, 95
1, 356991, Control_c, 0, 67, 95
1, 357002, Note_off_c, 0, 69, 44
1, 357004, Note_off_c, 0, 62, 46
1, 357009, Note_off_c, 0, 76, 55
1, 357012, Note_off_c, 0, 65, 42
1, 357051, Control_c, 0, 67, 97
1, 357128, Note_on_c, 0, 62, 17
1, 357134, Note_on_c, 0, 65, 25
1, 357140, Control_c, 0, 67, 99
1, 357170, Note_off_c, 0, 65, 51
1, 357170, Poly_aftertouch_c, 0, 69, 127
1, 357175, Note_off_c, 0, 62, 48
1, 357215, Control_c, 0, 67, 102
1, 357218, Poly_aftertouch_c, 0, 69, 0
1, 357285, Note_on_c, 0, 79, 80
1, 357300, Note_on_c, 0, 62, 48
1, 357309, Note_on_c, 0, 65, 40
1, 357342, Note_on_c, 0, 69, 22
1, 357350, Note_off_c, 0, 62, 49
1, 357353, Note_off_c, 0, 65, 46
1, 357385, Note_off_c, 0, 69, 53
1, 357402, Note_off_c, 0, 77, 47
1, 357445, Control_c, 0, 67, 105
1, 357474, Control_c, 0, 67, 107
1, 357475, Note_on_c, 0, 65, 45
1, 357481, Note_on_c, 0, 62, 33
1, 357488, Note_on_c, 0, 69, 43
1, 357524, Note_off_c, 0, 65, 47
1, 357525, Note_off_c, 0, 62, 46
1, 357525, Note_off_c, 0, 69, 49
1, 357533, Control_c, 0, 67, 109
1, 357548, Control_c, 0, 67, 112
1, 357607, Control_c, 0, 67, 114
1, 357622, Control_c, 0, 67, 118
1, 357660, Note_on_c, 0, 81, 83
1, 357683, Note_on_c, 0, 69, 39
1, 357684, Note_on_c, 0, 65, 33
1, 357688, Note_on_c, 0, 62, 42
1, 357694, Note_off_c, 0, 79, 63
1, 357695, Control_c, 0, 67, 122
1, 357710, Control_c, 0, 67, 127
1, 357732, Note_off_c, 0, 65, 57
1, 357733, Note_off_c, 0, 62, 52
1, 357735, Note_off_c, 0, 69, 46
1, 357851, Note_on_c, 0, 62, 44
1, 357852, Note_on_c, 0, 69, 43
1, 357854, Note_on_c, 0, 65, 42
1, 357877, Note_off_c, 0, 62, 57
1, 357884, Note_off_c, 0, 69, 54
1, 357885, Note_off_c, 0, 65, 54
1, 358055, Note_on_c, 0, 61, 49
1, 358059, Note_on_c, 0, 65, 43
1, 358060, Control_c, 0, 64, 87
1, 358074, Control_c, 0, 64, 67
1, 358075, Note_on_c, 0, 69, 35
1, 358089, Control_c, 0, 64, 59
1, 358104, Control_c, 0, 64, 58
1, 358119, Control_c, 0, 64, 60
1, 358133, Control_c, 0, 64, 66
1, 358135, Note_off_c, 0, 69, 46
1, 358148, Control_c, 0, 64, 78
1, 358163, Control_c, 0, 64, 103
1, 358164, Note_off_c, 0, 65, 38
1, 358178, Control_c, 0, 64, 127
1, 358199, Note_off_c, 0, 61, 0
1, 358218, Note_on_c, 0, 61, 27
1, 358243, Note_on_c, 0, 65, 31
1, 358267, Note_on_c, 0, 69, 35
1, 358295, Note_off_c, 0, 65, 58
1, 358297, Note_off_c, 0, 61, 54
1, 358300, Note_off_c, 0, 69, 54
1, 358422, Note_on_c, 0, 60, 57
1, 358430, Note_on_c, 0, 65, 44
1, 358436, Note_on_c, 0, 69, 36
1, 358460, Control_c, 0, 64, 95
1, 358474, Control_c, 0, 64, 80
1, 358489, Control_c, 0, 64, 73
1, 358504, Note_off_c, 0, 65, 51
1, 358504, Control_c, 0, 64, 74
1, 358509, Note_off_c, 0, 69, 50
1, 358518, Control_c, 0, 64, 82
1, 358526, Note_off_c, 0, 60, 54
1, 358533, Control_c, 0, 64, 104
1, 358548, Control_c, 0, 64, 127
1, 358594, Note_on_c, 0, 60, 36
1, 358629, Note_on_c, 0, 65, 29
1, 358631, Note_on_c, 0, 69, 36
1, 358637, Note_off_c, 0, 60, 64
1, 358667, Note_off_c, 0, 65, 51
1, 358673, Note_off_c, 0, 69, 49
1, 358803, Note_on_c, 0, 79, 76
1, 358825, Note_on_c, 0, 59, 52
1, 358826, Note_on_c, 0, 65, 44
1, 358837, Note_on_c, 0, 69, 40
1, 358838, Control_c, 0, 64, 92
1, 358853, Control_c, 0, 64, 75
1, 358868, Control_c, 0, 64, 66
1, 358880, Note_off_c, 0, 65, 54
1, 358883, Control_c, 0, 64, 64
1, 358897, Control_c, 0, 64, 68
1, 358912, Control_c, 0, 64, 79
1, 358927, Note_off_c, 0, 69, 37
1, 358927, Control_c, 0, 64, 101
1, 358942, Control_c, 0, 64, 127
1, 358970, Note_off_c, 0, 59, 0
1, 358989, Note_on_c, 0, 59, 28
1, 358995, Note_on_c, 0, 65, 57
1, 358997, Note_on_c, 0, 77, 82
1, 359006, Note_on_c, 0, 69, 25
1, 359027, Note_off_c, 0, 81, 50
1, 359029, Note_off_c, 0, 59, 53
1, 359031, Note_off_c, 0, 65, 53
1, 359041, Note_off_c, 0, 69, 55
1, 359063, Note_off_c, 0, 79, 64
1, 359220, Note_on_c, 0, 65, 58
1, 359222, Control_c, 0, 64, 87
1, 359230, Note_on_c, 0, 79, 73
1, 359237, Control_c, 0, 64, 63
1, 359239, Note_on_c, 0, 58, 50
1, 359247, Note_on_c, 0, 67, 43
1, 359252, Control_c, 0, 64, 45
1, 359264, Note_off_c, 0, 77, 63
1, 359266, Control_c, 0, 64, 37
1, 359281, Control_c, 0, 64, 39
1, 359296, Control_c, 0, 64, 49
1, 359297, Note_off_c, 0, 58, 39
1, 359297, Note_off_c, 0, 67, 44
1, 359311, Control_c, 0, 64, 61
1, 359320, Note_off_c, 0, 65, 56
1, 359326, Control_c, 0, 64, 72
1, 359340, Control_c, 0, 64, 84
1, 359348, Note_off_c, 0, 79, 65
1, 359355, Control_c, 0, 64, 103
1, 359370, Control_c, 0, 64, 127
1, 359414, Note_on_c, 0, 65, 36
1, 359431, Note_on_c, 0, 67, 38
1, 359446, Note_off_c, 0, 65, 52
1, 359468, Note_on_c, 0, 58, 3
1, 359478, Note_off_c, 0, 67, 49
1, 359514, Note_off_c, 0, 58, 50
1, 359667, Note_on_c, 0, 79, 61
1, 359675, Control_c, 0, 64, 99
1, 359680, Note_on_c, 0, 58, 34
1, 359684, Note_on_c, 0, 62, 45
1, 359685, Note_on_c, 0, 67, 38
1, 359690, Control_c, 0, 64, 72
1, 359704, Control_c, 0, 64, 53
1, 359719, Control_c, 0, 64, 44
1, 359734, Control_c, 0, 64, 43
1, 359749, Note_off_c, 0, 62, 52
1, 359749, Note_off_c, 0, 67, 55
1, 359749, Control_c, 0, 64, 48
1, 359764, Control_c, 0, 64, 59
1, 359779, Note_off_c, 0, 58, 38
1, 359779, Control_c, 0, 64, 70
1, 359793, Control_c, 0, 64, 85
1, 359808, Control_c, 0, 64, 110
1, 359823, Control_c, 0, 64, 127
1, 359844, Note_off_c, 0, 79, 63
1, 359879, Note_on_c, 0, 67, 39
1, 359880, Note_on_c, 0, 62, 35
1, 359923, Note_off_c, 0, 67, 48
1, 359938, Note_off_c, 0, 62, 43
1, 359943, Poly_aftertouch_c, 0, 58, 0
1, 360060, Control_c, 0, 64, 111
1, 360061, Note_on_c, 0, 79, 57
1, 360063, Note_on_c, 0, 58, 45
1, 360071, Note_on_c, 0, 64, 42
1, 360075, Control_c, 0, 64, 79
1, 360077, Note_on_c, 0, 67, 29
1, 360089, Control_c, 0, 64, 64
1, 360104, Control_c, 0, 64, 56
1, 360119, Control_c, 0, 64, 57
1, 360124, Note_off_c, 0, 58, 46
1, 360128, Note_off_c, 0, 67, 46
1, 360134, Control_c, 0, 64, 62
1, 360149, Control_c, 0, 64, 69
1, 360163, Control_c, 0, 64, 81
1, 360178, Control_c, 0, 64, 98
1, 360193, Control_c, 0, 64, 115
1, 360208, Control_c, 0, 64, 127
1, 360209, Note_off_c, 0, 64, 0
1, 360236, Note_on_c, 0, 58, 39
1, 360244, Note_on_c, 0, 64, 26
1, 360255, Note_on_c, 0, 67, 41
1, 360290, Note_off_c, 0, 64, 56
1, 360324, Note_off_c, 0, 67, 51
1, 360329, Note_off_c, 0, 58, 62
1, 360439, Control_c, 0, 64, 98
1, 360453, Note_on_c, 0, 77, 53
1, 360454, Control_c, 0, 64, 73
1, 360468, Control_c, 0, 64, 60
1, 360470, Note_on_c, 0, 67, 25
1, 360483, Control_c, 0, 64, 54
1, 360484, Note_on_c, 0, 61, 26
1, 360498, Control_c, 0, 64, 54
1, 360504, Note_off_c, 0, 79, 36
1, 360512, Poly_aftertouch_c, 0, 57, 127
1, 360513, Control_c, 0, 64, 58
1, 360523, Note_off_c, 0, 67, 47
1, 360525, Note_off_c, 0, 61, 50
1, 360527, Control_c, 0, 64, 66
1, 360542, Control_c, 0, 64, 74
1, 360557, Control_c, 0, 64, 85
1, 360572, Control_c, 0, 64, 93
1, 360587, Control_c, 0, 64, 100
1, 360588, Poly_aftertouch_c, 0, 57, 0
1, 360601, Control_c, 0, 64, 117
1, 360606, Note_on_c, 0, 57, 24
1, 360616, Control_c, 0, 64, 127
1, 360634, Note_on_c, 0, 76, 54
1, 360639, Note_on_c, 0, 67, 36
1, 360640, Note_on_c, 0, 61, 37
1, 360649, Note_off_c, 0, 77, 52
1, 360657, Note_off_c, 0, 57, 60
1, 360672, Note_off_c, 0, 61, 51
1, 360676, Note_off_c, 0, 67, 51
1, 360772, Note_off_c, 0, 76, 37
1, 360824, Control_c, 0, 64, 99
1, 360837, Note_on_c, 0, 77, 52
1, 360838, Note_on_c, 0, 62, 46
1, 360839, Control_c, 0, 64, 71
1, 360854, Control_c, 0, 64, 55
1, 360859, Note_on_c, 0, 65, 21
1, 360868, Control_c, 0, 64, 47
1, 360883, Control_c, 0, 64, 48
1, 360898, Control_c, 0, 64, 52
1, 360912, Control_c, 0, 64, 59
1, 360923, Note_off_c, 0, 65, 42
1, 360927, Control_c, 0, 64, 66
1, 360942, Control_c, 0, 64, 73
1, 360957, Control_c, 0, 64, 84
1, 360972, Control_c, 0, 64, 100
1, 360994, Control_c, 0, 64, 127
1, 360998, Note_off_c, 0, 62, 0
1, 360998, Note_off_c, 0, 77, 64
1, 361019, Note_on_c, 0, 65, 51
1, 361020, Note_on_c, 0, 62, 27
1, 361075, Note_off_c, 0, 65, 53
1, 361095, Note_off_c, 0, 62, 42
1, 361206, Note_on_c, 0, 65, 44
1, 361212, Note_on_c, 0, 62, 36
1, 361277, Note_off_c, 0, 62, 39
1, 361296, Note_off_c, 0, 65, 35
1, 361364, Note_on_c, 0, 65, 43
1, 361367, Note_on_c, 0, 62, 45
1, 361394, Note_off_c, 0, 65, 63
1, 361407, Note_off_c, 0, 62, 64
1, 361552, Note_on_c, 0, 62, 45
1, 361579, Note_on_c, 0, 69, 33
1, 361581, Note_on_c, 0, 65, 32
1, 361608, Note_off_c, 0, 62, 58
1, 361617, Note_off_c, 0, 65, 50
1, 361622, Note_off_c, 0, 69, 48
1, 361749, Note_on_c, 0, 65, 44
1, 361750, Note_on_c, 0, 69, 50
1, 361765, Note_on_c, 0, 62, 38
1, 361797, Note_off_c, 0, 65, 55
1, 361800, Note_off_c, 0, 69, 54
1, 361826, Note_off_c, 0, 62, 56
1, 361943, Note_on_c, 0, 65, 33
1, 361945, Note_on_c, 0, 69, 40
1, 361958, Note_on_c, 0, 62, 28
1, 361996, Note_off_c, 0, 65, 44
1, 361999, Note_off_c, 0, 62, 49
1, 362001, Note_off_c, 0, 69, 57
1, 362114, Note_on_c, 0, 65, 39
1, 362124, Note_on_c, 0, 62, 25
1, 362127, Note_on_c, 0, 69, 40
1, 362150, Note_off_c, 0, 65, 51
1, 362160, Note_off_c, 0, 69, 56
1, 362172, Note_off_c, 0, 62, 47
1, 362247, Control_c, 0, 64, 123
1, 362262, Control_c, 0, 64, 114
1, 362276, Note_on_c, 0, 40, 44
1, 362277, Control_c, 0, 64, 103
1, 362291, Control_c, 0, 64, 91
1, 362306, Note_on_c, 0, 65, 34
1, 362306, Note_on_c, 0, 69, 35
1, 362306, Control_c, 0, 64, 81
1, 362317, Note_on_c, 0, 62, 29
1, 362318, Note_off_c, 0, 40, 53
1, 362321, Control_c, 0, 64, 75
1, 362336, Control_c, 0, 64, 71
1, 362347, Note_on_c, 0, 38, 47
1, 362351, Control_c, 0, 64, 68
1, 362355, Note_off_c, 0, 65, 44
1, 362364, Note_off_c, 0, 69, 44
1, 362366, Control_c, 0, 64, 67
1, 362375, Note_off_c, 0, 62, 43
1, 362381, Control_c, 0, 64, 66
1, 362391, Note_off_c, 0, 38, 52
1, 362396, Control_c, 0, 64, 65
1, 362411, Control_c, 0, 64, 63
1, 362415, Note_on_c, 0, 40, 52
1, 362426, Control_c, 0, 64, 62
1, 362440, Control_c, 0, 64, 62
1, 362451, Note_off_c, 0, 40, 58
1, 362470, Control_c, 0, 64, 61
1, 362488, Note_on_c, 0, 38, 50
1, 362491, Control_c, 0, 64, 61
1, 362500, Note_on_c, 0, 69, 45
1, 362506, Control_c, 0, 64, 60
1, 362508, Note_on_c, 0, 65, 28
1, 362521, Control_c, 0, 64, 59
1, 362524, Note_on_c, 0, 62, 20
1, 362524, Note_off_c, 0, 38, 54
1, 362544, Note_on_c, 0, 40, 57
1, 362556, Note_off_c, 0, 69, 55
1, 362563, Note_off_c, 0, 65, 44
1, 362566, Control_c, 0, 64, 59
1, 362571, Note_off_c, 0, 62, 48
1, 362575, Note_off_c, 0, 40, 58
1, 362581, Control_c, 0, 64, 58
1, 362596, Control_c, 0, 64, 58
1, 362609, Note_on_c, 0, 38, 56
1, 362637, Note_off_c, 0, 38, 55
1, 362640, Control_c, 0, 64, 57
1, 362655, Control_c, 0, 64, 56
1, 362657, Note_on_c, 0, 40, 58
1, 362670, Control_c, 0, 64, 54
1, 362681, Note_on_c, 0, 65, 36
1, 362687, Note_on_c, 0, 69, 40
1, 362691, Note_off_c, 0, 40, 63
1, 362691, Note_on_c, 0, 62, 15
1, 362709, Note_on_c, 0, 38, 58
1, 362724, Note_off_c, 0, 65, 46
1, 362728, Note_off_c, 0, 69, 49
1, 362730, Control_c, 0, 64, 53
1, 362741, Note_off_c, 0, 62, 48
1, 362742, Note_off_c, 0, 38, 56
1, 362745, Control_c, 0, 64, 51
1, 362759, Control_c, 0, 64, 50
1, 362765, Note_on_c, 0, 40, 61
1, 362801, Note_off_c, 0, 40, 63
1, 362830, Note_on_c, 0, 38, 48
1, 362849, Note_on_c, 0, 69, 41
1, 362853, Note_on_c, 0, 65, 41
1, 362861, Note_on_c, 0, 62, 29
1, 362862, Note_off_c, 0, 38, 55
1, 362876, Note_on_c, 0, 40, 64
1, 362903, Note_off_c, 0, 65, 44
1, 362908, Control_c, 0, 64, 49
1, 362911, Note_off_c, 0, 69, 54
1, 362911, Note_off_c, 0, 62, 46
1, 362912, Note_off_c, 0, 40, 62
1, 362955, Note_on_c, 0, 38, 32
1, 362988, Note_on_c, 0, 40, 59
1, 363022, Note_on_c, 0, 65, 42
1, 363023, Note_off_c, 0, 38, 0
1, 363023, Note_off_c, 0, 40, 62
1, 363037, Note_on_c, 0, 69, 43
1, 363039, Note_on_c, 0, 38, 42
1, 363043, Note_on_c, 0, 62, 13
1, 363071, Note_off_c, 0, 65, 46
1, 363084, Note_off_c, 0, 69, 46
1, 363085, Note_off_c, 0, 38, 53
1, 363096, Note_off_c, 0, 62, 46
1, 363110, Note_on_c, 0, 40, 52
1, 363140, Note_off_c, 0, 40, 55
1, 363172, Note_on_c, 0, 38, 43
1, 363189, Control_c, 0, 64, 50
1, 363211, Note_on_c, 0, 69, 46
1, 363216, Note_on_c, 0, 65, 34
1, 363248, Note_on_c, 0, 40, 42
1, 363252, Note_off_c, 0, 38, 54
1, 363255, Control_c, 0, 64, 50
1, 363266, Poly_aftertouch_c, 0, 62, 127
1, 363268, Note_off_c, 0, 65, 45
1, 363270, Control_c, 0, 64, 51
1, 363295, Note_off_c, 0, 69, 52
1, 363300, Note_off_c, 0, 40, 61
1, 363306, Poly_aftertouch_c, 0, 62, 0
1, 363380, Note_on_c, 0, 38, 51
1, 363421, Note_on_c, 0, 62, 22
1, 363421, Note_on_c, 0, 65, 9
1, 363439, Note_on_c, 0, 69, 30
1, 363463, Note_off_c, 0, 38, 59
1, 363472, Note_off_c, 0, 62, 46
1, 363478, Note_off_c, 0, 65, 48
1, 363478, Note_off_c, 0, 69, 53
1, 363490, Note_on_c, 0, 40, 42
1, 363523, Control_c, 0, 64, 50
1, 363547, Note_off_c, 0, 40, 45
1, 363587, Note_on_c, 0, 38, 45
1, 363591, Note_on_c, 0, 69, 41
1, 363592, Note_on_c, 0, 65, 30
1, 363616, Note_on_c, 0, 62, 21
1, 363641, Note_off_c, 0, 69, 62
1, 363668, Note_off_c, 0, 65, 40
1, 363669, Note_off_c, 0, 62, 45
1, 363690, Note_off_c, 0, 38, 54
1, 363731, Note_on_c, 0, 36, 18
1, 363863, Control_c, 0, 64, 51
1, 363872, Note_on_c, 0, 70, 36
1, 363878, Control_c, 0, 64, 51
1, 363891, Note_on_c, 0, 65, 23
1, 363893, Control_c, 0, 64, 52
1, 363895, Note_off_c, 0, 36, 34
1, 363904, Note_on_c, 0, 34, 45
1, 363908, Control_c, 0, 64, 53
1, 363916, Note_on_c, 0, 62, 25
1, 363923, Control_c, 0, 64, 54
1, 363937, Control_c, 0, 64, 56
1, 363952, Control_c, 0, 64, 59
1, 363967, Control_c, 0, 64, 63
1, 363969, Note_off_c, 0, 62, 46
1, 363977, Note_off_c, 0, 65, 40
1, 363990, Control_c, 0, 64, 71
1, 363996, Note_off_c, 0, 70, 54
1, 364005, Control_c, 0, 64, 81
1, 364019, Control_c, 0, 64, 92
1, 364034, Control_c, 0, 64, 103
1, 364049, Control_c, 0, 64, 127
1, 364063, Note_off_c, 0, 34, 0
1, 364085, Poly_aftertouch_c, 0, 34, 0
1, 364128, Note_on_c, 0, 70, 49
1, 364142, Note_on_c, 0, 65, 32
1, 364182, Note_off_c, 0, 70, 56
1, 364195, Note_off_c, 0, 65, 45
1, 364202, Poly_aftertouch_c, 0, 62, 127
1, 364242, Poly_aftertouch_c, 0, 62, 0
1, 364328, Note_on_c, 0, 70, 40
1, 364361, Note_off_c, 0, 70, 57
1, 364378, Poly_aftertouch_c, 0, 65, 127
1, 364396, Poly_aftertouch_c, 0, 62, 127
1, 364428, Poly_aftertouch_c, 0, 65, 0
1, 364450, Poly_aftertouch_c, 0, 62, 0
1, 364530, Note_on_c, 0, 70, 49
1, 364566, Note_off_c, 0, 70, 65
1, 364716, Note_on_c, 0, 70, 46
1, 364770, Note_on_c, 0, 65, 9
1, 364792, Poly_aftertouch_c, 0, 62, 127
1, 364813, Note_off_c, 0, 70, 51
1, 364827, Note_off_c, 0, 65, 46
1, 364853, Poly_aftertouch_c, 0, 62, 0
1, 364967, Poly_aftertouch_c, 0, 62, 127
1, 365010, Poly_aftertouch_c, 0, 65, 127
1, 365047, Poly_aftertouch_c, 0, 62, 0
1, 365053, Poly_aftertouch_c, 0, 65, 0
1, 365125, Note_on_c, 0, 82, 57
1, 365126, Note_on_c, 0, 70, 41
1, 365138, Note_on_c, 0, 65, 12
1, 365141, Note_on_c, 0, 62, 18
1, 365178, Note_off_c, 0, 70, 55
1, 365194, Note_off_c, 0, 82, 60
1, 365209, Note_off_c, 0, 62, 41
1, 365242, Note_off_c, 0, 65, 35
1, 365325, Note_on_c, 0, 70, 41
1, 365338, Note_on_c, 0, 65, 30
1, 365353, Note_on_c, 0, 62, 28
1, 365369, Note_off_c, 0, 70, 57
1, 365393, Note_off_c, 0, 62, 49
1, 365401, Note_off_c, 0, 65, 42
1, 365523, Note_on_c, 0, 82, 58
1, 365553, Note_on_c, 0, 65, 11
1, 365559, Note_on_c, 0, 70, 21
1, 365567, Poly_aftertouch_c, 0, 62, 127
1, 365598, Note_off_c, 0, 70, 51
1, 365609, Note_off_c, 0, 65, 44
1, 365621, Poly_aftertouch_c, 0, 62, 0
1, 365702, Note_on_c, 0, 70, 52
1, 365740, Note_off_c, 0, 70, 62
1, 365759, Poly_aftertouch_c, 0, 62, 127
1, 365795, Poly_aftertouch_c, 0, 62, 0
1, 365813, Control_c, 0, 67, 123
1, 365829, Control_c, 0, 67, 119
1, 365843, Control_c, 0, 67, 115
1, 365884, Note_on_c, 0, 81, 70
1, 365886, Note_off_c, 0, 82, 58
1, 365889, Control_c, 0, 67, 113
1, 365946, Note_on_c, 0, 62, 12
1, 365957, Poly_aftertouch_c, 0, 72, 127
1, 365971, Poly_aftertouch_c, 0, 65, 127
1, 366005, Note_off_c, 0, 62, 44
1, 366005, Poly_aftertouch_c, 0, 72, 0
1, 366050, Poly_aftertouch_c, 0, 65, 0
1, 366068, Note_on_c, 0, 72, 35
1, 366077, Note_on_c, 0, 65, 7
1, 366089, Note_on_c, 0, 62, 8
1, 366111, Control_c, 0, 67, 111
1, 366113, Note_off_c, 0, 72, 47
1, 366139, Note_off_c, 0, 65, 44
1, 366144, Note_off_c, 0, 62, 46
1, 366271, Note_on_c, 0, 82, 65
1, 366292, Note_on_c, 0, 65, 31
1, 366298, Note_on_c, 0, 62, 27
1, 366308, Note_on_c, 0, 74, 24
1, 366333, Note_off_c, 0, 65, 49
1, 366336, Note_off_c, 0, 62, 54
1, 366337, Note_off_c, 0, 81, 61
1, 366345, Note_off_c, 0, 74, 54
1, 366456, Note_on_c, 0, 74, 42
1, 366473, Note_on_c, 0, 65, 21
1, 366493, Note_off_c, 0, 74, 49
1, 366509, Poly_aftertouch_c, 0, 62, 127
1, 366529, Note_off_c, 0, 65, 44
1, 366550, Poly_aftertouch_c, 0, 62, 0
1, 366563, Control_c, 0, 67, 113
1, 366637, Control_c, 0, 67, 115
1, 366641, Note_on_c, 0, 84, 70
1, 366667, Note_on_c, 0, 69, 31
1, 366708, Note_off_c, 0, 82, 55
1, 366712, Poly_aftertouch_c, 0, 65, 127
1, 366715, Note_off_c, 0, 69, 48
1, 366719, Poly_aftertouch_c, 0, 62, 127
1, 366753, Poly_aftertouch_c, 0, 62, 0
1, 366754, Poly_aftertouch_c, 0, 65, 0
1, 366786, Control_c, 0, 67, 117
1, 366860, Control_c, 0, 67, 120
1, 367047, Note_on_c, 0, 86, 67
1, 367060, Control_c, 0, 67, 122
1, 367065, Note_on_c, 0, 70, 42
1, 367067, Note_on_c, 0, 65, 20
1, 367070, Note_off_c, 0, 84, 64
1, 367082, Note_on_c, 0, 62, 21
1, 367089, Control_c, 0, 67, 124
1, 367119, Control_c, 0, 67, 126
1, 367121, Note_off_c, 0, 70, 59
1, 367129, Note_off_c, 0, 62, 48
1, 367143, Note_off_c, 0, 65, 41
1, 367252, Note_on_c, 0, 70, 28
1, 367281, Note_on_c, 0, 65, 5
1, 367295, Note_off_c, 0, 70, 49
1, 367339, Note_off_c, 0, 65, 47
1, 367437, Note_on_c, 0, 65, 45
1, 367439, Note_on_c, 0, 62, 35
1, 367446, Note_on_c, 0, 70, 7
1, 367492, Note_off_c, 0, 65, 49
1, 367498, Note_off_c, 0, 70, 52
1, 367503, Note_off_c, 0, 62, 45
1, 367613, Note_on_c, 0, 70, 33
1, 367627, Note_on_c, 0, 62, 18
1, 367632, Note_on_c, 0, 65, 28
1, 367678, Note_off_c, 0, 65, 47
1, 367681, Note_off_c, 0, 70, 42
1, 367683, Note_off_c, 0, 62, 45
1, 367819, Note_on_c, 0, 70, 38
1, 367821, Note_on_c, 0, 62, 30
1, 367826, Note_on_c, 0, 65, 31
1, 367862, Note_off_c, 0, 70, 48
1, 367867, Note_off_c, 0, 65, 47
1, 367884, Note_off_c, 0, 62, 42
1, 368010, Note_on_c, 0, 62, 30
1, 368010, Note_on_c, 0, 65, 30
1, 368013, Note_on_c, 0, 70, 17
1, 368073, Note_off_c, 0, 70, 46
1, 368078, Note_off_c, 0, 65, 42
1, 368083, Note_off_c, 0, 62, 40
1, 368200, Note_on_c, 0, 84, 52
1, 368212, Note_on_c, 0, 62, 34
1, 368213, Note_on_c, 0, 65, 40
1, 368225, Note_on_c, 0, 70, 18
1, 368259, Note_off_c, 0, 86, 45
1, 368274, Note_off_c, 0, 70, 49
1, 368293, Note_off_c, 0, 65, 36
1, 368363, Note_off_c, 0, 62, 31
1, 368375, Note_off_c, 0, 84, 57
1, 368396, Note_on_c, 0, 70, 52
1, 368411, Note_on_c, 0, 82, 52
1, 368412, Note_on_c, 0, 65, 22
1, 368446, Note_off_c, 0, 70, 56
1, 368453, Note_off_c, 0, 65, 46
1, 368529, Note_off_c, 0, 82, 45
1, 368690, Note_on_c, 0, 84, 64
1, 368700, Note_on_c, 0, 63, 43
1, 368707, Note_on_c, 0, 70, 43
1, 368709, Note_on_c, 0, 66, 52
1, 368734, Control_c, 0, 64, 84
1, 368749, Control_c, 0, 64, 67
1, 368764, Control_c, 0, 64, 59
1, 368779, Control_c, 0, 64, 57
1, 368794, Control_c, 0, 64, 59
1, 368808, Control_c, 0, 64, 64
1, 368824, Control_c, 0, 64, 73
1, 368839, Control_c, 0, 64, 94
1, 368853, Control_c, 0, 64, 127
1, 368876, Note_off_c, 0, 70, 50
1, 368882, Note_off_c, 0, 63, 37
1, 368890, Note_off_c, 0, 66, 44
1, 368939, Note_off_c, 0, 84, 54
1, 369023, Note_on_c, 0, 66, 38
1, 369036, Note_on_c, 0, 70, 37
1, 369040, Note_on_c, 0, 63, 23
1, 369076, Note_off_c, 0, 66, 57
1, 369091, Note_off_c, 0, 70, 52
1, 369094, Note_off_c, 0, 63, 45
1, 369258, Note_on_c, 0, 84, 61
1, 369277, Note_on_c, 0, 63, 31
1, 369277, Note_on_c, 0, 70, 33
1, 369282, Note_on_c, 0, 66, 40
1, 369320, Note_off_c, 0, 66, 54
1, 369325, Note_off_c, 0, 63, 47
1, 369326, Note_off_c, 0, 70, 56
1, 369364, Note_off_c, 0, 84, 55
1, 369462, Note_on_c, 0, 70, 42
1, 369472, Note_on_c, 0, 63, 33
1, 369481, Note_on_c, 0, 66, 25
1, 369526, Note_off_c, 0, 66, 49
1, 369531, Note_off_c, 0, 63, 44
1, 369532, Note_off_c, 0, 70, 51
1, 369665, Note_on_c, 0, 63, 22
1, 369666, Note_on_c, 0, 84, 65
1, 369669, Note_on_c, 0, 70, 47
1, 369675, Note_on_c, 0, 66, 38
1, 369713, Note_off_c, 0, 66, 58
1, 369722, Note_off_c, 0, 70, 53
1, 369761, Note_off_c, 0, 63, 33
1, 369881, Note_on_c, 0, 70, 23
1, 369895, Note_on_c, 0, 66, 9
1, 369910, Poly_aftertouch_c, 0, 63, 127
1, 369925, Note_off_c, 0, 70, 49
1, 369954, Note_off_c, 0, 66, 46
1, 369966, Poly_aftertouch_c, 0, 63, 0
1, 370065, Note_on_c, 0, 82, 53
1, 370069, Note_on_c, 0, 66, 28
1, 370073, Note_on_c, 0, 70, 21
1, 370084, Poly_aftertouch_c, 0, 63, 127
1, 370120, Note_off_c, 0, 66, 57
1, 370134, Note_off_c, 0, 70, 54
1, 370150, Poly_aftertouch_c, 0, 63, 0
1, 370194, Note_off_c, 0, 84, 31
1, 370227, Note_off_c, 0, 82, 58
1, 370250, Note_on_c, 0, 81, 55
1, 370373, Note_off_c, 0, 81, 58
1, 370428, Note_on_c, 0, 82, 58
1, 370452, Note_on_c, 0, 70, 31
1, 370457, Note_on_c, 0, 65, 27
1, 370462, Note_on_c, 0, 62, 31
1, 370514, Control_c, 0, 64, 85
1, 370529, Control_c, 0, 64, 67
1, 370544, Control_c, 0, 64, 60
1, 370549, Note_off_c, 0, 62, 46
1, 370559, Control_c, 0, 64, 61
1, 370573, Control_c, 0, 64, 65
1, 370588, Control_c, 0, 64, 73
1, 370592, Note_off_c, 0, 70, 0
1, 370603, Control_c, 0, 64, 90
1, 370607, Note_on_c, 0, 70, 41
1, 370614, Note_on_c, 0, 62, 29
1, 370618, Control_c, 0, 64, 127
1, 370625, Note_off_c, 0, 65, 0
1, 370625, Note_on_c, 0, 65, 3
1, 370677, Note_off_c, 0, 82, 63
1, 370684, Note_off_c, 0, 70, 59
1, 370688, Note_off_c, 0, 62, 43
1, 370697, Note_off_c, 0, 65, 40
1, 370817, Note_on_c, 0, 62, 41
1, 370818, Note_on_c, 0, 65, 46
1, 370832, Note_on_c, 0, 70, 34
1, 370868, Note_off_c, 0, 70, 53
1, 370876, Note_off_c, 0, 62, 41
1, 370878, Note_off_c, 0, 65, 44
1, 370999, Note_on_c, 0, 65, 42
1, 371000, Note_on_c, 0, 70, 34
1, 371015, Note_on_c, 0, 62, 35
1, 371030, Note_off_c, 0, 65, 59
1, 371030, Note_off_c, 0, 70, 56
1, 371051, Note_off_c, 0, 62, 50
1, 371212, Note_on_c, 0, 70, 44
1, 371214, Note_on_c, 0, 65, 27
1, 371223, Note_on_c, 0, 62, 31
1, 371257, Note_off_c, 0, 65, 48
1, 371260, Note_off_c, 0, 70, 59
1, 371265, Note_off_c, 0, 62, 49
1, 371383, Note_on_c, 0, 70, 49
1, 371386, Note_on_c, 0, 62, 49
1, 371386, Note_on_c, 0, 65, 47
1, 371432, Note_off_c, 0, 62, 56
1, 371434, Note_off_c, 0, 70, 58
1, 371438, Note_off_c, 0, 65, 55
1, 371580, Note_on_c, 0, 65, 54
1, 371586, Note_on_c, 0, 70, 48
1, 371595, Note_on_c, 0, 62, 45
1, 371627, Note_off_c, 0, 65, 47
1, 371635, Note_off_c, 0, 70, 52
1, 371637, Note_off_c, 0, 62, 48
1, 371765, Note_on_c, 0, 70, 44
1, 371774, Note_on_c, 0, 65, 34
1, 371781, Note_on_c, 0, 62, 20
1, 371818, Note_off_c, 0, 70, 58
1, 371822, Note_off_c, 0, 65, 44
1, 371841, Note_off_c, 0, 62, 44
1, 371940, Note_on_c, 0, 36, 56
1, 371970, Note_on_c, 0, 70, 35
1, 371979, Note_on_c, 0, 62, 29
1, 371983, Note_on_c, 0, 65, 27
1, 372037, Note_off_c, 0, 70, 39
1, 372039, Note_off_c, 0, 65, 43
1, 372039, Note_off_c, 0, 36, 61
1, 372057, Note_on_c, 0, 34, 62
1, 372081, Note_off_c, 0, 62, 40
1, 372143, Note_on_c, 0, 36, 64
1, 372170, Note_on_c, 0, 65, 33
1, 372173, Note_on_c, 0, 62, 48
1, 372177, Note_off_c, 0, 34, 0
1, 372179, Note_on_c, 0, 70, 30
1, 372186, Note_off_c, 0, 36, 61
1, 372188, Control_c, 0, 64, 104
1, 372194, Note_on_c, 0, 34, 44
1, 372203, Control_c, 0, 64, 94
1, 372224, Note_off_c, 0, 62, 56
1, 372225, Control_c, 0, 64, 85
1, 372229, Note_off_c, 0, 70, 59
1, 372233, Note_off_c, 0, 65, 48
1, 372240, Control_c, 0, 64, 78
1, 372256, Control_c, 0, 64, 73
1, 372269, Note_off_c, 0, 34, 62
1, 372271, Control_c, 0, 64, 71
1, 372276, Note_on_c, 0, 36, 62
1, 372286, Control_c, 0, 64, 70
1, 372300, Control_c, 0, 64, 67
1, 372315, Control_c, 0, 64, 65
1, 372323, Note_off_c, 0, 36, 62
1, 372328, Note_on_c, 0, 34, 54
1, 372330, Control_c, 0, 64, 64
1, 372345, Note_on_c, 0, 65, 52
1, 372345, Note_on_c, 0, 70, 49
1, 372359, Note_on_c, 0, 62, 46
1, 372375, Note_off_c, 0, 34, 62
1, 372382, Note_on_c, 0, 36, 62
1, 372390, Note_off_c, 0, 70, 59
1, 372397, Note_off_c, 0, 65, 58
1, 372398, Note_off_c, 0, 62, 53
1, 372427, Note_off_c, 0, 36, 56
1, 372441, Note_on_c, 0, 34, 60
1, 372485, Note_off_c, 0, 34, 64
1, 372492, Note_on_c, 0, 36, 72
1, 372517, Note_on_c, 0, 65, 52
1, 372526, Note_on_c, 0, 70, 45
1, 372532, Note_on_c, 0, 62, 37
1, 372544, Note_off_c, 0, 36, 58
1, 372558, Note_on_c, 0, 34, 71
1, 372574, Note_off_c, 0, 62, 48
1, 372575, Note_off_c, 0, 65, 54
1, 372579, Note_off_c, 0, 70, 59
1, 372604, Note_off_c, 0, 34, 64
1, 372616, Note_on_c, 0, 36, 64
1, 372655, Note_off_c, 0, 36, 63
1, 372679, Note_on_c, 0, 34, 69
1, 372698, Note_on_c, 0, 70, 50
1, 372707, Note_on_c, 0, 65, 42
1, 372710, Note_on_c, 0, 62, 30
1, 372717, Note_off_c, 0, 34, 65
1, 372725, Note_on_c, 0, 36, 79
1, 372740, Note_off_c, 0, 65, 51
1, 372749, Note_off_c, 0, 70, 57
1, 372752, Note_off_c, 0, 62, 49
1, 372769, Note_off_c, 0, 36, 54
1, 372793, Note_on_c, 0, 34, 70
1, 372805, Control_c, 0, 64, 63
1, 372836, Note_off_c, 0, 34, 65
1, 372847, Note_on_c, 0, 36, 73
1, 372859, Note_on_c, 0, 70, 55
1, 372859, Note_on_c, 0, 62, 41
1, 372862, Note_on_c, 0, 65, 26
1, 372894, Note_off_c, 0, 70, 61
1, 372895, Note_off_c, 0, 36, 54
1, 372895, Note_off_c, 0, 62, 49
1, 372898, Note_off_c, 0, 65, 52
1, 372918, Note_on_c, 0, 34, 57
1, 372951, Note_off_c, 0, 34, 64
1, 372983, Note_on_c, 0, 36, 71
1, 373014, Note_on_c, 0, 70, 63
1, 373017, Note_on_c, 0, 65, 59
1, 373029, Note_on_c, 0, 62, 50
1, 373044, Note_off_c, 0, 36, 61
1, 373053, Note_on_c, 0, 34, 76
1, 373064, Note_off_c, 0, 62, 52
1, 373094, Control_c, 0, 64, 63
1, 373109, Control_c, 0, 64, 62
1, 373115, Note_off_c, 0, 65, 32
1, 373121, Note_off_c, 0, 70, 36
1, 373124, Control_c, 0, 64, 62
1, 373139, Control_c, 0, 64, 61
1, 373158, Note_on_c, 0, 33, 74
1, 373169, Control_c, 0, 64, 61
1, 373171, Note_off_c, 0, 34, 62
1, 373184, Control_c, 0, 64, 60
1, 373198, Control_c, 0, 64, 59
1, 373213, Control_c, 0, 64, 58
1, 373225, Note_on_c, 0, 70, 63
1, 373229, Note_on_c, 0, 34, 72
1, 373243, Note_on_c, 0, 65, 43
1, 373257, Control_c, 0, 64, 57
1, 373263, Note_on_c, 0, 62, 26
1, 373267, Note_off_c, 0, 33, 62
1, 373272, Control_c, 0, 64, 56
1, 373287, Control_c, 0, 64, 55
1, 373302, Control_c, 0, 64, 54
1, 373304, Note_off_c, 0, 62, 50
1, 373321, Note_on_c, 0, 36, 85
1, 373337, Note_off_c, 0, 65, 49
1, 373345, Control_c, 0, 64, 54
1, 373354, Note_off_c, 0, 70, 46
1, 373360, Control_c, 0, 64, 52
1, 373375, Control_c, 0, 64, 51
1, 373390, Control_c, 0, 64, 50
1, 373404, Control_c, 0, 64, 50
1, 373413, Note_off_c, 0, 34, 63
1, 373419, Control_c, 0, 64, 49
1, 373434, Control_c, 0, 64, 47
1, 373449, Control_c, 0, 64, 44
1, 373450, Note_on_c, 0, 38, 84
1, 373453, Note_on_c, 0, 69, 62
1, 373456, Note_on_c, 0, 65, 60
1, 373464, Control_c, 0, 64, 41
1, 373470, Note_on_c, 0, 62, 48
1, 373479, Control_c, 0, 64, 37
1, 373483, Note_off_c, 0, 36, 63
1, 373494, Control_c, 0, 64, 34
1, 373509, Control_c, 0, 64, 31
1, 373512, Note_off_c, 0, 65, 49
1, 373514, Note_off_c, 0, 62, 46
1, 373523, Control_c, 0, 64, 0
1, 373547, Note_off_c, 0, 69, 59
1, 373642, Control_c, 0, 64, 29
1, 373646, Note_on_c, 0, 69, 68
1, 373649, Note_on_c, 0, 65, 53
1, 373656, Control_c, 0, 64, 49
1, 373659, Note_on_c, 0, 62, 41
1, 373671, Control_c, 0, 64, 63
1, 373686, Control_c, 0, 64, 71
1, 373689, Note_off_c, 0, 65, 59
1, 373701, Control_c, 0, 64, 80
1, 373709, Note_off_c, 0, 62, 43
1, 373723, Control_c, 0, 64, 97
1, 373738, Control_c, 0, 64, 127
1, 373762, Note_off_c, 0, 69, 36
1, 373783, Note_off_c, 0, 38, 62
1, 373829, Note_on_c, 0, 69, 59
1, 373836, Note_on_c, 0, 65, 52
1, 373841, Note_on_c, 0, 62, 49
1, 373868, Note_off_c, 0, 62, 56
1, 373868, Note_off_c, 0, 65, 60
1, 373919, Note_off_c, 0, 69, 37
1, 374027, Note_on_c, 0, 69, 62
1, 374082, Note_off_c, 0, 69, 62
1, 374089, Poly_aftertouch_c, 0, 65, 127
1, 374122, Poly_aftertouch_c, 0, 65, 0
1, 374214, Note_on_c, 0, 69, 56
1, 374224, Note_on_c, 0, 65, 35
1, 374229, Note_on_c, 0, 62, 35
1, 374248, Note_off_c, 0, 69, 63
1, 374253, Note_off_c, 0, 65, 54
1, 374258, Note_off_c, 0, 62, 54
1, 374403, Note_on_c, 0, 62, 39
1, 374403, Note_on_c, 0, 65, 34
1, 374407, Note_on_c, 0, 69, 50
1, 374447, Note_off_c, 0, 69, 56
1, 374450, Note_off_c, 0, 62, 51
1, 374458, Note_off_c, 0, 65, 56
1, 374636, Note_on_c, 0, 77, 71
1, 374674, Note_on_c, 0, 69, 40
1, 374679, Note_on_c, 0, 65, 41
1, 374685, Note_on_c, 0, 62, 28
1, 374695, Control_c, 0, 64, 82
1, 374710, Control_c, 0, 64, 62
1, 374725, Control_c, 0, 64, 53
1, 374734, Note_off_c, 0, 69, 57
1, 374740, Control_c, 0, 64, 53
1, 374743, Note_off_c, 0, 65, 58
1, 374746, Note_off_c, 0, 62, 46
1, 374755, Control_c, 0, 64, 56
1, 374769, Control_c, 0, 64, 62
1, 374784, Control_c, 0, 64, 69
1, 374799, Control_c, 0, 64, 87
1, 374814, Control_c, 0, 64, 127
1, 374841, Note_on_c, 0, 62, 42
1, 374844, Note_on_c, 0, 65, 54
1, 374857, Note_on_c, 0, 69, 43
1, 374880, Note_off_c, 0, 65, 58
1, 374892, Note_off_c, 0, 62, 41
1, 374892, Note_off_c, 0, 69, 52
1, 374896, Note_off_c, 0, 77, 65
1, 375029, Note_on_c, 0, 77, 74
1, 375044, Note_on_c, 0, 62, 51
1, 375050, Note_on_c, 0, 65, 56
1, 375068, Note_on_c, 0, 69, 42
1, 375080, Control_c, 0, 67, 114
1, 375094, Control_c, 0, 67, 106
1, 375104, Note_off_c, 0, 62, 54
1, 375108, Note_off_c, 0, 69, 52
1, 375109, Note_off_c, 0, 65, 54
1, 375109, Control_c, 0, 67, 100
1, 375124, Control_c, 0, 67, 97
1, 375139, Control_c, 0, 67, 95
1, 375154, Control_c, 0, 67, 91
1, 375169, Control_c, 0, 67, 84
1, 375184, Control_c, 0, 67, 80
1, 375199, Control_c, 0, 67, 79
1, 375238, Note_on_c, 0, 69, 40
1, 375241, Note_on_c, 0, 65, 53
1, 375241, Note_on_c, 0, 62, 52
1, 375279, Note_off_c, 0, 65, 60
1, 375282, Note_off_c, 0, 62, 54
1, 375286, Note_off_c, 0, 69, 46
1, 375294, Control_c, 0, 67, 82
1, 375309, Control_c, 0, 67, 84
1, 375354, Control_c, 0, 67, 86
1, 375369, Control_c, 0, 67, 94
1, 375384, Control_c, 0, 67, 95
1, 375412, Note_on_c, 0, 76, 81
1, 375413, Control_c, 0, 67, 95
1, 375416, Note_on_c, 0, 65, 45
1, 375426, Note_on_c, 0, 69, 37
1, 375434, Note_on_c, 0, 62, 38
1, 375443, Control_c, 0, 67, 98
1, 375458, Control_c, 0, 64, 101
1, 375473, Control_c, 0, 64, 85
1, 375488, Control_c, 0, 64, 77
1, 375503, Control_c, 0, 64, 74
1, 375512, Note_off_c, 0, 77, 64
1, 375518, Control_c, 0, 67, 102
1, 375521, Note_off_c, 0, 65, 60
1, 375527, Note_off_c, 0, 69, 55
1, 375533, Control_c, 0, 64, 77
1, 375533, Control_c, 0, 67, 105
1, 375545, Note_off_c, 0, 62, 38
1, 375548, Control_c, 0, 64, 87
1, 375563, Control_c, 0, 64, 110
1, 375563, Control_c, 0, 67, 102
1, 375578, Control_c, 0, 64, 127
1, 375604, Note_on_c, 0, 62, 46
1, 375606, Note_on_c, 0, 69, 46
1, 375620, Note_on_c, 0, 65, 50
1, 375652, Control_c, 0, 67, 99
1, 375673, Note_off_c, 0, 65, 56
1, 375684, Note_off_c, 0, 62, 50
1, 375719, Note_off_c, 0, 69, 31
1, 375792, Note_on_c, 0, 77, 87
1, 375806, Note_on_c, 0, 65, 47
1, 375807, Note_on_c, 0, 62, 60
1, 375807, Note_on_c, 0, 69, 48
1, 375851, Note_off_c, 0, 62, 52
1, 375859, Control_c, 0, 67, 97
1, 375875, Note_off_c, 0, 65, 51
1, 375878, Note_off_c, 0, 69, 48
1, 375899, Note_off_c, 0, 76, 53
1, 375977, Note_on_c, 0, 69, 52
1, 375982, Note_on_c, 0, 62, 53
1, 375983, Note_on_c, 0, 65, 51
1, 376024, Note_off_c, 0, 62, 55
1, 376034, Note_off_c, 0, 65, 51
1, 376039, Note_off_c, 0, 69, 49
1, 376059, Control_c, 0, 67, 101
1, 376156, Note_on_c, 0, 79, 87
1, 376175, Note_on_c, 0, 69, 49
1, 376181, Note_on_c, 0, 62, 38
1, 376187, Note_on_c, 0, 65, 34
1, 376230, Note_off_c, 0, 62, 58
1, 376230, Note_off_c, 0, 69, 55
1, 376236, Note_off_c, 0, 65, 53
1, 376282, Note_off_c, 0, 77, 55
1, 376282, Control_c, 0, 67, 103
1, 376297, Control_c, 0, 67, 105
1, 376343, Note_on_c, 0, 65, 52
1, 376343, Note_on_c, 0, 69, 58
1, 376346, Note_on_c, 0, 62, 46
1, 376371, Control_c, 0, 67, 109
1, 376381, Note_off_c, 0, 65, 49
1, 376385, Note_off_c, 0, 62, 55
1, 376393, Note_off_c, 0, 69, 52
1, 376445, Control_c, 0, 67, 113
1, 376460, Control_c, 0, 67, 127
1, 376517, Note_on_c, 0, 81, 86
1, 376536, Note_on_c, 0, 69, 49
1, 376546, Note_on_c, 0, 62, 42
1, 376552, Note_on_c, 0, 65, 47
1, 376572, Note_off_c, 0, 79, 59
1, 376623, Control_c, 0, 64, 118
1, 376637, Note_off_c, 0, 65, 51
1, 376638, Control_c, 0, 64, 85
1, 376653, Control_c, 0, 64, 75
1, 376665, Note_off_c, 0, 69, 37
1, 376667, Control_c, 0, 64, 74
1, 376676, Note_off_c, 0, 62, 0
1, 376682, Control_c, 0, 64, 84
1, 376697, Control_c, 0, 64, 127
1, 376701, Note_on_c, 0, 62, 32
1, 376726, Note_on_c, 0, 65, 51
1, 376729, Note_on_c, 0, 69, 53
1, 376767, Note_off_c, 0, 62, 63
1, 376772, Note_off_c, 0, 65, 59
1, 376779, Note_off_c, 0, 69, 55
1, 376897, Control_c, 0, 64, 86
1, 376912, Control_c, 0, 64, 65
1, 376918, Note_on_c, 0, 61, 58
1, 376920, Note_on_c, 0, 69, 46
1, 376922, Note_on_c, 0, 65, 48
1, 376927, Control_c, 0, 64, 52
1, 376941, Control_c, 0, 64, 46
1, 376956, Control_c, 0, 64, 45
1, 376971, Control_c, 0, 64, 48
1, 376986, Control_c, 0, 64, 57
1, 377000, Control_c, 0, 64, 66
1, 377009, Note_off_c, 0, 69, 57
1, 377012, Note_off_c, 0, 65, 61
1, 377015, Control_c, 0, 64, 79
1, 377018, Note_off_c, 0, 61, 61
1, 377030, Control_c, 0, 64, 111
1, 377046, Control_c, 0, 64, 127
1, 377100, Note_on_c, 0, 61, 40
1, 377110, Note_on_c, 0, 65, 54
1, 377119, Note_on_c, 0, 69, 54
1, 377164, Note_off_c, 0, 69, 52
1, 377174, Note_off_c, 0, 61, 54
1, 377194, Note_off_c, 0, 65, 41
1, 377297, Note_on_c, 0, 60, 52
1, 377297, Note_on_c, 0, 69, 61
1, 377297, Control_c, 0, 64, 113
1, 377298, Note_on_c, 0, 65, 54
1, 377312, Control_c, 0, 64, 82
1, 377327, Control_c, 0, 64, 69
1, 377342, Control_c, 0, 64, 64
1, 377357, Control_c, 0, 64, 66
1, 377372, Control_c, 0, 64, 76
1, 377384, Note_off_c, 0, 65, 59
1, 377384, Note_off_c, 0, 69, 56
1, 377387, Control_c, 0, 64, 96
1, 377394, Note_off_c, 0, 60, 59
1, 377402, Control_c, 0, 64, 127
1, 377478, Note_on_c, 0, 60, 44
1, 377491, Note_on_c, 0, 69, 54
1, 377494, Note_on_c, 0, 65, 52
1, 377533, Note_off_c, 0, 60, 63
1, 377539, Note_off_c, 0, 65, 52
1, 377554, Note_off_c, 0, 69, 40
1, 377674, Note_on_c, 0, 79, 80
1, 377694, Note_on_c, 0, 65, 57
1, 377694, Note_on_c, 0, 59, 65
1, 377697, Note_on_c, 0, 69, 59
1, 377705, Control_c, 0, 64, 84
1, 377720, Control_c, 0, 64, 66
1, 377735, Control_c, 0, 64, 59
1, 377749, Control_c, 0, 64, 59
1, 377764, Control_c, 0, 64, 65
1, 377776, Note_off_c, 0, 65, 39
1, 377779, Control_c, 0, 64, 75
1, 377794, Control_c, 0, 64, 98
1, 377808, Control_c, 0, 64, 127
1, 377810, Note_off_c, 0, 59, 58
1, 377821, Note_off_c, 0, 69, 37
1, 377843, Note_off_c, 0, 81, 55
1, 377877, Note_on_c, 0, 77, 87
1, 377885, Note_on_c, 0, 65, 62
1, 377891, Note_on_c, 0, 69, 48
1, 377920, Note_off_c, 0, 69, 58
1, 377929, Poly_aftertouch_c, 0, 59, 127
1, 377936, Note_off_c, 0, 65, 56
1, 377942, Note_off_c, 0, 79, 62
1, 377968, Poly_aftertouch_c, 0, 59, 0
1, 378105, Control_c, 0, 64, 101
1, 378120, Control_c, 0, 64, 72
1, 378135, Control_c, 0, 64, 53
1, 378135, Note_on_c, 0, 79, 86
1, 378136, Note_on_c, 0, 65, 50
1, 378141, Note_on_c, 0, 58, 47
1, 378150, Control_c, 0, 64, 33
1, 378153, Note_on_c, 0, 67, 46
1, 378164, Control_c, 0, 64, 0
1, 378166, Note_off_c, 0, 77, 65
1, 378227, Note_off_c, 0, 67, 45
1, 378231, Control_c, 0, 64, 35
1, 378245, Control_c, 0, 64, 52
1, 378248, Note_off_c, 0, 65, 56
1, 378251, Note_off_c, 0, 58, 50
1, 378260, Control_c, 0, 64, 65
1, 378275, Control_c, 0, 64, 76
1, 378290, Control_c, 0, 64, 87
1, 378305, Control_c, 0, 64, 101
1, 378320, Control_c, 0, 64, 127
1, 378339, Note_off_c, 0, 79, 66
1, 378364, Note_on_c, 0, 65, 42
1, 378367, Note_on_c, 0, 67, 60
1, 378382, Note_on_c, 0, 58, 35
1, 378398, Note_off_c, 0, 65, 50
1, 378419, Note_off_c, 0, 67, 48
1, 378432, Note_off_c, 0, 58, 42
1, 378606, Note_on_c, 0, 79, 67
1, 378613, Note_on_c, 0, 67, 46
1, 378621, Note_on_c, 0, 62, 48
1, 378624, Note_on_c, 0, 58, 36
1, 378632, Control_c, 0, 64, 86
1, 378648, Control_c, 0, 64, 65
1, 378662, Control_c, 0, 64, 51
1, 378677, Control_c, 0, 64, 46
1, 378692, Control_c, 0, 64, 47
1, 378702, Note_off_c, 0, 62, 56
1, 378707, Control_c, 0, 64, 52
1, 378715, Note_off_c, 0, 67, 35
1, 378722, Control_c, 0, 64, 60
1, 378729, Note_off_c, 0, 58, 39
1, 378736, Control_c, 0, 64, 67
1, 378751, Control_c, 0, 64, 77
1, 378766, Control_c, 0, 64, 93
1, 378781, Control_c, 0, 64, 121
1, 378795, Control_c, 0, 64, 127
1, 378852, Note_on_c, 0, 67, 40
1, 378854, Note_on_c, 0, 62, 41
1, 378857, Note_on_c, 0, 58, 33
1, 378857, Note_off_c, 0, 79, 56
1, 378893, Note_off_c, 0, 62, 57
1, 378895, Note_off_c, 0, 58, 54
1, 378918, Note_off_c, 0, 67, 51
1, 379098, Note_on_c, 0, 64, 43
1, 379098, Note_on_c, 0, 79, 52
1, 379100, Note_on_c, 0, 67, 29
1, 379106, Note_on_c, 0, 58, 38
1, 379129, Control_c, 0, 64, 97
1, 379143, Control_c, 0, 64, 74
1, 379158, Control_c, 0, 64, 60
1, 379173, Control_c, 0, 64, 53
1, 379188, Control_c, 0, 64, 54
1, 379190, Note_off_c, 0, 64, 56
1, 379190, Note_off_c, 0, 67, 39
1, 379199, Note_off_c, 0, 58, 42
1, 379202, Control_c, 0, 64, 58
1, 379217, Control_c, 0, 64, 65
1, 379232, Control_c, 0, 64, 74
1, 379247, Control_c, 0, 64, 89
1, 379262, Control_c, 0, 64, 108
1, 379277, Control_c, 0, 64, 127
1, 379319, Note_on_c, 0, 64, 50
1, 379325, Note_on_c, 0, 67, 34
1, 379356, Note_on_c, 0, 58, 7
1, 379376, Note_off_c, 0, 64, 57
1, 379420, Note_off_c, 0, 58, 44
1, 379427, Note_off_c, 0, 67, 29
1, 379584, Note_on_c, 0, 77, 57
1, 379589, Control_c, 0, 64, 95
1, 379600, Note_on_c, 0, 58, 34
1, 379604, Note_on_c, 0, 67, 34
1, 379604, Control_c, 0, 64, 74
1, 379613, Note_on_c, 0, 60, 41
1, 379618, Control_c, 0, 64, 64
1, 379633, Control_c, 0, 64, 60
1, 379647, Note_off_c, 0, 79, 37
1, 379648, Control_c, 0, 64, 61
1, 379663, Control_c, 0, 64, 63
1, 379678, Control_c, 0, 64, 69
1, 379692, Control_c, 0, 64, 79
1, 379715, Control_c, 0, 64, 99
1, 379729, Note_off_c, 0, 60, 52
1, 379730, Control_c, 0, 64, 112
1, 379745, Control_c, 0, 64, 126
1, 379750, Note_off_c, 0, 67, 36
1, 379768, Note_off_c, 0, 58, 40
1, 379906, Note_on_c, 0, 76, 52
1, 379912, Note_on_c, 0, 58, 28
1, 379922, Note_off_c, 0, 77, 50
1, 379935, Note_on_c, 0, 67, 39
1, 379951, Note_on_c, 0, 60, 32
1, 380012, Note_off_c, 0, 67, 50
1, 380022, Note_off_c, 0, 60, 37
1, 380072, Note_off_c, 0, 58, 35
1, 380427, Control_c, 0, 64, 80
1, 380433, Note_on_c, 0, 65, 81
1, 380441, Control_c, 0, 64, 55
1, 380444, Note_on_c, 0, 60, 55
1, 380461, Note_on_c, 0, 57, 60
1, 380463, Note_on_c, 0, 77, 58
1, 380463, Control_c, 0, 64, 0
1, 380493, Control_c, 0, 64, 32
1, 380507, Note_off_c, 0, 76, 57
1, 380508, Control_c, 0, 64, 48
1, 380523, Control_c, 0, 64, 69
1, 380532, Note_off_c, 0, 57, 39
1, 380538, Control_c, 0, 64, 87
1, 380544, Note_off_c, 0, 60, 57
1, 380552, Control_c, 0, 64, 126
1, 380560, Note_off_c, 0, 65, 61
1, 381140, Note_on_c, 0, 65, 34
1, 381144, Note_on_c, 0, 60, 25
1, 381166, Note_on_c, 0, 57, 31
1, 381175, Note_on_c, 0, 63, 26
1, 381220, Note_off_c, 0, 63, 53
1, 381234, Note_off_c, 0, 57, 44
1, 381235, Note_off_c, 0, 60, 51
1, 381256, Note_off_c, 0, 65, 37
1, 381471, Note_on_c, 0, 65, 16
1, 381489, Note_on_c, 0, 60, 25
1, 381494, Note_on_c, 0, 57, 26
1, 381503, Note_on_c, 0, 63, 8
1, 381538, Note_off_c, 0, 57, 49
1, 381539, Note_off_c, 0, 60, 47
1, 381542, Note_off_c, 0, 65, 43
1, 381551, Note_off_c, 0, 63, 52
1, 381673, Note_on_c, 0, 65, 35
1, 381706, Note_on_c, 0, 60, 16
1, 381706, Note_on_c, 0, 63, 20
1, 381715, Note_on_c, 0, 57, 14
1, 381748, Note_off_c, 0, 63, 47
1, 381756, Note_off_c, 0, 57, 52
1, 381756, Note_off_c, 0, 60, 48
1, 381774, Note_off_c, 0, 65, 39
1, 381895, Note_on_c, 0, 65, 29
1, 381909, Note_on_c, 0, 63, 23
1, 381917, Note_on_c, 0, 60, 13
1, 381934, Poly_aftertouch_c, 0, 57, 127
1, 381953, Note_off_c, 0, 63, 47
1, 381971, Note_off_c, 0, 60, 51
1, 381974, Note_off_c, 0, 65, 39
1, 381988, Poly_aftertouch_c, 0, 57, 0
1, 382085, Note_on_c, 0, 65, 20
1, 382111, Note_on_c, 0, 57, 20
1, 382120, Note_on_c, 0, 60, 7
1, 382136, Poly_aftertouch_c, 0, 63, 127
1, 382159, Note_off_c, 0, 65, 38
1, 382160, Note_off_c, 0, 57, 47
1, 382173, Note_off_c, 0, 60, 49
1, 382182, Poly_aftertouch_c, 0, 63, 0
1, 382272, Note_on_c, 0, 65, 14
1, 382284, Note_on_c, 0, 63, 17
1, 382293, Note_on_c, 0, 57, 9
1, 382306, Poly_aftertouch_c, 0, 60, 127
1, 382335, Note_off_c, 0, 65, 43
1, 382339, Note_off_c, 0, 63, 43
1, 382351, Note_off_c, 0, 57, 46
1, 382356, Poly_aftertouch_c, 0, 60, 0
1, 382460, Note_on_c, 0, 65, 28
1, 382504, Poly_aftertouch_c, 0, 57, 127
1, 382505, Poly_aftertouch_c, 0, 63, 127
1, 382509, Poly_aftertouch_c, 0, 60, 127
1, 382530, Note_off_c, 0, 65, 38
1, 382550, Poly_aftertouch_c, 0, 63, 0
1, 382552, Poly_aftertouch_c, 0, 57, 0
1, 382555, Poly_aftertouch_c, 0, 60, 0
1, 382668, Note_on_c, 0, 57, 17
1, 382675, Note_on_c, 0, 63, 16
1, 382681, Note_on_c, 0, 65, 28
1, 382693, Poly_aftertouch_c, 0, 60, 127
1, 382818, Note_off_c, 0, 63, 35
1, 382830, Note_off_c, 0, 57, 36
1, 382835, Note_off_c, 0, 65, 43
1, 382861, Note_on_c, 0, 81, 51
1, 382870, Poly_aftertouch_c, 0, 60, 0
1, 382990, Note_off_c, 0, 77, 38
1, 383038, Note_on_c, 0, 79, 54
1, 383059, Note_off_c, 0, 81, 51
1, 383170, Note_off_c, 0, 79, 55
1, 383213, Note_on_c, 0, 77, 61
1, 383375, Note_on_c, 0, 84, 67
1, 383441, Note_off_c, 0, 77, 52
1, 383557, Note_on_c, 0, 82, 71
1, 383634, Note_off_c, 0, 84, 58
1, 383726, Control_c, 0, 64, 112
1, 383740, Note_on_c, 0, 81, 80
1, 383740, Control_c, 0, 64, 105
1, 383755, Control_c, 0, 64, 102
1, 383770, Control_c, 0, 64, 99
1, 383784, Control_c, 0, 64, 94
1, 383789, Note_off_c, 0, 82, 61
1, 383799, Control_c, 0, 64, 89
1, 383814, Control_c, 0, 64, 85
1, 383829, Control_c, 0, 64, 83
1, 383844, Control_c, 0, 64, 81
1, 383858, Control_c, 0, 64, 80
1, 383873, Control_c, 0, 64, 79
1, 383888, Control_c, 0, 64, 75
1, 383903, Control_c, 0, 64, 73
1, 383912, Note_on_c, 0, 87, 75
1, 383918, Control_c, 0, 64, 70
1, 383933, Control_c, 0, 64, 68
1, 383948, Control_c, 0, 64, 67
1, 383963, Control_c, 0, 64, 65
1, 383977, Control_c, 0, 64, 64
1, 383992, Control_c, 0, 64, 63
1, 384007, Control_c, 0, 64, 62
1, 384022, Control_c, 0, 64, 62
1, 384037, Control_c, 0, 64, 60
1, 384051, Control_c, 0, 64, 59
1, 384066, Control_c, 0, 64, 59
1, 384072, Note_off_c, 0, 81, 53
1, 384081, Control_c, 0, 64, 58
1, 384096, Control_c, 0, 64, 57
1, 384098, Note_on_c, 0, 86, 81
1, 384110, Control_c, 0, 64, 56
1, 384125, Control_c, 0, 64, 55
1, 384140, Control_c, 0, 64, 53
1, 384155, Control_c, 0, 64, 52
1, 384170, Control_c, 0, 64, 51
1, 384184, Control_c, 0, 64, 51
1, 384207, Control_c, 0, 64, 50
1, 384222, Control_c, 0, 64, 49
1, 384252, Control_c, 0, 64, 49
1, 384267, Control_c, 0, 64, 48
1, 384279, Note_on_c, 0, 84, 75
1, 384282, Control_c, 0, 64, 46
1, 384296, Control_c, 0, 64, 45
1, 384323, Note_off_c, 0, 87, 30
1, 384347, Note_off_c, 0, 86, 59
1, 384356, Control_c, 0, 64, 45
1, 384467, Note_on_c, 0, 91, 66
1, 384568, Note_off_c, 0, 84, 39
1, 384661, Note_on_c, 0, 89, 52
1, 384775, Note_off_c, 0, 91, 36
1, 384867, Note_on_c, 0, 87, 48
1, 384928, Note_off_c, 0, 89, 53
1, 385107, Note_on_c, 0, 86, 41
1, 385222, Note_off_c, 0, 87, 29
1, 385317, Note_on_c, 0, 84, 48
1, 385345, Note_off_c, 0, 86, 54
1, 385355, Control_c, 0, 64, 45
1, 385584, Note_on_c, 0, 86, 45
1, 385629, Note_off_c, 0, 84, 52
1, 385637, Control_c, 0, 64, 46
1, 385652, Control_c, 0, 64, 46
1, 385667, Control_c, 0, 64, 48
1, 385681, Control_c, 0, 64, 49
1, 385696, Control_c, 0, 64, 50
1, 385718, Control_c, 0, 64, 51
1, 385733, Control_c, 0, 64, 52
1, 385748, Control_c, 0, 64, 54
1, 385763, Control_c, 0, 64, 56
1, 385778, Control_c, 0, 64, 58
1, 385823, Control_c, 0, 64, 58
1, 385838, Control_c, 0, 64, 59
1, 385853, Control_c, 0, 64, 61
1, 385867, Control_c, 0, 64, 62
1, 385939, Note_on_c, 0, 66, 70
1, 385942, Control_c, 0, 64, 64
1, 385957, Control_c, 0, 64, 70
1, 385960, Note_on_c, 0, 87, 61
1, 385962, Note_on_c, 0, 63, 49
1, 385966, Note_on_c, 0, 60, 48
1, 385972, Control_c, 0, 64, 82
1, 385978, Note_on_c, 0, 57, 46
1, 385986, Control_c, 0, 64, 101
1, 386001, Control_c, 0, 64, 127
1, 386032, Note_off_c, 0, 57, 51
1, 386034, Note_off_c, 0, 86, 51
1, 386050, Note_off_c, 0, 60, 52
1, 386050, Note_off_c, 0, 63, 43
1, 386050, Note_off_c, 0, 66, 62
1, 386420, Note_on_c, 0, 66, 45
1, 386441, Note_on_c, 0, 63, 30
1, 386443, Note_on_c, 0, 60, 32
1, 386454, Note_on_c, 0, 57, 23
1, 386499, Note_off_c, 0, 66, 60
1, 386514, Note_off_c, 0, 63, 52
1, 386526, Note_off_c, 0, 60, 49
1, 386529, Note_off_c, 0, 57, 44
1, 386730, Note_on_c, 0, 60, 27
1, 386733, Note_on_c, 0, 66, 30
1, 386736, Note_on_c, 0, 63, 41
1, 386741, Note_on_c, 0, 57, 34
1, 386793, Note_off_c, 0, 63, 48
1, 386794, Note_off_c, 0, 57, 49
1, 386826, Note_off_c, 0, 66, 39
1, 386831, Note_off_c, 0, 60, 37
1, 386947, Note_on_c, 0, 66, 30
1, 386964, Note_on_c, 0, 60, 38
1, 386973, Note_on_c, 0, 63, 31
1, 386981, Note_on_c, 0, 57, 12
1, 387012, Note_off_c, 0, 63, 49
1, 387013, Note_off_c, 0, 66, 43
1, 387024, Note_off_c, 0, 60, 43
1, 387030, Note_off_c, 0, 57, 41
1, 387157, Note_on_c, 0, 66, 31
1, 387161, Note_on_c, 0, 60, 34
1, 387170, Note_on_c, 0, 57, 15
1, 387174, Note_on_c, 0, 63, 15
1, 387206, Note_off_c, 0, 66, 47
1, 387221, Note_off_c, 0, 57, 50
1, 387221, Note_off_c, 0, 60, 54
1, 387227, Note_off_c, 0, 63, 43
1, 387352, Note_on_c, 0, 66, 30
1, 387358, Note_on_c, 0, 63, 24
1, 387364, Note_on_c, 0, 60, 33
1, 387367, Note_on_c, 0, 57, 15
1, 387398, Note_off_c, 0, 63, 50
1, 387398, Note_off_c, 0, 66, 47
1, 387406, Note_off_c, 0, 60, 49
1, 387411, Note_off_c, 0, 57, 52
1, 387545, Note_on_c, 0, 66, 18
1, 387555, Note_on_c, 0, 57, 15
1, 387555, Note_on_c, 0, 60, 28
1, 387574, Poly_aftertouch_c, 0, 63, 127
1, 387592, Poly_aftertouch_c, 0, 63, 0
1, 387598, Note_off_c, 0, 66, 47
1, 387602, Note_off_c, 0, 60, 47
1, 387604, Note_off_c, 0, 57, 48
1, 387618, Poly_aftertouch_c, 0, 63, 0
1, 387721, Note_on_c, 0, 66, 17
1, 387733, Note_on_c, 0, 63, 29
1, 387740, Note_on_c, 0, 60, 24
1, 387755, Poly_aftertouch_c, 0, 57, 127
1, 387775, Note_off_c, 0, 63, 47
1, 387782, Note_off_c, 0, 66, 44
1, 387787, Note_off_c, 0, 60, 46
1, 387799, Poly_aftertouch_c, 0, 57, 0
1, 387921, Note_on_c, 0, 66, 26
1, 387936, Note_on_c, 0, 63, 28
1, 387949, Note_on_c, 0, 57, 11
1, 387952, Note_on_c, 0, 60, 34
1, 388135, Note_on_c, 0, 84, 51
1, 388312, Note_off_c, 0, 66, 44
1, 388333, Note_on_c, 0, 90, 60
1, 388341, Note_off_c, 0, 87, 38
1, 388371, Note_off_c, 0, 57, 51
1, 388406, Note_off_c, 0, 60, 40
1, 388413, Note_off_c, 0, 63, 41
1, 388473, Note_off_c, 0, 90, 64
1, 388520, Note_on_c, 0, 89, 53
1, 388623, Note_off_c, 0, 84, 43
1, 388708, Note_on_c, 0, 87, 54
1, 388729, Control_c, 0, 64, 123
1, 388744, Control_c, 0, 64, 112
1, 388759, Control_c, 0, 64, 104
1, 388773, Control_c, 0, 64, 96
1, 388788, Control_c, 0, 64, 89
1, 388803, Control_c, 0, 64, 85
1, 388818, Control_c, 0, 64, 80
1, 388833, Control_c, 0, 64, 75
1, 388847, Control_c, 0, 64, 70
1, 388862, Control_c, 0, 64, 65
1, 388871, Note_off_c, 0, 89, 37
1, 388877, Control_c, 0, 64, 63
1, 388885, Note_on_c, 0, 86, 48
1, 388892, Control_c, 0, 64, 61
1, 388906, Control_c, 0, 64, 60
1, 388921, Control_c, 0, 64, 58
1, 388922, Note_off_c, 0, 87, 51
1, 388936, Control_c, 0, 64, 56
1, 388951, Control_c, 0, 64, 55
1, 388966, Control_c, 0, 64, 53
1, 388980, Control_c, 0, 64, 52
1, 388995, Control_c, 0, 64, 51
1, 389010, Control_c, 0, 64, 50
1, 389026, Control_c, 0, 64, 49
1, 389041, Control_c, 0, 64, 49
1, 389074, Note_on_c, 0, 84, 47
1, 389078, Note_off_c, 0, 86, 47
1, 389100, Control_c, 0, 64, 48
1, 389293, Note_on_c, 0, 86, 40
1, 389326, Note_off_c, 0, 84, 35
1, 389382, Control_c, 0, 64, 49
1, 389441, Control_c, 0, 64, 49
1, 389477, Control_c, 0, 64, 51
1, 389492, Control_c, 0, 64, 53
1, 389507, Control_c, 0, 64, 55
1, 389522, Control_c, 0, 64, 57
1, 389537, Control_c, 0, 64, 60
1, 389549, Note_on_c, 0, 87, 46
1, 389550, Note_on_c, 0, 65, 9
1, 389552, Control_c, 0, 64, 64
1, 389553, Note_on_c, 0, 57, 22
1, 389554, Note_on_c, 0, 63, 17
1, 389565, Note_on_c, 0, 60, 13
1, 389567, Control_c, 0, 64, 70
1, 389582, Control_c, 0, 64, 78
1, 389596, Control_c, 0, 64, 86
1, 389611, Note_off_c, 0, 86, 32
1, 389611, Control_c, 0, 64, 91
1, 389626, Control_c, 0, 64, 98
1, 389639, Note_off_c, 0, 57, 50
1, 389641, Note_off_c, 0, 63, 39
1, 389641, Control_c, 0, 64, 111
1, 389642, Note_off_c, 0, 60, 42
1, 389656, Control_c, 0, 64, 127
1, 389663, Note_off_c, 0, 65, 36
1, 389809, Note_on_c, 0, 65, 20
1, 389814, Note_on_c, 0, 63, 20
1, 389814, Note_on_c, 0, 57, 15
1, 389829, Note_on_c, 0, 60, 20
1, 389865, Note_off_c, 0, 65, 43
1, 389868, Note_off_c, 0, 57, 44
1, 389870, Note_off_c, 0, 63, 43
1, 389880, Note_off_c, 0, 60, 48
1, 389991, Note_on_c, 0, 57, 21
1, 389994, Note_on_c, 0, 60, 18
1, 389994, Note_on_c, 0, 63, 9
1, 389999, Note_on_c, 0, 65, 20
1, 390062, Note_off_c, 0, 60, 41
1, 390064, Note_off_c, 0, 57, 40
1, 390073, Note_off_c, 0, 65, 38
1, 390076, Note_off_c, 0, 63, 38
1, 390161, Note_on_c, 0, 57, 22
1, 390162, Note_on_c, 0, 63, 13
1, 390172, Note_on_c, 0, 60, 22
1, 390178, Note_on_c, 0, 65, 15
1, 390252, Note_off_c, 0, 65, 42
1, 390258, Note_off_c, 0, 60, 40
1, 390271, Note_off_c, 0, 63, 37
1, 390333, Note_off_c, 0, 57, 0
1, 390357, Note_on_c, 0, 57, 7
1, 390357, Note_on_c, 0, 60, 14
1, 390362, Note_on_c, 0, 65, 21
1, 390369, Poly_aftertouch_c, 0, 63, 127
1, 390482, Poly_aftertouch_c, 0, 63, 0
1, 390491, Note_off_c, 0, 60, 0
1, 390509, Note_off_c, 0, 65, 0
1, 390517, Note_on_c, 0, 63, 5
1, 390529, Poly_aftertouch_c, 0, 60, 127
1, 390531, Note_on_c, 0, 65, 18
1, 390642, Note_off_c, 0, 65, 36
1, 390651, Poly_aftertouch_c, 0, 60, 0
1, 390699, Note_off_c, 0, 63, 0
1, 390705, Note_off_c, 0, 57, 0
1, 390737, Poly_aftertouch_c, 0, 63, 127
1, 390740, Note_on_c, 0, 60, 4
1, 390742, Poly_aftertouch_c, 0, 57, 127
1, 390754, Poly_aftertouch_c, 0, 65, 127
1, 390819, Poly_aftertouch_c, 0, 65, 0
1, 390831, Note_off_c, 0, 60, 37
1, 390833, Poly_aftertouch_c, 0, 57, 0
1, 390836, Poly_aftertouch_c, 0, 63, 0
1, 390947, Note_on_c, 0, 63, 27
1, 390951, Note_on_c, 0, 57, 27
1, 390957, Note_on_c, 0, 60, 12
1, 390957, Note_on_c, 0, 65, 20
1, 391027, Note_off_c, 0, 65, 40
1, 391039, Note_off_c, 0, 60, 38
1, 391045, Note_off_c, 0, 57, 36
1, 391046, Note_off_c, 0, 63, 36
1, 391209, Poly_aftertouch_c, 0, 60, 127
1, 391211, Poly_aftertouch_c, 0, 63, 127
1, 391214, Poly_aftertouch_c, 0, 57, 127
1, 391222, Poly_aftertouch_c, 0, 65, 127
1, 391288, Poly_aftertouch_c, 0, 60, 0
1, 391311, Poly_aftertouch_c, 0, 63, 0
1, 391312, Poly_aftertouch_c, 0, 57, 0
1, 391317, Poly_aftertouch_c, 0, 65, 0
1, 391445, Note_off_c, 0, 87, 36
1, 391472, Note_on_c, 0, 84, 31
1, 391719, Note_off_c, 0, 84, 40
1, 391819, Note_on_c, 0, 91, 30
1, 391854, Note_off_c, 0, 91, 52
1, 392045, Note_on_c, 0, 89, 41
1, 392095, Note_off_c, 0, 89, 45
1, 392244, Control_c, 0, 64, 108
1, 392246, Note_on_c, 0, 87, 38
1, 392258, Control_c, 0, 64, 101
1, 392273, Control_c, 0, 64, 98
1, 392288, Control_c, 0, 64, 96
1, 392297, Note_off_c, 0, 87, 58
1, 392303, Control_c, 0, 64, 94
1, 392318, Control_c, 0, 64, 91
1, 392333, Control_c, 0, 64, 88
1, 392347, Control_c, 0, 64, 86
1, 392362, Control_c, 0, 64, 85
1, 392377, Control_c, 0, 64, 84
1, 392392, Control_c, 0, 64, 83
1, 392407, Control_c, 0, 64, 81
1, 392421, Control_c, 0, 64, 78
1, 392425, Note_on_c, 0, 86, 44
1, 392443, Control_c, 0, 64, 75
1, 392458, Control_c, 0, 64, 73
1, 392473, Control_c, 0, 64, 71
1, 392488, Control_c, 0, 64, 69
1, 392500, Note_off_c, 0, 86, 55
1, 392503, Control_c, 0, 64, 67
1, 392518, Control_c, 0, 64, 67
1, 392533, Control_c, 0, 64, 66
1, 392562, Control_c, 0, 64, 66
1, 392577, Control_c, 0, 64, 65
1, 392592, Control_c, 0, 64, 65
1, 392607, Control_c, 0, 64, 64
1, 392611, Note_on_c, 0, 84, 49
1, 392636, Control_c, 0, 64, 64
1, 392645, Note_off_c, 0, 84, 64
1, 392651, Control_c, 0, 64, 63
1, 392665, Control_c, 0, 64, 62
1, 392680, Control_c, 0, 64, 61
1, 392754, Control_c, 0, 64, 61
1, 392776, Note_on_c, 0, 82, 55
1, 392831, Note_off_c, 0, 82, 55
1, 392932, Control_c, 0, 64, 60
1, 392947, Note_on_c, 0, 81, 51
1, 393013, Note_off_c, 0, 81, 53
1, 393111, Control_c, 0, 64, 61
1, 393123, Note_on_c, 0, 79, 40
1, 393173, Note_off_c, 0, 79, 59
1, 393292, Note_on_c, 0, 77, 51
1, 393335, Note_off_c, 0, 77, 62
1, 393448, Note_on_c, 0, 76, 54
1, 393506, Note_off_c, 0, 76, 59
1, 393628, Note_on_c, 0, 75, 54
1, 393636, Control_c, 0, 64, 60
1, 393740, Note_on_c, 0, 74, 53
1, 393750, Note_off_c, 0, 75, 47
1, 393816, Note_off_c, 0, 74, 53
1, 393845, Control_c, 0, 64, 60
1, 393855, Note_on_c, 0, 72, 50
1, 393941, Note_off_c, 0, 72, 40
1, 393941, Control_c, 0, 64, 59
1, 393959, Note_on_c, 0, 70, 57
1, 394015, Control_c, 0, 64, 59
1, 394030, Control_c, 0, 64, 58
1, 394060, Control_c, 0, 64, 58
1, 394073, Note_on_c, 0, 69, 61
1, 394086, Note_off_c, 0, 70, 57
1, 394163, Control_c, 0, 64, 57
1, 394181, Note_on_c, 0, 67, 54
1, 394196, Note_off_c, 0, 69, 48
1, 394208, Control_c, 0, 64, 57
1, 394267, Control_c, 0, 64, 56
1, 394283, Note_off_c, 0, 67, 61
1, 394289, Note_on_c, 0, 65, 56
1, 394326, Control_c, 0, 64, 56
1, 394384, Note_on_c, 0, 64, 64
1, 394397, Note_off_c, 0, 65, 55
1, 394415, Control_c, 0, 64, 55
1, 394488, Note_on_c, 0, 63, 64
1, 394518, Control_c, 0, 64, 55
1, 394521, Note_off_c, 0, 64, 59
1, 394607, Note_on_c, 0, 62, 59
1, 394608, Note_off_c, 0, 63, 63
1, 394690, Control_c, 0, 64, 54
1, 394718, Note_on_c, 0, 61, 64
1, 394744, Note_off_c, 0, 62, 54
1, 394843, Note_on_c, 0, 60, 54
1, 394897, Note_off_c, 0, 61, 42
1, 394897, Control_c, 0, 64, 55
1, 394946, Note_off_c, 0, 60, 62
1, 394959, Note_on_c, 0, 59, 59
1, 395068, Note_off_c, 0, 59, 62
1, 395084, Note_on_c, 0, 58, 50
1, 395150, Control_c, 0, 64, 55
1, 395209, Note_off_c, 0, 58, 61
1, 395221, Note_on_c, 0, 57, 47
1, 395342, Note_off_c, 0, 57, 61
1, 395359, Note_on_c, 0, 56, 47
1, 395513, Note_off_c, 0, 56, 54
1, 395527, Note_on_c, 0, 55, 38
1, 395646, Note_off_c, 0, 55, 59
1, 395681, Note_on_c, 0, 54, 37
1, 395706, Control_c, 0, 64, 56
1, 395795, Control_c, 0, 64, 56
1, 395825, Control_c, 0, 64, 57
1, 395854, Control_c, 0, 64, 57
1, 395869, Control_c, 0, 64, 58
1, 395875, Note_off_c, 0, 54, 59
1, 395884, Control_c, 0, 64, 59
1, 395895, Note_on_c, 0, 56, 43
1, 395898, Control_c, 0, 64, 60
1, 395928, Control_c, 0, 64, 61
1, 395943, Control_c, 0, 64, 62
1, 395958, Control_c, 0, 64, 65
1, 395972, Note_off_c, 0, 56, 59
1, 395973, Control_c, 0, 64, 71
1, 395988, Control_c, 0, 64, 78
1, 395997, Note_on_c, 0, 54, 48
1, 396003, Control_c, 0, 64, 86
1, 396017, Control_c, 0, 64, 94
1, 396032, Control_c, 0, 64, 111
1, 396047, Control_c, 0, 64, 127
1, 396083, Note_off_c, 0, 54, 59
1, 396098, Note_on_c, 0, 56, 55
1, 396152, Note_off_c, 0, 56, 58
1, 396202, Note_on_c, 0, 54, 43
1, 396239, Note_off_c, 0, 54, 63
1, 396265, Note_on_c, 0, 56, 56
1, 396301, Note_off_c, 0, 56, 63
1, 396330, Note_on_c, 0, 54, 55
1, 396378, Note_off_c, 0, 54, 60
1, 396387, Note_on_c, 0, 56, 58
1, 396435, Note_off_c, 0, 56, 56
1, 396479, Note_on_c, 0, 54, 50
1, 396509, Note_off_c, 0, 54, 65
1, 396543, Note_on_c, 0, 56, 47
1, 396543, Control_c, 0, 64, 108
1, 396558, Control_c, 0, 64, 102
1, 396573, Control_c, 0, 64, 99
1, 396576, Note_off_c, 0, 56, 54
1, 396590, Note_on_c, 0, 54, 56
1, 396617, Control_c, 0, 64, 96
1, 396631, Note_off_c, 0, 54, 62
1, 396631, Control_c, 0, 64, 93
1, 396646, Control_c, 0, 64, 89
1, 396661, Control_c, 0, 64, 87
1, 396665, Note_on_c, 0, 56, 57
1, 396676, Control_c, 0, 64, 86
1, 396691, Control_c, 0, 64, 86
1, 396699, Note_off_c, 0, 56, 62
1, 396706, Control_c, 0, 64, 85
1, 396721, Control_c, 0, 64, 84
1, 396736, Control_c, 0, 64, 83
1, 396738, Note_on_c, 0, 54, 56
1, 396751, Control_c, 0, 64, 82
1, 396766, Control_c, 0, 64, 80
1, 396770, Note_off_c, 0, 54, 65
1, 396779, Note_on_c, 0, 56, 57
1, 396781, Control_c, 0, 64, 79
1, 396795, Control_c, 0, 64, 77
1, 396810, Control_c, 0, 64, 75
1, 396825, Control_c, 0, 64, 72
1, 396826, Note_off_c, 0, 56, 60
1, 396839, Control_c, 0, 64, 70
1, 396854, Control_c, 0, 64, 70
1, 396865, Note_on_c, 0, 54, 53
1, 396869, Control_c, 0, 64, 69
1, 396884, Control_c, 0, 64, 68
1, 396899, Control_c, 0, 64, 66
1, 396903, Note_off_c, 0, 54, 64
1, 396913, Control_c, 0, 64, 64
1, 396924, Note_on_c, 0, 56, 54
1, 396928, Control_c, 0, 64, 63
1, 396980, Control_c, 0, 64, 62
1, 396981, Note_off_c, 0, 56, 60
1, 396995, Control_c, 0, 64, 61
1, 397010, Control_c, 0, 64, 61
1, 397016, Note_on_c, 0, 54, 51
1, 397025, Control_c, 0, 64, 60
1, 397055, Note_off_c, 0, 54, 64
1, 397055, Control_c, 0, 64, 60
1, 397070, Control_c, 0, 64, 59
1, 397082, Note_on_c, 0, 56, 55
1, 397085, Control_c, 0, 64, 58
1, 397099, Control_c, 0, 64, 57
1, 397127, Note_off_c, 0, 56, 60
1, 397169, Note_on_c, 0, 54, 45
1, 397204, Note_off_c, 0, 54, 64
1, 397218, Note_on_c, 0, 56, 56
1, 397262, Note_off_c, 0, 56, 59
1, 397294, Note_on_c, 0, 54, 49
1, 397345, Note_off_c, 0, 54, 58
1, 397373, Note_on_c, 0, 56, 40
1, 397427, Note_off_c, 0, 56, 60
1, 397471, Note_on_c, 0, 54, 40
1, 397515, Note_off_c, 0, 54, 62
1, 397535, Note_on_c, 0, 56, 52
1, 397600, Note_off_c, 0, 56, 56
1, 397625, Note_on_c, 0, 54, 44
1, 397699, Note_off_c, 0, 54, 57
1, 397733, Note_on_c, 0, 56, 49
1, 397800, Note_off_c, 0, 56, 51
1, 397830, Note_on_c, 0, 54, 36
1, 397935, Note_off_c, 0, 54, 45
1, 397974, Note_on_c, 0, 53, 33
1, 398120, Note_on_c, 0, 54, 20
1, 398132, Note_off_c, 0, 53, 32
1, 398218, Control_c, 0, 64, 58
1, 398379, Note_on_c, 0, 53, 31
1, 398385, Note_off_c, 0, 54, 42
1, 398462, Control_c, 0, 64, 58
1, 398685, Control_c, 0, 64, 60
1, 398700, Control_c, 0, 64, 63
1, 398715, Control_c, 0, 64, 66
1, 398730, Control_c, 0, 64, 72
1, 398745, Control_c, 0, 64, 79
1, 398760, Control_c, 0, 64, 87
1, 398775, Control_c, 0, 64, 92
1, 398789, Control_c, 0, 64, 98
1, 398793, Note_off_c, 0, 53, 63
1, 398804, Control_c, 0, 64, 105
1, 398819, Control_c, 0, 64, 116
1, 398833, Control_c, 0, 64, 127
1, 399085, Control_c, 0, 64, 112
1, 399100, Control_c, 0, 64, 108
1, 399115, Control_c, 0, 64, 104
1, 399129, Control_c, 0, 64, 99
1, 399144, Control_c, 0, 64, 94
1, 399159, Control_c, 0, 64, 91
1, 399181, Control_c, 0, 64, 88
1, 399196, Control_c, 0, 64, 87
1, 399211, Control_c, 0, 64, 85
1, 399226, Control_c, 0, 64, 83
1, 399240, Control_c, 0, 64, 79
1, 399255, Control_c, 0, 64, 75
1, 399270, Control_c, 0, 64, 72
1, 399285, Control_c, 0, 64, 71
1, 399300, Control_c, 0, 64, 69
1, 399314, Control_c, 0, 64, 67
1, 399329, Control_c, 0, 64, 65
1, 399344, Control_c, 0, 64, 64
1, 399389, Control_c, 0, 64, 64
1, 399404, Control_c, 0, 64, 62
1, 399419, Control_c, 0, 64, 60
1, 399434, Control_c, 0, 64, 60
1, 399449, Control_c, 0, 64, 59
1, 399478, Control_c, 0, 64, 59
1, 399493, Control_c, 0, 64, 58
1, 399508, Control_c, 0, 64, 57
1, 399538, Control_c, 0, 64, 58
1, 399686, Control_c, 0, 64, 58
1, 399760, Control_c, 0, 64, 59
1, 399834, Control_c, 0, 64, 59
1, 399908, Control_c, 0, 64, 60
1, 399930, Control_c, 0, 64, 60
1, 400004, Control_c, 0, 64, 61
1, 400049, Control_c, 0, 64, 61
1, 400093, Control_c, 0, 64, 62
1, 400152, Control_c, 0, 64, 62
1, 400167, Control_c, 0, 64, 63
1, 400182, Control_c, 0, 64, 64
1, 400197, Control_c, 0, 64, 64
1, 400227, Control_c, 0, 64, 65
1, 400242, Control_c, 0, 64, 67
1, 400257, Control_c, 0, 64, 71
1, 400272, Control_c, 0, 64, 77
1, 400273, Note_on_c, 0, 29, 35
1, 400286, Control_c, 0, 64, 84
1, 400301, Control_c, 0, 64, 90
1, 400316, Control_c, 0, 64, 93
1, 400331, Control_c, 0, 64, 95
1, 400346, Control_c, 0, 64, 98
1, 400361, Control_c, 0, 64, 101
1, 400375, Control_c, 0, 64, 105
1, 400390, Control_c, 0, 64, 108
1, 400405, Control_c, 0, 64, 111
1, 400420, Control_c, 0, 64, 114
1, 400471, Note_off_c, 0, 29, 42
1, 400497, Note_on_c, 0, 30, 32
1, 400612, Control_c, 0, 64, 106
1, 400627, Control_c, 0, 64, 97
1, 400642, Control_c, 0, 64, 89
1, 400657, Control_c, 0, 64, 83
1, 400672, Control_c, 0, 64, 78
1, 400682, Note_on_c, 0, 32, 36
1, 400688, Note_off_c, 0, 30, 40
1, 400694, Control_c, 0, 64, 72
1, 400709, Control_c, 0, 64, 67
1, 400724, Control_c, 0, 64, 63
1, 400739, Control_c, 0, 64, 63
1, 400753, Control_c, 0, 64, 63
1, 400768, Control_c, 0, 64, 66
1, 400783, Note_off_c, 0, 32, 43
1, 400783, Control_c, 0, 64, 70
1, 400798, Control_c, 0, 64, 76
1, 400804, Note_on_c, 0, 30, 45
1, 400812, Control_c, 0, 64, 81
1, 400827, Control_c, 0, 64, 84
1, 400842, Control_c, 0, 64, 85
1, 400857, Control_c, 0, 64, 87
1, 400858, Note_off_c, 0, 30, 45
1, 400872, Control_c, 0, 64, 89
1, 400886, Control_c, 0, 64, 91
1, 400894, Note_on_c, 0, 32, 31
1, 400901, Control_c, 0, 64, 93
1, 400937, Note_off_c, 0, 32, 50
1, 400965, Note_on_c, 0, 30, 32
1, 401004, Note_off_c, 0, 30, 50
1, 401006, Control_c, 0, 64, 92
1, 401021, Control_c, 0, 64, 91
1, 401036, Control_c, 0, 64, 91
1, 401037, Note_on_c, 0, 32, 35
1, 401065, Control_c, 0, 64, 90
1, 401079, Note_off_c, 0, 32, 51
1, 401080, Control_c, 0, 64, 88
1, 401095, Control_c, 0, 64, 84
1, 401109, Control_c, 0, 64, 79
1, 401117, Note_on_c, 0, 30, 3
1, 401124, Control_c, 0, 64, 75
1, 401134, Note_on_c, 0, 32, 48
1, 401139, Control_c, 0, 64, 73
1, 401154, Control_c, 0, 64, 71
1, 401166, Note_off_c, 0, 30, 0
1, 401169, Control_c, 0, 64, 68
1, 401173, Note_off_c, 0, 32, 54
1, 401180, Note_on_c, 0, 30, 41
1, 401183, Control_c, 0, 64, 65
1, 401198, Control_c, 0, 64, 63
1, 401213, Control_c, 0, 64, 63
1, 401236, Note_off_c, 0, 30, 61
1, 401258, Control_c, 0, 64, 62
1, 401270, Note_on_c, 0, 32, 48
1, 401273, Control_c, 0, 64, 61
1, 401288, Control_c, 0, 64, 60
1, 401308, Note_off_c, 0, 32, 49
1, 401318, Note_on_c, 0, 30, 43
1, 401353, Note_off_c, 0, 30, 47
1, 401362, Control_c, 0, 64, 60
1, 401375, Note_on_c, 0, 32, 41
1, 401414, Note_off_c, 0, 32, 47
1, 401421, Control_c, 0, 64, 59
1, 401436, Note_on_c, 0, 30, 40
1, 401443, Control_c, 0, 64, 59
1, 401472, Note_off_c, 0, 30, 47
1, 401506, Note_on_c, 0, 32, 26
1, 401517, Control_c, 0, 64, 58
1, 401532, Control_c, 0, 64, 57
1, 401542, Note_on_c, 0, 30, 43
1, 401544, Note_off_c, 0, 32, 50
1, 401578, Note_off_c, 0, 30, 54
1, 401591, Control_c, 0, 64, 57
1, 401606, Control_c, 0, 64, 56
1, 401626, Note_on_c, 0, 32, 41
1, 401666, Note_off_c, 0, 32, 52
1, 401739, Note_on_c, 0, 32, 46
1, 401770, Control_c, 0, 64, 56
1, 401781, Note_off_c, 0, 32, 48
1, 401800, Note_on_c, 0, 30, 7
1, 401800, Control_c, 0, 64, 56
1, 401849, Note_off_c, 0, 30, 58
1, 401880, Note_on_c, 0, 32, 41
1, 401914, Note_off_c, 0, 32, 51
1, 401948, Control_c, 0, 64, 57
1, 401957, Note_on_c, 0, 30, 37
1, 401999, Note_off_c, 0, 30, 53
1, 402013, Note_on_c, 0, 32, 54
1, 402022, Control_c, 0, 64, 57
1, 402051, Note_off_c, 0, 32, 61
1, 402149, Note_on_c, 0, 32, 65
1, 402206, Note_off_c, 0, 32, 60
1, 402274, Note_on_c, 0, 30, 4
1, 402352, Note_off_c, 0, 30, 43
1, 402388, Note_on_c, 0, 32, 10
1, 402436, Note_off_c, 0, 32, 37
1, 402456, Note_on_c, 0, 30, 33
1, 402529, Note_off_c, 0, 30, 43
1, 402538, Note_on_c, 0, 32, 53
1, 402607, Note_off_c, 0, 32, 40
1, 402656, Note_on_c, 0, 30, 40
1, 402726, Note_off_c, 0, 30, 40
1, 402758, Note_on_c, 0, 32, 44
1, 402808, Note_off_c, 0, 32, 42
1, 402883, Note_on_c, 0, 30, 37
1, 403014, Control_c, 0, 64, 57
1, 403073, Control_c, 0, 64, 56
1, 403079, Note_on_c, 0, 29, 38
1, 403088, Control_c, 0, 64, 56
1, 403103, Control_c, 0, 64, 55
1, 403116, Note_off_c, 0, 30, 40
1, 403118, Control_c, 0, 64, 54
1, 403133, Control_c, 0, 64, 53
1, 403163, Control_c, 0, 64, 53
1, 403178, Control_c, 0, 64, 52
1, 403192, Control_c, 0, 64, 50
1, 403207, Control_c, 0, 64, 50
1, 403267, Control_c, 0, 64, 49
1, 403281, Control_c, 0, 64, 48
1, 403313, Note_on_c, 0, 30, 37
1, 403321, Note_off_c, 0, 29, 41
1, 403341, Control_c, 0, 64, 47
1, 403355, Control_c, 0, 64, 46
1, 403401, Control_c, 0, 64, 46
1, 403475, Control_c, 0, 64, 46
1, 403549, Control_c, 0, 64, 47
1, 403622, Control_c, 0, 64, 47
1, 403704, Control_c, 0, 64, 48
1, 403723, Note_on_c, 0, 29, 31
1, 403820, Note_off_c, 0, 30, 39
1, 403867, Control_c, 0, 64, 48
1, 403926, Control_c, 0, 64, 49
1, 403941, Control_c, 0, 64, 49
1, 404000, Control_c, 0, 64, 50
1, 404015, Control_c, 0, 64, 50
1, 404030, Control_c, 0, 64, 51
1, 404060, Control_c, 0, 64, 51
1, 404075, Control_c, 0, 64, 52
1, 404090, Control_c, 0, 64, 54
1, 404104, Control_c, 0, 64, 57
1, 404119, Control_c, 0, 64, 60
1, 404134, Control_c, 0, 64, 61
1, 404149, Control_c, 0, 64, 62
1, 404164, Control_c, 0, 64, 62
1, 404178, Control_c, 0, 64, 64
1, 404194, Control_c, 0, 64, 69
1, 404209, Control_c, 0, 64, 74
1, 404224, Control_c, 0, 64, 78
1, 404239, Control_c, 0, 64, 81
1, 404253, Control_c, 0, 64, 84
1, 404268, Control_c, 0, 64, 89
1, 404283, Control_c, 0, 64, 94
1, 404298, Control_c, 0, 64, 98
1, 404313, Control_c, 0, 64, 102
1, 404327, Control_c, 0, 64, 107
1, 404342, Control_c, 0, 64, 113
1, 404355, Note_off_c, 0, 29, 18
1, 404357, Control_c, 0, 64, 127
1, 404705, Control_c, 0, 64, 116
1, 404719, Control_c, 0, 64, 109
1, 404734, Control_c, 0, 64, 104
1, 404749, Control_c, 0, 64, 100
1, 404779, Control_c, 0, 64, 98
1, 404809, Control_c, 0, 64, 94
1, 404824, Control_c, 0, 64, 92
1, 404839, Control_c, 0, 64, 90
1, 404853, Control_c, 0, 64, 90
1, 404868, Control_c, 0, 64, 89
1, 404883, Control_c, 0, 64, 88
1, 404898, Control_c, 0, 64, 86
1, 404913, Control_c, 0, 64, 84
1, 404927, Control_c, 0, 64, 84
1, 404957, Control_c, 0, 64, 83
1, 404972, Control_c, 0, 64, 82
1, 404987, Control_c, 0, 64, 81
1, 405003, Control_c, 0, 64, 81
1, 405032, Control_c, 0, 64, 80
1, 405047, Control_c, 0, 64, 80
1, 405062, Control_c, 0, 64, 79
1, 405076, Control_c, 0, 64, 77
1, 405091, Control_c, 0, 64, 76
1, 405121, Control_c, 0, 64, 76
1, 405136, Control_c, 0, 64, 75
1, 405151, Control_c, 0, 64, 74
1, 405173, Control_c, 0, 64, 73
1, 405188, Control_c, 0, 64, 72
1, 405218, Control_c, 0, 64, 72
1, 405232, Control_c, 0, 64, 70
1, 405247, Control_c, 0, 64, 69
1, 405262, Control_c, 0, 64, 67
1, 405276, Control_c, 0, 64, 67
1, 405306, Control_c, 0, 64, 66
1, 405321, Control_c, 0, 64, 65
1, 405336, Control_c, 0, 64, 64
1, 405395, Control_c, 0, 64, 64
1, 405410, Control_c, 0, 64, 63
1, 405470, Control_c, 0, 64, 63
1, 405484, Control_c, 0, 64, 62
1, 405499, Control_c, 0, 64, 61
1, 405514, Control_c, 0, 64, 60
1, 405632, Control_c, 0, 64, 60
1, 405662, Control_c, 0, 64, 59
1, 405825, Control_c, 0, 64, 60
1, 405840, Control_c, 0, 64, 61
1, 405855, Control_c, 0, 64, 62
1, 405870, Control_c, 0, 64, 63
1, 405899, Control_c, 0, 64, 63
1, 405937, Control_c, 0, 64, 65
1, 405952, Control_c, 0, 64, 67
1, 405967, Control_c, 0, 64, 70
1, 405981, Control_c, 0, 64, 73
1, 405996, Control_c, 0, 64, 74
1, 406011, Control_c, 0, 64, 75
1, 406025, Control_c, 0, 64, 78
1, 406040, Control_c, 0, 64, 81
1, 406055, Control_c, 0, 64, 84
1, 406070, Control_c, 0, 64, 86
1, 406085, Control_c, 0, 64, 88
1, 406099, Control_c, 0, 64, 90
1, 406114, Control_c, 0, 64, 92
1, 406129, Control_c, 0, 64, 95
1, 406144, Control_c, 0, 64, 98
1, 406159, Control_c, 0, 64, 101
1, 406173, Control_c, 0, 64, 105
1, 406188, Control_c, 0, 64, 109
1, 406203, Control_c, 0, 64, 117
1, 406218, Control_c, 0, 64, 127
1, 408046, Note_on_c, 0, 70, 46
1, 408081, Note_on_c, 0, 46, 15
1, 408081, Note_on_c, 0, 65, 20
1, 408087, Note_on_c, 0, 50, 16
1, 408290, Note_off_c, 0, 65, 42
1, 408338, Note_off_c, 0, 70, 60
1, 408566, Note_on_c, 0, 53, 36
1, 408635, Note_off_c, 0, 50, 42
1, 408647, Note_off_c, 0, 46, 38
1, 408706, Note_off_c, 0, 53, 23
1, 408871, Note_on_c, 0, 70, 56
1, 408896, Note_on_c, 0, 50, 25
1, 408919, Note_on_c, 0, 46, 17
1, 408981, Poly_aftertouch_c, 0, 65, 127
1, 409139, Note_on_c, 0, 53, 18
1, 409199, Note_off_c, 0, 46, 38
1, 409208, Note_off_c, 0, 50, 45
1, 409265, Note_off_c, 0, 53, 25
1, 409331, Note_on_c, 0, 69, 62
1, 409354, Note_on_c, 0, 46, 23
1, 409358, Note_on_c, 0, 48, 43
1, 409393, Note_off_c, 0, 70, 63
1, 409420, Poly_aftertouch_c, 0, 65, 0
1, 409574, Note_on_c, 0, 53, 28
1, 409610, Note_off_c, 0, 46, 39
1, 409625, Note_off_c, 0, 48, 37
1, 409763, Note_on_c, 0, 70, 72
1, 409799, Note_off_c, 0, 69, 62
1, 409802, Note_off_c, 0, 53, 34
1, 409803, Note_on_c, 0, 46, 31
1, 409805, Note_on_c, 0, 50, 39
1, 409814, Note_on_c, 0, 65, 30
1, 409844, Control_c, 0, 64, 90
1, 409857, Poly_aftertouch_c, 0, 58, 127
1, 409859, Control_c, 0, 64, 68
1, 409873, Control_c, 0, 64, 55
1, 409888, Control_c, 0, 64, 47
1, 409903, Control_c, 0, 64, 47
1, 409918, Control_c, 0, 64, 49
1, 409933, Control_c, 0, 64, 58
1, 409934, Poly_aftertouch_c, 0, 58, 0
1, 409947, Control_c, 0, 64, 68
1, 409962, Control_c, 0, 64, 86
1, 409974, Note_off_c, 0, 65, 36
1, 409977, Control_c, 0, 64, 127
1, 410003, Note_on_c, 0, 53, 42
1, 410024, Note_off_c, 0, 50, 57
1, 410027, Note_off_c, 0, 46, 51
1, 410177, Note_off_c, 0, 53, 28
1, 410234, Note_on_c, 0, 72, 69
1, 410269, Note_on_c, 0, 51, 37
1, 410271, Note_on_c, 0, 46, 35
1, 410273, Note_on_c, 0, 65, 34
1, 410287, Control_c, 0, 64, 101
1, 410302, Control_c, 0, 64, 76
1, 410309, Note_off_c, 0, 70, 63
1, 410317, Control_c, 0, 64, 58
1, 410331, Control_c, 0, 64, 48
1, 410346, Control_c, 0, 64, 45
1, 410361, Control_c, 0, 64, 44
1, 410390, Control_c, 0, 64, 48
1, 410412, Control_c, 0, 64, 59
1, 410427, Control_c, 0, 64, 67
1, 410442, Control_c, 0, 64, 79
1, 410457, Control_c, 0, 64, 99
1, 410472, Control_c, 0, 64, 127
1, 410520, Note_off_c, 0, 65, 42
1, 410524, Note_on_c, 0, 53, 35
1, 410575, Note_off_c, 0, 53, 56
1, 410589, Note_off_c, 0, 51, 42
1, 410594, Note_off_c, 0, 46, 39
1, 410851, Note_on_c, 0, 74, 67
1, 410883, Note_on_c, 0, 46, 29
1, 410884, Note_on_c, 0, 65, 28
1, 410892, Note_on_c, 0, 52, 32
1, 410902, Control_c, 0, 64, 117
1, 410917, Control_c, 0, 64, 86
1, 410932, Control_c, 0, 64, 73
1, 410946, Control_c, 0, 64, 63
1, 410952, Poly_aftertouch_c, 0, 62, 127
1, 410961, Control_c, 0, 64, 56
1, 410976, Control_c, 0, 64, 51
1, 410991, Control_c, 0, 64, 48
1, 411005, Control_c, 0, 64, 44
1, 411008, Note_off_c, 0, 72, 28
1, 411020, Control_c, 0, 64, 38
1, 411035, Control_c, 0, 64, 35
1, 411050, Control_c, 0, 64, 33
1, 411148, Note_on_c, 0, 53, 37
1, 411150, Note_off_c, 0, 52, 44
1, 411161, Control_c, 0, 64, 33
1, 411191, Note_off_c, 0, 53, 57
1, 411220, Control_c, 0, 64, 34
1, 411235, Control_c, 0, 64, 36
1, 411250, Control_c, 0, 64, 37
1, 411309, Control_c, 0, 64, 38
1, 411324, Control_c, 0, 64, 42
1, 411339, Control_c, 0, 64, 47
1, 411354, Control_c, 0, 64, 49
1, 411369, Control_c, 0, 64, 52
1, 411384, Control_c, 0, 64, 57
1, 411387, Note_on_c, 0, 53, 39
1, 411399, Control_c, 0, 64, 63
1, 411414, Control_c, 0, 64, 68
1, 411426, Note_off_c, 0, 53, 55
1, 411429, Control_c, 0, 64, 73
1, 411444, Control_c, 0, 64, 75
1, 411458, Control_c, 0, 64, 76
1, 411473, Control_c, 0, 64, 79
1, 411488, Control_c, 0, 64, 83
1, 411504, Control_c, 0, 64, 90
1, 411518, Control_c, 0, 64, 101
1, 411533, Control_c, 0, 64, 127
1, 411622, Note_on_c, 0, 53, 36
1, 411666, Note_off_c, 0, 53, 57
1, 411828, Note_on_c, 0, 53, 41
1, 411837, Note_off_c, 0, 74, 62
1, 411869, Poly_aftertouch_c, 0, 62, 0
1, 411876, Note_off_c, 0, 53, 56
1, 411900, Note_off_c, 0, 65, 42
1, 412062, Note_on_c, 0, 53, 45
1, 412115, Note_off_c, 0, 46, 60
1, 412303, Note_on_c, 0, 72, 63
1, 412306, Note_off_c, 0, 53, 17
1, 412323, Note_on_c, 0, 65, 39
1, 412329, Note_on_c, 0, 51, 43
1, 412343, Note_on_c, 0, 46, 34
1, 412371, Poly_aftertouch_c, 0, 60, 127
1, 412412, Poly_aftertouch_c, 0, 60, 0
1, 412481, Note_off_c, 0, 65, 35
1, 412549, Note_on_c, 0, 70, 70
1, 412564, Note_off_c, 0, 46, 59
1, 412576, Note_off_c, 0, 72, 61
1, 412578, Note_on_c, 0, 50, 19
1, 412602, Note_on_c, 0, 58, 15
1, 412633, Note_off_c, 0, 51, 38
1, 412636, Note_off_c, 0, 50, 45
1, 412645, Note_off_c, 0, 58, 54
1, 412884, Note_on_c, 0, 72, 70
1, 412899, Note_on_c, 0, 41, 42
1, 412901, Note_off_c, 0, 70, 39
1, 412911, Note_on_c, 0, 65, 41
1, 412912, Note_on_c, 0, 60, 36
1, 412924, Note_on_c, 0, 51, 41
1, 412941, Control_c, 0, 64, 97
1, 412956, Control_c, 0, 64, 77
1, 412971, Control_c, 0, 64, 61
1, 412987, Control_c, 0, 64, 48
1, 413001, Control_c, 0, 64, 43
1, 413015, Control_c, 0, 64, 42
1, 413030, Control_c, 0, 64, 42
1, 413045, Control_c, 0, 64, 44
1, 413060, Control_c, 0, 64, 53
1, 413075, Control_c, 0, 64, 61
1, 413089, Control_c, 0, 64, 69
1, 413104, Control_c, 0, 64, 81
1, 413119, Control_c, 0, 64, 95
1, 413127, Note_off_c, 0, 60, 41
1, 413134, Control_c, 0, 64, 108
1, 413135, Note_off_c, 0, 72, 55
1, 413149, Control_c, 0, 64, 127
1, 413189, Note_off_c, 0, 51, 60
1, 413198, Note_off_c, 0, 65, 40
1, 413199, Note_on_c, 0, 53, 34
1, 413240, Note_off_c, 0, 41, 42
1, 413309, Note_off_c, 0, 53, 28
1, 413436, Note_on_c, 0, 72, 73
1, 413440, Note_on_c, 0, 41, 46
1, 413450, Note_on_c, 0, 51, 40
1, 413474, Note_on_c, 0, 65, 40
1, 413483, Note_on_c, 0, 60, 33
1, 413515, Note_off_c, 0, 60, 54
1, 413550, Note_off_c, 0, 65, 0
1, 413550, Note_on_c, 0, 65, 11
1, 413572, Note_off_c, 0, 72, 61
1, 413601, Note_off_c, 0, 65, 47
1, 413635, Note_off_c, 0, 41, 33
1, 413668, Note_off_c, 0, 51, 58
1, 413687, Note_on_c, 0, 53, 38
1, 413733, Note_off_c, 0, 53, 51
1, 413939, Note_on_c, 0, 72, 64
1, 413950, Note_on_c, 0, 41, 44
1, 413968, Note_on_c, 0, 51, 40
1, 413976, Note_on_c, 0, 65, 24
1, 413984, Note_on_c, 0, 60, 28
1, 414001, Control_c, 0, 64, 120
1, 414016, Control_c, 0, 64, 84
1, 414031, Control_c, 0, 64, 66
1, 414046, Control_c, 0, 64, 53
1, 414061, Control_c, 0, 64, 47
1, 414076, Control_c, 0, 64, 46
1, 414091, Control_c, 0, 64, 48
1, 414105, Control_c, 0, 64, 56
1, 414120, Control_c, 0, 64, 65
1, 414121, Note_off_c, 0, 60, 38
1, 414135, Control_c, 0, 64, 74
1, 414156, Control_c, 0, 64, 86
1, 414171, Control_c, 0, 64, 100
1, 414180, Note_off_c, 0, 65, 44
1, 414186, Control_c, 0, 64, 120
1, 414201, Control_c, 0, 64, 127
1, 414204, Note_on_c, 0, 53, 27
1, 414219, Note_off_c, 0, 41, 53
1, 414234, Note_off_c, 0, 51, 57
1, 414432, Note_on_c, 0, 70, 64
1, 414448, Note_on_c, 0, 50, 40
1, 414450, Note_on_c, 0, 41, 44
1, 414461, Note_off_c, 0, 53, 42
1, 414464, Note_off_c, 0, 72, 61
1, 414472, Note_on_c, 0, 65, 30
1, 414590, Note_off_c, 0, 70, 39
1, 414652, Note_on_c, 0, 69, 68
1, 414664, Note_on_c, 0, 48, 49
1, 414683, Note_off_c, 0, 41, 41
1, 414691, Note_off_c, 0, 50, 51
1, 414711, Note_off_c, 0, 69, 62
1, 414742, Note_off_c, 0, 65, 39
1, 414932, Note_off_c, 0, 48, 55
1, 414952, Note_on_c, 0, 70, 64
1, 414969, Note_on_c, 0, 46, 36
1, 414976, Note_on_c, 0, 50, 36
1, 415009, Note_on_c, 0, 65, 27
1, 415025, Control_c, 0, 64, 108
1, 415040, Control_c, 0, 64, 81
1, 415054, Control_c, 0, 64, 64
1, 415069, Control_c, 0, 64, 51
1, 415084, Control_c, 0, 64, 42
1, 415099, Control_c, 0, 64, 36
1, 415113, Control_c, 0, 64, 30
1, 415128, Control_c, 0, 64, 0
1, 415143, Control_c, 0, 64, 29
1, 415158, Control_c, 0, 64, 38
1, 415173, Control_c, 0, 64, 52
1, 415188, Control_c, 0, 64, 64
1, 415203, Control_c, 0, 64, 72
1, 415205, Note_off_c, 0, 65, 42
1, 415217, Control_c, 0, 64, 76
1, 415232, Control_c, 0, 64, 80
1, 415247, Control_c, 0, 64, 88
1, 415262, Control_c, 0, 64, 103
1, 415277, Control_c, 0, 64, 127
1, 415292, Note_on_c, 0, 53, 12
1, 415311, Note_off_c, 0, 50, 59
1, 415524, Note_on_c, 0, 67, 51
1, 415534, Note_on_c, 0, 63, 27
1, 415540, Note_on_c, 0, 51, 43
1, 415557, Note_off_c, 0, 53, 41
1, 415559, Control_c, 0, 64, 106
1, 415574, Control_c, 0, 64, 88
1, 415589, Control_c, 0, 64, 76
1, 415603, Control_c, 0, 64, 66
1, 415618, Control_c, 0, 64, 56
1, 415633, Control_c, 0, 64, 52
1, 415671, Control_c, 0, 64, 55
1, 415685, Control_c, 0, 64, 61
1, 415700, Control_c, 0, 64, 69
1, 415715, Control_c, 0, 64, 81
1, 415730, Control_c, 0, 64, 96
1, 415742, Note_on_c, 0, 55, 46
1, 415744, Control_c, 0, 64, 107
1, 415759, Control_c, 0, 64, 127
1, 415769, Note_off_c, 0, 51, 49
1, 415808, Note_off_c, 0, 67, 37
1, 415811, Note_off_c, 0, 63, 39
1, 415974, Note_on_c, 0, 65, 58
1, 415974, Note_off_c, 0, 55, 36
1, 415981, Control_c, 0, 64, 89
1, 415983, Note_on_c, 0, 50, 44
1, 415996, Note_on_c, 0, 62, 32
1, 415996, Control_c, 0, 64, 68
1, 416010, Control_c, 0, 64, 57
1, 416025, Control_c, 0, 64, 54
1, 416040, Control_c, 0, 64, 56
1, 416055, Control_c, 0, 64, 63
1, 416070, Control_c, 0, 64, 73
1, 416085, Control_c, 0, 64, 91
1, 416100, Control_c, 0, 64, 127
1, 416119, Note_off_c, 0, 62, 42
1, 416141, Note_off_c, 0, 65, 61
1, 416176, Note_off_c, 0, 46, 37
1, 416182, Note_on_c, 0, 53, 47
1, 416184, Note_off_c, 0, 50, 62
1, 416184, Note_off_c, 0, 70, 60
1, 416243, Note_off_c, 0, 53, 49
1, 416472, Note_on_c, 0, 70, 79
1, 416518, Note_on_c, 0, 46, 40
1, 416523, Control_c, 0, 64, 108
1, 416530, Note_on_c, 0, 50, 40
1, 416538, Control_c, 0, 64, 77
1, 416553, Control_c, 0, 64, 63
1, 416567, Control_c, 0, 64, 55
1, 416582, Control_c, 0, 64, 54
1, 416597, Control_c, 0, 64, 56
1, 416612, Control_c, 0, 64, 62
1, 416626, Control_c, 0, 64, 71
1, 416641, Control_c, 0, 64, 91
1, 416656, Control_c, 0, 64, 127
1, 416782, Note_off_c, 0, 70, 63
1, 416839, Note_off_c, 0, 50, 60
1, 416842, Note_on_c, 0, 58, 39
1, 416871, Note_off_c, 0, 46, 33
1, 416914, Note_off_c, 0, 58, 55
1, 417247, Note_on_c, 0, 75, 74
1, 417280, Note_on_c, 0, 70, 46
1, 417302, Note_on_c, 0, 55, 36
1, 417306, Note_on_c, 0, 46, 33
1, 417336, Note_on_c, 0, 63, 10
1, 417376, Control_c, 0, 64, 104
1, 417390, Control_c, 0, 64, 88
1, 417405, Control_c, 0, 64, 75
1, 417420, Control_c, 0, 64, 64
1, 417435, Control_c, 0, 64, 53
1, 417450, Control_c, 0, 64, 46
1, 417464, Control_c, 0, 64, 43
1, 417479, Control_c, 0, 64, 42
1, 417493, Control_c, 0, 64, 42
1, 417507, Control_c, 0, 64, 48
1, 417522, Control_c, 0, 64, 56
1, 417537, Control_c, 0, 64, 63
1, 417552, Control_c, 0, 64, 72
1, 417567, Control_c, 0, 64, 83
1, 417581, Control_c, 0, 64, 91
1, 417596, Control_c, 0, 64, 97
1, 417604, Note_on_c, 0, 58, 29
1, 417611, Control_c, 0, 64, 106
1, 417626, Control_c, 0, 64, 127
1, 417662, Note_off_c, 0, 58, 52
1, 417728, Note_off_c, 0, 63, 41
1, 417828, Note_on_c, 0, 58, 41
1, 417882, Note_off_c, 0, 58, 53
1, 418046, Note_on_c, 0, 58, 47
1, 418109, Note_off_c, 0, 58, 51
1, 418275, Note_on_c, 0, 58, 52
1, 418333, Note_off_c, 0, 58, 57
1, 418464, Note_off_c, 0, 70, 33
1, 418476, Note_on_c, 0, 58, 43
1, 418500, Note_off_c, 0, 55, 61
1, 418511, Note_off_c, 0, 75, 49
1, 418520, Note_off_c, 0, 46, 59
1, 418667, Note_off_c, 0, 58, 52
1, 418728, Note_on_c, 0, 74, 70
1, 418744, Note_on_c, 0, 70, 51
1, 418747, Note_on_c, 0, 53, 42
1, 418782, Note_on_c, 0, 46, 37
1, 418799, Control_c, 0, 64, 104
1, 418814, Control_c, 0, 64, 79
1, 418828, Control_c, 0, 64, 65
1, 418843, Control_c, 0, 64, 59
1, 418858, Control_c, 0, 64, 59
1, 418873, Control_c, 0, 64, 61
1, 418888, Control_c, 0, 64, 66
1, 418902, Control_c, 0, 64, 76
1, 418917, Control_c, 0, 64, 96
1, 418932, Control_c, 0, 64, 127
1, 418955, Note_on_c, 0, 72, 77
1, 418970, Note_on_c, 0, 51, 62
1, 418997, Note_off_c, 0, 46, 59
1, 418999, Note_off_c, 0, 70, 62
1, 419002, Note_on_c, 0, 60, 18
1, 419015, Note_off_c, 0, 53, 49
1, 419018, Note_off_c, 0, 74, 59
1, 419044, Note_off_c, 0, 60, 54
1, 419221, Note_on_c, 0, 70, 65
1, 419221, Note_on_c, 0, 74, 75
1, 419225, Note_off_c, 0, 51, 58
1, 419237, Note_on_c, 0, 53, 40
1, 419243, Control_c, 0, 64, 114
1, 419257, Note_on_c, 0, 46, 39
1, 419258, Control_c, 0, 64, 78
1, 419260, Note_on_c, 0, 62, 29
1, 419272, Control_c, 0, 64, 60
1, 419287, Control_c, 0, 64, 41
1, 419302, Control_c, 0, 64, 31
1, 419309, Note_off_c, 0, 72, 40
1, 419346, Note_off_c, 0, 62, 0
1, 419346, Note_on_c, 0, 62, 3
1, 419346, Control_c, 0, 64, 43
1, 419361, Control_c, 0, 64, 60
1, 419377, Control_c, 0, 64, 73
1, 419400, Control_c, 0, 64, 94
1, 419401, Note_off_c, 0, 74, 63
1, 419415, Control_c, 0, 64, 126
1, 419415, Note_off_c, 0, 62, 57
1, 419441, Note_off_c, 0, 70, 64
1, 419453, Note_on_c, 0, 50, 49
1, 419468, Note_off_c, 0, 53, 32
1, 419506, Note_off_c, 0, 46, 35
1, 419522, Note_off_c, 0, 50, 49
1, 419673, Note_on_c, 0, 69, 68
1, 419692, Note_on_c, 0, 65, 52
1, 419695, Note_on_c, 0, 48, 57
1, 419709, Note_on_c, 0, 46, 43
1, 419716, Note_on_c, 0, 57, 12
1, 419725, Control_c, 0, 64, 110
1, 419740, Control_c, 0, 64, 78
1, 419755, Control_c, 0, 64, 59
1, 419769, Control_c, 0, 64, 41
1, 419784, Control_c, 0, 64, 33
1, 419799, Control_c, 0, 64, 32
1, 419814, Control_c, 0, 64, 32
1, 419829, Control_c, 0, 64, 40
1, 419844, Control_c, 0, 64, 53
1, 419859, Control_c, 0, 64, 63
1, 419873, Note_off_c, 0, 57, 55
1, 419874, Control_c, 0, 64, 72
1, 419878, Note_off_c, 0, 65, 61
1, 419888, Control_c, 0, 64, 83
1, 419903, Control_c, 0, 64, 96
1, 419913, Note_on_c, 0, 53, 42
1, 419918, Control_c, 0, 64, 103
1, 419933, Control_c, 0, 64, 112
1, 419948, Control_c, 0, 64, 127
1, 419954, Note_off_c, 0, 46, 50
1, 419982, Note_off_c, 0, 48, 36
1, 420121, Note_on_c, 0, 70, 72
1, 420125, Control_c, 0, 64, 91
1, 420139, Note_on_c, 0, 46, 44
1, 420140, Control_c, 0, 64, 70
1, 420141, Note_on_c, 0, 50, 45
1, 420151, Note_on_c, 0, 65, 49
1, 420155, Note_off_c, 0, 69, 60
1, 420163, Control_c, 0, 64, 54
1, 420171, Note_off_c, 0, 53, 34
1, 420172, Note_on_c, 0, 58, 32
1, 420178, Control_c, 0, 64, 40
1, 420193, Control_c, 0, 64, 30
1, 420207, Control_c, 0, 64, 0
1, 420237, Control_c, 0, 64, 30
1, 420252, Control_c, 0, 64, 44
1, 420267, Control_c, 0, 64, 58
1, 420282, Control_c, 0, 64, 68
1, 420297, Control_c, 0, 64, 75
1, 420312, Control_c, 0, 64, 82
1, 420315, Note_off_c, 0, 58, 42
1, 420326, Control_c, 0, 64, 85
1, 420327, Note_off_c, 0, 65, 51
1, 420341, Control_c, 0, 64, 94
1, 420356, Control_c, 0, 64, 112
1, 420370, Note_off_c, 0, 50, 57
1, 420371, Note_on_c, 0, 53, 40
1, 420371, Control_c, 0, 64, 127
1, 420371, Note_off_c, 0, 46, 54
1, 420589, Note_on_c, 0, 72, 67
1, 420607, Note_on_c, 0, 51, 45
1, 420607, Control_c, 0, 64, 100
1, 420610, Note_on_c, 0, 65, 50
1, 420613, Note_on_c, 0, 46, 37
1, 420622, Control_c, 0, 64, 75
1, 420631, Note_on_c, 0, 60, 28
1, 420634, Note_off_c, 0, 70, 55
1, 420637, Control_c, 0, 64, 60
1, 420643, Note_off_c, 0, 53, 46
1, 420652, Control_c, 0, 64, 42
1, 420666, Control_c, 0, 64, 0
1, 420752, Note_off_c, 0, 60, 38
1, 420756, Control_c, 0, 64, 37
1, 420771, Note_off_c, 0, 65, 55
1, 420771, Control_c, 0, 64, 50
1, 420786, Control_c, 0, 64, 61
1, 420800, Control_c, 0, 64, 68
1, 420815, Control_c, 0, 64, 74
1, 420830, Control_c, 0, 64, 81
1, 420845, Note_on_c, 0, 53, 45
1, 420845, Control_c, 0, 64, 90
1, 420860, Note_off_c, 0, 46, 54
1, 420860, Control_c, 0, 64, 101
1, 420867, Note_off_c, 0, 51, 50
1, 420874, Control_c, 0, 64, 121
1, 420896, Control_c, 0, 64, 127
1, 421130, Note_on_c, 0, 70, 64
1, 421130, Note_off_c, 0, 53, 0
1, 421135, Control_c, 0, 64, 100
1, 421143, Note_on_c, 0, 65, 44
1, 421149, Control_c, 0, 64, 77
1, 421149, Note_on_c, 0, 46, 30
1, 421153, Note_on_c, 0, 50, 40
1, 421164, Control_c, 0, 64, 61
1, 421164, Note_off_c, 0, 72, 61
1, 421172, Poly_aftertouch_c, 0, 53, 0
1, 421179, Control_c, 0, 64, 44
1, 421180, Note_on_c, 0, 58, 22
1, 421194, Control_c, 0, 64, 29
1, 421209, Control_c, 0, 64, 0
1, 421253, Control_c, 0, 64, 34
1, 421268, Control_c, 0, 64, 46
1, 421283, Control_c, 0, 64, 57
1, 421297, Control_c, 0, 64, 65
1, 421312, Control_c, 0, 64, 72
1, 421327, Control_c, 0, 64, 79
1, 421342, Control_c, 0, 64, 86
1, 421350, Note_off_c, 0, 58, 42
1, 421356, Control_c, 0, 64, 95
1, 421371, Control_c, 0, 64, 106
1, 421380, Note_off_c, 0, 65, 50
1, 421386, Control_c, 0, 64, 127
1, 421418, Note_on_c, 0, 53, 42
1, 421436, Note_off_c, 0, 70, 57
1, 421469, Note_off_c, 0, 46, 41
1, 421487, Note_off_c, 0, 50, 55
1, 421728, Note_on_c, 0, 74, 68
1, 421730, Note_on_c, 0, 70, 55
1, 421747, Note_on_c, 0, 46, 43
1, 421749, Note_on_c, 0, 65, 36
1, 421763, Control_c, 0, 64, 98
1, 421775, Note_on_c, 0, 62, 15
1, 421779, Control_c, 0, 64, 75
1, 421794, Control_c, 0, 64, 60
1, 421802, Note_off_c, 0, 65, 0
1, 421802, Note_on_c, 0, 65, 7
1, 421809, Control_c, 0, 64, 45
1, 421824, Control_c, 0, 64, 36
1, 421827, Note_off_c, 0, 53, 36
1, 421839, Control_c, 0, 64, 34
1, 421853, Control_c, 0, 64, 35
1, 421868, Control_c, 0, 64, 43
1, 421883, Control_c, 0, 64, 57
1, 421898, Control_c, 0, 64, 66
1, 421913, Control_c, 0, 64, 76
1, 421920, Note_off_c, 0, 62, 44
1, 421927, Control_c, 0, 64, 91
1, 421942, Control_c, 0, 64, 117
1, 421957, Control_c, 0, 64, 127
1, 422015, Note_off_c, 0, 74, 61
1, 422049, Note_off_c, 0, 65, 49
1, 422073, Note_off_c, 0, 70, 64
1, 422140, Note_on_c, 0, 53, 39
1, 422476, Note_off_c, 0, 46, 29
1, 422619, Note_off_c, 0, 53, 24
1, 422696, Note_on_c, 0, 72, 67
1, 422705, Note_on_c, 0, 69, 49
1, 422708, Note_on_c, 0, 65, 44
1, 422721, Note_on_c, 0, 60, 35
1, 422725, Note_on_c, 0, 41, 42
1, 422898, Control_c, 0, 64, 107
1, 422913, Control_c, 0, 64, 96
1, 422927, Control_c, 0, 64, 86
1, 422942, Control_c, 0, 64, 78
1, 422957, Control_c, 0, 64, 70
1, 422972, Control_c, 0, 64, 65
1, 422987, Control_c, 0, 64, 63
1, 423001, Control_c, 0, 64, 61
1, 423016, Control_c, 0, 64, 60
1, 423031, Control_c, 0, 64, 60
1, 423046, Control_c, 0, 64, 59
1, 423120, Control_c, 0, 64, 59
1, 423135, Control_c, 0, 64, 58
1, 423201, Control_c, 0, 64, 58
1, 423231, Control_c, 0, 64, 57
1, 423290, Control_c, 0, 64, 57
1, 423349, Control_c, 0, 64, 57
1, 423439, Control_c, 0, 64, 58
1, 423498, Control_c, 0, 64, 58
1, 423587, Control_c, 0, 64, 59
1, 423762, Note_off_c, 0, 41, 38
1, 423994, Control_c, 0, 64, 59
1, 424053, Control_c, 0, 64, 60
1, 424127, Control_c, 0, 64, 61
1, 424217, Control_c, 0, 64, 61
1, 424351, Control_c, 0, 64, 62
1, 424381, Control_c, 0, 64, 62
1, 424455, Control_c, 0, 64, 63
1, 424470, Control_c, 0, 64, 64
1, 424514, Control_c, 0, 64, 64
1, 424529, Control_c, 0, 64, 66
1, 424544, Control_c, 0, 64, 69
1, 424558, Control_c, 0, 64, 74
1, 424573, Control_c, 0, 64, 80
1, 424586, Note_on_c, 0, 29, 29
1, 424588, Control_c, 0, 64, 86
1, 424603, Control_c, 0, 64, 90
1, 424618, Control_c, 0, 64, 96
1, 424633, Control_c, 0, 64, 108
1, 424655, Control_c, 0, 64, 127
1, 424793, Note_off_c, 0, 29, 40
1, 424838, Note_on_c, 0, 30, 36
1, 425003, Note_on_c, 0, 32, 34
1, 425003, Note_off_c, 0, 30, 42
1, 425073, Note_off_c, 0, 32, 50
1, 425108, Note_on_c, 0, 30, 49
1, 425158, Note_off_c, 0, 30, 57
1, 425189, Note_on_c, 0, 32, 54
1, 425235, Note_off_c, 0, 32, 48
1, 425266, Note_on_c, 0, 30, 41
1, 425305, Note_off_c, 0, 30, 49
1, 425321, Note_on_c, 0, 32, 61
1, 425358, Note_off_c, 0, 32, 59
1, 425367, Control_c, 0, 64, 121
1, 425388, Control_c, 0, 64, 105
1, 425393, Note_on_c, 0, 30, 47
1, 425403, Control_c, 0, 64, 97
1, 425418, Control_c, 0, 64, 92
1, 425430, Note_off_c, 0, 30, 50
1, 425433, Control_c, 0, 64, 89
1, 425448, Control_c, 0, 64, 85
1, 425449, Note_on_c, 0, 32, 63
1, 425463, Control_c, 0, 64, 79
1, 425478, Control_c, 0, 64, 72
1, 425483, Note_off_c, 0, 32, 56
1, 425493, Control_c, 0, 64, 67
1, 425507, Control_c, 0, 64, 64
1, 425511, Note_on_c, 0, 30, 45
1, 425522, Control_c, 0, 64, 62
1, 425537, Control_c, 0, 64, 59
1, 425544, Note_off_c, 0, 30, 53
1, 425552, Control_c, 0, 64, 56
1, 425567, Control_c, 0, 64, 53
1, 425571, Note_on_c, 0, 32, 59
1, 425582, Control_c, 0, 64, 51
1, 425596, Control_c, 0, 64, 50
1, 425605, Note_off_c, 0, 32, 60
1, 425611, Control_c, 0, 64, 48
1, 425626, Control_c, 0, 64, 46
1, 425636, Note_on_c, 0, 30, 43
1, 425640, Control_c, 0, 64, 45
1, 425655, Control_c, 0, 64, 42
1, 425670, Control_c, 0, 64, 38
1, 425671, Note_off_c, 0, 30, 50
1, 425685, Control_c, 0, 64, 36
1, 425692, Note_on_c, 0, 32, 55
1, 425700, Control_c, 0, 64, 34
1, 425722, Note_off_c, 0, 32, 57
1, 425744, Control_c, 0, 64, 34
1, 425756, Note_on_c, 0, 30, 48
1, 425798, Note_off_c, 0, 30, 55
1, 425826, Note_on_c, 0, 32, 47
1, 425859, Note_off_c, 0, 32, 54
1, 425878, Control_c, 0, 64, 35
1, 425893, Control_c, 0, 64, 36
1, 425898, Note_on_c, 0, 30, 34
1, 425939, Note_off_c, 0, 30, 43
1, 425952, Note_on_c, 0, 32, 47
1, 425982, Control_c, 0, 64, 36
1, 425993, Note_off_c, 0, 32, 48
1, 426027, Note_on_c, 0, 30, 23
1, 426041, Control_c, 0, 64, 37
1, 426084, Note_off_c, 0, 30, 46
1, 426092, Note_on_c, 0, 32, 47
1, 426116, Control_c, 0, 64, 37
1, 426137, Control_c, 0, 64, 38
1, 426145, Note_off_c, 0, 32, 59
1, 426187, Note_on_c, 0, 30, 51
1, 426226, Control_c, 0, 64, 38
1, 426240, Note_off_c, 0, 30, 48
1, 426280, Note_on_c, 0, 32, 41
1, 426323, Note_off_c, 0, 32, 46
1, 426357, Note_on_c, 0, 30, 42
1, 426428, Note_off_c, 0, 30, 54
1, 426455, Note_on_c, 0, 32, 42
1, 426463, Control_c, 0, 64, 39
1, 426498, Note_off_c, 0, 32, 54
1, 426566, Note_on_c, 0, 30, 36
1, 426730, Note_on_c, 0, 29, 14
1, 426730, Note_off_c, 0, 30, 42
1, 426870, Note_off_c, 0, 29, 43
1, 426885, Note_on_c, 0, 30, 33
1, 426886, Control_c, 0, 64, 40
1, 426946, Control_c, 0, 64, 40
1, 427020, Control_c, 0, 64, 41
1, 427108, Note_off_c, 0, 30, 36
1, 427108, Control_c, 0, 64, 41
1, 427142, Note_on_c, 0, 29, 22
1, 427257, Control_c, 0, 64, 42
1, 427272, Control_c, 0, 64, 42
1, 427301, Control_c, 0, 64, 43
1, 427316, Control_c, 0, 64, 45
1, 427331, Control_c, 0, 64, 48
1, 427346, Control_c, 0, 64, 53
1, 427362, Control_c, 0, 64, 58
1, 427377, Control_c, 0, 64, 60
1, 427391, Control_c, 0, 64, 61
1, 427406, Control_c, 0, 64, 62
1, 427421, Control_c, 0, 64, 65
1, 427436, Control_c, 0, 64, 68
1, 427451, Control_c, 0, 64, 73
1, 427465, Control_c, 0, 64, 76
1, 427480, Control_c, 0, 64, 77
1, 427495, Control_c, 0, 64, 79
1, 427509, Control_c, 0, 64, 80
1, 427524, Control_c, 0, 64, 82
1, 427539, Control_c, 0, 64, 84
1, 427546, Note_off_c, 0, 29, 22
1, 427554, Control_c, 0, 64, 86
1, 427569, Control_c, 0, 64, 87
1, 427583, Control_c, 0, 64, 88
1, 427598, Control_c, 0, 64, 89
1, 427613, Control_c, 0, 64, 89
1, 427828, Control_c, 0, 64, 89
1, 427857, Control_c, 0, 64, 88
1, 427872, Control_c, 0, 64, 87
1, 427887, Control_c, 0, 64, 87
1, 427902, Control_c, 0, 64, 86
1, 427916, Control_c, 0, 64, 84
1, 427931, Control_c, 0, 64, 82
1, 427946, Control_c, 0, 64, 81
1, 427961, Control_c, 0, 64, 79
1, 427976, Control_c, 0, 64, 78
1, 427991, Control_c, 0, 64, 77
1, 428005, Control_c, 0, 64, 74
1, 428020, Control_c, 0, 64, 71
1, 428035, Control_c, 0, 64, 69
1, 428050, Control_c, 0, 64, 66
1, 428065, Control_c, 0, 64, 63
1, 428080, Control_c, 0, 64, 60
1, 428095, Control_c, 0, 64, 57
1, 428109, Control_c, 0, 64, 54
1, 428124, Control_c, 0, 64, 53
1, 428139, Control_c, 0, 64, 51
1, 428155, Control_c, 0, 64, 50
1, 428184, Control_c, 0, 64, 52
1, 428199, Control_c, 0, 64, 56
1, 428214, Control_c, 0, 64, 62
1, 428229, Control_c, 0, 64, 68
1, 428244, Control_c, 0, 64, 78
1, 428258, Control_c, 0, 64, 90
1, 428273, Control_c, 0, 64, 99
1, 428288, Control_c, 0, 64, 106
1, 428301, Note_off_c, 0, 72, 44
1, 428303, Control_c, 0, 64, 123
1, 428318, Control_c, 0, 64, 127
1, 428362, Note_off_c, 0, 60, 42
1, 428399, Note_off_c, 0, 69, 52
1, 428415, Note_off_c, 0, 65, 54
1, 428518, Control_c, 0, 64, 123
1, 428533, Control_c, 0, 64, 108
1, 428547, Control_c, 0, 64, 99
1, 428562, Control_c, 0, 64, 93
1, 428577, Control_c, 0, 64, 90
1, 428592, Control_c, 0, 64, 87
1, 428607, Control_c, 0, 64, 85
1, 428621, Control_c, 0, 64, 82
1, 428636, Control_c, 0, 64, 77
1, 428651, Control_c, 0, 64, 73
1, 428665, Control_c, 0, 64, 70
1, 428680, Control_c, 0, 64, 67
1, 428695, Control_c, 0, 64, 65
1, 428710, Control_c, 0, 64, 63
1, 428725, Control_c, 0, 64, 62
1, 428739, Control_c, 0, 64, 61
1, 428754, Control_c, 0, 64, 60
1, 428769, Control_c, 0, 64, 60
1, 428784, Control_c, 0, 64, 59
1, 428799, Control_c, 0, 64, 58
1, 428813, Control_c, 0, 64, 57
1, 428873, Control_c, 0, 64, 57
1, 428888, Control_c, 0, 64, 56
1, 428918, Control_c, 0, 64, 57
1, 428977, Control_c, 0, 64, 58
1, 428992, Control_c, 0, 64, 59
1, 429007, Control_c, 0, 64, 60
1, 429067, Control_c, 0, 64, 60
1, 429081, Control_c, 0, 64, 61
1, 429162, Control_c, 0, 64, 61
1, 429177, Control_c, 0, 64, 62
1, 429192, Control_c, 0, 64, 62
1, 429252, Control_c, 0, 64, 63
1, 429266, Control_c, 0, 64, 64
1, 429296, Control_c, 0, 64, 64
1, 429326, Control_c, 0, 64, 65
1, 429341, Control_c, 0, 64, 66
1, 429356, Control_c, 0, 64, 69
1, 429370, Control_c, 0, 64, 71
1, 429385, Control_c, 0, 64, 73
1, 429400, Control_c, 0, 64, 74
1, 429415, Control_c, 0, 64, 75
1, 429430, Control_c, 0, 64, 76
1, 429444, Control_c, 0, 64, 78
1, 429459, Control_c, 0, 64, 80
1, 429474, Control_c, 0, 64, 82
1, 429488, Control_c, 0, 64, 84
1, 429503, Control_c, 0, 64, 87
1, 429518, Control_c, 0, 64, 90
1, 429533, Control_c, 0, 64, 93
1, 429548, Control_c, 0, 64, 95
1, 429562, Control_c, 0, 64, 97
1, 429577, Control_c, 0, 64, 101
1, 429592, Control_c, 0, 64, 105
1, 429606, Control_c, 0, 64, 109
1, 429621, Control_c, 0, 64, 114
1, 429636, Control_c, 0, 64, 127
1, 429916, Note_on_c, 0, 70, 45
1, 429958, Note_on_c, 0, 46, 18
1, 429968, Note_on_c, 0, 65, 23
1, 429972, Note_on_c, 0, 50, 8
1, 430214, Note_off_c, 0, 65, 42
1, 430246, Note_off_c, 0, 70, 60
1, 430400, Note_on_c, 0, 53, 27
1, 430468, Note_off_c, 0, 50, 44
1, 430479, Note_off_c, 0, 46, 40
1, 430590, Note_off_c, 0, 53, 18
1, 430690, Note_on_c, 0, 70, 51
1, 430720, Note_on_c, 0, 46, 34
1, 430721, Note_on_c, 0, 50, 33
1, 430826, Poly_aftertouch_c, 0, 65, 127
1, 430952, Note_on_c, 0, 53, 29
1, 431004, Note_off_c, 0, 46, 37
1, 431009, Note_off_c, 0, 50, 45
1, 431153, Note_on_c, 0, 69, 69
1, 431159, Note_off_c, 0, 53, 34
1, 431182, Note_on_c, 0, 46, 26
1, 431192, Note_on_c, 0, 48, 32
1, 431264, Note_off_c, 0, 70, 38
1, 431266, Poly_aftertouch_c, 0, 65, 0
1, 431386, Note_on_c, 0, 53, 38
1, 431417, Note_off_c, 0, 46, 41
1, 431429, Note_off_c, 0, 48, 41
1, 431463, Note_off_c, 0, 53, 0
1, 431500, Poly_aftertouch_c, 0, 53, 127
1, 431575, Note_on_c, 0, 70, 69
1, 431590, Poly_aftertouch_c, 0, 53, 0
1, 431597, Note_on_c, 0, 46, 39
1, 431607, Note_on_c, 0, 50, 42
1, 431607, Note_off_c, 0, 69, 60
1, 431614, Note_on_c, 0, 65, 38
1, 431642, Note_on_c, 0, 58, 21
1, 431647, Control_c, 0, 64, 88
1, 431662, Control_c, 0, 64, 67
1, 431676, Control_c, 0, 64, 53
1, 431690, Note_off_c, 0, 58, 41
1, 431691, Control_c, 0, 64, 47
1, 431706, Control_c, 0, 64, 46
1, 431720, Control_c, 0, 64, 47
1, 431735, Control_c, 0, 64, 57
1, 431749, Control_c, 0, 64, 67
1, 431764, Control_c, 0, 64, 83
1, 431779, Control_c, 0, 64, 127
1, 431815, Note_off_c, 0, 65, 39
1, 431818, Note_on_c, 0, 53, 40
1, 431855, Note_off_c, 0, 46, 54
1, 431860, Note_off_c, 0, 50, 61
1, 432052, Note_on_c, 0, 72, 77
1, 432081, Note_on_c, 0, 65, 39
1, 432086, Note_on_c, 0, 51, 42
1, 432096, Note_on_c, 0, 46, 37
1, 432107, Note_on_c, 0, 60, 20
1, 432108, Note_off_c, 0, 53, 37
1, 432143, Control_c, 0, 64, 91
1, 432149, Note_off_c, 0, 70, 61
1, 432158, Control_c, 0, 64, 65
1, 432173, Control_c, 0, 64, 49
1, 432188, Control_c, 0, 64, 40
1, 432203, Control_c, 0, 64, 38
1, 432218, Control_c, 0, 64, 39
1, 432232, Control_c, 0, 64, 45
1, 432247, Control_c, 0, 64, 60
1, 432262, Control_c, 0, 64, 72
1, 432277, Control_c, 0, 64, 91
1, 432285, Note_off_c, 0, 60, 35
1, 432292, Control_c, 0, 64, 127
1, 432328, Note_on_c, 0, 53, 55
1, 432349, Note_off_c, 0, 65, 44
1, 432377, Note_off_c, 0, 53, 55
1, 432380, Note_off_c, 0, 51, 59
1, 432386, Note_off_c, 0, 46, 58
1, 432665, Note_on_c, 0, 74, 73
1, 432700, Note_on_c, 0, 52, 42
1, 432701, Note_on_c, 0, 46, 29
1, 432735, Note_on_c, 0, 65, 14
1, 432751, Control_c, 0, 64, 101
1, 432766, Control_c, 0, 64, 84
1, 432768, Poly_aftertouch_c, 0, 62, 127
1, 432780, Control_c, 0, 64, 72
1, 432795, Control_c, 0, 64, 62
1, 432810, Control_c, 0, 64, 54
1, 432816, Note_off_c, 0, 72, 37
1, 432824, Control_c, 0, 64, 51
1, 432839, Control_c, 0, 64, 50
1, 432854, Control_c, 0, 64, 49
1, 432876, Control_c, 0, 64, 47
1, 432891, Control_c, 0, 64, 45
1, 432906, Control_c, 0, 64, 43
1, 432913, Note_off_c, 0, 52, 45
1, 432966, Control_c, 0, 64, 43
1, 432993, Note_on_c, 0, 53, 39
1, 433010, Control_c, 0, 64, 43
1, 433040, Note_off_c, 0, 53, 60
1, 433070, Control_c, 0, 64, 44
1, 433085, Control_c, 0, 64, 48
1, 433100, Control_c, 0, 64, 52
1, 433115, Control_c, 0, 64, 54
1, 433129, Control_c, 0, 64, 54
1, 433144, Control_c, 0, 64, 56
1, 433159, Control_c, 0, 64, 61
1, 433174, Control_c, 0, 64, 67
1, 433189, Control_c, 0, 64, 76
1, 433203, Control_c, 0, 64, 86
1, 433218, Control_c, 0, 64, 92
1, 433223, Note_on_c, 0, 53, 38
1, 433233, Control_c, 0, 64, 96
1, 433248, Control_c, 0, 64, 99
1, 433262, Control_c, 0, 64, 110
1, 433264, Note_off_c, 0, 53, 55
1, 433277, Control_c, 0, 64, 127
1, 433437, Note_on_c, 0, 53, 41
1, 433481, Note_off_c, 0, 53, 54
1, 433663, Note_on_c, 0, 53, 47
1, 433684, Note_off_c, 0, 74, 59
1, 433717, Note_off_c, 0, 53, 55
1, 433734, Poly_aftertouch_c, 0, 62, 0
1, 433750, Note_off_c, 0, 65, 41
1, 433866, Note_on_c, 0, 53, 42
1, 433908, Note_off_c, 0, 46, 48
1, 434104, Note_on_c, 0, 72, 64
1, 434125, Note_on_c, 0, 51, 42
1, 434125, Note_on_c, 0, 65, 37
1, 434138, Note_on_c, 0, 46, 42
1, 434160, Control_c, 0, 64, 96
1, 434175, Control_c, 0, 64, 72
1, 434188, Note_off_c, 0, 65, 0
1, 434188, Note_on_c, 0, 65, 13
1, 434190, Control_c, 0, 64, 58
1, 434197, Note_off_c, 0, 53, 34
1, 434204, Control_c, 0, 64, 55
1, 434219, Control_c, 0, 64, 57
1, 434234, Control_c, 0, 64, 62
1, 434236, Poly_aftertouch_c, 0, 60, 0
1, 434237, Note_off_c, 0, 65, 0
1, 434237, Note_on_c, 0, 65, 9
1, 434249, Control_c, 0, 64, 69
1, 434264, Control_c, 0, 64, 78
1, 434278, Control_c, 0, 64, 88
1, 434293, Control_c, 0, 64, 101
1, 434308, Control_c, 0, 64, 127
1, 434358, Note_on_c, 0, 70, 76
1, 434367, Note_on_c, 0, 50, 45
1, 434391, Note_off_c, 0, 65, 47
1, 434399, Note_on_c, 0, 58, 29
1, 434408, Note_off_c, 0, 46, 59
1, 434408, Note_off_c, 0, 72, 61
1, 434423, Note_off_c, 0, 51, 59
1, 434435, Note_off_c, 0, 58, 54
1, 434441, Note_off_c, 0, 50, 59
1, 434683, Note_on_c, 0, 72, 73
1, 434697, Note_on_c, 0, 41, 46
1, 434709, Note_on_c, 0, 65, 43
1, 434710, Note_on_c, 0, 51, 42
1, 434716, Control_c, 0, 64, 108
1, 434725, Note_on_c, 0, 60, 35
1, 434725, Note_off_c, 0, 70, 62
1, 434731, Control_c, 0, 64, 78
1, 434746, Control_c, 0, 64, 60
1, 434761, Control_c, 0, 64, 45
1, 434775, Control_c, 0, 64, 36
1, 434790, Control_c, 0, 64, 34
1, 434805, Control_c, 0, 64, 35
1, 434820, Control_c, 0, 64, 43
1, 434835, Control_c, 0, 64, 55
1, 434850, Control_c, 0, 64, 65
1, 434865, Control_c, 0, 64, 75
1, 434879, Note_off_c, 0, 60, 56
1, 434879, Control_c, 0, 64, 86
1, 434894, Control_c, 0, 64, 99
1, 434903, Note_off_c, 0, 72, 60
1, 434909, Control_c, 0, 64, 118
1, 434924, Control_c, 0, 64, 127
1, 434938, Note_off_c, 0, 65, 61
1, 434956, Note_on_c, 0, 53, 30
1, 434969, Note_off_c, 0, 41, 61
1, 434982, Note_off_c, 0, 51, 58
1, 435106, Note_off_c, 0, 53, 30
1, 435184, Note_on_c, 0, 72, 76
1, 435198, Note_on_c, 0, 41, 46
1, 435207, Note_on_c, 0, 51, 52
1, 435218, Note_on_c, 0, 65, 47
1, 435230, Note_on_c, 0, 60, 34
1, 435268, Note_off_c, 0, 60, 56
1, 435315, Note_off_c, 0, 72, 61
1, 435336, Note_off_c, 0, 65, 0
1, 435362, Poly_aftertouch_c, 0, 65, 0
1, 435386, Note_off_c, 0, 41, 41
1, 435423, Note_on_c, 0, 53, 43
1, 435426, Note_off_c, 0, 51, 55
1, 435596, Note_off_c, 0, 53, 33
1, 435703, Note_on_c, 0, 72, 60
1, 435717, Note_on_c, 0, 41, 38
1, 435729, Note_on_c, 0, 65, 38
1, 435735, Note_on_c, 0, 51, 35
1, 435748, Note_on_c, 0, 60, 31
1, 435792, Control_c, 0, 64, 86
1, 435806, Control_c, 0, 64, 66
1, 435821, Control_c, 0, 64, 49
1, 435836, Control_c, 0, 64, 43
1, 435850, Control_c, 0, 64, 44
1, 435865, Control_c, 0, 64, 47
1, 435887, Control_c, 0, 64, 57
1, 435902, Control_c, 0, 64, 66
1, 435917, Control_c, 0, 64, 77
1, 435925, Note_off_c, 0, 60, 38
1, 435932, Control_c, 0, 64, 89
1, 435945, Note_off_c, 0, 65, 49
1, 435947, Control_c, 0, 64, 102
1, 435960, Note_on_c, 0, 53, 53
1, 435962, Control_c, 0, 64, 127
1, 436034, Note_off_c, 0, 41, 41
1, 436036, Note_off_c, 0, 51, 42
1, 436173, Note_on_c, 0, 70, 77
1, 436185, Note_on_c, 0, 41, 20
1, 436188, Note_on_c, 0, 65, 51
1, 436195, Note_on_c, 0, 50, 39
1, 436195, Note_off_c, 0, 53, 55
1, 436208, Note_on_c, 0, 58, 19
1, 436233, Note_off_c, 0, 72, 59
1, 436257, Note_off_c, 0, 58, 47
1, 436320, Note_off_c, 0, 70, 61
1, 436409, Note_on_c, 0, 69, 74
1, 436417, Note_on_c, 0, 48, 49
1, 436435, Control_c, 0, 67, 123
1, 436450, Control_c, 0, 67, 114
1, 436471, Note_off_c, 0, 48, 0
1, 436471, Note_on_c, 0, 48, 33
1, 436472, Note_off_c, 0, 69, 60
1, 436478, Note_off_c, 0, 50, 37
1, 436479, Control_c, 0, 67, 116
1, 436481, Note_off_c, 0, 41, 40
1, 436488, Note_off_c, 0, 65, 36
1, 436509, Control_c, 0, 67, 119
1, 436524, Control_c, 0, 67, 123
1, 436538, Control_c, 0, 67, 125
1, 436583, Control_c, 0, 67, 127
1, 436710, Note_on_c, 0, 70, 61
1, 436721, Note_off_c, 0, 48, 51
1, 436743, Note_on_c, 0, 65, 44
1, 436744, Note_on_c, 0, 46, 36
1, 436746, Note_on_c, 0, 50, 37
1, 436827, Control_c, 0, 64, 93
1, 436842, Control_c, 0, 64, 67
1, 436857, Control_c, 0, 64, 49
1, 436871, Control_c, 0, 64, 36
1, 436886, Control_c, 0, 64, 33
1, 436916, Control_c, 0, 64, 34
1, 436931, Control_c, 0, 64, 44
1, 436947, Control_c, 0, 64, 57
1, 436962, Control_c, 0, 64, 67
1, 436976, Control_c, 0, 64, 81
1, 436991, Control_c, 0, 64, 107
1, 437006, Control_c, 0, 64, 127
1, 437020, Note_off_c, 0, 65, 57
1, 437047, Note_on_c, 0, 53, 38
1, 437092, Note_off_c, 0, 50, 62
1, 437253, Note_on_c, 0, 67, 55
1, 437272, Note_on_c, 0, 63, 42
1, 437278, Note_on_c, 0, 51, 45
1, 437302, Control_c, 0, 64, 109
1, 437317, Control_c, 0, 64, 82
1, 437321, Note_off_c, 0, 53, 33
1, 437332, Control_c, 0, 64, 65
1, 437347, Control_c, 0, 64, 48
1, 437369, Control_c, 0, 64, 34
1, 437383, Control_c, 0, 64, 0
1, 437413, Control_c, 0, 64, 32
1, 437428, Control_c, 0, 64, 46
1, 437443, Control_c, 0, 64, 61
1, 437458, Control_c, 0, 64, 73
1, 437473, Control_c, 0, 64, 84
1, 437478, Note_on_c, 0, 55, 47
1, 437488, Control_c, 0, 64, 94
1, 437502, Control_c, 0, 64, 105
1, 437517, Control_c, 0, 64, 127
1, 437524, Note_off_c, 0, 63, 53
1, 437531, Note_off_c, 0, 51, 57
1, 437542, Note_off_c, 0, 67, 51
1, 437689, Note_off_c, 0, 55, 56
1, 437710, Control_c, 0, 64, 83
1, 437717, Note_on_c, 0, 65, 68
1, 437725, Note_on_c, 0, 50, 37
1, 437725, Control_c, 0, 64, 65
1, 437740, Control_c, 0, 64, 55
1, 437756, Control_c, 0, 64, 54
1, 437771, Control_c, 0, 64, 58
1, 437779, Poly_aftertouch_c, 0, 62, 127
1, 437786, Control_c, 0, 64, 66
1, 437800, Control_c, 0, 64, 79
1, 437815, Control_c, 0, 64, 106
1, 437828, Note_off_c, 0, 70, 61
1, 437830, Control_c, 0, 64, 127
1, 437846, Poly_aftertouch_c, 0, 62, 0
1, 437908, Note_off_c, 0, 65, 60
1, 437918, Control_c, 0, 67, 117
1, 437933, Control_c, 0, 67, 94
1, 437941, Note_on_c, 0, 53, 48
1, 437941, Note_off_c, 0, 46, 59
1, 437948, Control_c, 0, 67, 75
1, 437963, Control_c, 0, 67, 56
1, 437972, Note_off_c, 0, 50, 56
1, 437977, Control_c, 0, 67, 0
1, 438006, Note_off_c, 0, 53, 55
1, 438242, Note_on_c, 0, 74, 88
1, 438266, Note_on_c, 0, 65, 40
1, 438279, Note_on_c, 0, 44, 48
1, 438290, Note_on_c, 0, 62, 4
1, 438291, Note_on_c, 0, 50, 37
1, 438311, Control_c, 0, 64, 84
1, 438317, Note_off_c, 0, 65, 0
1, 438317, Note_on_c, 0, 65, 22
1, 438325, Control_c, 0, 64, 64
1, 438340, Control_c, 0, 64, 49
1, 438355, Control_c, 0, 64, 40
1, 438365, Note_off_c, 0, 65, 0
1, 438365, Note_on_c, 0, 65, 5
1, 438370, Control_c, 0, 64, 37
1, 438400, Control_c, 0, 64, 45
1, 438415, Control_c, 0, 64, 57
1, 438430, Control_c, 0, 64, 67
1, 438444, Control_c, 0, 64, 81
1, 438458, Control_c, 0, 64, 111
1, 438473, Control_c, 0, 64, 127
1, 438540, Note_off_c, 0, 62, 44
1, 438546, Note_off_c, 0, 65, 51
1, 438552, Note_off_c, 0, 74, 59
1, 438567, Note_on_c, 0, 53, 44
1, 438593, Note_off_c, 0, 44, 61
1, 438608, Note_off_c, 0, 50, 46
1, 438610, Note_off_c, 0, 53, 57
1, 438911, Note_on_c, 0, 74, 78
1, 438943, Note_on_c, 0, 43, 44
1, 438945, Note_on_c, 0, 53, 41
1, 438945, Note_on_c, 0, 62, 21
1, 438947, Note_on_c, 0, 67, 35
1, 439014, Control_c, 0, 64, 93
1, 439029, Control_c, 0, 64, 74
1, 439044, Control_c, 0, 64, 62
1, 439059, Control_c, 0, 64, 49
1, 439074, Control_c, 0, 64, 37
1, 439088, Control_c, 0, 64, 29
1, 439133, Control_c, 0, 64, 43
1, 439148, Control_c, 0, 64, 57
1, 439163, Control_c, 0, 64, 67
1, 439178, Control_c, 0, 64, 78
1, 439192, Control_c, 0, 64, 95
1, 439207, Control_c, 0, 64, 120
1, 439211, Note_on_c, 0, 55, 41
1, 439222, Control_c, 0, 64, 127
1, 439285, Note_off_c, 0, 55, 53
1, 439422, Note_on_c, 0, 55, 52
1, 439497, Note_off_c, 0, 55, 60
1, 439631, Note_on_c, 0, 55, 52
1, 439695, Note_off_c, 0, 55, 59
1, 439838, Note_on_c, 0, 55, 60
1, 439891, Note_off_c, 0, 55, 57
1, 439917, Note_off_c, 0, 74, 56
1, 440004, Note_off_c, 0, 67, 44
1, 440011, Note_off_c, 0, 62, 39
1, 440042, Note_on_c, 0, 55, 51
1, 440056, Note_off_c, 0, 43, 54
1, 440061, Note_off_c, 0, 53, 62
1, 440111, Note_off_c, 0, 55, 49
1, 440288, Note_on_c, 0, 72, 71
1, 440312, Note_on_c, 0, 67, 45
1, 440326, Note_on_c, 0, 51, 49
1, 440341, Note_on_c, 0, 43, 50
1, 440342, Note_on_c, 0, 55, 5
1, 440342, Control_c, 0, 64, 103
1, 440364, Control_c, 0, 64, 72
1, 440379, Control_c, 0, 64, 56
1, 440394, Control_c, 0, 64, 48
1, 440409, Control_c, 0, 64, 51
1, 440424, Control_c, 0, 64, 60
1, 440439, Control_c, 0, 64, 71
1, 440453, Control_c, 0, 64, 94
1, 440462, Note_off_c, 0, 51, 53
1, 440468, Control_c, 0, 64, 127
1, 440532, Note_off_c, 0, 55, 41
1, 440539, Note_on_c, 0, 71, 80
1, 440546, Note_off_c, 0, 43, 0
1, 440561, Note_on_c, 0, 59, 58
1, 440566, Note_on_c, 0, 50, 63
1, 440569, Note_on_c, 0, 43, 11
1, 440572, Note_off_c, 0, 67, 28
1, 440592, Note_off_c, 0, 59, 52
1, 440639, Note_off_c, 0, 43, 42
1, 440679, Note_off_c, 0, 72, 27
1, 440707, Note_off_c, 0, 50, 52
1, 440854, Note_on_c, 0, 75, 85
1, 440870, Note_on_c, 0, 48, 60
1, 440874, Note_on_c, 0, 63, 43
1, 440880, Note_on_c, 0, 43, 43
1, 440884, Note_on_c, 0, 67, 55
1, 440898, Control_c, 0, 64, 82
1, 440913, Control_c, 0, 64, 56
1, 440914, Note_on_c, 0, 68, 11
1, 440928, Control_c, 0, 64, 32
1, 440943, Note_off_c, 0, 71, 58
1, 440943, Control_c, 0, 64, 0
1, 440984, Note_off_c, 0, 63, 49
1, 440987, Control_c, 0, 64, 37
1, 441002, Control_c, 0, 64, 56
1, 441017, Control_c, 0, 64, 68
1, 441032, Control_c, 0, 64, 79
1, 441047, Control_c, 0, 64, 99
1, 441062, Control_c, 0, 64, 127
1, 441074, Note_off_c, 0, 67, 57
1, 441081, Note_off_c, 0, 68, 21
1, 441098, Note_on_c, 0, 55, 49
1, 441100, Note_off_c, 0, 75, 60
1, 441101, Note_off_c, 0, 48, 59
1, 441134, Note_off_c, 0, 43, 60
1, 441196, Note_off_c, 0, 55, 54
1, 441324, Note_on_c, 0, 74, 85
1, 441327, Note_on_c, 0, 43, 59
1, 441331, Note_on_c, 0, 53, 54
1, 441348, Note_on_c, 0, 67, 56
1, 441349, Note_on_c, 0, 62, 48
1, 441366, Control_c, 0, 64, 100
1, 441381, Control_c, 0, 64, 73
1, 441395, Control_c, 0, 64, 59
1, 441404, Note_off_c, 0, 62, 0
1, 441410, Control_c, 0, 64, 51
1, 441440, Control_c, 0, 64, 57
1, 441441, Poly_aftertouch_c, 0, 62, 127
1, 441455, Control_c, 0, 64, 65
1, 441469, Control_c, 0, 64, 77
1, 441484, Control_c, 0, 64, 97
1, 441499, Control_c, 0, 64, 127
1, 441503, Poly_aftertouch_c, 0, 62, 0
1, 441529, Note_off_c, 0, 67, 34
1, 441540, Note_on_c, 0, 55, 64
1, 441570, Note_off_c, 0, 53, 60
1, 441601, Note_off_c, 0, 43, 53
1, 441765, Note_on_c, 0, 72, 82
1, 441781, Control_c, 0, 64, 108
1, 441786, Note_on_c, 0, 60, 48
1, 441790, Note_on_c, 0, 51, 59
1, 441792, Note_on_c, 0, 43, 52
1, 441795, Note_on_c, 0, 67, 45
1, 441796, Note_off_c, 0, 55, 51
1, 441796, Control_c, 0, 64, 74
1, 441810, Control_c, 0, 64, 55
1, 441825, Control_c, 0, 64, 33
1, 441839, Note_off_c, 0, 74, 61
1, 441840, Control_c, 0, 64, 0
1, 441907, Control_c, 0, 64, 31
1, 441922, Control_c, 0, 64, 50
1, 441937, Control_c, 0, 64, 66
1, 441952, Control_c, 0, 64, 75
1, 441966, Control_c, 0, 64, 80
1, 441981, Control_c, 0, 64, 83
1, 441996, Control_c, 0, 64, 92
1, 442010, Control_c, 0, 64, 127
1, 442025, Note_on_c, 0, 55, 56
1, 442043, Note_off_c, 0, 43, 60
1, 442051, Note_off_c, 0, 60, 43
1, 442057, Note_off_c, 0, 67, 44
1, 442069, Note_off_c, 0, 51, 61
1, 442075, Note_off_c, 0, 55, 54
1, 442077, Note_off_c, 0, 72, 61
1, 442114, Control_c, 0, 67, 39
1, 442129, Control_c, 0, 67, 57
1, 442144, Control_c, 0, 67, 65
1, 442174, Control_c, 0, 67, 67
1, 442189, Control_c, 0, 67, 69
1, 442203, Control_c, 0, 67, 76
1, 442217, Control_c, 0, 67, 87
1, 442232, Control_c, 0, 67, 91
1, 442247, Control_c, 0, 67, 93
1, 442262, Control_c, 0, 67, 95
1, 442277, Control_c, 0, 67, 107
1, 442291, Control_c, 0, 67, 123
1, 442306, Note_on_c, 0, 72, 67
1, 442306, Control_c, 0, 67, 127
1, 442333, Note_on_c, 0, 69, 61
1, 442336, Note_on_c, 0, 42, 54
1, 442338, Note_on_c, 0, 51, 50
1, 442355, Note_on_c, 0, 60, 31
1, 442365, Control_c, 0, 64, 88
1, 442380, Control_c, 0, 64, 68
1, 442395, Control_c, 0, 64, 52
1, 442409, Control_c, 0, 64, 29
1, 442424, Control_c, 0, 64, 0
1, 442484, Control_c, 0, 64, 31
1, 442499, Control_c, 0, 64, 47
1, 442514, Control_c, 0, 64, 60
1, 442524, Note_off_c, 0, 72, 58
1, 442528, Control_c, 0, 64, 70
1, 442544, Control_c, 0, 64, 80
1, 442559, Control_c, 0, 64, 97
1, 442574, Control_c, 0, 64, 121
1, 442587, Note_off_c, 0, 60, 35
1, 442588, Control_c, 0, 64, 127
1, 442644, Note_off_c, 0, 69, 61
1, 442672, Note_on_c, 0, 54, 50
1, 442683, Note_off_c, 0, 42, 55
1, 442718, Note_off_c, 0, 51, 61
1, 442772, Note_off_c, 0, 54, 39
1, 443060, Note_on_c, 0, 72, 68
1, 443072, Note_on_c, 0, 69, 55
1, 443086, Note_on_c, 0, 51, 46
1, 443087, Note_on_c, 0, 41, 44
1, 443089, Note_on_c, 0, 65, 47
1, 443094, Note_on_c, 0, 60, 40
1, 443100, Control_c, 0, 64, 86
1, 443114, Control_c, 0, 64, 68
1, 443129, Control_c, 0, 64, 55
1, 443144, Control_c, 0, 64, 43
1, 443158, Control_c, 0, 64, 34
1, 443173, Control_c, 0, 64, 32
1, 443218, Control_c, 0, 64, 33
1, 443262, Control_c, 0, 64, 34
1, 443277, Control_c, 0, 64, 38
1, 443292, Control_c, 0, 64, 45
1, 443306, Control_c, 0, 64, 51
1, 443321, Control_c, 0, 64, 54
1, 443337, Control_c, 0, 64, 56
1, 443352, Control_c, 0, 64, 60
1, 443375, Control_c, 0, 64, 66
1, 443386, Note_on_c, 0, 53, 44
1, 443389, Control_c, 0, 64, 72
1, 443404, Control_c, 0, 64, 80
1, 443419, Control_c, 0, 64, 86
1, 443434, Control_c, 0, 64, 91
1, 443448, Note_off_c, 0, 53, 57
1, 443449, Control_c, 0, 64, 97
1, 443463, Control_c, 0, 64, 106
1, 443478, Control_c, 0, 64, 127
1, 443590, Note_on_c, 0, 53, 47
1, 443656, Note_off_c, 0, 53, 58
1, 443800, Note_on_c, 0, 53, 40
1, 443862, Note_off_c, 0, 53, 51
1, 444028, Note_on_c, 0, 53, 53
1, 444067, Note_off_c, 0, 69, 60
1, 444070, Note_off_c, 0, 53, 57
1, 444114, Note_off_c, 0, 60, 63
1, 444117, Note_off_c, 0, 65, 60
1, 444263, Note_on_c, 0, 53, 40
1, 444318, Note_off_c, 0, 51, 60
1, 444352, Note_off_c, 0, 41, 34
1, 444400, Note_off_c, 0, 53, 30
1, 444503, Note_on_c, 0, 70, 72
1, 444509, Control_c, 0, 64, 87
1, 444517, Note_on_c, 0, 65, 52
1, 444524, Control_c, 0, 64, 69
1, 444527, Note_on_c, 0, 41, 33
1, 444536, Note_on_c, 0, 50, 40
1, 444538, Note_on_c, 0, 58, 26
1, 444538, Control_c, 0, 64, 62
1, 444553, Control_c, 0, 64, 61
1, 444568, Control_c, 0, 64, 66
1, 444583, Control_c, 0, 64, 78
1, 444596, Poly_aftertouch_c, 0, 53, 127
1, 444598, Control_c, 0, 64, 127
1, 444617, Note_off_c, 0, 72, 56
1, 444635, Poly_aftertouch_c, 0, 53, 0
1, 444642, Note_off_c, 0, 58, 41
1, 444659, Note_off_c, 0, 50, 61
1, 444670, Note_off_c, 0, 41, 45
1, 444681, Note_off_c, 0, 70, 58
1, 444731, Control_c, 0, 64, 82
1, 444746, Control_c, 0, 64, 64
1, 444750, Note_on_c, 0, 69, 70
1, 444758, Note_on_c, 0, 48, 59
1, 444761, Control_c, 0, 64, 58
1, 444771, Note_on_c, 0, 57, 53
1, 444776, Control_c, 0, 64, 60
1, 444780, Note_on_c, 0, 41, 49
1, 444791, Control_c, 0, 64, 68
1, 444805, Control_c, 0, 64, 81
1, 444820, Control_c, 0, 64, 106
1, 444835, Control_c, 0, 64, 127
1, 444857, Note_off_c, 0, 57, 61
1, 444877, Note_off_c, 0, 65, 46
1, 444886, Note_off_c, 0, 48, 61
1, 444895, Note_off_c, 0, 41, 55
1, 445092, Note_on_c, 0, 74, 76
1, 445099, Note_on_c, 0, 46, 50
1, 445100, Note_on_c, 0, 65, 54
1, 445103, Note_on_c, 0, 41, 43
1, 445104, Note_on_c, 0, 62, 52
1, 445110, Control_c, 0, 64, 82
1, 445125, Control_c, 0, 64, 63
1, 445140, Control_c, 0, 64, 45
1, 445155, Control_c, 0, 64, 0
1, 445167, Note_off_c, 0, 69, 54
1, 445214, Control_c, 0, 64, 30
1, 445229, Control_c, 0, 64, 45
1, 445243, Control_c, 0, 64, 59
1, 445258, Control_c, 0, 64, 69
1, 445273, Control_c, 0, 64, 78
1, 445285, Note_off_c, 0, 74, 64
1, 445288, Control_c, 0, 64, 84
1, 445297, Note_off_c, 0, 62, 36
1, 445303, Control_c, 0, 64, 96
1, 445316, Note_on_c, 0, 53, 53
1, 445317, Control_c, 0, 64, 123
1, 445326, Note_off_c, 0, 65, 61
1, 445332, Control_c, 0, 64, 127
1, 445375, Note_off_c, 0, 41, 40
1, 445420, Note_off_c, 0, 46, 38
1, 445536, Note_on_c, 0, 69, 69
1, 445539, Note_off_c, 0, 53, 35
1, 445554, Control_c, 0, 64, 84
1, 445558, Note_on_c, 0, 65, 48
1, 445560, Note_on_c, 0, 57, 31
1, 445561, Note_on_c, 0, 41, 42
1, 445564, Note_on_c, 0, 48, 41
1, 445569, Control_c, 0, 64, 64
1, 445584, Control_c, 0, 64, 47
1, 445599, Control_c, 0, 64, 37
1, 445620, Note_off_c, 0, 65, 0
1, 445620, Note_on_c, 0, 65, 16
1, 445621, Control_c, 0, 64, 35
1, 445629, Note_off_c, 0, 57, 0
1, 445629, Note_on_c, 0, 57, 3
1, 445635, Control_c, 0, 64, 36
1, 445650, Control_c, 0, 64, 43
1, 445665, Control_c, 0, 64, 54
1, 445680, Control_c, 0, 64, 63
1, 445695, Control_c, 0, 64, 71
1, 445709, Control_c, 0, 64, 80
1, 445724, Control_c, 0, 64, 88
1, 445740, Control_c, 0, 64, 92
1, 445744, Note_off_c, 0, 57, 47
1, 445755, Control_c, 0, 64, 100
1, 445760, Note_off_c, 0, 65, 44
1, 445770, Control_c, 0, 64, 113
1, 445771, Note_on_c, 0, 53, 40
1, 445784, Control_c, 0, 64, 127
1, 445798, Note_off_c, 0, 48, 57
1, 445813, Note_off_c, 0, 41, 41
1, 446022, Control_c, 0, 64, 89
1, 446035, Note_on_c, 0, 70, 69
1, 446037, Control_c, 0, 64, 71
1, 446049, Note_on_c, 0, 50, 36
1, 446049, Note_on_c, 0, 41, 40
1, 446052, Control_c, 0, 64, 56
1, 446056, Note_on_c, 0, 65, 47
1, 446057, Note_off_c, 0, 69, 60
1, 446064, Note_on_c, 0, 58, 38
1, 446066, Control_c, 0, 64, 38
1, 446070, Note_off_c, 0, 53, 32
1, 446081, Control_c, 0, 64, 0
1, 446155, Control_c, 0, 64, 42
1, 446170, Control_c, 0, 64, 56
1, 446184, Control_c, 0, 64, 65
1, 446199, Control_c, 0, 64, 70
1, 446214, Control_c, 0, 64, 75
1, 446229, Control_c, 0, 64, 81
1, 446244, Control_c, 0, 64, 91
1, 446253, Note_off_c, 0, 58, 38
1, 446258, Control_c, 0, 64, 107
1, 446273, Control_c, 0, 64, 127
1, 446289, Note_on_c, 0, 53, 38
1, 446290, Note_off_c, 0, 50, 56
1, 446311, Note_off_c, 0, 65, 35
1, 446313, Note_off_c, 0, 41, 35
1, 446370, Note_off_c, 0, 70, 53
1, 446559, Note_on_c, 0, 72, 66
1, 446561, Note_on_c, 0, 69, 57
1, 446576, Note_on_c, 0, 41, 38
1, 446576, Note_on_c, 0, 51, 41
1, 446578, Control_c, 0, 64, 90
1, 446579, Note_on_c, 0, 65, 38
1, 446580, Note_on_c, 0, 60, 35
1, 446593, Control_c, 0, 64, 69
1, 446597, Note_off_c, 0, 53, 27
1, 446607, Control_c, 0, 64, 53
1, 446622, Control_c, 0, 64, 38
1, 446637, Control_c, 0, 64, 31
1, 446667, Control_c, 0, 64, 32
1, 446681, Control_c, 0, 64, 41
1, 446696, Control_c, 0, 64, 51
1, 446711, Control_c, 0, 64, 59
1, 446726, Control_c, 0, 64, 64
1, 446740, Control_c, 0, 64, 71
1, 446752, Note_off_c, 0, 60, 44
1, 446755, Control_c, 0, 64, 79
1, 446770, Control_c, 0, 64, 90
1, 446785, Control_c, 0, 64, 99
1, 446794, Note_off_c, 0, 72, 58
1, 446800, Control_c, 0, 64, 108
1, 446814, Control_c, 0, 64, 127
1, 446852, Note_off_c, 0, 69, 58
1, 446853, Note_off_c, 0, 65, 47
1, 446898, Note_on_c, 0, 53, 20
1, 446932, Note_off_c, 0, 51, 58
1, 446936, Note_off_c, 0, 41, 39
1, 446969, Note_off_c, 0, 53, 46
1, 447302, Note_on_c, 0, 72, 63
1, 447327, Note_on_c, 0, 65, 37
1, 447338, Note_on_c, 0, 69, 37
1, 447340, Note_on_c, 0, 41, 38
1, 447341, Note_on_c, 0, 51, 34
1, 447344, Note_on_c, 0, 60, 26
1, 447346, Note_on_c, 0, 53, 34
1, 447370, Note_off_c, 0, 65, 0
1, 447370, Note_on_c, 0, 65, 6
1, 447370, Control_c, 0, 64, 101
1, 447385, Control_c, 0, 64, 84
1, 447400, Control_c, 0, 64, 73
1, 447415, Control_c, 0, 64, 64
1, 447429, Control_c, 0, 64, 56
1, 447445, Control_c, 0, 64, 50
1, 447460, Control_c, 0, 64, 42
1, 447475, Control_c, 0, 64, 34
1, 447490, Control_c, 0, 64, 0
1, 447897, Control_c, 0, 64, 28
1, 447912, Control_c, 0, 64, 30
1, 447927, Control_c, 0, 64, 33
1, 447942, Control_c, 0, 64, 37
1, 447956, Control_c, 0, 64, 40
1, 447971, Control_c, 0, 64, 42
1, 447986, Control_c, 0, 64, 47
1, 448001, Control_c, 0, 64, 55
1, 448016, Control_c, 0, 64, 64
1, 448030, Control_c, 0, 64, 73
1, 448045, Control_c, 0, 64, 87
1, 448049, Note_off_c, 0, 69, 59
1, 448060, Control_c, 0, 64, 127
1, 448076, Note_off_c, 0, 72, 61
1, 448082, Note_off_c, 0, 41, 51
1, 448088, Note_off_c, 0, 60, 41
1, 448128, Note_off_c, 0, 51, 39
1, 448618, Note_on_c, 0, 70, 44
1, 448645, Note_on_c, 0, 46, 31
1, 448648, Note_on_c, 0, 50, 26
1, 448675, Control_c, 0, 64, 96
1, 448690, Poly_aftertouch_c, 0, 58, 127
1, 448690, Control_c, 0, 64, 85
1, 448705, Control_c, 0, 64, 77
1, 448720, Control_c, 0, 64, 70
1, 448735, Note_off_c, 0, 53, 35
1, 448735, Control_c, 0, 64, 63
1, 448750, Control_c, 0, 64, 58
1, 448764, Control_c, 0, 64, 53
1, 448779, Control_c, 0, 64, 50
1, 448794, Control_c, 0, 64, 48
1, 448809, Control_c, 0, 64, 46
1, 448824, Control_c, 0, 64, 44
1, 448839, Control_c, 0, 64, 41
1, 448853, Control_c, 0, 64, 39
1, 448861, Poly_aftertouch_c, 0, 58, 0
1, 448892, Note_off_c, 0, 50, 58
1, 448916, Note_off_c, 0, 46, 57
1, 448928, Note_off_c, 0, 65, 53
1, 448942, Control_c, 0, 64, 38
1, 448971, Control_c, 0, 64, 39
1, 448973, Note_off_c, 0, 70, 65
1, 449030, Control_c, 0, 64, 39
1, 449045, Control_c, 0, 64, 40
1, 449060, Control_c, 0, 64, 41
1, 449119, Control_c, 0, 64, 41
1, 449134, Control_c, 0, 64, 42
1, 449194, Control_c, 0, 64, 44
1, 449208, Control_c, 0, 64, 50
1, 449223, Control_c, 0, 64, 57
1, 449238, Control_c, 0, 64, 61
1, 449253, Control_c, 0, 64, 62
1, 449268, Control_c, 0, 64, 64
1, 449282, Control_c, 0, 64, 71
1, 449297, Control_c, 0, 64, 83
1, 449298, Note_on_c, 0, 34, 32
1, 449312, Control_c, 0, 64, 116
1, 449326, Control_c, 0, 64, 127
1, 449364, Note_off_c, 0, 34, 59
1, 449735, Control_c, 0, 64, 106
1, 449749, Control_c, 0, 64, 89
1, 449764, Control_c, 0, 64, 79
1, 449779, Control_c, 0, 64, 72
1, 449794, Control_c, 0, 64, 66
1, 449809, Control_c, 0, 64, 63
1, 449823, Control_c, 0, 64, 61
1, 449838, Control_c, 0, 64, 59
1, 449853, Control_c, 0, 64, 57
1, 449868, Control_c, 0, 64, 55
1, 449897, Control_c, 0, 64, 55
1, 449912, Control_c, 0, 64, 54
1, 449927, Control_c, 0, 64, 53
1, 449942, Control_c, 0, 64, 53
1, 449972, Control_c, 0, 64, 54
1, 449987, Control_c, 0, 64, 55
1, 450031, Control_c, 0, 64, 55
1, 450046, Control_c, 0, 64, 57
1, 450055, Note_on_c, 0, 34, 35
1, 450061, Control_c, 0, 64, 62
1, 450076, Control_c, 0, 64, 66
1, 450091, Control_c, 0, 64, 70
1, 450112, Control_c, 0, 64, 74
1, 450127, Control_c, 0, 64, 77
1, 450142, Control_c, 0, 64, 82
1, 450157, Control_c, 0, 64, 87
1, 450171, Control_c, 0, 64, 94
1, 450186, Control_c, 0, 64, 102
1, 450201, Control_c, 0, 64, 110
1, 450216, Control_c, 0, 64, 127
1, 450251, Note_on_c, 0, 35, 37
1, 450277, Note_off_c, 0, 34, 43
1, 450366, Note_off_c, 0, 35, 36
1, 450404, Note_on_c, 0, 34, 42
1, 450461, Note_off_c, 0, 34, 56
1, 450471, Note_on_c, 0, 35, 51
1, 450518, Note_off_c, 0, 35, 59
1, 450585, Note_on_c, 0, 34, 7
1, 450617, Note_on_c, 0, 35, 51
1, 450652, Note_off_c, 0, 35, 58
1, 450659, Note_off_c, 0, 34, 0
1, 450659, Note_on_c, 0, 34, 41
1, 450713, Note_off_c, 0, 34, 59
1, 450747, Note_on_c, 0, 35, 47
1, 450774, Note_off_c, 0, 35, 55
1, 450785, Note_on_c, 0, 34, 63
1, 450824, Note_off_c, 0, 34, 62
1, 450865, Note_on_c, 0, 35, 56
1, 450896, Note_off_c, 0, 35, 59
1, 450912, Note_on_c, 0, 34, 68
1, 450947, Note_off_c, 0, 34, 63
1, 450972, Note_on_c, 0, 35, 66
1, 451006, Note_off_c, 0, 35, 62
1, 451022, Note_on_c, 0, 34, 71
1, 451060, Note_off_c, 0, 34, 64
1, 451080, Note_on_c, 0, 35, 69
1, 451118, Note_off_c, 0, 35, 61
1, 451135, Note_on_c, 0, 34, 68
1, 451176, Note_off_c, 0, 34, 61
1, 451203, Note_on_c, 0, 35, 60
1, 451228, Note_off_c, 0, 35, 61
1, 451247, Control_c, 0, 64, 117
1, 451259, Note_on_c, 0, 34, 67
1, 451262, Control_c, 0, 64, 103
1, 451277, Control_c, 0, 64, 93
1, 451285, Note_off_c, 0, 34, 59
1, 451292, Control_c, 0, 64, 84
1, 451306, Control_c, 0, 64, 77
1, 451312, Note_on_c, 0, 35, 64
1, 451322, Control_c, 0, 64, 68
1, 451337, Control_c, 0, 64, 62
1, 451352, Control_c, 0, 64, 59
1, 451352, Note_off_c, 0, 35, 61
1, 451359, Note_on_c, 0, 34, 57
1, 451367, Control_c, 0, 64, 59
1, 451382, Control_c, 0, 64, 58
1, 451396, Control_c, 0, 64, 58
1, 451411, Control_c, 0, 64, 57
1, 451420, Note_off_c, 0, 34, 61
1, 451426, Control_c, 0, 64, 57
1, 451435, Note_on_c, 0, 35, 63
1, 451441, Control_c, 0, 64, 56
1, 451471, Note_off_c, 0, 35, 64
1, 451485, Control_c, 0, 64, 56
1, 451486, Note_on_c, 0, 34, 58
1, 451514, Control_c, 0, 64, 55
1, 451541, Note_off_c, 0, 34, 60
1, 451548, Note_on_c, 0, 35, 66
1, 451611, Note_off_c, 0, 35, 61
1, 451637, Note_on_c, 0, 34, 52
1, 451656, Control_c, 0, 64, 55
1, 451671, Control_c, 0, 64, 54
1, 451680, Note_off_c, 0, 34, 61
1, 451697, Note_on_c, 0, 35, 57
1, 451734, Note_off_c, 0, 35, 63
1, 451744, Control_c, 0, 64, 54
1, 451776, Note_on_c, 0, 34, 53
1, 451818, Control_c, 0, 64, 53
1, 451822, Note_off_c, 0, 34, 62
1, 451841, Note_on_c, 0, 35, 61
1, 451886, Note_off_c, 0, 35, 60
1, 451922, Note_on_c, 0, 34, 56
1, 451936, Control_c, 0, 64, 54
1, 451990, Note_off_c, 0, 34, 54
1, 452008, Note_on_c, 0, 35, 45
1, 452073, Note_off_c, 0, 35, 63
1, 452100, Control_c, 0, 64, 54
1, 452117, Note_on_c, 0, 34, 50
1, 452180, Note_off_c, 0, 34, 59
1, 452201, Note_on_c, 0, 35, 53
1, 452405, Note_on_c, 0, 70, 69
1, 452406, Note_on_c, 0, 34, 40
1, 452434, Note_off_c, 0, 35, 53
1, 452612, Control_c, 0, 64, 54
1, 452625, Note_on_c, 0, 33, 49
1, 452641, Control_c, 0, 64, 53
1, 452670, Control_c, 0, 64, 53
1, 452684, Control_c, 0, 64, 52
1, 452689, Note_off_c, 0, 34, 44
1, 452699, Control_c, 0, 64, 52
1, 452744, Control_c, 0, 64, 51
1, 452774, Control_c, 0, 64, 51
1, 452804, Control_c, 0, 64, 51
1, 452818, Control_c, 0, 64, 53
1, 452821, Note_off_c, 0, 33, 49
1, 452833, Note_on_c, 0, 32, 46
1, 452833, Control_c, 0, 64, 53
1, 452863, Control_c, 0, 64, 54
1, 452877, Control_c, 0, 64, 55
1, 452892, Control_c, 0, 64, 58
1, 452907, Control_c, 0, 64, 59
1, 452923, Control_c, 0, 64, 59
1, 452938, Control_c, 0, 64, 58
1, 452953, Control_c, 0, 64, 57
1, 453012, Control_c, 0, 64, 56
1, 453041, Control_c, 0, 64, 57
1, 453054, Note_on_c, 0, 31, 38
1, 453056, Note_off_c, 0, 32, 46
1, 453056, Control_c, 0, 64, 60
1, 453071, Control_c, 0, 64, 65
1, 453086, Control_c, 0, 64, 71
1, 453108, Control_c, 0, 64, 79
1, 453123, Control_c, 0, 64, 89
1, 453137, Control_c, 0, 64, 100
1, 453152, Control_c, 0, 64, 126
1, 453157, Note_off_c, 0, 70, 53
1, 453335, Note_off_c, 0, 31, 38
1, 453459, Note_on_c, 0, 70, 57
1, 453479, Control_c, 0, 64, 117
1, 453486, Note_on_c, 0, 30, 45
1, 453493, Control_c, 0, 64, 79
1, 453508, Control_c, 0, 64, 61
1, 453523, Control_c, 0, 64, 48
1, 453538, Control_c, 0, 64, 44
1, 453553, Control_c, 0, 64, 44
1, 453567, Control_c, 0, 64, 46
1, 453582, Control_c, 0, 64, 53
1, 453597, Control_c, 0, 64, 60
1, 453612, Control_c, 0, 64, 68
1, 453627, Control_c, 0, 64, 82
1, 453638, Note_off_c, 0, 30, 52
1, 453641, Control_c, 0, 64, 105
1, 453656, Control_c, 0, 64, 127
1, 453914, Note_on_c, 0, 49, 29
1, 454154, Note_on_c, 0, 54, 24
1, 454161, Note_off_c, 0, 49, 41
1, 454289, Note_on_c, 0, 49, 37
1, 454383, Note_off_c, 0, 54, 39
1, 454463, Note_on_c, 0, 68, 61
1, 454495, Note_on_c, 0, 42, 32
1, 454509, Note_off_c, 0, 49, 40
1, 454543, Note_off_c, 0, 70, 52
1, 454618, Note_off_c, 0, 42, 49
1, 454627, Note_on_c, 0, 49, 48
1, 454728, Note_off_c, 0, 49, 57
1, 454763, Note_on_c, 0, 53, 39
1, 454831, Note_off_c, 0, 53, 50
1, 454872, Note_on_c, 0, 49, 48
1, 454983, Note_off_c, 0, 49, 39
1, 455001, Note_on_c, 0, 70, 72
1, 455012, Note_on_c, 0, 42, 47
1, 455097, Note_off_c, 0, 42, 56
1, 455099, Note_off_c, 0, 68, 48
1, 455123, Note_on_c, 0, 49, 44
1, 455210, Note_off_c, 0, 49, 58
1, 455231, Note_on_c, 0, 54, 44
1, 455278, Note_off_c, 0, 54, 49
1, 455302, Control_c, 0, 67, 116
1, 455318, Control_c, 0, 67, 101
1, 455340, Control_c, 0, 67, 80
1, 455355, Control_c, 0, 67, 60
1, 455361, Note_on_c, 0, 49, 36
1, 455370, Control_c, 0, 67, 46
1, 455385, Control_c, 0, 67, 36
1, 455400, Control_c, 0, 67, 0
1, 455436, Note_off_c, 0, 49, 56
1, 455439, Note_on_c, 0, 71, 85
1, 455463, Note_on_c, 0, 42, 49
1, 455518, Note_off_c, 0, 70, 62
1, 455535, Note_off_c, 0, 42, 57
1, 455555, Note_on_c, 0, 49, 52
1, 455592, Control_c, 0, 67, 39
1, 455607, Control_c, 0, 67, 41
1, 455622, Control_c, 0, 67, 40
1, 455637, Control_c, 0, 67, 39
1, 455647, Note_off_c, 0, 49, 59
1, 455651, Control_c, 0, 67, 40
1, 455666, Control_c, 0, 67, 42
1, 455677, Note_on_c, 0, 56, 52
1, 455681, Control_c, 0, 67, 44
1, 455725, Control_c, 0, 67, 46
1, 455734, Note_off_c, 0, 56, 51
1, 455740, Control_c, 0, 67, 54
1, 455755, Control_c, 0, 67, 78
1, 455770, Control_c, 0, 67, 94
1, 455785, Control_c, 0, 67, 95
1, 455790, Note_on_c, 0, 49, 40
1, 455829, Control_c, 0, 67, 100
1, 455844, Control_c, 0, 67, 109
1, 455859, Control_c, 0, 67, 126
1, 455964, Note_on_c, 0, 75, 16
1, 455973, Note_on_c, 0, 73, 74
1, 456006, Note_off_c, 0, 75, 52
1, 456009, Note_on_c, 0, 42, 37
1, 456032, Note_off_c, 0, 71, 58
1, 456041, Note_off_c, 0, 49, 41
1, 456051, Control_c, 0, 64, 85
1, 456066, Control_c, 0, 64, 64
1, 456088, Control_c, 0, 64, 46
1, 456103, Control_c, 0, 64, 36
1, 456118, Control_c, 0, 64, 35
1, 456133, Control_c, 0, 64, 41
1, 456148, Control_c, 0, 64, 54
1, 456163, Control_c, 0, 64, 66
1, 456164, Note_on_c, 0, 49, 46
1, 456178, Control_c, 0, 64, 78
1, 456193, Control_c, 0, 64, 97
1, 456208, Control_c, 0, 64, 127
1, 456236, Note_off_c, 0, 42, 40
1, 456282, Note_off_c, 0, 49, 58
1, 456326, Note_on_c, 0, 58, 37
1, 456385, Note_off_c, 0, 58, 43
1, 456437, Note_on_c, 0, 49, 38
1, 456516, Note_off_c, 0, 49, 52
1, 456530, Note_on_c, 0, 42, 52
1, 456588, Note_off_c, 0, 42, 60
1, 456647, Note_on_c, 0, 49, 46
1, 456688, Note_off_c, 0, 49, 60
1, 456750, Note_on_c, 0, 58, 50
1, 456814, Note_off_c, 0, 58, 53
1, 456899, Note_on_c, 0, 49, 39
1, 456958, Note_off_c, 0, 49, 53
1, 456977, Note_on_c, 0, 42, 51
1, 457028, Note_off_c, 0, 42, 57
1, 457077, Note_on_c, 0, 49, 53
1, 457129, Note_off_c, 0, 49, 59
1, 457176, Note_on_c, 0, 58, 61
1, 457238, Note_off_c, 0, 58, 55
1, 457304, Note_on_c, 0, 49, 45
1, 457421, Note_on_c, 0, 71, 73
1, 457422, Note_off_c, 0, 49, 50
1, 457446, Note_on_c, 0, 42, 46
1, 457533, Note_off_c, 0, 42, 61
1, 457534, Control_c, 0, 67, 122
1, 457549, Control_c, 0, 67, 111
1, 457558, Note_on_c, 0, 49, 52
1, 457564, Control_c, 0, 67, 98
1, 457579, Control_c, 0, 67, 88
1, 457601, Control_c, 0, 67, 84
1, 457615, Control_c, 0, 67, 84
1, 457630, Control_c, 0, 67, 83
1, 457636, Note_off_c, 0, 73, 50
1, 457645, Control_c, 0, 67, 82
1, 457660, Control_c, 0, 67, 80
1, 457661, Note_on_c, 0, 70, 71
1, 457665, Note_off_c, 0, 49, 61
1, 457674, Control_c, 0, 67, 80
1, 457677, Note_on_c, 0, 54, 45
1, 457705, Note_off_c, 0, 71, 62
1, 457760, Note_off_c, 0, 54, 38
1, 457796, Note_on_c, 0, 49, 48
1, 457838, Control_c, 0, 67, 82
1, 457853, Control_c, 0, 67, 82
1, 457898, Control_c, 0, 67, 83
1, 457913, Control_c, 0, 67, 86
1, 457928, Control_c, 0, 67, 87
1, 457946, Note_on_c, 0, 42, 54
1, 457949, Note_on_c, 0, 75, 76
1, 457955, Note_off_c, 0, 49, 53
1, 457958, Control_c, 0, 64, 75
1, 457972, Control_c, 0, 64, 52
1, 457972, Control_c, 0, 67, 87
1, 457987, Control_c, 0, 64, 0
1, 457987, Control_c, 0, 67, 90
1, 457996, Note_off_c, 0, 70, 56
1, 458017, Control_c, 0, 67, 88
1, 458031, Control_c, 0, 64, 27
1, 458031, Control_c, 0, 67, 86
1, 458046, Control_c, 0, 64, 52
1, 458046, Control_c, 0, 67, 86
1, 458061, Control_c, 0, 64, 76
1, 458076, Control_c, 0, 64, 127
1, 458076, Control_c, 0, 67, 84
1, 458089, Note_off_c, 0, 42, 62
1, 458090, Control_c, 0, 67, 81
1, 458093, Note_on_c, 0, 51, 58
1, 458105, Control_c, 0, 67, 79
1, 458120, Control_c, 0, 67, 79
1, 458150, Control_c, 0, 67, 78
1, 458164, Control_c, 0, 67, 76
1, 458173, Note_off_c, 0, 51, 58
1, 458178, Note_off_c, 0, 75, 60
1, 458179, Control_c, 0, 67, 73
1, 458194, Control_c, 0, 67, 55
1, 458209, Control_c, 0, 67, 0
1, 458219, Note_on_c, 0, 59, 54
1, 458263, Note_off_c, 0, 59, 60
1, 458309, Note_on_c, 0, 51, 54
1, 458438, Note_off_c, 0, 51, 55
1, 458449, Note_on_c, 0, 75, 89
1, 458450, Note_on_c, 0, 42, 60
1, 458515, Note_off_c, 0, 42, 60
1, 458563, Note_on_c, 0, 51, 54
1, 458620, Note_off_c, 0, 51, 55
1, 458646, Note_off_c, 0, 75, 58
1, 458670, Note_on_c, 0, 59, 55
1, 458705, Note_off_c, 0, 59, 60
1, 458766, Note_on_c, 0, 51, 50
1, 458927, Note_on_c, 0, 75, 81
1, 458929, Note_on_c, 0, 42, 52
1, 458930, Note_off_c, 0, 51, 48
1, 459005, Note_off_c, 0, 42, 60
1, 459055, Note_on_c, 0, 51, 60
1, 459156, Note_off_c, 0, 51, 59
1, 459179, Note_on_c, 0, 59, 51
1, 459224, Note_off_c, 0, 59, 56
1, 459273, Note_on_c, 0, 51, 54
1, 459417, Note_off_c, 0, 51, 58
1, 459433, Note_on_c, 0, 77, 83
1, 459440, Note_on_c, 0, 42, 57
1, 459523, Note_off_c, 0, 42, 61
1, 459535, Note_on_c, 0, 51, 60
1, 459551, Note_off_c, 0, 75, 62
1, 459697, Note_on_c, 0, 78, 87
1, 459709, Note_on_c, 0, 59, 57
1, 459715, Note_off_c, 0, 51, 54
1, 459731, Note_off_c, 0, 77, 63
1, 459780, Note_off_c, 0, 78, 55
1, 459809, Note_off_c, 0, 59, 56
1, 459847, Note_on_c, 0, 51, 60
1, 459951, Control_c, 0, 67, 34
1, 459966, Control_c, 0, 67, 48
1, 459981, Control_c, 0, 67, 77
1, 459996, Control_c, 0, 67, 104
1, 460010, Control_c, 0, 67, 116
1, 460031, Note_on_c, 0, 73, 80
1, 460040, Control_c, 0, 67, 119
1, 460055, Control_c, 0, 67, 127
1, 460071, Note_on_c, 0, 42, 46
1, 460088, Note_off_c, 0, 51, 57
1, 460115, Control_c, 0, 64, 104
1, 460130, Control_c, 0, 64, 77
1, 460145, Control_c, 0, 64, 60
1, 460159, Control_c, 0, 64, 37
1, 460175, Control_c, 0, 64, 0
1, 460247, Note_on_c, 0, 49, 46
1, 460249, Control_c, 0, 64, 31
1, 460264, Control_c, 0, 64, 48
1, 460279, Control_c, 0, 64, 60
1, 460281, Note_off_c, 0, 42, 57
1, 460293, Control_c, 0, 64, 66
1, 460308, Control_c, 0, 64, 70
1, 460323, Control_c, 0, 64, 75
1, 460338, Control_c, 0, 64, 81
1, 460345, Note_off_c, 0, 49, 61
1, 460353, Control_c, 0, 64, 91
1, 460363, Note_on_c, 0, 58, 46
1, 460367, Control_c, 0, 64, 106
1, 460382, Control_c, 0, 64, 127
1, 460450, Note_off_c, 0, 58, 56
1, 460488, Note_on_c, 0, 49, 40
1, 460562, Note_off_c, 0, 49, 54
1, 460590, Note_on_c, 0, 42, 46
1, 460675, Note_off_c, 0, 42, 56
1, 460706, Note_on_c, 0, 49, 42
1, 460800, Note_off_c, 0, 49, 54
1, 460845, Note_on_c, 0, 58, 23
1, 460910, Note_off_c, 0, 58, 39
1, 460946, Note_on_c, 0, 49, 41
1, 460987, Note_off_c, 0, 73, 60
1, 461042, Note_off_c, 0, 49, 54
1, 461062, Note_on_c, 0, 42, 46
1, 461138, Note_off_c, 0, 42, 55
1, 461189, Note_on_c, 0, 49, 34
1, 461292, Note_off_c, 0, 49, 57
1, 461340, Note_on_c, 0, 58, 32
1, 461426, Note_off_c, 0, 58, 53
1, 461480, Note_on_c, 0, 49, 37
1, 461645, Note_on_c, 0, 69, 59
1, 461678, Note_on_c, 0, 42, 38
1, 461693, Note_off_c, 0, 49, 37
1, 461730, Control_c, 0, 64, 110
1, 461745, Control_c, 0, 64, 89
1, 461760, Control_c, 0, 64, 73
1, 461775, Control_c, 0, 64, 61
1, 461790, Control_c, 0, 64, 48
1, 461804, Control_c, 0, 64, 41
1, 461819, Control_c, 0, 64, 40
1, 461834, Control_c, 0, 64, 41
1, 461837, Note_on_c, 0, 49, 30
1, 461849, Control_c, 0, 64, 48
1, 461863, Control_c, 0, 64, 59
1, 461878, Control_c, 0, 64, 67
1, 461893, Control_c, 0, 64, 74
1, 461908, Control_c, 0, 64, 83
1, 461923, Control_c, 0, 64, 89
1, 461937, Control_c, 0, 64, 94
1, 461952, Control_c, 0, 64, 98
1, 461967, Control_c, 0, 64, 103
1, 461982, Control_c, 0, 64, 109
1, 461991, Note_off_c, 0, 42, 32
1, 461997, Control_c, 0, 64, 118
1, 462012, Control_c, 0, 64, 127
1, 462044, Note_on_c, 0, 54, 31
1, 462065, Note_off_c, 0, 49, 40
1, 462208, Note_on_c, 0, 49, 29
1, 462224, Note_off_c, 0, 69, 35
1, 462267, Note_off_c, 0, 54, 31
1, 462381, Note_on_c, 0, 69, 45
1, 462388, Note_on_c, 0, 42, 33
1, 462390, Note_off_c, 0, 49, 38
1, 462493, Control_c, 0, 64, 113
1, 462509, Control_c, 0, 64, 86
1, 462524, Control_c, 0, 64, 71
1, 462539, Control_c, 0, 64, 61
1, 462551, Note_on_c, 0, 49, 26
1, 462553, Control_c, 0, 64, 57
1, 462583, Control_c, 0, 64, 59
1, 462598, Control_c, 0, 64, 63
1, 462613, Control_c, 0, 64, 70
1, 462627, Control_c, 0, 64, 79
1, 462642, Control_c, 0, 64, 88
1, 462657, Control_c, 0, 64, 94
1, 462672, Control_c, 0, 64, 99
1, 462682, Note_on_c, 0, 54, 38
1, 462686, Control_c, 0, 64, 106
1, 462701, Control_c, 0, 64, 117
1, 462716, Control_c, 0, 64, 127
1, 462724, Note_off_c, 0, 49, 36
1, 462774, Note_off_c, 0, 42, 27
1, 462849, Note_off_c, 0, 54, 36
1, 462852, Note_on_c, 0, 49, 30
1, 462930, Note_off_c, 0, 49, 54
1, 462974, Note_on_c, 0, 68, 55
1, 462981, Note_on_c, 0, 42, 38
1, 463009, Note_off_c, 0, 69, 54
1, 463049, Control_c, 0, 64, 102
1, 463064, Control_c, 0, 64, 76
1, 463075, Note_on_c, 0, 49, 40
1, 463079, Control_c, 0, 64, 63
1, 463094, Control_c, 0, 64, 58
1, 463124, Control_c, 0, 64, 60
1, 463138, Control_c, 0, 64, 66
1, 463153, Control_c, 0, 64, 75
1, 463168, Control_c, 0, 64, 94
1, 463183, Control_c, 0, 64, 107
1, 463189, Note_off_c, 0, 49, 59
1, 463198, Control_c, 0, 64, 114
1, 463203, Note_on_c, 0, 53, 38
1, 463212, Control_c, 0, 64, 127
1, 463293, Note_off_c, 0, 42, 42
1, 463338, Note_on_c, 0, 49, 28
1, 463350, Note_off_c, 0, 53, 29
1, 463419, Note_off_c, 0, 49, 34
1, 463439, Note_on_c, 0, 42, 36
1, 463440, Note_on_c, 0, 69, 60
1, 463492, Note_off_c, 0, 68, 61
1, 463494, Control_c, 0, 64, 105
1, 463509, Control_c, 0, 64, 78
1, 463524, Control_c, 0, 64, 63
1, 463539, Control_c, 0, 64, 53
1, 463554, Control_c, 0, 64, 52
1, 463566, Note_on_c, 0, 49, 36
1, 463569, Control_c, 0, 64, 55
1, 463591, Control_c, 0, 64, 62
1, 463606, Control_c, 0, 64, 70
1, 463621, Control_c, 0, 64, 82
1, 463635, Control_c, 0, 64, 94
1, 463650, Control_c, 0, 64, 99
1, 463653, Note_off_c, 0, 49, 58
1, 463665, Control_c, 0, 64, 107
1, 463678, Note_on_c, 0, 54, 40
1, 463680, Control_c, 0, 64, 127
1, 463747, Note_off_c, 0, 42, 42
1, 463798, Note_off_c, 0, 54, 37
1, 463800, Note_on_c, 0, 49, 33
1, 463866, Note_off_c, 0, 49, 54
1, 463869, Note_on_c, 0, 71, 64
1, 463893, Note_on_c, 0, 42, 40
1, 463916, Control_c, 0, 64, 102
1, 463931, Control_c, 0, 64, 75
1, 463935, Note_off_c, 0, 69, 62
1, 463946, Control_c, 0, 64, 62
1, 463961, Control_c, 0, 64, 57
1, 463976, Control_c, 0, 64, 58
1, 463988, Note_on_c, 0, 49, 46
1, 463991, Control_c, 0, 64, 63
1, 464006, Control_c, 0, 64, 72
1, 464021, Control_c, 0, 64, 89
1, 464035, Control_c, 0, 64, 126
1, 464078, Note_off_c, 0, 49, 60
1, 464094, Note_on_c, 0, 56, 49
1, 464161, Note_off_c, 0, 42, 57
1, 464185, Note_off_c, 0, 56, 52
1, 464207, Note_on_c, 0, 49, 45
1, 464306, Note_on_c, 0, 73, 70
1, 464307, Note_off_c, 0, 49, 55
1, 464338, Note_on_c, 0, 42, 52
1, 464355, Control_c, 0, 64, 120
1, 464370, Control_c, 0, 64, 79
1, 464384, Control_c, 0, 64, 62
1, 464399, Control_c, 0, 64, 51
1, 464414, Note_off_c, 0, 71, 56
1, 464429, Control_c, 0, 64, 55
1, 464444, Control_c, 0, 64, 63
1, 464455, Note_on_c, 0, 49, 45
1, 464458, Control_c, 0, 64, 70
1, 464473, Control_c, 0, 64, 80
1, 464479, Note_off_c, 0, 42, 57
1, 464488, Control_c, 0, 64, 87
1, 464503, Control_c, 0, 64, 88
1, 464513, Note_off_c, 0, 49, 58
1, 464518, Control_c, 0, 64, 89
1, 464532, Control_c, 0, 64, 96
1, 464547, Note_on_c, 0, 57, 46
1, 464547, Control_c, 0, 64, 127
1, 464633, Note_off_c, 0, 57, 56
1, 464647, Note_on_c, 0, 49, 51
1, 464650, Control_c, 0, 64, 101
1, 464665, Control_c, 0, 64, 73
1, 464680, Control_c, 0, 64, 57
1, 464695, Control_c, 0, 64, 50
1, 464710, Control_c, 0, 64, 52
1, 464724, Control_c, 0, 64, 59
1, 464726, Note_off_c, 0, 49, 59
1, 464739, Control_c, 0, 64, 69
1, 464752, Note_on_c, 0, 44, 54
1, 464754, Control_c, 0, 64, 85
1, 464769, Control_c, 0, 64, 118
1, 464784, Control_c, 0, 64, 127
1, 464844, Note_on_c, 0, 49, 59
1, 464903, Control_c, 0, 67, 121
1, 464912, Note_off_c, 0, 49, 61
1, 464918, Control_c, 0, 67, 109
1, 464922, Note_off_c, 0, 44, 35
1, 464933, Control_c, 0, 67, 105
1, 464936, Note_on_c, 0, 57, 60
1, 464963, Control_c, 0, 67, 102
1, 465022, Note_off_c, 0, 57, 48
1, 465034, Note_on_c, 0, 49, 56
1, 465088, Control_c, 0, 64, 96
1, 465103, Control_c, 0, 64, 67
1, 465118, Control_c, 0, 64, 54
1, 465130, Note_on_c, 0, 45, 60
1, 465133, Control_c, 0, 64, 51
1, 465136, Note_off_c, 0, 49, 56
1, 465148, Control_c, 0, 64, 53
1, 465148, Control_c, 0, 67, 99
1, 465162, Control_c, 0, 64, 60
1, 465177, Control_c, 0, 64, 69
1, 465192, Control_c, 0, 64, 82
1, 465192, Control_c, 0, 67, 96
1, 465207, Control_c, 0, 64, 101
1, 465207, Control_c, 0, 67, 90
1, 465222, Control_c, 0, 64, 110
1, 465222, Control_c, 0, 67, 72
1, 465233, Note_on_c, 0, 49, 61
1, 465237, Control_c, 0, 64, 127
1, 465237, Control_c, 0, 67, 59
1, 465252, Control_c, 0, 67, 53
1, 465267, Control_c, 0, 67, 49
1, 465281, Control_c, 0, 67, 42
1, 465296, Control_c, 0, 67, 34
1, 465305, Note_off_c, 0, 49, 54
1, 465311, Control_c, 0, 67, 0
1, 465323, Note_on_c, 0, 57, 53
1, 465375, Note_off_c, 0, 45, 38
1, 465375, Note_off_c, 0, 57, 57
1, 465426, Note_on_c, 0, 49, 50
1, 465521, Note_on_c, 0, 74, 78
1, 465533, Control_c, 0, 64, 107
1, 465536, Note_on_c, 0, 45, 54
1, 465547, Control_c, 0, 64, 77
1, 465562, Control_c, 0, 64, 64
1, 465563, Note_off_c, 0, 49, 38
1, 465577, Control_c, 0, 64, 61
1, 465592, Control_c, 0, 64, 63
1, 465595, Note_off_c, 0, 73, 63
1, 465607, Control_c, 0, 64, 69
1, 465622, Control_c, 0, 64, 80
1, 465636, Control_c, 0, 64, 94
1, 465651, Control_c, 0, 64, 97
1, 465669, Note_on_c, 0, 49, 58
1, 465681, Control_c, 0, 64, 102
1, 465696, Control_c, 0, 64, 116
1, 465711, Control_c, 0, 64, 127
1, 465735, Note_off_c, 0, 49, 48
1, 465758, Note_on_c, 0, 57, 55
1, 465762, Note_on_c, 0, 76, 84
1, 465839, Note_off_c, 0, 74, 56
1, 465869, Note_on_c, 0, 49, 60
1, 465869, Note_off_c, 0, 57, 51
1, 465875, Note_off_c, 0, 45, 35
1, 466068, Note_on_c, 0, 78, 83
1, 466075, Control_c, 0, 64, 92
1, 466078, Note_on_c, 0, 45, 57
1, 466090, Control_c, 0, 64, 66
1, 466103, Note_off_c, 0, 76, 65
1, 466104, Control_c, 0, 64, 47
1, 466108, Note_off_c, 0, 49, 54
1, 466119, Control_c, 0, 64, 33
1, 466134, Control_c, 0, 64, 31
1, 466149, Control_c, 0, 64, 32
1, 466164, Control_c, 0, 64, 45
1, 466178, Control_c, 0, 64, 60
1, 466193, Note_off_c, 0, 45, 59
1, 466193, Control_c, 0, 64, 74
1, 466208, Control_c, 0, 64, 108
1, 466222, Control_c, 0, 64, 127
1, 466231, Note_on_c, 0, 54, 56
1, 466283, Note_off_c, 0, 78, 61
1, 466293, Note_off_c, 0, 54, 57
1, 466360, Note_on_c, 0, 62, 49
1, 466405, Note_off_c, 0, 62, 59
1, 466438, Note_on_c, 0, 54, 43
1, 466525, Note_off_c, 0, 54, 0
1, 466562, Poly_aftertouch_c, 0, 54, 127
1, 466566, Note_on_c, 0, 78, 83
1, 466596, Note_on_c, 0, 45, 58
1, 466619, Poly_aftertouch_c, 0, 54, 0
1, 466654, Note_off_c, 0, 45, 57
1, 466704, Note_on_c, 0, 54, 51
1, 466752, Note_off_c, 0, 54, 57
1, 466783, Note_off_c, 0, 78, 54
1, 466797, Note_on_c, 0, 62, 65
1, 466857, Note_off_c, 0, 62, 40
1, 466942, Note_on_c, 0, 54, 10
1, 467040, Note_on_c, 0, 78, 80
1, 467061, Note_on_c, 0, 45, 56
1, 467073, Note_off_c, 0, 54, 37
1, 467112, Note_off_c, 0, 45, 58
1, 467175, Note_on_c, 0, 54, 55
1, 467227, Note_off_c, 0, 54, 60
1, 467300, Note_on_c, 0, 62, 49
1, 467384, Note_off_c, 0, 62, 58
1, 467434, Note_on_c, 0, 54, 39
1, 467584, Note_on_c, 0, 80, 86
1, 467599, Note_on_c, 0, 45, 55
1, 467614, Note_off_c, 0, 54, 31
1, 467667, Note_off_c, 0, 45, 57
1, 467721, Note_on_c, 0, 54, 56
1, 467868, Note_off_c, 0, 54, 47
1, 467881, Note_on_c, 0, 81, 89
1, 467901, Note_on_c, 0, 62, 61
1, 467908, Note_off_c, 0, 78, 62
1, 467914, Note_off_c, 0, 80, 63
1, 467926, Note_off_c, 0, 81, 66
1, 468013, Note_off_c, 0, 62, 54
1, 468043, Note_on_c, 0, 54, 45
1, 468128, Control_c, 0, 67, 45
1, 468143, Control_c, 0, 67, 98
1, 468158, Control_c, 0, 67, 113
1, 468203, Control_c, 0, 67, 120
1, 468217, Control_c, 0, 67, 127
1, 468256, Note_on_c, 0, 76, 81
1, 468277, Note_on_c, 0, 45, 51
1, 468292, Note_off_c, 0, 54, 62
1, 468351, Control_c, 0, 64, 103
1, 468366, Control_c, 0, 64, 70
1, 468380, Control_c, 0, 64, 52
1, 468395, Control_c, 0, 64, 40
1, 468410, Control_c, 0, 64, 38
1, 468439, Control_c, 0, 64, 43
1, 468454, Control_c, 0, 64, 54
1, 468469, Control_c, 0, 64, 65
1, 468471, Note_on_c, 0, 52, 51
1, 468484, Control_c, 0, 64, 73
1, 468498, Control_c, 0, 64, 84
1, 468504, Note_off_c, 0, 45, 36
1, 468513, Control_c, 0, 64, 97
1, 468528, Control_c, 0, 64, 108
1, 468543, Control_c, 0, 64, 127
1, 468578, Note_off_c, 0, 52, 60
1, 468612, Note_on_c, 0, 61, 50
1, 468666, Note_off_c, 0, 61, 54
1, 468714, Note_on_c, 0, 52, 47
1, 468804, Note_off_c, 0, 52, 54
1, 468826, Note_on_c, 0, 45, 51
1, 468902, Note_off_c, 0, 45, 52
1, 468955, Note_on_c, 0, 52, 40
1, 469036, Note_off_c, 0, 52, 59
1, 469088, Note_on_c, 0, 61, 30
1, 469139, Note_off_c, 0, 61, 45
1, 469172, Note_on_c, 0, 52, 52
1, 469264, Note_off_c, 0, 52, 58
1, 469275, Note_on_c, 0, 45, 51
1, 469314, Note_off_c, 0, 45, 56
1, 469400, Note_on_c, 0, 52, 45
1, 469455, Note_off_c, 0, 52, 44
1, 469482, Note_on_c, 0, 61, 49
1, 469570, Note_off_c, 0, 61, 60
1, 469620, Note_on_c, 0, 52, 39
1, 469744, Note_on_c, 0, 74, 77
1, 469749, Note_off_c, 0, 52, 51
1, 469765, Note_on_c, 0, 45, 56
1, 469860, Note_off_c, 0, 45, 50
1, 469902, Note_on_c, 0, 52, 34
1, 469988, Note_on_c, 0, 73, 77
1, 470017, Note_on_c, 0, 57, 52
1, 470024, Note_off_c, 0, 74, 61
1, 470048, Note_off_c, 0, 52, 30
1, 470124, Note_off_c, 0, 57, 50
1, 470186, Note_off_c, 0, 73, 58
1, 470194, Note_on_c, 0, 52, 33
1, 470245, Note_on_c, 0, 74, 75
1, 470249, Control_c, 0, 64, 90
1, 470263, Control_c, 0, 64, 66
1, 470264, Note_off_c, 0, 52, 49
1, 470267, Note_on_c, 0, 45, 49
1, 470278, Control_c, 0, 64, 52
1, 470293, Control_c, 0, 64, 47
1, 470308, Control_c, 0, 64, 50
1, 470331, Control_c, 0, 64, 58
1, 470345, Control_c, 0, 64, 66
1, 470353, Note_off_c, 0, 76, 54
1, 470360, Control_c, 0, 64, 77
1, 470372, Note_off_c, 0, 45, 56
1, 470375, Control_c, 0, 64, 92
1, 470390, Control_c, 0, 64, 106
1, 470404, Control_c, 0, 64, 127
1, 470427, Note_on_c, 0, 54, 47
1, 470470, Note_off_c, 0, 54, 62
1, 470531, Note_on_c, 0, 62, 46
1, 470597, Note_off_c, 0, 62, 49
1, 470641, Note_on_c, 0, 54, 51
1, 470689, Note_on_c, 0, 78, 76
1, 470711, Note_off_c, 0, 54, 59
1, 470725, Note_off_c, 0, 74, 63
1, 470749, Note_on_c, 0, 45, 57
1, 470784, Note_off_c, 0, 45, 60
1, 470842, Note_on_c, 0, 54, 50
1, 470903, Note_off_c, 0, 54, 50
1, 470945, Note_on_c, 0, 62, 51
1, 470992, Note_off_c, 0, 62, 58
1, 471034, Note_on_c, 0, 54, 43
1, 471106, Note_off_c, 0, 54, 62
1, 471130, Note_on_c, 0, 71, 83
1, 471141, Note_on_c, 0, 45, 59
1, 471227, Control_c, 0, 64, 123
1, 471242, Control_c, 0, 64, 80
1, 471246, Note_off_c, 0, 78, 52
1, 471257, Control_c, 0, 64, 65
1, 471258, Note_on_c, 0, 52, 58
1, 471272, Control_c, 0, 64, 60
1, 471287, Control_c, 0, 64, 63
1, 471303, Control_c, 0, 64, 69
1, 471317, Control_c, 0, 64, 84
1, 471332, Control_c, 0, 64, 127
1, 471351, Note_off_c, 0, 52, 60
1, 471354, Note_on_c, 0, 56, 61
1, 471448, Note_off_c, 0, 56, 59
1, 471458, Note_off_c, 0, 45, 40
1, 471471, Note_on_c, 0, 52, 56
1, 471524, Note_on_c, 0, 74, 91
1, 471552, Note_on_c, 0, 45, 66
1, 471579, Note_off_c, 0, 52, 56
1, 471583, Control_c, 0, 64, 95
1, 471598, Control_c, 0, 64, 73
1, 471613, Control_c, 0, 64, 64
1, 471628, Control_c, 0, 64, 63
1, 471642, Control_c, 0, 64, 69
1, 471652, Note_off_c, 0, 45, 58
1, 471657, Control_c, 0, 64, 87
1, 471658, Note_on_c, 0, 52, 55
1, 471672, Control_c, 0, 64, 127
1, 471740, Note_off_c, 0, 52, 60
1, 471741, Note_off_c, 0, 71, 57
1, 471758, Note_on_c, 0, 59, 59
1, 471853, Note_off_c, 0, 59, 61
1, 471869, Note_on_c, 0, 52, 57
1, 471960, Note_on_c, 0, 73, 91
1, 471962, Note_on_c, 0, 45, 72
1, 471963, Note_off_c, 0, 52, 58
1, 471975, Control_c, 0, 64, 91
1, 471990, Control_c, 0, 64, 65
1, 472005, Control_c, 0, 64, 43
1, 472020, Control_c, 0, 64, 28
1, 472030, Note_off_c, 0, 74, 63
1, 472035, Control_c, 0, 64, 31
1, 472049, Control_c, 0, 64, 44
1, 472064, Control_c, 0, 64, 61
1, 472075, Note_on_c, 0, 52, 63
1, 472079, Control_c, 0, 64, 76
1, 472095, Control_c, 0, 64, 101
1, 472110, Control_c, 0, 64, 127
1, 472110, Control_c, 0, 67, 119
1, 472125, Control_c, 0, 67, 97
1, 472139, Control_c, 0, 67, 86
1, 472154, Control_c, 0, 67, 78
1, 472165, Note_off_c, 0, 52, 61
1, 472169, Control_c, 0, 67, 67
1, 472178, Note_on_c, 0, 57, 58
1, 472184, Control_c, 0, 67, 55
1, 472191, Note_off_c, 0, 45, 37
1, 472198, Control_c, 0, 67, 49
1, 472228, Control_c, 0, 67, 47
1, 472243, Control_c, 0, 67, 43
1, 472258, Control_c, 0, 67, 0
1, 472265, Note_off_c, 0, 57, 57
1, 472320, Note_on_c, 0, 52, 54
1, 472396, Note_on_c, 0, 81, 85
1, 472428, Note_on_c, 0, 69, 47
1, 472436, Control_c, 0, 64, 77
1, 472445, Note_off_c, 0, 52, 61
1, 472448, Note_on_c, 0, 45, 59
1, 472451, Control_c, 0, 64, 55
1, 472465, Control_c, 0, 64, 43
1, 472495, Control_c, 0, 64, 51
1, 472510, Control_c, 0, 64, 62
1, 472525, Control_c, 0, 64, 72
1, 472536, Note_off_c, 0, 45, 58
1, 472539, Control_c, 0, 64, 87
1, 472549, Note_off_c, 0, 69, 58
1, 472554, Control_c, 0, 64, 98
1, 472571, Note_on_c, 0, 52, 64
1, 472576, Control_c, 0, 64, 121
1, 472591, Control_c, 0, 64, 127
1, 472609, Note_off_c, 0, 73, 63
1, 472633, Note_off_c, 0, 52, 62
1, 472665, Control_c, 0, 67, 41
1, 472680, Control_c, 0, 67, 41
1, 472692, Note_on_c, 0, 61, 50
1, 472695, Control_c, 0, 67, 41
1, 472725, Control_c, 0, 67, 43
1, 472739, Control_c, 0, 67, 51
1, 472754, Control_c, 0, 67, 76
1, 472767, Note_off_c, 0, 61, 44
1, 472769, Control_c, 0, 67, 93
1, 472784, Control_c, 0, 67, 93
1, 472798, Control_c, 0, 67, 95
1, 472813, Control_c, 0, 67, 101
1, 472825, Note_on_c, 0, 52, 42
1, 472828, Control_c, 0, 67, 127
1, 472925, Note_off_c, 0, 52, 57
1, 472926, Note_on_c, 0, 45, 42
1, 473067, Note_off_c, 0, 45, 39
1, 473077, Note_on_c, 0, 52, 42
1, 473154, Note_off_c, 0, 52, 57
1, 473179, Note_on_c, 0, 80, 80
1, 473191, Note_on_c, 0, 61, 51
1, 473202, Note_on_c, 0, 68, 53
1, 473241, Note_off_c, 0, 68, 62
1, 473248, Note_off_c, 0, 61, 51
1, 473300, Note_on_c, 0, 52, 47
1, 473323, Note_off_c, 0, 81, 36
1, 473394, Note_off_c, 0, 52, 57
1, 473415, Note_on_c, 0, 45, 54
1, 473416, Note_on_c, 0, 78, 84
1, 473432, Note_on_c, 0, 66, 60
1, 473461, Note_off_c, 0, 80, 61
1, 473489, Note_off_c, 0, 45, 52
1, 473521, Note_off_c, 0, 66, 60
1, 473548, Note_off_c, 0, 78, 59
1, 473554, Note_on_c, 0, 52, 29
1, 473628, Note_off_c, 0, 52, 51
1, 473631, Note_on_c, 0, 61, 51
1, 473637, Note_on_c, 0, 76, 77
1, 473676, Note_off_c, 0, 61, 60
1, 473732, Poly_aftertouch_c, 0, 64, 127
1, 473762, Note_on_c, 0, 52, 49
1, 473763, Poly_aftertouch_c, 0, 64, 0
1, 473888, Note_on_c, 0, 74, 72
1, 473897, Note_off_c, 0, 52, 55
1, 473905, Control_c, 0, 64, 103
1, 473906, Note_on_c, 0, 45, 55
1, 473914, Note_off_c, 0, 76, 60
1, 473919, Control_c, 0, 64, 71
1, 473934, Control_c, 0, 64, 52
1, 473949, Control_c, 0, 64, 41
1, 473963, Control_c, 0, 64, 41
1, 473978, Control_c, 0, 64, 44
1, 473993, Control_c, 0, 64, 52
1, 474008, Control_c, 0, 64, 62
1, 474011, Note_off_c, 0, 45, 57
1, 474023, Control_c, 0, 64, 70
1, 474037, Control_c, 0, 64, 82
1, 474046, Note_on_c, 0, 54, 52
1, 474052, Control_c, 0, 64, 95
1, 474075, Control_c, 0, 64, 101
1, 474090, Control_c, 0, 64, 104
1, 474105, Control_c, 0, 64, 108
1, 474112, Note_off_c, 0, 54, 51
1, 474119, Control_c, 0, 64, 127
1, 474187, Note_on_c, 0, 62, 32
1, 474233, Note_off_c, 0, 62, 46
1, 474288, Note_on_c, 0, 54, 40
1, 474329, Note_off_c, 0, 54, 56
1, 474366, Note_on_c, 0, 78, 67
1, 474368, Note_off_c, 0, 74, 62
1, 474403, Note_on_c, 0, 45, 36
1, 474430, Note_off_c, 0, 45, 0
1, 474448, Poly_aftertouch_c, 0, 45, 0
1, 474516, Note_on_c, 0, 54, 30
1, 474558, Note_off_c, 0, 54, 49
1, 474597, Note_on_c, 0, 62, 55
1, 474670, Note_off_c, 0, 62, 53
1, 474731, Note_on_c, 0, 54, 33
1, 474815, Note_off_c, 0, 54, 56
1, 474857, Note_on_c, 0, 71, 51
1, 474865, Note_on_c, 0, 45, 53
1, 474896, Control_c, 0, 64, 114
1, 474911, Control_c, 0, 64, 79
1, 474926, Control_c, 0, 64, 62
1, 474940, Control_c, 0, 64, 48
1, 474955, Control_c, 0, 64, 43
1, 474970, Control_c, 0, 64, 44
1, 474985, Control_c, 0, 64, 50
1, 474990, Note_off_c, 0, 78, 32
1, 474996, Note_on_c, 0, 52, 48
1, 474999, Control_c, 0, 64, 61
1, 475014, Control_c, 0, 64, 68
1, 475029, Control_c, 0, 64, 73
1, 475044, Control_c, 0, 64, 77
1, 475059, Control_c, 0, 64, 82
1, 475074, Control_c, 0, 64, 91
1, 475089, Control_c, 0, 64, 105
1, 475097, Note_off_c, 0, 52, 50
1, 475104, Control_c, 0, 64, 127
1, 475116, Note_on_c, 0, 56, 46
1, 475142, Note_off_c, 0, 45, 37
1, 475203, Note_off_c, 0, 56, 48
1, 475250, Note_on_c, 0, 52, 41
1, 475370, Note_off_c, 0, 52, 55
1, 475394, Note_on_c, 0, 73, 52
1, 475397, Note_on_c, 0, 45, 41
1, 475456, Note_off_c, 0, 45, 41
1, 475527, Note_off_c, 0, 71, 34
1, 475537, Note_on_c, 0, 52, 42
1, 475687, Note_on_c, 0, 74, 63
1, 475703, Note_on_c, 0, 59, 40
1, 475705, Note_off_c, 0, 52, 33
1, 475718, Note_off_c, 0, 73, 57
1, 475739, Note_off_c, 0, 74, 61
1, 475789, Note_off_c, 0, 59, 49
1, 475837, Note_on_c, 0, 52, 39
1, 476090, Control_c, 0, 64, 91
1, 476093, Note_on_c, 0, 73, 53
1, 476105, Control_c, 0, 64, 68
1, 476113, Note_on_c, 0, 45, 37
1, 476120, Control_c, 0, 64, 54
1, 476131, Note_off_c, 0, 52, 41
1, 476135, Control_c, 0, 64, 52
1, 476150, Control_c, 0, 64, 56
1, 476164, Control_c, 0, 64, 63
1, 476179, Control_c, 0, 64, 70
1, 476194, Control_c, 0, 64, 80
1, 476209, Control_c, 0, 64, 88
1, 476224, Control_c, 0, 64, 96
1, 476238, Control_c, 0, 64, 107
1, 476253, Control_c, 0, 64, 127
1, 476257, Note_off_c, 0, 45, 34
1, 476368, Note_on_c, 0, 61, 22
1, 476488, Note_on_c, 0, 76, 48
1, 476499, Note_off_c, 0, 61, 45
1, 476500, Note_on_c, 0, 57, 26
1, 476550, Note_off_c, 0, 73, 35
1, 476618, Note_on_c, 0, 61, 42
1, 476619, Note_off_c, 0, 57, 39
1, 476740, Note_on_c, 0, 85, 57
1, 476743, Note_on_c, 0, 57, 42
1, 476748, Note_off_c, 0, 76, 59
1, 476749, Note_off_c, 0, 61, 36
1, 476831, Note_off_c, 0, 57, 57
1, 476874, Note_on_c, 0, 61, 36
1, 476925, Note_off_c, 0, 61, 51
1, 476959, Note_on_c, 0, 81, 55
1, 476979, Note_on_c, 0, 57, 26
1, 477016, Note_off_c, 0, 85, 39
1, 477022, Note_off_c, 0, 57, 54
1, 477041, Note_on_c, 0, 61, 46
1, 477099, Note_off_c, 0, 61, 60
1, 477142, Note_off_c, 0, 81, 57
1, 477170, Note_on_c, 0, 45, 58
1, 477181, Note_on_c, 0, 76, 41
1, 477203, Note_off_c, 0, 45, 64
1, 477309, Note_on_c, 0, 61, 48
1, 477372, Note_off_c, 0, 61, 58
1, 477390, Note_on_c, 0, 73, 51
1, 477396, Note_on_c, 0, 57, 51
1, 477421, Note_off_c, 0, 76, 43
1, 477480, Note_off_c, 0, 57, 51
1, 477503, Note_on_c, 0, 61, 59
1, 477587, Note_off_c, 0, 61, 56
1, 477590, Note_on_c, 0, 81, 64
1, 477595, Note_off_c, 0, 73, 50
1, 477609, Note_on_c, 0, 57, 54
1, 477704, Note_off_c, 0, 57, 62
1, 477723, Note_on_c, 0, 61, 45
1, 477786, Note_off_c, 0, 61, 60
1, 477794, Note_off_c, 0, 81, 57
1, 477798, Note_on_c, 0, 57, 63
1, 477811, Note_on_c, 0, 77, 65
1, 477876, Note_off_c, 0, 57, 57
1, 477906, Note_on_c, 0, 61, 60
1, 477936, Note_off_c, 0, 61, 61
1, 477981, Control_c, 0, 64, 77
1, 477983, Note_off_c, 0, 77, 62
1, 477996, Control_c, 0, 64, 57
1, 477999, Note_on_c, 0, 78, 59
1, 478010, Control_c, 0, 64, 46
1, 478013, Note_on_c, 0, 45, 67
1, 478025, Control_c, 0, 64, 50
1, 478040, Note_off_c, 0, 45, 64
1, 478040, Control_c, 0, 64, 61
1, 478055, Control_c, 0, 64, 79
1, 478070, Control_c, 0, 64, 127
1, 478129, Note_on_c, 0, 62, 60
1, 478185, Note_off_c, 0, 62, 57
1, 478202, Note_on_c, 0, 57, 56
1, 478231, Note_on_c, 0, 74, 71
1, 478232, Note_off_c, 0, 78, 58
1, 478269, Note_off_c, 0, 57, 55
1, 478302, Note_on_c, 0, 62, 64
1, 478385, Note_off_c, 0, 74, 61
1, 478404, Note_off_c, 0, 62, 59
1, 478405, Note_on_c, 0, 86, 80
1, 478417, Note_on_c, 0, 57, 57
1, 478474, Note_off_c, 0, 57, 59
1, 478499, Control_c, 0, 67, 116
1, 478514, Control_c, 0, 67, 90
1, 478522, Note_on_c, 0, 62, 58
1, 478529, Control_c, 0, 67, 64
1, 478551, Control_c, 0, 67, 45
1, 478566, Control_c, 0, 67, 34
1, 478581, Control_c, 0, 67, 0
1, 478608, Note_on_c, 0, 57, 66
1, 478609, Note_off_c, 0, 62, 53
1, 478614, Note_on_c, 0, 83, 80
1, 478645, Note_off_c, 0, 57, 62
1, 478661, Note_off_c, 0, 86, 62
1, 478711, Note_on_c, 0, 62, 61
1, 478738, Note_off_c, 0, 62, 60
1, 478788, Control_c, 0, 67, 38
1, 478796, Note_off_c, 0, 83, 61
1, 478803, Control_c, 0, 67, 38
1, 478810, Note_on_c, 0, 45, 61
1, 478818, Note_on_c, 0, 80, 83
1, 478818, Control_c, 0, 67, 37
1, 478833, Control_c, 0, 67, 38
1, 478839, Note_off_c, 0, 45, 62
1, 478848, Control_c, 0, 67, 42
1, 478863, Control_c, 0, 67, 53
1, 478878, Control_c, 0, 67, 62
1, 478892, Control_c, 0, 67, 65
1, 478907, Control_c, 0, 67, 75
1, 478922, Control_c, 0, 67, 105
1, 478937, Control_c, 0, 67, 127
1, 478952, Note_on_c, 0, 62, 35
1, 479001, Note_off_c, 0, 62, 58
1, 479026, Note_on_c, 0, 83, 74
1, 479031, Note_on_c, 0, 57, 55
1, 479074, Note_off_c, 0, 80, 47
1, 479077, Note_off_c, 0, 57, 62
1, 479166, Note_on_c, 0, 62, 38
1, 479217, Note_off_c, 0, 83, 48
1, 479219, Note_off_c, 0, 62, 46
1, 479233, Note_on_c, 0, 88, 74
1, 479244, Note_on_c, 0, 57, 53
1, 479304, Note_off_c, 0, 57, 56
1, 479419, Note_on_c, 0, 62, 32
1, 479457, Note_on_c, 0, 84, 61
1, 479461, Note_off_c, 0, 62, 59
1, 479471, Note_off_c, 0, 88, 55
1, 479479, Note_on_c, 0, 57, 43
1, 479501, Note_off_c, 0, 57, 62
1, 479565, Note_on_c, 0, 62, 41
1, 479589, Note_off_c, 0, 62, 57
1, 479671, Control_c, 0, 64, 94
1, 479686, Control_c, 0, 64, 67
1, 479700, Control_c, 0, 64, 49
1, 479708, Note_on_c, 0, 85, 55
1, 479711, Note_on_c, 0, 45, 38
1, 479715, Control_c, 0, 64, 44
1, 479730, Control_c, 0, 64, 47
1, 479744, Note_off_c, 0, 84, 60
1, 479745, Control_c, 0, 64, 57
1, 479747, Note_off_c, 0, 45, 61
1, 479760, Control_c, 0, 64, 68
1, 479775, Control_c, 0, 64, 89
1, 479790, Control_c, 0, 64, 127
1, 479822, Note_on_c, 0, 61, 64
1, 479896, Note_off_c, 0, 61, 58
1, 479921, Note_on_c, 0, 57, 48
1, 479928, Note_off_c, 0, 85, 63
1, 479937, Note_on_c, 0, 81, 56
1, 479964, Note_off_c, 0, 57, 44
1, 480031, Note_on_c, 0, 61, 45
1, 480071, Note_off_c, 0, 61, 53
1, 480075, Note_off_c, 0, 81, 39
1, 480104, Note_on_c, 0, 85, 66
1, 480114, Note_on_c, 0, 57, 51
1, 480174, Note_off_c, 0, 57, 56
1, 480197, Note_on_c, 0, 61, 60
1, 480212, Note_off_c, 0, 85, 59
1, 480216, Note_on_c, 0, 81, 65
1, 480257, Note_off_c, 0, 61, 58
1, 480282, Note_off_c, 0, 81, 58
1, 480287, Note_on_c, 0, 57, 60
1, 480315, Note_on_c, 0, 85, 72
1, 480360, Note_off_c, 0, 57, 61
1, 480361, Control_c, 0, 64, 108
1, 480374, Note_on_c, 0, 61, 62
1, 480376, Control_c, 0, 64, 100
1, 480391, Control_c, 0, 64, 95
1, 480398, Note_on_c, 0, 81, 67
1, 480405, Note_off_c, 0, 85, 59
1, 480405, Control_c, 0, 64, 86
1, 480417, Note_off_c, 0, 61, 57
1, 480420, Control_c, 0, 64, 72
1, 480435, Control_c, 0, 64, 56
1, 480450, Control_c, 0, 64, 38
1, 480454, Note_off_c, 0, 81, 63
1, 480465, Control_c, 0, 64, 28
1, 480479, Control_c, 0, 64, 30
1, 480490, Note_on_c, 0, 45, 60
1, 480494, Control_c, 0, 64, 41
1, 480495, Note_on_c, 0, 76, 63
1, 480509, Control_c, 0, 64, 62
1, 480514, Note_off_c, 0, 45, 58
1, 480523, Control_c, 0, 64, 79
1, 480538, Control_c, 0, 64, 127
1, 480568, Note_off_c, 0, 76, 35
1, 480588, Note_on_c, 0, 61, 55
1, 480593, Note_on_c, 0, 73, 59
1, 480633, Note_off_c, 0, 61, 55
1, 480666, Note_off_c, 0, 73, 57
1, 480683, Note_on_c, 0, 76, 66
1, 480686, Note_on_c, 0, 57, 44
1, 480752, Note_off_c, 0, 76, 59
1, 480768, Note_off_c, 0, 57, 36
1, 480778, Note_on_c, 0, 61, 56
1, 480780, Note_on_c, 0, 73, 66
1, 480841, Note_off_c, 0, 73, 59
1, 480850, Note_off_c, 0, 61, 54
1, 480884, Note_on_c, 0, 57, 59
1, 480890, Note_on_c, 0, 81, 69
1, 480941, Note_off_c, 0, 57, 59
1, 480947, Control_c, 0, 64, 110
1, 480961, Control_c, 0, 64, 83
1, 480964, Note_on_c, 0, 61, 67
1, 480976, Control_c, 0, 64, 69
1, 480979, Note_on_c, 0, 77, 71
1, 480987, Note_off_c, 0, 81, 60
1, 480991, Control_c, 0, 64, 60
1, 480999, Note_off_c, 0, 61, 57
1, 481006, Control_c, 0, 64, 50
1, 481021, Control_c, 0, 64, 37
1, 481036, Control_c, 0, 64, 0
1, 481062, Note_on_c, 0, 57, 53
1, 481075, Note_off_c, 0, 77, 39
1, 481079, Note_on_c, 0, 81, 75
1, 481143, Note_off_c, 0, 57, 63
1, 481146, Note_on_c, 0, 61, 56
1, 481175, Note_on_c, 0, 77, 72
1, 481176, Note_off_c, 0, 81, 60
1, 481188, Note_off_c, 0, 61, 61
1, 481222, Note_off_c, 0, 77, 58
1, 481259, Note_on_c, 0, 78, 72
1, 481264, Note_on_c, 0, 45, 57
1, 481273, Control_c, 0, 64, 44
1, 481288, Control_c, 0, 64, 65
1, 481289, Note_off_c, 0, 45, 57
1, 481302, Control_c, 0, 64, 75
1, 481317, Control_c, 0, 64, 90
1, 481325, Note_off_c, 0, 78, 57
1, 481332, Control_c, 0, 64, 101
1, 481346, Control_c, 0, 64, 123
1, 481361, Control_c, 0, 64, 127
1, 481362, Note_on_c, 0, 74, 68
1, 481369, Note_on_c, 0, 62, 57
1, 481413, Note_off_c, 0, 62, 55
1, 481422, Note_off_c, 0, 74, 61
1, 481443, Note_on_c, 0, 78, 73
1, 481456, Note_on_c, 0, 57, 53
1, 481502, Note_off_c, 0, 57, 60
1, 481516, Note_off_c, 0, 78, 56
1, 481555, Note_on_c, 0, 74, 73
1, 481562, Note_on_c, 0, 62, 56
1, 481608, Note_off_c, 0, 74, 61
1, 481614, Note_off_c, 0, 62, 58
1, 481648, Note_on_c, 0, 86, 75
1, 481656, Note_on_c, 0, 57, 66
1, 481695, Note_off_c, 0, 57, 58
1, 481725, Control_c, 0, 64, 120
1, 481740, Control_c, 0, 64, 92
1, 481748, Note_on_c, 0, 83, 73
1, 481750, Note_on_c, 0, 62, 63
1, 481752, Note_off_c, 0, 86, 62
1, 481755, Control_c, 0, 64, 80
1, 481770, Control_c, 0, 64, 72
1, 481784, Control_c, 0, 64, 65
1, 481799, Control_c, 0, 64, 61
1, 481814, Control_c, 0, 64, 60
1, 481823, Note_off_c, 0, 62, 51
1, 481832, Note_off_c, 0, 83, 56
1, 481834, Note_on_c, 0, 57, 67
1, 481844, Control_c, 0, 64, 59
1, 481849, Note_on_c, 0, 86, 73
1, 481858, Control_c, 0, 64, 58
1, 481873, Control_c, 0, 64, 57
1, 481876, Note_off_c, 0, 57, 59
1, 481902, Control_c, 0, 64, 56
1, 481917, Control_c, 0, 64, 56
1, 481930, Note_on_c, 0, 62, 70
1, 481932, Note_on_c, 0, 83, 71
1, 481932, Control_c, 0, 64, 52
1, 481940, Note_off_c, 0, 86, 63
1, 481947, Control_c, 0, 64, 47
1, 481960, Note_off_c, 0, 62, 64
1, 481962, Control_c, 0, 64, 42
1, 481976, Control_c, 0, 64, 39
1, 481978, Note_off_c, 0, 83, 61
1, 481991, Control_c, 0, 64, 41
1, 482006, Control_c, 0, 64, 51
1, 482016, Note_on_c, 0, 45, 72
1, 482021, Note_on_c, 0, 80, 76
1, 482021, Control_c, 0, 64, 64
1, 482036, Control_c, 0, 64, 82
1, 482045, Note_off_c, 0, 45, 65
1, 482050, Control_c, 0, 64, 116
1, 482065, Control_c, 0, 64, 127
1, 482095, Note_off_c, 0, 80, 50
1, 482118, Note_on_c, 0, 62, 64
1, 482118, Note_on_c, 0, 83, 74
1, 482171, Note_off_c, 0, 62, 56
1, 482205, Note_on_c, 0, 57, 64
1, 482210, Note_off_c, 0, 83, 60
1, 482219, Note_on_c, 0, 80, 81
1, 482267, Note_off_c, 0, 57, 62
1, 482309, Note_on_c, 0, 62, 68
1, 482321, Note_on_c, 0, 83, 72
1, 482324, Note_off_c, 0, 80, 56
1, 482380, Note_off_c, 0, 83, 57
1, 482390, Note_off_c, 0, 62, 59
1, 482405, Note_on_c, 0, 88, 84
1, 482417, Note_on_c, 0, 57, 76
1, 482471, Note_off_c, 0, 57, 61
1, 482508, Note_on_c, 0, 84, 77
1, 482511, Note_on_c, 0, 62, 73
1, 482523, Note_off_c, 0, 88, 61
1, 482574, Note_off_c, 0, 62, 61
1, 482577, Note_off_c, 0, 84, 57
1, 482604, Note_on_c, 0, 88, 84
1, 482610, Note_on_c, 0, 57, 77
1, 482651, Note_off_c, 0, 57, 65
1, 482684, Note_on_c, 0, 62, 75
1, 482698, Note_on_c, 0, 84, 76
1, 482726, Control_c, 0, 64, 99
1, 482734, Note_off_c, 0, 62, 63
1, 482740, Note_off_c, 0, 88, 64
1, 482741, Control_c, 0, 64, 73
1, 482753, Note_off_c, 0, 84, 62
1, 482756, Control_c, 0, 64, 51
1, 482771, Control_c, 0, 64, 37
1, 482783, Note_on_c, 0, 45, 81
1, 482786, Control_c, 0, 64, 37
1, 482796, Note_on_c, 0, 85, 76
1, 482800, Control_c, 0, 64, 46
1, 482814, Note_off_c, 0, 45, 65
1, 482815, Control_c, 0, 64, 60
1, 482830, Control_c, 0, 64, 75
1, 482845, Control_c, 0, 64, 105
1, 482851, Note_off_c, 0, 85, 65
1, 482860, Control_c, 0, 64, 127
1, 482882, Note_on_c, 0, 84, 70
1, 482884, Note_on_c, 0, 61, 67
1, 482940, Note_off_c, 0, 84, 60
1, 482949, Note_off_c, 0, 61, 61
1, 482977, Note_on_c, 0, 85, 77
1, 482983, Note_on_c, 0, 57, 60
1, 483030, Note_off_c, 0, 85, 62
1, 483057, Note_off_c, 0, 57, 62
1, 483073, Note_on_c, 0, 61, 74
1, 483084, Note_on_c, 0, 80, 82
1, 483120, Note_off_c, 0, 61, 58
1, 483134, Note_off_c, 0, 80, 60
1, 483161, Note_on_c, 0, 57, 75
1, 483172, Note_on_c, 0, 81, 86
1, 483178, Control_c, 0, 64, 108
1, 483192, Control_c, 0, 64, 82
1, 483207, Control_c, 0, 64, 67
1, 483219, Note_off_c, 0, 57, 62
1, 483222, Control_c, 0, 64, 55
1, 483230, Note_off_c, 0, 81, 59
1, 483236, Note_on_c, 0, 61, 68
1, 483237, Control_c, 0, 64, 41
1, 483251, Control_c, 0, 64, 0
1, 483257, Note_on_c, 0, 80, 78
1, 483299, Note_off_c, 0, 61, 62
1, 483311, Note_off_c, 0, 80, 62
1, 483334, Note_on_c, 0, 57, 64
1, 483342, Note_on_c, 0, 81, 80
1, 483393, Note_off_c, 0, 57, 53
1, 483420, Note_on_c, 0, 61, 61
1, 483438, Note_on_c, 0, 75, 74
1, 483455, Note_off_c, 0, 81, 61
1, 483469, Note_off_c, 0, 61, 58
1, 483474, Note_off_c, 0, 75, 57
1, 483522, Note_on_c, 0, 57, 56
1, 483525, Note_on_c, 0, 76, 70
1, 483573, Note_off_c, 0, 76, 52
1, 483577, Note_off_c, 0, 57, 56
1, 483612, Note_on_c, 0, 61, 59
1, 483614, Note_on_c, 0, 75, 71
1, 483660, Note_off_c, 0, 61, 56
1, 483677, Note_off_c, 0, 75, 57
1, 483696, Note_on_c, 0, 76, 71
1, 483713, Note_on_c, 0, 57, 51
1, 483746, Note_off_c, 0, 76, 62
1, 483766, Note_off_c, 0, 57, 57
1, 483802, Note_on_c, 0, 72, 68
1, 483805, Note_on_c, 0, 61, 61
1, 483840, Note_off_c, 0, 72, 56
1, 483856, Note_off_c, 0, 61, 55
1, 483897, Note_on_c, 0, 57, 60
1, 483903, Note_on_c, 0, 73, 62
1, 483946, Note_off_c, 0, 57, 58
1, 483960, Note_off_c, 0, 73, 49
1, 483978, Note_on_c, 0, 61, 65
1, 483985, Note_on_c, 0, 72, 75
1, 484034, Note_off_c, 0, 72, 61
1, 484043, Note_off_c, 0, 61, 60
1, 484075, Note_on_c, 0, 57, 58
1, 484083, Note_on_c, 0, 73, 71
1, 484130, Note_off_c, 0, 57, 56
1, 484145, Note_off_c, 0, 73, 63
1, 484161, Note_on_c, 0, 61, 64
1, 484178, Note_on_c, 0, 68, 73
1, 484194, Note_off_c, 0, 61, 65
1, 484215, Note_off_c, 0, 68, 63
1, 484224, Control_c, 0, 64, 42
1, 484239, Control_c, 0, 64, 64
1, 484253, Control_c, 0, 64, 79
1, 484257, Note_on_c, 0, 69, 78
1, 484261, Note_on_c, 0, 45, 74
1, 484268, Control_c, 0, 64, 108
1, 484282, Note_off_c, 0, 69, 64
1, 484283, Control_c, 0, 64, 127
1, 484288, Note_off_c, 0, 45, 65
1, 484363, Note_on_c, 0, 84, 76
1, 484368, Note_on_c, 0, 61, 67
1, 484413, Note_off_c, 0, 84, 63
1, 484433, Note_off_c, 0, 61, 61
1, 484454, Note_on_c, 0, 85, 69
1, 484456, Note_on_c, 0, 57, 54
1, 484524, Note_off_c, 0, 57, 61
1, 484534, Note_off_c, 0, 85, 63
1, 484559, Note_on_c, 0, 61, 66
1, 484559, Note_on_c, 0, 80, 78
1, 484620, Note_off_c, 0, 80, 56
1, 484624, Note_off_c, 0, 61, 60
1, 484644, Note_on_c, 0, 81, 77
1, 484647, Note_on_c, 0, 57, 76
1, 484675, Control_c, 0, 64, 91
1, 484690, Control_c, 0, 64, 66
1, 484705, Control_c, 0, 64, 49
1, 484706, Note_off_c, 0, 81, 61
1, 484718, Note_off_c, 0, 57, 59
1, 484720, Control_c, 0, 64, 32
1, 484735, Control_c, 0, 64, 0
1, 484735, Note_on_c, 0, 61, 67
1, 484738, Note_on_c, 0, 80, 70
1, 484785, Note_off_c, 0, 80, 61
1, 484786, Note_off_c, 0, 61, 51
1, 484820, Note_on_c, 0, 81, 71
1, 484832, Note_on_c, 0, 57, 61
1, 484886, Note_off_c, 0, 57, 54
1, 484916, Note_on_c, 0, 61, 59
1, 484921, Note_on_c, 0, 75, 66
1, 484930, Note_off_c, 0, 81, 61
1, 484966, Note_off_c, 0, 75, 51
1, 484974, Note_off_c, 0, 61, 55
1, 485005, Note_on_c, 0, 76, 68
1, 485011, Note_on_c, 0, 57, 53
1, 485061, Note_off_c, 0, 76, 53
1, 485076, Note_off_c, 0, 57, 54
1, 485099, Note_on_c, 0, 61, 57
1, 485099, Note_on_c, 0, 75, 65
1, 485162, Note_off_c, 0, 61, 51
1, 485165, Note_off_c, 0, 75, 60
1, 485173, Note_on_c, 0, 76, 63
1, 485204, Note_on_c, 0, 57, 45
1, 485204, Note_off_c, 0, 76, 62
1, 485266, Note_off_c, 0, 57, 63
1, 485269, Note_on_c, 0, 72, 63
1, 485294, Note_on_c, 0, 61, 64
1, 485340, Note_off_c, 0, 61, 60
1, 485376, Note_on_c, 0, 73, 55
1, 485379, Note_off_c, 0, 72, 26
1, 485385, Note_on_c, 0, 57, 54
1, 485424, Note_off_c, 0, 57, 64
1, 485440, Note_on_c, 0, 61, 72
1, 485468, Note_off_c, 0, 73, 63
1, 485477, Note_off_c, 0, 61, 59
1, 485483, Note_on_c, 0, 72, 57
1, 485526, Note_on_c, 0, 57, 61
1, 485555, Note_off_c, 0, 72, 59
1, 485579, Note_off_c, 0, 57, 59
1, 485579, Note_on_c, 0, 73, 58
1, 485611, Note_on_c, 0, 61, 49
1, 485623, Note_off_c, 0, 73, 59
1, 485656, Note_off_c, 0, 61, 53
1, 485668, Note_on_c, 0, 68, 68
1, 485701, Note_on_c, 0, 57, 50
1, 485711, Note_off_c, 0, 68, 59
1, 485755, Note_on_c, 0, 69, 69
1, 485755, Note_off_c, 0, 57, 58
1, 485791, Note_on_c, 0, 61, 50
1, 485805, Note_off_c, 0, 69, 55
1, 485831, Note_on_c, 0, 68, 64
1, 485851, Note_off_c, 0, 61, 61
1, 485875, Note_off_c, 0, 68, 61
1, 485907, Note_on_c, 0, 57, 57
1, 485915, Note_on_c, 0, 69, 65
1, 485977, Note_off_c, 0, 57, 62
1, 485993, Note_on_c, 0, 61, 60
1, 485993, Note_on_c, 0, 71, 72
1, 485996, Note_off_c, 0, 69, 34
1, 486063, Note_off_c, 0, 61, 63
1, 486079, Note_on_c, 0, 57, 68
1, 486090, Note_on_c, 0, 73, 72
1, 486092, Note_off_c, 0, 71, 37
1, 486154, Note_off_c, 0, 57, 62
1, 486166, Note_on_c, 0, 61, 71
1, 486168, Note_off_c, 0, 73, 50
1, 486181, Note_on_c, 0, 74, 69
1, 486224, Note_off_c, 0, 61, 61
1, 486261, Note_off_c, 0, 74, 58
1, 486264, Note_on_c, 0, 57, 66
1, 486266, Note_on_c, 0, 73, 72
1, 486324, Note_off_c, 0, 73, 56
1, 486331, Note_off_c, 0, 57, 57
1, 486360, Note_on_c, 0, 61, 49
1, 486360, Note_on_c, 0, 71, 61
1, 486419, Note_off_c, 0, 61, 57
1, 486429, Note_off_c, 0, 71, 45
1, 486452, Note_on_c, 0, 57, 60
1, 486460, Note_on_c, 0, 69, 56
1, 486525, Note_off_c, 0, 57, 61
1, 486539, Note_off_c, 0, 69, 36
1, 486542, Note_on_c, 0, 61, 57
1, 486551, Note_on_c, 0, 71, 64
1, 486594, Note_off_c, 0, 71, 57
1, 486610, Note_off_c, 0, 61, 60
1, 486641, Note_on_c, 0, 73, 61
1, 486646, Note_on_c, 0, 57, 56
1, 486714, Note_off_c, 0, 57, 62
1, 486732, Note_off_c, 0, 73, 49
1, 486735, Note_on_c, 0, 71, 55
1, 486739, Note_on_c, 0, 61, 52
1, 486785, Note_off_c, 0, 71, 54
1, 486810, Note_off_c, 0, 61, 57
1, 486837, Note_on_c, 0, 69, 59
1, 486842, Note_on_c, 0, 57, 49
1, 486867, Note_off_c, 0, 69, 63
1, 486884, Note_off_c, 0, 57, 50
1, 486920, Note_on_c, 0, 71, 54
1, 486926, Note_on_c, 0, 61, 55
1, 486976, Note_off_c, 0, 61, 60
1, 486980, Note_off_c, 0, 71, 53
1, 487027, Note_on_c, 0, 69, 55
1, 487032, Note_on_c, 0, 57, 30
1, 487071, Note_off_c, 0, 69, 57
1, 487094, Note_on_c, 0, 61, 57
1, 487109, Note_off_c, 0, 57, 62
1, 487121, Note_on_c, 0, 68, 57
1, 487135, Note_off_c, 0, 61, 59
1, 487209, Note_off_c, 0, 68, 36
1, 487263, Control_c, 0, 64, 33
1, 487274, Note_on_c, 0, 67, 59
1, 487278, Control_c, 0, 64, 42
1, 487293, Control_c, 0, 64, 55
1, 487298, Note_on_c, 0, 45, 53
1, 487308, Control_c, 0, 64, 63
1, 487322, Control_c, 0, 64, 68
1, 487337, Control_c, 0, 64, 72
1, 487352, Control_c, 0, 64, 80
1, 487367, Control_c, 0, 64, 90
1, 487382, Control_c, 0, 64, 107
1, 487396, Control_c, 0, 64, 127
1, 487427, Note_off_c, 0, 67, 53
1, 487472, Note_on_c, 0, 57, 39
1, 487494, Note_off_c, 0, 45, 36
1, 487504, Note_off_c, 0, 57, 61
1, 487558, Poly_aftertouch_c, 0, 73, 0
1, 487605, Note_on_c, 0, 57, 52
1, 487621, Note_on_c, 0, 73, 48
1, 487647, Note_off_c, 0, 57, 59
1, 487649, Note_on_c, 0, 45, 24
1, 487662, Note_on_c, 0, 61, 13
1, 487682, Note_off_c, 0, 73, 56
1, 487687, Note_off_c, 0, 45, 41
1, 487687, Poly_aftertouch_c, 0, 67, 127
1, 487705, Note_off_c, 0, 61, 52
1, 487741, Poly_aftertouch_c, 0, 67, 0
1, 487747, Note_on_c, 0, 73, 47
1, 487756, Note_on_c, 0, 57, 47
1, 487770, Note_on_c, 0, 45, 42
1, 487772, Note_on_c, 0, 67, 4
1, 487776, Note_on_c, 0, 61, 33
1, 487793, Note_off_c, 0, 57, 56
1, 487801, Note_off_c, 0, 73, 55
1, 487807, Note_off_c, 0, 45, 51
1, 487809, Note_off_c, 0, 61, 53
1, 487823, Note_off_c, 0, 67, 50
1, 487886, Note_on_c, 0, 57, 53
1, 487886, Note_on_c, 0, 73, 37
1, 487887, Note_on_c, 0, 67, 45
1, 487894, Note_on_c, 0, 45, 46
1, 487901, Note_on_c, 0, 61, 42
1, 487916, Note_off_c, 0, 57, 55
1, 487923, Note_off_c, 0, 73, 61
1, 487925, Note_off_c, 0, 67, 57
1, 487928, Note_off_c, 0, 45, 46
1, 487930, Note_off_c, 0, 61, 53
1, 488006, Note_on_c, 0, 57, 55
1, 488008, Note_on_c, 0, 73, 55
1, 488013, Note_on_c, 0, 67, 51
1, 488022, Note_on_c, 0, 45, 38
1, 488027, Note_on_c, 0, 61, 36
1, 488038, Note_off_c, 0, 57, 61
1, 488041, Note_off_c, 0, 67, 59
1, 488044, Note_off_c, 0, 73, 61
1, 488054, Note_off_c, 0, 45, 46
1, 488057, Note_off_c, 0, 61, 54
1, 488120, Note_on_c, 0, 57, 57
1, 488136, Note_on_c, 0, 67, 48
1, 488143, Note_on_c, 0, 73, 53
1, 488145, Note_on_c, 0, 61, 48
1, 488145, Note_on_c, 0, 45, 47
1, 488167, Note_off_c, 0, 57, 64
1, 488170, Note_off_c, 0, 61, 58
1, 488172, Note_off_c, 0, 45, 55
1, 488177, Note_off_c, 0, 67, 62
1, 488185, Note_off_c, 0, 73, 61
1, 488234, Control_c, 0, 67, 125
1, 488249, Control_c, 0, 67, 103
1, 488263, Note_on_c, 0, 61, 46
1, 488263, Control_c, 0, 67, 88
1, 488264, Note_on_c, 0, 73, 47
1, 488265, Note_on_c, 0, 57, 56
1, 488266, Note_on_c, 0, 45, 48
1, 488269, Note_on_c, 0, 67, 46
1, 488278, Control_c, 0, 67, 76
1, 488294, Note_off_c, 0, 61, 59
1, 488297, Note_off_c, 0, 57, 57
1, 488297, Note_off_c, 0, 73, 57
1, 488300, Control_c, 0, 67, 63
1, 488303, Note_off_c, 0, 67, 58
1, 488306, Note_off_c, 0, 45, 52
1, 488315, Control_c, 0, 67, 41
1, 488330, Control_c, 0, 67, 0
1, 488381, Note_on_c, 0, 67, 57
1, 488384, Note_on_c, 0, 73, 48
1, 488385, Note_on_c, 0, 61, 40
1, 488390, Note_on_c, 0, 57, 54
1, 488396, Note_on_c, 0, 45, 52
1, 488414, Note_off_c, 0, 73, 61
1, 488417, Note_off_c, 0, 67, 60
1, 488421, Note_off_c, 0, 57, 62
1, 488421, Note_off_c, 0, 61, 51
1, 488431, Note_off_c, 0, 45, 48
1, 488499, Note_on_c, 0, 57, 50
1, 488501, Note_on_c, 0, 73, 53
1, 488509, Note_on_c, 0, 45, 53
1, 488510, Note_on_c, 0, 67, 57
1, 488512, Note_on_c, 0, 52, 59
1, 488521, Note_on_c, 0, 61, 42
1, 488536, Note_on_c, 0, 55, 26
1, 488540, Note_off_c, 0, 67, 62
1, 488542, Note_off_c, 0, 57, 44
1, 488545, Note_off_c, 0, 45, 47
1, 488548, Note_off_c, 0, 61, 55
1, 488551, Note_off_c, 0, 52, 58
1, 488551, Note_off_c, 0, 73, 56
1, 488581, Note_off_c, 0, 55, 53
1, 488619, Note_on_c, 0, 45, 59
1, 488621, Note_on_c, 0, 52, 65
1, 488623, Note_on_c, 0, 61, 59
1, 488624, Note_on_c, 0, 73, 46
1, 488630, Note_on_c, 0, 67, 61
1, 488632, Note_on_c, 0, 57, 34
1, 488650, Note_on_c, 0, 55, 42
1, 488658, Note_off_c, 0, 61, 61
1, 488668, Note_off_c, 0, 67, 60
1, 488669, Note_off_c, 0, 45, 47
1, 488672, Note_off_c, 0, 52, 59
1, 488673, Note_off_c, 0, 57, 50
1, 488681, Note_off_c, 0, 55, 55
1, 488682, Note_off_c, 0, 73, 56
1, 488735, Note_on_c, 0, 45, 47
1, 488742, Note_on_c, 0, 52, 57
1, 488745, Note_on_c, 0, 73, 58
1, 488750, Note_on_c, 0, 61, 64
1, 488753, Note_on_c, 0, 57, 60
1, 488753, Note_on_c, 0, 67, 70
1, 488759, Note_on_c, 0, 55, 55
1, 488786, Note_off_c, 0, 61, 62
1, 488789, Note_off_c, 0, 55, 59
1, 488793, Note_off_c, 0, 57, 63
1, 488800, Note_off_c, 0, 67, 58
1, 488805, Note_off_c, 0, 52, 62
1, 488814, Note_off_c, 0, 45, 60
1, 488816, Note_off_c, 0, 73, 63
1, 488874, Note_on_c, 0, 73, 61
1, 488879, Note_on_c, 0, 45, 53
1, 488880, Note_on_c, 0, 52, 63
1, 488882, Note_on_c, 0, 57, 55
1, 488884, Note_on_c, 0, 61, 65
1, 488888, Note_on_c, 0, 67, 63
1, 488891, Note_on_c, 0, 55, 51
1, 488914, Note_off_c, 0, 61, 63
1, 488918, Note_off_c, 0, 67, 63
1, 488921, Note_off_c, 0, 57, 61
1, 488929, Note_off_c, 0, 55, 50
1, 488935, Note_off_c, 0, 52, 62
1, 488938, Note_off_c, 0, 45, 52
1, 488943, Note_off_c, 0, 73, 63
1, 488994, Note_on_c, 0, 73, 64
1, 489001, Note_on_c, 0, 61, 66
1, 489001, Note_on_c, 0, 67, 66
1, 489004, Note_on_c, 0, 57, 67
1, 489006, Note_on_c, 0, 52, 71
1, 489007, Note_on_c, 0, 55, 62
1, 489015, Note_on_c, 0, 45, 45
1, 489025, Note_off_c, 0, 61, 67
1, 489039, Note_off_c, 0, 67, 58
1, 489042, Note_off_c, 0, 55, 66
1, 489044, Note_off_c, 0, 57, 64
1, 489048, Note_off_c, 0, 45, 58
1, 489055, Note_off_c, 0, 52, 62
1, 489055, Note_off_c, 0, 73, 63
1, 489107, Note_on_c, 0, 73, 65
1, 489109, Note_on_c, 0, 52, 63
1, 489114, Note_on_c, 0, 61, 76
1, 489117, Note_on_c, 0, 67, 75
1, 489118, Note_on_c, 0, 45, 67
1, 489120, Note_on_c, 0, 55, 64
1, 489120, Note_on_c, 0, 57, 66
1, 489144, Note_off_c, 0, 45, 68
1, 489147, Note_off_c, 0, 55, 65
1, 489148, Note_off_c, 0, 57, 67
1, 489155, Note_off_c, 0, 61, 61
1, 489155, Note_off_c, 0, 67, 57
1, 489158, Note_off_c, 0, 52, 62
1, 489160, Note_off_c, 0, 73, 63
1, 489221, Note_on_c, 0, 45, 66
1, 489222, Note_on_c, 0, 52, 69
1, 489224, Note_on_c, 0, 73, 68
1, 489225, Note_on_c, 0, 55, 72
1, 489229, Note_on_c, 0, 57, 64
1, 489231, Note_on_c, 0, 67, 73
1, 489237, Note_on_c, 0, 61, 73
1, 489253, Note_off_c, 0, 55, 62
1, 489254, Note_off_c, 0, 57, 68
1, 489254, Note_off_c, 0, 45, 66
1, 489263, Note_off_c, 0, 61, 64
1, 489266, Note_off_c, 0, 52, 64
1, 489280, Note_off_c, 0, 67, 61
1, 489281, Note_off_c, 0, 73, 63
1, 489325, Note_on_c, 0, 52, 70
1, 489332, Note_on_c, 0, 55, 73
1, 489336, Note_on_c, 0, 45, 66
1, 489338, Note_on_c, 0, 57, 63
1, 489343, Note_on_c, 0, 67, 68
1, 489343, Note_on_c, 0, 73, 65
1, 489349, Note_on_c, 0, 61, 78
1, 489367, Note_off_c, 0, 57, 63
1, 489368, Note_off_c, 0, 45, 61
1, 489370, Note_off_c, 0, 55, 58
1, 489383, Note_off_c, 0, 52, 63
1, 489393, Note_off_c, 0, 61, 62
1, 489399, Note_off_c, 0, 67, 62
1, 489401, Note_off_c, 0, 73, 61
1, 489454, Note_on_c, 0, 55, 80
1, 489454, Note_on_c, 0, 52, 70
1, 489460, Note_on_c, 0, 67, 72
1, 489460, Note_on_c, 0, 73, 67
1, 489462, Note_on_c, 0, 57, 66
1, 489468, Note_on_c, 0, 45, 65
1, 489468, Note_on_c, 0, 61, 78
1, 489496, Note_off_c, 0, 45, 65
1, 489497, Note_off_c, 0, 57, 57
1, 489499, Note_off_c, 0, 55, 58
1, 489505, Note_off_c, 0, 52, 62
1, 489511, Note_off_c, 0, 61, 63
1, 489519, Note_off_c, 0, 67, 62
1, 489530, Note_off_c, 0, 73, 62
1, 489580, Note_on_c, 0, 45, 67
1, 489580, Note_on_c, 0, 73, 74
1, 489581, Note_on_c, 0, 55, 71
1, 489583, Note_on_c, 0, 67, 77
1, 489585, Note_on_c, 0, 52, 76
1, 489585, Note_on_c, 0, 57, 66
1, 489588, Note_on_c, 0, 61, 89
1, 489621, Note_off_c, 0, 57, 60
1, 489624, Note_off_c, 0, 55, 59
1, 489630, Note_off_c, 0, 61, 64
1, 489642, Note_off_c, 0, 45, 59
1, 489643, Note_off_c, 0, 52, 62
1, 489644, Note_off_c, 0, 67, 62
1, 489652, Note_off_c, 0, 73, 62
1, 489704, Note_on_c, 0, 52, 74
1, 489712, Note_on_c, 0, 67, 79
1, 489713, Note_on_c, 0, 73, 77
1, 489713, Note_on_c, 0, 45, 64
1, 489713, Note_on_c, 0, 57, 67
1, 489713, Note_on_c, 0, 61, 88
1, 489717, Note_on_c, 0, 55, 75
1, 489742, Note_off_c, 0, 55, 58
1, 489749, Note_off_c, 0, 57, 66
1, 489755, Note_off_c, 0, 61, 63
1, 489766, Note_off_c, 0, 52, 61
1, 489774, Note_off_c, 0, 67, 61
1, 489778, Note_off_c, 0, 45, 61
1, 489791, Note_off_c, 0, 73, 59
1, 489838, Note_on_c, 0, 45, 59
1, 489840, Note_on_c, 0, 73, 73
1, 489844, Note_on_c, 0, 67, 75
1, 489847, Note_on_c, 0, 61, 88
1, 489847, Note_on_c, 0, 52, 70
1, 489847, Note_on_c, 0, 57, 62
1, 489854, Note_on_c, 0, 55, 64
1, 489880, Note_off_c, 0, 57, 62
1, 489883, Note_off_c, 0, 55, 63
1, 489888, Note_off_c, 0, 61, 60
1, 489892, Note_off_c, 0, 67, 62
1, 489894, Note_off_c, 0, 45, 59
1, 489895, Note_off_c, 0, 52, 61
1, 489916, Note_off_c, 0, 73, 58
1, 490005, Control_c, 0, 64, 104
1, 490010, Note_on_c, 0, 50, 56
1, 490010, Note_on_c, 0, 58, 91
1, 490011, Note_on_c, 0, 62, 92
1, 490011, Note_on_c, 0, 74, 94
1, 490013, Note_on_c, 0, 53, 76
1, 490017, Note_on_c, 0, 65, 82
1, 490020, Control_c, 0, 64, 61
1, 490024, Note_on_c, 0, 46, 72
1, 490035, Control_c, 0, 64, 0
1, 490080, Control_c, 0, 64, 66
1, 490081, Note_off_c, 0, 58, 61
1, 490086, Note_off_c, 0, 46, 59
1, 490095, Control_c, 0, 64, 127
1, 490099, Note_off_c, 0, 53, 60
1, 490104, Note_off_c, 0, 50, 60
1, 490122, Note_off_c, 0, 62, 61
1, 490125, Note_off_c, 0, 65, 61
1, 490125, Note_off_c, 0, 74, 66
1, 490196, Note_on_c, 0, 58, 83
1, 490198, Note_on_c, 0, 53, 78
1, 490199, Note_on_c, 0, 74, 94
1, 490201, Note_on_c, 0, 65, 88
1, 490202, Note_on_c, 0, 62, 91
1, 490205, Note_on_c, 0, 46, 71
1, 490213, Note_on_c, 0, 50, 59
1, 490263, Note_off_c, 0, 58, 57
1, 490281, Note_off_c, 0, 46, 56
1, 490308, Note_off_c, 0, 53, 36
1, 490316, Note_off_c, 0, 62, 55
1, 490318, Note_off_c, 0, 50, 38
1, 490320, Note_off_c, 0, 65, 57
1, 490322, Note_off_c, 0, 74, 57
1, 490418, Note_on_c, 0, 74, 95
1, 490420, Note_on_c, 0, 65, 88
1, 490422, Note_on_c, 0, 53, 81
1, 490424, Note_on_c, 0, 58, 86
1, 490424, Note_on_c, 0, 62, 85
1, 490429, Note_on_c, 0, 50, 69
1, 490438, Note_on_c, 0, 46, 65
1, 490473, Note_off_c, 0, 53, 63
1, 490473, Note_off_c, 0, 58, 57
1, 490486, Note_off_c, 0, 46, 46
1, 490509, Note_off_c, 0, 62, 56
1, 490542, Note_off_c, 0, 65, 45
1, 490563, Note_off_c, 0, 74, 47
1, 490637, Note_off_c, 0, 50, 20
1, 490745, Note_on_c, 0, 65, 68
1, 490745, Note_on_c, 0, 74, 96
1, 490751, Note_on_c, 0, 62, 78
1, 490759, Note_on_c, 0, 46, 69
1, 490759, Note_on_c, 0, 58, 82
1, 490767, Note_on_c, 0, 50, 67
1, 490813, Control_c, 0, 64, 91
1, 490828, Control_c, 0, 64, 63
1, 490843, Control_c, 0, 64, 28
1, 490858, Control_c, 0, 64, 0
1, 490888, Control_c, 0, 64, 53
1, 490903, Control_c, 0, 64, 83
1, 490917, Control_c, 0, 64, 127
1, 490941, Note_off_c, 0, 58, 61
1, 491001, Note_off_c, 0, 62, 55
1, 491023, Note_on_c, 0, 53, 71
1, 491043, Note_off_c, 0, 74, 55
1, 491128, Note_off_c, 0, 65, 63
1, 491139, Note_off_c, 0, 53, 38
1, 491150, Note_on_c, 0, 68, 12
1, 491195, Note_off_c, 0, 68, 53
1, 491232, Note_on_c, 0, 53, 66
1, 491250, Note_off_c, 0, 50, 57
1, 491255, Note_off_c, 0, 46, 56
1, 491297, Note_off_c, 0, 53, 59
1, 491454, Note_on_c, 0, 72, 86
1, 491466, Note_on_c, 0, 46, 55
1, 491466, Note_on_c, 0, 65, 54
1, 491469, Note_on_c, 0, 51, 67
1, 491471, Note_on_c, 0, 60, 59
1, 491518, Control_c, 0, 64, 77
1, 491533, Control_c, 0, 64, 48
1, 491548, Control_c, 0, 64, 32
1, 491562, Control_c, 0, 64, 42
1, 491577, Control_c, 0, 64, 60
1, 491592, Control_c, 0, 64, 84
1, 491606, Control_c, 0, 64, 127
1, 491633, Note_off_c, 0, 60, 59
1, 491647, Note_off_c, 0, 65, 62
1, 491650, Note_on_c, 0, 53, 71
1, 491704, Note_off_c, 0, 53, 60
1, 491785, Note_on_c, 0, 53, 75
1, 491815, Note_off_c, 0, 51, 61
1, 491833, Note_off_c, 0, 46, 61
1, 491862, Note_off_c, 0, 53, 61
1, 491920, Note_on_c, 0, 70, 92
1, 491928, Note_on_c, 0, 50, 72
1, 491931, Note_on_c, 0, 65, 72
1, 491932, Note_on_c, 0, 58, 74
1, 491935, Note_on_c, 0, 46, 67
1, 491962, Control_c, 0, 64, 102
1, 491977, Control_c, 0, 64, 67
1, 491985, Note_off_c, 0, 72, 61
1, 491992, Control_c, 0, 64, 39
1, 492006, Control_c, 0, 64, 0
1, 492043, Note_off_c, 0, 58, 61
1, 492044, Control_c, 0, 64, 48
1, 492045, Note_off_c, 0, 65, 52
1, 492059, Control_c, 0, 64, 65
1, 492070, Note_on_c, 0, 53, 73
1, 492074, Control_c, 0, 64, 82
1, 492089, Control_c, 0, 64, 127
1, 492128, Note_off_c, 0, 53, 60
1, 492214, Note_on_c, 0, 53, 73
1, 492243, Note_off_c, 0, 50, 62
1, 492257, Note_off_c, 0, 46, 62
1, 492274, Note_off_c, 0, 53, 60
1, 492345, Note_on_c, 0, 72, 87
1, 492356, Control_c, 0, 64, 87
1, 492358, Note_on_c, 0, 46, 77
1, 492358, Note_on_c, 0, 51, 79
1, 492358, Note_on_c, 0, 65, 77
1, 492360, Note_on_c, 0, 60, 74
1, 492371, Control_c, 0, 64, 62
1, 492385, Control_c, 0, 64, 38
1, 492400, Control_c, 0, 64, 33
1, 492415, Control_c, 0, 64, 44
1, 492420, Note_off_c, 0, 70, 62
1, 492429, Control_c, 0, 64, 60
1, 492444, Control_c, 0, 64, 84
1, 492459, Control_c, 0, 64, 127
1, 492505, Note_on_c, 0, 53, 73
1, 492544, Note_off_c, 0, 60, 49
1, 492554, Note_off_c, 0, 53, 63
1, 492561, Note_off_c, 0, 65, 56
1, 492642, Note_on_c, 0, 53, 76
1, 492663, Note_off_c, 0, 51, 61
1, 492667, Note_off_c, 0, 46, 59
1, 492676, Note_off_c, 0, 53, 56
1, 492825, Note_on_c, 0, 74, 95
1, 492838, Note_on_c, 0, 46, 63
1, 492841, Note_on_c, 0, 52, 60
1, 492841, Note_on_c, 0, 65, 48
1, 492852, Note_on_c, 0, 62, 52
1, 492852, Control_c, 0, 64, 88
1, 492867, Control_c, 0, 64, 67
1, 492877, Note_off_c, 0, 65, 0
1, 492877, Note_on_c, 0, 65, 39
1, 492882, Control_c, 0, 64, 51
1, 492897, Control_c, 0, 64, 29
1, 492912, Control_c, 0, 64, 0
1, 493001, Control_c, 0, 67, 42
1, 493012, Note_on_c, 0, 53, 54
1, 493016, Control_c, 0, 67, 69
1, 493018, Note_off_c, 0, 52, 57
1, 493031, Control_c, 0, 67, 78
1, 493058, Note_off_c, 0, 53, 60
1, 493060, Control_c, 0, 64, 40
1, 493060, Control_c, 0, 67, 81
1, 493075, Control_c, 0, 64, 55
1, 493075, Control_c, 0, 67, 99
1, 493090, Control_c, 0, 64, 63
1, 493090, Control_c, 0, 67, 127
1, 493105, Control_c, 0, 64, 64
1, 493120, Control_c, 0, 64, 67
1, 493134, Control_c, 0, 64, 73
1, 493149, Control_c, 0, 64, 91
1, 493155, Note_on_c, 0, 53, 71
1, 493164, Control_c, 0, 64, 127
1, 493197, Note_off_c, 0, 53, 60
1, 493214, Note_off_c, 0, 72, 20
1, 493281, Note_on_c, 0, 53, 75
1, 493332, Note_off_c, 0, 53, 59
1, 493417, Note_on_c, 0, 53, 72
1, 493454, Note_off_c, 0, 53, 62
1, 493550, Note_on_c, 0, 53, 70
1, 493578, Note_off_c, 0, 53, 63
1, 493671, Note_on_c, 0, 53, 75
1, 493711, Note_off_c, 0, 53, 61
1, 493773, Note_off_c, 0, 74, 60
1, 493803, Note_on_c, 0, 53, 57
1, 493810, Note_off_c, 0, 65, 61
1, 493815, Note_off_c, 0, 62, 59
1, 493832, Note_off_c, 0, 53, 61
1, 493913, Note_on_c, 0, 53, 68
1, 493976, Note_off_c, 0, 46, 59
1, 494000, Note_off_c, 0, 53, 39
1, 494071, Note_on_c, 0, 72, 83
1, 494083, Note_on_c, 0, 51, 65
1, 494083, Note_on_c, 0, 65, 61
1, 494086, Note_on_c, 0, 46, 69
1, 494092, Note_on_c, 0, 60, 53
1, 494135, Control_c, 0, 64, 97
1, 494149, Control_c, 0, 64, 66
1, 494153, Note_off_c, 0, 60, 61
1, 494164, Control_c, 0, 64, 42
1, 494179, Control_c, 0, 64, 0
1, 494208, Control_c, 0, 64, 41
1, 494223, Control_c, 0, 64, 59
1, 494238, Control_c, 0, 64, 71
1, 494244, Note_on_c, 0, 53, 66
1, 494250, Note_off_c, 0, 65, 60
1, 494253, Control_c, 0, 64, 86
1, 494268, Control_c, 0, 64, 127
1, 494305, Control_c, 0, 67, 125
1, 494310, Note_off_c, 0, 51, 59
1, 494320, Control_c, 0, 67, 95
1, 494335, Control_c, 0, 67, 61
1, 494343, Note_on_c, 0, 70, 88
1, 494350, Control_c, 0, 67, 0
1, 494351, Note_on_c, 0, 58, 71
1, 494382, Note_off_c, 0, 58, 62
1, 494403, Note_off_c, 0, 72, 63
1, 494405, Note_off_c, 0, 53, 48
1, 494424, Note_on_c, 0, 50, 74
1, 494451, Note_off_c, 0, 46, 61
1, 494477, Note_off_c, 0, 50, 63
1, 494633, Note_on_c, 0, 72, 85
1, 494647, Note_on_c, 0, 51, 62
1, 494647, Control_c, 0, 64, 117
1, 494648, Note_on_c, 0, 41, 51
1, 494651, Note_on_c, 0, 60, 63
1, 494656, Note_on_c, 0, 65, 59
1, 494661, Control_c, 0, 64, 74
1, 494676, Control_c, 0, 64, 51
1, 494691, Control_c, 0, 64, 0
1, 494702, Note_off_c, 0, 70, 28
1, 494780, Control_c, 0, 64, 48
1, 494795, Control_c, 0, 64, 68
1, 494806, Note_on_c, 0, 53, 64
1, 494809, Note_off_c, 0, 60, 55
1, 494810, Control_c, 0, 64, 81
1, 494824, Control_c, 0, 64, 102
1, 494831, Note_off_c, 0, 72, 60
1, 494839, Control_c, 0, 64, 127
1, 494843, Note_off_c, 0, 53, 59
1, 494863, Note_off_c, 0, 65, 61
1, 494938, Note_off_c, 0, 51, 35
1, 494945, Note_on_c, 0, 53, 61
1, 494945, Note_off_c, 0, 41, 52
1, 494972, Note_off_c, 0, 53, 65
1, 495098, Note_on_c, 0, 41, 64
1, 495100, Note_on_c, 0, 72, 88
1, 495107, Note_on_c, 0, 51, 74
1, 495113, Control_c, 0, 64, 91
1, 495123, Note_on_c, 0, 65, 58
1, 495124, Note_on_c, 0, 60, 66
1, 495128, Control_c, 0, 64, 77
1, 495143, Control_c, 0, 64, 74
1, 495158, Control_c, 0, 64, 76
1, 495171, Note_off_c, 0, 60, 60
1, 495173, Control_c, 0, 64, 88
1, 495187, Control_c, 0, 64, 127
1, 495232, Note_off_c, 0, 72, 60
1, 495258, Note_on_c, 0, 53, 72
1, 495258, Note_off_c, 0, 65, 57
1, 495287, Note_off_c, 0, 53, 62
1, 495314, Note_off_c, 0, 41, 54
1, 495389, Note_off_c, 0, 51, 29
1, 495408, Note_on_c, 0, 53, 52
1, 495469, Note_off_c, 0, 53, 62
1, 495553, Note_on_c, 0, 72, 81
1, 495563, Note_on_c, 0, 41, 68
1, 495563, Note_on_c, 0, 65, 62
1, 495570, Note_on_c, 0, 60, 58
1, 495589, Control_c, 0, 64, 105
1, 495592, Note_on_c, 0, 51, 61
1, 495603, Control_c, 0, 64, 65
1, 495618, Control_c, 0, 64, 38
1, 495633, Control_c, 0, 64, 0
1, 495660, Note_off_c, 0, 60, 62
1, 495662, Control_c, 0, 64, 35
1, 495677, Control_c, 0, 64, 57
1, 495692, Control_c, 0, 64, 74
1, 495707, Control_c, 0, 64, 105
1, 495707, Control_c, 0, 67, 35
1, 495708, Note_off_c, 0, 65, 61
1, 495721, Control_c, 0, 64, 127
1, 495721, Control_c, 0, 67, 53
1, 495735, Note_on_c, 0, 53, 60
1, 495736, Control_c, 0, 67, 49
1, 495751, Control_c, 0, 67, 49
1, 495783, Note_off_c, 0, 53, 60
1, 495788, Control_c, 0, 67, 54
1, 495803, Control_c, 0, 67, 56
1, 495818, Control_c, 0, 67, 55
1, 495833, Control_c, 0, 67, 54
1, 495848, Control_c, 0, 67, 55
1, 495862, Control_c, 0, 67, 57
1, 495878, Note_on_c, 0, 53, 75
1, 495892, Control_c, 0, 67, 54
1, 495907, Control_c, 0, 67, 52
1, 495910, Note_off_c, 0, 51, 60
1, 495922, Control_c, 0, 67, 51
1, 495928, Note_off_c, 0, 41, 52
1, 495951, Control_c, 0, 67, 52
1, 495966, Control_c, 0, 67, 51
1, 495995, Control_c, 0, 67, 53
1, 496000, Note_off_c, 0, 53, 31
1, 496005, Note_on_c, 0, 70, 84
1, 496010, Control_c, 0, 64, 94
1, 496010, Control_c, 0, 67, 56
1, 496015, Note_on_c, 0, 65, 73
1, 496021, Note_on_c, 0, 41, 57
1, 496021, Note_on_c, 0, 58, 57
1, 496024, Note_on_c, 0, 50, 60
1, 496025, Control_c, 0, 64, 68
1, 496025, Control_c, 0, 67, 56
1, 496040, Control_c, 0, 64, 54
1, 496040, Control_c, 0, 67, 54
1, 496056, Control_c, 0, 64, 52
1, 496056, Control_c, 0, 67, 52
1, 496071, Control_c, 0, 64, 60
1, 496071, Control_c, 0, 67, 50
1, 496077, Note_off_c, 0, 58, 53
1, 496085, Control_c, 0, 64, 74
1, 496085, Control_c, 0, 67, 48
1, 496089, Note_off_c, 0, 72, 56
1, 496100, Control_c, 0, 64, 127
1, 496100, Control_c, 0, 67, 42
1, 496116, Control_c, 0, 67, 35
1, 496131, Control_c, 0, 67, 0
1, 496152, Note_on_c, 0, 53, 73
1, 496173, Note_off_c, 0, 70, 62
1, 496200, Note_off_c, 0, 50, 61
1, 496235, Note_on_c, 0, 69, 88
1, 496250, Note_on_c, 0, 57, 66
1, 496268, Note_off_c, 0, 53, 52
1, 496273, Note_off_c, 0, 65, 62
1, 496280, Note_off_c, 0, 57, 65
1, 496292, Note_off_c, 0, 69, 63
1, 496319, Note_on_c, 0, 48, 77
1, 496336, Note_off_c, 0, 41, 57
1, 496355, Note_off_c, 0, 48, 63
1, 496512, Note_on_c, 0, 70, 77
1, 496533, Note_on_c, 0, 65, 61
1, 496533, Note_on_c, 0, 46, 55
1, 496533, Note_on_c, 0, 50, 59
1, 496538, Control_c, 0, 64, 109
1, 496552, Control_c, 0, 64, 73
1, 496567, Control_c, 0, 64, 53
1, 496567, Control_c, 0, 67, 36
1, 496582, Control_c, 0, 64, 0
1, 496582, Control_c, 0, 67, 38
1, 496597, Control_c, 0, 67, 40
1, 496611, Control_c, 0, 67, 44
1, 496626, Control_c, 0, 67, 72
1, 496641, Control_c, 0, 67, 95
1, 496656, Control_c, 0, 64, 29
1, 496656, Control_c, 0, 67, 98
1, 496671, Control_c, 0, 64, 56
1, 496674, Note_off_c, 0, 65, 58
1, 496686, Control_c, 0, 64, 78
1, 496690, Note_on_c, 0, 53, 60
1, 496700, Control_c, 0, 64, 127
1, 496700, Control_c, 0, 67, 100
1, 496720, Note_off_c, 0, 53, 64
1, 496730, Control_c, 0, 67, 98
1, 496745, Control_c, 0, 67, 95
1, 496775, Control_c, 0, 67, 97
1, 496822, Note_off_c, 0, 50, 59
1, 496826, Note_on_c, 0, 53, 52
1, 496849, Control_c, 0, 67, 99
1, 496892, Note_off_c, 0, 53, 61
1, 496953, Control_c, 0, 64, 104
1, 496968, Control_c, 0, 64, 70
1, 496968, Control_c, 0, 67, 97
1, 496974, Note_on_c, 0, 67, 71
1, 496981, Note_on_c, 0, 63, 59
1, 496982, Note_on_c, 0, 51, 61
1, 496982, Control_c, 0, 64, 45
1, 496997, Control_c, 0, 64, 0
1, 496997, Control_c, 0, 67, 102
1, 497026, Control_c, 0, 67, 99
1, 497041, Control_c, 0, 67, 96
1, 497056, Control_c, 0, 67, 95
1, 497071, Control_c, 0, 64, 37
1, 497071, Control_c, 0, 67, 97
1, 497086, Control_c, 0, 64, 59
1, 497086, Control_c, 0, 67, 99
1, 497096, Note_off_c, 0, 63, 57
1, 497100, Control_c, 0, 64, 75
1, 497115, Control_c, 0, 64, 100
1, 497118, Note_on_c, 0, 55, 63
1, 497130, Control_c, 0, 64, 127
1, 497130, Control_c, 0, 67, 102
1, 497145, Control_c, 0, 67, 105
1, 497148, Note_off_c, 0, 67, 60
1, 497154, Note_off_c, 0, 55, 60
1, 497160, Control_c, 0, 67, 109
1, 497174, Control_c, 0, 67, 112
1, 497204, Control_c, 0, 67, 114
1, 497219, Control_c, 0, 67, 121
1, 497234, Control_c, 0, 67, 127
1, 497252, Note_on_c, 0, 55, 55
1, 497261, Note_off_c, 0, 51, 37
1, 497315, Control_c, 0, 64, 78
1, 497318, Note_off_c, 0, 55, 57
1, 497330, Control_c, 0, 64, 55
1, 497345, Control_c, 0, 64, 0
1, 497377, Note_on_c, 0, 65, 75
1, 497383, Note_on_c, 0, 50, 69
1, 497390, Note_on_c, 0, 62, 58
1, 497404, Control_c, 0, 64, 37
1, 497419, Control_c, 0, 64, 58
1, 497419, Control_c, 0, 67, 123
1, 497434, Control_c, 0, 64, 73
1, 497434, Control_c, 0, 67, 118
1, 497449, Control_c, 0, 64, 109
1, 497449, Control_c, 0, 67, 110
1, 497461, Note_off_c, 0, 62, 60
1, 497464, Control_c, 0, 64, 127
1, 497464, Control_c, 0, 67, 86
1, 497478, Note_off_c, 0, 70, 60
1, 497478, Control_c, 0, 67, 39
1, 497493, Control_c, 0, 67, 0
1, 497511, Note_off_c, 0, 65, 63
1, 497519, Note_on_c, 0, 53, 75
1, 497569, Note_off_c, 0, 53, 58
1, 497600, Note_off_c, 0, 50, 39
1, 497656, Note_on_c, 0, 53, 76
1, 497705, Note_off_c, 0, 46, 61
1, 497710, Note_off_c, 0, 53, 58
1, 497807, Note_on_c, 0, 74, 95
1, 497820, Control_c, 0, 64, 71
1, 497821, Note_on_c, 0, 65, 70
1, 497823, Note_on_c, 0, 50, 73
1, 497826, Note_on_c, 0, 44, 75
1, 497835, Control_c, 0, 64, 40
1, 497841, Note_on_c, 0, 62, 41
1, 497849, Control_c, 0, 64, 0
1, 497869, Note_off_c, 0, 62, 56
1, 497894, Control_c, 0, 64, 41
1, 497909, Control_c, 0, 64, 64
1, 497923, Control_c, 0, 64, 89
1, 497929, Note_off_c, 0, 65, 59
1, 497938, Control_c, 0, 64, 127
1, 497993, Note_off_c, 0, 74, 58
1, 497994, Note_on_c, 0, 53, 81
1, 498052, Note_off_c, 0, 53, 62
1, 498165, Note_on_c, 0, 53, 73
1, 498179, Note_off_c, 0, 50, 63
1, 498187, Note_off_c, 0, 44, 62
1, 498194, Note_off_c, 0, 53, 59
1, 498340, Note_on_c, 0, 74, 90
1, 498352, Note_on_c, 0, 67, 68
1, 498352, Note_on_c, 0, 53, 80
1, 498355, Note_on_c, 0, 43, 74
1, 498357, Note_on_c, 0, 62, 64
1, 498390, Control_c, 0, 64, 106
1, 498405, Control_c, 0, 64, 70
1, 498420, Control_c, 0, 64, 34
1, 498435, Control_c, 0, 64, 0
1, 498507, Note_on_c, 0, 55, 79
1, 498543, Note_off_c, 0, 53, 57
1, 498546, Note_off_c, 0, 55, 62
1, 498640, Note_on_c, 0, 55, 83
1, 498667, Note_off_c, 0, 55, 64
1, 498702, Control_c, 0, 67, 39
1, 498717, Control_c, 0, 67, 56
1, 498732, Control_c, 0, 67, 83
1, 498746, Control_c, 0, 67, 123
1, 498761, Control_c, 0, 67, 127
1, 498802, Note_on_c, 0, 53, 73
1, 498828, Control_c, 0, 64, 34
1, 498843, Control_c, 0, 64, 39
1, 498858, Control_c, 0, 64, 31
1, 498872, Control_c, 0, 64, 0
1, 498939, Note_on_c, 0, 55, 77
1, 498957, Note_off_c, 0, 53, 62
1, 498981, Note_off_c, 0, 55, 64
1, 499081, Note_on_c, 0, 55, 77
1, 499122, Note_off_c, 0, 55, 61
1, 499224, Note_on_c, 0, 53, 70
1, 499244, Control_c, 0, 64, 43
1, 499259, Control_c, 0, 64, 58
1, 499274, Control_c, 0, 64, 65
1, 499289, Control_c, 0, 64, 70
1, 499303, Control_c, 0, 64, 77
1, 499318, Control_c, 0, 64, 89
1, 499333, Control_c, 0, 64, 112
1, 499348, Control_c, 0, 64, 127
1, 499364, Note_on_c, 0, 55, 71
1, 499374, Note_off_c, 0, 53, 58
1, 499405, Note_off_c, 0, 55, 58
1, 499425, Note_off_c, 0, 74, 57
1, 499434, Note_off_c, 0, 67, 56
1, 499462, Note_off_c, 0, 62, 60
1, 499505, Note_on_c, 0, 55, 64
1, 499569, Note_off_c, 0, 55, 58
1, 499574, Note_off_c, 0, 43, 58
1, 499667, Note_on_c, 0, 72, 83
1, 499682, Note_on_c, 0, 67, 65
1, 499683, Note_on_c, 0, 51, 68
1, 499694, Note_on_c, 0, 60, 47
1, 499699, Note_on_c, 0, 43, 60
1, 499711, Control_c, 0, 64, 76
1, 499726, Control_c, 0, 64, 55
1, 499732, Note_off_c, 0, 60, 55
1, 499741, Control_c, 0, 64, 32
1, 499755, Control_c, 0, 64, 34
1, 499770, Control_c, 0, 64, 48
1, 499785, Control_c, 0, 64, 63
1, 499800, Control_c, 0, 64, 84
1, 499815, Control_c, 0, 64, 127
1, 499815, Control_c, 0, 67, 87
1, 499821, Note_off_c, 0, 67, 49
1, 499829, Control_c, 0, 67, 0
1, 499836, Note_on_c, 0, 55, 64
1, 499877, Note_off_c, 0, 51, 57
1, 499892, Note_on_c, 0, 71, 90
1, 499904, Note_on_c, 0, 59, 78
1, 499933, Note_off_c, 0, 55, 59
1, 499939, Note_off_c, 0, 59, 59
1, 499979, Note_off_c, 0, 43, 56
1, 500006, Note_on_c, 0, 50, 73
1, 500037, Note_off_c, 0, 72, 24
1, 500090, Note_off_c, 0, 50, 56
1, 500186, Note_on_c, 0, 75, 92
1, 500196, Note_on_c, 0, 43, 64
1, 500199, Control_c, 0, 64, 98
1, 500200, Note_on_c, 0, 48, 73
1, 500209, Note_on_c, 0, 63, 56
1, 500209, Note_on_c, 0, 67, 57
1, 500214, Control_c, 0, 64, 65
1, 500229, Control_c, 0, 64, 29
1, 500243, Control_c, 0, 64, 0
1, 500273, Note_off_c, 0, 71, 56
1, 500275, Note_off_c, 0, 63, 61
1, 500295, Control_c, 0, 64, 28
1, 500310, Control_c, 0, 64, 57
1, 500325, Control_c, 0, 64, 76
1, 500330, Note_off_c, 0, 67, 63
1, 500340, Control_c, 0, 64, 127
1, 500342, Note_on_c, 0, 55, 66
1, 500352, Note_off_c, 0, 75, 62
1, 500386, Note_off_c, 0, 55, 59
1, 500473, Note_off_c, 0, 48, 62
1, 500478, Note_on_c, 0, 55, 68
1, 500497, Note_off_c, 0, 43, 60
1, 500513, Note_off_c, 0, 55, 61
1, 500617, Note_on_c, 0, 43, 65
1, 500617, Note_on_c, 0, 74, 98
1, 500621, Control_c, 0, 64, 120
1, 500623, Note_on_c, 0, 53, 70
1, 500636, Control_c, 0, 64, 73
1, 500641, Note_on_c, 0, 62, 62
1, 500641, Note_on_c, 0, 67, 70
1, 500650, Control_c, 0, 64, 50
1, 500665, Control_c, 0, 64, 0
1, 500695, Control_c, 0, 64, 40
1, 500710, Control_c, 0, 64, 63
1, 500725, Control_c, 0, 64, 85
1, 500740, Control_c, 0, 64, 127
1, 500747, Note_off_c, 0, 62, 38
1, 500762, Note_on_c, 0, 55, 76
1, 500785, Note_off_c, 0, 74, 59
1, 500809, Note_off_c, 0, 55, 58
1, 500825, Note_off_c, 0, 67, 60
1, 500893, Note_on_c, 0, 55, 73
1, 500899, Note_off_c, 0, 53, 62
1, 500932, Note_off_c, 0, 43, 56
1, 500957, Note_off_c, 0, 55, 60
1, 501042, Note_on_c, 0, 72, 88
1, 501044, Note_on_c, 0, 43, 72
1, 501050, Note_on_c, 0, 51, 75
1, 501053, Note_on_c, 0, 60, 77
1, 501058, Note_on_c, 0, 67, 74
1, 501073, Control_c, 0, 64, 120
1, 501088, Control_c, 0, 64, 71
1, 501103, Control_c, 0, 64, 45
1, 501118, Control_c, 0, 64, 0
1, 501178, Control_c, 0, 64, 34
1, 501192, Control_c, 0, 64, 59
1, 501193, Note_on_c, 0, 55, 67
1, 501207, Control_c, 0, 64, 79
1, 501222, Control_c, 0, 64, 127
1, 501230, Note_off_c, 0, 55, 58
1, 501264, Note_off_c, 0, 60, 53
1, 501283, Note_off_c, 0, 67, 59
1, 501298, Note_off_c, 0, 72, 55
1, 501324, Note_on_c, 0, 55, 74
1, 501331, Note_off_c, 0, 43, 58
1, 501350, Note_off_c, 0, 51, 63
1, 501373, Note_off_c, 0, 55, 61
1, 501495, Note_on_c, 0, 72, 90
1, 501499, Note_on_c, 0, 51, 84
1, 501503, Note_on_c, 0, 69, 84
1, 501508, Note_on_c, 0, 42, 73
1, 501508, Note_on_c, 0, 60, 71
1, 501533, Control_c, 0, 64, 88
1, 501547, Control_c, 0, 64, 63
1, 501562, Control_c, 0, 64, 34
1, 501577, Control_c, 0, 64, 0
1, 501667, Note_on_c, 0, 54, 76
1, 501667, Control_c, 0, 64, 41
1, 501679, Note_off_c, 0, 72, 60
1, 501682, Control_c, 0, 64, 52
1, 501696, Control_c, 0, 64, 63
1, 501711, Control_c, 0, 64, 74
1, 501713, Note_off_c, 0, 60, 55
1, 501714, Note_off_c, 0, 54, 64
1, 501726, Control_c, 0, 64, 123
1, 501741, Control_c, 0, 64, 127
1, 501771, Note_off_c, 0, 69, 62
1, 501793, Note_off_c, 0, 42, 58
1, 501846, Note_on_c, 0, 54, 76
1, 501863, Note_off_c, 0, 51, 61
1, 501893, Note_off_c, 0, 54, 62
1, 502090, Note_on_c, 0, 72, 86
1, 502102, Note_on_c, 0, 65, 66
1, 502103, Note_on_c, 0, 51, 76
1, 502103, Note_on_c, 0, 69, 70
1, 502105, Note_on_c, 0, 41, 70
1, 502106, Note_on_c, 0, 60, 61
1, 502134, Control_c, 0, 64, 81
1, 502149, Control_c, 0, 64, 58
1, 502163, Control_c, 0, 64, 0
1, 502311, Note_on_c, 0, 53, 73
1, 502370, Note_off_c, 0, 53, 62
1, 502372, Note_off_c, 0, 51, 61
1, 502494, Note_on_c, 0, 53, 61
1, 502530, Note_off_c, 0, 53, 64
1, 502542, Control_c, 0, 67, 37
1, 502557, Control_c, 0, 67, 60
1, 502571, Control_c, 0, 67, 93
1, 502586, Control_c, 0, 67, 121
1, 502601, Control_c, 0, 67, 127
1, 502647, Note_on_c, 0, 51, 76
1, 502675, Control_c, 0, 64, 51
1, 502690, Control_c, 0, 64, 67
1, 502705, Control_c, 0, 64, 81
1, 502719, Control_c, 0, 64, 107
1, 502734, Control_c, 0, 64, 127
1, 502799, Note_on_c, 0, 53, 74
1, 502838, Note_off_c, 0, 51, 61
1, 502843, Note_off_c, 0, 53, 59
1, 502853, Control_c, 0, 64, 82
1, 502868, Control_c, 0, 64, 64
1, 502883, Control_c, 0, 64, 47
1, 502898, Control_c, 0, 64, 29
1, 502913, Control_c, 0, 64, 0
1, 502952, Note_on_c, 0, 53, 71
1, 502982, Note_off_c, 0, 53, 61
1, 503109, Note_on_c, 0, 51, 72
1, 503178, Control_c, 0, 64, 39
1, 503193, Control_c, 0, 64, 55
1, 503208, Control_c, 0, 64, 66
1, 503223, Control_c, 0, 64, 75
1, 503239, Control_c, 0, 64, 87
1, 503241, Note_off_c, 0, 69, 61
1, 503251, Note_off_c, 0, 60, 64
1, 503254, Control_c, 0, 64, 107
1, 503257, Note_on_c, 0, 53, 61
1, 503271, Note_off_c, 0, 65, 58
1, 503276, Control_c, 0, 64, 127
1, 503301, Note_off_c, 0, 53, 60
1, 503404, Note_on_c, 0, 53, 67
1, 503422, Note_off_c, 0, 51, 27
1, 503476, Note_off_c, 0, 41, 45
1, 503539, Note_off_c, 0, 53, 36
1, 503571, Note_on_c, 0, 70, 83
1, 503572, Control_c, 0, 64, 71
1, 503583, Note_on_c, 0, 65, 62
1, 503586, Note_on_c, 0, 58, 54
1, 503587, Control_c, 0, 64, 50
1, 503592, Note_on_c, 0, 41, 58
1, 503595, Note_on_c, 0, 50, 62
1, 503601, Control_c, 0, 64, 31
1, 503631, Control_c, 0, 64, 40
1, 503646, Control_c, 0, 64, 56
1, 503661, Control_c, 0, 64, 70
1, 503676, Control_c, 0, 64, 104
1, 503691, Control_c, 0, 64, 127
1, 503692, Note_off_c, 0, 58, 48
1, 503710, Note_off_c, 0, 72, 56
1, 503733, Note_on_c, 0, 53, 72
1, 503744, Note_off_c, 0, 70, 63
1, 503776, Note_off_c, 0, 50, 60
1, 503809, Control_c, 0, 67, 94
1, 503810, Note_on_c, 0, 69, 83
1, 503817, Note_on_c, 0, 57, 63
1, 503824, Control_c, 0, 67, 57
1, 503830, Note_off_c, 0, 53, 60
1, 503839, Control_c, 0, 67, 0
1, 503850, Note_off_c, 0, 65, 60
1, 503855, Note_off_c, 0, 57, 65
1, 503902, Note_on_c, 0, 48, 77
1, 503935, Note_off_c, 0, 41, 63
1, 503947, Note_off_c, 0, 48, 60
1, 504135, Note_on_c, 0, 74, 91
1, 504141, Note_on_c, 0, 41, 60
1, 504144, Control_c, 0, 64, 92
1, 504145, Note_on_c, 0, 46, 58
1, 504151, Note_on_c, 0, 65, 66
1, 504156, Note_on_c, 0, 62, 45
1, 504159, Control_c, 0, 64, 69
1, 504173, Control_c, 0, 64, 51
1, 504188, Control_c, 0, 64, 0
1, 504245, Note_off_c, 0, 69, 52
1, 504267, Note_off_c, 0, 62, 58
1, 504277, Control_c, 0, 64, 33
1, 504291, Control_c, 0, 64, 54
1, 504306, Control_c, 0, 64, 69
1, 504310, Note_off_c, 0, 74, 62
1, 504319, Note_on_c, 0, 53, 66
1, 504321, Control_c, 0, 64, 83
1, 504336, Control_c, 0, 64, 109
1, 504351, Control_c, 0, 64, 127
1, 504361, Note_off_c, 0, 53, 60
1, 504364, Note_off_c, 0, 65, 62
1, 504472, Note_on_c, 0, 53, 67
1, 504534, Note_off_c, 0, 41, 55
1, 504534, Note_off_c, 0, 53, 56
1, 504559, Note_off_c, 0, 46, 53
1, 504667, Note_on_c, 0, 69, 79
1, 504676, Note_on_c, 0, 41, 61
1, 504677, Note_on_c, 0, 65, 64
1, 504680, Note_on_c, 0, 48, 66
1, 504684, Note_on_c, 0, 57, 53
1, 504721, Control_c, 0, 64, 92
1, 504735, Control_c, 0, 64, 65
1, 504750, Control_c, 0, 64, 34
1, 504773, Control_c, 0, 64, 0
1, 504817, Control_c, 0, 64, 46
1, 504832, Control_c, 0, 64, 68
1, 504842, Note_on_c, 0, 53, 68
1, 504847, Control_c, 0, 64, 97
1, 504862, Control_c, 0, 64, 127
1, 504867, Note_off_c, 0, 57, 62
1, 504885, Note_off_c, 0, 53, 59
1, 504901, Note_off_c, 0, 65, 60
1, 504977, Note_on_c, 0, 53, 75
1, 505008, Note_off_c, 0, 48, 62
1, 505026, Note_off_c, 0, 41, 62
1, 505041, Note_off_c, 0, 53, 56
1, 505121, Note_on_c, 0, 70, 90
1, 505123, Note_on_c, 0, 41, 75
1, 505127, Note_on_c, 0, 50, 76
1, 505133, Note_on_c, 0, 65, 70
1, 505138, Note_on_c, 0, 58, 68
1, 505158, Control_c, 0, 64, 78
1, 505160, Note_off_c, 0, 69, 59
1, 505173, Control_c, 0, 64, 54
1, 505188, Control_c, 0, 64, 0
1, 505232, Control_c, 0, 64, 40
1, 505247, Control_c, 0, 64, 59
1, 505251, Note_off_c, 0, 58, 60
1, 505262, Control_c, 0, 64, 73
1, 505268, Note_on_c, 0, 53, 77
1, 505277, Control_c, 0, 64, 92
1, 505292, Control_c, 0, 64, 127
1, 505308, Note_off_c, 0, 65, 46
1, 505329, Note_off_c, 0, 53, 61
1, 505357, Note_off_c, 0, 70, 64
1, 505407, Note_on_c, 0, 53, 86
1, 505417, Note_off_c, 0, 50, 62
1, 505445, Note_off_c, 0, 41, 61
1, 505473, Note_off_c, 0, 53, 58
1, 505572, Note_on_c, 0, 41, 73
1, 505572, Note_on_c, 0, 51, 77
1, 505576, Note_on_c, 0, 72, 89
1, 505581, Note_on_c, 0, 65, 71
1, 505581, Note_on_c, 0, 69, 79
1, 505586, Note_on_c, 0, 60, 64
1, 505610, Control_c, 0, 64, 82
1, 505625, Control_c, 0, 64, 57
1, 505641, Control_c, 0, 64, 0
1, 505717, Note_off_c, 0, 60, 56
1, 505730, Control_c, 0, 64, 50
1, 505744, Control_c, 0, 64, 67
1, 505745, Note_on_c, 0, 53, 78
1, 505759, Control_c, 0, 64, 85
1, 505762, Note_off_c, 0, 72, 56
1, 505774, Control_c, 0, 64, 127
1, 505814, Note_off_c, 0, 65, 60
1, 505816, Note_off_c, 0, 53, 61
1, 505816, Note_off_c, 0, 69, 56
1, 505908, Note_on_c, 0, 53, 83
1, 505953, Note_off_c, 0, 51, 61
1, 505955, Note_off_c, 0, 41, 62
1, 505958, Note_off_c, 0, 53, 59
1, 506189, Control_c, 0, 64, 106
1, 506192, Note_on_c, 0, 72, 82
1, 506204, Control_c, 0, 64, 77
1, 506204, Control_c, 0, 67, 41
1, 506205, Note_on_c, 0, 69, 75
1, 506212, Note_on_c, 0, 51, 78
1, 506214, Note_on_c, 0, 41, 71
1, 506215, Note_on_c, 0, 65, 58
1, 506219, Control_c, 0, 64, 58
1, 506219, Control_c, 0, 67, 43
1, 506227, Note_on_c, 0, 60, 54
1, 506234, Control_c, 0, 64, 40
1, 506234, Control_c, 0, 67, 50
1, 506249, Control_c, 0, 64, 0
1, 506249, Control_c, 0, 67, 65
1, 506271, Control_c, 0, 67, 85
1, 506286, Control_c, 0, 67, 106
1, 506301, Control_c, 0, 67, 121
1, 506315, Control_c, 0, 67, 127
1, 506435, Control_c, 0, 64, 30
1, 506450, Control_c, 0, 64, 36
1, 506465, Control_c, 0, 64, 44
1, 506480, Control_c, 0, 64, 56
1, 506494, Control_c, 0, 64, 65
1, 506509, Control_c, 0, 64, 71
1, 506524, Control_c, 0, 64, 81
1, 506539, Control_c, 0, 64, 92
1, 506554, Control_c, 0, 64, 113
1, 506568, Control_c, 0, 64, 127
1, 506694, Note_off_c, 0, 41, 32
1, 506767, Note_on_c, 0, 53, 61
1, 506797, Note_off_c, 0, 51, 59
1, 506810, Note_off_c, 0, 53, 57
1, 507035, Note_on_c, 0, 53, 37
1, 507063, Note_off_c, 0, 53, 59
1, 507214, Note_on_c, 0, 53, 40
1, 507244, Note_off_c, 0, 53, 54
1, 507361, Note_on_c, 0, 53, 45
1, 507398, Note_off_c, 0, 53, 54
1, 507509, Note_on_c, 0, 53, 41
1, 507550, Note_off_c, 0, 53, 50
1, 507665, Note_on_c, 0, 53, 35
1, 507700, Note_off_c, 0, 53, 53
1, 507830, Note_on_c, 0, 53, 28
1, 507880, Note_off_c, 0, 53, 52
1, 507998, Note_on_c, 0, 53, 20
1, 508049, Note_off_c, 0, 53, 50
1, 508130, Note_on_c, 0, 53, 45
1, 508164, Note_off_c, 0, 53, 59
1, 508296, Note_off_c, 0, 72, 31
1, 508297, Note_on_c, 0, 53, 41
1, 508336, Note_off_c, 0, 69, 38
1, 508340, Note_off_c, 0, 53, 57
1, 508415, Note_off_c, 0, 60, 38
1, 508433, Note_on_c, 0, 53, 51
1, 508469, Note_off_c, 0, 53, 62
1, 508648, Note_off_c, 0, 65, 0
1, 508684, Note_on_c, 0, 65, 7
1, 508689, Note_on_c, 0, 71, 51
1, 508706, Note_on_c, 0, 68, 42
1, 508709, Control_c, 0, 64, 117
1, 508721, Note_on_c, 0, 59, 27
1, 508722, Note_on_c, 0, 50, 30
1, 508724, Control_c, 0, 64, 86
1, 508731, Note_on_c, 0, 41, 37
1, 508739, Control_c, 0, 64, 71
1, 508754, Control_c, 0, 64, 61
1, 508769, Control_c, 0, 64, 55
1, 508783, Control_c, 0, 64, 56
1, 508798, Control_c, 0, 64, 59
1, 508813, Control_c, 0, 64, 64
1, 508829, Control_c, 0, 64, 70
1, 508845, Control_c, 0, 64, 80
1, 508860, Control_c, 0, 64, 96
1, 508874, Control_c, 0, 64, 113
1, 508889, Control_c, 0, 64, 127
1, 508916, Note_off_c, 0, 41, 52
1, 508939, Note_off_c, 0, 50, 44
1, 508940, Note_on_c, 0, 53, 21
1, 508982, Note_off_c, 0, 53, 53
1, 508997, Note_off_c, 0, 59, 45
1, 509075, Note_on_c, 0, 53, 48
1, 509111, Note_off_c, 0, 53, 49
1, 509245, Note_on_c, 0, 53, 36
1, 509289, Note_off_c, 0, 53, 53
1, 509296, Note_off_c, 0, 71, 44
1, 509312, Note_off_c, 0, 65, 41
1, 509390, Note_on_c, 0, 53, 34
1, 509420, Note_off_c, 0, 68, 53
1, 509421, Note_off_c, 0, 53, 54
1, 509527, Note_on_c, 0, 53, 43
1, 509572, Note_off_c, 0, 53, 53
1, 509714, Note_on_c, 0, 53, 8
1, 509762, Note_off_c, 0, 53, 51
1, 509843, Note_on_c, 0, 53, 35
1, 509891, Note_off_c, 0, 53, 56
1, 510013, Note_on_c, 0, 53, 47
1, 510046, Note_off_c, 0, 53, 56
1, 510204, Note_on_c, 0, 71, 64
1, 510221, Note_on_c, 0, 53, 36
1, 510227, Note_on_c, 0, 68, 40
1, 510247, Note_on_c, 0, 65, 16
1, 510252, Note_off_c, 0, 53, 55
1, 510293, Poly_aftertouch_c, 0, 62, 127
1, 510308, Note_off_c, 0, 65, 42
1, 510321, Poly_aftertouch_c, 0, 62, 0
1, 510345, Note_off_c, 0, 68, 50
1, 510365, Note_off_c, 0, 71, 57
1, 510410, Note_on_c, 0, 53, 3
1, 510452, Note_off_c, 0, 53, 49
1, 510545, Note_on_c, 0, 53, 46
1, 510550, Control_c, 0, 67, 125
1, 510582, Note_off_c, 0, 53, 51
1, 510609, Control_c, 0, 67, 121
1, 510639, Control_c, 0, 67, 110
1, 510653, Control_c, 0, 67, 95
1, 510668, Control_c, 0, 67, 91
1, 510683, Control_c, 0, 67, 87
1, 510697, Control_c, 0, 67, 83
1, 510712, Control_c, 0, 67, 79
1, 510734, Note_on_c, 0, 71, 58
1, 510758, Note_on_c, 0, 68, 43
1, 510764, Control_c, 0, 67, 75
1, 510779, Control_c, 0, 67, 67
1, 510786, Note_on_c, 0, 53, 34
1, 510792, Note_on_c, 0, 65, 12
1, 510794, Control_c, 0, 67, 50
1, 510804, Poly_aftertouch_c, 0, 62, 127
1, 510809, Control_c, 0, 67, 39
1, 510824, Control_c, 0, 67, 33
1, 510839, Control_c, 0, 67, 0
1, 510888, Note_off_c, 0, 65, 0
1, 510925, Poly_aftertouch_c, 0, 65, 127
1, 511068, Poly_aftertouch_c, 0, 44, 127
1, 511107, Poly_aftertouch_c, 0, 44, 0
1, 511159, Poly_aftertouch_c, 0, 62, 0
1, 511214, Note_on_c, 0, 44, 41
1, 511250, Note_off_c, 0, 44, 53
1, 511336, Poly_aftertouch_c, 0, 65, 0
1, 511372, Note_on_c, 0, 44, 49
1, 511420, Note_off_c, 0, 44, 62
1, 511515, Note_off_c, 0, 53, 5
1, 511536, Note_on_c, 0, 44, 54
1, 511558, Note_off_c, 0, 71, 61
1, 511578, Note_off_c, 0, 68, 51
1, 511607, Note_off_c, 0, 44, 62
1, 511685, Note_on_c, 0, 44, 63
1, 511737, Note_off_c, 0, 44, 57
1, 511832, Note_on_c, 0, 44, 63
1, 511872, Note_off_c, 0, 44, 63
1, 511967, Note_on_c, 0, 44, 64
1, 512030, Note_off_c, 0, 44, 62
1, 512102, Note_on_c, 0, 44, 79
1, 512156, Note_off_c, 0, 44, 63
1, 512249, Note_on_c, 0, 44, 84
1, 512258, Note_on_c, 0, 74, 85
1, 512269, Note_on_c, 0, 65, 71
1, 512276, Note_on_c, 0, 71, 72
1, 512298, Note_on_c, 0, 68, 41
1, 512308, Note_off_c, 0, 44, 64
1, 512334, Note_off_c, 0, 68, 49
1, 512371, Note_on_c, 0, 44, 85
1, 512376, Note_off_c, 0, 71, 55
1, 512400, Note_off_c, 0, 65, 34
1, 512401, Note_off_c, 0, 74, 51
1, 512427, Note_off_c, 0, 44, 62
1, 512497, Note_on_c, 0, 44, 82
1, 512593, Note_off_c, 0, 44, 39
1, 512698, Note_on_c, 0, 74, 90
1, 512703, Note_on_c, 0, 44, 90
1, 512705, Note_on_c, 0, 66, 88
1, 512708, Note_on_c, 0, 71, 70
1, 512810, Control_c, 0, 64, 79
1, 512826, Control_c, 0, 64, 59
1, 512841, Control_c, 0, 64, 37
1, 512855, Control_c, 0, 64, 0
1, 512940, Note_on_c, 0, 42, 99
1, 512944, Control_c, 0, 64, 38
1, 512959, Control_c, 0, 64, 62
1, 512960, Note_off_c, 0, 71, 60
1, 512964, Note_off_c, 0, 44, 64
1, 512973, Control_c, 0, 64, 66
1, 512988, Control_c, 0, 64, 64
1, 513011, Control_c, 0, 64, 61
1, 513026, Control_c, 0, 64, 60
1, 513033, Note_off_c, 0, 42, 63
1, 513041, Control_c, 0, 64, 61
1, 513055, Control_c, 0, 64, 67
1, 513070, Control_c, 0, 64, 72
1, 513098, Note_on_c, 0, 42, 98
1, 513114, Control_c, 0, 64, 75
1, 513129, Control_c, 0, 64, 94
1, 513144, Control_c, 0, 64, 127
1, 513152, Note_off_c, 0, 42, 65
1, 513227, Note_on_c, 0, 42, 94
1, 513237, Note_off_c, 0, 66, 57
1, 513286, Note_off_c, 0, 42, 63
1, 513367, Note_on_c, 0, 42, 92
1, 513417, Note_off_c, 0, 42, 60
1, 513506, Note_on_c, 0, 42, 91
1, 513597, Note_off_c, 0, 42, 63
1, 513686, Note_on_c, 0, 42, 101
1, 513696, Note_on_c, 0, 73, 85
1, 513697, Note_on_c, 0, 70, 90
1, 513701, Note_on_c, 0, 66, 86
1, 513775, Note_off_c, 0, 74, 61
1, 513802, Note_off_c, 0, 42, 64
1, 513829, Note_off_c, 0, 66, 65
1, 513847, Note_off_c, 0, 70, 65
1, 513866, Note_off_c, 0, 73, 64
1, 513936, Control_c, 0, 64, 71
1, 513951, Control_c, 0, 64, 0
1, 514380, Control_c, 0, 64, 29
1, 514386, Note_on_c, 0, 82, 89
1, 514386, Note_on_c, 0, 42, 94
1, 514390, Note_on_c, 0, 73, 88
1, 514394, Note_on_c, 0, 78, 84
1, 514395, Control_c, 0, 64, 67
1, 514395, Note_on_c, 0, 76, 86
1, 514410, Control_c, 0, 64, 127
1, 514437, Note_off_c, 0, 73, 65
1, 514469, Note_off_c, 0, 76, 67
1, 514476, Note_off_c, 0, 82, 59
1, 514498, Note_off_c, 0, 78, 63
1, 514500, Note_off_c, 0, 42, 63
1, 514511, Poly_aftertouch_c, 0, 83, 0
1, 514743, Note_on_c, 0, 40, 72
1, 514806, Note_off_c, 0, 40, 60
1, 514830, Note_on_c, 0, 38, 83
1, 514901, Note_on_c, 0, 37, 87
1, 514922, Control_c, 0, 64, 82
1, 514937, Control_c, 0, 64, 58
1, 514951, Control_c, 0, 64, 0
1, 514969, Note_off_c, 0, 38, 62
1, 515000, Note_off_c, 0, 37, 66
1, 515005, Note_on_c, 0, 35, 96
1, 515011, Control_c, 0, 67, 84
1, 515013, Note_on_c, 0, 83, 83
1, 515021, Note_on_c, 0, 74, 86
1, 515023, Note_on_c, 0, 78, 85
1, 515025, Control_c, 0, 67, 127
1, 515040, Control_c, 0, 64, 59
1, 515055, Control_c, 0, 64, 91
1, 515069, Control_c, 0, 64, 127
1, 515140, Note_off_c, 0, 35, 66
1, 515164, Note_off_c, 0, 83, 62
1, 515168, Note_off_c, 0, 78, 56
1, 515188, Note_off_c, 0, 74, 54
1, 515448, Control_c, 0, 64, 106
1, 515452, Note_on_c, 0, 78, 63
1, 515459, Note_on_c, 0, 74, 61
1, 515463, Control_c, 0, 64, 86
1, 515478, Control_c, 0, 64, 72
1, 515492, Control_c, 0, 64, 61
1, 515507, Control_c, 0, 64, 51
1, 515522, Control_c, 0, 64, 46
1, 515537, Control_c, 0, 64, 42
1, 515552, Control_c, 0, 64, 37
1, 515567, Control_c, 0, 64, 33
1, 515582, Note_off_c, 0, 78, 50
1, 515590, Note_off_c, 0, 74, 60
1, 515597, Control_c, 0, 64, 34
1, 515612, Control_c, 0, 64, 36
1, 515627, Control_c, 0, 64, 38
1, 515702, Note_on_c, 0, 78, 56
1, 515714, Note_on_c, 0, 74, 60
1, 515760, Control_c, 0, 64, 39
1, 515775, Control_c, 0, 64, 42
1, 515790, Control_c, 0, 64, 46
1, 515805, Control_c, 0, 64, 51
1, 515809, Note_off_c, 0, 78, 57
1, 515811, Note_off_c, 0, 74, 53
1, 515820, Control_c, 0, 64, 55
1, 515835, Control_c, 0, 64, 60
1, 515849, Control_c, 0, 64, 64
1, 515864, Control_c, 0, 64, 68
1, 515879, Control_c, 0, 64, 71
1, 515893, Control_c, 0, 64, 73
1, 515908, Control_c, 0, 64, 75
1, 515909, Note_on_c, 0, 78, 49
1, 515917, Note_on_c, 0, 74, 52
1, 515923, Control_c, 0, 64, 79
1, 515938, Control_c, 0, 64, 85
1, 515953, Control_c, 0, 64, 94
1, 515967, Control_c, 0, 64, 106
1, 515982, Control_c, 0, 64, 127
1, 516015, Note_off_c, 0, 74, 53
1, 516044, Note_off_c, 0, 78, 34
1, 516094, Note_on_c, 0, 78, 40
1, 516112, Note_on_c, 0, 74, 44
1, 516156, Note_off_c, 0, 78, 55
1, 516163, Note_off_c, 0, 74, 56
1, 516266, Note_on_c, 0, 78, 51
1, 516269, Note_on_c, 0, 74, 57
1, 516309, Note_off_c, 0, 78, 58
1, 516312, Note_off_c, 0, 74, 56
1, 516407, Note_on_c, 0, 78, 49
1, 516428, Note_on_c, 0, 74, 48
1, 516461, Note_off_c, 0, 78, 54
1, 516472, Note_off_c, 0, 74, 50
1, 516560, Note_on_c, 0, 78, 48
1, 516583, Note_on_c, 0, 74, 40
1, 516607, Note_off_c, 0, 78, 57
1, 516614, Note_off_c, 0, 74, 51
1, 516721, Note_on_c, 0, 78, 46
1, 516766, Note_on_c, 0, 74, 28
1, 516824, Note_off_c, 0, 74, 43
1, 516879, Note_off_c, 0, 78, 37
1, 516966, Note_on_c, 0, 83, 60
1, 517000, Note_on_c, 0, 59, 41
1, 517030, Note_on_c, 0, 66, 29
1, 517200, Note_on_c, 0, 78, 41
1, 517212, Note_on_c, 0, 74, 39
1, 517251, Note_off_c, 0, 78, 56
1, 517263, Note_off_c, 0, 74, 46
1, 517272, Note_off_c, 0, 59, 44
1, 517275, Note_off_c, 0, 66, 43
1, 517355, Note_on_c, 0, 78, 52
1, 517421, Poly_aftertouch_c, 0, 74, 127
1, 517434, Note_off_c, 0, 83, 34
1, 517471, Poly_aftertouch_c, 0, 74, 0
1, 517534, Note_off_c, 0, 78, 31
1, 517556, Note_on_c, 0, 83, 65
1, 517569, Note_on_c, 0, 66, 42
1, 517577, Note_on_c, 0, 59, 34
1, 517740, Note_on_c, 0, 78, 56
1, 517749, Note_on_c, 0, 74, 54
1, 517790, Note_off_c, 0, 74, 57
1, 517810, Note_off_c, 0, 78, 48
1, 517868, Note_off_c, 0, 66, 53
1, 517898, Note_on_c, 0, 78, 49
1, 517913, Note_on_c, 0, 74, 46
1, 517982, Note_off_c, 0, 74, 49
1, 518032, Note_on_c, 0, 86, 69
1, 518036, Note_off_c, 0, 78, 37
1, 518082, Note_off_c, 0, 83, 38
1, 518173, Note_on_c, 0, 78, 50
1, 518199, Note_on_c, 0, 74, 51
1, 518209, Note_on_c, 0, 64, 42
1, 518217, Note_off_c, 0, 78, 58
1, 518225, Note_off_c, 0, 74, 55
1, 518302, Note_off_c, 0, 64, 55
1, 518334, Note_on_c, 0, 78, 55
1, 518342, Note_on_c, 0, 74, 32
1, 518397, Note_off_c, 0, 74, 43
1, 518420, Note_off_c, 0, 78, 49
1, 518487, Note_on_c, 0, 83, 71
1, 518506, Note_on_c, 0, 62, 43
1, 518540, Note_off_c, 0, 86, 51
1, 518562, Control_c, 0, 64, 96
1, 518578, Control_c, 0, 64, 72
1, 518592, Control_c, 0, 64, 58
1, 518607, Control_c, 0, 64, 54
1, 518622, Control_c, 0, 64, 57
1, 518637, Control_c, 0, 64, 63
1, 518645, Note_on_c, 0, 78, 60
1, 518652, Control_c, 0, 64, 73
1, 518661, Note_on_c, 0, 74, 56
1, 518667, Control_c, 0, 64, 99
1, 518682, Control_c, 0, 64, 127
1, 518711, Note_off_c, 0, 74, 51
1, 518712, Note_off_c, 0, 78, 57
1, 518779, Note_off_c, 0, 62, 37
1, 518786, Note_off_c, 0, 59, 41
1, 518800, Note_on_c, 0, 74, 47
1, 518801, Note_on_c, 0, 78, 49
1, 518830, Note_off_c, 0, 74, 56
1, 518840, Note_off_c, 0, 78, 58
1, 518933, Note_on_c, 0, 86, 78
1, 518955, Note_on_c, 0, 59, 46
1, 518961, Note_on_c, 0, 62, 38
1, 518998, Note_off_c, 0, 62, 55
1, 519003, Note_off_c, 0, 59, 49
1, 519096, Note_on_c, 0, 78, 61
1, 519119, Note_on_c, 0, 74, 52
1, 519148, Note_off_c, 0, 74, 57
1, 519148, Note_off_c, 0, 78, 59
1, 519230, Note_on_c, 0, 74, 66
1, 519239, Note_on_c, 0, 78, 50
1, 519254, Note_off_c, 0, 74, 64
1, 519259, Note_off_c, 0, 83, 27
1, 519260, Note_off_c, 0, 86, 62
1, 519264, Note_off_c, 0, 78, 55
1, 519394, Note_on_c, 0, 86, 73
1, 519421, Note_on_c, 0, 59, 39
1, 519447, Note_on_c, 0, 62, 22
1, 519481, Note_off_c, 0, 59, 0
1, 519481, Note_on_c, 0, 59, 3
1, 519560, Note_on_c, 0, 83, 64
1, 519564, Control_c, 0, 64, 97
1, 519579, Control_c, 0, 64, 70
1, 519581, Note_on_c, 0, 78, 46
1, 519594, Control_c, 0, 64, 57
1, 519609, Control_c, 0, 64, 50
1, 519616, Note_off_c, 0, 78, 50
1, 519623, Control_c, 0, 64, 51
1, 519634, Note_off_c, 0, 83, 58
1, 519638, Control_c, 0, 64, 55
1, 519653, Control_c, 0, 64, 62
1, 519667, Control_c, 0, 64, 70
1, 519682, Control_c, 0, 64, 86
1, 519694, Note_on_c, 0, 83, 59
1, 519695, Note_on_c, 0, 78, 68
1, 519697, Control_c, 0, 64, 106
1, 519712, Control_c, 0, 64, 127
1, 519809, Note_off_c, 0, 78, 37
1, 519815, Note_off_c, 0, 83, 43
1, 519844, Note_off_c, 0, 86, 63
1, 519845, Note_on_c, 0, 90, 74
1, 519987, Note_on_c, 0, 83, 62
1, 520002, Note_on_c, 0, 78, 52
1, 520014, Note_on_c, 0, 61, 44
1, 520028, Note_off_c, 0, 78, 59
1, 520046, Note_off_c, 0, 83, 59
1, 520047, Note_off_c, 0, 62, 41
1, 520059, Note_off_c, 0, 59, 45
1, 520134, Note_on_c, 0, 83, 57
1, 520146, Note_on_c, 0, 78, 39
1, 520198, Note_off_c, 0, 78, 53
1, 520282, Note_on_c, 0, 59, 51
1, 520287, Note_off_c, 0, 83, 49
1, 520288, Note_on_c, 0, 86, 61
1, 520324, Note_off_c, 0, 90, 52
1, 520327, Control_c, 0, 64, 93
1, 520342, Control_c, 0, 64, 74
1, 520357, Control_c, 0, 64, 61
1, 520360, Note_off_c, 0, 61, 35
1, 520372, Control_c, 0, 64, 49
1, 520387, Control_c, 0, 64, 44
1, 520402, Control_c, 0, 64, 43
1, 520416, Control_c, 0, 64, 45
1, 520431, Control_c, 0, 64, 52
1, 520438, Note_on_c, 0, 83, 38
1, 520446, Control_c, 0, 64, 61
1, 520452, Note_on_c, 0, 78, 36
1, 520461, Control_c, 0, 64, 70
1, 520476, Control_c, 0, 64, 84
1, 520497, Control_c, 0, 64, 104
1, 520499, Note_off_c, 0, 78, 48
1, 520506, Note_off_c, 0, 83, 63
1, 520512, Control_c, 0, 64, 117
1, 520527, Control_c, 0, 64, 127
1, 520541, Note_off_c, 0, 59, 52
1, 520582, Note_on_c, 0, 83, 47
1, 520586, Note_on_c, 0, 78, 48
1, 520621, Note_off_c, 0, 78, 51
1, 520682, Note_off_c, 0, 83, 34
1, 520759, Note_on_c, 0, 90, 66
1, 520780, Note_on_c, 0, 59, 39
1, 520844, Note_off_c, 0, 59, 52
1, 520914, Note_on_c, 0, 83, 50
1, 520917, Note_on_c, 0, 78, 47
1, 520953, Note_off_c, 0, 78, 57
1, 521019, Note_off_c, 0, 83, 0
1, 521042, Note_on_c, 0, 83, 20
1, 521059, Note_on_c, 0, 78, 46
1, 521059, Note_off_c, 0, 90, 58
1, 521084, Note_off_c, 0, 86, 45
1, 521092, Note_off_c, 0, 83, 54
1, 521114, Note_off_c, 0, 78, 58
1, 521248, Note_on_c, 0, 78, 59
1, 521257, Note_on_c, 0, 59, 40
1, 521365, Control_c, 0, 64, 97
1, 521380, Control_c, 0, 64, 73
1, 521394, Control_c, 0, 64, 59
1, 521409, Control_c, 0, 64, 52
1, 521424, Control_c, 0, 64, 54
1, 521433, Note_on_c, 0, 71, 51
1, 521436, Note_on_c, 0, 74, 51
1, 521439, Control_c, 0, 64, 60
1, 521454, Control_c, 0, 64, 67
1, 521469, Control_c, 0, 64, 80
1, 521472, Note_off_c, 0, 71, 55
1, 521484, Control_c, 0, 64, 105
1, 521486, Note_off_c, 0, 74, 55
1, 521499, Control_c, 0, 64, 127
1, 521561, Note_on_c, 0, 74, 43
1, 521576, Note_on_c, 0, 71, 45
1, 521589, Note_off_c, 0, 74, 53
1, 521606, Note_off_c, 0, 71, 52
1, 521629, Note_off_c, 0, 78, 60
1, 521691, Note_off_c, 0, 59, 38
1, 521701, Note_on_c, 0, 61, 51
1, 521705, Note_on_c, 0, 82, 79
1, 521751, Control_c, 0, 64, 117
1, 521766, Control_c, 0, 64, 79
1, 521781, Control_c, 0, 64, 61
1, 521796, Control_c, 0, 64, 49
1, 521810, Control_c, 0, 64, 48
1, 521825, Control_c, 0, 64, 51
1, 521840, Control_c, 0, 64, 59
1, 521848, Note_on_c, 0, 78, 55
1, 521854, Control_c, 0, 64, 66
1, 521866, Note_on_c, 0, 70, 44
1, 521868, Note_on_c, 0, 76, 43
1, 521869, Control_c, 0, 64, 72
1, 521884, Control_c, 0, 64, 79
1, 521899, Control_c, 0, 64, 87
1, 521904, Note_off_c, 0, 70, 61
1, 521908, Note_off_c, 0, 76, 48
1, 521914, Control_c, 0, 64, 101
1, 521916, Note_off_c, 0, 78, 59
1, 521928, Control_c, 0, 64, 127
1, 521995, Note_on_c, 0, 78, 56
1, 521999, Note_on_c, 0, 70, 60
1, 522012, Note_on_c, 0, 76, 50
1, 522035, Note_off_c, 0, 70, 60
1, 522042, Note_off_c, 0, 76, 53
1, 522044, Note_off_c, 0, 82, 54
1, 522072, Note_off_c, 0, 78, 57
1, 522149, Note_off_c, 0, 61, 52
1, 522155, Note_on_c, 0, 83, 79
1, 522157, Note_on_c, 0, 62, 44
1, 522188, Control_c, 0, 64, 121
1, 522203, Control_c, 0, 64, 78
1, 522217, Control_c, 0, 64, 60
1, 522232, Control_c, 0, 64, 46
1, 522262, Control_c, 0, 64, 52
1, 522277, Control_c, 0, 64, 62
1, 522291, Control_c, 0, 64, 73
1, 522306, Note_on_c, 0, 74, 66
1, 522306, Control_c, 0, 64, 90
1, 522311, Note_on_c, 0, 71, 65
1, 522316, Note_on_c, 0, 78, 56
1, 522321, Control_c, 0, 64, 123
1, 522336, Control_c, 0, 64, 127
1, 522357, Note_off_c, 0, 71, 49
1, 522366, Note_off_c, 0, 78, 54
1, 522368, Note_off_c, 0, 74, 61
1, 522437, Note_on_c, 0, 78, 66
1, 522452, Note_off_c, 0, 83, 57
1, 522458, Note_on_c, 0, 71, 47
1, 522483, Note_off_c, 0, 71, 57
1, 522490, Note_off_c, 0, 78, 60
1, 522589, Note_on_c, 0, 85, 88
1, 522612, Note_on_c, 0, 57, 40
1, 522624, Note_on_c, 0, 64, 39
1, 522633, Control_c, 0, 64, 83
1, 522648, Control_c, 0, 64, 60
1, 522663, Control_c, 0, 64, 45
1, 522667, Note_off_c, 0, 62, 49
1, 522677, Control_c, 0, 64, 40
1, 522692, Control_c, 0, 64, 42
1, 522707, Control_c, 0, 64, 51
1, 522722, Control_c, 0, 64, 63
1, 522741, Note_on_c, 0, 81, 61
1, 522742, Note_on_c, 0, 73, 57
1, 522745, Control_c, 0, 64, 72
1, 522751, Note_on_c, 0, 79, 53
1, 522759, Control_c, 0, 64, 86
1, 522773, Note_off_c, 0, 73, 64
1, 522774, Control_c, 0, 64, 96
1, 522783, Note_off_c, 0, 79, 64
1, 522789, Control_c, 0, 64, 108
1, 522792, Note_off_c, 0, 64, 64
1, 522801, Note_off_c, 0, 81, 63
1, 522804, Control_c, 0, 64, 127
1, 522821, Note_off_c, 0, 57, 56
1, 522873, Note_on_c, 0, 81, 59
1, 522876, Note_on_c, 0, 73, 57
1, 522890, Note_on_c, 0, 79, 51
1, 522905, Note_off_c, 0, 85, 55
1, 522916, Note_off_c, 0, 73, 58
1, 522929, Note_off_c, 0, 79, 50
1, 522963, Note_off_c, 0, 81, 61
1, 523025, Note_on_c, 0, 86, 91
1, 523037, Note_on_c, 0, 62, 47
1, 523041, Note_on_c, 0, 66, 52
1, 523070, Control_c, 0, 64, 91
1, 523084, Control_c, 0, 64, 66
1, 523099, Control_c, 0, 64, 47
1, 523114, Control_c, 0, 64, 30
1, 523129, Control_c, 0, 64, 0
1, 523159, Control_c, 0, 64, 38
1, 523162, Note_on_c, 0, 81, 56
1, 523171, Note_on_c, 0, 74, 62
1, 523172, Note_on_c, 0, 78, 56
1, 523174, Control_c, 0, 64, 54
1, 523189, Control_c, 0, 64, 66
1, 523204, Control_c, 0, 64, 78
1, 523215, Note_off_c, 0, 78, 56
1, 523219, Note_off_c, 0, 74, 58
1, 523219, Control_c, 0, 64, 92
1, 523232, Note_off_c, 0, 81, 63
1, 523234, Control_c, 0, 64, 101
1, 523249, Control_c, 0, 64, 111
1, 523263, Control_c, 0, 64, 127
1, 523267, Note_off_c, 0, 66, 39
1, 523309, Note_on_c, 0, 81, 59
1, 523313, Note_off_c, 0, 62, 58
1, 523317, Note_on_c, 0, 74, 57
1, 523317, Note_on_c, 0, 78, 52
1, 523338, Note_off_c, 0, 74, 61
1, 523343, Note_off_c, 0, 78, 60
1, 523350, Note_off_c, 0, 86, 57
1, 523364, Note_off_c, 0, 81, 64
1, 523464, Note_on_c, 0, 88, 86
1, 523470, Note_on_c, 0, 66, 42
1, 523471, Note_on_c, 0, 61, 48
1, 523523, Control_c, 0, 64, 90
1, 523537, Control_c, 0, 64, 66
1, 523552, Control_c, 0, 64, 48
1, 523567, Control_c, 0, 64, 34
1, 523597, Control_c, 0, 64, 40
1, 523600, Note_on_c, 0, 82, 61
1, 523612, Control_c, 0, 64, 55
1, 523617, Note_on_c, 0, 78, 42
1, 523618, Note_on_c, 0, 76, 42
1, 523627, Control_c, 0, 64, 68
1, 523641, Control_c, 0, 64, 83
1, 523653, Note_off_c, 0, 78, 51
1, 523656, Control_c, 0, 64, 98
1, 523660, Note_off_c, 0, 82, 62
1, 523660, Note_off_c, 0, 76, 52
1, 523671, Control_c, 0, 64, 103
1, 523686, Control_c, 0, 64, 107
1, 523701, Control_c, 0, 64, 127
1, 523701, Note_off_c, 0, 66, 39
1, 523728, Note_off_c, 0, 61, 52
1, 523740, Note_on_c, 0, 78, 56
1, 523745, Note_on_c, 0, 82, 56
1, 523757, Note_on_c, 0, 76, 55
1, 523773, Note_off_c, 0, 88, 62
1, 523789, Note_off_c, 0, 78, 55
1, 523796, Note_off_c, 0, 76, 59
1, 523808, Note_off_c, 0, 82, 60
1, 523887, Note_on_c, 0, 86, 75
1, 523898, Note_on_c, 0, 66, 50
1, 523917, Note_on_c, 0, 59, 47
1, 523937, Control_c, 0, 64, 91
1, 523952, Control_c, 0, 64, 66
1, 523967, Control_c, 0, 64, 43
1, 523982, Control_c, 0, 64, 33
1, 523997, Control_c, 0, 64, 35
1, 524012, Control_c, 0, 64, 46
1, 524027, Control_c, 0, 64, 59
1, 524038, Note_on_c, 0, 83, 56
1, 524042, Control_c, 0, 64, 69
1, 524043, Note_on_c, 0, 74, 54
1, 524049, Note_on_c, 0, 78, 49
1, 524056, Control_c, 0, 64, 78
1, 524071, Note_off_c, 0, 74, 53
1, 524071, Control_c, 0, 64, 90
1, 524075, Note_off_c, 0, 78, 57
1, 524086, Control_c, 0, 64, 99
1, 524101, Control_c, 0, 64, 127
1, 524111, Note_off_c, 0, 83, 51
1, 524133, Note_off_c, 0, 66, 57
1, 524165, Note_on_c, 0, 78, 60
1, 524171, Note_on_c, 0, 83, 48
1, 524173, Note_on_c, 0, 74, 62
1, 524198, Note_off_c, 0, 86, 64
1, 524201, Note_off_c, 0, 59, 35
1, 524203, Note_off_c, 0, 74, 63
1, 524211, Note_off_c, 0, 83, 63
1, 524218, Note_off_c, 0, 78, 57
1, 524339, Note_on_c, 0, 85, 80
1, 524349, Note_on_c, 0, 57, 45
1, 524349, Note_on_c, 0, 67, 49
1, 524405, Control_c, 0, 64, 91
1, 524420, Control_c, 0, 64, 66
1, 524435, Control_c, 0, 64, 42
1, 524450, Control_c, 0, 64, 0
1, 524486, Note_on_c, 0, 81, 58
1, 524494, Control_c, 0, 64, 29
1, 524496, Note_on_c, 0, 76, 56
1, 524502, Note_on_c, 0, 73, 52
1, 524509, Control_c, 0, 64, 44
1, 524524, Control_c, 0, 64, 57
1, 524538, Control_c, 0, 64, 67
1, 524542, Note_off_c, 0, 73, 59
1, 524553, Control_c, 0, 64, 80
1, 524556, Note_off_c, 0, 76, 62
1, 524562, Note_off_c, 0, 67, 59
1, 524564, Note_off_c, 0, 57, 63
1, 524566, Note_off_c, 0, 81, 62
1, 524568, Control_c, 0, 64, 103
1, 524582, Control_c, 0, 64, 127
1, 524646, Note_on_c, 0, 73, 53
1, 524646, Note_on_c, 0, 81, 57
1, 524652, Note_on_c, 0, 76, 53
1, 524664, Note_off_c, 0, 73, 64
1, 524674, Note_off_c, 0, 76, 62
1, 524685, Note_off_c, 0, 81, 64
1, 524685, Note_off_c, 0, 85, 62
1, 524861, Note_on_c, 0, 85, 77
1, 524906, Note_on_c, 0, 57, 43
1, 524907, Note_on_c, 0, 67, 45
1, 524939, Control_c, 0, 64, 92
1, 524953, Control_c, 0, 64, 71
1, 524968, Control_c, 0, 64, 54
1, 524991, Control_c, 0, 64, 32
1, 525006, Control_c, 0, 64, 0
1, 525065, Control_c, 0, 64, 32
1, 525073, Note_on_c, 0, 81, 42
1, 525079, Control_c, 0, 64, 46
1, 525094, Control_c, 0, 64, 60
1, 525102, Note_on_c, 0, 73, 23
1, 525108, Note_on_c, 0, 76, 20
1, 525109, Control_c, 0, 64, 67
1, 525124, Control_c, 0, 64, 71
1, 525139, Control_c, 0, 64, 73
1, 525154, Control_c, 0, 64, 76
1, 525159, Note_off_c, 0, 76, 48
1, 525159, Note_off_c, 0, 81, 64
1, 525162, Note_off_c, 0, 73, 44
1, 525168, Control_c, 0, 64, 82
1, 525183, Control_c, 0, 64, 93
1, 525198, Control_c, 0, 64, 127
1, 525246, Note_on_c, 0, 76, 51
1, 525246, Note_on_c, 0, 81, 46
1, 525249, Note_on_c, 0, 73, 45
1, 525280, Note_off_c, 0, 73, 56
1, 525284, Note_off_c, 0, 76, 55
1, 525292, Note_off_c, 0, 81, 64
1, 525332, Note_off_c, 0, 67, 59
1, 525346, Note_off_c, 0, 57, 59
1, 525377, Note_on_c, 0, 76, 56
1, 525384, Note_on_c, 0, 81, 57
1, 525389, Note_on_c, 0, 73, 40
1, 525418, Note_off_c, 0, 73, 55
1, 525418, Note_off_c, 0, 76, 60
1, 525437, Note_off_c, 0, 81, 59
1, 525513, Note_on_c, 0, 73, 54
1, 525519, Note_on_c, 0, 76, 58
1, 525525, Note_on_c, 0, 81, 45
1, 525553, Note_off_c, 0, 76, 60
1, 525562, Note_off_c, 0, 73, 52
1, 525573, Note_off_c, 0, 81, 56
1, 525625, Note_off_c, 0, 85, 0
1, 525645, Note_on_c, 0, 85, 37
1, 525675, Note_on_c, 0, 76, 37
1, 525682, Note_on_c, 0, 81, 37
1, 525687, Note_on_c, 0, 73, 28
1, 525709, Note_off_c, 0, 76, 49
1, 525716, Note_off_c, 0, 81, 53
1, 525720, Note_off_c, 0, 85, 61
1, 525722, Note_off_c, 0, 73, 49
1, 525860, Note_on_c, 0, 85, 63
1, 525863, Note_on_c, 0, 58, 43
1, 525872, Note_on_c, 0, 66, 37
1, 525933, Control_c, 0, 64, 97
1, 525948, Control_c, 0, 64, 74
1, 525963, Control_c, 0, 64, 57
1, 525977, Control_c, 0, 64, 40
1, 525992, Control_c, 0, 64, 30
1, 526022, Control_c, 0, 64, 35
1, 526036, Control_c, 0, 64, 48
1, 526049, Note_on_c, 0, 78, 44
1, 526051, Control_c, 0, 64, 62
1, 526054, Note_on_c, 0, 73, 35
1, 526056, Note_on_c, 0, 76, 26
1, 526065, Control_c, 0, 64, 71
1, 526080, Control_c, 0, 64, 83
1, 526095, Note_off_c, 0, 76, 52
1, 526095, Control_c, 0, 64, 97
1, 526095, Note_off_c, 0, 73, 48
1, 526104, Note_off_c, 0, 78, 52
1, 526109, Control_c, 0, 64, 114
1, 526124, Note_off_c, 0, 66, 55
1, 526124, Control_c, 0, 64, 127
1, 526131, Note_off_c, 0, 58, 57
1, 526196, Note_on_c, 0, 76, 46
1, 526199, Note_on_c, 0, 73, 39
1, 526216, Note_on_c, 0, 78, 22
1, 526253, Note_off_c, 0, 76, 54
1, 526255, Note_off_c, 0, 73, 42
1, 526256, Note_off_c, 0, 78, 51
1, 526343, Note_off_c, 0, 85, 23
1, 526390, Note_on_c, 0, 86, 54
1, 526419, Note_on_c, 0, 59, 33
1, 526423, Note_on_c, 0, 66, 29
1, 526488, Control_c, 0, 64, 99
1, 526503, Control_c, 0, 64, 74
1, 526518, Control_c, 0, 64, 58
1, 526532, Control_c, 0, 64, 46
1, 526547, Control_c, 0, 64, 47
1, 526562, Control_c, 0, 64, 53
1, 526577, Control_c, 0, 64, 63
1, 526590, Note_on_c, 0, 78, 51
1, 526592, Control_c, 0, 64, 76
1, 526603, Note_on_c, 0, 74, 49
1, 526606, Control_c, 0, 64, 99
1, 526621, Control_c, 0, 64, 127
1, 526646, Note_off_c, 0, 74, 53
1, 526649, Note_off_c, 0, 78, 51
1, 526659, Note_off_c, 0, 59, 42
1, 526713, Note_off_c, 0, 66, 39
1, 526754, Note_on_c, 0, 59, 51
1, 526756, Note_on_c, 0, 78, 52
1, 526781, Note_on_c, 0, 74, 18
1, 526969, Note_off_c, 0, 74, 18
1, 526993, Note_off_c, 0, 78, 32
1, 526996, Note_on_c, 0, 83, 61
1, 527102, Note_on_c, 0, 66, 76
1, 527237, Control_c, 0, 64, 96
1, 527252, Control_c, 0, 64, 72
1, 527267, Control_c, 0, 64, 59
1, 527269, Note_on_c, 0, 78, 52
1, 527281, Control_c, 0, 64, 55
1, 527287, Note_on_c, 0, 74, 46
1, 527296, Control_c, 0, 64, 59
1, 527311, Control_c, 0, 64, 65
1, 527317, Note_off_c, 0, 78, 54
1, 527326, Control_c, 0, 64, 75
1, 527327, Note_off_c, 0, 74, 48
1, 527341, Control_c, 0, 64, 99
1, 527355, Control_c, 0, 64, 127
1, 527423, Note_on_c, 0, 78, 50
1, 527428, Note_on_c, 0, 74, 48
1, 527451, Note_off_c, 0, 86, 52
1, 527491, Note_off_c, 0, 83, 41
1, 527526, Note_off_c, 0, 74, 38
1, 527553, Note_off_c, 0, 78, 47
1, 527561, Note_on_c, 0, 86, 65
1, 527690, Note_on_c, 0, 78, 52
1, 527722, Note_on_c, 0, 64, 67
1, 527735, Note_on_c, 0, 74, 33
1, 527738, Note_off_c, 0, 78, 57
1, 527767, Note_off_c, 0, 74, 53
1, 527783, Note_off_c, 0, 66, 63
1, 527856, Note_on_c, 0, 78, 50
1, 527905, Note_off_c, 0, 78, 52
1, 527979, Note_on_c, 0, 62, 70
1, 527996, Note_on_c, 0, 83, 62
1, 528030, Control_c, 0, 64, 97
1, 528045, Control_c, 0, 64, 70
1, 528055, Note_off_c, 0, 86, 57
1, 528060, Control_c, 0, 64, 51
1, 528068, Note_off_c, 0, 64, 59
1, 528074, Control_c, 0, 64, 45
1, 528089, Control_c, 0, 64, 46
1, 528104, Control_c, 0, 64, 55
1, 528119, Control_c, 0, 64, 65
1, 528134, Control_c, 0, 64, 77
1, 528140, Note_on_c, 0, 78, 45
1, 528149, Control_c, 0, 64, 101
1, 528164, Control_c, 0, 64, 127
1, 528169, Note_on_c, 0, 74, 40
1, 528182, Note_off_c, 0, 78, 60
1, 528197, Note_off_c, 0, 74, 50
1, 528260, Note_on_c, 0, 78, 63
1, 528268, Note_off_c, 0, 62, 55
1, 528303, Note_on_c, 0, 74, 26
1, 528303, Note_off_c, 0, 78, 53
1, 528338, Note_off_c, 0, 59, 32
1, 528342, Note_off_c, 0, 74, 51
1, 528394, Note_on_c, 0, 62, 76
1, 528409, Note_on_c, 0, 86, 74
1, 528414, Note_on_c, 0, 59, 60
1, 528498, Note_off_c, 0, 59, 59
1, 528506, Note_off_c, 0, 62, 62
1, 528510, Note_off_c, 0, 83, 0
1, 528543, Note_on_c, 0, 78, 65
1, 528547, Poly_aftertouch_c, 0, 83, 127
1, 528561, Note_on_c, 0, 74, 53
1, 528590, Note_off_c, 0, 78, 56
1, 528591, Note_off_c, 0, 74, 58
1, 528678, Note_on_c, 0, 74, 64
1, 528688, Note_on_c, 0, 78, 57
1, 528691, Poly_aftertouch_c, 0, 83, 0
1, 528704, Note_off_c, 0, 74, 65
1, 528705, Note_off_c, 0, 86, 61
1, 528709, Note_off_c, 0, 78, 58
1, 528846, Note_on_c, 0, 86, 73
1, 528860, Note_on_c, 0, 62, 73
1, 528882, Note_on_c, 0, 59, 59
1, 529001, Control_c, 0, 64, 85
1, 529016, Control_c, 0, 64, 63
1, 529024, Note_on_c, 0, 83, 53
1, 529031, Control_c, 0, 64, 38
1, 529046, Control_c, 0, 64, 0
1, 529052, Note_on_c, 0, 78, 30
1, 529086, Note_off_c, 0, 78, 44
1, 529095, Note_off_c, 0, 83, 57
1, 529105, Control_c, 0, 64, 44
1, 529119, Control_c, 0, 64, 62
1, 529134, Control_c, 0, 64, 75
1, 529140, Note_on_c, 0, 83, 43
1, 529149, Control_c, 0, 64, 89
1, 529156, Note_on_c, 0, 78, 67
1, 529164, Control_c, 0, 64, 105
1, 529179, Control_c, 0, 64, 114
1, 529194, Control_c, 0, 64, 127
1, 529213, Note_off_c, 0, 78, 48
1, 529253, Note_off_c, 0, 83, 59
1, 529282, Note_on_c, 0, 90, 78
1, 529285, Note_off_c, 0, 86, 64
1, 529432, Note_on_c, 0, 83, 63
1, 529434, Note_on_c, 0, 78, 47
1, 529463, Note_off_c, 0, 78, 54
1, 529497, Note_on_c, 0, 61, 61
1, 529499, Note_off_c, 0, 83, 62
1, 529567, Note_off_c, 0, 62, 60
1, 529577, Note_off_c, 0, 59, 59
1, 529608, Note_on_c, 0, 83, 65
1, 529628, Note_on_c, 0, 78, 36
1, 529678, Note_off_c, 0, 78, 47
1, 529768, Note_on_c, 0, 86, 66
1, 529788, Note_on_c, 0, 59, 60
1, 529794, Note_off_c, 0, 83, 38
1, 529794, Control_c, 0, 64, 98
1, 529809, Control_c, 0, 64, 76
1, 529823, Note_off_c, 0, 90, 51
1, 529824, Control_c, 0, 64, 59
1, 529839, Control_c, 0, 64, 34
1, 529854, Control_c, 0, 64, 0
1, 529883, Note_off_c, 0, 61, 63
1, 529908, Note_on_c, 0, 83, 58
1, 529914, Note_on_c, 0, 78, 49
1, 529928, Control_c, 0, 64, 46
1, 529943, Control_c, 0, 64, 62
1, 529950, Note_off_c, 0, 78, 51
1, 529957, Control_c, 0, 64, 74
1, 529972, Control_c, 0, 64, 87
1, 529984, Note_off_c, 0, 83, 59
1, 529987, Control_c, 0, 64, 101
1, 530001, Control_c, 0, 64, 127
1, 530039, Note_on_c, 0, 83, 49
1, 530054, Note_on_c, 0, 78, 47
1, 530055, Note_off_c, 0, 59, 52
1, 530090, Note_off_c, 0, 78, 51
1, 530120, Note_off_c, 0, 83, 50
1, 530182, Note_on_c, 0, 59, 72
1, 530190, Note_on_c, 0, 90, 75
1, 530212, Note_off_c, 0, 59, 66
1, 530342, Note_on_c, 0, 83, 54
1, 530345, Note_on_c, 0, 78, 58
1, 530382, Note_off_c, 0, 78, 58
1, 530441, Note_off_c, 0, 83, 0
1, 530460, Note_on_c, 0, 83, 34
1, 530466, Note_off_c, 0, 86, 59
1, 530477, Note_off_c, 0, 90, 62
1, 530480, Note_on_c, 0, 78, 55
1, 530493, Note_off_c, 0, 83, 55
1, 530522, Note_off_c, 0, 78, 58
1, 530665, Note_on_c, 0, 59, 47
1, 530673, Note_on_c, 0, 78, 69
1, 530780, Control_c, 0, 64, 100
1, 530795, Control_c, 0, 64, 72
1, 530810, Control_c, 0, 64, 49
1, 530824, Control_c, 0, 64, 31
1, 530839, Control_c, 0, 64, 28
1, 530854, Control_c, 0, 64, 35
1, 530858, Note_on_c, 0, 74, 59
1, 530860, Note_on_c, 0, 71, 56
1, 530869, Control_c, 0, 64, 49
1, 530884, Control_c, 0, 64, 63
1, 530898, Control_c, 0, 64, 79
1, 530911, Note_off_c, 0, 71, 54
1, 530913, Control_c, 0, 64, 102
1, 530928, Control_c, 0, 64, 127
1, 530969, Note_off_c, 0, 74, 0
1, 531001, Note_on_c, 0, 74, 14
1, 531043, Note_off_c, 0, 74, 46
1, 531059, Poly_aftertouch_c, 0, 71, 127
1, 531061, Note_off_c, 0, 78, 61
1, 531094, Poly_aftertouch_c, 0, 71, 0
1, 531126, Note_on_c, 0, 61, 55
1, 531128, Note_on_c, 0, 82, 84
1, 531140, Note_off_c, 0, 59, 44
1, 531187, Control_c, 0, 64, 90
1, 531203, Control_c, 0, 64, 66
1, 531218, Control_c, 0, 64, 45
1, 531233, Control_c, 0, 64, 39
1, 531247, Control_c, 0, 64, 42
1, 531262, Control_c, 0, 64, 52
1, 531263, Note_on_c, 0, 78, 64
1, 531270, Note_on_c, 0, 76, 53
1, 531276, Note_on_c, 0, 70, 56
1, 531277, Control_c, 0, 64, 63
1, 531292, Control_c, 0, 64, 73
1, 531304, Note_off_c, 0, 70, 62
1, 531307, Control_c, 0, 64, 86
1, 531319, Note_off_c, 0, 76, 49
1, 531321, Control_c, 0, 64, 104
1, 531330, Note_off_c, 0, 78, 59
1, 531336, Control_c, 0, 64, 127
1, 531394, Note_on_c, 0, 78, 59
1, 531398, Note_on_c, 0, 70, 50
1, 531422, Note_on_c, 0, 76, 42
1, 531432, Note_off_c, 0, 70, 64
1, 531450, Note_off_c, 0, 76, 55
1, 531455, Note_off_c, 0, 82, 56
1, 531467, Note_off_c, 0, 78, 59
1, 531536, Note_off_c, 0, 61, 52
1, 531541, Note_on_c, 0, 83, 81
1, 531544, Note_on_c, 0, 62, 55
1, 531573, Control_c, 0, 64, 101
1, 531588, Control_c, 0, 64, 70
1, 531603, Control_c, 0, 64, 49
1, 531618, Control_c, 0, 64, 0
1, 531647, Control_c, 0, 64, 31
1, 531662, Control_c, 0, 64, 49
1, 531677, Control_c, 0, 64, 65
1, 531684, Note_on_c, 0, 74, 53
1, 531689, Note_on_c, 0, 78, 57
1, 531692, Control_c, 0, 64, 79
1, 531694, Note_on_c, 0, 71, 54
1, 531707, Control_c, 0, 64, 101
1, 531728, Note_off_c, 0, 71, 57
1, 531729, Control_c, 0, 64, 127
1, 531742, Note_off_c, 0, 74, 61
1, 531744, Note_off_c, 0, 78, 55
1, 531814, Note_on_c, 0, 71, 59
1, 531817, Note_on_c, 0, 78, 62
1, 531825, Note_on_c, 0, 74, 44
1, 531845, Note_off_c, 0, 71, 64
1, 531846, Note_off_c, 0, 83, 61
1, 531851, Note_off_c, 0, 74, 54
1, 531863, Note_off_c, 0, 78, 57
1, 531964, Note_on_c, 0, 85, 84
1, 531971, Note_on_c, 0, 64, 53
1, 531974, Note_on_c, 0, 57, 44
1, 531980, Control_c, 0, 64, 98
1, 531996, Control_c, 0, 64, 69
1, 532011, Control_c, 0, 64, 49
1, 532026, Control_c, 0, 64, 0
1, 532072, Note_off_c, 0, 62, 42
1, 532085, Control_c, 0, 64, 31
1, 532100, Control_c, 0, 64, 51
1, 532105, Note_on_c, 0, 81, 59
1, 532115, Control_c, 0, 64, 66
1, 532120, Note_on_c, 0, 73, 42
1, 532122, Note_on_c, 0, 79, 44
1, 532130, Control_c, 0, 64, 80
1, 532141, Note_off_c, 0, 64, 63
1, 532144, Control_c, 0, 64, 93
1, 532147, Note_off_c, 0, 73, 58
1, 532153, Note_off_c, 0, 79, 56
1, 532159, Control_c, 0, 64, 101
1, 532164, Note_off_c, 0, 81, 63
1, 532174, Control_c, 0, 64, 126
1, 532224, Note_off_c, 0, 57, 62
1, 532231, Note_on_c, 0, 73, 60
1, 532237, Note_on_c, 0, 79, 59
1, 532239, Note_on_c, 0, 81, 54
1, 532271, Note_off_c, 0, 85, 59
1, 532280, Note_off_c, 0, 73, 52
1, 532301, Note_off_c, 0, 79, 59
1, 532331, Note_off_c, 0, 81, 61
1, 532383, Note_on_c, 0, 86, 88
1, 532387, Note_on_c, 0, 62, 46
1, 532398, Note_on_c, 0, 66, 49
1, 532411, Control_c, 0, 64, 102
1, 532426, Control_c, 0, 64, 73
1, 532441, Control_c, 0, 64, 50
1, 532456, Control_c, 0, 64, 0
1, 532529, Note_on_c, 0, 78, 65
1, 532537, Control_c, 0, 64, 40
1, 532538, Note_on_c, 0, 81, 56
1, 532539, Note_on_c, 0, 74, 62
1, 532552, Control_c, 0, 64, 60
1, 532567, Control_c, 0, 64, 71
1, 532578, Note_off_c, 0, 78, 49
1, 532582, Control_c, 0, 64, 83
1, 532590, Note_off_c, 0, 74, 46
1, 532596, Control_c, 0, 64, 99
1, 532596, Note_off_c, 0, 81, 62
1, 532599, Note_off_c, 0, 66, 47
1, 532611, Control_c, 0, 64, 127
1, 532674, Note_on_c, 0, 78, 66
1, 532675, Note_on_c, 0, 81, 55
1, 532676, Note_off_c, 0, 62, 59
1, 532677, Note_on_c, 0, 74, 49
1, 532715, Note_off_c, 0, 74, 49
1, 532717, Note_off_c, 0, 86, 57
1, 532724, Note_off_c, 0, 78, 55
1, 532734, Note_off_c, 0, 81, 64
1, 532812, Note_on_c, 0, 88, 88
1, 532815, Note_on_c, 0, 66, 56
1, 532817, Note_on_c, 0, 61, 52
1, 532864, Control_c, 0, 64, 81
1, 532879, Control_c, 0, 64, 61
1, 532893, Control_c, 0, 64, 40
1, 532908, Control_c, 0, 64, 0
1, 532938, Control_c, 0, 64, 33
1, 532948, Note_on_c, 0, 82, 61
1, 532953, Control_c, 0, 64, 52
1, 532955, Note_on_c, 0, 78, 50
1, 532957, Note_on_c, 0, 76, 52
1, 532967, Control_c, 0, 64, 64
1, 532971, Note_off_c, 0, 66, 52
1, 532982, Note_off_c, 0, 78, 53
1, 532982, Control_c, 0, 64, 74
1, 532987, Note_off_c, 0, 82, 55
1, 532990, Note_off_c, 0, 76, 49
1, 532997, Control_c, 0, 64, 86
1, 533011, Control_c, 0, 64, 97
1, 533026, Control_c, 0, 64, 105
1, 533041, Control_c, 0, 64, 116
1, 533056, Control_c, 0, 64, 127
1, 533085, Note_off_c, 0, 61, 56
1, 533086, Note_on_c, 0, 78, 48
1, 533087, Note_on_c, 0, 82, 62
1, 533090, Note_on_c, 0, 76, 57
1, 533124, Note_off_c, 0, 78, 61
1, 533126, Note_off_c, 0, 76, 53
1, 533126, Note_off_c, 0, 88, 62
1, 533135, Note_off_c, 0, 82, 56
1, 533238, Note_on_c, 0, 86, 80
1, 533239, Note_on_c, 0, 66, 49
1, 533240, Note_on_c, 0, 59, 53
1, 533286, Control_c, 0, 64, 82
1, 533300, Control_c, 0, 64, 63
1, 533315, Control_c, 0, 64, 46
1, 533330, Control_c, 0, 64, 30
1, 533345, Control_c, 0, 64, 0
1, 533374, Control_c, 0, 64, 34
1, 533389, Control_c, 0, 64, 48
1, 533401, Note_on_c, 0, 78, 48
1, 533401, Note_on_c, 0, 83, 56
1, 533404, Control_c, 0, 64, 61
1, 533414, Note_on_c, 0, 74, 40
1, 533419, Control_c, 0, 64, 69
1, 533434, Control_c, 0, 64, 79
1, 533443, Note_off_c, 0, 78, 53
1, 533446, Note_off_c, 0, 74, 51
1, 533448, Note_off_c, 0, 66, 60
1, 533449, Control_c, 0, 64, 88
1, 533464, Control_c, 0, 64, 99
1, 533464, Note_off_c, 0, 83, 58
1, 533479, Control_c, 0, 64, 126
1, 533533, Note_on_c, 0, 78, 60
1, 533533, Note_off_c, 0, 59, 37
1, 533540, Note_on_c, 0, 74, 58
1, 533548, Note_on_c, 0, 83, 31
1, 533561, Note_off_c, 0, 86, 61
1, 533577, Note_off_c, 0, 74, 62
1, 533579, Note_off_c, 0, 83, 57
1, 533593, Note_off_c, 0, 78, 60
1, 533697, Note_on_c, 0, 85, 78
1, 533699, Note_on_c, 0, 67, 53
1, 533707, Note_on_c, 0, 57, 39
1, 533761, Control_c, 0, 64, 102
1, 533776, Control_c, 0, 64, 73
1, 533790, Control_c, 0, 64, 53
1, 533805, Control_c, 0, 64, 0
1, 533860, Note_on_c, 0, 76, 55
1, 533863, Note_on_c, 0, 81, 50
1, 533864, Control_c, 0, 64, 40
1, 533866, Note_on_c, 0, 73, 46
1, 533879, Control_c, 0, 64, 54
1, 533894, Control_c, 0, 64, 63
1, 533897, Note_off_c, 0, 73, 56
1, 533900, Note_off_c, 0, 67, 58
1, 533907, Note_off_c, 0, 57, 62
1, 533908, Control_c, 0, 64, 69
1, 533909, Note_off_c, 0, 76, 60
1, 533923, Control_c, 0, 64, 76
1, 533931, Note_off_c, 0, 81, 61
1, 533938, Control_c, 0, 64, 87
1, 533953, Control_c, 0, 64, 106
1, 533975, Control_c, 0, 64, 127
1, 534019, Note_on_c, 0, 73, 39
1, 534027, Note_on_c, 0, 81, 46
1, 534039, Note_on_c, 0, 76, 31
1, 534049, Note_off_c, 0, 73, 53
1, 534066, Note_off_c, 0, 81, 60
1, 534066, Note_off_c, 0, 85, 64
1, 534074, Note_off_c, 0, 76, 54
1, 534227, Note_on_c, 0, 85, 76
1, 534239, Note_on_c, 0, 67, 43
1, 534251, Note_on_c, 0, 57, 36
1, 534272, Control_c, 0, 64, 97
1, 534287, Control_c, 0, 64, 76
1, 534302, Control_c, 0, 64, 60
1, 534316, Control_c, 0, 64, 40
1, 534331, Control_c, 0, 64, 0
1, 534391, Control_c, 0, 64, 29
1, 534406, Control_c, 0, 64, 43
1, 534412, Note_on_c, 0, 76, 49
1, 534419, Note_on_c, 0, 73, 45
1, 534421, Control_c, 0, 64, 55
1, 534421, Note_on_c, 0, 81, 42
1, 534436, Control_c, 0, 64, 64
1, 534451, Control_c, 0, 64, 71
1, 534459, Note_off_c, 0, 73, 58
1, 534460, Note_off_c, 0, 76, 58
1, 534465, Control_c, 0, 64, 78
1, 534478, Note_off_c, 0, 81, 54
1, 534480, Control_c, 0, 64, 82
1, 534495, Control_c, 0, 64, 86
1, 534510, Control_c, 0, 64, 93
1, 534525, Control_c, 0, 64, 106
1, 534539, Control_c, 0, 64, 127
1, 534561, Note_on_c, 0, 73, 45
1, 534569, Note_on_c, 0, 76, 57
1, 534581, Note_on_c, 0, 81, 35
1, 534605, Note_off_c, 0, 76, 60
1, 534607, Note_off_c, 0, 73, 49
1, 534625, Note_off_c, 0, 81, 47
1, 534648, Note_off_c, 0, 57, 62
1, 534685, Note_off_c, 0, 67, 56
1, 534728, Note_on_c, 0, 76, 48
1, 534737, Note_on_c, 0, 73, 41
1, 534758, Note_on_c, 0, 81, 32
1, 534771, Note_off_c, 0, 73, 50
1, 534771, Note_off_c, 0, 76, 49
1, 534794, Note_off_c, 0, 81, 51
1, 534842, Note_off_c, 0, 85, 0
1, 534879, Poly_aftertouch_c, 0, 85, 127
1, 534899, Note_on_c, 0, 73, 41
1, 534902, Note_on_c, 0, 76, 40
1, 534928, Note_on_c, 0, 81, 3
1, 534945, Note_off_c, 0, 73, 58
1, 534950, Note_off_c, 0, 76, 59
1, 534967, Note_off_c, 0, 81, 52
1, 535011, Poly_aftertouch_c, 0, 85, 0
1, 535049, Poly_aftertouch_c, 0, 85, 127
1, 535053, Note_on_c, 0, 73, 37
1, 535082, Note_on_c, 0, 76, 13
1, 535085, Note_off_c, 0, 73, 51
1, 535129, Note_off_c, 0, 76, 48
1, 535190, Poly_aftertouch_c, 0, 85, 0
1, 535237, Note_on_c, 0, 62, 32
1, 535260, Note_on_c, 0, 86, 53
1, 535267, Note_on_c, 0, 66, 32
1, 535288, Control_c, 0, 64, 83
1, 535303, Control_c, 0, 64, 63
1, 535318, Control_c, 0, 64, 44
1, 535333, Control_c, 0, 64, 28
1, 535348, Control_c, 0, 64, 0
1, 535363, Control_c, 0, 64, 27
1, 535378, Control_c, 0, 64, 39
1, 535393, Control_c, 0, 64, 56
1, 535407, Control_c, 0, 64, 66
1, 535422, Control_c, 0, 64, 77
1, 535437, Control_c, 0, 64, 93
1, 535449, Note_off_c, 0, 86, 64
1, 535449, Note_off_c, 0, 66, 38
1, 535452, Control_c, 0, 64, 109
1, 535464, Note_on_c, 0, 69, 46
1, 535474, Control_c, 0, 64, 127
1, 535490, Note_off_c, 0, 62, 41
1, 535504, Note_off_c, 0, 69, 61
1, 535659, Note_on_c, 0, 69, 51
1, 535699, Note_off_c, 0, 69, 59
1, 535909, Note_on_c, 0, 81, 76
1, 535928, Note_on_c, 0, 69, 43
1, 535932, Control_c, 0, 64, 88
1, 535947, Control_c, 0, 64, 67
1, 535962, Control_c, 0, 64, 52
1, 535977, Control_c, 0, 64, 43
1, 535993, Control_c, 0, 64, 45
1, 536008, Control_c, 0, 64, 55
1, 536023, Control_c, 0, 64, 64
1, 536037, Control_c, 0, 64, 73
1, 536052, Control_c, 0, 64, 83
1, 536067, Control_c, 0, 64, 93
1, 536074, Note_off_c, 0, 69, 35
1, 536082, Control_c, 0, 64, 104
1, 536097, Control_c, 0, 64, 127
1, 536165, Note_on_c, 0, 69, 40
1, 536251, Note_off_c, 0, 69, 34
1, 536270, Note_off_c, 0, 81, 64
1, 536399, Note_on_c, 0, 69, 31
1, 536715, Note_on_c, 0, 81, 63
1, 536744, Note_on_c, 0, 63, 26
1, 536790, Note_off_c, 0, 69, 38
1, 536889, Control_c, 0, 67, 125
1, 536983, Note_on_c, 0, 69, 36
1, 537059, Control_c, 0, 67, 127
1, 537109, Note_off_c, 0, 63, 38
1, 537181, Note_on_c, 0, 66, 32
1, 537189, Note_off_c, 0, 69, 36
1, 537338, Note_on_c, 0, 69, 31
1, 537342, Note_off_c, 0, 66, 39
1, 537450, Note_off_c, 0, 69, 53
1, 537467, Note_on_c, 0, 63, 32
1, 537542, Note_off_c, 0, 63, 38
1, 537589, Note_on_c, 0, 69, 36
1, 537631, Note_off_c, 0, 69, 48
1, 537648, Note_on_c, 0, 79, 52
1, 537674, Note_off_c, 0, 81, 39
1, 537676, Note_on_c, 0, 66, 41
1, 537715, Note_off_c, 0, 66, 54
1, 537752, Note_on_c, 0, 69, 43
1, 537832, Note_off_c, 0, 69, 57
1, 537874, Note_on_c, 0, 78, 64
1, 537879, Note_on_c, 0, 63, 40
1, 537890, Note_off_c, 0, 79, 50
1, 537953, Note_off_c, 0, 63, 36
1, 537977, Note_on_c, 0, 69, 41
1, 537982, Note_off_c, 0, 78, 60
1, 538028, Note_off_c, 0, 69, 60
1, 538058, Note_on_c, 0, 66, 51
1, 538107, Note_off_c, 0, 66, 58
1, 538135, Note_on_c, 0, 69, 53
1, 538212, Note_off_c, 0, 69, 37
1, 538251, Note_on_c, 0, 78, 79
1, 538260, Note_on_c, 0, 62, 51
1, 538269, Control_c, 0, 64, 89
1, 538283, Control_c, 0, 64, 67
1, 538298, Control_c, 0, 64, 54
1, 538313, Control_c, 0, 64, 49
1, 538328, Control_c, 0, 64, 52
1, 538342, Control_c, 0, 64, 57
1, 538357, Control_c, 0, 64, 65
1, 538372, Control_c, 0, 64, 74
1, 538388, Control_c, 0, 64, 93
1, 538403, Control_c, 0, 64, 127
1, 538403, Note_on_c, 0, 69, 30
1, 538417, Note_off_c, 0, 62, 54
1, 538464, Note_off_c, 0, 69, 58
1, 538472, Note_off_c, 0, 78, 60
1, 538508, Note_on_c, 0, 66, 19
1, 538578, Note_off_c, 0, 66, 43
1, 538582, Note_on_c, 0, 69, 49
1, 538722, Note_off_c, 0, 69, 38
1, 538750, Note_on_c, 0, 60, 41
1, 538752, Note_on_c, 0, 78, 33
1, 538797, Note_off_c, 0, 78, 0
1, 538797, Note_on_c, 0, 78, 19
1, 538824, Control_c, 0, 64, 112
1, 538838, Control_c, 0, 64, 78
1, 538845, Note_on_c, 0, 69, 40
1, 538853, Control_c, 0, 64, 60
1, 538868, Control_c, 0, 64, 39
1, 538883, Control_c, 0, 64, 33
1, 538898, Control_c, 0, 64, 36
1, 538912, Control_c, 0, 64, 47
1, 538927, Control_c, 0, 64, 60
1, 538942, Control_c, 0, 64, 68
1, 538952, Note_off_c, 0, 69, 37
1, 538956, Control_c, 0, 64, 77
1, 538971, Control_c, 0, 64, 89
1, 538981, Note_on_c, 0, 66, 41
1, 538986, Control_c, 0, 64, 102
1, 539001, Control_c, 0, 64, 127
1, 539026, Note_off_c, 0, 60, 35
1, 539060, Note_on_c, 0, 69, 53
1, 539101, Note_off_c, 0, 66, 34
1, 539104, Note_off_c, 0, 69, 55
1, 539148, Note_on_c, 0, 60, 51
1, 539224, Note_off_c, 0, 60, 47
1, 539250, Note_on_c, 0, 69, 47
1, 539306, Note_off_c, 0, 69, 55
1, 539352, Note_on_c, 0, 76, 57
1, 539356, Note_on_c, 0, 66, 46
1, 539432, Note_off_c, 0, 66, 48
1, 539446, Note_on_c, 0, 69, 41
1, 539530, Note_off_c, 0, 69, 53
1, 539533, Note_off_c, 0, 76, 63
1, 539547, Note_on_c, 0, 75, 67
1, 539554, Note_on_c, 0, 60, 47
1, 539640, Note_off_c, 0, 78, 41
1, 539661, Control_c, 0, 64, 95
1, 539673, Note_on_c, 0, 69, 34
1, 539676, Control_c, 0, 64, 77
1, 539691, Control_c, 0, 64, 70
1, 539705, Control_c, 0, 64, 69
1, 539720, Control_c, 0, 64, 76
1, 539722, Note_off_c, 0, 69, 45
1, 539733, Note_off_c, 0, 60, 50
1, 539735, Control_c, 0, 64, 94
1, 539750, Control_c, 0, 64, 127
1, 539756, Note_on_c, 0, 66, 40
1, 539795, Note_off_c, 0, 75, 61
1, 539843, Note_on_c, 0, 69, 33
1, 539876, Note_off_c, 0, 66, 36
1, 539996, Note_off_c, 0, 69, 35
1, 540001, Note_on_c, 0, 75, 69
1, 540019, Note_on_c, 0, 59, 42
1, 540025, Control_c, 0, 64, 82
1, 540040, Control_c, 0, 64, 62
1, 540055, Control_c, 0, 64, 43
1, 540070, Control_c, 0, 64, 31
1, 540099, Control_c, 0, 64, 39
1, 540114, Control_c, 0, 64, 53
1, 540129, Control_c, 0, 64, 64
1, 540135, Note_on_c, 0, 69, 31
1, 540143, Control_c, 0, 64, 72
1, 540158, Control_c, 0, 64, 80
1, 540173, Control_c, 0, 64, 90
1, 540188, Control_c, 0, 64, 101
1, 540203, Control_c, 0, 64, 127
1, 540218, Note_off_c, 0, 69, 54
1, 540242, Note_on_c, 0, 66, 44
1, 540248, Note_off_c, 0, 59, 36
1, 540260, Note_off_c, 0, 75, 59
1, 540321, Note_off_c, 0, 66, 49
1, 540342, Note_on_c, 0, 69, 35
1, 540403, Note_off_c, 0, 69, 53
1, 540436, Note_on_c, 0, 75, 66
1, 540439, Note_on_c, 0, 59, 46
1, 540454, Control_c, 0, 64, 102
1, 540469, Control_c, 0, 64, 89
1, 540484, Control_c, 0, 64, 85
1, 540499, Control_c, 0, 64, 86
1, 540514, Control_c, 0, 64, 95
1, 540528, Control_c, 0, 64, 127
1, 540537, Note_on_c, 0, 69, 44
1, 540614, Note_off_c, 0, 69, 46
1, 540638, Note_on_c, 0, 66, 47
1, 540654, Note_off_c, 0, 59, 40
1, 540746, Note_off_c, 0, 75, 58
1, 540749, Note_on_c, 0, 69, 47
1, 540759, Note_off_c, 0, 66, 49
1, 540791, Note_off_c, 0, 69, 61
1, 540830, Note_on_c, 0, 76, 72
1, 540848, Control_c, 0, 64, 118
1, 540854, Note_on_c, 0, 59, 46
1, 540862, Control_c, 0, 64, 79
1, 540877, Control_c, 0, 64, 63
1, 540892, Control_c, 0, 64, 54
1, 540907, Control_c, 0, 64, 55
1, 540922, Control_c, 0, 64, 62
1, 540937, Control_c, 0, 64, 71
1, 540946, Note_on_c, 0, 67, 56
1, 540951, Control_c, 0, 64, 94
1, 540966, Control_c, 0, 64, 127
1, 540988, Note_off_c, 0, 59, 37
1, 541006, Note_off_c, 0, 67, 58
1, 541044, Note_on_c, 0, 64, 42
1, 541130, Note_on_c, 0, 67, 57
1, 541143, Note_off_c, 0, 64, 58
1, 541146, Note_off_c, 0, 76, 63
1, 541168, Note_off_c, 0, 67, 62
1, 541206, Note_on_c, 0, 78, 80
1, 541216, Note_on_c, 0, 59, 61
1, 541218, Control_c, 0, 64, 94
1, 541232, Control_c, 0, 64, 69
1, 541243, Note_on_c, 0, 75, 45
1, 541247, Control_c, 0, 64, 56
1, 541262, Control_c, 0, 64, 53
1, 541277, Control_c, 0, 64, 57
1, 541292, Control_c, 0, 64, 65
1, 541301, Note_off_c, 0, 59, 59
1, 541307, Control_c, 0, 64, 84
1, 541313, Note_off_c, 0, 75, 0
1, 541313, Note_on_c, 0, 75, 7
1, 541322, Control_c, 0, 64, 127
1, 541337, Note_on_c, 0, 66, 57
1, 541360, Poly_aftertouch_c, 0, 71, 127
1, 541383, Note_off_c, 0, 66, 58
1, 541393, Note_off_c, 0, 75, 60
1, 541393, Note_off_c, 0, 78, 60
1, 541414, Note_on_c, 0, 63, 63
1, 541422, Poly_aftertouch_c, 0, 71, 0
1, 541491, Note_off_c, 0, 63, 47
1, 541504, Note_on_c, 0, 66, 63
1, 541552, Note_off_c, 0, 66, 55
1, 541583, Note_on_c, 0, 79, 81
1, 541606, Note_on_c, 0, 59, 64
1, 541611, Control_c, 0, 64, 113
1, 541626, Note_on_c, 0, 76, 24
1, 541626, Note_on_c, 0, 71, 17
1, 541626, Control_c, 0, 64, 71
1, 541641, Control_c, 0, 64, 54
1, 541655, Control_c, 0, 64, 45
1, 541670, Control_c, 0, 64, 48
1, 541685, Control_c, 0, 64, 58
1, 541687, Note_on_c, 0, 67, 58
1, 541700, Control_c, 0, 64, 70
1, 541715, Control_c, 0, 64, 94
1, 541730, Control_c, 0, 64, 127
1, 541751, Note_off_c, 0, 67, 58
1, 541766, Note_off_c, 0, 59, 35
1, 541769, Note_on_c, 0, 64, 64
1, 541813, Note_off_c, 0, 76, 41
1, 541867, Note_off_c, 0, 71, 20
1, 541868, Note_on_c, 0, 67, 61
1, 541871, Note_off_c, 0, 79, 59
1, 541876, Note_off_c, 0, 64, 56
1, 541909, Note_off_c, 0, 67, 59
1, 541948, Note_on_c, 0, 81, 85
1, 541953, Note_on_c, 0, 59, 66
1, 541953, Control_c, 0, 64, 109
1, 541965, Note_on_c, 0, 78, 71
1, 541968, Control_c, 0, 64, 75
1, 541975, Note_on_c, 0, 71, 62
1, 541982, Control_c, 0, 64, 56
1, 541997, Control_c, 0, 64, 38
1, 542012, Control_c, 0, 64, 32
1, 542027, Control_c, 0, 64, 38
1, 542042, Control_c, 0, 64, 54
1, 542052, Note_off_c, 0, 71, 0
1, 542056, Control_c, 0, 64, 71
1, 542058, Note_on_c, 0, 69, 58
1, 542071, Control_c, 0, 64, 104
1, 542080, Note_on_c, 0, 71, 28
1, 542086, Control_c, 0, 64, 127
1, 542131, Note_off_c, 0, 69, 59
1, 542140, Note_off_c, 0, 71, 52
1, 542141, Note_off_c, 0, 59, 63
1, 542150, Note_on_c, 0, 66, 59
1, 542183, Note_off_c, 0, 78, 47
1, 542234, Note_off_c, 0, 81, 61
1, 542242, Note_off_c, 0, 66, 57
1, 542246, Note_on_c, 0, 69, 59
1, 542288, Note_off_c, 0, 69, 56
1, 542323, Note_on_c, 0, 81, 88
1, 542330, Note_on_c, 0, 60, 64
1, 542330, Control_c, 0, 64, 87
1, 542339, Note_on_c, 0, 78, 65
1, 542345, Control_c, 0, 64, 63
1, 542360, Control_c, 0, 64, 43
1, 542376, Control_c, 0, 64, 31
1, 542383, Note_on_c, 0, 72, 9
1, 542391, Control_c, 0, 64, 35
1, 542405, Control_c, 0, 64, 50
1, 542418, Note_on_c, 0, 69, 55
1, 542420, Control_c, 0, 64, 64
1, 542435, Control_c, 0, 64, 77
1, 542450, Control_c, 0, 64, 98
1, 542457, Note_off_c, 0, 60, 58
1, 542465, Control_c, 0, 64, 121
1, 542479, Control_c, 0, 64, 127
1, 542498, Note_on_c, 0, 66, 62
1, 542501, Note_off_c, 0, 72, 36
1, 542505, Note_off_c, 0, 69, 52
1, 542535, Note_off_c, 0, 78, 57
1, 542567, Note_off_c, 0, 81, 49
1, 542574, Note_off_c, 0, 66, 41
1, 542597, Note_on_c, 0, 69, 52
1, 542653, Note_off_c, 0, 69, 52
1, 542699, Note_on_c, 0, 61, 51
1, 542701, Note_on_c, 0, 81, 62
1, 542716, Control_c, 0, 64, 82
1, 542717, Note_on_c, 0, 78, 52
1, 542730, Control_c, 0, 64, 60
1, 542745, Control_c, 0, 64, 0
1, 542788, Note_on_c, 0, 69, 48
1, 542790, Poly_aftertouch_c, 0, 73, 127
1, 542790, Control_c, 0, 64, 38
1, 542803, Note_off_c, 0, 78, 0
1, 542803, Note_on_c, 0, 78, 9
1, 542804, Control_c, 0, 64, 56
1, 542819, Control_c, 0, 64, 67
1, 542834, Control_c, 0, 64, 75
1, 542849, Control_c, 0, 64, 85
1, 542853, Note_off_c, 0, 69, 49
1, 542864, Control_c, 0, 64, 96
1, 542869, Note_off_c, 0, 61, 59
1, 542878, Note_on_c, 0, 66, 55
1, 542878, Control_c, 0, 64, 127
1, 542912, Poly_aftertouch_c, 0, 73, 0
1, 542940, Note_off_c, 0, 78, 40
1, 542943, Note_off_c, 0, 81, 50
1, 542974, Note_off_c, 0, 66, 52
1, 542982, Note_on_c, 0, 69, 52
1, 543031, Note_off_c, 0, 69, 52
1, 543081, Note_on_c, 0, 81, 58
1, 543083, Note_on_c, 0, 62, 52
1, 543108, Control_c, 0, 64, 102
1, 543110, Note_on_c, 0, 78, 21
1, 543123, Control_c, 0, 64, 71
1, 543137, Control_c, 0, 64, 51
1, 543152, Control_c, 0, 64, 0
1, 543158, Note_off_c, 0, 78, 46
1, 543179, Note_on_c, 0, 69, 49
1, 543198, Control_c, 0, 64, 40
1, 543213, Control_c, 0, 64, 60
1, 543227, Control_c, 0, 64, 76
1, 543235, Note_off_c, 0, 69, 55
1, 543242, Control_c, 0, 64, 105
1, 543257, Control_c, 0, 64, 127
1, 543263, Note_off_c, 0, 62, 54
1, 543274, Note_on_c, 0, 66, 55
1, 543310, Note_off_c, 0, 81, 62
1, 543359, Note_on_c, 0, 69, 54
1, 543378, Note_off_c, 0, 66, 44
1, 543453, Note_off_c, 0, 69, 57
1, 543469, Note_on_c, 0, 62, 54
1, 543470, Note_on_c, 0, 81, 56
1, 543539, Control_c, 0, 64, 108
1, 543553, Control_c, 0, 64, 79
1, 543561, Note_on_c, 0, 69, 60
1, 543568, Control_c, 0, 64, 67
1, 543583, Control_c, 0, 64, 60
1, 543598, Control_c, 0, 64, 55
1, 543613, Control_c, 0, 64, 51
1, 543627, Control_c, 0, 64, 46
1, 543635, Note_off_c, 0, 69, 38
1, 543642, Control_c, 0, 64, 43
1, 543657, Control_c, 0, 64, 42
1, 543668, Note_on_c, 0, 66, 46
1, 543687, Control_c, 0, 64, 42
1, 543708, Note_off_c, 0, 62, 35
1, 543709, Control_c, 0, 64, 39
1, 543724, Control_c, 0, 64, 36
1, 543739, Control_c, 0, 64, 32
1, 543753, Control_c, 0, 64, 29
1, 543755, Note_on_c, 0, 69, 56
1, 543768, Control_c, 0, 64, 0
1, 543784, Note_off_c, 0, 66, 44
1, 543837, Note_off_c, 0, 69, 57
1, 543848, Note_on_c, 0, 63, 55
1, 543891, Note_off_c, 0, 81, 61
1, 543909, Note_on_c, 0, 82, 54
1, 543914, Note_off_c, 0, 63, 44
1, 543942, Note_on_c, 0, 69, 45
1, 544004, Note_off_c, 0, 69, 44
1, 544005, Note_on_c, 0, 81, 57
1, 544034, Note_on_c, 0, 66, 50
1, 544040, Note_off_c, 0, 82, 53
1, 544084, Note_off_c, 0, 66, 56
1, 544086, Note_off_c, 0, 81, 60
1, 544106, Note_on_c, 0, 79, 52
1, 544111, Note_on_c, 0, 69, 53
1, 544165, Note_off_c, 0, 79, 54
1, 544186, Note_off_c, 0, 69, 48
1, 544214, Note_on_c, 0, 78, 58
1, 544218, Note_on_c, 0, 63, 50
1, 544243, Control_c, 0, 64, 42
1, 544258, Control_c, 0, 64, 54
1, 544273, Control_c, 0, 64, 61
1, 544288, Control_c, 0, 64, 65
1, 544302, Control_c, 0, 64, 70
1, 544317, Control_c, 0, 64, 79
1, 544318, Note_on_c, 0, 69, 41
1, 544332, Control_c, 0, 64, 94
1, 544347, Control_c, 0, 64, 127
1, 544395, Note_off_c, 0, 69, 61
1, 544408, Note_on_c, 0, 66, 54
1, 544454, Note_off_c, 0, 78, 57
1, 544462, Note_off_c, 0, 63, 38
1, 544490, Note_on_c, 0, 69, 54
1, 544504, Note_off_c, 0, 66, 50
1, 544590, Note_off_c, 0, 69, 59
1, 544617, Note_on_c, 0, 62, 49
1, 544617, Note_on_c, 0, 78, 81
1, 544650, Control_c, 0, 64, 105
1, 544665, Control_c, 0, 64, 72
1, 544680, Control_c, 0, 64, 47
1, 544695, Control_c, 0, 64, 0
1, 544709, Control_c, 0, 64, 27
1, 544721, Note_on_c, 0, 69, 44
1, 544724, Control_c, 0, 64, 38
1, 544739, Control_c, 0, 64, 55
1, 544754, Control_c, 0, 64, 68
1, 544761, Note_off_c, 0, 62, 60
1, 544769, Control_c, 0, 64, 81
1, 544783, Note_off_c, 0, 69, 55
1, 544785, Control_c, 0, 64, 105
1, 544787, Note_on_c, 0, 66, 62
1, 544800, Control_c, 0, 64, 127
1, 544867, Note_off_c, 0, 78, 59
1, 544909, Note_on_c, 0, 69, 52
1, 544920, Note_off_c, 0, 66, 37
1, 544991, Note_off_c, 0, 69, 35
1, 545031, Note_on_c, 0, 78, 66
1, 545047, Note_on_c, 0, 60, 36
1, 545096, Control_c, 0, 64, 91
1, 545111, Control_c, 0, 64, 68
1, 545125, Control_c, 0, 64, 51
1, 545132, Note_on_c, 0, 69, 43
1, 545140, Control_c, 0, 64, 38
1, 545155, Control_c, 0, 64, 36
1, 545170, Control_c, 0, 64, 41
1, 545185, Control_c, 0, 64, 55
1, 545203, Note_off_c, 0, 69, 53
1, 545207, Control_c, 0, 64, 67
1, 545222, Control_c, 0, 64, 81
1, 545227, Note_on_c, 0, 66, 56
1, 545237, Control_c, 0, 64, 110
1, 545243, Note_off_c, 0, 60, 39
1, 545251, Control_c, 0, 64, 127
1, 545315, Note_on_c, 0, 69, 67
1, 545332, Note_off_c, 0, 66, 48
1, 545369, Note_off_c, 0, 69, 53
1, 545408, Note_on_c, 0, 60, 54
1, 545468, Note_off_c, 0, 78, 60
1, 545477, Note_off_c, 0, 60, 56
1, 545489, Note_on_c, 0, 79, 53
1, 545489, Control_c, 0, 64, 104
1, 545489, Note_on_c, 0, 69, 49
1, 545504, Control_c, 0, 64, 77
1, 545518, Control_c, 0, 64, 62
1, 545533, Note_off_c, 0, 69, 59
1, 545533, Control_c, 0, 64, 46
1, 545548, Control_c, 0, 64, 29
1, 545562, Note_off_c, 0, 79, 62
1, 545563, Control_c, 0, 64, 0
1, 545575, Note_on_c, 0, 78, 68
1, 545595, Note_on_c, 0, 66, 42
1, 545635, Note_off_c, 0, 78, 60
1, 545651, Note_on_c, 0, 69, 52
1, 545659, Note_on_c, 0, 76, 65
1, 545669, Note_off_c, 0, 66, 53
1, 545722, Note_off_c, 0, 76, 56
1, 545742, Note_on_c, 0, 75, 64
1, 545744, Note_off_c, 0, 69, 58
1, 545771, Note_on_c, 0, 60, 38
1, 545846, Note_off_c, 0, 60, 57
1, 545860, Control_c, 0, 64, 31
1, 545864, Note_on_c, 0, 69, 46
1, 545875, Control_c, 0, 64, 47
1, 545890, Control_c, 0, 64, 62
1, 545903, Note_off_c, 0, 69, 52
1, 545904, Control_c, 0, 64, 74
1, 545919, Control_c, 0, 64, 86
1, 545934, Control_c, 0, 64, 101
1, 545950, Note_on_c, 0, 66, 49
1, 545956, Control_c, 0, 64, 127
1, 545984, Note_off_c, 0, 75, 63
1, 546025, Note_on_c, 0, 69, 49
1, 546078, Note_off_c, 0, 66, 38
1, 546136, Note_off_c, 0, 69, 52
1, 546160, Note_on_c, 0, 75, 67
1, 546163, Control_c, 0, 64, 118
1, 546173, Note_on_c, 0, 59, 42
1, 546178, Control_c, 0, 64, 80
1, 546193, Control_c, 0, 64, 62
1, 546208, Control_c, 0, 64, 46
1, 546222, Control_c, 0, 64, 42
1, 546237, Control_c, 0, 64, 44
1, 546252, Control_c, 0, 64, 53
1, 546267, Control_c, 0, 64, 63
1, 546269, Note_on_c, 0, 69, 50
1, 546273, Poly_aftertouch_c, 0, 71, 127
1, 546282, Control_c, 0, 64, 73
1, 546297, Control_c, 0, 64, 89
1, 546312, Control_c, 0, 64, 114
1, 546326, Control_c, 0, 64, 127
1, 546329, Poly_aftertouch_c, 0, 71, 0
1, 546351, Note_on_c, 0, 66, 59
1, 546354, Note_off_c, 0, 69, 39
1, 546386, Note_off_c, 0, 75, 58
1, 546421, Note_off_c, 0, 59, 30
1, 546458, Note_on_c, 0, 69, 57
1, 546487, Note_off_c, 0, 66, 37
1, 546508, Note_off_c, 0, 69, 53
1, 546538, Note_on_c, 0, 75, 73
1, 546548, Note_on_c, 0, 59, 56
1, 546579, Control_c, 0, 64, 94
1, 546594, Control_c, 0, 64, 68
1, 546609, Control_c, 0, 64, 49
1, 546624, Control_c, 0, 64, 39
1, 546631, Poly_aftertouch_c, 0, 71, 127
1, 546639, Control_c, 0, 64, 43
1, 546653, Control_c, 0, 64, 55
1, 546658, Note_on_c, 0, 69, 56
1, 546668, Control_c, 0, 64, 69
1, 546683, Control_c, 0, 64, 95
1, 546705, Control_c, 0, 64, 127
1, 546710, Note_off_c, 0, 59, 48
1, 546728, Note_off_c, 0, 69, 53
1, 546741, Note_on_c, 0, 66, 62
1, 546754, Poly_aftertouch_c, 0, 71, 0
1, 546765, Note_off_c, 0, 75, 54
1, 546848, Note_on_c, 0, 69, 56
1, 546856, Note_on_c, 0, 75, 75
1, 546856, Note_off_c, 0, 66, 57
1, 546890, Note_off_c, 0, 69, 61
1, 546910, Note_off_c, 0, 75, 62
1, 546918, Poly_aftertouch_c, 0, 71, 127
1, 546938, Note_on_c, 0, 76, 85
1, 546953, Note_on_c, 0, 59, 58
1, 546971, Control_c, 0, 64, 108
1, 546986, Control_c, 0, 64, 71
1, 547001, Control_c, 0, 64, 48
1, 547016, Control_c, 0, 64, 0
1, 547024, Note_on_c, 0, 67, 59
1, 547045, Control_c, 0, 64, 39
1, 547060, Control_c, 0, 64, 60
1, 547075, Control_c, 0, 64, 77
1, 547079, Note_off_c, 0, 67, 55
1, 547088, Note_off_c, 0, 59, 54
1, 547089, Control_c, 0, 64, 111
1, 547104, Control_c, 0, 64, 127
1, 547107, Note_on_c, 0, 64, 59
1, 547146, Note_off_c, 0, 76, 60
1, 547166, Poly_aftertouch_c, 0, 71, 0
1, 547194, Note_on_c, 0, 67, 67
1, 547194, Control_c, 0, 67, 124
1, 547206, Note_on_c, 0, 76, 76
1, 547209, Control_c, 0, 67, 112
1, 547224, Control_c, 0, 67, 104
1, 547239, Control_c, 0, 67, 101
1, 547250, Note_on_c, 0, 71, 15
1, 547254, Note_off_c, 0, 67, 59
1, 547254, Note_off_c, 0, 64, 57
1, 547254, Note_off_c, 0, 76, 65
1, 547283, Control_c, 0, 64, 80
1, 547294, Note_on_c, 0, 78, 86
1, 547298, Control_c, 0, 64, 60
1, 547303, Note_on_c, 0, 59, 62
1, 547307, Note_off_c, 0, 71, 44
1, 547313, Control_c, 0, 64, 45
1, 547316, Note_on_c, 0, 75, 67
1, 547327, Control_c, 0, 64, 48
1, 547342, Control_c, 0, 64, 59
1, 547357, Control_c, 0, 64, 74
1, 547372, Control_c, 0, 64, 127
1, 547392, Note_off_c, 0, 59, 59
1, 547418, Note_on_c, 0, 66, 69
1, 547453, Control_c, 0, 67, 98
1, 547467, Note_off_c, 0, 66, 59
1, 547493, Note_off_c, 0, 78, 59
1, 547498, Control_c, 0, 67, 95
1, 547500, Note_off_c, 0, 75, 30
1, 547510, Note_on_c, 0, 63, 62
1, 547513, Control_c, 0, 67, 94
1, 547527, Control_c, 0, 67, 91
1, 547542, Control_c, 0, 67, 77
1, 547557, Control_c, 0, 67, 66
1, 547572, Control_c, 0, 67, 62
1, 547580, Note_on_c, 0, 66, 65
1, 547583, Note_off_c, 0, 63, 54
1, 547585, Note_on_c, 0, 78, 67
1, 547587, Control_c, 0, 67, 60
1, 547598, Note_on_c, 0, 75, 53
1, 547601, Control_c, 0, 67, 58
1, 547613, Note_off_c, 0, 78, 67
1, 547616, Control_c, 0, 67, 57
1, 547622, Note_off_c, 0, 75, 54
1, 547636, Note_off_c, 0, 66, 61
1, 547661, Control_c, 0, 64, 94
1, 547663, Note_on_c, 0, 79, 81
1, 547671, Note_on_c, 0, 59, 71
1, 547676, Note_on_c, 0, 76, 77
1, 547676, Control_c, 0, 64, 68
1, 547676, Control_c, 0, 67, 57
1, 547691, Control_c, 0, 64, 51
1, 547691, Control_c, 0, 67, 56
1, 547699, Note_on_c, 0, 71, 16
1, 547706, Control_c, 0, 64, 44
1, 547706, Control_c, 0, 67, 56
1, 547720, Control_c, 0, 64, 49
1, 547720, Control_c, 0, 67, 55
1, 547728, Note_off_c, 0, 71, 47
1, 547735, Control_c, 0, 64, 63
1, 547735, Control_c, 0, 67, 54
1, 547750, Note_on_c, 0, 67, 58
1, 547750, Control_c, 0, 64, 88
1, 547765, Control_c, 0, 64, 127
1, 547765, Control_c, 0, 67, 54
1, 547781, Control_c, 0, 67, 52
1, 547795, Control_c, 0, 67, 42
1, 547810, Control_c, 0, 67, 0
1, 547815, Note_off_c, 0, 67, 59
1, 547840, Note_on_c, 0, 64, 55
1, 547856, Note_off_c, 0, 76, 39
1, 547873, Note_off_c, 0, 79, 60
1, 547879, Note_off_c, 0, 59, 52
1, 547933, Note_on_c, 0, 67, 63
1, 547947, Note_on_c, 0, 79, 74
1, 547954, Note_on_c, 0, 76, 57
1, 547974, Note_off_c, 0, 64, 48
1, 547979, Note_on_c, 0, 71, 44
1, 547979, Note_off_c, 0, 76, 64
1, 547999, Note_off_c, 0, 79, 65
1, 548010, Note_off_c, 0, 71, 53
1, 548012, Note_off_c, 0, 67, 49
1, 548035, Note_on_c, 0, 59, 53
1, 548048, Note_on_c, 0, 81, 85
1, 548064, Note_on_c, 0, 78, 72
1, 548078, Control_c, 0, 64, 96
1, 548088, Note_on_c, 0, 71, 55
1, 548092, Control_c, 0, 64, 67
1, 548107, Control_c, 0, 64, 46
1, 548122, Control_c, 0, 64, 33
1, 548124, Note_off_c, 0, 71, 45
1, 548136, Control_c, 0, 64, 38
1, 548148, Note_on_c, 0, 69, 55
1, 548151, Control_c, 0, 64, 59
1, 548166, Control_c, 0, 64, 81
1, 548181, Control_c, 0, 64, 127
1, 548187, Note_on_c, 0, 71, 23
1, 548238, Note_off_c, 0, 69, 58
1, 548252, Note_on_c, 0, 66, 57
1, 548253, Note_off_c, 0, 59, 61
1, 548279, Note_off_c, 0, 78, 50
1, 548297, Note_off_c, 0, 81, 61
1, 548306, Note_off_c, 0, 71, 32
1, 548350, Note_on_c, 0, 69, 61
1, 548365, Note_on_c, 0, 78, 74
1, 548367, Note_on_c, 0, 81, 67
1, 548379, Note_off_c, 0, 66, 0
1, 548383, Note_on_c, 0, 71, 48
1, 548393, Note_off_c, 0, 78, 64
1, 548401, Note_off_c, 0, 81, 65
1, 548411, Note_off_c, 0, 69, 49
1, 548414, Poly_aftertouch_c, 0, 66, 0
1, 548414, Note_off_c, 0, 71, 53
1, 548452, Note_on_c, 0, 81, 87
1, 548455, Control_c, 0, 64, 104
1, 548457, Note_on_c, 0, 60, 68
1, 548462, Note_on_c, 0, 78, 80
1, 548467, Note_on_c, 0, 72, 77
1, 548470, Control_c, 0, 64, 72
1, 548485, Control_c, 0, 64, 56
1, 548500, Control_c, 0, 64, 53
1, 548514, Control_c, 0, 64, 59
1, 548529, Control_c, 0, 64, 71
1, 548541, Note_on_c, 0, 69, 69
1, 548544, Control_c, 0, 64, 118
1, 548559, Control_c, 0, 64, 127
1, 548592, Note_off_c, 0, 60, 63
1, 548625, Note_off_c, 0, 69, 52
1, 548628, Note_off_c, 0, 78, 60
1, 548635, Note_on_c, 0, 66, 66
1, 548644, Note_off_c, 0, 72, 54
1, 548651, Note_off_c, 0, 81, 63
1, 548712, Note_off_c, 0, 66, 52
1, 548726, Note_on_c, 0, 78, 72
1, 548731, Note_on_c, 0, 72, 67
1, 548732, Note_on_c, 0, 81, 63
1, 548737, Note_on_c, 0, 69, 58
1, 548758, Note_off_c, 0, 81, 67
1, 548759, Note_off_c, 0, 72, 64
1, 548761, Note_off_c, 0, 78, 61
1, 548785, Note_off_c, 0, 69, 53
1, 548797, Control_c, 0, 64, 95
1, 548808, Note_on_c, 0, 81, 86
1, 548812, Control_c, 0, 64, 68
1, 548816, Note_on_c, 0, 78, 70
1, 548816, Note_on_c, 0, 61, 69
1, 548827, Control_c, 0, 64, 53
1, 548830, Note_on_c, 0, 73, 72
1, 548841, Control_c, 0, 64, 46
1, 548856, Control_c, 0, 64, 47
1, 548871, Control_c, 0, 64, 58
1, 548885, Control_c, 0, 64, 68
1, 548900, Control_c, 0, 64, 85
1, 548903, Note_on_c, 0, 69, 63
1, 548915, Control_c, 0, 64, 127
1, 548975, Note_off_c, 0, 73, 51
1, 548986, Note_off_c, 0, 69, 59
1, 548989, Note_off_c, 0, 61, 63
1, 548995, Note_on_c, 0, 66, 69
1, 549003, Note_off_c, 0, 78, 56
1, 549012, Note_off_c, 0, 81, 59
1, 549081, Note_on_c, 0, 69, 62
1, 549093, Note_on_c, 0, 73, 76
1, 549099, Note_on_c, 0, 78, 67
1, 549100, Note_off_c, 0, 66, 53
1, 549105, Note_on_c, 0, 81, 66
1, 549130, Note_off_c, 0, 81, 69
1, 549135, Note_off_c, 0, 78, 60
1, 549146, Note_off_c, 0, 73, 62
1, 549160, Note_off_c, 0, 69, 53
1, 549189, Control_c, 0, 64, 104
1, 549191, Note_on_c, 0, 78, 74
1, 549193, Note_on_c, 0, 81, 81
1, 549200, Note_on_c, 0, 62, 64
1, 549204, Control_c, 0, 64, 69
1, 549209, Note_on_c, 0, 74, 78
1, 549219, Control_c, 0, 64, 44
1, 549234, Control_c, 0, 64, 0
1, 549278, Control_c, 0, 64, 50
1, 549287, Note_on_c, 0, 69, 63
1, 549292, Control_c, 0, 64, 69
1, 549307, Control_c, 0, 64, 92
1, 549319, Note_off_c, 0, 78, 59
1, 549322, Control_c, 0, 64, 127
1, 549325, Note_off_c, 0, 81, 61
1, 549365, Note_off_c, 0, 62, 53
1, 549367, Note_on_c, 0, 66, 67
1, 549369, Note_off_c, 0, 69, 55
1, 549471, Control_c, 0, 67, 38
1, 549477, Note_on_c, 0, 69, 62
1, 549486, Control_c, 0, 67, 73
1, 549500, Control_c, 0, 67, 105
1, 549515, Control_c, 0, 67, 116
1, 549518, Note_off_c, 0, 66, 55
1, 549560, Control_c, 0, 67, 123
1, 549576, Control_c, 0, 67, 127
1, 549590, Control_c, 0, 64, 110
1, 549605, Control_c, 0, 64, 88
1, 549620, Control_c, 0, 64, 73
1, 549634, Note_on_c, 0, 81, 84
1, 549635, Control_c, 0, 64, 62
1, 549641, Note_on_c, 0, 62, 58
1, 549650, Control_c, 0, 64, 53
1, 549664, Control_c, 0, 64, 43
1, 549667, Note_off_c, 0, 69, 54
1, 549679, Control_c, 0, 64, 0
1, 549743, Note_off_c, 0, 74, 62
1, 549788, Note_on_c, 0, 69, 58
1, 549854, Note_off_c, 0, 69, 50
1, 549877, Note_on_c, 0, 66, 56
1, 549879, Note_off_c, 0, 62, 57
1, 549960, Note_on_c, 0, 69, 61
1, 549966, Note_off_c, 0, 66, 57
1, 550014, Note_off_c, 0, 69, 50
1, 550033, Note_on_c, 0, 63, 69
1, 550122, Note_on_c, 0, 69, 69
1, 550183, Note_off_c, 0, 69, 59
1, 550201, Note_off_c, 0, 63, 34
1, 550205, Note_on_c, 0, 66, 64
1, 550276, Note_on_c, 0, 69, 66
1, 550301, Note_on_c, 0, 79, 70
1, 550312, Note_off_c, 0, 66, 51
1, 550378, Note_off_c, 0, 69, 45
1, 550381, Note_off_c, 0, 81, 35
1, 550400, Note_on_c, 0, 78, 75
1, 550401, Note_off_c, 0, 79, 60
1, 550405, Note_on_c, 0, 62, 52
1, 550450, Control_c, 0, 64, 28
1, 550465, Control_c, 0, 64, 48
1, 550479, Control_c, 0, 64, 63
1, 550494, Control_c, 0, 64, 70
1, 550504, Note_on_c, 0, 69, 53
1, 550509, Note_off_c, 0, 62, 59
1, 550509, Control_c, 0, 64, 80
1, 550524, Control_c, 0, 64, 91
1, 550539, Control_c, 0, 64, 123
1, 550553, Control_c, 0, 64, 127
1, 550586, Note_off_c, 0, 69, 57
1, 550604, Note_on_c, 0, 66, 54
1, 550692, Note_off_c, 0, 66, 52
1, 550698, Note_on_c, 0, 69, 68
1, 550730, Note_off_c, 0, 78, 59
1, 550788, Note_off_c, 0, 69, 38
1, 550800, Note_on_c, 0, 60, 60
1, 550807, Note_on_c, 0, 78, 81
1, 550863, Control_c, 0, 64, 77
1, 550878, Control_c, 0, 64, 57
1, 550893, Control_c, 0, 64, 35
1, 550899, Note_on_c, 0, 69, 59
1, 550908, Control_c, 0, 64, 32
1, 550923, Control_c, 0, 64, 45
1, 550938, Note_off_c, 0, 60, 58
1, 550938, Control_c, 0, 64, 62
1, 550953, Control_c, 0, 64, 82
1, 550965, Note_on_c, 0, 66, 68
1, 550968, Control_c, 0, 64, 127
1, 550980, Note_off_c, 0, 69, 54
1, 551032, Note_off_c, 0, 66, 62
1, 551081, Note_on_c, 0, 69, 61
1, 551091, Note_off_c, 0, 78, 54
1, 551114, Note_off_c, 0, 69, 61
1, 551114, Note_on_c, 0, 81, 69
1, 551159, Note_on_c, 0, 58, 65
1, 551186, Note_on_c, 0, 79, 61
1, 551198, Control_c, 0, 64, 89
1, 551213, Control_c, 0, 64, 61
1, 551225, Note_off_c, 0, 81, 58
1, 551228, Control_c, 0, 64, 35
1, 551242, Control_c, 0, 64, 0
1, 551249, Note_off_c, 0, 79, 62
1, 551258, Note_on_c, 0, 67, 63
1, 551267, Note_on_c, 0, 78, 77
1, 551289, Note_off_c, 0, 58, 56
1, 551320, Note_off_c, 0, 78, 61
1, 551323, Note_off_c, 0, 67, 53
1, 551334, Note_on_c, 0, 62, 50
1, 551349, Note_on_c, 0, 79, 74
1, 551408, Note_off_c, 0, 62, 62
1, 551422, Note_on_c, 0, 81, 74
1, 551427, Note_on_c, 0, 67, 60
1, 551432, Note_off_c, 0, 79, 52
1, 551469, Note_off_c, 0, 67, 62
1, 551481, Note_off_c, 0, 81, 62
1, 551487, Note_on_c, 0, 84, 77
1, 551512, Note_on_c, 0, 56, 74
1, 551544, Note_on_c, 0, 82, 76
1, 551574, Note_off_c, 0, 56, 56
1, 551579, Note_off_c, 0, 84, 63
1, 551594, Note_on_c, 0, 67, 63
1, 551603, Note_on_c, 0, 81, 69
1, 551610, Note_off_c, 0, 82, 63
1, 551664, Note_off_c, 0, 67, 61
1, 551678, Note_on_c, 0, 60, 60
1, 551682, Note_on_c, 0, 82, 77
1, 551730, Note_off_c, 0, 81, 55
1, 551758, Note_on_c, 0, 84, 76
1, 551767, Note_on_c, 0, 67, 65
1, 551767, Note_off_c, 0, 82, 63
1, 551790, Note_off_c, 0, 60, 37
1, 551817, Note_off_c, 0, 67, 54
1, 551866, Note_on_c, 0, 55, 65
1, 551869, Note_on_c, 0, 86, 81
1, 551879, Control_c, 0, 64, 34
1, 551894, Control_c, 0, 64, 56
1, 551909, Control_c, 0, 64, 67
1, 551924, Control_c, 0, 64, 79
1, 551946, Control_c, 0, 64, 96
1, 551951, Note_off_c, 0, 84, 46
1, 551962, Control_c, 0, 64, 127
1, 551971, Note_off_c, 0, 55, 37
1, 551977, Note_on_c, 0, 67, 55
1, 552041, Note_off_c, 0, 67, 59
1, 552054, Note_off_c, 0, 86, 61
1, 552085, Note_on_c, 0, 55, 50
1, 552121, Note_off_c, 0, 55, 53
1, 552162, Note_on_c, 0, 67, 63
1, 552255, Note_off_c, 0, 67, 36
1, 552316, Note_on_c, 0, 58, 54
1, 552328, Note_on_c, 0, 86, 67
1, 552362, Control_c, 0, 64, 108
1, 552377, Control_c, 0, 64, 74
1, 552391, Control_c, 0, 64, 57
1, 552406, Control_c, 0, 64, 45
1, 552421, Control_c, 0, 64, 44
1, 552435, Control_c, 0, 64, 52
1, 552439, Note_on_c, 0, 67, 39
1, 552450, Control_c, 0, 64, 62
1, 552465, Control_c, 0, 64, 71
1, 552480, Control_c, 0, 64, 82
1, 552495, Control_c, 0, 64, 96
1, 552509, Control_c, 0, 64, 111
1, 552524, Control_c, 0, 64, 127
1, 552539, Note_off_c, 0, 67, 38
1, 552548, Note_off_c, 0, 58, 40
1, 552559, Note_on_c, 0, 82, 64
1, 552572, Note_on_c, 0, 62, 32
1, 552573, Note_off_c, 0, 86, 60
1, 552595, Note_off_c, 0, 82, 59
1, 552653, Note_off_c, 0, 62, 55
1, 552691, Note_on_c, 0, 67, 49
1, 552838, Note_off_c, 0, 67, 38
1, 552853, Note_on_c, 0, 81, 65
1, 552863, Note_on_c, 0, 62, 42
1, 552932, Control_c, 0, 64, 87
1, 552947, Control_c, 0, 64, 64
1, 552962, Control_c, 0, 64, 45
1, 552977, Note_on_c, 0, 69, 36
1, 552977, Control_c, 0, 64, 33
1, 552992, Control_c, 0, 64, 32
1, 553007, Control_c, 0, 64, 35
1, 553021, Control_c, 0, 64, 46
1, 553036, Control_c, 0, 64, 58
1, 553051, Control_c, 0, 64, 68
1, 553062, Note_off_c, 0, 69, 40
1, 553065, Control_c, 0, 64, 76
1, 553074, Note_on_c, 0, 66, 54
1, 553080, Control_c, 0, 64, 83
1, 553095, Control_c, 0, 64, 86
1, 553110, Control_c, 0, 64, 88
1, 553125, Control_c, 0, 64, 90
1, 553139, Control_c, 0, 64, 91
1, 553141, Note_off_c, 0, 62, 35
1, 553154, Control_c, 0, 64, 92
1, 553159, Note_on_c, 0, 69, 58
1, 553169, Control_c, 0, 64, 93
1, 553186, Note_off_c, 0, 66, 48
1, 553238, Note_off_c, 0, 69, 55
1, 553243, Control_c, 0, 64, 92
1, 553250, Note_on_c, 0, 63, 64
1, 553257, Control_c, 0, 64, 89
1, 553272, Control_c, 0, 64, 85
1, 553287, Control_c, 0, 64, 85
1, 553302, Control_c, 0, 64, 85
1, 553317, Control_c, 0, 64, 87
1, 553328, Note_on_c, 0, 69, 59
1, 553332, Control_c, 0, 64, 92
1, 553347, Control_c, 0, 64, 100
1, 553361, Control_c, 0, 64, 108
1, 553376, Control_c, 0, 64, 123
1, 553391, Control_c, 0, 64, 127
1, 553397, Note_off_c, 0, 63, 36
1, 553398, Note_off_c, 0, 69, 49
1, 553421, Note_on_c, 0, 66, 58
1, 553505, Note_on_c, 0, 69, 62
1, 553543, Note_on_c, 0, 79, 64
1, 553568, Note_off_c, 0, 81, 50
1, 553577, Control_c, 0, 64, 109
1, 553588, Note_off_c, 0, 66, 29
1, 553592, Control_c, 0, 64, 77
1, 553607, Control_c, 0, 64, 62
1, 553617, Note_off_c, 0, 69, 57
1, 553622, Control_c, 0, 64, 56
1, 553634, Note_on_c, 0, 62, 62
1, 553636, Control_c, 0, 64, 58
1, 553646, Note_off_c, 0, 79, 64
1, 553651, Control_c, 0, 64, 65
1, 553652, Note_on_c, 0, 78, 78
1, 553666, Control_c, 0, 64, 81
1, 553680, Control_c, 0, 64, 127
1, 553710, Control_c, 0, 67, 90
1, 553725, Control_c, 0, 67, 0
1, 553728, Note_on_c, 0, 69, 67
1, 553743, Note_off_c, 0, 78, 62
1, 553755, Note_off_c, 0, 62, 59
1, 553805, Note_off_c, 0, 69, 59
1, 553807, Note_on_c, 0, 66, 66
1, 553903, Note_on_c, 0, 69, 72
1, 553920, Note_off_c, 0, 66, 55
1, 554010, Note_on_c, 0, 60, 71
1, 554014, Note_off_c, 0, 69, 39
1, 554028, Note_on_c, 0, 90, 83
1, 554051, Control_c, 0, 64, 123
1, 554056, Note_on_c, 0, 78, 46
1, 554066, Control_c, 0, 64, 68
1, 554080, Control_c, 0, 64, 40
1, 554095, Control_c, 0, 64, 0
1, 554125, Control_c, 0, 64, 29
1, 554127, Note_on_c, 0, 69, 70
1, 554140, Control_c, 0, 64, 56
1, 554154, Control_c, 0, 64, 82
1, 554169, Control_c, 0, 64, 127
1, 554229, Note_off_c, 0, 60, 62
1, 554237, Note_on_c, 0, 66, 75
1, 554238, Note_off_c, 0, 78, 36
1, 554241, Note_off_c, 0, 69, 55
1, 554344, Note_on_c, 0, 69, 76
1, 554455, Note_off_c, 0, 66, 58
1, 554459, Control_c, 0, 64, 94
1, 554468, Note_on_c, 0, 58, 71
1, 554471, Note_on_c, 0, 91, 84
1, 554474, Control_c, 0, 64, 60
1, 554477, Note_off_c, 0, 69, 60
1, 554489, Control_c, 0, 64, 0
1, 554496, Note_on_c, 0, 79, 51
1, 554531, Note_off_c, 0, 90, 57
1, 554534, Control_c, 0, 64, 32
1, 554549, Control_c, 0, 64, 59
1, 554551, Note_off_c, 0, 79, 59
1, 554564, Control_c, 0, 64, 87
1, 554578, Control_c, 0, 64, 127
1, 554643, Note_on_c, 0, 70, 70
1, 554646, Poly_aftertouch_c, 0, 62, 127
1, 554651, Note_off_c, 0, 91, 66
1, 554733, Note_off_c, 0, 58, 59
1, 554795, Note_on_c, 0, 94, 86
1, 554801, Note_on_c, 0, 67, 68
1, 554808, Note_off_c, 0, 70, 61
1, 554815, Note_on_c, 0, 82, 53
1, 554846, Note_off_c, 0, 82, 50
1, 554911, Note_on_c, 0, 70, 77
1, 554959, Note_off_c, 0, 67, 59
1, 554984, Note_off_c, 0, 70, 58
1, 555021, Note_on_c, 0, 58, 75
1, 555028, Note_off_c, 0, 94, 58
1, 555037, Note_on_c, 0, 96, 88
1, 555043, Note_on_c, 0, 84, 80
1, 555088, Note_off_c, 0, 84, 64
1, 555124, Note_on_c, 0, 70, 74
1, 555148, Note_off_c, 0, 58, 62
1, 555224, Note_on_c, 0, 67, 73
1, 555233, Note_off_c, 0, 70, 58
1, 555245, Note_on_c, 0, 98, 98
1, 555257, Note_on_c, 0, 86, 77
1, 555266, Note_off_c, 0, 96, 60
1, 555281, Note_off_c, 0, 86, 66
1, 555336, Note_on_c, 0, 70, 81
1, 555349, Note_off_c, 0, 98, 62
1, 555394, Note_off_c, 0, 67, 54
1, 555454, Note_on_c, 0, 99, 94
1, 555457, Note_off_c, 0, 70, 59
1, 555464, Note_on_c, 0, 58, 74
1, 555466, Note_on_c, 0, 87, 76
1, 555487, Note_off_c, 0, 87, 72
1, 555511, Note_off_c, 0, 99, 62
1, 555579, Note_on_c, 0, 70, 74
1, 555615, Note_off_c, 0, 58, 52
1, 555698, Note_off_c, 0, 70, 56
1, 555707, Note_on_c, 0, 67, 69
1, 555833, Note_on_c, 0, 70, 71
1, 555983, Poly_aftertouch_c, 0, 62, 0
1, 555995, Note_on_c, 0, 58, 74
1, 555997, Note_on_c, 0, 96, 89
1, 556005, Note_off_c, 0, 70, 36
1, 556011, Note_off_c, 0, 67, 29
1, 556012, Note_on_c, 0, 84, 69
1, 556020, Poly_aftertouch_c, 0, 62, 127
1, 556062, Control_c, 0, 64, 108
1, 556077, Control_c, 0, 64, 73
1, 556091, Control_c, 0, 64, 55
1, 556106, Control_c, 0, 64, 39
1, 556121, Control_c, 0, 64, 33
1, 556136, Control_c, 0, 64, 34
1, 556139, Note_on_c, 0, 72, 68
1, 556151, Control_c, 0, 64, 44
1, 556165, Control_c, 0, 64, 60
1, 556180, Control_c, 0, 64, 77
1, 556184, Note_off_c, 0, 58, 56
1, 556195, Control_c, 0, 64, 127
1, 556237, Note_off_c, 0, 84, 62
1, 556261, Note_off_c, 0, 72, 60
1, 556265, Note_on_c, 0, 68, 68
1, 556289, Poly_aftertouch_c, 0, 62, 0
1, 556364, Note_off_c, 0, 68, 60
1, 556366, Note_on_c, 0, 72, 63
1, 556445, Note_off_c, 0, 72, 59
1, 556513, Control_c, 0, 64, 117
1, 556514, Note_on_c, 0, 94, 87
1, 556521, Note_on_c, 0, 58, 58
1, 556526, Note_on_c, 0, 82, 62
1, 556528, Control_c, 0, 64, 70
1, 556543, Control_c, 0, 64, 53
1, 556557, Control_c, 0, 64, 45
1, 556572, Control_c, 0, 64, 49
1, 556587, Control_c, 0, 64, 58
1, 556602, Control_c, 0, 64, 67
1, 556617, Control_c, 0, 64, 77
1, 556631, Control_c, 0, 64, 91
1, 556632, Note_off_c, 0, 96, 55
1, 556633, Note_on_c, 0, 70, 62
1, 556646, Control_c, 0, 64, 101
1, 556661, Control_c, 0, 64, 127
1, 556667, Note_off_c, 0, 82, 54
1, 556694, Note_off_c, 0, 58, 60
1, 556711, Note_off_c, 0, 70, 58
1, 556742, Note_on_c, 0, 67, 49
1, 556833, Note_on_c, 0, 70, 60
1, 556855, Note_off_c, 0, 67, 56
1, 556912, Note_off_c, 0, 70, 58
1, 556958, Note_on_c, 0, 58, 59
1, 556959, Note_on_c, 0, 92, 77
1, 556974, Note_on_c, 0, 80, 51
1, 557018, Control_c, 0, 64, 79
1, 557024, Note_off_c, 0, 94, 63
1, 557032, Control_c, 0, 64, 58
1, 557047, Control_c, 0, 64, 48
1, 557077, Control_c, 0, 64, 53
1, 557091, Note_on_c, 0, 68, 54
1, 557092, Control_c, 0, 64, 63
1, 557106, Control_c, 0, 64, 76
1, 557121, Control_c, 0, 64, 114
1, 557121, Control_c, 0, 67, 47
1, 557123, Note_off_c, 0, 58, 53
1, 557136, Control_c, 0, 64, 127
1, 557136, Control_c, 0, 67, 86
1, 557151, Control_c, 0, 67, 127
1, 557159, Note_off_c, 0, 68, 55
1, 557192, Note_on_c, 0, 65, 43
1, 557290, Note_on_c, 0, 68, 57
1, 557299, Note_off_c, 0, 65, 55
1, 557332, Note_off_c, 0, 68, 55
1, 557332, Note_off_c, 0, 80, 54
1, 557395, Note_on_c, 0, 58, 60
1, 557398, Note_on_c, 0, 91, 73
1, 557400, Note_off_c, 0, 92, 64
1, 557410, Control_c, 0, 64, 115
1, 557424, Control_c, 0, 64, 78
1, 557427, Note_on_c, 0, 79, 45
1, 557439, Control_c, 0, 64, 57
1, 557454, Control_c, 0, 64, 40
1, 557469, Control_c, 0, 64, 29
1, 557497, Note_on_c, 0, 67, 42
1, 557499, Control_c, 0, 64, 39
1, 557514, Control_c, 0, 64, 54
1, 557529, Control_c, 0, 64, 66
1, 557544, Control_c, 0, 64, 78
1, 557559, Control_c, 0, 64, 88
1, 557568, Note_off_c, 0, 79, 36
1, 557574, Control_c, 0, 64, 94
1, 557578, Note_off_c, 0, 58, 52
1, 557588, Note_off_c, 0, 67, 57
1, 557589, Control_c, 0, 64, 101
1, 557603, Control_c, 0, 64, 113
1, 557609, Note_on_c, 0, 63, 45
1, 557618, Control_c, 0, 64, 127
1, 557699, Note_off_c, 0, 63, 46
1, 557702, Note_on_c, 0, 67, 36
1, 557758, Note_off_c, 0, 67, 52
1, 557785, Note_on_c, 0, 89, 59
1, 557792, Note_on_c, 0, 77, 43
1, 557797, Control_c, 0, 64, 84
1, 557803, Note_on_c, 0, 58, 57
1, 557811, Control_c, 0, 64, 64
1, 557826, Control_c, 0, 64, 49
1, 557829, Note_off_c, 0, 91, 62
1, 557841, Control_c, 0, 64, 42
1, 557855, Control_c, 0, 64, 45
1, 557870, Control_c, 0, 64, 54
1, 557885, Control_c, 0, 64, 64
1, 557900, Control_c, 0, 64, 75
1, 557915, Control_c, 0, 64, 91
1, 557926, Note_on_c, 0, 65, 41
1, 557937, Control_c, 0, 64, 108
1, 557952, Control_c, 0, 64, 127
1, 557964, Note_off_c, 0, 58, 47
1, 558004, Note_off_c, 0, 77, 63
1, 558006, Note_off_c, 0, 65, 56
1, 558047, Note_on_c, 0, 61, 37
1, 558134, Note_on_c, 0, 65, 42
1, 558181, Note_off_c, 0, 65, 49
1, 558186, Note_off_c, 0, 61, 39
1, 558218, Control_c, 0, 64, 90
1, 558222, Note_on_c, 0, 88, 60
1, 558233, Note_on_c, 0, 58, 52
1, 558233, Control_c, 0, 64, 68
1, 558239, Note_on_c, 0, 76, 35
1, 558247, Control_c, 0, 64, 53
1, 558251, Note_off_c, 0, 89, 51
1, 558262, Control_c, 0, 64, 41
1, 558277, Control_c, 0, 64, 40
1, 558292, Control_c, 0, 64, 44
1, 558307, Control_c, 0, 64, 52
1, 558322, Control_c, 0, 64, 59
1, 558337, Control_c, 0, 64, 62
1, 558348, Note_on_c, 0, 64, 34
1, 558352, Control_c, 0, 64, 65
1, 558367, Control_c, 0, 64, 72
1, 558382, Control_c, 0, 64, 85
1, 558397, Control_c, 0, 64, 104
1, 558412, Control_c, 0, 64, 127
1, 558420, Note_off_c, 0, 64, 59
1, 558453, Note_off_c, 0, 58, 41
1, 558459, Note_on_c, 0, 61, 35
1, 558530, Note_on_c, 0, 64, 41
1, 558560, Note_off_c, 0, 61, 32
1, 558602, Note_off_c, 0, 64, 59
1, 558623, Note_on_c, 0, 58, 46
1, 558739, Note_on_c, 0, 64, 40
1, 558748, Note_off_c, 0, 58, 36
1, 558810, Note_off_c, 0, 64, 54
1, 558839, Note_on_c, 0, 61, 31
1, 558933, Note_on_c, 0, 64, 37
1, 558964, Note_off_c, 0, 61, 30
1, 559036, Note_on_c, 0, 58, 38
1, 559060, Note_off_c, 0, 64, 44
1, 559098, Note_off_c, 0, 58, 40
1, 559144, Note_on_c, 0, 64, 31
1, 559215, Note_off_c, 0, 64, 56
1, 559264, Note_on_c, 0, 61, 16
1, 559315, Note_on_c, 0, 64, 44
1, 559322, Note_off_c, 0, 61, 44
1, 559373, Note_off_c, 0, 64, 52
1, 559407, Note_on_c, 0, 58, 41
1, 559464, Note_off_c, 0, 58, 49
1, 559493, Note_on_c, 0, 64, 51
1, 559560, Note_off_c, 0, 88, 47
1, 559573, Note_off_c, 0, 64, 37
1, 559615, Note_on_c, 0, 61, 29
1, 559679, Note_off_c, 0, 61, 41
1, 559696, Note_on_c, 0, 64, 43
1, 559746, Note_off_c, 0, 76, 44
1, 559757, Note_off_c, 0, 64, 58
1, 559792, Note_on_c, 0, 58, 42
1, 559848, Note_off_c, 0, 58, 47
1, 559887, Note_on_c, 0, 64, 37
1, 559940, Note_off_c, 0, 64, 59
1, 559969, Note_on_c, 0, 76, 50
1, 559972, Note_on_c, 0, 61, 43
1, 559995, Note_off_c, 0, 76, 58
1, 560021, Note_off_c, 0, 61, 52
1, 560059, Note_on_c, 0, 64, 38
1, 560113, Note_off_c, 0, 64, 53
1, 560143, Note_on_c, 0, 76, 64
1, 560151, Note_on_c, 0, 58, 55
1, 560191, Note_off_c, 0, 76, 59
1, 560200, Note_off_c, 0, 58, 56
1, 560243, Note_on_c, 0, 64, 42
1, 560296, Note_off_c, 0, 64, 57
1, 560331, Note_on_c, 0, 61, 50
1, 560340, Note_on_c, 0, 76, 62
1, 560370, Note_off_c, 0, 76, 65
1, 560393, Note_off_c, 0, 61, 51
1, 560407, Note_on_c, 0, 64, 52
1, 560495, Note_off_c, 0, 64, 60
1, 560514, Note_on_c, 0, 76, 58
1, 560521, Note_on_c, 0, 57, 51
1, 560538, Note_off_c, 0, 76, 66
1, 560539, Control_c, 0, 64, 90
1, 560554, Control_c, 0, 64, 64
1, 560569, Control_c, 0, 64, 35
1, 560581, Note_off_c, 0, 57, 55
1, 560583, Control_c, 0, 64, 0
1, 560617, Note_on_c, 0, 64, 40
1, 560653, Note_off_c, 0, 64, 52
1, 560702, Note_on_c, 0, 61, 45
1, 560709, Note_on_c, 0, 76, 60
1, 560738, Note_off_c, 0, 76, 63
1, 560769, Note_off_c, 0, 61, 53
1, 560782, Note_on_c, 0, 64, 36
1, 560863, Note_off_c, 0, 64, 53
1, 560885, Note_on_c, 0, 76, 66
1, 560897, Note_on_c, 0, 55, 53
1, 560909, Note_off_c, 0, 76, 67
1, 560952, Note_off_c, 0, 55, 55
1, 560996, Note_on_c, 0, 64, 47
1, 561043, Note_off_c, 0, 64, 57
1, 561091, Note_on_c, 0, 61, 42
1, 561173, Note_on_c, 0, 64, 45
1, 561174, Note_off_c, 0, 61, 37
1, 561285, Note_off_c, 0, 64, 56
1, 561317, Note_on_c, 0, 77, 51
1, 561326, Note_on_c, 0, 53, 39
1, 561347, Control_c, 0, 64, 38
1, 561362, Control_c, 0, 64, 53
1, 561377, Control_c, 0, 64, 59
1, 561392, Control_c, 0, 64, 62
1, 561406, Control_c, 0, 64, 66
1, 561421, Control_c, 0, 64, 74
1, 561436, Control_c, 0, 64, 84
1, 561451, Control_c, 0, 64, 98
1, 561455, Note_off_c, 0, 53, 37
1, 561466, Control_c, 0, 64, 112
1, 561472, Note_on_c, 0, 65, 36
1, 561480, Control_c, 0, 64, 126
1, 561534, Note_off_c, 0, 65, 55
1, 561578, Note_on_c, 0, 62, 33
1, 561657, Note_on_c, 0, 65, 54
1, 561707, Note_off_c, 0, 65, 56
1, 561725, Note_off_c, 0, 62, 35
1, 561762, Note_on_c, 0, 53, 49
1, 561797, Note_off_c, 0, 53, 51
1, 561829, Control_c, 0, 64, 76
1, 561844, Control_c, 0, 64, 55
1, 561859, Note_on_c, 0, 67, 49
1, 561859, Control_c, 0, 64, 0
1, 561893, Note_off_c, 0, 67, 56
1, 561961, Note_on_c, 0, 63, 40
1, 562033, Note_off_c, 0, 63, 50
1, 562037, Note_on_c, 0, 67, 40
1, 562065, Note_off_c, 0, 77, 63
1, 562091, Note_on_c, 0, 79, 42
1, 562103, Note_off_c, 0, 67, 52
1, 562147, Note_off_c, 0, 79, 60
1, 562155, Note_on_c, 0, 53, 44
1, 562180, Note_on_c, 0, 77, 56
1, 562185, Control_c, 0, 64, 29
1, 562200, Control_c, 0, 64, 51
1, 562214, Control_c, 0, 64, 66
1, 562223, Note_off_c, 0, 53, 48
1, 562229, Control_c, 0, 64, 81
1, 562244, Control_c, 0, 64, 105
1, 562248, Note_off_c, 0, 77, 63
1, 562253, Note_on_c, 0, 65, 43
1, 562259, Control_c, 0, 64, 127
1, 562302, Note_off_c, 0, 65, 46
1, 562359, Note_on_c, 0, 62, 44
1, 562471, Note_on_c, 0, 65, 40
1, 562513, Note_on_c, 0, 82, 59
1, 562515, Note_off_c, 0, 65, 52
1, 562540, Note_on_c, 0, 53, 62
1, 562541, Note_off_c, 0, 82, 66
1, 562552, Note_off_c, 0, 62, 35
1, 562563, Control_c, 0, 64, 104
1, 562570, Note_on_c, 0, 84, 61
1, 562573, Note_off_c, 0, 53, 60
1, 562578, Control_c, 0, 64, 66
1, 562593, Control_c, 0, 64, 0
1, 562596, Note_off_c, 0, 84, 68
1, 562623, Note_on_c, 0, 82, 66
1, 562658, Note_off_c, 0, 82, 55
1, 562660, Note_on_c, 0, 67, 35
1, 562674, Note_on_c, 0, 84, 67
1, 562707, Note_off_c, 0, 67, 48
1, 562715, Note_off_c, 0, 84, 53
1, 562727, Note_on_c, 0, 63, 45
1, 562732, Note_on_c, 0, 82, 32
1, 562758, Note_off_c, 0, 82, 49
1, 562765, Note_on_c, 0, 81, 60
1, 562773, Note_off_c, 0, 63, 43
1, 562793, Note_on_c, 0, 67, 61
1, 562814, Note_off_c, 0, 81, 62
1, 562830, Note_on_c, 0, 82, 66
1, 562845, Note_off_c, 0, 67, 48
1, 562936, Note_on_c, 0, 86, 60
1, 562938, Note_off_c, 0, 82, 60
1, 562957, Note_on_c, 0, 53, 41
1, 562963, Control_c, 0, 64, 28
1, 562975, Note_on_c, 0, 74, 41
1, 562978, Control_c, 0, 64, 33
1, 562993, Control_c, 0, 64, 45
1, 563008, Control_c, 0, 64, 61
1, 563023, Control_c, 0, 64, 73
1, 563026, Note_off_c, 0, 74, 64
1, 563037, Control_c, 0, 64, 95
1, 563052, Control_c, 0, 64, 127
1, 563076, Note_off_c, 0, 53, 37
1, 563083, Note_on_c, 0, 65, 38
1, 563131, Note_off_c, 0, 65, 47
1, 563186, Note_on_c, 0, 62, 43
1, 563259, Note_on_c, 0, 65, 53
1, 563308, Note_off_c, 0, 62, 48
1, 563318, Note_off_c, 0, 65, 53
1, 563338, Note_on_c, 0, 53, 56
1, 563382, Note_off_c, 0, 53, 50
1, 563386, Control_c, 0, 64, 98
1, 563401, Control_c, 0, 64, 81
1, 563416, Control_c, 0, 64, 71
1, 563431, Control_c, 0, 64, 64
1, 563446, Control_c, 0, 64, 57
1, 563449, Note_on_c, 0, 67, 47
1, 563461, Control_c, 0, 64, 51
1, 563475, Control_c, 0, 64, 46
1, 563490, Control_c, 0, 64, 41
1, 563503, Note_off_c, 0, 67, 57
1, 563505, Control_c, 0, 64, 33
1, 563520, Control_c, 0, 64, 0
1, 563531, Note_on_c, 0, 63, 45
1, 563579, Note_off_c, 0, 63, 55
1, 563592, Note_on_c, 0, 84, 41
1, 563593, Control_c, 0, 64, 28
1, 563608, Control_c, 0, 64, 35
1, 563619, Note_on_c, 0, 67, 53
1, 563623, Control_c, 0, 64, 47
1, 563633, Note_off_c, 0, 86, 65
1, 563638, Control_c, 0, 64, 62
1, 563653, Control_c, 0, 64, 74
1, 563657, Note_off_c, 0, 67, 60
1, 563667, Control_c, 0, 64, 93
1, 563681, Poly_aftertouch_c, 0, 72, 0
1, 563682, Note_off_c, 0, 84, 59
1, 563682, Control_c, 0, 64, 110
1, 563697, Control_c, 0, 64, 127
1, 563715, Note_on_c, 0, 82, 66
1, 563729, Note_on_c, 0, 53, 52
1, 563734, Note_on_c, 0, 70, 49
1, 563741, Note_off_c, 0, 82, 65
1, 563757, Note_off_c, 0, 70, 59
1, 563773, Note_off_c, 0, 53, 58
1, 563825, Note_on_c, 0, 65, 45
1, 563869, Note_off_c, 0, 65, 47
1, 563921, Note_on_c, 0, 62, 49
1, 564001, Note_on_c, 0, 65, 55
1, 564099, Note_on_c, 0, 79, 74
1, 564100, Note_off_c, 0, 65, 53
1, 564105, Control_c, 0, 64, 99
1, 564113, Note_on_c, 0, 53, 61
1, 564120, Control_c, 0, 64, 74
1, 564135, Control_c, 0, 64, 57
1, 564144, Note_off_c, 0, 62, 42
1, 564150, Control_c, 0, 64, 37
1, 564164, Control_c, 0, 64, 0
1, 564221, Note_on_c, 0, 67, 63
1, 564242, Note_off_c, 0, 53, 39
1, 564292, Note_off_c, 0, 67, 61
1, 564319, Note_on_c, 0, 63, 54
1, 564393, Note_on_c, 0, 67, 60
1, 564439, Note_off_c, 0, 67, 54
1, 564465, Note_on_c, 0, 77, 77
1, 564480, Note_off_c, 0, 63, 35
1, 564499, Note_on_c, 0, 53, 53
1, 564526, Note_off_c, 0, 79, 65
1, 564579, Control_c, 0, 64, 35
1, 564593, Control_c, 0, 64, 56
1, 564595, Note_on_c, 0, 65, 49
1, 564608, Control_c, 0, 64, 67
1, 564623, Control_c, 0, 64, 75
1, 564638, Control_c, 0, 64, 85
1, 564647, Note_off_c, 0, 65, 51
1, 564653, Control_c, 0, 64, 95
1, 564675, Control_c, 0, 64, 127
1, 564682, Note_off_c, 0, 53, 56
1, 564692, Note_on_c, 0, 62, 56
1, 564788, Note_on_c, 0, 65, 63
1, 564794, Control_c, 0, 67, 111
1, 564809, Control_c, 0, 67, 95
1, 564824, Control_c, 0, 67, 83
1, 564826, Note_off_c, 0, 62, 46
1, 564837, Note_off_c, 0, 65, 58
1, 564838, Control_c, 0, 67, 77
1, 564876, Note_on_c, 0, 53, 60
1, 564912, Note_off_c, 0, 53, 55
1, 564912, Control_c, 0, 64, 90
1, 564912, Control_c, 0, 67, 81
1, 564927, Control_c, 0, 64, 73
1, 564927, Control_c, 0, 67, 90
1, 564942, Control_c, 0, 64, 60
1, 564942, Control_c, 0, 67, 99
1, 564957, Control_c, 0, 64, 44
1, 564957, Control_c, 0, 67, 104
1, 564966, Note_on_c, 0, 67, 64
1, 564972, Control_c, 0, 64, 0
1, 564972, Control_c, 0, 67, 111
1, 564987, Control_c, 0, 67, 127
1, 565012, Note_off_c, 0, 67, 59
1, 565054, Note_on_c, 0, 63, 64
1, 565130, Note_on_c, 0, 67, 61
1, 565135, Note_off_c, 0, 63, 56
1, 565139, Note_off_c, 0, 77, 64
1, 565143, Note_on_c, 0, 79, 67
1, 565187, Note_off_c, 0, 67, 58
1, 565194, Control_c, 0, 64, 41
1, 565209, Control_c, 0, 64, 63
1, 565215, Note_off_c, 0, 79, 62
1, 565224, Control_c, 0, 64, 79
1, 565225, Note_on_c, 0, 77, 76
1, 565238, Control_c, 0, 64, 127
1, 565242, Note_on_c, 0, 53, 59
1, 565268, Note_off_c, 0, 77, 60
1, 565268, Control_c, 0, 67, 120
1, 565283, Control_c, 0, 67, 96
1, 565298, Control_c, 0, 67, 65
1, 565312, Control_c, 0, 67, 0
1, 565324, Note_off_c, 0, 53, 53
1, 565339, Note_on_c, 0, 65, 60
1, 565403, Note_off_c, 0, 65, 58
1, 565429, Note_on_c, 0, 62, 59
1, 565524, Note_on_c, 0, 65, 60
1, 565567, Note_off_c, 0, 65, 53
1, 565590, Note_on_c, 0, 82, 71
1, 565592, Note_off_c, 0, 62, 53
1, 565607, Note_on_c, 0, 53, 67
1, 565623, Note_off_c, 0, 82, 60
1, 565649, Note_on_c, 0, 84, 70
1, 565667, Note_off_c, 0, 53, 60
1, 565671, Note_off_c, 0, 84, 67
1, 565705, Note_on_c, 0, 82, 79
1, 565706, Control_c, 0, 64, 82
1, 565721, Control_c, 0, 64, 55
1, 565732, Note_on_c, 0, 67, 46
1, 565735, Control_c, 0, 64, 0
1, 565738, Note_off_c, 0, 82, 58
1, 565750, Note_on_c, 0, 84, 77
1, 565782, Note_on_c, 0, 86, 26
1, 565786, Note_off_c, 0, 67, 61
1, 565795, Note_on_c, 0, 82, 82
1, 565799, Note_off_c, 0, 84, 62
1, 565800, Note_on_c, 0, 63, 59
1, 565819, Note_off_c, 0, 86, 31
1, 565837, Note_on_c, 0, 81, 67
1, 565837, Note_off_c, 0, 82, 62
1, 565886, Note_off_c, 0, 81, 65
1, 565892, Note_on_c, 0, 67, 53
1, 565894, Note_on_c, 0, 82, 77
1, 565949, Note_off_c, 0, 67, 59
1, 565956, Note_off_c, 0, 63, 45
1, 565986, Note_on_c, 0, 86, 85
1, 565999, Note_on_c, 0, 53, 59
1, 566004, Note_off_c, 0, 82, 63
1, 566011, Note_on_c, 0, 74, 66
1, 566045, Note_off_c, 0, 74, 51
1, 566047, Control_c, 0, 64, 45
1, 566061, Control_c, 0, 64, 64
1, 566076, Control_c, 0, 64, 83
1, 566088, Note_on_c, 0, 65, 64
1, 566091, Control_c, 0, 64, 127
1, 566141, Note_off_c, 0, 53, 49
1, 566147, Note_off_c, 0, 65, 52
1, 566179, Note_on_c, 0, 62, 68
1, 566270, Note_on_c, 0, 65, 64
1, 566317, Note_off_c, 0, 62, 57
1, 566339, Note_off_c, 0, 65, 57
1, 566358, Note_on_c, 0, 53, 66
1, 566414, Note_off_c, 0, 53, 54
1, 566450, Note_on_c, 0, 67, 63
1, 566529, Note_off_c, 0, 67, 60
1, 566533, Note_on_c, 0, 63, 68
1, 566559, Control_c, 0, 64, 110
1, 566573, Control_c, 0, 64, 76
1, 566588, Control_c, 0, 64, 60
1, 566603, Control_c, 0, 64, 48
1, 566616, Note_on_c, 0, 84, 74
1, 566618, Control_c, 0, 64, 51
1, 566620, Note_on_c, 0, 67, 70
1, 566632, Control_c, 0, 64, 62
1, 566647, Control_c, 0, 64, 77
1, 566662, Control_c, 0, 64, 127
1, 566672, Note_off_c, 0, 86, 61
1, 566701, Note_off_c, 0, 67, 59
1, 566722, Note_off_c, 0, 63, 29
1, 566729, Note_on_c, 0, 82, 91
1, 566735, Note_on_c, 0, 70, 81
1, 566740, Note_off_c, 0, 84, 64
1, 566744, Note_on_c, 0, 53, 61
1, 566756, Note_off_c, 0, 70, 72
1, 566770, Note_off_c, 0, 82, 59
1, 566832, Note_on_c, 0, 65, 65
1, 566838, Note_off_c, 0, 53, 56
1, 566905, Note_off_c, 0, 65, 55
1, 566924, Note_on_c, 0, 62, 66
1, 567018, Note_on_c, 0, 65, 66
1, 567115, Note_on_c, 0, 79, 72
1, 567118, Note_off_c, 0, 65, 54
1, 567128, Note_on_c, 0, 75, 61
1, 567130, Note_on_c, 0, 53, 61
1, 567140, Note_off_c, 0, 62, 55
1, 567151, Note_on_c, 0, 70, 44
1, 567160, Control_c, 0, 64, 90
1, 567174, Control_c, 0, 64, 63
1, 567189, Control_c, 0, 64, 37
1, 567204, Control_c, 0, 64, 0
1, 567234, Control_c, 0, 64, 35
1, 567249, Control_c, 0, 64, 56
1, 567257, Note_on_c, 0, 67, 62
1, 567264, Control_c, 0, 64, 73
1, 567279, Control_c, 0, 64, 106
1, 567294, Control_c, 0, 64, 127
1, 567322, Note_off_c, 0, 75, 63
1, 567331, Note_on_c, 0, 63, 70
1, 567332, Note_off_c, 0, 67, 60
1, 567338, Note_off_c, 0, 53, 36
1, 567344, Note_off_c, 0, 70, 40
1, 567420, Note_on_c, 0, 67, 67
1, 567436, Note_off_c, 0, 79, 62
1, 567456, Note_off_c, 0, 63, 60
1, 567470, Note_off_c, 0, 67, 56
1, 567508, Note_on_c, 0, 77, 81
1, 567515, Note_on_c, 0, 53, 73
1, 567520, Note_on_c, 0, 74, 56
1, 567529, Note_on_c, 0, 70, 53
1, 567545, Control_c, 0, 64, 77
1, 567559, Control_c, 0, 64, 53
1, 567574, Control_c, 0, 64, 0
1, 567597, Note_on_c, 0, 65, 70
1, 567619, Control_c, 0, 64, 42
1, 567634, Control_c, 0, 64, 69
1, 567649, Control_c, 0, 64, 109
1, 567671, Control_c, 0, 64, 127
1, 567688, Note_off_c, 0, 65, 60
1, 567688, Note_off_c, 0, 74, 27
1, 567700, Note_on_c, 0, 62, 70
1, 567741, Note_off_c, 0, 53, 55
1, 567783, Note_off_c, 0, 70, 42
1, 567790, Note_on_c, 0, 65, 77
1, 567825, Note_off_c, 0, 77, 63
1, 567875, Note_on_c, 0, 79, 81
1, 567881, Note_on_c, 0, 53, 70
1, 567881, Note_off_c, 0, 65, 58
1, 567884, Note_on_c, 0, 75, 87
1, 567888, Note_on_c, 0, 70, 74
1, 567897, Note_off_c, 0, 62, 60
1, 567908, Control_c, 0, 64, 75
1, 567923, Control_c, 0, 64, 49
1, 567938, Control_c, 0, 64, 0
1, 567983, Control_c, 0, 64, 50
1, 567995, Note_on_c, 0, 67, 77
1, 567997, Control_c, 0, 64, 72
1, 568009, Note_off_c, 0, 70, 63
1, 568012, Control_c, 0, 64, 127
1, 568016, Note_off_c, 0, 79, 61
1, 568040, Note_off_c, 0, 75, 62
1, 568056, Note_off_c, 0, 53, 39
1, 568065, Note_off_c, 0, 67, 60
1, 568089, Note_on_c, 0, 63, 76
1, 568165, Note_on_c, 0, 67, 82
1, 568223, Note_off_c, 0, 63, 56
1, 568236, Note_off_c, 0, 67, 54
1, 568249, Control_c, 0, 64, 101
1, 568257, Note_on_c, 0, 82, 89
1, 568263, Control_c, 0, 64, 69
1, 568265, Note_on_c, 0, 77, 80
1, 568270, Note_on_c, 0, 70, 71
1, 568273, Note_on_c, 0, 53, 75
1, 568278, Note_on_c, 0, 74, 69
1, 568278, Control_c, 0, 64, 49
1, 568293, Control_c, 0, 64, 37
1, 568308, Control_c, 0, 64, 41
1, 568311, Note_off_c, 0, 70, 65
1, 568323, Control_c, 0, 64, 55
1, 568337, Control_c, 0, 64, 71
1, 568352, Control_c, 0, 64, 127
1, 568358, Note_off_c, 0, 74, 62
1, 568367, Note_on_c, 0, 65, 80
1, 568379, Note_off_c, 0, 77, 63
1, 568400, Note_off_c, 0, 82, 62
1, 568459, Note_off_c, 0, 65, 60
1, 568468, Note_on_c, 0, 62, 72
1, 568498, Note_off_c, 0, 53, 51
1, 568580, Note_on_c, 0, 65, 78
1, 568656, Control_c, 0, 64, 90
1, 568659, Note_on_c, 0, 84, 89
1, 568668, Note_on_c, 0, 72, 72
1, 568668, Note_on_c, 0, 77, 79
1, 568670, Note_on_c, 0, 81, 79
1, 568671, Control_c, 0, 64, 67
1, 568686, Control_c, 0, 64, 43
1, 568689, Note_on_c, 0, 53, 75
1, 568701, Control_c, 0, 64, 0
1, 568713, Note_off_c, 0, 65, 61
1, 568726, Note_off_c, 0, 62, 61
1, 568774, Note_off_c, 0, 72, 56
1, 568791, Control_c, 0, 64, 40
1, 568803, Note_on_c, 0, 65, 88
1, 568805, Control_c, 0, 64, 57
1, 568820, Control_c, 0, 64, 73
1, 568835, Control_c, 0, 64, 106
1, 568850, Control_c, 0, 64, 127
1, 568888, Note_off_c, 0, 84, 59
1, 568892, Note_off_c, 0, 77, 61
1, 568910, Note_off_c, 0, 81, 62
1, 568911, Note_on_c, 0, 63, 88
1, 568925, Note_off_c, 0, 65, 61
1, 569029, Note_on_c, 0, 65, 84
1, 569039, Note_off_c, 0, 53, 38
1, 569086, Note_off_c, 0, 63, 57
1, 569119, Note_off_c, 0, 65, 60
1, 569336, Note_on_c, 0, 84, 81
1, 569353, Note_on_c, 0, 63, 63
1, 569356, Note_on_c, 0, 53, 58
1, 569360, Note_on_c, 0, 72, 52
1, 569360, Note_on_c, 0, 81, 66
1, 569363, Note_on_c, 0, 65, 58
1, 569366, Note_on_c, 0, 77, 53
1, 569449, Control_c, 0, 64, 86
1, 569464, Control_c, 0, 64, 69
1, 569479, Control_c, 0, 64, 53
1, 569494, Control_c, 0, 64, 38
1, 569494, Control_c, 0, 67, 41
1, 569509, Control_c, 0, 64, 0
1, 569509, Control_c, 0, 67, 77
1, 569524, Control_c, 0, 67, 110
1, 569539, Control_c, 0, 67, 125
1, 569554, Control_c, 0, 67, 127
1, 569628, Control_c, 0, 64, 34
1, 569637, Note_off_c, 0, 72, 48
1, 569643, Control_c, 0, 64, 37
1, 569688, Control_c, 0, 64, 38
1, 569702, Control_c, 0, 64, 45
1, 569717, Control_c, 0, 64, 54
1, 569732, Control_c, 0, 64, 58
1, 569761, Control_c, 0, 64, 59
1, 569773, Note_off_c, 0, 77, 61
1, 569776, Control_c, 0, 64, 63
1, 569791, Control_c, 0, 64, 67
1, 569806, Control_c, 0, 64, 73
1, 569808, Note_off_c, 0, 81, 44
1, 569821, Control_c, 0, 64, 79
1, 569835, Control_c, 0, 64, 86
1, 569850, Control_c, 0, 64, 92
1, 569865, Control_c, 0, 64, 100
1, 569880, Control_c, 0, 64, 118
1, 569895, Control_c, 0, 64, 127
1, 570455, Note_on_c, 0, 81, 52
1, 570549, Note_off_c, 0, 65, 58
1, 570562, Note_off_c, 0, 53, 38
1, 570600, Note_off_c, 0, 63, 62
1, 570615, Note_on_c, 0, 77, 54
1, 570624, Note_off_c, 0, 81, 56
1, 570629, Note_off_c, 0, 84, 34
1, 570724, Note_off_c, 0, 77, 58
1, 570765, Note_on_c, 0, 72, 52
1, 570892, Note_on_c, 0, 77, 57
1, 570952, Note_off_c, 0, 72, 32
1, 571044, Note_off_c, 0, 77, 60
1, 571050, Note_on_c, 0, 81, 53
1, 571151, Note_on_c, 0, 84, 53
1, 571155, Note_off_c, 0, 81, 58
1, 571184, Note_off_c, 0, 84, 64
1, 571304, Control_c, 0, 64, 106
1, 571310, Note_on_c, 0, 82, 66
1, 571318, Note_on_c, 0, 58, 43
1, 571319, Control_c, 0, 64, 74
1, 571327, Note_on_c, 0, 62, 41
1, 571333, Control_c, 0, 64, 62
1, 571344, Note_on_c, 0, 65, 19
1, 571348, Control_c, 0, 64, 57
1, 571363, Control_c, 0, 64, 59
1, 571378, Control_c, 0, 64, 66
1, 571393, Control_c, 0, 64, 77
1, 571415, Control_c, 0, 64, 121
1, 571430, Control_c, 0, 64, 127
1, 571470, Note_off_c, 0, 58, 61
1, 571479, Note_on_c, 0, 89, 70
1, 571490, Note_off_c, 0, 82, 57
1, 571506, Note_off_c, 0, 65, 37
1, 571529, Note_off_c, 0, 62, 41
1, 571533, Note_off_c, 0, 89, 60
1, 571606, Note_on_c, 0, 86, 64
1, 571636, Note_off_c, 0, 86, 63
1, 571697, Control_c, 0, 64, 81
1, 571712, Control_c, 0, 64, 57
1, 571727, Control_c, 0, 64, 0
1, 571730, Note_on_c, 0, 82, 61
1, 571765, Note_off_c, 0, 82, 62
1, 571861, Note_on_c, 0, 77, 57
1, 571887, Note_off_c, 0, 77, 66
1, 571981, Note_on_c, 0, 74, 60
1, 571999, Note_off_c, 0, 74, 63
1, 572108, Note_on_c, 0, 65, 60
1, 572114, Note_on_c, 0, 58, 47
1, 572114, Note_on_c, 0, 62, 44
1, 572129, Note_off_c, 0, 65, 64
1, 572139, Note_on_c, 0, 70, 51
1, 572139, Note_off_c, 0, 58, 55
1, 572142, Note_off_c, 0, 62, 56
1, 572168, Note_off_c, 0, 70, 63
1, 572259, Note_on_c, 0, 74, 61
1, 572288, Note_off_c, 0, 74, 64
1, 572379, Note_on_c, 0, 77, 54
1, 572398, Note_off_c, 0, 77, 61
1, 572495, Note_on_c, 0, 58, 68
1, 572498, Note_on_c, 0, 68, 65
1, 572510, Note_on_c, 0, 74, 68
1, 572520, Note_off_c, 0, 58, 66
1, 572521, Note_off_c, 0, 68, 69
1, 572548, Note_off_c, 0, 74, 61
1, 572636, Note_on_c, 0, 77, 47
1, 572670, Note_off_c, 0, 77, 53
1, 572753, Note_on_c, 0, 82, 54
1, 572773, Note_off_c, 0, 82, 62
1, 572846, Control_c, 0, 64, 28
1, 572860, Control_c, 0, 64, 48
1, 572875, Control_c, 0, 64, 62
1, 572890, Control_c, 0, 64, 67
1, 572910, Note_on_c, 0, 82, 60
1, 572912, Control_c, 0, 64, 72
1, 572927, Control_c, 0, 64, 76
1, 572940, Note_on_c, 0, 63, 40
1, 572942, Control_c, 0, 64, 82
1, 572949, Note_on_c, 0, 58, 41
1, 572955, Note_on_c, 0, 67, 33
1, 572957, Control_c, 0, 64, 93
1, 572972, Control_c, 0, 64, 111
1, 572986, Control_c, 0, 64, 127
1, 573026, Note_off_c, 0, 67, 61
1, 573027, Note_off_c, 0, 63, 61
1, 573029, Note_off_c, 0, 58, 60
1, 573044, Note_off_c, 0, 82, 57
1, 573083, Note_on_c, 0, 91, 69
1, 573140, Note_off_c, 0, 91, 57
1, 573205, Note_on_c, 0, 87, 71
1, 573232, Note_off_c, 0, 87, 63
1, 573283, Control_c, 0, 64, 104
1, 573297, Control_c, 0, 64, 67
1, 573312, Control_c, 0, 64, 0
1, 573336, Note_on_c, 0, 82, 65
1, 573360, Note_off_c, 0, 82, 69
1, 573467, Note_on_c, 0, 79, 38
1, 573493, Note_off_c, 0, 79, 58
1, 573575, Note_on_c, 0, 75, 59
1, 573604, Note_off_c, 0, 75, 66
1, 573712, Note_on_c, 0, 58, 60
1, 573712, Note_on_c, 0, 67, 60
1, 573715, Note_on_c, 0, 63, 54
1, 573715, Note_on_c, 0, 70, 54
1, 573732, Note_off_c, 0, 67, 63
1, 573733, Note_off_c, 0, 58, 64
1, 573737, Note_off_c, 0, 63, 58
1, 573739, Note_off_c, 0, 70, 65
1, 573849, Note_on_c, 0, 75, 50
1, 573874, Note_off_c, 0, 75, 60
1, 573968, Note_on_c, 0, 79, 44
1, 573991, Note_off_c, 0, 79, 60
1, 574079, Note_on_c, 0, 70, 76
1, 574084, Note_on_c, 0, 58, 65
1, 574084, Note_on_c, 0, 67, 61
1, 574097, Note_on_c, 0, 75, 58
1, 574100, Note_off_c, 0, 70, 72
1, 574103, Note_off_c, 0, 67, 63
1, 574113, Note_off_c, 0, 58, 63
1, 574128, Note_off_c, 0, 75, 65
1, 574207, Note_on_c, 0, 78, 65
1, 574255, Note_on_c, 0, 79, 25
1, 574258, Note_off_c, 0, 78, 37
1, 574293, Note_off_c, 0, 79, 52
1, 574329, Note_on_c, 0, 82, 72
1, 574351, Note_off_c, 0, 82, 70
1, 574440, Control_c, 0, 64, 41
1, 574455, Control_c, 0, 64, 56
1, 574470, Control_c, 0, 64, 65
1, 574485, Control_c, 0, 64, 82
1, 574489, Note_on_c, 0, 82, 71
1, 574494, Note_on_c, 0, 65, 70
1, 574498, Note_on_c, 0, 62, 62
1, 574500, Control_c, 0, 64, 127
1, 574505, Note_on_c, 0, 58, 58
1, 574523, Note_off_c, 0, 65, 65
1, 574533, Note_off_c, 0, 62, 64
1, 574536, Note_off_c, 0, 58, 64
1, 574602, Note_off_c, 0, 82, 55
1, 574621, Note_on_c, 0, 94, 68
1, 574692, Control_c, 0, 67, 110
1, 574707, Control_c, 0, 67, 96
1, 574714, Note_off_c, 0, 94, 61
1, 574722, Control_c, 0, 67, 83
1, 574737, Control_c, 0, 67, 71
1, 574751, Control_c, 0, 67, 57
1, 574756, Note_on_c, 0, 89, 74
1, 574766, Control_c, 0, 67, 40
1, 574781, Control_c, 0, 67, 0
1, 574809, Note_off_c, 0, 89, 61
1, 574855, Control_c, 0, 64, 108
1, 574867, Note_on_c, 0, 86, 79
1, 574870, Control_c, 0, 64, 68
1, 574884, Control_c, 0, 64, 0
1, 574892, Note_off_c, 0, 86, 66
1, 574993, Note_on_c, 0, 82, 70
1, 575018, Control_c, 0, 67, 33
1, 575020, Note_off_c, 0, 82, 64
1, 575033, Control_c, 0, 67, 50
1, 575047, Control_c, 0, 67, 56
1, 575062, Control_c, 0, 67, 54
1, 575077, Control_c, 0, 67, 56
1, 575092, Control_c, 0, 67, 61
1, 575099, Note_on_c, 0, 77, 67
1, 575107, Control_c, 0, 67, 73
1, 575122, Control_c, 0, 67, 90
1, 575128, Note_off_c, 0, 77, 67
1, 575137, Control_c, 0, 67, 95
1, 575160, Control_c, 0, 67, 97
1, 575174, Control_c, 0, 67, 106
1, 575189, Control_c, 0, 67, 127
1, 575250, Note_on_c, 0, 62, 60
1, 575252, Note_on_c, 0, 58, 55
1, 575271, Note_off_c, 0, 62, 64
1, 575277, Note_off_c, 0, 58, 58
1, 575372, Note_on_c, 0, 70, 55
1, 575393, Note_off_c, 0, 70, 63
1, 575492, Note_on_c, 0, 65, 53
1, 575518, Note_off_c, 0, 65, 62
1, 575605, Note_on_c, 0, 70, 63
1, 575622, Note_on_c, 0, 65, 58
1, 575624, Note_on_c, 0, 62, 61
1, 575637, Note_off_c, 0, 70, 63
1, 575645, Note_off_c, 0, 62, 64
1, 575650, Note_off_c, 0, 65, 65
1, 575750, Note_on_c, 0, 74, 65
1, 575792, Note_off_c, 0, 74, 56
1, 575857, Note_on_c, 0, 77, 57
1, 575887, Note_off_c, 0, 77, 64
1, 575983, Control_c, 0, 64, 30
1, 575997, Control_c, 0, 64, 49
1, 576012, Control_c, 0, 64, 61
1, 576016, Note_on_c, 0, 77, 53
1, 576024, Note_on_c, 0, 62, 46
1, 576027, Control_c, 0, 64, 64
1, 576029, Note_on_c, 0, 53, 41
1, 576040, Note_on_c, 0, 65, 34
1, 576042, Control_c, 0, 64, 65
1, 576057, Control_c, 0, 64, 66
1, 576059, Note_off_c, 0, 62, 64
1, 576070, Note_off_c, 0, 53, 63
1, 576072, Control_c, 0, 64, 69
1, 576072, Note_off_c, 0, 65, 55
1, 576086, Control_c, 0, 64, 73
1, 576101, Control_c, 0, 64, 76
1, 576116, Control_c, 0, 64, 78
1, 576147, Note_on_c, 0, 82, 58
1, 576160, Control_c, 0, 64, 77
1, 576173, Note_off_c, 0, 77, 59
1, 576175, Control_c, 0, 64, 69
1, 576184, Note_off_c, 0, 82, 59
1, 576190, Control_c, 0, 64, 56
1, 576204, Control_c, 0, 64, 0
1, 576279, Note_on_c, 0, 82, 61
1, 576311, Note_off_c, 0, 82, 61
1, 576396, Control_c, 0, 64, 40
1, 576406, Note_on_c, 0, 79, 50
1, 576409, Note_on_c, 0, 53, 44
1, 576411, Control_c, 0, 64, 56
1, 576420, Note_on_c, 0, 67, 43
1, 576423, Note_on_c, 0, 63, 35
1, 576426, Control_c, 0, 64, 60
1, 576441, Control_c, 0, 64, 61
1, 576454, Note_off_c, 0, 63, 62
1, 576456, Control_c, 0, 64, 62
1, 576457, Note_off_c, 0, 67, 64
1, 576458, Note_off_c, 0, 53, 60
1, 576470, Control_c, 0, 64, 64
1, 576485, Control_c, 0, 64, 66
1, 576500, Control_c, 0, 64, 67
1, 576529, Control_c, 0, 64, 65
1, 576538, Note_on_c, 0, 84, 58
1, 576544, Control_c, 0, 64, 56
1, 576559, Control_c, 0, 64, 30
1, 576565, Note_off_c, 0, 79, 48
1, 576571, Note_off_c, 0, 84, 64
1, 576574, Control_c, 0, 64, 0
1, 576671, Note_on_c, 0, 84, 60
1, 576690, Note_off_c, 0, 84, 67
1, 576800, Note_on_c, 0, 77, 62
1, 576802, Note_on_c, 0, 62, 46
1, 576806, Note_on_c, 0, 53, 46
1, 576806, Note_on_c, 0, 65, 45
1, 576820, Control_c, 0, 64, 31
1, 576834, Control_c, 0, 64, 41
1, 576841, Note_off_c, 0, 65, 60
1, 576849, Note_off_c, 0, 62, 62
1, 576849, Control_c, 0, 64, 54
1, 576863, Note_off_c, 0, 53, 57
1, 576864, Control_c, 0, 64, 63
1, 576879, Control_c, 0, 64, 65
1, 576908, Control_c, 0, 64, 64
1, 576933, Note_on_c, 0, 82, 57
1, 576938, Control_c, 0, 64, 64
1, 576952, Control_c, 0, 64, 62
1, 576963, Note_off_c, 0, 77, 56
1, 576967, Note_off_c, 0, 82, 64
1, 576967, Control_c, 0, 64, 57
1, 576982, Control_c, 0, 64, 46
1, 576997, Control_c, 0, 64, 30
1, 577012, Control_c, 0, 64, 0
1, 577053, Note_on_c, 0, 82, 64
1, 577080, Note_off_c, 0, 82, 66
1, 577179, Note_on_c, 0, 63, 50
1, 577188, Note_on_c, 0, 53, 36
1, 577189, Note_on_c, 0, 60, 41
1, 577195, Note_on_c, 0, 77, 53
1, 577205, Control_c, 0, 64, 35
1, 577219, Control_c, 0, 64, 47
1, 577234, Control_c, 0, 64, 56
1, 577249, Control_c, 0, 64, 58
1, 577253, Note_off_c, 0, 63, 63
1, 577264, Note_off_c, 0, 60, 64
1, 577264, Control_c, 0, 64, 59
1, 577271, Note_off_c, 0, 53, 59
1, 577278, Control_c, 0, 64, 61
1, 577293, Control_c, 0, 64, 62
1, 577308, Control_c, 0, 64, 62
1, 577320, Note_on_c, 0, 81, 55
1, 577323, Control_c, 0, 64, 61
1, 577337, Note_off_c, 0, 77, 46
1, 577338, Control_c, 0, 64, 49
1, 577352, Note_off_c, 0, 81, 65
1, 577352, Control_c, 0, 64, 31
1, 577367, Control_c, 0, 64, 0
1, 577445, Note_on_c, 0, 81, 61
1, 577473, Note_off_c, 0, 81, 67
1, 577583, Control_c, 0, 64, 32
1, 577587, Note_on_c, 0, 77, 59
1, 577595, Note_on_c, 0, 62, 51
1, 577597, Note_on_c, 0, 53, 47
1, 577598, Control_c, 0, 64, 46
1, 577602, Note_on_c, 0, 59, 47
1, 577613, Control_c, 0, 64, 56
1, 577628, Control_c, 0, 64, 60
1, 577643, Control_c, 0, 64, 61
1, 577644, Note_off_c, 0, 62, 61
1, 577653, Note_off_c, 0, 59, 64
1, 577655, Note_off_c, 0, 53, 58
1, 577657, Control_c, 0, 64, 61
1, 577672, Control_c, 0, 64, 62
1, 577701, Control_c, 0, 64, 60
1, 577716, Control_c, 0, 64, 55
1, 577718, Note_on_c, 0, 80, 65
1, 577727, Note_off_c, 0, 77, 38
1, 577731, Control_c, 0, 64, 52
1, 577744, Note_off_c, 0, 80, 68
1, 577746, Control_c, 0, 64, 51
1, 577761, Control_c, 0, 64, 50
1, 577775, Control_c, 0, 64, 48
1, 577790, Control_c, 0, 64, 47
1, 577820, Control_c, 0, 64, 48
1, 577832, Note_on_c, 0, 80, 74
1, 577835, Control_c, 0, 64, 52
1, 577850, Control_c, 0, 64, 52
1, 577853, Note_off_c, 0, 80, 70
1, 577894, Control_c, 0, 64, 53
1, 577924, Control_c, 0, 64, 52
1, 577939, Control_c, 0, 64, 47
1, 577954, Control_c, 0, 64, 43
1, 577972, Note_on_c, 0, 59, 65
1, 577973, Note_on_c, 0, 62, 65
1, 577978, Note_on_c, 0, 53, 52
1, 577979, Note_on_c, 0, 74, 77
1, 577983, Control_c, 0, 64, 45
1, 577998, Control_c, 0, 64, 52
1, 578009, Note_on_c, 0, 71, 53
1, 578013, Control_c, 0, 64, 59
1, 578028, Control_c, 0, 64, 63
1, 578037, Note_off_c, 0, 62, 52
1, 578041, Note_off_c, 0, 71, 51
1, 578042, Control_c, 0, 64, 64
1, 578057, Control_c, 0, 64, 65
1, 578068, Note_off_c, 0, 53, 61
1, 578072, Control_c, 0, 64, 67
1, 578080, Note_off_c, 0, 59, 63
1, 578081, Note_off_c, 0, 74, 64
1, 578087, Control_c, 0, 64, 70
1, 578101, Control_c, 0, 64, 72
1, 578103, Note_on_c, 0, 79, 75
1, 578116, Control_c, 0, 64, 73
1, 578133, Note_off_c, 0, 79, 62
1, 578154, Control_c, 0, 64, 73
1, 578169, Control_c, 0, 64, 71
1, 578183, Control_c, 0, 64, 67
1, 578198, Control_c, 0, 64, 61
1, 578213, Control_c, 0, 64, 55
1, 578228, Control_c, 0, 64, 53
1, 578257, Control_c, 0, 64, 55
1, 578263, Note_on_c, 0, 80, 21
1, 578272, Control_c, 0, 64, 58
1, 578287, Control_c, 0, 64, 59
1, 578300, Note_off_c, 0, 80, 30
1, 578301, Control_c, 0, 64, 58
1, 578316, Control_c, 0, 64, 58
1, 578332, Control_c, 0, 64, 56
1, 578347, Control_c, 0, 64, 54
1, 578362, Control_c, 0, 64, 54
1, 578377, Control_c, 0, 64, 55
1, 578392, Control_c, 0, 64, 60
1, 578397, Note_on_c, 0, 53, 67
1, 578399, Note_on_c, 0, 59, 65
1, 578399, Note_on_c, 0, 62, 69
1, 578401, Note_on_c, 0, 74, 73
1, 578406, Control_c, 0, 64, 67
1, 578421, Control_c, 0, 64, 74
1, 578436, Control_c, 0, 64, 81
1, 578437, Note_on_c, 0, 71, 48
1, 578451, Control_c, 0, 64, 83
1, 578452, Note_off_c, 0, 53, 53
1, 578455, Note_off_c, 0, 62, 60
1, 578471, Note_off_c, 0, 71, 59
1, 578481, Note_off_c, 0, 74, 58
1, 578487, Note_off_c, 0, 59, 58
1, 578494, Control_c, 0, 64, 83
1, 578511, Note_on_c, 0, 80, 79
1, 578523, Control_c, 0, 64, 84
1, 578538, Control_c, 0, 64, 84
1, 578555, Note_off_c, 0, 80, 57
1, 578613, Control_c, 0, 64, 84
1, 578628, Control_c, 0, 64, 80
1, 578636, Note_on_c, 0, 80, 75
1, 578642, Control_c, 0, 64, 73
1, 578657, Control_c, 0, 64, 64
1, 578666, Note_off_c, 0, 80, 59
1, 578672, Control_c, 0, 64, 56
1, 578687, Control_c, 0, 64, 46
1, 578702, Control_c, 0, 64, 30
1, 578716, Control_c, 0, 64, 0
1, 578773, Note_on_c, 0, 74, 71
1, 578775, Note_on_c, 0, 59, 58
1, 578776, Control_c, 0, 64, 29
1, 578778, Note_on_c, 0, 53, 51
1, 578786, Note_on_c, 0, 62, 52
1, 578790, Control_c, 0, 64, 43
1, 578805, Control_c, 0, 64, 57
1, 578806, Note_on_c, 0, 71, 38
1, 578815, Note_off_c, 0, 59, 66
1, 578817, Note_off_c, 0, 62, 65
1, 578820, Control_c, 0, 64, 66
1, 578826, Note_off_c, 0, 53, 61
1, 578834, Control_c, 0, 64, 71
1, 578838, Note_off_c, 0, 71, 52
1, 578849, Control_c, 0, 64, 73
1, 578864, Control_c, 0, 64, 73
1, 578879, Control_c, 0, 64, 74
1, 578893, Note_off_c, 0, 74, 39
1, 578902, Control_c, 0, 64, 74
1, 578908, Note_on_c, 0, 79, 70
1, 578948, Note_off_c, 0, 79, 61
1, 578976, Control_c, 0, 64, 73
1, 578990, Control_c, 0, 64, 71
1, 579005, Control_c, 0, 64, 66
1, 579020, Control_c, 0, 64, 59
1, 579029, Note_on_c, 0, 79, 72
1, 579035, Control_c, 0, 64, 48
1, 579049, Control_c, 0, 64, 32
1, 579058, Note_off_c, 0, 79, 63
1, 579064, Control_c, 0, 64, 0
1, 579154, Control_c, 0, 64, 38
1, 579169, Control_c, 0, 64, 58
1, 579175, Note_on_c, 0, 75, 74
1, 579178, Note_on_c, 0, 63, 59
1, 579180, Note_on_c, 0, 58, 59
1, 579182, Note_on_c, 0, 51, 53
1, 579184, Control_c, 0, 64, 67
1, 579199, Control_c, 0, 64, 73
1, 579203, Note_off_c, 0, 58, 62
1, 579204, Note_off_c, 0, 63, 64
1, 579209, Note_off_c, 0, 51, 59
1, 579212, Note_on_c, 0, 70, 38
1, 579214, Control_c, 0, 64, 76
1, 579228, Control_c, 0, 64, 77
1, 579243, Control_c, 0, 64, 78
1, 579254, Note_off_c, 0, 70, 47
1, 579258, Control_c, 0, 64, 79
1, 579273, Control_c, 0, 64, 80
1, 579288, Control_c, 0, 64, 80
1, 579302, Note_on_c, 0, 80, 71
1, 579302, Control_c, 0, 64, 76
1, 579315, Note_off_c, 0, 75, 60
1, 579317, Control_c, 0, 64, 68
1, 579331, Note_off_c, 0, 80, 61
1, 579332, Control_c, 0, 64, 57
1, 579346, Control_c, 0, 64, 47
1, 579361, Control_c, 0, 64, 41
1, 579376, Control_c, 0, 64, 34
1, 579391, Control_c, 0, 64, 0
1, 579427, Note_on_c, 0, 80, 67
1, 579458, Note_off_c, 0, 80, 59
1, 579564, Note_on_c, 0, 51, 46
1, 579567, Note_on_c, 0, 58, 52
1, 579568, Note_on_c, 0, 75, 60
1, 579569, Control_c, 0, 64, 31
1, 579572, Note_on_c, 0, 63, 47
1, 579584, Control_c, 0, 64, 49
1, 579591, Note_off_c, 0, 58, 58
1, 579594, Note_off_c, 0, 51, 60
1, 579597, Note_off_c, 0, 63, 54
1, 579599, Control_c, 0, 64, 62
1, 579601, Note_on_c, 0, 70, 34
1, 579613, Control_c, 0, 64, 68
1, 579628, Control_c, 0, 64, 71
1, 579642, Note_off_c, 0, 70, 53
1, 579650, Control_c, 0, 64, 72
1, 579692, Note_on_c, 0, 79, 57
1, 579710, Control_c, 0, 64, 71
1, 579710, Note_off_c, 0, 75, 28
1, 579725, Control_c, 0, 64, 69
1, 579739, Control_c, 0, 64, 65
1, 579743, Note_off_c, 0, 79, 61
1, 579754, Control_c, 0, 64, 59
1, 579769, Control_c, 0, 64, 53
1, 579784, Control_c, 0, 64, 44
1, 579799, Control_c, 0, 64, 32
1, 579813, Control_c, 0, 64, 0
1, 579845, Note_on_c, 0, 79, 41
1, 579870, Note_off_c, 0, 79, 59
1, 579963, Control_c, 0, 64, 38
1, 579965, Note_on_c, 0, 53, 47
1, 579970, Note_on_c, 0, 74, 51
1, 579972, Note_on_c, 0, 58, 48
1, 579975, Note_on_c, 0, 62, 41
1, 579977, Control_c, 0, 64, 59
1, 579978, Note_on_c, 0, 70, 37
1, 579992, Control_c, 0, 64, 68
1, 579999, Note_off_c, 0, 58, 60
1, 580004, Note_off_c, 0, 53, 64
1, 580005, Note_off_c, 0, 62, 54
1, 580007, Control_c, 0, 64, 73
1, 580022, Control_c, 0, 64, 75
1, 580037, Control_c, 0, 64, 76
1, 580051, Control_c, 0, 64, 76
1, 580066, Control_c, 0, 64, 77
1, 580076, Note_off_c, 0, 70, 37
1, 580114, Note_off_c, 0, 74, 31
1, 580132, Note_on_c, 0, 77, 14
1, 580140, Control_c, 0, 64, 76
1, 580155, Control_c, 0, 64, 74
1, 580169, Control_c, 0, 64, 71
1, 580175, Note_off_c, 0, 77, 53
1, 580184, Control_c, 0, 64, 64
1, 580199, Control_c, 0, 64, 55
1, 580214, Control_c, 0, 64, 45
1, 580229, Control_c, 0, 64, 31
1, 580243, Control_c, 0, 64, 0
1, 580244, Note_on_c, 0, 77, 13
1, 580286, Note_off_c, 0, 77, 39
1, 580318, Control_c, 0, 64, 27
1, 580333, Control_c, 0, 64, 43
1, 580348, Control_c, 0, 64, 58
1, 580349, Note_on_c, 0, 72, 55
1, 580362, Control_c, 0, 64, 67
1, 580364, Note_on_c, 0, 60, 51
1, 580377, Note_on_c, 0, 53, 20
1, 580377, Control_c, 0, 64, 73
1, 580379, Note_on_c, 0, 63, 39
1, 580381, Note_on_c, 0, 69, 33
1, 580397, Note_off_c, 0, 60, 63
1, 580399, Control_c, 0, 64, 78
1, 580414, Control_c, 0, 64, 79
1, 580416, Note_off_c, 0, 63, 47
1, 580428, Note_off_c, 0, 53, 53
1, 580429, Control_c, 0, 64, 81
1, 580443, Control_c, 0, 64, 82
1, 580458, Control_c, 0, 64, 83
1, 580476, Note_off_c, 0, 69, 0
1, 580477, Note_off_c, 0, 72, 36
1, 580492, Note_on_c, 0, 77, 54
1, 580503, Control_c, 0, 64, 82
1, 580513, Poly_aftertouch_c, 0, 69, 127
1, 580517, Control_c, 0, 64, 82
1, 580523, Note_off_c, 0, 77, 53
1, 580532, Control_c, 0, 64, 80
1, 580547, Control_c, 0, 64, 76
1, 580562, Control_c, 0, 64, 72
1, 580567, Poly_aftertouch_c, 0, 69, 0
1, 580577, Control_c, 0, 64, 67
1, 580592, Control_c, 0, 64, 60
1, 580607, Control_c, 0, 64, 55
1, 580621, Control_c, 0, 64, 50
1, 580625, Note_on_c, 0, 77, 42
1, 580636, Control_c, 0, 64, 42
1, 580651, Control_c, 0, 64, 0
1, 580656, Note_off_c, 0, 77, 56
1, 580769, Note_on_c, 0, 77, 35
1, 580771, Control_c, 0, 64, 46
1, 580779, Note_on_c, 0, 58, 43
1, 580786, Control_c, 0, 64, 62
1, 580795, Note_on_c, 0, 74, 43
1, 580801, Control_c, 0, 64, 70
1, 580816, Control_c, 0, 64, 74
1, 580830, Control_c, 0, 64, 77
1, 580839, Note_on_c, 0, 70, 25
1, 580845, Control_c, 0, 64, 81
1, 580860, Note_off_c, 0, 58, 43
1, 580860, Control_c, 0, 64, 88
1, 580875, Control_c, 0, 64, 97
1, 580890, Control_c, 0, 64, 114
1, 580905, Control_c, 0, 64, 127
1, 580917, Note_on_c, 0, 65, 53
1, 580960, Note_off_c, 0, 65, 57
1, 581044, Note_on_c, 0, 62, 55
1, 581064, Note_off_c, 0, 70, 40
1, 581155, Note_on_c, 0, 58, 66
1, 581155, Note_off_c, 0, 62, 62
1, 581179, Control_c, 0, 64, 89
1, 581183, Note_off_c, 0, 58, 65
1, 581193, Control_c, 0, 64, 61
1, 581201, Note_off_c, 0, 74, 61
1, 581208, Control_c, 0, 64, 0
1, 581229, Note_off_c, 0, 77, 64
1, 581391, Note_on_c, 0, 50, 59
1, 581420, Note_off_c, 0, 50, 65
1, 581531, Note_on_c, 0, 46, 54
1, 581535, Note_on_c, 0, 82, 70
1, 581552, Note_on_c, 0, 77, 44
1, 581553, Note_on_c, 0, 74, 47
1, 581558, Note_off_c, 0, 46, 56
1, 581558, Note_off_c, 0, 82, 69
1, 581579, Note_off_c, 0, 74, 37
1, 581579, Note_off_c, 0, 77, 36
1, 581672, Note_on_c, 0, 50, 36
1, 581707, Note_off_c, 0, 50, 55
1, 581787, Note_on_c, 0, 53, 47
1, 581812, Note_off_c, 0, 53, 58
1, 581910, Note_on_c, 0, 50, 55
1, 581915, Note_on_c, 0, 82, 78
1, 581928, Note_on_c, 0, 80, 54
1, 581935, Note_off_c, 0, 82, 70
1, 581942, Note_on_c, 0, 77, 38
1, 581942, Note_off_c, 0, 50, 64
1, 581948, Note_off_c, 0, 80, 61
1, 581971, Note_off_c, 0, 77, 34
1, 582071, Note_on_c, 0, 54, 20
1, 582088, Note_on_c, 0, 53, 20
1, 582092, Note_off_c, 0, 53, 40
1, 582103, Note_off_c, 0, 54, 30
1, 582157, Note_on_c, 0, 58, 64
1, 582191, Note_off_c, 0, 58, 64
1, 582252, Control_c, 0, 64, 48
1, 582267, Control_c, 0, 64, 61
1, 582282, Control_c, 0, 64, 66
1, 582297, Control_c, 0, 64, 71
1, 582297, Note_on_c, 0, 82, 72
1, 582300, Note_on_c, 0, 58, 62
1, 582312, Control_c, 0, 64, 77
1, 582327, Note_on_c, 0, 79, 40
1, 582327, Control_c, 0, 64, 85
1, 582332, Note_on_c, 0, 75, 36
1, 582342, Control_c, 0, 64, 95
1, 582352, Note_off_c, 0, 58, 54
1, 582357, Control_c, 0, 64, 106
1, 582372, Control_c, 0, 64, 120
1, 582386, Control_c, 0, 64, 127
1, 582398, Note_off_c, 0, 75, 36
1, 582465, Note_on_c, 0, 67, 64
1, 582494, Note_off_c, 0, 67, 63
1, 582603, Note_on_c, 0, 63, 72
1, 582690, Control_c, 0, 67, 121
1, 582705, Control_c, 0, 67, 104
1, 582711, Note_off_c, 0, 63, 61
1, 582720, Note_off_c, 0, 79, 62
1, 582720, Control_c, 0, 67, 94
1, 582723, Note_on_c, 0, 58, 71
1, 582735, Control_c, 0, 67, 92
1, 582739, Note_off_c, 0, 82, 61
1, 582749, Note_off_c, 0, 58, 66
1, 582750, Control_c, 0, 64, 87
1, 582750, Control_c, 0, 67, 90
1, 582764, Control_c, 0, 64, 62
1, 582764, Control_c, 0, 67, 88
1, 582779, Control_c, 0, 64, 0
1, 582823, Control_c, 0, 67, 88
1, 582838, Control_c, 0, 67, 86
1, 582849, Note_on_c, 0, 55, 65
1, 582880, Note_off_c, 0, 55, 64
1, 582927, Control_c, 0, 67, 87
1, 582942, Control_c, 0, 67, 88
1, 582953, Note_on_c, 0, 51, 76
1, 582971, Control_c, 0, 67, 88
1, 582983, Note_off_c, 0, 51, 65
1, 582986, Control_c, 0, 67, 87
1, 583001, Control_c, 0, 67, 88
1, 583015, Control_c, 0, 67, 89
1, 583045, Control_c, 0, 67, 88
1, 583075, Control_c, 0, 67, 90
1, 583078, Note_on_c, 0, 46, 70
1, 583090, Control_c, 0, 67, 91
1, 583099, Note_on_c, 0, 82, 74
1, 583102, Note_on_c, 0, 79, 67
1, 583105, Note_off_c, 0, 46, 65
1, 583105, Note_on_c, 0, 75, 71
1, 583120, Control_c, 0, 67, 90
1, 583126, Note_off_c, 0, 79, 69
1, 583129, Note_off_c, 0, 75, 64
1, 583129, Note_off_c, 0, 82, 58
1, 583135, Control_c, 0, 67, 89
1, 583150, Control_c, 0, 67, 90
1, 583180, Control_c, 0, 67, 89
1, 583194, Control_c, 0, 67, 87
1, 583209, Note_on_c, 0, 51, 72
1, 583209, Control_c, 0, 67, 87
1, 583239, Note_off_c, 0, 51, 62
1, 583269, Control_c, 0, 67, 86
1, 583328, Control_c, 0, 67, 84
1, 583336, Note_on_c, 0, 55, 69
1, 583343, Control_c, 0, 67, 82
1, 583363, Note_off_c, 0, 55, 64
1, 583409, Control_c, 0, 67, 82
1, 583424, Control_c, 0, 67, 79
1, 583439, Control_c, 0, 67, 78
1, 583454, Control_c, 0, 67, 63
1, 583456, Note_on_c, 0, 51, 77
1, 583463, Note_on_c, 0, 82, 80
1, 583469, Control_c, 0, 67, 44
1, 583470, Note_on_c, 0, 79, 66
1, 583483, Control_c, 0, 67, 0
1, 583493, Note_off_c, 0, 79, 71
1, 583494, Note_off_c, 0, 51, 62
1, 583502, Note_off_c, 0, 82, 60
1, 583582, Note_on_c, 0, 55, 75
1, 583632, Note_off_c, 0, 55, 60
1, 583708, Note_on_c, 0, 58, 79
1, 583737, Note_off_c, 0, 58, 67
1, 583825, Control_c, 0, 64, 30
1, 583839, Control_c, 0, 64, 55
1, 583841, Note_on_c, 0, 82, 77
1, 583843, Note_on_c, 0, 58, 75
1, 583853, Note_on_c, 0, 77, 69
1, 583854, Control_c, 0, 64, 73
1, 583858, Note_on_c, 0, 74, 65
1, 583869, Control_c, 0, 64, 95
1, 583884, Control_c, 0, 64, 127
1, 583945, Note_off_c, 0, 58, 60
1, 583971, Note_off_c, 0, 74, 33
1, 583978, Note_on_c, 0, 70, 78
1, 584032, Note_off_c, 0, 70, 62
1, 584088, Note_on_c, 0, 65, 73
1, 584141, Note_off_c, 0, 65, 63
1, 584208, Note_off_c, 0, 77, 61
1, 584224, Note_on_c, 0, 62, 81
1, 584234, Note_off_c, 0, 82, 61
1, 584248, Control_c, 0, 64, 85
1, 584262, Control_c, 0, 64, 59
1, 584267, Note_off_c, 0, 62, 62
1, 584277, Control_c, 0, 64, 0
1, 584339, Note_on_c, 0, 58, 80
1, 584389, Note_off_c, 0, 58, 61
1, 584458, Note_on_c, 0, 53, 73
1, 584484, Note_off_c, 0, 53, 66
1, 584574, Note_on_c, 0, 50, 77
1, 584586, Note_on_c, 0, 86, 92
1, 584597, Note_on_c, 0, 82, 75
1, 584609, Note_on_c, 0, 77, 57
1, 584614, Note_off_c, 0, 50, 65
1, 584618, Note_off_c, 0, 82, 70
1, 584628, Note_off_c, 0, 77, 62
1, 584633, Note_off_c, 0, 86, 65
1, 584693, Note_on_c, 0, 46, 86
1, 584736, Note_off_c, 0, 46, 61
1, 584806, Note_on_c, 0, 41, 85
1, 584852, Note_off_c, 0, 41, 66
1, 584938, Control_c, 0, 67, 54
1, 584941, Note_on_c, 0, 46, 87
1, 584951, Note_on_c, 0, 89, 89
1, 584953, Control_c, 0, 67, 75
1, 584956, Note_on_c, 0, 82, 76
1, 584967, Control_c, 0, 67, 80
1, 584974, Note_on_c, 0, 86, 47
1, 584976, Note_off_c, 0, 82, 71
1, 584982, Control_c, 0, 67, 82
1, 584983, Note_on_c, 0, 77, 37
1, 584983, Note_off_c, 0, 46, 62
1, 584996, Note_off_c, 0, 89, 64
1, 584997, Control_c, 0, 67, 88
1, 585000, Note_off_c, 0, 86, 36
1, 585012, Control_c, 0, 67, 112
1, 585016, Note_off_c, 0, 77, 35
1, 585027, Control_c, 0, 67, 127
1, 585071, Note_on_c, 0, 50, 77
1, 585100, Note_off_c, 0, 50, 68
1, 585192, Note_on_c, 0, 53, 62
1, 585224, Note_off_c, 0, 53, 67
1, 585338, Control_c, 0, 64, 38
1, 585352, Control_c, 0, 64, 52
1, 585367, Control_c, 0, 64, 59
1, 585373, Note_on_c, 0, 53, 52
1, 585374, Note_on_c, 0, 65, 59
1, 585375, Note_on_c, 0, 62, 52
1, 585378, Note_on_c, 0, 89, 53
1, 585382, Control_c, 0, 64, 62
1, 585397, Control_c, 0, 64, 65
1, 585399, Note_off_c, 0, 62, 58
1, 585400, Note_off_c, 0, 53, 57
1, 585406, Note_off_c, 0, 65, 64
1, 585411, Control_c, 0, 64, 71
1, 585426, Control_c, 0, 64, 81
1, 585441, Control_c, 0, 64, 99
1, 585456, Control_c, 0, 64, 120
1, 585471, Control_c, 0, 64, 127
1, 585514, Note_on_c, 0, 94, 69
1, 585552, Note_off_c, 0, 94, 59
1, 585567, Note_off_c, 0, 89, 50
1, 585657, Note_on_c, 0, 94, 67
1, 585686, Note_off_c, 0, 94, 65
1, 585716, Control_c, 0, 64, 118
1, 585731, Control_c, 0, 64, 104
1, 585746, Control_c, 0, 64, 84
1, 585761, Control_c, 0, 64, 66
1, 585776, Control_c, 0, 64, 48
1, 585790, Control_c, 0, 64, 29
1, 585803, Note_on_c, 0, 91, 63
1, 585805, Control_c, 0, 64, 0
1, 585810, Note_on_c, 0, 79, 46
1, 585811, Note_on_c, 0, 65, 52
1, 585811, Note_on_c, 0, 75, 37
1, 585820, Control_c, 0, 64, 30
1, 585834, Control_c, 0, 64, 41
1, 585849, Control_c, 0, 64, 55
1, 585864, Control_c, 0, 64, 65
1, 585879, Control_c, 0, 64, 73
1, 585880, Note_off_c, 0, 75, 64
1, 585881, Note_off_c, 0, 79, 64
1, 585890, Note_off_c, 0, 65, 61
1, 585894, Control_c, 0, 64, 82
1, 585908, Control_c, 0, 64, 88
1, 585923, Control_c, 0, 64, 91
1, 585938, Control_c, 0, 64, 96
1, 585948, Note_on_c, 0, 96, 67
1, 585953, Control_c, 0, 64, 101
1, 585966, Note_off_c, 0, 91, 60
1, 585968, Control_c, 0, 64, 108
1, 585978, Note_off_c, 0, 96, 68
1, 585982, Control_c, 0, 64, 114
1, 585997, Control_c, 0, 64, 123
1, 586012, Control_c, 0, 64, 127
1, 586062, Note_on_c, 0, 96, 67
1, 586088, Note_off_c, 0, 96, 69
1, 586145, Control_c, 0, 64, 117
1, 586160, Control_c, 0, 64, 93
1, 586175, Control_c, 0, 64, 74
1, 586190, Control_c, 0, 64, 60
1, 586205, Note_on_c, 0, 74, 55
1, 586205, Control_c, 0, 64, 49
1, 586207, Note_on_c, 0, 65, 52
1, 586207, Note_on_c, 0, 89, 60
1, 586212, Note_on_c, 0, 77, 48
1, 586220, Control_c, 0, 64, 49
1, 586234, Control_c, 0, 64, 52
1, 586249, Control_c, 0, 64, 58
1, 586264, Control_c, 0, 64, 65
1, 586271, Note_off_c, 0, 77, 60
1, 586279, Control_c, 0, 64, 74
1, 586286, Note_off_c, 0, 74, 63
1, 586294, Control_c, 0, 64, 84
1, 586309, Note_off_c, 0, 65, 61
1, 586309, Control_c, 0, 64, 91
1, 586324, Control_c, 0, 64, 95
1, 586339, Control_c, 0, 64, 99
1, 586341, Note_on_c, 0, 94, 69
1, 586349, Note_off_c, 0, 89, 58
1, 586354, Control_c, 0, 64, 107
1, 586368, Note_off_c, 0, 94, 66
1, 586369, Control_c, 0, 64, 127
1, 586473, Note_on_c, 0, 94, 58
1, 586519, Note_off_c, 0, 94, 62
1, 586554, Control_c, 0, 64, 115
1, 586569, Control_c, 0, 64, 82
1, 586584, Control_c, 0, 64, 65
1, 586593, Note_on_c, 0, 72, 25
1, 586597, Note_on_c, 0, 65, 41
1, 586598, Control_c, 0, 64, 52
1, 586600, Note_on_c, 0, 75, 56
1, 586604, Note_on_c, 0, 89, 56
1, 586613, Control_c, 0, 64, 47
1, 586628, Control_c, 0, 64, 46
1, 586643, Control_c, 0, 64, 50
1, 586657, Control_c, 0, 64, 57
1, 586672, Control_c, 0, 64, 65
1, 586687, Control_c, 0, 64, 74
1, 586692, Note_off_c, 0, 75, 64
1, 586702, Control_c, 0, 64, 82
1, 586705, Note_off_c, 0, 72, 56
1, 586711, Note_off_c, 0, 65, 62
1, 586717, Control_c, 0, 64, 94
1, 586730, Note_on_c, 0, 93, 74
1, 586731, Control_c, 0, 64, 96
1, 586761, Control_c, 0, 64, 100
1, 586768, Note_off_c, 0, 93, 57
1, 586776, Control_c, 0, 64, 105
1, 586791, Control_c, 0, 64, 110
1, 586801, Note_off_c, 0, 89, 35
1, 586805, Control_c, 0, 64, 116
1, 586820, Control_c, 0, 64, 121
1, 586835, Control_c, 0, 64, 126
1, 586862, Note_on_c, 0, 93, 72
1, 586888, Note_off_c, 0, 93, 67
1, 586924, Control_c, 0, 64, 101
1, 586938, Control_c, 0, 64, 79
1, 586953, Control_c, 0, 64, 62
1, 586968, Control_c, 0, 64, 47
1, 586983, Control_c, 0, 64, 40
1, 586995, Note_on_c, 0, 89, 65
1, 586998, Control_c, 0, 64, 41
1, 587004, Note_on_c, 0, 65, 39
1, 587006, Note_on_c, 0, 74, 53
1, 587010, Note_on_c, 0, 71, 46
1, 587013, Control_c, 0, 64, 45
1, 587028, Control_c, 0, 64, 55
1, 587043, Control_c, 0, 64, 64
1, 587057, Control_c, 0, 64, 71
1, 587072, Control_c, 0, 64, 79
1, 587086, Note_off_c, 0, 74, 62
1, 587087, Control_c, 0, 64, 84
1, 587102, Note_off_c, 0, 65, 61
1, 587102, Control_c, 0, 64, 86
1, 587111, Note_off_c, 0, 71, 58
1, 587117, Control_c, 0, 64, 88
1, 587137, Note_on_c, 0, 92, 75
1, 587140, Control_c, 0, 64, 92
1, 587154, Control_c, 0, 64, 97
1, 587164, Note_off_c, 0, 89, 43
1, 587166, Note_off_c, 0, 92, 64
1, 587169, Control_c, 0, 64, 105
1, 587184, Control_c, 0, 64, 117
1, 587199, Control_c, 0, 64, 127
1, 587258, Note_on_c, 0, 92, 77
1, 587309, Note_off_c, 0, 92, 64
1, 587377, Control_c, 0, 64, 100
1, 587391, Note_on_c, 0, 89, 70
1, 587391, Control_c, 0, 64, 72
1, 587400, Note_on_c, 0, 65, 47
1, 587400, Note_on_c, 0, 71, 56
1, 587405, Note_on_c, 0, 74, 59
1, 587406, Control_c, 0, 64, 56
1, 587421, Control_c, 0, 64, 46
1, 587436, Control_c, 0, 64, 47
1, 587451, Control_c, 0, 64, 54
1, 587466, Control_c, 0, 64, 64
1, 587480, Control_c, 0, 64, 76
1, 587492, Note_off_c, 0, 74, 62
1, 587495, Control_c, 0, 64, 102
1, 587506, Note_off_c, 0, 65, 58
1, 587507, Note_off_c, 0, 71, 61
1, 587510, Control_c, 0, 64, 127
1, 587523, Note_on_c, 0, 91, 72
1, 587546, Note_off_c, 0, 89, 59
1, 587551, Note_off_c, 0, 91, 63
1, 587648, Note_on_c, 0, 91, 67
1, 587674, Note_off_c, 0, 91, 71
1, 587732, Control_c, 0, 64, 118
1, 587747, Control_c, 0, 64, 74
1, 587761, Control_c, 0, 64, 55
1, 587772, Note_on_c, 0, 65, 45
1, 587773, Note_on_c, 0, 86, 76
1, 587776, Note_on_c, 0, 71, 52
1, 587776, Control_c, 0, 64, 37
1, 587787, Note_on_c, 0, 74, 55
1, 587791, Control_c, 0, 64, 34
1, 587803, Note_on_c, 0, 83, 42
1, 587806, Control_c, 0, 64, 38
1, 587821, Control_c, 0, 64, 48
1, 587836, Control_c, 0, 64, 61
1, 587850, Control_c, 0, 64, 71
1, 587865, Control_c, 0, 64, 80
1, 587871, Note_off_c, 0, 74, 62
1, 587887, Control_c, 0, 64, 87
1, 587898, Note_off_c, 0, 65, 58
1, 587902, Control_c, 0, 64, 90
1, 587904, Note_off_c, 0, 71, 60
1, 587918, Control_c, 0, 64, 92
1, 587919, Note_off_c, 0, 86, 59
1, 587925, Note_on_c, 0, 92, 70
1, 587925, Note_off_c, 0, 83, 25
1, 587933, Control_c, 0, 64, 95
1, 587948, Control_c, 0, 64, 100
1, 587949, Note_off_c, 0, 92, 70
1, 587963, Control_c, 0, 64, 108
1, 587978, Control_c, 0, 64, 127
1, 588035, Note_on_c, 0, 92, 78
1, 588083, Note_off_c, 0, 92, 63
1, 588125, Control_c, 0, 64, 94
1, 588140, Control_c, 0, 64, 70
1, 588155, Control_c, 0, 64, 46
1, 588163, Note_on_c, 0, 86, 83
1, 588167, Note_on_c, 0, 65, 48
1, 588170, Control_c, 0, 64, 0
1, 588173, Note_on_c, 0, 74, 68
1, 588175, Note_on_c, 0, 71, 60
1, 588185, Note_on_c, 0, 83, 57
1, 588223, Note_off_c, 0, 83, 55
1, 588229, Control_c, 0, 64, 40
1, 588243, Note_off_c, 0, 74, 61
1, 588244, Control_c, 0, 64, 59
1, 588259, Control_c, 0, 64, 75
1, 588262, Note_off_c, 0, 71, 60
1, 588266, Note_off_c, 0, 65, 61
1, 588274, Control_c, 0, 64, 94
1, 588278, Note_off_c, 0, 86, 58
1, 588289, Control_c, 0, 64, 127
1, 588293, Note_on_c, 0, 91, 86
1, 588339, Note_off_c, 0, 91, 66
1, 588414, Note_on_c, 0, 91, 88
1, 588460, Note_off_c, 0, 91, 67
1, 588496, Control_c, 0, 64, 84
1, 588510, Control_c, 0, 64, 62
1, 588525, Control_c, 0, 64, 40
1, 588540, Control_c, 0, 64, 28
1, 588554, Note_on_c, 0, 75, 61
1, 588554, Note_on_c, 0, 87, 82
1, 588555, Control_c, 0, 64, 32
1, 588558, Note_on_c, 0, 63, 53
1, 588558, Note_on_c, 0, 70, 54
1, 588570, Control_c, 0, 64, 42
1, 588582, Note_on_c, 0, 82, 47
1, 588584, Control_c, 0, 64, 57
1, 588599, Control_c, 0, 64, 68
1, 588614, Control_c, 0, 64, 80
1, 588635, Note_off_c, 0, 82, 43
1, 588636, Control_c, 0, 64, 94
1, 588638, Note_off_c, 0, 75, 63
1, 588647, Note_off_c, 0, 63, 63
1, 588649, Note_off_c, 0, 70, 65
1, 588651, Control_c, 0, 64, 100
1, 588666, Control_c, 0, 64, 104
1, 588681, Control_c, 0, 64, 108
1, 588696, Control_c, 0, 64, 117
1, 588698, Note_on_c, 0, 92, 83
1, 588712, Control_c, 0, 64, 127
1, 588715, Note_off_c, 0, 87, 62
1, 588748, Note_off_c, 0, 92, 65
1, 588927, Poly_aftertouch_c, 0, 91, 0
1, 588948, Control_c, 0, 64, 88
1, 588956, Note_on_c, 0, 87, 77
1, 588963, Control_c, 0, 64, 61
1, 588974, Note_on_c, 0, 63, 50
1, 588974, Note_on_c, 0, 70, 59
1, 588977, Note_on_c, 0, 75, 56
1, 588978, Control_c, 0, 64, 36
1, 588993, Control_c, 0, 64, 0
1, 589005, Note_on_c, 0, 82, 38
1, 589007, Control_c, 0, 64, 32
1, 589022, Control_c, 0, 64, 49
1, 589031, Note_off_c, 0, 82, 57
1, 589037, Control_c, 0, 64, 65
1, 589051, Note_off_c, 0, 87, 61
1, 589052, Control_c, 0, 64, 79
1, 589067, Control_c, 0, 64, 105
1, 589076, Note_off_c, 0, 75, 63
1, 589082, Note_off_c, 0, 63, 62
1, 589082, Control_c, 0, 64, 127
1, 589085, Note_off_c, 0, 70, 64
1, 589097, Note_on_c, 0, 91, 78
1, 589152, Note_off_c, 0, 91, 63
1, 589192, Poly_aftertouch_c, 0, 82, 0
1, 589206, Note_on_c, 0, 91, 68
1, 589257, Note_off_c, 0, 91, 67
1, 589333, Control_c, 0, 64, 91
1, 589348, Control_c, 0, 64, 66
1, 589350, Note_on_c, 0, 86, 62
1, 589354, Note_on_c, 0, 70, 53
1, 589363, Control_c, 0, 64, 44
1, 589368, Note_on_c, 0, 82, 34
1, 589384, Note_on_c, 0, 65, 43
1, 589385, Control_c, 0, 64, 37
1, 589386, Note_on_c, 0, 74, 51
1, 589400, Control_c, 0, 64, 42
1, 589415, Control_c, 0, 64, 54
1, 589421, Note_off_c, 0, 74, 56
1, 589430, Control_c, 0, 64, 65
1, 589445, Note_off_c, 0, 82, 39
1, 589445, Control_c, 0, 64, 77
1, 589459, Control_c, 0, 64, 89
1, 589463, Note_off_c, 0, 65, 54
1, 589474, Control_c, 0, 64, 94
1, 589476, Note_off_c, 0, 70, 37
1, 589489, Control_c, 0, 64, 95
1, 589500, Note_on_c, 0, 89, 65
1, 589505, Control_c, 0, 64, 98
1, 589505, Note_off_c, 0, 86, 38
1, 589520, Control_c, 0, 64, 102
1, 589534, Note_off_c, 0, 89, 60
1, 589535, Control_c, 0, 64, 107
1, 589550, Control_c, 0, 64, 117
1, 589564, Control_c, 0, 64, 127
1, 589629, Note_on_c, 0, 89, 63
1, 589664, Note_off_c, 0, 89, 59
1, 589725, Control_c, 0, 64, 90
1, 589740, Control_c, 0, 64, 68
1, 589755, Control_c, 0, 64, 47
1, 589764, Note_on_c, 0, 84, 38
1, 589764, Note_on_c, 0, 81, 38
1, 589766, Note_on_c, 0, 75, 45
1, 589767, Note_on_c, 0, 65, 44
1, 589770, Control_c, 0, 64, 0
1, 589771, Note_on_c, 0, 72, 39
1, 589799, Control_c, 0, 64, 30
1, 589807, Note_off_c, 0, 75, 53
1, 589814, Control_c, 0, 64, 46
1, 589829, Control_c, 0, 64, 62
1, 589830, Note_off_c, 0, 72, 62
1, 589844, Control_c, 0, 64, 75
1, 589848, Note_off_c, 0, 84, 62
1, 589854, Note_off_c, 0, 65, 58
1, 589859, Control_c, 0, 64, 88
1, 589873, Control_c, 0, 64, 99
1, 589888, Control_c, 0, 64, 105
1, 589892, Note_on_c, 0, 89, 43
1, 589903, Control_c, 0, 64, 109
1, 589918, Control_c, 0, 64, 111
1, 589929, Note_off_c, 0, 89, 63
1, 589947, Control_c, 0, 64, 115
1, 589962, Control_c, 0, 64, 118
1, 589977, Control_c, 0, 64, 127
1, 590034, Note_on_c, 0, 89, 32
1, 590050, Note_off_c, 0, 81, 26
1, 590071, Note_off_c, 0, 89, 43
1, 590095, Control_c, 0, 64, 108
1, 590110, Control_c, 0, 64, 81
1, 590133, Control_c, 0, 64, 63
1, 590148, Control_c, 0, 64, 46
1, 590162, Control_c, 0, 64, 35
1, 590177, Control_c, 0, 64, 34
1, 590188, Note_on_c, 0, 75, 62
1, 590192, Control_c, 0, 64, 37
1, 590193, Note_on_c, 0, 51, 48
1, 590193, Note_on_c, 0, 57, 44
1, 590202, Note_on_c, 0, 60, 44
1, 590206, Control_c, 0, 64, 46
1, 590221, Control_c, 0, 64, 56
1, 590236, Control_c, 0, 64, 62
1, 590251, Control_c, 0, 64, 65
1, 590266, Control_c, 0, 64, 68
1, 590280, Control_c, 0, 64, 71
1, 590295, Control_c, 0, 64, 76
1, 590301, Note_off_c, 0, 60, 60
1, 590311, Control_c, 0, 64, 77
1, 590313, Note_off_c, 0, 51, 58
1, 590315, Note_off_c, 0, 57, 62
1, 590325, Note_on_c, 0, 78, 65
1, 590326, Control_c, 0, 64, 76
1, 590341, Control_c, 0, 64, 73
1, 590343, Note_off_c, 0, 75, 59
1, 590353, Note_off_c, 0, 78, 65
1, 590356, Control_c, 0, 64, 64
1, 590371, Control_c, 0, 64, 56
1, 590385, Control_c, 0, 64, 53
1, 590400, Control_c, 0, 64, 53
1, 590415, Control_c, 0, 64, 54
1, 590429, Control_c, 0, 64, 56
1, 590439, Note_on_c, 0, 78, 68
1, 590444, Control_c, 0, 64, 58
1, 590460, Control_c, 0, 64, 61
1, 590475, Control_c, 0, 64, 62
1, 590489, Note_off_c, 0, 78, 53
1, 590490, Control_c, 0, 64, 59
1, 590504, Control_c, 0, 64, 52
1, 590519, Control_c, 0, 64, 40
1, 590534, Control_c, 0, 64, 0
1, 590564, Control_c, 0, 64, 28
1, 590567, Note_on_c, 0, 75, 72
1, 590578, Control_c, 0, 64, 38
1, 590588, Note_on_c, 0, 51, 53
1, 590589, Note_on_c, 0, 57, 52
1, 590593, Control_c, 0, 64, 51
1, 590597, Note_on_c, 0, 60, 51
1, 590608, Control_c, 0, 64, 58
1, 590623, Control_c, 0, 64, 60
1, 590638, Control_c, 0, 64, 61
1, 590642, Note_off_c, 0, 57, 63
1, 590647, Note_off_c, 0, 60, 63
1, 590653, Control_c, 0, 64, 62
1, 590656, Note_off_c, 0, 51, 61
1, 590667, Control_c, 0, 64, 63
1, 590682, Control_c, 0, 64, 65
1, 590697, Control_c, 0, 64, 66
1, 590703, Note_on_c, 0, 77, 68
1, 590730, Note_off_c, 0, 75, 60
1, 590742, Control_c, 0, 64, 66
1, 590743, Note_off_c, 0, 77, 59
1, 590756, Control_c, 0, 64, 65
1, 590771, Control_c, 0, 64, 65
1, 590786, Control_c, 0, 64, 61
1, 590801, Control_c, 0, 64, 50
1, 590816, Control_c, 0, 64, 37
1, 590828, Note_on_c, 0, 77, 73
1, 590830, Control_c, 0, 64, 0
1, 590849, Note_off_c, 0, 77, 70
1, 590956, Control_c, 0, 64, 34
1, 590957, Note_on_c, 0, 72, 76
1, 590960, Note_on_c, 0, 51, 49
1, 590969, Note_on_c, 0, 57, 43
1, 590971, Control_c, 0, 64, 54
1, 590980, Note_on_c, 0, 60, 48
1, 590986, Control_c, 0, 64, 67
1, 590997, Note_on_c, 0, 69, 33
1, 591001, Control_c, 0, 64, 76
1, 591016, Control_c, 0, 64, 82
1, 591029, Note_off_c, 0, 60, 62
1, 591030, Note_off_c, 0, 57, 63
1, 591030, Control_c, 0, 64, 85
1, 591044, Note_off_c, 0, 51, 61
1, 591045, Control_c, 0, 64, 87
1, 591058, Note_off_c, 0, 69, 41
1, 591060, Control_c, 0, 64, 90
1, 591072, Note_off_c, 0, 72, 59
1, 591075, Control_c, 0, 64, 92
1, 591084, Note_on_c, 0, 78, 75
1, 591090, Control_c, 0, 64, 92
1, 591121, Note_off_c, 0, 78, 57
1, 591135, Control_c, 0, 64, 91
1, 591150, Control_c, 0, 64, 89
1, 591165, Control_c, 0, 64, 84
1, 591180, Control_c, 0, 64, 76
1, 591195, Control_c, 0, 64, 68
1, 591207, Note_on_c, 0, 78, 83
1, 591209, Control_c, 0, 64, 59
1, 591224, Control_c, 0, 64, 54
1, 591239, Control_c, 0, 64, 48
1, 591253, Control_c, 0, 64, 39
1, 591260, Note_off_c, 0, 78, 61
1, 591268, Control_c, 0, 64, 0
1, 591335, Note_on_c, 0, 72, 81
1, 591351, Note_on_c, 0, 51, 58
1, 591356, Note_on_c, 0, 57, 49
1, 591357, Note_on_c, 0, 60, 58
1, 591357, Control_c, 0, 64, 31
1, 591365, Note_on_c, 0, 69, 48
1, 591372, Control_c, 0, 64, 54
1, 591387, Control_c, 0, 64, 69
1, 591395, Note_off_c, 0, 69, 54
1, 591398, Note_off_c, 0, 60, 65
1, 591401, Control_c, 0, 64, 83
1, 591404, Note_off_c, 0, 57, 63
1, 591407, Note_off_c, 0, 51, 61
1, 591416, Control_c, 0, 64, 102
1, 591431, Control_c, 0, 64, 112
1, 591445, Note_off_c, 0, 72, 60
1, 591445, Control_c, 0, 64, 123
1, 591460, Control_c, 0, 64, 127
1, 591467, Note_on_c, 0, 77, 80
1, 591511, Note_off_c, 0, 77, 65
1, 591535, Control_c, 0, 64, 104
1, 591550, Control_c, 0, 64, 88
1, 591565, Control_c, 0, 64, 77
1, 591579, Control_c, 0, 64, 67
1, 591589, Note_on_c, 0, 77, 84
1, 591594, Control_c, 0, 64, 58
1, 591609, Control_c, 0, 64, 49
1, 591631, Control_c, 0, 64, 41
1, 591644, Note_off_c, 0, 77, 61
1, 591646, Control_c, 0, 64, 0
1, 591729, Note_on_c, 0, 73, 87
1, 591735, Note_on_c, 0, 56, 64
1, 591735, Note_on_c, 0, 61, 61
1, 591735, Note_on_c, 0, 49, 69
1, 591749, Control_c, 0, 64, 46
1, 591763, Note_on_c, 0, 68, 46
1, 591764, Control_c, 0, 64, 63
1, 591766, Note_off_c, 0, 56, 67
1, 591766, Note_off_c, 0, 61, 66
1, 591770, Note_off_c, 0, 49, 66
1, 591779, Control_c, 0, 64, 74
1, 591794, Control_c, 0, 64, 86
1, 591795, Note_off_c, 0, 68, 52
1, 591809, Control_c, 0, 64, 92
1, 591824, Control_c, 0, 64, 94
1, 591839, Control_c, 0, 64, 94
1, 591854, Note_on_c, 0, 78, 80
1, 591868, Control_c, 0, 64, 94
1, 591883, Control_c, 0, 64, 90
1, 591885, Note_off_c, 0, 73, 59
1, 591899, Control_c, 0, 64, 80
1, 591904, Note_off_c, 0, 78, 62
1, 591913, Control_c, 0, 64, 68
1, 591928, Control_c, 0, 64, 55
1, 591943, Control_c, 0, 64, 46
1, 591958, Control_c, 0, 64, 41
1, 591973, Control_c, 0, 64, 35
1, 591986, Note_on_c, 0, 78, 73
1, 591988, Control_c, 0, 64, 28
1, 592002, Control_c, 0, 64, 0
1, 592015, Note_off_c, 0, 78, 59
1, 592112, Note_on_c, 0, 73, 63
1, 592127, Note_on_c, 0, 49, 54
1, 592128, Note_on_c, 0, 56, 55
1, 592131, Note_on_c, 0, 61, 54
1, 592136, Control_c, 0, 64, 30
1, 592150, Control_c, 0, 64, 49
1, 592155, Note_on_c, 0, 68, 26
1, 592162, Note_off_c, 0, 56, 63
1, 592165, Control_c, 0, 64, 63
1, 592166, Note_off_c, 0, 61, 64
1, 592173, Note_off_c, 0, 49, 63
1, 592180, Control_c, 0, 64, 71
1, 592190, Note_off_c, 0, 68, 51
1, 592194, Control_c, 0, 64, 77
1, 592209, Control_c, 0, 64, 80
1, 592224, Control_c, 0, 64, 81
1, 592238, Note_on_c, 0, 77, 66
1, 592239, Control_c, 0, 64, 82
1, 592254, Control_c, 0, 64, 82
1, 592261, Note_off_c, 0, 73, 51
1, 592283, Note_off_c, 0, 77, 60
1, 592283, Control_c, 0, 64, 82
1, 592298, Control_c, 0, 64, 79
1, 592313, Control_c, 0, 64, 73
1, 592328, Control_c, 0, 64, 63
1, 592343, Control_c, 0, 64, 51
1, 592358, Control_c, 0, 64, 35
1, 592380, Control_c, 0, 64, 0
1, 592382, Note_on_c, 0, 77, 58
1, 592420, Note_off_c, 0, 77, 58
1, 592513, Control_c, 0, 64, 44
1, 592521, Note_on_c, 0, 51, 48
1, 592521, Note_on_c, 0, 56, 42
1, 592523, Note_on_c, 0, 72, 28
1, 592527, Note_on_c, 0, 60, 35
1, 592528, Control_c, 0, 64, 60
1, 592540, Note_on_c, 0, 68, 21
1, 592543, Control_c, 0, 64, 68
1, 592557, Control_c, 0, 64, 73
1, 592570, Note_off_c, 0, 60, 49
1, 592572, Control_c, 0, 64, 76
1, 592574, Note_off_c, 0, 56, 58
1, 592583, Note_off_c, 0, 51, 56
1, 592587, Control_c, 0, 64, 79
1, 592602, Control_c, 0, 64, 82
1, 592603, Note_off_c, 0, 68, 39
1, 592617, Control_c, 0, 64, 85
1, 592632, Control_c, 0, 64, 86
1, 592638, Note_on_c, 0, 75, 59
1, 592674, Note_off_c, 0, 75, 63
1, 592679, Note_off_c, 0, 72, 42
1, 592691, Control_c, 0, 64, 86
1, 592706, Control_c, 0, 64, 84
1, 592721, Control_c, 0, 64, 81
1, 592736, Control_c, 0, 64, 75
1, 592751, Control_c, 0, 64, 68
1, 592765, Control_c, 0, 64, 61
1, 592780, Control_c, 0, 64, 55
1, 592783, Note_on_c, 0, 75, 49
1, 592795, Control_c, 0, 64, 50
1, 592807, Note_off_c, 0, 75, 54
1, 592810, Control_c, 0, 64, 44
1, 592824, Control_c, 0, 64, 29
1, 592839, Control_c, 0, 64, 0
1, 592911, Note_on_c, 0, 70, 53
1, 592913, Control_c, 0, 64, 38
1, 592915, Note_on_c, 0, 51, 37
1, 592917, Note_on_c, 0, 58, 35
1, 592925, Note_on_c, 0, 67, 41
1, 592928, Control_c, 0, 64, 54
1, 592935, Note_on_c, 0, 61, 33
1, 592943, Control_c, 0, 64, 65
1, 592958, Control_c, 0, 64, 70
1, 592972, Control_c, 0, 64, 75
1, 592987, Control_c, 0, 64, 77
1, 593001, Note_off_c, 0, 61, 41
1, 593002, Control_c, 0, 64, 80
1, 593016, Control_c, 0, 64, 84
1, 593021, Note_off_c, 0, 51, 54
1, 593031, Control_c, 0, 64, 87
1, 593043, Note_on_c, 0, 75, 50
1, 593046, Control_c, 0, 64, 88
1, 593061, Control_c, 0, 64, 88
1, 593063, Note_off_c, 0, 58, 34
1, 593076, Control_c, 0, 64, 89
1, 593084, Note_off_c, 0, 70, 45
1, 593084, Note_off_c, 0, 75, 62
1, 593101, Note_off_c, 0, 67, 43
1, 593143, Control_c, 0, 64, 88
1, 593172, Control_c, 0, 64, 88
1, 593187, Control_c, 0, 64, 85
1, 593202, Control_c, 0, 64, 81
1, 593206, Note_on_c, 0, 75, 49
1, 593217, Control_c, 0, 64, 76
1, 593231, Control_c, 0, 64, 71
1, 593246, Control_c, 0, 64, 65
1, 593254, Note_off_c, 0, 75, 59
1, 593261, Control_c, 0, 64, 60
1, 593276, Control_c, 0, 64, 52
1, 593291, Control_c, 0, 64, 44
1, 593306, Control_c, 0, 64, 38
1, 593320, Control_c, 0, 64, 32
1, 593335, Control_c, 0, 64, 0
1, 594101, Note_on_c, 0, 83, 54
1, 594119, Note_on_c, 0, 78, 38
1, 594119, Note_on_c, 0, 71, 43
1, 594191, Note_off_c, 0, 71, 61
1, 594240, Note_on_c, 0, 87, 70
1, 594265, Note_off_c, 0, 83, 56
1, 594284, Note_off_c, 0, 87, 59
1, 594301, Note_off_c, 0, 78, 45
1, 594359, Note_on_c, 0, 87, 65
1, 594421, Note_off_c, 0, 87, 63
1, 594471, Note_on_c, 0, 83, 73
1, 594491, Note_on_c, 0, 68, 57
1, 594494, Note_on_c, 0, 78, 68
1, 594529, Note_off_c, 0, 68, 59
1, 594557, Note_off_c, 0, 78, 57
1, 594598, Note_on_c, 0, 86, 79
1, 594633, Note_off_c, 0, 83, 61
1, 594660, Note_off_c, 0, 86, 65
1, 594719, Note_on_c, 0, 86, 74
1, 594773, Note_off_c, 0, 86, 64
1, 594856, Note_on_c, 0, 82, 68
1, 594863, Note_on_c, 0, 78, 60
1, 594873, Note_on_c, 0, 73, 42
1, 594948, Note_off_c, 0, 73, 60
1, 594992, Note_on_c, 0, 85, 69
1, 595014, Note_off_c, 0, 82, 54
1, 595041, Note_off_c, 0, 85, 60
1, 595058, Note_off_c, 0, 78, 43
1, 595130, Note_on_c, 0, 85, 60
1, 595163, Note_off_c, 0, 85, 63
1, 595266, Note_on_c, 0, 80, 52
1, 595272, Note_on_c, 0, 73, 33
1, 595302, Note_on_c, 0, 77, 25
1, 595386, Note_off_c, 0, 80, 43
1, 595401, Note_off_c, 0, 73, 37
1, 595413, Note_on_c, 0, 85, 53
1, 595450, Note_off_c, 0, 85, 62
1, 595567, Note_on_c, 0, 85, 50
1, 595568, Control_c, 0, 64, 28
1, 595596, Note_off_c, 0, 77, 27
1, 595602, Note_off_c, 0, 85, 65
1, 595642, Control_c, 0, 64, 30
1, 596042, Control_c, 0, 64, 28
1, 596057, Control_c, 0, 64, 0
1, 596102, Control_c, 0, 64, 30
1, 596124, Control_c, 0, 64, 38
1, 596139, Control_c, 0, 64, 52
1, 596154, Control_c, 0, 64, 62
1, 596161, Note_on_c, 0, 69, 72
1, 596168, Control_c, 0, 64, 68
1, 596173, Note_on_c, 0, 66, 66
1, 596174, Note_on_c, 0, 49, 65
1, 596183, Control_c, 0, 64, 75
1, 596198, Control_c, 0, 64, 86
1, 596210, Note_off_c, 0, 49, 64
1, 596213, Control_c, 0, 64, 103
1, 596228, Control_c, 0, 64, 127
1, 596248, Note_off_c, 0, 66, 58
1, 596266, Note_off_c, 0, 69, 59
1, 596297, Note_on_c, 0, 73, 75
1, 596316, Control_c, 0, 64, 108
1, 596331, Control_c, 0, 64, 78
1, 596339, Note_off_c, 0, 73, 58
1, 596346, Control_c, 0, 64, 60
1, 596361, Control_c, 0, 64, 40
1, 596376, Control_c, 0, 64, 0
1, 596441, Note_on_c, 0, 73, 69
1, 596471, Note_off_c, 0, 73, 62
1, 596589, Note_on_c, 0, 68, 52
1, 596590, Note_on_c, 0, 49, 47
1, 596596, Note_on_c, 0, 65, 49
1, 596698, Note_off_c, 0, 49, 59
1, 596740, Note_on_c, 0, 73, 55
1, 596756, Note_off_c, 0, 68, 39
1, 596772, Note_off_c, 0, 73, 65
1, 596803, Note_off_c, 0, 65, 41
1, 596891, Note_on_c, 0, 73, 40
1, 596934, Note_off_c, 0, 73, 56
1, 597228, Control_c, 0, 64, 36
1, 597243, Control_c, 0, 64, 49
1, 597258, Control_c, 0, 64, 56
1, 597273, Control_c, 0, 64, 56
1, 597303, Control_c, 0, 64, 57
1, 597317, Control_c, 0, 64, 58
1, 597332, Control_c, 0, 64, 59
1, 597458, Note_on_c, 0, 68, 43
1, 597475, Note_on_c, 0, 50, 35
1, 597475, Note_on_c, 0, 65, 24
1, 597511, Control_c, 0, 64, 58
1, 597526, Control_c, 0, 64, 58
1, 597541, Control_c, 0, 64, 57
1, 597555, Control_c, 0, 64, 57
1, 597570, Control_c, 0, 64, 56
1, 597585, Control_c, 0, 64, 55
1, 597600, Control_c, 0, 64, 53
1, 597616, Note_on_c, 0, 71, 57
1, 597622, Control_c, 0, 64, 52
1, 597631, Note_off_c, 0, 68, 52
1, 597637, Control_c, 0, 64, 51
1, 597655, Note_off_c, 0, 50, 38
1, 597664, Note_off_c, 0, 71, 58
1, 597667, Control_c, 0, 64, 51
1, 597696, Control_c, 0, 64, 50
1, 597726, Note_off_c, 0, 65, 41
1, 597773, Note_on_c, 0, 71, 48
1, 597813, Note_off_c, 0, 71, 59
1, 597953, Note_on_c, 0, 68, 33
1, 597968, Note_on_c, 0, 50, 28
1, 597975, Note_on_c, 0, 65, 23
1, 598109, Note_off_c, 0, 50, 37
1, 598135, Note_on_c, 0, 70, 53
1, 598176, Note_off_c, 0, 68, 39
1, 598177, Note_off_c, 0, 65, 42
1, 598177, Note_off_c, 0, 70, 58
1, 598380, Note_on_c, 0, 70, 25
1, 598483, Note_off_c, 0, 70, 36
1, 599097, Control_c, 0, 64, 51
1, 599120, Control_c, 0, 64, 52
1, 599135, Control_c, 0, 64, 54
1, 599142, Note_on_c, 0, 80, 37
1, 599145, Note_on_c, 0, 62, 32
1, 599149, Control_c, 0, 64, 56
1, 599155, Note_on_c, 0, 77, 37
1, 599164, Control_c, 0, 64, 58
1, 599179, Control_c, 0, 64, 60
1, 599193, Control_c, 0, 64, 61
1, 599208, Control_c, 0, 64, 64
1, 599223, Control_c, 0, 64, 66
1, 599238, Control_c, 0, 64, 70
1, 599253, Control_c, 0, 64, 73
1, 599267, Control_c, 0, 64, 76
1, 599282, Control_c, 0, 64, 79
1, 599297, Note_on_c, 0, 82, 59
1, 599297, Control_c, 0, 64, 82
1, 599298, Note_off_c, 0, 62, 52
1, 599312, Control_c, 0, 64, 85
1, 599322, Note_off_c, 0, 82, 63
1, 599327, Control_c, 0, 64, 87
1, 599333, Note_off_c, 0, 80, 57
1, 599342, Control_c, 0, 64, 88
1, 599357, Control_c, 0, 64, 89
1, 599372, Control_c, 0, 64, 89
1, 599386, Control_c, 0, 64, 90
1, 599401, Control_c, 0, 64, 91
1, 599402, Note_on_c, 0, 82, 66
1, 599416, Control_c, 0, 64, 92
1, 599431, Control_c, 0, 64, 94
1, 599446, Note_off_c, 0, 82, 49
1, 599446, Control_c, 0, 64, 95
1, 599475, Control_c, 0, 64, 98
1, 599478, Note_off_c, 0, 77, 46
1, 599554, Note_on_c, 0, 80, 68
1, 599564, Note_on_c, 0, 63, 47
1, 599564, Control_c, 0, 64, 89
1, 599579, Control_c, 0, 64, 73
1, 599593, Control_c, 0, 64, 60
1, 599598, Note_on_c, 0, 75, 50
1, 599608, Control_c, 0, 64, 44
1, 599623, Control_c, 0, 64, 32
1, 599638, Control_c, 0, 64, 0
1, 599667, Control_c, 0, 64, 33
1, 599682, Control_c, 0, 64, 49
1, 599697, Control_c, 0, 64, 65
1, 599706, Note_on_c, 0, 84, 67
1, 599711, Control_c, 0, 64, 79
1, 599726, Control_c, 0, 64, 104
1, 599739, Note_off_c, 0, 80, 55
1, 599741, Control_c, 0, 64, 127
1, 599749, Note_off_c, 0, 75, 60
1, 599759, Note_off_c, 0, 84, 58
1, 599819, Note_off_c, 0, 63, 34
1, 599820, Note_on_c, 0, 84, 61
1, 599921, Note_off_c, 0, 84, 51
1, 599961, Note_on_c, 0, 79, 64
1, 599981, Note_on_c, 0, 75, 60
1, 599987, Control_c, 0, 64, 79
1, 599995, Note_on_c, 0, 51, 52
1, 600002, Control_c, 0, 64, 61
1, 600016, Control_c, 0, 64, 46
1, 600031, Control_c, 0, 64, 42
1, 600046, Control_c, 0, 64, 44
1, 600061, Control_c, 0, 64, 53
1, 600076, Control_c, 0, 64, 65
1, 600090, Control_c, 0, 64, 86
1, 600099, Note_on_c, 0, 82, 76
1, 600105, Note_off_c, 0, 51, 60
1, 600105, Control_c, 0, 64, 127
1, 600131, Note_off_c, 0, 79, 60
1, 600138, Note_off_c, 0, 82, 58
1, 600149, Note_off_c, 0, 75, 54
1, 600150, Control_c, 0, 67, 120
1, 600179, Control_c, 0, 67, 118
1, 600209, Note_on_c, 0, 82, 78
1, 600209, Control_c, 0, 67, 114
1, 600224, Control_c, 0, 67, 110
1, 600232, Note_off_c, 0, 82, 69
1, 600239, Control_c, 0, 67, 108
1, 600284, Control_c, 0, 67, 106
1, 600357, Note_on_c, 0, 67, 79
1, 600358, Control_c, 0, 64, 108
1, 600373, Control_c, 0, 64, 72
1, 600373, Note_on_c, 0, 53, 54
1, 600376, Note_on_c, 0, 63, 48
1, 600388, Control_c, 0, 64, 46
1, 600403, Control_c, 0, 64, 0
1, 600417, Control_c, 0, 67, 104
1, 600432, Control_c, 0, 64, 37
1, 600447, Control_c, 0, 64, 54
1, 600447, Control_c, 0, 67, 101
1, 600462, Control_c, 0, 64, 68
1, 600462, Control_c, 0, 67, 97
1, 600477, Control_c, 0, 64, 84
1, 600477, Control_c, 0, 67, 82
1, 600491, Control_c, 0, 64, 126
1, 600491, Control_c, 0, 67, 63
1, 600494, Note_on_c, 0, 70, 70
1, 600506, Control_c, 0, 67, 43
1, 600521, Control_c, 0, 67, 0
1, 600552, Note_off_c, 0, 70, 61
1, 600558, Note_off_c, 0, 67, 55
1, 600561, Note_off_c, 0, 53, 47
1, 600570, Note_off_c, 0, 63, 58
1, 600633, Note_on_c, 0, 70, 83
1, 600697, Note_off_c, 0, 70, 56
1, 600771, Note_on_c, 0, 65, 84
1, 600794, Note_on_c, 0, 53, 49
1, 600795, Note_on_c, 0, 62, 50
1, 600796, Control_c, 0, 64, 91
1, 600811, Control_c, 0, 64, 65
1, 600826, Control_c, 0, 64, 35
1, 600840, Control_c, 0, 64, 0
1, 600900, Control_c, 0, 64, 41
1, 600904, Note_on_c, 0, 70, 80
1, 600914, Control_c, 0, 64, 59
1, 600929, Control_c, 0, 64, 70
1, 600937, Note_off_c, 0, 53, 58
1, 600943, Control_c, 0, 64, 79
1, 600952, Note_off_c, 0, 62, 61
1, 600958, Control_c, 0, 64, 89
1, 600966, Note_off_c, 0, 70, 62
1, 600972, Control_c, 0, 64, 96
1, 600987, Control_c, 0, 64, 106
1, 601002, Note_off_c, 0, 65, 51
1, 601002, Control_c, 0, 64, 127
1, 601059, Note_on_c, 0, 70, 79
1, 601108, Note_off_c, 0, 70, 64
1, 601241, Note_on_c, 0, 70, 78
1, 601271, Note_on_c, 0, 65, 41
1, 601274, Note_on_c, 0, 53, 40
1, 601274, Note_on_c, 0, 63, 43
1, 601278, Note_on_c, 0, 60, 42
1, 601284, Control_c, 0, 64, 97
1, 601299, Control_c, 0, 64, 68
1, 601313, Control_c, 0, 64, 40
1, 601328, Control_c, 0, 64, 0
1, 601380, Control_c, 0, 64, 33
1, 601395, Control_c, 0, 64, 51
1, 601410, Control_c, 0, 64, 66
1, 601421, Note_on_c, 0, 77, 73
1, 601425, Control_c, 0, 64, 75
1, 601439, Control_c, 0, 64, 83
1, 601449, Note_off_c, 0, 63, 61
1, 601454, Control_c, 0, 64, 87
1, 601465, Note_off_c, 0, 53, 49
1, 601469, Control_c, 0, 64, 91
1, 601485, Control_c, 0, 64, 95
1, 601492, Note_off_c, 0, 70, 57
1, 601494, Note_off_c, 0, 60, 58
1, 601500, Control_c, 0, 64, 101
1, 601503, Note_off_c, 0, 77, 61
1, 601510, Note_off_c, 0, 65, 15
1, 601515, Control_c, 0, 64, 114
1, 601515, Control_c, 0, 67, 40
1, 601530, Control_c, 0, 64, 127
1, 601530, Control_c, 0, 67, 91
1, 601544, Control_c, 0, 67, 127
1, 601589, Note_on_c, 0, 77, 56
1, 601643, Note_off_c, 0, 77, 58
1, 601768, Note_on_c, 0, 69, 59
1, 601789, Note_on_c, 0, 65, 42
1, 601802, Note_on_c, 0, 60, 40
1, 601807, Note_on_c, 0, 53, 39
1, 601807, Note_on_c, 0, 63, 41
1, 601825, Control_c, 0, 64, 89
1, 601840, Control_c, 0, 64, 68
1, 601855, Control_c, 0, 64, 49
1, 601870, Control_c, 0, 64, 0
1, 601929, Control_c, 0, 64, 40
1, 601939, Note_off_c, 0, 63, 60
1, 601944, Control_c, 0, 64, 56
1, 601959, Control_c, 0, 64, 66
1, 601972, Note_off_c, 0, 53, 51
1, 601974, Control_c, 0, 64, 75
1, 601988, Note_on_c, 0, 77, 63
1, 601988, Control_c, 0, 64, 82
1, 601998, Note_off_c, 0, 60, 63
1, 602003, Control_c, 0, 64, 86
1, 602018, Control_c, 0, 64, 90
1, 602033, Control_c, 0, 64, 97
1, 602048, Control_c, 0, 64, 110
1, 602062, Control_c, 0, 64, 127
1, 602075, Note_off_c, 0, 77, 59
1, 602085, Note_off_c, 0, 69, 56
1, 602187, Note_on_c, 0, 77, 60
1, 602212, Note_off_c, 0, 77, 59
1, 602218, Note_off_c, 0, 65, 0
1, 602255, Poly_aftertouch_c, 0, 65, 127
1, 602288, Poly_aftertouch_c, 0, 65, 0
1, 602411, Control_c, 0, 64, 110
1, 602421, Note_on_c, 0, 70, 53
1, 602426, Control_c, 0, 64, 71
1, 602428, Note_on_c, 0, 65, 29
1, 602441, Control_c, 0, 64, 54
1, 602456, Control_c, 0, 64, 46
1, 602458, Note_on_c, 0, 46, 37
1, 602460, Note_on_c, 0, 62, 29
1, 602469, Note_on_c, 0, 53, 34
1, 602471, Control_c, 0, 64, 48
1, 602472, Note_on_c, 0, 58, 30
1, 602485, Control_c, 0, 64, 56
1, 602500, Control_c, 0, 64, 66
1, 602515, Control_c, 0, 64, 80
1, 602518, Note_off_c, 0, 53, 61
1, 602529, Control_c, 0, 64, 127
1, 602541, Note_off_c, 0, 62, 61
1, 602544, Note_off_c, 0, 46, 59
1, 602564, Note_off_c, 0, 58, 57
1, 602580, Note_off_c, 0, 65, 49
1, 602609, Note_off_c, 0, 70, 64
1, 602739, Note_on_c, 0, 65, 45
1, 602811, Note_off_c, 0, 65, 62
1, 602912, Note_on_c, 0, 62, 68
1, 602938, Note_off_c, 0, 62, 68
1, 603026, Control_c, 0, 67, 113
1, 603041, Control_c, 0, 67, 110
1, 603053, Note_on_c, 0, 65, 76
1, 603070, Control_c, 0, 67, 112
1, 603101, Control_c, 0, 67, 115
1, 603116, Control_c, 0, 67, 123
1, 603131, Control_c, 0, 67, 127
1, 603179, Note_on_c, 0, 70, 87
1, 603238, Note_off_c, 0, 65, 58
1, 603324, Note_on_c, 0, 74, 88
1, 603352, Note_off_c, 0, 70, 62
1, 603411, Control_c, 0, 64, 111
1, 603426, Control_c, 0, 64, 97
1, 603441, Control_c, 0, 64, 87
1, 603456, Control_c, 0, 64, 83
1, 603470, Control_c, 0, 64, 81
1, 603485, Control_c, 0, 64, 79
1, 603500, Control_c, 0, 64, 74
1, 603515, Control_c, 0, 64, 69
1, 603530, Control_c, 0, 64, 64
1, 603545, Control_c, 0, 64, 62
1, 603568, Note_on_c, 0, 77, 87
1, 603574, Control_c, 0, 64, 61
1, 603589, Control_c, 0, 64, 59
1, 603608, Note_off_c, 0, 74, 62
1, 603611, Control_c, 0, 64, 55
1, 603626, Control_c, 0, 64, 51
1, 603637, Note_on_c, 0, 65, 42
1, 603640, Control_c, 0, 64, 47
1, 603644, Note_on_c, 0, 62, 39
1, 603655, Control_c, 0, 64, 41
1, 603670, Control_c, 0, 64, 33
1, 603685, Control_c, 0, 64, 0
1, 604056, Control_c, 0, 64, 29
1, 604071, Control_c, 0, 64, 33
1, 604086, Control_c, 0, 64, 40
1, 604100, Control_c, 0, 64, 49
1, 604115, Control_c, 0, 64, 58
1, 604130, Control_c, 0, 64, 62
1, 604145, Control_c, 0, 64, 64
1, 604146, Note_on_c, 0, 67, 45
1, 604160, Control_c, 0, 64, 66
1, 604174, Control_c, 0, 64, 69
1, 604189, Control_c, 0, 64, 74
1, 604198, Note_off_c, 0, 67, 61
1, 604204, Control_c, 0, 64, 83
1, 604219, Control_c, 0, 64, 94
1, 604234, Control_c, 0, 64, 106
1, 604235, Note_off_c, 0, 62, 52
1, 604238, Note_off_c, 0, 65, 35
1, 604248, Control_c, 0, 64, 123
1, 604263, Control_c, 0, 64, 127
1, 604572, Note_on_c, 0, 75, 78
1, 604597, Note_on_c, 0, 60, 41
1, 604599, Note_on_c, 0, 63, 36
1, 604610, Note_on_c, 0, 65, 34
1, 604610, Note_on_c, 0, 69, 35
1, 604642, Control_c, 0, 64, 87
1, 604656, Control_c, 0, 64, 68
1, 604671, Control_c, 0, 64, 57
1, 604678, Note_off_c, 0, 77, 61
1, 604687, Control_c, 0, 64, 56
1, 604702, Control_c, 0, 64, 59
1, 604716, Control_c, 0, 64, 64
1, 604731, Control_c, 0, 64, 72
1, 604732, Note_off_c, 0, 69, 57
1, 604737, Note_off_c, 0, 60, 64
1, 604746, Control_c, 0, 64, 89
1, 604757, Note_off_c, 0, 63, 62
1, 604761, Control_c, 0, 64, 127
1, 604795, Note_off_c, 0, 65, 47
1, 604894, Control_c, 0, 64, 114
1, 604909, Control_c, 0, 64, 77
1, 604912, Note_on_c, 0, 74, 84
1, 604923, Control_c, 0, 64, 60
1, 604938, Control_c, 0, 64, 48
1, 604940, Note_on_c, 0, 58, 53
1, 604944, Note_on_c, 0, 70, 45
1, 604952, Note_on_c, 0, 62, 48
1, 604953, Control_c, 0, 64, 49
1, 604968, Control_c, 0, 64, 54
1, 604975, Note_on_c, 0, 65, 20
1, 604983, Control_c, 0, 64, 66
1, 604997, Control_c, 0, 64, 88
1, 605009, Note_off_c, 0, 75, 54
1, 605012, Control_c, 0, 64, 127
1, 605040, Note_off_c, 0, 74, 64
1, 605045, Note_off_c, 0, 62, 60
1, 605046, Note_off_c, 0, 65, 60
1, 605048, Note_off_c, 0, 70, 37
1, 605071, Note_off_c, 0, 58, 61
1, 605345, Note_on_c, 0, 74, 83
1, 605345, Control_c, 0, 64, 121
1, 605354, Note_on_c, 0, 72, 81
1, 605360, Note_on_c, 0, 56, 57
1, 605360, Control_c, 0, 64, 77
1, 605365, Note_on_c, 0, 66, 61
1, 605372, Note_on_c, 0, 62, 53
1, 605375, Control_c, 0, 64, 59
1, 605390, Control_c, 0, 64, 44
1, 605405, Control_c, 0, 64, 44
1, 605407, Note_off_c, 0, 66, 42
1, 605420, Control_c, 0, 64, 49
1, 605435, Control_c, 0, 64, 61
1, 605449, Control_c, 0, 64, 78
1, 605464, Control_c, 0, 64, 127
1, 605475, Note_on_c, 0, 66, 27
1, 605480, Control_c, 0, 67, 114
1, 605481, Note_off_c, 0, 72, 61
1, 605494, Note_off_c, 0, 62, 54
1, 605495, Control_c, 0, 67, 80
1, 605508, Note_off_c, 0, 66, 49
1, 605509, Control_c, 0, 67, 56
1, 605524, Control_c, 0, 67, 43
1, 605526, Note_off_c, 0, 56, 54
1, 605539, Control_c, 0, 67, 0
1, 605545, Note_off_c, 0, 74, 40
1, 605772, Note_on_c, 0, 74, 82
1, 605781, Note_on_c, 0, 71, 68
1, 605788, Note_on_c, 0, 65, 47
1, 605790, Note_on_c, 0, 67, 49
1, 605791, Control_c, 0, 64, 113
1, 605793, Note_on_c, 0, 62, 55
1, 605806, Control_c, 0, 64, 73
1, 605809, Note_on_c, 0, 55, 39
1, 605820, Control_c, 0, 64, 51
1, 605835, Control_c, 0, 64, 0
1, 605867, Note_off_c, 0, 65, 0
1, 605867, Note_on_c, 0, 65, 13
1, 605902, Control_c, 0, 64, 37
1, 605917, Control_c, 0, 64, 58
1, 605922, Note_off_c, 0, 62, 60
1, 605932, Control_c, 0, 64, 72
1, 605943, Note_off_c, 0, 55, 51
1, 605947, Control_c, 0, 64, 93
1, 605948, Note_off_c, 0, 65, 55
1, 605952, Note_off_c, 0, 74, 64
1, 605961, Control_c, 0, 64, 127
1, 605976, Control_c, 0, 67, 39
1, 605991, Control_c, 0, 67, 58
1, 605992, Note_off_c, 0, 71, 63
1, 606006, Control_c, 0, 67, 56
1, 606035, Control_c, 0, 67, 60
1, 606050, Control_c, 0, 67, 72
1, 606065, Control_c, 0, 67, 101
1, 606079, Control_c, 0, 67, 122
1, 606109, Control_c, 0, 67, 124
1, 606124, Control_c, 0, 67, 127
1, 606319, Note_on_c, 0, 75, 69
1, 606347, Note_on_c, 0, 63, 42
1, 606356, Note_on_c, 0, 48, 42
1, 606363, Control_c, 0, 64, 89
1, 606370, Note_on_c, 0, 55, 35
1, 606377, Note_on_c, 0, 60, 34
1, 606377, Control_c, 0, 64, 68
1, 606392, Control_c, 0, 64, 50
1, 606407, Control_c, 0, 64, 0
1, 606496, Control_c, 0, 64, 47
1, 606509, Note_off_c, 0, 63, 48
1, 606511, Control_c, 0, 64, 65
1, 606523, Note_off_c, 0, 48, 57
1, 606526, Note_off_c, 0, 60, 37
1, 606526, Control_c, 0, 64, 76
1, 606541, Control_c, 0, 64, 87
1, 606542, Poly_aftertouch_c, 0, 70, 127
1, 606544, Note_off_c, 0, 67, 36
1, 606556, Control_c, 0, 64, 94
1, 606570, Control_c, 0, 64, 104
1, 606585, Control_c, 0, 64, 127
1, 606604, Poly_aftertouch_c, 0, 70, 0
1, 606612, Note_off_c, 0, 55, 40
1, 606622, Note_off_c, 0, 75, 40
1, 606872, Note_on_c, 0, 74, 65
1, 607003, Note_off_c, 0, 74, 55
1, 607027, Note_on_c, 0, 72, 50
1, 607033, Note_on_c, 0, 53, 36
1, 607038, Note_on_c, 0, 63, 44
1, 607042, Note_on_c, 0, 69, 41
1, 607065, Note_on_c, 0, 65, 20
1, 607082, Control_c, 0, 64, 104
1, 607097, Control_c, 0, 64, 91
1, 607112, Control_c, 0, 64, 79
1, 607126, Control_c, 0, 64, 66
1, 607141, Control_c, 0, 64, 54
1, 607156, Control_c, 0, 64, 44
1, 607171, Control_c, 0, 64, 35
1, 607186, Control_c, 0, 64, 0
1, 607245, Control_c, 0, 64, 34
1, 607260, Control_c, 0, 64, 46
1, 607274, Control_c, 0, 64, 56
1, 607289, Control_c, 0, 64, 61
1, 607303, Note_off_c, 0, 53, 35
1, 607304, Control_c, 0, 64, 64
1, 607319, Control_c, 0, 64, 69
1, 607334, Control_c, 0, 64, 81
1, 607340, Note_off_c, 0, 63, 53
1, 607356, Control_c, 0, 64, 99
1, 607371, Control_c, 0, 64, 127
1, 607438, Note_off_c, 0, 65, 43
1, 607458, Note_off_c, 0, 69, 61
1, 607477, Note_off_c, 0, 72, 62
1, 607771, Note_on_c, 0, 73, 51
1, 607849, Note_off_c, 0, 73, 57
1, 608021, Note_on_c, 0, 74, 54
1, 608031, Note_on_c, 0, 58, 44
1, 608035, Note_on_c, 0, 70, 42
1, 608046, Note_on_c, 0, 62, 32
1, 608052, Control_c, 0, 64, 93
1, 608067, Control_c, 0, 64, 71
1, 608079, Note_on_c, 0, 65, 25
1, 608082, Control_c, 0, 64, 56
1, 608104, Control_c, 0, 64, 43
1, 608119, Control_c, 0, 64, 39
1, 608134, Control_c, 0, 64, 42
1, 608148, Note_off_c, 0, 58, 63
1, 608148, Control_c, 0, 64, 57
1, 608152, Note_off_c, 0, 62, 61
1, 608163, Control_c, 0, 64, 71
1, 608174, Note_off_c, 0, 70, 64
1, 608178, Note_off_c, 0, 74, 62
1, 608178, Control_c, 0, 64, 89
1, 608180, Note_off_c, 0, 65, 54
1, 608193, Control_c, 0, 64, 102
1, 608222, Control_c, 0, 64, 100
1, 608267, Control_c, 0, 64, 94
1, 608282, Control_c, 0, 64, 85
1, 608296, Control_c, 0, 64, 74
1, 608311, Control_c, 0, 64, 66
1, 608326, Control_c, 0, 64, 61
1, 608341, Control_c, 0, 64, 58
1, 608356, Control_c, 0, 64, 55
1, 608371, Control_c, 0, 64, 51
1, 608386, Control_c, 0, 64, 44
1, 608401, Control_c, 0, 64, 37
1, 608416, Control_c, 0, 64, 33
1, 608430, Control_c, 0, 64, 30
1, 608445, Control_c, 0, 64, 0
1, 608563, Control_c, 0, 64, 31
1, 608578, Control_c, 0, 64, 41
1, 608593, Control_c, 0, 64, 52
1, 608608, Control_c, 0, 64, 60
1, 608616, Note_on_c, 0, 58, 36
1, 608620, Note_on_c, 0, 74, 42
1, 608622, Control_c, 0, 64, 64
1, 608630, Note_on_c, 0, 62, 24
1, 608632, Note_on_c, 0, 70, 32
1, 608637, Control_c, 0, 64, 66
1, 608641, Note_on_c, 0, 65, 36
1, 608652, Control_c, 0, 64, 69
1, 608668, Control_c, 0, 64, 73
1, 608683, Control_c, 0, 64, 78
1, 608697, Control_c, 0, 64, 82
1, 608706, Note_off_c, 0, 58, 57
1, 608712, Control_c, 0, 64, 87
1, 608727, Control_c, 0, 64, 90
1, 608735, Note_off_c, 0, 65, 52
1, 608735, Note_off_c, 0, 74, 55
1, 608737, Note_off_c, 0, 62, 37
1, 608742, Control_c, 0, 64, 92
1, 608757, Control_c, 0, 64, 94
1, 608758, Note_off_c, 0, 70, 36
1, 608897, Control_c, 0, 64, 93
1, 608912, Control_c, 0, 64, 92
1, 608927, Control_c, 0, 64, 92
1, 608942, Control_c, 0, 64, 91
1, 608957, Control_c, 0, 64, 88
1, 608971, Control_c, 0, 64, 84
1, 608986, Control_c, 0, 64, 80
1, 609001, Control_c, 0, 64, 77
1, 609016, Control_c, 0, 64, 74
1, 609031, Control_c, 0, 64, 70
1, 609045, Control_c, 0, 64, 67
1, 609060, Control_c, 0, 64, 62
1, 609075, Control_c, 0, 64, 59
1, 609090, Control_c, 0, 64, 58
1, 609104, Control_c, 0, 64, 56
1, 609119, Control_c, 0, 64, 55
1, 609134, Control_c, 0, 64, 53
1, 609149, Control_c, 0, 64, 50
1, 609164, Control_c, 0, 64, 49
1, 609179, Control_c, 0, 64, 48
1, 609209, Control_c, 0, 64, 48
1, 609224, Control_c, 0, 64, 47
1, 609238, Control_c, 0, 64, 46
1, 609283, Control_c, 0, 64, 46
1, 609297, Control_c, 0, 64, 45
1, 609662, Control_c, 0, 64, 46
1, 610002, Control_c, 0, 64, 46
1, 610076, Control_c, 0, 64, 47
1, 610195, Control_c, 0, 64, 47
1, 610239, Control_c, 0, 64, 48
1, 610241, Note_on_c, 0, 53, 42
1, 610300, Control_c, 0, 64, 48
1, 610366, Control_c, 0, 64, 49
1, 610381, Control_c, 0, 64, 49
1, 610396, Control_c, 0, 64, 50
1, 610404, Note_on_c, 0, 50, 56
1, 610437, Note_off_c, 0, 53, 64
1, 610440, Control_c, 0, 64, 51
1, 610455, Control_c, 0, 64, 52
1, 610470, Control_c, 0, 64, 55
1, 610484, Control_c, 0, 64, 56
1, 610559, Control_c, 0, 64, 57
1, 610559, Note_on_c, 0, 53, 74
1, 610574, Control_c, 0, 64, 59
1, 610589, Control_c, 0, 64, 60
1, 610604, Control_c, 0, 64, 62
1, 610618, Control_c, 0, 64, 63
1, 610633, Control_c, 0, 64, 65
1, 610633, Control_c, 0, 67, 109
1, 610648, Control_c, 0, 64, 69
1, 610648, Control_c, 0, 67, 94
1, 610654, Note_off_c, 0, 50, 64
1, 610663, Control_c, 0, 64, 74
1, 610663, Control_c, 0, 67, 80
1, 610677, Control_c, 0, 64, 79
1, 610677, Control_c, 0, 67, 65
1, 610683, Note_on_c, 0, 58, 78
1, 610692, Control_c, 0, 64, 85
1, 610692, Control_c, 0, 67, 50
1, 610707, Control_c, 0, 64, 91
1, 610707, Control_c, 0, 67, 37
1, 610722, Control_c, 0, 64, 98
1, 610722, Control_c, 0, 67, 0
1, 610737, Control_c, 0, 64, 108
1, 610739, Note_off_c, 0, 53, 54
1, 610751, Control_c, 0, 64, 127
1, 610824, Note_on_c, 0, 62, 80
1, 610854, Note_off_c, 0, 58, 62
1, 611048, Note_on_c, 0, 65, 80
1, 611086, Note_on_c, 0, 53, 64
1, 611111, Note_on_c, 0, 50, 51
1, 611115, Control_c, 0, 64, 106
1, 611130, Control_c, 0, 64, 80
1, 611145, Control_c, 0, 64, 63
1, 611160, Note_off_c, 0, 62, 48
1, 611160, Control_c, 0, 64, 47
1, 611174, Control_c, 0, 64, 35
1, 611189, Control_c, 0, 64, 34
1, 611204, Control_c, 0, 64, 37
1, 611218, Note_off_c, 0, 53, 55
1, 611219, Control_c, 0, 64, 47
1, 611234, Control_c, 0, 64, 60
1, 611248, Control_c, 0, 64, 70
1, 611263, Control_c, 0, 64, 80
1, 611278, Control_c, 0, 64, 88
1, 611292, Control_c, 0, 64, 91
1, 611307, Control_c, 0, 64, 94
1, 611322, Control_c, 0, 64, 102
1, 611337, Control_c, 0, 64, 123
1, 611343, Note_on_c, 0, 53, 51
1, 611352, Control_c, 0, 64, 127
1, 611552, Note_on_c, 0, 55, 52
1, 611580, Note_off_c, 0, 55, 62
1, 611626, Note_off_c, 0, 53, 33
1, 611630, Note_off_c, 0, 50, 38
1, 611903, Note_on_c, 0, 63, 75
1, 611922, Note_on_c, 0, 57, 56
1, 611924, Note_on_c, 0, 53, 52
1, 611930, Note_on_c, 0, 48, 58
1, 611932, Note_on_c, 0, 51, 43
1, 611937, Control_c, 0, 64, 81
1, 611952, Control_c, 0, 64, 62
1, 611967, Control_c, 0, 64, 49
1, 611978, Note_off_c, 0, 65, 60
1, 611982, Control_c, 0, 64, 48
1, 611996, Control_c, 0, 64, 53
1, 612011, Control_c, 0, 64, 63
1, 612017, Note_off_c, 0, 57, 53
1, 612026, Control_c, 0, 64, 82
1, 612041, Note_off_c, 0, 48, 56
1, 612041, Control_c, 0, 64, 127
1, 612065, Note_off_c, 0, 51, 61
1, 612108, Note_off_c, 0, 53, 37
1, 612245, Note_on_c, 0, 62, 76
1, 612262, Note_on_c, 0, 58, 67
1, 612263, Control_c, 0, 64, 82
1, 612276, Note_on_c, 0, 50, 40
1, 612278, Control_c, 0, 64, 64
1, 612284, Note_on_c, 0, 46, 51
1, 612293, Note_on_c, 0, 53, 44
1, 612293, Control_c, 0, 64, 54
1, 612308, Control_c, 0, 64, 55
1, 612322, Control_c, 0, 64, 63
1, 612337, Control_c, 0, 64, 78
1, 612346, Note_off_c, 0, 63, 37
1, 612352, Control_c, 0, 64, 127
1, 612371, Note_off_c, 0, 62, 63
1, 612387, Note_off_c, 0, 58, 57
1, 612389, Note_off_c, 0, 53, 61
1, 612398, Note_off_c, 0, 50, 63
1, 612419, Note_off_c, 0, 46, 62
1, 612672, Control_c, 0, 64, 104
1, 612684, Note_on_c, 0, 62, 76
1, 612687, Control_c, 0, 64, 71
1, 612687, Note_on_c, 0, 60, 80
1, 612690, Note_on_c, 0, 44, 72
1, 612692, Note_on_c, 0, 50, 74
1, 612692, Note_on_c, 0, 54, 75
1, 612701, Control_c, 0, 64, 51
1, 612716, Control_c, 0, 64, 32
1, 612731, Control_c, 0, 64, 29
1, 612760, Control_c, 0, 64, 39
1, 612761, Note_off_c, 0, 50, 66
1, 612775, Control_c, 0, 64, 56
1, 612776, Note_off_c, 0, 54, 54
1, 612786, Note_off_c, 0, 44, 63
1, 612790, Control_c, 0, 64, 76
1, 612805, Control_c, 0, 64, 127
1, 612817, Note_off_c, 0, 60, 63
1, 612824, Note_off_c, 0, 62, 62
1, 613153, Note_on_c, 0, 62, 83
1, 613158, Note_on_c, 0, 53, 84
1, 613159, Note_on_c, 0, 59, 78
1, 613161, Note_on_c, 0, 55, 77
1, 613162, Note_on_c, 0, 43, 76
1, 613164, Note_on_c, 0, 48, 92
1, 613178, Note_on_c, 0, 36, 75
1, 613235, Control_c, 0, 64, 83
1, 613250, Control_c, 0, 64, 58
1, 613264, Control_c, 0, 64, 29
1, 613279, Control_c, 0, 64, 0
1, 613391, Control_c, 0, 64, 29
1, 613406, Control_c, 0, 64, 54
1, 613420, Control_c, 0, 64, 72
1, 613435, Control_c, 0, 64, 110
1, 613450, Control_c, 0, 64, 127
1, 613533, Note_off_c, 0, 53, 60
1, 613540, Note_off_c, 0, 62, 62
1, 613732, Control_c, 0, 64, 103
1, 613734, Note_on_c, 0, 63, 83
1, 613743, Note_on_c, 0, 51, 76
1, 613747, Control_c, 0, 64, 73
1, 613761, Control_c, 0, 64, 47
1, 613776, Control_c, 0, 64, 0
1, 613835, Control_c, 0, 64, 43
1, 613850, Control_c, 0, 64, 65
1, 613865, Control_c, 0, 64, 82
1, 613880, Control_c, 0, 64, 127
1, 613908, Note_off_c, 0, 36, 60
1, 613921, Note_off_c, 0, 51, 60
1, 613926, Note_off_c, 0, 48, 60
1, 613928, Note_off_c, 0, 43, 56
1, 613960, Note_off_c, 0, 59, 55
1, 613969, Note_off_c, 0, 55, 59
1, 614001, Note_off_c, 0, 63, 57
1, 614199, Control_c, 0, 64, 86
1, 614213, Control_c, 0, 64, 63
1, 614228, Control_c, 0, 64, 36
1, 614243, Control_c, 0, 64, 0
1, 615123, Note_on_c, 0, 75, 57
1, 615126, Control_c, 0, 64, 29
1, 615131, Note_on_c, 0, 67, 45
1, 615133, Note_on_c, 0, 63, 40
1, 615134, Note_on_c, 0, 73, 50
1, 615136, Note_on_c, 0, 58, 39
1, 615141, Control_c, 0, 64, 58
1, 615156, Control_c, 0, 64, 70
1, 615170, Control_c, 0, 64, 81
1, 615185, Control_c, 0, 64, 92
1, 615200, Control_c, 0, 64, 100
1, 615215, Control_c, 0, 64, 127
1, 615263, Note_off_c, 0, 73, 62
1, 615273, Note_off_c, 0, 58, 55
1, 615278, Note_off_c, 0, 67, 60
1, 615280, Note_off_c, 0, 63, 60
1, 615281, Note_off_c, 0, 75, 62
1, 615619, Note_on_c, 0, 75, 90
1, 615624, Note_on_c, 0, 68, 78
1, 615626, Note_on_c, 0, 66, 83
1, 615627, Note_on_c, 0, 72, 78
1, 615667, Note_on_c, 0, 61, 39
1, 615681, Control_c, 0, 64, 117
1, 615696, Control_c, 0, 64, 127
1, 615703, Note_off_c, 0, 61, 53
1, 615787, Note_off_c, 0, 66, 64
1, 615794, Note_off_c, 0, 72, 62
1, 615807, Note_off_c, 0, 68, 58
1, 615818, Note_off_c, 0, 75, 50
1, 616053, Note_on_c, 0, 76, 92
1, 616055, Note_on_c, 0, 68, 92
1, 616059, Note_on_c, 0, 73, 88
1, 616060, Note_on_c, 0, 64, 88
1, 616061, Note_on_c, 0, 56, 84
1, 616062, Note_on_c, 0, 61, 87
1, 616065, Note_on_c, 0, 49, 82
1, 616067, Control_c, 0, 64, 84
1, 616081, Control_c, 0, 64, 61
1, 616096, Control_c, 0, 64, 41
1, 616111, Control_c, 0, 64, 44
1, 616126, Control_c, 0, 64, 59
1, 616141, Control_c, 0, 64, 84
1, 616155, Control_c, 0, 64, 127
1, 616198, Note_off_c, 0, 61, 65
1, 616203, Note_off_c, 0, 64, 63
1, 616211, Note_off_c, 0, 49, 62
1, 616214, Note_off_c, 0, 56, 61
1, 616248, Note_off_c, 0, 68, 55
1, 616283, Note_off_c, 0, 73, 60
1, 616285, Note_off_c, 0, 76, 65
1, 616459, Control_c, 0, 64, 76
1, 616474, Control_c, 0, 64, 50
1, 616488, Control_c, 0, 64, 0
1, 616496, Note_on_c, 0, 80, 15
1, 616524, Note_off_c, 0, 80, 45
1, 616918, Note_on_c, 0, 79, 89
1, 616919, Note_on_c, 0, 49, 88
1, 616920, Note_on_c, 0, 52, 90
1, 616920, Note_on_c, 0, 85, 87
1, 616920, Note_on_c, 0, 88, 90
1, 616923, Note_on_c, 0, 81, 88
1, 616925, Note_on_c, 0, 45, 81
1, 616949, Control_c, 0, 64, 38
1, 616957, Note_off_c, 0, 52, 65
1, 616964, Control_c, 0, 64, 67
1, 616965, Note_off_c, 0, 49, 63
1, 616977, Note_off_c, 0, 45, 64
1, 616978, Control_c, 0, 64, 127
1, 616993, Note_off_c, 0, 79, 60
1, 617025, Note_off_c, 0, 81, 59
1, 617025, Note_off_c, 0, 88, 64
1, 617030, Note_off_c, 0, 85, 63
1, 617398, Note_on_c, 0, 89, 100
1, 617400, Note_on_c, 0, 50, 95
1, 617401, Note_on_c, 0, 45, 86
1, 617402, Note_on_c, 0, 77, 89
1, 617403, Note_on_c, 0, 38, 87
1, 617403, Note_on_c, 0, 81, 88
1, 617405, Note_on_c, 0, 86, 86
1, 617415, Control_c, 0, 64, 114
1, 617430, Control_c, 0, 64, 66
1, 617445, Control_c, 0, 64, 29
1, 617460, Control_c, 0, 64, 0
1, 617520, Control_c, 0, 64, 41
1, 617534, Control_c, 0, 64, 65
1, 617549, Control_c, 0, 64, 86
1, 617564, Control_c, 0, 64, 127
1, 617600, Note_off_c, 0, 50, 64
1, 617614, Note_off_c, 0, 45, 61
1, 617621, Note_off_c, 0, 38, 60
1, 617710, Note_off_c, 0, 89, 56
1, 617734, Note_off_c, 0, 86, 60
1, 617761, Note_off_c, 0, 81, 62
1, 617791, Note_off_c, 0, 77, 64
1, 618223, Control_c, 0, 67, 45
1, 618238, Control_c, 0, 67, 56
1, 618253, Control_c, 0, 64, 108
1, 618253, Control_c, 0, 67, 58
1, 618268, Control_c, 0, 64, 101
1, 618268, Control_c, 0, 67, 60
1, 618283, Control_c, 0, 64, 95
1, 618283, Control_c, 0, 67, 62
1, 618297, Control_c, 0, 64, 91
1, 618297, Control_c, 0, 67, 66
1, 618312, Control_c, 0, 64, 87
1, 618312, Control_c, 0, 67, 78
1, 618327, Control_c, 0, 64, 84
1, 618327, Control_c, 0, 67, 88
1, 618342, Control_c, 0, 64, 80
1, 618342, Control_c, 0, 67, 96
1, 618357, Control_c, 0, 64, 77
1, 618357, Control_c, 0, 67, 102
1, 618372, Control_c, 0, 64, 74
1, 618372, Control_c, 0, 67, 109
1, 618387, Control_c, 0, 64, 70
1, 618387, Control_c, 0, 67, 116
1, 618402, Control_c, 0, 64, 65
1, 618402, Control_c, 0, 67, 126
1, 618417, Control_c, 0, 64, 62
1, 618431, Control_c, 0, 64, 61
1, 618446, Control_c, 0, 64, 59
1, 618461, Control_c, 0, 64, 57
1, 618475, Control_c, 0, 64, 55
1, 618490, Control_c, 0, 64, 52
1, 618505, Control_c, 0, 64, 50
1, 618520, Control_c, 0, 64, 47
1, 618535, Control_c, 0, 64, 43
1, 618549, Control_c, 0, 64, 37
1, 618564, Control_c, 0, 64, 31
1, 618587, Control_c, 0, 64, 0
1, 619795, Control_c, 0, 64, 28
1, 619870, Control_c, 0, 64, 30
1, 619929, Control_c, 0, 64, 32
1, 619974, Control_c, 0, 64, 32
1, 620018, Control_c, 0, 64, 33
1, 620033, Control_c, 0, 64, 34
1, 620048, Control_c, 0, 64, 35
1, 620062, Control_c, 0, 64, 36
1, 620085, Control_c, 0, 64, 36
1, 620100, Control_c, 0, 64, 37
1, 620115, Control_c, 0, 64, 37
1, 620129, Control_c, 0, 64, 39
1, 620144, Control_c, 0, 64, 41
1, 620159, Control_c, 0, 64, 42
1, 620174, Control_c, 0, 64, 43
1, 620189, Control_c, 0, 64, 44
1, 620203, Control_c, 0, 64, 46
1, 620218, Control_c, 0, 64, 51
1, 620233, Control_c, 0, 64, 56
1, 620248, Control_c, 0, 64, 61
1, 620259, Note_on_c, 0, 77, 63
1, 620262, Control_c, 0, 64, 63
1, 620277, Control_c, 0, 64, 66
1, 620279, Note_on_c, 0, 70, 43
1, 620289, Note_on_c, 0, 58, 37
1, 620289, Note_on_c, 0, 74, 34
1, 620292, Control_c, 0, 64, 72
1, 620307, Control_c, 0, 64, 82
1, 620322, Note_on_c, 0, 68, 20
1, 620322, Control_c, 0, 64, 97
1, 620336, Control_c, 0, 64, 127
1, 620345, Note_off_c, 0, 70, 50
1, 620470, Note_off_c, 0, 74, 40
1, 620472, Note_off_c, 0, 58, 34
1, 620473, Note_off_c, 0, 68, 37
1, 620588, Note_off_c, 0, 77, 64
1, 621031, Note_on_c, 0, 78, 64
1, 621121, Note_off_c, 0, 78, 53
1, 621258, Note_on_c, 0, 79, 68
1, 621275, Note_on_c, 0, 63, 49
1, 621277, Note_on_c, 0, 75, 52
1, 621278, Control_c, 0, 64, 111
1, 621287, Note_on_c, 0, 67, 40
1, 621293, Control_c, 0, 64, 73
1, 621308, Control_c, 0, 64, 44
1, 621323, Control_c, 0, 64, 0
1, 621382, Control_c, 0, 64, 39
1, 621392, Note_off_c, 0, 63, 61
1, 621392, Note_off_c, 0, 67, 41
1, 621392, Note_off_c, 0, 75, 61
1, 621396, Control_c, 0, 64, 61
1, 621403, Note_off_c, 0, 79, 66
1, 621411, Control_c, 0, 64, 87
1, 621426, Control_c, 0, 64, 127
1, 621546, Control_c, 0, 64, 102
1, 621561, Control_c, 0, 64, 75
1, 621582, Control_c, 0, 64, 59
1, 621597, Control_c, 0, 64, 39
1, 621612, Control_c, 0, 64, 0
1, 621775, Control_c, 0, 64, 30
1, 621790, Control_c, 0, 64, 46
1, 621805, Control_c, 0, 64, 58
1, 621812, Note_on_c, 0, 79, 55
1, 621820, Control_c, 0, 64, 67
1, 621834, Control_c, 0, 64, 79
1, 621842, Note_on_c, 0, 63, 34
1, 621843, Note_on_c, 0, 67, 31
1, 621849, Control_c, 0, 64, 127
1, 621860, Note_on_c, 0, 75, 39
1, 621892, Note_off_c, 0, 67, 56
1, 621892, Note_off_c, 0, 63, 44
1, 621902, Note_off_c, 0, 75, 60
1, 621950, Note_off_c, 0, 79, 64
1, 622145, Control_c, 0, 64, 114
1, 622159, Control_c, 0, 64, 94
1, 622174, Control_c, 0, 64, 82
1, 622189, Control_c, 0, 64, 73
1, 622204, Control_c, 0, 64, 67
1, 622218, Control_c, 0, 64, 62
1, 622233, Control_c, 0, 64, 56
1, 622249, Control_c, 0, 64, 49
1, 622264, Control_c, 0, 64, 43
1, 622279, Control_c, 0, 64, 40
1, 622294, Control_c, 0, 64, 38
1, 622309, Control_c, 0, 64, 37
1, 622331, Control_c, 0, 64, 37
1, 622345, Control_c, 0, 64, 36
1, 622390, Control_c, 0, 64, 37
1, 622435, Control_c, 0, 64, 38
1, 622449, Control_c, 0, 64, 40
1, 622464, Control_c, 0, 64, 42
1, 622479, Control_c, 0, 64, 43
1, 622494, Control_c, 0, 64, 44
1, 622509, Control_c, 0, 64, 45
1, 622523, Control_c, 0, 64, 48
1, 622538, Control_c, 0, 64, 53
1, 622553, Control_c, 0, 64, 57
1, 622568, Control_c, 0, 64, 59
1, 622583, Control_c, 0, 64, 60
1, 622597, Control_c, 0, 64, 61
1, 622612, Control_c, 0, 64, 63
1, 622626, Note_on_c, 0, 82, 50
1, 622627, Control_c, 0, 64, 68
1, 622642, Control_c, 0, 64, 74
1, 622647, Note_on_c, 0, 63, 39
1, 622657, Control_c, 0, 64, 83
1, 622658, Note_on_c, 0, 79, 23
1, 622672, Control_c, 0, 64, 92
1, 622673, Note_on_c, 0, 70, 26
1, 622687, Control_c, 0, 64, 102
1, 622702, Control_c, 0, 64, 127
1, 622730, Note_off_c, 0, 70, 63
1, 622737, Note_off_c, 0, 63, 56
1, 622853, Note_off_c, 0, 79, 44
1, 622986, Note_off_c, 0, 82, 62
1, 623843, Control_c, 0, 64, 117
1, 623859, Control_c, 0, 64, 108
1, 623874, Control_c, 0, 64, 104
1, 623889, Control_c, 0, 64, 101
1, 623903, Control_c, 0, 64, 98
1, 623918, Control_c, 0, 64, 95
1, 623933, Control_c, 0, 64, 91
1, 623948, Control_c, 0, 64, 86
1, 623963, Control_c, 0, 64, 82
1, 623977, Control_c, 0, 64, 79
1, 623992, Control_c, 0, 64, 77
1, 624007, Control_c, 0, 64, 75
1, 624021, Control_c, 0, 64, 73
1, 624036, Control_c, 0, 64, 72
1, 624051, Control_c, 0, 64, 71
1, 624066, Control_c, 0, 64, 71
1, 624095, Control_c, 0, 64, 70
1, 624110, Control_c, 0, 64, 69
1, 624125, Control_c, 0, 64, 68
1, 624140, Control_c, 0, 64, 68
1, 624155, Control_c, 0, 64, 67
1, 624170, Control_c, 0, 64, 67
1, 624185, Control_c, 0, 64, 66
1, 624200, Control_c, 0, 64, 64
1, 624215, Control_c, 0, 64, 63
1, 624259, Control_c, 0, 64, 62
1, 624274, Control_c, 0, 64, 61
1, 624289, Control_c, 0, 64, 59
1, 624303, Control_c, 0, 64, 59
1, 624348, Control_c, 0, 64, 58
1, 624363, Control_c, 0, 64, 57
1, 624377, Control_c, 0, 64, 57
1, 624421, Control_c, 0, 64, 56
1, 624436, Control_c, 0, 64, 56
1, 624451, Control_c, 0, 64, 54
1, 624466, Control_c, 0, 64, 53
1, 624607, Control_c, 0, 64, 53
1, 624682, Control_c, 0, 64, 52
1, 624697, Control_c, 0, 64, 51
1, 624712, Control_c, 0, 64, 50
1, 624771, Control_c, 0, 64, 50
1, 624786, Control_c, 0, 64, 49
1, 624796, Note_on_c, 0, 70, 73
1, 624845, Control_c, 0, 64, 48
1, 624859, Control_c, 0, 64, 48
1, 624874, Control_c, 0, 64, 47
1, 624948, Control_c, 0, 64, 47
1, 625156, Control_c, 0, 64, 46
1, 625289, Control_c, 0, 64, 47
1, 625772, Control_c, 0, 64, 47
1, 625787, Control_c, 0, 64, 48
1, 625846, Control_c, 0, 64, 48
1, 626175, Note_on_c, 0, 67, 58
1, 626298, Control_c, 0, 64, 48
1, 626313, Control_c, 0, 64, 47
1, 626358, Control_c, 0, 64, 47
1, 626414, Note_on_c, 0, 63, 74
1, 626416, Control_c, 0, 64, 48
1, 626431, Control_c, 0, 64, 52
1, 626446, Control_c, 0, 64, 59
1, 626461, Control_c, 0, 64, 64
1, 626476, Control_c, 0, 64, 71
1, 626490, Control_c, 0, 64, 79
1, 626505, Control_c, 0, 64, 88
1, 626520, Control_c, 0, 64, 96
1, 626535, Control_c, 0, 64, 106
1, 626550, Control_c, 0, 64, 127
1, 626621, Note_off_c, 0, 70, 58
1, 626632, Note_off_c, 0, 67, 60
1, 626639, Note_on_c, 0, 62, 67
1, 626672, Note_off_c, 0, 62, 66
1, 626672, Note_off_c, 0, 63, 62
1, 626966, Note_on_c, 0, 62, 55
1, 626978, Note_on_c, 0, 57, 48
1, 626999, Note_on_c, 0, 53, 37
1, 627008, Note_on_c, 0, 41, 34
1, 627016, Control_c, 0, 64, 105
1, 627019, Note_on_c, 0, 51, 35
1, 627031, Control_c, 0, 64, 92
1, 627046, Control_c, 0, 64, 81
1, 627061, Control_c, 0, 64, 71
1, 627076, Control_c, 0, 64, 62
1, 627091, Control_c, 0, 64, 53
1, 627106, Control_c, 0, 64, 47
1, 627121, Control_c, 0, 64, 43
1, 627136, Control_c, 0, 64, 39
1, 627151, Control_c, 0, 64, 34
1, 627165, Control_c, 0, 64, 27
1, 627180, Control_c, 0, 64, 0
1, 627553, Note_on_c, 0, 60, 46
1, 627568, Note_off_c, 0, 62, 38
1, 627632, Control_c, 0, 64, 29
1, 627646, Control_c, 0, 64, 42
1, 627661, Control_c, 0, 64, 59
1, 627676, Control_c, 0, 64, 71
1, 627691, Control_c, 0, 64, 85
1, 627706, Control_c, 0, 64, 107
1, 627707, Note_off_c, 0, 57, 60
1, 627720, Control_c, 0, 64, 127
1, 627738, Note_off_c, 0, 60, 58
1, 627750, Note_off_c, 0, 51, 45
1, 627755, Note_off_c, 0, 41, 38
1, 627909, Note_on_c, 0, 61, 53
1, 627946, Note_off_c, 0, 61, 61
1, 627973, Note_off_c, 0, 53, 37
1, 628033, Control_c, 0, 64, 87
1, 628034, Note_on_c, 0, 62, 56
1, 628036, Note_on_c, 0, 58, 50
1, 628042, Note_on_c, 0, 46, 47
1, 628048, Control_c, 0, 64, 67
1, 628051, Note_on_c, 0, 50, 45
1, 628060, Note_on_c, 0, 53, 30
1, 628062, Control_c, 0, 64, 56
1, 628077, Control_c, 0, 64, 48
1, 628092, Control_c, 0, 64, 45
1, 628107, Control_c, 0, 64, 43
1, 628122, Control_c, 0, 64, 41
1, 628136, Control_c, 0, 64, 42
1, 628151, Control_c, 0, 64, 44
1, 628155, Note_off_c, 0, 50, 61
1, 628161, Note_off_c, 0, 46, 37
1, 628166, Control_c, 0, 64, 50
1, 628181, Control_c, 0, 64, 57
1, 628188, Note_off_c, 0, 58, 63
1, 628191, Note_off_c, 0, 62, 63
1, 628192, Note_off_c, 0, 53, 62
1, 628195, Control_c, 0, 64, 65
1, 628210, Control_c, 0, 64, 72
1, 628225, Control_c, 0, 64, 78
1, 628240, Control_c, 0, 64, 79
1, 628255, Control_c, 0, 64, 75
1, 628269, Control_c, 0, 64, 67
1, 628284, Control_c, 0, 64, 57
1, 628299, Control_c, 0, 64, 49
1, 628322, Control_c, 0, 64, 46
1, 628337, Control_c, 0, 64, 45
1, 628351, Control_c, 0, 64, 42
1, 628366, Control_c, 0, 64, 37
1, 628381, Control_c, 0, 64, 31
1, 628395, Control_c, 0, 64, 0
1, 628543, Control_c, 0, 64, 38
1, 628558, Control_c, 0, 64, 54
1, 628573, Control_c, 0, 64, 64
1, 628580, Note_on_c, 0, 58, 43
1, 628585, Note_on_c, 0, 62, 46
1, 628585, Note_on_c, 0, 46, 32
1, 628588, Control_c, 0, 64, 71
1, 628593, Note_on_c, 0, 53, 37
1, 628599, Note_on_c, 0, 50, 27
1, 628602, Control_c, 0, 64, 80
1, 628617, Control_c, 0, 64, 91
1, 628632, Control_c, 0, 64, 117
1, 628647, Control_c, 0, 64, 127
1, 628673, Note_off_c, 0, 46, 57
1, 628677, Note_off_c, 0, 50, 57
1, 628698, Note_off_c, 0, 53, 58
1, 628719, Note_off_c, 0, 58, 61
1, 628725, Note_off_c, 0, 62, 62
1, 628839, Control_c, 0, 64, 87
1, 628854, Control_c, 0, 64, 66
1, 628869, Control_c, 0, 64, 54
1, 628883, Control_c, 0, 64, 46
1, 628898, Control_c, 0, 64, 42
1, 628913, Control_c, 0, 64, 37
1, 628928, Control_c, 0, 64, 30
1, 628943, Control_c, 0, 64, 0
1, 629291, Control_c, 0, 64, 28
1, 629306, Control_c, 0, 64, 32
1, 629321, Control_c, 0, 64, 33
1, 629365, Control_c, 0, 64, 35
1, 629380, Control_c, 0, 64, 39
1, 629395, Control_c, 0, 64, 43
1, 629410, Control_c, 0, 64, 44
1, 629440, Control_c, 0, 64, 45
1, 629455, Control_c, 0, 64, 48
1, 629456, Note_on_c, 0, 65, 49
1, 629470, Control_c, 0, 64, 55
1, 629485, Control_c, 0, 64, 62
1, 629495, Note_on_c, 0, 46, 28
1, 629500, Control_c, 0, 64, 66
1, 629515, Control_c, 0, 64, 69
1, 629529, Control_c, 0, 64, 72
1, 629530, Poly_aftertouch_c, 0, 53, 127
1, 629535, Poly_aftertouch_c, 0, 62, 127
1, 629544, Control_c, 0, 64, 76
1, 629559, Control_c, 0, 64, 81
1, 629574, Control_c, 0, 64, 90
1, 629589, Control_c, 0, 64, 98
1, 629604, Control_c, 0, 64, 108
1, 629619, Control_c, 0, 64, 127
1, 629671, Poly_aftertouch_c, 0, 53, 0
1, 629682, Note_off_c, 0, 46, 30
1, 629935, Poly_aftertouch_c, 0, 62, 0
1, 630141, Note_off_c, 0, 65, 58
1, 630597, Control_c, 0, 64, 117
1, 630612, Control_c, 0, 64, 108
1, 630626, Control_c, 0, 64, 104
1, 630641, Control_c, 0, 64, 102
1, 630671, Control_c, 0, 64, 98
1, 630686, Control_c, 0, 64, 96
1, 630701, Control_c, 0, 64, 93
1, 630715, Control_c, 0, 64, 91
1, 630730, Control_c, 0, 64, 90
1, 630745, Control_c, 0, 64, 88
1, 630760, Control_c, 0, 64, 85
1, 630775, Control_c, 0, 64, 81
1, 630789, Control_c, 0, 64, 76
1, 630804, Control_c, 0, 64, 74
1, 630819, Control_c, 0, 64, 71
1, 630834, Control_c, 0, 64, 69
1, 630849, Control_c, 0, 64, 65
1, 630863, Control_c, 0, 64, 62
1, 630878, Control_c, 0, 64, 59
1, 630893, Control_c, 0, 64, 57
1, 630907, Control_c, 0, 64, 55
1, 630922, Control_c, 0, 64, 52
1, 630937, Control_c, 0, 64, 48
1, 630952, Control_c, 0, 64, 45
1, 630967, Control_c, 0, 64, 44
1, 630981, Control_c, 0, 64, 43
1, 630996, Control_c, 0, 64, 41
1, 631011, Control_c, 0, 64, 37
1, 631026, Control_c, 0, 64, 32
1, 631042, Control_c, 0, 64, 29
1, 631086, Control_c, 0, 64, 0
1, 631235, Control_c, 0, 64, 28
1, 631279, Control_c, 0, 64, 31
1, 631294, Control_c, 0, 64, 34
1, 631316, Control_c, 0, 64, 40
1, 631331, Control_c, 0, 64, 49
1, 631331, Control_c, 0, 67, 121
1, 631338, Note_on_c, 0, 77, 76
1, 631345, Control_c, 0, 64, 61
1, 631345, Control_c, 0, 67, 105
1, 631360, Note_on_c, 0, 74, 53
1, 631360, Note_on_c, 0, 58, 42
1, 631360, Control_c, 0, 64, 72
1, 631360, Control_c, 0, 67, 82
1, 631366, Note_on_c, 0, 68, 43
1, 631368, Note_on_c, 0, 70, 51
1, 631375, Control_c, 0, 64, 95
1, 631375, Control_c, 0, 67, 48
1, 631390, Control_c, 0, 64, 127
1, 631390, Control_c, 0, 67, 0
1, 631400, Note_off_c, 0, 70, 53
1, 631455, Note_off_c, 0, 68, 61
1, 631476, Note_off_c, 0, 58, 58
1, 631590, Note_off_c, 0, 74, 38
1, 632153, Note_on_c, 0, 78, 83
1, 632156, Note_off_c, 0, 77, 65
1, 632261, Note_off_c, 0, 78, 39
1, 632421, Note_on_c, 0, 79, 76
1, 632439, Note_on_c, 0, 67, 56
1, 632441, Note_on_c, 0, 63, 55
1, 632450, Control_c, 0, 64, 87
1, 632456, Note_on_c, 0, 75, 53
1, 632465, Control_c, 0, 64, 62
1, 632479, Control_c, 0, 64, 0
1, 632516, Note_off_c, 0, 75, 0
1, 632539, Control_c, 0, 64, 29
1, 632540, Note_on_c, 0, 75, 19
1, 632547, Note_off_c, 0, 67, 64
1, 632553, Control_c, 0, 64, 55
1, 632557, Note_off_c, 0, 63, 64
1, 632568, Note_off_c, 0, 75, 55
1, 632568, Control_c, 0, 64, 75
1, 632581, Note_off_c, 0, 79, 66
1, 632583, Control_c, 0, 64, 127
1, 632829, Control_c, 0, 64, 103
1, 632844, Control_c, 0, 64, 70
1, 632858, Control_c, 0, 64, 51
1, 632873, Control_c, 0, 64, 0
1, 633006, Control_c, 0, 64, 31
1, 633007, Note_on_c, 0, 79, 75
1, 633017, Note_on_c, 0, 63, 67
1, 633017, Note_on_c, 0, 67, 64
1, 633021, Control_c, 0, 64, 56
1, 633028, Note_on_c, 0, 75, 60
1, 633036, Control_c, 0, 64, 86
1, 633043, Note_off_c, 0, 67, 66
1, 633045, Note_off_c, 0, 63, 65
1, 633051, Control_c, 0, 64, 127
1, 633059, Note_off_c, 0, 75, 64
1, 633123, Note_off_c, 0, 79, 61
1, 633347, Control_c, 0, 67, 37
1, 633362, Control_c, 0, 67, 53
1, 633376, Control_c, 0, 67, 62
1, 633391, Control_c, 0, 67, 68
1, 633406, Control_c, 0, 67, 89
1, 633421, Control_c, 0, 67, 124
1, 633437, Control_c, 0, 67, 127
1, 633467, Control_c, 0, 64, 111
1, 633481, Control_c, 0, 64, 92
1, 633496, Control_c, 0, 64, 80
1, 633511, Control_c, 0, 64, 71
1, 633525, Control_c, 0, 64, 64
1, 633540, Control_c, 0, 64, 55
1, 633563, Control_c, 0, 64, 43
1, 633578, Control_c, 0, 64, 0
1, 633785, Control_c, 0, 64, 40
1, 633788, Note_on_c, 0, 63, 67
1, 633800, Control_c, 0, 64, 57
1, 633814, Control_c, 0, 64, 68
1, 633829, Control_c, 0, 64, 82
1, 633844, Control_c, 0, 64, 127
1, 633950, Note_on_c, 0, 67, 71
1, 634000, Note_off_c, 0, 63, 63
1, 634009, Note_on_c, 0, 70, 75
1, 634019, Note_off_c, 0, 67, 62
1, 634057, Note_on_c, 0, 75, 83
1, 634058, Note_off_c, 0, 70, 62
1, 634075, Note_on_c, 0, 79, 70
1, 634082, Note_off_c, 0, 75, 64
1, 634134, Note_on_c, 0, 82, 70
1, 634171, Note_off_c, 0, 79, 60
1, 634179, Note_on_c, 0, 87, 66
1, 634212, Note_on_c, 0, 91, 80
1, 634214, Control_c, 0, 67, 124
1, 634218, Note_off_c, 0, 82, 60
1, 634230, Control_c, 0, 67, 113
1, 634245, Control_c, 0, 67, 88
1, 634255, Note_off_c, 0, 87, 64
1, 634260, Control_c, 0, 67, 65
1, 634275, Control_c, 0, 67, 49
1, 634290, Control_c, 0, 67, 0
1, 634308, Note_off_c, 0, 91, 68
1, 634311, Note_on_c, 0, 94, 86
1, 634333, Note_off_c, 0, 94, 70
1, 634667, Control_c, 0, 67, 49
1, 634682, Control_c, 0, 67, 86
1, 634697, Control_c, 0, 67, 113
1, 634711, Control_c, 0, 67, 115
1, 634741, Control_c, 0, 67, 122
1, 634755, Control_c, 0, 67, 127
1, 635372, Control_c, 0, 64, 114
1, 635386, Control_c, 0, 64, 110
1, 635401, Control_c, 0, 64, 108
1, 635416, Control_c, 0, 64, 106
1, 635431, Control_c, 0, 64, 103
1, 635446, Control_c, 0, 64, 101
1, 635460, Control_c, 0, 64, 99
1, 635490, Control_c, 0, 64, 95
1, 635504, Control_c, 0, 64, 93
1, 635519, Control_c, 0, 64, 90
1, 635534, Control_c, 0, 64, 88
1, 635549, Control_c, 0, 64, 87
1, 635564, Control_c, 0, 64, 86
1, 635578, Control_c, 0, 64, 85
1, 635593, Control_c, 0, 64, 83
1, 635608, Control_c, 0, 64, 81
1, 635623, Control_c, 0, 64, 79
1, 635638, Control_c, 0, 64, 78
1, 635652, Control_c, 0, 64, 77
1, 635667, Control_c, 0, 64, 75
1, 635682, Control_c, 0, 64, 72
1, 635697, Control_c, 0, 64, 69
1, 635712, Control_c, 0, 64, 67
1, 635727, Control_c, 0, 64, 66
1, 635742, Control_c, 0, 64, 66
1, 635757, Control_c, 0, 64, 64
1, 635771, Control_c, 0, 64, 62
1, 635786, Control_c, 0, 64, 59
1, 635808, Control_c, 0, 64, 59
1, 635839, Control_c, 0, 64, 58
1, 635854, Control_c, 0, 64, 55
1, 635869, Control_c, 0, 64, 52
1, 635883, Control_c, 0, 64, 48
1, 635898, Control_c, 0, 64, 46
1, 635913, Control_c, 0, 64, 46
1, 635928, Control_c, 0, 64, 45
1, 635942, Control_c, 0, 64, 42
1, 635957, Control_c, 0, 64, 38
1, 635972, Control_c, 0, 64, 36
1, 636016, Control_c, 0, 64, 35
1, 636031, Control_c, 0, 64, 35
1, 636481, Note_on_c, 0, 82, 73
1, 636558, Control_c, 0, 64, 34
1, 636737, Control_c, 0, 64, 35
1, 636811, Control_c, 0, 64, 35
1, 636826, Control_c, 0, 64, 36
1, 636884, Control_c, 0, 64, 36
1, 636899, Control_c, 0, 64, 37
1, 636973, Control_c, 0, 64, 38
1, 636988, Control_c, 0, 64, 38
1, 637003, Control_c, 0, 64, 39
1, 637047, Control_c, 0, 64, 39
1, 637062, Control_c, 0, 64, 40
1, 637076, Control_c, 0, 64, 41
1, 637136, Control_c, 0, 64, 41
1, 637150, Control_c, 0, 64, 42
1, 637165, Control_c, 0, 64, 42
1, 637224, Control_c, 0, 64, 43
1, 637239, Control_c, 0, 64, 43
1, 637283, Control_c, 0, 64, 44
1, 637306, Control_c, 0, 64, 45
1, 637321, Control_c, 0, 64, 46
1, 637336, Control_c, 0, 64, 47
1, 637365, Control_c, 0, 64, 48
1, 637380, Control_c, 0, 64, 50
1, 637395, Control_c, 0, 64, 53
1, 637410, Control_c, 0, 64, 54
1, 637441, Control_c, 0, 64, 55
1, 637455, Control_c, 0, 64, 56
1, 637470, Control_c, 0, 64, 59
1, 637485, Control_c, 0, 64, 61
1, 637499, Control_c, 0, 64, 62
1, 637514, Control_c, 0, 64, 63
1, 637529, Control_c, 0, 64, 64
1, 637544, Control_c, 0, 64, 67
1, 637559, Control_c, 0, 64, 71
1, 637573, Control_c, 0, 64, 78
1, 637588, Control_c, 0, 64, 85
1, 637603, Control_c, 0, 64, 94
1, 637618, Control_c, 0, 64, 112
1, 637633, Control_c, 0, 64, 127
1, 637995, Note_on_c, 0, 81, 71
1, 638085, Note_off_c, 0, 81, 66
1, 638088, Note_off_c, 0, 82, 58
1, 638513, Note_on_c, 0, 81, 62
1, 638678, Control_c, 0, 64, 117
1, 638693, Control_c, 0, 64, 106
1, 638708, Control_c, 0, 64, 98
1, 638722, Control_c, 0, 64, 91
1, 638737, Control_c, 0, 64, 83
1, 638752, Control_c, 0, 64, 76
1, 638767, Control_c, 0, 64, 71
1, 638782, Control_c, 0, 64, 66
1, 638803, Control_c, 0, 64, 60
1, 638818, Control_c, 0, 64, 54
1, 638833, Control_c, 0, 64, 49
1, 638848, Control_c, 0, 64, 46
1, 638863, Control_c, 0, 64, 39
1, 638878, Control_c, 0, 64, 34
1, 638892, Control_c, 0, 64, 32
1, 638907, Control_c, 0, 64, 33
1, 638922, Control_c, 0, 64, 39
1, 638937, Control_c, 0, 64, 50
1, 638952, Control_c, 0, 64, 61
1, 638967, Control_c, 0, 64, 70
1, 638982, Control_c, 0, 64, 77
1, 638997, Control_c, 0, 64, 81
1, 639011, Control_c, 0, 64, 85
1, 639027, Control_c, 0, 64, 92
1, 639042, Control_c, 0, 64, 103
1, 639056, Control_c, 0, 64, 127
1, 639134, Note_on_c, 0, 79, 49
1, 639200, Note_off_c, 0, 81, 53
1, 639477, Note_on_c, 0, 77, 57
1, 639484, Note_off_c, 0, 79, 61
1, 639508, Note_off_c, 0, 77, 65
1, 639642, Note_on_c, 0, 77, 67
1, 639790, Control_c, 0, 64, 95
1, 639805, Control_c, 0, 64, 80
1, 639821, Control_c, 0, 64, 69
1, 639836, Control_c, 0, 64, 59
1, 639850, Control_c, 0, 64, 49
1, 639865, Control_c, 0, 64, 40
1, 639880, Control_c, 0, 64, 32
1, 639894, Control_c, 0, 64, 0
1, 639983, Control_c, 0, 64, 33
1, 639998, Control_c, 0, 64, 43
1, 640013, Control_c, 0, 64, 51
1, 640028, Control_c, 0, 64, 59
1, 640043, Control_c, 0, 64, 65
1, 640058, Control_c, 0, 64, 71
1, 640073, Control_c, 0, 64, 75
1, 640088, Control_c, 0, 64, 81
1, 640099, Note_on_c, 0, 75, 61
1, 640102, Control_c, 0, 64, 87
1, 640117, Control_c, 0, 64, 96
1, 640132, Control_c, 0, 64, 120
1, 640147, Note_off_c, 0, 77, 60
1, 640147, Control_c, 0, 64, 127
1, 640427, Note_on_c, 0, 74, 64
1, 640446, Note_off_c, 0, 75, 63
1, 640454, Note_off_c, 0, 74, 68
1, 640616, Note_on_c, 0, 74, 60
1, 640637, Note_on_c, 0, 63, 47
1, 640641, Note_on_c, 0, 69, 37
1, 640643, Note_on_c, 0, 53, 39
1, 640664, Note_on_c, 0, 65, 34
1, 640717, Control_c, 0, 64, 103
1, 640732, Control_c, 0, 64, 91
1, 640747, Control_c, 0, 64, 83
1, 640762, Control_c, 0, 64, 74
1, 640776, Control_c, 0, 64, 65
1, 640791, Control_c, 0, 64, 55
1, 640806, Control_c, 0, 64, 49
1, 640821, Control_c, 0, 64, 46
1, 640836, Control_c, 0, 64, 43
1, 640851, Control_c, 0, 64, 36
1, 640865, Control_c, 0, 64, 28
1, 640880, Control_c, 0, 64, 0
1, 641159, Note_on_c, 0, 72, 56
1, 641174, Note_off_c, 0, 74, 50
1, 641198, Control_c, 0, 64, 33
1, 641213, Control_c, 0, 64, 45
1, 641228, Control_c, 0, 64, 60
1, 641242, Control_c, 0, 64, 70
1, 641256, Note_off_c, 0, 69, 52
1, 641257, Control_c, 0, 64, 80
1, 641272, Control_c, 0, 64, 91
1, 641274, Note_off_c, 0, 72, 57
1, 641287, Control_c, 0, 64, 99
1, 641302, Control_c, 0, 64, 120
1, 641316, Control_c, 0, 64, 127
1, 641317, Note_off_c, 0, 63, 42
1, 641328, Note_off_c, 0, 53, 41
1, 641543, Note_on_c, 0, 73, 49
1, 641575, Note_off_c, 0, 73, 64
1, 641610, Note_off_c, 0, 65, 41
1, 641675, Note_on_c, 0, 74, 56
1, 641695, Note_on_c, 0, 62, 41
1, 641700, Note_on_c, 0, 58, 36
1, 641702, Control_c, 0, 64, 90
1, 641717, Control_c, 0, 64, 74
1, 641721, Note_on_c, 0, 65, 29
1, 641724, Note_on_c, 0, 70, 28
1, 641732, Control_c, 0, 64, 62
1, 641746, Control_c, 0, 64, 50
1, 641761, Control_c, 0, 64, 42
1, 641776, Control_c, 0, 64, 38
1, 641799, Control_c, 0, 64, 35
1, 641814, Control_c, 0, 64, 30
1, 641828, Control_c, 0, 64, 0
1, 641844, Note_off_c, 0, 58, 57
1, 641844, Note_off_c, 0, 62, 63
1, 641873, Note_off_c, 0, 70, 60
1, 641873, Note_off_c, 0, 74, 62
1, 641880, Note_off_c, 0, 65, 55
1, 642020, Control_c, 0, 64, 27
1, 642035, Control_c, 0, 64, 29
1, 642184, Control_c, 0, 64, 33
1, 642199, Control_c, 0, 64, 35
1, 642244, Control_c, 0, 64, 35
1, 642259, Control_c, 0, 64, 37
1, 642274, Control_c, 0, 64, 43
1, 642289, Control_c, 0, 64, 49
1, 642303, Control_c, 0, 64, 53
1, 642318, Note_on_c, 0, 74, 45
1, 642318, Control_c, 0, 64, 55
1, 642333, Control_c, 0, 64, 59
1, 642335, Note_on_c, 0, 58, 31
1, 642336, Note_on_c, 0, 65, 31
1, 642339, Note_on_c, 0, 70, 35
1, 642345, Note_on_c, 0, 62, 32
1, 642348, Control_c, 0, 64, 65
1, 642362, Control_c, 0, 64, 72
1, 642377, Control_c, 0, 64, 82
1, 642392, Control_c, 0, 64, 99
1, 642407, Control_c, 0, 64, 127
1, 642448, Note_off_c, 0, 58, 52
1, 642452, Note_off_c, 0, 62, 51
1, 642470, Note_off_c, 0, 65, 52
1, 642479, Note_off_c, 0, 70, 59
1, 642484, Note_off_c, 0, 74, 63
1, 642651, Control_c, 0, 64, 99
1, 642666, Control_c, 0, 64, 86
1, 642681, Control_c, 0, 64, 76
1, 642696, Control_c, 0, 64, 68
1, 642711, Control_c, 0, 64, 61
1, 642726, Control_c, 0, 64, 55
1, 642741, Control_c, 0, 64, 53
1, 642756, Control_c, 0, 64, 51
1, 642770, Control_c, 0, 64, 48
1, 642785, Control_c, 0, 64, 45
1, 642800, Control_c, 0, 64, 42
1, 642815, Control_c, 0, 64, 40
1, 642830, Control_c, 0, 64, 38
1, 642859, Control_c, 0, 64, 37
1, 642873, Control_c, 0, 64, 35
1, 642887, Control_c, 0, 64, 34
1, 642902, Control_c, 0, 64, 33
1, 642961, Control_c, 0, 64, 33
1, 642991, Control_c, 0, 64, 33
1, 643066, Control_c, 0, 64, 34
1, 643081, Control_c, 0, 64, 36
1, 643155, Control_c, 0, 64, 37
1, 643170, Control_c, 0, 64, 38
1, 643230, Control_c, 0, 64, 39
1, 643245, Control_c, 0, 64, 40
1, 643296, Control_c, 0, 64, 41
1, 643311, Control_c, 0, 64, 42
1, 643325, Control_c, 0, 64, 43
1, 643340, Control_c, 0, 64, 44
1, 643385, Control_c, 0, 64, 45
1, 643400, Control_c, 0, 64, 47
1, 643415, Control_c, 0, 64, 48
1, 643459, Control_c, 0, 64, 49
1, 643474, Control_c, 0, 64, 51
1, 643489, Control_c, 0, 64, 56
1, 643504, Control_c, 0, 64, 61
1, 643513, Note_on_c, 0, 77, 63
1, 643518, Control_c, 0, 64, 65
1, 643533, Control_c, 0, 64, 68
1, 643548, Control_c, 0, 64, 71
1, 643551, Note_on_c, 0, 58, 42
1, 643563, Control_c, 0, 64, 75
1, 643570, Note_on_c, 0, 65, 22
1, 643576, Note_on_c, 0, 74, 26
1, 643578, Control_c, 0, 64, 81
1, 643592, Control_c, 0, 64, 88
1, 643607, Control_c, 0, 64, 95
1, 643622, Control_c, 0, 64, 103
1, 643637, Control_c, 0, 64, 115
1, 643640, Note_off_c, 0, 74, 0
1, 643640, Note_on_c, 0, 74, 10
1, 643651, Control_c, 0, 64, 127
1, 643668, Note_off_c, 0, 58, 61
1, 643701, Note_off_c, 0, 65, 41
1, 644768, Note_off_c, 0, 74, 37
1, 644833, Note_off_c, 0, 77, 51
1, 645371, Control_c, 0, 64, 117
1, 645386, Control_c, 0, 64, 112
1, 645401, Control_c, 0, 64, 110
1, 645432, Control_c, 0, 64, 106
1, 645447, Control_c, 0, 64, 103
1, 645461, Control_c, 0, 64, 98
1, 645476, Control_c, 0, 64, 94
1, 645491, Control_c, 0, 64, 91
1, 645505, Control_c, 0, 64, 89
1, 645520, Control_c, 0, 64, 86
1, 645543, Control_c, 0, 64, 82
1, 645558, Control_c, 0, 64, 78
1, 645573, Control_c, 0, 64, 76
1, 645587, Control_c, 0, 64, 73
1, 645602, Control_c, 0, 64, 70
1, 645617, Control_c, 0, 64, 67
1, 645632, Control_c, 0, 64, 64
1, 645646, Control_c, 0, 64, 61
1, 645661, Control_c, 0, 64, 59
1, 645676, Control_c, 0, 64, 58
1, 645691, Control_c, 0, 64, 57
1, 645706, Control_c, 0, 64, 54
1, 645720, Control_c, 0, 64, 51
1, 645735, Control_c, 0, 64, 49
1, 645750, Control_c, 0, 64, 47
1, 645765, Control_c, 0, 64, 45
1, 645780, Control_c, 0, 64, 42
1, 645794, Control_c, 0, 64, 37
1, 645809, Control_c, 0, 64, 33
1, 645824, Control_c, 0, 64, 32
1, 645899, Control_c, 0, 64, 34
1, 645913, Control_c, 0, 64, 36
1, 645928, Control_c, 0, 64, 37
1, 645943, Control_c, 0, 64, 38
1, 645958, Control_c, 0, 64, 40
1, 645973, Control_c, 0, 64, 44
1, 645987, Control_c, 0, 64, 49
1, 646002, Control_c, 0, 64, 52
1, 646047, Control_c, 0, 64, 52
1, 646062, Control_c, 0, 64, 54
1, 646076, Control_c, 0, 64, 57
1, 646091, Control_c, 0, 64, 58
1, 646136, Control_c, 0, 64, 59
1, 646140, Note_on_c, 0, 77, 78
1, 646151, Control_c, 0, 64, 64
1, 646157, Note_on_c, 0, 74, 59
1, 646166, Control_c, 0, 64, 76
1, 646169, Note_on_c, 0, 56, 47
1, 646178, Note_on_c, 0, 72, 37
1, 646179, Note_on_c, 0, 62, 47
1, 646181, Control_c, 0, 64, 108
1, 646184, Note_on_c, 0, 65, 38
1, 646195, Control_c, 0, 64, 127
1, 646279, Note_off_c, 0, 62, 48
1, 646290, Note_off_c, 0, 56, 57
1, 646300, Note_off_c, 0, 65, 33
1, 646425, Control_c, 0, 67, 123
1, 646440, Control_c, 0, 67, 121
1, 646485, Control_c, 0, 67, 119
1, 646559, Control_c, 0, 67, 116
1, 646634, Note_off_c, 0, 72, 38
1, 646884, Control_c, 0, 67, 119
1, 646974, Control_c, 0, 67, 121
1, 647056, Control_c, 0, 67, 124
1, 647072, Note_off_c, 0, 74, 63
1, 647094, Note_off_c, 0, 77, 68
1, 647115, Control_c, 0, 67, 127
1, 647819, Control_c, 0, 64, 114
1, 647834, Control_c, 0, 64, 96
1, 647849, Control_c, 0, 64, 87
1, 647863, Control_c, 0, 64, 82
1, 647878, Control_c, 0, 64, 79
1, 647893, Control_c, 0, 64, 77
1, 647908, Control_c, 0, 64, 73
1, 647922, Control_c, 0, 64, 68
1, 647937, Control_c, 0, 64, 62
1, 647952, Control_c, 0, 64, 58
1, 647967, Control_c, 0, 64, 57
1, 647982, Control_c, 0, 64, 55
1, 647996, Control_c, 0, 64, 51
1, 648011, Control_c, 0, 64, 46
1, 648026, Control_c, 0, 64, 40
1, 648041, Control_c, 0, 64, 34
1, 648056, Control_c, 0, 64, 32
1, 648071, Control_c, 0, 64, 32
1, 648115, Control_c, 0, 64, 29
1, 648122, Note_on_c, 0, 80, 84
1, 648140, Note_on_c, 0, 74, 63
1, 648145, Note_on_c, 0, 55, 41
1, 648152, Note_on_c, 0, 62, 39
1, 648160, Control_c, 0, 64, 32
1, 648160, Note_on_c, 0, 65, 35
1, 648164, Note_on_c, 0, 71, 35
1, 648175, Control_c, 0, 64, 36
1, 648179, Note_on_c, 0, 68, 11
1, 648189, Control_c, 0, 64, 40
1, 648204, Control_c, 0, 64, 42
1, 648219, Control_c, 0, 64, 46
1, 648233, Control_c, 0, 64, 49
1, 648248, Control_c, 0, 64, 52
1, 648263, Control_c, 0, 64, 54
1, 648278, Control_c, 0, 64, 56
1, 648293, Control_c, 0, 64, 59
1, 648307, Control_c, 0, 64, 61
1, 648322, Control_c, 0, 64, 64
1, 648337, Control_c, 0, 64, 66
1, 648352, Control_c, 0, 64, 69
1, 648367, Control_c, 0, 64, 72
1, 648381, Control_c, 0, 64, 75
1, 648396, Control_c, 0, 64, 79
1, 648411, Control_c, 0, 64, 85
1, 648425, Control_c, 0, 64, 91
1, 648440, Control_c, 0, 64, 104
1, 648455, Control_c, 0, 64, 127
1, 648957, Note_off_c, 0, 80, 53
1, 649073, Note_off_c, 0, 68, 40
1, 649433, Note_off_c, 0, 65, 34
1, 649652, Note_off_c, 0, 62, 34
1, 649664, Note_off_c, 0, 55, 35
1, 649695, Note_on_c, 0, 79, 58
1, 649728, Note_on_c, 0, 67, 19
1, 649772, Note_off_c, 0, 74, 59
1, 649804, Note_off_c, 0, 71, 41
1, 649838, Note_off_c, 0, 79, 58
1, 649841, Note_off_c, 0, 67, 43
1, 650326, Note_on_c, 0, 77, 59
1, 650344, Note_on_c, 0, 63, 42
1, 650348, Note_on_c, 0, 60, 40
1, 650352, Note_on_c, 0, 72, 36
1, 650360, Note_on_c, 0, 67, 23
1, 650422, Control_c, 0, 64, 117
1, 650436, Control_c, 0, 64, 95
1, 650451, Control_c, 0, 64, 79
1, 650466, Control_c, 0, 64, 65
1, 650481, Control_c, 0, 64, 49
1, 650496, Control_c, 0, 64, 31
1, 650510, Control_c, 0, 64, 0
1, 650570, Control_c, 0, 64, 37
1, 650584, Control_c, 0, 64, 57
1, 650599, Control_c, 0, 64, 68
1, 650614, Control_c, 0, 64, 79
1, 650622, Note_off_c, 0, 72, 58
1, 650628, Control_c, 0, 64, 89
1, 650643, Control_c, 0, 64, 95
1, 650658, Control_c, 0, 64, 101
1, 650673, Control_c, 0, 64, 108
1, 650688, Control_c, 0, 64, 121
1, 650703, Control_c, 0, 64, 127
1, 650733, Note_off_c, 0, 63, 60
1, 650746, Note_off_c, 0, 60, 62
1, 650849, Note_on_c, 0, 75, 75
1, 650947, Note_off_c, 0, 67, 44
1, 650977, Control_c, 0, 64, 120
1, 650992, Control_c, 0, 64, 112
1, 650993, Note_off_c, 0, 77, 34
1, 651007, Control_c, 0, 64, 108
1, 651022, Control_c, 0, 64, 103
1, 651037, Control_c, 0, 64, 98
1, 651052, Control_c, 0, 64, 94
1, 651066, Control_c, 0, 64, 89
1, 651081, Control_c, 0, 64, 84
1, 651090, Note_on_c, 0, 74, 81
1, 651096, Control_c, 0, 64, 75
1, 651102, Note_on_c, 0, 66, 50
1, 651111, Control_c, 0, 64, 66
1, 651125, Control_c, 0, 64, 59
1, 651140, Control_c, 0, 64, 54
1, 651155, Control_c, 0, 64, 52
1, 651170, Control_c, 0, 64, 50
1, 651185, Control_c, 0, 64, 46
1, 651195, Note_off_c, 0, 75, 56
1, 651199, Control_c, 0, 64, 41
1, 651214, Control_c, 0, 64, 37
1, 651229, Control_c, 0, 64, 35
1, 651244, Control_c, 0, 64, 34
1, 651273, Control_c, 0, 64, 33
1, 651362, Control_c, 0, 64, 33
1, 651377, Control_c, 0, 64, 32
1, 651414, Note_on_c, 0, 77, 75
1, 651432, Note_on_c, 0, 67, 46
1, 651466, Control_c, 0, 64, 30
1, 651492, Note_off_c, 0, 74, 63
1, 651562, Note_off_c, 0, 66, 64
1, 651877, Note_on_c, 0, 75, 77
1, 652045, Note_off_c, 0, 77, 62
1, 652103, Note_on_c, 0, 72, 76
1, 652119, Note_on_c, 0, 63, 49
1, 652128, Note_off_c, 0, 75, 64
1, 652381, Note_off_c, 0, 67, 40
1, 652383, Note_on_c, 0, 70, 72
1, 652399, Note_on_c, 0, 60, 48
1, 652415, Control_c, 0, 64, 0
1, 652434, Note_off_c, 0, 63, 64
1, 652435, Note_off_c, 0, 72, 59
1, 652534, Control_c, 0, 64, 33
1, 652549, Control_c, 0, 64, 48
1, 652563, Control_c, 0, 64, 62
1, 652578, Control_c, 0, 64, 70
1, 652593, Control_c, 0, 64, 77
1, 652601, Note_off_c, 0, 60, 64
1, 652609, Control_c, 0, 64, 82
1, 652624, Control_c, 0, 64, 87
1, 652638, Control_c, 0, 64, 97
1, 652653, Control_c, 0, 64, 111
1, 652668, Control_c, 0, 64, 127
1, 652757, Note_on_c, 0, 69, 59
1, 652789, Note_off_c, 0, 70, 61
1, 652814, Note_off_c, 0, 69, 61
1, 652921, Note_on_c, 0, 69, 62
1, 652931, Note_on_c, 0, 60, 44
1, 652931, Note_on_c, 0, 65, 43
1, 652937, Note_on_c, 0, 53, 39
1, 652950, Control_c, 0, 64, 100
1, 652965, Control_c, 0, 64, 77
1, 652979, Control_c, 0, 64, 61
1, 652994, Control_c, 0, 64, 44
1, 653008, Note_off_c, 0, 65, 0
1, 653008, Note_on_c, 0, 65, 13
1, 653009, Control_c, 0, 64, 0
1, 653076, Control_c, 0, 64, 31
1, 653091, Control_c, 0, 64, 47
1, 653105, Control_c, 0, 64, 61
1, 653120, Control_c, 0, 64, 70
1, 653135, Control_c, 0, 64, 79
1, 653150, Control_c, 0, 64, 87
1, 653163, Note_off_c, 0, 53, 61
1, 653165, Control_c, 0, 64, 92
1, 653179, Control_c, 0, 64, 102
1, 653194, Control_c, 0, 64, 118
1, 653209, Control_c, 0, 64, 127
1, 653272, Note_off_c, 0, 60, 37
1, 653299, Note_on_c, 0, 62, 50
1, 653319, Note_off_c, 0, 69, 60
1, 653330, Note_off_c, 0, 65, 48
1, 653336, Note_off_c, 0, 62, 57
1, 653444, Note_on_c, 0, 69, 57
1, 653450, Note_on_c, 0, 63, 44
1, 653455, Note_on_c, 0, 66, 52
1, 653457, Note_on_c, 0, 53, 38
1, 653461, Control_c, 0, 64, 109
1, 653476, Control_c, 0, 64, 80
1, 653491, Control_c, 0, 64, 63
1, 653506, Control_c, 0, 64, 44
1, 653521, Control_c, 0, 64, 0
1, 653580, Control_c, 0, 64, 40
1, 653595, Control_c, 0, 64, 57
1, 653609, Control_c, 0, 64, 68
1, 653624, Control_c, 0, 64, 77
1, 653639, Control_c, 0, 64, 87
1, 653654, Control_c, 0, 64, 96
1, 653657, Note_off_c, 0, 69, 57
1, 653669, Control_c, 0, 64, 111
1, 653678, Note_off_c, 0, 66, 63
1, 653681, Note_off_c, 0, 53, 34
1, 653684, Control_c, 0, 64, 127
1, 653714, Note_off_c, 0, 63, 35
1, 653988, Note_on_c, 0, 69, 48
1, 653997, Note_on_c, 0, 65, 35
1, 654002, Control_c, 0, 64, 88
1, 654017, Control_c, 0, 64, 70
1, 654021, Note_on_c, 0, 60, 29
1, 654022, Note_on_c, 0, 53, 31
1, 654032, Control_c, 0, 64, 55
1, 654046, Control_c, 0, 64, 35
1, 654061, Control_c, 0, 64, 0
1, 654119, Control_c, 0, 64, 34
1, 654134, Control_c, 0, 64, 53
1, 654149, Control_c, 0, 64, 67
1, 654164, Control_c, 0, 64, 79
1, 654178, Control_c, 0, 64, 90
1, 654183, Note_off_c, 0, 60, 53
1, 654193, Control_c, 0, 64, 98
1, 654206, Note_off_c, 0, 53, 61
1, 654208, Control_c, 0, 64, 112
1, 654223, Control_c, 0, 64, 127
1, 654262, Note_on_c, 0, 63, 40
1, 654321, Note_off_c, 0, 65, 39
1, 654323, Note_off_c, 0, 69, 55
1, 654340, Note_off_c, 0, 63, 53
1, 654569, Note_on_c, 0, 70, 53
1, 654586, Note_on_c, 0, 62, 42
1, 654587, Control_c, 0, 64, 92
1, 654590, Note_on_c, 0, 46, 42
1, 654601, Control_c, 0, 64, 76
1, 654609, Note_on_c, 0, 58, 29
1, 654616, Control_c, 0, 64, 65
1, 654631, Control_c, 0, 64, 55
1, 654646, Control_c, 0, 64, 47
1, 654661, Control_c, 0, 64, 41
1, 654675, Control_c, 0, 64, 34
1, 654690, Control_c, 0, 64, 0
1, 654823, Note_off_c, 0, 46, 59
1, 654831, Note_off_c, 0, 58, 44
1, 654870, Note_off_c, 0, 70, 65
1, 654884, Note_off_c, 0, 62, 61
1, 655291, Control_c, 0, 64, 27
1, 655305, Note_on_c, 0, 65, 54
1, 655305, Control_c, 0, 64, 31
1, 655320, Control_c, 0, 64, 36
1, 655329, Note_on_c, 0, 62, 35
1, 655334, Note_on_c, 0, 53, 19
1, 655335, Note_on_c, 0, 46, 31
1, 655335, Control_c, 0, 64, 39
1, 655350, Control_c, 0, 64, 40
1, 655365, Control_c, 0, 64, 40
1, 655380, Control_c, 0, 64, 43
1, 655395, Control_c, 0, 64, 49
1, 655410, Control_c, 0, 64, 55
1, 655424, Control_c, 0, 64, 56
1, 655454, Control_c, 0, 64, 57
1, 655469, Control_c, 0, 64, 59
1, 655484, Control_c, 0, 64, 62
1, 655498, Control_c, 0, 64, 65
1, 655513, Control_c, 0, 64, 66
1, 655528, Control_c, 0, 64, 68
1, 655543, Control_c, 0, 64, 69
1, 655557, Control_c, 0, 64, 73
1, 655572, Control_c, 0, 64, 78
1, 655587, Control_c, 0, 64, 85
1, 655603, Control_c, 0, 64, 93
1, 655618, Control_c, 0, 64, 102
1, 655632, Control_c, 0, 64, 116
1, 655647, Control_c, 0, 64, 127
1, 655738, Note_off_c, 0, 46, 41
1, 655859, Note_off_c, 0, 53, 36
1, 656365, Note_off_c, 0, 62, 43
1, 656402, Note_off_c, 0, 65, 61
1, 656775, Control_c, 0, 64, 109
1, 656790, Control_c, 0, 64, 101
1, 656804, Control_c, 0, 64, 96
1, 656819, Control_c, 0, 64, 90
1, 656834, Control_c, 0, 64, 86
1, 656849, Control_c, 0, 64, 81
1, 656864, Control_c, 0, 64, 77
1, 656878, Control_c, 0, 64, 74
1, 656893, Control_c, 0, 64, 72
1, 656908, Control_c, 0, 64, 70
1, 656923, Control_c, 0, 64, 67
1, 656938, Control_c, 0, 64, 65
1, 656952, Control_c, 0, 64, 62
1, 656967, Control_c, 0, 64, 61
1, 656982, Control_c, 0, 64, 60
1, 656996, Control_c, 0, 64, 59
1, 657011, Control_c, 0, 64, 57
1, 657026, Control_c, 0, 64, 54
1, 657041, Control_c, 0, 64, 52
1, 657056, Control_c, 0, 64, 51
1, 657070, Control_c, 0, 64, 50
1, 657085, Control_c, 0, 64, 49
1, 657100, Control_c, 0, 64, 46
1, 657115, Control_c, 0, 64, 43
1, 657130, Control_c, 0, 64, 43
1, 657174, Control_c, 0, 64, 42
1, 657189, Control_c, 0, 64, 41
1, 657219, Control_c, 0, 64, 42
1, 657234, Control_c, 0, 64, 44
1, 657278, Control_c, 0, 64, 45
1, 657293, Control_c, 0, 64, 49
1, 657308, Control_c, 0, 64, 56
1, 657322, Control_c, 0, 64, 60
1, 657352, Control_c, 0, 64, 61
1, 657367, Control_c, 0, 64, 62
1, 657382, Control_c, 0, 64, 66
1, 657398, Control_c, 0, 64, 74
1, 657398, Control_c, 0, 67, 125
1, 657413, Control_c, 0, 64, 85
1, 657413, Control_c, 0, 67, 114
1, 657427, Control_c, 0, 64, 98
1, 657427, Control_c, 0, 67, 104
1, 657442, Control_c, 0, 64, 106
1, 657442, Control_c, 0, 67, 94
1, 657457, Control_c, 0, 64, 127
1, 657457, Control_c, 0, 67, 80
1, 657472, Control_c, 0, 67, 60
1, 657486, Control_c, 0, 67, 36
1, 657501, Control_c, 0, 67, 0
1, 657577, Note_on_c, 0, 65, 74
1, 657592, Note_on_c, 0, 62, 60
1, 657610, Note_on_c, 0, 44, 49
1, 657613, Note_on_c, 0, 60, 39
1, 657614, Note_on_c, 0, 53, 45
1, 657761, Note_off_c, 0, 53, 53
1, 657768, Note_off_c, 0, 44, 57
1, 658103, Note_off_c, 0, 60, 45
1, 658222, Note_off_c, 0, 62, 52
1, 658301, Note_off_c, 0, 65, 62
1, 659028, Note_on_c, 0, 68, 77
1, 659049, Note_on_c, 0, 62, 52
1, 659058, Note_on_c, 0, 50, 39
1, 659062, Note_on_c, 0, 56, 41
1, 659064, Note_on_c, 0, 43, 48
1, 659064, Note_on_c, 0, 53, 43
1, 659073, Note_on_c, 0, 59, 42
1, 659198, Control_c, 0, 64, 105
1, 659213, Control_c, 0, 64, 88
1, 659228, Control_c, 0, 64, 75
1, 659243, Control_c, 0, 64, 64
1, 659258, Control_c, 0, 64, 52
1, 659273, Control_c, 0, 64, 44
1, 659288, Control_c, 0, 64, 36
1, 659303, Control_c, 0, 64, 29
1, 659303, Control_c, 0, 67, 48
1, 659318, Control_c, 0, 64, 0
1, 659318, Control_c, 0, 67, 57
1, 659333, Control_c, 0, 67, 60
1, 659347, Control_c, 0, 64, 28
1, 659347, Control_c, 0, 67, 69
1, 659362, Control_c, 0, 64, 41
1, 659362, Control_c, 0, 67, 89
1, 659377, Control_c, 0, 64, 54
1, 659377, Control_c, 0, 67, 113
1, 659391, Control_c, 0, 64, 65
1, 659391, Control_c, 0, 67, 127
1, 659406, Control_c, 0, 64, 72
1, 659421, Control_c, 0, 64, 77
1, 659436, Control_c, 0, 64, 81
1, 659451, Control_c, 0, 64, 87
1, 659465, Control_c, 0, 64, 97
1, 659480, Control_c, 0, 64, 115
1, 659495, Control_c, 0, 64, 127
1, 659688, Note_off_c, 0, 56, 37
1, 659731, Note_off_c, 0, 68, 38
1, 660498, Note_off_c, 0, 59, 16
1, 660719, Note_on_c, 0, 67, 57
1, 660735, Note_on_c, 0, 55, 37
1, 660794, Note_off_c, 0, 62, 9
1, 660955, Note_off_c, 0, 50, 63
1, 660959, Note_off_c, 0, 43, 37
1, 660971, Note_off_c, 0, 55, 34
1, 660972, Note_off_c, 0, 67, 51
1, 661190, Note_off_c, 0, 53, 37
1, 661374, Note_on_c, 0, 65, 47
1, 661401, Note_on_c, 0, 55, 31
1, 661403, Note_on_c, 0, 60, 35
1, 661409, Note_on_c, 0, 51, 32
1, 661413, Note_on_c, 0, 48, 38
1, 661471, Note_off_c, 0, 60, 0
1, 661471, Note_on_c, 0, 60, 9
1, 661490, Control_c, 0, 64, 106
1, 661505, Control_c, 0, 64, 87
1, 661520, Control_c, 0, 64, 77
1, 661534, Control_c, 0, 64, 70
1, 661549, Control_c, 0, 64, 63
1, 661564, Control_c, 0, 64, 58
1, 661579, Control_c, 0, 64, 55
1, 661593, Control_c, 0, 64, 51
1, 661608, Control_c, 0, 64, 47
1, 661623, Control_c, 0, 64, 42
1, 661638, Control_c, 0, 64, 37
1, 661653, Control_c, 0, 64, 31
1, 661667, Control_c, 0, 64, 0
1, 661744, Note_off_c, 0, 60, 54
1, 661872, Note_off_c, 0, 48, 54
1, 661881, Note_off_c, 0, 51, 43
1, 661959, Note_on_c, 0, 63, 66
1, 662090, Note_off_c, 0, 55, 45
1, 662203, Note_on_c, 0, 62, 66
1, 662218, Note_off_c, 0, 65, 35
1, 662224, Note_on_c, 0, 54, 35
1, 662287, Note_off_c, 0, 63, 59
1, 662515, Note_on_c, 0, 65, 58
1, 662529, Note_on_c, 0, 55, 36
1, 662585, Note_off_c, 0, 62, 61
1, 662649, Note_off_c, 0, 54, 55
1, 663050, Note_on_c, 0, 63, 59
1, 663151, Note_off_c, 0, 65, 55
1, 663311, Note_off_c, 0, 63, 61
1, 663316, Note_on_c, 0, 51, 38
1, 663318, Note_on_c, 0, 60, 52
1, 663574, Note_off_c, 0, 55, 30
1, 663633, Note_on_c, 0, 58, 54
1, 663682, Note_on_c, 0, 48, 38
1, 663711, Note_off_c, 0, 60, 38
1, 663714, Note_off_c, 0, 51, 49
1, 663810, Control_c, 0, 64, 34
1, 663825, Control_c, 0, 64, 47
1, 663840, Control_c, 0, 64, 59
1, 663855, Control_c, 0, 64, 66
1, 663869, Control_c, 0, 64, 71
1, 663884, Control_c, 0, 64, 75
1, 663899, Control_c, 0, 64, 81
1, 663914, Control_c, 0, 64, 90
1, 663929, Control_c, 0, 64, 101
1, 663944, Control_c, 0, 64, 127
1, 663944, Note_off_c, 0, 48, 46
1, 664144, Note_on_c, 0, 57, 50
1, 664157, Note_off_c, 0, 58, 58
1, 664189, Note_off_c, 0, 57, 56
1, 664335, Note_on_c, 0, 57, 49
1, 664368, Note_on_c, 0, 48, 42
1, 664370, Note_on_c, 0, 41, 35
1, 664380, Control_c, 0, 64, 107
1, 664395, Control_c, 0, 64, 84
1, 664410, Control_c, 0, 64, 69
1, 664420, Poly_aftertouch_c, 0, 53, 127
1, 664425, Control_c, 0, 64, 55
1, 664440, Control_c, 0, 64, 37
1, 664454, Control_c, 0, 64, 0
1, 664513, Control_c, 0, 64, 32
1, 664528, Control_c, 0, 64, 48
1, 664543, Control_c, 0, 64, 62
1, 664558, Control_c, 0, 64, 69
1, 664573, Control_c, 0, 64, 73
1, 664589, Control_c, 0, 64, 77
1, 664603, Control_c, 0, 64, 84
1, 664618, Control_c, 0, 64, 95
1, 664633, Control_c, 0, 64, 111
1, 664648, Control_c, 0, 64, 127
1, 664675, Note_off_c, 0, 41, 39
1, 664689, Note_off_c, 0, 48, 52
1, 664919, Note_on_c, 0, 50, 40
1, 664943, Note_off_c, 0, 57, 58
1, 664966, Poly_aftertouch_c, 0, 53, 0
1, 664972, Note_off_c, 0, 50, 57
1, 665143, Note_on_c, 0, 57, 34
1, 665152, Note_on_c, 0, 54, 36
1, 665168, Note_on_c, 0, 41, 30
1, 665176, Note_on_c, 0, 51, 30
1, 665203, Control_c, 0, 64, 93
1, 665218, Control_c, 0, 64, 75
1, 665233, Control_c, 0, 64, 63
1, 665248, Control_c, 0, 64, 50
1, 665263, Control_c, 0, 64, 39
1, 665277, Control_c, 0, 64, 28
1, 665292, Control_c, 0, 64, 0
1, 665337, Control_c, 0, 64, 27
1, 665352, Control_c, 0, 64, 39
1, 665367, Control_c, 0, 64, 52
1, 665383, Control_c, 0, 64, 63
1, 665398, Control_c, 0, 64, 67
1, 665413, Control_c, 0, 64, 72
1, 665427, Control_c, 0, 64, 79
1, 665442, Control_c, 0, 64, 87
1, 665457, Control_c, 0, 64, 97
1, 665472, Control_c, 0, 64, 110
1, 665487, Control_c, 0, 64, 127
1, 665579, Note_off_c, 0, 57, 41
1, 665583, Note_off_c, 0, 54, 38
1, 665591, Note_off_c, 0, 51, 44
1, 665592, Note_off_c, 0, 41, 38
1, 666135, Note_on_c, 0, 57, 20
1, 666150, Note_on_c, 0, 41, 29
1, 666150, Note_on_c, 0, 53, 14
1, 666163, Note_on_c, 0, 48, 12
1, 666190, Control_c, 0, 64, 100
1, 666205, Control_c, 0, 64, 79
1, 666220, Control_c, 0, 64, 64
1, 666235, Control_c, 0, 64, 49
1, 666249, Control_c, 0, 64, 40
1, 666264, Control_c, 0, 64, 38
1, 666294, Control_c, 0, 64, 41
1, 666309, Control_c, 0, 64, 50
1, 666323, Control_c, 0, 64, 60
1, 666338, Control_c, 0, 64, 66
1, 666353, Control_c, 0, 64, 74
1, 666368, Control_c, 0, 64, 82
1, 666382, Control_c, 0, 64, 88
1, 666397, Control_c, 0, 64, 95
1, 666412, Control_c, 0, 64, 106
1, 666427, Control_c, 0, 64, 127
1, 666657, Note_on_c, 0, 51, 37
1, 666693, Note_off_c, 0, 41, 41
1, 666707, Note_off_c, 0, 53, 40
1, 666721, Note_off_c, 0, 48, 40
1, 666746, Note_off_c, 0, 51, 59
1, 666774, Note_off_c, 0, 57, 41
1, 667393, Note_on_c, 0, 58, 37
1, 667407, Note_on_c, 0, 50, 30
1, 667415, Note_on_c, 0, 46, 15
1, 667420, Control_c, 0, 64, 118
1, 667435, Control_c, 0, 64, 106
1, 667450, Control_c, 0, 64, 98
1, 667464, Control_c, 0, 64, 91
1, 667479, Control_c, 0, 64, 83
1, 667494, Control_c, 0, 64, 74
1, 667509, Control_c, 0, 64, 65
1, 667524, Control_c, 0, 64, 56
1, 667538, Control_c, 0, 64, 50
1, 667553, Control_c, 0, 64, 44
1, 667568, Control_c, 0, 64, 37
1, 667583, Control_c, 0, 64, 29
1, 667598, Control_c, 0, 64, 0
1, 667686, Control_c, 0, 64, 31
1, 667701, Control_c, 0, 64, 36
1, 667716, Control_c, 0, 64, 42
1, 667730, Control_c, 0, 64, 51
1, 667745, Control_c, 0, 64, 56
1, 667760, Control_c, 0, 64, 58
1, 667776, Control_c, 0, 64, 60
1, 667791, Control_c, 0, 64, 62
1, 667806, Control_c, 0, 64, 65
1, 667821, Control_c, 0, 64, 67
1, 667835, Control_c, 0, 64, 70
1, 667850, Control_c, 0, 64, 72
1, 667865, Control_c, 0, 64, 74
1, 667880, Control_c, 0, 64, 76
1, 667894, Control_c, 0, 64, 79
1, 667909, Control_c, 0, 64, 81
1, 667924, Control_c, 0, 64, 85
1, 667939, Control_c, 0, 64, 88
1, 667953, Control_c, 0, 64, 94
1, 667964, Note_on_c, 0, 53, 20
1, 667968, Control_c, 0, 64, 99
1, 667983, Control_c, 0, 64, 106
1, 668006, Control_c, 0, 64, 117
1, 668021, Control_c, 0, 64, 127
1, 668099, Note_off_c, 0, 46, 39
1, 668103, Note_off_c, 0, 58, 41
1, 668115, Note_off_c, 0, 50, 43
1, 668118, Note_off_c, 0, 53, 41
1, 668359, Note_on_c, 0, 53, 35
1, 668485, Note_off_c, 0, 53, 51
1, 668705, Note_on_c, 0, 53, 36
1, 668732, Control_c, 0, 64, 89
1, 668755, Control_c, 0, 64, 67
1, 668770, Control_c, 0, 64, 55
1, 668784, Control_c, 0, 64, 53
1, 668799, Control_c, 0, 64, 54
1, 668814, Control_c, 0, 64, 57
1, 668829, Control_c, 0, 64, 61
1, 668844, Control_c, 0, 64, 67
1, 668858, Control_c, 0, 64, 80
1, 668873, Control_c, 0, 64, 101
1, 668888, Note_off_c, 0, 53, 52
1, 668888, Control_c, 0, 64, 127
1, 669056, Note_on_c, 0, 53, 30
1, 669158, Note_off_c, 0, 53, 49
1, 669363, Note_on_c, 0, 53, 40
1, 669430, Note_off_c, 0, 53, 47
1, 669769, Note_on_c, 0, 70, 43
1, 669800, Note_on_c, 0, 41, 14
1, 669803, Note_on_c, 0, 50, 30
1, 669819, Note_on_c, 0, 65, 25
1, 669840, Poly_aftertouch_c, 0, 58, 127
1, 669997, Poly_aftertouch_c, 0, 58, 0
1, 670018, Note_off_c, 0, 70, 63
1, 670030, Note_off_c, 0, 65, 39
1, 670123, Note_on_c, 0, 53, 8
1, 670146, Note_off_c, 0, 41, 40
1, 670198, Note_off_c, 0, 50, 44
1, 670255, Note_off_c, 0, 53, 27
1, 670386, Note_on_c, 0, 70, 55
1, 670401, Note_on_c, 0, 50, 32
1, 670429, Note_on_c, 0, 41, 19
1, 670433, Note_on_c, 0, 65, 19
1, 670481, Poly_aftertouch_c, 0, 58, 127
1, 670542, Poly_aftertouch_c, 0, 58, 0
1, 670672, Note_on_c, 0, 53, 31
1, 670732, Note_off_c, 0, 41, 41
1, 670767, Note_off_c, 0, 50, 40
1, 670845, Note_off_c, 0, 53, 32
1, 670910, Note_on_c, 0, 69, 65
1, 670939, Note_on_c, 0, 48, 46
1, 670941, Note_on_c, 0, 57, 32
1, 670959, Note_on_c, 0, 41, 33
1, 671031, Note_off_c, 0, 57, 34
1, 671032, Note_off_c, 0, 70, 38
1, 671049, Note_off_c, 0, 65, 40
1, 671194, Note_on_c, 0, 53, 32
1, 671222, Note_off_c, 0, 48, 55
1, 671226, Note_off_c, 0, 41, 41
1, 671338, Note_off_c, 0, 53, 21
1, 671427, Note_on_c, 0, 70, 66
1, 671455, Note_on_c, 0, 50, 39
1, 671456, Note_on_c, 0, 41, 33
1, 671457, Note_on_c, 0, 65, 43
1, 671461, Note_on_c, 0, 58, 42
1, 671470, Note_off_c, 0, 69, 60
1, 671476, Control_c, 0, 64, 90
1, 671491, Control_c, 0, 64, 68
1, 671505, Control_c, 0, 64, 48
1, 671520, Control_c, 0, 64, 34
1, 671521, Note_off_c, 0, 65, 0
1, 671521, Note_on_c, 0, 65, 16
1, 671535, Control_c, 0, 64, 0
1, 671579, Control_c, 0, 64, 30
1, 671594, Control_c, 0, 64, 48
1, 671609, Control_c, 0, 64, 65
1, 671624, Control_c, 0, 64, 76
1, 671639, Control_c, 0, 64, 87
1, 671640, Note_off_c, 0, 58, 52
1, 671653, Control_c, 0, 64, 95
1, 671668, Control_c, 0, 64, 108
1, 671683, Control_c, 0, 64, 127
1, 671692, Note_off_c, 0, 65, 41
1, 671698, Note_on_c, 0, 53, 46
1, 671707, Note_off_c, 0, 50, 60
1, 671760, Note_off_c, 0, 41, 36
1, 671938, Note_off_c, 0, 53, 35
1, 671992, Note_on_c, 0, 72, 64
1, 672006, Note_on_c, 0, 41, 40
1, 672015, Note_on_c, 0, 51, 38
1, 672015, Note_on_c, 0, 65, 39
1, 672030, Note_on_c, 0, 60, 28
1, 672047, Control_c, 0, 64, 114
1, 672057, Note_off_c, 0, 70, 51
1, 672062, Control_c, 0, 64, 83
1, 672076, Control_c, 0, 64, 65
1, 672091, Control_c, 0, 64, 47
1, 672106, Control_c, 0, 64, 0
1, 672194, Control_c, 0, 64, 29
1, 672209, Control_c, 0, 64, 43
1, 672224, Control_c, 0, 64, 56
1, 672239, Control_c, 0, 64, 63
1, 672253, Control_c, 0, 64, 67
1, 672268, Control_c, 0, 64, 74
1, 672282, Note_off_c, 0, 60, 41
1, 672283, Control_c, 0, 64, 84
1, 672298, Control_c, 0, 64, 97
1, 672313, Control_c, 0, 64, 127
1, 672316, Note_off_c, 0, 65, 42
1, 672344, Note_on_c, 0, 53, 33
1, 672388, Note_off_c, 0, 51, 41
1, 672408, Note_off_c, 0, 41, 34
1, 672478, Note_off_c, 0, 53, 35
1, 672760, Note_on_c, 0, 70, 44
1, 672782, Note_on_c, 0, 50, 36
1, 672797, Note_on_c, 0, 46, 30
1, 672798, Note_on_c, 0, 58, 26
1, 672802, Note_on_c, 0, 65, 27
1, 672806, Note_off_c, 0, 72, 58
1, 672824, Control_c, 0, 64, 107
1, 672839, Control_c, 0, 64, 87
1, 672854, Control_c, 0, 64, 75
1, 672869, Control_c, 0, 64, 66
1, 672884, Control_c, 0, 64, 58
1, 672899, Control_c, 0, 64, 51
1, 672914, Control_c, 0, 64, 45
1, 672928, Control_c, 0, 64, 37
1, 672943, Control_c, 0, 64, 0
1, 673076, Control_c, 0, 64, 33
1, 673091, Control_c, 0, 64, 37
1, 673136, Control_c, 0, 64, 38
1, 673150, Control_c, 0, 64, 41
1, 673165, Control_c, 0, 64, 48
1, 673180, Control_c, 0, 64, 55
1, 673195, Control_c, 0, 64, 59
1, 673208, Note_on_c, 0, 53, 25
1, 673210, Control_c, 0, 64, 62
1, 673224, Control_c, 0, 64, 66
1, 673247, Control_c, 0, 64, 71
1, 673259, Note_off_c, 0, 53, 48
1, 673262, Control_c, 0, 64, 77
1, 673276, Control_c, 0, 64, 82
1, 673291, Control_c, 0, 64, 87
1, 673306, Control_c, 0, 64, 90
1, 673321, Control_c, 0, 64, 92
1, 673336, Control_c, 0, 64, 96
1, 673343, Note_off_c, 0, 58, 37
1, 673350, Control_c, 0, 64, 103
1, 673357, Note_off_c, 0, 46, 38
1, 673366, Control_c, 0, 64, 112
1, 673381, Control_c, 0, 64, 127
1, 673435, Note_off_c, 0, 50, 38
1, 673519, Note_on_c, 0, 53, 38
1, 673560, Note_off_c, 0, 65, 37
1, 673577, Note_off_c, 0, 53, 55
1, 673642, Note_off_c, 0, 70, 36
1, 673801, Note_on_c, 0, 53, 38
1, 673841, Note_off_c, 0, 53, 54
1, 674085, Control_c, 0, 64, 118
1, 674090, Note_on_c, 0, 53, 41
1, 674099, Control_c, 0, 64, 81
1, 674114, Control_c, 0, 64, 64
1, 674129, Control_c, 0, 64, 55
1, 674144, Control_c, 0, 64, 54
1, 674159, Control_c, 0, 64, 60
1, 674174, Control_c, 0, 64, 70
1, 674189, Control_c, 0, 64, 95
1, 674204, Control_c, 0, 64, 127
1, 674246, Note_off_c, 0, 53, 59
1, 674386, Note_on_c, 0, 53, 46
1, 674452, Note_off_c, 0, 53, 0
1, 674489, Poly_aftertouch_c, 0, 53, 127
1, 674613, Poly_aftertouch_c, 0, 53, 0
1, 674780, Note_on_c, 0, 74, 67
1, 674805, Note_on_c, 0, 65, 40
1, 674810, Note_on_c, 0, 46, 39
1, 674815, Note_on_c, 0, 41, 33
1, 674820, Note_on_c, 0, 62, 8
1, 675081, Note_off_c, 0, 74, 58
1, 675092, Note_off_c, 0, 65, 60
1, 675115, Note_on_c, 0, 53, 45
1, 675131, Note_off_c, 0, 62, 43
1, 675175, Note_off_c, 0, 41, 40
1, 675181, Note_off_c, 0, 46, 37
1, 675318, Note_off_c, 0, 53, 34
1, 675386, Note_on_c, 0, 74, 73
1, 675412, Note_on_c, 0, 46, 43
1, 675412, Note_on_c, 0, 65, 42
1, 675433, Note_on_c, 0, 41, 29
1, 675450, Poly_aftertouch_c, 0, 62, 127
1, 675564, Note_off_c, 0, 65, 55
1, 675581, Poly_aftertouch_c, 0, 62, 0
1, 675664, Note_on_c, 0, 53, 46
1, 675669, Note_off_c, 0, 41, 37
1, 675712, Note_off_c, 0, 46, 51
1, 675934, Note_on_c, 0, 72, 71
1, 675948, Note_on_c, 0, 65, 46
1, 675966, Note_on_c, 0, 41, 43
1, 675975, Note_on_c, 0, 60, 38
1, 675977, Note_off_c, 0, 74, 62
1, 675985, Note_on_c, 0, 45, 37
1, 675992, Note_off_c, 0, 53, 21
1, 676043, Control_c, 0, 64, 84
1, 676058, Control_c, 0, 64, 64
1, 676073, Control_c, 0, 64, 49
1, 676087, Control_c, 0, 64, 40
1, 676102, Control_c, 0, 64, 37
1, 676117, Control_c, 0, 64, 37
1, 676132, Control_c, 0, 64, 43
1, 676147, Control_c, 0, 64, 56
1, 676161, Control_c, 0, 64, 68
1, 676176, Control_c, 0, 64, 81
1, 676191, Control_c, 0, 64, 104
1, 676206, Note_on_c, 0, 53, 52
1, 676206, Control_c, 0, 64, 127
1, 676228, Note_off_c, 0, 65, 51
1, 676276, Note_off_c, 0, 60, 39
1, 676295, Note_off_c, 0, 45, 55
1, 676300, Note_off_c, 0, 41, 39
1, 676443, Note_on_c, 0, 74, 85
1, 676455, Note_on_c, 0, 41, 53
1, 676459, Note_on_c, 0, 65, 58
1, 676485, Note_on_c, 0, 46, 40
1, 676485, Note_on_c, 0, 62, 38
1, 676524, Control_c, 0, 64, 102
1, 676539, Control_c, 0, 64, 74
1, 676553, Note_off_c, 0, 72, 57
1, 676554, Control_c, 0, 64, 57
1, 676555, Note_off_c, 0, 53, 38
1, 676569, Control_c, 0, 64, 40
1, 676583, Control_c, 0, 64, 0
1, 676643, Control_c, 0, 64, 43
1, 676658, Control_c, 0, 64, 61
1, 676665, Note_off_c, 0, 65, 62
1, 676672, Control_c, 0, 64, 72
1, 676687, Control_c, 0, 64, 83
1, 676702, Control_c, 0, 64, 99
1, 676711, Note_off_c, 0, 62, 39
1, 676717, Control_c, 0, 64, 127
1, 676745, Note_on_c, 0, 53, 50
1, 676827, Note_off_c, 0, 41, 50
1, 676867, Note_off_c, 0, 46, 35
1, 677069, Note_on_c, 0, 75, 77
1, 677077, Note_on_c, 0, 69, 59
1, 677081, Note_off_c, 0, 53, 22
1, 677084, Note_on_c, 0, 63, 60
1, 677086, Note_on_c, 0, 48, 54
1, 677093, Note_on_c, 0, 41, 43
1, 677103, Note_off_c, 0, 74, 62
1, 677139, Control_c, 0, 64, 87
1, 677154, Control_c, 0, 64, 66
1, 677169, Control_c, 0, 64, 47
1, 677184, Control_c, 0, 64, 0
1, 677302, Control_c, 0, 64, 46
1, 677316, Control_c, 0, 64, 63
1, 677331, Control_c, 0, 64, 70
1, 677346, Control_c, 0, 64, 75
1, 677362, Control_c, 0, 64, 81
1, 677377, Control_c, 0, 64, 90
1, 677392, Control_c, 0, 64, 107
1, 677398, Note_off_c, 0, 63, 54
1, 677406, Control_c, 0, 64, 127
1, 677432, Note_off_c, 0, 75, 63
1, 677480, Note_on_c, 0, 53, 34
1, 677483, Note_off_c, 0, 69, 54
1, 677515, Note_off_c, 0, 41, 56
1, 677522, Note_off_c, 0, 48, 53
1, 677620, Note_off_c, 0, 53, 35
1, 677920, Note_on_c, 0, 74, 59
1, 677923, Note_on_c, 0, 70, 50
1, 677927, Note_on_c, 0, 62, 45
1, 677938, Note_on_c, 0, 46, 42
1, 678006, Control_c, 0, 64, 101
1, 678021, Control_c, 0, 64, 86
1, 678036, Control_c, 0, 64, 71
1, 678051, Control_c, 0, 64, 61
1, 678066, Control_c, 0, 64, 51
1, 678081, Control_c, 0, 64, 44
1, 678096, Control_c, 0, 64, 37
1, 678111, Control_c, 0, 64, 29
1, 678126, Control_c, 0, 64, 0
1, 678275, Control_c, 0, 64, 35
1, 678289, Control_c, 0, 64, 45
1, 678304, Control_c, 0, 64, 53
1, 678319, Control_c, 0, 64, 57
1, 678334, Control_c, 0, 64, 62
1, 678336, Note_on_c, 0, 53, 35
1, 678349, Control_c, 0, 64, 67
1, 678363, Control_c, 0, 64, 74
1, 678378, Control_c, 0, 64, 81
1, 678393, Control_c, 0, 64, 88
1, 678408, Note_off_c, 0, 53, 50
1, 678408, Control_c, 0, 64, 93
1, 678409, Note_off_c, 0, 74, 38
1, 678423, Control_c, 0, 64, 98
1, 678437, Control_c, 0, 64, 106
1, 678452, Control_c, 0, 64, 127
1, 678474, Note_off_c, 0, 46, 31
1, 678478, Note_off_c, 0, 62, 37
1, 678601, Note_off_c, 0, 70, 52
1, 678637, Note_on_c, 0, 53, 31
1, 678705, Note_off_c, 0, 53, 58
1, 678921, Note_on_c, 0, 53, 34
1, 678998, Note_off_c, 0, 53, 48
1, 679200, Note_on_c, 0, 53, 39
1, 679238, Control_c, 0, 64, 82
1, 679253, Control_c, 0, 64, 64
1, 679268, Control_c, 0, 64, 49
1, 679283, Control_c, 0, 64, 49
1, 679298, Control_c, 0, 64, 55
1, 679312, Control_c, 0, 64, 63
1, 679327, Control_c, 0, 64, 74
1, 679342, Control_c, 0, 64, 89
1, 679357, Control_c, 0, 64, 104
1, 679372, Control_c, 0, 64, 126
1, 679382, Note_off_c, 0, 53, 55
1, 679532, Note_on_c, 0, 53, 39
1, 679697, Note_off_c, 0, 53, 31
1, 679886, Note_on_c, 0, 70, 52
1, 679919, Note_on_c, 0, 41, 36
1, 679925, Note_on_c, 0, 65, 38
1, 679934, Note_on_c, 0, 50, 32
1, 679964, Poly_aftertouch_c, 0, 58, 127
1, 680050, Poly_aftertouch_c, 0, 58, 0
1, 680086, Poly_aftertouch_c, 0, 58, 127
1, 680144, Note_off_c, 0, 70, 60
1, 680147, Poly_aftertouch_c, 0, 58, 0
1, 680164, Note_off_c, 0, 65, 42
1, 680216, Note_on_c, 0, 53, 23
1, 680266, Note_off_c, 0, 41, 40
1, 680287, Note_off_c, 0, 50, 44
1, 680482, Note_on_c, 0, 70, 50
1, 680485, Note_off_c, 0, 53, 34
1, 680489, Note_on_c, 0, 41, 39
1, 680492, Note_on_c, 0, 50, 34
1, 680517, Note_on_c, 0, 65, 31
1, 680539, Poly_aftertouch_c, 0, 58, 127
1, 680661, Poly_aftertouch_c, 0, 58, 0
1, 680770, Note_on_c, 0, 53, 38
1, 680831, Note_off_c, 0, 41, 35
1, 680837, Note_off_c, 0, 50, 38
1, 680959, Note_off_c, 0, 53, 29
1, 680970, Note_off_c, 0, 65, 0
1, 681001, Note_on_c, 0, 69, 63
1, 681007, Poly_aftertouch_c, 0, 65, 127
1, 681019, Note_on_c, 0, 48, 40
1, 681025, Note_on_c, 0, 41, 36
1, 681031, Control_c, 0, 64, 86
1, 681035, Note_on_c, 0, 57, 31
1, 681045, Control_c, 0, 64, 70
1, 681061, Control_c, 0, 64, 61
1, 681075, Control_c, 0, 64, 57
1, 681105, Control_c, 0, 64, 58
1, 681113, Note_off_c, 0, 70, 34
1, 681120, Control_c, 0, 64, 62
1, 681135, Control_c, 0, 64, 68
1, 681150, Control_c, 0, 64, 78
1, 681165, Control_c, 0, 64, 97
1, 681180, Control_c, 0, 64, 127
1, 681215, Poly_aftertouch_c, 0, 65, 0
1, 681216, Note_off_c, 0, 57, 51
1, 681291, Note_on_c, 0, 53, 4
1, 681312, Note_off_c, 0, 41, 40
1, 681352, Note_off_c, 0, 48, 41
1, 681523, Note_off_c, 0, 53, 37
1, 681533, Note_on_c, 0, 70, 55
1, 681550, Note_on_c, 0, 41, 40
1, 681554, Note_on_c, 0, 65, 42
1, 681561, Note_on_c, 0, 50, 31
1, 681568, Note_on_c, 0, 58, 31
1, 681582, Note_off_c, 0, 69, 60
1, 681588, Control_c, 0, 64, 87
1, 681603, Control_c, 0, 64, 66
1, 681618, Control_c, 0, 64, 51
1, 681632, Control_c, 0, 64, 38
1, 681647, Control_c, 0, 64, 28
1, 681662, Control_c, 0, 64, 0
1, 681721, Control_c, 0, 64, 39
1, 681736, Control_c, 0, 64, 57
1, 681751, Control_c, 0, 64, 68
1, 681766, Control_c, 0, 64, 75
1, 681780, Control_c, 0, 64, 79
1, 681795, Control_c, 0, 64, 84
1, 681810, Control_c, 0, 64, 100
1, 681825, Control_c, 0, 64, 127
1, 681829, Note_off_c, 0, 58, 42
1, 681834, Note_on_c, 0, 53, 36
1, 681876, Note_off_c, 0, 41, 57
1, 681889, Note_off_c, 0, 50, 40
1, 681893, Note_off_c, 0, 65, 35
1, 681919, Note_off_c, 0, 70, 55
1, 682173, Note_on_c, 0, 72, 50
1, 682179, Note_on_c, 0, 51, 38
1, 682181, Note_on_c, 0, 69, 50
1, 682196, Note_on_c, 0, 41, 26
1, 682196, Note_off_c, 0, 53, 30
1, 682202, Note_on_c, 0, 65, 30
1, 682211, Note_on_c, 0, 60, 21
1, 682211, Control_c, 0, 64, 115
1, 682233, Control_c, 0, 64, 84
1, 682248, Control_c, 0, 64, 66
1, 682260, Note_off_c, 0, 65, 0
1, 682260, Note_on_c, 0, 65, 6
1, 682262, Control_c, 0, 64, 51
1, 682277, Control_c, 0, 64, 36
1, 682292, Control_c, 0, 64, 29
1, 682336, Control_c, 0, 64, 37
1, 682351, Control_c, 0, 64, 50
1, 682366, Control_c, 0, 64, 62
1, 682381, Control_c, 0, 64, 70
1, 682396, Control_c, 0, 64, 79
1, 682411, Control_c, 0, 64, 88
1, 682426, Control_c, 0, 64, 103
1, 682431, Note_off_c, 0, 60, 45
1, 682441, Control_c, 0, 64, 127
1, 682523, Note_off_c, 0, 72, 39
1, 682569, Note_off_c, 0, 69, 61
1, 682570, Note_off_c, 0, 65, 47
1, 682661, Note_on_c, 0, 53, 29
1, 682747, Note_off_c, 0, 41, 42
1, 682751, Note_off_c, 0, 51, 59
1, 682757, Note_off_c, 0, 53, 52
1, 683350, Note_on_c, 0, 72, 64
1, 683375, Note_on_c, 0, 69, 45
1, 683380, Note_on_c, 0, 65, 38
1, 683393, Note_on_c, 0, 51, 32
1, 683394, Note_on_c, 0, 60, 24
1, 683396, Note_on_c, 0, 41, 33
1, 683407, Note_on_c, 0, 53, 33
1, 683558, Control_c, 0, 64, 91
1, 683573, Control_c, 0, 64, 74
1, 683588, Control_c, 0, 64, 63
1, 683603, Control_c, 0, 64, 53
1, 683618, Control_c, 0, 64, 46
1, 683633, Control_c, 0, 64, 40
1, 683648, Control_c, 0, 64, 32
1, 683663, Control_c, 0, 64, 0
1, 683789, Control_c, 0, 64, 29
1, 683804, Control_c, 0, 64, 35
1, 683819, Control_c, 0, 64, 38
1, 683833, Control_c, 0, 64, 39
1, 683848, Control_c, 0, 64, 40
1, 683863, Control_c, 0, 64, 42
1, 683878, Control_c, 0, 64, 46
1, 683893, Control_c, 0, 64, 53
1, 683907, Control_c, 0, 64, 55
1, 683952, Control_c, 0, 64, 56
1, 683967, Control_c, 0, 64, 59
1, 683982, Control_c, 0, 64, 62
1, 683997, Control_c, 0, 64, 64
1, 684011, Control_c, 0, 64, 65
1, 684026, Control_c, 0, 64, 66
1, 684041, Control_c, 0, 64, 68
1, 684056, Control_c, 0, 64, 72
1, 684071, Control_c, 0, 64, 77
1, 684086, Control_c, 0, 64, 83
1, 684100, Control_c, 0, 64, 90
1, 684115, Control_c, 0, 64, 99
1, 684130, Control_c, 0, 64, 127
1, 684277, Note_off_c, 0, 53, 38
1, 684305, Note_off_c, 0, 41, 35
1, 684362, Note_off_c, 0, 51, 42
1, 685175, Control_c, 0, 64, 116
1, 685190, Control_c, 0, 64, 112
1, 685205, Control_c, 0, 64, 108
1, 685228, Control_c, 0, 64, 105
1, 685243, Control_c, 0, 64, 102
1, 685257, Control_c, 0, 64, 99
1, 685272, Control_c, 0, 64, 97
1, 685287, Control_c, 0, 64, 95
1, 685302, Control_c, 0, 64, 94
1, 685317, Control_c, 0, 64, 93
1, 685331, Control_c, 0, 64, 91
1, 685346, Control_c, 0, 64, 90
1, 685362, Control_c, 0, 64, 88
1, 685377, Control_c, 0, 64, 87
1, 685392, Control_c, 0, 64, 86
1, 685406, Control_c, 0, 64, 85
1, 685421, Control_c, 0, 64, 84
1, 685436, Control_c, 0, 64, 83
1, 685451, Control_c, 0, 64, 81
1, 685466, Control_c, 0, 64, 80
1, 685480, Control_c, 0, 64, 80
1, 685495, Control_c, 0, 64, 79
1, 685510, Control_c, 0, 64, 78
1, 685525, Control_c, 0, 64, 77
1, 685540, Control_c, 0, 64, 75
1, 685554, Control_c, 0, 64, 74
1, 685569, Control_c, 0, 64, 72
1, 685584, Control_c, 0, 64, 69
1, 685598, Control_c, 0, 64, 66
1, 685613, Control_c, 0, 64, 64
1, 685628, Control_c, 0, 64, 63
1, 685643, Control_c, 0, 64, 63
1, 685658, Control_c, 0, 64, 62
1, 685672, Control_c, 0, 64, 60
1, 685687, Control_c, 0, 64, 57
1, 685702, Control_c, 0, 64, 55
1, 685717, Control_c, 0, 64, 54
1, 685732, Control_c, 0, 64, 53
1, 685746, Control_c, 0, 64, 52
1, 685761, Control_c, 0, 64, 50
1, 685776, Control_c, 0, 64, 47
1, 685791, Control_c, 0, 64, 45
1, 685806, Control_c, 0, 64, 44
1, 685836, Control_c, 0, 64, 44
1, 685851, Control_c, 0, 64, 43
1, 685865, Control_c, 0, 64, 42
1, 686035, Control_c, 0, 64, 43
1, 686050, Control_c, 0, 64, 45
1, 686063, Note_on_c, 0, 29, 5
1, 686065, Control_c, 0, 64, 52
1, 686080, Control_c, 0, 64, 58
1, 686095, Control_c, 0, 64, 63
1, 686110, Control_c, 0, 64, 67
1, 686124, Control_c, 0, 64, 70
1, 686139, Control_c, 0, 64, 74
1, 686155, Control_c, 0, 64, 77
1, 686170, Control_c, 0, 64, 80
1, 686185, Control_c, 0, 64, 83
1, 686199, Control_c, 0, 64, 89
1, 686214, Control_c, 0, 64, 94
1, 686229, Control_c, 0, 64, 97
1, 686244, Control_c, 0, 64, 100
1, 686274, Control_c, 0, 64, 102
1, 686290, Note_off_c, 0, 29, 40
1, 686294, Note_on_c, 0, 30, 21
1, 686348, Control_c, 0, 64, 104
1, 686424, Note_off_c, 0, 30, 41
1, 686450, Note_on_c, 0, 32, 26
1, 686525, Note_off_c, 0, 32, 40
1, 686562, Note_on_c, 0, 30, 10
1, 686610, Note_off_c, 0, 30, 52
1, 686650, Note_on_c, 0, 32, 13
1, 686689, Note_on_c, 0, 30, 38
1, 686738, Note_off_c, 0, 30, 50
1, 686754, Note_off_c, 0, 32, 0
1, 686770, Note_on_c, 0, 32, 36
1, 686809, Note_off_c, 0, 32, 50
1, 686828, Note_on_c, 0, 30, 23
1, 686858, Control_c, 0, 64, 102
1, 686874, Note_off_c, 0, 30, 51
1, 686882, Note_on_c, 0, 32, 58
1, 686888, Control_c, 0, 64, 100
1, 686917, Note_off_c, 0, 32, 52
1, 686936, Note_on_c, 0, 30, 36
1, 686976, Note_off_c, 0, 30, 53
1, 686977, Control_c, 0, 64, 98
1, 687013, Note_on_c, 0, 32, 46
1, 687048, Note_off_c, 0, 32, 50
1, 687064, Note_on_c, 0, 30, 31
1, 687096, Control_c, 0, 64, 96
1, 687105, Note_off_c, 0, 30, 51
1, 687111, Control_c, 0, 64, 95
1, 687125, Control_c, 0, 64, 93
1, 687138, Note_on_c, 0, 32, 40
1, 687140, Control_c, 0, 64, 91
1, 687155, Control_c, 0, 64, 89
1, 687169, Control_c, 0, 64, 87
1, 687180, Note_off_c, 0, 32, 50
1, 687182, Note_on_c, 0, 30, 34
1, 687184, Control_c, 0, 64, 85
1, 687199, Control_c, 0, 64, 83
1, 687214, Control_c, 0, 64, 81
1, 687229, Control_c, 0, 64, 79
1, 687232, Note_off_c, 0, 30, 46
1, 687243, Control_c, 0, 64, 77
1, 687253, Note_on_c, 0, 32, 36
1, 687258, Control_c, 0, 64, 74
1, 687273, Control_c, 0, 64, 71
1, 687288, Control_c, 0, 64, 68
1, 687302, Note_off_c, 0, 32, 42
1, 687303, Control_c, 0, 64, 66
1, 687317, Control_c, 0, 64, 64
1, 687326, Poly_aftertouch_c, 0, 30, 127
1, 687326, Note_on_c, 0, 30, 3
1, 687332, Control_c, 0, 64, 62
1, 687347, Control_c, 0, 64, 61
1, 687361, Note_off_c, 0, 30, 53
1, 687362, Control_c, 0, 64, 59
1, 687363, Note_on_c, 0, 32, 30
1, 687377, Control_c, 0, 64, 57
1, 687392, Control_c, 0, 64, 55
1, 687407, Control_c, 0, 64, 55
1, 687414, Note_off_c, 0, 32, 43
1, 687422, Control_c, 0, 64, 54
1, 687437, Control_c, 0, 64, 53
1, 687451, Control_c, 0, 64, 51
1, 687455, Note_on_c, 0, 30, 41
1, 687473, Control_c, 0, 64, 50
1, 687503, Control_c, 0, 64, 49
1, 687504, Note_off_c, 0, 30, 44
1, 687518, Control_c, 0, 64, 48
1, 687527, Note_on_c, 0, 32, 56
1, 687532, Control_c, 0, 64, 46
1, 687547, Control_c, 0, 64, 44
1, 687559, Note_off_c, 0, 32, 54
1, 687562, Control_c, 0, 64, 44
1, 687577, Control_c, 0, 64, 43
1, 687588, Note_on_c, 0, 30, 45
1, 687592, Control_c, 0, 64, 43
1, 687606, Control_c, 0, 64, 41
1, 687621, Control_c, 0, 64, 39
1, 687633, Note_off_c, 0, 30, 49
1, 687656, Note_on_c, 0, 32, 45
1, 687681, Control_c, 0, 64, 38
1, 687694, Note_off_c, 0, 32, 47
1, 687696, Control_c, 0, 64, 37
1, 687703, Note_on_c, 0, 30, 45
1, 687711, Control_c, 0, 64, 37
1, 687751, Note_off_c, 0, 30, 52
1, 687776, Note_on_c, 0, 32, 54
1, 687811, Note_off_c, 0, 32, 53
1, 687845, Note_on_c, 0, 30, 43
1, 687888, Note_off_c, 0, 30, 51
1, 687907, Note_on_c, 0, 32, 49
1, 687943, Note_off_c, 0, 32, 52
1, 687983, Note_on_c, 0, 30, 47
1, 688068, Note_off_c, 0, 30, 51
1, 688080, Note_on_c, 0, 32, 37
1, 688131, Note_off_c, 0, 32, 46
1, 688141, Control_c, 0, 64, 37
1, 688190, Note_on_c, 0, 30, 30
1, 688265, Note_on_c, 0, 32, 49
1, 688277, Note_off_c, 0, 30, 40
1, 688310, Note_off_c, 0, 32, 58
1, 688412, Note_on_c, 0, 29, 31
1, 688569, Note_off_c, 0, 29, 51
1, 688598, Note_on_c, 0, 30, 28
1, 688855, Note_off_c, 0, 30, 37
1, 688862, Note_on_c, 0, 29, 19
1, 688935, Control_c, 0, 64, 38
1, 688972, Control_c, 0, 64, 40
1, 688987, Control_c, 0, 64, 44
1, 689001, Control_c, 0, 64, 50
1, 689016, Control_c, 0, 64, 59
1, 689031, Control_c, 0, 64, 65
1, 689046, Control_c, 0, 64, 70
1, 689061, Control_c, 0, 64, 74
1, 689076, Control_c, 0, 64, 77
1, 689091, Control_c, 0, 64, 84
1, 689105, Control_c, 0, 64, 100
1, 689120, Control_c, 0, 64, 127
1, 689183, Note_off_c, 0, 29, 40
1, 689240, Note_off_c, 0, 60, 42
1, 689257, Note_off_c, 0, 69, 55
1, 689273, Note_off_c, 0, 65, 49
1, 689283, Note_off_c, 0, 72, 60
1, 689506, Control_c, 0, 64, 102
1, 689520, Control_c, 0, 64, 82
1, 689535, Control_c, 0, 64, 69
1, 689550, Control_c, 0, 64, 61
1, 689565, Control_c, 0, 64, 53
1, 689580, Control_c, 0, 64, 49
1, 689595, Control_c, 0, 64, 47
1, 689610, Control_c, 0, 64, 43
1, 689624, Control_c, 0, 64, 39
1, 689639, Control_c, 0, 64, 36
1, 689654, Control_c, 0, 64, 34
1, 689735, Control_c, 0, 64, 34
1, 689750, Control_c, 0, 64, 37
1, 689765, Control_c, 0, 64, 44
1, 689779, Control_c, 0, 64, 49
1, 689794, Control_c, 0, 64, 50
1, 689809, Control_c, 0, 64, 51
1, 689824, Control_c, 0, 64, 54
1, 689839, Control_c, 0, 64, 58
1, 689854, Control_c, 0, 64, 62
1, 689869, Control_c, 0, 64, 64
1, 689884, Control_c, 0, 64, 65
1, 689899, Control_c, 0, 64, 66
1, 689914, Control_c, 0, 64, 67
1, 689928, Control_c, 0, 64, 69
1, 689943, Control_c, 0, 64, 73
1, 689958, Control_c, 0, 64, 75
1, 689972, Control_c, 0, 64, 78
1, 689987, Control_c, 0, 64, 81
1, 690002, Control_c, 0, 64, 86
1, 690015, Note_on_c, 0, 77, 49
1, 690017, Control_c, 0, 64, 96
1, 690030, Note_on_c, 0, 63, 37
1, 690030, Note_on_c, 0, 69, 33
1, 690032, Control_c, 0, 64, 127
1, 690039, Note_on_c, 0, 41, 29
1, 690050, Note_on_c, 0, 48, 34
1, 690054, Note_on_c, 0, 53, 23
1, 690147, Note_off_c, 0, 53, 56
1, 690149, Note_off_c, 0, 48, 59
1, 690154, Note_off_c, 0, 41, 55
1, 690179, Note_off_c, 0, 63, 58
1, 690186, Note_off_c, 0, 77, 63
1, 690203, Note_off_c, 0, 69, 61
1, 690529, Control_c, 0, 64, 120
1, 690543, Control_c, 0, 64, 96
1, 690558, Control_c, 0, 64, 84
1, 690573, Control_c, 0, 64, 75
1, 690587, Control_c, 0, 64, 66
1, 690602, Control_c, 0, 64, 60
1, 690617, Control_c, 0, 64, 55
1, 690632, Control_c, 0, 64, 53
1, 690647, Control_c, 0, 64, 52
1, 690662, Control_c, 0, 64, 50
1, 690677, Control_c, 0, 64, 48
1, 690692, Control_c, 0, 64, 46
1, 690707, Control_c, 0, 64, 45
1, 690795, Control_c, 0, 64, 46
1, 690810, Control_c, 0, 64, 47
1, 690855, Control_c, 0, 64, 47
1, 690869, Control_c, 0, 64, 49
1, 690884, Control_c, 0, 64, 52
1, 690899, Control_c, 0, 64, 53
1, 690945, Control_c, 0, 64, 53
1, 690960, Control_c, 0, 64, 55
1, 690974, Control_c, 0, 64, 57
1, 690989, Control_c, 0, 64, 58
1, 691018, Control_c, 0, 64, 59
1, 691033, Control_c, 0, 64, 60
1, 691048, Control_c, 0, 64, 62
1, 691063, Control_c, 0, 64, 65
1, 691078, Control_c, 0, 64, 69
1, 691092, Control_c, 0, 64, 74
1, 691103, Note_on_c, 0, 70, 46
1, 691107, Control_c, 0, 64, 79
1, 691122, Control_c, 0, 64, 83
1, 691123, Note_on_c, 0, 62, 34
1, 691124, Note_on_c, 0, 46, 39
1, 691124, Note_on_c, 0, 53, 34
1, 691136, Control_c, 0, 64, 92
1, 691151, Control_c, 0, 64, 107
1, 691166, Control_c, 0, 64, 127
1, 691204, Note_off_c, 0, 46, 54
1, 691237, Note_off_c, 0, 53, 53
1, 691288, Note_off_c, 0, 70, 38
1, 691311, Note_off_c, 0, 62, 36
1, 691738, Control_c, 0, 64, 109
1, 691753, Control_c, 0, 64, 99
1, 691767, Control_c, 0, 64, 89
1, 691782, Control_c, 0, 64, 82
1, 691797, Control_c, 0, 64, 76
1, 691812, Control_c, 0, 64, 69
1, 691827, Control_c, 0, 64, 64
1, 691841, Control_c, 0, 64, 60
1, 691856, Control_c, 0, 64, 57
1, 691871, Control_c, 0, 64, 54
1, 691886, Control_c, 0, 64, 52
1, 691901, Control_c, 0, 64, 51
1, 691915, Control_c, 0, 64, 48
1, 691930, Control_c, 0, 64, 47
1, 692027, Control_c, 0, 64, 47
1, 692041, Control_c, 0, 64, 49
1, 692056, Control_c, 0, 64, 51
1, 692071, Control_c, 0, 64, 52
1, 692086, Control_c, 0, 64, 52
1, 692101, Control_c, 0, 64, 53
1, 692115, Control_c, 0, 64, 55
1, 692130, Control_c, 0, 64, 58
1, 692145, Control_c, 0, 64, 61
1, 692160, Control_c, 0, 64, 62
1, 692174, Control_c, 0, 64, 62
1, 692189, Control_c, 0, 64, 63
1, 692204, Control_c, 0, 64, 64
1, 692219, Control_c, 0, 64, 67
1, 692234, Control_c, 0, 64, 71
1, 692248, Control_c, 0, 64, 76
1, 692263, Control_c, 0, 64, 79
1, 692278, Control_c, 0, 64, 81
1, 692293, Control_c, 0, 64, 85
1, 692307, Control_c, 0, 64, 90
1, 692322, Control_c, 0, 64, 97
1, 692337, Control_c, 0, 64, 105
1, 692352, Control_c, 0, 64, 114
1, 692367, Control_c, 0, 64, 127
1, 693102, Note_on_c, 0, 58, 29
1, 693107, Note_on_c, 0, 53, 29
1, 693115, Note_on_c, 0, 50, 25
1, 693129, Note_on_c, 0, 34, 33
1, 693166, Poly_aftertouch_c, 0, 46, 127
1, 693303, Note_off_c, 0, 34, 41
1, 693333, Poly_aftertouch_c, 0, 46, 0
1, 693421, Note_off_c, 0, 53, 37
1, 693426, Note_off_c, 0, 58, 40
1, 693460, Note_off_c, 0, 50, 45
1, 693700, Control_c, 0, 64, 110
1, 693715, Control_c, 0, 64, 100
1, 693730, Control_c, 0, 64, 93
1, 693744, Control_c, 0, 64, 85
1, 693759, Control_c, 0, 64, 79
1, 693774, Control_c, 0, 64, 73
1, 693789, Control_c, 0, 64, 68
1, 693804, Control_c, 0, 64, 64
1, 693819, Control_c, 0, 64, 62
1, 693834, Control_c, 0, 64, 60
1, 693848, Control_c, 0, 64, 58
1, 693863, Control_c, 0, 64, 55
1, 693878, Control_c, 0, 64, 53
1, 693893, Control_c, 0, 64, 51
1, 693908, Control_c, 0, 64, 49
1, 693923, Control_c, 0, 64, 47
1, 693937, Control_c, 0, 64, 44
1, 693952, Control_c, 0, 64, 41
1, 693967, Control_c, 0, 64, 40
1, 693997, Control_c, 0, 64, 40
1, 694011, Control_c, 0, 64, 41
1, 694056, Control_c, 0, 64, 43
1, 694071, Control_c, 0, 64, 48
1, 694085, Control_c, 0, 64, 53
1, 694100, Control_c, 0, 64, 56
1, 694131, Control_c, 0, 64, 56
1, 694146, Control_c, 0, 64, 57
1, 694160, Control_c, 0, 64, 60
1, 694175, Control_c, 0, 64, 64
1, 694190, Control_c, 0, 64, 66
1, 694212, Control_c, 0, 64, 68
1, 694227, Control_c, 0, 64, 69
1, 694242, Control_c, 0, 64, 71
1, 694257, Control_c, 0, 64, 74
1, 694272, Control_c, 0, 64, 77
1, 694287, Control_c, 0, 64, 80
1, 694302, Control_c, 0, 64, 83
1, 694316, Control_c, 0, 64, 86
1, 694331, Control_c, 0, 64, 90
1, 694346, Control_c, 0, 64, 95
1, 694360, Control_c, 0, 64, 102
1, 694375, Control_c, 0, 64, 109
1, 694390, Control_c, 0, 64, 121
1, 694405, Control_c, 0, 64, 127
1, 696018, Note_on_c, 0, 58, 35
1, 696036, Note_on_c, 0, 53, 34
1, 696036, Note_on_c, 0, 34, 31
1, 696038, Note_on_c, 0, 50, 28
1, 696054, Note_on_c, 0, 46, 12
1, 699731, Note_off_c, 0, 46, 12
1, 700043, Note_off_c, 0, 50, 43
1, 700108, Note_off_c, 0, 34, 31
1, 700602, Note_off_c, 0, 58, 32
1, 700820, Note_off_c, 0, 53, 27
1, 702464, Control_c, 0, 64, 117
1, 702479, Control_c, 0, 64, 114
1, 702494, Control_c, 0, 64, 111
1, 702523, Control_c, 0, 64, 109
1, 702538, Control_c, 0, 64, 107
1, 702553, Control_c, 0, 64, 105
1, 702568, Control_c, 0, 64, 103
1, 702597, Control_c, 0, 64, 100
1, 702627, Control_c, 0, 64, 98
1, 702657, Control_c, 0, 64, 95
1, 702672, Control_c, 0, 64, 93
1, 702687, Control_c, 0, 64, 92
1, 702701, Control_c, 0, 64, 92
1, 702716, Control_c, 0, 64, 90
1, 702731, Control_c, 0, 64, 88
1, 702746, Control_c, 0, 64, 86
1, 702761, Control_c, 0, 64, 85
1, 702775, Control_c, 0, 64, 84
1, 702790, Control_c, 0, 64, 83
1, 702805, Control_c, 0, 64, 82
1, 702819, Control_c, 0, 64, 79
1, 702834, Control_c, 0, 64, 77
1, 702849, Control_c, 0, 64, 75
1, 702864, Control_c, 0, 64, 74
1, 702879, Control_c, 0, 64, 73
1, 702893, Control_c, 0, 64, 73
1, 702908, Control_c, 0, 64, 72
1, 702924, Control_c, 0, 64, 71
1, 702939, Control_c, 0, 64, 70
1, 702969, Control_c, 0, 64, 70
1, 702984, Control_c, 0, 64, 69
1, 702998, Control_c, 0, 64, 69
1, 703013, Control_c, 0, 64, 68
1, 703028, Control_c, 0, 64, 68
1, 703072, Control_c, 0, 64, 67
1, 703131, Control_c, 0, 64, 67
1, 703176, Control_c, 0, 64, 66
1, 703243, Control_c, 0, 64, 66
1, 703257, Control_c, 0, 64, 65
1, 703272, Control_c, 0, 64, 64
1, 703317, Control_c, 0, 64, 64
1, 703346, Control_c, 0, 64, 63
1, 703391, Control_c, 0, 64, 63
1, 703420, Control_c, 0, 64, 62
1, 703480, Control_c, 0, 64, 62
1, 703510, Control_c, 0, 64, 61
1, 703584, Control_c, 0, 64, 61
1, 703642, Control_c, 0, 64, 60
1, 703672, Control_c, 0, 64, 60
1, 703702, Control_c, 0, 64, 59
1, 703733, Control_c, 0, 64, 59
1, 703747, Control_c, 0, 64, 58
1, 703777, Control_c, 0, 64, 58
1, 703821, Control_c, 0, 64, 57
1, 703836, Control_c, 0, 64, 57
1, 703851, Control_c, 0, 64, 56
1, 703865, Control_c, 0, 64, 56
1, 703880, Control_c, 0, 64, 55
1, 703895, Control_c, 0, 64, 55
1, 703910, Control_c, 0, 64, 54
1, 703925, Control_c, 0, 64, 53
1, 703947, Control_c, 0, 64, 52
1, 703962, Control_c, 0, 64, 51
1, 703977, Control_c, 0, 64, 50
1, 703992, Control_c, 0, 64, 50
1, 704007, Control_c, 0, 64, 49
1, 704021, Control_c, 0, 64, 47
1, 704036, Control_c, 0, 64, 46
1, 704051, Control_c, 0, 64, 43
1, 704066, Control_c, 0, 64, 41
1, 704080, Control_c, 0, 64, 38
1, 704095, Control_c, 0, 64, 35
1, 704110, Control_c, 0, 64, 31
1, 704125, Control_c, 0, 64, 0
1, 706267, Control_c, 0, 67, 116
1, 706282, Control_c, 0, 67, 93
1, 706297, Control_c, 0, 67, 68
1, 706312, Control_c, 0, 67, 41
1, 706326, Control_c, 0, 67, 0
1, 706756, Control_c, 0, 64, 27
1, 706859, Control_c, 0, 64, 29
1, 707016, Control_c, 0, 64, 31
1, 707090, Control_c, 0, 64, 32
1, 707105, Control_c, 0, 64, 32
1, 707134, Control_c, 0, 64, 33
1, 707149, Control_c, 0, 64, 33
1, 707164, Control_c, 0, 64, 35
1, 707179, Control_c, 0, 64, 36
1, 707194, Control_c, 0, 64, 37
1, 707209, Control_c, 0, 64, 38
1, 707224, Control_c, 0, 64, 38
1, 707238, Control_c, 0, 64, 39
1, 707253, Control_c, 0, 64, 40
1, 707253, Control_c, 0, 67, 34
1, 707268, Control_c, 0, 64, 41
1, 707268, Control_c, 0, 67, 35
1, 707283, Control_c, 0, 67, 38
1, 707298, Control_c, 0, 67, 48
1, 707313, Control_c, 0, 67, 64
1, 707328, Control_c, 0, 67, 86
1, 707343, Control_c, 0, 64, 41
1, 707343, Control_c, 0, 67, 109
1, 707357, Control_c, 0, 67, 127
1, 707490, Control_c, 0, 64, 42
1, 707505, Control_c, 0, 64, 42
1, 707594, Control_c, 0, 64, 43
1, 707690, Control_c, 0, 64, 43
1, 707751, Control_c, 0, 64, 44
1, 707781, Control_c, 0, 64, 44
1, 707795, Control_c, 0, 64, 45
1, 707825, Control_c, 0, 64, 46
1, 707840, Control_c, 0, 64, 46
1, 707855, Control_c, 0, 64, 48
1, 707869, Control_c, 0, 64, 48
1, 707884, Control_c, 0, 64, 49
1, 707899, Control_c, 0, 64, 50
1, 707913, Control_c, 0, 64, 51
1, 707928, Control_c, 0, 64, 52
1, 707943, Control_c, 0, 64, 53
1, 707958, Control_c, 0, 64, 54
1, 707973, Control_c, 0, 64, 54
1, 707987, Control_c, 0, 64, 55
1, 708002, Control_c, 0, 64, 56
1, 708017, Control_c, 0, 64, 57
1, 708032, Control_c, 0, 64, 58
1, 708076, Control_c, 0, 64, 58
1, 708091, Control_c, 0, 64, 59
1, 708106, Control_c, 0, 64, 60
1, 708120, Control_c, 0, 64, 60
1, 708135, Control_c, 0, 64, 61
1, 708165, Control_c, 0, 64, 61
1, 708179, Control_c, 0, 64, 62
1, 708194, Control_c, 0, 64, 63
1, 708209, Control_c, 0, 64, 65
1, 708224, Control_c, 0, 64, 65
1, 708238, Control_c, 0, 64, 66
1, 708268, Control_c, 0, 64, 66
1, 708283, Control_c, 0, 64, 67
1, 708298, Control_c, 0, 64, 68
1, 708312, Control_c, 0, 64, 69
1, 708327, Control_c, 0, 64, 70
1, 708342, Control_c, 0, 64, 71
1, 708357, Control_c, 0, 64, 72
1, 708372, Control_c, 0, 64, 73
1, 708386, Control_c, 0, 64, 74
1, 708401, Control_c, 0, 64, 75
1, 708416, Control_c, 0, 64, 76
1, 708438, Control_c, 0, 64, 78
1, 708453, Control_c, 0, 64, 79
1, 708468, Control_c, 0, 64, 81
1, 708483, Control_c, 0, 64, 84
1, 708498, Control_c, 0, 64, 88
1, 708514, Control_c, 0, 64, 91
1, 708529, Control_c, 0, 64, 95
1, 708543, Control_c, 0, 64, 99
1, 708558, Control_c, 0, 64, 104
1, 708573, Control_c, 0, 64, 110
1, 708588, Control_c, 0, 64, 127
1, 710430, Note_on_c, 0, 68, 56
1, 710454, Note_on_c, 0, 64, 37
1, 710464, Note_on_c, 0, 37, 42
1, 710533, Note_off_c, 0, 37, 57
1, 711630, Note_on_c, 0, 49, 38
1, 711642, Control_c, 0, 64, 89
1, 711656, Control_c, 0, 64, 68
1, 711671, Control_c, 0, 64, 57
1, 711695, Note_on_c, 0, 61, 46
1, 711701, Control_c, 0, 64, 64
1, 711717, Control_c, 0, 64, 77
1, 711732, Control_c, 0, 64, 109
1, 711747, Control_c, 0, 64, 127
1, 711752, Note_off_c, 0, 49, 59
1, 711770, Note_off_c, 0, 61, 60
1, 712164, Note_on_c, 0, 73, 47
1, 712199, Note_off_c, 0, 73, 65
1, 712232, Note_off_c, 0, 68, 61
1, 712278, Note_off_c, 0, 64, 41
1, 712764, Note_on_c, 0, 68, 67
1, 712785, Note_on_c, 0, 64, 49
1, 713124, Control_c, 0, 64, 115
1, 713139, Control_c, 0, 64, 91
1, 713153, Control_c, 0, 64, 76
1, 713168, Control_c, 0, 64, 64
1, 713183, Control_c, 0, 64, 54
1, 713198, Control_c, 0, 64, 50
1, 713227, Control_c, 0, 64, 53
1, 713242, Control_c, 0, 64, 59
1, 713257, Control_c, 0, 64, 66
1, 713272, Control_c, 0, 64, 75
1, 713287, Control_c, 0, 64, 92
1, 713303, Control_c, 0, 64, 127
1, 713362, Note_off_c, 0, 64, 59
1, 713450, Note_off_c, 0, 68, 53
1, 713767, Note_on_c, 0, 66, 49
1, 713778, Note_on_c, 0, 63, 37
1, 713866, Note_off_c, 0, 63, 46
1, 713881, Note_off_c, 0, 66, 49
1, 714051, Note_on_c, 0, 66, 42
1, 714068, Note_on_c, 0, 63, 41
1, 714092, Note_on_c, 0, 37, 30
1, 714171, Control_c, 0, 64, 108
1, 714186, Control_c, 0, 64, 91
1, 714200, Control_c, 0, 64, 77
1, 714215, Control_c, 0, 64, 66
1, 714230, Control_c, 0, 64, 56
1, 714245, Control_c, 0, 64, 47
1, 714260, Control_c, 0, 64, 42
1, 714274, Control_c, 0, 64, 39
1, 714289, Control_c, 0, 64, 38
1, 714304, Control_c, 0, 64, 40
1, 714319, Control_c, 0, 64, 49
1, 714334, Control_c, 0, 64, 60
1, 714348, Control_c, 0, 64, 71
1, 714363, Control_c, 0, 64, 82
1, 714378, Control_c, 0, 64, 94
1, 714393, Control_c, 0, 64, 103
1, 714408, Control_c, 0, 64, 127
1, 714482, Note_off_c, 0, 37, 40
1, 715141, Note_on_c, 0, 49, 41
1, 715179, Control_c, 0, 64, 97
1, 715194, Control_c, 0, 64, 71
1, 715209, Control_c, 0, 64, 57
1, 715224, Control_c, 0, 64, 52
1, 715238, Control_c, 0, 64, 56
1, 715239, Note_on_c, 0, 61, 39
1, 715253, Control_c, 0, 64, 63
1, 715258, Note_off_c, 0, 49, 61
1, 715268, Control_c, 0, 64, 76
1, 715283, Control_c, 0, 64, 98
1, 715297, Note_off_c, 0, 61, 62
1, 715298, Control_c, 0, 64, 127
1, 715666, Note_on_c, 0, 73, 45
1, 715690, Note_off_c, 0, 73, 61
1, 715704, Note_off_c, 0, 63, 61
1, 715718, Note_off_c, 0, 66, 64
1, 715773, Control_c, 0, 67, 116
1, 715788, Control_c, 0, 67, 104
1, 715802, Control_c, 0, 67, 91
1, 715817, Control_c, 0, 67, 73
1, 715832, Control_c, 0, 67, 41
1, 715846, Control_c, 0, 67, 0
1, 716218, Note_on_c, 0, 66, 70
1, 716247, Note_on_c, 0, 63, 43
1, 716431, Control_c, 0, 67, 43
1, 716445, Control_c, 0, 67, 45
1, 716460, Control_c, 0, 67, 46
1, 716475, Control_c, 0, 67, 50
1, 716491, Control_c, 0, 67, 66
1, 716506, Control_c, 0, 67, 82
1, 716521, Control_c, 0, 67, 87
1, 716536, Control_c, 0, 67, 88
1, 716550, Control_c, 0, 64, 88
1, 716550, Control_c, 0, 67, 93
1, 716565, Control_c, 0, 64, 73
1, 716565, Control_c, 0, 67, 113
1, 716580, Control_c, 0, 64, 64
1, 716580, Control_c, 0, 67, 127
1, 716594, Control_c, 0, 64, 59
1, 716624, Control_c, 0, 64, 61
1, 716639, Control_c, 0, 64, 67
1, 716654, Control_c, 0, 64, 81
1, 716676, Control_c, 0, 64, 127
1, 716864, Note_off_c, 0, 66, 62
1, 717359, Note_on_c, 0, 69, 67
1, 717387, Note_on_c, 0, 66, 45
1, 717405, Note_on_c, 0, 37, 42
1, 717499, Control_c, 0, 64, 108
1, 717514, Control_c, 0, 64, 84
1, 717529, Control_c, 0, 64, 66
1, 717544, Control_c, 0, 64, 54
1, 717559, Control_c, 0, 64, 43
1, 717573, Control_c, 0, 64, 35
1, 717579, Note_off_c, 0, 63, 39
1, 717588, Control_c, 0, 64, 27
1, 717603, Control_c, 0, 64, 0
1, 717648, Control_c, 0, 64, 30
1, 717663, Control_c, 0, 64, 44
1, 717678, Control_c, 0, 64, 59
1, 717693, Control_c, 0, 64, 69
1, 717707, Control_c, 0, 64, 77
1, 717722, Control_c, 0, 64, 88
1, 717737, Control_c, 0, 64, 99
1, 717752, Control_c, 0, 64, 127
1, 717824, Note_off_c, 0, 37, 39
1, 718537, Note_on_c, 0, 49, 38
1, 718558, Control_c, 0, 64, 102
1, 718572, Control_c, 0, 64, 74
1, 718587, Control_c, 0, 64, 60
1, 718602, Control_c, 0, 64, 55
1, 718616, Note_on_c, 0, 61, 45
1, 718617, Control_c, 0, 64, 58
1, 718632, Control_c, 0, 64, 65
1, 718647, Control_c, 0, 64, 76
1, 718661, Control_c, 0, 64, 97
1, 718665, Note_off_c, 0, 49, 61
1, 718676, Control_c, 0, 64, 127
1, 718687, Note_off_c, 0, 61, 59
1, 719113, Note_on_c, 0, 73, 34
1, 719142, Note_off_c, 0, 73, 53
1, 719168, Note_off_c, 0, 66, 59
1, 719174, Note_off_c, 0, 69, 61
1, 719629, Note_on_c, 0, 69, 59
1, 719643, Note_on_c, 0, 66, 46
1, 719907, Control_c, 0, 64, 113
1, 719922, Control_c, 0, 64, 108
1, 719937, Control_c, 0, 64, 106
1, 719952, Control_c, 0, 64, 104
1, 719967, Control_c, 0, 64, 99
1, 719982, Control_c, 0, 64, 94
1, 719997, Control_c, 0, 64, 90
1, 720012, Control_c, 0, 64, 87
1, 720027, Control_c, 0, 64, 86
1, 720042, Control_c, 0, 64, 84
1, 720057, Control_c, 0, 64, 81
1, 720071, Control_c, 0, 64, 77
1, 720086, Control_c, 0, 64, 75
1, 720101, Control_c, 0, 64, 73
1, 720116, Control_c, 0, 64, 72
1, 720125, Note_on_c, 0, 68, 62
1, 720131, Control_c, 0, 64, 69
1, 720141, Note_on_c, 0, 64, 36
1, 720145, Control_c, 0, 64, 67
1, 720160, Control_c, 0, 64, 64
1, 720175, Control_c, 0, 64, 63
1, 720199, Note_off_c, 0, 66, 62
1, 720205, Control_c, 0, 64, 63
1, 720217, Note_off_c, 0, 69, 38
1, 720219, Control_c, 0, 64, 61
1, 720234, Control_c, 0, 64, 60
1, 720249, Control_c, 0, 64, 58
1, 720264, Control_c, 0, 64, 58
1, 720279, Control_c, 0, 64, 57
1, 720293, Control_c, 0, 64, 57
1, 720308, Control_c, 0, 64, 56
1, 720323, Control_c, 0, 64, 54
1, 720337, Control_c, 0, 64, 53
1, 720352, Control_c, 0, 64, 52
1, 720363, Note_on_c, 0, 66, 59
1, 720367, Control_c, 0, 64, 51
1, 720382, Control_c, 0, 64, 49
1, 720387, Note_on_c, 0, 63, 48
1, 720397, Control_c, 0, 64, 48
1, 720419, Control_c, 0, 64, 47
1, 720464, Control_c, 0, 64, 46
1, 720468, Note_off_c, 0, 64, 42
1, 720476, Note_off_c, 0, 68, 62
1, 720479, Control_c, 0, 64, 45
1, 720495, Control_c, 0, 64, 44
1, 720510, Control_c, 0, 64, 44
1, 720715, Note_on_c, 0, 68, 51
1, 720716, Control_c, 0, 64, 43
1, 720731, Control_c, 0, 64, 42
1, 720733, Note_on_c, 0, 37, 42
1, 720742, Note_on_c, 0, 64, 38
1, 720763, Note_off_c, 0, 63, 55
1, 720790, Control_c, 0, 64, 41
1, 720805, Control_c, 0, 64, 40
1, 720806, Note_off_c, 0, 66, 52
1, 720820, Control_c, 0, 64, 38
1, 720835, Control_c, 0, 64, 37
1, 720849, Control_c, 0, 64, 36
1, 720864, Control_c, 0, 64, 33
1, 720879, Control_c, 0, 64, 30
1, 720968, Control_c, 0, 64, 37
1, 720983, Control_c, 0, 64, 48
1, 720998, Control_c, 0, 64, 59
1, 721013, Control_c, 0, 64, 66
1, 721028, Control_c, 0, 64, 70
1, 721042, Control_c, 0, 64, 72
1, 721057, Control_c, 0, 64, 76
1, 721072, Control_c, 0, 64, 85
1, 721087, Control_c, 0, 64, 111
1, 721102, Control_c, 0, 64, 127
1, 721140, Note_off_c, 0, 37, 40
1, 721800, Note_on_c, 0, 49, 42
1, 721821, Control_c, 0, 64, 82
1, 721836, Control_c, 0, 64, 62
1, 721851, Control_c, 0, 64, 48
1, 721880, Control_c, 0, 64, 56
1, 721882, Note_on_c, 0, 61, 47
1, 721895, Control_c, 0, 64, 68
1, 721902, Note_off_c, 0, 49, 61
1, 721917, Control_c, 0, 64, 87
1, 721932, Control_c, 0, 64, 127
1, 721946, Note_off_c, 0, 61, 59
1, 722200, Control_c, 0, 67, 119
1, 722214, Control_c, 0, 67, 106
1, 722229, Control_c, 0, 67, 93
1, 722244, Control_c, 0, 67, 78
1, 722258, Control_c, 0, 67, 67
1, 722273, Control_c, 0, 67, 57
1, 722287, Control_c, 0, 67, 46
1, 722302, Control_c, 0, 67, 0
1, 722334, Note_on_c, 0, 73, 54
1, 722373, Note_off_c, 0, 73, 63
1, 722450, Note_off_c, 0, 68, 61
1, 722469, Note_off_c, 0, 64, 54
1, 722931, Note_on_c, 0, 68, 71
1, 722983, Note_on_c, 0, 64, 29
1, 723199, Control_c, 0, 67, 34
1, 723214, Control_c, 0, 67, 49
1, 723229, Control_c, 0, 67, 73
1, 723243, Control_c, 0, 64, 99
1, 723243, Control_c, 0, 67, 80
1, 723258, Control_c, 0, 64, 83
1, 723258, Control_c, 0, 67, 81
1, 723273, Control_c, 0, 64, 71
1, 723273, Control_c, 0, 67, 83
1, 723288, Control_c, 0, 64, 61
1, 723288, Control_c, 0, 67, 90
1, 723303, Control_c, 0, 64, 55
1, 723303, Control_c, 0, 67, 116
1, 723318, Control_c, 0, 64, 52
1, 723318, Control_c, 0, 67, 127
1, 723333, Control_c, 0, 64, 52
1, 723347, Control_c, 0, 64, 52
1, 723362, Control_c, 0, 64, 56
1, 723377, Control_c, 0, 64, 63
1, 723392, Control_c, 0, 64, 73
1, 723414, Control_c, 0, 64, 96
1, 723429, Control_c, 0, 64, 127
1, 723631, Note_off_c, 0, 64, 43
1, 724053, Note_on_c, 0, 71, 78
1, 724072, Note_on_c, 0, 65, 47
1, 724111, Note_on_c, 0, 37, 32
1, 724208, Control_c, 0, 64, 115
1, 724223, Control_c, 0, 64, 94
1, 724238, Control_c, 0, 64, 79
1, 724245, Note_off_c, 0, 68, 38
1, 724253, Control_c, 0, 64, 65
1, 724267, Control_c, 0, 64, 55
1, 724282, Control_c, 0, 64, 47
1, 724297, Control_c, 0, 64, 42
1, 724311, Control_c, 0, 64, 36
1, 724326, Control_c, 0, 64, 32
1, 724356, Control_c, 0, 64, 38
1, 724371, Control_c, 0, 64, 49
1, 724385, Control_c, 0, 64, 61
1, 724400, Control_c, 0, 64, 70
1, 724415, Control_c, 0, 64, 81
1, 724430, Control_c, 0, 64, 93
1, 724445, Control_c, 0, 64, 105
1, 724459, Control_c, 0, 64, 127
1, 724519, Note_off_c, 0, 37, 39
1, 725217, Note_on_c, 0, 49, 43
1, 725253, Control_c, 0, 64, 83
1, 725268, Control_c, 0, 64, 63
1, 725284, Control_c, 0, 64, 54
1, 725292, Note_on_c, 0, 61, 50
1, 725299, Control_c, 0, 64, 56
1, 725313, Control_c, 0, 64, 61
1, 725324, Note_off_c, 0, 49, 61
1, 725328, Control_c, 0, 64, 68
1, 725343, Control_c, 0, 64, 82
1, 725357, Control_c, 0, 64, 106
1, 725360, Note_off_c, 0, 61, 60
1, 725372, Control_c, 0, 64, 127
1, 725777, Note_on_c, 0, 73, 52
1, 725812, Note_off_c, 0, 73, 65
1, 725886, Note_off_c, 0, 71, 55
1, 725926, Note_off_c, 0, 65, 59
1, 726280, Note_on_c, 0, 71, 71
1, 726302, Note_on_c, 0, 65, 43
1, 726484, Control_c, 0, 64, 110
1, 726499, Control_c, 0, 64, 102
1, 726513, Control_c, 0, 64, 95
1, 726527, Note_on_c, 0, 68, 59
1, 726528, Control_c, 0, 64, 89
1, 726543, Control_c, 0, 64, 84
1, 726558, Control_c, 0, 64, 79
1, 726573, Control_c, 0, 64, 75
1, 726588, Control_c, 0, 64, 71
1, 726603, Control_c, 0, 64, 68
1, 726618, Control_c, 0, 64, 65
1, 726632, Control_c, 0, 64, 64
1, 726647, Control_c, 0, 64, 63
1, 726662, Control_c, 0, 64, 62
1, 726677, Control_c, 0, 64, 61
1, 726692, Control_c, 0, 64, 60
1, 726706, Control_c, 0, 64, 58
1, 726721, Control_c, 0, 64, 56
1, 726736, Control_c, 0, 64, 54
1, 726751, Control_c, 0, 64, 53
1, 726752, Note_on_c, 0, 69, 71
1, 726759, Note_on_c, 0, 66, 64
1, 726766, Control_c, 0, 64, 51
1, 726780, Control_c, 0, 64, 50
1, 726795, Control_c, 0, 64, 48
1, 726805, Note_off_c, 0, 68, 52
1, 726808, Note_off_c, 0, 65, 53
1, 726810, Control_c, 0, 64, 42
1, 726825, Control_c, 0, 64, 35
1, 726840, Control_c, 0, 64, 28
1, 726854, Control_c, 0, 64, 0
1, 726883, Note_off_c, 0, 71, 59
1, 726982, Note_on_c, 0, 68, 74
1, 726987, Note_on_c, 0, 65, 67
1, 727029, Note_off_c, 0, 69, 60
1, 727037, Note_off_c, 0, 66, 62
1, 727336, Note_on_c, 0, 69, 68
1, 727347, Note_on_c, 0, 66, 63
1, 727365, Note_on_c, 0, 37, 40
1, 727395, Note_off_c, 0, 65, 57
1, 727431, Note_off_c, 0, 68, 56
1, 727559, Control_c, 0, 64, 30
1, 727574, Control_c, 0, 64, 48
1, 727589, Control_c, 0, 64, 58
1, 727603, Control_c, 0, 64, 59
1, 727618, Control_c, 0, 64, 59
1, 727633, Control_c, 0, 64, 63
1, 727648, Control_c, 0, 64, 70
1, 727662, Control_c, 0, 64, 87
1, 727679, Control_c, 0, 64, 127
1, 727732, Note_off_c, 0, 37, 39
1, 728335, Note_on_c, 0, 49, 45
1, 728352, Control_c, 0, 64, 87
1, 728367, Control_c, 0, 64, 66
1, 728382, Control_c, 0, 64, 54
1, 728397, Control_c, 0, 64, 52
1, 728409, Note_on_c, 0, 61, 48
1, 728412, Control_c, 0, 64, 58
1, 728426, Control_c, 0, 64, 68
1, 728427, Note_off_c, 0, 49, 63
1, 728441, Control_c, 0, 64, 102
1, 728442, Note_off_c, 0, 61, 65
1, 728456, Control_c, 0, 64, 127
1, 728568, Note_off_c, 0, 66, 63
1, 728603, Note_off_c, 0, 69, 62
1, 728880, Note_on_c, 0, 73, 66
1, 728889, Note_on_c, 0, 69, 58
1, 728907, Note_off_c, 0, 73, 67
1, 728908, Note_on_c, 0, 66, 48
1, 728967, Note_off_c, 0, 66, 46
1, 728988, Note_off_c, 0, 69, 60
1, 729056, Control_c, 0, 67, 120
1, 729071, Control_c, 0, 67, 112
1, 729086, Control_c, 0, 67, 102
1, 729101, Control_c, 0, 67, 89
1, 729115, Control_c, 0, 67, 74
1, 729130, Control_c, 0, 67, 61
1, 729145, Control_c, 0, 67, 53
1, 729160, Control_c, 0, 67, 48
1, 729175, Control_c, 0, 67, 44
1, 729190, Control_c, 0, 67, 42
1, 729205, Control_c, 0, 67, 41
1, 729220, Control_c, 0, 67, 40
1, 729350, Note_on_c, 0, 69, 77
1, 729354, Control_c, 0, 67, 41
1, 729382, Note_on_c, 0, 66, 48
1, 729384, Control_c, 0, 67, 42
1, 729405, Control_c, 0, 67, 46
1, 729420, Control_c, 0, 67, 49
1, 729435, Control_c, 0, 64, 121
1, 729435, Control_c, 0, 67, 50
1, 729450, Control_c, 0, 64, 78
1, 729465, Control_c, 0, 64, 58
1, 729479, Control_c, 0, 64, 50
1, 729479, Control_c, 0, 67, 50
1, 729494, Control_c, 0, 64, 52
1, 729494, Control_c, 0, 67, 51
1, 729509, Control_c, 0, 64, 58
1, 729509, Control_c, 0, 67, 50
1, 729524, Control_c, 0, 64, 72
1, 729524, Control_c, 0, 67, 47
1, 729539, Control_c, 0, 64, 127
1, 729539, Control_c, 0, 67, 43
1, 729554, Control_c, 0, 67, 40
1, 729569, Control_c, 0, 67, 39
1, 729583, Control_c, 0, 67, 35
1, 729598, Control_c, 0, 67, 0
1, 729612, Note_off_c, 0, 66, 43
1, 729619, Note_off_c, 0, 69, 59
1, 729860, Note_on_c, 0, 69, 78
1, 729879, Note_on_c, 0, 66, 67
1, 729918, Note_off_c, 0, 66, 60
1, 729977, Note_off_c, 0, 69, 61
1, 730537, Note_on_c, 0, 73, 75
1, 730567, Note_on_c, 0, 69, 45
1, 730570, Note_on_c, 0, 37, 45
1, 730626, Note_off_c, 0, 69, 0
1, 730626, Note_on_c, 0, 69, 25
1, 730687, Control_c, 0, 64, 123
1, 730687, Control_c, 0, 67, 46
1, 730702, Control_c, 0, 64, 93
1, 730702, Control_c, 0, 67, 77
1, 730717, Control_c, 0, 64, 75
1, 730717, Control_c, 0, 67, 106
1, 730732, Control_c, 0, 64, 62
1, 730732, Control_c, 0, 67, 116
1, 730746, Control_c, 0, 64, 49
1, 730761, Control_c, 0, 64, 37
1, 730761, Control_c, 0, 67, 120
1, 730776, Control_c, 0, 64, 0
1, 730776, Control_c, 0, 67, 127
1, 730835, Control_c, 0, 64, 41
1, 730850, Control_c, 0, 64, 58
1, 730865, Control_c, 0, 64, 69
1, 730881, Control_c, 0, 64, 84
1, 730904, Control_c, 0, 64, 97
1, 730919, Control_c, 0, 64, 107
1, 730933, Control_c, 0, 64, 127
1, 730977, Note_off_c, 0, 37, 40
1, 731726, Note_on_c, 0, 49, 43
1, 731755, Control_c, 0, 64, 112
1, 731770, Control_c, 0, 64, 76
1, 731785, Control_c, 0, 64, 59
1, 731799, Control_c, 0, 64, 48
1, 731806, Note_on_c, 0, 61, 49
1, 731814, Control_c, 0, 64, 51
1, 731829, Control_c, 0, 64, 59
1, 731839, Note_off_c, 0, 49, 60
1, 731844, Control_c, 0, 64, 67
1, 731859, Control_c, 0, 64, 81
1, 731873, Control_c, 0, 64, 103
1, 731885, Note_off_c, 0, 61, 60
1, 731888, Control_c, 0, 64, 127
1, 732067, Note_off_c, 0, 73, 52
1, 732311, Note_on_c, 0, 73, 50
1, 732347, Note_off_c, 0, 73, 65
1, 732457, Note_off_c, 0, 69, 50
1, 732947, Note_on_c, 0, 73, 62
1, 732967, Note_on_c, 0, 69, 50
1, 733095, Control_c, 0, 64, 116
1, 733110, Control_c, 0, 64, 84
1, 733125, Control_c, 0, 64, 66
1, 733147, Control_c, 0, 64, 59
1, 733162, Control_c, 0, 64, 57
1, 733177, Control_c, 0, 64, 58
1, 733192, Control_c, 0, 64, 61
1, 733207, Control_c, 0, 64, 67
1, 733221, Control_c, 0, 64, 75
1, 733236, Control_c, 0, 64, 92
1, 733251, Control_c, 0, 64, 109
1, 733266, Control_c, 0, 64, 127
1, 733382, Note_off_c, 0, 69, 56
1, 733438, Note_off_c, 0, 73, 63
1, 734009, Note_on_c, 0, 69, 53
1, 734037, Note_on_c, 0, 66, 35
1, 734088, Note_off_c, 0, 66, 47
1, 734138, Note_off_c, 0, 69, 48
1, 734342, Note_on_c, 0, 68, 43
1, 734359, Note_on_c, 0, 37, 42
1, 734359, Note_on_c, 0, 64, 38
1, 734460, Control_c, 0, 64, 105
1, 734475, Control_c, 0, 64, 93
1, 734490, Control_c, 0, 64, 82
1, 734505, Control_c, 0, 64, 71
1, 734520, Control_c, 0, 64, 60
1, 734535, Control_c, 0, 64, 49
1, 734550, Control_c, 0, 64, 36
1, 734565, Control_c, 0, 64, 0
1, 734639, Control_c, 0, 64, 32
1, 734660, Control_c, 0, 64, 49
1, 734675, Control_c, 0, 64, 60
1, 734690, Control_c, 0, 64, 65
1, 734705, Control_c, 0, 64, 69
1, 734720, Control_c, 0, 64, 73
1, 734735, Control_c, 0, 64, 77
1, 734749, Control_c, 0, 64, 83
1, 734764, Control_c, 0, 64, 93
1, 734769, Note_off_c, 0, 37, 39
1, 734779, Control_c, 0, 64, 110
1, 734794, Control_c, 0, 64, 127
1, 735520, Note_on_c, 0, 49, 36
1, 735528, Control_c, 0, 64, 106
1, 735542, Control_c, 0, 64, 77
1, 735557, Control_c, 0, 64, 62
1, 735572, Control_c, 0, 64, 51
1, 735587, Control_c, 0, 64, 51
1, 735596, Note_on_c, 0, 61, 42
1, 735602, Control_c, 0, 64, 57
1, 735617, Control_c, 0, 64, 65
1, 735632, Control_c, 0, 64, 74
1, 735635, Note_off_c, 0, 49, 59
1, 735647, Control_c, 0, 64, 87
1, 735654, Note_off_c, 0, 61, 55
1, 735662, Control_c, 0, 64, 102
1, 735677, Control_c, 0, 64, 127
1, 736175, Note_on_c, 0, 73, 37
1, 736222, Note_off_c, 0, 73, 64
1, 736713, Note_off_c, 0, 64, 62
1, 736732, Note_off_c, 0, 68, 61
1, 737508, Note_on_c, 0, 68, 49
1, 737513, Note_on_c, 0, 64, 45
1, 737590, Control_c, 0, 64, 86
1, 737605, Control_c, 0, 64, 69
1, 737619, Control_c, 0, 64, 59
1, 737641, Control_c, 0, 64, 58
1, 737656, Control_c, 0, 64, 59
1, 737671, Control_c, 0, 64, 63
1, 737686, Control_c, 0, 64, 70
1, 737701, Control_c, 0, 64, 81
1, 737715, Control_c, 0, 64, 104
1, 737730, Control_c, 0, 64, 127
1, 737806, Note_off_c, 0, 68, 59
1, 737824, Note_off_c, 0, 64, 59
1, 738270, Note_on_c, 0, 73, 54
1, 738300, Note_on_c, 0, 69, 36
1, 738300, Note_on_c, 0, 32, 46
1, 738300, Note_on_c, 0, 64, 37
1, 738306, Note_on_c, 0, 44, 34
1, 738368, Control_c, 0, 64, 117
1, 738390, Control_c, 0, 64, 87
1, 738405, Control_c, 0, 64, 69
1, 738420, Control_c, 0, 64, 57
1, 738435, Control_c, 0, 64, 50
1, 738464, Control_c, 0, 64, 52
1, 738479, Control_c, 0, 64, 60
1, 738493, Control_c, 0, 64, 69
1, 738508, Control_c, 0, 64, 85
1, 738523, Control_c, 0, 64, 127
1, 738587, Note_off_c, 0, 69, 40
1, 738637, Note_off_c, 0, 44, 37
1, 738638, Note_off_c, 0, 32, 41
1, 738709, Note_off_c, 0, 64, 44
1, 739028, Control_c, 0, 67, 124
1, 739042, Control_c, 0, 67, 117
1, 739072, Control_c, 0, 67, 114
1, 739116, Control_c, 0, 67, 112
1, 739131, Control_c, 0, 67, 108
1, 739154, Control_c, 0, 67, 97
1, 739169, Control_c, 0, 67, 78
1, 739184, Control_c, 0, 67, 63
1, 739198, Control_c, 0, 67, 54
1, 739213, Control_c, 0, 67, 48
1, 739228, Control_c, 0, 67, 42
1, 739242, Control_c, 0, 67, 0
1, 739453, Note_on_c, 0, 72, 62
1, 739466, Note_on_c, 0, 68, 50
1, 739482, Note_on_c, 0, 63, 41
1, 739501, Note_off_c, 0, 73, 61
1, 739508, Note_off_c, 0, 68, 59
1, 739522, Note_off_c, 0, 63, 48
1, 739537, Note_off_c, 0, 72, 58
1, 739588, Note_on_c, 0, 44, 39
1, 739719, Control_c, 0, 67, 36
1, 739733, Control_c, 0, 67, 70
1, 739748, Control_c, 0, 67, 95
1, 739763, Control_c, 0, 67, 108
1, 739773, Note_on_c, 0, 72, 57
1, 739778, Control_c, 0, 67, 121
1, 739784, Note_on_c, 0, 68, 49
1, 739787, Note_on_c, 0, 56, 50
1, 739793, Control_c, 0, 64, 77
1, 739793, Control_c, 0, 67, 127
1, 739794, Note_on_c, 0, 63, 46
1, 739807, Control_c, 0, 64, 55
1, 739822, Control_c, 0, 64, 34
1, 739837, Control_c, 0, 64, 0
1, 739852, Control_c, 0, 64, 31
1, 739866, Control_c, 0, 64, 50
1, 739888, Control_c, 0, 64, 67
1, 739894, Note_off_c, 0, 44, 63
1, 739903, Control_c, 0, 64, 87
1, 739918, Control_c, 0, 64, 127
1, 739925, Note_off_c, 0, 56, 63
1, 740396, Note_on_c, 0, 80, 48
1, 740431, Note_off_c, 0, 80, 61
1, 740857, Note_off_c, 0, 72, 53
1, 740866, Note_off_c, 0, 68, 61
1, 740869, Note_off_c, 0, 63, 56
1, 741535, Note_on_c, 0, 72, 69
1, 741544, Note_on_c, 0, 68, 59
1, 741546, Note_on_c, 0, 63, 53
1, 741549, Control_c, 0, 64, 99
1, 741564, Control_c, 0, 64, 72
1, 741579, Control_c, 0, 64, 60
1, 741593, Control_c, 0, 64, 58
1, 741608, Control_c, 0, 64, 62
1, 741623, Control_c, 0, 64, 71
1, 741637, Control_c, 0, 64, 96
1, 741652, Control_c, 0, 64, 127
1, 741689, Note_off_c, 0, 63, 63
1, 741697, Note_off_c, 0, 68, 62
1, 741702, Note_off_c, 0, 72, 63
1, 741844, Control_c, 0, 67, 118
1, 741874, Control_c, 0, 67, 114
1, 741904, Control_c, 0, 67, 109
1, 741918, Control_c, 0, 67, 107
1, 741963, Control_c, 0, 67, 105
1, 742037, Control_c, 0, 67, 100
1, 742053, Control_c, 0, 67, 93
1, 742068, Control_c, 0, 67, 87
1, 742097, Control_c, 0, 67, 86
1, 742112, Control_c, 0, 67, 83
1, 742137, Note_on_c, 0, 76, 77
1, 742149, Control_c, 0, 67, 84
1, 742152, Note_on_c, 0, 72, 61
1, 742156, Note_on_c, 0, 66, 65
1, 742163, Note_on_c, 0, 44, 58
1, 742175, Note_on_c, 0, 32, 53
1, 742194, Control_c, 0, 67, 83
1, 742208, Control_c, 0, 67, 83
1, 742223, Control_c, 0, 67, 86
1, 742238, Control_c, 0, 67, 87
1, 742253, Control_c, 0, 64, 81
1, 742267, Control_c, 0, 64, 61
1, 742267, Control_c, 0, 67, 87
1, 742282, Control_c, 0, 64, 41
1, 742297, Control_c, 0, 64, 0
1, 742297, Control_c, 0, 67, 87
1, 742312, Control_c, 0, 67, 88
1, 742327, Control_c, 0, 67, 87
1, 742342, Control_c, 0, 64, 39
1, 742342, Control_c, 0, 67, 84
1, 742357, Control_c, 0, 64, 59
1, 742357, Control_c, 0, 67, 82
1, 742372, Control_c, 0, 64, 73
1, 742386, Control_c, 0, 64, 89
1, 742386, Control_c, 0, 67, 83
1, 742401, Control_c, 0, 64, 123
1, 742416, Control_c, 0, 64, 127
1, 742451, Note_off_c, 0, 32, 38
1, 742460, Control_c, 0, 67, 84
1, 742468, Note_off_c, 0, 44, 40
1, 742490, Control_c, 0, 67, 83
1, 742493, Note_off_c, 0, 66, 55
1, 742495, Note_off_c, 0, 72, 53
1, 742505, Control_c, 0, 67, 82
1, 742549, Control_c, 0, 67, 81
1, 742564, Control_c, 0, 67, 79
1, 742579, Control_c, 0, 67, 78
1, 742594, Control_c, 0, 67, 71
1, 742608, Control_c, 0, 67, 69
1, 742623, Control_c, 0, 67, 66
1, 742638, Control_c, 0, 67, 58
1, 742652, Control_c, 0, 67, 46
1, 742667, Control_c, 0, 67, 43
1, 742712, Control_c, 0, 67, 42
1, 742726, Control_c, 0, 67, 39
1, 742741, Control_c, 0, 67, 38
1, 742756, Control_c, 0, 67, 38
1, 742771, Control_c, 0, 67, 34
1, 742786, Control_c, 0, 67, 0
1, 743205, Note_on_c, 0, 75, 77
1, 743210, Note_on_c, 0, 72, 62
1, 743223, Note_on_c, 0, 68, 59
1, 743232, Note_off_c, 0, 76, 61
1, 743256, Note_off_c, 0, 68, 64
1, 743272, Note_off_c, 0, 72, 62
1, 743300, Note_off_c, 0, 75, 61
1, 743329, Note_on_c, 0, 44, 65
1, 743516, Note_on_c, 0, 75, 79
1, 743527, Note_on_c, 0, 68, 62
1, 743530, Note_on_c, 0, 72, 65
1, 743534, Note_on_c, 0, 56, 64
1, 743536, Control_c, 0, 64, 86
1, 743550, Control_c, 0, 64, 63
1, 743565, Control_c, 0, 64, 42
1, 743580, Control_c, 0, 64, 0
1, 743609, Control_c, 0, 67, 35
1, 743632, Control_c, 0, 64, 39
1, 743632, Control_c, 0, 67, 43
1, 743647, Control_c, 0, 64, 62
1, 743647, Control_c, 0, 67, 41
1, 743662, Control_c, 0, 64, 84
1, 743663, Note_off_c, 0, 44, 64
1, 743677, Control_c, 0, 64, 127
1, 743677, Control_c, 0, 67, 42
1, 743683, Note_off_c, 0, 56, 64
1, 743692, Control_c, 0, 67, 42
1, 743707, Control_c, 0, 67, 41
1, 743722, Control_c, 0, 67, 39
1, 743737, Control_c, 0, 67, 38
1, 743752, Control_c, 0, 67, 39
1, 743767, Control_c, 0, 67, 40
1, 743796, Control_c, 0, 67, 39
1, 743811, Control_c, 0, 67, 38
1, 743840, Control_c, 0, 67, 38
1, 743855, Control_c, 0, 67, 39
1, 743870, Control_c, 0, 67, 38
1, 743885, Control_c, 0, 67, 37
1, 743914, Control_c, 0, 67, 39
1, 743944, Control_c, 0, 67, 37
1, 743959, Control_c, 0, 67, 35
1, 743972, Control_c, 0, 67, 34
1, 743987, Control_c, 0, 67, 36
1, 744002, Control_c, 0, 67, 37
1, 744017, Control_c, 0, 67, 34
1, 744031, Control_c, 0, 67, 0
1, 744135, Control_c, 0, 67, 33
1, 744150, Control_c, 0, 67, 34
1, 744155, Note_on_c, 0, 80, 45
1, 744165, Control_c, 0, 67, 0
1, 744193, Note_off_c, 0, 80, 65
1, 744571, Note_off_c, 0, 75, 61
1, 744588, Note_off_c, 0, 72, 59
1, 744657, Note_off_c, 0, 68, 29
1, 745317, Note_on_c, 0, 75, 86
1, 745321, Note_on_c, 0, 72, 76
1, 745322, Note_on_c, 0, 68, 77
1, 745421, Note_off_c, 0, 68, 58
1, 745423, Note_off_c, 0, 72, 58
1, 745509, Note_off_c, 0, 75, 54
1, 745973, Note_on_c, 0, 80, 87
1, 745983, Note_on_c, 0, 68, 73
1, 745984, Note_on_c, 0, 76, 76
1, 745989, Note_on_c, 0, 44, 64
1, 745999, Note_on_c, 0, 32, 66
1, 746010, Control_c, 0, 64, 78
1, 746025, Control_c, 0, 64, 59
1, 746040, Control_c, 0, 64, 34
1, 746056, Control_c, 0, 64, 0
1, 746145, Control_c, 0, 64, 41
1, 746160, Control_c, 0, 64, 63
1, 746174, Control_c, 0, 64, 74
1, 746189, Control_c, 0, 64, 92
1, 746204, Control_c, 0, 64, 127
1, 746221, Note_off_c, 0, 44, 59
1, 746233, Note_off_c, 0, 32, 34
1, 746262, Note_off_c, 0, 68, 59
1, 746303, Note_off_c, 0, 76, 58
1, 747350, Note_on_c, 0, 78, 82
1, 747353, Note_on_c, 0, 75, 79
1, 747377, Note_on_c, 0, 69, 58
1, 747455, Note_off_c, 0, 69, 54
1, 747486, Note_on_c, 0, 44, 62
1, 747489, Note_off_c, 0, 80, 56
1, 747503, Note_off_c, 0, 75, 56
1, 747507, Note_off_c, 0, 78, 59
1, 747633, Note_on_c, 0, 78, 86
1, 747639, Note_on_c, 0, 75, 75
1, 747642, Control_c, 0, 64, 93
1, 747642, Control_c, 0, 67, 40
1, 747653, Note_on_c, 0, 56, 67
1, 747654, Note_on_c, 0, 69, 68
1, 747658, Control_c, 0, 64, 65
1, 747658, Control_c, 0, 67, 61
1, 747672, Control_c, 0, 64, 46
1, 747672, Control_c, 0, 67, 66
1, 747687, Control_c, 0, 64, 38
1, 747687, Control_c, 0, 67, 69
1, 747702, Control_c, 0, 64, 43
1, 747702, Control_c, 0, 67, 84
1, 747716, Control_c, 0, 64, 59
1, 747716, Control_c, 0, 67, 124
1, 747731, Control_c, 0, 64, 71
1, 747731, Control_c, 0, 67, 127
1, 747738, Note_off_c, 0, 44, 63
1, 747746, Control_c, 0, 64, 90
1, 747761, Control_c, 0, 64, 127
1, 747779, Note_off_c, 0, 56, 63
1, 748196, Note_on_c, 0, 80, 47
1, 748271, Note_off_c, 0, 80, 63
1, 748655, Note_off_c, 0, 69, 53
1, 748702, Note_off_c, 0, 78, 56
1, 748720, Note_off_c, 0, 75, 61
1, 749361, Note_on_c, 0, 78, 80
1, 749362, Note_on_c, 0, 75, 81
1, 749368, Note_on_c, 0, 69, 75
1, 749393, Control_c, 0, 64, 87
1, 749407, Control_c, 0, 64, 68
1, 749422, Control_c, 0, 64, 61
1, 749437, Control_c, 0, 64, 63
1, 749451, Control_c, 0, 64, 73
1, 749466, Control_c, 0, 64, 109
1, 749481, Control_c, 0, 64, 127
1, 749520, Note_off_c, 0, 69, 62
1, 749556, Control_c, 0, 67, 118
1, 749560, Note_off_c, 0, 75, 64
1, 749570, Control_c, 0, 67, 105
1, 749572, Note_off_c, 0, 78, 57
1, 749585, Control_c, 0, 67, 84
1, 749600, Control_c, 0, 67, 64
1, 749622, Control_c, 0, 67, 49
1, 749637, Control_c, 0, 67, 33
1, 749651, Control_c, 0, 67, 0
1, 750127, Note_on_c, 0, 81, 84
1, 750137, Note_on_c, 0, 73, 68
1, 750137, Note_on_c, 0, 76, 72
1, 750149, Note_on_c, 0, 32, 64
1, 750215, Control_c, 0, 64, 82
1, 750230, Control_c, 0, 64, 60
1, 750245, Control_c, 0, 64, 36
1, 750260, Control_c, 0, 64, 0
1, 750304, Control_c, 0, 64, 30
1, 750319, Control_c, 0, 64, 50
1, 750334, Control_c, 0, 64, 63
1, 750348, Control_c, 0, 64, 72
1, 750363, Control_c, 0, 64, 88
1, 750386, Control_c, 0, 64, 127
1, 750420, Note_off_c, 0, 32, 58
1, 750519, Control_c, 0, 67, 35
1, 750528, Note_off_c, 0, 73, 47
1, 750534, Control_c, 0, 67, 63
1, 750548, Control_c, 0, 67, 89
1, 750563, Control_c, 0, 67, 93
1, 750578, Control_c, 0, 67, 94
1, 750591, Note_off_c, 0, 76, 56
1, 750593, Control_c, 0, 67, 99
1, 750608, Control_c, 0, 67, 114
1, 750623, Control_c, 0, 67, 127
1, 751520, Note_on_c, 0, 80, 80
1, 751525, Note_on_c, 0, 75, 70
1, 751538, Note_on_c, 0, 72, 61
1, 751606, Note_off_c, 0, 81, 57
1, 751624, Note_off_c, 0, 75, 54
1, 751634, Note_off_c, 0, 72, 40
1, 751666, Note_on_c, 0, 44, 52
1, 751672, Note_off_c, 0, 80, 61
1, 751836, Note_on_c, 0, 80, 78
1, 751839, Note_on_c, 0, 75, 75
1, 751844, Note_on_c, 0, 72, 64
1, 751869, Note_on_c, 0, 56, 53
1, 751883, Control_c, 0, 64, 91
1, 751898, Control_c, 0, 64, 66
1, 751913, Control_c, 0, 64, 46
1, 751927, Control_c, 0, 64, 38
1, 751942, Control_c, 0, 64, 39
1, 751957, Control_c, 0, 64, 45
1, 751971, Control_c, 0, 64, 57
1, 751986, Control_c, 0, 64, 67
1, 752001, Control_c, 0, 64, 82
1, 752016, Control_c, 0, 64, 107
1, 752019, Note_off_c, 0, 44, 61
1, 752031, Control_c, 0, 64, 127
1, 752063, Note_off_c, 0, 56, 62
1, 752444, Note_on_c, 0, 68, 32
1, 752486, Note_off_c, 0, 68, 63
1, 754163, Note_on_c, 0, 44, 32
1, 754167, Note_on_c, 0, 32, 37
1, 754234, Control_c, 0, 64, 90
1, 754248, Control_c, 0, 64, 67
1, 754263, Control_c, 0, 64, 54
1, 754278, Control_c, 0, 64, 48
1, 754293, Control_c, 0, 64, 49
1, 754308, Control_c, 0, 64, 53
1, 754322, Control_c, 0, 64, 61
1, 754337, Control_c, 0, 64, 69
1, 754352, Control_c, 0, 64, 88
1, 754367, Control_c, 0, 64, 127
1, 754422, Note_off_c, 0, 32, 42
1, 754468, Note_off_c, 0, 44, 40
1, 755302, Note_on_c, 0, 44, 35
1, 755353, Control_c, 0, 64, 89
1, 755368, Control_c, 0, 64, 65
1, 755382, Control_c, 0, 64, 51
1, 755390, Note_on_c, 0, 56, 37
1, 755397, Control_c, 0, 64, 45
1, 755412, Control_c, 0, 64, 47
1, 755427, Control_c, 0, 64, 52
1, 755442, Control_c, 0, 64, 60
1, 755456, Control_c, 0, 64, 67
1, 755467, Note_off_c, 0, 44, 53
1, 755471, Control_c, 0, 64, 79
1, 755486, Control_c, 0, 64, 97
1, 755501, Control_c, 0, 64, 127
1, 755526, Note_off_c, 0, 56, 59
1, 756009, Note_on_c, 0, 68, 18
1, 756065, Note_off_c, 0, 68, 45
1, 757480, Control_c, 0, 64, 108
1, 757495, Control_c, 0, 64, 95
1, 757510, Control_c, 0, 64, 85
1, 757525, Control_c, 0, 64, 78
1, 757539, Control_c, 0, 64, 71
1, 757554, Control_c, 0, 64, 64
1, 757569, Control_c, 0, 64, 59
1, 757583, Control_c, 0, 64, 56
1, 757598, Control_c, 0, 64, 55
1, 757628, Control_c, 0, 64, 56
1, 757643, Control_c, 0, 64, 59
1, 757658, Control_c, 0, 64, 62
1, 757673, Control_c, 0, 64, 66
1, 757687, Control_c, 0, 64, 72
1, 757702, Control_c, 0, 64, 83
1, 757717, Control_c, 0, 64, 101
1, 757732, Control_c, 0, 64, 127
1, 757830, Note_off_c, 0, 75, 56
1, 757831, Note_off_c, 0, 72, 59
1, 757848, Note_off_c, 0, 80, 50
1, 758440, Note_on_c, 0, 80, 39
1, 758443, Note_on_c, 0, 76, 38
1, 758454, Note_on_c, 0, 32, 34
1, 758464, Note_on_c, 0, 71, 27
1, 758468, Note_on_c, 0, 44, 20
1, 758479, Note_on_c, 0, 68, 7
1, 758635, Control_c, 0, 64, 91
1, 758650, Control_c, 0, 64, 74
1, 758665, Control_c, 0, 64, 63
1, 758680, Control_c, 0, 64, 54
1, 758695, Control_c, 0, 64, 50
1, 758710, Control_c, 0, 64, 49
1, 758739, Control_c, 0, 64, 52
1, 758754, Control_c, 0, 64, 58
1, 758769, Control_c, 0, 64, 64
1, 758784, Control_c, 0, 64, 71
1, 758799, Control_c, 0, 64, 82
1, 758813, Control_c, 0, 64, 95
1, 758829, Control_c, 0, 64, 106
1, 758844, Control_c, 0, 64, 127
1, 758885, Note_off_c, 0, 32, 42
1, 758944, Note_off_c, 0, 44, 40
1, 759474, Control_c, 0, 64, 108
1, 759479, Note_on_c, 0, 47, 37
1, 759488, Control_c, 0, 64, 78
1, 759503, Control_c, 0, 64, 64
1, 759518, Control_c, 0, 64, 56
1, 759548, Control_c, 0, 64, 60
1, 759559, Note_on_c, 0, 59, 35
1, 759562, Control_c, 0, 64, 66
1, 759567, Note_off_c, 0, 47, 55
1, 759577, Control_c, 0, 64, 74
1, 759592, Control_c, 0, 64, 87
1, 759607, Control_c, 0, 64, 99
1, 759622, Control_c, 0, 64, 112
1, 759638, Control_c, 0, 64, 127
1, 759662, Note_off_c, 0, 59, 53
1, 760135, Note_on_c, 0, 88, 54
1, 760194, Note_off_c, 0, 88, 65
1, 760296, Note_off_c, 0, 80, 60
1, 760306, Note_off_c, 0, 76, 63
1, 760341, Note_off_c, 0, 71, 46
1, 760349, Note_off_c, 0, 68, 53
1, 761206, Note_on_c, 0, 76, 65
1, 761235, Note_on_c, 0, 71, 43
1, 761239, Note_on_c, 0, 64, 42
1, 761336, Note_off_c, 0, 76, 62
1, 761343, Note_off_c, 0, 71, 35
1, 761354, Note_off_c, 0, 64, 38
1, 761882, Note_on_c, 0, 75, 63
1, 761907, Note_on_c, 0, 69, 38
1, 761908, Note_on_c, 0, 64, 39
1, 761920, Note_on_c, 0, 33, 38
1, 761921, Note_on_c, 0, 45, 35
1, 762032, Control_c, 0, 64, 105
1, 762046, Control_c, 0, 64, 80
1, 762061, Control_c, 0, 64, 64
1, 762076, Control_c, 0, 64, 51
1, 762091, Control_c, 0, 64, 43
1, 762105, Control_c, 0, 64, 43
1, 762120, Control_c, 0, 64, 47
1, 762135, Control_c, 0, 64, 57
1, 762150, Control_c, 0, 64, 66
1, 762165, Control_c, 0, 64, 75
1, 762180, Control_c, 0, 64, 90
1, 762195, Control_c, 0, 64, 127
1, 762269, Note_off_c, 0, 33, 59
1, 762302, Note_off_c, 0, 45, 40
1, 762848, Note_on_c, 0, 73, 72
1, 762894, Note_off_c, 0, 75, 62
1, 762904, Note_off_c, 0, 69, 60
1, 762918, Note_off_c, 0, 73, 62
1, 762926, Note_off_c, 0, 64, 51
1, 762960, Note_on_c, 0, 49, 44
1, 763134, Note_on_c, 0, 73, 66
1, 763144, Note_on_c, 0, 69, 46
1, 763159, Note_on_c, 0, 61, 47
1, 763159, Control_c, 0, 64, 98
1, 763173, Note_on_c, 0, 64, 40
1, 763174, Control_c, 0, 64, 70
1, 763189, Control_c, 0, 64, 54
1, 763203, Control_c, 0, 64, 47
1, 763218, Control_c, 0, 64, 49
1, 763233, Control_c, 0, 64, 57
1, 763248, Control_c, 0, 64, 67
1, 763255, Note_off_c, 0, 49, 62
1, 763263, Control_c, 0, 64, 80
1, 763277, Control_c, 0, 64, 104
1, 763284, Note_off_c, 0, 61, 63
1, 763292, Control_c, 0, 64, 127
1, 763678, Note_on_c, 0, 85, 52
1, 763706, Note_off_c, 0, 85, 66
1, 764061, Note_off_c, 0, 64, 63
1, 764067, Note_off_c, 0, 69, 64
1, 764085, Note_off_c, 0, 73, 64
1, 764586, Note_on_c, 0, 68, 66
1, 764596, Note_on_c, 0, 73, 73
1, 764603, Note_on_c, 0, 64, 59
1, 764657, Control_c, 0, 64, 105
1, 764672, Control_c, 0, 64, 88
1, 764687, Control_c, 0, 64, 83
1, 764701, Control_c, 0, 64, 86
1, 764716, Control_c, 0, 64, 105
1, 764731, Control_c, 0, 64, 127
1, 764821, Note_off_c, 0, 68, 62
1, 764830, Note_off_c, 0, 73, 61
1, 764848, Note_off_c, 0, 64, 42
1, 765162, Note_on_c, 0, 73, 70
1, 765172, Note_on_c, 0, 66, 63
1, 765179, Note_on_c, 0, 64, 53
1, 765190, Note_on_c, 0, 35, 49
1, 765205, Control_c, 0, 64, 97
1, 765220, Control_c, 0, 64, 73
1, 765235, Control_c, 0, 64, 56
1, 765250, Control_c, 0, 64, 36
1, 765265, Control_c, 0, 64, 0
1, 765339, Control_c, 0, 64, 46
1, 765361, Control_c, 0, 64, 64
1, 765376, Control_c, 0, 64, 81
1, 765391, Control_c, 0, 64, 106
1, 765392, Note_off_c, 0, 35, 56
1, 765405, Control_c, 0, 64, 127
1, 765537, Note_off_c, 0, 64, 64
1, 765572, Note_off_c, 0, 66, 63
1, 766111, Note_on_c, 0, 71, 77
1, 766123, Note_on_c, 0, 63, 66
1, 766154, Note_off_c, 0, 63, 64
1, 766161, Note_off_c, 0, 73, 61
1, 766174, Note_off_c, 0, 71, 60
1, 766204, Note_on_c, 0, 47, 53
1, 766392, Control_c, 0, 64, 112
1, 766405, Note_on_c, 0, 59, 56
1, 766405, Note_on_c, 0, 66, 64
1, 766407, Note_on_c, 0, 71, 69
1, 766407, Control_c, 0, 64, 74
1, 766409, Note_on_c, 0, 63, 60
1, 766422, Control_c, 0, 64, 55
1, 766436, Control_c, 0, 64, 38
1, 766451, Control_c, 0, 64, 36
1, 766465, Control_c, 0, 64, 43
1, 766480, Control_c, 0, 64, 56
1, 766495, Control_c, 0, 64, 68
1, 766506, Note_off_c, 0, 47, 63
1, 766510, Control_c, 0, 64, 81
1, 766525, Control_c, 0, 64, 110
1, 766526, Note_off_c, 0, 59, 63
1, 766539, Control_c, 0, 64, 127
1, 766962, Note_on_c, 0, 83, 51
1, 767026, Note_off_c, 0, 83, 61
1, 767226, Note_off_c, 0, 66, 55
1, 767270, Note_off_c, 0, 63, 55
1, 767904, Control_c, 0, 64, 88
1, 767907, Note_on_c, 0, 61, 58
1, 767907, Note_on_c, 0, 69, 69
1, 767914, Note_on_c, 0, 64, 60
1, 767918, Control_c, 0, 64, 70
1, 767933, Control_c, 0, 64, 64
1, 767948, Control_c, 0, 64, 64
1, 767963, Control_c, 0, 64, 69
1, 767978, Control_c, 0, 64, 81
1, 767992, Control_c, 0, 64, 106
1, 768007, Control_c, 0, 64, 127
1, 768033, Note_off_c, 0, 71, 60
1, 768066, Note_off_c, 0, 69, 63
1, 768072, Note_off_c, 0, 64, 64
1, 768079, Note_off_c, 0, 61, 58
1, 768500, Note_on_c, 0, 68, 63
1, 768506, Note_on_c, 0, 59, 55
1, 768545, Note_on_c, 0, 40, 44
1, 768546, Note_on_c, 0, 64, 34
1, 768579, Control_c, 0, 64, 91
1, 768594, Control_c, 0, 64, 73
1, 768609, Control_c, 0, 64, 60
1, 768623, Control_c, 0, 64, 46
1, 768638, Control_c, 0, 64, 32
1, 768653, Control_c, 0, 64, 0
1, 768713, Control_c, 0, 64, 36
1, 768728, Control_c, 0, 64, 50
1, 768742, Control_c, 0, 64, 63
1, 768757, Control_c, 0, 64, 68
1, 768772, Control_c, 0, 64, 73
1, 768787, Control_c, 0, 64, 79
1, 768802, Control_c, 0, 64, 90
1, 768816, Control_c, 0, 64, 120
1, 768831, Control_c, 0, 64, 127
1, 768930, Note_off_c, 0, 59, 56
1, 768940, Note_off_c, 0, 68, 51
1, 768981, Note_off_c, 0, 64, 40
1, 769379, Note_on_c, 0, 47, 42
1, 769551, Control_c, 0, 64, 110
1, 769565, Control_c, 0, 64, 74
1, 769579, Note_on_c, 0, 64, 49
1, 769580, Control_c, 0, 64, 55
1, 769584, Note_on_c, 0, 52, 40
1, 769584, Note_on_c, 0, 56, 40
1, 769593, Note_on_c, 0, 59, 27
1, 769595, Control_c, 0, 64, 43
1, 769610, Control_c, 0, 64, 43
1, 769624, Note_off_c, 0, 47, 34
1, 769625, Control_c, 0, 64, 51
1, 769639, Control_c, 0, 64, 62
1, 769654, Control_c, 0, 64, 72
1, 769665, Note_off_c, 0, 59, 0
1, 769665, Note_on_c, 0, 59, 3
1, 769666, Note_off_c, 0, 40, 60
1, 769669, Control_c, 0, 64, 84
1, 769682, Note_off_c, 0, 52, 60
1, 769684, Control_c, 0, 64, 96
1, 769698, Control_c, 0, 64, 109
1, 769713, Control_c, 0, 64, 127
1, 770154, Note_on_c, 0, 76, 39
1, 770198, Note_off_c, 0, 76, 61
1, 770346, Note_off_c, 0, 56, 39
1, 770577, Note_off_c, 0, 59, 42
1, 770715, Note_off_c, 0, 64, 62
1, 771335, Control_c, 0, 64, 108
1, 771350, Control_c, 0, 64, 100
1, 771365, Control_c, 0, 64, 94
1, 771380, Control_c, 0, 64, 90
1, 771395, Control_c, 0, 64, 84
1, 771409, Control_c, 0, 64, 80
1, 771424, Control_c, 0, 64, 77
1, 771439, Control_c, 0, 64, 74
1, 771454, Control_c, 0, 64, 71
1, 771468, Control_c, 0, 64, 69
1, 771483, Control_c, 0, 64, 68
1, 771498, Control_c, 0, 64, 66
1, 771513, Control_c, 0, 64, 64
1, 771528, Control_c, 0, 64, 63
1, 771543, Control_c, 0, 64, 62
1, 771558, Control_c, 0, 64, 61
1, 771573, Control_c, 0, 64, 58
1, 771587, Control_c, 0, 64, 55
1, 771602, Control_c, 0, 64, 52
1, 771618, Control_c, 0, 64, 50
1, 771632, Control_c, 0, 64, 47
1, 771647, Control_c, 0, 64, 43
1, 771662, Control_c, 0, 64, 40
1, 771677, Control_c, 0, 64, 39
1, 771751, Control_c, 0, 64, 39
1, 771781, Control_c, 0, 64, 40
1, 771796, Control_c, 0, 64, 41
1, 771811, Control_c, 0, 64, 42
1, 771826, Control_c, 0, 64, 44
1, 771840, Control_c, 0, 64, 48
1, 771853, Note_on_c, 0, 68, 58
1, 771855, Control_c, 0, 64, 54
1, 771870, Control_c, 0, 64, 60
1, 771880, Note_on_c, 0, 64, 37
1, 771883, Note_on_c, 0, 40, 32
1, 771884, Control_c, 0, 64, 66
1, 771899, Control_c, 0, 64, 72
1, 771914, Control_c, 0, 64, 78
1, 771929, Control_c, 0, 64, 84
1, 771944, Control_c, 0, 64, 92
1, 771956, Note_off_c, 0, 40, 51
1, 771958, Control_c, 0, 64, 102
1, 771973, Control_c, 0, 64, 127
1, 772737, Control_c, 0, 64, 86
1, 772747, Note_on_c, 0, 47, 39
1, 772752, Control_c, 0, 64, 66
1, 772767, Control_c, 0, 64, 53
1, 772781, Control_c, 0, 64, 51
1, 772796, Control_c, 0, 64, 54
1, 772809, Note_off_c, 0, 47, 51
1, 772811, Control_c, 0, 64, 63
1, 772821, Note_on_c, 0, 59, 44
1, 772826, Control_c, 0, 64, 74
1, 772848, Control_c, 0, 64, 90
1, 772863, Control_c, 0, 64, 117
1, 772871, Note_off_c, 0, 59, 62
1, 772878, Control_c, 0, 64, 127
1, 773241, Note_on_c, 0, 71, 46
1, 773270, Note_off_c, 0, 71, 58
1, 773292, Note_off_c, 0, 68, 62
1, 773325, Note_off_c, 0, 64, 40
1, 773352, Control_c, 0, 67, 113
1, 773367, Control_c, 0, 67, 90
1, 773382, Control_c, 0, 67, 70
1, 773397, Control_c, 0, 67, 56
1, 773412, Control_c, 0, 67, 44
1, 773427, Control_c, 0, 67, 0
1, 773765, Note_on_c, 0, 68, 65
1, 773789, Note_on_c, 0, 64, 42
1, 773804, Control_c, 0, 67, 39
1, 773819, Control_c, 0, 67, 60
1, 773834, Control_c, 0, 67, 65
1, 773849, Control_c, 0, 67, 64
1, 773863, Control_c, 0, 67, 65
1, 773878, Control_c, 0, 67, 70
1, 773893, Control_c, 0, 67, 84
1, 773908, Control_c, 0, 67, 102
1, 773923, Control_c, 0, 67, 109
1, 773937, Control_c, 0, 67, 112
1, 773952, Control_c, 0, 67, 121
1, 773967, Control_c, 0, 67, 127
1, 774101, Control_c, 0, 64, 99
1, 774116, Control_c, 0, 64, 79
1, 774131, Control_c, 0, 64, 68
1, 774146, Control_c, 0, 64, 62
1, 774160, Control_c, 0, 64, 63
1, 774175, Control_c, 0, 64, 67
1, 774190, Control_c, 0, 64, 78
1, 774205, Control_c, 0, 64, 106
1, 774220, Control_c, 0, 64, 127
1, 774278, Note_off_c, 0, 64, 63
1, 774604, Note_off_c, 0, 68, 30
1, 774663, Note_on_c, 0, 66, 55
1, 774672, Note_on_c, 0, 63, 49
1, 774738, Note_off_c, 0, 63, 53
1, 774763, Note_off_c, 0, 66, 51
1, 774944, Note_on_c, 0, 66, 44
1, 774951, Note_on_c, 0, 63, 50
1, 774972, Note_on_c, 0, 40, 39
1, 775057, Control_c, 0, 64, 112
1, 775080, Control_c, 0, 64, 86
1, 775095, Control_c, 0, 64, 68
1, 775109, Control_c, 0, 64, 53
1, 775124, Control_c, 0, 64, 39
1, 775139, Control_c, 0, 64, 29
1, 775154, Control_c, 0, 64, 0
1, 775183, Control_c, 0, 64, 33
1, 775198, Control_c, 0, 64, 46
1, 775213, Control_c, 0, 64, 58
1, 775227, Control_c, 0, 64, 67
1, 775242, Control_c, 0, 64, 76
1, 775257, Control_c, 0, 64, 84
1, 775272, Control_c, 0, 64, 91
1, 775287, Control_c, 0, 64, 103
1, 775298, Note_off_c, 0, 40, 54
1, 775302, Control_c, 0, 64, 127
1, 775895, Note_on_c, 0, 47, 44
1, 775919, Control_c, 0, 64, 96
1, 775933, Control_c, 0, 64, 70
1, 775948, Control_c, 0, 64, 55
1, 775963, Control_c, 0, 64, 50
1, 775977, Control_c, 0, 64, 56
1, 775990, Note_on_c, 0, 59, 46
1, 775992, Control_c, 0, 64, 65
1, 775995, Note_off_c, 0, 47, 57
1, 776007, Control_c, 0, 64, 82
1, 776022, Control_c, 0, 64, 127
1, 776038, Note_off_c, 0, 59, 62
1, 776413, Note_on_c, 0, 71, 52
1, 776445, Note_off_c, 0, 71, 64
1, 776467, Control_c, 0, 67, 108
1, 776469, Note_off_c, 0, 66, 62
1, 776474, Note_off_c, 0, 63, 56
1, 776482, Control_c, 0, 67, 83
1, 776497, Control_c, 0, 67, 53
1, 776512, Control_c, 0, 67, 0
1, 776943, Note_on_c, 0, 66, 64
1, 776952, Note_on_c, 0, 63, 57
1, 777037, Control_c, 0, 67, 34
1, 777051, Control_c, 0, 67, 62
1, 777066, Control_c, 0, 67, 68
1, 777081, Control_c, 0, 67, 69
1, 777096, Control_c, 0, 67, 73
1, 777111, Control_c, 0, 67, 94
1, 777126, Control_c, 0, 67, 123
1, 777141, Control_c, 0, 67, 127
1, 777356, Control_c, 0, 64, 101
1, 777371, Control_c, 0, 64, 79
1, 777385, Control_c, 0, 64, 65
1, 777400, Control_c, 0, 64, 56
1, 777415, Control_c, 0, 64, 52
1, 777430, Control_c, 0, 64, 52
1, 777445, Control_c, 0, 64, 55
1, 777460, Control_c, 0, 64, 62
1, 777475, Control_c, 0, 64, 73
1, 777490, Control_c, 0, 64, 91
1, 777504, Control_c, 0, 64, 127
1, 777877, Note_off_c, 0, 66, 35
1, 778095, Note_on_c, 0, 69, 67
1, 778107, Note_on_c, 0, 61, 53
1, 778120, Note_on_c, 0, 40, 41
1, 778208, Control_c, 0, 64, 96
1, 778223, Control_c, 0, 64, 75
1, 778238, Control_c, 0, 64, 61
1, 778253, Control_c, 0, 64, 44
1, 778258, Note_off_c, 0, 63, 11
1, 778268, Control_c, 0, 64, 0
1, 778327, Control_c, 0, 64, 40
1, 778342, Control_c, 0, 64, 57
1, 778357, Control_c, 0, 64, 68
1, 778372, Control_c, 0, 64, 77
1, 778386, Control_c, 0, 64, 87
1, 778401, Control_c, 0, 64, 94
1, 778411, Note_off_c, 0, 40, 51
1, 778417, Control_c, 0, 64, 105
1, 778432, Control_c, 0, 64, 127
1, 779057, Note_on_c, 0, 47, 46
1, 779091, Control_c, 0, 64, 86
1, 779106, Control_c, 0, 64, 64
1, 779121, Control_c, 0, 64, 49
1, 779136, Control_c, 0, 64, 48
1, 779138, Note_on_c, 0, 59, 57
1, 779149, Note_off_c, 0, 47, 59
1, 779150, Control_c, 0, 64, 59
1, 779165, Control_c, 0, 64, 71
1, 779177, Note_off_c, 0, 59, 65
1, 779180, Control_c, 0, 64, 100
1, 779195, Control_c, 0, 64, 127
1, 779580, Note_on_c, 0, 71, 56
1, 779618, Note_off_c, 0, 71, 62
1, 779649, Note_off_c, 0, 69, 57
1, 779663, Note_off_c, 0, 61, 63
1, 779722, Control_c, 0, 67, 118
1, 779737, Control_c, 0, 67, 99
1, 779752, Control_c, 0, 67, 88
1, 779767, Control_c, 0, 67, 86
1, 779811, Control_c, 0, 67, 87
1, 779825, Control_c, 0, 67, 91
1, 779840, Control_c, 0, 67, 95
1, 779855, Control_c, 0, 67, 99
1, 779870, Control_c, 0, 67, 101
1, 779885, Control_c, 0, 67, 105
1, 779899, Control_c, 0, 67, 111
1, 779914, Control_c, 0, 67, 116
1, 779929, Control_c, 0, 67, 119
1, 779944, Control_c, 0, 67, 121
1, 779959, Control_c, 0, 67, 127
1, 780105, Note_on_c, 0, 69, 69
1, 780116, Note_on_c, 0, 63, 46
1, 780255, Control_c, 0, 64, 104
1, 780270, Control_c, 0, 64, 74
1, 780285, Control_c, 0, 64, 58
1, 780299, Control_c, 0, 64, 47
1, 780314, Control_c, 0, 64, 46
1, 780336, Control_c, 0, 64, 53
1, 780351, Control_c, 0, 64, 63
1, 780363, Note_on_c, 0, 66, 56
1, 780366, Control_c, 0, 64, 78
1, 780381, Control_c, 0, 64, 101
1, 780396, Control_c, 0, 64, 127
1, 780434, Note_off_c, 0, 63, 52
1, 780539, Note_off_c, 0, 66, 62
1, 780584, Note_on_c, 0, 64, 54
1, 780587, Note_on_c, 0, 68, 70
1, 780712, Note_off_c, 0, 69, 48
1, 780724, Note_off_c, 0, 64, 37
1, 780801, Note_on_c, 0, 66, 71
1, 780808, Note_on_c, 0, 63, 59
1, 780843, Note_off_c, 0, 68, 61
1, 781125, Note_off_c, 0, 63, 29
1, 781132, Note_on_c, 0, 68, 62
1, 781153, Note_on_c, 0, 64, 51
1, 781159, Note_on_c, 0, 40, 42
1, 781173, Control_c, 0, 64, 118
1, 781188, Control_c, 0, 64, 95
1, 781204, Control_c, 0, 64, 83
1, 781219, Control_c, 0, 64, 73
1, 781227, Note_off_c, 0, 66, 53
1, 781234, Control_c, 0, 64, 64
1, 781249, Control_c, 0, 64, 55
1, 781263, Control_c, 0, 64, 46
1, 781278, Control_c, 0, 64, 29
1, 781293, Control_c, 0, 64, 0
1, 781426, Control_c, 0, 64, 35
1, 781441, Control_c, 0, 64, 50
1, 781456, Control_c, 0, 64, 60
1, 781470, Control_c, 0, 64, 63
1, 781485, Control_c, 0, 64, 68
1, 781496, Note_off_c, 0, 40, 60
1, 781500, Control_c, 0, 64, 75
1, 781515, Control_c, 0, 64, 91
1, 781530, Control_c, 0, 64, 127
1, 782109, Note_on_c, 0, 47, 44
1, 782116, Control_c, 0, 64, 80
1, 782131, Control_c, 0, 64, 60
1, 782146, Control_c, 0, 64, 46
1, 782161, Control_c, 0, 64, 50
1, 782176, Control_c, 0, 64, 62
1, 782179, Note_on_c, 0, 59, 55
1, 782187, Note_off_c, 0, 47, 61
1, 782190, Control_c, 0, 64, 79
1, 782205, Control_c, 0, 64, 127
1, 782212, Note_off_c, 0, 59, 65
1, 782617, Note_on_c, 0, 71, 54
1, 782645, Note_off_c, 0, 71, 61
1, 782692, Note_off_c, 0, 68, 61
1, 782702, Note_off_c, 0, 64, 57
1, 782745, Control_c, 0, 67, 106
1, 782760, Control_c, 0, 67, 90
1, 782775, Control_c, 0, 67, 76
1, 782790, Control_c, 0, 67, 57
1, 782806, Control_c, 0, 67, 0
1, 783174, Note_on_c, 0, 68, 74
1, 783195, Note_on_c, 0, 64, 53
1, 783538, Control_c, 0, 64, 87
1, 783553, Control_c, 0, 64, 67
1, 783553, Control_c, 0, 67, 37
1, 783567, Control_c, 0, 64, 55
1, 783567, Control_c, 0, 67, 63
1, 783582, Control_c, 0, 64, 50
1, 783582, Control_c, 0, 67, 93
1, 783597, Control_c, 0, 64, 52
1, 783597, Control_c, 0, 67, 97
1, 783612, Control_c, 0, 64, 58
1, 783627, Control_c, 0, 64, 68
1, 783627, Control_c, 0, 67, 99
1, 783642, Control_c, 0, 64, 85
1, 783642, Control_c, 0, 67, 110
1, 783657, Control_c, 0, 64, 127
1, 783657, Control_c, 0, 67, 127
1, 783837, Note_off_c, 0, 64, 57
1, 783854, Note_off_c, 0, 68, 59
1, 784345, Note_on_c, 0, 71, 73
1, 784348, Note_on_c, 0, 68, 60
1, 784366, Note_on_c, 0, 62, 47
1, 784403, Note_on_c, 0, 40, 37
1, 784569, Control_c, 0, 64, 86
1, 784584, Control_c, 0, 64, 67
1, 784599, Control_c, 0, 64, 56
1, 784613, Control_c, 0, 64, 51
1, 784628, Control_c, 0, 64, 50
1, 784658, Control_c, 0, 64, 55
1, 784673, Control_c, 0, 64, 62
1, 784687, Control_c, 0, 64, 71
1, 784702, Control_c, 0, 64, 91
1, 784717, Control_c, 0, 64, 127
1, 784776, Note_off_c, 0, 40, 58
1, 785428, Note_on_c, 0, 52, 54
1, 785466, Control_c, 0, 64, 87
1, 785481, Control_c, 0, 64, 66
1, 785487, Note_on_c, 0, 64, 64
1, 785496, Control_c, 0, 64, 57
1, 785511, Control_c, 0, 64, 59
1, 785526, Control_c, 0, 64, 67
1, 785541, Control_c, 0, 64, 77
1, 785547, Note_off_c, 0, 52, 62
1, 785556, Control_c, 0, 64, 127
1, 785583, Note_off_c, 0, 64, 62
1, 785815, Control_c, 0, 67, 124
1, 785830, Control_c, 0, 67, 101
1, 785844, Control_c, 0, 67, 75
1, 785859, Control_c, 0, 67, 53
1, 785874, Control_c, 0, 67, 37
1, 785888, Control_c, 0, 67, 0
1, 785955, Note_on_c, 0, 76, 65
1, 785982, Note_off_c, 0, 76, 67
1, 786067, Note_off_c, 0, 68, 37
1, 786078, Note_off_c, 0, 71, 35
1, 786082, Note_off_c, 0, 62, 51
1, 786552, Note_on_c, 0, 71, 72
1, 786559, Note_on_c, 0, 68, 59
1, 786562, Note_on_c, 0, 62, 51
1, 786816, Control_c, 0, 64, 113
1, 786816, Control_c, 0, 67, 45
1, 786831, Control_c, 0, 64, 85
1, 786831, Control_c, 0, 67, 60
1, 786846, Control_c, 0, 64, 67
1, 786846, Control_c, 0, 67, 59
1, 786861, Control_c, 0, 64, 53
1, 786861, Control_c, 0, 67, 60
1, 786876, Control_c, 0, 64, 42
1, 786876, Control_c, 0, 67, 67
1, 786890, Control_c, 0, 64, 42
1, 786890, Control_c, 0, 67, 87
1, 786905, Control_c, 0, 64, 48
1, 786905, Control_c, 0, 67, 110
1, 786920, Control_c, 0, 64, 60
1, 786934, Control_c, 0, 64, 71
1, 786949, Control_c, 0, 64, 86
1, 786949, Control_c, 0, 67, 114
1, 786964, Control_c, 0, 64, 127
1, 786964, Control_c, 0, 67, 127
1, 787064, Note_off_c, 0, 68, 63
1, 787070, Note_off_c, 0, 62, 60
1, 787538, Note_on_c, 0, 69, 69
1, 787545, Note_on_c, 0, 61, 57
1, 787558, Note_off_c, 0, 71, 33
1, 787598, Note_off_c, 0, 61, 53
1, 787631, Note_off_c, 0, 69, 61
1, 787848, Note_on_c, 0, 69, 62
1, 787867, Note_on_c, 0, 40, 42
1, 787868, Note_on_c, 0, 61, 48
1, 787986, Control_c, 0, 64, 93
1, 788001, Control_c, 0, 64, 74
1, 788016, Control_c, 0, 64, 60
1, 788030, Control_c, 0, 64, 44
1, 788045, Control_c, 0, 64, 32
1, 788060, Control_c, 0, 64, 0
1, 788090, Control_c, 0, 64, 33
1, 788105, Control_c, 0, 64, 46
1, 788120, Control_c, 0, 64, 61
1, 788134, Control_c, 0, 64, 69
1, 788150, Control_c, 0, 64, 75
1, 788164, Control_c, 0, 64, 81
1, 788179, Control_c, 0, 64, 89
1, 788194, Control_c, 0, 64, 107
1, 788209, Control_c, 0, 64, 127
1, 788238, Note_off_c, 0, 40, 41
1, 788930, Note_on_c, 0, 52, 43
1, 788943, Control_c, 0, 64, 82
1, 788958, Control_c, 0, 64, 64
1, 788973, Control_c, 0, 64, 56
1, 788987, Control_c, 0, 64, 60
1, 788993, Note_on_c, 0, 64, 60
1, 789002, Control_c, 0, 64, 69
1, 789012, Note_off_c, 0, 52, 59
1, 789017, Control_c, 0, 64, 101
1, 789028, Note_off_c, 0, 64, 66
1, 789032, Control_c, 0, 64, 127
1, 789107, Note_off_c, 0, 69, 61
1, 789160, Note_off_c, 0, 61, 57
1, 789509, Note_on_c, 0, 76, 53
1, 789518, Note_on_c, 0, 69, 63
1, 789532, Note_on_c, 0, 61, 46
1, 789542, Note_off_c, 0, 76, 66
1, 789633, Control_c, 0, 67, 122
1, 789648, Control_c, 0, 67, 106
1, 789663, Control_c, 0, 67, 87
1, 789678, Control_c, 0, 67, 76
1, 789684, Note_off_c, 0, 69, 53
1, 789692, Control_c, 0, 67, 72
1, 789701, Note_off_c, 0, 61, 26
1, 789707, Control_c, 0, 67, 63
1, 789722, Control_c, 0, 67, 46
1, 789736, Control_c, 0, 67, 0
1, 789956, Note_on_c, 0, 69, 77
1, 789982, Note_on_c, 0, 61, 53
1, 790071, Control_c, 0, 64, 115
1, 790086, Control_c, 0, 64, 79
1, 790101, Control_c, 0, 64, 64
1, 790115, Control_c, 0, 64, 60
1, 790130, Control_c, 0, 64, 63
1, 790145, Control_c, 0, 64, 74
1, 790159, Control_c, 0, 64, 127
1, 790261, Note_off_c, 0, 69, 61
1, 790272, Note_off_c, 0, 61, 58
1, 790447, Note_on_c, 0, 69, 82
1, 790462, Note_on_c, 0, 61, 62
1, 790510, Note_off_c, 0, 61, 59
1, 790579, Note_off_c, 0, 69, 60
1, 791080, Note_on_c, 0, 73, 70
1, 791092, Note_on_c, 0, 69, 56
1, 791118, Note_on_c, 0, 63, 45
1, 791129, Note_on_c, 0, 40, 28
1, 791172, Note_off_c, 0, 63, 0
1, 791172, Note_on_c, 0, 63, 22
1, 791249, Control_c, 0, 64, 100
1, 791263, Control_c, 0, 64, 77
1, 791278, Control_c, 0, 64, 59
1, 791293, Control_c, 0, 64, 45
1, 791293, Control_c, 0, 67, 39
1, 791307, Control_c, 0, 64, 35
1, 791307, Control_c, 0, 67, 67
1, 791322, Control_c, 0, 64, 31
1, 791322, Control_c, 0, 67, 82
1, 791337, Control_c, 0, 67, 82
1, 791352, Control_c, 0, 64, 37
1, 791352, Control_c, 0, 67, 82
1, 791367, Control_c, 0, 64, 49
1, 791367, Control_c, 0, 67, 86
1, 791381, Control_c, 0, 64, 64
1, 791381, Control_c, 0, 67, 99
1, 791396, Control_c, 0, 64, 78
1, 791396, Control_c, 0, 67, 127
1, 791411, Control_c, 0, 64, 105
1, 791426, Control_c, 0, 64, 127
1, 791518, Note_off_c, 0, 40, 40
1, 792149, Note_on_c, 0, 52, 43
1, 792191, Control_c, 0, 64, 91
1, 792205, Control_c, 0, 64, 68
1, 792220, Control_c, 0, 64, 61
1, 792231, Note_on_c, 0, 64, 51
1, 792235, Control_c, 0, 64, 62
1, 792249, Control_c, 0, 64, 67
1, 792264, Control_c, 0, 64, 79
1, 792269, Note_off_c, 0, 52, 56
1, 792279, Control_c, 0, 64, 108
1, 792294, Control_c, 0, 64, 127
1, 792315, Note_off_c, 0, 64, 64
1, 792683, Note_on_c, 0, 76, 60
1, 792718, Note_off_c, 0, 76, 65
1, 792778, Note_off_c, 0, 69, 62
1, 792793, Note_off_c, 0, 63, 54
1, 792796, Note_off_c, 0, 73, 61
1, 793322, Note_on_c, 0, 73, 63
1, 793333, Note_on_c, 0, 69, 59
1, 793339, Note_on_c, 0, 63, 47
1, 793525, Control_c, 0, 64, 97
1, 793540, Control_c, 0, 64, 76
1, 793555, Control_c, 0, 64, 63
1, 793569, Control_c, 0, 64, 52
1, 793584, Control_c, 0, 64, 44
1, 793599, Control_c, 0, 64, 40
1, 793614, Control_c, 0, 64, 38
1, 793629, Control_c, 0, 64, 39
1, 793643, Control_c, 0, 64, 46
1, 793658, Control_c, 0, 64, 57
1, 793673, Control_c, 0, 64, 67
1, 793688, Control_c, 0, 64, 77
1, 793703, Control_c, 0, 64, 88
1, 793718, Control_c, 0, 64, 96
1, 793733, Control_c, 0, 64, 112
1, 793747, Control_c, 0, 64, 127
1, 793786, Note_off_c, 0, 69, 57
1, 793848, Note_off_c, 0, 63, 50
1, 793863, Note_off_c, 0, 73, 55
1, 794434, Note_on_c, 0, 71, 50
1, 794448, Note_on_c, 0, 68, 43
1, 794457, Note_on_c, 0, 64, 38
1, 794535, Note_off_c, 0, 64, 46
1, 794555, Note_off_c, 0, 68, 44
1, 794558, Note_off_c, 0, 71, 54
1, 794747, Note_on_c, 0, 68, 42
1, 794749, Note_on_c, 0, 71, 44
1, 794756, Note_on_c, 0, 64, 40
1, 794764, Note_on_c, 0, 40, 39
1, 794875, Control_c, 0, 64, 92
1, 794891, Control_c, 0, 64, 72
1, 794905, Control_c, 0, 64, 56
1, 794920, Control_c, 0, 64, 40
1, 794935, Control_c, 0, 64, 0
1, 794979, Control_c, 0, 64, 33
1, 794994, Control_c, 0, 64, 47
1, 795009, Control_c, 0, 64, 60
1, 795023, Control_c, 0, 64, 70
1, 795038, Control_c, 0, 64, 77
1, 795053, Control_c, 0, 64, 82
1, 795068, Control_c, 0, 64, 86
1, 795075, Note_off_c, 0, 40, 58
1, 795083, Control_c, 0, 64, 95
1, 795098, Control_c, 0, 64, 123
1, 795113, Control_c, 0, 64, 127
1, 795336, Note_off_c, 0, 64, 62
1, 795860, Control_c, 0, 64, 111
1, 795874, Note_on_c, 0, 52, 40
1, 795875, Control_c, 0, 64, 74
1, 795890, Control_c, 0, 64, 60
1, 795904, Control_c, 0, 64, 54
1, 795919, Control_c, 0, 64, 58
1, 795934, Control_c, 0, 64, 67
1, 795949, Control_c, 0, 64, 81
1, 795964, Control_c, 0, 64, 114
1, 795966, Note_on_c, 0, 64, 47
1, 795971, Note_off_c, 0, 52, 61
1, 795978, Control_c, 0, 64, 127
1, 796020, Note_off_c, 0, 64, 63
1, 796513, Note_on_c, 0, 76, 34
1, 796558, Note_off_c, 0, 76, 47
1, 796666, Note_off_c, 0, 71, 44
1, 796699, Note_off_c, 0, 68, 32
1, 797780, Note_on_c, 0, 71, 48
1, 797792, Note_on_c, 0, 68, 40
1, 797796, Note_on_c, 0, 64, 42
1, 797841, Note_off_c, 0, 64, 62
1, 797854, Note_off_c, 0, 68, 53
1, 797856, Note_off_c, 0, 71, 61
1, 798512, Note_on_c, 0, 76, 50
1, 798522, Note_on_c, 0, 71, 47
1, 798538, Note_on_c, 0, 35, 40
1, 798543, Note_on_c, 0, 68, 29
1, 798677, Control_c, 0, 64, 108
1, 798691, Control_c, 0, 64, 84
1, 798706, Control_c, 0, 64, 68
1, 798721, Control_c, 0, 64, 57
1, 798736, Control_c, 0, 64, 48
1, 798751, Control_c, 0, 64, 46
1, 798767, Control_c, 0, 64, 47
1, 798782, Control_c, 0, 64, 54
1, 798796, Control_c, 0, 64, 62
1, 798811, Control_c, 0, 64, 70
1, 798826, Control_c, 0, 64, 85
1, 798841, Control_c, 0, 64, 106
1, 798856, Control_c, 0, 64, 127
1, 798947, Note_off_c, 0, 35, 37
1, 799062, Note_off_c, 0, 71, 56
1, 799086, Note_off_c, 0, 68, 42
1, 799736, Note_on_c, 0, 75, 55
1, 799739, Note_on_c, 0, 71, 46
1, 799750, Note_on_c, 0, 66, 37
1, 799825, Note_on_c, 0, 47, 45
1, 799825, Note_off_c, 0, 76, 55
1, 799843, Note_off_c, 0, 66, 55
1, 799872, Note_off_c, 0, 75, 54
1, 799894, Note_off_c, 0, 71, 36
1, 800007, Note_on_c, 0, 59, 50
1, 800010, Note_on_c, 0, 75, 62
1, 800011, Control_c, 0, 64, 101
1, 800021, Note_on_c, 0, 71, 49
1, 800026, Control_c, 0, 64, 72
1, 800039, Note_on_c, 0, 66, 45
1, 800041, Control_c, 0, 64, 58
1, 800056, Control_c, 0, 64, 54
1, 800070, Control_c, 0, 64, 59
1, 800085, Control_c, 0, 64, 67
1, 800097, Note_off_c, 0, 47, 61
1, 800100, Control_c, 0, 64, 86
1, 800115, Control_c, 0, 64, 127
1, 800128, Note_off_c, 0, 59, 63
1, 800547, Note_on_c, 0, 83, 47
1, 800609, Note_off_c, 0, 83, 62
1, 801001, Note_off_c, 0, 75, 56
1, 801051, Note_off_c, 0, 66, 33
1, 801104, Note_off_c, 0, 71, 24
1, 801480, Control_c, 0, 67, 116
1, 801495, Control_c, 0, 67, 95
1, 801510, Control_c, 0, 67, 72
1, 801524, Control_c, 0, 67, 50
1, 801539, Control_c, 0, 67, 0
1, 801661, Note_on_c, 0, 75, 77
1, 801668, Note_on_c, 0, 71, 71
1, 801669, Note_on_c, 0, 66, 61
1, 801748, Note_off_c, 0, 66, 60
1, 801778, Note_off_c, 0, 71, 61
1, 801816, Note_off_c, 0, 75, 60
1, 802315, Note_on_c, 0, 80, 84
1, 802324, Note_on_c, 0, 76, 76
1, 802327, Note_on_c, 0, 71, 70
1, 802333, Note_on_c, 0, 47, 62
1, 802340, Note_on_c, 0, 35, 60
1, 802407, Control_c, 0, 64, 85
1, 802421, Control_c, 0, 64, 63
1, 802436, Control_c, 0, 64, 38
1, 802451, Control_c, 0, 64, 0
1, 802510, Control_c, 0, 64, 47
1, 802525, Control_c, 0, 64, 67
1, 802539, Control_c, 0, 64, 85
1, 802554, Control_c, 0, 64, 127
1, 802589, Note_off_c, 0, 35, 59
1, 802618, Note_off_c, 0, 47, 56
1, 802699, Note_off_c, 0, 76, 59
1, 803483, Note_on_c, 0, 78, 83
1, 803486, Note_on_c, 0, 75, 74
1, 803606, Note_off_c, 0, 80, 56
1, 803633, Note_on_c, 0, 47, 64
1, 803641, Note_off_c, 0, 75, 60
1, 803658, Note_off_c, 0, 78, 58
1, 803683, Note_off_c, 0, 71, 39
1, 803786, Note_on_c, 0, 78, 77
1, 803788, Note_on_c, 0, 75, 76
1, 803790, Note_on_c, 0, 59, 63
1, 803793, Note_on_c, 0, 71, 71
1, 803800, Control_c, 0, 64, 112
1, 803800, Control_c, 0, 67, 65
1, 803815, Control_c, 0, 64, 71
1, 803815, Control_c, 0, 67, 127
1, 803829, Control_c, 0, 64, 43
1, 803844, Control_c, 0, 64, 0
1, 803889, Control_c, 0, 64, 46
1, 803901, Note_off_c, 0, 47, 63
1, 803903, Control_c, 0, 64, 68
1, 803918, Control_c, 0, 64, 121
1, 803931, Note_off_c, 0, 59, 64
1, 803933, Control_c, 0, 64, 127
1, 804291, Note_on_c, 0, 83, 64
1, 804341, Note_off_c, 0, 83, 61
1, 804789, Note_off_c, 0, 71, 61
1, 804795, Note_off_c, 0, 78, 58
1, 804812, Note_off_c, 0, 75, 59
1, 805269, Control_c, 0, 67, 113
1, 805284, Control_c, 0, 67, 102
1, 805298, Control_c, 0, 67, 98
1, 805313, Control_c, 0, 67, 92
1, 805328, Control_c, 0, 67, 80
1, 805343, Control_c, 0, 67, 68
1, 805358, Control_c, 0, 67, 66
1, 805388, Control_c, 0, 67, 65
1, 805403, Control_c, 0, 67, 63
1, 805431, Note_on_c, 0, 80, 85
1, 805442, Note_on_c, 0, 76, 77
1, 805443, Note_on_c, 0, 71, 74
1, 805477, Control_c, 0, 67, 64
1, 805506, Control_c, 0, 64, 86
1, 805506, Control_c, 0, 67, 65
1, 805521, Control_c, 0, 64, 63
1, 805521, Control_c, 0, 67, 68
1, 805536, Control_c, 0, 64, 46
1, 805551, Control_c, 0, 64, 45
1, 805551, Control_c, 0, 67, 67
1, 805565, Control_c, 0, 64, 57
1, 805565, Control_c, 0, 67, 65
1, 805580, Control_c, 0, 64, 71
1, 805580, Control_c, 0, 67, 63
1, 805595, Control_c, 0, 64, 101
1, 805595, Control_c, 0, 67, 60
1, 805609, Control_c, 0, 64, 127
1, 805609, Control_c, 0, 67, 46
1, 805624, Control_c, 0, 67, 0
1, 805683, Note_off_c, 0, 71, 61
1, 805714, Note_off_c, 0, 76, 65
1, 805747, Note_off_c, 0, 80, 60
1, 806199, Note_on_c, 0, 85, 92
1, 806207, Note_on_c, 0, 80, 78
1, 806213, Note_on_c, 0, 76, 78
1, 806221, Note_on_c, 0, 47, 64
1, 806229, Note_on_c, 0, 35, 60
1, 806313, Control_c, 0, 64, 103
1, 806328, Control_c, 0, 64, 74
1, 806343, Control_c, 0, 64, 58
1, 806358, Control_c, 0, 64, 43
1, 806373, Control_c, 0, 64, 33
1, 806387, Control_c, 0, 64, 30
1, 806402, Control_c, 0, 64, 35
1, 806417, Control_c, 0, 64, 51
1, 806431, Control_c, 0, 64, 65
1, 806446, Control_c, 0, 64, 78
1, 806461, Control_c, 0, 64, 101
1, 806476, Control_c, 0, 64, 127
1, 806517, Note_off_c, 0, 35, 52
1, 806536, Note_off_c, 0, 47, 61
1, 806643, Note_off_c, 0, 76, 56
1, 806735, Note_off_c, 0, 80, 60
1, 806766, Control_c, 0, 67, 35
1, 806781, Control_c, 0, 67, 34
1, 806810, Control_c, 0, 67, 37
1, 806825, Control_c, 0, 67, 43
1, 806840, Control_c, 0, 67, 62
1, 806854, Control_c, 0, 67, 64
1, 806884, Control_c, 0, 67, 65
1, 806899, Control_c, 0, 67, 69
1, 806914, Control_c, 0, 67, 78
1, 806929, Control_c, 0, 67, 97
1, 806989, Control_c, 0, 67, 101
1, 807077, Control_c, 0, 67, 104
1, 807107, Control_c, 0, 67, 109
1, 807122, Control_c, 0, 67, 122
1, 807136, Control_c, 0, 67, 127
1, 807472, Note_on_c, 0, 83, 83
1, 807478, Note_on_c, 0, 78, 74
1, 807480, Note_on_c, 0, 75, 72
1, 807552, Note_off_c, 0, 85, 58
1, 807578, Note_off_c, 0, 75, 50
1, 807580, Note_off_c, 0, 83, 58
1, 807582, Note_off_c, 0, 78, 46
1, 807599, Note_on_c, 0, 47, 64
1, 807773, Note_on_c, 0, 83, 81
1, 807776, Note_on_c, 0, 78, 77
1, 807776, Note_on_c, 0, 75, 76
1, 807785, Note_on_c, 0, 59, 69
1, 807796, Control_c, 0, 64, 81
1, 807811, Control_c, 0, 64, 59
1, 807826, Control_c, 0, 64, 44
1, 807841, Control_c, 0, 64, 39
1, 807856, Control_c, 0, 64, 42
1, 807870, Control_c, 0, 64, 53
1, 807885, Control_c, 0, 64, 65
1, 807900, Control_c, 0, 64, 79
1, 807907, Note_off_c, 0, 47, 62
1, 807915, Control_c, 0, 64, 127
1, 807943, Note_off_c, 0, 59, 63
1, 808382, Note_on_c, 0, 71, 49
1, 808408, Note_off_c, 0, 71, 63
1, 809815, Note_on_c, 0, 35, 50
1, 809873, Note_off_c, 0, 35, 62
1, 810862, Note_on_c, 0, 47, 32
1, 810909, Control_c, 0, 64, 87
1, 810924, Control_c, 0, 64, 72
1, 810939, Control_c, 0, 64, 64
1, 810944, Note_on_c, 0, 59, 31
1, 810954, Control_c, 0, 64, 63
1, 810968, Control_c, 0, 64, 66
1, 810983, Control_c, 0, 64, 74
1, 810998, Control_c, 0, 64, 91
1, 811013, Control_c, 0, 64, 127
1, 811040, Note_off_c, 0, 47, 32
1, 811085, Note_off_c, 0, 59, 53
1, 811511, Note_on_c, 0, 71, 36
1, 811562, Note_off_c, 0, 71, 57
1, 811687, Note_off_c, 0, 78, 34
1, 811695, Note_off_c, 0, 75, 31
1, 812851, Note_on_c, 0, 81, 55
1, 812936, Note_off_c, 0, 83, 58
1, 813052, Control_c, 0, 64, 112
1, 813066, Control_c, 0, 64, 106
1, 813081, Control_c, 0, 64, 103
1, 813111, Control_c, 0, 64, 101
1, 813125, Control_c, 0, 64, 99
1, 813141, Control_c, 0, 64, 96
1, 813156, Control_c, 0, 64, 93
1, 813171, Control_c, 0, 64, 89
1, 813186, Control_c, 0, 64, 87
1, 813201, Control_c, 0, 64, 86
1, 813215, Control_c, 0, 64, 84
1, 813230, Control_c, 0, 64, 81
1, 813245, Control_c, 0, 64, 79
1, 813267, Control_c, 0, 64, 77
1, 813282, Control_c, 0, 64, 75
1, 813296, Control_c, 0, 64, 75
1, 813311, Control_c, 0, 64, 74
1, 813326, Control_c, 0, 64, 72
1, 813341, Control_c, 0, 64, 70
1, 813356, Control_c, 0, 64, 68
1, 813371, Control_c, 0, 64, 67
1, 813401, Control_c, 0, 64, 67
1, 813415, Control_c, 0, 64, 65
1, 813430, Control_c, 0, 64, 64
1, 813445, Control_c, 0, 64, 63
1, 813460, Control_c, 0, 64, 63
1, 813490, Control_c, 0, 64, 62
1, 813504, Control_c, 0, 64, 60
1, 813519, Control_c, 0, 64, 58
1, 813534, Control_c, 0, 64, 57
1, 813548, Control_c, 0, 64, 56
1, 813563, Control_c, 0, 64, 56
1, 813578, Control_c, 0, 64, 55
1, 813593, Control_c, 0, 64, 53
1, 813608, Control_c, 0, 64, 53
1, 813667, Control_c, 0, 64, 52
1, 813796, Note_on_c, 0, 80, 48
1, 813811, Note_on_c, 0, 76, 47
1, 813829, Note_on_c, 0, 37, 25
1, 813830, Note_on_c, 0, 68, 20
1, 813955, Note_off_c, 0, 81, 51
1, 814009, Control_c, 0, 64, 53
1, 814031, Control_c, 0, 64, 56
1, 814045, Control_c, 0, 64, 61
1, 814060, Control_c, 0, 64, 67
1, 814075, Control_c, 0, 64, 75
1, 814090, Control_c, 0, 64, 86
1, 814105, Control_c, 0, 64, 96
1, 814119, Control_c, 0, 64, 106
1, 814134, Control_c, 0, 64, 127
1, 814198, Note_off_c, 0, 37, 40
1, 814781, Note_on_c, 0, 49, 37
1, 814840, Control_c, 0, 64, 86
1, 814855, Control_c, 0, 64, 69
1, 814861, Note_on_c, 0, 61, 41
1, 814869, Control_c, 0, 64, 64
1, 814884, Control_c, 0, 64, 66
1, 814899, Control_c, 0, 64, 73
1, 814914, Note_off_c, 0, 49, 60
1, 814914, Control_c, 0, 64, 89
1, 814929, Control_c, 0, 64, 127
1, 814968, Note_off_c, 0, 61, 62
1, 815390, Note_on_c, 0, 73, 42
1, 815439, Note_off_c, 0, 73, 60
1, 815584, Note_off_c, 0, 76, 63
1, 815600, Note_off_c, 0, 80, 61
1, 815651, Note_off_c, 0, 68, 49
1, 816411, Note_on_c, 0, 76, 68
1, 816442, Note_on_c, 0, 64, 44
1, 816444, Note_on_c, 0, 68, 46
1, 816482, Note_off_c, 0, 68, 49
1, 816501, Note_off_c, 0, 76, 63
1, 816502, Note_off_c, 0, 64, 43
1, 816677, Control_c, 0, 67, 124
1, 816692, Control_c, 0, 67, 110
1, 816707, Control_c, 0, 67, 106
1, 816736, Control_c, 0, 67, 104
1, 816751, Control_c, 0, 67, 101
1, 816766, Control_c, 0, 67, 98
1, 816781, Control_c, 0, 67, 90
1, 816811, Control_c, 0, 67, 89
1, 816826, Control_c, 0, 67, 87
1, 816840, Control_c, 0, 67, 86
1, 816944, Control_c, 0, 67, 88
1, 816958, Control_c, 0, 67, 91
1, 817025, Control_c, 0, 67, 93
1, 817040, Control_c, 0, 67, 95
1, 817084, Control_c, 0, 67, 94
1, 817097, Note_on_c, 0, 75, 69
1, 817099, Control_c, 0, 67, 95
1, 817114, Control_c, 0, 67, 97
1, 817119, Note_on_c, 0, 69, 48
1, 817124, Note_on_c, 0, 66, 38
1, 817142, Note_on_c, 0, 30, 31
1, 817157, Note_on_c, 0, 42, 31
1, 817189, Control_c, 0, 67, 100
1, 817263, Control_c, 0, 67, 106
1, 817278, Control_c, 0, 64, 92
1, 817278, Control_c, 0, 67, 108
1, 817293, Control_c, 0, 64, 74
1, 817308, Control_c, 0, 64, 63
1, 817323, Control_c, 0, 64, 52
1, 817337, Control_c, 0, 64, 45
1, 817337, Control_c, 0, 67, 113
1, 817352, Control_c, 0, 64, 42
1, 817352, Control_c, 0, 67, 116
1, 817382, Control_c, 0, 64, 46
1, 817396, Control_c, 0, 64, 58
1, 817411, Control_c, 0, 64, 66
1, 817426, Control_c, 0, 64, 76
1, 817426, Control_c, 0, 67, 120
1, 817441, Control_c, 0, 64, 92
1, 817441, Control_c, 0, 67, 123
1, 817456, Control_c, 0, 64, 127
1, 817485, Control_c, 0, 67, 121
1, 817522, Note_off_c, 0, 30, 39
1, 817529, Control_c, 0, 67, 119
1, 817544, Control_c, 0, 67, 117
1, 817604, Note_off_c, 0, 42, 40
1, 817619, Control_c, 0, 67, 114
1, 817678, Control_c, 0, 67, 117
1, 817752, Control_c, 0, 67, 120
1, 817774, Control_c, 0, 67, 123
1, 817833, Control_c, 0, 67, 125
1, 817863, Control_c, 0, 67, 127
1, 818067, Note_on_c, 0, 73, 75
1, 818140, Note_off_c, 0, 75, 59
1, 818160, Note_off_c, 0, 69, 59
1, 818160, Note_off_c, 0, 66, 45
1, 818169, Note_on_c, 0, 42, 50
1, 818187, Note_off_c, 0, 73, 58
1, 818353, Note_on_c, 0, 73, 70
1, 818367, Note_on_c, 0, 69, 60
1, 818371, Note_on_c, 0, 66, 50
1, 818389, Note_on_c, 0, 54, 44
1, 818398, Control_c, 0, 64, 114
1, 818412, Control_c, 0, 64, 76
1, 818427, Control_c, 0, 64, 54
1, 818442, Control_c, 0, 64, 39
1, 818457, Control_c, 0, 64, 34
1, 818472, Control_c, 0, 64, 35
1, 818481, Note_off_c, 0, 42, 62
1, 818486, Control_c, 0, 64, 45
1, 818501, Control_c, 0, 64, 61
1, 818524, Control_c, 0, 64, 81
1, 818538, Control_c, 0, 64, 127
1, 818547, Note_off_c, 0, 66, 51
1, 818555, Note_off_c, 0, 54, 61
1, 818907, Note_on_c, 0, 66, 58
1, 818976, Note_off_c, 0, 66, 62
1, 819103, Note_off_c, 0, 69, 61
1, 819157, Note_off_c, 0, 73, 55
1, 820009, Note_on_c, 0, 73, 73
1, 820025, Note_on_c, 0, 63, 54
1, 820030, Note_on_c, 0, 69, 63
1, 820051, Control_c, 0, 64, 109
1, 820066, Control_c, 0, 64, 75
1, 820081, Control_c, 0, 64, 62
1, 820096, Control_c, 0, 64, 57
1, 820110, Control_c, 0, 64, 59
1, 820125, Control_c, 0, 64, 64
1, 820140, Control_c, 0, 64, 77
1, 820155, Control_c, 0, 64, 127
1, 820249, Note_off_c, 0, 69, 60
1, 820255, Note_off_c, 0, 63, 56
1, 820273, Control_c, 0, 67, 118
1, 820281, Note_off_c, 0, 73, 58
1, 820288, Control_c, 0, 67, 99
1, 820303, Control_c, 0, 67, 83
1, 820317, Control_c, 0, 67, 73
1, 820333, Control_c, 0, 67, 71
1, 820347, Control_c, 0, 67, 69
1, 820362, Control_c, 0, 67, 65
1, 820377, Control_c, 0, 67, 53
1, 820392, Control_c, 0, 67, 42
1, 820406, Control_c, 0, 67, 33
1, 820421, Control_c, 0, 67, 0
1, 820593, Note_on_c, 0, 73, 75
1, 820606, Note_on_c, 0, 68, 56
1, 820623, Note_on_c, 0, 64, 41
1, 820623, Note_on_c, 0, 44, 46
1, 820631, Note_on_c, 0, 32, 53
1, 820659, Control_c, 0, 64, 103
1, 820673, Control_c, 0, 64, 75
1, 820688, Control_c, 0, 64, 59
1, 820703, Control_c, 0, 64, 43
1, 820718, Control_c, 0, 64, 31
1, 820718, Control_c, 0, 67, 34
1, 820732, Control_c, 0, 64, 28
1, 820732, Control_c, 0, 67, 39
1, 820754, Control_c, 0, 67, 43
1, 820769, Control_c, 0, 64, 33
1, 820769, Control_c, 0, 67, 44
1, 820784, Control_c, 0, 64, 51
1, 820784, Control_c, 0, 67, 45
1, 820799, Control_c, 0, 64, 64
1, 820799, Control_c, 0, 67, 49
1, 820814, Control_c, 0, 64, 75
1, 820814, Control_c, 0, 67, 69
1, 820829, Control_c, 0, 64, 92
1, 820829, Control_c, 0, 67, 110
1, 820844, Control_c, 0, 64, 127
1, 820844, Control_c, 0, 67, 127
1, 820930, Note_off_c, 0, 44, 62
1, 820940, Note_off_c, 0, 32, 38
1, 821503, Note_on_c, 0, 44, 50
1, 821592, Control_c, 0, 64, 93
1, 821607, Control_c, 0, 64, 69
1, 821622, Control_c, 0, 64, 52
1, 821637, Control_c, 0, 64, 39
1, 821638, Note_on_c, 0, 71, 73
1, 821652, Control_c, 0, 64, 37
1, 821652, Note_on_c, 0, 56, 58
1, 821667, Control_c, 0, 64, 42
1, 821667, Note_off_c, 0, 73, 67
1, 821681, Control_c, 0, 64, 58
1, 821696, Control_c, 0, 64, 71
1, 821711, Control_c, 0, 64, 91
1, 821726, Control_c, 0, 64, 127
1, 821732, Note_off_c, 0, 44, 62
1, 821765, Note_off_c, 0, 56, 62
1, 822132, Note_on_c, 0, 80, 56
1, 822182, Note_off_c, 0, 64, 64
1, 822185, Note_off_c, 0, 80, 62
1, 822632, Note_on_c, 0, 60, 70
1, 822775, Note_off_c, 0, 68, 61
1, 822800, Control_c, 0, 64, 115
1, 822815, Control_c, 0, 64, 107
1, 822830, Control_c, 0, 64, 103
1, 822845, Control_c, 0, 64, 98
1, 822860, Control_c, 0, 64, 95
1, 822874, Control_c, 0, 64, 92
1, 822889, Control_c, 0, 64, 90
1, 822904, Control_c, 0, 64, 89
1, 822919, Control_c, 0, 64, 88
1, 822933, Control_c, 0, 64, 86
1, 822948, Control_c, 0, 64, 82
1, 822963, Control_c, 0, 64, 76
1, 822978, Control_c, 0, 64, 72
1, 822993, Control_c, 0, 64, 69
1, 823015, Control_c, 0, 64, 67
1, 823030, Control_c, 0, 64, 66
1, 823045, Control_c, 0, 64, 65
1, 823060, Control_c, 0, 64, 63
1, 823075, Control_c, 0, 64, 61
1, 823089, Control_c, 0, 64, 60
1, 823104, Control_c, 0, 64, 60
1, 823119, Control_c, 0, 64, 58
1, 823133, Control_c, 0, 64, 57
1, 823148, Control_c, 0, 64, 55
1, 823163, Control_c, 0, 64, 53
1, 823178, Control_c, 0, 64, 50
1, 823193, Control_c, 0, 64, 45
1, 823208, Control_c, 0, 64, 39
1, 823220, Note_on_c, 0, 69, 73
1, 823223, Note_on_c, 0, 66, 65
1, 823223, Control_c, 0, 64, 30
1, 823238, Control_c, 0, 64, 0
1, 823282, Control_c, 0, 64, 32
1, 823297, Control_c, 0, 64, 46
1, 823312, Control_c, 0, 64, 59
1, 823326, Control_c, 0, 64, 70
1, 823341, Control_c, 0, 64, 80
1, 823356, Control_c, 0, 64, 93
1, 823370, Note_off_c, 0, 71, 37
1, 823371, Control_c, 0, 64, 107
1, 823386, Control_c, 0, 64, 127
1, 823400, Note_off_c, 0, 69, 62
1, 823419, Note_off_c, 0, 66, 64
1, 823434, Note_off_c, 0, 60, 63
1, 823852, Note_on_c, 0, 68, 62
1, 823855, Note_on_c, 0, 64, 56
1, 823874, Note_on_c, 0, 61, 49
1, 823884, Note_on_c, 0, 37, 39
1, 823912, Control_c, 0, 64, 106
1, 823927, Control_c, 0, 64, 87
1, 823942, Control_c, 0, 64, 72
1, 823956, Control_c, 0, 64, 61
1, 823971, Control_c, 0, 64, 48
1, 823986, Control_c, 0, 64, 33
1, 824001, Control_c, 0, 64, 0
1, 824105, Control_c, 0, 64, 43
1, 824120, Control_c, 0, 64, 55
1, 824135, Control_c, 0, 64, 63
1, 824150, Control_c, 0, 64, 68
1, 824165, Control_c, 0, 64, 73
1, 824179, Control_c, 0, 64, 81
1, 824194, Control_c, 0, 64, 94
1, 824209, Control_c, 0, 64, 117
1, 824224, Control_c, 0, 64, 127
1, 824254, Note_off_c, 0, 61, 48
1, 824303, Note_off_c, 0, 37, 41
1, 824318, Note_off_c, 0, 64, 62
1, 824597, Note_off_c, 0, 68, 61
1, 824765, Note_on_c, 0, 37, 36
1, 824966, Note_on_c, 0, 64, 56
1, 824972, Control_c, 0, 64, 84
1, 824978, Note_on_c, 0, 61, 47
1, 824982, Note_on_c, 0, 56, 41
1, 824987, Control_c, 0, 64, 63
1, 824998, Note_on_c, 0, 49, 29
1, 825002, Control_c, 0, 64, 46
1, 825017, Control_c, 0, 64, 35
1, 825047, Control_c, 0, 64, 40
1, 825062, Control_c, 0, 64, 55
1, 825077, Control_c, 0, 64, 64
1, 825092, Control_c, 0, 64, 72
1, 825106, Control_c, 0, 64, 81
1, 825110, Note_off_c, 0, 37, 42
1, 825121, Control_c, 0, 64, 90
1, 825136, Control_c, 0, 64, 99
1, 825151, Control_c, 0, 64, 123
1, 825166, Control_c, 0, 64, 127
1, 825167, Note_off_c, 0, 49, 34
1, 825631, Note_on_c, 0, 73, 31
1, 825696, Note_off_c, 0, 73, 60
1, 825960, Note_off_c, 0, 56, 41
1, 826007, Note_off_c, 0, 64, 60
1, 826032, Note_off_c, 0, 61, 59
1, 826865, Note_on_c, 0, 64, 66
1, 826874, Note_on_c, 0, 61, 56
1, 826886, Note_on_c, 0, 56, 46
1, 827055, Note_off_c, 0, 64, 63
1, 827070, Note_off_c, 0, 56, 42
1, 827089, Note_off_c, 0, 61, 56
1, 827533, Note_on_c, 0, 64, 66
1, 827539, Note_on_c, 0, 55, 51
1, 827539, Note_on_c, 0, 61, 55
1, 827566, Note_on_c, 0, 33, 45
1, 827701, Control_c, 0, 64, 117
1, 827716, Control_c, 0, 64, 89
1, 827730, Control_c, 0, 64, 72
1, 827745, Control_c, 0, 64, 59
1, 827760, Control_c, 0, 64, 44
1, 827775, Control_c, 0, 64, 0
1, 827835, Control_c, 0, 64, 33
1, 827849, Control_c, 0, 64, 53
1, 827864, Control_c, 0, 64, 67
1, 827879, Control_c, 0, 64, 78
1, 827894, Control_c, 0, 64, 90
1, 827909, Control_c, 0, 64, 105
1, 827920, Note_off_c, 0, 33, 62
1, 827924, Control_c, 0, 64, 127
1, 828406, Note_on_c, 0, 63, 74
1, 828446, Note_off_c, 0, 64, 61
1, 828520, Note_off_c, 0, 61, 61
1, 828523, Note_off_c, 0, 63, 59
1, 828567, Note_off_c, 0, 55, 55
1, 828691, Note_on_c, 0, 63, 60
1, 828698, Note_on_c, 0, 61, 51
1, 828702, Note_on_c, 0, 69, 42
1, 828713, Note_on_c, 0, 55, 46
1, 828761, Control_c, 0, 64, 84
1, 828776, Control_c, 0, 64, 63
1, 828791, Control_c, 0, 64, 45
1, 828806, Control_c, 0, 64, 38
1, 828821, Control_c, 0, 64, 42
1, 828836, Control_c, 0, 64, 55
1, 828851, Control_c, 0, 64, 66
1, 828865, Control_c, 0, 64, 78
1, 828875, Note_off_c, 0, 69, 62
1, 828880, Control_c, 0, 64, 95
1, 828895, Control_c, 0, 64, 127
1, 829215, Note_on_c, 0, 81, 53
1, 829256, Note_off_c, 0, 81, 57
1, 829557, Note_off_c, 0, 55, 48
1, 829585, Note_off_c, 0, 63, 56
1, 829596, Note_off_c, 0, 61, 64
1, 830284, Note_on_c, 0, 63, 61
1, 830288, Note_on_c, 0, 61, 57
1, 830305, Note_on_c, 0, 55, 43
1, 830363, Control_c, 0, 64, 80
1, 830378, Control_c, 0, 64, 64
1, 830392, Control_c, 0, 64, 55
1, 830407, Control_c, 0, 64, 55
1, 830422, Control_c, 0, 64, 57
1, 830436, Control_c, 0, 64, 63
1, 830451, Control_c, 0, 64, 73
1, 830466, Control_c, 0, 64, 92
1, 830481, Control_c, 0, 64, 114
1, 830504, Control_c, 0, 64, 127
1, 830533, Note_off_c, 0, 55, 61
1, 830551, Note_off_c, 0, 61, 57
1, 830559, Note_off_c, 0, 63, 56
1, 830912, Note_on_c, 0, 61, 52
1, 830915, Note_on_c, 0, 64, 57
1, 830930, Note_on_c, 0, 54, 45
1, 830955, Note_on_c, 0, 33, 37
1, 831009, Control_c, 0, 64, 92
1, 831023, Control_c, 0, 64, 72
1, 831038, Control_c, 0, 64, 57
1, 831053, Control_c, 0, 64, 42
1, 831067, Control_c, 0, 64, 29
1, 831082, Control_c, 0, 64, 0
1, 831127, Control_c, 0, 64, 36
1, 831141, Control_c, 0, 64, 52
1, 831156, Control_c, 0, 64, 65
1, 831171, Control_c, 0, 64, 75
1, 831186, Control_c, 0, 64, 81
1, 831187, Note_off_c, 0, 33, 49
1, 831201, Control_c, 0, 64, 84
1, 831215, Control_c, 0, 64, 90
1, 831230, Control_c, 0, 64, 103
1, 831253, Control_c, 0, 64, 127
1, 831817, Note_on_c, 0, 63, 62
1, 831854, Note_off_c, 0, 64, 60
1, 831917, Note_off_c, 0, 61, 52
1, 831922, Note_off_c, 0, 54, 55
1, 831933, Note_off_c, 0, 63, 56
1, 832085, Note_on_c, 0, 63, 52
1, 832093, Note_on_c, 0, 61, 41
1, 832102, Note_on_c, 0, 69, 47
1, 832103, Note_on_c, 0, 54, 35
1, 832164, Control_c, 0, 64, 90
1, 832179, Control_c, 0, 64, 69
1, 832194, Control_c, 0, 64, 55
1, 832209, Control_c, 0, 64, 51
1, 832223, Control_c, 0, 64, 53
1, 832238, Control_c, 0, 64, 59
1, 832253, Control_c, 0, 64, 67
1, 832267, Note_off_c, 0, 69, 62
1, 832268, Control_c, 0, 64, 78
1, 832283, Control_c, 0, 64, 91
1, 832297, Control_c, 0, 64, 104
1, 832313, Control_c, 0, 64, 123
1, 832328, Control_c, 0, 64, 127
1, 832624, Note_on_c, 0, 81, 49
1, 832663, Note_off_c, 0, 81, 62
1, 832922, Note_off_c, 0, 63, 53
1, 832925, Note_off_c, 0, 54, 34
1, 832967, Note_off_c, 0, 61, 37
1, 833638, Note_on_c, 0, 63, 53
1, 833640, Note_on_c, 0, 61, 41
1, 833668, Note_on_c, 0, 54, 33
1, 833751, Note_off_c, 0, 54, 47
1, 833774, Note_off_c, 0, 61, 36
1, 833788, Note_off_c, 0, 63, 58
1, 834221, Note_on_c, 0, 63, 44
1, 834239, Note_on_c, 0, 60, 39
1, 834250, Note_on_c, 0, 32, 32
1, 834250, Note_on_c, 0, 54, 31
1, 834336, Control_c, 0, 64, 89
1, 834351, Control_c, 0, 64, 67
1, 834365, Control_c, 0, 64, 53
1, 834380, Control_c, 0, 64, 43
1, 834395, Control_c, 0, 64, 39
1, 834410, Control_c, 0, 64, 38
1, 834425, Control_c, 0, 64, 41
1, 834440, Control_c, 0, 64, 53
1, 834455, Control_c, 0, 64, 64
1, 834470, Control_c, 0, 64, 76
1, 834484, Control_c, 0, 64, 94
1, 834499, Control_c, 0, 64, 127
1, 834515, Note_off_c, 0, 32, 38
1, 834830, Note_off_c, 0, 63, 39
1, 835119, Note_off_c, 0, 54, 31
1, 835178, Note_on_c, 0, 68, 37
1, 835218, Note_off_c, 0, 68, 53
1, 835631, Note_on_c, 0, 80, 38
1, 835636, Note_on_c, 0, 64, 44
1, 835685, Note_off_c, 0, 80, 59
1, 835852, Note_on_c, 0, 66, 60
1, 835903, Note_off_c, 0, 60, 36
1, 835909, Note_off_c, 0, 64, 55
1, 836127, Note_on_c, 0, 68, 58
1, 836177, Note_off_c, 0, 66, 61
1, 836324, Control_c, 0, 64, 98
1, 836339, Control_c, 0, 64, 75
1, 836353, Control_c, 0, 64, 63
1, 836368, Control_c, 0, 64, 55
1, 836383, Control_c, 0, 64, 53
1, 836398, Control_c, 0, 64, 55
1, 836412, Control_c, 0, 64, 61
1, 836427, Control_c, 0, 64, 70
1, 836442, Control_c, 0, 64, 84
1, 836457, Control_c, 0, 64, 114
1, 836472, Control_c, 0, 64, 127
1, 836592, Note_off_c, 0, 68, 39
1, 836675, Note_on_c, 0, 63, 43
1, 836676, Note_on_c, 0, 60, 39
1, 836690, Note_on_c, 0, 57, 33
1, 836701, Control_c, 0, 64, 96
1, 836716, Control_c, 0, 64, 73
1, 836731, Control_c, 0, 64, 59
1, 836746, Control_c, 0, 64, 54
1, 836760, Control_c, 0, 64, 55
1, 836775, Control_c, 0, 64, 62
1, 836790, Control_c, 0, 64, 73
1, 836804, Control_c, 0, 64, 94
1, 836819, Control_c, 0, 64, 127
1, 836890, Note_off_c, 0, 60, 62
1, 836892, Note_off_c, 0, 57, 51
1, 837030, Note_off_c, 0, 63, 21
1, 837285, Note_on_c, 0, 64, 47
1, 837320, Note_on_c, 0, 61, 31
1, 837328, Note_on_c, 0, 37, 36
1, 837328, Note_on_c, 0, 56, 33
1, 837435, Control_c, 0, 64, 104
1, 837450, Control_c, 0, 64, 90
1, 837465, Control_c, 0, 64, 78
1, 837480, Control_c, 0, 64, 67
1, 837495, Control_c, 0, 64, 59
1, 837509, Control_c, 0, 64, 51
1, 837524, Control_c, 0, 64, 44
1, 837539, Control_c, 0, 64, 36
1, 837554, Control_c, 0, 64, 0
1, 837613, Control_c, 0, 64, 39
1, 837627, Control_c, 0, 64, 55
1, 837642, Control_c, 0, 64, 67
1, 837657, Control_c, 0, 64, 77
1, 837672, Control_c, 0, 64, 85
1, 837687, Control_c, 0, 64, 89
1, 837702, Control_c, 0, 64, 94
1, 837703, Note_off_c, 0, 37, 41
1, 837716, Control_c, 0, 64, 103
1, 837731, Control_c, 0, 64, 127
1, 838332, Note_on_c, 0, 49, 25
1, 838392, Note_off_c, 0, 49, 45
1, 838926, Note_on_c, 0, 73, 29
1, 838981, Note_off_c, 0, 73, 46
1, 839252, Note_off_c, 0, 56, 40
1, 839332, Note_off_c, 0, 64, 55
1, 839355, Note_off_c, 0, 61, 41
1, 839436, Control_c, 0, 67, 116
1, 839451, Control_c, 0, 67, 99
1, 839466, Control_c, 0, 67, 86
1, 839488, Control_c, 0, 67, 77
1, 839504, Control_c, 0, 67, 76
1, 839519, Control_c, 0, 67, 76
1, 839534, Control_c, 0, 67, 78
1, 839549, Control_c, 0, 67, 82
1, 839564, Control_c, 0, 67, 86
1, 839578, Control_c, 0, 67, 91
1, 839593, Control_c, 0, 67, 98
1, 839608, Control_c, 0, 67, 104
1, 839623, Control_c, 0, 67, 112
1, 839637, Control_c, 0, 67, 127
1, 840106, Note_on_c, 0, 64, 35
1, 840120, Note_on_c, 0, 56, 28
1, 840138, Note_on_c, 0, 61, 32
1, 840274, Note_off_c, 0, 61, 29
1, 840283, Note_off_c, 0, 56, 32
1, 840336, Note_off_c, 0, 64, 47
1, 840757, Note_on_c, 0, 64, 34
1, 840774, Note_on_c, 0, 61, 30
1, 840790, Note_on_c, 0, 55, 25
1, 840791, Note_on_c, 0, 33, 30
1, 840935, Control_c, 0, 64, 112
1, 840950, Control_c, 0, 64, 94
1, 840965, Control_c, 0, 64, 77
1, 840986, Control_c, 0, 64, 64
1, 841001, Control_c, 0, 64, 50
1, 841016, Control_c, 0, 64, 35
1, 841031, Control_c, 0, 64, 28
1, 841060, Control_c, 0, 64, 31
1, 841075, Control_c, 0, 64, 45
1, 841090, Control_c, 0, 64, 58
1, 841106, Control_c, 0, 64, 65
1, 841121, Control_c, 0, 64, 71
1, 841136, Control_c, 0, 64, 77
1, 841150, Control_c, 0, 64, 81
1, 841165, Control_c, 0, 64, 87
1, 841180, Note_off_c, 0, 33, 39
1, 841180, Control_c, 0, 64, 100
1, 841194, Control_c, 0, 64, 127
1, 841639, Note_on_c, 0, 63, 51
1, 841657, Note_off_c, 0, 64, 44
1, 841684, Note_off_c, 0, 63, 56
1, 841727, Note_off_c, 0, 61, 44
1, 841752, Note_off_c, 0, 55, 41
1, 841992, Note_on_c, 0, 63, 46
1, 841993, Note_on_c, 0, 61, 36
1, 842017, Note_on_c, 0, 55, 31
1, 842024, Note_on_c, 0, 45, 33
1, 842032, Control_c, 0, 64, 100
1, 842047, Control_c, 0, 64, 74
1, 842062, Control_c, 0, 64, 59
1, 842077, Control_c, 0, 64, 49
1, 842106, Control_c, 0, 64, 53
1, 842121, Control_c, 0, 64, 60
1, 842136, Control_c, 0, 64, 67
1, 842151, Control_c, 0, 64, 74
1, 842165, Control_c, 0, 64, 83
1, 842180, Note_off_c, 0, 45, 60
1, 842180, Control_c, 0, 64, 91
1, 842195, Control_c, 0, 64, 105
1, 842210, Control_c, 0, 64, 127
1, 842631, Note_on_c, 0, 69, 29
1, 842673, Note_off_c, 0, 69, 50
1, 842879, Note_off_c, 0, 55, 42
1, 842974, Note_off_c, 0, 63, 48
1, 842980, Note_off_c, 0, 61, 50
1, 843855, Note_on_c, 0, 63, 40
1, 843864, Note_on_c, 0, 61, 35
1, 843886, Control_c, 0, 64, 98
1, 843888, Note_on_c, 0, 55, 25
1, 843901, Control_c, 0, 64, 87
1, 843915, Control_c, 0, 64, 83
1, 843945, Control_c, 0, 64, 85
1, 843960, Control_c, 0, 64, 93
1, 843982, Control_c, 0, 64, 111
1, 843997, Control_c, 0, 64, 127
1, 844084, Note_off_c, 0, 55, 39
1, 844092, Note_off_c, 0, 63, 57
1, 844116, Note_off_c, 0, 61, 62
1, 844688, Note_on_c, 0, 64, 44
1, 844694, Note_on_c, 0, 61, 35
1, 844725, Note_on_c, 0, 33, 35
1, 844730, Note_on_c, 0, 54, 29
1, 844864, Control_c, 0, 64, 118
1, 844879, Control_c, 0, 64, 103
1, 844894, Control_c, 0, 64, 94
1, 844909, Control_c, 0, 64, 86
1, 844924, Control_c, 0, 64, 79
1, 844939, Control_c, 0, 64, 70
1, 844953, Control_c, 0, 64, 62
1, 844968, Control_c, 0, 64, 57
1, 844983, Control_c, 0, 64, 52
1, 844998, Control_c, 0, 64, 43
1, 845013, Control_c, 0, 64, 0
1, 845072, Control_c, 0, 64, 44
1, 845087, Control_c, 0, 64, 58
1, 845102, Control_c, 0, 64, 65
1, 845117, Control_c, 0, 64, 68
1, 845132, Control_c, 0, 64, 71
1, 845147, Control_c, 0, 64, 77
1, 845157, Note_off_c, 0, 33, 39
1, 845162, Control_c, 0, 64, 85
1, 845176, Control_c, 0, 64, 97
1, 845191, Control_c, 0, 64, 118
1, 845206, Control_c, 0, 64, 127
1, 845627, Note_on_c, 0, 63, 52
1, 845636, Note_off_c, 0, 64, 56
1, 845677, Note_off_c, 0, 63, 53
1, 845683, Note_off_c, 0, 61, 58
1, 845728, Note_off_c, 0, 54, 43
1, 845934, Note_on_c, 0, 63, 40
1, 845944, Note_on_c, 0, 61, 36
1, 845959, Note_on_c, 0, 45, 37
1, 845964, Note_on_c, 0, 54, 42
1, 845969, Control_c, 0, 64, 100
1, 845984, Control_c, 0, 64, 73
1, 845998, Control_c, 0, 64, 57
1, 846013, Control_c, 0, 64, 47
1, 846028, Control_c, 0, 64, 49
1, 846043, Control_c, 0, 64, 56
1, 846058, Control_c, 0, 64, 66
1, 846072, Control_c, 0, 64, 82
1, 846087, Control_c, 0, 64, 104
1, 846102, Control_c, 0, 64, 127
1, 846104, Note_off_c, 0, 45, 60
1, 846563, Note_on_c, 0, 69, 33
1, 846616, Note_off_c, 0, 69, 61
1, 846856, Note_off_c, 0, 54, 33
1, 846941, Note_off_c, 0, 63, 56
1, 846981, Note_off_c, 0, 61, 40
1, 847006, Control_c, 0, 67, 111
1, 847020, Control_c, 0, 67, 96
1, 847035, Control_c, 0, 67, 80
1, 847050, Control_c, 0, 67, 60
1, 847065, Control_c, 0, 67, 45
1, 847080, Control_c, 0, 67, 36
1, 847094, Control_c, 0, 67, 34
1, 847139, Control_c, 0, 67, 36
1, 847153, Control_c, 0, 67, 43
1, 847168, Control_c, 0, 67, 49
1, 847183, Control_c, 0, 67, 52
1, 847198, Control_c, 0, 67, 53
1, 847213, Control_c, 0, 67, 54
1, 847228, Control_c, 0, 67, 57
1, 847243, Control_c, 0, 67, 66
1, 847258, Control_c, 0, 67, 91
1, 847273, Control_c, 0, 67, 112
1, 847287, Control_c, 0, 67, 125
1, 847302, Control_c, 0, 67, 127
1, 847788, Note_on_c, 0, 61, 40
1, 847791, Note_on_c, 0, 63, 44
1, 847806, Note_on_c, 0, 54, 27
1, 847934, Note_off_c, 0, 61, 58
1, 847974, Note_off_c, 0, 63, 55
1, 847982, Note_off_c, 0, 54, 42
1, 848480, Note_on_c, 0, 60, 35
1, 848484, Note_on_c, 0, 63, 39
1, 848498, Note_on_c, 0, 32, 39
1, 848501, Note_on_c, 0, 54, 22
1, 848607, Control_c, 0, 64, 109
1, 848622, Control_c, 0, 64, 94
1, 848637, Control_c, 0, 64, 85
1, 848652, Control_c, 0, 64, 77
1, 848666, Control_c, 0, 64, 69
1, 848681, Control_c, 0, 64, 61
1, 848696, Control_c, 0, 64, 53
1, 848710, Control_c, 0, 64, 46
1, 848725, Control_c, 0, 64, 38
1, 848740, Control_c, 0, 64, 30
1, 848755, Control_c, 0, 64, 0
1, 848799, Control_c, 0, 64, 30
1, 848814, Control_c, 0, 64, 45
1, 848829, Control_c, 0, 64, 60
1, 848844, Control_c, 0, 64, 67
1, 848858, Control_c, 0, 64, 70
1, 848873, Control_c, 0, 64, 74
1, 848888, Control_c, 0, 64, 78
1, 848903, Control_c, 0, 64, 89
1, 848912, Note_off_c, 0, 32, 34
1, 848918, Control_c, 0, 64, 115
1, 848933, Control_c, 0, 64, 127
1, 849093, Note_off_c, 0, 63, 50
1, 849149, Note_off_c, 0, 54, 43
1, 849484, Note_on_c, 0, 44, 40
1, 849544, Note_off_c, 0, 44, 60
1, 849995, Note_on_c, 0, 56, 37
1, 850004, Note_on_c, 0, 64, 40
1, 850085, Note_off_c, 0, 56, 54
1, 850224, Note_on_c, 0, 66, 53
1, 850309, Note_off_c, 0, 64, 37
1, 850320, Note_off_c, 0, 60, 39
1, 850492, Note_on_c, 0, 68, 54
1, 850540, Note_off_c, 0, 66, 57
1, 850796, Note_off_c, 0, 68, 57
1, 851090, Note_on_c, 0, 57, 43
1, 851091, Note_on_c, 0, 60, 46
1, 851116, Note_on_c, 0, 54, 30
1, 851121, Control_c, 0, 64, 109
1, 851136, Control_c, 0, 64, 83
1, 851151, Control_c, 0, 64, 67
1, 851166, Control_c, 0, 64, 56
1, 851180, Control_c, 0, 64, 50
1, 851195, Control_c, 0, 64, 50
1, 851210, Control_c, 0, 64, 51
1, 851225, Control_c, 0, 64, 58
1, 851240, Control_c, 0, 64, 65
1, 851254, Control_c, 0, 64, 76
1, 851269, Control_c, 0, 64, 97
1, 851284, Control_c, 0, 64, 127
1, 851300, Note_off_c, 0, 54, 60
1, 851356, Note_off_c, 0, 60, 63
1, 851374, Note_off_c, 0, 57, 59
1, 851833, Note_on_c, 0, 56, 38
1, 851837, Note_on_c, 0, 61, 40
1, 851849, Note_on_c, 0, 52, 32
1, 851863, Note_on_c, 0, 37, 30
1, 851973, Control_c, 0, 64, 109
1, 851988, Control_c, 0, 64, 88
1, 852002, Control_c, 0, 64, 74
1, 852017, Control_c, 0, 64, 62
1, 852032, Control_c, 0, 64, 49
1, 852047, Control_c, 0, 64, 37
1, 852062, Control_c, 0, 64, 0
1, 852135, Control_c, 0, 64, 39
1, 852150, Control_c, 0, 64, 53
1, 852165, Control_c, 0, 64, 62
1, 852180, Control_c, 0, 64, 66
1, 852195, Control_c, 0, 64, 69
1, 852217, Control_c, 0, 64, 73
1, 852232, Control_c, 0, 64, 80
1, 852247, Control_c, 0, 64, 92
1, 852257, Note_off_c, 0, 37, 41
1, 852261, Control_c, 0, 64, 117
1, 852276, Control_c, 0, 64, 127
1, 852811, Note_on_c, 0, 49, 39
1, 852871, Note_off_c, 0, 49, 61
1, 853415, Note_on_c, 0, 73, 36
1, 853459, Note_off_c, 0, 73, 48
1, 854749, Note_on_c, 0, 37, 29
1, 854808, Note_off_c, 0, 37, 59
1, 855748, Note_on_c, 0, 49, 31
1, 855789, Note_off_c, 0, 49, 55
1, 856429, Note_on_c, 0, 73, 32
1, 856476, Note_off_c, 0, 73, 56
1, 858283, Note_on_c, 0, 32, 54
1, 858434, Note_off_c, 0, 61, 37
1, 858520, Control_c, 0, 64, 113
1, 858528, Note_off_c, 0, 52, 41
1, 858534, Control_c, 0, 64, 106
1, 858549, Control_c, 0, 64, 101
1, 858564, Control_c, 0, 64, 97
1, 858567, Note_off_c, 0, 56, 60
1, 858579, Control_c, 0, 64, 95
1, 858594, Control_c, 0, 64, 92
1, 858609, Control_c, 0, 64, 88
1, 858623, Control_c, 0, 64, 84
1, 858638, Control_c, 0, 64, 80
1, 858653, Control_c, 0, 64, 77
1, 858669, Control_c, 0, 64, 73
1, 858683, Control_c, 0, 64, 69
1, 858698, Control_c, 0, 64, 65
1, 858713, Control_c, 0, 64, 63
1, 858728, Control_c, 0, 64, 62
1, 858743, Control_c, 0, 64, 60
1, 858758, Control_c, 0, 64, 58
1, 858773, Control_c, 0, 64, 57
1, 858788, Control_c, 0, 64, 55
1, 858802, Control_c, 0, 64, 54
1, 858817, Control_c, 0, 64, 52
1, 858832, Control_c, 0, 64, 51
1, 858847, Control_c, 0, 64, 49
1, 858862, Control_c, 0, 64, 47
1, 858876, Control_c, 0, 64, 45
1, 858891, Control_c, 0, 64, 44
1, 858920, Control_c, 0, 64, 43
1, 858935, Control_c, 0, 64, 44
1, 858958, Control_c, 0, 64, 48
1, 858973, Control_c, 0, 64, 56
1, 858988, Control_c, 0, 64, 66
1, 859002, Control_c, 0, 64, 76
1, 859017, Control_c, 0, 64, 90
1, 859032, Control_c, 0, 64, 107
1, 859046, Control_c, 0, 64, 127
1, 859095, Note_off_c, 0, 32, 58
1, 859563, Note_on_c, 0, 57, 43
1, 859578, Note_on_c, 0, 49, 36
1, 859578, Note_on_c, 0, 52, 42
1, 859581, Control_c, 0, 64, 90
1, 859593, Note_on_c, 0, 33, 40
1, 859596, Control_c, 0, 64, 72
1, 859611, Control_c, 0, 64, 58
1, 859625, Control_c, 0, 64, 44
1, 859640, Control_c, 0, 64, 34
1, 859655, Control_c, 0, 64, 33
1, 859669, Control_c, 0, 64, 33
1, 859684, Control_c, 0, 64, 37
1, 859706, Control_c, 0, 64, 48
1, 859721, Control_c, 0, 64, 59
1, 859736, Control_c, 0, 64, 66
1, 859751, Control_c, 0, 64, 73
1, 859766, Control_c, 0, 64, 76
1, 859780, Control_c, 0, 64, 79
1, 859795, Control_c, 0, 64, 86
1, 859810, Control_c, 0, 64, 98
1, 859825, Note_off_c, 0, 33, 57
1, 859825, Control_c, 0, 64, 127
1, 859837, Note_on_c, 0, 45, 40
1, 859867, Note_off_c, 0, 52, 59
1, 859870, Note_off_c, 0, 49, 35
1, 859876, Note_off_c, 0, 45, 60
1, 859921, Note_off_c, 0, 57, 64
1, 860031, Note_on_c, 0, 45, 49
1, 860077, Note_off_c, 0, 45, 56
1, 860215, Note_on_c, 0, 45, 39
1, 860248, Note_off_c, 0, 45, 61
1, 860418, Control_c, 0, 64, 108
1, 860433, Control_c, 0, 64, 80
1, 860447, Note_on_c, 0, 57, 55
1, 860454, Control_c, 0, 64, 63
1, 860455, Note_on_c, 0, 33, 43
1, 860459, Note_on_c, 0, 49, 41
1, 860469, Control_c, 0, 64, 47
1, 860484, Control_c, 0, 64, 40
1, 860499, Control_c, 0, 64, 39
1, 860514, Control_c, 0, 64, 40
1, 860529, Control_c, 0, 64, 46
1, 860544, Control_c, 0, 64, 56
1, 860558, Control_c, 0, 64, 65
1, 860573, Control_c, 0, 64, 72
1, 860588, Control_c, 0, 64, 81
1, 860603, Control_c, 0, 64, 93
1, 860618, Control_c, 0, 64, 114
1, 860628, Note_off_c, 0, 49, 53
1, 860633, Control_c, 0, 64, 127
1, 860639, Note_off_c, 0, 33, 37
1, 860645, Note_on_c, 0, 45, 37
1, 860681, Note_off_c, 0, 45, 50
1, 860720, Note_off_c, 0, 57, 60
1, 860837, Note_on_c, 0, 45, 45
1, 860901, Note_off_c, 0, 45, 54
1, 861059, Note_on_c, 0, 45, 13
1, 861109, Note_off_c, 0, 45, 60
1, 861241, Note_on_c, 0, 59, 67
1, 861265, Note_on_c, 0, 57, 50
1, 861280, Note_on_c, 0, 50, 38
1, 861280, Note_on_c, 0, 33, 46
1, 861292, Control_c, 0, 64, 96
1, 861307, Control_c, 0, 64, 70
1, 861322, Control_c, 0, 64, 51
1, 861336, Control_c, 0, 64, 31
1, 861351, Control_c, 0, 64, 0
1, 861366, Control_c, 0, 64, 29
1, 861381, Control_c, 0, 64, 42
1, 861396, Control_c, 0, 64, 59
1, 861411, Control_c, 0, 64, 69
1, 861426, Control_c, 0, 64, 77
1, 861440, Control_c, 0, 64, 84
1, 861441, Note_off_c, 0, 33, 36
1, 861454, Note_on_c, 0, 45, 47
1, 861455, Control_c, 0, 64, 91
1, 861470, Control_c, 0, 64, 101
1, 861481, Note_off_c, 0, 50, 55
1, 861485, Control_c, 0, 64, 127
1, 861496, Note_off_c, 0, 45, 58
1, 861570, Note_off_c, 0, 57, 62
1, 861572, Note_off_c, 0, 59, 62
1, 861660, Note_on_c, 0, 45, 41
1, 861700, Note_off_c, 0, 45, 53
1, 861885, Note_on_c, 0, 45, 33
1, 861930, Note_off_c, 0, 45, 48
1, 862128, Note_on_c, 0, 61, 60
1, 862146, Note_on_c, 0, 57, 46
1, 862154, Note_on_c, 0, 33, 43
1, 862160, Note_on_c, 0, 52, 35
1, 862174, Control_c, 0, 64, 97
1, 862189, Control_c, 0, 64, 68
1, 862204, Control_c, 0, 64, 52
1, 862219, Control_c, 0, 64, 42
1, 862234, Control_c, 0, 64, 40
1, 862249, Control_c, 0, 64, 41
1, 862263, Control_c, 0, 64, 49
1, 862277, Control_c, 0, 64, 61
1, 862292, Control_c, 0, 64, 71
1, 862307, Control_c, 0, 64, 80
1, 862322, Control_c, 0, 64, 89
1, 862336, Control_c, 0, 64, 98
1, 862338, Note_on_c, 0, 45, 44
1, 862351, Control_c, 0, 64, 117
1, 862359, Note_off_c, 0, 33, 34
1, 862366, Control_c, 0, 64, 127
1, 862367, Note_off_c, 0, 52, 39
1, 862371, Note_off_c, 0, 57, 49
1, 862379, Note_off_c, 0, 45, 59
1, 862515, Note_on_c, 0, 45, 39
1, 862568, Note_off_c, 0, 45, 49
1, 862699, Note_on_c, 0, 59, 64
1, 862710, Note_on_c, 0, 45, 40
1, 862723, Note_on_c, 0, 50, 35
1, 862751, Note_off_c, 0, 45, 48
1, 862760, Note_off_c, 0, 50, 54
1, 862896, Note_on_c, 0, 57, 56
1, 862907, Note_on_c, 0, 45, 42
1, 862931, Note_on_c, 0, 49, 35
1, 862938, Note_off_c, 0, 59, 63
1, 862951, Note_off_c, 0, 45, 48
1, 862953, Note_off_c, 0, 61, 35
1, 862967, Control_c, 0, 64, 101
1, 862982, Control_c, 0, 64, 86
1, 862997, Control_c, 0, 64, 75
1, 863011, Control_c, 0, 64, 66
1, 863027, Control_c, 0, 64, 62
1, 863042, Control_c, 0, 64, 59
1, 863056, Control_c, 0, 64, 57
1, 863071, Control_c, 0, 64, 56
1, 863081, Note_on_c, 0, 45, 45
1, 863086, Control_c, 0, 64, 54
1, 863101, Control_c, 0, 64, 54
1, 863116, Control_c, 0, 64, 53
1, 863143, Note_off_c, 0, 45, 58
1, 863160, Control_c, 0, 64, 52
1, 863268, Note_on_c, 0, 45, 55
1, 863335, Note_off_c, 0, 45, 52
1, 863382, Control_c, 0, 64, 53
1, 863452, Note_on_c, 0, 45, 46
1, 863465, Control_c, 0, 64, 53
1, 863497, Note_off_c, 0, 45, 57
1, 863524, Control_c, 0, 64, 54
1, 863539, Control_c, 0, 64, 55
1, 863554, Control_c, 0, 64, 59
1, 863569, Control_c, 0, 64, 63
1, 863584, Control_c, 0, 64, 68
1, 863598, Control_c, 0, 64, 75
1, 863613, Control_c, 0, 64, 87
1, 863628, Control_c, 0, 64, 101
1, 863632, Note_on_c, 0, 33, 54
1, 863642, Control_c, 0, 64, 127
1, 863692, Note_off_c, 0, 49, 58
1, 863736, Note_off_c, 0, 57, 63
1, 863825, Note_on_c, 0, 45, 42
1, 863831, Note_off_c, 0, 33, 33
1, 863862, Note_off_c, 0, 45, 61
1, 864013, Note_on_c, 0, 61, 68
1, 864034, Note_on_c, 0, 45, 46
1, 864041, Note_on_c, 0, 57, 51
1, 864043, Note_on_c, 0, 52, 51
1, 864094, Note_off_c, 0, 52, 51
1, 864103, Note_off_c, 0, 45, 54
1, 864118, Note_off_c, 0, 57, 50
1, 864255, Note_on_c, 0, 45, 37
1, 864289, Note_off_c, 0, 45, 53
1, 864483, Note_on_c, 0, 62, 68
1, 864505, Note_on_c, 0, 57, 51
1, 864517, Note_on_c, 0, 54, 40
1, 864519, Note_on_c, 0, 33, 48
1, 864539, Control_c, 0, 64, 88
1, 864547, Note_off_c, 0, 61, 59
1, 864554, Control_c, 0, 64, 67
1, 864569, Control_c, 0, 64, 51
1, 864584, Control_c, 0, 64, 40
1, 864599, Control_c, 0, 64, 38
1, 864628, Control_c, 0, 64, 44
1, 864643, Control_c, 0, 64, 55
1, 864657, Control_c, 0, 64, 64
1, 864672, Control_c, 0, 64, 72
1, 864687, Control_c, 0, 64, 80
1, 864692, Note_off_c, 0, 33, 52
1, 864696, Note_off_c, 0, 57, 58
1, 864702, Control_c, 0, 64, 88
1, 864705, Note_on_c, 0, 45, 45
1, 864711, Note_off_c, 0, 54, 45
1, 864717, Control_c, 0, 64, 97
1, 864732, Control_c, 0, 64, 113
1, 864744, Note_off_c, 0, 45, 59
1, 864747, Control_c, 0, 64, 127
1, 864870, Note_on_c, 0, 45, 44
1, 864953, Note_off_c, 0, 45, 46
1, 865045, Note_on_c, 0, 61, 71
1, 865059, Note_on_c, 0, 57, 48
1, 865066, Note_on_c, 0, 45, 42
1, 865094, Note_on_c, 0, 52, 20
1, 865104, Note_off_c, 0, 45, 52
1, 865124, Note_off_c, 0, 62, 49
1, 865135, Note_off_c, 0, 52, 52
1, 865227, Note_off_c, 0, 57, 37
1, 865241, Note_on_c, 0, 59, 74
1, 865253, Note_on_c, 0, 45, 51
1, 865256, Note_on_c, 0, 50, 59
1, 865300, Note_off_c, 0, 45, 58
1, 865303, Note_off_c, 0, 61, 61
1, 865309, Note_off_c, 0, 50, 51
1, 865416, Note_on_c, 0, 45, 49
1, 865463, Note_off_c, 0, 45, 56
1, 865628, Note_on_c, 0, 62, 73
1, 865644, Control_c, 0, 64, 117
1, 865646, Note_on_c, 0, 54, 48
1, 865651, Note_on_c, 0, 33, 60
1, 865659, Control_c, 0, 64, 75
1, 865659, Note_on_c, 0, 57, 43
1, 865674, Control_c, 0, 64, 57
1, 865695, Control_c, 0, 64, 40
1, 865710, Control_c, 0, 64, 31
1, 865715, Note_off_c, 0, 59, 63
1, 865740, Control_c, 0, 64, 33
1, 865755, Control_c, 0, 64, 44
1, 865769, Control_c, 0, 64, 61
1, 865782, Note_off_c, 0, 57, 47
1, 865784, Control_c, 0, 64, 72
1, 865792, Note_off_c, 0, 54, 56
1, 865799, Control_c, 0, 64, 87
1, 865814, Control_c, 0, 64, 106
1, 865829, Control_c, 0, 64, 127
1, 865838, Note_on_c, 0, 45, 55
1, 865921, Note_off_c, 0, 33, 54
1, 866008, Control_c, 0, 64, 117
1, 866013, Note_on_c, 0, 61, 79
1, 866022, Note_on_c, 0, 57, 62
1, 866022, Control_c, 0, 64, 75
1, 866031, Note_on_c, 0, 52, 53
1, 866032, Note_on_c, 0, 33, 63
1, 866037, Control_c, 0, 64, 55
1, 866052, Control_c, 0, 64, 37
1, 866053, Note_off_c, 0, 62, 62
1, 866067, Control_c, 0, 64, 35
1, 866069, Note_off_c, 0, 45, 47
1, 866082, Control_c, 0, 64, 40
1, 866097, Control_c, 0, 64, 56
1, 866111, Control_c, 0, 64, 74
1, 866126, Control_c, 0, 64, 110
1, 866141, Control_c, 0, 64, 127
1, 866167, Note_off_c, 0, 33, 60
1, 866177, Note_off_c, 0, 57, 63
1, 866208, Note_on_c, 0, 45, 56
1, 866208, Note_off_c, 0, 52, 33
1, 866344, Note_off_c, 0, 45, 54
1, 866392, Control_c, 0, 64, 102
1, 866397, Note_on_c, 0, 57, 70
1, 866398, Note_on_c, 0, 37, 72
1, 866407, Control_c, 0, 64, 71
1, 866416, Note_on_c, 0, 52, 49
1, 866422, Control_c, 0, 64, 51
1, 866444, Control_c, 0, 64, 0
1, 866459, Note_on_c, 0, 49, 3
1, 866489, Note_off_c, 0, 52, 52
1, 866499, Note_off_c, 0, 49, 26
1, 866511, Note_off_c, 0, 61, 66
1, 866518, Control_c, 0, 64, 44
1, 866533, Control_c, 0, 64, 63
1, 866548, Control_c, 0, 64, 77
1, 866562, Control_c, 0, 64, 98
1, 866577, Control_c, 0, 64, 127
1, 866582, Note_on_c, 0, 49, 52
1, 866611, Note_off_c, 0, 49, 61
1, 866723, Note_off_c, 0, 37, 32
1, 866790, Note_on_c, 0, 56, 68
1, 866801, Control_c, 0, 64, 103
1, 866805, Note_on_c, 0, 40, 57
1, 866806, Note_on_c, 0, 52, 55
1, 866807, Note_on_c, 0, 47, 47
1, 866815, Note_off_c, 0, 57, 56
1, 866815, Control_c, 0, 64, 72
1, 866830, Control_c, 0, 64, 52
1, 866844, Note_off_c, 0, 40, 57
1, 866845, Control_c, 0, 64, 0
1, 866993, Note_on_c, 0, 40, 58
1, 867034, Note_off_c, 0, 40, 63
1, 867188, Note_on_c, 0, 40, 60
1, 867225, Note_off_c, 0, 40, 58
1, 867371, Control_c, 0, 64, 29
1, 867375, Note_on_c, 0, 40, 48
1, 867385, Control_c, 0, 64, 45
1, 867400, Control_c, 0, 64, 57
1, 867415, Control_c, 0, 64, 61
1, 867430, Control_c, 0, 64, 63
1, 867436, Note_off_c, 0, 40, 55
1, 867445, Control_c, 0, 64, 66
1, 867461, Control_c, 0, 64, 69
1, 867476, Control_c, 0, 64, 72
1, 867490, Control_c, 0, 64, 75
1, 867505, Control_c, 0, 64, 80
1, 867520, Control_c, 0, 64, 87
1, 867535, Control_c, 0, 64, 98
1, 867550, Control_c, 0, 64, 127
1, 867555, Note_on_c, 0, 40, 54
1, 867594, Note_off_c, 0, 47, 53
1, 867614, Note_off_c, 0, 40, 56
1, 867616, Note_off_c, 0, 52, 62
1, 867641, Note_off_c, 0, 56, 61
1, 867731, Note_on_c, 0, 40, 46
1, 867806, Note_off_c, 0, 40, 58
1, 867935, Note_on_c, 0, 56, 67
1, 867948, Note_on_c, 0, 38, 54
1, 867951, Note_on_c, 0, 54, 55
1, 867957, Control_c, 0, 64, 81
1, 867972, Control_c, 0, 64, 63
1, 867977, Note_on_c, 0, 47, 36
1, 867987, Control_c, 0, 64, 49
1, 868002, Control_c, 0, 64, 44
1, 868016, Control_c, 0, 64, 46
1, 868019, Note_off_c, 0, 38, 58
1, 868031, Control_c, 0, 64, 54
1, 868046, Control_c, 0, 64, 64
1, 868052, Note_off_c, 0, 47, 61
1, 868061, Control_c, 0, 64, 74
1, 868076, Control_c, 0, 64, 86
1, 868090, Control_c, 0, 64, 96
1, 868105, Note_off_c, 0, 54, 63
1, 868105, Control_c, 0, 64, 104
1, 868120, Control_c, 0, 64, 118
1, 868124, Note_off_c, 0, 56, 63
1, 868127, Note_on_c, 0, 38, 41
1, 868135, Control_c, 0, 64, 127
1, 868185, Note_off_c, 0, 38, 55
1, 868358, Control_c, 0, 64, 101
1, 868359, Note_on_c, 0, 56, 51
1, 868372, Note_on_c, 0, 52, 44
1, 868373, Control_c, 0, 64, 75
1, 868375, Note_on_c, 0, 37, 43
1, 868387, Control_c, 0, 64, 58
1, 868389, Note_on_c, 0, 49, 35
1, 868402, Control_c, 0, 64, 43
1, 868417, Control_c, 0, 64, 37
1, 868434, Note_off_c, 0, 37, 44
1, 868446, Control_c, 0, 64, 42
1, 868461, Control_c, 0, 64, 52
1, 868476, Control_c, 0, 64, 61
1, 868491, Control_c, 0, 64, 67
1, 868506, Control_c, 0, 64, 73
1, 868516, Note_off_c, 0, 49, 47
1, 868520, Control_c, 0, 64, 82
1, 868535, Control_c, 0, 64, 91
1, 868550, Control_c, 0, 64, 103
1, 868559, Note_on_c, 0, 37, 50
1, 868561, Note_off_c, 0, 56, 54
1, 868565, Control_c, 0, 64, 127
1, 868604, Note_off_c, 0, 52, 36
1, 868656, Note_off_c, 0, 37, 36
1, 868765, Control_c, 0, 64, 103
1, 868780, Control_c, 0, 64, 75
1, 868786, Note_on_c, 0, 56, 49
1, 868787, Note_on_c, 0, 35, 52
1, 868792, Note_on_c, 0, 52, 42
1, 868795, Control_c, 0, 64, 59
1, 868810, Control_c, 0, 64, 43
1, 868814, Note_on_c, 0, 50, 35
1, 868824, Control_c, 0, 64, 31
1, 868854, Control_c, 0, 64, 32
1, 868862, Note_off_c, 0, 35, 53
1, 868869, Control_c, 0, 64, 42
1, 868884, Control_c, 0, 64, 56
1, 868899, Control_c, 0, 64, 66
1, 868913, Control_c, 0, 64, 72
1, 868920, Note_off_c, 0, 50, 52
1, 868928, Control_c, 0, 64, 77
1, 868943, Control_c, 0, 64, 81
1, 868948, Note_off_c, 0, 56, 56
1, 868951, Note_off_c, 0, 52, 59
1, 868957, Control_c, 0, 64, 89
1, 868971, Note_on_c, 0, 35, 43
1, 868972, Control_c, 0, 64, 102
1, 868987, Control_c, 0, 64, 127
1, 869022, Note_off_c, 0, 35, 61
1, 869181, Control_c, 0, 64, 97
1, 869196, Control_c, 0, 64, 76
1, 869210, Note_on_c, 0, 57, 58
1, 869210, Control_c, 0, 64, 61
1, 869225, Control_c, 0, 64, 42
1, 869226, Note_on_c, 0, 33, 44
1, 869229, Note_on_c, 0, 52, 46
1, 869238, Note_on_c, 0, 49, 27
1, 869240, Control_c, 0, 64, 27
1, 869254, Control_c, 0, 64, 0
1, 869343, Control_c, 0, 64, 33
1, 869358, Control_c, 0, 64, 49
1, 869373, Control_c, 0, 64, 60
1, 869388, Control_c, 0, 64, 65
1, 869403, Control_c, 0, 64, 69
1, 869409, Note_off_c, 0, 33, 57
1, 869413, Note_on_c, 0, 45, 43
1, 869418, Control_c, 0, 64, 75
1, 869440, Control_c, 0, 64, 88
1, 869455, Control_c, 0, 64, 105
1, 869462, Note_off_c, 0, 45, 57
1, 869469, Control_c, 0, 64, 127
1, 869477, Note_off_c, 0, 49, 46
1, 869526, Note_off_c, 0, 52, 62
1, 869570, Note_off_c, 0, 57, 63
1, 869592, Note_on_c, 0, 45, 50
1, 869647, Note_off_c, 0, 45, 55
1, 869776, Note_on_c, 0, 45, 47
1, 869781, Control_c, 0, 67, 125
1, 869796, Control_c, 0, 67, 121
1, 869811, Control_c, 0, 67, 118
1, 869849, Note_off_c, 0, 45, 55
1, 869856, Control_c, 0, 67, 116
1, 869975, Note_on_c, 0, 57, 66
1, 869987, Note_on_c, 0, 49, 53
1, 869994, Note_on_c, 0, 33, 47
1, 870004, Control_c, 0, 64, 111
1, 870019, Control_c, 0, 64, 77
1, 870034, Control_c, 0, 64, 60
1, 870049, Control_c, 0, 64, 43
1, 870064, Control_c, 0, 64, 38
1, 870078, Control_c, 0, 64, 40
1, 870093, Control_c, 0, 64, 48
1, 870108, Control_c, 0, 64, 60
1, 870123, Control_c, 0, 64, 70
1, 870123, Control_c, 0, 67, 114
1, 870138, Control_c, 0, 64, 81
1, 870152, Control_c, 0, 64, 95
1, 870152, Control_c, 0, 67, 110
1, 870166, Note_on_c, 0, 45, 56
1, 870167, Control_c, 0, 64, 107
1, 870177, Note_off_c, 0, 33, 49
1, 870190, Control_c, 0, 64, 127
1, 870190, Control_c, 0, 67, 99
1, 870196, Note_off_c, 0, 49, 60
1, 870205, Control_c, 0, 67, 80
1, 870207, Note_off_c, 0, 45, 63
1, 870219, Control_c, 0, 67, 64
1, 870234, Control_c, 0, 67, 50
1, 870249, Control_c, 0, 67, 33
1, 870264, Control_c, 0, 67, 0
1, 870282, Note_off_c, 0, 57, 62
1, 870346, Note_on_c, 0, 45, 53
1, 870398, Note_off_c, 0, 45, 52
1, 870521, Note_on_c, 0, 45, 50
1, 870591, Note_off_c, 0, 45, 44
1, 870725, Note_on_c, 0, 59, 71
1, 870733, Note_on_c, 0, 57, 64
1, 870739, Note_on_c, 0, 50, 60
1, 870740, Note_on_c, 0, 33, 59
1, 870768, Control_c, 0, 64, 91
1, 870782, Control_c, 0, 64, 68
1, 870797, Control_c, 0, 64, 52
1, 870812, Control_c, 0, 64, 42
1, 870826, Control_c, 0, 64, 41
1, 870841, Control_c, 0, 64, 45
1, 870856, Control_c, 0, 64, 59
1, 870871, Control_c, 0, 64, 71
1, 870886, Control_c, 0, 64, 84
1, 870900, Control_c, 0, 64, 101
1, 870915, Control_c, 0, 64, 127
1, 870919, Note_off_c, 0, 33, 56
1, 870920, Note_on_c, 0, 45, 62
1, 870965, Note_off_c, 0, 45, 60
1, 870976, Note_off_c, 0, 50, 61
1, 871060, Note_off_c, 0, 57, 61
1, 871072, Note_off_c, 0, 59, 63
1, 871110, Note_on_c, 0, 45, 64
1, 871172, Note_off_c, 0, 45, 60
1, 871307, Note_on_c, 0, 45, 53
1, 871378, Note_off_c, 0, 45, 52
1, 871556, Note_on_c, 0, 61, 74
1, 871567, Note_on_c, 0, 33, 62
1, 871569, Note_on_c, 0, 57, 59
1, 871572, Note_on_c, 0, 52, 46
1, 871605, Control_c, 0, 64, 81
1, 871620, Control_c, 0, 64, 60
1, 871635, Control_c, 0, 64, 38
1, 871649, Control_c, 0, 64, 0
1, 871686, Control_c, 0, 64, 41
1, 871701, Control_c, 0, 64, 58
1, 871716, Control_c, 0, 64, 71
1, 871731, Control_c, 0, 64, 85
1, 871746, Control_c, 0, 64, 104
1, 871761, Control_c, 0, 64, 127
1, 871767, Note_on_c, 0, 45, 55
1, 871770, Note_off_c, 0, 33, 57
1, 871812, Note_off_c, 0, 45, 57
1, 871831, Note_off_c, 0, 57, 52
1, 871852, Note_off_c, 0, 52, 36
1, 871937, Note_on_c, 0, 45, 55
1, 872002, Note_off_c, 0, 45, 59
1, 872112, Note_on_c, 0, 59, 67
1, 872124, Note_on_c, 0, 45, 59
1, 872133, Note_on_c, 0, 50, 47
1, 872162, Note_off_c, 0, 45, 57
1, 872174, Note_off_c, 0, 50, 57
1, 872305, Note_on_c, 0, 45, 57
1, 872308, Note_on_c, 0, 57, 66
1, 872327, Note_on_c, 0, 49, 50
1, 872369, Control_c, 0, 67, 48
1, 872370, Note_off_c, 0, 45, 58
1, 872384, Note_off_c, 0, 61, 36
1, 872384, Control_c, 0, 64, 93
1, 872384, Control_c, 0, 67, 52
1, 872398, Control_c, 0, 64, 79
1, 872413, Control_c, 0, 64, 75
1, 872413, Control_c, 0, 67, 53
1, 872435, Control_c, 0, 64, 77
1, 872435, Control_c, 0, 67, 54
1, 872450, Control_c, 0, 64, 85
1, 872465, Control_c, 0, 64, 111
1, 872465, Control_c, 0, 67, 53
1, 872479, Control_c, 0, 64, 127
1, 872479, Control_c, 0, 67, 52
1, 872488, Note_on_c, 0, 45, 64
1, 872494, Control_c, 0, 67, 51
1, 872509, Control_c, 0, 67, 52
1, 872539, Control_c, 0, 67, 51
1, 872583, Control_c, 0, 67, 53
1, 872598, Control_c, 0, 67, 54
1, 872613, Control_c, 0, 64, 109
1, 872628, Control_c, 0, 64, 84
1, 872643, Control_c, 0, 64, 68
1, 872643, Control_c, 0, 67, 56
1, 872658, Control_c, 0, 64, 53
1, 872658, Control_c, 0, 67, 58
1, 872671, Note_off_c, 0, 45, 29
1, 872672, Control_c, 0, 64, 31
1, 872672, Control_c, 0, 67, 64
1, 872675, Note_on_c, 0, 33, 68
1, 872687, Control_c, 0, 64, 0
1, 872687, Control_c, 0, 67, 73
1, 872702, Control_c, 0, 67, 75
1, 872717, Control_c, 0, 67, 75
1, 872746, Control_c, 0, 67, 74
1, 872760, Control_c, 0, 67, 71
1, 872775, Control_c, 0, 67, 68
1, 872790, Control_c, 0, 64, 47
1, 872790, Control_c, 0, 67, 65
1, 872804, Control_c, 0, 64, 68
1, 872804, Control_c, 0, 67, 63
1, 872819, Control_c, 0, 64, 82
1, 872819, Control_c, 0, 67, 63
1, 872834, Control_c, 0, 64, 111
1, 872834, Control_c, 0, 67, 61
1, 872849, Note_on_c, 0, 45, 59
1, 872849, Control_c, 0, 64, 127
1, 872849, Control_c, 0, 67, 58
1, 872864, Control_c, 0, 67, 57
1, 872879, Control_c, 0, 67, 56
1, 872887, Note_off_c, 0, 33, 60
1, 872893, Control_c, 0, 67, 54
1, 872896, Note_off_c, 0, 59, 37
1, 872903, Note_off_c, 0, 49, 54
1, 872908, Control_c, 0, 67, 52
1, 872923, Control_c, 0, 67, 50
1, 872953, Control_c, 0, 67, 51
1, 872968, Control_c, 0, 67, 52
1, 872997, Control_c, 0, 67, 53
1, 873012, Control_c, 0, 67, 60
1, 873022, Note_off_c, 0, 45, 50
1, 873025, Note_on_c, 0, 31, 69
1, 873027, Control_c, 0, 67, 68
1, 873042, Control_c, 0, 67, 70
1, 873072, Control_c, 0, 64, 80
1, 873087, Control_c, 0, 64, 58
1, 873100, Note_on_c, 0, 61, 33
1, 873102, Control_c, 0, 64, 0
1, 873102, Control_c, 0, 67, 69
1, 873117, Control_c, 0, 67, 68
1, 873132, Control_c, 0, 67, 65
1, 873147, Control_c, 0, 67, 61
1, 873162, Control_c, 0, 67, 59
1, 873183, Control_c, 0, 64, 41
1, 873183, Control_c, 0, 67, 57
1, 873192, Note_off_c, 0, 61, 56
1, 873198, Control_c, 0, 64, 63
1, 873198, Control_c, 0, 67, 54
1, 873209, Note_on_c, 0, 43, 66
1, 873213, Control_c, 0, 64, 81
1, 873213, Control_c, 0, 67, 52
1, 873217, Note_off_c, 0, 31, 63
1, 873227, Control_c, 0, 64, 127
1, 873227, Control_c, 0, 67, 48
1, 873242, Note_off_c, 0, 57, 62
1, 873242, Control_c, 0, 67, 45
1, 873257, Control_c, 0, 67, 42
1, 873272, Control_c, 0, 67, 34
1, 873287, Control_c, 0, 67, 0
1, 873420, Control_c, 0, 64, 74
1, 873426, Note_on_c, 0, 61, 77
1, 873431, Note_off_c, 0, 43, 39
1, 873433, Note_on_c, 0, 58, 76
1, 873435, Control_c, 0, 64, 49
1, 873439, Note_on_c, 0, 54, 62
1, 873443, Note_on_c, 0, 52, 59
1, 873448, Note_on_c, 0, 30, 60
1, 873450, Control_c, 0, 64, 0
1, 873494, Control_c, 0, 64, 32
1, 873509, Control_c, 0, 64, 53
1, 873524, Control_c, 0, 64, 67
1, 873539, Control_c, 0, 64, 75
1, 873553, Control_c, 0, 64, 87
1, 873553, Control_c, 0, 67, 34
1, 873558, Note_off_c, 0, 30, 59
1, 873568, Control_c, 0, 64, 127
1, 873568, Control_c, 0, 67, 57
1, 873571, Note_off_c, 0, 52, 62
1, 873583, Control_c, 0, 67, 69
1, 873598, Control_c, 0, 67, 70
1, 873610, Note_on_c, 0, 42, 54
1, 873611, Note_off_c, 0, 58, 63
1, 873612, Note_off_c, 0, 54, 53
1, 873613, Control_c, 0, 67, 72
1, 873627, Control_c, 0, 67, 82
1, 873642, Control_c, 0, 67, 108
1, 873657, Control_c, 0, 67, 127
1, 873668, Note_off_c, 0, 42, 54
1, 873673, Note_off_c, 0, 61, 33
1, 873821, Note_on_c, 0, 62, 81
1, 873832, Note_on_c, 0, 59, 79
1, 873833, Note_on_c, 0, 54, 62
1, 873838, Note_on_c, 0, 35, 68
1, 873840, Note_on_c, 0, 50, 55
1, 873850, Control_c, 0, 64, 101
1, 873865, Control_c, 0, 64, 73
1, 873880, Control_c, 0, 64, 53
1, 873895, Control_c, 0, 64, 0
1, 874021, Control_c, 0, 64, 30
1, 874036, Control_c, 0, 64, 51
1, 874050, Control_c, 0, 64, 64
1, 874065, Control_c, 0, 64, 74
1, 874080, Note_on_c, 0, 47, 50
1, 874080, Control_c, 0, 64, 86
1, 874092, Note_off_c, 0, 50, 38
1, 874095, Control_c, 0, 64, 101
1, 874110, Control_c, 0, 64, 127
1, 874112, Note_off_c, 0, 47, 52
1, 874142, Note_off_c, 0, 62, 60
1, 874179, Note_off_c, 0, 59, 63
1, 874196, Note_off_c, 0, 35, 55
1, 874212, Note_off_c, 0, 54, 55
1, 874224, Note_on_c, 0, 47, 45
1, 874402, Note_on_c, 0, 61, 72
1, 874411, Note_on_c, 0, 54, 59
1, 874413, Note_on_c, 0, 49, 60
1, 874413, Note_on_c, 0, 58, 65
1, 874425, Note_on_c, 0, 52, 49
1, 874454, Note_off_c, 0, 47, 51
1, 874454, Note_off_c, 0, 52, 62
1, 874463, Note_off_c, 0, 54, 61
1, 874472, Note_off_c, 0, 58, 60
1, 874650, Note_on_c, 0, 59, 82
1, 874673, Note_on_c, 0, 50, 58
1, 874676, Note_on_c, 0, 54, 66
1, 874689, Note_off_c, 0, 61, 64
1, 874696, Control_c, 0, 64, 89
1, 874711, Control_c, 0, 64, 65
1, 874726, Control_c, 0, 64, 39
1, 874729, Note_off_c, 0, 54, 39
1, 874731, Note_off_c, 0, 49, 55
1, 874741, Control_c, 0, 64, 0
1, 874814, Control_c, 0, 64, 43
1, 874829, Control_c, 0, 64, 60
1, 874830, Note_off_c, 0, 50, 63
1, 874844, Control_c, 0, 64, 73
1, 874859, Control_c, 0, 64, 84
1, 874864, Note_on_c, 0, 47, 55
1, 874873, Note_off_c, 0, 59, 63
1, 874873, Control_c, 0, 64, 98
1, 874888, Control_c, 0, 64, 127
1, 875067, Note_on_c, 0, 62, 73
1, 875075, Note_on_c, 0, 35, 55
1, 875081, Control_c, 0, 64, 123
1, 875088, Note_on_c, 0, 50, 42
1, 875089, Note_on_c, 0, 54, 53
1, 875096, Control_c, 0, 64, 77
1, 875109, Note_off_c, 0, 47, 24
1, 875111, Control_c, 0, 64, 60
1, 875126, Control_c, 0, 64, 46
1, 875140, Control_c, 0, 64, 43
1, 875155, Control_c, 0, 64, 47
1, 875159, Note_off_c, 0, 50, 60
1, 875170, Control_c, 0, 64, 57
1, 875185, Control_c, 0, 64, 66
1, 875199, Control_c, 0, 64, 76
1, 875214, Note_off_c, 0, 35, 51
1, 875214, Control_c, 0, 64, 90
1, 875220, Note_off_c, 0, 54, 38
1, 875229, Control_c, 0, 64, 103
1, 875236, Note_on_c, 0, 56, 54
1, 875244, Control_c, 0, 64, 123
1, 875254, Note_on_c, 0, 47, 55
1, 875259, Control_c, 0, 64, 127
1, 875262, Note_off_c, 0, 56, 60
1, 875445, Control_c, 0, 64, 104
1, 875451, Note_on_c, 0, 61, 65
1, 875460, Control_c, 0, 64, 70
1, 875469, Note_on_c, 0, 57, 55
1, 875472, Note_on_c, 0, 37, 61
1, 875475, Control_c, 0, 64, 50
1, 875484, Note_off_c, 0, 62, 61
1, 875489, Note_off_c, 0, 47, 39
1, 875490, Control_c, 0, 64, 0
1, 875496, Note_on_c, 0, 52, 43
1, 875549, Control_c, 0, 64, 37
1, 875564, Control_c, 0, 64, 51
1, 875578, Control_c, 0, 64, 61
1, 875593, Control_c, 0, 64, 68
1, 875602, Note_off_c, 0, 37, 63
1, 875608, Control_c, 0, 64, 78
1, 875622, Control_c, 0, 64, 94
1, 875637, Control_c, 0, 64, 127
1, 875648, Note_off_c, 0, 57, 63
1, 875661, Note_on_c, 0, 49, 48
1, 875705, Note_off_c, 0, 52, 43
1, 875842, Note_on_c, 0, 59, 69
1, 875844, Note_off_c, 0, 61, 64
1, 875845, Note_off_c, 0, 49, 34
1, 875845, Control_c, 0, 64, 102
1, 875859, Control_c, 0, 64, 67
1, 875865, Note_on_c, 0, 40, 52
1, 875866, Note_on_c, 0, 56, 48
1, 875874, Control_c, 0, 64, 44
1, 875887, Note_on_c, 0, 50, 35
1, 875889, Control_c, 0, 64, 0
1, 875919, Control_c, 0, 64, 28
1, 875934, Control_c, 0, 64, 47
1, 875948, Control_c, 0, 64, 62
1, 875963, Control_c, 0, 64, 73
1, 875978, Control_c, 0, 64, 88
1, 875991, Note_off_c, 0, 50, 37
1, 875993, Control_c, 0, 64, 127
1, 876006, Note_off_c, 0, 59, 63
1, 876014, Note_off_c, 0, 56, 62
1, 876026, Note_off_c, 0, 40, 59
1, 876033, Note_on_c, 0, 52, 31
1, 876071, Note_off_c, 0, 52, 55
1, 876246, Note_on_c, 0, 56, 48
1, 876250, Note_on_c, 0, 59, 55
1, 876253, Note_on_c, 0, 52, 37
1, 876268, Note_on_c, 0, 50, 40
1, 876298, Control_c, 0, 64, 97
1, 876313, Control_c, 0, 64, 77
1, 876327, Control_c, 0, 64, 63
1, 876342, Control_c, 0, 64, 50
1, 876357, Control_c, 0, 64, 40
1, 876371, Control_c, 0, 64, 32
1, 876386, Control_c, 0, 64, 0
1, 876450, Note_on_c, 0, 40, 45
1, 876622, Note_on_c, 0, 44, 49
1, 876632, Note_off_c, 0, 40, 48
1, 876720, Note_off_c, 0, 50, 46
1, 876755, Note_off_c, 0, 56, 59
1, 876800, Note_on_c, 0, 40, 42
1, 876854, Note_off_c, 0, 44, 59
1, 876998, Note_on_c, 0, 45, 44
1, 877005, Note_on_c, 0, 49, 47
1, 877007, Note_off_c, 0, 40, 52
1, 877007, Note_on_c, 0, 57, 50
1, 877028, Note_off_c, 0, 45, 58
1, 877046, Note_off_c, 0, 59, 59
1, 877120, Note_off_c, 0, 52, 37
1, 877195, Note_on_c, 0, 37, 56
1, 877249, Note_off_c, 0, 37, 62
1, 877372, Note_on_c, 0, 38, 70
1, 877413, Note_off_c, 0, 38, 62
1, 877549, Note_on_c, 0, 40, 65
1, 877554, Note_off_c, 0, 49, 35
1, 877603, Note_off_c, 0, 40, 59
1, 877737, Note_on_c, 0, 42, 66
1, 877779, Note_off_c, 0, 42, 63
1, 877827, Note_off_c, 0, 57, 63
1, 877924, Note_on_c, 0, 40, 55
1, 877973, Note_off_c, 0, 40, 58
1, 878116, Note_on_c, 0, 42, 50
1, 878168, Note_off_c, 0, 42, 58
1, 878311, Note_on_c, 0, 44, 49
1, 878385, Note_off_c, 0, 44, 53
1, 878555, Note_on_c, 0, 69, 58
1, 878587, Control_c, 0, 64, 38
1, 878596, Note_on_c, 0, 45, 34
1, 878602, Control_c, 0, 64, 52
1, 878617, Control_c, 0, 64, 63
1, 878632, Control_c, 0, 64, 68
1, 878647, Control_c, 0, 64, 75
1, 878662, Control_c, 0, 64, 85
1, 878677, Control_c, 0, 64, 101
1, 878692, Control_c, 0, 64, 127
1, 878740, Note_off_c, 0, 45, 50
1, 878742, Note_on_c, 0, 64, 41
1, 878834, Note_off_c, 0, 64, 60
1, 878873, Note_on_c, 0, 61, 39
1, 878946, Note_off_c, 0, 61, 52
1, 878995, Note_on_c, 0, 64, 42
1, 878997, Note_on_c, 0, 52, 41
1, 879007, Note_on_c, 0, 49, 27
1, 879036, Note_off_c, 0, 52, 56
1, 879045, Note_off_c, 0, 69, 41
1, 879056, Note_off_c, 0, 49, 46
1, 879072, Note_off_c, 0, 64, 46
1, 879100, Note_on_c, 0, 61, 40
1, 879186, Note_off_c, 0, 61, 52
1, 879226, Note_on_c, 0, 57, 46
1, 879332, Note_on_c, 0, 69, 76
1, 879347, Note_off_c, 0, 57, 34
1, 879362, Note_on_c, 0, 45, 45
1, 879380, Control_c, 0, 64, 105
1, 879395, Control_c, 0, 64, 77
1, 879410, Control_c, 0, 64, 63
1, 879425, Control_c, 0, 64, 58
1, 879441, Control_c, 0, 64, 61
1, 879450, Note_on_c, 0, 64, 54
1, 879456, Control_c, 0, 64, 68
1, 879470, Control_c, 0, 64, 81
1, 879485, Control_c, 0, 64, 114
1, 879487, Note_off_c, 0, 45, 60
1, 879501, Control_c, 0, 64, 127
1, 879556, Note_off_c, 0, 64, 53
1, 879579, Note_on_c, 0, 61, 46
1, 879654, Note_off_c, 0, 61, 47
1, 879669, Note_on_c, 0, 49, 52
1, 879689, Note_on_c, 0, 64, 54
1, 879693, Note_on_c, 0, 52, 34
1, 879715, Note_off_c, 0, 49, 57
1, 879737, Note_off_c, 0, 52, 48
1, 879777, Note_off_c, 0, 69, 37
1, 879782, Note_off_c, 0, 64, 59
1, 879799, Note_on_c, 0, 61, 50
1, 879812, Control_c, 0, 67, 121
1, 879827, Control_c, 0, 67, 110
1, 879842, Control_c, 0, 67, 100
1, 879856, Control_c, 0, 67, 97
1, 879884, Note_off_c, 0, 61, 59
1, 879901, Control_c, 0, 67, 95
1, 879925, Note_on_c, 0, 57, 51
1, 879981, Note_off_c, 0, 57, 59
1, 880012, Control_c, 0, 67, 98
1, 880017, Note_on_c, 0, 71, 85
1, 880027, Control_c, 0, 67, 101
1, 880055, Note_on_c, 0, 45, 55
1, 880071, Control_c, 0, 64, 103
1, 880071, Control_c, 0, 67, 104
1, 880086, Control_c, 0, 64, 72
1, 880086, Control_c, 0, 67, 109
1, 880101, Control_c, 0, 64, 53
1, 880101, Control_c, 0, 67, 112
1, 880115, Control_c, 0, 64, 38
1, 880145, Control_c, 0, 64, 49
1, 880151, Note_on_c, 0, 68, 63
1, 880160, Control_c, 0, 64, 63
1, 880175, Control_c, 0, 64, 78
1, 880189, Control_c, 0, 64, 112
1, 880204, Control_c, 0, 64, 127
1, 880218, Note_off_c, 0, 45, 36
1, 880235, Control_c, 0, 67, 116
1, 880250, Control_c, 0, 67, 118
1, 880267, Note_on_c, 0, 64, 44
1, 880268, Note_off_c, 0, 68, 58
1, 880324, Control_c, 0, 67, 120
1, 880338, Control_c, 0, 67, 122
1, 880368, Control_c, 0, 67, 124
1, 880383, Control_c, 0, 67, 127
1, 880389, Note_on_c, 0, 68, 59
1, 880391, Note_off_c, 0, 64, 52
1, 880401, Note_on_c, 0, 50, 36
1, 880417, Note_on_c, 0, 52, 31
1, 880480, Note_off_c, 0, 52, 56
1, 880480, Note_off_c, 0, 50, 60
1, 880501, Note_off_c, 0, 71, 52
1, 880524, Note_on_c, 0, 64, 49
1, 880528, Note_off_c, 0, 68, 54
1, 880625, Note_off_c, 0, 64, 54
1, 880627, Note_on_c, 0, 59, 56
1, 880687, Note_off_c, 0, 59, 50
1, 880790, Note_on_c, 0, 73, 75
1, 880843, Note_on_c, 0, 45, 55
1, 880894, Control_c, 0, 64, 81
1, 880909, Control_c, 0, 64, 60
1, 880924, Control_c, 0, 64, 41
1, 880938, Control_c, 0, 64, 32
1, 880943, Note_on_c, 0, 69, 49
1, 880953, Control_c, 0, 64, 34
1, 880968, Control_c, 0, 64, 45
1, 880983, Control_c, 0, 64, 57
1, 880997, Control_c, 0, 64, 65
1, 881011, Control_c, 0, 64, 70
1, 881026, Control_c, 0, 64, 76
1, 881042, Control_c, 0, 64, 83
1, 881049, Note_off_c, 0, 45, 58
1, 881057, Control_c, 0, 64, 95
1, 881072, Control_c, 0, 64, 112
1, 881087, Note_on_c, 0, 64, 46
1, 881087, Control_c, 0, 64, 127
1, 881118, Note_off_c, 0, 69, 38
1, 881245, Note_on_c, 0, 69, 50
1, 881253, Note_off_c, 0, 64, 37
1, 881285, Note_on_c, 0, 52, 29
1, 881324, Note_off_c, 0, 73, 53
1, 881371, Note_on_c, 0, 64, 44
1, 881377, Note_off_c, 0, 52, 37
1, 881430, Note_off_c, 0, 69, 33
1, 881472, Note_on_c, 0, 62, 51
1, 881477, Note_off_c, 0, 64, 49
1, 881527, Note_off_c, 0, 62, 48
1, 881581, Note_on_c, 0, 71, 68
1, 881707, Note_on_c, 0, 69, 66
1, 881731, Control_c, 0, 64, 94
1, 881739, Note_off_c, 0, 71, 62
1, 881746, Control_c, 0, 64, 70
1, 881760, Control_c, 0, 64, 56
1, 881762, Note_on_c, 0, 45, 29
1, 881775, Control_c, 0, 64, 50
1, 881790, Control_c, 0, 64, 53
1, 881805, Control_c, 0, 64, 60
1, 881820, Control_c, 0, 64, 68
1, 881836, Control_c, 0, 64, 78
1, 881850, Note_on_c, 0, 64, 50
1, 881851, Control_c, 0, 64, 91
1, 881865, Control_c, 0, 64, 99
1, 881880, Control_c, 0, 64, 123
1, 881885, Note_off_c, 0, 45, 60
1, 881895, Control_c, 0, 64, 127
1, 881934, Note_off_c, 0, 64, 61
1, 882005, Poly_aftertouch_c, 0, 61, 127
1, 882039, Poly_aftertouch_c, 0, 61, 0
1, 882068, Note_on_c, 0, 49, 44
1, 882081, Note_on_c, 0, 64, 47
1, 882097, Note_on_c, 0, 52, 26
1, 882107, Note_off_c, 0, 49, 58
1, 882137, Note_off_c, 0, 52, 46
1, 882176, Note_on_c, 0, 61, 48
1, 882178, Note_off_c, 0, 64, 61
1, 882267, Note_off_c, 0, 61, 50
1, 882306, Note_on_c, 0, 57, 46
1, 882332, Note_off_c, 0, 57, 56
1, 882405, Note_on_c, 0, 45, 60
1, 882433, Note_off_c, 0, 45, 64
1, 882540, Note_on_c, 0, 61, 38
1, 882606, Note_on_c, 0, 64, 63
1, 882625, Note_off_c, 0, 69, 40
1, 882629, Note_off_c, 0, 61, 59
1, 882644, Note_off_c, 0, 64, 65
1, 882756, Note_on_c, 0, 73, 86
1, 882771, Note_on_c, 0, 61, 52
1, 882780, Note_on_c, 0, 57, 40
1, 882792, Note_on_c, 0, 52, 42
1, 882802, Note_off_c, 0, 61, 64
1, 882805, Note_off_c, 0, 57, 55
1, 882825, Note_off_c, 0, 52, 49
1, 882837, Control_c, 0, 67, 123
1, 882852, Control_c, 0, 67, 119
1, 882895, Note_on_c, 0, 64, 62
1, 883022, Control_c, 0, 67, 121
1, 883037, Control_c, 0, 67, 124
1, 883043, Note_on_c, 0, 69, 52
1, 883052, Control_c, 0, 67, 126
1, 883068, Note_off_c, 0, 64, 32
1, 883074, Note_off_c, 0, 73, 57
1, 883196, Note_on_c, 0, 74, 85
1, 883211, Note_off_c, 0, 69, 53
1, 883236, Note_on_c, 0, 45, 48
1, 883273, Control_c, 0, 64, 95
1, 883288, Control_c, 0, 64, 69
1, 883303, Control_c, 0, 64, 41
1, 883318, Control_c, 0, 64, 0
1, 883377, Note_on_c, 0, 69, 45
1, 883377, Control_c, 0, 64, 47
1, 883392, Control_c, 0, 64, 64
1, 883407, Control_c, 0, 64, 76
1, 883422, Control_c, 0, 64, 90
1, 883437, Control_c, 0, 64, 107
1, 883452, Control_c, 0, 64, 127
1, 883479, Note_on_c, 0, 66, 58
1, 883491, Note_off_c, 0, 69, 57
1, 883505, Note_off_c, 0, 66, 65
1, 883619, Note_on_c, 0, 69, 57
1, 883646, Note_on_c, 0, 54, 26
1, 883648, Note_on_c, 0, 57, 26
1, 883682, Note_off_c, 0, 45, 34
1, 883705, Note_off_c, 0, 69, 59
1, 883710, Note_off_c, 0, 57, 43
1, 883732, Note_on_c, 0, 66, 54
1, 883735, Note_off_c, 0, 54, 50
1, 883784, Note_off_c, 0, 66, 56
1, 883845, Note_on_c, 0, 64, 36
1, 883878, Note_off_c, 0, 64, 54
1, 883945, Note_on_c, 0, 73, 80
1, 883987, Note_off_c, 0, 74, 55
1, 884084, Note_on_c, 0, 71, 73
1, 884117, Note_on_c, 0, 45, 41
1, 884141, Control_c, 0, 64, 114
1, 884155, Control_c, 0, 64, 80
1, 884170, Control_c, 0, 64, 64
1, 884180, Note_off_c, 0, 73, 50
1, 884185, Control_c, 0, 64, 55
1, 884215, Control_c, 0, 64, 60
1, 884219, Note_on_c, 0, 62, 58
1, 884231, Control_c, 0, 64, 74
1, 884246, Control_c, 0, 64, 104
1, 884260, Control_c, 0, 64, 127
1, 884322, Note_off_c, 0, 62, 36
1, 884342, Note_on_c, 0, 69, 62
1, 884459, Note_on_c, 0, 74, 90
1, 884460, Control_c, 0, 64, 102
1, 884466, Note_off_c, 0, 71, 63
1, 884471, Note_on_c, 0, 54, 53
1, 884473, Note_on_c, 0, 73, 59
1, 884475, Note_off_c, 0, 69, 61
1, 884475, Control_c, 0, 64, 78
1, 884489, Note_on_c, 0, 57, 46
1, 884490, Control_c, 0, 64, 66
1, 884505, Control_c, 0, 64, 64
1, 884507, Note_off_c, 0, 73, 46
1, 884519, Control_c, 0, 64, 68
1, 884534, Control_c, 0, 64, 89
1, 884549, Control_c, 0, 64, 127
1, 884593, Note_on_c, 0, 66, 59
1, 884596, Note_off_c, 0, 54, 60
1, 884639, Note_off_c, 0, 45, 55
1, 884653, Control_c, 0, 67, 124
1, 884668, Control_c, 0, 67, 115
1, 884683, Control_c, 0, 67, 107
1, 884710, Note_off_c, 0, 66, 53
1, 884712, Control_c, 0, 67, 103
1, 884722, Note_off_c, 0, 57, 26
1, 884727, Control_c, 0, 67, 95
1, 884728, Note_on_c, 0, 69, 48
1, 884742, Control_c, 0, 67, 89
1, 884773, Note_off_c, 0, 69, 55
1, 884786, Control_c, 0, 67, 88
1, 884816, Control_c, 0, 67, 89
1, 884822, Note_on_c, 0, 73, 87
1, 884831, Control_c, 0, 67, 93
1, 884846, Control_c, 0, 64, 80
1, 884846, Control_c, 0, 67, 93
1, 884860, Control_c, 0, 64, 62
1, 884862, Note_on_c, 0, 57, 52
1, 884863, Note_off_c, 0, 74, 57
1, 884866, Note_on_c, 0, 52, 48
1, 884875, Control_c, 0, 64, 51
1, 884875, Control_c, 0, 67, 93
1, 884890, Control_c, 0, 64, 52
1, 884904, Control_c, 0, 64, 59
1, 884904, Control_c, 0, 67, 93
1, 884919, Control_c, 0, 64, 71
1, 884919, Control_c, 0, 67, 94
1, 884934, Control_c, 0, 64, 97
1, 884934, Control_c, 0, 67, 93
1, 884949, Control_c, 0, 64, 127
1, 884964, Control_c, 0, 67, 94
1, 884968, Note_on_c, 0, 69, 62
1, 884978, Control_c, 0, 67, 99
1, 884993, Control_c, 0, 67, 103
1, 885039, Control_c, 0, 67, 105
1, 885059, Note_off_c, 0, 73, 57
1, 885076, Note_off_c, 0, 69, 62
1, 885081, Note_off_c, 0, 57, 32
1, 885087, Note_on_c, 0, 64, 58
1, 885098, Control_c, 0, 67, 103
1, 885120, Note_off_c, 0, 64, 65
1, 885142, Control_c, 0, 67, 105
1, 885171, Note_off_c, 0, 52, 33
1, 885195, Control_c, 0, 67, 109
1, 885207, Note_on_c, 0, 69, 80
1, 885209, Control_c, 0, 67, 115
1, 885224, Control_c, 0, 64, 98
1, 885224, Control_c, 0, 67, 127
1, 885234, Note_on_c, 0, 57, 48
1, 885239, Control_c, 0, 64, 69
1, 885249, Note_on_c, 0, 49, 49
1, 885254, Control_c, 0, 64, 52
1, 885269, Control_c, 0, 64, 49
1, 885283, Control_c, 0, 64, 55
1, 885298, Control_c, 0, 64, 65
1, 885313, Control_c, 0, 64, 82
1, 885327, Note_off_c, 0, 57, 60
1, 885328, Control_c, 0, 64, 127
1, 885337, Note_on_c, 0, 64, 62
1, 885349, Note_off_c, 0, 69, 60
1, 885366, Note_off_c, 0, 49, 60
1, 885434, Note_off_c, 0, 64, 58
1, 885467, Note_on_c, 0, 61, 57
1, 885497, Note_off_c, 0, 61, 62
1, 885625, Note_on_c, 0, 68, 73
1, 885664, Note_on_c, 0, 40, 48
1, 885667, Control_c, 0, 64, 85
1, 885681, Control_c, 0, 64, 65
1, 885696, Control_c, 0, 64, 47
1, 885711, Control_c, 0, 64, 0
1, 885796, Note_on_c, 0, 64, 63
1, 885831, Control_c, 0, 64, 41
1, 885845, Control_c, 0, 64, 52
1, 885860, Control_c, 0, 64, 59
1, 885875, Control_c, 0, 64, 65
1, 885890, Control_c, 0, 64, 72
1, 885912, Control_c, 0, 64, 85
1, 885919, Note_on_c, 0, 59, 53
1, 885927, Control_c, 0, 64, 112
1, 885941, Note_off_c, 0, 64, 40
1, 885942, Control_c, 0, 64, 127
1, 886035, Note_off_c, 0, 59, 56
1, 886036, Note_on_c, 0, 52, 47
1, 886073, Note_on_c, 0, 64, 50
1, 886131, Note_off_c, 0, 40, 29
1, 886183, Note_on_c, 0, 59, 47
1, 886230, Note_off_c, 0, 64, 38
1, 886307, Note_on_c, 0, 56, 34
1, 886317, Note_off_c, 0, 59, 55
1, 886329, Note_off_c, 0, 52, 23
1, 886402, Control_c, 0, 64, 91
1, 886417, Control_c, 0, 64, 75
1, 886424, Note_on_c, 0, 40, 43
1, 886431, Control_c, 0, 64, 67
1, 886432, Note_on_c, 0, 64, 54
1, 886434, Note_off_c, 0, 56, 25
1, 886446, Control_c, 0, 64, 66
1, 886461, Control_c, 0, 64, 70
1, 886475, Control_c, 0, 64, 82
1, 886490, Control_c, 0, 64, 105
1, 886505, Control_c, 0, 64, 127
1, 886514, Note_off_c, 0, 40, 60
1, 886564, Note_on_c, 0, 59, 46
1, 886603, Note_off_c, 0, 64, 37
1, 886666, Note_off_c, 0, 59, 59
1, 886677, Note_on_c, 0, 56, 58
1, 886699, Note_off_c, 0, 68, 56
1, 886714, Note_off_c, 0, 56, 58
1, 886807, Note_on_c, 0, 68, 79
1, 886810, Control_c, 0, 64, 81
1, 886825, Control_c, 0, 64, 62
1, 886835, Note_on_c, 0, 50, 37
1, 886840, Control_c, 0, 64, 50
1, 886841, Note_on_c, 0, 52, 39
1, 886854, Control_c, 0, 64, 47
1, 886869, Control_c, 0, 64, 50
1, 886884, Control_c, 0, 64, 61
1, 886898, Control_c, 0, 64, 72
1, 886913, Control_c, 0, 64, 97
1, 886926, Note_on_c, 0, 66, 71
1, 886928, Control_c, 0, 64, 127
1, 886936, Note_off_c, 0, 50, 62
1, 886953, Note_off_c, 0, 52, 51
1, 887044, Note_off_c, 0, 68, 54
1, 887055, Note_on_c, 0, 59, 51
1, 887096, Note_off_c, 0, 59, 49
1, 887126, Note_off_c, 0, 66, 49
1, 887169, Note_on_c, 0, 68, 65
1, 887180, Control_c, 0, 64, 108
1, 887193, Note_on_c, 0, 49, 43
1, 887195, Control_c, 0, 64, 77
1, 887201, Note_on_c, 0, 52, 39
1, 887210, Control_c, 0, 64, 60
1, 887225, Control_c, 0, 64, 44
1, 887240, Control_c, 0, 64, 29
1, 887254, Control_c, 0, 64, 0
1, 887284, Control_c, 0, 64, 32
1, 887298, Control_c, 0, 64, 49
1, 887313, Control_c, 0, 64, 64
1, 887328, Control_c, 0, 64, 73
1, 887330, Note_on_c, 0, 64, 52
1, 887343, Control_c, 0, 64, 79
1, 887353, Note_off_c, 0, 52, 37
1, 887358, Control_c, 0, 64, 81
1, 887359, Note_off_c, 0, 68, 43
1, 887372, Control_c, 0, 64, 86
1, 887386, Note_off_c, 0, 49, 47
1, 887387, Control_c, 0, 64, 98
1, 887410, Control_c, 0, 64, 127
1, 887458, Note_on_c, 0, 61, 48
1, 887479, Note_off_c, 0, 64, 47
1, 887520, Note_off_c, 0, 61, 50
1, 887584, Note_on_c, 0, 68, 55
1, 887589, Control_c, 0, 64, 81
1, 887603, Control_c, 0, 64, 58
1, 887610, Note_on_c, 0, 52, 25
1, 887618, Control_c, 0, 64, 42
1, 887622, Note_on_c, 0, 47, 35
1, 887633, Control_c, 0, 64, 36
1, 887648, Control_c, 0, 64, 38
1, 887663, Control_c, 0, 64, 47
1, 887677, Control_c, 0, 64, 59
1, 887692, Control_c, 0, 64, 67
1, 887707, Control_c, 0, 64, 76
1, 887721, Control_c, 0, 64, 85
1, 887726, Note_on_c, 0, 64, 48
1, 887735, Control_c, 0, 64, 95
1, 887750, Control_c, 0, 64, 114
1, 887765, Control_c, 0, 64, 127
1, 887771, Note_off_c, 0, 52, 35
1, 887776, Note_off_c, 0, 68, 33
1, 887822, Note_off_c, 0, 47, 34
1, 887861, Note_off_c, 0, 64, 46
1, 887875, Note_on_c, 0, 62, 46
1, 887992, Note_off_c, 0, 62, 55
1, 888036, Note_on_c, 0, 69, 63
1, 888046, Control_c, 0, 64, 87
1, 888061, Control_c, 0, 64, 65
1, 888076, Control_c, 0, 64, 45
1, 888080, Note_on_c, 0, 45, 30
1, 888091, Control_c, 0, 64, 0
1, 888120, Control_c, 0, 64, 32
1, 888135, Control_c, 0, 64, 46
1, 888158, Control_c, 0, 64, 59
1, 888173, Control_c, 0, 64, 67
1, 888188, Control_c, 0, 64, 73
1, 888202, Control_c, 0, 64, 80
1, 888203, Note_off_c, 0, 45, 56
1, 888217, Control_c, 0, 64, 88
1, 888228, Note_on_c, 0, 64, 38
1, 888233, Control_c, 0, 64, 97
1, 888248, Control_c, 0, 64, 104
1, 888263, Control_c, 0, 64, 113
1, 888277, Control_c, 0, 64, 127
1, 888311, Note_off_c, 0, 64, 57
1, 888337, Note_on_c, 0, 61, 42
1, 888411, Note_off_c, 0, 61, 48
1, 888425, Note_on_c, 0, 49, 39
1, 888435, Note_on_c, 0, 52, 41
1, 888454, Note_on_c, 0, 64, 48
1, 888469, Note_off_c, 0, 52, 62
1, 888473, Note_off_c, 0, 49, 62
1, 888495, Note_off_c, 0, 69, 56
1, 888542, Note_off_c, 0, 64, 60
1, 888560, Note_on_c, 0, 61, 45
1, 888627, Note_off_c, 0, 61, 50
1, 888668, Note_on_c, 0, 57, 51
1, 888781, Note_on_c, 0, 69, 81
1, 888808, Note_on_c, 0, 45, 47
1, 888825, Control_c, 0, 64, 80
1, 888831, Note_off_c, 0, 57, 55
1, 888840, Control_c, 0, 64, 63
1, 888855, Control_c, 0, 64, 53
1, 888869, Control_c, 0, 64, 55
1, 888884, Control_c, 0, 64, 62
1, 888907, Control_c, 0, 64, 73
1, 888920, Note_on_c, 0, 64, 62
1, 888922, Control_c, 0, 64, 109
1, 888937, Control_c, 0, 64, 127
1, 888961, Note_off_c, 0, 45, 61
1, 889030, Note_off_c, 0, 64, 62
1, 889041, Note_on_c, 0, 61, 53
1, 889142, Note_off_c, 0, 61, 62
1, 889142, Note_on_c, 0, 49, 53
1, 889145, Control_c, 0, 67, 110
1, 889154, Note_on_c, 0, 52, 45
1, 889156, Note_on_c, 0, 64, 58
1, 889160, Control_c, 0, 67, 83
1, 889174, Control_c, 0, 67, 63
1, 889189, Control_c, 0, 67, 43
1, 889197, Note_off_c, 0, 49, 57
1, 889204, Control_c, 0, 67, 0
1, 889205, Note_off_c, 0, 52, 54
1, 889247, Note_off_c, 0, 69, 51
1, 889266, Note_on_c, 0, 61, 59
1, 889272, Note_off_c, 0, 64, 55
1, 889350, Note_off_c, 0, 61, 61
1, 889384, Note_on_c, 0, 57, 57
1, 889434, Note_off_c, 0, 57, 57
1, 889477, Note_on_c, 0, 71, 86
1, 889515, Note_on_c, 0, 45, 50
1, 889530, Control_c, 0, 64, 81
1, 889545, Control_c, 0, 64, 62
1, 889560, Control_c, 0, 64, 46
1, 889575, Control_c, 0, 64, 41
1, 889589, Control_c, 0, 64, 43
1, 889604, Control_c, 0, 64, 54
1, 889616, Note_on_c, 0, 68, 67
1, 889619, Control_c, 0, 64, 67
1, 889634, Control_c, 0, 64, 88
1, 889656, Control_c, 0, 64, 127
1, 889707, Note_off_c, 0, 45, 33
1, 889732, Note_off_c, 0, 68, 59
1, 889744, Note_on_c, 0, 64, 40
1, 889827, Note_off_c, 0, 64, 55
1, 889831, Note_on_c, 0, 68, 69
1, 889831, Note_on_c, 0, 50, 52
1, 889861, Note_on_c, 0, 52, 40
1, 889879, Note_off_c, 0, 50, 57
1, 889899, Note_off_c, 0, 52, 50
1, 889948, Note_on_c, 0, 64, 59
1, 889954, Note_off_c, 0, 71, 53
1, 889998, Note_off_c, 0, 68, 60
1, 890040, Note_on_c, 0, 59, 58
1, 890043, Note_off_c, 0, 64, 62
1, 890110, Note_off_c, 0, 59, 55
1, 890184, Note_on_c, 0, 73, 86
1, 890229, Note_on_c, 0, 45, 45
1, 890235, Control_c, 0, 64, 93
1, 890249, Control_c, 0, 64, 65
1, 890264, Control_c, 0, 64, 45
1, 890264, Control_c, 0, 67, 36
1, 890279, Control_c, 0, 64, 0
1, 890279, Control_c, 0, 67, 54
1, 890294, Control_c, 0, 67, 57
1, 890309, Control_c, 0, 67, 60
1, 890323, Control_c, 0, 67, 69
1, 890338, Note_on_c, 0, 69, 60
1, 890338, Control_c, 0, 67, 96
1, 890353, Control_c, 0, 64, 39
1, 890353, Control_c, 0, 67, 127
1, 890368, Control_c, 0, 64, 60
1, 890383, Control_c, 0, 64, 72
1, 890405, Control_c, 0, 64, 82
1, 890420, Control_c, 0, 64, 90
1, 890435, Control_c, 0, 64, 98
1, 890449, Control_c, 0, 64, 127
1, 890466, Note_on_c, 0, 64, 42
1, 890488, Note_off_c, 0, 69, 58
1, 890505, Note_off_c, 0, 45, 29
1, 890590, Note_off_c, 0, 64, 54
1, 890602, Note_on_c, 0, 69, 65
1, 890612, Note_on_c, 0, 52, 38
1, 890648, Note_off_c, 0, 52, 52
1, 890699, Note_off_c, 0, 73, 54
1, 890714, Note_on_c, 0, 64, 57
1, 890812, Note_off_c, 0, 69, 27
1, 890822, Note_off_c, 0, 64, 51
1, 890834, Note_on_c, 0, 62, 44
1, 890942, Note_off_c, 0, 62, 35
1, 890943, Note_on_c, 0, 71, 71
1, 891079, Note_on_c, 0, 69, 71
1, 891098, Note_off_c, 0, 71, 58
1, 891102, Control_c, 0, 64, 99
1, 891117, Control_c, 0, 64, 75
1, 891125, Note_on_c, 0, 45, 34
1, 891132, Control_c, 0, 64, 61
1, 891154, Control_c, 0, 64, 52
1, 891169, Control_c, 0, 64, 52
1, 891184, Control_c, 0, 64, 55
1, 891199, Note_off_c, 0, 45, 0
1, 891199, Note_on_c, 0, 45, 14
1, 891199, Control_c, 0, 64, 61
1, 891214, Control_c, 0, 64, 68
1, 891228, Control_c, 0, 64, 79
1, 891233, Note_on_c, 0, 64, 58
1, 891243, Control_c, 0, 64, 93
1, 891258, Control_c, 0, 64, 105
1, 891272, Control_c, 0, 64, 127
1, 891309, Note_off_c, 0, 64, 63
1, 891330, Note_off_c, 0, 45, 35
1, 891437, Control_c, 0, 64, 103
1, 891449, Note_on_c, 0, 49, 46
1, 891451, Control_c, 0, 64, 98
1, 891452, Note_on_c, 0, 45, 52
1, 891453, Note_on_c, 0, 52, 45
1, 891453, Note_on_c, 0, 64, 58
1, 891480, Control_c, 0, 64, 116
1, 891494, Control_c, 0, 64, 127
1, 891498, Note_off_c, 0, 45, 55
1, 891510, Note_off_c, 0, 52, 48
1, 891535, Note_off_c, 0, 49, 40
1, 891548, Note_on_c, 0, 61, 63
1, 891664, Note_on_c, 0, 57, 57
1, 891666, Note_off_c, 0, 61, 62
1, 891688, Note_off_c, 0, 57, 64
1, 891689, Note_off_c, 0, 64, 59
1, 891776, Control_c, 0, 64, 90
1, 891783, Note_on_c, 0, 49, 68
1, 891785, Note_on_c, 0, 43, 69
1, 891789, Note_on_c, 0, 52, 63
1, 891791, Control_c, 0, 64, 65
1, 891806, Control_c, 0, 64, 39
1, 891821, Control_c, 0, 64, 0
1, 891865, Control_c, 0, 64, 34
1, 891880, Control_c, 0, 64, 58
1, 891902, Control_c, 0, 64, 73
1, 891917, Note_off_c, 0, 43, 62
1, 891917, Control_c, 0, 64, 107
1, 891932, Control_c, 0, 64, 127
1, 891938, Note_on_c, 0, 64, 66
1, 891948, Note_off_c, 0, 52, 61
1, 891956, Note_off_c, 0, 49, 63
1, 891976, Note_off_c, 0, 69, 39
1, 891987, Note_off_c, 0, 64, 63
1, 892029, Note_on_c, 0, 61, 66
1, 892057, Note_off_c, 0, 61, 65
1, 892124, Control_c, 0, 64, 95
1, 892139, Control_c, 0, 64, 66
1, 892144, Note_on_c, 0, 73, 79
1, 892147, Note_on_c, 0, 54, 78
1, 892148, Note_on_c, 0, 49, 75
1, 892154, Note_on_c, 0, 42, 71
1, 892154, Control_c, 0, 64, 44
1, 892156, Note_on_c, 0, 70, 68
1, 892168, Control_c, 0, 64, 32
1, 892183, Control_c, 0, 64, 42
1, 892198, Control_c, 0, 64, 60
1, 892214, Control_c, 0, 64, 82
1, 892230, Control_c, 0, 64, 127
1, 892252, Note_off_c, 0, 49, 64
1, 892257, Note_off_c, 0, 42, 64
1, 892269, Note_off_c, 0, 54, 61
1, 892274, Control_c, 0, 67, 114
1, 892284, Note_on_c, 0, 66, 74
1, 892289, Control_c, 0, 67, 91
1, 892304, Control_c, 0, 67, 73
1, 892318, Control_c, 0, 67, 54
1, 892333, Control_c, 0, 67, 35
1, 892347, Note_off_c, 0, 70, 59
1, 892348, Control_c, 0, 67, 0
1, 892379, Note_off_c, 0, 73, 50
1, 892386, Note_on_c, 0, 64, 71
1, 892391, Note_off_c, 0, 66, 63
1, 892469, Note_off_c, 0, 64, 59
1, 892533, Note_on_c, 0, 74, 82
1, 892554, Note_on_c, 0, 47, 79
1, 892555, Control_c, 0, 64, 120
1, 892570, Control_c, 0, 64, 80
1, 892585, Control_c, 0, 64, 60
1, 892600, Control_c, 0, 64, 37
1, 892615, Control_c, 0, 64, 0
1, 892711, Control_c, 0, 64, 34
1, 892714, Note_on_c, 0, 71, 61
1, 892725, Control_c, 0, 64, 51
1, 892740, Control_c, 0, 64, 62
1, 892755, Control_c, 0, 64, 63
1, 892821, Note_on_c, 0, 66, 55
1, 892830, Control_c, 0, 64, 62
1, 892839, Note_off_c, 0, 71, 53
1, 892844, Control_c, 0, 64, 59
1, 892844, Control_c, 0, 67, 38
1, 892859, Control_c, 0, 64, 55
1, 892859, Control_c, 0, 67, 39
1, 892874, Control_c, 0, 64, 53
1, 892874, Control_c, 0, 67, 38
1, 892889, Control_c, 0, 64, 54
1, 892904, Control_c, 0, 64, 56
1, 892904, Control_c, 0, 67, 39
1, 892918, Control_c, 0, 64, 59
1, 892918, Control_c, 0, 67, 43
1, 892933, Control_c, 0, 64, 63
1, 892933, Control_c, 0, 67, 48
1, 892943, Note_off_c, 0, 66, 58
1, 892944, Note_on_c, 0, 71, 70
1, 892948, Note_on_c, 0, 54, 56
1, 892948, Control_c, 0, 64, 67
1, 892948, Control_c, 0, 67, 56
1, 892963, Control_c, 0, 64, 75
1, 892963, Control_c, 0, 67, 60
1, 892978, Control_c, 0, 64, 88
1, 892978, Control_c, 0, 67, 68
1, 892992, Control_c, 0, 64, 106
1, 892992, Control_c, 0, 67, 83
1, 893007, Control_c, 0, 64, 127
1, 893007, Control_c, 0, 67, 104
1, 893023, Control_c, 0, 67, 119
1, 893038, Control_c, 0, 67, 125
1, 893053, Control_c, 0, 67, 127
1, 893056, Note_off_c, 0, 71, 59
1, 893059, Note_on_c, 0, 66, 70
1, 893140, Note_off_c, 0, 66, 62
1, 893143, Note_on_c, 0, 64, 59
1, 893168, Note_off_c, 0, 64, 64
1, 893226, Note_on_c, 0, 73, 88
1, 893234, Note_on_c, 0, 58, 72
1, 893268, Note_off_c, 0, 58, 59
1, 893343, Poly_aftertouch_c, 0, 50, 127
1, 893378, Note_on_c, 0, 71, 84
1, 893400, Note_on_c, 0, 59, 76
1, 893402, Note_off_c, 0, 74, 36
1, 893414, Poly_aftertouch_c, 0, 50, 0
1, 893426, Note_off_c, 0, 54, 50
1, 893460, Note_off_c, 0, 73, 52
1, 893460, Control_c, 0, 64, 85
1, 893474, Control_c, 0, 64, 65
1, 893489, Control_c, 0, 64, 50
1, 893504, Control_c, 0, 64, 45
1, 893513, Note_off_c, 0, 47, 25
1, 893519, Control_c, 0, 64, 49
1, 893534, Control_c, 0, 64, 60
1, 893536, Note_on_c, 0, 62, 64
1, 893548, Control_c, 0, 64, 71
1, 893563, Control_c, 0, 64, 91
1, 893578, Control_c, 0, 64, 127
1, 893643, Note_on_c, 0, 66, 71
1, 893656, Note_off_c, 0, 59, 55
1, 893665, Note_off_c, 0, 62, 50
1, 893745, Note_off_c, 0, 66, 63
1, 893756, Note_on_c, 0, 74, 87
1, 893756, Control_c, 0, 64, 107
1, 893758, Note_off_c, 0, 71, 60
1, 893771, Control_c, 0, 64, 74
1, 893777, Note_on_c, 0, 54, 56
1, 893782, Note_on_c, 0, 47, 61
1, 893786, Control_c, 0, 64, 57
1, 893800, Control_c, 0, 64, 49
1, 893816, Control_c, 0, 64, 53
1, 893831, Control_c, 0, 64, 61
1, 893840, Note_off_c, 0, 47, 62
1, 893846, Control_c, 0, 64, 70
1, 893861, Control_c, 0, 64, 84
1, 893876, Control_c, 0, 64, 105
1, 893890, Control_c, 0, 64, 127
1, 893900, Note_on_c, 0, 66, 63
1, 893925, Note_off_c, 0, 54, 37
1, 893937, Note_off_c, 0, 66, 57
1, 893995, Note_on_c, 0, 56, 59
1, 894027, Note_off_c, 0, 56, 61
1, 894033, Note_on_c, 0, 68, 44
1, 894074, Note_off_c, 0, 68, 60
1, 894127, Control_c, 0, 64, 81
1, 894142, Note_on_c, 0, 73, 79
1, 894150, Control_c, 0, 64, 60
1, 894164, Control_c, 0, 64, 37
1, 894171, Note_off_c, 0, 74, 58
1, 894178, Note_on_c, 0, 49, 44
1, 894179, Control_c, 0, 64, 0
1, 894180, Note_on_c, 0, 57, 48
1, 894223, Control_c, 0, 64, 29
1, 894238, Control_c, 0, 64, 46
1, 894253, Control_c, 0, 64, 60
1, 894268, Control_c, 0, 64, 67
1, 894283, Control_c, 0, 64, 73
1, 894293, Note_on_c, 0, 69, 56
1, 894297, Note_off_c, 0, 57, 59
1, 894297, Control_c, 0, 64, 82
1, 894312, Control_c, 0, 64, 94
1, 894327, Control_c, 0, 64, 114
1, 894332, Note_off_c, 0, 73, 57
1, 894342, Control_c, 0, 64, 127
1, 894352, Note_off_c, 0, 69, 56
1, 894363, Note_off_c, 0, 49, 38
1, 894392, Note_on_c, 0, 64, 60
1, 894433, Note_off_c, 0, 64, 57
1, 894520, Note_on_c, 0, 71, 74
1, 894532, Note_on_c, 0, 52, 43
1, 894535, Control_c, 0, 64, 86
1, 894536, Note_on_c, 0, 56, 52
1, 894550, Control_c, 0, 64, 63
1, 894564, Control_c, 0, 64, 42
1, 894579, Control_c, 0, 64, 31
1, 894594, Control_c, 0, 64, 33
1, 894609, Control_c, 0, 64, 44
1, 894624, Control_c, 0, 64, 57
1, 894639, Control_c, 0, 64, 68
1, 894643, Note_on_c, 0, 64, 48
1, 894654, Control_c, 0, 64, 76
1, 894669, Control_c, 0, 64, 83
1, 894684, Control_c, 0, 64, 88
1, 894699, Control_c, 0, 64, 95
1, 894700, Note_off_c, 0, 64, 49
1, 894713, Control_c, 0, 64, 108
1, 894723, Note_off_c, 0, 56, 34
1, 894728, Control_c, 0, 64, 127
1, 894771, Note_on_c, 0, 62, 45
1, 894771, Note_off_c, 0, 71, 50
1, 894818, Note_off_c, 0, 62, 55
1, 894904, Note_on_c, 0, 71, 68
1, 894912, Note_off_c, 0, 52, 33
1, 894913, Control_c, 0, 64, 87
1, 894927, Note_on_c, 0, 45, 47
1, 894928, Control_c, 0, 64, 64
1, 894943, Control_c, 0, 64, 40
1, 894958, Control_c, 0, 64, 0
1, 895002, Control_c, 0, 64, 38
1, 895017, Control_c, 0, 64, 53
1, 895032, Control_c, 0, 64, 63
1, 895039, Note_on_c, 0, 68, 38
1, 895046, Control_c, 0, 64, 69
1, 895061, Control_c, 0, 64, 74
1, 895076, Control_c, 0, 64, 78
1, 895091, Control_c, 0, 64, 84
1, 895106, Control_c, 0, 64, 89
1, 895119, Note_off_c, 0, 68, 56
1, 895120, Control_c, 0, 64, 94
1, 895135, Control_c, 0, 64, 98
1, 895147, Note_on_c, 0, 64, 48
1, 895150, Control_c, 0, 64, 102
1, 895165, Control_c, 0, 64, 106
1, 895180, Control_c, 0, 64, 108
1, 895209, Control_c, 0, 64, 110
1, 895212, Note_off_c, 0, 64, 48
1, 895238, Control_c, 0, 64, 96
1, 895253, Control_c, 0, 64, 76
1, 895268, Control_c, 0, 64, 64
1, 895275, Note_on_c, 0, 56, 48
1, 895276, Note_on_c, 0, 68, 44
1, 895280, Note_on_c, 0, 52, 39
1, 895283, Control_c, 0, 64, 61
1, 895298, Control_c, 0, 64, 65
1, 895313, Control_c, 0, 64, 73
1, 895328, Control_c, 0, 64, 93
1, 895343, Control_c, 0, 64, 127
1, 895372, Note_off_c, 0, 56, 56
1, 895387, Note_off_c, 0, 68, 51
1, 895399, Note_off_c, 0, 45, 34
1, 895400, Note_on_c, 0, 64, 46
1, 895451, Note_off_c, 0, 52, 32
1, 895475, Note_off_c, 0, 64, 57
1, 895521, Note_on_c, 0, 62, 51
1, 895536, Control_c, 0, 64, 89
1, 895547, Note_off_c, 0, 62, 56
1, 895551, Control_c, 0, 64, 70
1, 895566, Control_c, 0, 64, 62
1, 895596, Control_c, 0, 64, 67
1, 895610, Control_c, 0, 64, 78
1, 895625, Control_c, 0, 64, 103
1, 895647, Control_c, 0, 64, 127
1, 895699, Note_on_c, 0, 69, 52
1, 895715, Note_on_c, 0, 57, 30
1, 895718, Note_on_c, 0, 61, 48
1, 895721, Note_on_c, 0, 45, 43
1, 895751, Note_off_c, 0, 57, 54
1, 895752, Note_off_c, 0, 71, 37
1, 895765, Note_off_c, 0, 45, 57
1, 895899, Control_c, 0, 64, 93
1, 895906, Note_on_c, 0, 45, 65
1, 895914, Control_c, 0, 64, 66
1, 895929, Control_c, 0, 64, 44
1, 895943, Control_c, 0, 64, 0
1, 895992, Note_off_c, 0, 45, 58
1, 896104, Note_on_c, 0, 47, 70
1, 896180, Note_off_c, 0, 47, 62
1, 896294, Note_on_c, 0, 49, 62
1, 896403, Note_off_c, 0, 49, 61
1, 896426, Note_off_c, 0, 69, 62
1, 896440, Note_off_c, 0, 61, 60
1, 896494, Note_on_c, 0, 47, 60
1, 896570, Note_off_c, 0, 47, 57
1, 896681, Note_on_c, 0, 45, 51
1, 896759, Note_off_c, 0, 45, 53
1, 896883, Note_on_c, 0, 44, 49
1, 896936, Note_off_c, 0, 44, 57
1, 897077, Note_on_c, 0, 42, 48
1, 897138, Note_off_c, 0, 42, 53
1, 897293, Control_c, 0, 64, 38
1, 897298, Note_on_c, 0, 40, 44
1, 897305, Note_on_c, 0, 59, 54
1, 897308, Control_c, 0, 64, 51
1, 897310, Note_on_c, 0, 56, 34
1, 897322, Control_c, 0, 64, 56
1, 897337, Control_c, 0, 64, 56
1, 897352, Control_c, 0, 64, 57
1, 897367, Control_c, 0, 64, 59
1, 897382, Control_c, 0, 64, 63
1, 897396, Control_c, 0, 64, 68
1, 897411, Control_c, 0, 64, 73
1, 897426, Control_c, 0, 64, 79
1, 897441, Control_c, 0, 64, 84
1, 897456, Control_c, 0, 64, 89
1, 897471, Control_c, 0, 64, 99
1, 897486, Control_c, 0, 64, 127
1, 897512, Note_on_c, 0, 52, 30
1, 897512, Note_off_c, 0, 40, 36
1, 897546, Note_off_c, 0, 56, 40
1, 897549, Note_off_c, 0, 52, 51
1, 897614, Note_off_c, 0, 59, 63
1, 897665, Note_on_c, 0, 52, 47
1, 897723, Note_off_c, 0, 52, 59
1, 897848, Note_on_c, 0, 52, 53
1, 897905, Note_off_c, 0, 52, 53
1, 898043, Note_on_c, 0, 59, 75
1, 898048, Note_on_c, 0, 40, 59
1, 898060, Note_on_c, 0, 56, 52
1, 898071, Control_c, 0, 64, 82
1, 898086, Control_c, 0, 64, 59
1, 898101, Control_c, 0, 64, 34
1, 898116, Control_c, 0, 64, 0
1, 898145, Control_c, 0, 64, 38
1, 898160, Control_c, 0, 64, 54
1, 898175, Control_c, 0, 64, 66
1, 898190, Control_c, 0, 64, 78
1, 898205, Control_c, 0, 64, 98
1, 898211, Note_off_c, 0, 56, 37
1, 898216, Note_off_c, 0, 40, 53
1, 898218, Control_c, 0, 64, 127
1, 898227, Note_on_c, 0, 52, 57
1, 898278, Note_off_c, 0, 52, 53
1, 898366, Control_c, 0, 67, 118
1, 898371, Note_off_c, 0, 59, 64
1, 898380, Control_c, 0, 67, 98
1, 898395, Control_c, 0, 67, 74
1, 898406, Note_on_c, 0, 52, 60
1, 898410, Control_c, 0, 67, 35
1, 898425, Control_c, 0, 67, 0
1, 898463, Note_off_c, 0, 52, 57
1, 898587, Note_on_c, 0, 52, 52
1, 898611, Note_off_c, 0, 52, 60
1, 898788, Note_on_c, 0, 61, 74
1, 898798, Note_on_c, 0, 58, 69
1, 898803, Note_on_c, 0, 37, 61
1, 898831, Note_on_c, 0, 52, 39
1, 898833, Control_c, 0, 64, 114
1, 898848, Control_c, 0, 64, 72
1, 898863, Control_c, 0, 64, 47
1, 898878, Control_c, 0, 64, 0
1, 898893, Note_off_c, 0, 52, 0
1, 898923, Control_c, 0, 64, 50
1, 898930, Poly_aftertouch_c, 0, 52, 127
1, 898938, Control_c, 0, 64, 70
1, 898952, Control_c, 0, 64, 108
1, 898967, Control_c, 0, 64, 127
1, 898982, Note_on_c, 0, 49, 64
1, 898988, Poly_aftertouch_c, 0, 52, 0
1, 898998, Note_off_c, 0, 37, 60
1, 899023, Note_off_c, 0, 49, 59
1, 899067, Note_off_c, 0, 58, 63
1, 899097, Note_off_c, 0, 61, 63
1, 899171, Note_on_c, 0, 49, 63
1, 899233, Note_off_c, 0, 49, 60
1, 899346, Note_on_c, 0, 49, 67
1, 899428, Note_off_c, 0, 49, 60
1, 899586, Note_on_c, 0, 62, 79
1, 899596, Note_on_c, 0, 54, 49
1, 899598, Note_on_c, 0, 59, 59
1, 899603, Note_on_c, 0, 35, 65
1, 899627, Control_c, 0, 64, 86
1, 899642, Control_c, 0, 64, 63
1, 899657, Control_c, 0, 64, 41
1, 899672, Control_c, 0, 64, 0
1, 899731, Control_c, 0, 64, 28
1, 899746, Control_c, 0, 64, 52
1, 899761, Control_c, 0, 64, 68
1, 899765, Note_off_c, 0, 59, 61
1, 899775, Control_c, 0, 64, 78
1, 899781, Note_on_c, 0, 47, 61
1, 899790, Control_c, 0, 64, 88
1, 899792, Note_off_c, 0, 35, 57
1, 899805, Control_c, 0, 64, 101
1, 899820, Control_c, 0, 64, 127
1, 899830, Note_off_c, 0, 47, 57
1, 899973, Note_on_c, 0, 47, 55
1, 900036, Note_off_c, 0, 47, 62
1, 900153, Note_on_c, 0, 64, 76
1, 900159, Note_on_c, 0, 61, 69
1, 900168, Note_on_c, 0, 47, 55
1, 900205, Note_off_c, 0, 62, 57
1, 900243, Note_off_c, 0, 61, 50
1, 900287, Note_off_c, 0, 47, 36
1, 900381, Note_on_c, 0, 66, 82
1, 900391, Note_on_c, 0, 62, 67
1, 900392, Note_on_c, 0, 35, 68
1, 900421, Control_c, 0, 64, 81
1, 900436, Control_c, 0, 64, 59
1, 900449, Note_off_c, 0, 64, 50
1, 900450, Control_c, 0, 64, 0
1, 900510, Control_c, 0, 64, 36
1, 900524, Control_c, 0, 64, 57
1, 900539, Control_c, 0, 64, 71
1, 900554, Control_c, 0, 64, 95
1, 900567, Note_on_c, 0, 47, 58
1, 900568, Note_off_c, 0, 35, 59
1, 900569, Control_c, 0, 64, 127
1, 900599, Note_off_c, 0, 47, 64
1, 900637, Note_off_c, 0, 54, 35
1, 900738, Note_on_c, 0, 47, 65
1, 900800, Note_off_c, 0, 47, 58
1, 900911, Note_on_c, 0, 47, 65
1, 900982, Note_off_c, 0, 47, 58
1, 901090, Note_on_c, 0, 35, 68
1, 901098, Note_on_c, 0, 54, 76
1, 901186, Note_off_c, 0, 62, 61
1, 901207, Note_off_c, 0, 66, 62
1, 901255, Note_on_c, 0, 47, 68
1, 901331, Note_off_c, 0, 35, 37
1, 901450, Note_on_c, 0, 35, 71
1, 901450, Note_on_c, 0, 66, 94
1, 901457, Note_on_c, 0, 56, 76
1, 901459, Note_on_c, 0, 62, 75
1, 901469, Note_off_c, 0, 54, 45
1, 901506, Note_off_c, 0, 56, 59
1, 901522, Note_off_c, 0, 47, 56
1, 901543, Note_off_c, 0, 62, 61
1, 901555, Note_off_c, 0, 66, 68
1, 901611, Note_off_c, 0, 35, 60
1, 901633, Note_on_c, 0, 47, 66
1, 901680, Note_off_c, 0, 47, 59
1, 901840, Note_on_c, 0, 33, 77
1, 901840, Note_on_c, 0, 66, 92
1, 901852, Note_on_c, 0, 62, 69
1, 901856, Note_on_c, 0, 57, 67
1, 901859, Control_c, 0, 64, 95
1, 901874, Control_c, 0, 64, 67
1, 901889, Control_c, 0, 64, 46
1, 901904, Control_c, 0, 64, 0
1, 901993, Control_c, 0, 64, 46
1, 902008, Control_c, 0, 64, 65
1, 902023, Control_c, 0, 64, 84
1, 902035, Note_on_c, 0, 45, 70
1, 902037, Control_c, 0, 64, 127
1, 902082, Note_off_c, 0, 33, 60
1, 902105, Note_off_c, 0, 45, 62
1, 902135, Note_off_c, 0, 62, 31
1, 902157, Note_off_c, 0, 57, 56
1, 902222, Note_on_c, 0, 45, 85
1, 902308, Note_off_c, 0, 45, 62
1, 902444, Note_on_c, 0, 67, 86
1, 902448, Note_on_c, 0, 43, 76
1, 902458, Note_on_c, 0, 59, 82
1, 902547, Note_off_c, 0, 66, 57
1, 902568, Note_off_c, 0, 43, 57
1, 902625, Note_off_c, 0, 59, 57
1, 902778, Note_on_c, 0, 69, 92
1, 902792, Note_on_c, 0, 57, 78
1, 902795, Note_on_c, 0, 30, 74
1, 902797, Note_on_c, 0, 62, 71
1, 902875, Control_c, 0, 64, 101
1, 902881, Note_off_c, 0, 67, 55
1, 902890, Control_c, 0, 64, 77
1, 902905, Control_c, 0, 64, 63
1, 902920, Control_c, 0, 64, 43
1, 902934, Control_c, 0, 64, 0
1, 903052, Control_c, 0, 64, 53
1, 903067, Control_c, 0, 64, 69
1, 903082, Control_c, 0, 64, 84
1, 903091, Note_on_c, 0, 42, 68
1, 903097, Control_c, 0, 64, 127
1, 903156, Note_off_c, 0, 57, 58
1, 903168, Note_off_c, 0, 62, 61
1, 903176, Poly_aftertouch_c, 0, 35, 127
1, 903220, Note_off_c, 0, 30, 55
1, 903257, Note_off_c, 0, 42, 57
1, 903328, Note_on_c, 0, 67, 84
1, 903337, Note_on_c, 0, 31, 67
1, 903345, Note_on_c, 0, 62, 74
1, 903346, Note_on_c, 0, 59, 64
1, 903349, Poly_aftertouch_c, 0, 35, 0
1, 903382, Note_off_c, 0, 69, 56
1, 903385, Control_c, 0, 64, 91
1, 903401, Control_c, 0, 64, 66
1, 903416, Control_c, 0, 64, 40
1, 903431, Control_c, 0, 64, 0
1, 903475, Control_c, 0, 64, 33
1, 903490, Control_c, 0, 64, 52
1, 903505, Control_c, 0, 64, 66
1, 903520, Control_c, 0, 64, 85
1, 903522, Note_on_c, 0, 43, 60
1, 903535, Control_c, 0, 64, 127
1, 903546, Note_off_c, 0, 62, 59
1, 903567, Note_off_c, 0, 59, 61
1, 903568, Note_off_c, 0, 31, 38
1, 903711, Note_on_c, 0, 33, 66
1, 903711, Note_on_c, 0, 66, 89
1, 903713, Control_c, 0, 64, 123
1, 903728, Control_c, 0, 64, 73
1, 903731, Note_on_c, 0, 62, 67
1, 903731, Note_off_c, 0, 67, 62
1, 903740, Note_on_c, 0, 57, 55
1, 903743, Control_c, 0, 64, 48
1, 903757, Control_c, 0, 64, 0
1, 903760, Note_off_c, 0, 43, 61
1, 903801, Control_c, 0, 64, 44
1, 903816, Control_c, 0, 64, 67
1, 903831, Control_c, 0, 64, 85
1, 903846, Control_c, 0, 64, 127
1, 903907, Note_on_c, 0, 45, 53
1, 903910, Note_off_c, 0, 62, 64
1, 903919, Note_off_c, 0, 57, 62
1, 903990, Note_off_c, 0, 33, 51
1, 904031, Control_c, 0, 64, 83
1, 904046, Control_c, 0, 64, 67
1, 904061, Control_c, 0, 64, 58
1, 904075, Control_c, 0, 64, 57
1, 904090, Control_c, 0, 64, 62
1, 904105, Control_c, 0, 64, 71
1, 904109, Note_on_c, 0, 64, 83
1, 904112, Note_on_c, 0, 33, 70
1, 904113, Note_on_c, 0, 61, 75
1, 904116, Note_on_c, 0, 55, 68
1, 904120, Control_c, 0, 64, 104
1, 904134, Control_c, 0, 64, 127
1, 904175, Note_off_c, 0, 55, 55
1, 904185, Note_off_c, 0, 45, 36
1, 904208, Note_off_c, 0, 66, 62
1, 904232, Note_off_c, 0, 64, 66
1, 904234, Note_off_c, 0, 61, 63
1, 904308, Note_on_c, 0, 45, 58
1, 904314, Note_off_c, 0, 33, 57
1, 904431, Control_c, 0, 67, 42
1, 904446, Control_c, 0, 67, 53
1, 904461, Control_c, 0, 67, 54
1, 904476, Control_c, 0, 67, 58
1, 904491, Control_c, 0, 67, 80
1, 904501, Note_off_c, 0, 45, 29
1, 904506, Control_c, 0, 67, 124
1, 904521, Control_c, 0, 67, 127
1, 904528, Note_on_c, 0, 64, 77
1, 904530, Note_on_c, 0, 33, 64
1, 904533, Note_on_c, 0, 61, 64
1, 904536, Control_c, 0, 64, 91
1, 904542, Note_on_c, 0, 55, 43
1, 904550, Control_c, 0, 64, 65
1, 904557, Note_on_c, 0, 57, 30
1, 904565, Control_c, 0, 64, 40
1, 904580, Control_c, 0, 64, 0
1, 904646, Control_c, 0, 64, 29
1, 904661, Control_c, 0, 64, 44
1, 904676, Control_c, 0, 64, 57
1, 904691, Control_c, 0, 64, 66
1, 904693, Note_off_c, 0, 33, 56
1, 904706, Control_c, 0, 64, 73
1, 904707, Note_on_c, 0, 45, 57
1, 904721, Control_c, 0, 64, 82
1, 904735, Control_c, 0, 64, 92
1, 904750, Control_c, 0, 64, 103
1, 904765, Control_c, 0, 64, 127
1, 904783, Note_off_c, 0, 45, 56
1, 904804, Note_off_c, 0, 55, 43
1, 904911, Note_on_c, 0, 49, 53
1, 904914, Note_off_c, 0, 57, 42
1, 904920, Note_off_c, 0, 61, 63
1, 905082, Note_on_c, 0, 45, 57
1, 905087, Note_off_c, 0, 49, 55
1, 905112, Note_off_c, 0, 45, 64
1, 905311, Note_on_c, 0, 62, 70
1, 905322, Note_on_c, 0, 38, 58
1, 905323, Note_on_c, 0, 57, 54
1, 905324, Note_on_c, 0, 54, 55
1, 905329, Control_c, 0, 64, 111
1, 905342, Note_off_c, 0, 64, 60
1, 905344, Control_c, 0, 64, 79
1, 905358, Control_c, 0, 64, 62
1, 905380, Control_c, 0, 64, 38
1, 905395, Control_c, 0, 64, 0
1, 905484, Control_c, 0, 64, 30
1, 905499, Control_c, 0, 64, 45
1, 905514, Control_c, 0, 64, 57
1, 905523, Note_on_c, 0, 50, 42
1, 905528, Note_off_c, 0, 38, 62
1, 905528, Control_c, 0, 64, 64
1, 905543, Control_c, 0, 64, 69
1, 905558, Control_c, 0, 64, 74
1, 905561, Note_off_c, 0, 50, 53
1, 905573, Control_c, 0, 64, 79
1, 905588, Control_c, 0, 64, 88
1, 905603, Control_c, 0, 64, 102
1, 905618, Control_c, 0, 64, 127
1, 905690, Note_on_c, 0, 50, 39
1, 905714, Note_off_c, 0, 54, 48
1, 905769, Note_off_c, 0, 50, 49
1, 905896, Note_on_c, 0, 50, 32
1, 905940, Note_off_c, 0, 50, 54
1, 905998, Note_off_c, 0, 57, 34
1, 906043, Note_off_c, 0, 62, 61
1, 906071, Note_on_c, 0, 50, 39
1, 906135, Note_off_c, 0, 50, 53
1, 906268, Note_on_c, 0, 50, 43
1, 906318, Note_off_c, 0, 50, 58
1, 906487, Note_on_c, 0, 50, 25
1, 906555, Note_off_c, 0, 50, 43
1, 906688, Note_on_c, 0, 50, 33
1, 906734, Note_off_c, 0, 50, 46
1, 906963, Note_on_c, 0, 58, 57
1, 906996, Note_on_c, 0, 38, 39
1, 906997, Control_c, 0, 64, 105
1, 907012, Control_c, 0, 64, 85
1, 907019, Note_on_c, 0, 53, 18
1, 907026, Control_c, 0, 64, 69
1, 907041, Control_c, 0, 64, 54
1, 907056, Control_c, 0, 64, 36
1, 907071, Control_c, 0, 64, 0
1, 907115, Control_c, 0, 64, 36
1, 907130, Control_c, 0, 64, 50
1, 907144, Control_c, 0, 64, 62
1, 907159, Control_c, 0, 64, 69
1, 907174, Control_c, 0, 64, 76
1, 907189, Control_c, 0, 64, 82
1, 907204, Control_c, 0, 64, 86
1, 907219, Control_c, 0, 64, 94
1, 907224, Note_off_c, 0, 38, 42
1, 907229, Note_on_c, 0, 50, 42
1, 907233, Control_c, 0, 64, 106
1, 907237, Note_off_c, 0, 53, 41
1, 907248, Control_c, 0, 64, 127
1, 907274, Note_off_c, 0, 50, 59
1, 907451, Note_on_c, 0, 50, 40
1, 907490, Note_off_c, 0, 58, 56
1, 907508, Note_off_c, 0, 50, 54
1, 907633, Note_on_c, 0, 50, 44
1, 907779, Note_off_c, 0, 50, 38
1, 907843, Note_on_c, 0, 58, 69
1, 907856, Note_on_c, 0, 38, 52
1, 907867, Note_on_c, 0, 53, 48
1, 908002, Note_off_c, 0, 53, 38
1, 908029, Note_off_c, 0, 38, 36
1, 908044, Note_on_c, 0, 50, 47
1, 908080, Note_off_c, 0, 50, 63
1, 908202, Note_off_c, 0, 58, 58
1, 908220, Note_on_c, 0, 50, 58
1, 908288, Note_off_c, 0, 50, 59
1, 908408, Note_on_c, 0, 50, 62
1, 908542, Note_off_c, 0, 50, 37
1, 908588, Note_on_c, 0, 58, 83
1, 908594, Note_on_c, 0, 38, 63
1, 908611, Note_on_c, 0, 53, 49
1, 908669, Note_off_c, 0, 53, 49
1, 908703, Control_c, 0, 67, 114
1, 908715, Note_off_c, 0, 38, 55
1, 908717, Control_c, 0, 67, 94
1, 908732, Control_c, 0, 67, 77
1, 908747, Control_c, 0, 67, 61
1, 908762, Control_c, 0, 67, 43
1, 908777, Control_c, 0, 67, 0
1, 908785, Note_on_c, 0, 50, 60
1, 908891, Note_off_c, 0, 50, 59
1, 908912, Note_off_c, 0, 58, 64
1, 908976, Note_on_c, 0, 50, 56
1, 909027, Note_off_c, 0, 50, 61
1, 909156, Note_on_c, 0, 50, 54
1, 909254, Note_off_c, 0, 50, 55
1, 909418, Note_on_c, 0, 58, 73
1, 909422, Note_on_c, 0, 39, 68
1, 909437, Note_on_c, 0, 55, 57
1, 909481, Control_c, 0, 64, 91
1, 909496, Control_c, 0, 64, 69
1, 909511, Control_c, 0, 64, 49
1, 909526, Control_c, 0, 64, 0
1, 909600, Control_c, 0, 64, 35
1, 909614, Control_c, 0, 64, 61
1, 909625, Note_off_c, 0, 55, 51
1, 909629, Control_c, 0, 64, 88
1, 909644, Control_c, 0, 64, 127
1, 909651, Note_on_c, 0, 51, 70
1, 909703, Note_off_c, 0, 39, 62
1, 909717, Note_off_c, 0, 51, 60
1, 909831, Note_on_c, 0, 51, 70
1, 909883, Note_off_c, 0, 51, 59
1, 909907, Note_off_c, 0, 58, 36
1, 909954, Note_on_c, 0, 57, 58
1, 910006, Note_on_c, 0, 51, 64
1, 910027, Note_on_c, 0, 58, 70
1, 910040, Note_off_c, 0, 57, 60
1, 910108, Note_on_c, 0, 60, 68
1, 910112, Note_off_c, 0, 51, 48
1, 910119, Note_off_c, 0, 58, 62
1, 910191, Note_on_c, 0, 58, 75
1, 910230, Note_off_c, 0, 60, 61
1, 910298, Note_on_c, 0, 39, 68
1, 910310, Note_on_c, 0, 55, 78
1, 910339, Note_off_c, 0, 58, 61
1, 910362, Control_c, 0, 64, 109
1, 910377, Control_c, 0, 64, 75
1, 910392, Control_c, 0, 64, 54
1, 910407, Control_c, 0, 64, 0
1, 910481, Control_c, 0, 64, 40
1, 910495, Control_c, 0, 64, 60
1, 910510, Control_c, 0, 64, 77
1, 910525, Control_c, 0, 64, 123
1, 910540, Control_c, 0, 64, 127
1, 910542, Note_on_c, 0, 51, 60
1, 910580, Note_off_c, 0, 51, 61
1, 910629, Note_off_c, 0, 39, 36
1, 910819, Note_on_c, 0, 67, 77
1, 910822, Note_on_c, 0, 63, 72
1, 910830, Note_on_c, 0, 36, 70
1, 910859, Control_c, 0, 64, 109
1, 910874, Control_c, 0, 64, 74
1, 910889, Control_c, 0, 64, 51
1, 910904, Control_c, 0, 64, 0
1, 910977, Control_c, 0, 64, 43
1, 910992, Control_c, 0, 64, 70
1, 911007, Control_c, 0, 64, 127
1, 911020, Note_off_c, 0, 63, 62
1, 911057, Note_on_c, 0, 48, 76
1, 911076, Note_off_c, 0, 55, 60
1, 911098, Note_off_c, 0, 36, 59
1, 911244, Note_on_c, 0, 38, 79
1, 911244, Note_on_c, 0, 65, 79
1, 911252, Note_on_c, 0, 59, 70
1, 911252, Note_on_c, 0, 53, 70
1, 911273, Control_c, 0, 64, 116
1, 911288, Control_c, 0, 64, 72
1, 911296, Note_off_c, 0, 67, 63
1, 911303, Control_c, 0, 64, 43
1, 911312, Note_off_c, 0, 48, 56
1, 911317, Control_c, 0, 64, 0
1, 911385, Control_c, 0, 64, 46
1, 911401, Control_c, 0, 64, 69
1, 911415, Control_c, 0, 64, 105
1, 911430, Control_c, 0, 64, 127
1, 911446, Note_off_c, 0, 59, 62
1, 911460, Note_on_c, 0, 50, 76
1, 911469, Note_off_c, 0, 53, 60
1, 911502, Note_off_c, 0, 38, 51
1, 911651, Note_on_c, 0, 39, 87
1, 911651, Note_on_c, 0, 63, 85
1, 911660, Note_on_c, 0, 60, 74
1, 911662, Note_on_c, 0, 55, 70
1, 911667, Control_c, 0, 64, 79
1, 911674, Note_off_c, 0, 50, 61
1, 911681, Control_c, 0, 64, 52
1, 911683, Note_off_c, 0, 65, 61
1, 911696, Control_c, 0, 64, 0
1, 911770, Control_c, 0, 64, 44
1, 911785, Control_c, 0, 64, 65
1, 911800, Control_c, 0, 64, 86
1, 911815, Control_c, 0, 64, 127
1, 911819, Note_on_c, 0, 51, 71
1, 911845, Note_off_c, 0, 51, 65
1, 911860, Note_off_c, 0, 39, 63
1, 911869, Note_off_c, 0, 60, 65
1, 911913, Note_off_c, 0, 55, 53
1, 912060, Note_on_c, 0, 29, 82
1, 912066, Note_on_c, 0, 62, 80
1, 912075, Note_on_c, 0, 58, 75
1, 912081, Control_c, 0, 64, 118
1, 912084, Note_on_c, 0, 53, 61
1, 912096, Control_c, 0, 64, 71
1, 912119, Control_c, 0, 64, 35
1, 912134, Control_c, 0, 64, 0
1, 912164, Note_off_c, 0, 63, 56
1, 912194, Control_c, 0, 64, 47
1, 912209, Control_c, 0, 64, 65
1, 912223, Control_c, 0, 64, 72
1, 912238, Control_c, 0, 64, 74
1, 912265, Note_on_c, 0, 41, 80
1, 912268, Control_c, 0, 64, 71
1, 912283, Control_c, 0, 64, 60
1, 912294, Note_off_c, 0, 41, 66
1, 912294, Note_off_c, 0, 29, 64
1, 912298, Control_c, 0, 64, 44
1, 912312, Control_c, 0, 64, 0
1, 912474, Note_on_c, 0, 41, 74
1, 912510, Note_off_c, 0, 41, 61
1, 912658, Note_on_c, 0, 41, 69
1, 912733, Note_off_c, 0, 41, 58
1, 912801, Control_c, 0, 64, 41
1, 912816, Control_c, 0, 64, 59
1, 912830, Control_c, 0, 64, 67
1, 912845, Control_c, 0, 64, 73
1, 912867, Note_on_c, 0, 29, 81
1, 912867, Control_c, 0, 64, 84
1, 912882, Control_c, 0, 64, 127
1, 913049, Note_on_c, 0, 41, 74
1, 913057, Note_off_c, 0, 29, 60
1, 913061, Control_c, 0, 64, 97
1, 913076, Control_c, 0, 64, 80
1, 913087, Note_off_c, 0, 41, 63
1, 913091, Control_c, 0, 64, 67
1, 913106, Control_c, 0, 64, 56
1, 913121, Control_c, 0, 64, 46
1, 913135, Control_c, 0, 64, 39
1, 913150, Control_c, 0, 64, 33
1, 913165, Control_c, 0, 64, 0
1, 913249, Note_on_c, 0, 41, 65
1, 913316, Note_off_c, 0, 58, 64
1, 913322, Note_off_c, 0, 41, 63
1, 913326, Note_off_c, 0, 53, 59
1, 913432, Note_on_c, 0, 41, 68
1, 913523, Note_off_c, 0, 41, 55
1, 913680, Note_on_c, 0, 63, 83
1, 913683, Note_on_c, 0, 29, 65
1, 913690, Note_on_c, 0, 51, 55
1, 913701, Note_on_c, 0, 57, 59
1, 913750, Control_c, 0, 64, 33
1, 913765, Control_c, 0, 64, 48
1, 913780, Control_c, 0, 64, 59
1, 913795, Control_c, 0, 64, 65
1, 913809, Control_c, 0, 64, 69
1, 913824, Control_c, 0, 64, 76
1, 913834, Note_off_c, 0, 51, 59
1, 913839, Control_c, 0, 64, 87
1, 913854, Control_c, 0, 64, 104
1, 913869, Control_c, 0, 64, 127
1, 913878, Note_on_c, 0, 41, 58
1, 913893, Note_off_c, 0, 29, 37
1, 913897, Note_off_c, 0, 62, 56
1, 913909, Note_off_c, 0, 63, 61
1, 913917, Note_off_c, 0, 41, 58
1, 913935, Note_off_c, 0, 57, 62
1, 914135, Note_on_c, 0, 41, 54
1, 914207, Note_off_c, 0, 41, 61
1, 914391, Note_on_c, 0, 41, 58
1, 914395, Note_on_c, 0, 60, 74
1, 914565, Note_off_c, 0, 41, 28
1, 914697, Note_on_c, 0, 59, 78
1, 914705, Note_on_c, 0, 56, 69
1, 914707, Note_on_c, 0, 29, 71
1, 914707, Control_c, 0, 67, 43
1, 914715, Note_on_c, 0, 50, 55
1, 914721, Control_c, 0, 64, 105
1, 914721, Control_c, 0, 67, 52
1, 914736, Control_c, 0, 64, 76
1, 914736, Control_c, 0, 67, 65
1, 914751, Control_c, 0, 64, 61
1, 914751, Control_c, 0, 67, 83
1, 914766, Control_c, 0, 64, 44
1, 914766, Control_c, 0, 67, 106
1, 914781, Control_c, 0, 64, 0
1, 914781, Control_c, 0, 67, 127
1, 914834, Note_off_c, 0, 60, 42
1, 914870, Control_c, 0, 64, 32
1, 914884, Control_c, 0, 64, 39
1, 914899, Control_c, 0, 64, 45
1, 914914, Control_c, 0, 64, 52
1, 914929, Control_c, 0, 64, 59
1, 914933, Note_on_c, 0, 41, 58
1, 914944, Control_c, 0, 64, 67
1, 914958, Note_off_c, 0, 29, 60
1, 914958, Control_c, 0, 64, 75
1, 914972, Note_off_c, 0, 41, 59
1, 914973, Control_c, 0, 64, 84
1, 914988, Control_c, 0, 64, 87
1, 915062, Control_c, 0, 64, 84
1, 915076, Control_c, 0, 64, 77
1, 915091, Control_c, 0, 64, 69
1, 915114, Control_c, 0, 64, 63
1, 915127, Note_on_c, 0, 41, 62
1, 915129, Control_c, 0, 64, 59
1, 915144, Control_c, 0, 64, 57
1, 915158, Control_c, 0, 64, 55
1, 915173, Control_c, 0, 64, 54
1, 915188, Control_c, 0, 64, 53
1, 915219, Note_off_c, 0, 41, 49
1, 915311, Note_on_c, 0, 41, 52
1, 915349, Note_off_c, 0, 41, 60
1, 915351, Control_c, 0, 64, 52
1, 915365, Control_c, 0, 64, 51
1, 915381, Control_c, 0, 64, 51
1, 915442, Control_c, 0, 64, 50
1, 915456, Control_c, 0, 64, 47
1, 915471, Control_c, 0, 64, 46
1, 915486, Control_c, 0, 64, 47
1, 915500, Control_c, 0, 64, 50
1, 915502, Note_on_c, 0, 29, 57
1, 915515, Control_c, 0, 64, 52
1, 915530, Control_c, 0, 64, 53
1, 915545, Control_c, 0, 64, 54
1, 915560, Control_c, 0, 64, 57
1, 915574, Control_c, 0, 64, 61
1, 915589, Control_c, 0, 64, 63
1, 915604, Control_c, 0, 64, 64
1, 915619, Control_c, 0, 64, 63
1, 915678, Control_c, 0, 64, 62
1, 915682, Note_off_c, 0, 29, 52
1, 915693, Control_c, 0, 64, 60
1, 915701, Note_on_c, 0, 41, 52
1, 915708, Control_c, 0, 64, 58
1, 915723, Control_c, 0, 64, 58
1, 915733, Note_off_c, 0, 41, 60
1, 915768, Control_c, 0, 64, 57
1, 915782, Control_c, 0, 64, 56
1, 915884, Note_on_c, 0, 41, 43
1, 915940, Note_off_c, 0, 41, 59
1, 915982, Control_c, 0, 64, 57
1, 916027, Control_c, 0, 64, 56
1, 916056, Control_c, 0, 64, 57
1, 916057, Note_on_c, 0, 41, 46
1, 916130, Note_off_c, 0, 41, 50
1, 916160, Control_c, 0, 64, 56
1, 916175, Control_c, 0, 64, 56
1, 916205, Control_c, 0, 64, 55
1, 916255, Note_on_c, 0, 29, 53
1, 916294, Control_c, 0, 64, 56
1, 916309, Control_c, 0, 64, 58
1, 916323, Control_c, 0, 64, 61
1, 916338, Control_c, 0, 64, 63
1, 916353, Control_c, 0, 64, 65
1, 916364, Note_off_c, 0, 29, 37
1, 916368, Control_c, 0, 64, 67
1, 916383, Control_c, 0, 64, 70
1, 916397, Control_c, 0, 64, 73
1, 916412, Control_c, 0, 64, 75
1, 916427, Control_c, 0, 64, 77
1, 916437, Note_on_c, 0, 41, 48
1, 916442, Control_c, 0, 64, 80
1, 916457, Control_c, 0, 64, 87
1, 916471, Control_c, 0, 64, 100
1, 916472, Note_off_c, 0, 50, 36
1, 916486, Control_c, 0, 64, 121
1, 916501, Control_c, 0, 64, 127
1, 916523, Note_off_c, 0, 41, 47
1, 916588, Note_off_c, 0, 59, 62
1, 916608, Note_off_c, 0, 56, 57
1, 916656, Note_on_c, 0, 41, 44
1, 916700, Note_off_c, 0, 41, 55
1, 916820, Note_on_c, 0, 41, 44
1, 916900, Note_off_c, 0, 41, 55
1, 917072, Control_c, 0, 64, 81
1, 917082, Note_on_c, 0, 59, 62
1, 917087, Control_c, 0, 64, 60
1, 917094, Note_on_c, 0, 56, 48
1, 917096, Note_on_c, 0, 40, 50
1, 917101, Control_c, 0, 64, 46
1, 917113, Note_on_c, 0, 50, 36
1, 917116, Control_c, 0, 64, 39
1, 917131, Control_c, 0, 64, 38
1, 917146, Control_c, 0, 64, 38
1, 917160, Control_c, 0, 64, 44
1, 917175, Control_c, 0, 64, 55
1, 917190, Control_c, 0, 64, 63
1, 917196, Note_off_c, 0, 50, 64
1, 917205, Control_c, 0, 64, 68
1, 917220, Control_c, 0, 64, 75
1, 917234, Control_c, 0, 64, 80
1, 917249, Control_c, 0, 64, 83
1, 917256, Note_off_c, 0, 40, 51
1, 917264, Control_c, 0, 64, 87
1, 917279, Control_c, 0, 64, 95
1, 917294, Control_c, 0, 64, 104
1, 917295, Note_on_c, 0, 52, 44
1, 917309, Control_c, 0, 64, 114
1, 917324, Control_c, 0, 64, 127
1, 917338, Note_off_c, 0, 52, 58
1, 917477, Note_on_c, 0, 52, 46
1, 917529, Note_off_c, 0, 52, 53
1, 917593, Note_off_c, 0, 59, 54
1, 917634, Note_on_c, 0, 52, 50
1, 917729, Note_off_c, 0, 52, 36
1, 917826, Note_on_c, 0, 40, 44
1, 917913, Note_off_c, 0, 40, 49
1, 918030, Note_on_c, 0, 52, 33
1, 918084, Note_off_c, 0, 52, 52
1, 918208, Note_on_c, 0, 61, 61
1, 918221, Note_on_c, 0, 52, 33
1, 918260, Note_off_c, 0, 56, 40
1, 918262, Note_off_c, 0, 52, 53
1, 918405, Note_on_c, 0, 62, 63
1, 918421, Note_on_c, 0, 52, 39
1, 918432, Note_off_c, 0, 61, 59
1, 918641, Note_off_c, 0, 52, 17
1, 918665, Note_on_c, 0, 64, 60
1, 918673, Note_on_c, 0, 40, 42
1, 918674, Control_c, 0, 64, 99
1, 918689, Control_c, 0, 64, 73
1, 918691, Note_off_c, 0, 62, 47
1, 918704, Control_c, 0, 64, 51
1, 918719, Control_c, 0, 64, 34
1, 918733, Control_c, 0, 64, 30
1, 918748, Control_c, 0, 64, 33
1, 918763, Control_c, 0, 64, 43
1, 918778, Control_c, 0, 64, 57
1, 918793, Control_c, 0, 64, 67
1, 918798, Note_off_c, 0, 64, 64
1, 918807, Control_c, 0, 64, 81
1, 918822, Control_c, 0, 64, 96
1, 918837, Control_c, 0, 64, 112
1, 918859, Control_c, 0, 64, 127
1, 918922, Note_on_c, 0, 52, 53
1, 918949, Note_off_c, 0, 52, 62
1, 918987, Note_off_c, 0, 40, 39
1, 919195, Note_on_c, 0, 52, 36
1, 919195, Note_on_c, 0, 56, 48
1, 919199, Control_c, 0, 64, 102
1, 919213, Note_on_c, 0, 50, 44
1, 919214, Control_c, 0, 64, 76
1, 919220, Note_on_c, 0, 40, 27
1, 919229, Control_c, 0, 64, 58
1, 919243, Control_c, 0, 64, 44
1, 919258, Control_c, 0, 64, 35
1, 919273, Control_c, 0, 64, 33
1, 919282, Note_off_c, 0, 40, 41
1, 919288, Control_c, 0, 64, 34
1, 919303, Control_c, 0, 64, 42
1, 919318, Control_c, 0, 64, 56
1, 919333, Control_c, 0, 64, 70
1, 919348, Note_off_c, 0, 50, 60
1, 919348, Control_c, 0, 64, 82
1, 919363, Control_c, 0, 64, 96
1, 919378, Control_c, 0, 64, 106
1, 919393, Control_c, 0, 64, 127
1, 919396, Note_off_c, 0, 52, 60
1, 919401, Note_off_c, 0, 56, 60
1, 919430, Note_on_c, 0, 40, 38
1, 919470, Note_off_c, 0, 40, 49
1, 919682, Control_c, 0, 64, 123
1, 919697, Control_c, 0, 64, 87
1, 919707, Note_on_c, 0, 57, 43
1, 919711, Note_on_c, 0, 52, 42
1, 919711, Control_c, 0, 64, 67
1, 919720, Note_on_c, 0, 33, 45
1, 919722, Note_on_c, 0, 49, 36
1, 919726, Control_c, 0, 64, 48
1, 919741, Control_c, 0, 64, 0
1, 919899, Note_off_c, 0, 33, 54
1, 919911, Note_on_c, 0, 45, 38
1, 919944, Note_off_c, 0, 45, 53
1, 920092, Note_on_c, 0, 45, 51
1, 920144, Note_off_c, 0, 45, 56
1, 920171, Note_off_c, 0, 52, 59
1, 920224, Note_off_c, 0, 57, 63
1, 920260, Note_on_c, 0, 45, 48
1, 920283, Note_off_c, 0, 49, 43
1, 920319, Note_off_c, 0, 45, 57
1, 920431, Control_c, 0, 64, 34
1, 920446, Control_c, 0, 64, 53
1, 920448, Note_on_c, 0, 57, 53
1, 920458, Note_on_c, 0, 33, 50
1, 920458, Note_on_c, 0, 49, 43
1, 920460, Control_c, 0, 64, 64
1, 920475, Control_c, 0, 64, 69
1, 920490, Control_c, 0, 64, 72
1, 920504, Control_c, 0, 64, 73
1, 920519, Control_c, 0, 64, 73
1, 920534, Control_c, 0, 64, 74
1, 920549, Control_c, 0, 64, 74
1, 920564, Control_c, 0, 64, 75
1, 920624, Control_c, 0, 64, 74
1, 920633, Note_off_c, 0, 33, 36
1, 920639, Control_c, 0, 64, 72
1, 920642, Note_on_c, 0, 45, 45
1, 920653, Control_c, 0, 64, 66
1, 920668, Control_c, 0, 64, 58
1, 920672, Note_off_c, 0, 45, 50
1, 920682, Control_c, 0, 64, 48
1, 920696, Control_c, 0, 64, 40
1, 920711, Control_c, 0, 64, 37
1, 920726, Control_c, 0, 64, 35
1, 920741, Control_c, 0, 64, 33
1, 920756, Control_c, 0, 64, 28
1, 920770, Control_c, 0, 64, 0
1, 920813, Note_on_c, 0, 45, 60
1, 920855, Note_off_c, 0, 45, 58
1, 920956, Note_off_c, 0, 49, 54
1, 920958, Note_off_c, 0, 57, 55
1, 920992, Note_on_c, 0, 45, 55
1, 921029, Note_off_c, 0, 45, 61
1, 921164, Control_c, 0, 64, 32
1, 921167, Note_on_c, 0, 59, 68
1, 921179, Control_c, 0, 64, 45
1, 921190, Note_on_c, 0, 33, 55
1, 921191, Note_on_c, 0, 57, 50
1, 921193, Control_c, 0, 64, 61
1, 921197, Note_on_c, 0, 50, 43
1, 921208, Control_c, 0, 64, 71
1, 921223, Control_c, 0, 64, 79
1, 921238, Control_c, 0, 64, 83
1, 921253, Control_c, 0, 64, 84
1, 921268, Control_c, 0, 64, 84
1, 921282, Control_c, 0, 64, 85
1, 921312, Control_c, 0, 64, 85
1, 921327, Control_c, 0, 64, 86
1, 921339, Note_off_c, 0, 33, 35
1, 921347, Note_on_c, 0, 45, 56
1, 921372, Control_c, 0, 64, 85
1, 921376, Note_off_c, 0, 45, 63
1, 921387, Control_c, 0, 64, 84
1, 921401, Control_c, 0, 64, 78
1, 921416, Control_c, 0, 64, 69
1, 921431, Control_c, 0, 64, 59
1, 921446, Control_c, 0, 64, 50
1, 921461, Control_c, 0, 64, 45
1, 921476, Control_c, 0, 64, 41
1, 921491, Control_c, 0, 64, 37
1, 921506, Control_c, 0, 64, 32
1, 921520, Control_c, 0, 64, 0
1, 921535, Note_on_c, 0, 45, 59
1, 921585, Note_off_c, 0, 45, 55
1, 921595, Note_off_c, 0, 50, 49
1, 921646, Note_off_c, 0, 57, 63
1, 921707, Note_on_c, 0, 45, 52
1, 921784, Note_off_c, 0, 45, 54
1, 921938, Note_on_c, 0, 61, 76
1, 921946, Note_on_c, 0, 57, 59
1, 921957, Note_on_c, 0, 33, 62
1, 921970, Note_on_c, 0, 52, 48
1, 921988, Control_c, 0, 64, 34
1, 922003, Note_off_c, 0, 59, 57
1, 922003, Control_c, 0, 64, 46
1, 922017, Control_c, 0, 64, 57
1, 922032, Control_c, 0, 64, 63
1, 922047, Control_c, 0, 64, 65
1, 922062, Control_c, 0, 64, 67
1, 922076, Control_c, 0, 64, 71
1, 922091, Control_c, 0, 64, 76
1, 922105, Note_off_c, 0, 57, 60
1, 922106, Control_c, 0, 64, 81
1, 922116, Note_off_c, 0, 52, 39
1, 922120, Note_on_c, 0, 45, 61
1, 922121, Control_c, 0, 64, 84
1, 922124, Note_off_c, 0, 33, 55
1, 922136, Control_c, 0, 64, 85
1, 922150, Control_c, 0, 64, 86
1, 922162, Note_off_c, 0, 45, 58
1, 922254, Control_c, 0, 64, 85
1, 922293, Note_on_c, 0, 45, 61
1, 922347, Note_off_c, 0, 45, 55
1, 922447, Control_c, 0, 64, 85
1, 922448, Note_on_c, 0, 59, 67
1, 922457, Note_on_c, 0, 45, 67
1, 922460, Note_on_c, 0, 50, 55
1, 922498, Note_off_c, 0, 50, 56
1, 922502, Note_off_c, 0, 45, 55
1, 922506, Control_c, 0, 64, 84
1, 922536, Control_c, 0, 64, 84
1, 922618, Control_c, 0, 64, 83
1, 922648, Control_c, 0, 64, 83
1, 922655, Note_on_c, 0, 45, 67
1, 922657, Note_on_c, 0, 57, 72
1, 922663, Control_c, 0, 64, 81
1, 922677, Control_c, 0, 64, 77
1, 922682, Note_on_c, 0, 49, 44
1, 922690, Note_off_c, 0, 61, 60
1, 922692, Control_c, 0, 64, 68
1, 922707, Control_c, 0, 64, 62
1, 922709, Note_off_c, 0, 45, 57
1, 922722, Control_c, 0, 64, 58
1, 922737, Control_c, 0, 64, 57
1, 922752, Control_c, 0, 64, 57
1, 922767, Control_c, 0, 64, 56
1, 922776, Note_off_c, 0, 59, 55
1, 922781, Control_c, 0, 64, 55
1, 922796, Control_c, 0, 64, 55
1, 922822, Note_on_c, 0, 45, 72
1, 922841, Control_c, 0, 64, 55
1, 922889, Note_off_c, 0, 45, 62
1, 922899, Control_c, 0, 64, 56
1, 922914, Control_c, 0, 64, 57
1, 922929, Control_c, 0, 64, 57
1, 922992, Note_on_c, 0, 45, 78
1, 923003, Control_c, 0, 64, 58
1, 923061, Note_off_c, 0, 45, 62
1, 923062, Control_c, 0, 64, 59
1, 923077, Control_c, 0, 64, 61
1, 923092, Control_c, 0, 64, 63
1, 923107, Control_c, 0, 64, 64
1, 923137, Control_c, 0, 64, 64
1, 923163, Note_on_c, 0, 45, 72
1, 923166, Control_c, 0, 64, 65
1, 923181, Control_c, 0, 64, 66
1, 923196, Control_c, 0, 64, 67
1, 923211, Control_c, 0, 64, 66
1, 923218, Note_off_c, 0, 45, 61
1, 923240, Control_c, 0, 64, 67
1, 923255, Control_c, 0, 64, 69
1, 923270, Control_c, 0, 64, 75
1, 923285, Control_c, 0, 64, 85
1, 923299, Control_c, 0, 64, 108
1, 923314, Control_c, 0, 64, 127
1, 923323, Note_on_c, 0, 45, 73
1, 923366, Note_off_c, 0, 49, 61
1, 923392, Note_off_c, 0, 45, 62
1, 923420, Note_off_c, 0, 57, 63
1, 923494, Note_on_c, 0, 45, 74
1, 923548, Note_off_c, 0, 45, 58
1, 923648, Control_c, 0, 67, 116
1, 923663, Control_c, 0, 67, 107
1, 923676, Control_c, 0, 67, 99
1, 923678, Note_on_c, 0, 61, 82
1, 923688, Note_on_c, 0, 45, 64
1, 923691, Control_c, 0, 67, 90
1, 923700, Note_on_c, 0, 57, 54
1, 923706, Control_c, 0, 67, 72
1, 923709, Note_on_c, 0, 52, 43
1, 923721, Control_c, 0, 67, 53
1, 923736, Control_c, 0, 67, 39
1, 923744, Note_off_c, 0, 52, 52
1, 923751, Control_c, 0, 67, 0
1, 923754, Note_off_c, 0, 57, 41
1, 923795, Note_off_c, 0, 45, 53
1, 923870, Note_on_c, 0, 45, 49
1, 923911, Note_off_c, 0, 45, 60
1, 924093, Note_off_c, 0, 61, 59
1, 924104, Note_on_c, 0, 62, 79
1, 924126, Note_on_c, 0, 33, 60
1, 924131, Note_on_c, 0, 53, 55
1, 924132, Note_on_c, 0, 57, 48
1, 924158, Control_c, 0, 64, 101
1, 924174, Control_c, 0, 64, 70
1, 924189, Control_c, 0, 64, 47
1, 924204, Control_c, 0, 64, 0
1, 924248, Control_c, 0, 64, 30
1, 924263, Control_c, 0, 64, 55
1, 924277, Control_c, 0, 64, 74
1, 924281, Note_off_c, 0, 53, 54
1, 924284, Note_off_c, 0, 57, 34
1, 924292, Control_c, 0, 64, 106
1, 924307, Control_c, 0, 64, 127
1, 924323, Note_on_c, 0, 45, 59
1, 924335, Note_off_c, 0, 33, 56
1, 924392, Note_off_c, 0, 45, 61
1, 924502, Note_on_c, 0, 45, 64
1, 924572, Note_off_c, 0, 45, 52
1, 924648, Note_on_c, 0, 61, 79
1, 924664, Note_on_c, 0, 45, 67
1, 924670, Note_on_c, 0, 57, 38
1, 924710, Note_off_c, 0, 45, 56
1, 924710, Note_on_c, 0, 52, 3
1, 924719, Note_off_c, 0, 57, 44
1, 924752, Note_off_c, 0, 52, 50
1, 924830, Note_on_c, 0, 45, 71
1, 924844, Note_on_c, 0, 59, 81
1, 924853, Note_off_c, 0, 62, 58
1, 924860, Note_on_c, 0, 50, 69
1, 924900, Note_off_c, 0, 45, 56
1, 924900, Note_off_c, 0, 61, 61
1, 924921, Note_off_c, 0, 50, 57
1, 925038, Note_on_c, 0, 45, 68
1, 925070, Note_off_c, 0, 45, 59
1, 925271, Note_on_c, 0, 62, 78
1, 925279, Note_on_c, 0, 33, 76
1, 925290, Note_on_c, 0, 53, 58
1, 925318, Note_on_c, 0, 57, 27
1, 925323, Control_c, 0, 64, 79
1, 925329, Note_off_c, 0, 59, 60
1, 925338, Control_c, 0, 64, 53
1, 925353, Control_c, 0, 64, 0
1, 925366, Note_off_c, 0, 57, 45
1, 925407, Note_off_c, 0, 53, 53
1, 925411, Control_c, 0, 64, 29
1, 925426, Control_c, 0, 64, 53
1, 925441, Control_c, 0, 64, 75
1, 925456, Control_c, 0, 64, 112
1, 925471, Control_c, 0, 64, 127
1, 925474, Note_on_c, 0, 45, 76
1, 925593, Note_off_c, 0, 33, 53
1, 925675, Note_on_c, 0, 61, 83
1, 925685, Note_on_c, 0, 33, 82
1, 925685, Control_c, 0, 64, 107
1, 925688, Note_on_c, 0, 52, 58
1, 925688, Note_on_c, 0, 57, 57
1, 925700, Control_c, 0, 64, 70
1, 925715, Control_c, 0, 64, 45
1, 925721, Note_off_c, 0, 62, 63
1, 925730, Control_c, 0, 64, 0
1, 925751, Note_off_c, 0, 45, 58
1, 925761, Control_c, 0, 64, 40
1, 925776, Control_c, 0, 64, 62
1, 925790, Control_c, 0, 64, 86
1, 925805, Control_c, 0, 64, 127
1, 925837, Note_off_c, 0, 52, 57
1, 925850, Note_off_c, 0, 33, 59
1, 925861, Note_off_c, 0, 57, 64
1, 925869, Note_on_c, 0, 45, 70
1, 926055, Note_on_c, 0, 37, 84
1, 926057, Control_c, 0, 64, 70
1, 926065, Note_on_c, 0, 57, 75
1, 926068, Note_off_c, 0, 45, 37
1, 926071, Note_on_c, 0, 49, 54
1, 926072, Control_c, 0, 64, 44
1, 926076, Note_on_c, 0, 52, 49
1, 926087, Control_c, 0, 64, 0
1, 926097, Note_off_c, 0, 49, 58
1, 926131, Note_off_c, 0, 52, 56
1, 926154, Note_off_c, 0, 61, 66
1, 926161, Control_c, 0, 64, 30
1, 926176, Control_c, 0, 64, 53
1, 926190, Control_c, 0, 64, 73
1, 926205, Control_c, 0, 64, 127
1, 926237, Note_on_c, 0, 49, 71
1, 926261, Note_off_c, 0, 49, 66
1, 926267, Note_off_c, 0, 37, 63
1, 926457, Note_on_c, 0, 28, 83
1, 926464, Note_on_c, 0, 56, 82
1, 926464, Control_c, 0, 64, 82
1, 926476, Note_on_c, 0, 47, 64
1, 926476, Note_on_c, 0, 52, 66
1, 926479, Control_c, 0, 64, 63
1, 926494, Control_c, 0, 64, 42
1, 926509, Control_c, 0, 64, 0
1, 926538, Note_off_c, 0, 57, 62
1, 926613, Control_c, 0, 64, 28
1, 926628, Control_c, 0, 64, 41
1, 926643, Control_c, 0, 64, 45
1, 926657, Note_on_c, 0, 40, 66
1, 926657, Control_c, 0, 64, 48
1, 926672, Control_c, 0, 64, 58
1, 926687, Control_c, 0, 64, 68
1, 926695, Note_off_c, 0, 28, 59
1, 926702, Control_c, 0, 64, 86
1, 926717, Control_c, 0, 64, 127
1, 926722, Note_off_c, 0, 40, 62
1, 926844, Note_on_c, 0, 40, 74
1, 926851, Control_c, 0, 64, 98
1, 926865, Control_c, 0, 64, 86
1, 926880, Control_c, 0, 64, 82
1, 926895, Control_c, 0, 64, 80
1, 926910, Control_c, 0, 64, 75
1, 926925, Control_c, 0, 64, 68
1, 926939, Control_c, 0, 64, 62
1, 926942, Note_off_c, 0, 40, 48
1, 926954, Control_c, 0, 64, 59
1, 926984, Control_c, 0, 64, 59
1, 926999, Control_c, 0, 64, 60
1, 927013, Control_c, 0, 64, 63
1, 927020, Note_on_c, 0, 40, 68
1, 927028, Control_c, 0, 64, 69
1, 927043, Control_c, 0, 64, 81
1, 927057, Control_c, 0, 64, 112
1, 927072, Control_c, 0, 64, 127
1, 927113, Note_off_c, 0, 40, 61
1, 927116, Note_off_c, 0, 47, 57
1, 927215, Note_on_c, 0, 40, 80
1, 927258, Note_off_c, 0, 52, 35
1, 927315, Note_off_c, 0, 56, 64
1, 927343, Note_off_c, 0, 40, 51
1, 927417, Note_on_c, 0, 40, 76
1, 927506, Note_off_c, 0, 40, 61
1, 927653, Note_on_c, 0, 56, 85
1, 927657, Note_on_c, 0, 38, 88
1, 927662, Note_on_c, 0, 53, 72
1, 927668, Note_on_c, 0, 47, 61
1, 927687, Control_c, 0, 64, 77
1, 927702, Control_c, 0, 64, 55
1, 927717, Control_c, 0, 64, 0
1, 927791, Control_c, 0, 64, 49
1, 927805, Control_c, 0, 64, 73
1, 927820, Control_c, 0, 64, 115
1, 927827, Note_off_c, 0, 38, 59
1, 927843, Control_c, 0, 64, 127
1, 927891, Note_off_c, 0, 47, 61
1, 927915, Note_on_c, 0, 38, 90
1, 927934, Note_off_c, 0, 53, 61
1, 927973, Note_off_c, 0, 56, 63
1, 928022, Note_off_c, 0, 38, 60
1, 928143, Note_on_c, 0, 36, 82
1, 928147, Note_on_c, 0, 56, 91
1, 928154, Control_c, 0, 64, 91
1, 928162, Note_on_c, 0, 48, 81
1, 928165, Note_on_c, 0, 52, 74
1, 928171, Control_c, 0, 64, 63
1, 928185, Control_c, 0, 64, 0
1, 928244, Control_c, 0, 64, 49
1, 928259, Control_c, 0, 64, 68
1, 928274, Note_off_c, 0, 36, 60
1, 928274, Control_c, 0, 64, 86
1, 928289, Control_c, 0, 64, 127
1, 928297, Note_off_c, 0, 48, 57
1, 928350, Note_on_c, 0, 36, 79
1, 928362, Note_off_c, 0, 52, 62
1, 928377, Note_off_c, 0, 56, 62
1, 928427, Note_off_c, 0, 36, 59
1, 928551, Note_on_c, 0, 56, 87
1, 928553, Note_on_c, 0, 35, 86
1, 928556, Control_c, 0, 64, 81
1, 928559, Note_on_c, 0, 52, 80
1, 928563, Note_on_c, 0, 50, 80
1, 928571, Control_c, 0, 64, 56
1, 928592, Control_c, 0, 64, 0
1, 928636, Control_c, 0, 64, 38
1, 928651, Control_c, 0, 64, 61
1, 928664, Note_off_c, 0, 50, 62
1, 928666, Control_c, 0, 64, 80
1, 928679, Note_off_c, 0, 35, 60
1, 928681, Control_c, 0, 64, 127
1, 928717, Note_off_c, 0, 52, 61
1, 928732, Note_off_c, 0, 56, 61
1, 928749, Note_on_c, 0, 35, 77
1, 928784, Note_off_c, 0, 35, 62
1, 928964, Control_c, 0, 64, 114
1, 928970, Note_on_c, 0, 33, 81
1, 928970, Note_on_c, 0, 57, 77
1, 928979, Control_c, 0, 64, 75
1, 928979, Note_on_c, 0, 52, 72
1, 928982, Note_on_c, 0, 48, 81
1, 928994, Control_c, 0, 64, 56
1, 929008, Control_c, 0, 64, 29
1, 929023, Control_c, 0, 64, 0
1, 929141, Control_c, 0, 64, 43
1, 929156, Control_c, 0, 64, 57
1, 929171, Control_c, 0, 64, 60
1, 929176, Note_on_c, 0, 45, 64
1, 929186, Control_c, 0, 64, 61
1, 929201, Control_c, 0, 64, 62
1, 929215, Control_c, 0, 64, 65
1, 929243, Note_off_c, 0, 33, 62
1, 929245, Control_c, 0, 64, 65
1, 929248, Note_off_c, 0, 45, 60
1, 929274, Control_c, 0, 64, 66
1, 929289, Control_c, 0, 64, 70
1, 929304, Control_c, 0, 64, 82
1, 929319, Control_c, 0, 64, 127
1, 929357, Note_on_c, 0, 45, 72
1, 929366, Note_off_c, 0, 48, 60
1, 929398, Note_off_c, 0, 45, 52
1, 929429, Note_off_c, 0, 52, 62
1, 929438, Note_off_c, 0, 57, 64
1, 929527, Note_on_c, 0, 45, 60
1, 929611, Note_off_c, 0, 45, 52
1, 929725, Note_on_c, 0, 33, 75
1, 929727, Note_on_c, 0, 57, 90
1, 929727, Control_c, 0, 64, 79
1, 929741, Control_c, 0, 64, 56
1, 929751, Note_on_c, 0, 48, 75
1, 929756, Note_on_c, 0, 52, 64
1, 929757, Control_c, 0, 64, 0
1, 929779, Note_on_c, 0, 51, 7
1, 929876, Control_c, 0, 64, 49
1, 929890, Control_c, 0, 64, 65
1, 929902, Note_on_c, 0, 45, 57
1, 929903, Note_off_c, 0, 33, 58
1, 929905, Control_c, 0, 64, 80
1, 929920, Control_c, 0, 64, 127
1, 929936, Note_off_c, 0, 45, 62
1, 929938, Note_off_c, 0, 48, 48
1, 930008, Note_off_c, 0, 51, 16
1, 930029, Note_off_c, 0, 52, 61
1, 930052, Note_off_c, 0, 57, 60
1, 930069, Note_on_c, 0, 45, 58
1, 930157, Note_off_c, 0, 45, 61
1, 930255, Note_on_c, 0, 45, 70
1, 930336, Note_off_c, 0, 45, 54
1, 930440, Note_on_c, 0, 59, 91
1, 930444, Note_on_c, 0, 31, 82
1, 930446, Control_c, 0, 64, 86
1, 930451, Note_on_c, 0, 53, 81
1, 930457, Note_on_c, 0, 50, 76
1, 930461, Control_c, 0, 64, 59
1, 930475, Control_c, 0, 64, 0
1, 930550, Control_c, 0, 64, 54
1, 930565, Control_c, 0, 64, 70
1, 930580, Control_c, 0, 64, 82
1, 930595, Control_c, 0, 64, 94
1, 930604, Note_off_c, 0, 50, 60
1, 930610, Control_c, 0, 64, 102
1, 930625, Control_c, 0, 64, 127
1, 930625, Note_off_c, 0, 31, 61
1, 930631, Note_on_c, 0, 43, 68
1, 930676, Note_off_c, 0, 43, 57
1, 930698, Note_off_c, 0, 53, 60
1, 930717, Note_off_c, 0, 59, 63
1, 930822, Note_on_c, 0, 43, 76
1, 930893, Note_off_c, 0, 43, 60
1, 931030, Note_on_c, 0, 43, 75
1, 931170, Note_off_c, 0, 43, 59
1, 931261, Note_on_c, 0, 60, 84
1, 931265, Note_on_c, 0, 55, 74
1, 931268, Note_on_c, 0, 36, 80
1, 931272, Note_on_c, 0, 52, 73
1, 931298, Control_c, 0, 64, 82
1, 931313, Control_c, 0, 64, 63
1, 931328, Control_c, 0, 64, 43
1, 931343, Control_c, 0, 64, 0
1, 931432, Control_c, 0, 64, 31
1, 931447, Control_c, 0, 64, 54
1, 931462, Control_c, 0, 64, 74
1, 931477, Control_c, 0, 64, 98
1, 931478, Note_on_c, 0, 48, 61
1, 931489, Note_off_c, 0, 36, 61
1, 931492, Control_c, 0, 64, 127
1, 931508, Note_off_c, 0, 52, 59
1, 931516, Note_off_c, 0, 48, 59
1, 931650, Note_on_c, 0, 48, 65
1, 931720, Note_off_c, 0, 48, 62
1, 931826, Note_on_c, 0, 57, 79
1, 931843, Note_on_c, 0, 53, 64
1, 931845, Note_on_c, 0, 48, 65
1, 931912, Note_off_c, 0, 60, 58
1, 931927, Note_off_c, 0, 55, 33
1, 931948, Note_off_c, 0, 53, 59
1, 932084, Note_on_c, 0, 60, 81
1, 932107, Note_on_c, 0, 55, 70
1, 932109, Note_on_c, 0, 36, 61
1, 932111, Note_on_c, 0, 52, 48
1, 932127, Note_off_c, 0, 48, 24
1, 932151, Control_c, 0, 64, 82
1, 932166, Control_c, 0, 64, 63
1, 932181, Control_c, 0, 64, 41
1, 932196, Control_c, 0, 64, 0
1, 932210, Control_c, 0, 67, 33
1, 932225, Control_c, 0, 67, 35
1, 932240, Control_c, 0, 67, 39
1, 932248, Note_off_c, 0, 57, 33
1, 932255, Control_c, 0, 64, 43
1, 932255, Control_c, 0, 67, 50
1, 932270, Control_c, 0, 64, 61
1, 932270, Control_c, 0, 67, 60
1, 932285, Control_c, 0, 64, 77
1, 932285, Control_c, 0, 67, 66
1, 932288, Note_off_c, 0, 36, 59
1, 932296, Note_on_c, 0, 48, 68
1, 932300, Control_c, 0, 64, 99
1, 932300, Control_c, 0, 67, 65
1, 932315, Control_c, 0, 64, 127
1, 932315, Control_c, 0, 67, 65
1, 932333, Note_off_c, 0, 48, 65
1, 932366, Control_c, 0, 67, 67
1, 932381, Control_c, 0, 67, 68
1, 932425, Control_c, 0, 67, 68
1, 932440, Control_c, 0, 67, 70
1, 932455, Control_c, 0, 67, 72
1, 932464, Note_on_c, 0, 48, 64
1, 932470, Control_c, 0, 67, 77
1, 932485, Control_c, 0, 67, 90
1, 932500, Control_c, 0, 67, 98
1, 932514, Control_c, 0, 67, 100
1, 932526, Note_off_c, 0, 52, 36
1, 932533, Note_off_c, 0, 48, 61
1, 932544, Control_c, 0, 67, 104
1, 932559, Control_c, 0, 67, 111
1, 932574, Control_c, 0, 67, 119
1, 932589, Control_c, 0, 67, 125
1, 932603, Control_c, 0, 67, 127
1, 932649, Note_on_c, 0, 48, 61
1, 932663, Note_off_c, 0, 55, 59
1, 932753, Note_off_c, 0, 60, 62
1, 932823, Note_on_c, 0, 36, 69
1, 932830, Note_off_c, 0, 48, 51
1, 932990, Note_off_c, 0, 36, 59
1, 933014, Note_on_c, 0, 48, 67
1, 933054, Note_off_c, 0, 48, 58
1, 933174, Control_c, 0, 64, 89
1, 933189, Control_c, 0, 64, 70
1, 933196, Note_on_c, 0, 62, 83
1, 933204, Control_c, 0, 64, 59
1, 933214, Note_on_c, 0, 41, 70
1, 933219, Control_c, 0, 64, 54
1, 933222, Note_on_c, 0, 57, 64
1, 933233, Control_c, 0, 64, 51
1, 933248, Control_c, 0, 64, 49
1, 933263, Control_c, 0, 64, 52
1, 933278, Note_off_c, 0, 57, 0
1, 933278, Control_c, 0, 64, 60
1, 933293, Control_c, 0, 64, 70
1, 933307, Control_c, 0, 64, 103
1, 933322, Poly_aftertouch_c, 0, 57, 0
1, 933322, Control_c, 0, 64, 127
1, 933385, Note_off_c, 0, 41, 61
1, 933390, Note_on_c, 0, 53, 52
1, 933423, Note_off_c, 0, 53, 56
1, 933574, Control_c, 0, 64, 97
1, 933584, Note_on_c, 0, 64, 82
1, 933589, Control_c, 0, 64, 70
1, 933595, Note_off_c, 0, 62, 61
1, 933598, Note_on_c, 0, 40, 65
1, 933598, Note_on_c, 0, 59, 64
1, 933604, Control_c, 0, 64, 44
1, 933608, Note_on_c, 0, 56, 52
1, 933619, Control_c, 0, 64, 0
1, 933698, Note_off_c, 0, 56, 55
1, 933707, Control_c, 0, 64, 42
1, 933722, Control_c, 0, 64, 60
1, 933737, Control_c, 0, 64, 68
1, 933750, Note_off_c, 0, 59, 64
1, 933753, Control_c, 0, 64, 72
1, 933756, Note_off_c, 0, 40, 59
1, 933768, Control_c, 0, 64, 73
1, 933782, Control_c, 0, 64, 76
1, 933795, Note_on_c, 0, 52, 47
1, 933797, Control_c, 0, 64, 81
1, 933812, Control_c, 0, 64, 93
1, 933835, Control_c, 0, 64, 110
1, 933850, Control_c, 0, 64, 127
1, 933860, Note_off_c, 0, 52, 46
1, 933985, Note_on_c, 0, 52, 54
1, 934061, Note_off_c, 0, 52, 58
1, 934192, Note_on_c, 0, 62, 71
1, 934204, Note_on_c, 0, 52, 49
1, 934209, Note_off_c, 0, 64, 60
1, 934406, Note_off_c, 0, 52, 31
1, 934490, Note_on_c, 0, 61, 65
1, 934498, Note_on_c, 0, 42, 50
1, 934501, Control_c, 0, 64, 102
1, 934502, Note_on_c, 0, 57, 48
1, 934516, Control_c, 0, 64, 76
1, 934530, Control_c, 0, 64, 53
1, 934539, Note_off_c, 0, 62, 59
1, 934546, Control_c, 0, 64, 0
1, 934628, Control_c, 0, 64, 43
1, 934643, Control_c, 0, 64, 61
1, 934652, Note_off_c, 0, 57, 64
1, 934658, Control_c, 0, 64, 74
1, 934673, Control_c, 0, 64, 93
1, 934687, Control_c, 0, 64, 127
1, 934705, Note_off_c, 0, 61, 64
1, 934723, Note_on_c, 0, 54, 36
1, 934726, Note_off_c, 0, 42, 61
1, 934758, Note_off_c, 0, 54, 60
1, 934917, Note_on_c, 0, 64, 76
1, 934927, Note_on_c, 0, 57, 48
1, 934933, Note_on_c, 0, 38, 54
1, 934938, Note_on_c, 0, 54, 36
1, 934940, Control_c, 0, 64, 104
1, 934954, Control_c, 0, 64, 74
1, 934969, Control_c, 0, 64, 56
1, 934984, Control_c, 0, 64, 33
1, 934998, Control_c, 0, 64, 0
1, 935043, Control_c, 0, 64, 29
1, 935058, Control_c, 0, 64, 47
1, 935072, Control_c, 0, 64, 62
1, 935087, Control_c, 0, 64, 72
1, 935094, Note_on_c, 0, 62, 79
1, 935102, Control_c, 0, 64, 84
1, 935107, Note_off_c, 0, 57, 53
1, 935108, Note_on_c, 0, 50, 56
1, 935109, Note_off_c, 0, 54, 45
1, 935117, Control_c, 0, 64, 95
1, 935127, Note_off_c, 0, 38, 53
1, 935132, Control_c, 0, 64, 104
1, 935147, Control_c, 0, 64, 117
1, 935162, Control_c, 0, 64, 127
1, 935172, Note_off_c, 0, 50, 46
1, 935280, Control_c, 0, 64, 95
1, 935287, Note_off_c, 0, 64, 34
1, 935295, Control_c, 0, 64, 71
1, 935310, Control_c, 0, 64, 53
1, 935329, Note_on_c, 0, 61, 68
1, 935331, Control_c, 0, 64, 28
1, 935346, Note_on_c, 0, 52, 56
1, 935346, Note_off_c, 0, 62, 62
1, 935346, Control_c, 0, 64, 0
1, 935353, Note_on_c, 0, 40, 52
1, 935355, Note_on_c, 0, 57, 51
1, 935410, Note_off_c, 0, 52, 57
1, 935436, Control_c, 0, 64, 33
1, 935451, Control_c, 0, 64, 55
1, 935466, Control_c, 0, 64, 66
1, 935481, Control_c, 0, 64, 74
1, 935485, Note_off_c, 0, 40, 60
1, 935489, Note_off_c, 0, 57, 62
1, 935496, Control_c, 0, 64, 85
1, 935510, Control_c, 0, 64, 100
1, 935525, Control_c, 0, 64, 127
1, 935535, Note_on_c, 0, 52, 47
1, 935588, Note_off_c, 0, 52, 54
1, 935688, Control_c, 0, 64, 114
1, 935702, Control_c, 0, 64, 76
1, 935716, Note_on_c, 0, 59, 61
1, 935717, Control_c, 0, 64, 57
1, 935723, Note_on_c, 0, 40, 48
1, 935728, Note_off_c, 0, 61, 62
1, 935732, Control_c, 0, 64, 41
1, 935737, Note_on_c, 0, 56, 51
1, 935743, Note_on_c, 0, 50, 44
1, 935746, Control_c, 0, 64, 34
1, 935776, Control_c, 0, 64, 35
1, 935791, Control_c, 0, 64, 43
1, 935806, Control_c, 0, 64, 55
1, 935820, Control_c, 0, 64, 66
1, 935835, Control_c, 0, 64, 79
1, 935838, Note_off_c, 0, 50, 57
1, 935850, Control_c, 0, 64, 106
1, 935865, Control_c, 0, 64, 127
1, 935869, Note_off_c, 0, 59, 63
1, 935889, Note_off_c, 0, 56, 61
1, 935917, Note_on_c, 0, 52, 50
1, 935945, Note_off_c, 0, 52, 56
1, 935948, Note_off_c, 0, 40, 57
1, 936124, Note_on_c, 0, 59, 60
1, 936136, Note_on_c, 0, 56, 50
1, 936139, Note_on_c, 0, 50, 40
1, 936139, Note_on_c, 0, 52, 33
1, 936169, Control_c, 0, 64, 103
1, 936184, Control_c, 0, 64, 84
1, 936199, Control_c, 0, 64, 71
1, 936214, Control_c, 0, 64, 62
1, 936229, Control_c, 0, 64, 55
1, 936244, Control_c, 0, 64, 51
1, 936258, Control_c, 0, 64, 48
1, 936273, Control_c, 0, 64, 43
1, 936288, Control_c, 0, 64, 35
1, 936303, Control_c, 0, 64, 0
1, 936306, Note_on_c, 0, 40, 50
1, 936500, Note_on_c, 0, 44, 56
1, 936508, Note_off_c, 0, 40, 57
1, 936574, Note_off_c, 0, 50, 43
1, 936618, Note_off_c, 0, 56, 57
1, 936669, Note_off_c, 0, 44, 46
1, 936684, Note_on_c, 0, 40, 52
1, 936789, Note_off_c, 0, 40, 47
1, 936876, Note_on_c, 0, 57, 56
1, 936876, Note_on_c, 0, 45, 58
1, 936886, Note_on_c, 0, 49, 53
1, 936891, Note_off_c, 0, 59, 50
1, 936911, Note_off_c, 0, 45, 62
1, 937022, Note_off_c, 0, 52, 39
1, 937042, Note_off_c, 0, 49, 45
1, 937075, Note_on_c, 0, 45, 66
1, 937113, Note_off_c, 0, 45, 57
1, 937260, Note_on_c, 0, 47, 67
1, 937302, Note_off_c, 0, 47, 60
1, 937384, Note_off_c, 0, 57, 59
1, 937439, Note_on_c, 0, 49, 63
1, 937498, Note_off_c, 0, 49, 51
1, 937634, Note_on_c, 0, 47, 55
1, 937686, Note_off_c, 0, 47, 59
1, 937832, Note_on_c, 0, 45, 44
1, 937871, Note_off_c, 0, 45, 61
1, 938012, Note_on_c, 0, 44, 47
1, 938074, Note_off_c, 0, 44, 57
1, 938206, Note_on_c, 0, 42, 51
1, 938283, Note_off_c, 0, 42, 52
1, 938461, Note_on_c, 0, 71, 63
1, 938498, Note_on_c, 0, 40, 40
1, 938518, Control_c, 0, 64, 41
1, 938533, Control_c, 0, 64, 56
1, 938549, Control_c, 0, 64, 63
1, 938564, Control_c, 0, 64, 66
1, 938578, Control_c, 0, 64, 68
1, 938593, Control_c, 0, 64, 70
1, 938608, Control_c, 0, 64, 76
1, 938617, Note_off_c, 0, 40, 59
1, 938623, Control_c, 0, 64, 85
1, 938638, Control_c, 0, 64, 98
1, 938640, Note_on_c, 0, 68, 54
1, 938652, Control_c, 0, 64, 127
1, 938744, Note_off_c, 0, 68, 57
1, 938755, Note_on_c, 0, 64, 52
1, 938846, Note_off_c, 0, 64, 55
1, 938870, Note_on_c, 0, 52, 36
1, 938876, Note_on_c, 0, 68, 53
1, 938879, Note_on_c, 0, 56, 27
1, 938906, Note_off_c, 0, 52, 50
1, 938914, Note_off_c, 0, 56, 43
1, 938989, Note_on_c, 0, 64, 45
1, 939003, Note_off_c, 0, 71, 42
1, 939019, Note_off_c, 0, 68, 37
1, 939097, Note_off_c, 0, 64, 58
1, 939114, Note_on_c, 0, 59, 53
1, 939204, Note_on_c, 0, 71, 82
1, 939208, Control_c, 0, 64, 89
1, 939221, Note_on_c, 0, 40, 52
1, 939223, Control_c, 0, 64, 68
1, 939238, Control_c, 0, 64, 59
1, 939252, Control_c, 0, 64, 59
1, 939267, Control_c, 0, 64, 63
1, 939275, Note_off_c, 0, 59, 34
1, 939282, Control_c, 0, 64, 74
1, 939296, Control_c, 0, 64, 117
1, 939298, Note_off_c, 0, 40, 61
1, 939311, Control_c, 0, 64, 127
1, 939329, Note_on_c, 0, 68, 67
1, 939437, Note_on_c, 0, 64, 63
1, 939466, Note_off_c, 0, 68, 54
1, 939475, Control_c, 0, 67, 125
1, 939490, Control_c, 0, 67, 108
1, 939505, Control_c, 0, 67, 79
1, 939520, Control_c, 0, 67, 47
1, 939526, Note_on_c, 0, 52, 50
1, 939532, Note_on_c, 0, 56, 61
1, 939535, Control_c, 0, 67, 0
1, 939549, Note_off_c, 0, 64, 60
1, 939564, Note_off_c, 0, 56, 64
1, 939572, Note_off_c, 0, 52, 62
1, 939574, Note_on_c, 0, 68, 76
1, 939665, Note_off_c, 0, 71, 56
1, 939681, Note_on_c, 0, 64, 64
1, 939719, Note_off_c, 0, 68, 59
1, 939758, Note_off_c, 0, 64, 63
1, 939771, Note_on_c, 0, 59, 70
1, 939803, Note_off_c, 0, 59, 65
1, 939895, Note_on_c, 0, 73, 88
1, 939920, Note_on_c, 0, 49, 60
1, 939927, Control_c, 0, 64, 112
1, 939942, Control_c, 0, 64, 73
1, 939957, Control_c, 0, 64, 54
1, 939972, Control_c, 0, 64, 28
1, 939987, Control_c, 0, 64, 0
1, 940016, Control_c, 0, 64, 40
1, 940025, Note_on_c, 0, 70, 71
1, 940031, Control_c, 0, 64, 65
1, 940046, Control_c, 0, 64, 91
1, 940061, Control_c, 0, 64, 127
1, 940122, Note_on_c, 0, 66, 66
1, 940128, Note_off_c, 0, 70, 59
1, 940175, Note_off_c, 0, 49, 35
1, 940219, Note_on_c, 0, 58, 71
1, 940223, Note_on_c, 0, 54, 60
1, 940229, Note_on_c, 0, 70, 75
1, 940231, Note_off_c, 0, 66, 62
1, 940248, Note_off_c, 0, 58, 64
1, 940259, Note_off_c, 0, 54, 63
1, 940323, Note_on_c, 0, 66, 71
1, 940325, Note_off_c, 0, 70, 57
1, 940336, Note_off_c, 0, 73, 48
1, 940391, Note_off_c, 0, 66, 63
1, 940426, Note_on_c, 0, 64, 58
1, 940458, Note_off_c, 0, 64, 62
1, 940573, Note_on_c, 0, 74, 92
1, 940585, Note_on_c, 0, 47, 70
1, 940631, Control_c, 0, 64, 90
1, 940646, Control_c, 0, 64, 66
1, 940661, Control_c, 0, 64, 36
1, 940676, Control_c, 0, 64, 0
1, 940721, Control_c, 0, 67, 52
1, 940721, Note_on_c, 0, 71, 64
1, 940735, Control_c, 0, 64, 33
1, 940735, Control_c, 0, 67, 76
1, 940750, Control_c, 0, 64, 56
1, 940765, Control_c, 0, 64, 68
1, 940780, Control_c, 0, 64, 77
1, 940780, Control_c, 0, 67, 78
1, 940795, Control_c, 0, 64, 88
1, 940795, Control_c, 0, 67, 83
1, 940809, Control_c, 0, 64, 97
1, 940809, Control_c, 0, 67, 98
1, 940824, Note_off_c, 0, 71, 46
1, 940824, Control_c, 0, 64, 108
1, 940824, Control_c, 0, 67, 110
1, 940839, Control_c, 0, 64, 127
1, 940842, Note_on_c, 0, 66, 58
1, 940869, Control_c, 0, 67, 116
1, 940883, Control_c, 0, 67, 127
1, 940895, Note_off_c, 0, 66, 52
1, 940950, Note_on_c, 0, 59, 56
1, 940950, Note_off_c, 0, 47, 34
1, 940953, Note_on_c, 0, 54, 47
1, 940958, Note_on_c, 0, 71, 56
1, 940992, Note_off_c, 0, 59, 57
1, 941001, Note_off_c, 0, 54, 53
1, 941029, Note_off_c, 0, 71, 60
1, 941068, Note_on_c, 0, 66, 65
1, 941108, Note_off_c, 0, 66, 55
1, 941143, Note_off_c, 0, 74, 56
1, 941185, Note_on_c, 0, 76, 81
1, 941191, Note_on_c, 0, 73, 72
1, 941225, Note_off_c, 0, 73, 56
1, 941380, Note_on_c, 0, 78, 83
1, 941409, Note_on_c, 0, 47, 54
1, 941417, Note_off_c, 0, 76, 56
1, 941469, Control_c, 0, 64, 82
1, 941484, Control_c, 0, 64, 60
1, 941499, Control_c, 0, 64, 36
1, 941513, Note_on_c, 0, 74, 71
1, 941514, Control_c, 0, 64, 0
1, 941544, Control_c, 0, 64, 36
1, 941559, Control_c, 0, 64, 54
1, 941573, Control_c, 0, 64, 71
1, 941588, Control_c, 0, 64, 86
1, 941603, Control_c, 0, 64, 106
1, 941618, Control_c, 0, 64, 127
1, 941632, Note_off_c, 0, 47, 55
1, 941634, Note_on_c, 0, 71, 55
1, 941639, Note_off_c, 0, 74, 61
1, 941704, Note_off_c, 0, 71, 59
1, 941738, Note_on_c, 0, 54, 53
1, 941746, Note_on_c, 0, 59, 55
1, 941752, Note_on_c, 0, 74, 69
1, 941798, Note_off_c, 0, 59, 55
1, 941863, Note_on_c, 0, 71, 55
1, 941963, Note_off_c, 0, 74, 37
1, 941976, Note_on_c, 0, 66, 66
1, 941979, Note_off_c, 0, 71, 56
1, 942016, Note_off_c, 0, 54, 30
1, 942032, Note_off_c, 0, 66, 42
1, 942065, Note_on_c, 0, 47, 65
1, 942090, Note_off_c, 0, 47, 66
1, 942173, Note_on_c, 0, 74, 80
1, 942203, Control_c, 0, 67, 124
1, 942208, Note_on_c, 0, 66, 25
1, 942218, Control_c, 0, 67, 101
1, 942233, Control_c, 0, 67, 79
1, 942248, Control_c, 0, 67, 64
1, 942262, Control_c, 0, 67, 56
1, 942268, Note_off_c, 0, 66, 41
1, 942276, Note_on_c, 0, 71, 69
1, 942277, Control_c, 0, 67, 46
1, 942292, Control_c, 0, 67, 0
1, 942307, Note_off_c, 0, 78, 56
1, 942318, Note_off_c, 0, 74, 62
1, 942348, Note_off_c, 0, 71, 59
1, 942375, Note_on_c, 0, 56, 73
1, 942375, Note_on_c, 0, 78, 92
1, 942376, Note_on_c, 0, 59, 61
1, 942381, Note_on_c, 0, 62, 61
1, 942390, Note_on_c, 0, 74, 73
1, 942396, Note_off_c, 0, 59, 66
1, 942402, Note_off_c, 0, 62, 62
1, 942414, Note_off_c, 0, 56, 62
1, 942491, Note_on_c, 0, 71, 73
1, 942575, Note_off_c, 0, 74, 62
1, 942590, Note_off_c, 0, 71, 58
1, 942611, Note_on_c, 0, 68, 67
1, 942641, Note_off_c, 0, 78, 56
1, 942686, Note_off_c, 0, 68, 43
1, 942737, Control_c, 0, 64, 100
1, 942739, Note_on_c, 0, 78, 91
1, 942749, Note_on_c, 0, 45, 68
1, 942752, Control_c, 0, 64, 64
1, 942767, Control_c, 0, 64, 0
1, 942819, Control_c, 0, 64, 43
1, 942834, Control_c, 0, 64, 66
1, 942849, Control_c, 0, 64, 102
1, 942852, Note_off_c, 0, 45, 60
1, 942864, Control_c, 0, 64, 127
1, 942870, Note_on_c, 0, 74, 73
1, 942980, Note_off_c, 0, 74, 59
1, 942988, Note_on_c, 0, 69, 62
1, 943043, Note_off_c, 0, 69, 48
1, 943091, Note_on_c, 0, 74, 74
1, 943106, Note_on_c, 0, 62, 61
1, 943109, Note_on_c, 0, 57, 49
1, 943150, Note_off_c, 0, 62, 58
1, 943198, Note_on_c, 0, 69, 71
1, 943206, Note_off_c, 0, 57, 60
1, 943250, Note_off_c, 0, 69, 62
1, 943323, Note_on_c, 0, 71, 89
1, 943362, Note_off_c, 0, 78, 58
1, 943376, Note_off_c, 0, 74, 54
1, 943459, Note_on_c, 0, 55, 55
1, 943466, Note_on_c, 0, 62, 51
1, 943468, Note_on_c, 0, 79, 84
1, 943501, Note_off_c, 0, 55, 57
1, 943511, Note_off_c, 0, 62, 52
1, 943615, Note_off_c, 0, 71, 37
1, 943709, Note_on_c, 0, 81, 88
1, 943755, Note_on_c, 0, 54, 51
1, 943757, Note_off_c, 0, 79, 61
1, 943776, Note_on_c, 0, 62, 39
1, 943790, Control_c, 0, 67, 62
1, 943805, Control_c, 0, 64, 111
1, 943805, Control_c, 0, 67, 101
1, 943820, Control_c, 0, 64, 72
1, 943820, Control_c, 0, 67, 127
1, 943834, Control_c, 0, 64, 53
1, 943849, Control_c, 0, 64, 32
1, 943864, Control_c, 0, 64, 0
1, 943879, Control_c, 0, 64, 28
1, 943893, Control_c, 0, 64, 40
1, 943897, Note_on_c, 0, 69, 62
1, 943908, Control_c, 0, 64, 56
1, 943923, Control_c, 0, 64, 70
1, 943938, Control_c, 0, 64, 81
1, 943953, Control_c, 0, 64, 96
1, 943967, Control_c, 0, 64, 110
1, 943982, Control_c, 0, 64, 127
1, 944014, Note_on_c, 0, 74, 79
1, 944028, Note_off_c, 0, 62, 47
1, 944040, Note_off_c, 0, 69, 48
1, 944093, Note_off_c, 0, 54, 36
1, 944123, Note_off_c, 0, 74, 49
1, 944124, Note_on_c, 0, 79, 89
1, 944146, Note_on_c, 0, 55, 54
1, 944150, Note_on_c, 0, 62, 65
1, 944167, Note_off_c, 0, 81, 61
1, 944176, Control_c, 0, 64, 110
1, 944191, Control_c, 0, 64, 75
1, 944206, Control_c, 0, 64, 60
1, 944220, Control_c, 0, 64, 54
1, 944235, Control_c, 0, 64, 58
1, 944250, Control_c, 0, 64, 65
1, 944255, Note_on_c, 0, 71, 63
1, 944265, Control_c, 0, 64, 78
1, 944280, Control_c, 0, 64, 108
1, 944295, Control_c, 0, 64, 127
1, 944373, Note_off_c, 0, 55, 44
1, 944380, Note_off_c, 0, 62, 55
1, 944384, Note_on_c, 0, 74, 74
1, 944426, Note_off_c, 0, 71, 56
1, 944480, Note_on_c, 0, 78, 92
1, 944489, Note_off_c, 0, 74, 64
1, 944507, Note_on_c, 0, 62, 59
1, 944509, Control_c, 0, 64, 83
1, 944513, Note_on_c, 0, 57, 50
1, 944517, Note_off_c, 0, 79, 54
1, 944524, Control_c, 0, 64, 61
1, 944539, Control_c, 0, 64, 52
1, 944554, Control_c, 0, 64, 52
1, 944569, Control_c, 0, 64, 58
1, 944583, Control_c, 0, 64, 66
1, 944598, Control_c, 0, 64, 80
1, 944613, Control_c, 0, 64, 104
1, 944628, Control_c, 0, 64, 127
1, 944634, Note_on_c, 0, 69, 53
1, 944653, Note_off_c, 0, 62, 62
1, 944680, Note_off_c, 0, 57, 63
1, 944709, Note_on_c, 0, 74, 70
1, 944720, Note_off_c, 0, 78, 58
1, 944804, Note_off_c, 0, 69, 58
1, 944838, Note_on_c, 0, 76, 92
1, 944853, Note_off_c, 0, 74, 65
1, 944864, Note_on_c, 0, 61, 61
1, 944867, Note_on_c, 0, 57, 57
1, 944880, Control_c, 0, 64, 97
1, 944895, Control_c, 0, 64, 68
1, 944909, Control_c, 0, 64, 50
1, 944924, Control_c, 0, 64, 38
1, 944940, Control_c, 0, 64, 41
1, 944955, Control_c, 0, 64, 51
1, 944963, Note_on_c, 0, 67, 65
1, 944970, Control_c, 0, 64, 63
1, 944980, Note_off_c, 0, 61, 58
1, 944985, Control_c, 0, 64, 73
1, 945000, Control_c, 0, 64, 86
1, 945014, Control_c, 0, 64, 98
1, 945025, Note_off_c, 0, 57, 58
1, 945029, Control_c, 0, 64, 109
1, 945044, Control_c, 0, 64, 127
1, 945092, Note_on_c, 0, 69, 69
1, 945101, Note_off_c, 0, 76, 53
1, 945192, Note_off_c, 0, 67, 35
1, 945236, Note_off_c, 0, 69, 57
1, 945250, Note_on_c, 0, 76, 75
1, 945261, Note_on_c, 0, 50, 54
1, 945274, Control_c, 0, 64, 79
1, 945288, Control_c, 0, 64, 57
1, 945303, Control_c, 0, 64, 27
1, 945318, Control_c, 0, 64, 0
1, 945347, Control_c, 0, 64, 32
1, 945362, Control_c, 0, 64, 48
1, 945377, Control_c, 0, 64, 60
1, 945392, Control_c, 0, 64, 66
1, 945403, Note_on_c, 0, 73, 63
1, 945407, Control_c, 0, 64, 70
1, 945422, Control_c, 0, 64, 78
1, 945423, Note_off_c, 0, 50, 50
1, 945437, Control_c, 0, 64, 89
1, 945452, Control_c, 0, 64, 113
1, 945466, Control_c, 0, 64, 127
1, 945484, Note_off_c, 0, 73, 58
1, 945517, Note_on_c, 0, 69, 49
1, 945575, Note_off_c, 0, 69, 51
1, 945616, Note_on_c, 0, 57, 40
1, 945630, Note_on_c, 0, 73, 58
1, 945631, Note_on_c, 0, 61, 44
1, 945729, Note_off_c, 0, 73, 51
1, 945734, Note_off_c, 0, 61, 59
1, 945740, Note_off_c, 0, 57, 37
1, 945758, Note_on_c, 0, 69, 50
1, 945845, Note_off_c, 0, 69, 53
1, 945881, Note_on_c, 0, 67, 51
1, 945926, Note_off_c, 0, 67, 56
1, 946008, Control_c, 0, 64, 103
1, 946011, Note_on_c, 0, 74, 73
1, 946012, Note_on_c, 0, 50, 55
1, 946023, Control_c, 0, 64, 73
1, 946036, Note_off_c, 0, 76, 61
1, 946037, Control_c, 0, 64, 57
1, 946052, Control_c, 0, 64, 48
1, 946067, Control_c, 0, 64, 50
1, 946081, Control_c, 0, 64, 56
1, 946096, Control_c, 0, 64, 63
1, 946111, Control_c, 0, 64, 70
1, 946126, Control_c, 0, 64, 78
1, 946140, Note_on_c, 0, 69, 53
1, 946140, Control_c, 0, 64, 84
1, 946155, Control_c, 0, 64, 91
1, 946157, Note_off_c, 0, 50, 60
1, 946170, Control_c, 0, 64, 101
1, 946185, Control_c, 0, 64, 127
1, 946221, Note_off_c, 0, 69, 58
1, 946250, Note_on_c, 0, 66, 48
1, 946274, Note_off_c, 0, 66, 58
1, 946379, Note_on_c, 0, 62, 35
1, 946388, Note_on_c, 0, 57, 23
1, 946394, Note_on_c, 0, 69, 48
1, 946413, Note_off_c, 0, 62, 55
1, 946438, Note_off_c, 0, 57, 47
1, 946451, Note_off_c, 0, 69, 56
1, 946498, Note_on_c, 0, 66, 48
1, 946579, Note_off_c, 0, 66, 53
1, 946633, Note_on_c, 0, 62, 47
1, 946769, Note_on_c, 0, 50, 41
1, 946771, Control_c, 0, 64, 81
1, 946785, Control_c, 0, 64, 66
1, 946800, Control_c, 0, 64, 58
1, 946815, Control_c, 0, 64, 57
1, 946830, Control_c, 0, 64, 59
1, 946845, Control_c, 0, 64, 63
1, 946859, Control_c, 0, 64, 68
1, 946868, Note_on_c, 0, 69, 31
1, 946874, Control_c, 0, 64, 77
1, 946889, Control_c, 0, 64, 84
1, 946903, Control_c, 0, 64, 87
1, 946918, Control_c, 0, 64, 89
1, 946933, Control_c, 0, 64, 94
1, 946948, Control_c, 0, 64, 102
1, 946963, Control_c, 0, 64, 127
1, 946966, Note_off_c, 0, 69, 47
1, 946978, Note_on_c, 0, 66, 45
1, 946978, Note_off_c, 0, 62, 15
1, 946981, Note_off_c, 0, 50, 48
1, 947081, Note_off_c, 0, 66, 56
1, 947106, Note_on_c, 0, 69, 46
1, 947107, Note_off_c, 0, 74, 40
1, 947139, Note_on_c, 0, 54, 23
1, 947142, Note_on_c, 0, 57, 18
1, 947163, Note_off_c, 0, 69, 57
1, 947178, Note_off_c, 0, 54, 52
1, 947186, Note_off_c, 0, 57, 55
1, 947220, Note_on_c, 0, 66, 39
1, 947312, Note_off_c, 0, 66, 62
1, 947356, Note_on_c, 0, 62, 44
1, 947580, Note_on_c, 0, 70, 65
1, 947586, Note_off_c, 0, 62, 44
1, 947642, Note_on_c, 0, 38, 40
1, 947669, Control_c, 0, 64, 111
1, 947683, Control_c, 0, 64, 78
1, 947698, Control_c, 0, 64, 56
1, 947713, Control_c, 0, 64, 40
1, 947727, Control_c, 0, 64, 34
1, 947757, Control_c, 0, 64, 37
1, 947772, Control_c, 0, 64, 47
1, 947787, Control_c, 0, 64, 60
1, 947801, Control_c, 0, 64, 66
1, 947816, Control_c, 0, 64, 72
1, 947824, Note_on_c, 0, 65, 34
1, 947831, Control_c, 0, 64, 78
1, 947846, Control_c, 0, 64, 85
1, 947860, Control_c, 0, 64, 94
1, 947875, Control_c, 0, 64, 105
1, 947890, Control_c, 0, 64, 127
1, 947892, Note_off_c, 0, 38, 39
1, 947997, Note_on_c, 0, 62, 43
1, 948012, Note_off_c, 0, 65, 43
1, 948182, Note_off_c, 0, 62, 55
1, 948209, Note_on_c, 0, 65, 43
1, 948220, Note_on_c, 0, 50, 30
1, 948251, Note_on_c, 0, 53, 23
1, 948271, Note_off_c, 0, 50, 54
1, 948293, Note_off_c, 0, 70, 42
1, 948294, Note_off_c, 0, 53, 44
1, 948341, Note_off_c, 0, 65, 51
1, 948343, Note_on_c, 0, 62, 33
1, 948479, Note_on_c, 0, 58, 49
1, 948510, Note_off_c, 0, 62, 43
1, 948613, Note_on_c, 0, 70, 76
1, 948650, Note_on_c, 0, 38, 54
1, 948654, Control_c, 0, 64, 88
1, 948669, Control_c, 0, 64, 72
1, 948683, Control_c, 0, 64, 64
1, 948713, Control_c, 0, 64, 69
1, 948728, Control_c, 0, 64, 79
1, 948743, Control_c, 0, 64, 93
1, 948751, Note_on_c, 0, 65, 60
1, 948757, Control_c, 0, 64, 106
1, 948766, Note_off_c, 0, 38, 61
1, 948772, Control_c, 0, 64, 120
1, 948787, Control_c, 0, 64, 127
1, 948862, Note_on_c, 0, 62, 57
1, 948868, Note_off_c, 0, 65, 58
1, 948971, Note_off_c, 0, 58, 33
1, 948990, Note_on_c, 0, 65, 63
1, 948991, Note_off_c, 0, 62, 60
1, 949001, Note_on_c, 0, 53, 51
1, 949003, Note_on_c, 0, 50, 53
1, 949033, Note_off_c, 0, 50, 65
1, 949033, Note_off_c, 0, 53, 63
1, 949112, Note_on_c, 0, 62, 59
1, 949154, Note_off_c, 0, 65, 57
1, 949157, Note_off_c, 0, 70, 51
1, 949205, Note_off_c, 0, 62, 61
1, 949212, Note_on_c, 0, 58, 70
1, 949323, Note_on_c, 0, 70, 89
1, 949331, Note_on_c, 0, 38, 66
1, 949344, Control_c, 0, 64, 86
1, 949359, Control_c, 0, 64, 69
1, 949373, Control_c, 0, 64, 63
1, 949388, Control_c, 0, 64, 65
1, 949403, Control_c, 0, 64, 72
1, 949418, Control_c, 0, 64, 101
1, 949433, Control_c, 0, 64, 127
1, 949443, Note_off_c, 0, 38, 62
1, 949446, Note_on_c, 0, 65, 73
1, 949536, Control_c, 0, 67, 122
1, 949554, Note_on_c, 0, 62, 65
1, 949558, Note_off_c, 0, 65, 62
1, 949559, Control_c, 0, 67, 104
1, 949574, Control_c, 0, 67, 78
1, 949588, Control_c, 0, 67, 39
1, 949603, Control_c, 0, 67, 0
1, 949649, Note_off_c, 0, 58, 37
1, 949667, Note_on_c, 0, 50, 59
1, 949670, Note_on_c, 0, 65, 70
1, 949670, Note_off_c, 0, 62, 57
1, 949671, Note_on_c, 0, 53, 57
1, 949706, Note_off_c, 0, 53, 62
1, 949713, Note_off_c, 0, 50, 63
1, 949784, Note_on_c, 0, 62, 66
1, 949842, Note_off_c, 0, 65, 58
1, 949875, Note_on_c, 0, 58, 74
1, 949879, Note_off_c, 0, 62, 61
1, 949944, Note_off_c, 0, 70, 61
1, 950051, Note_on_c, 0, 70, 78
1, 950076, Note_on_c, 0, 39, 71
1, 950120, Control_c, 0, 64, 92
1, 950135, Control_c, 0, 64, 60
1, 950150, Control_c, 0, 64, 0
1, 950161, Note_off_c, 0, 58, 35
1, 950209, Control_c, 0, 64, 43
1, 950224, Control_c, 0, 64, 65
1, 950227, Note_on_c, 0, 67, 65
1, 950239, Control_c, 0, 64, 77
1, 950254, Control_c, 0, 64, 89
1, 950269, Control_c, 0, 64, 98
1, 950284, Control_c, 0, 64, 126
1, 950340, Note_on_c, 0, 63, 71
1, 950344, Note_off_c, 0, 39, 62
1, 950370, Note_off_c, 0, 67, 58
1, 950418, Note_off_c, 0, 63, 56
1, 950471, Note_on_c, 0, 67, 72
1, 950477, Note_on_c, 0, 51, 62
1, 950478, Note_on_c, 0, 55, 55
1, 950509, Note_off_c, 0, 55, 63
1, 950514, Note_off_c, 0, 51, 62
1, 950576, Note_on_c, 0, 63, 66
1, 950618, Note_off_c, 0, 67, 56
1, 950673, Note_off_c, 0, 63, 59
1, 950687, Note_on_c, 0, 58, 58
1, 950771, Note_off_c, 0, 58, 57
1, 950826, Note_on_c, 0, 67, 74
1, 950829, Note_on_c, 0, 39, 64
1, 950865, Note_off_c, 0, 39, 62
1, 950945, Note_on_c, 0, 63, 63
1, 950973, Control_c, 0, 67, 82
1, 950988, Note_off_c, 0, 67, 60
1, 950988, Control_c, 0, 67, 127
1, 951007, Note_off_c, 0, 70, 38
1, 951030, Note_on_c, 0, 58, 67
1, 951048, Note_off_c, 0, 63, 62
1, 951065, Note_off_c, 0, 58, 65
1, 951254, Note_on_c, 0, 79, 77
1, 951277, Note_on_c, 0, 55, 48
1, 951283, Note_on_c, 0, 58, 58
1, 951286, Note_on_c, 0, 51, 54
1, 951352, Control_c, 0, 64, 110
1, 951367, Control_c, 0, 64, 69
1, 951382, Control_c, 0, 64, 44
1, 951397, Control_c, 0, 64, 0
1, 951408, Note_on_c, 0, 75, 77
1, 951442, Control_c, 0, 64, 39
1, 951456, Control_c, 0, 64, 61
1, 951471, Control_c, 0, 64, 80
1, 951486, Control_c, 0, 64, 108
1, 951500, Control_c, 0, 64, 127
1, 951521, Note_on_c, 0, 67, 73
1, 951521, Note_off_c, 0, 58, 56
1, 951531, Note_off_c, 0, 55, 49
1, 951543, Note_off_c, 0, 51, 55
1, 951546, Note_off_c, 0, 75, 62
1, 951568, Note_off_c, 0, 67, 59
1, 951623, Note_on_c, 0, 77, 90
1, 951636, Note_on_c, 0, 50, 64
1, 951638, Note_on_c, 0, 59, 66
1, 951639, Note_on_c, 0, 55, 61
1, 951649, Control_c, 0, 64, 90
1, 951664, Control_c, 0, 64, 65
1, 951679, Control_c, 0, 64, 53
1, 951693, Control_c, 0, 64, 54
1, 951703, Note_off_c, 0, 79, 56
1, 951708, Control_c, 0, 64, 62
1, 951723, Control_c, 0, 64, 74
1, 951738, Control_c, 0, 64, 108
1, 951744, Note_on_c, 0, 71, 80
1, 951753, Control_c, 0, 64, 127
1, 951780, Note_off_c, 0, 50, 60
1, 951846, Note_off_c, 0, 59, 56
1, 951858, Note_on_c, 0, 67, 77
1, 951861, Note_off_c, 0, 71, 61
1, 951879, Note_off_c, 0, 55, 61
1, 951940, Note_off_c, 0, 67, 44
1, 951963, Note_on_c, 0, 75, 95
1, 951968, Control_c, 0, 64, 74
1, 951979, Note_on_c, 0, 55, 70
1, 951982, Control_c, 0, 64, 47
1, 951984, Note_on_c, 0, 60, 60
1, 951989, Note_on_c, 0, 48, 66
1, 951997, Control_c, 0, 64, 0
1, 952024, Note_off_c, 0, 77, 59
1, 952026, Control_c, 0, 64, 39
1, 952041, Control_c, 0, 64, 60
1, 952056, Control_c, 0, 64, 76
1, 952071, Control_c, 0, 64, 99
1, 952077, Note_off_c, 0, 60, 64
1, 952078, Note_on_c, 0, 72, 76
1, 952086, Control_c, 0, 64, 127
1, 952099, Note_off_c, 0, 55, 62
1, 952116, Note_off_c, 0, 48, 63
1, 952178, Note_off_c, 0, 75, 57
1, 952193, Note_on_c, 0, 67, 82
1, 952210, Note_off_c, 0, 72, 65
1, 952352, Control_c, 0, 64, 100
1, 952355, Note_on_c, 0, 74, 99
1, 952363, Note_off_c, 0, 67, 56
1, 952367, Control_c, 0, 64, 68
1, 952380, Note_on_c, 0, 41, 58
1, 952382, Control_c, 0, 64, 33
1, 952397, Control_c, 0, 64, 0
1, 952471, Control_c, 0, 64, 40
1, 952486, Control_c, 0, 64, 58
1, 952501, Control_c, 0, 64, 67
1, 952510, Note_off_c, 0, 41, 64
1, 952515, Control_c, 0, 64, 76
1, 952519, Note_on_c, 0, 70, 64
1, 952530, Control_c, 0, 64, 87
1, 952552, Control_c, 0, 64, 99
1, 952567, Control_c, 0, 64, 127
1, 952617, Note_off_c, 0, 70, 63
1, 952634, Note_on_c, 0, 65, 52
1, 952683, Note_off_c, 0, 65, 53
1, 952754, Note_on_c, 0, 53, 48
1, 952754, Note_on_c, 0, 70, 61
1, 952757, Note_on_c, 0, 58, 45
1, 952782, Note_off_c, 0, 53, 62
1, 952786, Note_off_c, 0, 58, 54
1, 952856, Note_off_c, 0, 70, 56
1, 952874, Note_on_c, 0, 65, 53
1, 952977, Note_off_c, 0, 65, 55
1, 952995, Note_on_c, 0, 62, 56
1, 953062, Note_off_c, 0, 62, 60
1, 953101, Control_c, 0, 64, 78
1, 953104, Note_on_c, 0, 41, 55
1, 953116, Control_c, 0, 64, 62
1, 953131, Control_c, 0, 64, 51
1, 953145, Control_c, 0, 64, 49
1, 953160, Control_c, 0, 64, 54
1, 953175, Control_c, 0, 64, 62
1, 953190, Control_c, 0, 64, 74
1, 953205, Control_c, 0, 64, 87
1, 953220, Control_c, 0, 64, 102
1, 953222, Note_off_c, 0, 41, 62
1, 953235, Control_c, 0, 64, 123
1, 953247, Note_on_c, 0, 70, 68
1, 953250, Control_c, 0, 64, 127
1, 953341, Note_off_c, 0, 70, 61
1, 953359, Note_on_c, 0, 65, 61
1, 953423, Note_off_c, 0, 65, 51
1, 953467, Note_on_c, 0, 70, 67
1, 953469, Note_on_c, 0, 53, 62
1, 953476, Note_on_c, 0, 58, 53
1, 953500, Note_off_c, 0, 58, 62
1, 953504, Note_off_c, 0, 53, 64
1, 953594, Note_on_c, 0, 65, 60
1, 953594, Note_off_c, 0, 74, 42
1, 953622, Note_off_c, 0, 70, 51
1, 953670, Note_off_c, 0, 65, 61
1, 953700, Note_on_c, 0, 62, 60
1, 953781, Note_off_c, 0, 62, 57
1, 953858, Note_on_c, 0, 75, 87
1, 953888, Note_on_c, 0, 41, 60
1, 953894, Control_c, 0, 64, 112
1, 953909, Control_c, 0, 64, 73
1, 953924, Control_c, 0, 64, 55
1, 953939, Control_c, 0, 64, 35
1, 953954, Control_c, 0, 64, 0
1, 953998, Control_c, 0, 64, 40
1, 954013, Control_c, 0, 64, 58
1, 954016, Note_on_c, 0, 72, 64
1, 954024, Note_off_c, 0, 41, 62
1, 954028, Control_c, 0, 64, 65
1, 954050, Control_c, 0, 64, 68
1, 954065, Control_c, 0, 64, 72
1, 954080, Control_c, 0, 64, 77
1, 954094, Control_c, 0, 64, 82
1, 954109, Control_c, 0, 64, 89
1, 954124, Control_c, 0, 64, 100
1, 954139, Note_on_c, 0, 69, 56
1, 954139, Control_c, 0, 64, 112
1, 954140, Note_off_c, 0, 72, 55
1, 954154, Control_c, 0, 64, 127
1, 954281, Note_off_c, 0, 69, 37
1, 954287, Note_on_c, 0, 72, 54
1, 954304, Note_on_c, 0, 53, 42
1, 954314, Note_on_c, 0, 57, 43
1, 954339, Note_off_c, 0, 75, 57
1, 954352, Note_off_c, 0, 57, 63
1, 954356, Note_off_c, 0, 53, 55
1, 954419, Note_off_c, 0, 72, 58
1, 954442, Note_on_c, 0, 69, 42
1, 954544, Note_off_c, 0, 69, 61
1, 954594, Note_on_c, 0, 63, 43
1, 954677, Note_off_c, 0, 63, 53
1, 954738, Note_on_c, 0, 72, 76
1, 954921, Note_on_c, 0, 71, 78
1, 954947, Note_on_c, 0, 41, 51
1, 954950, Note_off_c, 0, 72, 61
1, 955007, Control_c, 0, 64, 107
1, 955022, Control_c, 0, 64, 82
1, 955037, Control_c, 0, 64, 63
1, 955051, Control_c, 0, 64, 49
1, 955066, Control_c, 0, 64, 36
1, 955080, Note_on_c, 0, 68, 59
1, 955081, Control_c, 0, 64, 32
1, 955096, Control_c, 0, 64, 32
1, 955111, Control_c, 0, 64, 37
1, 955125, Control_c, 0, 64, 48
1, 955140, Control_c, 0, 64, 59
1, 955155, Control_c, 0, 64, 64
1, 955163, Note_off_c, 0, 68, 57
1, 955170, Control_c, 0, 64, 69
1, 955185, Control_c, 0, 64, 73
1, 955199, Control_c, 0, 64, 78
1, 955214, Control_c, 0, 64, 82
1, 955215, Note_on_c, 0, 62, 50
1, 955229, Control_c, 0, 64, 87
1, 955244, Control_c, 0, 64, 91
1, 955255, Note_off_c, 0, 62, 57
1, 955259, Control_c, 0, 64, 94
1, 955274, Control_c, 0, 64, 95
1, 955319, Control_c, 0, 64, 98
1, 955335, Note_on_c, 0, 53, 46
1, 955358, Note_on_c, 0, 68, 47
1, 955363, Control_c, 0, 64, 100
1, 955394, Note_off_c, 0, 41, 42
1, 955438, Control_c, 0, 64, 102
1, 955456, Note_off_c, 0, 68, 50
1, 955472, Note_off_c, 0, 53, 36
1, 955492, Note_on_c, 0, 62, 36
1, 955618, Note_on_c, 0, 59, 36
1, 955631, Note_off_c, 0, 62, 35
1, 955693, Note_on_c, 0, 41, 44
1, 955727, Control_c, 0, 64, 99
1, 955741, Control_c, 0, 64, 91
1, 955756, Control_c, 0, 64, 78
1, 955771, Control_c, 0, 64, 68
1, 955786, Control_c, 0, 64, 61
1, 955801, Control_c, 0, 64, 58
1, 955815, Control_c, 0, 64, 58
1, 955830, Control_c, 0, 64, 58
1, 955845, Control_c, 0, 64, 60
1, 955849, Note_on_c, 0, 68, 39
1, 955860, Control_c, 0, 64, 63
1, 955874, Control_c, 0, 64, 67
1, 955889, Control_c, 0, 64, 71
1, 955903, Note_off_c, 0, 59, 37
1, 955904, Control_c, 0, 64, 75
1, 955919, Control_c, 0, 64, 78
1, 955934, Control_c, 0, 64, 79
1, 955936, Note_off_c, 0, 68, 56
1, 955948, Control_c, 0, 64, 79
1, 955959, Note_on_c, 0, 62, 40
1, 955963, Control_c, 0, 64, 80
1, 955978, Control_c, 0, 64, 80
1, 955992, Control_c, 0, 64, 81
1, 956007, Control_c, 0, 64, 82
1, 956022, Control_c, 0, 64, 84
1, 956037, Control_c, 0, 64, 85
1, 956052, Control_c, 0, 64, 87
1, 956055, Note_off_c, 0, 62, 51
1, 956061, Note_on_c, 0, 53, 39
1, 956067, Control_c, 0, 64, 89
1, 956076, Note_on_c, 0, 68, 44
1, 956081, Control_c, 0, 64, 92
1, 956096, Control_c, 0, 64, 95
1, 956112, Control_c, 0, 64, 98
1, 956125, Note_off_c, 0, 41, 38
1, 956127, Control_c, 0, 64, 100
1, 956157, Control_c, 0, 64, 103
1, 956186, Control_c, 0, 64, 105
1, 956196, Note_on_c, 0, 62, 43
1, 956216, Control_c, 0, 64, 107
1, 956260, Control_c, 0, 64, 109
1, 956278, Note_off_c, 0, 53, 24
1, 956278, Note_off_c, 0, 68, 39
1, 956296, Note_off_c, 0, 62, 54
1, 956312, Control_c, 0, 64, 111
1, 956320, Note_on_c, 0, 59, 47
1, 956423, Note_on_c, 0, 41, 35
1, 956460, Control_c, 0, 64, 108
1, 956475, Control_c, 0, 64, 104
1, 956490, Control_c, 0, 64, 101
1, 956520, Control_c, 0, 64, 99
1, 956552, Note_on_c, 0, 68, 37
1, 956651, Note_off_c, 0, 68, 47
1, 956652, Control_c, 0, 64, 101
1, 956656, Note_off_c, 0, 59, 33
1, 956669, Note_on_c, 0, 62, 42
1, 956696, Control_c, 0, 64, 104
1, 956741, Control_c, 0, 64, 106
1, 956751, Note_off_c, 0, 41, 25
1, 956770, Control_c, 0, 64, 110
1, 956775, Note_off_c, 0, 62, 53
1, 956797, Note_on_c, 0, 53, 27
1, 956800, Control_c, 0, 64, 112
1, 956809, Note_on_c, 0, 68, 37
1, 956845, Control_c, 0, 64, 114
1, 956889, Control_c, 0, 64, 117
1, 956937, Note_on_c, 0, 62, 37
1, 956979, Control_c, 0, 64, 120
1, 957000, Note_off_c, 0, 53, 26
1, 957003, Note_off_c, 0, 68, 38
1, 957004, Note_off_c, 0, 71, 40
1, 957050, Note_off_c, 0, 62, 49
1, 957061, Note_on_c, 0, 59, 45
1, 957259, Note_on_c, 0, 71, 70
1, 957273, Note_on_c, 0, 41, 37
1, 957306, Note_off_c, 0, 59, 38
1, 957312, Control_c, 0, 64, 112
1, 957327, Control_c, 0, 64, 99
1, 957342, Control_c, 0, 64, 84
1, 957357, Control_c, 0, 64, 69
1, 957372, Control_c, 0, 64, 57
1, 957387, Control_c, 0, 64, 48
1, 957402, Control_c, 0, 64, 46
1, 957417, Control_c, 0, 64, 47
1, 957432, Control_c, 0, 64, 51
1, 957446, Control_c, 0, 64, 57
1, 957450, Note_on_c, 0, 68, 45
1, 957461, Control_c, 0, 64, 62
1, 957476, Control_c, 0, 64, 66
1, 957491, Control_c, 0, 64, 70
1, 957506, Control_c, 0, 64, 75
1, 957520, Control_c, 0, 64, 79
1, 957535, Control_c, 0, 64, 82
1, 957550, Control_c, 0, 64, 87
1, 957565, Control_c, 0, 64, 91
1, 957567, Note_off_c, 0, 68, 54
1, 957580, Note_on_c, 0, 61, 42
1, 957580, Control_c, 0, 64, 95
1, 957594, Control_c, 0, 64, 97
1, 957609, Control_c, 0, 64, 100
1, 957624, Control_c, 0, 64, 105
1, 957638, Control_c, 0, 64, 113
1, 957653, Control_c, 0, 64, 127
1, 957671, Note_off_c, 0, 61, 54
1, 957673, Note_on_c, 0, 53, 32
1, 957711, Note_on_c, 0, 68, 43
1, 957775, Note_off_c, 0, 41, 41
1, 957812, Note_on_c, 0, 61, 52
1, 957843, Note_off_c, 0, 68, 35
1, 957945, Note_on_c, 0, 59, 50
1, 957976, Note_off_c, 0, 61, 35
1, 958002, Note_off_c, 0, 53, 34
1, 958021, Note_on_c, 0, 41, 47
1, 958156, Note_on_c, 0, 68, 59
1, 958260, Note_on_c, 0, 61, 55
1, 958261, Note_off_c, 0, 68, 59
1, 958337, Note_off_c, 0, 41, 31
1, 958361, Note_off_c, 0, 59, 8
1, 958370, Note_off_c, 0, 61, 62
1, 958376, Note_on_c, 0, 68, 71
1, 958389, Note_on_c, 0, 53, 49
1, 958487, Note_on_c, 0, 61, 66
1, 958522, Control_c, 0, 67, 122
1, 958544, Control_c, 0, 67, 105
1, 958559, Control_c, 0, 67, 96
1, 958574, Control_c, 0, 67, 91
1, 958581, Note_off_c, 0, 71, 33
1, 958588, Control_c, 0, 67, 85
1, 958591, Note_off_c, 0, 68, 58
1, 958603, Note_off_c, 0, 61, 61
1, 958603, Control_c, 0, 67, 76
1, 958610, Note_on_c, 0, 59, 71
1, 958618, Control_c, 0, 67, 66
1, 958633, Control_c, 0, 67, 60
1, 958648, Control_c, 0, 67, 57
1, 958663, Control_c, 0, 67, 56
1, 958678, Control_c, 0, 67, 54
1, 958748, Note_on_c, 0, 71, 89
1, 958752, Control_c, 0, 67, 53
1, 958758, Note_off_c, 0, 53, 29
1, 958766, Note_on_c, 0, 41, 58
1, 958766, Control_c, 0, 67, 53
1, 958781, Control_c, 0, 67, 53
1, 958796, Control_c, 0, 67, 54
1, 958825, Control_c, 0, 64, 92
1, 958840, Control_c, 0, 64, 67
1, 958855, Control_c, 0, 64, 50
1, 958855, Control_c, 0, 67, 56
1, 958869, Note_off_c, 0, 59, 32
1, 958870, Control_c, 0, 64, 44
1, 958870, Control_c, 0, 67, 56
1, 958876, Note_on_c, 0, 68, 69
1, 958884, Control_c, 0, 64, 47
1, 958884, Control_c, 0, 67, 56
1, 958899, Control_c, 0, 64, 55
1, 958899, Control_c, 0, 67, 53
1, 958914, Control_c, 0, 64, 68
1, 958914, Control_c, 0, 67, 50
1, 958929, Control_c, 0, 64, 83
1, 958929, Control_c, 0, 67, 49
1, 958944, Control_c, 0, 64, 112
1, 958944, Control_c, 0, 67, 42
1, 958958, Control_c, 0, 64, 127
1, 958958, Control_c, 0, 67, 0
1, 958988, Note_on_c, 0, 62, 68
1, 959022, Note_off_c, 0, 68, 60
1, 959117, Note_on_c, 0, 53, 54
1, 959120, Note_on_c, 0, 68, 83
1, 959136, Note_off_c, 0, 62, 62
1, 959187, Note_off_c, 0, 41, 55
1, 959191, Note_off_c, 0, 53, 56
1, 959243, Note_on_c, 0, 62, 72
1, 959302, Note_off_c, 0, 71, 52
1, 959364, Note_on_c, 0, 59, 75
1, 959376, Note_off_c, 0, 62, 61
1, 959398, Note_off_c, 0, 68, 56
1, 959474, Note_off_c, 0, 59, 59
1, 959558, Note_on_c, 0, 71, 83
1, 959587, Note_on_c, 0, 42, 57
1, 959633, Control_c, 0, 64, 104
1, 959648, Control_c, 0, 64, 77
1, 959663, Control_c, 0, 64, 59
1, 959678, Control_c, 0, 64, 36
1, 959693, Control_c, 0, 64, 0
1, 959693, Control_c, 0, 67, 64
1, 959707, Control_c, 0, 67, 110
1, 959716, Note_on_c, 0, 66, 65
1, 959722, Control_c, 0, 67, 121
1, 959752, Control_c, 0, 67, 125
1, 959767, Control_c, 0, 64, 33
1, 959767, Control_c, 0, 67, 127
1, 959781, Control_c, 0, 64, 52
1, 959796, Control_c, 0, 64, 66
1, 959811, Control_c, 0, 64, 73
1, 959826, Control_c, 0, 64, 80
1, 959840, Control_c, 0, 64, 85
1, 959847, Note_on_c, 0, 62, 64
1, 959855, Control_c, 0, 64, 96
1, 959870, Control_c, 0, 64, 127
1, 959880, Note_off_c, 0, 66, 54
1, 959969, Note_off_c, 0, 62, 40
1, 959998, Note_on_c, 0, 66, 64
1, 960042, Note_on_c, 0, 54, 43
1, 960104, Note_off_c, 0, 66, 63
1, 960106, Note_off_c, 0, 42, 56
1, 960120, Note_off_c, 0, 54, 44
1, 960140, Note_on_c, 0, 62, 59
1, 960213, Note_off_c, 0, 62, 60
1, 960214, Note_off_c, 0, 71, 0
1, 960214, Note_on_c, 0, 71, 5
1, 960246, Note_on_c, 0, 61, 61
1, 960332, Note_off_c, 0, 61, 52
1, 960342, Note_off_c, 0, 71, 40
1, 960356, Note_on_c, 0, 69, 73
1, 960428, Note_off_c, 0, 69, 62
1, 960527, Note_on_c, 0, 69, 76
1, 960571, Note_on_c, 0, 42, 48
1, 960604, Control_c, 0, 64, 106
1, 960618, Control_c, 0, 64, 81
1, 960633, Control_c, 0, 64, 64
1, 960648, Control_c, 0, 64, 45
1, 960663, Control_c, 0, 64, 30
1, 960678, Control_c, 0, 64, 0
1, 960708, Note_on_c, 0, 66, 52
1, 960723, Control_c, 0, 64, 31
1, 960737, Control_c, 0, 64, 35
1, 960752, Control_c, 0, 64, 35
1, 960767, Control_c, 0, 64, 39
1, 960788, Control_c, 0, 64, 48
1, 960803, Control_c, 0, 64, 57
1, 960813, Note_off_c, 0, 66, 58
1, 960818, Control_c, 0, 64, 63
1, 960833, Control_c, 0, 64, 64
1, 960838, Note_on_c, 0, 61, 30
1, 960863, Control_c, 0, 64, 64
1, 960878, Control_c, 0, 64, 65
1, 960893, Control_c, 0, 64, 67
1, 960908, Control_c, 0, 64, 70
1, 960923, Control_c, 0, 64, 72
1, 960938, Control_c, 0, 64, 75
1, 960941, Note_on_c, 0, 66, 55
1, 960949, Note_on_c, 0, 54, 40
1, 960953, Note_off_c, 0, 61, 39
1, 960953, Control_c, 0, 64, 80
1, 960967, Control_c, 0, 64, 86
1, 960982, Control_c, 0, 64, 94
1, 960997, Control_c, 0, 64, 99
1, 961012, Control_c, 0, 64, 101
1, 961031, Note_off_c, 0, 42, 38
1, 961066, Note_on_c, 0, 61, 46
1, 961083, Note_off_c, 0, 66, 35
1, 961131, Note_off_c, 0, 54, 37
1, 961131, Control_c, 0, 64, 103
1, 961140, Note_off_c, 0, 61, 47
1, 961176, Note_on_c, 0, 57, 48
1, 961279, Control_c, 0, 64, 101
1, 961294, Control_c, 0, 64, 94
1, 961306, Note_on_c, 0, 42, 49
1, 961309, Control_c, 0, 64, 82
1, 961324, Control_c, 0, 64, 69
1, 961339, Control_c, 0, 64, 59
1, 961353, Control_c, 0, 64, 51
1, 961368, Control_c, 0, 64, 50
1, 961383, Control_c, 0, 64, 51
1, 961398, Control_c, 0, 64, 55
1, 961412, Control_c, 0, 64, 59
1, 961425, Note_on_c, 0, 66, 49
1, 961427, Control_c, 0, 64, 63
1, 961442, Control_c, 0, 64, 65
1, 961457, Control_c, 0, 64, 68
1, 961472, Control_c, 0, 64, 70
1, 961486, Control_c, 0, 64, 72
1, 961501, Control_c, 0, 64, 74
1, 961522, Note_off_c, 0, 66, 57
1, 961524, Note_off_c, 0, 42, 36
1, 961525, Note_off_c, 0, 57, 34
1, 961539, Control_c, 0, 64, 74
1, 961541, Note_on_c, 0, 61, 48
1, 961554, Control_c, 0, 64, 75
1, 961568, Control_c, 0, 64, 78
1, 961583, Control_c, 0, 64, 81
1, 961598, Control_c, 0, 64, 85
1, 961612, Control_c, 0, 64, 89
1, 961627, Control_c, 0, 64, 94
1, 961642, Control_c, 0, 64, 100
1, 961657, Control_c, 0, 64, 110
1, 961660, Note_off_c, 0, 61, 55
1, 961666, Note_on_c, 0, 54, 43
1, 961672, Control_c, 0, 64, 127
1, 961674, Note_on_c, 0, 66, 46
1, 961709, Note_off_c, 0, 54, 63
1, 961773, Note_off_c, 0, 69, 46
1, 961799, Note_on_c, 0, 61, 45
1, 961842, Note_off_c, 0, 66, 38
1, 961860, Note_off_c, 0, 61, 54
1, 961910, Note_on_c, 0, 57, 46
1, 962076, Note_on_c, 0, 69, 64
1, 962102, Control_c, 0, 64, 112
1, 962110, Note_on_c, 0, 30, 31
1, 962117, Control_c, 0, 64, 89
1, 962130, Note_off_c, 0, 57, 37
1, 962132, Control_c, 0, 64, 73
1, 962147, Control_c, 0, 64, 61
1, 962162, Control_c, 0, 64, 50
1, 962176, Control_c, 0, 64, 43
1, 962191, Control_c, 0, 64, 40
1, 962206, Control_c, 0, 64, 37
1, 962233, Note_on_c, 0, 66, 48
1, 962235, Control_c, 0, 64, 40
1, 962250, Control_c, 0, 64, 47
1, 962265, Control_c, 0, 64, 56
1, 962288, Control_c, 0, 64, 61
1, 962303, Control_c, 0, 64, 63
1, 962317, Control_c, 0, 64, 65
1, 962332, Control_c, 0, 64, 68
1, 962335, Note_off_c, 0, 66, 58
1, 962347, Control_c, 0, 64, 74
1, 962351, Note_on_c, 0, 61, 39
1, 962361, Control_c, 0, 64, 80
1, 962376, Control_c, 0, 64, 83
1, 962391, Control_c, 0, 64, 84
1, 962406, Control_c, 0, 64, 85
1, 962421, Control_c, 0, 64, 86
1, 962435, Control_c, 0, 64, 87
1, 962450, Control_c, 0, 64, 90
1, 962458, Note_off_c, 0, 61, 51
1, 962465, Control_c, 0, 64, 93
1, 962467, Note_on_c, 0, 66, 52
1, 962476, Note_on_c, 0, 42, 32
1, 962480, Control_c, 0, 64, 95
1, 962495, Control_c, 0, 64, 95
1, 962511, Control_c, 0, 64, 96
1, 962550, Note_off_c, 0, 30, 36
1, 962555, Control_c, 0, 64, 98
1, 962601, Note_on_c, 0, 61, 45
1, 962613, Control_c, 0, 64, 100
1, 962635, Note_off_c, 0, 66, 36
1, 962649, Note_off_c, 0, 42, 27
1, 962678, Note_off_c, 0, 61, 50
1, 962715, Note_on_c, 0, 57, 46
1, 962821, Note_on_c, 0, 30, 44
1, 962835, Control_c, 0, 64, 95
1, 962849, Control_c, 0, 64, 85
1, 962864, Control_c, 0, 64, 72
1, 962879, Control_c, 0, 64, 61
1, 962894, Control_c, 0, 64, 52
1, 962909, Control_c, 0, 64, 50
1, 962923, Control_c, 0, 64, 51
1, 962938, Control_c, 0, 64, 53
1, 962953, Control_c, 0, 64, 58
1, 962968, Control_c, 0, 64, 62
1, 962970, Note_on_c, 0, 66, 47
1, 962982, Control_c, 0, 64, 64
1, 962997, Control_c, 0, 64, 65
1, 963012, Control_c, 0, 64, 67
1, 963035, Control_c, 0, 64, 72
1, 963050, Control_c, 0, 64, 78
1, 963053, Note_off_c, 0, 66, 51
1, 963064, Control_c, 0, 64, 81
1, 963079, Control_c, 0, 64, 82
1, 963081, Note_on_c, 0, 61, 44
1, 963109, Control_c, 0, 64, 83
1, 963138, Control_c, 0, 64, 83
1, 963153, Control_c, 0, 64, 84
1, 963168, Control_c, 0, 64, 84
1, 963182, Control_c, 0, 64, 85
1, 963196, Note_off_c, 0, 61, 28
1, 963197, Control_c, 0, 64, 86
1, 963212, Control_c, 0, 64, 86
1, 963215, Note_on_c, 0, 42, 37
1, 963215, Note_on_c, 0, 66, 47
1, 963220, Note_off_c, 0, 57, 8
1, 963227, Control_c, 0, 64, 87
1, 963242, Control_c, 0, 64, 89
1, 963257, Control_c, 0, 64, 91
1, 963258, Note_off_c, 0, 30, 40
1, 963271, Control_c, 0, 64, 92
1, 963286, Control_c, 0, 64, 94
1, 963302, Control_c, 0, 64, 94
1, 963317, Control_c, 0, 64, 95
1, 963343, Note_on_c, 0, 61, 46
1, 963347, Control_c, 0, 64, 97
1, 963375, Note_off_c, 0, 42, 26
1, 963391, Control_c, 0, 64, 99
1, 963393, Note_off_c, 0, 66, 32
1, 963410, Note_off_c, 0, 61, 49
1, 963414, Note_off_c, 0, 69, 39
1, 963435, Control_c, 0, 64, 102
1, 963457, Note_on_c, 0, 57, 40
1, 963603, Note_on_c, 0, 69, 66
1, 963608, Note_on_c, 0, 30, 36
1, 963620, Note_off_c, 0, 57, 27
1, 963628, Control_c, 0, 64, 96
1, 963643, Control_c, 0, 64, 84
1, 963658, Control_c, 0, 64, 70
1, 963672, Control_c, 0, 64, 58
1, 963687, Control_c, 0, 64, 49
1, 963702, Control_c, 0, 64, 46
1, 963732, Control_c, 0, 64, 47
1, 963746, Control_c, 0, 64, 52
1, 963761, Control_c, 0, 64, 57
1, 963764, Note_on_c, 0, 66, 49
1, 963784, Control_c, 0, 64, 61
1, 963799, Control_c, 0, 64, 63
1, 963813, Control_c, 0, 64, 66
1, 963828, Control_c, 0, 64, 68
1, 963843, Control_c, 0, 64, 71
1, 963858, Control_c, 0, 64, 76
1, 963873, Control_c, 0, 64, 80
1, 963887, Note_on_c, 0, 61, 39
1, 963887, Control_c, 0, 64, 83
1, 963901, Note_off_c, 0, 66, 36
1, 963902, Control_c, 0, 64, 85
1, 963917, Control_c, 0, 64, 86
1, 963932, Control_c, 0, 64, 87
1, 963947, Control_c, 0, 64, 88
1, 963961, Control_c, 0, 64, 90
1, 963976, Control_c, 0, 64, 92
1, 963991, Control_c, 0, 64, 94
1, 964005, Control_c, 0, 64, 95
1, 964024, Note_on_c, 0, 42, 36
1, 964035, Control_c, 0, 64, 97
1, 964038, Note_off_c, 0, 30, 43
1, 964040, Note_on_c, 0, 66, 47
1, 964050, Control_c, 0, 64, 99
1, 964065, Control_c, 0, 64, 102
1, 964068, Note_off_c, 0, 61, 43
1, 964079, Control_c, 0, 64, 105
1, 964094, Control_c, 0, 64, 108
1, 964111, Control_c, 0, 64, 111
1, 964126, Control_c, 0, 64, 113
1, 964141, Control_c, 0, 64, 117
1, 964156, Control_c, 0, 64, 123
1, 964171, Control_c, 0, 64, 127
1, 964179, Note_on_c, 0, 61, 47
1, 964240, Note_off_c, 0, 69, 32
1, 964245, Note_off_c, 0, 66, 26
1, 964252, Note_off_c, 0, 61, 46
1, 964305, Note_on_c, 0, 57, 43
1, 964315, Note_off_c, 0, 42, 28
1, 964357, Note_off_c, 0, 57, 59
1, 964449, Note_on_c, 0, 69, 61
1, 964479, Note_on_c, 0, 32, 43
1, 964511, Control_c, 0, 64, 103
1, 964533, Control_c, 0, 64, 76
1, 964548, Control_c, 0, 64, 60
1, 964562, Control_c, 0, 64, 46
1, 964577, Control_c, 0, 64, 40
1, 964592, Control_c, 0, 64, 38
1, 964622, Note_on_c, 0, 66, 52
1, 964622, Control_c, 0, 64, 41
1, 964637, Control_c, 0, 64, 50
1, 964652, Control_c, 0, 64, 57
1, 964666, Control_c, 0, 64, 62
1, 964681, Control_c, 0, 64, 64
1, 964696, Control_c, 0, 64, 65
1, 964711, Control_c, 0, 64, 67
1, 964714, Note_off_c, 0, 66, 56
1, 964726, Control_c, 0, 64, 72
1, 964741, Control_c, 0, 64, 77
1, 964755, Control_c, 0, 64, 84
1, 964760, Note_on_c, 0, 61, 42
1, 964770, Control_c, 0, 64, 89
1, 964785, Control_c, 0, 64, 92
1, 964800, Control_c, 0, 64, 95
1, 964815, Control_c, 0, 64, 97
1, 964829, Control_c, 0, 64, 101
1, 964844, Control_c, 0, 64, 108
1, 964859, Control_c, 0, 64, 127
1, 964897, Note_on_c, 0, 66, 47
1, 964904, Note_off_c, 0, 61, 28
1, 964915, Note_on_c, 0, 44, 33
1, 965039, Note_on_c, 0, 61, 50
1, 965050, Note_off_c, 0, 32, 35
1, 965082, Note_off_c, 0, 66, 34
1, 965085, Note_off_c, 0, 44, 34
1, 965179, Note_on_c, 0, 64, 55
1, 965228, Note_off_c, 0, 69, 30
1, 965291, Note_off_c, 0, 64, 58
1, 965317, Note_on_c, 0, 68, 59
1, 965319, Note_off_c, 0, 61, 39
1, 965355, Note_off_c, 0, 68, 57
1, 965497, Note_on_c, 0, 68, 53
1, 965524, Note_on_c, 0, 32, 42
1, 965564, Control_c, 0, 64, 95
1, 965578, Control_c, 0, 64, 77
1, 965593, Control_c, 0, 64, 65
1, 965608, Control_c, 0, 64, 58
1, 965623, Control_c, 0, 64, 53
1, 965638, Control_c, 0, 64, 51
1, 965652, Control_c, 0, 64, 49
1, 965667, Control_c, 0, 64, 47
1, 965668, Note_on_c, 0, 64, 51
1, 965772, Control_c, 0, 64, 48
1, 965787, Control_c, 0, 64, 49
1, 965792, Note_on_c, 0, 61, 39
1, 965801, Control_c, 0, 64, 50
1, 965813, Note_off_c, 0, 64, 36
1, 965816, Control_c, 0, 64, 51
1, 965831, Control_c, 0, 64, 53
1, 965846, Control_c, 0, 64, 56
1, 965861, Control_c, 0, 64, 59
1, 965875, Control_c, 0, 64, 63
1, 965890, Control_c, 0, 64, 68
1, 965905, Control_c, 0, 64, 72
1, 965915, Note_on_c, 0, 44, 30
1, 965916, Note_off_c, 0, 61, 48
1, 965920, Control_c, 0, 64, 77
1, 965930, Note_on_c, 0, 64, 50
1, 965935, Control_c, 0, 64, 81
1, 965949, Control_c, 0, 64, 86
1, 965964, Control_c, 0, 64, 90
1, 965979, Control_c, 0, 64, 93
1, 965987, Note_off_c, 0, 32, 41
1, 965993, Control_c, 0, 64, 96
1, 966031, Control_c, 0, 64, 98
1, 966063, Note_on_c, 0, 61, 47
1, 966077, Note_off_c, 0, 64, 39
1, 966130, Note_off_c, 0, 44, 37
1, 966190, Note_on_c, 0, 56, 46
1, 966198, Note_off_c, 0, 61, 35
1, 966258, Note_off_c, 0, 56, 41
1, 966268, Control_c, 0, 64, 95
1, 966282, Control_c, 0, 64, 91
1, 966297, Control_c, 0, 64, 84
1, 966312, Control_c, 0, 64, 75
1, 966315, Note_on_c, 0, 32, 43
1, 966327, Control_c, 0, 64, 67
1, 966342, Control_c, 0, 64, 62
1, 966357, Control_c, 0, 64, 58
1, 966372, Control_c, 0, 64, 56
1, 966386, Control_c, 0, 64, 53
1, 966401, Control_c, 0, 64, 50
1, 966416, Control_c, 0, 64, 47
1, 966431, Control_c, 0, 64, 45
1, 966436, Note_on_c, 0, 64, 46
1, 966461, Control_c, 0, 64, 47
1, 966475, Control_c, 0, 64, 50
1, 966490, Control_c, 0, 64, 53
1, 966506, Control_c, 0, 64, 54
1, 966521, Control_c, 0, 64, 56
1, 966536, Control_c, 0, 64, 58
1, 966550, Note_off_c, 0, 64, 59
1, 966550, Control_c, 0, 64, 61
1, 966565, Control_c, 0, 64, 64
1, 966568, Note_on_c, 0, 61, 45
1, 966580, Control_c, 0, 64, 66
1, 966595, Control_c, 0, 64, 68
1, 966610, Control_c, 0, 64, 72
1, 966624, Control_c, 0, 64, 75
1, 966639, Control_c, 0, 64, 79
1, 966654, Control_c, 0, 64, 82
1, 966669, Control_c, 0, 64, 85
1, 966684, Control_c, 0, 64, 88
1, 966694, Note_off_c, 0, 61, 37
1, 966698, Control_c, 0, 64, 91
1, 966699, Note_on_c, 0, 44, 38
1, 966705, Note_on_c, 0, 64, 45
1, 966713, Control_c, 0, 64, 95
1, 966728, Control_c, 0, 64, 101
1, 966743, Control_c, 0, 64, 108
1, 966758, Control_c, 0, 64, 121
1, 966773, Note_off_c, 0, 32, 38
1, 966780, Control_c, 0, 64, 127
1, 966840, Note_off_c, 0, 44, 27
1, 966849, Note_off_c, 0, 64, 50
1, 966865, Note_on_c, 0, 61, 31
1, 966914, Note_off_c, 0, 68, 25
1, 966942, Note_off_c, 0, 61, 41
1, 966992, Note_on_c, 0, 56, 32
1, 967091, Control_c, 0, 64, 113
1, 967105, Control_c, 0, 64, 101
1, 967117, Note_on_c, 0, 68, 52
1, 967120, Control_c, 0, 64, 91
1, 967133, Note_on_c, 0, 32, 42
1, 967135, Control_c, 0, 64, 82
1, 967138, Note_off_c, 0, 56, 32
1, 967150, Control_c, 0, 64, 73
1, 967164, Control_c, 0, 64, 66
1, 967179, Control_c, 0, 64, 59
1, 967194, Control_c, 0, 64, 55
1, 967209, Control_c, 0, 64, 52
1, 967224, Control_c, 0, 64, 51
1, 967239, Control_c, 0, 64, 49
1, 967254, Control_c, 0, 64, 48
1, 967263, Note_on_c, 0, 63, 42
1, 967269, Control_c, 0, 64, 47
1, 967343, Control_c, 0, 64, 48
1, 967358, Control_c, 0, 64, 48
1, 967373, Control_c, 0, 64, 50
1, 967380, Note_off_c, 0, 63, 55
1, 967388, Control_c, 0, 64, 51
1, 967388, Note_on_c, 0, 61, 44
1, 967462, Control_c, 0, 64, 52
1, 967508, Note_off_c, 0, 61, 58
1, 967528, Control_c, 0, 64, 52
1, 967537, Note_on_c, 0, 63, 44
1, 967537, Note_on_c, 0, 44, 28
1, 967543, Control_c, 0, 64, 53
1, 967558, Control_c, 0, 64, 55
1, 967573, Control_c, 0, 64, 58
1, 967588, Control_c, 0, 64, 61
1, 967603, Control_c, 0, 64, 63
1, 967618, Control_c, 0, 64, 66
1, 967632, Control_c, 0, 64, 71
1, 967647, Control_c, 0, 64, 77
1, 967650, Note_off_c, 0, 32, 41
1, 967662, Control_c, 0, 64, 81
1, 967663, Note_on_c, 0, 61, 40
1, 967677, Control_c, 0, 64, 83
1, 967692, Control_c, 0, 64, 85
1, 967707, Control_c, 0, 64, 87
1, 967718, Note_off_c, 0, 44, 39
1, 967721, Control_c, 0, 64, 89
1, 967736, Control_c, 0, 64, 90
1, 967751, Control_c, 0, 64, 90
1, 967774, Note_off_c, 0, 63, 28
1, 967805, Note_on_c, 0, 56, 40
1, 967805, Note_off_c, 0, 61, 33
1, 967823, Note_off_c, 0, 68, 41
1, 967899, Control_c, 0, 64, 90
1, 967929, Note_on_c, 0, 32, 42
1, 967958, Control_c, 0, 64, 89
1, 967987, Control_c, 0, 64, 89
1, 967988, Note_on_c, 0, 68, 22
1, 968062, Control_c, 0, 64, 88
1, 968126, Note_on_c, 0, 63, 42
1, 968193, Note_off_c, 0, 63, 38
1, 968235, Note_on_c, 0, 61, 42
1, 968241, Control_c, 0, 64, 88
1, 968256, Control_c, 0, 64, 87
1, 968277, Control_c, 0, 64, 83
1, 968292, Control_c, 0, 64, 76
1, 968307, Control_c, 0, 64, 64
1, 968322, Note_off_c, 0, 61, 47
1, 968322, Control_c, 0, 64, 56
1, 968337, Control_c, 0, 64, 52
1, 968366, Control_c, 0, 64, 53
1, 968381, Control_c, 0, 64, 55
1, 968382, Note_on_c, 0, 63, 32
1, 968387, Note_on_c, 0, 44, 21
1, 968396, Control_c, 0, 64, 60
1, 968411, Control_c, 0, 64, 64
1, 968425, Control_c, 0, 64, 68
1, 968432, Note_off_c, 0, 56, 22
1, 968440, Control_c, 0, 64, 74
1, 968455, Control_c, 0, 64, 83
1, 968470, Control_c, 0, 64, 91
1, 968485, Control_c, 0, 64, 97
1, 968500, Control_c, 0, 64, 103
1, 968515, Control_c, 0, 64, 109
1, 968523, Note_off_c, 0, 32, 42
1, 968529, Control_c, 0, 64, 117
1, 968536, Note_off_c, 0, 44, 33
1, 968537, Note_on_c, 0, 61, 31
1, 968544, Control_c, 0, 64, 127
1, 968625, Note_off_c, 0, 68, 40
1, 968649, Note_off_c, 0, 63, 35
1, 968668, Note_on_c, 0, 56, 29
1, 968674, Note_off_c, 0, 61, 31
1, 968834, Note_on_c, 0, 68, 49
1, 968842, Note_on_c, 0, 32, 33
1, 968870, Control_c, 0, 64, 102
1, 968884, Control_c, 0, 64, 90
1, 968900, Control_c, 0, 64, 82
1, 968915, Control_c, 0, 64, 74
1, 968930, Control_c, 0, 64, 68
1, 968945, Control_c, 0, 64, 63
1, 968960, Control_c, 0, 64, 61
1, 968974, Control_c, 0, 64, 59
1, 968989, Control_c, 0, 64, 59
1, 969012, Note_on_c, 0, 63, 42
1, 969041, Control_c, 0, 64, 58
1, 969174, Note_on_c, 0, 60, 34
1, 969179, Note_off_c, 0, 63, 39
1, 969387, Note_on_c, 0, 44, 27
1, 969397, Note_off_c, 0, 56, 1
1, 969399, Note_off_c, 0, 60, 44
1, 969408, Note_on_c, 0, 63, 35
1, 969441, Control_c, 0, 64, 59
1, 969626, Note_on_c, 0, 60, 36
1, 969629, Note_off_c, 0, 63, 33
1, 969678, Control_c, 0, 64, 59
1, 969694, Control_c, 0, 64, 60
1, 969723, Control_c, 0, 64, 60
1, 969753, Control_c, 0, 64, 61
1, 969775, Control_c, 0, 64, 61
1, 969790, Control_c, 0, 64, 63
1, 969805, Control_c, 0, 64, 64
1, 969820, Control_c, 0, 64, 65
1, 969835, Control_c, 0, 64, 66
1, 969849, Control_c, 0, 64, 67
1, 969864, Control_c, 0, 64, 69
1, 969879, Control_c, 0, 64, 72
1, 969894, Control_c, 0, 64, 75
1, 969909, Control_c, 0, 64, 77
1, 969938, Control_c, 0, 64, 77
1, 969941, Note_off_c, 0, 60, 28
1, 969953, Control_c, 0, 64, 78
1, 969967, Note_on_c, 0, 56, 29
1, 969967, Control_c, 0, 64, 79
1, 969982, Control_c, 0, 64, 81
1, 969997, Control_c, 0, 64, 83
1, 970012, Control_c, 0, 64, 84
1, 970027, Control_c, 0, 64, 88
1, 970041, Control_c, 0, 64, 92
1, 970056, Control_c, 0, 64, 97
1, 970071, Control_c, 0, 64, 102
1, 970086, Control_c, 0, 64, 105
1, 970089, Note_off_c, 0, 56, 25
1, 970116, Control_c, 0, 64, 108
1, 970148, Note_off_c, 0, 44, 21
1, 970160, Control_c, 0, 64, 110
1, 970211, Note_off_c, 0, 32, 38
1, 970266, Note_off_c, 0, 68, 39
1, 970367, Control_c, 0, 64, 107
1, 970397, Control_c, 0, 64, 105
1, 970427, Control_c, 0, 64, 103
1, 970471, Control_c, 0, 64, 100
1, 970524, Control_c, 0, 64, 97
1, 970539, Control_c, 0, 64, 96
1, 970554, Control_c, 0, 64, 94
1, 970569, Control_c, 0, 64, 93
1, 970584, Control_c, 0, 64, 92
1, 970598, Control_c, 0, 64, 91
1, 970613, Control_c, 0, 64, 91
1, 970628, Control_c, 0, 64, 89
1, 970643, Control_c, 0, 64, 88
1, 970658, Control_c, 0, 64, 87
1, 970672, Control_c, 0, 64, 86
1, 970687, Control_c, 0, 64, 85
1, 970702, Control_c, 0, 64, 84
1, 970716, Control_c, 0, 64, 84
1, 970731, Control_c, 0, 64, 83
1, 970746, Control_c, 0, 64, 82
1, 970761, Control_c, 0, 64, 81
1, 970776, Control_c, 0, 64, 81
1, 970790, Control_c, 0, 64, 80
1, 970820, Control_c, 0, 64, 80
1, 970835, Control_c, 0, 64, 79
1, 970850, Control_c, 0, 64, 79
1, 970864, Control_c, 0, 64, 78
1, 970879, Control_c, 0, 64, 77
1, 970894, Control_c, 0, 64, 76
1, 970909, Control_c, 0, 64, 75
1, 970938, Control_c, 0, 64, 75
1, 970968, Control_c, 0, 64, 74
1, 970983, Control_c, 0, 64, 73
1, 970998, Control_c, 0, 64, 73
1, 971013, Control_c, 0, 64, 72
1, 971043, Control_c, 0, 64, 72
1, 971072, Control_c, 0, 64, 71
1, 971087, Control_c, 0, 64, 71
1, 971131, Control_c, 0, 64, 70
1, 971146, Control_c, 0, 64, 69
1, 971161, Control_c, 0, 64, 68
1, 971176, Control_c, 0, 64, 68
1, 971190, Control_c, 0, 64, 67
1, 971220, Control_c, 0, 64, 67
1, 971235, Control_c, 0, 64, 66
1, 971250, Control_c, 0, 64, 66
1, 971287, Control_c, 0, 64, 65
1, 971332, Control_c, 0, 64, 65
1, 971377, Control_c, 0, 64, 64
1, 971406, Control_c, 0, 64, 64
1, 971481, Control_c, 0, 64, 63
1, 971554, Control_c, 0, 64, 63
1, 971569, Control_c, 0, 64, 62
1, 971613, Control_c, 0, 64, 62
1, 971658, Control_c, 0, 64, 61
1, 971732, Control_c, 0, 64, 61
1, 971821, Control_c, 0, 64, 60
1, 971865, Control_c, 0, 64, 60
1, 971895, Control_c, 0, 64, 59
1, 971925, Control_c, 0, 64, 59
1, 971954, Control_c, 0, 64, 58
1, 971969, Control_c, 0, 64, 57
1, 971984, Control_c, 0, 64, 57
1, 972065, Control_c, 0, 64, 56
1, 972466, Control_c, 0, 64, 57
1, 972784, Control_c, 0, 64, 57
1, 972934, Control_c, 0, 64, 58
1, 973052, Control_c, 0, 64, 58
1, 973082, Control_c, 0, 64, 59
1, 973111, Control_c, 0, 64, 59
1, 973171, Control_c, 0, 64, 60
1, 973230, Control_c, 0, 64, 60
1, 973304, Control_c, 0, 64, 61
1, 973333, Control_c, 0, 64, 62
1, 973392, Control_c, 0, 64, 62
1, 973422, Control_c, 0, 64, 63
1, 973437, Control_c, 0, 64, 64
1, 973452, Control_c, 0, 64, 64
1, 973481, Control_c, 0, 64, 65
1, 973496, Control_c, 0, 64, 66
1, 973518, Control_c, 0, 64, 68
1, 973533, Control_c, 0, 64, 71
1, 973548, Control_c, 0, 64, 72
1, 973578, Control_c, 0, 64, 73
1, 973592, Control_c, 0, 64, 74
1, 973607, Control_c, 0, 64, 76
1, 973622, Control_c, 0, 64, 79
1, 973637, Control_c, 0, 64, 81
1, 973652, Control_c, 0, 64, 81
1, 973666, Control_c, 0, 64, 82
1, 973697, Control_c, 0, 64, 82
1, 973712, Control_c, 0, 64, 84
1, 973727, Control_c, 0, 64, 85
1, 973741, Control_c, 0, 64, 86
1, 973756, Control_c, 0, 64, 87
1, 973771, Control_c, 0, 64, 87
1, 973786, Control_c, 0, 64, 88
1, 973801, Control_c, 0, 64, 89
1, 973815, Control_c, 0, 64, 92
1, 973830, Control_c, 0, 64, 95
1, 973846, Control_c, 0, 64, 98
1, 973861, Control_c, 0, 64, 101
1, 973876, Control_c, 0, 64, 104
1, 973890, Control_c, 0, 64, 108
1, 973905, Control_c, 0, 64, 113
1, 973920, Control_c, 0, 64, 118
1, 973934, Control_c, 0, 64, 127
1, 974441, Note_on_c, 0, 68, 51
1, 974459, Note_on_c, 0, 64, 38
1, 974464, Note_on_c, 0, 37, 37
1, 974657, Note_off_c, 0, 37, 40
1, 975212, Note_on_c, 0, 49, 25
1, 975579, Control_c, 0, 64, 92
1, 975594, Control_c, 0, 64, 73
1, 975609, Control_c, 0, 64, 61
1, 975624, Control_c, 0, 64, 55
1, 975639, Control_c, 0, 64, 56
1, 975653, Control_c, 0, 64, 60
1, 975668, Control_c, 0, 64, 67
1, 975681, Note_on_c, 0, 61, 28
1, 975683, Control_c, 0, 64, 79
1, 975698, Control_c, 0, 64, 97
1, 975712, Control_c, 0, 64, 115
1, 975727, Control_c, 0, 64, 127
1, 975751, Note_off_c, 0, 49, 50
1, 975772, Note_off_c, 0, 61, 57
1, 976144, Note_on_c, 0, 73, 45
1, 976186, Note_off_c, 0, 73, 62
1, 976217, Note_off_c, 0, 68, 60
1, 976229, Note_off_c, 0, 64, 62
1, 976613, Note_on_c, 0, 68, 63
1, 976633, Note_on_c, 0, 64, 40
1, 976856, Note_on_c, 0, 37, 68
1, 976891, Note_off_c, 0, 37, 60
1, 976915, Control_c, 0, 64, 104
1, 976930, Control_c, 0, 64, 80
1, 976945, Control_c, 0, 64, 65
1, 976959, Control_c, 0, 64, 55
1, 976974, Control_c, 0, 64, 46
1, 976989, Control_c, 0, 64, 37
1, 977004, Control_c, 0, 64, 0
1, 977118, Note_on_c, 0, 37, 57
1, 977177, Note_off_c, 0, 37, 60
1, 977189, Note_off_c, 0, 64, 64
1, 977402, Note_on_c, 0, 36, 44
1, 977456, Note_off_c, 0, 36, 60
1, 977525, Note_on_c, 0, 66, 55
1, 977531, Note_on_c, 0, 63, 37
1, 977650, Note_off_c, 0, 63, 59
1, 977663, Note_off_c, 0, 68, 39
1, 977693, Note_off_c, 0, 66, 63
1, 977794, Note_on_c, 0, 66, 54
1, 977803, Note_on_c, 0, 37, 35
1, 977805, Note_on_c, 0, 63, 46
1, 977811, Control_c, 0, 64, 32
1, 977826, Control_c, 0, 64, 33
1, 977841, Control_c, 0, 64, 39
1, 977855, Control_c, 0, 64, 51
1, 977870, Control_c, 0, 64, 64
1, 977885, Control_c, 0, 64, 73
1, 977899, Control_c, 0, 64, 81
1, 977905, Note_off_c, 0, 37, 51
1, 977914, Control_c, 0, 64, 85
1, 977929, Control_c, 0, 64, 89
1, 977944, Control_c, 0, 64, 99
1, 977959, Control_c, 0, 64, 127
1, 978432, Note_on_c, 0, 49, 38
1, 978790, Control_c, 0, 64, 93
1, 978804, Control_c, 0, 64, 72
1, 978819, Control_c, 0, 64, 62
1, 978834, Control_c, 0, 64, 59
1, 978849, Control_c, 0, 64, 60
1, 978864, Control_c, 0, 64, 63
1, 978878, Control_c, 0, 64, 70
1, 978893, Control_c, 0, 64, 82
1, 978908, Control_c, 0, 64, 114
1, 978923, Control_c, 0, 64, 127
1, 978930, Note_on_c, 0, 61, 40
1, 978951, Note_off_c, 0, 49, 62
1, 978966, Note_off_c, 0, 61, 54
1, 979349, Note_on_c, 0, 73, 50
1, 979388, Note_off_c, 0, 73, 62
1, 979396, Note_off_c, 0, 63, 61
1, 979402, Note_off_c, 0, 66, 64
1, 979813, Note_on_c, 0, 66, 72
1, 979847, Note_on_c, 0, 63, 38
1, 979908, Note_off_c, 0, 63, 0
1, 979908, Note_on_c, 0, 63, 11
1, 980051, Note_on_c, 0, 37, 64
1, 980083, Note_off_c, 0, 37, 62
1, 980161, Control_c, 0, 64, 117
1, 980176, Control_c, 0, 64, 91
1, 980191, Control_c, 0, 64, 74
1, 980206, Control_c, 0, 64, 60
1, 980221, Control_c, 0, 64, 43
1, 980236, Control_c, 0, 64, 0
1, 980309, Note_on_c, 0, 37, 64
1, 980357, Note_off_c, 0, 37, 63
1, 980559, Note_on_c, 0, 36, 54
1, 980613, Note_off_c, 0, 36, 62
1, 980621, Note_off_c, 0, 66, 59
1, 980892, Note_on_c, 0, 69, 67
1, 980925, Note_on_c, 0, 37, 45
1, 980932, Note_on_c, 0, 66, 31
1, 981007, Control_c, 0, 64, 40
1, 981022, Control_c, 0, 64, 58
1, 981037, Control_c, 0, 64, 68
1, 981040, Note_off_c, 0, 37, 63
1, 981052, Control_c, 0, 64, 75
1, 981067, Control_c, 0, 64, 81
1, 981074, Note_off_c, 0, 63, 41
1, 981081, Control_c, 0, 64, 87
1, 981096, Control_c, 0, 64, 100
1, 981111, Control_c, 0, 64, 127
1, 981524, Note_on_c, 0, 49, 34
1, 981844, Control_c, 0, 64, 113
1, 981859, Control_c, 0, 64, 86
1, 981873, Control_c, 0, 64, 70
1, 981888, Control_c, 0, 64, 62
1, 981903, Control_c, 0, 64, 61
1, 981918, Control_c, 0, 64, 62
1, 981933, Control_c, 0, 64, 67
1, 981948, Control_c, 0, 64, 75
1, 981962, Control_c, 0, 64, 86
1, 981977, Control_c, 0, 64, 101
1, 981989, Note_on_c, 0, 61, 46
1, 981992, Control_c, 0, 64, 127
1, 982036, Note_off_c, 0, 49, 63
1, 982036, Note_off_c, 0, 61, 57
1, 982433, Note_on_c, 0, 73, 51
1, 982477, Note_off_c, 0, 73, 61
1, 982519, Note_off_c, 0, 69, 60
1, 982549, Control_c, 0, 67, 119
1, 982549, Note_off_c, 0, 66, 42
1, 982564, Control_c, 0, 67, 109
1, 982578, Control_c, 0, 67, 102
1, 982638, Control_c, 0, 67, 105
1, 982652, Control_c, 0, 67, 107
1, 982667, Control_c, 0, 67, 110
1, 982682, Control_c, 0, 67, 115
1, 982696, Control_c, 0, 67, 120
1, 982741, Control_c, 0, 67, 123
1, 982756, Control_c, 0, 67, 126
1, 982923, Note_on_c, 0, 69, 67
1, 982942, Note_on_c, 0, 66, 46
1, 982998, Note_off_c, 0, 66, 0
1, 982998, Note_on_c, 0, 66, 21
1, 983082, Control_c, 0, 64, 114
1, 983096, Control_c, 0, 64, 104
1, 983111, Control_c, 0, 64, 99
1, 983126, Control_c, 0, 64, 93
1, 983141, Control_c, 0, 64, 87
1, 983156, Control_c, 0, 64, 77
1, 983170, Control_c, 0, 64, 64
1, 983179, Note_on_c, 0, 37, 54
1, 983185, Control_c, 0, 64, 40
1, 983200, Control_c, 0, 64, 0
1, 983211, Note_off_c, 0, 37, 53
1, 983438, Note_on_c, 0, 68, 60
1, 983452, Note_on_c, 0, 37, 40
1, 983464, Note_on_c, 0, 64, 27
1, 983477, Note_off_c, 0, 69, 58
1, 983486, Note_off_c, 0, 66, 55
1, 983491, Note_off_c, 0, 37, 58
1, 983699, Note_on_c, 0, 66, 58
1, 983703, Note_on_c, 0, 36, 47
1, 983711, Note_off_c, 0, 64, 45
1, 983720, Note_on_c, 0, 63, 42
1, 983747, Note_off_c, 0, 36, 57
1, 983762, Note_off_c, 0, 68, 55
1, 984017, Note_off_c, 0, 63, 37
1, 984048, Note_on_c, 0, 68, 54
1, 984069, Note_on_c, 0, 64, 35
1, 984072, Note_on_c, 0, 37, 31
1, 984122, Note_off_c, 0, 66, 54
1, 984150, Control_c, 0, 64, 42
1, 984165, Control_c, 0, 64, 59
1, 984180, Control_c, 0, 64, 67
1, 984195, Control_c, 0, 64, 73
1, 984210, Control_c, 0, 64, 80
1, 984224, Control_c, 0, 64, 101
1, 984239, Control_c, 0, 64, 127
1, 984246, Note_off_c, 0, 37, 52
1, 984679, Note_on_c, 0, 49, 44
1, 985092, Control_c, 0, 64, 99
1, 985107, Control_c, 0, 64, 78
1, 985121, Control_c, 0, 64, 65
1, 985136, Control_c, 0, 64, 57
1, 985151, Control_c, 0, 64, 58
1, 985166, Control_c, 0, 64, 63
1, 985181, Note_on_c, 0, 61, 37
1, 985181, Control_c, 0, 64, 73
1, 985196, Control_c, 0, 64, 91
1, 985211, Control_c, 0, 64, 127
1, 985238, Note_off_c, 0, 49, 63
1, 985254, Note_off_c, 0, 61, 58
1, 985634, Note_on_c, 0, 73, 45
1, 985676, Note_off_c, 0, 73, 64
1, 985708, Control_c, 0, 67, 123
1, 985719, Note_off_c, 0, 68, 62
1, 985722, Control_c, 0, 67, 107
1, 985737, Control_c, 0, 67, 95
1, 985752, Control_c, 0, 67, 84
1, 985755, Note_off_c, 0, 64, 39
1, 985767, Control_c, 0, 67, 77
1, 985782, Control_c, 0, 67, 73
1, 985796, Control_c, 0, 67, 72
1, 985811, Control_c, 0, 67, 70
1, 985825, Control_c, 0, 67, 69
1, 985855, Control_c, 0, 67, 72
1, 985870, Control_c, 0, 67, 76
1, 985885, Control_c, 0, 67, 79
1, 985899, Control_c, 0, 67, 82
1, 985914, Control_c, 0, 67, 83
1, 985929, Control_c, 0, 67, 86
1, 985944, Control_c, 0, 67, 91
1, 985959, Control_c, 0, 67, 97
1, 986018, Control_c, 0, 67, 99
1, 986033, Control_c, 0, 67, 102
1, 986047, Control_c, 0, 67, 107
1, 986062, Control_c, 0, 67, 113
1, 986104, Note_on_c, 0, 68, 67
1, 986107, Control_c, 0, 67, 115
1, 986121, Control_c, 0, 67, 119
1, 986136, Control_c, 0, 67, 125
1, 986151, Note_on_c, 0, 64, 25
1, 986151, Control_c, 0, 67, 127
1, 986345, Note_on_c, 0, 37, 68
1, 986375, Note_off_c, 0, 37, 64
1, 986395, Control_c, 0, 64, 76
1, 986410, Control_c, 0, 64, 53
1, 986425, Control_c, 0, 64, 0
1, 986628, Note_on_c, 0, 37, 60
1, 986669, Note_off_c, 0, 37, 59
1, 986887, Note_on_c, 0, 36, 54
1, 986920, Note_off_c, 0, 64, 47
1, 986934, Note_off_c, 0, 36, 60
1, 987239, Note_on_c, 0, 71, 73
1, 987261, Note_on_c, 0, 65, 28
1, 987276, Note_on_c, 0, 37, 41
1, 987328, Note_off_c, 0, 68, 60
1, 987339, Control_c, 0, 64, 29
1, 987354, Control_c, 0, 64, 38
1, 987368, Control_c, 0, 64, 52
1, 987383, Control_c, 0, 64, 66
1, 987398, Control_c, 0, 64, 78
1, 987413, Note_off_c, 0, 37, 62
1, 987413, Control_c, 0, 64, 103
1, 987428, Control_c, 0, 64, 127
1, 987899, Note_on_c, 0, 49, 31
1, 988219, Control_c, 0, 64, 115
1, 988234, Control_c, 0, 64, 85
1, 988248, Control_c, 0, 64, 69
1, 988263, Control_c, 0, 64, 60
1, 988278, Control_c, 0, 64, 57
1, 988293, Control_c, 0, 64, 59
1, 988308, Control_c, 0, 64, 64
1, 988323, Control_c, 0, 64, 70
1, 988338, Control_c, 0, 64, 82
1, 988353, Control_c, 0, 64, 105
1, 988368, Control_c, 0, 64, 127
1, 988373, Note_on_c, 0, 61, 41
1, 988418, Note_off_c, 0, 61, 60
1, 988427, Note_off_c, 0, 49, 54
1, 988827, Note_on_c, 0, 73, 45
1, 988860, Note_off_c, 0, 73, 65
1, 988879, Control_c, 0, 67, 125
1, 988889, Note_off_c, 0, 71, 58
1, 988894, Control_c, 0, 67, 115
1, 988909, Control_c, 0, 67, 107
1, 988924, Control_c, 0, 67, 101
1, 988938, Control_c, 0, 67, 95
1, 988953, Control_c, 0, 67, 93
1, 988968, Control_c, 0, 67, 92
1, 988976, Note_off_c, 0, 65, 43
1, 989012, Control_c, 0, 67, 94
1, 989027, Control_c, 0, 67, 98
1, 989042, Control_c, 0, 67, 103
1, 989056, Control_c, 0, 67, 106
1, 989071, Control_c, 0, 67, 110
1, 989086, Control_c, 0, 67, 114
1, 989101, Control_c, 0, 67, 118
1, 989116, Control_c, 0, 67, 123
1, 989131, Control_c, 0, 67, 127
1, 989298, Note_on_c, 0, 71, 71
1, 989324, Note_on_c, 0, 65, 38
1, 989553, Control_c, 0, 64, 99
1, 989554, Note_on_c, 0, 68, 53
1, 989560, Note_on_c, 0, 37, 42
1, 989568, Control_c, 0, 64, 85
1, 989582, Control_c, 0, 64, 73
1, 989597, Note_off_c, 0, 37, 52
1, 989597, Control_c, 0, 64, 62
1, 989612, Control_c, 0, 64, 50
1, 989627, Control_c, 0, 64, 31
1, 989642, Control_c, 0, 64, 0
1, 989786, Note_off_c, 0, 68, 49
1, 989791, Note_on_c, 0, 69, 68
1, 989801, Note_on_c, 0, 37, 47
1, 989816, Note_on_c, 0, 66, 37
1, 989825, Note_off_c, 0, 65, 41
1, 989857, Note_off_c, 0, 37, 59
1, 990037, Note_off_c, 0, 66, 44
1, 990038, Note_off_c, 0, 71, 29
1, 990050, Note_on_c, 0, 65, 45
1, 990051, Note_on_c, 0, 68, 72
1, 990057, Note_on_c, 0, 36, 50
1, 990106, Note_off_c, 0, 69, 61
1, 990107, Note_off_c, 0, 36, 57
1, 990378, Note_on_c, 0, 69, 71
1, 990387, Note_off_c, 0, 65, 57
1, 990396, Note_on_c, 0, 66, 55
1, 990407, Note_on_c, 0, 37, 44
1, 990468, Note_off_c, 0, 68, 48
1, 990541, Control_c, 0, 64, 45
1, 990556, Control_c, 0, 64, 62
1, 990571, Control_c, 0, 64, 68
1, 990584, Note_off_c, 0, 37, 63
1, 990585, Control_c, 0, 64, 73
1, 990600, Control_c, 0, 64, 83
1, 990615, Control_c, 0, 64, 111
1, 990629, Control_c, 0, 64, 127
1, 990985, Note_on_c, 0, 49, 40
1, 991259, Control_c, 0, 64, 112
1, 991274, Control_c, 0, 64, 82
1, 991289, Control_c, 0, 64, 65
1, 991304, Control_c, 0, 64, 51
1, 991319, Control_c, 0, 64, 47
1, 991334, Control_c, 0, 64, 49
1, 991349, Control_c, 0, 64, 58
1, 991363, Control_c, 0, 64, 67
1, 991378, Control_c, 0, 64, 79
1, 991393, Control_c, 0, 64, 105
1, 991408, Control_c, 0, 64, 127
1, 991448, Note_on_c, 0, 61, 53
1, 991486, Note_off_c, 0, 49, 63
1, 991486, Note_off_c, 0, 61, 65
1, 991493, Note_off_c, 0, 66, 64
1, 991528, Note_off_c, 0, 69, 62
1, 991912, Note_on_c, 0, 73, 62
1, 991915, Note_on_c, 0, 69, 63
1, 991938, Note_off_c, 0, 73, 68
1, 991941, Note_on_c, 0, 66, 46
1, 991977, Note_off_c, 0, 66, 56
1, 992006, Note_off_c, 0, 69, 56
1, 992037, Control_c, 0, 67, 116
1, 992052, Control_c, 0, 67, 105
1, 992067, Control_c, 0, 67, 89
1, 992082, Control_c, 0, 67, 65
1, 992097, Control_c, 0, 67, 36
1, 992112, Control_c, 0, 67, 0
1, 992311, Control_c, 0, 67, 34
1, 992326, Control_c, 0, 67, 36
1, 992356, Control_c, 0, 67, 37
1, 992371, Control_c, 0, 67, 38
1, 992386, Control_c, 0, 67, 42
1, 992401, Control_c, 0, 67, 43
1, 992412, Note_on_c, 0, 69, 77
1, 992430, Control_c, 0, 67, 43
1, 992445, Control_c, 0, 67, 43
1, 992447, Note_on_c, 0, 66, 44
1, 992460, Control_c, 0, 67, 48
1, 992475, Control_c, 0, 67, 53
1, 992489, Control_c, 0, 67, 60
1, 992504, Control_c, 0, 67, 61
1, 992519, Control_c, 0, 64, 86
1, 992519, Control_c, 0, 67, 63
1, 992534, Control_c, 0, 64, 65
1, 992534, Control_c, 0, 67, 66
1, 992549, Control_c, 0, 64, 49
1, 992549, Control_c, 0, 67, 73
1, 992563, Control_c, 0, 64, 37
1, 992563, Control_c, 0, 67, 75
1, 992578, Control_c, 0, 64, 36
1, 992578, Control_c, 0, 67, 74
1, 992582, Note_off_c, 0, 66, 0
1, 992593, Control_c, 0, 64, 40
1, 992593, Control_c, 0, 67, 72
1, 992607, Control_c, 0, 64, 54
1, 992607, Control_c, 0, 67, 72
1, 992618, Poly_aftertouch_c, 0, 66, 127
1, 992622, Control_c, 0, 64, 69
1, 992622, Control_c, 0, 67, 71
1, 992637, Control_c, 0, 64, 94
1, 992637, Control_c, 0, 67, 69
1, 992652, Control_c, 0, 64, 127
1, 992652, Control_c, 0, 67, 67
1, 992659, Note_on_c, 0, 37, 56
1, 992667, Control_c, 0, 67, 65
1, 992675, Poly_aftertouch_c, 0, 66, 0
1, 992689, Note_off_c, 0, 37, 59
1, 992696, Control_c, 0, 67, 66
1, 992711, Control_c, 0, 67, 65
1, 992715, Note_off_c, 0, 69, 62
1, 992726, Control_c, 0, 67, 64
1, 992741, Control_c, 0, 67, 64
1, 992785, Control_c, 0, 67, 63
1, 992800, Control_c, 0, 67, 62
1, 992815, Control_c, 0, 67, 61
1, 992860, Control_c, 0, 67, 62
1, 992890, Control_c, 0, 67, 63
1, 992905, Control_c, 0, 67, 64
1, 992917, Note_on_c, 0, 69, 86
1, 992920, Control_c, 0, 64, 92
1, 992933, Note_on_c, 0, 37, 60
1, 992934, Control_c, 0, 64, 66
1, 992934, Control_c, 0, 67, 62
1, 992935, Note_on_c, 0, 66, 62
1, 992949, Control_c, 0, 64, 50
1, 992949, Control_c, 0, 67, 60
1, 992964, Control_c, 0, 64, 45
1, 992964, Control_c, 0, 67, 57
1, 992985, Note_off_c, 0, 37, 48
1, 992986, Control_c, 0, 64, 52
1, 992986, Control_c, 0, 67, 55
1, 993001, Control_c, 0, 64, 63
1, 993001, Control_c, 0, 67, 49
1, 993002, Note_off_c, 0, 66, 38
1, 993016, Control_c, 0, 64, 79
1, 993016, Control_c, 0, 67, 39
1, 993030, Control_c, 0, 64, 127
1, 993030, Control_c, 0, 67, 0
1, 993134, Note_off_c, 0, 69, 63
1, 993226, Note_on_c, 0, 36, 55
1, 993259, Note_off_c, 0, 36, 62
1, 993598, Note_on_c, 0, 73, 83
1, 993621, Note_on_c, 0, 37, 62
1, 993623, Note_on_c, 0, 69, 70
1, 993623, Control_c, 0, 64, 101
1, 993638, Control_c, 0, 64, 74
1, 993654, Control_c, 0, 64, 56
1, 993654, Control_c, 0, 67, 38
1, 993669, Control_c, 0, 64, 32
1, 993669, Control_c, 0, 67, 69
1, 993684, Control_c, 0, 64, 0
1, 993684, Control_c, 0, 67, 80
1, 993714, Control_c, 0, 67, 83
1, 993736, Control_c, 0, 67, 96
1, 993751, Control_c, 0, 67, 127
1, 993781, Control_c, 0, 64, 44
1, 993796, Control_c, 0, 64, 63
1, 993810, Control_c, 0, 64, 74
1, 993825, Control_c, 0, 64, 84
1, 993840, Control_c, 0, 64, 96
1, 993844, Note_off_c, 0, 37, 62
1, 993854, Control_c, 0, 64, 127
1, 994324, Note_on_c, 0, 49, 48
1, 994663, Control_c, 0, 64, 88
1, 994677, Control_c, 0, 64, 68
1, 994692, Control_c, 0, 64, 54
1, 994707, Control_c, 0, 64, 44
1, 994722, Control_c, 0, 64, 42
1, 994737, Control_c, 0, 64, 47
1, 994751, Control_c, 0, 64, 57
1, 994766, Control_c, 0, 64, 67
1, 994781, Control_c, 0, 64, 78
1, 994796, Control_c, 0, 64, 96
1, 994810, Control_c, 0, 64, 126
1, 994819, Note_on_c, 0, 61, 63
1, 994883, Note_off_c, 0, 49, 63
1, 994893, Note_off_c, 0, 61, 63
1, 995032, Note_off_c, 0, 73, 61
1, 995306, Note_on_c, 0, 73, 51
1, 995342, Note_off_c, 0, 73, 65
1, 995404, Note_off_c, 0, 69, 58
1, 995844, Note_on_c, 0, 73, 65
1, 995859, Note_on_c, 0, 69, 44
1, 996011, Control_c, 0, 64, 106
1, 996026, Control_c, 0, 64, 92
1, 996041, Control_c, 0, 64, 78
1, 996056, Control_c, 0, 64, 63
1, 996071, Control_c, 0, 64, 50
1, 996086, Control_c, 0, 64, 35
1, 996101, Control_c, 0, 64, 0
1, 996118, Note_on_c, 0, 37, 55
1, 996159, Note_off_c, 0, 37, 59
1, 996168, Note_off_c, 0, 69, 64
1, 996386, Note_on_c, 0, 37, 51
1, 996432, Note_off_c, 0, 37, 59
1, 996659, Note_on_c, 0, 69, 56
1, 996672, Note_on_c, 0, 66, 44
1, 996685, Note_on_c, 0, 36, 32
1, 996733, Note_off_c, 0, 73, 64
1, 996741, Note_off_c, 0, 36, 52
1, 997034, Note_off_c, 0, 66, 36
1, 997036, Note_on_c, 0, 68, 57
1, 997043, Note_on_c, 0, 64, 45
1, 997053, Note_on_c, 0, 37, 38
1, 997079, Note_off_c, 0, 69, 57
1, 997191, Control_c, 0, 64, 42
1, 997205, Control_c, 0, 64, 57
1, 997220, Control_c, 0, 64, 65
1, 997235, Control_c, 0, 64, 72
1, 997248, Note_off_c, 0, 37, 56
1, 997250, Control_c, 0, 64, 82
1, 997265, Control_c, 0, 64, 96
1, 997279, Control_c, 0, 64, 127
1, 997655, Note_on_c, 0, 49, 39
1, 998132, Control_c, 0, 64, 110
1, 998146, Control_c, 0, 64, 89
1, 998161, Control_c, 0, 64, 72
1, 998176, Control_c, 0, 64, 60
1, 998187, Note_on_c, 0, 61, 37
1, 998191, Control_c, 0, 64, 51
1, 998206, Control_c, 0, 64, 50
1, 998228, Control_c, 0, 64, 55
1, 998243, Control_c, 0, 64, 63
1, 998258, Control_c, 0, 64, 72
1, 998273, Control_c, 0, 64, 87
1, 998288, Control_c, 0, 64, 118
1, 998302, Control_c, 0, 64, 127
1, 998329, Note_off_c, 0, 49, 62
1, 998364, Note_off_c, 0, 61, 62
1, 998773, Note_on_c, 0, 73, 35
1, 998825, Note_off_c, 0, 73, 60
1, 999436, Note_off_c, 0, 64, 57
1, 999483, Note_off_c, 0, 68, 62
1, 999520, Note_on_c, 0, 37, 43
1, 999558, Note_off_c, 0, 37, 55
1, 999831, Note_on_c, 0, 68, 44
1, 999835, Note_on_c, 0, 37, 40
1, 999844, Note_on_c, 0, 64, 34
1, 999844, Control_c, 0, 64, 104
1, 999859, Control_c, 0, 64, 91
1, 999874, Control_c, 0, 64, 81
1, 999874, Note_off_c, 0, 37, 56
1, 999889, Control_c, 0, 64, 73
1, 999904, Control_c, 0, 64, 66
1, 999918, Control_c, 0, 64, 60
1, 999933, Control_c, 0, 64, 57
1, 999948, Control_c, 0, 64, 55
1, 999963, Control_c, 0, 64, 53
1, 999978, Control_c, 0, 64, 51
1, 999992, Control_c, 0, 64, 48
1, 1000007, Control_c, 0, 64, 45
1, 1000022, Control_c, 0, 64, 42
1, 1000037, Control_c, 0, 64, 40
1, 1000053, Control_c, 0, 64, 37
1, 1000068, Control_c, 0, 64, 35
1, 1000083, Control_c, 0, 64, 33
1, 1000097, Control_c, 0, 64, 32
1, 1000112, Control_c, 0, 64, 32
1, 1000142, Control_c, 0, 64, 36
1, 1000157, Control_c, 0, 64, 45
1, 1000171, Control_c, 0, 64, 58
1, 1000181, Note_on_c, 0, 40, 20
1, 1000186, Control_c, 0, 64, 68
1, 1000201, Control_c, 0, 64, 77
1, 1000215, Control_c, 0, 64, 88
1, 1000230, Control_c, 0, 64, 99
1, 1000236, Note_off_c, 0, 40, 45
1, 1000245, Control_c, 0, 64, 117
1, 1000254, Note_off_c, 0, 68, 54
1, 1000260, Control_c, 0, 64, 127
1, 1000306, Note_off_c, 0, 64, 45
1, 1000652, Note_on_c, 0, 73, 48
1, 1000682, Note_on_c, 0, 69, 31
1, 1000689, Note_on_c, 0, 32, 38
1, 1000691, Note_on_c, 0, 64, 34
1, 1000712, Control_c, 0, 64, 94
1, 1000726, Control_c, 0, 64, 73
1, 1000741, Control_c, 0, 64, 56
1, 1000756, Control_c, 0, 64, 45
1, 1000771, Control_c, 0, 64, 41
1, 1000800, Control_c, 0, 64, 46
1, 1000814, Control_c, 0, 64, 56
1, 1000829, Control_c, 0, 64, 64
1, 1000845, Control_c, 0, 64, 73
1, 1000860, Control_c, 0, 64, 84
1, 1000875, Control_c, 0, 64, 98
1, 1000890, Control_c, 0, 64, 127
1, 1000972, Note_off_c, 0, 32, 38
1, 1000998, Note_off_c, 0, 69, 40
1, 1001008, Note_off_c, 0, 64, 41
1, 1001494, Note_on_c, 0, 44, 43
1, 1001768, Note_on_c, 0, 72, 55
1, 1001780, Note_on_c, 0, 68, 48
1, 1001791, Note_on_c, 0, 63, 43
1, 1001809, Note_off_c, 0, 73, 62
1, 1001876, Note_off_c, 0, 63, 51
1, 1001886, Note_off_c, 0, 72, 54
1, 1001894, Note_off_c, 0, 68, 37
1, 1002124, Note_on_c, 0, 68, 49
1, 1002125, Note_on_c, 0, 72, 52
1, 1002128, Note_on_c, 0, 56, 46
1, 1002131, Note_on_c, 0, 63, 47
1, 1002149, Control_c, 0, 64, 106
1, 1002164, Control_c, 0, 64, 76
1, 1002179, Control_c, 0, 64, 57
1, 1002193, Control_c, 0, 64, 45
1, 1002208, Control_c, 0, 64, 42
1, 1002223, Control_c, 0, 64, 45
1, 1002238, Control_c, 0, 64, 57
1, 1002253, Control_c, 0, 64, 70
1, 1002262, Note_off_c, 0, 44, 63
1, 1002268, Control_c, 0, 64, 99
1, 1002281, Note_off_c, 0, 56, 63
1, 1002283, Control_c, 0, 64, 127
1, 1002718, Note_on_c, 0, 80, 41
1, 1002751, Note_off_c, 0, 80, 65
1, 1003138, Note_off_c, 0, 63, 51
1, 1003249, Note_off_c, 0, 68, 63
1, 1003265, Note_off_c, 0, 72, 63
1, 1003469, Note_on_c, 0, 32, 59
1, 1003511, Note_off_c, 0, 32, 48
1, 1003763, Note_on_c, 0, 72, 80
1, 1003773, Note_on_c, 0, 32, 57
1, 1003775, Note_on_c, 0, 68, 63
1, 1003810, Control_c, 0, 64, 100
1, 1003825, Control_c, 0, 64, 78
1, 1003828, Note_off_c, 0, 32, 58
1, 1003839, Control_c, 0, 64, 64
1, 1003854, Control_c, 0, 64, 52
1, 1003869, Control_c, 0, 64, 40
1, 1003883, Control_c, 0, 64, 0
1, 1004017, Control_c, 0, 64, 29
1, 1004033, Control_c, 0, 64, 52
1, 1004048, Control_c, 0, 64, 69
1, 1004060, Note_on_c, 0, 31, 57
1, 1004062, Control_c, 0, 64, 87
1, 1004064, Note_off_c, 0, 68, 59
1, 1004077, Control_c, 0, 64, 127
1, 1004123, Note_off_c, 0, 31, 60
1, 1004144, Note_off_c, 0, 72, 59
1, 1004152, Control_c, 0, 67, 121
1, 1004166, Control_c, 0, 67, 88
1, 1004181, Control_c, 0, 67, 56
1, 1004196, Control_c, 0, 67, 0
1, 1004458, Note_on_c, 0, 76, 78
1, 1004470, Note_on_c, 0, 73, 64
1, 1004478, Note_on_c, 0, 32, 71
1, 1004485, Note_on_c, 0, 66, 54
1, 1004485, Control_c, 0, 64, 92
1, 1004500, Control_c, 0, 64, 67
1, 1004514, Control_c, 0, 64, 34
1, 1004529, Control_c, 0, 64, 0
1, 1004603, Control_c, 0, 64, 35
1, 1004618, Control_c, 0, 64, 69
1, 1004633, Control_c, 0, 64, 108
1, 1004648, Control_c, 0, 64, 127
1, 1004712, Note_off_c, 0, 32, 61
1, 1004795, Note_off_c, 0, 73, 58
1, 1004864, Note_off_c, 0, 66, 55
1, 1005323, Note_on_c, 0, 44, 64
1, 1005620, Note_on_c, 0, 75, 85
1, 1005630, Note_on_c, 0, 72, 69
1, 1005644, Note_on_c, 0, 68, 54
1, 1005684, Note_off_c, 0, 76, 62
1, 1005687, Note_off_c, 0, 68, 57
1, 1005717, Note_off_c, 0, 72, 57
1, 1005786, Note_off_c, 0, 75, 60
1, 1005958, Note_on_c, 0, 75, 80
1, 1005964, Note_on_c, 0, 72, 69
1, 1005966, Note_on_c, 0, 56, 56
1, 1005971, Note_on_c, 0, 68, 61
1, 1005982, Control_c, 0, 64, 95
1, 1005982, Control_c, 0, 67, 43
1, 1005997, Control_c, 0, 64, 65
1, 1005997, Control_c, 0, 67, 69
1, 1006012, Control_c, 0, 64, 38
1, 1006012, Control_c, 0, 67, 71
1, 1006027, Control_c, 0, 64, 0
1, 1006027, Control_c, 0, 67, 71
1, 1006042, Control_c, 0, 67, 77
1, 1006057, Control_c, 0, 64, 38
1, 1006057, Control_c, 0, 67, 91
1, 1006072, Control_c, 0, 64, 61
1, 1006072, Control_c, 0, 67, 111
1, 1006086, Control_c, 0, 64, 81
1, 1006086, Control_c, 0, 67, 116
1, 1006101, Control_c, 0, 64, 127
1, 1006124, Note_off_c, 0, 44, 63
1, 1006146, Control_c, 0, 67, 119
1, 1006149, Note_off_c, 0, 56, 63
1, 1006235, Control_c, 0, 67, 124
1, 1006250, Control_c, 0, 67, 127
1, 1006536, Note_on_c, 0, 80, 58
1, 1006562, Note_off_c, 0, 80, 64
1, 1007225, Note_off_c, 0, 68, 37
1, 1007257, Note_off_c, 0, 72, 59
1, 1007260, Note_off_c, 0, 75, 59
1, 1007290, Note_on_c, 0, 32, 82
1, 1007342, Note_off_c, 0, 32, 49
1, 1007568, Note_on_c, 0, 75, 87
1, 1007568, Note_on_c, 0, 32, 75
1, 1007569, Control_c, 0, 64, 90
1, 1007577, Note_on_c, 0, 72, 76
1, 1007578, Note_on_c, 0, 68, 62
1, 1007584, Control_c, 0, 64, 66
1, 1007599, Control_c, 0, 64, 45
1, 1007613, Control_c, 0, 64, 0
1, 1007648, Note_off_c, 0, 32, 61
1, 1007791, Control_c, 0, 67, 110
1, 1007806, Control_c, 0, 67, 72
1, 1007821, Control_c, 0, 64, 42
1, 1007821, Control_c, 0, 67, 0
1, 1007836, Control_c, 0, 64, 64
1, 1007851, Control_c, 0, 64, 81
1, 1007855, Note_off_c, 0, 68, 57
1, 1007865, Control_c, 0, 64, 127
1, 1007869, Note_on_c, 0, 31, 64
1, 1007878, Note_off_c, 0, 72, 61
1, 1007905, Note_off_c, 0, 75, 63
1, 1007934, Note_off_c, 0, 31, 62
1, 1008257, Note_on_c, 0, 80, 89
1, 1008265, Note_on_c, 0, 32, 84
1, 1008265, Note_on_c, 0, 76, 81
1, 1008271, Note_on_c, 0, 68, 69
1, 1008289, Control_c, 0, 64, 113
1, 1008303, Control_c, 0, 64, 73
1, 1008318, Control_c, 0, 64, 49
1, 1008333, Control_c, 0, 64, 0
1, 1008407, Control_c, 0, 64, 49
1, 1008422, Control_c, 0, 64, 71
1, 1008436, Control_c, 0, 64, 97
1, 1008451, Control_c, 0, 64, 127
1, 1008484, Note_off_c, 0, 32, 60
1, 1008641, Note_off_c, 0, 68, 61
1, 1008642, Note_off_c, 0, 76, 57
1, 1009156, Note_on_c, 0, 44, 74
1, 1009480, Note_on_c, 0, 78, 91
1, 1009483, Note_on_c, 0, 75, 85
1, 1009493, Note_on_c, 0, 69, 68
1, 1009607, Note_off_c, 0, 80, 54
1, 1009678, Note_off_c, 0, 75, 53
1, 1009681, Note_off_c, 0, 69, 37
1, 1009694, Note_off_c, 0, 78, 56
1, 1009792, Note_on_c, 0, 78, 83
1, 1009795, Note_on_c, 0, 75, 79
1, 1009803, Note_on_c, 0, 56, 70
1, 1009803, Note_on_c, 0, 69, 68
1, 1009816, Control_c, 0, 64, 74
1, 1009831, Control_c, 0, 64, 49
1, 1009846, Control_c, 0, 64, 30
1, 1009861, Control_c, 0, 64, 33
1, 1009876, Control_c, 0, 64, 46
1, 1009890, Control_c, 0, 64, 65
1, 1009890, Control_c, 0, 67, 46
1, 1009905, Control_c, 0, 64, 89
1, 1009905, Control_c, 0, 67, 67
1, 1009920, Control_c, 0, 64, 127
1, 1009920, Control_c, 0, 67, 78
1, 1009935, Control_c, 0, 67, 82
1, 1009949, Note_off_c, 0, 44, 62
1, 1009949, Control_c, 0, 67, 83
1, 1009964, Control_c, 0, 67, 87
1, 1009979, Control_c, 0, 67, 95
1, 1009981, Note_off_c, 0, 56, 61
1, 1009994, Control_c, 0, 67, 105
1, 1010009, Control_c, 0, 67, 113
1, 1010024, Control_c, 0, 67, 117
1, 1010039, Control_c, 0, 67, 120
1, 1010053, Control_c, 0, 67, 126
1, 1010412, Note_on_c, 0, 80, 61
1, 1010457, Note_off_c, 0, 80, 57
1, 1010787, Control_c, 0, 67, 123
1, 1010802, Control_c, 0, 67, 127
1, 1011179, Control_c, 0, 67, 124
1, 1011186, Note_off_c, 0, 69, 15
1, 1011194, Control_c, 0, 67, 116
1, 1011197, Note_off_c, 0, 78, 50
1, 1011204, Note_off_c, 0, 75, 49
1, 1011209, Control_c, 0, 67, 104
1, 1011218, Note_on_c, 0, 32, 86
1, 1011225, Control_c, 0, 67, 100
1, 1011240, Control_c, 0, 67, 96
1, 1011252, Note_off_c, 0, 32, 63
1, 1011254, Control_c, 0, 67, 82
1, 1011269, Control_c, 0, 67, 61
1, 1011284, Control_c, 0, 67, 53
1, 1011298, Control_c, 0, 67, 53
1, 1011313, Control_c, 0, 67, 55
1, 1011358, Control_c, 0, 67, 56
1, 1011372, Control_c, 0, 67, 58
1, 1011387, Control_c, 0, 67, 59
1, 1011402, Control_c, 0, 67, 57
1, 1011417, Control_c, 0, 67, 56
1, 1011432, Control_c, 0, 67, 56
1, 1011446, Control_c, 0, 67, 57
1, 1011491, Control_c, 0, 67, 57
1, 1011505, Control_c, 0, 64, 104
1, 1011505, Control_c, 0, 67, 61
1, 1011508, Note_on_c, 0, 78, 86
1, 1011510, Note_on_c, 0, 75, 81
1, 1011511, Note_on_c, 0, 32, 88
1, 1011518, Note_on_c, 0, 69, 75
1, 1011520, Control_c, 0, 64, 73
1, 1011520, Control_c, 0, 67, 70
1, 1011535, Control_c, 0, 64, 55
1, 1011535, Control_c, 0, 67, 73
1, 1011550, Control_c, 0, 64, 0
1, 1011550, Control_c, 0, 67, 72
1, 1011565, Control_c, 0, 67, 72
1, 1011573, Note_off_c, 0, 32, 53
1, 1011580, Control_c, 0, 67, 74
1, 1011595, Control_c, 0, 67, 80
1, 1011610, Control_c, 0, 67, 84
1, 1011625, Control_c, 0, 67, 83
1, 1011640, Control_c, 0, 67, 82
1, 1011669, Control_c, 0, 67, 84
1, 1011705, Control_c, 0, 67, 80
1, 1011720, Control_c, 0, 67, 76
1, 1011735, Control_c, 0, 67, 74
1, 1011750, Control_c, 0, 67, 68
1, 1011765, Control_c, 0, 67, 56
1, 1011780, Control_c, 0, 67, 0
1, 1011795, Control_c, 0, 64, 55
1, 1011809, Control_c, 0, 64, 74
1, 1011824, Control_c, 0, 64, 84
1, 1011836, Note_on_c, 0, 31, 73
1, 1011837, Note_off_c, 0, 69, 63
1, 1011839, Control_c, 0, 64, 95
1, 1011854, Control_c, 0, 64, 127
1, 1011866, Note_off_c, 0, 75, 64
1, 1011898, Note_off_c, 0, 31, 62
1, 1011903, Note_off_c, 0, 78, 61
1, 1012229, Note_on_c, 0, 81, 86
1, 1012233, Note_on_c, 0, 76, 83
1, 1012239, Note_on_c, 0, 73, 76
1, 1012240, Control_c, 0, 64, 76
1, 1012245, Note_on_c, 0, 32, 85
1, 1012255, Control_c, 0, 64, 45
1, 1012269, Control_c, 0, 64, 0
1, 1012388, Control_c, 0, 64, 47
1, 1012403, Control_c, 0, 64, 63
1, 1012418, Note_off_c, 0, 32, 60
1, 1012418, Control_c, 0, 64, 76
1, 1012432, Control_c, 0, 64, 103
1, 1012454, Control_c, 0, 64, 127
1, 1012826, Note_off_c, 0, 76, 50
1, 1012866, Note_off_c, 0, 73, 55
1, 1013205, Note_on_c, 0, 44, 68
1, 1013524, Note_on_c, 0, 80, 88
1, 1013529, Note_on_c, 0, 75, 79
1, 1013539, Note_on_c, 0, 72, 65
1, 1013573, Note_off_c, 0, 81, 58
1, 1013598, Note_off_c, 0, 72, 60
1, 1013639, Note_off_c, 0, 75, 51
1, 1013688, Note_off_c, 0, 80, 57
1, 1013841, Control_c, 0, 67, 34
1, 1013855, Control_c, 0, 67, 48
1, 1013870, Control_c, 0, 67, 69
1, 1013885, Control_c, 0, 67, 104
1, 1013888, Note_on_c, 0, 75, 74
1, 1013888, Note_on_c, 0, 80, 81
1, 1013897, Note_on_c, 0, 72, 65
1, 1013899, Control_c, 0, 67, 127
1, 1013905, Note_on_c, 0, 56, 54
1, 1013914, Control_c, 0, 64, 95
1, 1013929, Control_c, 0, 64, 68
1, 1013952, Control_c, 0, 64, 49
1, 1013967, Control_c, 0, 64, 33
1, 1013981, Control_c, 0, 64, 32
1, 1013996, Control_c, 0, 64, 39
1, 1014011, Control_c, 0, 64, 56
1, 1014025, Control_c, 0, 64, 70
1, 1014040, Control_c, 0, 64, 87
1, 1014055, Control_c, 0, 64, 127
1, 1014116, Note_off_c, 0, 44, 62
1, 1014149, Note_off_c, 0, 56, 62
1, 1014567, Note_on_c, 0, 68, 37
1, 1014604, Note_off_c, 0, 68, 64
1, 1015418, Note_on_c, 0, 32, 79
1, 1015455, Note_off_c, 0, 32, 63
1, 1015464, Control_c, 0, 64, 76
1, 1015479, Control_c, 0, 64, 49
1, 1015494, Control_c, 0, 64, 0
1, 1015724, Note_on_c, 0, 32, 67
1, 1015759, Note_off_c, 0, 32, 59
1, 1015992, Note_on_c, 0, 31, 56
1, 1016027, Note_off_c, 0, 31, 63
1, 1016332, Control_c, 0, 64, 43
1, 1016338, Note_on_c, 0, 32, 50
1, 1016347, Control_c, 0, 64, 56
1, 1016362, Control_c, 0, 64, 63
1, 1016376, Control_c, 0, 64, 68
1, 1016391, Control_c, 0, 64, 75
1, 1016404, Note_off_c, 0, 32, 61
1, 1016406, Control_c, 0, 64, 89
1, 1016421, Control_c, 0, 64, 127
1, 1016960, Note_on_c, 0, 44, 32
1, 1017524, Note_on_c, 0, 56, 38
1, 1017524, Control_c, 0, 64, 88
1, 1017539, Control_c, 0, 64, 69
1, 1017554, Control_c, 0, 64, 54
1, 1017569, Control_c, 0, 64, 42
1, 1017584, Control_c, 0, 64, 41
1, 1017598, Control_c, 0, 64, 45
1, 1017614, Control_c, 0, 64, 55
1, 1017629, Control_c, 0, 64, 65
1, 1017644, Control_c, 0, 64, 78
1, 1017658, Control_c, 0, 64, 101
1, 1017673, Control_c, 0, 64, 127
1, 1017718, Note_off_c, 0, 44, 50
1, 1017793, Note_off_c, 0, 56, 52
1, 1018201, Note_on_c, 0, 68, 34
1, 1018251, Note_off_c, 0, 68, 55
1, 1019638, Control_c, 0, 64, 112
1, 1019653, Control_c, 0, 64, 105
1, 1019668, Control_c, 0, 64, 101
1, 1019683, Control_c, 0, 64, 99
1, 1019698, Control_c, 0, 64, 96
1, 1019712, Control_c, 0, 64, 91
1, 1019727, Control_c, 0, 64, 86
1, 1019742, Control_c, 0, 64, 81
1, 1019757, Control_c, 0, 64, 77
1, 1019772, Control_c, 0, 64, 73
1, 1019786, Control_c, 0, 64, 70
1, 1019801, Control_c, 0, 64, 66
1, 1019816, Control_c, 0, 64, 61
1, 1019831, Control_c, 0, 64, 58
1, 1019846, Control_c, 0, 64, 57
1, 1019861, Control_c, 0, 64, 56
1, 1019891, Control_c, 0, 64, 57
1, 1019905, Control_c, 0, 64, 59
1, 1019920, Control_c, 0, 64, 63
1, 1019942, Control_c, 0, 64, 68
1, 1019957, Control_c, 0, 64, 77
1, 1019971, Control_c, 0, 64, 89
1, 1019986, Control_c, 0, 64, 99
1, 1020001, Control_c, 0, 64, 104
1, 1020017, Control_c, 0, 64, 110
1, 1020032, Control_c, 0, 64, 127
1, 1020166, Note_off_c, 0, 80, 50
1, 1020167, Note_off_c, 0, 75, 49
1, 1020215, Note_off_c, 0, 72, 50
1, 1020691, Note_on_c, 0, 79, 44
1, 1020724, Note_on_c, 0, 76, 31
1, 1020731, Note_on_c, 0, 36, 32
1, 1020753, Note_on_c, 0, 72, 13
1, 1020765, Control_c, 0, 64, 107
1, 1020780, Control_c, 0, 64, 80
1, 1020794, Control_c, 0, 64, 64
1, 1020811, Control_c, 0, 64, 54
1, 1020826, Control_c, 0, 64, 50
1, 1020840, Control_c, 0, 64, 51
1, 1020855, Control_c, 0, 64, 56
1, 1020870, Control_c, 0, 64, 63
1, 1020884, Control_c, 0, 64, 70
1, 1020899, Control_c, 0, 64, 80
1, 1020914, Control_c, 0, 64, 95
1, 1020929, Control_c, 0, 64, 110
1, 1020939, Note_off_c, 0, 36, 40
1, 1020944, Control_c, 0, 64, 127
1, 1021280, Note_on_c, 0, 48, 36
1, 1021775, Note_on_c, 0, 60, 25
1, 1021780, Note_off_c, 0, 48, 35
1, 1021921, Note_off_c, 0, 60, 32
1, 1022338, Note_on_c, 0, 64, 35
1, 1022388, Note_off_c, 0, 64, 55
1, 1022683, Note_off_c, 0, 72, 42
1, 1022713, Note_off_c, 0, 76, 53
1, 1022735, Note_off_c, 0, 79, 64
1, 1023062, Note_on_c, 0, 36, 43
1, 1023113, Note_off_c, 0, 36, 56
1, 1023386, Note_on_c, 0, 84, 56
1, 1023404, Note_on_c, 0, 38, 30
1, 1023413, Note_on_c, 0, 79, 24
1, 1023427, Control_c, 0, 64, 121
1, 1023429, Note_on_c, 0, 72, 20
1, 1023442, Control_c, 0, 64, 99
1, 1023457, Control_c, 0, 64, 87
1, 1023465, Note_off_c, 0, 38, 48
1, 1023472, Control_c, 0, 64, 80
1, 1023486, Control_c, 0, 64, 73
1, 1023501, Control_c, 0, 64, 67
1, 1023516, Control_c, 0, 64, 63
1, 1023531, Control_c, 0, 64, 60
1, 1023546, Control_c, 0, 64, 58
1, 1023560, Control_c, 0, 64, 56
1, 1023575, Control_c, 0, 64, 53
1, 1023590, Control_c, 0, 64, 47
1, 1023605, Control_c, 0, 64, 40
1, 1023620, Control_c, 0, 64, 36
1, 1023635, Control_c, 0, 64, 36
1, 1023650, Control_c, 0, 64, 39
1, 1023665, Control_c, 0, 64, 46
1, 1023686, Control_c, 0, 64, 55
1, 1023701, Control_c, 0, 64, 62
1, 1023716, Control_c, 0, 64, 66
1, 1023731, Control_c, 0, 64, 70
1, 1023746, Control_c, 0, 64, 73
1, 1023760, Control_c, 0, 64, 77
1, 1023775, Control_c, 0, 64, 86
1, 1023784, Note_on_c, 0, 40, 36
1, 1023790, Control_c, 0, 64, 103
1, 1023805, Control_c, 0, 64, 127
1, 1023875, Note_off_c, 0, 79, 52
1, 1023876, Note_off_c, 0, 84, 61
1, 1023883, Note_off_c, 0, 40, 50
1, 1023969, Note_off_c, 0, 72, 42
1, 1024352, Note_on_c, 0, 83, 57
1, 1024374, Note_on_c, 0, 77, 36
1, 1024392, Note_on_c, 0, 29, 36
1, 1024401, Note_on_c, 0, 72, 22
1, 1024413, Control_c, 0, 64, 99
1, 1024435, Control_c, 0, 64, 77
1, 1024450, Control_c, 0, 64, 62
1, 1024465, Control_c, 0, 64, 48
1, 1024480, Control_c, 0, 64, 41
1, 1024495, Control_c, 0, 64, 41
1, 1024509, Control_c, 0, 64, 42
1, 1024524, Control_c, 0, 64, 50
1, 1024539, Control_c, 0, 64, 60
1, 1024553, Control_c, 0, 64, 69
1, 1024568, Control_c, 0, 64, 80
1, 1024583, Control_c, 0, 64, 92
1, 1024598, Control_c, 0, 64, 104
1, 1024613, Control_c, 0, 64, 127
1, 1024650, Note_off_c, 0, 29, 41
1, 1025060, Note_on_c, 0, 41, 42
1, 1025328, Note_on_c, 0, 81, 62
1, 1025344, Note_off_c, 0, 83, 57
1, 1025427, Note_off_c, 0, 77, 56
1, 1025483, Note_off_c, 0, 72, 42
1, 1025489, Note_off_c, 0, 81, 43
1, 1025637, Note_on_c, 0, 81, 48
1, 1025649, Note_on_c, 0, 77, 47
1, 1025672, Note_on_c, 0, 72, 36
1, 1025676, Note_on_c, 0, 53, 26
1, 1025703, Control_c, 0, 64, 98
1, 1025718, Control_c, 0, 64, 74
1, 1025733, Control_c, 0, 64, 60
1, 1025748, Control_c, 0, 64, 54
1, 1025763, Control_c, 0, 64, 55
1, 1025778, Control_c, 0, 64, 59
1, 1025793, Control_c, 0, 64, 65
1, 1025807, Control_c, 0, 64, 76
1, 1025808, Note_off_c, 0, 41, 57
1, 1025822, Control_c, 0, 64, 93
1, 1025837, Control_c, 0, 64, 127
1, 1025915, Note_off_c, 0, 53, 41
1, 1026248, Note_on_c, 0, 65, 31
1, 1026294, Note_off_c, 0, 65, 45
1, 1026713, Note_off_c, 0, 72, 54
1, 1026733, Note_off_c, 0, 77, 64
1, 1026740, Note_off_c, 0, 81, 63
1, 1026965, Note_on_c, 0, 38, 51
1, 1027022, Note_off_c, 0, 38, 56
1, 1027218, Note_on_c, 0, 40, 46
1, 1027223, Note_on_c, 0, 81, 69
1, 1027231, Note_on_c, 0, 76, 54
1, 1027244, Note_on_c, 0, 72, 37
1, 1027289, Control_c, 0, 64, 98
1, 1027304, Control_c, 0, 64, 74
1, 1027319, Control_c, 0, 64, 58
1, 1027323, Note_off_c, 0, 40, 51
1, 1027334, Control_c, 0, 64, 41
1, 1027349, Control_c, 0, 64, 0
1, 1027408, Control_c, 0, 64, 37
1, 1027430, Control_c, 0, 64, 54
1, 1027445, Control_c, 0, 64, 68
1, 1027459, Control_c, 0, 64, 85
1, 1027474, Control_c, 0, 64, 127
1, 1027520, Note_on_c, 0, 41, 48
1, 1027541, Note_off_c, 0, 76, 66
1, 1027549, Note_off_c, 0, 81, 61
1, 1027583, Note_off_c, 0, 41, 57
1, 1027585, Note_off_c, 0, 72, 53
1, 1027915, Note_on_c, 0, 81, 70
1, 1027929, Note_on_c, 0, 74, 57
1, 1027937, Note_on_c, 0, 72, 45
1, 1027944, Note_on_c, 0, 31, 39
1, 1027948, Control_c, 0, 64, 94
1, 1027963, Control_c, 0, 64, 69
1, 1027977, Control_c, 0, 64, 46
1, 1027993, Control_c, 0, 64, 0
1, 1028038, Control_c, 0, 64, 29
1, 1028052, Control_c, 0, 64, 46
1, 1028067, Control_c, 0, 64, 61
1, 1028082, Control_c, 0, 64, 71
1, 1028097, Control_c, 0, 64, 82
1, 1028112, Control_c, 0, 64, 95
1, 1028127, Control_c, 0, 64, 110
1, 1028141, Control_c, 0, 64, 127
1, 1028148, Note_off_c, 0, 31, 39
1, 1028373, Note_off_c, 0, 72, 52
1, 1028669, Note_on_c, 0, 43, 42
1, 1028943, Note_on_c, 0, 79, 72
1, 1028953, Note_on_c, 0, 71, 52
1, 1029001, Note_off_c, 0, 81, 62
1, 1029069, Note_off_c, 0, 74, 52
1, 1029097, Note_off_c, 0, 71, 34
1, 1029155, Note_off_c, 0, 79, 41
1, 1029275, Note_on_c, 0, 79, 69
1, 1029291, Note_on_c, 0, 74, 58
1, 1029301, Note_on_c, 0, 55, 35
1, 1029303, Note_on_c, 0, 71, 50
1, 1029387, Control_c, 0, 64, 102
1, 1029402, Control_c, 0, 64, 74
1, 1029417, Control_c, 0, 64, 52
1, 1029431, Control_c, 0, 64, 30
1, 1029446, Control_c, 0, 64, 0
1, 1029461, Control_c, 0, 64, 30
1, 1029476, Control_c, 0, 64, 47
1, 1029491, Control_c, 0, 64, 65
1, 1029505, Control_c, 0, 64, 88
1, 1029520, Control_c, 0, 64, 127
1, 1029522, Note_off_c, 0, 43, 62
1, 1029589, Note_off_c, 0, 55, 45
1, 1029854, Note_on_c, 0, 67, 42
1, 1029892, Note_off_c, 0, 67, 55
1, 1030198, Note_off_c, 0, 74, 64
1, 1030200, Note_off_c, 0, 71, 63
1, 1030576, Note_on_c, 0, 31, 49
1, 1030664, Note_off_c, 0, 31, 52
1, 1030816, Note_on_c, 0, 77, 78
1, 1030834, Note_on_c, 0, 72, 61
1, 1030837, Note_on_c, 0, 69, 53
1, 1030837, Note_on_c, 0, 33, 59
1, 1030855, Control_c, 0, 64, 86
1, 1030869, Control_c, 0, 64, 65
1, 1030884, Control_c, 0, 64, 44
1, 1030889, Note_off_c, 0, 79, 59
1, 1030899, Control_c, 0, 64, 0
1, 1030917, Note_off_c, 0, 33, 48
1, 1030988, Control_c, 0, 64, 33
1, 1031003, Control_c, 0, 64, 51
1, 1031018, Control_c, 0, 64, 63
1, 1031033, Control_c, 0, 64, 68
1, 1031048, Control_c, 0, 64, 73
1, 1031063, Control_c, 0, 64, 80
1, 1031077, Note_on_c, 0, 35, 46
1, 1031077, Control_c, 0, 64, 99
1, 1031091, Note_off_c, 0, 69, 63
1, 1031092, Control_c, 0, 64, 127
1, 1031103, Note_off_c, 0, 72, 61
1, 1031113, Note_off_c, 0, 77, 62
1, 1031138, Note_off_c, 0, 35, 56
1, 1031417, Note_on_c, 0, 76, 82
1, 1031431, Note_on_c, 0, 72, 60
1, 1031441, Control_c, 0, 64, 82
1, 1031442, Note_on_c, 0, 67, 53
1, 1031443, Note_on_c, 0, 36, 47
1, 1031456, Control_c, 0, 64, 56
1, 1031471, Control_c, 0, 64, 0
1, 1031543, Control_c, 0, 64, 44
1, 1031558, Control_c, 0, 64, 60
1, 1031573, Control_c, 0, 64, 66
1, 1031588, Control_c, 0, 64, 72
1, 1031603, Control_c, 0, 64, 81
1, 1031613, Note_off_c, 0, 36, 62
1, 1031618, Control_c, 0, 64, 92
1, 1031632, Control_c, 0, 64, 120
1, 1031647, Control_c, 0, 64, 127
1, 1031776, Note_off_c, 0, 67, 60
1, 1031805, Note_off_c, 0, 72, 57
1, 1031996, Note_on_c, 0, 48, 55
1, 1032208, Note_off_c, 0, 76, 56
1, 1032506, Note_on_c, 0, 72, 63
1, 1032517, Note_on_c, 0, 67, 48
1, 1032525, Note_on_c, 0, 60, 46
1, 1032530, Control_c, 0, 64, 94
1, 1032536, Note_on_c, 0, 64, 39
1, 1032545, Control_c, 0, 64, 73
1, 1032560, Control_c, 0, 64, 62
1, 1032574, Control_c, 0, 64, 60
1, 1032589, Control_c, 0, 64, 63
1, 1032604, Control_c, 0, 64, 71
1, 1032619, Control_c, 0, 64, 86
1, 1032634, Control_c, 0, 64, 127
1, 1032650, Note_off_c, 0, 48, 62
1, 1032685, Note_off_c, 0, 60, 64
1, 1033084, Note_on_c, 0, 84, 59
1, 1033142, Note_off_c, 0, 84, 62
1, 1033820, Note_on_c, 0, 36, 66
1, 1033850, Note_off_c, 0, 36, 62
1, 1033910, Control_c, 0, 64, 104
1, 1033925, Control_c, 0, 64, 89
1, 1033939, Control_c, 0, 64, 75
1, 1033954, Control_c, 0, 64, 63
1, 1033969, Control_c, 0, 64, 51
1, 1033984, Control_c, 0, 64, 39
1, 1033999, Control_c, 0, 64, 0
1, 1034100, Note_on_c, 0, 36, 66
1, 1034193, Note_off_c, 0, 36, 56
1, 1034358, Note_off_c, 0, 64, 49
1, 1034384, Note_on_c, 0, 38, 67
1, 1034399, Note_off_c, 0, 72, 64
1, 1034404, Note_off_c, 0, 67, 65
1, 1034519, Note_off_c, 0, 38, 61
1, 1034780, Note_on_c, 0, 64, 75
1, 1034799, Note_on_c, 0, 60, 56
1, 1034816, Note_on_c, 0, 36, 39
1, 1034822, Control_c, 0, 64, 38
1, 1034836, Control_c, 0, 64, 50
1, 1034851, Control_c, 0, 64, 55
1, 1034866, Control_c, 0, 64, 56
1, 1034881, Control_c, 0, 64, 59
1, 1034895, Control_c, 0, 64, 64
1, 1034917, Control_c, 0, 64, 73
1, 1034932, Control_c, 0, 64, 87
1, 1034947, Note_off_c, 0, 36, 53
1, 1034947, Control_c, 0, 64, 115
1, 1034962, Control_c, 0, 64, 127
1, 1035387, Note_on_c, 0, 55, 31
1, 1035800, Control_c, 0, 64, 121
1, 1035815, Control_c, 0, 64, 115
1, 1035843, Note_on_c, 0, 67, 51
1, 1035845, Control_c, 0, 64, 118
1, 1035859, Control_c, 0, 64, 127
1, 1035907, Note_off_c, 0, 55, 39
1, 1035922, Note_off_c, 0, 67, 62
1, 1036298, Note_on_c, 0, 79, 47
1, 1036331, Note_off_c, 0, 79, 65
1, 1036338, Note_off_c, 0, 64, 62
1, 1036375, Note_off_c, 0, 60, 57
1, 1036460, Control_c, 0, 67, 120
1, 1036548, Control_c, 0, 67, 124
1, 1036563, Control_c, 0, 67, 127
1, 1036815, Note_on_c, 0, 64, 69
1, 1036828, Note_on_c, 0, 60, 53
1, 1037071, Note_on_c, 0, 36, 59
1, 1037112, Control_c, 0, 64, 112
1, 1037113, Note_off_c, 0, 36, 57
1, 1037127, Control_c, 0, 64, 91
1, 1037142, Control_c, 0, 64, 77
1, 1037164, Control_c, 0, 64, 65
1, 1037179, Control_c, 0, 64, 55
1, 1037194, Control_c, 0, 64, 43
1, 1037209, Control_c, 0, 64, 28
1, 1037224, Control_c, 0, 64, 0
1, 1037335, Note_on_c, 0, 36, 56
1, 1037404, Note_off_c, 0, 36, 59
1, 1037603, Note_on_c, 0, 62, 67
1, 1037609, Note_on_c, 0, 59, 54
1, 1037618, Note_on_c, 0, 38, 37
1, 1037642, Note_off_c, 0, 60, 60
1, 1037666, Note_off_c, 0, 64, 41
1, 1037736, Note_off_c, 0, 38, 44
1, 1037841, Note_off_c, 0, 59, 62
1, 1037854, Note_off_c, 0, 62, 62
1, 1037953, Note_on_c, 0, 62, 53
1, 1037958, Control_c, 0, 64, 30
1, 1037965, Note_on_c, 0, 59, 60
1, 1037967, Note_on_c, 0, 36, 43
1, 1037973, Control_c, 0, 64, 41
1, 1037987, Control_c, 0, 64, 48
1, 1038002, Control_c, 0, 64, 56
1, 1038017, Control_c, 0, 64, 63
1, 1038032, Control_c, 0, 64, 69
1, 1038047, Control_c, 0, 64, 77
1, 1038048, Note_off_c, 0, 36, 61
1, 1038061, Control_c, 0, 64, 90
1, 1038076, Control_c, 0, 64, 112
1, 1038091, Control_c, 0, 64, 127
1, 1038533, Note_on_c, 0, 55, 36
1, 1038899, Control_c, 0, 64, 92
1, 1038914, Control_c, 0, 64, 74
1, 1038929, Control_c, 0, 64, 64
1, 1038943, Control_c, 0, 64, 59
1, 1038958, Control_c, 0, 64, 58
1, 1038973, Control_c, 0, 64, 59
1, 1038989, Control_c, 0, 64, 63
1, 1039004, Control_c, 0, 64, 69
1, 1039018, Control_c, 0, 64, 80
1, 1039033, Control_c, 0, 64, 101
1, 1039036, Note_on_c, 0, 67, 52
1, 1039048, Control_c, 0, 64, 127
1, 1039065, Note_off_c, 0, 55, 61
1, 1039091, Note_off_c, 0, 67, 59
1, 1039514, Note_on_c, 0, 79, 30
1, 1039526, Note_off_c, 0, 59, 63
1, 1039545, Note_off_c, 0, 79, 53
1, 1039545, Control_c, 0, 67, 125
1, 1039546, Note_off_c, 0, 62, 61
1, 1039559, Control_c, 0, 67, 116
1, 1039574, Control_c, 0, 67, 95
1, 1039589, Control_c, 0, 67, 70
1, 1039604, Control_c, 0, 67, 47
1, 1039619, Control_c, 0, 67, 0
1, 1039854, Control_c, 0, 67, 34
1, 1039869, Control_c, 0, 67, 37
1, 1039884, Control_c, 0, 67, 38
1, 1039899, Control_c, 0, 67, 42
1, 1039913, Control_c, 0, 67, 57
1, 1039928, Control_c, 0, 67, 87
1, 1039943, Control_c, 0, 67, 104
1, 1039973, Note_on_c, 0, 62, 63
1, 1039988, Control_c, 0, 67, 109
1, 1039991, Note_on_c, 0, 59, 46
1, 1040003, Control_c, 0, 67, 122
1, 1040018, Control_c, 0, 67, 127
1, 1040226, Note_on_c, 0, 36, 61
1, 1040233, Control_c, 0, 64, 114
1, 1040248, Control_c, 0, 64, 77
1, 1040256, Note_off_c, 0, 36, 62
1, 1040262, Control_c, 0, 64, 51
1, 1040277, Control_c, 0, 64, 0
1, 1040476, Note_on_c, 0, 36, 64
1, 1040536, Note_off_c, 0, 36, 60
1, 1040727, Note_on_c, 0, 38, 72
1, 1040765, Note_off_c, 0, 38, 63
1, 1041068, Note_on_c, 0, 65, 73
1, 1041076, Note_on_c, 0, 57, 46
1, 1041085, Note_on_c, 0, 36, 56
1, 1041100, Note_off_c, 0, 59, 52
1, 1041147, Note_off_c, 0, 62, 55
1, 1041189, Control_c, 0, 64, 31
1, 1041204, Control_c, 0, 64, 54
1, 1041219, Control_c, 0, 64, 67
1, 1041234, Control_c, 0, 64, 77
1, 1041242, Note_off_c, 0, 36, 63
1, 1041248, Control_c, 0, 64, 97
1, 1041263, Control_c, 0, 64, 127
1, 1041620, Note_on_c, 0, 55, 44
1, 1042042, Control_c, 0, 64, 94
1, 1042057, Control_c, 0, 64, 73
1, 1042071, Control_c, 0, 64, 63
1, 1042086, Control_c, 0, 64, 59
1, 1042101, Control_c, 0, 64, 61
1, 1042116, Control_c, 0, 64, 65
1, 1042119, Note_on_c, 0, 67, 43
1, 1042131, Control_c, 0, 64, 75
1, 1042145, Control_c, 0, 64, 95
1, 1042160, Control_c, 0, 64, 127
1, 1042202, Note_off_c, 0, 55, 62
1, 1042233, Note_off_c, 0, 67, 59
1, 1042572, Note_on_c, 0, 79, 48
1, 1042590, Note_off_c, 0, 57, 55
1, 1042608, Note_off_c, 0, 79, 64
1, 1042651, Note_off_c, 0, 65, 57
1, 1043064, Note_on_c, 0, 65, 69
1, 1043088, Note_on_c, 0, 59, 39
1, 1043273, Control_c, 0, 64, 109
1, 1043288, Control_c, 0, 64, 95
1, 1043303, Control_c, 0, 64, 85
1, 1043318, Control_c, 0, 64, 75
1, 1043329, Note_on_c, 0, 36, 47
1, 1043329, Note_on_c, 0, 62, 47
1, 1043332, Control_c, 0, 64, 64
1, 1043347, Control_c, 0, 64, 55
1, 1043362, Control_c, 0, 64, 48
1, 1043371, Note_off_c, 0, 36, 59
1, 1043377, Control_c, 0, 64, 41
1, 1043392, Control_c, 0, 64, 30
1, 1043398, Note_off_c, 0, 59, 45
1, 1043406, Control_c, 0, 64, 0
1, 1043574, Note_on_c, 0, 64, 64
1, 1043579, Note_on_c, 0, 36, 48
1, 1043585, Note_on_c, 0, 60, 42
1, 1043591, Note_off_c, 0, 62, 51
1, 1043631, Note_off_c, 0, 36, 55
1, 1043735, Note_off_c, 0, 65, 32
1, 1043818, Note_on_c, 0, 62, 58
1, 1043833, Note_off_c, 0, 60, 51
1, 1043836, Note_on_c, 0, 59, 48
1, 1043836, Note_on_c, 0, 38, 35
1, 1043842, Note_off_c, 0, 64, 63
1, 1043914, Note_off_c, 0, 38, 60
1, 1044142, Note_off_c, 0, 59, 46
1, 1044157, Note_on_c, 0, 64, 66
1, 1044171, Note_on_c, 0, 60, 46
1, 1044188, Note_on_c, 0, 36, 43
1, 1044210, Note_off_c, 0, 62, 58
1, 1044318, Control_c, 0, 64, 46
1, 1044333, Control_c, 0, 64, 63
1, 1044347, Control_c, 0, 64, 75
1, 1044361, Note_off_c, 0, 36, 63
1, 1044362, Control_c, 0, 64, 99
1, 1044377, Control_c, 0, 64, 127
1, 1044710, Note_on_c, 0, 55, 50
1, 1045082, Control_c, 0, 64, 110
1, 1045096, Control_c, 0, 64, 86
1, 1045111, Control_c, 0, 64, 73
1, 1045126, Control_c, 0, 64, 67
1, 1045141, Control_c, 0, 64, 69
1, 1045156, Control_c, 0, 64, 80
1, 1045170, Control_c, 0, 64, 121
1, 1045185, Control_c, 0, 64, 127
1, 1045187, Note_on_c, 0, 67, 47
1, 1045204, Note_off_c, 0, 55, 62
1, 1045225, Note_off_c, 0, 67, 62
1, 1045266, Note_off_c, 0, 60, 60
1, 1045270, Note_off_c, 0, 64, 63
1, 1045658, Note_on_c, 0, 64, 66
1, 1045658, Note_on_c, 0, 79, 53
1, 1045664, Note_on_c, 0, 60, 59
1, 1045683, Note_off_c, 0, 79, 68
1, 1045787, Control_c, 0, 67, 117
1, 1045801, Control_c, 0, 67, 93
1, 1045816, Control_c, 0, 67, 65
1, 1045831, Control_c, 0, 67, 41
1, 1045845, Control_c, 0, 67, 0
1, 1045852, Note_off_c, 0, 64, 63
1, 1045885, Note_off_c, 0, 60, 60
1, 1046158, Note_on_c, 0, 64, 80
1, 1046174, Note_on_c, 0, 59, 63
1, 1046250, Poly_aftertouch_c, 0, 34, 127
1, 1046418, Note_on_c, 0, 36, 67
1, 1046447, Control_c, 0, 64, 123
1, 1046462, Control_c, 0, 64, 114
1, 1046475, Control_c, 0, 64, 110
1, 1046490, Control_c, 0, 64, 105
1, 1046498, Note_off_c, 0, 59, 62
1, 1046505, Control_c, 0, 64, 100
1, 1046520, Control_c, 0, 64, 96
1, 1046530, Note_off_c, 0, 36, 60
1, 1046535, Control_c, 0, 64, 93
1, 1046549, Control_c, 0, 64, 92
1, 1046564, Control_c, 0, 64, 91
1, 1046579, Control_c, 0, 64, 89
1, 1046594, Control_c, 0, 64, 86
1, 1046609, Control_c, 0, 64, 83
1, 1046623, Control_c, 0, 64, 80
1, 1046638, Control_c, 0, 64, 78
1, 1046653, Control_c, 0, 64, 74
1, 1046668, Control_c, 0, 64, 66
1, 1046676, Poly_aftertouch_c, 0, 34, 0
1, 1046683, Control_c, 0, 64, 57
1, 1046685, Note_on_c, 0, 66, 86
1, 1046698, Control_c, 0, 64, 49
1, 1046705, Note_on_c, 0, 58, 57
1, 1046707, Note_on_c, 0, 36, 60
1, 1046713, Control_c, 0, 64, 40
1, 1046728, Control_c, 0, 64, 27
1, 1046742, Control_c, 0, 64, 0
1, 1046823, Note_off_c, 0, 36, 53
1, 1046836, Note_off_c, 0, 64, 46
1, 1046961, Note_on_c, 0, 38, 57
1, 1047120, Note_off_c, 0, 58, 47
1, 1047124, Note_off_c, 0, 38, 59
1, 1047350, Note_on_c, 0, 68, 78
1, 1047365, Note_on_c, 0, 59, 58
1, 1047383, Note_on_c, 0, 35, 49
1, 1047422, Note_off_c, 0, 66, 57
1, 1047446, Control_c, 0, 67, 33
1, 1047461, Control_c, 0, 67, 38
1, 1047476, Control_c, 0, 67, 60
1, 1047491, Control_c, 0, 67, 83
1, 1047506, Control_c, 0, 67, 86
1, 1047521, Control_c, 0, 64, 45
1, 1047536, Control_c, 0, 64, 62
1, 1047536, Control_c, 0, 67, 87
1, 1047551, Control_c, 0, 64, 70
1, 1047551, Control_c, 0, 67, 91
1, 1047565, Control_c, 0, 64, 80
1, 1047565, Control_c, 0, 67, 101
1, 1047574, Note_off_c, 0, 35, 63
1, 1047580, Control_c, 0, 64, 86
1, 1047580, Control_c, 0, 67, 112
1, 1047595, Control_c, 0, 64, 94
1, 1047609, Control_c, 0, 64, 117
1, 1047624, Control_c, 0, 64, 127
1, 1047624, Control_c, 0, 67, 114
1, 1047646, Control_c, 0, 67, 120
1, 1047661, Control_c, 0, 67, 127
1, 1047691, Note_off_c, 0, 59, 58
1, 1048007, Note_on_c, 0, 64, 49
1, 1048042, Note_on_c, 0, 47, 41
1, 1048469, Control_c, 0, 64, 88
1, 1048482, Note_on_c, 0, 59, 56
1, 1048484, Control_c, 0, 64, 75
1, 1048499, Control_c, 0, 64, 73
1, 1048514, Control_c, 0, 64, 78
1, 1048528, Control_c, 0, 64, 97
1, 1048543, Note_off_c, 0, 47, 62
1, 1048543, Control_c, 0, 64, 127
1, 1048561, Note_off_c, 0, 59, 63
1, 1048963, Note_on_c, 0, 71, 55
1, 1048984, Note_off_c, 0, 71, 61
1, 1049083, Note_off_c, 0, 68, 60
1, 1049089, Note_off_c, 0, 64, 62
1, 1049452, Note_on_c, 0, 68, 78
1, 1049475, Note_on_c, 0, 64, 62
1, 1049685, Note_on_c, 0, 35, 66
1, 1049709, Control_c, 0, 64, 106
1, 1049718, Note_off_c, 0, 35, 62
1, 1049724, Control_c, 0, 64, 86
1, 1049739, Control_c, 0, 64, 71
1, 1049753, Control_c, 0, 64, 58
1, 1049768, Control_c, 0, 64, 45
1, 1049783, Control_c, 0, 64, 34
1, 1049798, Control_c, 0, 64, 0
1, 1049965, Note_on_c, 0, 35, 60
1, 1050013, Note_off_c, 0, 35, 60
1, 1050231, Note_on_c, 0, 66, 72
1, 1050235, Note_on_c, 0, 63, 60
1, 1050241, Note_on_c, 0, 37, 56
1, 1050274, Note_off_c, 0, 64, 53
1, 1050291, Note_off_c, 0, 37, 54
1, 1050394, Note_off_c, 0, 68, 35
1, 1050484, Note_off_c, 0, 63, 61
1, 1050487, Note_off_c, 0, 66, 65
1, 1050584, Note_on_c, 0, 66, 67
1, 1050593, Note_on_c, 0, 63, 61
1, 1050602, Note_on_c, 0, 35, 52
1, 1050620, Control_c, 0, 64, 31
1, 1050642, Control_c, 0, 64, 49
1, 1050657, Control_c, 0, 64, 57
1, 1050672, Control_c, 0, 64, 60
1, 1050686, Control_c, 0, 64, 63
1, 1050701, Control_c, 0, 64, 69
1, 1050710, Note_off_c, 0, 35, 61
1, 1050716, Control_c, 0, 64, 79
1, 1050731, Control_c, 0, 64, 98
1, 1050746, Control_c, 0, 64, 127
1, 1051246, Note_on_c, 0, 47, 39
1, 1051718, Control_c, 0, 64, 89
1, 1051733, Control_c, 0, 64, 74
1, 1051747, Control_c, 0, 64, 64
1, 1051762, Control_c, 0, 64, 62
1, 1051765, Note_on_c, 0, 59, 50
1, 1051777, Control_c, 0, 64, 65
1, 1051791, Control_c, 0, 64, 74
1, 1051806, Control_c, 0, 64, 94
1, 1051821, Control_c, 0, 64, 127
1, 1051825, Note_off_c, 0, 47, 62
1, 1051836, Note_off_c, 0, 59, 60
1, 1052317, Note_on_c, 0, 71, 39
1, 1052348, Note_off_c, 0, 71, 61
1, 1052392, Note_off_c, 0, 66, 62
1, 1052400, Note_off_c, 0, 63, 58
1, 1052451, Control_c, 0, 67, 122
1, 1052465, Control_c, 0, 67, 110
1, 1052480, Control_c, 0, 67, 105
1, 1052494, Control_c, 0, 67, 101
1, 1052509, Control_c, 0, 67, 94
1, 1052524, Control_c, 0, 67, 84
1, 1052539, Control_c, 0, 67, 83
1, 1052554, Control_c, 0, 67, 84
1, 1052568, Control_c, 0, 67, 86
1, 1052583, Control_c, 0, 67, 88
1, 1052598, Control_c, 0, 67, 89
1, 1052612, Control_c, 0, 67, 91
1, 1052627, Control_c, 0, 67, 94
1, 1052642, Control_c, 0, 67, 98
1, 1052657, Control_c, 0, 67, 101
1, 1052702, Control_c, 0, 67, 105
1, 1052716, Control_c, 0, 67, 113
1, 1052731, Control_c, 0, 67, 124
1, 1052746, Control_c, 0, 67, 127
1, 1052800, Note_on_c, 0, 66, 69
1, 1052812, Note_on_c, 0, 63, 58
1, 1053072, Note_on_c, 0, 35, 59
1, 1053095, Control_c, 0, 64, 110
1, 1053102, Note_off_c, 0, 35, 62
1, 1053110, Control_c, 0, 64, 88
1, 1053125, Control_c, 0, 64, 67
1, 1053140, Control_c, 0, 64, 45
1, 1053155, Control_c, 0, 64, 0
1, 1053323, Note_on_c, 0, 35, 60
1, 1053359, Note_off_c, 0, 35, 62
1, 1053582, Note_on_c, 0, 37, 65
1, 1053614, Note_off_c, 0, 37, 61
1, 1053932, Note_on_c, 0, 69, 73
1, 1053946, Note_on_c, 0, 61, 46
1, 1053971, Note_on_c, 0, 35, 52
1, 1054006, Note_off_c, 0, 63, 54
1, 1054035, Note_off_c, 0, 66, 61
1, 1054052, Control_c, 0, 64, 28
1, 1054066, Control_c, 0, 64, 45
1, 1054081, Control_c, 0, 64, 55
1, 1054096, Control_c, 0, 64, 61
1, 1054111, Control_c, 0, 64, 66
1, 1054126, Control_c, 0, 64, 76
1, 1054140, Control_c, 0, 64, 99
1, 1054147, Note_off_c, 0, 35, 63
1, 1054155, Control_c, 0, 64, 127
1, 1054571, Note_on_c, 0, 47, 39
1, 1055022, Control_c, 0, 64, 116
1, 1055037, Control_c, 0, 64, 84
1, 1055052, Control_c, 0, 64, 70
1, 1055061, Note_on_c, 0, 59, 48
1, 1055067, Control_c, 0, 64, 67
1, 1055081, Control_c, 0, 64, 70
1, 1055096, Control_c, 0, 64, 83
1, 1055111, Control_c, 0, 64, 127
1, 1055121, Note_off_c, 0, 47, 62
1, 1055144, Note_off_c, 0, 59, 60
1, 1055594, Note_on_c, 0, 71, 48
1, 1055635, Note_off_c, 0, 71, 52
1, 1055689, Note_off_c, 0, 69, 53
1, 1055691, Note_off_c, 0, 61, 63
1, 1056136, Note_on_c, 0, 69, 63
1, 1056141, Note_on_c, 0, 63, 49
1, 1056254, Control_c, 0, 64, 112
1, 1056269, Control_c, 0, 64, 94
1, 1056284, Control_c, 0, 64, 84
1, 1056299, Control_c, 0, 64, 75
1, 1056314, Control_c, 0, 64, 66
1, 1056328, Control_c, 0, 64, 59
1, 1056343, Control_c, 0, 64, 54
1, 1056358, Control_c, 0, 64, 52
1, 1056373, Control_c, 0, 64, 49
1, 1056387, Control_c, 0, 64, 45
1, 1056398, Note_on_c, 0, 66, 44
1, 1056402, Control_c, 0, 64, 37
1, 1056417, Control_c, 0, 64, 0
1, 1056420, Note_on_c, 0, 35, 43
1, 1056492, Note_off_c, 0, 63, 58
1, 1056510, Note_off_c, 0, 35, 54
1, 1056668, Note_on_c, 0, 64, 44
1, 1056672, Note_on_c, 0, 68, 61
1, 1056678, Note_on_c, 0, 35, 42
1, 1056717, Note_off_c, 0, 66, 58
1, 1056725, Note_off_c, 0, 69, 55
1, 1056730, Note_off_c, 0, 35, 44
1, 1056931, Note_on_c, 0, 66, 58
1, 1056937, Note_on_c, 0, 63, 49
1, 1056952, Note_on_c, 0, 37, 41
1, 1056988, Note_off_c, 0, 68, 51
1, 1056991, Note_off_c, 0, 64, 30
1, 1057002, Note_off_c, 0, 37, 57
1, 1057292, Note_on_c, 0, 68, 47
1, 1057295, Note_off_c, 0, 63, 33
1, 1057300, Note_on_c, 0, 35, 42
1, 1057305, Note_on_c, 0, 64, 42
1, 1057343, Note_off_c, 0, 66, 58
1, 1057483, Control_c, 0, 64, 38
1, 1057498, Control_c, 0, 64, 57
1, 1057513, Control_c, 0, 64, 68
1, 1057525, Note_off_c, 0, 35, 63
1, 1057528, Control_c, 0, 64, 75
1, 1057543, Control_c, 0, 64, 83
1, 1057559, Control_c, 0, 64, 90
1, 1057574, Control_c, 0, 64, 108
1, 1057588, Control_c, 0, 64, 127
1, 1057932, Note_on_c, 0, 47, 35
1, 1058292, Control_c, 0, 64, 108
1, 1058306, Control_c, 0, 64, 92
1, 1058321, Control_c, 0, 64, 79
1, 1058336, Control_c, 0, 64, 69
1, 1058352, Control_c, 0, 64, 64
1, 1058367, Control_c, 0, 64, 63
1, 1058381, Control_c, 0, 64, 66
1, 1058396, Control_c, 0, 64, 72
1, 1058411, Control_c, 0, 64, 83
1, 1058426, Control_c, 0, 64, 95
1, 1058441, Control_c, 0, 64, 105
1, 1058456, Control_c, 0, 64, 115
1, 1058461, Note_on_c, 0, 59, 44
1, 1058471, Control_c, 0, 64, 127
1, 1058496, Note_off_c, 0, 47, 60
1, 1058530, Note_off_c, 0, 59, 62
1, 1059067, Note_on_c, 0, 71, 44
1, 1059123, Note_off_c, 0, 71, 59
1, 1059573, Note_off_c, 0, 64, 57
1, 1059664, Note_off_c, 0, 68, 63
1, 1059915, Note_on_c, 0, 35, 37
1, 1059966, Note_off_c, 0, 35, 49
1, 1060247, Note_on_c, 0, 71, 55
1, 1060252, Note_on_c, 0, 68, 46
1, 1060267, Note_on_c, 0, 35, 33
1, 1060294, Control_c, 0, 64, 105
1, 1060306, Note_off_c, 0, 35, 45
1, 1060309, Control_c, 0, 64, 97
1, 1060324, Control_c, 0, 64, 88
1, 1060339, Control_c, 0, 64, 81
1, 1060354, Control_c, 0, 64, 74
1, 1060376, Control_c, 0, 64, 68
1, 1060391, Control_c, 0, 64, 64
1, 1060406, Control_c, 0, 64, 62
1, 1060421, Control_c, 0, 64, 61
1, 1060435, Control_c, 0, 64, 59
1, 1060450, Control_c, 0, 64, 57
1, 1060465, Control_c, 0, 64, 55
1, 1060480, Control_c, 0, 64, 53
1, 1060495, Control_c, 0, 64, 50
1, 1060509, Control_c, 0, 64, 46
1, 1060524, Control_c, 0, 64, 41
1, 1060539, Control_c, 0, 64, 36
1, 1060553, Control_c, 0, 64, 32
1, 1060568, Control_c, 0, 64, 32
1, 1060583, Control_c, 0, 64, 34
1, 1060584, Note_on_c, 0, 37, 33
1, 1060598, Control_c, 0, 64, 43
1, 1060613, Control_c, 0, 64, 55
1, 1060628, Control_c, 0, 64, 68
1, 1060643, Control_c, 0, 64, 80
1, 1060658, Note_off_c, 0, 68, 56
1, 1060658, Control_c, 0, 64, 97
1, 1060672, Control_c, 0, 64, 127
1, 1060684, Note_off_c, 0, 37, 39
1, 1060700, Note_off_c, 0, 71, 58
1, 1061069, Note_on_c, 0, 76, 54
1, 1061082, Note_on_c, 0, 71, 41
1, 1061086, Note_on_c, 0, 68, 35
1, 1061102, Note_on_c, 0, 35, 42
1, 1061139, Control_c, 0, 64, 85
1, 1061154, Control_c, 0, 64, 67
1, 1061169, Control_c, 0, 64, 51
1, 1061183, Control_c, 0, 64, 38
1, 1061198, Control_c, 0, 64, 35
1, 1061213, Control_c, 0, 64, 35
1, 1061228, Control_c, 0, 64, 42
1, 1061243, Control_c, 0, 64, 58
1, 1061257, Control_c, 0, 64, 69
1, 1061272, Control_c, 0, 64, 82
1, 1061287, Control_c, 0, 64, 98
1, 1061302, Control_c, 0, 64, 114
1, 1061317, Control_c, 0, 64, 127
1, 1061365, Note_off_c, 0, 35, 56
1, 1061450, Note_off_c, 0, 71, 52
1, 1061480, Note_off_c, 0, 68, 59
1, 1061956, Note_on_c, 0, 47, 38
1, 1062155, Control_c, 0, 67, 123
1, 1062170, Control_c, 0, 67, 106
1, 1062185, Control_c, 0, 67, 90
1, 1062199, Control_c, 0, 67, 88
1, 1062214, Control_c, 0, 67, 87
1, 1062245, Note_on_c, 0, 75, 59
1, 1062252, Note_on_c, 0, 71, 50
1, 1062274, Note_on_c, 0, 66, 35
1, 1062281, Note_off_c, 0, 76, 60
1, 1062303, Control_c, 0, 67, 87
1, 1062318, Control_c, 0, 67, 88
1, 1062324, Note_off_c, 0, 66, 50
1, 1062333, Control_c, 0, 67, 90
1, 1062337, Note_off_c, 0, 71, 56
1, 1062349, Control_c, 0, 67, 92
1, 1062357, Note_off_c, 0, 75, 59
1, 1062364, Control_c, 0, 67, 95
1, 1062378, Control_c, 0, 67, 98
1, 1062437, Control_c, 0, 67, 101
1, 1062452, Control_c, 0, 67, 104
1, 1062527, Control_c, 0, 67, 107
1, 1062571, Control_c, 0, 67, 109
1, 1062586, Note_on_c, 0, 75, 55
1, 1062586, Control_c, 0, 67, 113
1, 1062592, Note_on_c, 0, 59, 43
1, 1062596, Note_on_c, 0, 71, 46
1, 1062601, Control_c, 0, 67, 121
1, 1062613, Note_on_c, 0, 66, 40
1, 1062622, Control_c, 0, 64, 107
1, 1062622, Control_c, 0, 67, 127
1, 1062637, Control_c, 0, 64, 77
1, 1062652, Control_c, 0, 64, 63
1, 1062667, Control_c, 0, 64, 56
1, 1062682, Control_c, 0, 64, 58
1, 1062696, Control_c, 0, 64, 64
1, 1062711, Control_c, 0, 64, 76
1, 1062725, Note_off_c, 0, 47, 63
1, 1062726, Control_c, 0, 64, 102
1, 1062741, Control_c, 0, 64, 127
1, 1062750, Note_off_c, 0, 59, 64
1, 1063178, Note_on_c, 0, 83, 58
1, 1063209, Note_off_c, 0, 83, 64
1, 1063445, Control_c, 0, 67, 116
1, 1063460, Control_c, 0, 67, 96
1, 1063475, Control_c, 0, 67, 82
1, 1063490, Control_c, 0, 67, 76
1, 1063505, Control_c, 0, 67, 70
1, 1063519, Control_c, 0, 67, 57
1, 1063534, Control_c, 0, 67, 43
1, 1063549, Control_c, 0, 67, 34
1, 1063564, Control_c, 0, 67, 0
1, 1063701, Note_off_c, 0, 75, 58
1, 1063711, Note_off_c, 0, 71, 57
1, 1063723, Note_off_c, 0, 66, 37
1, 1063929, Note_on_c, 0, 35, 57
1, 1063974, Note_off_c, 0, 35, 60
1, 1064242, Note_on_c, 0, 75, 77
1, 1064257, Note_on_c, 0, 71, 61
1, 1064258, Note_on_c, 0, 35, 50
1, 1064260, Note_on_c, 0, 66, 54
1, 1064283, Control_c, 0, 64, 82
1, 1064298, Control_c, 0, 64, 59
1, 1064303, Note_off_c, 0, 35, 56
1, 1064312, Control_c, 0, 64, 0
1, 1064372, Control_c, 0, 64, 33
1, 1064387, Control_c, 0, 64, 58
1, 1064402, Control_c, 0, 64, 77
1, 1064416, Control_c, 0, 64, 112
1, 1064431, Control_c, 0, 64, 127
1, 1064523, Note_off_c, 0, 66, 64
1, 1064539, Note_on_c, 0, 37, 58
1, 1064540, Note_off_c, 0, 71, 62
1, 1064563, Note_off_c, 0, 75, 62
1, 1064587, Note_off_c, 0, 37, 56
1, 1064949, Note_on_c, 0, 80, 76
1, 1064960, Note_on_c, 0, 76, 66
1, 1064973, Note_on_c, 0, 35, 69
1, 1064974, Note_on_c, 0, 71, 60
1, 1064988, Control_c, 0, 64, 79
1, 1065003, Control_c, 0, 64, 57
1, 1065017, Control_c, 0, 64, 0
1, 1065091, Control_c, 0, 64, 34
1, 1065106, Control_c, 0, 64, 59
1, 1065121, Control_c, 0, 64, 81
1, 1065136, Control_c, 0, 64, 127
1, 1065185, Note_off_c, 0, 35, 64
1, 1065262, Note_off_c, 0, 76, 57
1, 1065865, Note_on_c, 0, 47, 59
1, 1066220, Note_on_c, 0, 78, 83
1, 1066225, Note_on_c, 0, 75, 76
1, 1066270, Note_off_c, 0, 80, 65
1, 1066418, Note_off_c, 0, 71, 56
1, 1066426, Note_off_c, 0, 75, 60
1, 1066437, Note_off_c, 0, 78, 56
1, 1066538, Note_on_c, 0, 78, 78
1, 1066541, Note_on_c, 0, 75, 75
1, 1066543, Note_on_c, 0, 71, 71
1, 1066552, Note_on_c, 0, 59, 60
1, 1066574, Control_c, 0, 64, 77
1, 1066588, Control_c, 0, 64, 53
1, 1066603, Control_c, 0, 64, 0
1, 1066618, Control_c, 0, 67, 33
1, 1066633, Control_c, 0, 64, 35
1, 1066633, Control_c, 0, 67, 45
1, 1066648, Control_c, 0, 64, 61
1, 1066648, Control_c, 0, 67, 72
1, 1066662, Control_c, 0, 64, 82
1, 1066662, Control_c, 0, 67, 98
1, 1066677, Control_c, 0, 64, 127
1, 1066677, Control_c, 0, 67, 105
1, 1066696, Note_off_c, 0, 47, 62
1, 1066721, Note_off_c, 0, 59, 64
1, 1066721, Control_c, 0, 67, 108
1, 1066736, Control_c, 0, 67, 111
1, 1066751, Control_c, 0, 67, 125
1, 1066766, Control_c, 0, 67, 127
1, 1067159, Note_on_c, 0, 83, 60
1, 1067189, Note_off_c, 0, 83, 66
1, 1067609, Note_off_c, 0, 71, 59
1, 1067624, Note_off_c, 0, 75, 59
1, 1067676, Note_off_c, 0, 78, 59
1, 1067861, Note_on_c, 0, 35, 80
1, 1067931, Note_off_c, 0, 35, 60
1, 1068141, Note_on_c, 0, 80, 93
1, 1068148, Note_on_c, 0, 35, 80
1, 1068158, Note_on_c, 0, 76, 72
1, 1068158, Note_on_c, 0, 71, 69
1, 1068159, Control_c, 0, 64, 79
1, 1068174, Control_c, 0, 64, 57
1, 1068190, Control_c, 0, 64, 0
1, 1068220, Note_off_c, 0, 35, 59
1, 1068367, Control_c, 0, 64, 49
1, 1068382, Control_c, 0, 64, 74
1, 1068397, Control_c, 0, 64, 127
1, 1068429, Note_off_c, 0, 71, 60
1, 1068441, Control_c, 0, 67, 125
1, 1068446, Note_on_c, 0, 37, 85
1, 1068456, Control_c, 0, 67, 95
1, 1068458, Note_off_c, 0, 76, 66
1, 1068471, Control_c, 0, 67, 79
1, 1068485, Control_c, 0, 67, 60
1, 1068489, Note_off_c, 0, 80, 60
1, 1068500, Control_c, 0, 67, 0
1, 1068509, Note_off_c, 0, 37, 45
1, 1068855, Note_on_c, 0, 85, 83
1, 1068864, Note_on_c, 0, 80, 67
1, 1068864, Control_c, 0, 64, 98
1, 1068867, Note_on_c, 0, 35, 85
1, 1068868, Note_on_c, 0, 76, 63
1, 1068879, Control_c, 0, 64, 67
1, 1068894, Control_c, 0, 64, 0
1, 1068998, Control_c, 0, 64, 61
1, 1069013, Control_c, 0, 64, 89
1, 1069014, Note_off_c, 0, 35, 65
1, 1069028, Control_c, 0, 64, 127
1, 1069164, Note_off_c, 0, 80, 61
1, 1069186, Note_off_c, 0, 76, 63
1, 1069767, Note_on_c, 0, 47, 79
1, 1070092, Note_on_c, 0, 83, 83
1, 1070100, Note_on_c, 0, 78, 77
1, 1070111, Note_on_c, 0, 75, 76
1, 1070169, Note_off_c, 0, 85, 60
1, 1070190, Note_off_c, 0, 78, 50
1, 1070196, Note_off_c, 0, 75, 48
1, 1070202, Note_off_c, 0, 83, 61
1, 1070445, Note_on_c, 0, 83, 81
1, 1070447, Note_on_c, 0, 78, 72
1, 1070452, Note_on_c, 0, 75, 76
1, 1070455, Note_on_c, 0, 59, 72
1, 1070481, Control_c, 0, 64, 81
1, 1070496, Control_c, 0, 64, 61
1, 1070510, Control_c, 0, 64, 42
1, 1070525, Control_c, 0, 64, 28
1, 1070554, Control_c, 0, 64, 40
1, 1070554, Control_c, 0, 67, 55
1, 1070569, Control_c, 0, 64, 58
1, 1070569, Control_c, 0, 67, 95
1, 1070584, Control_c, 0, 64, 73
1, 1070584, Control_c, 0, 67, 127
1, 1070599, Control_c, 0, 64, 101
1, 1070614, Control_c, 0, 64, 127
1, 1070645, Note_off_c, 0, 47, 60
1, 1070701, Note_off_c, 0, 59, 65
1, 1071085, Note_on_c, 0, 71, 54
1, 1071115, Note_off_c, 0, 71, 65
1, 1071934, Note_on_c, 0, 35, 79
1, 1071964, Control_c, 0, 64, 108
1, 1071967, Note_off_c, 0, 35, 65
1, 1071979, Control_c, 0, 64, 68
1, 1071994, Control_c, 0, 64, 0
1, 1072010, Poly_aftertouch_c, 0, 81, 127
1, 1072229, Note_on_c, 0, 35, 75
1, 1072256, Note_off_c, 0, 35, 65
1, 1072492, Note_on_c, 0, 37, 74
1, 1072530, Note_off_c, 0, 37, 66
1, 1072679, Poly_aftertouch_c, 0, 81, 0
1, 1072799, Note_on_c, 0, 35, 59
1, 1072802, Control_c, 0, 64, 34
1, 1072817, Control_c, 0, 64, 48
1, 1072831, Control_c, 0, 64, 59
1, 1072846, Control_c, 0, 64, 65
1, 1072861, Control_c, 0, 64, 74
1, 1072867, Note_off_c, 0, 35, 63
1, 1072875, Control_c, 0, 64, 96
1, 1072890, Control_c, 0, 64, 127
1, 1073372, Note_on_c, 0, 47, 44
1, 1073684, Control_c, 0, 64, 121
1, 1073698, Control_c, 0, 64, 118
1, 1073713, Control_c, 0, 64, 116
1, 1073728, Control_c, 0, 64, 114
1, 1073758, Control_c, 0, 64, 111
1, 1073787, Control_c, 0, 64, 108
1, 1073817, Control_c, 0, 64, 106
1, 1073854, Control_c, 0, 64, 102
1, 1073869, Control_c, 0, 64, 100
1, 1073884, Control_c, 0, 64, 95
1, 1073899, Control_c, 0, 64, 87
1, 1073913, Control_c, 0, 64, 79
1, 1073928, Control_c, 0, 64, 68
1, 1073943, Control_c, 0, 64, 57
1, 1073958, Control_c, 0, 64, 43
1, 1073959, Note_on_c, 0, 59, 46
1, 1073973, Control_c, 0, 64, 32
1, 1074002, Control_c, 0, 64, 34
1, 1074017, Control_c, 0, 64, 44
1, 1074032, Control_c, 0, 64, 56
1, 1074047, Control_c, 0, 64, 66
1, 1074060, Note_off_c, 0, 47, 59
1, 1074061, Control_c, 0, 64, 76
1, 1074076, Control_c, 0, 64, 86
1, 1074091, Control_c, 0, 64, 94
1, 1074105, Control_c, 0, 64, 101
1, 1074120, Control_c, 0, 64, 114
1, 1074135, Control_c, 0, 64, 127
1, 1074152, Note_off_c, 0, 59, 64
1, 1074586, Note_on_c, 0, 71, 34
1, 1074638, Note_off_c, 0, 71, 54
1, 1074873, Note_off_c, 0, 75, 48
1, 1074906, Note_off_c, 0, 78, 34
1, 1075941, Note_on_c, 0, 81, 47
1, 1075969, Note_off_c, 0, 83, 50
1, 1076293, Control_c, 0, 64, 113
1, 1076307, Control_c, 0, 64, 107
1, 1076322, Control_c, 0, 64, 101
1, 1076337, Control_c, 0, 64, 95
1, 1076352, Control_c, 0, 64, 89
1, 1076367, Control_c, 0, 64, 85
1, 1076382, Control_c, 0, 64, 83
1, 1076397, Control_c, 0, 64, 81
1, 1076412, Control_c, 0, 64, 80
1, 1076427, Control_c, 0, 64, 79
1, 1076441, Control_c, 0, 64, 77
1, 1076456, Control_c, 0, 64, 75
1, 1076471, Control_c, 0, 64, 73
1, 1076486, Control_c, 0, 64, 72
1, 1076500, Control_c, 0, 64, 71
1, 1076515, Control_c, 0, 64, 70
1, 1076530, Control_c, 0, 64, 69
1, 1076545, Control_c, 0, 64, 67
1, 1076560, Control_c, 0, 64, 67
1, 1076574, Control_c, 0, 64, 66
1, 1076604, Control_c, 0, 64, 66
1, 1076618, Control_c, 0, 64, 65
1, 1076633, Control_c, 0, 64, 63
1, 1076648, Control_c, 0, 64, 62
1, 1076663, Control_c, 0, 64, 62
1, 1076678, Control_c, 0, 64, 61
1, 1076692, Control_c, 0, 64, 61
1, 1076707, Control_c, 0, 64, 60
1, 1076723, Control_c, 0, 64, 59
1, 1076738, Control_c, 0, 64, 59
1, 1076753, Control_c, 0, 64, 58
1, 1076783, Control_c, 0, 64, 57
1, 1076797, Control_c, 0, 64, 56
1, 1076812, Control_c, 0, 64, 56
1, 1076865, Control_c, 0, 64, 55
1, 1076879, Control_c, 0, 64, 55
1, 1076894, Control_c, 0, 64, 54
1, 1076953, Control_c, 0, 64, 54
1, 1076983, Control_c, 0, 64, 53
1, 1076997, Control_c, 0, 64, 52
1, 1077027, Control_c, 0, 64, 51
1, 1077042, Control_c, 0, 64, 49
1, 1077044, Note_on_c, 0, 80, 49
1, 1077054, Note_on_c, 0, 76, 47
1, 1077056, Control_c, 0, 64, 45
1, 1077071, Control_c, 0, 64, 42
1, 1077072, Note_on_c, 0, 37, 27
1, 1077079, Note_on_c, 0, 68, 18
1, 1077086, Control_c, 0, 64, 40
1, 1077101, Control_c, 0, 64, 38
1, 1077116, Control_c, 0, 64, 36
1, 1077130, Control_c, 0, 64, 33
1, 1077148, Note_off_c, 0, 81, 55
1, 1077160, Control_c, 0, 64, 32
1, 1077175, Control_c, 0, 64, 34
1, 1077190, Control_c, 0, 64, 41
1, 1077205, Control_c, 0, 64, 49
1, 1077219, Control_c, 0, 64, 55
1, 1077234, Control_c, 0, 64, 60
1, 1077249, Control_c, 0, 64, 66
1, 1077264, Control_c, 0, 64, 73
1, 1077279, Control_c, 0, 64, 82
1, 1077294, Control_c, 0, 64, 93
1, 1077309, Control_c, 0, 64, 105
1, 1077323, Control_c, 0, 64, 127
1, 1077364, Note_off_c, 0, 37, 39
1, 1077776, Note_on_c, 0, 49, 35
1, 1078219, Control_c, 0, 64, 96
1, 1078234, Control_c, 0, 64, 75
1, 1078249, Control_c, 0, 64, 62
1, 1078263, Control_c, 0, 64, 56
1, 1078278, Control_c, 0, 64, 57
1, 1078293, Control_c, 0, 64, 62
1, 1078307, Note_on_c, 0, 61, 40
1, 1078308, Control_c, 0, 64, 71
1, 1078324, Control_c, 0, 64, 86
1, 1078346, Control_c, 0, 64, 110
1, 1078361, Control_c, 0, 64, 127
1, 1078405, Note_off_c, 0, 49, 61
1, 1078452, Note_off_c, 0, 61, 61
1, 1078836, Note_on_c, 0, 73, 33
1, 1078907, Note_off_c, 0, 73, 59
1, 1079159, Note_off_c, 0, 76, 49
1, 1079167, Note_off_c, 0, 80, 60
1, 1079246, Note_off_c, 0, 68, 49
1, 1079485, Note_on_c, 0, 37, 50
1, 1079569, Note_off_c, 0, 37, 47
1, 1079766, Note_on_c, 0, 76, 73
1, 1079771, Note_on_c, 0, 39, 50
1, 1079778, Note_on_c, 0, 68, 49
1, 1079786, Note_on_c, 0, 64, 42
1, 1079840, Note_off_c, 0, 39, 49
1, 1079858, Control_c, 0, 64, 106
1, 1079872, Control_c, 0, 64, 97
1, 1079887, Control_c, 0, 64, 90
1, 1079902, Control_c, 0, 64, 82
1, 1079918, Control_c, 0, 64, 71
1, 1079933, Control_c, 0, 64, 61
1, 1079947, Control_c, 0, 64, 52
1, 1079962, Control_c, 0, 64, 41
1, 1079977, Control_c, 0, 64, 0
1, 1080066, Control_c, 0, 64, 43
1, 1080081, Control_c, 0, 64, 59
1, 1080096, Control_c, 0, 64, 68
1, 1080108, Note_on_c, 0, 40, 52
1, 1080111, Control_c, 0, 64, 76
1, 1080126, Control_c, 0, 64, 92
1, 1080140, Note_off_c, 0, 40, 58
1, 1080140, Control_c, 0, 64, 127
1, 1080156, Note_off_c, 0, 76, 60
1, 1080167, Note_off_c, 0, 68, 61
1, 1080188, Note_off_c, 0, 64, 63
1, 1080557, Note_on_c, 0, 75, 72
1, 1080578, Note_on_c, 0, 69, 41
1, 1080585, Note_on_c, 0, 30, 41
1, 1080600, Note_on_c, 0, 66, 41
1, 1080636, Control_c, 0, 64, 91
1, 1080651, Control_c, 0, 64, 72
1, 1080665, Control_c, 0, 64, 55
1, 1080680, Control_c, 0, 64, 28
1, 1080695, Control_c, 0, 64, 0
1, 1080770, Control_c, 0, 64, 40
1, 1080785, Control_c, 0, 64, 59
1, 1080800, Control_c, 0, 64, 70
1, 1080815, Control_c, 0, 64, 80
1, 1080830, Control_c, 0, 64, 90
1, 1080844, Control_c, 0, 64, 101
1, 1080846, Note_off_c, 0, 30, 52
1, 1080859, Control_c, 0, 64, 127
1, 1081251, Note_on_c, 0, 42, 54
1, 1081509, Note_on_c, 0, 73, 79
1, 1081588, Note_off_c, 0, 75, 61
1, 1081653, Note_off_c, 0, 66, 49
1, 1081670, Note_off_c, 0, 73, 57
1, 1081676, Note_off_c, 0, 69, 42
1, 1081837, Note_on_c, 0, 73, 57
1, 1081843, Note_on_c, 0, 69, 49
1, 1081849, Note_on_c, 0, 54, 43
1, 1081858, Note_on_c, 0, 66, 41
1, 1081934, Control_c, 0, 64, 90
1, 1081949, Control_c, 0, 64, 65
1, 1081964, Control_c, 0, 64, 50
1, 1081979, Control_c, 0, 64, 42
1, 1081993, Control_c, 0, 64, 44
1, 1082008, Control_c, 0, 64, 53
1, 1082023, Control_c, 0, 64, 65
1, 1082037, Control_c, 0, 64, 83
1, 1082052, Control_c, 0, 64, 127
1, 1082063, Note_off_c, 0, 42, 62
1, 1082110, Note_off_c, 0, 54, 61
1, 1082150, Note_off_c, 0, 66, 56
1, 1082401, Note_on_c, 0, 66, 39
1, 1082478, Note_off_c, 0, 66, 58
1, 1082973, Note_off_c, 0, 69, 63
1, 1083011, Note_off_c, 0, 73, 63
1, 1083096, Note_on_c, 0, 30, 58
1, 1083136, Note_off_c, 0, 30, 61
1, 1083378, Note_on_c, 0, 73, 81
1, 1083392, Note_on_c, 0, 29, 60
1, 1083392, Note_on_c, 0, 63, 60
1, 1083399, Note_on_c, 0, 69, 58
1, 1083417, Control_c, 0, 64, 100
1, 1083432, Control_c, 0, 64, 78
1, 1083447, Control_c, 0, 64, 64
1, 1083461, Control_c, 0, 64, 51
1, 1083468, Note_off_c, 0, 29, 59
1, 1083476, Control_c, 0, 64, 35
1, 1083491, Control_c, 0, 64, 0
1, 1083673, Note_on_c, 0, 30, 65
1, 1083706, Control_c, 0, 64, 50
1, 1083715, Note_off_c, 0, 30, 61
1, 1083721, Control_c, 0, 64, 68
1, 1083736, Control_c, 0, 64, 91
1, 1083751, Control_c, 0, 64, 127
1, 1083774, Note_off_c, 0, 63, 58
1, 1083807, Note_off_c, 0, 69, 62
1, 1083831, Note_off_c, 0, 73, 57
1, 1084087, Note_on_c, 0, 73, 76
1, 1084092, Control_c, 0, 64, 80
1, 1084101, Note_on_c, 0, 32, 63
1, 1084101, Note_on_c, 0, 68, 65
1, 1084106, Control_c, 0, 64, 60
1, 1084121, Control_c, 0, 64, 31
1, 1084122, Note_on_c, 0, 64, 38
1, 1084136, Control_c, 0, 64, 0
1, 1084269, Control_c, 0, 64, 52
1, 1084284, Control_c, 0, 64, 67
1, 1084299, Control_c, 0, 64, 84
1, 1084314, Control_c, 0, 64, 127
1, 1084335, Note_off_c, 0, 32, 60
1, 1084726, Note_on_c, 0, 44, 55
1, 1085267, Note_on_c, 0, 71, 76
1, 1085284, Note_off_c, 0, 73, 66
1, 1085286, Note_on_c, 0, 56, 58
1, 1085308, Control_c, 0, 64, 87
1, 1085323, Control_c, 0, 64, 63
1, 1085337, Control_c, 0, 64, 45
1, 1085352, Control_c, 0, 64, 36
1, 1085367, Control_c, 0, 64, 40
1, 1085381, Control_c, 0, 64, 52
1, 1085396, Control_c, 0, 64, 66
1, 1085411, Control_c, 0, 64, 85
1, 1085425, Note_off_c, 0, 44, 63
1, 1085426, Control_c, 0, 64, 127
1, 1085441, Note_off_c, 0, 56, 62
1, 1085802, Note_on_c, 0, 80, 60
1, 1085849, Note_off_c, 0, 80, 63
1, 1085881, Note_off_c, 0, 64, 62
1, 1086362, Note_on_c, 0, 60, 70
1, 1086442, Control_c, 0, 64, 118
1, 1086457, Control_c, 0, 64, 99
1, 1086460, Note_off_c, 0, 68, 62
1, 1086472, Control_c, 0, 64, 86
1, 1086487, Control_c, 0, 64, 73
1, 1086501, Control_c, 0, 64, 61
1, 1086516, Control_c, 0, 64, 48
1, 1086531, Control_c, 0, 64, 35
1, 1086546, Control_c, 0, 64, 0
1, 1086637, Note_on_c, 0, 32, 52
1, 1086690, Note_off_c, 0, 32, 56
1, 1086911, Note_on_c, 0, 69, 75
1, 1086921, Note_on_c, 0, 66, 56
1, 1086928, Note_on_c, 0, 31, 29
1, 1086970, Note_off_c, 0, 31, 44
1, 1087045, Note_off_c, 0, 71, 39
1, 1087086, Control_c, 0, 64, 37
1, 1087102, Control_c, 0, 64, 50
1, 1087117, Control_c, 0, 64, 61
1, 1087131, Control_c, 0, 64, 66
1, 1087146, Control_c, 0, 64, 70
1, 1087161, Control_c, 0, 64, 73
1, 1087176, Control_c, 0, 64, 79
1, 1087191, Note_off_c, 0, 60, 65
1, 1087191, Control_c, 0, 64, 91
1, 1087205, Control_c, 0, 64, 115
1, 1087207, Note_off_c, 0, 69, 63
1, 1087208, Note_off_c, 0, 66, 29
1, 1087214, Note_on_c, 0, 32, 53
1, 1087220, Control_c, 0, 64, 127
1, 1087250, Note_off_c, 0, 32, 48
1, 1087606, Note_on_c, 0, 68, 70
1, 1087623, Note_on_c, 0, 64, 59
1, 1087628, Control_c, 0, 64, 90
1, 1087641, Note_on_c, 0, 37, 46
1, 1087643, Control_c, 0, 64, 71
1, 1087655, Note_on_c, 0, 61, 23
1, 1087658, Control_c, 0, 64, 56
1, 1087673, Control_c, 0, 64, 31
1, 1087688, Control_c, 0, 64, 0
1, 1087776, Control_c, 0, 64, 30
1, 1087791, Control_c, 0, 64, 50
1, 1087806, Control_c, 0, 64, 64
1, 1087821, Control_c, 0, 64, 69
1, 1087836, Control_c, 0, 64, 73
1, 1087851, Control_c, 0, 64, 77
1, 1087865, Control_c, 0, 64, 87
1, 1087880, Control_c, 0, 64, 103
1, 1087884, Note_off_c, 0, 37, 62
1, 1087895, Control_c, 0, 64, 127
1, 1088110, Note_off_c, 0, 61, 42
1, 1088173, Note_off_c, 0, 64, 60
1, 1088204, Note_on_c, 0, 44, 36
1, 1088401, Note_off_c, 0, 68, 57
1, 1088624, Note_off_c, 0, 44, 35
1, 1088803, Note_on_c, 0, 64, 52
1, 1088819, Note_on_c, 0, 49, 36
1, 1088821, Note_on_c, 0, 61, 43
1, 1088836, Note_on_c, 0, 56, 39
1, 1088860, Control_c, 0, 64, 121
1, 1088875, Control_c, 0, 64, 85
1, 1088890, Control_c, 0, 64, 66
1, 1088904, Control_c, 0, 64, 55
1, 1088919, Control_c, 0, 64, 52
1, 1088934, Control_c, 0, 64, 53
1, 1088949, Control_c, 0, 64, 58
1, 1088964, Control_c, 0, 64, 65
1, 1088978, Control_c, 0, 64, 77
1, 1088993, Control_c, 0, 64, 101
1, 1089008, Control_c, 0, 64, 127
1, 1089018, Note_off_c, 0, 49, 62
1, 1089456, Note_on_c, 0, 73, 35
1, 1089519, Note_off_c, 0, 73, 58
1, 1090328, Note_on_c, 0, 37, 47
1, 1090366, Note_off_c, 0, 37, 51
1, 1090371, Control_c, 0, 64, 101
1, 1090386, Control_c, 0, 64, 85
1, 1090401, Control_c, 0, 64, 74
1, 1090416, Control_c, 0, 64, 64
1, 1090431, Control_c, 0, 64, 53
1, 1090446, Control_c, 0, 64, 46
1, 1090461, Control_c, 0, 64, 42
1, 1090475, Control_c, 0, 64, 37
1, 1090490, Control_c, 0, 64, 32
1, 1090505, Control_c, 0, 64, 0
1, 1090669, Note_on_c, 0, 37, 45
1, 1090737, Note_off_c, 0, 37, 58
1, 1090813, Note_off_c, 0, 56, 42
1, 1090994, Note_off_c, 0, 61, 53
1, 1091017, Note_on_c, 0, 36, 41
1, 1091039, Note_off_c, 0, 64, 64
1, 1091122, Note_off_c, 0, 36, 54
1, 1091535, Control_c, 0, 64, 27
1, 1091537, Note_on_c, 0, 68, 43
1, 1091547, Note_on_c, 0, 65, 33
1, 1091549, Control_c, 0, 64, 35
1, 1091564, Control_c, 0, 64, 38
1, 1091570, Note_on_c, 0, 37, 29
1, 1091579, Control_c, 0, 64, 42
1, 1091594, Control_c, 0, 64, 49
1, 1091609, Control_c, 0, 64, 58
1, 1091617, Poly_aftertouch_c, 0, 61, 127
1, 1091623, Control_c, 0, 64, 65
1, 1091638, Control_c, 0, 64, 69
1, 1091653, Control_c, 0, 64, 71
1, 1091668, Control_c, 0, 64, 73
1, 1091683, Control_c, 0, 64, 77
1, 1091698, Control_c, 0, 64, 86
1, 1091713, Control_c, 0, 64, 108
1, 1091728, Control_c, 0, 64, 127
1, 1091743, Note_off_c, 0, 37, 42
1, 1091793, Poly_aftertouch_c, 0, 61, 0
1, 1092166, Note_on_c, 0, 49, 15
1, 1092669, Note_on_c, 0, 61, 17
1, 1092696, Note_off_c, 0, 49, 42
1, 1092741, Note_off_c, 0, 61, 42
1, 1093236, Note_on_c, 0, 73, 22
1, 1093284, Note_off_c, 0, 73, 48
1, 1093570, Note_off_c, 0, 65, 49
1, 1093640, Note_off_c, 0, 68, 63
1, 1093812, Note_on_c, 0, 37, 38
1, 1093855, Note_off_c, 0, 37, 58
1, 1094123, Note_on_c, 0, 73, 48
1, 1094139, Note_on_c, 0, 39, 39
1, 1094157, Note_on_c, 0, 68, 35
1, 1094160, Note_on_c, 0, 61, 27
1, 1094173, Control_c, 0, 64, 100
1, 1094188, Control_c, 0, 64, 87
1, 1094191, Note_off_c, 0, 39, 60
1, 1094203, Control_c, 0, 64, 76
1, 1094217, Control_c, 0, 64, 67
1, 1094232, Control_c, 0, 64, 59
1, 1094247, Control_c, 0, 64, 53
1, 1094262, Control_c, 0, 64, 49
1, 1094277, Control_c, 0, 64, 46
1, 1094291, Note_off_c, 0, 61, 0
1, 1094291, Note_on_c, 0, 61, 3
1, 1094293, Control_c, 0, 64, 36
1, 1094308, Control_c, 0, 64, 0
1, 1094471, Control_c, 0, 64, 35
1, 1094486, Control_c, 0, 64, 47
1, 1094501, Control_c, 0, 64, 60
1, 1094515, Control_c, 0, 64, 67
1, 1094528, Note_on_c, 0, 41, 17
1, 1094530, Control_c, 0, 64, 72
1, 1094545, Control_c, 0, 64, 78
1, 1094560, Control_c, 0, 64, 85
1, 1094574, Control_c, 0, 64, 95
1, 1094589, Control_c, 0, 64, 111
1, 1094604, Control_c, 0, 64, 127
1, 1094625, Note_off_c, 0, 73, 58
1, 1094631, Note_off_c, 0, 68, 40
1, 1094640, Note_off_c, 0, 41, 37
1, 1094652, Note_off_c, 0, 61, 44
1, 1095074, Note_on_c, 0, 72, 41
1, 1095081, Note_on_c, 0, 66, 40
1, 1095108, Note_on_c, 0, 61, 24
1, 1095117, Control_c, 0, 64, 92
1, 1095125, Note_on_c, 0, 30, 10
1, 1095132, Control_c, 0, 64, 74
1, 1095146, Control_c, 0, 64, 60
1, 1095161, Control_c, 0, 64, 45
1, 1095176, Control_c, 0, 64, 32
1, 1095190, Control_c, 0, 64, 30
1, 1095220, Control_c, 0, 64, 37
1, 1095235, Control_c, 0, 64, 50
1, 1095250, Control_c, 0, 64, 61
1, 1095264, Control_c, 0, 64, 67
1, 1095279, Control_c, 0, 64, 75
1, 1095294, Control_c, 0, 64, 85
1, 1095309, Control_c, 0, 64, 104
1, 1095324, Control_c, 0, 64, 127
1, 1095343, Note_off_c, 0, 30, 44
1, 1095735, Note_on_c, 0, 42, 31
1, 1096265, Control_c, 0, 64, 104
1, 1096270, Note_on_c, 0, 70, 51
1, 1096280, Control_c, 0, 64, 85
1, 1096294, Control_c, 0, 64, 78
1, 1096297, Note_on_c, 0, 54, 34
1, 1096318, Note_off_c, 0, 72, 52
1, 1096332, Control_c, 0, 64, 81
1, 1096346, Control_c, 0, 64, 92
1, 1096361, Control_c, 0, 64, 110
1, 1096376, Control_c, 0, 64, 127
1, 1096403, Note_off_c, 0, 42, 47
1, 1096406, Note_off_c, 0, 54, 52
1, 1096872, Note_on_c, 0, 82, 45
1, 1096928, Note_off_c, 0, 82, 55
1, 1097213, Control_c, 0, 67, 122
1, 1097317, Control_c, 0, 67, 127
1, 1097349, Note_off_c, 0, 61, 42
1, 1097375, Note_off_c, 0, 70, 63
1, 1097406, Note_off_c, 0, 66, 58
1, 1097581, Note_on_c, 0, 39, 48
1, 1097642, Note_off_c, 0, 39, 50
1, 1097856, Note_on_c, 0, 70, 62
1, 1097859, Note_on_c, 0, 41, 35
1, 1097873, Note_on_c, 0, 65, 44
1, 1097903, Note_on_c, 0, 61, 43
1, 1097933, Control_c, 0, 64, 101
1, 1097934, Note_off_c, 0, 41, 38
1, 1097948, Control_c, 0, 64, 82
1, 1097963, Control_c, 0, 64, 66
1, 1097978, Control_c, 0, 64, 49
1, 1097992, Control_c, 0, 64, 31
1, 1098007, Control_c, 0, 64, 0
1, 1098096, Control_c, 0, 64, 50
1, 1098110, Control_c, 0, 64, 65
1, 1098125, Control_c, 0, 64, 73
1, 1098140, Control_c, 0, 64, 81
1, 1098155, Control_c, 0, 64, 94
1, 1098170, Control_c, 0, 64, 127
1, 1098185, Note_on_c, 0, 42, 36
1, 1098226, Note_off_c, 0, 65, 61
1, 1098232, Note_off_c, 0, 61, 50
1, 1098232, Note_off_c, 0, 70, 63
1, 1098322, Note_off_c, 0, 42, 35
1, 1098612, Note_on_c, 0, 70, 55
1, 1098628, Note_on_c, 0, 63, 46
1, 1098637, Control_c, 0, 64, 105
1, 1098645, Note_on_c, 0, 32, 45
1, 1098652, Control_c, 0, 64, 81
1, 1098658, Note_on_c, 0, 61, 34
1, 1098667, Control_c, 0, 64, 65
1, 1098682, Control_c, 0, 64, 44
1, 1098697, Control_c, 0, 64, 0
1, 1098735, Note_off_c, 0, 61, 0
1, 1098735, Note_on_c, 0, 61, 19
1, 1098771, Control_c, 0, 64, 34
1, 1098786, Control_c, 0, 64, 54
1, 1098801, Control_c, 0, 64, 65
1, 1098815, Control_c, 0, 64, 72
1, 1098830, Control_c, 0, 64, 80
1, 1098845, Control_c, 0, 64, 90
1, 1098859, Control_c, 0, 64, 127
1, 1098885, Note_off_c, 0, 32, 38
1, 1098968, Note_off_c, 0, 61, 41
1, 1098986, Note_off_c, 0, 63, 61
1, 1099391, Note_on_c, 0, 44, 33
1, 1099871, Note_on_c, 0, 68, 55
1, 1099889, Note_on_c, 0, 56, 43
1, 1099891, Note_on_c, 0, 63, 39
1, 1099894, Note_on_c, 0, 60, 39
1, 1099905, Control_c, 0, 64, 88
1, 1099920, Control_c, 0, 64, 68
1, 1099935, Control_c, 0, 64, 55
1, 1099950, Control_c, 0, 64, 51
1, 1099955, Note_off_c, 0, 70, 38
1, 1099965, Control_c, 0, 64, 52
1, 1099979, Control_c, 0, 64, 58
1, 1099994, Control_c, 0, 64, 66
1, 1100009, Control_c, 0, 64, 83
1, 1100024, Control_c, 0, 64, 127
1, 1100044, Note_off_c, 0, 44, 48
1, 1100065, Note_off_c, 0, 56, 60
1, 1100461, Note_on_c, 0, 80, 47
1, 1100517, Note_off_c, 0, 80, 58
1, 1100839, Note_off_c, 0, 60, 63
1, 1100848, Note_off_c, 0, 63, 61
1, 1101177, Note_on_c, 0, 32, 51
1, 1101238, Note_off_c, 0, 32, 51
1, 1101458, Note_on_c, 0, 66, 60
1, 1101461, Note_on_c, 0, 34, 49
1, 1101461, Control_c, 0, 64, 98
1, 1101472, Note_on_c, 0, 61, 43
1, 1101478, Control_c, 0, 64, 83
1, 1101479, Note_on_c, 0, 58, 38
1, 1101493, Control_c, 0, 64, 70
1, 1101507, Control_c, 0, 64, 62
1, 1101522, Control_c, 0, 64, 54
1, 1101528, Note_off_c, 0, 34, 59
1, 1101537, Control_c, 0, 64, 48
1, 1101559, Control_c, 0, 64, 37
1, 1101565, Note_off_c, 0, 68, 63
1, 1101573, Control_c, 0, 64, 0
1, 1101752, Control_c, 0, 64, 36
1, 1101766, Control_c, 0, 64, 54
1, 1101770, Note_on_c, 0, 36, 39
1, 1101781, Control_c, 0, 64, 66
1, 1101796, Control_c, 0, 64, 75
1, 1101811, Control_c, 0, 64, 84
1, 1101826, Control_c, 0, 64, 91
1, 1101828, Note_off_c, 0, 36, 51
1, 1101835, Note_off_c, 0, 66, 64
1, 1101840, Control_c, 0, 64, 100
1, 1101850, Note_off_c, 0, 61, 61
1, 1101855, Control_c, 0, 64, 126
1, 1101879, Note_off_c, 0, 58, 41
1, 1102202, Note_on_c, 0, 65, 49
1, 1102207, Note_on_c, 0, 61, 40
1, 1102211, Control_c, 0, 64, 106
1, 1102217, Note_on_c, 0, 37, 45
1, 1102225, Control_c, 0, 64, 79
1, 1102240, Control_c, 0, 64, 63
1, 1102243, Note_on_c, 0, 56, 21
1, 1102255, Control_c, 0, 64, 45
1, 1102270, Control_c, 0, 64, 31
1, 1102286, Control_c, 0, 64, 0
1, 1102337, Control_c, 0, 64, 30
1, 1102352, Control_c, 0, 64, 46
1, 1102367, Control_c, 0, 64, 61
1, 1102381, Control_c, 0, 64, 71
1, 1102396, Control_c, 0, 64, 79
1, 1102411, Control_c, 0, 64, 84
1, 1102426, Control_c, 0, 64, 89
1, 1102441, Control_c, 0, 64, 98
1, 1102456, Control_c, 0, 64, 126
1, 1102467, Note_off_c, 0, 37, 59
1, 1102640, Note_off_c, 0, 61, 57
1, 1102660, Note_off_c, 0, 56, 41
1, 1102858, Note_on_c, 0, 44, 36
1, 1102968, Note_off_c, 0, 65, 38
1, 1103478, Note_on_c, 0, 56, 34
1, 1103479, Note_on_c, 0, 61, 38
1, 1103492, Note_on_c, 0, 49, 36
1, 1103495, Note_on_c, 0, 53, 29
1, 1103499, Control_c, 0, 64, 114
1, 1103514, Control_c, 0, 64, 84
1, 1103529, Control_c, 0, 64, 68
1, 1103544, Control_c, 0, 64, 59
1, 1103551, Note_off_c, 0, 44, 39
1, 1103559, Control_c, 0, 64, 56
1, 1103574, Control_c, 0, 64, 57
1, 1103589, Control_c, 0, 64, 63
1, 1103603, Control_c, 0, 64, 72
1, 1103618, Control_c, 0, 64, 85
1, 1103633, Control_c, 0, 64, 99
1, 1103647, Control_c, 0, 64, 108
1, 1103660, Note_off_c, 0, 49, 61
1, 1103662, Control_c, 0, 64, 126
1, 1104229, Note_on_c, 0, 73, 40
1, 1104316, Note_off_c, 0, 73, 61
1, 1104608, Note_off_c, 0, 53, 39
1, 1104819, Note_off_c, 0, 56, 42
1, 1104861, Note_off_c, 0, 61, 60
1, 1105391, Note_on_c, 0, 49, 45
1, 1105521, Note_off_c, 0, 49, 48
1, 1105735, Note_on_c, 0, 65, 70
1, 1105748, Note_on_c, 0, 61, 53
1, 1105765, Note_on_c, 0, 48, 53
1, 1105775, Note_on_c, 0, 56, 41
1, 1105777, Control_c, 0, 64, 95
1, 1105791, Control_c, 0, 64, 70
1, 1105806, Control_c, 0, 64, 52
1, 1105821, Control_c, 0, 64, 31
1, 1105836, Control_c, 0, 64, 0
1, 1105865, Control_c, 0, 64, 34
1, 1105869, Note_off_c, 0, 48, 60
1, 1105875, Note_off_c, 0, 56, 0
1, 1105875, Note_on_c, 0, 56, 10
1, 1105880, Control_c, 0, 64, 50
1, 1105895, Control_c, 0, 64, 62
1, 1105910, Control_c, 0, 64, 69
1, 1105924, Control_c, 0, 64, 79
1, 1105939, Control_c, 0, 64, 92
1, 1105954, Control_c, 0, 64, 127
1, 1105984, Control_c, 0, 67, 117
1, 1105998, Control_c, 0, 67, 89
1, 1106013, Control_c, 0, 67, 53
1, 1106028, Control_c, 0, 67, 0
1, 1106055, Note_off_c, 0, 56, 50
1, 1106070, Note_on_c, 0, 49, 51
1, 1106080, Note_off_c, 0, 65, 58
1, 1106098, Note_off_c, 0, 61, 63
1, 1106123, Note_off_c, 0, 49, 59
1, 1106407, Control_c, 0, 67, 41
1, 1106422, Control_c, 0, 67, 63
1, 1106424, Note_on_c, 0, 65, 69
1, 1106426, Note_on_c, 0, 61, 60
1, 1106436, Control_c, 0, 67, 71
1, 1106444, Note_on_c, 0, 46, 51
1, 1106447, Note_on_c, 0, 55, 41
1, 1106451, Control_c, 0, 64, 94
1, 1106451, Control_c, 0, 67, 74
1, 1106466, Control_c, 0, 64, 68
1, 1106466, Control_c, 0, 67, 83
1, 1106480, Control_c, 0, 64, 49
1, 1106480, Control_c, 0, 67, 112
1, 1106495, Control_c, 0, 64, 0
1, 1106495, Control_c, 0, 67, 127
1, 1106540, Control_c, 0, 64, 35
1, 1106555, Control_c, 0, 64, 54
1, 1106569, Control_c, 0, 64, 70
1, 1106584, Control_c, 0, 64, 91
1, 1106599, Control_c, 0, 64, 127
1, 1106603, Note_off_c, 0, 46, 54
1, 1106957, Note_on_c, 0, 70, 57
1, 1106989, Note_off_c, 0, 70, 67
1, 1107172, Note_on_c, 0, 63, 77
1, 1107253, Note_off_c, 0, 65, 58
1, 1107329, Note_off_c, 0, 61, 58
1, 1107339, Note_off_c, 0, 55, 53
1, 1107341, Note_off_c, 0, 63, 58
1, 1107494, Note_on_c, 0, 63, 47
1, 1107502, Note_on_c, 0, 61, 40
1, 1107506, Note_on_c, 0, 82, 45
1, 1107508, Note_on_c, 0, 55, 35
1, 1107652, Control_c, 0, 64, 93
1, 1107666, Control_c, 0, 64, 70
1, 1107681, Control_c, 0, 64, 57
1, 1107696, Control_c, 0, 64, 50
1, 1107708, Note_off_c, 0, 82, 63
1, 1107711, Control_c, 0, 64, 51
1, 1107726, Control_c, 0, 64, 57
1, 1107741, Control_c, 0, 64, 66
1, 1107756, Control_c, 0, 64, 83
1, 1107770, Control_c, 0, 64, 127
1, 1108186, Control_c, 0, 67, 120
1, 1108200, Control_c, 0, 67, 95
1, 1108215, Control_c, 0, 67, 64
1, 1108230, Control_c, 0, 67, 0
1, 1108552, Note_off_c, 0, 55, 60
1, 1108564, Control_c, 0, 67, 51
1, 1108579, Control_c, 0, 67, 76
1, 1108593, Control_c, 0, 67, 95
1, 1108608, Control_c, 0, 67, 110
1, 1108623, Control_c, 0, 67, 127
1, 1108632, Note_off_c, 0, 61, 61
1, 1108648, Note_off_c, 0, 63, 58
1, 1108690, Note_on_c, 0, 46, 40
1, 1108725, Note_off_c, 0, 46, 50
1, 1108957, Note_on_c, 0, 61, 51
1, 1108960, Note_on_c, 0, 63, 58
1, 1108973, Note_on_c, 0, 46, 39
1, 1108985, Note_on_c, 0, 55, 41
1, 1108994, Control_c, 0, 64, 121
1, 1109009, Control_c, 0, 64, 83
1, 1109023, Control_c, 0, 64, 64
1, 1109032, Note_off_c, 0, 46, 54
1, 1109046, Control_c, 0, 64, 46
1, 1109061, Control_c, 0, 64, 32
1, 1109075, Control_c, 0, 64, 28
1, 1109105, Control_c, 0, 64, 34
1, 1109120, Control_c, 0, 64, 48
1, 1109135, Control_c, 0, 64, 61
1, 1109149, Control_c, 0, 64, 71
1, 1109164, Control_c, 0, 64, 82
1, 1109179, Control_c, 0, 64, 92
1, 1109193, Control_c, 0, 64, 98
1, 1109208, Control_c, 0, 64, 108
1, 1109219, Note_off_c, 0, 55, 57
1, 1109223, Control_c, 0, 64, 127
1, 1109262, Note_on_c, 0, 49, 31
1, 1109284, Note_off_c, 0, 63, 60
1, 1109309, Note_off_c, 0, 61, 63
1, 1109315, Note_off_c, 0, 49, 47
1, 1109678, Note_on_c, 0, 64, 54
1, 1109683, Note_on_c, 0, 61, 47
1, 1109694, Note_on_c, 0, 45, 42
1, 1109698, Control_c, 0, 64, 95
1, 1109703, Note_on_c, 0, 54, 34
1, 1109713, Control_c, 0, 64, 69
1, 1109728, Control_c, 0, 64, 51
1, 1109743, Control_c, 0, 64, 30
1, 1109758, Control_c, 0, 64, 0
1, 1109795, Control_c, 0, 64, 38
1, 1109810, Control_c, 0, 64, 57
1, 1109824, Control_c, 0, 64, 67
1, 1109839, Control_c, 0, 64, 75
1, 1109854, Control_c, 0, 64, 83
1, 1109864, Note_off_c, 0, 45, 58
1, 1109869, Control_c, 0, 64, 91
1, 1109884, Control_c, 0, 64, 104
1, 1109898, Control_c, 0, 64, 127
1, 1110275, Note_on_c, 0, 69, 31
1, 1110309, Note_off_c, 0, 69, 51
1, 1110470, Note_on_c, 0, 63, 62
1, 1110477, Note_off_c, 0, 64, 57
1, 1110562, Note_off_c, 0, 61, 57
1, 1110591, Note_off_c, 0, 54, 39
1, 1110614, Note_off_c, 0, 63, 54
1, 1110776, Note_on_c, 0, 63, 49
1, 1110797, Note_on_c, 0, 61, 43
1, 1110810, Note_on_c, 0, 54, 34
1, 1110826, Note_on_c, 0, 81, 34
1, 1110928, Control_c, 0, 64, 90
1, 1110943, Control_c, 0, 64, 70
1, 1110958, Control_c, 0, 64, 56
1, 1110973, Control_c, 0, 64, 46
1, 1110987, Control_c, 0, 64, 45
1, 1111002, Control_c, 0, 64, 49
1, 1111017, Control_c, 0, 64, 59
1, 1111032, Control_c, 0, 64, 72
1, 1111047, Control_c, 0, 64, 92
1, 1111061, Note_off_c, 0, 81, 48
1, 1111062, Control_c, 0, 64, 127
1, 1111664, Note_off_c, 0, 54, 56
1, 1111756, Note_off_c, 0, 63, 60
1, 1111759, Note_off_c, 0, 61, 61
1, 1111907, Note_on_c, 0, 45, 41
1, 1111940, Note_off_c, 0, 45, 52
1, 1112180, Note_on_c, 0, 63, 68
1, 1112194, Note_on_c, 0, 61, 51
1, 1112207, Note_on_c, 0, 54, 35
1, 1112209, Note_on_c, 0, 45, 44
1, 1112263, Control_c, 0, 64, 111
1, 1112278, Control_c, 0, 64, 80
1, 1112293, Control_c, 0, 64, 62
1, 1112299, Note_off_c, 0, 45, 53
1, 1112308, Control_c, 0, 64, 43
1, 1112323, Control_c, 0, 64, 0
1, 1112382, Control_c, 0, 64, 39
1, 1112397, Control_c, 0, 64, 55
1, 1112411, Control_c, 0, 64, 67
1, 1112426, Control_c, 0, 64, 79
1, 1112441, Control_c, 0, 64, 98
1, 1112456, Control_c, 0, 64, 127
1, 1112484, Note_on_c, 0, 49, 47
1, 1112516, Note_off_c, 0, 49, 60
1, 1112516, Note_off_c, 0, 61, 63
1, 1112534, Note_off_c, 0, 63, 62
1, 1112563, Note_off_c, 0, 54, 56
1, 1112880, Note_on_c, 0, 63, 62
1, 1112893, Note_on_c, 0, 60, 54
1, 1112895, Note_on_c, 0, 54, 43
1, 1112898, Note_on_c, 0, 44, 45
1, 1112909, Control_c, 0, 64, 94
1, 1112923, Control_c, 0, 64, 68
1, 1112938, Control_c, 0, 64, 45
1, 1112953, Control_c, 0, 64, 0
1, 1112997, Control_c, 0, 64, 29
1, 1113012, Control_c, 0, 64, 51
1, 1113027, Control_c, 0, 64, 67
1, 1113041, Control_c, 0, 64, 77
1, 1113056, Control_c, 0, 64, 89
1, 1113069, Note_off_c, 0, 44, 61
1, 1113071, Control_c, 0, 64, 104
1, 1113086, Control_c, 0, 64, 127
1, 1113116, Note_off_c, 0, 54, 61
1, 1113443, Note_on_c, 0, 68, 46
1, 1113491, Note_off_c, 0, 68, 59
1, 1113982, Note_on_c, 0, 80, 52
1, 1114047, Note_off_c, 0, 80, 54
1, 1114451, Note_on_c, 0, 65, 65
1, 1114528, Note_off_c, 0, 63, 62
1, 1114594, Note_off_c, 0, 60, 44
1, 1114684, Note_on_c, 0, 66, 74
1, 1114722, Note_off_c, 0, 65, 60
1, 1114987, Note_on_c, 0, 68, 69
1, 1115042, Note_off_c, 0, 66, 62
1, 1115097, Control_c, 0, 64, 93
1, 1115111, Control_c, 0, 64, 75
1, 1115126, Control_c, 0, 64, 62
1, 1115141, Control_c, 0, 64, 49
1, 1115156, Control_c, 0, 64, 34
1, 1115171, Control_c, 0, 64, 0
1, 1115270, Note_on_c, 0, 44, 61
1, 1115308, Note_off_c, 0, 44, 62
1, 1115537, Note_on_c, 0, 64, 65
1, 1115548, Note_on_c, 0, 43, 47
1, 1115551, Note_on_c, 0, 60, 50
1, 1115572, Note_on_c, 0, 56, 23
1, 1115597, Note_off_c, 0, 68, 63
1, 1115623, Note_off_c, 0, 43, 43
1, 1115634, Note_off_c, 0, 56, 39
1, 1115827, Note_off_c, 0, 60, 60
1, 1115828, Note_on_c, 0, 44, 59
1, 1115874, Note_off_c, 0, 44, 61
1, 1116193, Note_on_c, 0, 65, 65
1, 1116204, Note_on_c, 0, 37, 43
1, 1116207, Note_on_c, 0, 56, 35
1, 1116208, Note_on_c, 0, 61, 47
1, 1116220, Note_off_c, 0, 64, 58
1, 1116407, Control_c, 0, 64, 43
1, 1116422, Control_c, 0, 64, 59
1, 1116437, Control_c, 0, 64, 67
1, 1116451, Control_c, 0, 64, 74
1, 1116466, Control_c, 0, 64, 80
1, 1116481, Control_c, 0, 64, 88
1, 1116496, Control_c, 0, 64, 102
1, 1116511, Control_c, 0, 64, 127
1, 1116538, Note_off_c, 0, 37, 35
1, 1116786, Note_on_c, 0, 49, 38
1, 1116836, Note_off_c, 0, 49, 61
1, 1117416, Note_on_c, 0, 73, 48
1, 1117469, Note_off_c, 0, 73, 57
1, 1118548, Note_on_c, 0, 37, 53
1, 1118598, Note_off_c, 0, 37, 59
1, 1118609, Note_off_c, 0, 65, 55
1, 1118624, Note_off_c, 0, 61, 57
1, 1118630, Note_off_c, 0, 56, 41
1, 1118873, Note_on_c, 0, 36, 47
1, 1118883, Control_c, 0, 64, 106
1, 1118885, Note_on_c, 0, 65, 49
1, 1118890, Note_on_c, 0, 61, 38
1, 1118898, Control_c, 0, 64, 89
1, 1118913, Control_c, 0, 64, 77
1, 1118928, Control_c, 0, 64, 67
1, 1118931, Note_on_c, 0, 56, 17
1, 1118931, Note_off_c, 0, 36, 56
1, 1118942, Control_c, 0, 64, 58
1, 1118957, Control_c, 0, 64, 50
1, 1118972, Control_c, 0, 64, 43
1, 1118986, Control_c, 0, 64, 36
1, 1119001, Control_c, 0, 64, 31
1, 1119016, Control_c, 0, 64, 0
1, 1119180, Control_c, 0, 64, 30
1, 1119195, Control_c, 0, 64, 48
1, 1119209, Control_c, 0, 64, 59
1, 1119224, Control_c, 0, 64, 64
1, 1119239, Control_c, 0, 64, 68
1, 1119244, Note_on_c, 0, 37, 29
1, 1119254, Control_c, 0, 64, 73
1, 1119269, Control_c, 0, 64, 79
1, 1119283, Control_c, 0, 64, 87
1, 1119298, Control_c, 0, 64, 100
1, 1119313, Control_c, 0, 64, 127
1, 1119328, Note_off_c, 0, 65, 39
1, 1119334, Note_off_c, 0, 61, 48
1, 1119339, Note_off_c, 0, 56, 36
1, 1119348, Note_off_c, 0, 37, 51
1, 1119751, Note_on_c, 0, 65, 48
1, 1119769, Note_on_c, 0, 61, 34
1, 1119775, Note_on_c, 0, 34, 34
1, 1119781, Note_on_c, 0, 55, 32
1, 1119855, Control_c, 0, 64, 90
1, 1119870, Control_c, 0, 64, 70
1, 1119885, Control_c, 0, 64, 54
1, 1119900, Control_c, 0, 64, 39
1, 1119915, Control_c, 0, 64, 34
1, 1119930, Control_c, 0, 64, 35
1, 1119945, Control_c, 0, 64, 44
1, 1119960, Control_c, 0, 64, 57
1, 1119974, Control_c, 0, 64, 67
1, 1119989, Control_c, 0, 64, 75
1, 1120004, Control_c, 0, 64, 84
1, 1120016, Note_off_c, 0, 34, 41
1, 1120019, Control_c, 0, 64, 90
1, 1120033, Control_c, 0, 64, 101
1, 1120048, Control_c, 0, 64, 127
1, 1120332, Note_on_c, 0, 46, 36
1, 1120390, Note_off_c, 0, 46, 56
1, 1120599, Note_off_c, 0, 65, 50
1, 1120601, Note_on_c, 0, 63, 45
1, 1120672, Note_off_c, 0, 63, 50
1, 1120693, Note_off_c, 0, 61, 42
1, 1120731, Note_off_c, 0, 55, 41
1, 1121006, Note_on_c, 0, 70, 29
1, 1121007, Note_on_c, 0, 63, 33
1, 1121012, Note_on_c, 0, 61, 25
1, 1121030, Note_on_c, 0, 55, 25
1, 1121189, Control_c, 0, 64, 94
1, 1121204, Control_c, 0, 64, 76
1, 1121219, Control_c, 0, 64, 64
1, 1121234, Control_c, 0, 64, 58
1, 1121263, Control_c, 0, 64, 61
1, 1121278, Control_c, 0, 64, 66
1, 1121293, Control_c, 0, 64, 76
1, 1121307, Control_c, 0, 64, 94
1, 1121322, Control_c, 0, 64, 127
1, 1121402, Note_off_c, 0, 70, 42
1, 1122116, Note_off_c, 0, 55, 42
1, 1122116, Note_off_c, 0, 61, 42
1, 1122135, Note_off_c, 0, 63, 40
1, 1122233, Note_on_c, 0, 34, 29
1, 1122282, Note_off_c, 0, 34, 49
1, 1122523, Note_on_c, 0, 34, 37
1, 1122524, Note_on_c, 0, 63, 43
1, 1122538, Note_on_c, 0, 61, 33
1, 1122547, Note_on_c, 0, 55, 25
1, 1122583, Control_c, 0, 64, 108
1, 1122588, Note_off_c, 0, 34, 56
1, 1122598, Control_c, 0, 64, 95
1, 1122613, Control_c, 0, 64, 87
1, 1122627, Control_c, 0, 64, 79
1, 1122642, Control_c, 0, 64, 70
1, 1122657, Control_c, 0, 64, 63
1, 1122672, Control_c, 0, 64, 58
1, 1122687, Control_c, 0, 64, 55
1, 1122701, Control_c, 0, 64, 52
1, 1122716, Control_c, 0, 64, 47
1, 1122731, Control_c, 0, 64, 39
1, 1122745, Control_c, 0, 64, 30
1, 1122760, Control_c, 0, 64, 0
1, 1122834, Control_c, 0, 64, 31
1, 1122849, Control_c, 0, 64, 44
1, 1122864, Control_c, 0, 64, 59
1, 1122879, Control_c, 0, 64, 66
1, 1122883, Note_on_c, 0, 37, 29
1, 1122893, Control_c, 0, 64, 72
1, 1122908, Control_c, 0, 64, 78
1, 1122923, Control_c, 0, 64, 88
1, 1122938, Control_c, 0, 64, 106
1, 1122952, Control_c, 0, 64, 127
1, 1122964, Note_off_c, 0, 63, 57
1, 1122967, Note_off_c, 0, 55, 40
1, 1122979, Note_off_c, 0, 61, 50
1, 1122979, Note_off_c, 0, 37, 38
1, 1123376, Note_on_c, 0, 64, 41
1, 1123398, Note_on_c, 0, 33, 39
1, 1123406, Note_on_c, 0, 54, 23
1, 1123409, Note_on_c, 0, 61, 26
1, 1123450, Control_c, 0, 64, 108
1, 1123465, Control_c, 0, 64, 81
1, 1123480, Control_c, 0, 64, 62
1, 1123495, Control_c, 0, 64, 48
1, 1123510, Control_c, 0, 64, 38
1, 1123524, Control_c, 0, 64, 37
1, 1123539, Control_c, 0, 64, 38
1, 1123554, Control_c, 0, 64, 44
1, 1123568, Control_c, 0, 64, 56
1, 1123583, Control_c, 0, 64, 67
1, 1123599, Control_c, 0, 64, 75
1, 1123614, Control_c, 0, 64, 81
1, 1123629, Control_c, 0, 64, 84
1, 1123634, Note_off_c, 0, 33, 37
1, 1123643, Control_c, 0, 64, 88
1, 1123658, Control_c, 0, 64, 97
1, 1123673, Control_c, 0, 64, 116
1, 1123688, Control_c, 0, 64, 127
1, 1124042, Note_on_c, 0, 45, 32
1, 1124078, Note_off_c, 0, 45, 58
1, 1124261, Note_off_c, 0, 64, 55
1, 1124296, Note_on_c, 0, 63, 48
1, 1124371, Note_off_c, 0, 63, 55
1, 1124396, Note_off_c, 0, 61, 44
1, 1124423, Note_off_c, 0, 54, 40
1, 1124726, Note_on_c, 0, 63, 42
1, 1124741, Note_on_c, 0, 61, 28
1, 1124762, Note_on_c, 0, 54, 9
1, 1124762, Note_on_c, 0, 69, 17
1, 1124934, Control_c, 0, 64, 94
1, 1124948, Control_c, 0, 64, 75
1, 1124963, Control_c, 0, 64, 63
1, 1124978, Control_c, 0, 64, 56
1, 1124993, Control_c, 0, 64, 55
1, 1125008, Control_c, 0, 64, 58
1, 1125022, Control_c, 0, 64, 63
1, 1125037, Control_c, 0, 64, 71
1, 1125052, Control_c, 0, 64, 82
1, 1125067, Control_c, 0, 64, 94
1, 1125082, Control_c, 0, 64, 104
1, 1125096, Control_c, 0, 64, 126
1, 1125161, Note_off_c, 0, 69, 42
1, 1125686, Note_off_c, 0, 54, 42
1, 1125709, Note_off_c, 0, 63, 56
1, 1125740, Note_off_c, 0, 61, 40
1, 1125930, Note_on_c, 0, 33, 31
1, 1125983, Note_off_c, 0, 33, 46
1, 1126214, Note_on_c, 0, 63, 42
1, 1126219, Note_on_c, 0, 33, 42
1, 1126230, Note_on_c, 0, 61, 37
1, 1126261, Control_c, 0, 64, 111
1, 1126270, Note_on_c, 0, 54, 3
1, 1126274, Note_off_c, 0, 33, 50
1, 1126282, Control_c, 0, 64, 98
1, 1126297, Control_c, 0, 64, 88
1, 1126312, Control_c, 0, 64, 80
1, 1126327, Control_c, 0, 64, 73
1, 1126342, Control_c, 0, 64, 66
1, 1126357, Control_c, 0, 64, 61
1, 1126372, Control_c, 0, 64, 58
1, 1126386, Control_c, 0, 64, 55
1, 1126401, Control_c, 0, 64, 51
1, 1126416, Control_c, 0, 64, 45
1, 1126431, Control_c, 0, 64, 37
1, 1126446, Control_c, 0, 64, 0
1, 1126553, Note_on_c, 0, 35, 42
1, 1126579, Control_c, 0, 64, 36
1, 1126594, Control_c, 0, 64, 55
1, 1126609, Control_c, 0, 64, 67
1, 1126624, Control_c, 0, 64, 75
1, 1126639, Control_c, 0, 64, 84
1, 1126643, Note_off_c, 0, 61, 56
1, 1126654, Control_c, 0, 64, 92
1, 1126667, Note_off_c, 0, 35, 37
1, 1126668, Control_c, 0, 64, 114
1, 1126683, Control_c, 0, 64, 127
1, 1126694, Note_off_c, 0, 63, 58
1, 1126726, Note_off_c, 0, 54, 44
1, 1127020, Note_on_c, 0, 63, 46
1, 1127031, Control_c, 0, 64, 118
1, 1127042, Note_on_c, 0, 32, 38
1, 1127046, Note_on_c, 0, 60, 37
1, 1127047, Control_c, 0, 64, 86
1, 1127057, Note_on_c, 0, 54, 25
1, 1127062, Control_c, 0, 64, 70
1, 1127077, Control_c, 0, 64, 59
1, 1127092, Control_c, 0, 64, 45
1, 1127106, Control_c, 0, 64, 31
1, 1127121, Control_c, 0, 64, 0
1, 1127180, Control_c, 0, 64, 42
1, 1127195, Control_c, 0, 64, 54
1, 1127210, Control_c, 0, 64, 62
1, 1127224, Control_c, 0, 64, 67
1, 1127226, Note_off_c, 0, 32, 53
1, 1127239, Control_c, 0, 64, 73
1, 1127254, Control_c, 0, 64, 82
1, 1127269, Control_c, 0, 64, 94
1, 1127284, Control_c, 0, 64, 120
1, 1127299, Control_c, 0, 64, 127
1, 1127429, Note_off_c, 0, 54, 44
1, 1127662, Note_on_c, 0, 44, 25
1, 1127719, Note_off_c, 0, 44, 55
1, 1127915, Note_off_c, 0, 60, 25
1, 1128225, Note_on_c, 0, 56, 38
1, 1128288, Note_off_c, 0, 56, 56
1, 1128723, Note_on_c, 0, 65, 42
1, 1128750, Note_off_c, 0, 63, 58
1, 1128947, Note_off_c, 0, 65, 51
1, 1128953, Note_on_c, 0, 66, 54
1, 1129237, Note_on_c, 0, 68, 53
1, 1129238, Note_off_c, 0, 66, 62
1, 1129322, Control_c, 0, 64, 90
1, 1129337, Control_c, 0, 64, 69
1, 1129352, Control_c, 0, 64, 52
1, 1129367, Control_c, 0, 64, 0
1, 1129527, Note_on_c, 0, 32, 47
1, 1129564, Note_off_c, 0, 32, 49
1, 1129829, Note_on_c, 0, 60, 48
1, 1129830, Note_on_c, 0, 31, 34
1, 1129850, Note_on_c, 0, 57, 34
1, 1129859, Note_on_c, 0, 54, 25
1, 1129875, Note_off_c, 0, 68, 32
1, 1129885, Note_off_c, 0, 31, 47
1, 1130163, Note_on_c, 0, 32, 47
1, 1130203, Note_off_c, 0, 32, 55
1, 1130229, Note_off_c, 0, 57, 44
1, 1130268, Note_off_c, 0, 54, 51
1, 1130575, Note_on_c, 0, 61, 43
1, 1130607, Note_on_c, 0, 37, 37
1, 1130611, Note_on_c, 0, 53, 24
1, 1130613, Note_on_c, 0, 56, 28
1, 1130663, Note_off_c, 0, 60, 33
1, 1130774, Control_c, 0, 64, 42
1, 1130789, Control_c, 0, 64, 53
1, 1130804, Control_c, 0, 64, 60
1, 1130819, Control_c, 0, 64, 64
1, 1130834, Control_c, 0, 64, 68
1, 1130849, Control_c, 0, 64, 73
1, 1130861, Note_off_c, 0, 37, 55
1, 1130864, Control_c, 0, 64, 79
1, 1130879, Control_c, 0, 64, 88
1, 1130893, Control_c, 0, 64, 99
1, 1130908, Control_c, 0, 64, 120
1, 1130923, Control_c, 0, 64, 127
1, 1131254, Note_on_c, 0, 49, 24
1, 1131305, Note_off_c, 0, 49, 55
1, 1131961, Note_on_c, 0, 73, 37
1, 1132014, Note_off_c, 0, 73, 59
1, 1133425, Note_on_c, 0, 37, 51
1, 1133458, Note_off_c, 0, 37, 57
1, 1133466, Control_c, 0, 64, 118
1, 1133481, Control_c, 0, 64, 87
1, 1133496, Control_c, 0, 64, 74
1, 1133511, Control_c, 0, 64, 65
1, 1133526, Control_c, 0, 64, 58
1, 1133541, Control_c, 0, 64, 52
1, 1133556, Control_c, 0, 64, 49
1, 1133570, Control_c, 0, 64, 45
1, 1133585, Control_c, 0, 64, 41
1, 1133600, Control_c, 0, 64, 34
1, 1133615, Control_c, 0, 64, 0
1, 1133770, Note_on_c, 0, 37, 57
1, 1133820, Note_off_c, 0, 37, 62
1, 1134122, Note_on_c, 0, 36, 53
1, 1134140, Note_off_c, 0, 53, 42
1, 1134199, Note_off_c, 0, 56, 57
1, 1134208, Note_off_c, 0, 36, 59
1, 1134225, Note_off_c, 0, 61, 62
1, 1134645, Note_on_c, 0, 61, 55
1, 1134658, Note_on_c, 0, 58, 51
1, 1134665, Note_on_c, 0, 54, 27
1, 1134667, Control_c, 0, 64, 35
1, 1134682, Control_c, 0, 64, 44
1, 1134694, Note_on_c, 0, 37, 12
1, 1134697, Control_c, 0, 64, 51
1, 1134712, Control_c, 0, 64, 56
1, 1134727, Control_c, 0, 64, 62
1, 1134741, Control_c, 0, 64, 67
1, 1134756, Control_c, 0, 64, 75
1, 1134771, Control_c, 0, 64, 84
1, 1134786, Control_c, 0, 64, 94
1, 1134801, Control_c, 0, 64, 120
1, 1134815, Control_c, 0, 64, 127
1, 1134861, Note_off_c, 0, 37, 41
1, 1135310, Note_on_c, 0, 49, 27
1, 1135360, Note_off_c, 0, 49, 59
1, 1136021, Note_on_c, 0, 73, 37
1, 1136083, Note_off_c, 0, 73, 57
1, 1137523, Note_on_c, 0, 37, 49
1, 1137563, Note_off_c, 0, 37, 61
1, 1137589, Control_c, 0, 64, 87
1, 1137604, Control_c, 0, 64, 70
1, 1137619, Control_c, 0, 64, 57
1, 1137633, Control_c, 0, 64, 42
1, 1137648, Control_c, 0, 64, 0
1, 1137872, Note_on_c, 0, 37, 52
1, 1137945, Note_off_c, 0, 37, 59
1, 1138258, Note_on_c, 0, 36, 51
1, 1138303, Note_off_c, 0, 58, 58
1, 1138310, Note_off_c, 0, 61, 58
1, 1138335, Note_off_c, 0, 36, 57
1, 1138368, Note_off_c, 0, 54, 53
1, 1138752, Control_c, 0, 64, 33
1, 1138766, Control_c, 0, 64, 38
1, 1138781, Control_c, 0, 64, 42
1, 1138787, Note_on_c, 0, 61, 46
1, 1138796, Control_c, 0, 64, 48
1, 1138799, Note_on_c, 0, 54, 30
1, 1138808, Note_on_c, 0, 51, 34
1, 1138811, Control_c, 0, 64, 56
1, 1138813, Note_on_c, 0, 37, 29
1, 1138826, Control_c, 0, 64, 63
1, 1138841, Control_c, 0, 64, 68
1, 1138856, Control_c, 0, 64, 74
1, 1138871, Control_c, 0, 64, 79
1, 1138885, Control_c, 0, 64, 87
1, 1138900, Control_c, 0, 64, 99
1, 1138915, Control_c, 0, 64, 127
1, 1138963, Note_off_c, 0, 37, 34
1, 1139419, Note_on_c, 0, 49, 38
1, 1139476, Note_off_c, 0, 49, 59
1, 1140177, Note_on_c, 0, 73, 35
1, 1140239, Note_off_c, 0, 73, 57
1, 1141789, Note_on_c, 0, 37, 44
1, 1141826, Note_off_c, 0, 37, 56
1, 1141851, Control_c, 0, 64, 110
1, 1141866, Control_c, 0, 64, 84
1, 1141881, Control_c, 0, 64, 69
1, 1141896, Control_c, 0, 64, 56
1, 1141911, Control_c, 0, 64, 43
1, 1141925, Control_c, 0, 64, 33
1, 1141940, Control_c, 0, 64, 0
1, 1142205, Note_on_c, 0, 37, 45
1, 1142260, Note_off_c, 0, 37, 58
1, 1142311, Note_off_c, 0, 51, 43
1, 1142485, Note_off_c, 0, 54, 34
1, 1142611, Note_on_c, 0, 36, 38
1, 1142666, Note_off_c, 0, 61, 59
1, 1142671, Note_off_c, 0, 36, 58
1, 1143051, Control_c, 0, 64, 33
1, 1143066, Control_c, 0, 64, 47
1, 1143082, Control_c, 0, 64, 54
1, 1143096, Control_c, 0, 64, 56
1, 1143111, Control_c, 0, 64, 57
1, 1143126, Control_c, 0, 64, 60
1, 1143137, Note_on_c, 0, 61, 29
1, 1143141, Control_c, 0, 64, 65
1, 1143145, Note_on_c, 0, 37, 35
1, 1143148, Note_on_c, 0, 56, 25
1, 1143151, Note_on_c, 0, 53, 10
1, 1143156, Control_c, 0, 64, 72
1, 1143170, Control_c, 0, 64, 86
1, 1143185, Control_c, 0, 64, 102
1, 1143200, Control_c, 0, 64, 127
1, 1143223, Note_off_c, 0, 37, 55
1, 1143864, Note_on_c, 0, 68, 52
1, 1143884, Note_off_c, 0, 68, 63
1, 1144048, Note_off_c, 0, 56, 41
1, 1144057, Note_off_c, 0, 61, 41
1, 1144089, Note_off_c, 0, 53, 41
1, 1144682, Note_on_c, 0, 73, 45
1, 1144694, Note_on_c, 0, 53, 19
1, 1144701, Note_on_c, 0, 61, 34
1, 1144713, Note_on_c, 0, 56, 27
1, 1144771, Note_off_c, 0, 73, 62
1, 1145499, Note_on_c, 0, 80, 62
1, 1145525, Note_off_c, 0, 80, 69
1, 1145939, Note_off_c, 0, 61, 41
1, 1145980, Note_off_c, 0, 56, 38
1, 1146044, Note_off_c, 0, 53, 36
1, 1146612, Note_on_c, 0, 85, 40
1, 1146634, Note_on_c, 0, 61, 33
1, 1146640, Note_on_c, 0, 53, 32
1, 1146650, Note_on_c, 0, 56, 33
1, 1146660, Note_off_c, 0, 85, 64
1, 1148006, Note_on_c, 0, 32, 41
1, 1148126, Note_off_c, 0, 32, 35
1, 1148544, Control_c, 0, 64, 117
1, 1148559, Control_c, 0, 64, 110
1, 1148574, Control_c, 0, 64, 104
1, 1148589, Control_c, 0, 64, 100
1, 1148605, Control_c, 0, 64, 95
1, 1148620, Control_c, 0, 64, 89
1, 1148634, Control_c, 0, 64, 83
1, 1148649, Control_c, 0, 64, 78
1, 1148664, Control_c, 0, 64, 73
1, 1148679, Control_c, 0, 64, 67
1, 1148694, Control_c, 0, 64, 64
1, 1148708, Control_c, 0, 64, 62
1, 1148731, Control_c, 0, 64, 60
1, 1148746, Control_c, 0, 64, 57
1, 1148761, Control_c, 0, 64, 55
1, 1148776, Control_c, 0, 64, 52
1, 1148790, Control_c, 0, 64, 48
1, 1148805, Control_c, 0, 64, 44
1, 1148820, Control_c, 0, 64, 40
1, 1148834, Control_c, 0, 64, 36
1, 1148849, Control_c, 0, 64, 31
1, 1148864, Control_c, 0, 64, 28
1, 1148879, Control_c, 0, 64, 0
1, 1148982, Control_c, 0, 64, 30
1, 1148997, Control_c, 0, 64, 37
1, 1149012, Control_c, 0, 64, 45
1, 1149026, Control_c, 0, 64, 52
1, 1149041, Control_c, 0, 64, 60
1, 1149056, Control_c, 0, 64, 65
1, 1149072, Control_c, 0, 64, 68
1, 1149087, Control_c, 0, 64, 72
1, 1149101, Control_c, 0, 64, 75
1, 1149116, Control_c, 0, 64, 80
1, 1149131, Control_c, 0, 64, 85
1, 1149146, Control_c, 0, 64, 92
1, 1149161, Control_c, 0, 64, 101
1, 1149175, Control_c, 0, 64, 117
1, 1149190, Control_c, 0, 64, 127
1, 1149266, Note_off_c, 0, 61, 41
1, 1149306, Note_off_c, 0, 56, 41
1, 1149319, Note_off_c, 0, 53, 35
1, 1150272, Note_on_c, 0, 61, 23
1, 1150281, Note_on_c, 0, 53, 19
1, 1150283, Note_on_c, 0, 37, 28
1, 1150289, Note_on_c, 0, 56, 25
1, 1153853, Note_off_c, 0, 53, 40
1, 1154274, Note_off_c, 0, 37, 33
1, 1154436, Note_off_c, 0, 56, 20
1, 1154942, Note_off_c, 0, 61, 26
1, 1156092, Control_c, 0, 64, 118
1, 1156107, Control_c, 0, 64, 114
1, 1156122, Control_c, 0, 64, 111
1, 1156137, Control_c, 0, 64, 109
1, 1156166, Control_c, 0, 64, 107
1, 1156196, Control_c, 0, 64, 104
1, 1156233, Control_c, 0, 64, 101
1, 1156263, Control_c, 0, 64, 98
1, 1156293, Control_c, 0, 64, 96
1, 1156307, Control_c, 0, 64, 94
1, 1156322, Control_c, 0, 64, 93
1, 1156337, Control_c, 0, 64, 92
1, 1156351, Control_c, 0, 64, 91
1, 1156366, Control_c, 0, 64, 90
1, 1156381, Control_c, 0, 64, 88
1, 1156396, Control_c, 0, 64, 87
1, 1156411, Control_c, 0, 64, 86
1, 1156425, Control_c, 0, 64, 85
1, 1156440, Control_c, 0, 64, 84
1, 1156455, Control_c, 0, 64, 84
1, 1156470, Control_c, 0, 64, 82
1, 1156485, Control_c, 0, 64, 81
1, 1156500, Control_c, 0, 64, 80
1, 1156514, Control_c, 0, 64, 79
1, 1156529, Control_c, 0, 64, 77
1, 1156544, Control_c, 0, 64, 75
1, 1156559, Control_c, 0, 64, 72
1, 1156574, Control_c, 0, 64, 70
1, 1156589, Control_c, 0, 64, 67
1, 1156604, Control_c, 0, 64, 66
1, 1156619, Control_c, 0, 64, 65
1, 1156634, Control_c, 0, 64, 65
1, 1156649, Control_c, 0, 64, 64
1, 1156664, Control_c, 0, 64, 64
1, 1156678, Control_c, 0, 64, 63
1, 1156723, Control_c, 0, 64, 63
1, 1156753, Control_c, 0, 64, 62
1, 1156812, Control_c, 0, 64, 62
1, 1156827, Control_c, 0, 64, 61
1, 1156856, Control_c, 0, 64, 61
1, 1156901, Control_c, 0, 64, 60
1, 1156930, Control_c, 0, 64, 60
1, 1156960, Control_c, 0, 64, 59
1, 1156997, Control_c, 0, 64, 59
1, 1157027, Control_c, 0, 64, 58
1, 1157056, Control_c, 0, 64, 58
1, 1157071, Control_c, 0, 64, 57
1, 1157086, Control_c, 0, 64, 57
1, 1157101, Control_c, 0, 64, 56
1, 1157130, Control_c, 0, 64, 56
1, 1157145, Control_c, 0, 64, 55
1, 1157160, Control_c, 0, 64, 55
1, 1157174, Control_c, 0, 64, 54
1, 1157189, Control_c, 0, 64, 54
1, 1157204, Control_c, 0, 64, 53
1, 1157219, Control_c, 0, 64, 53
1, 1157234, Control_c, 0, 64, 52
1, 1157248, Control_c, 0, 64, 50
1, 1157263, Control_c, 0, 64, 50
1, 1157278, Control_c, 0, 64, 49
1, 1157292, Control_c, 0, 64, 49
1, 1157307, Control_c, 0, 64, 47
1, 1157322, Control_c, 0, 64, 45
1, 1157337, Control_c, 0, 64, 43
1, 1157352, Control_c, 0, 64, 41
1, 1157366, Control_c, 0, 64, 41
1, 1157381, Control_c, 0, 64, 40
1, 1157397, Control_c, 0, 64, 40
1, 1157412, Control_c, 0, 64, 39
1, 1157427, Control_c, 0, 64, 38
1, 1157501, Control_c, 0, 64, 38
1, 1158353, Control_c, 0, 64, 38
1, 1158412, Control_c, 0, 64, 39
1, 1158427, Control_c, 0, 64, 39
1, 1158442, Control_c, 0, 64, 40
1, 1158464, Control_c, 0, 64, 40
1, 1158509, Control_c, 0, 64, 41
1, 1158524, Control_c, 0, 64, 41
1, 1158613, Control_c, 0, 64, 42
1, 1158790, Control_c, 0, 64, 41
1, 1158806, Control_c, 0, 64, 41
1, 1158820, Control_c, 0, 64, 40
1, 1158835, Control_c, 0, 64, 40
1, 1158864, Control_c, 0, 64, 39
1, 1158879, Control_c, 0, 64, 39
1, 1158894, Control_c, 0, 64, 38
1, 1159058, Control_c, 0, 64, 39
1, 1159088, Control_c, 0, 64, 39
1, 1159103, Control_c, 0, 64, 40
1, 1159132, Control_c, 0, 64, 40
1, 1159147, Control_c, 0, 64, 41
1, 1159162, Control_c, 0, 64, 42
1, 1159176, Control_c, 0, 64, 43
1, 1159191, Control_c, 0, 64, 44
1, 1159214, Control_c, 0, 64, 45
1, 1159229, Control_c, 0, 64, 46
1, 1159243, Control_c, 0, 64, 46
1, 1159258, Control_c, 0, 64, 48
1, 1159273, Control_c, 0, 64, 53
1, 1159288, Control_c, 0, 64, 59
1, 1159303, Control_c, 0, 64, 63
1, 1159317, Control_c, 0, 64, 67
1, 1159332, Control_c, 0, 64, 71
1, 1159334, Note_on_c, 0, 62, 39
1, 1159334, Note_on_c, 0, 58, 28
1, 1159336, Note_on_c, 0, 82, 32
1, 1159347, Control_c, 0, 64, 76
1, 1159361, Control_c, 0, 64, 80
1, 1159376, Control_c, 0, 64, 85
1, 1159391, Control_c, 0, 64, 95
1, 1159406, Control_c, 0, 64, 108
1, 1159421, Control_c, 0, 64, 127
1, 1159430, Note_off_c, 0, 58, 36
1, 1159457, Note_off_c, 0, 62, 59
1, 1159497, Note_on_c, 0, 65, 34
1, 1159534, Note_off_c, 0, 65, 49
1, 1159571, Note_on_c, 0, 62, 55
1, 1159571, Note_off_c, 0, 82, 43
1, 1159573, Note_on_c, 0, 58, 43
1, 1159577, Note_on_c, 0, 81, 43
1, 1159608, Note_off_c, 0, 58, 54
1, 1159635, Note_off_c, 0, 62, 59
1, 1159653, Note_on_c, 0, 65, 51
1, 1159700, Note_off_c, 0, 65, 55
1, 1159737, Note_off_c, 0, 81, 55
1, 1159741, Note_on_c, 0, 82, 56
1, 1159743, Note_on_c, 0, 62, 56
1, 1159758, Note_on_c, 0, 58, 28
1, 1159788, Note_off_c, 0, 58, 53
1, 1159799, Note_off_c, 0, 62, 59
1, 1159827, Note_on_c, 0, 65, 54
1, 1159861, Note_off_c, 0, 82, 55
1, 1159862, Note_off_c, 0, 65, 60
1, 1159892, Note_on_c, 0, 58, 61
1, 1159901, Note_on_c, 0, 79, 62
1, 1159909, Note_on_c, 0, 63, 59
1, 1159929, Note_off_c, 0, 58, 58
1, 1159940, Control_c, 0, 64, 107
1, 1159946, Note_off_c, 0, 63, 59
1, 1159963, Control_c, 0, 64, 79
1, 1159978, Control_c, 0, 64, 62
1, 1159992, Control_c, 0, 64, 41
1, 1160007, Note_on_c, 0, 67, 59
1, 1160007, Control_c, 0, 64, 0
1, 1160047, Note_off_c, 0, 67, 60
1, 1160059, Note_off_c, 0, 79, 52
1, 1160071, Note_on_c, 0, 81, 59
1, 1160083, Note_on_c, 0, 58, 60
1, 1160097, Note_on_c, 0, 63, 43
1, 1160115, Note_off_c, 0, 58, 62
1, 1160127, Note_off_c, 0, 63, 56
1, 1160145, Note_off_c, 0, 81, 43
1, 1160154, Note_on_c, 0, 82, 69
1, 1160157, Note_on_c, 0, 67, 66
1, 1160217, Note_off_c, 0, 67, 57
1, 1160219, Note_off_c, 0, 82, 62
1, 1160238, Note_on_c, 0, 63, 57
1, 1160246, Note_on_c, 0, 58, 56
1, 1160250, Note_on_c, 0, 84, 59
1, 1160276, Note_off_c, 0, 63, 63
1, 1160281, Note_off_c, 0, 58, 62
1, 1160314, Note_on_c, 0, 86, 64
1, 1160319, Note_on_c, 0, 67, 61
1, 1160341, Note_off_c, 0, 84, 39
1, 1160352, Note_off_c, 0, 67, 62
1, 1160402, Note_on_c, 0, 58, 60
1, 1160404, Note_on_c, 0, 62, 62
1, 1160407, Control_c, 0, 64, 44
1, 1160411, Note_on_c, 0, 82, 69
1, 1160416, Note_off_c, 0, 86, 61
1, 1160422, Control_c, 0, 64, 57
1, 1160437, Control_c, 0, 64, 59
1, 1160440, Note_off_c, 0, 58, 63
1, 1160467, Note_off_c, 0, 62, 56
1, 1160481, Control_c, 0, 64, 59
1, 1160496, Control_c, 0, 64, 60
1, 1160502, Note_on_c, 0, 65, 60
1, 1160510, Control_c, 0, 64, 60
1, 1160542, Note_off_c, 0, 65, 56
1, 1160555, Control_c, 0, 64, 61
1, 1160568, Note_off_c, 0, 82, 60
1, 1160570, Control_c, 0, 64, 61
1, 1160578, Note_on_c, 0, 84, 67
1, 1160580, Note_on_c, 0, 62, 64
1, 1160586, Control_c, 0, 64, 62
1, 1160586, Note_on_c, 0, 58, 57
1, 1160609, Note_off_c, 0, 58, 60
1, 1160639, Note_off_c, 0, 62, 58
1, 1160663, Note_on_c, 0, 65, 65
1, 1160679, Note_on_c, 0, 82, 52
1, 1160689, Note_off_c, 0, 84, 54
1, 1160724, Note_off_c, 0, 82, 45
1, 1160726, Note_off_c, 0, 65, 54
1, 1160741, Control_c, 0, 64, 63
1, 1160747, Note_on_c, 0, 58, 49
1, 1160750, Note_on_c, 0, 62, 66
1, 1160756, Control_c, 0, 64, 63
1, 1160760, Note_on_c, 0, 81, 54
1, 1160771, Control_c, 0, 64, 65
1, 1160793, Note_off_c, 0, 58, 59
1, 1160801, Control_c, 0, 64, 64
1, 1160811, Note_off_c, 0, 62, 61
1, 1160815, Control_c, 0, 64, 62
1, 1160816, Note_off_c, 0, 81, 62
1, 1160830, Control_c, 0, 64, 50
1, 1160831, Note_on_c, 0, 79, 64
1, 1160836, Note_on_c, 0, 65, 67
1, 1160845, Control_c, 0, 64, 0
1, 1160858, Note_off_c, 0, 79, 66
1, 1160879, Note_off_c, 0, 65, 60
1, 1160887, Note_on_c, 0, 77, 79
1, 1160905, Note_on_c, 0, 57, 71
1, 1160908, Note_off_c, 0, 77, 71
1, 1160916, Note_on_c, 0, 63, 62
1, 1160935, Note_off_c, 0, 57, 63
1, 1160951, Note_off_c, 0, 63, 60
1, 1160998, Note_on_c, 0, 65, 56
1, 1161034, Note_off_c, 0, 65, 56
1, 1161073, Note_on_c, 0, 57, 58
1, 1161081, Note_on_c, 0, 63, 57
1, 1161083, Note_on_c, 0, 77, 67
1, 1161107, Note_off_c, 0, 77, 68
1, 1161110, Note_off_c, 0, 57, 61
1, 1161124, Note_off_c, 0, 63, 59
1, 1161171, Note_on_c, 0, 65, 52
1, 1161198, Note_off_c, 0, 65, 56
1, 1161236, Note_on_c, 0, 77, 65
1, 1161238, Note_on_c, 0, 57, 63
1, 1161242, Note_on_c, 0, 63, 58
1, 1161259, Note_off_c, 0, 57, 64
1, 1161261, Note_off_c, 0, 77, 68
1, 1161298, Note_off_c, 0, 63, 59
1, 1161317, Note_on_c, 0, 65, 59
1, 1161365, Note_off_c, 0, 65, 56
1, 1161393, Control_c, 0, 64, 47
1, 1161404, Note_on_c, 0, 57, 44
1, 1161408, Control_c, 0, 64, 63
1, 1161414, Note_on_c, 0, 63, 58
1, 1161417, Note_on_c, 0, 78, 60
1, 1161423, Control_c, 0, 64, 69
1, 1161437, Control_c, 0, 64, 71
1, 1161452, Control_c, 0, 64, 73
1, 1161465, Note_off_c, 0, 57, 48
1, 1161475, Control_c, 0, 64, 75
1, 1161490, Control_c, 0, 64, 80
1, 1161499, Note_off_c, 0, 63, 60
1, 1161505, Control_c, 0, 64, 87
1, 1161519, Note_on_c, 0, 66, 68
1, 1161519, Control_c, 0, 64, 92
1, 1161534, Control_c, 0, 64, 95
1, 1161558, Note_off_c, 0, 66, 55
1, 1161563, Control_c, 0, 64, 92
1, 1161574, Note_off_c, 0, 78, 58
1, 1161578, Control_c, 0, 64, 75
1, 1161588, Note_on_c, 0, 90, 77
1, 1161593, Control_c, 0, 64, 54
1, 1161595, Note_on_c, 0, 57, 59
1, 1161605, Note_on_c, 0, 63, 63
1, 1161608, Note_off_c, 0, 90, 70
1, 1161608, Control_c, 0, 64, 0
1, 1161615, Note_off_c, 0, 57, 64
1, 1161647, Note_off_c, 0, 63, 62
1, 1161683, Note_on_c, 0, 66, 47
1, 1161724, Note_off_c, 0, 66, 50
1, 1161737, Note_on_c, 0, 57, 49
1, 1161755, Note_on_c, 0, 90, 74
1, 1161756, Note_on_c, 0, 63, 59
1, 1161782, Note_off_c, 0, 57, 59
1, 1161788, Note_off_c, 0, 90, 56
1, 1161808, Note_off_c, 0, 63, 55
1, 1161833, Note_on_c, 0, 66, 67
1, 1161874, Note_off_c, 0, 66, 62
1, 1161918, Note_on_c, 0, 63, 68
1, 1161919, Note_on_c, 0, 91, 79
1, 1161919, Control_c, 0, 64, 58
1, 1161925, Note_on_c, 0, 58, 67
1, 1161934, Control_c, 0, 64, 76
1, 1161949, Control_c, 0, 64, 86
1, 1161950, Note_off_c, 0, 63, 61
1, 1161961, Note_off_c, 0, 58, 62
1, 1161963, Control_c, 0, 64, 88
1, 1161993, Control_c, 0, 64, 89
1, 1162025, Note_on_c, 0, 67, 62
1, 1162052, Control_c, 0, 64, 88
1, 1162061, Note_off_c, 0, 91, 64
1, 1162064, Note_off_c, 0, 67, 57
1, 1162067, Control_c, 0, 64, 79
1, 1162081, Control_c, 0, 64, 62
1, 1162095, Note_on_c, 0, 58, 68
1, 1162095, Note_on_c, 0, 79, 65
1, 1162096, Control_c, 0, 64, 0
1, 1162100, Note_on_c, 0, 63, 56
1, 1162121, Note_off_c, 0, 58, 66
1, 1162128, Note_off_c, 0, 79, 60
1, 1162130, Note_off_c, 0, 63, 63
1, 1162185, Note_on_c, 0, 67, 53
1, 1162235, Note_off_c, 0, 67, 58
1, 1162248, Note_on_c, 0, 58, 55
1, 1162254, Note_on_c, 0, 79, 60
1, 1162259, Note_on_c, 0, 63, 58
1, 1162277, Note_off_c, 0, 79, 63
1, 1162298, Note_off_c, 0, 58, 62
1, 1162298, Note_off_c, 0, 63, 60
1, 1162351, Note_on_c, 0, 67, 60
1, 1162387, Note_off_c, 0, 67, 62
1, 1162397, Note_on_c, 0, 81, 65
1, 1162401, Control_c, 0, 64, 37
1, 1162414, Note_on_c, 0, 63, 62
1, 1162416, Control_c, 0, 64, 63
1, 1162421, Note_off_c, 0, 81, 69
1, 1162431, Control_c, 0, 64, 68
1, 1162435, Note_on_c, 0, 60, 53
1, 1162460, Control_c, 0, 64, 67
1, 1162472, Note_off_c, 0, 60, 48
1, 1162475, Control_c, 0, 64, 64
1, 1162484, Note_off_c, 0, 63, 58
1, 1162490, Control_c, 0, 64, 56
1, 1162505, Control_c, 0, 64, 36
1, 1162517, Note_on_c, 0, 65, 55
1, 1162519, Control_c, 0, 64, 0
1, 1162557, Note_off_c, 0, 65, 50
1, 1162569, Note_on_c, 0, 94, 84
1, 1162569, Note_on_c, 0, 60, 67
1, 1162583, Note_on_c, 0, 63, 61
1, 1162604, Note_off_c, 0, 60, 56
1, 1162605, Note_on_c, 0, 93, 65
1, 1162617, Note_off_c, 0, 94, 65
1, 1162621, Note_off_c, 0, 63, 62
1, 1162637, Note_on_c, 0, 65, 70
1, 1162655, Note_on_c, 0, 91, 89
1, 1162658, Note_off_c, 0, 93, 63
1, 1162700, Note_off_c, 0, 91, 65
1, 1162704, Note_off_c, 0, 65, 51
1, 1162724, Note_on_c, 0, 63, 73
1, 1162730, Note_on_c, 0, 93, 104
1, 1162734, Note_on_c, 0, 60, 61
1, 1162769, Note_off_c, 0, 60, 65
1, 1162783, Note_off_c, 0, 63, 62
1, 1162816, Note_on_c, 0, 65, 71
1, 1162879, Note_off_c, 0, 65, 55
1, 1162888, Note_on_c, 0, 94, 91
1, 1162891, Control_c, 0, 64, 54
1, 1162896, Note_on_c, 0, 62, 74
1, 1162898, Note_on_c, 0, 58, 76
1, 1162905, Control_c, 0, 64, 67
1, 1162906, Note_off_c, 0, 93, 62
1, 1162920, Control_c, 0, 64, 67
1, 1162923, Note_off_c, 0, 58, 66
1, 1162924, Note_off_c, 0, 94, 64
1, 1162929, Note_off_c, 0, 62, 59
1, 1162972, Control_c, 0, 64, 68
1, 1162988, Control_c, 0, 64, 69
1, 1162994, Note_on_c, 0, 65, 66
1, 1163045, Note_on_c, 0, 58, 46
1, 1163049, Note_off_c, 0, 65, 51
1, 1163054, Note_on_c, 0, 62, 65
1, 1163062, Note_on_c, 0, 84, 62
1, 1163062, Control_c, 0, 64, 67
1, 1163077, Control_c, 0, 64, 61
1, 1163087, Note_off_c, 0, 58, 65
1, 1163088, Note_off_c, 0, 62, 55
1, 1163091, Control_c, 0, 64, 40
1, 1163092, Note_on_c, 0, 82, 73
1, 1163096, Note_off_c, 0, 84, 61
1, 1163106, Control_c, 0, 64, 0
1, 1163133, Note_on_c, 0, 65, 64
1, 1163147, Note_off_c, 0, 82, 61
1, 1163171, Note_on_c, 0, 81, 67
1, 1163191, Note_off_c, 0, 65, 57
1, 1163210, Note_on_c, 0, 62, 57
1, 1163218, Note_on_c, 0, 58, 47
1, 1163232, Note_on_c, 0, 82, 68
1, 1163237, Note_off_c, 0, 81, 63
1, 1163255, Note_off_c, 0, 62, 63
1, 1163257, Note_off_c, 0, 82, 69
1, 1163263, Note_off_c, 0, 58, 60
1, 1163298, Note_on_c, 0, 65, 68
1, 1163344, Note_off_c, 0, 65, 52
1, 1163432, Control_c, 0, 64, 43
1, 1163447, Control_c, 0, 64, 59
1, 1163448, Note_on_c, 0, 58, 56
1, 1163451, Note_on_c, 0, 74, 56
1, 1163461, Control_c, 0, 64, 66
1, 1163476, Control_c, 0, 64, 68
1, 1163491, Control_c, 0, 64, 69
1, 1163506, Control_c, 0, 64, 70
1, 1163521, Control_c, 0, 64, 71
1, 1163535, Control_c, 0, 64, 73
1, 1163540, Note_off_c, 0, 74, 61
1, 1163550, Control_c, 0, 64, 75
1, 1163565, Control_c, 0, 64, 76
1, 1163567, Note_on_c, 0, 77, 52
1, 1163580, Control_c, 0, 64, 77
1, 1163623, Note_off_c, 0, 77, 53
1, 1163639, Control_c, 0, 64, 76
1, 1163651, Note_off_c, 0, 58, 56
1, 1163654, Control_c, 0, 64, 71
1, 1163657, Note_on_c, 0, 74, 62
1, 1163661, Note_on_c, 0, 57, 51
1, 1163669, Control_c, 0, 64, 58
1, 1163673, Note_on_c, 0, 70, 24
1, 1163684, Control_c, 0, 64, 27
1, 1163698, Control_c, 0, 64, 0
1, 1163712, Note_off_c, 0, 70, 47
1, 1163716, Note_off_c, 0, 74, 47
1, 1163740, Note_on_c, 0, 77, 65
1, 1163810, Note_off_c, 0, 57, 60
1, 1163815, Note_off_c, 0, 77, 58
1, 1163818, Note_on_c, 0, 58, 51
1, 1163830, Note_on_c, 0, 74, 73
1, 1163861, Note_on_c, 0, 70, 19
1, 1163890, Note_off_c, 0, 70, 46
1, 1163911, Note_off_c, 0, 74, 54
1, 1163920, Note_on_c, 0, 77, 69
1, 1163988, Note_on_c, 0, 55, 69
1, 1163991, Note_off_c, 0, 77, 55
1, 1163994, Note_off_c, 0, 58, 61
1, 1164000, Note_on_c, 0, 70, 59
1, 1164003, Note_on_c, 0, 74, 71
1, 1164018, Control_c, 0, 64, 41
1, 1164032, Control_c, 0, 64, 54
1, 1164040, Note_off_c, 0, 70, 58
1, 1164047, Control_c, 0, 64, 61
1, 1164062, Control_c, 0, 64, 62
1, 1164095, Note_off_c, 0, 74, 57
1, 1164105, Note_on_c, 0, 79, 60
1, 1164152, Control_c, 0, 64, 63
1, 1164179, Note_on_c, 0, 57, 72
1, 1164179, Note_off_c, 0, 55, 63
1, 1164179, Note_off_c, 0, 79, 56
1, 1164190, Note_on_c, 0, 74, 70
1, 1164199, Note_on_c, 0, 70, 54
1, 1164232, Note_off_c, 0, 70, 63
1, 1164240, Control_c, 0, 64, 63
1, 1164255, Control_c, 0, 64, 64
1, 1164261, Note_off_c, 0, 57, 65
1, 1164264, Note_off_c, 0, 74, 58
1, 1164265, Note_on_c, 0, 58, 75
1, 1164276, Note_on_c, 0, 79, 68
1, 1164339, Note_off_c, 0, 79, 60
1, 1164353, Note_on_c, 0, 60, 69
1, 1164354, Note_off_c, 0, 58, 64
1, 1164358, Control_c, 0, 64, 60
1, 1164362, Note_on_c, 0, 74, 72
1, 1164373, Control_c, 0, 64, 47
1, 1164388, Control_c, 0, 64, 0
1, 1164391, Note_on_c, 0, 70, 35
1, 1164409, Note_off_c, 0, 60, 64
1, 1164424, Note_off_c, 0, 70, 49
1, 1164428, Note_on_c, 0, 62, 72
1, 1164436, Note_off_c, 0, 74, 60
1, 1164441, Note_on_c, 0, 79, 75
1, 1164517, Note_off_c, 0, 62, 55
1, 1164517, Note_off_c, 0, 79, 58
1, 1164530, Note_on_c, 0, 58, 78
1, 1164532, Note_on_c, 0, 74, 75
1, 1164544, Note_on_c, 0, 70, 46
1, 1164544, Control_c, 0, 64, 29
1, 1164558, Control_c, 0, 64, 45
1, 1164569, Note_off_c, 0, 70, 60
1, 1164573, Control_c, 0, 64, 58
1, 1164589, Control_c, 0, 64, 65
1, 1164604, Control_c, 0, 64, 69
1, 1164617, Note_off_c, 0, 74, 55
1, 1164619, Control_c, 0, 64, 72
1, 1164620, Note_on_c, 0, 77, 70
1, 1164634, Control_c, 0, 64, 73
1, 1164649, Control_c, 0, 64, 74
1, 1164663, Control_c, 0, 64, 75
1, 1164677, Note_off_c, 0, 58, 61
1, 1164678, Control_c, 0, 64, 75
1, 1164692, Note_off_c, 0, 77, 60
1, 1164703, Note_on_c, 0, 74, 74
1, 1164706, Note_on_c, 0, 60, 62
1, 1164724, Note_on_c, 0, 70, 31
1, 1164752, Control_c, 0, 64, 76
1, 1164756, Note_off_c, 0, 70, 54
1, 1164760, Note_off_c, 0, 60, 58
1, 1164767, Control_c, 0, 64, 77
1, 1164781, Control_c, 0, 64, 78
1, 1164783, Note_on_c, 0, 58, 75
1, 1164786, Note_off_c, 0, 74, 60
1, 1164789, Note_on_c, 0, 77, 73
1, 1164796, Control_c, 0, 64, 80
1, 1164811, Control_c, 0, 64, 82
1, 1164826, Control_c, 0, 64, 84
1, 1164841, Control_c, 0, 64, 86
1, 1164854, Note_off_c, 0, 58, 59
1, 1164855, Control_c, 0, 64, 89
1, 1164857, Note_on_c, 0, 70, 58
1, 1164860, Note_off_c, 0, 77, 59
1, 1164865, Note_on_c, 0, 74, 73
1, 1164869, Note_on_c, 0, 57, 78
1, 1164870, Control_c, 0, 64, 92
1, 1164885, Control_c, 0, 64, 95
1, 1164892, Note_off_c, 0, 70, 64
1, 1164920, Note_off_c, 0, 57, 63
1, 1164930, Control_c, 0, 64, 93
1, 1164939, Note_off_c, 0, 74, 61
1, 1164944, Control_c, 0, 64, 75
1, 1164948, Note_on_c, 0, 77, 82
1, 1164953, Note_on_c, 0, 55, 83
1, 1164959, Control_c, 0, 64, 54
1, 1164974, Control_c, 0, 64, 0
1, 1165025, Note_on_c, 0, 53, 91
1, 1165025, Note_off_c, 0, 55, 40
1, 1165037, Note_off_c, 0, 77, 58
1, 1165040, Note_on_c, 0, 75, 80
1, 1165049, Note_off_c, 0, 53, 67
1, 1165057, Note_on_c, 0, 69, 57
1, 1165088, Note_off_c, 0, 69, 61
1, 1165119, Note_off_c, 0, 75, 62
1, 1165126, Note_on_c, 0, 77, 71
1, 1165183, Note_off_c, 0, 77, 57
1, 1165219, Note_on_c, 0, 53, 75
1, 1165233, Note_on_c, 0, 75, 70
1, 1165237, Note_on_c, 0, 69, 56
1, 1165246, Note_off_c, 0, 53, 65
1, 1165260, Note_off_c, 0, 75, 64
1, 1165269, Note_off_c, 0, 69, 61
1, 1165309, Note_on_c, 0, 77, 66
1, 1165352, Note_off_c, 0, 77, 59
1, 1165400, Note_on_c, 0, 53, 56
1, 1165410, Note_on_c, 0, 75, 63
1, 1165424, Note_off_c, 0, 53, 59
1, 1165425, Note_on_c, 0, 69, 42
1, 1165446, Note_off_c, 0, 75, 58
1, 1165455, Note_off_c, 0, 69, 55
1, 1165480, Note_on_c, 0, 77, 62
1, 1165515, Note_off_c, 0, 77, 62
1, 1165579, Note_on_c, 0, 75, 67
1, 1165580, Note_on_c, 0, 54, 66
1, 1165590, Control_c, 0, 64, 36
1, 1165591, Note_on_c, 0, 69, 44
1, 1165604, Control_c, 0, 64, 54
1, 1165619, Control_c, 0, 64, 64
1, 1165627, Note_off_c, 0, 69, 59
1, 1165634, Control_c, 0, 64, 67
1, 1165649, Control_c, 0, 64, 69
1, 1165654, Note_off_c, 0, 75, 48
1, 1165663, Control_c, 0, 64, 70
1, 1165673, Note_on_c, 0, 81, 72
1, 1165678, Control_c, 0, 64, 72
1, 1165693, Control_c, 0, 64, 75
1, 1165708, Control_c, 0, 64, 79
1, 1165712, Note_off_c, 0, 54, 62
1, 1165722, Control_c, 0, 64, 83
1, 1165736, Note_off_c, 0, 81, 57
1, 1165737, Control_c, 0, 64, 82
1, 1165743, Note_on_c, 0, 66, 82
1, 1165751, Note_on_c, 0, 75, 87
1, 1165752, Control_c, 0, 64, 71
1, 1165757, Note_on_c, 0, 69, 66
1, 1165764, Note_off_c, 0, 66, 73
1, 1165767, Control_c, 0, 64, 44
1, 1165782, Control_c, 0, 64, 0
1, 1165784, Note_off_c, 0, 69, 66
1, 1165801, Note_off_c, 0, 75, 62
1, 1165834, Note_on_c, 0, 81, 82
1, 1165898, Note_off_c, 0, 81, 57
1, 1165921, Note_on_c, 0, 75, 79
1, 1165924, Note_on_c, 0, 66, 91
1, 1165935, Note_on_c, 0, 69, 59
1, 1165965, Note_off_c, 0, 66, 65
1, 1165984, Note_off_c, 0, 69, 60
1, 1166007, Note_on_c, 0, 81, 80
1, 1166015, Note_off_c, 0, 75, 64
1, 1166059, Note_off_c, 0, 81, 64
1, 1166089, Note_on_c, 0, 67, 94
1, 1166104, Note_on_c, 0, 75, 87
1, 1166116, Control_c, 0, 64, 49
1, 1166126, Note_on_c, 0, 70, 48
1, 1166130, Control_c, 0, 64, 74
1, 1166145, Control_c, 0, 64, 87
1, 1166151, Note_off_c, 0, 70, 60
1, 1166160, Control_c, 0, 64, 98
1, 1166175, Control_c, 0, 64, 102
1, 1166184, Note_on_c, 0, 82, 79
1, 1166185, Note_off_c, 0, 75, 61
1, 1166190, Control_c, 0, 64, 111
1, 1166199, Note_off_c, 0, 67, 58
1, 1166205, Control_c, 0, 64, 127
1, 1166253, Note_off_c, 0, 82, 60
1, 1166266, Note_on_c, 0, 70, 57
1, 1166270, Note_on_c, 0, 75, 78
1, 1166282, Note_on_c, 0, 55, 70
1, 1166302, Note_off_c, 0, 70, 64
1, 1166309, Control_c, 0, 64, 99
1, 1166312, Note_off_c, 0, 55, 62
1, 1166323, Note_off_c, 0, 75, 55
1, 1166324, Control_c, 0, 64, 59
1, 1166339, Control_c, 0, 64, 0
1, 1166350, Note_on_c, 0, 81, 71
1, 1166407, Note_off_c, 0, 81, 61
1, 1166424, Note_on_c, 0, 55, 65
1, 1166426, Note_on_c, 0, 75, 75
1, 1166429, Note_on_c, 0, 70, 65
1, 1166462, Note_off_c, 0, 55, 63
1, 1166463, Note_off_c, 0, 70, 61
1, 1166482, Note_off_c, 0, 75, 59
1, 1166505, Note_on_c, 0, 79, 69
1, 1166581, Note_on_c, 0, 58, 81
1, 1166587, Note_on_c, 0, 74, 81
1, 1166595, Note_on_c, 0, 68, 72
1, 1166602, Note_off_c, 0, 79, 62
1, 1166605, Note_off_c, 0, 58, 69
1, 1166605, Control_c, 0, 64, 59
1, 1166619, Note_off_c, 0, 68, 69
1, 1166620, Control_c, 0, 64, 79
1, 1166635, Control_c, 0, 64, 86
1, 1166640, Note_off_c, 0, 74, 61
1, 1166650, Control_c, 0, 64, 85
1, 1166664, Control_c, 0, 64, 82
1, 1166679, Control_c, 0, 64, 77
1, 1166687, Note_on_c, 0, 77, 64
1, 1166701, Control_c, 0, 64, 63
1, 1166716, Control_c, 0, 64, 0
1, 1166763, Note_on_c, 0, 46, 82
1, 1166766, Note_off_c, 0, 77, 62
1, 1166767, Note_on_c, 0, 74, 80
1, 1166782, Note_on_c, 0, 68, 60
1, 1166791, Note_off_c, 0, 46, 67
1, 1166803, Note_off_c, 0, 68, 65
1, 1166808, Note_on_c, 0, 48, 15
1, 1166820, Note_off_c, 0, 74, 62
1, 1166849, Note_on_c, 0, 77, 80
1, 1166854, Note_on_c, 0, 45, 86
1, 1166859, Note_off_c, 0, 48, 52
1, 1166882, Note_off_c, 0, 45, 66
1, 1166921, Note_on_c, 0, 68, 59
1, 1166923, Note_off_c, 0, 77, 59
1, 1166926, Note_on_c, 0, 74, 81
1, 1166927, Note_on_c, 0, 46, 96
1, 1166957, Note_off_c, 0, 68, 65
1, 1166964, Note_off_c, 0, 46, 67
1, 1166988, Note_off_c, 0, 74, 56
1, 1167015, Note_on_c, 0, 77, 79
1, 1167102, Note_on_c, 0, 51, 85
1, 1167105, Note_on_c, 0, 75, 77
1, 1167115, Note_on_c, 0, 67, 63
1, 1167127, Note_off_c, 0, 51, 68
1, 1167139, Note_off_c, 0, 77, 27
1, 1167142, Note_off_c, 0, 67, 65
1, 1167162, Control_c, 0, 64, 50
1, 1167169, Note_off_c, 0, 75, 56
1, 1167176, Control_c, 0, 64, 59
1, 1167197, Note_on_c, 0, 79, 66
1, 1167221, Control_c, 0, 64, 59
1, 1167236, Control_c, 0, 64, 60
1, 1167250, Control_c, 0, 64, 59
1, 1167265, Control_c, 0, 64, 52
1, 1167268, Note_off_c, 0, 79, 54
1, 1167272, Note_on_c, 0, 39, 58
1, 1167280, Control_c, 0, 64, 37
1, 1167281, Note_on_c, 0, 75, 76
1, 1167295, Control_c, 0, 64, 0
1, 1167308, Note_off_c, 0, 39, 59
1, 1167311, Note_on_c, 0, 67, 41
1, 1167335, Note_off_c, 0, 75, 55
1, 1167341, Note_off_c, 0, 67, 51
1, 1167371, Note_on_c, 0, 79, 74
1, 1167375, Note_on_c, 0, 38, 59
1, 1167407, Note_off_c, 0, 38, 64
1, 1167442, Note_off_c, 0, 79, 50
1, 1167442, Control_c, 0, 64, 28
1, 1167465, Note_on_c, 0, 39, 72
1, 1167465, Note_on_c, 0, 75, 72
1, 1167465, Control_c, 0, 64, 53
1, 1167475, Note_on_c, 0, 67, 49
1, 1167480, Control_c, 0, 64, 70
1, 1167490, Note_off_c, 0, 75, 67
1, 1167493, Note_off_c, 0, 39, 65
1, 1167495, Control_c, 0, 64, 86
1, 1167500, Note_off_c, 0, 67, 57
1, 1167509, Control_c, 0, 64, 127
1, 1167672, Note_on_c, 0, 66, 60
1, 1167672, Control_c, 0, 64, 76
1, 1167687, Control_c, 0, 64, 43
1, 1167695, Note_on_c, 0, 82, 76
1, 1167698, Note_on_c, 0, 63, 59
1, 1167702, Control_c, 0, 64, 0
1, 1167718, Note_off_c, 0, 82, 66
1, 1167730, Note_off_c, 0, 66, 63
1, 1167731, Note_off_c, 0, 63, 63
1, 1167827, Note_on_c, 0, 70, 58
1, 1167862, Note_off_c, 0, 70, 62
1, 1167869, Note_on_c, 0, 80, 50
1, 1167875, Note_on_c, 0, 63, 64
1, 1167886, Note_on_c, 0, 67, 55
1, 1167889, Note_on_c, 0, 79, 69
1, 1167890, Note_off_c, 0, 80, 62
1, 1167914, Note_off_c, 0, 63, 59
1, 1167922, Note_off_c, 0, 79, 53
1, 1167946, Note_off_c, 0, 67, 59
1, 1167956, Note_on_c, 0, 70, 67
1, 1167961, Note_on_c, 0, 77, 68
1, 1167985, Note_off_c, 0, 77, 67
1, 1167991, Note_off_c, 0, 70, 57
1, 1168036, Note_on_c, 0, 79, 75
1, 1168043, Note_on_c, 0, 63, 59
1, 1168059, Note_on_c, 0, 67, 52
1, 1168083, Note_off_c, 0, 63, 62
1, 1168108, Note_off_c, 0, 67, 51
1, 1168121, Note_on_c, 0, 70, 66
1, 1168161, Note_off_c, 0, 79, 62
1, 1168169, Note_off_c, 0, 70, 59
1, 1168206, Note_on_c, 0, 82, 82
1, 1168212, Note_on_c, 0, 62, 67
1, 1168212, Note_on_c, 0, 65, 63
1, 1168212, Control_c, 0, 64, 41
1, 1168227, Control_c, 0, 64, 55
1, 1168242, Control_c, 0, 64, 55
1, 1168243, Note_off_c, 0, 62, 66
1, 1168249, Note_off_c, 0, 82, 60
1, 1168256, Control_c, 0, 64, 54
1, 1168257, Note_off_c, 0, 65, 58
1, 1168271, Control_c, 0, 64, 52
1, 1168277, Note_on_c, 0, 70, 71
1, 1168340, Note_off_c, 0, 70, 59
1, 1168356, Note_on_c, 0, 79, 60
1, 1168359, Note_on_c, 0, 62, 66
1, 1168375, Note_on_c, 0, 65, 60
1, 1168375, Control_c, 0, 64, 52
1, 1168396, Note_on_c, 0, 77, 78
1, 1168399, Note_off_c, 0, 62, 61
1, 1168402, Note_off_c, 0, 79, 57
1, 1168433, Note_off_c, 0, 65, 60
1, 1168435, Note_on_c, 0, 70, 74
1, 1168449, Control_c, 0, 64, 53
1, 1168450, Note_off_c, 0, 77, 62
1, 1168464, Control_c, 0, 64, 55
1, 1168473, Note_on_c, 0, 76, 74
1, 1168479, Control_c, 0, 64, 56
1, 1168487, Note_off_c, 0, 70, 61
1, 1168494, Control_c, 0, 64, 54
1, 1168509, Control_c, 0, 64, 47
1, 1168523, Control_c, 0, 64, 38
1, 1168528, Note_on_c, 0, 61, 67
1, 1168533, Note_on_c, 0, 65, 65
1, 1168539, Control_c, 0, 64, 31
1, 1168540, Note_off_c, 0, 76, 35
1, 1168541, Note_on_c, 0, 77, 79
1, 1168560, Note_off_c, 0, 77, 73
1, 1168563, Note_off_c, 0, 61, 66
1, 1168589, Note_off_c, 0, 65, 56
1, 1168593, Note_on_c, 0, 70, 72
1, 1168651, Note_off_c, 0, 70, 56
1, 1168673, Control_c, 0, 64, 28
1, 1168707, Note_on_c, 0, 60, 57
1, 1168712, Note_on_c, 0, 65, 47
1, 1168715, Note_on_c, 0, 84, 70
1, 1168733, Control_c, 0, 64, 34
1, 1168747, Control_c, 0, 64, 45
1, 1168762, Control_c, 0, 64, 58
1, 1168766, Note_off_c, 0, 60, 57
1, 1168777, Control_c, 0, 64, 68
1, 1168790, Note_on_c, 0, 68, 69
1, 1168792, Control_c, 0, 64, 74
1, 1168793, Note_off_c, 0, 65, 61
1, 1168807, Control_c, 0, 64, 79
1, 1168821, Control_c, 0, 64, 81
1, 1168836, Control_c, 0, 64, 84
1, 1168851, Control_c, 0, 64, 91
1, 1168856, Note_off_c, 0, 68, 58
1, 1168866, Control_c, 0, 64, 109
1, 1168870, Note_on_c, 0, 60, 75
1, 1168870, Note_on_c, 0, 82, 81
1, 1168879, Note_on_c, 0, 65, 68
1, 1168880, Control_c, 0, 64, 127
1, 1168906, Note_off_c, 0, 84, 60
1, 1168919, Note_off_c, 0, 60, 58
1, 1168955, Note_on_c, 0, 68, 79
1, 1168957, Note_off_c, 0, 65, 60
1, 1168962, Note_on_c, 0, 80, 76
1, 1169025, Note_off_c, 0, 82, 56
1, 1169025, Note_on_c, 0, 79, 81
1, 1169028, Note_off_c, 0, 68, 61
1, 1169040, Note_on_c, 0, 65, 74
1, 1169043, Note_on_c, 0, 60, 73
1, 1169059, Note_off_c, 0, 80, 62
1, 1169115, Note_off_c, 0, 79, 61
1, 1169123, Note_on_c, 0, 68, 80
1, 1169124, Note_on_c, 0, 77, 80
1, 1169127, Note_off_c, 0, 60, 64
1, 1169149, Note_off_c, 0, 65, 60
1, 1169155, Note_off_c, 0, 77, 61
1, 1169177, Note_off_c, 0, 68, 62
1, 1169225, Note_on_c, 0, 64, 65
1, 1169228, Control_c, 0, 64, 89
1, 1169232, Note_on_c, 0, 84, 78
1, 1169243, Control_c, 0, 64, 67
1, 1169247, Note_on_c, 0, 60, 54
1, 1169258, Control_c, 0, 64, 46
1, 1169273, Control_c, 0, 64, 0
1, 1169303, Note_off_c, 0, 60, 57
1, 1169309, Note_off_c, 0, 64, 61
1, 1169311, Note_on_c, 0, 67, 71
1, 1169317, Control_c, 0, 64, 39
1, 1169332, Control_c, 0, 64, 56
1, 1169347, Control_c, 0, 64, 69
1, 1169362, Control_c, 0, 64, 80
1, 1169366, Note_off_c, 0, 67, 47
1, 1169377, Control_c, 0, 64, 90
1, 1169390, Note_off_c, 0, 84, 61
1, 1169392, Control_c, 0, 64, 94
1, 1169407, Control_c, 0, 64, 98
1, 1169418, Note_on_c, 0, 64, 62
1, 1169421, Note_on_c, 0, 72, 57
1, 1169422, Control_c, 0, 64, 104
1, 1169431, Note_on_c, 0, 60, 43
1, 1169437, Control_c, 0, 64, 117
1, 1169452, Control_c, 0, 64, 127
1, 1169456, Note_off_c, 0, 72, 57
1, 1169466, Note_off_c, 0, 64, 61
1, 1169476, Note_off_c, 0, 60, 57
1, 1169498, Note_on_c, 0, 67, 62
1, 1169541, Note_off_c, 0, 67, 48
1, 1169587, Note_on_c, 0, 72, 62
1, 1169596, Note_on_c, 0, 60, 45
1, 1169598, Note_on_c, 0, 64, 49
1, 1169621, Note_off_c, 0, 72, 61
1, 1169658, Note_off_c, 0, 64, 63
1, 1169662, Note_off_c, 0, 60, 60
1, 1169673, Note_on_c, 0, 67, 51
1, 1169707, Note_off_c, 0, 67, 56
1, 1169858, Note_on_c, 0, 60, 54
1, 1169863, Note_on_c, 0, 56, 42
1, 1169867, Note_on_c, 0, 72, 48
1, 1169899, Note_on_c, 0, 68, 16
1, 1169918, Control_c, 0, 64, 95
1, 1169933, Control_c, 0, 64, 77
1, 1169947, Note_off_c, 0, 68, 47
1, 1169948, Control_c, 0, 64, 65
1, 1169949, Note_off_c, 0, 72, 59
1, 1169963, Control_c, 0, 64, 53
1, 1169964, Note_on_c, 0, 75, 62
1, 1169977, Control_c, 0, 64, 41
1, 1169992, Control_c, 0, 64, 33
1, 1170007, Control_c, 0, 64, 29
1, 1170021, Control_c, 0, 64, 0
1, 1170045, Note_off_c, 0, 75, 61
1, 1170049, Note_on_c, 0, 61, 77
1, 1170051, Note_on_c, 0, 72, 71
1, 1170059, Note_on_c, 0, 68, 50
1, 1170097, Note_off_c, 0, 60, 61
1, 1170100, Note_off_c, 0, 68, 57
1, 1170134, Note_off_c, 0, 72, 59
1, 1170137, Note_on_c, 0, 75, 79
1, 1170200, Control_c, 0, 64, 34
1, 1170215, Control_c, 0, 64, 47
1, 1170216, Note_off_c, 0, 75, 61
1, 1170219, Note_on_c, 0, 72, 73
1, 1170225, Note_on_c, 0, 60, 72
1, 1170226, Note_on_c, 0, 68, 61
1, 1170230, Control_c, 0, 64, 54
1, 1170245, Control_c, 0, 64, 56
1, 1170259, Control_c, 0, 64, 58
1, 1170267, Note_off_c, 0, 56, 64
1, 1170272, Note_off_c, 0, 61, 65
1, 1170274, Control_c, 0, 64, 62
1, 1170289, Control_c, 0, 64, 65
1, 1170294, Note_on_c, 0, 75, 76
1, 1170304, Control_c, 0, 64, 70
1, 1170316, Note_off_c, 0, 72, 59
1, 1170319, Control_c, 0, 64, 73
1, 1170334, Control_c, 0, 64, 74
1, 1170349, Control_c, 0, 64, 73
1, 1170357, Note_off_c, 0, 68, 23
1, 1170364, Control_c, 0, 64, 66
1, 1170379, Control_c, 0, 64, 48
1, 1170389, Note_on_c, 0, 77, 73
1, 1170393, Control_c, 0, 64, 0
1, 1170396, Note_on_c, 0, 58, 77
1, 1170396, Note_off_c, 0, 60, 62
1, 1170406, Note_on_c, 0, 49, 69
1, 1170426, Note_off_c, 0, 75, 59
1, 1170473, Note_on_c, 0, 80, 79
1, 1170483, Note_off_c, 0, 77, 63
1, 1170563, Note_on_c, 0, 77, 68
1, 1170566, Note_off_c, 0, 80, 61
1, 1170570, Note_on_c, 0, 53, 80
1, 1170570, Note_on_c, 0, 68, 50
1, 1170605, Note_off_c, 0, 68, 58
1, 1170632, Note_off_c, 0, 58, 50
1, 1170651, Note_on_c, 0, 80, 79
1, 1170668, Note_off_c, 0, 77, 61
1, 1170723, Note_on_c, 0, 55, 74
1, 1170733, Note_off_c, 0, 53, 61
1, 1170742, Note_off_c, 0, 80, 61
1, 1170750, Note_on_c, 0, 77, 63
1, 1170761, Note_off_c, 0, 49, 64
1, 1170822, Note_on_c, 0, 80, 65
1, 1170854, Note_off_c, 0, 77, 63
1, 1170887, Note_on_c, 0, 58, 54
1, 1170909, Note_off_c, 0, 80, 63
1, 1170914, Note_on_c, 0, 72, 56
1, 1170924, Note_off_c, 0, 58, 53
1, 1170925, Note_on_c, 0, 51, 55
1, 1170929, Note_off_c, 0, 55, 61
1, 1170945, Note_on_c, 0, 56, 61
1, 1171001, Note_off_c, 0, 72, 46
1, 1171008, Note_on_c, 0, 75, 64
1, 1171103, Note_off_c, 0, 75, 56
1, 1171112, Note_on_c, 0, 72, 43
1, 1171121, Note_off_c, 0, 56, 63
1, 1171136, Note_on_c, 0, 55, 53
1, 1171163, Poly_aftertouch_c, 0, 68, 127
1, 1171177, Note_off_c, 0, 72, 50
1, 1171198, Poly_aftertouch_c, 0, 68, 0
1, 1171218, Note_on_c, 0, 75, 63
1, 1171270, Note_off_c, 0, 75, 46
1, 1171292, Note_on_c, 0, 56, 52
1, 1171300, Note_on_c, 0, 72, 56
1, 1171308, Note_on_c, 0, 68, 36
1, 1171312, Note_off_c, 0, 51, 62
1, 1171347, Note_off_c, 0, 68, 47
1, 1171355, Note_off_c, 0, 55, 39
1, 1171368, Note_off_c, 0, 72, 40
1, 1171383, Note_on_c, 0, 75, 75
1, 1171446, Note_on_c, 0, 58, 66
1, 1171452, Note_on_c, 0, 51, 58
1, 1171467, Note_on_c, 0, 73, 71
1, 1171479, Note_off_c, 0, 75, 59
1, 1171480, Note_off_c, 0, 56, 62
1, 1171483, Note_on_c, 0, 67, 57
1, 1171506, Note_off_c, 0, 67, 64
1, 1171546, Note_on_c, 0, 75, 80
1, 1171556, Note_off_c, 0, 73, 56
1, 1171607, Note_off_c, 0, 75, 54
1, 1171644, Note_on_c, 0, 73, 75
1, 1171654, Note_on_c, 0, 67, 48
1, 1171686, Note_off_c, 0, 67, 63
1, 1171711, Control_c, 0, 64, 33
1, 1171720, Note_on_c, 0, 75, 85
1, 1171725, Note_off_c, 0, 73, 59
1, 1171726, Control_c, 0, 64, 53
1, 1171741, Control_c, 0, 64, 63
1, 1171756, Control_c, 0, 64, 64
1, 1171771, Control_c, 0, 64, 65
1, 1171786, Control_c, 0, 64, 67
1, 1171801, Control_c, 0, 64, 72
1, 1171807, Note_off_c, 0, 75, 60
1, 1171810, Note_on_c, 0, 73, 73
1, 1171816, Control_c, 0, 64, 81
1, 1171827, Note_on_c, 0, 67, 50
1, 1171830, Note_off_c, 0, 51, 60
1, 1171831, Control_c, 0, 64, 102
1, 1171833, Note_on_c, 0, 59, 67
1, 1171845, Control_c, 0, 64, 127
1, 1171852, Note_off_c, 0, 67, 57
1, 1171857, Note_off_c, 0, 58, 62
1, 1171879, Note_on_c, 0, 75, 83
1, 1171884, Note_off_c, 0, 59, 58
1, 1171895, Note_off_c, 0, 73, 62
1, 1171921, Note_off_c, 0, 75, 61
1, 1171964, Note_on_c, 0, 75, 88
1, 1171969, Note_on_c, 0, 60, 78
1, 1171970, Note_on_c, 0, 56, 73
1, 1171971, Control_c, 0, 64, 70
1, 1171972, Note_on_c, 0, 72, 85
1, 1171976, Note_on_c, 0, 68, 72
1, 1171986, Control_c, 0, 64, 0
1, 1171991, Note_off_c, 0, 68, 67
1, 1171991, Note_off_c, 0, 72, 72
1, 1172001, Note_off_c, 0, 75, 58
1, 1172003, Note_off_c, 0, 56, 66
1, 1172042, Note_off_c, 0, 60, 63
1, 1172061, Note_on_c, 0, 63, 72
1, 1172120, Note_off_c, 0, 63, 57
1, 1172148, Note_on_c, 0, 73, 62
1, 1172155, Note_on_c, 0, 60, 64
1, 1172162, Note_on_c, 0, 56, 56
1, 1172168, Note_on_c, 0, 72, 78
1, 1172173, Note_off_c, 0, 73, 67
1, 1172203, Note_off_c, 0, 56, 61
1, 1172219, Note_off_c, 0, 72, 59
1, 1172226, Note_off_c, 0, 60, 60
1, 1172232, Note_on_c, 0, 63, 66
1, 1172234, Note_on_c, 0, 70, 80
1, 1172272, Note_off_c, 0, 70, 66
1, 1172305, Note_off_c, 0, 63, 59
1, 1172313, Note_on_c, 0, 72, 91
1, 1172334, Note_on_c, 0, 60, 62
1, 1172337, Note_on_c, 0, 56, 54
1, 1172375, Note_off_c, 0, 56, 62
1, 1172413, Note_off_c, 0, 60, 60
1, 1172415, Note_on_c, 0, 63, 68
1, 1172459, Note_off_c, 0, 63, 59
1, 1172491, Note_on_c, 0, 75, 90
1, 1172493, Note_on_c, 0, 55, 74
1, 1172494, Note_off_c, 0, 72, 45
1, 1172506, Note_on_c, 0, 58, 55
1, 1172520, Control_c, 0, 64, 62
1, 1172533, Note_off_c, 0, 75, 66
1, 1172535, Control_c, 0, 64, 82
1, 1172538, Note_off_c, 0, 58, 63
1, 1172543, Note_off_c, 0, 55, 60
1, 1172550, Control_c, 0, 64, 98
1, 1172567, Note_on_c, 0, 63, 71
1, 1172630, Note_off_c, 0, 63, 56
1, 1172647, Note_on_c, 0, 58, 63
1, 1172647, Note_on_c, 0, 72, 74
1, 1172651, Note_on_c, 0, 55, 68
1, 1172676, Note_off_c, 0, 72, 63
1, 1172683, Note_on_c, 0, 70, 83
1, 1172684, Control_c, 0, 64, 96
1, 1172716, Note_off_c, 0, 55, 58
1, 1172735, Note_on_c, 0, 63, 80
1, 1172738, Note_off_c, 0, 58, 61
1, 1172748, Note_off_c, 0, 70, 65
1, 1172761, Note_on_c, 0, 69, 79
1, 1172781, Control_c, 0, 64, 92
1, 1172787, Note_off_c, 0, 63, 60
1, 1172795, Control_c, 0, 64, 72
1, 1172810, Control_c, 0, 64, 43
1, 1172825, Control_c, 0, 64, 0
1, 1172826, Note_on_c, 0, 70, 90
1, 1172832, Note_on_c, 0, 58, 79
1, 1172833, Note_off_c, 0, 69, 62
1, 1172841, Note_on_c, 0, 54, 64
1, 1172858, Note_off_c, 0, 70, 67
1, 1172872, Note_off_c, 0, 54, 59
1, 1172897, Note_off_c, 0, 58, 63
1, 1172902, Note_on_c, 0, 63, 73
1, 1172960, Note_off_c, 0, 63, 62
1, 1173003, Note_on_c, 0, 53, 72
1, 1173005, Note_on_c, 0, 58, 71
1, 1173005, Note_on_c, 0, 77, 88
1, 1173076, Control_c, 0, 64, 47
1, 1173088, Note_on_c, 0, 61, 81
1, 1173091, Note_off_c, 0, 58, 63
1, 1173091, Note_off_c, 0, 53, 62
1, 1173091, Control_c, 0, 64, 59
1, 1173121, Control_c, 0, 64, 56
1, 1173136, Control_c, 0, 64, 51
1, 1173151, Control_c, 0, 64, 50
1, 1173152, Note_off_c, 0, 61, 51
1, 1173166, Control_c, 0, 64, 44
1, 1173172, Note_on_c, 0, 75, 84
1, 1173178, Note_on_c, 0, 58, 78
1, 1173181, Control_c, 0, 64, 30
1, 1173181, Note_on_c, 0, 53, 69
1, 1173195, Control_c, 0, 64, 0
1, 1173212, Note_off_c, 0, 77, 56
1, 1173246, Note_off_c, 0, 58, 63
1, 1173248, Note_on_c, 0, 61, 86
1, 1173252, Note_on_c, 0, 73, 87
1, 1173269, Note_off_c, 0, 53, 43
1, 1173290, Note_off_c, 0, 75, 63
1, 1173321, Note_off_c, 0, 73, 62
1, 1173334, Note_off_c, 0, 61, 63
1, 1173340, Note_on_c, 0, 72, 89
1, 1173342, Note_on_c, 0, 58, 75
1, 1173342, Note_on_c, 0, 53, 59
1, 1173393, Note_off_c, 0, 72, 63
1, 1173404, Note_off_c, 0, 58, 65
1, 1173419, Note_on_c, 0, 61, 81
1, 1173425, Note_on_c, 0, 70, 71
1, 1173425, Note_off_c, 0, 53, 56
1, 1173457, Note_off_c, 0, 70, 70
1, 1173480, Note_off_c, 0, 61, 58
1, 1173512, Note_on_c, 0, 58, 74
1, 1173532, Note_on_c, 0, 77, 73
1, 1173541, Note_on_c, 0, 53, 46
1, 1173584, Note_off_c, 0, 53, 48
1, 1173604, Note_off_c, 0, 58, 53
1, 1173626, Note_on_c, 0, 60, 59
1, 1173693, Note_off_c, 0, 77, 61
1, 1173698, Note_off_c, 0, 60, 49
1, 1173729, Note_on_c, 0, 57, 52
1, 1173734, Note_on_c, 0, 65, 46
1, 1173747, Note_on_c, 0, 53, 28
1, 1173778, Note_off_c, 0, 57, 61
1, 1173789, Note_off_c, 0, 53, 48
1, 1173791, Note_off_c, 0, 65, 48
1, 1173818, Note_on_c, 0, 60, 51
1, 1173840, Control_c, 0, 64, 42
1, 1173851, Note_off_c, 0, 60, 57
1, 1173855, Control_c, 0, 64, 57
1, 1173869, Control_c, 0, 64, 64
1, 1173884, Control_c, 0, 64, 68
1, 1173899, Control_c, 0, 64, 70
1, 1173914, Note_on_c, 0, 53, 45
1, 1173914, Control_c, 0, 64, 72
1, 1173917, Note_on_c, 0, 65, 49
1, 1173926, Note_on_c, 0, 57, 53
1, 1173929, Control_c, 0, 64, 76
1, 1173943, Note_off_c, 0, 65, 63
1, 1173944, Control_c, 0, 64, 82
1, 1173959, Control_c, 0, 64, 88
1, 1173962, Note_off_c, 0, 53, 54
1, 1173974, Control_c, 0, 64, 95
1, 1173988, Control_c, 0, 64, 102
1, 1173991, Note_off_c, 0, 57, 59
1, 1174003, Control_c, 0, 64, 110
1, 1174017, Note_on_c, 0, 60, 48
1, 1174018, Control_c, 0, 64, 127
1, 1174042, Note_off_c, 0, 60, 59
1, 1174215, Note_on_c, 0, 65, 43
1, 1174225, Note_on_c, 0, 77, 46
1, 1174229, Note_on_c, 0, 61, 45
1, 1174248, Control_c, 0, 64, 103
1, 1174263, Control_c, 0, 64, 83
1, 1174278, Control_c, 0, 64, 71
1, 1174293, Control_c, 0, 64, 62
1, 1174299, Note_off_c, 0, 77, 61
1, 1174307, Control_c, 0, 64, 56
1, 1174310, Note_on_c, 0, 80, 60
1, 1174322, Control_c, 0, 64, 51
1, 1174337, Control_c, 0, 64, 49
1, 1174352, Control_c, 0, 64, 48
1, 1174397, Control_c, 0, 64, 48
1, 1174403, Note_on_c, 0, 77, 68
1, 1174408, Note_on_c, 0, 66, 78
1, 1174408, Note_off_c, 0, 80, 57
1, 1174412, Control_c, 0, 64, 47
1, 1174415, Note_on_c, 0, 73, 47
1, 1174426, Control_c, 0, 64, 47
1, 1174461, Note_off_c, 0, 65, 58
1, 1174465, Note_off_c, 0, 73, 55
1, 1174486, Note_off_c, 0, 77, 63
1, 1174486, Control_c, 0, 64, 46
1, 1174487, Note_on_c, 0, 80, 79
1, 1174500, Control_c, 0, 64, 45
1, 1174515, Control_c, 0, 64, 45
1, 1174545, Control_c, 0, 64, 44
1, 1174560, Note_off_c, 0, 80, 62
1, 1174560, Control_c, 0, 64, 42
1, 1174562, Note_on_c, 0, 77, 79
1, 1174570, Note_on_c, 0, 73, 65
1, 1174574, Control_c, 0, 64, 40
1, 1174579, Note_on_c, 0, 65, 76
1, 1174589, Control_c, 0, 64, 39
1, 1174623, Note_off_c, 0, 66, 65
1, 1174633, Control_c, 0, 64, 38
1, 1174634, Note_off_c, 0, 61, 65
1, 1174648, Note_on_c, 0, 80, 81
1, 1174648, Control_c, 0, 64, 36
1, 1174657, Note_off_c, 0, 73, 47
1, 1174663, Control_c, 0, 64, 32
1, 1174668, Note_off_c, 0, 77, 62
1, 1174722, Note_on_c, 0, 82, 76
1, 1174722, Control_c, 0, 64, 30
1, 1174738, Note_off_c, 0, 65, 60
1, 1174746, Note_on_c, 0, 63, 76
1, 1174747, Note_off_c, 0, 80, 61
1, 1174768, Note_on_c, 0, 54, 53
1, 1174781, Control_c, 0, 64, 33
1, 1174805, Note_on_c, 0, 85, 81
1, 1174814, Note_off_c, 0, 82, 57
1, 1174856, Control_c, 0, 64, 33
1, 1174906, Note_on_c, 0, 82, 72
1, 1174910, Note_off_c, 0, 85, 61
1, 1174915, Control_c, 0, 64, 34
1, 1174916, Note_off_c, 0, 63, 61
1, 1174930, Control_c, 0, 64, 36
1, 1174951, Note_on_c, 0, 73, 41
1, 1174952, Note_on_c, 0, 58, 51
1, 1174981, Note_off_c, 0, 73, 56
1, 1174997, Control_c, 0, 64, 36
1, 1175006, Note_off_c, 0, 82, 61
1, 1175012, Control_c, 0, 64, 37
1, 1175014, Note_on_c, 0, 85, 72
1, 1175056, Control_c, 0, 64, 36
1, 1175114, Note_on_c, 0, 82, 67
1, 1175115, Note_on_c, 0, 60, 59
1, 1175115, Control_c, 0, 64, 36
1, 1175122, Note_off_c, 0, 85, 55
1, 1175130, Control_c, 0, 64, 35
1, 1175145, Control_c, 0, 64, 34
1, 1175148, Note_off_c, 0, 58, 64
1, 1175171, Note_off_c, 0, 54, 60
1, 1175190, Control_c, 0, 64, 31
1, 1175205, Control_c, 0, 64, 0
1, 1175211, Note_on_c, 0, 85, 43
1, 1175227, Note_off_c, 0, 82, 54
1, 1175264, Note_on_c, 0, 63, 61
1, 1175264, Note_on_c, 0, 77, 65
1, 1175272, Note_on_c, 0, 56, 79
1, 1175290, Note_off_c, 0, 85, 64
1, 1175297, Note_on_c, 0, 61, 77
1, 1175300, Note_on_c, 0, 73, 30
1, 1175305, Note_off_c, 0, 63, 63
1, 1175313, Note_off_c, 0, 60, 63
1, 1175333, Note_off_c, 0, 73, 44
1, 1175361, Note_off_c, 0, 77, 50
1, 1175363, Note_on_c, 0, 80, 60
1, 1175446, Note_off_c, 0, 80, 61
1, 1175457, Note_on_c, 0, 77, 59
1, 1175478, Note_on_c, 0, 60, 64
1, 1175506, Note_off_c, 0, 61, 64
1, 1175527, Poly_aftertouch_c, 0, 73, 0
1, 1175547, Note_off_c, 0, 77, 51
1, 1175549, Note_on_c, 0, 80, 67
1, 1175629, Note_off_c, 0, 80, 59
1, 1175635, Note_on_c, 0, 61, 66
1, 1175638, Note_on_c, 0, 73, 51
1, 1175640, Note_on_c, 0, 77, 56
1, 1175676, Note_off_c, 0, 73, 60
1, 1175709, Note_off_c, 0, 56, 61
1, 1175718, Note_off_c, 0, 60, 48
1, 1175729, Note_off_c, 0, 77, 61
1, 1175734, Note_on_c, 0, 80, 72
1, 1175813, Note_on_c, 0, 63, 70
1, 1175815, Note_off_c, 0, 80, 55
1, 1175816, Note_on_c, 0, 56, 70
1, 1175823, Note_on_c, 0, 78, 76
1, 1175837, Note_off_c, 0, 61, 64
1, 1175845, Note_on_c, 0, 72, 45
1, 1175869, Note_off_c, 0, 72, 56
1, 1175881, Note_off_c, 0, 78, 58
1, 1175906, Note_on_c, 0, 80, 82
1, 1175962, Note_off_c, 0, 80, 58
1, 1175998, Note_on_c, 0, 78, 69
1, 1176004, Note_on_c, 0, 72, 46
1, 1176049, Note_off_c, 0, 72, 54
1, 1176069, Note_on_c, 0, 80, 80
1, 1176074, Note_off_c, 0, 78, 40
1, 1176122, Note_off_c, 0, 80, 63
1, 1176160, Note_on_c, 0, 78, 81
1, 1176182, Note_on_c, 0, 64, 65
1, 1176184, Note_on_c, 0, 72, 39
1, 1176213, Note_off_c, 0, 78, 59
1, 1176214, Note_off_c, 0, 72, 49
1, 1176223, Note_off_c, 0, 63, 32
1, 1176253, Note_off_c, 0, 64, 64
1, 1176254, Note_on_c, 0, 80, 81
1, 1176259, Note_off_c, 0, 56, 59
1, 1176329, Note_on_c, 0, 77, 76
1, 1176330, Note_on_c, 0, 73, 69
1, 1176337, Note_off_c, 0, 80, 62
1, 1176341, Note_on_c, 0, 61, 74
1, 1176343, Note_on_c, 0, 65, 72
1, 1176346, Note_off_c, 0, 73, 68
1, 1176348, Note_off_c, 0, 77, 73
1, 1176363, Note_off_c, 0, 61, 68
1, 1176367, Note_off_c, 0, 65, 69
1, 1176540, Note_on_c, 0, 49, 62
1, 1176570, Note_off_c, 0, 49, 65
1, 1176714, Note_on_c, 0, 49, 54
1, 1176740, Note_off_c, 0, 49, 61
1, 1176903, Note_on_c, 0, 61, 69
1, 1176913, Note_on_c, 0, 65, 58
1, 1176928, Note_off_c, 0, 61, 67
1, 1176932, Note_off_c, 0, 65, 62
1, 1177091, Note_on_c, 0, 49, 63
1, 1177119, Note_off_c, 0, 49, 65
1, 1177271, Note_on_c, 0, 49, 59
1, 1177302, Note_off_c, 0, 49, 63
1, 1177414, Note_on_c, 0, 73, 63
1, 1177439, Note_on_c, 0, 77, 74
1, 1177449, Note_off_c, 0, 73, 59
1, 1177464, Note_on_c, 0, 61, 55
1, 1177472, Note_on_c, 0, 65, 44
1, 1177474, Note_on_c, 0, 80, 81
1, 1177475, Note_off_c, 0, 77, 63
1, 1177487, Note_off_c, 0, 61, 61
1, 1177494, Note_off_c, 0, 80, 69
1, 1177500, Note_off_c, 0, 65, 55
1, 1177699, Note_on_c, 0, 49, 49
1, 1177728, Note_off_c, 0, 49, 62
1, 1177766, Note_on_c, 0, 77, 57
1, 1177790, Note_off_c, 0, 77, 64
1, 1177833, Note_on_c, 0, 49, 60
1, 1177836, Note_on_c, 0, 75, 65
1, 1177866, Note_off_c, 0, 49, 63
1, 1177867, Note_off_c, 0, 75, 60
1, 1177912, Note_on_c, 0, 73, 70
1, 1177950, Note_off_c, 0, 73, 62
1, 1177980, Note_on_c, 0, 72, 73
1, 1178002, Note_off_c, 0, 72, 70
1, 1178006, Note_on_c, 0, 68, 73
1, 1178008, Note_on_c, 0, 61, 65
1, 1178013, Note_on_c, 0, 66, 62
1, 1178014, Note_on_c, 0, 75, 72
1, 1178028, Note_off_c, 0, 68, 69
1, 1178034, Note_off_c, 0, 66, 39
1, 1178037, Note_off_c, 0, 61, 65
1, 1178037, Note_off_c, 0, 75, 70
1, 1178205, Note_on_c, 0, 73, 54
1, 1178215, Note_on_c, 0, 49, 55
1, 1178235, Note_off_c, 0, 73, 66
1, 1178240, Note_off_c, 0, 49, 61
1, 1178263, Note_on_c, 0, 72, 70
1, 1178291, Note_off_c, 0, 72, 65
1, 1178344, Note_on_c, 0, 70, 62
1, 1178364, Note_on_c, 0, 49, 57
1, 1178372, Note_off_c, 0, 70, 65
1, 1178397, Note_off_c, 0, 49, 64
1, 1178430, Note_on_c, 0, 68, 54
1, 1178472, Note_off_c, 0, 68, 55
1, 1178473, Note_on_c, 0, 73, 73
1, 1178514, Note_on_c, 0, 61, 76
1, 1178521, Note_on_c, 0, 77, 75
1, 1178522, Note_on_c, 0, 65, 65
1, 1178529, Note_on_c, 0, 80, 90
1, 1178531, Note_off_c, 0, 73, 65
1, 1178536, Note_off_c, 0, 61, 70
1, 1178542, Note_off_c, 0, 77, 71
1, 1178549, Note_off_c, 0, 65, 64
1, 1178563, Note_off_c, 0, 80, 67
1, 1178713, Note_on_c, 0, 78, 78
1, 1178731, Note_on_c, 0, 49, 54
1, 1178756, Note_off_c, 0, 49, 61
1, 1178792, Note_on_c, 0, 77, 79
1, 1178832, Note_off_c, 0, 77, 64
1, 1178848, Note_off_c, 0, 78, 35
1, 1178871, Note_on_c, 0, 75, 83
1, 1178877, Note_on_c, 0, 49, 64
1, 1178895, Note_off_c, 0, 75, 65
1, 1178906, Note_off_c, 0, 49, 64
1, 1178945, Note_on_c, 0, 73, 79
1, 1178971, Note_off_c, 0, 73, 66
1, 1179023, Note_on_c, 0, 85, 95
1, 1179026, Note_on_c, 0, 82, 89
1, 1179032, Note_on_c, 0, 61, 72
1, 1179032, Note_on_c, 0, 66, 71
1, 1179036, Note_on_c, 0, 78, 76
1, 1179050, Note_off_c, 0, 66, 68
1, 1179053, Control_c, 0, 64, 33
1, 1179056, Note_off_c, 0, 61, 67
1, 1179056, Note_off_c, 0, 78, 68
1, 1179068, Note_off_c, 0, 85, 64
1, 1179068, Control_c, 0, 64, 65
1, 1179069, Note_off_c, 0, 82, 59
1, 1179083, Control_c, 0, 64, 86
1, 1179098, Control_c, 0, 64, 127
1, 1179098, Control_c, 0, 67, 71
1, 1179113, Control_c, 0, 67, 0
1, 1179222, Note_on_c, 0, 85, 68
1, 1179223, Note_on_c, 0, 82, 64
1, 1179229, Note_on_c, 0, 49, 58
1, 1179250, Note_on_c, 0, 78, 33
1, 1179250, Note_off_c, 0, 82, 67
1, 1179254, Note_off_c, 0, 49, 59
1, 1179255, Note_off_c, 0, 85, 62
1, 1179284, Note_off_c, 0, 78, 49
1, 1179397, Note_on_c, 0, 49, 65
1, 1179403, Note_on_c, 0, 85, 74
1, 1179409, Note_on_c, 0, 82, 63
1, 1179444, Note_off_c, 0, 82, 66
1, 1179450, Note_off_c, 0, 49, 59
1, 1179450, Note_off_c, 0, 85, 62
1, 1179469, Poly_aftertouch_c, 0, 78, 127
1, 1179506, Poly_aftertouch_c, 0, 78, 0
1, 1179592, Note_on_c, 0, 61, 80
1, 1179593, Note_on_c, 0, 66, 82
1, 1179595, Note_on_c, 0, 58, 79
1, 1179613, Note_off_c, 0, 66, 71
1, 1179614, Note_off_c, 0, 61, 70
1, 1179619, Note_off_c, 0, 58, 66
1, 1179638, Control_c, 0, 64, 77
1, 1179653, Control_c, 0, 64, 44
1, 1179668, Control_c, 0, 64, 0
1, 1179793, Note_on_c, 0, 49, 64
1, 1179823, Note_off_c, 0, 49, 64
1, 1179962, Note_on_c, 0, 49, 50
1, 1180000, Note_off_c, 0, 49, 62
1, 1180127, Control_c, 0, 67, 40
1, 1180141, Note_on_c, 0, 66, 61
1, 1180142, Control_c, 0, 67, 112
1, 1180145, Note_on_c, 0, 58, 58
1, 1180151, Note_on_c, 0, 61, 41
1, 1180156, Control_c, 0, 67, 127
1, 1180161, Note_off_c, 0, 66, 65
1, 1180182, Note_off_c, 0, 58, 65
1, 1180186, Note_off_c, 0, 61, 55
1, 1180336, Note_on_c, 0, 49, 58
1, 1180368, Note_off_c, 0, 49, 63
1, 1180505, Note_on_c, 0, 49, 49
1, 1180609, Note_off_c, 0, 49, 35
1, 1180711, Note_on_c, 0, 65, 52
1, 1180713, Control_c, 0, 64, 30
1, 1180720, Note_on_c, 0, 56, 46
1, 1180727, Control_c, 0, 64, 34
1, 1180742, Control_c, 0, 64, 36
1, 1180754, Note_on_c, 0, 61, 3
1, 1180757, Control_c, 0, 64, 41
1, 1180771, Control_c, 0, 64, 51
1, 1180786, Control_c, 0, 64, 60
1, 1180801, Control_c, 0, 64, 66
1, 1180812, Note_off_c, 0, 61, 49
1, 1180816, Control_c, 0, 64, 70
1, 1180831, Control_c, 0, 64, 73
1, 1180846, Control_c, 0, 64, 77
1, 1180860, Control_c, 0, 64, 83
1, 1180871, Note_on_c, 0, 68, 57
1, 1180875, Control_c, 0, 64, 91
1, 1180890, Control_c, 0, 64, 100
1, 1180905, Control_c, 0, 64, 108
1, 1180920, Control_c, 0, 64, 110
1, 1180930, Note_on_c, 0, 66, 57
1, 1180937, Note_on_c, 0, 49, 36
1, 1180955, Note_off_c, 0, 65, 35
1, 1180974, Note_off_c, 0, 49, 51
1, 1180995, Note_off_c, 0, 68, 37
1, 1180996, Note_off_c, 0, 56, 32
1, 1181080, Note_on_c, 0, 65, 58
1, 1181086, Note_on_c, 0, 49, 52
1, 1181095, Note_off_c, 0, 66, 62
1, 1181120, Control_c, 0, 64, 97
1, 1181129, Note_off_c, 0, 49, 59
1, 1181134, Control_c, 0, 64, 78
1, 1181149, Control_c, 0, 64, 59
1, 1181164, Control_c, 0, 64, 0
1, 1181263, Note_on_c, 0, 54, 41
1, 1181267, Note_on_c, 0, 58, 52
1, 1181267, Note_on_c, 0, 63, 64
1, 1181284, Note_off_c, 0, 65, 49
1, 1181291, Note_off_c, 0, 54, 55
1, 1181292, Note_off_c, 0, 58, 57
1, 1181412, Note_off_c, 0, 63, 61
1, 1181438, Note_on_c, 0, 42, 61
1, 1181441, Note_on_c, 0, 65, 63
1, 1181462, Note_off_c, 0, 42, 58
1, 1181483, Note_off_c, 0, 65, 59
1, 1181524, Note_on_c, 0, 66, 71
1, 1181551, Note_off_c, 0, 66, 67
1, 1181594, Note_on_c, 0, 42, 57
1, 1181605, Note_on_c, 0, 68, 72
1, 1181626, Note_off_c, 0, 42, 64
1, 1181630, Note_off_c, 0, 68, 66
1, 1181697, Note_on_c, 0, 70, 67
1, 1181775, Note_off_c, 0, 70, 59
1, 1181778, Note_on_c, 0, 63, 66
1, 1181779, Note_on_c, 0, 66, 70
1, 1181784, Note_on_c, 0, 72, 66
1, 1181796, Note_off_c, 0, 63, 64
1, 1181797, Note_off_c, 0, 66, 67
1, 1181831, Note_off_c, 0, 72, 0
1, 1181868, Poly_aftertouch_c, 0, 72, 127
1, 1181931, Poly_aftertouch_c, 0, 72, 0
1, 1181962, Note_on_c, 0, 70, 61
1, 1181965, Note_on_c, 0, 56, 62
1, 1181987, Note_off_c, 0, 56, 61
1, 1181990, Note_off_c, 0, 70, 66
1, 1182035, Note_on_c, 0, 72, 64
1, 1182063, Note_off_c, 0, 72, 64
1, 1182113, Note_on_c, 0, 73, 61
1, 1182136, Note_on_c, 0, 56, 59
1, 1182141, Note_off_c, 0, 73, 66
1, 1182169, Note_off_c, 0, 56, 63
1, 1182194, Note_on_c, 0, 75, 66
1, 1182221, Note_off_c, 0, 75, 67
1, 1182280, Note_on_c, 0, 77, 76
1, 1182290, Note_on_c, 0, 65, 56
1, 1182294, Note_on_c, 0, 61, 51
1, 1182299, Note_off_c, 0, 77, 71
1, 1182309, Note_off_c, 0, 65, 62
1, 1182317, Note_off_c, 0, 61, 60
1, 1182481, Note_on_c, 0, 77, 68
1, 1182491, Note_on_c, 0, 49, 51
1, 1182502, Note_off_c, 0, 77, 69
1, 1182517, Note_off_c, 0, 49, 58
1, 1182654, Note_on_c, 0, 49, 46
1, 1182679, Note_on_c, 0, 77, 35
1, 1182698, Note_off_c, 0, 49, 62
1, 1182712, Note_off_c, 0, 77, 32
1, 1182830, Note_on_c, 0, 61, 59
1, 1182842, Note_on_c, 0, 65, 39
1, 1182851, Note_off_c, 0, 61, 62
1, 1182873, Note_off_c, 0, 65, 33
1, 1183042, Note_on_c, 0, 49, 36
1, 1183077, Note_off_c, 0, 49, 53
1, 1183206, Note_on_c, 0, 49, 53
1, 1183244, Note_off_c, 0, 49, 64
1, 1183387, Note_on_c, 0, 65, 52
1, 1183392, Note_on_c, 0, 61, 45
1, 1183410, Note_off_c, 0, 65, 59
1, 1183420, Note_off_c, 0, 61, 56
1, 1183580, Note_on_c, 0, 49, 45
1, 1183614, Note_off_c, 0, 49, 63
1, 1183734, Note_on_c, 0, 49, 53
1, 1183767, Note_off_c, 0, 49, 64
1, 1183840, Note_on_c, 0, 73, 43
1, 1183870, Note_on_c, 0, 77, 61
1, 1183870, Note_off_c, 0, 73, 63
1, 1183900, Note_off_c, 0, 77, 65
1, 1183915, Note_on_c, 0, 65, 49
1, 1183916, Note_on_c, 0, 61, 47
1, 1183931, Note_on_c, 0, 80, 59
1, 1183948, Note_off_c, 0, 61, 58
1, 1183948, Note_off_c, 0, 65, 57
1, 1183949, Note_off_c, 0, 80, 64
1, 1184109, Note_on_c, 0, 78, 63
1, 1184137, Note_off_c, 0, 78, 66
1, 1184141, Note_on_c, 0, 49, 28
1, 1184178, Note_off_c, 0, 49, 44
1, 1184186, Note_on_c, 0, 77, 59
1, 1184213, Note_off_c, 0, 77, 66
1, 1184249, Note_on_c, 0, 49, 65
1, 1184254, Note_on_c, 0, 75, 66
1, 1184279, Note_off_c, 0, 49, 65
1, 1184282, Note_off_c, 0, 75, 66
1, 1184323, Note_on_c, 0, 73, 65
1, 1184359, Note_off_c, 0, 73, 60
1, 1184374, Note_on_c, 0, 72, 72
1, 1184401, Note_on_c, 0, 68, 70
1, 1184403, Note_off_c, 0, 72, 63
1, 1184407, Note_on_c, 0, 61, 60
1, 1184411, Note_on_c, 0, 66, 49
1, 1184416, Note_on_c, 0, 75, 64
1, 1184419, Note_off_c, 0, 68, 67
1, 1184427, Note_off_c, 0, 66, 43
1, 1184428, Note_off_c, 0, 61, 63
1, 1184441, Note_off_c, 0, 75, 69
1, 1184593, Note_on_c, 0, 49, 63
1, 1184599, Note_on_c, 0, 73, 45
1, 1184619, Note_off_c, 0, 49, 63
1, 1184623, Note_off_c, 0, 73, 57
1, 1184645, Note_on_c, 0, 72, 68
1, 1184684, Note_off_c, 0, 72, 64
1, 1184731, Control_c, 0, 67, 121
1, 1184735, Note_on_c, 0, 70, 50
1, 1184745, Note_on_c, 0, 49, 66
1, 1184746, Control_c, 0, 67, 95
1, 1184760, Note_off_c, 0, 70, 61
1, 1184761, Control_c, 0, 67, 60
1, 1184775, Control_c, 0, 67, 0
1, 1184779, Note_off_c, 0, 49, 64
1, 1184848, Note_on_c, 0, 73, 69
1, 1184888, Note_on_c, 0, 61, 82
1, 1184892, Note_on_c, 0, 65, 76
1, 1184897, Note_on_c, 0, 77, 81
1, 1184908, Note_off_c, 0, 61, 73
1, 1184908, Note_off_c, 0, 73, 64
1, 1184912, Note_on_c, 0, 80, 81
1, 1184914, Note_off_c, 0, 65, 69
1, 1184918, Note_on_c, 0, 75, 27
1, 1184918, Note_off_c, 0, 75, 127
1, 1184927, Note_off_c, 0, 77, 65
1, 1184934, Note_off_c, 0, 80, 68
1, 1185077, Note_on_c, 0, 78, 82
1, 1185084, Note_on_c, 0, 49, 77
1, 1185118, Note_off_c, 0, 49, 65
1, 1185159, Note_on_c, 0, 77, 73
1, 1185183, Note_off_c, 0, 78, 50
1, 1185190, Note_off_c, 0, 77, 62
1, 1185218, Note_on_c, 0, 75, 90
1, 1185240, Note_on_c, 0, 49, 72
1, 1185259, Note_off_c, 0, 75, 66
1, 1185275, Note_off_c, 0, 49, 65
1, 1185306, Note_on_c, 0, 73, 77
1, 1185328, Note_off_c, 0, 73, 70
1, 1185364, Note_on_c, 0, 82, 39
1, 1185382, Note_on_c, 0, 66, 86
1, 1185385, Note_on_c, 0, 61, 78
1, 1185388, Note_on_c, 0, 78, 78
1, 1185390, Note_on_c, 0, 85, 70
1, 1185402, Note_off_c, 0, 66, 73
1, 1185408, Note_off_c, 0, 61, 70
1, 1185411, Note_off_c, 0, 78, 65
1, 1185414, Control_c, 0, 64, 65
1, 1185426, Note_off_c, 0, 82, 64
1, 1185434, Note_off_c, 0, 85, 63
1, 1185436, Control_c, 0, 64, 127
1, 1185586, Note_on_c, 0, 81, 72
1, 1185587, Note_on_c, 0, 78, 74
1, 1185592, Note_on_c, 0, 85, 51
1, 1185607, Note_on_c, 0, 49, 51
1, 1185611, Note_off_c, 0, 78, 67
1, 1185628, Note_off_c, 0, 85, 64
1, 1185637, Note_off_c, 0, 49, 55
1, 1185638, Note_off_c, 0, 81, 60
1, 1185765, Note_on_c, 0, 49, 63
1, 1185769, Note_on_c, 0, 85, 82
1, 1185772, Note_on_c, 0, 78, 68
1, 1185772, Note_on_c, 0, 81, 69
1, 1185793, Note_off_c, 0, 49, 65
1, 1185797, Note_off_c, 0, 78, 67
1, 1185797, Note_off_c, 0, 81, 69
1, 1185810, Note_off_c, 0, 85, 65
1, 1185962, Note_on_c, 0, 66, 93
1, 1185965, Note_on_c, 0, 61, 84
1, 1185972, Note_on_c, 0, 57, 72
1, 1185983, Note_off_c, 0, 66, 71
1, 1185990, Note_off_c, 0, 61, 68
1, 1185999, Note_off_c, 0, 57, 65
1, 1186043, Control_c, 0, 64, 72
1, 1186058, Control_c, 0, 64, 0
1, 1186168, Note_on_c, 0, 54, 69
1, 1186204, Note_off_c, 0, 54, 65
1, 1186354, Note_on_c, 0, 54, 61
1, 1186389, Note_off_c, 0, 54, 62
1, 1186519, Note_on_c, 0, 66, 74
1, 1186525, Note_on_c, 0, 61, 58
1, 1186533, Note_on_c, 0, 57, 51
1, 1186544, Note_off_c, 0, 66, 69
1, 1186547, Note_off_c, 0, 61, 62
1, 1186561, Note_off_c, 0, 57, 63
1, 1186643, Control_c, 0, 67, 48
1, 1186658, Control_c, 0, 67, 46
1, 1186687, Control_c, 0, 67, 48
1, 1186702, Control_c, 0, 67, 54
1, 1186710, Note_on_c, 0, 54, 59
1, 1186717, Control_c, 0, 67, 79
1, 1186732, Control_c, 0, 67, 113
1, 1186738, Note_off_c, 0, 54, 65
1, 1186747, Control_c, 0, 67, 127
1, 1186893, Note_on_c, 0, 54, 45
1, 1186938, Note_off_c, 0, 54, 63
1, 1187070, Note_on_c, 0, 73, 61
1, 1187089, Note_on_c, 0, 66, 46
1, 1187107, Note_on_c, 0, 57, 36
1, 1187118, Note_on_c, 0, 61, 19
1, 1187140, Control_c, 0, 64, 29
1, 1187155, Control_c, 0, 64, 42
1, 1187170, Control_c, 0, 64, 48
1, 1187200, Control_c, 0, 64, 49
1, 1187210, Note_off_c, 0, 66, 40
1, 1187215, Control_c, 0, 64, 52
1, 1187229, Control_c, 0, 64, 57
1, 1187235, Note_on_c, 0, 76, 65
1, 1187244, Control_c, 0, 64, 59
1, 1187259, Control_c, 0, 64, 58
1, 1187264, Note_on_c, 0, 74, 71
1, 1187274, Control_c, 0, 64, 56
1, 1187287, Note_off_c, 0, 73, 51
1, 1187289, Control_c, 0, 64, 55
1, 1187292, Note_on_c, 0, 54, 42
1, 1187331, Note_off_c, 0, 54, 60
1, 1187333, Control_c, 0, 64, 54
1, 1187347, Control_c, 0, 64, 53
1, 1187354, Note_off_c, 0, 61, 40
1, 1187362, Control_c, 0, 64, 48
1, 1187377, Note_off_c, 0, 57, 43
1, 1187377, Control_c, 0, 64, 36
1, 1187392, Control_c, 0, 64, 0
1, 1187421, Note_off_c, 0, 76, 48
1, 1187426, Note_off_c, 0, 74, 61
1, 1187428, Note_on_c, 0, 73, 68
1, 1187432, Note_on_c, 0, 54, 46
1, 1187457, Note_off_c, 0, 54, 57
1, 1187604, Note_on_c, 0, 71, 65
1, 1187605, Note_on_c, 0, 66, 62
1, 1187608, Note_off_c, 0, 73, 37
1, 1187623, Note_off_c, 0, 66, 65
1, 1187772, Note_off_c, 0, 71, 60
1, 1187794, Note_on_c, 0, 73, 60
1, 1187805, Note_on_c, 0, 50, 40
1, 1187838, Note_off_c, 0, 50, 54
1, 1187856, Note_off_c, 0, 73, 62
1, 1187891, Note_on_c, 0, 74, 67
1, 1187960, Note_on_c, 0, 76, 73
1, 1187960, Note_on_c, 0, 50, 42
1, 1187966, Note_off_c, 0, 74, 56
1, 1187989, Note_off_c, 0, 50, 57
1, 1188002, Note_off_c, 0, 76, 54
1, 1188049, Note_on_c, 0, 78, 68
1, 1188090, Note_off_c, 0, 78, 57
1, 1188133, Note_on_c, 0, 62, 29
1, 1188141, Note_on_c, 0, 80, 56
1, 1188144, Note_on_c, 0, 64, 25
1, 1188169, Note_off_c, 0, 62, 31
1, 1188185, Note_off_c, 0, 64, 29
1, 1188279, Note_off_c, 0, 80, 56
1, 1188304, Note_on_c, 0, 78, 64
1, 1188306, Note_on_c, 0, 52, 47
1, 1188333, Note_off_c, 0, 52, 59
1, 1188374, Note_off_c, 0, 78, 51
1, 1188386, Note_on_c, 0, 80, 73
1, 1188435, Note_off_c, 0, 80, 61
1, 1188475, Note_on_c, 0, 52, 50
1, 1188496, Note_on_c, 0, 81, 48
1, 1188501, Note_off_c, 0, 52, 60
1, 1188519, Note_off_c, 0, 81, 60
1, 1188590, Note_on_c, 0, 83, 15
1, 1188597, Note_on_c, 0, 81, 28
1, 1188611, Note_off_c, 0, 83, 48
1, 1188634, Note_off_c, 0, 81, 31
1, 1188638, Note_on_c, 0, 61, 60
1, 1188640, Note_on_c, 0, 85, 78
1, 1188647, Note_on_c, 0, 64, 52
1, 1188659, Note_off_c, 0, 61, 64
1, 1188660, Note_off_c, 0, 85, 73
1, 1188670, Note_off_c, 0, 64, 59
1, 1188819, Note_on_c, 0, 85, 68
1, 1188823, Note_on_c, 0, 57, 59
1, 1188842, Note_off_c, 0, 85, 70
1, 1188851, Note_off_c, 0, 57, 64
1, 1188982, Note_on_c, 0, 57, 56
1, 1188992, Note_on_c, 0, 85, 58
1, 1189010, Note_off_c, 0, 85, 63
1, 1189018, Note_off_c, 0, 57, 64
1, 1189156, Note_on_c, 0, 61, 61
1, 1189169, Note_on_c, 0, 64, 61
1, 1189185, Note_off_c, 0, 61, 65
1, 1189194, Note_off_c, 0, 64, 66
1, 1189353, Note_on_c, 0, 57, 58
1, 1189387, Note_off_c, 0, 57, 65
1, 1189529, Note_on_c, 0, 57, 56
1, 1189560, Note_off_c, 0, 57, 64
1, 1189702, Note_on_c, 0, 73, 63
1, 1189722, Note_on_c, 0, 61, 38
1, 1189727, Note_on_c, 0, 64, 39
1, 1189728, Note_off_c, 0, 73, 67
1, 1189751, Note_off_c, 0, 61, 53
1, 1189755, Note_off_c, 0, 64, 55
1, 1189881, Note_on_c, 0, 73, 71
1, 1189893, Note_on_c, 0, 57, 46
1, 1189906, Note_off_c, 0, 73, 66
1, 1189930, Note_off_c, 0, 57, 56
1, 1190055, Note_on_c, 0, 57, 52
1, 1190071, Note_on_c, 0, 73, 59
1, 1190094, Note_off_c, 0, 73, 65
1, 1190097, Note_off_c, 0, 57, 60
1, 1190254, Control_c, 0, 64, 37
1, 1190256, Note_on_c, 0, 73, 42
1, 1190269, Control_c, 0, 64, 48
1, 1190270, Note_on_c, 0, 61, 41
1, 1190278, Note_on_c, 0, 64, 46
1, 1190284, Control_c, 0, 64, 53
1, 1190299, Control_c, 0, 64, 55
1, 1190307, Note_off_c, 0, 61, 55
1, 1190313, Control_c, 0, 64, 56
1, 1190319, Note_off_c, 0, 64, 62
1, 1190328, Control_c, 0, 64, 58
1, 1190343, Control_c, 0, 64, 60
1, 1190358, Control_c, 0, 64, 63
1, 1190372, Control_c, 0, 64, 64
1, 1190387, Control_c, 0, 64, 64
1, 1190402, Control_c, 0, 64, 65
1, 1190417, Control_c, 0, 64, 65
1, 1190446, Note_off_c, 0, 73, 51
1, 1190446, Control_c, 0, 64, 66
1, 1190452, Note_on_c, 0, 58, 70
1, 1190452, Note_on_c, 0, 76, 57
1, 1190461, Control_c, 0, 64, 65
1, 1190476, Control_c, 0, 64, 59
1, 1190479, Note_off_c, 0, 58, 66
1, 1190491, Control_c, 0, 64, 28
1, 1190506, Control_c, 0, 64, 0
1, 1190529, Note_off_c, 0, 76, 62
1, 1190531, Note_on_c, 0, 74, 67
1, 1190596, Note_off_c, 0, 74, 59
1, 1190609, Note_on_c, 0, 73, 70
1, 1190625, Note_on_c, 0, 58, 61
1, 1190666, Note_off_c, 0, 58, 62
1, 1190678, Note_off_c, 0, 73, 55
1, 1190700, Note_on_c, 0, 76, 67
1, 1190779, Note_off_c, 0, 76, 64
1, 1190786, Note_on_c, 0, 74, 70
1, 1190792, Note_on_c, 0, 62, 56
1, 1190801, Note_off_c, 0, 74, 67
1, 1190803, Note_on_c, 0, 64, 52
1, 1190814, Note_off_c, 0, 62, 61
1, 1190827, Note_off_c, 0, 64, 59
1, 1190959, Note_on_c, 0, 74, 63
1, 1190971, Note_on_c, 0, 59, 66
1, 1190986, Note_off_c, 0, 74, 66
1, 1190998, Note_off_c, 0, 59, 66
1, 1191135, Note_on_c, 0, 59, 59
1, 1191147, Note_on_c, 0, 74, 63
1, 1191175, Note_off_c, 0, 59, 61
1, 1191299, Note_off_c, 0, 74, 57
1, 1191322, Note_on_c, 0, 86, 71
1, 1191323, Note_on_c, 0, 62, 54
1, 1191324, Note_on_c, 0, 64, 57
1, 1191346, Note_off_c, 0, 62, 60
1, 1191348, Note_off_c, 0, 86, 67
1, 1191352, Note_off_c, 0, 64, 65
1, 1191513, Note_on_c, 0, 59, 60
1, 1191522, Note_on_c, 0, 86, 59
1, 1191540, Note_off_c, 0, 86, 66
1, 1191547, Note_off_c, 0, 59, 63
1, 1191692, Note_on_c, 0, 59, 62
1, 1191692, Note_on_c, 0, 86, 51
1, 1191712, Note_off_c, 0, 86, 62
1, 1191720, Note_off_c, 0, 59, 66
1, 1191871, Note_on_c, 0, 64, 62
1, 1191874, Note_on_c, 0, 62, 52
1, 1191898, Note_off_c, 0, 62, 58
1, 1191898, Note_off_c, 0, 64, 67
1, 1192051, Note_on_c, 0, 59, 61
1, 1192074, Note_off_c, 0, 59, 62
1, 1192220, Note_on_c, 0, 59, 53
1, 1192255, Note_off_c, 0, 59, 62
1, 1192408, Note_on_c, 0, 64, 56
1, 1192411, Note_on_c, 0, 74, 46
1, 1192419, Note_on_c, 0, 62, 31
1, 1192437, Note_off_c, 0, 74, 54
1, 1192441, Note_off_c, 0, 64, 62
1, 1192455, Note_off_c, 0, 62, 54
1, 1192574, Note_on_c, 0, 74, 63
1, 1192584, Note_on_c, 0, 59, 54
1, 1192602, Note_off_c, 0, 74, 66
1, 1192611, Note_off_c, 0, 59, 58
1, 1192741, Note_on_c, 0, 59, 56
1, 1192756, Note_on_c, 0, 74, 68
1, 1192775, Note_off_c, 0, 59, 63
1, 1192782, Note_off_c, 0, 74, 66
1, 1192933, Note_on_c, 0, 74, 57
1, 1192956, Note_on_c, 0, 65, 40
1, 1192959, Note_on_c, 0, 62, 29
1, 1192996, Note_off_c, 0, 62, 53
1, 1193001, Note_off_c, 0, 65, 48
1, 1193105, Note_off_c, 0, 74, 44
1, 1193116, Control_c, 0, 64, 28
1, 1193121, Note_on_c, 0, 77, 63
1, 1193129, Note_on_c, 0, 59, 62
1, 1193159, Note_off_c, 0, 59, 65
1, 1193165, Note_off_c, 0, 77, 56
1, 1193175, Control_c, 0, 64, 30
1, 1193200, Note_on_c, 0, 76, 67
1, 1193234, Control_c, 0, 64, 0
1, 1193236, Note_off_c, 0, 76, 58
1, 1193286, Note_on_c, 0, 74, 67
1, 1193290, Note_on_c, 0, 59, 60
1, 1193313, Note_off_c, 0, 74, 66
1, 1193320, Note_off_c, 0, 59, 65
1, 1193361, Note_on_c, 0, 77, 64
1, 1193396, Note_off_c, 0, 77, 62
1, 1193445, Note_on_c, 0, 74, 73
1, 1193455, Note_on_c, 0, 62, 63
1, 1193463, Note_on_c, 0, 65, 57
1, 1193467, Note_off_c, 0, 74, 70
1, 1193477, Note_off_c, 0, 62, 65
1, 1193484, Note_off_c, 0, 65, 63
1, 1193627, Note_on_c, 0, 59, 63
1, 1193627, Note_on_c, 0, 74, 68
1, 1193651, Note_off_c, 0, 74, 65
1, 1193652, Note_off_c, 0, 59, 65
1, 1193804, Note_on_c, 0, 59, 48
1, 1193809, Note_on_c, 0, 74, 60
1, 1193832, Note_off_c, 0, 59, 60
1, 1193952, Note_off_c, 0, 74, 55
1, 1193985, Note_on_c, 0, 86, 63
1, 1193999, Note_on_c, 0, 62, 15
1, 1194002, Note_on_c, 0, 65, 28
1, 1194016, Note_off_c, 0, 86, 63
1, 1194038, Note_off_c, 0, 65, 45
1, 1194042, Note_off_c, 0, 62, 28
1, 1194150, Note_on_c, 0, 59, 58
1, 1194160, Note_on_c, 0, 86, 70
1, 1194186, Note_off_c, 0, 59, 61
1, 1194189, Note_off_c, 0, 86, 64
1, 1194319, Note_on_c, 0, 59, 56
1, 1194323, Note_on_c, 0, 86, 57
1, 1194345, Note_off_c, 0, 59, 65
1, 1194345, Note_off_c, 0, 86, 66
1, 1194350, Note_on_c, 0, 62, 19
1, 1194391, Note_off_c, 0, 62, 29
1, 1194509, Note_on_c, 0, 62, 46
1, 1194518, Note_on_c, 0, 59, 40
1, 1194520, Note_on_c, 0, 74, 65
1, 1194551, Note_off_c, 0, 59, 52
1, 1194556, Note_off_c, 0, 62, 50
1, 1194568, Control_c, 0, 64, 41
1, 1194583, Control_c, 0, 64, 54
1, 1194598, Control_c, 0, 64, 62
1, 1194600, Note_on_c, 0, 65, 44
1, 1194612, Control_c, 0, 64, 64
1, 1194627, Control_c, 0, 64, 66
1, 1194632, Note_off_c, 0, 65, 52
1, 1194642, Control_c, 0, 64, 68
1, 1194656, Control_c, 0, 64, 70
1, 1194671, Control_c, 0, 64, 72
1, 1194675, Note_on_c, 0, 59, 45
1, 1194678, Note_on_c, 0, 62, 42
1, 1194686, Control_c, 0, 64, 77
1, 1194694, Note_off_c, 0, 74, 59
1, 1194701, Control_c, 0, 64, 82
1, 1194702, Note_on_c, 0, 73, 56
1, 1194706, Note_off_c, 0, 59, 54
1, 1194716, Control_c, 0, 64, 87
1, 1194721, Note_off_c, 0, 62, 48
1, 1194730, Control_c, 0, 64, 89
1, 1194746, Note_on_c, 0, 65, 43
1, 1194746, Control_c, 0, 64, 90
1, 1194761, Control_c, 0, 64, 91
1, 1194795, Note_off_c, 0, 65, 45
1, 1194825, Note_on_c, 0, 62, 56
1, 1194830, Note_off_c, 0, 73, 59
1, 1194831, Note_on_c, 0, 59, 45
1, 1194857, Note_on_c, 0, 74, 60
1, 1194894, Note_off_c, 0, 62, 55
1, 1194902, Note_off_c, 0, 59, 41
1, 1194917, Note_on_c, 0, 65, 48
1, 1194975, Note_off_c, 0, 65, 51
1, 1194984, Control_c, 0, 64, 90
1, 1194985, Note_off_c, 0, 74, 56
1, 1194999, Control_c, 0, 64, 88
1, 1195007, Note_on_c, 0, 58, 69
1, 1195011, Note_on_c, 0, 86, 75
1, 1195013, Note_on_c, 0, 62, 60
1, 1195014, Control_c, 0, 64, 79
1, 1195028, Control_c, 0, 64, 68
1, 1195043, Control_c, 0, 64, 56
1, 1195050, Note_off_c, 0, 58, 59
1, 1195058, Control_c, 0, 64, 47
1, 1195070, Note_off_c, 0, 62, 57
1, 1195073, Control_c, 0, 64, 46
1, 1195091, Note_on_c, 0, 65, 65
1, 1195165, Note_off_c, 0, 65, 56
1, 1195175, Note_on_c, 0, 58, 69
1, 1195179, Note_on_c, 0, 62, 66
1, 1195180, Note_on_c, 0, 85, 81
1, 1195216, Note_off_c, 0, 58, 60
1, 1195224, Note_off_c, 0, 86, 60
1, 1195226, Note_off_c, 0, 62, 57
1, 1195258, Note_on_c, 0, 65, 58
1, 1195258, Control_c, 0, 64, 46
1, 1195330, Note_off_c, 0, 65, 55
1, 1195335, Note_on_c, 0, 62, 69
1, 1195347, Note_on_c, 0, 58, 63
1, 1195351, Note_on_c, 0, 86, 80
1, 1195368, Note_off_c, 0, 85, 62
1, 1195379, Note_off_c, 0, 58, 62
1, 1195400, Note_off_c, 0, 62, 58
1, 1195404, Note_off_c, 0, 86, 65
1, 1195421, Control_c, 0, 64, 47
1, 1195446, Note_on_c, 0, 65, 47
1, 1195451, Control_c, 0, 64, 46
1, 1195466, Control_c, 0, 64, 46
1, 1195476, Note_off_c, 0, 65, 55
1, 1195495, Control_c, 0, 64, 47
1, 1195510, Control_c, 0, 64, 51
1, 1195519, Note_on_c, 0, 62, 54
1, 1195525, Control_c, 0, 64, 56
1, 1195528, Note_on_c, 0, 58, 36
1, 1195534, Note_on_c, 0, 82, 64
1, 1195540, Control_c, 0, 64, 61
1, 1195554, Control_c, 0, 64, 65
1, 1195569, Control_c, 0, 64, 69
1, 1195570, Note_off_c, 0, 62, 60
1, 1195577, Note_off_c, 0, 58, 46
1, 1195584, Control_c, 0, 64, 73
1, 1195599, Control_c, 0, 64, 76
1, 1195612, Note_on_c, 0, 65, 53
1, 1195614, Control_c, 0, 64, 77
1, 1195628, Control_c, 0, 64, 77
1, 1195652, Note_off_c, 0, 65, 58
1, 1195658, Control_c, 0, 64, 78
1, 1195690, Note_on_c, 0, 62, 61
1, 1195696, Note_on_c, 0, 58, 49
1, 1195710, Note_on_c, 0, 81, 57
1, 1195710, Note_off_c, 0, 82, 54
1, 1195723, Note_off_c, 0, 58, 57
1, 1195737, Note_off_c, 0, 62, 58
1, 1195774, Note_on_c, 0, 65, 58
1, 1195821, Note_off_c, 0, 65, 47
1, 1195849, Note_off_c, 0, 81, 53
1, 1195858, Note_on_c, 0, 62, 57
1, 1195861, Note_on_c, 0, 58, 55
1, 1195862, Note_on_c, 0, 82, 62
1, 1195908, Note_off_c, 0, 58, 58
1, 1195921, Note_off_c, 0, 62, 57
1, 1195952, Note_on_c, 0, 65, 64
1, 1196002, Note_off_c, 0, 65, 56
1, 1196022, Control_c, 0, 64, 76
1, 1196024, Note_off_c, 0, 82, 55
1, 1196037, Control_c, 0, 64, 65
1, 1196042, Note_on_c, 0, 63, 75
1, 1196044, Note_on_c, 0, 58, 66
1, 1196052, Control_c, 0, 64, 37
1, 1196054, Note_on_c, 0, 79, 62
1, 1196066, Control_c, 0, 64, 0
1, 1196069, Note_off_c, 0, 58, 65
1, 1196070, Note_off_c, 0, 63, 63
1, 1196136, Note_on_c, 0, 67, 65
1, 1196183, Note_off_c, 0, 67, 55
1, 1196211, Note_off_c, 0, 79, 40
1, 1196215, Note_on_c, 0, 63, 66
1, 1196223, Note_on_c, 0, 81, 64
1, 1196226, Note_on_c, 0, 58, 49
1, 1196245, Note_off_c, 0, 63, 65
1, 1196256, Note_off_c, 0, 58, 57
1, 1196268, Note_off_c, 0, 81, 57
1, 1196301, Note_on_c, 0, 67, 64
1, 1196311, Note_on_c, 0, 82, 67
1, 1196356, Note_off_c, 0, 67, 52
1, 1196360, Note_off_c, 0, 82, 58
1, 1196388, Note_on_c, 0, 84, 65
1, 1196390, Note_on_c, 0, 63, 66
1, 1196411, Note_on_c, 0, 58, 32
1, 1196427, Note_off_c, 0, 63, 60
1, 1196446, Note_off_c, 0, 58, 47
1, 1196471, Note_on_c, 0, 67, 64
1, 1196475, Note_on_c, 0, 86, 71
1, 1196487, Note_off_c, 0, 84, 57
1, 1196501, Note_off_c, 0, 67, 64
1, 1196550, Note_on_c, 0, 58, 62
1, 1196554, Note_on_c, 0, 62, 62
1, 1196555, Note_off_c, 0, 86, 58
1, 1196560, Note_on_c, 0, 82, 76
1, 1196589, Note_off_c, 0, 58, 62
1, 1196602, Note_off_c, 0, 62, 59
1, 1196655, Note_on_c, 0, 65, 62
1, 1196688, Note_off_c, 0, 65, 58
1, 1196718, Note_off_c, 0, 82, 62
1, 1196733, Note_on_c, 0, 62, 57
1, 1196737, Note_on_c, 0, 84, 73
1, 1196740, Note_on_c, 0, 58, 53
1, 1196765, Note_off_c, 0, 58, 59
1, 1196769, Note_off_c, 0, 62, 59
1, 1196798, Note_on_c, 0, 65, 65
1, 1196818, Note_on_c, 0, 82, 74
1, 1196846, Note_off_c, 0, 84, 61
1, 1196869, Note_off_c, 0, 65, 53
1, 1196880, Note_on_c, 0, 58, 58
1, 1196888, Note_on_c, 0, 81, 75
1, 1196894, Note_on_c, 0, 62, 52
1, 1196904, Note_off_c, 0, 82, 57
1, 1196932, Note_off_c, 0, 58, 60
1, 1196935, Note_off_c, 0, 81, 64
1, 1196938, Note_off_c, 0, 62, 61
1, 1196979, Note_on_c, 0, 79, 68
1, 1196983, Note_on_c, 0, 65, 64
1, 1197012, Note_off_c, 0, 65, 64
1, 1197013, Note_off_c, 0, 79, 59
1, 1197058, Note_on_c, 0, 57, 70
1, 1197059, Note_on_c, 0, 63, 70
1, 1197061, Note_on_c, 0, 77, 67
1, 1197077, Note_off_c, 0, 77, 68
1, 1197085, Note_off_c, 0, 57, 66
1, 1197094, Note_off_c, 0, 63, 60
1, 1197147, Note_on_c, 0, 65, 59
1, 1197180, Note_off_c, 0, 65, 61
1, 1197222, Note_on_c, 0, 57, 55
1, 1197223, Note_on_c, 0, 63, 67
1, 1197226, Note_on_c, 0, 77, 65
1, 1197250, Note_off_c, 0, 77, 68
1, 1197253, Note_off_c, 0, 57, 65
1, 1197268, Note_off_c, 0, 63, 55
1, 1197315, Note_on_c, 0, 65, 52
1, 1197346, Note_off_c, 0, 65, 61
1, 1197389, Note_on_c, 0, 57, 59
1, 1197391, Note_on_c, 0, 77, 64
1, 1197392, Note_on_c, 0, 63, 65
1, 1197424, Note_off_c, 0, 77, 68
1, 1197429, Note_off_c, 0, 57, 65
1, 1197455, Note_off_c, 0, 63, 60
1, 1197478, Note_on_c, 0, 65, 63
1, 1197534, Control_c, 0, 64, 28
1, 1197539, Note_off_c, 0, 65, 54
1, 1197549, Control_c, 0, 64, 49
1, 1197561, Note_on_c, 0, 63, 77
1, 1197563, Control_c, 0, 64, 60
1, 1197564, Note_on_c, 0, 57, 60
1, 1197567, Note_on_c, 0, 78, 73
1, 1197578, Control_c, 0, 64, 63
1, 1197612, Note_off_c, 0, 57, 55
1, 1197659, Note_off_c, 0, 63, 61
1, 1197660, Note_on_c, 0, 66, 78
1, 1197681, Control_c, 0, 64, 64
1, 1197711, Control_c, 0, 64, 62
1, 1197717, Note_off_c, 0, 66, 55
1, 1197726, Control_c, 0, 64, 52
1, 1197728, Note_on_c, 0, 90, 83
1, 1197734, Note_off_c, 0, 78, 40
1, 1197735, Note_on_c, 0, 57, 69
1, 1197741, Control_c, 0, 64, 0
1, 1197743, Note_on_c, 0, 63, 70
1, 1197761, Note_off_c, 0, 90, 63
1, 1197773, Note_off_c, 0, 57, 60
1, 1197803, Note_off_c, 0, 63, 63
1, 1197817, Note_on_c, 0, 66, 77
1, 1197854, Note_off_c, 0, 66, 59
1, 1197891, Note_on_c, 0, 90, 76
1, 1197895, Note_on_c, 0, 63, 70
1, 1197898, Note_on_c, 0, 57, 64
1, 1197930, Note_off_c, 0, 90, 62
1, 1197932, Note_off_c, 0, 57, 65
1, 1197952, Note_off_c, 0, 63, 63
1, 1197961, Note_on_c, 0, 66, 75
1, 1197999, Note_off_c, 0, 66, 66
1, 1198047, Note_on_c, 0, 63, 85
1, 1198050, Note_on_c, 0, 58, 86
1, 1198050, Note_on_c, 0, 91, 84
1, 1198052, Control_c, 0, 64, 40
1, 1198067, Control_c, 0, 64, 63
1, 1198081, Control_c, 0, 64, 68
1, 1198096, Note_off_c, 0, 63, 64
1, 1198096, Control_c, 0, 64, 68
1, 1198099, Note_off_c, 0, 58, 61
1, 1198135, Note_on_c, 0, 67, 76
1, 1198142, Control_c, 0, 67, 118
1, 1198164, Control_c, 0, 67, 111
1, 1198179, Control_c, 0, 67, 107
1, 1198193, Control_c, 0, 67, 102
1, 1198196, Note_off_c, 0, 67, 62
1, 1198208, Control_c, 0, 67, 96
1, 1198211, Note_off_c, 0, 91, 61
1, 1198223, Control_c, 0, 67, 91
1, 1198224, Note_on_c, 0, 58, 78
1, 1198229, Note_on_c, 0, 63, 70
1, 1198238, Note_on_c, 0, 79, 68
1, 1198238, Control_c, 0, 67, 89
1, 1198253, Control_c, 0, 67, 86
1, 1198253, Note_off_c, 0, 63, 63
1, 1198254, Note_off_c, 0, 58, 66
1, 1198268, Control_c, 0, 64, 68
1, 1198268, Control_c, 0, 67, 80
1, 1198274, Note_off_c, 0, 79, 62
1, 1198283, Control_c, 0, 64, 67
1, 1198283, Control_c, 0, 67, 79
1, 1198298, Control_c, 0, 64, 62
1, 1198301, Note_on_c, 0, 67, 74
1, 1198312, Control_c, 0, 64, 48
1, 1198327, Control_c, 0, 64, 0
1, 1198337, Note_off_c, 0, 67, 55
1, 1198357, Control_c, 0, 67, 78
1, 1198372, Control_c, 0, 67, 79
1, 1198378, Note_on_c, 0, 58, 76
1, 1198381, Note_on_c, 0, 63, 72
1, 1198382, Note_on_c, 0, 79, 70
1, 1198386, Control_c, 0, 67, 81
1, 1198409, Note_off_c, 0, 79, 64
1, 1198433, Note_off_c, 0, 58, 62
1, 1198441, Note_off_c, 0, 63, 62
1, 1198446, Control_c, 0, 67, 82
1, 1198460, Control_c, 0, 67, 83
1, 1198462, Note_on_c, 0, 67, 71
1, 1198491, Control_c, 0, 67, 82
1, 1198505, Control_c, 0, 67, 80
1, 1198515, Note_off_c, 0, 67, 58
1, 1198520, Control_c, 0, 67, 79
1, 1198533, Note_on_c, 0, 81, 81
1, 1198535, Control_c, 0, 67, 78
1, 1198539, Note_on_c, 0, 63, 87
1, 1198542, Note_on_c, 0, 60, 80
1, 1198550, Control_c, 0, 67, 78
1, 1198565, Control_c, 0, 64, 48
1, 1198565, Control_c, 0, 67, 73
1, 1198566, Note_off_c, 0, 81, 62
1, 1198575, Note_off_c, 0, 60, 64
1, 1198579, Control_c, 0, 64, 70
1, 1198579, Control_c, 0, 67, 59
1, 1198583, Note_off_c, 0, 63, 61
1, 1198594, Control_c, 0, 64, 78
1, 1198594, Control_c, 0, 67, 35
1, 1198609, Control_c, 0, 64, 81
1, 1198609, Control_c, 0, 67, 0
1, 1198616, Note_on_c, 0, 67, 81
1, 1198624, Control_c, 0, 64, 81
1, 1198679, Note_off_c, 0, 67, 57
1, 1198694, Note_on_c, 0, 60, 74
1, 1198700, Note_on_c, 0, 63, 76
1, 1198701, Note_on_c, 0, 94, 90
1, 1198726, Note_on_c, 0, 93, 73
1, 1198727, Control_c, 0, 64, 81
1, 1198739, Note_off_c, 0, 60, 60
1, 1198742, Control_c, 0, 64, 78
1, 1198747, Note_off_c, 0, 94, 63
1, 1198755, Note_off_c, 0, 63, 61
1, 1198757, Note_off_c, 0, 93, 58
1, 1198757, Control_c, 0, 64, 70
1, 1198769, Note_on_c, 0, 67, 83
1, 1198772, Control_c, 0, 64, 56
1, 1198787, Note_on_c, 0, 91, 93
1, 1198787, Control_c, 0, 64, 0
1, 1198836, Note_off_c, 0, 91, 66
1, 1198849, Note_off_c, 0, 67, 60
1, 1198852, Note_on_c, 0, 63, 83
1, 1198858, Note_on_c, 0, 60, 71
1, 1198861, Note_on_c, 0, 93, 96
1, 1198917, Note_off_c, 0, 60, 61
1, 1198921, Note_off_c, 0, 63, 62
1, 1198954, Note_on_c, 0, 67, 82
1, 1199000, Note_off_c, 0, 67, 61
1, 1199019, Note_on_c, 0, 94, 93
1, 1199031, Note_on_c, 0, 55, 86
1, 1199031, Note_off_c, 0, 93, 62
1, 1199033, Note_on_c, 0, 62, 78
1, 1199047, Control_c, 0, 64, 43
1, 1199055, Note_off_c, 0, 94, 61
1, 1199061, Control_c, 0, 64, 69
1, 1199068, Note_off_c, 0, 62, 63
1, 1199076, Control_c, 0, 64, 86
1, 1199078, Note_off_c, 0, 55, 60
1, 1199091, Control_c, 0, 64, 111
1, 1199105, Note_on_c, 0, 67, 80
1, 1199106, Control_c, 0, 64, 127
1, 1199159, Note_off_c, 0, 67, 56
1, 1199174, Note_on_c, 0, 84, 69
1, 1199174, Note_on_c, 0, 62, 81
1, 1199180, Note_on_c, 0, 55, 76
1, 1199204, Note_off_c, 0, 84, 58
1, 1199211, Note_off_c, 0, 55, 57
1, 1199216, Note_on_c, 0, 82, 80
1, 1199234, Note_off_c, 0, 62, 61
1, 1199254, Note_on_c, 0, 67, 84
1, 1199259, Note_off_c, 0, 82, 64
1, 1199274, Note_on_c, 0, 81, 76
1, 1199299, Note_off_c, 0, 67, 61
1, 1199328, Note_on_c, 0, 62, 82
1, 1199339, Note_off_c, 0, 81, 60
1, 1199345, Note_on_c, 0, 55, 61
1, 1199351, Note_on_c, 0, 82, 66
1, 1199368, Note_off_c, 0, 82, 65
1, 1199371, Note_off_c, 0, 55, 61
1, 1199376, Note_off_c, 0, 62, 58
1, 1199407, Note_on_c, 0, 67, 65
1, 1199428, Note_off_c, 0, 67, 66
1, 1199568, Note_on_c, 0, 63, 74
1, 1199594, Note_on_c, 0, 79, 49
1, 1199676, Control_c, 0, 64, 90
1, 1199691, Control_c, 0, 64, 68
1, 1199692, Note_off_c, 0, 79, 62
1, 1199704, Note_on_c, 0, 82, 56
1, 1199706, Control_c, 0, 64, 53
1, 1199721, Control_c, 0, 64, 36
1, 1199737, Control_c, 0, 64, 0
1, 1199802, Note_off_c, 0, 82, 61
1, 1199808, Note_on_c, 0, 79, 66
1, 1199811, Control_c, 0, 67, 51
1, 1199815, Note_on_c, 0, 62, 83
1, 1199825, Control_c, 0, 67, 67
1, 1199840, Control_c, 0, 67, 68
1, 1199855, Control_c, 0, 67, 69
1, 1199857, Note_on_c, 0, 75, 14
1, 1199870, Control_c, 0, 67, 71
1, 1199884, Control_c, 0, 67, 75
1, 1199893, Note_off_c, 0, 63, 62
1, 1199899, Note_on_c, 0, 82, 77
1, 1199899, Control_c, 0, 67, 83
1, 1199900, Note_off_c, 0, 79, 62
1, 1199904, Note_off_c, 0, 75, 28
1, 1199914, Control_c, 0, 67, 89
1, 1199929, Control_c, 0, 67, 90
1, 1199944, Control_c, 0, 67, 94
1, 1199958, Control_c, 0, 67, 115
1, 1199972, Note_off_c, 0, 82, 60
1, 1199973, Control_c, 0, 67, 127
1, 1199981, Note_on_c, 0, 79, 67
1, 1199983, Note_on_c, 0, 63, 90
1, 1199990, Note_on_c, 0, 75, 61
1, 1200021, Note_off_c, 0, 75, 61
1, 1200036, Note_off_c, 0, 62, 60
1, 1200060, Note_on_c, 0, 82, 82
1, 1200062, Note_off_c, 0, 79, 61
1, 1200143, Note_off_c, 0, 82, 60
1, 1200151, Note_on_c, 0, 79, 69
1, 1200164, Note_on_c, 0, 60, 80
1, 1200187, Note_on_c, 0, 75, 30
1, 1200223, Note_off_c, 0, 63, 62
1, 1200238, Note_off_c, 0, 75, 41
1, 1200248, Note_off_c, 0, 79, 56
1, 1200250, Note_on_c, 0, 84, 68
1, 1200331, Note_off_c, 0, 84, 60
1, 1200338, Note_on_c, 0, 62, 76
1, 1200346, Note_off_c, 0, 60, 65
1, 1200349, Note_on_c, 0, 79, 60
1, 1200367, Note_on_c, 0, 75, 39
1, 1200402, Note_off_c, 0, 75, 47
1, 1200428, Note_on_c, 0, 63, 78
1, 1200428, Note_off_c, 0, 62, 63
1, 1200438, Note_off_c, 0, 79, 53
1, 1200446, Note_on_c, 0, 84, 67
1, 1200498, Note_on_c, 0, 65, 71
1, 1200501, Note_off_c, 0, 63, 61
1, 1200529, Note_off_c, 0, 84, 60
1, 1200534, Note_on_c, 0, 79, 54
1, 1200550, Note_off_c, 0, 65, 60
1, 1200592, Note_on_c, 0, 67, 65
1, 1200613, Note_off_c, 0, 79, 57
1, 1200618, Note_on_c, 0, 84, 70
1, 1200665, Note_off_c, 0, 67, 53
1, 1200675, Note_off_c, 0, 84, 52
1, 1200695, Note_on_c, 0, 63, 67
1, 1200706, Note_on_c, 0, 79, 62
1, 1200718, Note_on_c, 0, 75, 49
1, 1200741, Note_off_c, 0, 75, 60
1, 1200781, Note_on_c, 0, 82, 72
1, 1200787, Note_off_c, 0, 79, 62
1, 1200838, Note_off_c, 0, 63, 62
1, 1200851, Note_off_c, 0, 82, 55
1, 1200870, Note_on_c, 0, 65, 62
1, 1200874, Note_on_c, 0, 79, 64
1, 1200892, Note_on_c, 0, 75, 37
1, 1200900, Note_off_c, 0, 65, 61
1, 1200918, Note_off_c, 0, 75, 49
1, 1200934, Note_on_c, 0, 63, 77
1, 1200949, Note_on_c, 0, 82, 79
1, 1200963, Note_off_c, 0, 79, 61
1, 1201000, Note_off_c, 0, 63, 61
1, 1201003, Control_c, 0, 64, 29
1, 1201016, Note_off_c, 0, 82, 56
1, 1201023, Note_on_c, 0, 62, 70
1, 1201034, Note_on_c, 0, 75, 53
1, 1201037, Note_on_c, 0, 79, 64
1, 1201057, Note_off_c, 0, 62, 61
1, 1201061, Note_off_c, 0, 75, 59
1, 1201092, Note_off_c, 0, 79, 61
1, 1201105, Note_on_c, 0, 60, 73
1, 1201106, Note_on_c, 0, 82, 85
1, 1201106, Control_c, 0, 64, 0
1, 1201156, Note_off_c, 0, 60, 61
1, 1201176, Note_off_c, 0, 82, 58
1, 1201195, Note_on_c, 0, 58, 81
1, 1201202, Note_on_c, 0, 80, 79
1, 1201216, Note_on_c, 0, 74, 67
1, 1201217, Note_off_c, 0, 58, 70
1, 1201240, Note_off_c, 0, 74, 67
1, 1201252, Note_off_c, 0, 80, 62
1, 1201281, Note_on_c, 0, 82, 82
1, 1201332, Note_off_c, 0, 82, 60
1, 1201366, Note_on_c, 0, 80, 71
1, 1201371, Note_on_c, 0, 58, 60
1, 1201379, Note_on_c, 0, 74, 60
1, 1201401, Note_off_c, 0, 58, 64
1, 1201410, Note_off_c, 0, 74, 63
1, 1201419, Note_off_c, 0, 80, 58
1, 1201443, Note_on_c, 0, 82, 63
1, 1201492, Note_off_c, 0, 82, 59
1, 1201533, Note_on_c, 0, 80, 64
1, 1201545, Note_on_c, 0, 74, 50
1, 1201548, Note_on_c, 0, 58, 46
1, 1201575, Note_off_c, 0, 58, 57
1, 1201575, Note_off_c, 0, 80, 59
1, 1201581, Note_off_c, 0, 74, 59
1, 1201606, Note_on_c, 0, 82, 62
1, 1201645, Note_off_c, 0, 82, 57
1, 1201697, Note_on_c, 0, 80, 63
1, 1201713, Note_on_c, 0, 74, 46
1, 1201726, Note_on_c, 0, 59, 61
1, 1201748, Note_off_c, 0, 74, 51
1, 1201756, Note_off_c, 0, 80, 49
1, 1201802, Note_on_c, 0, 86, 64
1, 1201859, Note_off_c, 0, 86, 56
1, 1201862, Note_off_c, 0, 59, 64
1, 1201884, Note_on_c, 0, 71, 58
1, 1201886, Note_on_c, 0, 80, 73
1, 1201911, Note_off_c, 0, 71, 62
1, 1201912, Note_on_c, 0, 74, 52
1, 1201929, Note_off_c, 0, 80, 60
1, 1201932, Note_off_c, 0, 74, 60
1, 1201976, Note_on_c, 0, 86, 72
1, 1202046, Note_off_c, 0, 86, 59
1, 1202061, Note_on_c, 0, 80, 73
1, 1202066, Note_on_c, 0, 71, 82
1, 1202087, Note_on_c, 0, 74, 30
1, 1202090, Note_off_c, 0, 71, 66
1, 1202122, Note_off_c, 0, 74, 51
1, 1202146, Note_on_c, 0, 86, 77
1, 1202146, Note_off_c, 0, 80, 58
1, 1202206, Note_off_c, 0, 86, 64
1, 1202224, Note_on_c, 0, 72, 91
1, 1202236, Note_on_c, 0, 79, 75
1, 1202252, Note_on_c, 0, 75, 66
1, 1202278, Note_off_c, 0, 75, 64
1, 1202294, Control_c, 0, 64, 28
1, 1202309, Control_c, 0, 64, 0
1, 1202314, Note_off_c, 0, 79, 60
1, 1202316, Note_on_c, 0, 87, 72
1, 1202343, Note_off_c, 0, 72, 58
1, 1202377, Note_off_c, 0, 87, 61
1, 1202395, Note_on_c, 0, 79, 65
1, 1202410, Note_on_c, 0, 75, 36
1, 1202413, Note_on_c, 0, 60, 76
1, 1202434, Note_off_c, 0, 75, 48
1, 1202456, Note_off_c, 0, 60, 61
1, 1202463, Note_off_c, 0, 79, 59
1, 1202470, Note_on_c, 0, 87, 73
1, 1202535, Note_off_c, 0, 87, 62
1, 1202549, Note_on_c, 0, 79, 62
1, 1202560, Note_on_c, 0, 60, 72
1, 1202560, Note_on_c, 0, 75, 45
1, 1202587, Note_off_c, 0, 60, 69
1, 1202590, Control_c, 0, 64, 28
1, 1202596, Note_off_c, 0, 75, 54
1, 1202607, Note_off_c, 0, 79, 63
1, 1202635, Note_on_c, 0, 86, 71
1, 1202716, Control_c, 0, 64, 0
1, 1202718, Note_on_c, 0, 65, 83
1, 1202724, Note_on_c, 0, 75, 60
1, 1202724, Note_on_c, 0, 81, 69
1, 1202736, Note_off_c, 0, 86, 62
1, 1202742, Note_off_c, 0, 65, 64
1, 1202753, Note_off_c, 0, 75, 66
1, 1202769, Note_off_c, 0, 81, 64
1, 1202800, Note_on_c, 0, 84, 71
1, 1202869, Note_off_c, 0, 84, 51
1, 1202887, Note_on_c, 0, 53, 90
1, 1202888, Note_on_c, 0, 81, 75
1, 1202896, Note_on_c, 0, 55, 73
1, 1202909, Note_on_c, 0, 75, 54
1, 1202920, Note_off_c, 0, 53, 66
1, 1202922, Note_off_c, 0, 55, 65
1, 1202929, Note_off_c, 0, 75, 61
1, 1202942, Note_off_c, 0, 81, 62
1, 1202964, Note_on_c, 0, 84, 81
1, 1202980, Note_on_c, 0, 52, 95
1, 1203015, Note_off_c, 0, 52, 67
1, 1203033, Note_off_c, 0, 84, 62
1, 1203034, Note_on_c, 0, 75, 57
1, 1203042, Note_on_c, 0, 81, 80
1, 1203052, Note_on_c, 0, 53, 103
1, 1203089, Note_off_c, 0, 53, 68
1, 1203090, Note_off_c, 0, 75, 63
1, 1203104, Note_off_c, 0, 81, 62
1, 1203137, Note_on_c, 0, 84, 71
1, 1203217, Note_on_c, 0, 58, 78
1, 1203231, Note_on_c, 0, 82, 72
1, 1203242, Note_off_c, 0, 58, 69
1, 1203242, Note_off_c, 0, 84, 56
1, 1203243, Note_on_c, 0, 74, 67
1, 1203270, Note_off_c, 0, 74, 68
1, 1203295, Note_off_c, 0, 82, 56
1, 1203321, Note_on_c, 0, 86, 67
1, 1203363, Note_off_c, 0, 86, 64
1, 1203374, Note_on_c, 0, 46, 74
1, 1203398, Note_on_c, 0, 82, 74
1, 1203409, Note_off_c, 0, 46, 64
1, 1203427, Note_on_c, 0, 74, 39
1, 1203437, Note_off_c, 0, 82, 57
1, 1203455, Note_off_c, 0, 74, 48
1, 1203478, Note_on_c, 0, 86, 77
1, 1203479, Note_on_c, 0, 45, 81
1, 1203508, Note_off_c, 0, 45, 66
1, 1203537, Note_off_c, 0, 86, 61
1, 1203564, Note_on_c, 0, 82, 66
1, 1203643, Note_on_c, 0, 86, 67
1, 1203646, Note_off_c, 0, 82, 59
1, 1203735, Note_off_c, 0, 86, 61
1, 1203739, Note_on_c, 0, 41, 57
1, 1203743, Note_on_c, 0, 81, 65
1, 1203774, Note_on_c, 0, 75, 33
1, 1203802, Note_off_c, 0, 75, 44
1, 1203804, Note_off_c, 0, 81, 46
1, 1203817, Note_on_c, 0, 84, 67
1, 1203875, Note_off_c, 0, 84, 59
1, 1203901, Note_off_c, 0, 41, 62
1, 1203910, Note_on_c, 0, 43, 72
1, 1203910, Note_on_c, 0, 81, 66
1, 1203926, Note_on_c, 0, 75, 38
1, 1203952, Note_off_c, 0, 75, 56
1, 1203981, Note_off_c, 0, 43, 61
1, 1203989, Note_on_c, 0, 84, 70
1, 1203996, Note_off_c, 0, 81, 48
1, 1204007, Note_on_c, 0, 45, 60
1, 1204055, Note_off_c, 0, 45, 63
1, 1204062, Note_on_c, 0, 46, 69
1, 1204070, Note_off_c, 0, 84, 57
1, 1204090, Note_on_c, 0, 81, 66
1, 1204093, Note_on_c, 0, 75, 42
1, 1204119, Note_off_c, 0, 46, 61
1, 1204122, Note_off_c, 0, 75, 60
1, 1204131, Note_off_c, 0, 81, 60
1, 1204171, Note_on_c, 0, 48, 80
1, 1204173, Note_on_c, 0, 84, 77
1, 1204201, Note_off_c, 0, 48, 66
1, 1204226, Note_off_c, 0, 84, 62
1, 1204257, Note_on_c, 0, 46, 89
1, 1204257, Note_on_c, 0, 82, 80
1, 1204272, Note_on_c, 0, 74, 63
1, 1204289, Note_off_c, 0, 46, 66
1, 1204297, Note_off_c, 0, 74, 65
1, 1204320, Note_off_c, 0, 82, 57
1, 1204338, Note_on_c, 0, 86, 76
1, 1204395, Note_off_c, 0, 86, 58
1, 1204418, Note_on_c, 0, 46, 79
1, 1204420, Note_on_c, 0, 82, 76
1, 1204432, Note_on_c, 0, 74, 65
1, 1204456, Note_off_c, 0, 46, 62
1, 1204462, Note_off_c, 0, 74, 63
1, 1204481, Note_off_c, 0, 82, 58
1, 1204506, Note_on_c, 0, 86, 70
1, 1204568, Note_off_c, 0, 86, 61
1, 1204579, Note_on_c, 0, 46, 78
1, 1204593, Note_on_c, 0, 82, 68
1, 1204602, Note_off_c, 0, 46, 67
1, 1204611, Note_on_c, 0, 74, 56
1, 1204632, Note_off_c, 0, 74, 64
1, 1204660, Note_off_c, 0, 82, 54
1, 1204670, Note_on_c, 0, 86, 74
1, 1204754, Note_off_c, 0, 86, 60
1, 1204760, Note_on_c, 0, 53, 56
1, 1204762, Note_on_c, 0, 81, 68
1, 1204778, Note_on_c, 0, 75, 55
1, 1204795, Note_on_c, 0, 52, 18
1, 1204803, Note_off_c, 0, 75, 62
1, 1204832, Note_off_c, 0, 81, 53
1, 1204844, Note_off_c, 0, 52, 28
1, 1204848, Note_on_c, 0, 84, 69
1, 1204925, Note_off_c, 0, 84, 56
1, 1204927, Note_off_c, 0, 53, 63
1, 1204933, Note_on_c, 0, 55, 71
1, 1204948, Note_on_c, 0, 81, 68
1, 1204972, Note_on_c, 0, 75, 42
1, 1204995, Note_off_c, 0, 75, 53
1, 1204998, Note_off_c, 0, 55, 63
1, 1205021, Note_on_c, 0, 57, 62
1, 1205023, Note_on_c, 0, 84, 76
1, 1205044, Note_off_c, 0, 81, 51
1, 1205072, Note_off_c, 0, 57, 63
1, 1205089, Note_on_c, 0, 58, 77
1, 1205111, Note_on_c, 0, 75, 61
1, 1205116, Note_off_c, 0, 84, 51
1, 1205128, Note_on_c, 0, 81, 56
1, 1205136, Note_off_c, 0, 58, 61
1, 1205161, Note_off_c, 0, 81, 63
1, 1205181, Note_off_c, 0, 75, 49
1, 1205192, Note_on_c, 0, 60, 79
1, 1205199, Note_on_c, 0, 84, 79
1, 1205223, Note_off_c, 0, 60, 68
1, 1205282, Note_on_c, 0, 58, 97
1, 1205286, Note_on_c, 0, 82, 81
1, 1205297, Note_on_c, 0, 74, 69
1, 1205316, Note_off_c, 0, 84, 52
1, 1205321, Note_off_c, 0, 74, 69
1, 1205323, Note_off_c, 0, 58, 65
1, 1205342, Note_off_c, 0, 82, 60
1, 1205371, Note_on_c, 0, 86, 78
1, 1205429, Note_off_c, 0, 86, 59
1, 1205444, Note_on_c, 0, 58, 81
1, 1205450, Note_on_c, 0, 82, 74
1, 1205460, Note_on_c, 0, 74, 66
1, 1205489, Note_off_c, 0, 74, 64
1, 1205491, Note_off_c, 0, 58, 61
1, 1205524, Note_off_c, 0, 82, 52
1, 1205531, Note_on_c, 0, 86, 75
1, 1205595, Note_off_c, 0, 86, 62
1, 1205609, Note_on_c, 0, 58, 65
1, 1205619, Note_on_c, 0, 82, 71
1, 1205624, Note_on_c, 0, 74, 62
1, 1205628, Note_off_c, 0, 58, 64
1, 1205663, Note_off_c, 0, 74, 64
1, 1205704, Note_off_c, 0, 82, 57
1, 1205709, Note_on_c, 0, 86, 67
1, 1205789, Note_on_c, 0, 65, 67
1, 1205795, Note_off_c, 0, 86, 61
1, 1205801, Note_on_c, 0, 81, 59
1, 1205823, Note_on_c, 0, 75, 45
1, 1205848, Note_off_c, 0, 75, 55
1, 1205861, Note_off_c, 0, 81, 59
1, 1205878, Note_on_c, 0, 84, 65
1, 1205934, Note_off_c, 0, 84, 57
1, 1205941, Note_off_c, 0, 65, 60
1, 1205959, Note_on_c, 0, 67, 65
1, 1205968, Note_on_c, 0, 81, 63
1, 1205981, Note_on_c, 0, 75, 35
1, 1206009, Note_off_c, 0, 75, 56
1, 1206015, Note_off_c, 0, 67, 62
1, 1206036, Note_on_c, 0, 69, 63
1, 1206044, Note_on_c, 0, 84, 72
1, 1206060, Note_off_c, 0, 81, 46
1, 1206078, Note_off_c, 0, 69, 60
1, 1206100, Note_on_c, 0, 70, 67
1, 1206141, Note_on_c, 0, 75, 29
1, 1206158, Note_off_c, 0, 70, 59
1, 1206163, Note_off_c, 0, 84, 59
1, 1206177, Note_on_c, 0, 82, 61
1, 1206199, Note_off_c, 0, 75, 60
1, 1206201, Note_on_c, 0, 72, 68
1, 1206226, Note_off_c, 0, 72, 67
1, 1206240, Note_off_c, 0, 82, 62
1, 1206252, Note_on_c, 0, 86, 67
1, 1206302, Note_off_c, 0, 86, 58
1, 1206305, Note_on_c, 0, 70, 70
1, 1206318, Note_on_c, 0, 74, 65
1, 1206319, Note_on_c, 0, 82, 64
1, 1206328, Note_off_c, 0, 70, 71
1, 1206344, Note_off_c, 0, 74, 68
1, 1206356, Note_off_c, 0, 82, 57
1, 1206413, Note_on_c, 0, 86, 59
1, 1206445, Note_off_c, 0, 86, 63
1, 1206457, Note_on_c, 0, 70, 73
1, 1206464, Note_on_c, 0, 82, 66
1, 1206477, Note_on_c, 0, 74, 61
1, 1206497, Note_off_c, 0, 70, 58
1, 1206510, Note_off_c, 0, 74, 64
1, 1206535, Note_off_c, 0, 82, 56
1, 1206552, Note_on_c, 0, 86, 63
1, 1206623, Note_on_c, 0, 70, 58
1, 1206623, Control_c, 0, 64, 29
1, 1206626, Note_off_c, 0, 86, 58
1, 1206635, Note_on_c, 0, 82, 64
1, 1206642, Note_off_c, 0, 70, 64
1, 1206648, Note_on_c, 0, 74, 40
1, 1206653, Control_c, 0, 64, 0
1, 1206661, Note_off_c, 0, 82, 66
1, 1206677, Note_off_c, 0, 74, 34
1, 1206806, Note_on_c, 0, 67, 51
1, 1206807, Note_on_c, 0, 82, 71
1, 1206808, Note_on_c, 0, 63, 47
1, 1206829, Note_off_c, 0, 82, 69
1, 1206832, Note_off_c, 0, 63, 59
1, 1206849, Note_off_c, 0, 67, 57
1, 1206883, Note_on_c, 0, 70, 54
1, 1206917, Note_off_c, 0, 70, 62
1, 1206961, Note_on_c, 0, 63, 41
1, 1206965, Note_on_c, 0, 67, 54
1, 1206978, Note_on_c, 0, 80, 45
1, 1206996, Note_on_c, 0, 79, 65
1, 1207002, Note_off_c, 0, 80, 58
1, 1207012, Note_off_c, 0, 63, 53
1, 1207032, Note_off_c, 0, 67, 60
1, 1207032, Note_on_c, 0, 70, 60
1, 1207036, Note_off_c, 0, 79, 58
1, 1207065, Note_on_c, 0, 77, 57
1, 1207071, Note_off_c, 0, 70, 57
1, 1207083, Note_off_c, 0, 77, 64
1, 1207145, Note_on_c, 0, 79, 72
1, 1207153, Note_on_c, 0, 63, 49
1, 1207160, Note_on_c, 0, 67, 47
1, 1207214, Note_off_c, 0, 63, 56
1, 1207220, Note_off_c, 0, 67, 55
1, 1207236, Note_on_c, 0, 70, 58
1, 1207275, Note_off_c, 0, 70, 58
1, 1207315, Note_on_c, 0, 82, 79
1, 1207321, Note_on_c, 0, 62, 67
1, 1207325, Note_off_c, 0, 79, 50
1, 1207328, Note_on_c, 0, 65, 58
1, 1207357, Note_off_c, 0, 82, 60
1, 1207357, Note_off_c, 0, 62, 62
1, 1207365, Note_off_c, 0, 65, 60
1, 1207390, Note_on_c, 0, 70, 66
1, 1207458, Note_off_c, 0, 70, 57
1, 1207476, Note_on_c, 0, 62, 63
1, 1207477, Note_on_c, 0, 79, 35
1, 1207482, Note_on_c, 0, 65, 60
1, 1207503, Note_on_c, 0, 77, 79
1, 1207510, Note_off_c, 0, 79, 60
1, 1207534, Note_off_c, 0, 62, 51
1, 1207548, Note_off_c, 0, 77, 64
1, 1207551, Note_off_c, 0, 65, 59
1, 1207557, Note_on_c, 0, 70, 71
1, 1207577, Note_on_c, 0, 76, 67
1, 1207613, Note_off_c, 0, 70, 59
1, 1207631, Note_off_c, 0, 76, 42
1, 1207640, Note_on_c, 0, 77, 73
1, 1207655, Note_on_c, 0, 61, 66
1, 1207661, Note_on_c, 0, 65, 56
1, 1207661, Note_off_c, 0, 77, 71
1, 1207716, Note_off_c, 0, 65, 46
1, 1207720, Note_off_c, 0, 61, 51
1, 1207725, Note_on_c, 0, 70, 69
1, 1207743, Control_c, 0, 67, 123
1, 1207757, Control_c, 0, 67, 106
1, 1207772, Control_c, 0, 67, 88
1, 1207783, Note_off_c, 0, 70, 59
1, 1207787, Control_c, 0, 67, 69
1, 1207802, Control_c, 0, 67, 47
1, 1207809, Note_on_c, 0, 84, 81
1, 1207816, Control_c, 0, 67, 0
1, 1207823, Note_on_c, 0, 65, 65
1, 1207824, Note_on_c, 0, 60, 69
1, 1207846, Control_c, 0, 64, 33
1, 1207861, Control_c, 0, 64, 43
1, 1207876, Control_c, 0, 64, 45
1, 1207905, Note_off_c, 0, 60, 64
1, 1207911, Note_on_c, 0, 68, 69
1, 1207913, Control_c, 0, 64, 47
1, 1207918, Note_off_c, 0, 65, 60
1, 1207928, Control_c, 0, 64, 51
1, 1207943, Control_c, 0, 64, 56
1, 1207958, Control_c, 0, 64, 59
1, 1207978, Note_on_c, 0, 82, 80
1, 1207979, Note_off_c, 0, 68, 58
1, 1207987, Control_c, 0, 64, 60
1, 1207989, Note_on_c, 0, 60, 70
1, 1207996, Note_on_c, 0, 65, 71
1, 1208002, Control_c, 0, 64, 62
1, 1208016, Control_c, 0, 64, 65
1, 1208024, Note_off_c, 0, 84, 57
1, 1208031, Control_c, 0, 64, 70
1, 1208046, Control_c, 0, 64, 76
1, 1208057, Note_off_c, 0, 60, 53
1, 1208061, Control_c, 0, 64, 83
1, 1208065, Note_on_c, 0, 80, 84
1, 1208072, Note_on_c, 0, 68, 78
1, 1208075, Note_off_c, 0, 65, 61
1, 1208076, Control_c, 0, 64, 88
1, 1208090, Control_c, 0, 64, 91
1, 1208105, Control_c, 0, 64, 93
1, 1208114, Note_off_c, 0, 82, 57
1, 1208120, Control_c, 0, 64, 94
1, 1208135, Control_c, 0, 64, 95
1, 1208138, Note_on_c, 0, 79, 74
1, 1208142, Note_off_c, 0, 68, 61
1, 1208153, Note_on_c, 0, 65, 68
1, 1208154, Note_on_c, 0, 60, 68
1, 1208160, Note_off_c, 0, 80, 60
1, 1208165, Control_c, 0, 64, 97
1, 1208208, Note_off_c, 0, 79, 57
1, 1208224, Note_on_c, 0, 68, 81
1, 1208229, Note_on_c, 0, 77, 78
1, 1208236, Note_off_c, 0, 65, 59
1, 1208245, Note_off_c, 0, 60, 57
1, 1208260, Note_off_c, 0, 77, 60
1, 1208280, Note_off_c, 0, 68, 60
1, 1208313, Control_c, 0, 67, 48
1, 1208328, Control_c, 0, 64, 90
1, 1208328, Control_c, 0, 67, 49
1, 1208332, Note_on_c, 0, 65, 73
1, 1208337, Note_on_c, 0, 84, 76
1, 1208338, Note_on_c, 0, 60, 60
1, 1208343, Control_c, 0, 64, 77
1, 1208343, Control_c, 0, 67, 52
1, 1208357, Control_c, 0, 64, 61
1, 1208357, Control_c, 0, 67, 63
1, 1208372, Control_c, 0, 64, 43
1, 1208372, Control_c, 0, 67, 97
1, 1208387, Control_c, 0, 64, 0
1, 1208387, Control_c, 0, 67, 127
1, 1208422, Note_off_c, 0, 60, 60
1, 1208426, Note_on_c, 0, 67, 68
1, 1208430, Note_off_c, 0, 65, 56
1, 1208461, Control_c, 0, 64, 45
1, 1208476, Control_c, 0, 64, 59
1, 1208480, Note_off_c, 0, 84, 59
1, 1208490, Control_c, 0, 64, 64
1, 1208499, Note_off_c, 0, 67, 58
1, 1208506, Control_c, 0, 64, 65
1, 1208516, Note_on_c, 0, 72, 54
1, 1208521, Note_on_c, 0, 64, 58
1, 1208535, Note_on_c, 0, 60, 55
1, 1208558, Note_off_c, 0, 72, 56
1, 1208566, Control_c, 0, 64, 63
1, 1208573, Note_off_c, 0, 64, 60
1, 1208580, Control_c, 0, 64, 59
1, 1208585, Note_off_c, 0, 60, 50
1, 1208595, Control_c, 0, 64, 51
1, 1208610, Control_c, 0, 64, 39
1, 1208614, Note_on_c, 0, 67, 66
1, 1208625, Control_c, 0, 64, 0
1, 1208670, Note_off_c, 0, 67, 54
1, 1208677, Control_c, 0, 64, 42
1, 1208692, Control_c, 0, 64, 59
1, 1208707, Control_c, 0, 64, 70
1, 1208711, Note_on_c, 0, 72, 58
1, 1208721, Control_c, 0, 64, 81
1, 1208726, Note_on_c, 0, 64, 51
1, 1208728, Note_on_c, 0, 60, 50
1, 1208736, Control_c, 0, 64, 94
1, 1208751, Control_c, 0, 64, 104
1, 1208761, Note_off_c, 0, 72, 57
1, 1208766, Control_c, 0, 64, 127
1, 1208799, Note_on_c, 0, 67, 60
1, 1208805, Note_off_c, 0, 64, 63
1, 1208810, Note_off_c, 0, 60, 54
1, 1208826, Note_off_c, 0, 67, 65
1, 1208935, Note_on_c, 0, 60, 71
1, 1208941, Note_on_c, 0, 72, 65
1, 1208943, Note_on_c, 0, 56, 67
1, 1208960, Note_on_c, 0, 68, 43
1, 1208973, Control_c, 0, 64, 93
1, 1208986, Note_off_c, 0, 68, 55
1, 1208987, Control_c, 0, 64, 72
1, 1209002, Control_c, 0, 64, 55
1, 1209017, Control_c, 0, 64, 0
1, 1209019, Note_off_c, 0, 72, 56
1, 1209020, Note_on_c, 0, 75, 74
1, 1209095, Note_off_c, 0, 75, 55
1, 1209106, Note_on_c, 0, 72, 72
1, 1209111, Note_on_c, 0, 68, 58
1, 1209118, Note_on_c, 0, 61, 79
1, 1209145, Note_off_c, 0, 68, 59
1, 1209164, Note_off_c, 0, 60, 59
1, 1209191, Note_on_c, 0, 75, 84
1, 1209192, Note_off_c, 0, 72, 58
1, 1209267, Note_off_c, 0, 75, 61
1, 1209273, Note_on_c, 0, 72, 75
1, 1209276, Note_on_c, 0, 60, 75
1, 1209283, Note_on_c, 0, 68, 63
1, 1209318, Note_off_c, 0, 61, 62
1, 1209321, Note_off_c, 0, 68, 54
1, 1209324, Note_off_c, 0, 56, 61
1, 1209354, Note_on_c, 0, 75, 76
1, 1209375, Note_off_c, 0, 72, 60
1, 1209453, Note_on_c, 0, 77, 67
1, 1209453, Note_off_c, 0, 60, 63
1, 1209456, Note_on_c, 0, 58, 71
1, 1209467, Note_on_c, 0, 49, 61
1, 1209467, Note_off_c, 0, 75, 57
1, 1209527, Note_on_c, 0, 80, 77
1, 1209527, Note_off_c, 0, 77, 64
1, 1209600, Note_off_c, 0, 80, 60
1, 1209613, Note_on_c, 0, 53, 67
1, 1209634, Note_on_c, 0, 68, 31
1, 1209634, Note_on_c, 0, 77, 47
1, 1209666, Note_off_c, 0, 68, 49
1, 1209676, Note_off_c, 0, 58, 62
1, 1209696, Note_on_c, 0, 80, 77
1, 1209714, Note_off_c, 0, 77, 62
1, 1209750, Note_off_c, 0, 53, 64
1, 1209759, Note_on_c, 0, 55, 73
1, 1209769, Note_off_c, 0, 80, 59
1, 1209777, Note_on_c, 0, 78, 73
1, 1209788, Note_off_c, 0, 49, 63
1, 1209803, Note_on_c, 0, 68, 37
1, 1209843, Note_off_c, 0, 68, 47
1, 1209855, Note_off_c, 0, 78, 58
1, 1209864, Note_on_c, 0, 80, 77
1, 1209894, Note_on_c, 0, 58, 62
1, 1209938, Note_on_c, 0, 51, 63
1, 1209940, Note_off_c, 0, 58, 61
1, 1209948, Note_off_c, 0, 55, 57
1, 1209962, Note_off_c, 0, 80, 60
1, 1209963, Note_on_c, 0, 56, 65
1, 1209970, Note_on_c, 0, 73, 31
1, 1209994, Note_on_c, 0, 72, 45
1, 1210004, Note_off_c, 0, 73, 53
1, 1210054, Note_off_c, 0, 72, 61
1, 1210063, Note_on_c, 0, 75, 63
1, 1210135, Note_off_c, 0, 75, 54
1, 1210152, Note_off_c, 0, 56, 61
1, 1210160, Note_on_c, 0, 55, 54
1, 1210173, Note_on_c, 0, 68, 38
1, 1210174, Note_on_c, 0, 72, 44
1, 1210201, Note_off_c, 0, 68, 53
1, 1210215, Note_off_c, 0, 72, 48
1, 1210238, Note_on_c, 0, 75, 75
1, 1210294, Note_on_c, 0, 56, 66
1, 1210306, Note_off_c, 0, 75, 57
1, 1210315, Note_on_c, 0, 72, 69
1, 1210328, Note_off_c, 0, 51, 51
1, 1210335, Note_on_c, 0, 68, 46
1, 1210367, Note_off_c, 0, 68, 59
1, 1210379, Note_off_c, 0, 72, 54
1, 1210382, Control_c, 0, 64, 28
1, 1210393, Note_off_c, 0, 55, 35
1, 1210403, Note_on_c, 0, 75, 87
1, 1210411, Control_c, 0, 64, 0
1, 1210441, Control_c, 0, 64, 28
1, 1210456, Control_c, 0, 64, 31
1, 1210469, Note_off_c, 0, 75, 52
1, 1210485, Note_on_c, 0, 58, 80
1, 1210485, Control_c, 0, 64, 0
1, 1210487, Note_on_c, 0, 51, 75
1, 1210489, Note_on_c, 0, 73, 83
1, 1210498, Note_on_c, 0, 67, 74
1, 1210526, Note_off_c, 0, 56, 62
1, 1210539, Note_off_c, 0, 67, 63
1, 1210549, Note_off_c, 0, 73, 58
1, 1210559, Control_c, 0, 64, 31
1, 1210574, Note_on_c, 0, 75, 86
1, 1210574, Control_c, 0, 64, 47
1, 1210589, Control_c, 0, 64, 59
1, 1210603, Control_c, 0, 64, 62
1, 1210618, Control_c, 0, 64, 62
1, 1210660, Note_on_c, 0, 73, 78
1, 1210662, Note_off_c, 0, 75, 60
1, 1210663, Control_c, 0, 64, 63
1, 1210669, Note_on_c, 0, 67, 66
1, 1210677, Control_c, 0, 64, 62
1, 1210692, Control_c, 0, 64, 60
1, 1210698, Note_off_c, 0, 67, 60
1, 1210707, Control_c, 0, 64, 48
1, 1210715, Note_off_c, 0, 73, 62
1, 1210722, Control_c, 0, 64, 0
1, 1210737, Note_on_c, 0, 75, 86
1, 1210752, Control_c, 0, 64, 34
1, 1210767, Control_c, 0, 64, 52
1, 1210782, Control_c, 0, 64, 66
1, 1210797, Control_c, 0, 64, 79
1, 1210800, Note_off_c, 0, 75, 59
1, 1210811, Control_c, 0, 64, 120
1, 1210814, Note_on_c, 0, 73, 83
1, 1210824, Note_on_c, 0, 67, 66
1, 1210826, Control_c, 0, 64, 127
1, 1210836, Note_off_c, 0, 51, 60
1, 1210846, Note_on_c, 0, 59, 67
1, 1210851, Note_off_c, 0, 67, 65
1, 1210857, Note_off_c, 0, 58, 61
1, 1210880, Note_off_c, 0, 59, 66
1, 1210904, Note_on_c, 0, 75, 89
1, 1210923, Note_off_c, 0, 73, 62
1, 1210923, Control_c, 0, 67, 109
1, 1210938, Control_c, 0, 67, 87
1, 1210949, Note_off_c, 0, 75, 62
1, 1210953, Control_c, 0, 67, 69
1, 1210968, Control_c, 0, 67, 59
1, 1210982, Control_c, 0, 67, 57
1, 1210988, Note_on_c, 0, 75, 76
1, 1210993, Note_on_c, 0, 72, 82
1, 1210997, Control_c, 0, 64, 74
1, 1210997, Control_c, 0, 67, 53
1, 1210998, Note_on_c, 0, 60, 71
1, 1210998, Note_on_c, 0, 68, 76
1, 1210999, Note_on_c, 0, 56, 69
1, 1211009, Note_off_c, 0, 75, 63
1, 1211012, Note_off_c, 0, 72, 71
1, 1211012, Control_c, 0, 64, 0
1, 1211012, Control_c, 0, 67, 40
1, 1211014, Note_off_c, 0, 68, 68
1, 1211027, Control_c, 0, 67, 0
1, 1211034, Note_off_c, 0, 56, 65
1, 1211070, Note_off_c, 0, 60, 63
1, 1211086, Note_on_c, 0, 63, 60
1, 1211125, Note_off_c, 0, 63, 57
1, 1211169, Note_on_c, 0, 56, 50
1, 1211170, Note_on_c, 0, 60, 63
1, 1211175, Note_on_c, 0, 73, 63
1, 1211186, Note_on_c, 0, 72, 68
1, 1211225, Note_off_c, 0, 73, 42
1, 1211226, Note_off_c, 0, 56, 57
1, 1211231, Note_off_c, 0, 72, 61
1, 1211234, Note_off_c, 0, 60, 64
1, 1211239, Note_on_c, 0, 63, 65
1, 1211243, Note_on_c, 0, 70, 79
1, 1211280, Note_off_c, 0, 70, 66
1, 1211292, Note_off_c, 0, 63, 54
1, 1211327, Note_on_c, 0, 72, 88
1, 1211330, Note_on_c, 0, 56, 67
1, 1211338, Note_on_c, 0, 60, 62
1, 1211375, Note_off_c, 0, 56, 58
1, 1211411, Note_on_c, 0, 63, 64
1, 1211428, Note_off_c, 0, 60, 58
1, 1211470, Note_off_c, 0, 63, 60
1, 1211500, Note_on_c, 0, 75, 86
1, 1211501, Note_on_c, 0, 55, 72
1, 1211503, Note_off_c, 0, 72, 37
1, 1211507, Note_on_c, 0, 58, 64
1, 1211530, Control_c, 0, 64, 52
1, 1211545, Note_off_c, 0, 75, 65
1, 1211545, Control_c, 0, 64, 63
1, 1211549, Note_off_c, 0, 55, 61
1, 1211555, Note_off_c, 0, 58, 60
1, 1211560, Control_c, 0, 64, 63
1, 1211575, Control_c, 0, 64, 63
1, 1211578, Note_on_c, 0, 63, 74
1, 1211590, Control_c, 0, 64, 62
1, 1211641, Control_c, 0, 64, 62
1, 1211646, Note_off_c, 0, 63, 57
1, 1211656, Control_c, 0, 64, 61
1, 1211666, Note_on_c, 0, 72, 55
1, 1211670, Note_on_c, 0, 55, 62
1, 1211671, Note_on_c, 0, 58, 66
1, 1211671, Control_c, 0, 64, 58
1, 1211686, Control_c, 0, 64, 50
1, 1211697, Note_on_c, 0, 70, 86
1, 1211701, Control_c, 0, 64, 37
1, 1211707, Note_off_c, 0, 72, 59
1, 1211712, Note_off_c, 0, 55, 64
1, 1211717, Control_c, 0, 64, 0
1, 1211738, Note_off_c, 0, 58, 57
1, 1211747, Note_on_c, 0, 63, 73
1, 1211748, Note_off_c, 0, 70, 64
1, 1211777, Note_on_c, 0, 69, 74
1, 1211799, Note_off_c, 0, 63, 57
1, 1211805, Control_c, 0, 67, 39
1, 1211820, Control_c, 0, 67, 66
1, 1211832, Note_on_c, 0, 70, 84
1, 1211835, Control_c, 0, 67, 97
1, 1211837, Note_on_c, 0, 54, 68
1, 1211837, Note_off_c, 0, 69, 65
1, 1211839, Note_on_c, 0, 58, 72
1, 1211850, Control_c, 0, 67, 112
1, 1211853, Note_off_c, 0, 70, 69
1, 1211864, Control_c, 0, 67, 116
1, 1211873, Note_off_c, 0, 54, 60
1, 1211879, Control_c, 0, 67, 126
1, 1211898, Note_off_c, 0, 58, 59
1, 1211913, Note_on_c, 0, 63, 71
1, 1211969, Note_off_c, 0, 63, 63
1, 1212004, Note_on_c, 0, 53, 71
1, 1212006, Note_on_c, 0, 77, 84
1, 1212021, Note_on_c, 0, 58, 50
1, 1212067, Note_off_c, 0, 53, 58
1, 1212093, Note_on_c, 0, 61, 76
1, 1212096, Note_off_c, 0, 58, 64
1, 1212147, Note_off_c, 0, 61, 63
1, 1212174, Note_on_c, 0, 75, 83
1, 1212175, Note_on_c, 0, 53, 73
1, 1212182, Note_on_c, 0, 58, 65
1, 1212195, Note_off_c, 0, 77, 57
1, 1212239, Note_off_c, 0, 58, 65
1, 1212244, Note_off_c, 0, 53, 47
1, 1212249, Note_on_c, 0, 61, 79
1, 1212254, Note_on_c, 0, 73, 87
1, 1212285, Note_off_c, 0, 75, 62
1, 1212311, Note_off_c, 0, 61, 60
1, 1212313, Note_off_c, 0, 73, 63
1, 1212330, Note_on_c, 0, 58, 71
1, 1212345, Note_on_c, 0, 72, 79
1, 1212349, Note_on_c, 0, 53, 50
1, 1212394, Note_off_c, 0, 53, 52
1, 1212399, Note_off_c, 0, 58, 63
1, 1212409, Note_off_c, 0, 72, 59
1, 1212418, Note_on_c, 0, 61, 73
1, 1212422, Note_on_c, 0, 70, 67
1, 1212449, Note_off_c, 0, 70, 67
1, 1212453, Note_off_c, 0, 61, 58
1, 1212508, Note_on_c, 0, 58, 72
1, 1212534, Note_on_c, 0, 77, 60
1, 1212549, Note_on_c, 0, 53, 34
1, 1212597, Note_off_c, 0, 58, 59
1, 1212615, Note_off_c, 0, 53, 58
1, 1212627, Note_on_c, 0, 60, 58
1, 1212674, Note_off_c, 0, 77, 56
1, 1212702, Note_off_c, 0, 60, 53
1, 1212702, Control_c, 0, 64, 42
1, 1212717, Control_c, 0, 64, 53
1, 1212718, Note_on_c, 0, 65, 46
1, 1212723, Note_on_c, 0, 57, 53
1, 1212732, Control_c, 0, 64, 56
1, 1212745, Note_on_c, 0, 53, 41
1, 1212747, Control_c, 0, 64, 57
1, 1212761, Control_c, 0, 64, 60
1, 1212776, Control_c, 0, 64, 64
1, 1212778, Note_off_c, 0, 57, 58
1, 1212782, Note_off_c, 0, 65, 55
1, 1212791, Note_off_c, 0, 53, 51
1, 1212791, Control_c, 0, 64, 69
1, 1212806, Control_c, 0, 64, 77
1, 1212821, Control_c, 0, 64, 88
1, 1212833, Note_on_c, 0, 60, 41
1, 1212836, Control_c, 0, 64, 106
1, 1212851, Control_c, 0, 64, 127
1, 1212869, Note_off_c, 0, 60, 51
1, 1212889, Note_on_c, 0, 65, 60
1, 1212904, Note_on_c, 0, 57, 55
1, 1212915, Note_on_c, 0, 53, 43
1, 1212918, Note_off_c, 0, 65, 65
1, 1212955, Note_off_c, 0, 57, 62
1, 1212957, Note_off_c, 0, 53, 62
1, 1212982, Note_on_c, 0, 60, 55
1, 1213010, Note_off_c, 0, 60, 66
1, 1213142, Note_on_c, 0, 77, 56
1, 1213150, Note_on_c, 0, 65, 49
1, 1213155, Note_on_c, 0, 61, 49
1, 1213199, Control_c, 0, 64, 114
1, 1213213, Control_c, 0, 64, 84
1, 1213228, Note_off_c, 0, 77, 57
1, 1213228, Control_c, 0, 64, 66
1, 1213229, Note_on_c, 0, 80, 62
1, 1213243, Control_c, 0, 64, 49
1, 1213258, Control_c, 0, 64, 0
1, 1213315, Note_off_c, 0, 80, 57
1, 1213332, Note_on_c, 0, 77, 66
1, 1213345, Note_on_c, 0, 66, 76
1, 1213351, Note_on_c, 0, 73, 42
1, 1213381, Note_off_c, 0, 73, 54
1, 1213384, Note_off_c, 0, 65, 59
1, 1213411, Note_off_c, 0, 77, 59
1, 1213412, Note_on_c, 0, 80, 78
1, 1213486, Note_off_c, 0, 80, 61
1, 1213494, Note_on_c, 0, 77, 78
1, 1213499, Note_on_c, 0, 65, 69
1, 1213504, Note_on_c, 0, 73, 53
1, 1213515, Note_off_c, 0, 66, 65
1, 1213520, Note_off_c, 0, 61, 62
1, 1213540, Note_off_c, 0, 73, 61
1, 1213580, Note_on_c, 0, 80, 77
1, 1213584, Note_off_c, 0, 77, 59
1, 1213636, Note_off_c, 0, 65, 58
1, 1213651, Note_on_c, 0, 82, 70
1, 1213656, Note_off_c, 0, 80, 60
1, 1213658, Note_on_c, 0, 63, 70
1, 1213679, Note_on_c, 0, 54, 53
1, 1213735, Note_on_c, 0, 85, 77
1, 1213738, Note_off_c, 0, 82, 60
1, 1213804, Note_off_c, 0, 63, 57
1, 1213811, Note_off_c, 0, 85, 59
1, 1213824, Note_on_c, 0, 82, 71
1, 1213827, Note_on_c, 0, 58, 73
1, 1213912, Note_on_c, 0, 85, 82
1, 1213924, Note_off_c, 0, 82, 45
1, 1213983, Note_on_c, 0, 60, 68
1, 1214007, Note_off_c, 0, 85, 61
1, 1214016, Note_off_c, 0, 58, 64
1, 1214016, Note_on_c, 0, 82, 64
1, 1214017, Note_on_c, 0, 73, 52
1, 1214030, Note_off_c, 0, 54, 61
1, 1214058, Note_off_c, 0, 73, 53
1, 1214088, Note_on_c, 0, 85, 71
1, 1214105, Note_off_c, 0, 82, 54
1, 1214139, Note_on_c, 0, 63, 65
1, 1214177, Note_on_c, 0, 56, 58
1, 1214187, Note_off_c, 0, 85, 64
1, 1214191, Note_off_c, 0, 63, 56
1, 1214195, Note_off_c, 0, 60, 65
1, 1214201, Note_on_c, 0, 77, 52
1, 1214211, Note_on_c, 0, 61, 63
1, 1214266, Note_off_c, 0, 77, 58
1, 1214305, Note_on_c, 0, 80, 48
1, 1214360, Note_off_c, 0, 80, 60
1, 1214364, Note_off_c, 0, 61, 58
1, 1214376, Note_on_c, 0, 60, 61
1, 1214376, Note_on_c, 0, 77, 63
1, 1214439, Note_off_c, 0, 77, 59
1, 1214459, Note_on_c, 0, 80, 67
1, 1214514, Note_off_c, 0, 80, 56
1, 1214534, Note_on_c, 0, 61, 68
1, 1214535, Note_on_c, 0, 77, 64
1, 1214569, Note_off_c, 0, 60, 59
1, 1214590, Note_off_c, 0, 56, 61
1, 1214610, Note_off_c, 0, 77, 59
1, 1214614, Note_on_c, 0, 80, 80
1, 1214695, Note_off_c, 0, 80, 56
1, 1214703, Note_on_c, 0, 63, 72
1, 1214708, Note_on_c, 0, 56, 78
1, 1214710, Note_on_c, 0, 78, 78
1, 1214720, Note_on_c, 0, 72, 66
1, 1214735, Note_off_c, 0, 61, 64
1, 1214750, Note_off_c, 0, 72, 59
1, 1214765, Note_off_c, 0, 78, 59
1, 1214785, Control_c, 0, 64, 38
1, 1214791, Note_on_c, 0, 80, 85
1, 1214800, Control_c, 0, 64, 59
1, 1214815, Control_c, 0, 64, 68
1, 1214830, Control_c, 0, 64, 81
1, 1214845, Control_c, 0, 64, 127
1, 1214851, Note_off_c, 0, 80, 54
1, 1214870, Note_on_c, 0, 78, 82
1, 1214889, Note_on_c, 0, 72, 65
1, 1214905, Control_c, 0, 67, 120
1, 1214919, Note_off_c, 0, 72, 63
1, 1214920, Control_c, 0, 67, 83
1, 1214924, Note_off_c, 0, 78, 60
1, 1214935, Control_c, 0, 67, 48
1, 1214946, Note_on_c, 0, 80, 87
1, 1214949, Control_c, 0, 67, 0
1, 1215008, Note_off_c, 0, 80, 58
1, 1215017, Note_off_c, 0, 63, 61
1, 1215030, Note_on_c, 0, 78, 83
1, 1215045, Note_on_c, 0, 72, 60
1, 1215062, Note_on_c, 0, 64, 75
1, 1215073, Note_off_c, 0, 72, 65
1, 1215095, Note_off_c, 0, 56, 61
1, 1215098, Note_off_c, 0, 78, 59
1, 1215108, Note_off_c, 0, 64, 64
1, 1215120, Note_on_c, 0, 80, 83
1, 1215169, Note_off_c, 0, 80, 0
1, 1215195, Note_on_c, 0, 73, 72
1, 1215200, Note_on_c, 0, 77, 68
1, 1215200, Poly_aftertouch_c, 0, 80, 0
1, 1215211, Note_on_c, 0, 61, 76
1, 1215211, Note_on_c, 0, 65, 73
1, 1215215, Note_off_c, 0, 77, 67
1, 1215218, Note_off_c, 0, 73, 70
1, 1215231, Control_c, 0, 64, 99
1, 1215233, Note_off_c, 0, 65, 69
1, 1215235, Note_off_c, 0, 61, 68
1, 1215246, Control_c, 0, 64, 64
1, 1215261, Control_c, 0, 64, 0
1, 1215409, Note_on_c, 0, 49, 54
1, 1215441, Note_off_c, 0, 49, 56
1, 1215593, Note_on_c, 0, 49, 59
1, 1215617, Note_off_c, 0, 49, 62
1, 1215769, Note_on_c, 0, 61, 57
1, 1215770, Note_on_c, 0, 65, 55
1, 1215787, Control_c, 0, 67, 38
1, 1215792, Note_off_c, 0, 61, 62
1, 1215792, Note_off_c, 0, 65, 60
1, 1215802, Control_c, 0, 67, 38
1, 1215817, Control_c, 0, 67, 41
1, 1215831, Control_c, 0, 67, 49
1, 1215846, Control_c, 0, 67, 70
1, 1215861, Control_c, 0, 67, 88
1, 1215876, Control_c, 0, 67, 91
1, 1215905, Control_c, 0, 67, 93
1, 1215920, Control_c, 0, 67, 97
1, 1215935, Control_c, 0, 67, 110
1, 1215949, Control_c, 0, 67, 127
1, 1215957, Note_on_c, 0, 49, 52
1, 1215983, Note_off_c, 0, 49, 57
1, 1216135, Note_on_c, 0, 49, 55
1, 1216165, Note_off_c, 0, 49, 64
1, 1216200, Note_on_c, 0, 73, 50
1, 1216242, Note_on_c, 0, 77, 61
1, 1216250, Note_off_c, 0, 73, 61
1, 1216283, Note_on_c, 0, 80, 75
1, 1216286, Note_off_c, 0, 77, 66
1, 1216294, Note_on_c, 0, 65, 58
1, 1216298, Note_on_c, 0, 61, 57
1, 1216303, Note_off_c, 0, 80, 70
1, 1216316, Note_off_c, 0, 65, 64
1, 1216320, Note_off_c, 0, 61, 63
1, 1216480, Note_on_c, 0, 78, 57
1, 1216502, Note_off_c, 0, 78, 62
1, 1216505, Note_on_c, 0, 49, 39
1, 1216538, Note_off_c, 0, 49, 53
1, 1216558, Note_on_c, 0, 77, 57
1, 1216586, Note_off_c, 0, 77, 64
1, 1216612, Note_on_c, 0, 75, 62
1, 1216642, Note_on_c, 0, 49, 44
1, 1216650, Note_off_c, 0, 75, 62
1, 1216675, Note_off_c, 0, 49, 63
1, 1216687, Note_on_c, 0, 73, 65
1, 1216717, Note_off_c, 0, 73, 64
1, 1216749, Note_on_c, 0, 72, 71
1, 1216782, Note_on_c, 0, 68, 74
1, 1216784, Note_on_c, 0, 75, 75
1, 1216785, Note_on_c, 0, 66, 70
1, 1216785, Note_off_c, 0, 72, 60
1, 1216802, Note_off_c, 0, 66, 67
1, 1216803, Note_off_c, 0, 68, 71
1, 1216805, Note_off_c, 0, 75, 70
1, 1216815, Note_on_c, 0, 61, 26
1, 1216851, Note_off_c, 0, 61, 32
1, 1216973, Note_on_c, 0, 73, 62
1, 1216979, Note_on_c, 0, 49, 63
1, 1217000, Note_off_c, 0, 73, 67
1, 1217012, Note_off_c, 0, 49, 64
1, 1217018, Note_on_c, 0, 72, 68
1, 1217066, Note_off_c, 0, 72, 65
1, 1217104, Note_on_c, 0, 70, 63
1, 1217130, Note_off_c, 0, 70, 68
1, 1217134, Note_on_c, 0, 49, 63
1, 1217167, Note_off_c, 0, 49, 65
1, 1217180, Note_on_c, 0, 68, 66
1, 1217224, Control_c, 0, 67, 117
1, 1217227, Note_on_c, 0, 73, 73
1, 1217239, Control_c, 0, 67, 56
1, 1217241, Note_off_c, 0, 68, 59
1, 1217253, Control_c, 0, 67, 0
1, 1217273, Note_on_c, 0, 61, 80
1, 1217273, Note_on_c, 0, 77, 77
1, 1217279, Note_on_c, 0, 65, 74
1, 1217286, Note_on_c, 0, 80, 88
1, 1217289, Note_off_c, 0, 73, 64
1, 1217297, Note_off_c, 0, 61, 70
1, 1217301, Note_off_c, 0, 65, 69
1, 1217307, Note_off_c, 0, 77, 64
1, 1217324, Note_off_c, 0, 80, 63
1, 1217466, Note_on_c, 0, 78, 76
1, 1217489, Note_on_c, 0, 49, 48
1, 1217519, Note_off_c, 0, 49, 55
1, 1217526, Note_off_c, 0, 78, 56
1, 1217551, Note_on_c, 0, 77, 57
1, 1217572, Note_off_c, 0, 77, 64
1, 1217604, Note_on_c, 0, 75, 82
1, 1217647, Note_on_c, 0, 49, 55
1, 1217653, Note_off_c, 0, 75, 63
1, 1217677, Note_off_c, 0, 49, 64
1, 1217689, Note_on_c, 0, 73, 82
1, 1217715, Note_off_c, 0, 73, 64
1, 1217777, Note_on_c, 0, 85, 89
1, 1217784, Note_on_c, 0, 82, 79
1, 1217787, Note_on_c, 0, 78, 77
1, 1217789, Note_on_c, 0, 61, 74
1, 1217790, Note_on_c, 0, 66, 75
1, 1217806, Note_off_c, 0, 66, 67
1, 1217807, Note_off_c, 0, 78, 68
1, 1217810, Control_c, 0, 64, 66
1, 1217813, Note_off_c, 0, 82, 61
1, 1217814, Note_off_c, 0, 61, 69
1, 1217820, Note_off_c, 0, 85, 64
1, 1217825, Control_c, 0, 64, 127
1, 1217978, Note_on_c, 0, 82, 66
1, 1217979, Note_on_c, 0, 85, 65
1, 1217982, Note_on_c, 0, 49, 70
1, 1217984, Note_on_c, 0, 78, 57
1, 1218005, Note_off_c, 0, 82, 68
1, 1218005, Note_off_c, 0, 78, 62
1, 1218011, Note_off_c, 0, 49, 63
1, 1218014, Note_off_c, 0, 85, 62
1, 1218158, Note_on_c, 0, 49, 64
1, 1218171, Note_on_c, 0, 82, 58
1, 1218178, Note_on_c, 0, 85, 53
1, 1218198, Note_off_c, 0, 82, 64
1, 1218200, Note_off_c, 0, 85, 60
1, 1218210, Note_off_c, 0, 49, 61
1, 1218343, Note_on_c, 0, 66, 86
1, 1218347, Note_on_c, 0, 61, 77
1, 1218351, Note_on_c, 0, 58, 76
1, 1218375, Note_off_c, 0, 66, 68
1, 1218380, Note_off_c, 0, 61, 70
1, 1218395, Note_off_c, 0, 58, 63
1, 1218397, Control_c, 0, 64, 96
1, 1218412, Control_c, 0, 64, 59
1, 1218426, Control_c, 0, 64, 0
1, 1218572, Note_on_c, 0, 49, 33
1, 1218613, Note_off_c, 0, 49, 45
1, 1218724, Note_on_c, 0, 49, 64
1, 1218765, Note_off_c, 0, 49, 64
1, 1218871, Control_c, 0, 67, 53
1, 1218886, Control_c, 0, 67, 121
1, 1218902, Control_c, 0, 67, 127
1, 1218904, Note_on_c, 0, 61, 66
1, 1218911, Note_on_c, 0, 66, 64
1, 1218913, Note_on_c, 0, 58, 59
1, 1218932, Note_off_c, 0, 61, 66
1, 1218937, Note_off_c, 0, 66, 65
1, 1218942, Note_off_c, 0, 58, 65
1, 1219089, Note_on_c, 0, 49, 60
1, 1219134, Note_off_c, 0, 49, 60
1, 1219274, Note_on_c, 0, 49, 57
1, 1219328, Note_off_c, 0, 49, 55
1, 1219471, Note_on_c, 0, 65, 44
1, 1219484, Note_on_c, 0, 56, 46
1, 1219488, Note_on_c, 0, 61, 43
1, 1219499, Control_c, 0, 64, 38
1, 1219514, Control_c, 0, 64, 46
1, 1219529, Control_c, 0, 64, 53
1, 1219544, Control_c, 0, 64, 59
1, 1219559, Control_c, 0, 64, 63
1, 1219565, Note_off_c, 0, 61, 44
1, 1219573, Control_c, 0, 64, 67
1, 1219588, Control_c, 0, 64, 72
1, 1219603, Control_c, 0, 64, 77
1, 1219618, Control_c, 0, 64, 81
1, 1219630, Note_on_c, 0, 68, 53
1, 1219633, Control_c, 0, 64, 84
1, 1219647, Control_c, 0, 64, 86
1, 1219662, Control_c, 0, 64, 87
1, 1219679, Note_on_c, 0, 66, 72
1, 1219689, Note_on_c, 0, 49, 59
1, 1219693, Control_c, 0, 64, 88
1, 1219709, Note_off_c, 0, 65, 52
1, 1219718, Note_off_c, 0, 56, 55
1, 1219766, Note_off_c, 0, 49, 55
1, 1219804, Note_off_c, 0, 68, 26
1, 1219835, Note_on_c, 0, 65, 67
1, 1219841, Control_c, 0, 64, 83
1, 1219848, Note_on_c, 0, 49, 53
1, 1219863, Control_c, 0, 64, 67
1, 1219871, Note_off_c, 0, 66, 62
1, 1219878, Control_c, 0, 64, 37
1, 1219893, Control_c, 0, 64, 0
1, 1219904, Note_off_c, 0, 49, 55
1, 1220015, Note_on_c, 0, 58, 61
1, 1220028, Note_on_c, 0, 63, 66
1, 1220031, Note_on_c, 0, 54, 35
1, 1220043, Note_off_c, 0, 58, 65
1, 1220061, Note_off_c, 0, 54, 49
1, 1220091, Note_off_c, 0, 65, 39
1, 1220190, Note_off_c, 0, 63, 61
1, 1220205, Note_on_c, 0, 42, 57
1, 1220214, Note_on_c, 0, 65, 59
1, 1220232, Note_off_c, 0, 42, 61
1, 1220258, Note_off_c, 0, 65, 57
1, 1220291, Note_on_c, 0, 66, 73
1, 1220324, Note_off_c, 0, 66, 61
1, 1220351, Note_on_c, 0, 42, 53
1, 1220372, Note_on_c, 0, 68, 72
1, 1220381, Note_off_c, 0, 42, 63
1, 1220403, Note_off_c, 0, 68, 60
1, 1220460, Note_on_c, 0, 70, 60
1, 1220523, Note_on_c, 0, 66, 67
1, 1220531, Note_on_c, 0, 72, 69
1, 1220540, Note_off_c, 0, 66, 66
1, 1220541, Note_off_c, 0, 70, 64
1, 1220706, Note_off_c, 0, 72, 58
1, 1220717, Note_on_c, 0, 70, 64
1, 1220727, Note_on_c, 0, 56, 52
1, 1220750, Note_off_c, 0, 70, 63
1, 1220752, Note_off_c, 0, 56, 58
1, 1220805, Note_on_c, 0, 72, 63
1, 1220834, Note_off_c, 0, 72, 63
1, 1220881, Note_on_c, 0, 73, 58
1, 1220887, Note_on_c, 0, 56, 40
1, 1220914, Note_off_c, 0, 73, 65
1, 1220923, Note_off_c, 0, 56, 60
1, 1220962, Note_on_c, 0, 75, 65
1, 1221000, Note_off_c, 0, 75, 63
1, 1221047, Note_on_c, 0, 77, 72
1, 1221049, Note_on_c, 0, 61, 44
1, 1221061, Note_on_c, 0, 65, 26
1, 1221069, Note_off_c, 0, 77, 70
1, 1221077, Note_off_c, 0, 61, 55
1, 1221099, Note_off_c, 0, 65, 30
1, 1221233, Note_on_c, 0, 49, 46
1, 1221241, Note_on_c, 0, 77, 41
1, 1221263, Note_off_c, 0, 49, 54
1, 1221269, Note_off_c, 0, 77, 34
1, 1221403, Note_on_c, 0, 49, 57
1, 1221411, Note_on_c, 0, 77, 52
1, 1221433, Note_off_c, 0, 49, 64
1, 1221436, Note_off_c, 0, 77, 65
1, 1221573, Note_on_c, 0, 65, 63
1, 1221574, Note_on_c, 0, 61, 64
1, 1221595, Note_off_c, 0, 61, 66
1, 1221601, Note_off_c, 0, 65, 66
1, 1221769, Note_on_c, 0, 49, 53
1, 1221797, Note_off_c, 0, 49, 57
1, 1221941, Note_on_c, 0, 49, 61
1, 1221970, Note_off_c, 0, 49, 64
1, 1222121, Note_on_c, 0, 61, 63
1, 1222123, Note_on_c, 0, 65, 59
1, 1222142, Note_off_c, 0, 65, 62
1, 1222143, Note_off_c, 0, 61, 65
1, 1222302, Note_on_c, 0, 49, 54
1, 1222328, Note_off_c, 0, 49, 57
1, 1222454, Note_on_c, 0, 49, 59
1, 1222489, Note_off_c, 0, 49, 64
1, 1222538, Note_on_c, 0, 73, 66
1, 1222570, Note_off_c, 0, 73, 60
1, 1222587, Note_on_c, 0, 77, 55
1, 1222619, Note_off_c, 0, 77, 68
1, 1222620, Note_on_c, 0, 80, 75
1, 1222621, Note_on_c, 0, 61, 63
1, 1222628, Control_c, 0, 67, 124
1, 1222637, Note_on_c, 0, 65, 41
1, 1222641, Note_off_c, 0, 80, 71
1, 1222643, Control_c, 0, 67, 67
1, 1222649, Note_off_c, 0, 61, 66
1, 1222658, Control_c, 0, 67, 0
1, 1222665, Note_off_c, 0, 65, 55
1, 1222810, Note_on_c, 0, 78, 64
1, 1222825, Note_on_c, 0, 49, 40
1, 1222838, Note_off_c, 0, 78, 65
1, 1222865, Note_off_c, 0, 49, 52
1, 1222902, Note_on_c, 0, 77, 66
1, 1222929, Note_off_c, 0, 77, 66
1, 1222960, Note_on_c, 0, 49, 61
1, 1222972, Note_on_c, 0, 75, 69
1, 1222996, Note_off_c, 0, 49, 62
1, 1223004, Note_off_c, 0, 75, 63
1, 1223045, Note_on_c, 0, 73, 64
1, 1223080, Note_off_c, 0, 73, 61
1, 1223092, Note_on_c, 0, 72, 80
1, 1223114, Note_on_c, 0, 68, 75
1, 1223116, Note_on_c, 0, 66, 66
1, 1223118, Note_off_c, 0, 72, 66
1, 1223119, Note_on_c, 0, 61, 59
1, 1223134, Note_on_c, 0, 75, 67
1, 1223135, Note_off_c, 0, 66, 65
1, 1223137, Note_off_c, 0, 68, 70
1, 1223140, Note_off_c, 0, 61, 63
1, 1223160, Note_off_c, 0, 75, 68
1, 1223299, Note_on_c, 0, 73, 68
1, 1223300, Note_on_c, 0, 49, 68
1, 1223325, Note_off_c, 0, 73, 67
1, 1223327, Note_off_c, 0, 49, 65
1, 1223364, Note_on_c, 0, 72, 75
1, 1223405, Note_off_c, 0, 72, 60
1, 1223444, Note_on_c, 0, 70, 60
1, 1223447, Note_on_c, 0, 49, 63
1, 1223469, Note_off_c, 0, 70, 66
1, 1223483, Note_off_c, 0, 49, 65
1, 1223522, Note_on_c, 0, 68, 58
1, 1223546, Note_on_c, 0, 73, 77
1, 1223555, Note_off_c, 0, 68, 62
1, 1223579, Note_on_c, 0, 61, 82
1, 1223581, Note_on_c, 0, 65, 77
1, 1223597, Note_on_c, 0, 77, 77
1, 1223601, Note_on_c, 0, 80, 85
1, 1223601, Note_off_c, 0, 61, 72
1, 1223602, Note_off_c, 0, 65, 71
1, 1223605, Note_off_c, 0, 73, 65
1, 1223621, Control_c, 0, 64, 35
1, 1223636, Control_c, 0, 64, 42
1, 1223637, Note_off_c, 0, 77, 67
1, 1223650, Note_off_c, 0, 80, 64
1, 1223651, Control_c, 0, 64, 0
1, 1223785, Note_on_c, 0, 49, 80
1, 1223792, Note_on_c, 0, 78, 56
1, 1223817, Note_off_c, 0, 49, 62
1, 1223862, Note_off_c, 0, 78, 63
1, 1223877, Note_on_c, 0, 76, 7
1, 1223886, Note_on_c, 0, 77, 35
1, 1223919, Note_off_c, 0, 77, 54
1, 1223923, Note_off_c, 0, 76, 53
1, 1223924, Note_on_c, 0, 75, 81
1, 1223943, Note_on_c, 0, 49, 75
1, 1223973, Note_off_c, 0, 49, 67
1, 1223975, Note_off_c, 0, 75, 64
1, 1224015, Note_on_c, 0, 73, 75
1, 1224037, Note_off_c, 0, 73, 70
1, 1224081, Note_on_c, 0, 66, 82
1, 1224083, Note_on_c, 0, 61, 82
1, 1224084, Note_on_c, 0, 85, 72
1, 1224085, Note_on_c, 0, 81, 76
1, 1224086, Note_on_c, 0, 78, 76
1, 1224097, Control_c, 0, 64, 35
1, 1224102, Note_off_c, 0, 66, 71
1, 1224103, Note_off_c, 0, 61, 70
1, 1224106, Note_off_c, 0, 78, 68
1, 1224112, Control_c, 0, 64, 66
1, 1224115, Note_off_c, 0, 85, 59
1, 1224115, Note_off_c, 0, 81, 62
1, 1224127, Control_c, 0, 64, 78
1, 1224142, Control_c, 0, 64, 85
1, 1224156, Control_c, 0, 64, 86
1, 1224186, Control_c, 0, 64, 88
1, 1224201, Control_c, 0, 64, 99
1, 1224215, Poly_aftertouch_c, 0, 61, 127
1, 1224216, Control_c, 0, 64, 127
1, 1224247, Poly_aftertouch_c, 0, 61, 0
1, 1224299, Note_on_c, 0, 49, 66
1, 1224303, Note_on_c, 0, 85, 73
1, 1224318, Note_on_c, 0, 78, 43
1, 1224318, Note_on_c, 0, 81, 44
1, 1224325, Note_off_c, 0, 49, 62
1, 1224345, Note_off_c, 0, 78, 55
1, 1224345, Note_off_c, 0, 81, 57
1, 1224351, Note_off_c, 0, 85, 64
1, 1224481, Note_on_c, 0, 49, 66
1, 1224494, Note_on_c, 0, 85, 71
1, 1224503, Note_on_c, 0, 78, 39
1, 1224508, Note_on_c, 0, 81, 36
1, 1224518, Note_off_c, 0, 49, 63
1, 1224535, Note_off_c, 0, 78, 48
1, 1224536, Note_off_c, 0, 85, 63
1, 1224539, Note_off_c, 0, 81, 53
1, 1224682, Note_on_c, 0, 61, 85
1, 1224684, Note_on_c, 0, 66, 87
1, 1224694, Note_on_c, 0, 57, 69
1, 1224706, Note_off_c, 0, 66, 69
1, 1224719, Note_off_c, 0, 61, 63
1, 1224725, Note_off_c, 0, 57, 64
1, 1224742, Control_c, 0, 64, 89
1, 1224757, Control_c, 0, 64, 58
1, 1224772, Control_c, 0, 64, 0
1, 1224881, Note_on_c, 0, 54, 71
1, 1224908, Note_off_c, 0, 54, 67
1, 1225084, Note_on_c, 0, 54, 61
1, 1225159, Note_off_c, 0, 54, 55
1, 1225263, Note_on_c, 0, 66, 76
1, 1225268, Note_on_c, 0, 61, 68
1, 1225271, Note_on_c, 0, 57, 65
1, 1225295, Note_off_c, 0, 66, 65
1, 1225299, Note_off_c, 0, 61, 66
1, 1225308, Note_off_c, 0, 57, 61
1, 1225432, Control_c, 0, 67, 76
1, 1225447, Control_c, 0, 67, 119
1, 1225462, Control_c, 0, 67, 127
1, 1225464, Note_on_c, 0, 54, 57
1, 1225493, Note_off_c, 0, 54, 64
1, 1225640, Note_on_c, 0, 54, 51
1, 1225682, Note_off_c, 0, 54, 60
1, 1225801, Note_on_c, 0, 73, 66
1, 1225824, Note_on_c, 0, 66, 42
1, 1225828, Note_on_c, 0, 57, 44
1, 1225844, Note_on_c, 0, 61, 38
1, 1225932, Note_off_c, 0, 66, 52
1, 1225953, Note_off_c, 0, 61, 51
1, 1225978, Note_on_c, 0, 76, 67
1, 1225984, Note_off_c, 0, 57, 34
1, 1225998, Note_on_c, 0, 54, 59
1, 1225998, Note_off_c, 0, 73, 61
1, 1226009, Note_on_c, 0, 74, 71
1, 1226058, Note_off_c, 0, 54, 60
1, 1226101, Note_off_c, 0, 76, 48
1, 1226148, Note_off_c, 0, 74, 59
1, 1226166, Note_on_c, 0, 54, 57
1, 1226174, Note_on_c, 0, 73, 50
1, 1226187, Note_off_c, 0, 54, 63
1, 1226316, Note_off_c, 0, 73, 53
1, 1226332, Note_on_c, 0, 62, 64
1, 1226336, Note_on_c, 0, 66, 65
1, 1226350, Note_on_c, 0, 71, 56
1, 1226357, Note_off_c, 0, 62, 66
1, 1226363, Note_off_c, 0, 66, 66
1, 1226486, Note_off_c, 0, 71, 59
1, 1226513, Note_on_c, 0, 50, 53
1, 1226515, Note_on_c, 0, 73, 60
1, 1226542, Note_off_c, 0, 50, 65
1, 1226578, Note_off_c, 0, 73, 61
1, 1226616, Note_on_c, 0, 74, 70
1, 1226690, Note_on_c, 0, 50, 44
1, 1226694, Note_on_c, 0, 76, 73
1, 1226695, Note_off_c, 0, 74, 57
1, 1226719, Note_off_c, 0, 50, 56
1, 1226740, Note_off_c, 0, 76, 55
1, 1226777, Note_on_c, 0, 78, 64
1, 1226821, Note_off_c, 0, 78, 58
1, 1226843, Note_on_c, 0, 62, 60
1, 1226862, Note_on_c, 0, 64, 44
1, 1226863, Note_off_c, 0, 62, 63
1, 1226866, Note_on_c, 0, 80, 62
1, 1226892, Note_off_c, 0, 64, 57
1, 1227019, Note_off_c, 0, 80, 52
1, 1227029, Note_on_c, 0, 78, 65
1, 1227040, Note_on_c, 0, 52, 55
1, 1227067, Note_off_c, 0, 52, 63
1, 1227093, Note_off_c, 0, 78, 56
1, 1227109, Note_on_c, 0, 80, 69
1, 1227151, Note_off_c, 0, 80, 62
1, 1227196, Note_on_c, 0, 52, 66
1, 1227198, Note_on_c, 0, 81, 62
1, 1227222, Note_off_c, 0, 52, 65
1, 1227230, Note_off_c, 0, 81, 64
1, 1227279, Note_on_c, 0, 83, 67
1, 1227305, Note_off_c, 0, 83, 68
1, 1227350, Note_on_c, 0, 85, 80
1, 1227361, Note_on_c, 0, 61, 63
1, 1227365, Note_on_c, 0, 64, 67
1, 1227379, Note_off_c, 0, 85, 66
1, 1227383, Note_off_c, 0, 61, 65
1, 1227388, Note_off_c, 0, 64, 68
1, 1227549, Note_on_c, 0, 85, 67
1, 1227555, Note_on_c, 0, 57, 60
1, 1227573, Note_off_c, 0, 85, 70
1, 1227582, Note_off_c, 0, 57, 64
1, 1227727, Note_on_c, 0, 57, 54
1, 1227730, Note_on_c, 0, 85, 71
1, 1227752, Note_off_c, 0, 85, 71
1, 1227754, Note_off_c, 0, 57, 66
1, 1227897, Note_on_c, 0, 64, 68
1, 1227900, Note_on_c, 0, 61, 56
1, 1227922, Note_off_c, 0, 64, 67
1, 1227922, Note_off_c, 0, 61, 61
1, 1228080, Note_on_c, 0, 57, 61
1, 1228117, Note_off_c, 0, 57, 65
1, 1228250, Note_on_c, 0, 57, 55
1, 1228283, Note_off_c, 0, 57, 66
1, 1228433, Note_on_c, 0, 73, 55
1, 1228435, Note_on_c, 0, 61, 46
1, 1228453, Note_off_c, 0, 73, 65
1, 1228460, Note_off_c, 0, 61, 58
1, 1228516, Poly_aftertouch_c, 0, 64, 0
1, 1228608, Note_on_c, 0, 73, 56
1, 1228626, Note_on_c, 0, 57, 45
1, 1228637, Note_off_c, 0, 73, 67
1, 1228655, Note_off_c, 0, 57, 53
1, 1228772, Note_on_c, 0, 57, 49
1, 1228789, Note_on_c, 0, 73, 63
1, 1228815, Note_off_c, 0, 73, 68
1, 1228822, Note_off_c, 0, 57, 59
1, 1228984, Note_on_c, 0, 73, 45
1, 1228996, Note_on_c, 0, 64, 46
1, 1229031, Note_off_c, 0, 64, 52
1, 1229073, Poly_aftertouch_c, 0, 61, 0
1, 1229171, Note_off_c, 0, 73, 44
1, 1229174, Note_on_c, 0, 58, 57
1, 1229176, Note_on_c, 0, 76, 57
1, 1229197, Note_off_c, 0, 58, 62
1, 1229240, Note_off_c, 0, 76, 62
1, 1229246, Note_on_c, 0, 74, 66
1, 1229319, Note_off_c, 0, 74, 56
1, 1229331, Note_on_c, 0, 58, 53
1, 1229340, Note_on_c, 0, 73, 59
1, 1229374, Note_off_c, 0, 58, 59
1, 1229388, Note_off_c, 0, 73, 57
1, 1229432, Note_on_c, 0, 76, 55
1, 1229490, Note_on_c, 0, 62, 52
1, 1229490, Note_off_c, 0, 76, 63
1, 1229496, Note_on_c, 0, 74, 65
1, 1229514, Note_off_c, 0, 74, 65
1, 1229514, Note_off_c, 0, 62, 58
1, 1229521, Note_on_c, 0, 64, 14
1, 1229569, Note_off_c, 0, 64, 45
1, 1229674, Note_on_c, 0, 74, 55
1, 1229696, Note_off_c, 0, 74, 59
1, 1229705, Note_on_c, 0, 59, 23
1, 1229751, Note_off_c, 0, 59, 29
1, 1229835, Note_on_c, 0, 59, 61
1, 1229851, Note_on_c, 0, 74, 50
1, 1229869, Note_off_c, 0, 59, 63
1, 1229978, Note_off_c, 0, 74, 57
1, 1230018, Note_on_c, 0, 62, 50
1, 1230022, Note_on_c, 0, 86, 62
1, 1230024, Note_on_c, 0, 64, 53
1, 1230043, Note_off_c, 0, 62, 57
1, 1230047, Note_off_c, 0, 64, 62
1, 1230048, Note_off_c, 0, 86, 68
1, 1230199, Note_on_c, 0, 59, 54
1, 1230224, Note_off_c, 0, 59, 59
1, 1230232, Note_on_c, 0, 86, 25
1, 1230269, Note_off_c, 0, 86, 30
1, 1230372, Note_on_c, 0, 59, 56
1, 1230377, Note_on_c, 0, 86, 60
1, 1230402, Note_off_c, 0, 86, 67
1, 1230406, Note_off_c, 0, 59, 64
1, 1230547, Note_on_c, 0, 62, 60
1, 1230554, Note_on_c, 0, 64, 58
1, 1230567, Note_off_c, 0, 62, 64
1, 1230581, Note_off_c, 0, 64, 66
1, 1230733, Note_on_c, 0, 59, 59
1, 1230761, Note_off_c, 0, 59, 65
1, 1230888, Note_on_c, 0, 59, 61
1, 1230924, Note_off_c, 0, 59, 65
1, 1231067, Note_on_c, 0, 62, 58
1, 1231073, Note_on_c, 0, 74, 68
1, 1231075, Note_on_c, 0, 64, 58
1, 1231091, Note_off_c, 0, 62, 64
1, 1231104, Note_off_c, 0, 74, 65
1, 1231115, Note_off_c, 0, 64, 63
1, 1231250, Note_on_c, 0, 74, 69
1, 1231259, Note_on_c, 0, 59, 59
1, 1231279, Note_off_c, 0, 74, 64
1, 1231294, Note_off_c, 0, 59, 58
1, 1231422, Note_on_c, 0, 59, 72
1, 1231425, Note_on_c, 0, 74, 80
1, 1231451, Note_off_c, 0, 74, 64
1, 1231451, Note_off_c, 0, 59, 65
1, 1231606, Note_on_c, 0, 74, 80
1, 1231611, Note_on_c, 0, 62, 58
1, 1231611, Note_on_c, 0, 65, 61
1, 1231639, Note_off_c, 0, 62, 65
1, 1231644, Note_off_c, 0, 65, 61
1, 1231771, Note_off_c, 0, 74, 55
1, 1231793, Note_on_c, 0, 59, 60
1, 1231805, Note_on_c, 0, 77, 67
1, 1231825, Note_off_c, 0, 59, 63
1, 1231885, Note_on_c, 0, 76, 73
1, 1231893, Note_off_c, 0, 77, 56
1, 1231949, Note_off_c, 0, 76, 59
1, 1231962, Note_on_c, 0, 59, 63
1, 1231972, Note_on_c, 0, 74, 74
1, 1231996, Note_off_c, 0, 59, 64
1, 1232009, Note_off_c, 0, 74, 59
1, 1232041, Note_on_c, 0, 77, 76
1, 1232095, Note_off_c, 0, 77, 63
1, 1232122, Note_on_c, 0, 62, 57
1, 1232122, Note_on_c, 0, 74, 74
1, 1232131, Note_on_c, 0, 65, 52
1, 1232143, Note_off_c, 0, 62, 62
1, 1232145, Note_off_c, 0, 74, 71
1, 1232153, Note_off_c, 0, 65, 60
1, 1232289, Note_on_c, 0, 74, 76
1, 1232305, Note_on_c, 0, 59, 49
1, 1232312, Note_off_c, 0, 74, 68
1, 1232332, Note_off_c, 0, 59, 58
1, 1232450, Note_on_c, 0, 59, 58
1, 1232473, Note_on_c, 0, 74, 70
1, 1232492, Note_off_c, 0, 59, 65
1, 1232626, Note_off_c, 0, 74, 56
1, 1232649, Note_on_c, 0, 86, 69
1, 1232653, Note_on_c, 0, 65, 52
1, 1232655, Note_on_c, 0, 62, 40
1, 1232680, Note_off_c, 0, 65, 62
1, 1232686, Note_off_c, 0, 62, 50
1, 1232691, Note_off_c, 0, 86, 55
1, 1232823, Note_on_c, 0, 59, 52
1, 1232836, Note_on_c, 0, 86, 58
1, 1232847, Note_off_c, 0, 59, 59
1, 1232861, Note_off_c, 0, 86, 67
1, 1232981, Note_on_c, 0, 59, 55
1, 1232989, Note_on_c, 0, 86, 65
1, 1233014, Note_off_c, 0, 86, 69
1, 1233016, Note_off_c, 0, 59, 64
1, 1233159, Note_on_c, 0, 59, 51
1, 1233159, Note_on_c, 0, 62, 62
1, 1233170, Control_c, 0, 64, 30
1, 1233174, Note_on_c, 0, 74, 62
1, 1233185, Control_c, 0, 64, 36
1, 1233190, Note_off_c, 0, 59, 60
1, 1233199, Control_c, 0, 64, 37
1, 1233200, Note_off_c, 0, 62, 61
1, 1233214, Control_c, 0, 64, 41
1, 1233229, Control_c, 0, 64, 48
1, 1233242, Note_on_c, 0, 65, 58
1, 1233243, Control_c, 0, 64, 57
1, 1233258, Control_c, 0, 64, 62
1, 1233274, Control_c, 0, 64, 64
1, 1233285, Note_off_c, 0, 65, 57
1, 1233289, Control_c, 0, 64, 66
1, 1233304, Control_c, 0, 64, 68
1, 1233319, Control_c, 0, 64, 69
1, 1233328, Note_on_c, 0, 62, 59
1, 1233329, Note_on_c, 0, 59, 50
1, 1233332, Note_off_c, 0, 74, 58
1, 1233334, Control_c, 0, 64, 71
1, 1233353, Note_on_c, 0, 73, 52
1, 1233356, Control_c, 0, 64, 73
1, 1233371, Control_c, 0, 64, 74
1, 1233381, Note_off_c, 0, 59, 52
1, 1233381, Note_off_c, 0, 62, 56
1, 1233386, Control_c, 0, 64, 76
1, 1233401, Control_c, 0, 64, 76
1, 1233407, Note_on_c, 0, 65, 56
1, 1233416, Control_c, 0, 64, 77
1, 1233461, Note_off_c, 0, 73, 60
1, 1233473, Note_off_c, 0, 65, 45
1, 1233485, Note_on_c, 0, 59, 63
1, 1233499, Note_on_c, 0, 62, 55
1, 1233506, Note_on_c, 0, 74, 40
1, 1233546, Note_off_c, 0, 59, 53
1, 1233573, Note_off_c, 0, 62, 36
1, 1233584, Note_on_c, 0, 65, 62
1, 1233593, Control_c, 0, 64, 76
1, 1233608, Control_c, 0, 64, 75
1, 1233622, Control_c, 0, 64, 70
1, 1233637, Control_c, 0, 64, 64
1, 1233648, Note_off_c, 0, 65, 49
1, 1233652, Control_c, 0, 64, 56
1, 1233665, Note_off_c, 0, 74, 43
1, 1233666, Control_c, 0, 64, 49
1, 1233678, Note_on_c, 0, 86, 57
1, 1233681, Note_on_c, 0, 62, 57
1, 1233682, Control_c, 0, 64, 47
1, 1233684, Note_on_c, 0, 58, 58
1, 1233697, Control_c, 0, 64, 47
1, 1233727, Note_off_c, 0, 58, 60
1, 1233727, Control_c, 0, 64, 46
1, 1233738, Note_off_c, 0, 62, 53
1, 1233741, Control_c, 0, 64, 46
1, 1233756, Control_c, 0, 64, 45
1, 1233768, Note_on_c, 0, 65, 58
1, 1233805, Note_off_c, 0, 65, 50
1, 1233845, Control_c, 0, 64, 46
1, 1233848, Note_on_c, 0, 62, 61
1, 1233849, Note_on_c, 0, 85, 65
1, 1233852, Note_on_c, 0, 58, 54
1, 1233859, Note_off_c, 0, 86, 60
1, 1233885, Note_off_c, 0, 58, 63
1, 1233886, Note_off_c, 0, 62, 61
1, 1233935, Note_on_c, 0, 65, 43
1, 1233994, Note_off_c, 0, 65, 45
1, 1234004, Note_on_c, 0, 62, 62
1, 1234009, Note_on_c, 0, 86, 68
1, 1234018, Note_on_c, 0, 58, 47
1, 1234018, Note_off_c, 0, 85, 61
1, 1234043, Note_off_c, 0, 58, 59
1, 1234046, Note_off_c, 0, 62, 59
1, 1234048, Note_off_c, 0, 86, 57
1, 1234112, Note_on_c, 0, 65, 50
1, 1234150, Control_c, 0, 64, 46
1, 1234165, Control_c, 0, 64, 49
1, 1234173, Note_off_c, 0, 65, 52
1, 1234179, Control_c, 0, 64, 54
1, 1234190, Note_on_c, 0, 58, 41
1, 1234194, Note_on_c, 0, 62, 48
1, 1234194, Control_c, 0, 64, 58
1, 1234200, Note_on_c, 0, 82, 60
1, 1234209, Control_c, 0, 64, 60
1, 1234224, Control_c, 0, 64, 61
1, 1234242, Note_off_c, 0, 58, 58
1, 1234245, Note_off_c, 0, 62, 58
1, 1234283, Note_on_c, 0, 65, 59
1, 1234331, Note_off_c, 0, 65, 51
1, 1234358, Control_c, 0, 64, 61
1, 1234367, Note_on_c, 0, 62, 60
1, 1234369, Note_on_c, 0, 58, 59
1, 1234376, Note_on_c, 0, 81, 55
1, 1234378, Note_off_c, 0, 82, 54
1, 1234408, Note_off_c, 0, 58, 61
1, 1234417, Note_off_c, 0, 62, 57
1, 1234431, Control_c, 0, 64, 60
1, 1234454, Note_on_c, 0, 65, 58
1, 1234505, Control_c, 0, 64, 60
1, 1234519, Note_off_c, 0, 65, 51
1, 1234525, Note_off_c, 0, 81, 56
1, 1234532, Note_on_c, 0, 82, 62
1, 1234537, Note_on_c, 0, 62, 64
1, 1234547, Note_on_c, 0, 58, 56
1, 1234581, Note_off_c, 0, 62, 55
1, 1234584, Note_off_c, 0, 58, 62
1, 1234609, Control_c, 0, 64, 59
1, 1234632, Note_on_c, 0, 65, 65
1, 1234668, Control_c, 0, 64, 57
1, 1234672, Note_off_c, 0, 65, 60
1, 1234683, Control_c, 0, 64, 45
1, 1234698, Control_c, 0, 64, 0
1, 1234699, Note_off_c, 0, 82, 56
1, 1234716, Note_on_c, 0, 58, 64
1, 1234716, Note_on_c, 0, 63, 68
1, 1234724, Note_on_c, 0, 79, 58
1, 1234746, Note_off_c, 0, 58, 64
1, 1234750, Note_off_c, 0, 63, 61
1, 1234812, Note_on_c, 0, 67, 64
1, 1234866, Note_off_c, 0, 67, 56
1, 1234872, Note_off_c, 0, 79, 50
1, 1234901, Note_on_c, 0, 81, 57
1, 1234904, Note_on_c, 0, 63, 68
1, 1234912, Note_on_c, 0, 58, 52
1, 1234933, Note_off_c, 0, 63, 65
1, 1234935, Note_off_c, 0, 58, 61
1, 1234939, Note_off_c, 0, 81, 60
1, 1234984, Note_on_c, 0, 67, 68
1, 1234985, Note_on_c, 0, 82, 70
1, 1235040, Note_off_c, 0, 67, 53
1, 1235041, Note_off_c, 0, 82, 62
1, 1235064, Note_on_c, 0, 63, 70
1, 1235070, Note_on_c, 0, 84, 65
1, 1235078, Note_on_c, 0, 58, 39
1, 1235106, Note_off_c, 0, 58, 59
1, 1235106, Note_off_c, 0, 63, 61
1, 1235150, Note_on_c, 0, 67, 69
1, 1235158, Note_on_c, 0, 86, 73
1, 1235174, Note_off_c, 0, 84, 56
1, 1235179, Note_off_c, 0, 67, 63
1, 1235227, Note_on_c, 0, 58, 57
1, 1235234, Note_on_c, 0, 62, 65
1, 1235239, Control_c, 0, 64, 32
1, 1235241, Note_on_c, 0, 82, 73
1, 1235248, Note_off_c, 0, 86, 61
1, 1235254, Control_c, 0, 64, 48
1, 1235266, Note_off_c, 0, 58, 60
1, 1235269, Control_c, 0, 64, 54
1, 1235282, Note_off_c, 0, 62, 59
1, 1235284, Control_c, 0, 64, 56
1, 1235299, Control_c, 0, 64, 58
1, 1235313, Control_c, 0, 64, 59
1, 1235315, Note_on_c, 0, 65, 64
1, 1235328, Control_c, 0, 64, 59
1, 1235343, Control_c, 0, 64, 59
1, 1235358, Note_off_c, 0, 65, 54
1, 1235399, Note_off_c, 0, 82, 61
1, 1235402, Control_c, 0, 64, 58
1, 1235404, Note_on_c, 0, 62, 63
1, 1235408, Note_on_c, 0, 58, 60
1, 1235411, Note_on_c, 0, 84, 76
1, 1235440, Note_off_c, 0, 62, 63
1, 1235442, Note_off_c, 0, 58, 57
1, 1235446, Control_c, 0, 64, 58
1, 1235481, Note_on_c, 0, 65, 67
1, 1235491, Control_c, 0, 67, 124
1, 1235498, Note_on_c, 0, 82, 73
1, 1235506, Control_c, 0, 67, 116
1, 1235519, Note_off_c, 0, 84, 57
1, 1235520, Control_c, 0, 67, 113
1, 1235535, Control_c, 0, 67, 110
1, 1235546, Note_off_c, 0, 65, 52
1, 1235550, Control_c, 0, 67, 105
1, 1235565, Control_c, 0, 67, 94
1, 1235565, Note_on_c, 0, 81, 78
1, 1235571, Note_on_c, 0, 58, 64
1, 1235572, Note_on_c, 0, 62, 62
1, 1235580, Control_c, 0, 67, 84
1, 1235595, Note_off_c, 0, 82, 57
1, 1235602, Control_c, 0, 64, 58
1, 1235602, Control_c, 0, 67, 79
1, 1235617, Control_c, 0, 64, 59
1, 1235624, Note_off_c, 0, 62, 62
1, 1235625, Note_off_c, 0, 81, 60
1, 1235628, Note_off_c, 0, 58, 61
1, 1235632, Control_c, 0, 67, 78
1, 1235646, Control_c, 0, 64, 56
1, 1235646, Control_c, 0, 67, 76
1, 1235661, Note_on_c, 0, 79, 75
1, 1235661, Control_c, 0, 64, 48
1, 1235661, Control_c, 0, 67, 72
1, 1235671, Note_on_c, 0, 65, 69
1, 1235677, Control_c, 0, 64, 29
1, 1235677, Control_c, 0, 67, 65
1, 1235692, Control_c, 0, 64, 0
1, 1235692, Control_c, 0, 67, 58
1, 1235704, Note_off_c, 0, 79, 64
1, 1235705, Note_off_c, 0, 65, 60
1, 1235707, Control_c, 0, 67, 51
1, 1235722, Control_c, 0, 67, 35
1, 1235737, Control_c, 0, 67, 0
1, 1235747, Note_on_c, 0, 77, 73
1, 1235750, Note_on_c, 0, 63, 78
1, 1235751, Note_on_c, 0, 57, 71
1, 1235768, Note_off_c, 0, 77, 71
1, 1235778, Note_off_c, 0, 57, 65
1, 1235792, Note_off_c, 0, 63, 60
1, 1235846, Note_on_c, 0, 65, 57
1, 1235872, Note_off_c, 0, 65, 60
1, 1235913, Note_on_c, 0, 57, 58
1, 1235923, Note_on_c, 0, 63, 65
1, 1235927, Note_on_c, 0, 77, 73
1, 1235946, Note_off_c, 0, 57, 64
1, 1235948, Note_off_c, 0, 77, 71
1, 1235957, Note_off_c, 0, 63, 62
1, 1236009, Note_on_c, 0, 65, 54
1, 1236046, Note_off_c, 0, 65, 61
1, 1236087, Note_on_c, 0, 57, 58
1, 1236088, Note_on_c, 0, 63, 67
1, 1236090, Note_on_c, 0, 77, 67
1, 1236111, Note_off_c, 0, 57, 63
1, 1236111, Note_off_c, 0, 77, 66
1, 1236131, Note_off_c, 0, 63, 62
1, 1236166, Note_on_c, 0, 65, 62
1, 1236205, Note_off_c, 0, 65, 57
1, 1236236, Note_on_c, 0, 57, 67
1, 1236239, Note_on_c, 0, 63, 78
1, 1236240, Control_c, 0, 64, 53
1, 1236244, Note_on_c, 0, 78, 78
1, 1236255, Control_c, 0, 64, 66
1, 1236269, Control_c, 0, 64, 72
1, 1236282, Note_off_c, 0, 57, 51
1, 1236284, Control_c, 0, 64, 79
1, 1236299, Control_c, 0, 64, 83
1, 1236312, Note_off_c, 0, 63, 61
1, 1236314, Control_c, 0, 64, 84
1, 1236329, Control_c, 0, 64, 85
1, 1236331, Note_on_c, 0, 66, 81
1, 1236351, Control_c, 0, 64, 86
1, 1236366, Control_c, 0, 64, 86
1, 1236381, Control_c, 0, 64, 85
1, 1236388, Note_off_c, 0, 66, 52
1, 1236395, Control_c, 0, 64, 70
1, 1236403, Note_off_c, 0, 78, 56
1, 1236410, Control_c, 0, 64, 42
1, 1236412, Note_on_c, 0, 57, 71
1, 1236419, Note_on_c, 0, 90, 75
1, 1236425, Note_on_c, 0, 63, 66
1, 1236425, Control_c, 0, 64, 0
1, 1236441, Note_off_c, 0, 90, 69
1, 1236456, Note_off_c, 0, 57, 61
1, 1236465, Note_off_c, 0, 63, 58
1, 1236491, Note_on_c, 0, 66, 79
1, 1236536, Note_off_c, 0, 66, 57
1, 1236574, Note_on_c, 0, 57, 64
1, 1236576, Note_on_c, 0, 63, 64
1, 1236587, Note_on_c, 0, 90, 72
1, 1236613, Note_off_c, 0, 90, 66
1, 1236617, Note_off_c, 0, 57, 62
1, 1236638, Note_off_c, 0, 63, 63
1, 1236659, Note_on_c, 0, 66, 74
1, 1236694, Note_off_c, 0, 66, 66
1, 1236744, Note_on_c, 0, 91, 81
1, 1236745, Note_on_c, 0, 63, 83
1, 1236754, Note_on_c, 0, 58, 71
1, 1236766, Control_c, 0, 64, 48
1, 1236779, Note_off_c, 0, 58, 66
1, 1236781, Control_c, 0, 64, 62
1, 1236796, Note_off_c, 0, 63, 59
1, 1236796, Control_c, 0, 64, 63
1, 1236825, Control_c, 0, 64, 64
1, 1236834, Note_on_c, 0, 67, 77
1, 1236840, Control_c, 0, 64, 65
1, 1236855, Control_c, 0, 64, 66
1, 1236870, Control_c, 0, 64, 66
1, 1236874, Note_off_c, 0, 67, 62
1, 1236885, Control_c, 0, 64, 66
1, 1236886, Note_off_c, 0, 91, 60
1, 1236914, Control_c, 0, 64, 63
1, 1236915, Note_on_c, 0, 63, 77
1, 1236918, Note_on_c, 0, 58, 67
1, 1236920, Note_on_c, 0, 79, 74
1, 1236929, Control_c, 0, 64, 57
1, 1236943, Note_off_c, 0, 63, 60
1, 1236944, Control_c, 0, 64, 44
1, 1236950, Note_off_c, 0, 58, 66
1, 1236957, Note_off_c, 0, 79, 62
1, 1236959, Control_c, 0, 64, 0
1, 1236992, Note_on_c, 0, 67, 71
1, 1237026, Note_off_c, 0, 67, 58
1, 1237071, Note_on_c, 0, 63, 73
1, 1237072, Note_on_c, 0, 58, 68
1, 1237072, Note_on_c, 0, 79, 65
1, 1237109, Note_off_c, 0, 79, 64
1, 1237121, Note_off_c, 0, 58, 61
1, 1237130, Note_off_c, 0, 63, 61
1, 1237155, Note_on_c, 0, 67, 72
1, 1237211, Note_off_c, 0, 67, 58
1, 1237221, Note_on_c, 0, 81, 81
1, 1237228, Note_on_c, 0, 63, 84
1, 1237232, Note_on_c, 0, 60, 78
1, 1237247, Control_c, 0, 64, 54
1, 1237248, Note_off_c, 0, 81, 65
1, 1237263, Control_c, 0, 64, 67
1, 1237266, Note_off_c, 0, 60, 64
1, 1237273, Note_off_c, 0, 63, 59
1, 1237278, Control_c, 0, 64, 72
1, 1237293, Control_c, 0, 64, 76
1, 1237308, Control_c, 0, 64, 76
1, 1237309, Note_on_c, 0, 67, 81
1, 1237361, Note_off_c, 0, 67, 58
1, 1237381, Note_on_c, 0, 60, 77
1, 1237382, Control_c, 0, 64, 76
1, 1237387, Note_on_c, 0, 63, 78
1, 1237388, Note_on_c, 0, 94, 80
1, 1237396, Control_c, 0, 64, 72
1, 1237406, Note_on_c, 0, 93, 84
1, 1237411, Control_c, 0, 64, 63
1, 1237415, Note_off_c, 0, 94, 66
1, 1237427, Control_c, 0, 64, 45
1, 1237431, Note_off_c, 0, 60, 57
1, 1237437, Note_off_c, 0, 63, 61
1, 1237441, Control_c, 0, 64, 0
1, 1237458, Note_on_c, 0, 67, 84
1, 1237460, Note_off_c, 0, 93, 62
1, 1237471, Note_on_c, 0, 91, 85
1, 1237515, Note_off_c, 0, 91, 65
1, 1237529, Note_off_c, 0, 67, 60
1, 1237541, Note_on_c, 0, 60, 68
1, 1237541, Note_on_c, 0, 63, 77
1, 1237546, Note_on_c, 0, 93, 98
1, 1237584, Note_off_c, 0, 60, 64
1, 1237602, Note_off_c, 0, 63, 62
1, 1237631, Note_on_c, 0, 67, 79
1, 1237681, Note_off_c, 0, 67, 60
1, 1237720, Note_on_c, 0, 94, 85
1, 1237720, Note_on_c, 0, 62, 78
1, 1237721, Note_on_c, 0, 55, 78
1, 1237722, Note_off_c, 0, 93, 64
1, 1237738, Control_c, 0, 64, 37
1, 1237739, Note_off_c, 0, 94, 70
1, 1237752, Note_off_c, 0, 55, 61
1, 1237753, Control_c, 0, 64, 64
1, 1237755, Note_off_c, 0, 62, 61
1, 1237768, Control_c, 0, 64, 73
1, 1237783, Control_c, 0, 64, 83
1, 1237794, Note_on_c, 0, 67, 76
1, 1237797, Control_c, 0, 64, 87
1, 1237827, Control_c, 0, 64, 87
1, 1237855, Note_off_c, 0, 67, 59
1, 1237874, Note_on_c, 0, 62, 78
1, 1237879, Note_on_c, 0, 55, 76
1, 1237880, Note_on_c, 0, 84, 73
1, 1237913, Note_off_c, 0, 84, 59
1, 1237914, Note_off_c, 0, 55, 56
1, 1237918, Note_on_c, 0, 82, 74
1, 1237928, Note_off_c, 0, 62, 60
1, 1237950, Note_on_c, 0, 67, 84
1, 1237953, Control_c, 0, 64, 88
1, 1237967, Control_c, 0, 64, 90
1, 1237968, Note_off_c, 0, 82, 62
1, 1237980, Note_on_c, 0, 81, 68
1, 1237982, Control_c, 0, 64, 94
1, 1237996, Note_off_c, 0, 67, 61
1, 1237997, Control_c, 0, 64, 103
1, 1238012, Control_c, 0, 64, 127
1, 1238028, Note_on_c, 0, 62, 75
1, 1238038, Note_on_c, 0, 55, 62
1, 1238059, Note_off_c, 0, 81, 64
1, 1238064, Note_on_c, 0, 82, 59
1, 1238081, Note_off_c, 0, 55, 62
1, 1238081, Note_off_c, 0, 62, 58
1, 1238084, Note_off_c, 0, 82, 62
1, 1238116, Note_on_c, 0, 67, 75
1, 1238160, Note_off_c, 0, 67, 58
1, 1238314, Note_on_c, 0, 63, 73
1, 1238330, Note_on_c, 0, 79, 48
1, 1238398, Control_c, 0, 64, 107
1, 1238412, Control_c, 0, 64, 84
1, 1238427, Control_c, 0, 64, 66
1, 1238427, Control_c, 0, 67, 37
1, 1238442, Control_c, 0, 64, 49
1, 1238442, Control_c, 0, 67, 50
1, 1238454, Note_on_c, 0, 82, 63
1, 1238457, Control_c, 0, 64, 0
1, 1238457, Control_c, 0, 67, 58
1, 1238460, Note_off_c, 0, 79, 61
1, 1238471, Control_c, 0, 67, 69
1, 1238486, Control_c, 0, 67, 93
1, 1238501, Control_c, 0, 67, 120
1, 1238516, Control_c, 0, 67, 127
1, 1238564, Note_off_c, 0, 82, 59
1, 1238568, Note_on_c, 0, 62, 77
1, 1238575, Note_on_c, 0, 79, 62
1, 1238629, Note_on_c, 0, 75, 23
1, 1238655, Note_off_c, 0, 63, 63
1, 1238664, Note_off_c, 0, 75, 40
1, 1238672, Note_on_c, 0, 82, 71
1, 1238672, Note_off_c, 0, 79, 60
1, 1238742, Note_off_c, 0, 82, 61
1, 1238750, Note_on_c, 0, 79, 65
1, 1238751, Note_on_c, 0, 63, 86
1, 1238761, Note_on_c, 0, 75, 49
1, 1238788, Note_off_c, 0, 75, 57
1, 1238794, Note_off_c, 0, 62, 63
1, 1238835, Note_on_c, 0, 82, 76
1, 1238835, Note_off_c, 0, 79, 62
1, 1238905, Note_off_c, 0, 82, 61
1, 1238911, Note_on_c, 0, 79, 63
1, 1238928, Note_on_c, 0, 60, 70
1, 1238941, Note_on_c, 0, 75, 37
1, 1238976, Note_off_c, 0, 75, 49
1, 1238979, Note_off_c, 0, 63, 61
1, 1239002, Note_on_c, 0, 84, 66
1, 1239012, Note_off_c, 0, 79, 58
1, 1239090, Note_off_c, 0, 84, 61
1, 1239100, Note_on_c, 0, 62, 73
1, 1239103, Note_off_c, 0, 60, 63
1, 1239115, Note_on_c, 0, 79, 48
1, 1239131, Note_on_c, 0, 75, 27
1, 1239168, Note_off_c, 0, 75, 43
1, 1239168, Note_off_c, 0, 79, 39
1, 1239175, Note_on_c, 0, 63, 74
1, 1239180, Note_off_c, 0, 62, 64
1, 1239196, Note_on_c, 0, 84, 68
1, 1239256, Note_on_c, 0, 65, 72
1, 1239275, Note_off_c, 0, 84, 59
1, 1239276, Note_on_c, 0, 79, 63
1, 1239291, Note_off_c, 0, 63, 60
1, 1239302, Note_on_c, 0, 75, 25
1, 1239316, Note_off_c, 0, 65, 61
1, 1239342, Note_off_c, 0, 75, 44
1, 1239359, Note_on_c, 0, 67, 68
1, 1239367, Note_off_c, 0, 79, 62
1, 1239371, Note_on_c, 0, 84, 71
1, 1239437, Note_off_c, 0, 67, 57
1, 1239441, Note_off_c, 0, 84, 56
1, 1239446, Note_on_c, 0, 63, 74
1, 1239455, Note_on_c, 0, 79, 64
1, 1239465, Control_c, 0, 64, 43
1, 1239474, Note_on_c, 0, 75, 45
1, 1239480, Control_c, 0, 64, 55
1, 1239494, Control_c, 0, 64, 61
1, 1239497, Note_off_c, 0, 75, 60
1, 1239509, Control_c, 0, 64, 63
1, 1239524, Control_c, 0, 64, 66
1, 1239536, Note_on_c, 0, 82, 75
1, 1239539, Control_c, 0, 64, 71
1, 1239543, Note_off_c, 0, 79, 61
1, 1239554, Control_c, 0, 64, 77
1, 1239568, Control_c, 0, 64, 83
1, 1239583, Control_c, 0, 64, 91
1, 1239598, Control_c, 0, 64, 97
1, 1239602, Note_off_c, 0, 63, 62
1, 1239613, Control_c, 0, 64, 103
1, 1239616, Note_on_c, 0, 65, 70
1, 1239616, Note_off_c, 0, 82, 54
1, 1239628, Control_c, 0, 64, 111
1, 1239628, Note_on_c, 0, 79, 66
1, 1239630, Note_on_c, 0, 75, 44
1, 1239643, Control_c, 0, 64, 127
1, 1239658, Note_off_c, 0, 75, 61
1, 1239663, Note_off_c, 0, 65, 53
1, 1239697, Note_on_c, 0, 63, 84
1, 1239704, Note_on_c, 0, 82, 80
1, 1239710, Note_off_c, 0, 79, 62
1, 1239769, Note_off_c, 0, 82, 57
1, 1239771, Note_off_c, 0, 63, 62
1, 1239780, Note_on_c, 0, 62, 76
1, 1239780, Note_on_c, 0, 75, 54
1, 1239787, Note_on_c, 0, 79, 68
1, 1239815, Note_off_c, 0, 75, 63
1, 1239845, Note_off_c, 0, 62, 58
1, 1239845, Note_off_c, 0, 79, 61
1, 1239851, Control_c, 0, 64, 91
1, 1239857, Note_on_c, 0, 60, 78
1, 1239858, Note_on_c, 0, 82, 84
1, 1239866, Control_c, 0, 64, 64
1, 1239881, Control_c, 0, 64, 0
1, 1239936, Note_on_c, 0, 58, 85
1, 1239938, Note_off_c, 0, 60, 64
1, 1239938, Note_off_c, 0, 82, 57
1, 1239940, Note_on_c, 0, 80, 80
1, 1239958, Note_off_c, 0, 58, 68
1, 1239960, Note_on_c, 0, 74, 62
1, 1239989, Note_off_c, 0, 74, 62
1, 1239995, Note_off_c, 0, 80, 64
1, 1240031, Note_on_c, 0, 82, 77
1, 1240087, Note_off_c, 0, 82, 59
1, 1240107, Note_on_c, 0, 58, 63
1, 1240117, Note_on_c, 0, 80, 75
1, 1240140, Note_on_c, 0, 74, 53
1, 1240144, Note_off_c, 0, 58, 66
1, 1240161, Note_off_c, 0, 74, 60
1, 1240174, Note_off_c, 0, 80, 62
1, 1240206, Note_on_c, 0, 82, 66
1, 1240263, Note_off_c, 0, 82, 60
1, 1240283, Note_on_c, 0, 58, 65
1, 1240285, Note_on_c, 0, 80, 67
1, 1240317, Note_off_c, 0, 58, 63
1, 1240320, Note_on_c, 0, 74, 18
1, 1240328, Note_off_c, 0, 80, 56
1, 1240357, Note_off_c, 0, 74, 41
1, 1240368, Note_on_c, 0, 82, 61
1, 1240402, Note_off_c, 0, 82, 60
1, 1240445, Note_on_c, 0, 80, 67
1, 1240454, Note_on_c, 0, 74, 61
1, 1240464, Note_on_c, 0, 59, 61
1, 1240481, Control_c, 0, 64, 36
1, 1240495, Note_off_c, 0, 74, 59
1, 1240496, Control_c, 0, 64, 51
1, 1240511, Control_c, 0, 64, 57
1, 1240515, Note_off_c, 0, 80, 59
1, 1240526, Control_c, 0, 64, 58
1, 1240540, Note_on_c, 0, 86, 66
1, 1240570, Control_c, 0, 64, 58
1, 1240585, Control_c, 0, 64, 59
1, 1240598, Note_off_c, 0, 59, 62
1, 1240599, Note_off_c, 0, 86, 60
1, 1240600, Control_c, 0, 64, 60
1, 1240615, Control_c, 0, 64, 59
1, 1240621, Note_on_c, 0, 80, 71
1, 1240626, Note_on_c, 0, 71, 61
1, 1240630, Control_c, 0, 64, 49
1, 1240636, Note_on_c, 0, 74, 57
1, 1240645, Control_c, 0, 64, 0
1, 1240653, Note_off_c, 0, 71, 65
1, 1240665, Note_off_c, 0, 74, 62
1, 1240680, Note_off_c, 0, 80, 59
1, 1240704, Note_on_c, 0, 86, 74
1, 1240776, Note_off_c, 0, 86, 61
1, 1240785, Note_on_c, 0, 71, 75
1, 1240788, Note_on_c, 0, 80, 71
1, 1240804, Note_on_c, 0, 74, 52
1, 1240814, Note_off_c, 0, 71, 62
1, 1240844, Note_off_c, 0, 74, 61
1, 1240865, Note_off_c, 0, 80, 59
1, 1240880, Note_on_c, 0, 86, 74
1, 1240943, Note_off_c, 0, 86, 60
1, 1240953, Note_on_c, 0, 72, 77
1, 1240969, Note_on_c, 0, 79, 71
1, 1240992, Control_c, 0, 64, 45
1, 1240993, Note_on_c, 0, 75, 57
1, 1241007, Control_c, 0, 64, 54
1, 1241012, Note_off_c, 0, 75, 61
1, 1241017, Note_off_c, 0, 72, 60
1, 1241022, Control_c, 0, 64, 53
1, 1241035, Note_off_c, 0, 79, 59
1, 1241037, Control_c, 0, 64, 53
1, 1241053, Note_on_c, 0, 87, 74
1, 1241066, Control_c, 0, 64, 54
1, 1241096, Control_c, 0, 64, 54
1, 1241107, Note_off_c, 0, 87, 61
1, 1241111, Control_c, 0, 64, 54
1, 1241125, Note_on_c, 0, 60, 70
1, 1241127, Note_on_c, 0, 79, 75
1, 1241132, Note_on_c, 0, 75, 42
1, 1241159, Note_off_c, 0, 60, 64
1, 1241159, Note_off_c, 0, 75, 64
1, 1241196, Note_off_c, 0, 79, 58
1, 1241210, Note_on_c, 0, 87, 70
1, 1241214, Control_c, 0, 64, 54
1, 1241229, Control_c, 0, 64, 55
1, 1241244, Control_c, 0, 64, 56
1, 1241260, Control_c, 0, 64, 58
1, 1241270, Note_on_c, 0, 60, 72
1, 1241274, Note_off_c, 0, 87, 61
1, 1241275, Control_c, 0, 64, 58
1, 1241282, Note_on_c, 0, 79, 66
1, 1241288, Note_on_c, 0, 75, 54
1, 1241289, Control_c, 0, 64, 59
1, 1241296, Note_off_c, 0, 60, 69
1, 1241304, Control_c, 0, 64, 60
1, 1241319, Control_c, 0, 64, 61
1, 1241327, Note_off_c, 0, 75, 61
1, 1241334, Control_c, 0, 64, 62
1, 1241339, Note_off_c, 0, 79, 62
1, 1241363, Control_c, 0, 64, 59
1, 1241373, Note_on_c, 0, 86, 70
1, 1241378, Control_c, 0, 64, 47
1, 1241393, Control_c, 0, 64, 0
1, 1241424, Note_on_c, 0, 65, 76
1, 1241438, Note_on_c, 0, 75, 69
1, 1241440, Note_on_c, 0, 81, 70
1, 1241450, Note_off_c, 0, 65, 65
1, 1241464, Note_off_c, 0, 86, 63
1, 1241474, Note_off_c, 0, 75, 59
1, 1241497, Note_off_c, 0, 81, 64
1, 1241530, Note_on_c, 0, 84, 65
1, 1241591, Note_off_c, 0, 84, 58
1, 1241606, Note_on_c, 0, 53, 83
1, 1241607, Note_on_c, 0, 81, 71
1, 1241612, Note_on_c, 0, 75, 64
1, 1241618, Note_on_c, 0, 55, 61
1, 1241628, Note_off_c, 0, 53, 70
1, 1241639, Note_off_c, 0, 75, 68
1, 1241640, Note_off_c, 0, 55, 61
1, 1241679, Note_off_c, 0, 81, 49
1, 1241680, Note_on_c, 0, 84, 83
1, 1241688, Note_on_c, 0, 52, 95
1, 1241724, Note_off_c, 0, 52, 66
1, 1241743, Note_off_c, 0, 84, 62
1, 1241762, Note_on_c, 0, 75, 47
1, 1241765, Note_on_c, 0, 53, 89
1, 1241766, Note_on_c, 0, 81, 73
1, 1241798, Note_off_c, 0, 75, 51
1, 1241804, Note_off_c, 0, 53, 64
1, 1241830, Note_off_c, 0, 81, 61
1, 1241843, Note_on_c, 0, 84, 70
1, 1241909, Note_off_c, 0, 84, 57
1, 1241932, Note_on_c, 0, 58, 75
1, 1241945, Note_on_c, 0, 82, 69
1, 1241956, Note_off_c, 0, 58, 67
1, 1241958, Note_on_c, 0, 74, 64
1, 1241984, Note_off_c, 0, 74, 65
1, 1242004, Note_off_c, 0, 82, 50
1, 1242033, Note_on_c, 0, 86, 66
1, 1242078, Note_off_c, 0, 86, 63
1, 1242108, Note_on_c, 0, 46, 77
1, 1242112, Note_on_c, 0, 82, 75
1, 1242126, Note_on_c, 0, 74, 58
1, 1242138, Note_off_c, 0, 46, 66
1, 1242155, Note_off_c, 0, 74, 66
1, 1242167, Note_off_c, 0, 82, 53
1, 1242189, Note_on_c, 0, 86, 80
1, 1242198, Note_on_c, 0, 45, 95
1, 1242234, Note_off_c, 0, 45, 65
1, 1242252, Note_off_c, 0, 86, 60
1, 1242268, Note_on_c, 0, 74, 67
1, 1242272, Note_on_c, 0, 82, 73
1, 1242284, Note_on_c, 0, 46, 95
1, 1242314, Note_off_c, 0, 74, 62
1, 1242318, Note_off_c, 0, 46, 63
1, 1242356, Note_off_c, 0, 82, 60
1, 1242357, Note_on_c, 0, 86, 72
1, 1242452, Note_off_c, 0, 86, 62
1, 1242463, Note_on_c, 0, 41, 73
1, 1242470, Note_on_c, 0, 81, 66
1, 1242493, Note_on_c, 0, 75, 43
1, 1242517, Note_off_c, 0, 75, 54
1, 1242534, Note_off_c, 0, 81, 56
1, 1242557, Note_on_c, 0, 84, 65
1, 1242623, Note_off_c, 0, 84, 57
1, 1242630, Note_off_c, 0, 41, 64
1, 1242639, Note_on_c, 0, 43, 70
1, 1242645, Note_on_c, 0, 81, 59
1, 1242682, Note_on_c, 0, 75, 14
1, 1242703, Note_off_c, 0, 75, 45
1, 1242704, Note_off_c, 0, 43, 62
1, 1242725, Note_on_c, 0, 84, 73
1, 1242731, Note_on_c, 0, 45, 65
1, 1242732, Note_off_c, 0, 81, 57
1, 1242774, Note_off_c, 0, 45, 62
1, 1242792, Note_off_c, 0, 84, 55
1, 1242805, Note_on_c, 0, 46, 63
1, 1242815, Note_on_c, 0, 75, 58
1, 1242834, Note_on_c, 0, 81, 56
1, 1242846, Note_off_c, 0, 46, 60
1, 1242861, Control_c, 0, 64, 28
1, 1242862, Note_off_c, 0, 75, 57
1, 1242862, Note_off_c, 0, 81, 55
1, 1242876, Control_c, 0, 64, 0
1, 1242891, Note_on_c, 0, 48, 78
1, 1242894, Note_on_c, 0, 84, 73
1, 1242922, Note_off_c, 0, 48, 67
1, 1242948, Note_off_c, 0, 84, 58
1, 1242992, Note_on_c, 0, 82, 69
1, 1243005, Note_on_c, 0, 46, 73
1, 1243008, Note_on_c, 0, 74, 56
1, 1243028, Note_off_c, 0, 74, 60
1, 1243033, Note_off_c, 0, 46, 65
1, 1243038, Note_off_c, 0, 82, 57
1, 1243069, Note_on_c, 0, 86, 66
1, 1243124, Note_off_c, 0, 86, 62
1, 1243160, Note_on_c, 0, 82, 70
1, 1243163, Note_on_c, 0, 46, 64
1, 1243174, Note_on_c, 0, 74, 52
1, 1243205, Note_off_c, 0, 46, 59
1, 1243211, Note_off_c, 0, 74, 62
1, 1243223, Note_off_c, 0, 82, 54
1, 1243256, Note_on_c, 0, 86, 61
1, 1243304, Note_off_c, 0, 86, 62
1, 1243315, Note_on_c, 0, 46, 71
1, 1243332, Note_on_c, 0, 82, 66
1, 1243340, Note_off_c, 0, 46, 65
1, 1243351, Note_on_c, 0, 74, 45
1, 1243375, Note_off_c, 0, 74, 52
1, 1243393, Note_off_c, 0, 82, 51
1, 1243412, Note_on_c, 0, 86, 65
1, 1243486, Note_on_c, 0, 53, 64
1, 1243495, Note_off_c, 0, 86, 60
1, 1243503, Note_on_c, 0, 81, 64
1, 1243515, Note_on_c, 0, 75, 52
1, 1243544, Note_off_c, 0, 75, 57
1, 1243564, Note_off_c, 0, 81, 52
1, 1243585, Note_on_c, 0, 84, 66
1, 1243634, Note_off_c, 0, 84, 59
1, 1243642, Note_off_c, 0, 53, 62
1, 1243653, Note_on_c, 0, 55, 64
1, 1243677, Note_on_c, 0, 81, 61
1, 1243704, Note_on_c, 0, 75, 24
1, 1243715, Note_off_c, 0, 55, 62
1, 1243733, Note_off_c, 0, 75, 42
1, 1243745, Note_on_c, 0, 57, 62
1, 1243746, Note_on_c, 0, 84, 74
1, 1243760, Note_off_c, 0, 81, 54
1, 1243780, Note_off_c, 0, 57, 64
1, 1243807, Note_on_c, 0, 58, 63
1, 1243819, Note_off_c, 0, 84, 56
1, 1243837, Note_on_c, 0, 75, 63
1, 1243851, Note_off_c, 0, 58, 62
1, 1243855, Control_c, 0, 64, 33
1, 1243870, Control_c, 0, 64, 39
1, 1243882, Note_on_c, 0, 81, 25
1, 1243885, Control_c, 0, 64, 40
1, 1243897, Note_on_c, 0, 60, 62
1, 1243900, Note_off_c, 0, 75, 49
1, 1243915, Control_c, 0, 64, 40
1, 1243919, Note_on_c, 0, 84, 76
1, 1243920, Note_off_c, 0, 81, 54
1, 1243935, Note_off_c, 0, 60, 67
1, 1243944, Control_c, 0, 64, 40
1, 1243959, Control_c, 0, 64, 33
1, 1243974, Control_c, 0, 64, 0
1, 1243988, Note_off_c, 0, 84, 0
1, 1244016, Note_on_c, 0, 58, 74
1, 1244022, Note_on_c, 0, 82, 59
1, 1244025, Poly_aftertouch_c, 0, 84, 127
1, 1244025, Note_on_c, 0, 74, 60
1, 1244045, Note_off_c, 0, 58, 66
1, 1244051, Note_off_c, 0, 74, 64
1, 1244061, Poly_aftertouch_c, 0, 84, 0
1, 1244069, Note_off_c, 0, 82, 51
1, 1244091, Note_on_c, 0, 86, 71
1, 1244137, Note_off_c, 0, 86, 63
1, 1244160, Note_on_c, 0, 58, 58
1, 1244169, Note_on_c, 0, 82, 69
1, 1244181, Note_on_c, 0, 74, 57
1, 1244201, Note_off_c, 0, 58, 62
1, 1244210, Note_off_c, 0, 74, 65
1, 1244231, Note_off_c, 0, 82, 55
1, 1244253, Note_on_c, 0, 86, 62
1, 1244304, Note_off_c, 0, 86, 60
1, 1244322, Note_on_c, 0, 58, 68
1, 1244327, Note_on_c, 0, 74, 61
1, 1244333, Note_on_c, 0, 82, 63
1, 1244349, Note_off_c, 0, 58, 65
1, 1244366, Note_off_c, 0, 74, 64
1, 1244400, Note_off_c, 0, 82, 56
1, 1244409, Note_on_c, 0, 86, 69
1, 1244490, Note_on_c, 0, 65, 64
1, 1244497, Note_off_c, 0, 86, 60
1, 1244511, Note_on_c, 0, 81, 55
1, 1244526, Note_on_c, 0, 75, 46
1, 1244553, Note_off_c, 0, 75, 55
1, 1244583, Note_off_c, 0, 81, 58
1, 1244594, Note_on_c, 0, 84, 66
1, 1244649, Note_off_c, 0, 65, 59
1, 1244657, Note_off_c, 0, 84, 55
1, 1244669, Note_on_c, 0, 67, 62
1, 1244690, Note_on_c, 0, 81, 61
1, 1244739, Note_off_c, 0, 67, 60
1, 1244754, Poly_aftertouch_c, 0, 75, 0
1, 1244758, Note_on_c, 0, 84, 71
1, 1244759, Note_on_c, 0, 69, 55
1, 1244778, Note_off_c, 0, 81, 59
1, 1244802, Note_off_c, 0, 69, 57
1, 1244835, Note_on_c, 0, 70, 57
1, 1244848, Note_off_c, 0, 84, 56
1, 1244861, Note_on_c, 0, 75, 52
1, 1244876, Note_off_c, 0, 70, 59
1, 1244886, Note_on_c, 0, 81, 37
1, 1244913, Note_on_c, 0, 84, 35
1, 1244932, Note_off_c, 0, 75, 41
1, 1244941, Note_on_c, 0, 72, 54
1, 1244941, Note_off_c, 0, 81, 44
1, 1244967, Note_off_c, 0, 72, 63
1, 1244970, Note_off_c, 0, 84, 61
1, 1245071, Note_on_c, 0, 86, 50
1, 1245087, Note_on_c, 0, 70, 53
1, 1245089, Note_on_c, 0, 74, 36
1, 1245090, Note_on_c, 0, 82, 43
1, 1245092, Control_c, 0, 64, 31
1, 1245106, Control_c, 0, 64, 44
1, 1245121, Control_c, 0, 64, 56
1, 1245136, Control_c, 0, 64, 61
1, 1245150, Control_c, 0, 64, 64
1, 1245165, Control_c, 0, 64, 66
1, 1245180, Control_c, 0, 64, 70
1, 1245195, Control_c, 0, 64, 75
1, 1245210, Control_c, 0, 64, 80
1, 1245224, Control_c, 0, 64, 85
1, 1245239, Control_c, 0, 64, 90
1, 1245241, Note_off_c, 0, 70, 63
1, 1245255, Control_c, 0, 64, 94
1, 1245270, Control_c, 0, 64, 96
1, 1245300, Control_c, 0, 64, 99
1, 1245315, Control_c, 0, 64, 101
1, 1245316, Note_off_c, 0, 86, 63
1, 1245334, Note_off_c, 0, 74, 55
1, 1245351, Control_c, 0, 64, 104
1, 1245367, Note_off_c, 0, 82, 63
1, 1245455, Control_c, 0, 67, 117
1, 1245470, Control_c, 0, 67, 109
1, 1245485, Control_c, 0, 64, 100
1, 1245485, Control_c, 0, 67, 104
1, 1245500, Control_c, 0, 64, 88
1, 1245500, Control_c, 0, 67, 97
1, 1245515, Control_c, 0, 64, 77
1, 1245515, Control_c, 0, 67, 86
1, 1245529, Control_c, 0, 64, 69
1, 1245529, Control_c, 0, 67, 71
1, 1245544, Control_c, 0, 64, 63
1, 1245544, Control_c, 0, 67, 59
1, 1245559, Control_c, 0, 64, 58
1, 1245559, Control_c, 0, 67, 55
1, 1245573, Control_c, 0, 64, 55
1, 1245573, Control_c, 0, 67, 52
1, 1245588, Control_c, 0, 64, 53
1, 1245588, Control_c, 0, 67, 45
1, 1245603, Control_c, 0, 64, 51
1, 1245603, Control_c, 0, 67, 37
1, 1245618, Control_c, 0, 64, 49
1, 1245618, Control_c, 0, 67, 0
1, 1245633, Control_c, 0, 64, 46
1, 1245647, Control_c, 0, 64, 42
1, 1245662, Control_c, 0, 64, 38
1, 1245677, Control_c, 0, 64, 37
1, 1245707, Control_c, 0, 64, 35
1, 1245721, Control_c, 0, 64, 33
1, 1245736, Control_c, 0, 64, 33
1, 1245751, Control_c, 0, 64, 33
1, 1245914, Control_c, 0, 64, 34
1, 1245973, Control_c, 0, 64, 35
1, 1245988, Control_c, 0, 64, 35
1, 1246049, Control_c, 0, 64, 36
1, 1246064, Control_c, 0, 64, 36
1, 1246130, Control_c, 0, 64, 37
1, 1246159, Control_c, 0, 64, 37
1, 1246219, Control_c, 0, 64, 38
1, 1246234, Control_c, 0, 64, 38
1, 1246265, Note_on_c, 0, 65, 53
1, 1246269, Note_on_c, 0, 61, 45
1, 1246278, Control_c, 0, 64, 38
1, 1246293, Control_c, 0, 64, 36
1, 1246308, Control_c, 0, 64, 35
1, 1246323, Control_c, 0, 64, 28
1, 1246338, Control_c, 0, 64, 0
1, 1246492, Note_on_c, 0, 46, 58
1, 1246494, Note_off_c, 0, 61, 64
1, 1246499, Note_off_c, 0, 65, 61
1, 1246523, Note_off_c, 0, 46, 64
1, 1246746, Note_on_c, 0, 65, 56
1, 1246755, Note_on_c, 0, 61, 44
1, 1246982, Control_c, 0, 64, 45
1, 1246987, Note_on_c, 0, 49, 77
1, 1246997, Control_c, 0, 64, 74
1, 1247012, Note_off_c, 0, 49, 66
1, 1247012, Control_c, 0, 64, 127
1, 1247036, Note_off_c, 0, 61, 58
1, 1247047, Note_off_c, 0, 65, 58
1, 1247193, Note_on_c, 0, 60, 66
1, 1247193, Note_on_c, 0, 63, 67
1, 1247203, Note_on_c, 0, 65, 57
1, 1247205, Control_c, 0, 64, 88
1, 1247220, Note_off_c, 0, 60, 66
1, 1247220, Control_c, 0, 64, 52
1, 1247224, Note_off_c, 0, 63, 65
1, 1247228, Note_off_c, 0, 65, 62
1, 1247234, Control_c, 0, 64, 0
1, 1247438, Note_on_c, 0, 58, 59
1, 1247438, Note_on_c, 0, 61, 53
1, 1247449, Note_on_c, 0, 65, 45
1, 1247465, Note_off_c, 0, 61, 58
1, 1247479, Note_off_c, 0, 58, 59
1, 1247490, Note_off_c, 0, 65, 50
1, 1247688, Note_on_c, 0, 65, 49
1, 1247694, Note_on_c, 0, 57, 43
1, 1247702, Note_on_c, 0, 60, 38
1, 1247900, Note_on_c, 0, 42, 57
1, 1247903, Note_off_c, 0, 65, 58
1, 1247904, Note_off_c, 0, 57, 58
1, 1247908, Note_off_c, 0, 60, 59
1, 1247931, Note_off_c, 0, 42, 64
1, 1248147, Note_on_c, 0, 65, 60
1, 1248147, Note_on_c, 0, 60, 56
1, 1248150, Note_on_c, 0, 57, 48
1, 1248175, Control_c, 0, 64, 43
1, 1248190, Control_c, 0, 64, 65
1, 1248205, Control_c, 0, 64, 84
1, 1248220, Control_c, 0, 64, 127
1, 1248355, Note_off_c, 0, 57, 64
1, 1248361, Note_off_c, 0, 60, 64
1, 1248384, Note_off_c, 0, 65, 53
1, 1248387, Note_on_c, 0, 41, 86
1, 1248413, Note_off_c, 0, 41, 70
1, 1248584, Control_c, 0, 64, 79
1, 1248598, Control_c, 0, 64, 44
1, 1248603, Note_on_c, 0, 61, 64
1, 1248604, Note_on_c, 0, 65, 52
1, 1248607, Note_on_c, 0, 58, 65
1, 1248613, Control_c, 0, 64, 0
1, 1248634, Note_off_c, 0, 58, 66
1, 1248636, Note_off_c, 0, 61, 66
1, 1248645, Note_off_c, 0, 65, 64
1, 1248840, Note_on_c, 0, 63, 57
1, 1248843, Note_on_c, 0, 60, 53
1, 1248867, Note_on_c, 0, 65, 26
1, 1248875, Note_off_c, 0, 60, 65
1, 1248875, Note_off_c, 0, 63, 64
1, 1248905, Note_off_c, 0, 65, 44
1, 1249099, Note_on_c, 0, 65, 43
1, 1249107, Note_on_c, 0, 61, 37
1, 1249303, Control_c, 0, 67, 48
1, 1249318, Control_c, 0, 67, 52
1, 1249324, Note_off_c, 0, 61, 64
1, 1249326, Note_on_c, 0, 46, 52
1, 1249328, Note_off_c, 0, 65, 61
1, 1249347, Control_c, 0, 67, 54
1, 1249353, Note_off_c, 0, 46, 58
1, 1249362, Control_c, 0, 67, 62
1, 1249377, Control_c, 0, 67, 75
1, 1249392, Control_c, 0, 67, 72
1, 1249407, Control_c, 0, 67, 71
1, 1249421, Control_c, 0, 67, 72
1, 1249436, Control_c, 0, 67, 74
1, 1249451, Control_c, 0, 67, 75
1, 1249466, Control_c, 0, 67, 72
1, 1249481, Control_c, 0, 67, 71
1, 1249495, Control_c, 0, 67, 71
1, 1249510, Control_c, 0, 67, 72
1, 1249525, Control_c, 0, 67, 71
1, 1249540, Control_c, 0, 67, 63
1, 1249554, Control_c, 0, 67, 57
1, 1249560, Note_on_c, 0, 65, 68
1, 1249562, Note_on_c, 0, 61, 56
1, 1249569, Control_c, 0, 67, 55
1, 1249584, Control_c, 0, 67, 54
1, 1249599, Control_c, 0, 67, 52
1, 1249614, Control_c, 0, 64, 29
1, 1249614, Control_c, 0, 67, 42
1, 1249629, Control_c, 0, 64, 40
1, 1249629, Control_c, 0, 67, 0
1, 1249644, Control_c, 0, 64, 44
1, 1249674, Control_c, 0, 64, 44
1, 1249688, Control_c, 0, 64, 44
1, 1249703, Control_c, 0, 64, 45
1, 1249718, Control_c, 0, 64, 45
1, 1249733, Control_c, 0, 64, 44
1, 1249747, Control_c, 0, 64, 45
1, 1249762, Control_c, 0, 64, 52
1, 1249777, Control_c, 0, 64, 67
1, 1249778, Note_on_c, 0, 49, 83
1, 1249792, Control_c, 0, 64, 102
1, 1249804, Note_off_c, 0, 49, 69
1, 1249807, Control_c, 0, 64, 127
1, 1249846, Note_off_c, 0, 61, 59
1, 1249893, Note_off_c, 0, 65, 37
1, 1249993, Note_on_c, 0, 61, 66
1, 1249994, Note_on_c, 0, 65, 73
1, 1249998, Note_on_c, 0, 60, 68
1, 1250021, Note_off_c, 0, 61, 66
1, 1250024, Note_off_c, 0, 60, 67
1, 1250028, Note_off_c, 0, 65, 61
1, 1250036, Control_c, 0, 64, 79
1, 1250052, Control_c, 0, 64, 51
1, 1250067, Control_c, 0, 64, 0
1, 1250245, Note_on_c, 0, 61, 50
1, 1250245, Control_c, 0, 67, 37
1, 1250253, Note_on_c, 0, 58, 54
1, 1250260, Control_c, 0, 67, 76
1, 1250273, Note_on_c, 0, 65, 21
1, 1250275, Note_off_c, 0, 61, 60
1, 1250275, Control_c, 0, 67, 127
1, 1250288, Note_off_c, 0, 58, 56
1, 1250313, Note_off_c, 0, 65, 41
1, 1250511, Note_on_c, 0, 61, 38
1, 1250521, Note_on_c, 0, 65, 36
1, 1250532, Note_on_c, 0, 56, 29
1, 1250707, Note_off_c, 0, 65, 61
1, 1250738, Note_off_c, 0, 56, 54
1, 1250740, Note_off_c, 0, 61, 63
1, 1250750, Note_on_c, 0, 41, 37
1, 1250789, Note_off_c, 0, 41, 50
1, 1250976, Note_on_c, 0, 61, 37
1, 1250986, Note_on_c, 0, 65, 43
1, 1250994, Note_on_c, 0, 56, 39
1, 1251178, Note_off_c, 0, 65, 61
1, 1251179, Note_off_c, 0, 56, 62
1, 1251179, Note_off_c, 0, 61, 63
1, 1251203, Note_on_c, 0, 32, 49
1, 1251279, Note_off_c, 0, 32, 0
1, 1251323, Poly_aftertouch_c, 0, 32, 127
1, 1251396, Note_on_c, 0, 32, 3
1, 1251420, Note_off_c, 0, 32, 54
1, 1251426, Note_on_c, 0, 68, 61
1, 1251431, Note_on_c, 0, 56, 55
1, 1251442, Note_on_c, 0, 65, 41
1, 1251455, Note_off_c, 0, 56, 61
1, 1251462, Note_off_c, 0, 68, 59
1, 1251469, Note_off_c, 0, 65, 54
1, 1251653, Note_on_c, 0, 68, 59
1, 1251671, Note_on_c, 0, 56, 42
1, 1251689, Note_off_c, 0, 68, 62
1, 1251700, Note_off_c, 0, 56, 51
1, 1251853, Note_on_c, 0, 65, 42
1, 1251860, Note_on_c, 0, 61, 45
1, 1251882, Note_on_c, 0, 56, 29
1, 1252073, Note_off_c, 0, 65, 62
1, 1252076, Note_off_c, 0, 56, 57
1, 1252085, Note_off_c, 0, 61, 63
1, 1252093, Note_on_c, 0, 37, 57
1, 1252123, Note_off_c, 0, 37, 56
1, 1252309, Note_on_c, 0, 61, 52
1, 1252321, Note_on_c, 0, 56, 44
1, 1252325, Note_on_c, 0, 65, 54
1, 1252520, Note_on_c, 0, 37, 61
1, 1252552, Note_off_c, 0, 37, 64
1, 1252696, Note_off_c, 0, 56, 53
1, 1252741, Note_on_c, 0, 49, 52
1, 1252767, Note_off_c, 0, 49, 58
1, 1252838, Note_off_c, 0, 61, 58
1, 1252845, Note_off_c, 0, 65, 47
1, 1252961, Note_on_c, 0, 48, 66
1, 1252988, Note_off_c, 0, 48, 66
1, 1253194, Note_on_c, 0, 65, 49
1, 1253197, Note_on_c, 0, 61, 47
1, 1253256, Control_c, 0, 67, 123
1, 1253270, Control_c, 0, 67, 112
1, 1253285, Control_c, 0, 67, 104
1, 1253300, Control_c, 0, 67, 97
1, 1253314, Control_c, 0, 67, 93
1, 1253329, Control_c, 0, 67, 90
1, 1253344, Control_c, 0, 67, 84
1, 1253359, Control_c, 0, 67, 76
1, 1253374, Control_c, 0, 67, 69
1, 1253388, Control_c, 0, 67, 62
1, 1253403, Control_c, 0, 67, 56
1, 1253412, Note_on_c, 0, 46, 50
1, 1253418, Control_c, 0, 67, 44
1, 1253421, Note_off_c, 0, 61, 61
1, 1253421, Note_off_c, 0, 65, 63
1, 1253433, Control_c, 0, 67, 0
1, 1253443, Note_off_c, 0, 46, 55
1, 1253656, Note_on_c, 0, 65, 62
1, 1253659, Note_on_c, 0, 61, 53
1, 1253677, Control_c, 0, 64, 51
1, 1253692, Control_c, 0, 64, 67
1, 1253707, Control_c, 0, 64, 79
1, 1253722, Control_c, 0, 64, 104
1, 1253737, Control_c, 0, 64, 127
1, 1253881, Note_on_c, 0, 49, 78
1, 1253904, Note_off_c, 0, 49, 67
1, 1253925, Note_off_c, 0, 61, 62
1, 1253942, Note_off_c, 0, 65, 55
1, 1254093, Control_c, 0, 64, 82
1, 1254108, Note_on_c, 0, 60, 61
1, 1254108, Control_c, 0, 64, 50
1, 1254111, Note_on_c, 0, 63, 53
1, 1254112, Note_on_c, 0, 65, 50
1, 1254123, Control_c, 0, 64, 0
1, 1254129, Note_off_c, 0, 60, 63
1, 1254134, Note_off_c, 0, 63, 58
1, 1254137, Note_off_c, 0, 65, 57
1, 1254338, Note_on_c, 0, 61, 50
1, 1254347, Note_on_c, 0, 58, 48
1, 1254353, Note_on_c, 0, 65, 52
1, 1254370, Note_off_c, 0, 61, 63
1, 1254382, Note_off_c, 0, 58, 56
1, 1254384, Note_off_c, 0, 65, 59
1, 1254573, Note_on_c, 0, 65, 43
1, 1254581, Note_on_c, 0, 60, 43
1, 1254591, Note_on_c, 0, 57, 47
1, 1254778, Note_on_c, 0, 42, 66
1, 1254781, Note_off_c, 0, 57, 60
1, 1254794, Note_off_c, 0, 65, 58
1, 1254795, Note_off_c, 0, 60, 65
1, 1254812, Note_off_c, 0, 42, 63
1, 1255015, Note_on_c, 0, 65, 63
1, 1255023, Note_on_c, 0, 57, 47
1, 1255024, Note_on_c, 0, 60, 51
1, 1255234, Control_c, 0, 64, 45
1, 1255244, Note_on_c, 0, 41, 76
1, 1255249, Control_c, 0, 64, 73
1, 1255257, Note_off_c, 0, 57, 64
1, 1255263, Note_off_c, 0, 60, 64
1, 1255264, Control_c, 0, 64, 127
1, 1255272, Note_off_c, 0, 41, 66
1, 1255278, Note_off_c, 0, 65, 62
1, 1255466, Note_on_c, 0, 61, 61
1, 1255467, Note_on_c, 0, 58, 58
1, 1255469, Note_on_c, 0, 65, 57
1, 1255471, Control_c, 0, 64, 89
1, 1255485, Control_c, 0, 64, 58
1, 1255489, Note_off_c, 0, 58, 60
1, 1255495, Note_off_c, 0, 61, 64
1, 1255500, Control_c, 0, 64, 0
1, 1255501, Note_off_c, 0, 65, 61
1, 1255710, Note_on_c, 0, 63, 49
1, 1255711, Note_on_c, 0, 60, 45
1, 1255725, Note_on_c, 0, 65, 33
1, 1255741, Note_off_c, 0, 60, 57
1, 1255746, Note_off_c, 0, 63, 63
1, 1255758, Note_off_c, 0, 65, 48
1, 1255963, Note_on_c, 0, 65, 49
1, 1255966, Note_on_c, 0, 61, 42
1, 1256178, Note_off_c, 0, 61, 65
1, 1256181, Note_on_c, 0, 46, 48
1, 1256213, Note_off_c, 0, 46, 49
1, 1256217, Note_off_c, 0, 65, 36
1, 1256416, Note_on_c, 0, 65, 69
1, 1256419, Note_on_c, 0, 61, 61
1, 1256650, Note_on_c, 0, 49, 80
1, 1256673, Control_c, 0, 64, 65
1, 1256681, Note_off_c, 0, 49, 68
1, 1256687, Control_c, 0, 64, 127
1, 1256719, Note_off_c, 0, 61, 62
1, 1256761, Note_off_c, 0, 65, 42
1, 1256864, Note_on_c, 0, 65, 76
1, 1256870, Note_on_c, 0, 61, 59
1, 1256879, Note_on_c, 0, 60, 54
1, 1256899, Note_off_c, 0, 61, 65
1, 1256903, Note_off_c, 0, 60, 59
1, 1256910, Control_c, 0, 64, 78
1, 1256911, Note_off_c, 0, 65, 60
1, 1256925, Control_c, 0, 64, 41
1, 1256939, Control_c, 0, 64, 0
1, 1257103, Note_on_c, 0, 61, 57
1, 1257111, Note_on_c, 0, 58, 53
1, 1257112, Note_on_c, 0, 65, 48
1, 1257141, Note_off_c, 0, 61, 63
1, 1257153, Note_off_c, 0, 65, 60
1, 1257155, Note_off_c, 0, 58, 55
1, 1257296, Control_c, 0, 67, 34
1, 1257318, Control_c, 0, 67, 37
1, 1257333, Control_c, 0, 67, 43
1, 1257348, Control_c, 0, 67, 60
1, 1257362, Control_c, 0, 67, 87
1, 1257377, Control_c, 0, 67, 109
1, 1257392, Control_c, 0, 67, 120
1, 1257407, Control_c, 0, 67, 127
1, 1257425, Note_on_c, 0, 56, 38
1, 1257427, Note_on_c, 0, 61, 31
1, 1257430, Note_on_c, 0, 65, 47
1, 1257586, Note_off_c, 0, 65, 57
1, 1257638, Note_on_c, 0, 41, 52
1, 1257639, Note_off_c, 0, 56, 51
1, 1257653, Note_off_c, 0, 61, 57
1, 1257666, Note_off_c, 0, 41, 55
1, 1257874, Note_on_c, 0, 65, 40
1, 1257875, Note_on_c, 0, 61, 40
1, 1257882, Note_on_c, 0, 56, 44
1, 1258079, Note_off_c, 0, 61, 62
1, 1258082, Note_off_c, 0, 56, 59
1, 1258091, Note_off_c, 0, 65, 57
1, 1258103, Note_on_c, 0, 32, 46
1, 1258308, Note_off_c, 0, 32, 54
1, 1258318, Note_on_c, 0, 68, 55
1, 1258325, Note_on_c, 0, 56, 55
1, 1258327, Note_on_c, 0, 65, 49
1, 1258353, Note_off_c, 0, 68, 64
1, 1258357, Note_off_c, 0, 56, 62
1, 1258357, Note_off_c, 0, 65, 62
1, 1258534, Note_on_c, 0, 68, 53
1, 1258545, Note_on_c, 0, 56, 49
1, 1258553, Note_on_c, 0, 65, 40
1, 1258571, Note_off_c, 0, 56, 57
1, 1258572, Note_off_c, 0, 68, 62
1, 1258581, Note_off_c, 0, 65, 54
1, 1258749, Note_on_c, 0, 61, 44
1, 1258760, Note_on_c, 0, 56, 47
1, 1258762, Note_on_c, 0, 65, 35
1, 1258986, Note_on_c, 0, 37, 52
1, 1259004, Note_off_c, 0, 61, 61
1, 1259007, Note_off_c, 0, 65, 60
1, 1259015, Note_off_c, 0, 56, 52
1, 1259018, Note_off_c, 0, 37, 56
1, 1259201, Note_on_c, 0, 65, 60
1, 1259212, Note_on_c, 0, 61, 46
1, 1259227, Note_on_c, 0, 56, 33
1, 1259410, Note_on_c, 0, 37, 57
1, 1259439, Note_off_c, 0, 37, 59
1, 1259636, Note_on_c, 0, 49, 53
1, 1259672, Note_off_c, 0, 49, 61
1, 1259761, Note_off_c, 0, 56, 41
1, 1259796, Note_off_c, 0, 61, 62
1, 1259823, Note_off_c, 0, 65, 63
1, 1259845, Note_on_c, 0, 48, 58
1, 1259871, Note_off_c, 0, 48, 61
1, 1259919, Control_c, 0, 67, 125
1, 1259934, Control_c, 0, 67, 97
1, 1259949, Control_c, 0, 67, 70
1, 1259964, Control_c, 0, 67, 49
1, 1259979, Control_c, 0, 67, 0
1, 1260075, Note_on_c, 0, 66, 58
1, 1260096, Note_on_c, 0, 61, 40
1, 1260101, Note_on_c, 0, 58, 28
1, 1260286, Note_on_c, 0, 46, 50
1, 1260314, Note_off_c, 0, 58, 54
1, 1260318, Note_off_c, 0, 61, 64
1, 1260323, Note_off_c, 0, 46, 60
1, 1260326, Note_off_c, 0, 66, 65
1, 1260520, Control_c, 0, 64, 29
1, 1260533, Note_on_c, 0, 66, 68
1, 1260535, Control_c, 0, 64, 42
1, 1260548, Note_on_c, 0, 58, 48
1, 1260550, Control_c, 0, 64, 53
1, 1260559, Note_on_c, 0, 61, 43
1, 1260565, Control_c, 0, 64, 62
1, 1260579, Control_c, 0, 64, 67
1, 1260594, Control_c, 0, 64, 77
1, 1260609, Control_c, 0, 64, 102
1, 1260624, Control_c, 0, 64, 127
1, 1260661, Poly_aftertouch_c, 0, 41, 127
1, 1260727, Note_off_c, 0, 61, 56
1, 1260749, Note_off_c, 0, 66, 63
1, 1260756, Poly_aftertouch_c, 0, 41, 0
1, 1260766, Note_off_c, 0, 58, 41
1, 1260770, Note_on_c, 0, 49, 83
1, 1260792, Note_off_c, 0, 49, 67
1, 1260986, Note_on_c, 0, 68, 73
1, 1260994, Control_c, 0, 64, 74
1, 1260995, Note_on_c, 0, 58, 62
1, 1261007, Note_on_c, 0, 61, 45
1, 1261009, Control_c, 0, 64, 0
1, 1261017, Note_off_c, 0, 58, 60
1, 1261035, Note_off_c, 0, 61, 56
1, 1261043, Note_off_c, 0, 68, 61
1, 1261207, Note_on_c, 0, 70, 71
1, 1261223, Note_on_c, 0, 58, 73
1, 1261240, Note_off_c, 0, 70, 63
1, 1261244, Note_on_c, 0, 61, 33
1, 1261251, Note_off_c, 0, 58, 64
1, 1261278, Note_off_c, 0, 61, 33
1, 1261417, Poly_aftertouch_c, 0, 39, 0
1, 1261452, Note_on_c, 0, 65, 67
1, 1261467, Note_on_c, 0, 60, 40
1, 1261472, Note_on_c, 0, 56, 27
1, 1261676, Note_on_c, 0, 48, 55
1, 1261690, Note_off_c, 0, 65, 62
1, 1261690, Note_off_c, 0, 56, 48
1, 1261693, Note_off_c, 0, 60, 57
1, 1261707, Note_off_c, 0, 48, 54
1, 1261898, Note_on_c, 0, 65, 70
1, 1261925, Note_on_c, 0, 60, 49
1, 1261926, Note_on_c, 0, 56, 44
1, 1261987, Control_c, 0, 64, 31
1, 1262001, Control_c, 0, 64, 52
1, 1262016, Control_c, 0, 64, 59
1, 1262032, Control_c, 0, 64, 60
1, 1262047, Control_c, 0, 64, 63
1, 1262062, Control_c, 0, 64, 69
1, 1262076, Control_c, 0, 64, 83
1, 1262085, Note_off_c, 0, 60, 50
1, 1262091, Control_c, 0, 64, 127
1, 1262097, Note_off_c, 0, 56, 34
1, 1262150, Note_on_c, 0, 36, 79
1, 1262179, Note_off_c, 0, 36, 65
1, 1262184, Note_off_c, 0, 65, 59
1, 1262369, Note_on_c, 0, 64, 75
1, 1262376, Note_on_c, 0, 60, 63
1, 1262386, Note_on_c, 0, 55, 60
1, 1262403, Note_off_c, 0, 60, 67
1, 1262409, Note_off_c, 0, 55, 62
1, 1262417, Control_c, 0, 64, 88
1, 1262423, Note_off_c, 0, 64, 64
1, 1262432, Control_c, 0, 64, 53
1, 1262447, Control_c, 0, 64, 0
1, 1262615, Note_on_c, 0, 55, 58
1, 1262620, Note_on_c, 0, 64, 62
1, 1262624, Note_on_c, 0, 60, 54
1, 1262639, Note_off_c, 0, 55, 60
1, 1262649, Note_off_c, 0, 60, 59
1, 1262651, Note_off_c, 0, 64, 65
1, 1262891, Note_on_c, 0, 60, 24
1, 1262892, Note_on_c, 0, 63, 52
1, 1262927, Note_on_c, 0, 56, 26
1, 1263107, Note_on_c, 0, 48, 55
1, 1263108, Note_off_c, 0, 56, 58
1, 1263109, Note_off_c, 0, 63, 62
1, 1263115, Note_off_c, 0, 60, 59
1, 1263135, Note_off_c, 0, 48, 56
1, 1263152, Control_c, 0, 67, 34
1, 1263166, Control_c, 0, 67, 50
1, 1263181, Control_c, 0, 67, 79
1, 1263196, Control_c, 0, 67, 113
1, 1263211, Control_c, 0, 67, 127
1, 1263327, Note_on_c, 0, 63, 47
1, 1263337, Control_c, 0, 64, 38
1, 1263338, Note_on_c, 0, 60, 37
1, 1263348, Note_on_c, 0, 56, 34
1, 1263352, Control_c, 0, 64, 55
1, 1263367, Control_c, 0, 64, 62
1, 1263381, Control_c, 0, 64, 65
1, 1263396, Control_c, 0, 64, 67
1, 1263411, Control_c, 0, 64, 70
1, 1263423, Note_off_c, 0, 56, 51
1, 1263425, Control_c, 0, 64, 74
1, 1263440, Control_c, 0, 64, 79
1, 1263455, Control_c, 0, 64, 85
1, 1263470, Control_c, 0, 64, 89
1, 1263485, Control_c, 0, 64, 93
1, 1263499, Control_c, 0, 64, 98
1, 1263514, Control_c, 0, 64, 105
1, 1263529, Control_c, 0, 64, 112
1, 1263543, Note_on_c, 0, 51, 69
1, 1263543, Note_on_c, 0, 61, 71
1, 1263544, Control_c, 0, 64, 109
1, 1263553, Note_on_c, 0, 58, 69
1, 1263559, Note_off_c, 0, 63, 55
1, 1263559, Control_c, 0, 64, 79
1, 1263569, Note_off_c, 0, 51, 64
1, 1263574, Control_c, 0, 64, 52
1, 1263574, Note_off_c, 0, 61, 64
1, 1263578, Note_off_c, 0, 58, 66
1, 1263589, Control_c, 0, 64, 0
1, 1263590, Note_off_c, 0, 60, 33
1, 1263764, Note_on_c, 0, 63, 62
1, 1263772, Note_on_c, 0, 55, 58
1, 1263778, Note_on_c, 0, 58, 51
1, 1263795, Note_off_c, 0, 55, 59
1, 1263797, Note_off_c, 0, 63, 65
1, 1263802, Note_off_c, 0, 58, 57
1, 1263978, Note_on_c, 0, 63, 74
1, 1263979, Note_on_c, 0, 58, 70
1, 1263983, Note_on_c, 0, 55, 71
1, 1264006, Note_off_c, 0, 58, 66
1, 1264012, Note_off_c, 0, 55, 66
1, 1264013, Note_off_c, 0, 63, 64
1, 1264203, Note_on_c, 0, 68, 77
1, 1264217, Note_on_c, 0, 63, 63
1, 1264222, Note_on_c, 0, 60, 56
1, 1264248, Control_c, 0, 67, 98
1, 1264263, Control_c, 0, 67, 60
1, 1264278, Control_c, 0, 67, 33
1, 1264293, Control_c, 0, 67, 0
1, 1264405, Note_on_c, 0, 44, 77
1, 1264436, Note_off_c, 0, 44, 64
1, 1264463, Note_off_c, 0, 63, 61
1, 1264465, Note_off_c, 0, 60, 57
1, 1264501, Note_off_c, 0, 68, 44
1, 1264614, Note_on_c, 0, 68, 78
1, 1264626, Note_on_c, 0, 63, 70
1, 1264628, Note_on_c, 0, 42, 64
1, 1264637, Note_on_c, 0, 60, 60
1, 1264650, Control_c, 0, 64, 38
1, 1264665, Control_c, 0, 64, 42
1, 1264671, Note_off_c, 0, 42, 63
1, 1264694, Control_c, 0, 64, 43
1, 1264709, Control_c, 0, 64, 46
1, 1264724, Control_c, 0, 64, 53
1, 1264739, Control_c, 0, 64, 59
1, 1264753, Control_c, 0, 64, 63
1, 1264768, Control_c, 0, 64, 65
1, 1264783, Control_c, 0, 64, 68
1, 1264801, Note_off_c, 0, 60, 57
1, 1264820, Control_c, 0, 64, 62
1, 1264835, Control_c, 0, 64, 0
1, 1264838, Note_on_c, 0, 41, 82
1, 1264839, Note_off_c, 0, 63, 59
1, 1264840, Note_on_c, 0, 69, 82
1, 1264850, Note_off_c, 0, 68, 62
1, 1264861, Note_off_c, 0, 41, 68
1, 1264887, Note_off_c, 0, 69, 61
1, 1265062, Note_on_c, 0, 65, 74
1, 1265067, Note_on_c, 0, 63, 67
1, 1265075, Note_on_c, 0, 60, 59
1, 1265097, Note_off_c, 0, 60, 64
1, 1265097, Note_off_c, 0, 63, 65
1, 1265109, Note_off_c, 0, 65, 61
1, 1265273, Note_on_c, 0, 65, 77
1, 1265278, Note_on_c, 0, 60, 72
1, 1265279, Note_on_c, 0, 63, 70
1, 1265303, Note_off_c, 0, 65, 62
1, 1265304, Note_off_c, 0, 60, 66
1, 1265305, Note_off_c, 0, 63, 68
1, 1265529, Note_on_c, 0, 72, 73
1, 1265531, Note_on_c, 0, 65, 64
1, 1265535, Note_on_c, 0, 73, 45
1, 1265632, Note_off_c, 0, 72, 59
1, 1265636, Note_off_c, 0, 73, 57
1, 1265740, Note_on_c, 0, 58, 84
1, 1265794, Note_off_c, 0, 58, 64
1, 1265853, Note_off_c, 0, 65, 57
1, 1265970, Note_on_c, 0, 73, 82
1, 1265988, Note_on_c, 0, 65, 56
1, 1266072, Control_c, 0, 64, 46
1, 1266087, Control_c, 0, 64, 63
1, 1266102, Control_c, 0, 64, 76
1, 1266116, Control_c, 0, 64, 104
1, 1266131, Control_c, 0, 64, 127
1, 1266163, Note_off_c, 0, 73, 65
1, 1266170, Note_off_c, 0, 65, 62
1, 1266191, Note_on_c, 0, 61, 85
1, 1266214, Note_off_c, 0, 61, 71
1, 1266420, Note_on_c, 0, 72, 75
1, 1266426, Note_on_c, 0, 65, 61
1, 1266428, Note_on_c, 0, 63, 69
1, 1266448, Note_off_c, 0, 65, 60
1, 1266450, Control_c, 0, 64, 73
1, 1266452, Note_off_c, 0, 63, 65
1, 1266465, Control_c, 0, 64, 41
1, 1266465, Note_off_c, 0, 72, 61
1, 1266480, Control_c, 0, 64, 0
1, 1266633, Note_on_c, 0, 70, 71
1, 1266643, Note_on_c, 0, 61, 58
1, 1266647, Note_on_c, 0, 65, 62
1, 1266665, Note_off_c, 0, 61, 61
1, 1266668, Note_off_c, 0, 65, 65
1, 1266680, Note_off_c, 0, 70, 61
1, 1266850, Note_on_c, 0, 69, 69
1, 1266874, Note_on_c, 0, 65, 20
1, 1266900, Note_on_c, 0, 60, 37
1, 1266926, Control_c, 0, 67, 46
1, 1266940, Control_c, 0, 67, 68
1, 1266955, Control_c, 0, 67, 78
1, 1266970, Control_c, 0, 67, 80
1, 1266985, Control_c, 0, 67, 86
1, 1267000, Control_c, 0, 67, 99
1, 1267014, Control_c, 0, 67, 120
1, 1267029, Control_c, 0, 67, 127
1, 1267034, Note_off_c, 0, 60, 62
1, 1267064, Note_on_c, 0, 54, 56
1, 1267072, Note_off_c, 0, 65, 56
1, 1267096, Note_off_c, 0, 54, 63
1, 1267139, Note_off_c, 0, 69, 34
1, 1267288, Control_c, 0, 64, 44
1, 1267291, Note_on_c, 0, 69, 86
1, 1267300, Note_on_c, 0, 65, 63
1, 1267303, Control_c, 0, 64, 60
1, 1267310, Note_on_c, 0, 60, 59
1, 1267318, Control_c, 0, 64, 70
1, 1267333, Control_c, 0, 64, 87
1, 1267347, Control_c, 0, 64, 127
1, 1267377, Control_c, 0, 67, 119
1, 1267392, Control_c, 0, 67, 101
1, 1267407, Control_c, 0, 67, 79
1, 1267422, Control_c, 0, 67, 57
1, 1267437, Control_c, 0, 67, 36
1, 1267452, Control_c, 0, 67, 0
1, 1267466, Note_off_c, 0, 60, 64
1, 1267481, Note_off_c, 0, 69, 60
1, 1267508, Note_off_c, 0, 65, 60
1, 1267509, Note_on_c, 0, 53, 62
1, 1267538, Note_off_c, 0, 53, 64
1, 1267734, Note_on_c, 0, 70, 72
1, 1267734, Control_c, 0, 64, 116
1, 1267744, Note_on_c, 0, 65, 61
1, 1267749, Control_c, 0, 64, 71
1, 1267750, Note_on_c, 0, 61, 56
1, 1267763, Control_c, 0, 64, 42
1, 1267768, Note_off_c, 0, 65, 61
1, 1267773, Note_off_c, 0, 61, 58
1, 1267778, Control_c, 0, 64, 0
1, 1267806, Note_off_c, 0, 70, 58
1, 1267919, Control_c, 0, 67, 60
1, 1267934, Control_c, 0, 67, 97
1, 1267949, Control_c, 0, 67, 127
1, 1267966, Note_on_c, 0, 72, 54
1, 1267976, Note_on_c, 0, 63, 61
1, 1267976, Note_on_c, 0, 65, 54
1, 1267992, Note_off_c, 0, 72, 64
1, 1267996, Note_off_c, 0, 63, 64
1, 1267999, Note_off_c, 0, 65, 58
1, 1268187, Note_on_c, 0, 65, 47
1, 1268210, Note_on_c, 0, 61, 43
1, 1268391, Note_off_c, 0, 61, 62
1, 1268401, Note_off_c, 0, 65, 62
1, 1268405, Note_on_c, 0, 46, 41
1, 1268438, Note_off_c, 0, 46, 48
1, 1268621, Note_on_c, 0, 65, 65
1, 1268630, Note_on_c, 0, 61, 55
1, 1268668, Control_c, 0, 64, 45
1, 1268683, Control_c, 0, 64, 60
1, 1268698, Control_c, 0, 64, 66
1, 1268713, Control_c, 0, 64, 71
1, 1268727, Control_c, 0, 64, 76
1, 1268742, Control_c, 0, 64, 82
1, 1268757, Control_c, 0, 64, 91
1, 1268772, Control_c, 0, 64, 108
1, 1268787, Control_c, 0, 64, 127
1, 1268849, Note_on_c, 0, 49, 73
1, 1268874, Note_off_c, 0, 49, 66
1, 1268883, Note_off_c, 0, 61, 57
1, 1268943, Note_off_c, 0, 65, 46
1, 1269066, Note_on_c, 0, 65, 56
1, 1269068, Note_on_c, 0, 60, 62
1, 1269073, Note_on_c, 0, 63, 52
1, 1269082, Control_c, 0, 64, 95
1, 1269097, Note_off_c, 0, 60, 66
1, 1269097, Control_c, 0, 64, 69
1, 1269100, Note_off_c, 0, 63, 62
1, 1269102, Note_off_c, 0, 65, 63
1, 1269112, Control_c, 0, 64, 49
1, 1269127, Control_c, 0, 64, 0
1, 1269303, Note_on_c, 0, 65, 37
1, 1269304, Note_on_c, 0, 61, 47
1, 1269308, Note_on_c, 0, 58, 49
1, 1269337, Note_off_c, 0, 61, 64
1, 1269339, Note_off_c, 0, 58, 60
1, 1269348, Note_off_c, 0, 65, 59
1, 1269547, Note_on_c, 0, 61, 40
1, 1269559, Note_on_c, 0, 56, 42
1, 1269560, Note_on_c, 0, 65, 48
1, 1269775, Note_on_c, 0, 41, 55
1, 1269777, Note_off_c, 0, 61, 60
1, 1269784, Note_off_c, 0, 56, 50
1, 1269806, Note_off_c, 0, 41, 60
1, 1269908, Note_off_c, 0, 65, 26
1, 1269995, Note_on_c, 0, 65, 38
1, 1270024, Note_on_c, 0, 61, 39
1, 1270024, Control_c, 0, 64, 36
1, 1270042, Note_on_c, 0, 56, 46
1, 1270047, Control_c, 0, 64, 48
1, 1270062, Control_c, 0, 64, 58
1, 1270077, Control_c, 0, 64, 63
1, 1270091, Control_c, 0, 64, 66
1, 1270103, Note_off_c, 0, 61, 59
1, 1270106, Control_c, 0, 64, 69
1, 1270121, Control_c, 0, 64, 71
1, 1270136, Control_c, 0, 64, 75
1, 1270138, Note_off_c, 0, 56, 60
1, 1270151, Control_c, 0, 64, 79
1, 1270165, Control_c, 0, 64, 83
1, 1270180, Control_c, 0, 64, 86
1, 1270195, Control_c, 0, 64, 89
1, 1270210, Control_c, 0, 64, 90
1, 1270224, Note_on_c, 0, 29, 58
1, 1270224, Control_c, 0, 64, 90
1, 1270239, Control_c, 0, 64, 91
1, 1270251, Note_off_c, 0, 65, 51
1, 1270258, Note_off_c, 0, 29, 56
1, 1270403, Control_c, 0, 64, 86
1, 1270417, Control_c, 0, 64, 71
1, 1270432, Control_c, 0, 64, 50
1, 1270440, Note_on_c, 0, 60, 56
1, 1270442, Note_on_c, 0, 63, 46
1, 1270447, Control_c, 0, 64, 0
1, 1270448, Note_on_c, 0, 54, 45
1, 1270451, Note_on_c, 0, 57, 35
1, 1270475, Note_off_c, 0, 63, 64
1, 1270477, Note_off_c, 0, 54, 55
1, 1270480, Note_off_c, 0, 60, 65
1, 1270483, Note_off_c, 0, 57, 47
1, 1270662, Note_on_c, 0, 63, 54
1, 1270665, Note_on_c, 0, 54, 56
1, 1270684, Note_on_c, 0, 57, 23
1, 1270689, Note_off_c, 0, 54, 61
1, 1270691, Note_on_c, 0, 60, 28
1, 1270704, Note_off_c, 0, 63, 62
1, 1270725, Note_off_c, 0, 57, 41
1, 1270728, Note_off_c, 0, 60, 43
1, 1270916, Note_on_c, 0, 61, 43
1, 1270925, Note_on_c, 0, 53, 36
1, 1270928, Note_on_c, 0, 58, 42
1, 1271112, Note_on_c, 0, 34, 57
1, 1271140, Note_off_c, 0, 58, 56
1, 1271142, Note_off_c, 0, 34, 60
1, 1271151, Note_off_c, 0, 61, 50
1, 1271164, Note_off_c, 0, 53, 44
1, 1271327, Note_on_c, 0, 61, 43
1, 1271332, Note_on_c, 0, 58, 42
1, 1271351, Note_on_c, 0, 53, 30
1, 1271554, Note_on_c, 0, 46, 56
1, 1271580, Note_off_c, 0, 46, 59
1, 1271774, Note_on_c, 0, 49, 55
1, 1271800, Note_off_c, 0, 53, 43
1, 1271802, Note_off_c, 0, 58, 62
1, 1271808, Note_off_c, 0, 49, 63
1, 1271830, Note_off_c, 0, 61, 64
1, 1271986, Note_on_c, 0, 48, 54
1, 1272014, Note_off_c, 0, 48, 56
1, 1272218, Note_on_c, 0, 66, 59
1, 1272234, Note_on_c, 0, 61, 36
1, 1272242, Note_on_c, 0, 58, 32
1, 1272429, Note_on_c, 0, 46, 58
1, 1272458, Note_off_c, 0, 46, 63
1, 1272469, Note_off_c, 0, 58, 52
1, 1272474, Note_off_c, 0, 61, 63
1, 1272481, Note_off_c, 0, 66, 64
1, 1272663, Control_c, 0, 67, 110
1, 1272669, Note_on_c, 0, 66, 67
1, 1272677, Control_c, 0, 67, 95
1, 1272680, Note_on_c, 0, 61, 42
1, 1272692, Control_c, 0, 67, 78
1, 1272707, Control_c, 0, 67, 58
1, 1272716, Note_on_c, 0, 58, 20
1, 1272722, Control_c, 0, 67, 0
1, 1272737, Control_c, 0, 64, 38
1, 1272752, Control_c, 0, 64, 49
1, 1272767, Control_c, 0, 64, 53
1, 1272782, Control_c, 0, 64, 56
1, 1272797, Control_c, 0, 64, 61
1, 1272811, Control_c, 0, 64, 67
1, 1272826, Control_c, 0, 64, 76
1, 1272841, Control_c, 0, 64, 95
1, 1272856, Control_c, 0, 64, 127
1, 1272877, Note_off_c, 0, 58, 41
1, 1272892, Note_off_c, 0, 61, 50
1, 1272909, Note_on_c, 0, 49, 70
1, 1272910, Note_off_c, 0, 66, 63
1, 1272936, Note_off_c, 0, 49, 65
1, 1273130, Note_on_c, 0, 68, 74
1, 1273139, Note_on_c, 0, 61, 60
1, 1273143, Note_on_c, 0, 58, 65
1, 1273144, Control_c, 0, 64, 73
1, 1273159, Control_c, 0, 64, 35
1, 1273162, Note_off_c, 0, 61, 62
1, 1273163, Note_off_c, 0, 58, 63
1, 1273174, Control_c, 0, 64, 0
1, 1273187, Note_off_c, 0, 68, 62
1, 1273341, Note_on_c, 0, 70, 74
1, 1273354, Note_on_c, 0, 58, 77
1, 1273375, Note_off_c, 0, 70, 58
1, 1273378, Note_off_c, 0, 58, 67
1, 1273568, Note_on_c, 0, 56, 59
1, 1273569, Note_on_c, 0, 65, 76
1, 1273575, Note_on_c, 0, 60, 59
1, 1273794, Note_on_c, 0, 48, 78
1, 1273817, Note_off_c, 0, 48, 66
1, 1273822, Note_off_c, 0, 56, 44
1, 1273825, Note_off_c, 0, 60, 62
1, 1273827, Note_off_c, 0, 65, 61
1, 1274015, Note_on_c, 0, 65, 84
1, 1274032, Note_on_c, 0, 60, 55
1, 1274033, Note_on_c, 0, 56, 55
1, 1274043, Control_c, 0, 64, 54
1, 1274057, Control_c, 0, 64, 78
1, 1274072, Control_c, 0, 64, 127
1, 1274175, Note_off_c, 0, 60, 56
1, 1274204, Note_off_c, 0, 56, 48
1, 1274242, Note_on_c, 0, 36, 90
1, 1274275, Note_off_c, 0, 65, 57
1, 1274287, Note_off_c, 0, 36, 65
1, 1274459, Note_on_c, 0, 64, 79
1, 1274460, Note_on_c, 0, 60, 72
1, 1274464, Note_on_c, 0, 55, 68
1, 1274492, Note_off_c, 0, 55, 64
1, 1274493, Note_off_c, 0, 60, 64
1, 1274502, Control_c, 0, 64, 73
1, 1274517, Control_c, 0, 64, 42
1, 1274520, Note_off_c, 0, 64, 59
1, 1274538, Control_c, 0, 64, 0
1, 1274709, Note_on_c, 0, 64, 77
1, 1274715, Note_on_c, 0, 55, 66
1, 1274727, Note_on_c, 0, 60, 56
1, 1274745, Note_off_c, 0, 55, 64
1, 1274749, Note_off_c, 0, 60, 60
1, 1274758, Note_off_c, 0, 64, 63
1, 1274994, Note_on_c, 0, 60, 35
1, 1274994, Note_on_c, 0, 63, 51
1, 1275015, Note_on_c, 0, 56, 39
1, 1275208, Note_on_c, 0, 48, 62
1, 1275214, Note_off_c, 0, 56, 58
1, 1275223, Note_off_c, 0, 63, 62
1, 1275224, Note_off_c, 0, 60, 59
1, 1275235, Note_off_c, 0, 48, 59
1, 1275420, Control_c, 0, 64, 37
1, 1275435, Control_c, 0, 64, 42
1, 1275449, Note_on_c, 0, 63, 48
1, 1275450, Control_c, 0, 64, 43
1, 1275458, Note_on_c, 0, 60, 41
1, 1275465, Control_c, 0, 64, 46
1, 1275479, Note_on_c, 0, 56, 26
1, 1275479, Control_c, 0, 64, 52
1, 1275494, Control_c, 0, 64, 60
1, 1275509, Control_c, 0, 64, 62
1, 1275569, Note_off_c, 0, 56, 35
1, 1275569, Control_c, 0, 67, 34
1, 1275584, Control_c, 0, 67, 37
1, 1275599, Control_c, 0, 64, 63
1, 1275599, Control_c, 0, 67, 34
1, 1275614, Control_c, 0, 67, 0
1, 1275628, Control_c, 0, 64, 63
1, 1275643, Control_c, 0, 64, 64
1, 1275658, Control_c, 0, 64, 63
1, 1275658, Control_c, 0, 67, 34
1, 1275673, Control_c, 0, 64, 55
1, 1275673, Control_c, 0, 67, 0
1, 1275677, Note_on_c, 0, 51, 60
1, 1275677, Note_on_c, 0, 61, 67
1, 1275687, Note_off_c, 0, 60, 48
1, 1275688, Note_on_c, 0, 58, 65
1, 1275688, Control_c, 0, 64, 0
1, 1275692, Note_off_c, 0, 63, 61
1, 1275701, Note_off_c, 0, 51, 61
1, 1275708, Note_off_c, 0, 61, 65
1, 1275715, Note_off_c, 0, 58, 65
1, 1275894, Note_on_c, 0, 63, 64
1, 1275907, Note_on_c, 0, 58, 60
1, 1275908, Note_on_c, 0, 55, 55
1, 1275927, Note_off_c, 0, 63, 64
1, 1275934, Note_off_c, 0, 55, 57
1, 1275935, Note_off_c, 0, 58, 64
1, 1276114, Note_on_c, 0, 63, 68
1, 1276118, Note_on_c, 0, 58, 66
1, 1276123, Note_on_c, 0, 55, 61
1, 1276145, Note_off_c, 0, 55, 61
1, 1276146, Note_off_c, 0, 58, 66
1, 1276150, Note_off_c, 0, 63, 65
1, 1276326, Note_on_c, 0, 68, 74
1, 1276334, Note_on_c, 0, 63, 68
1, 1276342, Note_on_c, 0, 60, 59
1, 1276541, Note_on_c, 0, 44, 73
1, 1276570, Note_off_c, 0, 44, 63
1, 1276616, Note_off_c, 0, 63, 55
1, 1276640, Note_off_c, 0, 60, 59
1, 1276642, Note_off_c, 0, 68, 58
1, 1276747, Note_on_c, 0, 68, 78
1, 1276757, Note_on_c, 0, 63, 64
1, 1276762, Note_on_c, 0, 42, 65
1, 1276770, Note_on_c, 0, 60, 60
1, 1276785, Control_c, 0, 64, 32
1, 1276800, Control_c, 0, 64, 55
1, 1276815, Control_c, 0, 64, 68
1, 1276830, Control_c, 0, 64, 75
1, 1276845, Control_c, 0, 64, 84
1, 1276848, Note_off_c, 0, 42, 55
1, 1276859, Control_c, 0, 64, 97
1, 1276874, Control_c, 0, 64, 127
1, 1276961, Note_on_c, 0, 41, 86
1, 1276971, Note_on_c, 0, 69, 87
1, 1276982, Note_off_c, 0, 41, 68
1, 1276985, Note_off_c, 0, 63, 64
1, 1276987, Note_off_c, 0, 68, 62
1, 1276994, Note_off_c, 0, 60, 62
1, 1277007, Control_c, 0, 64, 83
1, 1277022, Note_off_c, 0, 69, 64
1, 1277022, Control_c, 0, 64, 45
1, 1277037, Control_c, 0, 64, 0
1, 1277193, Note_on_c, 0, 65, 76
1, 1277199, Note_on_c, 0, 63, 68
1, 1277200, Note_on_c, 0, 60, 70
1, 1277229, Note_off_c, 0, 63, 63
1, 1277233, Note_off_c, 0, 60, 57
1, 1277259, Note_off_c, 0, 65, 53
1, 1277397, Note_on_c, 0, 65, 75
1, 1277401, Note_on_c, 0, 63, 74
1, 1277410, Note_on_c, 0, 60, 60
1, 1277426, Note_off_c, 0, 63, 67
1, 1277431, Note_off_c, 0, 60, 63
1, 1277433, Note_off_c, 0, 65, 66
1, 1277641, Note_on_c, 0, 73, 81
1, 1277657, Note_on_c, 0, 65, 66
1, 1277853, Note_on_c, 0, 58, 76
1, 1277868, Note_off_c, 0, 65, 63
1, 1277879, Note_off_c, 0, 73, 65
1, 1277882, Note_off_c, 0, 58, 66
1, 1278079, Note_on_c, 0, 73, 85
1, 1278097, Control_c, 0, 64, 44
1, 1278102, Note_on_c, 0, 65, 66
1, 1278112, Control_c, 0, 64, 65
1, 1278127, Control_c, 0, 64, 84
1, 1278142, Control_c, 0, 64, 127
1, 1278210, Note_off_c, 0, 65, 60
1, 1278213, Note_off_c, 0, 73, 63
1, 1278310, Note_on_c, 0, 61, 77
1, 1278335, Note_off_c, 0, 61, 68
1, 1278526, Note_on_c, 0, 72, 75
1, 1278535, Control_c, 0, 64, 102
1, 1278536, Note_on_c, 0, 63, 67
1, 1278543, Note_on_c, 0, 65, 56
1, 1278549, Control_c, 0, 64, 62
1, 1278556, Note_off_c, 0, 63, 65
1, 1278564, Control_c, 0, 64, 0
1, 1278568, Note_off_c, 0, 65, 55
1, 1278584, Note_off_c, 0, 72, 62
1, 1278743, Note_on_c, 0, 70, 71
1, 1278747, Note_on_c, 0, 61, 63
1, 1278760, Note_on_c, 0, 65, 50
1, 1278776, Note_off_c, 0, 61, 65
1, 1278785, Note_off_c, 0, 65, 58
1, 1278801, Note_off_c, 0, 70, 63
1, 1278802, Control_c, 0, 67, 36
1, 1278817, Control_c, 0, 67, 42
1, 1278832, Control_c, 0, 67, 45
1, 1278846, Control_c, 0, 67, 48
1, 1278861, Control_c, 0, 67, 60
1, 1278876, Control_c, 0, 67, 79
1, 1278891, Control_c, 0, 67, 96
1, 1278906, Control_c, 0, 67, 110
1, 1278920, Control_c, 0, 67, 120
1, 1278935, Control_c, 0, 67, 127
1, 1278972, Note_on_c, 0, 69, 65
1, 1278980, Note_on_c, 0, 65, 34
1, 1278998, Note_on_c, 0, 60, 39
1, 1279176, Note_off_c, 0, 60, 64
1, 1279188, Note_off_c, 0, 69, 57
1, 1279191, Note_on_c, 0, 54, 50
1, 1279199, Note_off_c, 0, 65, 60
1, 1279220, Note_off_c, 0, 54, 65
1, 1279417, Note_on_c, 0, 69, 62
1, 1279432, Note_on_c, 0, 65, 46
1, 1279441, Note_on_c, 0, 60, 42
1, 1279447, Control_c, 0, 64, 30
1, 1279462, Control_c, 0, 64, 45
1, 1279477, Control_c, 0, 64, 60
1, 1279492, Control_c, 0, 64, 65
1, 1279506, Control_c, 0, 64, 68
1, 1279521, Control_c, 0, 64, 71
1, 1279536, Control_c, 0, 64, 77
1, 1279551, Control_c, 0, 64, 84
1, 1279566, Control_c, 0, 64, 92
1, 1279579, Note_off_c, 0, 69, 62
1, 1279580, Control_c, 0, 64, 101
1, 1279581, Note_off_c, 0, 60, 62
1, 1279596, Control_c, 0, 64, 106
1, 1279604, Note_off_c, 0, 65, 57
1, 1279611, Control_c, 0, 64, 112
1, 1279626, Control_c, 0, 64, 118
1, 1279641, Control_c, 0, 64, 127
1, 1279648, Note_on_c, 0, 53, 56
1, 1279676, Note_off_c, 0, 53, 64
1, 1279865, Note_on_c, 0, 70, 67
1, 1279870, Control_c, 0, 64, 88
1, 1279874, Note_on_c, 0, 65, 55
1, 1279882, Note_on_c, 0, 61, 51
1, 1279885, Control_c, 0, 64, 58
1, 1279899, Note_off_c, 0, 65, 57
1, 1279900, Control_c, 0, 64, 0
1, 1279907, Note_off_c, 0, 61, 60
1, 1279918, Note_off_c, 0, 70, 56
1, 1280094, Note_on_c, 0, 72, 58
1, 1280097, Note_on_c, 0, 63, 59
1, 1280113, Note_on_c, 0, 65, 31
1, 1280118, Note_off_c, 0, 63, 64
1, 1280124, Note_off_c, 0, 72, 64
1, 1280146, Note_off_c, 0, 65, 52
1, 1280327, Note_on_c, 0, 65, 55
1, 1280345, Note_on_c, 0, 61, 34
1, 1280399, Note_off_c, 0, 61, 0
1, 1280399, Note_on_c, 0, 61, 8
1, 1280555, Note_on_c, 0, 46, 46
1, 1280568, Note_off_c, 0, 65, 58
1, 1280572, Note_off_c, 0, 61, 57
1, 1280586, Note_off_c, 0, 46, 50
1, 1280792, Note_on_c, 0, 65, 46
1, 1280794, Note_on_c, 0, 61, 40
1, 1280870, Control_c, 0, 64, 30
1, 1280885, Control_c, 0, 64, 44
1, 1280899, Control_c, 0, 64, 57
1, 1280914, Control_c, 0, 64, 61
1, 1280929, Control_c, 0, 64, 63
1, 1280943, Control_c, 0, 64, 65
1, 1280958, Control_c, 0, 64, 67
1, 1280973, Control_c, 0, 64, 70
1, 1280988, Control_c, 0, 64, 74
1, 1281003, Control_c, 0, 64, 80
1, 1281018, Control_c, 0, 64, 86
1, 1281020, Note_on_c, 0, 49, 55
1, 1281022, Note_off_c, 0, 61, 50
1, 1281033, Control_c, 0, 64, 90
1, 1281039, Note_off_c, 0, 65, 52
1, 1281048, Control_c, 0, 64, 94
1, 1281054, Note_off_c, 0, 49, 64
1, 1281062, Control_c, 0, 64, 96
1, 1281107, Control_c, 0, 64, 98
1, 1281227, Control_c, 0, 64, 82
1, 1281235, Note_on_c, 0, 60, 56
1, 1281241, Control_c, 0, 64, 62
1, 1281245, Note_on_c, 0, 65, 37
1, 1281250, Note_on_c, 0, 63, 31
1, 1281256, Control_c, 0, 64, 0
1, 1281274, Note_off_c, 0, 60, 65
1, 1281281, Note_off_c, 0, 65, 54
1, 1281291, Note_off_c, 0, 63, 42
1, 1281460, Note_on_c, 0, 61, 39
1, 1281465, Note_on_c, 0, 65, 12
1, 1281468, Note_on_c, 0, 58, 44
1, 1281495, Note_off_c, 0, 61, 57
1, 1281500, Note_off_c, 0, 58, 61
1, 1281521, Note_off_c, 0, 65, 44
1, 1281709, Note_on_c, 0, 61, 38
1, 1281721, Note_on_c, 0, 65, 38
1, 1281726, Note_on_c, 0, 56, 29
1, 1281906, Note_off_c, 0, 56, 57
1, 1281917, Note_off_c, 0, 65, 55
1, 1281931, Note_off_c, 0, 61, 64
1, 1281943, Note_on_c, 0, 41, 34
1, 1281981, Note_off_c, 0, 41, 43
1, 1282175, Control_c, 0, 64, 38
1, 1282186, Note_on_c, 0, 65, 47
1, 1282190, Note_on_c, 0, 61, 42
1, 1282190, Control_c, 0, 64, 51
1, 1282198, Note_on_c, 0, 56, 30
1, 1282204, Control_c, 0, 64, 59
1, 1282219, Control_c, 0, 64, 63
1, 1282234, Control_c, 0, 64, 65
1, 1282249, Control_c, 0, 64, 68
1, 1282264, Note_off_c, 0, 61, 50
1, 1282264, Control_c, 0, 64, 73
1, 1282279, Control_c, 0, 64, 78
1, 1282294, Control_c, 0, 64, 83
1, 1282309, Control_c, 0, 64, 87
1, 1282323, Control_c, 0, 64, 89
1, 1282338, Control_c, 0, 64, 90
1, 1282347, Note_off_c, 0, 56, 38
1, 1282353, Control_c, 0, 64, 91
1, 1282362, Note_off_c, 0, 65, 34
1, 1282368, Control_c, 0, 64, 92
1, 1282398, Control_c, 0, 64, 92
1, 1282426, Note_on_c, 0, 29, 48
1, 1282443, Control_c, 0, 64, 93
1, 1282466, Note_off_c, 0, 29, 48
1, 1282561, Control_c, 0, 64, 92
1, 1282576, Control_c, 0, 64, 85
1, 1282590, Control_c, 0, 64, 69
1, 1282605, Control_c, 0, 64, 48
1, 1282620, Control_c, 0, 64, 0
1, 1282651, Note_on_c, 0, 57, 26
1, 1282654, Note_on_c, 0, 63, 25
1, 1282654, Note_on_c, 0, 54, 31
1, 1282691, Note_off_c, 0, 63, 51
1, 1282697, Note_off_c, 0, 54, 47
1, 1282698, Note_off_c, 0, 57, 46
1, 1282732, Poly_aftertouch_c, 0, 60, 0
1, 1282896, Note_on_c, 0, 63, 39
1, 1282902, Note_on_c, 0, 54, 30
1, 1282902, Note_on_c, 0, 60, 31
1, 1282932, Note_off_c, 0, 63, 52
1, 1282935, Note_off_c, 0, 60, 57
1, 1282936, Note_off_c, 0, 54, 47
1, 1282965, Poly_aftertouch_c, 0, 57, 0
1, 1283166, Note_on_c, 0, 58, 34
1, 1283166, Note_on_c, 0, 61, 40
1, 1283187, Note_on_c, 0, 53, 7
1, 1283403, Note_off_c, 0, 53, 44
1, 1283409, Note_off_c, 0, 61, 62
1, 1283411, Note_off_c, 0, 58, 57
1, 1283416, Note_on_c, 0, 34, 28
1, 1283461, Note_off_c, 0, 34, 40
1, 1283692, Note_on_c, 0, 58, 29
1, 1283693, Note_on_c, 0, 61, 32
1, 1283717, Note_on_c, 0, 53, 24
1, 1284017, Note_off_c, 0, 53, 54
1, 1284041, Note_off_c, 0, 61, 57
1, 1284055, Note_off_c, 0, 58, 41
1, 1284055, Note_on_c, 0, 46, 16
1, 1284175, Control_c, 0, 64, 30
1, 1284190, Control_c, 0, 64, 34
1, 1284205, Control_c, 0, 64, 39
1, 1284220, Control_c, 0, 64, 45
1, 1284234, Control_c, 0, 64, 54
1, 1284249, Control_c, 0, 64, 60
1, 1284272, Control_c, 0, 64, 64
1, 1284287, Control_c, 0, 64, 66
1, 1284301, Control_c, 0, 64, 67
1, 1284316, Control_c, 0, 64, 69
1, 1284331, Control_c, 0, 64, 70
1, 1284346, Control_c, 0, 64, 71
1, 1284348, Note_off_c, 0, 46, 41
1, 1284361, Control_c, 0, 64, 72
1, 1284375, Control_c, 0, 64, 73
1, 1284451, Control_c, 0, 67, 122
1, 1284465, Control_c, 0, 67, 102
1, 1284480, Control_c, 0, 67, 87
1, 1284495, Control_c, 0, 67, 73
1, 1284510, Control_c, 0, 67, 51
1, 1284524, Control_c, 0, 67, 0
1, 1284554, Control_c, 0, 64, 72
1, 1284598, Control_c, 0, 64, 72
1, 1284613, Control_c, 0, 64, 71
1, 1284628, Control_c, 0, 64, 71
1, 1284643, Control_c, 0, 64, 70
1, 1284672, Control_c, 0, 64, 70
1, 1284687, Control_c, 0, 64, 69
1, 1284702, Control_c, 0, 64, 67
1, 1284717, Control_c, 0, 64, 66
1, 1284732, Control_c, 0, 64, 65
1, 1284747, Control_c, 0, 64, 65
1, 1284762, Control_c, 0, 64, 64
1, 1284777, Control_c, 0, 64, 63
1, 1284791, Control_c, 0, 64, 63
1, 1284806, Control_c, 0, 67, 43
1, 1284821, Control_c, 0, 67, 53
1, 1284836, Control_c, 0, 64, 62
1, 1284836, Control_c, 0, 67, 57
1, 1284851, Control_c, 0, 67, 60
1, 1284865, Control_c, 0, 64, 62
1, 1284865, Control_c, 0, 67, 71
1, 1284880, Control_c, 0, 67, 87
1, 1284895, Control_c, 0, 67, 104
1, 1284909, Control_c, 0, 67, 116
1, 1284924, Control_c, 0, 67, 123
1, 1284939, Control_c, 0, 67, 127
1, 1284969, Control_c, 0, 64, 62
1, 1285051, Control_c, 0, 64, 63
1, 1285065, Control_c, 0, 64, 63
1, 1285080, Control_c, 0, 64, 64
1, 1285095, Control_c, 0, 64, 65
1, 1285259, Control_c, 0, 64, 65
1, 1285274, Control_c, 0, 64, 66
1, 1285288, Control_c, 0, 64, 68
1, 1285303, Control_c, 0, 64, 70
1, 1285318, Control_c, 0, 64, 73
1, 1285333, Control_c, 0, 64, 75
1, 1285339, Note_on_c, 0, 82, 51
1, 1285345, Note_on_c, 0, 62, 42
1, 1285346, Note_on_c, 0, 58, 41
1, 1285347, Control_c, 0, 64, 77
1, 1285362, Control_c, 0, 64, 79
1, 1285377, Control_c, 0, 64, 81
1, 1285392, Control_c, 0, 64, 82
1, 1285397, Note_off_c, 0, 58, 44
1, 1285407, Control_c, 0, 64, 82
1, 1285421, Control_c, 0, 64, 83
1, 1285430, Note_off_c, 0, 62, 38
1, 1285436, Control_c, 0, 64, 83
1, 1285451, Control_c, 0, 64, 84
1, 1285454, Note_on_c, 0, 65, 34
1, 1285490, Note_off_c, 0, 65, 50
1, 1285513, Note_off_c, 0, 82, 50
1, 1285526, Note_on_c, 0, 81, 44
1, 1285538, Note_on_c, 0, 62, 48
1, 1285546, Note_on_c, 0, 58, 21
1, 1285582, Note_off_c, 0, 62, 50
1, 1285588, Note_off_c, 0, 58, 54
1, 1285600, Note_on_c, 0, 65, 46
1, 1285649, Note_off_c, 0, 81, 49
1, 1285656, Note_off_c, 0, 65, 48
1, 1285679, Note_on_c, 0, 82, 52
1, 1285680, Note_on_c, 0, 62, 61
1, 1285682, Note_on_c, 0, 58, 54
1, 1285712, Note_off_c, 0, 58, 57
1, 1285730, Note_off_c, 0, 62, 55
1, 1285771, Note_on_c, 0, 65, 60
1, 1285805, Note_off_c, 0, 65, 62
1, 1285814, Control_c, 0, 64, 80
1, 1285820, Note_off_c, 0, 82, 51
1, 1285829, Control_c, 0, 64, 70
1, 1285844, Control_c, 0, 64, 56
1, 1285849, Note_on_c, 0, 58, 57
1, 1285852, Note_on_c, 0, 63, 63
1, 1285857, Note_on_c, 0, 79, 50
1, 1285859, Control_c, 0, 64, 0
1, 1285877, Note_off_c, 0, 58, 64
1, 1285883, Note_off_c, 0, 63, 62
1, 1285946, Note_on_c, 0, 67, 51
1, 1285980, Note_off_c, 0, 79, 48
1, 1285996, Note_off_c, 0, 67, 58
1, 1286005, Note_on_c, 0, 81, 44
1, 1286014, Note_on_c, 0, 58, 53
1, 1286018, Note_on_c, 0, 63, 49
1, 1286043, Note_off_c, 0, 58, 63
1, 1286052, Note_off_c, 0, 63, 64
1, 1286062, Note_off_c, 0, 81, 55
1, 1286096, Note_on_c, 0, 82, 61
1, 1286101, Note_on_c, 0, 67, 63
1, 1286136, Note_off_c, 0, 67, 61
1, 1286159, Note_on_c, 0, 63, 64
1, 1286160, Note_off_c, 0, 82, 62
1, 1286181, Note_on_c, 0, 58, 55
1, 1286187, Note_on_c, 0, 84, 54
1, 1286208, Note_off_c, 0, 63, 59
1, 1286215, Note_off_c, 0, 58, 63
1, 1286245, Note_on_c, 0, 67, 57
1, 1286255, Note_on_c, 0, 86, 60
1, 1286260, Note_off_c, 0, 84, 55
1, 1286280, Note_off_c, 0, 67, 61
1, 1286327, Note_on_c, 0, 58, 67
1, 1286331, Note_off_c, 0, 86, 60
1, 1286332, Note_on_c, 0, 62, 64
1, 1286349, Note_on_c, 0, 82, 62
1, 1286349, Control_c, 0, 64, 34
1, 1286363, Control_c, 0, 64, 35
1, 1286366, Note_off_c, 0, 58, 60
1, 1286368, Note_off_c, 0, 62, 61
1, 1286378, Control_c, 0, 64, 35
1, 1286393, Control_c, 0, 64, 34
1, 1286424, Note_on_c, 0, 65, 61
1, 1286452, Control_c, 0, 64, 33
1, 1286461, Note_off_c, 0, 65, 58
1, 1286467, Control_c, 0, 64, 32
1, 1286482, Control_c, 0, 64, 32
1, 1286489, Note_off_c, 0, 82, 60
1, 1286514, Note_on_c, 0, 62, 61
1, 1286514, Note_on_c, 0, 84, 66
1, 1286519, Control_c, 0, 64, 32
1, 1286524, Note_on_c, 0, 58, 48
1, 1286552, Note_off_c, 0, 58, 36
1, 1286555, Note_off_c, 0, 62, 58
1, 1286578, Note_on_c, 0, 65, 63
1, 1286593, Control_c, 0, 64, 33
1, 1286602, Note_on_c, 0, 82, 67
1, 1286631, Note_off_c, 0, 84, 44
1, 1286642, Note_off_c, 0, 65, 54
1, 1286661, Note_on_c, 0, 58, 58
1, 1286667, Note_on_c, 0, 62, 62
1, 1286667, Control_c, 0, 64, 33
1, 1286675, Note_on_c, 0, 81, 66
1, 1286680, Note_off_c, 0, 82, 54
1, 1286682, Control_c, 0, 64, 34
1, 1286696, Control_c, 0, 64, 35
1, 1286703, Note_off_c, 0, 58, 61
1, 1286720, Note_off_c, 0, 81, 59
1, 1286726, Control_c, 0, 64, 34
1, 1286735, Note_off_c, 0, 62, 56
1, 1286741, Control_c, 0, 64, 0
1, 1286753, Note_on_c, 0, 79, 64
1, 1286763, Note_on_c, 0, 65, 62
1, 1286800, Note_off_c, 0, 79, 63
1, 1286806, Note_off_c, 0, 65, 60
1, 1286843, Note_on_c, 0, 77, 52
1, 1286844, Note_on_c, 0, 57, 70
1, 1286856, Note_on_c, 0, 63, 55
1, 1286863, Note_off_c, 0, 77, 61
1, 1286873, Note_off_c, 0, 57, 66
1, 1286884, Note_off_c, 0, 63, 56
1, 1286924, Note_on_c, 0, 65, 59
1, 1286974, Note_off_c, 0, 65, 54
1, 1286996, Note_on_c, 0, 57, 56
1, 1287010, Note_on_c, 0, 63, 51
1, 1287024, Note_on_c, 0, 77, 51
1, 1287037, Note_off_c, 0, 57, 59
1, 1287049, Note_off_c, 0, 77, 58
1, 1287052, Note_off_c, 0, 63, 50
1, 1287096, Note_on_c, 0, 65, 48
1, 1287123, Note_off_c, 0, 65, 58
1, 1287170, Note_on_c, 0, 57, 61
1, 1287171, Note_on_c, 0, 63, 58
1, 1287171, Note_on_c, 0, 77, 60
1, 1287191, Note_off_c, 0, 57, 62
1, 1287198, Note_off_c, 0, 77, 66
1, 1287232, Note_off_c, 0, 63, 61
1, 1287269, Note_on_c, 0, 65, 39
1, 1287312, Note_off_c, 0, 65, 49
1, 1287337, Note_on_c, 0, 57, 52
1, 1287341, Control_c, 0, 64, 49
1, 1287352, Note_on_c, 0, 78, 58
1, 1287356, Control_c, 0, 64, 57
1, 1287358, Note_on_c, 0, 63, 48
1, 1287361, Note_off_c, 0, 57, 58
1, 1287371, Control_c, 0, 64, 59
1, 1287415, Control_c, 0, 64, 59
1, 1287429, Note_off_c, 0, 63, 59
1, 1287430, Control_c, 0, 64, 58
1, 1287445, Control_c, 0, 64, 55
1, 1287460, Control_c, 0, 64, 50
1, 1287460, Note_on_c, 0, 66, 64
1, 1287475, Control_c, 0, 64, 36
1, 1287484, Note_off_c, 0, 78, 56
1, 1287489, Control_c, 0, 64, 0
1, 1287496, Note_off_c, 0, 66, 61
1, 1287502, Note_on_c, 0, 90, 75
1, 1287525, Note_off_c, 0, 90, 67
1, 1287526, Note_on_c, 0, 57, 59
1, 1287532, Note_on_c, 0, 63, 65
1, 1287548, Note_off_c, 0, 57, 62
1, 1287587, Note_off_c, 0, 63, 55
1, 1287678, Note_on_c, 0, 57, 54
1, 1287681, Note_on_c, 0, 90, 67
1, 1287689, Note_on_c, 0, 63, 70
1, 1287702, Note_off_c, 0, 57, 61
1, 1287708, Note_off_c, 0, 90, 68
1, 1287710, Poly_aftertouch_c, 0, 66, 0
1, 1287727, Note_off_c, 0, 63, 65
1, 1287752, Note_on_c, 0, 66, 65
1, 1287784, Note_off_c, 0, 66, 67
1, 1287835, Note_on_c, 0, 63, 73
1, 1287841, Note_on_c, 0, 58, 64
1, 1287850, Note_on_c, 0, 91, 81
1, 1287861, Control_c, 0, 64, 37
1, 1287876, Note_off_c, 0, 58, 63
1, 1287876, Control_c, 0, 64, 49
1, 1287890, Control_c, 0, 64, 49
1, 1287892, Note_off_c, 0, 63, 60
1, 1287905, Control_c, 0, 64, 47
1, 1287919, Note_on_c, 0, 67, 73
1, 1287920, Control_c, 0, 64, 46
1, 1287963, Note_off_c, 0, 67, 59
1, 1287964, Control_c, 0, 64, 44
1, 1287979, Note_off_c, 0, 91, 58
1, 1287979, Control_c, 0, 64, 41
1, 1288019, Note_on_c, 0, 63, 69
1, 1288020, Note_on_c, 0, 58, 71
1, 1288033, Note_on_c, 0, 79, 64
1, 1288046, Control_c, 0, 64, 40
1, 1288049, Note_off_c, 0, 63, 65
1, 1288050, Note_off_c, 0, 58, 64
1, 1288060, Control_c, 0, 64, 38
1, 1288062, Note_off_c, 0, 79, 63
1, 1288075, Control_c, 0, 64, 35
1, 1288098, Note_on_c, 0, 67, 66
1, 1288105, Control_c, 0, 64, 36
1, 1288149, Control_c, 0, 64, 36
1, 1288168, Note_off_c, 0, 67, 57
1, 1288171, Note_on_c, 0, 58, 60
1, 1288175, Note_on_c, 0, 63, 71
1, 1288179, Control_c, 0, 64, 36
1, 1288182, Note_on_c, 0, 79, 64
1, 1288194, Control_c, 0, 64, 37
1, 1288208, Note_off_c, 0, 79, 67
1, 1288226, Note_off_c, 0, 58, 61
1, 1288232, Note_off_c, 0, 63, 61
1, 1288253, Control_c, 0, 64, 36
1, 1288258, Note_on_c, 0, 67, 72
1, 1288267, Control_c, 0, 64, 31
1, 1288282, Control_c, 0, 64, 0
1, 1288287, Note_off_c, 0, 67, 64
1, 1288327, Note_on_c, 0, 63, 87
1, 1288332, Note_on_c, 0, 81, 77
1, 1288336, Note_on_c, 0, 60, 71
1, 1288354, Note_off_c, 0, 81, 70
1, 1288363, Note_off_c, 0, 60, 67
1, 1288383, Note_off_c, 0, 63, 59
1, 1288420, Note_on_c, 0, 65, 73
1, 1288458, Note_off_c, 0, 65, 54
1, 1288489, Note_on_c, 0, 60, 59
1, 1288493, Note_on_c, 0, 63, 72
1, 1288495, Note_on_c, 0, 94, 84
1, 1288508, Note_on_c, 0, 93, 86
1, 1288530, Note_off_c, 0, 94, 60
1, 1288539, Note_off_c, 0, 60, 60
1, 1288549, Note_off_c, 0, 93, 61
1, 1288555, Note_on_c, 0, 65, 78
1, 1288557, Note_off_c, 0, 63, 62
1, 1288582, Note_on_c, 0, 91, 91
1, 1288616, Note_off_c, 0, 65, 60
1, 1288640, Note_off_c, 0, 91, 53
1, 1288648, Note_on_c, 0, 93, 99
1, 1288651, Note_on_c, 0, 63, 80
1, 1288652, Note_on_c, 0, 60, 74
1, 1288688, Note_off_c, 0, 60, 64
1, 1288711, Note_off_c, 0, 63, 61
1, 1288744, Note_on_c, 0, 65, 74
1, 1288810, Note_off_c, 0, 65, 60
1, 1288822, Note_off_c, 0, 93, 59
1, 1288825, Note_on_c, 0, 94, 85
1, 1288835, Note_on_c, 0, 62, 77
1, 1288839, Note_on_c, 0, 58, 76
1, 1288853, Note_off_c, 0, 94, 62
1, 1288854, Control_c, 0, 64, 34
1, 1288861, Note_off_c, 0, 62, 65
1, 1288867, Note_off_c, 0, 58, 67
1, 1288869, Control_c, 0, 64, 53
1, 1288883, Control_c, 0, 64, 59
1, 1288898, Control_c, 0, 64, 57
1, 1288913, Control_c, 0, 64, 54
1, 1288914, Note_on_c, 0, 65, 67
1, 1288928, Control_c, 0, 64, 48
1, 1288943, Control_c, 0, 64, 28
1, 1288954, Note_off_c, 0, 65, 53
1, 1288957, Control_c, 0, 64, 0
1, 1288980, Note_on_c, 0, 62, 70
1, 1288985, Note_on_c, 0, 58, 60
1, 1288988, Note_on_c, 0, 84, 61
1, 1289012, Note_on_c, 0, 82, 76
1, 1289016, Note_off_c, 0, 84, 67
1, 1289022, Note_off_c, 0, 58, 64
1, 1289035, Note_off_c, 0, 62, 52
1, 1289062, Note_on_c, 0, 65, 67
1, 1289064, Note_off_c, 0, 82, 63
1, 1289087, Note_on_c, 0, 81, 61
1, 1289121, Note_off_c, 0, 65, 44
1, 1289149, Note_on_c, 0, 62, 65
1, 1289150, Note_on_c, 0, 58, 62
1, 1289168, Note_off_c, 0, 81, 65
1, 1289173, Note_on_c, 0, 82, 33
1, 1289189, Note_off_c, 0, 58, 65
1, 1289199, Note_off_c, 0, 62, 61
1, 1289204, Note_off_c, 0, 82, 34
1, 1289246, Note_on_c, 0, 65, 67
1, 1289281, Note_off_c, 0, 65, 56
1, 1289387, Note_on_c, 0, 58, 51
1, 1289397, Note_on_c, 0, 74, 55
1, 1289478, Note_off_c, 0, 74, 61
1, 1289520, Note_on_c, 0, 77, 43
1, 1289563, Note_off_c, 0, 77, 47
1, 1289583, Note_on_c, 0, 57, 54
1, 1289588, Note_off_c, 0, 58, 59
1, 1289600, Note_on_c, 0, 74, 58
1, 1289644, Note_off_c, 0, 74, 54
1, 1289653, Poly_aftertouch_c, 0, 70, 0
1, 1289669, Note_on_c, 0, 77, 56
1, 1289725, Note_off_c, 0, 77, 47
1, 1289731, Note_on_c, 0, 58, 65
1, 1289734, Note_off_c, 0, 57, 62
1, 1289750, Note_on_c, 0, 74, 71
1, 1289764, Note_on_c, 0, 70, 56
1, 1289786, Note_off_c, 0, 70, 64
1, 1289832, Note_off_c, 0, 74, 57
1, 1289840, Note_on_c, 0, 77, 68
1, 1289901, Note_off_c, 0, 77, 51
1, 1289906, Note_on_c, 0, 55, 73
1, 1289919, Note_on_c, 0, 74, 70
1, 1289928, Note_off_c, 0, 58, 56
1, 1289934, Note_on_c, 0, 70, 43
1, 1289959, Note_off_c, 0, 70, 58
1, 1290001, Note_off_c, 0, 74, 56
1, 1290020, Note_on_c, 0, 79, 64
1, 1290070, Note_on_c, 0, 57, 71
1, 1290070, Note_off_c, 0, 55, 62
1, 1290080, Note_off_c, 0, 79, 55
1, 1290104, Note_on_c, 0, 74, 70
1, 1290128, Note_on_c, 0, 70, 26
1, 1290155, Note_off_c, 0, 57, 64
1, 1290157, Note_off_c, 0, 70, 48
1, 1290160, Note_on_c, 0, 58, 72
1, 1290173, Note_off_c, 0, 74, 50
1, 1290184, Note_on_c, 0, 79, 70
1, 1290230, Note_on_c, 0, 60, 66
1, 1290235, Note_off_c, 0, 79, 58
1, 1290262, Note_off_c, 0, 58, 56
1, 1290279, Note_on_c, 0, 74, 75
1, 1290297, Note_off_c, 0, 60, 64
1, 1290316, Note_on_c, 0, 62, 70
1, 1290351, Note_off_c, 0, 74, 59
1, 1290357, Note_on_c, 0, 79, 71
1, 1290358, Poly_aftertouch_c, 0, 70, 0
1, 1290403, Note_off_c, 0, 62, 57
1, 1290422, Note_on_c, 0, 58, 72
1, 1290422, Note_off_c, 0, 79, 56
1, 1290429, Note_on_c, 0, 74, 74
1, 1290491, Note_off_c, 0, 74, 58
1, 1290515, Note_on_c, 0, 77, 70
1, 1290570, Note_off_c, 0, 58, 61
1, 1290575, Note_off_c, 0, 77, 63
1, 1290584, Note_on_c, 0, 74, 78
1, 1290596, Note_on_c, 0, 60, 63
1, 1290624, Note_on_c, 0, 70, 17
1, 1290641, Note_off_c, 0, 60, 61
1, 1290641, Note_off_c, 0, 74, 58
1, 1290652, Note_off_c, 0, 70, 32
1, 1290669, Note_on_c, 0, 58, 75
1, 1290670, Note_on_c, 0, 77, 76
1, 1290727, Note_off_c, 0, 58, 63
1, 1290733, Note_off_c, 0, 77, 63
1, 1290740, Note_on_c, 0, 74, 78
1, 1290747, Note_on_c, 0, 70, 53
1, 1290750, Note_on_c, 0, 57, 74
1, 1290768, Note_off_c, 0, 70, 63
1, 1290783, Note_off_c, 0, 57, 67
1, 1290803, Note_off_c, 0, 74, 59
1, 1290820, Note_on_c, 0, 77, 81
1, 1290825, Note_on_c, 0, 55, 80
1, 1290862, Note_off_c, 0, 55, 65
1, 1290894, Note_off_c, 0, 77, 61
1, 1290909, Note_on_c, 0, 53, 82
1, 1290912, Note_on_c, 0, 75, 78
1, 1290923, Note_on_c, 0, 69, 60
1, 1290930, Note_off_c, 0, 53, 69
1, 1290950, Note_off_c, 0, 69, 65
1, 1290965, Note_off_c, 0, 75, 60
1, 1291003, Note_on_c, 0, 77, 73
1, 1291062, Note_off_c, 0, 77, 58
1, 1291087, Note_on_c, 0, 75, 75
1, 1291092, Note_on_c, 0, 53, 72
1, 1291102, Note_on_c, 0, 69, 57
1, 1291120, Note_off_c, 0, 53, 64
1, 1291131, Note_off_c, 0, 69, 65
1, 1291133, Note_off_c, 0, 75, 58
1, 1291177, Note_on_c, 0, 77, 67
1, 1291242, Note_off_c, 0, 77, 56
1, 1291248, Note_on_c, 0, 53, 57
1, 1291254, Note_on_c, 0, 75, 71
1, 1291275, Note_on_c, 0, 69, 43
1, 1291276, Note_off_c, 0, 53, 64
1, 1291301, Note_off_c, 0, 69, 60
1, 1291308, Note_off_c, 0, 75, 56
1, 1291346, Note_on_c, 0, 77, 69
1, 1291382, Note_off_c, 0, 77, 56
1, 1291418, Note_on_c, 0, 54, 74
1, 1291421, Note_on_c, 0, 75, 75
1, 1291430, Note_on_c, 0, 69, 52
1, 1291456, Control_c, 0, 64, 33
1, 1291464, Note_off_c, 0, 69, 62
1, 1291470, Control_c, 0, 64, 32
1, 1291478, Note_off_c, 0, 75, 60
1, 1291485, Control_c, 0, 64, 32
1, 1291509, Note_on_c, 0, 81, 76
1, 1291564, Note_off_c, 0, 54, 62
1, 1291568, Note_off_c, 0, 81, 62
1, 1291582, Note_on_c, 0, 75, 86
1, 1291585, Note_on_c, 0, 66, 83
1, 1291592, Note_on_c, 0, 69, 66
1, 1291605, Control_c, 0, 64, 33
1, 1291607, Note_off_c, 0, 66, 72
1, 1291620, Control_c, 0, 64, 32
1, 1291624, Note_off_c, 0, 69, 59
1, 1291635, Control_c, 0, 64, 30
1, 1291636, Note_off_c, 0, 75, 62
1, 1291649, Control_c, 0, 64, 0
1, 1291665, Note_on_c, 0, 81, 82
1, 1291731, Note_off_c, 0, 81, 60
1, 1291742, Note_on_c, 0, 75, 80
1, 1291764, Note_on_c, 0, 66, 91
1, 1291764, Note_on_c, 0, 69, 61
1, 1291776, Control_c, 0, 64, 28
1, 1291798, Note_off_c, 0, 66, 64
1, 1291803, Note_off_c, 0, 69, 58
1, 1291831, Note_off_c, 0, 75, 58
1, 1291833, Note_on_c, 0, 81, 80
1, 1291879, Control_c, 0, 64, 0
1, 1291922, Note_off_c, 0, 81, 62
1, 1291929, Note_on_c, 0, 67, 87
1, 1291934, Note_on_c, 0, 75, 80
1, 1291938, Control_c, 0, 64, 37
1, 1291953, Control_c, 0, 64, 51
1, 1291955, Note_on_c, 0, 70, 60
1, 1291968, Control_c, 0, 64, 62
1, 1291982, Control_c, 0, 64, 68
1, 1291987, Note_off_c, 0, 70, 60
1, 1291997, Control_c, 0, 64, 73
1, 1292012, Control_c, 0, 64, 79
1, 1292024, Note_off_c, 0, 75, 63
1, 1292026, Note_on_c, 0, 82, 84
1, 1292026, Control_c, 0, 64, 87
1, 1292041, Control_c, 0, 64, 95
1, 1292056, Control_c, 0, 64, 105
1, 1292065, Note_off_c, 0, 67, 57
1, 1292071, Control_c, 0, 64, 114
1, 1292071, Control_c, 0, 67, 117
1, 1292087, Control_c, 0, 64, 121
1, 1292087, Control_c, 0, 67, 109
1, 1292101, Note_off_c, 0, 82, 58
1, 1292101, Control_c, 0, 67, 104
1, 1292116, Control_c, 0, 64, 105
1, 1292116, Control_c, 0, 67, 100
1, 1292120, Note_on_c, 0, 75, 76
1, 1292125, Note_on_c, 0, 70, 70
1, 1292126, Note_on_c, 0, 55, 67
1, 1292131, Control_c, 0, 64, 76
1, 1292131, Control_c, 0, 67, 97
1, 1292146, Control_c, 0, 64, 57
1, 1292146, Control_c, 0, 67, 95
1, 1292149, Note_off_c, 0, 70, 68
1, 1292158, Note_off_c, 0, 55, 63
1, 1292158, Note_off_c, 0, 75, 50
1, 1292161, Control_c, 0, 64, 0
1, 1292161, Control_c, 0, 67, 93
1, 1292175, Control_c, 0, 67, 87
1, 1292190, Control_c, 0, 67, 82
1, 1292203, Note_on_c, 0, 81, 74
1, 1292205, Control_c, 0, 67, 80
1, 1292220, Control_c, 0, 67, 79
1, 1292259, Note_off_c, 0, 81, 63
1, 1292265, Control_c, 0, 67, 79
1, 1292271, Note_on_c, 0, 75, 73
1, 1292272, Note_on_c, 0, 55, 76
1, 1292274, Note_on_c, 0, 70, 67
1, 1292280, Control_c, 0, 67, 78
1, 1292300, Note_off_c, 0, 55, 66
1, 1292305, Note_off_c, 0, 70, 64
1, 1292309, Control_c, 0, 67, 79
1, 1292330, Note_off_c, 0, 75, 54
1, 1292354, Control_c, 0, 67, 80
1, 1292358, Note_on_c, 0, 79, 69
1, 1292369, Control_c, 0, 67, 84
1, 1292372, Note_on_c, 0, 80, 48
1, 1292384, Control_c, 0, 67, 85
1, 1292396, Note_off_c, 0, 80, 50
1, 1292447, Note_on_c, 0, 58, 88
1, 1292453, Note_on_c, 0, 74, 78
1, 1292458, Control_c, 0, 64, 48
1, 1292458, Control_c, 0, 67, 86
1, 1292459, Note_on_c, 0, 68, 65
1, 1292459, Note_on_c, 0, 73, 26
1, 1292460, Note_off_c, 0, 79, 61
1, 1292470, Note_off_c, 0, 58, 71
1, 1292473, Control_c, 0, 64, 70
1, 1292473, Control_c, 0, 67, 84
1, 1292487, Note_off_c, 0, 68, 67
1, 1292488, Control_c, 0, 64, 85
1, 1292488, Control_c, 0, 67, 82
1, 1292491, Note_off_c, 0, 73, 48
1, 1292510, Control_c, 0, 64, 111
1, 1292510, Control_c, 0, 67, 81
1, 1292517, Note_off_c, 0, 74, 49
1, 1292525, Control_c, 0, 64, 127
1, 1292525, Control_c, 0, 67, 80
1, 1292539, Control_c, 0, 67, 79
1, 1292554, Control_c, 0, 67, 77
1, 1292560, Note_on_c, 0, 77, 57
1, 1292569, Control_c, 0, 67, 73
1, 1292584, Control_c, 0, 67, 65
1, 1292599, Control_c, 0, 67, 49
1, 1292614, Control_c, 0, 67, 39
1, 1292628, Control_c, 0, 67, 35
1, 1292641, Note_on_c, 0, 46, 79
1, 1292641, Note_on_c, 0, 74, 77
1, 1292643, Control_c, 0, 64, 95
1, 1292643, Control_c, 0, 67, 0
1, 1292645, Note_off_c, 0, 77, 62
1, 1292658, Control_c, 0, 64, 70
1, 1292662, Note_on_c, 0, 68, 52
1, 1292667, Note_off_c, 0, 46, 66
1, 1292673, Control_c, 0, 64, 46
1, 1292685, Note_off_c, 0, 68, 58
1, 1292688, Control_c, 0, 64, 0
1, 1292702, Note_off_c, 0, 74, 55
1, 1292722, Note_on_c, 0, 77, 78
1, 1292730, Note_on_c, 0, 45, 90
1, 1292761, Note_off_c, 0, 45, 68
1, 1292804, Note_on_c, 0, 68, 52
1, 1292805, Note_off_c, 0, 77, 61
1, 1292806, Note_on_c, 0, 74, 83
1, 1292814, Note_on_c, 0, 46, 95
1, 1292842, Note_off_c, 0, 68, 62
1, 1292850, Note_off_c, 0, 46, 64
1, 1292864, Note_off_c, 0, 74, 58
1, 1292895, Control_c, 0, 67, 33
1, 1292900, Note_on_c, 0, 77, 77
1, 1292910, Control_c, 0, 67, 35
1, 1292924, Control_c, 0, 67, 38
1, 1292969, Control_c, 0, 67, 39
1, 1292984, Control_c, 0, 67, 42
1, 1292989, Note_on_c, 0, 51, 82
1, 1292998, Note_on_c, 0, 75, 72
1, 1292998, Control_c, 0, 67, 43
1, 1293010, Note_on_c, 0, 67, 62
1, 1293013, Control_c, 0, 64, 55
1, 1293013, Control_c, 0, 67, 43
1, 1293014, Note_off_c, 0, 51, 68
1, 1293028, Control_c, 0, 64, 70
1, 1293028, Control_c, 0, 67, 41
1, 1293031, Note_off_c, 0, 77, 26
1, 1293039, Note_off_c, 0, 67, 65
1, 1293043, Control_c, 0, 64, 87
1, 1293043, Control_c, 0, 67, 38
1, 1293058, Control_c, 0, 64, 105
1, 1293058, Control_c, 0, 67, 35
1, 1293065, Note_off_c, 0, 75, 50
1, 1293073, Control_c, 0, 64, 127
1, 1293073, Control_c, 0, 67, 0
1, 1293084, Note_on_c, 0, 79, 68
1, 1293145, Note_off_c, 0, 79, 56
1, 1293171, Note_on_c, 0, 39, 75
1, 1293179, Note_on_c, 0, 75, 72
1, 1293190, Note_on_c, 0, 41, 42
1, 1293207, Note_on_c, 0, 67, 45
1, 1293209, Note_off_c, 0, 39, 62
1, 1293210, Note_off_c, 0, 75, 58
1, 1293223, Note_off_c, 0, 41, 50
1, 1293231, Note_off_c, 0, 67, 57
1, 1293237, Control_c, 0, 64, 88
1, 1293259, Control_c, 0, 64, 62
1, 1293269, Note_on_c, 0, 79, 73
1, 1293274, Control_c, 0, 64, 0
1, 1293282, Note_on_c, 0, 38, 76
1, 1293323, Note_off_c, 0, 38, 64
1, 1293347, Note_off_c, 0, 79, 55
1, 1293370, Note_on_c, 0, 39, 81
1, 1293370, Note_on_c, 0, 75, 80
1, 1293377, Control_c, 0, 67, 35
1, 1293386, Note_on_c, 0, 67, 56
1, 1293392, Note_off_c, 0, 39, 67
1, 1293392, Control_c, 0, 67, 69
1, 1293398, Note_off_c, 0, 75, 64
1, 1293407, Note_off_c, 0, 67, 61
1, 1293407, Control_c, 0, 67, 114
1, 1293422, Control_c, 0, 67, 127
1, 1293626, Note_on_c, 0, 67, 62
1, 1293626, Note_on_c, 0, 82, 66
1, 1293630, Note_on_c, 0, 63, 65
1, 1293651, Note_off_c, 0, 82, 68
1, 1293659, Note_off_c, 0, 63, 64
1, 1293676, Note_off_c, 0, 67, 46
1, 1293764, Note_on_c, 0, 70, 32
1, 1293797, Note_off_c, 0, 70, 50
1, 1293800, Note_on_c, 0, 80, 57
1, 1293804, Note_on_c, 0, 63, 58
1, 1293808, Note_on_c, 0, 67, 55
1, 1293830, Note_off_c, 0, 80, 65
1, 1293839, Note_on_c, 0, 79, 50
1, 1293848, Note_off_c, 0, 63, 60
1, 1293869, Note_off_c, 0, 79, 66
1, 1293874, Note_on_c, 0, 70, 67
1, 1293880, Note_off_c, 0, 67, 56
1, 1293887, Note_on_c, 0, 77, 60
1, 1293913, Note_off_c, 0, 77, 66
1, 1293928, Note_off_c, 0, 70, 58
1, 1293961, Note_on_c, 0, 79, 74
1, 1293973, Note_on_c, 0, 63, 60
1, 1293987, Note_on_c, 0, 67, 47
1, 1294018, Note_off_c, 0, 63, 60
1, 1294041, Note_off_c, 0, 79, 0
1, 1294057, Note_on_c, 0, 79, 48
1, 1294062, Note_on_c, 0, 70, 67
1, 1294078, Note_off_c, 0, 67, 38
1, 1294112, Note_off_c, 0, 70, 57
1, 1294118, Note_off_c, 0, 79, 57
1, 1294148, Note_on_c, 0, 82, 80
1, 1294155, Note_on_c, 0, 65, 56
1, 1294157, Note_on_c, 0, 62, 57
1, 1294185, Note_off_c, 0, 82, 61
1, 1294188, Note_off_c, 0, 62, 62
1, 1294193, Note_off_c, 0, 65, 58
1, 1294216, Note_on_c, 0, 70, 70
1, 1294262, Note_off_c, 0, 70, 58
1, 1294300, Note_on_c, 0, 62, 55
1, 1294310, Note_on_c, 0, 65, 55
1, 1294317, Note_on_c, 0, 79, 47
1, 1294331, Note_on_c, 0, 77, 77
1, 1294344, Note_off_c, 0, 79, 66
1, 1294362, Note_off_c, 0, 62, 58
1, 1294377, Note_off_c, 0, 77, 60
1, 1294379, Note_off_c, 0, 65, 59
1, 1294382, Note_on_c, 0, 70, 68
1, 1294417, Note_on_c, 0, 76, 67
1, 1294442, Note_off_c, 0, 70, 60
1, 1294449, Note_off_c, 0, 76, 55
1, 1294472, Note_on_c, 0, 66, 55
1, 1294484, Note_on_c, 0, 77, 65
1, 1294488, Note_on_c, 0, 61, 57
1, 1294496, Note_off_c, 0, 66, 40
1, 1294500, Note_off_c, 0, 77, 66
1, 1294501, Note_on_c, 0, 65, 45
1, 1294526, Note_off_c, 0, 61, 66
1, 1294533, Note_off_c, 0, 65, 52
1, 1294546, Note_on_c, 0, 70, 75
1, 1294603, Note_off_c, 0, 70, 61
1, 1294642, Note_on_c, 0, 84, 81
1, 1294646, Note_on_c, 0, 65, 63
1, 1294660, Note_on_c, 0, 60, 61
1, 1294674, Control_c, 0, 64, 47
1, 1294689, Control_c, 0, 64, 59
1, 1294703, Control_c, 0, 64, 64
1, 1294718, Control_c, 0, 64, 66
1, 1294721, Note_off_c, 0, 60, 60
1, 1294733, Note_on_c, 0, 68, 77
1, 1294736, Note_off_c, 0, 65, 61
1, 1294787, Control_c, 0, 64, 65
1, 1294808, Note_off_c, 0, 68, 60
1, 1294816, Note_on_c, 0, 82, 79
1, 1294816, Control_c, 0, 64, 64
1, 1294819, Note_on_c, 0, 60, 73
1, 1294831, Note_on_c, 0, 65, 63
1, 1294831, Control_c, 0, 64, 62
1, 1294846, Control_c, 0, 64, 60
1, 1294860, Control_c, 0, 64, 59
1, 1294869, Note_off_c, 0, 84, 54
1, 1294872, Note_off_c, 0, 60, 54
1, 1294900, Note_on_c, 0, 68, 80
1, 1294904, Note_off_c, 0, 65, 61
1, 1294905, Control_c, 0, 64, 58
1, 1294907, Note_on_c, 0, 80, 70
1, 1294973, Note_on_c, 0, 79, 79
1, 1294974, Note_off_c, 0, 68, 61
1, 1294977, Note_off_c, 0, 82, 58
1, 1294986, Note_on_c, 0, 65, 70
1, 1294991, Note_on_c, 0, 60, 70
1, 1295005, Note_off_c, 0, 80, 60
1, 1295008, Control_c, 0, 64, 58
1, 1295038, Control_c, 0, 64, 58
1, 1295057, Note_off_c, 0, 79, 61
1, 1295066, Note_on_c, 0, 68, 78
1, 1295067, Note_off_c, 0, 60, 59
1, 1295073, Note_on_c, 0, 77, 74
1, 1295082, Control_c, 0, 64, 58
1, 1295082, Note_off_c, 0, 65, 58
1, 1295100, Note_off_c, 0, 77, 64
1, 1295115, Note_off_c, 0, 68, 61
1, 1295141, Control_c, 0, 64, 54
1, 1295156, Control_c, 0, 64, 45
1, 1295167, Note_on_c, 0, 84, 77
1, 1295171, Control_c, 0, 64, 0
1, 1295177, Note_on_c, 0, 64, 56
1, 1295183, Note_on_c, 0, 60, 58
1, 1295230, Control_c, 0, 64, 38
1, 1295244, Control_c, 0, 64, 55
1, 1295246, Note_off_c, 0, 64, 60
1, 1295249, Note_off_c, 0, 60, 59
1, 1295251, Note_on_c, 0, 67, 71
1, 1295259, Control_c, 0, 64, 66
1, 1295274, Control_c, 0, 64, 72
1, 1295289, Control_c, 0, 64, 77
1, 1295290, Note_off_c, 0, 84, 59
1, 1295294, Note_off_c, 0, 67, 58
1, 1295304, Control_c, 0, 64, 78
1, 1295318, Control_c, 0, 64, 79
1, 1295333, Control_c, 0, 64, 79
1, 1295355, Note_on_c, 0, 64, 65
1, 1295361, Note_on_c, 0, 60, 53
1, 1295365, Note_on_c, 0, 72, 33
1, 1295392, Control_c, 0, 64, 76
1, 1295399, Note_off_c, 0, 72, 52
1, 1295407, Control_c, 0, 64, 68
1, 1295409, Note_off_c, 0, 60, 47
1, 1295419, Note_off_c, 0, 64, 53
1, 1295422, Control_c, 0, 64, 58
1, 1295437, Control_c, 0, 64, 48
1, 1295447, Note_on_c, 0, 67, 53
1, 1295466, Control_c, 0, 64, 54
1, 1295481, Control_c, 0, 64, 64
1, 1295504, Control_c, 0, 64, 73
1, 1295519, Control_c, 0, 64, 85
1, 1295521, Note_off_c, 0, 67, 36
1, 1295533, Control_c, 0, 64, 100
1, 1295536, Note_on_c, 0, 72, 50
1, 1295542, Note_on_c, 0, 64, 60
1, 1295544, Note_on_c, 0, 60, 41
1, 1295548, Control_c, 0, 64, 127
1, 1295587, Note_off_c, 0, 72, 58
1, 1295626, Note_off_c, 0, 64, 62
1, 1295630, Note_off_c, 0, 60, 60
1, 1295634, Note_on_c, 0, 67, 70
1, 1295657, Note_off_c, 0, 67, 69
1, 1295794, Note_on_c, 0, 56, 64
1, 1295794, Note_on_c, 0, 72, 57
1, 1295800, Note_on_c, 0, 60, 63
1, 1295815, Note_on_c, 0, 68, 32
1, 1295816, Control_c, 0, 64, 91
1, 1295831, Control_c, 0, 64, 73
1, 1295846, Control_c, 0, 64, 61
1, 1295852, Note_off_c, 0, 68, 50
1, 1295861, Control_c, 0, 64, 48
1, 1295875, Control_c, 0, 64, 34
1, 1295878, Note_off_c, 0, 72, 61
1, 1295882, Note_on_c, 0, 75, 67
1, 1295890, Control_c, 0, 64, 0
1, 1295958, Note_off_c, 0, 75, 61
1, 1295967, Note_on_c, 0, 72, 66
1, 1295973, Note_on_c, 0, 61, 79
1, 1295976, Note_on_c, 0, 68, 45
1, 1296003, Note_off_c, 0, 60, 64
1, 1296011, Note_off_c, 0, 68, 59
1, 1296051, Note_off_c, 0, 72, 58
1, 1296058, Note_on_c, 0, 75, 76
1, 1296133, Note_off_c, 0, 75, 59
1, 1296142, Note_on_c, 0, 60, 69
1, 1296144, Note_on_c, 0, 72, 72
1, 1296161, Note_on_c, 0, 68, 51
1, 1296178, Note_off_c, 0, 61, 63
1, 1296187, Note_off_c, 0, 68, 59
1, 1296190, Note_off_c, 0, 56, 61
1, 1296231, Note_off_c, 0, 72, 59
1, 1296232, Note_on_c, 0, 75, 74
1, 1296315, Note_off_c, 0, 60, 62
1, 1296319, Note_on_c, 0, 58, 72
1, 1296322, Note_on_c, 0, 49, 65
1, 1296327, Note_on_c, 0, 77, 77
1, 1296332, Note_off_c, 0, 75, 56
1, 1296412, Note_on_c, 0, 80, 80
1, 1296414, Note_off_c, 0, 77, 64
1, 1296487, Note_on_c, 0, 53, 74
1, 1296492, Note_off_c, 0, 80, 62
1, 1296501, Note_on_c, 0, 77, 74
1, 1296510, Note_on_c, 0, 68, 53
1, 1296536, Note_off_c, 0, 68, 63
1, 1296559, Note_off_c, 0, 58, 59
1, 1296581, Note_on_c, 0, 80, 82
1, 1296611, Note_off_c, 0, 77, 62
1, 1296641, Note_off_c, 0, 53, 64
1, 1296652, Note_on_c, 0, 55, 71
1, 1296667, Note_off_c, 0, 80, 63
1, 1296670, Note_on_c, 0, 77, 65
1, 1296678, Note_off_c, 0, 49, 64
1, 1296752, Note_on_c, 0, 80, 79
1, 1296778, Note_off_c, 0, 77, 62
1, 1296795, Note_on_c, 0, 58, 58
1, 1296836, Note_on_c, 0, 51, 70
1, 1296839, Note_off_c, 0, 55, 59
1, 1296841, Note_off_c, 0, 58, 63
1, 1296845, Note_off_c, 0, 80, 61
1, 1296846, Note_on_c, 0, 56, 74
1, 1296849, Note_on_c, 0, 72, 65
1, 1296876, Note_on_c, 0, 68, 27
1, 1296912, Note_off_c, 0, 68, 46
1, 1296943, Note_on_c, 0, 75, 61
1, 1296945, Note_off_c, 0, 72, 55
1, 1297019, Note_off_c, 0, 75, 54
1, 1297039, Note_on_c, 0, 68, 46
1, 1297043, Note_on_c, 0, 72, 54
1, 1297055, Note_on_c, 0, 55, 54
1, 1297060, Note_off_c, 0, 56, 57
1, 1297068, Note_off_c, 0, 68, 62
1, 1297080, Note_off_c, 0, 72, 59
1, 1297121, Note_on_c, 0, 75, 77
1, 1297162, Note_off_c, 0, 51, 61
1, 1297189, Note_off_c, 0, 75, 55
1, 1297204, Note_on_c, 0, 72, 68
1, 1297219, Note_on_c, 0, 68, 51
1, 1297219, Note_on_c, 0, 56, 61
1, 1297252, Note_off_c, 0, 68, 63
1, 1297261, Note_off_c, 0, 72, 58
1, 1297286, Note_on_c, 0, 75, 81
1, 1297306, Note_off_c, 0, 55, 35
1, 1297343, Note_off_c, 0, 75, 58
1, 1297367, Note_on_c, 0, 58, 70
1, 1297368, Note_on_c, 0, 73, 82
1, 1297374, Note_on_c, 0, 51, 67
1, 1297383, Note_on_c, 0, 67, 66
1, 1297386, Note_off_c, 0, 56, 63
1, 1297414, Note_off_c, 0, 67, 60
1, 1297421, Note_off_c, 0, 73, 63
1, 1297445, Note_on_c, 0, 75, 86
1, 1297528, Note_off_c, 0, 75, 55
1, 1297534, Note_on_c, 0, 73, 74
1, 1297547, Note_on_c, 0, 67, 65
1, 1297594, Control_c, 0, 64, 29
1, 1297595, Note_off_c, 0, 67, 55
1, 1297595, Note_off_c, 0, 73, 61
1, 1297609, Control_c, 0, 64, 42
1, 1297619, Note_on_c, 0, 75, 88
1, 1297624, Control_c, 0, 64, 58
1, 1297638, Control_c, 0, 64, 66
1, 1297653, Control_c, 0, 64, 69
1, 1297668, Control_c, 0, 64, 73
1, 1297683, Control_c, 0, 64, 77
1, 1297698, Control_c, 0, 64, 83
1, 1297702, Note_on_c, 0, 73, 77
1, 1297710, Note_off_c, 0, 51, 60
1, 1297710, Note_off_c, 0, 75, 55
1, 1297712, Control_c, 0, 64, 91
1, 1297712, Control_c, 0, 67, 113
1, 1297716, Note_on_c, 0, 67, 65
1, 1297720, Note_on_c, 0, 59, 67
1, 1297727, Control_c, 0, 64, 105
1, 1297727, Control_c, 0, 67, 94
1, 1297744, Note_off_c, 0, 58, 61
1, 1297750, Control_c, 0, 64, 127
1, 1297750, Control_c, 0, 67, 71
1, 1297753, Note_off_c, 0, 67, 65
1, 1297765, Control_c, 0, 67, 46
1, 1297767, Note_off_c, 0, 59, 61
1, 1297779, Control_c, 0, 67, 0
1, 1297794, Note_on_c, 0, 75, 87
1, 1297809, Note_off_c, 0, 73, 63
1, 1297836, Note_off_c, 0, 75, 61
1, 1297872, Note_on_c, 0, 60, 72
1, 1297874, Note_on_c, 0, 75, 85
1, 1297876, Note_on_c, 0, 56, 73
1, 1297881, Note_on_c, 0, 72, 84
1, 1297883, Control_c, 0, 64, 75
1, 1297890, Note_on_c, 0, 68, 68
1, 1297898, Control_c, 0, 64, 42
1, 1297900, Note_off_c, 0, 72, 72
1, 1297908, Note_off_c, 0, 68, 64
1, 1297909, Note_off_c, 0, 56, 65
1, 1297913, Control_c, 0, 64, 0
1, 1297918, Note_off_c, 0, 75, 58
1, 1297926, Note_off_c, 0, 60, 62
1, 1297981, Note_on_c, 0, 63, 53
1, 1298011, Note_off_c, 0, 63, 53
1, 1298049, Note_on_c, 0, 60, 65
1, 1298050, Note_on_c, 0, 73, 70
1, 1298057, Note_on_c, 0, 56, 54
1, 1298060, Note_on_c, 0, 72, 69
1, 1298073, Note_off_c, 0, 73, 70
1, 1298100, Note_off_c, 0, 56, 58
1, 1298105, Note_off_c, 0, 72, 59
1, 1298130, Note_on_c, 0, 63, 57
1, 1298134, Note_off_c, 0, 60, 58
1, 1298135, Note_on_c, 0, 70, 77
1, 1298168, Note_off_c, 0, 70, 63
1, 1298180, Note_off_c, 0, 63, 53
1, 1298213, Note_on_c, 0, 72, 86
1, 1298220, Note_on_c, 0, 60, 63
1, 1298223, Note_on_c, 0, 56, 57
1, 1298265, Note_off_c, 0, 56, 58
1, 1298306, Note_on_c, 0, 63, 64
1, 1298310, Note_off_c, 0, 60, 59
1, 1298361, Note_off_c, 0, 63, 57
1, 1298386, Note_on_c, 0, 55, 65
1, 1298391, Note_on_c, 0, 75, 71
1, 1298392, Note_off_c, 0, 72, 39
1, 1298394, Note_on_c, 0, 58, 62
1, 1298411, Note_off_c, 0, 75, 60
1, 1298417, Control_c, 0, 64, 47
1, 1298426, Note_on_c, 0, 74, 44
1, 1298432, Note_off_c, 0, 55, 63
1, 1298432, Note_off_c, 0, 58, 62
1, 1298432, Control_c, 0, 64, 60
1, 1298447, Control_c, 0, 64, 63
1, 1298455, Note_off_c, 0, 74, 56
1, 1298465, Note_on_c, 0, 63, 69
1, 1298476, Control_c, 0, 64, 62
1, 1298519, Note_off_c, 0, 63, 55
1, 1298549, Note_on_c, 0, 55, 66
1, 1298549, Note_on_c, 0, 58, 60
1, 1298558, Control_c, 0, 64, 63
1, 1298563, Note_on_c, 0, 72, 46
1, 1298583, Note_on_c, 0, 70, 80
1, 1298593, Note_off_c, 0, 72, 61
1, 1298617, Control_c, 0, 64, 63
1, 1298620, Note_off_c, 0, 55, 60
1, 1298637, Note_off_c, 0, 70, 64
1, 1298638, Note_on_c, 0, 63, 66
1, 1298640, Note_off_c, 0, 58, 62
1, 1298677, Note_on_c, 0, 69, 67
1, 1298691, Control_c, 0, 64, 64
1, 1298714, Note_off_c, 0, 63, 55
1, 1298721, Control_c, 0, 64, 63
1, 1298732, Note_off_c, 0, 69, 65
1, 1298733, Note_on_c, 0, 58, 74
1, 1298736, Control_c, 0, 64, 52
1, 1298737, Note_on_c, 0, 70, 66
1, 1298743, Note_on_c, 0, 54, 56
1, 1298750, Control_c, 0, 64, 0
1, 1298754, Note_off_c, 0, 70, 66
1, 1298780, Note_off_c, 0, 54, 55
1, 1298793, Note_off_c, 0, 58, 61
1, 1298820, Note_on_c, 0, 63, 77
1, 1298869, Note_off_c, 0, 63, 60
1, 1298905, Note_on_c, 0, 77, 84
1, 1298907, Note_on_c, 0, 58, 68
1, 1298908, Note_on_c, 0, 53, 72
1, 1298991, Note_off_c, 0, 58, 63
1, 1298992, Note_on_c, 0, 61, 75
1, 1298992, Note_off_c, 0, 53, 38
1, 1299051, Note_off_c, 0, 61, 62
1, 1299076, Note_on_c, 0, 75, 82
1, 1299078, Note_on_c, 0, 53, 66
1, 1299078, Note_on_c, 0, 58, 73
1, 1299100, Note_off_c, 0, 77, 59
1, 1299140, Note_off_c, 0, 58, 64
1, 1299152, Note_on_c, 0, 61, 80
1, 1299152, Note_off_c, 0, 53, 54
1, 1299161, Note_on_c, 0, 73, 82
1, 1299192, Note_off_c, 0, 75, 62
1, 1299217, Note_off_c, 0, 73, 63
1, 1299225, Note_off_c, 0, 61, 61
1, 1299246, Note_on_c, 0, 53, 64
1, 1299248, Note_on_c, 0, 58, 72
1, 1299255, Note_on_c, 0, 72, 82
1, 1299307, Control_c, 0, 67, 49
1, 1299312, Note_off_c, 0, 72, 61
1, 1299322, Control_c, 0, 67, 75
1, 1299324, Note_off_c, 0, 53, 54
1, 1299325, Note_on_c, 0, 61, 76
1, 1299331, Note_on_c, 0, 70, 65
1, 1299337, Control_c, 0, 67, 82
1, 1299341, Note_off_c, 0, 58, 61
1, 1299352, Control_c, 0, 67, 84
1, 1299362, Note_off_c, 0, 70, 64
1, 1299366, Control_c, 0, 67, 92
1, 1299377, Note_off_c, 0, 61, 62
1, 1299381, Control_c, 0, 67, 117
1, 1299396, Control_c, 0, 67, 127
1, 1299437, Note_on_c, 0, 77, 71
1, 1299453, Note_on_c, 0, 53, 51
1, 1299459, Note_on_c, 0, 57, 57
1, 1299527, Note_off_c, 0, 53, 38
1, 1299540, Note_on_c, 0, 60, 66
1, 1299540, Note_off_c, 0, 57, 61
1, 1299580, Note_off_c, 0, 77, 62
1, 1299594, Note_off_c, 0, 60, 53
1, 1299604, Control_c, 0, 64, 35
1, 1299619, Note_on_c, 0, 65, 47
1, 1299619, Control_c, 0, 64, 50
1, 1299634, Control_c, 0, 64, 60
1, 1299643, Note_on_c, 0, 53, 53
1, 1299649, Control_c, 0, 64, 61
1, 1299659, Note_on_c, 0, 57, 39
1, 1299678, Control_c, 0, 64, 61
1, 1299693, Control_c, 0, 64, 63
1, 1299696, Note_off_c, 0, 57, 59
1, 1299697, Note_off_c, 0, 65, 57
1, 1299700, Note_off_c, 0, 53, 53
1, 1299708, Control_c, 0, 64, 66
1, 1299723, Control_c, 0, 64, 69
1, 1299728, Note_on_c, 0, 60, 55
1, 1299738, Control_c, 0, 64, 74
1, 1299753, Control_c, 0, 64, 80
1, 1299768, Control_c, 0, 64, 91
1, 1299771, Note_off_c, 0, 60, 58
1, 1299782, Control_c, 0, 64, 106
1, 1299797, Control_c, 0, 64, 127
1, 1299808, Note_on_c, 0, 57, 43
1, 1299819, Note_on_c, 0, 65, 47
1, 1299834, Note_on_c, 0, 53, 41
1, 1299843, Note_off_c, 0, 65, 57
1, 1299872, Note_off_c, 0, 53, 55
1, 1299893, Note_off_c, 0, 57, 63
1, 1299908, Note_on_c, 0, 60, 66
1, 1299936, Note_off_c, 0, 60, 67
1, 1300062, Note_on_c, 0, 78, 59
1, 1300081, Note_off_c, 0, 78, 59
1, 1300092, Note_on_c, 0, 65, 54
1, 1300096, Note_on_c, 0, 61, 61
1, 1300120, Note_on_c, 0, 77, 37
1, 1300130, Control_c, 0, 64, 108
1, 1300134, Poly_aftertouch_c, 0, 73, 127
1, 1300145, Control_c, 0, 64, 81
1, 1300160, Control_c, 0, 64, 64
1, 1300171, Poly_aftertouch_c, 0, 73, 0
1, 1300174, Control_c, 0, 64, 50
1, 1300189, Control_c, 0, 64, 37
1, 1300191, Note_off_c, 0, 77, 54
1, 1300204, Note_on_c, 0, 80, 65
1, 1300204, Control_c, 0, 64, 30
1, 1300219, Control_c, 0, 64, 0
1, 1300283, Note_on_c, 0, 66, 80
1, 1300283, Note_on_c, 0, 77, 73
1, 1300292, Note_on_c, 0, 73, 56
1, 1300294, Note_off_c, 0, 80, 59
1, 1300333, Note_off_c, 0, 73, 56
1, 1300344, Note_off_c, 0, 65, 60
1, 1300364, Note_off_c, 0, 77, 59
1, 1300369, Note_on_c, 0, 80, 79
1, 1300444, Note_off_c, 0, 80, 62
1, 1300445, Note_on_c, 0, 77, 82
1, 1300459, Note_on_c, 0, 65, 72
1, 1300459, Note_on_c, 0, 73, 63
1, 1300498, Note_off_c, 0, 66, 65
1, 1300501, Note_off_c, 0, 73, 53
1, 1300507, Note_off_c, 0, 61, 64
1, 1300528, Note_on_c, 0, 80, 83
1, 1300548, Note_off_c, 0, 77, 62
1, 1300607, Note_on_c, 0, 82, 75
1, 1300621, Note_off_c, 0, 65, 60
1, 1300632, Note_on_c, 0, 63, 71
1, 1300637, Note_off_c, 0, 80, 62
1, 1300652, Note_on_c, 0, 54, 45
1, 1300680, Note_on_c, 0, 85, 82
1, 1300684, Note_off_c, 0, 82, 59
1, 1300778, Note_on_c, 0, 82, 79
1, 1300786, Note_off_c, 0, 85, 61
1, 1300799, Note_on_c, 0, 73, 59
1, 1300828, Note_off_c, 0, 73, 65
1, 1300831, Note_off_c, 0, 63, 61
1, 1300856, Note_on_c, 0, 58, 42
1, 1300874, Note_on_c, 0, 85, 84
1, 1300898, Note_off_c, 0, 82, 60
1, 1300963, Note_off_c, 0, 85, 64
1, 1300965, Note_on_c, 0, 82, 68
1, 1300984, Note_on_c, 0, 73, 52
1, 1300990, Note_on_c, 0, 60, 66
1, 1301011, Note_off_c, 0, 58, 63
1, 1301013, Note_off_c, 0, 73, 55
1, 1301021, Note_off_c, 0, 54, 62
1, 1301052, Note_on_c, 0, 85, 72
1, 1301079, Note_off_c, 0, 82, 60
1, 1301132, Note_on_c, 0, 63, 75
1, 1301145, Note_on_c, 0, 77, 55
1, 1301151, Note_off_c, 0, 85, 64
1, 1301157, Note_on_c, 0, 56, 71
1, 1301187, Note_off_c, 0, 60, 56
1, 1301191, Note_on_c, 0, 61, 70
1, 1301191, Note_off_c, 0, 63, 63
1, 1301243, Note_off_c, 0, 77, 56
1, 1301250, Note_on_c, 0, 80, 61
1, 1301333, Note_off_c, 0, 80, 58
1, 1301346, Note_on_c, 0, 77, 67
1, 1301356, Note_off_c, 0, 61, 60
1, 1301365, Note_on_c, 0, 60, 56
1, 1301384, Note_on_c, 0, 73, 10
1, 1301401, Note_off_c, 0, 77, 50
1, 1301427, Note_off_c, 0, 73, 38
1, 1301430, Note_on_c, 0, 80, 73
1, 1301505, Note_off_c, 0, 80, 58
1, 1301520, Note_on_c, 0, 77, 68
1, 1301523, Note_on_c, 0, 61, 65
1, 1301523, Note_on_c, 0, 73, 52
1, 1301524, Note_off_c, 0, 60, 56
1, 1301556, Note_off_c, 0, 73, 61
1, 1301575, Note_off_c, 0, 56, 60
1, 1301582, Note_off_c, 0, 77, 61
1, 1301602, Note_on_c, 0, 80, 81
1, 1301665, Note_off_c, 0, 80, 58
1, 1301685, Note_on_c, 0, 78, 83
1, 1301693, Note_on_c, 0, 56, 67
1, 1301696, Note_on_c, 0, 63, 67
1, 1301697, Note_on_c, 0, 72, 69
1, 1301716, Control_c, 0, 64, 30
1, 1301731, Note_off_c, 0, 61, 63
1, 1301732, Note_off_c, 0, 72, 57
1, 1301736, Note_off_c, 0, 78, 60
1, 1301766, Note_on_c, 0, 80, 83
1, 1301820, Control_c, 0, 64, 40
1, 1301835, Control_c, 0, 64, 52
1, 1301842, Note_off_c, 0, 80, 51
1, 1301850, Control_c, 0, 64, 63
1, 1301857, Note_on_c, 0, 78, 77
1, 1301865, Control_c, 0, 64, 71
1, 1301874, Note_on_c, 0, 72, 63
1, 1301880, Control_c, 0, 64, 83
1, 1301894, Control_c, 0, 64, 103
1, 1301905, Note_off_c, 0, 72, 60
1, 1301909, Control_c, 0, 64, 127
1, 1301910, Note_off_c, 0, 78, 61
1, 1301932, Note_on_c, 0, 80, 87
1, 1301970, Control_c, 0, 67, 112
1, 1301984, Control_c, 0, 67, 75
1, 1301999, Control_c, 0, 67, 39
1, 1302003, Note_off_c, 0, 80, 56
1, 1302014, Control_c, 0, 67, 0
1, 1302016, Note_on_c, 0, 78, 79
1, 1302024, Note_on_c, 0, 72, 62
1, 1302045, Note_on_c, 0, 64, 67
1, 1302055, Note_off_c, 0, 72, 59
1, 1302060, Note_off_c, 0, 63, 38
1, 1302081, Note_off_c, 0, 78, 0
1, 1302089, Note_off_c, 0, 56, 58
1, 1302097, Note_on_c, 0, 80, 88
1, 1302099, Note_off_c, 0, 64, 62
1, 1302117, Poly_aftertouch_c, 0, 78, 0
1, 1302141, Note_off_c, 0, 80, 62
1, 1302188, Note_on_c, 0, 80, 88
1, 1302195, Note_on_c, 0, 77, 78
1, 1302203, Note_on_c, 0, 61, 67
1, 1302206, Note_on_c, 0, 73, 61
1, 1302209, Note_off_c, 0, 77, 71
1, 1302218, Note_off_c, 0, 80, 56
1, 1302218, Note_on_c, 0, 65, 43
1, 1302224, Note_off_c, 0, 73, 65
1, 1302237, Note_off_c, 0, 61, 66
1, 1302243, Control_c, 0, 64, 100
1, 1302254, Note_off_c, 0, 65, 55
1, 1302258, Control_c, 0, 64, 66
1, 1302273, Control_c, 0, 64, 0
1, 1302415, Note_on_c, 0, 49, 53
1, 1302439, Note_off_c, 0, 49, 58
1, 1302590, Note_on_c, 0, 49, 55
1, 1302618, Note_off_c, 0, 49, 63
1, 1302772, Note_on_c, 0, 61, 66
1, 1302774, Note_on_c, 0, 65, 64
1, 1302778, Control_c, 0, 67, 41
1, 1302793, Control_c, 0, 67, 56
1, 1302796, Note_off_c, 0, 65, 65
1, 1302799, Note_off_c, 0, 61, 64
1, 1302807, Control_c, 0, 67, 82
1, 1302822, Control_c, 0, 67, 112
1, 1302837, Control_c, 0, 67, 127
1, 1302960, Note_on_c, 0, 49, 57
1, 1302990, Note_off_c, 0, 49, 60
1, 1303143, Note_on_c, 0, 49, 49
1, 1303181, Note_off_c, 0, 49, 63
1, 1303232, Note_on_c, 0, 73, 45
1, 1303264, Note_on_c, 0, 77, 59
1, 1303274, Note_off_c, 0, 73, 61
1, 1303312, Note_off_c, 0, 77, 63
1, 1303320, Note_on_c, 0, 80, 66
1, 1303321, Note_on_c, 0, 61, 48
1, 1303330, Note_on_c, 0, 65, 36
1, 1303342, Note_off_c, 0, 80, 70
1, 1303344, Note_off_c, 0, 61, 59
1, 1303360, Note_off_c, 0, 65, 53
1, 1303518, Note_on_c, 0, 49, 46
1, 1303549, Note_off_c, 0, 49, 52
1, 1303582, Note_on_c, 0, 77, 53
1, 1303601, Note_off_c, 0, 77, 63
1, 1303655, Note_on_c, 0, 75, 56
1, 1303664, Note_on_c, 0, 49, 51
1, 1303676, Note_off_c, 0, 75, 57
1, 1303688, Note_off_c, 0, 49, 59
1, 1303718, Note_on_c, 0, 73, 68
1, 1303753, Note_off_c, 0, 73, 66
1, 1303780, Note_on_c, 0, 72, 75
1, 1303818, Note_off_c, 0, 72, 59
1, 1303823, Note_on_c, 0, 68, 69
1, 1303828, Note_on_c, 0, 61, 59
1, 1303831, Note_on_c, 0, 66, 56
1, 1303831, Note_on_c, 0, 75, 67
1, 1303840, Note_off_c, 0, 68, 68
1, 1303849, Note_off_c, 0, 61, 64
1, 1303855, Note_off_c, 0, 66, 38
1, 1303857, Note_off_c, 0, 75, 67
1, 1304008, Note_on_c, 0, 73, 50
1, 1304021, Note_on_c, 0, 49, 66
1, 1304029, Note_off_c, 0, 73, 61
1, 1304050, Note_off_c, 0, 49, 65
1, 1304059, Note_on_c, 0, 72, 68
1, 1304084, Note_off_c, 0, 72, 67
1, 1304145, Note_on_c, 0, 70, 63
1, 1304165, Note_on_c, 0, 49, 62
1, 1304171, Note_off_c, 0, 70, 69
1, 1304202, Note_off_c, 0, 49, 64
1, 1304221, Note_on_c, 0, 68, 62
1, 1304230, Control_c, 0, 67, 120
1, 1304245, Control_c, 0, 67, 72
1, 1304258, Note_off_c, 0, 68, 59
1, 1304260, Control_c, 0, 67, 0
1, 1304261, Note_on_c, 0, 73, 73
1, 1304313, Note_on_c, 0, 61, 70
1, 1304314, Note_on_c, 0, 65, 74
1, 1304321, Note_off_c, 0, 73, 64
1, 1304322, Note_on_c, 0, 77, 70
1, 1304324, Note_on_c, 0, 80, 87
1, 1304336, Note_off_c, 0, 65, 69
1, 1304336, Note_off_c, 0, 61, 67
1, 1304343, Note_off_c, 0, 77, 69
1, 1304352, Note_off_c, 0, 80, 66
1, 1304507, Note_on_c, 0, 78, 76
1, 1304518, Note_on_c, 0, 49, 68
1, 1304548, Note_off_c, 0, 49, 64
1, 1304551, Note_off_c, 0, 78, 0
1, 1304579, Note_on_c, 0, 77, 80
1, 1304588, Poly_aftertouch_c, 0, 78, 127
1, 1304609, Poly_aftertouch_c, 0, 78, 0
1, 1304612, Note_off_c, 0, 77, 64
1, 1304652, Note_on_c, 0, 75, 87
1, 1304668, Note_on_c, 0, 49, 67
1, 1304693, Note_off_c, 0, 75, 65
1, 1304704, Note_off_c, 0, 49, 67
1, 1304732, Note_on_c, 0, 73, 81
1, 1304759, Note_off_c, 0, 73, 63
1, 1304808, Note_on_c, 0, 85, 91
1, 1304812, Note_on_c, 0, 82, 86
1, 1304815, Note_on_c, 0, 61, 78
1, 1304817, Note_on_c, 0, 66, 77
1, 1304819, Note_on_c, 0, 78, 76
1, 1304833, Note_off_c, 0, 66, 69
1, 1304838, Note_off_c, 0, 61, 68
1, 1304839, Note_off_c, 0, 78, 66
1, 1304845, Control_c, 0, 64, 57
1, 1304847, Note_off_c, 0, 82, 64
1, 1304850, Note_off_c, 0, 85, 63
1, 1304860, Control_c, 0, 64, 80
1, 1304875, Control_c, 0, 64, 127
1, 1305019, Note_on_c, 0, 49, 68
1, 1305021, Note_on_c, 0, 82, 59
1, 1305021, Note_on_c, 0, 85, 57
1, 1305048, Note_off_c, 0, 49, 65
1, 1305052, Note_off_c, 0, 82, 65
1, 1305056, Note_off_c, 0, 85, 64
1, 1305193, Note_on_c, 0, 49, 58
1, 1305202, Note_on_c, 0, 85, 63
1, 1305220, Note_on_c, 0, 82, 45
1, 1305237, Note_off_c, 0, 49, 60
1, 1305239, Note_off_c, 0, 85, 66
1, 1305254, Note_off_c, 0, 82, 52
1, 1305380, Note_on_c, 0, 66, 81
1, 1305381, Note_on_c, 0, 61, 72
1, 1305384, Note_on_c, 0, 58, 74
1, 1305402, Note_off_c, 0, 66, 70
1, 1305406, Note_off_c, 0, 61, 68
1, 1305409, Note_off_c, 0, 58, 66
1, 1305431, Control_c, 0, 64, 78
1, 1305446, Control_c, 0, 64, 47
1, 1305461, Control_c, 0, 64, 0
1, 1305597, Note_on_c, 0, 49, 43
1, 1305632, Note_off_c, 0, 49, 52
1, 1305654, Control_c, 0, 67, 42
1, 1305668, Control_c, 0, 67, 55
1, 1305683, Control_c, 0, 67, 54
1, 1305698, Control_c, 0, 67, 55
1, 1305713, Control_c, 0, 67, 58
1, 1305727, Control_c, 0, 67, 63
1, 1305742, Control_c, 0, 67, 78
1, 1305743, Note_on_c, 0, 49, 53
1, 1305757, Control_c, 0, 67, 96
1, 1305772, Control_c, 0, 67, 109
1, 1305786, Control_c, 0, 67, 111
1, 1305788, Note_off_c, 0, 49, 62
1, 1305816, Control_c, 0, 67, 115
1, 1305831, Control_c, 0, 67, 122
1, 1305846, Control_c, 0, 67, 127
1, 1305916, Note_on_c, 0, 66, 69
1, 1305917, Note_on_c, 0, 58, 59
1, 1305923, Note_on_c, 0, 61, 51
1, 1305944, Note_off_c, 0, 66, 67
1, 1305947, Note_off_c, 0, 58, 65
1, 1305948, Note_off_c, 0, 61, 57
1, 1306114, Note_on_c, 0, 49, 43
1, 1306147, Note_off_c, 0, 49, 55
1, 1306275, Note_on_c, 0, 49, 44
1, 1306332, Note_off_c, 0, 49, 54
1, 1306388, Control_c, 0, 64, 31
1, 1306402, Control_c, 0, 64, 39
1, 1306417, Control_c, 0, 64, 49
1, 1306432, Control_c, 0, 64, 58
1, 1306447, Control_c, 0, 64, 63
1, 1306462, Control_c, 0, 64, 66
1, 1306477, Control_c, 0, 64, 69
1, 1306479, Note_on_c, 0, 61, 40
1, 1306480, Note_on_c, 0, 65, 47
1, 1306484, Note_on_c, 0, 56, 33
1, 1306491, Control_c, 0, 64, 74
1, 1306506, Control_c, 0, 64, 81
1, 1306521, Control_c, 0, 64, 90
1, 1306535, Control_c, 0, 64, 100
1, 1306545, Note_off_c, 0, 61, 46
1, 1306550, Control_c, 0, 64, 116
1, 1306565, Control_c, 0, 64, 127
1, 1306645, Note_on_c, 0, 68, 56
1, 1306682, Note_off_c, 0, 65, 57
1, 1306683, Note_on_c, 0, 66, 69
1, 1306711, Note_on_c, 0, 49, 38
1, 1306752, Note_off_c, 0, 68, 46
1, 1306753, Note_off_c, 0, 49, 53
1, 1306807, Note_off_c, 0, 56, 40
1, 1306850, Note_on_c, 0, 49, 55
1, 1306856, Note_on_c, 0, 65, 63
1, 1306860, Note_off_c, 0, 66, 62
1, 1306900, Control_c, 0, 64, 121
1, 1306903, Note_off_c, 0, 49, 57
1, 1306914, Control_c, 0, 64, 77
1, 1306929, Control_c, 0, 64, 61
1, 1306944, Control_c, 0, 64, 40
1, 1306958, Control_c, 0, 64, 0
1, 1307031, Note_on_c, 0, 63, 61
1, 1307032, Note_on_c, 0, 58, 64
1, 1307062, Note_off_c, 0, 58, 65
1, 1307065, Note_off_c, 0, 65, 37
1, 1307077, Note_on_c, 0, 54, 7
1, 1307109, Note_off_c, 0, 54, 28
1, 1307187, Note_off_c, 0, 63, 61
1, 1307225, Note_on_c, 0, 65, 51
1, 1307226, Note_on_c, 0, 42, 53
1, 1307255, Note_off_c, 0, 42, 55
1, 1307266, Note_off_c, 0, 65, 58
1, 1307300, Note_on_c, 0, 66, 66
1, 1307333, Note_off_c, 0, 66, 64
1, 1307384, Note_on_c, 0, 42, 60
1, 1307385, Note_on_c, 0, 68, 71
1, 1307411, Note_off_c, 0, 68, 66
1, 1307414, Note_off_c, 0, 42, 63
1, 1307490, Note_on_c, 0, 70, 61
1, 1307555, Note_on_c, 0, 63, 68
1, 1307557, Note_on_c, 0, 66, 75
1, 1307566, Note_on_c, 0, 72, 64
1, 1307573, Note_off_c, 0, 63, 65
1, 1307576, Note_off_c, 0, 66, 66
1, 1307577, Note_off_c, 0, 70, 65
1, 1307720, Note_off_c, 0, 72, 59
1, 1307751, Note_on_c, 0, 70, 61
1, 1307752, Note_on_c, 0, 56, 64
1, 1307772, Note_off_c, 0, 56, 63
1, 1307778, Note_off_c, 0, 70, 68
1, 1307825, Note_on_c, 0, 72, 67
1, 1307855, Note_off_c, 0, 72, 62
1, 1307901, Note_on_c, 0, 73, 63
1, 1307918, Note_on_c, 0, 56, 59
1, 1307931, Note_off_c, 0, 73, 64
1, 1307948, Note_off_c, 0, 56, 64
1, 1307984, Note_on_c, 0, 75, 71
1, 1308012, Note_off_c, 0, 75, 64
1, 1308066, Note_on_c, 0, 77, 77
1, 1308067, Note_on_c, 0, 65, 61
1, 1308068, Note_on_c, 0, 61, 59
1, 1308087, Note_off_c, 0, 77, 69
1, 1308095, Note_off_c, 0, 65, 65
1, 1308097, Note_off_c, 0, 61, 65
1, 1308264, Note_on_c, 0, 77, 64
1, 1308270, Note_on_c, 0, 49, 53
1, 1308281, Note_off_c, 0, 77, 65
1, 1308297, Note_off_c, 0, 49, 57
1, 1308441, Note_on_c, 0, 49, 57
1, 1308448, Note_on_c, 0, 77, 61
1, 1308466, Note_off_c, 0, 77, 64
1, 1308471, Note_off_c, 0, 49, 63
1, 1308616, Note_on_c, 0, 65, 66
1, 1308619, Note_on_c, 0, 61, 55
1, 1308642, Note_off_c, 0, 61, 61
1, 1308643, Note_off_c, 0, 65, 67
1, 1308818, Note_on_c, 0, 49, 45
1, 1308851, Note_off_c, 0, 49, 55
1, 1308988, Note_on_c, 0, 49, 60
1, 1309020, Note_off_c, 0, 49, 64
1, 1309170, Note_on_c, 0, 65, 56
1, 1309171, Note_on_c, 0, 61, 53
1, 1309189, Note_off_c, 0, 65, 62
1, 1309193, Note_off_c, 0, 61, 59
1, 1309344, Note_on_c, 0, 49, 56
1, 1309369, Note_off_c, 0, 49, 61
1, 1309511, Note_on_c, 0, 49, 64
1, 1309544, Note_off_c, 0, 49, 64
1, 1309591, Note_on_c, 0, 73, 63
1, 1309632, Note_on_c, 0, 77, 64
1, 1309636, Note_off_c, 0, 73, 58
1, 1309675, Note_off_c, 0, 77, 67
1, 1309679, Note_on_c, 0, 80, 69
1, 1309687, Note_on_c, 0, 61, 53
1, 1309687, Note_on_c, 0, 65, 56
1, 1309700, Note_off_c, 0, 80, 71
1, 1309707, Note_off_c, 0, 65, 61
1, 1309709, Note_off_c, 0, 61, 62
1, 1309886, Note_on_c, 0, 78, 56
1, 1309902, Note_on_c, 0, 49, 36
1, 1309909, Note_off_c, 0, 78, 63
1, 1309936, Note_off_c, 0, 49, 50
1, 1309956, Note_on_c, 0, 77, 64
1, 1309985, Note_off_c, 0, 77, 62
1, 1310025, Note_on_c, 0, 49, 52
1, 1310035, Note_on_c, 0, 75, 65
1, 1310060, Note_off_c, 0, 49, 63
1, 1310064, Note_off_c, 0, 75, 63
1, 1310104, Note_on_c, 0, 73, 59
1, 1310133, Note_off_c, 0, 73, 66
1, 1310146, Note_on_c, 0, 72, 75
1, 1310176, Note_on_c, 0, 68, 73
1, 1310182, Note_on_c, 0, 61, 63
1, 1310182, Note_off_c, 0, 72, 60
1, 1310189, Note_on_c, 0, 66, 52
1, 1310196, Note_on_c, 0, 75, 72
1, 1310198, Note_off_c, 0, 68, 71
1, 1310210, Note_off_c, 0, 61, 66
1, 1310213, Note_off_c, 0, 66, 38
1, 1310218, Note_off_c, 0, 75, 70
1, 1310323, Control_c, 0, 67, 98
1, 1310338, Control_c, 0, 67, 68
1, 1310353, Control_c, 0, 67, 37
1, 1310368, Control_c, 0, 67, 0
1, 1310370, Note_on_c, 0, 73, 60
1, 1310374, Note_on_c, 0, 49, 58
1, 1310389, Note_off_c, 0, 73, 65
1, 1310401, Note_off_c, 0, 49, 58
1, 1310427, Note_on_c, 0, 72, 65
1, 1310454, Note_off_c, 0, 72, 65
1, 1310511, Note_on_c, 0, 70, 50
1, 1310522, Note_on_c, 0, 49, 63
1, 1310534, Note_off_c, 0, 70, 60
1, 1310555, Note_off_c, 0, 49, 64
1, 1310591, Note_on_c, 0, 68, 53
1, 1310621, Note_on_c, 0, 73, 71
1, 1310631, Note_off_c, 0, 68, 60
1, 1310663, Note_on_c, 0, 61, 79
1, 1310664, Note_on_c, 0, 65, 72
1, 1310676, Note_on_c, 0, 77, 75
1, 1310685, Note_off_c, 0, 61, 70
1, 1310687, Note_off_c, 0, 65, 70
1, 1310690, Note_on_c, 0, 80, 86
1, 1310690, Note_off_c, 0, 73, 64
1, 1310702, Note_off_c, 0, 77, 67
1, 1310712, Note_off_c, 0, 80, 67
1, 1310860, Note_on_c, 0, 78, 79
1, 1310874, Note_on_c, 0, 49, 61
1, 1310898, Note_off_c, 0, 49, 63
1, 1310942, Note_on_c, 0, 77, 72
1, 1310949, Note_off_c, 0, 78, 63
1, 1310982, Note_off_c, 0, 77, 65
1, 1311012, Note_on_c, 0, 75, 66
1, 1311018, Note_on_c, 0, 49, 69
1, 1311030, Note_off_c, 0, 75, 41
1, 1311043, Note_on_c, 0, 76, 43
1, 1311052, Note_off_c, 0, 49, 65
1, 1311070, Note_on_c, 0, 73, 74
1, 1311071, Note_off_c, 0, 76, 37
1, 1311097, Note_off_c, 0, 73, 63
1, 1311152, Note_on_c, 0, 81, 77
1, 1311158, Note_on_c, 0, 66, 83
1, 1311160, Note_on_c, 0, 61, 79
1, 1311161, Note_on_c, 0, 85, 76
1, 1311175, Note_on_c, 0, 78, 48
1, 1311176, Control_c, 0, 64, 66
1, 1311182, Note_off_c, 0, 66, 68
1, 1311184, Note_off_c, 0, 61, 70
1, 1311186, Note_off_c, 0, 85, 63
1, 1311191, Control_c, 0, 64, 127
1, 1311192, Note_off_c, 0, 81, 66
1, 1311200, Note_off_c, 0, 78, 57
1, 1311375, Note_on_c, 0, 85, 74
1, 1311378, Note_on_c, 0, 49, 66
1, 1311380, Note_on_c, 0, 81, 68
1, 1311381, Note_on_c, 0, 78, 69
1, 1311406, Note_off_c, 0, 78, 67
1, 1311408, Note_off_c, 0, 49, 65
1, 1311411, Note_off_c, 0, 81, 61
1, 1311426, Note_off_c, 0, 85, 64
1, 1311545, Note_on_c, 0, 49, 60
1, 1311563, Note_on_c, 0, 85, 77
1, 1311569, Note_on_c, 0, 78, 64
1, 1311587, Note_on_c, 0, 81, 32
1, 1311587, Note_off_c, 0, 49, 60
1, 1311593, Note_off_c, 0, 78, 63
1, 1311609, Note_off_c, 0, 85, 64
1, 1311621, Note_off_c, 0, 81, 54
1, 1311725, Note_on_c, 0, 66, 85
1, 1311730, Note_on_c, 0, 61, 77
1, 1311743, Note_on_c, 0, 57, 61
1, 1311746, Note_off_c, 0, 66, 72
1, 1311751, Note_off_c, 0, 61, 69
1, 1311772, Note_off_c, 0, 57, 65
1, 1311777, Control_c, 0, 64, 80
1, 1311792, Control_c, 0, 64, 53
1, 1311807, Control_c, 0, 64, 0
1, 1311926, Note_on_c, 0, 54, 65
1, 1311951, Note_off_c, 0, 54, 66
1, 1312111, Note_on_c, 0, 54, 63
1, 1312125, Control_c, 0, 67, 52
1, 1312140, Control_c, 0, 67, 68
1, 1312145, Note_off_c, 0, 54, 61
1, 1312154, Control_c, 0, 67, 74
1, 1312169, Control_c, 0, 67, 78
1, 1312184, Control_c, 0, 67, 83
1, 1312199, Control_c, 0, 67, 94
1, 1312214, Control_c, 0, 67, 110
1, 1312228, Control_c, 0, 67, 126
1, 1312282, Note_on_c, 0, 66, 71
1, 1312282, Note_on_c, 0, 61, 59
1, 1312286, Note_on_c, 0, 57, 56
1, 1312304, Note_off_c, 0, 61, 64
1, 1312308, Note_off_c, 0, 66, 68
1, 1312316, Note_off_c, 0, 57, 65
1, 1312472, Note_on_c, 0, 54, 57
1, 1312499, Note_off_c, 0, 54, 65
1, 1312653, Note_on_c, 0, 54, 51
1, 1312718, Note_off_c, 0, 54, 49
1, 1312824, Note_on_c, 0, 73, 57
1, 1312841, Note_on_c, 0, 66, 47
1, 1312863, Note_on_c, 0, 61, 34
1, 1312874, Control_c, 0, 64, 37
1, 1312878, Note_on_c, 0, 57, 29
1, 1312888, Control_c, 0, 64, 51
1, 1312903, Control_c, 0, 64, 61
1, 1312914, Note_off_c, 0, 66, 45
1, 1312918, Control_c, 0, 64, 65
1, 1312933, Control_c, 0, 64, 68
1, 1312948, Control_c, 0, 64, 73
1, 1312963, Control_c, 0, 64, 81
1, 1312977, Control_c, 0, 64, 90
1, 1312992, Control_c, 0, 64, 98
1, 1312998, Note_on_c, 0, 76, 61
1, 1313004, Note_off_c, 0, 73, 60
1, 1313007, Control_c, 0, 64, 105
1, 1313022, Control_c, 0, 64, 109
1, 1313024, Note_on_c, 0, 74, 68
1, 1313030, Note_off_c, 0, 57, 0
1, 1313036, Note_on_c, 0, 54, 54
1, 1313037, Control_c, 0, 64, 112
1, 1313066, Poly_aftertouch_c, 0, 57, 127
1, 1313066, Control_c, 0, 64, 114
1, 1313081, Note_off_c, 0, 54, 54
1, 1313118, Poly_aftertouch_c, 0, 57, 0
1, 1313130, Note_off_c, 0, 61, 39
1, 1313145, Note_off_c, 0, 76, 54
1, 1313171, Control_c, 0, 64, 116
1, 1313176, Note_off_c, 0, 74, 57
1, 1313188, Note_on_c, 0, 73, 66
1, 1313192, Note_on_c, 0, 54, 51
1, 1313200, Control_c, 0, 64, 118
1, 1313227, Note_off_c, 0, 54, 63
1, 1313230, Control_c, 0, 64, 105
1, 1313245, Control_c, 0, 64, 77
1, 1313260, Control_c, 0, 64, 59
1, 1313274, Control_c, 0, 64, 38
1, 1313289, Control_c, 0, 64, 0
1, 1313363, Note_on_c, 0, 66, 65
1, 1313364, Note_on_c, 0, 62, 58
1, 1313364, Note_on_c, 0, 71, 67
1, 1313371, Note_off_c, 0, 73, 55
1, 1313388, Note_off_c, 0, 66, 66
1, 1313389, Note_off_c, 0, 62, 64
1, 1313531, Note_off_c, 0, 71, 57
1, 1313553, Note_on_c, 0, 73, 63
1, 1313566, Note_on_c, 0, 50, 53
1, 1313602, Note_off_c, 0, 50, 64
1, 1313621, Note_off_c, 0, 73, 62
1, 1313653, Note_on_c, 0, 74, 70
1, 1313721, Note_on_c, 0, 50, 48
1, 1313721, Note_off_c, 0, 74, 55
1, 1313722, Note_on_c, 0, 76, 66
1, 1313751, Note_off_c, 0, 50, 63
1, 1313760, Note_off_c, 0, 76, 59
1, 1313805, Note_on_c, 0, 78, 67
1, 1313845, Note_off_c, 0, 78, 60
1, 1313888, Note_on_c, 0, 62, 47
1, 1313894, Note_on_c, 0, 64, 56
1, 1313895, Note_on_c, 0, 80, 67
1, 1313914, Note_off_c, 0, 62, 57
1, 1313918, Note_off_c, 0, 64, 63
1, 1314038, Note_off_c, 0, 80, 59
1, 1314063, Note_on_c, 0, 78, 72
1, 1314073, Note_on_c, 0, 52, 51
1, 1314103, Note_off_c, 0, 52, 64
1, 1314133, Note_off_c, 0, 78, 49
1, 1314148, Note_on_c, 0, 80, 73
1, 1314189, Note_off_c, 0, 80, 61
1, 1314235, Note_on_c, 0, 81, 72
1, 1314242, Note_on_c, 0, 52, 53
1, 1314267, Note_off_c, 0, 81, 62
1, 1314267, Note_off_c, 0, 52, 60
1, 1314310, Note_on_c, 0, 83, 73
1, 1314343, Note_off_c, 0, 83, 63
1, 1314385, Note_on_c, 0, 85, 90
1, 1314396, Note_on_c, 0, 61, 56
1, 1314402, Note_on_c, 0, 64, 52
1, 1314404, Note_off_c, 0, 85, 69
1, 1314417, Note_off_c, 0, 61, 65
1, 1314424, Note_off_c, 0, 64, 62
1, 1314587, Note_on_c, 0, 57, 52
1, 1314590, Note_on_c, 0, 85, 65
1, 1314615, Note_off_c, 0, 85, 66
1, 1314618, Note_off_c, 0, 57, 64
1, 1314758, Note_on_c, 0, 85, 75
1, 1314760, Note_on_c, 0, 57, 64
1, 1314777, Note_off_c, 0, 85, 72
1, 1314790, Note_off_c, 0, 57, 65
1, 1314928, Note_on_c, 0, 61, 72
1, 1314935, Note_on_c, 0, 64, 66
1, 1314955, Note_off_c, 0, 61, 67
1, 1314969, Note_off_c, 0, 64, 66
1, 1315126, Note_on_c, 0, 57, 63
1, 1315156, Note_off_c, 0, 57, 66
1, 1315298, Note_on_c, 0, 57, 49
1, 1315333, Note_off_c, 0, 57, 64
1, 1315472, Note_on_c, 0, 73, 61
1, 1315475, Note_on_c, 0, 61, 62
1, 1315491, Note_on_c, 0, 64, 43
1, 1315494, Note_off_c, 0, 73, 66
1, 1315503, Note_off_c, 0, 61, 66
1, 1315519, Note_off_c, 0, 64, 56
1, 1315654, Note_on_c, 0, 73, 66
1, 1315662, Note_on_c, 0, 57, 49
1, 1315680, Note_off_c, 0, 73, 67
1, 1315696, Note_off_c, 0, 57, 58
1, 1315830, Note_on_c, 0, 57, 52
1, 1315838, Note_on_c, 0, 73, 74
1, 1315863, Note_off_c, 0, 73, 66
1, 1315874, Note_off_c, 0, 57, 56
1, 1316003, Note_on_c, 0, 73, 74
1, 1316022, Note_on_c, 0, 64, 56
1, 1316025, Note_on_c, 0, 61, 41
1, 1316033, Control_c, 0, 64, 38
1, 1316047, Control_c, 0, 64, 50
1, 1316050, Note_off_c, 0, 64, 63
1, 1316053, Note_off_c, 0, 61, 53
1, 1316061, Control_c, 0, 64, 57
1, 1316076, Control_c, 0, 64, 59
1, 1316106, Control_c, 0, 64, 59
1, 1316121, Control_c, 0, 64, 60
1, 1316136, Control_c, 0, 64, 60
1, 1316151, Control_c, 0, 64, 61
1, 1316166, Control_c, 0, 64, 61
1, 1316166, Control_c, 0, 67, 110
1, 1316172, Note_off_c, 0, 73, 60
1, 1316181, Control_c, 0, 64, 52
1, 1316181, Control_c, 0, 67, 78
1, 1316185, Note_on_c, 0, 76, 66
1, 1316190, Note_on_c, 0, 58, 63
1, 1316195, Control_c, 0, 64, 0
1, 1316195, Control_c, 0, 67, 45
1, 1316210, Control_c, 0, 67, 0
1, 1316222, Note_off_c, 0, 58, 63
1, 1316275, Note_on_c, 0, 74, 75
1, 1316285, Note_off_c, 0, 76, 60
1, 1316342, Note_off_c, 0, 74, 60
1, 1316345, Note_on_c, 0, 58, 67
1, 1316348, Note_on_c, 0, 73, 81
1, 1316379, Note_off_c, 0, 58, 65
1, 1316410, Note_off_c, 0, 73, 61
1, 1316439, Note_on_c, 0, 76, 73
1, 1316514, Note_on_c, 0, 62, 57
1, 1316517, Note_off_c, 0, 76, 66
1, 1316519, Note_on_c, 0, 74, 71
1, 1316535, Note_off_c, 0, 74, 66
1, 1316536, Note_on_c, 0, 64, 33
1, 1316536, Note_off_c, 0, 62, 61
1, 1316571, Note_off_c, 0, 64, 54
1, 1316589, Control_c, 0, 67, 60
1, 1316604, Control_c, 0, 67, 72
1, 1316618, Control_c, 0, 67, 69
1, 1316633, Control_c, 0, 67, 71
1, 1316648, Control_c, 0, 67, 75
1, 1316662, Control_c, 0, 67, 86
1, 1316677, Control_c, 0, 67, 113
1, 1316692, Control_c, 0, 67, 127
1, 1316701, Note_on_c, 0, 74, 61
1, 1316720, Note_off_c, 0, 74, 62
1, 1316723, Note_on_c, 0, 59, 28
1, 1316765, Note_off_c, 0, 59, 29
1, 1316861, Note_on_c, 0, 59, 53
1, 1316863, Note_on_c, 0, 74, 57
1, 1316896, Note_off_c, 0, 59, 63
1, 1317044, Note_off_c, 0, 74, 62
1, 1317054, Note_on_c, 0, 64, 53
1, 1317065, Note_on_c, 0, 86, 56
1, 1317089, Note_off_c, 0, 64, 62
1, 1317095, Note_off_c, 0, 86, 67
1, 1317242, Note_on_c, 0, 59, 49
1, 1317245, Note_on_c, 0, 86, 65
1, 1317262, Note_off_c, 0, 86, 67
1, 1317269, Note_off_c, 0, 59, 58
1, 1317401, Note_on_c, 0, 59, 54
1, 1317412, Note_on_c, 0, 86, 51
1, 1317439, Note_off_c, 0, 59, 63
1, 1317444, Note_off_c, 0, 86, 66
1, 1317582, Note_on_c, 0, 62, 56
1, 1317584, Note_on_c, 0, 64, 62
1, 1317607, Note_off_c, 0, 62, 60
1, 1317617, Note_off_c, 0, 64, 64
1, 1317765, Note_on_c, 0, 59, 59
1, 1317787, Note_off_c, 0, 59, 63
1, 1317917, Note_on_c, 0, 59, 62
1, 1317964, Note_off_c, 0, 59, 64
1, 1318106, Note_on_c, 0, 62, 57
1, 1318109, Note_on_c, 0, 74, 63
1, 1318125, Note_on_c, 0, 64, 34
1, 1318127, Note_off_c, 0, 62, 62
1, 1318127, Note_off_c, 0, 74, 64
1, 1318158, Note_off_c, 0, 64, 53
1, 1318281, Note_on_c, 0, 74, 64
1, 1318295, Note_on_c, 0, 59, 34
1, 1318311, Note_off_c, 0, 74, 65
1, 1318330, Note_off_c, 0, 59, 52
1, 1318446, Note_on_c, 0, 59, 52
1, 1318451, Note_on_c, 0, 74, 62
1, 1318479, Note_off_c, 0, 74, 66
1, 1318486, Note_off_c, 0, 59, 61
1, 1318630, Note_on_c, 0, 74, 52
1, 1318648, Note_on_c, 0, 62, 30
1, 1318649, Note_on_c, 0, 65, 31
1, 1318687, Note_off_c, 0, 62, 53
1, 1318696, Note_off_c, 0, 65, 45
1, 1318798, Note_off_c, 0, 74, 54
1, 1318826, Note_on_c, 0, 77, 59
1, 1318833, Note_on_c, 0, 59, 45
1, 1318862, Note_off_c, 0, 59, 57
1, 1318869, Note_off_c, 0, 77, 58
1, 1318917, Note_on_c, 0, 76, 46
1, 1318954, Note_off_c, 0, 76, 61
1, 1318971, Note_on_c, 0, 59, 49
1, 1318989, Note_on_c, 0, 74, 50
1, 1319014, Note_off_c, 0, 59, 61
1, 1319017, Note_off_c, 0, 74, 59
1, 1319065, Note_on_c, 0, 77, 57
1, 1319096, Note_off_c, 0, 77, 66
1, 1319126, Note_on_c, 0, 74, 68
1, 1319142, Note_on_c, 0, 62, 53
1, 1319151, Note_off_c, 0, 74, 68
1, 1319166, Note_off_c, 0, 62, 59
1, 1319170, Note_on_c, 0, 65, 10
1, 1319215, Note_off_c, 0, 65, 28
1, 1319314, Note_on_c, 0, 59, 63
1, 1319316, Note_on_c, 0, 74, 72
1, 1319336, Note_off_c, 0, 59, 65
1, 1319338, Note_off_c, 0, 74, 70
1, 1319476, Note_on_c, 0, 59, 57
1, 1319502, Note_on_c, 0, 74, 63
1, 1319515, Note_off_c, 0, 59, 63
1, 1319638, Note_off_c, 0, 74, 58
1, 1319671, Note_on_c, 0, 62, 34
1, 1319674, Note_on_c, 0, 86, 65
1, 1319684, Note_on_c, 0, 65, 21
1, 1319703, Note_off_c, 0, 86, 65
1, 1319704, Note_off_c, 0, 62, 49
1, 1319722, Note_off_c, 0, 65, 44
1, 1319831, Note_on_c, 0, 59, 59
1, 1319850, Note_on_c, 0, 86, 61
1, 1319859, Note_off_c, 0, 59, 57
1, 1319876, Note_off_c, 0, 86, 66
1, 1320005, Note_on_c, 0, 59, 46
1, 1320007, Note_on_c, 0, 86, 62
1, 1320026, Note_on_c, 0, 62, 32
1, 1320032, Note_off_c, 0, 86, 68
1, 1320033, Note_off_c, 0, 59, 55
1, 1320059, Note_off_c, 0, 62, 52
1, 1320166, Note_on_c, 0, 62, 47
1, 1320180, Note_on_c, 0, 59, 32
1, 1320212, Note_on_c, 0, 74, 48
1, 1320220, Note_off_c, 0, 59, 47
1, 1320220, Note_off_c, 0, 62, 57
1, 1320229, Control_c, 0, 64, 34
1, 1320243, Control_c, 0, 64, 50
1, 1320257, Note_on_c, 0, 65, 45
1, 1320258, Control_c, 0, 64, 59
1, 1320273, Control_c, 0, 64, 63
1, 1320286, Note_off_c, 0, 65, 56
1, 1320287, Control_c, 0, 64, 64
1, 1320317, Control_c, 0, 64, 64
1, 1320324, Note_on_c, 0, 59, 47
1, 1320333, Control_c, 0, 64, 65
1, 1320338, Note_on_c, 0, 62, 40
1, 1320348, Control_c, 0, 64, 65
1, 1320355, Note_off_c, 0, 59, 54
1, 1320363, Control_c, 0, 64, 66
1, 1320368, Note_off_c, 0, 74, 59
1, 1320376, Note_off_c, 0, 62, 52
1, 1320378, Control_c, 0, 64, 67
1, 1320387, Note_on_c, 0, 73, 47
1, 1320392, Control_c, 0, 64, 67
1, 1320401, Note_on_c, 0, 65, 43
1, 1320453, Note_off_c, 0, 65, 53
1, 1320485, Note_on_c, 0, 62, 52
1, 1320489, Note_on_c, 0, 59, 45
1, 1320503, Note_off_c, 0, 73, 55
1, 1320530, Note_on_c, 0, 74, 53
1, 1320548, Note_off_c, 0, 59, 46
1, 1320555, Note_off_c, 0, 62, 44
1, 1320573, Note_on_c, 0, 65, 57
1, 1320639, Note_off_c, 0, 65, 51
1, 1320672, Note_off_c, 0, 74, 59
1, 1320673, Control_c, 0, 64, 66
1, 1320685, Note_on_c, 0, 58, 55
1, 1320686, Note_on_c, 0, 62, 49
1, 1320688, Control_c, 0, 64, 64
1, 1320694, Note_on_c, 0, 86, 51
1, 1320703, Control_c, 0, 64, 61
1, 1320718, Control_c, 0, 64, 59
1, 1320731, Note_off_c, 0, 58, 60
1, 1320732, Control_c, 0, 64, 58
1, 1320735, Note_off_c, 0, 62, 43
1, 1320747, Control_c, 0, 64, 58
1, 1320762, Control_c, 0, 64, 57
1, 1320767, Note_on_c, 0, 65, 57
1, 1320777, Control_c, 0, 64, 57
1, 1320792, Control_c, 0, 64, 56
1, 1320807, Note_off_c, 0, 65, 59
1, 1320855, Note_on_c, 0, 85, 61
1, 1320855, Note_on_c, 0, 58, 56
1, 1320856, Note_on_c, 0, 62, 54
1, 1320863, Note_off_c, 0, 86, 57
1, 1320893, Note_off_c, 0, 58, 60
1, 1320896, Note_off_c, 0, 62, 59
1, 1320932, Note_on_c, 0, 65, 54
1, 1320992, Control_c, 0, 64, 57
1, 1321003, Note_off_c, 0, 65, 51
1, 1321007, Control_c, 0, 64, 57
1, 1321019, Note_on_c, 0, 86, 61
1, 1321022, Note_on_c, 0, 62, 56
1, 1321022, Control_c, 0, 64, 59
1, 1321036, Control_c, 0, 64, 61
1, 1321042, Note_on_c, 0, 58, 35
1, 1321045, Note_off_c, 0, 85, 58
1, 1321051, Control_c, 0, 64, 62
1, 1321066, Note_off_c, 0, 62, 57
1, 1321066, Note_off_c, 0, 86, 62
1, 1321066, Control_c, 0, 64, 64
1, 1321073, Note_off_c, 0, 58, 46
1, 1321081, Control_c, 0, 64, 65
1, 1321096, Control_c, 0, 64, 66
1, 1321110, Control_c, 0, 64, 66
1, 1321125, Control_c, 0, 64, 67
1, 1321130, Note_on_c, 0, 65, 37
1, 1321158, Note_off_c, 0, 65, 55
1, 1321171, Control_c, 0, 64, 66
1, 1321183, Note_on_c, 0, 62, 64
1, 1321186, Control_c, 0, 64, 62
1, 1321190, Note_on_c, 0, 58, 51
1, 1321200, Note_on_c, 0, 82, 65
1, 1321200, Control_c, 0, 64, 51
1, 1321215, Control_c, 0, 64, 41
1, 1321230, Note_off_c, 0, 62, 52
1, 1321230, Control_c, 0, 64, 41
1, 1321233, Note_off_c, 0, 58, 61
1, 1321245, Control_c, 0, 64, 46
1, 1321260, Control_c, 0, 64, 55
1, 1321275, Control_c, 0, 64, 63
1, 1321278, Note_on_c, 0, 65, 48
1, 1321290, Control_c, 0, 64, 69
1, 1321305, Control_c, 0, 64, 76
1, 1321320, Control_c, 0, 64, 82
1, 1321323, Note_off_c, 0, 65, 59
1, 1321334, Control_c, 0, 64, 86
1, 1321334, Control_c, 0, 67, 121
1, 1321349, Control_c, 0, 64, 89
1, 1321349, Control_c, 0, 67, 116
1, 1321361, Note_on_c, 0, 58, 57
1, 1321364, Control_c, 0, 64, 92
1, 1321364, Control_c, 0, 67, 109
1, 1321365, Note_on_c, 0, 62, 49
1, 1321376, Note_off_c, 0, 82, 54
1, 1321379, Control_c, 0, 64, 94
1, 1321379, Control_c, 0, 67, 97
1, 1321381, Note_on_c, 0, 81, 54
1, 1321392, Note_off_c, 0, 58, 61
1, 1321394, Control_c, 0, 64, 95
1, 1321394, Control_c, 0, 67, 85
1, 1321397, Note_off_c, 0, 62, 54
1, 1321408, Control_c, 0, 64, 95
1, 1321408, Control_c, 0, 67, 79
1, 1321423, Control_c, 0, 64, 96
1, 1321423, Control_c, 0, 67, 78
1, 1321435, Note_on_c, 0, 65, 58
1, 1321438, Control_c, 0, 67, 77
1, 1321452, Control_c, 0, 67, 75
1, 1321467, Control_c, 0, 67, 69
1, 1321479, Note_off_c, 0, 65, 55
1, 1321482, Control_c, 0, 67, 66
1, 1321497, Control_c, 0, 67, 65
1, 1321512, Control_c, 0, 67, 64
1, 1321518, Note_on_c, 0, 62, 53
1, 1321523, Note_off_c, 0, 81, 61
1, 1321526, Control_c, 0, 67, 63
1, 1321527, Note_on_c, 0, 58, 47
1, 1321528, Note_on_c, 0, 82, 63
1, 1321541, Control_c, 0, 67, 63
1, 1321561, Note_off_c, 0, 58, 54
1, 1321573, Note_off_c, 0, 62, 56
1, 1321586, Control_c, 0, 67, 61
1, 1321600, Control_c, 0, 67, 58
1, 1321612, Note_on_c, 0, 65, 57
1, 1321615, Control_c, 0, 67, 52
1, 1321630, Control_c, 0, 64, 98
1, 1321630, Control_c, 0, 67, 42
1, 1321645, Control_c, 0, 67, 38
1, 1321660, Control_c, 0, 67, 37
1, 1321668, Note_off_c, 0, 65, 56
1, 1321674, Control_c, 0, 67, 36
1, 1321683, Note_off_c, 0, 82, 54
1, 1321689, Control_c, 0, 64, 81
1, 1321692, Note_on_c, 0, 58, 66
1, 1321692, Note_on_c, 0, 63, 71
1, 1321712, Control_c, 0, 64, 56
1, 1321714, Note_on_c, 0, 79, 61
1, 1321727, Control_c, 0, 64, 0
1, 1321730, Note_off_c, 0, 58, 65
1, 1321730, Note_off_c, 0, 63, 63
1, 1321791, Note_on_c, 0, 67, 60
1, 1321833, Note_off_c, 0, 67, 57
1, 1321847, Note_off_c, 0, 79, 54
1, 1321868, Note_on_c, 0, 63, 64
1, 1321871, Note_on_c, 0, 58, 50
1, 1321874, Control_c, 0, 67, 37
1, 1321877, Note_on_c, 0, 81, 63
1, 1321889, Control_c, 0, 67, 37
1, 1321898, Note_off_c, 0, 58, 60
1, 1321899, Note_off_c, 0, 63, 64
1, 1321929, Note_off_c, 0, 81, 55
1, 1321953, Note_on_c, 0, 67, 64
1, 1321959, Note_on_c, 0, 82, 69
1, 1322020, Note_off_c, 0, 82, 64
1, 1322025, Note_off_c, 0, 67, 60
1, 1322032, Note_on_c, 0, 63, 60
1, 1322035, Note_on_c, 0, 84, 66
1, 1322040, Note_on_c, 0, 58, 47
1, 1322074, Note_off_c, 0, 63, 60
1, 1322078, Note_off_c, 0, 58, 64
1, 1322096, Control_c, 0, 67, 38
1, 1322122, Note_on_c, 0, 86, 75
1, 1322133, Note_on_c, 0, 67, 61
1, 1322133, Note_off_c, 0, 84, 57
1, 1322162, Note_off_c, 0, 67, 65
1, 1322170, Control_c, 0, 67, 37
1, 1322185, Control_c, 0, 64, 27
1, 1322185, Control_c, 0, 67, 33
1, 1322200, Control_c, 0, 64, 48
1, 1322200, Control_c, 0, 67, 0
1, 1322205, Note_on_c, 0, 58, 55
1, 1322205, Note_on_c, 0, 62, 64
1, 1322215, Control_c, 0, 64, 58
1, 1322218, Note_on_c, 0, 82, 66
1, 1322220, Note_off_c, 0, 86, 63
1, 1322229, Control_c, 0, 64, 60
1, 1322237, Note_off_c, 0, 58, 59
1, 1322254, Note_off_c, 0, 62, 58
1, 1322290, Note_on_c, 0, 65, 62
1, 1322318, Control_c, 0, 64, 61
1, 1322323, Note_off_c, 0, 65, 63
1, 1322333, Control_c, 0, 64, 61
1, 1322363, Control_c, 0, 64, 62
1, 1322363, Note_on_c, 0, 58, 61
1, 1322366, Note_on_c, 0, 62, 58
1, 1322372, Note_off_c, 0, 82, 61
1, 1322384, Note_on_c, 0, 84, 66
1, 1322401, Note_off_c, 0, 58, 63
1, 1322405, Note_off_c, 0, 62, 61
1, 1322423, Control_c, 0, 64, 62
1, 1322438, Note_on_c, 0, 65, 61
1, 1322459, Control_c, 0, 64, 63
1, 1322474, Control_c, 0, 64, 63
1, 1322478, Note_on_c, 0, 82, 77
1, 1322488, Control_c, 0, 64, 64
1, 1322503, Control_c, 0, 64, 65
1, 1322508, Note_off_c, 0, 84, 55
1, 1322509, Note_off_c, 0, 65, 52
1, 1322518, Control_c, 0, 64, 66
1, 1322533, Control_c, 0, 64, 68
1, 1322534, Note_on_c, 0, 58, 69
1, 1322537, Note_on_c, 0, 62, 56
1, 1322548, Control_c, 0, 64, 71
1, 1322554, Note_on_c, 0, 81, 73
1, 1322563, Control_c, 0, 64, 73
1, 1322575, Note_off_c, 0, 82, 55
1, 1322578, Control_c, 0, 64, 75
1, 1322590, Note_off_c, 0, 58, 58
1, 1322593, Control_c, 0, 64, 76
1, 1322595, Note_off_c, 0, 62, 58
1, 1322598, Note_off_c, 0, 81, 63
1, 1322607, Control_c, 0, 64, 75
1, 1322622, Control_c, 0, 64, 67
1, 1322636, Note_on_c, 0, 79, 72
1, 1322637, Control_c, 0, 64, 31
1, 1322638, Note_on_c, 0, 65, 67
1, 1322652, Control_c, 0, 64, 0
1, 1322676, Note_off_c, 0, 79, 63
1, 1322680, Note_off_c, 0, 65, 61
1, 1322715, Note_on_c, 0, 77, 70
1, 1322718, Note_on_c, 0, 57, 71
1, 1322722, Note_on_c, 0, 63, 69
1, 1322738, Note_off_c, 0, 77, 71
1, 1322749, Note_off_c, 0, 57, 65
1, 1322758, Note_off_c, 0, 63, 58
1, 1322805, Note_on_c, 0, 65, 64
1, 1322843, Note_off_c, 0, 65, 58
1, 1322887, Note_on_c, 0, 63, 65
1, 1322888, Note_on_c, 0, 57, 49
1, 1322888, Note_on_c, 0, 77, 78
1, 1322911, Note_off_c, 0, 77, 66
1, 1322914, Note_off_c, 0, 57, 54
1, 1322923, Note_off_c, 0, 63, 61
1, 1322969, Note_on_c, 0, 65, 62
1, 1323010, Note_off_c, 0, 65, 57
1, 1323046, Note_on_c, 0, 57, 54
1, 1323052, Note_on_c, 0, 63, 66
1, 1323055, Note_on_c, 0, 77, 74
1, 1323076, Note_off_c, 0, 77, 72
1, 1323082, Note_off_c, 0, 57, 64
1, 1323094, Note_off_c, 0, 63, 58
1, 1323111, Control_c, 0, 64, 29
1, 1323126, Control_c, 0, 64, 57
1, 1323141, Note_on_c, 0, 65, 60
1, 1323141, Control_c, 0, 64, 65
1, 1323156, Control_c, 0, 64, 68
1, 1323171, Control_c, 0, 64, 70
1, 1323184, Note_off_c, 0, 65, 55
1, 1323186, Control_c, 0, 64, 73
1, 1323208, Control_c, 0, 64, 77
1, 1323217, Note_on_c, 0, 57, 64
1, 1323219, Note_on_c, 0, 78, 80
1, 1323221, Note_on_c, 0, 63, 72
1, 1323223, Control_c, 0, 64, 81
1, 1323237, Control_c, 0, 64, 85
1, 1323252, Control_c, 0, 64, 87
1, 1323267, Control_c, 0, 64, 90
1, 1323282, Control_c, 0, 64, 93
1, 1323295, Note_off_c, 0, 57, 61
1, 1323297, Control_c, 0, 64, 95
1, 1323307, Note_off_c, 0, 63, 63
1, 1323311, Control_c, 0, 64, 97
1, 1323326, Note_on_c, 0, 66, 80
1, 1323356, Control_c, 0, 64, 99
1, 1323383, Note_off_c, 0, 78, 58
1, 1323385, Control_c, 0, 64, 94
1, 1323389, Note_on_c, 0, 90, 86
1, 1323389, Note_off_c, 0, 66, 60
1, 1323397, Note_on_c, 0, 57, 77
1, 1323400, Control_c, 0, 64, 73
1, 1323409, Note_on_c, 0, 63, 71
1, 1323415, Control_c, 0, 64, 45
1, 1323419, Note_off_c, 0, 90, 62
1, 1323430, Control_c, 0, 64, 0
1, 1323433, Note_off_c, 0, 57, 60
1, 1323456, Note_off_c, 0, 63, 59
1, 1323484, Note_on_c, 0, 66, 80
1, 1323523, Note_off_c, 0, 66, 55
1, 1323560, Note_on_c, 0, 57, 63
1, 1323564, Note_on_c, 0, 63, 71
1, 1323567, Note_on_c, 0, 90, 74
1, 1323597, Note_off_c, 0, 57, 66
1, 1323598, Note_off_c, 0, 90, 59
1, 1323628, Note_off_c, 0, 63, 62
1, 1323645, Note_on_c, 0, 66, 73
1, 1323683, Note_off_c, 0, 66, 65
1, 1323720, Note_on_c, 0, 91, 89
1, 1323729, Note_on_c, 0, 63, 83
1, 1323735, Note_on_c, 0, 58, 78
1, 1323742, Control_c, 0, 64, 45
1, 1323757, Control_c, 0, 64, 68
1, 1323764, Note_off_c, 0, 58, 68
1, 1323764, Note_off_c, 0, 63, 60
1, 1323772, Control_c, 0, 64, 79
1, 1323787, Control_c, 0, 64, 90
1, 1323801, Control_c, 0, 64, 94
1, 1323816, Control_c, 0, 64, 97
1, 1323818, Note_on_c, 0, 67, 78
1, 1323831, Control_c, 0, 64, 100
1, 1323845, Control_c, 0, 64, 102
1, 1323855, Note_off_c, 0, 91, 61
1, 1323868, Note_off_c, 0, 67, 61
1, 1323890, Control_c, 0, 64, 104
1, 1323894, Note_on_c, 0, 79, 69
1, 1323904, Note_on_c, 0, 58, 67
1, 1323910, Note_on_c, 0, 63, 58
1, 1323925, Note_off_c, 0, 79, 62
1, 1323928, Note_off_c, 0, 58, 64
1, 1323936, Note_off_c, 0, 63, 56
1, 1323976, Note_on_c, 0, 67, 74
1, 1324001, Control_c, 0, 64, 102
1, 1324010, Note_off_c, 0, 67, 59
1, 1324016, Control_c, 0, 64, 92
1, 1324031, Control_c, 0, 64, 79
1, 1324044, Note_on_c, 0, 79, 80
1, 1324046, Note_on_c, 0, 63, 71
1, 1324046, Control_c, 0, 64, 68
1, 1324049, Note_on_c, 0, 58, 74
1, 1324060, Control_c, 0, 64, 55
1, 1324075, Control_c, 0, 64, 37
1, 1324089, Note_off_c, 0, 79, 64
1, 1324090, Control_c, 0, 64, 0
1, 1324093, Note_off_c, 0, 58, 55
1, 1324112, Note_off_c, 0, 63, 62
1, 1324128, Note_on_c, 0, 67, 80
1, 1324183, Note_off_c, 0, 67, 60
1, 1324207, Note_on_c, 0, 81, 83
1, 1324211, Note_on_c, 0, 63, 84
1, 1324215, Note_on_c, 0, 60, 75
1, 1324238, Control_c, 0, 64, 30
1, 1324240, Note_off_c, 0, 81, 65
1, 1324241, Note_off_c, 0, 60, 67
1, 1324253, Control_c, 0, 64, 65
1, 1324259, Note_off_c, 0, 63, 60
1, 1324268, Control_c, 0, 64, 75
1, 1324283, Control_c, 0, 64, 84
1, 1324287, Note_on_c, 0, 67, 78
1, 1324298, Control_c, 0, 64, 86
1, 1324313, Control_c, 0, 64, 87
1, 1324343, Control_c, 0, 64, 87
1, 1324351, Note_off_c, 0, 67, 59
1, 1324357, Control_c, 0, 64, 88
1, 1324372, Control_c, 0, 64, 89
1, 1324375, Note_on_c, 0, 63, 83
1, 1324375, Note_on_c, 0, 94, 84
1, 1324378, Note_on_c, 0, 60, 77
1, 1324393, Note_on_c, 0, 93, 82
1, 1324411, Note_off_c, 0, 60, 59
1, 1324420, Note_off_c, 0, 63, 59
1, 1324423, Note_off_c, 0, 94, 63
1, 1324447, Note_on_c, 0, 67, 84
1, 1324453, Note_on_c, 0, 91, 92
1, 1324458, Note_off_c, 0, 93, 61
1, 1324462, Control_c, 0, 64, 88
1, 1324476, Control_c, 0, 64, 86
1, 1324491, Control_c, 0, 64, 80
1, 1324503, Note_off_c, 0, 91, 66
1, 1324506, Control_c, 0, 64, 73
1, 1324517, Note_off_c, 0, 67, 58
1, 1324521, Control_c, 0, 64, 64
1, 1324528, Note_on_c, 0, 63, 84
1, 1324533, Note_on_c, 0, 60, 75
1, 1324533, Note_on_c, 0, 93, 100
1, 1324536, Control_c, 0, 64, 53
1, 1324550, Control_c, 0, 64, 41
1, 1324565, Control_c, 0, 64, 0
1, 1324581, Note_off_c, 0, 60, 61
1, 1324581, Note_off_c, 0, 63, 65
1, 1324618, Note_on_c, 0, 67, 83
1, 1324675, Note_off_c, 0, 67, 63
1, 1324700, Note_on_c, 0, 94, 91
1, 1324708, Note_off_c, 0, 93, 63
1, 1324711, Note_on_c, 0, 62, 84
1, 1324713, Note_on_c, 0, 55, 81
1, 1324737, Note_off_c, 0, 94, 62
1, 1324747, Note_off_c, 0, 55, 60
1, 1324749, Note_off_c, 0, 62, 60
1, 1324750, Control_c, 0, 64, 53
1, 1324765, Control_c, 0, 64, 69
1, 1324780, Control_c, 0, 64, 80
1, 1324786, Note_on_c, 0, 67, 83
1, 1324795, Control_c, 0, 64, 87
1, 1324809, Control_c, 0, 64, 90
1, 1324824, Control_c, 0, 64, 92
1, 1324831, Note_off_c, 0, 67, 58
1, 1324839, Control_c, 0, 64, 93
1, 1324854, Note_on_c, 0, 84, 72
1, 1324854, Control_c, 0, 64, 96
1, 1324855, Note_on_c, 0, 55, 74
1, 1324858, Note_on_c, 0, 62, 74
1, 1324869, Control_c, 0, 64, 100
1, 1324883, Control_c, 0, 64, 112
1, 1324885, Note_on_c, 0, 82, 77
1, 1324887, Note_off_c, 0, 84, 61
1, 1324898, Control_c, 0, 64, 127
1, 1324907, Note_off_c, 0, 55, 58
1, 1324916, Note_off_c, 0, 62, 59
1, 1324927, Note_on_c, 0, 67, 87
1, 1324936, Note_off_c, 0, 82, 63
1, 1324953, Note_on_c, 0, 81, 73
1, 1324976, Note_off_c, 0, 67, 62
1, 1325016, Note_on_c, 0, 62, 80
1, 1325026, Note_on_c, 0, 82, 77
1, 1325028, Note_on_c, 0, 55, 65
1, 1325028, Note_off_c, 0, 81, 63
1, 1325047, Note_off_c, 0, 82, 68
1, 1325069, Note_off_c, 0, 55, 55
1, 1325074, Note_off_c, 0, 62, 61
1, 1325108, Note_on_c, 0, 67, 77
1, 1325149, Note_off_c, 0, 67, 62
1, 1325304, Note_on_c, 0, 63, 84
1, 1325322, Note_on_c, 0, 79, 67
1, 1325418, Control_c, 0, 64, 97
1, 1325427, Note_on_c, 0, 82, 73
1, 1325430, Note_off_c, 0, 79, 63
1, 1325433, Control_c, 0, 64, 80
1, 1325433, Control_c, 0, 67, 34
1, 1325455, Control_c, 0, 64, 69
1, 1325455, Control_c, 0, 67, 65
1, 1325470, Control_c, 0, 64, 59
1, 1325470, Control_c, 0, 67, 91
1, 1325485, Control_c, 0, 64, 52
1, 1325485, Control_c, 0, 67, 100
1, 1325499, Control_c, 0, 64, 49
1, 1325499, Control_c, 0, 67, 102
1, 1325514, Control_c, 0, 64, 48
1, 1325514, Control_c, 0, 67, 107
1, 1325529, Control_c, 0, 64, 45
1, 1325529, Control_c, 0, 67, 127
1, 1325532, Note_off_c, 0, 82, 61
1, 1325544, Control_c, 0, 64, 36
1, 1325547, Note_on_c, 0, 79, 67
1, 1325555, Note_on_c, 0, 62, 78
1, 1325559, Control_c, 0, 64, 0
1, 1325631, Note_off_c, 0, 63, 63
1, 1325632, Note_on_c, 0, 82, 76
1, 1325634, Note_off_c, 0, 79, 62
1, 1325711, Note_on_c, 0, 79, 66
1, 1325711, Note_off_c, 0, 82, 61
1, 1325717, Note_on_c, 0, 63, 89
1, 1325746, Note_on_c, 0, 75, 40
1, 1325759, Note_off_c, 0, 62, 62
1, 1325775, Note_off_c, 0, 75, 35
1, 1325798, Note_on_c, 0, 82, 82
1, 1325803, Note_off_c, 0, 79, 64
1, 1325883, Note_on_c, 0, 79, 71
1, 1325884, Note_off_c, 0, 82, 60
1, 1325890, Note_on_c, 0, 60, 84
1, 1325896, Note_on_c, 0, 75, 49
1, 1325928, Note_off_c, 0, 75, 54
1, 1325952, Note_off_c, 0, 63, 63
1, 1325976, Note_on_c, 0, 84, 68
1, 1325977, Note_off_c, 0, 79, 59
1, 1326056, Note_off_c, 0, 84, 62
1, 1326065, Note_on_c, 0, 62, 77
1, 1326070, Note_on_c, 0, 79, 60
1, 1326082, Note_off_c, 0, 60, 64
1, 1326148, Note_on_c, 0, 63, 80
1, 1326152, Note_off_c, 0, 79, 55
1, 1326158, Note_on_c, 0, 84, 72
1, 1326163, Note_off_c, 0, 62, 64
1, 1326244, Note_on_c, 0, 79, 63
1, 1326245, Note_off_c, 0, 84, 59
1, 1326246, Note_on_c, 0, 65, 77
1, 1326272, Note_off_c, 0, 63, 61
1, 1326274, Note_on_c, 0, 75, 45
1, 1326298, Note_off_c, 0, 75, 54
1, 1326307, Note_off_c, 0, 65, 63
1, 1326319, Note_on_c, 0, 67, 76
1, 1326334, Note_off_c, 0, 79, 63
1, 1326337, Note_on_c, 0, 84, 70
1, 1326410, Note_on_c, 0, 63, 78
1, 1326410, Note_on_c, 0, 79, 71
1, 1326426, Note_off_c, 0, 84, 52
1, 1326432, Note_on_c, 0, 75, 50
1, 1326435, Note_off_c, 0, 67, 58
1, 1326455, Note_off_c, 0, 75, 59
1, 1326504, Note_off_c, 0, 79, 61
1, 1326506, Note_on_c, 0, 82, 74
1, 1326568, Note_off_c, 0, 63, 63
1, 1326577, Note_off_c, 0, 82, 60
1, 1326584, Note_on_c, 0, 65, 73
1, 1326586, Note_on_c, 0, 79, 70
1, 1326636, Note_off_c, 0, 65, 56
1, 1326640, Poly_aftertouch_c, 0, 75, 0
1, 1326656, Note_on_c, 0, 63, 86
1, 1326664, Note_on_c, 0, 82, 79
1, 1326666, Note_off_c, 0, 79, 60
1, 1326727, Note_off_c, 0, 63, 63
1, 1326734, Note_off_c, 0, 82, 61
1, 1326738, Note_on_c, 0, 79, 70
1, 1326739, Note_on_c, 0, 62, 78
1, 1326753, Note_on_c, 0, 75, 56
1, 1326773, Note_off_c, 0, 75, 60
1, 1326788, Note_off_c, 0, 62, 59
1, 1326810, Note_off_c, 0, 79, 54
1, 1326816, Note_on_c, 0, 82, 90
1, 1326818, Note_on_c, 0, 60, 80
1, 1326868, Note_off_c, 0, 60, 60
1, 1326892, Note_off_c, 0, 82, 60
1, 1326900, Note_on_c, 0, 80, 83
1, 1326900, Note_on_c, 0, 58, 90
1, 1326903, Note_on_c, 0, 74, 71
1, 1326924, Note_off_c, 0, 58, 71
1, 1326930, Note_off_c, 0, 74, 66
1, 1326952, Control_c, 0, 67, 104
1, 1326959, Note_off_c, 0, 80, 61
1, 1326967, Control_c, 0, 67, 80
1, 1326982, Control_c, 0, 67, 65
1, 1326991, Note_on_c, 0, 82, 79
1, 1326997, Control_c, 0, 67, 64
1, 1327050, Note_off_c, 0, 82, 59
1, 1327056, Control_c, 0, 67, 64
1, 1327070, Control_c, 0, 67, 68
1, 1327076, Note_on_c, 0, 80, 77
1, 1327084, Note_on_c, 0, 58, 78
1, 1327085, Control_c, 0, 67, 76
1, 1327091, Note_on_c, 0, 74, 66
1, 1327100, Control_c, 0, 67, 80
1, 1327113, Note_off_c, 0, 58, 66
1, 1327115, Control_c, 0, 67, 79
1, 1327118, Note_off_c, 0, 74, 67
1, 1327129, Note_off_c, 0, 80, 62
1, 1327130, Control_c, 0, 67, 79
1, 1327159, Control_c, 0, 67, 82
1, 1327164, Note_on_c, 0, 82, 65
1, 1327174, Control_c, 0, 67, 87
1, 1327189, Control_c, 0, 67, 87
1, 1327204, Control_c, 0, 67, 86
1, 1327211, Note_off_c, 0, 82, 57
1, 1327234, Control_c, 0, 67, 91
1, 1327240, Note_on_c, 0, 80, 61
1, 1327249, Control_c, 0, 67, 106
1, 1327264, Control_c, 0, 67, 127
1, 1327267, Note_on_c, 0, 58, 54
1, 1327279, Note_off_c, 0, 80, 52
1, 1327292, Note_off_c, 0, 58, 58
1, 1327317, Note_on_c, 0, 82, 62
1, 1327326, Poly_aftertouch_c, 0, 74, 0
1, 1327354, Note_off_c, 0, 82, 55
1, 1327407, Note_on_c, 0, 80, 61
1, 1327422, Note_on_c, 0, 74, 56
1, 1327433, Note_on_c, 0, 59, 55
1, 1327441, Control_c, 0, 64, 35
1, 1327456, Control_c, 0, 64, 46
1, 1327464, Note_off_c, 0, 74, 58
1, 1327470, Control_c, 0, 64, 47
1, 1327482, Note_off_c, 0, 80, 49
1, 1327485, Control_c, 0, 64, 45
1, 1327500, Control_c, 0, 64, 44
1, 1327516, Note_on_c, 0, 86, 60
1, 1327516, Control_c, 0, 64, 41
1, 1327531, Control_c, 0, 64, 0
1, 1327559, Note_off_c, 0, 59, 63
1, 1327567, Note_off_c, 0, 86, 57
1, 1327592, Note_on_c, 0, 80, 70
1, 1327592, Note_on_c, 0, 71, 60
1, 1327612, Note_off_c, 0, 71, 63
1, 1327614, Note_on_c, 0, 74, 47
1, 1327630, Note_off_c, 0, 80, 59
1, 1327638, Note_off_c, 0, 74, 58
1, 1327680, Note_on_c, 0, 86, 69
1, 1327761, Note_off_c, 0, 86, 60
1, 1327776, Note_on_c, 0, 80, 68
1, 1327783, Note_on_c, 0, 71, 61
1, 1327794, Note_on_c, 0, 74, 35
1, 1327803, Note_off_c, 0, 71, 63
1, 1327821, Note_off_c, 0, 74, 57
1, 1327835, Note_off_c, 0, 80, 55
1, 1327860, Note_on_c, 0, 86, 73
1, 1327907, Note_off_c, 0, 86, 63
1, 1327943, Note_on_c, 0, 72, 73
1, 1327946, Note_on_c, 0, 79, 65
1, 1327968, Control_c, 0, 64, 35
1, 1327972, Note_on_c, 0, 75, 50
1, 1327982, Control_c, 0, 64, 34
1, 1327994, Note_off_c, 0, 75, 54
1, 1327997, Control_c, 0, 64, 0
1, 1328020, Note_off_c, 0, 79, 60
1, 1328039, Note_on_c, 0, 87, 63
1, 1328061, Note_off_c, 0, 72, 58
1, 1328082, Note_off_c, 0, 87, 60
1, 1328114, Note_on_c, 0, 79, 64
1, 1328126, Note_on_c, 0, 60, 60
1, 1328133, Note_on_c, 0, 75, 19
1, 1328153, Note_off_c, 0, 75, 47
1, 1328155, Note_off_c, 0, 60, 66
1, 1328183, Note_off_c, 0, 79, 51
1, 1328189, Note_on_c, 0, 87, 70
1, 1328254, Note_off_c, 0, 87, 61
1, 1328261, Note_on_c, 0, 60, 56
1, 1328266, Note_on_c, 0, 75, 51
1, 1328274, Note_on_c, 0, 79, 46
1, 1328295, Note_off_c, 0, 60, 67
1, 1328295, Note_off_c, 0, 75, 54
1, 1328321, Note_off_c, 0, 79, 60
1, 1328342, Note_on_c, 0, 86, 72
1, 1328429, Note_on_c, 0, 65, 74
1, 1328429, Note_on_c, 0, 81, 69
1, 1328449, Note_off_c, 0, 86, 62
1, 1328453, Note_on_c, 0, 75, 43
1, 1328459, Note_off_c, 0, 65, 69
1, 1328476, Note_off_c, 0, 75, 54
1, 1328484, Note_off_c, 0, 81, 64
1, 1328522, Note_on_c, 0, 84, 57
1, 1328558, Note_off_c, 0, 84, 60
1, 1328592, Note_on_c, 0, 81, 74
1, 1328602, Note_on_c, 0, 53, 82
1, 1328606, Note_on_c, 0, 75, 46
1, 1328629, Note_off_c, 0, 53, 65
1, 1328629, Note_off_c, 0, 75, 60
1, 1328639, Note_on_c, 0, 55, 26
1, 1328648, Note_off_c, 0, 81, 60
1, 1328666, Note_on_c, 0, 84, 74
1, 1328687, Note_off_c, 0, 55, 29
1, 1328694, Note_on_c, 0, 52, 86
1, 1328716, Note_off_c, 0, 52, 70
1, 1328733, Note_off_c, 0, 84, 62
1, 1328738, Note_on_c, 0, 75, 51
1, 1328752, Note_on_c, 0, 81, 69
1, 1328757, Note_on_c, 0, 53, 94
1, 1328787, Note_off_c, 0, 75, 60
1, 1328788, Note_off_c, 0, 53, 68
1, 1328808, Note_off_c, 0, 81, 58
1, 1328842, Note_on_c, 0, 84, 69
1, 1328917, Note_on_c, 0, 58, 71
1, 1328930, Note_off_c, 0, 84, 40
1, 1328936, Note_off_c, 0, 58, 66
1, 1328937, Note_on_c, 0, 82, 70
1, 1328947, Note_on_c, 0, 74, 59
1, 1328969, Note_off_c, 0, 74, 65
1, 1328981, Note_off_c, 0, 82, 55
1, 1329020, Note_on_c, 0, 86, 65
1, 1329060, Note_off_c, 0, 86, 59
1, 1329084, Note_on_c, 0, 46, 66
1, 1329095, Note_on_c, 0, 82, 62
1, 1329112, Note_on_c, 0, 74, 38
1, 1329116, Note_off_c, 0, 46, 64
1, 1329136, Note_off_c, 0, 82, 53
1, 1329142, Note_off_c, 0, 74, 50
1, 1329171, Note_on_c, 0, 45, 87
1, 1329172, Note_on_c, 0, 86, 73
1, 1329209, Note_off_c, 0, 45, 66
1, 1329231, Note_off_c, 0, 86, 57
1, 1329257, Note_on_c, 0, 46, 82
1, 1329267, Note_on_c, 0, 82, 67
1, 1329273, Note_on_c, 0, 74, 37
1, 1329280, Note_off_c, 0, 46, 69
1, 1329302, Note_off_c, 0, 74, 50
1, 1329335, Note_off_c, 0, 82, 38
1, 1329350, Note_on_c, 0, 86, 63
1, 1329458, Note_off_c, 0, 86, 55
1, 1329459, Note_on_c, 0, 41, 59
1, 1329462, Note_on_c, 0, 81, 58
1, 1329481, Note_on_c, 0, 75, 38
1, 1329514, Note_off_c, 0, 75, 49
1, 1329546, Note_off_c, 0, 81, 59
1, 1329557, Note_on_c, 0, 84, 60
1, 1329595, Note_off_c, 0, 84, 58
1, 1329638, Note_off_c, 0, 41, 64
1, 1329642, Note_on_c, 0, 43, 67
1, 1329645, Note_on_c, 0, 81, 53
1, 1329648, Note_on_c, 0, 75, 41
1, 1329672, Note_off_c, 0, 75, 50
1, 1329686, Note_off_c, 0, 81, 58
1, 1329700, Note_off_c, 0, 43, 62
1, 1329715, Note_on_c, 0, 84, 63
1, 1329741, Note_on_c, 0, 45, 48
1, 1329774, Note_off_c, 0, 45, 63
1, 1329789, Note_off_c, 0, 84, 57
1, 1329794, Note_on_c, 0, 75, 42
1, 1329800, Note_on_c, 0, 46, 58
1, 1329803, Note_on_c, 0, 81, 58
1, 1329841, Note_off_c, 0, 46, 62
1, 1329845, Note_off_c, 0, 75, 59
1, 1329866, Note_off_c, 0, 81, 48
1, 1329887, Note_on_c, 0, 84, 69
1, 1329897, Note_on_c, 0, 48, 48
1, 1329932, Note_off_c, 0, 48, 54
1, 1329944, Note_off_c, 0, 84, 59
1, 1329967, Note_on_c, 0, 46, 77
1, 1329982, Note_on_c, 0, 82, 72
1, 1329993, Note_off_c, 0, 46, 66
1, 1330000, Note_on_c, 0, 74, 56
1, 1330019, Note_off_c, 0, 74, 61
1, 1330025, Note_off_c, 0, 82, 56
1, 1330063, Note_on_c, 0, 86, 69
1, 1330119, Note_off_c, 0, 86, 59
1, 1330143, Note_on_c, 0, 82, 67
1, 1330152, Note_on_c, 0, 74, 43
1, 1330155, Note_on_c, 0, 46, 41
1, 1330179, Note_off_c, 0, 74, 57
1, 1330190, Note_off_c, 0, 46, 50
1, 1330199, Note_off_c, 0, 82, 56
1, 1330224, Note_on_c, 0, 86, 65
1, 1330270, Note_off_c, 0, 86, 63
1, 1330291, Note_on_c, 0, 46, 64
1, 1330297, Note_on_c, 0, 74, 54
1, 1330307, Note_on_c, 0, 82, 55
1, 1330322, Note_off_c, 0, 46, 64
1, 1330330, Note_off_c, 0, 74, 65
1, 1330364, Note_off_c, 0, 82, 53
1, 1330382, Note_on_c, 0, 86, 61
1, 1330466, Note_off_c, 0, 86, 62
1, 1330486, Note_on_c, 0, 81, 60
1, 1330487, Note_on_c, 0, 53, 58
1, 1330514, Note_on_c, 0, 75, 36
1, 1330545, Note_off_c, 0, 75, 48
1, 1330572, Note_off_c, 0, 81, 56
1, 1330576, Note_on_c, 0, 84, 61
1, 1330629, Note_off_c, 0, 84, 56
1, 1330664, Note_off_c, 0, 53, 62
1, 1330666, Note_on_c, 0, 55, 62
1, 1330679, Note_on_c, 0, 81, 51
1, 1330731, Note_off_c, 0, 81, 56
1, 1330739, Note_off_c, 0, 55, 50
1, 1330749, Note_on_c, 0, 84, 63
1, 1330772, Note_on_c, 0, 57, 55
1, 1330804, Note_off_c, 0, 57, 62
1, 1330817, Note_off_c, 0, 84, 54
1, 1330833, Note_on_c, 0, 58, 57
1, 1330834, Note_on_c, 0, 81, 63
1, 1330839, Note_on_c, 0, 75, 61
1, 1330862, Note_off_c, 0, 58, 65
1, 1330871, Note_off_c, 0, 75, 62
1, 1330899, Note_off_c, 0, 81, 53
1, 1330916, Note_on_c, 0, 84, 71
1, 1330929, Note_on_c, 0, 60, 52
1, 1330953, Note_off_c, 0, 60, 63
1, 1330992, Note_off_c, 0, 84, 39
1, 1331002, Note_on_c, 0, 82, 71
1, 1331006, Note_on_c, 0, 58, 47
1, 1331012, Note_on_c, 0, 74, 61
1, 1331035, Note_off_c, 0, 58, 34
1, 1331035, Note_off_c, 0, 74, 65
1, 1331043, Note_off_c, 0, 82, 59
1, 1331094, Note_on_c, 0, 86, 63
1, 1331150, Note_off_c, 0, 86, 62
1, 1331169, Note_on_c, 0, 82, 65
1, 1331178, Note_on_c, 0, 58, 50
1, 1331187, Note_on_c, 0, 74, 54
1, 1331202, Note_off_c, 0, 58, 57
1, 1331210, Note_off_c, 0, 74, 59
1, 1331220, Note_off_c, 0, 82, 54
1, 1331255, Note_on_c, 0, 86, 64
1, 1331295, Note_off_c, 0, 86, 59
1, 1331318, Note_on_c, 0, 58, 54
1, 1331327, Note_on_c, 0, 74, 58
1, 1331327, Note_on_c, 0, 82, 62
1, 1331346, Note_off_c, 0, 58, 64
1, 1331363, Note_off_c, 0, 74, 65
1, 1331395, Note_off_c, 0, 82, 49
1, 1331413, Note_on_c, 0, 86, 60
1, 1331503, Note_on_c, 0, 65, 57
1, 1331504, Note_off_c, 0, 86, 61
1, 1331519, Note_on_c, 0, 81, 61
1, 1331534, Note_on_c, 0, 75, 50
1, 1331559, Note_off_c, 0, 75, 57
1, 1331571, Note_off_c, 0, 81, 54
1, 1331603, Note_on_c, 0, 84, 61
1, 1331646, Note_off_c, 0, 84, 61
1, 1331678, Note_off_c, 0, 65, 61
1, 1331689, Note_on_c, 0, 81, 58
1, 1331690, Note_on_c, 0, 67, 64
1, 1331746, Note_off_c, 0, 81, 59
1, 1331754, Note_off_c, 0, 67, 61
1, 1331756, Note_on_c, 0, 84, 67
1, 1331780, Note_on_c, 0, 69, 46
1, 1331806, Note_off_c, 0, 69, 58
1, 1331817, Note_off_c, 0, 84, 60
1, 1331830, Note_on_c, 0, 70, 66
1, 1331852, Note_on_c, 0, 75, 59
1, 1331855, Note_on_c, 0, 81, 48
1, 1331858, Note_off_c, 0, 70, 66
1, 1331878, Note_off_c, 0, 75, 58
1, 1331885, Note_off_c, 0, 81, 51
1, 1331932, Note_on_c, 0, 84, 51
1, 1331937, Note_on_c, 0, 72, 40
1, 1331952, Note_off_c, 0, 84, 62
1, 1331964, Note_off_c, 0, 72, 52
1, 1332031, Note_on_c, 0, 86, 55
1, 1332037, Note_on_c, 0, 74, 47
1, 1332045, Note_on_c, 0, 84, 25
1, 1332057, Note_on_c, 0, 70, 45
1, 1332074, Note_on_c, 0, 82, 47
1, 1332084, Note_off_c, 0, 84, 48
1, 1332133, Note_off_c, 0, 70, 65
1, 1332155, Note_off_c, 0, 82, 63
1, 1332158, Note_off_c, 0, 74, 51
1, 1332164, Note_off_c, 0, 86, 65
1, 1332577, Note_on_c, 0, 82, 50
1, 1332583, Note_on_c, 0, 86, 54
1, 1332594, Note_on_c, 0, 65, 38
1, 1332602, Note_on_c, 0, 70, 35
1, 1332605, Note_on_c, 0, 74, 41
1, 1332722, Note_off_c, 0, 74, 65
1, 1332724, Note_off_c, 0, 82, 63
1, 1332728, Note_off_c, 0, 70, 61
1, 1332731, Note_off_c, 0, 86, 65
1, 1332736, Note_off_c, 0, 65, 61
1, 1333172, Note_on_c, 0, 82, 41
1, 1333172, Note_on_c, 0, 86, 53
1, 1333178, Note_on_c, 0, 70, 38
1, 1333202, Note_on_c, 0, 62, 22
1, 1333204, Note_on_c, 0, 74, 29
1, 1333215, Note_on_c, 0, 65, 17
1, 1333338, Note_off_c, 0, 70, 58
1, 1333363, Note_off_c, 0, 74, 59
1, 1333367, Note_off_c, 0, 82, 64
1, 1333373, Note_off_c, 0, 86, 65
1, 1333388, Note_off_c, 0, 62, 45
1, 1333388, Note_off_c, 0, 65, 45
1, 1334530, Control_c, 0, 64, 27
1, 1334559, Control_c, 0, 64, 31
1, 1334574, Control_c, 0, 64, 32
1, 1334579, Note_on_c, 0, 86, 44
1, 1334585, Note_on_c, 0, 74, 24
1, 1334592, Note_on_c, 0, 82, 36
1, 1334597, Note_on_c, 0, 58, 30
1, 1334601, Note_on_c, 0, 65, 28
1, 1334601, Note_on_c, 0, 70, 28
1, 1334603, Control_c, 0, 64, 32
1, 1334618, Control_c, 0, 64, 33
1, 1334633, Control_c, 0, 64, 35
1, 1334648, Control_c, 0, 64, 37
1, 1334662, Control_c, 0, 64, 38
1, 1334692, Control_c, 0, 64, 39
1, 1334708, Control_c, 0, 64, 39
1, 1334723, Control_c, 0, 64, 41
1, 1334738, Control_c, 0, 64, 44
1, 1334753, Control_c, 0, 64, 46
1, 1334781, Control_c, 0, 64, 46
1, 1334796, Control_c, 0, 64, 47
1, 1334811, Control_c, 0, 64, 50
1, 1334826, Control_c, 0, 64, 54
1, 1334841, Control_c, 0, 64, 55
1, 1334885, Control_c, 0, 64, 55
1, 1334900, Control_c, 0, 64, 57
1, 1334915, Control_c, 0, 64, 59
1, 1334930, Control_c, 0, 64, 61
1, 1334945, Control_c, 0, 64, 62
1, 1334959, Control_c, 0, 64, 63
1, 1334974, Control_c, 0, 64, 65
1, 1334989, Control_c, 0, 64, 67
1, 1335003, Control_c, 0, 64, 69
1, 1335018, Control_c, 0, 64, 72
1, 1335033, Control_c, 0, 64, 74
1, 1335048, Control_c, 0, 64, 77
1, 1335063, Control_c, 0, 64, 81
1, 1335077, Control_c, 0, 64, 85
1, 1335092, Control_c, 0, 64, 89
1, 1335107, Control_c, 0, 64, 93
1, 1335122, Control_c, 0, 64, 98
1, 1335137, Control_c, 0, 64, 106
1, 1335151, Control_c, 0, 64, 117
1, 1335166, Control_c, 0, 64, 127
1, 1335264, Note_off_c, 0, 70, 43
1, 1335808, Note_off_c, 0, 58, 43
1, 1336044, Note_off_c, 0, 65, 14
1, 1336251, Note_off_c, 0, 82, 31
1, 1336900, Note_off_c, 0, 86, 63
1, 1337053, Note_off_c, 0, 74, 55
1, 1337716, Control_c, 0, 64, 115
1, 1337731, Control_c, 0, 64, 103
1, 1337745, Control_c, 0, 64, 97
1, 1337761, Control_c, 0, 64, 92
1, 1337776, Control_c, 0, 64, 88
1, 1337791, Control_c, 0, 64, 85
1, 1337805, Control_c, 0, 64, 84
1, 1337820, Control_c, 0, 64, 84
1, 1337835, Control_c, 0, 64, 83
1, 1337850, Control_c, 0, 64, 82
1, 1337865, Control_c, 0, 64, 81
1, 1337879, Control_c, 0, 64, 80
1, 1337894, Control_c, 0, 64, 79
1, 1337910, Control_c, 0, 64, 79
1, 1337940, Control_c, 0, 64, 78
1, 1337955, Control_c, 0, 64, 78
1, 1338028, Control_c, 0, 64, 77
1, 1338043, Control_c, 0, 64, 76
1, 1338058, Control_c, 0, 64, 75
1, 1338073, Control_c, 0, 64, 75
1, 1338102, Control_c, 0, 64, 74
1, 1338132, Control_c, 0, 64, 74
1, 1338147, Control_c, 0, 64, 73
1, 1338184, Control_c, 0, 64, 73
1, 1338199, Control_c, 0, 64, 72
1, 1338214, Control_c, 0, 64, 70
1, 1338229, Control_c, 0, 64, 69
1, 1338243, Control_c, 0, 64, 68
1, 1338273, Control_c, 0, 64, 67
1, 1338288, Control_c, 0, 64, 65
1, 1338302, Control_c, 0, 64, 63
1, 1338317, Control_c, 0, 64, 62
1, 1338362, Control_c, 0, 64, 61
1, 1338376, Control_c, 0, 64, 61
1, 1338391, Control_c, 0, 64, 60
1, 1338406, Control_c, 0, 64, 59
1, 1338451, Control_c, 0, 64, 58
1, 1338466, Control_c, 0, 64, 57
1, 1338481, Control_c, 0, 64, 57
1, 1338540, Control_c, 0, 64, 56
1, 1338554, Control_c, 0, 64, 55
1, 1338569, Control_c, 0, 64, 54
1, 1338584, Control_c, 0, 64, 54
1, 1338628, Control_c, 0, 64, 53
1, 1338643, Control_c, 0, 64, 51
1, 1338688, Control_c, 0, 64, 50
1, 1338704, Control_c, 0, 64, 49
1, 1338719, Control_c, 0, 64, 48
1, 1338777, Control_c, 0, 64, 47
1, 1338792, Control_c, 0, 64, 46
1, 1338807, Control_c, 0, 64, 45
1, 1338851, Control_c, 0, 64, 44
1, 1338866, Control_c, 0, 64, 42
1, 1338881, Control_c, 0, 64, 40
1, 1338948, Control_c, 0, 64, 40
1, 1338963, Control_c, 0, 64, 39
1, 1339022, Control_c, 0, 64, 39
1, 1339037, Control_c, 0, 64, 38
1, 1339051, Control_c, 0, 64, 37
1, 1339096, Control_c, 0, 64, 37
1, 1339111, Control_c, 0, 64, 36
1, 1339126, Control_c, 0, 64, 35
1, 1339170, Control_c, 0, 64, 34
1, 1339184, Control_c, 0, 64, 33
1, 1339199, Control_c, 0, 64, 31
1, 1339274, Control_c, 0, 64, 29
1, 1339348, Control_c, 0, 64, 0
1, 1339992, Note_on_c, 0, 67, 74
1, 1340010, Note_on_c, 0, 55, 59
1, 1340230, Control_c, 0, 64, 30
1, 1340245, Control_c, 0, 64, 32
1, 1340260, Control_c, 0, 64, 35
1, 1340274, Control_c, 0, 64, 38
1, 1340289, Control_c, 0, 64, 42
1, 1340305, Control_c, 0, 64, 47
1, 1340320, Control_c, 0, 64, 53
1, 1340335, Control_c, 0, 64, 59
1, 1340349, Control_c, 0, 64, 62
1, 1340364, Control_c, 0, 64, 64
1, 1340379, Control_c, 0, 64, 66
1, 1340394, Control_c, 0, 64, 69
1, 1340409, Control_c, 0, 64, 73
1, 1340430, Control_c, 0, 64, 79
1, 1340445, Control_c, 0, 64, 89
1, 1340460, Control_c, 0, 64, 104
1, 1340475, Control_c, 0, 64, 127
1, 1340712, Control_c, 0, 67, 118
1, 1340727, Control_c, 0, 67, 93
1, 1340742, Control_c, 0, 67, 64
1, 1340756, Control_c, 0, 67, 37
1, 1340771, Control_c, 0, 67, 0
1, 1340976, Note_off_c, 0, 55, 37
1, 1341011, Note_off_c, 0, 67, 63
1, 1341224, Control_c, 0, 67, 49
1, 1341239, Control_c, 0, 67, 93
1, 1341253, Control_c, 0, 67, 127
1, 1341697, Note_on_c, 0, 74, 62
1, 1341725, Note_off_c, 0, 74, 67
1, 1341742, Control_c, 0, 64, 95
1, 1341757, Control_c, 0, 64, 77
1, 1341772, Control_c, 0, 64, 65
1, 1341787, Control_c, 0, 64, 55
1, 1341801, Control_c, 0, 64, 45
1, 1341816, Control_c, 0, 64, 36
1, 1341831, Control_c, 0, 64, 0
1, 1341927, Note_on_c, 0, 55, 42
1, 1341932, Note_on_c, 0, 72, 45
1, 1342065, Note_off_c, 0, 55, 36
1, 1342118, Note_on_c, 0, 71, 58
1, 1342123, Note_off_c, 0, 72, 60
1, 1342129, Note_on_c, 0, 67, 39
1, 1342145, Note_off_c, 0, 71, 64
1, 1342160, Note_off_c, 0, 67, 52
1, 1342288, Note_on_c, 0, 65, 53
1, 1342293, Note_on_c, 0, 62, 51
1, 1342299, Note_on_c, 0, 71, 56
1, 1342311, Note_off_c, 0, 65, 60
1, 1342320, Note_off_c, 0, 62, 65
1, 1342322, Note_off_c, 0, 71, 64
1, 1342459, Note_on_c, 0, 67, 56
1, 1342460, Note_on_c, 0, 71, 62
1, 1342495, Note_off_c, 0, 71, 60
1, 1342500, Note_off_c, 0, 67, 54
1, 1342639, Control_c, 0, 64, 32
1, 1342641, Note_on_c, 0, 71, 56
1, 1342653, Note_on_c, 0, 55, 34
1, 1342654, Control_c, 0, 64, 41
1, 1342676, Control_c, 0, 64, 47
1, 1342691, Control_c, 0, 64, 49
1, 1342707, Control_c, 0, 64, 50
1, 1342722, Control_c, 0, 64, 53
1, 1342737, Control_c, 0, 64, 57
1, 1342737, Note_off_c, 0, 55, 51
1, 1342751, Control_c, 0, 64, 59
1, 1342766, Control_c, 0, 64, 60
1, 1342781, Control_c, 0, 64, 61
1, 1342796, Control_c, 0, 64, 62
1, 1342811, Control_c, 0, 64, 62
1, 1342815, Note_on_c, 0, 72, 63
1, 1342820, Note_on_c, 0, 67, 53
1, 1342821, Note_off_c, 0, 71, 63
1, 1342825, Control_c, 0, 64, 61
1, 1342839, Note_off_c, 0, 72, 66
1, 1342840, Control_c, 0, 64, 51
1, 1342852, Note_off_c, 0, 67, 63
1, 1342855, Control_c, 0, 64, 0
1, 1342981, Note_on_c, 0, 63, 44
1, 1342991, Note_on_c, 0, 60, 32
1, 1343007, Note_off_c, 0, 63, 57
1, 1343027, Note_off_c, 0, 60, 50
1, 1343137, Note_on_c, 0, 75, 54
1, 1343150, Note_on_c, 0, 67, 38
1, 1343161, Note_off_c, 0, 75, 60
1, 1343199, Note_off_c, 0, 67, 48
1, 1343310, Note_on_c, 0, 72, 54
1, 1343314, Control_c, 0, 64, 28
1, 1343326, Note_on_c, 0, 55, 42
1, 1343329, Control_c, 0, 64, 37
1, 1343343, Control_c, 0, 64, 48
1, 1343358, Control_c, 0, 64, 55
1, 1343373, Control_c, 0, 64, 58
1, 1343388, Control_c, 0, 64, 58
1, 1343403, Control_c, 0, 64, 58
1, 1343425, Control_c, 0, 64, 54
1, 1343440, Control_c, 0, 64, 37
1, 1343455, Control_c, 0, 64, 0
1, 1343474, Note_on_c, 0, 71, 59
1, 1343478, Note_off_c, 0, 55, 30
1, 1343486, Note_on_c, 0, 67, 51
1, 1343496, Note_off_c, 0, 72, 60
1, 1343506, Note_off_c, 0, 71, 64
1, 1343515, Note_off_c, 0, 67, 61
1, 1343637, Note_on_c, 0, 65, 50
1, 1343638, Note_on_c, 0, 62, 43
1, 1343639, Note_on_c, 0, 71, 59
1, 1343660, Note_off_c, 0, 65, 58
1, 1343665, Note_off_c, 0, 71, 65
1, 1343667, Note_off_c, 0, 62, 53
1, 1343793, Note_on_c, 0, 67, 61
1, 1343796, Note_on_c, 0, 71, 56
1, 1343826, Note_off_c, 0, 67, 62
1, 1343829, Note_off_c, 0, 71, 63
1, 1343946, Note_on_c, 0, 71, 69
1, 1343950, Note_on_c, 0, 55, 61
1, 1344004, Control_c, 0, 64, 32
1, 1344017, Note_off_c, 0, 55, 55
1, 1344019, Control_c, 0, 64, 40
1, 1344034, Control_c, 0, 64, 44
1, 1344048, Control_c, 0, 64, 45
1, 1344063, Control_c, 0, 64, 47
1, 1344078, Control_c, 0, 64, 51
1, 1344103, Note_on_c, 0, 72, 72
1, 1344106, Note_on_c, 0, 67, 63
1, 1344107, Control_c, 0, 64, 41
1, 1344115, Note_off_c, 0, 71, 62
1, 1344122, Control_c, 0, 64, 0
1, 1344126, Note_off_c, 0, 72, 69
1, 1344141, Note_off_c, 0, 67, 60
1, 1344257, Note_on_c, 0, 54, 58
1, 1344258, Note_on_c, 0, 60, 56
1, 1344259, Note_on_c, 0, 63, 64
1, 1344287, Note_off_c, 0, 54, 64
1, 1344287, Note_off_c, 0, 63, 64
1, 1344290, Note_off_c, 0, 60, 66
1, 1344400, Note_on_c, 0, 75, 73
1, 1344406, Note_on_c, 0, 66, 60
1, 1344434, Note_off_c, 0, 66, 66
1, 1344438, Note_off_c, 0, 75, 56
1, 1344562, Note_on_c, 0, 72, 71
1, 1344566, Note_on_c, 0, 53, 51
1, 1344576, Control_c, 0, 64, 42
1, 1344591, Control_c, 0, 64, 53
1, 1344605, Control_c, 0, 64, 56
1, 1344620, Control_c, 0, 64, 57
1, 1344635, Control_c, 0, 64, 59
1, 1344650, Control_c, 0, 64, 60
1, 1344665, Control_c, 0, 64, 62
1, 1344679, Control_c, 0, 64, 63
1, 1344694, Control_c, 0, 64, 63
1, 1344709, Note_on_c, 0, 70, 78
1, 1344709, Control_c, 0, 64, 58
1, 1344717, Note_on_c, 0, 65, 54
1, 1344720, Note_off_c, 0, 72, 62
1, 1344723, Control_c, 0, 64, 30
1, 1344738, Control_c, 0, 64, 0
1, 1344743, Note_off_c, 0, 53, 38
1, 1344744, Note_off_c, 0, 70, 64
1, 1344750, Note_off_c, 0, 65, 64
1, 1344854, Note_on_c, 0, 70, 79
1, 1344856, Note_on_c, 0, 62, 63
1, 1344879, Note_off_c, 0, 70, 65
1, 1344882, Note_off_c, 0, 62, 65
1, 1345014, Note_on_c, 0, 70, 65
1, 1345023, Note_on_c, 0, 65, 57
1, 1345041, Note_off_c, 0, 70, 69
1, 1345052, Note_off_c, 0, 65, 64
1, 1345179, Note_on_c, 0, 72, 66
1, 1345184, Note_on_c, 0, 55, 37
1, 1345325, Note_on_c, 0, 70, 62
1, 1345326, Note_on_c, 0, 64, 53
1, 1345330, Note_off_c, 0, 72, 60
1, 1345334, Note_off_c, 0, 55, 25
1, 1345355, Note_off_c, 0, 64, 63
1, 1345359, Note_off_c, 0, 70, 61
1, 1345474, Note_on_c, 0, 70, 64
1, 1345480, Note_on_c, 0, 60, 47
1, 1345510, Note_off_c, 0, 60, 55
1, 1345510, Note_off_c, 0, 70, 59
1, 1345623, Note_on_c, 0, 64, 59
1, 1345624, Note_on_c, 0, 70, 69
1, 1345655, Note_off_c, 0, 70, 62
1, 1345659, Note_off_c, 0, 64, 63
1, 1345775, Note_on_c, 0, 72, 60
1, 1345778, Note_on_c, 0, 53, 54
1, 1345784, Note_on_c, 0, 62, 55
1, 1345805, Note_off_c, 0, 72, 65
1, 1345813, Note_off_c, 0, 53, 64
1, 1345820, Note_off_c, 0, 62, 61
1, 1345831, Note_on_c, 0, 70, 69
1, 1345864, Note_off_c, 0, 70, 62
1, 1345905, Note_on_c, 0, 69, 66
1, 1345933, Note_off_c, 0, 69, 62
1, 1345936, Note_on_c, 0, 65, 47
1, 1345961, Note_off_c, 0, 65, 56
1, 1345966, Note_on_c, 0, 70, 69
1, 1346016, Note_off_c, 0, 70, 63
1, 1346049, Note_on_c, 0, 72, 56
1, 1346050, Note_on_c, 0, 63, 47
1, 1346056, Note_on_c, 0, 53, 39
1, 1346070, Note_off_c, 0, 72, 62
1, 1346075, Note_off_c, 0, 63, 55
1, 1346090, Note_off_c, 0, 53, 51
1, 1346203, Note_on_c, 0, 65, 41
1, 1346203, Note_on_c, 0, 74, 51
1, 1346225, Note_off_c, 0, 74, 57
1, 1346231, Note_off_c, 0, 65, 53
1, 1346368, Note_on_c, 0, 70, 48
1, 1346373, Note_on_c, 0, 62, 47
1, 1346389, Note_on_c, 0, 58, 43
1, 1346399, Note_off_c, 0, 62, 61
1, 1346425, Note_off_c, 0, 58, 49
1, 1346490, Note_off_c, 0, 70, 63
1, 1346732, Control_c, 0, 67, 120
1, 1346747, Control_c, 0, 67, 104
1, 1346762, Control_c, 0, 67, 93
1, 1346777, Control_c, 0, 67, 86
1, 1346792, Control_c, 0, 67, 79
1, 1346806, Control_c, 0, 67, 70
1, 1346821, Control_c, 0, 67, 60
1, 1346836, Control_c, 0, 67, 55
1, 1346851, Control_c, 0, 67, 54
1, 1346866, Control_c, 0, 67, 53
1, 1346881, Control_c, 0, 67, 51
1, 1346896, Control_c, 0, 67, 50
1, 1346910, Control_c, 0, 67, 47
1, 1346925, Control_c, 0, 67, 42
1, 1346940, Control_c, 0, 67, 39
1, 1346955, Control_c, 0, 67, 35
1, 1346970, Control_c, 0, 67, 0
1, 1347088, Note_on_c, 0, 67, 79
1, 1347107, Note_on_c, 0, 55, 59
1, 1347147, Control_c, 0, 64, 50
1, 1347170, Control_c, 0, 64, 65
1, 1347185, Control_c, 0, 64, 76
1, 1347199, Control_c, 0, 64, 94
1, 1347214, Control_c, 0, 64, 127
1, 1347623, Note_off_c, 0, 55, 31
1, 1347737, Note_off_c, 0, 67, 60
1, 1347992, Control_c, 0, 67, 41
1, 1348007, Control_c, 0, 67, 42
1, 1348021, Control_c, 0, 67, 46
1, 1348036, Control_c, 0, 67, 61
1, 1348051, Control_c, 0, 67, 102
1, 1348065, Control_c, 0, 67, 127
1, 1348333, Control_c, 0, 64, 118
1, 1348348, Control_c, 0, 64, 112
1, 1348362, Control_c, 0, 64, 104
1, 1348376, Note_on_c, 0, 86, 54
1, 1348377, Control_c, 0, 64, 94
1, 1348392, Control_c, 0, 64, 82
1, 1348407, Note_off_c, 0, 86, 60
1, 1348407, Control_c, 0, 64, 73
1, 1348422, Control_c, 0, 64, 64
1, 1348437, Control_c, 0, 64, 53
1, 1348452, Control_c, 0, 64, 45
1, 1348467, Control_c, 0, 64, 38
1, 1348482, Control_c, 0, 64, 31
1, 1348496, Control_c, 0, 64, 0
1, 1348570, Control_c, 0, 64, 37
1, 1348576, Note_on_c, 0, 84, 48
1, 1348582, Note_on_c, 0, 55, 36
1, 1348585, Control_c, 0, 64, 48
1, 1348600, Control_c, 0, 64, 59
1, 1348615, Control_c, 0, 64, 65
1, 1348629, Control_c, 0, 64, 69
1, 1348644, Control_c, 0, 64, 73
1, 1348666, Control_c, 0, 64, 76
1, 1348681, Control_c, 0, 64, 80
1, 1348696, Control_c, 0, 64, 84
1, 1348711, Control_c, 0, 64, 88
1, 1348726, Control_c, 0, 64, 91
1, 1348728, Note_off_c, 0, 55, 27
1, 1348741, Control_c, 0, 64, 94
1, 1348755, Note_on_c, 0, 83, 66
1, 1348756, Control_c, 0, 64, 95
1, 1348770, Control_c, 0, 64, 95
1, 1348771, Note_on_c, 0, 67, 45
1, 1348778, Note_off_c, 0, 84, 52
1, 1348790, Note_off_c, 0, 83, 59
1, 1348799, Note_off_c, 0, 67, 56
1, 1348800, Control_c, 0, 64, 93
1, 1348815, Control_c, 0, 64, 80
1, 1348830, Control_c, 0, 64, 65
1, 1348844, Control_c, 0, 64, 39
1, 1348859, Control_c, 0, 64, 0
1, 1348919, Note_on_c, 0, 65, 48
1, 1348923, Note_on_c, 0, 62, 42
1, 1348926, Note_on_c, 0, 83, 56
1, 1348944, Note_off_c, 0, 65, 57
1, 1348952, Note_off_c, 0, 62, 53
1, 1348955, Note_off_c, 0, 83, 64
1, 1349072, Note_on_c, 0, 83, 58
1, 1349102, Note_off_c, 0, 83, 64
1, 1349109, Note_on_c, 0, 67, 35
1, 1349143, Note_off_c, 0, 67, 53
1, 1349245, Control_c, 0, 64, 29
1, 1349253, Note_on_c, 0, 83, 50
1, 1349260, Control_c, 0, 64, 36
1, 1349269, Note_on_c, 0, 55, 27
1, 1349275, Control_c, 0, 64, 43
1, 1349290, Control_c, 0, 64, 52
1, 1349304, Control_c, 0, 64, 56
1, 1349346, Note_off_c, 0, 55, 40
1, 1349364, Control_c, 0, 64, 58
1, 1349379, Control_c, 0, 64, 59
1, 1349393, Control_c, 0, 64, 60
1, 1349410, Note_on_c, 0, 84, 63
1, 1349415, Control_c, 0, 64, 55
1, 1349420, Note_on_c, 0, 67, 51
1, 1349427, Note_off_c, 0, 83, 61
1, 1349430, Control_c, 0, 64, 36
1, 1349435, Note_off_c, 0, 84, 68
1, 1349445, Control_c, 0, 64, 0
1, 1349456, Note_off_c, 0, 67, 61
1, 1349563, Note_on_c, 0, 63, 61
1, 1349593, Note_off_c, 0, 63, 65
1, 1349714, Note_on_c, 0, 87, 61
1, 1349723, Note_on_c, 0, 67, 54
1, 1349742, Note_off_c, 0, 87, 65
1, 1349758, Note_off_c, 0, 67, 60
1, 1349874, Control_c, 0, 64, 31
1, 1349890, Note_on_c, 0, 84, 54
1, 1349890, Control_c, 0, 64, 45
1, 1349895, Note_on_c, 0, 55, 46
1, 1349905, Control_c, 0, 64, 53
1, 1349920, Control_c, 0, 64, 57
1, 1349934, Control_c, 0, 64, 59
1, 1349949, Control_c, 0, 64, 59
1, 1349964, Control_c, 0, 64, 60
1, 1349979, Control_c, 0, 64, 61
1, 1349994, Control_c, 0, 64, 61
1, 1350008, Control_c, 0, 64, 62
1, 1350016, Note_off_c, 0, 55, 32
1, 1350038, Control_c, 0, 64, 59
1, 1350044, Note_on_c, 0, 83, 65
1, 1350047, Note_on_c, 0, 67, 55
1, 1350053, Control_c, 0, 64, 47
1, 1350061, Note_off_c, 0, 84, 63
1, 1350068, Control_c, 0, 64, 0
1, 1350076, Note_off_c, 0, 83, 60
1, 1350078, Note_off_c, 0, 67, 64
1, 1350205, Note_on_c, 0, 83, 69
1, 1350207, Note_on_c, 0, 65, 58
1, 1350216, Note_on_c, 0, 62, 43
1, 1350230, Note_off_c, 0, 65, 64
1, 1350231, Note_off_c, 0, 83, 64
1, 1350243, Note_off_c, 0, 62, 56
1, 1350363, Note_on_c, 0, 83, 60
1, 1350378, Note_on_c, 0, 67, 53
1, 1350395, Note_off_c, 0, 83, 59
1, 1350409, Note_off_c, 0, 67, 63
1, 1350520, Control_c, 0, 64, 35
1, 1350531, Note_on_c, 0, 83, 54
1, 1350534, Control_c, 0, 64, 49
1, 1350544, Note_on_c, 0, 55, 51
1, 1350549, Control_c, 0, 64, 58
1, 1350564, Control_c, 0, 64, 61
1, 1350579, Control_c, 0, 64, 63
1, 1350594, Control_c, 0, 64, 64
1, 1350595, Note_off_c, 0, 55, 58
1, 1350608, Control_c, 0, 64, 66
1, 1350623, Control_c, 0, 64, 69
1, 1350638, Control_c, 0, 64, 72
1, 1350652, Control_c, 0, 64, 76
1, 1350667, Control_c, 0, 64, 79
1, 1350683, Control_c, 0, 64, 82
1, 1350689, Note_on_c, 0, 84, 68
1, 1350694, Note_on_c, 0, 67, 55
1, 1350698, Control_c, 0, 64, 84
1, 1350705, Note_off_c, 0, 83, 62
1, 1350713, Control_c, 0, 64, 86
1, 1350714, Note_off_c, 0, 84, 67
1, 1350728, Control_c, 0, 64, 86
1, 1350731, Note_off_c, 0, 67, 61
1, 1350743, Control_c, 0, 64, 87
1, 1350772, Control_c, 0, 64, 84
1, 1350787, Control_c, 0, 64, 72
1, 1350802, Control_c, 0, 64, 60
1, 1350817, Control_c, 0, 64, 44
1, 1350831, Control_c, 0, 64, 31
1, 1350837, Note_on_c, 0, 60, 58
1, 1350840, Note_on_c, 0, 63, 65
1, 1350843, Note_on_c, 0, 54, 55
1, 1350846, Control_c, 0, 64, 0
1, 1350869, Note_off_c, 0, 63, 66
1, 1350872, Note_off_c, 0, 54, 65
1, 1350872, Note_off_c, 0, 60, 66
1, 1351000, Note_on_c, 0, 87, 69
1, 1351003, Note_on_c, 0, 66, 66
1, 1351030, Note_off_c, 0, 66, 67
1, 1351040, Note_off_c, 0, 87, 58
1, 1351170, Note_on_c, 0, 53, 51
1, 1351172, Note_on_c, 0, 84, 67
1, 1351194, Control_c, 0, 64, 44
1, 1351209, Control_c, 0, 64, 53
1, 1351224, Control_c, 0, 64, 55
1, 1351239, Control_c, 0, 64, 56
1, 1351254, Control_c, 0, 64, 57
1, 1351269, Control_c, 0, 64, 59
1, 1351283, Control_c, 0, 64, 61
1, 1351298, Control_c, 0, 64, 62
1, 1351313, Control_c, 0, 64, 61
1, 1351328, Control_c, 0, 64, 55
1, 1351329, Note_on_c, 0, 82, 75
1, 1351338, Note_on_c, 0, 65, 57
1, 1351343, Control_c, 0, 64, 42
1, 1351347, Note_off_c, 0, 84, 64
1, 1351357, Control_c, 0, 64, 0
1, 1351372, Note_off_c, 0, 65, 63
1, 1351373, Note_off_c, 0, 82, 54
1, 1351381, Note_off_c, 0, 53, 36
1, 1351474, Note_on_c, 0, 82, 75
1, 1351477, Note_on_c, 0, 62, 65
1, 1351504, Note_off_c, 0, 62, 65
1, 1351506, Note_off_c, 0, 82, 60
1, 1351638, Note_on_c, 0, 82, 56
1, 1351656, Note_on_c, 0, 65, 52
1, 1351665, Note_off_c, 0, 82, 62
1, 1351680, Note_off_c, 0, 65, 61
1, 1351795, Control_c, 0, 64, 34
1, 1351799, Note_on_c, 0, 84, 60
1, 1351810, Control_c, 0, 64, 40
1, 1351810, Control_c, 0, 67, 113
1, 1351817, Note_on_c, 0, 55, 40
1, 1351825, Control_c, 0, 64, 36
1, 1351825, Control_c, 0, 67, 108
1, 1351840, Control_c, 0, 64, 33
1, 1351840, Control_c, 0, 67, 106
1, 1351899, Control_c, 0, 64, 29
1, 1351913, Note_off_c, 0, 55, 34
1, 1351913, Control_c, 0, 64, 0
1, 1351928, Control_c, 0, 67, 104
1, 1351945, Note_on_c, 0, 82, 67
1, 1351948, Note_off_c, 0, 84, 62
1, 1351958, Note_on_c, 0, 64, 52
1, 1351979, Note_off_c, 0, 82, 58
1, 1351987, Note_off_c, 0, 64, 63
1, 1352002, Control_c, 0, 67, 102
1, 1352077, Control_c, 0, 67, 99
1, 1352106, Note_on_c, 0, 82, 50
1, 1352112, Note_on_c, 0, 60, 47
1, 1352136, Control_c, 0, 67, 97
1, 1352140, Note_off_c, 0, 60, 55
1, 1352142, Note_off_c, 0, 82, 59
1, 1352258, Note_on_c, 0, 82, 54
1, 1352281, Note_on_c, 0, 64, 36
1, 1352293, Note_off_c, 0, 82, 64
1, 1352313, Note_off_c, 0, 64, 54
1, 1352359, Control_c, 0, 67, 95
1, 1352374, Control_c, 0, 67, 95
1, 1352419, Note_on_c, 0, 62, 55
1, 1352422, Note_on_c, 0, 53, 46
1, 1352425, Note_on_c, 0, 84, 59
1, 1352425, Control_c, 0, 67, 95
1, 1352442, Note_off_c, 0, 62, 63
1, 1352449, Note_off_c, 0, 53, 54
1, 1352452, Note_off_c, 0, 84, 68
1, 1352470, Control_c, 0, 67, 97
1, 1352485, Control_c, 0, 67, 101
1, 1352494, Note_on_c, 0, 82, 69
1, 1352523, Note_off_c, 0, 82, 64
1, 1352563, Note_on_c, 0, 81, 66
1, 1352586, Note_on_c, 0, 65, 51
1, 1352594, Note_off_c, 0, 81, 60
1, 1352609, Note_off_c, 0, 65, 58
1, 1352631, Note_on_c, 0, 82, 70
1, 1352683, Note_off_c, 0, 82, 61
1, 1352697, Note_on_c, 0, 84, 83
1, 1352707, Note_on_c, 0, 63, 60
1, 1352707, Control_c, 0, 67, 104
1, 1352716, Note_on_c, 0, 53, 45
1, 1352721, Note_off_c, 0, 84, 65
1, 1352727, Note_off_c, 0, 63, 63
1, 1352746, Note_off_c, 0, 53, 51
1, 1352781, Control_c, 0, 67, 111
1, 1352855, Control_c, 0, 67, 115
1, 1352855, Note_on_c, 0, 65, 52
1, 1352869, Note_on_c, 0, 86, 63
1, 1352870, Control_c, 0, 67, 120
1, 1352890, Note_off_c, 0, 65, 61
1, 1352894, Note_off_c, 0, 86, 69
1, 1352944, Control_c, 0, 67, 124
1, 1352959, Control_c, 0, 67, 127
1, 1353010, Note_on_c, 0, 62, 47
1, 1353023, Note_on_c, 0, 58, 51
1, 1353028, Note_on_c, 0, 82, 56
1, 1353037, Note_off_c, 0, 62, 56
1, 1353056, Note_off_c, 0, 58, 64
1, 1353163, Note_off_c, 0, 82, 63
1, 1353200, Note_on_c, 0, 57, 11
1, 1353245, Note_off_c, 0, 57, 28
1, 1353320, Note_on_c, 0, 55, 57
1, 1353361, Note_off_c, 0, 55, 57
1, 1353489, Note_on_c, 0, 74, 67
1, 1353504, Note_on_c, 0, 53, 28
1, 1353520, Note_off_c, 0, 74, 62
1, 1353543, Note_off_c, 0, 53, 49
1, 1353686, Note_on_c, 0, 79, 62
1, 1353703, Note_on_c, 0, 51, 33
1, 1353747, Note_off_c, 0, 51, 56
1, 1353767, Control_c, 0, 64, 32
1, 1353782, Control_c, 0, 64, 44
1, 1353796, Control_c, 0, 64, 52
1, 1353811, Control_c, 0, 64, 53
1, 1353826, Control_c, 0, 64, 52
1, 1353856, Control_c, 0, 64, 53
1, 1353871, Control_c, 0, 64, 54
1, 1353876, Note_on_c, 0, 55, 46
1, 1353876, Note_on_c, 0, 58, 54
1, 1353908, Control_c, 0, 64, 54
1, 1353916, Note_off_c, 0, 58, 61
1, 1353942, Note_off_c, 0, 55, 41
1, 1353997, Control_c, 0, 64, 53
1, 1354027, Control_c, 0, 64, 52
1, 1354029, Note_off_c, 0, 79, 54
1, 1354042, Control_c, 0, 64, 49
1, 1354056, Control_c, 0, 64, 38
1, 1354063, Note_on_c, 0, 75, 76
1, 1354066, Note_on_c, 0, 48, 53
1, 1354071, Control_c, 0, 64, 0
1, 1354125, Note_off_c, 0, 48, 59
1, 1354145, Control_c, 0, 64, 34
1, 1354160, Control_c, 0, 64, 38
1, 1354175, Control_c, 0, 64, 39
1, 1354190, Control_c, 0, 64, 41
1, 1354205, Control_c, 0, 64, 45
1, 1354220, Control_c, 0, 64, 48
1, 1354235, Control_c, 0, 64, 51
1, 1354245, Note_on_c, 0, 60, 50
1, 1354250, Control_c, 0, 64, 52
1, 1354273, Poly_aftertouch_c, 0, 55, 127
1, 1354274, Note_on_c, 0, 55, 3
1, 1354281, Note_off_c, 0, 60, 64
1, 1354309, Control_c, 0, 64, 52
1, 1354315, Note_off_c, 0, 55, 37
1, 1354354, Control_c, 0, 64, 51
1, 1354369, Control_c, 0, 64, 50
1, 1354379, Note_off_c, 0, 75, 54
1, 1354383, Control_c, 0, 64, 48
1, 1354390, Note_on_c, 0, 53, 66
1, 1354391, Note_on_c, 0, 72, 71
1, 1354398, Control_c, 0, 64, 45
1, 1354413, Control_c, 0, 64, 39
1, 1354421, Note_off_c, 0, 53, 64
1, 1354427, Control_c, 0, 64, 0
1, 1354516, Control_c, 0, 64, 37
1, 1354531, Control_c, 0, 64, 54
1, 1354546, Note_on_c, 0, 57, 65
1, 1354546, Control_c, 0, 64, 64
1, 1354554, Note_on_c, 0, 60, 58
1, 1354561, Control_c, 0, 64, 69
1, 1354575, Control_c, 0, 64, 71
1, 1354579, Note_off_c, 0, 57, 63
1, 1354585, Note_off_c, 0, 60, 64
1, 1354590, Control_c, 0, 64, 72
1, 1354605, Control_c, 0, 64, 73
1, 1354619, Control_c, 0, 64, 74
1, 1354621, Note_off_c, 0, 72, 60
1, 1354634, Control_c, 0, 64, 75
1, 1354672, Control_c, 0, 64, 72
1, 1354688, Control_c, 0, 64, 60
1, 1354703, Control_c, 0, 64, 0
1, 1354707, Note_on_c, 0, 74, 76
1, 1354708, Note_on_c, 0, 51, 56
1, 1354737, Note_off_c, 0, 51, 63
1, 1354741, Note_off_c, 0, 74, 57
1, 1354860, Note_on_c, 0, 57, 56
1, 1354860, Note_on_c, 0, 75, 72
1, 1354873, Note_on_c, 0, 60, 50
1, 1354893, Note_off_c, 0, 57, 65
1, 1354902, Note_off_c, 0, 75, 54
1, 1354903, Note_off_c, 0, 60, 62
1, 1355035, Note_on_c, 0, 77, 67
1, 1355037, Note_on_c, 0, 50, 47
1, 1355043, Control_c, 0, 64, 42
1, 1355058, Control_c, 0, 64, 55
1, 1355072, Control_c, 0, 64, 62
1, 1355074, Note_off_c, 0, 50, 61
1, 1355087, Note_off_c, 0, 77, 54
1, 1355087, Control_c, 0, 64, 63
1, 1355102, Control_c, 0, 64, 64
1, 1355117, Control_c, 0, 64, 64
1, 1355121, Note_on_c, 0, 79, 66
1, 1355132, Control_c, 0, 64, 65
1, 1355162, Control_c, 0, 64, 66
1, 1355184, Note_on_c, 0, 77, 82
1, 1355202, Note_on_c, 0, 58, 41
1, 1355216, Note_on_c, 0, 53, 23
1, 1355223, Note_off_c, 0, 79, 62
1, 1355240, Note_off_c, 0, 58, 50
1, 1355255, Note_off_c, 0, 77, 60
1, 1355256, Note_on_c, 0, 75, 87
1, 1355259, Note_off_c, 0, 53, 50
1, 1355320, Note_off_c, 0, 75, 58
1, 1355325, Control_c, 0, 64, 65
1, 1355326, Note_on_c, 0, 46, 54
1, 1355335, Note_on_c, 0, 74, 86
1, 1355340, Control_c, 0, 64, 64
1, 1355353, Note_off_c, 0, 46, 60
1, 1355355, Control_c, 0, 64, 61
1, 1355370, Control_c, 0, 64, 54
1, 1355378, Note_off_c, 0, 74, 63
1, 1355385, Control_c, 0, 64, 39
1, 1355406, Control_c, 0, 64, 0
1, 1355410, Note_on_c, 0, 75, 82
1, 1355484, Note_off_c, 0, 75, 60
1, 1355486, Note_on_c, 0, 53, 46
1, 1355486, Note_on_c, 0, 74, 80
1, 1355493, Note_on_c, 0, 58, 49
1, 1355513, Note_off_c, 0, 53, 58
1, 1355541, Note_off_c, 0, 74, 61
1, 1355549, Note_off_c, 0, 58, 56
1, 1355558, Note_on_c, 0, 72, 71
1, 1355612, Note_off_c, 0, 72, 56
1, 1355645, Note_on_c, 0, 70, 66
1, 1355653, Note_on_c, 0, 51, 37
1, 1355702, Note_off_c, 0, 51, 46
1, 1355806, Note_on_c, 0, 58, 54
1, 1355808, Note_on_c, 0, 55, 46
1, 1355850, Note_off_c, 0, 58, 58
1, 1355876, Note_off_c, 0, 55, 43
1, 1355945, Note_on_c, 0, 50, 59
1, 1355980, Note_off_c, 0, 50, 63
1, 1355982, Note_off_c, 0, 70, 57
1, 1356096, Note_on_c, 0, 70, 77
1, 1356110, Note_on_c, 0, 58, 66
1, 1356113, Note_on_c, 0, 55, 50
1, 1356151, Note_off_c, 0, 55, 64
1, 1356157, Note_off_c, 0, 58, 58
1, 1356169, Control_c, 0, 64, 35
1, 1356184, Control_c, 0, 64, 50
1, 1356199, Control_c, 0, 64, 58
1, 1356214, Control_c, 0, 64, 58
1, 1356233, Note_off_c, 0, 70, 58
1, 1356244, Control_c, 0, 64, 59
1, 1356259, Control_c, 0, 64, 59
1, 1356289, Control_c, 0, 64, 54
1, 1356304, Control_c, 0, 64, 38
1, 1356305, Note_on_c, 0, 75, 86
1, 1356307, Note_on_c, 0, 48, 63
1, 1356318, Control_c, 0, 64, 0
1, 1356393, Control_c, 0, 64, 28
1, 1356403, Note_off_c, 0, 48, 38
1, 1356408, Control_c, 0, 64, 38
1, 1356423, Control_c, 0, 64, 48
1, 1356438, Control_c, 0, 64, 53
1, 1356452, Control_c, 0, 64, 52
1, 1356467, Control_c, 0, 64, 51
1, 1356469, Note_on_c, 0, 57, 63
1, 1356473, Note_on_c, 0, 51, 62
1, 1356496, Control_c, 0, 64, 52
1, 1356511, Control_c, 0, 64, 52
1, 1356515, Note_off_c, 0, 57, 56
1, 1356517, Note_off_c, 0, 51, 60
1, 1356526, Control_c, 0, 64, 52
1, 1356538, Note_off_c, 0, 75, 54
1, 1356541, Control_c, 0, 64, 48
1, 1356556, Control_c, 0, 64, 40
1, 1356570, Control_c, 0, 64, 0
1, 1356622, Note_on_c, 0, 45, 66
1, 1356626, Note_on_c, 0, 72, 90
1, 1356659, Control_c, 0, 64, 32
1, 1356674, Control_c, 0, 64, 46
1, 1356683, Note_off_c, 0, 45, 48
1, 1356689, Control_c, 0, 64, 51
1, 1356718, Control_c, 0, 64, 51
1, 1356733, Control_c, 0, 64, 54
1, 1356748, Control_c, 0, 64, 58
1, 1356763, Control_c, 0, 64, 61
1, 1356770, Note_on_c, 0, 51, 65
1, 1356772, Note_on_c, 0, 57, 67
1, 1356778, Control_c, 0, 67, 117
1, 1356792, Control_c, 0, 67, 110
1, 1356806, Note_off_c, 0, 51, 64
1, 1356807, Control_c, 0, 67, 108
1, 1356816, Note_off_c, 0, 57, 61
1, 1356822, Control_c, 0, 67, 101
1, 1356837, Control_c, 0, 64, 61
1, 1356837, Control_c, 0, 67, 86
1, 1356852, Control_c, 0, 67, 74
1, 1356867, Control_c, 0, 64, 59
1, 1356867, Control_c, 0, 67, 65
1, 1356882, Control_c, 0, 64, 48
1, 1356882, Control_c, 0, 67, 53
1, 1356903, Control_c, 0, 64, 0
1, 1356903, Control_c, 0, 67, 0
1, 1356934, Note_on_c, 0, 50, 74
1, 1356941, Note_on_c, 0, 69, 88
1, 1356948, Note_off_c, 0, 72, 58
1, 1356973, Note_off_c, 0, 50, 66
1, 1357102, Note_on_c, 0, 54, 72
1, 1357108, Note_on_c, 0, 57, 75
1, 1357127, Note_off_c, 0, 54, 67
1, 1357137, Note_off_c, 0, 57, 67
1, 1357241, Note_on_c, 0, 74, 87
1, 1357243, Note_off_c, 0, 69, 61
1, 1357249, Note_on_c, 0, 62, 75
1, 1357253, Note_on_c, 0, 42, 73
1, 1357272, Note_off_c, 0, 62, 67
1, 1357279, Note_off_c, 0, 74, 63
1, 1357284, Note_off_c, 0, 42, 63
1, 1357395, Note_on_c, 0, 72, 81
1, 1357407, Note_on_c, 0, 50, 47
1, 1357407, Note_on_c, 0, 60, 64
1, 1357412, Note_on_c, 0, 54, 51
1, 1357435, Note_off_c, 0, 72, 67
1, 1357436, Note_off_c, 0, 54, 59
1, 1357436, Note_off_c, 0, 60, 66
1, 1357437, Note_off_c, 0, 50, 55
1, 1357548, Note_on_c, 0, 43, 70
1, 1357550, Note_on_c, 0, 72, 87
1, 1357569, Note_on_c, 0, 60, 59
1, 1357572, Control_c, 0, 64, 58
1, 1357587, Control_c, 0, 64, 64
1, 1357588, Note_off_c, 0, 43, 63
1, 1357594, Note_off_c, 0, 60, 64
1, 1357653, Control_c, 0, 64, 65
1, 1357668, Control_c, 0, 64, 67
1, 1357683, Control_c, 0, 64, 67
1, 1357698, Control_c, 0, 64, 62
1, 1357700, Note_on_c, 0, 55, 71
1, 1357700, Note_off_c, 0, 72, 60
1, 1357705, Note_on_c, 0, 70, 80
1, 1357713, Control_c, 0, 64, 0
1, 1357726, Note_on_c, 0, 58, 66
1, 1357726, Note_off_c, 0, 55, 65
1, 1357748, Note_off_c, 0, 58, 64
1, 1357753, Note_off_c, 0, 70, 62
1, 1357852, Note_on_c, 0, 39, 62
1, 1357859, Note_on_c, 0, 69, 79
1, 1357880, Note_off_c, 0, 39, 58
1, 1357894, Note_on_c, 0, 57, 39
1, 1357901, Note_off_c, 0, 69, 63
1, 1357928, Note_off_c, 0, 57, 32
1, 1358013, Note_on_c, 0, 67, 69
1, 1358018, Note_on_c, 0, 51, 56
1, 1358042, Note_off_c, 0, 67, 63
1, 1358044, Note_off_c, 0, 51, 57
1, 1358059, Note_on_c, 0, 55, 13
1, 1358096, Note_off_c, 0, 55, 28
1, 1358155, Note_on_c, 0, 36, 77
1, 1358161, Note_on_c, 0, 70, 85
1, 1358173, Control_c, 0, 64, 44
1, 1358188, Note_on_c, 0, 58, 59
1, 1358188, Control_c, 0, 64, 68
1, 1358202, Control_c, 0, 64, 73
1, 1358209, Note_off_c, 0, 58, 64
1, 1358212, Note_off_c, 0, 36, 58
1, 1358217, Control_c, 0, 64, 74
1, 1358232, Control_c, 0, 64, 75
1, 1358247, Control_c, 0, 64, 78
1, 1358250, Note_off_c, 0, 70, 58
1, 1358262, Control_c, 0, 64, 81
1, 1358276, Control_c, 0, 64, 81
1, 1358291, Control_c, 0, 64, 75
1, 1358306, Control_c, 0, 64, 57
1, 1358307, Note_on_c, 0, 48, 79
1, 1358316, Note_on_c, 0, 69, 79
1, 1358321, Control_c, 0, 64, 0
1, 1358336, Note_off_c, 0, 48, 65
1, 1358340, Note_on_c, 0, 57, 48
1, 1358354, Note_off_c, 0, 69, 64
1, 1358367, Note_off_c, 0, 57, 54
1, 1358461, Note_on_c, 0, 38, 67
1, 1358468, Note_on_c, 0, 67, 80
1, 1358483, Note_on_c, 0, 55, 57
1, 1358493, Note_off_c, 0, 38, 62
1, 1358503, Note_off_c, 0, 67, 62
1, 1358510, Note_off_c, 0, 55, 57
1, 1358608, Note_on_c, 0, 66, 85
1, 1358614, Note_on_c, 0, 50, 76
1, 1358629, Note_on_c, 0, 54, 57
1, 1358644, Note_off_c, 0, 50, 67
1, 1358655, Note_off_c, 0, 54, 64
1, 1358659, Note_off_c, 0, 66, 63
1, 1358756, Note_on_c, 0, 39, 87
1, 1358756, Note_on_c, 0, 67, 85
1, 1358757, Note_on_c, 0, 51, 92
1, 1358769, Note_on_c, 0, 55, 65
1, 1358778, Note_off_c, 0, 39, 67
1, 1358778, Note_off_c, 0, 51, 71
1, 1358787, Note_off_c, 0, 67, 63
1, 1358791, Note_off_c, 0, 55, 60
1, 1359075, Note_on_c, 0, 74, 90
1, 1359078, Note_on_c, 0, 69, 84
1, 1359079, Note_on_c, 0, 50, 81
1, 1359079, Note_on_c, 0, 54, 87
1, 1359079, Note_on_c, 0, 62, 87
1, 1359089, Note_on_c, 0, 42, 77
1, 1359359, Control_c, 0, 64, 33
1, 1359373, Control_c, 0, 64, 77
1, 1359388, Control_c, 0, 64, 127
1, 1359422, Note_off_c, 0, 62, 64
1, 1359449, Note_off_c, 0, 69, 63
1, 1359548, Note_on_c, 0, 75, 92
1, 1359553, Note_on_c, 0, 63, 85
1, 1359568, Note_off_c, 0, 74, 65
1, 1359575, Note_off_c, 0, 63, 69
1, 1359594, Note_off_c, 0, 75, 66
1, 1359654, Control_c, 0, 64, 90
1, 1359669, Control_c, 0, 64, 61
1, 1359684, Control_c, 0, 64, 0
1, 1359705, Note_on_c, 0, 74, 95
1, 1359711, Note_on_c, 0, 62, 84
1, 1359732, Note_off_c, 0, 62, 72
1, 1359745, Note_off_c, 0, 74, 67
1, 1359852, Note_on_c, 0, 72, 86
1, 1359859, Note_on_c, 0, 60, 74
1, 1359881, Note_off_c, 0, 60, 69
1, 1359899, Note_off_c, 0, 72, 67
1, 1359902, Note_off_c, 0, 54, 58
1, 1359903, Note_off_c, 0, 42, 59
1, 1359947, Note_off_c, 0, 50, 46
1, 1360010, Note_on_c, 0, 72, 91
1, 1360013, Note_on_c, 0, 43, 81
1, 1360019, Note_on_c, 0, 60, 66
1, 1360033, Control_c, 0, 64, 58
1, 1360047, Control_c, 0, 64, 73
1, 1360062, Control_c, 0, 64, 90
1, 1360073, Note_off_c, 0, 60, 63
1, 1360077, Control_c, 0, 64, 127
1, 1360140, Note_off_c, 0, 43, 61
1, 1360165, Control_c, 0, 64, 97
1, 1360169, Note_on_c, 0, 55, 81
1, 1360173, Note_on_c, 0, 70, 87
1, 1360180, Note_on_c, 0, 58, 80
1, 1360180, Control_c, 0, 64, 63
1, 1360193, Note_off_c, 0, 72, 66
1, 1360195, Control_c, 0, 64, 0
1, 1360198, Note_off_c, 0, 55, 66
1, 1360203, Note_off_c, 0, 58, 67
1, 1360222, Note_off_c, 0, 70, 65
1, 1360317, Note_on_c, 0, 39, 70
1, 1360318, Note_on_c, 0, 69, 84
1, 1360340, Note_on_c, 0, 57, 55
1, 1360348, Note_off_c, 0, 39, 64
1, 1360352, Note_off_c, 0, 69, 64
1, 1360364, Note_off_c, 0, 57, 56
1, 1360461, Note_on_c, 0, 67, 89
1, 1360464, Note_on_c, 0, 51, 81
1, 1360470, Note_on_c, 0, 55, 72
1, 1360491, Note_off_c, 0, 51, 68
1, 1360497, Note_off_c, 0, 55, 64
1, 1360501, Note_off_c, 0, 67, 64
1, 1360616, Note_on_c, 0, 36, 83
1, 1360620, Note_on_c, 0, 68, 97
1, 1360631, Note_on_c, 0, 56, 83
1, 1360680, Note_off_c, 0, 36, 63
1, 1360691, Note_off_c, 0, 56, 60
1, 1360719, Note_off_c, 0, 68, 64
1, 1360775, Note_on_c, 0, 48, 95
1, 1360819, Note_off_c, 0, 48, 65
1, 1360945, Note_on_c, 0, 38, 86
1, 1360946, Note_on_c, 0, 66, 95
1, 1360957, Note_on_c, 0, 54, 80
1, 1361010, Note_off_c, 0, 38, 62
1, 1361021, Note_off_c, 0, 54, 52
1, 1361076, Note_off_c, 0, 66, 64
1, 1361085, Note_on_c, 0, 50, 85
1, 1361122, Note_off_c, 0, 50, 66
1, 1361270, Note_on_c, 0, 67, 87
1, 1361273, Note_on_c, 0, 43, 87
1, 1361276, Note_on_c, 0, 31, 76
1, 1361278, Note_on_c, 0, 55, 82
1, 1361366, Note_off_c, 0, 31, 64
1, 1361394, Note_off_c, 0, 43, 63
1, 1361469, Note_off_c, 0, 55, 65
1, 1361500, Control_c, 0, 67, 42
1, 1361512, Note_off_c, 0, 67, 49
1, 1361515, Control_c, 0, 67, 60
1, 1361530, Control_c, 0, 67, 58
1, 1361545, Control_c, 0, 67, 59
1, 1361560, Control_c, 0, 67, 64
1, 1361574, Control_c, 0, 67, 75
1, 1361589, Control_c, 0, 67, 98
1, 1361604, Control_c, 0, 67, 106
1, 1361633, Control_c, 0, 67, 111
1, 1361648, Control_c, 0, 67, 127
1, 1362234, Note_on_c, 0, 67, 75
1, 1362268, Note_on_c, 0, 55, 48
1, 1362308, Control_c, 0, 64, 34
1, 1362322, Control_c, 0, 64, 48
1, 1362337, Control_c, 0, 64, 56
1, 1362352, Control_c, 0, 64, 57
1, 1362397, Control_c, 0, 64, 58
1, 1362411, Control_c, 0, 64, 60
1, 1362426, Control_c, 0, 64, 63
1, 1362441, Control_c, 0, 64, 64
1, 1362456, Control_c, 0, 64, 65
1, 1362471, Control_c, 0, 64, 66
1, 1362486, Control_c, 0, 64, 69
1, 1362501, Control_c, 0, 64, 73
1, 1362515, Control_c, 0, 64, 79
1, 1362530, Control_c, 0, 64, 87
1, 1362545, Control_c, 0, 64, 96
1, 1362560, Control_c, 0, 64, 111
1, 1362574, Control_c, 0, 64, 127
1, 1362790, Note_off_c, 0, 55, 40
1, 1362903, Note_off_c, 0, 67, 58
1, 1363757, Note_on_c, 0, 74, 46
1, 1363791, Note_off_c, 0, 74, 53
1, 1363835, Control_c, 0, 64, 110
1, 1363850, Control_c, 0, 64, 99
1, 1363865, Control_c, 0, 64, 94
1, 1363880, Control_c, 0, 64, 92
1, 1363894, Control_c, 0, 64, 89
1, 1363909, Control_c, 0, 64, 85
1, 1363924, Control_c, 0, 64, 78
1, 1363939, Control_c, 0, 64, 71
1, 1363954, Control_c, 0, 64, 65
1, 1363969, Control_c, 0, 64, 62
1, 1363984, Control_c, 0, 64, 61
1, 1363994, Note_on_c, 0, 72, 43
1, 1363999, Control_c, 0, 64, 59
1, 1364005, Note_on_c, 0, 55, 33
1, 1364013, Control_c, 0, 64, 57
1, 1364028, Control_c, 0, 64, 52
1, 1364043, Control_c, 0, 64, 47
1, 1364058, Control_c, 0, 64, 43
1, 1364073, Control_c, 0, 64, 41
1, 1364087, Control_c, 0, 64, 37
1, 1364102, Control_c, 0, 64, 29
1, 1364117, Control_c, 0, 64, 0
1, 1364187, Note_on_c, 0, 71, 52
1, 1364189, Note_off_c, 0, 72, 52
1, 1364192, Note_off_c, 0, 55, 17
1, 1364200, Note_on_c, 0, 67, 40
1, 1364215, Note_off_c, 0, 71, 62
1, 1364232, Note_off_c, 0, 67, 58
1, 1364365, Note_on_c, 0, 71, 60
1, 1364369, Note_on_c, 0, 62, 39
1, 1364391, Note_on_c, 0, 65, 23
1, 1364404, Note_off_c, 0, 71, 63
1, 1364407, Note_off_c, 0, 62, 51
1, 1364433, Note_off_c, 0, 65, 29
1, 1364534, Note_on_c, 0, 67, 59
1, 1364547, Note_on_c, 0, 71, 59
1, 1364564, Note_off_c, 0, 67, 63
1, 1364580, Note_off_c, 0, 71, 63
1, 1364723, Note_on_c, 0, 71, 51
1, 1364725, Note_on_c, 0, 55, 44
1, 1364757, Note_off_c, 0, 55, 59
1, 1364766, Note_off_c, 0, 71, 61
1, 1364785, Note_on_c, 0, 72, 53
1, 1364832, Note_off_c, 0, 72, 60
1, 1364886, Note_on_c, 0, 79, 45
1, 1364889, Note_on_c, 0, 67, 38
1, 1364921, Note_off_c, 0, 67, 55
1, 1365072, Note_off_c, 0, 79, 58
1, 1365093, Note_on_c, 0, 63, 54
1, 1365100, Note_on_c, 0, 77, 57
1, 1365139, Note_off_c, 0, 63, 62
1, 1365172, Note_on_c, 0, 75, 68
1, 1365195, Note_off_c, 0, 77, 61
1, 1365221, Note_off_c, 0, 75, 56
1, 1365252, Note_on_c, 0, 74, 66
1, 1365261, Note_on_c, 0, 67, 52
1, 1365290, Note_off_c, 0, 74, 61
1, 1365292, Note_off_c, 0, 67, 63
1, 1365332, Note_on_c, 0, 72, 56
1, 1365353, Note_off_c, 0, 72, 62
1, 1365414, Note_on_c, 0, 55, 56
1, 1365416, Note_on_c, 0, 72, 67
1, 1365440, Note_off_c, 0, 55, 59
1, 1365580, Note_on_c, 0, 67, 60
1, 1365591, Note_off_c, 0, 72, 60
1, 1365592, Note_on_c, 0, 71, 61
1, 1365610, Note_off_c, 0, 67, 64
1, 1365620, Note_off_c, 0, 71, 65
1, 1365729, Note_on_c, 0, 71, 64
1, 1365746, Note_on_c, 0, 62, 42
1, 1365746, Note_on_c, 0, 65, 42
1, 1365758, Note_off_c, 0, 71, 65
1, 1365774, Note_off_c, 0, 65, 56
1, 1365775, Note_off_c, 0, 62, 53
1, 1365908, Note_on_c, 0, 71, 66
1, 1365921, Note_on_c, 0, 67, 35
1, 1365936, Note_off_c, 0, 71, 67
1, 1365953, Note_off_c, 0, 67, 51
1, 1366063, Note_on_c, 0, 71, 55
1, 1366090, Note_on_c, 0, 55, 39
1, 1366141, Note_off_c, 0, 55, 55
1, 1366157, Control_c, 0, 64, 29
1, 1366171, Control_c, 0, 64, 37
1, 1366186, Control_c, 0, 64, 44
1, 1366201, Control_c, 0, 64, 42
1, 1366215, Control_c, 0, 64, 0
1, 1366227, Note_on_c, 0, 67, 54
1, 1366230, Note_on_c, 0, 72, 66
1, 1366236, Note_off_c, 0, 71, 63
1, 1366254, Note_off_c, 0, 72, 66
1, 1366259, Note_off_c, 0, 67, 63
1, 1366382, Note_on_c, 0, 54, 45
1, 1366383, Note_on_c, 0, 60, 38
1, 1366385, Note_on_c, 0, 63, 51
1, 1366408, Note_off_c, 0, 63, 59
1, 1366409, Note_off_c, 0, 54, 61
1, 1366412, Note_off_c, 0, 60, 56
1, 1366538, Note_on_c, 0, 66, 59
1, 1366543, Note_on_c, 0, 75, 65
1, 1366561, Note_off_c, 0, 66, 65
1, 1366570, Note_off_c, 0, 75, 67
1, 1366712, Control_c, 0, 64, 29
1, 1366721, Note_on_c, 0, 53, 48
1, 1366727, Control_c, 0, 64, 44
1, 1366728, Note_on_c, 0, 72, 60
1, 1366742, Control_c, 0, 64, 51
1, 1366757, Control_c, 0, 64, 53
1, 1366772, Control_c, 0, 64, 53
1, 1366786, Control_c, 0, 64, 55
1, 1366801, Control_c, 0, 64, 58
1, 1366816, Control_c, 0, 64, 60
1, 1366830, Control_c, 0, 64, 61
1, 1366845, Control_c, 0, 64, 61
1, 1366860, Control_c, 0, 64, 53
1, 1366875, Control_c, 0, 64, 0
1, 1366880, Note_on_c, 0, 70, 73
1, 1366882, Note_on_c, 0, 65, 61
1, 1366887, Note_off_c, 0, 72, 63
1, 1366907, Note_off_c, 0, 70, 64
1, 1366909, Note_off_c, 0, 65, 65
1, 1366925, Note_off_c, 0, 53, 36
1, 1367038, Note_on_c, 0, 62, 63
1, 1367044, Note_on_c, 0, 70, 57
1, 1367062, Note_off_c, 0, 62, 64
1, 1367065, Note_off_c, 0, 70, 64
1, 1367196, Note_on_c, 0, 70, 54
1, 1367208, Note_on_c, 0, 65, 57
1, 1367229, Note_off_c, 0, 70, 66
1, 1367237, Note_off_c, 0, 65, 65
1, 1367366, Note_on_c, 0, 55, 56
1, 1367374, Note_on_c, 0, 72, 62
1, 1367479, Note_off_c, 0, 55, 33
1, 1367531, Note_on_c, 0, 70, 67
1, 1367537, Note_on_c, 0, 64, 51
1, 1367538, Note_off_c, 0, 72, 62
1, 1367560, Note_off_c, 0, 70, 65
1, 1367568, Note_off_c, 0, 64, 64
1, 1367689, Note_on_c, 0, 70, 62
1, 1367698, Note_on_c, 0, 60, 42
1, 1367718, Note_off_c, 0, 70, 67
1, 1367729, Note_off_c, 0, 60, 54
1, 1367836, Note_on_c, 0, 70, 64
1, 1367852, Note_on_c, 0, 64, 50
1, 1367865, Note_off_c, 0, 70, 66
1, 1367875, Note_off_c, 0, 64, 61
1, 1367997, Note_on_c, 0, 62, 52
1, 1368004, Note_on_c, 0, 72, 50
1, 1368004, Note_on_c, 0, 53, 38
1, 1368024, Note_off_c, 0, 62, 59
1, 1368027, Note_off_c, 0, 72, 60
1, 1368036, Note_off_c, 0, 53, 48
1, 1368060, Note_on_c, 0, 70, 70
1, 1368100, Note_off_c, 0, 70, 63
1, 1368148, Note_on_c, 0, 69, 70
1, 1368169, Note_on_c, 0, 65, 56
1, 1368176, Note_off_c, 0, 69, 60
1, 1368191, Note_off_c, 0, 65, 63
1, 1368214, Note_on_c, 0, 70, 72
1, 1368252, Note_off_c, 0, 70, 61
1, 1368288, Note_on_c, 0, 72, 78
1, 1368293, Note_on_c, 0, 53, 55
1, 1368293, Note_on_c, 0, 63, 65
1, 1368309, Note_off_c, 0, 72, 71
1, 1368314, Note_off_c, 0, 63, 65
1, 1368317, Note_off_c, 0, 53, 61
1, 1368445, Note_on_c, 0, 65, 62
1, 1368453, Note_on_c, 0, 74, 63
1, 1368472, Note_off_c, 0, 74, 65
1, 1368475, Note_off_c, 0, 65, 65
1, 1368594, Note_on_c, 0, 58, 67
1, 1368598, Note_on_c, 0, 62, 55
1, 1368618, Note_on_c, 0, 70, 59
1, 1368620, Note_off_c, 0, 62, 60
1, 1368633, Note_off_c, 0, 58, 63
1, 1368752, Note_on_c, 0, 57, 57
1, 1368785, Note_off_c, 0, 57, 64
1, 1368806, Note_off_c, 0, 70, 64
1, 1368903, Note_on_c, 0, 55, 62
1, 1368935, Note_off_c, 0, 55, 60
1, 1369063, Note_on_c, 0, 74, 77
1, 1369065, Note_on_c, 0, 53, 60
1, 1369095, Note_off_c, 0, 74, 64
1, 1369100, Note_off_c, 0, 53, 54
1, 1369253, Note_on_c, 0, 79, 84
1, 1369264, Note_on_c, 0, 51, 50
1, 1369319, Note_off_c, 0, 51, 57
1, 1369423, Note_on_c, 0, 55, 54
1, 1369427, Note_on_c, 0, 58, 52
1, 1369451, Note_off_c, 0, 58, 59
1, 1369467, Note_off_c, 0, 55, 52
1, 1369476, Note_off_c, 0, 79, 62
1, 1369574, Note_on_c, 0, 48, 60
1, 1369578, Note_on_c, 0, 75, 85
1, 1369705, Note_off_c, 0, 48, 37
1, 1369747, Note_on_c, 0, 55, 46
1, 1369751, Note_on_c, 0, 60, 50
1, 1369775, Note_off_c, 0, 55, 54
1, 1369796, Note_off_c, 0, 60, 60
1, 1369811, Note_off_c, 0, 75, 59
1, 1369898, Note_on_c, 0, 53, 58
1, 1369900, Note_on_c, 0, 72, 78
1, 1369928, Note_off_c, 0, 53, 63
1, 1370052, Note_on_c, 0, 57, 56
1, 1370058, Note_on_c, 0, 60, 54
1, 1370075, Note_off_c, 0, 57, 63
1, 1370094, Note_off_c, 0, 60, 64
1, 1370118, Note_off_c, 0, 72, 62
1, 1370200, Note_on_c, 0, 51, 57
1, 1370203, Note_on_c, 0, 74, 81
1, 1370230, Note_off_c, 0, 51, 63
1, 1370236, Note_off_c, 0, 74, 65
1, 1370356, Note_on_c, 0, 75, 80
1, 1370362, Note_on_c, 0, 57, 52
1, 1370379, Note_on_c, 0, 60, 48
1, 1370391, Note_off_c, 0, 57, 60
1, 1370405, Note_off_c, 0, 60, 61
1, 1370412, Note_off_c, 0, 75, 61
1, 1370538, Note_on_c, 0, 77, 69
1, 1370539, Note_on_c, 0, 50, 47
1, 1370575, Note_off_c, 0, 50, 64
1, 1370590, Note_off_c, 0, 77, 55
1, 1370612, Note_on_c, 0, 79, 75
1, 1370681, Note_on_c, 0, 77, 86
1, 1370697, Note_on_c, 0, 58, 47
1, 1370698, Note_on_c, 0, 53, 48
1, 1370730, Note_off_c, 0, 79, 60
1, 1370734, Note_off_c, 0, 58, 54
1, 1370740, Note_off_c, 0, 53, 59
1, 1370749, Note_on_c, 0, 75, 91
1, 1370755, Note_off_c, 0, 77, 62
1, 1370817, Note_on_c, 0, 46, 56
1, 1370830, Note_on_c, 0, 74, 90
1, 1370833, Note_off_c, 0, 75, 59
1, 1370870, Note_off_c, 0, 46, 51
1, 1370883, Note_off_c, 0, 74, 57
1, 1370906, Note_on_c, 0, 75, 86
1, 1370973, Note_on_c, 0, 53, 55
1, 1370976, Note_on_c, 0, 74, 86
1, 1370983, Note_off_c, 0, 75, 64
1, 1370990, Note_on_c, 0, 58, 46
1, 1371005, Note_off_c, 0, 53, 63
1, 1371034, Note_off_c, 0, 74, 62
1, 1371038, Note_off_c, 0, 58, 57
1, 1371052, Note_on_c, 0, 72, 84
1, 1371107, Note_off_c, 0, 72, 59
1, 1371141, Note_on_c, 0, 70, 80
1, 1371143, Note_on_c, 0, 51, 51
1, 1371184, Note_off_c, 0, 51, 55
1, 1371296, Note_on_c, 0, 55, 53
1, 1371298, Note_on_c, 0, 58, 52
1, 1371335, Note_off_c, 0, 58, 62
1, 1371354, Note_off_c, 0, 55, 50
1, 1371443, Note_on_c, 0, 50, 53
1, 1371503, Note_off_c, 0, 70, 53
1, 1371528, Note_off_c, 0, 50, 55
1, 1371620, Note_on_c, 0, 55, 39
1, 1371628, Note_on_c, 0, 70, 61
1, 1371639, Note_on_c, 0, 58, 42
1, 1371671, Note_off_c, 0, 70, 65
1, 1371694, Note_off_c, 0, 58, 53
1, 1371695, Note_off_c, 0, 55, 50
1, 1371810, Note_on_c, 0, 48, 49
1, 1371840, Note_on_c, 0, 75, 50
1, 1371995, Note_off_c, 0, 48, 36
1, 1371995, Note_on_c, 0, 56, 46
1, 1372001, Note_on_c, 0, 60, 32
1, 1372043, Note_off_c, 0, 60, 50
1, 1372057, Note_off_c, 0, 56, 52
1, 1372141, Note_on_c, 0, 51, 45
1, 1372153, Note_on_c, 0, 72, 58
1, 1372170, Note_off_c, 0, 51, 56
1, 1372272, Note_off_c, 0, 75, 31
1, 1372302, Note_on_c, 0, 56, 48
1, 1372304, Note_on_c, 0, 60, 45
1, 1372337, Note_off_c, 0, 56, 55
1, 1372340, Note_off_c, 0, 60, 56
1, 1372460, Note_off_c, 0, 72, 52
1, 1372464, Note_on_c, 0, 48, 39
1, 1372471, Note_on_c, 0, 68, 52
1, 1372502, Note_off_c, 0, 48, 54
1, 1372610, Note_on_c, 0, 56, 38
1, 1372634, Note_on_c, 0, 60, 22
1, 1372669, Note_off_c, 0, 56, 56
1, 1372676, Note_off_c, 0, 60, 44
1, 1372776, Note_on_c, 0, 70, 55
1, 1372809, Poly_aftertouch_c, 0, 51, 127
1, 1372848, Poly_aftertouch_c, 0, 51, 0
1, 1372914, Note_off_c, 0, 68, 49
1, 1372925, Note_on_c, 0, 72, 56
1, 1372937, Note_off_c, 0, 70, 56
1, 1372946, Note_on_c, 0, 60, 10
1, 1372999, Note_off_c, 0, 60, 39
1, 1373001, Poly_aftertouch_c, 0, 56, 0
1, 1373095, Note_on_c, 0, 49, 50
1, 1373115, Note_on_c, 0, 75, 57
1, 1373116, Note_off_c, 0, 72, 53
1, 1373132, Note_off_c, 0, 49, 62
1, 1373250, Note_on_c, 0, 58, 54
1, 1373255, Note_on_c, 0, 55, 41
1, 1373276, Note_off_c, 0, 58, 62
1, 1373288, Note_off_c, 0, 55, 53
1, 1373421, Note_on_c, 0, 51, 37
1, 1373431, Note_on_c, 0, 73, 56
1, 1373456, Note_off_c, 0, 51, 51
1, 1373549, Note_off_c, 0, 73, 62
1, 1373553, Note_off_c, 0, 75, 58
1, 1373571, Note_on_c, 0, 72, 61
1, 1373584, Note_on_c, 0, 55, 38
1, 1373590, Note_on_c, 0, 58, 45
1, 1373630, Note_off_c, 0, 58, 56
1, 1373640, Note_off_c, 0, 55, 41
1, 1373733, Note_on_c, 0, 49, 51
1, 1373742, Note_on_c, 0, 70, 69
1, 1373793, Note_off_c, 0, 49, 53
1, 1373820, Note_off_c, 0, 72, 37
1, 1373890, Note_on_c, 0, 55, 52
1, 1373894, Note_on_c, 0, 58, 57
1, 1373923, Note_off_c, 0, 55, 59
1, 1373924, Note_off_c, 0, 70, 62
1, 1373927, Note_off_c, 0, 58, 64
1, 1374049, Note_on_c, 0, 72, 65
1, 1374052, Note_on_c, 0, 51, 53
1, 1374076, Note_off_c, 0, 72, 67
1, 1374085, Note_off_c, 0, 51, 61
1, 1374207, Note_on_c, 0, 73, 61
1, 1374210, Note_on_c, 0, 55, 50
1, 1374222, Note_on_c, 0, 58, 43
1, 1374237, Note_off_c, 0, 73, 64
1, 1374272, Note_off_c, 0, 55, 47
1, 1374291, Note_off_c, 0, 58, 56
1, 1374367, Note_on_c, 0, 75, 67
1, 1374382, Note_on_c, 0, 48, 58
1, 1374407, Note_off_c, 0, 75, 57
1, 1374435, Note_off_c, 0, 48, 53
1, 1374444, Note_on_c, 0, 77, 71
1, 1374507, Note_on_c, 0, 75, 80
1, 1374525, Note_on_c, 0, 56, 59
1, 1374529, Note_on_c, 0, 60, 49
1, 1374543, Note_off_c, 0, 77, 61
1, 1374568, Note_off_c, 0, 60, 57
1, 1374576, Note_on_c, 0, 73, 78
1, 1374588, Note_off_c, 0, 56, 45
1, 1374606, Note_off_c, 0, 75, 59
1, 1374634, Note_off_c, 0, 73, 62
1, 1374656, Note_on_c, 0, 72, 80
1, 1374670, Note_on_c, 0, 51, 52
1, 1374696, Note_off_c, 0, 51, 59
1, 1374700, Note_off_c, 0, 72, 63
1, 1374738, Note_on_c, 0, 73, 67
1, 1374773, Note_off_c, 0, 73, 61
1, 1374803, Note_on_c, 0, 72, 74
1, 1374825, Note_on_c, 0, 56, 42
1, 1374854, Note_off_c, 0, 56, 54
1, 1374863, Note_off_c, 0, 72, 52
1, 1374884, Poly_aftertouch_c, 0, 60, 127
1, 1374892, Note_on_c, 0, 70, 68
1, 1374917, Poly_aftertouch_c, 0, 60, 0
1, 1374970, Note_off_c, 0, 70, 60
1, 1374973, Note_on_c, 0, 48, 56
1, 1374976, Note_on_c, 0, 68, 64
1, 1375010, Note_off_c, 0, 48, 56
1, 1375106, Note_off_c, 0, 68, 63
1, 1375116, Note_on_c, 0, 56, 55
1, 1375124, Note_on_c, 0, 60, 50
1, 1375152, Note_off_c, 0, 56, 62
1, 1375156, Note_off_c, 0, 60, 59
1, 1375230, Control_c, 0, 67, 112
1, 1375244, Control_c, 0, 67, 97
1, 1375259, Control_c, 0, 67, 92
1, 1375280, Note_on_c, 0, 51, 46
1, 1375281, Note_on_c, 0, 70, 60
1, 1375310, Note_off_c, 0, 70, 67
1, 1375313, Note_off_c, 0, 51, 54
1, 1375334, Control_c, 0, 67, 93
1, 1375349, Control_c, 0, 67, 93
1, 1375378, Control_c, 0, 67, 92
1, 1375393, Control_c, 0, 67, 91
1, 1375432, Note_on_c, 0, 56, 47
1, 1375433, Note_on_c, 0, 72, 64
1, 1375446, Note_on_c, 0, 60, 35
1, 1375453, Control_c, 0, 67, 90
1, 1375459, Note_off_c, 0, 56, 57
1, 1375464, Note_off_c, 0, 72, 64
1, 1375468, Control_c, 0, 67, 89
1, 1375477, Note_off_c, 0, 60, 52
1, 1375498, Control_c, 0, 67, 90
1, 1375527, Control_c, 0, 67, 88
1, 1375542, Control_c, 0, 67, 87
1, 1375572, Control_c, 0, 67, 88
1, 1375587, Control_c, 0, 67, 87
1, 1375601, Control_c, 0, 67, 86
1, 1375603, Note_on_c, 0, 75, 66
1, 1375620, Note_on_c, 0, 49, 49
1, 1375623, Control_c, 0, 67, 85
1, 1375653, Control_c, 0, 67, 84
1, 1375668, Control_c, 0, 67, 79
1, 1375682, Control_c, 0, 67, 64
1, 1375688, Note_off_c, 0, 49, 52
1, 1375697, Control_c, 0, 67, 53
1, 1375712, Control_c, 0, 67, 49
1, 1375742, Control_c, 0, 67, 47
1, 1375757, Control_c, 0, 67, 44
1, 1375766, Note_on_c, 0, 73, 66
1, 1375766, Note_on_c, 0, 55, 55
1, 1375770, Note_off_c, 0, 75, 62
1, 1375772, Control_c, 0, 67, 39
1, 1375773, Note_on_c, 0, 58, 54
1, 1375787, Control_c, 0, 67, 0
1, 1375793, Note_off_c, 0, 73, 65
1, 1375796, Note_off_c, 0, 58, 61
1, 1375798, Note_off_c, 0, 55, 62
1, 1375918, Note_on_c, 0, 51, 63
1, 1375937, Note_on_c, 0, 73, 54
1, 1375956, Note_off_c, 0, 51, 59
1, 1375981, Note_off_c, 0, 73, 55
1, 1375997, Note_on_c, 0, 75, 71
1, 1376069, Note_on_c, 0, 73, 72
1, 1376079, Note_on_c, 0, 55, 54
1, 1376087, Note_off_c, 0, 75, 62
1, 1376099, Note_on_c, 0, 58, 51
1, 1376124, Note_on_c, 0, 72, 72
1, 1376127, Note_off_c, 0, 58, 59
1, 1376133, Note_off_c, 0, 55, 53
1, 1376171, Note_off_c, 0, 73, 52
1, 1376176, Note_off_c, 0, 72, 62
1, 1376198, Note_on_c, 0, 70, 82
1, 1376210, Note_on_c, 0, 49, 67
1, 1376218, Note_off_c, 0, 70, 72
1, 1376239, Note_off_c, 0, 49, 65
1, 1376358, Note_on_c, 0, 75, 78
1, 1376359, Note_on_c, 0, 55, 57
1, 1376376, Note_on_c, 0, 58, 58
1, 1376386, Note_off_c, 0, 75, 71
1, 1376395, Note_off_c, 0, 55, 62
1, 1376398, Note_off_c, 0, 58, 62
1, 1376524, Note_on_c, 0, 51, 59
1, 1376530, Note_on_c, 0, 77, 65
1, 1376549, Note_off_c, 0, 77, 67
1, 1376552, Note_off_c, 0, 51, 64
1, 1376678, Note_on_c, 0, 55, 48
1, 1376679, Note_on_c, 0, 79, 60
1, 1376701, Note_on_c, 0, 58, 27
1, 1376702, Note_off_c, 0, 79, 66
1, 1376714, Note_off_c, 0, 55, 48
1, 1376739, Note_off_c, 0, 58, 30
1, 1376848, Note_on_c, 0, 80, 78
1, 1376866, Note_on_c, 0, 48, 55
1, 1376887, Note_on_c, 0, 68, 31
1, 1376943, Note_off_c, 0, 68, 0
1, 1376943, Note_on_c, 0, 68, 6
1, 1376973, Note_off_c, 0, 48, 31
1, 1376995, Note_on_c, 0, 56, 62
1, 1377004, Note_on_c, 0, 60, 48
1, 1377027, Note_off_c, 0, 56, 63
1, 1377030, Note_off_c, 0, 60, 60
1, 1377039, Note_off_c, 0, 68, 53
1, 1377163, Note_on_c, 0, 51, 54
1, 1377188, Note_off_c, 0, 51, 59
1, 1377313, Note_on_c, 0, 56, 59
1, 1377324, Note_on_c, 0, 60, 49
1, 1377345, Note_off_c, 0, 56, 64
1, 1377350, Note_off_c, 0, 60, 62
1, 1377483, Note_on_c, 0, 84, 82
1, 1377489, Note_on_c, 0, 48, 66
1, 1377501, Note_on_c, 0, 72, 51
1, 1377520, Note_off_c, 0, 48, 63
1, 1377602, Note_off_c, 0, 72, 61
1, 1377623, Note_on_c, 0, 56, 64
1, 1377623, Note_off_c, 0, 80, 61
1, 1377635, Note_on_c, 0, 60, 57
1, 1377657, Note_off_c, 0, 56, 64
1, 1377669, Control_c, 0, 64, 37
1, 1377670, Note_off_c, 0, 60, 63
1, 1377684, Control_c, 0, 64, 38
1, 1377713, Control_c, 0, 64, 40
1, 1377728, Control_c, 0, 64, 50
1, 1377743, Control_c, 0, 64, 60
1, 1377757, Control_c, 0, 64, 66
1, 1377772, Control_c, 0, 64, 71
1, 1377782, Note_on_c, 0, 51, 64
1, 1377787, Control_c, 0, 64, 79
1, 1377802, Control_c, 0, 64, 95
1, 1377812, Note_off_c, 0, 51, 63
1, 1377817, Control_c, 0, 64, 127
1, 1377941, Note_on_c, 0, 80, 82
1, 1377944, Note_on_c, 0, 56, 62
1, 1377949, Poly_aftertouch_c, 0, 83, 127
1, 1377952, Note_on_c, 0, 60, 54
1, 1377978, Note_off_c, 0, 56, 63
1, 1377981, Note_on_c, 0, 68, 37
1, 1377986, Note_off_c, 0, 60, 62
1, 1377989, Note_off_c, 0, 84, 62
1, 1378004, Poly_aftertouch_c, 0, 83, 0
1, 1378012, Note_off_c, 0, 68, 54
1, 1378017, Note_off_c, 0, 80, 56
1, 1378110, Note_on_c, 0, 80, 85
1, 1378112, Note_on_c, 0, 49, 62
1, 1378136, Control_c, 0, 64, 76
1, 1378151, Control_c, 0, 64, 42
1, 1378157, Note_on_c, 0, 68, 5
1, 1378166, Control_c, 0, 64, 0
1, 1378169, Note_off_c, 0, 49, 51
1, 1378207, Note_off_c, 0, 68, 34
1, 1378263, Note_on_c, 0, 55, 60
1, 1378264, Note_on_c, 0, 58, 59
1, 1378293, Note_off_c, 0, 58, 64
1, 1378309, Note_off_c, 0, 55, 46
1, 1378411, Note_on_c, 0, 52, 60
1, 1378418, Control_c, 0, 67, 39
1, 1378425, Note_on_c, 0, 79, 63
1, 1378442, Note_on_c, 0, 67, 48
1, 1378450, Note_off_c, 0, 52, 62
1, 1378457, Note_off_c, 0, 80, 60
1, 1378462, Control_c, 0, 67, 40
1, 1378477, Control_c, 0, 67, 43
1, 1378507, Control_c, 0, 67, 42
1, 1378536, Control_c, 0, 67, 42
1, 1378551, Control_c, 0, 67, 45
1, 1378566, Control_c, 0, 67, 48
1, 1378577, Note_on_c, 0, 55, 49
1, 1378578, Note_on_c, 0, 58, 62
1, 1378580, Control_c, 0, 67, 51
1, 1378595, Control_c, 0, 67, 49
1, 1378602, Note_off_c, 0, 55, 58
1, 1378616, Note_off_c, 0, 58, 64
1, 1378633, Control_c, 0, 67, 52
1, 1378648, Control_c, 0, 67, 57
1, 1378663, Control_c, 0, 67, 67
1, 1378678, Control_c, 0, 67, 71
1, 1378693, Control_c, 0, 67, 71
1, 1378708, Control_c, 0, 67, 73
1, 1378723, Control_c, 0, 67, 78
1, 1378732, Note_on_c, 0, 49, 82
1, 1378737, Control_c, 0, 67, 92
1, 1378752, Control_c, 0, 67, 102
1, 1378762, Note_off_c, 0, 49, 67
1, 1378826, Control_c, 0, 67, 105
1, 1378856, Control_c, 0, 67, 109
1, 1378864, Note_on_c, 0, 56, 45
1, 1378871, Control_c, 0, 67, 120
1, 1378886, Control_c, 0, 67, 127
1, 1378891, Note_on_c, 0, 58, 56
1, 1378905, Note_on_c, 0, 55, 41
1, 1378915, Note_off_c, 0, 58, 63
1, 1378916, Note_off_c, 0, 56, 42
1, 1378929, Note_off_c, 0, 67, 59
1, 1378938, Note_off_c, 0, 55, 53
1, 1378941, Note_off_c, 0, 79, 63
1, 1379039, Note_on_c, 0, 79, 70
1, 1379053, Note_on_c, 0, 52, 38
1, 1379071, Note_on_c, 0, 67, 37
1, 1379090, Note_off_c, 0, 52, 59
1, 1379139, Note_off_c, 0, 67, 0
1, 1379139, Note_on_c, 0, 67, 5
1, 1379179, Note_on_c, 0, 55, 41
1, 1379189, Note_on_c, 0, 58, 56
1, 1379221, Note_off_c, 0, 55, 48
1, 1379223, Note_off_c, 0, 58, 63
1, 1379270, Note_off_c, 0, 79, 59
1, 1379277, Note_off_c, 0, 67, 46
1, 1379300, Control_c, 0, 64, 27
1, 1379330, Control_c, 0, 64, 0
1, 1379342, Note_on_c, 0, 50, 54
1, 1379347, Note_on_c, 0, 79, 73
1, 1379367, Control_c, 0, 64, 28
1, 1379382, Control_c, 0, 64, 32
1, 1379397, Control_c, 0, 64, 37
1, 1379409, Note_on_c, 0, 67, 21
1, 1379412, Control_c, 0, 64, 38
1, 1379426, Control_c, 0, 64, 38
1, 1379441, Control_c, 0, 64, 41
1, 1379449, Note_off_c, 0, 67, 45
1, 1379456, Control_c, 0, 64, 52
1, 1379471, Control_c, 0, 64, 62
1, 1379486, Control_c, 0, 64, 68
1, 1379501, Control_c, 0, 64, 73
1, 1379510, Note_on_c, 0, 58, 59
1, 1379516, Control_c, 0, 64, 75
1, 1379516, Note_on_c, 0, 62, 54
1, 1379518, Note_off_c, 0, 50, 36
1, 1379531, Control_c, 0, 64, 76
1, 1379546, Control_c, 0, 64, 77
1, 1379560, Control_c, 0, 64, 79
1, 1379563, Note_off_c, 0, 62, 55
1, 1379620, Control_c, 0, 64, 77
1, 1379634, Control_c, 0, 64, 74
1, 1379649, Control_c, 0, 64, 66
1, 1379662, Note_off_c, 0, 58, 49
1, 1379664, Control_c, 0, 64, 51
1, 1379665, Note_on_c, 0, 77, 82
1, 1379669, Note_on_c, 0, 53, 63
1, 1379679, Control_c, 0, 64, 33
1, 1379693, Control_c, 0, 64, 29
1, 1379697, Note_on_c, 0, 65, 34
1, 1379708, Control_c, 0, 64, 39
1, 1379713, Note_off_c, 0, 53, 58
1, 1379723, Control_c, 0, 64, 56
1, 1379733, Note_off_c, 0, 65, 50
1, 1379738, Control_c, 0, 64, 69
1, 1379753, Control_c, 0, 64, 84
1, 1379767, Control_c, 0, 64, 127
1, 1379770, Note_off_c, 0, 79, 40
1, 1379808, Note_on_c, 0, 58, 59
1, 1379824, Note_on_c, 0, 62, 57
1, 1379824, Note_off_c, 0, 77, 63
1, 1379841, Note_off_c, 0, 58, 63
1, 1379859, Note_off_c, 0, 62, 62
1, 1379871, Control_c, 0, 67, 124
1, 1379886, Control_c, 0, 67, 117
1, 1379900, Control_c, 0, 67, 115
1, 1379915, Control_c, 0, 67, 117
1, 1379979, Note_on_c, 0, 50, 59
1, 1379985, Note_on_c, 0, 82, 82
1, 1379990, Control_c, 0, 67, 121
1, 1380005, Control_c, 0, 64, 111
1, 1380005, Control_c, 0, 67, 124
1, 1380016, Note_on_c, 0, 70, 56
1, 1380020, Control_c, 0, 64, 78
1, 1380020, Control_c, 0, 67, 122
1, 1380034, Control_c, 0, 64, 60
1, 1380035, Note_off_c, 0, 50, 45
1, 1380049, Control_c, 0, 64, 42
1, 1380064, Control_c, 0, 64, 36
1, 1380079, Control_c, 0, 64, 42
1, 1380079, Control_c, 0, 67, 124
1, 1380093, Control_c, 0, 64, 54
1, 1380093, Control_c, 0, 67, 121
1, 1380115, Control_c, 0, 64, 64
1, 1380115, Control_c, 0, 67, 119
1, 1380130, Note_on_c, 0, 58, 65
1, 1380130, Control_c, 0, 64, 76
1, 1380139, Note_on_c, 0, 62, 62
1, 1380145, Control_c, 0, 64, 97
1, 1380160, Control_c, 0, 64, 127
1, 1380175, Control_c, 0, 67, 117
1, 1380183, Note_off_c, 0, 62, 56
1, 1380189, Note_off_c, 0, 58, 52
1, 1380190, Control_c, 0, 67, 114
1, 1380250, Control_c, 0, 67, 110
1, 1380264, Control_c, 0, 67, 102
1, 1380279, Control_c, 0, 67, 78
1, 1380281, Note_on_c, 0, 53, 59
1, 1380294, Control_c, 0, 67, 61
1, 1380309, Control_c, 0, 67, 60
1, 1380339, Control_c, 0, 67, 57
1, 1380340, Note_off_c, 0, 53, 59
1, 1380340, Note_off_c, 0, 82, 56
1, 1380346, Note_off_c, 0, 70, 62
1, 1380398, Control_c, 0, 67, 55
1, 1380413, Control_c, 0, 67, 50
1, 1380428, Control_c, 0, 67, 34
1, 1380441, Note_on_c, 0, 81, 87
1, 1380443, Control_c, 0, 67, 0
1, 1380448, Note_on_c, 0, 62, 60
1, 1380449, Note_on_c, 0, 58, 58
1, 1380458, Note_on_c, 0, 69, 68
1, 1380503, Note_off_c, 0, 58, 54
1, 1380517, Note_off_c, 0, 69, 58
1, 1380532, Note_off_c, 0, 62, 55
1, 1380544, Note_off_c, 0, 81, 62
1, 1380616, Note_on_c, 0, 81, 90
1, 1380617, Note_on_c, 0, 51, 64
1, 1380635, Control_c, 0, 64, 107
1, 1380642, Note_on_c, 0, 69, 64
1, 1380650, Control_c, 0, 64, 74
1, 1380664, Control_c, 0, 64, 56
1, 1380673, Note_off_c, 0, 69, 60
1, 1380679, Control_c, 0, 64, 44
1, 1380694, Control_c, 0, 64, 47
1, 1380708, Control_c, 0, 64, 57
1, 1380723, Control_c, 0, 64, 68
1, 1380738, Control_c, 0, 64, 94
1, 1380753, Control_c, 0, 64, 127
1, 1380778, Note_on_c, 0, 79, 78
1, 1380783, Note_on_c, 0, 63, 61
1, 1380796, Note_on_c, 0, 67, 55
1, 1380800, Note_on_c, 0, 60, 61
1, 1380819, Note_off_c, 0, 67, 60
1, 1380829, Note_off_c, 0, 63, 50
1, 1380830, Note_off_c, 0, 81, 62
1, 1380836, Note_off_c, 0, 79, 67
1, 1380848, Note_off_c, 0, 51, 52
1, 1380896, Note_off_c, 0, 60, 55
1, 1380980, Note_on_c, 0, 87, 88
1, 1380988, Note_on_c, 0, 55, 66
1, 1381022, Note_on_c, 0, 75, 41
1, 1381043, Control_c, 0, 64, 97
1, 1381058, Control_c, 0, 64, 78
1, 1381073, Control_c, 0, 64, 67
1, 1381075, Note_off_c, 0, 55, 51
1, 1381087, Control_c, 0, 64, 59
1, 1381087, Control_c, 0, 67, 41
1, 1381102, Control_c, 0, 64, 56
1, 1381102, Control_c, 0, 67, 44
1, 1381117, Control_c, 0, 64, 52
1, 1381117, Control_c, 0, 67, 48
1, 1381132, Control_c, 0, 64, 50
1, 1381132, Control_c, 0, 67, 64
1, 1381140, Note_on_c, 0, 60, 58
1, 1381146, Note_on_c, 0, 63, 60
1, 1381146, Control_c, 0, 67, 94
1, 1381161, Control_c, 0, 64, 51
1, 1381161, Control_c, 0, 67, 127
1, 1381176, Control_c, 0, 64, 52
1, 1381185, Note_off_c, 0, 63, 61
1, 1381191, Control_c, 0, 64, 51
1, 1381194, Note_off_c, 0, 60, 62
1, 1381206, Control_c, 0, 64, 50
1, 1381221, Control_c, 0, 64, 47
1, 1381227, Note_off_c, 0, 75, 45
1, 1381236, Control_c, 0, 64, 46
1, 1381266, Control_c, 0, 64, 45
1, 1381269, Note_off_c, 0, 87, 65
1, 1381280, Control_c, 0, 64, 44
1, 1381295, Control_c, 0, 64, 41
1, 1381298, Note_on_c, 0, 86, 75
1, 1381307, Note_on_c, 0, 53, 55
1, 1381310, Control_c, 0, 64, 39
1, 1381325, Control_c, 0, 64, 40
1, 1381333, Note_on_c, 0, 74, 45
1, 1381339, Control_c, 0, 64, 41
1, 1381341, Note_off_c, 0, 53, 61
1, 1381392, Note_off_c, 0, 74, 41
1, 1381413, Control_c, 0, 64, 42
1, 1381428, Control_c, 0, 64, 42
1, 1381455, Note_on_c, 0, 58, 57
1, 1381455, Note_on_c, 0, 62, 63
1, 1381487, Control_c, 0, 64, 43
1, 1381492, Note_off_c, 0, 62, 61
1, 1381497, Note_off_c, 0, 58, 61
1, 1381531, Control_c, 0, 64, 42
1, 1381620, Note_on_c, 0, 84, 63
1, 1381623, Note_on_c, 0, 53, 50
1, 1381656, Note_off_c, 0, 53, 64
1, 1381657, Control_c, 0, 64, 43
1, 1381658, Note_on_c, 0, 72, 7
1, 1381685, Note_off_c, 0, 86, 59
1, 1381717, Control_c, 0, 64, 43
1, 1381746, Control_c, 0, 64, 44
1, 1381761, Note_on_c, 0, 63, 59
1, 1381774, Note_on_c, 0, 57, 40
1, 1381784, Note_off_c, 0, 63, 64
1, 1381792, Note_off_c, 0, 72, 44
1, 1381804, Note_off_c, 0, 57, 49
1, 1381820, Control_c, 0, 64, 44
1, 1381851, Control_c, 0, 64, 44
1, 1381866, Control_c, 0, 64, 43
1, 1381881, Control_c, 0, 64, 41
1, 1381895, Control_c, 0, 64, 41
1, 1381910, Control_c, 0, 64, 41
1, 1381914, Note_on_c, 0, 46, 60
1, 1381925, Control_c, 0, 64, 44
1, 1381940, Control_c, 0, 64, 52
1, 1381943, Note_on_c, 0, 82, 59
1, 1381944, Note_off_c, 0, 84, 59
1, 1381945, Note_off_c, 0, 46, 63
1, 1381955, Control_c, 0, 64, 62
1, 1381956, Note_on_c, 0, 70, 44
1, 1381969, Control_c, 0, 64, 70
1, 1381984, Control_c, 0, 64, 81
1, 1381999, Control_c, 0, 64, 96
1, 1382014, Control_c, 0, 64, 105
1, 1382026, Note_off_c, 0, 82, 55
1, 1382029, Control_c, 0, 64, 117
1, 1382044, Control_c, 0, 64, 127
1, 1382076, Note_on_c, 0, 58, 39
1, 1382077, Note_on_c, 0, 62, 35
1, 1382084, Note_off_c, 0, 70, 58
1, 1382116, Note_off_c, 0, 62, 49
1, 1382162, Note_off_c, 0, 58, 48
1, 1382221, Note_on_c, 0, 50, 52
1, 1382224, Note_on_c, 0, 74, 77
1, 1382250, Note_off_c, 0, 74, 64
1, 1382258, Note_off_c, 0, 50, 63
1, 1382280, Control_c, 0, 64, 93
1, 1382295, Control_c, 0, 64, 75
1, 1382310, Control_c, 0, 64, 58
1, 1382325, Control_c, 0, 64, 35
1, 1382328, Note_on_c, 0, 74, 74
1, 1382340, Control_c, 0, 64, 0
1, 1382360, Note_off_c, 0, 74, 66
1, 1382370, Note_on_c, 0, 58, 51
1, 1382383, Note_on_c, 0, 62, 39
1, 1382407, Note_off_c, 0, 58, 61
1, 1382416, Note_on_c, 0, 74, 79
1, 1382419, Note_off_c, 0, 62, 52
1, 1382443, Note_off_c, 0, 74, 65
1, 1382513, Note_on_c, 0, 53, 57
1, 1382516, Note_on_c, 0, 74, 77
1, 1382541, Note_off_c, 0, 74, 64
1, 1382544, Note_off_c, 0, 53, 63
1, 1382602, Note_on_c, 0, 74, 74
1, 1382625, Note_off_c, 0, 74, 69
1, 1382671, Note_on_c, 0, 58, 39
1, 1382677, Note_on_c, 0, 62, 40
1, 1382699, Note_on_c, 0, 74, 76
1, 1382700, Note_off_c, 0, 58, 52
1, 1382708, Note_off_c, 0, 62, 54
1, 1382730, Note_off_c, 0, 74, 61
1, 1382789, Note_on_c, 0, 74, 72
1, 1382813, Note_off_c, 0, 74, 69
1, 1382818, Note_on_c, 0, 54, 48
1, 1382844, Note_off_c, 0, 54, 59
1, 1382873, Note_on_c, 0, 72, 68
1, 1382901, Note_off_c, 0, 72, 62
1, 1382970, Note_on_c, 0, 74, 69
1, 1382995, Note_off_c, 0, 74, 68
1, 1383016, Note_on_c, 0, 60, 12
1, 1383053, Note_on_c, 0, 62, 3
1, 1383060, Note_off_c, 0, 60, 39
1, 1383069, Note_on_c, 0, 75, 63
1, 1383093, Note_off_c, 0, 62, 51
1, 1383098, Note_off_c, 0, 75, 67
1, 1383209, Note_on_c, 0, 74, 61
1, 1383226, Note_on_c, 0, 62, 51
1, 1383237, Note_on_c, 0, 59, 44
1, 1383245, Note_on_c, 0, 55, 45
1, 1383251, Note_off_c, 0, 74, 56
1, 1383265, Note_off_c, 0, 62, 63
1, 1383270, Note_off_c, 0, 59, 61
1, 1383275, Note_off_c, 0, 55, 63
1, 1383513, Control_c, 0, 64, 33
1, 1383527, Control_c, 0, 64, 39
1, 1383542, Control_c, 0, 64, 40
1, 1383557, Control_c, 0, 64, 41
1, 1383572, Control_c, 0, 64, 42
1, 1383587, Control_c, 0, 64, 45
1, 1383602, Control_c, 0, 64, 49
1, 1383616, Control_c, 0, 64, 52
1, 1383631, Control_c, 0, 64, 52
1, 1383646, Control_c, 0, 64, 53
1, 1383646, Control_c, 0, 67, 122
1, 1383660, Control_c, 0, 64, 55
1, 1383660, Control_c, 0, 67, 119
1, 1383675, Control_c, 0, 64, 56
1, 1383675, Control_c, 0, 67, 114
1, 1383690, Control_c, 0, 64, 57
1, 1383690, Control_c, 0, 67, 101
1, 1383705, Control_c, 0, 67, 83
1, 1383720, Control_c, 0, 64, 56
1, 1383720, Control_c, 0, 67, 65
1, 1383734, Control_c, 0, 67, 58
1, 1383749, Control_c, 0, 67, 58
1, 1383779, Control_c, 0, 67, 57
1, 1383794, Control_c, 0, 67, 55
1, 1383838, Control_c, 0, 67, 56
1, 1383875, Control_c, 0, 64, 55
1, 1383875, Control_c, 0, 67, 53
1, 1383890, Control_c, 0, 64, 55
1, 1383890, Control_c, 0, 67, 50
1, 1383905, Control_c, 0, 64, 54
1, 1383905, Control_c, 0, 67, 41
1, 1383920, Control_c, 0, 64, 53
1, 1383920, Control_c, 0, 67, 0
1, 1383946, Note_on_c, 0, 67, 86
1, 1383949, Control_c, 0, 64, 58
1, 1383959, Note_on_c, 0, 55, 63
1, 1383964, Control_c, 0, 64, 66
1, 1383979, Control_c, 0, 64, 83
1, 1383994, Control_c, 0, 64, 127
1, 1384445, Note_off_c, 0, 55, 36
1, 1384515, Note_off_c, 0, 67, 62
1, 1384994, Control_c, 0, 67, 54
1, 1385008, Control_c, 0, 67, 107
1, 1385023, Control_c, 0, 67, 127
1, 1385202, Control_c, 0, 64, 115
1, 1385217, Control_c, 0, 64, 110
1, 1385232, Control_c, 0, 64, 105
1, 1385246, Control_c, 0, 64, 101
1, 1385261, Control_c, 0, 64, 98
1, 1385276, Control_c, 0, 64, 94
1, 1385291, Control_c, 0, 64, 91
1, 1385305, Control_c, 0, 64, 87
1, 1385311, Note_on_c, 0, 86, 56
1, 1385320, Control_c, 0, 64, 83
1, 1385335, Control_c, 0, 64, 79
1, 1385356, Note_off_c, 0, 86, 59
1, 1385358, Control_c, 0, 64, 76
1, 1385373, Control_c, 0, 64, 73
1, 1385387, Control_c, 0, 64, 69
1, 1385402, Control_c, 0, 64, 65
1, 1385417, Control_c, 0, 64, 63
1, 1385431, Control_c, 0, 64, 62
1, 1385461, Control_c, 0, 64, 61
1, 1385476, Control_c, 0, 64, 60
1, 1385491, Control_c, 0, 64, 59
1, 1385505, Control_c, 0, 64, 57
1, 1385520, Control_c, 0, 64, 56
1, 1385529, Note_on_c, 0, 84, 51
1, 1385535, Control_c, 0, 64, 54
1, 1385542, Note_on_c, 0, 55, 36
1, 1385550, Control_c, 0, 64, 53
1, 1385565, Control_c, 0, 64, 49
1, 1385579, Control_c, 0, 64, 42
1, 1385589, Note_off_c, 0, 55, 44
1, 1385594, Control_c, 0, 64, 32
1, 1385609, Control_c, 0, 64, 0
1, 1385702, Note_on_c, 0, 83, 62
1, 1385704, Note_on_c, 0, 67, 56
1, 1385706, Note_off_c, 0, 84, 55
1, 1385731, Note_off_c, 0, 67, 65
1, 1385734, Note_off_c, 0, 83, 60
1, 1385866, Note_on_c, 0, 62, 51
1, 1385866, Note_on_c, 0, 65, 53
1, 1385873, Note_on_c, 0, 83, 57
1, 1385888, Note_off_c, 0, 65, 59
1, 1385890, Note_off_c, 0, 62, 61
1, 1385902, Note_off_c, 0, 83, 65
1, 1386032, Note_on_c, 0, 67, 56
1, 1386035, Note_on_c, 0, 83, 54
1, 1386060, Note_off_c, 0, 67, 64
1, 1386066, Note_off_c, 0, 83, 64
1, 1386198, Note_on_c, 0, 83, 62
1, 1386200, Note_on_c, 0, 55, 56
1, 1386231, Note_off_c, 0, 55, 64
1, 1386252, Note_off_c, 0, 83, 54
1, 1386272, Note_on_c, 0, 84, 56
1, 1386318, Note_off_c, 0, 84, 61
1, 1386342, Note_on_c, 0, 91, 63
1, 1386355, Note_on_c, 0, 67, 50
1, 1386386, Note_off_c, 0, 67, 63
1, 1386542, Note_off_c, 0, 91, 57
1, 1386544, Note_on_c, 0, 89, 61
1, 1386551, Note_on_c, 0, 63, 50
1, 1386552, Note_on_c, 0, 60, 46
1, 1386578, Note_off_c, 0, 60, 59
1, 1386584, Note_off_c, 0, 63, 55
1, 1386623, Note_on_c, 0, 87, 59
1, 1386625, Note_off_c, 0, 89, 59
1, 1386670, Note_off_c, 0, 87, 59
1, 1386679, Note_on_c, 0, 86, 72
1, 1386706, Note_on_c, 0, 67, 56
1, 1386721, Note_off_c, 0, 86, 66
1, 1386741, Note_off_c, 0, 67, 63
1, 1386762, Note_on_c, 0, 84, 66
1, 1386783, Note_off_c, 0, 84, 71
1, 1386858, Note_on_c, 0, 84, 71
1, 1386870, Note_on_c, 0, 55, 42
1, 1386903, Note_off_c, 0, 55, 54
1, 1387018, Note_off_c, 0, 84, 61
1, 1387019, Note_on_c, 0, 67, 56
1, 1387023, Note_on_c, 0, 83, 67
1, 1387047, Note_off_c, 0, 67, 65
1, 1387050, Note_off_c, 0, 83, 64
1, 1387165, Note_on_c, 0, 83, 69
1, 1387173, Note_on_c, 0, 62, 49
1, 1387176, Note_on_c, 0, 65, 49
1, 1387190, Note_off_c, 0, 83, 67
1, 1387195, Note_off_c, 0, 62, 61
1, 1387198, Note_off_c, 0, 65, 58
1, 1387333, Note_on_c, 0, 83, 64
1, 1387335, Note_on_c, 0, 67, 58
1, 1387357, Note_off_c, 0, 83, 67
1, 1387361, Note_off_c, 0, 67, 65
1, 1387496, Note_on_c, 0, 83, 53
1, 1387504, Note_on_c, 0, 55, 48
1, 1387557, Note_off_c, 0, 55, 59
1, 1387648, Note_on_c, 0, 84, 68
1, 1387663, Note_on_c, 0, 67, 52
1, 1387664, Note_off_c, 0, 83, 64
1, 1387673, Note_off_c, 0, 84, 66
1, 1387696, Note_off_c, 0, 67, 64
1, 1387812, Note_on_c, 0, 63, 52
1, 1387812, Note_on_c, 0, 54, 43
1, 1387827, Note_on_c, 0, 60, 20
1, 1387834, Note_off_c, 0, 63, 58
1, 1387838, Note_off_c, 0, 54, 59
1, 1387868, Note_off_c, 0, 60, 44
1, 1387956, Note_on_c, 0, 87, 63
1, 1387965, Note_on_c, 0, 66, 60
1, 1387985, Note_off_c, 0, 66, 64
1, 1387995, Note_off_c, 0, 87, 58
1, 1388121, Note_on_c, 0, 84, 65
1, 1388134, Note_on_c, 0, 53, 40
1, 1388270, Note_on_c, 0, 82, 73
1, 1388284, Note_off_c, 0, 84, 64
1, 1388292, Note_on_c, 0, 65, 40
1, 1388304, Note_off_c, 0, 82, 62
1, 1388316, Note_off_c, 0, 53, 37
1, 1388318, Note_off_c, 0, 65, 56
1, 1388432, Note_on_c, 0, 62, 59
1, 1388438, Note_on_c, 0, 82, 64
1, 1388454, Note_off_c, 0, 62, 65
1, 1388463, Note_off_c, 0, 82, 65
1, 1388596, Note_on_c, 0, 82, 55
1, 1388610, Note_on_c, 0, 65, 51
1, 1388619, Note_off_c, 0, 82, 61
1, 1388632, Note_off_c, 0, 65, 60
1, 1388760, Note_on_c, 0, 84, 63
1, 1388769, Note_on_c, 0, 55, 44
1, 1388837, Note_off_c, 0, 55, 47
1, 1388921, Note_on_c, 0, 82, 72
1, 1388924, Note_on_c, 0, 64, 54
1, 1388926, Note_off_c, 0, 84, 63
1, 1388953, Note_off_c, 0, 64, 64
1, 1388962, Note_off_c, 0, 82, 56
1, 1389070, Note_on_c, 0, 82, 70
1, 1389095, Note_on_c, 0, 60, 30
1, 1389114, Note_off_c, 0, 82, 62
1, 1389129, Note_off_c, 0, 60, 49
1, 1389225, Note_on_c, 0, 82, 65
1, 1389234, Note_on_c, 0, 64, 60
1, 1389258, Note_off_c, 0, 82, 59
1, 1389271, Note_off_c, 0, 64, 63
1, 1389391, Note_on_c, 0, 79, 64
1, 1389392, Note_on_c, 0, 62, 62
1, 1389403, Note_on_c, 0, 53, 38
1, 1389422, Note_off_c, 0, 62, 64
1, 1389437, Note_off_c, 0, 53, 45
1, 1389448, Note_off_c, 0, 79, 41
1, 1389460, Note_on_c, 0, 77, 75
1, 1389513, Note_off_c, 0, 77, 62
1, 1389533, Note_on_c, 0, 76, 70
1, 1389542, Note_on_c, 0, 65, 50
1, 1389560, Note_off_c, 0, 76, 66
1, 1389576, Note_off_c, 0, 65, 63
1, 1389592, Note_on_c, 0, 77, 67
1, 1389623, Note_off_c, 0, 77, 63
1, 1389656, Note_on_c, 0, 75, 83
1, 1389666, Note_on_c, 0, 57, 64
1, 1389668, Note_on_c, 0, 53, 58
1, 1389679, Note_off_c, 0, 75, 63
1, 1389693, Note_off_c, 0, 57, 66
1, 1389693, Note_off_c, 0, 53, 63
1, 1389708, Control_c, 0, 67, 123
1, 1389723, Control_c, 0, 67, 119
1, 1389738, Control_c, 0, 67, 115
1, 1389752, Control_c, 0, 67, 111
1, 1389767, Control_c, 0, 67, 109
1, 1389813, Control_c, 0, 67, 107
1, 1389828, Control_c, 0, 67, 97
1, 1389833, Note_on_c, 0, 63, 58
1, 1389833, Note_on_c, 0, 72, 65
1, 1389850, Control_c, 0, 67, 61
1, 1389863, Note_off_c, 0, 63, 64
1, 1389865, Control_c, 0, 67, 0
1, 1389866, Note_off_c, 0, 72, 66
1, 1389994, Note_on_c, 0, 58, 58
1, 1389997, Note_on_c, 0, 62, 57
1, 1389997, Note_on_c, 0, 70, 71
1, 1390018, Note_off_c, 0, 58, 59
1, 1390021, Note_off_c, 0, 62, 60
1, 1390031, Note_off_c, 0, 70, 59
1, 1390144, Note_on_c, 0, 74, 78
1, 1390151, Note_on_c, 0, 65, 71
1, 1390165, Note_off_c, 0, 74, 72
1, 1390177, Note_off_c, 0, 65, 68
1, 1390303, Note_on_c, 0, 77, 86
1, 1390307, Note_on_c, 0, 62, 73
1, 1390332, Note_off_c, 0, 62, 65
1, 1390337, Note_off_c, 0, 77, 66
1, 1390459, Note_on_c, 0, 58, 66
1, 1390466, Note_on_c, 0, 82, 75
1, 1390488, Note_off_c, 0, 82, 70
1, 1390489, Note_off_c, 0, 58, 66
1, 1390618, Note_on_c, 0, 86, 93
1, 1390630, Note_on_c, 0, 55, 69
1, 1390644, Control_c, 0, 64, 44
1, 1390658, Control_c, 0, 64, 77
1, 1390673, Control_c, 0, 64, 101
1, 1390688, Control_c, 0, 64, 127
1, 1390696, Note_off_c, 0, 55, 60
1, 1390763, Control_c, 0, 64, 95
1, 1390778, Control_c, 0, 64, 57
1, 1390782, Note_on_c, 0, 64, 66
1, 1390782, Note_on_c, 0, 84, 75
1, 1390790, Note_off_c, 0, 86, 64
1, 1390792, Control_c, 0, 64, 0
1, 1390808, Note_off_c, 0, 64, 68
1, 1390816, Note_off_c, 0, 84, 58
1, 1390932, Note_on_c, 0, 84, 70
1, 1390942, Note_on_c, 0, 58, 48
1, 1390959, Note_off_c, 0, 84, 63
1, 1390966, Note_off_c, 0, 58, 57
1, 1391085, Note_on_c, 0, 84, 68
1, 1391091, Note_on_c, 0, 64, 61
1, 1391108, Note_off_c, 0, 84, 68
1, 1391122, Note_off_c, 0, 64, 65
1, 1391255, Note_on_c, 0, 79, 56
1, 1391258, Note_on_c, 0, 53, 44
1, 1391285, Note_off_c, 0, 53, 59
1, 1391289, Note_off_c, 0, 79, 58
1, 1391315, Note_on_c, 0, 77, 68
1, 1391371, Note_off_c, 0, 77, 61
1, 1391401, Note_on_c, 0, 76, 71
1, 1391409, Note_on_c, 0, 65, 46
1, 1391438, Note_off_c, 0, 76, 60
1, 1391445, Note_off_c, 0, 65, 57
1, 1391485, Note_on_c, 0, 77, 52
1, 1391515, Note_off_c, 0, 77, 66
1, 1391535, Note_on_c, 0, 57, 60
1, 1391550, Note_on_c, 0, 72, 71
1, 1391564, Note_off_c, 0, 57, 65
1, 1391576, Note_off_c, 0, 72, 67
1, 1391687, Note_on_c, 0, 69, 71
1, 1391703, Note_on_c, 0, 65, 73
1, 1391710, Note_off_c, 0, 69, 70
1, 1391735, Note_off_c, 0, 65, 62
1, 1391857, Note_on_c, 0, 55, 79
1, 1391863, Note_on_c, 0, 86, 88
1, 1391881, Control_c, 0, 64, 65
1, 1391896, Control_c, 0, 64, 98
1, 1391910, Control_c, 0, 64, 127
1, 1391926, Note_off_c, 0, 55, 62
1, 1392019, Note_on_c, 0, 84, 86
1, 1392029, Note_on_c, 0, 64, 74
1, 1392038, Note_off_c, 0, 86, 63
1, 1392044, Control_c, 0, 64, 104
1, 1392055, Note_off_c, 0, 64, 68
1, 1392059, Control_c, 0, 64, 71
1, 1392069, Note_off_c, 0, 84, 65
1, 1392073, Control_c, 0, 64, 43
1, 1392095, Control_c, 0, 64, 0
1, 1392170, Note_on_c, 0, 84, 83
1, 1392178, Note_on_c, 0, 58, 77
1, 1392209, Note_off_c, 0, 58, 64
1, 1392222, Note_off_c, 0, 84, 64
1, 1392319, Note_on_c, 0, 84, 76
1, 1392329, Note_on_c, 0, 64, 71
1, 1392352, Note_off_c, 0, 84, 61
1, 1392371, Note_off_c, 0, 64, 62
1, 1392473, Note_on_c, 0, 53, 72
1, 1392476, Note_on_c, 0, 79, 75
1, 1392511, Control_c, 0, 64, 48
1, 1392526, Control_c, 0, 64, 69
1, 1392536, Note_off_c, 0, 53, 61
1, 1392541, Control_c, 0, 64, 82
1, 1392548, Note_on_c, 0, 77, 84
1, 1392556, Control_c, 0, 64, 117
1, 1392570, Control_c, 0, 64, 127
1, 1392582, Note_off_c, 0, 79, 62
1, 1392619, Note_on_c, 0, 76, 89
1, 1392620, Note_off_c, 0, 77, 64
1, 1392626, Note_on_c, 0, 65, 73
1, 1392686, Note_on_c, 0, 77, 95
1, 1392688, Note_off_c, 0, 65, 56
1, 1392695, Note_off_c, 0, 76, 59
1, 1392753, Note_off_c, 0, 77, 67
1, 1392758, Note_on_c, 0, 57, 75
1, 1392760, Note_on_c, 0, 72, 89
1, 1392793, Control_c, 0, 64, 117
1, 1392799, Note_off_c, 0, 57, 63
1, 1392799, Note_off_c, 0, 72, 66
1, 1392807, Control_c, 0, 64, 72
1, 1392822, Control_c, 0, 64, 34
1, 1392844, Control_c, 0, 64, 0
1, 1392913, Note_on_c, 0, 69, 78
1, 1392922, Note_on_c, 0, 65, 75
1, 1392933, Control_c, 0, 67, 48
1, 1392934, Note_off_c, 0, 69, 69
1, 1392947, Note_off_c, 0, 65, 67
1, 1392948, Control_c, 0, 67, 127
1, 1393118, Note_on_c, 0, 50, 50
1, 1393135, Note_on_c, 0, 81, 52
1, 1393176, Note_off_c, 0, 50, 56
1, 1393276, Note_off_c, 0, 81, 53
1, 1393288, Note_on_c, 0, 59, 51
1, 1393293, Note_on_c, 0, 79, 50
1, 1393318, Note_off_c, 0, 59, 61
1, 1393320, Note_off_c, 0, 79, 64
1, 1393430, Note_on_c, 0, 79, 58
1, 1393434, Note_on_c, 0, 53, 34
1, 1393455, Note_off_c, 0, 79, 67
1, 1393469, Note_off_c, 0, 53, 52
1, 1393576, Note_on_c, 0, 79, 53
1, 1393593, Note_on_c, 0, 59, 53
1, 1393614, Note_off_c, 0, 79, 65
1, 1393623, Note_off_c, 0, 59, 63
1, 1393744, Note_on_c, 0, 48, 53
1, 1393750, Note_on_c, 0, 86, 60
1, 1393774, Note_off_c, 0, 48, 58
1, 1393782, Note_off_c, 0, 86, 62
1, 1393825, Note_on_c, 0, 84, 53
1, 1393854, Note_off_c, 0, 84, 61
1, 1393901, Note_on_c, 0, 83, 47
1, 1393903, Note_on_c, 0, 60, 39
1, 1393939, Note_off_c, 0, 60, 52
1, 1393946, Note_off_c, 0, 83, 47
1, 1393964, Note_on_c, 0, 84, 54
1, 1394015, Note_off_c, 0, 84, 64
1, 1394033, Note_on_c, 0, 52, 34
1, 1394057, Note_on_c, 0, 79, 57
1, 1394070, Note_off_c, 0, 52, 48
1, 1394081, Note_off_c, 0, 79, 67
1, 1394203, Note_on_c, 0, 60, 47
1, 1394206, Note_on_c, 0, 76, 47
1, 1394230, Note_off_c, 0, 76, 58
1, 1394236, Note_off_c, 0, 60, 65
1, 1394361, Note_on_c, 0, 81, 60
1, 1394368, Note_on_c, 0, 50, 53
1, 1394413, Note_off_c, 0, 50, 61
1, 1394517, Note_on_c, 0, 59, 61
1, 1394522, Note_on_c, 0, 79, 64
1, 1394525, Note_off_c, 0, 81, 57
1, 1394548, Note_off_c, 0, 59, 64
1, 1394559, Note_off_c, 0, 79, 58
1, 1394676, Note_on_c, 0, 53, 68
1, 1394678, Note_on_c, 0, 79, 71
1, 1394703, Note_off_c, 0, 53, 65
1, 1394712, Note_off_c, 0, 79, 61
1, 1394835, Note_on_c, 0, 79, 67
1, 1394841, Note_on_c, 0, 59, 69
1, 1394865, Note_off_c, 0, 79, 62
1, 1394874, Note_off_c, 0, 59, 63
1, 1395005, Note_on_c, 0, 52, 78
1, 1395006, Note_on_c, 0, 60, 85
1, 1395010, Note_on_c, 0, 48, 85
1, 1395014, Note_on_c, 0, 86, 84
1, 1395093, Note_off_c, 0, 52, 63
1, 1395099, Note_on_c, 0, 84, 89
1, 1395109, Note_off_c, 0, 48, 64
1, 1395111, Note_off_c, 0, 86, 64
1, 1395113, Note_off_c, 0, 60, 66
1, 1395154, Note_off_c, 0, 84, 67
1, 1395174, Note_on_c, 0, 83, 91
1, 1395209, Note_off_c, 0, 83, 66
1, 1395244, Note_on_c, 0, 84, 95
1, 1395274, Note_off_c, 0, 84, 69
1, 1395344, Note_on_c, 0, 79, 75
1, 1395362, Note_off_c, 0, 79, 74
1, 1395508, Note_on_c, 0, 76, 78
1, 1395523, Note_off_c, 0, 76, 43
1, 1395668, Note_on_c, 0, 74, 74
1, 1395693, Note_off_c, 0, 74, 67
1, 1395739, Note_on_c, 0, 72, 68
1, 1395766, Note_off_c, 0, 72, 66
1, 1395817, Note_on_c, 0, 71, 71
1, 1395846, Note_off_c, 0, 71, 71
1, 1395890, Note_on_c, 0, 72, 81
1, 1395908, Note_off_c, 0, 72, 71
1, 1395988, Note_on_c, 0, 67, 63
1, 1396014, Note_off_c, 0, 67, 66
1, 1396143, Note_on_c, 0, 64, 68
1, 1396167, Note_off_c, 0, 64, 65
1, 1396304, Note_on_c, 0, 62, 68
1, 1396331, Note_off_c, 0, 62, 66
1, 1396375, Note_on_c, 0, 60, 66
1, 1396404, Note_off_c, 0, 60, 68
1, 1396458, Note_on_c, 0, 59, 68
1, 1396483, Note_off_c, 0, 59, 66
1, 1396530, Note_on_c, 0, 60, 71
1, 1396556, Note_off_c, 0, 60, 69
1, 1396617, Note_on_c, 0, 55, 57
1, 1396647, Note_off_c, 0, 55, 65
1, 1396776, Note_on_c, 0, 52, 69
1, 1396802, Note_off_c, 0, 52, 65
1, 1396930, Note_on_c, 0, 48, 73
1, 1396960, Note_off_c, 0, 48, 64
1, 1397080, Note_on_c, 0, 43, 89
1, 1397108, Note_off_c, 0, 43, 66
1, 1397236, Note_on_c, 0, 40, 84
1, 1397264, Note_off_c, 0, 40, 65
1, 1397272, Control_c, 0, 67, 115
1, 1397286, Control_c, 0, 67, 103
1, 1397301, Control_c, 0, 67, 99
1, 1397339, Control_c, 0, 67, 102
1, 1397383, Control_c, 0, 67, 107
1, 1397398, Control_c, 0, 67, 114
1, 1397410, Note_on_c, 0, 38, 80
1, 1397412, Control_c, 0, 67, 121
1, 1397427, Control_c, 0, 67, 125
1, 1397444, Note_off_c, 0, 38, 65
1, 1397457, Control_c, 0, 67, 127
1, 1397594, Note_on_c, 0, 36, 67
1, 1397637, Note_off_c, 0, 36, 63
1, 1397792, Note_on_c, 0, 72, 61
1, 1397820, Note_on_c, 0, 34, 45
1, 1397824, Note_on_c, 0, 67, 38
1, 1397828, Control_c, 0, 64, 34
1, 1397842, Control_c, 0, 64, 44
1, 1397857, Control_c, 0, 64, 54
1, 1397872, Control_c, 0, 64, 60
1, 1397875, Note_off_c, 0, 34, 59
1, 1397878, Poly_aftertouch_c, 0, 64, 127
1, 1397887, Control_c, 0, 64, 63
1, 1397896, Note_off_c, 0, 67, 57
1, 1397902, Control_c, 0, 64, 65
1, 1397917, Control_c, 0, 64, 67
1, 1397920, Poly_aftertouch_c, 0, 64, 0
1, 1397932, Control_c, 0, 64, 71
1, 1397936, Note_off_c, 0, 72, 57
1, 1397947, Control_c, 0, 64, 76
1, 1397962, Control_c, 0, 64, 81
1, 1397977, Control_c, 0, 64, 86
1, 1397991, Control_c, 0, 64, 88
1, 1398006, Control_c, 0, 64, 90
1, 1398021, Control_c, 0, 64, 90
1, 1398035, Control_c, 0, 64, 91
1, 1398051, Note_on_c, 0, 72, 66
1, 1398065, Note_on_c, 0, 33, 52
1, 1398087, Control_c, 0, 64, 87
1, 1398093, Note_on_c, 0, 69, 34
1, 1398102, Control_c, 0, 64, 76
1, 1398117, Control_c, 0, 64, 65
1, 1398126, Poly_aftertouch_c, 0, 64, 127
1, 1398132, Control_c, 0, 64, 56
1, 1398161, Control_c, 0, 64, 60
1, 1398176, Control_c, 0, 64, 65
1, 1398191, Control_c, 0, 64, 71
1, 1398206, Control_c, 0, 64, 78
1, 1398210, Note_off_c, 0, 69, 44
1, 1398221, Control_c, 0, 64, 84
1, 1398235, Note_off_c, 0, 72, 56
1, 1398235, Control_c, 0, 64, 88
1, 1398241, Poly_aftertouch_c, 0, 64, 0
1, 1398245, Note_off_c, 0, 33, 51
1, 1398250, Control_c, 0, 64, 91
1, 1398265, Control_c, 0, 64, 93
1, 1398280, Control_c, 0, 64, 95
1, 1398309, Control_c, 0, 64, 97
1, 1398352, Note_on_c, 0, 72, 62
1, 1398354, Control_c, 0, 64, 93
1, 1398368, Control_c, 0, 64, 80
1, 1398379, Note_on_c, 0, 31, 47
1, 1398379, Note_on_c, 0, 64, 29
1, 1398383, Note_on_c, 0, 70, 49
1, 1398383, Control_c, 0, 64, 65
1, 1398398, Control_c, 0, 64, 49
1, 1398413, Control_c, 0, 64, 37
1, 1398427, Control_c, 0, 64, 35
1, 1398442, Control_c, 0, 64, 38
1, 1398457, Control_c, 0, 64, 45
1, 1398472, Control_c, 0, 64, 56
1, 1398487, Control_c, 0, 64, 65
1, 1398501, Control_c, 0, 64, 73
1, 1398516, Control_c, 0, 64, 82
1, 1398531, Control_c, 0, 64, 89
1, 1398534, Note_off_c, 0, 31, 61
1, 1398537, Note_off_c, 0, 72, 57
1, 1398546, Control_c, 0, 64, 91
1, 1398561, Control_c, 0, 64, 94
1, 1398567, Note_off_c, 0, 64, 40
1, 1398576, Control_c, 0, 64, 96
1, 1398591, Control_c, 0, 64, 99
1, 1398606, Control_c, 0, 64, 102
1, 1398636, Control_c, 0, 64, 104
1, 1398640, Note_off_c, 0, 70, 36
1, 1398749, Note_on_c, 0, 72, 71
1, 1398851, Control_c, 0, 64, 95
1, 1398865, Control_c, 0, 64, 85
1, 1398880, Control_c, 0, 64, 74
1, 1398895, Control_c, 0, 64, 62
1, 1398910, Control_c, 0, 64, 45
1, 1398925, Control_c, 0, 64, 0
1, 1398984, Control_c, 0, 64, 33
1, 1398999, Control_c, 0, 64, 43
1, 1399014, Poly_aftertouch_c, 0, 69, 127
1, 1399014, Control_c, 0, 64, 52
1, 1399029, Control_c, 0, 64, 61
1, 1399044, Control_c, 0, 64, 68
1, 1399058, Control_c, 0, 64, 74
1, 1399073, Control_c, 0, 64, 79
1, 1399088, Control_c, 0, 64, 85
1, 1399097, Note_on_c, 0, 29, 53
1, 1399100, Note_on_c, 0, 65, 40
1, 1399103, Control_c, 0, 64, 94
1, 1399112, Poly_aftertouch_c, 0, 69, 0
1, 1399118, Control_c, 0, 64, 106
1, 1399132, Control_c, 0, 64, 127
1, 1399212, Note_off_c, 0, 65, 32
1, 1399229, Note_on_c, 0, 69, 45
1, 1399273, Note_off_c, 0, 69, 54
1, 1399283, Note_on_c, 0, 77, 75
1, 1399285, Note_off_c, 0, 72, 62
1, 1399297, Note_off_c, 0, 29, 32
1, 1399368, Control_c, 0, 64, 82
1, 1399376, Note_on_c, 0, 69, 61
1, 1399382, Control_c, 0, 64, 67
1, 1399397, Control_c, 0, 64, 59
1, 1399425, Note_off_c, 0, 69, 60
1, 1399428, Control_c, 0, 64, 63
1, 1399443, Control_c, 0, 64, 70
1, 1399458, Control_c, 0, 64, 85
1, 1399473, Control_c, 0, 64, 108
1, 1399486, Note_on_c, 0, 65, 36
1, 1399487, Control_c, 0, 64, 127
1, 1399496, Note_on_c, 0, 41, 49
1, 1399533, Note_on_c, 0, 69, 73
1, 1399537, Note_off_c, 0, 41, 64
1, 1399542, Note_off_c, 0, 77, 63
1, 1399559, Note_off_c, 0, 69, 66
1, 1399589, Note_off_c, 0, 65, 34
1, 1399632, Note_on_c, 0, 76, 83
1, 1399643, Note_on_c, 0, 72, 73
1, 1399658, Control_c, 0, 64, 91
1, 1399673, Control_c, 0, 64, 70
1, 1399687, Control_c, 0, 64, 59
1, 1399702, Control_c, 0, 64, 57
1, 1399717, Control_c, 0, 64, 60
1, 1399731, Control_c, 0, 64, 66
1, 1399746, Control_c, 0, 64, 78
1, 1399755, Note_on_c, 0, 69, 62
1, 1399761, Control_c, 0, 64, 96
1, 1399776, Control_c, 0, 64, 127
1, 1399831, Note_on_c, 0, 45, 47
1, 1399840, Note_off_c, 0, 69, 39
1, 1399866, Note_off_c, 0, 45, 62
1, 1399887, Note_off_c, 0, 76, 59
1, 1399896, Note_on_c, 0, 64, 21
1, 1399908, Note_on_c, 0, 69, 52
1, 1399929, Note_off_c, 0, 72, 63
1, 1399936, Note_off_c, 0, 69, 66
1, 1399938, Note_off_c, 0, 64, 56
1, 1399969, Control_c, 0, 64, 110
1, 1399984, Control_c, 0, 64, 77
1, 1399985, Note_on_c, 0, 74, 88
1, 1399999, Control_c, 0, 64, 62
1, 1400000, Note_on_c, 0, 70, 74
1, 1400013, Control_c, 0, 64, 56
1, 1400028, Control_c, 0, 64, 57
1, 1400043, Control_c, 0, 64, 62
1, 1400058, Control_c, 0, 64, 69
1, 1400073, Control_c, 0, 64, 79
1, 1400087, Control_c, 0, 64, 96
1, 1400102, Control_c, 0, 64, 114
1, 1400111, Note_on_c, 0, 65, 61
1, 1400117, Control_c, 0, 64, 127
1, 1400153, Note_on_c, 0, 46, 44
1, 1400168, Note_off_c, 0, 65, 61
1, 1400199, Note_off_c, 0, 46, 53
1, 1400230, Note_off_c, 0, 74, 56
1, 1400252, Poly_aftertouch_c, 0, 62, 127
1, 1400253, Note_on_c, 0, 65, 48
1, 1400263, Note_off_c, 0, 70, 62
1, 1400275, Note_off_c, 0, 65, 63
1, 1400296, Poly_aftertouch_c, 0, 62, 0
1, 1400333, Control_c, 0, 64, 116
1, 1400335, Note_on_c, 0, 74, 85
1, 1400348, Control_c, 0, 64, 76
1, 1400356, Note_on_c, 0, 69, 65
1, 1400362, Control_c, 0, 64, 58
1, 1400377, Control_c, 0, 64, 47
1, 1400392, Control_c, 0, 64, 47
1, 1400407, Control_c, 0, 64, 53
1, 1400422, Control_c, 0, 64, 61
1, 1400436, Control_c, 0, 64, 70
1, 1400451, Control_c, 0, 64, 86
1, 1400453, Note_on_c, 0, 65, 45
1, 1400466, Control_c, 0, 64, 127
1, 1400511, Note_on_c, 0, 50, 47
1, 1400521, Note_off_c, 0, 65, 62
1, 1400545, Note_off_c, 0, 50, 63
1, 1400552, Note_on_c, 0, 62, 29
1, 1400553, Note_off_c, 0, 74, 58
1, 1400588, Note_on_c, 0, 65, 59
1, 1400594, Note_off_c, 0, 62, 48
1, 1400598, Note_off_c, 0, 69, 60
1, 1400616, Note_off_c, 0, 65, 65
1, 1400656, Note_on_c, 0, 72, 78
1, 1400661, Note_on_c, 0, 69, 73
1, 1400674, Control_c, 0, 64, 107
1, 1400689, Control_c, 0, 64, 77
1, 1400703, Control_c, 0, 64, 63
1, 1400718, Control_c, 0, 64, 58
1, 1400733, Control_c, 0, 64, 60
1, 1400745, Note_on_c, 0, 65, 54
1, 1400748, Control_c, 0, 64, 65
1, 1400762, Control_c, 0, 64, 77
1, 1400777, Control_c, 0, 64, 113
1, 1400789, Note_off_c, 0, 65, 60
1, 1400792, Control_c, 0, 64, 127
1, 1400837, Note_on_c, 0, 53, 50
1, 1400838, Note_on_c, 0, 60, 25
1, 1400878, Note_off_c, 0, 53, 60
1, 1400881, Control_c, 0, 67, 116
1, 1400891, Note_off_c, 0, 60, 43
1, 1400895, Note_on_c, 0, 65, 66
1, 1400896, Control_c, 0, 67, 105
1, 1400900, Note_off_c, 0, 72, 59
1, 1400910, Note_off_c, 0, 69, 60
1, 1400910, Control_c, 0, 67, 97
1, 1400925, Control_c, 0, 67, 90
1, 1400934, Note_off_c, 0, 65, 61
1, 1400940, Control_c, 0, 67, 88
1, 1400975, Note_on_c, 0, 72, 82
1, 1400984, Note_on_c, 0, 69, 74
1, 1400984, Control_c, 0, 64, 92
1, 1401000, Control_c, 0, 64, 70
1, 1401015, Control_c, 0, 64, 61
1, 1401030, Control_c, 0, 64, 62
1, 1401044, Control_c, 0, 64, 68
1, 1401059, Note_on_c, 0, 64, 64
1, 1401059, Control_c, 0, 64, 84
1, 1401082, Control_c, 0, 64, 127
1, 1401082, Control_c, 0, 67, 87
1, 1401125, Note_off_c, 0, 64, 63
1, 1401126, Control_c, 0, 67, 86
1, 1401136, Note_on_c, 0, 57, 53
1, 1401141, Control_c, 0, 67, 82
1, 1401151, Note_on_c, 0, 60, 55
1, 1401156, Control_c, 0, 67, 72
1, 1401169, Note_off_c, 0, 57, 64
1, 1401171, Control_c, 0, 67, 52
1, 1401172, Note_off_c, 0, 72, 55
1, 1401185, Control_c, 0, 67, 43
1, 1401198, Note_off_c, 0, 69, 62
1, 1401200, Note_off_c, 0, 60, 50
1, 1401200, Control_c, 0, 67, 42
1, 1401202, Note_on_c, 0, 64, 57
1, 1401241, Note_off_c, 0, 64, 63
1, 1401259, Control_c, 0, 67, 46
1, 1401274, Control_c, 0, 67, 52
1, 1401278, Note_on_c, 0, 70, 88
1, 1401289, Control_c, 0, 67, 54
1, 1401291, Note_on_c, 0, 67, 74
1, 1401304, Control_c, 0, 64, 87
1, 1401319, Control_c, 0, 64, 67
1, 1401333, Control_c, 0, 64, 59
1, 1401348, Control_c, 0, 64, 60
1, 1401348, Control_c, 0, 67, 54
1, 1401363, Control_c, 0, 64, 65
1, 1401378, Control_c, 0, 64, 77
1, 1401381, Note_on_c, 0, 64, 64
1, 1401393, Control_c, 0, 64, 127
1, 1401431, Note_on_c, 0, 36, 58
1, 1401437, Control_c, 0, 67, 55
1, 1401478, Note_on_c, 0, 58, 66
1, 1401497, Note_off_c, 0, 36, 59
1, 1401509, Note_off_c, 0, 67, 61
1, 1401521, Note_off_c, 0, 70, 61
1, 1401538, Note_off_c, 0, 64, 63
1, 1401563, Note_off_c, 0, 58, 56
1, 1401570, Control_c, 0, 67, 57
1, 1401584, Control_c, 0, 67, 69
1, 1401593, Note_on_c, 0, 70, 83
1, 1401599, Control_c, 0, 67, 90
1, 1401608, Note_on_c, 0, 67, 78
1, 1401614, Control_c, 0, 64, 89
1, 1401614, Control_c, 0, 67, 119
1, 1401629, Control_c, 0, 64, 65
1, 1401629, Control_c, 0, 67, 127
1, 1401644, Control_c, 0, 64, 51
1, 1401658, Control_c, 0, 64, 47
1, 1401673, Control_c, 0, 64, 49
1, 1401688, Control_c, 0, 64, 57
1, 1401703, Note_on_c, 0, 62, 54
1, 1401703, Control_c, 0, 64, 66
1, 1401718, Control_c, 0, 64, 78
1, 1401733, Control_c, 0, 64, 99
1, 1401747, Control_c, 0, 64, 127
1, 1401754, Note_off_c, 0, 62, 54
1, 1401768, Note_on_c, 0, 58, 60
1, 1401778, Note_on_c, 0, 38, 60
1, 1401791, Note_off_c, 0, 58, 59
1, 1401811, Note_off_c, 0, 38, 63
1, 1401815, Note_off_c, 0, 70, 43
1, 1401848, Note_off_c, 0, 67, 61
1, 1401867, Note_on_c, 0, 62, 47
1, 1401889, Note_off_c, 0, 62, 60
1, 1401904, Control_c, 0, 64, 80
1, 1401919, Control_c, 0, 64, 61
1, 1401926, Note_on_c, 0, 65, 69
1, 1401929, Note_on_c, 0, 69, 71
1, 1401934, Control_c, 0, 64, 51
1, 1401963, Control_c, 0, 64, 55
1, 1401978, Control_c, 0, 64, 62
1, 1401993, Control_c, 0, 64, 70
1, 1402004, Note_on_c, 0, 62, 54
1, 1402007, Control_c, 0, 64, 90
1, 1402022, Control_c, 0, 64, 127
1, 1402046, Note_off_c, 0, 65, 55
1, 1402054, Note_off_c, 0, 62, 56
1, 1402093, Note_on_c, 0, 57, 58
1, 1402101, Note_on_c, 0, 41, 59
1, 1402129, Note_off_c, 0, 57, 47
1, 1402144, Note_off_c, 0, 69, 62
1, 1402146, Note_off_c, 0, 41, 59
1, 1402156, Note_on_c, 0, 62, 66
1, 1402171, Control_c, 0, 64, 117
1, 1402181, Note_off_c, 0, 62, 66
1, 1402186, Control_c, 0, 64, 77
1, 1402200, Control_c, 0, 64, 58
1, 1402215, Control_c, 0, 64, 45
1, 1402225, Note_on_c, 0, 69, 77
1, 1402230, Control_c, 0, 64, 45
1, 1402242, Note_on_c, 0, 64, 66
1, 1402245, Control_c, 0, 64, 49
1, 1402260, Control_c, 0, 64, 59
1, 1402274, Control_c, 0, 64, 68
1, 1402289, Control_c, 0, 64, 81
1, 1402304, Control_c, 0, 64, 113
1, 1402311, Note_off_c, 0, 64, 61
1, 1402319, Control_c, 0, 64, 127
1, 1402332, Note_on_c, 0, 61, 64
1, 1402365, Note_off_c, 0, 61, 65
1, 1402378, Control_c, 0, 64, 86
1, 1402393, Control_c, 0, 64, 66
1, 1402401, Note_on_c, 0, 57, 58
1, 1402403, Note_on_c, 0, 45, 57
1, 1402407, Control_c, 0, 64, 54
1, 1402433, Note_off_c, 0, 57, 48
1, 1402434, Note_off_c, 0, 45, 64
1, 1402437, Control_c, 0, 64, 58
1, 1402452, Control_c, 0, 64, 63
1, 1402460, Note_on_c, 0, 61, 68
1, 1402467, Control_c, 0, 64, 70
1, 1402481, Control_c, 0, 64, 81
1, 1402493, Note_off_c, 0, 61, 63
1, 1402496, Control_c, 0, 64, 92
1, 1402511, Control_c, 0, 64, 101
1, 1402525, Control_c, 0, 64, 110
1, 1402540, Control_c, 0, 64, 127
1, 1402555, Note_on_c, 0, 67, 79
1, 1402558, Note_off_c, 0, 69, 52
1, 1402635, Note_on_c, 0, 64, 65
1, 1402668, Control_c, 0, 64, 101
1, 1402674, Note_off_c, 0, 64, 63
1, 1402683, Control_c, 0, 64, 76
1, 1402698, Control_c, 0, 64, 60
1, 1402712, Control_c, 0, 64, 44
1, 1402713, Note_on_c, 0, 57, 56
1, 1402727, Control_c, 0, 64, 0
1, 1402741, Note_on_c, 0, 49, 57
1, 1402773, Note_off_c, 0, 49, 64
1, 1402779, Note_on_c, 0, 64, 70
1, 1402786, Note_off_c, 0, 57, 54
1, 1402803, Note_off_c, 0, 67, 60
1, 1402849, Note_off_c, 0, 64, 61
1, 1402872, Note_on_c, 0, 67, 73
1, 1402952, Note_on_c, 0, 64, 67
1, 1402988, Note_off_c, 0, 64, 65
1, 1403022, Note_on_c, 0, 57, 59
1, 1403038, Note_on_c, 0, 50, 58
1, 1403067, Note_off_c, 0, 50, 65
1, 1403089, Note_on_c, 0, 64, 62
1, 1403089, Note_off_c, 0, 57, 55
1, 1403131, Note_off_c, 0, 64, 61
1, 1403186, Note_on_c, 0, 65, 70
1, 1403190, Note_on_c, 0, 52, 58
1, 1403214, Note_off_c, 0, 52, 59
1, 1403225, Note_off_c, 0, 67, 61
1, 1403258, Note_on_c, 0, 62, 57
1, 1403297, Note_off_c, 0, 62, 63
1, 1403336, Note_on_c, 0, 57, 63
1, 1403350, Note_on_c, 0, 53, 53
1, 1403375, Note_off_c, 0, 53, 59
1, 1403380, Note_on_c, 0, 62, 66
1, 1403393, Note_off_c, 0, 65, 60
1, 1403416, Note_off_c, 0, 57, 53
1, 1403461, Note_off_c, 0, 62, 59
1, 1403479, Note_on_c, 0, 64, 82
1, 1403480, Note_on_c, 0, 55, 64
1, 1403502, Note_off_c, 0, 55, 63
1, 1403572, Note_on_c, 0, 60, 61
1, 1403601, Note_off_c, 0, 60, 66
1, 1403626, Note_on_c, 0, 55, 45
1, 1403685, Note_on_c, 0, 60, 62
1, 1403703, Note_off_c, 0, 55, 56
1, 1403742, Note_off_c, 0, 60, 62
1, 1403793, Note_on_c, 0, 62, 65
1, 1403797, Note_on_c, 0, 43, 63
1, 1403820, Note_off_c, 0, 43, 61
1, 1403821, Note_off_c, 0, 64, 59
1, 1403864, Note_on_c, 0, 59, 62
1, 1403893, Note_off_c, 0, 59, 66
1, 1403945, Note_on_c, 0, 53, 49
1, 1403986, Note_off_c, 0, 53, 58
1, 1403988, Note_on_c, 0, 59, 47
1, 1404046, Note_off_c, 0, 59, 63
1, 1404067, Note_on_c, 0, 60, 61
1, 1404079, Note_off_c, 0, 62, 57
1, 1404087, Note_on_c, 0, 48, 77
1, 1404088, Note_on_c, 0, 36, 72
1, 1404108, Note_off_c, 0, 60, 67
1, 1404112, Note_on_c, 0, 52, 53
1, 1404112, Note_off_c, 0, 36, 65
1, 1404114, Note_off_c, 0, 48, 66
1, 1404139, Note_off_c, 0, 52, 57
1, 1404165, Control_c, 0, 67, 113
1, 1404180, Control_c, 0, 67, 72
1, 1404195, Control_c, 0, 67, 41
1, 1404210, Control_c, 0, 67, 0
1, 1404255, Note_on_c, 0, 55, 75
1, 1404279, Note_off_c, 0, 55, 66
1, 1404418, Note_on_c, 0, 52, 69
1, 1404438, Note_off_c, 0, 52, 64
1, 1404561, Note_on_c, 0, 50, 55
1, 1404566, Control_c, 0, 67, 51
1, 1404581, Control_c, 0, 67, 90
1, 1404589, Note_off_c, 0, 50, 64
1, 1404595, Control_c, 0, 67, 127
1, 1404728, Note_on_c, 0, 48, 58
1, 1404772, Note_off_c, 0, 48, 59
1, 1404803, Control_c, 0, 64, 32
1, 1404825, Control_c, 0, 64, 35
1, 1404855, Control_c, 0, 64, 36
1, 1404869, Control_c, 0, 64, 39
1, 1404884, Control_c, 0, 64, 45
1, 1404897, Note_on_c, 0, 72, 61
1, 1404899, Control_c, 0, 64, 51
1, 1404909, Note_on_c, 0, 67, 47
1, 1404914, Control_c, 0, 64, 52
1, 1404915, Note_on_c, 0, 64, 36
1, 1404928, Control_c, 0, 64, 52
1, 1404943, Control_c, 0, 64, 54
1, 1404956, Note_on_c, 0, 46, 38
1, 1404958, Control_c, 0, 64, 58
1, 1404966, Note_off_c, 0, 67, 53
1, 1404973, Control_c, 0, 64, 61
1, 1404988, Control_c, 0, 64, 64
1, 1405004, Control_c, 0, 64, 66
1, 1405015, Note_off_c, 0, 46, 43
1, 1405016, Note_off_c, 0, 72, 59
1, 1405019, Control_c, 0, 64, 68
1, 1405020, Note_off_c, 0, 64, 40
1, 1405033, Control_c, 0, 64, 69
1, 1405048, Control_c, 0, 64, 71
1, 1405063, Control_c, 0, 64, 72
1, 1405078, Control_c, 0, 64, 74
1, 1405093, Control_c, 0, 64, 75
1, 1405107, Control_c, 0, 64, 75
1, 1405122, Control_c, 0, 64, 74
1, 1405126, Note_on_c, 0, 72, 57
1, 1405134, Note_on_c, 0, 64, 44
1, 1405137, Control_c, 0, 64, 67
1, 1405139, Note_on_c, 0, 69, 45
1, 1405152, Control_c, 0, 64, 59
1, 1405159, Note_on_c, 0, 45, 34
1, 1405167, Control_c, 0, 64, 49
1, 1405181, Control_c, 0, 64, 50
1, 1405196, Control_c, 0, 64, 56
1, 1405211, Control_c, 0, 64, 63
1, 1405219, Note_off_c, 0, 64, 0
1, 1405219, Note_on_c, 0, 64, 3
1, 1405223, Note_off_c, 0, 69, 62
1, 1405226, Control_c, 0, 64, 69
1, 1405241, Control_c, 0, 64, 76
1, 1405241, Note_off_c, 0, 72, 57
1, 1405256, Control_c, 0, 64, 82
1, 1405265, Note_off_c, 0, 64, 46
1, 1405271, Control_c, 0, 64, 86
1, 1405286, Control_c, 0, 64, 89
1, 1405300, Control_c, 0, 64, 90
1, 1405311, Note_off_c, 0, 45, 36
1, 1405315, Control_c, 0, 64, 91
1, 1405344, Control_c, 0, 64, 91
1, 1405359, Control_c, 0, 64, 84
1, 1405374, Control_c, 0, 64, 68
1, 1405375, Note_on_c, 0, 72, 54
1, 1405386, Note_on_c, 0, 64, 42
1, 1405389, Control_c, 0, 64, 53
1, 1405395, Note_on_c, 0, 43, 45
1, 1405404, Note_on_c, 0, 70, 37
1, 1405404, Control_c, 0, 64, 42
1, 1405418, Control_c, 0, 64, 44
1, 1405433, Control_c, 0, 64, 53
1, 1405448, Control_c, 0, 64, 62
1, 1405463, Control_c, 0, 64, 72
1, 1405478, Control_c, 0, 64, 90
1, 1405488, Note_off_c, 0, 43, 60
1, 1405492, Control_c, 0, 64, 109
1, 1405507, Control_c, 0, 64, 127
1, 1405536, Note_off_c, 0, 72, 60
1, 1405539, Note_off_c, 0, 64, 37
1, 1405700, Note_off_c, 0, 70, 37
1, 1405748, Note_on_c, 0, 72, 57
1, 1405841, Control_c, 0, 64, 99
1, 1405856, Control_c, 0, 64, 76
1, 1405871, Control_c, 0, 64, 62
1, 1405886, Control_c, 0, 64, 50
1, 1405901, Control_c, 0, 64, 49
1, 1405916, Control_c, 0, 64, 51
1, 1405930, Control_c, 0, 64, 56
1, 1405945, Control_c, 0, 64, 61
1, 1405960, Control_c, 0, 64, 65
1, 1405974, Note_on_c, 0, 69, 20
1, 1405974, Control_c, 0, 64, 72
1, 1405989, Control_c, 0, 64, 79
1, 1406004, Control_c, 0, 64, 84
1, 1406019, Control_c, 0, 64, 88
1, 1406034, Control_c, 0, 64, 93
1, 1406037, Note_on_c, 0, 29, 52
1, 1406049, Control_c, 0, 64, 99
1, 1406064, Control_c, 0, 64, 109
1, 1406079, Control_c, 0, 64, 127
1, 1406080, Note_on_c, 0, 65, 19
1, 1406088, Note_off_c, 0, 69, 39
1, 1406155, Note_on_c, 0, 69, 36
1, 1406183, Note_off_c, 0, 65, 37
1, 1406232, Note_on_c, 0, 77, 73
1, 1406234, Note_off_c, 0, 69, 61
1, 1406240, Note_off_c, 0, 29, 31
1, 1406254, Note_off_c, 0, 72, 55
1, 1406271, Control_c, 0, 64, 83
1, 1406286, Control_c, 0, 64, 62
1, 1406300, Control_c, 0, 64, 51
1, 1406323, Control_c, 0, 64, 50
1, 1406338, Control_c, 0, 64, 55
1, 1406342, Note_on_c, 0, 69, 53
1, 1406353, Control_c, 0, 64, 62
1, 1406368, Control_c, 0, 64, 70
1, 1406377, Note_off_c, 0, 69, 62
1, 1406382, Control_c, 0, 64, 83
1, 1406397, Control_c, 0, 64, 108
1, 1406412, Control_c, 0, 64, 127
1, 1406430, Note_on_c, 0, 41, 44
1, 1406439, Note_on_c, 0, 65, 36
1, 1406473, Note_off_c, 0, 77, 62
1, 1406484, Note_on_c, 0, 69, 51
1, 1406487, Note_off_c, 0, 65, 43
1, 1406488, Note_off_c, 0, 41, 63
1, 1406518, Note_off_c, 0, 69, 63
1, 1406570, Note_on_c, 0, 76, 80
1, 1406574, Control_c, 0, 64, 86
1, 1406577, Note_on_c, 0, 72, 71
1, 1406590, Control_c, 0, 64, 66
1, 1406605, Control_c, 0, 64, 55
1, 1406635, Control_c, 0, 64, 60
1, 1406650, Control_c, 0, 64, 66
1, 1406664, Control_c, 0, 64, 76
1, 1406679, Control_c, 0, 64, 92
1, 1406689, Note_on_c, 0, 69, 52
1, 1406694, Control_c, 0, 64, 123
1, 1406709, Control_c, 0, 64, 127
1, 1406739, Note_off_c, 0, 69, 58
1, 1406761, Note_on_c, 0, 45, 40
1, 1406775, Note_on_c, 0, 64, 28
1, 1406797, Note_off_c, 0, 76, 60
1, 1406797, Note_off_c, 0, 45, 63
1, 1406803, Note_on_c, 0, 69, 59
1, 1406821, Note_off_c, 0, 72, 62
1, 1406834, Note_off_c, 0, 69, 65
1, 1406840, Note_off_c, 0, 64, 48
1, 1406857, Control_c, 0, 64, 99
1, 1406872, Control_c, 0, 64, 70
1, 1406887, Control_c, 0, 64, 55
1, 1406888, Note_on_c, 0, 74, 84
1, 1406901, Control_c, 0, 64, 50
1, 1406904, Note_on_c, 0, 70, 69
1, 1406916, Control_c, 0, 64, 54
1, 1406931, Control_c, 0, 64, 61
1, 1406946, Control_c, 0, 64, 69
1, 1406961, Control_c, 0, 64, 82
1, 1406976, Control_c, 0, 64, 104
1, 1406990, Control_c, 0, 64, 127
1, 1407014, Note_on_c, 0, 65, 51
1, 1407071, Note_off_c, 0, 65, 54
1, 1407087, Note_on_c, 0, 46, 30
1, 1407127, Note_on_c, 0, 62, 36
1, 1407139, Note_off_c, 0, 46, 52
1, 1407146, Note_off_c, 0, 74, 56
1, 1407161, Note_off_c, 0, 62, 52
1, 1407169, Note_off_c, 0, 70, 63
1, 1407220, Control_c, 0, 64, 104
1, 1407235, Control_c, 0, 64, 73
1, 1407239, Note_on_c, 0, 74, 81
1, 1407250, Control_c, 0, 64, 57
1, 1407264, Note_on_c, 0, 69, 55
1, 1407265, Control_c, 0, 64, 50
1, 1407279, Control_c, 0, 64, 51
1, 1407294, Control_c, 0, 64, 57
1, 1407309, Control_c, 0, 64, 66
1, 1407323, Control_c, 0, 64, 76
1, 1407338, Control_c, 0, 64, 93
1, 1407350, Note_on_c, 0, 65, 50
1, 1407353, Control_c, 0, 64, 109
1, 1407368, Control_c, 0, 64, 127
1, 1407414, Note_off_c, 0, 65, 52
1, 1407450, Note_on_c, 0, 50, 38
1, 1407454, Note_off_c, 0, 74, 58
1, 1407464, Note_on_c, 0, 62, 42
1, 1407492, Note_off_c, 0, 50, 62
1, 1407495, Note_off_c, 0, 62, 53
1, 1407496, Note_off_c, 0, 69, 61
1, 1407569, Note_on_c, 0, 72, 72
1, 1407575, Note_on_c, 0, 69, 68
1, 1407576, Control_c, 0, 64, 80
1, 1407591, Control_c, 0, 64, 64
1, 1407606, Control_c, 0, 64, 56
1, 1407620, Control_c, 0, 64, 57
1, 1407635, Control_c, 0, 64, 63
1, 1407650, Control_c, 0, 64, 71
1, 1407664, Note_on_c, 0, 65, 65
1, 1407665, Control_c, 0, 64, 87
1, 1407679, Control_c, 0, 64, 127
1, 1407694, Note_off_c, 0, 65, 64
1, 1407748, Note_on_c, 0, 60, 51
1, 1407758, Note_on_c, 0, 53, 47
1, 1407781, Note_off_c, 0, 60, 51
1, 1407802, Note_off_c, 0, 72, 52
1, 1407812, Note_on_c, 0, 65, 54
1, 1407835, Note_off_c, 0, 53, 50
1, 1407837, Note_off_c, 0, 69, 59
1, 1407849, Note_off_c, 0, 65, 63
1, 1407879, Control_c, 0, 64, 84
1, 1407891, Note_on_c, 0, 72, 84
1, 1407894, Control_c, 0, 64, 66
1, 1407898, Note_on_c, 0, 69, 65
1, 1407909, Control_c, 0, 64, 58
1, 1407924, Control_c, 0, 64, 62
1, 1407939, Control_c, 0, 64, 71
1, 1407954, Control_c, 0, 64, 94
1, 1407969, Control_c, 0, 64, 127
1, 1407972, Note_on_c, 0, 64, 72
1, 1408030, Note_off_c, 0, 64, 63
1, 1408052, Note_on_c, 0, 57, 53
1, 1408061, Note_on_c, 0, 60, 64
1, 1408071, Note_off_c, 0, 72, 59
1, 1408072, Control_c, 0, 67, 112
1, 1408085, Note_off_c, 0, 57, 65
1, 1408087, Control_c, 0, 67, 101
1, 1408101, Note_off_c, 0, 60, 56
1, 1408102, Control_c, 0, 67, 99
1, 1408105, Note_off_c, 0, 69, 59
1, 1408121, Note_on_c, 0, 64, 64
1, 1408146, Control_c, 0, 67, 104
1, 1408152, Note_off_c, 0, 64, 65
1, 1408161, Control_c, 0, 67, 108
1, 1408176, Control_c, 0, 67, 111
1, 1408192, Control_c, 0, 64, 84
1, 1408197, Note_on_c, 0, 70, 87
1, 1408206, Note_on_c, 0, 67, 77
1, 1408207, Control_c, 0, 64, 66
1, 1408222, Control_c, 0, 64, 59
1, 1408222, Control_c, 0, 67, 116
1, 1408237, Control_c, 0, 64, 63
1, 1408237, Control_c, 0, 67, 120
1, 1408251, Control_c, 0, 64, 71
1, 1408251, Control_c, 0, 67, 125
1, 1408266, Control_c, 0, 64, 92
1, 1408281, Control_c, 0, 64, 127
1, 1408289, Note_on_c, 0, 64, 67
1, 1408311, Control_c, 0, 67, 127
1, 1408354, Note_on_c, 0, 36, 50
1, 1408391, Note_off_c, 0, 64, 55
1, 1408399, Note_on_c, 0, 58, 58
1, 1408428, Note_off_c, 0, 67, 60
1, 1408431, Note_on_c, 0, 64, 50
1, 1408440, Note_off_c, 0, 70, 63
1, 1408445, Note_off_c, 0, 36, 51
1, 1408469, Note_off_c, 0, 64, 63
1, 1408477, Note_off_c, 0, 58, 62
1, 1408502, Control_c, 0, 64, 91
1, 1408517, Control_c, 0, 64, 63
1, 1408518, Note_on_c, 0, 70, 80
1, 1408531, Note_on_c, 0, 67, 77
1, 1408532, Control_c, 0, 64, 48
1, 1408547, Control_c, 0, 64, 48
1, 1408569, Control_c, 0, 64, 54
1, 1408584, Control_c, 0, 64, 63
1, 1408599, Control_c, 0, 64, 76
1, 1408614, Control_c, 0, 64, 104
1, 1408629, Control_c, 0, 64, 127
1, 1408638, Note_on_c, 0, 62, 49
1, 1408684, Note_off_c, 0, 62, 56
1, 1408704, Note_on_c, 0, 58, 61
1, 1408723, Note_on_c, 0, 38, 55
1, 1408725, Note_off_c, 0, 58, 62
1, 1408757, Note_off_c, 0, 70, 57
1, 1408774, Note_off_c, 0, 67, 62
1, 1408784, Note_off_c, 0, 38, 60
1, 1408791, Note_on_c, 0, 62, 45
1, 1408806, Control_c, 0, 64, 87
1, 1408817, Note_off_c, 0, 62, 58
1, 1408821, Control_c, 0, 64, 62
1, 1408836, Control_c, 0, 64, 44
1, 1408849, Note_on_c, 0, 65, 73
1, 1408851, Control_c, 0, 64, 45
1, 1408851, Note_on_c, 0, 69, 78
1, 1408866, Control_c, 0, 64, 55
1, 1408881, Control_c, 0, 64, 66
1, 1408895, Control_c, 0, 64, 83
1, 1408910, Control_c, 0, 64, 127
1, 1408932, Note_on_c, 0, 62, 53
1, 1408976, Note_off_c, 0, 65, 57
1, 1408979, Note_off_c, 0, 62, 61
1, 1409026, Note_on_c, 0, 57, 53
1, 1409031, Note_on_c, 0, 41, 47
1, 1409058, Note_off_c, 0, 57, 50
1, 1409075, Note_off_c, 0, 41, 56
1, 1409075, Note_off_c, 0, 69, 56
1, 1409098, Note_on_c, 0, 62, 47
1, 1409118, Control_c, 0, 64, 83
1, 1409119, Note_off_c, 0, 62, 61
1, 1409133, Control_c, 0, 64, 62
1, 1409148, Control_c, 0, 64, 48
1, 1409161, Note_on_c, 0, 69, 74
1, 1409163, Control_c, 0, 64, 48
1, 1409178, Control_c, 0, 64, 55
1, 1409182, Note_on_c, 0, 64, 57
1, 1409192, Control_c, 0, 64, 66
1, 1409207, Control_c, 0, 64, 82
1, 1409222, Control_c, 0, 64, 127
1, 1409249, Note_off_c, 0, 64, 39
1, 1409274, Note_on_c, 0, 61, 60
1, 1409307, Note_off_c, 0, 61, 64
1, 1409346, Note_on_c, 0, 45, 49
1, 1409356, Note_on_c, 0, 57, 63
1, 1409376, Note_off_c, 0, 45, 61
1, 1409386, Note_off_c, 0, 57, 65
1, 1409414, Note_on_c, 0, 61, 60
1, 1409463, Note_off_c, 0, 61, 60
1, 1409492, Note_off_c, 0, 69, 54
1, 1409499, Note_on_c, 0, 67, 76
1, 1409525, Control_c, 0, 64, 109
1, 1409540, Control_c, 0, 64, 83
1, 1409555, Control_c, 0, 64, 62
1, 1409570, Control_c, 0, 64, 38
1, 1409581, Note_on_c, 0, 64, 69
1, 1409585, Control_c, 0, 64, 0
1, 1409618, Note_off_c, 0, 64, 60
1, 1409656, Note_on_c, 0, 57, 56
1, 1409666, Note_on_c, 0, 49, 51
1, 1409697, Note_off_c, 0, 49, 64
1, 1409718, Note_off_c, 0, 67, 60
1, 1409721, Note_on_c, 0, 64, 62
1, 1409728, Note_off_c, 0, 57, 58
1, 1409770, Note_off_c, 0, 64, 60
1, 1409794, Note_on_c, 0, 67, 74
1, 1409878, Note_on_c, 0, 64, 65
1, 1409918, Note_off_c, 0, 64, 64
1, 1409941, Note_on_c, 0, 57, 60
1, 1409944, Note_on_c, 0, 50, 63
1, 1409974, Note_off_c, 0, 50, 66
1, 1410023, Note_off_c, 0, 57, 59
1, 1410025, Note_on_c, 0, 64, 58
1, 1410055, Note_off_c, 0, 64, 65
1, 1410103, Note_on_c, 0, 66, 72
1, 1410105, Note_on_c, 0, 52, 52
1, 1410133, Note_off_c, 0, 52, 61
1, 1410137, Note_off_c, 0, 67, 61
1, 1410195, Note_on_c, 0, 62, 52
1, 1410230, Note_on_c, 0, 54, 45
1, 1410231, Note_off_c, 0, 62, 64
1, 1410264, Note_on_c, 0, 57, 43
1, 1410272, Note_off_c, 0, 54, 61
1, 1410337, Note_on_c, 0, 62, 46
1, 1410342, Note_off_c, 0, 57, 53
1, 1410371, Note_off_c, 0, 66, 53
1, 1410457, Note_on_c, 0, 43, 43
1, 1410459, Note_off_c, 0, 62, 60
1, 1410464, Note_on_c, 0, 64, 59
1, 1410587, Note_on_c, 0, 62, 42
1, 1410613, Note_off_c, 0, 43, 37
1, 1410645, Note_off_c, 0, 62, 51
1, 1410667, Note_on_c, 0, 59, 55
1, 1410759, Note_on_c, 0, 62, 48
1, 1410772, Note_off_c, 0, 59, 31
1, 1410881, Note_on_c, 0, 45, 31
1, 1410884, Note_off_c, 0, 64, 61
1, 1410894, Note_on_c, 0, 66, 62
1, 1410917, Note_off_c, 0, 62, 59
1, 1411033, Note_off_c, 0, 45, 56
1, 1411047, Note_on_c, 0, 61, 42
1, 1411138, Note_off_c, 0, 61, 45
1, 1411161, Note_on_c, 0, 57, 42
1, 1411271, Note_on_c, 0, 61, 53
1, 1411312, Note_off_c, 0, 57, 34
1, 1411364, Control_c, 0, 64, 28
1, 1411377, Note_off_c, 0, 61, 60
1, 1411405, Note_on_c, 0, 62, 50
1, 1411526, Note_on_c, 0, 57, 46
1, 1411550, Note_off_c, 0, 66, 27
1, 1411590, Note_off_c, 0, 57, 60
1, 1411594, Control_c, 0, 64, 35
1, 1411609, Control_c, 0, 64, 46
1, 1411624, Control_c, 0, 64, 57
1, 1411634, Note_on_c, 0, 54, 35
1, 1411636, Note_on_c, 0, 50, 38
1, 1411639, Control_c, 0, 64, 62
1, 1411654, Control_c, 0, 64, 64
1, 1411668, Control_c, 0, 64, 65
1, 1411671, Note_off_c, 0, 50, 62
1, 1411673, Note_off_c, 0, 54, 62
1, 1411683, Control_c, 0, 64, 67
1, 1411689, Note_on_c, 0, 57, 60
1, 1411698, Control_c, 0, 64, 69
1, 1411713, Control_c, 0, 64, 71
1, 1411728, Control_c, 0, 64, 74
1, 1411742, Control_c, 0, 64, 77
1, 1411754, Note_off_c, 0, 57, 55
1, 1411757, Control_c, 0, 64, 80
1, 1411772, Control_c, 0, 64, 82
1, 1411784, Note_on_c, 0, 64, 71
1, 1411787, Control_c, 0, 64, 85
1, 1411802, Control_c, 0, 64, 88
1, 1411804, Note_off_c, 0, 62, 51
1, 1411817, Control_c, 0, 64, 90
1, 1411832, Control_c, 0, 64, 90
1, 1411847, Control_c, 0, 64, 89
1, 1411861, Control_c, 0, 64, 78
1, 1411876, Control_c, 0, 64, 64
1, 1411889, Control_c, 0, 64, 45
1, 1411897, Note_on_c, 0, 59, 40
1, 1411904, Control_c, 0, 64, 34
1, 1411918, Control_c, 0, 64, 37
1, 1411933, Control_c, 0, 64, 46
1, 1411948, Control_c, 0, 64, 56
1, 1411955, Note_off_c, 0, 59, 48
1, 1411960, Note_on_c, 0, 55, 59
1, 1411963, Note_on_c, 0, 43, 44
1, 1411963, Control_c, 0, 64, 64
1, 1411978, Control_c, 0, 64, 69
1, 1411993, Control_c, 0, 64, 73
1, 1412008, Control_c, 0, 64, 76
1, 1412023, Control_c, 0, 64, 78
1, 1412037, Control_c, 0, 64, 81
1, 1412048, Note_on_c, 0, 59, 64
1, 1412052, Control_c, 0, 64, 84
1, 1412067, Control_c, 0, 64, 87
1, 1412072, Note_off_c, 0, 55, 52
1, 1412082, Control_c, 0, 64, 92
1, 1412088, Note_off_c, 0, 43, 50
1, 1412097, Control_c, 0, 64, 97
1, 1412110, Note_off_c, 0, 59, 61
1, 1412112, Note_off_c, 0, 64, 0
1, 1412124, Note_on_c, 0, 66, 83
1, 1412126, Control_c, 0, 64, 91
1, 1412137, Note_on_c, 0, 64, 18
1, 1412141, Control_c, 0, 64, 74
1, 1412156, Control_c, 0, 64, 57
1, 1412171, Control_c, 0, 64, 40
1, 1412181, Note_off_c, 0, 64, 51
1, 1412187, Control_c, 0, 64, 39
1, 1412201, Control_c, 0, 64, 48
1, 1412206, Note_on_c, 0, 60, 64
1, 1412216, Control_c, 0, 64, 59
1, 1412231, Control_c, 0, 64, 67
1, 1412246, Control_c, 0, 64, 77
1, 1412261, Control_c, 0, 64, 86
1, 1412275, Note_off_c, 0, 60, 59
1, 1412275, Control_c, 0, 64, 90
1, 1412290, Control_c, 0, 64, 93
1, 1412292, Note_on_c, 0, 38, 56
1, 1412312, Control_c, 0, 64, 97
1, 1412321, Note_on_c, 0, 57, 57
1, 1412327, Control_c, 0, 64, 103
1, 1412342, Control_c, 0, 64, 110
1, 1412356, Control_c, 0, 64, 127
1, 1412360, Note_off_c, 0, 38, 57
1, 1412373, Note_off_c, 0, 57, 53
1, 1412386, Note_on_c, 0, 60, 62
1, 1412389, Note_off_c, 0, 66, 62
1, 1412413, Note_off_c, 0, 60, 68
1, 1412455, Note_on_c, 0, 66, 92
1, 1412461, Control_c, 0, 64, 82
1, 1412475, Control_c, 0, 64, 63
1, 1412490, Control_c, 0, 64, 52
1, 1412505, Control_c, 0, 64, 52
1, 1412520, Control_c, 0, 64, 59
1, 1412534, Control_c, 0, 64, 66
1, 1412539, Note_on_c, 0, 60, 66
1, 1412549, Control_c, 0, 64, 76
1, 1412564, Control_c, 0, 64, 90
1, 1412579, Control_c, 0, 64, 100
1, 1412594, Control_c, 0, 64, 104
1, 1412608, Control_c, 0, 64, 111
1, 1412613, Note_off_c, 0, 60, 62
1, 1412616, Note_on_c, 0, 38, 43
1, 1412622, Note_on_c, 0, 57, 66
1, 1412623, Control_c, 0, 64, 127
1, 1412702, Note_on_c, 0, 60, 67
1, 1412712, Note_off_c, 0, 66, 60
1, 1412714, Note_off_c, 0, 57, 47
1, 1412753, Note_off_c, 0, 60, 58
1, 1412787, Note_on_c, 0, 66, 78
1, 1412798, Note_off_c, 0, 38, 29
1, 1412802, Control_c, 0, 64, 101
1, 1412816, Control_c, 0, 64, 72
1, 1412831, Control_c, 0, 64, 56
1, 1412846, Control_c, 0, 64, 44
1, 1412860, Control_c, 0, 64, 42
1, 1412873, Note_on_c, 0, 60, 61
1, 1412875, Control_c, 0, 64, 43
1, 1412890, Control_c, 0, 64, 48
1, 1412905, Control_c, 0, 64, 55
1, 1412920, Control_c, 0, 64, 62
1, 1412924, Note_off_c, 0, 60, 58
1, 1412935, Control_c, 0, 64, 67
1, 1412950, Control_c, 0, 64, 72
1, 1412965, Control_c, 0, 64, 79
1, 1412968, Note_on_c, 0, 57, 57
1, 1412980, Control_c, 0, 64, 83
1, 1412983, Note_on_c, 0, 31, 46
1, 1412995, Control_c, 0, 64, 85
1, 1413010, Control_c, 0, 64, 88
1, 1413025, Control_c, 0, 64, 93
1, 1413033, Note_off_c, 0, 31, 55
1, 1413039, Note_on_c, 0, 60, 62
1, 1413039, Note_off_c, 0, 57, 52
1, 1413039, Control_c, 0, 64, 96
1, 1413050, Note_off_c, 0, 66, 57
1, 1413062, Control_c, 0, 64, 98
1, 1413091, Control_c, 0, 64, 101
1, 1413102, Note_off_c, 0, 60, 59
1, 1413128, Note_on_c, 0, 67, 76
1, 1413136, Control_c, 0, 64, 96
1, 1413151, Control_c, 0, 64, 79
1, 1413165, Control_c, 0, 64, 63
1, 1413180, Control_c, 0, 64, 45
1, 1413195, Control_c, 0, 64, 34
1, 1413210, Control_c, 0, 64, 33
1, 1413220, Note_on_c, 0, 62, 60
1, 1413225, Control_c, 0, 64, 37
1, 1413239, Control_c, 0, 64, 46
1, 1413254, Control_c, 0, 64, 55
1, 1413258, Note_off_c, 0, 62, 64
1, 1413269, Control_c, 0, 64, 62
1, 1413284, Control_c, 0, 64, 67
1, 1413286, Note_on_c, 0, 31, 40
1, 1413298, Control_c, 0, 64, 71
1, 1413313, Note_on_c, 0, 59, 50
1, 1413313, Control_c, 0, 64, 75
1, 1413328, Control_c, 0, 64, 77
1, 1413342, Note_off_c, 0, 31, 54
1, 1413343, Control_c, 0, 64, 79
1, 1413358, Note_off_c, 0, 59, 49
1, 1413358, Control_c, 0, 64, 81
1, 1413373, Note_on_c, 0, 62, 60
1, 1413373, Control_c, 0, 64, 83
1, 1413388, Control_c, 0, 64, 84
1, 1413418, Control_c, 0, 64, 80
1, 1413418, Note_off_c, 0, 62, 60
1, 1413432, Control_c, 0, 64, 66
1, 1413443, Note_off_c, 0, 67, 52
1, 1413447, Control_c, 0, 64, 47
1, 1413453, Note_on_c, 0, 66, 73
1, 1413462, Control_c, 0, 64, 0
1, 1413491, Control_c, 0, 64, 29
1, 1413506, Control_c, 0, 64, 42
1, 1413521, Control_c, 0, 64, 56
1, 1413536, Control_c, 0, 64, 66
1, 1413542, Note_on_c, 0, 62, 51
1, 1413551, Control_c, 0, 64, 72
1, 1413565, Control_c, 0, 64, 75
1, 1413580, Control_c, 0, 64, 77
1, 1413588, Note_off_c, 0, 62, 61
1, 1413595, Control_c, 0, 64, 80
1, 1413610, Control_c, 0, 64, 82
1, 1413617, Note_on_c, 0, 57, 53
1, 1413625, Control_c, 0, 64, 86
1, 1413639, Control_c, 0, 64, 91
1, 1413654, Control_c, 0, 64, 96
1, 1413668, Note_on_c, 0, 33, 44
1, 1413668, Note_off_c, 0, 57, 49
1, 1413669, Control_c, 0, 64, 100
1, 1413683, Control_c, 0, 64, 105
1, 1413690, Note_on_c, 0, 62, 49
1, 1413698, Control_c, 0, 64, 108
1, 1413722, Note_off_c, 0, 66, 56
1, 1413728, Control_c, 0, 64, 100
1, 1413732, Note_off_c, 0, 33, 56
1, 1413743, Control_c, 0, 64, 79
1, 1413747, Note_off_c, 0, 62, 62
1, 1413758, Control_c, 0, 64, 61
1, 1413769, Note_on_c, 0, 64, 57
1, 1413772, Control_c, 0, 64, 42
1, 1413788, Control_c, 0, 64, 34
1, 1413811, Control_c, 0, 64, 38
1, 1413826, Control_c, 0, 64, 48
1, 1413841, Control_c, 0, 64, 62
1, 1413856, Control_c, 0, 64, 70
1, 1413870, Control_c, 0, 64, 79
1, 1413879, Note_on_c, 0, 61, 55
1, 1413885, Control_c, 0, 64, 87
1, 1413900, Control_c, 0, 64, 93
1, 1413904, Note_off_c, 0, 61, 60
1, 1413914, Control_c, 0, 64, 102
1, 1413927, Note_on_c, 0, 57, 54
1, 1413929, Control_c, 0, 64, 120
1, 1413944, Control_c, 0, 64, 127
1, 1413953, Note_on_c, 0, 33, 48
1, 1413990, Note_off_c, 0, 33, 61
1, 1413993, Note_on_c, 0, 61, 54
1, 1414004, Note_off_c, 0, 64, 59
1, 1414021, Note_off_c, 0, 57, 53
1, 1414055, Note_off_c, 0, 61, 62
1, 1414105, Note_on_c, 0, 66, 79
1, 1414121, Control_c, 0, 64, 85
1, 1414136, Control_c, 0, 64, 63
1, 1414151, Control_c, 0, 64, 41
1, 1414166, Control_c, 0, 64, 31
1, 1414181, Control_c, 0, 64, 32
1, 1414192, Note_on_c, 0, 62, 68
1, 1414196, Control_c, 0, 64, 41
1, 1414211, Control_c, 0, 64, 53
1, 1414225, Control_c, 0, 64, 63
1, 1414240, Control_c, 0, 64, 71
1, 1414250, Note_off_c, 0, 62, 60
1, 1414255, Control_c, 0, 64, 78
1, 1414270, Control_c, 0, 64, 85
1, 1414270, Note_on_c, 0, 38, 31
1, 1414280, Note_on_c, 0, 60, 65
1, 1414285, Control_c, 0, 64, 94
1, 1414299, Control_c, 0, 64, 105
1, 1414314, Control_c, 0, 64, 127
1, 1414314, Control_c, 0, 67, 123
1, 1414321, Note_off_c, 0, 38, 44
1, 1414329, Control_c, 0, 67, 91
1, 1414344, Control_c, 0, 67, 66
1, 1414348, Note_on_c, 0, 62, 73
1, 1414359, Control_c, 0, 67, 56
1, 1414360, Note_off_c, 0, 60, 56
1, 1414372, Note_off_c, 0, 66, 63
1, 1414374, Control_c, 0, 67, 53
1, 1414388, Control_c, 0, 67, 51
1, 1414389, Note_off_c, 0, 62, 61
1, 1414403, Control_c, 0, 67, 49
1, 1414418, Control_c, 0, 64, 105
1, 1414418, Control_c, 0, 67, 48
1, 1414419, Note_on_c, 0, 67, 89
1, 1414432, Control_c, 0, 64, 73
1, 1414447, Control_c, 0, 64, 50
1, 1414462, Control_c, 0, 64, 39
1, 1414462, Control_c, 0, 67, 47
1, 1414477, Control_c, 0, 64, 43
1, 1414477, Control_c, 0, 67, 45
1, 1414492, Control_c, 0, 64, 54
1, 1414492, Control_c, 0, 67, 44
1, 1414500, Note_on_c, 0, 64, 72
1, 1414506, Control_c, 0, 64, 65
1, 1414521, Control_c, 0, 64, 79
1, 1414536, Control_c, 0, 64, 107
1, 1414536, Control_c, 0, 67, 43
1, 1414539, Note_off_c, 0, 64, 63
1, 1414559, Control_c, 0, 64, 127
1, 1414559, Control_c, 0, 67, 35
1, 1414571, Note_on_c, 0, 60, 50
1, 1414574, Control_c, 0, 67, 0
1, 1414610, Note_on_c, 0, 50, 45
1, 1414634, Note_on_c, 0, 64, 69
1, 1414655, Note_off_c, 0, 60, 57
1, 1414672, Note_off_c, 0, 50, 52
1, 1414690, Note_off_c, 0, 67, 57
1, 1414705, Note_off_c, 0, 64, 62
1, 1414723, Control_c, 0, 64, 86
1, 1414723, Note_on_c, 0, 69, 91
1, 1414737, Control_c, 0, 64, 63
1, 1414752, Control_c, 0, 64, 47
1, 1414782, Control_c, 0, 64, 56
1, 1414797, Control_c, 0, 64, 66
1, 1414811, Note_on_c, 0, 66, 72
1, 1414811, Control_c, 0, 64, 81
1, 1414826, Control_c, 0, 64, 127
1, 1414893, Note_off_c, 0, 66, 62
1, 1414899, Note_on_c, 0, 60, 63
1, 1414940, Note_on_c, 0, 50, 46
1, 1414978, Note_on_c, 0, 66, 67
1, 1414983, Note_off_c, 0, 69, 59
1, 1415004, Note_off_c, 0, 60, 57
1, 1415028, Note_off_c, 0, 66, 63
1, 1415066, Note_on_c, 0, 69, 93
1, 1415077, Note_off_c, 0, 50, 44
1, 1415078, Control_c, 0, 64, 80
1, 1415093, Control_c, 0, 64, 61
1, 1415108, Control_c, 0, 64, 45
1, 1415122, Control_c, 0, 64, 42
1, 1415137, Control_c, 0, 64, 46
1, 1415141, Note_on_c, 0, 66, 77
1, 1415152, Control_c, 0, 64, 57
1, 1415167, Control_c, 0, 64, 70
1, 1415182, Control_c, 0, 64, 86
1, 1415196, Control_c, 0, 64, 116
1, 1415206, Note_off_c, 0, 66, 61
1, 1415211, Control_c, 0, 64, 127
1, 1415230, Note_on_c, 0, 60, 66
1, 1415238, Note_on_c, 0, 50, 45
1, 1415285, Control_c, 0, 67, 37
1, 1415300, Control_c, 0, 67, 52
1, 1415314, Note_on_c, 0, 66, 73
1, 1415319, Note_off_c, 0, 69, 54
1, 1415322, Control_c, 0, 67, 56
1, 1415337, Control_c, 0, 67, 56
1, 1415353, Note_off_c, 0, 60, 60
1, 1415367, Control_c, 0, 67, 58
1, 1415370, Note_off_c, 0, 66, 62
1, 1415382, Control_c, 0, 67, 67
1, 1415397, Control_c, 0, 67, 88
1, 1415408, Note_on_c, 0, 69, 81
1, 1415412, Control_c, 0, 67, 114
1, 1415427, Control_c, 0, 67, 127
1, 1415429, Note_off_c, 0, 50, 25
1, 1415442, Control_c, 0, 64, 108
1, 1415457, Control_c, 0, 64, 74
1, 1415472, Control_c, 0, 64, 48
1, 1415486, Control_c, 0, 64, 0
1, 1415496, Note_on_c, 0, 66, 69
1, 1415531, Control_c, 0, 64, 38
1, 1415544, Note_off_c, 0, 66, 63
1, 1415546, Control_c, 0, 64, 52
1, 1415560, Control_c, 0, 64, 63
1, 1415575, Control_c, 0, 64, 71
1, 1415588, Note_on_c, 0, 60, 44
1, 1415590, Control_c, 0, 64, 76
1, 1415596, Note_on_c, 0, 43, 48
1, 1415605, Control_c, 0, 64, 81
1, 1415620, Control_c, 0, 64, 87
1, 1415635, Control_c, 0, 64, 94
1, 1415650, Control_c, 0, 64, 104
1, 1415653, Note_off_c, 0, 43, 54
1, 1415656, Note_on_c, 0, 66, 51
1, 1415663, Note_off_c, 0, 60, 40
1, 1415665, Control_c, 0, 64, 127
1, 1415701, Note_off_c, 0, 66, 59
1, 1415710, Note_off_c, 0, 69, 37
1, 1415724, Note_on_c, 0, 71, 75
1, 1415768, Control_c, 0, 64, 84
1, 1415783, Control_c, 0, 64, 62
1, 1415798, Control_c, 0, 64, 45
1, 1415813, Control_c, 0, 64, 38
1, 1415824, Note_on_c, 0, 67, 57
1, 1415827, Control_c, 0, 64, 38
1, 1415842, Control_c, 0, 64, 44
1, 1415857, Control_c, 0, 64, 53
1, 1415872, Note_off_c, 0, 67, 55
1, 1415872, Control_c, 0, 64, 62
1, 1415886, Control_c, 0, 64, 67
1, 1415901, Control_c, 0, 64, 72
1, 1415906, Note_on_c, 0, 43, 48
1, 1415916, Control_c, 0, 64, 77
1, 1415918, Note_on_c, 0, 59, 52
1, 1415931, Control_c, 0, 64, 82
1, 1415946, Control_c, 0, 64, 88
1, 1415960, Note_off_c, 0, 59, 49
1, 1415960, Control_c, 0, 64, 93
1, 1415975, Control_c, 0, 64, 99
1, 1415986, Note_off_c, 0, 43, 42
1, 1415990, Control_c, 0, 64, 103
1, 1415993, Note_on_c, 0, 67, 58
1, 1416035, Control_c, 0, 64, 94
1, 1416057, Control_c, 0, 64, 77
1, 1416068, Note_off_c, 0, 67, 57
1, 1416072, Control_c, 0, 64, 62
1, 1416080, Note_on_c, 0, 69, 62
1, 1416086, Control_c, 0, 64, 49
1, 1416101, Control_c, 0, 64, 49
1, 1416113, Note_off_c, 0, 71, 36
1, 1416116, Control_c, 0, 64, 53
1, 1416131, Control_c, 0, 64, 61
1, 1416146, Control_c, 0, 64, 68
1, 1416160, Control_c, 0, 64, 77
1, 1416175, Control_c, 0, 64, 86
1, 1416184, Note_on_c, 0, 66, 59
1, 1416191, Control_c, 0, 64, 91
1, 1416206, Control_c, 0, 64, 97
1, 1416221, Note_off_c, 0, 66, 65
1, 1416221, Control_c, 0, 64, 109
1, 1416236, Control_c, 0, 64, 127
1, 1416270, Note_on_c, 0, 62, 51
1, 1416311, Note_on_c, 0, 45, 24
1, 1416326, Note_off_c, 0, 69, 59
1, 1416338, Note_on_c, 0, 66, 55
1, 1416369, Control_c, 0, 64, 84
1, 1416383, Control_c, 0, 64, 58
1, 1416387, Note_off_c, 0, 62, 57
1, 1416388, Note_off_c, 0, 66, 55
1, 1416396, Note_off_c, 0, 45, 51
1, 1416398, Control_c, 0, 64, 34
1, 1416413, Control_c, 0, 64, 0
1, 1416428, Control_c, 0, 64, 31
1, 1416437, Note_on_c, 0, 69, 64
1, 1416443, Control_c, 0, 64, 43
1, 1416457, Control_c, 0, 64, 57
1, 1416472, Control_c, 0, 64, 68
1, 1416487, Control_c, 0, 64, 79
1, 1416501, Control_c, 0, 64, 87
1, 1416516, Control_c, 0, 64, 91
1, 1416531, Control_c, 0, 64, 96
1, 1416546, Control_c, 0, 64, 103
1, 1416561, Control_c, 0, 64, 121
1, 1416566, Note_on_c, 0, 64, 39
1, 1416575, Control_c, 0, 64, 127
1, 1416580, Note_on_c, 0, 45, 43
1, 1416622, Note_off_c, 0, 64, 53
1, 1416625, Note_off_c, 0, 45, 61
1, 1416673, Note_on_c, 0, 61, 31
1, 1416715, Note_off_c, 0, 61, 50
1, 1416743, Note_off_c, 0, 69, 58
1, 1416752, Note_on_c, 0, 64, 41
1, 1416885, Note_on_c, 0, 69, 64
1, 1416894, Control_c, 0, 64, 89
1, 1416900, Note_on_c, 0, 50, 41
1, 1416908, Control_c, 0, 64, 71
1, 1416913, Note_off_c, 0, 64, 35
1, 1416923, Control_c, 0, 64, 59
1, 1416938, Control_c, 0, 64, 50
1, 1416953, Control_c, 0, 64, 47
1, 1416968, Control_c, 0, 64, 48
1, 1416984, Control_c, 0, 64, 49
1, 1416998, Control_c, 0, 64, 52
1, 1417007, Note_on_c, 0, 66, 58
1, 1417013, Control_c, 0, 64, 54
1, 1417028, Control_c, 0, 64, 55
1, 1417050, Note_off_c, 0, 66, 62
1, 1417097, Note_on_c, 0, 62, 42
1, 1417102, Control_c, 0, 64, 55
1, 1417132, Control_c, 0, 64, 54
1, 1417147, Control_c, 0, 64, 53
1, 1417156, Note_on_c, 0, 66, 61
1, 1417162, Control_c, 0, 64, 50
1, 1417177, Control_c, 0, 64, 47
1, 1417178, Note_off_c, 0, 62, 39
1, 1417189, Note_off_c, 0, 69, 60
1, 1417192, Control_c, 0, 64, 44
1, 1417200, Note_off_c, 0, 66, 63
1, 1417206, Control_c, 0, 64, 41
1, 1417212, Note_on_c, 0, 74, 81
1, 1417216, Note_on_c, 0, 54, 47
1, 1417221, Control_c, 0, 64, 37
1, 1417236, Control_c, 0, 64, 30
1, 1417250, Control_c, 0, 64, 0
1, 1417312, Note_on_c, 0, 69, 45
1, 1417367, Note_off_c, 0, 69, 50
1, 1417394, Note_on_c, 0, 62, 62
1, 1417440, Note_off_c, 0, 62, 54
1, 1417475, Note_on_c, 0, 69, 58
1, 1417516, Note_off_c, 0, 69, 60
1, 1417530, Note_off_c, 0, 54, 59
1, 1417534, Note_on_c, 0, 57, 40
1, 1417554, Note_on_c, 0, 73, 73
1, 1417599, Note_off_c, 0, 74, 61
1, 1417648, Note_on_c, 0, 69, 53
1, 1417710, Note_off_c, 0, 69, 59
1, 1417754, Note_on_c, 0, 64, 38
1, 1417825, Note_on_c, 0, 69, 45
1, 1417825, Note_off_c, 0, 64, 41
1, 1417888, Note_on_c, 0, 55, 47
1, 1417891, Note_off_c, 0, 69, 57
1, 1417895, Note_on_c, 0, 76, 71
1, 1417901, Note_off_c, 0, 57, 63
1, 1417934, Note_off_c, 0, 73, 46
1, 1418003, Note_on_c, 0, 69, 56
1, 1418034, Note_off_c, 0, 69, 66
1, 1418059, Control_c, 0, 64, 34
1, 1418073, Control_c, 0, 64, 45
1, 1418075, Note_on_c, 0, 64, 53
1, 1418088, Control_c, 0, 64, 57
1, 1418103, Control_c, 0, 64, 64
1, 1418118, Control_c, 0, 64, 67
1, 1418133, Control_c, 0, 64, 69
1, 1418141, Note_on_c, 0, 69, 50
1, 1418145, Note_off_c, 0, 64, 46
1, 1418147, Control_c, 0, 64, 72
1, 1418162, Control_c, 0, 64, 76
1, 1418175, Note_off_c, 0, 69, 64
1, 1418177, Control_c, 0, 64, 80
1, 1418181, Note_off_c, 0, 76, 54
1, 1418192, Control_c, 0, 64, 83
1, 1418207, Control_c, 0, 64, 84
1, 1418220, Note_off_c, 0, 50, 62
1, 1418221, Control_c, 0, 64, 85
1, 1418238, Note_on_c, 0, 69, 77
1, 1418240, Note_off_c, 0, 55, 61
1, 1418255, Note_on_c, 0, 54, 38
1, 1418303, Control_c, 0, 64, 84
1, 1418318, Control_c, 0, 64, 79
1, 1418333, Control_c, 0, 64, 70
1, 1418348, Control_c, 0, 64, 62
1, 1418362, Control_c, 0, 64, 52
1, 1418366, Note_on_c, 0, 66, 61
1, 1418377, Control_c, 0, 64, 44
1, 1418392, Control_c, 0, 64, 39
1, 1418406, Control_c, 0, 64, 36
1, 1418411, Note_off_c, 0, 66, 57
1, 1418421, Control_c, 0, 64, 36
1, 1418446, Note_on_c, 0, 62, 49
1, 1418451, Control_c, 0, 64, 35
1, 1418466, Control_c, 0, 64, 34
1, 1418480, Control_c, 0, 64, 34
1, 1418483, Note_on_c, 0, 66, 59
1, 1418512, Note_off_c, 0, 62, 51
1, 1418525, Control_c, 0, 64, 33
1, 1418554, Control_c, 0, 64, 30
1, 1418575, Note_on_c, 0, 71, 77
1, 1418579, Note_off_c, 0, 54, 63
1, 1418582, Note_off_c, 0, 66, 64
1, 1418583, Note_on_c, 0, 50, 42
1, 1418584, Note_off_c, 0, 69, 56
1, 1418587, Note_on_c, 0, 43, 32
1, 1418630, Control_c, 0, 64, 0
1, 1418666, Note_on_c, 0, 67, 63
1, 1418674, Control_c, 0, 64, 28
1, 1418713, Note_off_c, 0, 67, 58
1, 1418758, Note_on_c, 0, 62, 46
1, 1418802, Note_off_c, 0, 62, 48
1, 1418816, Note_on_c, 0, 67, 57
1, 1418859, Note_off_c, 0, 71, 55
1, 1418869, Note_off_c, 0, 67, 60
1, 1418886, Note_on_c, 0, 69, 65
1, 1418918, Note_on_c, 0, 49, 41
1, 1418924, Note_on_c, 0, 45, 42
1, 1418953, Note_off_c, 0, 50, 51
1, 1418972, Note_off_c, 0, 43, 55
1, 1418983, Note_on_c, 0, 67, 56
1, 1419023, Note_off_c, 0, 67, 61
1, 1419069, Note_on_c, 0, 64, 46
1, 1419126, Note_off_c, 0, 64, 55
1, 1419139, Note_on_c, 0, 67, 58
1, 1419141, Control_c, 0, 64, 30
1, 1419156, Control_c, 0, 64, 32
1, 1419156, Note_off_c, 0, 69, 60
1, 1419171, Control_c, 0, 64, 37
1, 1419185, Control_c, 0, 64, 46
1, 1419200, Control_c, 0, 64, 59
1, 1419215, Control_c, 0, 64, 67
1, 1419224, Note_on_c, 0, 52, 56
1, 1419226, Note_off_c, 0, 67, 62
1, 1419229, Control_c, 0, 64, 75
1, 1419233, Note_off_c, 0, 45, 57
1, 1419236, Note_on_c, 0, 69, 67
1, 1419244, Control_c, 0, 64, 83
1, 1419252, Note_off_c, 0, 52, 63
1, 1419257, Note_off_c, 0, 49, 62
1, 1419259, Control_c, 0, 64, 88
1, 1419274, Control_c, 0, 64, 93
1, 1419289, Control_c, 0, 64, 96
1, 1419303, Control_c, 0, 64, 98
1, 1419314, Note_off_c, 0, 69, 59
1, 1419318, Control_c, 0, 64, 101
1, 1419322, Note_on_c, 0, 67, 55
1, 1419348, Control_c, 0, 64, 104
1, 1419387, Note_off_c, 0, 67, 58
1, 1419418, Note_on_c, 0, 61, 53
1, 1419424, Control_c, 0, 64, 106
1, 1419468, Note_off_c, 0, 61, 46
1, 1419490, Note_on_c, 0, 67, 52
1, 1419575, Note_off_c, 0, 67, 51
1, 1419602, Note_on_c, 0, 69, 57
1, 1419635, Note_on_c, 0, 50, 56
1, 1419675, Control_c, 0, 64, 103
1, 1419690, Control_c, 0, 64, 95
1, 1419705, Control_c, 0, 64, 83
1, 1419719, Control_c, 0, 64, 70
1, 1419727, Note_on_c, 0, 66, 54
1, 1419734, Control_c, 0, 64, 59
1, 1419749, Control_c, 0, 64, 50
1, 1419764, Control_c, 0, 64, 48
1, 1419770, Note_off_c, 0, 66, 64
1, 1419801, Control_c, 0, 64, 49
1, 1419816, Control_c, 0, 64, 50
1, 1419821, Note_on_c, 0, 62, 46
1, 1419871, Note_on_c, 0, 66, 70
1, 1419875, Control_c, 0, 64, 51
1, 1419881, Note_off_c, 0, 62, 53
1, 1419890, Control_c, 0, 64, 51
1, 1419915, Note_off_c, 0, 69, 52
1, 1419937, Note_off_c, 0, 66, 63
1, 1419942, Note_on_c, 0, 74, 84
1, 1419979, Note_on_c, 0, 54, 55
1, 1420008, Control_c, 0, 64, 51
1, 1420023, Control_c, 0, 64, 50
1, 1420032, Note_on_c, 0, 69, 66
1, 1420077, Note_off_c, 0, 69, 55
1, 1420098, Control_c, 0, 64, 50
1, 1420122, Note_on_c, 0, 62, 63
1, 1420126, Control_c, 0, 67, 116
1, 1420141, Control_c, 0, 67, 105
1, 1420156, Control_c, 0, 67, 101
1, 1420160, Note_off_c, 0, 62, 57
1, 1420192, Note_on_c, 0, 69, 68
1, 1420261, Control_c, 0, 64, 49
1, 1420301, Note_off_c, 0, 69, 55
1, 1420324, Note_on_c, 0, 73, 69
1, 1420328, Note_on_c, 0, 57, 60
1, 1420356, Note_off_c, 0, 54, 64
1, 1420366, Note_off_c, 0, 74, 57
1, 1420426, Note_on_c, 0, 69, 61
1, 1420496, Note_off_c, 0, 69, 60
1, 1420499, Note_on_c, 0, 58, 64
1, 1420518, Note_on_c, 0, 64, 47
1, 1420557, Note_off_c, 0, 57, 62
1, 1420564, Control_c, 0, 67, 104
1, 1420576, Note_off_c, 0, 64, 42
1, 1420596, Note_on_c, 0, 69, 67
1, 1420608, Control_c, 0, 64, 50
1, 1420638, Control_c, 0, 67, 106
1, 1420667, Note_on_c, 0, 57, 75
1, 1420670, Note_off_c, 0, 69, 61
1, 1420672, Note_on_c, 0, 76, 78
1, 1420682, Control_c, 0, 64, 50
1, 1420697, Note_off_c, 0, 58, 64
1, 1420697, Control_c, 0, 64, 53
1, 1420712, Control_c, 0, 64, 59
1, 1420715, Note_off_c, 0, 73, 55
1, 1420727, Control_c, 0, 64, 64
1, 1420727, Control_c, 0, 67, 102
1, 1420742, Control_c, 0, 64, 71
1, 1420742, Control_c, 0, 67, 99
1, 1420757, Control_c, 0, 64, 80
1, 1420759, Note_on_c, 0, 69, 74
1, 1420772, Control_c, 0, 64, 94
1, 1420786, Control_c, 0, 64, 115
1, 1420786, Control_c, 0, 67, 94
1, 1420801, Control_c, 0, 64, 127
1, 1420801, Control_c, 0, 67, 75
1, 1420810, Note_off_c, 0, 69, 62
1, 1420816, Control_c, 0, 67, 46
1, 1420831, Control_c, 0, 67, 0
1, 1420833, Note_on_c, 0, 55, 67
1, 1420835, Note_on_c, 0, 64, 69
1, 1420835, Note_off_c, 0, 57, 61
1, 1420902, Note_on_c, 0, 69, 69
1, 1420906, Note_off_c, 0, 64, 61
1, 1420930, Note_off_c, 0, 69, 66
1, 1420938, Note_off_c, 0, 76, 62
1, 1420941, Note_off_c, 0, 50, 62
1, 1420998, Note_on_c, 0, 69, 74
1, 1421024, Control_c, 0, 64, 103
1, 1421025, Note_off_c, 0, 55, 61
1, 1421028, Note_on_c, 0, 54, 67
1, 1421039, Control_c, 0, 64, 81
1, 1421054, Control_c, 0, 64, 67
1, 1421069, Control_c, 0, 64, 56
1, 1421084, Control_c, 0, 64, 45
1, 1421098, Control_c, 0, 64, 40
1, 1421113, Control_c, 0, 64, 37
1, 1421119, Note_on_c, 0, 66, 63
1, 1421128, Control_c, 0, 64, 35
1, 1421143, Control_c, 0, 64, 33
1, 1421159, Note_off_c, 0, 66, 65
1, 1421187, Control_c, 0, 64, 34
1, 1421198, Note_on_c, 0, 62, 52
1, 1421243, Note_off_c, 0, 62, 44
1, 1421250, Note_on_c, 0, 66, 73
1, 1421276, Control_c, 0, 64, 34
1, 1421304, Note_off_c, 0, 69, 59
1, 1421333, Note_on_c, 0, 70, 84
1, 1421342, Note_off_c, 0, 66, 63
1, 1421343, Control_c, 0, 64, 35
1, 1421358, Control_c, 0, 64, 36
1, 1421362, Note_on_c, 0, 50, 52
1, 1421377, Note_off_c, 0, 54, 59
1, 1421390, Note_on_c, 0, 43, 44
1, 1421402, Control_c, 0, 64, 35
1, 1421427, Note_on_c, 0, 67, 68
1, 1421431, Control_c, 0, 64, 36
1, 1421489, Note_off_c, 0, 67, 58
1, 1421519, Note_on_c, 0, 62, 52
1, 1421550, Control_c, 0, 67, 49
1, 1421565, Control_c, 0, 67, 56
1, 1421573, Note_on_c, 0, 67, 66
1, 1421579, Control_c, 0, 67, 56
1, 1421590, Note_off_c, 0, 62, 39
1, 1421609, Control_c, 0, 67, 57
1, 1421624, Control_c, 0, 67, 62
1, 1421639, Control_c, 0, 67, 70
1, 1421642, Note_off_c, 0, 70, 62
1, 1421654, Control_c, 0, 67, 73
1, 1421684, Control_c, 0, 67, 74
1, 1421685, Note_on_c, 0, 69, 64
1, 1421688, Note_off_c, 0, 67, 55
1, 1421698, Control_c, 0, 67, 79
1, 1421707, Note_off_c, 0, 50, 56
1, 1421708, Note_on_c, 0, 49, 41
1, 1421713, Control_c, 0, 67, 93
1, 1421726, Note_on_c, 0, 45, 35
1, 1421728, Control_c, 0, 67, 108
1, 1421743, Control_c, 0, 64, 36
1, 1421773, Control_c, 0, 67, 112
1, 1421788, Control_c, 0, 67, 114
1, 1421789, Note_off_c, 0, 43, 59
1, 1421795, Note_on_c, 0, 67, 58
1, 1421803, Control_c, 0, 67, 117
1, 1421818, Control_c, 0, 67, 120
1, 1421844, Note_off_c, 0, 67, 60
1, 1421847, Control_c, 0, 64, 36
1, 1421867, Note_on_c, 0, 64, 53
1, 1421877, Control_c, 0, 67, 123
1, 1421892, Control_c, 0, 64, 35
1, 1421907, Control_c, 0, 64, 34
1, 1421907, Control_c, 0, 67, 118
1, 1421928, Note_on_c, 0, 67, 63
1, 1421929, Note_off_c, 0, 64, 53
1, 1421936, Control_c, 0, 64, 35
1, 1421942, Note_off_c, 0, 69, 59
1, 1421951, Control_c, 0, 64, 40
1, 1421966, Control_c, 0, 64, 51
1, 1421981, Control_c, 0, 64, 62
1, 1421981, Control_c, 0, 67, 113
1, 1421995, Control_c, 0, 64, 70
1, 1422010, Control_c, 0, 64, 77
1, 1422016, Note_off_c, 0, 67, 63
1, 1422019, Note_on_c, 0, 69, 69
1, 1422025, Control_c, 0, 64, 82
1, 1422026, Note_on_c, 0, 52, 57
1, 1422047, Control_c, 0, 64, 86
1, 1422057, Note_off_c, 0, 52, 61
1, 1422060, Note_off_c, 0, 45, 52
1, 1422062, Control_c, 0, 64, 90
1, 1422065, Note_off_c, 0, 49, 62
1, 1422077, Control_c, 0, 64, 93
1, 1422077, Control_c, 0, 67, 110
1, 1422092, Control_c, 0, 64, 95
1, 1422107, Control_c, 0, 64, 95
1, 1422119, Note_on_c, 0, 67, 45
1, 1422119, Note_off_c, 0, 69, 59
1, 1422121, Control_c, 0, 64, 96
1, 1422151, Control_c, 0, 67, 107
1, 1422185, Note_off_c, 0, 67, 61
1, 1422206, Note_on_c, 0, 61, 36
1, 1422225, Control_c, 0, 67, 104
1, 1422240, Control_c, 0, 67, 101
1, 1422275, Note_on_c, 0, 67, 54
1, 1422284, Control_c, 0, 67, 99
1, 1422299, Control_c, 0, 67, 97
1, 1422314, Control_c, 0, 67, 94
1, 1422328, Control_c, 0, 67, 94
1, 1422343, Control_c, 0, 67, 95
1, 1422349, Note_off_c, 0, 61, 35
1, 1422358, Control_c, 0, 67, 95
1, 1422369, Note_on_c, 0, 69, 68
1, 1422373, Note_on_c, 0, 50, 66
1, 1422373, Control_c, 0, 67, 95
1, 1422383, Note_off_c, 0, 67, 56
1, 1422388, Control_c, 0, 67, 94
1, 1422403, Control_c, 0, 64, 87
1, 1422403, Control_c, 0, 67, 95
1, 1422418, Control_c, 0, 64, 73
1, 1422418, Control_c, 0, 67, 97
1, 1422433, Control_c, 0, 64, 59
1, 1422447, Control_c, 0, 64, 47
1, 1422447, Control_c, 0, 67, 95
1, 1422462, Control_c, 0, 64, 41
1, 1422462, Control_c, 0, 67, 94
1, 1422470, Note_on_c, 0, 66, 71
1, 1422477, Control_c, 0, 64, 41
1, 1422477, Control_c, 0, 67, 94
1, 1422492, Control_c, 0, 64, 42
1, 1422492, Control_c, 0, 67, 94
1, 1422507, Control_c, 0, 64, 47
1, 1422507, Control_c, 0, 67, 93
1, 1422521, Control_c, 0, 64, 54
1, 1422521, Control_c, 0, 67, 88
1, 1422536, Control_c, 0, 64, 58
1, 1422536, Control_c, 0, 67, 77
1, 1422539, Note_off_c, 0, 66, 64
1, 1422551, Note_on_c, 0, 62, 63
1, 1422551, Control_c, 0, 64, 60
1, 1422551, Control_c, 0, 67, 61
1, 1422567, Control_c, 0, 64, 61
1, 1422567, Control_c, 0, 67, 57
1, 1422582, Control_c, 0, 64, 61
1, 1422582, Control_c, 0, 67, 55
1, 1422597, Control_c, 0, 64, 62
1, 1422597, Control_c, 0, 67, 52
1, 1422612, Control_c, 0, 64, 63
1, 1422612, Control_c, 0, 67, 43
1, 1422617, Note_on_c, 0, 66, 76
1, 1422626, Control_c, 0, 67, 39
1, 1422641, Control_c, 0, 64, 61
1, 1422644, Note_off_c, 0, 62, 56
1, 1422647, Note_off_c, 0, 69, 59
1, 1422656, Control_c, 0, 64, 55
1, 1422656, Control_c, 0, 67, 38
1, 1422670, Control_c, 0, 64, 47
1, 1422670, Control_c, 0, 67, 37
1, 1422680, Note_on_c, 0, 70, 85
1, 1422684, Note_on_c, 0, 43, 64
1, 1422685, Control_c, 0, 64, 44
1, 1422685, Control_c, 0, 67, 35
1, 1422691, Note_off_c, 0, 66, 64
1, 1422715, Control_c, 0, 64, 48
1, 1422715, Control_c, 0, 67, 35
1, 1422730, Control_c, 0, 64, 55
1, 1422745, Control_c, 0, 64, 61
1, 1422760, Control_c, 0, 64, 63
1, 1422775, Control_c, 0, 64, 64
1, 1422775, Control_c, 0, 67, 34
1, 1422794, Note_on_c, 0, 67, 57
1, 1422796, Control_c, 0, 64, 64
1, 1422811, Control_c, 0, 64, 66
1, 1422826, Control_c, 0, 64, 68
1, 1422841, Control_c, 0, 64, 69
1, 1422841, Control_c, 0, 67, 33
1, 1422849, Note_off_c, 0, 67, 61
1, 1422856, Note_on_c, 0, 62, 66
1, 1422856, Control_c, 0, 64, 70
1, 1422856, Control_c, 0, 67, 0
1, 1422870, Control_c, 0, 67, 34
1, 1422885, Control_c, 0, 67, 38
1, 1422915, Control_c, 0, 67, 37
1, 1422944, Note_on_c, 0, 67, 54
1, 1422945, Control_c, 0, 64, 69
1, 1422945, Control_c, 0, 67, 37
1, 1422946, Note_off_c, 0, 62, 58
1, 1422960, Control_c, 0, 64, 69
1, 1422960, Control_c, 0, 67, 41
1, 1422974, Control_c, 0, 64, 68
1, 1422989, Control_c, 0, 64, 67
1, 1422989, Control_c, 0, 67, 41
1, 1423019, Control_c, 0, 67, 41
1, 1423032, Note_on_c, 0, 69, 72
1, 1423034, Control_c, 0, 64, 66
1, 1423034, Control_c, 0, 67, 46
1, 1423045, Note_on_c, 0, 45, 46
1, 1423046, Note_on_c, 0, 49, 43
1, 1423049, Control_c, 0, 64, 65
1, 1423049, Control_c, 0, 67, 47
1, 1423055, Note_off_c, 0, 43, 60
1, 1423064, Control_c, 0, 64, 63
1, 1423072, Note_off_c, 0, 67, 37
1, 1423078, Control_c, 0, 64, 62
1, 1423086, Note_off_c, 0, 50, 61
1, 1423093, Control_c, 0, 64, 61
1, 1423093, Control_c, 0, 67, 48
1, 1423108, Control_c, 0, 64, 59
1, 1423108, Control_c, 0, 67, 53
1, 1423123, Control_c, 0, 64, 55
1, 1423123, Control_c, 0, 67, 53
1, 1423125, Note_off_c, 0, 70, 23
1, 1423138, Control_c, 0, 64, 52
1, 1423138, Control_c, 0, 67, 52
1, 1423141, Note_on_c, 0, 67, 41
1, 1423152, Control_c, 0, 64, 50
1, 1423167, Control_c, 0, 64, 47
1, 1423167, Control_c, 0, 67, 53
1, 1423182, Control_c, 0, 64, 45
1, 1423182, Control_c, 0, 67, 56
1, 1423196, Control_c, 0, 64, 43
1, 1423196, Control_c, 0, 67, 57
1, 1423211, Control_c, 0, 64, 42
1, 1423211, Control_c, 0, 67, 55
1, 1423213, Note_off_c, 0, 67, 57
1, 1423225, Note_on_c, 0, 64, 53
1, 1423226, Control_c, 0, 67, 53
1, 1423241, Control_c, 0, 67, 53
1, 1423256, Control_c, 0, 64, 43
1, 1423256, Control_c, 0, 67, 53
1, 1423270, Control_c, 0, 64, 45
1, 1423285, Control_c, 0, 64, 49
1, 1423285, Control_c, 0, 67, 51
1, 1423299, Note_on_c, 0, 67, 59
1, 1423300, Control_c, 0, 64, 51
1, 1423300, Control_c, 0, 67, 49
1, 1423302, Note_off_c, 0, 64, 57
1, 1423315, Control_c, 0, 64, 53
1, 1423315, Control_c, 0, 67, 49
1, 1423318, Note_off_c, 0, 69, 60
1, 1423330, Control_c, 0, 64, 56
1, 1423344, Control_c, 0, 64, 62
1, 1423344, Control_c, 0, 67, 46
1, 1423359, Control_c, 0, 64, 70
1, 1423359, Control_c, 0, 67, 41
1, 1423375, Control_c, 0, 64, 81
1, 1423375, Control_c, 0, 67, 37
1, 1423390, Control_c, 0, 64, 97
1, 1423390, Control_c, 0, 67, 36
1, 1423405, Control_c, 0, 64, 127
1, 1423405, Control_c, 0, 67, 35
1, 1423413, Note_on_c, 0, 69, 68
1, 1423414, Note_off_c, 0, 67, 59
1, 1423419, Control_c, 0, 67, 34
1, 1423424, Note_on_c, 0, 52, 51
1, 1423434, Control_c, 0, 67, 0
1, 1423452, Note_off_c, 0, 45, 58
1, 1423454, Note_off_c, 0, 52, 63
1, 1423477, Note_off_c, 0, 49, 59
1, 1423529, Note_on_c, 0, 67, 46
1, 1423594, Note_off_c, 0, 67, 46
1, 1423623, Note_on_c, 0, 61, 42
1, 1423707, Note_on_c, 0, 67, 66
1, 1423712, Note_off_c, 0, 69, 45
1, 1423752, Note_off_c, 0, 61, 37
1, 1423898, Note_on_c, 0, 69, 68
1, 1423898, Note_off_c, 0, 67, 35
1, 1423938, Note_on_c, 0, 38, 40
1, 1423945, Control_c, 0, 64, 92
1, 1423960, Control_c, 0, 64, 76
1, 1423975, Control_c, 0, 64, 63
1, 1423990, Control_c, 0, 64, 51
1, 1424005, Control_c, 0, 64, 41
1, 1424019, Control_c, 0, 64, 38
1, 1424049, Control_c, 0, 64, 43
1, 1424064, Control_c, 0, 64, 53
1, 1424075, Note_on_c, 0, 65, 43
1, 1424079, Control_c, 0, 64, 62
1, 1424093, Control_c, 0, 64, 69
1, 1424108, Control_c, 0, 64, 78
1, 1424114, Note_off_c, 0, 65, 51
1, 1424123, Control_c, 0, 64, 87
1, 1424137, Control_c, 0, 64, 93
1, 1424151, Note_on_c, 0, 62, 47
1, 1424152, Control_c, 0, 64, 101
1, 1424169, Control_c, 0, 64, 113
1, 1424184, Control_c, 0, 64, 127
1, 1424203, Note_on_c, 0, 65, 62
1, 1424230, Note_off_c, 0, 69, 61
1, 1424257, Note_off_c, 0, 62, 38
1, 1424278, Note_off_c, 0, 65, 58
1, 1424298, Note_on_c, 0, 69, 77
1, 1424320, Note_on_c, 0, 41, 50
1, 1424339, Control_c, 0, 64, 93
1, 1424354, Control_c, 0, 64, 68
1, 1424369, Control_c, 0, 64, 57
1, 1424384, Control_c, 0, 64, 54
1, 1424398, Control_c, 0, 64, 56
1, 1424407, Note_on_c, 0, 65, 46
1, 1424413, Control_c, 0, 64, 62
1, 1424414, Note_off_c, 0, 38, 49
1, 1424428, Control_c, 0, 64, 68
1, 1424442, Control_c, 0, 64, 78
1, 1424444, Note_off_c, 0, 65, 51
1, 1424457, Control_c, 0, 64, 90
1, 1424472, Control_c, 0, 64, 95
1, 1424487, Control_c, 0, 64, 99
1, 1424493, Note_on_c, 0, 60, 25
1, 1424502, Control_c, 0, 64, 107
1, 1424516, Control_c, 0, 64, 127
1, 1424533, Note_on_c, 0, 65, 57
1, 1424565, Note_off_c, 0, 69, 59
1, 1424587, Note_off_c, 0, 60, 37
1, 1424595, Note_off_c, 0, 65, 44
1, 1424629, Note_on_c, 0, 69, 72
1, 1424634, Control_c, 0, 64, 89
1, 1424637, Note_on_c, 0, 45, 50
1, 1424648, Control_c, 0, 64, 64
1, 1424663, Control_c, 0, 64, 50
1, 1424674, Note_off_c, 0, 41, 55
1, 1424678, Control_c, 0, 64, 46
1, 1424693, Control_c, 0, 64, 47
1, 1424708, Control_c, 0, 64, 52
1, 1424721, Note_on_c, 0, 64, 51
1, 1424722, Control_c, 0, 64, 58
1, 1424737, Control_c, 0, 64, 64
1, 1424752, Control_c, 0, 64, 69
1, 1424765, Note_off_c, 0, 64, 59
1, 1424766, Control_c, 0, 64, 74
1, 1424781, Control_c, 0, 64, 77
1, 1424796, Control_c, 0, 64, 79
1, 1424811, Control_c, 0, 64, 80
1, 1424814, Note_on_c, 0, 60, 45
1, 1424826, Control_c, 0, 64, 81
1, 1424841, Control_c, 0, 64, 82
1, 1424855, Note_off_c, 0, 60, 49
1, 1424855, Control_c, 0, 64, 83
1, 1424867, Note_on_c, 0, 64, 54
1, 1424915, Control_c, 0, 64, 80
1, 1424928, Note_off_c, 0, 64, 54
1, 1424930, Control_c, 0, 64, 73
1, 1424945, Control_c, 0, 64, 62
1, 1424960, Control_c, 0, 64, 50
1, 1424967, Note_on_c, 0, 67, 65
1, 1424974, Note_on_c, 0, 48, 37
1, 1424975, Control_c, 0, 64, 46
1, 1424990, Control_c, 0, 64, 43
1, 1424998, Note_off_c, 0, 45, 62
1, 1425005, Control_c, 0, 64, 39
1, 1425007, Note_off_c, 0, 69, 58
1, 1425019, Control_c, 0, 64, 35
1, 1425042, Control_c, 0, 64, 34
1, 1425057, Control_c, 0, 64, 35
1, 1425071, Control_c, 0, 64, 37
1, 1425074, Note_on_c, 0, 64, 43
1, 1425086, Control_c, 0, 64, 39
1, 1425124, Note_off_c, 0, 64, 61
1, 1425131, Control_c, 0, 64, 43
1, 1425145, Control_c, 0, 64, 50
1, 1425160, Note_on_c, 0, 60, 45
1, 1425160, Control_c, 0, 64, 61
1, 1425175, Control_c, 0, 64, 68
1, 1425189, Control_c, 0, 64, 74
1, 1425204, Control_c, 0, 64, 78
1, 1425216, Note_on_c, 0, 64, 64
1, 1425219, Control_c, 0, 64, 79
1, 1425228, Note_off_c, 0, 67, 59
1, 1425231, Note_off_c, 0, 60, 45
1, 1425234, Control_c, 0, 64, 82
1, 1425249, Control_c, 0, 64, 85
1, 1425264, Control_c, 0, 64, 88
1, 1425279, Control_c, 0, 64, 87
1, 1425279, Note_off_c, 0, 64, 62
1, 1425294, Control_c, 0, 64, 79
1, 1425294, Note_on_c, 0, 67, 76
1, 1425304, Note_on_c, 0, 36, 54
1, 1425309, Control_c, 0, 64, 65
1, 1425323, Control_c, 0, 64, 53
1, 1425338, Control_c, 0, 64, 49
1, 1425353, Control_c, 0, 64, 51
1, 1425368, Control_c, 0, 64, 59
1, 1425383, Control_c, 0, 64, 66
1, 1425394, Note_on_c, 0, 63, 68
1, 1425398, Control_c, 0, 64, 74
1, 1425413, Control_c, 0, 64, 83
1, 1425428, Control_c, 0, 64, 89
1, 1425443, Control_c, 0, 64, 94
1, 1425445, Note_off_c, 0, 63, 58
1, 1425458, Control_c, 0, 64, 102
1, 1425469, Note_on_c, 0, 60, 61
1, 1425472, Control_c, 0, 64, 127
1, 1425512, Note_off_c, 0, 48, 22
1, 1425533, Note_off_c, 0, 67, 63
1, 1425538, Note_on_c, 0, 63, 75
1, 1425562, Note_off_c, 0, 60, 54
1, 1425576, Control_c, 0, 64, 104
1, 1425590, Control_c, 0, 64, 73
1, 1425601, Note_off_c, 0, 63, 60
1, 1425605, Control_c, 0, 64, 55
1, 1425613, Note_on_c, 0, 67, 84
1, 1425620, Control_c, 0, 64, 46
1, 1425635, Control_c, 0, 64, 47
1, 1425641, Note_on_c, 0, 39, 50
1, 1425650, Control_c, 0, 64, 52
1, 1425664, Control_c, 0, 64, 61
1, 1425679, Control_c, 0, 64, 69
1, 1425682, Note_off_c, 0, 36, 61
1, 1425694, Control_c, 0, 64, 78
1, 1425709, Control_c, 0, 64, 87
1, 1425711, Note_on_c, 0, 63, 75
1, 1425724, Control_c, 0, 64, 93
1, 1425738, Control_c, 0, 64, 100
1, 1425751, Note_off_c, 0, 63, 60
1, 1425753, Control_c, 0, 64, 109
1, 1425769, Control_c, 0, 64, 127
1, 1425797, Note_on_c, 0, 58, 57
1, 1425850, Note_off_c, 0, 67, 57
1, 1425859, Note_on_c, 0, 63, 74
1, 1425882, Note_off_c, 0, 58, 52
1, 1425925, Control_c, 0, 64, 96
1, 1425931, Note_off_c, 0, 63, 53
1, 1425940, Control_c, 0, 64, 72
1, 1425944, Note_on_c, 0, 67, 79
1, 1425949, Note_off_c, 0, 39, 53
1, 1425955, Control_c, 0, 64, 55
1, 1425966, Note_on_c, 0, 43, 48
1, 1425969, Control_c, 0, 64, 39
1, 1425984, Control_c, 0, 64, 29
1, 1425999, Control_c, 0, 64, 0
1, 1426013, Control_c, 0, 67, 41
1, 1426028, Control_c, 0, 67, 60
1, 1426043, Control_c, 0, 64, 28
1, 1426043, Control_c, 0, 67, 62
1, 1426058, Control_c, 0, 67, 65
1, 1426060, Note_on_c, 0, 62, 33
1, 1426073, Control_c, 0, 64, 0
1, 1426073, Control_c, 0, 67, 76
1, 1426087, Control_c, 0, 67, 110
1, 1426096, Note_off_c, 0, 62, 54
1, 1426102, Control_c, 0, 67, 127
1, 1426116, Note_on_c, 0, 58, 58
1, 1426174, Note_on_c, 0, 62, 68
1, 1426179, Note_off_c, 0, 58, 47
1, 1426271, Note_off_c, 0, 62, 61
1, 1426280, Note_on_c, 0, 65, 69
1, 1426297, Note_on_c, 0, 46, 47
1, 1426309, Note_off_c, 0, 67, 60
1, 1426322, Note_off_c, 0, 43, 58
1, 1426381, Note_on_c, 0, 62, 54
1, 1426441, Note_off_c, 0, 62, 61
1, 1426453, Note_on_c, 0, 58, 59
1, 1426521, Note_on_c, 0, 62, 58
1, 1426521, Note_off_c, 0, 65, 61
1, 1426552, Note_off_c, 0, 58, 54
1, 1426618, Note_on_c, 0, 65, 69
1, 1426623, Note_off_c, 0, 62, 63
1, 1426625, Note_on_c, 0, 34, 52
1, 1426659, Note_off_c, 0, 46, 38
1, 1426732, Note_on_c, 0, 62, 36
1, 1426769, Note_off_c, 0, 62, 54
1, 1426806, Note_on_c, 0, 57, 45
1, 1426866, Note_on_c, 0, 62, 55
1, 1426876, Note_off_c, 0, 57, 56
1, 1426878, Note_off_c, 0, 65, 58
1, 1426943, Note_on_c, 0, 38, 49
1, 1426951, Note_off_c, 0, 62, 60
1, 1426955, Note_on_c, 0, 65, 68
1, 1426987, Note_off_c, 0, 34, 36
1, 1427048, Note_on_c, 0, 62, 53
1, 1427083, Note_off_c, 0, 62, 61
1, 1427088, Control_c, 0, 64, 31
1, 1427103, Control_c, 0, 64, 32
1, 1427117, Control_c, 0, 64, 34
1, 1427132, Control_c, 0, 64, 39
1, 1427136, Note_on_c, 0, 57, 52
1, 1427147, Control_c, 0, 64, 49
1, 1427161, Control_c, 0, 64, 59
1, 1427176, Control_c, 0, 64, 61
1, 1427179, Note_on_c, 0, 62, 54
1, 1427192, Note_off_c, 0, 57, 48
1, 1427219, Note_off_c, 0, 65, 55
1, 1427235, Control_c, 0, 64, 61
1, 1427241, Note_off_c, 0, 62, 63
1, 1427261, Note_on_c, 0, 65, 56
1, 1427264, Note_on_c, 0, 41, 58
1, 1427265, Control_c, 0, 64, 56
1, 1427288, Control_c, 0, 64, 42
1, 1427303, Control_c, 0, 64, 0
1, 1427332, Control_c, 0, 64, 36
1, 1427347, Control_c, 0, 64, 49
1, 1427362, Control_c, 0, 64, 61
1, 1427377, Control_c, 0, 64, 66
1, 1427382, Note_on_c, 0, 60, 60
1, 1427392, Control_c, 0, 64, 66
1, 1427437, Control_c, 0, 64, 67
1, 1427442, Note_off_c, 0, 60, 54
1, 1427452, Control_c, 0, 64, 68
1, 1427466, Control_c, 0, 64, 69
1, 1427473, Note_on_c, 0, 57, 48
1, 1427526, Note_off_c, 0, 57, 49
1, 1427539, Note_on_c, 0, 60, 60
1, 1427555, Control_c, 0, 64, 65
1, 1427570, Control_c, 0, 64, 55
1, 1427579, Note_off_c, 0, 60, 63
1, 1427583, Note_on_c, 0, 45, 48
1, 1427584, Note_off_c, 0, 38, 35
1, 1427584, Control_c, 0, 64, 40
1, 1427599, Control_c, 0, 64, 30
1, 1427612, Note_on_c, 0, 64, 68
1, 1427615, Note_off_c, 0, 41, 57
1, 1427622, Note_off_c, 0, 65, 28
1, 1427629, Control_c, 0, 64, 36
1, 1427644, Control_c, 0, 64, 44
1, 1427658, Control_c, 0, 64, 48
1, 1427673, Control_c, 0, 64, 49
1, 1427688, Control_c, 0, 64, 50
1, 1427690, Note_on_c, 0, 60, 54
1, 1427703, Control_c, 0, 64, 53
1, 1427718, Control_c, 0, 64, 55
1, 1427729, Note_off_c, 0, 60, 67
1, 1427732, Control_c, 0, 64, 56
1, 1427762, Control_c, 0, 64, 57
1, 1427773, Note_on_c, 0, 57, 40
1, 1427777, Control_c, 0, 64, 57
1, 1427792, Control_c, 0, 64, 58
1, 1427807, Control_c, 0, 64, 60
1, 1427821, Note_on_c, 0, 60, 57
1, 1427821, Control_c, 0, 64, 61
1, 1427824, Note_off_c, 0, 64, 63
1, 1427836, Note_off_c, 0, 57, 42
1, 1427851, Control_c, 0, 64, 61
1, 1427866, Control_c, 0, 64, 57
1, 1427881, Control_c, 0, 64, 50
1, 1427886, Note_on_c, 0, 33, 45
1, 1427895, Note_off_c, 0, 60, 60
1, 1427896, Control_c, 0, 64, 40
1, 1427908, Note_off_c, 0, 45, 38
1, 1427911, Control_c, 0, 64, 31
1, 1427920, Note_on_c, 0, 64, 74
1, 1427940, Control_c, 0, 64, 37
1, 1427955, Control_c, 0, 64, 49
1, 1427970, Control_c, 0, 64, 60
1, 1427984, Control_c, 0, 64, 67
1, 1427999, Control_c, 0, 64, 72
1, 1428000, Note_on_c, 0, 60, 62
1, 1428014, Control_c, 0, 64, 76
1, 1428015, Note_off_c, 0, 64, 53
1, 1428036, Control_c, 0, 64, 82
1, 1428051, Control_c, 0, 64, 91
1, 1428060, Note_off_c, 0, 60, 60
1, 1428063, Note_on_c, 0, 57, 69
1, 1428066, Control_c, 0, 64, 110
1, 1428081, Control_c, 0, 64, 127
1, 1428100, Note_off_c, 0, 57, 64
1, 1428157, Note_on_c, 0, 60, 50
1, 1428178, Note_off_c, 0, 60, 64
1, 1428228, Note_on_c, 0, 72, 76
1, 1428230, Control_c, 0, 64, 87
1, 1428242, Note_off_c, 0, 33, 51
1, 1428245, Control_c, 0, 64, 65
1, 1428247, Note_on_c, 0, 34, 56
1, 1428260, Control_c, 0, 64, 47
1, 1428275, Control_c, 0, 64, 34
1, 1428289, Control_c, 0, 64, 0
1, 1428331, Note_on_c, 0, 67, 62
1, 1428369, Note_off_c, 0, 67, 62
1, 1428413, Note_on_c, 0, 64, 60
1, 1428422, Control_c, 0, 64, 32
1, 1428437, Control_c, 0, 64, 33
1, 1428479, Note_off_c, 0, 64, 46
1, 1428486, Note_on_c, 0, 67, 54
1, 1428493, Note_off_c, 0, 72, 59
1, 1428526, Control_c, 0, 64, 33
1, 1428531, Note_off_c, 0, 67, 63
1, 1428566, Note_on_c, 0, 33, 41
1, 1428573, Note_off_c, 0, 34, 63
1, 1428576, Note_on_c, 0, 72, 58
1, 1428659, Control_c, 0, 64, 34
1, 1428671, Note_on_c, 0, 69, 69
1, 1428704, Control_c, 0, 64, 34
1, 1428719, Control_c, 0, 64, 35
1, 1428733, Control_c, 0, 64, 36
1, 1428737, Note_off_c, 0, 69, 58
1, 1428782, Note_on_c, 0, 65, 56
1, 1428814, Control_c, 0, 64, 37
1, 1428838, Note_off_c, 0, 65, 51
1, 1428845, Note_on_c, 0, 69, 63
1, 1428855, Note_off_c, 0, 72, 55
1, 1428930, Note_off_c, 0, 69, 62
1, 1428948, Note_off_c, 0, 33, 60
1, 1428951, Note_on_c, 0, 72, 60
1, 1428976, Note_on_c, 0, 31, 37
1, 1429023, Control_c, 0, 64, 36
1, 1429038, Control_c, 0, 64, 36
1, 1429067, Control_c, 0, 64, 35
1, 1429082, Control_c, 0, 64, 34
1, 1429096, Note_on_c, 0, 70, 53
1, 1429097, Control_c, 0, 64, 35
1, 1429112, Control_c, 0, 64, 37
1, 1429127, Control_c, 0, 64, 44
1, 1429142, Control_c, 0, 64, 57
1, 1429157, Control_c, 0, 64, 64
1, 1429172, Control_c, 0, 64, 69
1, 1429187, Control_c, 0, 64, 73
1, 1429202, Control_c, 0, 64, 76
1, 1429213, Note_off_c, 0, 70, 38
1, 1429216, Control_c, 0, 64, 81
1, 1429228, Note_on_c, 0, 64, 46
1, 1429231, Control_c, 0, 64, 86
1, 1429234, Note_off_c, 0, 31, 39
1, 1429246, Control_c, 0, 64, 91
1, 1429261, Control_c, 0, 64, 96
1, 1429276, Control_c, 0, 64, 100
1, 1429291, Control_c, 0, 64, 103
1, 1429315, Note_off_c, 0, 72, 59
1, 1429320, Control_c, 0, 64, 105
1, 1429341, Note_on_c, 0, 70, 49
1, 1429463, Note_off_c, 0, 64, 33
1, 1429465, Note_off_c, 0, 70, 57
1, 1429477, Note_on_c, 0, 72, 50
1, 1429498, Control_c, 0, 64, 102
1, 1429512, Control_c, 0, 64, 93
1, 1429535, Control_c, 0, 64, 80
1, 1429550, Control_c, 0, 64, 64
1, 1429564, Control_c, 0, 64, 49
1, 1429579, Control_c, 0, 64, 29
1, 1429594, Control_c, 0, 64, 0
1, 1429616, Note_on_c, 0, 69, 49
1, 1429655, Note_off_c, 0, 69, 62
1, 1429674, Note_on_c, 0, 29, 43
1, 1429705, Note_on_c, 0, 65, 41
1, 1429712, Note_off_c, 0, 29, 53
1, 1429753, Note_off_c, 0, 65, 45
1, 1429768, Note_on_c, 0, 69, 48
1, 1429811, Note_off_c, 0, 69, 61
1, 1429840, Note_on_c, 0, 77, 69
1, 1429842, Note_off_c, 0, 72, 55
1, 1429933, Note_on_c, 0, 69, 52
1, 1429974, Note_off_c, 0, 69, 59
1, 1429978, Note_on_c, 0, 41, 54
1, 1430006, Note_off_c, 0, 41, 56
1, 1430017, Note_on_c, 0, 65, 37
1, 1430061, Note_off_c, 0, 77, 60
1, 1430065, Note_off_c, 0, 65, 43
1, 1430082, Note_on_c, 0, 69, 57
1, 1430114, Note_off_c, 0, 69, 65
1, 1430158, Note_on_c, 0, 76, 67
1, 1430161, Note_on_c, 0, 72, 64
1, 1430173, Control_c, 0, 64, 33
1, 1430187, Control_c, 0, 64, 39
1, 1430202, Control_c, 0, 64, 45
1, 1430217, Control_c, 0, 64, 46
1, 1430232, Control_c, 0, 64, 45
1, 1430247, Control_c, 0, 64, 42
1, 1430261, Control_c, 0, 64, 34
1, 1430284, Control_c, 0, 64, 0
1, 1430290, Note_on_c, 0, 69, 29
1, 1430322, Note_on_c, 0, 45, 27
1, 1430325, Note_off_c, 0, 69, 52
1, 1430344, Note_on_c, 0, 64, 46
1, 1430365, Note_off_c, 0, 45, 29
1, 1430389, Note_off_c, 0, 76, 58
1, 1430407, Note_on_c, 0, 69, 54
1, 1430429, Note_off_c, 0, 72, 58
1, 1430438, Note_off_c, 0, 64, 45
1, 1430442, Note_off_c, 0, 69, 62
1, 1430492, Note_on_c, 0, 74, 65
1, 1430503, Note_on_c, 0, 70, 60
1, 1430639, Note_on_c, 0, 46, 46
1, 1430670, Note_on_c, 0, 62, 51
1, 1430671, Note_off_c, 0, 46, 49
1, 1430713, Note_off_c, 0, 62, 45
1, 1430734, Note_off_c, 0, 74, 45
1, 1430742, Note_on_c, 0, 65, 50
1, 1430743, Note_off_c, 0, 70, 61
1, 1430768, Note_off_c, 0, 65, 59
1, 1430807, Note_on_c, 0, 74, 75
1, 1430870, Note_on_c, 0, 69, 54
1, 1430906, Note_on_c, 0, 65, 46
1, 1430921, Control_c, 0, 64, 32
1, 1430935, Control_c, 0, 64, 38
1, 1430945, Note_off_c, 0, 65, 51
1, 1430950, Control_c, 0, 64, 42
1, 1430965, Control_c, 0, 64, 48
1, 1430976, Note_on_c, 0, 50, 60
1, 1430980, Control_c, 0, 64, 56
1, 1430993, Note_on_c, 0, 62, 43
1, 1430995, Control_c, 0, 64, 61
1, 1431004, Note_off_c, 0, 50, 66
1, 1431009, Control_c, 0, 64, 64
1, 1431022, Note_off_c, 0, 74, 60
1, 1431047, Note_on_c, 0, 65, 65
1, 1431059, Note_off_c, 0, 62, 39
1, 1431063, Note_off_c, 0, 69, 63
1, 1431077, Control_c, 0, 64, 64
1, 1431080, Note_off_c, 0, 65, 60
1, 1431106, Control_c, 0, 64, 62
1, 1431121, Control_c, 0, 64, 51
1, 1431130, Note_on_c, 0, 72, 69
1, 1431135, Control_c, 0, 64, 0
1, 1431141, Note_on_c, 0, 69, 61
1, 1431225, Note_on_c, 0, 65, 56
1, 1431261, Note_off_c, 0, 65, 62
1, 1431283, Note_on_c, 0, 53, 61
1, 1431297, Note_on_c, 0, 60, 56
1, 1431309, Note_off_c, 0, 53, 65
1, 1431342, Note_off_c, 0, 60, 56
1, 1431349, Note_off_c, 0, 72, 58
1, 1431366, Note_off_c, 0, 69, 61
1, 1431379, Note_on_c, 0, 65, 35
1, 1431410, Note_off_c, 0, 65, 54
1, 1431431, Note_on_c, 0, 72, 73
1, 1431437, Note_on_c, 0, 69, 65
1, 1431510, Note_on_c, 0, 64, 71
1, 1431559, Note_on_c, 0, 57, 52
1, 1431568, Note_off_c, 0, 64, 60
1, 1431580, Control_c, 0, 64, 48
1, 1431583, Note_off_c, 0, 57, 60
1, 1431583, Note_on_c, 0, 60, 67
1, 1431595, Control_c, 0, 64, 63
1, 1431610, Control_c, 0, 64, 65
1, 1431637, Note_off_c, 0, 69, 61
1, 1431640, Control_c, 0, 64, 67
1, 1431645, Note_off_c, 0, 72, 63
1, 1431648, Note_on_c, 0, 64, 69
1, 1431655, Control_c, 0, 64, 72
1, 1431663, Note_off_c, 0, 60, 55
1, 1431670, Control_c, 0, 64, 82
1, 1431685, Control_c, 0, 64, 101
1, 1431699, Control_c, 0, 64, 127
1, 1431702, Note_off_c, 0, 64, 63
1, 1431732, Note_on_c, 0, 70, 77
1, 1431747, Note_on_c, 0, 67, 61
1, 1431780, Control_c, 0, 64, 114
1, 1431795, Control_c, 0, 64, 79
1, 1431810, Control_c, 0, 64, 60
1, 1431825, Control_c, 0, 64, 40
1, 1431839, Note_on_c, 0, 64, 58
1, 1431840, Control_c, 0, 64, 0
1, 1431874, Note_off_c, 0, 64, 64
1, 1431876, Note_on_c, 0, 36, 53
1, 1431905, Note_on_c, 0, 58, 71
1, 1431905, Note_off_c, 0, 36, 59
1, 1431953, Note_on_c, 0, 64, 60
1, 1431958, Control_c, 0, 64, 40
1, 1431965, Note_off_c, 0, 67, 59
1, 1431971, Note_off_c, 0, 70, 61
1, 1431973, Control_c, 0, 64, 59
1, 1431988, Control_c, 0, 64, 71
1, 1432003, Control_c, 0, 64, 86
1, 1432007, Note_off_c, 0, 64, 64
1, 1432018, Control_c, 0, 64, 97
1, 1432040, Note_on_c, 0, 70, 70
1, 1432047, Control_c, 0, 64, 85
1, 1432060, Note_on_c, 0, 67, 74
1, 1432062, Control_c, 0, 64, 67
1, 1432076, Control_c, 0, 64, 41
1, 1432086, Note_off_c, 0, 58, 43
1, 1432091, Control_c, 0, 64, 0
1, 1432212, Note_on_c, 0, 38, 68
1, 1432222, Note_on_c, 0, 58, 39
1, 1432241, Note_off_c, 0, 38, 65
1, 1432279, Note_off_c, 0, 58, 63
1, 1432284, Note_off_c, 0, 70, 59
1, 1432293, Note_off_c, 0, 67, 60
1, 1432364, Note_on_c, 0, 65, 63
1, 1432366, Note_on_c, 0, 69, 64
1, 1432457, Note_on_c, 0, 62, 65
1, 1432490, Note_off_c, 0, 65, 54
1, 1432493, Note_off_c, 0, 62, 61
1, 1432519, Note_on_c, 0, 41, 56
1, 1432541, Note_on_c, 0, 57, 53
1, 1432554, Note_off_c, 0, 41, 55
1, 1432560, Control_c, 0, 64, 28
1, 1432575, Control_c, 0, 64, 42
1, 1432589, Control_c, 0, 64, 47
1, 1432598, Note_off_c, 0, 69, 61
1, 1432601, Note_on_c, 0, 62, 65
1, 1432604, Control_c, 0, 64, 45
1, 1432607, Note_off_c, 0, 57, 41
1, 1432619, Control_c, 0, 64, 38
1, 1432634, Control_c, 0, 64, 31
1, 1432638, Note_off_c, 0, 62, 65
1, 1432649, Control_c, 0, 64, 0
1, 1432679, Note_on_c, 0, 69, 72
1, 1432697, Note_on_c, 0, 64, 56
1, 1432751, Note_off_c, 0, 64, 53
1, 1432779, Note_on_c, 0, 61, 59
1, 1432805, Note_off_c, 0, 61, 65
1, 1432821, Note_on_c, 0, 45, 47
1, 1432849, Note_off_c, 0, 45, 50
1, 1432858, Note_on_c, 0, 57, 49
1, 1432885, Note_off_c, 0, 57, 56
1, 1432914, Note_on_c, 0, 61, 50
1, 1432954, Note_off_c, 0, 61, 66
1, 1432987, Note_on_c, 0, 67, 72
1, 1432999, Note_off_c, 0, 69, 54
1, 1433079, Note_on_c, 0, 64, 52
1, 1433103, Note_on_c, 0, 49, 57
1, 1433106, Note_off_c, 0, 64, 63
1, 1433133, Note_off_c, 0, 49, 64
1, 1433140, Note_on_c, 0, 57, 57
1, 1433196, Note_off_c, 0, 57, 47
1, 1433207, Note_on_c, 0, 64, 61
1, 1433213, Note_off_c, 0, 67, 59
1, 1433276, Note_off_c, 0, 64, 62
1, 1433289, Note_on_c, 0, 67, 66
1, 1433373, Note_on_c, 0, 64, 60
1, 1433412, Note_off_c, 0, 64, 63
1, 1433417, Note_on_c, 0, 50, 61
1, 1433437, Note_on_c, 0, 57, 62
1, 1433445, Note_off_c, 0, 50, 65
1, 1433509, Note_on_c, 0, 64, 59
1, 1433518, Note_off_c, 0, 57, 58
1, 1433545, Note_off_c, 0, 64, 65
1, 1433570, Note_on_c, 0, 52, 60
1, 1433575, Note_on_c, 0, 65, 67
1, 1433598, Note_off_c, 0, 52, 65
1, 1433607, Note_off_c, 0, 67, 61
1, 1433652, Note_on_c, 0, 62, 63
1, 1433703, Note_on_c, 0, 53, 35
1, 1433703, Note_off_c, 0, 62, 56
1, 1433739, Note_on_c, 0, 57, 50
1, 1433739, Note_off_c, 0, 53, 46
1, 1433785, Note_on_c, 0, 55, 48
1, 1433810, Note_off_c, 0, 57, 58
1, 1433813, Note_off_c, 0, 55, 56
1, 1433816, Note_on_c, 0, 62, 55
1, 1433883, Note_off_c, 0, 62, 58
1, 1433887, Note_off_c, 0, 65, 57
1, 1433891, Note_on_c, 0, 67, 63
1, 1433945, Note_on_c, 0, 46, 50
1, 1433998, Note_off_c, 0, 46, 62
1, 1434039, Note_on_c, 0, 65, 34
1, 1434101, Note_off_c, 0, 65, 54
1, 1434136, Note_on_c, 0, 62, 49
1, 1434186, Note_off_c, 0, 62, 56
1, 1434221, Note_on_c, 0, 65, 45
1, 1434323, Note_off_c, 0, 65, 51
1, 1434335, Note_on_c, 0, 69, 53
1, 1434348, Note_off_c, 0, 67, 46
1, 1434375, Note_on_c, 0, 48, 49
1, 1434407, Note_off_c, 0, 48, 65
1, 1434474, Note_on_c, 0, 64, 45
1, 1434523, Note_off_c, 0, 64, 46
1, 1434587, Note_on_c, 0, 60, 42
1, 1434696, Note_off_c, 0, 60, 49
1, 1434712, Note_on_c, 0, 64, 41
1, 1434817, Note_off_c, 0, 64, 57
1, 1434859, Note_on_c, 0, 65, 41
1, 1434912, Note_off_c, 0, 69, 36
1, 1434970, Control_c, 0, 64, 33
1, 1434984, Control_c, 0, 64, 44
1, 1434999, Control_c, 0, 64, 53
1, 1435014, Control_c, 0, 64, 55
1, 1435018, Note_on_c, 0, 60, 39
1, 1435029, Control_c, 0, 64, 55
1, 1435044, Control_c, 0, 64, 56
1, 1435058, Note_off_c, 0, 60, 54
1, 1435058, Control_c, 0, 64, 59
1, 1435073, Control_c, 0, 64, 62
1, 1435088, Control_c, 0, 64, 65
1, 1435102, Control_c, 0, 64, 69
1, 1435117, Control_c, 0, 64, 74
1, 1435128, Note_on_c, 0, 53, 40
1, 1435128, Note_on_c, 0, 57, 35
1, 1435132, Control_c, 0, 64, 81
1, 1435147, Control_c, 0, 64, 91
1, 1435162, Control_c, 0, 64, 111
1, 1435175, Note_off_c, 0, 57, 62
1, 1435176, Control_c, 0, 64, 127
1, 1435189, Note_off_c, 0, 53, 49
1, 1435211, Note_on_c, 0, 60, 39
1, 1435273, Note_off_c, 0, 65, 61
1, 1435283, Note_off_c, 0, 60, 56
1, 1435286, Note_on_c, 0, 67, 64
1, 1435399, Control_c, 0, 64, 118
1, 1435414, Control_c, 0, 64, 81
1, 1435420, Note_on_c, 0, 62, 16
1, 1435429, Control_c, 0, 64, 63
1, 1435444, Control_c, 0, 64, 50
1, 1435459, Control_c, 0, 64, 47
1, 1435466, Note_off_c, 0, 62, 42
1, 1435472, Note_on_c, 0, 46, 35
1, 1435473, Control_c, 0, 64, 51
1, 1435474, Note_on_c, 0, 58, 53
1, 1435488, Control_c, 0, 64, 57
1, 1435503, Control_c, 0, 64, 64
1, 1435525, Control_c, 0, 64, 70
1, 1435539, Note_off_c, 0, 58, 54
1, 1435540, Control_c, 0, 64, 79
1, 1435555, Control_c, 0, 64, 87
1, 1435557, Note_on_c, 0, 62, 53
1, 1435570, Control_c, 0, 64, 94
1, 1435585, Control_c, 0, 64, 101
1, 1435599, Note_off_c, 0, 46, 32
1, 1435599, Control_c, 0, 64, 110
1, 1435614, Control_c, 0, 64, 127
1, 1435628, Note_off_c, 0, 62, 62
1, 1435640, Note_on_c, 0, 69, 70
1, 1435688, Control_c, 0, 64, 86
1, 1435703, Control_c, 0, 64, 67
1, 1435712, Note_off_c, 0, 67, 56
1, 1435718, Control_c, 0, 64, 57
1, 1435719, Note_on_c, 0, 63, 62
1, 1435733, Control_c, 0, 64, 55
1, 1435748, Control_c, 0, 64, 59
1, 1435763, Control_c, 0, 64, 64
1, 1435774, Note_off_c, 0, 63, 53
1, 1435777, Control_c, 0, 64, 75
1, 1435787, Note_on_c, 0, 41, 54
1, 1435792, Control_c, 0, 64, 91
1, 1435807, Control_c, 0, 64, 108
1, 1435808, Note_on_c, 0, 60, 52
1, 1435817, Note_off_c, 0, 41, 64
1, 1435822, Control_c, 0, 64, 127
1, 1435856, Note_off_c, 0, 69, 55
1, 1435877, Note_on_c, 0, 63, 69
1, 1435884, Note_off_c, 0, 60, 56
1, 1435929, Note_off_c, 0, 63, 51
1, 1435948, Note_on_c, 0, 69, 83
1, 1435955, Control_c, 0, 64, 94
1, 1435970, Control_c, 0, 64, 65
1, 1435985, Control_c, 0, 64, 50
1, 1435999, Control_c, 0, 64, 49
1, 1436014, Control_c, 0, 64, 55
1, 1436029, Control_c, 0, 64, 63
1, 1436035, Note_on_c, 0, 63, 68
1, 1436044, Control_c, 0, 64, 73
1, 1436059, Control_c, 0, 64, 92
1, 1436073, Note_on_c, 0, 41, 59
1, 1436073, Control_c, 0, 64, 127
1, 1436082, Note_off_c, 0, 63, 59
1, 1436109, Note_on_c, 0, 60, 59
1, 1436123, Note_off_c, 0, 41, 56
1, 1436164, Note_off_c, 0, 69, 57
1, 1436193, Note_on_c, 0, 63, 66
1, 1436199, Note_off_c, 0, 60, 57
1, 1436295, Note_off_c, 0, 63, 60
1, 1436297, Note_on_c, 0, 69, 67
1, 1436304, Control_c, 0, 64, 102
1, 1436319, Control_c, 0, 64, 77
1, 1436334, Control_c, 0, 64, 61
1, 1436348, Control_c, 0, 64, 48
1, 1436363, Control_c, 0, 64, 41
1, 1436378, Control_c, 0, 64, 35
1, 1436393, Control_c, 0, 64, 30
1, 1436410, Note_on_c, 0, 63, 53
1, 1436422, Control_c, 0, 64, 36
1, 1436437, Control_c, 0, 64, 47
1, 1436452, Control_c, 0, 64, 58
1, 1436467, Control_c, 0, 64, 64
1, 1436468, Note_off_c, 0, 63, 58
1, 1436482, Control_c, 0, 64, 67
1, 1436490, Note_on_c, 0, 60, 54
1, 1436496, Control_c, 0, 64, 69
1, 1436500, Note_on_c, 0, 34, 46
1, 1436511, Control_c, 0, 64, 72
1, 1436526, Control_c, 0, 64, 75
1, 1436541, Control_c, 0, 64, 78
1, 1436546, Note_off_c, 0, 34, 49
1, 1436555, Note_off_c, 0, 60, 45
1, 1436555, Control_c, 0, 64, 82
1, 1436570, Control_c, 0, 64, 85
1, 1436581, Note_on_c, 0, 63, 59
1, 1436585, Control_c, 0, 64, 88
1, 1436600, Control_c, 0, 64, 90
1, 1436615, Control_c, 0, 64, 91
1, 1436626, Note_off_c, 0, 63, 56
1, 1436630, Control_c, 0, 64, 92
1, 1436645, Control_c, 0, 64, 93
1, 1436648, Note_on_c, 0, 70, 72
1, 1436660, Control_c, 0, 64, 91
1, 1436675, Control_c, 0, 64, 81
1, 1436690, Control_c, 0, 64, 64
1, 1436704, Control_c, 0, 64, 49
1, 1436708, Note_off_c, 0, 69, 38
1, 1436719, Control_c, 0, 64, 40
1, 1436734, Control_c, 0, 64, 39
1, 1436739, Note_on_c, 0, 65, 58
1, 1436748, Control_c, 0, 64, 44
1, 1436763, Control_c, 0, 64, 54
1, 1436778, Control_c, 0, 64, 63
1, 1436793, Control_c, 0, 64, 71
1, 1436800, Note_off_c, 0, 65, 51
1, 1436808, Note_on_c, 0, 34, 58
1, 1436808, Control_c, 0, 64, 78
1, 1436822, Control_c, 0, 64, 84
1, 1436823, Note_on_c, 0, 62, 57
1, 1436837, Control_c, 0, 64, 90
1, 1436852, Control_c, 0, 64, 96
1, 1436865, Note_off_c, 0, 34, 52
1, 1436866, Control_c, 0, 64, 105
1, 1436881, Note_off_c, 0, 70, 58
1, 1436881, Control_c, 0, 64, 127
1, 1436888, Note_on_c, 0, 65, 40
1, 1436901, Note_off_c, 0, 62, 56
1, 1436942, Note_off_c, 0, 65, 58
1, 1436958, Note_on_c, 0, 69, 81
1, 1436971, Control_c, 0, 64, 96
1, 1436986, Control_c, 0, 64, 72
1, 1437001, Control_c, 0, 64, 56
1, 1437023, Control_c, 0, 64, 53
1, 1437038, Control_c, 0, 64, 57
1, 1437044, Note_on_c, 0, 65, 65
1, 1437053, Control_c, 0, 64, 63
1, 1437068, Control_c, 0, 64, 72
1, 1437083, Control_c, 0, 64, 87
1, 1437092, Note_off_c, 0, 65, 60
1, 1437098, Control_c, 0, 64, 117
1, 1437110, Note_on_c, 0, 60, 55
1, 1437113, Control_c, 0, 64, 127
1, 1437176, Note_on_c, 0, 36, 47
1, 1437185, Note_on_c, 0, 65, 65
1, 1437205, Note_off_c, 0, 60, 50
1, 1437211, Note_off_c, 0, 36, 59
1, 1437243, Note_off_c, 0, 65, 59
1, 1437276, Note_on_c, 0, 67, 80
1, 1437290, Control_c, 0, 64, 84
1, 1437304, Control_c, 0, 64, 61
1, 1437314, Note_off_c, 0, 69, 55
1, 1437319, Control_c, 0, 64, 52
1, 1437334, Control_c, 0, 64, 56
1, 1437348, Control_c, 0, 64, 63
1, 1437354, Note_on_c, 0, 64, 78
1, 1437363, Control_c, 0, 64, 74
1, 1437377, Control_c, 0, 64, 104
1, 1437392, Control_c, 0, 64, 127
1, 1437403, Note_off_c, 0, 64, 64
1, 1437407, Control_c, 0, 67, 125
1, 1437422, Control_c, 0, 67, 108
1, 1437427, Note_on_c, 0, 60, 68
1, 1437436, Control_c, 0, 67, 101
1, 1437451, Control_c, 0, 67, 99
1, 1437466, Control_c, 0, 67, 96
1, 1437469, Note_on_c, 0, 36, 45
1, 1437481, Control_c, 0, 67, 88
1, 1437490, Note_on_c, 0, 64, 64
1, 1437493, Note_off_c, 0, 60, 57
1, 1437495, Control_c, 0, 67, 83
1, 1437508, Note_off_c, 0, 36, 56
1, 1437510, Control_c, 0, 67, 82
1, 1437525, Control_c, 0, 67, 81
1, 1437540, Control_c, 0, 67, 80
1, 1437552, Note_off_c, 0, 64, 62
1, 1437555, Control_c, 0, 67, 79
1, 1437569, Note_on_c, 0, 69, 78
1, 1437569, Control_c, 0, 67, 79
1, 1437580, Note_off_c, 0, 67, 58
1, 1437584, Control_c, 0, 64, 77
1, 1437584, Control_c, 0, 67, 79
1, 1437599, Control_c, 0, 64, 53
1, 1437614, Control_c, 0, 64, 0
1, 1437629, Control_c, 0, 64, 31
1, 1437643, Control_c, 0, 64, 46
1, 1437658, Control_c, 0, 64, 63
1, 1437661, Note_on_c, 0, 65, 63
1, 1437673, Control_c, 0, 64, 80
1, 1437673, Control_c, 0, 67, 79
1, 1437688, Control_c, 0, 64, 127
1, 1437688, Control_c, 0, 67, 71
1, 1437703, Control_c, 0, 67, 49
1, 1437715, Note_off_c, 0, 65, 62
1, 1437718, Control_c, 0, 67, 0
1, 1437727, Note_on_c, 0, 63, 72
1, 1437742, Note_on_c, 0, 41, 60
1, 1437787, Note_off_c, 0, 63, 60
1, 1437798, Note_off_c, 0, 41, 57
1, 1437820, Note_on_c, 0, 65, 59
1, 1437860, Control_c, 0, 64, 91
1, 1437864, Note_on_c, 0, 70, 87
1, 1437874, Control_c, 0, 64, 66
1, 1437887, Note_off_c, 0, 69, 61
1, 1437889, Control_c, 0, 64, 54
1, 1437897, Note_off_c, 0, 65, 41
1, 1437904, Control_c, 0, 64, 57
1, 1437918, Control_c, 0, 64, 67
1, 1437933, Control_c, 0, 64, 88
1, 1437948, Control_c, 0, 64, 127
1, 1437984, Note_on_c, 0, 67, 46
1, 1438034, Note_off_c, 0, 67, 63
1, 1438036, Note_on_c, 0, 53, 50
1, 1438046, Note_on_c, 0, 63, 63
1, 1438082, Note_off_c, 0, 53, 56
1, 1438085, Note_off_c, 0, 70, 62
1, 1438100, Note_on_c, 0, 67, 65
1, 1438120, Note_off_c, 0, 63, 56
1, 1438177, Note_on_c, 0, 72, 88
1, 1438186, Note_off_c, 0, 67, 56
1, 1438200, Control_c, 0, 64, 85
1, 1438215, Control_c, 0, 64, 62
1, 1438230, Control_c, 0, 64, 44
1, 1438245, Control_c, 0, 64, 46
1, 1438260, Control_c, 0, 64, 56
1, 1438274, Control_c, 0, 64, 68
1, 1438283, Note_on_c, 0, 69, 63
1, 1438289, Control_c, 0, 64, 93
1, 1438304, Control_c, 0, 64, 127
1, 1438336, Note_off_c, 0, 69, 63
1, 1438350, Note_on_c, 0, 63, 60
1, 1438403, Note_on_c, 0, 53, 43
1, 1438428, Note_off_c, 0, 72, 58
1, 1438442, Note_off_c, 0, 63, 32
1, 1438457, Note_on_c, 0, 69, 45
1, 1438460, Note_off_c, 0, 53, 55
1, 1438478, Note_off_c, 0, 69, 61
1, 1438496, Control_c, 0, 64, 96
1, 1438500, Note_on_c, 0, 72, 85
1, 1438518, Control_c, 0, 64, 67
1, 1438533, Control_c, 0, 64, 47
1, 1438549, Control_c, 0, 64, 46
1, 1438564, Control_c, 0, 64, 54
1, 1438579, Control_c, 0, 64, 64
1, 1438594, Control_c, 0, 64, 77
1, 1438609, Control_c, 0, 64, 109
1, 1438623, Control_c, 0, 64, 127
1, 1438627, Note_on_c, 0, 69, 41
1, 1438686, Note_off_c, 0, 69, 61
1, 1438699, Note_on_c, 0, 53, 47
1, 1438704, Note_on_c, 0, 63, 45
1, 1438750, Note_off_c, 0, 53, 51
1, 1438759, Note_off_c, 0, 72, 62
1, 1438776, Note_on_c, 0, 69, 47
1, 1438780, Note_off_c, 0, 63, 53
1, 1438860, Note_on_c, 0, 72, 81
1, 1438860, Note_off_c, 0, 69, 53
1, 1438890, Control_c, 0, 64, 108
1, 1438905, Control_c, 0, 64, 74
1, 1438920, Control_c, 0, 64, 55
1, 1438935, Control_c, 0, 64, 41
1, 1438949, Control_c, 0, 64, 42
1, 1438964, Control_c, 0, 64, 49
1, 1438979, Note_on_c, 0, 69, 45
1, 1438979, Control_c, 0, 64, 61
1, 1438994, Control_c, 0, 64, 70
1, 1439009, Control_c, 0, 64, 82
1, 1439012, Note_off_c, 0, 69, 52
1, 1439021, Note_on_c, 0, 63, 63
1, 1439024, Control_c, 0, 64, 95
1, 1439024, Control_c, 0, 67, 41
1, 1439026, Note_on_c, 0, 46, 57
1, 1439039, Control_c, 0, 64, 103
1, 1439039, Control_c, 0, 67, 40
1, 1439053, Control_c, 0, 64, 110
1, 1439053, Control_c, 0, 67, 41
1, 1439061, Note_off_c, 0, 46, 62
1, 1439068, Control_c, 0, 64, 127
1, 1439068, Control_c, 0, 67, 44
1, 1439083, Control_c, 0, 67, 52
1, 1439088, Note_off_c, 0, 63, 36
1, 1439093, Note_on_c, 0, 69, 66
1, 1439098, Control_c, 0, 67, 73
1, 1439113, Control_c, 0, 67, 83
1, 1439142, Control_c, 0, 67, 84
1, 1439157, Control_c, 0, 67, 88
1, 1439172, Control_c, 0, 67, 108
1, 1439187, Control_c, 0, 67, 127
1, 1439194, Note_off_c, 0, 72, 59
1, 1439199, Note_on_c, 0, 74, 73
1, 1439202, Note_off_c, 0, 69, 39
1, 1439216, Control_c, 0, 64, 91
1, 1439231, Control_c, 0, 64, 67
1, 1439246, Control_c, 0, 64, 45
1, 1439268, Control_c, 0, 64, 33
1, 1439283, Control_c, 0, 64, 32
1, 1439298, Control_c, 0, 64, 33
1, 1439313, Control_c, 0, 64, 39
1, 1439328, Control_c, 0, 64, 50
1, 1439335, Note_on_c, 0, 70, 43
1, 1439343, Control_c, 0, 64, 60
1, 1439358, Control_c, 0, 64, 67
1, 1439367, Note_on_c, 0, 46, 41
1, 1439369, Note_off_c, 0, 70, 65
1, 1439372, Control_c, 0, 64, 75
1, 1439387, Control_c, 0, 64, 86
1, 1439399, Note_off_c, 0, 46, 57
1, 1439402, Control_c, 0, 64, 94
1, 1439417, Control_c, 0, 64, 102
1, 1439432, Control_c, 0, 64, 114
1, 1439446, Poly_aftertouch_c, 0, 62, 127
1, 1439447, Control_c, 0, 64, 127
1, 1439468, Note_on_c, 0, 70, 51
1, 1439495, Poly_aftertouch_c, 0, 62, 0
1, 1439527, Note_off_c, 0, 70, 61
1, 1439551, Control_c, 0, 64, 97
1, 1439565, Control_c, 0, 64, 72
1, 1439567, Note_on_c, 0, 72, 61
1, 1439580, Control_c, 0, 64, 57
1, 1439595, Control_c, 0, 64, 44
1, 1439596, Note_off_c, 0, 74, 55
1, 1439610, Control_c, 0, 64, 42
1, 1439625, Control_c, 0, 64, 43
1, 1439639, Control_c, 0, 64, 49
1, 1439646, Note_on_c, 0, 69, 51
1, 1439654, Control_c, 0, 64, 59
1, 1439669, Control_c, 0, 64, 65
1, 1439684, Control_c, 0, 64, 70
1, 1439698, Control_c, 0, 64, 74
1, 1439701, Note_off_c, 0, 69, 49
1, 1439713, Control_c, 0, 64, 78
1, 1439728, Control_c, 0, 64, 85
1, 1439739, Note_on_c, 0, 48, 42
1, 1439742, Note_on_c, 0, 65, 49
1, 1439743, Control_c, 0, 64, 99
1, 1439758, Control_c, 0, 64, 127
1, 1439790, Note_off_c, 0, 48, 47
1, 1439807, Note_off_c, 0, 72, 59
1, 1439811, Note_off_c, 0, 65, 54
1, 1439851, Note_on_c, 0, 69, 22
1, 1439901, Note_off_c, 0, 69, 47
1, 1439904, Note_on_c, 0, 72, 65
1, 1439906, Control_c, 0, 64, 104
1, 1439921, Control_c, 0, 64, 76
1, 1439936, Control_c, 0, 64, 62
1, 1439951, Control_c, 0, 64, 55
1, 1439965, Control_c, 0, 64, 58
1, 1439980, Control_c, 0, 64, 63
1, 1439995, Control_c, 0, 64, 71
1, 1440017, Control_c, 0, 64, 85
1, 1440032, Control_c, 0, 64, 106
1, 1440036, Note_on_c, 0, 67, 35
1, 1440046, Control_c, 0, 64, 127
1, 1440060, Note_on_c, 0, 48, 23
1, 1440073, Note_off_c, 0, 67, 52
1, 1440104, Note_off_c, 0, 48, 53
1, 1440113, Note_on_c, 0, 64, 50
1, 1440177, Note_on_c, 0, 67, 59
1, 1440189, Note_off_c, 0, 72, 57
1, 1440204, Note_off_c, 0, 64, 49
1, 1440241, Note_off_c, 0, 67, 58
1, 1440292, Note_on_c, 0, 72, 63
1, 1440340, Note_on_c, 0, 53, 51
1, 1440344, Control_c, 0, 64, 99
1, 1440359, Control_c, 0, 64, 75
1, 1440374, Control_c, 0, 64, 54
1, 1440388, Control_c, 0, 64, 0
1, 1440392, Note_on_c, 0, 69, 54
1, 1440435, Note_off_c, 0, 69, 59
1, 1440474, Note_on_c, 0, 65, 58
1, 1440550, Note_on_c, 0, 69, 54
1, 1440574, Note_off_c, 0, 65, 36
1, 1440598, Note_off_c, 0, 69, 61
1, 1440616, Note_on_c, 0, 77, 77
1, 1440620, Note_on_c, 0, 57, 57
1, 1440625, Note_off_c, 0, 72, 61
1, 1440751, Note_on_c, 0, 72, 39
1, 1440788, Note_off_c, 0, 72, 56
1, 1440808, Note_on_c, 0, 65, 54
1, 1440854, Note_off_c, 0, 65, 54
1, 1440869, Note_on_c, 0, 72, 54
1, 1440911, Note_off_c, 0, 57, 62
1, 1440920, Note_off_c, 0, 72, 54
1, 1440943, Note_on_c, 0, 60, 42
1, 1440955, Note_on_c, 0, 76, 66
1, 1440985, Note_off_c, 0, 77, 60
1, 1441048, Note_on_c, 0, 72, 49
1, 1441084, Note_off_c, 0, 72, 62
1, 1441114, Note_on_c, 0, 67, 43
1, 1441182, Note_on_c, 0, 72, 54
1, 1441197, Note_off_c, 0, 67, 35
1, 1441259, Note_off_c, 0, 72, 60
1, 1441261, Note_on_c, 0, 58, 46
1, 1441263, Note_on_c, 0, 79, 72
1, 1441265, Note_off_c, 0, 60, 62
1, 1441292, Note_off_c, 0, 76, 28
1, 1441357, Note_on_c, 0, 72, 54
1, 1441389, Note_off_c, 0, 72, 64
1, 1441432, Note_on_c, 0, 67, 62
1, 1441462, Control_c, 0, 64, 46
1, 1441477, Control_c, 0, 64, 56
1, 1441486, Note_on_c, 0, 72, 51
1, 1441503, Note_off_c, 0, 67, 38
1, 1441507, Control_c, 0, 64, 57
1, 1441529, Control_c, 0, 64, 60
1, 1441531, Note_off_c, 0, 72, 64
1, 1441537, Note_off_c, 0, 79, 59
1, 1441543, Control_c, 0, 64, 64
1, 1441558, Control_c, 0, 64, 67
1, 1441567, Note_off_c, 0, 53, 61
1, 1441573, Control_c, 0, 64, 67
1, 1441588, Control_c, 0, 64, 65
1, 1441590, Note_on_c, 0, 57, 31
1, 1441594, Note_on_c, 0, 72, 68
1, 1441596, Note_off_c, 0, 58, 64
1, 1441603, Control_c, 0, 64, 56
1, 1441617, Control_c, 0, 64, 38
1, 1441632, Control_c, 0, 64, 0
1, 1441697, Note_on_c, 0, 69, 68
1, 1441737, Control_c, 0, 64, 28
1, 1441746, Note_off_c, 0, 69, 60
1, 1441752, Control_c, 0, 64, 30
1, 1441774, Note_on_c, 0, 65, 43
1, 1441811, Control_c, 0, 64, 33
1, 1441819, Note_on_c, 0, 69, 54
1, 1441826, Control_c, 0, 64, 37
1, 1441841, Note_off_c, 0, 65, 48
1, 1441841, Control_c, 0, 64, 38
1, 1441856, Control_c, 0, 64, 38
1, 1441871, Control_c, 0, 64, 37
1, 1441877, Note_off_c, 0, 72, 51
1, 1441878, Note_off_c, 0, 69, 60
1, 1441885, Control_c, 0, 64, 36
1, 1441891, Note_off_c, 0, 57, 47
1, 1441896, Note_on_c, 0, 74, 79
1, 1441908, Note_on_c, 0, 53, 39
1, 1441914, Note_on_c, 0, 46, 36
1, 1441930, Control_c, 0, 64, 36
1, 1441945, Control_c, 0, 64, 32
1, 1441960, Control_c, 0, 64, 29
1, 1441990, Note_on_c, 0, 70, 63
1, 1442028, Note_off_c, 0, 70, 58
1, 1442082, Note_on_c, 0, 65, 51
1, 1442093, Control_c, 0, 64, 0
1, 1442143, Note_on_c, 0, 70, 56
1, 1442152, Note_off_c, 0, 65, 48
1, 1442204, Note_off_c, 0, 46, 62
1, 1442206, Note_off_c, 0, 70, 63
1, 1442219, Note_off_c, 0, 74, 56
1, 1442223, Note_on_c, 0, 72, 60
1, 1442224, Note_off_c, 0, 53, 54
1, 1442225, Note_on_c, 0, 48, 44
1, 1442237, Note_on_c, 0, 52, 36
1, 1442336, Note_on_c, 0, 70, 52
1, 1442379, Note_off_c, 0, 70, 60
1, 1442425, Note_on_c, 0, 67, 49
1, 1442470, Note_off_c, 0, 67, 57
1, 1442486, Note_off_c, 0, 72, 58
1, 1442487, Note_on_c, 0, 70, 61
1, 1442550, Note_off_c, 0, 70, 61
1, 1442561, Control_c, 0, 64, 46
1, 1442565, Note_on_c, 0, 55, 47
1, 1442575, Note_on_c, 0, 72, 54
1, 1442576, Control_c, 0, 64, 63
1, 1442589, Note_off_c, 0, 48, 63
1, 1442590, Control_c, 0, 64, 71
1, 1442604, Note_off_c, 0, 55, 60
1, 1442605, Control_c, 0, 64, 80
1, 1442607, Note_off_c, 0, 52, 54
1, 1442620, Control_c, 0, 64, 84
1, 1442635, Control_c, 0, 64, 88
1, 1442650, Control_c, 0, 64, 90
1, 1442664, Control_c, 0, 64, 92
1, 1442666, Note_on_c, 0, 70, 54
1, 1442679, Control_c, 0, 64, 95
1, 1442694, Control_c, 0, 64, 98
1, 1442696, Note_off_c, 0, 70, 64
1, 1442708, Control_c, 0, 64, 100
1, 1442732, Note_on_c, 0, 64, 57
1, 1442802, Note_on_c, 0, 70, 45
1, 1442807, Note_off_c, 0, 72, 58
1, 1442818, Note_off_c, 0, 64, 49
1, 1442863, Note_off_c, 0, 70, 56
1, 1442872, Control_c, 0, 64, 91
1, 1442885, Note_on_c, 0, 72, 54
1, 1442887, Control_c, 0, 64, 72
1, 1442889, Note_on_c, 0, 53, 48
1, 1442902, Control_c, 0, 64, 54
1, 1442916, Control_c, 0, 64, 0
1, 1442985, Note_on_c, 0, 69, 55
1, 1443036, Note_off_c, 0, 69, 59
1, 1443083, Note_on_c, 0, 65, 52
1, 1443127, Note_off_c, 0, 65, 57
1, 1443159, Note_on_c, 0, 69, 38
1, 1443188, Note_off_c, 0, 72, 60
1, 1443189, Note_off_c, 0, 69, 55
1, 1443206, Note_on_c, 0, 57, 47
1, 1443207, Note_on_c, 0, 77, 62
1, 1443316, Note_on_c, 0, 72, 39
1, 1443361, Note_off_c, 0, 72, 46
1, 1443387, Note_on_c, 0, 65, 48
1, 1443438, Note_off_c, 0, 65, 53
1, 1443456, Note_on_c, 0, 72, 55
1, 1443501, Note_off_c, 0, 72, 54
1, 1443552, Note_on_c, 0, 60, 67
1, 1443577, Note_off_c, 0, 57, 65
1, 1443585, Note_on_c, 0, 76, 50
1, 1443624, Note_off_c, 0, 77, 54
1, 1443685, Note_on_c, 0, 72, 46
1, 1443723, Note_on_c, 0, 61, 71
1, 1443728, Note_off_c, 0, 72, 60
1, 1443781, Note_off_c, 0, 60, 63
1, 1443794, Note_on_c, 0, 67, 19
1, 1443841, Note_off_c, 0, 67, 50
1, 1443860, Note_on_c, 0, 72, 34
1, 1443892, Note_on_c, 0, 60, 61
1, 1443900, Note_off_c, 0, 72, 54
1, 1443915, Note_on_c, 0, 79, 58
1, 1443919, Note_off_c, 0, 61, 65
1, 1443948, Note_off_c, 0, 76, 43
1, 1444003, Note_on_c, 0, 72, 49
1, 1444042, Note_off_c, 0, 72, 62
1, 1444050, Note_on_c, 0, 58, 62
1, 1444055, Note_off_c, 0, 60, 63
1, 1444087, Control_c, 0, 64, 35
1, 1444091, Note_on_c, 0, 67, 49
1, 1444102, Control_c, 0, 64, 46
1, 1444117, Control_c, 0, 64, 49
1, 1444133, Control_c, 0, 64, 49
1, 1444148, Control_c, 0, 64, 51
1, 1444156, Note_off_c, 0, 67, 51
1, 1444157, Note_on_c, 0, 72, 44
1, 1444162, Control_c, 0, 64, 55
1, 1444177, Control_c, 0, 64, 57
1, 1444182, Note_off_c, 0, 79, 59
1, 1444186, Note_off_c, 0, 72, 58
1, 1444192, Control_c, 0, 64, 58
1, 1444222, Control_c, 0, 64, 59
1, 1444230, Note_off_c, 0, 53, 62
1, 1444236, Control_c, 0, 64, 57
1, 1444245, Note_on_c, 0, 57, 56
1, 1444251, Control_c, 0, 64, 49
1, 1444255, Note_off_c, 0, 58, 64
1, 1444262, Note_on_c, 0, 72, 60
1, 1444266, Control_c, 0, 64, 32
1, 1444280, Control_c, 0, 64, 0
1, 1444358, Note_on_c, 0, 69, 48
1, 1444386, Note_off_c, 0, 69, 61
1, 1444438, Note_on_c, 0, 65, 47
1, 1444478, Note_off_c, 0, 65, 46
1, 1444488, Note_on_c, 0, 69, 46
1, 1444538, Note_off_c, 0, 72, 57
1, 1444576, Note_off_c, 0, 69, 62
1, 1444583, Note_off_c, 0, 57, 59
1, 1444586, Note_on_c, 0, 53, 46
1, 1444592, Note_on_c, 0, 73, 53
1, 1444602, Note_on_c, 0, 46, 35
1, 1444691, Note_on_c, 0, 70, 53
1, 1444732, Note_off_c, 0, 70, 63
1, 1444777, Note_on_c, 0, 65, 47
1, 1444823, Note_off_c, 0, 65, 48
1, 1444851, Note_on_c, 0, 70, 52
1, 1444891, Note_off_c, 0, 73, 54
1, 1444935, Note_off_c, 0, 70, 59
1, 1444950, Note_on_c, 0, 72, 45
1, 1444950, Note_off_c, 0, 53, 54
1, 1444957, Note_on_c, 0, 48, 45
1, 1444959, Note_on_c, 0, 52, 34
1, 1444994, Note_off_c, 0, 46, 58
1, 1445030, Note_off_c, 0, 52, 0
1, 1445030, Note_on_c, 0, 52, 3
1, 1445055, Note_on_c, 0, 70, 49
1, 1445108, Note_off_c, 0, 70, 57
1, 1445157, Note_on_c, 0, 67, 40
1, 1445244, Note_on_c, 0, 70, 52
1, 1445276, Note_off_c, 0, 72, 37
1, 1445298, Note_off_c, 0, 67, 44
1, 1445353, Note_off_c, 0, 70, 60
1, 1445390, Note_on_c, 0, 72, 42
1, 1445402, Note_on_c, 0, 55, 31
1, 1445493, Note_on_c, 0, 70, 48
1, 1445571, Control_c, 0, 64, 28
1, 1445585, Control_c, 0, 64, 35
1, 1445597, Note_off_c, 0, 52, 38
1, 1445600, Control_c, 0, 64, 38
1, 1445614, Control_c, 0, 64, 38
1, 1445632, Note_off_c, 0, 70, 43
1, 1445644, Control_c, 0, 64, 39
1, 1445654, Note_on_c, 0, 64, 22
1, 1445659, Control_c, 0, 64, 42
1, 1445674, Control_c, 0, 64, 47
1, 1445689, Control_c, 0, 64, 48
1, 1445718, Control_c, 0, 64, 49
1, 1445734, Control_c, 0, 64, 51
1, 1445749, Control_c, 0, 64, 54
1, 1445763, Control_c, 0, 64, 58
1, 1445772, Note_on_c, 0, 70, 38
1, 1445799, Note_off_c, 0, 64, 38
1, 1445808, Control_c, 0, 64, 58
1, 1445823, Control_c, 0, 64, 59
1, 1445838, Control_c, 0, 64, 60
1, 1445852, Control_c, 0, 64, 61
1, 1445882, Control_c, 0, 64, 60
1, 1445941, Control_c, 0, 64, 59
1, 1445956, Control_c, 0, 64, 58
1, 1445957, Note_off_c, 0, 55, 41
1, 1445966, Note_off_c, 0, 72, 37
1, 1445971, Control_c, 0, 64, 58
1, 1445996, Note_off_c, 0, 48, 43
1, 1446008, Control_c, 0, 64, 57
1, 1446023, Control_c, 0, 64, 56
1, 1446038, Control_c, 0, 64, 55
1, 1446053, Control_c, 0, 64, 55
1, 1446079, Note_off_c, 0, 70, 32
1, 1446112, Control_c, 0, 64, 54
1, 1446127, Control_c, 0, 64, 53
1, 1446186, Control_c, 0, 64, 53
1, 1446201, Control_c, 0, 64, 52
1, 1446259, Control_c, 0, 64, 52
1, 1446274, Control_c, 0, 64, 51
1, 1446348, Control_c, 0, 64, 51
1, 1446422, Control_c, 0, 64, 50
1, 1447201, Control_c, 0, 64, 50
1, 1447215, Control_c, 0, 64, 49
1, 1447230, Control_c, 0, 64, 49
1, 1447275, Control_c, 0, 64, 48
1, 1447290, Control_c, 0, 64, 47
1, 1447305, Control_c, 0, 64, 47
1, 1447320, Control_c, 0, 67, 110
1, 1447335, Control_c, 0, 67, 72
1, 1447350, Control_c, 0, 67, 0
1, 1447365, Control_c, 0, 64, 46
1, 1447379, Control_c, 0, 64, 46
1, 1447394, Control_c, 0, 64, 45
1, 1447424, Control_c, 0, 64, 45
1, 1447439, Control_c, 0, 64, 44
1, 1447454, Control_c, 0, 64, 42
1, 1447469, Control_c, 0, 64, 40
1, 1447483, Control_c, 0, 64, 38
1, 1447505, Control_c, 0, 64, 37
1, 1447520, Control_c, 0, 64, 36
1, 1447535, Control_c, 0, 64, 32
1, 1447550, Control_c, 0, 64, 0
1, 1447835, Note_on_c, 0, 77, 92
1, 1447837, Note_on_c, 0, 72, 86
1, 1447838, Note_on_c, 0, 68, 89
1, 1447843, Note_on_c, 0, 53, 79
1, 1447850, Note_on_c, 0, 41, 70
1, 1447850, Note_on_c, 0, 48, 74
1, 1448284, Control_c, 0, 64, 30
1, 1448299, Control_c, 0, 64, 79
1, 1448314, Control_c, 0, 64, 127
1, 1448338, Note_off_c, 0, 53, 63
1, 1448343, Note_off_c, 0, 48, 62
1, 1448344, Note_off_c, 0, 41, 63
1, 1448365, Note_off_c, 0, 77, 59
1, 1448405, Note_off_c, 0, 68, 54
1, 1448464, Note_off_c, 0, 72, 32
1, 1448522, Note_on_c, 0, 53, 75
1, 1448525, Note_on_c, 0, 41, 72
1, 1448525, Note_on_c, 0, 68, 80
1, 1448527, Note_on_c, 0, 77, 70
1, 1448529, Note_on_c, 0, 72, 76
1, 1448551, Note_off_c, 0, 68, 66
1, 1448551, Note_off_c, 0, 72, 69
1, 1448552, Note_off_c, 0, 41, 66
1, 1448554, Note_off_c, 0, 77, 68
1, 1448555, Note_off_c, 0, 53, 64
1, 1448596, Note_on_c, 0, 80, 95
1, 1448602, Note_on_c, 0, 72, 88
1, 1448607, Note_on_c, 0, 68, 83
1, 1448608, Note_on_c, 0, 53, 81
1, 1448610, Note_on_c, 0, 41, 85
1, 1448610, Control_c, 0, 64, 113
1, 1448625, Control_c, 0, 64, 75
1, 1448640, Control_c, 0, 64, 67
1, 1448655, Control_c, 0, 64, 70
1, 1448670, Control_c, 0, 64, 91
1, 1448685, Control_c, 0, 64, 127
1, 1448714, Note_off_c, 0, 41, 60
1, 1448717, Note_off_c, 0, 72, 33
1, 1448722, Note_off_c, 0, 53, 60
1, 1448722, Note_off_c, 0, 68, 59
1, 1448723, Note_off_c, 0, 80, 60
1, 1448817, Note_on_c, 0, 53, 75
1, 1448818, Note_on_c, 0, 80, 76
1, 1448825, Note_on_c, 0, 41, 56
1, 1448828, Note_on_c, 0, 72, 70
1, 1448831, Note_on_c, 0, 68, 74
1, 1448833, Control_c, 0, 64, 88
1, 1448837, Note_off_c, 0, 53, 69
1, 1448847, Control_c, 0, 64, 64
1, 1448849, Note_off_c, 0, 41, 59
1, 1448852, Note_off_c, 0, 72, 69
1, 1448858, Note_off_c, 0, 68, 66
1, 1448862, Control_c, 0, 64, 52
1, 1448877, Control_c, 0, 64, 62
1, 1448892, Control_c, 0, 64, 83
1, 1448900, Note_on_c, 0, 77, 88
1, 1448903, Note_on_c, 0, 72, 88
1, 1448905, Note_on_c, 0, 68, 91
1, 1448907, Control_c, 0, 64, 127
1, 1448914, Note_on_c, 0, 56, 87
1, 1448917, Note_on_c, 0, 44, 76
1, 1448932, Note_off_c, 0, 68, 62
1, 1448937, Note_off_c, 0, 80, 57
1, 1448939, Note_off_c, 0, 56, 69
1, 1448942, Note_off_c, 0, 72, 58
1, 1448947, Note_off_c, 0, 44, 64
1, 1448948, Note_off_c, 0, 77, 64
1, 1449132, Note_on_c, 0, 44, 68
1, 1449153, Note_on_c, 0, 77, 74
1, 1449155, Note_on_c, 0, 68, 75
1, 1449159, Note_on_c, 0, 72, 69
1, 1449161, Note_off_c, 0, 44, 64
1, 1449175, Note_off_c, 0, 68, 71
1, 1449185, Note_off_c, 0, 72, 67
1, 1449197, Note_off_c, 0, 77, 63
1, 1449212, Control_c, 0, 64, 87
1, 1449226, Control_c, 0, 64, 63
1, 1449230, Note_on_c, 0, 68, 102
1, 1449233, Note_on_c, 0, 65, 97
1, 1449233, Note_on_c, 0, 72, 87
1, 1449235, Poly_aftertouch_c, 0, 77, 0
1, 1449239, Note_on_c, 0, 29, 84
1, 1449241, Control_c, 0, 64, 55
1, 1449242, Note_on_c, 0, 41, 79
1, 1449242, Note_on_c, 0, 77, 48
1, 1449256, Control_c, 0, 64, 67
1, 1449266, Note_off_c, 0, 41, 67
1, 1449267, Note_off_c, 0, 77, 65
1, 1449271, Control_c, 0, 64, 99
1, 1449275, Note_off_c, 0, 29, 66
1, 1449275, Note_off_c, 0, 65, 64
1, 1449281, Note_off_c, 0, 68, 64
1, 1449285, Control_c, 0, 64, 127
1, 1449286, Note_off_c, 0, 72, 60
1, 1449341, Poly_aftertouch_c, 0, 74, 0
1, 1449433, Note_on_c, 0, 41, 66
1, 1449440, Note_on_c, 0, 72, 80
1, 1449441, Note_on_c, 0, 65, 81
1, 1449457, Note_on_c, 0, 68, 49
1, 1449459, Note_off_c, 0, 41, 68
1, 1449466, Note_off_c, 0, 65, 63
1, 1449469, Note_on_c, 0, 70, 43
1, 1449477, Control_c, 0, 64, 81
1, 1449485, Note_off_c, 0, 68, 53
1, 1449485, Note_off_c, 0, 72, 61
1, 1449492, Control_c, 0, 64, 65
1, 1449498, Note_off_c, 0, 70, 57
1, 1449522, Control_c, 0, 64, 82
1, 1449523, Note_on_c, 0, 65, 95
1, 1449525, Note_on_c, 0, 60, 94
1, 1449527, Note_on_c, 0, 32, 94
1, 1449527, Note_on_c, 0, 68, 86
1, 1449527, Poly_aftertouch_c, 0, 72, 0
1, 1449528, Note_on_c, 0, 44, 93
1, 1449531, Note_on_c, 0, 72, 56
1, 1449537, Control_c, 0, 64, 127
1, 1449546, Note_off_c, 0, 60, 70
1, 1449551, Note_off_c, 0, 72, 61
1, 1449555, Note_off_c, 0, 44, 64
1, 1449556, Note_off_c, 0, 32, 66
1, 1449561, Note_off_c, 0, 65, 62
1, 1449568, Note_off_c, 0, 68, 65
1, 1449706, Poly_aftertouch_c, 0, 32, 127
1, 1449758, Poly_aftertouch_c, 0, 32, 0
1, 1449784, Note_on_c, 0, 32, 62
1, 1449785, Note_on_c, 0, 44, 78
1, 1449787, Note_on_c, 0, 68, 74
1, 1449792, Note_on_c, 0, 60, 74
1, 1449816, Note_off_c, 0, 32, 62
1, 1449818, Note_off_c, 0, 60, 65
1, 1449821, Note_on_c, 0, 65, 32
1, 1449822, Note_off_c, 0, 44, 61
1, 1449841, Note_off_c, 0, 68, 59
1, 1449844, Note_off_c, 0, 65, 59
1, 1449866, Note_on_c, 0, 65, 80
1, 1449876, Note_on_c, 0, 68, 43
1, 1449880, Note_on_c, 0, 48, 95
1, 1449880, Note_on_c, 0, 56, 88
1, 1449882, Note_on_c, 0, 36, 86
1, 1449883, Note_on_c, 0, 60, 77
1, 1449886, Control_c, 0, 64, 99
1, 1449895, Note_off_c, 0, 68, 64
1, 1449900, Control_c, 0, 64, 65
1, 1449913, Note_off_c, 0, 60, 64
1, 1449915, Note_off_c, 0, 36, 66
1, 1449915, Control_c, 0, 64, 49
1, 1449918, Note_off_c, 0, 56, 61
1, 1449930, Control_c, 0, 64, 57
1, 1449940, Note_off_c, 0, 65, 58
1, 1449945, Control_c, 0, 64, 71
1, 1449948, Note_off_c, 0, 48, 51
1, 1449960, Control_c, 0, 64, 127
1, 1449998, Note_on_c, 0, 65, 8
1, 1450029, Poly_aftertouch_c, 0, 36, 127
1, 1450032, Poly_aftertouch_c, 0, 48, 127
1, 1450040, Note_off_c, 0, 65, 51
1, 1450061, Poly_aftertouch_c, 0, 36, 0
1, 1450064, Poly_aftertouch_c, 0, 48, 0
1, 1450078, Note_on_c, 0, 36, 54
1, 1450085, Note_on_c, 0, 48, 75
1, 1450093, Note_on_c, 0, 65, 70
1, 1450095, Note_on_c, 0, 56, 77
1, 1450095, Note_on_c, 0, 60, 72
1, 1450114, Note_off_c, 0, 36, 63
1, 1450116, Note_off_c, 0, 48, 66
1, 1450118, Note_off_c, 0, 56, 69
1, 1450121, Note_off_c, 0, 60, 68
1, 1450123, Note_off_c, 0, 65, 66
1, 1450137, Control_c, 0, 64, 74
1, 1450152, Control_c, 0, 64, 56
1, 1450165, Note_on_c, 0, 56, 94
1, 1450167, Control_c, 0, 64, 65
1, 1450169, Note_on_c, 0, 60, 99
1, 1450170, Note_on_c, 0, 65, 78
1, 1450181, Note_on_c, 0, 41, 91
1, 1450181, Note_on_c, 0, 53, 94
1, 1450181, Control_c, 0, 64, 108
1, 1450193, Note_off_c, 0, 65, 66
1, 1450196, Control_c, 0, 64, 127
1, 1450220, Note_off_c, 0, 41, 64
1, 1450221, Note_off_c, 0, 60, 64
1, 1450228, Note_off_c, 0, 56, 60
1, 1450266, Note_off_c, 0, 53, 58
1, 1450333, Note_on_c, 0, 65, 2
1, 1450368, Note_on_c, 0, 53, 85
1, 1450374, Control_c, 0, 64, 76
1, 1450375, Note_off_c, 0, 65, 0
1, 1450375, Note_on_c, 0, 65, 29
1, 1450378, Note_on_c, 0, 56, 70
1, 1450381, Note_on_c, 0, 41, 65
1, 1450382, Note_on_c, 0, 60, 79
1, 1450389, Control_c, 0, 64, 55
1, 1450398, Note_off_c, 0, 41, 69
1, 1450402, Note_off_c, 0, 53, 64
1, 1450403, Note_off_c, 0, 60, 66
1, 1450404, Control_c, 0, 64, 47
1, 1450415, Note_off_c, 0, 56, 64
1, 1450418, Control_c, 0, 64, 60
1, 1450428, Note_off_c, 0, 65, 62
1, 1450433, Control_c, 0, 64, 81
1, 1450448, Control_c, 0, 64, 127
1, 1450479, Note_on_c, 0, 54, 97
1, 1450481, Note_on_c, 0, 49, 97
1, 1450482, Note_on_c, 0, 66, 102
1, 1450487, Note_on_c, 0, 46, 86
1, 1450487, Note_on_c, 0, 61, 94
1, 1450489, Note_on_c, 0, 58, 98
1, 1450532, Note_off_c, 0, 58, 63
1, 1450539, Note_off_c, 0, 61, 65
1, 1450562, Note_off_c, 0, 66, 66
1, 1450604, Control_c, 0, 64, 84
1, 1450619, Control_c, 0, 64, 62
1, 1450634, Control_c, 0, 64, 38
1, 1450649, Control_c, 0, 64, 0
1, 1450804, Note_on_c, 0, 78, 87
1, 1450854, Note_off_c, 0, 78, 52
1, 1450878, Note_on_c, 0, 82, 81
1, 1450931, Note_off_c, 0, 82, 63
1, 1450960, Note_on_c, 0, 85, 88
1, 1451004, Note_off_c, 0, 85, 62
1, 1451023, Note_on_c, 0, 83, 84
1, 1451046, Note_off_c, 0, 54, 64
1, 1451054, Note_off_c, 0, 46, 61
1, 1451058, Note_off_c, 0, 49, 63
1, 1451060, Note_off_c, 0, 83, 67
1, 1451098, Note_on_c, 0, 82, 82
1, 1451158, Note_on_c, 0, 80, 83
1, 1451182, Note_off_c, 0, 82, 57
1, 1451222, Note_on_c, 0, 78, 82
1, 1451227, Note_off_c, 0, 80, 64
1, 1451263, Control_c, 0, 67, 48
1, 1451278, Control_c, 0, 67, 63
1, 1451281, Note_off_c, 0, 78, 63
1, 1451301, Note_on_c, 0, 77, 73
1, 1451308, Control_c, 0, 67, 65
1, 1451323, Control_c, 0, 67, 69
1, 1451338, Control_c, 0, 67, 83
1, 1451343, Note_off_c, 0, 77, 64
1, 1451353, Control_c, 0, 67, 90
1, 1451368, Control_c, 0, 67, 85
1, 1451371, Note_on_c, 0, 75, 73
1, 1451382, Control_c, 0, 67, 84
1, 1451397, Control_c, 0, 67, 86
1, 1451412, Control_c, 0, 67, 93
1, 1451427, Control_c, 0, 67, 99
1, 1451430, Note_off_c, 0, 75, 61
1, 1451439, Note_on_c, 0, 73, 73
1, 1451442, Control_c, 0, 67, 114
1, 1451457, Control_c, 0, 67, 127
1, 1451498, Note_off_c, 0, 73, 62
1, 1451508, Note_on_c, 0, 71, 71
1, 1451552, Note_off_c, 0, 71, 59
1, 1451579, Note_on_c, 0, 70, 69
1, 1451630, Note_off_c, 0, 70, 55
1, 1451651, Note_on_c, 0, 68, 65
1, 1451705, Note_off_c, 0, 68, 63
1, 1451730, Note_on_c, 0, 66, 79
1, 1451738, Control_c, 0, 64, 28
1, 1451751, Note_off_c, 0, 66, 69
1, 1451752, Control_c, 0, 64, 47
1, 1451767, Control_c, 0, 64, 58
1, 1451782, Control_c, 0, 64, 61
1, 1451797, Note_on_c, 0, 68, 80
1, 1451797, Control_c, 0, 64, 62
1, 1451812, Control_c, 0, 64, 63
1, 1451827, Control_c, 0, 64, 63
1, 1451842, Control_c, 0, 64, 64
1, 1451860, Note_off_c, 0, 68, 58
1, 1451871, Control_c, 0, 64, 64
1, 1451881, Note_on_c, 0, 65, 82
1, 1451901, Control_c, 0, 64, 63
1, 1451916, Control_c, 0, 64, 55
1, 1451931, Control_c, 0, 64, 28
1, 1451945, Control_c, 0, 64, 0
1, 1451946, Note_on_c, 0, 54, 77
1, 1451949, Note_off_c, 0, 65, 38
1, 1451949, Note_on_c, 0, 66, 87
1, 1452011, Note_on_c, 0, 58, 81
1, 1452015, Note_off_c, 0, 54, 64
1, 1452017, Note_off_c, 0, 66, 64
1, 1452025, Note_on_c, 0, 70, 78
1, 1452056, Note_on_c, 0, 61, 80
1, 1452056, Control_c, 0, 64, 28
1, 1452071, Note_off_c, 0, 58, 64
1, 1452071, Control_c, 0, 64, 0
1, 1452080, Note_on_c, 0, 73, 85
1, 1452086, Note_off_c, 0, 70, 65
1, 1452101, Note_off_c, 0, 61, 67
1, 1452126, Note_on_c, 0, 59, 78
1, 1452145, Note_on_c, 0, 71, 78
1, 1452158, Note_off_c, 0, 73, 63
1, 1452184, Note_off_c, 0, 71, 63
1, 1452189, Note_off_c, 0, 59, 60
1, 1452202, Note_on_c, 0, 58, 74
1, 1452217, Note_on_c, 0, 70, 77
1, 1452277, Note_off_c, 0, 58, 63
1, 1452280, Note_on_c, 0, 56, 73
1, 1452289, Note_off_c, 0, 70, 63
1, 1452294, Note_on_c, 0, 68, 74
1, 1452323, Note_on_c, 0, 54, 64
1, 1452351, Note_off_c, 0, 56, 63
1, 1452351, Note_off_c, 0, 68, 62
1, 1452353, Note_on_c, 0, 66, 76
1, 1452357, Note_off_c, 0, 54, 64
1, 1452396, Note_on_c, 0, 53, 71
1, 1452402, Note_off_c, 0, 66, 63
1, 1452406, Note_on_c, 0, 67, 20
1, 1452422, Note_on_c, 0, 65, 67
1, 1452429, Note_off_c, 0, 53, 58
1, 1452445, Note_off_c, 0, 67, 30
1, 1452459, Note_off_c, 0, 65, 58
1, 1452482, Note_on_c, 0, 51, 65
1, 1452509, Note_on_c, 0, 64, 44
1, 1452544, Note_off_c, 0, 51, 61
1, 1452544, Note_off_c, 0, 64, 50
1, 1452550, Note_on_c, 0, 49, 68
1, 1452583, Note_off_c, 0, 49, 65
1, 1452592, Note_on_c, 0, 62, 40
1, 1452623, Note_on_c, 0, 59, 70
1, 1452623, Note_off_c, 0, 62, 55
1, 1452630, Note_on_c, 0, 47, 52
1, 1452634, Control_c, 0, 67, 110
1, 1452649, Control_c, 0, 67, 78
1, 1452659, Note_off_c, 0, 47, 57
1, 1452664, Control_c, 0, 67, 57
1, 1452679, Control_c, 0, 67, 42
1, 1452693, Note_on_c, 0, 46, 65
1, 1452694, Control_c, 0, 67, 0
1, 1452763, Note_on_c, 0, 56, 77
1, 1452763, Note_off_c, 0, 59, 54
1, 1452775, Note_on_c, 0, 44, 63
1, 1452808, Note_off_c, 0, 46, 63
1, 1452811, Note_on_c, 0, 42, 68
1, 1452814, Note_off_c, 0, 44, 65
1, 1452822, Note_on_c, 0, 54, 70
1, 1452830, Note_off_c, 0, 56, 62
1, 1452835, Note_off_c, 0, 42, 66
1, 1452851, Note_off_c, 0, 54, 66
1, 1452891, Note_on_c, 0, 54, 77
1, 1452896, Note_on_c, 0, 49, 81
1, 1452899, Note_on_c, 0, 46, 72
1, 1452911, Note_on_c, 0, 34, 67
1, 1452919, Note_off_c, 0, 54, 67
1, 1452921, Note_off_c, 0, 49, 66
1, 1452925, Note_off_c, 0, 46, 65
1, 1452939, Note_off_c, 0, 34, 60
1, 1453083, Note_on_c, 0, 58, 76
1, 1453091, Note_on_c, 0, 54, 72
1, 1453101, Note_on_c, 0, 49, 69
1, 1453117, Control_c, 0, 64, 34
1, 1453132, Control_c, 0, 64, 55
1, 1453147, Control_c, 0, 64, 67
1, 1453156, Poly_aftertouch_c, 0, 34, 127
1, 1453162, Control_c, 0, 64, 75
1, 1453177, Control_c, 0, 64, 78
1, 1453179, Poly_aftertouch_c, 0, 34, 0
1, 1453190, Note_off_c, 0, 49, 35
1, 1453191, Control_c, 0, 64, 79
1, 1453206, Control_c, 0, 64, 80
1, 1453221, Control_c, 0, 64, 85
1, 1453222, Note_off_c, 0, 54, 56
1, 1453236, Control_c, 0, 64, 95
1, 1453246, Note_off_c, 0, 58, 64
1, 1453250, Control_c, 0, 64, 121
1, 1453252, Note_on_c, 0, 34, 79
1, 1453252, Note_on_c, 0, 46, 73
1, 1453265, Control_c, 0, 64, 127
1, 1453369, Control_c, 0, 64, 90
1, 1453384, Control_c, 0, 64, 64
1, 1453398, Control_c, 0, 64, 48
1, 1453403, Note_on_c, 0, 68, 70
1, 1453409, Note_on_c, 0, 66, 74
1, 1453411, Note_on_c, 0, 58, 70
1, 1453413, Control_c, 0, 64, 59
1, 1453415, Note_on_c, 0, 61, 65
1, 1453428, Control_c, 0, 64, 73
1, 1453442, Control_c, 0, 64, 127
1, 1453453, Note_off_c, 0, 34, 62
1, 1453456, Note_off_c, 0, 46, 59
1, 1453476, Note_off_c, 0, 58, 58
1, 1453487, Note_off_c, 0, 66, 60
1, 1453506, Note_off_c, 0, 61, 63
1, 1453530, Note_off_c, 0, 68, 63
1, 1453562, Note_on_c, 0, 46, 86
1, 1453566, Note_on_c, 0, 34, 86
1, 1453658, Note_off_c, 0, 34, 59
1, 1453671, Note_off_c, 0, 46, 58
1, 1453726, Note_on_c, 0, 70, 85
1, 1453728, Note_on_c, 0, 61, 79
1, 1453740, Note_on_c, 0, 34, 81
1, 1453741, Note_on_c, 0, 46, 80
1, 1453746, Note_on_c, 0, 68, 59
1, 1453752, Note_off_c, 0, 61, 69
1, 1453773, Note_off_c, 0, 68, 69
1, 1453782, Note_on_c, 0, 71, 21
1, 1453784, Note_off_c, 0, 70, 63
1, 1453791, Note_off_c, 0, 46, 61
1, 1453799, Note_off_c, 0, 34, 62
1, 1453825, Note_off_c, 0, 71, 39
1, 1453866, Control_c, 0, 64, 98
1, 1453880, Control_c, 0, 64, 94
1, 1453887, Note_on_c, 0, 34, 87
1, 1453887, Note_on_c, 0, 46, 86
1, 1453889, Note_on_c, 0, 78, 86
1, 1453889, Note_on_c, 0, 70, 85
1, 1453893, Note_on_c, 0, 73, 80
1, 1453895, Control_c, 0, 64, 118
1, 1453910, Control_c, 0, 64, 127
1, 1453918, Note_off_c, 0, 70, 65
1, 1453923, Note_off_c, 0, 73, 57
1, 1453947, Note_off_c, 0, 78, 58
1, 1453951, Note_off_c, 0, 46, 52
1, 1453959, Note_off_c, 0, 34, 60
1, 1454000, Control_c, 0, 64, 118
1, 1454014, Control_c, 0, 64, 114
1, 1454029, Control_c, 0, 64, 127
1, 1454032, Note_on_c, 0, 82, 83
1, 1454039, Note_on_c, 0, 34, 80
1, 1454040, Note_on_c, 0, 70, 81
1, 1454042, Note_on_c, 0, 46, 84
1, 1454054, Note_off_c, 0, 82, 67
1, 1454060, Note_off_c, 0, 70, 72
1, 1454065, Note_off_c, 0, 46, 69
1, 1454066, Note_off_c, 0, 34, 63
1, 1454263, Note_on_c, 0, 67, 87
1, 1454265, Note_on_c, 0, 48, 107
1, 1454266, Note_on_c, 0, 36, 95
1, 1454270, Note_on_c, 0, 58, 97
1, 1454273, Control_c, 0, 64, 82
1, 1454278, Note_on_c, 0, 64, 84
1, 1454288, Control_c, 0, 64, 55
1, 1454298, Note_on_c, 0, 39, 59
1, 1454303, Control_c, 0, 64, 0
1, 1454324, Note_off_c, 0, 39, 59
1, 1454330, Note_off_c, 0, 58, 62
1, 1454334, Note_off_c, 0, 64, 64
1, 1454347, Control_c, 0, 64, 48
1, 1454357, Note_off_c, 0, 67, 65
1, 1454362, Control_c, 0, 64, 72
1, 1454377, Control_c, 0, 64, 127
1, 1454470, Note_on_c, 0, 64, 94
1, 1454473, Note_on_c, 0, 67, 76
1, 1454480, Control_c, 0, 64, 82
1, 1454486, Note_on_c, 0, 69, 67
1, 1454491, Note_on_c, 0, 71, 55
1, 1454493, Note_on_c, 0, 70, 66
1, 1454495, Control_c, 0, 64, 67
1, 1454510, Note_off_c, 0, 69, 38
1, 1454510, Control_c, 0, 64, 67
1, 1454524, Note_off_c, 0, 48, 60
1, 1454526, Control_c, 0, 64, 86
1, 1454527, Note_off_c, 0, 71, 53
1, 1454537, Note_off_c, 0, 36, 60
1, 1454541, Control_c, 0, 64, 127
1, 1454576, Note_off_c, 0, 64, 63
1, 1454588, Note_off_c, 0, 67, 64
1, 1454619, Note_off_c, 0, 70, 40
1, 1454621, Note_on_c, 0, 48, 103
1, 1454625, Note_on_c, 0, 36, 90
1, 1454644, Control_c, 0, 64, 88
1, 1454659, Control_c, 0, 64, 79
1, 1454674, Control_c, 0, 64, 84
1, 1454688, Control_c, 0, 64, 127
1, 1454763, Control_c, 0, 64, 107
1, 1454778, Control_c, 0, 64, 68
1, 1454790, Note_on_c, 0, 76, 96
1, 1454792, Note_on_c, 0, 70, 88
1, 1454793, Control_c, 0, 64, 42
1, 1454795, Note_on_c, 0, 67, 86
1, 1454808, Control_c, 0, 64, 35
1, 1454822, Control_c, 0, 64, 56
1, 1454837, Control_c, 0, 64, 87
1, 1454852, Control_c, 0, 64, 127
1, 1454864, Note_off_c, 0, 67, 62
1, 1454877, Note_off_c, 0, 36, 59
1, 1454880, Note_off_c, 0, 70, 64
1, 1454888, Note_off_c, 0, 48, 61
1, 1454909, Note_off_c, 0, 76, 66
1, 1454971, Note_on_c, 0, 48, 99
1, 1454974, Note_on_c, 0, 36, 83
1, 1455123, Note_off_c, 0, 36, 57
1, 1455126, Note_off_c, 0, 48, 58
1, 1455185, Control_c, 0, 64, 121
1, 1455188, Note_on_c, 0, 79, 93
1, 1455192, Note_on_c, 0, 76, 89
1, 1455200, Note_on_c, 0, 48, 98
1, 1455200, Control_c, 0, 64, 69
1, 1455210, Note_on_c, 0, 36, 83
1, 1455214, Control_c, 0, 64, 38
1, 1455229, Control_c, 0, 64, 0
1, 1455244, Control_c, 0, 64, 32
1, 1455259, Control_c, 0, 64, 57
1, 1455274, Control_c, 0, 64, 79
1, 1455288, Control_c, 0, 64, 127
1, 1455363, Note_off_c, 0, 79, 61
1, 1455365, Note_off_c, 0, 76, 62
1, 1455368, Note_off_c, 0, 36, 59
1, 1455370, Note_off_c, 0, 48, 62
1, 1455431, Note_on_c, 0, 48, 89
1, 1455431, Note_on_c, 0, 82, 97
1, 1455434, Note_on_c, 0, 76, 95
1, 1455434, Note_on_c, 0, 79, 92
1, 1455439, Note_on_c, 0, 36, 78
1, 1455457, Note_on_c, 0, 88, 64
1, 1455484, Note_off_c, 0, 88, 55
1, 1455544, Note_off_c, 0, 79, 60
1, 1455552, Note_off_c, 0, 76, 60
1, 1455552, Note_off_c, 0, 48, 54
1, 1455559, Note_off_c, 0, 36, 53
1, 1455573, Note_off_c, 0, 82, 59
1, 1455630, Note_on_c, 0, 48, 93
1, 1455633, Note_on_c, 0, 88, 100
1, 1455633, Note_on_c, 0, 36, 68
1, 1455635, Note_on_c, 0, 76, 97
1, 1455638, Note_on_c, 0, 82, 82
1, 1455641, Note_on_c, 0, 79, 72
1, 1455660, Note_off_c, 0, 76, 65
1, 1455662, Note_off_c, 0, 79, 71
1, 1455663, Note_off_c, 0, 36, 63
1, 1455669, Note_off_c, 0, 82, 60
1, 1455670, Note_off_c, 0, 48, 62
1, 1455682, Note_off_c, 0, 88, 66
1, 1455793, Note_on_c, 0, 80, 26
1, 1455826, Poly_aftertouch_c, 0, 44, 127
1, 1455831, Note_off_c, 0, 80, 43
1, 1455866, Poly_aftertouch_c, 0, 44, 0
1, 1455902, Note_on_c, 0, 41, 90
1, 1455902, Note_on_c, 0, 80, 87
1, 1455905, Note_on_c, 0, 77, 95
1, 1455907, Note_on_c, 0, 89, 96
1, 1455908, Note_on_c, 0, 84, 85
1, 1455919, Control_c, 0, 64, 87
1, 1455934, Control_c, 0, 64, 61
1, 1455949, Control_c, 0, 64, 0
1, 1456092, Note_on_c, 0, 44, 64
1, 1456097, Control_c, 0, 64, 49
1, 1456113, Control_c, 0, 64, 69
1, 1456128, Control_c, 0, 64, 98
1, 1456142, Control_c, 0, 64, 127
1, 1456149, Note_off_c, 0, 89, 54
1, 1456158, Note_off_c, 0, 77, 59
1, 1456192, Note_on_c, 0, 48, 76
1, 1456232, Note_off_c, 0, 41, 59
1, 1456235, Note_off_c, 0, 84, 62
1, 1456239, Note_off_c, 0, 80, 64
1, 1456288, Note_on_c, 0, 53, 70
1, 1456311, Note_off_c, 0, 44, 56
1, 1456340, Note_off_c, 0, 48, 57
1, 1456358, Note_on_c, 0, 41, 81
1, 1456384, Note_off_c, 0, 53, 58
1, 1456458, Note_on_c, 0, 44, 73
1, 1456569, Note_off_c, 0, 41, 60
1, 1456584, Note_on_c, 0, 48, 69
1, 1456645, Note_on_c, 0, 89, 85
1, 1456647, Note_on_c, 0, 53, 74
1, 1456653, Note_on_c, 0, 77, 67
1, 1456665, Note_off_c, 0, 44, 61
1, 1456668, Note_off_c, 0, 89, 66
1, 1456669, Note_off_c, 0, 77, 66
1, 1456682, Note_off_c, 0, 48, 62
1, 1456709, Note_on_c, 0, 41, 88
1, 1456712, Control_c, 0, 64, 105
1, 1456725, Note_on_c, 0, 92, 104
1, 1456727, Control_c, 0, 64, 70
1, 1456730, Note_on_c, 0, 80, 95
1, 1456731, Note_off_c, 0, 53, 59
1, 1456742, Control_c, 0, 64, 51
1, 1456757, Control_c, 0, 64, 45
1, 1456772, Control_c, 0, 64, 52
1, 1456786, Control_c, 0, 64, 66
1, 1456801, Control_c, 0, 64, 83
1, 1456816, Control_c, 0, 64, 127
1, 1456826, Note_on_c, 0, 44, 74
1, 1456849, Note_off_c, 0, 80, 60
1, 1456865, Note_off_c, 0, 41, 61
1, 1456882, Note_off_c, 0, 92, 61
1, 1456921, Note_on_c, 0, 48, 69
1, 1456978, Note_on_c, 0, 53, 72
1, 1456995, Note_on_c, 0, 92, 85
1, 1457002, Note_on_c, 0, 80, 80
1, 1457004, Note_off_c, 0, 44, 62
1, 1457013, Note_off_c, 0, 48, 60
1, 1457015, Note_off_c, 0, 92, 69
1, 1457022, Note_off_c, 0, 80, 71
1, 1457051, Note_on_c, 0, 41, 84
1, 1457055, Note_off_c, 0, 53, 56
1, 1457069, Control_c, 0, 64, 105
1, 1457076, Note_on_c, 0, 89, 94
1, 1457082, Note_on_c, 0, 77, 89
1, 1457084, Control_c, 0, 64, 69
1, 1457098, Control_c, 0, 64, 45
1, 1457113, Control_c, 0, 64, 44
1, 1457128, Control_c, 0, 64, 57
1, 1457129, Note_on_c, 0, 44, 69
1, 1457143, Control_c, 0, 64, 72
1, 1457157, Control_c, 0, 64, 127
1, 1457205, Note_off_c, 0, 41, 61
1, 1457228, Note_off_c, 0, 77, 62
1, 1457229, Note_on_c, 0, 48, 78
1, 1457232, Note_off_c, 0, 89, 61
1, 1457296, Note_off_c, 0, 44, 61
1, 1457323, Note_on_c, 0, 53, 73
1, 1457326, Note_on_c, 0, 89, 84
1, 1457331, Note_on_c, 0, 77, 79
1, 1457335, Note_off_c, 0, 48, 60
1, 1457345, Note_off_c, 0, 89, 72
1, 1457353, Note_off_c, 0, 77, 71
1, 1457387, Note_on_c, 0, 41, 89
1, 1457387, Control_c, 0, 64, 78
1, 1457401, Note_off_c, 0, 53, 58
1, 1457402, Control_c, 0, 64, 45
1, 1457410, Note_on_c, 0, 85, 94
1, 1457416, Note_on_c, 0, 73, 97
1, 1457416, Control_c, 0, 64, 0
1, 1457446, Control_c, 0, 64, 49
1, 1457461, Control_c, 0, 64, 69
1, 1457472, Note_on_c, 0, 44, 77
1, 1457476, Control_c, 0, 64, 97
1, 1457490, Control_c, 0, 64, 127
1, 1457516, Note_off_c, 0, 41, 58
1, 1457547, Note_off_c, 0, 73, 61
1, 1457561, Note_off_c, 0, 85, 61
1, 1457565, Note_on_c, 0, 49, 76
1, 1457565, Note_off_c, 0, 44, 63
1, 1457624, Note_off_c, 0, 49, 63
1, 1457642, Note_on_c, 0, 53, 74
1, 1457652, Note_on_c, 0, 73, 84
1, 1457655, Note_on_c, 0, 85, 82
1, 1457673, Note_off_c, 0, 73, 68
1, 1457673, Note_off_c, 0, 85, 73
1, 1457694, Note_off_c, 0, 53, 60
1, 1457698, Control_c, 0, 64, 89
1, 1457714, Control_c, 0, 64, 56
1, 1457723, Note_on_c, 0, 41, 85
1, 1457729, Control_c, 0, 64, 0
1, 1457732, Note_on_c, 0, 80, 96
1, 1457738, Note_on_c, 0, 68, 92
1, 1457759, Control_c, 0, 64, 41
1, 1457774, Control_c, 0, 64, 62
1, 1457788, Control_c, 0, 64, 83
1, 1457803, Control_c, 0, 64, 127
1, 1457812, Note_on_c, 0, 44, 75
1, 1457818, Note_off_c, 0, 41, 62
1, 1457869, Note_off_c, 0, 68, 56
1, 1457886, Note_off_c, 0, 80, 58
1, 1457890, Note_on_c, 0, 49, 71
1, 1457896, Note_off_c, 0, 44, 57
1, 1457967, Note_on_c, 0, 68, 84
1, 1457971, Note_on_c, 0, 53, 66
1, 1457971, Note_on_c, 0, 80, 82
1, 1457996, Note_off_c, 0, 49, 55
1, 1457997, Note_off_c, 0, 80, 71
1, 1458006, Note_off_c, 0, 68, 57
1, 1458012, Note_off_c, 0, 53, 60
1, 1458033, Control_c, 0, 64, 86
1, 1458034, Note_on_c, 0, 41, 88
1, 1458047, Control_c, 0, 64, 57
1, 1458049, Note_on_c, 0, 81, 97
1, 1458055, Note_on_c, 0, 69, 100
1, 1458062, Control_c, 0, 64, 0
1, 1458092, Control_c, 0, 64, 31
1, 1458107, Control_c, 0, 64, 61
1, 1458120, Note_off_c, 0, 69, 0
1, 1458121, Control_c, 0, 64, 127
1, 1458146, Note_on_c, 0, 48, 65
1, 1458158, Poly_aftertouch_c, 0, 69, 127
1, 1458173, Note_on_c, 0, 49, 4
1, 1458194, Poly_aftertouch_c, 0, 69, 0
1, 1458198, Note_off_c, 0, 81, 61
1, 1458215, Note_off_c, 0, 49, 42
1, 1458225, Note_on_c, 0, 51, 75
1, 1458244, Note_off_c, 0, 48, 56
1, 1458268, Note_off_c, 0, 41, 23
1, 1458285, Note_on_c, 0, 81, 91
1, 1458286, Note_on_c, 0, 69, 87
1, 1458291, Note_on_c, 0, 53, 74
1, 1458304, Note_off_c, 0, 81, 70
1, 1458310, Note_off_c, 0, 69, 64
1, 1458316, Note_off_c, 0, 51, 55
1, 1458317, Note_off_c, 0, 53, 67
1, 1458354, Note_on_c, 0, 41, 86
1, 1458368, Note_on_c, 0, 77, 98
1, 1458369, Note_on_c, 0, 65, 99
1, 1458413, Note_off_c, 0, 65, 67
1, 1458415, Note_off_c, 0, 77, 61
1, 1458443, Note_on_c, 0, 48, 74
1, 1458450, Note_off_c, 0, 41, 63
1, 1458503, Note_on_c, 0, 77, 28
1, 1458519, Note_on_c, 0, 51, 74
1, 1458535, Note_off_c, 0, 77, 56
1, 1458537, Note_off_c, 0, 48, 58
1, 1458582, Note_on_c, 0, 65, 80
1, 1458599, Note_on_c, 0, 53, 69
1, 1458600, Note_off_c, 0, 65, 72
1, 1458611, Note_off_c, 0, 51, 57
1, 1458676, Note_on_c, 0, 41, 90
1, 1458683, Note_on_c, 0, 70, 107
1, 1458689, Note_on_c, 0, 73, 90
1, 1458689, Note_on_c, 0, 82, 89
1, 1458689, Note_off_c, 0, 53, 41
1, 1458706, Note_on_c, 0, 77, 65
1, 1458767, Control_c, 0, 64, 82
1, 1458782, Control_c, 0, 64, 56
1, 1458784, Note_on_c, 0, 46, 69
1, 1458796, Control_c, 0, 64, 0
1, 1458856, Control_c, 0, 64, 34
1, 1458871, Control_c, 0, 64, 58
1, 1458874, Note_off_c, 0, 41, 64
1, 1458885, Note_on_c, 0, 49, 69
1, 1458885, Control_c, 0, 64, 73
1, 1458900, Control_c, 0, 64, 97
1, 1458901, Note_off_c, 0, 70, 60
1, 1458915, Control_c, 0, 64, 127
1, 1458938, Note_off_c, 0, 82, 58
1, 1458960, Note_on_c, 0, 53, 75
1, 1458961, Note_off_c, 0, 73, 60
1, 1458970, Note_off_c, 0, 77, 63
1, 1458989, Note_off_c, 0, 46, 59
1, 1459020, Note_off_c, 0, 49, 60
1, 1459026, Note_off_c, 0, 53, 59
1, 1459038, Note_on_c, 0, 41, 83
1, 1459131, Note_on_c, 0, 46, 74
1, 1459168, Note_off_c, 0, 41, 62
1, 1459239, Note_on_c, 0, 49, 69
1, 1459347, Note_on_c, 0, 82, 85
1, 1459352, Note_on_c, 0, 53, 70
1, 1459353, Note_on_c, 0, 94, 84
1, 1459374, Note_off_c, 0, 82, 61
1, 1459377, Note_off_c, 0, 94, 65
1, 1459393, Note_off_c, 0, 46, 57
1, 1459431, Note_on_c, 0, 97, 93
1, 1459432, Note_on_c, 0, 41, 88
1, 1459434, Control_c, 0, 64, 106
1, 1459442, Note_on_c, 0, 85, 90
1, 1459449, Control_c, 0, 64, 70
1, 1459463, Note_off_c, 0, 49, 34
1, 1459464, Control_c, 0, 64, 52
1, 1459476, Note_off_c, 0, 53, 48
1, 1459486, Control_c, 0, 64, 49
1, 1459501, Control_c, 0, 64, 59
1, 1459516, Control_c, 0, 64, 71
1, 1459531, Control_c, 0, 64, 105
1, 1459546, Control_c, 0, 64, 127
1, 1459549, Note_on_c, 0, 46, 78
1, 1459577, Note_off_c, 0, 85, 60
1, 1459613, Note_off_c, 0, 41, 61
1, 1459643, Note_off_c, 0, 97, 61
1, 1459649, Note_on_c, 0, 49, 71
1, 1459714, Note_on_c, 0, 85, 88
1, 1459716, Note_on_c, 0, 97, 96
1, 1459725, Note_on_c, 0, 53, 75
1, 1459727, Note_off_c, 0, 46, 59
1, 1459738, Control_c, 0, 64, 121
1, 1459738, Note_off_c, 0, 85, 66
1, 1459744, Note_off_c, 0, 49, 59
1, 1459750, Note_off_c, 0, 97, 63
1, 1459753, Control_c, 0, 64, 69
1, 1459768, Control_c, 0, 64, 55
1, 1459781, Note_off_c, 0, 53, 45
1, 1459783, Note_on_c, 0, 41, 87
1, 1459783, Control_c, 0, 64, 59
1, 1459793, Note_on_c, 0, 94, 98
1, 1459797, Note_on_c, 0, 82, 97
1, 1459798, Control_c, 0, 64, 70
1, 1459811, Control_c, 0, 64, 111
1, 1459826, Control_c, 0, 64, 127
1, 1459834, Note_on_c, 0, 92, 31
1, 1459865, Note_on_c, 0, 46, 68
1, 1459871, Note_off_c, 0, 92, 46
1, 1459905, Note_off_c, 0, 41, 63
1, 1459930, Note_off_c, 0, 82, 57
1, 1459947, Note_on_c, 0, 49, 76
1, 1459952, Note_off_c, 0, 94, 61
1, 1460004, Note_off_c, 0, 46, 60
1, 1460014, Note_on_c, 0, 94, 81
1, 1460020, Note_on_c, 0, 82, 83
1, 1460028, Note_on_c, 0, 53, 77
1, 1460033, Control_c, 0, 64, 111
1, 1460036, Note_off_c, 0, 94, 69
1, 1460038, Note_off_c, 0, 82, 73
1, 1460048, Control_c, 0, 64, 64
1, 1460055, Note_off_c, 0, 49, 63
1, 1460063, Control_c, 0, 64, 36
1, 1460075, Note_off_c, 0, 53, 60
1, 1460078, Control_c, 0, 64, 31
1, 1460090, Note_on_c, 0, 42, 89
1, 1460093, Note_on_c, 0, 90, 90
1, 1460093, Control_c, 0, 64, 52
1, 1460099, Note_on_c, 0, 78, 101
1, 1460108, Control_c, 0, 64, 72
1, 1460123, Control_c, 0, 64, 127
1, 1460151, Note_off_c, 0, 78, 58
1, 1460156, Note_off_c, 0, 90, 63
1, 1460175, Note_on_c, 0, 46, 73
1, 1460200, Note_on_c, 0, 90, 61
1, 1460204, Note_off_c, 0, 42, 62
1, 1460248, Note_off_c, 0, 90, 60
1, 1460251, Note_on_c, 0, 49, 73
1, 1460304, Note_off_c, 0, 46, 54
1, 1460329, Note_off_c, 0, 49, 54
1, 1460341, Note_on_c, 0, 54, 70
1, 1460341, Note_on_c, 0, 90, 74
1, 1460343, Note_on_c, 0, 78, 77
1, 1460361, Note_off_c, 0, 90, 71
1, 1460367, Note_off_c, 0, 54, 64
1, 1460367, Note_off_c, 0, 78, 67
1, 1460367, Control_c, 0, 64, 72
1, 1460382, Control_c, 0, 64, 44
1, 1460397, Control_c, 0, 64, 0
1, 1460400, Note_on_c, 0, 42, 84
1, 1460414, Note_on_c, 0, 89, 96
1, 1460421, Note_on_c, 0, 77, 93
1, 1460427, Control_c, 0, 64, 45
1, 1460441, Control_c, 0, 64, 66
1, 1460456, Control_c, 0, 64, 91
1, 1460464, Note_off_c, 0, 77, 66
1, 1460471, Control_c, 0, 64, 127
1, 1460481, Note_on_c, 0, 46, 71
1, 1460506, Note_off_c, 0, 42, 60
1, 1460549, Note_on_c, 0, 77, 23
1, 1460558, Note_on_c, 0, 49, 71
1, 1460561, Note_off_c, 0, 89, 60
1, 1460582, Note_off_c, 0, 77, 55
1, 1460635, Note_on_c, 0, 54, 71
1, 1460638, Note_off_c, 0, 46, 51
1, 1460648, Note_on_c, 0, 89, 72
1, 1460652, Note_on_c, 0, 77, 74
1, 1460652, Note_on_c, 0, 91, 76
1, 1460668, Note_off_c, 0, 54, 62
1, 1460671, Note_off_c, 0, 49, 56
1, 1460672, Note_off_c, 0, 77, 72
1, 1460674, Note_off_c, 0, 89, 67
1, 1460675, Note_off_c, 0, 91, 72
1, 1460701, Note_on_c, 0, 42, 86
1, 1460708, Control_c, 0, 64, 70
1, 1460722, Note_on_c, 0, 88, 99
1, 1460723, Note_on_c, 0, 43, 82
1, 1460723, Control_c, 0, 64, 37
1, 1460724, Note_on_c, 0, 76, 96
1, 1460728, Note_off_c, 0, 42, 68
1, 1460738, Control_c, 0, 64, 0
1, 1460752, Control_c, 0, 64, 30
1, 1460767, Control_c, 0, 64, 61
1, 1460769, Note_off_c, 0, 76, 67
1, 1460782, Control_c, 0, 64, 97
1, 1460797, Control_c, 0, 64, 127
1, 1460799, Note_on_c, 0, 46, 68
1, 1460853, Note_off_c, 0, 43, 59
1, 1460880, Note_off_c, 0, 88, 62
1, 1460892, Note_on_c, 0, 48, 67
1, 1460955, Note_on_c, 0, 88, 92
1, 1460957, Note_on_c, 0, 76, 80
1, 1460966, Note_on_c, 0, 55, 81
1, 1460975, Note_off_c, 0, 76, 72
1, 1460992, Note_off_c, 0, 46, 38
1, 1460997, Note_off_c, 0, 88, 69
1, 1461008, Note_off_c, 0, 48, 60
1, 1461033, Note_on_c, 0, 43, 93
1, 1461033, Note_off_c, 0, 55, 58
1, 1461067, Note_on_c, 0, 96, 103
1, 1461070, Note_on_c, 0, 84, 99
1, 1461080, Note_on_c, 0, 94, 68
1, 1461080, Note_off_c, 0, 94, 127
1, 1461090, Note_on_c, 0, 95, 53
1, 1461097, Poly_aftertouch_c, 0, 94, 0
1, 1461108, Note_off_c, 0, 84, 65
1, 1461112, Note_on_c, 0, 46, 75
1, 1461115, Note_off_c, 0, 95, 40
1, 1461121, Note_off_c, 0, 96, 63
1, 1461160, Note_off_c, 0, 43, 60
1, 1461192, Note_on_c, 0, 48, 78
1, 1461229, Note_on_c, 0, 96, 13
1, 1461242, Note_off_c, 0, 46, 59
1, 1461266, Note_off_c, 0, 96, 39
1, 1461294, Note_off_c, 0, 48, 63
1, 1461299, Note_on_c, 0, 55, 85
1, 1461306, Note_on_c, 0, 84, 85
1, 1461333, Note_off_c, 0, 84, 63
1, 1461469, Note_on_c, 0, 80, 70
1, 1461472, Note_on_c, 0, 44, 71
1, 1461473, Note_on_c, 0, 77, 74
1, 1461475, Note_on_c, 0, 84, 58
1, 1461476, Note_on_c, 0, 89, 83
1, 1461532, Control_c, 0, 64, 79
1, 1461547, Control_c, 0, 64, 56
1, 1461550, Note_off_c, 0, 55, 58
1, 1461562, Control_c, 0, 64, 0
1, 1461632, Note_on_c, 0, 48, 76
1, 1461695, Control_c, 0, 64, 46
1, 1461711, Control_c, 0, 64, 61
1, 1461715, Note_off_c, 0, 44, 59
1, 1461733, Control_c, 0, 64, 73
1, 1461734, Note_on_c, 0, 53, 63
1, 1461736, Note_off_c, 0, 77, 58
1, 1461740, Note_off_c, 0, 89, 44
1, 1461748, Control_c, 0, 64, 108
1, 1461762, Control_c, 0, 64, 127
1, 1461774, Note_off_c, 0, 48, 61
1, 1461802, Note_on_c, 0, 56, 67
1, 1461807, Note_off_c, 0, 80, 63
1, 1461809, Note_off_c, 0, 84, 65
1, 1461815, Note_off_c, 0, 53, 62
1, 1461828, Note_off_c, 0, 56, 66
1, 1461848, Note_on_c, 0, 44, 83
1, 1461944, Note_on_c, 0, 48, 72
1, 1461978, Note_off_c, 0, 44, 57
1, 1462028, Note_on_c, 0, 53, 69
1, 1462044, Note_off_c, 0, 48, 62
1, 1462083, Note_on_c, 0, 77, 65
1, 1462091, Note_on_c, 0, 91, 52
1, 1462101, Note_off_c, 0, 77, 67
1, 1462102, Note_on_c, 0, 89, 47
1, 1462106, Note_on_c, 0, 56, 66
1, 1462113, Note_off_c, 0, 53, 59
1, 1462114, Note_off_c, 0, 91, 59
1, 1462132, Control_c, 0, 64, 80
1, 1462135, Note_off_c, 0, 89, 44
1, 1462140, Note_off_c, 0, 56, 60
1, 1462147, Control_c, 0, 64, 61
1, 1462160, Note_on_c, 0, 44, 85
1, 1462162, Note_on_c, 0, 92, 98
1, 1462162, Control_c, 0, 64, 50
1, 1462170, Note_on_c, 0, 80, 86
1, 1462177, Control_c, 0, 64, 55
1, 1462192, Control_c, 0, 64, 67
1, 1462206, Control_c, 0, 64, 88
1, 1462221, Control_c, 0, 64, 127
1, 1462257, Note_on_c, 0, 48, 74
1, 1462280, Note_off_c, 0, 80, 0
1, 1462287, Note_off_c, 0, 44, 58
1, 1462313, Note_off_c, 0, 92, 64
1, 1462317, Poly_aftertouch_c, 0, 80, 127
1, 1462343, Note_on_c, 0, 53, 67
1, 1462349, Poly_aftertouch_c, 0, 80, 0
1, 1462364, Note_off_c, 0, 48, 61
1, 1462403, Note_on_c, 0, 92, 77
1, 1462409, Note_on_c, 0, 56, 76
1, 1462412, Note_on_c, 0, 80, 72
1, 1462418, Note_off_c, 0, 92, 68
1, 1462434, Note_off_c, 0, 80, 71
1, 1462437, Note_off_c, 0, 53, 61
1, 1462439, Note_off_c, 0, 56, 64
1, 1462459, Control_c, 0, 64, 96
1, 1462471, Note_on_c, 0, 44, 87
1, 1462480, Control_c, 0, 64, 67
1, 1462487, Note_on_c, 0, 89, 91
1, 1462495, Control_c, 0, 64, 51
1, 1462500, Note_on_c, 0, 77, 85
1, 1462511, Control_c, 0, 64, 52
1, 1462526, Control_c, 0, 64, 64
1, 1462541, Control_c, 0, 64, 85
1, 1462550, Note_off_c, 0, 77, 59
1, 1462555, Control_c, 0, 64, 127
1, 1462582, Note_on_c, 0, 48, 75
1, 1462615, Note_on_c, 0, 77, 14
1, 1462629, Note_off_c, 0, 44, 54
1, 1462629, Note_off_c, 0, 89, 60
1, 1462657, Note_off_c, 0, 77, 54
1, 1462681, Note_on_c, 0, 53, 64
1, 1462695, Note_off_c, 0, 48, 59
1, 1462713, Note_on_c, 0, 89, 70
1, 1462724, Note_on_c, 0, 77, 80
1, 1462740, Note_off_c, 0, 89, 65
1, 1462740, Note_on_c, 0, 56, 65
1, 1462743, Note_off_c, 0, 77, 73
1, 1462761, Note_off_c, 0, 53, 60
1, 1462776, Note_off_c, 0, 56, 56
1, 1462778, Control_c, 0, 64, 89
1, 1462793, Control_c, 0, 64, 61
1, 1462796, Note_on_c, 0, 85, 97
1, 1462799, Note_on_c, 0, 44, 80
1, 1462808, Control_c, 0, 64, 0
1, 1462809, Note_on_c, 0, 73, 90
1, 1462837, Control_c, 0, 64, 34
1, 1462852, Control_c, 0, 64, 57
1, 1462867, Control_c, 0, 64, 77
1, 1462882, Control_c, 0, 64, 127
1, 1462909, Note_on_c, 0, 49, 71
1, 1462942, Note_off_c, 0, 73, 60
1, 1462944, Note_off_c, 0, 44, 61
1, 1462951, Note_off_c, 0, 85, 61
1, 1462992, Note_on_c, 0, 53, 61
1, 1463036, Note_on_c, 0, 73, 86
1, 1463041, Note_on_c, 0, 85, 84
1, 1463050, Note_off_c, 0, 49, 60
1, 1463057, Note_off_c, 0, 73, 67
1, 1463059, Note_on_c, 0, 56, 70
1, 1463060, Note_off_c, 0, 85, 73
1, 1463080, Note_off_c, 0, 53, 61
1, 1463095, Note_off_c, 0, 56, 57
1, 1463112, Note_on_c, 0, 44, 86
1, 1463118, Control_c, 0, 64, 74
1, 1463124, Note_on_c, 0, 80, 97
1, 1463130, Note_on_c, 0, 68, 91
1, 1463133, Control_c, 0, 64, 57
1, 1463148, Control_c, 0, 64, 50
1, 1463163, Control_c, 0, 64, 56
1, 1463178, Control_c, 0, 64, 67
1, 1463193, Control_c, 0, 64, 91
1, 1463199, Note_on_c, 0, 49, 69
1, 1463208, Control_c, 0, 64, 127
1, 1463251, Note_off_c, 0, 44, 61
1, 1463270, Note_off_c, 0, 68, 59
1, 1463281, Note_off_c, 0, 80, 58
1, 1463294, Note_on_c, 0, 53, 66
1, 1463357, Note_on_c, 0, 80, 82
1, 1463363, Note_on_c, 0, 68, 75
1, 1463376, Note_off_c, 0, 49, 59
1, 1463378, Note_on_c, 0, 56, 75
1, 1463381, Note_off_c, 0, 68, 73
1, 1463385, Note_off_c, 0, 80, 60
1, 1463406, Note_off_c, 0, 53, 58
1, 1463410, Note_off_c, 0, 56, 65
1, 1463438, Control_c, 0, 64, 81
1, 1463446, Note_on_c, 0, 44, 86
1, 1463452, Control_c, 0, 64, 52
1, 1463455, Note_on_c, 0, 84, 95
1, 1463461, Note_on_c, 0, 72, 92
1, 1463467, Control_c, 0, 64, 0
1, 1463486, Note_on_c, 0, 82, 48
1, 1463497, Control_c, 0, 64, 33
1, 1463509, Note_off_c, 0, 82, 56
1, 1463512, Control_c, 0, 64, 63
1, 1463527, Control_c, 0, 64, 127
1, 1463554, Note_on_c, 0, 51, 73
1, 1463568, Note_off_c, 0, 72, 0
1, 1463584, Note_off_c, 0, 44, 58
1, 1463604, Note_on_c, 0, 72, 7
1, 1463626, Note_off_c, 0, 84, 55
1, 1463641, Note_on_c, 0, 54, 74
1, 1463646, Note_off_c, 0, 72, 45
1, 1463673, Note_off_c, 0, 51, 54
1, 1463711, Note_on_c, 0, 72, 93
1, 1463714, Note_on_c, 0, 84, 75
1, 1463715, Note_on_c, 0, 56, 77
1, 1463727, Note_off_c, 0, 54, 60
1, 1463733, Note_off_c, 0, 84, 71
1, 1463739, Note_off_c, 0, 72, 65
1, 1463745, Note_off_c, 0, 56, 64
1, 1463789, Note_on_c, 0, 44, 81
1, 1463807, Note_on_c, 0, 80, 86
1, 1463809, Note_on_c, 0, 68, 91
1, 1463854, Note_off_c, 0, 68, 59
1, 1463859, Note_on_c, 0, 51, 77
1, 1463866, Note_off_c, 0, 80, 54
1, 1463894, Note_off_c, 0, 44, 61
1, 1463916, Note_on_c, 0, 80, 30
1, 1463941, Note_on_c, 0, 54, 69
1, 1463941, Note_off_c, 0, 51, 62
1, 1463947, Note_off_c, 0, 80, 48
1, 1464028, Note_on_c, 0, 80, 68
1, 1464029, Note_on_c, 0, 68, 60
1, 1464030, Note_off_c, 0, 54, 59
1, 1464040, Note_on_c, 0, 56, 68
1, 1464051, Note_off_c, 0, 80, 70
1, 1464058, Note_off_c, 0, 68, 64
1, 1464079, Note_off_c, 0, 56, 62
1, 1464135, Note_on_c, 0, 44, 90
1, 1464137, Note_on_c, 0, 73, 93
1, 1464137, Note_on_c, 0, 85, 97
1, 1464143, Note_on_c, 0, 80, 78
1, 1464147, Note_on_c, 0, 77, 71
1, 1464200, Control_c, 0, 64, 75
1, 1464215, Control_c, 0, 64, 53
1, 1464230, Control_c, 0, 64, 0
1, 1464271, Note_on_c, 0, 49, 70
1, 1464304, Control_c, 0, 64, 30
1, 1464310, Note_on_c, 0, 50, 52
1, 1464319, Control_c, 0, 64, 52
1, 1464333, Control_c, 0, 64, 70
1, 1464348, Control_c, 0, 64, 87
1, 1464355, Note_off_c, 0, 50, 57
1, 1464356, Note_off_c, 0, 73, 61
1, 1464363, Control_c, 0, 64, 127
1, 1464364, Note_on_c, 0, 53, 63
1, 1464368, Note_off_c, 0, 49, 55
1, 1464382, Note_off_c, 0, 85, 59
1, 1464406, Note_off_c, 0, 44, 61
1, 1464419, Note_off_c, 0, 77, 62
1, 1464433, Note_on_c, 0, 56, 76
1, 1464444, Note_off_c, 0, 80, 63
1, 1464454, Note_off_c, 0, 53, 59
1, 1464465, Note_off_c, 0, 56, 64
1, 1464485, Note_on_c, 0, 44, 89
1, 1464562, Note_on_c, 0, 49, 75
1, 1464575, Note_off_c, 0, 44, 62
1, 1464645, Control_c, 0, 67, 41
1, 1464653, Note_on_c, 0, 53, 60
1, 1464659, Control_c, 0, 67, 48
1, 1464689, Control_c, 0, 67, 50
1, 1464698, Note_off_c, 0, 49, 57
1, 1464701, Note_on_c, 0, 85, 82
1, 1464702, Note_on_c, 0, 56, 63
1, 1464704, Control_c, 0, 67, 54
1, 1464707, Note_on_c, 0, 73, 68
1, 1464719, Control_c, 0, 67, 71
1, 1464732, Note_off_c, 0, 53, 58
1, 1464732, Note_off_c, 0, 85, 64
1, 1464738, Note_off_c, 0, 56, 65
1, 1464740, Note_off_c, 0, 73, 68
1, 1464740, Control_c, 0, 67, 97
1, 1464755, Control_c, 0, 67, 123
1, 1464770, Control_c, 0, 67, 127
1, 1464777, Note_on_c, 0, 45, 80
1, 1464785, Control_c, 0, 64, 72
1, 1464800, Note_on_c, 0, 89, 91
1, 1464800, Control_c, 0, 64, 48
1, 1464814, Note_on_c, 0, 77, 76
1, 1464814, Control_c, 0, 64, 0
1, 1464844, Control_c, 0, 64, 27
1, 1464859, Control_c, 0, 64, 51
1, 1464862, Note_on_c, 0, 87, 3
1, 1464862, Note_off_c, 0, 87, 127
1, 1464874, Control_c, 0, 64, 67
1, 1464883, Note_on_c, 0, 49, 65
1, 1464889, Control_c, 0, 64, 83
1, 1464904, Control_c, 0, 64, 127
1, 1464922, Note_off_c, 0, 45, 61
1, 1464934, Note_off_c, 0, 77, 57
1, 1464975, Note_off_c, 0, 89, 61
1, 1464993, Note_on_c, 0, 53, 58
1, 1465020, Note_off_c, 0, 49, 62
1, 1465033, Note_on_c, 0, 89, 73
1, 1465039, Note_on_c, 0, 77, 81
1, 1465045, Note_on_c, 0, 57, 74
1, 1465061, Note_off_c, 0, 89, 62
1, 1465062, Note_off_c, 0, 77, 69
1, 1465075, Note_off_c, 0, 53, 59
1, 1465083, Control_c, 0, 64, 80
1, 1465098, Control_c, 0, 64, 56
1, 1465105, Note_off_c, 0, 57, 55
1, 1465113, Control_c, 0, 64, 0
1, 1465123, Note_on_c, 0, 87, 75
1, 1465130, Note_on_c, 0, 46, 79
1, 1465134, Note_on_c, 0, 85, 81
1, 1465148, Note_on_c, 0, 73, 67
1, 1465157, Control_c, 0, 64, 46
1, 1465172, Control_c, 0, 64, 64
1, 1465187, Control_c, 0, 64, 79
1, 1465202, Control_c, 0, 64, 108
1, 1465210, Note_on_c, 0, 49, 71
1, 1465217, Control_c, 0, 64, 127
1, 1465220, Note_off_c, 0, 87, 58
1, 1465234, Note_off_c, 0, 46, 61
1, 1465271, Note_on_c, 0, 53, 63
1, 1465281, Note_off_c, 0, 73, 61
1, 1465291, Note_off_c, 0, 85, 62
1, 1465311, Note_off_c, 0, 49, 61
1, 1465349, Note_off_c, 0, 53, 62
1, 1465356, Note_on_c, 0, 58, 58
1, 1465361, Note_on_c, 0, 85, 87
1, 1465366, Note_on_c, 0, 73, 82
1, 1465387, Note_off_c, 0, 58, 64
1, 1465393, Note_off_c, 0, 73, 65
1, 1465404, Note_off_c, 0, 85, 62
1, 1465423, Note_on_c, 0, 48, 82
1, 1465438, Control_c, 0, 64, 101
1, 1465443, Note_on_c, 0, 84, 95
1, 1465453, Control_c, 0, 64, 66
1, 1465461, Note_on_c, 0, 72, 75
1, 1465476, Control_c, 0, 64, 37
1, 1465491, Control_c, 0, 64, 0
1, 1465535, Control_c, 0, 64, 31
1, 1465550, Note_on_c, 0, 53, 65
1, 1465550, Control_c, 0, 64, 51
1, 1465564, Control_c, 0, 64, 68
1, 1465579, Control_c, 0, 64, 80
1, 1465587, Note_off_c, 0, 48, 59
1, 1465594, Control_c, 0, 64, 105
1, 1465609, Control_c, 0, 64, 127
1, 1465621, Note_off_c, 0, 84, 59
1, 1465624, Note_off_c, 0, 72, 60
1, 1465641, Note_on_c, 0, 56, 67
1, 1465657, Note_off_c, 0, 53, 58
1, 1465696, Note_on_c, 0, 84, 91
1, 1465709, Note_on_c, 0, 60, 66
1, 1465712, Note_on_c, 0, 72, 60
1, 1465730, Note_off_c, 0, 72, 65
1, 1465736, Note_off_c, 0, 56, 59
1, 1465756, Note_off_c, 0, 60, 49
1, 1465758, Control_c, 0, 64, 86
1, 1465772, Note_on_c, 0, 82, 88
1, 1465772, Control_c, 0, 64, 58
1, 1465787, Control_c, 0, 64, 28
1, 1465795, Note_on_c, 0, 49, 73
1, 1465798, Note_on_c, 0, 70, 77
1, 1465801, Note_off_c, 0, 84, 63
1, 1465802, Control_c, 0, 64, 0
1, 1465817, Control_c, 0, 64, 29
1, 1465832, Control_c, 0, 64, 44
1, 1465846, Control_c, 0, 64, 60
1, 1465861, Control_c, 0, 64, 71
1, 1465876, Control_c, 0, 64, 88
1, 1465891, Control_c, 0, 64, 113
1, 1465901, Note_off_c, 0, 49, 62
1, 1465904, Note_off_c, 0, 70, 61
1, 1465906, Control_c, 0, 64, 127
1, 1465913, Note_on_c, 0, 53, 56
1, 1465953, Note_off_c, 0, 82, 60
1, 1465969, Note_on_c, 0, 56, 57
1, 1465978, Note_off_c, 0, 53, 54
1, 1466047, Note_on_c, 0, 82, 82
1, 1466052, Note_on_c, 0, 61, 55
1, 1466060, Note_on_c, 0, 70, 60
1, 1466080, Note_off_c, 0, 56, 51
1, 1466084, Note_off_c, 0, 82, 54
1, 1466086, Note_off_c, 0, 61, 64
1, 1466087, Note_off_c, 0, 70, 69
1, 1466128, Control_c, 0, 64, 98
1, 1466131, Note_on_c, 0, 48, 74
1, 1466132, Note_on_c, 0, 84, 92
1, 1466143, Control_c, 0, 64, 67
1, 1466154, Note_on_c, 0, 72, 69
1, 1466158, Control_c, 0, 64, 42
1, 1466172, Control_c, 0, 64, 0
1, 1466202, Control_c, 0, 64, 38
1, 1466224, Control_c, 0, 64, 56
1, 1466239, Control_c, 0, 64, 69
1, 1466248, Note_on_c, 0, 53, 57
1, 1466254, Control_c, 0, 64, 80
1, 1466269, Control_c, 0, 64, 95
1, 1466272, Note_off_c, 0, 72, 58
1, 1466284, Note_off_c, 0, 48, 37
1, 1466284, Control_c, 0, 64, 111
1, 1466298, Control_c, 0, 64, 127
1, 1466299, Note_off_c, 0, 84, 61
1, 1466341, Note_on_c, 0, 56, 49
1, 1466371, Note_off_c, 0, 53, 34
1, 1466413, Note_on_c, 0, 84, 76
1, 1466416, Note_on_c, 0, 60, 44
1, 1466429, Note_on_c, 0, 72, 60
1, 1466436, Note_off_c, 0, 56, 45
1, 1466439, Note_off_c, 0, 84, 64
1, 1466447, Note_off_c, 0, 72, 67
1, 1466488, Note_off_c, 0, 60, 51
1, 1466491, Note_on_c, 0, 48, 71
1, 1466502, Note_on_c, 0, 84, 78
1, 1466507, Control_c, 0, 64, 107
1, 1466516, Note_on_c, 0, 72, 57
1, 1466522, Control_c, 0, 64, 73
1, 1466536, Control_c, 0, 64, 52
1, 1466550, Control_c, 0, 64, 0
1, 1466595, Control_c, 0, 64, 35
1, 1466609, Control_c, 0, 64, 52
1, 1466611, Note_on_c, 0, 53, 50
1, 1466624, Control_c, 0, 64, 65
1, 1466639, Control_c, 0, 64, 75
1, 1466654, Control_c, 0, 64, 87
1, 1466669, Control_c, 0, 64, 98
1, 1466672, Note_off_c, 0, 48, 36
1, 1466682, Note_off_c, 0, 84, 59
1, 1466683, Control_c, 0, 64, 115
1, 1466686, Note_off_c, 0, 72, 35
1, 1466698, Control_c, 0, 64, 127
1, 1466718, Note_on_c, 0, 56, 46
1, 1466736, Note_off_c, 0, 53, 36
1, 1466794, Note_on_c, 0, 60, 41
1, 1466796, Note_on_c, 0, 84, 71
1, 1466812, Note_off_c, 0, 56, 40
1, 1466815, Note_on_c, 0, 72, 48
1, 1466838, Note_off_c, 0, 72, 61
1, 1466847, Note_off_c, 0, 84, 61
1, 1466902, Note_on_c, 0, 48, 55
1, 1466914, Note_on_c, 0, 84, 56
1, 1466915, Note_off_c, 0, 60, 27
1, 1466935, Control_c, 0, 64, 103
1, 1466946, Note_on_c, 0, 72, 24
1, 1466950, Control_c, 0, 64, 73
1, 1466973, Control_c, 0, 64, 56
1, 1466988, Control_c, 0, 64, 40
1, 1467002, Control_c, 0, 64, 35
1, 1467017, Control_c, 0, 64, 37
1, 1467032, Control_c, 0, 64, 45
1, 1467038, Note_on_c, 0, 53, 30
1, 1467047, Control_c, 0, 64, 56
1, 1467062, Control_c, 0, 64, 64
1, 1467076, Control_c, 0, 64, 71
1, 1467091, Control_c, 0, 64, 79
1, 1467092, Note_off_c, 0, 72, 42
1, 1467106, Control_c, 0, 64, 87
1, 1467112, Note_off_c, 0, 48, 36
1, 1467120, Control_c, 0, 64, 96
1, 1467130, Note_off_c, 0, 84, 33
1, 1467135, Control_c, 0, 64, 107
1, 1467138, Note_on_c, 0, 55, 39
1, 1467150, Control_c, 0, 64, 127
1, 1467154, Note_off_c, 0, 53, 38
1, 1467223, Note_off_c, 0, 55, 48
1, 1467241, Note_on_c, 0, 60, 21
1, 1467256, Note_on_c, 0, 84, 58
1, 1467287, Note_on_c, 0, 72, 33
1, 1467336, Note_off_c, 0, 72, 48
1, 1467338, Note_on_c, 0, 48, 50
1, 1467387, Note_off_c, 0, 84, 36
1, 1467417, Note_off_c, 0, 60, 30
1, 1467424, Note_on_c, 0, 84, 48
1, 1467432, Control_c, 0, 64, 95
1, 1467447, Control_c, 0, 64, 74
1, 1467448, Note_on_c, 0, 72, 32
1, 1467462, Control_c, 0, 64, 58
1, 1467477, Control_c, 0, 64, 37
1, 1467492, Control_c, 0, 64, 0
1, 1467500, Note_on_c, 0, 52, 40
1, 1467536, Control_c, 0, 64, 30
1, 1467551, Control_c, 0, 64, 45
1, 1467566, Control_c, 0, 64, 60
1, 1467581, Control_c, 0, 64, 69
1, 1467596, Control_c, 0, 64, 79
1, 1467611, Control_c, 0, 64, 89
1, 1467619, Note_off_c, 0, 48, 35
1, 1467621, Note_off_c, 0, 84, 58
1, 1467625, Control_c, 0, 64, 97
1, 1467631, Note_on_c, 0, 55, 41
1, 1467634, Note_off_c, 0, 72, 41
1, 1467640, Control_c, 0, 64, 111
1, 1467655, Control_c, 0, 64, 127
1, 1467670, Note_off_c, 0, 52, 56
1, 1467761, Note_on_c, 0, 60, 39
1, 1467765, Note_off_c, 0, 55, 60
1, 1467791, Note_off_c, 0, 60, 56
1, 1467843, Note_on_c, 0, 84, 56
1, 1467893, Poly_aftertouch_c, 0, 72, 127
1, 1467953, Poly_aftertouch_c, 0, 72, 0
1, 1468072, Note_on_c, 0, 41, 46
1, 1468167, Control_c, 0, 64, 94
1, 1468182, Control_c, 0, 64, 72
1, 1468197, Control_c, 0, 64, 56
1, 1468212, Control_c, 0, 64, 40
1, 1468227, Control_c, 0, 64, 35
1, 1468239, Note_on_c, 0, 77, 53
1, 1468242, Control_c, 0, 64, 37
1, 1468256, Control_c, 0, 64, 43
1, 1468271, Control_c, 0, 64, 53
1, 1468272, Note_off_c, 0, 84, 36
1, 1468286, Control_c, 0, 64, 61
1, 1468301, Control_c, 0, 64, 67
1, 1468315, Note_off_c, 0, 41, 60
1, 1468316, Control_c, 0, 64, 74
1, 1468330, Control_c, 0, 64, 82
1, 1468345, Control_c, 0, 64, 87
1, 1468360, Control_c, 0, 64, 94
1, 1468374, Control_c, 0, 64, 104
1, 1468389, Control_c, 0, 64, 127
1, 1468535, Note_on_c, 0, 57, 38
1, 1468614, Note_off_c, 0, 77, 61
1, 1468707, Note_on_c, 0, 60, 42
1, 1468764, Note_off_c, 0, 57, 28
1, 1468870, Note_on_c, 0, 53, 39
1, 1468875, Note_off_c, 0, 60, 34
1, 1468949, Note_off_c, 0, 53, 46
1, 1468994, Note_on_c, 0, 57, 28
1, 1469108, Note_on_c, 0, 60, 39
1, 1469127, Note_on_c, 0, 77, 59
1, 1469251, Note_off_c, 0, 57, 32
1, 1469265, Note_on_c, 0, 81, 72
1, 1469267, Note_on_c, 0, 53, 43
1, 1469279, Control_c, 0, 64, 84
1, 1469294, Control_c, 0, 64, 70
1, 1469309, Control_c, 0, 64, 67
1, 1469310, Note_off_c, 0, 77, 52
1, 1469323, Control_c, 0, 64, 71
1, 1469330, Note_off_c, 0, 60, 33
1, 1469338, Control_c, 0, 64, 82
1, 1469353, Control_c, 0, 64, 105
1, 1469368, Control_c, 0, 64, 127
1, 1469396, Note_on_c, 0, 57, 42
1, 1469399, Note_off_c, 0, 81, 56
1, 1469444, Note_off_c, 0, 53, 48
1, 1469494, Note_on_c, 0, 81, 81
1, 1469508, Note_on_c, 0, 60, 42
1, 1469545, Control_c, 0, 64, 84
1, 1469558, Note_off_c, 0, 57, 33
1, 1469560, Control_c, 0, 64, 72
1, 1469575, Control_c, 0, 64, 71
1, 1469580, Note_on_c, 0, 77, 85
1, 1469590, Control_c, 0, 64, 77
1, 1469602, Note_on_c, 0, 53, 49
1, 1469605, Control_c, 0, 64, 91
1, 1469617, Note_off_c, 0, 60, 35
1, 1469620, Control_c, 0, 64, 127
1, 1469621, Note_off_c, 0, 81, 61
1, 1469681, Note_off_c, 0, 77, 61
1, 1469721, Note_on_c, 0, 57, 41
1, 1469729, Note_off_c, 0, 53, 37
1, 1469793, Note_on_c, 0, 77, 78
1, 1469814, Note_on_c, 0, 60, 46
1, 1469832, Note_off_c, 0, 57, 53
1, 1469843, Control_c, 0, 64, 98
1, 1469858, Control_c, 0, 64, 71
1, 1469873, Control_c, 0, 64, 57
1, 1469885, Note_on_c, 0, 72, 75
1, 1469887, Control_c, 0, 64, 53
1, 1469902, Control_c, 0, 64, 56
1, 1469906, Note_off_c, 0, 60, 54
1, 1469915, Note_on_c, 0, 53, 46
1, 1469917, Control_c, 0, 64, 63
1, 1469932, Control_c, 0, 64, 73
1, 1469936, Note_off_c, 0, 77, 59
1, 1469946, Control_c, 0, 64, 96
1, 1469968, Control_c, 0, 64, 127
1, 1470004, Note_off_c, 0, 72, 61
1, 1470030, Note_off_c, 0, 53, 57
1, 1470043, Note_on_c, 0, 57, 46
1, 1470126, Note_on_c, 0, 72, 59
1, 1470138, Note_on_c, 0, 60, 44
1, 1470151, Note_off_c, 0, 57, 45
1, 1470191, Control_c, 0, 64, 112
1, 1470206, Control_c, 0, 64, 77
1, 1470220, Control_c, 0, 64, 60
1, 1470222, Note_on_c, 0, 69, 65
1, 1470225, Note_off_c, 0, 72, 56
1, 1470235, Control_c, 0, 64, 49
1, 1470250, Control_c, 0, 64, 48
1, 1470251, Note_on_c, 0, 51, 41
1, 1470265, Control_c, 0, 64, 52
1, 1470279, Control_c, 0, 64, 60
1, 1470293, Control_c, 0, 64, 68
1, 1470297, Note_off_c, 0, 60, 37
1, 1470308, Control_c, 0, 64, 79
1, 1470323, Control_c, 0, 64, 93
1, 1470338, Control_c, 0, 64, 103
1, 1470353, Control_c, 0, 64, 112
1, 1470368, Control_c, 0, 64, 127
1, 1470368, Note_off_c, 0, 69, 57
1, 1470374, Note_on_c, 0, 57, 41
1, 1470381, Note_off_c, 0, 51, 50
1, 1470486, Note_on_c, 0, 60, 44
1, 1470502, Note_on_c, 0, 69, 49
1, 1470576, Control_c, 0, 64, 107
1, 1470588, Note_off_c, 0, 57, 29
1, 1470591, Note_off_c, 0, 69, 54
1, 1470591, Control_c, 0, 64, 75
1, 1470597, Note_on_c, 0, 70, 63
1, 1470606, Control_c, 0, 64, 57
1, 1470621, Control_c, 0, 64, 47
1, 1470624, Note_on_c, 0, 50, 41
1, 1470635, Control_c, 0, 64, 47
1, 1470650, Control_c, 0, 64, 54
1, 1470665, Control_c, 0, 64, 62
1, 1470680, Control_c, 0, 64, 69
1, 1470694, Control_c, 0, 64, 77
1, 1470705, Note_off_c, 0, 60, 40
1, 1470717, Control_c, 0, 64, 84
1, 1470732, Control_c, 0, 64, 89
1, 1470746, Control_c, 0, 64, 95
1, 1470761, Note_off_c, 0, 50, 57
1, 1470761, Control_c, 0, 64, 106
1, 1470776, Control_c, 0, 64, 127
1, 1470795, Note_on_c, 0, 58, 39
1, 1470827, Note_off_c, 0, 70, 38
1, 1470922, Note_on_c, 0, 70, 51
1, 1470925, Note_on_c, 0, 60, 38
1, 1470985, Note_off_c, 0, 70, 57
1, 1471009, Note_off_c, 0, 58, 42
1, 1471013, Control_c, 0, 64, 93
1, 1471025, Note_on_c, 0, 52, 46
1, 1471028, Note_on_c, 0, 67, 51
1, 1471028, Control_c, 0, 64, 70
1, 1471043, Control_c, 0, 64, 58
1, 1471058, Control_c, 0, 64, 51
1, 1471071, Note_off_c, 0, 60, 37
1, 1471087, Control_c, 0, 64, 54
1, 1471102, Control_c, 0, 64, 60
1, 1471117, Control_c, 0, 64, 66
1, 1471132, Control_c, 0, 64, 74
1, 1471143, Note_on_c, 0, 58, 31
1, 1471147, Control_c, 0, 64, 85
1, 1471162, Control_c, 0, 64, 96
1, 1471176, Control_c, 0, 64, 105
1, 1471191, Control_c, 0, 64, 114
1, 1471206, Control_c, 0, 64, 127
1, 1471214, Note_off_c, 0, 67, 33
1, 1471289, Note_off_c, 0, 52, 39
1, 1471291, Note_on_c, 0, 60, 39
1, 1471312, Note_on_c, 0, 67, 45
1, 1471358, Note_off_c, 0, 67, 58
1, 1471372, Note_off_c, 0, 58, 39
1, 1471384, Control_c, 0, 64, 77
1, 1471395, Note_on_c, 0, 72, 62
1, 1471399, Control_c, 0, 64, 62
1, 1471405, Note_on_c, 0, 53, 51
1, 1471414, Control_c, 0, 64, 55
1, 1471429, Control_c, 0, 64, 56
1, 1471435, Note_off_c, 0, 60, 36
1, 1471444, Control_c, 0, 64, 61
1, 1471466, Control_c, 0, 64, 67
1, 1471481, Control_c, 0, 64, 79
1, 1471496, Control_c, 0, 64, 97
1, 1471511, Note_off_c, 0, 53, 37
1, 1471511, Control_c, 0, 64, 121
1, 1471525, Control_c, 0, 64, 127
1, 1471532, Note_on_c, 0, 57, 40
1, 1471599, Note_off_c, 0, 72, 36
1, 1471607, Note_on_c, 0, 77, 45
1, 1471640, Note_on_c, 0, 60, 43
1, 1471649, Note_off_c, 0, 57, 57
1, 1471659, Control_c, 0, 64, 91
1, 1471673, Control_c, 0, 64, 72
1, 1471688, Control_c, 0, 64, 66
1, 1471700, Note_off_c, 0, 60, 48
1, 1471703, Control_c, 0, 64, 70
1, 1471714, Note_on_c, 0, 53, 55
1, 1471714, Note_on_c, 0, 72, 59
1, 1471718, Control_c, 0, 64, 82
1, 1471727, Note_off_c, 0, 77, 64
1, 1471733, Control_c, 0, 64, 111
1, 1471736, Note_off_c, 0, 72, 65
1, 1471748, Control_c, 0, 64, 127
1, 1471775, Note_off_c, 0, 53, 49
1, 1471830, Note_on_c, 0, 57, 41
1, 1471934, Note_on_c, 0, 60, 45
1, 1471937, Note_on_c, 0, 77, 61
1, 1471940, Control_c, 0, 64, 77
1, 1471955, Control_c, 0, 64, 57
1, 1471966, Note_off_c, 0, 57, 38
1, 1471970, Control_c, 0, 64, 43
1, 1471984, Control_c, 0, 64, 44
1, 1471999, Control_c, 0, 64, 53
1, 1472014, Control_c, 0, 64, 62
1, 1472017, Note_off_c, 0, 60, 51
1, 1472020, Note_on_c, 0, 81, 78
1, 1472028, Note_on_c, 0, 53, 51
1, 1472029, Control_c, 0, 64, 72
1, 1472031, Note_off_c, 0, 77, 63
1, 1472043, Control_c, 0, 64, 87
1, 1472058, Control_c, 0, 64, 121
1, 1472059, Note_off_c, 0, 81, 61
1, 1472073, Control_c, 0, 64, 127
1, 1472144, Note_on_c, 0, 57, 49
1, 1472148, Note_off_c, 0, 53, 54
1, 1472253, Note_on_c, 0, 60, 46
1, 1472255, Note_on_c, 0, 81, 83
1, 1472275, Control_c, 0, 64, 96
1, 1472288, Note_off_c, 0, 57, 35
1, 1472289, Control_c, 0, 64, 70
1, 1472304, Control_c, 0, 64, 55
1, 1472329, Note_on_c, 0, 84, 85
1, 1472334, Control_c, 0, 64, 62
1, 1472345, Note_off_c, 0, 81, 63
1, 1472347, Note_on_c, 0, 52, 49
1, 1472348, Control_c, 0, 64, 71
1, 1472363, Control_c, 0, 64, 93
1, 1472373, Note_off_c, 0, 60, 37
1, 1472378, Control_c, 0, 64, 127
1, 1472396, Note_off_c, 0, 84, 65
1, 1472454, Note_off_c, 0, 52, 58
1, 1472463, Note_on_c, 0, 55, 53
1, 1472507, Note_off_c, 0, 55, 61
1, 1472546, Note_on_c, 0, 84, 70
1, 1472552, Note_on_c, 0, 60, 45
1, 1472586, Control_c, 0, 64, 105
1, 1472599, Note_off_c, 0, 60, 53
1, 1472601, Control_c, 0, 64, 67
1, 1472615, Control_c, 0, 64, 48
1, 1472630, Control_c, 0, 64, 40
1, 1472641, Note_on_c, 0, 89, 70
1, 1472645, Control_c, 0, 64, 44
1, 1472654, Note_on_c, 0, 50, 45
1, 1472654, Note_off_c, 0, 84, 61
1, 1472659, Control_c, 0, 64, 55
1, 1472674, Control_c, 0, 64, 65
1, 1472689, Control_c, 0, 64, 76
1, 1472704, Control_c, 0, 64, 95
1, 1472717, Note_off_c, 0, 50, 49
1, 1472719, Control_c, 0, 64, 110
1, 1472727, Note_off_c, 0, 89, 57
1, 1472733, Control_c, 0, 64, 127
1, 1472785, Note_on_c, 0, 53, 44
1, 1472860, Note_off_c, 0, 53, 43
1, 1472872, Note_on_c, 0, 89, 69
1, 1472899, Note_on_c, 0, 57, 37
1, 1472912, Control_c, 0, 64, 101
1, 1472927, Control_c, 0, 64, 73
1, 1472942, Control_c, 0, 64, 59
1, 1472952, Note_off_c, 0, 57, 49
1, 1472957, Control_c, 0, 64, 55
1, 1472979, Control_c, 0, 64, 58
1, 1472983, Note_on_c, 0, 91, 68
1, 1472985, Note_off_c, 0, 89, 61
1, 1472988, Note_on_c, 0, 50, 45
1, 1472994, Control_c, 0, 64, 64
1, 1473009, Control_c, 0, 64, 74
1, 1473024, Control_c, 0, 64, 91
1, 1473039, Note_off_c, 0, 91, 65
1, 1473039, Control_c, 0, 64, 115
1, 1473053, Control_c, 0, 64, 127
1, 1473110, Note_on_c, 0, 53, 40
1, 1473110, Note_off_c, 0, 50, 38
1, 1473202, Note_on_c, 0, 91, 62
1, 1473220, Note_on_c, 0, 59, 49
1, 1473260, Control_c, 0, 64, 106
1, 1473262, Note_off_c, 0, 53, 34
1, 1473275, Control_c, 0, 64, 77
1, 1473289, Control_c, 0, 64, 63
1, 1473304, Control_c, 0, 64, 57
1, 1473319, Control_c, 0, 64, 59
1, 1473324, Note_on_c, 0, 93, 62
1, 1473330, Note_off_c, 0, 91, 59
1, 1473331, Note_on_c, 0, 48, 42
1, 1473334, Control_c, 0, 64, 64
1, 1473349, Control_c, 0, 64, 71
1, 1473357, Note_off_c, 0, 59, 36
1, 1473364, Control_c, 0, 64, 81
1, 1473379, Control_c, 0, 64, 91
1, 1473380, Note_off_c, 0, 93, 61
1, 1473393, Control_c, 0, 64, 98
1, 1473408, Control_c, 0, 64, 104
1, 1473423, Control_c, 0, 64, 127
1, 1473439, Note_off_c, 0, 48, 50
1, 1473450, Note_on_c, 0, 53, 41
1, 1473554, Note_off_c, 0, 53, 43
1, 1473578, Note_on_c, 0, 93, 61
1, 1473584, Note_on_c, 0, 60, 39
1, 1473616, Control_c, 0, 64, 94
1, 1473630, Control_c, 0, 64, 71
1, 1473645, Control_c, 0, 64, 57
1, 1473660, Control_c, 0, 64, 51
1, 1473678, Note_on_c, 0, 48, 42
1, 1473691, Control_c, 0, 64, 54
1, 1473712, Control_c, 0, 64, 59
1, 1473718, Note_on_c, 0, 96, 62
1, 1473719, Note_off_c, 0, 93, 56
1, 1473727, Control_c, 0, 64, 65
1, 1473742, Control_c, 0, 64, 73
1, 1473757, Note_off_c, 0, 60, 25
1, 1473757, Control_c, 0, 64, 83
1, 1473771, Note_off_c, 0, 96, 60
1, 1473772, Control_c, 0, 64, 95
1, 1473787, Control_c, 0, 64, 104
1, 1473802, Control_c, 0, 64, 114
1, 1473808, Note_on_c, 0, 52, 39
1, 1473817, Control_c, 0, 64, 127
1, 1473832, Note_off_c, 0, 48, 35
1, 1473884, Note_off_c, 0, 52, 57
1, 1473948, Note_on_c, 0, 60, 41
1, 1473978, Note_off_c, 0, 60, 56
1, 1473987, Note_on_c, 0, 96, 55
1, 1474122, Note_on_c, 0, 41, 40
1, 1474142, Control_c, 0, 64, 97
1, 1474157, Control_c, 0, 64, 71
1, 1474172, Control_c, 0, 64, 59
1, 1474174, Note_on_c, 0, 93, 60
1, 1474186, Control_c, 0, 64, 55
1, 1474201, Control_c, 0, 64, 58
1, 1474216, Control_c, 0, 64, 63
1, 1474230, Note_off_c, 0, 41, 62
1, 1474230, Note_off_c, 0, 96, 60
1, 1474231, Control_c, 0, 64, 71
1, 1474246, Control_c, 0, 64, 81
1, 1474261, Control_c, 0, 64, 92
1, 1474276, Control_c, 0, 64, 101
1, 1474291, Control_c, 0, 64, 127
1, 1474374, Note_on_c, 0, 57, 50
1, 1474434, Note_off_c, 0, 93, 56
1, 1474479, Note_off_c, 0, 57, 45
1, 1474515, Note_on_c, 0, 60, 45
1, 1474589, Note_off_c, 0, 60, 51
1, 1474622, Note_on_c, 0, 53, 46
1, 1474672, Note_off_c, 0, 53, 57
1, 1474731, Note_on_c, 0, 57, 42
1, 1474816, Note_off_c, 0, 57, 43
1, 1474840, Note_on_c, 0, 60, 42
1, 1474856, Note_on_c, 0, 77, 61
1, 1474921, Control_c, 0, 64, 99
1, 1474935, Control_c, 0, 64, 77
1, 1474936, Note_off_c, 0, 60, 52
1, 1474941, Note_on_c, 0, 53, 49
1, 1474947, Note_on_c, 0, 81, 68
1, 1474950, Control_c, 0, 64, 65
1, 1474963, Note_off_c, 0, 77, 56
1, 1474965, Control_c, 0, 64, 64
1, 1474980, Control_c, 0, 64, 69
1, 1474995, Control_c, 0, 64, 79
1, 1475009, Control_c, 0, 64, 103
1, 1475024, Control_c, 0, 64, 127
1, 1475043, Note_off_c, 0, 81, 63
1, 1475062, Note_on_c, 0, 57, 47
1, 1475105, Note_off_c, 0, 53, 37
1, 1475161, Note_on_c, 0, 60, 52
1, 1475165, Note_on_c, 0, 81, 78
1, 1475224, Control_c, 0, 64, 92
1, 1475232, Note_off_c, 0, 60, 46
1, 1475233, Note_off_c, 0, 57, 33
1, 1475239, Control_c, 0, 64, 75
1, 1475254, Control_c, 0, 64, 70
1, 1475259, Note_on_c, 0, 53, 48
1, 1475259, Note_on_c, 0, 77, 82
1, 1475268, Control_c, 0, 64, 74
1, 1475284, Control_c, 0, 64, 88
1, 1475299, Control_c, 0, 64, 127
1, 1475307, Note_off_c, 0, 81, 63
1, 1475349, Note_off_c, 0, 77, 63
1, 1475355, Note_on_c, 0, 57, 55
1, 1475382, Note_off_c, 0, 53, 36
1, 1475459, Note_on_c, 0, 60, 50
1, 1475474, Note_on_c, 0, 77, 80
1, 1475505, Note_off_c, 0, 57, 36
1, 1475507, Control_c, 0, 64, 106
1, 1475522, Control_c, 0, 64, 75
1, 1475537, Control_c, 0, 64, 61
1, 1475545, Note_off_c, 0, 60, 56
1, 1475549, Note_on_c, 0, 53, 43
1, 1475552, Control_c, 0, 64, 57
1, 1475557, Note_on_c, 0, 72, 77
1, 1475566, Control_c, 0, 64, 61
1, 1475581, Control_c, 0, 64, 68
1, 1475596, Control_c, 0, 64, 81
1, 1475596, Note_off_c, 0, 77, 61
1, 1475611, Control_c, 0, 64, 106
1, 1475626, Control_c, 0, 64, 127
1, 1475641, Note_off_c, 0, 72, 61
1, 1475659, Note_off_c, 0, 53, 58
1, 1475664, Note_on_c, 0, 57, 48
1, 1475752, Note_off_c, 0, 57, 49
1, 1475763, Note_on_c, 0, 60, 48
1, 1475773, Note_on_c, 0, 72, 65
1, 1475832, Control_c, 0, 64, 80
1, 1475847, Control_c, 0, 64, 62
1, 1475862, Control_c, 0, 64, 50
1, 1475876, Note_on_c, 0, 51, 42
1, 1475876, Note_off_c, 0, 60, 57
1, 1475878, Note_off_c, 0, 72, 56
1, 1475881, Note_on_c, 0, 69, 57
1, 1475891, Control_c, 0, 64, 55
1, 1475906, Control_c, 0, 64, 63
1, 1475921, Control_c, 0, 64, 71
1, 1475936, Control_c, 0, 64, 84
1, 1475948, Note_off_c, 0, 69, 57
1, 1475951, Control_c, 0, 64, 101
1, 1475973, Control_c, 0, 64, 123
1, 1475988, Note_on_c, 0, 57, 47
1, 1475988, Control_c, 0, 64, 127
1, 1476005, Note_off_c, 0, 51, 37
1, 1476100, Note_on_c, 0, 60, 48
1, 1476127, Note_off_c, 0, 57, 0
1, 1476128, Note_on_c, 0, 69, 45
1, 1476181, Control_c, 0, 64, 80
1, 1476194, Poly_aftertouch_c, 0, 57, 0
1, 1476196, Control_c, 0, 64, 62
1, 1476205, Note_off_c, 0, 69, 58
1, 1476211, Control_c, 0, 64, 51
1, 1476225, Note_on_c, 0, 50, 39
1, 1476226, Control_c, 0, 64, 51
1, 1476240, Note_on_c, 0, 72, 46
1, 1476241, Control_c, 0, 64, 55
1, 1476255, Control_c, 0, 64, 62
1, 1476257, Note_off_c, 0, 60, 37
1, 1476270, Control_c, 0, 64, 69
1, 1476285, Control_c, 0, 64, 81
1, 1476300, Control_c, 0, 64, 93
1, 1476314, Control_c, 0, 64, 98
1, 1476327, Note_off_c, 0, 50, 60
1, 1476329, Control_c, 0, 64, 100
1, 1476344, Control_c, 0, 64, 103
1, 1476354, Note_on_c, 0, 58, 44
1, 1476359, Note_off_c, 0, 72, 50
1, 1476359, Control_c, 0, 64, 106
1, 1476374, Control_c, 0, 64, 111
1, 1476388, Control_c, 0, 64, 117
1, 1476403, Control_c, 0, 64, 127
1, 1476485, Note_on_c, 0, 60, 40
1, 1476511, Note_on_c, 0, 72, 52
1, 1476520, Note_off_c, 0, 58, 55
1, 1476595, Control_c, 0, 64, 86
1, 1476610, Control_c, 0, 64, 64
1, 1476625, Control_c, 0, 64, 47
1, 1476628, Note_on_c, 0, 52, 42
1, 1476635, Note_on_c, 0, 70, 50
1, 1476640, Control_c, 0, 64, 39
1, 1476655, Control_c, 0, 64, 41
1, 1476655, Note_off_c, 0, 72, 50
1, 1476669, Control_c, 0, 64, 48
1, 1476684, Control_c, 0, 64, 58
1, 1476706, Control_c, 0, 64, 64
1, 1476719, Note_off_c, 0, 60, 28
1, 1476721, Control_c, 0, 64, 68
1, 1476736, Control_c, 0, 64, 73
1, 1476751, Control_c, 0, 64, 79
1, 1476759, Note_off_c, 0, 70, 55
1, 1476766, Control_c, 0, 64, 87
1, 1476778, Note_on_c, 0, 55, 26
1, 1476781, Control_c, 0, 64, 97
1, 1476795, Note_off_c, 0, 52, 32
1, 1476795, Control_c, 0, 64, 112
1, 1476810, Control_c, 0, 64, 127
1, 1476896, Note_on_c, 0, 70, 52
1, 1476898, Note_on_c, 0, 60, 44
1, 1476919, Note_off_c, 0, 55, 35
1, 1476962, Note_off_c, 0, 70, 58
1, 1476989, Control_c, 0, 64, 83
1, 1477003, Control_c, 0, 64, 63
1, 1477004, Note_off_c, 0, 60, 52
1, 1477007, Note_on_c, 0, 53, 51
1, 1477007, Note_on_c, 0, 69, 49
1, 1477018, Control_c, 0, 64, 50
1, 1477033, Control_c, 0, 64, 49
1, 1477048, Control_c, 0, 64, 55
1, 1477062, Control_c, 0, 64, 63
1, 1477077, Control_c, 0, 64, 73
1, 1477092, Control_c, 0, 64, 93
1, 1477107, Control_c, 0, 64, 117
1, 1477122, Control_c, 0, 64, 127
1, 1477124, Note_on_c, 0, 57, 44
1, 1477151, Control_c, 0, 64, 120
1, 1477166, Control_c, 0, 64, 93
1, 1477174, Note_off_c, 0, 53, 37
1, 1477181, Control_c, 0, 64, 72
1, 1477196, Control_c, 0, 64, 56
1, 1477210, Control_c, 0, 64, 48
1, 1477225, Control_c, 0, 64, 47
1, 1477233, Note_on_c, 0, 60, 44
1, 1477240, Control_c, 0, 64, 50
1, 1477246, Note_on_c, 0, 77, 66
1, 1477254, Note_off_c, 0, 57, 36
1, 1477254, Control_c, 0, 64, 58
1, 1477269, Control_c, 0, 64, 66
1, 1477283, Note_off_c, 0, 69, 38
1, 1477284, Control_c, 0, 64, 76
1, 1477299, Control_c, 0, 64, 97
1, 1477314, Control_c, 0, 64, 127
1, 1477321, Note_on_c, 0, 53, 51
1, 1477324, Note_off_c, 0, 60, 53
1, 1477334, Note_on_c, 0, 72, 63
1, 1477342, Note_off_c, 0, 77, 60
1, 1477360, Note_off_c, 0, 72, 65
1, 1477405, Note_off_c, 0, 53, 57
1, 1477456, Note_on_c, 0, 57, 40
1, 1477540, Note_off_c, 0, 57, 52
1, 1477545, Note_on_c, 0, 60, 46
1, 1477555, Note_on_c, 0, 77, 73
1, 1477588, Control_c, 0, 64, 109
1, 1477603, Control_c, 0, 64, 73
1, 1477617, Control_c, 0, 64, 60
1, 1477632, Control_c, 0, 64, 57
1, 1477642, Note_on_c, 0, 53, 52
1, 1477644, Note_off_c, 0, 60, 56
1, 1477647, Control_c, 0, 64, 60
1, 1477653, Note_off_c, 0, 77, 65
1, 1477655, Note_on_c, 0, 81, 66
1, 1477662, Control_c, 0, 64, 67
1, 1477677, Control_c, 0, 64, 82
1, 1477680, Note_off_c, 0, 81, 69
1, 1477692, Control_c, 0, 64, 127
1, 1477766, Note_on_c, 0, 57, 39
1, 1477787, Note_off_c, 0, 53, 35
1, 1477846, Note_on_c, 0, 81, 80
1, 1477847, Note_on_c, 0, 60, 53
1, 1477853, Note_off_c, 0, 57, 46
1, 1477886, Control_c, 0, 64, 111
1, 1477901, Control_c, 0, 64, 76
1, 1477915, Control_c, 0, 64, 59
1, 1477930, Control_c, 0, 64, 55
1, 1477933, Note_off_c, 0, 60, 57
1, 1477936, Note_on_c, 0, 84, 81
1, 1477945, Note_off_c, 0, 81, 64
1, 1477945, Control_c, 0, 64, 58
1, 1477954, Note_on_c, 0, 52, 46
1, 1477960, Control_c, 0, 64, 65
1, 1477974, Note_off_c, 0, 84, 64
1, 1477975, Control_c, 0, 64, 78
1, 1477990, Control_c, 0, 64, 116
1, 1478005, Control_c, 0, 64, 127
1, 1478037, Note_off_c, 0, 52, 58
1, 1478043, Note_on_c, 0, 55, 48
1, 1478082, Note_off_c, 0, 55, 61
1, 1478130, Note_on_c, 0, 60, 59
1, 1478145, Note_on_c, 0, 84, 64
1, 1478181, Note_off_c, 0, 60, 59
1, 1478182, Control_c, 0, 64, 74
1, 1478205, Control_c, 0, 64, 51
1, 1478220, Control_c, 0, 64, 31
1, 1478234, Control_c, 0, 64, 34
1, 1478237, Note_on_c, 0, 89, 70
1, 1478240, Note_on_c, 0, 50, 52
1, 1478245, Note_off_c, 0, 84, 63
1, 1478249, Control_c, 0, 64, 46
1, 1478264, Control_c, 0, 64, 61
1, 1478277, Note_off_c, 0, 89, 64
1, 1478278, Control_c, 0, 64, 72
1, 1478293, Control_c, 0, 64, 85
1, 1478308, Control_c, 0, 64, 99
1, 1478321, Note_off_c, 0, 50, 39
1, 1478323, Control_c, 0, 64, 111
1, 1478338, Control_c, 0, 64, 127
1, 1478348, Note_on_c, 0, 53, 54
1, 1478440, Note_off_c, 0, 53, 38
1, 1478441, Note_on_c, 0, 57, 54
1, 1478452, Note_on_c, 0, 89, 60
1, 1478501, Control_c, 0, 64, 102
1, 1478516, Control_c, 0, 64, 71
1, 1478528, Note_on_c, 0, 91, 78
1, 1478528, Note_off_c, 0, 57, 57
1, 1478531, Control_c, 0, 64, 59
1, 1478535, Note_off_c, 0, 89, 64
1, 1478546, Control_c, 0, 64, 56
1, 1478552, Note_on_c, 0, 50, 45
1, 1478561, Control_c, 0, 64, 60
1, 1478576, Control_c, 0, 64, 67
1, 1478579, Note_off_c, 0, 91, 65
1, 1478590, Control_c, 0, 64, 78
1, 1478597, Note_off_c, 0, 50, 57
1, 1478605, Control_c, 0, 64, 97
1, 1478620, Control_c, 0, 64, 127
1, 1478651, Note_on_c, 0, 53, 46
1, 1478735, Note_on_c, 0, 91, 63
1, 1478752, Note_on_c, 0, 59, 50
1, 1478764, Note_off_c, 0, 53, 37
1, 1478783, Control_c, 0, 64, 91
1, 1478798, Control_c, 0, 64, 67
1, 1478813, Control_c, 0, 64, 53
1, 1478817, Note_off_c, 0, 59, 51
1, 1478827, Control_c, 0, 64, 51
1, 1478828, Note_off_c, 0, 91, 64
1, 1478831, Note_on_c, 0, 93, 68
1, 1478842, Control_c, 0, 64, 58
1, 1478850, Note_on_c, 0, 48, 55
1, 1478857, Control_c, 0, 64, 66
1, 1478866, Note_off_c, 0, 93, 58
1, 1478872, Control_c, 0, 64, 77
1, 1478887, Control_c, 0, 64, 97
1, 1478901, Control_c, 0, 64, 120
1, 1478916, Control_c, 0, 64, 127
1, 1478944, Note_off_c, 0, 48, 60
1, 1478976, Note_on_c, 0, 53, 48
1, 1479027, Note_off_c, 0, 53, 52
1, 1479078, Note_on_c, 0, 93, 64
1, 1479101, Control_c, 0, 64, 97
1, 1479105, Note_on_c, 0, 60, 37
1, 1479116, Control_c, 0, 64, 71
1, 1479131, Control_c, 0, 64, 55
1, 1479146, Control_c, 0, 64, 51
1, 1479161, Control_c, 0, 64, 56
1, 1479175, Control_c, 0, 64, 62
1, 1479176, Note_off_c, 0, 60, 38
1, 1479188, Note_off_c, 0, 93, 59
1, 1479190, Control_c, 0, 64, 69
1, 1479198, Note_on_c, 0, 96, 67
1, 1479205, Control_c, 0, 64, 80
1, 1479209, Note_on_c, 0, 48, 56
1, 1479220, Control_c, 0, 64, 96
1, 1479234, Control_c, 0, 64, 112
1, 1479235, Note_off_c, 0, 96, 63
1, 1479249, Control_c, 0, 64, 127
1, 1479319, Note_off_c, 0, 48, 59
1, 1479361, Note_on_c, 0, 52, 40
1, 1479414, Note_off_c, 0, 52, 59
1, 1479460, Note_on_c, 0, 60, 49
1, 1479472, Note_on_c, 0, 96, 54
1, 1479483, Note_off_c, 0, 60, 63
1, 1479665, Control_c, 0, 64, 107
1, 1479680, Note_on_c, 0, 41, 41
1, 1479680, Control_c, 0, 64, 76
1, 1479695, Control_c, 0, 64, 61
1, 1479696, Note_on_c, 0, 101, 59
1, 1479708, Note_off_c, 0, 96, 55
1, 1479717, Control_c, 0, 64, 55
1, 1479731, Control_c, 0, 64, 57
1, 1479746, Control_c, 0, 64, 64
1, 1479761, Control_c, 0, 64, 74
1, 1479776, Note_off_c, 0, 41, 63
1, 1479776, Control_c, 0, 64, 95
1, 1479791, Control_c, 0, 64, 127
1, 1479862, Note_off_c, 0, 101, 63
1, 1479919, Note_on_c, 0, 57, 51
1, 1480006, Note_off_c, 0, 57, 46
1, 1480048, Note_on_c, 0, 60, 39
1, 1480111, Note_off_c, 0, 60, 43
1, 1480155, Note_on_c, 0, 53, 42
1, 1480254, Note_off_c, 0, 53, 37
1, 1480267, Note_on_c, 0, 57, 45
1, 1480384, Note_on_c, 0, 60, 39
1, 1480421, Note_on_c, 0, 88, 57
1, 1480455, Note_off_c, 0, 57, 37
1, 1480511, Note_on_c, 0, 53, 38
1, 1480519, Note_on_c, 0, 89, 59
1, 1480522, Note_off_c, 0, 88, 61
1, 1480527, Note_off_c, 0, 60, 37
1, 1480551, Note_off_c, 0, 89, 64
1, 1480626, Note_off_c, 0, 53, 55
1, 1480628, Note_on_c, 0, 57, 50
1, 1480738, Note_on_c, 0, 60, 43
1, 1480752, Note_on_c, 0, 89, 55
1, 1480781, Note_off_c, 0, 57, 35
1, 1480789, Note_off_c, 0, 60, 51
1, 1480816, Note_on_c, 0, 87, 81
1, 1480818, Note_on_c, 0, 54, 43
1, 1480837, Note_off_c, 0, 89, 62
1, 1480864, Note_off_c, 0, 87, 64
1, 1480931, Note_off_c, 0, 54, 51
1, 1480932, Note_on_c, 0, 57, 43
1, 1481017, Note_off_c, 0, 57, 39
1, 1481028, Note_on_c, 0, 60, 41
1, 1481048, Note_on_c, 0, 87, 72
1, 1481100, Note_off_c, 0, 60, 41
1, 1481103, Control_c, 0, 64, 107
1, 1481118, Control_c, 0, 64, 85
1, 1481129, Note_on_c, 0, 53, 48
1, 1481129, Note_on_c, 0, 84, 66
1, 1481133, Control_c, 0, 64, 79
1, 1481144, Note_off_c, 0, 87, 58
1, 1481148, Control_c, 0, 64, 81
1, 1481163, Control_c, 0, 64, 96
1, 1481177, Control_c, 0, 64, 127
1, 1481205, Note_off_c, 0, 84, 61
1, 1481242, Note_on_c, 0, 57, 46
1, 1481252, Note_off_c, 0, 53, 47
1, 1481352, Note_on_c, 0, 84, 68
1, 1481362, Note_on_c, 0, 60, 32
1, 1481365, Note_off_c, 0, 57, 46
1, 1481428, Note_off_c, 0, 84, 54
1, 1481430, Note_on_c, 0, 54, 50
1, 1481433, Note_off_c, 0, 60, 42
1, 1481454, Note_on_c, 0, 81, 48
1, 1481483, Note_off_c, 0, 81, 60
1, 1481517, Note_off_c, 0, 54, 62
1, 1481538, Note_on_c, 0, 57, 39
1, 1481627, Note_off_c, 0, 57, 46
1, 1481655, Note_on_c, 0, 60, 43
1, 1481663, Note_on_c, 0, 81, 50
1, 1481715, Note_off_c, 0, 81, 53
1, 1481717, Note_off_c, 0, 60, 57
1, 1481734, Control_c, 0, 64, 111
1, 1481757, Note_on_c, 0, 84, 64
1, 1481758, Note_on_c, 0, 53, 52
1, 1481764, Control_c, 0, 64, 127
1, 1481795, Note_off_c, 0, 84, 56
1, 1481865, Note_off_c, 0, 53, 59
1, 1481884, Note_on_c, 0, 57, 36
1, 1481990, Note_on_c, 0, 60, 39
1, 1481998, Note_off_c, 0, 57, 48
1, 1482010, Note_on_c, 0, 84, 27
1, 1482050, Note_off_c, 0, 84, 50
1, 1482067, Note_off_c, 0, 60, 57
1, 1482103, Note_on_c, 0, 85, 53
1, 1482105, Note_on_c, 0, 51, 55
1, 1482122, Note_off_c, 0, 85, 61
1, 1482141, Control_c, 0, 64, 104
1, 1482156, Control_c, 0, 64, 72
1, 1482171, Control_c, 0, 64, 53
1, 1482183, Note_off_c, 0, 51, 61
1, 1482186, Control_c, 0, 64, 35
1, 1482200, Control_c, 0, 64, 0
1, 1482226, Note_on_c, 0, 55, 39
1, 1482286, Note_off_c, 0, 55, 59
1, 1482324, Note_on_c, 0, 61, 48
1, 1482324, Note_on_c, 0, 85, 63
1, 1482359, Note_off_c, 0, 85, 61
1, 1482373, Note_off_c, 0, 61, 58
1, 1482420, Note_on_c, 0, 86, 69
1, 1482441, Note_on_c, 0, 50, 36
1, 1482443, Note_off_c, 0, 86, 70
1, 1482476, Note_off_c, 0, 50, 54
1, 1482530, Note_on_c, 0, 54, 35
1, 1482594, Note_off_c, 0, 54, 58
1, 1482638, Note_on_c, 0, 86, 72
1, 1482642, Note_on_c, 0, 62, 52
1, 1482661, Note_off_c, 0, 86, 70
1, 1482679, Note_off_c, 0, 62, 58
1, 1482755, Note_on_c, 0, 86, 73
1, 1482759, Note_on_c, 0, 50, 51
1, 1482776, Note_off_c, 0, 86, 72
1, 1482817, Note_off_c, 0, 50, 57
1, 1482880, Note_on_c, 0, 55, 20
1, 1482953, Note_off_c, 0, 55, 39
1, 1482956, Note_on_c, 0, 58, 54
1, 1482956, Note_on_c, 0, 86, 68
1, 1482980, Note_off_c, 0, 86, 70
1, 1482987, Note_off_c, 0, 58, 64
1, 1483055, Note_on_c, 0, 50, 55
1, 1483055, Note_on_c, 0, 86, 69
1, 1483076, Note_off_c, 0, 86, 71
1, 1483126, Note_off_c, 0, 50, 58
1, 1483153, Note_on_c, 0, 54, 43
1, 1483233, Note_off_c, 0, 54, 34
1, 1483263, Note_on_c, 0, 57, 43
1, 1483268, Note_on_c, 0, 86, 70
1, 1483290, Note_off_c, 0, 86, 71
1, 1483310, Note_off_c, 0, 57, 57
1, 1483350, Note_on_c, 0, 50, 49
1, 1483367, Note_on_c, 0, 86, 72
1, 1483390, Note_off_c, 0, 86, 69
1, 1483397, Note_off_c, 0, 50, 61
1, 1483439, Note_on_c, 0, 55, 52
1, 1483528, Note_off_c, 0, 55, 50
1, 1483549, Note_on_c, 0, 58, 57
1, 1483570, Note_on_c, 0, 86, 73
1, 1483591, Note_off_c, 0, 58, 59
1, 1483593, Note_off_c, 0, 86, 69
1, 1483654, Note_on_c, 0, 50, 53
1, 1483672, Note_on_c, 0, 86, 76
1, 1483686, Note_off_c, 0, 86, 70
1, 1483719, Note_off_c, 0, 50, 60
1, 1483743, Note_on_c, 0, 54, 61
1, 1483821, Note_off_c, 0, 54, 47
1, 1483853, Note_on_c, 0, 57, 46
1, 1483889, Note_off_c, 0, 57, 56
1, 1483924, Note_on_c, 0, 50, 54
1, 1483968, Note_off_c, 0, 50, 63
1, 1484023, Note_on_c, 0, 55, 55
1, 1484083, Note_on_c, 0, 74, 77
1, 1484086, Note_off_c, 0, 55, 58
1, 1484104, Note_off_c, 0, 74, 71
1, 1484126, Note_on_c, 0, 58, 52
1, 1484166, Note_off_c, 0, 58, 60
1, 1484250, Note_on_c, 0, 50, 49
1, 1484269, Control_c, 0, 64, 37
1, 1484270, Note_on_c, 0, 75, 81
1, 1484284, Control_c, 0, 64, 55
1, 1484299, Control_c, 0, 64, 63
1, 1484314, Control_c, 0, 64, 64
1, 1484328, Control_c, 0, 64, 64
1, 1484343, Control_c, 0, 64, 67
1, 1484358, Control_c, 0, 64, 73
1, 1484366, Note_off_c, 0, 50, 62
1, 1484373, Control_c, 0, 64, 82
1, 1484388, Control_c, 0, 64, 92
1, 1484402, Control_c, 0, 64, 99
1, 1484403, Note_on_c, 0, 54, 44
1, 1484432, Control_c, 0, 64, 101
1, 1484437, Note_on_c, 0, 74, 76
1, 1484456, Note_off_c, 0, 75, 62
1, 1484464, Note_off_c, 0, 54, 55
1, 1484465, Note_on_c, 0, 57, 48
1, 1484465, Note_off_c, 0, 74, 61
1, 1484491, Control_c, 0, 64, 90
1, 1484503, Note_off_c, 0, 57, 54
1, 1484506, Control_c, 0, 64, 74
1, 1484521, Control_c, 0, 64, 59
1, 1484536, Control_c, 0, 64, 41
1, 1484551, Control_c, 0, 64, 34
1, 1484558, Note_on_c, 0, 48, 62
1, 1484566, Control_c, 0, 64, 34
1, 1484597, Note_on_c, 0, 74, 64
1, 1484611, Control_c, 0, 64, 34
1, 1484620, Note_off_c, 0, 48, 61
1, 1484623, Note_off_c, 0, 74, 65
1, 1484640, Control_c, 0, 64, 34
1, 1484653, Note_on_c, 0, 54, 51
1, 1484688, Note_off_c, 0, 54, 65
1, 1484700, Control_c, 0, 64, 33
1, 1484714, Control_c, 0, 64, 32
1, 1484729, Control_c, 0, 64, 32
1, 1484757, Note_on_c, 0, 74, 63
1, 1484790, Note_off_c, 0, 74, 65
1, 1484803, Control_c, 0, 64, 29
1, 1484816, Note_on_c, 0, 46, 35
1, 1484908, Control_c, 0, 64, 31
1, 1484920, Note_on_c, 0, 53, 43
1, 1484923, Control_c, 0, 64, 40
1, 1484944, Control_c, 0, 64, 51
1, 1484959, Control_c, 0, 64, 62
1, 1484965, Note_on_c, 0, 74, 45
1, 1484973, Note_off_c, 0, 53, 62
1, 1484974, Note_off_c, 0, 46, 37
1, 1484974, Control_c, 0, 64, 67
1, 1484989, Control_c, 0, 64, 72
1, 1485004, Control_c, 0, 64, 79
1, 1485016, Note_on_c, 0, 58, 50
1, 1485019, Control_c, 0, 64, 90
1, 1485034, Control_c, 0, 64, 105
1, 1485041, Note_off_c, 0, 58, 59
1, 1485049, Control_c, 0, 64, 127
1, 1485086, Note_off_c, 0, 74, 65
1, 1485149, Note_on_c, 0, 62, 42
1, 1485184, Note_off_c, 0, 62, 51
1, 1485249, Note_on_c, 0, 65, 43
1, 1485277, Note_off_c, 0, 65, 54
1, 1485348, Note_on_c, 0, 58, 35
1, 1485396, Note_off_c, 0, 58, 56
1, 1485453, Note_on_c, 0, 62, 36
1, 1485530, Note_off_c, 0, 62, 41
1, 1485543, Note_on_c, 0, 93, 64
1, 1485563, Note_on_c, 0, 65, 26
1, 1485612, Note_off_c, 0, 93, 62
1, 1485617, Note_off_c, 0, 65, 44
1, 1485629, Note_on_c, 0, 58, 46
1, 1485633, Note_on_c, 0, 94, 54
1, 1485654, Note_off_c, 0, 94, 57
1, 1485755, Note_off_c, 0, 58, 38
1, 1485764, Note_on_c, 0, 62, 34
1, 1485850, Note_on_c, 0, 65, 40
1, 1485861, Note_on_c, 0, 94, 68
1, 1485896, Note_off_c, 0, 62, 32
1, 1485927, Note_off_c, 0, 65, 38
1, 1485939, Note_on_c, 0, 92, 70
1, 1485955, Note_off_c, 0, 94, 62
1, 1485963, Note_off_c, 0, 92, 70
1, 1485967, Note_on_c, 0, 59, 45
1, 1486012, Note_off_c, 0, 59, 58
1, 1486079, Note_on_c, 0, 62, 38
1, 1486147, Note_off_c, 0, 62, 44
1, 1486161, Note_on_c, 0, 92, 68
1, 1486167, Note_on_c, 0, 65, 43
1, 1486236, Note_off_c, 0, 65, 47
1, 1486239, Note_on_c, 0, 89, 68
1, 1486247, Note_on_c, 0, 58, 50
1, 1486254, Note_off_c, 0, 92, 65
1, 1486264, Note_off_c, 0, 89, 67
1, 1486315, Note_off_c, 0, 58, 53
1, 1486360, Note_on_c, 0, 62, 45
1, 1486430, Note_off_c, 0, 62, 47
1, 1486456, Note_on_c, 0, 65, 45
1, 1486471, Note_on_c, 0, 89, 66
1, 1486502, Note_off_c, 0, 65, 52
1, 1486545, Note_on_c, 0, 86, 65
1, 1486545, Note_on_c, 0, 59, 57
1, 1486546, Note_off_c, 0, 89, 60
1, 1486569, Note_off_c, 0, 86, 69
1, 1486596, Note_off_c, 0, 59, 60
1, 1486679, Note_on_c, 0, 62, 25
1, 1486738, Note_on_c, 0, 86, 62
1, 1486776, Note_on_c, 0, 65, 44
1, 1486799, Note_off_c, 0, 62, 43
1, 1486808, Note_off_c, 0, 86, 60
1, 1486828, Note_off_c, 0, 65, 43
1, 1486839, Note_on_c, 0, 89, 60
1, 1486859, Note_on_c, 0, 58, 55
1, 1486869, Note_off_c, 0, 89, 64
1, 1486983, Note_off_c, 0, 58, 55
1, 1487027, Note_on_c, 0, 62, 30
1, 1487094, Note_on_c, 0, 89, 48
1, 1487095, Note_on_c, 0, 65, 10
1, 1487150, Note_off_c, 0, 65, 45
1, 1487152, Note_off_c, 0, 89, 55
1, 1487210, Note_on_c, 0, 90, 56
1, 1487218, Note_on_c, 0, 56, 50
1, 1487232, Note_off_c, 0, 62, 41
1, 1487233, Note_off_c, 0, 90, 64
1, 1487295, Note_off_c, 0, 56, 62
1, 1487323, Note_on_c, 0, 60, 54
1, 1487353, Control_c, 0, 64, 115
1, 1487368, Control_c, 0, 64, 104
1, 1487383, Control_c, 0, 64, 96
1, 1487389, Note_off_c, 0, 60, 56
1, 1487398, Control_c, 0, 64, 88
1, 1487413, Control_c, 0, 64, 83
1, 1487428, Control_c, 0, 64, 79
1, 1487434, Note_on_c, 0, 66, 57
1, 1487437, Note_on_c, 0, 90, 63
1, 1487442, Control_c, 0, 64, 74
1, 1487457, Control_c, 0, 64, 65
1, 1487463, Note_off_c, 0, 90, 69
1, 1487472, Control_c, 0, 64, 49
1, 1487475, Note_off_c, 0, 66, 62
1, 1487487, Control_c, 0, 64, 0
1, 1487523, Note_on_c, 0, 91, 78
1, 1487546, Note_off_c, 0, 91, 69
1, 1487547, Note_on_c, 0, 55, 54
1, 1487580, Note_off_c, 0, 55, 64
1, 1487699, Poly_aftertouch_c, 0, 59, 127
1, 1487732, Poly_aftertouch_c, 0, 59, 0
1, 1487738, Note_on_c, 0, 67, 54
1, 1487751, Note_on_c, 0, 91, 63
1, 1487769, Note_off_c, 0, 91, 67
1, 1487773, Note_off_c, 0, 67, 64
1, 1487830, Note_on_c, 0, 55, 48
1, 1487834, Note_on_c, 0, 91, 84
1, 1487860, Note_off_c, 0, 91, 65
1, 1487872, Note_off_c, 0, 55, 63
1, 1487931, Note_on_c, 0, 60, 52
1, 1488003, Note_off_c, 0, 60, 52
1, 1488043, Note_on_c, 0, 63, 52
1, 1488065, Note_on_c, 0, 91, 57
1, 1488071, Note_off_c, 0, 63, 62
1, 1488089, Note_off_c, 0, 91, 66
1, 1488134, Note_on_c, 0, 55, 53
1, 1488158, Note_on_c, 0, 91, 80
1, 1488178, Note_off_c, 0, 91, 71
1, 1488212, Note_off_c, 0, 55, 60
1, 1488248, Note_on_c, 0, 59, 43
1, 1488294, Note_off_c, 0, 59, 44
1, 1488356, Note_on_c, 0, 91, 67
1, 1488358, Note_on_c, 0, 62, 41
1, 1488381, Note_off_c, 0, 91, 70
1, 1488407, Note_off_c, 0, 62, 52
1, 1488449, Note_on_c, 0, 55, 54
1, 1488449, Note_on_c, 0, 91, 84
1, 1488474, Note_off_c, 0, 91, 65
1, 1488489, Note_off_c, 0, 55, 64
1, 1488575, Note_on_c, 0, 60, 24
1, 1488623, Note_off_c, 0, 60, 57
1, 1488656, Note_on_c, 0, 91, 67
1, 1488671, Note_on_c, 0, 63, 44
1, 1488688, Note_off_c, 0, 91, 69
1, 1488706, Note_off_c, 0, 63, 58
1, 1488758, Note_on_c, 0, 91, 82
1, 1488768, Note_on_c, 0, 55, 55
1, 1488772, Note_off_c, 0, 91, 71
1, 1488814, Note_off_c, 0, 55, 60
1, 1488882, Note_on_c, 0, 59, 44
1, 1488933, Note_off_c, 0, 59, 59
1, 1488968, Note_on_c, 0, 62, 46
1, 1489019, Note_off_c, 0, 62, 56
1, 1489062, Note_on_c, 0, 55, 50
1, 1489105, Note_off_c, 0, 55, 64
1, 1489146, Note_on_c, 0, 60, 51
1, 1489210, Note_on_c, 0, 79, 73
1, 1489213, Note_off_c, 0, 60, 60
1, 1489228, Note_off_c, 0, 79, 74
1, 1489258, Note_on_c, 0, 63, 42
1, 1489302, Note_off_c, 0, 63, 46
1, 1489391, Note_on_c, 0, 55, 50
1, 1489400, Note_on_c, 0, 80, 80
1, 1489516, Note_off_c, 0, 55, 58
1, 1489540, Note_on_c, 0, 59, 45
1, 1489560, Note_on_c, 0, 79, 73
1, 1489571, Note_off_c, 0, 80, 62
1, 1489583, Note_off_c, 0, 59, 63
1, 1489590, Note_off_c, 0, 79, 61
1, 1489617, Note_on_c, 0, 62, 50
1, 1489660, Note_off_c, 0, 62, 60
1, 1489712, Note_on_c, 0, 55, 49
1, 1489743, Note_on_c, 0, 79, 64
1, 1489755, Note_off_c, 0, 55, 63
1, 1489766, Note_off_c, 0, 79, 70
1, 1489818, Note_on_c, 0, 60, 25
1, 1489884, Note_off_c, 0, 60, 59
1, 1489891, Note_on_c, 0, 79, 64
1, 1489913, Note_off_c, 0, 79, 71
1, 1489917, Note_on_c, 0, 63, 49
1, 1489959, Note_off_c, 0, 63, 61
1, 1490033, Note_on_c, 0, 55, 50
1, 1490039, Note_on_c, 0, 79, 57
1, 1490087, Note_off_c, 0, 55, 55
1, 1490118, Note_off_c, 0, 79, 62
1, 1490122, Note_on_c, 0, 59, 48
1, 1490173, Note_off_c, 0, 59, 61
1, 1490230, Note_on_c, 0, 62, 49
1, 1490277, Note_off_c, 0, 62, 59
1, 1490325, Note_on_c, 0, 55, 52
1, 1490373, Note_off_c, 0, 55, 62
1, 1490420, Note_on_c, 0, 60, 56
1, 1490471, Note_on_c, 0, 94, 68
1, 1490485, Note_off_c, 0, 94, 65
1, 1490486, Note_off_c, 0, 60, 58
1, 1490533, Note_on_c, 0, 63, 55
1, 1490572, Note_off_c, 0, 63, 60
1, 1490630, Control_c, 0, 64, 44
1, 1490635, Note_on_c, 0, 92, 78
1, 1490645, Control_c, 0, 64, 60
1, 1490650, Note_on_c, 0, 55, 55
1, 1490660, Control_c, 0, 64, 68
1, 1490675, Control_c, 0, 64, 76
1, 1490689, Control_c, 0, 64, 85
1, 1490704, Control_c, 0, 64, 97
1, 1490719, Control_c, 0, 64, 113
1, 1490734, Control_c, 0, 64, 127
1, 1490763, Control_c, 0, 64, 117
1, 1490772, Note_off_c, 0, 55, 59
1, 1490778, Control_c, 0, 64, 79
1, 1490782, Note_on_c, 0, 59, 55
1, 1490793, Control_c, 0, 64, 52
1, 1490802, Note_off_c, 0, 92, 62
1, 1490802, Note_on_c, 0, 91, 69
1, 1490808, Control_c, 0, 64, 0
1, 1490827, Note_off_c, 0, 91, 69
1, 1490830, Note_off_c, 0, 59, 61
1, 1490857, Note_on_c, 0, 62, 51
1, 1490897, Note_off_c, 0, 62, 59
1, 1490962, Note_on_c, 0, 55, 50
1, 1490982, Note_on_c, 0, 91, 54
1, 1491004, Note_off_c, 0, 91, 55
1, 1491010, Note_off_c, 0, 55, 62
1, 1491063, Note_on_c, 0, 60, 57
1, 1491119, Note_on_c, 0, 91, 60
1, 1491135, Note_off_c, 0, 60, 60
1, 1491145, Note_off_c, 0, 91, 69
1, 1491178, Note_on_c, 0, 63, 45
1, 1491221, Note_off_c, 0, 63, 59
1, 1491270, Note_on_c, 0, 91, 59
1, 1491274, Note_on_c, 0, 55, 51
1, 1491290, Control_c, 0, 64, 32
1, 1491304, Control_c, 0, 64, 30
1, 1491314, Note_off_c, 0, 91, 64
1, 1491319, Control_c, 0, 64, 0
1, 1491356, Note_off_c, 0, 55, 58
1, 1491377, Note_on_c, 0, 59, 55
1, 1491439, Note_off_c, 0, 59, 59
1, 1491488, Note_on_c, 0, 62, 50
1, 1491541, Note_off_c, 0, 62, 54
1, 1491571, Note_on_c, 0, 55, 53
1, 1491623, Note_off_c, 0, 55, 59
1, 1491672, Note_on_c, 0, 60, 57
1, 1491709, Note_on_c, 0, 67, 73
1, 1491731, Note_off_c, 0, 67, 69
1, 1491734, Note_off_c, 0, 60, 59
1, 1491795, Note_on_c, 0, 63, 40
1, 1491842, Note_off_c, 0, 63, 45
1, 1491860, Control_c, 0, 64, 29
1, 1491875, Control_c, 0, 64, 48
1, 1491878, Note_on_c, 0, 68, 69
1, 1491890, Control_c, 0, 64, 60
1, 1491905, Control_c, 0, 64, 63
1, 1491919, Note_on_c, 0, 55, 43
1, 1491919, Control_c, 0, 64, 65
1, 1491934, Control_c, 0, 64, 67
1, 1491949, Control_c, 0, 64, 69
1, 1491963, Control_c, 0, 64, 72
1, 1491978, Control_c, 0, 64, 75
1, 1491993, Control_c, 0, 64, 74
1, 1492000, Note_off_c, 0, 55, 59
1, 1492008, Control_c, 0, 64, 65
1, 1492015, Note_on_c, 0, 59, 60
1, 1492023, Control_c, 0, 64, 35
1, 1492033, Note_on_c, 0, 67, 68
1, 1492037, Control_c, 0, 64, 0
1, 1492042, Note_off_c, 0, 68, 60
1, 1492060, Note_off_c, 0, 67, 65
1, 1492063, Note_off_c, 0, 59, 59
1, 1492120, Note_on_c, 0, 62, 48
1, 1492154, Note_off_c, 0, 62, 54
1, 1492200, Note_on_c, 0, 67, 61
1, 1492209, Note_on_c, 0, 55, 47
1, 1492221, Note_off_c, 0, 67, 64
1, 1492257, Note_off_c, 0, 55, 58
1, 1492300, Note_on_c, 0, 60, 52
1, 1492345, Note_on_c, 0, 67, 57
1, 1492376, Note_off_c, 0, 67, 64
1, 1492379, Note_off_c, 0, 60, 61
1, 1492412, Note_on_c, 0, 63, 52
1, 1492460, Note_off_c, 0, 63, 61
1, 1492499, Note_on_c, 0, 67, 55
1, 1492524, Note_on_c, 0, 55, 53
1, 1492534, Control_c, 0, 64, 28
1, 1492579, Note_off_c, 0, 55, 52
1, 1492608, Control_c, 0, 64, 38
1, 1492623, Control_c, 0, 64, 49
1, 1492628, Note_on_c, 0, 59, 49
1, 1492638, Control_c, 0, 64, 57
1, 1492643, Note_off_c, 0, 67, 62
1, 1492653, Control_c, 0, 64, 60
1, 1492668, Control_c, 0, 64, 61
1, 1492686, Note_off_c, 0, 59, 58
1, 1492698, Control_c, 0, 64, 61
1, 1492727, Control_c, 0, 64, 60
1, 1492735, Note_on_c, 0, 62, 50
1, 1492742, Control_c, 0, 64, 50
1, 1492757, Control_c, 0, 64, 0
1, 1492783, Note_off_c, 0, 62, 57
1, 1492816, Note_on_c, 0, 55, 57
1, 1492860, Note_off_c, 0, 55, 64
1, 1492912, Note_on_c, 0, 60, 50
1, 1492973, Note_off_c, 0, 60, 60
1, 1493001, Note_on_c, 0, 82, 70
1, 1493019, Note_on_c, 0, 63, 46
1, 1493025, Note_off_c, 0, 82, 69
1, 1493047, Note_off_c, 0, 63, 57
1, 1493097, Note_on_c, 0, 80, 72
1, 1493098, Control_c, 0, 64, 40
1, 1493113, Control_c, 0, 64, 55
1, 1493127, Control_c, 0, 64, 60
1, 1493132, Note_on_c, 0, 55, 53
1, 1493157, Control_c, 0, 64, 57
1, 1493180, Control_c, 0, 64, 48
1, 1493195, Control_c, 0, 64, 0
1, 1493214, Note_off_c, 0, 55, 54
1, 1493242, Note_on_c, 0, 59, 50
1, 1493275, Note_on_c, 0, 79, 62
1, 1493280, Note_off_c, 0, 80, 61
1, 1493290, Note_off_c, 0, 59, 61
1, 1493297, Note_off_c, 0, 79, 70
1, 1493346, Note_on_c, 0, 62, 44
1, 1493389, Note_off_c, 0, 62, 60
1, 1493424, Note_on_c, 0, 79, 55
1, 1493425, Note_on_c, 0, 55, 55
1, 1493446, Note_off_c, 0, 79, 65
1, 1493476, Note_off_c, 0, 55, 58
1, 1493521, Note_on_c, 0, 60, 45
1, 1493567, Note_on_c, 0, 79, 55
1, 1493592, Note_off_c, 0, 79, 67
1, 1493596, Note_off_c, 0, 60, 63
1, 1493618, Note_on_c, 0, 63, 61
1, 1493660, Note_off_c, 0, 63, 62
1, 1493714, Control_c, 0, 64, 33
1, 1493726, Note_on_c, 0, 80, 70
1, 1493736, Note_on_c, 0, 55, 55
1, 1493744, Control_c, 0, 64, 0
1, 1493795, Note_off_c, 0, 55, 56
1, 1493827, Note_on_c, 0, 59, 49
1, 1493857, Note_off_c, 0, 80, 55
1, 1493872, Note_on_c, 0, 79, 61
1, 1493888, Note_off_c, 0, 59, 58
1, 1493896, Note_off_c, 0, 79, 69
1, 1493933, Note_on_c, 0, 62, 44
1, 1493972, Note_off_c, 0, 62, 55
1, 1494020, Note_on_c, 0, 55, 55
1, 1494057, Note_on_c, 0, 79, 34
1, 1494062, Note_off_c, 0, 55, 61
1, 1494090, Note_off_c, 0, 79, 54
1, 1494102, Note_on_c, 0, 60, 51
1, 1494164, Note_off_c, 0, 60, 60
1, 1494195, Note_on_c, 0, 79, 52
1, 1494210, Note_on_c, 0, 63, 52
1, 1494223, Note_off_c, 0, 79, 66
1, 1494235, Note_off_c, 0, 63, 61
1, 1494398, Note_on_c, 0, 79, 39
1, 1494427, Note_on_c, 0, 62, 38
1, 1494432, Note_on_c, 0, 55, 22
1, 1494442, Note_on_c, 0, 59, 39
1, 1494489, Note_off_c, 0, 55, 62
1, 1494495, Note_off_c, 0, 59, 52
1, 1494514, Note_off_c, 0, 62, 49
1, 1494559, Note_off_c, 0, 79, 59
1, 1494767, Control_c, 0, 67, 125
1, 1494781, Control_c, 0, 67, 122
1, 1494796, Control_c, 0, 64, 28
1, 1494796, Control_c, 0, 67, 117
1, 1494811, Control_c, 0, 67, 108
1, 1494826, Control_c, 0, 64, 33
1, 1494826, Control_c, 0, 67, 100
1, 1494841, Control_c, 0, 64, 40
1, 1494841, Control_c, 0, 67, 94
1, 1494856, Control_c, 0, 64, 45
1, 1494856, Control_c, 0, 67, 90
1, 1494871, Control_c, 0, 64, 47
1, 1494871, Control_c, 0, 67, 87
1, 1494886, Control_c, 0, 64, 47
1, 1494886, Control_c, 0, 67, 84
1, 1494901, Control_c, 0, 64, 48
1, 1494901, Control_c, 0, 67, 82
1, 1494916, Control_c, 0, 64, 49
1, 1494916, Control_c, 0, 67, 79
1, 1494930, Control_c, 0, 64, 51
1, 1494930, Control_c, 0, 67, 76
1, 1494945, Control_c, 0, 64, 54
1, 1494945, Control_c, 0, 67, 73
1, 1494960, Control_c, 0, 64, 55
1, 1494960, Control_c, 0, 67, 69
1, 1494974, Control_c, 0, 67, 65
1, 1494989, Control_c, 0, 67, 63
1, 1495004, Control_c, 0, 64, 56
1, 1495004, Control_c, 0, 67, 61
1, 1495019, Control_c, 0, 64, 58
1, 1495019, Control_c, 0, 67, 60
1, 1495034, Control_c, 0, 64, 60
1, 1495034, Control_c, 0, 67, 60
1, 1495048, Control_c, 0, 67, 59
1, 1495107, Control_c, 0, 64, 60
1, 1495107, Control_c, 0, 67, 58
1, 1495122, Control_c, 0, 67, 57
1, 1495137, Control_c, 0, 67, 57
1, 1495167, Control_c, 0, 64, 61
1, 1495181, Control_c, 0, 64, 61
1, 1495181, Control_c, 0, 67, 56
1, 1495196, Control_c, 0, 64, 62
1, 1495196, Control_c, 0, 67, 55
1, 1495257, Control_c, 0, 67, 54
1, 1495271, Control_c, 0, 64, 63
1, 1495271, Control_c, 0, 67, 53
1, 1495286, Control_c, 0, 64, 64
1, 1495286, Control_c, 0, 67, 52
1, 1495287, Note_on_c, 0, 67, 79
1, 1495301, Control_c, 0, 64, 68
1, 1495301, Control_c, 0, 67, 38
1, 1495310, Note_on_c, 0, 55, 50
1, 1495316, Control_c, 0, 64, 73
1, 1495316, Control_c, 0, 67, 0
1, 1495331, Control_c, 0, 64, 79
1, 1495338, Note_off_c, 0, 55, 60
1, 1495346, Control_c, 0, 64, 85
1, 1495360, Control_c, 0, 64, 93
1, 1495375, Control_c, 0, 64, 104
1, 1495390, Control_c, 0, 64, 127
1, 1496310, Note_off_c, 0, 67, 60
1, 1496679, Control_c, 0, 67, 34
1, 1496694, Control_c, 0, 67, 46
1, 1496708, Control_c, 0, 67, 57
1, 1496723, Control_c, 0, 67, 70
1, 1496738, Control_c, 0, 67, 95
1, 1496752, Control_c, 0, 67, 127
1, 1497192, Note_on_c, 0, 74, 60
1, 1497229, Note_off_c, 0, 74, 59
1, 1497250, Control_c, 0, 64, 101
1, 1497260, Note_on_c, 0, 55, 62
1, 1497262, Note_on_c, 0, 72, 63
1, 1497265, Control_c, 0, 64, 67
1, 1497280, Control_c, 0, 64, 35
1, 1497294, Note_off_c, 0, 55, 64
1, 1497295, Control_c, 0, 64, 0
1, 1497476, Note_off_c, 0, 72, 51
1, 1497494, Note_on_c, 0, 71, 65
1, 1497497, Note_on_c, 0, 67, 41
1, 1497524, Note_off_c, 0, 71, 63
1, 1497525, Note_off_c, 0, 67, 57
1, 1497694, Note_on_c, 0, 65, 55
1, 1497703, Note_on_c, 0, 71, 61
1, 1497707, Note_on_c, 0, 62, 39
1, 1497716, Note_off_c, 0, 65, 62
1, 1497730, Note_off_c, 0, 71, 65
1, 1497737, Note_off_c, 0, 62, 53
1, 1497882, Note_on_c, 0, 71, 63
1, 1497899, Note_on_c, 0, 67, 36
1, 1497912, Note_off_c, 0, 71, 63
1, 1497931, Note_off_c, 0, 67, 49
1, 1498084, Note_on_c, 0, 71, 51
1, 1498088, Note_on_c, 0, 55, 35
1, 1498141, Note_off_c, 0, 55, 55
1, 1498281, Note_on_c, 0, 67, 47
1, 1498284, Note_on_c, 0, 72, 53
1, 1498296, Control_c, 0, 64, 28
1, 1498305, Note_off_c, 0, 71, 60
1, 1498311, Control_c, 0, 64, 33
1, 1498322, Note_off_c, 0, 67, 59
1, 1498323, Note_off_c, 0, 72, 63
1, 1498325, Control_c, 0, 64, 36
1, 1498340, Control_c, 0, 64, 33
1, 1498355, Control_c, 0, 64, 0
1, 1498439, Note_on_c, 0, 63, 53
1, 1498464, Note_off_c, 0, 63, 61
1, 1498618, Note_on_c, 0, 67, 50
1, 1498660, Note_off_c, 0, 67, 58
1, 1498695, Note_on_c, 0, 75, 70
1, 1498744, Note_off_c, 0, 75, 46
1, 1498774, Note_on_c, 0, 72, 77
1, 1498788, Note_on_c, 0, 55, 45
1, 1498820, Note_off_c, 0, 55, 58
1, 1498944, Note_on_c, 0, 67, 59
1, 1498946, Note_on_c, 0, 71, 71
1, 1498952, Note_off_c, 0, 72, 61
1, 1498973, Note_off_c, 0, 67, 65
1, 1498977, Note_off_c, 0, 71, 61
1, 1499102, Note_on_c, 0, 65, 53
1, 1499104, Note_on_c, 0, 71, 68
1, 1499107, Note_on_c, 0, 62, 48
1, 1499125, Note_off_c, 0, 65, 59
1, 1499129, Note_off_c, 0, 71, 67
1, 1499139, Note_off_c, 0, 62, 64
1, 1499267, Note_on_c, 0, 71, 64
1, 1499289, Note_on_c, 0, 67, 45
1, 1499298, Note_off_c, 0, 71, 63
1, 1499316, Note_off_c, 0, 67, 58
1, 1499430, Note_on_c, 0, 71, 66
1, 1499440, Note_on_c, 0, 55, 43
1, 1499475, Note_off_c, 0, 55, 57
1, 1499586, Note_on_c, 0, 67, 59
1, 1499587, Note_on_c, 0, 72, 68
1, 1499613, Note_off_c, 0, 71, 62
1, 1499618, Note_off_c, 0, 67, 62
1, 1499624, Note_off_c, 0, 72, 60
1, 1499740, Note_on_c, 0, 54, 40
1, 1499741, Note_on_c, 0, 60, 50
1, 1499745, Note_on_c, 0, 63, 50
1, 1499766, Note_off_c, 0, 54, 58
1, 1499766, Note_off_c, 0, 60, 63
1, 1499768, Note_off_c, 0, 63, 57
1, 1499891, Note_on_c, 0, 66, 55
1, 1499920, Note_off_c, 0, 66, 62
1, 1499973, Note_on_c, 0, 75, 74
1, 1500053, Note_on_c, 0, 72, 79
1, 1500053, Control_c, 0, 64, 40
1, 1500058, Note_off_c, 0, 75, 59
1, 1500063, Note_on_c, 0, 53, 37
1, 1500068, Control_c, 0, 64, 38
1, 1500082, Control_c, 0, 64, 0
1, 1500138, Note_off_c, 0, 53, 46
1, 1500200, Note_on_c, 0, 65, 56
1, 1500204, Note_on_c, 0, 70, 76
1, 1500211, Note_off_c, 0, 72, 62
1, 1500228, Note_off_c, 0, 65, 64
1, 1500229, Note_off_c, 0, 70, 66
1, 1500350, Note_on_c, 0, 70, 71
1, 1500362, Note_on_c, 0, 62, 62
1, 1500375, Note_off_c, 0, 70, 68
1, 1500390, Note_off_c, 0, 62, 65
1, 1500513, Note_on_c, 0, 70, 62
1, 1500538, Note_on_c, 0, 65, 28
1, 1500541, Note_off_c, 0, 70, 68
1, 1500570, Note_off_c, 0, 65, 47
1, 1500670, Note_on_c, 0, 72, 63
1, 1500673, Note_on_c, 0, 55, 48
1, 1500719, Note_off_c, 0, 55, 59
1, 1500822, Note_off_c, 0, 72, 60
1, 1500832, Note_on_c, 0, 70, 60
1, 1500833, Note_on_c, 0, 64, 53
1, 1500861, Note_off_c, 0, 70, 66
1, 1500865, Note_off_c, 0, 64, 65
1, 1500984, Note_on_c, 0, 70, 53
1, 1501001, Note_on_c, 0, 60, 37
1, 1501017, Note_off_c, 0, 70, 66
1, 1501033, Note_off_c, 0, 60, 55
1, 1501135, Note_on_c, 0, 70, 59
1, 1501147, Note_on_c, 0, 64, 52
1, 1501167, Note_off_c, 0, 70, 64
1, 1501177, Note_off_c, 0, 64, 64
1, 1501280, Note_on_c, 0, 72, 55
1, 1501290, Note_on_c, 0, 53, 44
1, 1501292, Note_on_c, 0, 62, 49
1, 1501315, Note_off_c, 0, 72, 61
1, 1501319, Note_off_c, 0, 53, 51
1, 1501319, Note_off_c, 0, 62, 58
1, 1501350, Note_on_c, 0, 70, 58
1, 1501383, Note_off_c, 0, 70, 66
1, 1501440, Note_on_c, 0, 69, 45
1, 1501445, Note_on_c, 0, 65, 54
1, 1501471, Note_off_c, 0, 69, 53
1, 1501482, Note_on_c, 0, 70, 66
1, 1501482, Note_off_c, 0, 65, 62
1, 1501542, Note_off_c, 0, 70, 63
1, 1501569, Note_on_c, 0, 72, 53
1, 1501592, Note_on_c, 0, 53, 28
1, 1501599, Note_off_c, 0, 72, 65
1, 1501629, Note_off_c, 0, 53, 44
1, 1501739, Note_on_c, 0, 74, 55
1, 1501756, Note_on_c, 0, 65, 35
1, 1501762, Note_off_c, 0, 74, 61
1, 1501787, Note_off_c, 0, 65, 49
1, 1501919, Note_on_c, 0, 70, 47
1, 1501936, Note_on_c, 0, 58, 50
1, 1501946, Note_on_c, 0, 62, 33
1, 1501966, Note_off_c, 0, 58, 65
1, 1501975, Note_off_c, 0, 62, 51
1, 1502059, Note_off_c, 0, 70, 64
1, 1502609, Control_c, 0, 67, 123
1, 1502624, Control_c, 0, 67, 120
1, 1502639, Control_c, 0, 67, 118
1, 1502654, Control_c, 0, 67, 111
1, 1502669, Control_c, 0, 67, 102
1, 1502684, Control_c, 0, 67, 95
1, 1502696, Note_on_c, 0, 67, 72
1, 1502699, Control_c, 0, 64, 31
1, 1502699, Control_c, 0, 67, 87
1, 1502707, Note_on_c, 0, 55, 50
1, 1502713, Control_c, 0, 64, 44
1, 1502713, Control_c, 0, 67, 67
1, 1502728, Control_c, 0, 64, 58
1, 1502728, Control_c, 0, 67, 0
1, 1502743, Control_c, 0, 64, 66
1, 1502758, Control_c, 0, 64, 76
1, 1502773, Control_c, 0, 64, 101
1, 1502787, Control_c, 0, 64, 127
1, 1503504, Note_off_c, 0, 55, 48
1, 1503539, Note_off_c, 0, 67, 60
1, 1503781, Control_c, 0, 67, 39
1, 1503796, Control_c, 0, 67, 65
1, 1503811, Control_c, 0, 67, 87
1, 1503825, Control_c, 0, 67, 102
1, 1503840, Control_c, 0, 67, 114
1, 1503855, Control_c, 0, 67, 127
1, 1504062, Note_on_c, 0, 86, 57
1, 1504108, Control_c, 0, 64, 100
1, 1504117, Note_off_c, 0, 86, 53
1, 1504123, Control_c, 0, 64, 69
1, 1504129, Note_on_c, 0, 55, 48
1, 1504138, Control_c, 0, 64, 44
1, 1504141, Note_on_c, 0, 84, 66
1, 1504153, Control_c, 0, 64, 0
1, 1504160, Note_off_c, 0, 55, 62
1, 1504350, Note_on_c, 0, 83, 61
1, 1504352, Note_on_c, 0, 67, 52
1, 1504360, Note_off_c, 0, 84, 44
1, 1504376, Note_off_c, 0, 67, 60
1, 1504386, Note_off_c, 0, 83, 56
1, 1504537, Note_on_c, 0, 65, 47
1, 1504538, Note_on_c, 0, 83, 62
1, 1504540, Note_on_c, 0, 62, 49
1, 1504561, Note_off_c, 0, 65, 57
1, 1504564, Note_off_c, 0, 62, 61
1, 1504565, Note_off_c, 0, 83, 67
1, 1504709, Note_on_c, 0, 67, 58
1, 1504712, Note_on_c, 0, 83, 68
1, 1504738, Note_off_c, 0, 67, 65
1, 1504747, Note_off_c, 0, 83, 55
1, 1504887, Note_on_c, 0, 83, 61
1, 1504889, Note_on_c, 0, 55, 48
1, 1504902, Control_c, 0, 64, 40
1, 1504916, Control_c, 0, 64, 51
1, 1504931, Control_c, 0, 64, 54
1, 1504933, Note_off_c, 0, 55, 57
1, 1504946, Control_c, 0, 64, 54
1, 1504961, Control_c, 0, 64, 56
1, 1504976, Control_c, 0, 64, 58
1, 1504990, Control_c, 0, 64, 61
1, 1505005, Control_c, 0, 64, 64
1, 1505020, Control_c, 0, 64, 65
1, 1505035, Control_c, 0, 64, 66
1, 1505050, Control_c, 0, 64, 68
1, 1505063, Note_on_c, 0, 84, 70
1, 1505064, Note_on_c, 0, 67, 60
1, 1505064, Control_c, 0, 64, 69
1, 1505079, Control_c, 0, 64, 70
1, 1505080, Note_off_c, 0, 83, 64
1, 1505084, Note_off_c, 0, 84, 71
1, 1505099, Note_off_c, 0, 67, 60
1, 1505108, Control_c, 0, 64, 68
1, 1505123, Control_c, 0, 64, 61
1, 1505138, Control_c, 0, 64, 39
1, 1505161, Control_c, 0, 64, 0
1, 1505226, Note_on_c, 0, 63, 61
1, 1505238, Note_on_c, 0, 60, 38
1, 1505257, Note_off_c, 0, 63, 64
1, 1505267, Note_off_c, 0, 60, 50
1, 1505411, Note_on_c, 0, 67, 56
1, 1505453, Note_off_c, 0, 67, 58
1, 1505454, Note_on_c, 0, 87, 66
1, 1505489, Note_off_c, 0, 87, 55
1, 1505530, Note_on_c, 0, 84, 79
1, 1505558, Note_on_c, 0, 55, 62
1, 1505560, Control_c, 0, 64, 38
1, 1505575, Control_c, 0, 64, 41
1, 1505590, Control_c, 0, 64, 0
1, 1505603, Note_off_c, 0, 55, 58
1, 1505707, Note_on_c, 0, 67, 65
1, 1505707, Note_on_c, 0, 83, 79
1, 1505728, Note_off_c, 0, 84, 62
1, 1505733, Note_off_c, 0, 67, 68
1, 1505744, Note_off_c, 0, 83, 62
1, 1505859, Note_on_c, 0, 83, 86
1, 1505869, Note_on_c, 0, 62, 63
1, 1505873, Note_on_c, 0, 65, 59
1, 1505893, Note_off_c, 0, 65, 62
1, 1505897, Note_off_c, 0, 83, 65
1, 1505897, Note_off_c, 0, 62, 65
1, 1506034, Note_on_c, 0, 83, 67
1, 1506052, Note_on_c, 0, 67, 41
1, 1506065, Note_off_c, 0, 83, 61
1, 1506079, Note_off_c, 0, 67, 54
1, 1506189, Note_on_c, 0, 83, 74
1, 1506193, Note_on_c, 0, 55, 59
1, 1506232, Note_off_c, 0, 55, 61
1, 1506279, Control_c, 0, 64, 30
1, 1506324, Control_c, 0, 64, 33
1, 1506338, Control_c, 0, 64, 40
1, 1506345, Note_on_c, 0, 84, 78
1, 1506346, Note_on_c, 0, 67, 64
1, 1506353, Control_c, 0, 64, 51
1, 1506368, Note_off_c, 0, 83, 64
1, 1506368, Control_c, 0, 64, 57
1, 1506383, Note_off_c, 0, 84, 65
1, 1506383, Control_c, 0, 64, 56
1, 1506393, Note_off_c, 0, 67, 60
1, 1506398, Control_c, 0, 64, 47
1, 1506412, Control_c, 0, 64, 0
1, 1506473, Control_c, 0, 67, 120
1, 1506487, Control_c, 0, 67, 104
1, 1506493, Note_on_c, 0, 60, 61
1, 1506502, Control_c, 0, 67, 95
1, 1506504, Note_on_c, 0, 63, 57
1, 1506505, Note_on_c, 0, 54, 57
1, 1506517, Control_c, 0, 67, 93
1, 1506524, Note_off_c, 0, 63, 63
1, 1506527, Note_off_c, 0, 60, 66
1, 1506534, Note_off_c, 0, 54, 65
1, 1506547, Control_c, 0, 67, 95
1, 1506561, Control_c, 0, 67, 97
1, 1506621, Control_c, 0, 67, 102
1, 1506635, Control_c, 0, 67, 105
1, 1506665, Note_on_c, 0, 66, 68
1, 1506694, Note_off_c, 0, 66, 65
1, 1506729, Note_on_c, 0, 87, 59
1, 1506821, Control_c, 0, 64, 28
1, 1506821, Note_on_c, 0, 84, 72
1, 1506827, Note_off_c, 0, 87, 62
1, 1506835, Control_c, 0, 64, 44
1, 1506835, Control_c, 0, 67, 101
1, 1506850, Control_c, 0, 64, 56
1, 1506855, Note_on_c, 0, 53, 46
1, 1506865, Control_c, 0, 64, 62
1, 1506880, Control_c, 0, 64, 64
1, 1506894, Control_c, 0, 67, 99
1, 1506909, Control_c, 0, 67, 97
1, 1506924, Control_c, 0, 64, 63
1, 1506954, Control_c, 0, 64, 60
1, 1506968, Control_c, 0, 64, 44
1, 1506968, Control_c, 0, 67, 95
1, 1506972, Note_on_c, 0, 82, 71
1, 1506978, Note_off_c, 0, 84, 64
1, 1506984, Control_c, 0, 64, 0
1, 1506984, Control_c, 0, 67, 91
1, 1506987, Note_on_c, 0, 65, 58
1, 1506999, Control_c, 0, 67, 90
1, 1507005, Note_off_c, 0, 82, 59
1, 1507014, Note_off_c, 0, 53, 28
1, 1507017, Note_off_c, 0, 65, 64
1, 1507028, Control_c, 0, 67, 89
1, 1507043, Control_c, 0, 67, 87
1, 1507058, Control_c, 0, 67, 79
1, 1507073, Control_c, 0, 67, 65
1, 1507087, Control_c, 0, 67, 58
1, 1507102, Control_c, 0, 67, 57
1, 1507117, Control_c, 0, 67, 56
1, 1507126, Note_on_c, 0, 82, 71
1, 1507132, Control_c, 0, 67, 55
1, 1507135, Note_on_c, 0, 62, 57
1, 1507153, Note_off_c, 0, 82, 63
1, 1507157, Note_off_c, 0, 62, 62
1, 1507251, Control_c, 0, 67, 56
1, 1507294, Note_on_c, 0, 82, 65
1, 1507296, Control_c, 0, 67, 56
1, 1507310, Control_c, 0, 67, 60
1, 1507319, Note_on_c, 0, 65, 37
1, 1507321, Note_off_c, 0, 82, 65
1, 1507325, Control_c, 0, 67, 63
1, 1507340, Control_c, 0, 67, 62
1, 1507351, Note_off_c, 0, 65, 53
1, 1507355, Control_c, 0, 67, 60
1, 1507370, Control_c, 0, 67, 60
1, 1507385, Control_c, 0, 67, 60
1, 1507400, Control_c, 0, 67, 61
1, 1507456, Note_on_c, 0, 84, 65
1, 1507463, Note_on_c, 0, 55, 46
1, 1507466, Control_c, 0, 67, 61
1, 1507481, Control_c, 0, 67, 65
1, 1507525, Control_c, 0, 67, 64
1, 1507545, Note_off_c, 0, 55, 51
1, 1507555, Control_c, 0, 67, 65
1, 1507570, Control_c, 0, 67, 66
1, 1507584, Control_c, 0, 67, 65
1, 1507599, Control_c, 0, 67, 64
1, 1507611, Note_on_c, 0, 82, 69
1, 1507613, Note_off_c, 0, 84, 62
1, 1507626, Note_on_c, 0, 64, 53
1, 1507629, Control_c, 0, 67, 65
1, 1507640, Note_off_c, 0, 82, 61
1, 1507644, Control_c, 0, 67, 66
1, 1507647, Note_off_c, 0, 64, 62
1, 1507704, Control_c, 0, 67, 68
1, 1507718, Control_c, 0, 67, 73
1, 1507777, Note_on_c, 0, 82, 57
1, 1507778, Control_c, 0, 67, 75
1, 1507781, Note_on_c, 0, 60, 55
1, 1507792, Control_c, 0, 67, 80
1, 1507804, Note_off_c, 0, 60, 61
1, 1507807, Control_c, 0, 67, 82
1, 1507810, Note_off_c, 0, 82, 63
1, 1507822, Control_c, 0, 67, 82
1, 1507836, Control_c, 0, 67, 81
1, 1507866, Control_c, 0, 67, 82
1, 1507881, Control_c, 0, 67, 86
1, 1507925, Control_c, 0, 67, 85
1, 1507936, Note_on_c, 0, 82, 56
1, 1507942, Note_on_c, 0, 64, 50
1, 1507955, Control_c, 0, 67, 86
1, 1507966, Note_off_c, 0, 82, 63
1, 1507967, Note_off_c, 0, 64, 62
1, 1507970, Control_c, 0, 67, 88
1, 1508030, Control_c, 0, 67, 88
1, 1508045, Control_c, 0, 67, 90
1, 1508059, Control_c, 0, 67, 95
1, 1508074, Control_c, 0, 67, 99
1, 1508079, Note_on_c, 0, 84, 62
1, 1508088, Note_on_c, 0, 62, 55
1, 1508090, Note_on_c, 0, 53, 49
1, 1508112, Note_off_c, 0, 84, 62
1, 1508115, Note_off_c, 0, 53, 58
1, 1508117, Note_off_c, 0, 62, 64
1, 1508119, Control_c, 0, 67, 103
1, 1508133, Control_c, 0, 67, 110
1, 1508156, Note_on_c, 0, 82, 70
1, 1508156, Control_c, 0, 67, 127
1, 1508190, Note_off_c, 0, 82, 61
1, 1508236, Note_on_c, 0, 81, 67
1, 1508265, Note_off_c, 0, 81, 60
1, 1508268, Note_on_c, 0, 65, 43
1, 1508294, Note_off_c, 0, 65, 54
1, 1508309, Note_on_c, 0, 82, 63
1, 1508354, Note_off_c, 0, 82, 56
1, 1508374, Note_on_c, 0, 84, 78
1, 1508381, Note_on_c, 0, 53, 55
1, 1508383, Note_on_c, 0, 63, 60
1, 1508393, Note_off_c, 0, 84, 71
1, 1508402, Note_off_c, 0, 63, 61
1, 1508405, Note_off_c, 0, 53, 62
1, 1508531, Note_on_c, 0, 86, 67
1, 1508535, Note_on_c, 0, 65, 54
1, 1508556, Note_off_c, 0, 86, 68
1, 1508570, Note_off_c, 0, 65, 62
1, 1508685, Note_on_c, 0, 58, 61
1, 1508686, Note_on_c, 0, 62, 50
1, 1508703, Note_on_c, 0, 82, 57
1, 1508711, Note_off_c, 0, 62, 57
1, 1508723, Note_off_c, 0, 58, 65
1, 1508858, Note_on_c, 0, 57, 38
1, 1508860, Note_off_c, 0, 82, 64
1, 1508887, Note_off_c, 0, 57, 50
1, 1509006, Note_on_c, 0, 55, 44
1, 1509045, Note_off_c, 0, 55, 48
1, 1509164, Note_on_c, 0, 74, 68
1, 1509173, Note_on_c, 0, 53, 42
1, 1509193, Note_off_c, 0, 74, 65
1, 1509207, Note_off_c, 0, 53, 58
1, 1509367, Note_on_c, 0, 79, 62
1, 1509379, Note_on_c, 0, 51, 48
1, 1509416, Note_off_c, 0, 51, 57
1, 1509546, Note_on_c, 0, 55, 52
1, 1509552, Note_on_c, 0, 58, 47
1, 1509580, Note_off_c, 0, 58, 55
1, 1509591, Note_off_c, 0, 55, 49
1, 1509629, Note_off_c, 0, 79, 61
1, 1509718, Note_on_c, 0, 48, 57
1, 1509725, Note_on_c, 0, 75, 73
1, 1509777, Note_off_c, 0, 48, 57
1, 1509884, Note_on_c, 0, 55, 46
1, 1509893, Note_on_c, 0, 60, 51
1, 1509910, Note_off_c, 0, 55, 59
1, 1509926, Note_off_c, 0, 60, 63
1, 1510036, Note_on_c, 0, 53, 60
1, 1510040, Note_on_c, 0, 72, 76
1, 1510042, Note_off_c, 0, 75, 62
1, 1510071, Note_off_c, 0, 53, 63
1, 1510202, Note_on_c, 0, 57, 63
1, 1510214, Note_on_c, 0, 60, 52
1, 1510231, Note_off_c, 0, 57, 65
1, 1510243, Note_off_c, 0, 60, 63
1, 1510276, Note_off_c, 0, 72, 61
1, 1510357, Note_on_c, 0, 51, 59
1, 1510363, Note_on_c, 0, 74, 72
1, 1510388, Note_off_c, 0, 51, 63
1, 1510388, Note_off_c, 0, 74, 65
1, 1510526, Note_on_c, 0, 57, 65
1, 1510527, Note_on_c, 0, 75, 74
1, 1510544, Note_on_c, 0, 60, 48
1, 1510556, Note_off_c, 0, 57, 65
1, 1510559, Note_off_c, 0, 75, 61
1, 1510569, Note_off_c, 0, 60, 60
1, 1510700, Note_on_c, 0, 50, 55
1, 1510712, Note_on_c, 0, 77, 68
1, 1510735, Note_off_c, 0, 50, 64
1, 1510755, Note_off_c, 0, 77, 59
1, 1510794, Note_on_c, 0, 79, 69
1, 1510859, Note_on_c, 0, 77, 79
1, 1510875, Note_on_c, 0, 58, 53
1, 1510879, Note_on_c, 0, 53, 50
1, 1510903, Note_off_c, 0, 79, 60
1, 1510915, Note_off_c, 0, 58, 59
1, 1510920, Note_off_c, 0, 53, 57
1, 1510932, Note_on_c, 0, 75, 88
1, 1510935, Note_off_c, 0, 77, 63
1, 1510998, Note_off_c, 0, 75, 58
1, 1511000, Note_on_c, 0, 46, 56
1, 1511015, Note_on_c, 0, 74, 83
1, 1511028, Note_off_c, 0, 46, 62
1, 1511058, Note_off_c, 0, 74, 64
1, 1511088, Note_on_c, 0, 75, 78
1, 1511154, Note_off_c, 0, 75, 63
1, 1511172, Note_on_c, 0, 53, 37
1, 1511173, Note_on_c, 0, 74, 72
1, 1511184, Note_on_c, 0, 58, 31
1, 1511203, Note_off_c, 0, 53, 47
1, 1511215, Note_off_c, 0, 74, 61
1, 1511235, Note_off_c, 0, 58, 55
1, 1511243, Note_on_c, 0, 72, 65
1, 1511314, Note_off_c, 0, 72, 47
1, 1511343, Note_on_c, 0, 70, 61
1, 1511344, Note_on_c, 0, 51, 47
1, 1511379, Note_off_c, 0, 51, 56
1, 1511512, Note_on_c, 0, 58, 49
1, 1511519, Note_on_c, 0, 55, 35
1, 1511551, Note_off_c, 0, 58, 59
1, 1511562, Note_off_c, 0, 55, 49
1, 1511653, Note_on_c, 0, 50, 59
1, 1511688, Note_off_c, 0, 50, 64
1, 1511701, Note_off_c, 0, 70, 64
1, 1511815, Note_on_c, 0, 70, 72
1, 1511820, Note_on_c, 0, 58, 55
1, 1511823, Note_on_c, 0, 55, 45
1, 1511847, Note_off_c, 0, 70, 62
1, 1511853, Note_off_c, 0, 58, 59
1, 1511854, Note_off_c, 0, 55, 53
1, 1511992, Note_on_c, 0, 75, 78
1, 1512000, Note_on_c, 0, 48, 66
1, 1512043, Note_off_c, 0, 48, 60
1, 1512158, Note_on_c, 0, 57, 60
1, 1512162, Note_on_c, 0, 51, 62
1, 1512187, Note_off_c, 0, 57, 65
1, 1512190, Note_off_c, 0, 51, 64
1, 1512238, Note_off_c, 0, 75, 57
1, 1512310, Note_on_c, 0, 45, 68
1, 1512318, Note_on_c, 0, 72, 74
1, 1512347, Note_off_c, 0, 45, 63
1, 1512467, Note_on_c, 0, 57, 69
1, 1512469, Note_on_c, 0, 51, 63
1, 1512497, Note_off_c, 0, 51, 63
1, 1512502, Note_off_c, 0, 57, 64
1, 1512613, Note_on_c, 0, 50, 73
1, 1512619, Note_on_c, 0, 69, 82
1, 1512657, Note_off_c, 0, 72, 62
1, 1512661, Note_off_c, 0, 50, 65
1, 1512779, Note_on_c, 0, 54, 72
1, 1512782, Note_on_c, 0, 57, 74
1, 1512796, Control_c, 0, 67, 89
1, 1512804, Note_off_c, 0, 54, 67
1, 1512810, Note_off_c, 0, 57, 66
1, 1512811, Control_c, 0, 67, 43
1, 1512827, Control_c, 0, 67, 0
1, 1512890, Note_off_c, 0, 69, 62
1, 1512941, Note_on_c, 0, 74, 81
1, 1512943, Note_on_c, 0, 42, 68
1, 1512949, Note_on_c, 0, 62, 70
1, 1512966, Note_off_c, 0, 74, 66
1, 1512971, Note_off_c, 0, 42, 64
1, 1512977, Note_off_c, 0, 62, 65
1, 1513105, Note_on_c, 0, 72, 81
1, 1513105, Note_on_c, 0, 50, 69
1, 1513114, Note_on_c, 0, 54, 63
1, 1513117, Note_on_c, 0, 60, 67
1, 1513130, Note_off_c, 0, 50, 66
1, 1513136, Note_off_c, 0, 60, 66
1, 1513138, Note_off_c, 0, 54, 65
1, 1513141, Note_off_c, 0, 72, 57
1, 1513261, Note_on_c, 0, 43, 73
1, 1513263, Note_on_c, 0, 72, 84
1, 1513271, Control_c, 0, 64, 35
1, 1513285, Note_on_c, 0, 60, 57
1, 1513286, Control_c, 0, 64, 64
1, 1513296, Note_off_c, 0, 43, 66
1, 1513301, Control_c, 0, 64, 69
1, 1513308, Note_off_c, 0, 60, 60
1, 1513345, Control_c, 0, 64, 70
1, 1513360, Control_c, 0, 64, 70
1, 1513374, Control_c, 0, 64, 72
1, 1513386, Note_off_c, 0, 72, 56
1, 1513389, Control_c, 0, 64, 73
1, 1513412, Control_c, 0, 64, 71
1, 1513418, Note_on_c, 0, 55, 76
1, 1513420, Note_on_c, 0, 70, 83
1, 1513427, Control_c, 0, 64, 58
1, 1513436, Note_on_c, 0, 58, 73
1, 1513442, Control_c, 0, 64, 0
1, 1513445, Note_off_c, 0, 55, 66
1, 1513461, Note_off_c, 0, 58, 66
1, 1513475, Note_off_c, 0, 70, 63
1, 1513585, Note_on_c, 0, 39, 62
1, 1513588, Note_on_c, 0, 69, 81
1, 1513606, Note_on_c, 0, 57, 50
1, 1513612, Note_off_c, 0, 69, 67
1, 1513612, Note_off_c, 0, 39, 57
1, 1513633, Note_off_c, 0, 57, 57
1, 1513742, Note_on_c, 0, 51, 69
1, 1513743, Note_on_c, 0, 67, 75
1, 1513747, Note_on_c, 0, 55, 60
1, 1513765, Note_off_c, 0, 67, 70
1, 1513767, Note_off_c, 0, 51, 65
1, 1513772, Note_off_c, 0, 55, 59
1, 1513887, Note_on_c, 0, 36, 77
1, 1513890, Note_on_c, 0, 70, 88
1, 1513902, Control_c, 0, 64, 51
1, 1513907, Note_on_c, 0, 58, 69
1, 1513917, Control_c, 0, 64, 69
1, 1513924, Note_off_c, 0, 36, 63
1, 1513932, Control_c, 0, 64, 75
1, 1513939, Note_off_c, 0, 58, 62
1, 1513946, Control_c, 0, 64, 80
1, 1513961, Control_c, 0, 64, 85
1, 1513976, Control_c, 0, 64, 96
1, 1513991, Control_c, 0, 64, 112
1, 1513996, Note_off_c, 0, 70, 58
1, 1514005, Control_c, 0, 64, 127
1, 1514035, Control_c, 0, 64, 91
1, 1514042, Note_on_c, 0, 48, 82
1, 1514050, Control_c, 0, 64, 60
1, 1514053, Note_on_c, 0, 69, 74
1, 1514064, Note_on_c, 0, 57, 60
1, 1514065, Control_c, 0, 64, 0
1, 1514068, Note_off_c, 0, 48, 66
1, 1514083, Note_off_c, 0, 69, 63
1, 1514092, Note_off_c, 0, 57, 65
1, 1514199, Note_on_c, 0, 38, 68
1, 1514208, Note_on_c, 0, 67, 75
1, 1514223, Note_on_c, 0, 55, 58
1, 1514226, Note_off_c, 0, 38, 64
1, 1514240, Note_off_c, 0, 67, 62
1, 1514247, Note_off_c, 0, 55, 61
1, 1514355, Note_on_c, 0, 50, 79
1, 1514360, Note_on_c, 0, 66, 79
1, 1514366, Note_on_c, 0, 54, 72
1, 1514384, Note_off_c, 0, 50, 67
1, 1514389, Note_off_c, 0, 54, 67
1, 1514399, Note_off_c, 0, 66, 63
1, 1514506, Note_on_c, 0, 39, 82
1, 1514508, Note_on_c, 0, 67, 84
1, 1514512, Note_on_c, 0, 51, 81
1, 1514514, Note_on_c, 0, 55, 70
1, 1514528, Note_off_c, 0, 67, 69
1, 1514530, Note_off_c, 0, 51, 65
1, 1514535, Note_off_c, 0, 55, 63
1, 1514538, Note_off_c, 0, 39, 65
1, 1514834, Note_on_c, 0, 69, 85
1, 1514836, Note_on_c, 0, 62, 89
1, 1514836, Note_on_c, 0, 74, 94
1, 1514837, Note_on_c, 0, 54, 90
1, 1514837, Note_on_c, 0, 50, 91
1, 1514840, Note_on_c, 0, 42, 85
1, 1515146, Control_c, 0, 64, 52
1, 1515161, Control_c, 0, 64, 59
1, 1515175, Control_c, 0, 64, 51
1, 1515183, Note_off_c, 0, 62, 64
1, 1515190, Control_c, 0, 64, 0
1, 1515216, Note_off_c, 0, 69, 61
1, 1515335, Note_on_c, 0, 75, 90
1, 1515343, Note_on_c, 0, 63, 84
1, 1515356, Note_off_c, 0, 74, 61
1, 1515367, Note_off_c, 0, 63, 68
1, 1515391, Note_off_c, 0, 75, 64
1, 1515497, Note_on_c, 0, 74, 90
1, 1515502, Note_on_c, 0, 62, 85
1, 1515522, Note_off_c, 0, 62, 71
1, 1515532, Note_off_c, 0, 74, 63
1, 1515661, Note_on_c, 0, 72, 92
1, 1515667, Note_on_c, 0, 60, 84
1, 1515690, Note_off_c, 0, 60, 72
1, 1515698, Note_off_c, 0, 72, 66
1, 1515724, Note_off_c, 0, 54, 57
1, 1515725, Note_off_c, 0, 42, 59
1, 1515754, Note_off_c, 0, 50, 58
1, 1515817, Note_on_c, 0, 72, 92
1, 1515819, Note_on_c, 0, 43, 79
1, 1515826, Note_on_c, 0, 60, 89
1, 1515850, Control_c, 0, 64, 35
1, 1515865, Control_c, 0, 64, 40
1, 1515875, Note_off_c, 0, 60, 65
1, 1515880, Control_c, 0, 64, 0
1, 1515934, Note_off_c, 0, 43, 61
1, 1515976, Note_on_c, 0, 70, 85
1, 1515979, Note_on_c, 0, 55, 84
1, 1515984, Note_on_c, 0, 58, 81
1, 1515989, Note_off_c, 0, 72, 57
1, 1516008, Note_off_c, 0, 55, 64
1, 1516010, Note_off_c, 0, 58, 69
1, 1516031, Note_off_c, 0, 70, 64
1, 1516124, Note_on_c, 0, 39, 83
1, 1516127, Note_on_c, 0, 69, 82
1, 1516139, Note_on_c, 0, 57, 76
1, 1516165, Note_off_c, 0, 39, 61
1, 1516169, Note_off_c, 0, 57, 69
1, 1516175, Note_off_c, 0, 69, 62
1, 1516276, Note_on_c, 0, 67, 88
1, 1516280, Note_on_c, 0, 51, 75
1, 1516283, Note_on_c, 0, 55, 84
1, 1516305, Note_off_c, 0, 51, 66
1, 1516308, Note_off_c, 0, 55, 67
1, 1516332, Note_off_c, 0, 67, 63
1, 1516438, Note_on_c, 0, 36, 88
1, 1516451, Note_on_c, 0, 68, 95
1, 1516459, Note_on_c, 0, 56, 89
1, 1516508, Note_off_c, 0, 36, 61
1, 1516541, Note_off_c, 0, 68, 63
1, 1516545, Note_off_c, 0, 56, 61
1, 1516600, Note_on_c, 0, 48, 96
1, 1516649, Note_off_c, 0, 48, 62
1, 1516757, Note_on_c, 0, 38, 86
1, 1516760, Note_on_c, 0, 66, 90
1, 1516766, Note_on_c, 0, 54, 81
1, 1516815, Note_off_c, 0, 38, 63
1, 1516820, Note_off_c, 0, 54, 60
1, 1516845, Note_off_c, 0, 66, 62
1, 1516897, Note_on_c, 0, 50, 82
1, 1516936, Note_off_c, 0, 50, 66
1, 1517042, Note_on_c, 0, 31, 91
1, 1517064, Note_on_c, 0, 67, 92
1, 1517067, Note_on_c, 0, 55, 80
1, 1517108, Note_off_c, 0, 31, 62
1, 1517111, Note_off_c, 0, 55, 62
1, 1517192, Note_off_c, 0, 67, 65
1, 1517204, Note_on_c, 0, 43, 84
1, 1517228, Note_off_c, 0, 43, 65
1, 1517421, Note_on_c, 0, 50, 87
1, 1517421, Note_on_c, 0, 62, 94
1, 1517588, Note_on_c, 0, 82, 77
1, 1517598, Note_on_c, 0, 70, 72
1, 1517630, Control_c, 0, 64, 29
1, 1517645, Control_c, 0, 64, 38
1, 1517660, Control_c, 0, 64, 49
1, 1517668, Note_off_c, 0, 62, 64
1, 1517675, Note_off_c, 0, 50, 63
1, 1517675, Control_c, 0, 64, 55
1, 1517690, Control_c, 0, 64, 56
1, 1517699, Note_off_c, 0, 82, 60
1, 1517705, Control_c, 0, 64, 57
1, 1517715, Note_off_c, 0, 70, 44
1, 1517719, Control_c, 0, 64, 57
1, 1517734, Control_c, 0, 64, 59
1, 1517749, Control_c, 0, 64, 59
1, 1517764, Control_c, 0, 64, 57
1, 1517770, Note_on_c, 0, 63, 98
1, 1517775, Note_on_c, 0, 51, 92
1, 1517779, Control_c, 0, 64, 47
1, 1517791, Note_on_c, 0, 81, 82
1, 1517793, Control_c, 0, 64, 0
1, 1517804, Note_on_c, 0, 69, 70
1, 1517852, Control_c, 0, 64, 30
1, 1517858, Note_off_c, 0, 69, 55
1, 1517867, Control_c, 0, 64, 47
1, 1517871, Note_off_c, 0, 81, 61
1, 1517882, Control_c, 0, 64, 60
1, 1517904, Control_c, 0, 64, 64
1, 1517919, Control_c, 0, 64, 65
1, 1517934, Control_c, 0, 64, 66
1, 1517949, Control_c, 0, 64, 69
1, 1517954, Note_on_c, 0, 79, 83
1, 1517961, Note_on_c, 0, 67, 88
1, 1517964, Control_c, 0, 64, 76
1, 1517964, Note_off_c, 0, 63, 63
1, 1517978, Control_c, 0, 64, 85
1, 1517993, Control_c, 0, 64, 95
1, 1517997, Note_off_c, 0, 51, 62
1, 1518002, Note_off_c, 0, 67, 64
1, 1518002, Note_off_c, 0, 79, 66
1, 1518008, Control_c, 0, 64, 105
1, 1518023, Control_c, 0, 64, 113
1, 1518038, Control_c, 0, 64, 117
1, 1518052, Control_c, 0, 64, 112
1, 1518067, Control_c, 0, 64, 92
1, 1518082, Control_c, 0, 64, 71
1, 1518095, Note_on_c, 0, 49, 94
1, 1518095, Note_on_c, 0, 61, 95
1, 1518097, Control_c, 0, 64, 54
1, 1518108, Note_on_c, 0, 79, 77
1, 1518112, Control_c, 0, 64, 0
1, 1518122, Note_on_c, 0, 67, 65
1, 1518156, Control_c, 0, 64, 30
1, 1518157, Note_off_c, 0, 67, 63
1, 1518165, Note_off_c, 0, 79, 65
1, 1518170, Control_c, 0, 64, 46
1, 1518185, Control_c, 0, 64, 61
1, 1518200, Control_c, 0, 64, 66
1, 1518260, Note_on_c, 0, 79, 83
1, 1518265, Note_on_c, 0, 67, 76
1, 1518289, Control_c, 0, 64, 67
1, 1518295, Note_off_c, 0, 61, 62
1, 1518304, Note_off_c, 0, 67, 63
1, 1518304, Note_off_c, 0, 49, 60
1, 1518304, Control_c, 0, 64, 67
1, 1518307, Note_off_c, 0, 79, 66
1, 1518319, Control_c, 0, 64, 67
1, 1518334, Control_c, 0, 64, 65
1, 1518348, Control_c, 0, 64, 56
1, 1518363, Control_c, 0, 64, 32
1, 1518378, Control_c, 0, 64, 0
1, 1518399, Note_on_c, 0, 62, 95
1, 1518404, Note_on_c, 0, 50, 85
1, 1518410, Note_on_c, 0, 79, 87
1, 1518419, Note_on_c, 0, 67, 82
1, 1518468, Control_c, 0, 64, 42
1, 1518468, Note_off_c, 0, 67, 62
1, 1518483, Control_c, 0, 64, 62
1, 1518498, Control_c, 0, 64, 74
1, 1518512, Control_c, 0, 64, 88
1, 1518527, Control_c, 0, 64, 96
1, 1518530, Note_off_c, 0, 79, 63
1, 1518542, Control_c, 0, 64, 103
1, 1518545, Note_off_c, 0, 62, 60
1, 1518557, Control_c, 0, 64, 116
1, 1518559, Note_off_c, 0, 50, 63
1, 1518572, Control_c, 0, 64, 127
1, 1518576, Note_on_c, 0, 78, 79
1, 1518581, Note_on_c, 0, 66, 74
1, 1518606, Note_off_c, 0, 66, 70
1, 1518626, Note_off_c, 0, 78, 60
1, 1518726, Note_on_c, 0, 47, 81
1, 1518727, Control_c, 0, 64, 99
1, 1518742, Control_c, 0, 64, 64
1, 1518757, Control_c, 0, 64, 0
1, 1518774, Note_off_c, 0, 47, 61
1, 1518813, Note_on_c, 0, 59, 77
1, 1518863, Note_off_c, 0, 59, 62
1, 1518870, Note_on_c, 0, 79, 78
1, 1518886, Note_on_c, 0, 67, 72
1, 1518909, Note_off_c, 0, 67, 69
1, 1518913, Note_off_c, 0, 79, 63
1, 1518923, Note_on_c, 0, 47, 80
1, 1518935, Control_c, 0, 67, 38
1, 1518949, Control_c, 0, 67, 54
1, 1518964, Control_c, 0, 67, 53
1, 1518974, Note_off_c, 0, 47, 58
1, 1518979, Control_c, 0, 67, 54
1, 1518993, Control_c, 0, 67, 59
1, 1519008, Control_c, 0, 67, 70
1, 1519023, Note_on_c, 0, 48, 82
1, 1519023, Note_on_c, 0, 77, 86
1, 1519023, Control_c, 0, 67, 69
1, 1519038, Control_c, 0, 64, 47
1, 1519038, Control_c, 0, 67, 63
1, 1519053, Control_c, 0, 64, 68
1, 1519053, Control_c, 0, 67, 60
1, 1519067, Control_c, 0, 64, 81
1, 1519067, Control_c, 0, 67, 59
1, 1519082, Control_c, 0, 64, 96
1, 1519082, Control_c, 0, 67, 61
1, 1519097, Control_c, 0, 64, 103
1, 1519097, Control_c, 0, 67, 64
1, 1519100, Note_off_c, 0, 77, 61
1, 1519112, Control_c, 0, 64, 109
1, 1519112, Control_c, 0, 67, 58
1, 1519113, Poly_aftertouch_c, 0, 65, 127
1, 1519115, Note_on_c, 0, 60, 76
1, 1519127, Control_c, 0, 64, 127
1, 1519127, Control_c, 0, 67, 54
1, 1519135, Note_off_c, 0, 48, 57
1, 1519141, Control_c, 0, 67, 54
1, 1519144, Poly_aftertouch_c, 0, 65, 0
1, 1519156, Control_c, 0, 67, 56
1, 1519159, Note_off_c, 0, 60, 60
1, 1519160, Note_on_c, 0, 76, 80
1, 1519171, Control_c, 0, 67, 60
1, 1519186, Control_c, 0, 64, 108
1, 1519186, Control_c, 0, 67, 60
1, 1519189, Note_on_c, 0, 64, 50
1, 1519198, Note_off_c, 0, 76, 62
1, 1519201, Control_c, 0, 64, 79
1, 1519201, Control_c, 0, 67, 57
1, 1519216, Note_off_c, 0, 64, 58
1, 1519216, Control_c, 0, 64, 55
1, 1519216, Control_c, 0, 67, 57
1, 1519222, Note_on_c, 0, 48, 88
1, 1519231, Control_c, 0, 64, 0
1, 1519231, Control_c, 0, 67, 60
1, 1519246, Control_c, 0, 67, 65
1, 1519261, Note_off_c, 0, 48, 64
1, 1519261, Control_c, 0, 67, 69
1, 1519276, Control_c, 0, 67, 71
1, 1519290, Control_c, 0, 67, 72
1, 1519305, Control_c, 0, 67, 74
1, 1519307, Note_on_c, 0, 75, 73
1, 1519317, Note_on_c, 0, 45, 87
1, 1519320, Control_c, 0, 67, 77
1, 1519321, Note_on_c, 0, 63, 64
1, 1519335, Control_c, 0, 67, 88
1, 1519338, Note_off_c, 0, 75, 61
1, 1519349, Note_off_c, 0, 63, 66
1, 1519350, Control_c, 0, 67, 107
1, 1519371, Note_off_c, 0, 45, 61
1, 1519387, Control_c, 0, 67, 105
1, 1519409, Note_on_c, 0, 57, 73
1, 1519416, Control_c, 0, 67, 108
1, 1519431, Control_c, 0, 67, 115
1, 1519446, Control_c, 0, 67, 121
1, 1519461, Control_c, 0, 64, 34
1, 1519471, Note_on_c, 0, 75, 69
1, 1519472, Note_on_c, 0, 63, 59
1, 1519476, Control_c, 0, 64, 39
1, 1519484, Note_off_c, 0, 57, 61
1, 1519490, Control_c, 0, 64, 40
1, 1519490, Control_c, 0, 67, 123
1, 1519502, Note_off_c, 0, 75, 64
1, 1519505, Note_on_c, 0, 45, 83
1, 1519505, Note_off_c, 0, 63, 64
1, 1519505, Control_c, 0, 64, 42
1, 1519505, Control_c, 0, 67, 126
1, 1519520, Control_c, 0, 64, 43
1, 1519565, Control_c, 0, 64, 48
1, 1519568, Note_off_c, 0, 45, 55
1, 1519580, Control_c, 0, 64, 62
1, 1519594, Control_c, 0, 64, 83
1, 1519600, Note_on_c, 0, 57, 71
1, 1519600, Note_on_c, 0, 75, 84
1, 1519605, Note_on_c, 0, 63, 71
1, 1519609, Control_c, 0, 64, 127
1, 1519633, Note_off_c, 0, 57, 66
1, 1519639, Control_c, 0, 67, 120
1, 1519642, Note_on_c, 0, 46, 93
1, 1519654, Note_off_c, 0, 63, 59
1, 1519654, Control_c, 0, 67, 117
1, 1519655, Note_off_c, 0, 75, 62
1, 1519669, Control_c, 0, 67, 110
1, 1519684, Control_c, 0, 67, 100
1, 1519698, Control_c, 0, 67, 79
1, 1519714, Control_c, 0, 67, 61
1, 1519718, Note_off_c, 0, 46, 63
1, 1519729, Control_c, 0, 67, 53
1, 1519743, Control_c, 0, 67, 50
1, 1519746, Note_on_c, 0, 58, 99
1, 1519753, Note_on_c, 0, 46, 68
1, 1519755, Note_on_c, 0, 74, 94
1, 1519758, Control_c, 0, 67, 48
1, 1519762, Note_on_c, 0, 62, 74
1, 1519773, Control_c, 0, 67, 45
1, 1519785, Note_off_c, 0, 58, 67
1, 1519786, Note_off_c, 0, 62, 66
1, 1519788, Note_off_c, 0, 46, 65
1, 1519798, Note_off_c, 0, 74, 67
1, 1519803, Control_c, 0, 67, 48
1, 1519847, Control_c, 0, 67, 49
1, 1519862, Control_c, 0, 64, 87
1, 1519862, Control_c, 0, 67, 50
1, 1519877, Control_c, 0, 64, 68
1, 1519877, Control_c, 0, 67, 55
1, 1519891, Control_c, 0, 64, 56
1, 1519891, Control_c, 0, 67, 57
1, 1519906, Control_c, 0, 64, 41
1, 1519906, Control_c, 0, 67, 58
1, 1519921, Control_c, 0, 64, 0
1, 1519921, Control_c, 0, 67, 61
1, 1519929, Note_on_c, 0, 86, 89
1, 1519935, Control_c, 0, 67, 69
1, 1519947, Note_on_c, 0, 74, 74
1, 1519949, Note_on_c, 0, 72, 70
1, 1519950, Control_c, 0, 67, 80
1, 1519965, Control_c, 0, 67, 88
1, 1519979, Note_off_c, 0, 72, 56
1, 1519980, Control_c, 0, 67, 86
1, 1520011, Control_c, 0, 67, 90
1, 1520026, Control_c, 0, 67, 98
1, 1520040, Control_c, 0, 67, 123
1, 1520055, Control_c, 0, 67, 127
1, 1520093, Note_on_c, 0, 58, 94
1, 1520099, Note_on_c, 0, 46, 80
1, 1520128, Note_off_c, 0, 74, 65
1, 1520140, Note_off_c, 0, 58, 60
1, 1520158, Note_off_c, 0, 86, 65
1, 1520172, Note_off_c, 0, 46, 54
1, 1520257, Note_on_c, 0, 57, 89
1, 1520258, Note_on_c, 0, 45, 79
1, 1520266, Note_on_c, 0, 87, 94
1, 1520268, Note_on_c, 0, 75, 92
1, 1520285, Control_c, 0, 64, 43
1, 1520300, Control_c, 0, 64, 63
1, 1520314, Control_c, 0, 64, 72
1, 1520329, Control_c, 0, 64, 79
1, 1520340, Note_off_c, 0, 57, 59
1, 1520344, Control_c, 0, 64, 80
1, 1520359, Control_c, 0, 64, 81
1, 1520369, Note_off_c, 0, 45, 63
1, 1520418, Control_c, 0, 64, 80
1, 1520420, Note_on_c, 0, 55, 90
1, 1520423, Note_on_c, 0, 43, 85
1, 1520433, Control_c, 0, 64, 79
1, 1520447, Note_off_c, 0, 75, 60
1, 1520447, Control_c, 0, 64, 76
1, 1520462, Control_c, 0, 64, 72
1, 1520462, Note_off_c, 0, 87, 61
1, 1520464, Note_off_c, 0, 43, 64
1, 1520468, Note_off_c, 0, 55, 64
1, 1520477, Control_c, 0, 64, 67
1, 1520492, Control_c, 0, 64, 57
1, 1520507, Control_c, 0, 64, 37
1, 1520521, Control_c, 0, 64, 0
1, 1520584, Note_on_c, 0, 55, 92
1, 1520586, Note_on_c, 0, 43, 83
1, 1520590, Note_on_c, 0, 85, 87
1, 1520598, Note_on_c, 0, 73, 85
1, 1520622, Note_off_c, 0, 43, 64
1, 1520626, Note_off_c, 0, 55, 64
1, 1520727, Note_off_c, 0, 73, 60
1, 1520739, Note_on_c, 0, 55, 95
1, 1520739, Note_on_c, 0, 43, 89
1, 1520749, Note_off_c, 0, 85, 59
1, 1520790, Note_off_c, 0, 55, 64
1, 1520798, Note_off_c, 0, 43, 61
1, 1520912, Note_on_c, 0, 43, 93
1, 1520912, Note_on_c, 0, 55, 100
1, 1520924, Note_on_c, 0, 86, 91
1, 1520928, Note_on_c, 0, 74, 90
1, 1520930, Control_c, 0, 64, 48
1, 1520944, Control_c, 0, 64, 68
1, 1520959, Control_c, 0, 64, 89
1, 1520974, Control_c, 0, 64, 127
1, 1520991, Note_off_c, 0, 55, 60
1, 1521015, Note_off_c, 0, 43, 61
1, 1521067, Note_off_c, 0, 86, 58
1, 1521070, Note_off_c, 0, 74, 60
1, 1521092, Note_on_c, 0, 54, 92
1, 1521093, Note_on_c, 0, 42, 92
1, 1521122, Control_c, 0, 64, 107
1, 1521132, Note_off_c, 0, 54, 63
1, 1521136, Control_c, 0, 64, 74
1, 1521142, Note_off_c, 0, 42, 61
1, 1521151, Control_c, 0, 64, 52
1, 1521166, Control_c, 0, 64, 0
1, 1521265, Note_on_c, 0, 83, 86
1, 1521314, Note_off_c, 0, 83, 63
1, 1521368, Note_on_c, 0, 71, 75
1, 1521401, Note_on_c, 0, 41, 75
1, 1521406, Note_on_c, 0, 53, 81
1, 1521407, Note_off_c, 0, 71, 63
1, 1521463, Note_off_c, 0, 41, 65
1, 1521465, Note_off_c, 0, 53, 62
1, 1521475, Note_on_c, 0, 83, 83
1, 1521517, Note_off_c, 0, 83, 64
1, 1521560, Note_on_c, 0, 41, 91
1, 1521560, Note_on_c, 0, 53, 93
1, 1521580, Note_on_c, 0, 84, 87
1, 1521595, Control_c, 0, 64, 44
1, 1521611, Control_c, 0, 64, 61
1, 1521626, Control_c, 0, 64, 67
1, 1521648, Control_c, 0, 64, 70
1, 1521651, Note_off_c, 0, 53, 62
1, 1521663, Control_c, 0, 64, 71
1, 1521684, Note_on_c, 0, 72, 81
1, 1521691, Note_off_c, 0, 41, 63
1, 1521693, Poly_aftertouch_c, 0, 42, 0
1, 1521694, Note_off_c, 0, 84, 39
1, 1521724, Poly_aftertouch_c, 0, 42, 0
1, 1521733, Note_on_c, 0, 52, 96
1, 1521733, Note_off_c, 0, 72, 62
1, 1521735, Note_on_c, 0, 40, 83
1, 1521753, Control_c, 0, 64, 71
1, 1521759, Note_on_c, 0, 38, 48
1, 1521759, Note_off_c, 0, 38, 127
1, 1521773, Note_off_c, 0, 40, 65
1, 1521774, Note_off_c, 0, 52, 65
1, 1521791, Poly_aftertouch_c, 0, 38, 0
1, 1521800, Note_on_c, 0, 84, 91
1, 1521811, Control_c, 0, 64, 69
1, 1521826, Control_c, 0, 64, 61
1, 1521841, Control_c, 0, 64, 39
1, 1521847, Note_off_c, 0, 84, 64
1, 1521856, Control_c, 0, 64, 0
1, 1521893, Note_on_c, 0, 39, 97
1, 1521893, Note_on_c, 0, 51, 95
1, 1521896, Note_on_c, 0, 81, 90
1, 1521935, Note_off_c, 0, 51, 65
1, 1521945, Note_off_c, 0, 39, 63
1, 1521958, Note_off_c, 0, 81, 60
1, 1521959, Control_c, 0, 64, 36
1, 1521974, Control_c, 0, 64, 37
1, 1521989, Control_c, 0, 64, 34
1, 1522001, Note_on_c, 0, 69, 84
1, 1522003, Control_c, 0, 64, 34
1, 1522018, Control_c, 0, 64, 34
1, 1522033, Note_on_c, 0, 51, 91
1, 1522033, Control_c, 0, 64, 36
1, 1522035, Note_on_c, 0, 39, 88
1, 1522051, Note_off_c, 0, 69, 64
1, 1522063, Control_c, 0, 64, 35
1, 1522078, Control_c, 0, 64, 34
1, 1522092, Control_c, 0, 64, 33
1, 1522095, Note_on_c, 0, 81, 81
1, 1522101, Note_off_c, 0, 51, 57
1, 1522106, Note_off_c, 0, 39, 62
1, 1522107, Control_c, 0, 64, 31
1, 1522122, Control_c, 0, 64, 0
1, 1522125, Note_off_c, 0, 81, 67
1, 1522195, Note_on_c, 0, 51, 98
1, 1522199, Note_on_c, 0, 39, 92
1, 1522202, Note_on_c, 0, 82, 94
1, 1522211, Control_c, 0, 64, 32
1, 1522226, Control_c, 0, 64, 54
1, 1522241, Control_c, 0, 64, 68
1, 1522256, Control_c, 0, 64, 78
1, 1522271, Control_c, 0, 64, 88
1, 1522285, Control_c, 0, 64, 91
1, 1522297, Note_off_c, 0, 51, 58
1, 1522301, Note_off_c, 0, 39, 58
1, 1522302, Note_on_c, 0, 70, 80
1, 1522317, Note_off_c, 0, 82, 55
1, 1522351, Note_off_c, 0, 70, 61
1, 1522373, Note_on_c, 0, 50, 79
1, 1522374, Note_on_c, 0, 38, 77
1, 1522397, Control_c, 0, 64, 88
1, 1522412, Control_c, 0, 64, 78
1, 1522417, Note_on_c, 0, 82, 83
1, 1522417, Note_off_c, 0, 38, 66
1, 1522420, Note_off_c, 0, 50, 63
1, 1522427, Control_c, 0, 64, 64
1, 1522441, Control_c, 0, 64, 44
1, 1522456, Control_c, 0, 64, 0
1, 1522465, Note_off_c, 0, 82, 50
1, 1522552, Note_on_c, 0, 81, 69
1, 1522558, Note_on_c, 0, 79, 66
1, 1522564, Note_on_c, 0, 39, 74
1, 1522611, Note_off_c, 0, 81, 52
1, 1522680, Note_on_c, 0, 69, 62
1, 1522691, Note_off_c, 0, 39, 58
1, 1522698, Note_off_c, 0, 79, 56
1, 1522708, Note_off_c, 0, 69, 67
1, 1522748, Note_on_c, 0, 51, 75
1, 1522806, Note_on_c, 0, 81, 74
1, 1522808, Note_on_c, 0, 79, 70
1, 1522839, Note_off_c, 0, 51, 59
1, 1522855, Note_off_c, 0, 79, 63
1, 1522857, Note_off_c, 0, 81, 62
1, 1522912, Note_on_c, 0, 38, 83
1, 1522921, Note_on_c, 0, 81, 73
1, 1522923, Note_on_c, 0, 79, 72
1, 1522960, Control_c, 0, 64, 28
1, 1522975, Control_c, 0, 64, 31
1, 1523020, Control_c, 0, 64, 32
1, 1523029, Note_on_c, 0, 69, 85
1, 1523034, Control_c, 0, 64, 35
1, 1523049, Control_c, 0, 64, 40
1, 1523064, Note_off_c, 0, 81, 62
1, 1523064, Control_c, 0, 64, 46
1, 1523067, Note_off_c, 0, 79, 63
1, 1523076, Note_on_c, 0, 50, 90
1, 1523077, Note_off_c, 0, 69, 62
1, 1523078, Control_c, 0, 64, 49
1, 1523093, Control_c, 0, 64, 50
1, 1523100, Note_off_c, 0, 38, 52
1, 1523108, Control_c, 0, 64, 55
1, 1523130, Control_c, 0, 64, 59
1, 1523145, Control_c, 0, 64, 64
1, 1523157, Note_on_c, 0, 81, 88
1, 1523160, Note_on_c, 0, 79, 82
1, 1523160, Control_c, 0, 64, 69
1, 1523160, Control_c, 0, 67, 122
1, 1523175, Control_c, 0, 64, 76
1, 1523175, Control_c, 0, 67, 87
1, 1523176, Note_off_c, 0, 50, 63
1, 1523189, Control_c, 0, 64, 86
1, 1523189, Control_c, 0, 67, 46
1, 1523198, Poly_aftertouch_c, 0, 42, 0
1, 1523204, Control_c, 0, 64, 97
1, 1523204, Control_c, 0, 67, 0
1, 1523215, Note_off_c, 0, 79, 66
1, 1523216, Note_off_c, 0, 81, 68
1, 1523220, Control_c, 0, 64, 106
1, 1523235, Control_c, 0, 64, 121
1, 1523249, Note_on_c, 0, 37, 97
1, 1523250, Control_c, 0, 64, 127
1, 1523275, Note_on_c, 0, 79, 85
1, 1523279, Note_on_c, 0, 81, 86
1, 1523279, Control_c, 0, 64, 114
1, 1523294, Control_c, 0, 64, 86
1, 1523299, Note_on_c, 0, 39, 26
1, 1523309, Control_c, 0, 64, 67
1, 1523324, Control_c, 0, 64, 59
1, 1523339, Control_c, 0, 64, 62
1, 1523344, Note_off_c, 0, 81, 62
1, 1523346, Note_off_c, 0, 79, 64
1, 1523347, Note_off_c, 0, 39, 46
1, 1523353, Control_c, 0, 64, 72
1, 1523368, Control_c, 0, 64, 99
1, 1523383, Note_on_c, 0, 69, 90
1, 1523383, Control_c, 0, 64, 127
1, 1523389, Note_on_c, 0, 79, 63
1, 1523408, Note_on_c, 0, 49, 82
1, 1523419, Note_off_c, 0, 79, 64
1, 1523427, Note_off_c, 0, 69, 63
1, 1523442, Note_off_c, 0, 37, 57
1, 1523494, Note_off_c, 0, 49, 59
1, 1523495, Note_on_c, 0, 81, 73
1, 1523499, Note_on_c, 0, 79, 81
1, 1523550, Note_off_c, 0, 79, 64
1, 1523556, Note_off_c, 0, 81, 65
1, 1523577, Control_c, 0, 64, 77
1, 1523591, Control_c, 0, 64, 54
1, 1523606, Note_on_c, 0, 38, 90
1, 1523606, Control_c, 0, 64, 0
1, 1523615, Note_on_c, 0, 81, 93
1, 1523620, Note_on_c, 0, 78, 86
1, 1523665, Note_on_c, 0, 79, 16
1, 1523665, Control_c, 0, 64, 34
1, 1523680, Control_c, 0, 64, 56
1, 1523684, Note_off_c, 0, 38, 62
1, 1523695, Control_c, 0, 64, 70
1, 1523707, Note_off_c, 0, 79, 53
1, 1523710, Control_c, 0, 64, 86
1, 1523719, Note_on_c, 0, 42, 88
1, 1523725, Control_c, 0, 64, 97
1, 1523782, Note_off_c, 0, 42, 61
1, 1523783, Control_c, 0, 64, 92
1, 1523798, Control_c, 0, 64, 85
1, 1523813, Control_c, 0, 64, 68
1, 1523828, Control_c, 0, 64, 46
1, 1523839, Note_on_c, 0, 45, 79
1, 1523843, Control_c, 0, 64, 0
1, 1523872, Control_c, 0, 67, 34
1, 1523890, Note_off_c, 0, 45, 61
1, 1523895, Control_c, 0, 67, 35
1, 1523909, Control_c, 0, 67, 40
1, 1523924, Control_c, 0, 67, 59
1, 1523939, Control_c, 0, 67, 75
1, 1523944, Note_on_c, 0, 50, 78
1, 1523954, Control_c, 0, 67, 78
1, 1523955, Note_off_c, 0, 81, 58
1, 1523969, Control_c, 0, 67, 82
1, 1523983, Control_c, 0, 67, 102
1, 1523984, Note_off_c, 0, 50, 64
1, 1523998, Control_c, 0, 67, 127
1, 1524012, Note_off_c, 0, 78, 61
1, 1524045, Note_on_c, 0, 54, 82
1, 1524091, Note_off_c, 0, 54, 60
1, 1524122, Note_on_c, 0, 86, 91
1, 1524134, Note_on_c, 0, 74, 80
1, 1524159, Note_on_c, 0, 57, 73
1, 1524200, Note_off_c, 0, 74, 52
1, 1524224, Note_off_c, 0, 57, 61
1, 1524251, Note_off_c, 0, 86, 65
1, 1524282, Note_on_c, 0, 50, 79
1, 1524317, Note_on_c, 0, 87, 91
1, 1524327, Note_on_c, 0, 75, 93
1, 1524340, Control_c, 0, 64, 34
1, 1524355, Control_c, 0, 64, 58
1, 1524361, Note_off_c, 0, 50, 62
1, 1524370, Control_c, 0, 64, 70
1, 1524385, Control_c, 0, 64, 79
1, 1524400, Control_c, 0, 64, 86
1, 1524403, Note_on_c, 0, 55, 86
1, 1524414, Control_c, 0, 64, 89
1, 1524429, Control_c, 0, 64, 93
1, 1524444, Control_c, 0, 64, 99
1, 1524447, Note_off_c, 0, 55, 63
1, 1524459, Control_c, 0, 64, 105
1, 1524474, Control_c, 0, 64, 114
1, 1524486, Note_off_c, 0, 75, 59
1, 1524488, Control_c, 0, 64, 126
1, 1524515, Note_off_c, 0, 87, 60
1, 1524529, Note_on_c, 0, 58, 81
1, 1524547, Control_c, 0, 64, 117
1, 1524562, Control_c, 0, 64, 97
1, 1524577, Control_c, 0, 64, 80
1, 1524579, Note_off_c, 0, 58, 62
1, 1524592, Control_c, 0, 64, 64
1, 1524606, Control_c, 0, 64, 43
1, 1524621, Control_c, 0, 64, 0
1, 1524649, Note_on_c, 0, 85, 98
1, 1524651, Note_on_c, 0, 57, 72
1, 1524657, Note_on_c, 0, 73, 98
1, 1524703, Control_c, 0, 64, 31
1, 1524718, Control_c, 0, 64, 51
1, 1524722, Note_off_c, 0, 57, 63
1, 1524732, Control_c, 0, 64, 69
1, 1524747, Control_c, 0, 64, 91
1, 1524762, Control_c, 0, 64, 127
1, 1524771, Note_on_c, 0, 58, 84
1, 1524786, Note_off_c, 0, 73, 61
1, 1524825, Note_off_c, 0, 58, 64
1, 1524830, Note_off_c, 0, 85, 58
1, 1524882, Note_on_c, 0, 55, 85
1, 1524940, Note_off_c, 0, 55, 62
1, 1524954, Control_c, 0, 64, 79
1, 1524969, Control_c, 0, 64, 54
1, 1524984, Control_c, 0, 64, 0
1, 1524992, Note_on_c, 0, 50, 83
1, 1524999, Note_on_c, 0, 74, 93
1, 1525002, Note_on_c, 0, 86, 81
1, 1525029, Control_c, 0, 64, 38
1, 1525044, Control_c, 0, 64, 63
1, 1525044, Note_off_c, 0, 50, 66
1, 1525058, Control_c, 0, 64, 79
1, 1525073, Control_c, 0, 64, 105
1, 1525088, Control_c, 0, 64, 127
1, 1525105, Note_on_c, 0, 54, 77
1, 1525134, Note_off_c, 0, 54, 63
1, 1525223, Note_on_c, 0, 57, 68
1, 1525257, Note_off_c, 0, 57, 65
1, 1525281, Control_c, 0, 64, 97
1, 1525296, Control_c, 0, 64, 63
1, 1525310, Control_c, 0, 64, 0
1, 1525318, Note_on_c, 0, 56, 72
1, 1525350, Note_off_c, 0, 74, 59
1, 1525352, Note_off_c, 0, 56, 64
1, 1525354, Note_off_c, 0, 86, 60
1, 1525449, Note_on_c, 0, 57, 56
1, 1525480, Note_off_c, 0, 57, 65
1, 1525515, Note_on_c, 0, 86, 69
1, 1525537, Note_off_c, 0, 86, 70
1, 1525543, Note_on_c, 0, 54, 60
1, 1525574, Note_off_c, 0, 54, 63
1, 1525684, Note_on_c, 0, 84, 68
1, 1525687, Note_on_c, 0, 50, 54
1, 1525736, Note_off_c, 0, 50, 62
1, 1525795, Note_on_c, 0, 53, 65
1, 1525828, Note_off_c, 0, 84, 58
1, 1525838, Note_off_c, 0, 53, 64
1, 1525842, Note_on_c, 0, 83, 59
1, 1525866, Note_off_c, 0, 83, 66
1, 1525928, Note_on_c, 0, 56, 53
1, 1525959, Note_off_c, 0, 56, 63
1, 1525992, Note_on_c, 0, 83, 64
1, 1526015, Note_on_c, 0, 55, 57
1, 1526018, Note_off_c, 0, 83, 68
1, 1526022, Note_on_c, 0, 71, 41
1, 1526045, Note_off_c, 0, 55, 63
1, 1526052, Note_off_c, 0, 71, 52
1, 1526155, Note_on_c, 0, 56, 52
1, 1526176, Note_on_c, 0, 83, 70
1, 1526186, Note_off_c, 0, 56, 63
1, 1526199, Note_off_c, 0, 83, 68
1, 1526254, Note_on_c, 0, 53, 55
1, 1526271, Poly_aftertouch_c, 0, 71, 0
1, 1526296, Note_off_c, 0, 53, 59
1, 1526352, Note_on_c, 0, 83, 58
1, 1526366, Note_on_c, 0, 48, 62
1, 1526415, Note_off_c, 0, 48, 63
1, 1526451, Poly_aftertouch_c, 0, 71, 0
1, 1526502, Note_on_c, 0, 53, 52
1, 1526519, Note_on_c, 0, 84, 69
1, 1526536, Note_off_c, 0, 53, 64
1, 1526548, Note_on_c, 0, 72, 49
1, 1526557, Note_off_c, 0, 83, 37
1, 1526570, Note_off_c, 0, 84, 63
1, 1526571, Note_off_c, 0, 72, 57
1, 1526575, Note_on_c, 0, 56, 62
1, 1526601, Control_c, 0, 64, 29
1, 1526612, Note_off_c, 0, 56, 64
1, 1526661, Control_c, 0, 64, 0
1, 1526674, Note_on_c, 0, 48, 76
1, 1526675, Control_c, 0, 64, 27
1, 1526719, Control_c, 0, 64, 0
1, 1526734, Note_off_c, 0, 48, 62
1, 1526783, Note_on_c, 0, 52, 78
1, 1526814, Note_on_c, 0, 84, 90
1, 1526824, Note_on_c, 0, 72, 87
1, 1526838, Control_c, 0, 64, 44
1, 1526838, Control_c, 0, 67, 104
1, 1526844, Note_off_c, 0, 52, 62
1, 1526853, Control_c, 0, 64, 61
1, 1526853, Control_c, 0, 67, 57
1, 1526868, Control_c, 0, 64, 75
1, 1526868, Control_c, 0, 67, 0
1, 1526890, Control_c, 0, 64, 127
1, 1526898, Note_off_c, 0, 72, 60
1, 1526922, Note_on_c, 0, 55, 79
1, 1526939, Note_off_c, 0, 84, 62
1, 1526984, Note_off_c, 0, 55, 58
1, 1527061, Note_on_c, 0, 48, 71
1, 1527072, Note_on_c, 0, 73, 95
1, 1527072, Note_on_c, 0, 85, 97
1, 1527083, Control_c, 0, 64, 79
1, 1527097, Control_c, 0, 64, 51
1, 1527112, Control_c, 0, 64, 0
1, 1527157, Control_c, 0, 64, 49
1, 1527172, Control_c, 0, 64, 72
1, 1527187, Control_c, 0, 64, 127
1, 1527189, Note_on_c, 0, 53, 78
1, 1527190, Note_off_c, 0, 48, 61
1, 1527229, Note_off_c, 0, 53, 61
1, 1527232, Note_off_c, 0, 73, 58
1, 1527271, Note_off_c, 0, 85, 55
1, 1527306, Note_on_c, 0, 56, 75
1, 1527346, Note_off_c, 0, 56, 62
1, 1527395, Control_c, 0, 64, 95
1, 1527407, Note_on_c, 0, 55, 81
1, 1527410, Control_c, 0, 64, 62
1, 1527421, Note_on_c, 0, 83, 84
1, 1527424, Control_c, 0, 64, 0
1, 1527429, Note_on_c, 0, 71, 79
1, 1527450, Note_on_c, 0, 72, 56
1, 1527469, Control_c, 0, 64, 37
1, 1527470, Note_off_c, 0, 55, 61
1, 1527479, Note_off_c, 0, 72, 35
1, 1527484, Control_c, 0, 64, 62
1, 1527498, Control_c, 0, 64, 89
1, 1527513, Control_c, 0, 64, 127
1, 1527518, Note_on_c, 0, 56, 82
1, 1527570, Note_off_c, 0, 56, 63
1, 1527574, Note_off_c, 0, 71, 57
1, 1527634, Note_on_c, 0, 53, 83
1, 1527683, Note_off_c, 0, 53, 63
1, 1527685, Note_off_c, 0, 83, 60
1, 1527741, Note_on_c, 0, 48, 95
1, 1527743, Control_c, 0, 64, 92
1, 1527753, Note_on_c, 0, 84, 92
1, 1527757, Control_c, 0, 64, 62
1, 1527760, Note_on_c, 0, 72, 85
1, 1527772, Control_c, 0, 64, 0
1, 1527799, Note_off_c, 0, 48, 64
1, 1527853, Note_on_c, 0, 52, 83
1, 1527861, Control_c, 0, 67, 33
1, 1527875, Control_c, 0, 67, 39
1, 1527890, Control_c, 0, 67, 40
1, 1527895, Note_off_c, 0, 52, 62
1, 1527905, Control_c, 0, 67, 43
1, 1527920, Control_c, 0, 67, 53
1, 1527935, Control_c, 0, 67, 81
1, 1527950, Control_c, 0, 67, 118
1, 1527963, Control_c, 0, 67, 127
1, 1527968, Note_on_c, 0, 55, 77
1, 1528003, Note_off_c, 0, 55, 63
1, 1528057, Note_on_c, 0, 54, 75
1, 1528072, Note_off_c, 0, 84, 56
1, 1528078, Note_off_c, 0, 72, 57
1, 1528089, Note_off_c, 0, 54, 63
1, 1528170, Note_on_c, 0, 55, 67
1, 1528200, Note_off_c, 0, 55, 64
1, 1528206, Note_on_c, 0, 84, 69
1, 1528227, Note_on_c, 0, 72, 50
1, 1528239, Note_off_c, 0, 84, 62
1, 1528248, Note_off_c, 0, 72, 59
1, 1528285, Note_on_c, 0, 52, 61
1, 1528320, Note_off_c, 0, 52, 61
1, 1528411, Note_on_c, 0, 48, 48
1, 1528424, Note_on_c, 0, 82, 54
1, 1528463, Note_on_c, 0, 70, 25
1, 1528475, Note_off_c, 0, 48, 56
1, 1528509, Note_off_c, 0, 70, 56
1, 1528522, Note_on_c, 0, 51, 56
1, 1528549, Note_off_c, 0, 82, 58
1, 1528558, Note_off_c, 0, 51, 61
1, 1528596, Note_on_c, 0, 81, 61
1, 1528616, Note_on_c, 0, 69, 50
1, 1528625, Note_off_c, 0, 81, 66
1, 1528639, Note_off_c, 0, 69, 59
1, 1528649, Note_on_c, 0, 54, 36
1, 1528677, Note_off_c, 0, 54, 50
1, 1528726, Note_on_c, 0, 53, 57
1, 1528762, Note_on_c, 0, 81, 59
1, 1528773, Note_on_c, 0, 69, 31
1, 1528775, Note_off_c, 0, 53, 55
1, 1528794, Note_off_c, 0, 81, 63
1, 1528806, Note_off_c, 0, 69, 48
1, 1528859, Note_on_c, 0, 54, 54
1, 1528886, Note_off_c, 0, 54, 65
1, 1528934, Note_on_c, 0, 81, 41
1, 1528958, Note_off_c, 0, 81, 58
1, 1528961, Note_on_c, 0, 53, 53
1, 1528964, Poly_aftertouch_c, 0, 69, 127
1, 1529000, Note_off_c, 0, 53, 59
1, 1529011, Poly_aftertouch_c, 0, 69, 0
1, 1529057, Note_on_c, 0, 81, 51
1, 1529079, Note_on_c, 0, 46, 55
1, 1529138, Note_off_c, 0, 46, 61
1, 1529203, Note_on_c, 0, 51, 39
1, 1529209, Control_c, 0, 64, 46
1, 1529224, Control_c, 0, 64, 63
1, 1529239, Control_c, 0, 64, 69
1, 1529244, Note_off_c, 0, 51, 49
1, 1529250, Note_off_c, 0, 81, 63
1, 1529254, Control_c, 0, 64, 73
1, 1529258, Note_on_c, 0, 82, 57
1, 1529269, Control_c, 0, 64, 76
1, 1529276, Note_on_c, 0, 70, 46
1, 1529276, Note_off_c, 0, 82, 63
1, 1529283, Control_c, 0, 64, 80
1, 1529298, Control_c, 0, 64, 85
1, 1529300, Note_on_c, 0, 54, 57
1, 1529302, Note_off_c, 0, 70, 57
1, 1529313, Control_c, 0, 64, 94
1, 1529327, Control_c, 0, 64, 110
1, 1529331, Note_off_c, 0, 54, 64
1, 1529342, Control_c, 0, 64, 127
1, 1529372, Control_c, 0, 64, 123
1, 1529387, Control_c, 0, 64, 87
1, 1529402, Control_c, 0, 64, 67
1, 1529417, Control_c, 0, 64, 48
1, 1529423, Note_on_c, 0, 46, 50
1, 1529431, Control_c, 0, 64, 33
1, 1529447, Control_c, 0, 64, 38
1, 1529462, Control_c, 0, 64, 50
1, 1529468, Note_off_c, 0, 46, 57
1, 1529476, Control_c, 0, 64, 62
1, 1529491, Control_c, 0, 64, 73
1, 1529500, Note_on_c, 0, 50, 45
1, 1529506, Control_c, 0, 64, 85
1, 1529521, Control_c, 0, 64, 97
1, 1529536, Control_c, 0, 64, 103
1, 1529551, Control_c, 0, 64, 110
1, 1529566, Control_c, 0, 64, 126
1, 1529586, Note_on_c, 0, 74, 66
1, 1529588, Note_off_c, 0, 50, 60
1, 1529672, Poly_aftertouch_c, 0, 53, 127
1, 1529704, Poly_aftertouch_c, 0, 53, 0
1, 1529802, Note_on_c, 0, 60, 74
1, 1529824, Note_off_c, 0, 74, 44
1, 1529831, Note_on_c, 0, 77, 59
1, 1529833, Control_c, 0, 64, 80
1, 1529848, Control_c, 0, 64, 62
1, 1529863, Control_c, 0, 64, 43
1, 1529885, Control_c, 0, 64, 33
1, 1529899, Control_c, 0, 64, 36
1, 1529914, Control_c, 0, 64, 48
1, 1529929, Control_c, 0, 64, 60
1, 1529944, Control_c, 0, 64, 72
1, 1529959, Control_c, 0, 64, 86
1, 1529974, Control_c, 0, 64, 96
1, 1529976, Note_on_c, 0, 75, 42
1, 1529989, Control_c, 0, 64, 99
1, 1530004, Control_c, 0, 64, 101
1, 1530019, Control_c, 0, 64, 104
1, 1530028, Note_off_c, 0, 77, 36
1, 1530048, Control_c, 0, 64, 107
1, 1530075, Note_off_c, 0, 75, 37
1, 1530087, Note_on_c, 0, 65, 42
1, 1530118, Note_off_c, 0, 65, 52
1, 1530181, Control_c, 0, 64, 97
1, 1530196, Control_c, 0, 64, 77
1, 1530198, Note_on_c, 0, 57, 69
1, 1530208, Note_on_c, 0, 77, 48
1, 1530211, Control_c, 0, 64, 60
1, 1530225, Control_c, 0, 64, 37
1, 1530240, Control_c, 0, 64, 0
1, 1530269, Control_c, 0, 64, 31
1, 1530273, Note_off_c, 0, 60, 61
1, 1530284, Control_c, 0, 64, 44
1, 1530299, Control_c, 0, 64, 57
1, 1530302, Note_off_c, 0, 77, 55
1, 1530314, Control_c, 0, 64, 66
1, 1530325, Note_on_c, 0, 72, 43
1, 1530329, Control_c, 0, 64, 73
1, 1530344, Control_c, 0, 64, 80
1, 1530359, Control_c, 0, 64, 84
1, 1530372, Note_off_c, 0, 72, 54
1, 1530373, Control_c, 0, 64, 86
1, 1530373, Control_c, 0, 67, 123
1, 1530389, Control_c, 0, 64, 88
1, 1530389, Control_c, 0, 67, 116
1, 1530404, Control_c, 0, 64, 90
1, 1530419, Control_c, 0, 64, 93
1, 1530424, Note_on_c, 0, 65, 46
1, 1530434, Control_c, 0, 64, 95
1, 1530448, Control_c, 0, 64, 97
1, 1530456, Note_off_c, 0, 65, 53
1, 1530463, Control_c, 0, 64, 99
1, 1530463, Control_c, 0, 67, 119
1, 1530478, Control_c, 0, 67, 126
1, 1530493, Control_c, 0, 64, 102
1, 1530537, Control_c, 0, 64, 99
1, 1530552, Note_on_c, 0, 77, 57
1, 1530552, Control_c, 0, 64, 80
1, 1530564, Note_on_c, 0, 58, 57
1, 1530567, Control_c, 0, 64, 62
1, 1530581, Note_off_c, 0, 57, 48
1, 1530582, Control_c, 0, 64, 32
1, 1530597, Control_c, 0, 64, 0
1, 1530669, Note_off_c, 0, 77, 53
1, 1530678, Control_c, 0, 64, 48
1, 1530683, Note_on_c, 0, 74, 49
1, 1530693, Control_c, 0, 64, 64
1, 1530707, Control_c, 0, 64, 76
1, 1530722, Control_c, 0, 64, 91
1, 1530737, Control_c, 0, 64, 109
1, 1530752, Control_c, 0, 64, 127
1, 1530773, Note_off_c, 0, 74, 59
1, 1530778, Note_off_c, 0, 58, 63
1, 1530796, Note_on_c, 0, 65, 41
1, 1530824, Note_off_c, 0, 65, 55
1, 1530910, Note_on_c, 0, 82, 67
1, 1530915, Control_c, 0, 64, 117
1, 1530930, Control_c, 0, 64, 71
1, 1530945, Control_c, 0, 64, 36
1, 1530959, Control_c, 0, 64, 0
1, 1531025, Note_off_c, 0, 82, 55
1, 1531032, Note_on_c, 0, 77, 52
1, 1531042, Note_on_c, 0, 62, 45
1, 1531068, Note_off_c, 0, 62, 56
1, 1531124, Note_off_c, 0, 77, 60
1, 1531153, Note_on_c, 0, 70, 29
1, 1531190, Note_off_c, 0, 70, 54
1, 1531230, Note_on_c, 0, 58, 49
1, 1531237, Note_on_c, 0, 65, 64
1, 1531244, Note_on_c, 0, 84, 63
1, 1531375, Note_off_c, 0, 84, 54
1, 1531405, Note_off_c, 0, 65, 56
1, 1531409, Note_on_c, 0, 77, 26
1, 1531418, Note_on_c, 0, 63, 69
1, 1531446, Note_off_c, 0, 63, 67
1, 1531459, Note_off_c, 0, 77, 45
1, 1531490, Note_on_c, 0, 72, 32
1, 1531524, Note_off_c, 0, 72, 46
1, 1531557, Note_on_c, 0, 63, 61
1, 1531561, Note_on_c, 0, 81, 66
1, 1531587, Note_off_c, 0, 63, 63
1, 1531715, Note_on_c, 0, 77, 38
1, 1531721, Note_on_c, 0, 63, 55
1, 1531758, Note_off_c, 0, 63, 62
1, 1531767, Note_off_c, 0, 58, 63
1, 1531774, Note_off_c, 0, 81, 44
1, 1531807, Note_on_c, 0, 69, 59
1, 1531836, Note_off_c, 0, 69, 66
1, 1531849, Note_off_c, 0, 77, 58
1, 1531891, Note_on_c, 0, 63, 53
1, 1531912, Note_on_c, 0, 58, 52
1, 1531935, Note_on_c, 0, 82, 60
1, 1531974, Control_c, 0, 64, 44
1, 1531975, Note_off_c, 0, 63, 55
1, 1531990, Control_c, 0, 64, 58
1, 1532005, Control_c, 0, 64, 64
1, 1532019, Control_c, 0, 64, 66
1, 1532034, Control_c, 0, 64, 68
1, 1532049, Control_c, 0, 64, 70
1, 1532064, Control_c, 0, 64, 73
1, 1532065, Note_on_c, 0, 77, 51
1, 1532066, Note_on_c, 0, 62, 59
1, 1532079, Control_c, 0, 64, 77
1, 1532091, Note_off_c, 0, 82, 40
1, 1532093, Control_c, 0, 64, 80
1, 1532108, Control_c, 0, 64, 82
1, 1532131, Control_c, 0, 64, 85
1, 1532139, Note_off_c, 0, 62, 61
1, 1532145, Control_c, 0, 64, 88
1, 1532150, Note_off_c, 0, 77, 64
1, 1532159, Note_off_c, 0, 58, 63
1, 1532160, Control_c, 0, 64, 90
1, 1532171, Note_on_c, 0, 70, 61
1, 1532175, Control_c, 0, 64, 92
1, 1532190, Control_c, 0, 64, 93
1, 1532199, Note_off_c, 0, 70, 68
1, 1532205, Control_c, 0, 64, 91
1, 1532219, Control_c, 0, 64, 73
1, 1532234, Control_c, 0, 64, 47
1, 1532249, Control_c, 0, 64, 0
1, 1532273, Note_on_c, 0, 77, 74
1, 1532365, Note_off_c, 0, 77, 58
1, 1532365, Note_on_c, 0, 74, 70
1, 1532414, Note_on_c, 0, 58, 53
1, 1532421, Note_off_c, 0, 74, 62
1, 1532456, Note_off_c, 0, 58, 59
1, 1532485, Note_on_c, 0, 65, 55
1, 1532511, Note_off_c, 0, 65, 63
1, 1532578, Note_on_c, 0, 60, 55
1, 1532578, Note_on_c, 0, 77, 73
1, 1532612, Note_off_c, 0, 60, 61
1, 1532680, Note_on_c, 0, 75, 65
1, 1532683, Note_off_c, 0, 77, 57
1, 1532707, Note_on_c, 0, 62, 51
1, 1532766, Note_off_c, 0, 62, 53
1, 1532770, Note_off_c, 0, 75, 57
1, 1532809, Note_on_c, 0, 65, 45
1, 1532839, Note_off_c, 0, 65, 53
1, 1532898, Note_on_c, 0, 55, 50
1, 1532919, Note_on_c, 0, 77, 57
1, 1532961, Note_off_c, 0, 55, 51
1, 1533018, Note_off_c, 0, 77, 58
1, 1533028, Note_on_c, 0, 72, 49
1, 1533034, Note_on_c, 0, 57, 43
1, 1533068, Note_off_c, 0, 72, 60
1, 1533124, Note_off_c, 0, 57, 50
1, 1533146, Note_on_c, 0, 65, 38
1, 1533177, Note_off_c, 0, 65, 51
1, 1533237, Note_on_c, 0, 58, 31
1, 1533238, Note_on_c, 0, 77, 60
1, 1533335, Note_off_c, 0, 77, 56
1, 1533339, Control_c, 0, 64, 40
1, 1533354, Control_c, 0, 64, 58
1, 1533355, Note_on_c, 0, 74, 54
1, 1533369, Control_c, 0, 64, 69
1, 1533377, Note_off_c, 0, 58, 59
1, 1533384, Control_c, 0, 64, 78
1, 1533399, Control_c, 0, 64, 90
1, 1533414, Control_c, 0, 64, 99
1, 1533429, Control_c, 0, 64, 116
1, 1533429, Note_off_c, 0, 74, 61
1, 1533443, Control_c, 0, 64, 127
1, 1533456, Note_on_c, 0, 65, 36
1, 1533487, Note_off_c, 0, 65, 53
1, 1533557, Note_on_c, 0, 82, 65
1, 1533691, Note_off_c, 0, 82, 56
1, 1533696, Note_on_c, 0, 62, 56
1, 1533696, Note_on_c, 0, 77, 52
1, 1533718, Note_off_c, 0, 62, 63
1, 1533784, Note_on_c, 0, 70, 63
1, 1533789, Note_off_c, 0, 77, 53
1, 1533821, Note_off_c, 0, 70, 57
1, 1533822, Control_c, 0, 64, 99
1, 1533837, Control_c, 0, 64, 73
1, 1533852, Control_c, 0, 64, 52
1, 1533866, Control_c, 0, 64, 0
1, 1533876, Note_on_c, 0, 58, 63
1, 1533880, Note_on_c, 0, 65, 67
1, 1533886, Note_on_c, 0, 84, 70
1, 1533986, Note_off_c, 0, 65, 59
1, 1534019, Note_off_c, 0, 84, 53
1, 1534031, Note_on_c, 0, 77, 23
1, 1534040, Note_on_c, 0, 63, 75
1, 1534066, Note_off_c, 0, 63, 67
1, 1534085, Note_off_c, 0, 77, 43
1, 1534120, Note_on_c, 0, 72, 39
1, 1534151, Note_off_c, 0, 72, 54
1, 1534199, Note_on_c, 0, 63, 67
1, 1534200, Note_on_c, 0, 81, 61
1, 1534225, Note_off_c, 0, 63, 66
1, 1534334, Note_on_c, 0, 77, 53
1, 1534352, Note_off_c, 0, 81, 51
1, 1534366, Note_on_c, 0, 63, 48
1, 1534405, Note_off_c, 0, 58, 63
1, 1534408, Note_off_c, 0, 63, 63
1, 1534427, Note_on_c, 0, 69, 62
1, 1534457, Note_off_c, 0, 69, 63
1, 1534466, Note_off_c, 0, 77, 37
1, 1534526, Note_on_c, 0, 63, 57
1, 1534546, Note_on_c, 0, 58, 54
1, 1534554, Note_on_c, 0, 82, 64
1, 1534574, Note_off_c, 0, 63, 54
1, 1534600, Control_c, 0, 64, 42
1, 1534615, Control_c, 0, 64, 55
1, 1534630, Control_c, 0, 64, 61
1, 1534645, Control_c, 0, 64, 63
1, 1534660, Control_c, 0, 64, 65
1, 1534675, Control_c, 0, 64, 69
1, 1534689, Control_c, 0, 64, 75
1, 1534693, Note_on_c, 0, 62, 70
1, 1534695, Note_on_c, 0, 77, 49
1, 1534704, Control_c, 0, 64, 82
1, 1534719, Control_c, 0, 64, 89
1, 1534734, Control_c, 0, 64, 96
1, 1534738, Note_off_c, 0, 82, 40
1, 1534748, Control_c, 0, 64, 104
1, 1534755, Note_off_c, 0, 62, 61
1, 1534763, Note_off_c, 0, 58, 63
1, 1534763, Control_c, 0, 64, 127
1, 1534775, Note_off_c, 0, 77, 62
1, 1534779, Note_on_c, 0, 70, 69
1, 1534804, Note_off_c, 0, 70, 69
1, 1534808, Control_c, 0, 67, 103
1, 1534822, Control_c, 0, 67, 85
1, 1534837, Control_c, 0, 67, 80
1, 1534852, Control_c, 0, 64, 105
1, 1534852, Control_c, 0, 67, 78
1, 1534866, Control_c, 0, 64, 67
1, 1534866, Control_c, 0, 67, 73
1, 1534881, Control_c, 0, 64, 0
1, 1534881, Control_c, 0, 67, 62
1, 1534882, Note_on_c, 0, 77, 75
1, 1534896, Control_c, 0, 67, 47
1, 1534911, Control_c, 0, 67, 0
1, 1534994, Note_off_c, 0, 77, 61
1, 1534997, Note_on_c, 0, 74, 56
1, 1535030, Note_off_c, 0, 74, 66
1, 1535042, Note_on_c, 0, 46, 41
1, 1535063, Note_on_c, 0, 58, 31
1, 1535089, Note_off_c, 0, 46, 57
1, 1535097, Note_off_c, 0, 58, 48
1, 1535214, Note_on_c, 0, 75, 73
1, 1535219, Note_on_c, 0, 59, 65
1, 1535223, Note_on_c, 0, 47, 65
1, 1535231, Control_c, 0, 64, 52
1, 1535245, Control_c, 0, 64, 66
1, 1535250, Note_on_c, 0, 68, 36
1, 1535260, Control_c, 0, 64, 68
1, 1535265, Note_off_c, 0, 47, 64
1, 1535276, Note_off_c, 0, 59, 62
1, 1535286, Note_on_c, 0, 65, 14
1, 1535304, Control_c, 0, 64, 69
1, 1535319, Control_c, 0, 64, 70
1, 1535334, Control_c, 0, 64, 72
1, 1535340, Note_off_c, 0, 75, 57
1, 1535349, Control_c, 0, 64, 73
1, 1535360, Note_off_c, 0, 65, 0
1, 1535363, Control_c, 0, 64, 70
1, 1535374, Note_on_c, 0, 73, 77
1, 1535378, Control_c, 0, 64, 56
1, 1535388, Note_off_c, 0, 68, 54
1, 1535393, Control_c, 0, 64, 0
1, 1535415, Poly_aftertouch_c, 0, 65, 0
1, 1535428, Note_off_c, 0, 73, 62
1, 1535533, Note_on_c, 0, 56, 74
1, 1535533, Note_on_c, 0, 71, 57
1, 1535536, Note_on_c, 0, 68, 48
1, 1535539, Note_on_c, 0, 44, 61
1, 1535541, Note_on_c, 0, 73, 60
1, 1535551, Note_on_c, 0, 65, 30
1, 1535559, Note_off_c, 0, 56, 66
1, 1535563, Note_off_c, 0, 44, 58
1, 1535570, Note_off_c, 0, 73, 64
1, 1535578, Note_off_c, 0, 71, 59
1, 1535579, Note_off_c, 0, 68, 58
1, 1535585, Note_off_c, 0, 65, 50
1, 1535683, Note_on_c, 0, 65, 55
1, 1535689, Note_on_c, 0, 68, 49
1, 1535693, Note_on_c, 0, 71, 57
1, 1535694, Note_on_c, 0, 73, 46
1, 1535705, Note_off_c, 0, 65, 59
1, 1535712, Note_off_c, 0, 68, 59
1, 1535715, Note_off_c, 0, 71, 59
1, 1535721, Note_off_c, 0, 73, 62
1, 1535834, Note_on_c, 0, 58, 74
1, 1535836, Note_on_c, 0, 46, 70
1, 1535848, Note_on_c, 0, 66, 63
1, 1535852, Control_c, 0, 64, 57
1, 1535854, Note_on_c, 0, 73, 50
1, 1535867, Note_on_c, 0, 70, 42
1, 1535870, Note_off_c, 0, 58, 66
1, 1535873, Note_off_c, 0, 46, 64
1, 1535874, Control_c, 0, 64, 73
1, 1535888, Control_c, 0, 64, 79
1, 1535893, Note_off_c, 0, 66, 55
1, 1535903, Control_c, 0, 64, 82
1, 1535918, Control_c, 0, 64, 87
1, 1535933, Control_c, 0, 64, 107
1, 1535935, Note_off_c, 0, 70, 0
1, 1535935, Note_on_c, 0, 70, 32
1, 1535948, Control_c, 0, 64, 127
1, 1536020, Note_off_c, 0, 70, 61
1, 1536022, Note_off_c, 0, 73, 61
1, 1536029, Note_on_c, 0, 78, 64
1, 1536058, Note_off_c, 0, 78, 66
1, 1536165, Note_on_c, 0, 82, 64
1, 1536171, Control_c, 0, 64, 70
1, 1536186, Control_c, 0, 64, 41
1, 1536192, Note_off_c, 0, 82, 63
1, 1536201, Control_c, 0, 64, 0
1, 1536260, Note_on_c, 0, 85, 67
1, 1536297, Note_off_c, 0, 85, 62
1, 1536331, Note_on_c, 0, 63, 70
1, 1536336, Note_on_c, 0, 51, 58
1, 1536351, Note_off_c, 0, 63, 66
1, 1536364, Note_off_c, 0, 51, 57
1, 1536379, Note_on_c, 0, 90, 66
1, 1536404, Note_off_c, 0, 90, 68
1, 1536475, Note_on_c, 0, 49, 81
1, 1536475, Note_on_c, 0, 61, 78
1, 1536478, Note_on_c, 0, 92, 88
1, 1536493, Note_on_c, 0, 85, 80
1, 1536497, Note_on_c, 0, 90, 57
1, 1536498, Control_c, 0, 64, 55
1, 1536499, Note_off_c, 0, 61, 69
1, 1536502, Note_off_c, 0, 49, 66
1, 1536512, Control_c, 0, 64, 76
1, 1536514, Note_off_c, 0, 90, 62
1, 1536527, Control_c, 0, 64, 89
1, 1536542, Control_c, 0, 64, 97
1, 1536572, Control_c, 0, 64, 102
1, 1536585, Note_on_c, 0, 80, 74
1, 1536586, Note_off_c, 0, 85, 59
1, 1536617, Note_off_c, 0, 80, 64
1, 1536627, Note_off_c, 0, 92, 60
1, 1536635, Note_on_c, 0, 47, 76
1, 1536648, Note_on_c, 0, 59, 61
1, 1536653, Control_c, 0, 64, 89
1, 1536660, Note_off_c, 0, 47, 65
1, 1536668, Control_c, 0, 64, 68
1, 1536671, Note_off_c, 0, 59, 65
1, 1536681, Poly_aftertouch_c, 0, 92, 0
1, 1536683, Control_c, 0, 64, 0
1, 1536691, Note_on_c, 0, 92, 55
1, 1536702, Note_on_c, 0, 85, 68
1, 1536727, Note_off_c, 0, 85, 66
1, 1536732, Note_off_c, 0, 92, 66
1, 1536812, Note_on_c, 0, 85, 77
1, 1536815, Note_on_c, 0, 89, 67
1, 1536818, Note_on_c, 0, 59, 61
1, 1536824, Note_on_c, 0, 47, 57
1, 1536851, Note_off_c, 0, 59, 62
1, 1536852, Note_off_c, 0, 47, 56
1, 1536857, Note_off_c, 0, 85, 62
1, 1536857, Note_off_c, 0, 89, 55
1, 1536912, Note_on_c, 0, 77, 66
1, 1536943, Note_off_c, 0, 77, 63
1, 1536957, Note_on_c, 0, 59, 58
1, 1536958, Note_on_c, 0, 47, 64
1, 1537009, Note_off_c, 0, 47, 56
1, 1537025, Note_on_c, 0, 85, 66
1, 1537027, Note_on_c, 0, 89, 51
1, 1537030, Note_off_c, 0, 59, 54
1, 1537051, Note_off_c, 0, 85, 68
1, 1537055, Note_off_c, 0, 89, 47
1, 1537116, Note_on_c, 0, 47, 81
1, 1537116, Note_on_c, 0, 90, 86
1, 1537123, Note_on_c, 0, 85, 84
1, 1537125, Note_on_c, 0, 59, 82
1, 1537128, Control_c, 0, 64, 62
1, 1537143, Control_c, 0, 64, 102
1, 1537158, Control_c, 0, 64, 127
1, 1537158, Note_off_c, 0, 59, 63
1, 1537164, Note_off_c, 0, 90, 61
1, 1537169, Note_off_c, 0, 47, 63
1, 1537175, Note_off_c, 0, 85, 65
1, 1537242, Note_on_c, 0, 78, 82
1, 1537252, Note_on_c, 0, 90, 76
1, 1537276, Note_off_c, 0, 90, 67
1, 1537284, Note_on_c, 0, 46, 73
1, 1537287, Note_off_c, 0, 78, 59
1, 1537310, Note_on_c, 0, 58, 49
1, 1537310, Note_off_c, 0, 46, 65
1, 1537336, Note_off_c, 0, 58, 57
1, 1537426, Note_on_c, 0, 49, 67
1, 1537432, Control_c, 0, 64, 75
1, 1537447, Control_c, 0, 64, 44
1, 1537461, Note_off_c, 0, 49, 65
1, 1537461, Control_c, 0, 64, 0
1, 1537521, Note_on_c, 0, 54, 75
1, 1537551, Note_off_c, 0, 54, 66
1, 1537594, Note_on_c, 0, 78, 80
1, 1537622, Note_off_c, 0, 78, 61
1, 1537636, Note_on_c, 0, 58, 70
1, 1537663, Note_off_c, 0, 58, 66
1, 1537766, Note_on_c, 0, 59, 71
1, 1537769, Note_on_c, 0, 47, 59
1, 1537769, Note_on_c, 0, 75, 74
1, 1537784, Note_on_c, 0, 68, 53
1, 1537788, Control_c, 0, 64, 52
1, 1537796, Note_off_c, 0, 59, 67
1, 1537803, Control_c, 0, 64, 69
1, 1537805, Note_off_c, 0, 47, 67
1, 1537818, Control_c, 0, 64, 97
1, 1537832, Control_c, 0, 64, 127
1, 1537932, Note_off_c, 0, 75, 55
1, 1537935, Note_on_c, 0, 73, 71
1, 1537950, Poly_aftertouch_c, 0, 65, 127
1, 1537961, Note_off_c, 0, 68, 60
1, 1537966, Control_c, 0, 64, 88
1, 1537981, Control_c, 0, 64, 59
1, 1537985, Note_off_c, 0, 73, 57
1, 1537992, Poly_aftertouch_c, 0, 65, 0
1, 1537996, Control_c, 0, 64, 0
1, 1538078, Note_on_c, 0, 56, 86
1, 1538079, Note_on_c, 0, 44, 77
1, 1538085, Note_on_c, 0, 65, 59
1, 1538088, Note_on_c, 0, 71, 67
1, 1538091, Note_on_c, 0, 68, 54
1, 1538097, Note_on_c, 0, 73, 56
1, 1538109, Note_off_c, 0, 56, 69
1, 1538118, Note_off_c, 0, 44, 66
1, 1538133, Note_off_c, 0, 68, 64
1, 1538136, Note_off_c, 0, 73, 62
1, 1538140, Note_off_c, 0, 65, 57
1, 1538151, Note_off_c, 0, 71, 60
1, 1538245, Note_on_c, 0, 65, 67
1, 1538250, Note_on_c, 0, 73, 50
1, 1538252, Note_on_c, 0, 68, 46
1, 1538266, Note_off_c, 0, 65, 65
1, 1538273, Note_on_c, 0, 71, 39
1, 1538276, Note_off_c, 0, 68, 56
1, 1538284, Note_off_c, 0, 73, 65
1, 1538305, Note_off_c, 0, 71, 51
1, 1538416, Note_on_c, 0, 46, 79
1, 1538417, Note_on_c, 0, 58, 75
1, 1538429, Note_on_c, 0, 73, 49
1, 1538434, Control_c, 0, 64, 56
1, 1538438, Note_on_c, 0, 66, 44
1, 1538443, Note_off_c, 0, 46, 66
1, 1538443, Note_off_c, 0, 58, 66
1, 1538446, Note_on_c, 0, 70, 31
1, 1538449, Control_c, 0, 64, 80
1, 1538463, Control_c, 0, 64, 127
1, 1538531, Note_off_c, 0, 66, 59
1, 1538586, Note_on_c, 0, 78, 78
1, 1538601, Note_off_c, 0, 70, 64
1, 1538601, Note_off_c, 0, 73, 64
1, 1538631, Note_off_c, 0, 78, 62
1, 1538714, Control_c, 0, 64, 111
1, 1538715, Note_on_c, 0, 82, 75
1, 1538729, Control_c, 0, 64, 67
1, 1538744, Control_c, 0, 64, 0
1, 1538752, Note_off_c, 0, 82, 61
1, 1538826, Note_on_c, 0, 85, 78
1, 1538866, Note_off_c, 0, 85, 64
1, 1538899, Note_on_c, 0, 51, 59
1, 1538902, Note_on_c, 0, 63, 61
1, 1538925, Note_off_c, 0, 63, 61
1, 1538931, Note_off_c, 0, 51, 53
1, 1538969, Note_on_c, 0, 90, 76
1, 1539012, Note_off_c, 0, 90, 61
1, 1539078, Control_c, 0, 64, 45
1, 1539081, Note_on_c, 0, 92, 71
1, 1539085, Note_on_c, 0, 49, 62
1, 1539093, Note_on_c, 0, 90, 30
1, 1539093, Control_c, 0, 64, 74
1, 1539097, Note_on_c, 0, 85, 75
1, 1539098, Note_on_c, 0, 61, 54
1, 1539107, Control_c, 0, 64, 127
1, 1539119, Note_off_c, 0, 90, 50
1, 1539142, Note_off_c, 0, 61, 64
1, 1539172, Note_off_c, 0, 49, 59
1, 1539212, Note_off_c, 0, 85, 62
1, 1539214, Note_on_c, 0, 80, 67
1, 1539251, Note_off_c, 0, 92, 64
1, 1539254, Note_on_c, 0, 47, 71
1, 1539258, Note_on_c, 0, 59, 71
1, 1539272, Note_off_c, 0, 80, 44
1, 1539278, Note_off_c, 0, 47, 67
1, 1539285, Note_off_c, 0, 59, 67
1, 1539322, Note_on_c, 0, 92, 62
1, 1539326, Note_on_c, 0, 85, 72
1, 1539350, Note_off_c, 0, 85, 69
1, 1539353, Note_off_c, 0, 92, 67
1, 1539404, Control_c, 0, 64, 81
1, 1539419, Control_c, 0, 64, 54
1, 1539432, Note_on_c, 0, 89, 84
1, 1539434, Control_c, 0, 64, 0
1, 1539438, Note_on_c, 0, 85, 83
1, 1539473, Note_on_c, 0, 59, 75
1, 1539478, Note_on_c, 0, 47, 62
1, 1539499, Note_off_c, 0, 59, 66
1, 1539501, Note_off_c, 0, 89, 58
1, 1539504, Note_off_c, 0, 47, 59
1, 1539549, Note_on_c, 0, 77, 72
1, 1539549, Note_off_c, 0, 85, 32
1, 1539552, Note_on_c, 0, 76, 79
1, 1539589, Note_off_c, 0, 76, 64
1, 1539592, Note_off_c, 0, 77, 63
1, 1539647, Note_on_c, 0, 59, 81
1, 1539647, Note_on_c, 0, 89, 73
1, 1539650, Note_on_c, 0, 47, 82
1, 1539653, Note_on_c, 0, 85, 85
1, 1539686, Note_off_c, 0, 89, 64
1, 1539698, Note_off_c, 0, 85, 63
1, 1539701, Note_off_c, 0, 59, 65
1, 1539710, Note_off_c, 0, 47, 63
1, 1539767, Control_c, 0, 64, 61
1, 1539774, Note_on_c, 0, 90, 91
1, 1539777, Note_on_c, 0, 85, 102
1, 1539782, Control_c, 0, 64, 127
1, 1539802, Note_on_c, 0, 60, 79
1, 1539804, Note_on_c, 0, 59, 77
1, 1539809, Note_on_c, 0, 47, 64
1, 1539825, Note_off_c, 0, 60, 68
1, 1539834, Note_off_c, 0, 59, 62
1, 1539841, Note_off_c, 0, 47, 65
1, 1539886, Note_on_c, 0, 78, 90
1, 1539903, Note_off_c, 0, 85, 59
1, 1539917, Note_off_c, 0, 90, 64
1, 1539929, Note_off_c, 0, 78, 63
1, 1539969, Note_on_c, 0, 46, 93
1, 1539970, Note_on_c, 0, 58, 95
1, 1540005, Note_off_c, 0, 58, 66
1, 1540013, Note_off_c, 0, 46, 62
1, 1540014, Note_on_c, 0, 85, 82
1, 1540017, Note_on_c, 0, 78, 84
1, 1540055, Note_off_c, 0, 85, 61
1, 1540068, Note_off_c, 0, 78, 58
1, 1540091, Note_on_c, 0, 58, 100
1, 1540092, Note_on_c, 0, 46, 92
1, 1540094, Control_c, 0, 64, 105
1, 1540109, Control_c, 0, 64, 69
1, 1540119, Note_on_c, 0, 85, 86
1, 1540124, Control_c, 0, 64, 44
1, 1540136, Note_off_c, 0, 58, 65
1, 1540136, Note_off_c, 0, 46, 62
1, 1540137, Note_on_c, 0, 78, 64
1, 1540139, Control_c, 0, 64, 32
1, 1540145, Note_on_c, 0, 73, 64
1, 1540153, Control_c, 0, 64, 53
1, 1540166, Note_off_c, 0, 78, 65
1, 1540167, Note_off_c, 0, 73, 64
1, 1540168, Control_c, 0, 64, 73
1, 1540183, Control_c, 0, 64, 127
1, 1540186, Note_off_c, 0, 85, 59
1, 1540239, Note_on_c, 0, 58, 103
1, 1540239, Note_on_c, 0, 73, 60
1, 1540240, Note_on_c, 0, 46, 92
1, 1540256, Note_on_c, 0, 78, 74
1, 1540275, Note_off_c, 0, 73, 53
1, 1540300, Note_on_c, 0, 85, 64
1, 1540302, Note_off_c, 0, 78, 59
1, 1540317, Note_off_c, 0, 58, 42
1, 1540327, Note_off_c, 0, 46, 53
1, 1540332, Note_off_c, 0, 85, 66
1, 1540398, Control_c, 0, 64, 88
1, 1540413, Control_c, 0, 64, 57
1, 1540422, Note_on_c, 0, 46, 98
1, 1540423, Note_on_c, 0, 58, 99
1, 1540428, Control_c, 0, 64, 0
1, 1540429, Note_on_c, 0, 82, 95
1, 1540429, Note_on_c, 0, 89, 93
1, 1540442, Control_c, 0, 64, 33
1, 1540457, Control_c, 0, 64, 63
1, 1540472, Control_c, 0, 64, 127
1, 1540485, Note_off_c, 0, 58, 65
1, 1540491, Note_on_c, 0, 49, 3
1, 1540501, Note_off_c, 0, 82, 56
1, 1540514, Note_off_c, 0, 46, 59
1, 1540532, Note_on_c, 0, 77, 89
1, 1540533, Note_off_c, 0, 49, 47
1, 1540561, Poly_aftertouch_c, 0, 87, 127
1, 1540571, Note_off_c, 0, 89, 62
1, 1540584, Note_off_c, 0, 77, 65
1, 1540593, Poly_aftertouch_c, 0, 87, 0
1, 1540597, Note_on_c, 0, 44, 80
1, 1540599, Note_on_c, 0, 56, 90
1, 1540642, Note_on_c, 0, 82, 90
1, 1540643, Note_off_c, 0, 44, 59
1, 1540643, Note_off_c, 0, 56, 64
1, 1540644, Note_on_c, 0, 89, 82
1, 1540667, Note_off_c, 0, 89, 67
1, 1540681, Note_off_c, 0, 82, 59
1, 1540736, Note_on_c, 0, 44, 89
1, 1540740, Note_on_c, 0, 56, 92
1, 1540746, Note_on_c, 0, 86, 97
1, 1540752, Control_c, 0, 64, 69
1, 1540753, Note_on_c, 0, 82, 96
1, 1540767, Control_c, 0, 64, 32
1, 1540783, Control_c, 0, 64, 0
1, 1540787, Note_off_c, 0, 56, 63
1, 1540795, Note_off_c, 0, 44, 63
1, 1540826, Note_off_c, 0, 82, 62
1, 1540827, Control_c, 0, 64, 42
1, 1540842, Control_c, 0, 64, 62
1, 1540843, Note_on_c, 0, 74, 96
1, 1540857, Control_c, 0, 64, 91
1, 1540872, Control_c, 0, 64, 127
1, 1540877, Note_off_c, 0, 86, 65
1, 1540884, Note_on_c, 0, 56, 87
1, 1540887, Note_on_c, 0, 44, 82
1, 1540905, Note_off_c, 0, 74, 64
1, 1540941, Note_on_c, 0, 82, 94
1, 1540950, Note_on_c, 0, 86, 87
1, 1540975, Note_off_c, 0, 56, 61
1, 1540981, Note_off_c, 0, 44, 62
1, 1540987, Note_off_c, 0, 82, 66
1, 1540989, Note_off_c, 0, 86, 64
1, 1541068, Note_on_c, 0, 42, 101
1, 1541069, Note_on_c, 0, 54, 97
1, 1541071, Note_on_c, 0, 87, 93
1, 1541074, Note_on_c, 0, 82, 96
1, 1541116, Control_c, 0, 64, 86
1, 1541131, Control_c, 0, 64, 52
1, 1541146, Control_c, 0, 64, 0
1, 1541166, Note_off_c, 0, 54, 59
1, 1541178, Note_off_c, 0, 42, 61
1, 1541184, Note_off_c, 0, 82, 66
1, 1541190, Control_c, 0, 64, 63
1, 1541195, Note_on_c, 0, 75, 90
1, 1541205, Control_c, 0, 64, 127
1, 1541232, Note_off_c, 0, 87, 63
1, 1541253, Note_off_c, 0, 75, 61
1, 1541281, Note_on_c, 0, 54, 84
1, 1541285, Note_on_c, 0, 42, 84
1, 1541297, Note_on_c, 0, 82, 100
1, 1541300, Note_on_c, 0, 87, 88
1, 1541301, Note_on_c, 0, 75, 66
1, 1541328, Note_off_c, 0, 75, 68
1, 1541337, Note_off_c, 0, 54, 63
1, 1541340, Note_off_c, 0, 82, 64
1, 1541343, Note_off_c, 0, 42, 62
1, 1541343, Note_off_c, 0, 87, 64
1, 1541403, Note_on_c, 0, 42, 97
1, 1541406, Note_on_c, 0, 54, 96
1, 1541410, Note_on_c, 0, 82, 94
1, 1541418, Note_on_c, 0, 75, 85
1, 1541453, Note_on_c, 0, 74, 48
1, 1541464, Note_off_c, 0, 54, 57
1, 1541471, Control_c, 0, 64, 123
1, 1541477, Note_off_c, 0, 74, 57
1, 1541477, Note_off_c, 0, 42, 63
1, 1541480, Note_off_c, 0, 75, 51
1, 1541486, Control_c, 0, 64, 102
1, 1541492, Note_off_c, 0, 82, 53
1, 1541500, Control_c, 0, 64, 127
1, 1541502, Note_on_c, 0, 70, 96
1, 1541540, Note_on_c, 0, 42, 91
1, 1541540, Note_on_c, 0, 54, 81
1, 1541552, Note_off_c, 0, 70, 66
1, 1541559, Note_off_c, 0, 54, 72
1, 1541589, Note_off_c, 0, 42, 63
1, 1541598, Note_on_c, 0, 75, 93
1, 1541607, Note_on_c, 0, 82, 87
1, 1541642, Note_off_c, 0, 75, 62
1, 1541651, Note_off_c, 0, 82, 61
1, 1541683, Note_on_c, 0, 39, 41
1, 1541720, Note_off_c, 0, 39, 51
1, 1541741, Poly_aftertouch_c, 0, 37, 127
1, 1541772, Poly_aftertouch_c, 0, 37, 0
1, 1541788, Note_on_c, 0, 35, 95
1, 1541790, Note_on_c, 0, 47, 107
1, 1541797, Control_c, 0, 64, 68
1, 1541812, Note_on_c, 0, 37, 61
1, 1541812, Control_c, 0, 64, 0
1, 1541853, Note_off_c, 0, 37, 62
1, 1541874, Note_on_c, 0, 63, 92
1, 1541879, Control_c, 0, 64, 58
1, 1541886, Note_off_c, 0, 47, 66
1, 1541888, Note_off_c, 0, 35, 64
1, 1541894, Control_c, 0, 64, 90
1, 1541909, Control_c, 0, 64, 127
1, 1541942, Note_on_c, 0, 66, 100
1, 1541972, Note_off_c, 0, 63, 61
1, 1542013, Note_on_c, 0, 71, 94
1, 1542029, Note_off_c, 0, 66, 62
1, 1542053, Note_off_c, 0, 71, 68
1, 1542108, Note_on_c, 0, 75, 100
1, 1542172, Note_on_c, 0, 78, 93
1, 1542206, Note_off_c, 0, 75, 54
1, 1542246, Note_on_c, 0, 83, 78
1, 1542258, Note_on_c, 0, 82, 54
1, 1542294, Note_on_c, 0, 87, 88
1, 1542308, Note_off_c, 0, 78, 58
1, 1542355, Note_off_c, 0, 83, 58
1, 1542357, Note_off_c, 0, 82, 43
1, 1542376, Note_off_c, 0, 87, 65
1, 1542443, Control_c, 0, 64, 90
1, 1542447, Note_on_c, 0, 78, 86
1, 1542447, Note_on_c, 0, 88, 91
1, 1542452, Note_on_c, 0, 35, 80
1, 1542452, Note_on_c, 0, 47, 84
1, 1542452, Note_on_c, 0, 76, 86
1, 1542458, Control_c, 0, 64, 62
1, 1542472, Control_c, 0, 64, 0
1, 1542532, Control_c, 0, 64, 48
1, 1542546, Control_c, 0, 64, 67
1, 1542561, Note_off_c, 0, 47, 63
1, 1542561, Control_c, 0, 64, 91
1, 1542565, Note_off_c, 0, 35, 63
1, 1542574, Note_off_c, 0, 76, 65
1, 1542576, Control_c, 0, 64, 127
1, 1542586, Note_off_c, 0, 88, 68
1, 1542637, Note_off_c, 0, 78, 66
1, 1542676, Note_on_c, 0, 46, 74
1, 1542676, Note_on_c, 0, 34, 74
1, 1542722, Note_off_c, 0, 34, 55
1, 1542731, Note_off_c, 0, 46, 49
1, 1542805, Control_c, 0, 64, 80
1, 1542820, Control_c, 0, 64, 54
1, 1542835, Control_c, 0, 64, 0
1, 1542838, Note_on_c, 0, 85, 89
1, 1542840, Note_on_c, 0, 78, 83
1, 1542841, Note_on_c, 0, 46, 81
1, 1542843, Note_on_c, 0, 34, 81
1, 1542845, Note_on_c, 0, 73, 83
1, 1542879, Control_c, 0, 64, 38
1, 1542894, Control_c, 0, 64, 65
1, 1542905, Note_off_c, 0, 46, 62
1, 1542909, Control_c, 0, 64, 100
1, 1542911, Note_off_c, 0, 34, 63
1, 1542924, Control_c, 0, 64, 127
1, 1542928, Note_off_c, 0, 73, 63
1, 1542934, Note_off_c, 0, 85, 65
1, 1542965, Note_off_c, 0, 78, 59
1, 1542999, Note_on_c, 0, 34, 56
1, 1543004, Note_on_c, 0, 46, 61
1, 1543033, Note_off_c, 0, 46, 61
1, 1543074, Note_off_c, 0, 34, 59
1, 1543102, Control_c, 0, 64, 79
1, 1543117, Control_c, 0, 64, 54
1, 1543132, Control_c, 0, 64, 0
1, 1543167, Note_on_c, 0, 47, 93
1, 1543168, Note_on_c, 0, 35, 96
1, 1543247, Note_on_c, 0, 63, 82
1, 1543251, Control_c, 0, 64, 38
1, 1543266, Control_c, 0, 64, 65
1, 1543281, Control_c, 0, 64, 94
1, 1543282, Note_off_c, 0, 35, 65
1, 1543287, Note_off_c, 0, 47, 65
1, 1543296, Control_c, 0, 64, 127
1, 1543303, Note_on_c, 0, 66, 87
1, 1543330, Note_off_c, 0, 63, 62
1, 1543388, Note_on_c, 0, 71, 96
1, 1543404, Note_off_c, 0, 66, 63
1, 1543407, Note_on_c, 0, 70, 43
1, 1543427, Note_off_c, 0, 71, 68
1, 1543438, Note_off_c, 0, 70, 33
1, 1543480, Note_on_c, 0, 75, 97
1, 1543550, Note_on_c, 0, 78, 97
1, 1543567, Note_off_c, 0, 75, 60
1, 1543636, Note_on_c, 0, 83, 84
1, 1543638, Note_on_c, 0, 82, 61
1, 1543685, Note_on_c, 0, 87, 80
1, 1543692, Note_off_c, 0, 78, 57
1, 1543724, Note_off_c, 0, 82, 53
1, 1543740, Note_off_c, 0, 83, 60
1, 1543759, Note_off_c, 0, 87, 65
1, 1543811, Note_on_c, 0, 78, 83
1, 1543812, Note_on_c, 0, 88, 89
1, 1543813, Note_on_c, 0, 76, 82
1, 1543817, Note_on_c, 0, 35, 69
1, 1543823, Note_on_c, 0, 47, 78
1, 1543836, Control_c, 0, 64, 108
1, 1543851, Control_c, 0, 64, 70
1, 1543866, Control_c, 0, 64, 40
1, 1543881, Control_c, 0, 64, 0
1, 1543888, Note_off_c, 0, 47, 64
1, 1543907, Note_off_c, 0, 35, 61
1, 1543925, Control_c, 0, 64, 38
1, 1543931, Note_off_c, 0, 76, 63
1, 1543938, Note_off_c, 0, 88, 66
1, 1543940, Control_c, 0, 64, 61
1, 1543955, Control_c, 0, 64, 79
1, 1543971, Control_c, 0, 64, 127
1, 1543992, Note_on_c, 0, 46, 74
1, 1543994, Note_on_c, 0, 34, 70
1, 1543998, Note_on_c, 0, 82, 24
1, 1543999, Note_off_c, 0, 78, 62
1, 1544020, Note_off_c, 0, 46, 62
1, 1544026, Note_off_c, 0, 34, 64
1, 1544037, Note_off_c, 0, 82, 40
1, 1544126, Control_c, 0, 64, 85
1, 1544141, Control_c, 0, 64, 60
1, 1544142, Note_on_c, 0, 85, 82
1, 1544144, Note_on_c, 0, 78, 74
1, 1544148, Note_on_c, 0, 34, 69
1, 1544150, Note_on_c, 0, 46, 72
1, 1544154, Note_on_c, 0, 73, 77
1, 1544156, Control_c, 0, 64, 32
1, 1544171, Control_c, 0, 64, 32
1, 1544186, Control_c, 0, 64, 52
1, 1544200, Control_c, 0, 64, 70
1, 1544215, Control_c, 0, 64, 112
1, 1544218, Note_off_c, 0, 46, 62
1, 1544224, Note_off_c, 0, 34, 63
1, 1544230, Control_c, 0, 64, 127
1, 1544247, Note_off_c, 0, 85, 63
1, 1544250, Note_off_c, 0, 73, 62
1, 1544270, Note_off_c, 0, 78, 60
1, 1544313, Note_on_c, 0, 34, 78
1, 1544315, Note_on_c, 0, 46, 77
1, 1544345, Note_off_c, 0, 46, 64
1, 1544351, Note_off_c, 0, 34, 62
1, 1544482, Control_c, 0, 64, 114
1, 1544497, Control_c, 0, 64, 79
1, 1544512, Note_on_c, 0, 47, 84
1, 1544512, Control_c, 0, 64, 59
1, 1544514, Note_on_c, 0, 35, 84
1, 1544526, Control_c, 0, 64, 0
1, 1544571, Note_on_c, 0, 63, 77
1, 1544632, Note_on_c, 0, 66, 93
1, 1544645, Note_off_c, 0, 63, 61
1, 1544645, Control_c, 0, 64, 48
1, 1544659, Control_c, 0, 64, 62
1, 1544674, Control_c, 0, 64, 70
1, 1544689, Control_c, 0, 64, 78
1, 1544704, Control_c, 0, 64, 86
1, 1544712, Note_on_c, 0, 71, 83
1, 1544715, Note_off_c, 0, 66, 65
1, 1544718, Control_c, 0, 64, 98
1, 1544733, Control_c, 0, 64, 127
1, 1544733, Control_c, 0, 67, 35
1, 1544747, Note_off_c, 0, 71, 65
1, 1544748, Control_c, 0, 67, 52
1, 1544763, Control_c, 0, 67, 64
1, 1544779, Control_c, 0, 67, 72
1, 1544789, Note_off_c, 0, 47, 63
1, 1544794, Control_c, 0, 67, 84
1, 1544803, Note_on_c, 0, 75, 88
1, 1544809, Control_c, 0, 67, 104
1, 1544822, Note_off_c, 0, 35, 63
1, 1544823, Control_c, 0, 67, 127
1, 1544875, Note_on_c, 0, 78, 91
1, 1544908, Note_off_c, 0, 75, 58
1, 1544955, Note_on_c, 0, 83, 71
1, 1545000, Note_on_c, 0, 82, 18
1, 1545023, Note_on_c, 0, 87, 81
1, 1545034, Note_off_c, 0, 82, 31
1, 1545052, Note_off_c, 0, 78, 50
1, 1545056, Note_off_c, 0, 83, 64
1, 1545102, Note_off_c, 0, 87, 64
1, 1545169, Note_on_c, 0, 89, 80
1, 1545179, Note_on_c, 0, 46, 75
1, 1545181, Note_on_c, 0, 34, 71
1, 1545200, Control_c, 0, 64, 83
1, 1545202, Note_on_c, 0, 77, 60
1, 1545215, Control_c, 0, 64, 64
1, 1545230, Control_c, 0, 64, 42
1, 1545235, Note_off_c, 0, 77, 64
1, 1545245, Control_c, 0, 64, 0
1, 1545336, Note_on_c, 0, 90, 77
1, 1545343, Note_on_c, 0, 87, 71
1, 1545352, Note_on_c, 0, 78, 60
1, 1545370, Note_off_c, 0, 46, 62
1, 1545394, Note_off_c, 0, 89, 36
1, 1545398, Note_off_c, 0, 78, 50
1, 1545418, Note_off_c, 0, 87, 55
1, 1545433, Note_off_c, 0, 90, 63
1, 1545495, Note_on_c, 0, 33, 80
1, 1545496, Note_on_c, 0, 45, 76
1, 1545507, Note_on_c, 0, 90, 73
1, 1545516, Note_on_c, 0, 78, 61
1, 1545518, Note_on_c, 0, 87, 68
1, 1545529, Note_off_c, 0, 34, 62
1, 1545556, Note_off_c, 0, 45, 64
1, 1545556, Control_c, 0, 64, 48
1, 1545561, Note_off_c, 0, 33, 63
1, 1545572, Control_c, 0, 64, 64
1, 1545584, Note_off_c, 0, 87, 59
1, 1545587, Control_c, 0, 64, 77
1, 1545588, Note_off_c, 0, 78, 59
1, 1545606, Note_off_c, 0, 90, 64
1, 1545609, Control_c, 0, 64, 103
1, 1545624, Control_c, 0, 64, 127
1, 1545663, Note_on_c, 0, 90, 76
1, 1545670, Note_on_c, 0, 87, 75
1, 1545675, Note_on_c, 0, 78, 84
1, 1545689, Note_off_c, 0, 87, 72
1, 1545697, Note_off_c, 0, 90, 63
1, 1545701, Note_off_c, 0, 78, 62
1, 1545895, Note_on_c, 0, 34, 75
1, 1545900, Note_on_c, 0, 46, 100
1, 1545920, Control_c, 0, 64, 117
1, 1545935, Control_c, 0, 64, 74
1, 1545950, Control_c, 0, 64, 53
1, 1545962, Note_on_c, 0, 62, 75
1, 1545965, Control_c, 0, 64, 0
1, 1546022, Note_off_c, 0, 62, 65
1, 1546029, Note_on_c, 0, 65, 86
1, 1546098, Control_c, 0, 64, 30
1, 1546099, Note_on_c, 0, 70, 91
1, 1546107, Note_off_c, 0, 65, 60
1, 1546113, Control_c, 0, 64, 47
1, 1546128, Control_c, 0, 64, 62
1, 1546136, Note_off_c, 0, 70, 66
1, 1546142, Control_c, 0, 64, 73
1, 1546157, Control_c, 0, 64, 93
1, 1546172, Control_c, 0, 64, 127
1, 1546178, Note_on_c, 0, 39, 22
1, 1546181, Note_on_c, 0, 74, 98
1, 1546201, Note_off_c, 0, 46, 62
1, 1546219, Note_off_c, 0, 34, 61
1, 1546224, Note_off_c, 0, 39, 50
1, 1546245, Note_on_c, 0, 77, 93
1, 1546272, Note_off_c, 0, 74, 56
1, 1546324, Note_on_c, 0, 82, 79
1, 1546371, Note_off_c, 0, 77, 61
1, 1546405, Note_on_c, 0, 86, 79
1, 1546443, Note_off_c, 0, 82, 57
1, 1546479, Note_off_c, 0, 86, 66
1, 1546568, Note_on_c, 0, 87, 87
1, 1546570, Note_on_c, 0, 46, 78
1, 1546577, Note_on_c, 0, 34, 75
1, 1546600, Note_on_c, 0, 75, 59
1, 1546610, Control_c, 0, 64, 79
1, 1546619, Poly_aftertouch_c, 0, 77, 127
1, 1546625, Control_c, 0, 64, 59
1, 1546640, Control_c, 0, 64, 32
1, 1546654, Control_c, 0, 64, 0
1, 1546676, Note_off_c, 0, 46, 61
1, 1546685, Note_off_c, 0, 75, 38
1, 1546721, Note_off_c, 0, 87, 62
1, 1546747, Note_on_c, 0, 45, 75
1, 1546751, Note_on_c, 0, 33, 70
1, 1546765, Note_off_c, 0, 34, 50
1, 1546795, Note_off_c, 0, 33, 62
1, 1546797, Poly_aftertouch_c, 0, 77, 0
1, 1546808, Note_off_c, 0, 45, 60
1, 1546898, Note_on_c, 0, 33, 75
1, 1546901, Note_on_c, 0, 84, 77
1, 1546904, Note_on_c, 0, 45, 70
1, 1546904, Note_on_c, 0, 77, 68
1, 1546914, Note_on_c, 0, 72, 60
1, 1546935, Control_c, 0, 64, 33
1, 1546950, Control_c, 0, 64, 53
1, 1546955, Note_off_c, 0, 45, 53
1, 1546965, Control_c, 0, 64, 69
1, 1546968, Note_off_c, 0, 33, 61
1, 1546980, Control_c, 0, 64, 99
1, 1546983, Note_off_c, 0, 72, 62
1, 1546995, Control_c, 0, 64, 127
1, 1547007, Note_off_c, 0, 84, 64
1, 1547013, Note_off_c, 0, 77, 65
1, 1547049, Note_on_c, 0, 33, 72
1, 1547061, Note_on_c, 0, 45, 63
1, 1547075, Note_off_c, 0, 33, 64
1, 1547085, Note_off_c, 0, 45, 63
1, 1547211, Control_c, 0, 64, 95
1, 1547225, Control_c, 0, 64, 68
1, 1547240, Control_c, 0, 64, 41
1, 1547254, Note_on_c, 0, 46, 95
1, 1547255, Control_c, 0, 64, 0
1, 1547257, Note_on_c, 0, 34, 92
1, 1547314, Note_on_c, 0, 62, 83
1, 1547359, Control_c, 0, 64, 44
1, 1547368, Note_off_c, 0, 62, 63
1, 1547374, Control_c, 0, 64, 65
1, 1547382, Note_on_c, 0, 65, 84
1, 1547388, Control_c, 0, 64, 93
1, 1547403, Control_c, 0, 64, 127
1, 1547412, Note_off_c, 0, 46, 60
1, 1547431, Note_off_c, 0, 34, 62
1, 1547448, Note_off_c, 0, 65, 60
1, 1547450, Note_on_c, 0, 70, 87
1, 1547484, Note_off_c, 0, 70, 59
1, 1547528, Note_on_c, 0, 74, 94
1, 1547593, Note_on_c, 0, 77, 90
1, 1547631, Note_off_c, 0, 74, 48
1, 1547671, Note_on_c, 0, 82, 83
1, 1547726, Note_off_c, 0, 77, 62
1, 1547743, Note_on_c, 0, 86, 82
1, 1547806, Note_off_c, 0, 82, 58
1, 1547816, Note_off_c, 0, 86, 63
1, 1547901, Note_on_c, 0, 87, 90
1, 1547902, Note_on_c, 0, 46, 75
1, 1547904, Note_on_c, 0, 34, 77
1, 1547910, Note_on_c, 0, 77, 62
1, 1547914, Control_c, 0, 64, 101
1, 1547929, Control_c, 0, 64, 72
1, 1547937, Note_on_c, 0, 75, 57
1, 1547943, Control_c, 0, 64, 54
1, 1547958, Control_c, 0, 64, 33
1, 1547974, Control_c, 0, 64, 0
1, 1548017, Note_off_c, 0, 75, 59
1, 1548032, Note_off_c, 0, 46, 54
1, 1548062, Note_off_c, 0, 87, 62
1, 1548089, Note_on_c, 0, 33, 67
1, 1548089, Note_on_c, 0, 45, 70
1, 1548101, Note_off_c, 0, 77, 48
1, 1548128, Note_off_c, 0, 34, 26
1, 1548136, Note_off_c, 0, 33, 60
1, 1548143, Note_off_c, 0, 45, 58
1, 1548244, Note_on_c, 0, 33, 66
1, 1548247, Note_on_c, 0, 84, 72
1, 1548256, Note_on_c, 0, 77, 58
1, 1548259, Note_on_c, 0, 72, 57
1, 1548265, Note_on_c, 0, 45, 45
1, 1548271, Control_c, 0, 64, 37
1, 1548286, Control_c, 0, 64, 54
1, 1548297, Note_off_c, 0, 45, 55
1, 1548300, Control_c, 0, 64, 68
1, 1548301, Note_off_c, 0, 33, 55
1, 1548315, Control_c, 0, 64, 78
1, 1548330, Control_c, 0, 64, 91
1, 1548345, Control_c, 0, 64, 104
1, 1548350, Note_off_c, 0, 84, 60
1, 1548357, Note_off_c, 0, 77, 62
1, 1548358, Note_off_c, 0, 72, 47
1, 1548360, Control_c, 0, 64, 127
1, 1548394, Note_on_c, 0, 45, 60
1, 1548408, Note_on_c, 0, 33, 57
1, 1548429, Note_off_c, 0, 45, 63
1, 1548438, Note_off_c, 0, 33, 63
1, 1548537, Control_c, 0, 64, 87
1, 1548552, Control_c, 0, 64, 65
1, 1548566, Control_c, 0, 64, 37
1, 1548581, Note_on_c, 0, 46, 80
1, 1548581, Control_c, 0, 64, 0
1, 1548583, Note_on_c, 0, 34, 78
1, 1548661, Note_on_c, 0, 62, 75
1, 1548707, Control_c, 0, 64, 44
1, 1548718, Note_off_c, 0, 62, 59
1, 1548722, Control_c, 0, 64, 67
1, 1548730, Note_on_c, 0, 65, 80
1, 1548737, Control_c, 0, 64, 85
1, 1548751, Control_c, 0, 64, 127
1, 1548787, Note_off_c, 0, 65, 60
1, 1548788, Note_off_c, 0, 46, 62
1, 1548792, Note_on_c, 0, 70, 81
1, 1548804, Note_off_c, 0, 34, 61
1, 1548813, Note_off_c, 0, 70, 72
1, 1548833, Poly_aftertouch_c, 0, 39, 127
1, 1548867, Poly_aftertouch_c, 0, 39, 0
1, 1548868, Note_on_c, 0, 74, 92
1, 1548941, Note_on_c, 0, 77, 85
1, 1548946, Note_off_c, 0, 74, 60
1, 1549017, Note_on_c, 0, 82, 81
1, 1549055, Note_off_c, 0, 77, 54
1, 1549097, Note_on_c, 0, 86, 79
1, 1549148, Note_off_c, 0, 86, 64
1, 1549153, Note_off_c, 0, 82, 59
1, 1549255, Note_on_c, 0, 87, 79
1, 1549256, Note_on_c, 0, 34, 66
1, 1549257, Control_c, 0, 64, 107
1, 1549260, Note_on_c, 0, 46, 63
1, 1549272, Control_c, 0, 64, 78
1, 1549287, Control_c, 0, 64, 63
1, 1549302, Control_c, 0, 64, 47
1, 1549314, Note_on_c, 0, 75, 32
1, 1549315, Note_on_c, 0, 77, 34
1, 1549316, Control_c, 0, 64, 0
1, 1549365, Note_off_c, 0, 34, 63
1, 1549368, Note_off_c, 0, 46, 61
1, 1549383, Control_c, 0, 64, 37
1, 1549398, Control_c, 0, 64, 52
1, 1549412, Control_c, 0, 64, 62
1, 1549427, Control_c, 0, 64, 66
1, 1549428, Note_off_c, 0, 75, 34
1, 1549438, Note_off_c, 0, 87, 63
1, 1549439, Note_on_c, 0, 34, 62
1, 1549442, Control_c, 0, 64, 68
1, 1549457, Control_c, 0, 64, 68
1, 1549472, Control_c, 0, 64, 69
1, 1549481, Note_off_c, 0, 34, 60
1, 1549487, Control_c, 0, 64, 70
1, 1549502, Control_c, 0, 64, 71
1, 1549517, Note_off_c, 0, 77, 37
1, 1549544, Poly_aftertouch_c, 0, 46, 0
1, 1549546, Control_c, 0, 64, 70
1, 1549561, Control_c, 0, 64, 69
1, 1549576, Control_c, 0, 64, 66
1, 1549579, Note_on_c, 0, 33, 60
1, 1549587, Note_on_c, 0, 45, 48
1, 1549591, Control_c, 0, 64, 65
1, 1549613, Note_on_c, 0, 84, 71
1, 1549623, Note_on_c, 0, 77, 53
1, 1549623, Note_off_c, 0, 45, 60
1, 1549629, Note_off_c, 0, 33, 61
1, 1549635, Note_on_c, 0, 72, 50
1, 1549636, Control_c, 0, 64, 67
1, 1549651, Control_c, 0, 64, 73
1, 1549665, Control_c, 0, 64, 81
1, 1549679, Control_c, 0, 64, 91
1, 1549694, Control_c, 0, 64, 98
1, 1549709, Control_c, 0, 64, 104
1, 1549717, Note_off_c, 0, 84, 59
1, 1549719, Note_off_c, 0, 77, 63
1, 1549724, Control_c, 0, 64, 107
1, 1549738, Control_c, 0, 64, 109
1, 1549745, Note_on_c, 0, 33, 62
1, 1549746, Note_off_c, 0, 72, 54
1, 1549748, Note_on_c, 0, 45, 60
1, 1549776, Note_off_c, 0, 33, 62
1, 1549781, Note_off_c, 0, 45, 62
1, 1549857, Control_c, 0, 64, 105
1, 1549872, Control_c, 0, 64, 97
1, 1549886, Control_c, 0, 64, 85
1, 1549901, Control_c, 0, 64, 72
1, 1549916, Control_c, 0, 64, 60
1, 1549931, Control_c, 0, 64, 40
1, 1549941, Note_on_c, 0, 46, 58
1, 1549946, Note_on_c, 0, 34, 57
1, 1549946, Control_c, 0, 64, 0
1, 1549994, Note_on_c, 0, 62, 57
1, 1550041, Note_off_c, 0, 62, 51
1, 1550063, Note_on_c, 0, 65, 73
1, 1550136, Note_off_c, 0, 65, 58
1, 1550137, Note_on_c, 0, 70, 80
1, 1550173, Note_off_c, 0, 70, 66
1, 1550176, Control_c, 0, 64, 32
1, 1550190, Control_c, 0, 64, 52
1, 1550193, Note_off_c, 0, 46, 62
1, 1550201, Note_off_c, 0, 34, 64
1, 1550205, Control_c, 0, 64, 69
1, 1550220, Control_c, 0, 64, 87
1, 1550225, Note_on_c, 0, 74, 84
1, 1550235, Control_c, 0, 64, 127
1, 1550292, Note_on_c, 0, 77, 79
1, 1550294, Note_off_c, 0, 74, 58
1, 1550375, Note_on_c, 0, 82, 62
1, 1550387, Note_off_c, 0, 77, 52
1, 1550399, Note_on_c, 0, 46, 56
1, 1550408, Note_on_c, 0, 34, 50
1, 1550441, Note_off_c, 0, 46, 53
1, 1550443, Note_off_c, 0, 82, 61
1, 1550447, Note_on_c, 0, 86, 62
1, 1550475, Note_off_c, 0, 86, 65
1, 1550502, Note_off_c, 0, 34, 36
1, 1550547, Control_c, 0, 64, 101
1, 1550561, Control_c, 0, 64, 75
1, 1550571, Note_on_c, 0, 88, 71
1, 1550576, Control_c, 0, 64, 56
1, 1550588, Note_on_c, 0, 33, 56
1, 1550591, Control_c, 0, 64, 0
1, 1550602, Note_on_c, 0, 45, 49
1, 1550693, Note_off_c, 0, 88, 61
1, 1550724, Note_off_c, 0, 45, 63
1, 1550749, Note_on_c, 0, 89, 65
1, 1550766, Note_on_c, 0, 86, 40
1, 1550793, Note_off_c, 0, 86, 52
1, 1550800, Note_off_c, 0, 89, 58
1, 1550897, Note_off_c, 0, 33, 61
1, 1550921, Note_on_c, 0, 32, 60
1, 1550926, Note_on_c, 0, 86, 42
1, 1550930, Note_on_c, 0, 89, 58
1, 1550930, Note_on_c, 0, 44, 40
1, 1550933, Note_on_c, 0, 77, 55
1, 1550956, Note_off_c, 0, 77, 56
1, 1550961, Note_off_c, 0, 86, 63
1, 1550970, Note_off_c, 0, 89, 58
1, 1551082, Note_on_c, 0, 86, 44
1, 1551104, Note_on_c, 0, 77, 52
1, 1551107, Note_off_c, 0, 44, 62
1, 1551111, Note_off_c, 0, 86, 65
1, 1551136, Note_off_c, 0, 77, 66
1, 1551148, Note_off_c, 0, 32, 51
1, 1551243, Note_on_c, 0, 33, 55
1, 1551244, Note_on_c, 0, 45, 57
1, 1551310, Control_c, 0, 64, 32
1, 1551325, Control_c, 0, 64, 49
1, 1551336, Note_on_c, 0, 61, 58
1, 1551340, Control_c, 0, 64, 59
1, 1551355, Control_c, 0, 64, 63
1, 1551368, Note_off_c, 0, 61, 66
1, 1551384, Control_c, 0, 64, 63
1, 1551399, Control_c, 0, 64, 64
1, 1551413, Note_on_c, 0, 64, 71
1, 1551414, Control_c, 0, 64, 65
1, 1551429, Control_c, 0, 64, 66
1, 1551443, Control_c, 0, 64, 67
1, 1551458, Control_c, 0, 64, 68
1, 1551464, Note_off_c, 0, 64, 58
1, 1551473, Control_c, 0, 64, 69
1, 1551488, Control_c, 0, 64, 70
1, 1551489, Note_on_c, 0, 69, 79
1, 1551503, Control_c, 0, 64, 70
1, 1551532, Control_c, 0, 64, 70
1, 1551547, Note_off_c, 0, 69, 64
1, 1551547, Control_c, 0, 64, 65
1, 1551556, Note_off_c, 0, 33, 60
1, 1551562, Note_on_c, 0, 73, 76
1, 1551562, Control_c, 0, 64, 47
1, 1551573, Note_off_c, 0, 45, 57
1, 1551577, Control_c, 0, 64, 0
1, 1551599, Note_off_c, 0, 73, 60
1, 1551656, Note_on_c, 0, 76, 74
1, 1551714, Note_on_c, 0, 33, 36
1, 1551716, Note_on_c, 0, 45, 47
1, 1551731, Note_on_c, 0, 81, 78
1, 1551739, Note_off_c, 0, 76, 33
1, 1551773, Note_off_c, 0, 45, 57
1, 1551785, Note_off_c, 0, 81, 62
1, 1551822, Note_on_c, 0, 85, 66
1, 1551903, Note_off_c, 0, 85, 57
1, 1551906, Note_off_c, 0, 33, 41
1, 1551922, Note_on_c, 0, 86, 62
1, 1551931, Note_on_c, 0, 31, 44
1, 1551949, Note_on_c, 0, 43, 38
1, 1552036, Note_off_c, 0, 43, 61
1, 1552118, Note_on_c, 0, 87, 61
1, 1552125, Note_off_c, 0, 86, 53
1, 1552137, Note_on_c, 0, 75, 49
1, 1552143, Note_on_c, 0, 84, 41
1, 1552160, Note_off_c, 0, 75, 59
1, 1552170, Note_off_c, 0, 84, 58
1, 1552184, Note_off_c, 0, 87, 62
1, 1552267, Note_off_c, 0, 31, 44
1, 1552277, Note_on_c, 0, 84, 28
1, 1552287, Note_on_c, 0, 75, 42
1, 1552289, Note_on_c, 0, 30, 44
1, 1552296, Note_on_c, 0, 87, 51
1, 1552297, Note_on_c, 0, 42, 39
1, 1552346, Note_off_c, 0, 75, 56
1, 1552348, Note_off_c, 0, 87, 60
1, 1552348, Control_c, 0, 64, 44
1, 1552349, Note_off_c, 0, 84, 60
1, 1552363, Control_c, 0, 64, 57
1, 1552378, Control_c, 0, 64, 62
1, 1552392, Control_c, 0, 64, 64
1, 1552407, Control_c, 0, 64, 65
1, 1552422, Control_c, 0, 64, 66
1, 1552431, Note_off_c, 0, 42, 48
1, 1552437, Control_c, 0, 64, 67
1, 1552452, Control_c, 0, 64, 69
1, 1552458, Note_on_c, 0, 75, 53
1, 1552464, Note_on_c, 0, 87, 45
1, 1552466, Control_c, 0, 64, 70
1, 1552481, Control_c, 0, 64, 71
1, 1552488, Note_off_c, 0, 87, 53
1, 1552492, Note_off_c, 0, 30, 40
1, 1552496, Control_c, 0, 64, 73
1, 1552497, Note_off_c, 0, 75, 63
1, 1552511, Control_c, 0, 64, 74
1, 1552526, Control_c, 0, 64, 76
1, 1552540, Control_c, 0, 64, 77
1, 1552555, Control_c, 0, 64, 78
1, 1552584, Control_c, 0, 64, 72
1, 1552599, Control_c, 0, 64, 59
1, 1552614, Control_c, 0, 64, 0
1, 1552617, Note_on_c, 0, 31, 43
1, 1552617, Note_on_c, 0, 43, 44
1, 1552715, Note_on_c, 0, 59, 65
1, 1552758, Note_off_c, 0, 59, 61
1, 1552787, Note_on_c, 0, 62, 71
1, 1552822, Note_off_c, 0, 62, 60
1, 1552858, Note_on_c, 0, 67, 77
1, 1552887, Note_off_c, 0, 67, 65
1, 1552942, Note_off_c, 0, 43, 62
1, 1552942, Note_on_c, 0, 71, 83
1, 1552950, Note_off_c, 0, 31, 63
1, 1553009, Note_off_c, 0, 71, 58
1, 1553013, Note_on_c, 0, 74, 86
1, 1553031, Control_c, 0, 64, 33
1, 1553046, Control_c, 0, 64, 43
1, 1553061, Control_c, 0, 64, 55
1, 1553076, Control_c, 0, 64, 63
1, 1553097, Control_c, 0, 64, 66
1, 1553103, Note_off_c, 0, 74, 61
1, 1553106, Note_on_c, 0, 79, 66
1, 1553112, Control_c, 0, 64, 68
1, 1553127, Control_c, 0, 64, 70
1, 1553142, Control_c, 0, 64, 74
1, 1553157, Control_c, 0, 64, 77
1, 1553166, Note_on_c, 0, 83, 72
1, 1553171, Control_c, 0, 64, 80
1, 1553186, Note_off_c, 0, 79, 62
1, 1553186, Control_c, 0, 64, 82
1, 1553201, Control_c, 0, 64, 83
1, 1553216, Note_off_c, 0, 83, 61
1, 1553216, Control_c, 0, 64, 84
1, 1553231, Control_c, 0, 64, 84
1, 1553311, Note_on_c, 0, 86, 65
1, 1553320, Control_c, 0, 64, 83
1, 1553331, Note_on_c, 0, 31, 44
1, 1553334, Control_c, 0, 64, 78
1, 1553341, Note_on_c, 0, 78, 35
1, 1553349, Control_c, 0, 64, 69
1, 1553364, Control_c, 0, 64, 59
1, 1553379, Control_c, 0, 64, 45
1, 1553394, Control_c, 0, 64, 29
1, 1553398, Note_off_c, 0, 31, 57
1, 1553408, Control_c, 0, 64, 0
1, 1553408, Poly_aftertouch_c, 0, 74, 127
1, 1553440, Poly_aftertouch_c, 0, 74, 0
1, 1553492, Note_off_c, 0, 86, 61
1, 1553516, Note_on_c, 0, 32, 55
1, 1553535, Note_off_c, 0, 78, 57
1, 1553547, Note_off_c, 0, 32, 57
1, 1553687, Note_on_c, 0, 32, 44
1, 1553698, Note_on_c, 0, 84, 46
1, 1553706, Note_on_c, 0, 44, 35
1, 1553716, Note_on_c, 0, 72, 39
1, 1553716, Note_on_c, 0, 78, 4
1, 1553741, Note_off_c, 0, 44, 51
1, 1553744, Note_off_c, 0, 32, 53
1, 1553845, Control_c, 0, 64, 28
1, 1553875, Note_on_c, 0, 44, 25
1, 1553880, Note_on_c, 0, 32, 49
1, 1553902, Note_off_c, 0, 84, 64
1, 1553905, Control_c, 0, 64, 30
1, 1553918, Note_off_c, 0, 32, 52
1, 1553919, Control_c, 0, 64, 34
1, 1553924, Note_off_c, 0, 44, 49
1, 1553934, Control_c, 0, 64, 35
1, 1553939, Note_off_c, 0, 72, 62
1, 1553940, Note_off_c, 0, 78, 56
1, 1553963, Control_c, 0, 64, 36
1, 1553978, Control_c, 0, 64, 37
1, 1553993, Control_c, 0, 64, 40
1, 1554008, Control_c, 0, 64, 43
1, 1554023, Control_c, 0, 64, 44
1, 1554037, Control_c, 0, 64, 44
1, 1554052, Control_c, 0, 64, 42
1, 1554053, Note_on_c, 0, 31, 43
1, 1554060, Note_on_c, 0, 43, 37
1, 1554067, Control_c, 0, 64, 42
1, 1554111, Control_c, 0, 64, 41
1, 1554126, Control_c, 0, 64, 41
1, 1554159, Note_on_c, 0, 59, 53
1, 1554170, Control_c, 0, 64, 41
1, 1554190, Note_off_c, 0, 59, 61
1, 1554200, Control_c, 0, 64, 41
1, 1554225, Note_on_c, 0, 62, 65
1, 1554259, Note_off_c, 0, 62, 61
1, 1554259, Control_c, 0, 64, 40
1, 1554274, Control_c, 0, 64, 38
1, 1554289, Control_c, 0, 64, 37
1, 1554300, Note_on_c, 0, 67, 70
1, 1554304, Control_c, 0, 64, 36
1, 1554319, Control_c, 0, 64, 37
1, 1554328, Note_off_c, 0, 67, 65
1, 1554334, Control_c, 0, 64, 37
1, 1554364, Control_c, 0, 64, 38
1, 1554379, Control_c, 0, 64, 40
1, 1554394, Control_c, 0, 64, 44
1, 1554395, Note_on_c, 0, 71, 75
1, 1554408, Control_c, 0, 64, 51
1, 1554423, Control_c, 0, 64, 58
1, 1554438, Control_c, 0, 64, 60
1, 1554450, Note_off_c, 0, 43, 58
1, 1554451, Note_off_c, 0, 71, 49
1, 1554453, Control_c, 0, 64, 62
1, 1554467, Note_on_c, 0, 74, 82
1, 1554468, Control_c, 0, 64, 63
1, 1554470, Note_off_c, 0, 31, 53
1, 1554483, Control_c, 0, 64, 66
1, 1554498, Control_c, 0, 64, 70
1, 1554513, Control_c, 0, 64, 75
1, 1554527, Note_off_c, 0, 74, 56
1, 1554527, Control_c, 0, 64, 80
1, 1554542, Control_c, 0, 64, 82
1, 1554557, Control_c, 0, 64, 83
1, 1554559, Note_on_c, 0, 79, 62
1, 1554572, Control_c, 0, 64, 83
1, 1554620, Note_on_c, 0, 83, 67
1, 1554632, Note_off_c, 0, 79, 58
1, 1554653, Control_c, 0, 64, 84
1, 1554664, Note_off_c, 0, 83, 59
1, 1554757, Control_c, 0, 64, 83
1, 1554778, Note_on_c, 0, 31, 48
1, 1554780, Note_on_c, 0, 86, 54
1, 1554787, Control_c, 0, 64, 81
1, 1554802, Control_c, 0, 64, 75
1, 1554815, Note_on_c, 0, 78, 57
1, 1554817, Control_c, 0, 64, 67
1, 1554823, Note_off_c, 0, 31, 55
1, 1554832, Control_c, 0, 64, 59
1, 1554847, Control_c, 0, 64, 56
1, 1554861, Control_c, 0, 64, 53
1, 1554876, Control_c, 0, 64, 49
1, 1554876, Poly_aftertouch_c, 0, 43, 0
1, 1554891, Control_c, 0, 64, 46
1, 1554906, Control_c, 0, 64, 45
1, 1554958, Note_off_c, 0, 86, 58
1, 1554975, Note_off_c, 0, 78, 52
1, 1554989, Note_on_c, 0, 32, 49
1, 1555027, Note_off_c, 0, 32, 53
1, 1555068, Control_c, 0, 64, 45
1, 1555070, Poly_aftertouch_c, 0, 44, 0
1, 1555158, Control_c, 0, 64, 46
1, 1555186, Note_on_c, 0, 32, 38
1, 1555187, Note_on_c, 0, 84, 51
1, 1555190, Note_on_c, 0, 44, 25
1, 1555201, Note_on_c, 0, 72, 42
1, 1555212, Note_on_c, 0, 78, 29
1, 1555232, Note_off_c, 0, 44, 50
1, 1555238, Note_off_c, 0, 32, 46
1, 1555262, Control_c, 0, 64, 46
1, 1555286, Note_off_c, 0, 78, 46
1, 1555300, Note_off_c, 0, 72, 37
1, 1555344, Control_c, 0, 64, 47
1, 1555389, Note_on_c, 0, 32, 34
1, 1555394, Note_on_c, 0, 44, 19
1, 1555442, Note_off_c, 0, 32, 51
1, 1555444, Note_off_c, 0, 44, 45
1, 1555447, Control_c, 0, 64, 47
1, 1555521, Control_c, 0, 64, 48
1, 1555562, Note_off_c, 0, 84, 49
1, 1555595, Control_c, 0, 64, 48
1, 1555669, Note_on_c, 0, 83, 39
1, 1555683, Note_on_c, 0, 71, 8
1, 1555696, Note_on_c, 0, 31, 26
1, 1555699, Control_c, 0, 64, 49
1, 1555711, Poly_aftertouch_c, 0, 79, 127
1, 1555715, Note_on_c, 0, 43, 14
1, 1555759, Control_c, 0, 64, 50
1, 1555759, Note_off_c, 0, 31, 46
1, 1555762, Note_off_c, 0, 43, 49
1, 1555774, Control_c, 0, 64, 50
1, 1555782, Note_off_c, 0, 71, 40
1, 1555833, Control_c, 0, 64, 51
1, 1555848, Control_c, 0, 64, 52
1, 1555863, Control_c, 0, 64, 52
1, 1555892, Control_c, 0, 64, 53
1, 1555922, Control_c, 0, 64, 53
1, 1555982, Control_c, 0, 64, 53
1, 1556017, Note_off_c, 0, 83, 64
1, 1556039, Poly_aftertouch_c, 0, 79, 0
1, 1556056, Control_c, 0, 64, 52
1, 1556122, Control_c, 0, 64, 52
1, 1556137, Control_c, 0, 64, 51
1, 1556197, Control_c, 0, 64, 52
1, 1556271, Control_c, 0, 64, 52
1, 1556330, Control_c, 0, 64, 53
1, 1556345, Control_c, 0, 64, 53
1, 1556418, Control_c, 0, 64, 54
1, 1556507, Control_c, 0, 64, 54
1, 1556581, Control_c, 0, 64, 55
1, 1556655, Control_c, 0, 64, 55
1, 1556667, Note_on_c, 0, 67, 67
1, 1556685, Note_on_c, 0, 55, 44
1, 1556685, Control_c, 0, 64, 56
1, 1556699, Control_c, 0, 64, 57
1, 1556714, Control_c, 0, 64, 58
1, 1556729, Control_c, 0, 64, 61
1, 1556744, Control_c, 0, 64, 65
1, 1556760, Control_c, 0, 64, 71
1, 1556763, Note_off_c, 0, 55, 0
1, 1556763, Note_on_c, 0, 55, 3
1, 1556774, Control_c, 0, 64, 78
1, 1556789, Control_c, 0, 64, 85
1, 1556804, Control_c, 0, 64, 95
1, 1556819, Control_c, 0, 64, 127
1, 1557093, Control_c, 0, 67, 125
1, 1557108, Control_c, 0, 67, 117
1, 1557123, Control_c, 0, 67, 113
1, 1557152, Control_c, 0, 67, 109
1, 1557167, Control_c, 0, 67, 103
1, 1557181, Control_c, 0, 67, 93
1, 1557196, Control_c, 0, 67, 87
1, 1557211, Control_c, 0, 67, 83
1, 1557226, Control_c, 0, 67, 77
1, 1557241, Control_c, 0, 67, 67
1, 1557255, Control_c, 0, 67, 58
1, 1557270, Control_c, 0, 67, 52
1, 1557285, Control_c, 0, 67, 48
1, 1557300, Control_c, 0, 67, 44
1, 1557315, Control_c, 0, 67, 37
1, 1557330, Control_c, 0, 67, 0
1, 1557441, Note_off_c, 0, 55, 36
1, 1557528, Note_off_c, 0, 67, 54
1, 1557664, Control_c, 0, 67, 35
1, 1557679, Control_c, 0, 67, 37
1, 1557723, Control_c, 0, 67, 38
1, 1557738, Control_c, 0, 67, 42
1, 1557753, Control_c, 0, 67, 47
1, 1557768, Control_c, 0, 67, 55
1, 1557783, Control_c, 0, 67, 63
1, 1557798, Control_c, 0, 67, 67
1, 1557812, Control_c, 0, 67, 68
1, 1557827, Control_c, 0, 67, 73
1, 1557842, Control_c, 0, 67, 91
1, 1557857, Control_c, 0, 67, 112
1, 1557872, Control_c, 0, 67, 127
1, 1558227, Control_c, 0, 64, 117
1, 1558242, Control_c, 0, 64, 109
1, 1558257, Control_c, 0, 64, 104
1, 1558271, Control_c, 0, 64, 99
1, 1558286, Control_c, 0, 64, 94
1, 1558297, Note_on_c, 0, 74, 60
1, 1558301, Control_c, 0, 64, 86
1, 1558316, Control_c, 0, 64, 77
1, 1558337, Note_off_c, 0, 74, 65
1, 1558337, Control_c, 0, 64, 67
1, 1558353, Control_c, 0, 64, 59
1, 1558368, Control_c, 0, 64, 52
1, 1558383, Control_c, 0, 64, 48
1, 1558398, Control_c, 0, 64, 44
1, 1558413, Control_c, 0, 64, 37
1, 1558427, Control_c, 0, 64, 28
1, 1558442, Control_c, 0, 64, 0
1, 1558572, Note_on_c, 0, 72, 47
1, 1558581, Note_on_c, 0, 55, 30
1, 1558620, Note_off_c, 0, 55, 51
1, 1558771, Note_off_c, 0, 72, 41
1, 1558785, Note_on_c, 0, 71, 54
1, 1558816, Note_on_c, 0, 67, 19
1, 1558820, Note_off_c, 0, 71, 62
1, 1558857, Note_off_c, 0, 67, 44
1, 1558991, Note_on_c, 0, 71, 60
1, 1558999, Note_on_c, 0, 62, 39
1, 1559002, Note_on_c, 0, 65, 27
1, 1559021, Note_off_c, 0, 71, 64
1, 1559029, Note_off_c, 0, 62, 51
1, 1559038, Note_off_c, 0, 65, 51
1, 1559194, Note_on_c, 0, 67, 46
1, 1559199, Note_on_c, 0, 71, 53
1, 1559223, Note_off_c, 0, 67, 59
1, 1559237, Note_off_c, 0, 71, 61
1, 1559381, Note_on_c, 0, 71, 52
1, 1559384, Note_on_c, 0, 55, 39
1, 1559417, Note_off_c, 0, 55, 54
1, 1559427, Note_off_c, 0, 71, 58
1, 1559445, Note_on_c, 0, 72, 53
1, 1559492, Note_off_c, 0, 72, 58
1, 1559539, Note_on_c, 0, 79, 49
1, 1559561, Note_on_c, 0, 67, 41
1, 1559590, Note_off_c, 0, 67, 55
1, 1559746, Note_on_c, 0, 77, 55
1, 1559756, Note_off_c, 0, 79, 47
1, 1559757, Note_on_c, 0, 63, 36
1, 1559762, Note_on_c, 0, 60, 30
1, 1559796, Note_off_c, 0, 63, 48
1, 1559797, Note_off_c, 0, 60, 47
1, 1559835, Note_on_c, 0, 75, 67
1, 1559840, Note_off_c, 0, 77, 57
1, 1559878, Note_off_c, 0, 75, 56
1, 1559914, Note_on_c, 0, 74, 75
1, 1559929, Note_on_c, 0, 67, 46
1, 1559959, Note_off_c, 0, 74, 61
1, 1559971, Note_off_c, 0, 67, 55
1, 1560001, Note_on_c, 0, 72, 56
1, 1560030, Note_off_c, 0, 72, 65
1, 1560088, Note_on_c, 0, 55, 39
1, 1560096, Note_on_c, 0, 72, 63
1, 1560123, Note_off_c, 0, 55, 52
1, 1560254, Note_off_c, 0, 72, 60
1, 1560264, Note_on_c, 0, 67, 47
1, 1560272, Note_on_c, 0, 71, 55
1, 1560293, Note_off_c, 0, 67, 59
1, 1560300, Note_off_c, 0, 71, 64
1, 1560420, Note_on_c, 0, 65, 48
1, 1560421, Note_on_c, 0, 62, 47
1, 1560423, Note_on_c, 0, 71, 53
1, 1560445, Note_off_c, 0, 65, 57
1, 1560448, Note_off_c, 0, 62, 60
1, 1560454, Note_off_c, 0, 71, 64
1, 1560599, Note_on_c, 0, 71, 52
1, 1560611, Note_on_c, 0, 67, 41
1, 1560632, Note_off_c, 0, 71, 61
1, 1560643, Note_off_c, 0, 67, 55
1, 1560767, Note_on_c, 0, 55, 39
1, 1560769, Note_on_c, 0, 71, 50
1, 1560814, Note_off_c, 0, 55, 59
1, 1560837, Control_c, 0, 64, 27
1, 1560852, Control_c, 0, 64, 30
1, 1560882, Control_c, 0, 64, 33
1, 1560896, Control_c, 0, 64, 37
1, 1560911, Control_c, 0, 64, 44
1, 1560926, Control_c, 0, 64, 53
1, 1560928, Note_on_c, 0, 72, 62
1, 1560928, Note_on_c, 0, 67, 36
1, 1560941, Note_off_c, 0, 71, 61
1, 1560941, Control_c, 0, 64, 57
1, 1560954, Note_off_c, 0, 72, 67
1, 1560955, Control_c, 0, 64, 54
1, 1560960, Note_off_c, 0, 67, 55
1, 1560970, Control_c, 0, 64, 31
1, 1560985, Control_c, 0, 64, 0
1, 1561066, Note_on_c, 0, 54, 59
1, 1561076, Note_on_c, 0, 60, 43
1, 1561095, Note_on_c, 0, 63, 26
1, 1561099, Note_off_c, 0, 54, 65
1, 1561104, Note_off_c, 0, 60, 63
1, 1561130, Note_off_c, 0, 63, 31
1, 1561226, Note_on_c, 0, 75, 60
1, 1561239, Note_on_c, 0, 66, 54
1, 1561261, Note_off_c, 0, 66, 62
1, 1561268, Note_off_c, 0, 75, 57
1, 1561393, Control_c, 0, 64, 28
1, 1561402, Note_on_c, 0, 53, 47
1, 1561408, Control_c, 0, 64, 42
1, 1561409, Note_on_c, 0, 72, 54
1, 1561423, Control_c, 0, 64, 45
1, 1561437, Control_c, 0, 64, 44
1, 1561481, Control_c, 0, 64, 46
1, 1561496, Control_c, 0, 64, 45
1, 1561511, Control_c, 0, 64, 37
1, 1561526, Control_c, 0, 64, 0
1, 1561564, Note_on_c, 0, 70, 63
1, 1561566, Note_on_c, 0, 65, 60
1, 1561568, Note_off_c, 0, 72, 60
1, 1561585, Note_off_c, 0, 53, 32
1, 1561592, Note_off_c, 0, 70, 67
1, 1561594, Note_off_c, 0, 65, 65
1, 1561733, Note_on_c, 0, 62, 57
1, 1561734, Note_on_c, 0, 70, 54
1, 1561760, Note_off_c, 0, 62, 64
1, 1561760, Note_off_c, 0, 70, 65
1, 1561888, Note_on_c, 0, 70, 50
1, 1561894, Note_on_c, 0, 65, 48
1, 1561919, Note_off_c, 0, 70, 65
1, 1561927, Note_off_c, 0, 65, 62
1, 1562047, Note_on_c, 0, 55, 47
1, 1562059, Note_on_c, 0, 72, 50
1, 1562126, Note_off_c, 0, 55, 52
1, 1562212, Note_on_c, 0, 64, 51
1, 1562212, Note_off_c, 0, 72, 61
1, 1562214, Note_on_c, 0, 70, 61
1, 1562245, Note_off_c, 0, 70, 64
1, 1562251, Note_off_c, 0, 64, 62
1, 1562370, Note_on_c, 0, 70, 63
1, 1562378, Note_on_c, 0, 60, 46
1, 1562400, Note_off_c, 0, 70, 66
1, 1562413, Note_off_c, 0, 60, 56
1, 1562522, Note_on_c, 0, 70, 62
1, 1562535, Note_on_c, 0, 64, 51
1, 1562552, Note_off_c, 0, 70, 65
1, 1562568, Note_off_c, 0, 64, 65
1, 1562679, Note_on_c, 0, 53, 50
1, 1562687, Note_on_c, 0, 72, 54
1, 1562689, Note_on_c, 0, 62, 50
1, 1562707, Note_off_c, 0, 53, 63
1, 1562714, Note_off_c, 0, 62, 60
1, 1562717, Note_off_c, 0, 72, 64
1, 1562750, Note_on_c, 0, 70, 68
1, 1562778, Note_off_c, 0, 70, 66
1, 1562832, Note_on_c, 0, 69, 65
1, 1562851, Note_on_c, 0, 65, 53
1, 1562861, Note_off_c, 0, 69, 63
1, 1562880, Note_off_c, 0, 65, 63
1, 1562902, Note_on_c, 0, 70, 63
1, 1562942, Note_off_c, 0, 70, 60
1, 1562970, Note_on_c, 0, 72, 71
1, 1562981, Note_on_c, 0, 53, 39
1, 1562993, Note_off_c, 0, 72, 69
1, 1563009, Note_on_c, 0, 63, 5
1, 1563009, Note_off_c, 0, 63, 127
1, 1563011, Note_off_c, 0, 53, 48
1, 1563130, Note_on_c, 0, 65, 58
1, 1563132, Note_on_c, 0, 74, 59
1, 1563160, Note_off_c, 0, 74, 65
1, 1563164, Note_off_c, 0, 65, 61
1, 1563285, Note_on_c, 0, 58, 61
1, 1563286, Note_on_c, 0, 62, 50
1, 1563292, Note_on_c, 0, 70, 58
1, 1563309, Note_off_c, 0, 62, 60
1, 1563329, Note_off_c, 0, 58, 62
1, 1563448, Note_on_c, 0, 57, 47
1, 1563473, Note_off_c, 0, 57, 61
1, 1563496, Note_off_c, 0, 70, 65
1, 1563603, Note_on_c, 0, 55, 52
1, 1563628, Note_off_c, 0, 55, 58
1, 1563761, Note_on_c, 0, 53, 49
1, 1563772, Note_on_c, 0, 74, 58
1, 1563796, Note_off_c, 0, 53, 50
1, 1563802, Note_off_c, 0, 74, 66
1, 1563944, Note_on_c, 0, 51, 54
1, 1563952, Note_on_c, 0, 79, 65
1, 1563983, Note_off_c, 0, 51, 58
1, 1564122, Note_on_c, 0, 55, 54
1, 1564129, Note_on_c, 0, 58, 51
1, 1564155, Note_off_c, 0, 79, 58
1, 1564163, Note_off_c, 0, 58, 60
1, 1564172, Note_off_c, 0, 55, 52
1, 1564280, Note_on_c, 0, 48, 59
1, 1564286, Note_on_c, 0, 75, 69
1, 1564343, Note_off_c, 0, 48, 53
1, 1564457, Note_on_c, 0, 55, 50
1, 1564460, Note_on_c, 0, 60, 54
1, 1564482, Note_off_c, 0, 55, 59
1, 1564498, Note_off_c, 0, 60, 63
1, 1564578, Note_off_c, 0, 75, 56
1, 1564610, Note_on_c, 0, 53, 63
1, 1564613, Note_on_c, 0, 72, 71
1, 1564645, Note_off_c, 0, 53, 60
1, 1564769, Note_on_c, 0, 57, 68
1, 1564777, Note_on_c, 0, 60, 63
1, 1564800, Note_off_c, 0, 57, 63
1, 1564809, Note_off_c, 0, 60, 63
1, 1564847, Note_off_c, 0, 72, 62
1, 1564920, Note_on_c, 0, 51, 65
1, 1564923, Note_on_c, 0, 74, 77
1, 1564954, Note_off_c, 0, 51, 62
1, 1564960, Note_off_c, 0, 74, 62
1, 1565089, Note_on_c, 0, 75, 70
1, 1565096, Note_on_c, 0, 57, 53
1, 1565101, Note_on_c, 0, 60, 52
1, 1565119, Note_off_c, 0, 57, 59
1, 1565120, Note_off_c, 0, 75, 61
1, 1565134, Note_off_c, 0, 60, 64
1, 1565259, Note_on_c, 0, 50, 54
1, 1565260, Note_on_c, 0, 77, 72
1, 1565292, Note_off_c, 0, 50, 64
1, 1565306, Note_off_c, 0, 77, 59
1, 1565342, Note_on_c, 0, 79, 72
1, 1565407, Note_on_c, 0, 77, 82
1, 1565420, Note_on_c, 0, 58, 53
1, 1565441, Note_on_c, 0, 53, 15
1, 1565456, Note_off_c, 0, 79, 60
1, 1565457, Note_off_c, 0, 58, 58
1, 1565479, Note_on_c, 0, 75, 88
1, 1565487, Note_off_c, 0, 53, 40
1, 1565494, Note_off_c, 0, 77, 62
1, 1565548, Note_off_c, 0, 75, 59
1, 1565551, Note_on_c, 0, 46, 54
1, 1565560, Note_on_c, 0, 74, 89
1, 1565592, Note_off_c, 0, 46, 61
1, 1565605, Note_off_c, 0, 74, 65
1, 1565636, Note_on_c, 0, 75, 86
1, 1565703, Note_on_c, 0, 74, 89
1, 1565706, Note_on_c, 0, 53, 46
1, 1565715, Note_on_c, 0, 58, 47
1, 1565717, Note_off_c, 0, 75, 60
1, 1565732, Note_off_c, 0, 53, 58
1, 1565751, Note_off_c, 0, 58, 56
1, 1565763, Note_off_c, 0, 74, 63
1, 1565787, Note_on_c, 0, 72, 81
1, 1565862, Note_on_c, 0, 51, 55
1, 1565865, Note_off_c, 0, 72, 52
1, 1565882, Note_on_c, 0, 70, 73
1, 1565898, Note_off_c, 0, 51, 58
1, 1566029, Note_on_c, 0, 55, 54
1, 1566038, Note_on_c, 0, 58, 52
1, 1566076, Note_off_c, 0, 58, 60
1, 1566091, Note_off_c, 0, 55, 49
1, 1566199, Note_off_c, 0, 70, 39
1, 1566201, Note_on_c, 0, 50, 39
1, 1566243, Note_off_c, 0, 50, 53
1, 1566362, Note_on_c, 0, 70, 53
1, 1566368, Note_on_c, 0, 55, 33
1, 1566379, Note_on_c, 0, 58, 36
1, 1566407, Note_off_c, 0, 70, 59
1, 1566423, Note_off_c, 0, 55, 43
1, 1566445, Note_off_c, 0, 58, 59
1, 1566526, Note_on_c, 0, 48, 53
1, 1566543, Note_on_c, 0, 75, 55
1, 1566636, Note_off_c, 0, 48, 38
1, 1566692, Note_on_c, 0, 56, 52
1, 1566702, Note_on_c, 0, 60, 42
1, 1566734, Note_off_c, 0, 56, 58
1, 1566735, Note_off_c, 0, 60, 57
1, 1566845, Note_on_c, 0, 51, 53
1, 1566872, Note_on_c, 0, 72, 50
1, 1566877, Note_off_c, 0, 51, 63
1, 1566937, Note_off_c, 0, 75, 37
1, 1567009, Note_on_c, 0, 56, 45
1, 1567017, Note_on_c, 0, 60, 42
1, 1567037, Note_off_c, 0, 56, 58
1, 1567050, Note_off_c, 0, 60, 59
1, 1567162, Note_off_c, 0, 72, 56
1, 1567165, Note_on_c, 0, 48, 52
1, 1567179, Note_on_c, 0, 68, 55
1, 1567202, Note_off_c, 0, 48, 50
1, 1567334, Note_on_c, 0, 56, 37
1, 1567334, Note_on_c, 0, 60, 42
1, 1567372, Note_off_c, 0, 60, 60
1, 1567374, Note_off_c, 0, 56, 50
1, 1567442, Control_c, 0, 64, 32
1, 1567457, Control_c, 0, 64, 48
1, 1567471, Control_c, 0, 64, 57
1, 1567483, Note_on_c, 0, 51, 44
1, 1567486, Control_c, 0, 64, 59
1, 1567493, Note_on_c, 0, 70, 63
1, 1567501, Control_c, 0, 64, 60
1, 1567515, Control_c, 0, 64, 63
1, 1567521, Note_off_c, 0, 51, 52
1, 1567530, Control_c, 0, 64, 67
1, 1567545, Control_c, 0, 64, 70
1, 1567560, Control_c, 0, 64, 73
1, 1567575, Control_c, 0, 64, 76
1, 1567590, Control_c, 0, 64, 78
1, 1567596, Note_off_c, 0, 68, 51
1, 1567605, Control_c, 0, 64, 79
1, 1567620, Control_c, 0, 64, 80
1, 1567634, Control_c, 0, 64, 80
1, 1567651, Note_on_c, 0, 72, 65
1, 1567653, Note_on_c, 0, 60, 26
1, 1567665, Note_on_c, 0, 56, 5
1, 1567670, Note_off_c, 0, 70, 53
1, 1567691, Note_off_c, 0, 60, 55
1, 1567714, Note_off_c, 0, 56, 51
1, 1567808, Note_on_c, 0, 49, 48
1, 1567826, Note_on_c, 0, 75, 61
1, 1567828, Note_off_c, 0, 72, 55
1, 1567841, Control_c, 0, 64, 80
1, 1567856, Control_c, 0, 64, 76
1, 1567861, Note_off_c, 0, 49, 61
1, 1567871, Control_c, 0, 64, 69
1, 1567886, Control_c, 0, 64, 61
1, 1567901, Control_c, 0, 64, 55
1, 1567915, Control_c, 0, 64, 51
1, 1567931, Control_c, 0, 64, 48
1, 1567946, Control_c, 0, 64, 46
1, 1567961, Control_c, 0, 64, 45
1, 1567965, Note_on_c, 0, 55, 49
1, 1567972, Note_on_c, 0, 58, 56
1, 1568010, Note_off_c, 0, 58, 61
1, 1568020, Note_off_c, 0, 55, 52
1, 1568072, Control_c, 0, 64, 46
1, 1568087, Control_c, 0, 64, 46
1, 1568102, Control_c, 0, 64, 47
1, 1568117, Control_c, 0, 64, 48
1, 1568129, Note_on_c, 0, 73, 59
1, 1568133, Note_on_c, 0, 51, 54
1, 1568146, Control_c, 0, 64, 48
1, 1568161, Control_c, 0, 64, 49
1, 1568174, Note_off_c, 0, 51, 57
1, 1568176, Control_c, 0, 64, 49
1, 1568235, Control_c, 0, 64, 50
1, 1568244, Note_off_c, 0, 75, 50
1, 1568276, Note_off_c, 0, 73, 61
1, 1568279, Control_c, 0, 64, 49
1, 1568284, Note_on_c, 0, 72, 63
1, 1568296, Note_on_c, 0, 55, 42
1, 1568303, Note_on_c, 0, 58, 43
1, 1568353, Control_c, 0, 64, 48
1, 1568355, Note_off_c, 0, 58, 57
1, 1568368, Control_c, 0, 64, 47
1, 1568373, Note_off_c, 0, 55, 35
1, 1568399, Control_c, 0, 64, 48
1, 1568413, Control_c, 0, 64, 48
1, 1568443, Control_c, 0, 64, 49
1, 1568447, Note_on_c, 0, 49, 55
1, 1568457, Control_c, 0, 64, 53
1, 1568460, Note_on_c, 0, 70, 64
1, 1568472, Control_c, 0, 64, 59
1, 1568487, Control_c, 0, 64, 67
1, 1568496, Note_off_c, 0, 49, 54
1, 1568502, Control_c, 0, 64, 80
1, 1568505, Note_off_c, 0, 72, 54
1, 1568517, Control_c, 0, 64, 100
1, 1568532, Control_c, 0, 64, 127
1, 1568605, Note_on_c, 0, 58, 49
1, 1568609, Note_on_c, 0, 55, 36
1, 1568631, Note_off_c, 0, 70, 60
1, 1568645, Note_off_c, 0, 58, 55
1, 1568651, Control_c, 0, 67, 121
1, 1568665, Control_c, 0, 67, 106
1, 1568678, Note_off_c, 0, 55, 37
1, 1568680, Control_c, 0, 67, 95
1, 1568695, Control_c, 0, 67, 92
1, 1568725, Control_c, 0, 67, 93
1, 1568741, Control_c, 0, 67, 95
1, 1568756, Control_c, 0, 67, 98
1, 1568756, Note_on_c, 0, 72, 65
1, 1568762, Note_on_c, 0, 51, 57
1, 1568770, Control_c, 0, 67, 103
1, 1568785, Control_c, 0, 67, 110
1, 1568788, Note_off_c, 0, 72, 62
1, 1568800, Control_c, 0, 67, 116
1, 1568815, Note_off_c, 0, 51, 54
1, 1568822, Control_c, 0, 67, 122
1, 1568837, Control_c, 0, 64, 116
1, 1568837, Control_c, 0, 67, 126
1, 1568851, Control_c, 0, 64, 90
1, 1568866, Control_c, 0, 64, 76
1, 1568881, Control_c, 0, 64, 65
1, 1568896, Control_c, 0, 64, 56
1, 1568911, Control_c, 0, 64, 49
1, 1568925, Note_on_c, 0, 55, 50
1, 1568925, Control_c, 0, 64, 46
1, 1568928, Note_on_c, 0, 73, 57
1, 1568931, Note_on_c, 0, 58, 55
1, 1568940, Control_c, 0, 64, 45
1, 1568955, Control_c, 0, 64, 43
1, 1568970, Control_c, 0, 64, 38
1, 1568970, Note_off_c, 0, 73, 60
1, 1568982, Note_off_c, 0, 58, 52
1, 1568985, Control_c, 0, 64, 33
1, 1568990, Note_off_c, 0, 55, 41
1, 1569000, Control_c, 0, 64, 29
1, 1569030, Control_c, 0, 64, 0
1, 1569086, Note_on_c, 0, 75, 67
1, 1569092, Note_on_c, 0, 48, 59
1, 1569116, Note_off_c, 0, 75, 64
1, 1569131, Note_off_c, 0, 48, 62
1, 1569165, Note_on_c, 0, 77, 67
1, 1569218, Note_on_c, 0, 75, 76
1, 1569233, Note_on_c, 0, 56, 50
1, 1569253, Note_on_c, 0, 60, 25
1, 1569253, Note_off_c, 0, 77, 61
1, 1569263, Note_off_c, 0, 56, 57
1, 1569288, Note_on_c, 0, 73, 75
1, 1569292, Note_off_c, 0, 60, 51
1, 1569295, Note_off_c, 0, 75, 61
1, 1569336, Note_off_c, 0, 73, 62
1, 1569372, Note_on_c, 0, 51, 56
1, 1569373, Note_on_c, 0, 72, 59
1, 1569398, Note_off_c, 0, 72, 61
1, 1569408, Note_off_c, 0, 51, 61
1, 1569439, Note_on_c, 0, 73, 61
1, 1569468, Note_off_c, 0, 73, 68
1, 1569507, Note_on_c, 0, 72, 60
1, 1569566, Note_on_c, 0, 60, 19
1, 1569590, Note_off_c, 0, 72, 45
1, 1569598, Poly_aftertouch_c, 0, 56, 127
1, 1569601, Note_on_c, 0, 70, 57
1, 1569610, Note_off_c, 0, 60, 52
1, 1569620, Poly_aftertouch_c, 0, 56, 0
1, 1569675, Note_off_c, 0, 70, 56
1, 1569689, Note_on_c, 0, 48, 50
1, 1569689, Note_on_c, 0, 68, 61
1, 1569727, Note_off_c, 0, 48, 50
1, 1569815, Note_off_c, 0, 68, 62
1, 1569826, Note_on_c, 0, 56, 61
1, 1569852, Note_on_c, 0, 60, 37
1, 1569864, Note_off_c, 0, 56, 62
1, 1569882, Note_off_c, 0, 60, 50
1, 1569990, Note_on_c, 0, 70, 70
1, 1569993, Note_on_c, 0, 51, 58
1, 1570022, Note_off_c, 0, 70, 63
1, 1570023, Note_off_c, 0, 51, 63
1, 1570151, Note_on_c, 0, 72, 68
1, 1570157, Note_on_c, 0, 56, 53
1, 1570180, Note_off_c, 0, 56, 59
1, 1570189, Note_off_c, 0, 72, 59
1, 1570318, Note_on_c, 0, 75, 71
1, 1570321, Note_on_c, 0, 49, 48
1, 1570364, Control_c, 0, 64, 30
1, 1570379, Control_c, 0, 64, 36
1, 1570391, Note_off_c, 0, 49, 53
1, 1570394, Control_c, 0, 64, 40
1, 1570408, Control_c, 0, 64, 43
1, 1570423, Control_c, 0, 64, 48
1, 1570438, Control_c, 0, 64, 52
1, 1570453, Control_c, 0, 64, 48
1, 1570467, Control_c, 0, 64, 0
1, 1570470, Note_on_c, 0, 73, 71
1, 1570473, Note_on_c, 0, 55, 48
1, 1570476, Note_off_c, 0, 75, 62
1, 1570490, Note_on_c, 0, 58, 44
1, 1570499, Note_off_c, 0, 55, 58
1, 1570505, Note_off_c, 0, 73, 57
1, 1570518, Note_off_c, 0, 58, 52
1, 1570626, Note_on_c, 0, 51, 59
1, 1570634, Note_on_c, 0, 73, 67
1, 1570659, Control_c, 0, 67, 94
1, 1570666, Note_off_c, 0, 51, 62
1, 1570666, Note_off_c, 0, 73, 59
1, 1570674, Control_c, 0, 67, 61
1, 1570689, Control_c, 0, 67, 35
1, 1570704, Note_on_c, 0, 75, 72
1, 1570704, Control_c, 0, 67, 0
1, 1570766, Note_on_c, 0, 73, 69
1, 1570788, Note_on_c, 0, 55, 45
1, 1570790, Note_off_c, 0, 75, 61
1, 1570801, Note_on_c, 0, 58, 47
1, 1570820, Note_on_c, 0, 72, 75
1, 1570827, Note_off_c, 0, 73, 60
1, 1570828, Note_off_c, 0, 55, 48
1, 1570830, Note_off_c, 0, 58, 56
1, 1570874, Note_off_c, 0, 72, 62
1, 1570899, Note_on_c, 0, 70, 67
1, 1570908, Note_on_c, 0, 49, 62
1, 1570924, Note_off_c, 0, 70, 66
1, 1570939, Note_off_c, 0, 49, 64
1, 1571069, Note_on_c, 0, 75, 72
1, 1571079, Note_on_c, 0, 55, 44
1, 1571083, Note_on_c, 0, 58, 45
1, 1571093, Note_off_c, 0, 75, 70
1, 1571110, Note_off_c, 0, 55, 52
1, 1571111, Note_off_c, 0, 58, 53
1, 1571229, Note_on_c, 0, 51, 49
1, 1571233, Note_on_c, 0, 77, 67
1, 1571257, Note_off_c, 0, 77, 66
1, 1571261, Note_off_c, 0, 51, 61
1, 1571376, Note_on_c, 0, 55, 48
1, 1571377, Note_on_c, 0, 79, 69
1, 1571406, Note_off_c, 0, 79, 62
1, 1571416, Note_off_c, 0, 55, 46
1, 1571537, Note_on_c, 0, 48, 57
1, 1571540, Note_on_c, 0, 80, 78
1, 1571571, Control_c, 0, 64, 42
1, 1571586, Control_c, 0, 64, 60
1, 1571587, Note_on_c, 0, 68, 36
1, 1571601, Control_c, 0, 64, 63
1, 1571615, Control_c, 0, 64, 63
1, 1571630, Control_c, 0, 64, 65
1, 1571642, Note_off_c, 0, 48, 39
1, 1571645, Control_c, 0, 64, 67
1, 1571660, Control_c, 0, 64, 73
1, 1571675, Control_c, 0, 64, 78
1, 1571689, Control_c, 0, 64, 81
1, 1571697, Note_on_c, 0, 56, 56
1, 1571700, Note_on_c, 0, 60, 55
1, 1571704, Control_c, 0, 64, 83
1, 1571705, Note_off_c, 0, 68, 58
1, 1571719, Control_c, 0, 64, 84
1, 1571722, Note_off_c, 0, 56, 62
1, 1571724, Note_off_c, 0, 60, 63
1, 1571859, Note_on_c, 0, 51, 67
1, 1571889, Note_off_c, 0, 51, 63
1, 1572009, Control_c, 0, 67, 33
1, 1572020, Note_on_c, 0, 56, 63
1, 1572024, Control_c, 0, 67, 35
1, 1572030, Note_on_c, 0, 60, 58
1, 1572053, Control_c, 0, 67, 34
1, 1572060, Note_off_c, 0, 56, 58
1, 1572062, Note_off_c, 0, 60, 64
1, 1572083, Control_c, 0, 67, 37
1, 1572098, Control_c, 0, 67, 38
1, 1572112, Control_c, 0, 67, 37
1, 1572127, Control_c, 0, 67, 36
1, 1572143, Control_c, 0, 64, 83
1, 1572158, Control_c, 0, 64, 79
1, 1572158, Control_c, 0, 67, 38
1, 1572173, Control_c, 0, 64, 68
1, 1572173, Control_c, 0, 67, 41
1, 1572178, Note_on_c, 0, 84, 89
1, 1572184, Note_on_c, 0, 48, 71
1, 1572187, Control_c, 0, 64, 54
1, 1572187, Control_c, 0, 67, 43
1, 1572202, Control_c, 0, 64, 32
1, 1572205, Note_on_c, 0, 72, 53
1, 1572217, Control_c, 0, 64, 0
1, 1572217, Control_c, 0, 67, 42
1, 1572258, Note_off_c, 0, 48, 49
1, 1572261, Control_c, 0, 64, 47
1, 1572261, Control_c, 0, 67, 39
1, 1572276, Control_c, 0, 64, 68
1, 1572276, Control_c, 0, 67, 35
1, 1572291, Control_c, 0, 64, 89
1, 1572291, Control_c, 0, 67, 0
1, 1572306, Control_c, 0, 64, 127
1, 1572310, Note_off_c, 0, 72, 55
1, 1572328, Note_on_c, 0, 56, 63
1, 1572349, Note_on_c, 0, 60, 49
1, 1572365, Note_off_c, 0, 80, 61
1, 1572372, Note_off_c, 0, 84, 65
1, 1572378, Note_off_c, 0, 56, 52
1, 1572380, Note_off_c, 0, 60, 57
1, 1572494, Note_on_c, 0, 51, 59
1, 1572539, Note_off_c, 0, 51, 60
1, 1572666, Note_on_c, 0, 80, 76
1, 1572682, Note_on_c, 0, 60, 44
1, 1572696, Note_on_c, 0, 56, 26
1, 1572699, Note_on_c, 0, 68, 40
1, 1572711, Note_off_c, 0, 60, 54
1, 1572722, Note_off_c, 0, 80, 62
1, 1572731, Note_off_c, 0, 68, 51
1, 1572733, Note_off_c, 0, 56, 54
1, 1572830, Note_on_c, 0, 49, 53
1, 1572833, Control_c, 0, 67, 50
1, 1572837, Note_on_c, 0, 80, 71
1, 1572848, Control_c, 0, 64, 110
1, 1572848, Control_c, 0, 67, 76
1, 1572862, Control_c, 0, 64, 78
1, 1572862, Control_c, 0, 67, 98
1, 1572877, Control_c, 0, 64, 59
1, 1572877, Control_c, 0, 67, 106
1, 1572892, Control_c, 0, 64, 28
1, 1572892, Control_c, 0, 67, 113
1, 1572907, Control_c, 0, 64, 0
1, 1572907, Control_c, 0, 67, 125
1, 1572920, Note_off_c, 0, 49, 51
1, 1572922, Control_c, 0, 67, 127
1, 1572932, Poly_aftertouch_c, 0, 68, 127
1, 1572968, Poly_aftertouch_c, 0, 68, 0
1, 1572985, Note_on_c, 0, 58, 55
1, 1572991, Note_on_c, 0, 55, 48
1, 1573011, Note_off_c, 0, 58, 63
1, 1573044, Note_off_c, 0, 55, 45
1, 1573129, Note_on_c, 0, 52, 61
1, 1573130, Note_on_c, 0, 79, 64
1, 1573133, Note_off_c, 0, 80, 61
1, 1573160, Note_off_c, 0, 52, 61
1, 1573161, Note_on_c, 0, 67, 40
1, 1573295, Note_on_c, 0, 55, 48
1, 1573296, Note_on_c, 0, 58, 52
1, 1573335, Note_off_c, 0, 55, 51
1, 1573337, Note_off_c, 0, 58, 63
1, 1573438, Note_on_c, 0, 49, 67
1, 1573462, Control_c, 0, 64, 42
1, 1573477, Control_c, 0, 64, 59
1, 1573487, Note_off_c, 0, 49, 53
1, 1573492, Control_c, 0, 64, 67
1, 1573507, Control_c, 0, 64, 72
1, 1573522, Control_c, 0, 64, 74
1, 1573537, Control_c, 0, 64, 75
1, 1573552, Control_c, 0, 64, 77
1, 1573567, Control_c, 0, 64, 79
1, 1573582, Control_c, 0, 64, 82
1, 1573596, Note_on_c, 0, 55, 58
1, 1573597, Control_c, 0, 64, 85
1, 1573611, Control_c, 0, 64, 87
1, 1573614, Note_on_c, 0, 58, 50
1, 1573626, Control_c, 0, 64, 88
1, 1573628, Note_off_c, 0, 67, 36
1, 1573631, Note_off_c, 0, 79, 59
1, 1573641, Note_off_c, 0, 58, 54
1, 1573656, Control_c, 0, 64, 89
1, 1573665, Note_off_c, 0, 55, 44
1, 1573715, Control_c, 0, 64, 88
1, 1573730, Control_c, 0, 64, 83
1, 1573740, Note_on_c, 0, 79, 78
1, 1573745, Control_c, 0, 64, 70
1, 1573759, Control_c, 0, 64, 56
1, 1573760, Note_on_c, 0, 52, 57
1, 1573773, Note_on_c, 0, 67, 48
1, 1573774, Control_c, 0, 64, 35
1, 1573789, Control_c, 0, 64, 0
1, 1573803, Control_c, 0, 64, 34
1, 1573818, Control_c, 0, 64, 51
1, 1573833, Control_c, 0, 64, 65
1, 1573848, Control_c, 0, 64, 79
1, 1573863, Control_c, 0, 64, 105
1, 1573867, Note_off_c, 0, 52, 48
1, 1573877, Control_c, 0, 64, 127
1, 1573894, Note_on_c, 0, 55, 55
1, 1573904, Note_on_c, 0, 58, 63
1, 1573934, Note_off_c, 0, 55, 58
1, 1573939, Note_off_c, 0, 79, 56
1, 1573952, Note_off_c, 0, 58, 52
1, 1573958, Note_off_c, 0, 67, 35
1, 1574061, Note_on_c, 0, 79, 82
1, 1574066, Note_on_c, 0, 50, 67
1, 1574077, Control_c, 0, 64, 107
1, 1574086, Note_on_c, 0, 67, 50
1, 1574092, Control_c, 0, 64, 74
1, 1574107, Control_c, 0, 64, 53
1, 1574112, Note_off_c, 0, 67, 58
1, 1574122, Control_c, 0, 64, 0
1, 1574166, Control_c, 0, 64, 35
1, 1574181, Control_c, 0, 64, 56
1, 1574196, Control_c, 0, 64, 72
1, 1574211, Control_c, 0, 64, 89
1, 1574220, Note_on_c, 0, 58, 54
1, 1574226, Control_c, 0, 64, 127
1, 1574229, Note_on_c, 0, 77, 87
1, 1574232, Note_off_c, 0, 50, 37
1, 1574248, Note_on_c, 0, 65, 49
1, 1574252, Note_on_c, 0, 62, 12
1, 1574254, Note_off_c, 0, 58, 50
1, 1574272, Note_off_c, 0, 65, 58
1, 1574276, Note_off_c, 0, 79, 61
1, 1574302, Note_off_c, 0, 62, 48
1, 1574419, Control_c, 0, 64, 94
1, 1574425, Note_on_c, 0, 53, 52
1, 1574434, Control_c, 0, 64, 78
1, 1574449, Control_c, 0, 64, 65
1, 1574452, Note_off_c, 0, 77, 55
1, 1574455, Note_on_c, 0, 82, 73
1, 1574462, Note_on_c, 0, 70, 56
1, 1574464, Control_c, 0, 64, 53
1, 1574479, Control_c, 0, 64, 40
1, 1574480, Note_off_c, 0, 53, 58
1, 1574494, Control_c, 0, 64, 0
1, 1574608, Note_on_c, 0, 58, 50
1, 1574618, Note_on_c, 0, 62, 53
1, 1574650, Note_off_c, 0, 58, 59
1, 1574661, Note_off_c, 0, 62, 57
1, 1574754, Note_on_c, 0, 50, 66
1, 1574774, Control_c, 0, 64, 30
1, 1574789, Control_c, 0, 64, 53
1, 1574810, Note_off_c, 0, 50, 57
1, 1574812, Control_c, 0, 64, 69
1, 1574826, Control_c, 0, 64, 82
1, 1574841, Control_c, 0, 64, 110
1, 1574856, Control_c, 0, 64, 127
1, 1574902, Note_on_c, 0, 58, 69
1, 1574917, Note_on_c, 0, 62, 58
1, 1574917, Note_off_c, 0, 70, 59
1, 1574938, Note_off_c, 0, 82, 54
1, 1574968, Note_off_c, 0, 58, 59
1, 1574983, Note_off_c, 0, 62, 42
1, 1575063, Note_on_c, 0, 81, 87
1, 1575066, Note_on_c, 0, 53, 67
1, 1575075, Note_on_c, 0, 69, 75
1, 1575093, Control_c, 0, 64, 97
1, 1575108, Control_c, 0, 64, 74
1, 1575123, Control_c, 0, 64, 65
1, 1575138, Control_c, 0, 64, 67
1, 1575139, Note_off_c, 0, 53, 57
1, 1575153, Control_c, 0, 64, 78
1, 1575168, Control_c, 0, 64, 127
1, 1575198, Note_on_c, 0, 58, 67
1, 1575216, Note_on_c, 0, 62, 61
1, 1575255, Note_off_c, 0, 58, 54
1, 1575261, Note_off_c, 0, 62, 53
1, 1575262, Note_off_c, 0, 81, 58
1, 1575266, Note_off_c, 0, 69, 57
1, 1575331, Control_c, 0, 64, 89
1, 1575346, Control_c, 0, 64, 60
1, 1575353, Note_on_c, 0, 81, 93
1, 1575355, Note_on_c, 0, 51, 72
1, 1575361, Control_c, 0, 64, 34
1, 1575370, Note_on_c, 0, 69, 78
1, 1575376, Control_c, 0, 64, 28
1, 1575391, Control_c, 0, 64, 44
1, 1575405, Control_c, 0, 64, 64
1, 1575412, Note_off_c, 0, 69, 60
1, 1575420, Control_c, 0, 64, 88
1, 1575435, Control_c, 0, 64, 127
1, 1575494, Control_c, 0, 67, 116
1, 1575509, Control_c, 0, 67, 106
1, 1575518, Note_on_c, 0, 79, 85
1, 1575523, Control_c, 0, 67, 98
1, 1575526, Note_on_c, 0, 67, 74
1, 1575536, Note_on_c, 0, 63, 58
1, 1575538, Control_c, 0, 67, 89
1, 1575539, Note_off_c, 0, 51, 32
1, 1575556, Note_off_c, 0, 67, 70
1, 1575561, Control_c, 0, 67, 78
1, 1575564, Note_on_c, 0, 60, 63
1, 1575569, Note_off_c, 0, 81, 61
1, 1575576, Control_c, 0, 67, 72
1, 1575582, Note_off_c, 0, 63, 57
1, 1575591, Control_c, 0, 67, 71
1, 1575591, Note_off_c, 0, 79, 67
1, 1575620, Control_c, 0, 67, 74
1, 1575635, Control_c, 0, 67, 79
1, 1575649, Control_c, 0, 67, 80
1, 1575664, Control_c, 0, 67, 84
1, 1575667, Note_off_c, 0, 60, 59
1, 1575679, Control_c, 0, 67, 90
1, 1575694, Control_c, 0, 67, 96
1, 1575709, Control_c, 0, 67, 111
1, 1575723, Control_c, 0, 67, 127
1, 1575727, Note_on_c, 0, 87, 83
1, 1575733, Note_on_c, 0, 55, 63
1, 1575747, Note_on_c, 0, 75, 68
1, 1575768, Control_c, 0, 64, 84
1, 1575782, Control_c, 0, 64, 65
1, 1575797, Control_c, 0, 64, 49
1, 1575800, Note_off_c, 0, 55, 58
1, 1575812, Control_c, 0, 64, 35
1, 1575827, Control_c, 0, 64, 29
1, 1575871, Control_c, 0, 64, 31
1, 1575885, Note_on_c, 0, 60, 54
1, 1575886, Control_c, 0, 64, 34
1, 1575888, Note_on_c, 0, 63, 58
1, 1575901, Control_c, 0, 64, 37
1, 1575916, Control_c, 0, 64, 40
1, 1575928, Note_off_c, 0, 63, 59
1, 1575932, Control_c, 0, 64, 40
1, 1575934, Note_off_c, 0, 60, 57
1, 1575961, Control_c, 0, 64, 40
1, 1576006, Control_c, 0, 64, 40
1, 1576020, Note_off_c, 0, 75, 56
1, 1576020, Control_c, 0, 64, 41
1, 1576035, Control_c, 0, 64, 40
1, 1576049, Note_on_c, 0, 53, 53
1, 1576050, Control_c, 0, 64, 39
1, 1576051, Note_off_c, 0, 87, 66
1, 1576065, Control_c, 0, 64, 38
1, 1576071, Note_on_c, 0, 86, 71
1, 1576080, Control_c, 0, 64, 39
1, 1576092, Note_on_c, 0, 74, 52
1, 1576095, Control_c, 0, 64, 39
1, 1576106, Note_off_c, 0, 53, 49
1, 1576109, Control_c, 0, 64, 39
1, 1576124, Control_c, 0, 64, 37
1, 1576139, Control_c, 0, 64, 34
1, 1576154, Control_c, 0, 64, 33
1, 1576157, Note_off_c, 0, 74, 49
1, 1576169, Control_c, 0, 64, 28
1, 1576184, Control_c, 0, 64, 0
1, 1576214, Note_on_c, 0, 58, 57
1, 1576222, Note_on_c, 0, 62, 50
1, 1576250, Note_off_c, 0, 62, 61
1, 1576258, Note_off_c, 0, 58, 60
1, 1576370, Note_on_c, 0, 53, 57
1, 1576379, Note_on_c, 0, 84, 64
1, 1576396, Note_on_c, 0, 72, 46
1, 1576407, Note_off_c, 0, 53, 64
1, 1576412, Note_off_c, 0, 86, 64
1, 1576464, Note_off_c, 0, 72, 0
1, 1576464, Note_on_c, 0, 72, 21
1, 1576527, Note_on_c, 0, 63, 58
1, 1576532, Note_on_c, 0, 57, 48
1, 1576550, Note_off_c, 0, 63, 63
1, 1576559, Note_off_c, 0, 72, 53
1, 1576561, Note_off_c, 0, 57, 63
1, 1576683, Note_on_c, 0, 46, 59
1, 1576706, Note_off_c, 0, 84, 57
1, 1576708, Note_on_c, 0, 82, 56
1, 1576718, Note_off_c, 0, 46, 64
1, 1576728, Note_on_c, 0, 70, 46
1, 1576795, Note_off_c, 0, 82, 54
1, 1576799, Control_c, 0, 64, 28
1, 1576814, Control_c, 0, 64, 35
1, 1576828, Control_c, 0, 64, 38
1, 1576843, Control_c, 0, 64, 39
1, 1576844, Note_on_c, 0, 58, 51
1, 1576858, Control_c, 0, 64, 40
1, 1576873, Note_on_c, 0, 62, 25
1, 1576873, Control_c, 0, 64, 44
1, 1576888, Control_c, 0, 64, 50
1, 1576893, Note_off_c, 0, 58, 56
1, 1576902, Control_c, 0, 64, 55
1, 1576908, Note_off_c, 0, 70, 59
1, 1576912, Note_off_c, 0, 62, 52
1, 1576917, Control_c, 0, 64, 55
1, 1576947, Control_c, 0, 64, 55
1, 1576962, Control_c, 0, 64, 53
1, 1576977, Control_c, 0, 64, 48
1, 1576992, Note_on_c, 0, 50, 62
1, 1576992, Control_c, 0, 64, 38
1, 1577007, Control_c, 0, 64, 0
1, 1577031, Note_off_c, 0, 50, 64
1, 1577034, Note_on_c, 0, 74, 40
1, 1577069, Note_off_c, 0, 74, 52
1, 1577135, Note_on_c, 0, 74, 59
1, 1577153, Note_on_c, 0, 58, 52
1, 1577155, Note_off_c, 0, 74, 62
1, 1577170, Note_on_c, 0, 62, 43
1, 1577183, Note_off_c, 0, 58, 62
1, 1577202, Note_off_c, 0, 62, 55
1, 1577219, Note_on_c, 0, 74, 65
1, 1577236, Note_off_c, 0, 74, 65
1, 1577297, Note_on_c, 0, 53, 51
1, 1577298, Note_on_c, 0, 74, 78
1, 1577323, Note_off_c, 0, 74, 64
1, 1577330, Note_off_c, 0, 53, 63
1, 1577396, Note_on_c, 0, 74, 69
1, 1577421, Note_off_c, 0, 74, 68
1, 1577451, Note_on_c, 0, 58, 47
1, 1577464, Note_on_c, 0, 62, 41
1, 1577478, Note_off_c, 0, 58, 59
1, 1577493, Note_off_c, 0, 62, 55
1, 1577502, Note_on_c, 0, 74, 69
1, 1577531, Note_off_c, 0, 74, 66
1, 1577593, Note_on_c, 0, 74, 71
1, 1577595, Note_on_c, 0, 54, 62
1, 1577618, Note_off_c, 0, 74, 68
1, 1577624, Note_off_c, 0, 54, 64
1, 1577700, Note_on_c, 0, 72, 60
1, 1577728, Note_off_c, 0, 72, 64
1, 1577779, Note_on_c, 0, 74, 74
1, 1577799, Note_on_c, 0, 60, 43
1, 1577809, Note_on_c, 0, 62, 35
1, 1577815, Note_off_c, 0, 74, 62
1, 1577828, Note_off_c, 0, 60, 56
1, 1577841, Note_off_c, 0, 62, 50
1, 1577896, Note_on_c, 0, 75, 58
1, 1577928, Note_off_c, 0, 75, 64
1, 1578027, Note_on_c, 0, 74, 58
1, 1578035, Note_on_c, 0, 59, 40
1, 1578052, Note_on_c, 0, 55, 40
1, 1578053, Note_on_c, 0, 62, 39
1, 1578095, Note_off_c, 0, 74, 60
1, 1578101, Note_off_c, 0, 62, 63
1, 1578141, Note_off_c, 0, 59, 60
1, 1578147, Note_off_c, 0, 55, 55
1, 1578252, Control_c, 0, 67, 105
1, 1578267, Control_c, 0, 67, 91
1, 1578282, Control_c, 0, 67, 84
1, 1578297, Control_c, 0, 67, 78
1, 1578312, Control_c, 0, 67, 69
1, 1578327, Control_c, 0, 67, 57
1, 1578342, Control_c, 0, 67, 35
1, 1578357, Control_c, 0, 64, 28
1, 1578357, Control_c, 0, 67, 0
1, 1578372, Control_c, 0, 64, 31
1, 1578387, Control_c, 0, 64, 34
1, 1578402, Control_c, 0, 64, 35
1, 1578416, Control_c, 0, 64, 36
1, 1578431, Control_c, 0, 64, 38
1, 1578446, Control_c, 0, 64, 40
1, 1578461, Control_c, 0, 64, 43
1, 1578475, Control_c, 0, 64, 44
1, 1578490, Control_c, 0, 64, 45
1, 1578505, Control_c, 0, 64, 46
1, 1578520, Control_c, 0, 64, 47
1, 1578535, Control_c, 0, 64, 48
1, 1578557, Control_c, 0, 64, 48
1, 1578572, Control_c, 0, 64, 49
1, 1578616, Control_c, 0, 64, 49
1, 1578690, Control_c, 0, 64, 49
1, 1578705, Control_c, 0, 64, 48
1, 1578720, Control_c, 0, 64, 48
1, 1578735, Control_c, 0, 64, 47
1, 1578749, Control_c, 0, 64, 47
1, 1578752, Note_on_c, 0, 67, 89
1, 1578764, Control_c, 0, 64, 48
1, 1578765, Note_on_c, 0, 55, 74
1, 1578779, Control_c, 0, 64, 53
1, 1578793, Control_c, 0, 64, 60
1, 1578808, Control_c, 0, 64, 72
1, 1578823, Control_c, 0, 64, 89
1, 1578838, Control_c, 0, 64, 127
1, 1579165, Note_off_c, 0, 55, 39
1, 1579260, Note_off_c, 0, 67, 63
1, 1579793, Control_c, 0, 67, 57
1, 1579808, Control_c, 0, 67, 65
1, 1579837, Control_c, 0, 67, 68
1, 1579852, Control_c, 0, 67, 75
1, 1579867, Control_c, 0, 67, 99
1, 1579882, Control_c, 0, 67, 127
1, 1579972, Control_c, 0, 64, 113
1, 1579987, Control_c, 0, 64, 104
1, 1580001, Control_c, 0, 64, 98
1, 1580016, Control_c, 0, 64, 93
1, 1580031, Control_c, 0, 64, 90
1, 1580053, Control_c, 0, 64, 84
1, 1580068, Control_c, 0, 64, 78
1, 1580071, Note_on_c, 0, 86, 67
1, 1580083, Control_c, 0, 64, 72
1, 1580098, Control_c, 0, 64, 66
1, 1580099, Note_off_c, 0, 86, 62
1, 1580113, Control_c, 0, 64, 63
1, 1580127, Control_c, 0, 64, 59
1, 1580142, Control_c, 0, 64, 55
1, 1580157, Control_c, 0, 64, 50
1, 1580172, Control_c, 0, 64, 46
1, 1580187, Control_c, 0, 64, 41
1, 1580201, Control_c, 0, 64, 33
1, 1580216, Control_c, 0, 64, 0
1, 1580274, Note_on_c, 0, 84, 63
1, 1580288, Note_on_c, 0, 55, 51
1, 1580305, Control_c, 0, 64, 34
1, 1580319, Control_c, 0, 64, 51
1, 1580334, Control_c, 0, 64, 64
1, 1580349, Control_c, 0, 64, 72
1, 1580363, Control_c, 0, 64, 75
1, 1580375, Note_off_c, 0, 55, 34
1, 1580378, Control_c, 0, 64, 77
1, 1580393, Control_c, 0, 64, 79
1, 1580408, Control_c, 0, 64, 80
1, 1580423, Control_c, 0, 64, 82
1, 1580438, Control_c, 0, 64, 83
1, 1580459, Note_on_c, 0, 83, 84
1, 1580462, Note_off_c, 0, 84, 61
1, 1580468, Control_c, 0, 64, 75
1, 1580474, Note_on_c, 0, 67, 63
1, 1580482, Control_c, 0, 64, 56
1, 1580493, Note_off_c, 0, 83, 64
1, 1580494, Note_off_c, 0, 67, 64
1, 1580497, Control_c, 0, 64, 0
1, 1580636, Note_on_c, 0, 83, 76
1, 1580642, Note_on_c, 0, 62, 59
1, 1580643, Note_on_c, 0, 65, 56
1, 1580664, Note_off_c, 0, 65, 63
1, 1580671, Note_off_c, 0, 62, 65
1, 1580675, Note_off_c, 0, 83, 64
1, 1580819, Note_on_c, 0, 83, 78
1, 1580826, Note_on_c, 0, 67, 54
1, 1580852, Note_off_c, 0, 67, 65
1, 1580860, Note_off_c, 0, 83, 62
1, 1580965, Control_c, 0, 64, 33
1, 1580980, Control_c, 0, 64, 38
1, 1580993, Note_on_c, 0, 83, 57
1, 1580994, Control_c, 0, 64, 39
1, 1581001, Note_on_c, 0, 55, 57
1, 1581009, Control_c, 0, 64, 42
1, 1581024, Control_c, 0, 64, 48
1, 1581039, Note_off_c, 0, 55, 63
1, 1581039, Control_c, 0, 64, 54
1, 1581054, Control_c, 0, 64, 57
1, 1581058, Note_off_c, 0, 83, 42
1, 1581067, Note_on_c, 0, 84, 70
1, 1581083, Control_c, 0, 64, 56
1, 1581098, Control_c, 0, 64, 50
1, 1581113, Control_c, 0, 64, 38
1, 1581115, Note_off_c, 0, 84, 62
1, 1581127, Control_c, 0, 64, 0
1, 1581144, Note_on_c, 0, 91, 74
1, 1581160, Note_on_c, 0, 67, 59
1, 1581190, Note_off_c, 0, 67, 64
1, 1581353, Note_on_c, 0, 89, 69
1, 1581358, Note_on_c, 0, 63, 56
1, 1581371, Note_on_c, 0, 60, 38
1, 1581400, Note_off_c, 0, 60, 54
1, 1581405, Note_off_c, 0, 91, 38
1, 1581410, Note_off_c, 0, 63, 58
1, 1581433, Note_on_c, 0, 87, 68
1, 1581466, Note_off_c, 0, 89, 61
1, 1581494, Note_on_c, 0, 86, 79
1, 1581496, Note_off_c, 0, 87, 64
1, 1581516, Note_on_c, 0, 67, 59
1, 1581547, Note_off_c, 0, 86, 65
1, 1581559, Note_off_c, 0, 67, 60
1, 1581590, Note_on_c, 0, 84, 74
1, 1581609, Note_off_c, 0, 84, 71
1, 1581657, Note_on_c, 0, 55, 64
1, 1581665, Note_on_c, 0, 84, 82
1, 1581693, Note_off_c, 0, 55, 60
1, 1581829, Note_on_c, 0, 83, 81
1, 1581830, Note_on_c, 0, 67, 61
1, 1581837, Note_off_c, 0, 84, 64
1, 1581858, Note_off_c, 0, 67, 65
1, 1581862, Note_off_c, 0, 83, 59
1, 1581986, Note_on_c, 0, 83, 77
1, 1581994, Note_on_c, 0, 62, 53
1, 1581995, Note_on_c, 0, 65, 56
1, 1582014, Note_off_c, 0, 83, 62
1, 1582016, Note_off_c, 0, 65, 60
1, 1582023, Note_off_c, 0, 62, 63
1, 1582149, Note_on_c, 0, 83, 73
1, 1582165, Note_on_c, 0, 67, 57
1, 1582181, Note_off_c, 0, 83, 57
1, 1582199, Note_off_c, 0, 67, 62
1, 1582332, Note_on_c, 0, 83, 69
1, 1582345, Note_on_c, 0, 55, 52
1, 1582374, Control_c, 0, 64, 33
1, 1582388, Control_c, 0, 64, 45
1, 1582403, Control_c, 0, 64, 49
1, 1582412, Note_off_c, 0, 55, 51
1, 1582418, Control_c, 0, 64, 49
1, 1582447, Control_c, 0, 64, 51
1, 1582462, Control_c, 0, 64, 53
1, 1582477, Control_c, 0, 64, 57
1, 1582492, Control_c, 0, 64, 59
1, 1582498, Note_on_c, 0, 84, 73
1, 1582507, Control_c, 0, 64, 57
1, 1582509, Note_on_c, 0, 67, 72
1, 1582514, Note_off_c, 0, 83, 64
1, 1582521, Control_c, 0, 64, 43
1, 1582531, Note_off_c, 0, 84, 63
1, 1582536, Control_c, 0, 64, 0
1, 1582554, Note_off_c, 0, 67, 62
1, 1582654, Note_on_c, 0, 60, 62
1, 1582669, Note_on_c, 0, 54, 48
1, 1582679, Note_on_c, 0, 63, 46
1, 1582694, Note_off_c, 0, 54, 61
1, 1582695, Note_off_c, 0, 60, 62
1, 1582705, Note_off_c, 0, 63, 53
1, 1582815, Note_on_c, 0, 87, 65
1, 1582828, Note_on_c, 0, 66, 53
1, 1582849, Note_off_c, 0, 66, 60
1, 1582853, Note_off_c, 0, 87, 54
1, 1582951, Control_c, 0, 64, 29
1, 1582966, Control_c, 0, 64, 45
1, 1582980, Control_c, 0, 64, 54
1, 1582995, Note_on_c, 0, 84, 59
1, 1582995, Control_c, 0, 64, 56
1, 1583001, Note_on_c, 0, 53, 33
1, 1583047, Control_c, 0, 64, 57
1, 1583062, Control_c, 0, 64, 57
1, 1583077, Control_c, 0, 64, 56
1, 1583092, Control_c, 0, 64, 46
1, 1583107, Control_c, 0, 64, 0
1, 1583151, Note_on_c, 0, 82, 65
1, 1583160, Note_off_c, 0, 84, 63
1, 1583165, Note_on_c, 0, 65, 44
1, 1583178, Note_off_c, 0, 82, 66
1, 1583191, Note_off_c, 0, 65, 55
1, 1583196, Note_off_c, 0, 53, 36
1, 1583313, Note_on_c, 0, 62, 51
1, 1583320, Note_on_c, 0, 82, 58
1, 1583336, Note_off_c, 0, 62, 59
1, 1583347, Note_off_c, 0, 82, 64
1, 1583470, Note_on_c, 0, 82, 59
1, 1583481, Note_on_c, 0, 65, 57
1, 1583499, Note_off_c, 0, 82, 65
1, 1583511, Note_off_c, 0, 65, 64
1, 1583627, Note_on_c, 0, 55, 58
1, 1583628, Note_on_c, 0, 84, 69
1, 1583704, Note_off_c, 0, 55, 56
1, 1583730, Control_c, 0, 64, 28
1, 1583770, Note_off_c, 0, 84, 57
1, 1583774, Control_c, 0, 64, 0
1, 1583785, Note_on_c, 0, 82, 72
1, 1583801, Note_on_c, 0, 64, 62
1, 1583824, Note_off_c, 0, 82, 57
1, 1583828, Note_off_c, 0, 64, 66
1, 1583941, Note_on_c, 0, 82, 68
1, 1583950, Note_on_c, 0, 60, 47
1, 1583978, Note_off_c, 0, 60, 57
1, 1583986, Note_off_c, 0, 82, 60
1, 1584099, Note_on_c, 0, 82, 62
1, 1584114, Note_on_c, 0, 64, 56
1, 1584128, Note_off_c, 0, 82, 66
1, 1584145, Note_off_c, 0, 64, 66
1, 1584256, Note_on_c, 0, 79, 60
1, 1584268, Note_on_c, 0, 53, 56
1, 1584274, Note_on_c, 0, 62, 59
1, 1584304, Note_off_c, 0, 53, 62
1, 1584310, Note_off_c, 0, 62, 61
1, 1584323, Note_on_c, 0, 77, 73
1, 1584351, Note_off_c, 0, 79, 51
1, 1584374, Note_off_c, 0, 77, 62
1, 1584397, Note_on_c, 0, 76, 64
1, 1584428, Note_on_c, 0, 65, 56
1, 1584435, Note_off_c, 0, 76, 60
1, 1584457, Note_off_c, 0, 65, 63
1, 1584463, Note_on_c, 0, 77, 70
1, 1584492, Note_off_c, 0, 77, 65
1, 1584545, Note_on_c, 0, 75, 80
1, 1584560, Note_on_c, 0, 53, 61
1, 1584560, Note_on_c, 0, 57, 62
1, 1584569, Note_off_c, 0, 75, 66
1, 1584587, Note_off_c, 0, 53, 64
1, 1584590, Note_off_c, 0, 57, 66
1, 1584724, Note_on_c, 0, 72, 67
1, 1584724, Note_on_c, 0, 63, 64
1, 1584748, Note_off_c, 0, 72, 67
1, 1584752, Note_off_c, 0, 63, 66
1, 1584879, Note_on_c, 0, 58, 67
1, 1584885, Note_on_c, 0, 62, 61
1, 1584885, Note_on_c, 0, 70, 77
1, 1584900, Note_off_c, 0, 58, 65
1, 1584904, Note_off_c, 0, 62, 63
1, 1584911, Note_off_c, 0, 70, 63
1, 1584947, Control_c, 0, 67, 114
1, 1584961, Control_c, 0, 67, 79
1, 1584976, Control_c, 0, 67, 45
1, 1584991, Control_c, 0, 67, 0
1, 1585033, Note_on_c, 0, 74, 80
1, 1585044, Note_on_c, 0, 65, 66
1, 1585052, Note_off_c, 0, 74, 72
1, 1585070, Note_off_c, 0, 65, 65
1, 1585191, Note_on_c, 0, 77, 81
1, 1585209, Note_on_c, 0, 62, 65
1, 1585225, Note_off_c, 0, 77, 66
1, 1585229, Note_off_c, 0, 62, 64
1, 1585366, Note_on_c, 0, 58, 59
1, 1585370, Note_on_c, 0, 82, 68
1, 1585389, Note_off_c, 0, 58, 60
1, 1585395, Note_off_c, 0, 82, 67
1, 1585518, Note_on_c, 0, 86, 83
1, 1585526, Note_on_c, 0, 55, 61
1, 1585532, Control_c, 0, 64, 28
1, 1585547, Control_c, 0, 64, 36
1, 1585562, Control_c, 0, 64, 33
1, 1585577, Control_c, 0, 64, 38
1, 1585592, Control_c, 0, 64, 48
1, 1585607, Note_off_c, 0, 55, 57
1, 1585607, Control_c, 0, 64, 59
1, 1585621, Control_c, 0, 64, 64
1, 1585636, Control_c, 0, 64, 66
1, 1585651, Control_c, 0, 64, 67
1, 1585665, Control_c, 0, 64, 64
1, 1585674, Note_on_c, 0, 84, 80
1, 1585680, Control_c, 0, 64, 49
1, 1585684, Note_off_c, 0, 86, 64
1, 1585686, Note_on_c, 0, 64, 65
1, 1585695, Control_c, 0, 64, 0
1, 1585713, Note_off_c, 0, 64, 67
1, 1585723, Note_off_c, 0, 84, 62
1, 1585833, Note_on_c, 0, 58, 61
1, 1585835, Note_on_c, 0, 84, 73
1, 1585861, Note_off_c, 0, 58, 65
1, 1585868, Note_off_c, 0, 84, 61
1, 1585982, Note_on_c, 0, 84, 75
1, 1585991, Note_on_c, 0, 64, 65
1, 1586006, Note_off_c, 0, 84, 68
1, 1586018, Note_off_c, 0, 64, 66
1, 1586141, Note_on_c, 0, 53, 62
1, 1586152, Note_on_c, 0, 79, 71
1, 1586178, Note_off_c, 0, 53, 64
1, 1586230, Note_off_c, 0, 79, 63
1, 1586230, Note_on_c, 0, 77, 73
1, 1586293, Note_on_c, 0, 65, 63
1, 1586319, Note_on_c, 0, 76, 81
1, 1586322, Note_off_c, 0, 77, 64
1, 1586329, Note_off_c, 0, 65, 57
1, 1586418, Note_off_c, 0, 76, 55
1, 1586433, Note_on_c, 0, 57, 75
1, 1586458, Note_on_c, 0, 72, 80
1, 1586483, Note_off_c, 0, 57, 63
1, 1586485, Note_off_c, 0, 72, 63
1, 1586602, Note_on_c, 0, 69, 64
1, 1586618, Note_on_c, 0, 65, 67
1, 1586622, Note_off_c, 0, 69, 64
1, 1586644, Note_off_c, 0, 65, 66
1, 1586772, Note_on_c, 0, 86, 90
1, 1586784, Note_on_c, 0, 55, 66
1, 1586807, Control_c, 0, 64, 35
1, 1586821, Control_c, 0, 64, 54
1, 1586836, Control_c, 0, 64, 62
1, 1586851, Control_c, 0, 64, 61
1, 1586866, Control_c, 0, 64, 60
1, 1586867, Note_off_c, 0, 55, 56
1, 1586880, Control_c, 0, 64, 60
1, 1586939, Note_on_c, 0, 64, 77
1, 1586939, Control_c, 0, 64, 58
1, 1586945, Note_on_c, 0, 84, 79
1, 1586954, Control_c, 0, 64, 56
1, 1586956, Note_off_c, 0, 86, 62
1, 1586969, Control_c, 0, 64, 55
1, 1586974, Note_off_c, 0, 64, 64
1, 1586996, Note_off_c, 0, 84, 62
1, 1587014, Control_c, 0, 64, 54
1, 1587028, Control_c, 0, 64, 49
1, 1587043, Control_c, 0, 64, 42
1, 1587058, Control_c, 0, 64, 38
1, 1587073, Control_c, 0, 64, 40
1, 1587083, Note_on_c, 0, 58, 71
1, 1587088, Control_c, 0, 64, 44
1, 1587090, Note_on_c, 0, 84, 82
1, 1587103, Control_c, 0, 64, 44
1, 1587125, Note_off_c, 0, 58, 61
1, 1587135, Note_off_c, 0, 84, 64
1, 1587148, Control_c, 0, 64, 46
1, 1587163, Control_c, 0, 64, 48
1, 1587178, Control_c, 0, 64, 49
1, 1587192, Control_c, 0, 64, 48
1, 1587207, Control_c, 0, 64, 46
1, 1587222, Control_c, 0, 64, 46
1, 1587233, Note_on_c, 0, 84, 83
1, 1587237, Control_c, 0, 64, 45
1, 1587252, Control_c, 0, 64, 41
1, 1587258, Note_on_c, 0, 64, 57
1, 1587267, Control_c, 0, 64, 28
1, 1587268, Note_off_c, 0, 84, 66
1, 1587281, Note_off_c, 0, 64, 64
1, 1587282, Control_c, 0, 64, 0
1, 1587396, Note_on_c, 0, 65, 75
1, 1587398, Note_on_c, 0, 79, 85
1, 1587400, Note_on_c, 0, 53, 63
1, 1587400, Control_c, 0, 64, 43
1, 1587415, Control_c, 0, 64, 67
1, 1587418, Note_off_c, 0, 65, 70
1, 1587428, Note_off_c, 0, 53, 64
1, 1587429, Control_c, 0, 64, 90
1, 1587431, Note_on_c, 0, 57, 18
1, 1587444, Control_c, 0, 64, 127
1, 1587456, Note_off_c, 0, 79, 62
1, 1587479, Note_on_c, 0, 77, 88
1, 1587479, Note_off_c, 0, 57, 46
1, 1587534, Note_off_c, 0, 77, 64
1, 1587556, Note_on_c, 0, 76, 83
1, 1587597, Note_off_c, 0, 76, 65
1, 1587631, Note_on_c, 0, 77, 86
1, 1587649, Note_off_c, 0, 77, 70
1, 1587674, Control_c, 0, 64, 84
1, 1587689, Control_c, 0, 64, 49
1, 1587703, Control_c, 0, 64, 0
1, 1587721, Note_on_c, 0, 72, 77
1, 1587756, Note_off_c, 0, 72, 61
1, 1587807, Control_c, 0, 67, 38
1, 1587822, Control_c, 0, 67, 35
1, 1587851, Control_c, 0, 67, 38
1, 1587867, Control_c, 0, 67, 43
1, 1587880, Note_on_c, 0, 69, 80
1, 1587881, Control_c, 0, 67, 53
1, 1587896, Control_c, 0, 67, 73
1, 1587898, Note_off_c, 0, 69, 73
1, 1587913, Control_c, 0, 67, 78
1, 1587942, Control_c, 0, 67, 79
1, 1587957, Control_c, 0, 67, 82
1, 1587972, Control_c, 0, 67, 82
1, 1588001, Control_c, 0, 67, 83
1, 1588016, Control_c, 0, 67, 86
1, 1588031, Control_c, 0, 67, 102
1, 1588040, Note_on_c, 0, 65, 73
1, 1588046, Control_c, 0, 67, 127
1, 1588076, Note_off_c, 0, 65, 62
1, 1588197, Note_on_c, 0, 60, 76
1, 1588220, Note_off_c, 0, 60, 68
1, 1588351, Note_on_c, 0, 57, 60
1, 1588381, Note_off_c, 0, 57, 64
1, 1588496, Note_on_c, 0, 55, 73
1, 1588525, Note_off_c, 0, 55, 63
1, 1588658, Note_on_c, 0, 53, 60
1, 1588698, Note_off_c, 0, 53, 58
1, 1588818, Note_on_c, 0, 77, 67
1, 1588824, Control_c, 0, 64, 34
1, 1588839, Control_c, 0, 64, 47
1, 1588844, Note_on_c, 0, 69, 33
1, 1588845, Note_on_c, 0, 72, 37
1, 1588846, Note_on_c, 0, 51, 48
1, 1588854, Control_c, 0, 64, 60
1, 1588869, Control_c, 0, 64, 65
1, 1588883, Control_c, 0, 64, 69
1, 1588895, Note_off_c, 0, 72, 50
1, 1588898, Control_c, 0, 64, 72
1, 1588900, Note_off_c, 0, 51, 50
1, 1588908, Note_off_c, 0, 69, 42
1, 1588913, Control_c, 0, 64, 76
1, 1588924, Note_off_c, 0, 77, 63
1, 1588927, Control_c, 0, 64, 81
1, 1588942, Control_c, 0, 64, 86
1, 1588957, Control_c, 0, 64, 90
1, 1588972, Control_c, 0, 64, 95
1, 1588987, Control_c, 0, 64, 101
1, 1589002, Control_c, 0, 64, 107
1, 1589039, Control_c, 0, 64, 89
1, 1589041, Note_on_c, 0, 77, 73
1, 1589054, Control_c, 0, 64, 70
1, 1589061, Note_on_c, 0, 50, 47
1, 1589069, Control_c, 0, 64, 55
1, 1589075, Note_on_c, 0, 69, 26
1, 1589083, Control_c, 0, 64, 48
1, 1589098, Control_c, 0, 64, 51
1, 1589113, Control_c, 0, 64, 61
1, 1589127, Control_c, 0, 64, 69
1, 1589130, Note_off_c, 0, 50, 48
1, 1589132, Poly_aftertouch_c, 0, 74, 127
1, 1589142, Control_c, 0, 64, 82
1, 1589157, Control_c, 0, 64, 100
1, 1589160, Poly_aftertouch_c, 0, 74, 0
1, 1589160, Note_off_c, 0, 77, 57
1, 1589172, Control_c, 0, 64, 120
1, 1589187, Control_c, 0, 64, 127
1, 1589196, Note_off_c, 0, 69, 35
1, 1589304, Note_on_c, 0, 77, 62
1, 1589322, Note_on_c, 0, 69, 41
1, 1589331, Note_on_c, 0, 75, 53
1, 1589335, Note_on_c, 0, 48, 32
1, 1589350, Control_c, 0, 64, 87
1, 1589364, Control_c, 0, 64, 67
1, 1589371, Note_off_c, 0, 48, 55
1, 1589379, Control_c, 0, 64, 54
1, 1589394, Control_c, 0, 64, 52
1, 1589408, Control_c, 0, 64, 57
1, 1589423, Control_c, 0, 64, 65
1, 1589438, Control_c, 0, 64, 76
1, 1589453, Control_c, 0, 64, 98
1, 1589468, Control_c, 0, 64, 127
1, 1589470, Note_off_c, 0, 77, 64
1, 1589503, Note_off_c, 0, 69, 60
1, 1589507, Note_off_c, 0, 75, 62
1, 1589715, Note_on_c, 0, 77, 66
1, 1589831, Control_c, 0, 64, 90
1, 1589846, Control_c, 0, 64, 72
1, 1589861, Control_c, 0, 64, 59
1, 1589866, Note_on_c, 0, 74, 53
1, 1589876, Control_c, 0, 64, 50
1, 1589891, Control_c, 0, 64, 47
1, 1589905, Control_c, 0, 64, 48
1, 1589920, Control_c, 0, 64, 52
1, 1589935, Control_c, 0, 64, 59
1, 1589950, Control_c, 0, 64, 65
1, 1589956, Note_off_c, 0, 74, 51
1, 1589965, Control_c, 0, 64, 71
1, 1589980, Control_c, 0, 64, 81
1, 1589983, Note_on_c, 0, 70, 49
1, 1589989, Note_on_c, 0, 34, 44
1, 1589994, Control_c, 0, 64, 91
1, 1590009, Control_c, 0, 64, 98
1, 1590024, Control_c, 0, 64, 103
1, 1590039, Control_c, 0, 64, 112
1, 1590054, Control_c, 0, 64, 127
1, 1590063, Note_off_c, 0, 70, 57
1, 1590079, Note_on_c, 0, 74, 60
1, 1590111, Note_off_c, 0, 34, 35
1, 1590113, Control_c, 0, 64, 113
1, 1590128, Control_c, 0, 64, 81
1, 1590143, Control_c, 0, 64, 67
1, 1590145, Note_off_c, 0, 74, 61
1, 1590152, Note_on_c, 0, 82, 76
1, 1590157, Control_c, 0, 64, 61
1, 1590158, Note_off_c, 0, 77, 64
1, 1590172, Control_c, 0, 64, 63
1, 1590187, Control_c, 0, 64, 68
1, 1590202, Control_c, 0, 64, 80
1, 1590217, Control_c, 0, 64, 103
1, 1590231, Control_c, 0, 64, 127
1, 1590275, Note_on_c, 0, 74, 53
1, 1590309, Note_off_c, 0, 74, 62
1, 1590346, Note_on_c, 0, 46, 41
1, 1590349, Note_on_c, 0, 70, 46
1, 1590382, Note_off_c, 0, 46, 61
1, 1590385, Note_off_c, 0, 70, 52
1, 1590409, Note_off_c, 0, 82, 58
1, 1590442, Note_on_c, 0, 74, 13
1, 1590484, Control_c, 0, 64, 115
1, 1590486, Note_off_c, 0, 74, 53
1, 1590489, Note_on_c, 0, 81, 77
1, 1590499, Control_c, 0, 64, 80
1, 1590504, Note_on_c, 0, 77, 68
1, 1590514, Control_c, 0, 64, 65
1, 1590536, Control_c, 0, 64, 58
1, 1590551, Control_c, 0, 64, 59
1, 1590566, Control_c, 0, 64, 63
1, 1590580, Control_c, 0, 64, 72
1, 1590595, Control_c, 0, 64, 91
1, 1590610, Control_c, 0, 64, 127
1, 1590623, Note_on_c, 0, 74, 43
1, 1590650, Note_off_c, 0, 74, 54
1, 1590730, Note_off_c, 0, 81, 57
1, 1590734, Note_on_c, 0, 69, 18
1, 1590741, Note_on_c, 0, 74, 58
1, 1590767, Note_off_c, 0, 77, 63
1, 1590773, Note_off_c, 0, 74, 66
1, 1590779, Note_off_c, 0, 69, 61
1, 1590802, Control_c, 0, 64, 85
1, 1590817, Control_c, 0, 64, 68
1, 1590832, Control_c, 0, 64, 63
1, 1590833, Note_on_c, 0, 79, 72
1, 1590847, Control_c, 0, 64, 67
1, 1590848, Note_on_c, 0, 75, 67
1, 1590862, Control_c, 0, 64, 80
1, 1590877, Control_c, 0, 64, 127
1, 1590929, Note_on_c, 0, 70, 60
1, 1590969, Note_off_c, 0, 70, 58
1, 1591005, Note_on_c, 0, 67, 59
1, 1591047, Note_off_c, 0, 79, 59
1, 1591058, Note_off_c, 0, 67, 45
1, 1591059, Note_on_c, 0, 70, 68
1, 1591077, Note_off_c, 0, 75, 62
1, 1591082, Poly_aftertouch_c, 0, 51, 127
1, 1591087, Note_off_c, 0, 70, 67
1, 1591129, Control_c, 0, 64, 91
1, 1591141, Note_on_c, 0, 79, 78
1, 1591144, Control_c, 0, 64, 64
1, 1591151, Note_on_c, 0, 74, 64
1, 1591153, Poly_aftertouch_c, 0, 51, 0
1, 1591159, Control_c, 0, 64, 51
1, 1591174, Control_c, 0, 64, 51
1, 1591189, Control_c, 0, 64, 59
1, 1591203, Control_c, 0, 64, 69
1, 1591218, Control_c, 0, 64, 90
1, 1591232, Note_on_c, 0, 70, 66
1, 1591233, Control_c, 0, 64, 127
1, 1591319, Note_on_c, 0, 55, 43
1, 1591319, Note_off_c, 0, 70, 63
1, 1591335, Note_on_c, 0, 67, 54
1, 1591351, Note_off_c, 0, 55, 55
1, 1591366, Note_off_c, 0, 79, 59
1, 1591381, Note_off_c, 0, 74, 62
1, 1591406, Note_on_c, 0, 70, 48
1, 1591406, Note_off_c, 0, 67, 58
1, 1591431, Note_off_c, 0, 70, 60
1, 1591463, Control_c, 0, 64, 96
1, 1591470, Note_on_c, 0, 77, 69
1, 1591477, Control_c, 0, 64, 72
1, 1591478, Note_on_c, 0, 74, 71
1, 1591492, Control_c, 0, 64, 60
1, 1591507, Control_c, 0, 64, 58
1, 1591521, Control_c, 0, 64, 62
1, 1591536, Control_c, 0, 64, 70
1, 1591546, Note_on_c, 0, 70, 61
1, 1591551, Control_c, 0, 64, 87
1, 1591566, Control_c, 0, 64, 127
1, 1591608, Note_off_c, 0, 70, 62
1, 1591654, Note_on_c, 0, 58, 41
1, 1591664, Note_on_c, 0, 65, 27
1, 1591691, Note_off_c, 0, 58, 59
1, 1591696, Note_on_c, 0, 70, 56
1, 1591696, Note_off_c, 0, 77, 61
1, 1591711, Note_off_c, 0, 74, 61
1, 1591717, Note_off_c, 0, 65, 45
1, 1591729, Note_off_c, 0, 70, 66
1, 1591758, Control_c, 0, 64, 99
1, 1591770, Note_on_c, 0, 77, 84
1, 1591773, Control_c, 0, 64, 70
1, 1591774, Note_on_c, 0, 74, 75
1, 1591788, Control_c, 0, 64, 60
1, 1591802, Control_c, 0, 64, 61
1, 1591817, Control_c, 0, 64, 68
1, 1591832, Control_c, 0, 64, 87
1, 1591846, Control_c, 0, 64, 127
1, 1591858, Note_on_c, 0, 69, 70
1, 1591876, Control_c, 0, 67, 110
1, 1591892, Control_c, 0, 67, 91
1, 1591907, Control_c, 0, 67, 71
1, 1591911, Note_off_c, 0, 69, 56
1, 1591922, Control_c, 0, 67, 56
1, 1591929, Note_on_c, 0, 62, 57
1, 1591937, Note_on_c, 0, 65, 64
1, 1591937, Control_c, 0, 67, 49
1, 1591941, Note_off_c, 0, 77, 62
1, 1591951, Control_c, 0, 67, 48
1, 1591956, Note_off_c, 0, 62, 65
1, 1591966, Control_c, 0, 67, 44
1, 1591969, Note_off_c, 0, 65, 53
1, 1591973, Note_off_c, 0, 74, 60
1, 1591981, Control_c, 0, 67, 34
1, 1591996, Control_c, 0, 67, 0
1, 1592008, Note_on_c, 0, 69, 59
1, 1592036, Note_off_c, 0, 69, 59
1, 1592063, Control_c, 0, 67, 34
1, 1592078, Control_c, 0, 64, 90
1, 1592078, Control_c, 0, 67, 37
1, 1592083, Note_on_c, 0, 72, 71
1, 1592083, Note_on_c, 0, 75, 80
1, 1592093, Control_c, 0, 64, 66
1, 1592093, Control_c, 0, 67, 40
1, 1592107, Control_c, 0, 64, 53
1, 1592107, Control_c, 0, 67, 42
1, 1592122, Control_c, 0, 64, 54
1, 1592122, Control_c, 0, 67, 43
1, 1592137, Control_c, 0, 64, 61
1, 1592137, Control_c, 0, 67, 43
1, 1592151, Control_c, 0, 64, 74
1, 1592166, Control_c, 0, 64, 127
1, 1592179, Note_on_c, 0, 69, 59
1, 1592181, Control_c, 0, 67, 45
1, 1592196, Control_c, 0, 67, 45
1, 1592225, Note_on_c, 0, 41, 58
1, 1592225, Control_c, 0, 67, 45
1, 1592240, Control_c, 0, 67, 43
1, 1592255, Control_c, 0, 67, 43
1, 1592261, Note_on_c, 0, 63, 58
1, 1592270, Control_c, 0, 67, 41
1, 1592272, Note_off_c, 0, 41, 64
1, 1592281, Note_off_c, 0, 69, 0
1, 1592284, Control_c, 0, 67, 38
1, 1592299, Note_on_c, 0, 69, 45
1, 1592299, Control_c, 0, 67, 36
1, 1592312, Note_off_c, 0, 75, 61
1, 1592322, Note_off_c, 0, 72, 62
1, 1592329, Control_c, 0, 67, 37
1, 1592343, Control_c, 0, 67, 43
1, 1592347, Note_off_c, 0, 63, 61
1, 1592352, Note_off_c, 0, 69, 63
1, 1592358, Control_c, 0, 67, 48
1, 1592373, Control_c, 0, 64, 93
1, 1592388, Control_c, 0, 64, 62
1, 1592389, Note_on_c, 0, 75, 87
1, 1592403, Control_c, 0, 64, 44
1, 1592403, Control_c, 0, 67, 49
1, 1592411, Note_on_c, 0, 70, 67
1, 1592418, Control_c, 0, 64, 47
1, 1592418, Control_c, 0, 67, 53
1, 1592433, Control_c, 0, 64, 58
1, 1592433, Control_c, 0, 67, 63
1, 1592448, Control_c, 0, 64, 70
1, 1592448, Control_c, 0, 67, 84
1, 1592463, Control_c, 0, 64, 97
1, 1592463, Control_c, 0, 67, 98
1, 1592477, Control_c, 0, 64, 127
1, 1592505, Note_on_c, 0, 67, 59
1, 1592507, Control_c, 0, 67, 101
1, 1592522, Control_c, 0, 67, 105
1, 1592537, Control_c, 0, 67, 114
1, 1592551, Control_c, 0, 67, 116
1, 1592561, Note_on_c, 0, 43, 59
1, 1592565, Note_off_c, 0, 67, 61
1, 1592566, Control_c, 0, 67, 114
1, 1592579, Note_on_c, 0, 63, 55
1, 1592592, Note_off_c, 0, 43, 64
1, 1592625, Control_c, 0, 67, 117
1, 1592627, Note_off_c, 0, 63, 58
1, 1592630, Note_off_c, 0, 70, 63
1, 1592631, Note_off_c, 0, 75, 60
1, 1592640, Control_c, 0, 67, 119
1, 1592655, Control_c, 0, 67, 123
1, 1592669, Control_c, 0, 67, 127
1, 1592683, Poly_aftertouch_c, 0, 67, 127
1, 1592684, Control_c, 0, 64, 79
1, 1592699, Note_on_c, 0, 74, 82
1, 1592701, Control_c, 0, 64, 58
1, 1592703, Note_on_c, 0, 70, 72
1, 1592715, Control_c, 0, 64, 45
1, 1592716, Poly_aftertouch_c, 0, 67, 0
1, 1592730, Control_c, 0, 64, 49
1, 1592745, Control_c, 0, 64, 60
1, 1592760, Control_c, 0, 64, 73
1, 1592782, Control_c, 0, 64, 108
1, 1592797, Control_c, 0, 64, 127
1, 1592809, Note_on_c, 0, 67, 51
1, 1592862, Note_off_c, 0, 67, 41
1, 1592878, Note_on_c, 0, 46, 56
1, 1592880, Note_on_c, 0, 62, 48
1, 1592923, Note_off_c, 0, 46, 56
1, 1592935, Note_off_c, 0, 74, 61
1, 1592937, Note_on_c, 0, 67, 52
1, 1592940, Note_off_c, 0, 70, 52
1, 1592954, Note_off_c, 0, 62, 38
1, 1592964, Note_off_c, 0, 67, 58
1, 1592989, Control_c, 0, 64, 89
1, 1593004, Control_c, 0, 64, 62
1, 1593019, Control_c, 0, 64, 40
1, 1593021, Note_on_c, 0, 74, 78
1, 1593032, Note_on_c, 0, 69, 64
1, 1593034, Control_c, 0, 64, 38
1, 1593048, Control_c, 0, 64, 50
1, 1593063, Control_c, 0, 64, 65
1, 1593078, Control_c, 0, 64, 84
1, 1593093, Control_c, 0, 64, 127
1, 1593120, Note_off_c, 0, 69, 60
1, 1593127, Note_on_c, 0, 66, 60
1, 1593160, Note_off_c, 0, 66, 65
1, 1593187, Note_on_c, 0, 62, 57
1, 1593199, Note_on_c, 0, 50, 53
1, 1593225, Note_off_c, 0, 50, 63
1, 1593231, Note_off_c, 0, 62, 45
1, 1593244, Note_on_c, 0, 66, 69
1, 1593290, Note_off_c, 0, 66, 61
1, 1593335, Note_on_c, 0, 72, 78
1, 1593366, Note_off_c, 0, 74, 60
1, 1593374, Control_c, 0, 64, 99
1, 1593389, Control_c, 0, 64, 79
1, 1593404, Control_c, 0, 64, 66
1, 1593413, Note_on_c, 0, 69, 65
1, 1593419, Control_c, 0, 64, 62
1, 1593434, Control_c, 0, 64, 62
1, 1593448, Control_c, 0, 64, 61
1, 1593463, Control_c, 0, 64, 59
1, 1593475, Note_off_c, 0, 69, 58
1, 1593478, Control_c, 0, 64, 58
1, 1593483, Note_on_c, 0, 54, 72
1, 1593484, Note_on_c, 0, 62, 65
1, 1593507, Note_off_c, 0, 54, 70
1, 1593509, Control_c, 0, 64, 58
1, 1593530, Control_c, 0, 64, 58
1, 1593545, Control_c, 0, 64, 56
1, 1593554, Note_off_c, 0, 72, 60
1, 1593560, Control_c, 0, 64, 52
1, 1593561, Note_on_c, 0, 69, 59
1, 1593575, Note_off_c, 0, 62, 55
1, 1593575, Control_c, 0, 64, 48
1, 1593590, Control_c, 0, 64, 44
1, 1593604, Control_c, 0, 64, 31
1, 1593613, Note_off_c, 0, 69, 59
1, 1593619, Control_c, 0, 64, 0
1, 1593622, Note_on_c, 0, 72, 78
1, 1593700, Note_on_c, 0, 67, 73
1, 1593747, Note_off_c, 0, 67, 60
1, 1593771, Note_on_c, 0, 62, 61
1, 1593785, Note_on_c, 0, 55, 61
1, 1593820, Note_off_c, 0, 55, 64
1, 1593828, Note_off_c, 0, 62, 55
1, 1593853, Note_on_c, 0, 67, 59
1, 1593887, Note_off_c, 0, 67, 62
1, 1593916, Note_on_c, 0, 70, 75
1, 1593931, Note_on_c, 0, 57, 68
1, 1593948, Note_off_c, 0, 72, 61
1, 1593963, Note_off_c, 0, 57, 63
1, 1594007, Note_on_c, 0, 67, 59
1, 1594070, Note_off_c, 0, 67, 60
1, 1594079, Note_on_c, 0, 58, 55
1, 1594085, Note_on_c, 0, 62, 66
1, 1594105, Note_off_c, 0, 58, 63
1, 1594135, Note_off_c, 0, 70, 61
1, 1594156, Note_on_c, 0, 67, 60
1, 1594169, Note_off_c, 0, 62, 52
1, 1594188, Note_off_c, 0, 67, 63
1, 1594202, Note_on_c, 0, 60, 75
1, 1594214, Note_on_c, 0, 69, 80
1, 1594224, Note_off_c, 0, 60, 68
1, 1594300, Note_on_c, 0, 65, 66
1, 1594338, Note_off_c, 0, 65, 60
1, 1594367, Note_on_c, 0, 60, 53
1, 1594441, Note_off_c, 0, 60, 59
1, 1594445, Note_on_c, 0, 65, 64
1, 1594478, Note_off_c, 0, 65, 62
1, 1594509, Note_on_c, 0, 48, 83
1, 1594515, Note_on_c, 0, 67, 78
1, 1594534, Note_off_c, 0, 48, 66
1, 1594543, Note_off_c, 0, 69, 62
1, 1594588, Note_on_c, 0, 64, 71
1, 1594640, Note_off_c, 0, 64, 65
1, 1594666, Note_on_c, 0, 58, 71
1, 1594727, Note_off_c, 0, 58, 41
1, 1594740, Note_on_c, 0, 64, 70
1, 1594776, Note_off_c, 0, 67, 60
1, 1594779, Note_off_c, 0, 64, 63
1, 1594809, Note_on_c, 0, 53, 79
1, 1594810, Note_on_c, 0, 41, 77
1, 1594811, Note_on_c, 0, 65, 83
1, 1594820, Note_on_c, 0, 57, 73
1, 1594831, Note_off_c, 0, 53, 68
1, 1594832, Note_off_c, 0, 41, 68
1, 1594843, Note_off_c, 0, 57, 67
1, 1594846, Note_off_c, 0, 65, 65
1, 1594985, Note_on_c, 0, 60, 82
1, 1595006, Note_off_c, 0, 60, 71
1, 1595155, Note_on_c, 0, 57, 79
1, 1595177, Note_off_c, 0, 57, 68
1, 1595299, Note_on_c, 0, 55, 62
1, 1595333, Note_off_c, 0, 55, 60
1, 1595468, Note_on_c, 0, 53, 60
1, 1595526, Note_off_c, 0, 53, 54
1, 1595636, Note_on_c, 0, 77, 67
1, 1595648, Note_on_c, 0, 69, 48
1, 1595651, Control_c, 0, 64, 29
1, 1595654, Note_on_c, 0, 72, 49
1, 1595663, Note_on_c, 0, 51, 47
1, 1595666, Control_c, 0, 64, 41
1, 1595681, Control_c, 0, 64, 50
1, 1595695, Control_c, 0, 64, 58
1, 1595697, Note_off_c, 0, 72, 56
1, 1595710, Control_c, 0, 64, 63
1, 1595724, Note_off_c, 0, 51, 54
1, 1595725, Control_c, 0, 64, 65
1, 1595727, Note_off_c, 0, 69, 37
1, 1595740, Control_c, 0, 64, 69
1, 1595755, Control_c, 0, 64, 72
1, 1595761, Note_off_c, 0, 77, 61
1, 1595777, Control_c, 0, 64, 75
1, 1595792, Control_c, 0, 64, 79
1, 1595807, Control_c, 0, 64, 84
1, 1595822, Control_c, 0, 64, 88
1, 1595837, Control_c, 0, 64, 91
1, 1595851, Control_c, 0, 64, 92
1, 1595866, Control_c, 0, 64, 91
1, 1595876, Note_on_c, 0, 77, 63
1, 1595881, Control_c, 0, 64, 82
1, 1595884, Note_on_c, 0, 69, 49
1, 1595885, Note_on_c, 0, 50, 42
1, 1595887, Note_on_c, 0, 74, 58
1, 1595897, Control_c, 0, 64, 68
1, 1595912, Control_c, 0, 64, 53
1, 1595926, Control_c, 0, 64, 45
1, 1595937, Note_off_c, 0, 69, 0
1, 1595941, Control_c, 0, 64, 48
1, 1595956, Control_c, 0, 64, 58
1, 1595962, Note_on_c, 0, 69, 24
1, 1595967, Note_off_c, 0, 74, 56
1, 1595971, Control_c, 0, 64, 67
1, 1595986, Control_c, 0, 64, 79
1, 1595998, Note_off_c, 0, 69, 52
1, 1596000, Control_c, 0, 64, 95
1, 1596002, Note_off_c, 0, 77, 58
1, 1596015, Control_c, 0, 64, 110
1, 1596030, Control_c, 0, 64, 127
1, 1596043, Note_off_c, 0, 50, 21
1, 1596139, Note_on_c, 0, 77, 55
1, 1596156, Note_on_c, 0, 69, 45
1, 1596162, Control_c, 0, 64, 85
1, 1596171, Note_on_c, 0, 48, 55
1, 1596174, Note_on_c, 0, 75, 46
1, 1596177, Control_c, 0, 64, 65
1, 1596192, Control_c, 0, 64, 47
1, 1596207, Control_c, 0, 64, 41
1, 1596222, Control_c, 0, 64, 45
1, 1596237, Control_c, 0, 64, 56
1, 1596251, Control_c, 0, 64, 68
1, 1596266, Control_c, 0, 64, 83
1, 1596281, Control_c, 0, 64, 112
1, 1596281, Note_off_c, 0, 48, 61
1, 1596296, Control_c, 0, 64, 127
1, 1596322, Note_off_c, 0, 77, 63
1, 1596363, Note_off_c, 0, 69, 37
1, 1596365, Note_off_c, 0, 75, 62
1, 1596524, Note_on_c, 0, 77, 67
1, 1596673, Control_c, 0, 64, 121
1, 1596677, Note_on_c, 0, 74, 48
1, 1596688, Control_c, 0, 64, 86
1, 1596704, Control_c, 0, 64, 69
1, 1596719, Control_c, 0, 64, 58
1, 1596734, Control_c, 0, 64, 52
1, 1596763, Control_c, 0, 64, 55
1, 1596778, Control_c, 0, 64, 59
1, 1596785, Note_off_c, 0, 74, 39
1, 1596793, Control_c, 0, 64, 64
1, 1596806, Note_on_c, 0, 70, 42
1, 1596808, Control_c, 0, 64, 72
1, 1596822, Control_c, 0, 64, 83
1, 1596824, Note_on_c, 0, 34, 40
1, 1596837, Control_c, 0, 64, 96
1, 1596852, Control_c, 0, 64, 105
1, 1596866, Control_c, 0, 64, 115
1, 1596881, Control_c, 0, 64, 127
1, 1596892, Note_off_c, 0, 70, 37
1, 1596902, Note_on_c, 0, 74, 63
1, 1596938, Note_off_c, 0, 34, 0
1, 1596983, Note_off_c, 0, 74, 58
1, 1596984, Poly_aftertouch_c, 0, 34, 0
1, 1596998, Note_on_c, 0, 82, 80
1, 1597007, Note_off_c, 0, 77, 62
1, 1597015, Control_c, 0, 64, 98
1, 1597029, Control_c, 0, 64, 76
1, 1597044, Control_c, 0, 64, 66
1, 1597059, Control_c, 0, 64, 63
1, 1597074, Control_c, 0, 64, 67
1, 1597089, Control_c, 0, 64, 76
1, 1597098, Note_on_c, 0, 74, 61
1, 1597104, Control_c, 0, 64, 94
1, 1597119, Control_c, 0, 64, 127
1, 1597128, Note_off_c, 0, 74, 52
1, 1597189, Note_on_c, 0, 70, 50
1, 1597199, Note_on_c, 0, 46, 46
1, 1597229, Note_off_c, 0, 70, 46
1, 1597254, Note_off_c, 0, 46, 59
1, 1597271, Note_on_c, 0, 74, 45
1, 1597285, Note_off_c, 0, 82, 55
1, 1597318, Note_off_c, 0, 74, 59
1, 1597379, Note_on_c, 0, 81, 72
1, 1597393, Note_on_c, 0, 77, 64
1, 1597393, Control_c, 0, 64, 87
1, 1597408, Control_c, 0, 64, 69
1, 1597422, Control_c, 0, 64, 59
1, 1597437, Control_c, 0, 64, 57
1, 1597452, Control_c, 0, 64, 60
1, 1597466, Control_c, 0, 64, 66
1, 1597473, Note_on_c, 0, 74, 63
1, 1597481, Control_c, 0, 64, 80
1, 1597497, Control_c, 0, 64, 105
1, 1597512, Control_c, 0, 64, 127
1, 1597527, Note_off_c, 0, 74, 58
1, 1597581, Note_on_c, 0, 50, 48
1, 1597591, Note_on_c, 0, 69, 29
1, 1597608, Note_off_c, 0, 81, 58
1, 1597622, Note_off_c, 0, 50, 63
1, 1597623, Note_on_c, 0, 74, 72
1, 1597640, Note_off_c, 0, 77, 63
1, 1597649, Note_off_c, 0, 74, 65
1, 1597658, Note_off_c, 0, 69, 62
1, 1597676, Control_c, 0, 64, 113
1, 1597690, Control_c, 0, 64, 76
1, 1597705, Control_c, 0, 64, 64
1, 1597711, Note_on_c, 0, 79, 78
1, 1597720, Control_c, 0, 64, 62
1, 1597723, Note_on_c, 0, 75, 73
1, 1597735, Control_c, 0, 64, 67
1, 1597750, Control_c, 0, 64, 78
1, 1597764, Control_c, 0, 64, 110
1, 1597779, Control_c, 0, 64, 127
1, 1597820, Note_on_c, 0, 70, 62
1, 1597867, Note_off_c, 0, 70, 62
1, 1597892, Note_on_c, 0, 51, 53
1, 1597915, Note_on_c, 0, 67, 48
1, 1597938, Note_off_c, 0, 51, 57
1, 1597960, Note_off_c, 0, 79, 62
1, 1597962, Note_off_c, 0, 67, 43
1, 1597976, Note_on_c, 0, 70, 61
1, 1597977, Note_off_c, 0, 75, 61
1, 1598013, Note_off_c, 0, 70, 67
1, 1598039, Control_c, 0, 64, 104
1, 1598053, Control_c, 0, 64, 74
1, 1598058, Note_on_c, 0, 79, 77
1, 1598068, Control_c, 0, 64, 59
1, 1598075, Note_on_c, 0, 74, 64
1, 1598083, Control_c, 0, 64, 50
1, 1598097, Control_c, 0, 64, 49
1, 1598112, Control_c, 0, 64, 53
1, 1598127, Control_c, 0, 64, 61
1, 1598142, Control_c, 0, 64, 68
1, 1598157, Control_c, 0, 64, 80
1, 1598171, Note_on_c, 0, 70, 58
1, 1598171, Control_c, 0, 64, 102
1, 1598186, Control_c, 0, 64, 127
1, 1598233, Note_on_c, 0, 55, 47
1, 1598238, Note_off_c, 0, 70, 63
1, 1598269, Note_off_c, 0, 79, 57
1, 1598269, Note_on_c, 0, 67, 44
1, 1598274, Note_off_c, 0, 55, 59
1, 1598302, Note_on_c, 0, 70, 55
1, 1598310, Note_off_c, 0, 74, 62
1, 1598327, Note_off_c, 0, 67, 60
1, 1598346, Note_off_c, 0, 70, 60
1, 1598388, Note_on_c, 0, 77, 72
1, 1598389, Note_on_c, 0, 74, 79
1, 1598395, Control_c, 0, 64, 79
1, 1598410, Control_c, 0, 64, 64
1, 1598424, Control_c, 0, 64, 58
1, 1598439, Control_c, 0, 64, 59
1, 1598454, Control_c, 0, 64, 64
1, 1598465, Note_on_c, 0, 70, 64
1, 1598469, Control_c, 0, 64, 74
1, 1598484, Control_c, 0, 64, 96
1, 1598499, Control_c, 0, 64, 127
1, 1598520, Note_off_c, 0, 70, 60
1, 1598546, Note_on_c, 0, 58, 47
1, 1598557, Note_on_c, 0, 65, 52
1, 1598602, Note_off_c, 0, 65, 43
1, 1598615, Note_off_c, 0, 58, 55
1, 1598617, Note_on_c, 0, 70, 65
1, 1598621, Note_off_c, 0, 77, 54
1, 1598630, Note_off_c, 0, 74, 61
1, 1598643, Note_off_c, 0, 70, 65
1, 1598676, Control_c, 0, 64, 97
1, 1598691, Control_c, 0, 64, 70
1, 1598693, Note_on_c, 0, 77, 84
1, 1598696, Note_on_c, 0, 74, 79
1, 1598706, Control_c, 0, 64, 57
1, 1598720, Control_c, 0, 64, 57
1, 1598735, Control_c, 0, 64, 64
1, 1598750, Control_c, 0, 64, 75
1, 1598773, Control_c, 0, 64, 114
1, 1598787, Note_on_c, 0, 69, 72
1, 1598788, Control_c, 0, 64, 127
1, 1598830, Note_off_c, 0, 69, 54
1, 1598860, Note_on_c, 0, 62, 51
1, 1598874, Note_on_c, 0, 65, 58
1, 1598876, Control_c, 0, 67, 109
1, 1598881, Note_off_c, 0, 77, 62
1, 1598887, Note_off_c, 0, 62, 63
1, 1598891, Control_c, 0, 67, 95
1, 1598897, Note_off_c, 0, 74, 61
1, 1598906, Control_c, 0, 67, 91
1, 1598918, Note_off_c, 0, 65, 55
1, 1598920, Control_c, 0, 67, 90
1, 1598935, Control_c, 0, 67, 89
1, 1598954, Note_on_c, 0, 69, 38
1, 1598965, Control_c, 0, 67, 91
1, 1598980, Control_c, 0, 67, 99
1, 1598984, Note_off_c, 0, 69, 56
1, 1598994, Control_c, 0, 67, 104
1, 1599005, Note_on_c, 0, 72, 75
1, 1599007, Note_on_c, 0, 75, 82
1, 1599009, Control_c, 0, 64, 88
1, 1599024, Control_c, 0, 64, 66
1, 1599039, Control_c, 0, 64, 57
1, 1599039, Control_c, 0, 67, 106
1, 1599053, Control_c, 0, 64, 57
1, 1599053, Control_c, 0, 67, 110
1, 1599068, Control_c, 0, 64, 63
1, 1599068, Control_c, 0, 67, 114
1, 1599084, Control_c, 0, 64, 75
1, 1599099, Control_c, 0, 64, 108
1, 1599099, Control_c, 0, 67, 112
1, 1599107, Note_on_c, 0, 69, 51
1, 1599114, Control_c, 0, 64, 127
1, 1599171, Note_on_c, 0, 41, 52
1, 1599173, Control_c, 0, 67, 108
1, 1599174, Note_off_c, 0, 69, 61
1, 1599186, Note_on_c, 0, 63, 53
1, 1599188, Control_c, 0, 67, 105
1, 1599208, Note_off_c, 0, 41, 63
1, 1599232, Note_on_c, 0, 69, 48
1, 1599235, Note_off_c, 0, 72, 61
1, 1599246, Note_off_c, 0, 75, 61
1, 1599260, Note_off_c, 0, 63, 57
1, 1599265, Note_off_c, 0, 69, 64
1, 1599277, Control_c, 0, 67, 109
1, 1599292, Control_c, 0, 67, 114
1, 1599307, Control_c, 0, 64, 89
1, 1599307, Control_c, 0, 67, 123
1, 1599314, Note_on_c, 0, 75, 87
1, 1599322, Control_c, 0, 64, 63
1, 1599322, Control_c, 0, 67, 127
1, 1599329, Note_on_c, 0, 70, 78
1, 1599336, Control_c, 0, 64, 52
1, 1599351, Control_c, 0, 64, 53
1, 1599366, Control_c, 0, 64, 61
1, 1599381, Control_c, 0, 64, 72
1, 1599396, Control_c, 0, 64, 97
1, 1599410, Control_c, 0, 64, 127
1, 1599414, Note_on_c, 0, 67, 54
1, 1599475, Note_off_c, 0, 67, 58
1, 1599481, Note_on_c, 0, 63, 66
1, 1599489, Note_on_c, 0, 43, 60
1, 1599527, Note_off_c, 0, 43, 64
1, 1599532, Note_off_c, 0, 63, 47
1, 1599554, Note_off_c, 0, 75, 61
1, 1599563, Note_off_c, 0, 70, 63
1, 1599596, Control_c, 0, 64, 103
1, 1599611, Control_c, 0, 64, 68
1, 1599625, Control_c, 0, 64, 42
1, 1599628, Note_on_c, 0, 70, 78
1, 1599630, Note_on_c, 0, 74, 84
1, 1599640, Control_c, 0, 64, 33
1, 1599655, Control_c, 0, 64, 41
1, 1599669, Control_c, 0, 64, 58
1, 1599684, Control_c, 0, 64, 75
1, 1599699, Control_c, 0, 64, 116
1, 1599714, Control_c, 0, 64, 127
1, 1599736, Note_on_c, 0, 67, 46
1, 1599770, Note_off_c, 0, 67, 50
1, 1599799, Note_on_c, 0, 62, 54
1, 1599810, Note_on_c, 0, 46, 9
1, 1599848, Note_on_c, 0, 67, 41
1, 1599857, Note_off_c, 0, 46, 51
1, 1599863, Note_off_c, 0, 70, 42
1, 1599866, Note_off_c, 0, 74, 61
1, 1599878, Note_off_c, 0, 62, 58
1, 1599886, Note_off_c, 0, 67, 55
1, 1599948, Note_on_c, 0, 74, 66
1, 1599951, Note_on_c, 0, 69, 63
1, 1599951, Control_c, 0, 64, 76
1, 1599966, Control_c, 0, 64, 57
1, 1599981, Control_c, 0, 64, 44
1, 1599995, Control_c, 0, 64, 45
1, 1600010, Control_c, 0, 64, 57
1, 1600025, Control_c, 0, 64, 72
1, 1600040, Control_c, 0, 64, 99
1, 1600055, Control_c, 0, 64, 127
1, 1600058, Note_on_c, 0, 66, 51
1, 1600058, Note_off_c, 0, 69, 51
1, 1600081, Note_off_c, 0, 66, 59
1, 1600107, Note_on_c, 0, 62, 52
1, 1600118, Note_on_c, 0, 50, 44
1, 1600147, Note_off_c, 0, 50, 60
1, 1600155, Note_off_c, 0, 62, 57
1, 1600159, Note_on_c, 0, 66, 58
1, 1600213, Note_off_c, 0, 66, 61
1, 1600270, Control_c, 0, 64, 93
1, 1600270, Note_on_c, 0, 72, 74
1, 1600284, Control_c, 0, 64, 67
1, 1600285, Note_off_c, 0, 74, 39
1, 1600299, Control_c, 0, 64, 51
1, 1600314, Control_c, 0, 64, 44
1, 1600329, Control_c, 0, 64, 47
1, 1600344, Control_c, 0, 64, 61
1, 1600358, Note_on_c, 0, 69, 57
1, 1600358, Control_c, 0, 64, 74
1, 1600373, Control_c, 0, 64, 112
1, 1600388, Note_off_c, 0, 69, 67
1, 1600388, Control_c, 0, 64, 127
1, 1600422, Note_on_c, 0, 54, 51
1, 1600424, Note_on_c, 0, 62, 57
1, 1600446, Note_off_c, 0, 54, 59
1, 1600480, Note_off_c, 0, 72, 60
1, 1600485, Note_on_c, 0, 69, 56
1, 1600492, Note_off_c, 0, 62, 51
1, 1600526, Note_off_c, 0, 69, 55
1, 1600559, Note_on_c, 0, 72, 71
1, 1600609, Control_c, 0, 64, 93
1, 1600624, Control_c, 0, 64, 66
1, 1600639, Note_on_c, 0, 67, 66
1, 1600639, Control_c, 0, 64, 37
1, 1600654, Control_c, 0, 64, 0
1, 1600673, Note_off_c, 0, 67, 63
1, 1600723, Note_on_c, 0, 62, 44
1, 1600730, Note_on_c, 0, 55, 38
1, 1600764, Note_off_c, 0, 62, 58
1, 1600766, Note_off_c, 0, 55, 52
1, 1600773, Note_on_c, 0, 67, 59
1, 1600807, Note_off_c, 0, 67, 63
1, 1600853, Note_on_c, 0, 71, 69
1, 1600861, Note_off_c, 0, 72, 58
1, 1600878, Note_on_c, 0, 57, 50
1, 1600904, Note_off_c, 0, 57, 61
1, 1600929, Note_on_c, 0, 67, 61
1, 1600973, Note_off_c, 0, 67, 60
1, 1601017, Note_on_c, 0, 59, 47
1, 1601025, Note_on_c, 0, 62, 40
1, 1601054, Note_off_c, 0, 59, 58
1, 1601088, Note_off_c, 0, 62, 44
1, 1601097, Note_on_c, 0, 67, 57
1, 1601173, Note_off_c, 0, 71, 38
1, 1601185, Note_off_c, 0, 67, 58
1, 1601196, Note_on_c, 0, 69, 59
1, 1601200, Note_on_c, 0, 48, 48
1, 1601310, Note_off_c, 0, 48, 53
1, 1601320, Note_on_c, 0, 67, 46
1, 1601355, Note_off_c, 0, 67, 60
1, 1601405, Note_on_c, 0, 64, 40
1, 1601476, Note_on_c, 0, 67, 47
1, 1601487, Note_off_c, 0, 64, 52
1, 1601576, Note_off_c, 0, 69, 33
1, 1601606, Note_off_c, 0, 67, 58
1, 1601611, Note_on_c, 0, 71, 53
1, 1601623, Note_on_c, 0, 50, 43
1, 1601730, Control_c, 0, 64, 32
1, 1601745, Control_c, 0, 64, 35
1, 1601748, Note_on_c, 0, 66, 46
1, 1601768, Control_c, 0, 64, 36
1, 1601783, Control_c, 0, 64, 39
1, 1601798, Control_c, 0, 64, 43
1, 1601799, Note_off_c, 0, 50, 64
1, 1601812, Control_c, 0, 64, 47
1, 1601835, Note_off_c, 0, 66, 54
1, 1601842, Control_c, 0, 64, 46
1, 1601874, Note_on_c, 0, 62, 33
1, 1601886, Control_c, 0, 64, 45
1, 1601916, Control_c, 0, 64, 45
1, 1601968, Note_on_c, 0, 66, 52
1, 1601975, Control_c, 0, 64, 45
1, 1602021, Note_off_c, 0, 62, 37
1, 1602049, Control_c, 0, 64, 46
1, 1602079, Control_c, 0, 64, 45
1, 1602088, Note_off_c, 0, 66, 55
1, 1602108, Note_on_c, 0, 67, 55
1, 1602138, Control_c, 0, 64, 45
1, 1602141, Note_off_c, 0, 71, 37
1, 1602153, Control_c, 0, 64, 44
1, 1602168, Control_c, 0, 64, 43
1, 1602212, Control_c, 0, 64, 42
1, 1602227, Control_c, 0, 64, 40
1, 1602242, Control_c, 0, 64, 35
1, 1602255, Note_on_c, 0, 62, 35
1, 1602256, Control_c, 0, 64, 0
1, 1602309, Note_off_c, 0, 62, 47
1, 1602332, Control_c, 0, 64, 28
1, 1602347, Control_c, 0, 64, 44
1, 1602349, Note_on_c, 0, 55, 31
1, 1602359, Note_on_c, 0, 59, 41
1, 1602361, Control_c, 0, 64, 60
1, 1602376, Control_c, 0, 64, 70
1, 1602391, Control_c, 0, 64, 77
1, 1602406, Control_c, 0, 64, 82
1, 1602414, Note_off_c, 0, 59, 53
1, 1602421, Control_c, 0, 64, 86
1, 1602425, Note_on_c, 0, 62, 46
1, 1602426, Note_off_c, 0, 55, 55
1, 1602435, Control_c, 0, 64, 90
1, 1602450, Control_c, 0, 64, 95
1, 1602465, Control_c, 0, 64, 102
1, 1602479, Control_c, 0, 64, 113
1, 1602492, Note_off_c, 0, 62, 56
1, 1602494, Control_c, 0, 64, 127
1, 1602532, Note_on_c, 0, 69, 66
1, 1602539, Note_off_c, 0, 67, 58
1, 1602621, Control_c, 0, 64, 97
1, 1602628, Note_on_c, 0, 64, 55
1, 1602635, Control_c, 0, 64, 71
1, 1602650, Control_c, 0, 64, 56
1, 1602665, Note_off_c, 0, 64, 62
1, 1602665, Control_c, 0, 64, 49
1, 1602680, Control_c, 0, 64, 54
1, 1602694, Control_c, 0, 64, 61
1, 1602695, Note_on_c, 0, 48, 50
1, 1602709, Control_c, 0, 64, 69
1, 1602711, Note_on_c, 0, 60, 49
1, 1602724, Control_c, 0, 64, 79
1, 1602739, Control_c, 0, 64, 92
1, 1602753, Control_c, 0, 64, 102
1, 1602768, Control_c, 0, 64, 111
1, 1602772, Note_off_c, 0, 60, 51
1, 1602777, Note_on_c, 0, 64, 51
1, 1602783, Control_c, 0, 64, 127
1, 1602824, Note_off_c, 0, 48, 53
1, 1602836, Note_off_c, 0, 64, 62
1, 1602854, Note_on_c, 0, 71, 82
1, 1602872, Control_c, 0, 64, 112
1, 1602887, Control_c, 0, 64, 75
1, 1602889, Note_off_c, 0, 69, 56
1, 1602902, Control_c, 0, 64, 61
1, 1602917, Control_c, 0, 64, 56
1, 1602932, Control_c, 0, 64, 58
1, 1602947, Control_c, 0, 64, 65
1, 1602950, Note_on_c, 0, 65, 49
1, 1602961, Control_c, 0, 64, 74
1, 1602976, Control_c, 0, 64, 92
1, 1602991, Note_off_c, 0, 65, 61
1, 1602991, Control_c, 0, 64, 127
1, 1603027, Note_on_c, 0, 43, 54
1, 1603027, Note_on_c, 0, 62, 55
1, 1603084, Note_off_c, 0, 43, 61
1, 1603088, Note_on_c, 0, 65, 59
1, 1603102, Note_off_c, 0, 62, 53
1, 1603105, Note_off_c, 0, 71, 58
1, 1603125, Note_off_c, 0, 65, 63
1, 1603140, Control_c, 0, 64, 99
1, 1603155, Control_c, 0, 64, 72
1, 1603167, Note_on_c, 0, 71, 82
1, 1603170, Control_c, 0, 64, 58
1, 1603184, Control_c, 0, 64, 53
1, 1603199, Control_c, 0, 64, 58
1, 1603214, Control_c, 0, 64, 66
1, 1603228, Control_c, 0, 64, 77
1, 1603243, Control_c, 0, 64, 98
1, 1603265, Control_c, 0, 64, 127
1, 1603266, Note_on_c, 0, 65, 66
1, 1603313, Note_off_c, 0, 65, 61
1, 1603348, Note_on_c, 0, 43, 43
1, 1603419, Note_on_c, 0, 65, 57
1, 1603431, Note_off_c, 0, 71, 56
1, 1603444, Note_off_c, 0, 43, 44
1, 1603449, Poly_aftertouch_c, 0, 62, 0
1, 1603480, Note_off_c, 0, 65, 55
1, 1603519, Note_on_c, 0, 71, 62
1, 1603547, Control_c, 0, 64, 90
1, 1603562, Control_c, 0, 64, 66
1, 1603576, Control_c, 0, 64, 50
1, 1603591, Control_c, 0, 64, 40
1, 1603607, Note_on_c, 0, 65, 51
1, 1603621, Control_c, 0, 64, 45
1, 1603635, Control_c, 0, 64, 54
1, 1603647, Note_off_c, 0, 65, 61
1, 1603650, Control_c, 0, 64, 61
1, 1603665, Control_c, 0, 64, 67
1, 1603680, Control_c, 0, 64, 74
1, 1603695, Control_c, 0, 64, 82
1, 1603701, Note_on_c, 0, 36, 45
1, 1603710, Control_c, 0, 64, 91
1, 1603710, Note_on_c, 0, 62, 40
1, 1603725, Control_c, 0, 64, 98
1, 1603739, Control_c, 0, 64, 103
1, 1603745, Note_off_c, 0, 36, 54
1, 1603753, Note_on_c, 0, 65, 53
1, 1603754, Note_off_c, 0, 62, 46
1, 1603754, Control_c, 0, 64, 108
1, 1603769, Control_c, 0, 64, 121
1, 1603784, Control_c, 0, 64, 127
1, 1603794, Note_off_c, 0, 65, 58
1, 1603827, Note_on_c, 0, 72, 74
1, 1603867, Note_off_c, 0, 71, 36
1, 1603874, Control_c, 0, 64, 95
1, 1603888, Control_c, 0, 64, 71
1, 1603903, Control_c, 0, 64, 56
1, 1603917, Note_on_c, 0, 67, 61
1, 1603918, Control_c, 0, 64, 52
1, 1603933, Control_c, 0, 64, 54
1, 1603948, Control_c, 0, 64, 60
1, 1603957, Note_off_c, 0, 67, 62
1, 1603963, Control_c, 0, 64, 67
1, 1603978, Control_c, 0, 64, 77
1, 1603993, Control_c, 0, 64, 92
1, 1604014, Control_c, 0, 64, 107
1, 1604016, Note_on_c, 0, 36, 54
1, 1604017, Note_on_c, 0, 64, 49
1, 1604029, Control_c, 0, 64, 127
1, 1604072, Note_off_c, 0, 64, 58
1, 1604073, Note_on_c, 0, 67, 64
1, 1604076, Note_off_c, 0, 36, 52
1, 1604109, Note_off_c, 0, 67, 63
1, 1604154, Note_on_c, 0, 71, 81
1, 1604163, Control_c, 0, 64, 80
1, 1604170, Note_off_c, 0, 72, 41
1, 1604178, Control_c, 0, 64, 62
1, 1604193, Control_c, 0, 64, 50
1, 1604207, Control_c, 0, 64, 48
1, 1604222, Control_c, 0, 64, 53
1, 1604225, Note_on_c, 0, 67, 66
1, 1604237, Control_c, 0, 64, 61
1, 1604252, Control_c, 0, 64, 66
1, 1604266, Control_c, 0, 64, 74
1, 1604273, Note_off_c, 0, 67, 60
1, 1604281, Control_c, 0, 64, 84
1, 1604296, Control_c, 0, 64, 99
1, 1604311, Control_c, 0, 64, 127
1, 1604312, Note_on_c, 0, 62, 39
1, 1604324, Note_on_c, 0, 38, 58
1, 1604360, Note_off_c, 0, 62, 41
1, 1604378, Note_on_c, 0, 67, 66
1, 1604383, Note_off_c, 0, 38, 59
1, 1604407, Note_off_c, 0, 67, 65
1, 1604443, Control_c, 0, 64, 103
1, 1604448, Note_on_c, 0, 69, 80
1, 1604458, Control_c, 0, 64, 75
1, 1604473, Control_c, 0, 64, 65
1, 1604488, Control_c, 0, 64, 66
1, 1604503, Control_c, 0, 64, 76
1, 1604506, Note_off_c, 0, 71, 24
1, 1604517, Control_c, 0, 64, 127
1, 1604529, Note_on_c, 0, 66, 77
1, 1604569, Note_off_c, 0, 66, 62
1, 1604580, Note_on_c, 0, 62, 61
1, 1604595, Note_off_c, 0, 69, 52
1, 1604639, Note_on_c, 0, 66, 65
1, 1604678, Note_off_c, 0, 62, 54
1, 1604718, Note_off_c, 0, 66, 63
1, 1604753, Note_on_c, 0, 71, 63
1, 1604777, Control_c, 0, 64, 90
1, 1604792, Control_c, 0, 64, 64
1, 1604807, Control_c, 0, 64, 42
1, 1604822, Control_c, 0, 64, 0
1, 1604836, Note_on_c, 0, 67, 75
1, 1604851, Control_c, 0, 64, 36
1, 1604866, Control_c, 0, 64, 57
1, 1604881, Control_c, 0, 64, 73
1, 1604896, Control_c, 0, 64, 99
1, 1604901, Note_on_c, 0, 43, 67
1, 1604909, Note_off_c, 0, 67, 61
1, 1604911, Control_c, 0, 64, 127
1, 1604927, Note_on_c, 0, 65, 69
1, 1604955, Control_c, 0, 67, 113
1, 1604970, Control_c, 0, 67, 107
1, 1604984, Note_on_c, 0, 67, 72
1, 1604984, Note_off_c, 0, 43, 51
1, 1604985, Control_c, 0, 67, 99
1, 1605000, Control_c, 0, 67, 84
1, 1605005, Note_off_c, 0, 65, 55
1, 1605015, Control_c, 0, 67, 61
1, 1605025, Note_off_c, 0, 71, 61
1, 1605029, Control_c, 0, 67, 51
1, 1605033, Note_off_c, 0, 67, 62
1, 1605044, Control_c, 0, 67, 50
1, 1605059, Note_on_c, 0, 72, 88
1, 1605074, Control_c, 0, 64, 104
1, 1605074, Control_c, 0, 67, 49
1, 1605088, Control_c, 0, 64, 75
1, 1605103, Control_c, 0, 64, 61
1, 1605118, Control_c, 0, 64, 58
1, 1605133, Control_c, 0, 64, 64
1, 1605133, Control_c, 0, 67, 50
1, 1605135, Note_on_c, 0, 69, 72
1, 1605148, Control_c, 0, 64, 77
1, 1605148, Control_c, 0, 67, 49
1, 1605162, Control_c, 0, 64, 112
1, 1605162, Control_c, 0, 67, 48
1, 1605177, Control_c, 0, 64, 127
1, 1605177, Control_c, 0, 67, 47
1, 1605182, Note_off_c, 0, 69, 56
1, 1605183, Poly_aftertouch_c, 0, 55, 127
1, 1605202, Note_on_c, 0, 65, 64
1, 1605206, Control_c, 0, 67, 46
1, 1605221, Control_c, 0, 67, 42
1, 1605227, Poly_aftertouch_c, 0, 55, 0
1, 1605236, Control_c, 0, 67, 0
1, 1605268, Note_on_c, 0, 69, 75
1, 1605298, Note_off_c, 0, 65, 36
1, 1605340, Note_off_c, 0, 69, 52
1, 1605350, Note_on_c, 0, 74, 93
1, 1605369, Note_off_c, 0, 72, 50
1, 1605370, Control_c, 0, 64, 94
1, 1605385, Control_c, 0, 64, 71
1, 1605399, Control_c, 0, 64, 63
1, 1605414, Control_c, 0, 64, 65
1, 1605429, Control_c, 0, 64, 79
1, 1605444, Control_c, 0, 64, 127
1, 1605447, Note_on_c, 0, 71, 82
1, 1605523, Note_off_c, 0, 71, 60
1, 1605525, Note_on_c, 0, 55, 62
1, 1605539, Note_on_c, 0, 65, 72
1, 1605579, Note_off_c, 0, 55, 55
1, 1605608, Note_on_c, 0, 71, 79
1, 1605612, Note_off_c, 0, 74, 61
1, 1605636, Note_off_c, 0, 65, 58
1, 1605656, Note_off_c, 0, 71, 59
1, 1605693, Note_on_c, 0, 74, 96
1, 1605719, Control_c, 0, 64, 88
1, 1605734, Control_c, 0, 64, 62
1, 1605749, Control_c, 0, 64, 39
1, 1605763, Control_c, 0, 64, 40
1, 1605778, Control_c, 0, 64, 53
1, 1605782, Note_on_c, 0, 71, 69
1, 1605793, Control_c, 0, 64, 68
1, 1605808, Control_c, 0, 64, 94
1, 1605822, Control_c, 0, 64, 127
1, 1605839, Note_off_c, 0, 71, 61
1, 1605849, Note_on_c, 0, 55, 55
1, 1605856, Note_on_c, 0, 65, 72
1, 1605895, Note_off_c, 0, 55, 57
1, 1605897, Note_off_c, 0, 65, 0
1, 1605926, Note_on_c, 0, 71, 83
1, 1605935, Poly_aftertouch_c, 0, 65, 127
1, 1605955, Poly_aftertouch_c, 0, 65, 0
1, 1605967, Note_off_c, 0, 74, 59
1, 1605990, Note_off_c, 0, 71, 58
1, 1606050, Note_on_c, 0, 74, 83
1, 1606060, Control_c, 0, 64, 81
1, 1606066, Note_on_c, 0, 71, 68
1, 1606075, Control_c, 0, 64, 61
1, 1606090, Control_c, 0, 64, 56
1, 1606097, Note_off_c, 0, 71, 58
1, 1606104, Control_c, 0, 64, 64
1, 1606119, Control_c, 0, 64, 82
1, 1606134, Control_c, 0, 64, 127
1, 1606205, Note_on_c, 0, 71, 53
1, 1606226, Note_on_c, 0, 48, 70
1, 1606231, Note_on_c, 0, 65, 30
1, 1606274, Note_off_c, 0, 48, 59
1, 1606339, Note_off_c, 0, 74, 0
1, 1606351, Note_off_c, 0, 65, 35
1, 1606357, Note_on_c, 0, 76, 85
1, 1606366, Note_on_c, 0, 74, 12
1, 1606369, Note_off_c, 0, 71, 59
1, 1606409, Control_c, 0, 64, 93
1, 1606423, Note_off_c, 0, 74, 51
1, 1606424, Control_c, 0, 64, 65
1, 1606439, Control_c, 0, 64, 45
1, 1606453, Control_c, 0, 64, 33
1, 1606468, Control_c, 0, 64, 37
1, 1606481, Note_on_c, 0, 72, 56
1, 1606483, Control_c, 0, 64, 53
1, 1606498, Control_c, 0, 64, 67
1, 1606513, Control_c, 0, 64, 83
1, 1606515, Note_off_c, 0, 72, 64
1, 1606520, Note_on_c, 0, 48, 39
1, 1606527, Control_c, 0, 64, 127
1, 1606547, Note_on_c, 0, 64, 51
1, 1606565, Note_off_c, 0, 48, 47
1, 1606613, Note_off_c, 0, 64, 60
1, 1606616, Note_on_c, 0, 72, 66
1, 1606675, Note_off_c, 0, 72, 62
1, 1606690, Control_c, 0, 67, 37
1, 1606705, Control_c, 0, 67, 58
1, 1606714, Note_on_c, 0, 74, 85
1, 1606719, Control_c, 0, 67, 64
1, 1606725, Note_off_c, 0, 76, 58
1, 1606734, Control_c, 0, 64, 92
1, 1606734, Control_c, 0, 67, 66
1, 1606749, Control_c, 0, 64, 65
1, 1606749, Control_c, 0, 67, 71
1, 1606764, Control_c, 0, 64, 38
1, 1606764, Control_c, 0, 67, 90
1, 1606779, Control_c, 0, 64, 0
1, 1606779, Control_c, 0, 67, 116
1, 1606793, Control_c, 0, 67, 127
1, 1606801, Note_on_c, 0, 71, 65
1, 1606808, Control_c, 0, 64, 36
1, 1606823, Control_c, 0, 64, 54
1, 1606838, Control_c, 0, 64, 66
1, 1606851, Note_off_c, 0, 71, 57
1, 1606852, Control_c, 0, 64, 77
1, 1606857, Note_on_c, 0, 50, 57
1, 1606867, Control_c, 0, 64, 92
1, 1606882, Control_c, 0, 64, 108
1, 1606889, Note_on_c, 0, 67, 66
1, 1606897, Control_c, 0, 64, 127
1, 1606901, Note_off_c, 0, 50, 60
1, 1606970, Note_on_c, 0, 71, 67
1, 1606992, Note_off_c, 0, 74, 58
1, 1607042, Note_off_c, 0, 71, 60
1, 1607046, Note_off_c, 0, 67, 34
1, 1607083, Control_c, 0, 64, 82
1, 1607086, Note_on_c, 0, 74, 73
1, 1607098, Control_c, 0, 64, 63
1, 1607113, Control_c, 0, 64, 46
1, 1607128, Control_c, 0, 64, 40
1, 1607143, Control_c, 0, 64, 46
1, 1607157, Control_c, 0, 64, 59
1, 1607158, Note_on_c, 0, 50, 45
1, 1607172, Control_c, 0, 64, 74
1, 1607187, Control_c, 0, 64, 103
1, 1607190, Note_off_c, 0, 50, 63
1, 1607193, Note_on_c, 0, 69, 43
1, 1607202, Control_c, 0, 64, 127
1, 1607237, Note_off_c, 0, 69, 61
1, 1607274, Note_on_c, 0, 66, 49
1, 1607316, Note_off_c, 0, 66, 60
1, 1607350, Note_off_c, 0, 74, 60
1, 1607364, Note_on_c, 0, 69, 55
1, 1607498, Note_on_c, 0, 74, 70
1, 1607517, Note_on_c, 0, 55, 48
1, 1607525, Note_off_c, 0, 69, 58
1, 1607528, Control_c, 0, 64, 90
1, 1607543, Control_c, 0, 64, 70
1, 1607558, Control_c, 0, 64, 57
1, 1607573, Control_c, 0, 64, 48
1, 1607588, Control_c, 0, 64, 46
1, 1607602, Control_c, 0, 64, 44
1, 1607617, Control_c, 0, 64, 44
1, 1607621, Note_on_c, 0, 71, 61
1, 1607632, Control_c, 0, 64, 43
1, 1607647, Control_c, 0, 64, 41
1, 1607662, Note_off_c, 0, 71, 59
1, 1607662, Control_c, 0, 64, 41
1, 1607676, Control_c, 0, 64, 41
1, 1607705, Note_on_c, 0, 67, 60
1, 1607706, Control_c, 0, 64, 41
1, 1607721, Control_c, 0, 64, 40
1, 1607736, Control_c, 0, 64, 37
1, 1607758, Control_c, 0, 64, 34
1, 1607773, Control_c, 0, 64, 28
1, 1607777, Note_on_c, 0, 71, 64
1, 1607788, Control_c, 0, 64, 0
1, 1607791, Note_off_c, 0, 67, 54
1, 1607814, Note_off_c, 0, 71, 62
1, 1607821, Note_off_c, 0, 74, 62
1, 1607829, Note_on_c, 0, 59, 52
1, 1607838, Note_on_c, 0, 79, 76
1, 1607942, Note_on_c, 0, 74, 63
1, 1607978, Note_off_c, 0, 74, 57
1, 1608026, Note_on_c, 0, 67, 50
1, 1608085, Note_off_c, 0, 67, 59
1, 1608090, Note_on_c, 0, 74, 63
1, 1608138, Note_off_c, 0, 74, 52
1, 1608166, Note_on_c, 0, 78, 80
1, 1608171, Note_on_c, 0, 62, 47
1, 1608193, Note_off_c, 0, 59, 63
1, 1608205, Note_off_c, 0, 79, 62
1, 1608267, Note_on_c, 0, 74, 61
1, 1608330, Note_off_c, 0, 74, 60
1, 1608352, Note_on_c, 0, 69, 56
1, 1608440, Note_on_c, 0, 74, 57
1, 1608464, Note_off_c, 0, 69, 37
1, 1608509, Note_off_c, 0, 74, 57
1, 1608518, Note_on_c, 0, 81, 76
1, 1608520, Note_on_c, 0, 60, 46
1, 1608528, Note_off_c, 0, 62, 57
1, 1608551, Control_c, 0, 64, 33
1, 1608556, Note_off_c, 0, 78, 59
1, 1608566, Control_c, 0, 64, 46
1, 1608580, Control_c, 0, 64, 56
1, 1608595, Control_c, 0, 64, 60
1, 1608610, Control_c, 0, 64, 62
1, 1608612, Note_on_c, 0, 74, 70
1, 1608625, Control_c, 0, 64, 64
1, 1608640, Control_c, 0, 64, 67
1, 1608652, Note_off_c, 0, 74, 55
1, 1608655, Control_c, 0, 64, 71
1, 1608670, Control_c, 0, 64, 77
1, 1608685, Control_c, 0, 64, 84
1, 1608700, Control_c, 0, 64, 95
1, 1608702, Note_on_c, 0, 69, 60
1, 1608715, Control_c, 0, 64, 107
1, 1608729, Control_c, 0, 64, 127
1, 1608756, Note_on_c, 0, 74, 72
1, 1608774, Note_off_c, 0, 81, 55
1, 1608777, Note_off_c, 0, 69, 59
1, 1608783, Note_off_c, 0, 74, 64
1, 1608845, Note_off_c, 0, 55, 55
1, 1608852, Note_on_c, 0, 59, 45
1, 1608852, Note_on_c, 0, 74, 76
1, 1608865, Note_off_c, 0, 60, 63
1, 1608893, Control_c, 0, 64, 100
1, 1608908, Control_c, 0, 64, 76
1, 1608922, Control_c, 0, 64, 64
1, 1608937, Control_c, 0, 64, 55
1, 1608952, Control_c, 0, 64, 51
1, 1608967, Control_c, 0, 64, 50
1, 1609021, Note_on_c, 0, 67, 58
1, 1609041, Control_c, 0, 64, 51
1, 1609055, Control_c, 0, 64, 51
1, 1609070, Control_c, 0, 64, 52
1, 1609100, Note_on_c, 0, 71, 41
1, 1609115, Control_c, 0, 64, 54
1, 1609129, Control_c, 0, 64, 57
1, 1609138, Note_off_c, 0, 67, 49
1, 1609144, Control_c, 0, 64, 61
1, 1609159, Control_c, 0, 64, 67
1, 1609162, Note_off_c, 0, 71, 62
1, 1609168, Note_off_c, 0, 59, 58
1, 1609171, Note_off_c, 0, 74, 60
1, 1609174, Control_c, 0, 64, 74
1, 1609176, Note_on_c, 0, 75, 54
1, 1609177, Note_on_c, 0, 55, 50
1, 1609188, Note_on_c, 0, 48, 48
1, 1609189, Control_c, 0, 64, 83
1, 1609195, Note_on_c, 0, 76, 67
1, 1609197, Note_off_c, 0, 75, 60
1, 1609203, Control_c, 0, 64, 91
1, 1609218, Control_c, 0, 64, 96
1, 1609233, Control_c, 0, 64, 99
1, 1609255, Control_c, 0, 64, 102
1, 1609270, Control_c, 0, 64, 105
1, 1609285, Control_c, 0, 64, 107
1, 1609296, Note_on_c, 0, 72, 58
1, 1609315, Control_c, 0, 64, 109
1, 1609336, Note_off_c, 0, 72, 61
1, 1609359, Control_c, 0, 64, 112
1, 1609373, Control_c, 0, 64, 114
1, 1609377, Note_on_c, 0, 67, 49
1, 1609388, Control_c, 0, 64, 116
1, 1609418, Control_c, 0, 64, 118
1, 1609448, Note_on_c, 0, 72, 60
1, 1609458, Note_off_c, 0, 67, 58
1, 1609463, Control_c, 0, 64, 109
1, 1609478, Control_c, 0, 64, 92
1, 1609493, Control_c, 0, 64, 77
1, 1609508, Control_c, 0, 64, 64
1, 1609511, Note_off_c, 0, 72, 53
1, 1609523, Control_c, 0, 64, 52
1, 1609531, Note_on_c, 0, 74, 68
1, 1609538, Control_c, 0, 64, 44
1, 1609549, Note_on_c, 0, 54, 42
1, 1609552, Control_c, 0, 64, 41
1, 1609554, Note_on_c, 0, 50, 45
1, 1609560, Note_off_c, 0, 76, 39
1, 1609567, Control_c, 0, 64, 42
1, 1609582, Control_c, 0, 64, 45
1, 1609585, Note_off_c, 0, 55, 50
1, 1609597, Control_c, 0, 64, 51
1, 1609599, Note_off_c, 0, 48, 63
1, 1609612, Control_c, 0, 64, 56
1, 1609625, Note_on_c, 0, 72, 62
1, 1609627, Control_c, 0, 64, 58
1, 1609642, Control_c, 0, 64, 59
1, 1609657, Control_c, 0, 64, 61
1, 1609671, Control_c, 0, 64, 62
1, 1609672, Note_off_c, 0, 72, 57
1, 1609686, Control_c, 0, 64, 63
1, 1609701, Control_c, 0, 64, 64
1, 1609707, Note_on_c, 0, 69, 59
1, 1609745, Control_c, 0, 64, 64
1, 1609775, Control_c, 0, 64, 61
1, 1609788, Note_on_c, 0, 72, 54
1, 1609790, Control_c, 0, 64, 57
1, 1609791, Note_off_c, 0, 74, 60
1, 1609804, Control_c, 0, 64, 55
1, 1609820, Note_off_c, 0, 69, 34
1, 1609834, Control_c, 0, 64, 58
1, 1609837, Note_off_c, 0, 72, 55
1, 1609849, Control_c, 0, 64, 64
1, 1609856, Note_on_c, 0, 57, 63
1, 1609864, Control_c, 0, 64, 75
1, 1609867, Note_on_c, 0, 74, 71
1, 1609876, Note_off_c, 0, 50, 64
1, 1609878, Control_c, 0, 64, 99
1, 1609880, Note_off_c, 0, 54, 62
1, 1609883, Note_off_c, 0, 57, 67
1, 1609893, Control_c, 0, 64, 127
1, 1609969, Note_on_c, 0, 72, 37
1, 1609975, Note_off_c, 0, 74, 62
1, 1610015, Note_off_c, 0, 72, 60
1, 1610045, Note_on_c, 0, 66, 53
1, 1610106, Note_on_c, 0, 72, 60
1, 1610108, Note_off_c, 0, 66, 49
1, 1610187, Note_off_c, 0, 72, 57
1, 1610209, Note_on_c, 0, 74, 64
1, 1610226, Control_c, 0, 64, 94
1, 1610229, Note_on_c, 0, 55, 51
1, 1610241, Control_c, 0, 64, 71
1, 1610256, Control_c, 0, 64, 59
1, 1610272, Control_c, 0, 64, 51
1, 1610287, Control_c, 0, 64, 49
1, 1610312, Note_on_c, 0, 71, 49
1, 1610316, Control_c, 0, 64, 48
1, 1610330, Control_c, 0, 64, 47
1, 1610345, Control_c, 0, 64, 46
1, 1610360, Note_off_c, 0, 71, 51
1, 1610360, Control_c, 0, 64, 45
1, 1610375, Control_c, 0, 64, 44
1, 1610405, Control_c, 0, 64, 44
1, 1610405, Note_on_c, 0, 67, 53
1, 1610419, Control_c, 0, 64, 42
1, 1610434, Control_c, 0, 64, 40
1, 1610449, Control_c, 0, 64, 39
1, 1610461, Note_off_c, 0, 67, 52
1, 1610462, Note_on_c, 0, 71, 65
1, 1610479, Control_c, 0, 64, 38
1, 1610493, Control_c, 0, 64, 33
1, 1610503, Note_off_c, 0, 71, 62
1, 1610508, Control_c, 0, 64, 0
1, 1610516, Note_off_c, 0, 74, 54
1, 1610539, Note_on_c, 0, 79, 68
1, 1610542, Note_on_c, 0, 59, 54
1, 1610638, Note_on_c, 0, 74, 56
1, 1610676, Note_off_c, 0, 74, 61
1, 1610713, Note_on_c, 0, 67, 55
1, 1610767, Note_off_c, 0, 67, 53
1, 1610806, Note_on_c, 0, 74, 48
1, 1610879, Note_off_c, 0, 74, 54
1, 1610889, Note_off_c, 0, 59, 63
1, 1610891, Note_on_c, 0, 62, 39
1, 1610911, Note_on_c, 0, 78, 63
1, 1610935, Note_off_c, 0, 79, 59
1, 1611005, Note_on_c, 0, 74, 60
1, 1611054, Note_off_c, 0, 74, 55
1, 1611055, Note_on_c, 0, 63, 68
1, 1611095, Note_on_c, 0, 69, 52
1, 1611111, Note_off_c, 0, 62, 61
1, 1611129, Note_off_c, 0, 69, 52
1, 1611167, Note_on_c, 0, 74, 72
1, 1611228, Note_on_c, 0, 62, 71
1, 1611228, Note_off_c, 0, 74, 62
1, 1611243, Note_on_c, 0, 81, 73
1, 1611275, Note_off_c, 0, 63, 64
1, 1611275, Note_off_c, 0, 78, 24
1, 1611328, Note_on_c, 0, 74, 70
1, 1611361, Control_c, 0, 64, 33
1, 1611363, Note_off_c, 0, 74, 62
1, 1611376, Control_c, 0, 64, 45
1, 1611391, Control_c, 0, 64, 57
1, 1611398, Note_on_c, 0, 60, 72
1, 1611404, Note_on_c, 0, 69, 69
1, 1611406, Control_c, 0, 64, 64
1, 1611421, Control_c, 0, 64, 67
1, 1611433, Note_off_c, 0, 62, 61
1, 1611436, Control_c, 0, 64, 69
1, 1611450, Control_c, 0, 64, 70
1, 1611465, Control_c, 0, 64, 71
1, 1611480, Control_c, 0, 64, 72
1, 1611484, Note_on_c, 0, 74, 55
1, 1611500, Note_off_c, 0, 81, 54
1, 1611502, Note_off_c, 0, 69, 57
1, 1611502, Control_c, 0, 64, 72
1, 1611517, Note_off_c, 0, 74, 65
1, 1611517, Control_c, 0, 64, 73
1, 1611532, Control_c, 0, 64, 74
1, 1611570, Note_on_c, 0, 59, 76
1, 1611576, Control_c, 0, 64, 72
1, 1611578, Note_on_c, 0, 74, 85
1, 1611591, Control_c, 0, 64, 65
1, 1611605, Note_off_c, 0, 55, 61
1, 1611606, Control_c, 0, 64, 55
1, 1611621, Control_c, 0, 64, 46
1, 1611624, Note_off_c, 0, 60, 64
1, 1611636, Control_c, 0, 64, 42
1, 1611650, Control_c, 0, 64, 40
1, 1611684, Note_on_c, 0, 71, 66
1, 1611716, Note_off_c, 0, 71, 60
1, 1611751, Note_on_c, 0, 67, 65
1, 1611813, Control_c, 0, 64, 40
1, 1611818, Note_on_c, 0, 71, 68
1, 1611839, Note_off_c, 0, 67, 49
1, 1611846, Note_off_c, 0, 74, 58
1, 1611875, Note_off_c, 0, 71, 61
1, 1611893, Note_on_c, 0, 75, 78
1, 1611903, Note_off_c, 0, 59, 62
1, 1611906, Note_on_c, 0, 55, 59
1, 1611916, Note_on_c, 0, 48, 57
1, 1611985, Note_on_c, 0, 72, 62
1, 1612006, Control_c, 0, 64, 41
1, 1612027, Note_off_c, 0, 72, 52
1, 1612051, Control_c, 0, 64, 41
1, 1612065, Note_on_c, 0, 67, 62
1, 1612065, Control_c, 0, 64, 42
1, 1612125, Note_off_c, 0, 67, 43
1, 1612139, Note_on_c, 0, 72, 63
1, 1612187, Note_off_c, 0, 75, 56
1, 1612226, Note_off_c, 0, 72, 59
1, 1612246, Note_on_c, 0, 74, 58
1, 1612249, Note_on_c, 0, 54, 40
1, 1612250, Note_on_c, 0, 50, 47
1, 1612277, Note_off_c, 0, 48, 60
1, 1612277, Note_off_c, 0, 55, 36
1, 1612325, Control_c, 0, 64, 43
1, 1612340, Note_on_c, 0, 72, 55
1, 1612377, Note_off_c, 0, 72, 61
1, 1612384, Control_c, 0, 64, 43
1, 1612425, Note_on_c, 0, 69, 56
1, 1612444, Control_c, 0, 64, 44
1, 1612478, Note_off_c, 0, 69, 49
1, 1612483, Note_on_c, 0, 72, 59
1, 1612501, Note_off_c, 0, 74, 62
1, 1612503, Control_c, 0, 64, 44
1, 1612518, Control_c, 0, 64, 45
1, 1612533, Control_c, 0, 64, 47
1, 1612547, Control_c, 0, 64, 52
1, 1612562, Control_c, 0, 64, 59
1, 1612569, Note_on_c, 0, 57, 62
1, 1612574, Note_off_c, 0, 72, 61
1, 1612575, Note_on_c, 0, 74, 69
1, 1612577, Control_c, 0, 64, 65
1, 1612591, Control_c, 0, 64, 71
1, 1612601, Note_off_c, 0, 57, 65
1, 1612605, Note_off_c, 0, 50, 61
1, 1612606, Control_c, 0, 64, 78
1, 1612612, Note_off_c, 0, 54, 63
1, 1612621, Control_c, 0, 64, 84
1, 1612636, Control_c, 0, 64, 89
1, 1612651, Control_c, 0, 64, 93
1, 1612663, Note_on_c, 0, 72, 43
1, 1612667, Control_c, 0, 64, 96
1, 1612682, Control_c, 0, 64, 101
1, 1612696, Control_c, 0, 64, 107
1, 1612705, Note_off_c, 0, 72, 61
1, 1612711, Control_c, 0, 64, 118
1, 1612712, Note_on_c, 0, 66, 70
1, 1612726, Control_c, 0, 64, 127
1, 1612758, Note_off_c, 0, 74, 46
1, 1612803, Note_on_c, 0, 72, 61
1, 1612834, Note_off_c, 0, 66, 50
1, 1612891, Note_off_c, 0, 72, 58
1, 1612898, Note_on_c, 0, 74, 68
1, 1612916, Note_on_c, 0, 55, 66
1, 1612977, Control_c, 0, 64, 81
1, 1613000, Control_c, 0, 64, 63
1, 1613005, Note_on_c, 0, 71, 59
1, 1613014, Control_c, 0, 64, 52
1, 1613029, Control_c, 0, 64, 51
1, 1613044, Control_c, 0, 64, 56
1, 1613059, Control_c, 0, 64, 63
1, 1613074, Control_c, 0, 64, 73
1, 1613087, Note_off_c, 0, 71, 59
1, 1613088, Control_c, 0, 64, 95
1, 1613101, Note_on_c, 0, 67, 63
1, 1613103, Control_c, 0, 64, 127
1, 1613184, Note_on_c, 0, 71, 64
1, 1613219, Note_off_c, 0, 67, 39
1, 1613271, Note_off_c, 0, 71, 61
1, 1613276, Note_on_c, 0, 75, 81
1, 1613277, Note_off_c, 0, 74, 56
1, 1613294, Note_on_c, 0, 48, 68
1, 1613326, Control_c, 0, 64, 98
1, 1613340, Control_c, 0, 64, 74
1, 1613355, Control_c, 0, 64, 64
1, 1613370, Control_c, 0, 64, 62
1, 1613373, Note_on_c, 0, 72, 58
1, 1613385, Control_c, 0, 64, 66
1, 1613400, Control_c, 0, 64, 80
1, 1613414, Control_c, 0, 64, 114
1, 1613429, Control_c, 0, 64, 127
1, 1613429, Control_c, 0, 67, 121
1, 1613439, Note_off_c, 0, 72, 60
1, 1613444, Control_c, 0, 67, 109
1, 1613455, Note_on_c, 0, 67, 59
1, 1613459, Control_c, 0, 67, 100
1, 1613475, Control_c, 0, 67, 88
1, 1613490, Control_c, 0, 67, 70
1, 1613505, Control_c, 0, 67, 57
1, 1613515, Note_on_c, 0, 72, 68
1, 1613519, Control_c, 0, 67, 50
1, 1613522, Note_off_c, 0, 67, 60
1, 1613534, Control_c, 0, 67, 46
1, 1613549, Control_c, 0, 67, 39
1, 1613564, Control_c, 0, 67, 0
1, 1613598, Note_on_c, 0, 74, 85
1, 1613601, Note_off_c, 0, 72, 60
1, 1613614, Note_on_c, 0, 50, 61
1, 1613614, Note_on_c, 0, 54, 61
1, 1613637, Control_c, 0, 64, 96
1, 1613652, Control_c, 0, 64, 71
1, 1613667, Control_c, 0, 64, 58
1, 1613668, Note_off_c, 0, 55, 60
1, 1613669, Note_off_c, 0, 75, 57
1, 1613682, Control_c, 0, 64, 54
1, 1613687, Note_off_c, 0, 48, 61
1, 1613691, Note_on_c, 0, 72, 74
1, 1613697, Control_c, 0, 64, 60
1, 1613711, Control_c, 0, 64, 70
1, 1613726, Control_c, 0, 64, 91
1, 1613749, Control_c, 0, 64, 127
1, 1613772, Note_on_c, 0, 69, 67
1, 1613776, Note_off_c, 0, 72, 62
1, 1613841, Note_on_c, 0, 72, 61
1, 1613846, Note_off_c, 0, 74, 62
1, 1613867, Control_c, 0, 64, 88
1, 1613882, Control_c, 0, 64, 80
1, 1613884, Note_off_c, 0, 69, 52
1, 1613897, Control_c, 0, 64, 83
1, 1613912, Control_c, 0, 64, 111
1, 1613922, Note_on_c, 0, 74, 90
1, 1613924, Note_on_c, 0, 57, 69
1, 1613926, Control_c, 0, 64, 127
1, 1613936, Note_off_c, 0, 72, 61
1, 1613950, Note_off_c, 0, 57, 66
1, 1613963, Note_off_c, 0, 54, 63
1, 1613968, Note_off_c, 0, 50, 63
1, 1614003, Note_on_c, 0, 72, 57
1, 1614079, Note_off_c, 0, 72, 61
1, 1614087, Note_on_c, 0, 66, 65
1, 1614169, Note_on_c, 0, 72, 68
1, 1614171, Note_off_c, 0, 74, 60
1, 1614221, Note_off_c, 0, 66, 62
1, 1614350, Note_on_c, 0, 74, 84
1, 1614351, Note_off_c, 0, 72, 63
1, 1614358, Note_on_c, 0, 43, 53
1, 1614387, Control_c, 0, 64, 107
1, 1614402, Control_c, 0, 64, 74
1, 1614417, Control_c, 0, 64, 52
1, 1614432, Control_c, 0, 64, 35
1, 1614447, Control_c, 0, 64, 29
1, 1614461, Control_c, 0, 64, 31
1, 1614476, Control_c, 0, 64, 43
1, 1614482, Note_on_c, 0, 70, 70
1, 1614498, Control_c, 0, 64, 58
1, 1614513, Control_c, 0, 64, 68
1, 1614528, Control_c, 0, 64, 79
1, 1614542, Control_c, 0, 64, 90
1, 1614557, Control_c, 0, 64, 98
1, 1614572, Control_c, 0, 64, 116
1, 1614578, Note_off_c, 0, 70, 58
1, 1614587, Control_c, 0, 64, 127
1, 1614599, Note_on_c, 0, 67, 59
1, 1614668, Note_off_c, 0, 74, 64
1, 1614676, Note_off_c, 0, 67, 56
1, 1614678, Note_on_c, 0, 70, 69
1, 1614729, Note_off_c, 0, 70, 58
1, 1614743, Note_on_c, 0, 74, 91
1, 1614751, Note_on_c, 0, 46, 61
1, 1614765, Control_c, 0, 64, 98
1, 1614780, Control_c, 0, 64, 73
1, 1614794, Control_c, 0, 64, 61
1, 1614809, Control_c, 0, 64, 58
1, 1614823, Control_c, 0, 64, 62
1, 1614825, Note_on_c, 0, 70, 75
1, 1614833, Note_off_c, 0, 43, 57
1, 1614838, Control_c, 0, 64, 71
1, 1614853, Control_c, 0, 64, 91
1, 1614867, Control_c, 0, 64, 127
1, 1614884, Note_off_c, 0, 70, 61
1, 1614905, Note_on_c, 0, 65, 62
1, 1614964, Note_on_c, 0, 70, 77
1, 1614968, Note_off_c, 0, 74, 58
1, 1614995, Note_off_c, 0, 65, 58
1, 1615025, Note_off_c, 0, 70, 57
1, 1615049, Note_on_c, 0, 74, 94
1, 1615072, Note_on_c, 0, 50, 63
1, 1615076, Control_c, 0, 64, 84
1, 1615091, Control_c, 0, 64, 63
1, 1615106, Control_c, 0, 64, 47
1, 1615121, Control_c, 0, 64, 41
1, 1615135, Control_c, 0, 64, 46
1, 1615137, Note_on_c, 0, 69, 71
1, 1615150, Control_c, 0, 64, 59
1, 1615165, Control_c, 0, 64, 69
1, 1615168, Note_off_c, 0, 46, 59
1, 1615180, Control_c, 0, 64, 82
1, 1615192, Note_off_c, 0, 69, 53
1, 1615195, Control_c, 0, 64, 98
1, 1615209, Control_c, 0, 64, 110
1, 1615223, Note_on_c, 0, 65, 65
1, 1615224, Control_c, 0, 64, 127
1, 1615279, Note_off_c, 0, 65, 42
1, 1615295, Note_on_c, 0, 69, 76
1, 1615339, Note_off_c, 0, 69, 58
1, 1615343, Note_off_c, 0, 74, 49
1, 1615371, Note_on_c, 0, 72, 89
1, 1615380, Control_c, 0, 64, 77
1, 1615394, Note_on_c, 0, 53, 63
1, 1615395, Control_c, 0, 64, 55
1, 1615405, Note_off_c, 0, 50, 62
1, 1615410, Control_c, 0, 64, 36
1, 1615424, Control_c, 0, 64, 35
1, 1615439, Control_c, 0, 64, 49
1, 1615454, Control_c, 0, 64, 64
1, 1615459, Note_on_c, 0, 69, 72
1, 1615469, Control_c, 0, 64, 78
1, 1615484, Control_c, 0, 64, 102
1, 1615498, Control_c, 0, 64, 127
1, 1615524, Note_off_c, 0, 69, 60
1, 1615542, Note_on_c, 0, 65, 65
1, 1615607, Note_on_c, 0, 69, 77
1, 1615610, Note_off_c, 0, 65, 35
1, 1615621, Note_off_c, 0, 72, 60
1, 1615658, Note_off_c, 0, 69, 62
1, 1615661, Control_c, 0, 67, 42
1, 1615676, Control_c, 0, 67, 61
1, 1615685, Note_on_c, 0, 72, 81
1, 1615690, Control_c, 0, 64, 111
1, 1615690, Control_c, 0, 67, 68
1, 1615698, Note_on_c, 0, 41, 65
1, 1615705, Control_c, 0, 64, 78
1, 1615705, Control_c, 0, 67, 76
1, 1615720, Control_c, 0, 64, 58
1, 1615720, Control_c, 0, 67, 92
1, 1615733, Note_off_c, 0, 53, 38
1, 1615735, Control_c, 0, 64, 0
1, 1615735, Control_c, 0, 67, 117
1, 1615749, Control_c, 0, 67, 127
1, 1615778, Note_on_c, 0, 68, 64
1, 1615809, Control_c, 0, 64, 40
1, 1615824, Control_c, 0, 64, 60
1, 1615827, Note_off_c, 0, 68, 58
1, 1615839, Control_c, 0, 64, 76
1, 1615854, Control_c, 0, 64, 92
1, 1615857, Note_on_c, 0, 65, 59
1, 1615869, Control_c, 0, 64, 108
1, 1615884, Control_c, 0, 64, 121
1, 1615899, Control_c, 0, 64, 127
1, 1615926, Note_off_c, 0, 72, 62
1, 1615931, Note_on_c, 0, 68, 70
1, 1615954, Note_off_c, 0, 65, 29
1, 1615995, Control_c, 0, 64, 80
1, 1615998, Note_off_c, 0, 68, 62
1, 1616004, Note_on_c, 0, 72, 77
1, 1616006, Note_on_c, 0, 44, 61
1, 1616010, Control_c, 0, 64, 63
1, 1616019, Note_off_c, 0, 41, 59
1, 1616025, Control_c, 0, 64, 56
1, 1616039, Control_c, 0, 64, 58
1, 1616054, Control_c, 0, 64, 66
1, 1616069, Control_c, 0, 64, 76
1, 1616084, Control_c, 0, 64, 95
1, 1616099, Control_c, 0, 64, 127
1, 1616101, Note_on_c, 0, 68, 61
1, 1616149, Note_off_c, 0, 68, 54
1, 1616171, Note_on_c, 0, 63, 65
1, 1616216, Note_off_c, 0, 72, 57
1, 1616241, Note_on_c, 0, 68, 56
1, 1616260, Note_off_c, 0, 63, 31
1, 1616310, Note_on_c, 0, 48, 63
1, 1616311, Note_on_c, 0, 72, 79
1, 1616316, Note_off_c, 0, 68, 56
1, 1616323, Note_off_c, 0, 44, 60
1, 1616336, Control_c, 0, 64, 93
1, 1616351, Control_c, 0, 64, 67
1, 1616365, Control_c, 0, 64, 56
1, 1616380, Control_c, 0, 64, 52
1, 1616395, Control_c, 0, 64, 53
1, 1616410, Control_c, 0, 64, 58
1, 1616417, Note_on_c, 0, 67, 48
1, 1616425, Control_c, 0, 64, 64
1, 1616439, Control_c, 0, 64, 71
1, 1616454, Control_c, 0, 64, 85
1, 1616459, Note_off_c, 0, 67, 49
1, 1616469, Control_c, 0, 64, 99
1, 1616484, Control_c, 0, 64, 105
1, 1616491, Note_on_c, 0, 63, 56
1, 1616499, Control_c, 0, 64, 109
1, 1616513, Control_c, 0, 64, 116
1, 1616528, Note_off_c, 0, 63, 49
1, 1616528, Control_c, 0, 64, 127
1, 1616555, Note_on_c, 0, 67, 56
1, 1616556, Note_off_c, 0, 72, 55
1, 1616587, Control_c, 0, 64, 94
1, 1616602, Control_c, 0, 64, 70
1, 1616617, Control_c, 0, 64, 53
1, 1616621, Note_off_c, 0, 67, 43
1, 1616626, Note_off_c, 0, 48, 60
1, 1616632, Control_c, 0, 64, 41
1, 1616632, Note_on_c, 0, 51, 50
1, 1616635, Note_on_c, 0, 70, 69
1, 1616647, Control_c, 0, 64, 39
1, 1616662, Control_c, 0, 64, 48
1, 1616677, Control_c, 0, 64, 59
1, 1616692, Control_c, 0, 64, 69
1, 1616707, Control_c, 0, 64, 81
1, 1616722, Control_c, 0, 64, 93
1, 1616742, Note_on_c, 0, 67, 54
1, 1616744, Control_c, 0, 64, 101
1, 1616759, Control_c, 0, 64, 113
1, 1616774, Control_c, 0, 64, 127
1, 1616797, Note_off_c, 0, 67, 51
1, 1616814, Note_on_c, 0, 63, 60
1, 1616850, Note_off_c, 0, 70, 53
1, 1616890, Note_off_c, 0, 63, 53
1, 1616915, Note_off_c, 0, 51, 52
1, 1616927, Note_on_c, 0, 67, 24
1, 1616951, Control_c, 0, 64, 100
1, 1616963, Note_on_c, 0, 70, 67
1, 1616966, Control_c, 0, 64, 69
1, 1616973, Note_off_c, 0, 67, 47
1, 1616981, Control_c, 0, 64, 57
1, 1616987, Note_on_c, 0, 39, 53
1, 1616996, Control_c, 0, 64, 56
1, 1617010, Control_c, 0, 64, 61
1, 1617025, Control_c, 0, 64, 69
1, 1617040, Control_c, 0, 64, 84
1, 1617055, Control_c, 0, 64, 114
1, 1617070, Control_c, 0, 64, 127
1, 1617073, Note_on_c, 0, 67, 50
1, 1617081, Note_off_c, 0, 70, 39
1, 1617105, Note_off_c, 0, 67, 55
1, 1617124, Note_on_c, 0, 63, 61
1, 1617195, Note_on_c, 0, 67, 58
1, 1617215, Note_off_c, 0, 63, 52
1, 1617252, Note_off_c, 0, 67, 50
1, 1617267, Note_on_c, 0, 70, 73
1, 1617277, Control_c, 0, 64, 100
1, 1617279, Note_on_c, 0, 43, 54
1, 1617292, Control_c, 0, 64, 76
1, 1617306, Control_c, 0, 64, 67
1, 1617321, Control_c, 0, 64, 66
1, 1617336, Control_c, 0, 64, 72
1, 1617351, Control_c, 0, 64, 85
1, 1617366, Control_c, 0, 64, 127
1, 1617389, Note_on_c, 0, 67, 24
1, 1617417, Note_off_c, 0, 39, 25
1, 1617421, Note_on_c, 0, 62, 65
1, 1617432, Note_off_c, 0, 67, 53
1, 1617462, Note_off_c, 0, 70, 36
1, 1617499, Note_off_c, 0, 62, 47
1, 1617526, Note_on_c, 0, 67, 49
1, 1617553, Note_off_c, 0, 67, 57
1, 1617576, Note_on_c, 0, 70, 75
1, 1617582, Control_c, 0, 64, 75
1, 1617597, Control_c, 0, 64, 57
1, 1617608, Note_on_c, 0, 46, 48
1, 1617611, Control_c, 0, 64, 47
1, 1617626, Control_c, 0, 64, 49
1, 1617641, Control_c, 0, 64, 58
1, 1617656, Control_c, 0, 64, 67
1, 1617666, Note_on_c, 0, 65, 68
1, 1617671, Control_c, 0, 64, 83
1, 1617683, Note_off_c, 0, 70, 55
1, 1617685, Control_c, 0, 64, 127
1, 1617723, Note_off_c, 0, 65, 60
1, 1617736, Note_on_c, 0, 62, 67
1, 1617806, Note_off_c, 0, 62, 58
1, 1617814, Note_on_c, 0, 65, 52
1, 1617864, Note_off_c, 0, 65, 60
1, 1617876, Note_on_c, 0, 69, 72
1, 1617886, Note_off_c, 0, 43, 12
1, 1617887, Note_off_c, 0, 46, 60
1, 1617889, Note_on_c, 0, 50, 60
1, 1617892, Control_c, 0, 64, 120
1, 1617907, Control_c, 0, 64, 77
1, 1617922, Control_c, 0, 64, 61
1, 1617936, Control_c, 0, 64, 55
1, 1617951, Control_c, 0, 64, 59
1, 1617952, Note_on_c, 0, 65, 73
1, 1617966, Control_c, 0, 64, 66
1, 1617981, Control_c, 0, 64, 85
1, 1617995, Note_off_c, 0, 65, 60
1, 1617996, Control_c, 0, 64, 127
1, 1618045, Note_on_c, 0, 62, 55
1, 1618078, Note_off_c, 0, 69, 60
1, 1618089, Note_on_c, 0, 65, 63
1, 1618131, Note_off_c, 0, 62, 58
1, 1618139, Note_off_c, 0, 65, 49
1, 1618167, Note_off_c, 0, 50, 60
1, 1618186, Note_on_c, 0, 69, 74
1, 1618188, Control_c, 0, 64, 74
1, 1618203, Control_c, 0, 64, 53
1, 1618212, Note_on_c, 0, 41, 56
1, 1618218, Control_c, 0, 64, 35
1, 1618240, Control_c, 0, 64, 38
1, 1618255, Control_c, 0, 64, 50
1, 1618262, Note_on_c, 0, 65, 75
1, 1618271, Control_c, 0, 64, 64
1, 1618286, Control_c, 0, 64, 79
1, 1618299, Note_off_c, 0, 69, 58
1, 1618301, Control_c, 0, 64, 127
1, 1618336, Note_on_c, 0, 60, 75
1, 1618343, Note_off_c, 0, 65, 62
1, 1618385, Note_off_c, 0, 60, 64
1, 1618414, Note_on_c, 0, 64, 78
1, 1618447, Note_off_c, 0, 64, 63
1, 1618519, Note_on_c, 0, 77, 88
1, 1618559, Note_on_c, 0, 39, 63
1, 1618566, Control_c, 0, 64, 101
1, 1618581, Control_c, 0, 64, 73
1, 1618596, Control_c, 0, 64, 52
1, 1618608, Note_off_c, 0, 41, 61
1, 1618611, Control_c, 0, 64, 0
1, 1618627, Note_on_c, 0, 72, 54
1, 1618662, Note_on_c, 0, 71, 27
1, 1618686, Control_c, 0, 64, 46
1, 1618689, Note_off_c, 0, 72, 63
1, 1618700, Control_c, 0, 64, 64
1, 1618701, Note_off_c, 0, 71, 30
1, 1618715, Control_c, 0, 64, 74
1, 1618718, Note_on_c, 0, 69, 60
1, 1618730, Control_c, 0, 64, 89
1, 1618745, Control_c, 0, 64, 127
1, 1618776, Note_on_c, 0, 72, 68
1, 1618792, Note_off_c, 0, 69, 58
1, 1618793, Note_off_c, 0, 77, 59
1, 1618814, Note_off_c, 0, 72, 55
1, 1618863, Control_c, 0, 64, 96
1, 1618871, Note_on_c, 0, 77, 69
1, 1618878, Control_c, 0, 64, 68
1, 1618885, Note_on_c, 0, 38, 60
1, 1618893, Control_c, 0, 64, 51
1, 1618897, Note_off_c, 0, 39, 62
1, 1618907, Control_c, 0, 64, 44
1, 1618922, Control_c, 0, 64, 47
1, 1618937, Control_c, 0, 64, 57
1, 1618951, Control_c, 0, 64, 66
1, 1618966, Control_c, 0, 64, 75
1, 1618989, Control_c, 0, 64, 85
1, 1618990, Note_on_c, 0, 74, 61
1, 1619004, Control_c, 0, 64, 90
1, 1619019, Control_c, 0, 64, 93
1, 1619033, Control_c, 0, 64, 95
1, 1619048, Control_c, 0, 64, 91
1, 1619049, Note_off_c, 0, 74, 61
1, 1619064, Control_c, 0, 64, 80
1, 1619079, Note_on_c, 0, 70, 57
1, 1619079, Control_c, 0, 64, 69
1, 1619094, Control_c, 0, 64, 61
1, 1619109, Control_c, 0, 64, 60
1, 1619124, Control_c, 0, 64, 65
1, 1619127, Note_off_c, 0, 70, 42
1, 1619136, Note_on_c, 0, 74, 72
1, 1619138, Control_c, 0, 64, 74
1, 1619151, Note_off_c, 0, 77, 63
1, 1619153, Control_c, 0, 64, 88
1, 1619168, Control_c, 0, 64, 105
1, 1619182, Control_c, 0, 64, 120
1, 1619197, Control_c, 0, 64, 127
1, 1619227, Note_off_c, 0, 74, 62
1, 1619256, Note_on_c, 0, 77, 58
1, 1619258, Note_off_c, 0, 38, 60
1, 1619272, Note_on_c, 0, 36, 43
1, 1619316, Control_c, 0, 64, 93
1, 1619330, Control_c, 0, 64, 69
1, 1619345, Control_c, 0, 64, 48
1, 1619360, Control_c, 0, 64, 0
1, 1619384, Note_on_c, 0, 75, 46
1, 1619389, Control_c, 0, 64, 31
1, 1619404, Control_c, 0, 64, 45
1, 1619419, Control_c, 0, 64, 63
1, 1619434, Note_off_c, 0, 75, 62
1, 1619434, Control_c, 0, 64, 73
1, 1619449, Control_c, 0, 64, 87
1, 1619464, Control_c, 0, 64, 107
1, 1619479, Control_c, 0, 64, 127
1, 1619482, Note_on_c, 0, 69, 36
1, 1619567, Note_on_c, 0, 75, 63
1, 1619568, Control_c, 0, 64, 114
1, 1619582, Control_c, 0, 64, 81
1, 1619589, Note_off_c, 0, 77, 61
1, 1619597, Control_c, 0, 64, 68
1, 1619612, Control_c, 0, 64, 64
1, 1619627, Control_c, 0, 64, 68
1, 1619632, Note_off_c, 0, 36, 63
1, 1619642, Control_c, 0, 64, 78
1, 1619656, Control_c, 0, 64, 102
1, 1619671, Control_c, 0, 64, 127
1, 1619687, Note_off_c, 0, 69, 36
1, 1619748, Note_on_c, 0, 77, 64
1, 1619750, Note_off_c, 0, 75, 63
1, 1619842, Control_c, 0, 64, 99
1, 1619857, Control_c, 0, 64, 73
1, 1619872, Control_c, 0, 64, 56
1, 1619884, Note_on_c, 0, 74, 58
1, 1619887, Control_c, 0, 64, 35
1, 1619902, Control_c, 0, 64, 0
1, 1619984, Note_on_c, 0, 34, 53
1, 1619984, Note_off_c, 0, 74, 57
1, 1619998, Note_on_c, 0, 70, 41
1, 1620015, Note_off_c, 0, 34, 56
1, 1620082, Note_off_c, 0, 70, 57
1, 1620096, Note_on_c, 0, 74, 60
1, 1620153, Control_c, 0, 64, 34
1, 1620168, Control_c, 0, 64, 53
1, 1620183, Control_c, 0, 64, 62
1, 1620184, Note_on_c, 0, 82, 74
1, 1620185, Note_off_c, 0, 77, 64
1, 1620190, Note_off_c, 0, 74, 60
1, 1620198, Control_c, 0, 64, 63
1, 1620212, Control_c, 0, 64, 63
1, 1620227, Control_c, 0, 64, 64
1, 1620257, Control_c, 0, 64, 63
1, 1620272, Control_c, 0, 64, 58
1, 1620286, Control_c, 0, 64, 44
1, 1620301, Control_c, 0, 64, 0
1, 1620334, Note_on_c, 0, 74, 15
1, 1620342, Note_on_c, 0, 46, 47
1, 1620343, Note_on_c, 0, 70, 56
1, 1620346, Control_c, 0, 64, 43
1, 1620361, Control_c, 0, 64, 60
1, 1620370, Note_off_c, 0, 46, 59
1, 1620376, Control_c, 0, 64, 72
1, 1620381, Note_off_c, 0, 74, 37
1, 1620391, Control_c, 0, 64, 84
1, 1620401, Note_off_c, 0, 70, 51
1, 1620405, Control_c, 0, 64, 96
1, 1620420, Control_c, 0, 64, 104
1, 1620435, Control_c, 0, 64, 115
1, 1620442, Note_off_c, 0, 82, 60
1, 1620450, Control_c, 0, 64, 118
1, 1620465, Control_c, 0, 64, 111
1, 1620486, Control_c, 0, 64, 84
1, 1620501, Control_c, 0, 64, 61
1, 1620516, Control_c, 0, 64, 0
1, 1620522, Poly_aftertouch_c, 0, 74, 0
1, 1620523, Note_on_c, 0, 81, 69
1, 1620535, Note_on_c, 0, 77, 67
1, 1620682, Note_on_c, 0, 50, 57
1, 1620697, Note_on_c, 0, 69, 43
1, 1620705, Note_off_c, 0, 50, 61
1, 1620725, Control_c, 0, 64, 29
1, 1620737, Note_off_c, 0, 69, 46
1, 1620740, Control_c, 0, 64, 42
1, 1620747, Note_off_c, 0, 81, 58
1, 1620754, Control_c, 0, 64, 41
1, 1620763, Note_on_c, 0, 74, 67
1, 1620769, Control_c, 0, 64, 39
1, 1620773, Note_off_c, 0, 77, 62
1, 1620784, Control_c, 0, 64, 39
1, 1620790, Note_off_c, 0, 74, 67
1, 1620799, Control_c, 0, 64, 41
1, 1620814, Control_c, 0, 64, 45
1, 1620828, Control_c, 0, 64, 44
1, 1620842, Note_on_c, 0, 79, 75
1, 1620843, Control_c, 0, 64, 32
1, 1620858, Control_c, 0, 64, 0
1, 1620864, Note_on_c, 0, 75, 55
1, 1620902, Control_c, 0, 64, 39
1, 1620917, Control_c, 0, 64, 55
1, 1620932, Control_c, 0, 64, 65
1, 1620947, Control_c, 0, 64, 71
1, 1620961, Control_c, 0, 64, 76
1, 1620967, Note_on_c, 0, 70, 51
1, 1620976, Control_c, 0, 64, 79
1, 1620991, Control_c, 0, 64, 82
1, 1620992, Note_off_c, 0, 70, 60
1, 1620998, Note_on_c, 0, 51, 59
1, 1621006, Control_c, 0, 64, 86
1, 1621021, Control_c, 0, 64, 91
1, 1621029, Note_off_c, 0, 51, 63
1, 1621035, Control_c, 0, 64, 97
1, 1621050, Control_c, 0, 64, 103
1, 1621065, Control_c, 0, 64, 108
1, 1621073, Note_on_c, 0, 70, 67
1, 1621075, Note_off_c, 0, 79, 59
1, 1621095, Control_c, 0, 64, 99
1, 1621097, Note_off_c, 0, 75, 64
1, 1621100, Poly_aftertouch_c, 0, 67, 127
1, 1621109, Control_c, 0, 64, 77
1, 1621113, Note_off_c, 0, 70, 61
1, 1621124, Control_c, 0, 64, 58
1, 1621134, Poly_aftertouch_c, 0, 67, 0
1, 1621139, Control_c, 0, 64, 28
1, 1621154, Control_c, 0, 64, 0
1, 1621170, Note_on_c, 0, 79, 72
1, 1621191, Note_on_c, 0, 74, 62
1, 1621288, Note_on_c, 0, 70, 46
1, 1621294, Control_c, 0, 64, 33
1, 1621309, Control_c, 0, 64, 52
1, 1621324, Control_c, 0, 64, 65
1, 1621330, Note_on_c, 0, 55, 59
1, 1621333, Note_off_c, 0, 70, 61
1, 1621339, Control_c, 0, 64, 75
1, 1621348, Note_on_c, 0, 67, 49
1, 1621354, Control_c, 0, 64, 95
1, 1621359, Note_off_c, 0, 55, 64
1, 1621369, Control_c, 0, 64, 127
1, 1621385, Note_off_c, 0, 79, 60
1, 1621408, Note_off_c, 0, 74, 61
1, 1621416, Note_off_c, 0, 67, 34
1, 1621417, Note_on_c, 0, 70, 61
1, 1621444, Note_off_c, 0, 70, 68
1, 1621473, Control_c, 0, 64, 81
1, 1621487, Note_on_c, 0, 77, 70
1, 1621488, Control_c, 0, 64, 61
1, 1621500, Note_on_c, 0, 74, 68
1, 1621503, Control_c, 0, 64, 41
1, 1621518, Control_c, 0, 64, 34
1, 1621532, Control_c, 0, 64, 39
1, 1621547, Control_c, 0, 64, 52
1, 1621562, Control_c, 0, 64, 63
1, 1621564, Note_on_c, 0, 70, 59
1, 1621577, Control_c, 0, 64, 69
1, 1621592, Control_c, 0, 64, 75
1, 1621607, Control_c, 0, 64, 79
1, 1621609, Note_off_c, 0, 70, 57
1, 1621622, Control_c, 0, 64, 81
1, 1621637, Control_c, 0, 64, 83
1, 1621644, Note_on_c, 0, 65, 45
1, 1621651, Control_c, 0, 64, 86
1, 1621661, Note_on_c, 0, 58, 58
1, 1621666, Control_c, 0, 64, 87
1, 1621681, Control_c, 0, 64, 87
1, 1621683, Note_off_c, 0, 58, 64
1, 1621693, Note_off_c, 0, 65, 41
1, 1621696, Control_c, 0, 64, 81
1, 1621704, Note_on_c, 0, 70, 66
1, 1621708, Note_off_c, 0, 77, 58
1, 1621711, Control_c, 0, 64, 68
1, 1621721, Note_off_c, 0, 74, 62
1, 1621725, Control_c, 0, 64, 51
1, 1621737, Note_off_c, 0, 70, 61
1, 1621740, Control_c, 0, 64, 34
1, 1621755, Control_c, 0, 64, 32
1, 1621769, Control_c, 0, 64, 42
1, 1621784, Control_c, 0, 64, 57
1, 1621788, Note_on_c, 0, 77, 77
1, 1621791, Note_on_c, 0, 74, 67
1, 1621799, Control_c, 0, 64, 68
1, 1621814, Control_c, 0, 64, 80
1, 1621829, Control_c, 0, 64, 96
1, 1621844, Control_c, 0, 64, 111
1, 1621858, Control_c, 0, 64, 127
1, 1621872, Note_on_c, 0, 69, 70
1, 1621900, Note_off_c, 0, 69, 60
1, 1621947, Note_on_c, 0, 65, 72
1, 1621956, Note_on_c, 0, 62, 57
1, 1621985, Note_off_c, 0, 62, 62
1, 1621986, Note_off_c, 0, 77, 62
1, 1621999, Control_c, 0, 64, 120
1, 1622000, Note_off_c, 0, 74, 63
1, 1622014, Control_c, 0, 64, 77
1, 1622015, Note_off_c, 0, 65, 50
1, 1622020, Note_on_c, 0, 69, 59
1, 1622029, Control_c, 0, 64, 59
1, 1622044, Control_c, 0, 64, 48
1, 1622058, Control_c, 0, 64, 54
1, 1622073, Control_c, 0, 64, 69
1, 1622085, Note_off_c, 0, 69, 60
1, 1622087, Note_on_c, 0, 72, 66
1, 1622088, Control_c, 0, 64, 98
1, 1622096, Note_on_c, 0, 75, 71
1, 1622102, Control_c, 0, 64, 127
1, 1622194, Note_on_c, 0, 69, 60
1, 1622254, Note_on_c, 0, 41, 61
1, 1622254, Note_off_c, 0, 69, 60
1, 1622257, Note_on_c, 0, 63, 60
1, 1622281, Note_off_c, 0, 41, 65
1, 1622296, Control_c, 0, 64, 79
1, 1622304, Note_off_c, 0, 75, 61
1, 1622311, Note_on_c, 0, 69, 63
1, 1622311, Control_c, 0, 64, 59
1, 1622318, Note_off_c, 0, 72, 62
1, 1622325, Control_c, 0, 64, 44
1, 1622340, Control_c, 0, 64, 45
1, 1622346, Note_off_c, 0, 69, 65
1, 1622349, Note_off_c, 0, 63, 57
1, 1622355, Control_c, 0, 64, 57
1, 1622370, Control_c, 0, 64, 73
1, 1622385, Control_c, 0, 64, 108
1, 1622390, Note_on_c, 0, 75, 88
1, 1622400, Control_c, 0, 64, 127
1, 1622412, Note_on_c, 0, 70, 75
1, 1622488, Note_on_c, 0, 67, 57
1, 1622489, Control_c, 0, 64, 102
1, 1622504, Control_c, 0, 64, 70
1, 1622518, Control_c, 0, 64, 49
1, 1622533, Control_c, 0, 64, 34
1, 1622540, Note_off_c, 0, 67, 53
1, 1622548, Control_c, 0, 64, 35
1, 1622563, Control_c, 0, 64, 47
1, 1622566, Note_on_c, 0, 63, 59
1, 1622573, Note_on_c, 0, 43, 53
1, 1622578, Control_c, 0, 64, 64
1, 1622592, Control_c, 0, 64, 81
1, 1622598, Note_off_c, 0, 43, 57
1, 1622607, Control_c, 0, 64, 127
1, 1622623, Note_off_c, 0, 75, 63
1, 1622638, Note_off_c, 0, 63, 57
1, 1622642, Note_on_c, 0, 67, 52
1, 1622642, Note_off_c, 0, 70, 62
1, 1622665, Note_off_c, 0, 67, 59
1, 1622709, Note_on_c, 0, 70, 71
1, 1622709, Note_on_c, 0, 74, 80
1, 1622711, Control_c, 0, 64, 99
1, 1622733, Control_c, 0, 64, 70
1, 1622748, Control_c, 0, 64, 53
1, 1622763, Control_c, 0, 64, 46
1, 1622778, Control_c, 0, 64, 55
1, 1622793, Control_c, 0, 64, 67
1, 1622807, Control_c, 0, 64, 87
1, 1622822, Control_c, 0, 64, 127
1, 1622853, Poly_aftertouch_c, 0, 67, 127
1, 1622874, Note_on_c, 0, 62, 60
1, 1622900, Note_on_c, 0, 46, 43
1, 1622925, Poly_aftertouch_c, 0, 67, 0
1, 1622932, Note_off_c, 0, 46, 49
1, 1622932, Note_off_c, 0, 70, 58
1, 1622944, Note_off_c, 0, 74, 60
1, 1622951, Note_off_c, 0, 62, 59
1, 1622962, Poly_aftertouch_c, 0, 67, 127
1, 1622985, Control_c, 0, 64, 81
1, 1622999, Control_c, 0, 64, 56
1, 1623008, Poly_aftertouch_c, 0, 67, 0
1, 1623014, Control_c, 0, 64, 0
1, 1623032, Note_on_c, 0, 74, 62
1, 1623041, Note_on_c, 0, 69, 61
1, 1623060, Control_c, 0, 64, 47
1, 1623075, Control_c, 0, 64, 66
1, 1623090, Control_c, 0, 64, 88
1, 1623104, Control_c, 0, 64, 127
1, 1623130, Note_off_c, 0, 69, 55
1, 1623132, Note_on_c, 0, 66, 51
1, 1623154, Note_off_c, 0, 66, 62
1, 1623181, Note_on_c, 0, 62, 51
1, 1623193, Note_on_c, 0, 50, 23
1, 1623224, Note_off_c, 0, 62, 49
1, 1623235, Note_off_c, 0, 50, 55
1, 1623239, Note_on_c, 0, 66, 63
1, 1623267, Control_c, 0, 64, 83
1, 1623282, Control_c, 0, 64, 61
1, 1623283, Note_off_c, 0, 66, 59
1, 1623297, Control_c, 0, 64, 29
1, 1623312, Control_c, 0, 64, 0
1, 1623324, Note_off_c, 0, 74, 57
1, 1623329, Note_on_c, 0, 72, 75
1, 1623416, Note_on_c, 0, 69, 56
1, 1623452, Note_off_c, 0, 69, 62
1, 1623482, Note_on_c, 0, 54, 62
1, 1623490, Note_on_c, 0, 62, 54
1, 1623505, Note_off_c, 0, 54, 65
1, 1623556, Note_off_c, 0, 72, 60
1, 1623559, Note_on_c, 0, 69, 57
1, 1623563, Note_off_c, 0, 62, 58
1, 1623613, Note_off_c, 0, 69, 56
1, 1623625, Note_on_c, 0, 72, 68
1, 1623711, Note_on_c, 0, 67, 62
1, 1623744, Note_off_c, 0, 67, 60
1, 1623785, Note_on_c, 0, 62, 57
1, 1623786, Note_on_c, 0, 55, 46
1, 1623821, Note_off_c, 0, 55, 64
1, 1623831, Note_off_c, 0, 62, 55
1, 1623858, Note_on_c, 0, 67, 49
1, 1623904, Note_off_c, 0, 67, 60
1, 1623947, Note_off_c, 0, 72, 58
1, 1623949, Note_on_c, 0, 71, 60
1, 1624034, Note_on_c, 0, 67, 51
1, 1624045, Note_on_c, 0, 59, 54
1, 1624081, Note_off_c, 0, 67, 60
1, 1624087, Note_off_c, 0, 59, 58
1, 1624130, Note_on_c, 0, 62, 41
1, 1624179, Note_off_c, 0, 62, 48
1, 1624241, Note_on_c, 0, 67, 25
1, 1624283, Note_off_c, 0, 71, 56
1, 1624293, Note_off_c, 0, 67, 46
1, 1624299, Note_on_c, 0, 48, 51
1, 1624310, Note_on_c, 0, 69, 45
1, 1624400, Note_off_c, 0, 48, 60
1, 1624409, Control_c, 0, 64, 31
1, 1624417, Note_on_c, 0, 67, 41
1, 1624424, Control_c, 0, 64, 41
1, 1624439, Control_c, 0, 64, 51
1, 1624454, Control_c, 0, 64, 54
1, 1624470, Note_off_c, 0, 67, 59
1, 1624484, Control_c, 0, 64, 54
1, 1624498, Control_c, 0, 64, 55
1, 1624508, Note_on_c, 0, 64, 44
1, 1624513, Control_c, 0, 64, 57
1, 1624528, Control_c, 0, 64, 59
1, 1624580, Note_off_c, 0, 64, 46
1, 1624602, Control_c, 0, 64, 60
1, 1624603, Note_on_c, 0, 67, 43
1, 1624662, Control_c, 0, 64, 60
1, 1624677, Control_c, 0, 64, 61
1, 1624692, Control_c, 0, 64, 61
1, 1624699, Note_off_c, 0, 69, 51
1, 1624707, Control_c, 0, 64, 62
1, 1624707, Note_off_c, 0, 67, 61
1, 1624721, Note_on_c, 0, 71, 50
1, 1624749, Note_on_c, 0, 50, 43
1, 1624751, Control_c, 0, 64, 61
1, 1624766, Control_c, 0, 64, 58
1, 1624781, Control_c, 0, 64, 53
1, 1624795, Control_c, 0, 64, 51
1, 1624825, Control_c, 0, 64, 54
1, 1624840, Control_c, 0, 64, 58
1, 1624855, Control_c, 0, 64, 63
1, 1624869, Control_c, 0, 64, 66
1, 1624879, Note_on_c, 0, 66, 47
1, 1624884, Control_c, 0, 64, 69
1, 1624899, Control_c, 0, 64, 70
1, 1624914, Control_c, 0, 64, 70
1, 1624928, Control_c, 0, 64, 72
1, 1624943, Control_c, 0, 64, 73
1, 1624954, Note_off_c, 0, 66, 60
1, 1624958, Control_c, 0, 64, 75
1, 1624959, Note_off_c, 0, 50, 60
1, 1624981, Control_c, 0, 64, 77
1, 1624996, Control_c, 0, 64, 78
1, 1625009, Note_on_c, 0, 62, 44
1, 1625010, Control_c, 0, 64, 79
1, 1625025, Control_c, 0, 64, 80
1, 1625040, Control_c, 0, 64, 80
1, 1625070, Control_c, 0, 64, 81
1, 1625084, Control_c, 0, 64, 81
1, 1625099, Control_c, 0, 64, 82
1, 1625143, Control_c, 0, 64, 82
1, 1625146, Note_on_c, 0, 66, 40
1, 1625155, Note_off_c, 0, 62, 34
1, 1625241, Note_off_c, 0, 66, 46
1, 1625306, Note_on_c, 0, 67, 54
1, 1625394, Control_c, 0, 64, 80
1, 1625409, Control_c, 0, 64, 75
1, 1625424, Control_c, 0, 64, 66
1, 1625439, Control_c, 0, 64, 58
1, 1625446, Note_off_c, 0, 71, 25
1, 1625449, Note_on_c, 0, 62, 36
1, 1625455, Control_c, 0, 64, 55
1, 1625470, Control_c, 0, 64, 56
1, 1625485, Control_c, 0, 64, 58
1, 1625497, Note_off_c, 0, 62, 51
1, 1625499, Control_c, 0, 64, 62
1, 1625514, Control_c, 0, 64, 68
1, 1625529, Control_c, 0, 64, 75
1, 1625534, Note_on_c, 0, 55, 42
1, 1625543, Control_c, 0, 64, 84
1, 1625544, Note_on_c, 0, 59, 48
1, 1625558, Control_c, 0, 64, 89
1, 1625573, Control_c, 0, 64, 92
1, 1625588, Control_c, 0, 64, 95
1, 1625603, Control_c, 0, 64, 98
1, 1625617, Control_c, 0, 64, 103
1, 1625632, Control_c, 0, 64, 112
1, 1625647, Control_c, 0, 64, 127
1, 1625648, Note_on_c, 0, 62, 48
1, 1625652, Note_off_c, 0, 59, 57
1, 1625665, Note_off_c, 0, 55, 60
1, 1625703, Note_off_c, 0, 62, 56
1, 1625759, Note_on_c, 0, 69, 66
1, 1625762, Note_off_c, 0, 67, 60
1, 1625847, Control_c, 0, 64, 86
1, 1625855, Note_on_c, 0, 64, 56
1, 1625862, Control_c, 0, 64, 67
1, 1625876, Control_c, 0, 64, 59
1, 1625889, Note_off_c, 0, 64, 65
1, 1625891, Control_c, 0, 64, 59
1, 1625906, Control_c, 0, 64, 63
1, 1625907, Note_on_c, 0, 48, 57
1, 1625921, Control_c, 0, 64, 69
1, 1625936, Control_c, 0, 64, 80
1, 1625937, Note_on_c, 0, 60, 42
1, 1625950, Control_c, 0, 64, 95
1, 1625965, Control_c, 0, 64, 99
1, 1625992, Note_on_c, 0, 64, 51
1, 1625995, Control_c, 0, 64, 101
1, 1625998, Note_off_c, 0, 48, 50
1, 1625998, Note_off_c, 0, 60, 44
1, 1626010, Control_c, 0, 64, 103
1, 1626025, Control_c, 0, 64, 107
1, 1626040, Control_c, 0, 64, 114
1, 1626049, Note_off_c, 0, 64, 62
1, 1626054, Control_c, 0, 64, 127
1, 1626070, Note_on_c, 0, 71, 76
1, 1626084, Control_c, 0, 64, 113
1, 1626099, Note_off_c, 0, 69, 54
1, 1626099, Control_c, 0, 64, 88
1, 1626114, Control_c, 0, 64, 70
1, 1626129, Control_c, 0, 64, 58
1, 1626143, Control_c, 0, 64, 52
1, 1626158, Note_on_c, 0, 65, 56
1, 1626158, Control_c, 0, 64, 53
1, 1626173, Control_c, 0, 64, 59
1, 1626188, Control_c, 0, 64, 65
1, 1626198, Note_off_c, 0, 65, 62
1, 1626203, Control_c, 0, 64, 74
1, 1626217, Control_c, 0, 64, 85
1, 1626218, Note_on_c, 0, 43, 58
1, 1626227, Note_on_c, 0, 62, 51
1, 1626232, Control_c, 0, 64, 93
1, 1626248, Control_c, 0, 64, 97
1, 1626253, Note_off_c, 0, 43, 64
1, 1626263, Control_c, 0, 64, 102
1, 1626278, Control_c, 0, 64, 113
1, 1626292, Control_c, 0, 64, 127
1, 1626301, Note_on_c, 0, 65, 65
1, 1626307, Note_off_c, 0, 62, 57
1, 1626311, Note_off_c, 0, 71, 61
1, 1626334, Note_off_c, 0, 65, 63
1, 1626371, Note_on_c, 0, 71, 82
1, 1626381, Control_c, 0, 64, 93
1, 1626396, Control_c, 0, 64, 75
1, 1626411, Control_c, 0, 64, 69
1, 1626426, Control_c, 0, 64, 71
1, 1626440, Control_c, 0, 64, 79
1, 1626453, Note_on_c, 0, 65, 68
1, 1626455, Control_c, 0, 64, 98
1, 1626478, Control_c, 0, 64, 127
1, 1626517, Note_off_c, 0, 65, 62
1, 1626544, Note_on_c, 0, 43, 49
1, 1626546, Note_on_c, 0, 62, 40
1, 1626585, Note_off_c, 0, 43, 55
1, 1626612, Note_on_c, 0, 65, 58
1, 1626612, Note_off_c, 0, 71, 59
1, 1626618, Note_off_c, 0, 62, 54
1, 1626645, Note_off_c, 0, 65, 59
1, 1626689, Note_on_c, 0, 71, 73
1, 1626714, Control_c, 0, 64, 88
1, 1626729, Control_c, 0, 64, 66
1, 1626744, Control_c, 0, 64, 56
1, 1626759, Control_c, 0, 64, 58
1, 1626767, Note_on_c, 0, 65, 57
1, 1626773, Control_c, 0, 64, 63
1, 1626788, Control_c, 0, 64, 72
1, 1626803, Control_c, 0, 64, 93
1, 1626812, Note_off_c, 0, 65, 62
1, 1626818, Control_c, 0, 64, 127
1, 1626849, Note_on_c, 0, 62, 51
1, 1626862, Note_on_c, 0, 36, 58
1, 1626895, Note_off_c, 0, 36, 62
1, 1626923, Note_on_c, 0, 65, 61
1, 1626934, Note_off_c, 0, 62, 55
1, 1626959, Note_off_c, 0, 65, 61
1, 1626993, Note_on_c, 0, 72, 83
1, 1627011, Note_off_c, 0, 71, 51
1, 1627011, Control_c, 0, 64, 123
1, 1627026, Control_c, 0, 64, 83
1, 1627041, Control_c, 0, 64, 69
1, 1627056, Control_c, 0, 64, 66
1, 1627071, Control_c, 0, 64, 70
1, 1627081, Note_on_c, 0, 67, 67
1, 1627086, Control_c, 0, 64, 81
1, 1627101, Control_c, 0, 64, 108
1, 1627114, Note_off_c, 0, 67, 63
1, 1627115, Control_c, 0, 64, 127
1, 1627156, Note_on_c, 0, 36, 57
1, 1627156, Note_on_c, 0, 64, 45
1, 1627202, Note_off_c, 0, 36, 61
1, 1627221, Note_on_c, 0, 67, 67
1, 1627221, Note_off_c, 0, 64, 59
1, 1627259, Note_off_c, 0, 67, 57
1, 1627301, Note_off_c, 0, 72, 58
1, 1627306, Note_on_c, 0, 71, 82
1, 1627330, Control_c, 0, 64, 84
1, 1627345, Control_c, 0, 64, 62
1, 1627360, Control_c, 0, 64, 36
1, 1627374, Note_on_c, 0, 67, 66
1, 1627375, Control_c, 0, 64, 0
1, 1627423, Note_off_c, 0, 67, 61
1, 1627449, Control_c, 0, 64, 33
1, 1627455, Note_on_c, 0, 62, 56
1, 1627464, Control_c, 0, 64, 58
1, 1627475, Note_on_c, 0, 38, 50
1, 1627478, Control_c, 0, 64, 77
1, 1627493, Control_c, 0, 64, 112
1, 1627508, Control_c, 0, 64, 127
1, 1627516, Note_off_c, 0, 38, 47
1, 1627530, Note_on_c, 0, 67, 64
1, 1627552, Note_off_c, 0, 62, 53
1, 1627562, Note_off_c, 0, 67, 64
1, 1627597, Control_c, 0, 67, 119
1, 1627608, Note_on_c, 0, 69, 80
1, 1627612, Control_c, 0, 67, 117
1, 1627656, Control_c, 0, 67, 115
1, 1627671, Control_c, 0, 64, 98
1, 1627686, Control_c, 0, 64, 74
1, 1627691, Note_on_c, 0, 66, 74
1, 1627701, Control_c, 0, 64, 68
1, 1627701, Control_c, 0, 67, 113
1, 1627715, Control_c, 0, 64, 72
1, 1627715, Control_c, 0, 67, 104
1, 1627730, Control_c, 0, 64, 90
1, 1627730, Control_c, 0, 67, 74
1, 1627739, Note_off_c, 0, 71, 0
1, 1627740, Note_off_c, 0, 66, 62
1, 1627741, Note_on_c, 0, 62, 68
1, 1627745, Control_c, 0, 64, 127
1, 1627745, Control_c, 0, 67, 35
1, 1627760, Control_c, 0, 67, 0
1, 1627776, Poly_aftertouch_c, 0, 71, 127
1, 1627784, Note_on_c, 0, 38, 66
1, 1627804, Note_on_c, 0, 66, 68
1, 1627816, Note_off_c, 0, 38, 63
1, 1627821, Note_off_c, 0, 69, 54
1, 1627835, Note_off_c, 0, 62, 55
1, 1627846, Poly_aftertouch_c, 0, 71, 0
1, 1627874, Note_off_c, 0, 66, 64
1, 1627928, Note_on_c, 0, 71, 90
1, 1627938, Control_c, 0, 64, 89
1, 1627953, Control_c, 0, 64, 63
1, 1627976, Control_c, 0, 64, 39
1, 1627991, Control_c, 0, 64, 0
1, 1628006, Control_c, 0, 64, 31
1, 1628020, Control_c, 0, 64, 50
1, 1628021, Note_on_c, 0, 67, 74
1, 1628035, Control_c, 0, 64, 67
1, 1628050, Control_c, 0, 64, 87
1, 1628053, Note_on_c, 0, 43, 63
1, 1628064, Control_c, 0, 64, 127
1, 1628086, Note_off_c, 0, 67, 61
1, 1628089, Note_on_c, 0, 65, 77
1, 1628159, Note_on_c, 0, 67, 80
1, 1628168, Note_off_c, 0, 43, 34
1, 1628183, Note_off_c, 0, 65, 55
1, 1628211, Note_off_c, 0, 71, 57
1, 1628222, Note_off_c, 0, 67, 63
1, 1628234, Note_on_c, 0, 72, 88
1, 1628272, Control_c, 0, 64, 95
1, 1628287, Control_c, 0, 64, 67
1, 1628302, Control_c, 0, 64, 49
1, 1628317, Control_c, 0, 64, 48
1, 1628323, Note_on_c, 0, 69, 72
1, 1628332, Control_c, 0, 64, 56
1, 1628346, Control_c, 0, 64, 67
1, 1628352, Note_off_c, 0, 69, 61
1, 1628361, Control_c, 0, 64, 86
1, 1628376, Control_c, 0, 64, 127
1, 1628381, Note_on_c, 0, 65, 66
1, 1628400, Note_on_c, 0, 55, 64
1, 1628441, Note_on_c, 0, 69, 83
1, 1628454, Note_off_c, 0, 55, 52
1, 1628473, Note_off_c, 0, 65, 52
1, 1628526, Note_off_c, 0, 69, 42
1, 1628529, Note_on_c, 0, 74, 99
1, 1628553, Control_c, 0, 64, 88
1, 1628559, Note_off_c, 0, 72, 60
1, 1628568, Control_c, 0, 64, 65
1, 1628583, Control_c, 0, 64, 53
1, 1628598, Control_c, 0, 64, 57
1, 1628612, Control_c, 0, 64, 68
1, 1628621, Note_on_c, 0, 71, 79
1, 1628627, Control_c, 0, 64, 94
1, 1628643, Control_c, 0, 64, 127
1, 1628694, Note_off_c, 0, 71, 60
1, 1628702, Note_on_c, 0, 65, 74
1, 1628725, Note_on_c, 0, 55, 60
1, 1628767, Note_off_c, 0, 55, 61
1, 1628782, Note_on_c, 0, 71, 80
1, 1628799, Note_off_c, 0, 74, 65
1, 1628809, Note_off_c, 0, 65, 58
1, 1628820, Note_off_c, 0, 71, 58
1, 1628863, Note_on_c, 0, 74, 96
1, 1628902, Control_c, 0, 64, 100
1, 1628917, Control_c, 0, 64, 69
1, 1628932, Control_c, 0, 64, 53
1, 1628934, Note_on_c, 0, 71, 80
1, 1628947, Control_c, 0, 64, 48
1, 1628961, Control_c, 0, 64, 55
1, 1628976, Control_c, 0, 64, 66
1, 1628991, Control_c, 0, 64, 86
1, 1628997, Note_on_c, 0, 55, 60
1, 1629006, Control_c, 0, 64, 127
1, 1629009, Note_off_c, 0, 71, 60
1, 1629015, Note_on_c, 0, 65, 71
1, 1629080, Note_on_c, 0, 71, 80
1, 1629104, Note_off_c, 0, 74, 62
1, 1629118, Note_off_c, 0, 65, 53
1, 1629124, Note_off_c, 0, 55, 27
1, 1629134, Note_off_c, 0, 71, 60
1, 1629175, Note_on_c, 0, 74, 95
1, 1629213, Control_c, 0, 64, 103
1, 1629228, Control_c, 0, 64, 70
1, 1629242, Control_c, 0, 64, 51
1, 1629252, Note_on_c, 0, 71, 72
1, 1629257, Control_c, 0, 64, 40
1, 1629286, Control_c, 0, 64, 46
1, 1629301, Control_c, 0, 64, 57
1, 1629313, Note_off_c, 0, 71, 62
1, 1629316, Control_c, 0, 64, 66
1, 1629326, Note_on_c, 0, 65, 62
1, 1629331, Control_c, 0, 64, 76
1, 1629346, Control_c, 0, 64, 97
1, 1629347, Note_on_c, 0, 48, 50
1, 1629360, Control_c, 0, 64, 127
1, 1629393, Note_on_c, 0, 71, 71
1, 1629408, Note_off_c, 0, 48, 54
1, 1629423, Note_off_c, 0, 65, 47
1, 1629488, Control_c, 0, 64, 114
1, 1629490, Note_on_c, 0, 76, 89
1, 1629498, Note_off_c, 0, 71, 62
1, 1629503, Control_c, 0, 64, 75
1, 1629512, Note_off_c, 0, 74, 56
1, 1629517, Control_c, 0, 64, 54
1, 1629532, Control_c, 0, 64, 42
1, 1629547, Control_c, 0, 64, 44
1, 1629547, Control_c, 0, 67, 39
1, 1629562, Control_c, 0, 64, 55
1, 1629562, Control_c, 0, 67, 60
1, 1629577, Control_c, 0, 64, 66
1, 1629577, Control_c, 0, 67, 83
1, 1629591, Note_on_c, 0, 72, 64
1, 1629591, Control_c, 0, 64, 79
1, 1629591, Control_c, 0, 67, 99
1, 1629606, Control_c, 0, 64, 98
1, 1629606, Control_c, 0, 67, 110
1, 1629621, Control_c, 0, 64, 112
1, 1629621, Control_c, 0, 67, 118
1, 1629636, Control_c, 0, 64, 117
1, 1629636, Control_c, 0, 67, 127
1, 1629651, Note_off_c, 0, 72, 61
1, 1629651, Control_c, 0, 64, 127
1, 1629683, Note_on_c, 0, 64, 42
1, 1629693, Note_on_c, 0, 48, 52
1, 1629745, Note_off_c, 0, 48, 56
1, 1629751, Note_on_c, 0, 72, 70
1, 1629781, Note_off_c, 0, 64, 37
1, 1629805, Note_off_c, 0, 72, 58
1, 1629837, Note_on_c, 0, 74, 81
1, 1629855, Note_off_c, 0, 76, 60
1, 1629858, Control_c, 0, 64, 78
1, 1629873, Control_c, 0, 64, 58
1, 1629888, Control_c, 0, 64, 37
1, 1629903, Control_c, 0, 64, 29
1, 1629910, Note_on_c, 0, 71, 61
1, 1629917, Control_c, 0, 64, 31
1, 1629932, Control_c, 0, 64, 46
1, 1629947, Control_c, 0, 64, 60
1, 1629954, Note_off_c, 0, 71, 60
1, 1629962, Control_c, 0, 64, 70
1, 1629977, Control_c, 0, 64, 82
1, 1629991, Control_c, 0, 64, 99
1, 1630001, Note_on_c, 0, 67, 58
1, 1630006, Control_c, 0, 64, 123
1, 1630021, Control_c, 0, 64, 127
1, 1630025, Note_on_c, 0, 50, 42
1, 1630062, Note_on_c, 0, 71, 69
1, 1630070, Note_off_c, 0, 50, 61
1, 1630088, Note_off_c, 0, 74, 61
1, 1630116, Note_off_c, 0, 67, 36
1, 1630126, Note_off_c, 0, 71, 60
1, 1630154, Control_c, 0, 64, 93
1, 1630161, Note_on_c, 0, 74, 77
1, 1630169, Control_c, 0, 64, 73
1, 1630183, Control_c, 0, 64, 64
1, 1630198, Control_c, 0, 64, 63
1, 1630221, Control_c, 0, 64, 68
1, 1630236, Control_c, 0, 64, 81
1, 1630252, Control_c, 0, 64, 109
1, 1630257, Note_on_c, 0, 69, 70
1, 1630266, Control_c, 0, 64, 127
1, 1630297, Note_off_c, 0, 69, 51
1, 1630326, Note_on_c, 0, 50, 49
1, 1630345, Note_on_c, 0, 66, 69
1, 1630355, Control_c, 0, 64, 98
1, 1630359, Note_off_c, 0, 50, 64
1, 1630370, Control_c, 0, 64, 88
1, 1630386, Note_off_c, 0, 66, 58
1, 1630400, Control_c, 0, 64, 93
1, 1630414, Control_c, 0, 64, 110
1, 1630424, Note_on_c, 0, 69, 67
1, 1630427, Note_off_c, 0, 74, 62
1, 1630429, Control_c, 0, 64, 127
1, 1630577, Control_c, 0, 64, 108
1, 1630585, Note_on_c, 0, 74, 70
1, 1630592, Control_c, 0, 64, 80
1, 1630607, Control_c, 0, 64, 64
1, 1630614, Note_on_c, 0, 55, 41
1, 1630617, Note_off_c, 0, 69, 38
1, 1630621, Control_c, 0, 64, 55
1, 1630636, Control_c, 0, 64, 46
1, 1630651, Control_c, 0, 64, 33
1, 1630666, Control_c, 0, 64, 0
1, 1630688, Note_on_c, 0, 71, 63
1, 1630729, Note_off_c, 0, 71, 59
1, 1630765, Note_on_c, 0, 67, 66
1, 1630825, Note_on_c, 0, 71, 74
1, 1630844, Note_off_c, 0, 67, 58
1, 1630881, Note_off_c, 0, 71, 60
1, 1630887, Note_on_c, 0, 79, 86
1, 1630889, Note_off_c, 0, 74, 63
1, 1630902, Note_on_c, 0, 59, 53
1, 1630995, Note_on_c, 0, 74, 67
1, 1631053, Note_off_c, 0, 74, 64
1, 1631068, Note_on_c, 0, 67, 61
1, 1631127, Note_off_c, 0, 67, 52
1, 1631132, Note_on_c, 0, 74, 74
1, 1631205, Note_on_c, 0, 78, 86
1, 1631206, Note_off_c, 0, 74, 63
1, 1631229, Note_on_c, 0, 62, 53
1, 1631229, Note_off_c, 0, 59, 59
1, 1631250, Note_off_c, 0, 79, 64
1, 1631309, Note_on_c, 0, 74, 73
1, 1631373, Note_off_c, 0, 74, 63
1, 1631392, Note_on_c, 0, 69, 56
1, 1631456, Note_on_c, 0, 74, 78
1, 1631482, Note_off_c, 0, 69, 57
1, 1631532, Note_on_c, 0, 81, 88
1, 1631536, Note_off_c, 0, 74, 62
1, 1631551, Note_on_c, 0, 60, 57
1, 1631557, Note_off_c, 0, 78, 59
1, 1631564, Note_off_c, 0, 62, 57
1, 1631606, Control_c, 0, 64, 32
1, 1631615, Note_on_c, 0, 74, 74
1, 1631621, Control_c, 0, 64, 46
1, 1631636, Control_c, 0, 64, 58
1, 1631651, Control_c, 0, 64, 64
1, 1631666, Control_c, 0, 64, 68
1, 1631669, Note_off_c, 0, 74, 59
1, 1631680, Control_c, 0, 64, 73
1, 1631690, Note_on_c, 0, 69, 73
1, 1631695, Control_c, 0, 64, 78
1, 1631718, Control_c, 0, 64, 83
1, 1631733, Control_c, 0, 64, 88
1, 1631748, Control_c, 0, 64, 92
1, 1631761, Note_on_c, 0, 74, 72
1, 1631762, Control_c, 0, 64, 101
1, 1631776, Note_off_c, 0, 69, 57
1, 1631777, Control_c, 0, 64, 112
1, 1631786, Note_off_c, 0, 74, 70
1, 1631792, Note_off_c, 0, 81, 62
1, 1631792, Control_c, 0, 64, 127
1, 1631849, Note_on_c, 0, 74, 88
1, 1631867, Control_c, 0, 64, 107
1, 1631882, Control_c, 0, 64, 79
1, 1631885, Note_on_c, 0, 59, 49
1, 1631897, Control_c, 0, 64, 63
1, 1631903, Note_off_c, 0, 55, 61
1, 1631911, Control_c, 0, 64, 52
1, 1631914, Note_off_c, 0, 60, 63
1, 1631926, Control_c, 0, 64, 50
1, 1631941, Control_c, 0, 64, 52
1, 1631956, Control_c, 0, 64, 55
1, 1631971, Control_c, 0, 64, 54
1, 1631985, Control_c, 0, 64, 53
1, 1632000, Control_c, 0, 64, 52
1, 1632025, Note_on_c, 0, 67, 52
1, 1632045, Control_c, 0, 64, 53
1, 1632095, Note_on_c, 0, 71, 67
1, 1632097, Note_off_c, 0, 67, 33
1, 1632104, Control_c, 0, 64, 53
1, 1632118, Control_c, 0, 64, 54
1, 1632148, Control_c, 0, 64, 53
1, 1632150, Note_off_c, 0, 71, 60
1, 1632163, Note_on_c, 0, 76, 80
1, 1632163, Control_c, 0, 64, 52
1, 1632165, Note_off_c, 0, 59, 56
1, 1632166, Note_off_c, 0, 74, 62
1, 1632178, Control_c, 0, 64, 51
1, 1632183, Note_on_c, 0, 55, 49
1, 1632192, Note_on_c, 0, 48, 37
1, 1632207, Control_c, 0, 64, 52
1, 1632222, Control_c, 0, 64, 51
1, 1632237, Control_c, 0, 64, 51
1, 1632252, Control_c, 0, 64, 50
1, 1632258, Note_off_c, 0, 48, 0
1, 1632258, Note_on_c, 0, 48, 19
1, 1632259, Note_on_c, 0, 72, 48
1, 1632267, Control_c, 0, 64, 50
1, 1632299, Note_off_c, 0, 72, 52
1, 1632352, Note_on_c, 0, 67, 36
1, 1632396, Note_on_c, 0, 72, 54
1, 1632398, Note_off_c, 0, 67, 47
1, 1632477, Note_off_c, 0, 72, 57
1, 1632487, Note_on_c, 0, 74, 70
1, 1632498, Note_off_c, 0, 48, 42
1, 1632508, Note_on_c, 0, 54, 40
1, 1632513, Note_on_c, 0, 50, 37
1, 1632517, Note_off_c, 0, 76, 54
1, 1632538, Note_off_c, 0, 55, 34
1, 1632587, Note_on_c, 0, 72, 53
1, 1632622, Note_off_c, 0, 72, 63
1, 1632653, Note_on_c, 0, 69, 46
1, 1632718, Note_on_c, 0, 72, 57
1, 1632749, Control_c, 0, 64, 52
1, 1632751, Note_off_c, 0, 74, 62
1, 1632764, Control_c, 0, 64, 56
1, 1632773, Note_off_c, 0, 69, 29
1, 1632779, Control_c, 0, 64, 62
1, 1632794, Control_c, 0, 64, 67
1, 1632808, Control_c, 0, 64, 74
1, 1632812, Note_off_c, 0, 72, 59
1, 1632814, Note_on_c, 0, 74, 68
1, 1632818, Note_on_c, 0, 57, 48
1, 1632823, Control_c, 0, 64, 82
1, 1632838, Control_c, 0, 64, 87
1, 1632852, Control_c, 0, 64, 91
1, 1632857, Note_off_c, 0, 57, 56
1, 1632858, Note_off_c, 0, 50, 59
1, 1632867, Control_c, 0, 64, 95
1, 1632871, Note_off_c, 0, 54, 62
1, 1632882, Control_c, 0, 64, 101
1, 1632897, Control_c, 0, 64, 110
1, 1632912, Control_c, 0, 64, 127
1, 1632916, Note_on_c, 0, 72, 58
1, 1632970, Note_off_c, 0, 72, 60
1, 1632982, Note_on_c, 0, 66, 59
1, 1633024, Note_off_c, 0, 74, 36
1, 1633048, Note_off_c, 0, 66, 53
1, 1633048, Note_on_c, 0, 72, 48
1, 1633118, Note_off_c, 0, 72, 60
1, 1633134, Note_on_c, 0, 74, 72
1, 1633153, Note_on_c, 0, 55, 54
1, 1633164, Control_c, 0, 64, 82
1, 1633179, Control_c, 0, 64, 65
1, 1633194, Control_c, 0, 64, 55
1, 1633215, Control_c, 0, 64, 55
1, 1633230, Note_on_c, 0, 71, 51
1, 1633230, Control_c, 0, 64, 60
1, 1633245, Control_c, 0, 64, 65
1, 1633259, Control_c, 0, 64, 73
1, 1633274, Control_c, 0, 64, 82
1, 1633289, Control_c, 0, 64, 87
1, 1633300, Note_off_c, 0, 71, 57
1, 1633304, Control_c, 0, 64, 89
1, 1633319, Control_c, 0, 64, 91
1, 1633324, Note_on_c, 0, 67, 55
1, 1633334, Control_c, 0, 64, 95
1, 1633349, Control_c, 0, 64, 101
1, 1633364, Control_c, 0, 64, 109
1, 1633378, Note_on_c, 0, 71, 54
1, 1633379, Control_c, 0, 64, 118
1, 1633382, Note_off_c, 0, 67, 50
1, 1633393, Control_c, 0, 64, 127
1, 1633408, Control_c, 0, 64, 110
1, 1633423, Control_c, 0, 64, 86
1, 1633425, Note_off_c, 0, 71, 60
1, 1633438, Control_c, 0, 64, 70
1, 1633441, Note_off_c, 0, 74, 62
1, 1633453, Note_on_c, 0, 79, 72
1, 1633453, Control_c, 0, 64, 61
1, 1633458, Note_on_c, 0, 59, 66
1, 1633468, Control_c, 0, 64, 60
1, 1633483, Control_c, 0, 64, 63
1, 1633498, Control_c, 0, 64, 70
1, 1633513, Control_c, 0, 64, 80
1, 1633528, Control_c, 0, 64, 90
1, 1633543, Control_c, 0, 64, 93
1, 1633549, Note_on_c, 0, 74, 61
1, 1633588, Note_off_c, 0, 74, 56
1, 1633602, Control_c, 0, 64, 93
1, 1633617, Control_c, 0, 64, 94
1, 1633620, Note_on_c, 0, 67, 60
1, 1633647, Control_c, 0, 64, 94
1, 1633676, Control_c, 0, 64, 95
1, 1633683, Note_off_c, 0, 67, 58
1, 1633695, Note_on_c, 0, 74, 60
1, 1633706, Control_c, 0, 64, 94
1, 1633721, Control_c, 0, 64, 88
1, 1633722, Note_off_c, 0, 74, 58
1, 1633736, Control_c, 0, 64, 75
1, 1633750, Control_c, 0, 64, 64
1, 1633765, Control_c, 0, 64, 59
1, 1633779, Note_on_c, 0, 78, 67
1, 1633785, Note_on_c, 0, 62, 56
1, 1633791, Note_off_c, 0, 59, 64
1, 1633795, Control_c, 0, 64, 62
1, 1633810, Control_c, 0, 64, 66
1, 1633811, Note_off_c, 0, 79, 59
1, 1633824, Control_c, 0, 64, 71
1, 1633839, Control_c, 0, 64, 73
1, 1633869, Control_c, 0, 64, 72
1, 1633885, Note_on_c, 0, 74, 45
1, 1633913, Control_c, 0, 64, 73
1, 1633927, Note_off_c, 0, 74, 59
1, 1633928, Note_on_c, 0, 63, 70
1, 1633928, Control_c, 0, 64, 74
1, 1633943, Control_c, 0, 64, 75
1, 1633965, Control_c, 0, 64, 75
1, 1633970, Note_on_c, 0, 69, 44
1, 1633976, Note_off_c, 0, 62, 48
1, 1633980, Control_c, 0, 64, 77
1, 1633995, Control_c, 0, 64, 79
1, 1634009, Control_c, 0, 64, 82
1, 1634013, Note_off_c, 0, 69, 45
1, 1634023, Note_on_c, 0, 74, 76
1, 1634024, Control_c, 0, 64, 85
1, 1634039, Control_c, 0, 64, 87
1, 1634049, Note_off_c, 0, 78, 53
1, 1634054, Control_c, 0, 64, 88
1, 1634069, Control_c, 0, 64, 85
1, 1634083, Control_c, 0, 64, 78
1, 1634085, Note_on_c, 0, 62, 83
1, 1634094, Note_on_c, 0, 81, 86
1, 1634097, Note_off_c, 0, 74, 62
1, 1634098, Control_c, 0, 64, 73
1, 1634113, Control_c, 0, 64, 74
1, 1634115, Note_off_c, 0, 63, 63
1, 1634128, Control_c, 0, 64, 82
1, 1634143, Control_c, 0, 64, 99
1, 1634157, Control_c, 0, 64, 127
1, 1634177, Note_on_c, 0, 74, 79
1, 1634230, Note_off_c, 0, 74, 61
1, 1634237, Note_on_c, 0, 60, 73
1, 1634251, Note_on_c, 0, 69, 74
1, 1634270, Note_off_c, 0, 62, 62
1, 1634306, Control_c, 0, 67, 119
1, 1634318, Note_on_c, 0, 74, 68
1, 1634321, Control_c, 0, 67, 113
1, 1634329, Note_off_c, 0, 69, 58
1, 1634336, Control_c, 0, 67, 104
1, 1634340, Note_off_c, 0, 81, 58
1, 1634344, Note_off_c, 0, 74, 68
1, 1634351, Control_c, 0, 67, 88
1, 1634366, Control_c, 0, 67, 73
1, 1634380, Control_c, 0, 67, 63
1, 1634395, Control_c, 0, 67, 61
1, 1634401, Note_on_c, 0, 74, 82
1, 1634407, Note_on_c, 0, 59, 69
1, 1634410, Control_c, 0, 67, 61
1, 1634425, Control_c, 0, 67, 59
1, 1634428, Note_off_c, 0, 55, 61
1, 1634440, Control_c, 0, 67, 57
1, 1634455, Control_c, 0, 67, 56
1, 1634458, Note_off_c, 0, 60, 64
1, 1634470, Control_c, 0, 64, 109
1, 1634484, Control_c, 0, 64, 85
1, 1634499, Control_c, 0, 64, 70
1, 1634508, Note_on_c, 0, 71, 67
1, 1634514, Control_c, 0, 64, 59
1, 1634529, Control_c, 0, 64, 55
1, 1634541, Note_off_c, 0, 71, 60
1, 1634576, Note_on_c, 0, 67, 69
1, 1634588, Control_c, 0, 64, 56
1, 1634588, Control_c, 0, 67, 54
1, 1634618, Control_c, 0, 64, 56
1, 1634632, Control_c, 0, 64, 57
1, 1634632, Control_c, 0, 67, 55
1, 1634635, Note_on_c, 0, 71, 71
1, 1634647, Control_c, 0, 64, 58
1, 1634661, Note_off_c, 0, 67, 52
1, 1634662, Control_c, 0, 67, 54
1, 1634677, Control_c, 0, 67, 53
1, 1634692, Control_c, 0, 67, 54
1, 1634697, Note_off_c, 0, 71, 61
1, 1634713, Note_on_c, 0, 75, 82
1, 1634714, Note_on_c, 0, 55, 60
1, 1634714, Control_c, 0, 64, 59
1, 1634714, Control_c, 0, 67, 54
1, 1634723, Note_on_c, 0, 48, 60
1, 1634729, Note_off_c, 0, 74, 63
1, 1634729, Control_c, 0, 64, 60
1, 1634729, Note_off_c, 0, 59, 60
1, 1634744, Control_c, 0, 64, 61
1, 1634774, Control_c, 0, 67, 56
1, 1634788, Control_c, 0, 67, 56
1, 1634803, Control_c, 0, 67, 56
1, 1634803, Note_on_c, 0, 72, 61
1, 1634818, Control_c, 0, 64, 62
1, 1634818, Control_c, 0, 67, 54
1, 1634847, Control_c, 0, 64, 61
1, 1634864, Note_off_c, 0, 72, 55
1, 1634878, Note_on_c, 0, 67, 60
1, 1634892, Control_c, 0, 67, 54
1, 1634906, Control_c, 0, 64, 62
1, 1634940, Note_on_c, 0, 72, 65
1, 1634952, Note_off_c, 0, 67, 58
1, 1634966, Control_c, 0, 67, 53
1, 1635023, Note_off_c, 0, 75, 61
1, 1635036, Note_on_c, 0, 74, 67
1, 1635039, Note_off_c, 0, 72, 58
1, 1635055, Note_on_c, 0, 54, 43
1, 1635064, Note_on_c, 0, 50, 39
1, 1635070, Control_c, 0, 67, 54
1, 1635085, Control_c, 0, 67, 54
1, 1635087, Note_off_c, 0, 55, 59
1, 1635100, Control_c, 0, 64, 61
1, 1635107, Note_off_c, 0, 48, 63
1, 1635115, Control_c, 0, 67, 54
1, 1635119, Note_on_c, 0, 72, 58
1, 1635174, Control_c, 0, 67, 53
1, 1635183, Note_off_c, 0, 72, 61
1, 1635189, Control_c, 0, 67, 51
1, 1635207, Note_on_c, 0, 69, 55
1, 1635233, Control_c, 0, 67, 50
1, 1635248, Control_c, 0, 67, 47
1, 1635261, Note_on_c, 0, 72, 68
1, 1635262, Control_c, 0, 64, 61
1, 1635262, Control_c, 0, 67, 42
1, 1635277, Control_c, 0, 67, 0
1, 1635282, Note_off_c, 0, 69, 57
1, 1635282, Note_off_c, 0, 74, 63
1, 1635307, Control_c, 0, 64, 62
1, 1635322, Control_c, 0, 64, 65
1, 1635337, Control_c, 0, 64, 70
1, 1635349, Note_on_c, 0, 57, 65
1, 1635351, Note_on_c, 0, 74, 82
1, 1635352, Control_c, 0, 64, 81
1, 1635355, Note_off_c, 0, 72, 60
1, 1635367, Control_c, 0, 64, 101
1, 1635380, Note_off_c, 0, 57, 65
1, 1635382, Control_c, 0, 64, 127
1, 1635413, Note_on_c, 0, 72, 56
1, 1635415, Note_off_c, 0, 50, 59
1, 1635432, Note_off_c, 0, 54, 63
1, 1635495, Note_off_c, 0, 72, 61
1, 1635498, Note_on_c, 0, 66, 72
1, 1635529, Note_off_c, 0, 74, 61
1, 1635565, Note_on_c, 0, 72, 69
1, 1635601, Note_off_c, 0, 66, 54
1, 1635656, Note_off_c, 0, 72, 59
1, 1635659, Note_on_c, 0, 74, 78
1, 1635666, Note_on_c, 0, 55, 65
1, 1635700, Control_c, 0, 64, 98
1, 1635715, Control_c, 0, 64, 72
1, 1635729, Control_c, 0, 64, 60
1, 1635744, Control_c, 0, 64, 56
1, 1635748, Note_on_c, 0, 71, 70
1, 1635759, Control_c, 0, 64, 59
1, 1635774, Control_c, 0, 64, 65
1, 1635787, Control_c, 0, 64, 73
1, 1635802, Control_c, 0, 64, 85
1, 1635817, Control_c, 0, 64, 95
1, 1635825, Note_on_c, 0, 67, 74
1, 1635829, Note_off_c, 0, 71, 62
1, 1635833, Control_c, 0, 64, 103
1, 1635848, Control_c, 0, 64, 111
1, 1635863, Control_c, 0, 64, 127
1, 1635897, Note_on_c, 0, 71, 69
1, 1635917, Note_off_c, 0, 67, 59
1, 1635920, Note_off_c, 0, 74, 61
1, 1635951, Control_c, 0, 64, 83
1, 1635963, Note_on_c, 0, 48, 80
1, 1635963, Note_on_c, 0, 75, 85
1, 1635963, Note_off_c, 0, 71, 62
1, 1635966, Control_c, 0, 64, 66
1, 1635981, Control_c, 0, 64, 61
1, 1635996, Control_c, 0, 64, 64
1, 1636011, Control_c, 0, 64, 72
1, 1636026, Control_c, 0, 64, 89
1, 1636041, Control_c, 0, 64, 127
1, 1636043, Note_on_c, 0, 72, 73
1, 1636115, Note_on_c, 0, 67, 65
1, 1636115, Note_off_c, 0, 72, 60
1, 1636187, Note_on_c, 0, 72, 64
1, 1636207, Note_off_c, 0, 67, 59
1, 1636236, Note_off_c, 0, 75, 59
1, 1636276, Note_on_c, 0, 74, 82
1, 1636282, Note_on_c, 0, 50, 68
1, 1636285, Note_off_c, 0, 72, 59
1, 1636285, Control_c, 0, 64, 112
1, 1636291, Note_on_c, 0, 54, 64
1, 1636300, Control_c, 0, 64, 79
1, 1636315, Control_c, 0, 64, 65
1, 1636327, Note_off_c, 0, 48, 63
1, 1636330, Control_c, 0, 64, 61
1, 1636345, Control_c, 0, 64, 63
1, 1636359, Control_c, 0, 64, 71
1, 1636362, Note_off_c, 0, 55, 60
1, 1636364, Note_on_c, 0, 72, 68
1, 1636374, Control_c, 0, 64, 89
1, 1636389, Control_c, 0, 64, 127
1, 1636433, Note_on_c, 0, 69, 68
1, 1636435, Note_off_c, 0, 72, 61
1, 1636500, Note_on_c, 0, 72, 69
1, 1636506, Note_off_c, 0, 74, 64
1, 1636524, Note_off_c, 0, 69, 51
1, 1636581, Note_on_c, 0, 74, 90
1, 1636583, Note_on_c, 0, 57, 78
1, 1636592, Note_off_c, 0, 72, 62
1, 1636610, Note_off_c, 0, 57, 68
1, 1636628, Note_off_c, 0, 54, 64
1, 1636634, Note_off_c, 0, 50, 64
1, 1636657, Note_on_c, 0, 72, 66
1, 1636726, Note_on_c, 0, 66, 72
1, 1636726, Note_off_c, 0, 72, 62
1, 1636806, Note_on_c, 0, 72, 77
1, 1636819, Note_off_c, 0, 74, 59
1, 1636857, Note_off_c, 0, 66, 55
1, 1636985, Note_on_c, 0, 43, 70
1, 1636991, Note_on_c, 0, 74, 81
1, 1636994, Note_off_c, 0, 72, 59
1, 1637063, Control_c, 0, 64, 74
1, 1637078, Control_c, 0, 64, 55
1, 1637093, Control_c, 0, 64, 42
1, 1637101, Note_on_c, 0, 70, 70
1, 1637108, Control_c, 0, 64, 43
1, 1637123, Control_c, 0, 64, 52
1, 1637137, Control_c, 0, 64, 63
1, 1637152, Control_c, 0, 64, 79
1, 1637162, Note_off_c, 0, 70, 64
1, 1637167, Control_c, 0, 64, 127
1, 1637182, Note_on_c, 0, 67, 58
1, 1637245, Note_on_c, 0, 70, 85
1, 1637248, Note_off_c, 0, 74, 63
1, 1637277, Note_off_c, 0, 67, 61
1, 1637311, Note_on_c, 0, 46, 73
1, 1637312, Note_off_c, 0, 70, 57
1, 1637318, Note_on_c, 0, 74, 90
1, 1637346, Control_c, 0, 64, 92
1, 1637361, Control_c, 0, 64, 78
1, 1637375, Control_c, 0, 64, 76
1, 1637390, Control_c, 0, 64, 83
1, 1637396, Note_on_c, 0, 70, 72
1, 1637405, Control_c, 0, 64, 118
1, 1637421, Control_c, 0, 64, 127
1, 1637452, Note_off_c, 0, 70, 63
1, 1637464, Note_on_c, 0, 65, 62
1, 1637501, Note_off_c, 0, 43, 37
1, 1637521, Note_off_c, 0, 74, 59
1, 1637532, Note_on_c, 0, 70, 72
1, 1637554, Note_off_c, 0, 65, 60
1, 1637598, Control_c, 0, 64, 81
1, 1637600, Note_off_c, 0, 70, 59
1, 1637605, Note_on_c, 0, 74, 90
1, 1637611, Note_on_c, 0, 50, 59
1, 1637613, Control_c, 0, 64, 61
1, 1637628, Control_c, 0, 64, 49
1, 1637657, Control_c, 0, 64, 55
1, 1637672, Control_c, 0, 64, 65
1, 1637686, Note_on_c, 0, 69, 71
1, 1637687, Control_c, 0, 64, 77
1, 1637710, Control_c, 0, 64, 99
1, 1637725, Control_c, 0, 64, 127
1, 1637737, Note_off_c, 0, 69, 56
1, 1637751, Note_off_c, 0, 46, 57
1, 1637766, Note_on_c, 0, 65, 75
1, 1637817, Note_off_c, 0, 65, 47
1, 1637838, Note_on_c, 0, 69, 71
1, 1637866, Note_off_c, 0, 74, 57
1, 1637883, Note_off_c, 0, 69, 49
1, 1637887, Control_c, 0, 64, 88
1, 1637895, Note_on_c, 0, 72, 87
1, 1637902, Control_c, 0, 64, 67
1, 1637913, Note_on_c, 0, 53, 70
1, 1637917, Control_c, 0, 64, 58
1, 1637931, Control_c, 0, 64, 59
1, 1637946, Control_c, 0, 64, 65
1, 1637954, Note_off_c, 0, 50, 63
1, 1637961, Control_c, 0, 64, 78
1, 1637975, Note_on_c, 0, 69, 80
1, 1637975, Control_c, 0, 64, 127
1, 1638038, Note_off_c, 0, 69, 60
1, 1638047, Note_on_c, 0, 65, 72
1, 1638115, Note_on_c, 0, 69, 79
1, 1638137, Note_off_c, 0, 72, 63
1, 1638144, Note_off_c, 0, 65, 55
1, 1638176, Note_off_c, 0, 69, 62
1, 1638198, Note_on_c, 0, 72, 83
1, 1638198, Control_c, 0, 64, 84
1, 1638208, Note_on_c, 0, 41, 61
1, 1638213, Control_c, 0, 64, 61
1, 1638228, Control_c, 0, 64, 39
1, 1638243, Control_c, 0, 64, 31
1, 1638258, Control_c, 0, 64, 36
1, 1638273, Control_c, 0, 64, 49
1, 1638286, Note_on_c, 0, 68, 71
1, 1638288, Control_c, 0, 64, 65
1, 1638288, Note_off_c, 0, 53, 28
1, 1638303, Control_c, 0, 64, 81
1, 1638318, Control_c, 0, 64, 115
1, 1638333, Control_c, 0, 64, 127
1, 1638344, Note_off_c, 0, 68, 63
1, 1638412, Note_on_c, 0, 63, 40
1, 1638426, Note_off_c, 0, 72, 60
1, 1638433, Note_on_c, 0, 68, 70
1, 1638469, Note_off_c, 0, 63, 43
1, 1638515, Note_on_c, 0, 44, 63
1, 1638518, Control_c, 0, 64, 105
1, 1638520, Note_on_c, 0, 72, 80
1, 1638522, Note_off_c, 0, 68, 60
1, 1638533, Control_c, 0, 64, 77
1, 1638546, Note_off_c, 0, 41, 62
1, 1638547, Control_c, 0, 64, 63
1, 1638562, Control_c, 0, 64, 56
1, 1638577, Control_c, 0, 64, 57
1, 1638592, Control_c, 0, 64, 63
1, 1638602, Note_on_c, 0, 68, 61
1, 1638606, Control_c, 0, 64, 72
1, 1638621, Control_c, 0, 64, 86
1, 1638636, Control_c, 0, 64, 103
1, 1638636, Control_c, 0, 67, 41
1, 1638651, Control_c, 0, 64, 114
1, 1638651, Control_c, 0, 67, 57
1, 1638663, Note_off_c, 0, 68, 51
1, 1638666, Control_c, 0, 64, 127
1, 1638666, Control_c, 0, 67, 80
1, 1638680, Control_c, 0, 67, 96
1, 1638682, Note_on_c, 0, 63, 62
1, 1638695, Control_c, 0, 67, 106
1, 1638710, Control_c, 0, 67, 111
1, 1638725, Control_c, 0, 67, 113
1, 1638739, Note_on_c, 0, 68, 40
1, 1638748, Note_off_c, 0, 63, 44
1, 1638759, Note_off_c, 0, 72, 59
1, 1638769, Control_c, 0, 67, 117
1, 1638784, Control_c, 0, 67, 127
1, 1638822, Note_on_c, 0, 72, 65
1, 1638825, Note_off_c, 0, 68, 49
1, 1638828, Control_c, 0, 64, 82
1, 1638832, Note_on_c, 0, 48, 65
1, 1638843, Control_c, 0, 64, 64
1, 1638847, Note_off_c, 0, 44, 63
1, 1638858, Control_c, 0, 64, 55
1, 1638872, Control_c, 0, 64, 54
1, 1638887, Control_c, 0, 64, 59
1, 1638902, Control_c, 0, 64, 67
1, 1638917, Control_c, 0, 64, 77
1, 1638932, Control_c, 0, 64, 91
1, 1638944, Note_on_c, 0, 67, 47
1, 1638947, Control_c, 0, 64, 101
1, 1638962, Control_c, 0, 64, 103
1, 1638977, Control_c, 0, 64, 106
1, 1638980, Note_off_c, 0, 67, 51
1, 1638992, Control_c, 0, 64, 113
1, 1638998, Note_on_c, 0, 63, 55
1, 1639006, Control_c, 0, 64, 127
1, 1639027, Note_off_c, 0, 63, 53
1, 1639068, Note_on_c, 0, 67, 61
1, 1639086, Note_off_c, 0, 72, 56
1, 1639126, Control_c, 0, 64, 121
1, 1639141, Note_off_c, 0, 67, 59
1, 1639141, Control_c, 0, 64, 81
1, 1639144, Note_on_c, 0, 70, 72
1, 1639150, Note_on_c, 0, 51, 58
1, 1639156, Control_c, 0, 64, 64
1, 1639170, Control_c, 0, 64, 56
1, 1639175, Note_off_c, 0, 48, 61
1, 1639185, Control_c, 0, 64, 56
1, 1639207, Control_c, 0, 64, 61
1, 1639221, Control_c, 0, 64, 67
1, 1639236, Note_on_c, 0, 67, 52
1, 1639236, Control_c, 0, 64, 75
1, 1639251, Control_c, 0, 64, 84
1, 1639266, Control_c, 0, 64, 91
1, 1639281, Control_c, 0, 64, 95
1, 1639296, Control_c, 0, 64, 100
1, 1639302, Note_off_c, 0, 67, 55
1, 1639311, Control_c, 0, 64, 110
1, 1639314, Note_on_c, 0, 63, 51
1, 1639325, Control_c, 0, 64, 127
1, 1639347, Note_off_c, 0, 70, 52
1, 1639382, Note_on_c, 0, 67, 51
1, 1639405, Note_off_c, 0, 63, 49
1, 1639442, Note_off_c, 0, 51, 58
1, 1639444, Control_c, 0, 64, 96
1, 1639458, Note_on_c, 0, 70, 69
1, 1639459, Control_c, 0, 64, 74
1, 1639466, Note_off_c, 0, 67, 57
1, 1639474, Control_c, 0, 64, 65
1, 1639484, Note_on_c, 0, 39, 54
1, 1639489, Control_c, 0, 64, 63
1, 1639503, Control_c, 0, 64, 66
1, 1639518, Control_c, 0, 64, 76
1, 1639532, Control_c, 0, 64, 90
1, 1639542, Note_on_c, 0, 67, 51
1, 1639547, Control_c, 0, 64, 102
1, 1639562, Control_c, 0, 64, 107
1, 1639576, Note_off_c, 0, 70, 37
1, 1639576, Control_c, 0, 64, 114
1, 1639591, Control_c, 0, 64, 127
1, 1639596, Note_off_c, 0, 67, 56
1, 1639616, Note_on_c, 0, 63, 59
1, 1639690, Note_on_c, 0, 67, 51
1, 1639692, Note_off_c, 0, 63, 54
1, 1639725, Note_off_c, 0, 67, 57
1, 1639740, Control_c, 0, 64, 90
1, 1639752, Note_on_c, 0, 70, 74
1, 1639754, Control_c, 0, 64, 69
1, 1639769, Control_c, 0, 64, 58
1, 1639771, Note_on_c, 0, 43, 40
1, 1639784, Control_c, 0, 64, 57
1, 1639799, Control_c, 0, 64, 61
1, 1639814, Control_c, 0, 64, 69
1, 1639829, Control_c, 0, 64, 80
1, 1639841, Note_off_c, 0, 43, 0
1, 1639841, Note_on_c, 0, 43, 8
1, 1639844, Control_c, 0, 64, 94
1, 1639846, Note_on_c, 0, 67, 46
1, 1639859, Control_c, 0, 64, 101
1, 1639874, Control_c, 0, 64, 106
1, 1639874, Note_off_c, 0, 39, 31
1, 1639877, Note_off_c, 0, 70, 57
1, 1639880, Note_off_c, 0, 67, 50
1, 1639889, Control_c, 0, 64, 127
1, 1639901, Note_on_c, 0, 62, 55
1, 1639989, Note_on_c, 0, 67, 48
1, 1639992, Note_off_c, 0, 62, 51
1, 1640021, Note_off_c, 0, 67, 63
1, 1640051, Note_on_c, 0, 70, 71
1, 1640059, Control_c, 0, 64, 100
1, 1640074, Control_c, 0, 64, 73
1, 1640080, Note_on_c, 0, 46, 55
1, 1640089, Control_c, 0, 64, 61
1, 1640103, Control_c, 0, 64, 57
1, 1640118, Control_c, 0, 64, 59
1, 1640133, Note_off_c, 0, 43, 40
1, 1640133, Control_c, 0, 64, 65
1, 1640148, Control_c, 0, 64, 73
1, 1640148, Note_on_c, 0, 65, 61
1, 1640154, Note_off_c, 0, 70, 57
1, 1640163, Control_c, 0, 64, 85
1, 1640178, Control_c, 0, 64, 95
1, 1640192, Control_c, 0, 64, 100
1, 1640199, Note_off_c, 0, 65, 60
1, 1640207, Control_c, 0, 64, 106
1, 1640222, Control_c, 0, 64, 127
1, 1640238, Note_on_c, 0, 62, 49
1, 1640289, Note_on_c, 0, 50, 9
1, 1640305, Note_off_c, 0, 62, 54
1, 1640312, Note_on_c, 0, 65, 43
1, 1640341, Note_off_c, 0, 50, 51
1, 1640360, Note_off_c, 0, 65, 46
1, 1640376, Note_on_c, 0, 69, 65
1, 1640385, Control_c, 0, 64, 91
1, 1640400, Control_c, 0, 64, 75
1, 1640402, Note_on_c, 0, 50, 53
1, 1640410, Note_off_c, 0, 46, 61
1, 1640415, Control_c, 0, 64, 68
1, 1640430, Control_c, 0, 64, 70
1, 1640444, Control_c, 0, 64, 77
1, 1640457, Note_on_c, 0, 65, 58
1, 1640459, Control_c, 0, 64, 91
1, 1640474, Control_c, 0, 64, 127
1, 1640491, Note_off_c, 0, 65, 60
1, 1640548, Note_off_c, 0, 69, 34
1, 1640557, Note_on_c, 0, 62, 36
1, 1640607, Note_on_c, 0, 65, 50
1, 1640621, Note_off_c, 0, 62, 52
1, 1640634, Note_off_c, 0, 50, 35
1, 1640638, Control_c, 0, 64, 121
1, 1640653, Control_c, 0, 64, 74
1, 1640664, Note_off_c, 0, 65, 57
1, 1640667, Control_c, 0, 64, 51
1, 1640673, Note_on_c, 0, 69, 66
1, 1640682, Control_c, 0, 64, 0
1, 1640700, Note_on_c, 0, 41, 55
1, 1640720, Control_c, 0, 64, 31
1, 1640735, Control_c, 0, 64, 46
1, 1640749, Control_c, 0, 64, 64
1, 1640764, Control_c, 0, 64, 80
1, 1640768, Note_on_c, 0, 65, 74
1, 1640779, Control_c, 0, 64, 127
1, 1640789, Note_off_c, 0, 69, 56
1, 1640825, Note_on_c, 0, 60, 66
1, 1640850, Note_off_c, 0, 65, 52
1, 1640860, Note_off_c, 0, 60, 66
1, 1640898, Note_on_c, 0, 64, 71
1, 1640926, Note_off_c, 0, 64, 67
1, 1640986, Control_c, 0, 64, 113
1, 1640992, Note_on_c, 0, 77, 72
1, 1641001, Control_c, 0, 64, 75
1, 1641016, Control_c, 0, 64, 56
1, 1641031, Control_c, 0, 64, 37
1, 1641045, Control_c, 0, 64, 29
1, 1641048, Note_on_c, 0, 39, 48
1, 1641054, Note_off_c, 0, 41, 62
1, 1641084, Note_on_c, 0, 72, 50
1, 1641090, Control_c, 0, 64, 31
1, 1641120, Control_c, 0, 64, 32
1, 1641135, Control_c, 0, 64, 38
1, 1641142, Note_off_c, 0, 72, 48
1, 1641149, Control_c, 0, 64, 50
1, 1641164, Control_c, 0, 64, 59
1, 1641179, Control_c, 0, 64, 64
1, 1641183, Note_on_c, 0, 69, 39
1, 1641193, Control_c, 0, 64, 67
1, 1641208, Control_c, 0, 64, 70
1, 1641223, Control_c, 0, 64, 74
1, 1641233, Note_off_c, 0, 69, 44
1, 1641238, Control_c, 0, 64, 80
1, 1641241, Note_on_c, 0, 72, 56
1, 1641245, Note_off_c, 0, 77, 61
1, 1641253, Control_c, 0, 64, 86
1, 1641265, Note_off_c, 0, 72, 61
1, 1641267, Control_c, 0, 64, 87
1, 1641297, Control_c, 0, 64, 87
1, 1641312, Control_c, 0, 64, 81
1, 1641319, Note_on_c, 0, 77, 68
1, 1641327, Control_c, 0, 64, 70
1, 1641338, Note_off_c, 0, 39, 62
1, 1641341, Control_c, 0, 64, 58
1, 1641347, Note_on_c, 0, 38, 43
1, 1641356, Control_c, 0, 64, 53
1, 1641371, Control_c, 0, 64, 55
1, 1641386, Control_c, 0, 64, 60
1, 1641396, Note_off_c, 0, 38, 0
1, 1641396, Note_on_c, 0, 38, 6
1, 1641400, Control_c, 0, 64, 65
1, 1641416, Control_c, 0, 64, 69
1, 1641420, Note_on_c, 0, 74, 60
1, 1641431, Control_c, 0, 64, 72
1, 1641454, Control_c, 0, 64, 72
1, 1641466, Note_off_c, 0, 74, 59
1, 1641469, Control_c, 0, 64, 73
1, 1641484, Control_c, 0, 64, 73
1, 1641513, Control_c, 0, 64, 74
1, 1641514, Note_on_c, 0, 70, 45
1, 1641559, Note_off_c, 0, 70, 45
1, 1641567, Note_on_c, 0, 74, 63
1, 1641570, Note_off_c, 0, 77, 59
1, 1641642, Note_off_c, 0, 74, 62
1, 1641676, Control_c, 0, 64, 73
1, 1641682, Note_on_c, 0, 77, 57
1, 1641691, Control_c, 0, 64, 73
1, 1641705, Control_c, 0, 64, 69
1, 1641716, Note_on_c, 0, 36, 47
1, 1641720, Control_c, 0, 64, 62
1, 1641735, Control_c, 0, 64, 52
1, 1641750, Control_c, 0, 64, 40
1, 1641759, Note_off_c, 0, 38, 51
1, 1641765, Control_c, 0, 64, 32
1, 1641794, Control_c, 0, 64, 35
1, 1641809, Control_c, 0, 64, 45
1, 1641816, Note_on_c, 0, 75, 36
1, 1641823, Control_c, 0, 64, 57
1, 1641838, Control_c, 0, 64, 67
1, 1641850, Note_off_c, 0, 75, 55
1, 1641853, Control_c, 0, 64, 75
1, 1641868, Control_c, 0, 64, 82
1, 1641883, Note_on_c, 0, 69, 49
1, 1641883, Control_c, 0, 64, 87
1, 1641898, Control_c, 0, 64, 92
1, 1641913, Control_c, 0, 64, 99
1, 1641923, Note_off_c, 0, 36, 61
1, 1641928, Control_c, 0, 64, 109
1, 1641943, Control_c, 0, 64, 127
1, 1641946, Note_off_c, 0, 77, 47
1, 1641956, Note_on_c, 0, 75, 53
1, 1642005, Note_off_c, 0, 69, 34
1, 1642026, Note_off_c, 0, 75, 61
1, 1642050, Note_on_c, 0, 77, 64
1, 1642061, Control_c, 0, 64, 81
1, 1642076, Control_c, 0, 64, 56
1, 1642090, Control_c, 0, 64, 0
1, 1642130, Note_on_c, 0, 74, 66
1, 1642202, Note_on_c, 0, 34, 56
1, 1642222, Note_on_c, 0, 70, 66
1, 1642223, Note_off_c, 0, 74, 53
1, 1642235, Note_off_c, 0, 34, 55
1, 1642290, Note_off_c, 0, 70, 40
1, 1642318, Note_on_c, 0, 74, 59
1, 1642366, Note_off_c, 0, 74, 56
1, 1642387, Note_on_c, 0, 82, 71
1, 1642402, Note_off_c, 0, 77, 44
1, 1642475, Note_on_c, 0, 74, 61
1, 1642499, Control_c, 0, 64, 29
1, 1642508, Note_off_c, 0, 74, 65
1, 1642514, Control_c, 0, 64, 52
1, 1642528, Control_c, 0, 64, 66
1, 1642543, Control_c, 0, 64, 76
1, 1642546, Note_on_c, 0, 70, 54
1, 1642550, Note_on_c, 0, 46, 52
1, 1642558, Control_c, 0, 64, 89
1, 1642572, Control_c, 0, 64, 101
1, 1642578, Note_off_c, 0, 46, 54
1, 1642587, Control_c, 0, 64, 111
1, 1642593, Note_off_c, 0, 70, 57
1, 1642600, Note_off_c, 0, 82, 60
1, 1642602, Control_c, 0, 64, 127
1, 1642636, Note_on_c, 0, 74, 26
1, 1642674, Note_off_c, 0, 74, 43
1, 1642676, Control_c, 0, 64, 99
1, 1642690, Note_on_c, 0, 81, 69
1, 1642691, Control_c, 0, 64, 75
1, 1642699, Note_on_c, 0, 77, 67
1, 1642706, Control_c, 0, 64, 56
1, 1642721, Control_c, 0, 64, 0
1, 1642774, Note_on_c, 0, 74, 59
1, 1642780, Control_c, 0, 64, 44
1, 1642795, Control_c, 0, 64, 60
1, 1642810, Control_c, 0, 64, 72
1, 1642813, Note_off_c, 0, 74, 61
1, 1642825, Control_c, 0, 64, 90
1, 1642839, Control_c, 0, 64, 127
1, 1642851, Note_on_c, 0, 50, 53
1, 1642863, Note_on_c, 0, 69, 43
1, 1642876, Note_off_c, 0, 50, 58
1, 1642885, Note_off_c, 0, 81, 59
1, 1642906, Note_on_c, 0, 74, 62
1, 1642915, Note_off_c, 0, 77, 61
1, 1642922, Note_off_c, 0, 69, 54
1, 1642942, Note_off_c, 0, 74, 67
1, 1642950, Control_c, 0, 64, 98
1, 1642965, Control_c, 0, 64, 70
1, 1642980, Control_c, 0, 64, 53
1, 1642995, Control_c, 0, 64, 44
1, 1642996, Note_on_c, 0, 79, 68
1, 1643010, Control_c, 0, 64, 48
1, 1643010, Note_on_c, 0, 75, 61
1, 1643025, Control_c, 0, 64, 58
1, 1643040, Control_c, 0, 64, 67
1, 1643055, Control_c, 0, 64, 77
1, 1643069, Control_c, 0, 64, 90
1, 1643084, Control_c, 0, 64, 97
1, 1643087, Note_on_c, 0, 70, 59
1, 1643099, Control_c, 0, 64, 101
1, 1643114, Control_c, 0, 64, 104
1, 1643123, Note_off_c, 0, 70, 64
1, 1643129, Control_c, 0, 64, 107
1, 1643144, Control_c, 0, 64, 112
1, 1643159, Control_c, 0, 64, 123
1, 1643162, Note_on_c, 0, 67, 56
1, 1643170, Note_on_c, 0, 51, 47
1, 1643174, Control_c, 0, 64, 127
1, 1643197, Note_off_c, 0, 79, 42
1, 1643202, Note_off_c, 0, 67, 49
1, 1643204, Note_off_c, 0, 51, 61
1, 1643219, Note_on_c, 0, 70, 64
1, 1643220, Note_off_c, 0, 75, 61
1, 1643243, Note_off_c, 0, 70, 70
1, 1643263, Control_c, 0, 64, 81
1, 1643276, Control_c, 0, 64, 62
1, 1643291, Control_c, 0, 64, 42
1, 1643293, Note_on_c, 0, 79, 70
1, 1643306, Control_c, 0, 64, 40
1, 1643316, Note_on_c, 0, 74, 58
1, 1643321, Control_c, 0, 64, 47
1, 1643336, Control_c, 0, 64, 59
1, 1643350, Control_c, 0, 64, 68
1, 1643365, Control_c, 0, 64, 79
1, 1643380, Control_c, 0, 64, 92
1, 1643383, Note_on_c, 0, 70, 55
1, 1643394, Control_c, 0, 64, 101
1, 1643409, Control_c, 0, 64, 111
1, 1643424, Control_c, 0, 64, 127
1, 1643440, Note_off_c, 0, 70, 57
1, 1643446, Note_on_c, 0, 55, 61
1, 1643453, Note_on_c, 0, 67, 58
1, 1643463, Note_off_c, 0, 79, 54
1, 1643473, Note_off_c, 0, 55, 65
1, 1643504, Note_off_c, 0, 67, 45
1, 1643511, Note_off_c, 0, 74, 52
1, 1643529, Control_c, 0, 64, 112
1, 1643535, Note_on_c, 0, 70, 44
1, 1643543, Control_c, 0, 64, 76
1, 1643558, Control_c, 0, 64, 61
1, 1643559, Note_off_c, 0, 70, 60
1, 1643573, Control_c, 0, 64, 54
1, 1643586, Note_on_c, 0, 77, 60
1, 1643587, Control_c, 0, 64, 59
1, 1643597, Note_on_c, 0, 74, 71
1, 1643602, Control_c, 0, 64, 67
1, 1643617, Control_c, 0, 64, 80
1, 1643632, Control_c, 0, 64, 107
1, 1643647, Control_c, 0, 64, 127
1, 1643660, Note_on_c, 0, 70, 57
1, 1643717, Note_off_c, 0, 70, 62
1, 1643757, Note_on_c, 0, 58, 60
1, 1643761, Note_on_c, 0, 65, 40
1, 1643773, Control_c, 0, 64, 93
1, 1643786, Note_off_c, 0, 58, 65
1, 1643788, Control_c, 0, 64, 68
1, 1643796, Note_on_c, 0, 70, 61
1, 1643800, Note_off_c, 0, 77, 62
1, 1643802, Note_off_c, 0, 74, 60
1, 1643802, Control_c, 0, 64, 49
1, 1643810, Note_off_c, 0, 65, 48
1, 1643818, Control_c, 0, 64, 45
1, 1643833, Control_c, 0, 64, 51
1, 1643836, Note_off_c, 0, 70, 66
1, 1643847, Control_c, 0, 64, 62
1, 1643862, Control_c, 0, 64, 74
1, 1643877, Note_on_c, 0, 77, 81
1, 1643877, Control_c, 0, 64, 99
1, 1643887, Note_on_c, 0, 74, 76
1, 1643892, Control_c, 0, 64, 127
1, 1643958, Note_on_c, 0, 69, 71
1, 1644005, Note_off_c, 0, 69, 50
1, 1644031, Note_on_c, 0, 65, 68
1, 1644053, Note_on_c, 0, 62, 59
1, 1644066, Note_off_c, 0, 74, 62
1, 1644074, Note_on_c, 0, 69, 65
1, 1644074, Note_off_c, 0, 77, 61
1, 1644075, Note_off_c, 0, 62, 65
1, 1644085, Control_c, 0, 64, 94
1, 1644092, Note_off_c, 0, 65, 54
1, 1644099, Control_c, 0, 64, 71
1, 1644114, Control_c, 0, 64, 62
1, 1644129, Control_c, 0, 64, 65
1, 1644131, Note_off_c, 0, 69, 59
1, 1644144, Control_c, 0, 64, 76
1, 1644159, Control_c, 0, 64, 127
1, 1644169, Note_on_c, 0, 75, 79
1, 1644175, Note_on_c, 0, 72, 71
1, 1644261, Note_on_c, 0, 69, 53
1, 1644307, Note_off_c, 0, 69, 62
1, 1644318, Note_on_c, 0, 63, 64
1, 1644330, Note_on_c, 0, 41, 60
1, 1644361, Note_off_c, 0, 41, 65
1, 1644366, Control_c, 0, 64, 80
1, 1644375, Note_off_c, 0, 75, 60
1, 1644379, Note_on_c, 0, 69, 73
1, 1644381, Control_c, 0, 64, 60
1, 1644396, Control_c, 0, 64, 43
1, 1644399, Note_off_c, 0, 72, 62
1, 1644405, Note_off_c, 0, 63, 54
1, 1644410, Control_c, 0, 64, 40
1, 1644425, Control_c, 0, 64, 51
1, 1644430, Note_off_c, 0, 69, 62
1, 1644447, Control_c, 0, 64, 66
1, 1644462, Control_c, 0, 64, 90
1, 1644476, Note_on_c, 0, 75, 87
1, 1644477, Control_c, 0, 64, 127
1, 1644490, Note_on_c, 0, 70, 74
1, 1644563, Note_on_c, 0, 67, 59
1, 1644596, Control_c, 0, 64, 81
1, 1644611, Control_c, 0, 64, 58
1, 1644626, Control_c, 0, 64, 44
1, 1644628, Note_off_c, 0, 67, 62
1, 1644637, Note_on_c, 0, 63, 59
1, 1644640, Control_c, 0, 64, 44
1, 1644651, Note_on_c, 0, 43, 56
1, 1644655, Control_c, 0, 64, 54
1, 1644670, Control_c, 0, 64, 66
1, 1644682, Note_off_c, 0, 43, 64
1, 1644685, Control_c, 0, 64, 81
1, 1644700, Control_c, 0, 64, 127
1, 1644710, Note_on_c, 0, 67, 56
1, 1644713, Note_off_c, 0, 75, 59
1, 1644718, Note_off_c, 0, 70, 60
1, 1644722, Note_off_c, 0, 63, 56
1, 1644739, Note_off_c, 0, 67, 61
1, 1644789, Control_c, 0, 64, 107
1, 1644793, Note_on_c, 0, 74, 77
1, 1644796, Note_on_c, 0, 70, 74
1, 1644804, Control_c, 0, 64, 75
1, 1644819, Control_c, 0, 64, 58
1, 1644833, Control_c, 0, 64, 55
1, 1644848, Control_c, 0, 64, 60
1, 1644863, Control_c, 0, 64, 69
1, 1644878, Control_c, 0, 64, 83
1, 1644893, Control_c, 0, 64, 127
1, 1644910, Note_on_c, 0, 67, 9
1, 1644945, Note_on_c, 0, 62, 59
1, 1644956, Note_off_c, 0, 67, 0
1, 1644961, Note_on_c, 0, 46, 50
1, 1644989, Note_off_c, 0, 70, 61
1, 1644990, Note_off_c, 0, 74, 60
1, 1644992, Poly_aftertouch_c, 0, 67, 127
1, 1644995, Note_off_c, 0, 46, 62
1, 1645004, Note_off_c, 0, 62, 57
1, 1645040, Control_c, 0, 64, 76
1, 1645055, Control_c, 0, 64, 56
1, 1645056, Poly_aftertouch_c, 0, 67, 0
1, 1645070, Control_c, 0, 64, 41
1, 1645091, Note_on_c, 0, 74, 61
1, 1645100, Control_c, 0, 64, 52
1, 1645112, Note_on_c, 0, 69, 46
1, 1645114, Control_c, 0, 64, 65
1, 1645129, Control_c, 0, 64, 82
1, 1645144, Control_c, 0, 64, 120
1, 1645159, Control_c, 0, 64, 127
1, 1645213, Note_off_c, 0, 69, 55
1, 1645215, Note_on_c, 0, 66, 47
1, 1645240, Note_off_c, 0, 66, 57
1, 1645243, Note_on_c, 0, 62, 55
1, 1645271, Note_on_c, 0, 50, 54
1, 1645300, Note_off_c, 0, 50, 64
1, 1645312, Note_on_c, 0, 66, 69
1, 1645330, Note_off_c, 0, 62, 48
1, 1645368, Note_off_c, 0, 66, 63
1, 1645375, Note_off_c, 0, 74, 47
1, 1645406, Note_on_c, 0, 72, 74
1, 1645449, Control_c, 0, 64, 92
1, 1645463, Control_c, 0, 64, 69
1, 1645478, Control_c, 0, 64, 53
1, 1645493, Control_c, 0, 64, 37
1, 1645495, Note_on_c, 0, 69, 54
1, 1645508, Control_c, 0, 64, 0
1, 1645527, Note_off_c, 0, 69, 65
1, 1645553, Note_on_c, 0, 62, 54
1, 1645588, Note_on_c, 0, 54, 59
1, 1645615, Note_off_c, 0, 54, 66
1, 1645620, Note_on_c, 0, 69, 46
1, 1645620, Note_off_c, 0, 72, 55
1, 1645640, Note_off_c, 0, 62, 57
1, 1645670, Note_on_c, 0, 72, 53
1, 1645685, Note_off_c, 0, 69, 64
1, 1645773, Note_on_c, 0, 67, 66
1, 1645815, Note_off_c, 0, 67, 62
1, 1645857, Note_on_c, 0, 62, 50
1, 1645885, Note_on_c, 0, 55, 50
1, 1645925, Note_off_c, 0, 62, 51
1, 1645940, Note_off_c, 0, 55, 63
1, 1645951, Note_on_c, 0, 67, 29
1, 1645991, Note_off_c, 0, 67, 51
1, 1646018, Note_on_c, 0, 70, 61
1, 1646030, Note_off_c, 0, 72, 58
1, 1646052, Note_on_c, 0, 57, 54
1, 1646080, Note_off_c, 0, 57, 64
1, 1646110, Note_on_c, 0, 67, 51
1, 1646159, Note_off_c, 0, 67, 58
1, 1646192, Note_on_c, 0, 58, 45
1, 1646201, Note_on_c, 0, 62, 43
1, 1646220, Note_off_c, 0, 58, 58
1, 1646286, Note_on_c, 0, 67, 49
1, 1646298, Note_off_c, 0, 62, 52
1, 1646341, Note_off_c, 0, 70, 51
1, 1646354, Note_off_c, 0, 67, 57
1, 1646365, Note_on_c, 0, 72, 64
1, 1646395, Note_on_c, 0, 48, 47
1, 1646491, Note_off_c, 0, 48, 61
1, 1646513, Note_on_c, 0, 70, 42
1, 1646581, Note_off_c, 0, 70, 55
1, 1646619, Note_on_c, 0, 67, 45
1, 1646674, Note_off_c, 0, 67, 55
1, 1646710, Note_on_c, 0, 70, 49
1, 1646753, Note_off_c, 0, 70, 60
1, 1646793, Note_off_c, 0, 72, 55
1, 1646795, Note_on_c, 0, 74, 68
1, 1646797, Control_c, 0, 64, 31
1, 1646811, Control_c, 0, 64, 36
1, 1646826, Control_c, 0, 64, 41
1, 1646841, Control_c, 0, 64, 42
1, 1646856, Control_c, 0, 64, 43
1, 1646871, Control_c, 0, 64, 45
1, 1646885, Control_c, 0, 64, 50
1, 1646900, Control_c, 0, 64, 57
1, 1646915, Control_c, 0, 64, 59
1, 1646917, Note_on_c, 0, 69, 50
1, 1646923, Note_on_c, 0, 53, 52
1, 1646966, Note_off_c, 0, 53, 64
1, 1646989, Control_c, 0, 64, 61
1, 1646997, Note_off_c, 0, 69, 37
1, 1647030, Note_on_c, 0, 65, 46
1, 1647050, Control_c, 0, 64, 61
1, 1647065, Control_c, 0, 64, 62
1, 1647080, Control_c, 0, 64, 63
1, 1647095, Control_c, 0, 64, 63
1, 1647124, Control_c, 0, 64, 64
1, 1647139, Control_c, 0, 64, 64
1, 1647150, Note_on_c, 0, 69, 43
1, 1647154, Control_c, 0, 64, 65
1, 1647168, Control_c, 0, 64, 66
1, 1647207, Note_off_c, 0, 65, 29
1, 1647300, Note_off_c, 0, 69, 36
1, 1647320, Note_on_c, 0, 70, 59
1, 1647421, Control_c, 0, 64, 66
1, 1647442, Control_c, 0, 64, 64
1, 1647454, Note_off_c, 0, 74, 33
1, 1647457, Control_c, 0, 64, 60
1, 1647472, Control_c, 0, 64, 58
1, 1647487, Control_c, 0, 64, 57
1, 1647495, Note_on_c, 0, 65, 34
1, 1647517, Control_c, 0, 64, 59
1, 1647532, Control_c, 0, 64, 62
1, 1647547, Control_c, 0, 64, 65
1, 1647548, Note_off_c, 0, 65, 44
1, 1647561, Control_c, 0, 64, 69
1, 1647576, Control_c, 0, 64, 74
1, 1647583, Note_on_c, 0, 58, 43
1, 1647583, Note_on_c, 0, 62, 44
1, 1647591, Control_c, 0, 64, 79
1, 1647606, Control_c, 0, 64, 83
1, 1647621, Control_c, 0, 64, 89
1, 1647635, Control_c, 0, 64, 93
1, 1647643, Note_off_c, 0, 62, 56
1, 1647650, Control_c, 0, 64, 97
1, 1647665, Control_c, 0, 64, 101
1, 1647666, Note_off_c, 0, 58, 58
1, 1647680, Control_c, 0, 64, 106
1, 1647695, Control_c, 0, 64, 110
1, 1647698, Note_on_c, 0, 65, 46
1, 1647709, Control_c, 0, 64, 117
1, 1647724, Control_c, 0, 64, 127
1, 1647758, Note_off_c, 0, 70, 58
1, 1647759, Note_off_c, 0, 65, 48
1, 1647765, Note_on_c, 0, 72, 64
1, 1647864, Note_on_c, 0, 67, 50
1, 1647873, Control_c, 0, 64, 85
1, 1647888, Control_c, 0, 64, 67
1, 1647903, Control_c, 0, 64, 57
1, 1647910, Note_off_c, 0, 67, 50
1, 1647918, Control_c, 0, 64, 57
1, 1647932, Control_c, 0, 64, 61
1, 1647940, Note_on_c, 0, 63, 58
1, 1647947, Control_c, 0, 64, 68
1, 1647954, Note_on_c, 0, 51, 54
1, 1647962, Control_c, 0, 64, 80
1, 1647977, Control_c, 0, 64, 108
1, 1647991, Control_c, 0, 64, 127
1, 1648016, Note_on_c, 0, 67, 56
1, 1648017, Note_off_c, 0, 51, 59
1, 1648024, Note_off_c, 0, 63, 52
1, 1648080, Note_off_c, 0, 67, 59
1, 1648100, Note_on_c, 0, 74, 74
1, 1648125, Control_c, 0, 64, 88
1, 1648137, Note_off_c, 0, 72, 0
1, 1648140, Control_c, 0, 64, 68
1, 1648155, Control_c, 0, 64, 59
1, 1648173, Poly_aftertouch_c, 0, 72, 0
1, 1648174, Note_on_c, 0, 68, 66
1, 1648191, Control_c, 0, 64, 65
1, 1648206, Control_c, 0, 64, 75
1, 1648221, Control_c, 0, 64, 95
1, 1648236, Control_c, 0, 64, 127
1, 1648238, Note_off_c, 0, 68, 51
1, 1648268, Note_on_c, 0, 65, 60
1, 1648277, Note_on_c, 0, 46, 53
1, 1648330, Note_off_c, 0, 46, 55
1, 1648331, Note_off_c, 0, 74, 61
1, 1648338, Note_off_c, 0, 65, 56
1, 1648340, Note_on_c, 0, 68, 67
1, 1648375, Note_off_c, 0, 68, 59
1, 1648384, Control_c, 0, 64, 93
1, 1648399, Control_c, 0, 64, 71
1, 1648403, Note_on_c, 0, 74, 77
1, 1648414, Control_c, 0, 64, 66
1, 1648429, Control_c, 0, 64, 70
1, 1648444, Control_c, 0, 64, 82
1, 1648458, Control_c, 0, 64, 127
1, 1648475, Note_on_c, 0, 68, 76
1, 1648488, Control_c, 0, 67, 115
1, 1648503, Control_c, 0, 67, 103
1, 1648517, Control_c, 0, 67, 99
1, 1648536, Note_off_c, 0, 68, 59
1, 1648563, Note_on_c, 0, 65, 64
1, 1648569, Note_on_c, 0, 46, 51
1, 1648607, Control_c, 0, 67, 101
1, 1648638, Note_off_c, 0, 65, 55
1, 1648641, Note_off_c, 0, 74, 57
1, 1648651, Note_on_c, 0, 68, 62
1, 1648681, Control_c, 0, 67, 104
1, 1648688, Note_off_c, 0, 46, 26
1, 1648720, Note_off_c, 0, 68, 59
1, 1648733, Note_on_c, 0, 74, 73
1, 1648755, Control_c, 0, 67, 108
1, 1648800, Control_c, 0, 64, 78
1, 1648814, Control_c, 0, 64, 59
1, 1648829, Control_c, 0, 64, 44
1, 1648829, Control_c, 0, 67, 111
1, 1648838, Note_on_c, 0, 68, 57
1, 1648844, Control_c, 0, 64, 41
1, 1648859, Control_c, 0, 64, 46
1, 1648873, Note_off_c, 0, 68, 63
1, 1648874, Control_c, 0, 64, 57
1, 1648888, Control_c, 0, 64, 68
1, 1648888, Control_c, 0, 67, 109
1, 1648903, Control_c, 0, 64, 81
1, 1648904, Note_on_c, 0, 65, 60
1, 1648918, Note_on_c, 0, 39, 38
1, 1648918, Control_c, 0, 64, 100
1, 1648940, Control_c, 0, 64, 115
1, 1648955, Control_c, 0, 64, 127
1, 1648955, Control_c, 0, 67, 107
1, 1648963, Note_off_c, 0, 39, 45
1, 1648990, Note_on_c, 0, 68, 68
1, 1649005, Note_off_c, 0, 65, 52
1, 1649049, Note_off_c, 0, 68, 60
1, 1649052, Note_on_c, 0, 75, 83
1, 1649072, Note_off_c, 0, 74, 59
1, 1649074, Control_c, 0, 64, 115
1, 1649088, Control_c, 0, 64, 83
1, 1649103, Control_c, 0, 64, 69
1, 1649118, Control_c, 0, 64, 68
1, 1649131, Note_on_c, 0, 70, 74
1, 1649133, Control_c, 0, 64, 72
1, 1649148, Control_c, 0, 64, 84
1, 1649162, Control_c, 0, 64, 110
1, 1649162, Control_c, 0, 67, 105
1, 1649177, Control_c, 0, 64, 127
1, 1649177, Control_c, 0, 67, 103
1, 1649190, Note_off_c, 0, 70, 62
1, 1649213, Note_on_c, 0, 67, 67
1, 1649233, Note_on_c, 0, 39, 60
1, 1649267, Control_c, 0, 67, 101
1, 1649285, Note_off_c, 0, 39, 60
1, 1649291, Note_on_c, 0, 70, 64
1, 1649306, Note_off_c, 0, 67, 30
1, 1649309, Note_off_c, 0, 75, 56
1, 1649327, Note_off_c, 0, 70, 64
1, 1649360, Note_on_c, 0, 74, 79
1, 1649370, Control_c, 0, 67, 104
1, 1649385, Control_c, 0, 64, 112
1, 1649401, Control_c, 0, 64, 73
1, 1649416, Control_c, 0, 64, 50
1, 1649430, Control_c, 0, 64, 36
1, 1649431, Note_on_c, 0, 70, 73
1, 1649445, Control_c, 0, 64, 35
1, 1649460, Control_c, 0, 64, 42
1, 1649475, Control_c, 0, 64, 57
1, 1649475, Control_c, 0, 67, 99
1, 1649488, Note_off_c, 0, 70, 63
1, 1649490, Control_c, 0, 64, 71
1, 1649504, Control_c, 0, 64, 91
1, 1649514, Note_on_c, 0, 65, 69
1, 1649519, Control_c, 0, 64, 127
1, 1649519, Control_c, 0, 67, 97
1, 1649534, Control_c, 0, 67, 91
1, 1649538, Note_on_c, 0, 41, 69
1, 1649548, Control_c, 0, 67, 78
1, 1649563, Control_c, 0, 67, 53
1, 1649571, Note_off_c, 0, 41, 62
1, 1649578, Control_c, 0, 67, 38
1, 1649583, Note_on_c, 0, 70, 60
1, 1649593, Control_c, 0, 67, 0
1, 1649601, Note_off_c, 0, 65, 58
1, 1649617, Note_off_c, 0, 70, 63
1, 1649658, Note_on_c, 0, 72, 79
1, 1649705, Control_c, 0, 64, 97
1, 1649719, Control_c, 0, 64, 68
1, 1649734, Control_c, 0, 64, 43
1, 1649743, Note_on_c, 0, 69, 76
1, 1649749, Control_c, 0, 64, 29
1, 1649763, Control_c, 0, 64, 34
1, 1649777, Note_off_c, 0, 74, 42
1, 1649778, Control_c, 0, 64, 51
1, 1649793, Control_c, 0, 64, 72
1, 1649806, Note_off_c, 0, 69, 61
1, 1649808, Control_c, 0, 64, 127
1, 1649815, Note_on_c, 0, 65, 74
1, 1649858, Note_on_c, 0, 41, 64
1, 1649884, Note_on_c, 0, 69, 71
1, 1649884, Note_off_c, 0, 41, 66
1, 1649896, Note_off_c, 0, 65, 55
1, 1649936, Note_off_c, 0, 69, 61
1, 1649948, Note_off_c, 0, 72, 61
1, 1649961, Note_on_c, 0, 74, 77
1, 1650000, Control_c, 0, 64, 85
1, 1650015, Control_c, 0, 64, 61
1, 1650030, Control_c, 0, 64, 33
1, 1650045, Control_c, 0, 64, 28
1, 1650048, Note_on_c, 0, 70, 76
1, 1650060, Control_c, 0, 64, 38
1, 1650075, Control_c, 0, 64, 56
1, 1650089, Control_c, 0, 64, 72
1, 1650104, Control_c, 0, 64, 100
1, 1650109, Note_off_c, 0, 70, 64
1, 1650119, Note_on_c, 0, 68, 75
1, 1650119, Control_c, 0, 64, 127
1, 1650134, Note_on_c, 0, 46, 63
1, 1650169, Note_off_c, 0, 46, 62
1, 1650188, Note_on_c, 0, 70, 77
1, 1650212, Note_off_c, 0, 68, 53
1, 1650236, Note_off_c, 0, 70, 63
1, 1650267, Note_on_c, 0, 75, 91
1, 1650268, Control_c, 0, 64, 92
1, 1650283, Control_c, 0, 64, 66
1, 1650293, Note_off_c, 0, 74, 57
1, 1650298, Control_c, 0, 64, 50
1, 1650313, Control_c, 0, 64, 50
1, 1650327, Control_c, 0, 64, 60
1, 1650341, Note_on_c, 0, 72, 75
1, 1650342, Control_c, 0, 64, 72
1, 1650357, Control_c, 0, 64, 104
1, 1650371, Control_c, 0, 64, 127
1, 1650436, Note_off_c, 0, 72, 61
1, 1650437, Note_on_c, 0, 68, 75
1, 1650451, Note_on_c, 0, 58, 64
1, 1650492, Note_off_c, 0, 58, 53
1, 1650501, Note_on_c, 0, 72, 71
1, 1650525, Note_off_c, 0, 68, 58
1, 1650560, Note_off_c, 0, 72, 62
1, 1650569, Note_off_c, 0, 75, 60
1, 1650586, Control_c, 0, 64, 86
1, 1650588, Note_on_c, 0, 77, 88
1, 1650601, Control_c, 0, 64, 62
1, 1650616, Control_c, 0, 64, 43
1, 1650631, Control_c, 0, 64, 45
1, 1650646, Control_c, 0, 64, 57
1, 1650660, Control_c, 0, 64, 69
1, 1650674, Note_on_c, 0, 74, 70
1, 1650675, Control_c, 0, 64, 94
1, 1650690, Control_c, 0, 64, 127
1, 1650716, Note_off_c, 0, 74, 60
1, 1650736, Note_on_c, 0, 68, 62
1, 1650795, Note_on_c, 0, 58, 48
1, 1650799, Note_off_c, 0, 77, 62
1, 1650808, Note_on_c, 0, 74, 75
1, 1650822, Note_off_c, 0, 68, 49
1, 1650841, Note_off_c, 0, 58, 53
1, 1650866, Note_off_c, 0, 74, 51
1, 1650876, Note_on_c, 0, 77, 93
1, 1650897, Control_c, 0, 64, 111
1, 1650912, Control_c, 0, 64, 74
1, 1650927, Control_c, 0, 64, 57
1, 1650942, Control_c, 0, 64, 51
1, 1650957, Control_c, 0, 64, 56
1, 1650968, Note_on_c, 0, 74, 78
1, 1650972, Control_c, 0, 64, 65
1, 1650986, Control_c, 0, 64, 82
1, 1651002, Control_c, 0, 64, 127
1, 1651034, Note_off_c, 0, 74, 63
1, 1651037, Note_on_c, 0, 68, 62
1, 1651068, Note_on_c, 0, 58, 50
1, 1651078, Note_off_c, 0, 68, 0
1, 1651101, Note_on_c, 0, 74, 77
1, 1651104, Note_off_c, 0, 58, 52
1, 1651121, Note_off_c, 0, 77, 61
1, 1651133, Poly_aftertouch_c, 0, 68, 0
1, 1651204, Note_off_c, 0, 74, 59
1, 1651207, Note_on_c, 0, 77, 85
1, 1651246, Control_c, 0, 64, 96
1, 1651246, Control_c, 0, 67, 37
1, 1651261, Control_c, 0, 64, 68
1, 1651261, Control_c, 0, 67, 72
1, 1651276, Control_c, 0, 64, 48
1, 1651276, Control_c, 0, 67, 90
1, 1651291, Control_c, 0, 64, 34
1, 1651291, Control_c, 0, 67, 91
1, 1651306, Control_c, 0, 64, 32
1, 1651306, Control_c, 0, 67, 93
1, 1651317, Note_on_c, 0, 74, 55
1, 1651321, Control_c, 0, 64, 39
1, 1651321, Control_c, 0, 67, 97
1, 1651335, Control_c, 0, 64, 53
1, 1651335, Control_c, 0, 67, 113
1, 1651347, Note_off_c, 0, 74, 56
1, 1651350, Control_c, 0, 64, 66
1, 1651350, Control_c, 0, 67, 127
1, 1651362, Note_on_c, 0, 68, 58
1, 1651365, Control_c, 0, 64, 75
1, 1651380, Control_c, 0, 64, 84
1, 1651395, Control_c, 0, 64, 90
1, 1651409, Control_c, 0, 64, 95
1, 1651413, Note_on_c, 0, 51, 49
1, 1651424, Control_c, 0, 64, 101
1, 1651432, Note_on_c, 0, 74, 70
1, 1651438, Note_off_c, 0, 68, 36
1, 1651439, Control_c, 0, 64, 109
1, 1651454, Control_c, 0, 64, 127
1, 1651470, Note_off_c, 0, 51, 57
1, 1651491, Note_off_c, 0, 74, 52
1, 1651527, Note_on_c, 0, 79, 75
1, 1651546, Note_off_c, 0, 77, 57
1, 1651557, Control_c, 0, 64, 82
1, 1651572, Control_c, 0, 64, 64
1, 1651587, Control_c, 0, 64, 54
1, 1651616, Control_c, 0, 64, 59
1, 1651631, Control_c, 0, 64, 66
1, 1651634, Note_on_c, 0, 75, 55
1, 1651646, Control_c, 0, 64, 75
1, 1651661, Control_c, 0, 64, 92
1, 1651675, Control_c, 0, 64, 104
1, 1651682, Note_off_c, 0, 75, 56
1, 1651690, Control_c, 0, 64, 109
1, 1651705, Control_c, 0, 64, 121
1, 1651710, Note_on_c, 0, 67, 45
1, 1651716, Note_on_c, 0, 51, 42
1, 1651720, Control_c, 0, 64, 127
1, 1651773, Note_off_c, 0, 67, 56
1, 1651795, Note_on_c, 0, 75, 65
1, 1651836, Note_off_c, 0, 75, 59
1, 1651869, Control_c, 0, 64, 101
1, 1651875, Note_off_c, 0, 51, 0
1, 1651875, Note_on_c, 0, 77, 70
1, 1651884, Control_c, 0, 64, 74
1, 1651899, Control_c, 0, 64, 61
1, 1651903, Poly_aftertouch_c, 0, 51, 0
1, 1651905, Note_off_c, 0, 79, 61
1, 1651914, Control_c, 0, 64, 57
1, 1651936, Control_c, 0, 64, 58
1, 1651951, Control_c, 0, 64, 63
1, 1651965, Control_c, 0, 64, 72
1, 1651969, Note_on_c, 0, 74, 54
1, 1651980, Control_c, 0, 64, 87
1, 1651995, Control_c, 0, 64, 103
1, 1652005, Note_off_c, 0, 74, 50
1, 1652010, Control_c, 0, 64, 109
1, 1652025, Control_c, 0, 64, 115
1, 1652039, Control_c, 0, 64, 127
1, 1652054, Note_on_c, 0, 70, 65
1, 1652082, Note_on_c, 0, 53, 47
1, 1652094, Note_off_c, 0, 77, 57
1, 1652103, Note_off_c, 0, 70, 48
1, 1652138, Note_on_c, 0, 74, 47
1, 1652182, Note_off_c, 0, 53, 36
1, 1652197, Note_off_c, 0, 74, 62
1, 1652203, Control_c, 0, 64, 99
1, 1652207, Note_on_c, 0, 77, 72
1, 1652218, Control_c, 0, 64, 76
1, 1652232, Control_c, 0, 64, 65
1, 1652247, Control_c, 0, 64, 63
1, 1652262, Control_c, 0, 64, 69
1, 1652277, Control_c, 0, 64, 80
1, 1652292, Control_c, 0, 64, 104
1, 1652306, Control_c, 0, 64, 127
1, 1652321, Note_on_c, 0, 72, 62
1, 1652359, Note_off_c, 0, 72, 55
1, 1652417, Note_on_c, 0, 69, 61
1, 1652449, Note_on_c, 0, 53, 50
1, 1652477, Note_off_c, 0, 53, 63
1, 1652497, Note_on_c, 0, 72, 57
1, 1652501, Note_off_c, 0, 77, 46
1, 1652544, Note_off_c, 0, 69, 37
1, 1652585, Note_off_c, 0, 72, 51
1, 1652623, Note_on_c, 0, 77, 54
1, 1652728, Note_on_c, 0, 58, 55
1, 1652729, Control_c, 0, 64, 110
1, 1652744, Control_c, 0, 64, 75
1, 1652759, Control_c, 0, 64, 58
1, 1652774, Control_c, 0, 64, 47
1, 1652788, Control_c, 0, 64, 48
1, 1652791, Note_on_c, 0, 74, 43
1, 1652803, Control_c, 0, 64, 54
1, 1652818, Control_c, 0, 64, 63
1, 1652832, Note_off_c, 0, 74, 56
1, 1652833, Control_c, 0, 64, 72
1, 1652848, Control_c, 0, 64, 84
1, 1652862, Control_c, 0, 64, 92
1, 1652877, Control_c, 0, 64, 94
1, 1652892, Note_on_c, 0, 70, 55
1, 1652892, Control_c, 0, 64, 98
1, 1652906, Control_c, 0, 64, 108
1, 1652921, Control_c, 0, 64, 127
1, 1652956, Note_on_c, 0, 74, 53
1, 1652957, Note_off_c, 0, 77, 63
1, 1653015, Note_off_c, 0, 70, 39
1, 1653022, Note_off_c, 0, 74, 63
1, 1653067, Note_on_c, 0, 82, 79
1, 1653085, Control_c, 0, 64, 79
1, 1653091, Note_on_c, 0, 62, 60
1, 1653100, Control_c, 0, 64, 62
1, 1653115, Control_c, 0, 64, 53
1, 1653130, Control_c, 0, 64, 54
1, 1653145, Control_c, 0, 64, 62
1, 1653160, Control_c, 0, 64, 73
1, 1653174, Control_c, 0, 64, 95
1, 1653185, Note_on_c, 0, 77, 15
1, 1653189, Control_c, 0, 64, 127
1, 1653230, Note_off_c, 0, 77, 50
1, 1653240, Note_on_c, 0, 70, 62
1, 1653313, Note_on_c, 0, 77, 63
1, 1653316, Note_off_c, 0, 70, 55
1, 1653362, Note_off_c, 0, 82, 49
1, 1653397, Control_c, 0, 64, 101
1, 1653404, Note_off_c, 0, 77, 62
1, 1653406, Note_on_c, 0, 81, 73
1, 1653412, Control_c, 0, 64, 71
1, 1653434, Note_off_c, 0, 62, 60
1, 1653434, Control_c, 0, 64, 53
1, 1653448, Note_on_c, 0, 65, 41
1, 1653449, Control_c, 0, 64, 41
1, 1653464, Control_c, 0, 64, 40
1, 1653479, Control_c, 0, 64, 46
1, 1653494, Control_c, 0, 64, 60
1, 1653508, Note_on_c, 0, 77, 57
1, 1653509, Control_c, 0, 64, 70
1, 1653524, Control_c, 0, 64, 81
1, 1653538, Control_c, 0, 64, 92
1, 1653553, Control_c, 0, 64, 98
1, 1653553, Note_off_c, 0, 77, 53
1, 1653568, Control_c, 0, 64, 110
1, 1653583, Control_c, 0, 64, 127
1, 1653606, Note_on_c, 0, 72, 47
1, 1653667, Note_on_c, 0, 77, 59
1, 1653680, Note_off_c, 0, 72, 36
1, 1653686, Note_off_c, 0, 81, 53
1, 1653705, Note_off_c, 0, 77, 60
1, 1653716, Control_c, 0, 64, 105
1, 1653730, Control_c, 0, 64, 80
1, 1653737, Note_on_c, 0, 84, 75
1, 1653742, Note_off_c, 0, 65, 60
1, 1653743, Note_on_c, 0, 63, 52
1, 1653745, Control_c, 0, 64, 67
1, 1653760, Control_c, 0, 64, 64
1, 1653775, Control_c, 0, 64, 69
1, 1653790, Control_c, 0, 64, 80
1, 1653804, Control_c, 0, 64, 109
1, 1653812, Note_on_c, 0, 77, 68
1, 1653819, Control_c, 0, 64, 127
1, 1653852, Note_off_c, 0, 77, 61
1, 1653904, Note_on_c, 0, 72, 62
1, 1653965, Note_off_c, 0, 72, 47
1, 1653971, Note_off_c, 0, 84, 51
1, 1653980, Note_on_c, 0, 77, 47
1, 1653999, Note_off_c, 0, 77, 61
1, 1654042, Control_c, 0, 64, 101
1, 1654051, Note_on_c, 0, 62, 48
1, 1654057, Control_c, 0, 64, 74
1, 1654058, Note_on_c, 0, 77, 77
1, 1654063, Note_off_c, 0, 58, 62
1, 1654071, Control_c, 0, 64, 59
1, 1654072, Note_off_c, 0, 63, 63
1, 1654086, Control_c, 0, 64, 46
1, 1654101, Control_c, 0, 64, 33
1, 1654116, Control_c, 0, 64, 0
1, 1654145, Note_on_c, 0, 74, 54
1, 1654213, Note_off_c, 0, 74, 52
1, 1654235, Note_on_c, 0, 70, 55
1, 1654288, Note_on_c, 0, 74, 62
1, 1654302, Note_off_c, 0, 70, 48
1, 1654349, Note_off_c, 0, 77, 57
1, 1654370, Note_off_c, 0, 74, 63
1, 1654381, Note_on_c, 0, 79, 63
1, 1654382, Note_on_c, 0, 58, 43
1, 1654383, Note_on_c, 0, 51, 41
1, 1654393, Note_off_c, 0, 62, 38
1, 1654489, Note_on_c, 0, 75, 54
1, 1654526, Note_off_c, 0, 75, 62
1, 1654566, Note_on_c, 0, 70, 52
1, 1654618, Note_off_c, 0, 70, 55
1, 1654640, Note_on_c, 0, 75, 48
1, 1654691, Note_on_c, 0, 57, 38
1, 1654695, Note_off_c, 0, 75, 62
1, 1654701, Note_off_c, 0, 79, 52
1, 1654710, Note_on_c, 0, 77, 58
1, 1654710, Note_off_c, 0, 51, 61
1, 1654714, Note_on_c, 0, 53, 40
1, 1654728, Note_off_c, 0, 58, 61
1, 1654811, Note_on_c, 0, 75, 55
1, 1654858, Note_off_c, 0, 75, 58
1, 1654895, Note_on_c, 0, 72, 52
1, 1654949, Note_off_c, 0, 72, 55
1, 1654957, Note_off_c, 0, 77, 56
1, 1654982, Note_on_c, 0, 75, 51
1, 1655041, Note_off_c, 0, 75, 61
1, 1655069, Note_on_c, 0, 77, 56
1, 1655074, Note_on_c, 0, 60, 39
1, 1655080, Control_c, 0, 64, 34
1, 1655094, Control_c, 0, 64, 53
1, 1655109, Control_c, 0, 64, 63
1, 1655122, Note_off_c, 0, 53, 61
1, 1655124, Control_c, 0, 64, 67
1, 1655133, Note_off_c, 0, 60, 53
1, 1655139, Control_c, 0, 64, 69
1, 1655140, Note_off_c, 0, 57, 64
1, 1655154, Control_c, 0, 64, 71
1, 1655168, Control_c, 0, 64, 76
1, 1655172, Note_on_c, 0, 75, 45
1, 1655183, Control_c, 0, 64, 82
1, 1655198, Control_c, 0, 64, 87
1, 1655203, Note_off_c, 0, 75, 55
1, 1655213, Control_c, 0, 64, 91
1, 1655228, Control_c, 0, 64, 93
1, 1655241, Note_on_c, 0, 69, 48
1, 1655243, Control_c, 0, 64, 95
1, 1655257, Control_c, 0, 64, 97
1, 1655272, Control_c, 0, 64, 100
1, 1655287, Control_c, 0, 64, 103
1, 1655291, Note_off_c, 0, 69, 44
1, 1655298, Note_off_c, 0, 77, 62
1, 1655301, Control_c, 0, 64, 105
1, 1655305, Note_on_c, 0, 75, 52
1, 1655383, Note_off_c, 0, 75, 63
1, 1655390, Control_c, 0, 64, 107
1, 1655409, Note_on_c, 0, 77, 47
1, 1655421, Note_on_c, 0, 58, 46
1, 1655435, Control_c, 0, 64, 91
1, 1655449, Control_c, 0, 64, 71
1, 1655464, Control_c, 0, 64, 54
1, 1655479, Control_c, 0, 64, 42
1, 1655509, Control_c, 0, 64, 49
1, 1655518, Note_on_c, 0, 74, 45
1, 1655524, Control_c, 0, 64, 58
1, 1655539, Control_c, 0, 64, 65
1, 1655554, Control_c, 0, 64, 68
1, 1655568, Control_c, 0, 64, 69
1, 1655579, Note_off_c, 0, 74, 56
1, 1655598, Control_c, 0, 64, 69
1, 1655613, Control_c, 0, 64, 70
1, 1655616, Note_on_c, 0, 70, 51
1, 1655628, Control_c, 0, 64, 72
1, 1655642, Control_c, 0, 64, 74
1, 1655657, Control_c, 0, 64, 75
1, 1655661, Note_off_c, 0, 70, 48
1, 1655679, Control_c, 0, 64, 76
1, 1655691, Note_on_c, 0, 74, 56
1, 1655694, Control_c, 0, 64, 76
1, 1655723, Control_c, 0, 64, 74
1, 1655726, Note_off_c, 0, 77, 45
1, 1655727, Note_off_c, 0, 74, 51
1, 1655738, Control_c, 0, 64, 64
1, 1655739, Note_on_c, 0, 62, 59
1, 1655749, Note_on_c, 0, 82, 67
1, 1655753, Control_c, 0, 64, 49
1, 1655768, Control_c, 0, 64, 32
1, 1655783, Control_c, 0, 64, 0
1, 1655854, Note_on_c, 0, 77, 45
1, 1655931, Note_off_c, 0, 77, 63
1, 1655953, Note_on_c, 0, 70, 45
1, 1656026, Note_off_c, 0, 70, 57
1, 1656027, Note_on_c, 0, 77, 46
1, 1656027, Note_off_c, 0, 82, 49
1, 1656110, Note_off_c, 0, 77, 61
1, 1656119, Note_on_c, 0, 65, 45
1, 1656120, Note_off_c, 0, 62, 61
1, 1656125, Note_on_c, 0, 81, 60
1, 1656237, Note_on_c, 0, 77, 43
1, 1656261, Note_on_c, 0, 66, 61
1, 1656270, Note_off_c, 0, 77, 54
1, 1656296, Note_off_c, 0, 65, 44
1, 1656301, Note_on_c, 0, 72, 58
1, 1656337, Note_off_c, 0, 72, 57
1, 1656374, Note_on_c, 0, 77, 57
1, 1656398, Note_off_c, 0, 81, 28
1, 1656443, Note_off_c, 0, 77, 62
1, 1656453, Note_on_c, 0, 65, 50
1, 1656460, Note_on_c, 0, 84, 71
1, 1656472, Note_off_c, 0, 66, 64
1, 1656516, Control_c, 0, 64, 28
1, 1656540, Note_on_c, 0, 77, 71
1, 1656546, Control_c, 0, 64, 33
1, 1656561, Control_c, 0, 64, 43
1, 1656576, Control_c, 0, 64, 56
1, 1656576, Note_off_c, 0, 77, 63
1, 1656591, Control_c, 0, 64, 67
1, 1656606, Control_c, 0, 64, 78
1, 1656609, Note_on_c, 0, 63, 63
1, 1656610, Note_on_c, 0, 72, 58
1, 1656612, Note_off_c, 0, 65, 60
1, 1656621, Control_c, 0, 64, 94
1, 1656636, Control_c, 0, 64, 121
1, 1656650, Control_c, 0, 64, 127
1, 1656673, Note_off_c, 0, 84, 56
1, 1656677, Note_on_c, 0, 77, 61
1, 1656691, Note_off_c, 0, 72, 52
1, 1656705, Note_off_c, 0, 77, 66
1, 1656764, Note_off_c, 0, 58, 62
1, 1656771, Note_on_c, 0, 77, 71
1, 1656784, Control_c, 0, 64, 109
1, 1656785, Note_on_c, 0, 62, 58
1, 1656799, Control_c, 0, 64, 82
1, 1656801, Note_off_c, 0, 63, 62
1, 1656814, Control_c, 0, 64, 68
1, 1656828, Control_c, 0, 64, 60
1, 1656843, Control_c, 0, 64, 56
1, 1656858, Note_on_c, 0, 74, 60
1, 1656858, Control_c, 0, 64, 55
1, 1656887, Control_c, 0, 64, 54
1, 1656902, Control_c, 0, 64, 52
1, 1656917, Control_c, 0, 64, 50
1, 1656932, Control_c, 0, 64, 49
1, 1656958, Note_off_c, 0, 74, 53
1, 1656961, Note_on_c, 0, 70, 52
1, 1656991, Control_c, 0, 64, 47
1, 1657006, Control_c, 0, 64, 44
1, 1657010, Note_on_c, 0, 74, 39
1, 1657011, Note_off_c, 0, 70, 54
1, 1657020, Control_c, 0, 64, 43
1, 1657027, Note_off_c, 0, 77, 62
1, 1657065, Control_c, 0, 64, 42
1, 1657080, Control_c, 0, 64, 40
1, 1657095, Control_c, 0, 64, 40
1, 1657107, Note_on_c, 0, 51, 46
1, 1657114, Note_on_c, 0, 78, 68
1, 1657118, Note_off_c, 0, 74, 61
1, 1657120, Note_off_c, 0, 62, 44
1, 1657129, Note_on_c, 0, 58, 34
1, 1657139, Control_c, 0, 64, 39
1, 1657235, Note_on_c, 0, 75, 57
1, 1657272, Note_off_c, 0, 75, 61
1, 1657333, Note_on_c, 0, 70, 42
1, 1657354, Control_c, 0, 64, 40
1, 1657369, Control_c, 0, 64, 40
1, 1657384, Control_c, 0, 64, 41
1, 1657393, Note_on_c, 0, 75, 58
1, 1657399, Note_off_c, 0, 70, 54
1, 1657430, Note_off_c, 0, 78, 59
1, 1657482, Note_off_c, 0, 75, 61
1, 1657493, Note_on_c, 0, 57, 36
1, 1657501, Note_on_c, 0, 53, 35
1, 1657502, Note_on_c, 0, 77, 47
1, 1657515, Note_off_c, 0, 51, 59
1, 1657518, Control_c, 0, 64, 41
1, 1657527, Note_off_c, 0, 58, 54
1, 1657608, Note_on_c, 0, 75, 52
1, 1657622, Control_c, 0, 64, 42
1, 1657681, Control_c, 0, 64, 42
1, 1657685, Note_off_c, 0, 75, 55
1, 1657695, Control_c, 0, 64, 43
1, 1657716, Note_on_c, 0, 72, 42
1, 1657755, Control_c, 0, 64, 43
1, 1657769, Note_off_c, 0, 77, 50
1, 1657784, Control_c, 0, 64, 44
1, 1657818, Note_on_c, 0, 75, 39
1, 1657848, Note_off_c, 0, 72, 36
1, 1657873, Control_c, 0, 64, 45
1, 1657925, Control_c, 0, 64, 45
1, 1657929, Note_on_c, 0, 77, 38
1, 1657940, Control_c, 0, 64, 46
1, 1657948, Note_off_c, 0, 75, 42
1, 1657955, Control_c, 0, 64, 46
1, 1658003, Note_on_c, 0, 60, 32
1, 1658014, Control_c, 0, 64, 47
1, 1658029, Control_c, 0, 64, 47
1, 1658091, Note_on_c, 0, 75, 35
1, 1658117, Control_c, 0, 64, 48
1, 1658162, Control_c, 0, 64, 48
1, 1658177, Control_c, 0, 64, 49
1, 1658192, Control_c, 0, 64, 50
1, 1658207, Control_c, 0, 64, 51
1, 1658222, Control_c, 0, 64, 51
1, 1658240, Note_off_c, 0, 75, 45
1, 1658252, Control_c, 0, 64, 52
1, 1658266, Control_c, 0, 64, 53
1, 1658281, Control_c, 0, 64, 56
1, 1658291, Note_on_c, 0, 69, 24
1, 1658296, Control_c, 0, 64, 58
1, 1658311, Control_c, 0, 64, 58
1, 1658326, Control_c, 0, 64, 59
1, 1658341, Control_c, 0, 64, 61
1, 1658356, Control_c, 0, 64, 63
1, 1658370, Control_c, 0, 64, 66
1, 1658385, Control_c, 0, 64, 70
1, 1658400, Control_c, 0, 64, 73
1, 1658415, Control_c, 0, 64, 75
1, 1658430, Control_c, 0, 64, 77
1, 1658445, Control_c, 0, 64, 79
1, 1658460, Control_c, 0, 64, 81
1, 1658474, Control_c, 0, 64, 82
1, 1658475, Note_off_c, 0, 69, 30
1, 1658489, Control_c, 0, 64, 82
1, 1658518, Control_c, 0, 64, 83
1, 1658565, Poly_aftertouch_c, 0, 75, 127
1, 1658615, Note_off_c, 0, 60, 38
1, 1658654, Note_off_c, 0, 53, 46
1, 1658693, Note_off_c, 0, 57, 41
1, 1658763, Control_c, 0, 64, 82
1, 1658778, Control_c, 0, 64, 82
1, 1658792, Control_c, 0, 64, 81
1, 1658807, Control_c, 0, 64, 80
1, 1658820, Poly_aftertouch_c, 0, 75, 0
1, 1658822, Control_c, 0, 64, 79
1, 1658837, Note_off_c, 0, 77, 39
1, 1658837, Control_c, 0, 64, 79
1, 1658851, Control_c, 0, 64, 78
1, 1658866, Control_c, 0, 64, 77
1, 1658881, Control_c, 0, 64, 77
1, 1658896, Control_c, 0, 64, 76
1, 1658911, Control_c, 0, 64, 75
1, 1658925, Control_c, 0, 64, 74
1, 1658940, Control_c, 0, 64, 73
1, 1658955, Control_c, 0, 64, 71
1, 1658970, Control_c, 0, 64, 70
1, 1658985, Control_c, 0, 64, 69
1, 1659001, Control_c, 0, 64, 68
1, 1659015, Control_c, 0, 64, 67
1, 1659030, Control_c, 0, 64, 66
1, 1659045, Control_c, 0, 64, 65
1, 1659060, Control_c, 0, 64, 64
1, 1659089, Control_c, 0, 64, 64
1, 1659119, Control_c, 0, 64, 63
1, 1659148, Control_c, 0, 64, 63
1, 1659208, Control_c, 0, 64, 62
1, 1659267, Control_c, 0, 64, 62
1, 1659297, Control_c, 0, 64, 61
1, 1659327, Control_c, 0, 64, 61
1, 1659356, Control_c, 0, 64, 60
1, 1659371, Control_c, 0, 64, 60
1, 1659401, Control_c, 0, 64, 59
1, 1659438, Control_c, 0, 64, 59
1, 1659453, Control_c, 0, 64, 58
1, 1659467, Control_c, 0, 64, 58
1, 1659497, Control_c, 0, 64, 57
1, 1659512, Control_c, 0, 64, 57
1, 1659527, Control_c, 0, 64, 56
1, 1659541, Control_c, 0, 64, 54
1, 1659556, Control_c, 0, 64, 53
1, 1659586, Control_c, 0, 64, 53
1, 1659601, Control_c, 0, 64, 51
1, 1659615, Control_c, 0, 64, 49
1, 1659630, Control_c, 0, 64, 47
1, 1659645, Control_c, 0, 64, 46
1, 1659660, Control_c, 0, 64, 44
1, 1659674, Control_c, 0, 64, 42
1, 1659689, Control_c, 0, 64, 36
1, 1659704, Control_c, 0, 64, 28
1, 1659704, Control_c, 0, 67, 124
1, 1659719, Control_c, 0, 64, 0
1, 1659719, Control_c, 0, 67, 98
1, 1659734, Control_c, 0, 67, 73
1, 1659749, Control_c, 0, 67, 49
1, 1659764, Control_c, 0, 67, 0
1, 1660466, Note_on_c, 0, 82, 87
1, 1660474, Note_on_c, 0, 77, 84
1, 1660476, Note_on_c, 0, 58, 81
1, 1660476, Note_on_c, 0, 73, 87
1, 1660481, Note_on_c, 0, 53, 75
1, 1660487, Note_on_c, 0, 46, 73
1, 1660522, Note_on_c, 0, 80, 39
1, 1660554, Note_off_c, 0, 80, 50
1, 1660676, Control_c, 0, 64, 29
1, 1660691, Control_c, 0, 64, 58
1, 1660705, Control_c, 0, 64, 77
1, 1660720, Control_c, 0, 64, 120
1, 1660735, Control_c, 0, 64, 127
1, 1660842, Note_off_c, 0, 58, 63
1, 1660846, Note_off_c, 0, 46, 61
1, 1660847, Note_off_c, 0, 73, 59
1, 1660851, Note_off_c, 0, 53, 63
1, 1660851, Note_off_c, 0, 82, 62
1, 1660857, Note_off_c, 0, 77, 58
1, 1661067, Note_on_c, 0, 82, 77
1, 1661068, Note_on_c, 0, 46, 68
1, 1661068, Note_on_c, 0, 73, 78
1, 1661070, Note_on_c, 0, 58, 74
1, 1661072, Note_on_c, 0, 77, 76
1, 1661091, Note_off_c, 0, 73, 68
1, 1661094, Note_off_c, 0, 46, 65
1, 1661095, Note_off_c, 0, 77, 71
1, 1661098, Note_off_c, 0, 58, 66
1, 1661109, Note_off_c, 0, 82, 58
1, 1661142, Note_on_c, 0, 85, 97
1, 1661144, Note_on_c, 0, 58, 94
1, 1661145, Note_on_c, 0, 46, 86
1, 1661149, Note_on_c, 0, 82, 69
1, 1661149, Note_on_c, 0, 73, 92
1, 1661153, Note_on_c, 0, 77, 88
1, 1661197, Note_off_c, 0, 73, 59
1, 1661200, Note_off_c, 0, 77, 62
1, 1661202, Note_off_c, 0, 82, 61
1, 1661270, Note_off_c, 0, 85, 61
1, 1661285, Note_off_c, 0, 58, 56
1, 1661304, Note_off_c, 0, 46, 30
1, 1661373, Note_on_c, 0, 85, 90
1, 1661374, Note_on_c, 0, 46, 79
1, 1661383, Note_on_c, 0, 77, 87
1, 1661384, Note_on_c, 0, 58, 76
1, 1661392, Note_on_c, 0, 73, 73
1, 1661405, Note_off_c, 0, 58, 71
1, 1661406, Note_off_c, 0, 46, 67
1, 1661410, Note_off_c, 0, 77, 62
1, 1661415, Note_off_c, 0, 73, 69
1, 1661431, Note_off_c, 0, 85, 63
1, 1661462, Note_on_c, 0, 77, 90
1, 1661463, Note_on_c, 0, 82, 92
1, 1661465, Note_on_c, 0, 73, 97
1, 1661466, Note_on_c, 0, 85, 53
1, 1661468, Note_on_c, 0, 49, 87
1, 1661471, Note_on_c, 0, 61, 88
1, 1661491, Note_off_c, 0, 85, 65
1, 1661497, Note_off_c, 0, 77, 64
1, 1661506, Note_off_c, 0, 73, 61
1, 1661516, Note_off_c, 0, 61, 62
1, 1661518, Note_off_c, 0, 49, 63
1, 1661521, Note_off_c, 0, 82, 62
1, 1661679, Note_on_c, 0, 49, 66
1, 1661717, Note_on_c, 0, 82, 76
1, 1661717, Note_off_c, 0, 49, 65
1, 1661718, Note_on_c, 0, 73, 77
1, 1661722, Note_on_c, 0, 77, 74
1, 1661744, Note_off_c, 0, 73, 66
1, 1661751, Note_off_c, 0, 77, 66
1, 1661784, Note_off_c, 0, 82, 0
1, 1661788, Control_c, 0, 64, 82
1, 1661794, Note_on_c, 0, 82, 66
1, 1661797, Note_on_c, 0, 73, 90
1, 1661798, Note_on_c, 0, 34, 87
1, 1661798, Note_on_c, 0, 70, 98
1, 1661803, Note_on_c, 0, 77, 77
1, 1661803, Control_c, 0, 64, 65
1, 1661805, Note_on_c, 0, 46, 78
1, 1661817, Control_c, 0, 64, 66
1, 1661832, Control_c, 0, 64, 85
1, 1661833, Note_off_c, 0, 34, 63
1, 1661841, Note_off_c, 0, 82, 52
1, 1661847, Note_off_c, 0, 46, 45
1, 1661847, Control_c, 0, 64, 127
1, 1661852, Note_off_c, 0, 70, 58
1, 1661853, Note_off_c, 0, 73, 61
1, 1661856, Note_off_c, 0, 77, 64
1, 1661993, Note_on_c, 0, 34, 77
1, 1661998, Note_on_c, 0, 46, 71
1, 1662016, Note_on_c, 0, 70, 74
1, 1662016, Note_on_c, 0, 77, 67
1, 1662019, Note_on_c, 0, 73, 65
1, 1662025, Note_off_c, 0, 34, 62
1, 1662028, Note_off_c, 0, 46, 64
1, 1662036, Note_off_c, 0, 70, 73
1, 1662041, Note_off_c, 0, 77, 68
1, 1662046, Note_off_c, 0, 73, 65
1, 1662069, Control_c, 0, 64, 85
1, 1662071, Note_on_c, 0, 65, 7
1, 1662082, Note_off_c, 0, 65, 0
1, 1662084, Control_c, 0, 64, 72
1, 1662089, Note_on_c, 0, 37, 82
1, 1662091, Note_on_c, 0, 73, 88
1, 1662094, Note_on_c, 0, 49, 81
1, 1662094, Note_on_c, 0, 65, 26
1, 1662099, Control_c, 0, 64, 75
1, 1662100, Note_on_c, 0, 70, 83
1, 1662114, Control_c, 0, 64, 117
1, 1662121, Note_off_c, 0, 70, 69
1, 1662123, Note_off_c, 0, 37, 63
1, 1662124, Note_on_c, 0, 77, 40
1, 1662125, Note_off_c, 0, 49, 60
1, 1662129, Control_c, 0, 64, 127
1, 1662131, Note_off_c, 0, 73, 63
1, 1662138, Note_off_c, 0, 65, 63
1, 1662153, Note_off_c, 0, 77, 55
1, 1662299, Note_on_c, 0, 37, 65
1, 1662304, Note_on_c, 0, 49, 59
1, 1662317, Note_on_c, 0, 73, 59
1, 1662324, Note_on_c, 0, 65, 74
1, 1662332, Note_on_c, 0, 70, 75
1, 1662345, Note_off_c, 0, 37, 62
1, 1662352, Control_c, 0, 64, 109
1, 1662353, Note_off_c, 0, 65, 65
1, 1662353, Note_off_c, 0, 49, 63
1, 1662359, Note_off_c, 0, 70, 66
1, 1662366, Control_c, 0, 64, 72
1, 1662371, Note_off_c, 0, 73, 63
1, 1662381, Control_c, 0, 64, 66
1, 1662396, Control_c, 0, 64, 81
1, 1662413, Note_on_c, 0, 70, 98
1, 1662419, Control_c, 0, 64, 127
1, 1662419, Note_on_c, 0, 53, 91
1, 1662419, Note_on_c, 0, 61, 89
1, 1662420, Note_on_c, 0, 65, 77
1, 1662421, Note_on_c, 0, 41, 82
1, 1662444, Note_off_c, 0, 61, 61
1, 1662444, Note_off_c, 0, 65, 66
1, 1662461, Note_off_c, 0, 41, 64
1, 1662470, Note_off_c, 0, 70, 65
1, 1662497, Note_off_c, 0, 53, 58
1, 1662603, Poly_aftertouch_c, 0, 65, 0
1, 1662612, Note_on_c, 0, 53, 79
1, 1662621, Note_on_c, 0, 61, 82
1, 1662621, Note_on_c, 0, 41, 73
1, 1662639, Poly_aftertouch_c, 0, 65, 127
1, 1662640, Control_c, 0, 64, 79
1, 1662643, Note_off_c, 0, 41, 72
1, 1662643, Note_off_c, 0, 53, 61
1, 1662650, Note_off_c, 0, 61, 64
1, 1662655, Control_c, 0, 64, 58
1, 1662664, Poly_aftertouch_c, 0, 65, 0
1, 1662670, Control_c, 0, 64, 56
1, 1662684, Control_c, 0, 64, 77
1, 1662699, Control_c, 0, 64, 127
1, 1662708, Note_on_c, 0, 65, 79
1, 1662712, Note_on_c, 0, 46, 90
1, 1662712, Note_on_c, 0, 58, 94
1, 1662713, Note_on_c, 0, 70, 81
1, 1662714, Note_on_c, 0, 61, 84
1, 1662737, Note_off_c, 0, 46, 70
1, 1662737, Note_off_c, 0, 58, 66
1, 1662752, Note_off_c, 0, 65, 64
1, 1662754, Note_off_c, 0, 61, 57
1, 1662757, Note_off_c, 0, 70, 58
1, 1662833, Note_on_c, 0, 65, 37
1, 1662854, Note_off_c, 0, 65, 62
1, 1662858, Poly_aftertouch_c, 0, 66, 0
1, 1662866, Note_on_c, 0, 61, 7
1, 1662892, Control_c, 0, 64, 105
1, 1662901, Note_on_c, 0, 46, 86
1, 1662907, Control_c, 0, 64, 76
1, 1662910, Note_on_c, 0, 58, 59
1, 1662913, Note_on_c, 0, 65, 74
1, 1662913, Note_off_c, 0, 61, 0
1, 1662913, Note_on_c, 0, 61, 40
1, 1662920, Note_on_c, 0, 70, 71
1, 1662922, Control_c, 0, 64, 66
1, 1662928, Note_off_c, 0, 58, 64
1, 1662931, Note_off_c, 0, 46, 65
1, 1662937, Control_c, 0, 64, 70
1, 1662940, Note_off_c, 0, 65, 64
1, 1662952, Note_off_c, 0, 61, 65
1, 1662952, Control_c, 0, 64, 105
1, 1662955, Note_off_c, 0, 70, 55
1, 1662967, Control_c, 0, 64, 127
1, 1663027, Note_on_c, 0, 51, 105
1, 1663027, Note_on_c, 0, 39, 103
1, 1663030, Note_on_c, 0, 63, 93
1, 1663031, Note_on_c, 0, 71, 93
1, 1663036, Note_on_c, 0, 66, 88
1, 1663060, Note_off_c, 0, 63, 65
1, 1663062, Note_off_c, 0, 66, 63
1, 1663086, Note_off_c, 0, 71, 65
1, 1663168, Control_c, 0, 64, 88
1, 1663183, Control_c, 0, 64, 69
1, 1663197, Control_c, 0, 64, 60
1, 1663212, Control_c, 0, 64, 52
1, 1663227, Control_c, 0, 64, 42
1, 1663242, Control_c, 0, 64, 0
1, 1663317, Note_on_c, 0, 83, 88
1, 1663380, Note_off_c, 0, 83, 58
1, 1663398, Note_on_c, 0, 87, 85
1, 1663468, Note_off_c, 0, 87, 43
1, 1663469, Note_on_c, 0, 90, 96
1, 1663521, Note_off_c, 0, 90, 65
1, 1663532, Note_off_c, 0, 39, 64
1, 1663533, Note_off_c, 0, 51, 63
1, 1663540, Note_on_c, 0, 88, 87
1, 1663568, Control_c, 0, 67, 57
1, 1663582, Control_c, 0, 67, 104
1, 1663584, Note_off_c, 0, 88, 67
1, 1663597, Control_c, 0, 67, 127
1, 1663608, Note_on_c, 0, 87, 80
1, 1663667, Note_on_c, 0, 85, 92
1, 1663682, Note_off_c, 0, 87, 64
1, 1663724, Note_off_c, 0, 85, 66
1, 1663733, Note_on_c, 0, 83, 81
1, 1663783, Note_off_c, 0, 83, 64
1, 1663805, Note_on_c, 0, 82, 82
1, 1663870, Note_on_c, 0, 80, 79
1, 1663885, Note_off_c, 0, 82, 59
1, 1663934, Note_off_c, 0, 80, 61
1, 1663968, Note_on_c, 0, 78, 34
1, 1663988, Note_on_c, 0, 77, 45
1, 1664000, Note_off_c, 0, 78, 53
1, 1664010, Note_on_c, 0, 76, 73
1, 1664012, Note_off_c, 0, 77, 58
1, 1664082, Note_on_c, 0, 75, 77
1, 1664103, Note_off_c, 0, 76, 61
1, 1664109, Control_c, 0, 64, 45
1, 1664124, Control_c, 0, 64, 56
1, 1664139, Control_c, 0, 64, 58
1, 1664141, Note_on_c, 0, 73, 80
1, 1664157, Note_off_c, 0, 75, 62
1, 1664183, Control_c, 0, 64, 59
1, 1664198, Control_c, 0, 64, 62
1, 1664207, Note_off_c, 0, 73, 61
1, 1664213, Control_c, 0, 64, 65
1, 1664219, Note_on_c, 0, 71, 64
1, 1664228, Control_c, 0, 64, 68
1, 1664243, Control_c, 0, 64, 71
1, 1664257, Control_c, 0, 64, 71
1, 1664272, Control_c, 0, 64, 67
1, 1664287, Control_c, 0, 64, 55
1, 1664294, Note_off_c, 0, 71, 61
1, 1664302, Control_c, 0, 64, 0
1, 1664309, Note_on_c, 0, 72, 41
1, 1664337, Note_off_c, 0, 72, 52
1, 1664351, Note_on_c, 0, 70, 75
1, 1664393, Note_off_c, 0, 70, 65
1, 1664422, Note_on_c, 0, 71, 63
1, 1664426, Note_on_c, 0, 69, 68
1, 1664428, Note_on_c, 0, 59, 74
1, 1664450, Note_off_c, 0, 69, 70
1, 1664466, Note_off_c, 0, 59, 65
1, 1664482, Note_off_c, 0, 71, 47
1, 1664487, Note_on_c, 0, 75, 82
1, 1664492, Note_on_c, 0, 63, 75
1, 1664551, Note_on_c, 0, 66, 87
1, 1664554, Note_off_c, 0, 63, 58
1, 1664557, Note_on_c, 0, 78, 84
1, 1664561, Note_off_c, 0, 75, 62
1, 1664584, Control_c, 0, 64, 38
1, 1664598, Note_off_c, 0, 66, 67
1, 1664599, Control_c, 0, 64, 0
1, 1664612, Note_off_c, 0, 78, 59
1, 1664621, Note_on_c, 0, 76, 89
1, 1664626, Note_on_c, 0, 64, 77
1, 1664661, Note_off_c, 0, 64, 62
1, 1664681, Note_off_c, 0, 76, 66
1, 1664710, Note_on_c, 0, 75, 82
1, 1664719, Note_on_c, 0, 63, 69
1, 1664777, Note_on_c, 0, 61, 76
1, 1664778, Note_off_c, 0, 63, 63
1, 1664782, Note_on_c, 0, 73, 83
1, 1664785, Note_off_c, 0, 75, 62
1, 1664813, Note_off_c, 0, 61, 65
1, 1664835, Note_off_c, 0, 73, 65
1, 1664845, Note_on_c, 0, 59, 85
1, 1664848, Note_on_c, 0, 71, 82
1, 1664886, Note_off_c, 0, 59, 63
1, 1664901, Note_off_c, 0, 71, 60
1, 1664919, Note_on_c, 0, 70, 83
1, 1664932, Note_on_c, 0, 58, 62
1, 1664982, Note_off_c, 0, 58, 62
1, 1664990, Note_on_c, 0, 56, 71
1, 1664991, Note_on_c, 0, 68, 75
1, 1664995, Note_off_c, 0, 70, 60
1, 1665019, Note_off_c, 0, 56, 65
1, 1665039, Note_on_c, 0, 54, 57
1, 1665045, Note_on_c, 0, 66, 77
1, 1665057, Note_off_c, 0, 68, 57
1, 1665072, Note_off_c, 0, 54, 65
1, 1665104, Note_off_c, 0, 66, 63
1, 1665108, Note_on_c, 0, 52, 68
1, 1665112, Note_on_c, 0, 64, 77
1, 1665124, Control_c, 0, 64, 32
1, 1665137, Note_off_c, 0, 52, 65
1, 1665139, Control_c, 0, 64, 46
1, 1665153, Control_c, 0, 64, 60
1, 1665164, Note_off_c, 0, 64, 64
1, 1665168, Control_c, 0, 64, 67
1, 1665183, Control_c, 0, 64, 73
1, 1665188, Note_on_c, 0, 63, 74
1, 1665193, Note_on_c, 0, 51, 68
1, 1665198, Control_c, 0, 64, 85
1, 1665212, Control_c, 0, 64, 127
1, 1665242, Control_c, 0, 67, 93
1, 1665247, Note_on_c, 0, 61, 75
1, 1665249, Note_off_c, 0, 63, 60
1, 1665252, Note_off_c, 0, 51, 61
1, 1665257, Control_c, 0, 67, 69
1, 1665268, Note_on_c, 0, 49, 65
1, 1665272, Control_c, 0, 67, 45
1, 1665286, Control_c, 0, 67, 0
1, 1665306, Note_on_c, 0, 59, 85
1, 1665306, Note_off_c, 0, 61, 61
1, 1665322, Note_off_c, 0, 49, 61
1, 1665325, Note_on_c, 0, 47, 77
1, 1665355, Note_off_c, 0, 47, 68
1, 1665355, Note_off_c, 0, 59, 67
1, 1665391, Control_c, 0, 64, 113
1, 1665414, Control_c, 0, 64, 73
1, 1665415, Note_on_c, 0, 58, 61
1, 1665415, Note_off_c, 0, 58, 127
1, 1665426, Note_on_c, 0, 59, 81
1, 1665429, Control_c, 0, 64, 45
1, 1665434, Note_on_c, 0, 39, 82
1, 1665434, Note_on_c, 0, 51, 81
1, 1665444, Control_c, 0, 64, 0
1, 1665448, Note_off_c, 0, 59, 71
1, 1665454, Note_off_c, 0, 39, 66
1, 1665462, Note_off_c, 0, 51, 65
1, 1665614, Note_on_c, 0, 59, 51
1, 1665619, Note_on_c, 0, 63, 76
1, 1665620, Note_on_c, 0, 54, 60
1, 1665680, Control_c, 0, 64, 32
1, 1665695, Control_c, 0, 64, 44
1, 1665709, Control_c, 0, 64, 59
1, 1665714, Note_off_c, 0, 54, 57
1, 1665724, Control_c, 0, 64, 67
1, 1665739, Control_c, 0, 64, 72
1, 1665753, Note_off_c, 0, 59, 62
1, 1665754, Control_c, 0, 64, 76
1, 1665769, Control_c, 0, 64, 80
1, 1665779, Note_off_c, 0, 63, 63
1, 1665784, Control_c, 0, 64, 90
1, 1665793, Note_on_c, 0, 51, 71
1, 1665795, Note_on_c, 0, 39, 62
1, 1665799, Control_c, 0, 64, 108
1, 1665814, Control_c, 0, 64, 127
1, 1665828, Note_off_c, 0, 51, 60
1, 1665832, Note_off_c, 0, 39, 63
1, 1665932, Control_c, 0, 64, 75
1, 1665947, Control_c, 0, 64, 56
1, 1665951, Note_on_c, 0, 63, 77
1, 1665953, Note_on_c, 0, 66, 79
1, 1665956, Note_on_c, 0, 59, 71
1, 1665962, Control_c, 0, 64, 45
1, 1665976, Control_c, 0, 64, 51
1, 1665991, Control_c, 0, 64, 62
1, 1666006, Control_c, 0, 64, 72
1, 1666013, Note_off_c, 0, 59, 63
1, 1666020, Note_off_c, 0, 63, 63
1, 1666021, Control_c, 0, 64, 91
1, 1666035, Control_c, 0, 64, 127
1, 1666057, Note_off_c, 0, 66, 64
1, 1666117, Note_on_c, 0, 39, 74
1, 1666123, Note_on_c, 0, 51, 71
1, 1666164, Note_off_c, 0, 51, 59
1, 1666166, Note_off_c, 0, 39, 63
1, 1666192, Control_c, 0, 64, 123
1, 1666207, Control_c, 0, 64, 121
1, 1666251, Control_c, 0, 64, 102
1, 1666266, Control_c, 0, 64, 76
1, 1666281, Control_c, 0, 64, 58
1, 1666294, Note_on_c, 0, 71, 81
1, 1666294, Note_on_c, 0, 66, 78
1, 1666296, Control_c, 0, 64, 50
1, 1666305, Note_on_c, 0, 39, 67
1, 1666308, Note_on_c, 0, 51, 64
1, 1666311, Control_c, 0, 64, 59
1, 1666325, Control_c, 0, 64, 73
1, 1666338, Note_off_c, 0, 66, 59
1, 1666340, Control_c, 0, 64, 127
1, 1666345, Note_off_c, 0, 39, 57
1, 1666355, Note_off_c, 0, 51, 57
1, 1666376, Note_off_c, 0, 71, 42
1, 1666429, Control_c, 0, 64, 86
1, 1666444, Control_c, 0, 64, 69
1, 1666458, Control_c, 0, 64, 64
1, 1666462, Note_on_c, 0, 39, 77
1, 1666465, Note_on_c, 0, 51, 73
1, 1666470, Note_on_c, 0, 75, 76
1, 1666471, Note_on_c, 0, 66, 81
1, 1666473, Note_on_c, 0, 71, 71
1, 1666473, Control_c, 0, 64, 70
1, 1666487, Note_on_c, 0, 72, 64
1, 1666489, Control_c, 0, 64, 102
1, 1666504, Control_c, 0, 64, 127
1, 1666511, Note_off_c, 0, 72, 56
1, 1666520, Note_off_c, 0, 66, 61
1, 1666530, Note_off_c, 0, 39, 59
1, 1666532, Note_off_c, 0, 71, 58
1, 1666535, Note_off_c, 0, 51, 58
1, 1666542, Note_off_c, 0, 75, 61
1, 1666578, Control_c, 0, 64, 94
1, 1666593, Control_c, 0, 64, 66
1, 1666607, Control_c, 0, 64, 50
1, 1666622, Control_c, 0, 64, 54
1, 1666629, Note_on_c, 0, 51, 82
1, 1666631, Note_on_c, 0, 39, 79
1, 1666633, Note_on_c, 0, 66, 87
1, 1666637, Control_c, 0, 64, 72
1, 1666638, Note_on_c, 0, 78, 61
1, 1666645, Note_on_c, 0, 71, 57
1, 1666651, Control_c, 0, 64, 127
1, 1666656, Note_off_c, 0, 78, 63
1, 1666659, Note_off_c, 0, 39, 65
1, 1666659, Note_off_c, 0, 66, 63
1, 1666666, Note_off_c, 0, 71, 59
1, 1666675, Note_off_c, 0, 51, 56
1, 1666732, Poly_aftertouch_c, 0, 75, 0
1, 1666753, Note_on_c, 0, 73, 43
1, 1666779, Note_off_c, 0, 73, 54
1, 1666800, Control_c, 0, 64, 78
1, 1666815, Control_c, 0, 64, 47
1, 1666821, Note_on_c, 0, 73, 91
1, 1666822, Note_on_c, 0, 53, 97
1, 1666823, Note_on_c, 0, 41, 93
1, 1666826, Note_on_c, 0, 63, 84
1, 1666830, Control_c, 0, 64, 0
1, 1666836, Note_on_c, 0, 69, 78
1, 1666850, Note_off_c, 0, 63, 65
1, 1666859, Control_c, 0, 64, 31
1, 1666860, Note_off_c, 0, 69, 63
1, 1666874, Control_c, 0, 64, 61
1, 1666879, Note_off_c, 0, 73, 66
1, 1666881, Note_on_c, 0, 72, 67
1, 1666889, Control_c, 0, 64, 91
1, 1666907, Note_off_c, 0, 72, 64
1, 1666911, Control_c, 0, 64, 127
1, 1667042, Note_on_c, 0, 75, 97
1, 1667045, Note_on_c, 0, 69, 89
1, 1667051, Note_on_c, 0, 72, 75
1, 1667102, Note_off_c, 0, 41, 59
1, 1667105, Note_off_c, 0, 53, 58
1, 1667191, Note_off_c, 0, 69, 60
1, 1667194, Note_on_c, 0, 53, 94
1, 1667197, Note_off_c, 0, 72, 61
1, 1667203, Note_on_c, 0, 41, 81
1, 1667223, Note_off_c, 0, 75, 62
1, 1667371, Control_c, 0, 64, 73
1, 1667373, Note_on_c, 0, 81, 93
1, 1667375, Note_on_c, 0, 75, 91
1, 1667376, Note_on_c, 0, 72, 88
1, 1667386, Control_c, 0, 64, 49
1, 1667400, Control_c, 0, 64, 35
1, 1667415, Control_c, 0, 64, 52
1, 1667430, Control_c, 0, 64, 74
1, 1667441, Note_off_c, 0, 53, 61
1, 1667445, Control_c, 0, 64, 127
1, 1667453, Note_off_c, 0, 41, 55
1, 1667482, Note_off_c, 0, 72, 60
1, 1667492, Note_off_c, 0, 75, 61
1, 1667531, Note_on_c, 0, 53, 89
1, 1667531, Note_off_c, 0, 81, 66
1, 1667547, Note_on_c, 0, 41, 70
1, 1667614, Note_off_c, 0, 53, 53
1, 1667695, Note_off_c, 0, 41, 30
1, 1667763, Control_c, 0, 64, 108
1, 1667775, Note_on_c, 0, 84, 96
1, 1667778, Note_on_c, 0, 81, 89
1, 1667779, Control_c, 0, 64, 69
1, 1667782, Note_on_c, 0, 53, 81
1, 1667793, Note_on_c, 0, 41, 74
1, 1667794, Control_c, 0, 64, 55
1, 1667809, Control_c, 0, 64, 60
1, 1667824, Control_c, 0, 64, 73
1, 1667838, Control_c, 0, 64, 127
1, 1667941, Note_off_c, 0, 41, 57
1, 1667951, Note_off_c, 0, 53, 60
1, 1667956, Note_off_c, 0, 84, 64
1, 1667957, Note_off_c, 0, 81, 62
1, 1668017, Note_on_c, 0, 87, 91
1, 1668019, Note_on_c, 0, 53, 89
1, 1668019, Note_on_c, 0, 84, 91
1, 1668020, Note_on_c, 0, 81, 92
1, 1668026, Note_on_c, 0, 41, 79
1, 1668130, Note_off_c, 0, 53, 55
1, 1668133, Note_off_c, 0, 41, 62
1, 1668135, Note_off_c, 0, 84, 62
1, 1668139, Note_off_c, 0, 81, 60
1, 1668157, Note_off_c, 0, 87, 64
1, 1668208, Note_on_c, 0, 93, 96
1, 1668213, Note_on_c, 0, 53, 86
1, 1668213, Note_on_c, 0, 81, 93
1, 1668215, Note_on_c, 0, 87, 83
1, 1668221, Note_on_c, 0, 41, 54
1, 1668221, Note_on_c, 0, 84, 78
1, 1668237, Note_off_c, 0, 81, 66
1, 1668240, Note_off_c, 0, 84, 71
1, 1668243, Note_off_c, 0, 53, 66
1, 1668245, Note_off_c, 0, 41, 60
1, 1668252, Note_off_c, 0, 93, 65
1, 1668255, Note_off_c, 0, 87, 64
1, 1668453, Note_on_c, 0, 46, 90
1, 1668455, Note_on_c, 0, 85, 99
1, 1668455, Note_on_c, 0, 94, 96
1, 1668456, Note_on_c, 0, 82, 102
1, 1668457, Note_on_c, 0, 89, 89
1, 1668483, Control_c, 0, 64, 75
1, 1668498, Control_c, 0, 64, 42
1, 1668512, Control_c, 0, 64, 0
1, 1668588, Control_c, 0, 64, 59
1, 1668589, Note_on_c, 0, 49, 75
1, 1668602, Control_c, 0, 64, 79
1, 1668617, Control_c, 0, 64, 127
1, 1668630, Note_off_c, 0, 82, 57
1, 1668658, Note_off_c, 0, 46, 61
1, 1668675, Note_off_c, 0, 94, 61
1, 1668702, Note_on_c, 0, 53, 69
1, 1668724, Note_off_c, 0, 85, 58
1, 1668726, Note_off_c, 0, 89, 61
1, 1668743, Note_off_c, 0, 49, 61
1, 1668759, Note_on_c, 0, 58, 76
1, 1668789, Note_off_c, 0, 53, 60
1, 1668797, Note_off_c, 0, 58, 58
1, 1668824, Note_on_c, 0, 46, 92
1, 1668917, Note_on_c, 0, 49, 73
1, 1668932, Note_off_c, 0, 46, 53
1, 1668948, Poly_aftertouch_c, 0, 45, 0
1, 1669024, Note_on_c, 0, 53, 66
1, 1669055, Note_on_c, 0, 82, 77
1, 1669063, Note_on_c, 0, 94, 73
1, 1669063, Note_off_c, 0, 49, 61
1, 1669075, Note_off_c, 0, 82, 71
1, 1669083, Note_on_c, 0, 58, 69
1, 1669090, Control_c, 0, 64, 81
1, 1669090, Note_off_c, 0, 94, 67
1, 1669105, Control_c, 0, 64, 58
1, 1669107, Note_off_c, 0, 53, 58
1, 1669119, Control_c, 0, 64, 49
1, 1669123, Note_on_c, 0, 97, 101
1, 1669125, Note_on_c, 0, 46, 89
1, 1669129, Note_off_c, 0, 58, 52
1, 1669134, Control_c, 0, 64, 59
1, 1669135, Note_on_c, 0, 85, 93
1, 1669156, Control_c, 0, 64, 71
1, 1669171, Control_c, 0, 64, 103
1, 1669185, Control_c, 0, 64, 127
1, 1669223, Note_on_c, 0, 49, 73
1, 1669248, Note_off_c, 0, 46, 57
1, 1669254, Note_off_c, 0, 85, 29
1, 1669295, Note_off_c, 0, 97, 63
1, 1669335, Note_on_c, 0, 53, 66
1, 1669370, Note_on_c, 0, 97, 87
1, 1669373, Note_on_c, 0, 85, 90
1, 1669379, Note_off_c, 0, 49, 62
1, 1669382, Note_on_c, 0, 58, 80
1, 1669405, Note_off_c, 0, 85, 65
1, 1669412, Note_off_c, 0, 97, 65
1, 1669418, Note_off_c, 0, 53, 61
1, 1669430, Note_off_c, 0, 58, 55
1, 1669439, Note_on_c, 0, 46, 85
1, 1669439, Control_c, 0, 64, 102
1, 1669453, Control_c, 0, 64, 73
1, 1669455, Note_on_c, 0, 94, 102
1, 1669461, Note_on_c, 0, 82, 98
1, 1669468, Control_c, 0, 64, 64
1, 1669483, Control_c, 0, 64, 66
1, 1669498, Control_c, 0, 64, 82
1, 1669513, Control_c, 0, 64, 127
1, 1669524, Note_off_c, 0, 82, 0
1, 1669525, Note_on_c, 0, 49, 77
1, 1669556, Note_off_c, 0, 46, 61
1, 1669561, Poly_aftertouch_c, 0, 82, 127
1, 1669595, Poly_aftertouch_c, 0, 82, 0
1, 1669618, Note_off_c, 0, 94, 61
1, 1669635, Note_on_c, 0, 53, 68
1, 1669701, Note_on_c, 0, 82, 84
1, 1669701, Note_off_c, 0, 49, 60
1, 1669704, Note_on_c, 0, 94, 81
1, 1669706, Note_on_c, 0, 58, 75
1, 1669721, Note_off_c, 0, 82, 68
1, 1669725, Note_off_c, 0, 94, 71
1, 1669738, Note_off_c, 0, 53, 56
1, 1669772, Note_on_c, 0, 46, 87
1, 1669780, Control_c, 0, 64, 80
1, 1669782, Note_on_c, 0, 90, 97
1, 1669790, Note_on_c, 0, 78, 97
1, 1669793, Note_off_c, 0, 58, 55
1, 1669794, Control_c, 0, 64, 58
1, 1669809, Control_c, 0, 64, 44
1, 1669824, Control_c, 0, 64, 53
1, 1669839, Control_c, 0, 64, 70
1, 1669854, Control_c, 0, 64, 127
1, 1669871, Note_on_c, 0, 49, 76
1, 1669922, Note_off_c, 0, 46, 58
1, 1669937, Note_off_c, 0, 78, 57
1, 1669956, Note_off_c, 0, 90, 61
1, 1669979, Note_on_c, 0, 54, 73
1, 1669999, Note_off_c, 0, 49, 56
1, 1670030, Note_on_c, 0, 90, 85
1, 1670032, Note_on_c, 0, 78, 90
1, 1670042, Note_on_c, 0, 58, 78
1, 1670051, Note_off_c, 0, 78, 67
1, 1670051, Note_off_c, 0, 90, 68
1, 1670056, Note_off_c, 0, 54, 60
1, 1670069, Control_c, 0, 64, 100
1, 1670073, Note_off_c, 0, 58, 63
1, 1670083, Control_c, 0, 64, 68
1, 1670098, Control_c, 0, 64, 54
1, 1670103, Note_on_c, 0, 46, 90
1, 1670112, Note_on_c, 0, 85, 100
1, 1670113, Control_c, 0, 64, 62
1, 1670120, Note_on_c, 0, 73, 96
1, 1670128, Control_c, 0, 64, 81
1, 1670143, Control_c, 0, 64, 127
1, 1670162, Note_off_c, 0, 73, 64
1, 1670173, Note_off_c, 0, 85, 64
1, 1670202, Note_on_c, 0, 49, 73
1, 1670219, Note_off_c, 0, 46, 61
1, 1670226, Note_on_c, 0, 85, 49
1, 1670259, Note_off_c, 0, 85, 64
1, 1670288, Note_on_c, 0, 54, 68
1, 1670315, Note_off_c, 0, 49, 59
1, 1670360, Note_on_c, 0, 85, 77
1, 1670365, Note_on_c, 0, 73, 73
1, 1670375, Note_on_c, 0, 58, 76
1, 1670401, Note_off_c, 0, 73, 60
1, 1670407, Note_off_c, 0, 85, 63
1, 1670419, Note_off_c, 0, 54, 58
1, 1670420, Note_off_c, 0, 58, 61
1, 1670440, Control_c, 0, 64, 120
1, 1670453, Note_on_c, 0, 46, 89
1, 1670455, Control_c, 0, 64, 67
1, 1670457, Note_on_c, 0, 86, 100
1, 1670464, Note_on_c, 0, 74, 97
1, 1670470, Control_c, 0, 64, 0
1, 1670499, Control_c, 0, 64, 32
1, 1670514, Control_c, 0, 64, 61
1, 1670529, Control_c, 0, 64, 127
1, 1670545, Note_off_c, 0, 74, 0
1, 1670548, Note_on_c, 0, 53, 66
1, 1670575, Note_off_c, 0, 46, 61
1, 1670583, Poly_aftertouch_c, 0, 74, 127
1, 1670608, Note_off_c, 0, 86, 64
1, 1670611, Poly_aftertouch_c, 0, 74, 0
1, 1670643, Note_on_c, 0, 56, 75
1, 1670655, Note_off_c, 0, 53, 60
1, 1670694, Note_on_c, 0, 86, 83
1, 1670699, Note_on_c, 0, 74, 83
1, 1670701, Note_on_c, 0, 58, 83
1, 1670714, Note_off_c, 0, 86, 68
1, 1670718, Note_off_c, 0, 74, 71
1, 1670732, Note_off_c, 0, 56, 61
1, 1670735, Note_off_c, 0, 58, 62
1, 1670771, Note_on_c, 0, 46, 82
1, 1670780, Note_on_c, 0, 82, 96
1, 1670785, Note_on_c, 0, 70, 100
1, 1670822, Note_off_c, 0, 70, 65
1, 1670834, Note_off_c, 0, 82, 60
1, 1670843, Note_on_c, 0, 53, 69
1, 1670858, Note_off_c, 0, 46, 62
1, 1670918, Note_on_c, 0, 56, 75
1, 1670929, Note_off_c, 0, 53, 59
1, 1670986, Note_off_c, 0, 56, 60
1, 1671004, Note_on_c, 0, 82, 79
1, 1671007, Note_on_c, 0, 70, 73
1, 1671016, Note_on_c, 0, 58, 73
1, 1671032, Note_off_c, 0, 70, 69
1, 1671051, Note_off_c, 0, 82, 61
1, 1671068, Note_off_c, 0, 58, 61
1, 1671117, Note_on_c, 0, 46, 88
1, 1671123, Note_on_c, 0, 75, 97
1, 1671126, Note_on_c, 0, 78, 84
1, 1671126, Note_on_c, 0, 87, 74
1, 1671135, Note_on_c, 0, 85, 66
1, 1671153, Note_on_c, 0, 86, 69
1, 1671159, Control_c, 0, 64, 99
1, 1671165, Note_on_c, 0, 82, 13
1, 1671173, Control_c, 0, 64, 69
1, 1671188, Note_on_c, 0, 81, 35
1, 1671188, Control_c, 0, 64, 43
1, 1671203, Control_c, 0, 64, 0
1, 1671217, Note_off_c, 0, 81, 54
1, 1671230, Note_on_c, 0, 51, 80
1, 1671245, Note_off_c, 0, 85, 56
1, 1671247, Note_off_c, 0, 82, 43
1, 1671277, Control_c, 0, 64, 49
1, 1671292, Control_c, 0, 64, 71
1, 1671301, Note_off_c, 0, 46, 61
1, 1671307, Control_c, 0, 64, 127
1, 1671308, Note_off_c, 0, 87, 58
1, 1671311, Note_on_c, 0, 54, 74
1, 1671311, Note_off_c, 0, 86, 53
1, 1671327, Note_on_c, 0, 82, 66
1, 1671360, Note_off_c, 0, 75, 57
1, 1671399, Note_off_c, 0, 78, 57
1, 1671400, Note_on_c, 0, 58, 80
1, 1671408, Note_off_c, 0, 51, 61
1, 1671408, Note_off_c, 0, 82, 62
1, 1671425, Note_off_c, 0, 54, 61
1, 1671431, Note_off_c, 0, 58, 64
1, 1671462, Note_on_c, 0, 46, 83
1, 1671531, Note_on_c, 0, 51, 73
1, 1671558, Note_off_c, 0, 46, 60
1, 1671621, Note_on_c, 0, 54, 71
1, 1671653, Note_off_c, 0, 51, 56
1, 1671696, Note_on_c, 0, 58, 72
1, 1671699, Note_on_c, 0, 75, 66
1, 1671701, Note_on_c, 0, 87, 65
1, 1671701, Note_off_c, 0, 54, 60
1, 1671717, Note_off_c, 0, 75, 64
1, 1671725, Note_off_c, 0, 58, 65
1, 1671728, Note_off_c, 0, 87, 68
1, 1671743, Control_c, 0, 64, 95
1, 1671743, Control_c, 0, 67, 48
1, 1671755, Note_on_c, 0, 46, 86
1, 1671758, Control_c, 0, 64, 67
1, 1671758, Control_c, 0, 67, 63
1, 1671767, Note_on_c, 0, 90, 94
1, 1671774, Control_c, 0, 64, 49
1, 1671774, Control_c, 0, 67, 71
1, 1671776, Note_on_c, 0, 78, 84
1, 1671789, Control_c, 0, 64, 46
1, 1671789, Control_c, 0, 67, 72
1, 1671803, Control_c, 0, 64, 55
1, 1671818, Control_c, 0, 64, 68
1, 1671833, Control_c, 0, 64, 92
1, 1671833, Control_c, 0, 67, 73
1, 1671848, Note_on_c, 0, 51, 72
1, 1671848, Control_c, 0, 64, 127
1, 1671848, Control_c, 0, 67, 73
1, 1671856, Note_off_c, 0, 78, 0
1, 1671862, Note_off_c, 0, 46, 52
1, 1671862, Control_c, 0, 67, 74
1, 1671892, Poly_aftertouch_c, 0, 78, 127
1, 1671892, Control_c, 0, 67, 73
1, 1671907, Control_c, 0, 67, 71
1, 1671921, Note_on_c, 0, 54, 74
1, 1671922, Control_c, 0, 67, 68
1, 1671924, Poly_aftertouch_c, 0, 78, 0
1, 1671931, Note_off_c, 0, 90, 60
1, 1671937, Control_c, 0, 67, 67
1, 1671951, Control_c, 0, 67, 66
1, 1671996, Control_c, 0, 67, 65
1, 1671996, Note_on_c, 0, 90, 81
1, 1672002, Note_off_c, 0, 51, 52
1, 1672004, Note_on_c, 0, 78, 89
1, 1672009, Note_on_c, 0, 58, 77
1, 1672011, Control_c, 0, 67, 63
1, 1672026, Control_c, 0, 67, 64
1, 1672027, Note_off_c, 0, 54, 60
1, 1672029, Note_off_c, 0, 78, 65
1, 1672038, Note_off_c, 0, 90, 66
1, 1672041, Control_c, 0, 67, 68
1, 1672052, Note_off_c, 0, 58, 53
1, 1672056, Control_c, 0, 64, 84
1, 1672056, Control_c, 0, 67, 72
1, 1672070, Control_c, 0, 64, 63
1, 1672070, Control_c, 0, 67, 75
1, 1672071, Note_on_c, 0, 46, 87
1, 1672085, Control_c, 0, 64, 52
1, 1672085, Control_c, 0, 67, 76
1, 1672086, Note_on_c, 0, 87, 93
1, 1672093, Note_on_c, 0, 75, 98
1, 1672100, Control_c, 0, 64, 56
1, 1672100, Control_c, 0, 67, 74
1, 1672115, Control_c, 0, 64, 68
1, 1672115, Control_c, 0, 67, 72
1, 1672130, Control_c, 0, 64, 97
1, 1672130, Control_c, 0, 67, 71
1, 1672147, Note_off_c, 0, 75, 61
1, 1672151, Control_c, 0, 64, 127
1, 1672164, Note_on_c, 0, 51, 72
1, 1672166, Control_c, 0, 67, 72
1, 1672169, Note_off_c, 0, 46, 61
1, 1672181, Control_c, 0, 67, 73
1, 1672196, Control_c, 0, 67, 74
1, 1672226, Control_c, 0, 67, 75
1, 1672240, Note_off_c, 0, 87, 59
1, 1672243, Note_on_c, 0, 54, 67
1, 1672256, Control_c, 0, 67, 75
1, 1672270, Control_c, 0, 67, 76
1, 1672285, Control_c, 0, 67, 77
1, 1672300, Control_c, 0, 67, 80
1, 1672309, Note_on_c, 0, 58, 75
1, 1672315, Control_c, 0, 67, 93
1, 1672321, Note_on_c, 0, 75, 89
1, 1672327, Note_on_c, 0, 87, 69
1, 1672330, Control_c, 0, 67, 117
1, 1672341, Note_off_c, 0, 87, 67
1, 1672343, Note_off_c, 0, 51, 38
1, 1672344, Control_c, 0, 67, 127
1, 1672348, Note_off_c, 0, 75, 61
1, 1672351, Note_off_c, 0, 58, 61
1, 1672360, Note_off_c, 0, 54, 57
1, 1672374, Control_c, 0, 64, 88
1, 1672389, Control_c, 0, 64, 58
1, 1672391, Note_on_c, 0, 47, 81
1, 1672403, Control_c, 0, 64, 0
1, 1672408, Note_on_c, 0, 83, 94
1, 1672418, Note_on_c, 0, 71, 96
1, 1672448, Control_c, 0, 64, 32
1, 1672462, Note_on_c, 0, 81, 4
1, 1672462, Note_off_c, 0, 81, 127
1, 1672463, Control_c, 0, 64, 57
1, 1672478, Control_c, 0, 64, 75
1, 1672493, Control_c, 0, 64, 127
1, 1672496, Note_on_c, 0, 51, 72
1, 1672523, Control_c, 0, 67, 120
1, 1672538, Control_c, 0, 67, 106
1, 1672552, Control_c, 0, 67, 92
1, 1672554, Note_on_c, 0, 54, 75
1, 1672562, Note_off_c, 0, 71, 60
1, 1672562, Note_off_c, 0, 83, 63
1, 1672568, Control_c, 0, 67, 89
1, 1672575, Note_off_c, 0, 47, 36
1, 1672598, Control_c, 0, 67, 87
1, 1672613, Control_c, 0, 67, 83
1, 1672627, Control_c, 0, 67, 73
1, 1672642, Control_c, 0, 67, 64
1, 1672651, Note_on_c, 0, 83, 90
1, 1672652, Note_on_c, 0, 59, 76
1, 1672657, Control_c, 0, 67, 56
1, 1672658, Note_on_c, 0, 71, 81
1, 1672672, Control_c, 0, 67, 36
1, 1672675, Note_off_c, 0, 51, 56
1, 1672679, Note_off_c, 0, 71, 71
1, 1672686, Note_off_c, 0, 83, 68
1, 1672687, Control_c, 0, 67, 0
1, 1672688, Note_off_c, 0, 54, 59
1, 1672716, Note_off_c, 0, 59, 58
1, 1672723, Note_on_c, 0, 47, 83
1, 1672728, Note_on_c, 0, 82, 97
1, 1672737, Note_on_c, 0, 70, 97
1, 1672779, Note_off_c, 0, 70, 62
1, 1672789, Note_off_c, 0, 82, 60
1, 1672826, Note_on_c, 0, 51, 66
1, 1672832, Note_off_c, 0, 47, 61
1, 1672875, Note_on_c, 0, 82, 38
1, 1672877, Note_on_c, 0, 54, 74
1, 1672915, Note_off_c, 0, 82, 46
1, 1672982, Note_on_c, 0, 82, 84
1, 1672984, Note_on_c, 0, 59, 76
1, 1672991, Note_on_c, 0, 70, 84
1, 1673012, Note_off_c, 0, 51, 55
1, 1673025, Note_off_c, 0, 82, 58
1, 1673030, Note_off_c, 0, 54, 55
1, 1673030, Note_off_c, 0, 70, 60
1, 1673047, Note_off_c, 0, 59, 58
1, 1673063, Note_on_c, 0, 48, 93
1, 1673064, Control_c, 0, 64, 83
1, 1673075, Note_on_c, 0, 81, 95
1, 1673079, Note_on_c, 0, 69, 92
1, 1673079, Control_c, 0, 64, 52
1, 1673093, Control_c, 0, 64, 0
1, 1673102, Note_on_c, 0, 80, 53
1, 1673108, Control_c, 0, 64, 36
1, 1673123, Control_c, 0, 64, 59
1, 1673125, Note_off_c, 0, 80, 59
1, 1673133, Note_off_c, 0, 69, 65
1, 1673138, Control_c, 0, 64, 89
1, 1673153, Control_c, 0, 64, 127
1, 1673159, Note_on_c, 0, 51, 79
1, 1673206, Note_off_c, 0, 48, 60
1, 1673212, Note_on_c, 0, 69, 35
1, 1673236, Note_off_c, 0, 81, 58
1, 1673243, Note_off_c, 0, 69, 54
1, 1673245, Note_on_c, 0, 53, 80
1, 1673303, Note_off_c, 0, 51, 60
1, 1673329, Note_on_c, 0, 81, 86
1, 1673330, Note_on_c, 0, 69, 66
1, 1673338, Note_on_c, 0, 60, 59
1, 1673349, Note_off_c, 0, 69, 69
1, 1673352, Note_off_c, 0, 53, 60
1, 1673352, Note_off_c, 0, 81, 66
1, 1673385, Note_off_c, 0, 60, 59
1, 1673402, Note_on_c, 0, 48, 98
1, 1673403, Poly_aftertouch_c, 0, 62, 127
1, 1673430, Note_on_c, 0, 89, 93
1, 1673438, Note_on_c, 0, 77, 86
1, 1673443, Poly_aftertouch_c, 0, 62, 0
1, 1673479, Note_off_c, 0, 77, 62
1, 1673491, Note_off_c, 0, 89, 60
1, 1673497, Note_on_c, 0, 51, 77
1, 1673526, Note_off_c, 0, 48, 60
1, 1673555, Note_on_c, 0, 53, 79
1, 1673585, Note_off_c, 0, 51, 60
1, 1673645, Note_off_c, 0, 53, 62
1, 1673647, Note_on_c, 0, 77, 89
1, 1673656, Note_on_c, 0, 60, 81
1, 1673669, Note_off_c, 0, 77, 67
1, 1673829, Note_on_c, 0, 82, 80
1, 1673832, Note_on_c, 0, 49, 52
1, 1673834, Note_on_c, 0, 70, 78
1, 1673843, Note_on_c, 0, 77, 69
1, 1673844, Note_on_c, 0, 73, 76
1, 1673857, Control_c, 0, 67, 38
1, 1673872, Control_c, 0, 67, 65
1, 1673887, Control_c, 0, 67, 79
1, 1673902, Control_c, 0, 64, 65
1, 1673902, Control_c, 0, 67, 84
1, 1673916, Control_c, 0, 64, 0
1, 1673916, Control_c, 0, 67, 87
1, 1673923, Note_off_c, 0, 60, 58
1, 1673946, Control_c, 0, 67, 82
1, 1673961, Note_on_c, 0, 53, 64
1, 1673961, Control_c, 0, 67, 75
1, 1673975, Control_c, 0, 64, 51
1, 1673975, Control_c, 0, 67, 68
1, 1673985, Note_off_c, 0, 70, 59
1, 1673990, Control_c, 0, 64, 73
1, 1673990, Control_c, 0, 67, 63
1, 1674005, Control_c, 0, 64, 127
1, 1674005, Control_c, 0, 67, 55
1, 1674020, Control_c, 0, 67, 41
1, 1674028, Note_off_c, 0, 49, 62
1, 1674035, Control_c, 0, 67, 0
1, 1674037, Note_off_c, 0, 82, 57
1, 1674044, Note_on_c, 0, 58, 79
1, 1674071, Note_off_c, 0, 53, 60
1, 1674075, Note_off_c, 0, 73, 61
1, 1674078, Note_off_c, 0, 77, 63
1, 1674114, Note_on_c, 0, 61, 79
1, 1674122, Note_off_c, 0, 58, 61
1, 1674142, Note_off_c, 0, 61, 66
1, 1674178, Note_on_c, 0, 49, 75
1, 1674271, Note_off_c, 0, 49, 62
1, 1674274, Note_on_c, 0, 53, 61
1, 1674362, Note_on_c, 0, 58, 68
1, 1674362, Note_off_c, 0, 53, 60
1, 1674419, Note_on_c, 0, 82, 77
1, 1674424, Note_on_c, 0, 94, 80
1, 1674441, Note_on_c, 0, 61, 68
1, 1674441, Note_off_c, 0, 82, 67
1, 1674447, Note_off_c, 0, 94, 69
1, 1674452, Note_off_c, 0, 58, 58
1, 1674469, Note_off_c, 0, 61, 65
1, 1674473, Control_c, 0, 64, 98
1, 1674488, Control_c, 0, 64, 71
1, 1674495, Note_on_c, 0, 97, 96
1, 1674498, Note_on_c, 0, 49, 83
1, 1674503, Control_c, 0, 64, 59
1, 1674509, Note_on_c, 0, 85, 82
1, 1674518, Control_c, 0, 64, 62
1, 1674533, Control_c, 0, 64, 71
1, 1674547, Control_c, 0, 64, 99
1, 1674562, Control_c, 0, 64, 127
1, 1674590, Note_on_c, 0, 53, 63
1, 1674596, Note_off_c, 0, 49, 61
1, 1674625, Note_off_c, 0, 85, 62
1, 1674656, Note_off_c, 0, 97, 61
1, 1674663, Note_on_c, 0, 58, 73
1, 1674694, Note_off_c, 0, 53, 55
1, 1674733, Note_on_c, 0, 97, 85
1, 1674739, Note_on_c, 0, 85, 83
1, 1674742, Note_on_c, 0, 61, 72
1, 1674759, Note_off_c, 0, 85, 73
1, 1674762, Note_off_c, 0, 58, 57
1, 1674766, Note_off_c, 0, 97, 63
1, 1674777, Note_off_c, 0, 61, 64
1, 1674798, Control_c, 0, 67, 39
1, 1674809, Note_on_c, 0, 49, 78
1, 1674813, Control_c, 0, 67, 46
1, 1674821, Note_on_c, 0, 94, 91
1, 1674828, Control_c, 0, 67, 47
1, 1674831, Note_on_c, 0, 82, 84
1, 1674858, Control_c, 0, 67, 46
1, 1674873, Control_c, 0, 67, 46
1, 1674908, Note_on_c, 0, 53, 65
1, 1674910, Note_off_c, 0, 82, 0
1, 1674917, Control_c, 0, 67, 45
1, 1674930, Note_on_c, 0, 82, 31
1, 1674932, Control_c, 0, 67, 43
1, 1674947, Control_c, 0, 67, 41
1, 1674947, Note_off_c, 0, 49, 58
1, 1674962, Control_c, 0, 67, 40
1, 1674965, Note_off_c, 0, 82, 56
1, 1674977, Control_c, 0, 67, 39
1, 1674979, Note_off_c, 0, 94, 61
1, 1674991, Note_on_c, 0, 58, 74
1, 1674992, Control_c, 0, 67, 38
1, 1675007, Control_c, 0, 67, 35
1, 1675022, Control_c, 0, 67, 34
1, 1675034, Note_off_c, 0, 53, 39
1, 1675064, Note_on_c, 0, 82, 79
1, 1675066, Control_c, 0, 67, 35
1, 1675069, Note_on_c, 0, 94, 79
1, 1675081, Control_c, 0, 67, 35
1, 1675086, Note_on_c, 0, 61, 65
1, 1675092, Note_off_c, 0, 94, 68
1, 1675095, Note_off_c, 0, 58, 57
1, 1675096, Control_c, 0, 67, 37
1, 1675099, Note_off_c, 0, 82, 65
1, 1675111, Control_c, 0, 67, 38
1, 1675117, Note_off_c, 0, 61, 64
1, 1675126, Control_c, 0, 67, 39
1, 1675148, Control_c, 0, 64, 82
1, 1675148, Control_c, 0, 67, 39
1, 1675160, Note_on_c, 0, 49, 81
1, 1675162, Note_on_c, 0, 90, 89
1, 1675163, Control_c, 0, 64, 62
1, 1675171, Note_on_c, 0, 78, 90
1, 1675177, Control_c, 0, 64, 51
1, 1675177, Control_c, 0, 67, 39
1, 1675192, Control_c, 0, 64, 57
1, 1675192, Control_c, 0, 67, 37
1, 1675207, Control_c, 0, 64, 67
1, 1675207, Control_c, 0, 67, 37
1, 1675222, Control_c, 0, 64, 102
1, 1675222, Control_c, 0, 67, 35
1, 1675236, Control_c, 0, 64, 127
1, 1675236, Control_c, 0, 67, 34
1, 1675250, Note_on_c, 0, 54, 72
1, 1675251, Control_c, 0, 67, 0
1, 1675302, Note_off_c, 0, 49, 59
1, 1675320, Note_off_c, 0, 90, 60
1, 1675321, Note_off_c, 0, 78, 52
1, 1675343, Note_on_c, 0, 58, 71
1, 1675379, Note_off_c, 0, 54, 35
1, 1675399, Note_on_c, 0, 78, 76
1, 1675408, Note_on_c, 0, 61, 69
1, 1675408, Note_on_c, 0, 90, 55
1, 1675412, Note_off_c, 0, 58, 59
1, 1675421, Note_off_c, 0, 78, 68
1, 1675430, Note_off_c, 0, 90, 57
1, 1675437, Note_off_c, 0, 61, 65
1, 1675444, Control_c, 0, 64, 97
1, 1675459, Control_c, 0, 64, 73
1, 1675470, Note_on_c, 0, 49, 80
1, 1675473, Control_c, 0, 64, 64
1, 1675478, Note_on_c, 0, 85, 90
1, 1675487, Note_on_c, 0, 73, 90
1, 1675487, Control_c, 0, 64, 67
1, 1675502, Control_c, 0, 64, 82
1, 1675517, Control_c, 0, 64, 127
1, 1675530, Note_off_c, 0, 73, 63
1, 1675543, Note_off_c, 0, 85, 55
1, 1675564, Note_on_c, 0, 54, 67
1, 1675577, Note_off_c, 0, 49, 57
1, 1675584, Note_on_c, 0, 85, 47
1, 1675631, Note_off_c, 0, 85, 63
1, 1675640, Note_on_c, 0, 58, 74
1, 1675687, Note_off_c, 0, 54, 53
1, 1675713, Note_on_c, 0, 85, 76
1, 1675719, Note_on_c, 0, 61, 71
1, 1675722, Note_on_c, 0, 73, 59
1, 1675726, Note_off_c, 0, 58, 61
1, 1675733, Note_off_c, 0, 85, 72
1, 1675742, Note_off_c, 0, 73, 63
1, 1675747, Note_off_c, 0, 61, 65
1, 1675770, Control_c, 0, 64, 110
1, 1675785, Control_c, 0, 64, 65
1, 1675791, Note_on_c, 0, 49, 84
1, 1675800, Control_c, 0, 64, 0
1, 1675803, Note_on_c, 0, 89, 92
1, 1675814, Note_on_c, 0, 77, 85
1, 1675844, Control_c, 0, 64, 49
1, 1675859, Control_c, 0, 64, 74
1, 1675874, Control_c, 0, 64, 127
1, 1675890, Note_on_c, 0, 56, 76
1, 1675905, Note_off_c, 0, 77, 0
1, 1675934, Note_on_c, 0, 77, 18
1, 1675939, Note_off_c, 0, 49, 62
1, 1675968, Note_off_c, 0, 89, 60
1, 1675973, Note_off_c, 0, 77, 50
1, 1676003, Note_on_c, 0, 59, 69
1, 1676007, Note_off_c, 0, 56, 48
1, 1676050, Note_on_c, 0, 77, 86
1, 1676059, Note_on_c, 0, 89, 65
1, 1676072, Note_on_c, 0, 61, 60
1, 1676077, Note_off_c, 0, 77, 64
1, 1676079, Note_off_c, 0, 89, 63
1, 1676080, Note_off_c, 0, 59, 61
1, 1676101, Note_off_c, 0, 61, 66
1, 1676131, Note_on_c, 0, 49, 79
1, 1676139, Note_on_c, 0, 85, 102
1, 1676148, Note_on_c, 0, 73, 94
1, 1676185, Note_on_c, 0, 86, 29
1, 1676193, Note_off_c, 0, 73, 61
1, 1676204, Note_on_c, 0, 56, 78
1, 1676219, Note_off_c, 0, 49, 62
1, 1676220, Note_off_c, 0, 86, 50
1, 1676285, Note_off_c, 0, 85, 58
1, 1676303, Note_on_c, 0, 59, 64
1, 1676307, Note_off_c, 0, 56, 61
1, 1676361, Note_on_c, 0, 73, 75
1, 1676363, Note_on_c, 0, 85, 82
1, 1676377, Note_off_c, 0, 59, 63
1, 1676381, Note_off_c, 0, 73, 71
1, 1676383, Note_on_c, 0, 61, 68
1, 1676384, Note_off_c, 0, 85, 68
1, 1676454, Note_off_c, 0, 61, 62
1, 1676492, Note_on_c, 0, 49, 86
1, 1676498, Note_on_c, 0, 90, 90
1, 1676502, Note_on_c, 0, 78, 92
1, 1676506, Note_on_c, 0, 85, 81
1, 1676506, Note_on_c, 0, 82, 80
1, 1676548, Control_c, 0, 64, 93
1, 1676564, Control_c, 0, 64, 65
1, 1676579, Control_c, 0, 64, 30
1, 1676593, Control_c, 0, 64, 0
1, 1676598, Note_on_c, 0, 54, 62
1, 1676675, Control_c, 0, 64, 49
1, 1676686, Note_on_c, 0, 58, 74
1, 1676690, Control_c, 0, 64, 64
1, 1676692, Note_off_c, 0, 49, 61
1, 1676705, Control_c, 0, 64, 75
1, 1676713, Note_off_c, 0, 78, 55
1, 1676720, Control_c, 0, 64, 94
1, 1676720, Control_c, 0, 67, 34
1, 1676735, Control_c, 0, 64, 127
1, 1676735, Control_c, 0, 67, 0
1, 1676742, Note_off_c, 0, 90, 59
1, 1676760, Note_off_c, 0, 54, 56
1, 1676764, Control_c, 0, 67, 35
1, 1676779, Control_c, 0, 67, 41
1, 1676781, Note_on_c, 0, 61, 70
1, 1676787, Note_off_c, 0, 58, 58
1, 1676794, Control_c, 0, 67, 56
1, 1676803, Note_off_c, 0, 82, 60
1, 1676808, Control_c, 0, 67, 62
1, 1676813, Note_off_c, 0, 61, 64
1, 1676819, Note_off_c, 0, 85, 64
1, 1676838, Control_c, 0, 67, 65
1, 1676843, Note_on_c, 0, 49, 78
1, 1676853, Control_c, 0, 67, 74
1, 1676867, Control_c, 0, 67, 100
1, 1676882, Control_c, 0, 67, 127
1, 1676921, Note_on_c, 0, 54, 67
1, 1676943, Note_off_c, 0, 49, 61
1, 1677009, Note_on_c, 0, 58, 64
1, 1677064, Note_off_c, 0, 54, 55
1, 1677075, Note_on_c, 0, 61, 63
1, 1677090, Note_on_c, 0, 78, 55
1, 1677094, Note_on_c, 0, 90, 63
1, 1677097, Note_off_c, 0, 58, 54
1, 1677106, Note_off_c, 0, 61, 64
1, 1677110, Note_off_c, 0, 78, 60
1, 1677120, Note_off_c, 0, 90, 66
1, 1677134, Control_c, 0, 64, 106
1, 1677149, Control_c, 0, 64, 70
1, 1677152, Note_on_c, 0, 50, 78
1, 1677160, Note_on_c, 0, 94, 93
1, 1677164, Control_c, 0, 64, 42
1, 1677174, Note_on_c, 0, 82, 78
1, 1677179, Control_c, 0, 64, 28
1, 1677193, Control_c, 0, 64, 35
1, 1677208, Control_c, 0, 64, 51
1, 1677223, Control_c, 0, 64, 67
1, 1677238, Control_c, 0, 64, 83
1, 1677248, Note_on_c, 0, 54, 72
1, 1677253, Control_c, 0, 64, 127
1, 1677283, Note_off_c, 0, 50, 60
1, 1677312, Note_off_c, 0, 82, 60
1, 1677328, Note_on_c, 0, 58, 69
1, 1677330, Note_off_c, 0, 94, 63
1, 1677368, Note_off_c, 0, 54, 61
1, 1677409, Note_on_c, 0, 94, 83
1, 1677410, Note_on_c, 0, 62, 73
1, 1677414, Note_on_c, 0, 82, 84
1, 1677433, Note_off_c, 0, 82, 68
1, 1677442, Note_off_c, 0, 94, 62
1, 1677445, Note_off_c, 0, 58, 60
1, 1677454, Control_c, 0, 64, 74
1, 1677469, Control_c, 0, 64, 47
1, 1677483, Control_c, 0, 64, 29
1, 1677493, Note_off_c, 0, 62, 54
1, 1677494, Note_on_c, 0, 51, 82
1, 1677498, Note_on_c, 0, 90, 88
1, 1677498, Control_c, 0, 64, 34
1, 1677506, Note_on_c, 0, 78, 90
1, 1677513, Control_c, 0, 64, 50
1, 1677528, Control_c, 0, 64, 67
1, 1677543, Control_c, 0, 64, 89
1, 1677558, Control_c, 0, 64, 127
1, 1677576, Note_on_c, 0, 54, 66
1, 1677602, Note_off_c, 0, 51, 61
1, 1677645, Note_on_c, 0, 58, 68
1, 1677645, Note_off_c, 0, 90, 62
1, 1677663, Note_off_c, 0, 54, 58
1, 1677677, Note_off_c, 0, 78, 19
1, 1677724, Note_off_c, 0, 58, 58
1, 1677731, Note_on_c, 0, 63, 56
1, 1677738, Note_on_c, 0, 90, 71
1, 1677741, Note_on_c, 0, 78, 70
1, 1677761, Note_off_c, 0, 90, 70
1, 1677763, Note_off_c, 0, 78, 69
1, 1677764, Note_off_c, 0, 63, 64
1, 1677794, Control_c, 0, 64, 91
1, 1677807, Note_on_c, 0, 53, 71
1, 1677809, Control_c, 0, 64, 66
1, 1677815, Note_on_c, 0, 89, 87
1, 1677824, Control_c, 0, 64, 48
1, 1677829, Note_on_c, 0, 77, 82
1, 1677839, Control_c, 0, 64, 43
1, 1677854, Control_c, 0, 64, 46
1, 1677869, Control_c, 0, 64, 57
1, 1677874, Note_off_c, 0, 77, 56
1, 1677883, Control_c, 0, 64, 66
1, 1677898, Control_c, 0, 64, 82
1, 1677905, Note_on_c, 0, 58, 66
1, 1677913, Control_c, 0, 64, 127
1, 1677934, Note_on_c, 0, 77, 23
1, 1677946, Note_off_c, 0, 53, 60
1, 1677966, Note_off_c, 0, 89, 61
1, 1677968, Note_off_c, 0, 77, 60
1, 1677991, Note_on_c, 0, 61, 63
1, 1677997, Note_off_c, 0, 58, 55
1, 1678054, Note_on_c, 0, 77, 75
1, 1678055, Note_on_c, 0, 89, 78
1, 1678068, Note_on_c, 0, 65, 66
1, 1678078, Note_off_c, 0, 77, 67
1, 1678083, Note_off_c, 0, 89, 63
1, 1678089, Note_off_c, 0, 61, 61
1, 1678140, Note_off_c, 0, 65, 51
1, 1678142, Control_c, 0, 64, 88
1, 1678149, Note_on_c, 0, 87, 84
1, 1678157, Control_c, 0, 64, 63
1, 1678167, Note_on_c, 0, 54, 68
1, 1678169, Note_on_c, 0, 75, 69
1, 1678173, Control_c, 0, 64, 41
1, 1678188, Control_c, 0, 64, 31
1, 1678199, Note_off_c, 0, 75, 55
1, 1678202, Control_c, 0, 64, 38
1, 1678217, Control_c, 0, 64, 54
1, 1678232, Control_c, 0, 64, 68
1, 1678247, Control_c, 0, 64, 80
1, 1678257, Note_on_c, 0, 58, 66
1, 1678262, Control_c, 0, 64, 89
1, 1678268, Note_off_c, 0, 54, 60
1, 1678277, Control_c, 0, 64, 90
1, 1678292, Control_c, 0, 64, 94
1, 1678307, Control_c, 0, 64, 103
1, 1678314, Note_off_c, 0, 87, 56
1, 1678321, Control_c, 0, 64, 127
1, 1678325, Note_off_c, 0, 58, 57
1, 1678337, Note_on_c, 0, 61, 52
1, 1678433, Note_on_c, 0, 87, 63
1, 1678438, Note_on_c, 0, 66, 47
1, 1678440, Note_off_c, 0, 61, 31
1, 1678445, Note_on_c, 0, 75, 55
1, 1678467, Note_off_c, 0, 87, 60
1, 1678477, Note_off_c, 0, 66, 65
1, 1678479, Note_off_c, 0, 75, 65
1, 1678539, Note_on_c, 0, 53, 57
1, 1678543, Control_c, 0, 64, 91
1, 1678548, Note_on_c, 0, 89, 62
1, 1678557, Control_c, 0, 64, 65
1, 1678572, Control_c, 0, 64, 45
1, 1678587, Control_c, 0, 64, 38
1, 1678590, Note_on_c, 0, 77, 30
1, 1678602, Control_c, 0, 64, 44
1, 1678617, Control_c, 0, 64, 58
1, 1678632, Control_c, 0, 64, 68
1, 1678647, Note_on_c, 0, 58, 50
1, 1678647, Control_c, 0, 64, 80
1, 1678661, Control_c, 0, 64, 94
1, 1678670, Note_off_c, 0, 77, 59
1, 1678676, Control_c, 0, 64, 106
1, 1678685, Note_off_c, 0, 89, 58
1, 1678691, Control_c, 0, 64, 127
1, 1678707, Note_off_c, 0, 53, 37
1, 1678742, Note_on_c, 0, 61, 40
1, 1678784, Note_off_c, 0, 58, 30
1, 1678800, Note_on_c, 0, 89, 67
1, 1678809, Note_on_c, 0, 65, 51
1, 1678809, Note_off_c, 0, 61, 52
1, 1678816, Note_on_c, 0, 77, 43
1, 1678826, Note_off_c, 0, 89, 67
1, 1678842, Note_off_c, 0, 77, 57
1, 1678855, Note_off_c, 0, 65, 54
1, 1678888, Note_on_c, 0, 89, 85
1, 1678891, Control_c, 0, 64, 76
1, 1678901, Note_on_c, 0, 53, 57
1, 1678906, Control_c, 0, 64, 55
1, 1678911, Note_on_c, 0, 77, 70
1, 1678921, Control_c, 0, 64, 38
1, 1678936, Control_c, 0, 64, 40
1, 1678951, Control_c, 0, 64, 53
1, 1678966, Control_c, 0, 64, 65
1, 1678981, Control_c, 0, 64, 77
1, 1678995, Control_c, 0, 64, 93
1, 1679004, Note_on_c, 0, 58, 58
1, 1679010, Control_c, 0, 64, 102
1, 1679014, Note_off_c, 0, 53, 52
1, 1679023, Note_off_c, 0, 77, 55
1, 1679025, Control_c, 0, 64, 112
1, 1679040, Control_c, 0, 64, 127
1, 1679050, Note_off_c, 0, 89, 60
1, 1679078, Note_off_c, 0, 58, 49
1, 1679094, Note_on_c, 0, 61, 43
1, 1679174, Note_off_c, 0, 61, 50
1, 1679175, Note_on_c, 0, 89, 64
1, 1679180, Note_on_c, 0, 65, 39
1, 1679197, Note_on_c, 0, 77, 45
1, 1679204, Note_off_c, 0, 89, 64
1, 1679224, Note_off_c, 0, 77, 57
1, 1679293, Note_on_c, 0, 53, 50
1, 1679294, Note_on_c, 0, 89, 63
1, 1679305, Note_off_c, 0, 65, 28
1, 1679314, Note_on_c, 0, 77, 44
1, 1679322, Control_c, 0, 64, 96
1, 1679336, Control_c, 0, 64, 70
1, 1679351, Control_c, 0, 64, 53
1, 1679366, Control_c, 0, 64, 42
1, 1679380, Control_c, 0, 64, 43
1, 1679395, Control_c, 0, 64, 51
1, 1679410, Control_c, 0, 64, 63
1, 1679422, Note_on_c, 0, 58, 40
1, 1679425, Control_c, 0, 64, 70
1, 1679440, Control_c, 0, 64, 77
1, 1679454, Control_c, 0, 64, 82
1, 1679469, Control_c, 0, 64, 87
1, 1679474, Note_off_c, 0, 53, 37
1, 1679479, Note_off_c, 0, 77, 44
1, 1679484, Control_c, 0, 64, 97
1, 1679487, Note_off_c, 0, 89, 55
1, 1679499, Control_c, 0, 64, 127
1, 1679529, Note_on_c, 0, 60, 33
1, 1679549, Note_off_c, 0, 58, 36
1, 1679648, Note_off_c, 0, 60, 37
1, 1679666, Note_on_c, 0, 89, 42
1, 1679687, Poly_aftertouch_c, 0, 65, 127
1, 1679702, Note_off_c, 0, 89, 48
1, 1679731, Poly_aftertouch_c, 0, 77, 127
1, 1679753, Poly_aftertouch_c, 0, 65, 0
1, 1679760, Poly_aftertouch_c, 0, 77, 0
1, 1679797, Note_on_c, 0, 89, 56
1, 1679802, Note_on_c, 0, 53, 36
1, 1679848, Control_c, 0, 64, 82
1, 1679863, Control_c, 0, 64, 62
1, 1679878, Control_c, 0, 64, 48
1, 1679893, Control_c, 0, 64, 45
1, 1679907, Control_c, 0, 64, 50
1, 1679922, Control_c, 0, 64, 60
1, 1679937, Control_c, 0, 64, 67
1, 1679952, Control_c, 0, 64, 74
1, 1679957, Note_on_c, 0, 57, 45
1, 1679958, Poly_aftertouch_c, 0, 77, 0
1, 1679967, Control_c, 0, 64, 81
1, 1679982, Control_c, 0, 64, 87
1, 1679991, Note_off_c, 0, 53, 53
1, 1679997, Control_c, 0, 64, 95
1, 1680009, Note_off_c, 0, 89, 47
1, 1680011, Control_c, 0, 64, 111
1, 1680026, Control_c, 0, 64, 127
1, 1680079, Note_off_c, 0, 57, 38
1, 1680106, Note_on_c, 0, 60, 29
1, 1680196, Note_off_c, 0, 60, 53
1, 1680209, Note_on_c, 0, 65, 46
1, 1680235, Note_off_c, 0, 65, 58
1, 1680280, Note_on_c, 0, 89, 45
1, 1680337, Poly_aftertouch_c, 0, 77, 127
1, 1680498, Poly_aftertouch_c, 0, 77, 0
1, 1680551, Control_c, 0, 64, 91
1, 1680567, Control_c, 0, 64, 69
1, 1680582, Control_c, 0, 64, 54
1, 1680597, Note_on_c, 0, 46, 37
1, 1680597, Control_c, 0, 64, 42
1, 1680612, Control_c, 0, 64, 39
1, 1680617, Note_on_c, 0, 82, 51
1, 1680627, Control_c, 0, 64, 40
1, 1680641, Control_c, 0, 64, 45
1, 1680656, Control_c, 0, 64, 54
1, 1680671, Control_c, 0, 64, 61
1, 1680683, Note_off_c, 0, 89, 30
1, 1680686, Control_c, 0, 64, 67
1, 1680701, Control_c, 0, 64, 77
1, 1680711, Note_off_c, 0, 46, 61
1, 1680715, Control_c, 0, 64, 90
1, 1680730, Control_c, 0, 64, 104
1, 1680745, Control_c, 0, 64, 115
1, 1680760, Control_c, 0, 64, 127
1, 1680863, Note_off_c, 0, 82, 62
1, 1680946, Note_on_c, 0, 62, 8
1, 1681093, Note_on_c, 0, 65, 37
1, 1681121, Note_off_c, 0, 62, 37
1, 1681261, Note_on_c, 0, 58, 45
1, 1681285, Note_off_c, 0, 65, 29
1, 1681418, Note_off_c, 0, 58, 38
1, 1681426, Note_on_c, 0, 62, 30
1, 1681524, Note_on_c, 0, 65, 41
1, 1681543, Note_on_c, 0, 82, 46
1, 1681655, Note_off_c, 0, 62, 43
1, 1681660, Note_off_c, 0, 82, 62
1, 1681668, Note_off_c, 0, 65, 38
1, 1681672, Note_on_c, 0, 86, 56
1, 1681679, Note_on_c, 0, 58, 44
1, 1681704, Note_off_c, 0, 86, 65
1, 1681792, Note_on_c, 0, 62, 38
1, 1681812, Note_off_c, 0, 58, 36
1, 1681902, Note_on_c, 0, 86, 55
1, 1681903, Note_on_c, 0, 65, 44
1, 1681983, Note_on_c, 0, 82, 74
1, 1681987, Note_off_c, 0, 62, 43
1, 1681999, Note_on_c, 0, 58, 55
1, 1682000, Note_off_c, 0, 65, 50
1, 1682006, Note_off_c, 0, 86, 64
1, 1682026, Note_off_c, 0, 82, 60
1, 1682068, Note_off_c, 0, 58, 55
1, 1682118, Note_on_c, 0, 62, 41
1, 1682205, Note_on_c, 0, 82, 70
1, 1682227, Note_on_c, 0, 65, 40
1, 1682235, Note_off_c, 0, 62, 49
1, 1682286, Control_c, 0, 64, 123
1, 1682301, Control_c, 0, 64, 89
1, 1682308, Note_on_c, 0, 77, 54
1, 1682316, Control_c, 0, 64, 76
1, 1682319, Note_on_c, 0, 58, 61
1, 1682327, Note_off_c, 0, 65, 50
1, 1682331, Control_c, 0, 64, 74
1, 1682340, Note_off_c, 0, 82, 54
1, 1682346, Control_c, 0, 64, 78
1, 1682361, Control_c, 0, 64, 97
1, 1682376, Control_c, 0, 64, 127
1, 1682392, Note_off_c, 0, 77, 64
1, 1682440, Note_off_c, 0, 58, 52
1, 1682448, Note_on_c, 0, 62, 43
1, 1682538, Note_on_c, 0, 77, 57
1, 1682541, Note_on_c, 0, 65, 44
1, 1682560, Note_off_c, 0, 62, 45
1, 1682635, Control_c, 0, 64, 82
1, 1682641, Note_on_c, 0, 56, 58
1, 1682642, Note_on_c, 0, 74, 70
1, 1682650, Control_c, 0, 64, 65
1, 1682661, Note_off_c, 0, 77, 56
1, 1682665, Note_off_c, 0, 65, 50
1, 1682665, Control_c, 0, 64, 56
1, 1682679, Control_c, 0, 64, 55
1, 1682694, Control_c, 0, 64, 59
1, 1682709, Control_c, 0, 64, 66
1, 1682724, Control_c, 0, 64, 77
1, 1682738, Control_c, 0, 64, 92
1, 1682753, Control_c, 0, 64, 102
1, 1682768, Control_c, 0, 64, 106
1, 1682771, Note_off_c, 0, 56, 53
1, 1682772, Note_on_c, 0, 62, 46
1, 1682772, Note_off_c, 0, 74, 58
1, 1682783, Control_c, 0, 64, 127
1, 1682903, Note_on_c, 0, 65, 40
1, 1682914, Note_on_c, 0, 74, 55
1, 1682966, Note_off_c, 0, 62, 35
1, 1682976, Control_c, 0, 64, 79
1, 1682991, Control_c, 0, 64, 58
1, 1683005, Note_off_c, 0, 74, 58
1, 1683006, Control_c, 0, 64, 40
1, 1683009, Note_on_c, 0, 55, 46
1, 1683016, Note_on_c, 0, 75, 64
1, 1683021, Control_c, 0, 64, 34
1, 1683031, Note_off_c, 0, 65, 48
1, 1683035, Control_c, 0, 64, 38
1, 1683050, Control_c, 0, 64, 50
1, 1683065, Control_c, 0, 64, 61
1, 1683080, Control_c, 0, 64, 69
1, 1683094, Control_c, 0, 64, 76
1, 1683109, Control_c, 0, 64, 85
1, 1683124, Control_c, 0, 64, 95
1, 1683130, Note_off_c, 0, 55, 53
1, 1683139, Control_c, 0, 64, 109
1, 1683144, Note_off_c, 0, 75, 49
1, 1683154, Control_c, 0, 64, 127
1, 1683154, Note_on_c, 0, 63, 40
1, 1683256, Note_on_c, 0, 65, 38
1, 1683273, Note_on_c, 0, 75, 61
1, 1683332, Control_c, 0, 64, 88
1, 1683334, Note_off_c, 0, 63, 37
1, 1683346, Control_c, 0, 64, 66
1, 1683359, Note_on_c, 0, 57, 47
1, 1683361, Control_c, 0, 64, 52
1, 1683365, Note_on_c, 0, 72, 57
1, 1683371, Note_off_c, 0, 75, 55
1, 1683383, Control_c, 0, 64, 51
1, 1683396, Note_off_c, 0, 65, 37
1, 1683398, Control_c, 0, 64, 57
1, 1683413, Control_c, 0, 64, 66
1, 1683428, Control_c, 0, 64, 77
1, 1683443, Control_c, 0, 64, 91
1, 1683458, Control_c, 0, 64, 102
1, 1683473, Control_c, 0, 64, 110
1, 1683479, Note_on_c, 0, 63, 44
1, 1683488, Control_c, 0, 64, 127
1, 1683549, Note_off_c, 0, 72, 35
1, 1683565, Note_off_c, 0, 57, 35
1, 1683610, Note_on_c, 0, 65, 37
1, 1683636, Note_on_c, 0, 72, 55
1, 1683650, Control_c, 0, 64, 95
1, 1683665, Control_c, 0, 64, 69
1, 1683668, Note_off_c, 0, 63, 42
1, 1683679, Note_off_c, 0, 65, 50
1, 1683679, Control_c, 0, 64, 50
1, 1683694, Control_c, 0, 64, 38
1, 1683709, Control_c, 0, 64, 42
1, 1683724, Note_on_c, 0, 58, 38
1, 1683724, Control_c, 0, 64, 54
1, 1683736, Note_on_c, 0, 77, 54
1, 1683738, Note_off_c, 0, 72, 32
1, 1683739, Control_c, 0, 64, 68
1, 1683755, Control_c, 0, 64, 89
1, 1683770, Control_c, 0, 64, 127
1, 1683851, Note_on_c, 0, 62, 42
1, 1683865, Note_off_c, 0, 58, 37
1, 1683952, Note_on_c, 0, 65, 49
1, 1683962, Note_on_c, 0, 82, 61
1, 1683962, Note_off_c, 0, 77, 58
1, 1683995, Note_off_c, 0, 62, 52
1, 1684042, Note_off_c, 0, 65, 51
1, 1684045, Note_off_c, 0, 82, 57
1, 1684054, Note_on_c, 0, 77, 65
1, 1684060, Note_on_c, 0, 58, 53
1, 1684072, Note_off_c, 0, 77, 66
1, 1684113, Note_off_c, 0, 58, 56
1, 1684178, Note_on_c, 0, 62, 45
1, 1684277, Note_on_c, 0, 82, 72
1, 1684279, Note_on_c, 0, 65, 46
1, 1684310, Control_c, 0, 64, 81
1, 1684320, Note_off_c, 0, 62, 34
1, 1684325, Control_c, 0, 64, 65
1, 1684340, Control_c, 0, 64, 59
1, 1684355, Control_c, 0, 64, 61
1, 1684366, Note_off_c, 0, 65, 48
1, 1684370, Control_c, 0, 64, 67
1, 1684375, Note_on_c, 0, 58, 58
1, 1684376, Note_on_c, 0, 86, 77
1, 1684382, Note_off_c, 0, 82, 61
1, 1684384, Control_c, 0, 64, 81
1, 1684399, Control_c, 0, 64, 127
1, 1684420, Note_off_c, 0, 86, 63
1, 1684454, Note_off_c, 0, 58, 58
1, 1684479, Note_on_c, 0, 62, 45
1, 1684593, Note_on_c, 0, 65, 48
1, 1684595, Note_on_c, 0, 86, 75
1, 1684622, Control_c, 0, 64, 103
1, 1684626, Note_off_c, 0, 62, 52
1, 1684637, Control_c, 0, 64, 81
1, 1684652, Control_c, 0, 64, 70
1, 1684667, Control_c, 0, 64, 68
1, 1684677, Note_off_c, 0, 65, 52
1, 1684681, Control_c, 0, 64, 73
1, 1684690, Note_on_c, 0, 89, 73
1, 1684696, Note_on_c, 0, 57, 56
1, 1684696, Control_c, 0, 64, 89
1, 1684703, Note_off_c, 0, 86, 63
1, 1684711, Control_c, 0, 64, 127
1, 1684734, Note_off_c, 0, 89, 63
1, 1684774, Note_off_c, 0, 57, 62
1, 1684799, Note_on_c, 0, 60, 39
1, 1684831, Note_off_c, 0, 60, 54
1, 1684897, Note_on_c, 0, 65, 55
1, 1684906, Note_on_c, 0, 89, 69
1, 1684936, Note_off_c, 0, 65, 57
1, 1684970, Control_c, 0, 64, 87
1, 1684985, Control_c, 0, 64, 67
1, 1684991, Note_on_c, 0, 55, 51
1, 1685000, Note_on_c, 0, 94, 82
1, 1685000, Control_c, 0, 64, 57
1, 1685002, Note_off_c, 0, 89, 59
1, 1685014, Control_c, 0, 64, 57
1, 1685029, Control_c, 0, 64, 63
1, 1685044, Control_c, 0, 64, 74
1, 1685048, Note_off_c, 0, 94, 63
1, 1685059, Control_c, 0, 64, 101
1, 1685073, Control_c, 0, 64, 127
1, 1685075, Note_off_c, 0, 55, 38
1, 1685098, Note_on_c, 0, 58, 52
1, 1685204, Note_on_c, 0, 62, 50
1, 1685208, Note_off_c, 0, 58, 51
1, 1685208, Note_on_c, 0, 94, 74
1, 1685296, Control_c, 0, 64, 94
1, 1685297, Note_off_c, 0, 94, 63
1, 1685311, Note_off_c, 0, 62, 49
1, 1685311, Control_c, 0, 64, 70
1, 1685312, Note_on_c, 0, 96, 74
1, 1685318, Note_on_c, 0, 55, 52
1, 1685325, Control_c, 0, 64, 58
1, 1685356, Note_off_c, 0, 96, 67
1, 1685356, Control_c, 0, 64, 63
1, 1685371, Control_c, 0, 64, 74
1, 1685386, Control_c, 0, 64, 94
1, 1685393, Note_off_c, 0, 55, 59
1, 1685401, Control_c, 0, 64, 127
1, 1685420, Note_on_c, 0, 58, 50
1, 1685529, Note_off_c, 0, 58, 49
1, 1685534, Note_on_c, 0, 96, 65
1, 1685550, Note_on_c, 0, 64, 46
1, 1685627, Note_off_c, 0, 64, 44
1, 1685630, Control_c, 0, 64, 83
1, 1685645, Control_c, 0, 64, 65
1, 1685660, Control_c, 0, 64, 56
1, 1685670, Note_on_c, 0, 98, 66
1, 1685670, Note_off_c, 0, 96, 62
1, 1685690, Control_c, 0, 64, 62
1, 1685704, Control_c, 0, 64, 72
1, 1685705, Note_on_c, 0, 53, 37
1, 1685719, Control_c, 0, 64, 91
1, 1685722, Note_off_c, 0, 98, 65
1, 1685734, Control_c, 0, 64, 127
1, 1685767, Note_off_c, 0, 53, 58
1, 1685805, Note_on_c, 0, 58, 47
1, 1685836, Note_off_c, 0, 58, 60
1, 1685917, Note_on_c, 0, 98, 61
1, 1685939, Note_on_c, 0, 65, 41
1, 1685956, Control_c, 0, 64, 118
1, 1685971, Control_c, 0, 64, 80
1, 1685986, Control_c, 0, 64, 64
1, 1685988, Note_off_c, 0, 65, 44
1, 1686000, Control_c, 0, 64, 55
1, 1686015, Control_c, 0, 64, 54
1, 1686030, Control_c, 0, 64, 60
1, 1686032, Note_on_c, 0, 101, 63
1, 1686037, Note_off_c, 0, 98, 58
1, 1686045, Control_c, 0, 64, 67
1, 1686050, Note_on_c, 0, 53, 43
1, 1686060, Control_c, 0, 64, 79
1, 1686074, Control_c, 0, 64, 95
1, 1686089, Note_off_c, 0, 101, 60
1, 1686089, Control_c, 0, 64, 106
1, 1686104, Control_c, 0, 64, 117
1, 1686116, Note_off_c, 0, 53, 57
1, 1686119, Control_c, 0, 64, 127
1, 1686164, Note_on_c, 0, 57, 35
1, 1686221, Note_off_c, 0, 57, 50
1, 1686285, Note_on_c, 0, 65, 40
1, 1686305, Note_on_c, 0, 101, 55
1, 1686314, Note_off_c, 0, 65, 54
1, 1686453, Control_c, 0, 64, 101
1, 1686468, Control_c, 0, 64, 72
1, 1686483, Control_c, 0, 64, 58
1, 1686492, Note_on_c, 0, 46, 42
1, 1686497, Control_c, 0, 64, 54
1, 1686511, Note_on_c, 0, 98, 61
1, 1686512, Control_c, 0, 64, 58
1, 1686527, Control_c, 0, 64, 66
1, 1686542, Control_c, 0, 64, 81
1, 1686556, Note_off_c, 0, 46, 61
1, 1686557, Note_off_c, 0, 101, 43
1, 1686557, Control_c, 0, 64, 101
1, 1686571, Control_c, 0, 64, 127
1, 1686689, Note_off_c, 0, 98, 66
1, 1686701, Note_on_c, 0, 62, 50
1, 1686753, Note_off_c, 0, 62, 54
1, 1686819, Note_on_c, 0, 65, 40
1, 1686857, Note_off_c, 0, 65, 48
1, 1686913, Note_on_c, 0, 58, 49
1, 1686990, Note_off_c, 0, 58, 52
1, 1687032, Note_on_c, 0, 62, 42
1, 1687141, Note_on_c, 0, 65, 43
1, 1687151, Note_off_c, 0, 62, 28
1, 1687168, Note_on_c, 0, 82, 55
1, 1687260, Note_off_c, 0, 65, 37
1, 1687269, Note_on_c, 0, 58, 44
1, 1687270, Note_on_c, 0, 86, 61
1, 1687273, Note_off_c, 0, 82, 58
1, 1687299, Note_off_c, 0, 86, 65
1, 1687401, Note_on_c, 0, 62, 42
1, 1687415, Note_off_c, 0, 58, 37
1, 1687489, Note_on_c, 0, 65, 50
1, 1687493, Note_on_c, 0, 86, 67
1, 1687551, Note_off_c, 0, 62, 35
1, 1687572, Control_c, 0, 64, 97
1, 1687587, Control_c, 0, 64, 80
1, 1687591, Note_on_c, 0, 58, 59
1, 1687591, Note_on_c, 0, 82, 80
1, 1687598, Note_off_c, 0, 65, 50
1, 1687601, Control_c, 0, 64, 72
1, 1687619, Note_off_c, 0, 86, 65
1, 1687631, Control_c, 0, 64, 79
1, 1687638, Note_off_c, 0, 82, 62
1, 1687646, Control_c, 0, 64, 100
1, 1687661, Control_c, 0, 64, 127
1, 1687705, Note_on_c, 0, 62, 52
1, 1687719, Note_off_c, 0, 58, 52
1, 1687804, Note_on_c, 0, 65, 50
1, 1687808, Note_on_c, 0, 82, 75
1, 1687831, Note_off_c, 0, 62, 56
1, 1687892, Control_c, 0, 64, 85
1, 1687904, Note_on_c, 0, 77, 85
1, 1687906, Control_c, 0, 64, 68
1, 1687911, Note_off_c, 0, 65, 58
1, 1687911, Note_on_c, 0, 58, 58
1, 1687921, Control_c, 0, 64, 61
1, 1687936, Control_c, 0, 64, 62
1, 1687950, Control_c, 0, 64, 68
1, 1687959, Note_off_c, 0, 82, 60
1, 1687965, Control_c, 0, 64, 82
1, 1687980, Control_c, 0, 64, 127
1, 1687987, Note_off_c, 0, 77, 62
1, 1687998, Note_off_c, 0, 58, 57
1, 1688010, Note_on_c, 0, 62, 56
1, 1688117, Note_on_c, 0, 65, 49
1, 1688121, Note_off_c, 0, 62, 49
1, 1688136, Note_on_c, 0, 77, 65
1, 1688203, Control_c, 0, 64, 91
1, 1688217, Control_c, 0, 64, 66
1, 1688223, Note_on_c, 0, 56, 57
1, 1688224, Note_off_c, 0, 65, 50
1, 1688231, Note_on_c, 0, 74, 68
1, 1688232, Control_c, 0, 64, 49
1, 1688236, Note_off_c, 0, 77, 57
1, 1688247, Control_c, 0, 64, 42
1, 1688262, Control_c, 0, 64, 46
1, 1688276, Control_c, 0, 64, 59
1, 1688291, Control_c, 0, 64, 68
1, 1688296, Note_off_c, 0, 74, 58
1, 1688306, Control_c, 0, 64, 78
1, 1688321, Control_c, 0, 64, 89
1, 1688336, Control_c, 0, 64, 95
1, 1688343, Note_on_c, 0, 62, 51
1, 1688350, Control_c, 0, 64, 105
1, 1688365, Control_c, 0, 64, 127
1, 1688382, Note_off_c, 0, 56, 38
1, 1688464, Note_on_c, 0, 65, 43
1, 1688472, Note_on_c, 0, 74, 62
1, 1688544, Control_c, 0, 64, 87
1, 1688550, Note_off_c, 0, 62, 36
1, 1688558, Control_c, 0, 64, 66
1, 1688570, Note_off_c, 0, 74, 58
1, 1688573, Control_c, 0, 64, 50
1, 1688588, Control_c, 0, 64, 42
1, 1688592, Note_on_c, 0, 77, 60
1, 1688596, Note_on_c, 0, 55, 42
1, 1688603, Control_c, 0, 64, 44
1, 1688626, Control_c, 0, 64, 53
1, 1688641, Control_c, 0, 64, 61
1, 1688655, Control_c, 0, 64, 67
1, 1688665, Note_off_c, 0, 65, 32
1, 1688670, Control_c, 0, 64, 71
1, 1688685, Control_c, 0, 64, 78
1, 1688699, Control_c, 0, 64, 86
1, 1688705, Note_off_c, 0, 55, 56
1, 1688714, Control_c, 0, 64, 100
1, 1688719, Note_off_c, 0, 77, 56
1, 1688729, Control_c, 0, 64, 127
1, 1688740, Note_on_c, 0, 63, 42
1, 1688886, Note_on_c, 0, 65, 35
1, 1688898, Note_on_c, 0, 77, 54
1, 1688915, Note_off_c, 0, 63, 46
1, 1688967, Control_c, 0, 64, 89
1, 1688981, Control_c, 0, 64, 68
1, 1688996, Control_c, 0, 64, 53
1, 1688997, Note_off_c, 0, 77, 57
1, 1689004, Note_on_c, 0, 57, 45
1, 1689005, Note_on_c, 0, 75, 54
1, 1689011, Control_c, 0, 64, 49
1, 1689026, Control_c, 0, 64, 52
1, 1689041, Control_c, 0, 64, 58
1, 1689056, Control_c, 0, 64, 64
1, 1689071, Control_c, 0, 64, 70
1, 1689086, Control_c, 0, 64, 79
1, 1689100, Control_c, 0, 64, 94
1, 1689106, Note_off_c, 0, 65, 32
1, 1689114, Note_off_c, 0, 57, 58
1, 1689115, Control_c, 0, 64, 109
1, 1689130, Control_c, 0, 64, 127
1, 1689141, Note_on_c, 0, 60, 40
1, 1689141, Note_off_c, 0, 75, 50
1, 1689230, Note_off_c, 0, 60, 60
1, 1689269, Note_on_c, 0, 75, 54
1, 1689274, Note_on_c, 0, 65, 39
1, 1689367, Note_off_c, 0, 75, 56
1, 1689386, Note_on_c, 0, 58, 46
1, 1689389, Note_on_c, 0, 74, 59
1, 1689390, Control_c, 0, 64, 88
1, 1689393, Note_off_c, 0, 65, 47
1, 1689405, Control_c, 0, 64, 64
1, 1689420, Control_c, 0, 64, 47
1, 1689434, Control_c, 0, 64, 36
1, 1689449, Control_c, 0, 64, 38
1, 1689464, Control_c, 0, 64, 48
1, 1689479, Control_c, 0, 64, 62
1, 1689494, Control_c, 0, 64, 77
1, 1689508, Note_on_c, 0, 62, 37
1, 1689509, Control_c, 0, 64, 112
1, 1689523, Control_c, 0, 64, 127
1, 1689572, Note_off_c, 0, 58, 25
1, 1689605, Note_on_c, 0, 65, 45
1, 1689636, Note_on_c, 0, 82, 63
1, 1689675, Note_off_c, 0, 74, 54
1, 1689685, Note_off_c, 0, 62, 34
1, 1689712, Note_on_c, 0, 58, 43
1, 1689728, Note_off_c, 0, 82, 61
1, 1689730, Note_on_c, 0, 77, 59
1, 1689730, Note_off_c, 0, 65, 38
1, 1689749, Note_off_c, 0, 77, 66
1, 1689822, Note_on_c, 0, 62, 46
1, 1689864, Note_off_c, 0, 58, 32
1, 1689932, Note_on_c, 0, 65, 49
1, 1689936, Note_on_c, 0, 82, 70
1, 1689982, Control_c, 0, 64, 100
1, 1689996, Control_c, 0, 64, 74
1, 1690000, Note_off_c, 0, 62, 43
1, 1690011, Control_c, 0, 64, 60
1, 1690026, Control_c, 0, 64, 58
1, 1690027, Note_off_c, 0, 82, 56
1, 1690037, Note_off_c, 0, 65, 45
1, 1690039, Note_on_c, 0, 58, 50
1, 1690039, Note_on_c, 0, 86, 72
1, 1690040, Control_c, 0, 64, 63
1, 1690055, Control_c, 0, 64, 72
1, 1690066, Note_off_c, 0, 86, 64
1, 1690070, Control_c, 0, 64, 94
1, 1690085, Control_c, 0, 64, 127
1, 1690153, Note_on_c, 0, 62, 43
1, 1690218, Note_off_c, 0, 58, 36
1, 1690254, Note_on_c, 0, 65, 54
1, 1690261, Note_on_c, 0, 86, 68
1, 1690288, Note_off_c, 0, 62, 48
1, 1690316, Control_c, 0, 64, 84
1, 1690331, Control_c, 0, 64, 65
1, 1690340, Note_off_c, 0, 65, 49
1, 1690345, Control_c, 0, 64, 59
1, 1690347, Note_on_c, 0, 89, 74
1, 1690353, Note_off_c, 0, 86, 65
1, 1690360, Control_c, 0, 64, 60
1, 1690363, Note_on_c, 0, 57, 51
1, 1690375, Control_c, 0, 64, 66
1, 1690379, Note_off_c, 0, 89, 60
1, 1690390, Control_c, 0, 64, 81
1, 1690405, Control_c, 0, 64, 127
1, 1690432, Note_off_c, 0, 57, 61
1, 1690474, Note_on_c, 0, 60, 43
1, 1690508, Note_off_c, 0, 60, 57
1, 1690557, Note_on_c, 0, 65, 56
1, 1690559, Note_on_c, 0, 89, 61
1, 1690594, Note_off_c, 0, 65, 61
1, 1690642, Control_c, 0, 64, 83
1, 1690657, Control_c, 0, 64, 65
1, 1690666, Note_on_c, 0, 55, 50
1, 1690666, Note_on_c, 0, 94, 69
1, 1690666, Note_off_c, 0, 89, 59
1, 1690671, Control_c, 0, 64, 57
1, 1690686, Control_c, 0, 64, 58
1, 1690701, Control_c, 0, 64, 64
1, 1690716, Control_c, 0, 64, 74
1, 1690725, Note_off_c, 0, 94, 64
1, 1690727, Note_off_c, 0, 55, 51
1, 1690731, Control_c, 0, 64, 96
1, 1690745, Control_c, 0, 64, 127
1, 1690782, Note_on_c, 0, 58, 47
1, 1690877, Note_on_c, 0, 62, 50
1, 1690897, Note_off_c, 0, 58, 50
1, 1690913, Note_on_c, 0, 94, 42
1, 1690946, Control_c, 0, 64, 117
1, 1690961, Control_c, 0, 64, 80
1, 1690976, Control_c, 0, 64, 66
1, 1690990, Control_c, 0, 64, 62
1, 1690996, Note_on_c, 0, 55, 49
1, 1690999, Note_off_c, 0, 62, 46
1, 1691005, Control_c, 0, 64, 65
1, 1691019, Note_on_c, 0, 96, 68
1, 1691020, Control_c, 0, 64, 76
1, 1691024, Note_off_c, 0, 94, 25
1, 1691035, Control_c, 0, 64, 127
1, 1691051, Note_off_c, 0, 96, 65
1, 1691068, Note_off_c, 0, 55, 54
1, 1691081, Note_on_c, 0, 58, 50
1, 1691181, Note_off_c, 0, 58, 54
1, 1691199, Note_on_c, 0, 64, 47
1, 1691233, Note_on_c, 0, 96, 60
1, 1691301, Control_c, 0, 64, 95
1, 1691316, Control_c, 0, 64, 70
1, 1691322, Note_off_c, 0, 96, 59
1, 1691323, Note_on_c, 0, 98, 67
1, 1691325, Note_off_c, 0, 64, 35
1, 1691331, Control_c, 0, 64, 56
1, 1691345, Note_on_c, 0, 53, 50
1, 1691346, Control_c, 0, 64, 53
1, 1691360, Control_c, 0, 64, 58
1, 1691375, Control_c, 0, 64, 66
1, 1691381, Note_off_c, 0, 98, 64
1, 1691390, Control_c, 0, 64, 77
1, 1691405, Control_c, 0, 64, 94
1, 1691420, Control_c, 0, 64, 112
1, 1691435, Note_off_c, 0, 53, 58
1, 1691435, Control_c, 0, 64, 127
1, 1691473, Note_on_c, 0, 58, 33
1, 1691506, Note_off_c, 0, 58, 52
1, 1691591, Note_on_c, 0, 65, 48
1, 1691602, Note_on_c, 0, 98, 55
1, 1691664, Control_c, 0, 64, 85
1, 1691679, Control_c, 0, 64, 65
1, 1691689, Note_off_c, 0, 65, 44
1, 1691694, Control_c, 0, 64, 54
1, 1691709, Control_c, 0, 64, 52
1, 1691721, Note_on_c, 0, 53, 48
1, 1691724, Control_c, 0, 64, 55
1, 1691738, Note_on_c, 0, 101, 61
1, 1691739, Control_c, 0, 64, 63
1, 1691742, Note_off_c, 0, 98, 54
1, 1691754, Control_c, 0, 64, 71
1, 1691769, Control_c, 0, 64, 80
1, 1691784, Control_c, 0, 64, 87
1, 1691798, Control_c, 0, 64, 93
1, 1691801, Note_off_c, 0, 101, 62
1, 1691813, Control_c, 0, 64, 102
1, 1691828, Control_c, 0, 64, 127
1, 1691850, Note_off_c, 0, 53, 37
1, 1691857, Note_on_c, 0, 57, 38
1, 1691988, Note_off_c, 0, 57, 52
1, 1692025, Note_on_c, 0, 65, 28
1, 1692028, Note_on_c, 0, 101, 55
1, 1692062, Note_off_c, 0, 65, 53
1, 1692243, Control_c, 0, 64, 89
1, 1692258, Control_c, 0, 64, 65
1, 1692262, Note_on_c, 0, 94, 57
1, 1692263, Note_off_c, 0, 101, 41
1, 1692273, Control_c, 0, 64, 55
1, 1692275, Note_on_c, 0, 46, 38
1, 1692288, Control_c, 0, 64, 55
1, 1692303, Control_c, 0, 64, 60
1, 1692317, Control_c, 0, 64, 66
1, 1692332, Control_c, 0, 64, 73
1, 1692335, Note_off_c, 0, 46, 60
1, 1692347, Control_c, 0, 64, 83
1, 1692370, Control_c, 0, 64, 91
1, 1692385, Control_c, 0, 64, 98
1, 1692399, Control_c, 0, 64, 123
1, 1692414, Control_c, 0, 64, 127
1, 1692513, Note_on_c, 0, 62, 38
1, 1692532, Note_off_c, 0, 94, 65
1, 1692565, Note_off_c, 0, 62, 41
1, 1692663, Note_on_c, 0, 65, 34
1, 1692793, Note_on_c, 0, 58, 40
1, 1692798, Note_off_c, 0, 65, 27
1, 1692922, Note_on_c, 0, 62, 37
1, 1692946, Note_off_c, 0, 58, 33
1, 1693033, Note_on_c, 0, 65, 40
1, 1693056, Note_on_c, 0, 93, 49
1, 1693131, Note_off_c, 0, 62, 34
1, 1693137, Note_on_c, 0, 94, 60
1, 1693141, Note_off_c, 0, 93, 46
1, 1693167, Note_off_c, 0, 94, 64
1, 1693178, Note_on_c, 0, 58, 38
1, 1693211, Note_off_c, 0, 65, 38
1, 1693347, Poly_aftertouch_c, 0, 62, 127
1, 1693350, Note_on_c, 0, 62, 3
1, 1693360, Note_off_c, 0, 58, 35
1, 1693424, Note_on_c, 0, 65, 38
1, 1693426, Note_on_c, 0, 94, 56
1, 1693503, Note_off_c, 0, 65, 45
1, 1693508, Note_on_c, 0, 92, 63
1, 1693512, Note_off_c, 0, 62, 39
1, 1693513, Note_off_c, 0, 94, 62
1, 1693530, Note_on_c, 0, 59, 47
1, 1693531, Note_off_c, 0, 92, 67
1, 1693632, Note_off_c, 0, 59, 54
1, 1693668, Note_on_c, 0, 62, 23
1, 1693752, Note_on_c, 0, 65, 43
1, 1693757, Note_on_c, 0, 92, 60
1, 1693822, Note_off_c, 0, 62, 30
1, 1693846, Note_on_c, 0, 89, 58
1, 1693851, Note_on_c, 0, 58, 55
1, 1693867, Note_off_c, 0, 92, 64
1, 1693883, Note_off_c, 0, 89, 63
1, 1693890, Note_off_c, 0, 65, 34
1, 1693956, Note_on_c, 0, 62, 51
1, 1693973, Note_off_c, 0, 58, 53
1, 1694056, Note_on_c, 0, 65, 50
1, 1694078, Note_on_c, 0, 89, 43
1, 1694083, Note_off_c, 0, 62, 53
1, 1694119, Control_c, 0, 64, 110
1, 1694135, Control_c, 0, 64, 85
1, 1694150, Control_c, 0, 64, 79
1, 1694150, Note_off_c, 0, 65, 56
1, 1694159, Note_on_c, 0, 86, 69
1, 1694160, Note_on_c, 0, 59, 61
1, 1694165, Control_c, 0, 64, 82
1, 1694174, Note_off_c, 0, 89, 36
1, 1694179, Control_c, 0, 64, 103
1, 1694193, Control_c, 0, 64, 127
1, 1694201, Note_off_c, 0, 86, 62
1, 1694270, Note_off_c, 0, 59, 58
1, 1694275, Note_on_c, 0, 62, 53
1, 1694387, Note_on_c, 0, 86, 61
1, 1694388, Note_off_c, 0, 62, 57
1, 1694389, Note_on_c, 0, 65, 47
1, 1694436, Note_off_c, 0, 86, 54
1, 1694445, Control_c, 0, 64, 120
1, 1694460, Control_c, 0, 64, 80
1, 1694466, Note_off_c, 0, 65, 57
1, 1694475, Control_c, 0, 64, 65
1, 1694485, Note_on_c, 0, 89, 57
1, 1694490, Control_c, 0, 64, 61
1, 1694491, Note_on_c, 0, 58, 51
1, 1694505, Control_c, 0, 64, 66
1, 1694519, Control_c, 0, 64, 80
1, 1694522, Note_off_c, 0, 89, 59
1, 1694534, Control_c, 0, 64, 127
1, 1694612, Note_off_c, 0, 58, 45
1, 1694617, Note_on_c, 0, 62, 24
1, 1694696, Note_on_c, 0, 65, 46
1, 1694730, Note_on_c, 0, 89, 53
1, 1694785, Note_off_c, 0, 65, 47
1, 1694795, Note_off_c, 0, 89, 54
1, 1694806, Note_off_c, 0, 62, 30
1, 1694835, Note_on_c, 0, 90, 65
1, 1694840, Note_on_c, 0, 56, 52
1, 1694852, Control_c, 0, 64, 91
1, 1694863, Note_off_c, 0, 90, 67
1, 1694867, Control_c, 0, 64, 63
1, 1694882, Control_c, 0, 64, 33
1, 1694886, Note_off_c, 0, 56, 60
1, 1694897, Control_c, 0, 64, 0
1, 1694938, Note_on_c, 0, 60, 46
1, 1695009, Note_off_c, 0, 60, 53
1, 1695046, Note_on_c, 0, 66, 51
1, 1695057, Note_on_c, 0, 90, 55
1, 1695085, Note_off_c, 0, 66, 60
1, 1695092, Note_off_c, 0, 90, 65
1, 1695153, Note_on_c, 0, 91, 64
1, 1695164, Note_on_c, 0, 55, 52
1, 1695182, Note_off_c, 0, 91, 66
1, 1695197, Note_off_c, 0, 55, 63
1, 1695274, Note_on_c, 0, 59, 27
1, 1695324, Note_off_c, 0, 59, 52
1, 1695376, Note_on_c, 0, 91, 65
1, 1695378, Note_on_c, 0, 67, 47
1, 1695403, Note_off_c, 0, 91, 69
1, 1695408, Note_off_c, 0, 67, 54
1, 1695478, Note_on_c, 0, 55, 48
1, 1695480, Note_on_c, 0, 91, 72
1, 1695504, Note_off_c, 0, 91, 71
1, 1695517, Note_off_c, 0, 55, 62
1, 1695589, Note_on_c, 0, 60, 36
1, 1695674, Note_on_c, 0, 63, 56
1, 1695686, Note_off_c, 0, 60, 55
1, 1695699, Note_on_c, 0, 91, 63
1, 1695715, Note_off_c, 0, 63, 60
1, 1695727, Note_off_c, 0, 91, 68
1, 1695796, Note_on_c, 0, 91, 74
1, 1695802, Note_on_c, 0, 55, 42
1, 1695818, Note_off_c, 0, 91, 72
1, 1695858, Note_off_c, 0, 55, 61
1, 1695902, Note_on_c, 0, 59, 41
1, 1695966, Note_off_c, 0, 59, 47
1, 1695998, Note_on_c, 0, 91, 71
1, 1696004, Note_on_c, 0, 62, 47
1, 1696020, Note_off_c, 0, 91, 72
1, 1696046, Note_off_c, 0, 62, 59
1, 1696097, Note_on_c, 0, 55, 50
1, 1696110, Note_on_c, 0, 91, 77
1, 1696131, Note_off_c, 0, 91, 72
1, 1696146, Note_off_c, 0, 55, 60
1, 1696204, Note_on_c, 0, 60, 42
1, 1696280, Note_off_c, 0, 60, 57
1, 1696309, Note_on_c, 0, 63, 52
1, 1696324, Note_on_c, 0, 91, 58
1, 1696343, Note_off_c, 0, 91, 60
1, 1696344, Note_off_c, 0, 63, 62
1, 1696402, Note_on_c, 0, 91, 76
1, 1696415, Note_on_c, 0, 55, 55
1, 1696415, Note_off_c, 0, 91, 71
1, 1696473, Note_off_c, 0, 55, 57
1, 1696522, Note_on_c, 0, 59, 52
1, 1696577, Note_off_c, 0, 59, 56
1, 1696647, Note_on_c, 0, 62, 44
1, 1696717, Note_off_c, 0, 62, 56
1, 1696721, Note_on_c, 0, 55, 56
1, 1696762, Note_off_c, 0, 55, 62
1, 1696818, Note_on_c, 0, 60, 59
1, 1696854, Note_on_c, 0, 79, 52
1, 1696872, Note_off_c, 0, 79, 64
1, 1696889, Note_off_c, 0, 60, 60
1, 1696937, Note_on_c, 0, 63, 54
1, 1696978, Note_off_c, 0, 63, 61
1, 1696994, Control_c, 0, 64, 32
1, 1697009, Control_c, 0, 64, 50
1, 1697022, Note_on_c, 0, 80, 79
1, 1697024, Control_c, 0, 64, 59
1, 1697039, Control_c, 0, 64, 61
1, 1697054, Control_c, 0, 64, 62
1, 1697065, Note_on_c, 0, 55, 38
1, 1697069, Control_c, 0, 64, 65
1, 1697083, Control_c, 0, 64, 68
1, 1697098, Control_c, 0, 64, 72
1, 1697113, Control_c, 0, 64, 75
1, 1697116, Note_off_c, 0, 55, 60
1, 1697143, Control_c, 0, 64, 72
1, 1697158, Control_c, 0, 64, 63
1, 1697164, Note_on_c, 0, 59, 51
1, 1697173, Control_c, 0, 64, 47
1, 1697187, Control_c, 0, 64, 0
1, 1697193, Note_on_c, 0, 79, 70
1, 1697200, Note_off_c, 0, 80, 62
1, 1697209, Note_off_c, 0, 59, 60
1, 1697217, Note_off_c, 0, 79, 68
1, 1697255, Note_on_c, 0, 62, 48
1, 1697312, Note_off_c, 0, 62, 53
1, 1697346, Note_on_c, 0, 55, 50
1, 1697353, Note_on_c, 0, 79, 68
1, 1697375, Note_off_c, 0, 79, 70
1, 1697388, Note_off_c, 0, 55, 62
1, 1697444, Note_on_c, 0, 60, 51
1, 1697511, Note_on_c, 0, 79, 62
1, 1697525, Note_off_c, 0, 60, 62
1, 1697533, Note_off_c, 0, 79, 67
1, 1697572, Note_on_c, 0, 63, 33
1, 1697612, Note_off_c, 0, 63, 55
1, 1697668, Note_on_c, 0, 79, 41
1, 1697683, Note_on_c, 0, 55, 51
1, 1697735, Note_off_c, 0, 55, 59
1, 1697781, Note_off_c, 0, 79, 64
1, 1697789, Note_on_c, 0, 59, 44
1, 1697835, Note_off_c, 0, 59, 50
1, 1697884, Note_on_c, 0, 62, 54
1, 1697933, Note_off_c, 0, 62, 57
1, 1697973, Note_on_c, 0, 55, 55
1, 1698019, Note_off_c, 0, 55, 61
1, 1698061, Note_on_c, 0, 60, 56
1, 1698129, Note_off_c, 0, 60, 60
1, 1698140, Note_on_c, 0, 94, 78
1, 1698165, Note_off_c, 0, 94, 68
1, 1698177, Note_on_c, 0, 63, 47
1, 1698207, Note_off_c, 0, 63, 60
1, 1698259, Note_on_c, 0, 92, 78
1, 1698263, Control_c, 0, 64, 28
1, 1698277, Control_c, 0, 64, 53
1, 1698285, Note_on_c, 0, 55, 50
1, 1698292, Control_c, 0, 64, 65
1, 1698307, Control_c, 0, 64, 70
1, 1698322, Control_c, 0, 64, 76
1, 1698337, Control_c, 0, 64, 80
1, 1698359, Control_c, 0, 64, 85
1, 1698374, Control_c, 0, 64, 88
1, 1698388, Note_off_c, 0, 55, 60
1, 1698389, Control_c, 0, 64, 89
1, 1698403, Control_c, 0, 64, 88
1, 1698408, Note_on_c, 0, 59, 62
1, 1698418, Control_c, 0, 64, 79
1, 1698433, Control_c, 0, 64, 66
1, 1698443, Note_on_c, 0, 91, 76
1, 1698448, Control_c, 0, 64, 47
1, 1698456, Note_off_c, 0, 92, 66
1, 1698460, Note_off_c, 0, 59, 59
1, 1698463, Control_c, 0, 64, 0
1, 1698468, Note_off_c, 0, 91, 66
1, 1698499, Note_on_c, 0, 62, 60
1, 1698550, Note_off_c, 0, 62, 54
1, 1698601, Note_on_c, 0, 55, 52
1, 1698613, Note_on_c, 0, 91, 67
1, 1698637, Note_off_c, 0, 91, 67
1, 1698651, Note_off_c, 0, 55, 61
1, 1698691, Note_on_c, 0, 60, 50
1, 1698754, Note_on_c, 0, 91, 72
1, 1698759, Note_off_c, 0, 60, 59
1, 1698778, Note_off_c, 0, 91, 70
1, 1698804, Note_on_c, 0, 63, 55
1, 1698847, Note_off_c, 0, 63, 59
1, 1698908, Control_c, 0, 64, 44
1, 1698910, Note_on_c, 0, 91, 73
1, 1698917, Note_on_c, 0, 55, 52
1, 1698923, Control_c, 0, 64, 62
1, 1698938, Control_c, 0, 64, 70
1, 1698953, Control_c, 0, 64, 77
1, 1698968, Control_c, 0, 64, 82
1, 1698982, Note_off_c, 0, 91, 66
1, 1698982, Control_c, 0, 64, 87
1, 1698985, Note_off_c, 0, 55, 56
1, 1698997, Control_c, 0, 64, 93
1, 1699009, Note_on_c, 0, 59, 54
1, 1699012, Control_c, 0, 64, 96
1, 1699066, Note_off_c, 0, 59, 58
1, 1699072, Control_c, 0, 64, 93
1, 1699087, Control_c, 0, 64, 79
1, 1699108, Control_c, 0, 64, 60
1, 1699123, Note_on_c, 0, 62, 55
1, 1699123, Control_c, 0, 64, 33
1, 1699138, Control_c, 0, 64, 0
1, 1699170, Note_off_c, 0, 62, 58
1, 1699212, Note_on_c, 0, 55, 53
1, 1699254, Note_off_c, 0, 55, 62
1, 1699307, Note_on_c, 0, 60, 39
1, 1699360, Note_on_c, 0, 67, 79
1, 1699363, Note_off_c, 0, 60, 49
1, 1699382, Note_off_c, 0, 67, 69
1, 1699404, Note_on_c, 0, 63, 52
1, 1699449, Note_off_c, 0, 63, 58
1, 1699494, Control_c, 0, 64, 39
1, 1699508, Control_c, 0, 64, 59
1, 1699510, Note_on_c, 0, 68, 80
1, 1699523, Control_c, 0, 64, 64
1, 1699537, Note_on_c, 0, 55, 46
1, 1699538, Control_c, 0, 64, 66
1, 1699553, Control_c, 0, 64, 68
1, 1699568, Control_c, 0, 64, 70
1, 1699582, Control_c, 0, 64, 73
1, 1699597, Control_c, 0, 64, 75
1, 1699612, Control_c, 0, 64, 76
1, 1699632, Note_off_c, 0, 55, 60
1, 1699641, Control_c, 0, 64, 75
1, 1699652, Note_on_c, 0, 59, 56
1, 1699656, Control_c, 0, 64, 66
1, 1699662, Note_on_c, 0, 67, 78
1, 1699671, Control_c, 0, 64, 46
1, 1699676, Note_off_c, 0, 68, 61
1, 1699686, Control_c, 0, 64, 0
1, 1699690, Note_off_c, 0, 67, 63
1, 1699706, Note_off_c, 0, 59, 58
1, 1699748, Note_on_c, 0, 62, 56
1, 1699796, Note_off_c, 0, 62, 58
1, 1699838, Note_on_c, 0, 55, 55
1, 1699841, Note_on_c, 0, 67, 61
1, 1699868, Note_off_c, 0, 67, 65
1, 1699888, Note_off_c, 0, 55, 63
1, 1699953, Note_on_c, 0, 60, 48
1, 1699990, Note_on_c, 0, 67, 57
1, 1700011, Note_off_c, 0, 60, 59
1, 1700022, Note_off_c, 0, 67, 66
1, 1700052, Note_on_c, 0, 63, 55
1, 1700092, Note_off_c, 0, 63, 61
1, 1700109, Control_c, 0, 64, 44
1, 1700124, Control_c, 0, 64, 60
1, 1700139, Control_c, 0, 64, 64
1, 1700140, Note_on_c, 0, 67, 61
1, 1700154, Control_c, 0, 64, 65
1, 1700175, Note_on_c, 0, 55, 43
1, 1700198, Control_c, 0, 64, 66
1, 1700212, Control_c, 0, 64, 66
1, 1700225, Note_off_c, 0, 55, 57
1, 1700227, Control_c, 0, 64, 67
1, 1700242, Control_c, 0, 64, 67
1, 1700261, Note_on_c, 0, 59, 47
1, 1700271, Control_c, 0, 64, 66
1, 1700273, Note_off_c, 0, 67, 62
1, 1700286, Control_c, 0, 64, 59
1, 1700301, Control_c, 0, 64, 44
1, 1700316, Control_c, 0, 64, 0
1, 1700320, Note_off_c, 0, 59, 56
1, 1700368, Note_on_c, 0, 62, 52
1, 1700418, Note_off_c, 0, 62, 57
1, 1700456, Note_on_c, 0, 55, 61
1, 1700497, Note_off_c, 0, 55, 62
1, 1700549, Note_on_c, 0, 60, 54
1, 1700609, Note_off_c, 0, 60, 59
1, 1700646, Note_on_c, 0, 82, 55
1, 1700662, Note_on_c, 0, 63, 48
1, 1700666, Note_off_c, 0, 82, 61
1, 1700699, Note_off_c, 0, 63, 58
1, 1700724, Control_c, 0, 64, 37
1, 1700739, Control_c, 0, 64, 57
1, 1700753, Note_on_c, 0, 80, 70
1, 1700753, Control_c, 0, 64, 65
1, 1700768, Control_c, 0, 64, 70
1, 1700783, Control_c, 0, 64, 71
1, 1700798, Control_c, 0, 64, 72
1, 1700801, Note_on_c, 0, 55, 46
1, 1700842, Control_c, 0, 64, 70
1, 1700857, Control_c, 0, 64, 62
1, 1700872, Control_c, 0, 64, 40
1, 1700873, Note_off_c, 0, 55, 55
1, 1700887, Control_c, 0, 64, 0
1, 1700901, Note_on_c, 0, 59, 49
1, 1700930, Note_on_c, 0, 79, 65
1, 1700938, Note_off_c, 0, 80, 62
1, 1700944, Note_off_c, 0, 59, 61
1, 1700951, Note_off_c, 0, 79, 71
1, 1700992, Note_on_c, 0, 62, 50
1, 1701033, Note_off_c, 0, 62, 59
1, 1701078, Note_on_c, 0, 79, 64
1, 1701086, Note_on_c, 0, 55, 48
1, 1701103, Note_off_c, 0, 79, 67
1, 1701129, Note_off_c, 0, 55, 60
1, 1701170, Note_on_c, 0, 60, 52
1, 1701230, Note_on_c, 0, 79, 62
1, 1701244, Note_off_c, 0, 60, 61
1, 1701251, Note_off_c, 0, 79, 67
1, 1701285, Note_on_c, 0, 63, 52
1, 1701340, Note_off_c, 0, 63, 58
1, 1701355, Control_c, 0, 64, 47
1, 1701370, Control_c, 0, 64, 62
1, 1701384, Control_c, 0, 64, 69
1, 1701399, Control_c, 0, 64, 76
1, 1701411, Note_on_c, 0, 80, 76
1, 1701414, Control_c, 0, 64, 83
1, 1701423, Note_on_c, 0, 55, 43
1, 1701428, Control_c, 0, 64, 87
1, 1701443, Control_c, 0, 64, 90
1, 1701458, Control_c, 0, 64, 90
1, 1701488, Control_c, 0, 64, 87
1, 1701502, Control_c, 0, 64, 75
1, 1701511, Note_off_c, 0, 55, 58
1, 1701517, Control_c, 0, 64, 61
1, 1701532, Control_c, 0, 64, 40
1, 1701533, Note_on_c, 0, 59, 47
1, 1701547, Control_c, 0, 64, 0
1, 1701570, Note_on_c, 0, 79, 64
1, 1701577, Note_off_c, 0, 80, 61
1, 1701589, Note_off_c, 0, 59, 58
1, 1701601, Note_off_c, 0, 79, 60
1, 1701644, Note_on_c, 0, 62, 47
1, 1701690, Note_off_c, 0, 62, 59
1, 1701731, Note_on_c, 0, 79, 60
1, 1701732, Note_on_c, 0, 55, 47
1, 1701758, Note_off_c, 0, 79, 65
1, 1701798, Note_off_c, 0, 55, 59
1, 1701826, Note_on_c, 0, 60, 49
1, 1701897, Note_off_c, 0, 60, 63
1, 1701915, Note_on_c, 0, 79, 54
1, 1701930, Note_on_c, 0, 63, 60
1, 1701937, Note_off_c, 0, 79, 67
1, 1701971, Note_off_c, 0, 63, 57
1, 1702137, Note_on_c, 0, 79, 53
1, 1702151, Note_on_c, 0, 62, 28
1, 1702164, Note_on_c, 0, 59, 42
1, 1702177, Poly_aftertouch_c, 0, 55, 127
1, 1702234, Poly_aftertouch_c, 0, 55, 0
1, 1702237, Note_off_c, 0, 62, 61
1, 1702238, Note_off_c, 0, 59, 63
1, 1702406, Note_off_c, 0, 79, 66
1, 1702637, Control_c, 0, 64, 27
1, 1702667, Control_c, 0, 64, 31
1, 1702682, Control_c, 0, 64, 34
1, 1702696, Control_c, 0, 64, 37
1, 1702711, Control_c, 0, 64, 38
1, 1702726, Control_c, 0, 64, 39
1, 1702741, Control_c, 0, 64, 41
1, 1702756, Control_c, 0, 64, 43
1, 1702770, Control_c, 0, 64, 47
1, 1702785, Control_c, 0, 64, 49
1, 1702800, Control_c, 0, 64, 49
1, 1702830, Control_c, 0, 64, 50
1, 1702852, Control_c, 0, 64, 51
1, 1702866, Control_c, 0, 64, 52
1, 1702911, Control_c, 0, 64, 53
1, 1702927, Control_c, 0, 64, 53
1, 1702942, Control_c, 0, 64, 54
1, 1702956, Note_on_c, 0, 67, 72
1, 1702956, Control_c, 0, 64, 56
1, 1702971, Control_c, 0, 64, 57
1, 1702972, Note_on_c, 0, 55, 47
1, 1703001, Control_c, 0, 64, 58
1, 1703015, Control_c, 0, 64, 61
1, 1703030, Control_c, 0, 64, 64
1, 1703045, Control_c, 0, 64, 69
1, 1703060, Control_c, 0, 64, 75
1, 1703075, Control_c, 0, 64, 86
1, 1703090, Control_c, 0, 64, 104
1, 1703105, Control_c, 0, 64, 127
1, 1703291, Note_off_c, 0, 55, 40
1, 1703386, Control_c, 0, 67, 121
1, 1703400, Control_c, 0, 67, 110
1, 1703415, Control_c, 0, 67, 95
1, 1703430, Control_c, 0, 67, 78
1, 1703445, Control_c, 0, 67, 59
1, 1703460, Control_c, 0, 67, 41
1, 1703475, Control_c, 0, 67, 0
1, 1703671, Note_off_c, 0, 67, 60
1, 1704283, Control_c, 0, 67, 53
1, 1704297, Control_c, 0, 67, 88
1, 1704312, Control_c, 0, 67, 120
1, 1704327, Control_c, 0, 67, 127
1, 1704452, Note_on_c, 0, 74, 76
1, 1704453, Control_c, 0, 64, 86
1, 1704468, Control_c, 0, 64, 58
1, 1704479, Note_off_c, 0, 74, 65
1, 1704483, Control_c, 0, 64, 0
1, 1704699, Note_on_c, 0, 72, 68
1, 1704715, Note_on_c, 0, 55, 41
1, 1704762, Note_off_c, 0, 55, 52
1, 1704884, Note_on_c, 0, 71, 65
1, 1704892, Note_off_c, 0, 72, 36
1, 1704898, Note_on_c, 0, 67, 43
1, 1704913, Note_off_c, 0, 71, 65
1, 1704924, Note_off_c, 0, 67, 56
1, 1705063, Note_on_c, 0, 71, 72
1, 1705066, Note_on_c, 0, 65, 53
1, 1705069, Note_on_c, 0, 62, 49
1, 1705094, Note_off_c, 0, 71, 68
1, 1705096, Note_off_c, 0, 65, 59
1, 1705102, Note_off_c, 0, 62, 60
1, 1705244, Note_on_c, 0, 71, 74
1, 1705253, Note_on_c, 0, 67, 51
1, 1705272, Note_off_c, 0, 71, 61
1, 1705278, Note_off_c, 0, 67, 59
1, 1705394, Control_c, 0, 64, 36
1, 1705409, Control_c, 0, 64, 49
1, 1705421, Note_on_c, 0, 55, 53
1, 1705421, Note_on_c, 0, 71, 64
1, 1705425, Control_c, 0, 64, 59
1, 1705440, Control_c, 0, 64, 62
1, 1705455, Control_c, 0, 64, 63
1, 1705462, Note_off_c, 0, 55, 61
1, 1705469, Control_c, 0, 64, 64
1, 1705484, Control_c, 0, 64, 66
1, 1705499, Control_c, 0, 64, 68
1, 1705514, Control_c, 0, 64, 70
1, 1705529, Control_c, 0, 64, 73
1, 1705543, Control_c, 0, 64, 76
1, 1705558, Control_c, 0, 64, 77
1, 1705588, Control_c, 0, 64, 73
1, 1705590, Note_on_c, 0, 72, 65
1, 1705594, Note_off_c, 0, 71, 63
1, 1705597, Note_on_c, 0, 67, 63
1, 1705603, Control_c, 0, 64, 58
1, 1705609, Note_off_c, 0, 72, 66
1, 1705618, Control_c, 0, 64, 0
1, 1705628, Note_off_c, 0, 67, 62
1, 1705752, Note_on_c, 0, 63, 63
1, 1705767, Note_on_c, 0, 60, 39
1, 1705782, Note_off_c, 0, 63, 65
1, 1705795, Note_off_c, 0, 60, 52
1, 1705919, Note_on_c, 0, 75, 68
1, 1705926, Note_on_c, 0, 67, 55
1, 1705944, Note_off_c, 0, 75, 70
1, 1705948, Note_off_c, 0, 67, 62
1, 1706069, Control_c, 0, 64, 28
1, 1706080, Note_on_c, 0, 72, 66
1, 1706085, Note_on_c, 0, 55, 47
1, 1706115, Control_c, 0, 64, 33
1, 1706130, Control_c, 0, 64, 40
1, 1706145, Control_c, 0, 64, 49
1, 1706160, Control_c, 0, 64, 52
1, 1706162, Note_off_c, 0, 55, 50
1, 1706189, Control_c, 0, 64, 50
1, 1706204, Control_c, 0, 64, 46
1, 1706218, Control_c, 0, 64, 36
1, 1706233, Control_c, 0, 64, 0
1, 1706241, Note_on_c, 0, 71, 67
1, 1706247, Note_on_c, 0, 67, 48
1, 1706256, Note_off_c, 0, 72, 59
1, 1706268, Note_off_c, 0, 71, 66
1, 1706271, Note_off_c, 0, 67, 60
1, 1706400, Note_on_c, 0, 62, 51
1, 1706403, Note_on_c, 0, 71, 70
1, 1706404, Note_on_c, 0, 65, 43
1, 1706428, Note_off_c, 0, 71, 66
1, 1706429, Note_off_c, 0, 62, 64
1, 1706431, Note_off_c, 0, 65, 55
1, 1706574, Note_on_c, 0, 71, 66
1, 1706579, Note_on_c, 0, 67, 48
1, 1706611, Note_off_c, 0, 71, 62
1, 1706616, Note_off_c, 0, 67, 60
1, 1706756, Note_on_c, 0, 55, 44
1, 1706757, Note_on_c, 0, 71, 55
1, 1706799, Note_off_c, 0, 55, 59
1, 1706918, Note_off_c, 0, 71, 57
1, 1706921, Note_on_c, 0, 72, 54
1, 1706947, Note_on_c, 0, 67, 45
1, 1706958, Note_off_c, 0, 72, 62
1, 1706982, Note_off_c, 0, 67, 53
1, 1707133, Note_on_c, 0, 63, 45
1, 1707135, Note_on_c, 0, 60, 37
1, 1707160, Note_off_c, 0, 63, 55
1, 1707163, Note_off_c, 0, 60, 53
1, 1707400, Note_on_c, 0, 67, 45
1, 1707427, Note_off_c, 0, 67, 57
1, 1708137, Control_c, 0, 64, 27
1, 1708181, Control_c, 0, 64, 30
1, 1708226, Control_c, 0, 64, 32
1, 1708241, Control_c, 0, 64, 33
1, 1708256, Control_c, 0, 64, 35
1, 1708270, Control_c, 0, 64, 37
1, 1708275, Note_on_c, 0, 66, 49
1, 1708285, Control_c, 0, 64, 42
1, 1708295, Note_on_c, 0, 54, 42
1, 1708300, Control_c, 0, 64, 48
1, 1708315, Control_c, 0, 64, 54
1, 1708330, Control_c, 0, 64, 59
1, 1708344, Control_c, 0, 64, 61
1, 1708359, Control_c, 0, 64, 63
1, 1708374, Control_c, 0, 64, 65
1, 1708388, Control_c, 0, 64, 66
1, 1708403, Control_c, 0, 64, 69
1, 1708419, Control_c, 0, 64, 72
1, 1708434, Control_c, 0, 64, 75
1, 1708449, Control_c, 0, 64, 79
1, 1708463, Control_c, 0, 64, 84
1, 1708478, Control_c, 0, 64, 92
1, 1708493, Control_c, 0, 64, 99
1, 1708509, Control_c, 0, 64, 108
1, 1708524, Control_c, 0, 64, 127
1, 1708872, Control_c, 0, 67, 125
1, 1708886, Control_c, 0, 67, 114
1, 1708901, Control_c, 0, 67, 102
1, 1708916, Control_c, 0, 67, 90
1, 1708931, Control_c, 0, 67, 78
1, 1708945, Control_c, 0, 67, 64
1, 1708960, Control_c, 0, 67, 54
1, 1708975, Control_c, 0, 67, 44
1, 1708990, Control_c, 0, 67, 35
1, 1709005, Control_c, 0, 67, 0
1, 1709564, Note_off_c, 0, 66, 64
1, 1709567, Note_off_c, 0, 54, 60
1, 1709680, Control_c, 0, 67, 42
1, 1709695, Control_c, 0, 67, 69
1, 1709709, Control_c, 0, 67, 112
1, 1709724, Control_c, 0, 67, 127
1, 1709790, Note_on_c, 0, 75, 64
1, 1709818, Note_off_c, 0, 75, 67
1, 1709887, Control_c, 0, 64, 105
1, 1709902, Control_c, 0, 64, 83
1, 1709916, Control_c, 0, 64, 65
1, 1709931, Control_c, 0, 64, 51
1, 1709946, Control_c, 0, 64, 29
1, 1709961, Control_c, 0, 64, 0
1, 1709970, Note_on_c, 0, 54, 61
1, 1709971, Note_on_c, 0, 72, 70
1, 1710092, Note_off_c, 0, 54, 26
1, 1710152, Note_on_c, 0, 71, 70
1, 1710155, Note_on_c, 0, 66, 57
1, 1710160, Note_off_c, 0, 72, 59
1, 1710177, Note_off_c, 0, 66, 63
1, 1710178, Note_off_c, 0, 71, 63
1, 1710312, Note_on_c, 0, 71, 72
1, 1710315, Note_on_c, 0, 56, 55
1, 1710316, Note_on_c, 0, 63, 50
1, 1710345, Note_off_c, 0, 71, 66
1, 1710348, Note_off_c, 0, 63, 56
1, 1710348, Note_off_c, 0, 56, 62
1, 1710475, Note_on_c, 0, 66, 61
1, 1710478, Note_on_c, 0, 71, 72
1, 1710509, Note_off_c, 0, 66, 61
1, 1710524, Note_off_c, 0, 71, 60
1, 1710644, Note_on_c, 0, 54, 52
1, 1710655, Note_on_c, 0, 71, 62
1, 1710716, Note_off_c, 0, 54, 54
1, 1710802, Note_on_c, 0, 72, 60
1, 1710805, Note_on_c, 0, 66, 59
1, 1710806, Note_off_c, 0, 71, 62
1, 1710828, Note_off_c, 0, 72, 65
1, 1710840, Note_off_c, 0, 66, 62
1, 1710965, Note_on_c, 0, 57, 42
1, 1710986, Note_on_c, 0, 63, 21
1, 1710993, Note_off_c, 0, 57, 54
1, 1711023, Note_off_c, 0, 63, 30
1, 1711133, Note_on_c, 0, 75, 54
1, 1711150, Note_on_c, 0, 66, 30
1, 1711162, Note_off_c, 0, 75, 62
1, 1711186, Note_off_c, 0, 66, 53
1, 1711308, Note_on_c, 0, 54, 42
1, 1711308, Note_on_c, 0, 72, 51
1, 1711359, Note_off_c, 0, 54, 56
1, 1711466, Note_on_c, 0, 66, 50
1, 1711477, Note_on_c, 0, 71, 50
1, 1711478, Note_off_c, 0, 72, 52
1, 1711493, Note_off_c, 0, 66, 59
1, 1711505, Note_off_c, 0, 71, 60
1, 1711640, Note_on_c, 0, 71, 56
1, 1711646, Note_on_c, 0, 63, 43
1, 1711652, Note_on_c, 0, 56, 49
1, 1711672, Note_off_c, 0, 71, 63
1, 1711674, Note_off_c, 0, 63, 54
1, 1711676, Note_off_c, 0, 56, 59
1, 1711812, Note_on_c, 0, 71, 58
1, 1711815, Note_on_c, 0, 66, 44
1, 1711848, Note_off_c, 0, 66, 58
1, 1711850, Note_off_c, 0, 71, 63
1, 1711997, Note_on_c, 0, 54, 36
1, 1712012, Note_on_c, 0, 71, 40
1, 1712048, Note_off_c, 0, 54, 46
1, 1712188, Note_on_c, 0, 66, 48
1, 1712189, Note_on_c, 0, 72, 46
1, 1712197, Note_off_c, 0, 71, 50
1, 1712231, Note_off_c, 0, 66, 53
1, 1712256, Note_off_c, 0, 72, 57
1, 1712410, Note_on_c, 0, 57, 29
1, 1712415, Note_on_c, 0, 63, 36
1, 1712445, Note_off_c, 0, 63, 54
1, 1712446, Note_off_c, 0, 57, 53
1, 1712709, Note_on_c, 0, 66, 39
1, 1712755, Note_off_c, 0, 66, 62
1, 1713380, Control_c, 0, 64, 29
1, 1713439, Control_c, 0, 64, 31
1, 1713454, Control_c, 0, 64, 33
1, 1713469, Control_c, 0, 64, 35
1, 1713483, Control_c, 0, 64, 38
1, 1713489, Note_on_c, 0, 65, 41
1, 1713496, Note_on_c, 0, 53, 33
1, 1713498, Control_c, 0, 64, 40
1, 1713513, Control_c, 0, 64, 42
1, 1713527, Control_c, 0, 64, 46
1, 1713542, Control_c, 0, 64, 50
1, 1713557, Control_c, 0, 64, 56
1, 1713572, Control_c, 0, 64, 59
1, 1713587, Control_c, 0, 64, 60
1, 1713601, Control_c, 0, 64, 61
1, 1713616, Control_c, 0, 64, 62
1, 1713631, Control_c, 0, 64, 63
1, 1713646, Control_c, 0, 64, 65
1, 1713661, Control_c, 0, 64, 67
1, 1713675, Control_c, 0, 64, 69
1, 1713690, Control_c, 0, 64, 71
1, 1713705, Control_c, 0, 64, 73
1, 1713720, Control_c, 0, 64, 76
1, 1713735, Control_c, 0, 64, 80
1, 1713750, Control_c, 0, 64, 84
1, 1713765, Control_c, 0, 64, 89
1, 1713779, Control_c, 0, 64, 94
1, 1713794, Control_c, 0, 64, 98
1, 1713809, Control_c, 0, 64, 103
1, 1713824, Control_c, 0, 64, 109
1, 1713839, Control_c, 0, 64, 118
1, 1713854, Control_c, 0, 64, 127
1, 1714365, Control_c, 0, 67, 112
1, 1714380, Control_c, 0, 67, 98
1, 1714395, Control_c, 0, 67, 86
1, 1714410, Control_c, 0, 67, 72
1, 1714424, Control_c, 0, 67, 51
1, 1714439, Control_c, 0, 67, 35
1, 1714454, Control_c, 0, 67, 0
1, 1714632, Control_c, 0, 67, 35
1, 1714647, Control_c, 0, 67, 41
1, 1714662, Control_c, 0, 67, 41
1, 1714691, Control_c, 0, 67, 42
1, 1714706, Control_c, 0, 67, 44
1, 1714716, Note_off_c, 0, 53, 39
1, 1714721, Control_c, 0, 67, 49
1, 1714728, Note_off_c, 0, 65, 49
1, 1714736, Control_c, 0, 67, 57
1, 1714750, Control_c, 0, 67, 62
1, 1714780, Control_c, 0, 67, 64
1, 1714795, Control_c, 0, 67, 67
1, 1714810, Control_c, 0, 67, 76
1, 1714832, Control_c, 0, 67, 94
1, 1714847, Control_c, 0, 67, 107
1, 1714862, Control_c, 0, 67, 116
1, 1714876, Control_c, 0, 67, 125
1, 1714891, Control_c, 0, 67, 127
1, 1715144, Control_c, 0, 64, 118
1, 1715159, Control_c, 0, 64, 111
1, 1715173, Control_c, 0, 64, 106
1, 1715188, Control_c, 0, 64, 101
1, 1715203, Control_c, 0, 64, 96
1, 1715218, Control_c, 0, 64, 90
1, 1715219, Note_on_c, 0, 75, 60
1, 1715233, Control_c, 0, 64, 84
1, 1715247, Control_c, 0, 64, 77
1, 1715261, Note_off_c, 0, 75, 54
1, 1715262, Control_c, 0, 64, 69
1, 1715277, Control_c, 0, 64, 62
1, 1715292, Control_c, 0, 64, 57
1, 1715306, Control_c, 0, 64, 55
1, 1715321, Control_c, 0, 64, 54
1, 1715336, Control_c, 0, 64, 52
1, 1715351, Control_c, 0, 64, 49
1, 1715366, Control_c, 0, 64, 46
1, 1715380, Control_c, 0, 64, 44
1, 1715395, Control_c, 0, 64, 44
1, 1715425, Control_c, 0, 64, 43
1, 1715455, Control_c, 0, 64, 42
1, 1715485, Note_on_c, 0, 72, 39
1, 1715490, Note_on_c, 0, 53, 26
1, 1715514, Control_c, 0, 64, 41
1, 1715529, Control_c, 0, 64, 38
1, 1715544, Control_c, 0, 64, 33
1, 1715559, Control_c, 0, 64, 28
1, 1715580, Control_c, 0, 64, 0
1, 1715594, Note_off_c, 0, 53, 33
1, 1715736, Note_off_c, 0, 72, 49
1, 1715737, Note_on_c, 0, 65, 46
1, 1715737, Note_on_c, 0, 71, 48
1, 1715769, Note_off_c, 0, 65, 58
1, 1715771, Note_off_c, 0, 71, 62
1, 1715956, Note_on_c, 0, 71, 59
1, 1715959, Note_on_c, 0, 62, 40
1, 1715963, Note_on_c, 0, 56, 33
1, 1715990, Note_off_c, 0, 62, 54
1, 1715990, Note_off_c, 0, 71, 62
1, 1715996, Note_off_c, 0, 56, 45
1, 1716167, Note_on_c, 0, 71, 38
1, 1716173, Note_on_c, 0, 65, 31
1, 1716197, Note_off_c, 0, 71, 54
1, 1716206, Note_off_c, 0, 65, 48
1, 1716366, Note_on_c, 0, 53, 45
1, 1716366, Note_on_c, 0, 71, 48
1, 1716412, Note_off_c, 0, 53, 46
1, 1716536, Note_on_c, 0, 72, 51
1, 1716540, Note_off_c, 0, 71, 61
1, 1716543, Note_on_c, 0, 65, 44
1, 1716558, Note_off_c, 0, 72, 63
1, 1716579, Note_off_c, 0, 65, 57
1, 1716695, Note_on_c, 0, 57, 51
1, 1716697, Note_on_c, 0, 63, 55
1, 1716719, Note_off_c, 0, 57, 62
1, 1716722, Note_off_c, 0, 63, 60
1, 1716863, Note_on_c, 0, 65, 51
1, 1716864, Note_on_c, 0, 75, 64
1, 1716891, Note_off_c, 0, 65, 63
1, 1716896, Note_off_c, 0, 75, 61
1, 1717028, Note_on_c, 0, 72, 58
1, 1717032, Note_on_c, 0, 53, 39
1, 1717085, Note_off_c, 0, 53, 51
1, 1717193, Note_on_c, 0, 71, 67
1, 1717208, Note_on_c, 0, 65, 41
1, 1717208, Note_off_c, 0, 72, 58
1, 1717233, Note_off_c, 0, 71, 55
1, 1717235, Note_off_c, 0, 65, 55
1, 1717347, Note_on_c, 0, 56, 54
1, 1717349, Note_on_c, 0, 71, 66
1, 1717354, Note_on_c, 0, 62, 44
1, 1717381, Note_off_c, 0, 56, 64
1, 1717386, Note_off_c, 0, 62, 53
1, 1717395, Note_off_c, 0, 71, 62
1, 1717517, Note_on_c, 0, 71, 60
1, 1717535, Note_on_c, 0, 65, 30
1, 1717551, Note_off_c, 0, 71, 62
1, 1717568, Note_off_c, 0, 65, 48
1, 1717672, Control_c, 0, 64, 29
1, 1717687, Control_c, 0, 64, 41
1, 1717700, Note_on_c, 0, 53, 37
1, 1717701, Control_c, 0, 64, 49
1, 1717706, Note_on_c, 0, 71, 55
1, 1717716, Control_c, 0, 64, 54
1, 1717731, Control_c, 0, 64, 57
1, 1717746, Control_c, 0, 64, 59
1, 1717761, Control_c, 0, 64, 62
1, 1717775, Control_c, 0, 64, 64
1, 1717790, Control_c, 0, 64, 66
1, 1717805, Control_c, 0, 64, 68
1, 1717828, Control_c, 0, 64, 69
1, 1717842, Control_c, 0, 64, 69
1, 1717857, Control_c, 0, 64, 70
1, 1717872, Control_c, 0, 64, 72
1, 1717882, Note_on_c, 0, 65, 48
1, 1717887, Control_c, 0, 64, 74
1, 1717889, Note_off_c, 0, 71, 61
1, 1717890, Note_on_c, 0, 72, 55
1, 1717901, Control_c, 0, 64, 77
1, 1717915, Note_off_c, 0, 65, 50
1, 1717916, Control_c, 0, 64, 80
1, 1717922, Note_off_c, 0, 72, 64
1, 1717931, Control_c, 0, 64, 84
1, 1717946, Control_c, 0, 64, 87
1, 1717961, Control_c, 0, 64, 90
1, 1717970, Note_off_c, 0, 53, 33
1, 1717975, Control_c, 0, 64, 94
1, 1717990, Control_c, 0, 64, 97
1, 1718005, Control_c, 0, 64, 101
1, 1718020, Control_c, 0, 64, 103
1, 1718040, Note_on_c, 0, 72, 72
1, 1718046, Note_on_c, 0, 63, 47
1, 1718048, Note_on_c, 0, 57, 33
1, 1718049, Control_c, 0, 64, 91
1, 1718064, Control_c, 0, 64, 75
1, 1718079, Control_c, 0, 64, 66
1, 1718095, Control_c, 0, 64, 62
1, 1718110, Control_c, 0, 64, 63
1, 1718124, Control_c, 0, 64, 67
1, 1718132, Note_off_c, 0, 63, 0
1, 1718139, Control_c, 0, 64, 77
1, 1718155, Control_c, 0, 64, 94
1, 1718170, Poly_aftertouch_c, 0, 63, 127
1, 1718170, Control_c, 0, 64, 127
1, 1718178, Note_on_c, 0, 63, 13
1, 1718197, Note_on_c, 0, 79, 67
1, 1718203, Note_off_c, 0, 72, 61
1, 1718210, Note_on_c, 0, 65, 53
1, 1718219, Note_off_c, 0, 79, 71
1, 1718224, Note_off_c, 0, 63, 56
1, 1718245, Note_off_c, 0, 65, 60
1, 1718258, Note_off_c, 0, 57, 15
1, 1718374, Note_on_c, 0, 79, 69
1, 1718389, Note_on_c, 0, 53, 47
1, 1718391, Control_c, 0, 64, 90
1, 1718406, Control_c, 0, 64, 67
1, 1718421, Control_c, 0, 64, 52
1, 1718436, Control_c, 0, 64, 43
1, 1718465, Control_c, 0, 64, 49
1, 1718480, Control_c, 0, 64, 61
1, 1718495, Control_c, 0, 64, 71
1, 1718510, Control_c, 0, 64, 87
1, 1718523, Note_on_c, 0, 77, 74
1, 1718525, Control_c, 0, 64, 112
1, 1718528, Note_on_c, 0, 65, 52
1, 1718540, Control_c, 0, 64, 127
1, 1718556, Note_off_c, 0, 79, 62
1, 1718578, Note_off_c, 0, 65, 57
1, 1718594, Note_off_c, 0, 77, 62
1, 1718620, Note_off_c, 0, 53, 57
1, 1718689, Note_on_c, 0, 77, 79
1, 1718695, Control_c, 0, 64, 82
1, 1718707, Note_on_c, 0, 58, 53
1, 1718710, Control_c, 0, 64, 63
1, 1718719, Note_on_c, 0, 62, 32
1, 1718725, Control_c, 0, 64, 48
1, 1718740, Control_c, 0, 64, 43
1, 1718755, Control_c, 0, 64, 45
1, 1718770, Control_c, 0, 64, 54
1, 1718775, Note_off_c, 0, 58, 46
1, 1718784, Control_c, 0, 64, 65
1, 1718799, Control_c, 0, 64, 74
1, 1718814, Control_c, 0, 64, 87
1, 1718829, Control_c, 0, 64, 97
1, 1718844, Control_c, 0, 64, 101
1, 1718853, Note_on_c, 0, 74, 66
1, 1718858, Control_c, 0, 64, 104
1, 1718865, Note_off_c, 0, 77, 62
1, 1718871, Note_on_c, 0, 65, 45
1, 1718873, Control_c, 0, 64, 106
1, 1718888, Control_c, 0, 64, 109
1, 1718893, Note_off_c, 0, 74, 58
1, 1718895, Note_off_c, 0, 62, 42
1, 1718903, Control_c, 0, 64, 113
1, 1718918, Control_c, 0, 64, 116
1, 1718921, Note_off_c, 0, 65, 56
1, 1718947, Control_c, 0, 64, 118
1, 1719021, Control_c, 0, 64, 109
1, 1719032, Note_on_c, 0, 53, 49
1, 1719036, Control_c, 0, 64, 92
1, 1719041, Note_on_c, 0, 71, 56
1, 1719051, Control_c, 0, 64, 73
1, 1719066, Control_c, 0, 64, 56
1, 1719081, Control_c, 0, 64, 33
1, 1719095, Control_c, 0, 64, 0
1, 1719110, Control_c, 0, 64, 30
1, 1719125, Control_c, 0, 64, 41
1, 1719139, Control_c, 0, 64, 55
1, 1719154, Control_c, 0, 64, 65
1, 1719169, Control_c, 0, 64, 73
1, 1719181, Note_on_c, 0, 72, 70
1, 1719184, Control_c, 0, 64, 84
1, 1719194, Note_on_c, 0, 65, 51
1, 1719199, Control_c, 0, 64, 90
1, 1719207, Note_off_c, 0, 71, 61
1, 1719214, Control_c, 0, 64, 96
1, 1719229, Control_c, 0, 64, 103
1, 1719232, Note_off_c, 0, 72, 60
1, 1719235, Note_off_c, 0, 65, 58
1, 1719243, Control_c, 0, 64, 112
1, 1719258, Control_c, 0, 64, 127
1, 1719306, Note_off_c, 0, 53, 37
1, 1719359, Note_on_c, 0, 72, 72
1, 1719363, Note_on_c, 0, 63, 55
1, 1719384, Control_c, 0, 64, 95
1, 1719386, Note_on_c, 0, 57, 36
1, 1719399, Control_c, 0, 64, 68
1, 1719414, Control_c, 0, 64, 55
1, 1719428, Control_c, 0, 64, 49
1, 1719443, Control_c, 0, 64, 50
1, 1719458, Control_c, 0, 64, 57
1, 1719473, Control_c, 0, 64, 66
1, 1719488, Control_c, 0, 64, 77
1, 1719503, Control_c, 0, 64, 96
1, 1719518, Control_c, 0, 64, 105
1, 1719530, Note_on_c, 0, 79, 65
1, 1719533, Control_c, 0, 64, 110
1, 1719547, Control_c, 0, 64, 127
1, 1719550, Note_on_c, 0, 65, 43
1, 1719550, Note_off_c, 0, 72, 58
1, 1719571, Note_off_c, 0, 79, 53
1, 1719579, Note_off_c, 0, 63, 37
1, 1719585, Note_off_c, 0, 65, 51
1, 1719592, Note_off_c, 0, 57, 40
1, 1719755, Note_on_c, 0, 79, 54
1, 1719756, Control_c, 0, 64, 105
1, 1719759, Note_on_c, 0, 53, 36
1, 1719770, Control_c, 0, 64, 81
1, 1719785, Control_c, 0, 64, 64
1, 1719800, Control_c, 0, 64, 51
1, 1719815, Control_c, 0, 64, 42
1, 1719830, Control_c, 0, 64, 42
1, 1719844, Control_c, 0, 64, 45
1, 1719859, Control_c, 0, 64, 52
1, 1719874, Control_c, 0, 64, 60
1, 1719888, Control_c, 0, 64, 65
1, 1719903, Control_c, 0, 64, 73
1, 1719918, Control_c, 0, 64, 80
1, 1719933, Control_c, 0, 64, 87
1, 1719937, Note_on_c, 0, 77, 57
1, 1719944, Note_on_c, 0, 65, 44
1, 1719948, Control_c, 0, 64, 94
1, 1719962, Control_c, 0, 64, 101
1, 1719967, Note_off_c, 0, 79, 54
1, 1719977, Control_c, 0, 64, 110
1, 1719992, Control_c, 0, 64, 127
1, 1719999, Note_off_c, 0, 77, 49
1, 1720009, Note_off_c, 0, 65, 48
1, 1720140, Note_on_c, 0, 77, 53
1, 1720164, Note_on_c, 0, 58, 44
1, 1720177, Note_on_c, 0, 62, 34
1, 1720192, Control_c, 0, 64, 95
1, 1720207, Control_c, 0, 64, 73
1, 1720222, Control_c, 0, 64, 57
1, 1720237, Control_c, 0, 64, 47
1, 1720251, Control_c, 0, 64, 45
1, 1720266, Control_c, 0, 64, 46
1, 1720281, Control_c, 0, 64, 51
1, 1720296, Control_c, 0, 64, 57
1, 1720311, Control_c, 0, 64, 64
1, 1720326, Control_c, 0, 64, 69
1, 1720340, Control_c, 0, 64, 75
1, 1720355, Control_c, 0, 64, 83
1, 1720370, Control_c, 0, 64, 90
1, 1720374, Note_on_c, 0, 74, 53
1, 1720382, Note_off_c, 0, 53, 28
1, 1720384, Note_on_c, 0, 65, 41
1, 1720385, Control_c, 0, 64, 96
1, 1720399, Note_off_c, 0, 77, 51
1, 1720399, Control_c, 0, 64, 102
1, 1720414, Control_c, 0, 64, 110
1, 1720421, Note_off_c, 0, 74, 55
1, 1720428, Control_c, 0, 64, 121
1, 1720443, Control_c, 0, 64, 127
1, 1720456, Note_off_c, 0, 58, 40
1, 1720461, Note_off_c, 0, 62, 44
1, 1720463, Note_off_c, 0, 65, 39
1, 1720618, Note_on_c, 0, 53, 35
1, 1720623, Note_on_c, 0, 71, 42
1, 1720637, Control_c, 0, 64, 120
1, 1720652, Control_c, 0, 64, 102
1, 1720666, Control_c, 0, 64, 86
1, 1720681, Control_c, 0, 64, 72
1, 1720696, Control_c, 0, 64, 61
1, 1720710, Control_c, 0, 64, 52
1, 1720725, Control_c, 0, 64, 46
1, 1720740, Control_c, 0, 64, 43
1, 1720755, Control_c, 0, 64, 42
1, 1720770, Control_c, 0, 64, 43
1, 1720785, Control_c, 0, 64, 48
1, 1720800, Control_c, 0, 64, 56
1, 1720822, Control_c, 0, 64, 62
1, 1720837, Control_c, 0, 64, 66
1, 1720852, Control_c, 0, 64, 68
1, 1720853, Note_on_c, 0, 65, 41
1, 1720859, Note_on_c, 0, 72, 36
1, 1720866, Control_c, 0, 64, 69
1, 1720881, Control_c, 0, 64, 71
1, 1720896, Control_c, 0, 64, 75
1, 1720911, Control_c, 0, 64, 81
1, 1720925, Control_c, 0, 64, 88
1, 1720939, Note_off_c, 0, 71, 23
1, 1720940, Control_c, 0, 64, 93
1, 1720955, Control_c, 0, 64, 96
1, 1720960, Note_off_c, 0, 65, 37
1, 1720985, Control_c, 0, 64, 99
1, 1721002, Note_off_c, 0, 72, 37
1, 1721044, Control_c, 0, 64, 101
1, 1721147, Note_on_c, 0, 75, 34
1, 1721153, Note_on_c, 0, 63, 28
1, 1721171, Note_on_c, 0, 57, 15
1, 1721207, Control_c, 0, 64, 97
1, 1721222, Control_c, 0, 64, 93
1, 1721236, Control_c, 0, 64, 84
1, 1721251, Control_c, 0, 64, 72
1, 1721266, Control_c, 0, 64, 61
1, 1721281, Control_c, 0, 64, 51
1, 1721297, Control_c, 0, 64, 44
1, 1721312, Control_c, 0, 64, 42
1, 1721327, Control_c, 0, 64, 43
1, 1721341, Control_c, 0, 64, 48
1, 1721356, Control_c, 0, 64, 55
1, 1721371, Control_c, 0, 64, 59
1, 1721386, Control_c, 0, 64, 61
1, 1721401, Control_c, 0, 64, 62
1, 1721415, Control_c, 0, 64, 65
1, 1721430, Control_c, 0, 64, 69
1, 1721445, Control_c, 0, 64, 74
1, 1721460, Control_c, 0, 64, 78
1, 1721474, Control_c, 0, 64, 80
1, 1721489, Control_c, 0, 64, 83
1, 1721504, Control_c, 0, 64, 87
1, 1721519, Control_c, 0, 64, 92
1, 1721534, Control_c, 0, 64, 99
1, 1721543, Note_on_c, 0, 65, 27
1, 1721543, Note_on_c, 0, 69, 38
1, 1721548, Control_c, 0, 64, 105
1, 1721571, Control_c, 0, 64, 111
1, 1721586, Control_c, 0, 64, 121
1, 1721601, Control_c, 0, 64, 127
1, 1721705, Note_off_c, 0, 65, 34
1, 1721723, Note_off_c, 0, 53, 37
1, 1721743, Note_off_c, 0, 75, 36
1, 1721774, Note_off_c, 0, 57, 35
1, 1721834, Note_off_c, 0, 69, 30
1, 1721879, Note_off_c, 0, 63, 39
1, 1721971, Control_c, 0, 64, 121
1, 1721986, Control_c, 0, 64, 116
1, 1722001, Control_c, 0, 64, 111
1, 1722015, Control_c, 0, 64, 108
1, 1722030, Control_c, 0, 64, 104
1, 1722045, Control_c, 0, 64, 100
1, 1722059, Control_c, 0, 64, 97
1, 1722074, Control_c, 0, 64, 94
1, 1722090, Control_c, 0, 64, 92
1, 1722105, Control_c, 0, 64, 91
1, 1722120, Control_c, 0, 64, 90
1, 1722135, Control_c, 0, 64, 89
1, 1722150, Control_c, 0, 64, 87
1, 1722164, Control_c, 0, 64, 86
1, 1722179, Control_c, 0, 64, 85
1, 1722194, Control_c, 0, 64, 84
1, 1722209, Control_c, 0, 64, 83
1, 1722224, Control_c, 0, 64, 82
1, 1722238, Control_c, 0, 64, 81
1, 1722253, Control_c, 0, 64, 80
1, 1722268, Control_c, 0, 64, 79
1, 1722283, Control_c, 0, 64, 78
1, 1722297, Control_c, 0, 64, 78
1, 1722320, Control_c, 0, 64, 77
1, 1722335, Control_c, 0, 64, 76
1, 1722350, Control_c, 0, 64, 74
1, 1722364, Control_c, 0, 64, 73
1, 1722379, Control_c, 0, 64, 72
1, 1722409, Control_c, 0, 64, 72
1, 1722424, Control_c, 0, 64, 71
1, 1722453, Control_c, 0, 64, 70
1, 1722483, Control_c, 0, 64, 70
1, 1722497, Control_c, 0, 64, 69
1, 1722512, Control_c, 0, 64, 68
1, 1722527, Control_c, 0, 64, 67
1, 1722571, Control_c, 0, 64, 66
1, 1722586, Control_c, 0, 64, 65
1, 1722601, Control_c, 0, 64, 64
1, 1722660, Control_c, 0, 64, 63
1, 1722675, Control_c, 0, 64, 62
1, 1722689, Control_c, 0, 64, 61
1, 1722749, Control_c, 0, 64, 60
1, 1722764, Control_c, 0, 64, 59
1, 1722779, Control_c, 0, 64, 58
1, 1722823, Control_c, 0, 64, 58
1, 1722838, Control_c, 0, 64, 57
1, 1722853, Control_c, 0, 64, 57
1, 1722913, Control_c, 0, 64, 56
1, 1722928, Control_c, 0, 64, 56
1, 1722943, Control_c, 0, 64, 55
1, 1722987, Control_c, 0, 64, 55
1, 1723002, Control_c, 0, 64, 54
1, 1723017, Control_c, 0, 64, 54
1, 1723098, Control_c, 0, 64, 53
1, 1723157, Control_c, 0, 64, 53
1, 1723172, Control_c, 0, 64, 52
1, 1723232, Control_c, 0, 64, 52
1, 1723246, Control_c, 0, 64, 51
1, 1723261, Control_c, 0, 64, 50
1, 1723320, Control_c, 0, 64, 50
1, 1723335, Control_c, 0, 64, 49
1, 1723394, Control_c, 0, 64, 48
1, 1723409, Control_c, 0, 64, 47
1, 1723424, Control_c, 0, 64, 47
1, 1723424, Control_c, 0, 67, 123
1, 1723438, Control_c, 0, 67, 115
1, 1723453, Control_c, 0, 67, 109
1, 1723468, Control_c, 0, 64, 46
1, 1723468, Control_c, 0, 67, 104
1, 1723483, Control_c, 0, 64, 45
1, 1723483, Control_c, 0, 67, 95
1, 1723498, Control_c, 0, 64, 44
1, 1723498, Control_c, 0, 67, 87
1, 1723512, Control_c, 0, 67, 77
1, 1723527, Control_c, 0, 67, 64
1, 1723542, Control_c, 0, 64, 43
1, 1723542, Control_c, 0, 67, 50
1, 1723557, Control_c, 0, 64, 42
1, 1723557, Control_c, 0, 67, 37
1, 1723572, Control_c, 0, 64, 41
1, 1723572, Control_c, 0, 67, 0
1, 1723587, Control_c, 0, 64, 41
1, 1723631, Control_c, 0, 64, 39
1, 1723646, Control_c, 0, 64, 38
1, 1723661, Control_c, 0, 64, 37
1, 1723676, Control_c, 0, 64, 36
1, 1723706, Control_c, 0, 64, 34
1, 1723721, Control_c, 0, 64, 30
1, 1723736, Control_c, 0, 64, 0
1, 1723770, Note_on_c, 0, 86, 79
1, 1723774, Note_on_c, 0, 66, 88
1, 1723775, Note_on_c, 0, 54, 82
1, 1723779, Note_on_c, 0, 74, 79
1, 1723861, Note_off_c, 0, 74, 56
1, 1723864, Note_off_c, 0, 86, 63
1, 1723888, Note_off_c, 0, 54, 59
1, 1723911, Note_off_c, 0, 66, 63
1, 1724018, Note_on_c, 0, 67, 91
1, 1724023, Note_on_c, 0, 55, 84
1, 1724030, Note_on_c, 0, 84, 87
1, 1724040, Note_on_c, 0, 72, 81
1, 1724084, Control_c, 0, 64, 59
1, 1724099, Control_c, 0, 64, 70
1, 1724105, Note_off_c, 0, 72, 61
1, 1724114, Control_c, 0, 64, 76
1, 1724129, Control_c, 0, 64, 77
1, 1724141, Note_off_c, 0, 84, 63
1, 1724143, Control_c, 0, 64, 78
1, 1724158, Control_c, 0, 64, 79
1, 1724162, Note_off_c, 0, 67, 62
1, 1724173, Control_c, 0, 64, 80
1, 1724185, Note_off_c, 0, 55, 63
1, 1724188, Control_c, 0, 64, 81
1, 1724203, Control_c, 0, 64, 82
1, 1724212, Note_on_c, 0, 82, 81
1, 1724217, Control_c, 0, 64, 83
1, 1724225, Note_on_c, 0, 70, 70
1, 1724232, Control_c, 0, 64, 83
1, 1724247, Control_c, 0, 64, 84
1, 1724248, Note_off_c, 0, 70, 69
1, 1724261, Control_c, 0, 64, 86
1, 1724264, Note_off_c, 0, 82, 61
1, 1724276, Control_c, 0, 64, 87
1, 1724291, Control_c, 0, 64, 87
1, 1724321, Control_c, 0, 64, 87
1, 1724328, Note_on_c, 0, 50, 81
1, 1724333, Note_on_c, 0, 62, 81
1, 1724334, Note_on_c, 0, 82, 83
1, 1724338, Note_on_c, 0, 70, 80
1, 1724350, Control_c, 0, 64, 85
1, 1724365, Control_c, 0, 64, 82
1, 1724376, Note_off_c, 0, 70, 62
1, 1724377, Note_off_c, 0, 50, 64
1, 1724380, Control_c, 0, 64, 80
1, 1724383, Note_off_c, 0, 82, 61
1, 1724383, Note_off_c, 0, 62, 62
1, 1724395, Control_c, 0, 64, 79
1, 1724439, Note_on_c, 0, 82, 83
1, 1724439, Control_c, 0, 64, 78
1, 1724441, Note_on_c, 0, 70, 87
1, 1724454, Control_c, 0, 64, 69
1, 1724469, Control_c, 0, 64, 49
1, 1724482, Note_off_c, 0, 70, 65
1, 1724484, Control_c, 0, 64, 0
1, 1724485, Note_off_c, 0, 82, 61
1, 1724540, Note_on_c, 0, 51, 86
1, 1724541, Note_on_c, 0, 63, 94
1, 1724544, Control_c, 0, 64, 52
1, 1724548, Note_on_c, 0, 79, 88
1, 1724553, Note_on_c, 0, 67, 91
1, 1724566, Control_c, 0, 64, 77
1, 1724574, Note_off_c, 0, 63, 65
1, 1724581, Control_c, 0, 64, 127
1, 1724591, Note_off_c, 0, 51, 61
1, 1724598, Note_off_c, 0, 67, 65
1, 1724600, Note_off_c, 0, 79, 67
1, 1724602, Note_on_c, 0, 78, 17
1, 1724651, Note_off_c, 0, 78, 38
1, 1724666, Note_on_c, 0, 79, 71
1, 1724670, Note_on_c, 0, 65, 71
1, 1724673, Note_on_c, 0, 67, 73
1, 1724686, Note_off_c, 0, 79, 70
1, 1724688, Note_off_c, 0, 67, 76
1, 1724690, Note_on_c, 0, 77, 47
1, 1724693, Note_off_c, 0, 65, 68
1, 1724717, Note_off_c, 0, 77, 38
1, 1724749, Note_on_c, 0, 45, 79
1, 1724751, Note_on_c, 0, 57, 77
1, 1724759, Note_on_c, 0, 65, 88
1, 1724763, Note_on_c, 0, 77, 86
1, 1724775, Note_off_c, 0, 45, 65
1, 1724779, Note_off_c, 0, 57, 68
1, 1724785, Note_off_c, 0, 77, 64
1, 1724794, Note_off_c, 0, 65, 67
1, 1724833, Control_c, 0, 64, 75
1, 1724848, Control_c, 0, 64, 48
1, 1724851, Note_on_c, 0, 57, 81
1, 1724855, Note_on_c, 0, 45, 65
1, 1724859, Note_on_c, 0, 77, 90
1, 1724862, Note_on_c, 0, 65, 93
1, 1724862, Control_c, 0, 64, 0
1, 1724880, Note_off_c, 0, 57, 66
1, 1724883, Note_off_c, 0, 45, 64
1, 1724885, Note_off_c, 0, 65, 66
1, 1724887, Note_off_c, 0, 77, 64
1, 1724907, Control_c, 0, 64, 58
1, 1724922, Control_c, 0, 64, 112
1, 1724937, Control_c, 0, 64, 127
1, 1724943, Note_on_c, 0, 75, 95
1, 1724950, Note_on_c, 0, 58, 96
1, 1724951, Note_on_c, 0, 46, 86
1, 1724952, Note_on_c, 0, 63, 96
1, 1724963, Note_on_c, 0, 56, 61
1, 1724968, Note_off_c, 0, 58, 72
1, 1724976, Note_off_c, 0, 46, 67
1, 1724977, Note_off_c, 0, 63, 63
1, 1724985, Note_off_c, 0, 56, 64
1, 1724987, Note_off_c, 0, 75, 64
1, 1725043, Note_on_c, 0, 75, 82
1, 1725060, Note_off_c, 0, 75, 72
1, 1725068, Note_on_c, 0, 62, 72
1, 1725081, Note_on_c, 0, 63, 30
1, 1725086, Note_off_c, 0, 62, 64
1, 1725119, Note_off_c, 0, 63, 43
1, 1725137, Note_on_c, 0, 74, 92
1, 1725137, Note_on_c, 0, 62, 91
1, 1725138, Note_on_c, 0, 42, 90
1, 1725139, Note_on_c, 0, 54, 94
1, 1725170, Note_off_c, 0, 62, 65
1, 1725171, Note_off_c, 0, 74, 63
1, 1725173, Note_off_c, 0, 42, 63
1, 1725182, Note_off_c, 0, 54, 56
1, 1725204, Control_c, 0, 64, 104
1, 1725218, Control_c, 0, 64, 107
1, 1725225, Note_on_c, 0, 74, 88
1, 1725229, Note_on_c, 0, 62, 91
1, 1725233, Control_c, 0, 64, 127
1, 1725260, Note_off_c, 0, 74, 68
1, 1725262, Note_off_c, 0, 62, 68
1, 1725294, Control_c, 0, 64, 86
1, 1725316, Control_c, 0, 64, 57
1, 1725324, Note_on_c, 0, 43, 90
1, 1725324, Note_on_c, 0, 55, 90
1, 1725330, Control_c, 0, 64, 40
1, 1725336, Note_on_c, 0, 72, 91
1, 1725339, Note_on_c, 0, 60, 98
1, 1725345, Control_c, 0, 64, 51
1, 1725354, Note_off_c, 0, 55, 66
1, 1725360, Control_c, 0, 64, 68
1, 1725366, Note_off_c, 0, 43, 61
1, 1725372, Note_off_c, 0, 72, 65
1, 1725374, Note_off_c, 0, 60, 69
1, 1725375, Control_c, 0, 64, 127
1, 1725431, Note_on_c, 0, 70, 86
1, 1725445, Note_on_c, 0, 58, 80
1, 1725469, Note_off_c, 0, 58, 66
1, 1725476, Note_off_c, 0, 70, 62
1, 1725509, Note_on_c, 0, 38, 81
1, 1725521, Note_on_c, 0, 70, 77
1, 1725521, Note_on_c, 0, 50, 64
1, 1725527, Note_on_c, 0, 58, 81
1, 1725538, Note_off_c, 0, 38, 63
1, 1725550, Note_off_c, 0, 50, 66
1, 1725556, Note_off_c, 0, 58, 63
1, 1725566, Note_off_c, 0, 70, 59
1, 1725612, Control_c, 0, 64, 75
1, 1725613, Note_on_c, 0, 50, 74
1, 1725614, Note_on_c, 0, 70, 77
1, 1725615, Note_on_c, 0, 38, 70
1, 1725627, Note_on_c, 0, 58, 86
1, 1725627, Control_c, 0, 64, 33
1, 1725641, Control_c, 0, 64, 0
1, 1725642, Note_off_c, 0, 38, 64
1, 1725645, Note_off_c, 0, 50, 67
1, 1725654, Note_off_c, 0, 58, 65
1, 1725658, Note_off_c, 0, 70, 61
1, 1725728, Note_on_c, 0, 69, 82
1, 1725730, Control_c, 0, 64, 52
1, 1725737, Note_on_c, 0, 51, 76
1, 1725737, Note_on_c, 0, 57, 77
1, 1725739, Note_on_c, 0, 39, 75
1, 1725745, Control_c, 0, 64, 77
1, 1725760, Control_c, 0, 64, 127
1, 1725764, Note_off_c, 0, 57, 68
1, 1725767, Note_off_c, 0, 51, 62
1, 1725772, Note_off_c, 0, 39, 58
1, 1725772, Note_off_c, 0, 69, 60
1, 1725837, Note_on_c, 0, 55, 73
1, 1725839, Note_on_c, 0, 67, 64
1, 1725860, Note_off_c, 0, 55, 66
1, 1725866, Note_off_c, 0, 67, 66
1, 1725881, Poly_aftertouch_c, 0, 69, 127
1, 1725910, Poly_aftertouch_c, 0, 69, 0
1, 1725918, Note_on_c, 0, 67, 87
1, 1725921, Note_on_c, 0, 55, 76
1, 1725934, Note_on_c, 0, 49, 37
1, 1725952, Note_on_c, 0, 48, 62
1, 1725955, Note_off_c, 0, 67, 63
1, 1725962, Note_off_c, 0, 55, 61
1, 1725967, Note_off_c, 0, 49, 52
1, 1725981, Note_off_c, 0, 48, 53
1, 1726006, Note_on_c, 0, 67, 84
1, 1726013, Note_on_c, 0, 50, 84
1, 1726017, Note_on_c, 0, 55, 44
1, 1726037, Note_off_c, 0, 67, 64
1, 1726040, Note_off_c, 0, 50, 68
1, 1726048, Note_off_c, 0, 55, 56
1, 1726063, Control_c, 0, 64, 91
1, 1726078, Control_c, 0, 64, 55
1, 1726094, Control_c, 0, 64, 0
1, 1726109, Control_c, 0, 64, 30
1, 1726123, Control_c, 0, 64, 66
1, 1726125, Note_on_c, 0, 39, 90
1, 1726126, Note_on_c, 0, 81, 89
1, 1726126, Note_on_c, 0, 51, 97
1, 1726136, Note_on_c, 0, 69, 67
1, 1726138, Control_c, 0, 64, 127
1, 1726152, Note_off_c, 0, 81, 63
1, 1726159, Note_off_c, 0, 69, 66
1, 1726168, Note_off_c, 0, 51, 61
1, 1726168, Note_on_c, 0, 71, 35
1, 1726199, Note_off_c, 0, 39, 57
1, 1726207, Note_off_c, 0, 71, 47
1, 1726216, Poly_aftertouch_c, 0, 38, 127
1, 1726222, Note_on_c, 0, 67, 93
1, 1726226, Note_on_c, 0, 79, 61
1, 1726246, Note_off_c, 0, 67, 65
1, 1726249, Note_off_c, 0, 79, 69
1, 1726253, Note_on_c, 0, 81, 34
1, 1726253, Poly_aftertouch_c, 0, 38, 0
1, 1726282, Note_off_c, 0, 81, 58
1, 1726307, Note_on_c, 0, 79, 88
1, 1726314, Note_on_c, 0, 67, 93
1, 1726316, Note_on_c, 0, 48, 92
1, 1726345, Note_off_c, 0, 79, 67
1, 1726345, Note_off_c, 0, 67, 65
1, 1726394, Note_on_c, 0, 50, 89
1, 1726403, Note_off_c, 0, 48, 59
1, 1726405, Note_on_c, 0, 79, 92
1, 1726408, Note_on_c, 0, 67, 90
1, 1726424, Note_off_c, 0, 67, 74
1, 1726430, Note_off_c, 0, 50, 66
1, 1726436, Note_off_c, 0, 79, 70
1, 1726463, Control_c, 0, 64, 70
1, 1726478, Control_c, 0, 64, 39
1, 1726493, Control_c, 0, 64, 0
1, 1726503, Note_on_c, 0, 51, 102
1, 1726505, Note_on_c, 0, 39, 95
1, 1726508, Control_c, 0, 64, 59
1, 1726511, Note_on_c, 0, 93, 98
1, 1726518, Note_on_c, 0, 81, 91
1, 1726523, Control_c, 0, 64, 127
1, 1726538, Note_off_c, 0, 81, 68
1, 1726541, Note_on_c, 0, 83, 57
1, 1726541, Note_off_c, 0, 51, 64
1, 1726546, Note_off_c, 0, 93, 66
1, 1726553, Note_on_c, 0, 92, 22
1, 1726559, Note_off_c, 0, 39, 58
1, 1726565, Note_off_c, 0, 83, 39
1, 1726600, Note_off_c, 0, 92, 38
1, 1726612, Note_on_c, 0, 79, 88
1, 1726615, Note_on_c, 0, 91, 73
1, 1726618, Note_on_c, 0, 93, 81
1, 1726632, Note_off_c, 0, 93, 69
1, 1726634, Note_off_c, 0, 79, 66
1, 1726637, Note_off_c, 0, 91, 72
1, 1726685, Note_on_c, 0, 48, 85
1, 1726696, Note_on_c, 0, 91, 101
1, 1726701, Note_on_c, 0, 79, 90
1, 1726732, Note_off_c, 0, 91, 69
1, 1726733, Note_off_c, 0, 79, 69
1, 1726749, Note_off_c, 0, 48, 62
1, 1726789, Note_on_c, 0, 91, 99
1, 1726794, Note_on_c, 0, 50, 71
1, 1726795, Note_on_c, 0, 79, 98
1, 1726831, Note_off_c, 0, 50, 68
1, 1726839, Note_off_c, 0, 79, 70
1, 1726839, Note_off_c, 0, 91, 68
1, 1726871, Control_c, 0, 64, 98
1, 1726887, Control_c, 0, 64, 60
1, 1726901, Control_c, 0, 64, 0
1, 1726921, Note_on_c, 0, 51, 92
1, 1726922, Note_on_c, 0, 90, 101
1, 1726924, Note_on_c, 0, 39, 90
1, 1726925, Note_on_c, 0, 78, 99
1, 1726931, Control_c, 0, 64, 49
1, 1726946, Control_c, 0, 64, 127
1, 1726952, Note_off_c, 0, 39, 70
1, 1726960, Note_off_c, 0, 51, 65
1, 1726967, Note_off_c, 0, 78, 63
1, 1726988, Note_off_c, 0, 90, 64
1, 1727095, Note_on_c, 0, 91, 95
1, 1727097, Note_on_c, 0, 79, 91
1, 1727099, Note_on_c, 0, 51, 86
1, 1727136, Note_off_c, 0, 79, 68
1, 1727137, Note_off_c, 0, 91, 68
1, 1727177, Note_off_c, 0, 51, 56
1, 1727217, Note_on_c, 0, 79, 98
1, 1727217, Note_on_c, 0, 91, 100
1, 1727224, Note_on_c, 0, 55, 84
1, 1727261, Note_off_c, 0, 79, 66
1, 1727268, Note_off_c, 0, 91, 67
1, 1727311, Note_off_c, 0, 55, 60
1, 1727328, Note_on_c, 0, 58, 86
1, 1727333, Note_on_c, 0, 79, 99
1, 1727333, Note_on_c, 0, 91, 95
1, 1727388, Note_off_c, 0, 79, 65
1, 1727396, Note_off_c, 0, 91, 64
1, 1727418, Note_off_c, 0, 58, 61
1, 1727450, Control_c, 0, 64, 88
1, 1727455, Note_on_c, 0, 58, 85
1, 1727457, Note_on_c, 0, 91, 101
1, 1727460, Note_on_c, 0, 79, 106
1, 1727461, Note_on_c, 0, 63, 98
1, 1727462, Note_on_c, 0, 51, 86
1, 1727462, Note_on_c, 0, 82, 107
1, 1727465, Note_on_c, 0, 55, 85
1, 1727465, Note_on_c, 0, 87, 93
1, 1727465, Control_c, 0, 64, 82
1, 1727479, Control_c, 0, 64, 127
1, 1727505, Note_off_c, 0, 63, 67
1, 1727524, Note_off_c, 0, 51, 62
1, 1727533, Note_off_c, 0, 55, 66
1, 1727538, Note_off_c, 0, 58, 65
1, 1727569, Note_off_c, 0, 79, 57
1, 1727587, Note_off_c, 0, 91, 61
1, 1727671, Note_off_c, 0, 82, 51
1, 1727715, Note_off_c, 0, 87, 52
1, 1727828, Control_c, 0, 64, 87
1, 1727843, Control_c, 0, 64, 59
1, 1727858, Control_c, 0, 64, 0
1, 1728212, Note_on_c, 0, 81, 5
1, 1728343, Note_off_c, 0, 81, 33
1, 1728442, Note_on_c, 0, 81, 94
1, 1728443, Note_on_c, 0, 41, 89
1, 1728443, Note_on_c, 0, 53, 99
1, 1728443, Note_on_c, 0, 93, 97
1, 1728445, Note_on_c, 0, 48, 96
1, 1728445, Note_on_c, 0, 87, 94
1, 1728458, Control_c, 0, 64, 62
1, 1728472, Note_on_c, 0, 89, 65
1, 1728473, Control_c, 0, 64, 127
1, 1728491, Note_off_c, 0, 89, 64
1, 1728497, Note_off_c, 0, 53, 67
1, 1728508, Note_off_c, 0, 48, 64
1, 1728511, Note_off_c, 0, 81, 65
1, 1728514, Note_off_c, 0, 41, 65
1, 1728517, Note_off_c, 0, 93, 64
1, 1728543, Note_off_c, 0, 87, 62
1, 1729022, Control_c, 0, 64, 83
1, 1729037, Control_c, 0, 64, 64
1, 1729059, Control_c, 0, 64, 41
1, 1729074, Control_c, 0, 64, 0
1, 1729500, Note_on_c, 0, 86, 91
1, 1729501, Note_on_c, 0, 34, 96
1, 1729502, Note_on_c, 0, 94, 97
1, 1729504, Note_on_c, 0, 82, 89
1, 1729519, Control_c, 0, 64, 28
1, 1729534, Control_c, 0, 64, 64
1, 1729548, Control_c, 0, 64, 95
1, 1729563, Control_c, 0, 64, 127
1, 1729632, Note_off_c, 0, 82, 62
1, 1729635, Note_off_c, 0, 94, 63
1, 1729662, Note_on_c, 0, 41, 74
1, 1729662, Note_off_c, 0, 86, 67
1, 1729671, Note_off_c, 0, 34, 61
1, 1729763, Note_off_c, 0, 41, 58
1, 1729774, Note_on_c, 0, 46, 72
1, 1729829, Note_off_c, 0, 46, 61
1, 1729852, Control_c, 0, 64, 91
1, 1729861, Note_on_c, 0, 34, 83
1, 1729867, Control_c, 0, 64, 65
1, 1729881, Control_c, 0, 64, 34
1, 1729896, Control_c, 0, 64, 0
1, 1729925, Note_off_c, 0, 34, 60
1, 1729926, Control_c, 0, 67, 37
1, 1729941, Control_c, 0, 67, 71
1, 1729955, Control_c, 0, 67, 101
1, 1729962, Note_on_c, 0, 41, 62
1, 1729970, Control_c, 0, 67, 114
1, 1729985, Control_c, 0, 67, 127
1, 1730009, Note_on_c, 0, 86, 74
1, 1730013, Note_on_c, 0, 76, 72
1, 1730026, Note_off_c, 0, 41, 63
1, 1730043, Note_off_c, 0, 76, 64
1, 1730052, Note_off_c, 0, 86, 65
1, 1730060, Note_on_c, 0, 46, 50
1, 1730095, Note_off_c, 0, 46, 64
1, 1730123, Note_on_c, 0, 34, 78
1, 1730148, Note_on_c, 0, 77, 80
1, 1730151, Note_on_c, 0, 84, 79
1, 1730155, Note_on_c, 0, 86, 56
1, 1730174, Note_off_c, 0, 86, 64
1, 1730177, Note_off_c, 0, 34, 60
1, 1730213, Note_on_c, 0, 41, 60
1, 1730272, Note_off_c, 0, 41, 62
1, 1730284, Note_off_c, 0, 84, 35
1, 1730288, Note_on_c, 0, 82, 55
1, 1730288, Note_off_c, 0, 77, 27
1, 1730300, Note_on_c, 0, 46, 45
1, 1730309, Note_off_c, 0, 82, 60
1, 1730329, Note_off_c, 0, 46, 51
1, 1730348, Note_on_c, 0, 34, 77
1, 1730388, Note_on_c, 0, 82, 66
1, 1730389, Note_off_c, 0, 34, 63
1, 1730395, Note_on_c, 0, 74, 71
1, 1730415, Note_off_c, 0, 82, 66
1, 1730421, Note_off_c, 0, 74, 68
1, 1730469, Note_on_c, 0, 41, 41
1, 1730503, Note_on_c, 0, 82, 74
1, 1730510, Note_off_c, 0, 41, 61
1, 1730517, Note_on_c, 0, 46, 56
1, 1730529, Note_off_c, 0, 82, 65
1, 1730556, Note_off_c, 0, 46, 64
1, 1730598, Note_on_c, 0, 34, 73
1, 1730619, Note_on_c, 0, 79, 75
1, 1730624, Note_on_c, 0, 75, 83
1, 1730644, Note_off_c, 0, 34, 61
1, 1730698, Note_on_c, 0, 41, 47
1, 1730731, Note_on_c, 0, 77, 74
1, 1730742, Note_off_c, 0, 79, 64
1, 1730744, Note_off_c, 0, 75, 59
1, 1730749, Note_off_c, 0, 41, 63
1, 1730758, Note_off_c, 0, 77, 66
1, 1730777, Note_on_c, 0, 46, 40
1, 1730808, Note_off_c, 0, 46, 49
1, 1730825, Note_on_c, 0, 34, 72
1, 1730854, Note_on_c, 0, 77, 71
1, 1730865, Note_off_c, 0, 34, 65
1, 1730869, Note_on_c, 0, 69, 65
1, 1730881, Note_off_c, 0, 77, 64
1, 1730896, Note_off_c, 0, 69, 68
1, 1730911, Note_on_c, 0, 41, 57
1, 1730975, Note_on_c, 0, 77, 70
1, 1730978, Note_off_c, 0, 41, 56
1, 1730982, Note_on_c, 0, 69, 59
1, 1730997, Note_on_c, 0, 46, 56
1, 1730999, Note_off_c, 0, 77, 68
1, 1731002, Note_off_c, 0, 69, 64
1, 1731029, Note_off_c, 0, 46, 64
1, 1731071, Note_on_c, 0, 34, 71
1, 1731080, Note_on_c, 0, 75, 89
1, 1731090, Note_on_c, 0, 70, 79
1, 1731113, Note_off_c, 0, 34, 65
1, 1731156, Note_on_c, 0, 41, 64
1, 1731198, Note_on_c, 0, 74, 69
1, 1731209, Note_off_c, 0, 70, 31
1, 1731217, Note_off_c, 0, 41, 61
1, 1731224, Note_off_c, 0, 75, 31
1, 1731225, Note_off_c, 0, 74, 67
1, 1731229, Note_on_c, 0, 46, 54
1, 1731260, Note_off_c, 0, 46, 64
1, 1731292, Note_on_c, 0, 34, 76
1, 1731332, Note_on_c, 0, 74, 72
1, 1731337, Note_off_c, 0, 34, 65
1, 1731339, Note_on_c, 0, 64, 59
1, 1731356, Note_off_c, 0, 74, 70
1, 1731367, Note_off_c, 0, 64, 66
1, 1731394, Note_on_c, 0, 41, 62
1, 1731437, Note_on_c, 0, 74, 82
1, 1731447, Note_on_c, 0, 64, 61
1, 1731454, Note_off_c, 0, 41, 57
1, 1731464, Note_on_c, 0, 46, 62
1, 1731474, Note_off_c, 0, 74, 60
1, 1731476, Note_off_c, 0, 64, 66
1, 1731492, Note_off_c, 0, 46, 65
1, 1731525, Note_on_c, 0, 34, 85
1, 1731551, Note_on_c, 0, 65, 87
1, 1731552, Note_on_c, 0, 72, 83
1, 1731555, Note_on_c, 0, 74, 79
1, 1731558, Control_c, 0, 64, 43
1, 1731573, Control_c, 0, 64, 45
1, 1731585, Note_off_c, 0, 34, 62
1, 1731587, Control_c, 0, 64, 40
1, 1731599, Note_off_c, 0, 65, 63
1, 1731602, Control_c, 0, 64, 37
1, 1731609, Note_off_c, 0, 74, 55
1, 1731619, Note_on_c, 0, 41, 54
1, 1731632, Control_c, 0, 64, 39
1, 1731647, Control_c, 0, 64, 40
1, 1731672, Note_on_c, 0, 65, 38
1, 1731675, Note_on_c, 0, 70, 76
1, 1731681, Note_off_c, 0, 41, 62
1, 1731682, Note_on_c, 0, 46, 70
1, 1731689, Note_off_c, 0, 72, 63
1, 1731700, Note_off_c, 0, 65, 54
1, 1731707, Note_off_c, 0, 70, 62
1, 1731713, Note_off_c, 0, 46, 64
1, 1731736, Control_c, 0, 64, 37
1, 1731751, Control_c, 0, 64, 0
1, 1731754, Note_on_c, 0, 34, 84
1, 1731790, Note_on_c, 0, 62, 69
1, 1731797, Note_on_c, 0, 70, 58
1, 1731812, Note_off_c, 0, 34, 61
1, 1731815, Note_off_c, 0, 70, 65
1, 1731817, Note_off_c, 0, 62, 64
1, 1731854, Note_on_c, 0, 41, 61
1, 1731877, Note_on_c, 0, 70, 77
1, 1731894, Note_on_c, 0, 62, 54
1, 1731908, Note_off_c, 0, 41, 60
1, 1731917, Note_on_c, 0, 46, 49
1, 1731917, Note_off_c, 0, 62, 61
1, 1731932, Note_off_c, 0, 70, 61
1, 1731946, Note_off_c, 0, 46, 61
1, 1731978, Note_on_c, 0, 34, 82
1, 1731995, Note_on_c, 0, 67, 73
1, 1732006, Note_on_c, 0, 63, 65
1, 1732032, Note_off_c, 0, 34, 60
1, 1732032, Control_c, 0, 64, 29
1, 1732055, Control_c, 0, 64, 0
1, 1732070, Note_on_c, 0, 41, 55
1, 1732098, Note_on_c, 0, 65, 70
1, 1732112, Note_off_c, 0, 67, 62
1, 1732121, Note_off_c, 0, 63, 56
1, 1732133, Note_off_c, 0, 65, 61
1, 1732134, Note_off_c, 0, 41, 62
1, 1732155, Note_on_c, 0, 46, 46
1, 1732184, Note_off_c, 0, 46, 52
1, 1732217, Note_on_c, 0, 34, 61
1, 1732241, Note_on_c, 0, 65, 57
1, 1732255, Note_off_c, 0, 34, 63
1, 1732262, Note_off_c, 0, 65, 62
1, 1732288, Note_on_c, 0, 41, 58
1, 1732339, Note_on_c, 0, 65, 61
1, 1732364, Note_off_c, 0, 41, 56
1, 1732368, Note_on_c, 0, 57, 23
1, 1732376, Note_on_c, 0, 46, 51
1, 1732377, Note_off_c, 0, 65, 60
1, 1732407, Note_off_c, 0, 46, 63
1, 1732407, Note_off_c, 0, 57, 39
1, 1732443, Note_on_c, 0, 34, 74
1, 1732458, Note_on_c, 0, 67, 68
1, 1732463, Note_on_c, 0, 63, 63
1, 1732485, Note_off_c, 0, 34, 65
1, 1732500, Control_c, 0, 64, 28
1, 1732511, Note_off_c, 0, 63, 51
1, 1732514, Control_c, 0, 64, 30
1, 1732515, Note_on_c, 0, 41, 51
1, 1732529, Control_c, 0, 64, 32
1, 1732567, Note_on_c, 0, 65, 66
1, 1732568, Note_off_c, 0, 67, 60
1, 1732589, Note_off_c, 0, 41, 60
1, 1732602, Note_off_c, 0, 65, 61
1, 1732613, Note_on_c, 0, 46, 37
1, 1732648, Note_off_c, 0, 46, 46
1, 1732666, Note_on_c, 0, 34, 74
1, 1732690, Note_on_c, 0, 65, 65
1, 1732703, Note_on_c, 0, 57, 47
1, 1732705, Note_off_c, 0, 34, 66
1, 1732715, Note_off_c, 0, 65, 67
1, 1732730, Note_off_c, 0, 57, 55
1, 1732753, Note_on_c, 0, 41, 51
1, 1732800, Note_on_c, 0, 65, 64
1, 1732807, Note_on_c, 0, 57, 66
1, 1732824, Note_off_c, 0, 41, 54
1, 1732838, Note_off_c, 0, 57, 65
1, 1732840, Note_on_c, 0, 46, 54
1, 1732842, Note_off_c, 0, 65, 63
1, 1732870, Note_off_c, 0, 46, 64
1, 1732907, Note_on_c, 0, 34, 74
1, 1732915, Note_on_c, 0, 67, 72
1, 1732922, Note_on_c, 0, 63, 71
1, 1732953, Note_off_c, 0, 34, 60
1, 1732982, Note_on_c, 0, 41, 56
1, 1733025, Note_on_c, 0, 65, 68
1, 1733026, Note_off_c, 0, 63, 53
1, 1733049, Note_off_c, 0, 67, 38
1, 1733051, Note_off_c, 0, 41, 63
1, 1733062, Note_on_c, 0, 46, 50
1, 1733065, Note_off_c, 0, 65, 64
1, 1733090, Note_off_c, 0, 46, 60
1, 1733122, Note_on_c, 0, 34, 73
1, 1733141, Note_on_c, 0, 65, 67
1, 1733158, Note_on_c, 0, 57, 49
1, 1733170, Note_off_c, 0, 34, 61
1, 1733172, Note_off_c, 0, 65, 62
1, 1733183, Note_off_c, 0, 57, 56
1, 1733212, Note_on_c, 0, 41, 57
1, 1733253, Note_on_c, 0, 65, 66
1, 1733257, Note_on_c, 0, 57, 61
1, 1733279, Note_off_c, 0, 41, 62
1, 1733290, Note_off_c, 0, 57, 65
1, 1733295, Note_on_c, 0, 46, 45
1, 1733296, Note_off_c, 0, 65, 61
1, 1733307, Control_c, 0, 64, 29
1, 1733321, Control_c, 0, 64, 0
1, 1733323, Note_off_c, 0, 46, 55
1, 1733356, Note_on_c, 0, 34, 78
1, 1733366, Control_c, 0, 64, 28
1, 1733371, Note_on_c, 0, 57, 65
1, 1733373, Note_on_c, 0, 67, 71
1, 1733377, Note_on_c, 0, 65, 34
1, 1733381, Control_c, 0, 64, 41
1, 1733386, Note_on_c, 0, 63, 71
1, 1733395, Control_c, 0, 64, 57
1, 1733409, Note_off_c, 0, 65, 52
1, 1733410, Control_c, 0, 64, 65
1, 1733422, Note_off_c, 0, 34, 62
1, 1733425, Control_c, 0, 64, 68
1, 1733429, Note_off_c, 0, 57, 53
1, 1733440, Control_c, 0, 64, 72
1, 1733444, Note_on_c, 0, 41, 58
1, 1733454, Control_c, 0, 64, 76
1, 1733469, Control_c, 0, 64, 85
1, 1733471, Note_off_c, 0, 67, 63
1, 1733478, Note_on_c, 0, 65, 65
1, 1733480, Note_off_c, 0, 63, 62
1, 1733484, Control_c, 0, 64, 100
1, 1733499, Control_c, 0, 64, 127
1, 1733504, Note_off_c, 0, 65, 67
1, 1733510, Note_off_c, 0, 41, 63
1, 1733514, Control_c, 0, 67, 97
1, 1733527, Note_on_c, 0, 46, 51
1, 1733528, Control_c, 0, 67, 54
1, 1733551, Control_c, 0, 67, 0
1, 1733562, Note_off_c, 0, 46, 58
1, 1733587, Note_on_c, 0, 34, 76
1, 1733589, Note_on_c, 0, 70, 74
1, 1733590, Note_on_c, 0, 65, 63
1, 1733609, Note_on_c, 0, 63, 57
1, 1733632, Note_off_c, 0, 63, 58
1, 1733653, Note_off_c, 0, 34, 61
1, 1733672, Note_off_c, 0, 70, 62
1, 1733674, Note_on_c, 0, 41, 62
1, 1733681, Note_off_c, 0, 65, 57
1, 1733704, Note_on_c, 0, 69, 67
1, 1733731, Note_off_c, 0, 69, 67
1, 1733738, Note_off_c, 0, 41, 64
1, 1733763, Note_on_c, 0, 46, 41
1, 1733806, Note_off_c, 0, 46, 41
1, 1733814, Note_on_c, 0, 34, 79
1, 1733814, Note_on_c, 0, 74, 80
1, 1733819, Note_on_c, 0, 63, 76
1, 1733839, Note_on_c, 0, 69, 65
1, 1733853, Note_off_c, 0, 63, 59
1, 1733874, Note_off_c, 0, 34, 63
1, 1733892, Note_on_c, 0, 41, 65
1, 1733898, Note_off_c, 0, 69, 60
1, 1733928, Note_on_c, 0, 72, 75
1, 1733952, Note_off_c, 0, 72, 67
1, 1733955, Note_off_c, 0, 41, 64
1, 1733955, Note_off_c, 0, 74, 61
1, 1733972, Note_on_c, 0, 46, 51
1, 1734001, Note_off_c, 0, 46, 53
1, 1734022, Note_on_c, 0, 34, 85
1, 1734044, Note_on_c, 0, 79, 82
1, 1734053, Note_on_c, 0, 75, 80
1, 1734053, Note_on_c, 0, 69, 73
1, 1734082, Note_off_c, 0, 69, 61
1, 1734094, Note_off_c, 0, 34, 62
1, 1734116, Note_on_c, 0, 41, 54
1, 1734159, Note_on_c, 0, 77, 78
1, 1734160, Note_off_c, 0, 79, 0
1, 1734162, Note_off_c, 0, 75, 61
1, 1734178, Note_on_c, 0, 46, 73
1, 1734178, Note_off_c, 0, 41, 64
1, 1734196, Note_off_c, 0, 77, 63
1, 1734210, Note_off_c, 0, 46, 62
1, 1734236, Poly_aftertouch_c, 0, 79, 0
1, 1734246, Note_on_c, 0, 34, 86
1, 1734270, Note_on_c, 0, 82, 82
1, 1734274, Note_on_c, 0, 75, 75
1, 1734274, Note_on_c, 0, 78, 47
1, 1734278, Note_on_c, 0, 77, 74
1, 1734320, Note_on_c, 0, 41, 75
1, 1734324, Note_off_c, 0, 34, 63
1, 1734336, Note_off_c, 0, 75, 56
1, 1734366, Note_off_c, 0, 77, 63
1, 1734385, Note_off_c, 0, 78, 45
1, 1734389, Note_on_c, 0, 81, 61
1, 1734392, Note_off_c, 0, 82, 60
1, 1734405, Note_on_c, 0, 46, 77
1, 1734413, Note_off_c, 0, 41, 63
1, 1734422, Note_off_c, 0, 81, 64
1, 1734437, Note_off_c, 0, 46, 61
1, 1734478, Note_on_c, 0, 34, 98
1, 1734487, Note_on_c, 0, 75, 85
1, 1734487, Note_on_c, 0, 81, 87
1, 1734488, Note_on_c, 0, 86, 88
1, 1734529, Note_on_c, 0, 82, 8
1, 1734529, Note_off_c, 0, 82, 127
1, 1734538, Note_off_c, 0, 75, 61
1, 1734544, Note_on_c, 0, 41, 75
1, 1734560, Note_off_c, 0, 34, 63
1, 1734578, Note_off_c, 0, 81, 58
1, 1734579, Note_on_c, 0, 84, 35
1, 1734631, Note_off_c, 0, 86, 63
1, 1734632, Note_on_c, 0, 46, 78
1, 1734637, Note_off_c, 0, 41, 64
1, 1734646, Note_off_c, 0, 84, 65
1, 1734661, Note_off_c, 0, 46, 62
1, 1734707, Note_on_c, 0, 34, 96
1, 1734710, Note_on_c, 0, 91, 96
1, 1734719, Note_on_c, 0, 87, 87
1, 1734723, Note_on_c, 0, 81, 68
1, 1734732, Note_on_c, 0, 83, 69
1, 1734750, Note_off_c, 0, 83, 67
1, 1734756, Note_off_c, 0, 81, 61
1, 1734784, Note_on_c, 0, 41, 70
1, 1734795, Note_off_c, 0, 34, 63
1, 1734797, Note_off_c, 0, 91, 61
1, 1734820, Note_off_c, 0, 87, 55
1, 1734828, Note_on_c, 0, 89, 85
1, 1734866, Note_off_c, 0, 89, 66
1, 1734872, Note_on_c, 0, 46, 81
1, 1734890, Note_off_c, 0, 41, 63
1, 1734908, Note_off_c, 0, 46, 60
1, 1734950, Note_on_c, 0, 34, 98
1, 1734950, Note_on_c, 0, 87, 92
1, 1734952, Note_on_c, 0, 89, 89
1, 1734956, Note_on_c, 0, 94, 84
1, 1735005, Note_off_c, 0, 87, 61
1, 1735009, Note_on_c, 0, 46, 72
1, 1735033, Note_off_c, 0, 89, 60
1, 1735054, Note_off_c, 0, 34, 61
1, 1735061, Note_off_c, 0, 94, 63
1, 1735075, Note_off_c, 0, 46, 58
1, 1735086, Note_on_c, 0, 93, 85
1, 1735143, Note_off_c, 0, 93, 64
1, 1735168, Note_on_c, 0, 34, 105
1, 1735168, Note_on_c, 0, 46, 98
1, 1735187, Note_on_c, 0, 86, 97
1, 1735187, Note_on_c, 0, 89, 103
1, 1735187, Note_on_c, 0, 90, 70
1, 1735188, Note_on_c, 0, 94, 109
1, 1735200, Note_off_c, 0, 46, 64
1, 1735200, Note_off_c, 0, 34, 68
1, 1735208, Note_on_c, 0, 95, 74
1, 1735222, Note_off_c, 0, 95, 68
1, 1735231, Note_off_c, 0, 86, 67
1, 1735243, Note_off_c, 0, 90, 54
1, 1735257, Note_off_c, 0, 89, 55
1, 1735267, Note_off_c, 0, 94, 61
1, 1735303, Note_on_c, 0, 89, 36
1, 1735337, Note_off_c, 0, 89, 52
1, 1735390, Control_c, 0, 64, 80
1, 1735405, Control_c, 0, 64, 48
1, 1735419, Control_c, 0, 64, 0
1, 1735723, Note_on_c, 0, 58, 96
1, 1735724, Note_on_c, 0, 86, 106
1, 1735725, Note_on_c, 0, 46, 85
1, 1735725, Note_on_c, 0, 53, 90
1, 1735725, Note_on_c, 0, 98, 101
1, 1735726, Note_on_c, 0, 89, 102
1, 1735726, Note_on_c, 0, 94, 105
1, 1735727, Note_on_c, 0, 50, 83
1, 1735731, Control_c, 0, 64, 45
1, 1735746, Control_c, 0, 64, 127
1, 1735752, Note_on_c, 0, 90, 43
1, 1735752, Note_off_c, 0, 90, 127
1, 1735762, Note_off_c, 0, 58, 66
1, 1735766, Note_off_c, 0, 46, 60
1, 1735779, Note_off_c, 0, 53, 66
1, 1735782, Note_off_c, 0, 50, 68
1, 1735798, Note_off_c, 0, 98, 67
1, 1735802, Note_off_c, 0, 86, 67
1, 1735820, Note_off_c, 0, 89, 66
1, 1735829, Note_off_c, 0, 94, 66
1, 1736109, Control_c, 0, 64, 75
1, 1736123, Control_c, 0, 64, 47
1, 1736138, Control_c, 0, 64, 0
1, 1736515, Note_on_c, 0, 58, 109
1, 1736516, Note_on_c, 0, 46, 94
1, 1736520, Note_on_c, 0, 34, 87
1, 1737034, Note_off_c, 0, 46, 65
1, 1737047, Note_off_c, 0, 34, 64
1, 1737047, Note_off_c, 0, 58, 71
1, 1737047, End_track
0, 0, End_of_file
