0, 0, Header, 0, 1, 384
1, 0, Start_track
1, 0, Title_t, "Nutcracker--K. Krasnitsky       "
1, 0, Text_t, "2006 International Piano-e-Competition Recital Round"
1, 0, Text_t, "St. Paul, Minnesota, July 2006"
1, 0, Text_t, "http://www.piano-e-competition.com/"
1, 0, Instrument_name_t, "Yamaha Disklavier Pro Mark IV concert grand piano"
1, 0, Sequencer_specific, 39, 67, 113, 0, 1, 0, 1, 0, 78, 117, 116, 99, 114, 97, 99, 107, 101, 114, 32, 83, 117, 105, 116, 101, 75, 46, 32, 75, 114, 97, 115, 110, 105, 116, 115, 107, 121, 32, 32, 32
1, 0, Sequencer_specific, 6, 67, 113, 0, 0, 0, 69
1, 0, System_exclusive, 21, 67, 113, 126, 21, 0, 2, 2, 0, 14, 5, 1, 4, 4, 10, 12, 0, 11, 1, 5, 2, 247
1, 0, Sequencer_specific, 5, 67, 123, 12, 2, 1
1, 0, Tempo, 512820
1, 0, Time_signature, 4, 2, 24, 8
1, 0, System_exclusive, 5, 126, 127, 9, 1, 247
1, 1, System_exclusive, 8, 67, 16, 76, 0, 0, 126, 0, 247
1, 2, System_exclusive, 8, 67, 16, 76, 8, 9, 7, 1, 247
1, 3, Control_c, 0, 0, 0
1, 4, Control_c, 0, 32, 0
1, 5, Program_c, 0, 0
1, 6, Control_c, 0, 7, 100
1, 95, Control_c, 0, 64, 15
1, 184, Control_c, 0, 64, 31
1, 273, Control_c, 0, 64, 46
1, 362, Control_c, 0, 64, 63
1, 452, Control_c, 0, 64, 77
1, 541, Control_c, 0, 64, 94
1, 630, Control_c, 0, 64, 108
1, 719, Control_c, 0, 64, 126
1, 904, Note_on_c, 0, 74, 80
1, 909, Note_on_c, 0, 67, 75
1, 910, Note_on_c, 0, 71, 66
1, 934, Note_off_c, 0, 74, 70
1, 939, Note_off_c, 0, 67, 70
1, 943, Note_off_c, 0, 71, 67
1, 946, Control_c, 0, 64, 77
1, 960, Control_c, 0, 64, 55
1, 975, Control_c, 0, 64, 0
1, 1259, Note_on_c, 0, 74, 71
1, 1261, Note_on_c, 0, 71, 63
1, 1269, Note_on_c, 0, 67, 56
1, 1284, Note_off_c, 0, 74, 69
1, 1288, Note_off_c, 0, 71, 66
1, 1290, Note_off_c, 0, 67, 63
1, 1351, Note_on_c, 0, 74, 82
1, 1355, Note_on_c, 0, 67, 70
1, 1357, Note_on_c, 0, 71, 70
1, 1371, Note_off_c, 0, 74, 73
1, 1379, Note_off_c, 0, 67, 69
1, 1381, Note_off_c, 0, 71, 68
1, 1426, Note_on_c, 0, 74, 96
1, 1440, Note_on_c, 0, 67, 77
1, 1456, Note_off_c, 0, 74, 60
1, 1460, Note_off_c, 0, 67, 71
1, 1500, Note_on_c, 0, 64, 74
1, 1510, Note_on_c, 0, 76, 91
1, 1512, Note_on_c, 0, 71, 44
1, 1523, Note_on_c, 0, 67, 70
1, 1524, Note_off_c, 0, 64, 71
1, 1539, Note_off_c, 0, 71, 54
1, 1541, Note_off_c, 0, 67, 67
1, 1542, Note_off_c, 0, 76, 62
1, 1820, Note_on_c, 0, 76, 83
1, 1825, Note_on_c, 0, 67, 75
1, 1827, Note_on_c, 0, 64, 61
1, 1828, Note_on_c, 0, 71, 60
1, 1841, Note_off_c, 0, 76, 69
1, 1847, Note_off_c, 0, 71, 63
1, 1849, Note_off_c, 0, 67, 68
1, 1852, Note_off_c, 0, 64, 65
1, 2123, Note_on_c, 0, 78, 85
1, 2124, Note_on_c, 0, 71, 73
1, 2127, Note_on_c, 0, 66, 83
1, 2131, Note_on_c, 0, 62, 58
1, 2135, Note_on_c, 0, 59, 48
1, 2145, Note_off_c, 0, 71, 70
1, 2147, Note_off_c, 0, 66, 71
1, 2159, Note_off_c, 0, 62, 65
1, 2161, Note_off_c, 0, 59, 57
1, 2166, Note_off_c, 0, 78, 60
1, 2442, Note_on_c, 0, 74, 71
1, 2448, Note_on_c, 0, 71, 62
1, 2453, Note_on_c, 0, 67, 58
1, 2466, Note_off_c, 0, 74, 70
1, 2473, Note_off_c, 0, 71, 64
1, 2474, Note_off_c, 0, 67, 61
1, 2754, Note_on_c, 0, 76, 82
1, 2759, Note_on_c, 0, 71, 71
1, 2767, Note_on_c, 0, 67, 68
1, 2769, Note_on_c, 0, 64, 59
1, 2769, Control_c, 0, 64, 56
1, 2784, Control_c, 0, 64, 73
1, 2799, Control_c, 0, 64, 86
1, 2814, Control_c, 0, 64, 108
1, 2828, Control_c, 0, 64, 127
1, 3038, Note_off_c, 0, 76, 60
1, 3043, Note_off_c, 0, 64, 61
1, 3057, Note_off_c, 0, 71, 58
1, 3065, Note_off_c, 0, 67, 46
1, 3400, Note_on_c, 0, 71, 76
1, 3405, Note_on_c, 0, 74, 76
1, 3406, Note_on_c, 0, 67, 75
1, 3414, Control_c, 0, 64, 104
1, 3422, Note_off_c, 0, 71, 69
1, 3426, Note_off_c, 0, 67, 71
1, 3427, Note_off_c, 0, 74, 70
1, 3429, Control_c, 0, 64, 74
1, 3443, Control_c, 0, 64, 52
1, 3458, Control_c, 0, 64, 0
1, 3753, Note_on_c, 0, 71, 67
1, 3761, Note_on_c, 0, 74, 63
1, 3762, Note_on_c, 0, 67, 63
1, 3777, Note_off_c, 0, 71, 67
1, 3778, Note_off_c, 0, 74, 64
1, 3788, Note_off_c, 0, 67, 67
1, 3840, Note_on_c, 0, 74, 87
1, 3848, Note_on_c, 0, 71, 78
1, 3849, Note_on_c, 0, 67, 76
1, 3862, Note_off_c, 0, 74, 65
1, 3870, Note_off_c, 0, 67, 71
1, 3870, Note_off_c, 0, 71, 67
1, 3921, Note_on_c, 0, 74, 98
1, 3940, Note_on_c, 0, 67, 77
1, 3940, Control_c, 0, 67, 114
1, 3955, Note_on_c, 0, 71, 61
1, 3955, Control_c, 0, 67, 91
1, 3960, Note_off_c, 0, 67, 72
1, 3962, Note_off_c, 0, 74, 63
1, 3970, Control_c, 0, 67, 61
1, 3974, Note_off_c, 0, 71, 62
1, 3984, Control_c, 0, 67, 40
1, 3999, Control_c, 0, 67, 0
1, 4005, Note_on_c, 0, 64, 72
1, 4009, Note_on_c, 0, 76, 97
1, 4013, Note_on_c, 0, 67, 95
1, 4013, Note_on_c, 0, 71, 61
1, 4028, Note_off_c, 0, 67, 75
1, 4031, Note_off_c, 0, 64, 68
1, 4034, Note_off_c, 0, 71, 62
1, 4049, Note_off_c, 0, 76, 64
1, 4177, Control_c, 0, 67, 34
1, 4237, Control_c, 0, 67, 36
1, 4251, Control_c, 0, 67, 39
1, 4325, Note_on_c, 0, 76, 80
1, 4326, Control_c, 0, 67, 40
1, 4332, Note_on_c, 0, 67, 68
1, 4332, Note_on_c, 0, 71, 67
1, 4337, Note_on_c, 0, 64, 59
1, 4346, Note_off_c, 0, 76, 68
1, 4351, Note_off_c, 0, 67, 66
1, 4353, Note_off_c, 0, 71, 64
1, 4358, Note_off_c, 0, 64, 65
1, 4400, Control_c, 0, 67, 41
1, 4607, Control_c, 0, 67, 42
1, 4616, Note_on_c, 0, 78, 82
1, 4618, Note_on_c, 0, 71, 74
1, 4622, Control_c, 0, 67, 44
1, 4624, Note_on_c, 0, 66, 76
1, 4626, Note_on_c, 0, 59, 55
1, 4630, Note_on_c, 0, 62, 57
1, 4641, Note_off_c, 0, 71, 69
1, 4648, Note_off_c, 0, 66, 70
1, 4649, Note_off_c, 0, 59, 59
1, 4659, Note_off_c, 0, 62, 65
1, 4663, Note_off_c, 0, 78, 59
1, 4689, Control_c, 0, 67, 45
1, 4704, Control_c, 0, 67, 45
1, 4763, Control_c, 0, 67, 45
1, 4778, Control_c, 0, 67, 45
1, 4852, Control_c, 0, 67, 46
1, 4867, Control_c, 0, 67, 47
1, 4925, Control_c, 0, 67, 48
1, 4929, Note_on_c, 0, 74, 75
1, 4934, Note_on_c, 0, 71, 68
1, 4940, Control_c, 0, 67, 49
1, 4943, Note_on_c, 0, 67, 55
1, 4955, Note_off_c, 0, 74, 65
1, 4963, Note_off_c, 0, 71, 64
1, 4966, Note_off_c, 0, 67, 59
1, 4970, Control_c, 0, 67, 50
1, 4985, Control_c, 0, 67, 51
1, 5000, Control_c, 0, 67, 54
1, 5059, Control_c, 0, 67, 55
1, 5074, Control_c, 0, 67, 57
1, 5149, Control_c, 0, 67, 58
1, 5164, Control_c, 0, 67, 58
1, 5223, Control_c, 0, 67, 61
1, 5237, Note_on_c, 0, 76, 81
1, 5238, Control_c, 0, 64, 52
1, 5238, Control_c, 0, 67, 78
1, 5243, Note_on_c, 0, 71, 67
1, 5246, Note_on_c, 0, 67, 71
1, 5253, Control_c, 0, 64, 79
1, 5253, Control_c, 0, 67, 104
1, 5256, Note_on_c, 0, 64, 47
1, 5268, Control_c, 0, 64, 127
1, 5268, Control_c, 0, 67, 126
1, 5269, Note_off_c, 0, 67, 68
1, 5269, Note_off_c, 0, 71, 66
1, 5283, Note_off_c, 0, 64, 57
1, 5298, Note_off_c, 0, 76, 65
1, 5645, Control_c, 0, 64, 80
1, 5660, Control_c, 0, 64, 58
1, 5674, Control_c, 0, 64, 0
1, 5869, Note_on_c, 0, 64, 52
1, 5966, Note_on_c, 0, 72, 67
1, 5980, Note_on_c, 0, 33, 47
1, 5980, Note_on_c, 0, 45, 48
1, 5993, Note_off_c, 0, 72, 63
1, 6010, Note_off_c, 0, 45, 49
1, 6014, Note_off_c, 0, 33, 47
1, 6137, Note_on_c, 0, 32, 51
1, 6154, Note_on_c, 0, 44, 14
1, 6177, Note_off_c, 0, 32, 52
1, 6207, Note_off_c, 0, 44, 29
1, 6214, Note_on_c, 0, 74, 60
1, 6255, Note_off_c, 0, 74, 62
1, 6274, Note_on_c, 0, 33, 53
1, 6275, Note_on_c, 0, 72, 62
1, 6285, Note_on_c, 0, 45, 45
1, 6304, Note_off_c, 0, 33, 51
1, 6309, Note_off_c, 0, 72, 59
1, 6316, Note_off_c, 0, 45, 47
1, 6419, Note_on_c, 0, 35, 45
1, 6425, Note_on_c, 0, 47, 43
1, 6452, Note_off_c, 0, 35, 46
1, 6458, Note_off_c, 0, 47, 48
1, 6484, Note_on_c, 0, 71, 57
1, 6525, Note_off_c, 0, 71, 58
1, 6543, Note_on_c, 0, 36, 51
1, 6547, Note_on_c, 0, 48, 59
1, 6555, Note_on_c, 0, 69, 61
1, 6572, Note_off_c, 0, 36, 55
1, 6577, Note_off_c, 0, 48, 64
1, 6586, Note_off_c, 0, 69, 64
1, 6687, Note_on_c, 0, 37, 51
1, 6699, Note_on_c, 0, 49, 35
1, 6719, Note_off_c, 0, 37, 56
1, 6731, Note_off_c, 0, 49, 51
1, 6735, Note_off_c, 0, 64, 57
1, 6763, Note_on_c, 0, 67, 57
1, 6802, Note_off_c, 0, 67, 64
1, 6813, Note_on_c, 0, 66, 69
1, 6815, Note_on_c, 0, 38, 54
1, 6821, Note_on_c, 0, 50, 32
1, 6839, Note_on_c, 0, 57, 45
1, 6842, Note_off_c, 0, 66, 67
1, 6846, Note_off_c, 0, 38, 61
1, 6859, Note_off_c, 0, 50, 54
1, 6866, Note_off_c, 0, 57, 56
1, 6966, Note_on_c, 0, 30, 54
1, 6992, Note_on_c, 0, 42, 28
1, 6999, Note_off_c, 0, 30, 61
1, 7033, Note_off_c, 0, 42, 43
1, 7042, Note_on_c, 0, 62, 57
1, 7098, Note_on_c, 0, 31, 53
1, 7106, Note_on_c, 0, 43, 46
1, 7109, Note_on_c, 0, 71, 67
1, 7130, Note_off_c, 0, 31, 62
1, 7136, Note_off_c, 0, 43, 49
1, 7143, Note_off_c, 0, 71, 60
1, 7230, Note_on_c, 0, 30, 58
1, 7238, Note_on_c, 0, 42, 50
1, 7264, Note_off_c, 0, 30, 63
1, 7268, Note_off_c, 0, 42, 57
1, 7329, Note_on_c, 0, 72, 61
1, 7367, Note_on_c, 0, 31, 49
1, 7370, Note_off_c, 0, 72, 61
1, 7374, Note_on_c, 0, 43, 50
1, 7390, Note_on_c, 0, 71, 59
1, 7397, Note_off_c, 0, 31, 58
1, 7400, Note_off_c, 0, 43, 59
1, 7427, Note_off_c, 0, 71, 60
1, 7506, Note_on_c, 0, 33, 52
1, 7510, Note_on_c, 0, 45, 50
1, 7537, Note_off_c, 0, 33, 52
1, 7537, Note_off_c, 0, 45, 58
1, 7582, Note_on_c, 0, 69, 55
1, 7620, Note_off_c, 0, 69, 62
1, 7638, Note_on_c, 0, 34, 54
1, 7643, Note_on_c, 0, 46, 49
1, 7643, Note_on_c, 0, 67, 61
1, 7676, Note_off_c, 0, 34, 60
1, 7679, Note_off_c, 0, 46, 59
1, 7683, Note_off_c, 0, 67, 66
1, 7770, Note_on_c, 0, 35, 53
1, 7774, Note_on_c, 0, 47, 50
1, 7799, Note_off_c, 0, 35, 56
1, 7803, Note_off_c, 0, 47, 59
1, 7824, Note_off_c, 0, 62, 48
1, 7841, Note_on_c, 0, 66, 67
1, 7888, Note_on_c, 0, 48, 66
1, 7888, Note_on_c, 0, 36, 62
1, 7903, Note_on_c, 0, 64, 75
1, 7909, Note_on_c, 0, 55, 73
1, 7918, Note_off_c, 0, 48, 65
1, 7921, Note_off_c, 0, 36, 65
1, 7925, Note_off_c, 0, 66, 60
1, 7935, Note_off_c, 0, 55, 65
1, 7945, Note_off_c, 0, 64, 64
1, 8033, Note_on_c, 0, 28, 72
1, 8046, Note_on_c, 0, 40, 47
1, 8061, Note_off_c, 0, 28, 62
1, 8076, Note_off_c, 0, 40, 49
1, 8115, Note_on_c, 0, 67, 69
1, 8173, Note_on_c, 0, 66, 74
1, 8177, Note_on_c, 0, 60, 65
1, 8182, Note_on_c, 0, 33, 53
1, 8184, Note_on_c, 0, 45, 48
1, 8200, Note_off_c, 0, 67, 56
1, 8212, Note_off_c, 0, 33, 53
1, 8213, Note_off_c, 0, 45, 58
1, 8267, Note_off_c, 0, 66, 60
1, 8330, Note_on_c, 0, 34, 64
1, 8338, Note_on_c, 0, 46, 51
1, 8364, Note_off_c, 0, 34, 65
1, 8367, Note_off_c, 0, 46, 60
1, 8383, Note_off_c, 0, 60, 63
1, 8409, Note_on_c, 0, 64, 61
1, 8446, Note_off_c, 0, 64, 66
1, 8469, Note_on_c, 0, 63, 74
1, 8471, Note_on_c, 0, 35, 55
1, 8473, Note_on_c, 0, 47, 57
1, 8480, Note_on_c, 0, 54, 80
1, 8498, Note_off_c, 0, 35, 58
1, 8502, Note_off_c, 0, 54, 69
1, 8504, Note_off_c, 0, 47, 65
1, 8505, Note_off_c, 0, 63, 63
1, 8537, Control_c, 0, 67, 122
1, 8552, Control_c, 0, 67, 110
1, 8567, Control_c, 0, 67, 104
1, 8581, Control_c, 0, 67, 97
1, 8596, Control_c, 0, 67, 91
1, 8602, Note_on_c, 0, 36, 61
1, 8609, Note_on_c, 0, 48, 60
1, 8611, Control_c, 0, 67, 88
1, 8626, Control_c, 0, 67, 87
1, 8630, Note_off_c, 0, 36, 64
1, 8639, Note_off_c, 0, 48, 64
1, 8655, Control_c, 0, 67, 87
1, 8670, Control_c, 0, 67, 86
1, 8682, Note_on_c, 0, 69, 74
1, 8736, Note_on_c, 0, 67, 87
1, 8744, Note_on_c, 0, 57, 81
1, 8744, Note_on_c, 0, 59, 80
1, 8747, Note_on_c, 0, 49, 71
1, 8753, Note_on_c, 0, 37, 60
1, 8766, Note_off_c, 0, 69, 64
1, 8774, Note_off_c, 0, 49, 65
1, 8782, Note_off_c, 0, 37, 57
1, 8789, Control_c, 0, 67, 85
1, 8804, Control_c, 0, 67, 84
1, 8815, Note_off_c, 0, 67, 55
1, 8866, Note_on_c, 0, 39, 66
1, 8869, Note_on_c, 0, 51, 67
1, 8878, Control_c, 0, 67, 84
1, 8892, Control_c, 0, 67, 83
1, 8899, Note_off_c, 0, 39, 64
1, 8902, Note_off_c, 0, 59, 57
1, 8905, Note_off_c, 0, 51, 60
1, 8914, Note_off_c, 0, 57, 60
1, 8951, Note_on_c, 0, 66, 76
1, 8981, Control_c, 0, 67, 82
1, 8994, Note_on_c, 0, 52, 70
1, 8996, Note_on_c, 0, 40, 63
1, 8996, Note_on_c, 0, 67, 29
1, 8996, Control_c, 0, 67, 82
1, 9008, Note_on_c, 0, 55, 68
1, 9011, Note_off_c, 0, 66, 61
1, 9011, Control_c, 0, 67, 79
1, 9021, Note_on_c, 0, 64, 62
1, 9025, Control_c, 0, 67, 78
1, 9026, Note_off_c, 0, 40, 64
1, 9026, Note_off_c, 0, 52, 66
1, 9030, Note_off_c, 0, 67, 50
1, 9033, Note_off_c, 0, 55, 65
1, 9035, Note_on_c, 0, 57, 44
1, 9040, Control_c, 0, 67, 68
1, 9043, Note_on_c, 0, 65, 35
1, 9043, Note_off_c, 0, 64, 61
1, 9045, Note_off_c, 0, 57, 45
1, 9055, Control_c, 0, 67, 60
1, 9070, Control_c, 0, 67, 57
1, 9075, Note_off_c, 0, 65, 33
1, 9085, Control_c, 0, 67, 53
1, 9101, Control_c, 0, 67, 48
1, 9115, Control_c, 0, 67, 46
1, 9131, Note_on_c, 0, 55, 54
1, 9134, Note_on_c, 0, 43, 65
1, 9145, Control_c, 0, 67, 45
1, 9160, Control_c, 0, 67, 44
1, 9161, Note_off_c, 0, 43, 64
1, 9179, Note_off_c, 0, 55, 64
1, 9182, Control_c, 0, 67, 43
1, 9197, Control_c, 0, 67, 42
1, 9212, Control_c, 0, 67, 42
1, 9220, Note_on_c, 0, 71, 83
1, 9227, Control_c, 0, 67, 39
1, 9242, Control_c, 0, 67, 0
1, 9266, Note_on_c, 0, 57, 73
1, 9268, Note_on_c, 0, 45, 69
1, 9269, Note_on_c, 0, 64, 82
1, 9280, Note_on_c, 0, 72, 87
1, 9290, Note_off_c, 0, 71, 63
1, 9292, Note_off_c, 0, 45, 66
1, 9298, Note_off_c, 0, 57, 65
1, 9346, Note_off_c, 0, 72, 61
1, 9408, Note_on_c, 0, 59, 68
1, 9410, Note_on_c, 0, 47, 67
1, 9440, Note_off_c, 0, 47, 64
1, 9445, Note_off_c, 0, 59, 65
1, 9468, Note_on_c, 0, 71, 85
1, 9534, Note_on_c, 0, 60, 79
1, 9536, Note_on_c, 0, 48, 79
1, 9540, Note_on_c, 0, 69, 86
1, 9558, Note_off_c, 0, 71, 56
1, 9571, Note_off_c, 0, 48, 66
1, 9575, Note_off_c, 0, 60, 64
1, 9593, Note_off_c, 0, 69, 64
1, 9671, Note_on_c, 0, 49, 66
1, 9674, Note_on_c, 0, 61, 76
1, 9718, Note_off_c, 0, 49, 58
1, 9727, Note_off_c, 0, 61, 50
1, 9728, Note_on_c, 0, 67, 82
1, 9751, Note_off_c, 0, 64, 58
1, 9761, Note_off_c, 0, 67, 66
1, 9790, Control_c, 0, 64, 31
1, 9799, Note_on_c, 0, 54, 80
1, 9801, Note_on_c, 0, 62, 95
1, 9804, Note_on_c, 0, 57, 84
1, 9804, Note_on_c, 0, 74, 103
1, 9805, Control_c, 0, 64, 78
1, 9805, Note_on_c, 0, 50, 84
1, 9805, Note_on_c, 0, 66, 95
1, 9820, Control_c, 0, 64, 127
1, 9824, Note_off_c, 0, 66, 73
1, 9835, Note_off_c, 0, 50, 67
1, 9838, Note_off_c, 0, 57, 65
1, 9840, Note_off_c, 0, 62, 65
1, 9841, Note_off_c, 0, 74, 69
1, 9858, Note_off_c, 0, 54, 64
1, 10023, Note_on_c, 0, 68, 51
1, 10038, Note_on_c, 0, 93, 75
1, 10054, Note_off_c, 0, 68, 64
1, 10070, Note_off_c, 0, 93, 65
1, 10072, Note_on_c, 0, 95, 72
1, 10096, Note_on_c, 0, 97, 101
1, 10110, Note_on_c, 0, 66, 86
1, 10110, Note_on_c, 0, 74, 100
1, 10112, Note_on_c, 0, 69, 89
1, 10115, Note_on_c, 0, 98, 98
1, 10121, Note_on_c, 0, 90, 107
1, 10121, Note_on_c, 0, 62, 72
1, 10123, Note_on_c, 0, 60, 71
1, 10136, Note_off_c, 0, 95, 62
1, 10139, Note_off_c, 0, 74, 71
1, 10143, Note_off_c, 0, 97, 62
1, 10144, Note_off_c, 0, 62, 67
1, 10145, Note_off_c, 0, 60, 66
1, 10145, Note_off_c, 0, 90, 70
1, 10146, Note_off_c, 0, 69, 66
1, 10148, Note_off_c, 0, 98, 67
1, 10154, Note_off_c, 0, 66, 65
1, 10161, Note_on_c, 0, 70, 17
1, 10161, Note_off_c, 0, 70, 127
1, 10272, Control_c, 0, 64, 107
1, 10287, Control_c, 0, 64, 70
1, 10302, Control_c, 0, 64, 39
1, 10317, Control_c, 0, 64, 0
1, 10391, Control_c, 0, 67, 40
1, 10406, Control_c, 0, 67, 81
1, 10420, Control_c, 0, 67, 121
1, 10435, Control_c, 0, 67, 127
1, 10549, Note_on_c, 0, 74, 56
1, 10552, Note_on_c, 0, 71, 63
1, 10553, Note_on_c, 0, 67, 61
1, 10571, Note_off_c, 0, 74, 58
1, 10573, Note_off_c, 0, 67, 64
1, 10581, Note_off_c, 0, 71, 66
1, 10897, Note_on_c, 0, 74, 65
1, 10902, Note_on_c, 0, 71, 65
1, 10908, Note_on_c, 0, 67, 48
1, 10917, Note_off_c, 0, 74, 65
1, 10929, Note_off_c, 0, 71, 67
1, 10933, Note_off_c, 0, 67, 58
1, 10982, Note_on_c, 0, 74, 76
1, 10998, Note_on_c, 0, 71, 71
1, 11003, Note_off_c, 0, 74, 72
1, 11009, Note_on_c, 0, 67, 49
1, 11022, Note_off_c, 0, 71, 68
1, 11035, Note_off_c, 0, 67, 59
1, 11066, Note_on_c, 0, 74, 91
1, 11081, Note_on_c, 0, 67, 63
1, 11090, Note_off_c, 0, 74, 65
1, 11097, Note_on_c, 0, 71, 60
1, 11100, Note_off_c, 0, 67, 66
1, 11116, Note_off_c, 0, 71, 63
1, 11150, Note_on_c, 0, 76, 97
1, 11152, Note_on_c, 0, 64, 70
1, 11154, Note_on_c, 0, 67, 84
1, 11158, Note_on_c, 0, 71, 57
1, 11172, Note_off_c, 0, 67, 74
1, 11176, Note_off_c, 0, 64, 68
1, 11178, Note_off_c, 0, 71, 60
1, 11179, Note_off_c, 0, 76, 64
1, 11483, Note_on_c, 0, 76, 73
1, 11485, Note_on_c, 0, 71, 70
1, 11490, Note_on_c, 0, 64, 63
1, 11507, Note_off_c, 0, 76, 70
1, 11509, Note_off_c, 0, 71, 69
1, 11518, Note_off_c, 0, 64, 67
1, 11525, Note_on_c, 0, 67, 6
1, 11574, Note_off_c, 0, 67, 28
1, 11781, Note_on_c, 0, 78, 76
1, 11786, Note_on_c, 0, 71, 68
1, 11790, Note_on_c, 0, 59, 57
1, 11792, Note_on_c, 0, 62, 60
1, 11793, Note_on_c, 0, 66, 63
1, 11803, Note_off_c, 0, 71, 65
1, 11811, Note_off_c, 0, 59, 61
1, 11811, Note_off_c, 0, 66, 64
1, 11817, Note_off_c, 0, 78, 61
1, 11820, Note_off_c, 0, 62, 65
1, 12094, Note_on_c, 0, 74, 73
1, 12097, Note_on_c, 0, 71, 72
1, 12102, Note_on_c, 0, 67, 65
1, 12115, Note_off_c, 0, 74, 70
1, 12118, Note_off_c, 0, 71, 69
1, 12125, Note_off_c, 0, 67, 65
1, 12421, Note_on_c, 0, 76, 90
1, 12426, Note_on_c, 0, 71, 79
1, 12431, Note_on_c, 0, 64, 70
1, 12435, Note_on_c, 0, 67, 76
1, 12444, Control_c, 0, 64, 46
1, 12459, Control_c, 0, 64, 62
1, 12473, Control_c, 0, 64, 70
1, 12489, Control_c, 0, 64, 77
1, 12504, Control_c, 0, 64, 86
1, 12519, Control_c, 0, 64, 100
1, 12534, Control_c, 0, 64, 127
1, 12753, Note_off_c, 0, 67, 62
1, 12759, Note_off_c, 0, 76, 61
1, 12776, Note_off_c, 0, 71, 61
1, 12777, Note_off_c, 0, 64, 62
1, 13074, Note_on_c, 0, 74, 79
1, 13079, Note_on_c, 0, 71, 75
1, 13081, Note_on_c, 0, 67, 74
1, 13090, Control_c, 0, 64, 87
1, 13097, Note_off_c, 0, 74, 69
1, 13103, Note_off_c, 0, 71, 68
1, 13105, Control_c, 0, 64, 62
1, 13107, Note_off_c, 0, 67, 67
1, 13120, Control_c, 0, 64, 0
1, 13436, Note_on_c, 0, 74, 72
1, 13439, Note_on_c, 0, 71, 64
1, 13441, Note_on_c, 0, 67, 64
1, 13459, Note_off_c, 0, 74, 70
1, 13467, Note_off_c, 0, 71, 66
1, 13469, Note_off_c, 0, 67, 67
1, 13532, Note_on_c, 0, 74, 75
1, 13536, Note_on_c, 0, 71, 72
1, 13537, Note_on_c, 0, 67, 62
1, 13555, Note_off_c, 0, 74, 70
1, 13558, Note_off_c, 0, 67, 65
1, 13559, Note_off_c, 0, 71, 68
1, 13606, Note_on_c, 0, 74, 93
1, 13616, Note_on_c, 0, 67, 76
1, 13630, Note_off_c, 0, 74, 65
1, 13639, Note_off_c, 0, 67, 71
1, 13648, Note_on_c, 0, 71, 47
1, 13653, Control_c, 0, 67, 114
1, 13675, Control_c, 0, 67, 73
1, 13685, Note_off_c, 0, 71, 0
1, 13685, Note_on_c, 0, 71, 30
1, 13687, Note_on_c, 0, 64, 82
1, 13689, Note_on_c, 0, 76, 92
1, 13690, Control_c, 0, 67, 48
1, 13695, Note_on_c, 0, 67, 75
1, 13704, Control_c, 0, 67, 40
1, 13707, Note_off_c, 0, 64, 72
1, 13710, Note_off_c, 0, 71, 57
1, 13715, Note_off_c, 0, 67, 67
1, 13719, Note_off_c, 0, 76, 63
1, 13719, Control_c, 0, 67, 40
1, 13734, Control_c, 0, 67, 41
1, 13794, Control_c, 0, 67, 44
1, 13808, Control_c, 0, 67, 45
1, 13868, Control_c, 0, 67, 47
1, 13883, Control_c, 0, 67, 50
1, 13958, Control_c, 0, 67, 51
1, 14014, Note_on_c, 0, 76, 73
1, 14017, Control_c, 0, 67, 54
1, 14017, Note_on_c, 0, 71, 68
1, 14022, Note_on_c, 0, 64, 60
1, 14032, Note_on_c, 0, 67, 47
1, 14032, Control_c, 0, 67, 59
1, 14036, Note_off_c, 0, 76, 70
1, 14037, Note_off_c, 0, 71, 65
1, 14042, Note_off_c, 0, 64, 65
1, 14059, Note_off_c, 0, 67, 34
1, 14091, Control_c, 0, 67, 60
1, 14106, Control_c, 0, 67, 64
1, 14120, Control_c, 0, 67, 64
1, 14135, Control_c, 0, 67, 65
1, 14165, Control_c, 0, 67, 65
1, 14180, Control_c, 0, 67, 68
1, 14209, Control_c, 0, 67, 67
1, 14224, Control_c, 0, 67, 66
1, 14253, Control_c, 0, 67, 67
1, 14268, Control_c, 0, 67, 69
1, 14312, Note_on_c, 0, 71, 71
1, 14313, Note_on_c, 0, 59, 62
1, 14314, Note_on_c, 0, 78, 74
1, 14317, Note_on_c, 0, 66, 72
1, 14325, Note_on_c, 0, 62, 58
1, 14327, Control_c, 0, 67, 72
1, 14336, Note_off_c, 0, 71, 68
1, 14342, Note_off_c, 0, 59, 65
1, 14342, Note_off_c, 0, 66, 69
1, 14342, Control_c, 0, 67, 81
1, 14348, Note_off_c, 0, 78, 56
1, 14353, Note_off_c, 0, 62, 65
1, 14357, Control_c, 0, 67, 87
1, 14402, Control_c, 0, 67, 88
1, 14424, Control_c, 0, 67, 89
1, 14453, Control_c, 0, 67, 88
1, 14483, Control_c, 0, 67, 89
1, 14498, Control_c, 0, 67, 91
1, 14527, Control_c, 0, 67, 90
1, 14572, Control_c, 0, 67, 91
1, 14586, Control_c, 0, 67, 92
1, 14620, Note_on_c, 0, 74, 70
1, 14631, Note_on_c, 0, 67, 61
1, 14631, Control_c, 0, 67, 92
1, 14632, Note_on_c, 0, 71, 63
1, 14646, Note_off_c, 0, 74, 67
1, 14646, Control_c, 0, 67, 95
1, 14652, Note_off_c, 0, 67, 65
1, 14658, Note_off_c, 0, 71, 64
1, 14661, Control_c, 0, 67, 109
1, 14676, Control_c, 0, 67, 125
1, 14691, Control_c, 0, 67, 127
1, 14927, Control_c, 0, 64, 36
1, 14929, Note_on_c, 0, 76, 79
1, 14934, Note_on_c, 0, 71, 66
1, 14940, Note_on_c, 0, 64, 54
1, 14942, Control_c, 0, 64, 64
1, 14944, Note_on_c, 0, 67, 64
1, 14957, Control_c, 0, 64, 88
1, 14961, Note_off_c, 0, 71, 66
1, 14964, Note_off_c, 0, 64, 63
1, 14965, Note_off_c, 0, 67, 65
1, 14972, Control_c, 0, 64, 127
1, 14980, Note_off_c, 0, 76, 65
1, 15320, Control_c, 0, 64, 103
1, 15335, Control_c, 0, 64, 72
1, 15350, Control_c, 0, 64, 40
1, 15364, Control_c, 0, 64, 0
1, 15549, Note_on_c, 0, 64, 52
1, 15643, Note_on_c, 0, 72, 63
1, 15653, Note_on_c, 0, 45, 38
1, 15657, Note_on_c, 0, 33, 34
1, 15669, Note_off_c, 0, 72, 67
1, 15690, Note_off_c, 0, 45, 32
1, 15697, Note_off_c, 0, 33, 46
1, 15809, Note_on_c, 0, 32, 42
1, 15847, Note_off_c, 0, 32, 47
1, 15889, Note_on_c, 0, 74, 65
1, 15931, Note_off_c, 0, 74, 64
1, 15937, Note_on_c, 0, 33, 53
1, 15947, Note_on_c, 0, 72, 61
1, 15955, Note_on_c, 0, 45, 33
1, 15967, Note_off_c, 0, 33, 52
1, 15978, Note_off_c, 0, 72, 62
1, 15993, Note_off_c, 0, 45, 41
1, 16083, Note_on_c, 0, 35, 44
1, 16086, Note_on_c, 0, 47, 45
1, 16116, Note_off_c, 0, 35, 45
1, 16117, Note_off_c, 0, 47, 51
1, 16144, Note_on_c, 0, 71, 60
1, 16187, Note_off_c, 0, 71, 57
1, 16207, Note_on_c, 0, 36, 61
1, 16210, Note_on_c, 0, 48, 64
1, 16217, Note_on_c, 0, 69, 62
1, 16239, Note_off_c, 0, 48, 65
1, 16239, Note_off_c, 0, 36, 61
1, 16259, Note_off_c, 0, 69, 61
1, 16355, Note_on_c, 0, 37, 56
1, 16384, Note_on_c, 0, 49, 17
1, 16387, Note_off_c, 0, 37, 63
1, 16398, Note_off_c, 0, 64, 58
1, 16428, Note_off_c, 0, 49, 42
1, 16436, Note_on_c, 0, 67, 50
1, 16478, Note_off_c, 0, 67, 64
1, 16479, Note_on_c, 0, 66, 78
1, 16485, Note_on_c, 0, 50, 64
1, 16486, Note_on_c, 0, 38, 61
1, 16499, Note_on_c, 0, 57, 55
1, 16515, Note_off_c, 0, 50, 65
1, 16517, Note_off_c, 0, 66, 62
1, 16518, Note_off_c, 0, 38, 64
1, 16521, Note_off_c, 0, 57, 59
1, 16636, Note_on_c, 0, 36, 63
1, 16645, Note_on_c, 0, 48, 51
1, 16675, Note_off_c, 0, 36, 62
1, 16684, Note_off_c, 0, 48, 50
1, 16714, Note_on_c, 0, 69, 60
1, 16773, Note_on_c, 0, 74, 70
1, 16777, Note_off_c, 0, 69, 61
1, 16778, Note_on_c, 0, 35, 61
1, 16782, Note_on_c, 0, 47, 58
1, 16784, Note_on_c, 0, 66, 83
1, 16810, Note_off_c, 0, 35, 64
1, 16812, Note_off_c, 0, 47, 64
1, 16825, Note_off_c, 0, 74, 62
1, 16930, Note_on_c, 0, 34, 59
1, 16947, Note_on_c, 0, 46, 32
1, 16961, Note_off_c, 0, 34, 62
1, 16986, Note_off_c, 0, 46, 44
1, 16995, Note_on_c, 0, 76, 64
1, 17062, Note_off_c, 0, 76, 61
1, 17069, Note_on_c, 0, 74, 70
1, 17070, Note_on_c, 0, 35, 57
1, 17070, Note_on_c, 0, 47, 58
1, 17099, Note_off_c, 0, 35, 61
1, 17103, Note_off_c, 0, 47, 65
1, 17107, Note_off_c, 0, 74, 56
1, 17211, Note_on_c, 0, 36, 60
1, 17213, Note_on_c, 0, 48, 62
1, 17243, Note_off_c, 0, 36, 63
1, 17245, Note_off_c, 0, 48, 63
1, 17272, Note_on_c, 0, 72, 69
1, 17335, Note_off_c, 0, 72, 59
1, 17343, Note_on_c, 0, 50, 60
1, 17347, Note_on_c, 0, 38, 54
1, 17359, Note_on_c, 0, 71, 72
1, 17371, Note_off_c, 0, 50, 65
1, 17377, Note_off_c, 0, 38, 56
1, 17416, Note_off_c, 0, 71, 57
1, 17489, Note_on_c, 0, 39, 60
1, 17496, Note_on_c, 0, 51, 51
1, 17499, Note_off_c, 0, 66, 63
1, 17520, Note_off_c, 0, 39, 63
1, 17525, Note_off_c, 0, 51, 58
1, 17573, Note_on_c, 0, 69, 51
1, 17609, Note_off_c, 0, 69, 65
1, 17615, Note_on_c, 0, 67, 75
1, 17617, Note_on_c, 0, 52, 62
1, 17620, Note_on_c, 0, 40, 61
1, 17643, Note_on_c, 0, 59, 53
1, 17647, Note_off_c, 0, 52, 65
1, 17650, Note_off_c, 0, 40, 64
1, 17653, Note_off_c, 0, 67, 65
1, 17666, Note_off_c, 0, 59, 60
1, 17756, Note_on_c, 0, 38, 67
1, 17758, Note_on_c, 0, 50, 59
1, 17785, Note_off_c, 0, 38, 64
1, 17787, Note_off_c, 0, 50, 65
1, 17831, Note_on_c, 0, 71, 65
1, 17859, Note_off_c, 0, 71, 64
1, 17883, Note_on_c, 0, 76, 90
1, 17888, Note_on_c, 0, 67, 77
1, 17889, Note_on_c, 0, 36, 75
1, 17889, Note_on_c, 0, 48, 77
1, 17909, Note_off_c, 0, 67, 71
1, 17922, Note_off_c, 0, 36, 60
1, 17922, Note_off_c, 0, 48, 64
1, 17927, Note_off_c, 0, 76, 66
1, 18035, Note_on_c, 0, 35, 66
1, 18036, Note_on_c, 0, 47, 65
1, 18065, Note_off_c, 0, 35, 63
1, 18067, Note_off_c, 0, 47, 65
1, 18104, Note_on_c, 0, 74, 77
1, 18167, Note_on_c, 0, 72, 97
1, 18185, Note_on_c, 0, 69, 74
1, 18186, Note_on_c, 0, 33, 77
1, 18187, Note_off_c, 0, 74, 62
1, 18193, Note_on_c, 0, 45, 61
1, 18217, Note_off_c, 0, 33, 62
1, 18220, Note_off_c, 0, 45, 63
1, 18315, Note_on_c, 0, 36, 73
1, 18316, Note_on_c, 0, 48, 81
1, 18344, Note_off_c, 0, 36, 63
1, 18352, Note_off_c, 0, 48, 63
1, 18387, Note_on_c, 0, 76, 79
1, 18392, Note_off_c, 0, 72, 54
1, 18451, Note_on_c, 0, 50, 78
1, 18452, Note_on_c, 0, 38, 79
1, 18453, Note_on_c, 0, 78, 86
1, 18457, Note_off_c, 0, 69, 55
1, 18471, Note_off_c, 0, 76, 63
1, 18484, Note_off_c, 0, 38, 66
1, 18485, Note_off_c, 0, 50, 65
1, 18508, Control_c, 0, 67, 125
1, 18509, Note_off_c, 0, 78, 56
1, 18523, Control_c, 0, 67, 121
1, 18538, Control_c, 0, 67, 118
1, 18567, Control_c, 0, 67, 116
1, 18582, Control_c, 0, 67, 114
1, 18591, Note_on_c, 0, 36, 69
1, 18594, Note_on_c, 0, 48, 75
1, 18597, Control_c, 0, 67, 109
1, 18611, Control_c, 0, 67, 106
1, 18619, Note_off_c, 0, 36, 63
1, 18623, Note_off_c, 0, 48, 63
1, 18656, Control_c, 0, 67, 104
1, 18658, Note_on_c, 0, 76, 77
1, 18715, Note_on_c, 0, 74, 92
1, 18716, Control_c, 0, 67, 101
1, 18724, Note_on_c, 0, 71, 86
1, 18728, Note_on_c, 0, 47, 77
1, 18730, Note_on_c, 0, 35, 78
1, 18731, Control_c, 0, 67, 94
1, 18733, Note_off_c, 0, 76, 62
1, 18746, Control_c, 0, 67, 88
1, 18758, Note_off_c, 0, 35, 63
1, 18761, Control_c, 0, 67, 87
1, 18765, Note_off_c, 0, 47, 65
1, 18805, Control_c, 0, 67, 86
1, 18820, Control_c, 0, 67, 85
1, 18856, Note_on_c, 0, 50, 78
1, 18859, Note_on_c, 0, 38, 77
1, 18879, Control_c, 0, 67, 85
1, 18893, Note_off_c, 0, 38, 61
1, 18894, Control_c, 0, 67, 84
1, 18895, Note_off_c, 0, 50, 65
1, 18936, Note_on_c, 0, 78, 80
1, 18938, Note_off_c, 0, 74, 59
1, 18946, Note_off_c, 0, 71, 57
1, 18946, Control_c, 0, 67, 83
1, 18961, Control_c, 0, 67, 82
1, 18976, Control_c, 0, 67, 81
1, 18989, Note_on_c, 0, 79, 84
1, 18990, Control_c, 0, 67, 80
1, 18997, Note_on_c, 0, 52, 81
1, 18999, Note_on_c, 0, 40, 75
1, 19005, Control_c, 0, 67, 72
1, 19013, Note_off_c, 0, 78, 59
1, 19020, Control_c, 0, 67, 63
1, 19028, Note_off_c, 0, 40, 64
1, 19034, Control_c, 0, 67, 55
1, 19038, Note_off_c, 0, 79, 65
1, 19039, Note_off_c, 0, 52, 62
1, 19049, Control_c, 0, 67, 50
1, 19064, Control_c, 0, 67, 48
1, 19079, Control_c, 0, 67, 44
1, 19094, Control_c, 0, 67, 0
1, 19132, Note_on_c, 0, 55, 77
1, 19136, Note_on_c, 0, 43, 70
1, 19164, Note_off_c, 0, 43, 65
1, 19173, Note_off_c, 0, 55, 63
1, 19184, Note_on_c, 0, 78, 83
1, 19257, Note_on_c, 0, 72, 87
1, 19257, Note_on_c, 0, 76, 88
1, 19258, Note_on_c, 0, 57, 90
1, 19261, Note_on_c, 0, 45, 86
1, 19287, Note_off_c, 0, 45, 68
1, 19293, Note_off_c, 0, 78, 60
1, 19298, Note_off_c, 0, 57, 63
1, 19311, Note_off_c, 0, 76, 64
1, 19397, Note_on_c, 0, 58, 89
1, 19401, Note_on_c, 0, 46, 74
1, 19435, Note_off_c, 0, 46, 63
1, 19435, Note_off_c, 0, 72, 59
1, 19451, Note_off_c, 0, 58, 62
1, 19457, Note_on_c, 0, 78, 87
1, 19514, Note_on_c, 0, 75, 98
1, 19522, Note_on_c, 0, 54, 88
1, 19524, Note_on_c, 0, 51, 84
1, 19526, Control_c, 0, 64, 30
1, 19526, Note_on_c, 0, 59, 90
1, 19532, Note_off_c, 0, 78, 62
1, 19535, Note_on_c, 0, 71, 89
1, 19536, Note_on_c, 0, 47, 76
1, 19541, Control_c, 0, 64, 68
1, 19550, Note_off_c, 0, 59, 70
1, 19553, Note_off_c, 0, 71, 72
1, 19556, Control_c, 0, 64, 127
1, 19559, Note_off_c, 0, 47, 67
1, 19564, Note_off_c, 0, 75, 67
1, 19565, Note_off_c, 0, 54, 63
1, 19570, Note_off_c, 0, 51, 61
1, 19800, Note_on_c, 0, 94, 80
1, 19807, Note_on_c, 0, 92, 73
1, 19825, Note_on_c, 0, 95, 97
1, 19827, Note_on_c, 0, 66, 86
1, 19830, Note_on_c, 0, 59, 89
1, 19831, Note_on_c, 0, 71, 97
1, 19839, Note_on_c, 0, 63, 91
1, 19841, Note_on_c, 0, 87, 82
1, 19851, Note_off_c, 0, 71, 67
1, 19854, Note_off_c, 0, 92, 66
1, 19857, Note_off_c, 0, 59, 66
1, 19866, Note_off_c, 0, 66, 68
1, 19869, Note_off_c, 0, 87, 65
1, 19870, Note_off_c, 0, 63, 64
1, 19876, Note_off_c, 0, 95, 68
1, 19877, Note_off_c, 0, 94, 65
1, 20007, Control_c, 0, 64, 78
1, 20022, Control_c, 0, 64, 52
1, 20037, Control_c, 0, 64, 0
1, 20208, Note_on_c, 0, 71, 86
1, 20214, Note_on_c, 0, 54, 69
1, 20214, Note_on_c, 0, 63, 74
1, 20216, Note_on_c, 0, 59, 71
1, 20230, Note_off_c, 0, 63, 67
1, 20232, Note_off_c, 0, 71, 66
1, 20235, Note_off_c, 0, 54, 62
1, 20244, Note_off_c, 0, 59, 67
1, 20519, Control_c, 0, 67, 42
1, 20534, Control_c, 0, 67, 66
1, 20538, Note_on_c, 0, 71, 77
1, 20544, Note_on_c, 0, 54, 69
1, 20545, Note_on_c, 0, 59, 67
1, 20549, Control_c, 0, 67, 82
1, 20554, Note_on_c, 0, 63, 61
1, 20560, Note_off_c, 0, 71, 68
1, 20563, Note_off_c, 0, 54, 64
1, 20563, Control_c, 0, 67, 83
1, 20573, Note_off_c, 0, 59, 65
1, 20575, Note_off_c, 0, 63, 61
1, 20578, Control_c, 0, 67, 84
1, 20593, Control_c, 0, 67, 88
1, 20608, Control_c, 0, 67, 110
1, 20620, Note_on_c, 0, 54, 80
1, 20623, Control_c, 0, 67, 127
1, 20628, Note_on_c, 0, 59, 78
1, 20630, Note_on_c, 0, 63, 78
1, 20637, Note_on_c, 0, 71, 73
1, 20644, Note_off_c, 0, 54, 68
1, 20653, Note_off_c, 0, 59, 68
1, 20653, Note_off_c, 0, 63, 69
1, 20662, Note_off_c, 0, 71, 67
1, 20721, Note_on_c, 0, 59, 84
1, 20727, Note_on_c, 0, 71, 80
1, 20729, Note_on_c, 0, 63, 82
1, 20738, Note_on_c, 0, 54, 64
1, 20745, Note_off_c, 0, 59, 71
1, 20748, Note_off_c, 0, 71, 71
1, 20761, Note_off_c, 0, 63, 61
1, 20766, Note_off_c, 0, 54, 65
1, 20806, Note_on_c, 0, 67, 95
1, 20807, Note_on_c, 0, 59, 99
1, 20807, Note_on_c, 0, 64, 83
1, 20811, Note_on_c, 0, 52, 84
1, 20827, Note_off_c, 0, 64, 72
1, 20830, Note_off_c, 0, 59, 68
1, 20837, Note_off_c, 0, 52, 68
1, 20841, Note_off_c, 0, 67, 65
1, 21111, Note_on_c, 0, 57, 68
1, 21114, Note_on_c, 0, 48, 60
1, 21115, Note_on_c, 0, 55, 53
1, 21117, Note_on_c, 0, 64, 52
1, 21140, Note_off_c, 0, 64, 61
1, 21141, Note_off_c, 0, 55, 58
1, 21141, Note_off_c, 0, 57, 65
1, 21144, Note_off_c, 0, 48, 64
1, 21404, Note_on_c, 0, 55, 64
1, 21407, Note_on_c, 0, 60, 56
1, 21411, Note_on_c, 0, 45, 55
1, 21414, Note_on_c, 0, 52, 48
1, 21431, Note_off_c, 0, 55, 64
1, 21437, Note_off_c, 0, 60, 66
1, 21441, Note_off_c, 0, 45, 64
1, 21443, Note_off_c, 0, 52, 55
1, 21687, Note_on_c, 0, 57, 64
1, 21691, Note_on_c, 0, 42, 63
1, 21693, Note_on_c, 0, 52, 58
1, 21703, Note_on_c, 0, 48, 51
1, 21718, Note_off_c, 0, 57, 65
1, 21720, Note_off_c, 0, 42, 64
1, 21720, Note_off_c, 0, 52, 63
1, 21738, Note_off_c, 0, 48, 53
1, 21977, Note_on_c, 0, 54, 57
1, 21979, Note_on_c, 0, 39, 66
1, 21985, Note_on_c, 0, 47, 63
1, 21999, Note_off_c, 0, 54, 62
1, 22008, Note_off_c, 0, 39, 64
1, 22161, Note_on_c, 0, 35, 59
1, 22198, Note_off_c, 0, 35, 62
1, 22248, Note_on_c, 0, 82, 55
1, 22266, Note_off_c, 0, 82, 60
1, 22288, Note_on_c, 0, 83, 88
1, 22291, Note_on_c, 0, 37, 76
1, 22298, Note_on_c, 0, 71, 82
1, 22301, Note_on_c, 0, 76, 78
1, 22318, Note_off_c, 0, 71, 71
1, 22322, Note_off_c, 0, 76, 71
1, 22325, Note_off_c, 0, 37, 66
1, 22330, Note_off_c, 0, 83, 64
1, 22474, Note_on_c, 0, 39, 40
1, 22508, Note_off_c, 0, 39, 48
1, 22518, Note_on_c, 0, 78, 71
1, 22540, Note_off_c, 0, 78, 69
1, 22573, Note_on_c, 0, 76, 91
1, 22578, Note_on_c, 0, 79, 76
1, 22579, Note_on_c, 0, 71, 84
1, 22586, Note_on_c, 0, 40, 65
1, 22596, Note_off_c, 0, 76, 65
1, 22598, Note_off_c, 0, 71, 72
1, 22599, Note_off_c, 0, 79, 68
1, 22617, Note_off_c, 0, 40, 63
1, 22748, Note_on_c, 0, 42, 61
1, 22780, Note_off_c, 0, 42, 64
1, 22816, Note_on_c, 0, 75, 64
1, 22848, Note_off_c, 0, 75, 63
1, 22864, Note_on_c, 0, 76, 81
1, 22872, Note_on_c, 0, 67, 69
1, 22872, Note_on_c, 0, 71, 71
1, 22874, Note_on_c, 0, 43, 71
1, 22890, Note_off_c, 0, 67, 67
1, 22894, Note_off_c, 0, 76, 65
1, 22897, Note_off_c, 0, 71, 66
1, 22901, Note_off_c, 0, 43, 65
1, 23030, Note_on_c, 0, 44, 57
1, 23033, Note_off_c, 0, 47, 61
1, 23057, Note_off_c, 0, 44, 62
1, 23086, Note_on_c, 0, 71, 74
1, 23108, Note_off_c, 0, 71, 69
1, 23146, Note_on_c, 0, 72, 81
1, 23155, Note_on_c, 0, 45, 65
1, 23157, Note_on_c, 0, 69, 74
1, 23167, Note_on_c, 0, 64, 58
1, 23177, Note_off_c, 0, 69, 71
1, 23180, Note_off_c, 0, 45, 63
1, 23187, Note_off_c, 0, 72, 64
1, 23188, Note_off_c, 0, 64, 63
1, 23307, Note_on_c, 0, 47, 61
1, 23332, Note_off_c, 0, 47, 62
1, 23359, Note_on_c, 0, 68, 73
1, 23383, Note_off_c, 0, 68, 70
1, 23433, Note_on_c, 0, 48, 74
1, 23437, Note_on_c, 0, 69, 88
1, 23447, Note_on_c, 0, 64, 67
1, 23465, Note_off_c, 0, 64, 66
1, 23470, Note_off_c, 0, 48, 64
1, 23470, Note_off_c, 0, 69, 63
1, 23579, Note_on_c, 0, 47, 64
1, 23608, Note_off_c, 0, 47, 65
1, 23634, Note_on_c, 0, 71, 78
1, 23670, Note_off_c, 0, 71, 55
1, 23696, Note_on_c, 0, 72, 94
1, 23702, Note_on_c, 0, 45, 74
1, 23707, Note_on_c, 0, 66, 83
1, 23728, Note_off_c, 0, 66, 71
1, 23732, Note_off_c, 0, 45, 65
1, 23735, Note_off_c, 0, 72, 63
1, 23839, Note_on_c, 0, 43, 71
1, 23845, Note_on_c, 0, 55, 68
1, 23867, Note_off_c, 0, 43, 64
1, 23873, Note_off_c, 0, 55, 64
1, 23899, Note_on_c, 0, 75, 77
1, 23921, Note_off_c, 0, 75, 71
1, 23965, Note_on_c, 0, 76, 85
1, 23967, Note_on_c, 0, 54, 69
1, 23967, Note_on_c, 0, 72, 84
1, 23971, Note_on_c, 0, 42, 68
1, 23988, Note_off_c, 0, 72, 67
1, 23993, Note_off_c, 0, 54, 67
1, 23997, Note_off_c, 0, 42, 63
1, 24009, Note_off_c, 0, 76, 65
1, 24063, Control_c, 0, 67, 122
1, 24078, Control_c, 0, 67, 94
1, 24091, Note_on_c, 0, 52, 73
1, 24093, Control_c, 0, 67, 60
1, 24093, Note_on_c, 0, 40, 78
1, 24107, Control_c, 0, 67, 34
1, 24119, Note_off_c, 0, 52, 67
1, 24122, Control_c, 0, 67, 0
1, 24122, Note_off_c, 0, 40, 64
1, 24171, Note_on_c, 0, 77, 58
1, 24191, Note_off_c, 0, 77, 62
1, 24203, Note_on_c, 0, 69, 41
1, 24215, Note_on_c, 0, 51, 92
1, 24216, Note_on_c, 0, 39, 89
1, 24218, Note_on_c, 0, 71, 74
1, 24225, Note_on_c, 0, 78, 55
1, 24232, Note_off_c, 0, 69, 64
1, 24233, Note_on_c, 0, 70, 43
1, 24234, Note_on_c, 0, 77, 68
1, 24242, Note_off_c, 0, 71, 64
1, 24245, Note_off_c, 0, 51, 62
1, 24247, Note_off_c, 0, 39, 67
1, 24247, Note_off_c, 0, 78, 43
1, 24260, Note_off_c, 0, 77, 68
1, 24262, Note_off_c, 0, 70, 55
1, 24281, Poly_aftertouch_c, 0, 76, 0
1, 24349, Note_on_c, 0, 49, 80
1, 24352, Note_on_c, 0, 37, 76
1, 24384, Note_off_c, 0, 49, 63
1, 24391, Note_off_c, 0, 37, 65
1, 24418, Note_on_c, 0, 82, 78
1, 24429, Note_on_c, 0, 71, 70
1, 24438, Note_off_c, 0, 82, 72
1, 24445, Note_off_c, 0, 71, 66
1, 24469, Note_on_c, 0, 42, 81
1, 24470, Note_on_c, 0, 47, 82
1, 24472, Note_on_c, 0, 83, 103
1, 24473, Note_on_c, 0, 35, 78
1, 24474, Note_on_c, 0, 71, 103
1, 24475, Note_on_c, 0, 75, 105
1, 24480, Note_on_c, 0, 33, 76
1, 24486, Control_c, 0, 64, 49
1, 24486, Note_on_c, 0, 41, 65
1, 24492, Note_off_c, 0, 47, 65
1, 24492, Note_off_c, 0, 71, 69
1, 24495, Note_off_c, 0, 42, 63
1, 24495, Note_off_c, 0, 35, 67
1, 24497, Note_off_c, 0, 75, 67
1, 24501, Control_c, 0, 64, 127
1, 24503, Note_off_c, 0, 33, 61
1, 24506, Note_off_c, 0, 83, 69
1, 24514, Note_off_c, 0, 41, 58
1, 24553, Poly_aftertouch_c, 0, 45, 0
1, 24587, Poly_aftertouch_c, 0, 45, 0
1, 24785, Note_on_c, 0, 71, 101
1, 24786, Note_on_c, 0, 63, 99
1, 24787, Note_on_c, 0, 59, 105
1, 24788, Note_on_c, 0, 54, 94
1, 24796, Control_c, 0, 64, 83
1, 24802, Note_off_c, 0, 63, 75
1, 24806, Note_off_c, 0, 54, 73
1, 24808, Note_off_c, 0, 59, 70
1, 24811, Control_c, 0, 64, 49
1, 24817, Note_off_c, 0, 71, 66
1, 24826, Control_c, 0, 64, 0
1, 25155, Note_on_c, 0, 54, 63
1, 25155, Note_on_c, 0, 71, 65
1, 25161, Note_on_c, 0, 63, 63
1, 25172, Note_on_c, 0, 59, 46
1, 25176, Note_off_c, 0, 54, 61
1, 25181, Note_off_c, 0, 63, 62
1, 25182, Note_off_c, 0, 71, 65
1, 25201, Note_off_c, 0, 59, 34
1, 25237, Note_on_c, 0, 71, 78
1, 25241, Note_on_c, 0, 54, 72
1, 25241, Note_on_c, 0, 63, 77
1, 25254, Note_on_c, 0, 59, 54
1, 25259, Note_off_c, 0, 71, 69
1, 25267, Note_off_c, 0, 63, 67
1, 25269, Note_off_c, 0, 54, 66
1, 25277, Note_off_c, 0, 59, 58
1, 25324, Control_c, 0, 67, 47
1, 25333, Note_on_c, 0, 59, 84
1, 25334, Note_on_c, 0, 63, 88
1, 25339, Note_on_c, 0, 54, 72
1, 25339, Control_c, 0, 67, 84
1, 25340, Note_on_c, 0, 71, 76
1, 25353, Control_c, 0, 67, 98
1, 25356, Note_off_c, 0, 59, 71
1, 25362, Note_off_c, 0, 71, 69
1, 25365, Note_off_c, 0, 63, 62
1, 25367, Note_off_c, 0, 54, 66
1, 25368, Control_c, 0, 67, 104
1, 25383, Control_c, 0, 67, 127
1, 25416, Note_on_c, 0, 67, 90
1, 25419, Note_on_c, 0, 52, 78
1, 25419, Note_on_c, 0, 59, 86
1, 25421, Note_on_c, 0, 64, 76
1, 25442, Note_off_c, 0, 52, 67
1, 25443, Note_off_c, 0, 59, 71
1, 25446, Note_off_c, 0, 64, 70
1, 25446, Note_off_c, 0, 67, 65
1, 25725, Note_on_c, 0, 48, 64
1, 25729, Note_on_c, 0, 64, 69
1, 25733, Note_on_c, 0, 57, 65
1, 25734, Note_on_c, 0, 55, 49
1, 25752, Note_off_c, 0, 48, 65
1, 25753, Note_off_c, 0, 57, 65
1, 25757, Note_off_c, 0, 64, 68
1, 25762, Note_off_c, 0, 55, 56
1, 26016, Note_on_c, 0, 45, 62
1, 26017, Note_on_c, 0, 60, 67
1, 26021, Note_on_c, 0, 52, 51
1, 26021, Note_on_c, 0, 55, 61
1, 26043, Note_off_c, 0, 45, 65
1, 26048, Note_off_c, 0, 60, 66
1, 26049, Note_off_c, 0, 52, 57
1, 26053, Note_off_c, 0, 55, 64
1, 26290, Note_on_c, 0, 42, 71
1, 26292, Note_on_c, 0, 57, 68
1, 26305, Note_on_c, 0, 48, 50
1, 26307, Note_on_c, 0, 52, 49
1, 26316, Note_off_c, 0, 42, 66
1, 26323, Note_off_c, 0, 57, 66
1, 26337, Note_off_c, 0, 52, 55
1, 26339, Note_off_c, 0, 48, 54
1, 26567, Note_on_c, 0, 54, 68
1, 26584, Control_c, 0, 64, 47
1, 26586, Note_on_c, 0, 39, 57
1, 26590, Note_on_c, 0, 47, 49
1, 26591, Note_off_c, 0, 54, 66
1, 26599, Control_c, 0, 64, 70
1, 26614, Control_c, 0, 64, 100
1, 26616, Note_off_c, 0, 39, 56
1, 26621, Note_off_c, 0, 47, 54
1, 26628, Control_c, 0, 64, 127
1, 26763, Note_on_c, 0, 95, 75
1, 26789, Note_off_c, 0, 95, 66
1, 26793, Note_on_c, 0, 39, 4
1, 26794, Note_on_c, 0, 83, 34
1, 26827, Note_off_c, 0, 83, 47
1, 26848, Note_off_c, 0, 39, 48
1, 26900, Note_on_c, 0, 35, 78
1, 26907, Note_on_c, 0, 46, 68
1, 26908, Note_on_c, 0, 42, 68
1, 26913, Note_on_c, 0, 94, 84
1, 26916, Note_on_c, 0, 82, 72
1, 26926, Note_off_c, 0, 35, 65
1, 26927, Note_off_c, 0, 46, 63
1, 26935, Note_off_c, 0, 42, 65
1, 26937, Note_on_c, 0, 87, 39
1, 26938, Note_off_c, 0, 82, 71
1, 26939, Control_c, 0, 64, 96
1, 26947, Note_off_c, 0, 94, 55
1, 26954, Control_c, 0, 64, 64
1, 26957, Note_on_c, 0, 47, 18
1, 26961, Note_off_c, 0, 87, 52
1, 26969, Control_c, 0, 64, 0
1, 27000, Note_off_c, 0, 47, 37
1, 27071, Note_on_c, 0, 93, 84
1, 27080, Note_on_c, 0, 81, 67
1, 27104, Note_off_c, 0, 81, 71
1, 27109, Note_off_c, 0, 93, 58
1, 27188, Note_on_c, 0, 40, 36
1, 27202, Note_on_c, 0, 51, 68
1, 27202, Note_on_c, 0, 47, 61
1, 27218, Note_on_c, 0, 52, 75
1, 27221, Note_off_c, 0, 40, 61
1, 27223, Note_on_c, 0, 91, 79
1, 27226, Note_on_c, 0, 83, 78
1, 27230, Note_off_c, 0, 51, 37
1, 27232, Note_off_c, 0, 47, 65
1, 27234, Note_on_c, 0, 79, 61
1, 27241, Note_off_c, 0, 52, 66
1, 27243, Note_off_c, 0, 83, 72
1, 27245, Note_off_c, 0, 91, 66
1, 27252, Note_off_c, 0, 79, 67
1, 27387, Note_on_c, 0, 90, 65
1, 27395, Note_on_c, 0, 78, 60
1, 27413, Note_off_c, 0, 90, 69
1, 27414, Note_off_c, 0, 78, 63
1, 27485, Note_on_c, 0, 43, 55
1, 27497, Note_on_c, 0, 52, 66
1, 27509, Note_on_c, 0, 54, 51
1, 27512, Note_off_c, 0, 43, 65
1, 27515, Note_on_c, 0, 55, 76
1, 27517, Note_on_c, 0, 83, 68
1, 27530, Note_off_c, 0, 52, 64
1, 27531, Note_on_c, 0, 88, 59
1, 27536, Note_on_c, 0, 76, 50
1, 27537, Note_off_c, 0, 55, 67
1, 27541, Note_off_c, 0, 54, 39
1, 27542, Note_off_c, 0, 83, 65
1, 27552, Note_off_c, 0, 88, 65
1, 27559, Note_off_c, 0, 76, 59
1, 27669, Note_on_c, 0, 86, 62
1, 27688, Note_on_c, 0, 74, 50
1, 27699, Note_off_c, 0, 86, 64
1, 27710, Note_off_c, 0, 74, 57
1, 27762, Note_on_c, 0, 45, 31
1, 27775, Note_on_c, 0, 56, 86
1, 27789, Note_on_c, 0, 52, 48
1, 27798, Note_off_c, 0, 45, 65
1, 27798, Note_off_c, 0, 56, 68
1, 27802, Note_on_c, 0, 57, 67
1, 27813, Note_on_c, 0, 84, 58
1, 27816, Note_on_c, 0, 72, 67
1, 27817, Note_off_c, 0, 52, 52
1, 27818, Note_on_c, 0, 76, 55
1, 27824, Note_off_c, 0, 57, 66
1, 27839, Note_off_c, 0, 76, 62
1, 27840, Note_off_c, 0, 84, 68
1, 27842, Note_off_c, 0, 72, 66
1, 27956, Note_on_c, 0, 83, 72
1, 27971, Note_on_c, 0, 71, 63
1, 27990, Note_off_c, 0, 83, 58
1, 27991, Note_off_c, 0, 71, 64
1, 28075, Note_on_c, 0, 57, 53
1, 28078, Note_on_c, 0, 60, 72
1, 28093, Note_on_c, 0, 48, 48
1, 28094, Note_on_c, 0, 81, 72
1, 28094, Note_off_c, 0, 60, 67
1, 28099, Note_on_c, 0, 76, 69
1, 28105, Note_on_c, 0, 69, 63
1, 28108, Note_off_c, 0, 57, 64
1, 28119, Note_off_c, 0, 81, 65
1, 28123, Note_off_c, 0, 69, 66
1, 28123, Note_off_c, 0, 76, 68
1, 28126, Note_off_c, 0, 48, 48
1, 28227, Note_on_c, 0, 76, 62
1, 28238, Note_on_c, 0, 67, 68
1, 28260, Note_off_c, 0, 76, 65
1, 28263, Note_off_c, 0, 67, 67
1, 28358, Note_on_c, 0, 78, 79
1, 28366, Note_on_c, 0, 50, 68
1, 28368, Note_on_c, 0, 66, 59
1, 28370, Note_on_c, 0, 62, 68
1, 28381, Note_off_c, 0, 78, 64
1, 28382, Note_on_c, 0, 74, 39
1, 28390, Note_off_c, 0, 66, 42
1, 28391, Note_off_c, 0, 50, 68
1, 28397, Note_off_c, 0, 62, 65
1, 28411, Note_off_c, 0, 74, 36
1, 28510, Note_on_c, 0, 64, 76
1, 28511, Note_on_c, 0, 52, 75
1, 28535, Note_off_c, 0, 64, 70
1, 28539, Note_off_c, 0, 52, 66
1, 28617, Note_on_c, 0, 86, 64
1, 28619, Note_on_c, 0, 78, 76
1, 28623, Note_on_c, 0, 89, 75
1, 28630, Note_on_c, 0, 90, 90
1, 28644, Note_on_c, 0, 62, 82
1, 28648, Note_on_c, 0, 50, 82
1, 28651, Note_off_c, 0, 78, 66
1, 28656, Note_off_c, 0, 86, 66
1, 28658, Note_off_c, 0, 89, 64
1, 28674, Note_off_c, 0, 62, 63
1, 28675, Note_off_c, 0, 50, 68
1, 28689, Note_off_c, 0, 90, 68
1, 28786, Note_on_c, 0, 48, 87
1, 28787, Note_on_c, 0, 60, 78
1, 28816, Note_off_c, 0, 60, 64
1, 28821, Note_off_c, 0, 48, 66
1, 28871, Note_on_c, 0, 97, 45
1, 28884, Note_on_c, 0, 90, 80
1, 28890, Note_on_c, 0, 98, 92
1, 28891, Note_on_c, 0, 86, 85
1, 28903, Control_c, 0, 64, 30
1, 28905, Note_on_c, 0, 59, 100
1, 28907, Note_on_c, 0, 47, 96
1, 28915, Note_off_c, 0, 90, 67
1, 28918, Control_c, 0, 64, 56
1, 28924, Note_off_c, 0, 97, 65
1, 28925, Note_off_c, 0, 86, 64
1, 28933, Control_c, 0, 64, 72
1, 28933, Control_c, 0, 67, 115
1, 28937, Note_off_c, 0, 98, 67
1, 28943, Note_off_c, 0, 59, 67
1, 28945, Note_off_c, 0, 47, 63
1, 28947, Control_c, 0, 64, 83
1, 28947, Control_c, 0, 67, 106
1, 28962, Control_c, 0, 64, 85
1, 28977, Control_c, 0, 67, 101
1, 28992, Control_c, 0, 67, 90
1, 29007, Control_c, 0, 67, 69
1, 29021, Control_c, 0, 64, 85
1, 29021, Control_c, 0, 67, 48
1, 29032, Note_on_c, 0, 57, 100
1, 29035, Note_on_c, 0, 45, 94
1, 29036, Control_c, 0, 64, 81
1, 29036, Control_c, 0, 67, 38
1, 29051, Control_c, 0, 64, 72
1, 29051, Control_c, 0, 67, 37
1, 29067, Control_c, 0, 64, 58
1, 29067, Control_c, 0, 67, 36
1, 29068, Note_off_c, 0, 57, 64
1, 29074, Note_off_c, 0, 45, 63
1, 29082, Control_c, 0, 64, 0
1, 29082, Control_c, 0, 67, 34
1, 29097, Control_c, 0, 67, 0
1, 29196, Note_on_c, 0, 62, 91
1, 29198, Note_on_c, 0, 60, 92
1, 29199, Note_on_c, 0, 31, 96
1, 29202, Note_on_c, 0, 43, 92
1, 29204, Note_on_c, 0, 57, 78
1, 29220, Note_off_c, 0, 62, 66
1, 29222, Note_off_c, 0, 60, 69
1, 29223, Note_off_c, 0, 31, 72
1, 29227, Note_off_c, 0, 43, 69
1, 29229, Note_off_c, 0, 57, 67
1, 29281, Note_on_c, 0, 57, 87
1, 29281, Note_on_c, 0, 60, 91
1, 29285, Note_on_c, 0, 62, 82
1, 29309, Note_on_c, 0, 64, 45
1, 29309, Note_off_c, 0, 64, 127
1, 29309, Note_off_c, 0, 62, 69
1, 29310, Note_off_c, 0, 57, 68
1, 29311, Note_off_c, 0, 60, 68
1, 29319, Note_on_c, 0, 42, 95
1, 29321, Note_on_c, 0, 30, 93
1, 29355, Note_off_c, 0, 30, 63
1, 29365, Note_off_c, 0, 42, 61
1, 29373, Note_on_c, 0, 62, 97
1, 29381, Note_on_c, 0, 60, 88
1, 29381, Note_on_c, 0, 57, 91
1, 29408, Note_off_c, 0, 60, 72
1, 29410, Note_off_c, 0, 57, 71
1, 29411, Note_off_c, 0, 62, 67
1, 29453, Note_on_c, 0, 43, 98
1, 29454, Note_on_c, 0, 31, 106
1, 29462, Note_on_c, 0, 62, 101
1, 29463, Note_on_c, 0, 55, 101
1, 29464, Note_on_c, 0, 59, 95
1, 29474, Control_c, 0, 64, 60
1, 29475, Note_off_c, 0, 31, 73
1, 29478, Note_off_c, 0, 43, 69
1, 29480, Note_off_c, 0, 55, 74
1, 29482, Note_off_c, 0, 62, 67
1, 29484, Note_off_c, 0, 59, 71
1, 29489, Control_c, 0, 64, 127
1, 29550, Poly_aftertouch_c, 0, 57, 0
1, 29815, Control_c, 0, 64, 94
1, 29830, Note_on_c, 0, 74, 74
1, 29830, Control_c, 0, 64, 57
1, 29837, Note_on_c, 0, 71, 68
1, 29844, Note_off_c, 0, 74, 67
1, 29844, Control_c, 0, 64, 0
1, 29847, Note_on_c, 0, 67, 48
1, 29864, Note_off_c, 0, 71, 64
1, 29873, Note_off_c, 0, 67, 36
1, 29895, Note_on_c, 0, 74, 98
1, 29914, Note_on_c, 0, 71, 88
1, 29914, Note_on_c, 0, 67, 71
1, 29931, Note_off_c, 0, 74, 66
1, 29937, Note_off_c, 0, 67, 65
1, 29940, Note_off_c, 0, 71, 65
1, 29979, Note_on_c, 0, 74, 95
1, 29988, Note_on_c, 0, 67, 85
1, 30007, Note_off_c, 0, 67, 73
1, 30015, Note_on_c, 0, 71, 61
1, 30016, Note_off_c, 0, 74, 64
1, 30037, Note_off_c, 0, 71, 0
1, 30051, Note_on_c, 0, 71, 70
1, 30057, Note_on_c, 0, 76, 99
1, 30058, Note_on_c, 0, 67, 95
1, 30061, Note_on_c, 0, 64, 79
1, 30073, Note_off_c, 0, 67, 77
1, 30078, Note_off_c, 0, 71, 67
1, 30083, Note_off_c, 0, 64, 70
1, 30090, Note_off_c, 0, 76, 66
1, 30373, Note_on_c, 0, 76, 86
1, 30379, Note_on_c, 0, 71, 74
1, 30380, Note_on_c, 0, 67, 75
1, 30383, Note_on_c, 0, 64, 63
1, 30401, Note_off_c, 0, 71, 69
1, 30403, Note_off_c, 0, 67, 71
1, 30405, Note_off_c, 0, 76, 65
1, 30410, Note_off_c, 0, 64, 67
1, 30671, Note_on_c, 0, 78, 83
1, 30676, Note_on_c, 0, 71, 73
1, 30680, Note_on_c, 0, 66, 77
1, 30680, Note_on_c, 0, 59, 61
1, 30686, Note_on_c, 0, 62, 59
1, 30700, Note_off_c, 0, 71, 64
1, 30702, Note_off_c, 0, 59, 62
1, 30703, Note_off_c, 0, 66, 71
1, 30710, Note_off_c, 0, 62, 64
1, 30719, Note_off_c, 0, 78, 61
1, 30983, Note_on_c, 0, 74, 78
1, 30987, Note_on_c, 0, 71, 69
1, 30990, Note_on_c, 0, 67, 65
1, 31005, Note_off_c, 0, 74, 68
1, 31012, Note_off_c, 0, 71, 67
1, 31013, Note_off_c, 0, 67, 65
1, 31280, Note_on_c, 0, 76, 98
1, 31281, Note_on_c, 0, 71, 92
1, 31286, Note_on_c, 0, 67, 93
1, 31289, Note_on_c, 0, 64, 77
1, 31312, Control_c, 0, 64, 53
1, 31327, Control_c, 0, 64, 71
1, 31342, Control_c, 0, 64, 86
1, 31357, Control_c, 0, 64, 127
1, 31726, Note_off_c, 0, 76, 60
1, 31736, Note_off_c, 0, 71, 55
1, 31739, Note_off_c, 0, 67, 55
1, 31765, Note_off_c, 0, 64, 57
1, 31968, Note_on_c, 0, 74, 74
1, 31971, Note_on_c, 0, 71, 69
1, 31977, Note_on_c, 0, 67, 65
1, 31988, Control_c, 0, 64, 90
1, 31990, Note_off_c, 0, 74, 71
1, 31996, Note_off_c, 0, 71, 67
1, 31997, Note_off_c, 0, 67, 66
1, 32003, Control_c, 0, 64, 65
1, 32018, Control_c, 0, 64, 0
1, 32328, Note_on_c, 0, 74, 71
1, 32333, Note_on_c, 0, 67, 60
1, 32338, Note_on_c, 0, 71, 58
1, 32352, Note_off_c, 0, 74, 67
1, 32354, Note_off_c, 0, 67, 64
1, 32360, Note_off_c, 0, 71, 63
1, 32417, Note_on_c, 0, 74, 87
1, 32424, Note_on_c, 0, 67, 75
1, 32429, Note_on_c, 0, 71, 79
1, 32436, Note_off_c, 0, 74, 71
1, 32447, Note_off_c, 0, 67, 70
1, 32451, Note_off_c, 0, 71, 69
1, 32496, Note_on_c, 0, 74, 98
1, 32508, Note_on_c, 0, 67, 82
1, 32517, Note_on_c, 0, 71, 76
1, 32526, Note_off_c, 0, 67, 73
1, 32532, Note_off_c, 0, 74, 64
1, 32539, Note_off_c, 0, 71, 69
1, 32576, Note_on_c, 0, 76, 100
1, 32579, Note_on_c, 0, 67, 98
1, 32581, Note_on_c, 0, 71, 83
1, 32594, Note_off_c, 0, 67, 76
1, 32599, Note_off_c, 0, 71, 71
1, 32602, Poly_aftertouch_c, 0, 64, 127
1, 32611, Note_off_c, 0, 76, 68
1, 32620, Poly_aftertouch_c, 0, 64, 0
1, 32892, Note_on_c, 0, 76, 90
1, 32899, Note_on_c, 0, 67, 76
1, 32901, Note_on_c, 0, 71, 68
1, 32910, Note_on_c, 0, 64, 59
1, 32920, Note_off_c, 0, 76, 65
1, 32921, Note_off_c, 0, 71, 65
1, 32922, Note_off_c, 0, 67, 69
1, 32931, Note_off_c, 0, 64, 63
1, 33207, Note_on_c, 0, 71, 90
1, 33207, Note_on_c, 0, 78, 99
1, 33208, Note_on_c, 0, 66, 96
1, 33211, Note_on_c, 0, 62, 77
1, 33221, Note_on_c, 0, 59, 59
1, 33223, Note_off_c, 0, 71, 74
1, 33226, Note_off_c, 0, 66, 74
1, 33234, Note_off_c, 0, 62, 69
1, 33241, Note_off_c, 0, 78, 67
1, 33244, Note_off_c, 0, 59, 62
1, 33521, Note_on_c, 0, 74, 93
1, 33527, Note_on_c, 0, 67, 80
1, 33527, Note_on_c, 0, 71, 74
1, 33547, Note_off_c, 0, 67, 72
1, 33551, Note_off_c, 0, 71, 68
1, 33558, Note_off_c, 0, 74, 65
1, 33819, Note_on_c, 0, 76, 101
1, 33823, Note_on_c, 0, 71, 87
1, 33826, Note_on_c, 0, 67, 94
1, 33835, Note_on_c, 0, 64, 67
1, 33840, Control_c, 0, 64, 64
1, 33850, Note_off_c, 0, 71, 62
1, 33855, Note_off_c, 0, 67, 66
1, 33856, Control_c, 0, 64, 104
1, 33860, Note_off_c, 0, 64, 67
1, 33871, Control_c, 0, 64, 127
1, 33887, Note_off_c, 0, 76, 63
1, 34145, Control_c, 0, 67, 61
1, 34159, Control_c, 0, 67, 127
1, 34204, Control_c, 0, 64, 97
1, 34219, Control_c, 0, 64, 60
1, 34234, Control_c, 0, 64, 0
1, 34440, Note_on_c, 0, 64, 63
1, 34515, Note_on_c, 0, 72, 77
1, 34517, Note_on_c, 0, 45, 51
1, 34519, Note_on_c, 0, 33, 53
1, 34544, Note_off_c, 0, 45, 55
1, 34550, Note_off_c, 0, 33, 51
1, 34556, Note_off_c, 0, 72, 59
1, 34680, Note_on_c, 0, 32, 50
1, 34682, Note_on_c, 0, 44, 39
1, 34716, Note_off_c, 0, 32, 49
1, 34716, Note_off_c, 0, 44, 47
1, 34751, Note_on_c, 0, 74, 84
1, 34809, Note_off_c, 0, 74, 64
1, 34812, Note_on_c, 0, 33, 45
1, 34818, Note_on_c, 0, 45, 44
1, 34820, Note_on_c, 0, 72, 84
1, 34848, Note_off_c, 0, 33, 48
1, 34850, Note_off_c, 0, 45, 46
1, 34877, Note_off_c, 0, 72, 63
1, 34954, Note_on_c, 0, 35, 52
1, 34954, Note_on_c, 0, 47, 54
1, 34983, Note_off_c, 0, 47, 63
1, 34984, Note_off_c, 0, 35, 52
1, 35032, Note_on_c, 0, 71, 81
1, 35089, Note_off_c, 0, 71, 63
1, 35095, Note_on_c, 0, 36, 48
1, 35097, Note_on_c, 0, 69, 85
1, 35098, Note_on_c, 0, 48, 50
1, 35127, Note_off_c, 0, 36, 52
1, 35128, Note_off_c, 0, 48, 50
1, 35152, Note_off_c, 0, 69, 64
1, 35238, Note_on_c, 0, 37, 54
1, 35239, Note_on_c, 0, 49, 51
1, 35269, Note_off_c, 0, 37, 63
1, 35273, Note_off_c, 0, 49, 63
1, 35284, Note_off_c, 0, 64, 64
1, 35309, Note_on_c, 0, 67, 76
1, 35360, Note_on_c, 0, 66, 81
1, 35367, Note_off_c, 0, 67, 64
1, 35380, Note_on_c, 0, 50, 42
1, 35384, Note_on_c, 0, 38, 44
1, 35397, Note_on_c, 0, 57, 43
1, 35404, Note_off_c, 0, 66, 66
1, 35413, Note_off_c, 0, 50, 53
1, 35417, Note_off_c, 0, 38, 49
1, 35424, Note_off_c, 0, 57, 55
1, 35523, Note_on_c, 0, 30, 59
1, 35529, Note_on_c, 0, 42, 52
1, 35556, Note_off_c, 0, 30, 63
1, 35558, Note_off_c, 0, 42, 61
1, 35617, Note_on_c, 0, 62, 79
1, 35673, Note_on_c, 0, 31, 53
1, 35678, Note_on_c, 0, 43, 51
1, 35682, Note_on_c, 0, 71, 87
1, 35705, Note_off_c, 0, 43, 59
1, 35707, Note_off_c, 0, 31, 63
1, 35737, Note_off_c, 0, 71, 62
1, 35815, Note_on_c, 0, 42, 53
1, 35816, Note_on_c, 0, 30, 52
1, 35846, Note_off_c, 0, 42, 62
1, 35847, Note_off_c, 0, 30, 56
1, 35901, Note_on_c, 0, 72, 74
1, 35950, Note_on_c, 0, 31, 56
1, 35961, Note_on_c, 0, 43, 49
1, 35965, Note_off_c, 0, 72, 62
1, 35970, Note_on_c, 0, 71, 74
1, 35983, Note_off_c, 0, 31, 62
1, 35990, Note_off_c, 0, 43, 59
1, 36037, Note_off_c, 0, 71, 55
1, 36097, Note_on_c, 0, 45, 57
1, 36106, Note_on_c, 0, 33, 49
1, 36135, Note_off_c, 0, 45, 64
1, 36146, Note_off_c, 0, 33, 48
1, 36183, Note_on_c, 0, 69, 63
1, 36240, Note_on_c, 0, 34, 64
1, 36241, Note_on_c, 0, 46, 55
1, 36241, Note_off_c, 0, 69, 60
1, 36252, Note_on_c, 0, 67, 66
1, 36271, Note_off_c, 0, 34, 64
1, 36276, Note_off_c, 0, 46, 64
1, 36284, Note_off_c, 0, 67, 63
1, 36372, Note_on_c, 0, 35, 60
1, 36377, Note_on_c, 0, 47, 57
1, 36402, Note_off_c, 0, 35, 62
1, 36411, Note_off_c, 0, 47, 64
1, 36412, Note_off_c, 0, 62, 60
1, 36449, Note_on_c, 0, 66, 67
1, 36502, Note_on_c, 0, 36, 63
1, 36502, Note_on_c, 0, 48, 67
1, 36503, Note_on_c, 0, 64, 75
1, 36516, Note_on_c, 0, 55, 66
1, 36523, Note_off_c, 0, 66, 61
1, 36533, Note_off_c, 0, 48, 64
1, 36534, Note_off_c, 0, 36, 63
1, 36544, Note_off_c, 0, 55, 63
1, 36547, Note_off_c, 0, 64, 64
1, 36585, Control_c, 0, 67, 125
1, 36600, Control_c, 0, 67, 122
1, 36629, Control_c, 0, 67, 119
1, 36644, Control_c, 0, 67, 115
1, 36659, Control_c, 0, 67, 110
1, 36661, Note_on_c, 0, 41, 39
1, 36666, Note_on_c, 0, 29, 29
1, 36673, Control_c, 0, 67, 108
1, 36699, Note_off_c, 0, 41, 51
1, 36703, Control_c, 0, 67, 105
1, 36712, Note_off_c, 0, 29, 46
1, 36732, Note_on_c, 0, 67, 68
1, 36733, Control_c, 0, 67, 97
1, 36746, Poly_aftertouch_c, 0, 28, 0
1, 36748, Control_c, 0, 67, 94
1, 36763, Control_c, 0, 67, 94
1, 36778, Control_c, 0, 67, 92
1, 36779, Note_on_c, 0, 66, 77
1, 36783, Note_on_c, 0, 33, 66
1, 36783, Note_on_c, 0, 45, 67
1, 36788, Note_on_c, 0, 60, 69
1, 36793, Control_c, 0, 67, 91
1, 36808, Control_c, 0, 67, 88
1, 36812, Note_off_c, 0, 45, 65
1, 36813, Note_off_c, 0, 33, 63
1, 36814, Note_off_c, 0, 67, 61
1, 36822, Control_c, 0, 67, 88
1, 36860, Note_off_c, 0, 66, 61
1, 36867, Control_c, 0, 67, 87
1, 36919, Control_c, 0, 67, 88
1, 36934, Control_c, 0, 67, 88
1, 36938, Note_on_c, 0, 34, 63
1, 36949, Note_on_c, 0, 46, 50
1, 36972, Note_off_c, 0, 34, 64
1, 36976, Note_off_c, 0, 46, 58
1, 36993, Control_c, 0, 67, 88
1, 37002, Note_off_c, 0, 60, 64
1, 37008, Control_c, 0, 67, 87
1, 37017, Note_on_c, 0, 64, 65
1, 37023, Control_c, 0, 67, 87
1, 37046, Note_off_c, 0, 64, 66
1, 37067, Note_on_c, 0, 35, 74
1, 37068, Note_on_c, 0, 47, 70
1, 37071, Note_on_c, 0, 63, 88
1, 37080, Note_on_c, 0, 54, 80
1, 37083, Control_c, 0, 67, 86
1, 37098, Note_off_c, 0, 35, 64
1, 37098, Control_c, 0, 67, 84
1, 37101, Note_off_c, 0, 47, 65
1, 37101, Note_off_c, 0, 54, 70
1, 37112, Control_c, 0, 67, 81
1, 37113, Note_off_c, 0, 63, 57
1, 37127, Control_c, 0, 67, 78
1, 37142, Control_c, 0, 67, 75
1, 37157, Control_c, 0, 67, 69
1, 37172, Control_c, 0, 67, 53
1, 37186, Control_c, 0, 67, 34
1, 37200, Control_c, 0, 67, 0
1, 37215, Note_on_c, 0, 36, 70
1, 37217, Note_on_c, 0, 48, 74
1, 37242, Note_off_c, 0, 36, 64
1, 37247, Note_off_c, 0, 48, 63
1, 37288, Note_on_c, 0, 69, 76
1, 37341, Note_on_c, 0, 67, 91
1, 37348, Note_on_c, 0, 49, 90
1, 37349, Note_on_c, 0, 59, 88
1, 37352, Note_on_c, 0, 57, 90
1, 37355, Note_on_c, 0, 37, 84
1, 37378, Note_off_c, 0, 49, 62
1, 37379, Note_off_c, 0, 37, 64
1, 37384, Note_off_c, 0, 69, 62
1, 37421, Note_off_c, 0, 67, 60
1, 37481, Note_on_c, 0, 51, 78
1, 37482, Note_on_c, 0, 39, 75
1, 37501, Note_off_c, 0, 59, 58
1, 37518, Note_off_c, 0, 39, 64
1, 37518, Note_off_c, 0, 51, 62
1, 37519, Note_off_c, 0, 57, 58
1, 37554, Note_on_c, 0, 66, 78
1, 37597, Note_off_c, 0, 66, 63
1, 37609, Note_on_c, 0, 55, 77
1, 37612, Note_on_c, 0, 64, 78
1, 37614, Note_on_c, 0, 40, 68
1, 37617, Note_on_c, 0, 52, 74
1, 37641, Note_off_c, 0, 55, 66
1, 37645, Note_off_c, 0, 64, 68
1, 37650, Note_off_c, 0, 40, 65
1, 37653, Note_off_c, 0, 52, 64
1, 37762, Note_on_c, 0, 55, 57
1, 37763, Note_on_c, 0, 43, 70
1, 37797, Note_off_c, 0, 43, 62
1, 37801, Note_off_c, 0, 55, 64
1, 37835, Note_on_c, 0, 71, 70
1, 37890, Note_on_c, 0, 72, 79
1, 37894, Note_on_c, 0, 57, 78
1, 37896, Note_off_c, 0, 71, 63
1, 37897, Note_on_c, 0, 45, 73
1, 37901, Note_on_c, 0, 64, 79
1, 37929, Note_off_c, 0, 45, 65
1, 37940, Note_off_c, 0, 57, 61
1, 37944, Note_off_c, 0, 72, 62
1, 38031, Note_on_c, 0, 47, 77
1, 38033, Note_on_c, 0, 59, 82
1, 38068, Note_off_c, 0, 47, 66
1, 38078, Note_off_c, 0, 59, 62
1, 38085, Note_on_c, 0, 71, 83
1, 38156, Note_on_c, 0, 60, 93
1, 38158, Note_on_c, 0, 69, 88
1, 38159, Note_on_c, 0, 48, 91
1, 38195, Note_off_c, 0, 48, 66
1, 38199, Note_off_c, 0, 60, 67
1, 38201, Note_off_c, 0, 71, 28
1, 38212, Note_off_c, 0, 69, 64
1, 38296, Note_on_c, 0, 61, 89
1, 38305, Note_on_c, 0, 49, 65
1, 38341, Note_on_c, 0, 67, 84
1, 38344, Note_off_c, 0, 49, 58
1, 38362, Note_off_c, 0, 61, 54
1, 38362, Note_off_c, 0, 64, 53
1, 38392, Note_off_c, 0, 67, 64
1, 38434, Note_on_c, 0, 54, 83
1, 38435, Note_on_c, 0, 62, 95
1, 38437, Note_on_c, 0, 57, 88
1, 38440, Note_on_c, 0, 50, 86
1, 38442, Note_on_c, 0, 66, 95
1, 38443, Note_on_c, 0, 74, 96
1, 38446, Control_c, 0, 64, 61
1, 38460, Control_c, 0, 64, 127
1, 38461, Note_off_c, 0, 66, 71
1, 38466, Note_off_c, 0, 50, 68
1, 38472, Note_off_c, 0, 62, 66
1, 38476, Note_off_c, 0, 74, 69
1, 38478, Note_off_c, 0, 57, 63
1, 38488, Note_off_c, 0, 54, 64
1, 38679, Note_on_c, 0, 93, 65
1, 38699, Note_off_c, 0, 93, 61
1, 38713, Poly_aftertouch_c, 0, 70, 0
1, 38719, Note_on_c, 0, 95, 81
1, 38732, Note_on_c, 0, 70, 40
1, 38743, Note_on_c, 0, 96, 91
1, 38745, Note_on_c, 0, 62, 76
1, 38746, Note_on_c, 0, 97, 70
1, 38751, Note_on_c, 0, 76, 89
1, 38752, Note_on_c, 0, 98, 87
1, 38753, Note_on_c, 0, 66, 75
1, 38755, Note_off_c, 0, 95, 67
1, 38761, Note_off_c, 0, 96, 67
1, 38762, Note_on_c, 0, 64, 52
1, 38764, Note_on_c, 0, 90, 94
1, 38765, Note_on_c, 0, 71, 61
1, 38766, Note_off_c, 0, 62, 70
1, 38768, Note_off_c, 0, 76, 77
1, 38775, Note_on_c, 0, 67, 64
1, 38777, Note_off_c, 0, 66, 71
1, 38777, Note_off_c, 0, 90, 76
1, 38785, Note_off_c, 0, 71, 64
1, 38787, Note_off_c, 0, 64, 60
1, 38788, Note_off_c, 0, 98, 66
1, 38789, Note_off_c, 0, 70, 65
1, 38792, Note_off_c, 0, 97, 57
1, 38794, Note_off_c, 0, 67, 66
1, 38921, Control_c, 0, 64, 98
1, 38936, Control_c, 0, 64, 66
1, 38950, Control_c, 0, 64, 0
1, 39128, Note_on_c, 0, 74, 85
1, 39131, Note_on_c, 0, 71, 80
1, 39134, Note_on_c, 0, 67, 77
1, 39146, Note_off_c, 0, 74, 72
1, 39153, Note_off_c, 0, 71, 70
1, 39154, Note_off_c, 0, 67, 71
1, 39462, Note_on_c, 0, 74, 71
1, 39474, Note_on_c, 0, 67, 51
1, 39476, Note_on_c, 0, 71, 55
1, 39480, Note_off_c, 0, 74, 66
1, 39498, Note_off_c, 0, 71, 58
1, 39499, Note_off_c, 0, 67, 58
1, 39534, Note_on_c, 0, 74, 94
1, 39543, Note_on_c, 0, 71, 84
1, 39550, Note_on_c, 0, 67, 76
1, 39559, Note_off_c, 0, 74, 66
1, 39571, Note_off_c, 0, 67, 71
1, 39572, Note_off_c, 0, 71, 60
1, 39622, Note_on_c, 0, 74, 98
1, 39630, Note_on_c, 0, 67, 87
1, 39641, Note_on_c, 0, 71, 70
1, 39647, Note_off_c, 0, 67, 73
1, 39657, Note_off_c, 0, 74, 64
1, 39668, Note_off_c, 0, 71, 67
1, 39694, Note_on_c, 0, 64, 73
1, 39697, Note_on_c, 0, 76, 100
1, 39704, Note_on_c, 0, 67, 87
1, 39707, Note_on_c, 0, 71, 64
1, 39721, Note_off_c, 0, 64, 70
1, 39724, Note_off_c, 0, 67, 72
1, 39730, Note_off_c, 0, 71, 59
1, 39733, Note_off_c, 0, 76, 67
1, 40017, Note_on_c, 0, 76, 91
1, 40023, Note_on_c, 0, 71, 77
1, 40026, Note_on_c, 0, 67, 77
1, 40028, Note_on_c, 0, 64, 73
1, 40045, Note_off_c, 0, 71, 69
1, 40049, Note_off_c, 0, 67, 70
1, 40052, Note_off_c, 0, 64, 68
1, 40052, Note_off_c, 0, 76, 66
1, 40313, Note_on_c, 0, 71, 91
1, 40313, Note_on_c, 0, 78, 97
1, 40315, Note_on_c, 0, 62, 76
1, 40315, Note_on_c, 0, 66, 97
1, 40318, Note_on_c, 0, 59, 71
1, 40330, Note_off_c, 0, 71, 71
1, 40335, Note_off_c, 0, 66, 70
1, 40337, Note_off_c, 0, 59, 67
1, 40342, Note_off_c, 0, 62, 68
1, 40350, Note_off_c, 0, 78, 66
1, 40635, Note_on_c, 0, 74, 84
1, 40643, Note_on_c, 0, 71, 75
1, 40648, Note_on_c, 0, 67, 67
1, 40666, Note_off_c, 0, 71, 68
1, 40667, Note_off_c, 0, 67, 65
1, 40669, Note_off_c, 0, 74, 62
1, 40944, Note_on_c, 0, 76, 102
1, 40945, Note_on_c, 0, 71, 94
1, 40950, Note_on_c, 0, 67, 96
1, 40951, Note_on_c, 0, 64, 83
1, 40958, Control_c, 0, 64, 39
1, 40973, Control_c, 0, 64, 72
1, 40988, Control_c, 0, 64, 127
1, 41303, Note_off_c, 0, 71, 61
1, 41310, Note_off_c, 0, 67, 63
1, 41312, Note_off_c, 0, 76, 62
1, 41320, Note_off_c, 0, 64, 63
1, 41582, Note_on_c, 0, 71, 78
1, 41584, Note_on_c, 0, 74, 90
1, 41588, Note_on_c, 0, 67, 80
1, 41588, Control_c, 0, 64, 82
1, 41603, Note_off_c, 0, 71, 70
1, 41603, Control_c, 0, 64, 57
1, 41609, Note_off_c, 0, 67, 71
1, 41611, Note_off_c, 0, 74, 64
1, 41617, Control_c, 0, 64, 0
1, 41939, Note_on_c, 0, 74, 70
1, 41942, Note_on_c, 0, 67, 69
1, 41943, Note_on_c, 0, 71, 67
1, 41963, Note_off_c, 0, 74, 66
1, 41967, Note_off_c, 0, 67, 69
1, 41969, Note_off_c, 0, 71, 67
1, 42022, Note_on_c, 0, 74, 88
1, 42035, Note_on_c, 0, 67, 72
1, 42036, Note_on_c, 0, 71, 78
1, 42045, Note_off_c, 0, 74, 65
1, 42057, Note_off_c, 0, 67, 69
1, 42059, Note_off_c, 0, 71, 67
1, 42106, Note_on_c, 0, 74, 96
1, 42124, Note_on_c, 0, 67, 84
1, 42137, Note_on_c, 0, 71, 71
1, 42142, Note_off_c, 0, 67, 73
1, 42150, Note_off_c, 0, 74, 66
1, 42162, Note_off_c, 0, 71, 64
1, 42188, Note_on_c, 0, 64, 85
1, 42193, Note_on_c, 0, 76, 95
1, 42197, Note_on_c, 0, 67, 93
1, 42203, Note_on_c, 0, 71, 67
1, 42213, Note_off_c, 0, 67, 76
1, 42219, Note_off_c, 0, 64, 65
1, 42223, Note_off_c, 0, 71, 62
1, 42233, Note_off_c, 0, 76, 67
1, 42500, Note_on_c, 0, 71, 83
1, 42502, Note_on_c, 0, 76, 95
1, 42506, Note_on_c, 0, 64, 73
1, 42509, Note_on_c, 0, 67, 78
1, 42520, Note_off_c, 0, 71, 69
1, 42529, Note_off_c, 0, 64, 68
1, 42530, Note_off_c, 0, 67, 71
1, 42538, Note_off_c, 0, 76, 65
1, 42803, Note_on_c, 0, 78, 91
1, 42805, Note_on_c, 0, 71, 92
1, 42807, Note_on_c, 0, 66, 91
1, 42810, Note_on_c, 0, 62, 74
1, 42814, Note_on_c, 0, 59, 59
1, 42822, Note_off_c, 0, 71, 72
1, 42826, Note_off_c, 0, 66, 73
1, 42836, Note_off_c, 0, 59, 60
1, 42836, Note_off_c, 0, 62, 67
1, 42845, Note_off_c, 0, 78, 65
1, 43123, Note_on_c, 0, 74, 95
1, 43126, Note_on_c, 0, 71, 79
1, 43129, Note_on_c, 0, 67, 78
1, 43149, Note_off_c, 0, 67, 72
1, 43149, Note_off_c, 0, 71, 68
1, 43161, Note_off_c, 0, 74, 66
1, 43426, Note_on_c, 0, 71, 94
1, 43426, Note_on_c, 0, 76, 104
1, 43427, Control_c, 0, 64, 45
1, 43429, Note_on_c, 0, 67, 103
1, 43432, Note_on_c, 0, 64, 82
1, 43442, Control_c, 0, 64, 79
1, 43457, Control_c, 0, 64, 127
1, 43460, Note_off_c, 0, 64, 68
1, 43463, Note_off_c, 0, 71, 63
1, 43469, Note_off_c, 0, 67, 68
1, 43511, Note_off_c, 0, 76, 63
1, 43820, Control_c, 0, 64, 102
1, 43835, Control_c, 0, 64, 68
1, 43850, Control_c, 0, 64, 0
1, 43879, Control_c, 0, 67, 47
1, 43894, Control_c, 0, 67, 81
1, 43909, Control_c, 0, 67, 106
1, 43924, Control_c, 0, 67, 110
1, 43938, Control_c, 0, 67, 113
1, 43953, Control_c, 0, 67, 119
1, 43968, Control_c, 0, 67, 127
1, 44062, Note_on_c, 0, 64, 63
1, 44127, Note_on_c, 0, 45, 61
1, 44130, Note_on_c, 0, 33, 57
1, 44134, Note_on_c, 0, 72, 74
1, 44156, Note_off_c, 0, 45, 63
1, 44157, Note_off_c, 0, 33, 58
1, 44166, Note_off_c, 0, 72, 58
1, 44302, Note_on_c, 0, 32, 42
1, 44303, Note_on_c, 0, 44, 30
1, 44341, Note_off_c, 0, 44, 43
1, 44341, Note_off_c, 0, 32, 47
1, 44359, Note_on_c, 0, 74, 69
1, 44417, Note_off_c, 0, 74, 57
1, 44428, Note_on_c, 0, 72, 78
1, 44433, Note_on_c, 0, 33, 50
1, 44446, Note_on_c, 0, 45, 39
1, 44465, Note_off_c, 0, 33, 48
1, 44476, Note_off_c, 0, 72, 61
1, 44481, Note_off_c, 0, 45, 43
1, 44568, Note_on_c, 0, 47, 54
1, 44573, Note_on_c, 0, 35, 47
1, 44603, Note_off_c, 0, 35, 50
1, 44603, Note_off_c, 0, 47, 64
1, 44644, Note_on_c, 0, 71, 68
1, 44696, Note_off_c, 0, 71, 55
1, 44701, Note_on_c, 0, 36, 59
1, 44703, Note_on_c, 0, 48, 63
1, 44709, Note_on_c, 0, 69, 69
1, 44730, Note_off_c, 0, 36, 59
1, 44732, Note_off_c, 0, 48, 64
1, 44744, Note_off_c, 0, 69, 60
1, 44849, Note_on_c, 0, 37, 56
1, 44854, Note_on_c, 0, 49, 50
1, 44870, Note_off_c, 0, 64, 63
1, 44880, Note_off_c, 0, 37, 60
1, 44881, Note_off_c, 0, 49, 58
1, 44914, Note_on_c, 0, 67, 66
1, 44960, Note_on_c, 0, 66, 84
1, 44960, Note_off_c, 0, 67, 62
1, 44971, Note_on_c, 0, 57, 66
1, 44976, Note_on_c, 0, 38, 63
1, 44978, Note_on_c, 0, 50, 59
1, 44997, Note_off_c, 0, 57, 64
1, 45000, Note_off_c, 0, 66, 64
1, 45007, Note_off_c, 0, 38, 64
1, 45009, Note_off_c, 0, 50, 65
1, 45130, Note_on_c, 0, 36, 63
1, 45135, Note_on_c, 0, 48, 60
1, 45162, Note_off_c, 0, 36, 63
1, 45165, Note_off_c, 0, 48, 63
1, 45212, Note_on_c, 0, 69, 65
1, 45259, Note_on_c, 0, 74, 76
1, 45265, Note_on_c, 0, 35, 67
1, 45266, Note_on_c, 0, 66, 80
1, 45271, Note_on_c, 0, 47, 54
1, 45271, Note_off_c, 0, 69, 63
1, 45295, Note_off_c, 0, 35, 65
1, 45299, Note_off_c, 0, 47, 54
1, 45314, Note_off_c, 0, 74, 55
1, 45417, Note_on_c, 0, 34, 57
1, 45427, Note_on_c, 0, 46, 44
1, 45447, Note_off_c, 0, 34, 59
1, 45457, Note_off_c, 0, 46, 51
1, 45490, Note_on_c, 0, 76, 71
1, 45549, Note_on_c, 0, 35, 57
1, 45552, Note_on_c, 0, 47, 57
1, 45556, Note_on_c, 0, 74, 79
1, 45559, Note_off_c, 0, 76, 59
1, 45578, Note_off_c, 0, 35, 60
1, 45583, Note_off_c, 0, 47, 64
1, 45609, Note_off_c, 0, 74, 63
1, 45687, Note_on_c, 0, 36, 58
1, 45689, Note_on_c, 0, 48, 64
1, 45719, Note_off_c, 0, 36, 63
1, 45722, Note_off_c, 0, 48, 62
1, 45760, Note_on_c, 0, 72, 70
1, 45803, Note_off_c, 0, 72, 65
1, 45817, Note_on_c, 0, 71, 81
1, 45828, Note_on_c, 0, 50, 59
1, 45830, Note_on_c, 0, 38, 56
1, 45857, Note_off_c, 0, 50, 66
1, 45869, Note_off_c, 0, 38, 62
1, 45877, Note_off_c, 0, 71, 57
1, 45962, Note_off_c, 0, 66, 64
1, 45966, Note_on_c, 0, 39, 71
1, 45971, Note_on_c, 0, 51, 63
1, 45999, Note_off_c, 0, 39, 64
1, 46005, Note_off_c, 0, 51, 62
1, 46041, Note_on_c, 0, 69, 70
1, 46087, Note_on_c, 0, 67, 83
1, 46094, Note_on_c, 0, 40, 69
1, 46094, Note_on_c, 0, 52, 70
1, 46105, Note_off_c, 0, 69, 59
1, 46112, Control_c, 0, 67, 122
1, 46117, Note_on_c, 0, 59, 47
1, 46126, Note_off_c, 0, 52, 66
1, 46127, Control_c, 0, 67, 114
1, 46127, Note_off_c, 0, 40, 63
1, 46130, Note_off_c, 0, 67, 64
1, 46141, Control_c, 0, 67, 112
1, 46144, Note_off_c, 0, 59, 36
1, 46186, Control_c, 0, 67, 109
1, 46228, Note_on_c, 0, 38, 70
1, 46232, Note_on_c, 0, 50, 64
1, 46260, Control_c, 0, 67, 107
1, 46265, Note_off_c, 0, 38, 61
1, 46265, Note_off_c, 0, 50, 64
1, 46294, Note_on_c, 0, 71, 76
1, 46328, Note_off_c, 0, 71, 61
1, 46334, Control_c, 0, 67, 101
1, 46348, Control_c, 0, 67, 92
1, 46356, Note_on_c, 0, 76, 88
1, 46360, Note_on_c, 0, 48, 84
1, 46363, Note_on_c, 0, 36, 80
1, 46363, Control_c, 0, 67, 92
1, 46366, Note_on_c, 0, 67, 73
1, 46385, Note_off_c, 0, 67, 68
1, 46393, Control_c, 0, 67, 91
1, 46401, Note_off_c, 0, 36, 63
1, 46402, Note_off_c, 0, 76, 63
1, 46403, Note_off_c, 0, 48, 62
1, 46408, Control_c, 0, 67, 89
1, 46423, Control_c, 0, 67, 89
1, 46452, Control_c, 0, 67, 89
1, 46482, Control_c, 0, 67, 89
1, 46506, Note_on_c, 0, 47, 73
1, 46507, Note_on_c, 0, 35, 76
1, 46541, Control_c, 0, 67, 88
1, 46542, Note_off_c, 0, 47, 64
1, 46544, Note_off_c, 0, 35, 64
1, 46556, Control_c, 0, 67, 87
1, 46571, Control_c, 0, 67, 84
1, 46580, Note_on_c, 0, 74, 84
1, 46585, Control_c, 0, 67, 77
1, 46600, Control_c, 0, 67, 68
1, 46622, Control_c, 0, 67, 60
1, 46637, Note_on_c, 0, 72, 102
1, 46638, Control_c, 0, 67, 48
1, 46640, Note_on_c, 0, 69, 90
1, 46642, Note_on_c, 0, 33, 86
1, 46644, Note_on_c, 0, 45, 86
1, 46653, Control_c, 0, 67, 35
1, 46661, Note_off_c, 0, 74, 64
1, 46668, Control_c, 0, 67, 0
1, 46674, Note_off_c, 0, 33, 65
1, 46683, Note_off_c, 0, 45, 63
1, 46774, Note_on_c, 0, 36, 76
1, 46777, Note_on_c, 0, 48, 82
1, 46806, Note_off_c, 0, 36, 68
1, 46816, Note_off_c, 0, 48, 64
1, 46848, Note_on_c, 0, 76, 82
1, 46860, Note_off_c, 0, 72, 56
1, 46905, Note_on_c, 0, 50, 81
1, 46905, Note_on_c, 0, 78, 91
1, 46908, Note_on_c, 0, 38, 85
1, 46926, Note_off_c, 0, 76, 63
1, 46929, Note_off_c, 0, 69, 63
1, 46942, Note_off_c, 0, 38, 67
1, 46953, Note_off_c, 0, 50, 63
1, 46953, Note_off_c, 0, 78, 63
1, 47049, Note_on_c, 0, 52, 76
1, 47050, Note_on_c, 0, 40, 67
1, 47075, Note_off_c, 0, 40, 65
1, 47089, Note_off_c, 0, 52, 63
1, 47125, Note_on_c, 0, 76, 78
1, 47172, Note_on_c, 0, 74, 93
1, 47175, Note_on_c, 0, 62, 98
1, 47180, Note_on_c, 0, 54, 83
1, 47180, Note_on_c, 0, 69, 92
1, 47182, Note_on_c, 0, 42, 92
1, 47198, Note_off_c, 0, 76, 67
1, 47202, Note_off_c, 0, 62, 68
1, 47209, Note_off_c, 0, 69, 66
1, 47211, Note_off_c, 0, 42, 69
1, 47211, Note_off_c, 0, 54, 64
1, 47228, Note_off_c, 0, 74, 67
1, 47322, Note_on_c, 0, 50, 86
1, 47323, Note_on_c, 0, 38, 82
1, 47362, Note_off_c, 0, 38, 63
1, 47364, Note_off_c, 0, 50, 65
1, 47387, Note_on_c, 0, 66, 88
1, 47401, Note_on_c, 0, 77, 59
1, 47407, Note_off_c, 0, 66, 73
1, 47420, Note_off_c, 0, 77, 61
1, 47450, Note_on_c, 0, 47, 102
1, 47452, Note_on_c, 0, 35, 98
1, 47457, Note_on_c, 0, 74, 98
1, 47457, Note_on_c, 0, 79, 94
1, 47458, Note_on_c, 0, 67, 114
1, 47487, Note_off_c, 0, 35, 64
1, 47489, Note_off_c, 0, 74, 70
1, 47490, Note_off_c, 0, 67, 68
1, 47492, Note_off_c, 0, 47, 68
1, 47502, Note_off_c, 0, 79, 70
1, 47623, Note_on_c, 0, 59, 78
1, 47628, Note_on_c, 0, 47, 71
1, 47647, Note_off_c, 0, 59, 68
1, 47655, Note_off_c, 0, 47, 66
1, 47673, Note_on_c, 0, 66, 83
1, 47685, Note_on_c, 0, 75, 60
1, 47693, Note_off_c, 0, 66, 71
1, 47704, Note_off_c, 0, 75, 62
1, 47722, Note_on_c, 0, 50, 96
1, 47723, Note_on_c, 0, 57, 92
1, 47734, Note_on_c, 0, 45, 60
1, 47740, Note_on_c, 0, 76, 97
1, 47743, Note_on_c, 0, 64, 105
1, 47751, Note_off_c, 0, 57, 67
1, 47752, Note_on_c, 0, 72, 77
1, 47761, Note_off_c, 0, 45, 63
1, 47764, Note_off_c, 0, 50, 67
1, 47774, Note_off_c, 0, 64, 70
1, 47774, Note_off_c, 0, 72, 69
1, 47777, Note_on_c, 0, 74, 41
1, 47780, Note_on_c, 0, 52, 14
1, 47782, Note_off_c, 0, 76, 67
1, 47806, Note_off_c, 0, 74, 34
1, 47818, Note_off_c, 0, 52, 34
1, 47868, Note_on_c, 0, 38, 93
1, 47874, Note_on_c, 0, 50, 85
1, 47895, Note_off_c, 0, 38, 70
1, 47903, Note_off_c, 0, 50, 67
1, 47951, Note_on_c, 0, 66, 82
1, 47955, Note_on_c, 0, 78, 69
1, 47973, Note_off_c, 0, 66, 71
1, 47980, Note_off_c, 0, 78, 67
1, 47999, Note_on_c, 0, 50, 98
1, 48000, Note_on_c, 0, 43, 100
1, 48002, Note_on_c, 0, 55, 94
1, 48011, Note_on_c, 0, 71, 105
1, 48011, Note_on_c, 0, 79, 97
1, 48013, Note_on_c, 0, 67, 97
1, 48021, Note_off_c, 0, 55, 72
1, 48023, Note_off_c, 0, 50, 70
1, 48041, Note_off_c, 0, 67, 67
1, 48043, Note_off_c, 0, 43, 62
1, 48044, Note_off_c, 0, 71, 62
1, 48047, Note_off_c, 0, 79, 66
1, 48300, Note_on_c, 0, 31, 87
1, 48302, Note_on_c, 0, 38, 95
1, 48302, Note_on_c, 0, 43, 90
1, 48308, Note_on_c, 0, 59, 105
1, 48313, Control_c, 0, 64, 62
1, 48322, Note_on_c, 0, 55, 69
1, 48327, Note_off_c, 0, 31, 70
1, 48328, Control_c, 0, 64, 127
1, 48330, Note_off_c, 0, 59, 70
1, 48331, Note_off_c, 0, 43, 67
1, 48342, Note_off_c, 0, 38, 59
1, 48342, Note_off_c, 0, 55, 63
1, 48417, Control_c, 0, 64, 80
1, 48432, Control_c, 0, 64, 50
1, 48447, Control_c, 0, 64, 0
1, 48506, Control_c, 0, 67, 35
1, 48521, Control_c, 0, 67, 38
1, 48536, Control_c, 0, 67, 41
1, 48551, Control_c, 0, 67, 52
1, 48566, Control_c, 0, 67, 81
1, 48581, Control_c, 0, 67, 116
1, 48596, Control_c, 0, 67, 127
1, 48632, Note_on_c, 0, 52, 61
1, 48636, Note_on_c, 0, 79, 59
1, 48637, Note_on_c, 0, 59, 49
1, 48647, Note_on_c, 0, 55, 29
1, 48653, Note_off_c, 0, 79, 66
1, 48662, Note_off_c, 0, 52, 64
1, 48662, Note_off_c, 0, 59, 36
1, 48681, Note_on_c, 0, 79, 70
1, 48695, Note_off_c, 0, 55, 28
1, 48708, Note_off_c, 0, 79, 65
1, 48753, Note_on_c, 0, 40, 57
1, 48767, Note_on_c, 0, 79, 72
1, 48779, Note_off_c, 0, 40, 55
1, 48786, Note_off_c, 0, 79, 73
1, 48820, Note_on_c, 0, 79, 72
1, 48870, Note_off_c, 0, 79, 66
1, 48892, Note_on_c, 0, 55, 72
1, 48899, Note_on_c, 0, 78, 70
1, 48900, Note_on_c, 0, 59, 63
1, 48908, Note_on_c, 0, 52, 50
1, 48918, Note_off_c, 0, 55, 67
1, 48921, Note_off_c, 0, 59, 62
1, 48933, Note_off_c, 0, 78, 62
1, 48934, Note_off_c, 0, 52, 58
1, 48968, Note_on_c, 0, 76, 63
1, 48992, Note_off_c, 0, 76, 60
1, 49031, Note_on_c, 0, 40, 60
1, 49046, Note_on_c, 0, 74, 74
1, 49057, Note_off_c, 0, 40, 59
1, 49068, Note_off_c, 0, 74, 71
1, 49115, Note_on_c, 0, 72, 70
1, 49147, Note_off_c, 0, 72, 64
1, 49180, Note_on_c, 0, 59, 59
1, 49186, Note_on_c, 0, 55, 46
1, 49186, Note_on_c, 0, 52, 51
1, 49189, Note_on_c, 0, 71, 68
1, 49201, Note_off_c, 0, 59, 62
1, 49212, Note_off_c, 0, 52, 59
1, 49213, Note_off_c, 0, 71, 67
1, 49221, Note_off_c, 0, 55, 33
1, 49245, Note_on_c, 0, 71, 73
1, 49270, Note_off_c, 0, 71, 66
1, 49310, Note_on_c, 0, 40, 71
1, 49329, Note_on_c, 0, 71, 68
1, 49340, Note_off_c, 0, 40, 63
1, 49352, Note_off_c, 0, 71, 68
1, 49393, Note_on_c, 0, 71, 79
1, 49417, Note_off_c, 0, 71, 65
1, 49450, Note_on_c, 0, 56, 75
1, 49451, Note_on_c, 0, 62, 74
1, 49455, Note_on_c, 0, 52, 63
1, 49465, Note_on_c, 0, 71, 61
1, 49475, Note_off_c, 0, 62, 66
1, 49475, Note_off_c, 0, 56, 66
1, 49481, Note_off_c, 0, 52, 65
1, 49490, Note_off_c, 0, 71, 67
1, 49525, Note_on_c, 0, 72, 61
1, 49552, Note_off_c, 0, 72, 67
1, 49581, Note_on_c, 0, 40, 75
1, 49581, Note_on_c, 0, 71, 73
1, 49612, Note_off_c, 0, 71, 67
1, 49612, Note_off_c, 0, 40, 65
1, 49659, Note_on_c, 0, 72, 69
1, 49689, Note_off_c, 0, 72, 62
1, 49728, Note_on_c, 0, 69, 77
1, 49737, Note_on_c, 0, 61, 65
1, 49738, Note_on_c, 0, 52, 66
1, 49753, Note_off_c, 0, 69, 66
1, 49758, Note_off_c, 0, 61, 65
1, 49764, Note_off_c, 0, 52, 65
1, 49799, Note_on_c, 0, 69, 62
1, 49822, Note_off_c, 0, 69, 68
1, 49865, Note_on_c, 0, 69, 74
1, 49866, Note_on_c, 0, 40, 78
1, 49892, Note_off_c, 0, 40, 66
1, 49898, Note_off_c, 0, 69, 65
1, 49948, Note_on_c, 0, 69, 74
1, 49982, Note_off_c, 0, 69, 65
1, 50005, Note_on_c, 0, 52, 70
1, 50005, Note_on_c, 0, 60, 74
1, 50006, Note_on_c, 0, 57, 70
1, 50024, Note_off_c, 0, 57, 66
1, 50026, Note_on_c, 0, 69, 63
1, 50029, Note_off_c, 0, 60, 69
1, 50034, Note_off_c, 0, 52, 66
1, 50053, Note_off_c, 0, 69, 65
1, 50097, Note_on_c, 0, 71, 52
1, 50120, Note_off_c, 0, 71, 57
1, 50125, Note_on_c, 0, 40, 79
1, 50149, Note_on_c, 0, 69, 78
1, 50152, Note_off_c, 0, 40, 68
1, 50170, Note_off_c, 0, 69, 68
1, 50215, Note_on_c, 0, 71, 67
1, 50247, Note_off_c, 0, 71, 60
1, 50260, Note_on_c, 0, 52, 83
1, 50265, Note_on_c, 0, 59, 78
1, 50267, Note_on_c, 0, 55, 73
1, 50273, Note_on_c, 0, 67, 75
1, 50286, Note_off_c, 0, 55, 65
1, 50289, Note_off_c, 0, 52, 66
1, 50289, Note_off_c, 0, 59, 68
1, 50310, Note_off_c, 0, 67, 62
1, 50356, Note_on_c, 0, 69, 71
1, 50391, Note_off_c, 0, 69, 62
1, 50411, Note_on_c, 0, 38, 58
1, 50424, Note_on_c, 0, 66, 75
1, 50438, Note_off_c, 0, 38, 56
1, 50460, Note_on_c, 0, 40, 3
1, 50464, Note_off_c, 0, 66, 62
1, 50497, Note_off_c, 0, 40, 26
1, 50503, Note_on_c, 0, 67, 51
1, 50527, Note_off_c, 0, 67, 62
1, 50545, Note_on_c, 0, 57, 74
1, 50552, Note_on_c, 0, 64, 68
1, 50555, Note_on_c, 0, 48, 66
1, 50575, Note_off_c, 0, 57, 65
1, 50580, Note_off_c, 0, 64, 68
1, 50632, Note_on_c, 0, 66, 62
1, 50641, Note_off_c, 0, 48, 57
1, 50663, Note_off_c, 0, 66, 67
1, 50670, Note_on_c, 0, 40, 73
1, 50684, Note_on_c, 0, 63, 72
1, 50710, Note_off_c, 0, 63, 68
1, 50715, Note_off_c, 0, 40, 63
1, 50742, Note_on_c, 0, 66, 75
1, 50785, Note_off_c, 0, 66, 63
1, 50807, Note_on_c, 0, 67, 62
1, 50826, Note_on_c, 0, 28, 38
1, 50826, Note_off_c, 0, 67, 62
1, 50860, Note_on_c, 0, 67, 75
1, 50860, Note_off_c, 0, 28, 51
1, 50882, Note_off_c, 0, 67, 69
1, 50886, Control_c, 0, 67, 125
1, 50901, Control_c, 0, 67, 77
1, 50916, Control_c, 0, 67, 0
1, 50927, Note_on_c, 0, 79, 79
1, 50933, Note_on_c, 0, 28, 81
1, 50942, Note_on_c, 0, 71, 72
1, 50958, Note_on_c, 0, 69, 57
1, 50964, Note_off_c, 0, 28, 64
1, 50965, Note_off_c, 0, 79, 64
1, 50967, Note_off_c, 0, 71, 68
1, 50980, Note_off_c, 0, 69, 61
1, 50998, Note_on_c, 0, 67, 80
1, 51037, Note_off_c, 0, 67, 65
1, 51051, Note_on_c, 0, 47, 74
1, 51070, Note_on_c, 0, 66, 85
1, 51075, Note_off_c, 0, 47, 66
1, 51116, Note_off_c, 0, 66, 63
1, 51140, Note_on_c, 0, 64, 76
1, 51162, Note_off_c, 0, 64, 69
1, 51196, Note_on_c, 0, 55, 78
1, 51198, Note_on_c, 0, 52, 73
1, 51204, Note_on_c, 0, 62, 85
1, 51210, Note_on_c, 0, 71, 77
1, 51219, Note_off_c, 0, 55, 67
1, 51226, Note_off_c, 0, 52, 66
1, 51237, Note_off_c, 0, 71, 61
1, 51243, Note_off_c, 0, 62, 65
1, 51275, Note_on_c, 0, 60, 78
1, 51299, Note_off_c, 0, 60, 70
1, 51318, Note_on_c, 0, 59, 93
1, 51343, Note_off_c, 0, 59, 69
1, 51391, Note_on_c, 0, 59, 84
1, 51416, Note_off_c, 0, 59, 69
1, 51453, Note_on_c, 0, 40, 79
1, 51459, Note_on_c, 0, 64, 95
1, 51462, Note_on_c, 0, 71, 86
1, 51463, Note_on_c, 0, 67, 82
1, 51483, Note_off_c, 0, 40, 65
1, 51508, Note_off_c, 0, 64, 67
1, 51510, Note_on_c, 0, 59, 90
1, 51521, Note_off_c, 0, 67, 65
1, 51526, Note_off_c, 0, 71, 62
1, 51539, Note_off_c, 0, 59, 66
1, 51571, Note_on_c, 0, 59, 96
1, 51572, Note_on_c, 0, 56, 103
1, 51573, Note_on_c, 0, 50, 95
1, 51588, Note_off_c, 0, 56, 75
1, 51589, Note_off_c, 0, 59, 70
1, 51597, Note_off_c, 0, 50, 69
1, 51672, Note_on_c, 0, 60, 74
1, 51672, Note_on_c, 0, 59, 73
1, 51696, Note_off_c, 0, 60, 69
1, 51697, Note_off_c, 0, 59, 67
1, 51740, Note_on_c, 0, 59, 84
1, 51773, Note_off_c, 0, 59, 63
1, 51794, Note_on_c, 0, 60, 61
1, 51820, Note_off_c, 0, 60, 65
1, 51859, Note_on_c, 0, 49, 71
1, 51862, Note_on_c, 0, 57, 65
1, 51882, Note_off_c, 0, 57, 65
1, 51890, Note_off_c, 0, 49, 67
1, 51939, Control_c, 0, 67, 35
1, 51947, Note_on_c, 0, 57, 61
1, 51954, Control_c, 0, 67, 42
1, 51967, Note_off_c, 0, 57, 64
1, 51968, Control_c, 0, 67, 37
1, 51998, Control_c, 0, 67, 40
1, 52001, Note_on_c, 0, 40, 51
1, 52006, Note_on_c, 0, 61, 67
1, 52012, Control_c, 0, 67, 47
1, 52020, Note_on_c, 0, 69, 50
1, 52030, Note_off_c, 0, 40, 52
1, 52042, Control_c, 0, 67, 44
1, 52048, Note_off_c, 0, 61, 63
1, 52053, Note_off_c, 0, 69, 65
1, 52057, Control_c, 0, 67, 45
1, 52071, Note_on_c, 0, 57, 66
1, 52072, Control_c, 0, 67, 50
1, 52086, Control_c, 0, 67, 64
1, 52099, Note_off_c, 0, 57, 65
1, 52101, Control_c, 0, 67, 89
1, 52116, Control_c, 0, 67, 94
1, 52131, Note_on_c, 0, 48, 80
1, 52131, Control_c, 0, 67, 95
1, 52137, Note_on_c, 0, 52, 64
1, 52146, Control_c, 0, 67, 99
1, 52153, Note_on_c, 0, 57, 41
1, 52155, Note_off_c, 0, 48, 66
1, 52159, Note_off_c, 0, 52, 60
1, 52161, Control_c, 0, 67, 116
1, 52176, Control_c, 0, 67, 127
1, 52182, Note_off_c, 0, 57, 52
1, 52217, Note_on_c, 0, 59, 73
1, 52245, Note_off_c, 0, 59, 67
1, 52277, Note_on_c, 0, 57, 70
1, 52312, Note_off_c, 0, 57, 65
1, 52344, Note_on_c, 0, 59, 42
1, 52372, Note_off_c, 0, 59, 55
1, 52394, Note_on_c, 0, 55, 75
1, 52420, Note_off_c, 0, 55, 66
1, 52420, Note_on_c, 0, 47, 45
1, 52456, Note_off_c, 0, 47, 52
1, 52465, Note_on_c, 0, 57, 46
1, 52492, Note_off_c, 0, 57, 52
1, 52504, Poly_aftertouch_c, 0, 59, 127
1, 52518, Note_on_c, 0, 60, 62
1, 52537, Poly_aftertouch_c, 0, 59, 0
1, 52540, Note_on_c, 0, 64, 40
1, 52542, Note_on_c, 0, 47, 61
1, 52545, Note_off_c, 0, 60, 66
1, 52558, Note_on_c, 0, 54, 48
1, 52569, Note_off_c, 0, 64, 57
1, 52589, Note_off_c, 0, 54, 64
1, 52596, Note_off_c, 0, 47, 56
1, 52598, Note_on_c, 0, 55, 42
1, 52648, Note_off_c, 0, 55, 30
1, 52669, Note_on_c, 0, 40, 65
1, 52669, Note_on_c, 0, 52, 74
1, 52691, Note_off_c, 0, 52, 67
1, 52699, Note_off_c, 0, 40, 63
1, 52766, Note_on_c, 0, 79, 63
1, 52790, Note_off_c, 0, 79, 69
1, 52814, Note_on_c, 0, 83, 82
1, 52851, Note_off_c, 0, 83, 66
1, 52894, Note_on_c, 0, 88, 84
1, 52934, Note_off_c, 0, 88, 65
1, 52960, Note_on_c, 0, 91, 74
1, 52975, Note_on_c, 0, 59, 57
1, 52976, Note_on_c, 0, 64, 61
1, 52978, Note_on_c, 0, 55, 49
1, 52996, Note_off_c, 0, 91, 69
1, 52998, Note_off_c, 0, 59, 63
1, 53004, Note_off_c, 0, 64, 66
1, 53011, Note_off_c, 0, 55, 64
1, 53029, Note_on_c, 0, 91, 70
1, 53061, Note_off_c, 0, 91, 66
1, 53097, Note_on_c, 0, 52, 66
1, 53097, Note_on_c, 0, 91, 75
1, 53123, Note_off_c, 0, 52, 65
1, 53127, Note_off_c, 0, 91, 68
1, 53149, Note_on_c, 0, 89, 4
1, 53149, Note_off_c, 0, 89, 127
1, 53162, Note_on_c, 0, 91, 76
1, 53210, Note_off_c, 0, 91, 66
1, 53231, Note_on_c, 0, 90, 71
1, 53238, Note_on_c, 0, 64, 58
1, 53240, Note_on_c, 0, 67, 62
1, 53260, Note_off_c, 0, 64, 63
1, 53260, Note_off_c, 0, 90, 65
1, 53267, Note_off_c, 0, 67, 65
1, 53267, Note_on_c, 0, 60, 21
1, 53301, Note_on_c, 0, 88, 73
1, 53306, Note_off_c, 0, 60, 31
1, 53324, Note_off_c, 0, 88, 68
1, 53376, Note_on_c, 0, 52, 65
1, 53380, Note_on_c, 0, 86, 73
1, 53403, Note_off_c, 0, 86, 69
1, 53403, Note_off_c, 0, 52, 64
1, 53457, Note_on_c, 0, 84, 68
1, 53480, Note_off_c, 0, 84, 71
1, 53522, Note_on_c, 0, 64, 74
1, 53534, Note_on_c, 0, 71, 51
1, 53534, Note_on_c, 0, 83, 61
1, 53543, Note_on_c, 0, 67, 34
1, 53547, Note_off_c, 0, 64, 68
1, 53551, Note_off_c, 0, 83, 65
1, 53558, Note_off_c, 0, 71, 58
1, 53578, Note_off_c, 0, 67, 33
1, 53598, Note_on_c, 0, 83, 57
1, 53618, Note_off_c, 0, 83, 61
1, 53666, Note_on_c, 0, 83, 72
1, 53679, Note_on_c, 0, 52, 49
1, 53688, Note_off_c, 0, 83, 70
1, 53710, Note_off_c, 0, 52, 55
1, 53736, Note_on_c, 0, 83, 75
1, 53779, Note_off_c, 0, 83, 0
1, 53805, Note_on_c, 0, 74, 81
1, 53809, Note_on_c, 0, 68, 65
1, 53812, Note_on_c, 0, 64, 60
1, 53817, Poly_aftertouch_c, 0, 83, 127
1, 53826, Note_off_c, 0, 74, 72
1, 53831, Poly_aftertouch_c, 0, 83, 0
1, 53836, Note_off_c, 0, 68, 69
1, 53842, Note_off_c, 0, 64, 66
1, 53850, Note_on_c, 0, 84, 70
1, 53877, Note_off_c, 0, 84, 65
1, 53916, Note_on_c, 0, 83, 76
1, 53935, Note_off_c, 0, 83, 71
1, 53960, Note_on_c, 0, 52, 53
1, 53968, Note_on_c, 0, 84, 71
1, 53987, Note_off_c, 0, 52, 58
1, 54003, Note_off_c, 0, 84, 59
1, 54045, Note_on_c, 0, 81, 71
1, 54068, Note_off_c, 0, 81, 69
1, 54082, Note_on_c, 0, 65, 71
1, 54082, Note_on_c, 0, 70, 71
1, 54089, Note_on_c, 0, 73, 64
1, 54113, Note_off_c, 0, 70, 71
1, 54113, Note_off_c, 0, 65, 69
1, 54115, Note_off_c, 0, 73, 65
1, 54131, Note_on_c, 0, 81, 65
1, 54142, Note_on_c, 0, 83, 56
1, 54156, Note_off_c, 0, 81, 69
1, 54160, Note_off_c, 0, 83, 62
1, 54210, Note_on_c, 0, 81, 70
1, 54224, Note_on_c, 0, 52, 89
1, 54232, Note_on_c, 0, 79, 41
1, 54235, Note_off_c, 0, 81, 69
1, 54245, Note_off_c, 0, 52, 70
1, 54259, Note_off_c, 0, 79, 58
1, 54283, Note_on_c, 0, 81, 76
1, 54325, Note_off_c, 0, 81, 65
1, 54350, Note_on_c, 0, 64, 92
1, 54352, Note_on_c, 0, 72, 95
1, 54353, Note_on_c, 0, 81, 70
1, 54355, Note_on_c, 0, 69, 85
1, 54373, Note_off_c, 0, 69, 74
1, 54374, Note_off_c, 0, 72, 64
1, 54376, Note_on_c, 0, 68, 48
1, 54390, Note_off_c, 0, 64, 68
1, 54392, Note_off_c, 0, 81, 66
1, 54399, Note_off_c, 0, 68, 58
1, 54450, Note_on_c, 0, 83, 67
1, 54474, Note_off_c, 0, 83, 66
1, 54483, Note_on_c, 0, 53, 80
1, 54492, Note_on_c, 0, 52, 70
1, 54501, Note_off_c, 0, 53, 71
1, 54502, Note_on_c, 0, 81, 47
1, 54520, Note_off_c, 0, 52, 66
1, 54525, Note_off_c, 0, 81, 58
1, 54551, Note_on_c, 0, 83, 71
1, 54582, Note_off_c, 0, 83, 63
1, 54611, Note_on_c, 0, 79, 80
1, 54615, Note_on_c, 0, 71, 91
1, 54617, Note_on_c, 0, 64, 85
1, 54619, Note_on_c, 0, 67, 81
1, 54622, Note_on_c, 0, 63, 71
1, 54636, Note_off_c, 0, 71, 68
1, 54638, Note_off_c, 0, 67, 73
1, 54640, Note_off_c, 0, 63, 64
1, 54645, Note_off_c, 0, 64, 65
1, 54656, Note_off_c, 0, 79, 65
1, 54683, Note_on_c, 0, 81, 71
1, 54728, Note_off_c, 0, 81, 63
1, 54749, Note_on_c, 0, 78, 81
1, 54751, Note_on_c, 0, 52, 73
1, 54773, Note_off_c, 0, 52, 63
1, 54781, Note_on_c, 0, 50, 35
1, 54781, Note_off_c, 0, 50, 127
1, 54799, Note_off_c, 0, 78, 60
1, 54821, Control_c, 0, 67, 115
1, 54822, Note_on_c, 0, 79, 68
1, 54836, Control_c, 0, 67, 106
1, 54856, Note_off_c, 0, 79, 67
1, 54873, Control_c, 0, 67, 99
1, 54888, Note_on_c, 0, 76, 68
1, 54888, Control_c, 0, 67, 85
1, 54890, Note_on_c, 0, 69, 83
1, 54896, Note_on_c, 0, 60, 75
1, 54903, Control_c, 0, 67, 64
1, 54918, Control_c, 0, 67, 44
1, 54918, Note_off_c, 0, 76, 64
1, 54919, Note_off_c, 0, 69, 60
1, 54930, Note_off_c, 0, 60, 64
1, 54933, Control_c, 0, 67, 0
1, 54975, Note_on_c, 0, 78, 65
1, 55002, Note_off_c, 0, 78, 67
1, 55036, Note_on_c, 0, 50, 58
1, 55040, Note_on_c, 0, 52, 44
1, 55043, Note_on_c, 0, 75, 72
1, 55061, Note_off_c, 0, 50, 59
1, 55070, Note_off_c, 0, 52, 56
1, 55070, Note_off_c, 0, 75, 67
1, 55118, Note_on_c, 0, 78, 53
1, 55141, Note_off_c, 0, 78, 56
1, 55173, Note_on_c, 0, 67, 85
1, 55174, Note_on_c, 0, 55, 88
1, 55181, Note_on_c, 0, 59, 64
1, 55185, Control_c, 0, 64, 53
1, 55191, Note_off_c, 0, 67, 74
1, 55200, Control_c, 0, 64, 127
1, 55204, Note_off_c, 0, 59, 63
1, 55204, Note_off_c, 0, 55, 64
1, 55257, Note_on_c, 0, 67, 78
1, 55282, Note_off_c, 0, 67, 61
1, 55319, Note_on_c, 0, 40, 93
1, 55319, Note_on_c, 0, 71, 88
1, 55323, Note_on_c, 0, 79, 82
1, 55344, Note_off_c, 0, 40, 67
1, 55383, Note_on_c, 0, 67, 91
1, 55395, Note_off_c, 0, 71, 63
1, 55395, Note_off_c, 0, 79, 58
1, 55426, Note_off_c, 0, 67, 66
1, 55472, Note_on_c, 0, 66, 90
1, 55476, Note_on_c, 0, 54, 74
1, 55490, Note_off_c, 0, 66, 74
1, 55499, Note_off_c, 0, 54, 67
1, 55557, Note_on_c, 0, 52, 93
1, 55561, Note_on_c, 0, 64, 87
1, 55580, Note_off_c, 0, 64, 73
1, 55586, Note_off_c, 0, 52, 65
1, 55613, Note_on_c, 0, 71, 91
1, 55614, Note_on_c, 0, 62, 84
1, 55623, Control_c, 0, 64, 116
1, 55624, Note_on_c, 0, 67, 80
1, 55635, Note_off_c, 0, 62, 72
1, 55638, Control_c, 0, 64, 68
1, 55640, Note_off_c, 0, 67, 74
1, 55646, Note_off_c, 0, 71, 64
1, 55652, Control_c, 0, 64, 0
1, 55672, Note_on_c, 0, 50, 93
1, 55678, Note_on_c, 0, 62, 96
1, 55681, Note_on_c, 0, 60, 84
1, 55702, Note_off_c, 0, 60, 73
1, 55702, Note_off_c, 0, 62, 69
1, 55708, Note_off_c, 0, 50, 68
1, 55762, Note_on_c, 0, 59, 96
1, 55764, Note_on_c, 0, 47, 104
1, 55783, Note_off_c, 0, 59, 72
1, 55798, Note_off_c, 0, 47, 68
1, 55819, Note_on_c, 0, 59, 89
1, 55833, Note_on_c, 0, 68, 59
1, 55851, Note_off_c, 0, 59, 68
1, 55854, Note_off_c, 0, 68, 62
1, 55860, Note_on_c, 0, 60, 5
1, 55860, Note_off_c, 0, 60, 127
1, 55884, Note_on_c, 0, 29, 99
1, 55895, Note_on_c, 0, 67, 92
1, 55897, Note_on_c, 0, 64, 97
1, 55897, Note_on_c, 0, 71, 78
1, 55907, Note_off_c, 0, 29, 71
1, 55926, Note_on_c, 0, 66, 39
1, 55926, Note_off_c, 0, 66, 127
1, 55954, Note_on_c, 0, 59, 96
1, 55965, Note_off_c, 0, 64, 66
1, 55971, Note_off_c, 0, 67, 62
1, 55976, Note_off_c, 0, 71, 60
1, 55999, Note_off_c, 0, 59, 67
1, 56023, Note_on_c, 0, 50, 106
1, 56026, Note_on_c, 0, 59, 99
1, 56027, Note_on_c, 0, 56, 89
1, 56027, Note_off_c, 0, 56, 127
1, 56041, Note_on_c, 0, 57, 81
1, 56044, Note_off_c, 0, 59, 72
1, 56057, Note_off_c, 0, 57, 68
1, 56058, Note_off_c, 0, 50, 67
1, 56067, Control_c, 0, 67, 68
1, 56082, Control_c, 0, 67, 90
1, 56097, Control_c, 0, 67, 92
1, 56112, Control_c, 0, 67, 103
1, 56122, Note_on_c, 0, 60, 74
1, 56126, Control_c, 0, 67, 127
1, 56146, Note_off_c, 0, 60, 70
1, 56184, Note_on_c, 0, 59, 82
1, 56227, Note_off_c, 0, 59, 62
1, 56240, Note_on_c, 0, 60, 68
1, 56266, Note_off_c, 0, 60, 68
1, 56303, Note_on_c, 0, 57, 76
1, 56313, Note_on_c, 0, 52, 70
1, 56315, Note_on_c, 0, 49, 72
1, 56330, Note_off_c, 0, 57, 69
1, 56340, Note_off_c, 0, 52, 65
1, 56352, Note_off_c, 0, 49, 66
1, 56394, Note_on_c, 0, 57, 78
1, 56420, Note_off_c, 0, 57, 66
1, 56458, Note_on_c, 0, 40, 68
1, 56463, Note_on_c, 0, 61, 68
1, 56480, Note_on_c, 0, 69, 44
1, 56486, Note_off_c, 0, 40, 62
1, 56504, Note_on_c, 0, 57, 72
1, 56507, Note_off_c, 0, 69, 57
1, 56508, Note_off_c, 0, 61, 61
1, 56538, Note_off_c, 0, 57, 66
1, 56593, Note_on_c, 0, 48, 86
1, 56593, Note_on_c, 0, 52, 85
1, 56596, Note_on_c, 0, 57, 76
1, 56612, Note_on_c, 0, 50, 54
1, 56616, Note_off_c, 0, 52, 70
1, 56622, Note_off_c, 0, 48, 67
1, 56623, Note_off_c, 0, 57, 67
1, 56641, Note_off_c, 0, 50, 36
1, 56659, Note_on_c, 0, 59, 81
1, 56686, Note_off_c, 0, 59, 66
1, 56736, Note_on_c, 0, 57, 63
1, 56775, Note_off_c, 0, 57, 66
1, 56786, Note_on_c, 0, 59, 59
1, 56814, Note_off_c, 0, 59, 65
1, 56861, Note_on_c, 0, 55, 83
1, 56862, Note_on_c, 0, 47, 72
1, 56885, Note_on_c, 0, 40, 44
1, 56888, Note_off_c, 0, 55, 65
1, 56900, Note_off_c, 0, 47, 65
1, 56917, Note_on_c, 0, 57, 70
1, 56917, Note_off_c, 0, 40, 51
1, 56953, Note_off_c, 0, 57, 65
1, 56999, Note_on_c, 0, 60, 51
1, 57011, Note_on_c, 0, 47, 67
1, 57020, Note_on_c, 0, 64, 39
1, 57020, Note_on_c, 0, 54, 68
1, 57024, Note_off_c, 0, 60, 59
1, 57051, Note_off_c, 0, 54, 65
1, 57051, Note_off_c, 0, 64, 54
1, 57052, Note_off_c, 0, 47, 64
1, 57068, Note_on_c, 0, 55, 73
1, 57100, Note_off_c, 0, 55, 68
1, 57145, Note_on_c, 0, 52, 74
1, 57148, Note_on_c, 0, 47, 78
1, 57151, Note_on_c, 0, 40, 79
1, 57170, Note_off_c, 0, 52, 65
1, 57172, Note_off_c, 0, 47, 67
1, 57180, Note_off_c, 0, 40, 67
1, 57215, Note_on_c, 0, 66, 69
1, 57242, Note_off_c, 0, 66, 67
1, 57305, Note_on_c, 0, 67, 74
1, 57327, Note_off_c, 0, 67, 71
1, 57362, Note_on_c, 0, 71, 93
1, 57377, Note_on_c, 0, 31, 12
1, 57392, Note_on_c, 0, 35, 83
1, 57408, Note_on_c, 0, 74, 109
1, 57409, Note_on_c, 0, 67, 100
1, 57410, Note_off_c, 0, 31, 53
1, 57419, Note_off_c, 0, 71, 65
1, 57426, Note_off_c, 0, 67, 70
1, 57429, Note_on_c, 0, 36, 80
1, 57430, Note_off_c, 0, 35, 63
1, 57431, Control_c, 0, 64, 50
1, 57431, Control_c, 0, 67, 85
1, 57437, Note_off_c, 0, 74, 72
1, 57446, Control_c, 0, 64, 127
1, 57446, Control_c, 0, 67, 0
1, 57464, Note_off_c, 0, 36, 65
1, 57475, Note_on_c, 0, 38, 73
1, 57504, Note_off_c, 0, 38, 64
1, 57532, Note_on_c, 0, 40, 80
1, 57562, Note_on_c, 0, 42, 82
1, 57586, Note_off_c, 0, 40, 62
1, 57612, Note_on_c, 0, 43, 84
1, 57623, Note_off_c, 0, 42, 62
1, 57654, Note_off_c, 0, 43, 62
1, 57677, Note_on_c, 0, 45, 88
1, 57711, Note_on_c, 0, 47, 82
1, 57719, Note_off_c, 0, 45, 62
1, 57735, Note_on_c, 0, 74, 82
1, 57736, Note_on_c, 0, 71, 77
1, 57744, Note_on_c, 0, 67, 67
1, 57756, Note_off_c, 0, 74, 72
1, 57757, Control_c, 0, 64, 112
1, 57759, Note_on_c, 0, 48, 92
1, 57759, Note_off_c, 0, 71, 68
1, 57762, Note_off_c, 0, 47, 64
1, 57771, Note_off_c, 0, 67, 63
1, 57772, Control_c, 0, 64, 67
1, 57787, Control_c, 0, 64, 0
1, 57796, Note_off_c, 0, 48, 64
1, 57820, Note_on_c, 0, 74, 91
1, 57822, Note_on_c, 0, 71, 85
1, 57832, Note_on_c, 0, 50, 78
1, 57833, Note_on_c, 0, 67, 72
1, 57851, Note_off_c, 0, 71, 66
1, 57857, Note_off_c, 0, 74, 58
1, 57864, Note_off_c, 0, 67, 69
1, 57865, Note_off_c, 0, 50, 67
1, 57868, Note_on_c, 0, 52, 78
1, 57879, Note_on_c, 0, 51, 45
1, 57910, Note_off_c, 0, 51, 54
1, 57919, Note_on_c, 0, 74, 94
1, 57922, Note_off_c, 0, 52, 62
1, 57923, Note_on_c, 0, 71, 88
1, 57926, Note_on_c, 0, 54, 80
1, 57926, Note_on_c, 0, 67, 88
1, 57950, Note_off_c, 0, 54, 69
1, 57951, Note_off_c, 0, 67, 65
1, 57954, Note_off_c, 0, 74, 65
1, 57956, Note_off_c, 0, 71, 62
1, 57994, Note_on_c, 0, 52, 75
1, 57994, Note_on_c, 0, 55, 90
1, 58016, Note_on_c, 0, 76, 101
1, 58018, Note_on_c, 0, 71, 91
1, 58018, Control_c, 0, 64, 60
1, 58026, Note_on_c, 0, 67, 85
1, 58029, Note_on_c, 0, 57, 81
1, 58033, Control_c, 0, 64, 127
1, 58036, Note_off_c, 0, 55, 64
1, 58036, Note_off_c, 0, 71, 69
1, 58038, Note_off_c, 0, 52, 62
1, 58044, Note_off_c, 0, 67, 73
1, 58058, Note_off_c, 0, 76, 64
1, 58071, Note_off_c, 0, 57, 66
1, 58099, Note_on_c, 0, 59, 78
1, 58124, Note_off_c, 0, 59, 66
1, 58159, Note_on_c, 0, 61, 79
1, 58173, Note_on_c, 0, 63, 84
1, 58202, Note_off_c, 0, 61, 62
1, 58222, Note_off_c, 0, 63, 64
1, 58256, Note_on_c, 0, 65, 72
1, 58257, Note_on_c, 0, 76, 70
1, 58269, Note_on_c, 0, 67, 99
1, 58271, Note_on_c, 0, 69, 76
1, 58272, Note_on_c, 0, 64, 87
1, 58278, Note_off_c, 0, 65, 68
1, 58287, Note_off_c, 0, 67, 72
1, 58291, Note_off_c, 0, 64, 74
1, 58303, Note_off_c, 0, 76, 62
1, 58314, Control_c, 0, 64, 114
1, 58315, Note_on_c, 0, 71, 81
1, 58316, Note_off_c, 0, 69, 58
1, 58328, Control_c, 0, 64, 66
1, 58343, Control_c, 0, 64, 0
1, 58353, Note_off_c, 0, 71, 64
1, 58357, Note_on_c, 0, 73, 80
1, 58390, Note_off_c, 0, 73, 61
1, 58420, Note_on_c, 0, 74, 85
1, 58479, Note_on_c, 0, 76, 69
1, 58480, Note_off_c, 0, 74, 0
1, 58514, Note_off_c, 0, 76, 64
1, 58516, Poly_aftertouch_c, 0, 74, 0
1, 58531, Note_on_c, 0, 77, 54
1, 58555, Note_off_c, 0, 77, 57
1, 58595, Note_on_c, 0, 59, 79
1, 58595, Note_on_c, 0, 66, 100
1, 58595, Note_on_c, 0, 76, 56
1, 58599, Note_on_c, 0, 74, 86
1, 58600, Note_on_c, 0, 72, 84
1, 58626, Note_off_c, 0, 59, 63
1, 58626, Note_off_c, 0, 74, 69
1, 58629, Note_off_c, 0, 72, 66
1, 58638, Note_off_c, 0, 66, 68
1, 58656, Note_on_c, 0, 78, 71
1, 58667, Note_off_c, 0, 76, 65
1, 58696, Note_off_c, 0, 78, 62
1, 58731, Note_on_c, 0, 79, 69
1, 58740, Note_on_c, 0, 81, 66
1, 58769, Note_off_c, 0, 81, 0
1, 58779, Note_on_c, 0, 81, 71
1, 58799, Note_off_c, 0, 79, 62
1, 58844, Note_off_c, 0, 81, 65
1, 58847, Note_on_c, 0, 83, 55
1, 58860, Note_on_c, 0, 85, 58
1, 58868, Note_off_c, 0, 83, 59
1, 58879, Note_off_c, 0, 85, 60
1, 58897, Note_on_c, 0, 71, 103
1, 58898, Note_on_c, 0, 74, 105
1, 58901, Note_on_c, 0, 67, 94
1, 58903, Note_on_c, 0, 86, 88
1, 58927, Note_off_c, 0, 74, 70
1, 58937, Note_off_c, 0, 71, 67
1, 58945, Note_off_c, 0, 67, 64
1, 58951, Note_on_c, 0, 88, 67
1, 58965, Note_off_c, 0, 86, 45
1, 58997, Note_on_c, 0, 89, 64
1, 59041, Note_on_c, 0, 95, 88
1, 59050, Note_on_c, 0, 93, 85
1, 59051, Note_off_c, 0, 89, 64
1, 59060, Note_off_c, 0, 88, 65
1, 59066, Note_on_c, 0, 91, 29
1, 59091, Note_off_c, 0, 95, 67
1, 59094, Note_off_c, 0, 93, 62
1, 59100, Note_off_c, 0, 91, 40
1, 59150, Note_on_c, 0, 71, 102
1, 59155, Note_on_c, 0, 64, 84
1, 59157, Note_on_c, 0, 67, 83
1, 59157, Note_on_c, 0, 76, 99
1, 59160, Note_on_c, 0, 88, 109
1, 59164, Note_on_c, 0, 95, 99
1, 59166, Control_c, 0, 64, 34
1, 59174, Note_on_c, 0, 90, 80
1, 59174, Note_off_c, 0, 90, 127
1, 59175, Note_off_c, 0, 76, 69
1, 59176, Note_off_c, 0, 64, 71
1, 59181, Control_c, 0, 64, 82
1, 59184, Note_on_c, 0, 91, 61
1, 59184, Note_off_c, 0, 91, 127
1, 59188, Note_off_c, 0, 71, 67
1, 59190, Note_off_c, 0, 67, 65
1, 59196, Control_c, 0, 64, 127
1, 59204, Note_off_c, 0, 88, 69
1, 59208, Note_off_c, 0, 95, 65
1, 59247, Note_on_c, 0, 83, 80
1, 59261, Note_off_c, 0, 83, 69
1, 59312, Note_on_c, 0, 88, 63
1, 59323, Note_on_c, 0, 79, 65
1, 59349, Note_off_c, 0, 88, 64
1, 59354, Note_off_c, 0, 79, 70
1, 59378, Note_on_c, 0, 83, 60
1, 59395, Poly_aftertouch_c, 0, 77, 127
1, 59429, Poly_aftertouch_c, 0, 77, 0
1, 59432, Note_on_c, 0, 79, 80
1, 59439, Note_off_c, 0, 83, 64
1, 59441, Control_c, 0, 64, 100
1, 59456, Control_c, 0, 64, 63
1, 59471, Control_c, 0, 64, 0
1, 59473, Note_off_c, 0, 79, 65
1, 59492, Note_on_c, 0, 76, 82
1, 59512, Note_off_c, 0, 76, 72
1, 59563, Note_on_c, 0, 79, 75
1, 59596, Note_on_c, 0, 71, 35
1, 59625, Note_on_c, 0, 76, 82
1, 59631, Note_off_c, 0, 79, 60
1, 59633, Note_off_c, 0, 71, 32
1, 59638, Note_on_c, 0, 67, 78
1, 59658, Note_off_c, 0, 67, 71
1, 59664, Note_off_c, 0, 76, 63
1, 59712, Note_on_c, 0, 35, 74
1, 59714, Note_on_c, 0, 74, 109
1, 59714, Note_on_c, 0, 71, 98
1, 59729, Note_on_c, 0, 67, 73
1, 59729, Note_off_c, 0, 71, 74
1, 59735, Note_on_c, 0, 69, 64
1, 59737, Control_c, 0, 64, 63
1, 59741, Note_on_c, 0, 31, 20
1, 59741, Note_off_c, 0, 74, 70
1, 59745, Note_off_c, 0, 67, 69
1, 59746, Note_on_c, 0, 36, 78
1, 59752, Control_c, 0, 64, 127
1, 59753, Note_off_c, 0, 35, 62
1, 59756, Note_off_c, 0, 69, 62
1, 59762, Note_on_c, 0, 73, 19
1, 59787, Note_off_c, 0, 36, 62
1, 59789, Note_off_c, 0, 73, 54
1, 59798, Note_off_c, 0, 31, 45
1, 59799, Note_on_c, 0, 38, 75
1, 59824, Note_off_c, 0, 38, 65
1, 59860, Note_on_c, 0, 40, 77
1, 59883, Note_on_c, 0, 42, 84
1, 59899, Note_off_c, 0, 40, 63
1, 59933, Note_on_c, 0, 43, 83
1, 59944, Note_off_c, 0, 42, 63
1, 59980, Note_off_c, 0, 43, 63
1, 60002, Note_on_c, 0, 45, 79
1, 60033, Note_on_c, 0, 47, 91
1, 60051, Note_on_c, 0, 74, 87
1, 60053, Note_off_c, 0, 45, 62
1, 60060, Note_on_c, 0, 71, 75
1, 60073, Note_on_c, 0, 67, 56
1, 60078, Note_off_c, 0, 74, 63
1, 60078, Control_c, 0, 64, 81
1, 60081, Note_off_c, 0, 71, 69
1, 60096, Note_on_c, 0, 48, 84
1, 60096, Note_off_c, 0, 47, 65
1, 60100, Control_c, 0, 64, 55
1, 60108, Note_off_c, 0, 67, 56
1, 60115, Control_c, 0, 64, 0
1, 60135, Note_off_c, 0, 48, 65
1, 60147, Note_on_c, 0, 74, 90
1, 60153, Note_on_c, 0, 71, 82
1, 60161, Note_on_c, 0, 50, 86
1, 60164, Note_on_c, 0, 67, 70
1, 60178, Note_off_c, 0, 71, 63
1, 60181, Note_off_c, 0, 74, 61
1, 60188, Note_off_c, 0, 67, 69
1, 60195, Note_off_c, 0, 50, 67
1, 60212, Note_on_c, 0, 52, 74
1, 60227, Note_on_c, 0, 51, 34
1, 60242, Note_on_c, 0, 74, 90
1, 60246, Note_on_c, 0, 71, 87
1, 60251, Note_on_c, 0, 67, 81
1, 60253, Note_off_c, 0, 52, 63
1, 60255, Note_on_c, 0, 54, 82
1, 60267, Note_off_c, 0, 51, 53
1, 60273, Note_off_c, 0, 67, 69
1, 60278, Note_off_c, 0, 74, 65
1, 60283, Note_off_c, 0, 54, 66
1, 60284, Note_off_c, 0, 71, 64
1, 60328, Note_on_c, 0, 52, 80
1, 60333, Note_on_c, 0, 55, 83
1, 60336, Note_on_c, 0, 71, 103
1, 60338, Note_on_c, 0, 76, 102
1, 60338, Control_c, 0, 64, 54
1, 60343, Note_on_c, 0, 67, 93
1, 60353, Control_c, 0, 64, 89
1, 60358, Note_off_c, 0, 71, 66
1, 60358, Note_off_c, 0, 67, 77
1, 60360, Note_on_c, 0, 58, 74
1, 60363, Note_on_c, 0, 57, 74
1, 60367, Note_off_c, 0, 52, 63
1, 60367, Control_c, 0, 64, 127
1, 60371, Note_on_c, 0, 73, 41
1, 60371, Note_off_c, 0, 73, 127
1, 60373, Note_off_c, 0, 55, 63
1, 60379, Note_off_c, 0, 76, 65
1, 60385, Note_off_c, 0, 58, 67
1, 60397, Poly_aftertouch_c, 0, 73, 0
1, 60402, Note_off_c, 0, 57, 65
1, 60444, Poly_aftertouch_c, 0, 59, 127
1, 60455, Note_on_c, 0, 59, 2
1, 60477, Note_off_c, 0, 59, 54
1, 60485, Note_on_c, 0, 61, 82
1, 60507, Note_on_c, 0, 63, 78
1, 60531, Note_off_c, 0, 61, 65
1, 60549, Note_off_c, 0, 63, 61
1, 60569, Note_on_c, 0, 64, 78
1, 60589, Note_on_c, 0, 76, 68
1, 60597, Note_on_c, 0, 67, 99
1, 60600, Note_on_c, 0, 69, 79
1, 60616, Note_off_c, 0, 67, 70
1, 60624, Note_off_c, 0, 64, 68
1, 60630, Note_off_c, 0, 76, 62
1, 60634, Control_c, 0, 64, 95
1, 60639, Note_on_c, 0, 71, 83
1, 60643, Note_off_c, 0, 69, 62
1, 60649, Control_c, 0, 64, 61
1, 60664, Control_c, 0, 64, 0
1, 60675, Note_off_c, 0, 71, 64
1, 60682, Note_on_c, 0, 73, 79
1, 60720, Note_off_c, 0, 73, 64
1, 60750, Note_on_c, 0, 74, 84
1, 60799, Note_on_c, 0, 76, 74
1, 60808, Note_off_c, 0, 74, 62
1, 60844, Note_off_c, 0, 76, 65
1, 60851, Note_on_c, 0, 78, 69
1, 60908, Note_on_c, 0, 59, 68
1, 60910, Note_off_c, 0, 78, 62
1, 60913, Note_on_c, 0, 66, 93
1, 60916, Note_on_c, 0, 74, 102
1, 60916, Note_on_c, 0, 76, 70
1, 60925, Note_on_c, 0, 72, 80
1, 60932, Note_off_c, 0, 59, 66
1, 60941, Note_off_c, 0, 72, 55
1, 60943, Note_off_c, 0, 74, 67
1, 60948, Note_off_c, 0, 66, 67
1, 60968, Note_on_c, 0, 78, 73
1, 60972, Note_off_c, 0, 76, 65
1, 60993, Note_off_c, 0, 78, 64
1, 61035, Note_on_c, 0, 79, 78
1, 61073, Note_on_c, 0, 81, 77
1, 61094, Note_off_c, 0, 79, 62
1, 61131, Note_on_c, 0, 83, 78
1, 61136, Note_on_c, 0, 85, 84
1, 61150, Note_off_c, 0, 81, 64
1, 61151, Note_off_c, 0, 83, 70
1, 61187, Note_off_c, 0, 85, 65
1, 61208, Note_on_c, 0, 86, 88
1, 61222, Note_on_c, 0, 67, 83
1, 61222, Note_on_c, 0, 71, 88
1, 61226, Note_on_c, 0, 74, 82
1, 61245, Note_off_c, 0, 74, 74
1, 61253, Note_off_c, 0, 71, 63
1, 61256, Note_off_c, 0, 67, 62
1, 61270, Note_off_c, 0, 86, 64
1, 61270, Note_on_c, 0, 88, 76
1, 61279, Note_on_c, 0, 90, 88
1, 61297, Note_off_c, 0, 88, 66
1, 61320, Note_off_c, 0, 90, 65
1, 61357, Note_on_c, 0, 91, 92
1, 61365, Note_on_c, 0, 93, 91
1, 61412, Note_off_c, 0, 91, 53
1, 61422, Note_on_c, 0, 100, 90
1, 61433, Note_off_c, 0, 93, 65
1, 61444, Note_off_c, 0, 100, 69
1, 61486, Note_on_c, 0, 71, 97
1, 61488, Note_on_c, 0, 76, 100
1, 61489, Note_on_c, 0, 67, 77
1, 61499, Note_on_c, 0, 100, 101
1, 61500, Note_on_c, 0, 91, 112
1, 61503, Note_on_c, 0, 64, 72
1, 61503, Control_c, 0, 64, 68
1, 61516, Note_off_c, 0, 76, 65
1, 61517, Control_c, 0, 64, 127
1, 61519, Note_off_c, 0, 64, 68
1, 61524, Note_off_c, 0, 71, 64
1, 61525, Note_off_c, 0, 67, 65
1, 61545, Note_off_c, 0, 91, 67
1, 61548, Note_off_c, 0, 100, 67
1, 61579, Note_on_c, 0, 88, 90
1, 61600, Note_off_c, 0, 88, 77
1, 61662, Note_on_c, 0, 83, 92
1, 61663, Note_on_c, 0, 91, 77
1, 61696, Note_off_c, 0, 91, 57
1, 61699, Note_off_c, 0, 83, 66
1, 61741, Note_on_c, 0, 88, 92
1, 61758, Note_on_c, 0, 91, 22
1, 61762, Control_c, 0, 64, 82
1, 61777, Control_c, 0, 64, 30
1, 61781, Note_off_c, 0, 91, 46
1, 61791, Control_c, 0, 64, 0
1, 61795, Note_on_c, 0, 83, 91
1, 61806, Control_c, 0, 67, 50
1, 61819, Note_off_c, 0, 88, 66
1, 61822, Control_c, 0, 67, 127
1, 61862, Note_off_c, 0, 83, 62
1, 61869, Note_on_c, 0, 79, 87
1, 61900, Note_off_c, 0, 79, 67
1, 61944, Note_on_c, 0, 83, 89
1, 61947, Note_on_c, 0, 76, 87
1, 62001, Note_on_c, 0, 79, 80
1, 62008, Note_off_c, 0, 76, 66
1, 62008, Note_off_c, 0, 83, 63
1, 62044, Note_off_c, 0, 79, 64
1, 62124, Note_on_c, 0, 33, 56
1, 62131, Note_on_c, 0, 45, 46
1, 62134, Note_on_c, 0, 72, 68
1, 62141, Note_on_c, 0, 64, 65
1, 62155, Note_off_c, 0, 33, 51
1, 62158, Note_off_c, 0, 72, 67
1, 62167, Note_off_c, 0, 45, 32
1, 62284, Note_on_c, 0, 32, 53
1, 62295, Note_on_c, 0, 44, 35
1, 62315, Note_off_c, 0, 32, 54
1, 62337, Note_off_c, 0, 44, 44
1, 62374, Note_on_c, 0, 74, 74
1, 62423, Note_off_c, 0, 74, 65
1, 62428, Note_on_c, 0, 33, 51
1, 62438, Note_on_c, 0, 72, 61
1, 62441, Note_on_c, 0, 45, 39
1, 62459, Note_off_c, 0, 33, 50
1, 62468, Note_off_c, 0, 72, 63
1, 62477, Note_off_c, 0, 45, 43
1, 62569, Note_on_c, 0, 35, 51
1, 62577, Note_on_c, 0, 47, 44
1, 62599, Note_off_c, 0, 35, 52
1, 62610, Note_off_c, 0, 47, 48
1, 62631, Note_on_c, 0, 71, 66
1, 62666, Note_off_c, 0, 71, 56
1, 62700, Note_on_c, 0, 69, 72
1, 62704, Note_on_c, 0, 36, 55
1, 62709, Note_on_c, 0, 48, 52
1, 62734, Note_off_c, 0, 36, 52
1, 62737, Note_off_c, 0, 69, 64
1, 62737, Note_off_c, 0, 48, 52
1, 62835, Note_on_c, 0, 37, 64
1, 62853, Note_on_c, 0, 49, 36
1, 62871, Note_off_c, 0, 37, 63
1, 62876, Note_off_c, 0, 64, 62
1, 62886, Note_off_c, 0, 49, 51
1, 62906, Note_on_c, 0, 67, 70
1, 62957, Note_off_c, 0, 67, 60
1, 62958, Note_on_c, 0, 66, 82
1, 62975, Note_on_c, 0, 38, 43
1, 62975, Note_on_c, 0, 57, 62
1, 62978, Note_on_c, 0, 50, 27
1, 62994, Note_off_c, 0, 66, 66
1, 62996, Note_off_c, 0, 57, 62
1, 63009, Note_off_c, 0, 38, 50
1, 63022, Note_off_c, 0, 50, 54
1, 63118, Note_on_c, 0, 30, 57
1, 63139, Note_on_c, 0, 42, 37
1, 63149, Note_off_c, 0, 30, 59
1, 63177, Note_off_c, 0, 42, 47
1, 63217, Note_on_c, 0, 62, 76
1, 63282, Note_on_c, 0, 71, 80
1, 63286, Note_on_c, 0, 31, 23
1, 63318, Note_off_c, 0, 71, 60
1, 63333, Note_off_c, 0, 31, 40
1, 63401, Note_on_c, 0, 30, 53
1, 63411, Note_on_c, 0, 42, 42
1, 63432, Note_off_c, 0, 30, 58
1, 63444, Note_off_c, 0, 42, 49
1, 63494, Note_on_c, 0, 72, 68
1, 63540, Note_off_c, 0, 72, 63
1, 63547, Note_on_c, 0, 31, 44
1, 63552, Note_on_c, 0, 43, 42
1, 63559, Note_on_c, 0, 71, 71
1, 63582, Note_off_c, 0, 31, 49
1, 63584, Note_off_c, 0, 43, 48
1, 63591, Note_off_c, 0, 71, 59
1, 63679, Note_on_c, 0, 33, 52
1, 63682, Note_on_c, 0, 45, 47
1, 63709, Note_off_c, 0, 33, 52
1, 63711, Note_off_c, 0, 45, 51
1, 63755, Note_on_c, 0, 69, 61
1, 63798, Note_off_c, 0, 69, 59
1, 63807, Note_on_c, 0, 34, 60
1, 63818, Note_on_c, 0, 46, 43
1, 63820, Note_on_c, 0, 67, 72
1, 63848, Note_off_c, 0, 34, 64
1, 63858, Note_off_c, 0, 46, 53
1, 63864, Note_off_c, 0, 67, 61
1, 63940, Note_on_c, 0, 35, 57
1, 63947, Note_on_c, 0, 47, 49
1, 63972, Note_off_c, 0, 35, 63
1, 63977, Note_off_c, 0, 47, 62
1, 63992, Note_off_c, 0, 62, 61
1, 64031, Note_on_c, 0, 66, 66
1, 64061, Note_on_c, 0, 48, 72
1, 64069, Note_on_c, 0, 36, 59
1, 64076, Note_on_c, 0, 64, 71
1, 64089, Note_off_c, 0, 48, 65
1, 64093, Note_on_c, 0, 55, 64
1, 64096, Note_off_c, 0, 36, 59
1, 64098, Note_off_c, 0, 66, 57
1, 64114, Note_off_c, 0, 55, 62
1, 64120, Note_off_c, 0, 64, 65
1, 64221, Note_on_c, 0, 28, 50
1, 64260, Note_off_c, 0, 28, 51
1, 64303, Note_on_c, 0, 67, 67
1, 64347, Note_on_c, 0, 45, 66
1, 64347, Note_on_c, 0, 33, 66
1, 64362, Note_on_c, 0, 60, 60
1, 64363, Note_on_c, 0, 66, 65
1, 64377, Note_off_c, 0, 33, 63
1, 64378, Note_off_c, 0, 45, 63
1, 64393, Note_off_c, 0, 67, 54
1, 64440, Note_off_c, 0, 66, 62
1, 64502, Note_on_c, 0, 34, 55
1, 64514, Note_on_c, 0, 46, 43
1, 64538, Note_off_c, 0, 34, 62
1, 64543, Note_off_c, 0, 46, 58
1, 64562, Note_off_c, 0, 60, 62
1, 64573, Note_on_c, 0, 64, 76
1, 64613, Note_off_c, 0, 64, 64
1, 64642, Note_on_c, 0, 35, 67
1, 64642, Note_on_c, 0, 47, 70
1, 64642, Note_on_c, 0, 63, 89
1, 64651, Note_on_c, 0, 54, 75
1, 64670, Note_off_c, 0, 35, 65
1, 64675, Note_off_c, 0, 47, 64
1, 64675, Note_off_c, 0, 54, 69
1, 64684, Note_off_c, 0, 63, 58
1, 64785, Note_on_c, 0, 36, 65
1, 64786, Control_c, 0, 67, 124
1, 64790, Note_on_c, 0, 48, 69
1, 64810, Note_off_c, 0, 36, 64
1, 64815, Control_c, 0, 67, 121
1, 64817, Note_off_c, 0, 48, 64
1, 64830, Control_c, 0, 67, 119
1, 64845, Control_c, 0, 67, 116
1, 64862, Note_on_c, 0, 69, 70
1, 64913, Note_on_c, 0, 67, 91
1, 64919, Note_on_c, 0, 59, 85
1, 64920, Control_c, 0, 67, 114
1, 64921, Note_on_c, 0, 49, 92
1, 64922, Note_on_c, 0, 37, 91
1, 64922, Note_on_c, 0, 57, 90
1, 64949, Note_off_c, 0, 49, 66
1, 64952, Note_off_c, 0, 37, 68
1, 64954, Note_off_c, 0, 69, 63
1, 64979, Control_c, 0, 67, 112
1, 65007, Note_off_c, 0, 67, 57
1, 65058, Note_on_c, 0, 51, 81
1, 65061, Note_on_c, 0, 39, 72
1, 65079, Note_off_c, 0, 59, 57
1, 65091, Note_off_c, 0, 51, 62
1, 65092, Note_off_c, 0, 39, 65
1, 65096, Note_off_c, 0, 57, 57
1, 65113, Control_c, 0, 67, 109
1, 65127, Note_on_c, 0, 66, 82
1, 65158, Control_c, 0, 67, 107
1, 65172, Control_c, 0, 67, 101
1, 65175, Note_off_c, 0, 66, 64
1, 65187, Control_c, 0, 67, 79
1, 65192, Note_on_c, 0, 40, 73
1, 65194, Note_on_c, 0, 64, 83
1, 65196, Note_on_c, 0, 52, 69
1, 65196, Note_on_c, 0, 55, 75
1, 65202, Control_c, 0, 67, 50
1, 65217, Control_c, 0, 67, 0
1, 65220, Note_off_c, 0, 64, 67
1, 65220, Note_off_c, 0, 40, 64
1, 65222, Note_off_c, 0, 55, 65
1, 65228, Note_off_c, 0, 52, 64
1, 65348, Note_on_c, 0, 55, 57
1, 65353, Note_on_c, 0, 43, 64
1, 65383, Note_off_c, 0, 43, 63
1, 65389, Note_off_c, 0, 55, 64
1, 65427, Note_on_c, 0, 71, 67
1, 65471, Note_off_c, 0, 71, 63
1, 65497, Note_on_c, 0, 72, 51
1, 65497, Note_on_c, 0, 57, 62
1, 65500, Note_on_c, 0, 64, 65
1, 65503, Note_on_c, 0, 45, 54
1, 65520, Note_off_c, 0, 72, 59
1, 65530, Note_off_c, 0, 45, 57
1, 65530, Note_off_c, 0, 57, 64
1, 65548, Note_off_c, 0, 64, 0
1, 65585, Poly_aftertouch_c, 0, 64, 127
1, 65636, Note_on_c, 0, 59, 69
1, 65639, Note_on_c, 0, 47, 63
1, 65666, Note_off_c, 0, 47, 65
1, 65672, Note_off_c, 0, 59, 64
1, 65679, Note_on_c, 0, 71, 78
1, 65725, Note_off_c, 0, 71, 59
1, 65751, Note_on_c, 0, 69, 86
1, 65760, Note_on_c, 0, 60, 82
1, 65761, Note_on_c, 0, 48, 82
1, 65789, Note_off_c, 0, 48, 67
1, 65794, Note_off_c, 0, 60, 67
1, 65800, Note_off_c, 0, 69, 62
1, 65894, Note_on_c, 0, 61, 85
1, 65899, Note_on_c, 0, 49, 67
1, 65929, Note_on_c, 0, 67, 84
1, 65934, Note_off_c, 0, 49, 61
1, 65947, Note_off_c, 0, 61, 61
1, 65954, Poly_aftertouch_c, 0, 64, 0
1, 65972, Note_off_c, 0, 67, 64
1, 66011, Note_on_c, 0, 54, 72
1, 66014, Note_on_c, 0, 57, 94
1, 66016, Note_on_c, 0, 62, 92
1, 66020, Note_on_c, 0, 50, 80
1, 66022, Note_on_c, 0, 66, 99
1, 66022, Note_on_c, 0, 74, 101
1, 66025, Control_c, 0, 64, 38
1, 66040, Control_c, 0, 64, 100
1, 66046, Note_off_c, 0, 50, 70
1, 66046, Note_off_c, 0, 66, 68
1, 66051, Note_off_c, 0, 62, 65
1, 66055, Note_off_c, 0, 57, 67
1, 66055, Control_c, 0, 64, 127
1, 66058, Note_off_c, 0, 74, 69
1, 66070, Note_off_c, 0, 54, 62
1, 66138, Poly_aftertouch_c, 0, 71, 0
1, 66239, Note_on_c, 0, 70, 35
1, 66265, Note_on_c, 0, 93, 54
1, 66270, Note_off_c, 0, 70, 54
1, 66275, Note_on_c, 0, 95, 81
1, 66291, Note_off_c, 0, 93, 53
1, 66302, Note_on_c, 0, 97, 95
1, 66304, Note_on_c, 0, 62, 85
1, 66304, Note_on_c, 0, 74, 104
1, 66304, Note_off_c, 0, 95, 67
1, 66306, Note_on_c, 0, 66, 96
1, 66308, Note_on_c, 0, 69, 87
1, 66317, Note_on_c, 0, 98, 93
1, 66324, Note_on_c, 0, 90, 96
1, 66330, Note_off_c, 0, 74, 72
1, 66337, Note_off_c, 0, 62, 67
1, 66337, Note_off_c, 0, 69, 60
1, 66343, Note_off_c, 0, 90, 67
1, 66344, Note_off_c, 0, 66, 70
1, 66354, Note_off_c, 0, 97, 59
1, 66354, Note_off_c, 0, 98, 64
1, 66401, Control_c, 0, 64, 79
1, 66416, Control_c, 0, 64, 47
1, 66431, Control_c, 0, 64, 0
1, 66695, Note_on_c, 0, 35, 96
1, 66699, Control_c, 0, 64, 63
1, 66702, Note_on_c, 0, 74, 104
1, 66704, Note_on_c, 0, 71, 99
1, 66705, Note_on_c, 0, 67, 95
1, 66714, Control_c, 0, 64, 127
1, 66716, Note_on_c, 0, 31, 39
1, 66716, Note_off_c, 0, 31, 127
1, 66724, Note_off_c, 0, 67, 68
1, 66731, Note_off_c, 0, 71, 62
1, 66740, Note_off_c, 0, 74, 68
1, 66743, Note_off_c, 0, 35, 64
1, 66756, Poly_aftertouch_c, 0, 31, 0
1, 66764, Note_on_c, 0, 36, 78
1, 66788, Note_off_c, 0, 36, 65
1, 66789, Note_on_c, 0, 38, 82
1, 66822, Note_off_c, 0, 38, 67
1, 66859, Note_on_c, 0, 40, 81
1, 66906, Note_on_c, 0, 41, 76
1, 66908, Note_off_c, 0, 40, 62
1, 66931, Note_off_c, 0, 41, 66
1, 66939, Note_on_c, 0, 43, 84
1, 66968, Note_off_c, 0, 43, 67
1, 67010, Note_on_c, 0, 45, 83
1, 67032, Note_on_c, 0, 48, 89
1, 67032, Note_on_c, 0, 74, 85
1, 67033, Note_on_c, 0, 47, 83
1, 67035, Note_on_c, 0, 71, 79
1, 67053, Note_on_c, 0, 67, 48
1, 67053, Note_off_c, 0, 71, 71
1, 67054, Note_off_c, 0, 74, 69
1, 67058, Note_off_c, 0, 45, 63
1, 67059, Note_off_c, 0, 48, 68
1, 67070, Note_off_c, 0, 67, 68
1, 67084, Note_on_c, 0, 48, 75
1, 67092, Note_off_c, 0, 47, 63
1, 67113, Note_on_c, 0, 74, 94
1, 67117, Note_on_c, 0, 71, 85
1, 67117, Note_off_c, 0, 48, 66
1, 67119, Note_on_c, 0, 67, 79
1, 67121, Control_c, 0, 64, 81
1, 67135, Control_c, 0, 64, 59
1, 67139, Note_off_c, 0, 67, 69
1, 67144, Note_on_c, 0, 50, 86
1, 67144, Note_off_c, 0, 71, 63
1, 67146, Note_off_c, 0, 74, 61
1, 67150, Control_c, 0, 64, 0
1, 67176, Note_off_c, 0, 50, 68
1, 67182, Note_on_c, 0, 52, 76
1, 67210, Note_on_c, 0, 71, 95
1, 67211, Note_on_c, 0, 74, 90
1, 67220, Note_on_c, 0, 67, 84
1, 67223, Note_off_c, 0, 52, 60
1, 67232, Note_on_c, 0, 54, 85
1, 67239, Note_off_c, 0, 74, 65
1, 67240, Note_off_c, 0, 67, 72
1, 67249, Note_off_c, 0, 71, 62
1, 67259, Note_off_c, 0, 54, 65
1, 67298, Control_c, 0, 64, 59
1, 67300, Note_on_c, 0, 76, 104
1, 67301, Note_on_c, 0, 71, 94
1, 67305, Note_on_c, 0, 55, 89
1, 67305, Note_on_c, 0, 67, 101
1, 67310, Note_on_c, 0, 52, 79
1, 67313, Control_c, 0, 64, 127
1, 67319, Note_on_c, 0, 57, 83
1, 67319, Note_off_c, 0, 71, 70
1, 67321, Note_off_c, 0, 67, 75
1, 67334, Note_off_c, 0, 52, 69
1, 67339, Note_off_c, 0, 76, 64
1, 67346, Note_off_c, 0, 55, 64
1, 67363, Note_off_c, 0, 57, 66
1, 67400, Note_on_c, 0, 59, 68
1, 67425, Note_off_c, 0, 59, 65
1, 67456, Note_on_c, 0, 61, 65
1, 67472, Note_on_c, 0, 60, 68
1, 67479, Note_off_c, 0, 61, 59
1, 67485, Note_on_c, 0, 63, 57
1, 67485, Note_off_c, 0, 63, 127
1, 67498, Note_on_c, 0, 62, 64
1, 67500, Note_off_c, 0, 60, 68
1, 67518, Note_off_c, 0, 62, 63
1, 67536, Note_on_c, 0, 64, 74
1, 67562, Note_on_c, 0, 76, 69
1, 67581, Note_on_c, 0, 69, 77
1, 67582, Note_on_c, 0, 67, 102
1, 67596, Note_off_c, 0, 67, 77
1, 67602, Note_off_c, 0, 76, 63
1, 67605, Note_off_c, 0, 64, 68
1, 67614, Note_off_c, 0, 69, 59
1, 67615, Note_on_c, 0, 71, 78
1, 67618, Control_c, 0, 64, 98
1, 67632, Control_c, 0, 64, 62
1, 67647, Control_c, 0, 64, 0
1, 67658, Note_on_c, 0, 73, 89
1, 67661, Note_off_c, 0, 71, 63
1, 67703, Note_off_c, 0, 73, 64
1, 67727, Note_on_c, 0, 74, 93
1, 67775, Note_on_c, 0, 76, 83
1, 67799, Note_off_c, 0, 74, 58
1, 67819, Note_off_c, 0, 76, 66
1, 67821, Note_on_c, 0, 78, 72
1, 67873, Note_off_c, 0, 78, 62
1, 67884, Note_on_c, 0, 76, 77
1, 67891, Note_on_c, 0, 74, 105
1, 67894, Note_on_c, 0, 66, 89
1, 67896, Note_on_c, 0, 59, 24
1, 67921, Note_off_c, 0, 74, 69
1, 67927, Note_off_c, 0, 66, 68
1, 67936, Note_off_c, 0, 59, 44
1, 67939, Note_off_c, 0, 76, 64
1, 67946, Note_on_c, 0, 78, 58
1, 67968, Note_off_c, 0, 78, 62
1, 68001, Note_on_c, 0, 79, 73
1, 68044, Note_on_c, 0, 81, 85
1, 68055, Note_off_c, 0, 79, 58
1, 68117, Note_on_c, 0, 85, 78
1, 68124, Note_on_c, 0, 83, 51
1, 68124, Note_on_c, 0, 84, 45
1, 68126, Note_off_c, 0, 81, 65
1, 68147, Note_off_c, 0, 83, 58
1, 68149, Note_off_c, 0, 84, 56
1, 68161, Note_off_c, 0, 85, 65
1, 68182, Note_on_c, 0, 71, 105
1, 68183, Note_on_c, 0, 74, 102
1, 68185, Note_on_c, 0, 67, 94
1, 68187, Note_on_c, 0, 86, 87
1, 68204, Note_off_c, 0, 74, 70
1, 68212, Note_off_c, 0, 71, 67
1, 68218, Note_off_c, 0, 67, 65
1, 68244, Note_on_c, 0, 88, 81
1, 68264, Note_off_c, 0, 86, 61
1, 68278, Note_on_c, 0, 90, 79
1, 68332, Note_off_c, 0, 88, 63
1, 68338, Note_on_c, 0, 93, 97
1, 68345, Note_off_c, 0, 90, 67
1, 68389, Note_off_c, 0, 93, 65
1, 68444, Note_on_c, 0, 95, 109
1, 68445, Note_on_c, 0, 71, 88
1, 68446, Note_on_c, 0, 64, 87
1, 68446, Note_on_c, 0, 88, 100
1, 68447, Note_on_c, 0, 76, 95
1, 68449, Note_on_c, 0, 67, 81
1, 68456, Control_c, 0, 64, 48
1, 68463, Note_off_c, 0, 76, 70
1, 68466, Note_off_c, 0, 64, 72
1, 68471, Control_c, 0, 64, 127
1, 68475, Note_off_c, 0, 71, 66
1, 68477, Note_off_c, 0, 67, 65
1, 68493, Note_off_c, 0, 88, 69
1, 68494, Note_off_c, 0, 95, 68
1, 68544, Note_on_c, 0, 84, 60
1, 68544, Note_off_c, 0, 84, 127
1, 68617, Note_on_c, 0, 79, 69
1, 68630, Note_on_c, 0, 88, 29
1, 68639, Note_off_c, 0, 79, 65
1, 68665, Note_on_c, 0, 83, 78
1, 68666, Note_off_c, 0, 88, 45
1, 68721, Note_on_c, 0, 79, 71
1, 68722, Control_c, 0, 64, 95
1, 68737, Note_off_c, 0, 83, 62
1, 68737, Control_c, 0, 64, 61
1, 68752, Control_c, 0, 64, 0
1, 68771, Note_off_c, 0, 79, 65
1, 68782, Note_on_c, 0, 76, 80
1, 68802, Note_off_c, 0, 76, 72
1, 68856, Note_on_c, 0, 79, 75
1, 68885, Note_off_c, 0, 79, 60
1, 68916, Note_on_c, 0, 76, 85
1, 68925, Note_on_c, 0, 67, 80
1, 68944, Note_off_c, 0, 67, 72
1, 68949, Note_off_c, 0, 76, 63
1, 68992, Note_on_c, 0, 35, 81
1, 68996, Note_on_c, 0, 74, 115
1, 69000, Note_on_c, 0, 71, 101
1, 69003, Note_on_c, 0, 67, 96
1, 69013, Note_on_c, 0, 31, 28
1, 69014, Note_off_c, 0, 71, 75
1, 69019, Control_c, 0, 64, 65
1, 69023, Note_off_c, 0, 67, 72
1, 69024, Note_off_c, 0, 35, 68
1, 69025, Note_off_c, 0, 74, 71
1, 69026, Note_on_c, 0, 36, 79
1, 69034, Control_c, 0, 64, 127
1, 69060, Note_off_c, 0, 31, 52
1, 69062, Note_off_c, 0, 36, 66
1, 69079, Note_on_c, 0, 38, 73
1, 69112, Note_off_c, 0, 38, 64
1, 69140, Note_on_c, 0, 40, 77
1, 69161, Note_on_c, 0, 42, 83
1, 69185, Note_off_c, 0, 40, 60
1, 69217, Note_on_c, 0, 43, 78
1, 69225, Note_off_c, 0, 42, 64
1, 69253, Note_off_c, 0, 43, 64
1, 69277, Note_on_c, 0, 45, 86
1, 69286, Note_on_c, 0, 44, 36
1, 69286, Note_off_c, 0, 44, 127
1, 69315, Note_on_c, 0, 47, 83
1, 69322, Poly_aftertouch_c, 0, 44, 0
1, 69326, Note_off_c, 0, 45, 62
1, 69328, Note_on_c, 0, 74, 81
1, 69331, Note_on_c, 0, 71, 77
1, 69347, Note_off_c, 0, 71, 69
1, 69349, Note_off_c, 0, 74, 71
1, 69355, Note_on_c, 0, 67, 38
1, 69360, Note_on_c, 0, 48, 90
1, 69367, Note_off_c, 0, 47, 63
1, 69367, Control_c, 0, 64, 110
1, 69382, Control_c, 0, 64, 69
1, 69385, Note_off_c, 0, 67, 54
1, 69396, Note_off_c, 0, 48, 64
1, 69397, Control_c, 0, 64, 0
1, 69408, Note_on_c, 0, 71, 83
1, 69410, Note_on_c, 0, 74, 96
1, 69429, Note_on_c, 0, 50, 87
1, 69429, Note_on_c, 0, 67, 60
1, 69439, Note_off_c, 0, 74, 61
1, 69444, Note_off_c, 0, 71, 65
1, 69451, Note_off_c, 0, 67, 61
1, 69453, Note_off_c, 0, 50, 70
1, 69456, Note_on_c, 0, 52, 85
1, 69462, Note_on_c, 0, 51, 54
1, 69495, Note_off_c, 0, 51, 52
1, 69508, Note_on_c, 0, 74, 93
1, 69511, Note_on_c, 0, 71, 89
1, 69513, Note_on_c, 0, 54, 84
1, 69515, Note_on_c, 0, 67, 78
1, 69517, Note_off_c, 0, 52, 63
1, 69538, Note_off_c, 0, 54, 66
1, 69540, Note_off_c, 0, 67, 66
1, 69544, Note_off_c, 0, 74, 64
1, 69548, Note_off_c, 0, 71, 64
1, 69591, Note_on_c, 0, 52, 70
1, 69593, Note_on_c, 0, 55, 88
1, 69601, Note_on_c, 0, 76, 100
1, 69602, Note_on_c, 0, 71, 90
1, 69604, Control_c, 0, 64, 36
1, 69608, Note_on_c, 0, 67, 82
1, 69609, Note_on_c, 0, 57, 85
1, 69619, Note_off_c, 0, 71, 71
1, 69619, Control_c, 0, 64, 77
1, 69621, Note_off_c, 0, 52, 67
1, 69626, Note_off_c, 0, 67, 71
1, 69628, Note_off_c, 0, 55, 63
1, 69633, Note_off_c, 0, 76, 69
1, 69634, Control_c, 0, 64, 127
1, 69655, Note_off_c, 0, 57, 66
1, 69682, Note_on_c, 0, 59, 82
1, 69712, Note_off_c, 0, 59, 65
1, 69745, Note_on_c, 0, 61, 74
1, 69778, Note_on_c, 0, 63, 72
1, 69788, Note_off_c, 0, 61, 62
1, 69811, Note_off_c, 0, 63, 66
1, 69835, Note_on_c, 0, 64, 72
1, 69860, Note_on_c, 0, 76, 74
1, 69870, Note_on_c, 0, 67, 100
1, 69877, Note_on_c, 0, 69, 70
1, 69895, Note_off_c, 0, 67, 67
1, 69897, Note_off_c, 0, 64, 69
1, 69903, Note_off_c, 0, 69, 67
1, 69909, Note_off_c, 0, 76, 63
1, 69911, Note_on_c, 0, 71, 80
1, 69924, Control_c, 0, 64, 90
1, 69939, Control_c, 0, 64, 55
1, 69953, Control_c, 0, 64, 0
1, 69956, Note_off_c, 0, 71, 61
1, 69957, Note_on_c, 0, 73, 83
1, 70001, Note_off_c, 0, 73, 63
1, 70025, Note_on_c, 0, 74, 78
1, 70071, Note_off_c, 0, 74, 63
1, 70072, Note_on_c, 0, 76, 76
1, 70109, Note_off_c, 0, 76, 63
1, 70119, Note_on_c, 0, 78, 72
1, 70174, Note_off_c, 0, 78, 63
1, 70183, Note_on_c, 0, 76, 75
1, 70194, Note_on_c, 0, 74, 107
1, 70196, Note_on_c, 0, 66, 95
1, 70198, Note_on_c, 0, 59, 62
1, 70222, Note_off_c, 0, 59, 64
1, 70225, Note_on_c, 0, 60, 44
1, 70226, Note_off_c, 0, 74, 73
1, 70236, Note_off_c, 0, 66, 69
1, 70237, Note_on_c, 0, 78, 70
1, 70239, Note_off_c, 0, 76, 64
1, 70255, Note_off_c, 0, 60, 54
1, 70260, Note_off_c, 0, 78, 68
1, 70300, Note_on_c, 0, 79, 77
1, 70341, Note_on_c, 0, 81, 79
1, 70349, Note_off_c, 0, 79, 52
1, 70394, Note_on_c, 0, 83, 80
1, 70401, Note_on_c, 0, 85, 82
1, 70413, Note_off_c, 0, 81, 67
1, 70416, Note_off_c, 0, 83, 67
1, 70422, Note_on_c, 0, 68, 45
1, 70443, Note_off_c, 0, 85, 66
1, 70447, Note_off_c, 0, 68, 57
1, 70484, Note_on_c, 0, 86, 80
1, 70492, Note_on_c, 0, 84, 60
1, 70511, Note_off_c, 0, 84, 64
1, 70512, Note_on_c, 0, 71, 102
1, 70514, Note_on_c, 0, 74, 96
1, 70515, Note_on_c, 0, 67, 91
1, 70528, Note_on_c, 0, 88, 77
1, 70528, Note_off_c, 0, 86, 63
1, 70532, Note_off_c, 0, 74, 71
1, 70541, Note_off_c, 0, 71, 67
1, 70544, Note_off_c, 0, 67, 67
1, 70546, Note_on_c, 0, 90, 89
1, 70553, Note_off_c, 0, 88, 68
1, 70586, Note_off_c, 0, 90, 62
1, 70620, Note_on_c, 0, 91, 90
1, 70644, Note_on_c, 0, 93, 85
1, 70675, Note_on_c, 0, 95, 80
1, 70684, Note_on_c, 0, 98, 97
1, 70697, Note_on_c, 0, 96, 68
1, 70698, Note_off_c, 0, 95, 71
1, 70699, Note_off_c, 0, 91, 63
1, 70705, Note_off_c, 0, 93, 65
1, 70714, Note_off_c, 0, 96, 64
1, 70729, Note_off_c, 0, 98, 68
1, 70779, Note_on_c, 0, 91, 124
1, 70785, Note_on_c, 0, 100, 96
1, 70785, Note_on_c, 0, 71, 98
1, 70788, Note_on_c, 0, 76, 105
1, 70793, Note_on_c, 0, 67, 90
1, 70797, Note_on_c, 0, 101, 73
1, 70797, Note_off_c, 0, 101, 127
1, 70800, Note_on_c, 0, 64, 80
1, 70805, Note_on_c, 0, 63, 65
1, 70819, Note_off_c, 0, 91, 70
1, 70821, Control_c, 0, 64, 60
1, 70823, Note_off_c, 0, 64, 68
1, 70825, Note_off_c, 0, 63, 63
1, 70828, Note_off_c, 0, 76, 68
1, 70831, Note_off_c, 0, 100, 66
1, 70836, Note_off_c, 0, 71, 65
1, 70836, Control_c, 0, 64, 85
1, 70841, Note_off_c, 0, 67, 66
1, 70850, Control_c, 0, 64, 127
1, 70862, Note_on_c, 0, 88, 89
1, 70878, Note_off_c, 0, 88, 76
1, 70884, Poly_aftertouch_c, 0, 70, 0
1, 70934, Note_on_c, 0, 83, 90
1, 70941, Note_on_c, 0, 91, 62
1, 70964, Note_off_c, 0, 91, 67
1, 70969, Note_off_c, 0, 83, 66
1, 71019, Note_on_c, 0, 88, 72
1, 71022, Note_on_c, 0, 86, 76
1, 71043, Control_c, 0, 64, 87
1, 71058, Control_c, 0, 64, 52
1, 71062, Note_on_c, 0, 83, 94
1, 71073, Control_c, 0, 64, 0
1, 71073, Control_c, 0, 67, 73
1, 71075, Note_off_c, 0, 86, 65
1, 71078, Note_off_c, 0, 88, 66
1, 71088, Control_c, 0, 67, 127
1, 71114, Note_off_c, 0, 83, 67
1, 71139, Note_on_c, 0, 79, 74
1, 71164, Note_off_c, 0, 79, 64
1, 71193, Note_on_c, 0, 76, 79
1, 71195, Note_on_c, 0, 83, 85
1, 71218, Note_on_c, 0, 77, 50
1, 71269, Note_on_c, 0, 79, 72
1, 71272, Note_off_c, 0, 83, 65
1, 71281, Note_off_c, 0, 76, 62
1, 71289, Note_on_c, 0, 81, 39
1, 71297, Note_off_c, 0, 79, 65
1, 71315, Note_off_c, 0, 77, 22
1, 71327, Note_off_c, 0, 81, 35
1, 71388, Note_on_c, 0, 33, 62
1, 71388, Note_on_c, 0, 72, 75
1, 71396, Note_on_c, 0, 64, 67
1, 71412, Note_off_c, 0, 72, 66
1, 71417, Note_off_c, 0, 33, 60
1, 71547, Note_on_c, 0, 32, 55
1, 71572, Note_on_c, 0, 44, 15
1, 71581, Note_off_c, 0, 32, 51
1, 71619, Note_off_c, 0, 44, 28
1, 71631, Note_on_c, 0, 74, 74
1, 71656, Note_off_c, 0, 74, 67
1, 71671, Note_on_c, 0, 72, 64
1, 71674, Note_on_c, 0, 33, 43
1, 71697, Note_on_c, 0, 45, 15
1, 71711, Note_off_c, 0, 72, 57
1, 71713, Note_off_c, 0, 33, 48
1, 71747, Note_off_c, 0, 45, 27
1, 71811, Note_on_c, 0, 35, 51
1, 71815, Note_on_c, 0, 47, 41
1, 71839, Note_off_c, 0, 35, 53
1, 71850, Note_off_c, 0, 47, 47
1, 71888, Note_on_c, 0, 71, 61
1, 71919, Note_off_c, 0, 71, 63
1, 71945, Note_on_c, 0, 36, 45
1, 71948, Note_on_c, 0, 69, 61
1, 71954, Note_on_c, 0, 48, 44
1, 71978, Note_off_c, 0, 69, 68
1, 71982, Note_off_c, 0, 36, 45
1, 71990, Note_off_c, 0, 48, 53
1, 72088, Note_on_c, 0, 37, 53
1, 72109, Note_on_c, 0, 49, 20
1, 72118, Note_off_c, 0, 37, 58
1, 72120, Note_off_c, 0, 64, 61
1, 72152, Note_off_c, 0, 49, 49
1, 72154, Note_on_c, 0, 67, 63
1, 72201, Note_off_c, 0, 67, 59
1, 72211, Note_on_c, 0, 66, 77
1, 72215, Note_on_c, 0, 38, 66
1, 72223, Note_on_c, 0, 50, 51
1, 72230, Note_on_c, 0, 57, 50
1, 72238, Note_off_c, 0, 66, 67
1, 72243, Note_off_c, 0, 38, 65
1, 72250, Note_off_c, 0, 50, 59
1, 72257, Note_off_c, 0, 57, 36
1, 72364, Note_on_c, 0, 36, 56
1, 72373, Note_on_c, 0, 48, 51
1, 72393, Note_off_c, 0, 36, 63
1, 72405, Note_off_c, 0, 48, 51
1, 72434, Note_on_c, 0, 69, 53
1, 72495, Note_on_c, 0, 74, 68
1, 72495, Note_off_c, 0, 69, 61
1, 72505, Note_on_c, 0, 66, 72
1, 72511, Note_on_c, 0, 47, 32
1, 72517, Note_on_c, 0, 35, 31
1, 72517, Note_off_c, 0, 35, 127
1, 72523, Note_off_c, 0, 74, 65
1, 72556, Note_off_c, 0, 47, 49
1, 72558, Note_off_c, 0, 66, 0
1, 72595, Poly_aftertouch_c, 0, 66, 127
1, 72642, Note_on_c, 0, 34, 57
1, 72662, Note_on_c, 0, 46, 20
1, 72670, Note_off_c, 0, 34, 57
1, 72711, Note_off_c, 0, 46, 28
1, 72727, Note_on_c, 0, 76, 67
1, 72782, Note_off_c, 0, 76, 62
1, 72785, Note_on_c, 0, 47, 36
1, 72786, Note_on_c, 0, 35, 35
1, 72786, Note_on_c, 0, 74, 63
1, 72827, Note_off_c, 0, 74, 55
1, 72830, Note_off_c, 0, 47, 44
1, 72831, Note_off_c, 0, 35, 42
1, 72913, Note_on_c, 0, 36, 53
1, 72922, Note_on_c, 0, 48, 53
1, 72943, Note_off_c, 0, 36, 59
1, 72950, Note_off_c, 0, 48, 60
1, 73003, Note_on_c, 0, 72, 60
1, 73036, Note_off_c, 0, 72, 64
1, 73051, Note_on_c, 0, 38, 48
1, 73053, Note_on_c, 0, 50, 51
1, 73060, Note_on_c, 0, 71, 68
1, 73081, Note_off_c, 0, 50, 60
1, 73084, Note_off_c, 0, 38, 51
1, 73086, Note_off_c, 0, 71, 68
1, 73179, Note_on_c, 0, 39, 55
1, 73188, Note_on_c, 0, 51, 46
1, 73189, Poly_aftertouch_c, 0, 66, 0
1, 73209, Note_off_c, 0, 39, 60
1, 73220, Note_off_c, 0, 51, 56
1, 73261, Note_on_c, 0, 69, 58
1, 73300, Note_on_c, 0, 52, 59
1, 73301, Note_off_c, 0, 69, 61
1, 73302, Note_on_c, 0, 40, 58
1, 73308, Note_on_c, 0, 67, 72
1, 73325, Note_on_c, 0, 59, 59
1, 73329, Note_off_c, 0, 52, 64
1, 73332, Note_off_c, 0, 67, 70
1, 73335, Note_off_c, 0, 40, 63
1, 73349, Note_off_c, 0, 59, 61
1, 73439, Note_on_c, 0, 38, 60
1, 73441, Note_on_c, 0, 50, 56
1, 73470, Note_off_c, 0, 38, 65
1, 73471, Note_off_c, 0, 50, 65
1, 73534, Note_on_c, 0, 71, 56
1, 73574, Note_off_c, 0, 71, 65
1, 73582, Note_on_c, 0, 76, 76
1, 73585, Note_on_c, 0, 36, 67
1, 73589, Note_on_c, 0, 48, 59
1, 73592, Note_on_c, 0, 67, 59
1, 73610, Note_off_c, 0, 76, 64
1, 73612, Note_off_c, 0, 67, 62
1, 73614, Note_off_c, 0, 36, 66
1, 73616, Note_off_c, 0, 48, 59
1, 73724, Note_on_c, 0, 35, 56
1, 73728, Note_on_c, 0, 47, 55
1, 73751, Note_off_c, 0, 35, 58
1, 73756, Note_off_c, 0, 47, 60
1, 73804, Note_on_c, 0, 74, 77
1, 73853, Note_on_c, 0, 72, 91
1, 73867, Note_on_c, 0, 33, 68
1, 73867, Note_off_c, 0, 74, 63
1, 73868, Note_on_c, 0, 45, 64
1, 73874, Note_on_c, 0, 69, 66
1, 73897, Note_off_c, 0, 33, 63
1, 73898, Note_off_c, 0, 45, 65
1, 73999, Note_on_c, 0, 36, 61
1, 74003, Note_on_c, 0, 48, 66
1, 74030, Note_off_c, 0, 36, 61
1, 74033, Note_off_c, 0, 48, 64
1, 74056, Note_on_c, 0, 76, 74
1, 74066, Note_off_c, 0, 72, 56
1, 74124, Note_on_c, 0, 78, 88
1, 74127, Note_on_c, 0, 50, 72
1, 74130, Note_on_c, 0, 38, 71
1, 74133, Note_off_c, 0, 76, 65
1, 74144, Note_off_c, 0, 69, 61
1, 74156, Note_off_c, 0, 38, 64
1, 74166, Note_off_c, 0, 50, 66
1, 74166, Note_off_c, 0, 78, 60
1, 74216, Control_c, 0, 67, 118
1, 74231, Control_c, 0, 67, 98
1, 74245, Control_c, 0, 67, 69
1, 74259, Note_on_c, 0, 52, 73
1, 74260, Control_c, 0, 67, 36
1, 74262, Note_on_c, 0, 40, 71
1, 74275, Control_c, 0, 67, 0
1, 74290, Note_off_c, 0, 40, 65
1, 74295, Note_off_c, 0, 52, 66
1, 74354, Note_on_c, 0, 76, 77
1, 74395, Note_on_c, 0, 74, 92
1, 74396, Note_on_c, 0, 69, 98
1, 74399, Note_on_c, 0, 62, 95
1, 74413, Note_on_c, 0, 42, 82
1, 74421, Note_on_c, 0, 54, 69
1, 74425, Note_off_c, 0, 76, 65
1, 74426, Note_off_c, 0, 62, 67
1, 74437, Note_off_c, 0, 69, 66
1, 74445, Note_off_c, 0, 42, 66
1, 74448, Note_off_c, 0, 54, 67
1, 74461, Note_off_c, 0, 74, 67
1, 74544, Note_on_c, 0, 50, 84
1, 74544, Note_on_c, 0, 38, 83
1, 74580, Note_off_c, 0, 38, 65
1, 74580, Note_off_c, 0, 50, 66
1, 74601, Note_on_c, 0, 66, 93
1, 74607, Note_on_c, 0, 78, 80
1, 74625, Note_off_c, 0, 66, 67
1, 74625, Note_off_c, 0, 78, 70
1, 74670, Note_on_c, 0, 47, 107
1, 74671, Note_on_c, 0, 35, 98
1, 74677, Note_on_c, 0, 79, 99
1, 74679, Note_on_c, 0, 67, 104
1, 74679, Note_on_c, 0, 74, 96
1, 74683, Note_on_c, 0, 78, 90
1, 74705, Note_off_c, 0, 35, 63
1, 74708, Note_off_c, 0, 67, 69
1, 74708, Note_off_c, 0, 78, 61
1, 74711, Note_off_c, 0, 47, 68
1, 74713, Note_off_c, 0, 74, 66
1, 74725, Note_off_c, 0, 79, 68
1, 74833, Note_on_c, 0, 47, 85
1, 74834, Note_on_c, 0, 59, 92
1, 74861, Note_off_c, 0, 59, 67
1, 74862, Note_off_c, 0, 47, 66
1, 74874, Note_on_c, 0, 66, 102
1, 74878, Note_on_c, 0, 78, 85
1, 74896, Note_off_c, 0, 78, 70
1, 74900, Note_off_c, 0, 66, 68
1, 74902, Note_on_c, 0, 75, 47
1, 74902, Note_off_c, 0, 75, 127
1, 74946, Note_on_c, 0, 50, 95
1, 74950, Note_on_c, 0, 45, 90
1, 74954, Note_on_c, 0, 57, 87
1, 74959, Note_on_c, 0, 76, 99
1, 74959, Note_on_c, 0, 55, 81
1, 74963, Note_on_c, 0, 64, 103
1, 74975, Note_on_c, 0, 72, 68
1, 74976, Note_off_c, 0, 57, 72
1, 74982, Note_off_c, 0, 55, 69
1, 74986, Note_off_c, 0, 45, 63
1, 74989, Note_off_c, 0, 50, 67
1, 74992, Note_off_c, 0, 64, 71
1, 74992, Note_on_c, 0, 74, 47
1, 74992, Note_off_c, 0, 72, 67
1, 75003, Note_off_c, 0, 76, 69
1, 75012, Note_on_c, 0, 48, 12
1, 75019, Note_off_c, 0, 74, 40
1, 75048, Note_off_c, 0, 48, 50
1, 75096, Note_on_c, 0, 38, 93
1, 75107, Note_on_c, 0, 50, 84
1, 75126, Note_off_c, 0, 38, 67
1, 75133, Note_off_c, 0, 50, 69
1, 75149, Note_on_c, 0, 66, 90
1, 75168, Note_on_c, 0, 78, 55
1, 75173, Note_off_c, 0, 66, 68
1, 75190, Note_off_c, 0, 78, 58
1, 75221, Note_on_c, 0, 50, 107
1, 75224, Note_on_c, 0, 55, 102
1, 75225, Note_on_c, 0, 43, 102
1, 75227, Note_on_c, 0, 79, 108
1, 75228, Note_on_c, 0, 71, 98
1, 75230, Note_on_c, 0, 67, 105
1, 75247, Note_off_c, 0, 67, 71
1, 75248, Note_off_c, 0, 55, 69
1, 75253, Note_off_c, 0, 50, 70
1, 75253, Note_off_c, 0, 71, 69
1, 75263, Note_off_c, 0, 43, 63
1, 75266, Note_off_c, 0, 79, 69
1, 75315, Poly_aftertouch_c, 0, 73, 0
1, 75337, Poly_aftertouch_c, 0, 48, 0
1, 75619, Note_on_c, 0, 38, 99
1, 75620, Note_on_c, 0, 43, 100
1, 75620, Note_on_c, 0, 83, 102
1, 75621, Note_on_c, 0, 31, 94
1, 75621, Note_on_c, 0, 91, 93
1, 75622, Note_on_c, 0, 79, 99
1, 75623, Note_on_c, 0, 35, 96
1, 75626, Note_on_c, 0, 86, 95
1, 75640, Control_c, 0, 64, 62
1, 75648, Note_off_c, 0, 91, 72
1, 75655, Control_c, 0, 64, 127
1, 75655, Control_c, 0, 67, 70
1, 75656, Note_off_c, 0, 79, 70
1, 75659, Note_on_c, 0, 36, 45
1, 75661, Note_off_c, 0, 86, 68
1, 75662, Note_on_c, 0, 88, 42
1, 75664, Note_off_c, 0, 43, 64
1, 75667, Note_off_c, 0, 83, 69
1, 75670, Control_c, 0, 67, 84
1, 75673, Note_off_c, 0, 31, 65
1, 75677, Note_off_c, 0, 38, 63
1, 75680, Note_off_c, 0, 35, 63
1, 75684, Control_c, 0, 67, 72
1, 75689, Note_off_c, 0, 88, 58
1, 75695, Note_off_c, 0, 36, 58
1, 75699, Control_c, 0, 67, 57
1, 75714, Control_c, 0, 67, 0
1, 75870, Control_c, 0, 64, 114
1, 75885, Control_c, 0, 64, 81
1, 75899, Control_c, 0, 64, 64
1, 75914, Control_c, 0, 64, 40
1, 75929, Control_c, 0, 64, 0
1, 76136, Control_c, 0, 67, 42
1, 76151, Control_c, 0, 67, 45
1, 76166, Control_c, 0, 67, 47
1, 76181, Control_c, 0, 67, 57
1, 76196, Control_c, 0, 67, 78
1, 76211, Control_c, 0, 67, 99
1, 76226, Control_c, 0, 67, 106
1, 76270, Control_c, 0, 67, 110
1, 76300, Control_c, 0, 67, 117
1, 76315, Control_c, 0, 67, 127
1, 77323, Control_c, 0, 64, 30
1, 77367, Control_c, 0, 64, 33
1, 77382, Control_c, 0, 64, 34
1, 77397, Control_c, 0, 64, 35
1, 77412, Control_c, 0, 64, 35
1, 77426, Control_c, 0, 64, 36
1, 77441, Control_c, 0, 64, 36
1, 77456, Control_c, 0, 64, 37
1, 77470, Control_c, 0, 64, 37
1, 77485, Control_c, 0, 64, 38
1, 77500, Control_c, 0, 64, 39
1, 77515, Control_c, 0, 64, 40
1, 77530, Control_c, 0, 64, 41
1, 77544, Control_c, 0, 64, 44
1, 77559, Control_c, 0, 64, 48
1, 77574, Control_c, 0, 64, 53
1, 77588, Control_c, 0, 64, 56
1, 77603, Control_c, 0, 64, 58
1, 77618, Control_c, 0, 64, 59
1, 77634, Control_c, 0, 64, 61
1, 77649, Control_c, 0, 64, 63
1, 77663, Control_c, 0, 64, 65
1, 77678, Control_c, 0, 64, 68
1, 77693, Control_c, 0, 64, 70
1, 77708, Control_c, 0, 64, 74
1, 77723, Control_c, 0, 64, 80
1, 77737, Control_c, 0, 64, 86
1, 77752, Control_c, 0, 64, 95
1, 77767, Control_c, 0, 64, 108
1, 77782, Control_c, 0, 64, 127
1, 78592, Note_on_c, 0, 40, 46
1, 78621, Control_c, 0, 64, 96
1, 78625, Note_off_c, 0, 40, 50
1, 78635, Control_c, 0, 64, 74
1, 78650, Control_c, 0, 64, 57
1, 78665, Control_c, 0, 64, 0
1, 78672, Poly_aftertouch_c, 0, 52, 0
1, 79096, Note_on_c, 0, 64, 55
1, 79103, Note_on_c, 0, 55, 48
1, 79103, Note_on_c, 0, 59, 46
1, 79126, Note_off_c, 0, 59, 58
1, 79126, Note_off_c, 0, 64, 65
1, 79128, Note_off_c, 0, 55, 62
1, 79520, Note_on_c, 0, 40, 43
1, 79551, Note_off_c, 0, 40, 49
1, 79919, Note_on_c, 0, 57, 56
1, 79927, Note_on_c, 0, 66, 51
1, 79935, Note_on_c, 0, 60, 43
1, 79946, Note_off_c, 0, 57, 64
1, 79955, Note_off_c, 0, 66, 65
1, 79964, Note_off_c, 0, 60, 53
1, 80353, Note_on_c, 0, 40, 42
1, 80389, Note_off_c, 0, 40, 54
1, 80810, Note_on_c, 0, 67, 49
1, 80820, Note_on_c, 0, 61, 45
1, 80821, Note_on_c, 0, 58, 47
1, 80846, Note_off_c, 0, 58, 60
1, 80850, Note_off_c, 0, 61, 63
1, 80853, Note_off_c, 0, 67, 63
1, 81218, Note_on_c, 0, 40, 49
1, 81250, Note_off_c, 0, 40, 62
1, 81663, Note_on_c, 0, 63, 51
1, 81669, Note_on_c, 0, 57, 49
1, 81696, Note_off_c, 0, 57, 62
1, 81697, Note_on_c, 0, 60, 7
1, 81702, Note_off_c, 0, 63, 63
1, 81744, Note_off_c, 0, 60, 42
1, 82092, Note_on_c, 0, 40, 45
1, 82123, Note_off_c, 0, 40, 58
1, 82178, Poly_aftertouch_c, 0, 52, 0
1, 82495, Note_on_c, 0, 91, 57
1, 82503, Note_on_c, 0, 55, 41
1, 82512, Note_on_c, 0, 83, 40
1, 82520, Note_on_c, 0, 59, 25
1, 82532, Note_off_c, 0, 55, 60
1, 82537, Note_off_c, 0, 91, 62
1, 82539, Note_off_c, 0, 83, 48
1, 82566, Note_off_c, 0, 59, 47
1, 82697, Note_on_c, 0, 88, 65
1, 82716, Note_on_c, 0, 79, 42
1, 82728, Note_off_c, 0, 88, 62
1, 82742, Note_off_c, 0, 79, 57
1, 82913, Note_on_c, 0, 91, 60
1, 82921, Note_on_c, 0, 40, 43
1, 82921, Note_on_c, 0, 83, 52
1, 82937, Note_on_c, 0, 52, 25
1, 82942, Note_off_c, 0, 83, 59
1, 82945, Note_off_c, 0, 91, 65
1, 82953, Note_off_c, 0, 40, 47
1, 82979, Note_off_c, 0, 52, 43
1, 83311, Note_on_c, 0, 90, 60
1, 83313, Note_on_c, 0, 57, 53
1, 83318, Note_on_c, 0, 66, 46
1, 83319, Note_on_c, 0, 81, 53
1, 83321, Note_on_c, 0, 60, 44
1, 83324, Note_on_c, 0, 84, 45
1, 83341, Note_off_c, 0, 81, 64
1, 83341, Note_off_c, 0, 90, 68
1, 83343, Note_off_c, 0, 66, 57
1, 83344, Note_off_c, 0, 57, 65
1, 83349, Note_off_c, 0, 60, 55
1, 83350, Note_off_c, 0, 84, 56
1, 83727, Control_c, 0, 64, 46
1, 83731, Note_on_c, 0, 87, 53
1, 83742, Control_c, 0, 64, 63
1, 83746, Note_on_c, 0, 40, 41
1, 83746, Note_on_c, 0, 78, 35
1, 83757, Control_c, 0, 64, 73
1, 83772, Control_c, 0, 64, 89
1, 83776, Note_off_c, 0, 78, 48
1, 83779, Note_on_c, 0, 81, 3
1, 83781, Note_off_c, 0, 40, 47
1, 83782, Note_off_c, 0, 87, 57
1, 83786, Control_c, 0, 64, 126
1, 83803, Poly_aftertouch_c, 0, 52, 127
1, 83818, Note_off_c, 0, 81, 52
1, 83842, Poly_aftertouch_c, 0, 52, 0
1, 84128, Note_on_c, 0, 88, 61
1, 84131, Note_on_c, 0, 82, 56
1, 84134, Control_c, 0, 64, 102
1, 84140, Note_on_c, 0, 61, 52
1, 84147, Note_on_c, 0, 70, 44
1, 84149, Control_c, 0, 64, 74
1, 84152, Note_off_c, 0, 82, 62
1, 84153, Note_on_c, 0, 67, 28
1, 84155, Note_on_c, 0, 79, 20
1, 84155, Note_off_c, 0, 88, 68
1, 84162, Note_off_c, 0, 61, 62
1, 84164, Control_c, 0, 64, 56
1, 84173, Note_off_c, 0, 70, 54
1, 84180, Control_c, 0, 64, 0
1, 84191, Note_off_c, 0, 67, 46
1, 84198, Note_off_c, 0, 79, 42
1, 84520, Note_on_c, 0, 86, 57
1, 84524, Note_on_c, 0, 40, 47
1, 84524, Note_on_c, 0, 77, 50
1, 84531, Note_on_c, 0, 80, 32
1, 84545, Note_off_c, 0, 77, 59
1, 84551, Note_on_c, 0, 52, 14
1, 84551, Note_off_c, 0, 86, 66
1, 84555, Note_off_c, 0, 40, 48
1, 84562, Note_off_c, 0, 80, 46
1, 84599, Note_off_c, 0, 52, 51
1, 84705, Note_on_c, 0, 80, 51
1, 84706, Note_on_c, 0, 86, 65
1, 84718, Note_on_c, 0, 77, 44
1, 84739, Note_off_c, 0, 80, 63
1, 84742, Note_off_c, 0, 86, 58
1, 84745, Note_off_c, 0, 77, 57
1, 84907, Note_on_c, 0, 86, 66
1, 84909, Note_on_c, 0, 80, 62
1, 84910, Note_on_c, 0, 71, 45
1, 84913, Note_on_c, 0, 62, 46
1, 84915, Note_on_c, 0, 68, 38
1, 84924, Note_on_c, 0, 77, 46
1, 84934, Note_off_c, 0, 86, 66
1, 84935, Note_off_c, 0, 80, 70
1, 84937, Note_off_c, 0, 71, 51
1, 84939, Note_off_c, 0, 62, 61
1, 84945, Note_off_c, 0, 68, 49
1, 84948, Note_off_c, 0, 77, 57
1, 85285, Note_on_c, 0, 85, 63
1, 85295, Note_on_c, 0, 76, 50
1, 85296, Note_on_c, 0, 40, 47
1, 85317, Note_on_c, 0, 79, 12
1, 85318, Note_on_c, 0, 52, 19
1, 85318, Note_off_c, 0, 76, 58
1, 85319, Note_off_c, 0, 85, 62
1, 85328, Note_off_c, 0, 40, 49
1, 85362, Note_off_c, 0, 79, 42
1, 85367, Note_off_c, 0, 52, 50
1, 85466, Note_on_c, 0, 79, 53
1, 85469, Note_on_c, 0, 85, 63
1, 85482, Note_on_c, 0, 76, 42
1, 85498, Note_off_c, 0, 79, 64
1, 85500, Note_off_c, 0, 85, 62
1, 85510, Note_off_c, 0, 76, 53
1, 85673, Note_on_c, 0, 85, 57
1, 85675, Note_on_c, 0, 70, 54
1, 85677, Note_on_c, 0, 67, 46
1, 85681, Note_on_c, 0, 61, 46
1, 85685, Note_on_c, 0, 76, 43
1, 85696, Note_off_c, 0, 85, 63
1, 85696, Note_off_c, 0, 70, 62
1, 85699, Note_on_c, 0, 79, 10
1, 85703, Note_off_c, 0, 67, 57
1, 85706, Note_off_c, 0, 61, 59
1, 85713, Note_off_c, 0, 76, 54
1, 85747, Note_off_c, 0, 79, 27
1, 86043, Note_on_c, 0, 84, 55
1, 86049, Note_on_c, 0, 75, 51
1, 86052, Note_on_c, 0, 78, 42
1, 86053, Note_on_c, 0, 40, 45
1, 86069, Note_on_c, 0, 52, 26
1, 86069, Note_off_c, 0, 75, 62
1, 86074, Note_off_c, 0, 84, 66
1, 86077, Note_off_c, 0, 78, 52
1, 86084, Note_off_c, 0, 40, 48
1, 86112, Note_off_c, 0, 52, 50
1, 86224, Note_on_c, 0, 84, 52
1, 86224, Note_on_c, 0, 78, 43
1, 86237, Note_on_c, 0, 75, 33
1, 86251, Note_off_c, 0, 78, 55
1, 86265, Note_off_c, 0, 84, 54
1, 86268, Note_off_c, 0, 75, 47
1, 86411, Note_on_c, 0, 84, 63
1, 86416, Note_on_c, 0, 66, 56
1, 86420, Note_on_c, 0, 60, 53
1, 86429, Note_on_c, 0, 69, 42
1, 86431, Note_on_c, 0, 75, 42
1, 86432, Note_on_c, 0, 78, 36
1, 86438, Note_off_c, 0, 66, 65
1, 86449, Note_off_c, 0, 60, 66
1, 86455, Note_off_c, 0, 75, 57
1, 86457, Note_off_c, 0, 69, 54
1, 86459, Note_off_c, 0, 84, 61
1, 86462, Note_off_c, 0, 78, 45
1, 86787, Note_on_c, 0, 83, 59
1, 86795, Note_on_c, 0, 59, 48
1, 86796, Note_on_c, 0, 76, 54
1, 86799, Note_on_c, 0, 52, 42
1, 86799, Note_on_c, 0, 67, 43
1, 86817, Note_off_c, 0, 76, 63
1, 86819, Note_off_c, 0, 59, 59
1, 86823, Note_off_c, 0, 83, 60
1, 86828, Note_off_c, 0, 67, 55
1, 86830, Note_off_c, 0, 52, 51
1, 86983, Note_on_c, 0, 88, 60
1, 87007, Note_on_c, 0, 79, 30
1, 87037, Note_off_c, 0, 88, 58
1, 87040, Note_off_c, 0, 79, 53
1, 87176, Note_on_c, 0, 60, 49
1, 87177, Note_on_c, 0, 66, 55
1, 87180, Note_on_c, 0, 84, 52
1, 87192, Note_on_c, 0, 57, 39
1, 87205, Note_on_c, 0, 76, 32
1, 87206, Note_off_c, 0, 66, 65
1, 87207, Note_off_c, 0, 60, 65
1, 87212, Note_off_c, 0, 84, 66
1, 87219, Note_off_c, 0, 57, 57
1, 87238, Note_off_c, 0, 76, 48
1, 87376, Note_on_c, 0, 88, 51
1, 87386, Note_on_c, 0, 81, 38
1, 87413, Note_off_c, 0, 81, 56
1, 87425, Note_off_c, 0, 88, 55
1, 87583, Note_on_c, 0, 52, 47
1, 87584, Note_on_c, 0, 76, 53
1, 87585, Note_on_c, 0, 67, 51
1, 87586, Note_on_c, 0, 83, 44
1, 87604, Note_on_c, 0, 59, 27
1, 87604, Note_off_c, 0, 76, 62
1, 87607, Note_off_c, 0, 67, 60
1, 87610, Note_off_c, 0, 83, 52
1, 87613, Note_off_c, 0, 52, 64
1, 87637, Note_off_c, 0, 59, 46
1, 87999, Note_on_c, 0, 64, 67
1, 88087, Note_off_c, 0, 64, 62
1, 88093, Note_on_c, 0, 62, 74
1, 88176, Note_off_c, 0, 62, 61
1, 88188, Note_on_c, 0, 60, 83
1, 88264, Note_off_c, 0, 60, 59
1, 88268, Note_on_c, 0, 59, 84
1, 88298, Note_off_c, 0, 59, 65
1, 88385, Note_on_c, 0, 58, 88
1, 88391, Note_on_c, 0, 46, 79
1, 88423, Note_off_c, 0, 46, 58
1, 88782, Note_on_c, 0, 72, 63
1, 88786, Note_on_c, 0, 60, 54
1, 88791, Note_on_c, 0, 64, 53
1, 88797, Note_on_c, 0, 79, 48
1, 88808, Note_off_c, 0, 72, 66
1, 88817, Note_off_c, 0, 64, 65
1, 88821, Note_off_c, 0, 79, 64
1, 88837, Note_off_c, 0, 60, 60
1, 88982, Note_on_c, 0, 76, 63
1, 89005, Note_on_c, 0, 67, 39
1, 89020, Note_off_c, 0, 76, 56
1, 89035, Note_off_c, 0, 67, 53
1, 89130, Note_off_c, 0, 58, 63
1, 89163, Note_on_c, 0, 57, 75
1, 89167, Note_on_c, 0, 45, 69
1, 89182, Note_on_c, 0, 79, 50
1, 89192, Note_on_c, 0, 72, 25
1, 89207, Note_off_c, 0, 79, 65
1, 89226, Note_off_c, 0, 45, 64
1, 89231, Note_off_c, 0, 72, 30
1, 89547, Note_on_c, 0, 78, 63
1, 89553, Note_on_c, 0, 75, 53
1, 89556, Note_on_c, 0, 66, 77
1, 89556, Note_on_c, 0, 63, 62
1, 89556, Note_on_c, 0, 72, 46
1, 89572, Note_off_c, 0, 75, 61
1, 89573, Note_off_c, 0, 78, 65
1, 89577, Note_off_c, 0, 66, 70
1, 89580, Note_off_c, 0, 72, 55
1, 89588, Note_off_c, 0, 63, 65
1, 89850, Note_off_c, 0, 57, 63
1, 89946, Note_on_c, 0, 55, 64
1, 89946, Note_on_c, 0, 84, 66
1, 89947, Note_on_c, 0, 43, 61
1, 89955, Note_on_c, 0, 78, 55
1, 89956, Control_c, 0, 64, 34
1, 89958, Note_on_c, 0, 75, 60
1, 89971, Control_c, 0, 64, 58
1, 89976, Note_off_c, 0, 78, 61
1, 89981, Note_off_c, 0, 75, 66
1, 89983, Note_off_c, 0, 43, 61
1, 89985, Note_off_c, 0, 84, 60
1, 89985, Control_c, 0, 64, 70
1, 90000, Control_c, 0, 64, 82
1, 90015, Control_c, 0, 64, 108
1, 90030, Control_c, 0, 64, 127
1, 90318, Control_c, 0, 64, 81
1, 90328, Note_on_c, 0, 83, 65
1, 90333, Note_on_c, 0, 64, 69
1, 90333, Control_c, 0, 64, 54
1, 90337, Note_on_c, 0, 79, 42
1, 90339, Note_on_c, 0, 76, 43
1, 90344, Note_on_c, 0, 59, 49
1, 90348, Control_c, 0, 64, 0
1, 90351, Note_off_c, 0, 83, 60
1, 90361, Note_off_c, 0, 64, 68
1, 90364, Note_off_c, 0, 79, 58
1, 90367, Note_off_c, 0, 76, 35
1, 90373, Note_off_c, 0, 59, 57
1, 90720, Note_on_c, 0, 91, 77
1, 90729, Note_on_c, 0, 54, 71
1, 90730, Note_on_c, 0, 42, 58
1, 90734, Note_on_c, 0, 88, 60
1, 90748, Note_on_c, 0, 82, 40
1, 90752, Note_off_c, 0, 88, 63
1, 90755, Note_off_c, 0, 91, 68
1, 90769, Note_off_c, 0, 82, 37
1, 90781, Note_off_c, 0, 42, 48
1, 90862, Note_off_c, 0, 55, 59
1, 90918, Note_on_c, 0, 91, 75
1, 90942, Note_on_c, 0, 88, 56
1, 90957, Note_on_c, 0, 82, 32
1, 90962, Note_off_c, 0, 88, 60
1, 90972, Note_off_c, 0, 82, 37
1, 90972, Note_off_c, 0, 91, 65
1, 91099, Note_on_c, 0, 91, 87
1, 91117, Note_on_c, 0, 58, 67
1, 91122, Note_on_c, 0, 82, 47
1, 91124, Note_off_c, 0, 91, 68
1, 91127, Note_on_c, 0, 88, 29
1, 91129, Note_on_c, 0, 64, 47
1, 91148, Note_off_c, 0, 82, 35
1, 91154, Note_off_c, 0, 64, 58
1, 91157, Note_off_c, 0, 88, 32
1, 91166, Note_off_c, 0, 58, 59
1, 91416, Poly_aftertouch_c, 0, 53, 127
1, 91483, Note_on_c, 0, 90, 75
1, 91487, Note_on_c, 0, 86, 63
1, 91498, Note_on_c, 0, 83, 54
1, 91505, Note_off_c, 0, 86, 64
1, 91509, Note_on_c, 0, 42, 70
1, 91509, Note_off_c, 0, 90, 66
1, 91518, Note_off_c, 0, 83, 59
1, 91568, Poly_aftertouch_c, 0, 53, 0
1, 91571, Note_off_c, 0, 54, 50
1, 91640, Note_off_c, 0, 42, 56
1, 91653, Control_c, 0, 64, 29
1, 91667, Note_on_c, 0, 86, 69
1, 91667, Note_on_c, 0, 90, 73
1, 91668, Control_c, 0, 64, 38
1, 91683, Note_on_c, 0, 83, 49
1, 91683, Control_c, 0, 64, 47
1, 91698, Control_c, 0, 64, 50
1, 91699, Note_off_c, 0, 86, 61
1, 91705, Note_off_c, 0, 83, 59
1, 91705, Note_off_c, 0, 90, 61
1, 91712, Control_c, 0, 64, 51
1, 91727, Control_c, 0, 64, 52
1, 91742, Control_c, 0, 64, 53
1, 91757, Control_c, 0, 64, 54
1, 91771, Control_c, 0, 64, 54
1, 91786, Control_c, 0, 64, 53
1, 91801, Control_c, 0, 64, 51
1, 91816, Control_c, 0, 64, 49
1, 91831, Control_c, 0, 64, 46
1, 91846, Control_c, 0, 64, 41
1, 91851, Note_on_c, 0, 90, 73
1, 91859, Note_on_c, 0, 86, 62
1, 91860, Control_c, 0, 64, 32
1, 91863, Note_on_c, 0, 83, 58
1, 91873, Note_on_c, 0, 62, 60
1, 91875, Control_c, 0, 64, 0
1, 91876, Note_on_c, 0, 54, 64
1, 91882, Note_off_c, 0, 83, 65
1, 91885, Note_off_c, 0, 90, 61
1, 91886, Note_off_c, 0, 86, 67
1, 91894, Note_off_c, 0, 62, 63
1, 91897, Note_on_c, 0, 59, 23
1, 91902, Note_off_c, 0, 54, 66
1, 91919, Control_c, 0, 64, 30
1, 91939, Note_off_c, 0, 59, 29
1, 91978, Control_c, 0, 64, 32
1, 91993, Control_c, 0, 64, 33
1, 92023, Control_c, 0, 64, 32
1, 92052, Control_c, 0, 64, 33
1, 92067, Control_c, 0, 64, 34
1, 92126, Control_c, 0, 64, 35
1, 92141, Control_c, 0, 64, 35
1, 92156, Control_c, 0, 64, 38
1, 92172, Control_c, 0, 64, 43
1, 92186, Control_c, 0, 64, 47
1, 92201, Control_c, 0, 64, 48
1, 92231, Note_on_c, 0, 85, 51
1, 92231, Control_c, 0, 64, 49
1, 92233, Note_on_c, 0, 54, 53
1, 92235, Note_on_c, 0, 42, 21
1, 92242, Note_on_c, 0, 82, 44
1, 92248, Note_on_c, 0, 88, 34
1, 92253, Note_off_c, 0, 85, 60
1, 92260, Control_c, 0, 64, 47
1, 92265, Note_off_c, 0, 82, 52
1, 92267, Note_off_c, 0, 54, 63
1, 92275, Control_c, 0, 64, 45
1, 92280, Note_off_c, 0, 88, 46
1, 92292, Note_off_c, 0, 42, 28
1, 92298, Control_c, 0, 64, 43
1, 92393, Note_on_c, 0, 88, 61
1, 92395, Note_on_c, 0, 85, 55
1, 92413, Note_on_c, 0, 82, 30
1, 92430, Note_off_c, 0, 85, 62
1, 92433, Note_off_c, 0, 88, 61
1, 92442, Note_off_c, 0, 82, 54
1, 92564, Control_c, 0, 64, 44
1, 92579, Note_on_c, 0, 82, 56
1, 92580, Note_on_c, 0, 88, 63
1, 92582, Note_on_c, 0, 61, 45
1, 92583, Note_on_c, 0, 54, 48
1, 92587, Note_on_c, 0, 85, 53
1, 92608, Note_off_c, 0, 88, 67
1, 92609, Note_off_c, 0, 61, 56
1, 92609, Note_off_c, 0, 85, 62
1, 92612, Note_off_c, 0, 82, 63
1, 92619, Note_off_c, 0, 54, 65
1, 92654, Control_c, 0, 64, 43
1, 92668, Control_c, 0, 64, 43
1, 92683, Control_c, 0, 64, 42
1, 92713, Control_c, 0, 64, 43
1, 92787, Control_c, 0, 64, 43
1, 92861, Control_c, 0, 64, 44
1, 92906, Control_c, 0, 64, 43
1, 92920, Control_c, 0, 64, 42
1, 92931, Note_on_c, 0, 47, 57
1, 92933, Note_on_c, 0, 54, 58
1, 92935, Control_c, 0, 64, 42
1, 92939, Note_on_c, 0, 59, 51
1, 92940, Note_on_c, 0, 83, 50
1, 92940, Note_on_c, 0, 87, 53
1, 92950, Control_c, 0, 64, 41
1, 92957, Note_off_c, 0, 54, 63
1, 92963, Note_off_c, 0, 47, 65
1, 92963, Note_off_c, 0, 59, 59
1, 92966, Control_c, 0, 64, 38
1, 92970, Note_off_c, 0, 83, 52
1, 92980, Note_off_c, 0, 87, 60
1, 92981, Control_c, 0, 64, 36
1, 92996, Control_c, 0, 64, 35
1, 93047, Control_c, 0, 64, 36
1, 93137, Note_on_c, 0, 90, 57
1, 93151, Control_c, 0, 64, 35
1, 93166, Control_c, 0, 64, 33
1, 93173, Note_on_c, 0, 78, 16
1, 93181, Control_c, 0, 64, 33
1, 93196, Control_c, 0, 64, 32
1, 93211, Control_c, 0, 64, 30
1, 93214, Note_off_c, 0, 78, 40
1, 93217, Note_off_c, 0, 90, 55
1, 93225, Control_c, 0, 64, 0
1, 93315, Note_on_c, 0, 54, 52
1, 93315, Note_on_c, 0, 88, 67
1, 93316, Note_on_c, 0, 58, 60
1, 93323, Note_on_c, 0, 48, 55
1, 93324, Note_on_c, 0, 82, 49
1, 93342, Note_off_c, 0, 54, 64
1, 93345, Note_off_c, 0, 82, 60
1, 93346, Note_off_c, 0, 58, 65
1, 93349, Note_off_c, 0, 48, 62
1, 93366, Note_off_c, 0, 88, 60
1, 93522, Note_on_c, 0, 90, 53
1, 93563, Note_off_c, 0, 90, 61
1, 93728, Note_on_c, 0, 87, 55
1, 93730, Note_on_c, 0, 47, 54
1, 93741, Note_on_c, 0, 78, 37
1, 93744, Note_on_c, 0, 54, 39
1, 93745, Note_on_c, 0, 59, 41
1, 93761, Note_off_c, 0, 47, 63
1, 93762, Note_off_c, 0, 87, 64
1, 93765, Note_on_c, 0, 83, 10
1, 93769, Note_off_c, 0, 78, 51
1, 93776, Note_off_c, 0, 59, 54
1, 93777, Note_off_c, 0, 54, 49
1, 93803, Note_off_c, 0, 83, 40
1, 94158, Note_on_c, 0, 59, 59
1, 94240, Note_off_c, 0, 59, 61
1, 94251, Note_on_c, 0, 57, 70
1, 94289, Note_off_c, 0, 57, 61
1, 94341, Note_on_c, 0, 55, 70
1, 94409, Note_off_c, 0, 55, 49
1, 94421, Note_on_c, 0, 54, 74
1, 94465, Note_off_c, 0, 54, 62
1, 94555, Note_on_c, 0, 52, 73
1, 94558, Note_on_c, 0, 40, 77
1, 94606, Note_off_c, 0, 40, 59
1, 94963, Note_on_c, 0, 64, 61
1, 94964, Note_on_c, 0, 59, 60
1, 94973, Note_on_c, 0, 55, 48
1, 94975, Note_on_c, 0, 91, 59
1, 94990, Note_off_c, 0, 64, 66
1, 94993, Note_off_c, 0, 59, 60
1, 94993, Note_off_c, 0, 91, 63
1, 95026, Note_off_c, 0, 55, 52
1, 95158, Note_on_c, 0, 88, 58
1, 95163, Note_on_c, 0, 79, 51
1, 95184, Note_off_c, 0, 79, 62
1, 95190, Note_off_c, 0, 88, 63
1, 95355, Note_on_c, 0, 91, 69
1, 95356, Note_on_c, 0, 40, 60
1, 95359, Note_on_c, 0, 83, 66
1, 95376, Note_off_c, 0, 83, 66
1, 95382, Note_off_c, 0, 91, 68
1, 95383, Note_off_c, 0, 40, 60
1, 95737, Note_on_c, 0, 57, 61
1, 95739, Note_on_c, 0, 90, 70
1, 95742, Note_on_c, 0, 60, 52
1, 95748, Note_on_c, 0, 81, 57
1, 95763, Note_off_c, 0, 90, 70
1, 95765, Note_off_c, 0, 81, 65
1, 95766, Note_off_c, 0, 60, 62
1, 95776, Note_off_c, 0, 57, 64
1, 96162, Control_c, 0, 64, 42
1, 96166, Note_on_c, 0, 87, 60
1, 96177, Note_on_c, 0, 40, 46
1, 96177, Control_c, 0, 64, 62
1, 96180, Note_on_c, 0, 81, 38
1, 96183, Note_on_c, 0, 78, 42
1, 96192, Control_c, 0, 64, 71
1, 96207, Control_c, 0, 64, 80
1, 96207, Note_off_c, 0, 40, 56
1, 96208, Note_off_c, 0, 81, 52
1, 96211, Note_off_c, 0, 78, 49
1, 96217, Note_off_c, 0, 87, 55
1, 96222, Control_c, 0, 64, 91
1, 96236, Control_c, 0, 64, 101
1, 96251, Control_c, 0, 64, 113
1, 96266, Control_c, 0, 64, 127
1, 96560, Note_on_c, 0, 58, 70
1, 96561, Control_c, 0, 64, 94
1, 96567, Note_on_c, 0, 82, 65
1, 96571, Note_on_c, 0, 88, 63
1, 96572, Note_on_c, 0, 61, 46
1, 96576, Note_on_c, 0, 79, 54
1, 96576, Control_c, 0, 64, 69
1, 96584, Note_off_c, 0, 82, 65
1, 96589, Note_off_c, 0, 88, 66
1, 96591, Control_c, 0, 64, 53
1, 96595, Note_off_c, 0, 58, 61
1, 96596, Note_off_c, 0, 79, 62
1, 96598, Note_off_c, 0, 61, 57
1, 96606, Control_c, 0, 64, 36
1, 96621, Control_c, 0, 64, 0
1, 96910, Control_c, 0, 64, 29
1, 96948, Note_on_c, 0, 40, 53
1, 96955, Note_on_c, 0, 86, 62
1, 96957, Note_on_c, 0, 80, 53
1, 96967, Note_on_c, 0, 77, 51
1, 96977, Note_off_c, 0, 40, 59
1, 96977, Note_off_c, 0, 80, 64
1, 96983, Note_off_c, 0, 86, 68
1, 96988, Note_off_c, 0, 77, 59
1, 97137, Note_on_c, 0, 86, 68
1, 97146, Note_on_c, 0, 80, 47
1, 97148, Note_on_c, 0, 77, 44
1, 97166, Note_off_c, 0, 80, 61
1, 97172, Note_off_c, 0, 86, 59
1, 97173, Note_off_c, 0, 77, 59
1, 97321, Note_on_c, 0, 59, 62
1, 97327, Note_on_c, 0, 62, 60
1, 97327, Note_on_c, 0, 86, 69
1, 97337, Note_on_c, 0, 80, 46
1, 97351, Note_off_c, 0, 86, 70
1, 97352, Note_on_c, 0, 77, 30
1, 97355, Note_off_c, 0, 62, 64
1, 97360, Note_off_c, 0, 80, 56
1, 97362, Note_off_c, 0, 59, 62
1, 97387, Note_off_c, 0, 77, 31
1, 97691, Note_on_c, 0, 40, 52
1, 97697, Note_on_c, 0, 85, 72
1, 97713, Note_on_c, 0, 76, 52
1, 97716, Note_on_c, 0, 79, 37
1, 97722, Note_off_c, 0, 40, 62
1, 97731, Note_off_c, 0, 85, 58
1, 97735, Note_off_c, 0, 76, 59
1, 97746, Note_off_c, 0, 79, 55
1, 97878, Note_on_c, 0, 85, 66
1, 97880, Note_on_c, 0, 76, 52
1, 97881, Note_on_c, 0, 79, 48
1, 97903, Note_off_c, 0, 79, 63
1, 97904, Note_off_c, 0, 85, 66
1, 97909, Note_off_c, 0, 76, 65
1, 98063, Note_on_c, 0, 85, 74
1, 98066, Note_on_c, 0, 58, 58
1, 98067, Note_on_c, 0, 61, 51
1, 98070, Note_on_c, 0, 76, 65
1, 98085, Note_off_c, 0, 85, 67
1, 98090, Note_off_c, 0, 61, 59
1, 98094, Note_on_c, 0, 79, 19
1, 98095, Note_off_c, 0, 76, 66
1, 98096, Note_off_c, 0, 58, 62
1, 98135, Note_off_c, 0, 79, 30
1, 98441, Note_on_c, 0, 40, 47
1, 98448, Note_on_c, 0, 84, 51
1, 98450, Note_on_c, 0, 78, 48
1, 98456, Note_on_c, 0, 75, 47
1, 98469, Note_off_c, 0, 40, 55
1, 98472, Note_off_c, 0, 78, 55
1, 98476, Note_off_c, 0, 84, 65
1, 98479, Note_off_c, 0, 75, 54
1, 98618, Note_on_c, 0, 78, 56
1, 98618, Note_on_c, 0, 84, 64
1, 98625, Note_on_c, 0, 75, 54
1, 98651, Note_off_c, 0, 78, 61
1, 98657, Note_off_c, 0, 75, 66
1, 98660, Control_c, 0, 64, 31
1, 98662, Note_off_c, 0, 84, 61
1, 98720, Control_c, 0, 64, 32
1, 98734, Control_c, 0, 64, 32
1, 98804, Note_on_c, 0, 84, 66
1, 98805, Note_on_c, 0, 57, 59
1, 98809, Control_c, 0, 64, 0
1, 98815, Note_on_c, 0, 60, 55
1, 98816, Note_on_c, 0, 75, 62
1, 98830, Note_on_c, 0, 78, 36
1, 98838, Note_off_c, 0, 75, 65
1, 98841, Note_off_c, 0, 57, 63
1, 98845, Note_off_c, 0, 84, 62
1, 98857, Note_off_c, 0, 60, 58
1, 98860, Note_off_c, 0, 78, 46
1, 99164, Note_on_c, 0, 83, 66
1, 99174, Note_on_c, 0, 67, 47
1, 99176, Note_on_c, 0, 76, 55
1, 99179, Note_on_c, 0, 59, 54
1, 99197, Note_off_c, 0, 76, 62
1, 99197, Note_off_c, 0, 83, 60
1, 99201, Note_off_c, 0, 67, 57
1, 99209, Note_off_c, 0, 59, 62
1, 99360, Note_on_c, 0, 88, 63
1, 99377, Note_on_c, 0, 79, 37
1, 99391, Note_off_c, 0, 88, 62
1, 99405, Note_off_c, 0, 79, 56
1, 99538, Note_on_c, 0, 66, 68
1, 99545, Note_on_c, 0, 84, 60
1, 99548, Note_on_c, 0, 60, 47
1, 99557, Note_on_c, 0, 57, 43
1, 99560, Note_on_c, 0, 76, 49
1, 99567, Note_off_c, 0, 66, 66
1, 99573, Note_off_c, 0, 84, 68
1, 99577, Note_off_c, 0, 60, 65
1, 99583, Note_off_c, 0, 76, 58
1, 99590, Note_off_c, 0, 57, 61
1, 99721, Note_on_c, 0, 88, 65
1, 99740, Note_on_c, 0, 81, 33
1, 99778, Note_off_c, 0, 88, 60
1, 99780, Note_off_c, 0, 81, 48
1, 99915, Note_on_c, 0, 83, 65
1, 99917, Note_on_c, 0, 67, 58
1, 99924, Note_on_c, 0, 76, 58
1, 99931, Note_on_c, 0, 59, 57
1, 99933, Note_off_c, 0, 83, 67
1, 99939, Note_off_c, 0, 67, 64
1, 99944, Note_off_c, 0, 76, 64
1, 99967, Note_off_c, 0, 59, 64
1, 100330, Note_on_c, 0, 67, 58
1, 100394, Note_off_c, 0, 52, 62
1, 100423, Note_on_c, 0, 66, 68
1, 100442, Note_off_c, 0, 67, 52
1, 100512, Note_on_c, 0, 64, 68
1, 100534, Note_off_c, 0, 66, 58
1, 100603, Note_off_c, 0, 64, 61
1, 100610, Note_on_c, 0, 62, 63
1, 100654, Note_off_c, 0, 62, 61
1, 100773, Note_on_c, 0, 61, 52
1, 100773, Note_on_c, 0, 54, 42
1, 100775, Note_on_c, 0, 58, 40
1, 100803, Control_c, 0, 64, 32
1, 100818, Control_c, 0, 64, 52
1, 100833, Control_c, 0, 64, 66
1, 100848, Control_c, 0, 64, 81
1, 100862, Control_c, 0, 64, 127
1, 100866, Note_off_c, 0, 54, 62
1, 100868, Note_off_c, 0, 61, 62
1, 100869, Note_off_c, 0, 58, 63
1, 101192, Note_on_c, 0, 73, 65
1, 101193, Note_on_c, 0, 88, 72
1, 101198, Note_on_c, 0, 66, 58
1, 101198, Note_on_c, 0, 82, 62
1, 101220, Note_off_c, 0, 73, 66
1, 101223, Note_off_c, 0, 82, 68
1, 101225, Note_off_c, 0, 66, 65
1, 101241, Note_off_c, 0, 88, 62
1, 101330, Control_c, 0, 67, 122
1, 101345, Control_c, 0, 67, 104
1, 101359, Control_c, 0, 67, 83
1, 101374, Note_on_c, 0, 85, 78
1, 101374, Control_c, 0, 67, 68
1, 101381, Note_on_c, 0, 78, 74
1, 101389, Control_c, 0, 67, 56
1, 101390, Note_on_c, 0, 76, 66
1, 101402, Note_off_c, 0, 78, 69
1, 101404, Control_c, 0, 67, 47
1, 101417, Note_off_c, 0, 76, 67
1, 101419, Control_c, 0, 67, 40
1, 101425, Note_off_c, 0, 85, 63
1, 101433, Control_c, 0, 67, 34
1, 101448, Control_c, 0, 67, 0
1, 101477, Control_c, 0, 67, 35
1, 101492, Control_c, 0, 67, 35
1, 101507, Control_c, 0, 67, 38
1, 101522, Control_c, 0, 67, 44
1, 101537, Control_c, 0, 67, 58
1, 101551, Control_c, 0, 67, 92
1, 101566, Control_c, 0, 67, 127
1, 101591, Note_on_c, 0, 90, 80
1, 101595, Note_on_c, 0, 88, 67
1, 101599, Note_on_c, 0, 82, 59
1, 101604, Note_off_c, 0, 90, 71
1, 101624, Note_off_c, 0, 82, 69
1, 101640, Note_off_c, 0, 88, 61
1, 101970, Note_on_c, 0, 66, 65
1, 101972, Note_on_c, 0, 59, 59
1, 101974, Note_on_c, 0, 78, 71
1, 101974, Note_on_c, 0, 87, 71
1, 101996, Note_off_c, 0, 87, 71
1, 101997, Note_off_c, 0, 78, 69
1, 101998, Note_on_c, 0, 75, 35
1, 102011, Control_c, 0, 64, 108
1, 102013, Note_off_c, 0, 66, 60
1, 102034, Control_c, 0, 64, 75
1, 102035, Note_off_c, 0, 75, 48
1, 102044, Note_off_c, 0, 59, 63
1, 102049, Control_c, 0, 64, 54
1, 102063, Control_c, 0, 64, 0
1, 102070, Note_on_c, 0, 64, 61
1, 102159, Note_off_c, 0, 64, 63
1, 102164, Note_on_c, 0, 63, 64
1, 102210, Note_off_c, 0, 63, 57
1, 102258, Note_on_c, 0, 61, 56
1, 102295, Note_off_c, 0, 61, 61
1, 102434, Control_c, 0, 64, 49
1, 102443, Note_on_c, 0, 68, 51
1, 102448, Control_c, 0, 64, 64
1, 102459, Note_on_c, 0, 52, 47
1, 102461, Note_on_c, 0, 62, 49
1, 102463, Control_c, 0, 64, 74
1, 102465, Note_on_c, 0, 59, 45
1, 102478, Control_c, 0, 64, 86
1, 102481, Note_off_c, 0, 68, 63
1, 102493, Note_off_c, 0, 62, 64
1, 102493, Control_c, 0, 64, 107
1, 102499, Note_off_c, 0, 59, 64
1, 102501, Note_off_c, 0, 52, 61
1, 102507, Control_c, 0, 64, 127
1, 102840, Note_on_c, 0, 86, 70
1, 102856, Note_on_c, 0, 80, 48
1, 102858, Note_on_c, 0, 64, 47
1, 102878, Note_off_c, 0, 80, 59
1, 102880, Note_on_c, 0, 71, 26
1, 102884, Note_off_c, 0, 64, 60
1, 102890, Note_off_c, 0, 86, 64
1, 102923, Note_off_c, 0, 71, 53
1, 103030, Note_on_c, 0, 83, 75
1, 103034, Note_on_c, 0, 76, 56
1, 103051, Note_on_c, 0, 74, 53
1, 103054, Note_off_c, 0, 76, 63
1, 103074, Note_off_c, 0, 74, 58
1, 103103, Note_off_c, 0, 83, 47
1, 103237, Note_on_c, 0, 86, 77
1, 103253, Note_on_c, 0, 88, 58
1, 103259, Note_on_c, 0, 80, 51
1, 103273, Note_off_c, 0, 88, 66
1, 103280, Note_off_c, 0, 80, 61
1, 103287, Note_off_c, 0, 86, 65
1, 103605, Note_on_c, 0, 85, 78
1, 103612, Note_on_c, 0, 57, 53
1, 103618, Note_on_c, 0, 64, 61
1, 103618, Note_on_c, 0, 76, 62
1, 103630, Note_off_c, 0, 85, 63
1, 103635, Note_off_c, 0, 76, 65
1, 103642, Note_on_c, 0, 73, 26
1, 103650, Control_c, 0, 64, 90
1, 103651, Note_off_c, 0, 64, 63
1, 103659, Note_off_c, 0, 57, 59
1, 103665, Control_c, 0, 64, 68
1, 103676, Note_off_c, 0, 73, 52
1, 103679, Control_c, 0, 64, 48
1, 103694, Control_c, 0, 64, 0
1, 103713, Note_on_c, 0, 62, 63
1, 103797, Note_off_c, 0, 62, 58
1, 103804, Note_on_c, 0, 61, 58
1, 103842, Note_off_c, 0, 61, 65
1, 103897, Note_on_c, 0, 59, 51
1, 103931, Note_off_c, 0, 59, 64
1, 104050, Control_c, 0, 64, 40
1, 104055, Note_on_c, 0, 66, 55
1, 104065, Control_c, 0, 64, 58
1, 104066, Note_on_c, 0, 60, 48
1, 104079, Control_c, 0, 64, 70
1, 104083, Note_on_c, 0, 57, 46
1, 104085, Note_on_c, 0, 50, 48
1, 104094, Control_c, 0, 64, 80
1, 104097, Note_off_c, 0, 66, 61
1, 104105, Note_off_c, 0, 60, 65
1, 104109, Control_c, 0, 64, 92
1, 104116, Note_off_c, 0, 50, 64
1, 104116, Note_off_c, 0, 57, 65
1, 104124, Control_c, 0, 64, 104
1, 104139, Control_c, 0, 64, 127
1, 104452, Note_on_c, 0, 84, 66
1, 104458, Note_on_c, 0, 62, 51
1, 104461, Note_on_c, 0, 78, 53
1, 104462, Note_on_c, 0, 69, 47
1, 104482, Note_off_c, 0, 78, 60
1, 104487, Note_off_c, 0, 69, 58
1, 104491, Note_off_c, 0, 62, 56
1, 104502, Note_off_c, 0, 84, 62
1, 104631, Note_on_c, 0, 74, 76
1, 104639, Note_on_c, 0, 81, 67
1, 104657, Note_on_c, 0, 72, 49
1, 104663, Note_off_c, 0, 74, 64
1, 104666, Note_off_c, 0, 81, 63
1, 104679, Note_off_c, 0, 72, 58
1, 104873, Note_on_c, 0, 84, 61
1, 104881, Note_on_c, 0, 86, 69
1, 104888, Note_on_c, 0, 78, 54
1, 104896, Note_off_c, 0, 86, 69
1, 104921, Note_off_c, 0, 78, 62
1, 104941, Note_off_c, 0, 84, 60
1, 105244, Note_on_c, 0, 83, 63
1, 105248, Note_on_c, 0, 62, 62
1, 105250, Note_on_c, 0, 74, 66
1, 105261, Note_on_c, 0, 55, 45
1, 105280, Control_c, 0, 64, 112
1, 105295, Control_c, 0, 64, 87
1, 105302, Note_off_c, 0, 62, 59
1, 105304, Note_off_c, 0, 55, 62
1, 105310, Control_c, 0, 64, 73
1, 105325, Control_c, 0, 64, 62
1, 105328, Note_off_c, 0, 83, 59
1, 105337, Note_off_c, 0, 74, 52
1, 105340, Control_c, 0, 64, 53
1, 105349, Note_on_c, 0, 72, 74
1, 105355, Control_c, 0, 64, 49
1, 105370, Control_c, 0, 64, 49
1, 105385, Control_c, 0, 64, 48
1, 105407, Note_off_c, 0, 72, 56
1, 105414, Control_c, 0, 64, 49
1, 105451, Note_on_c, 0, 71, 68
1, 105504, Note_off_c, 0, 71, 55
1, 105540, Note_on_c, 0, 69, 63
1, 105547, Control_c, 0, 64, 48
1, 105562, Control_c, 0, 64, 45
1, 105577, Control_c, 0, 64, 38
1, 105591, Control_c, 0, 64, 0
1, 105596, Note_off_c, 0, 69, 56
1, 105629, Note_on_c, 0, 71, 71
1, 105633, Note_on_c, 0, 75, 68
1, 105638, Note_on_c, 0, 67, 61
1, 105650, Control_c, 0, 64, 34
1, 105658, Note_off_c, 0, 71, 61
1, 105662, Note_off_c, 0, 67, 63
1, 105665, Control_c, 0, 64, 61
1, 105680, Control_c, 0, 64, 78
1, 105681, Note_off_c, 0, 75, 60
1, 105695, Control_c, 0, 64, 97
1, 105710, Control_c, 0, 64, 127
1, 105836, Note_on_c, 0, 75, 66
1, 105864, Note_off_c, 0, 75, 67
1, 106015, Control_c, 0, 64, 106
1, 106021, Note_on_c, 0, 81, 56
1, 106023, Note_on_c, 0, 59, 59
1, 106025, Note_on_c, 0, 69, 69
1, 106026, Note_on_c, 0, 66, 62
1, 106029, Control_c, 0, 64, 74
1, 106031, Note_on_c, 0, 75, 46
1, 106044, Control_c, 0, 64, 51
1, 106047, Note_off_c, 0, 59, 64
1, 106050, Note_on_c, 0, 78, 44
1, 106051, Note_off_c, 0, 69, 66
1, 106053, Note_off_c, 0, 75, 60
1, 106058, Note_off_c, 0, 66, 68
1, 106059, Control_c, 0, 64, 0
1, 106083, Note_off_c, 0, 78, 63
1, 106085, Note_off_c, 0, 81, 64
1, 106093, Note_on_c, 0, 87, 73
1, 106118, Note_off_c, 0, 87, 66
1, 106198, Note_on_c, 0, 75, 52
1, 106208, Note_on_c, 0, 90, 56
1, 106236, Note_off_c, 0, 75, 63
1, 106277, Note_off_c, 0, 90, 41
1, 106284, Note_on_c, 0, 95, 79
1, 106333, Note_off_c, 0, 95, 65
1, 106386, Note_on_c, 0, 88, 81
1, 106404, Note_on_c, 0, 67, 68
1, 106404, Note_on_c, 0, 76, 41
1, 106405, Note_off_c, 0, 88, 71
1, 106423, Note_on_c, 0, 64, 27
1, 106428, Note_off_c, 0, 67, 69
1, 106433, Note_off_c, 0, 76, 37
1, 106460, Note_off_c, 0, 64, 54
1, 106808, Control_c, 0, 64, 33
1, 106823, Control_c, 0, 64, 40
1, 106839, Control_c, 0, 64, 46
1, 106853, Control_c, 0, 64, 51
1, 106868, Control_c, 0, 64, 55
1, 106883, Control_c, 0, 64, 58
1, 106897, Control_c, 0, 64, 61
1, 106912, Control_c, 0, 64, 63
1, 106927, Control_c, 0, 64, 65
1, 106942, Control_c, 0, 64, 66
1, 106957, Control_c, 0, 64, 69
1, 106965, Note_on_c, 0, 83, 75
1, 106971, Control_c, 0, 64, 75
1, 106977, Note_on_c, 0, 47, 50
1, 106986, Control_c, 0, 64, 86
1, 106994, Note_on_c, 0, 59, 42
1, 106999, Note_on_c, 0, 71, 40
1, 107001, Control_c, 0, 64, 110
1, 107015, Control_c, 0, 64, 127
1, 107026, Note_off_c, 0, 47, 58
1, 107036, Note_off_c, 0, 71, 48
1, 107068, Note_off_c, 0, 59, 59
1, 107204, Note_off_c, 0, 83, 61
1, 107418, Note_on_c, 0, 67, 38
1, 107418, Note_on_c, 0, 73, 45
1, 107424, Note_on_c, 0, 64, 42
1, 107480, Note_off_c, 0, 64, 54
1, 107561, Note_off_c, 0, 67, 32
1, 107586, Note_off_c, 0, 73, 37
1, 107617, Note_on_c, 0, 85, 54
1, 107628, Note_on_c, 0, 76, 42
1, 107656, Note_off_c, 0, 76, 54
1, 107656, Note_off_c, 0, 85, 58
1, 107677, Poly_aftertouch_c, 0, 79, 127
1, 107710, Poly_aftertouch_c, 0, 79, 0
1, 107808, Note_on_c, 0, 75, 74
1, 107815, Note_on_c, 0, 66, 64
1, 107827, Note_on_c, 0, 69, 53
1, 107856, Note_off_c, 0, 69, 66
1, 107859, Note_off_c, 0, 66, 60
1, 107880, Note_off_c, 0, 75, 60
1, 108027, Note_on_c, 0, 87, 57
1, 108029, Note_on_c, 0, 81, 48
1, 108030, Note_on_c, 0, 78, 55
1, 108050, Note_off_c, 0, 78, 58
1, 108051, Note_off_c, 0, 81, 58
1, 108077, Note_off_c, 0, 87, 57
1, 108196, Note_on_c, 0, 76, 86
1, 108210, Note_on_c, 0, 67, 59
1, 108211, Note_on_c, 0, 71, 64
1, 108238, Note_off_c, 0, 71, 66
1, 108239, Note_off_c, 0, 67, 64
1, 108254, Note_off_c, 0, 76, 64
1, 108276, Control_c, 0, 67, 125
1, 108321, Control_c, 0, 67, 123
1, 108410, Note_on_c, 0, 88, 64
1, 108424, Control_c, 0, 67, 125
1, 108426, Note_on_c, 0, 79, 37
1, 108436, Note_on_c, 0, 83, 27
1, 108456, Note_off_c, 0, 79, 56
1, 108458, Note_off_c, 0, 88, 62
1, 108470, Note_off_c, 0, 83, 47
1, 108528, Control_c, 0, 67, 127
1, 108590, Note_on_c, 0, 78, 91
1, 108606, Note_on_c, 0, 75, 58
1, 108619, Note_on_c, 0, 69, 38
1, 108625, Note_off_c, 0, 75, 64
1, 108631, Note_off_c, 0, 78, 61
1, 108653, Note_off_c, 0, 69, 53
1, 108819, Note_on_c, 0, 90, 58
1, 108830, Note_on_c, 0, 81, 42
1, 108836, Note_on_c, 0, 87, 31
1, 108856, Note_off_c, 0, 81, 56
1, 108856, Note_off_c, 0, 90, 62
1, 108869, Note_off_c, 0, 87, 42
1, 108996, Note_on_c, 0, 79, 81
1, 109012, Note_on_c, 0, 71, 63
1, 109024, Note_on_c, 0, 76, 46
1, 109045, Note_off_c, 0, 71, 62
1, 109049, Note_off_c, 0, 76, 57
1, 109049, Note_off_c, 0, 79, 63
1, 109209, Note_on_c, 0, 91, 58
1, 109224, Note_on_c, 0, 83, 43
1, 109240, Note_on_c, 0, 88, 11
1, 109251, Note_off_c, 0, 91, 61
1, 109257, Note_off_c, 0, 83, 50
1, 109284, Note_off_c, 0, 88, 54
1, 109399, Note_on_c, 0, 76, 63
1, 109415, Note_on_c, 0, 73, 47
1, 109420, Note_on_c, 0, 67, 41
1, 109422, Note_on_c, 0, 71, 45
1, 109454, Note_off_c, 0, 73, 61
1, 109459, Note_off_c, 0, 71, 53
1, 109464, Note_off_c, 0, 76, 62
1, 109476, Note_off_c, 0, 67, 60
1, 109606, Note_on_c, 0, 88, 54
1, 109618, Note_on_c, 0, 85, 40
1, 109624, Note_on_c, 0, 79, 30
1, 109641, Note_off_c, 0, 88, 64
1, 109648, Note_off_c, 0, 85, 56
1, 109658, Note_off_c, 0, 79, 55
1, 109781, Note_on_c, 0, 75, 63
1, 109796, Note_on_c, 0, 66, 53
1, 109803, Note_on_c, 0, 71, 40
1, 109807, Note_off_c, 0, 75, 70
1, 109836, Note_off_c, 0, 66, 65
1, 109838, Note_off_c, 0, 71, 49
1, 109986, Note_on_c, 0, 87, 51
1, 109993, Note_on_c, 0, 78, 57
1, 109996, Note_on_c, 0, 83, 46
1, 110005, Note_off_c, 0, 87, 63
1, 110015, Note_off_c, 0, 78, 63
1, 110023, Note_off_c, 0, 83, 55
1, 110189, Control_c, 0, 64, 101
1, 110204, Control_c, 0, 64, 80
1, 110219, Control_c, 0, 64, 65
1, 110233, Control_c, 0, 64, 45
1, 110247, Note_on_c, 0, 47, 58
1, 110248, Control_c, 0, 64, 0
1, 110250, Note_on_c, 0, 59, 68
1, 110265, Note_on_c, 0, 39, 60
1, 110303, Note_off_c, 0, 59, 60
1, 110387, Note_on_c, 0, 61, 74
1, 110418, Note_off_c, 0, 61, 63
1, 110518, Note_on_c, 0, 59, 73
1, 110553, Note_off_c, 0, 59, 62
1, 110571, Note_off_c, 0, 39, 59
1, 110663, Note_on_c, 0, 57, 68
1, 110669, Note_on_c, 0, 40, 66
1, 110768, Note_off_c, 0, 47, 64
1, 110774, Note_off_c, 0, 40, 63
1, 110808, Note_on_c, 0, 55, 67
1, 110816, Note_off_c, 0, 57, 62
1, 110837, Note_off_c, 0, 55, 63
1, 110925, Note_on_c, 0, 55, 58
1, 110970, Note_off_c, 0, 55, 60
1, 111019, Control_c, 0, 64, 30
1, 111034, Control_c, 0, 64, 45
1, 111049, Control_c, 0, 64, 60
1, 111063, Control_c, 0, 64, 68
1, 111078, Control_c, 0, 64, 75
1, 111079, Note_on_c, 0, 75, 68
1, 111081, Note_on_c, 0, 55, 66
1, 111093, Control_c, 0, 64, 82
1, 111099, Note_on_c, 0, 63, 56
1, 111108, Control_c, 0, 64, 89
1, 111122, Note_off_c, 0, 55, 58
1, 111123, Control_c, 0, 64, 100
1, 111138, Control_c, 0, 64, 116
1, 111153, Control_c, 0, 64, 127
1, 111209, Note_off_c, 0, 75, 63
1, 111228, Note_on_c, 0, 55, 55
1, 111246, Note_off_c, 0, 63, 35
1, 111259, Note_off_c, 0, 55, 64
1, 111344, Note_on_c, 0, 55, 55
1, 111373, Note_off_c, 0, 55, 65
1, 111447, Note_on_c, 0, 76, 77
1, 111453, Note_on_c, 0, 64, 72
1, 111481, Note_on_c, 0, 55, 61
1, 111494, Control_c, 0, 64, 107
1, 111509, Control_c, 0, 64, 82
1, 111522, Note_off_c, 0, 55, 60
1, 111524, Control_c, 0, 64, 67
1, 111539, Control_c, 0, 64, 53
1, 111554, Control_c, 0, 64, 38
1, 111560, Note_off_c, 0, 76, 66
1, 111568, Control_c, 0, 64, 0
1, 111588, Note_off_c, 0, 64, 66
1, 111594, Note_on_c, 0, 55, 69
1, 111630, Note_off_c, 0, 55, 63
1, 111708, Note_on_c, 0, 55, 68
1, 111737, Note_off_c, 0, 55, 64
1, 111834, Note_on_c, 0, 55, 60
1, 111838, Note_on_c, 0, 37, 56
1, 111841, Note_on_c, 0, 45, 58
1, 111877, Note_off_c, 0, 55, 62
1, 111955, Note_on_c, 0, 59, 75
1, 111992, Note_off_c, 0, 59, 64
1, 112078, Note_on_c, 0, 57, 68
1, 112107, Note_off_c, 0, 57, 65
1, 112190, Note_off_c, 0, 37, 39
1, 112203, Note_on_c, 0, 38, 69
1, 112203, Note_on_c, 0, 55, 67
1, 112283, Note_off_c, 0, 45, 64
1, 112293, Note_off_c, 0, 55, 62
1, 112300, Note_off_c, 0, 38, 65
1, 112330, Note_on_c, 0, 54, 71
1, 112356, Note_off_c, 0, 54, 67
1, 112467, Note_on_c, 0, 54, 55
1, 112490, Note_off_c, 0, 54, 62
1, 112531, Control_c, 0, 64, 31
1, 112546, Control_c, 0, 64, 40
1, 112561, Control_c, 0, 64, 49
1, 112576, Control_c, 0, 64, 57
1, 112590, Control_c, 0, 64, 62
1, 112605, Control_c, 0, 64, 67
1, 112606, Note_on_c, 0, 73, 65
1, 112613, Note_on_c, 0, 54, 54
1, 112619, Note_on_c, 0, 61, 53
1, 112620, Control_c, 0, 64, 75
1, 112634, Control_c, 0, 64, 88
1, 112649, Control_c, 0, 64, 103
1, 112652, Note_off_c, 0, 54, 64
1, 112664, Control_c, 0, 64, 127
1, 112736, Note_off_c, 0, 73, 62
1, 112751, Note_on_c, 0, 54, 50
1, 112779, Note_off_c, 0, 61, 34
1, 112783, Note_off_c, 0, 54, 63
1, 112865, Note_on_c, 0, 54, 50
1, 112891, Note_off_c, 0, 54, 62
1, 112990, Note_on_c, 0, 74, 69
1, 112996, Note_on_c, 0, 62, 57
1, 113004, Note_on_c, 0, 54, 51
1, 113006, Control_c, 0, 64, 107
1, 113021, Control_c, 0, 64, 86
1, 113036, Control_c, 0, 64, 74
1, 113039, Note_off_c, 0, 54, 63
1, 113051, Control_c, 0, 64, 65
1, 113065, Control_c, 0, 64, 56
1, 113080, Control_c, 0, 64, 48
1, 113095, Control_c, 0, 64, 42
1, 113110, Control_c, 0, 64, 38
1, 113123, Note_off_c, 0, 74, 66
1, 113125, Control_c, 0, 64, 37
1, 113126, Note_on_c, 0, 54, 58
1, 113139, Control_c, 0, 64, 37
1, 113154, Note_off_c, 0, 62, 64
1, 113154, Control_c, 0, 64, 36
1, 113165, Note_off_c, 0, 54, 62
1, 113169, Control_c, 0, 64, 35
1, 113184, Control_c, 0, 64, 35
1, 113228, Control_c, 0, 64, 34
1, 113247, Note_on_c, 0, 54, 58
1, 113281, Note_off_c, 0, 54, 66
1, 113369, Control_c, 0, 64, 33
1, 113383, Control_c, 0, 64, 32
1, 113398, Control_c, 0, 64, 29
1, 113413, Control_c, 0, 64, 0
1, 113443, Control_c, 0, 64, 31
1, 113457, Control_c, 0, 64, 42
1, 113472, Control_c, 0, 64, 56
1, 113487, Control_c, 0, 64, 66
1, 113492, Note_on_c, 0, 83, 56
1, 113502, Control_c, 0, 64, 74
1, 113508, Note_on_c, 0, 47, 57
1, 113517, Control_c, 0, 64, 83
1, 113525, Note_on_c, 0, 59, 45
1, 113532, Control_c, 0, 64, 97
1, 113547, Control_c, 0, 64, 127
1, 113553, Note_off_c, 0, 47, 62
1, 113562, Note_off_c, 0, 59, 60
1, 113585, Note_off_c, 0, 83, 58
1, 113884, Note_on_c, 0, 79, 48
1, 113891, Note_on_c, 0, 73, 55
1, 113894, Note_on_c, 0, 67, 43
1, 113897, Note_on_c, 0, 64, 51
1, 113907, Note_on_c, 0, 76, 14
1, 113907, Note_off_c, 0, 79, 60
1, 113950, Note_off_c, 0, 76, 53
1, 114097, Note_on_c, 0, 97, 80
1, 114106, Note_on_c, 0, 85, 71
1, 114115, Note_off_c, 0, 64, 28
1, 114118, Note_off_c, 0, 97, 71
1, 114125, Note_off_c, 0, 73, 45
1, 114128, Note_off_c, 0, 85, 68
1, 114144, Note_off_c, 0, 67, 44
1, 114298, Note_on_c, 0, 81, 65
1, 114309, Note_on_c, 0, 75, 64
1, 114316, Note_on_c, 0, 66, 49
1, 114316, Note_off_c, 0, 81, 66
1, 114317, Note_on_c, 0, 78, 37
1, 114319, Note_on_c, 0, 69, 50
1, 114347, Note_off_c, 0, 78, 51
1, 114354, Note_off_c, 0, 69, 64
1, 114360, Note_off_c, 0, 75, 47
1, 114408, Note_off_c, 0, 66, 53
1, 114492, Note_on_c, 0, 99, 93
1, 114511, Note_on_c, 0, 87, 67
1, 114518, Note_off_c, 0, 99, 66
1, 114527, Note_off_c, 0, 87, 68
1, 114682, Note_on_c, 0, 83, 64
1, 114691, Note_on_c, 0, 76, 63
1, 114695, Note_on_c, 0, 67, 53
1, 114697, Note_on_c, 0, 79, 42
1, 114700, Note_off_c, 0, 83, 67
1, 114703, Note_on_c, 0, 71, 42
1, 114718, Note_off_c, 0, 76, 67
1, 114723, Note_off_c, 0, 79, 57
1, 114724, Note_off_c, 0, 67, 65
1, 114733, Note_off_c, 0, 71, 53
1, 114874, Note_on_c, 0, 100, 85
1, 114888, Note_on_c, 0, 88, 71
1, 114894, Note_off_c, 0, 100, 71
1, 114903, Note_off_c, 0, 88, 68
1, 115057, Note_on_c, 0, 87, 70
1, 115061, Note_on_c, 0, 81, 55
1, 115064, Note_on_c, 0, 78, 65
1, 115067, Note_on_c, 0, 69, 59
1, 115074, Note_on_c, 0, 75, 58
1, 115079, Note_off_c, 0, 87, 71
1, 115080, Note_off_c, 0, 81, 64
1, 115091, Note_off_c, 0, 78, 63
1, 115099, Note_off_c, 0, 69, 63
1, 115107, Note_off_c, 0, 75, 63
1, 115237, Note_on_c, 0, 102, 97
1, 115244, Note_on_c, 0, 90, 92
1, 115262, Note_off_c, 0, 90, 71
1, 115274, Note_off_c, 0, 102, 66
1, 115424, Note_on_c, 0, 76, 67
1, 115424, Note_on_c, 0, 79, 70
1, 115424, Note_on_c, 0, 88, 78
1, 115427, Note_on_c, 0, 83, 69
1, 115437, Note_on_c, 0, 71, 59
1, 115442, Note_off_c, 0, 83, 68
1, 115444, Note_off_c, 0, 79, 72
1, 115445, Note_off_c, 0, 88, 73
1, 115449, Note_off_c, 0, 76, 69
1, 115463, Note_off_c, 0, 71, 65
1, 115608, Note_on_c, 0, 103, 86
1, 115616, Note_on_c, 0, 91, 74
1, 115627, Note_off_c, 0, 103, 71
1, 115630, Note_off_c, 0, 91, 69
1, 115725, Poly_aftertouch_c, 0, 68, 0
1, 115796, Note_on_c, 0, 79, 67
1, 115796, Note_on_c, 0, 85, 71
1, 115804, Note_on_c, 0, 67, 60
1, 115810, Note_on_c, 0, 73, 48
1, 115817, Note_off_c, 0, 79, 72
1, 115819, Note_off_c, 0, 85, 68
1, 115824, Note_on_c, 0, 71, 45
1, 115832, Note_off_c, 0, 73, 61
1, 115836, Note_off_c, 0, 67, 63
1, 115852, Note_off_c, 0, 71, 56
1, 115881, Poly_aftertouch_c, 0, 83, 0
1, 115993, Note_on_c, 0, 100, 54
1, 115999, Note_on_c, 0, 88, 59
1, 116015, Note_off_c, 0, 100, 59
1, 116018, Note_off_c, 0, 88, 63
1, 116160, Note_on_c, 0, 75, 71
1, 116166, Note_on_c, 0, 66, 64
1, 116177, Note_on_c, 0, 71, 47
1, 116183, Note_off_c, 0, 75, 71
1, 116185, Note_on_c, 0, 83, 40
1, 116188, Note_on_c, 0, 78, 35
1, 116199, Note_off_c, 0, 66, 66
1, 116203, Note_off_c, 0, 71, 55
1, 116210, Note_off_c, 0, 83, 58
1, 116217, Note_off_c, 0, 78, 47
1, 116360, Note_on_c, 0, 99, 78
1, 116368, Note_on_c, 0, 87, 66
1, 116387, Note_off_c, 0, 99, 67
1, 116391, Note_off_c, 0, 87, 65
1, 116543, Control_c, 0, 64, 113
1, 116557, Control_c, 0, 64, 84
1, 116572, Control_c, 0, 64, 66
1, 116587, Control_c, 0, 64, 36
1, 116599, Note_on_c, 0, 47, 54
1, 116602, Note_on_c, 0, 39, 50
1, 116602, Control_c, 0, 64, 0
1, 116607, Note_on_c, 0, 59, 69
1, 116627, Note_off_c, 0, 59, 65
1, 116720, Note_on_c, 0, 61, 71
1, 116758, Note_off_c, 0, 61, 61
1, 116858, Note_on_c, 0, 59, 67
1, 116879, Note_off_c, 0, 39, 47
1, 116891, Note_off_c, 0, 59, 64
1, 116995, Note_on_c, 0, 57, 71
1, 117013, Note_on_c, 0, 40, 63
1, 117063, Note_off_c, 0, 47, 63
1, 117070, Note_off_c, 0, 40, 62
1, 117130, Note_off_c, 0, 57, 60
1, 117133, Note_on_c, 0, 55, 64
1, 117165, Note_off_c, 0, 55, 64
1, 117261, Note_on_c, 0, 55, 68
1, 117304, Note_off_c, 0, 55, 63
1, 117335, Control_c, 0, 64, 29
1, 117350, Control_c, 0, 64, 41
1, 117365, Control_c, 0, 64, 52
1, 117380, Control_c, 0, 64, 60
1, 117395, Control_c, 0, 64, 64
1, 117410, Control_c, 0, 64, 67
1, 117411, Note_on_c, 0, 75, 61
1, 117413, Note_on_c, 0, 63, 56
1, 117415, Note_on_c, 0, 55, 68
1, 117424, Control_c, 0, 64, 71
1, 117439, Control_c, 0, 64, 78
1, 117454, Control_c, 0, 64, 84
1, 117469, Control_c, 0, 64, 90
1, 117475, Note_off_c, 0, 55, 57
1, 117484, Control_c, 0, 64, 95
1, 117498, Control_c, 0, 64, 103
1, 117513, Control_c, 0, 64, 110
1, 117528, Control_c, 0, 64, 114
1, 117543, Control_c, 0, 64, 117
1, 117547, Note_off_c, 0, 75, 62
1, 117550, Note_on_c, 0, 55, 55
1, 117572, Control_c, 0, 64, 120
1, 117574, Note_off_c, 0, 63, 37
1, 117596, Note_off_c, 0, 55, 61
1, 117677, Note_on_c, 0, 55, 57
1, 117702, Note_off_c, 0, 55, 68
1, 117802, Note_on_c, 0, 76, 81
1, 117805, Note_on_c, 0, 55, 70
1, 117806, Note_on_c, 0, 64, 72
1, 117833, Control_c, 0, 64, 112
1, 117848, Control_c, 0, 64, 96
1, 117850, Note_off_c, 0, 55, 61
1, 117862, Control_c, 0, 64, 79
1, 117877, Control_c, 0, 64, 64
1, 117892, Control_c, 0, 64, 47
1, 117907, Note_off_c, 0, 76, 66
1, 117907, Control_c, 0, 64, 0
1, 117934, Note_on_c, 0, 55, 72
1, 117938, Note_off_c, 0, 64, 66
1, 117976, Note_off_c, 0, 55, 63
1, 118045, Note_on_c, 0, 55, 76
1, 118079, Note_off_c, 0, 55, 64
1, 118176, Note_on_c, 0, 55, 77
1, 118185, Note_on_c, 0, 37, 63
1, 118194, Note_on_c, 0, 45, 55
1, 118203, Note_on_c, 0, 52, 39
1, 118212, Note_off_c, 0, 55, 61
1, 118236, Note_off_c, 0, 52, 51
1, 118294, Note_on_c, 0, 59, 74
1, 118337, Note_off_c, 0, 59, 60
1, 118426, Note_on_c, 0, 57, 71
1, 118456, Note_off_c, 0, 57, 64
1, 118482, Note_off_c, 0, 37, 63
1, 118555, Note_on_c, 0, 55, 76
1, 118558, Note_on_c, 0, 38, 73
1, 118596, Note_off_c, 0, 45, 63
1, 118602, Note_off_c, 0, 38, 63
1, 118631, Note_off_c, 0, 55, 58
1, 118683, Note_on_c, 0, 54, 70
1, 118715, Note_off_c, 0, 54, 64
1, 118814, Note_on_c, 0, 54, 66
1, 118843, Note_off_c, 0, 54, 66
1, 118862, Control_c, 0, 64, 34
1, 118876, Control_c, 0, 64, 49
1, 118891, Control_c, 0, 64, 60
1, 118906, Control_c, 0, 64, 65
1, 118921, Control_c, 0, 64, 67
1, 118936, Control_c, 0, 64, 68
1, 118951, Control_c, 0, 64, 71
1, 118963, Note_on_c, 0, 73, 59
1, 118966, Control_c, 0, 64, 75
1, 118970, Note_on_c, 0, 54, 52
1, 118981, Control_c, 0, 64, 80
1, 118981, Note_on_c, 0, 61, 43
1, 118995, Control_c, 0, 64, 86
1, 119010, Control_c, 0, 64, 93
1, 119012, Note_off_c, 0, 54, 62
1, 119025, Control_c, 0, 64, 98
1, 119040, Control_c, 0, 64, 104
1, 119051, Note_off_c, 0, 61, 53
1, 119055, Control_c, 0, 64, 109
1, 119069, Control_c, 0, 64, 113
1, 119082, Note_off_c, 0, 73, 60
1, 119084, Control_c, 0, 64, 116
1, 119117, Note_on_c, 0, 54, 36
1, 119154, Note_off_c, 0, 54, 46
1, 119234, Note_on_c, 0, 54, 49
1, 119265, Note_off_c, 0, 54, 60
1, 119284, Control_c, 0, 64, 114
1, 119299, Control_c, 0, 64, 110
1, 119314, Control_c, 0, 64, 104
1, 119329, Control_c, 0, 64, 97
1, 119344, Control_c, 0, 64, 86
1, 119359, Control_c, 0, 64, 78
1, 119371, Note_on_c, 0, 74, 52
1, 119372, Note_on_c, 0, 62, 49
1, 119374, Control_c, 0, 64, 71
1, 119377, Note_on_c, 0, 54, 48
1, 119389, Control_c, 0, 64, 63
1, 119404, Control_c, 0, 64, 54
1, 119419, Control_c, 0, 64, 48
1, 119425, Note_off_c, 0, 54, 59
1, 119433, Control_c, 0, 64, 47
1, 119448, Control_c, 0, 64, 46
1, 119463, Control_c, 0, 64, 45
1, 119474, Note_off_c, 0, 74, 64
1, 119478, Control_c, 0, 64, 45
1, 119502, Note_off_c, 0, 62, 64
1, 119507, Control_c, 0, 64, 45
1, 119522, Note_on_c, 0, 54, 60
1, 119522, Control_c, 0, 64, 46
1, 119552, Control_c, 0, 64, 45
1, 119561, Note_off_c, 0, 54, 59
1, 119567, Control_c, 0, 64, 45
1, 119612, Control_c, 0, 64, 44
1, 119626, Control_c, 0, 64, 41
1, 119637, Note_on_c, 0, 54, 58
1, 119641, Control_c, 0, 64, 35
1, 119656, Control_c, 0, 64, 0
1, 119662, Note_off_c, 0, 54, 66
1, 119818, Control_c, 0, 64, 29
1, 119833, Control_c, 0, 64, 46
1, 119848, Control_c, 0, 64, 63
1, 119863, Control_c, 0, 64, 69
1, 119876, Note_on_c, 0, 83, 57
1, 119878, Control_c, 0, 64, 73
1, 119893, Control_c, 0, 64, 76
1, 119901, Note_on_c, 0, 47, 49
1, 119908, Control_c, 0, 64, 81
1, 119914, Note_on_c, 0, 59, 38
1, 119923, Control_c, 0, 64, 94
1, 119938, Control_c, 0, 64, 127
1, 119944, Note_off_c, 0, 47, 61
1, 119972, Note_off_c, 0, 59, 50
1, 120018, Note_off_c, 0, 83, 54
1, 120288, Note_on_c, 0, 79, 53
1, 120290, Note_on_c, 0, 76, 47
1, 120309, Note_on_c, 0, 67, 41
1, 120313, Note_on_c, 0, 73, 44
1, 120314, Note_off_c, 0, 76, 58
1, 120316, Note_off_c, 0, 79, 65
1, 120316, Note_on_c, 0, 64, 39
1, 120499, Note_on_c, 0, 97, 75
1, 120501, Note_on_c, 0, 85, 74
1, 120522, Note_off_c, 0, 85, 71
1, 120523, Note_off_c, 0, 97, 69
1, 120533, Note_off_c, 0, 64, 61
1, 120540, Note_off_c, 0, 73, 59
1, 120574, Note_off_c, 0, 67, 42
1, 120687, Note_on_c, 0, 81, 67
1, 120693, Note_on_c, 0, 75, 71
1, 120700, Note_on_c, 0, 66, 61
1, 120704, Note_on_c, 0, 78, 44
1, 120707, Note_off_c, 0, 81, 64
1, 120707, Note_on_c, 0, 69, 50
1, 120727, Note_off_c, 0, 75, 57
1, 120727, Note_off_c, 0, 78, 55
1, 120730, Note_off_c, 0, 69, 60
1, 120736, Note_off_c, 0, 66, 62
1, 120890, Note_on_c, 0, 99, 87
1, 120906, Note_on_c, 0, 87, 68
1, 120916, Note_off_c, 0, 99, 66
1, 120922, Note_off_c, 0, 87, 68
1, 121081, Note_on_c, 0, 83, 82
1, 121087, Note_on_c, 0, 76, 71
1, 121087, Note_on_c, 0, 79, 72
1, 121091, Note_on_c, 0, 71, 67
1, 121097, Note_on_c, 0, 67, 54
1, 121107, Note_off_c, 0, 79, 73
1, 121107, Note_off_c, 0, 83, 65
1, 121109, Note_off_c, 0, 76, 66
1, 121126, Note_off_c, 0, 71, 59
1, 121135, Note_off_c, 0, 67, 61
1, 121261, Note_on_c, 0, 100, 86
1, 121270, Note_on_c, 0, 88, 73
1, 121280, Note_off_c, 0, 100, 72
1, 121285, Note_off_c, 0, 88, 69
1, 121502, Control_c, 0, 64, 108
1, 121517, Control_c, 0, 64, 81
1, 121531, Control_c, 0, 64, 63
1, 121546, Control_c, 0, 64, 44
1, 121561, Control_c, 0, 64, 33
1, 121591, Control_c, 0, 64, 38
1, 121605, Control_c, 0, 64, 48
1, 121617, Note_on_c, 0, 83, 60
1, 121620, Control_c, 0, 64, 61
1, 121631, Note_on_c, 0, 47, 45
1, 121635, Control_c, 0, 64, 72
1, 121649, Note_on_c, 0, 59, 32
1, 121650, Control_c, 0, 64, 87
1, 121665, Control_c, 0, 64, 119
1, 121671, Note_on_c, 0, 71, 23
1, 121679, Control_c, 0, 64, 127
1, 121690, Note_off_c, 0, 47, 57
1, 121715, Note_off_c, 0, 71, 41
1, 121730, Note_off_c, 0, 59, 60
1, 121747, Note_off_c, 0, 83, 62
1, 121986, Note_on_c, 0, 81, 66
1, 121992, Note_on_c, 0, 78, 64
1, 122006, Note_on_c, 0, 69, 49
1, 122011, Note_on_c, 0, 75, 61
1, 122012, Note_off_c, 0, 81, 66
1, 122018, Note_off_c, 0, 78, 64
1, 122021, Note_on_c, 0, 66, 53
1, 122185, Note_on_c, 0, 99, 95
1, 122189, Note_on_c, 0, 87, 87
1, 122199, Control_c, 0, 67, 125
1, 122210, Note_off_c, 0, 87, 69
1, 122211, Note_off_c, 0, 66, 62
1, 122213, Control_c, 0, 67, 114
1, 122217, Note_off_c, 0, 99, 62
1, 122228, Control_c, 0, 67, 103
1, 122245, Note_off_c, 0, 75, 53
1, 122251, Control_c, 0, 67, 91
1, 122266, Control_c, 0, 67, 75
1, 122281, Control_c, 0, 67, 62
1, 122295, Control_c, 0, 67, 53
1, 122310, Control_c, 0, 67, 46
1, 122324, Note_off_c, 0, 69, 51
1, 122325, Control_c, 0, 67, 40
1, 122340, Control_c, 0, 67, 34
1, 122354, Control_c, 0, 67, 0
1, 122386, Note_on_c, 0, 83, 84
1, 122388, Note_on_c, 0, 79, 77
1, 122394, Note_on_c, 0, 76, 73
1, 122400, Note_on_c, 0, 71, 66
1, 122403, Note_on_c, 0, 67, 62
1, 122410, Note_off_c, 0, 79, 67
1, 122412, Note_off_c, 0, 83, 64
1, 122421, Note_off_c, 0, 76, 67
1, 122434, Note_off_c, 0, 71, 60
1, 122439, Note_off_c, 0, 67, 63
1, 122518, Control_c, 0, 67, 34
1, 122533, Control_c, 0, 67, 38
1, 122548, Control_c, 0, 67, 39
1, 122562, Control_c, 0, 67, 40
1, 122568, Note_on_c, 0, 100, 90
1, 122574, Note_on_c, 0, 88, 83
1, 122576, Control_c, 0, 67, 41
1, 122591, Note_off_c, 0, 100, 67
1, 122591, Control_c, 0, 67, 44
1, 122600, Note_off_c, 0, 88, 67
1, 122606, Control_c, 0, 67, 48
1, 122621, Control_c, 0, 67, 50
1, 122658, Note_on_c, 0, 69, 17
1, 122680, Control_c, 0, 67, 52
1, 122695, Control_c, 0, 67, 53
1, 122725, Control_c, 0, 67, 52
1, 122729, Note_off_c, 0, 69, 0
1, 122740, Control_c, 0, 67, 54
1, 122740, Note_on_c, 0, 78, 83
1, 122740, Note_on_c, 0, 87, 94
1, 122741, Note_on_c, 0, 75, 82
1, 122741, Note_on_c, 0, 81, 89
1, 122742, Note_on_c, 0, 69, 57
1, 122755, Control_c, 0, 67, 57
1, 122759, Note_off_c, 0, 78, 71
1, 122760, Note_off_c, 0, 81, 68
1, 122769, Control_c, 0, 67, 58
1, 122771, Note_off_c, 0, 75, 64
1, 122775, Note_off_c, 0, 87, 66
1, 122781, Note_off_c, 0, 69, 63
1, 122784, Control_c, 0, 67, 58
1, 122799, Control_c, 0, 67, 57
1, 122814, Control_c, 0, 67, 57
1, 122829, Control_c, 0, 67, 56
1, 122843, Control_c, 0, 67, 55
1, 122858, Control_c, 0, 67, 51
1, 122873, Control_c, 0, 67, 50
1, 122927, Note_on_c, 0, 102, 99
1, 122931, Note_on_c, 0, 90, 87
1, 122932, Control_c, 0, 67, 49
1, 122945, Note_off_c, 0, 102, 73
1, 122949, Note_off_c, 0, 90, 73
1, 122961, Control_c, 0, 67, 50
1, 122976, Control_c, 0, 67, 50
1, 123029, Control_c, 0, 67, 50
1, 123043, Control_c, 0, 67, 52
1, 123058, Control_c, 0, 67, 54
1, 123088, Control_c, 0, 67, 55
1, 123103, Control_c, 0, 67, 56
1, 123117, Control_c, 0, 67, 61
1, 123132, Control_c, 0, 64, 100
1, 123132, Control_c, 0, 67, 65
1, 123147, Control_c, 0, 64, 68
1, 123147, Control_c, 0, 67, 76
1, 123162, Control_c, 0, 64, 36
1, 123162, Control_c, 0, 67, 83
1, 123176, Control_c, 0, 64, 0
1, 123176, Control_c, 0, 67, 94
1, 123191, Control_c, 0, 67, 127
1, 123202, Note_on_c, 0, 35, 85
1, 123202, Note_on_c, 0, 47, 85
1, 123206, Control_c, 0, 64, 45
1, 123213, Note_on_c, 0, 71, 87
1, 123221, Note_off_c, 0, 47, 69
1, 123221, Control_c, 0, 64, 75
1, 123228, Note_off_c, 0, 35, 68
1, 123236, Control_c, 0, 64, 127
1, 123251, Note_off_c, 0, 71, 66
1, 123327, Control_c, 0, 67, 125
1, 123341, Control_c, 0, 67, 112
1, 123356, Control_c, 0, 67, 102
1, 123371, Control_c, 0, 67, 98
1, 123400, Control_c, 0, 67, 100
1, 123445, Control_c, 0, 67, 102
1, 123534, Control_c, 0, 67, 100
1, 123563, Control_c, 0, 67, 97
1, 123578, Control_c, 0, 67, 94
1, 123586, Note_on_c, 0, 85, 80
1, 123591, Note_on_c, 0, 79, 65
1, 123592, Control_c, 0, 67, 90
1, 123601, Note_on_c, 0, 67, 71
1, 123602, Note_on_c, 0, 83, 49
1, 123604, Note_on_c, 0, 76, 67
1, 123607, Note_on_c, 0, 71, 49
1, 123607, Control_c, 0, 67, 79
1, 123616, Note_off_c, 0, 79, 68
1, 123616, Note_off_c, 0, 85, 60
1, 123619, Note_on_c, 0, 73, 51
1, 123622, Control_c, 0, 67, 77
1, 123625, Note_off_c, 0, 83, 58
1, 123630, Note_off_c, 0, 76, 66
1, 123646, Note_off_c, 0, 71, 53
1, 123649, Note_off_c, 0, 73, 65
1, 123652, Note_off_c, 0, 67, 58
1, 123763, Control_c, 0, 67, 77
1, 123778, Control_c, 0, 67, 78
1, 123779, Note_on_c, 0, 100, 86
1, 123784, Note_on_c, 0, 88, 85
1, 123792, Control_c, 0, 67, 79
1, 123802, Note_off_c, 0, 88, 72
1, 123802, Note_off_c, 0, 100, 70
1, 123837, Control_c, 0, 67, 79
1, 123852, Control_c, 0, 67, 82
1, 123881, Control_c, 0, 67, 81
1, 123911, Control_c, 0, 67, 82
1, 123926, Control_c, 0, 67, 82
1, 123965, Note_on_c, 0, 87, 83
1, 123967, Note_on_c, 0, 81, 73
1, 123971, Control_c, 0, 67, 82
1, 123973, Note_on_c, 0, 69, 67
1, 123975, Note_on_c, 0, 75, 77
1, 123976, Note_on_c, 0, 78, 77
1, 123983, Note_off_c, 0, 81, 68
1, 123986, Note_off_c, 0, 87, 66
1, 124000, Control_c, 0, 67, 82
1, 124001, Note_off_c, 0, 69, 64
1, 124004, Note_off_c, 0, 78, 58
1, 124008, Note_off_c, 0, 75, 56
1, 124045, Control_c, 0, 67, 82
1, 124089, Control_c, 0, 67, 81
1, 124104, Control_c, 0, 67, 80
1, 124120, Control_c, 0, 67, 79
1, 124171, Note_on_c, 0, 102, 81
1, 124178, Note_on_c, 0, 90, 77
1, 124179, Control_c, 0, 67, 78
1, 124194, Control_c, 0, 67, 76
1, 124195, Note_off_c, 0, 102, 70
1, 124199, Note_off_c, 0, 90, 65
1, 124208, Control_c, 0, 67, 75
1, 124253, Control_c, 0, 67, 74
1, 124268, Control_c, 0, 67, 73
1, 124340, Note_on_c, 0, 83, 90
1, 124340, Note_on_c, 0, 79, 72
1, 124341, Note_on_c, 0, 76, 73
1, 124341, Note_on_c, 0, 88, 84
1, 124342, Control_c, 0, 67, 72
1, 124345, Note_on_c, 0, 71, 77
1, 124357, Control_c, 0, 67, 70
1, 124362, Note_off_c, 0, 79, 71
1, 124363, Note_off_c, 0, 83, 66
1, 124363, Note_off_c, 0, 88, 67
1, 124364, Note_off_c, 0, 76, 68
1, 124371, Note_off_c, 0, 71, 66
1, 124372, Control_c, 0, 67, 67
1, 124387, Control_c, 0, 67, 65
1, 124416, Control_c, 0, 67, 65
1, 124461, Control_c, 0, 67, 64
1, 124476, Control_c, 0, 67, 62
1, 124498, Control_c, 0, 67, 62
1, 124542, Note_on_c, 0, 103, 93
1, 124552, Note_on_c, 0, 91, 76
1, 124572, Note_on_c, 0, 101, 47
1, 124572, Control_c, 0, 67, 61
1, 124574, Note_off_c, 0, 91, 72
1, 124581, Note_on_c, 0, 89, 26
1, 124583, Note_off_c, 0, 103, 67
1, 124600, Note_off_c, 0, 101, 37
1, 124616, Control_c, 0, 67, 62
1, 124620, Note_off_c, 0, 89, 35
1, 124646, Control_c, 0, 67, 62
1, 124661, Control_c, 0, 67, 64
1, 124676, Control_c, 0, 67, 67
1, 124690, Control_c, 0, 67, 69
1, 124720, Control_c, 0, 64, 80
1, 124735, Control_c, 0, 64, 49
1, 124737, Note_on_c, 0, 59, 91
1, 124739, Note_on_c, 0, 47, 84
1, 124749, Control_c, 0, 64, 0
1, 124764, Control_c, 0, 64, 39
1, 124764, Control_c, 0, 67, 67
1, 124779, Control_c, 0, 64, 63
1, 124779, Control_c, 0, 67, 65
1, 124782, Note_off_c, 0, 47, 65
1, 124790, Note_off_c, 0, 59, 65
1, 124794, Control_c, 0, 64, 100
1, 124794, Control_c, 0, 67, 64
1, 124809, Control_c, 0, 64, 127
1, 124809, Control_c, 0, 67, 61
1, 124823, Control_c, 0, 67, 57
1, 124838, Control_c, 0, 67, 46
1, 124853, Control_c, 0, 67, 0
1, 124933, Note_on_c, 0, 103, 84
1, 124936, Note_on_c, 0, 91, 87
1, 124955, Note_off_c, 0, 103, 69
1, 124959, Note_off_c, 0, 91, 69
1, 125121, Note_on_c, 0, 84, 85
1, 125123, Note_on_c, 0, 78, 76
1, 125123, Note_on_c, 0, 81, 76
1, 125124, Note_on_c, 0, 72, 75
1, 125126, Note_on_c, 0, 88, 76
1, 125127, Note_on_c, 0, 76, 69
1, 125127, Note_on_c, 0, 90, 75
1, 125138, Note_off_c, 0, 84, 74
1, 125144, Note_off_c, 0, 81, 71
1, 125147, Note_off_c, 0, 78, 68
1, 125147, Note_off_c, 0, 88, 72
1, 125148, Note_off_c, 0, 90, 72
1, 125148, Note_off_c, 0, 72, 66
1, 125152, Note_off_c, 0, 76, 68
1, 125356, Note_on_c, 0, 105, 102
1, 125363, Note_on_c, 0, 93, 91
1, 125380, Note_off_c, 0, 93, 71
1, 125393, Note_off_c, 0, 105, 66
1, 125583, Note_on_c, 0, 71, 97
1, 125586, Note_on_c, 0, 59, 83
1, 125602, Control_c, 0, 64, 93
1, 125617, Control_c, 0, 64, 64
1, 125632, Control_c, 0, 64, 38
1, 125646, Control_c, 0, 64, 41
1, 125661, Control_c, 0, 64, 57
1, 125676, Control_c, 0, 64, 77
1, 125691, Control_c, 0, 64, 127
1, 125723, Note_off_c, 0, 59, 61
1, 125771, Note_off_c, 0, 71, 62
1, 125833, Note_on_c, 0, 93, 87
1, 125833, Note_on_c, 0, 102, 94
1, 125840, Note_on_c, 0, 100, 74
1, 125855, Note_off_c, 0, 93, 67
1, 125864, Note_off_c, 0, 100, 68
1, 125879, Note_off_c, 0, 102, 67
1, 126105, Note_on_c, 0, 83, 86
1, 126105, Note_on_c, 0, 107, 102
1, 126108, Note_on_c, 0, 99, 91
1, 126112, Note_on_c, 0, 95, 76
1, 126112, Note_on_c, 0, 102, 83
1, 126113, Note_on_c, 0, 75, 74
1, 126114, Note_on_c, 0, 78, 74
1, 126117, Note_on_c, 0, 71, 65
1, 126128, Note_off_c, 0, 83, 67
1, 126135, Note_off_c, 0, 95, 70
1, 126144, Note_off_c, 0, 71, 65
1, 126144, Note_off_c, 0, 78, 59
1, 126147, Note_off_c, 0, 75, 58
1, 126147, Note_off_c, 0, 99, 63
1, 126147, Note_off_c, 0, 102, 66
1, 126148, Note_off_c, 0, 107, 67
1, 126382, Control_c, 0, 67, 40
1, 126396, Control_c, 0, 67, 65
1, 126411, Control_c, 0, 67, 69
1, 126426, Control_c, 0, 67, 70
1, 126441, Control_c, 0, 67, 76
1, 126456, Control_c, 0, 67, 108
1, 126470, Control_c, 0, 67, 127
1, 126788, Note_on_c, 0, 62, 52
1, 126879, Control_c, 0, 64, 108
1, 126893, Control_c, 0, 64, 83
1, 126908, Control_c, 0, 64, 63
1, 126918, Note_on_c, 0, 66, 53
1, 126923, Control_c, 0, 64, 49
1, 126937, Control_c, 0, 64, 42
1, 126952, Control_c, 0, 64, 42
1, 126967, Control_c, 0, 64, 46
1, 126982, Control_c, 0, 64, 54
1, 126997, Control_c, 0, 64, 63
1, 127011, Control_c, 0, 64, 72
1, 127026, Control_c, 0, 64, 83
1, 127036, Note_on_c, 0, 69, 55
1, 127041, Control_c, 0, 64, 96
1, 127056, Control_c, 0, 64, 112
1, 127071, Control_c, 0, 64, 127
1, 127100, Note_on_c, 0, 72, 60
1, 127155, Note_on_c, 0, 74, 58
1, 127159, Note_off_c, 0, 62, 58
1, 127175, Note_off_c, 0, 72, 47
1, 127205, Note_on_c, 0, 78, 65
1, 127210, Note_off_c, 0, 69, 52
1, 127218, Note_off_c, 0, 66, 54
1, 127266, Note_on_c, 0, 81, 62
1, 127305, Note_off_c, 0, 74, 38
1, 127310, Note_off_c, 0, 78, 58
1, 127322, Note_on_c, 0, 84, 73
1, 127338, Note_off_c, 0, 81, 63
1, 127366, Note_on_c, 0, 63, 72
1, 127387, Note_off_c, 0, 84, 60
1, 127409, Note_on_c, 0, 66, 75
1, 127441, Control_c, 0, 64, 96
1, 127456, Control_c, 0, 64, 71
1, 127471, Control_c, 0, 64, 56
1, 127477, Note_on_c, 0, 69, 77
1, 127494, Control_c, 0, 64, 53
1, 127509, Control_c, 0, 64, 59
1, 127523, Control_c, 0, 64, 72
1, 127538, Control_c, 0, 64, 100
1, 127553, Control_c, 0, 64, 127
1, 127555, Note_on_c, 0, 71, 86
1, 127585, Note_off_c, 0, 63, 58
1, 127589, Note_on_c, 0, 75, 75
1, 127610, Note_off_c, 0, 69, 61
1, 127616, Note_off_c, 0, 71, 57
1, 127619, Note_off_c, 0, 66, 61
1, 127631, Note_on_c, 0, 78, 75
1, 127651, Note_off_c, 0, 75, 63
1, 127685, Note_on_c, 0, 81, 74
1, 127715, Control_c, 0, 67, 114
1, 127721, Note_on_c, 0, 83, 83
1, 127724, Note_off_c, 0, 78, 61
1, 127730, Control_c, 0, 67, 101
1, 127745, Control_c, 0, 67, 92
1, 127753, Note_off_c, 0, 81, 65
1, 127759, Control_c, 0, 67, 89
1, 127771, Note_on_c, 0, 62, 73
1, 127799, Note_off_c, 0, 83, 57
1, 127804, Control_c, 0, 64, 94
1, 127810, Note_on_c, 0, 66, 79
1, 127819, Control_c, 0, 64, 66
1, 127834, Control_c, 0, 64, 51
1, 127834, Control_c, 0, 67, 88
1, 127849, Control_c, 0, 64, 51
1, 127864, Control_c, 0, 64, 59
1, 127864, Control_c, 0, 67, 87
1, 127866, Note_on_c, 0, 69, 81
1, 127879, Control_c, 0, 64, 70
1, 127879, Control_c, 0, 67, 82
1, 127893, Control_c, 0, 64, 94
1, 127893, Control_c, 0, 67, 71
1, 127908, Control_c, 0, 64, 127
1, 127908, Control_c, 0, 67, 55
1, 127923, Control_c, 0, 67, 48
1, 127928, Note_on_c, 0, 72, 82
1, 127938, Control_c, 0, 67, 40
1, 127949, Note_on_c, 0, 74, 81
1, 127952, Note_off_c, 0, 62, 37
1, 127953, Control_c, 0, 67, 0
1, 127965, Note_off_c, 0, 69, 61
1, 127974, Note_off_c, 0, 66, 63
1, 127989, Note_off_c, 0, 72, 62
1, 128003, Note_on_c, 0, 78, 77
1, 128027, Note_off_c, 0, 74, 52
1, 128039, Note_on_c, 0, 81, 79
1, 128086, Note_on_c, 0, 84, 83
1, 128087, Note_off_c, 0, 78, 62
1, 128112, Note_off_c, 0, 81, 65
1, 128126, Note_on_c, 0, 63, 74
1, 128155, Note_on_c, 0, 66, 76
1, 128156, Note_off_c, 0, 84, 60
1, 128190, Control_c, 0, 64, 84
1, 128205, Control_c, 0, 64, 60
1, 128220, Control_c, 0, 64, 30
1, 128220, Control_c, 0, 67, 47
1, 128240, Note_on_c, 0, 69, 72
1, 128242, Control_c, 0, 67, 79
1, 128257, Control_c, 0, 64, 43
1, 128257, Control_c, 0, 67, 84
1, 128272, Control_c, 0, 64, 61
1, 128272, Control_c, 0, 67, 83
1, 128287, Control_c, 0, 64, 76
1, 128287, Control_c, 0, 67, 85
1, 128293, Note_on_c, 0, 71, 86
1, 128302, Control_c, 0, 64, 96
1, 128302, Control_c, 0, 67, 92
1, 128316, Control_c, 0, 64, 127
1, 128316, Control_c, 0, 67, 117
1, 128323, Note_off_c, 0, 63, 61
1, 128326, Note_off_c, 0, 66, 63
1, 128331, Note_off_c, 0, 69, 60
1, 128331, Control_c, 0, 67, 127
1, 128335, Note_on_c, 0, 75, 75
1, 128362, Note_off_c, 0, 71, 61
1, 128379, Note_on_c, 0, 78, 69
1, 128400, Note_off_c, 0, 75, 62
1, 128409, Note_on_c, 0, 68, 57
1, 128417, Note_on_c, 0, 81, 67
1, 128443, Note_off_c, 0, 68, 63
1, 128457, Note_off_c, 0, 78, 58
1, 128464, Note_on_c, 0, 83, 74
1, 128483, Note_off_c, 0, 81, 63
1, 128504, Note_on_c, 0, 65, 74
1, 128517, Note_off_c, 0, 83, 59
1, 128534, Note_on_c, 0, 69, 66
1, 128553, Control_c, 0, 64, 97
1, 128568, Control_c, 0, 64, 69
1, 128582, Control_c, 0, 64, 47
1, 128591, Note_on_c, 0, 72, 73
1, 128597, Control_c, 0, 64, 32
1, 128612, Control_c, 0, 64, 33
1, 128627, Control_c, 0, 64, 45
1, 128638, Note_on_c, 0, 76, 84
1, 128642, Control_c, 0, 64, 63
1, 128657, Control_c, 0, 64, 77
1, 128672, Control_c, 0, 64, 98
1, 128676, Note_on_c, 0, 77, 72
1, 128678, Note_off_c, 0, 65, 62
1, 128687, Control_c, 0, 64, 127
1, 128691, Note_off_c, 0, 69, 60
1, 128694, Note_off_c, 0, 72, 60
1, 128708, Note_off_c, 0, 76, 61
1, 128717, Note_on_c, 0, 81, 71
1, 128740, Note_off_c, 0, 77, 59
1, 128753, Note_on_c, 0, 84, 78
1, 128795, Note_off_c, 0, 81, 59
1, 128807, Note_on_c, 0, 88, 79
1, 128821, Note_off_c, 0, 84, 65
1, 128850, Note_on_c, 0, 66, 70
1, 128865, Note_on_c, 0, 69, 62
1, 128865, Note_off_c, 0, 88, 66
1, 128879, Control_c, 0, 64, 111
1, 128894, Control_c, 0, 64, 78
1, 128910, Control_c, 0, 64, 60
1, 128925, Control_c, 0, 64, 47
1, 128928, Note_on_c, 0, 71, 66
1, 128939, Control_c, 0, 64, 49
1, 128954, Control_c, 0, 64, 59
1, 128969, Control_c, 0, 64, 70
1, 128991, Control_c, 0, 64, 85
1, 128993, Note_on_c, 0, 75, 79
1, 129006, Control_c, 0, 64, 102
1, 129020, Control_c, 0, 64, 115
1, 129031, Note_on_c, 0, 78, 74
1, 129032, Note_off_c, 0, 66, 62
1, 129035, Control_c, 0, 64, 127
1, 129036, Note_off_c, 0, 69, 57
1, 129064, Note_off_c, 0, 71, 59
1, 129070, Note_on_c, 0, 81, 57
1, 129076, Note_off_c, 0, 75, 57
1, 129091, Note_off_c, 0, 78, 56
1, 129108, Note_on_c, 0, 83, 67
1, 129143, Note_on_c, 0, 87, 72
1, 129144, Note_off_c, 0, 81, 60
1, 129163, Note_off_c, 0, 83, 62
1, 129201, Note_on_c, 0, 65, 64
1, 129214, Note_on_c, 0, 69, 65
1, 129217, Note_off_c, 0, 87, 61
1, 129243, Control_c, 0, 64, 90
1, 129258, Control_c, 0, 64, 68
1, 129273, Control_c, 0, 64, 52
1, 129286, Note_on_c, 0, 72, 60
1, 129287, Control_c, 0, 64, 47
1, 129303, Control_c, 0, 64, 49
1, 129318, Control_c, 0, 64, 57
1, 129326, Note_off_c, 0, 65, 60
1, 129330, Note_on_c, 0, 76, 60
1, 129332, Control_c, 0, 64, 66
1, 129334, Note_on_c, 0, 77, 67
1, 129347, Control_c, 0, 64, 80
1, 129352, Note_off_c, 0, 69, 52
1, 129362, Control_c, 0, 64, 100
1, 129377, Control_c, 0, 64, 127
1, 129383, Note_off_c, 0, 77, 54
1, 129384, Note_on_c, 0, 81, 55
1, 129401, Note_off_c, 0, 76, 58
1, 129424, Note_on_c, 0, 84, 67
1, 129430, Note_off_c, 0, 72, 56
1, 129462, Note_off_c, 0, 81, 62
1, 129485, Note_on_c, 0, 88, 65
1, 129488, Note_off_c, 0, 84, 64
1, 129524, Note_off_c, 0, 88, 64
1, 129529, Note_on_c, 0, 66, 70
1, 129556, Note_on_c, 0, 69, 61
1, 129569, Control_c, 0, 64, 93
1, 129584, Control_c, 0, 64, 68
1, 129599, Control_c, 0, 64, 50
1, 129608, Note_on_c, 0, 71, 56
1, 129614, Control_c, 0, 64, 46
1, 129628, Control_c, 0, 64, 52
1, 129643, Control_c, 0, 64, 62
1, 129658, Control_c, 0, 64, 74
1, 129667, Note_off_c, 0, 66, 60
1, 129672, Note_on_c, 0, 75, 69
1, 129673, Control_c, 0, 64, 87
1, 129673, Note_off_c, 0, 69, 55
1, 129688, Control_c, 0, 64, 98
1, 129691, Note_on_c, 0, 78, 67
1, 129699, Note_off_c, 0, 71, 60
1, 129703, Control_c, 0, 64, 105
1, 129718, Control_c, 0, 64, 127
1, 129739, Note_off_c, 0, 75, 61
1, 129754, Note_off_c, 0, 78, 52
1, 129774, Note_on_c, 0, 81, 20
1, 129783, Note_on_c, 0, 83, 62
1, 129821, Note_on_c, 0, 87, 65
1, 129824, Note_off_c, 0, 81, 49
1, 129826, Note_off_c, 0, 83, 60
1, 129887, Note_off_c, 0, 87, 62
1, 129896, Note_on_c, 0, 69, 79
1, 129904, Control_c, 0, 64, 99
1, 129918, Control_c, 0, 64, 71
1, 129933, Control_c, 0, 64, 52
1, 129941, Note_on_c, 0, 72, 57
1, 129948, Control_c, 0, 64, 39
1, 129962, Control_c, 0, 64, 42
1, 129977, Control_c, 0, 64, 54
1, 129992, Control_c, 0, 64, 66
1, 130007, Control_c, 0, 64, 79
1, 130022, Control_c, 0, 64, 96
1, 130037, Control_c, 0, 64, 108
1, 130043, Note_on_c, 0, 75, 66
1, 130049, Note_off_c, 0, 69, 54
1, 130050, Control_c, 0, 64, 123
1, 130065, Control_c, 0, 64, 127
1, 130082, Note_off_c, 0, 72, 61
1, 130113, Note_on_c, 0, 81, 54
1, 130124, Note_off_c, 0, 75, 59
1, 130137, Note_on_c, 0, 79, 6
1, 130156, Note_off_c, 0, 81, 56
1, 130173, Note_on_c, 0, 84, 41
1, 130186, Note_off_c, 0, 79, 52
1, 130201, Note_on_c, 0, 87, 58
1, 130228, Note_off_c, 0, 84, 59
1, 130250, Note_on_c, 0, 91, 61
1, 130255, Note_off_c, 0, 87, 59
1, 130292, Note_off_c, 0, 91, 59
1, 130295, Note_on_c, 0, 71, 80
1, 130302, Control_c, 0, 64, 80
1, 130317, Control_c, 0, 64, 60
1, 130332, Control_c, 0, 64, 46
1, 130347, Control_c, 0, 64, 48
1, 130361, Control_c, 0, 64, 58
1, 130376, Control_c, 0, 64, 66
1, 130378, Note_on_c, 0, 75, 60
1, 130391, Control_c, 0, 64, 76
1, 130406, Control_c, 0, 64, 88
1, 130421, Control_c, 0, 64, 97
1, 130435, Control_c, 0, 64, 103
1, 130450, Control_c, 0, 64, 116
1, 130454, Note_off_c, 0, 71, 61
1, 130465, Control_c, 0, 64, 127
1, 130490, Note_on_c, 0, 78, 48
1, 130515, Note_off_c, 0, 75, 54
1, 130517, Note_on_c, 0, 83, 43
1, 130533, Note_off_c, 0, 78, 49
1, 130570, Note_on_c, 0, 87, 48
1, 130609, Note_off_c, 0, 83, 40
1, 130617, Note_on_c, 0, 90, 60
1, 130621, Note_off_c, 0, 87, 58
1, 130656, Note_off_c, 0, 90, 60
1, 130681, Control_c, 0, 64, 115
1, 130685, Note_on_c, 0, 69, 72
1, 130696, Control_c, 0, 64, 78
1, 130710, Control_c, 0, 64, 60
1, 130718, Note_on_c, 0, 72, 52
1, 130725, Control_c, 0, 64, 52
1, 130740, Control_c, 0, 64, 56
1, 130755, Control_c, 0, 64, 62
1, 130770, Control_c, 0, 64, 68
1, 130784, Control_c, 0, 64, 76
1, 130799, Control_c, 0, 64, 82
1, 130814, Control_c, 0, 64, 85
1, 130821, Note_off_c, 0, 69, 57
1, 130829, Control_c, 0, 64, 90
1, 130836, Note_on_c, 0, 75, 53
1, 130844, Control_c, 0, 64, 101
1, 130858, Control_c, 0, 64, 127
1, 130860, Note_on_c, 0, 81, 40
1, 130879, Note_off_c, 0, 72, 56
1, 130895, Note_on_c, 0, 79, 25
1, 130943, Note_on_c, 0, 84, 20
1, 130946, Note_off_c, 0, 79, 46
1, 130949, Note_on_c, 0, 87, 55
1, 130967, Note_off_c, 0, 81, 41
1, 130999, Note_off_c, 0, 84, 44
1, 131024, Note_off_c, 0, 87, 61
1, 131026, Note_off_c, 0, 75, 43
1, 131033, Note_on_c, 0, 91, 47
1, 131069, Note_on_c, 0, 71, 64
1, 131073, Note_off_c, 0, 91, 61
1, 131080, Control_c, 0, 64, 100
1, 131095, Control_c, 0, 64, 73
1, 131110, Control_c, 0, 64, 58
1, 131125, Control_c, 0, 64, 52
1, 131134, Note_on_c, 0, 75, 51
1, 131140, Control_c, 0, 64, 55
1, 131155, Control_c, 0, 64, 62
1, 131170, Control_c, 0, 64, 70
1, 131184, Control_c, 0, 64, 80
1, 131199, Control_c, 0, 64, 89
1, 131211, Note_off_c, 0, 71, 56
1, 131214, Control_c, 0, 64, 94
1, 131236, Control_c, 0, 64, 104
1, 131246, Note_on_c, 0, 78, 55
1, 131251, Control_c, 0, 64, 127
1, 131265, Note_off_c, 0, 75, 63
1, 131277, Note_on_c, 0, 83, 45
1, 131288, Note_off_c, 0, 78, 53
1, 131340, Note_on_c, 0, 87, 48
1, 131384, Note_off_c, 0, 83, 38
1, 131393, Note_off_c, 0, 87, 56
1, 131400, Note_on_c, 0, 90, 46
1, 131441, Note_off_c, 0, 90, 58
1, 131472, Note_on_c, 0, 74, 72
1, 131489, Control_c, 0, 64, 93
1, 131503, Control_c, 0, 64, 70
1, 131518, Control_c, 0, 64, 58
1, 131533, Control_c, 0, 64, 55
1, 131548, Control_c, 0, 64, 58
1, 131563, Control_c, 0, 64, 64
1, 131578, Control_c, 0, 64, 70
1, 131593, Control_c, 0, 64, 79
1, 131599, Note_on_c, 0, 78, 58
1, 131607, Control_c, 0, 64, 85
1, 131622, Control_c, 0, 64, 90
1, 131637, Control_c, 0, 64, 99
1, 131652, Control_c, 0, 64, 115
1, 131667, Control_c, 0, 64, 127
1, 131678, Note_off_c, 0, 74, 61
1, 131696, Note_on_c, 0, 81, 40
1, 131709, Note_on_c, 0, 86, 33
1, 131739, Note_off_c, 0, 81, 60
1, 131757, Note_on_c, 0, 84, 36
1, 131770, Note_off_c, 0, 78, 35
1, 131775, Note_on_c, 0, 90, 34
1, 131790, Note_off_c, 0, 84, 55
1, 131802, Note_off_c, 0, 86, 42
1, 131811, Note_on_c, 0, 93, 52
1, 131822, Note_off_c, 0, 90, 46
1, 131865, Note_off_c, 0, 93, 61
1, 131870, Note_on_c, 0, 96, 57
1, 131909, Note_off_c, 0, 96, 64
1, 131927, Note_on_c, 0, 75, 62
1, 131948, Control_c, 0, 64, 91
1, 131963, Control_c, 0, 64, 70
1, 131985, Control_c, 0, 64, 59
1, 131998, Note_on_c, 0, 78, 53
1, 132000, Control_c, 0, 64, 60
1, 132014, Control_c, 0, 64, 64
1, 132029, Control_c, 0, 64, 68
1, 132044, Control_c, 0, 64, 73
1, 132058, Control_c, 0, 64, 80
1, 132067, Note_on_c, 0, 81, 52
1, 132073, Control_c, 0, 64, 87
1, 132088, Control_c, 0, 64, 97
1, 132104, Control_c, 0, 64, 123
1, 132119, Note_off_c, 0, 75, 57
1, 132119, Control_c, 0, 64, 127
1, 132135, Note_on_c, 0, 83, 55
1, 132152, Note_on_c, 0, 87, 55
1, 132171, Note_off_c, 0, 81, 57
1, 132180, Note_off_c, 0, 83, 57
1, 132187, Note_off_c, 0, 78, 45
1, 132192, Note_off_c, 0, 87, 60
1, 132195, Note_on_c, 0, 90, 60
1, 132237, Note_on_c, 0, 93, 63
1, 132247, Note_off_c, 0, 90, 60
1, 132264, Note_on_c, 0, 95, 68
1, 132276, Note_off_c, 0, 93, 63
1, 132292, Note_off_c, 0, 95, 70
1, 132296, Control_c, 0, 64, 107
1, 132311, Control_c, 0, 64, 75
1, 132325, Note_on_c, 0, 74, 64
1, 132326, Control_c, 0, 64, 63
1, 132356, Control_c, 0, 64, 68
1, 132371, Control_c, 0, 64, 80
1, 132379, Note_on_c, 0, 78, 52
1, 132386, Control_c, 0, 64, 99
1, 132401, Control_c, 0, 64, 127
1, 132422, Note_on_c, 0, 81, 54
1, 132437, Note_off_c, 0, 74, 59
1, 132481, Note_on_c, 0, 84, 52
1, 132494, Note_off_c, 0, 78, 58
1, 132494, Note_off_c, 0, 81, 62
1, 132521, Note_off_c, 0, 84, 58
1, 132539, Note_on_c, 0, 86, 44
1, 132575, Note_on_c, 0, 90, 53
1, 132591, Note_off_c, 0, 86, 49
1, 132605, Note_on_c, 0, 93, 64
1, 132615, Note_off_c, 0, 90, 63
1, 132675, Note_on_c, 0, 96, 64
1, 132675, Note_off_c, 0, 93, 58
1, 132710, Note_off_c, 0, 96, 65
1, 132767, Note_on_c, 0, 75, 61
1, 132793, Control_c, 0, 64, 90
1, 132808, Control_c, 0, 64, 68
1, 132823, Control_c, 0, 64, 52
1, 132837, Control_c, 0, 64, 50
1, 132852, Control_c, 0, 64, 53
1, 132867, Control_c, 0, 64, 59
1, 132878, Note_on_c, 0, 78, 53
1, 132881, Control_c, 0, 64, 66
1, 132896, Control_c, 0, 64, 73
1, 132912, Control_c, 0, 64, 83
1, 132927, Control_c, 0, 64, 93
1, 132942, Control_c, 0, 64, 103
1, 132954, Note_off_c, 0, 75, 53
1, 132957, Control_c, 0, 64, 127
1, 133003, Note_on_c, 0, 81, 36
1, 133015, Note_off_c, 0, 78, 52
1, 133033, Note_off_c, 0, 81, 56
1, 133077, Note_on_c, 0, 83, 50
1, 133103, Note_off_c, 0, 83, 56
1, 133191, Note_on_c, 0, 87, 44
1, 133226, Note_off_c, 0, 87, 61
1, 133244, Note_on_c, 0, 90, 66
1, 133273, Note_off_c, 0, 90, 64
1, 133312, Control_c, 0, 67, 125
1, 133327, Control_c, 0, 67, 120
1, 133328, Note_on_c, 0, 93, 52
1, 133342, Control_c, 0, 67, 113
1, 133350, Note_off_c, 0, 93, 56
1, 133353, Note_on_c, 0, 95, 40
1, 133357, Control_c, 0, 67, 96
1, 133370, Note_on_c, 0, 99, 74
1, 133371, Control_c, 0, 67, 72
1, 133383, Note_off_c, 0, 95, 47
1, 133386, Control_c, 0, 67, 52
1, 133387, Note_on_c, 0, 102, 73
1, 133401, Control_c, 0, 67, 36
1, 133416, Control_c, 0, 67, 0
1, 133429, Note_off_c, 0, 99, 62
1, 133432, Note_on_c, 0, 105, 68
1, 133437, Note_off_c, 0, 102, 66
1, 133458, Note_on_c, 0, 107, 90
1, 133498, Note_off_c, 0, 105, 66
1, 133507, Note_off_c, 0, 107, 66
1, 133721, Control_c, 0, 67, 55
1, 133735, Control_c, 0, 67, 71
1, 133750, Control_c, 0, 67, 71
1, 133765, Control_c, 0, 67, 76
1, 133780, Control_c, 0, 67, 94
1, 133795, Control_c, 0, 67, 127
1, 134306, Control_c, 0, 64, 120
1, 134320, Control_c, 0, 64, 117
1, 134335, Control_c, 0, 64, 115
1, 134350, Control_c, 0, 64, 113
1, 134365, Control_c, 0, 64, 111
1, 134380, Control_c, 0, 64, 109
1, 134395, Control_c, 0, 64, 105
1, 134409, Control_c, 0, 64, 96
1, 134424, Control_c, 0, 64, 80
1, 134439, Control_c, 0, 64, 63
1, 134453, Control_c, 0, 64, 40
1, 134468, Control_c, 0, 64, 0
1, 134639, Note_on_c, 0, 59, 60
1, 134644, Note_on_c, 0, 71, 46
1, 134669, Note_off_c, 0, 71, 58
1, 134675, Note_off_c, 0, 59, 62
1, 134715, Note_on_c, 0, 69, 64
1, 134726, Note_on_c, 0, 57, 61
1, 134753, Note_off_c, 0, 69, 62
1, 134761, Note_off_c, 0, 57, 65
1, 134816, Note_on_c, 0, 67, 52
1, 134831, Note_on_c, 0, 55, 51
1, 134841, Note_off_c, 0, 67, 60
1, 134857, Note_off_c, 0, 55, 59
1, 134888, Note_on_c, 0, 66, 61
1, 134920, Note_off_c, 0, 66, 66
1, 134988, Note_on_c, 0, 64, 65
1, 134994, Note_on_c, 0, 52, 63
1, 135013, Note_off_c, 0, 64, 68
1, 135024, Control_c, 0, 64, 54
1, 135031, Note_off_c, 0, 52, 58
1, 135039, Control_c, 0, 64, 68
1, 135054, Control_c, 0, 64, 75
1, 135069, Control_c, 0, 64, 79
1, 135084, Control_c, 0, 64, 81
1, 135098, Control_c, 0, 64, 84
1, 135113, Control_c, 0, 64, 86
1, 135128, Control_c, 0, 64, 89
1, 135143, Control_c, 0, 64, 92
1, 135155, Poly_aftertouch_c, 0, 52, 127
1, 135158, Control_c, 0, 64, 96
1, 135173, Control_c, 0, 64, 105
1, 135188, Control_c, 0, 64, 127
1, 135203, Note_on_c, 0, 40, 28
1, 135221, Poly_aftertouch_c, 0, 52, 0
1, 135241, Note_off_c, 0, 40, 44
1, 135291, Control_c, 0, 64, 106
1, 135307, Control_c, 0, 64, 81
1, 135322, Control_c, 0, 64, 62
1, 135337, Control_c, 0, 64, 0
1, 135370, Note_on_c, 0, 103, 73
1, 135399, Note_off_c, 0, 103, 67
1, 135405, Note_on_c, 0, 79, 44
1, 135406, Note_on_c, 0, 76, 40
1, 135429, Note_off_c, 0, 79, 58
1, 135435, Note_off_c, 0, 76, 56
1, 135549, Note_on_c, 0, 100, 76
1, 135552, Note_on_c, 0, 79, 52
1, 135558, Note_on_c, 0, 76, 47
1, 135560, Note_on_c, 0, 91, 66
1, 135560, Note_on_c, 0, 71, 66
1, 135575, Note_off_c, 0, 79, 65
1, 135579, Note_off_c, 0, 91, 66
1, 135581, Note_off_c, 0, 76, 57
1, 135582, Note_off_c, 0, 100, 62
1, 135587, Note_off_c, 0, 71, 65
1, 135745, Note_on_c, 0, 103, 83
1, 135769, Note_on_c, 0, 52, 51
1, 135773, Note_on_c, 0, 64, 49
1, 135774, Note_off_c, 0, 103, 66
1, 135794, Note_off_c, 0, 52, 58
1, 135799, Note_off_c, 0, 64, 58
1, 135949, Note_on_c, 0, 52, 29
1, 135949, Note_on_c, 0, 64, 36
1, 135980, Note_off_c, 0, 64, 55
1, 135990, Note_off_c, 0, 52, 52
1, 136123, Note_on_c, 0, 102, 72
1, 136149, Note_on_c, 0, 76, 46
1, 136149, Note_off_c, 0, 102, 68
1, 136159, Note_on_c, 0, 81, 42
1, 136160, Note_on_c, 0, 93, 19
1, 136175, Note_off_c, 0, 76, 56
1, 136184, Note_off_c, 0, 81, 55
1, 136201, Note_off_c, 0, 93, 48
1, 136306, Note_on_c, 0, 81, 35
1, 136321, Note_on_c, 0, 72, 45
1, 136325, Note_on_c, 0, 76, 17
1, 136332, Note_off_c, 0, 81, 58
1, 136346, Note_off_c, 0, 72, 60
1, 136361, Note_off_c, 0, 76, 43
1, 136494, Note_on_c, 0, 99, 77
1, 136503, Note_on_c, 0, 90, 58
1, 136512, Note_on_c, 0, 93, 40
1, 136516, Note_on_c, 0, 52, 55
1, 136520, Note_off_c, 0, 90, 64
1, 136521, Note_on_c, 0, 64, 51
1, 136541, Note_off_c, 0, 93, 51
1, 136542, Note_off_c, 0, 52, 61
1, 136544, Note_off_c, 0, 64, 60
1, 136547, Note_off_c, 0, 99, 62
1, 136687, Note_on_c, 0, 52, 53
1, 136689, Note_on_c, 0, 64, 44
1, 136713, Note_off_c, 0, 52, 60
1, 136717, Note_off_c, 0, 64, 61
1, 136878, Note_on_c, 0, 100, 74
1, 136892, Note_on_c, 0, 94, 47
1, 136892, Note_off_c, 0, 94, 127
1, 136896, Note_on_c, 0, 73, 49
1, 136896, Note_on_c, 0, 91, 45
1, 136897, Note_on_c, 0, 82, 56
1, 136904, Note_off_c, 0, 100, 69
1, 136908, Note_on_c, 0, 79, 33
1, 136919, Note_off_c, 0, 73, 58
1, 136919, Note_off_c, 0, 82, 64
1, 136922, Note_off_c, 0, 91, 50
1, 136940, Note_off_c, 0, 79, 54
1, 137044, Note_on_c, 0, 82, 56
1, 137056, Note_on_c, 0, 73, 58
1, 137070, Note_off_c, 0, 82, 68
1, 137084, Note_off_c, 0, 73, 66
1, 137247, Note_on_c, 0, 98, 71
1, 137253, Note_on_c, 0, 92, 60
1, 137263, Note_on_c, 0, 89, 45
1, 137265, Note_on_c, 0, 52, 49
1, 137270, Note_off_c, 0, 92, 62
1, 137277, Note_off_c, 0, 98, 66
1, 137283, Note_on_c, 0, 64, 26
1, 137287, Note_off_c, 0, 89, 50
1, 137293, Note_off_c, 0, 52, 55
1, 137322, Note_off_c, 0, 64, 48
1, 137431, Note_on_c, 0, 64, 54
1, 137431, Note_on_c, 0, 98, 69
1, 137441, Note_on_c, 0, 52, 30
1, 137441, Note_on_c, 0, 92, 51
1, 137447, Note_on_c, 0, 89, 44
1, 137459, Note_off_c, 0, 98, 68
1, 137459, Note_off_c, 0, 64, 65
1, 137464, Note_off_c, 0, 92, 58
1, 137471, Note_off_c, 0, 89, 51
1, 137481, Note_off_c, 0, 52, 51
1, 137617, Note_on_c, 0, 98, 72
1, 137641, Note_on_c, 0, 74, 56
1, 137644, Note_off_c, 0, 98, 69
1, 137645, Note_on_c, 0, 89, 27
1, 137662, Note_on_c, 0, 83, 30
1, 137665, Note_off_c, 0, 74, 58
1, 137688, Note_off_c, 0, 89, 30
1, 137697, Note_off_c, 0, 83, 46
1, 137789, Note_on_c, 0, 83, 46
1, 137796, Note_on_c, 0, 74, 47
1, 137814, Note_off_c, 0, 83, 55
1, 137825, Note_off_c, 0, 74, 63
1, 137988, Note_on_c, 0, 97, 71
1, 138004, Note_on_c, 0, 91, 42
1, 138006, Note_on_c, 0, 88, 43
1, 138011, Note_on_c, 0, 52, 40
1, 138011, Note_on_c, 0, 64, 39
1, 138018, Note_off_c, 0, 97, 64
1, 138029, Note_off_c, 0, 91, 50
1, 138032, Note_off_c, 0, 88, 54
1, 138042, Note_off_c, 0, 64, 55
1, 138053, Note_off_c, 0, 52, 49
1, 138166, Note_on_c, 0, 52, 38
1, 138168, Note_on_c, 0, 97, 66
1, 138179, Note_on_c, 0, 91, 42
1, 138182, Note_on_c, 0, 88, 41
1, 138187, Note_on_c, 0, 64, 18
1, 138197, Note_off_c, 0, 97, 67
1, 138200, Note_off_c, 0, 52, 46
1, 138206, Note_off_c, 0, 91, 47
1, 138207, Note_off_c, 0, 88, 59
1, 138230, Note_off_c, 0, 64, 53
1, 138353, Note_on_c, 0, 97, 69
1, 138366, Note_on_c, 0, 73, 55
1, 138369, Note_on_c, 0, 82, 56
1, 138372, Note_on_c, 0, 88, 31
1, 138380, Note_off_c, 0, 97, 67
1, 138390, Note_off_c, 0, 73, 60
1, 138399, Note_off_c, 0, 82, 64
1, 138405, Note_off_c, 0, 88, 46
1, 138526, Note_on_c, 0, 82, 47
1, 138535, Note_on_c, 0, 73, 48
1, 138549, Note_off_c, 0, 82, 56
1, 138556, Note_off_c, 0, 73, 63
1, 138730, Note_on_c, 0, 96, 61
1, 138735, Note_on_c, 0, 90, 48
1, 138738, Note_on_c, 0, 52, 34
1, 138742, Note_on_c, 0, 64, 44
1, 138746, Note_on_c, 0, 87, 39
1, 138757, Note_off_c, 0, 90, 56
1, 138760, Note_off_c, 0, 96, 68
1, 138771, Note_off_c, 0, 87, 49
1, 138772, Note_off_c, 0, 64, 56
1, 138776, Note_off_c, 0, 52, 51
1, 138891, Note_on_c, 0, 52, 49
1, 138902, Note_on_c, 0, 64, 49
1, 138906, Note_on_c, 0, 96, 59
1, 138907, Note_on_c, 0, 87, 47
1, 138916, Note_on_c, 0, 90, 37
1, 138918, Note_off_c, 0, 52, 60
1, 138926, Note_off_c, 0, 64, 60
1, 138937, Note_off_c, 0, 87, 65
1, 138938, Note_off_c, 0, 96, 67
1, 138940, Note_off_c, 0, 90, 52
1, 139085, Note_on_c, 0, 96, 61
1, 139091, Note_on_c, 0, 87, 50
1, 139102, Note_on_c, 0, 78, 46
1, 139111, Note_on_c, 0, 81, 37
1, 139114, Note_off_c, 0, 87, 57
1, 139115, Note_off_c, 0, 96, 67
1, 139117, Note_on_c, 0, 72, 15
1, 139126, Note_off_c, 0, 78, 55
1, 139140, Note_off_c, 0, 81, 53
1, 139164, Note_off_c, 0, 72, 28
1, 139242, Note_on_c, 0, 78, 33
1, 139242, Note_on_c, 0, 81, 48
1, 139263, Note_on_c, 0, 72, 42
1, 139272, Note_off_c, 0, 81, 63
1, 139274, Note_off_c, 0, 78, 60
1, 139293, Note_off_c, 0, 72, 50
1, 139428, Note_on_c, 0, 95, 70
1, 139437, Note_on_c, 0, 88, 58
1, 139450, Note_on_c, 0, 71, 59
1, 139457, Note_on_c, 0, 79, 37
1, 139459, Note_off_c, 0, 88, 64
1, 139471, Note_off_c, 0, 95, 63
1, 139477, Note_off_c, 0, 71, 62
1, 139492, Note_off_c, 0, 79, 56
1, 139626, Note_on_c, 0, 100, 64
1, 139647, Note_on_c, 0, 91, 46
1, 139667, Note_off_c, 0, 100, 61
1, 139671, Note_off_c, 0, 91, 49
1, 139811, Note_on_c, 0, 96, 64
1, 139813, Note_on_c, 0, 78, 60
1, 139814, Note_on_c, 0, 72, 51
1, 139826, Note_on_c, 0, 69, 42
1, 139830, Note_on_c, 0, 88, 45
1, 139838, Note_off_c, 0, 96, 69
1, 139842, Note_off_c, 0, 78, 64
1, 139843, Note_off_c, 0, 72, 62
1, 139856, Note_off_c, 0, 69, 56
1, 139856, Note_off_c, 0, 88, 54
1, 139987, Note_on_c, 0, 100, 61
1, 140002, Note_on_c, 0, 93, 39
1, 140021, Note_off_c, 0, 100, 65
1, 140032, Note_off_c, 0, 93, 52
1, 140142, Control_c, 0, 64, 47
1, 140155, Note_on_c, 0, 64, 52
1, 140157, Control_c, 0, 64, 64
1, 140164, Note_on_c, 0, 79, 56
1, 140171, Control_c, 0, 64, 75
1, 140178, Note_on_c, 0, 95, 41
1, 140178, Note_off_c, 0, 64, 59
1, 140186, Control_c, 0, 64, 86
1, 140191, Note_on_c, 0, 71, 22
1, 140193, Note_off_c, 0, 79, 65
1, 140196, Note_on_c, 0, 88, 26
1, 140201, Control_c, 0, 64, 98
1, 140208, Note_off_c, 0, 95, 54
1, 140223, Control_c, 0, 64, 115
1, 140238, Control_c, 0, 64, 127
1, 140241, Note_off_c, 0, 88, 47
1, 140241, Note_off_c, 0, 71, 52
1, 140339, Note_on_c, 0, 71, 62
1, 140351, Note_on_c, 0, 76, 56
1, 140356, Note_on_c, 0, 79, 37
1, 140372, Note_off_c, 0, 71, 64
1, 140384, Note_off_c, 0, 76, 66
1, 140385, Note_off_c, 0, 79, 56
1, 140543, Note_on_c, 0, 64, 61
1, 140578, Control_c, 0, 64, 102
1, 140593, Control_c, 0, 64, 78
1, 140608, Control_c, 0, 64, 61
1, 140618, Note_on_c, 0, 62, 64
1, 140619, Note_off_c, 0, 64, 52
1, 140622, Control_c, 0, 64, 37
1, 140637, Control_c, 0, 64, 0
1, 140655, Note_off_c, 0, 62, 62
1, 140703, Note_on_c, 0, 60, 57
1, 140733, Note_off_c, 0, 60, 66
1, 140776, Note_on_c, 0, 59, 62
1, 140804, Note_off_c, 0, 59, 66
1, 140890, Note_on_c, 0, 58, 56
1, 140890, Control_c, 0, 64, 48
1, 140895, Note_on_c, 0, 46, 51
1, 140905, Control_c, 0, 64, 64
1, 140920, Control_c, 0, 64, 75
1, 140935, Control_c, 0, 64, 86
1, 140950, Control_c, 0, 64, 94
1, 140953, Note_off_c, 0, 46, 53
1, 140972, Control_c, 0, 64, 98
1, 140987, Control_c, 0, 64, 104
1, 141001, Control_c, 0, 64, 110
1, 141005, Note_off_c, 0, 58, 50
1, 141016, Control_c, 0, 64, 121
1, 141031, Control_c, 0, 64, 127
1, 141071, Note_on_c, 0, 58, 45
1, 141102, Note_on_c, 0, 46, 30
1, 141123, Note_off_c, 0, 58, 61
1, 141133, Note_off_c, 0, 46, 54
1, 141253, Control_c, 0, 64, 102
1, 141268, Control_c, 0, 64, 78
1, 141269, Note_on_c, 0, 84, 54
1, 141269, Note_on_c, 0, 91, 65
1, 141282, Control_c, 0, 64, 58
1, 141290, Note_off_c, 0, 84, 60
1, 141296, Note_on_c, 0, 72, 41
1, 141297, Control_c, 0, 64, 0
1, 141298, Note_off_c, 0, 91, 68
1, 141299, Note_on_c, 0, 76, 46
1, 141323, Note_off_c, 0, 76, 58
1, 141324, Note_off_c, 0, 72, 34
1, 141442, Note_on_c, 0, 76, 36
1, 141447, Note_on_c, 0, 88, 69
1, 141454, Note_on_c, 0, 79, 56
1, 141457, Note_on_c, 0, 67, 47
1, 141457, Note_on_c, 0, 72, 32
1, 141470, Note_off_c, 0, 76, 51
1, 141472, Note_off_c, 0, 88, 68
1, 141480, Note_off_c, 0, 79, 65
1, 141481, Note_off_c, 0, 67, 59
1, 141492, Note_off_c, 0, 72, 44
1, 141627, Note_on_c, 0, 84, 67
1, 141629, Note_on_c, 0, 91, 68
1, 141630, Note_on_c, 0, 57, 63
1, 141634, Note_on_c, 0, 45, 54
1, 141650, Note_off_c, 0, 84, 70
1, 141658, Note_off_c, 0, 57, 66
1, 141658, Note_off_c, 0, 91, 68
1, 141659, Note_off_c, 0, 45, 58
1, 141813, Note_on_c, 0, 57, 54
1, 141819, Note_on_c, 0, 45, 39
1, 141845, Note_off_c, 0, 57, 65
1, 141854, Note_off_c, 0, 45, 43
1, 141992, Note_on_c, 0, 90, 74
1, 141999, Note_on_c, 0, 63, 63
1, 142006, Note_on_c, 0, 84, 52
1, 142008, Note_on_c, 0, 87, 47
1, 142008, Note_on_c, 0, 72, 52
1, 142010, Note_on_c, 0, 66, 47
1, 142014, Note_off_c, 0, 90, 69
1, 142025, Note_off_c, 0, 63, 64
1, 142028, Note_off_c, 0, 84, 61
1, 142029, Note_off_c, 0, 72, 61
1, 142030, Note_off_c, 0, 87, 53
1, 142032, Note_off_c, 0, 66, 59
1, 142166, Note_on_c, 0, 72, 53
1, 142168, Note_on_c, 0, 63, 60
1, 142168, Note_on_c, 0, 66, 53
1, 142187, Note_off_c, 0, 72, 62
1, 142197, Note_off_c, 0, 63, 66
1, 142197, Note_off_c, 0, 66, 65
1, 142347, Note_on_c, 0, 96, 68
1, 142351, Note_on_c, 0, 90, 57
1, 142360, Note_on_c, 0, 87, 50
1, 142370, Note_on_c, 0, 55, 42
1, 142370, Note_off_c, 0, 90, 60
1, 142372, Note_off_c, 0, 96, 69
1, 142375, Note_on_c, 0, 43, 23
1, 142382, Note_off_c, 0, 87, 38
1, 142401, Note_off_c, 0, 55, 52
1, 142422, Note_off_c, 0, 43, 29
1, 142522, Note_on_c, 0, 43, 58
1, 142522, Note_on_c, 0, 55, 48
1, 142549, Note_off_c, 0, 43, 62
1, 142562, Note_off_c, 0, 55, 63
1, 142700, Note_on_c, 0, 95, 76
1, 142709, Note_on_c, 0, 88, 62
1, 142721, Note_on_c, 0, 91, 35
1, 142723, Note_on_c, 0, 71, 48
1, 142727, Note_off_c, 0, 95, 67
1, 142727, Note_on_c, 0, 67, 41
1, 142727, Note_off_c, 0, 88, 64
1, 142742, Note_on_c, 0, 76, 29
1, 142748, Note_off_c, 0, 71, 57
1, 142750, Note_off_c, 0, 91, 34
1, 142756, Note_off_c, 0, 67, 55
1, 142779, Note_off_c, 0, 76, 32
1, 142862, Note_on_c, 0, 71, 48
1, 142864, Note_on_c, 0, 67, 49
1, 142864, Note_on_c, 0, 76, 53
1, 142884, Note_off_c, 0, 76, 62
1, 142891, Note_off_c, 0, 71, 64
1, 142898, Note_off_c, 0, 67, 65
1, 143060, Note_on_c, 0, 103, 64
1, 143067, Note_on_c, 0, 100, 49
1, 143070, Note_on_c, 0, 94, 57
1, 143072, Note_on_c, 0, 54, 53
1, 143076, Note_on_c, 0, 42, 48
1, 143089, Note_off_c, 0, 103, 67
1, 143090, Note_off_c, 0, 94, 56
1, 143091, Note_off_c, 0, 100, 56
1, 143094, Note_off_c, 0, 54, 59
1, 143108, Note_off_c, 0, 42, 53
1, 143239, Note_on_c, 0, 42, 43
1, 143243, Note_on_c, 0, 54, 48
1, 143248, Note_on_c, 0, 103, 63
1, 143251, Note_on_c, 0, 94, 56
1, 143257, Note_on_c, 0, 100, 47
1, 143270, Note_off_c, 0, 54, 63
1, 143273, Note_off_c, 0, 94, 64
1, 143274, Note_off_c, 0, 42, 50
1, 143279, Note_off_c, 0, 103, 64
1, 143284, Note_off_c, 0, 100, 52
1, 143424, Note_on_c, 0, 76, 57
1, 143427, Note_on_c, 0, 103, 66
1, 143430, Note_on_c, 0, 70, 48
1, 143434, Note_on_c, 0, 79, 44
1, 143444, Note_on_c, 0, 94, 47
1, 143444, Note_off_c, 0, 76, 61
1, 143453, Note_off_c, 0, 103, 68
1, 143457, Note_off_c, 0, 70, 54
1, 143457, Note_off_c, 0, 79, 60
1, 143471, Note_off_c, 0, 94, 53
1, 143600, Note_on_c, 0, 79, 33
1, 143603, Note_on_c, 0, 70, 47
1, 143630, Note_off_c, 0, 70, 58
1, 143631, Note_off_c, 0, 79, 51
1, 143776, Note_on_c, 0, 102, 70
1, 143787, Note_on_c, 0, 66, 54
1, 143790, Note_on_c, 0, 98, 43
1, 143794, Note_on_c, 0, 54, 33
1, 143794, Note_on_c, 0, 95, 46
1, 143806, Note_off_c, 0, 102, 66
1, 143812, Note_off_c, 0, 66, 64
1, 143818, Note_off_c, 0, 98, 51
1, 143821, Note_off_c, 0, 95, 52
1, 143830, Note_off_c, 0, 54, 31
1, 143934, Note_on_c, 0, 54, 50
1, 143949, Note_on_c, 0, 102, 75
1, 143950, Note_on_c, 0, 66, 49
1, 143965, Note_off_c, 0, 54, 62
1, 143968, Note_on_c, 0, 95, 60
1, 143984, Note_off_c, 0, 102, 66
1, 143992, Note_off_c, 0, 66, 66
1, 143994, Note_off_c, 0, 95, 68
1, 143996, Note_on_c, 0, 98, 7
1, 144032, Note_off_c, 0, 98, 30
1, 144137, Note_on_c, 0, 102, 77
1, 144140, Note_on_c, 0, 98, 60
1, 144143, Note_on_c, 0, 74, 57
1, 144145, Note_on_c, 0, 80, 59
1, 144146, Note_on_c, 0, 78, 48
1, 144151, Note_on_c, 0, 95, 54
1, 144161, Note_off_c, 0, 102, 70
1, 144162, Note_off_c, 0, 98, 65
1, 144172, Note_off_c, 0, 80, 69
1, 144172, Note_off_c, 0, 78, 57
1, 144172, Note_off_c, 0, 95, 60
1, 144173, Note_off_c, 0, 74, 59
1, 144292, Note_on_c, 0, 78, 58
1, 144300, Note_on_c, 0, 74, 55
1, 144303, Note_on_c, 0, 80, 47
1, 144321, Note_off_c, 0, 78, 64
1, 144323, Note_off_c, 0, 74, 64
1, 144324, Note_off_c, 0, 80, 59
1, 144485, Note_on_c, 0, 97, 65
1, 144489, Note_on_c, 0, 54, 50
1, 144497, Note_on_c, 0, 66, 51
1, 144503, Note_on_c, 0, 100, 42
1, 144506, Note_on_c, 0, 94, 39
1, 144513, Note_off_c, 0, 97, 65
1, 144515, Note_off_c, 0, 54, 60
1, 144521, Note_off_c, 0, 66, 62
1, 144532, Note_off_c, 0, 100, 49
1, 144537, Note_off_c, 0, 94, 44
1, 144649, Note_on_c, 0, 54, 54
1, 144653, Note_on_c, 0, 66, 60
1, 144657, Note_on_c, 0, 97, 63
1, 144662, Note_on_c, 0, 100, 46
1, 144674, Note_off_c, 0, 54, 64
1, 144675, Note_on_c, 0, 94, 41
1, 144685, Note_off_c, 0, 66, 66
1, 144688, Note_off_c, 0, 97, 66
1, 144697, Note_off_c, 0, 100, 50
1, 144712, Note_off_c, 0, 94, 46
1, 144837, Note_on_c, 0, 100, 69
1, 144842, Note_on_c, 0, 97, 61
1, 144846, Note_on_c, 0, 94, 56
1, 144849, Note_on_c, 0, 73, 54
1, 144855, Note_on_c, 0, 82, 57
1, 144860, Note_on_c, 0, 78, 50
1, 144860, Note_off_c, 0, 97, 62
1, 144864, Note_off_c, 0, 100, 68
1, 144865, Note_off_c, 0, 94, 60
1, 144872, Note_off_c, 0, 73, 60
1, 144874, Note_off_c, 0, 82, 65
1, 144883, Note_off_c, 0, 78, 59
1, 145007, Note_on_c, 0, 82, 57
1, 145009, Note_on_c, 0, 78, 52
1, 145022, Note_on_c, 0, 73, 41
1, 145035, Note_off_c, 0, 82, 67
1, 145040, Note_off_c, 0, 78, 64
1, 145046, Note_off_c, 0, 73, 62
1, 145183, Note_on_c, 0, 59, 65
1, 145200, Note_on_c, 0, 99, 61
1, 145201, Note_on_c, 0, 95, 60
1, 145210, Note_off_c, 0, 59, 65
1, 145222, Note_off_c, 0, 95, 62
1, 145235, Note_off_c, 0, 99, 64
1, 145379, Note_on_c, 0, 102, 69
1, 145401, Note_on_c, 0, 90, 44
1, 145423, Note_off_c, 0, 102, 58
1, 145425, Note_off_c, 0, 90, 56
1, 145560, Note_on_c, 0, 66, 57
1, 145564, Note_on_c, 0, 70, 58
1, 145568, Note_on_c, 0, 100, 64
1, 145569, Note_on_c, 0, 94, 47
1, 145579, Note_off_c, 0, 66, 63
1, 145584, Note_off_c, 0, 70, 65
1, 145594, Note_off_c, 0, 94, 52
1, 145606, Note_off_c, 0, 100, 60
1, 145741, Note_on_c, 0, 102, 63
1, 145764, Note_on_c, 0, 90, 40
1, 145781, Note_off_c, 0, 102, 61
1, 145791, Note_off_c, 0, 90, 50
1, 145894, Control_c, 0, 64, 45
1, 145908, Control_c, 0, 64, 64
1, 145923, Control_c, 0, 64, 76
1, 145928, Note_on_c, 0, 99, 63
1, 145937, Note_on_c, 0, 59, 52
1, 145938, Control_c, 0, 64, 92
1, 145941, Note_on_c, 0, 71, 55
1, 145953, Control_c, 0, 64, 114
1, 145954, Note_on_c, 0, 90, 25
1, 145955, Note_on_c, 0, 95, 22
1, 145958, Note_off_c, 0, 99, 65
1, 145967, Note_off_c, 0, 71, 61
1, 145968, Control_c, 0, 64, 127
1, 145977, Note_off_c, 0, 59, 61
1, 145990, Note_off_c, 0, 90, 41
1, 145994, Note_off_c, 0, 95, 45
1, 146120, Note_on_c, 0, 63, 36
1, 146152, Note_off_c, 0, 63, 53
1, 146169, Poly_aftertouch_c, 0, 66, 0
1, 146190, Poly_aftertouch_c, 0, 66, 0
1, 146315, Note_on_c, 0, 59, 61
1, 146375, Control_c, 0, 64, 97
1, 146377, Note_off_c, 0, 59, 56
1, 146382, Note_on_c, 0, 57, 61
1, 146390, Control_c, 0, 64, 68
1, 146405, Control_c, 0, 64, 42
1, 146419, Note_off_c, 0, 57, 65
1, 146420, Control_c, 0, 64, 0
1, 146451, Note_on_c, 0, 55, 53
1, 146485, Note_off_c, 0, 55, 64
1, 146532, Note_on_c, 0, 54, 54
1, 146559, Note_off_c, 0, 54, 64
1, 146654, Note_on_c, 0, 52, 51
1, 146657, Control_c, 0, 64, 35
1, 146658, Note_on_c, 0, 40, 44
1, 146672, Control_c, 0, 64, 57
1, 146687, Control_c, 0, 64, 71
1, 146702, Control_c, 0, 64, 91
1, 146712, Note_off_c, 0, 40, 42
1, 146717, Control_c, 0, 64, 127
1, 146733, Note_off_c, 0, 52, 51
1, 146828, Note_on_c, 0, 40, 42
1, 146842, Note_on_c, 0, 52, 26
1, 146862, Note_off_c, 0, 40, 49
1, 146879, Note_off_c, 0, 52, 55
1, 147005, Control_c, 0, 64, 106
1, 147020, Control_c, 0, 64, 74
1, 147024, Note_on_c, 0, 103, 69
1, 147035, Control_c, 0, 64, 50
1, 147045, Note_on_c, 0, 95, 34
1, 147049, Note_on_c, 0, 71, 47
1, 147050, Control_c, 0, 64, 0
1, 147054, Note_off_c, 0, 103, 67
1, 147058, Note_on_c, 0, 79, 38
1, 147077, Note_off_c, 0, 71, 55
1, 147077, Note_off_c, 0, 95, 48
1, 147086, Note_off_c, 0, 79, 56
1, 147192, Note_on_c, 0, 100, 75
1, 147198, Note_on_c, 0, 79, 40
1, 147205, Note_on_c, 0, 91, 60
1, 147208, Note_on_c, 0, 76, 52
1, 147225, Note_off_c, 0, 91, 63
1, 147226, Note_off_c, 0, 79, 56
1, 147226, Note_off_c, 0, 100, 61
1, 147231, Note_off_c, 0, 76, 60
1, 147377, Note_on_c, 0, 103, 71
1, 147391, Note_on_c, 0, 64, 53
1, 147393, Note_on_c, 0, 52, 44
1, 147398, Note_on_c, 0, 95, 33
1, 147404, Note_off_c, 0, 103, 68
1, 147416, Note_off_c, 0, 64, 64
1, 147426, Note_off_c, 0, 52, 53
1, 147433, Note_off_c, 0, 95, 33
1, 147579, Note_on_c, 0, 52, 4
1, 147633, Note_off_c, 0, 52, 51
1, 147740, Note_on_c, 0, 102, 74
1, 147753, Note_on_c, 0, 93, 57
1, 147758, Note_on_c, 0, 96, 40
1, 147764, Note_off_c, 0, 102, 69
1, 147771, Note_on_c, 0, 72, 39
1, 147773, Note_off_c, 0, 93, 58
1, 147774, Note_on_c, 0, 76, 30
1, 147779, Note_on_c, 0, 81, 35
1, 147787, Note_off_c, 0, 96, 54
1, 147800, Note_off_c, 0, 72, 50
1, 147809, Note_off_c, 0, 76, 51
1, 147810, Note_off_c, 0, 81, 33
1, 147900, Note_on_c, 0, 76, 61
1, 147909, Note_on_c, 0, 81, 46
1, 147912, Note_on_c, 0, 72, 37
1, 147928, Note_off_c, 0, 76, 68
1, 147932, Note_off_c, 0, 81, 58
1, 147942, Note_off_c, 0, 72, 56
1, 148092, Note_on_c, 0, 99, 74
1, 148097, Note_on_c, 0, 93, 57
1, 148098, Note_on_c, 0, 90, 58
1, 148107, Note_on_c, 0, 52, 39
1, 148115, Note_on_c, 0, 64, 34
1, 148115, Note_off_c, 0, 90, 63
1, 148117, Note_off_c, 0, 93, 58
1, 148122, Note_off_c, 0, 99, 64
1, 148143, Note_off_c, 0, 52, 51
1, 148147, Note_off_c, 0, 64, 53
1, 148262, Note_on_c, 0, 52, 46
1, 148266, Note_on_c, 0, 64, 45
1, 148290, Note_off_c, 0, 52, 56
1, 148297, Note_off_c, 0, 64, 60
1, 148456, Note_on_c, 0, 100, 73
1, 148460, Note_on_c, 0, 79, 59
1, 148460, Note_on_c, 0, 94, 61
1, 148468, Note_on_c, 0, 91, 54
1, 148471, Note_on_c, 0, 82, 57
1, 148478, Note_off_c, 0, 94, 63
1, 148480, Note_on_c, 0, 73, 38
1, 148483, Note_off_c, 0, 100, 69
1, 148489, Note_off_c, 0, 91, 58
1, 148498, Note_off_c, 0, 82, 64
1, 148507, Note_off_c, 0, 79, 53
1, 148510, Note_off_c, 0, 73, 54
1, 148627, Note_on_c, 0, 73, 57
1, 148644, Note_on_c, 0, 82, 31
1, 148657, Note_off_c, 0, 73, 67
1, 148675, Note_off_c, 0, 82, 32
1, 148811, Note_on_c, 0, 98, 69
1, 148817, Note_on_c, 0, 92, 59
1, 148819, Note_on_c, 0, 52, 53
1, 148823, Note_on_c, 0, 89, 50
1, 148834, Note_off_c, 0, 92, 63
1, 148836, Note_on_c, 0, 64, 28
1, 148839, Note_off_c, 0, 98, 68
1, 148846, Note_off_c, 0, 89, 55
1, 148846, Note_off_c, 0, 52, 63
1, 148873, Note_off_c, 0, 64, 51
1, 148975, Note_on_c, 0, 64, 63
1, 148981, Note_on_c, 0, 98, 74
1, 148986, Note_on_c, 0, 92, 63
1, 148987, Note_on_c, 0, 52, 35
1, 148994, Note_on_c, 0, 89, 42
1, 149004, Note_off_c, 0, 92, 66
1, 149007, Note_off_c, 0, 64, 67
1, 149016, Note_off_c, 0, 98, 62
1, 149020, Note_off_c, 0, 89, 52
1, 149025, Note_off_c, 0, 52, 53
1, 149141, Control_c, 0, 64, 29
1, 149159, Note_on_c, 0, 98, 79
1, 149160, Note_on_c, 0, 80, 70
1, 149167, Note_on_c, 0, 74, 62
1, 149175, Note_on_c, 0, 83, 52
1, 149175, Note_on_c, 0, 92, 49
1, 149178, Note_on_c, 0, 89, 42
1, 149183, Note_off_c, 0, 98, 69
1, 149186, Note_off_c, 0, 80, 65
1, 149189, Note_off_c, 0, 74, 65
1, 149204, Note_off_c, 0, 83, 59
1, 149208, Note_off_c, 0, 92, 57
1, 149216, Note_off_c, 0, 89, 34
1, 149296, Control_c, 0, 64, 32
1, 149311, Control_c, 0, 64, 33
1, 149324, Note_on_c, 0, 74, 56
1, 149326, Note_on_c, 0, 83, 51
1, 149338, Note_on_c, 0, 80, 53
1, 149347, Note_off_c, 0, 83, 64
1, 149360, Note_off_c, 0, 74, 66
1, 149365, Note_off_c, 0, 80, 66
1, 149514, Note_on_c, 0, 52, 58
1, 149517, Note_on_c, 0, 97, 67
1, 149520, Note_on_c, 0, 91, 57
1, 149527, Note_on_c, 0, 88, 45
1, 149538, Note_off_c, 0, 91, 61
1, 149541, Note_on_c, 0, 64, 28
1, 149543, Note_off_c, 0, 52, 64
1, 149544, Note_off_c, 0, 97, 67
1, 149553, Note_off_c, 0, 88, 54
1, 149577, Note_off_c, 0, 64, 53
1, 149674, Note_on_c, 0, 64, 57
1, 149676, Note_on_c, 0, 97, 70
1, 149677, Note_on_c, 0, 52, 48
1, 149678, Note_on_c, 0, 91, 54
1, 149690, Note_on_c, 0, 88, 32
1, 149702, Note_off_c, 0, 64, 66
1, 149704, Note_off_c, 0, 97, 67
1, 149705, Note_off_c, 0, 91, 68
1, 149706, Note_off_c, 0, 52, 53
1, 149717, Note_off_c, 0, 88, 53
1, 149786, Control_c, 0, 64, 33
1, 149851, Note_on_c, 0, 97, 74
1, 149853, Note_on_c, 0, 88, 60
1, 149862, Note_on_c, 0, 91, 58
1, 149872, Note_on_c, 0, 73, 53
1, 149875, Note_on_c, 0, 79, 38
1, 149875, Note_on_c, 0, 82, 55
1, 149877, Note_off_c, 0, 97, 67
1, 149878, Note_off_c, 0, 88, 70
1, 149881, Note_off_c, 0, 91, 60
1, 149895, Note_off_c, 0, 82, 60
1, 149896, Note_off_c, 0, 73, 62
1, 149904, Note_off_c, 0, 79, 56
1, 149986, Control_c, 0, 64, 34
1, 150000, Control_c, 0, 64, 34
1, 150015, Control_c, 0, 64, 35
1, 150021, Note_on_c, 0, 82, 49
1, 150027, Note_on_c, 0, 73, 48
1, 150043, Note_on_c, 0, 79, 7
1, 150044, Note_off_c, 0, 82, 63
1, 150063, Note_off_c, 0, 73, 65
1, 150095, Note_off_c, 0, 79, 38
1, 150179, Control_c, 0, 64, 35
1, 150216, Note_on_c, 0, 52, 57
1, 150223, Note_on_c, 0, 90, 46
1, 150223, Note_on_c, 0, 96, 50
1, 150226, Note_on_c, 0, 87, 48
1, 150233, Note_on_c, 0, 64, 41
1, 150245, Note_off_c, 0, 90, 54
1, 150245, Note_off_c, 0, 96, 63
1, 150246, Note_off_c, 0, 52, 64
1, 150247, Note_off_c, 0, 87, 60
1, 150261, Note_off_c, 0, 64, 56
1, 150373, Note_on_c, 0, 52, 56
1, 150376, Note_on_c, 0, 64, 47
1, 150378, Note_on_c, 0, 96, 61
1, 150388, Note_on_c, 0, 87, 44
1, 150392, Note_on_c, 0, 90, 38
1, 150399, Note_off_c, 0, 52, 59
1, 150404, Note_off_c, 0, 64, 63
1, 150411, Note_off_c, 0, 87, 60
1, 150415, Note_off_c, 0, 90, 52
1, 150420, Note_off_c, 0, 96, 58
1, 150445, Control_c, 0, 64, 35
1, 150535, Control_c, 0, 64, 35
1, 150566, Note_on_c, 0, 96, 58
1, 150569, Note_on_c, 0, 78, 60
1, 150572, Note_on_c, 0, 72, 52
1, 150578, Note_on_c, 0, 81, 49
1, 150580, Note_on_c, 0, 87, 29
1, 150590, Note_off_c, 0, 96, 65
1, 150594, Control_c, 0, 64, 34
1, 150596, Note_off_c, 0, 72, 56
1, 150599, Note_off_c, 0, 78, 60
1, 150600, Note_off_c, 0, 81, 61
1, 150606, Note_off_c, 0, 87, 35
1, 150609, Control_c, 0, 64, 34
1, 150623, Control_c, 0, 64, 33
1, 150638, Control_c, 0, 64, 30
1, 150653, Control_c, 0, 64, 0
1, 150733, Note_on_c, 0, 72, 41
1, 150738, Note_on_c, 0, 81, 41
1, 150760, Note_off_c, 0, 72, 56
1, 150769, Note_off_c, 0, 81, 57
1, 150909, Note_on_c, 0, 95, 66
1, 150916, Note_on_c, 0, 79, 51
1, 150918, Note_on_c, 0, 71, 54
1, 150921, Note_on_c, 0, 88, 52
1, 150937, Note_off_c, 0, 79, 62
1, 150944, Note_off_c, 0, 88, 60
1, 150945, Note_off_c, 0, 95, 61
1, 150953, Note_off_c, 0, 71, 52
1, 151091, Note_on_c, 0, 100, 60
1, 151112, Note_on_c, 0, 91, 26
1, 151125, Note_off_c, 0, 100, 63
1, 151146, Note_off_c, 0, 91, 32
1, 151264, Note_on_c, 0, 78, 58
1, 151266, Note_on_c, 0, 72, 54
1, 151266, Note_on_c, 0, 96, 64
1, 151267, Note_on_c, 0, 69, 51
1, 151291, Note_on_c, 0, 88, 33
1, 151291, Note_off_c, 0, 96, 67
1, 151296, Note_off_c, 0, 78, 62
1, 151300, Note_off_c, 0, 72, 64
1, 151307, Note_off_c, 0, 69, 59
1, 151321, Note_off_c, 0, 88, 47
1, 151434, Note_on_c, 0, 100, 62
1, 151473, Note_off_c, 0, 100, 65
1, 151527, Poly_aftertouch_c, 0, 93, 0
1, 151587, Control_c, 0, 64, 34
1, 151602, Control_c, 0, 64, 55
1, 151617, Control_c, 0, 64, 68
1, 151619, Note_on_c, 0, 79, 55
1, 151629, Note_on_c, 0, 64, 16
1, 151630, Note_on_c, 0, 88, 48
1, 151631, Note_on_c, 0, 95, 35
1, 151632, Control_c, 0, 64, 77
1, 151647, Control_c, 0, 64, 88
1, 151651, Note_off_c, 0, 79, 62
1, 151654, Note_off_c, 0, 88, 59
1, 151661, Control_c, 0, 64, 98
1, 151663, Note_off_c, 0, 95, 54
1, 151675, Note_off_c, 0, 64, 51
1, 151676, Control_c, 0, 64, 113
1, 151691, Control_c, 0, 64, 127
1, 151783, Note_on_c, 0, 79, 45
1, 151784, Note_on_c, 0, 71, 56
1, 151793, Note_on_c, 0, 76, 53
1, 151806, Note_off_c, 0, 79, 59
1, 151818, Note_off_c, 0, 71, 62
1, 151830, Note_off_c, 0, 76, 65
1, 151996, Note_on_c, 0, 67, 46
1, 152031, Control_c, 0, 64, 106
1, 152045, Control_c, 0, 64, 89
1, 152052, Note_on_c, 0, 66, 69
1, 152060, Control_c, 0, 64, 77
1, 152076, Note_off_c, 0, 67, 48
1, 152076, Control_c, 0, 64, 68
1, 152091, Control_c, 0, 64, 60
1, 152106, Control_c, 0, 64, 53
1, 152121, Control_c, 0, 64, 51
1, 152136, Control_c, 0, 64, 49
1, 152137, Note_off_c, 0, 66, 59
1, 152141, Note_on_c, 0, 64, 62
1, 152150, Control_c, 0, 64, 46
1, 152165, Control_c, 0, 64, 42
1, 152180, Control_c, 0, 64, 38
1, 152202, Control_c, 0, 64, 33
1, 152203, Note_off_c, 0, 64, 63
1, 152217, Control_c, 0, 64, 29
1, 152226, Note_on_c, 0, 62, 63
1, 152232, Control_c, 0, 64, 0
1, 152259, Note_off_c, 0, 62, 62
1, 152390, Note_on_c, 0, 61, 44
1, 152395, Note_on_c, 0, 58, 49
1, 152404, Note_on_c, 0, 54, 47
1, 152409, Control_c, 0, 64, 46
1, 152424, Control_c, 0, 64, 71
1, 152430, Note_off_c, 0, 61, 45
1, 152439, Control_c, 0, 64, 95
1, 152440, Note_off_c, 0, 54, 64
1, 152444, Note_off_c, 0, 58, 63
1, 152454, Control_c, 0, 64, 127
1, 152729, Note_on_c, 0, 66, 65
1, 152793, Note_off_c, 0, 66, 64
1, 152806, Note_on_c, 0, 73, 60
1, 152825, Control_c, 0, 67, 107
1, 152840, Control_c, 0, 67, 84
1, 152848, Note_on_c, 0, 100, 72
1, 152855, Control_c, 0, 67, 61
1, 152858, Note_off_c, 0, 73, 62
1, 152859, Note_on_c, 0, 94, 63
1, 152871, Control_c, 0, 67, 40
1, 152881, Note_off_c, 0, 94, 64
1, 152886, Control_c, 0, 67, 0
1, 152889, Note_on_c, 0, 76, 62
1, 152891, Note_off_c, 0, 100, 61
1, 152919, Note_off_c, 0, 76, 67
1, 152983, Note_on_c, 0, 78, 70
1, 152996, Note_on_c, 0, 97, 77
1, 153018, Note_on_c, 0, 88, 55
1, 153018, Note_off_c, 0, 78, 60
1, 153040, Note_off_c, 0, 88, 61
1, 153050, Note_off_c, 0, 97, 62
1, 153053, Note_on_c, 0, 82, 67
1, 153084, Note_off_c, 0, 82, 64
1, 153139, Note_on_c, 0, 85, 74
1, 153161, Note_on_c, 0, 100, 72
1, 153161, Note_off_c, 0, 85, 65
1, 153178, Note_off_c, 0, 100, 65
1, 153233, Control_c, 0, 67, 34
1, 153248, Control_c, 0, 67, 51
1, 153263, Control_c, 0, 67, 61
1, 153278, Control_c, 0, 67, 73
1, 153293, Control_c, 0, 67, 102
1, 153307, Control_c, 0, 67, 127
1, 153500, Control_c, 0, 64, 96
1, 153514, Control_c, 0, 64, 78
1, 153529, Control_c, 0, 64, 64
1, 153544, Note_on_c, 0, 99, 81
1, 153544, Control_c, 0, 64, 50
1, 153553, Note_on_c, 0, 90, 58
1, 153555, Note_on_c, 0, 66, 63
1, 153559, Note_on_c, 0, 59, 52
1, 153559, Control_c, 0, 64, 40
1, 153560, Note_on_c, 0, 87, 49
1, 153567, Note_off_c, 0, 99, 69
1, 153571, Note_off_c, 0, 90, 61
1, 153574, Control_c, 0, 64, 32
1, 153583, Note_off_c, 0, 87, 38
1, 153589, Note_off_c, 0, 66, 63
1, 153589, Control_c, 0, 64, 0
1, 153601, Note_off_c, 0, 59, 59
1, 153643, Note_on_c, 0, 64, 60
1, 153732, Note_off_c, 0, 64, 63
1, 153745, Note_on_c, 0, 63, 63
1, 153775, Note_off_c, 0, 63, 65
1, 153840, Note_on_c, 0, 61, 59
1, 153871, Note_off_c, 0, 61, 65
1, 153997, Control_c, 0, 64, 41
1, 154012, Control_c, 0, 64, 57
1, 154014, Note_on_c, 0, 68, 56
1, 154024, Note_on_c, 0, 59, 58
1, 154024, Note_on_c, 0, 62, 44
1, 154027, Control_c, 0, 64, 69
1, 154031, Note_on_c, 0, 52, 49
1, 154041, Control_c, 0, 64, 79
1, 154045, Note_off_c, 0, 68, 66
1, 154051, Note_off_c, 0, 62, 55
1, 154056, Control_c, 0, 64, 94
1, 154057, Note_off_c, 0, 59, 65
1, 154060, Note_off_c, 0, 52, 63
1, 154071, Control_c, 0, 64, 104
1, 154086, Control_c, 0, 64, 127
1, 154283, Note_on_c, 0, 64, 61
1, 154340, Note_off_c, 0, 64, 62
1, 154361, Note_on_c, 0, 71, 65
1, 154410, Note_off_c, 0, 71, 59
1, 154414, Note_on_c, 0, 98, 76
1, 154451, Note_off_c, 0, 98, 64
1, 154456, Note_on_c, 0, 74, 69
1, 154479, Control_c, 0, 67, 120
1, 154488, Note_off_c, 0, 74, 64
1, 154494, Control_c, 0, 67, 99
1, 154509, Control_c, 0, 67, 78
1, 154524, Control_c, 0, 67, 61
1, 154539, Control_c, 0, 67, 40
1, 154551, Note_on_c, 0, 76, 60
1, 154553, Control_c, 0, 67, 0
1, 154562, Note_on_c, 0, 95, 79
1, 154589, Note_off_c, 0, 76, 64
1, 154600, Note_off_c, 0, 95, 64
1, 154611, Note_on_c, 0, 80, 68
1, 154646, Note_off_c, 0, 80, 61
1, 154699, Note_on_c, 0, 83, 87
1, 154716, Note_off_c, 0, 83, 72
1, 154725, Note_on_c, 0, 98, 69
1, 154746, Note_off_c, 0, 98, 65
1, 154864, Control_c, 0, 67, 36
1, 154879, Control_c, 0, 67, 76
1, 154894, Control_c, 0, 67, 90
1, 154923, Control_c, 0, 67, 95
1, 154938, Control_c, 0, 67, 113
1, 154953, Control_c, 0, 67, 127
1, 155094, Note_on_c, 0, 97, 74
1, 155100, Note_on_c, 0, 88, 58
1, 155112, Note_on_c, 0, 85, 43
1, 155112, Note_on_c, 0, 64, 46
1, 155118, Note_off_c, 0, 88, 64
1, 155118, Note_on_c, 0, 57, 37
1, 155119, Note_off_c, 0, 97, 68
1, 155130, Control_c, 0, 64, 92
1, 155138, Note_off_c, 0, 85, 52
1, 155139, Note_off_c, 0, 64, 59
1, 155145, Control_c, 0, 64, 69
1, 155152, Note_off_c, 0, 57, 53
1, 155160, Control_c, 0, 64, 48
1, 155175, Control_c, 0, 64, 0
1, 155200, Note_on_c, 0, 62, 59
1, 155282, Note_off_c, 0, 62, 59
1, 155301, Note_on_c, 0, 61, 49
1, 155326, Note_off_c, 0, 61, 59
1, 155396, Note_on_c, 0, 59, 42
1, 155437, Note_off_c, 0, 59, 50
1, 155568, Note_on_c, 0, 66, 53
1, 155569, Control_c, 0, 64, 45
1, 155584, Control_c, 0, 64, 64
1, 155586, Note_on_c, 0, 57, 46
1, 155591, Note_on_c, 0, 50, 42
1, 155599, Control_c, 0, 64, 72
1, 155600, Note_on_c, 0, 60, 28
1, 155601, Note_off_c, 0, 66, 66
1, 155611, Note_off_c, 0, 57, 60
1, 155613, Control_c, 0, 64, 80
1, 155623, Note_off_c, 0, 50, 51
1, 155628, Control_c, 0, 64, 87
1, 155637, Note_off_c, 0, 60, 56
1, 155643, Control_c, 0, 64, 95
1, 155658, Control_c, 0, 64, 107
1, 155673, Control_c, 0, 64, 127
1, 155907, Note_on_c, 0, 69, 51
1, 155970, Note_on_c, 0, 96, 73
1, 155974, Note_off_c, 0, 69, 62
1, 155982, Note_on_c, 0, 90, 47
1, 156003, Note_off_c, 0, 90, 57
1, 156006, Note_off_c, 0, 96, 59
1, 156015, Note_on_c, 0, 72, 63
1, 156041, Note_off_c, 0, 72, 64
1, 156108, Note_on_c, 0, 74, 63
1, 156117, Note_on_c, 0, 93, 79
1, 156143, Note_off_c, 0, 74, 63
1, 156167, Note_off_c, 0, 93, 62
1, 156174, Note_on_c, 0, 78, 70
1, 156195, Poly_aftertouch_c, 0, 84, 127
1, 156215, Poly_aftertouch_c, 0, 84, 0
1, 156220, Note_off_c, 0, 78, 58
1, 156286, Note_on_c, 0, 81, 61
1, 156300, Note_on_c, 0, 96, 73
1, 156304, Note_off_c, 0, 81, 66
1, 156325, Note_off_c, 0, 96, 70
1, 156382, Poly_aftertouch_c, 0, 90, 0
1, 156619, Note_on_c, 0, 95, 69
1, 156624, Note_on_c, 0, 86, 66
1, 156627, Note_on_c, 0, 62, 62
1, 156635, Note_on_c, 0, 55, 49
1, 156663, Note_off_c, 0, 55, 56
1, 156671, Note_off_c, 0, 62, 57
1, 156672, Control_c, 0, 64, 90
1, 156673, Note_off_c, 0, 86, 51
1, 156690, Note_off_c, 0, 95, 65
1, 156694, Control_c, 0, 64, 71
1, 156709, Control_c, 0, 64, 50
1, 156724, Control_c, 0, 64, 0
1, 156727, Note_on_c, 0, 84, 73
1, 156775, Note_off_c, 0, 84, 61
1, 156824, Note_on_c, 0, 83, 67
1, 156871, Note_off_c, 0, 83, 58
1, 156909, Note_on_c, 0, 81, 62
1, 156950, Note_off_c, 0, 81, 61
1, 156972, Note_on_c, 0, 79, 63
1, 156980, Note_on_c, 0, 83, 65
1, 156982, Note_on_c, 0, 86, 69
1, 157004, Note_off_c, 0, 83, 67
1, 157008, Note_off_c, 0, 86, 66
1, 157015, Note_off_c, 0, 79, 62
1, 157054, Note_on_c, 0, 81, 63
1, 157090, Note_off_c, 0, 81, 59
1, 157130, Note_on_c, 0, 79, 63
1, 157188, Note_off_c, 0, 79, 58
1, 157189, Note_on_c, 0, 74, 52
1, 157278, Note_on_c, 0, 71, 40
1, 157297, Note_on_c, 0, 83, 70
1, 157297, Note_off_c, 0, 74, 60
1, 157309, Note_off_c, 0, 71, 58
1, 157315, Note_on_c, 0, 75, 64
1, 157327, Note_off_c, 0, 83, 59
1, 157365, Note_off_c, 0, 75, 62
1, 157378, Note_on_c, 0, 87, 65
1, 157405, Note_on_c, 0, 81, 42
1, 157423, Note_off_c, 0, 87, 55
1, 157440, Note_off_c, 0, 81, 56
1, 157465, Note_on_c, 0, 90, 62
1, 157505, Note_on_c, 0, 79, 40
1, 157515, Note_off_c, 0, 90, 59
1, 157533, Note_on_c, 0, 95, 67
1, 157563, Note_off_c, 0, 95, 67
1, 157567, Note_off_c, 0, 79, 60
1, 157580, Note_on_c, 0, 78, 55
1, 157609, Note_off_c, 0, 78, 64
1, 157649, Note_on_c, 0, 76, 68
1, 157660, Note_on_c, 0, 79, 47
1, 157667, Note_off_c, 0, 76, 67
1, 157670, Note_on_c, 0, 100, 56
1, 157670, Note_off_c, 0, 100, 127
1, 157682, Control_c, 0, 64, 48
1, 157685, Note_off_c, 0, 79, 36
1, 157696, Control_c, 0, 64, 64
1, 157711, Control_c, 0, 64, 70
1, 157726, Control_c, 0, 64, 75
1, 157740, Control_c, 0, 64, 82
1, 157755, Control_c, 0, 64, 96
1, 157770, Control_c, 0, 64, 127
1, 158049, Note_on_c, 0, 40, 35
1, 158115, Note_off_c, 0, 40, 40
1, 158132, Note_on_c, 0, 47, 33
1, 158134, Note_on_c, 0, 64, 36
1, 158190, Note_off_c, 0, 47, 46
1, 158206, Note_off_c, 0, 64, 64
1, 158221, Note_on_c, 0, 67, 31
1, 158239, Note_on_c, 0, 55, 42
1, 158272, Note_off_c, 0, 55, 61
1, 158278, Note_on_c, 0, 71, 47
1, 158279, Note_off_c, 0, 67, 51
1, 158329, Note_off_c, 0, 71, 57
1, 158338, Note_on_c, 0, 76, 59
1, 158368, Note_off_c, 0, 76, 66
1, 158519, Control_c, 0, 64, 123
1, 158534, Control_c, 0, 64, 99
1, 158549, Control_c, 0, 64, 85
1, 158563, Control_c, 0, 64, 75
1, 158578, Control_c, 0, 64, 67
1, 158593, Control_c, 0, 64, 60
1, 158608, Control_c, 0, 64, 55
1, 158623, Control_c, 0, 64, 54
1, 158637, Control_c, 0, 64, 52
1, 158652, Control_c, 0, 64, 50
1, 158667, Control_c, 0, 64, 47
1, 158682, Control_c, 0, 64, 43
1, 158697, Control_c, 0, 64, 40
1, 158726, Control_c, 0, 64, 40
1, 158741, Control_c, 0, 64, 39
1, 158755, Control_c, 0, 64, 39
1, 158830, Control_c, 0, 64, 38
1, 159015, Control_c, 0, 64, 39
1, 159030, Control_c, 0, 64, 39
1, 159044, Control_c, 0, 64, 40
1, 159133, Control_c, 0, 64, 40
1, 159193, Control_c, 0, 64, 41
1, 159208, Control_c, 0, 64, 41
1, 159223, Control_c, 0, 64, 42
1, 159268, Control_c, 0, 64, 42
1, 159342, Control_c, 0, 64, 43
1, 159357, Control_c, 0, 64, 43
1, 159490, Control_c, 0, 64, 44
1, 159519, Control_c, 0, 64, 44
1, 159593, Control_c, 0, 64, 45
1, 159667, Control_c, 0, 64, 45
1, 159764, Control_c, 0, 64, 46
1, 160016, Control_c, 0, 64, 45
1, 160031, Control_c, 0, 64, 45
1, 160076, Control_c, 0, 64, 44
1, 160090, Control_c, 0, 64, 44
1, 160105, Control_c, 0, 64, 43
1, 160120, Control_c, 0, 64, 42
1, 160150, Control_c, 0, 64, 42
1, 160165, Control_c, 0, 64, 40
1, 160180, Control_c, 0, 64, 36
1, 160195, Control_c, 0, 64, 0
1, 160401, Control_c, 0, 67, 114
1, 160416, Control_c, 0, 67, 109
1, 160454, Control_c, 0, 67, 103
1, 160469, Control_c, 0, 67, 91
1, 160483, Control_c, 0, 67, 79
1, 160498, Control_c, 0, 67, 69
1, 160513, Control_c, 0, 67, 61
1, 160528, Control_c, 0, 67, 51
1, 160542, Control_c, 0, 67, 38
1, 160557, Control_c, 0, 67, 0
1, 161136, Control_c, 0, 67, 40
1, 161150, Control_c, 0, 67, 45
1, 161165, Control_c, 0, 67, 46
1, 161187, Control_c, 0, 67, 48
1, 161202, Control_c, 0, 67, 62
1, 161217, Control_c, 0, 67, 94
1, 161232, Control_c, 0, 67, 127
1, 161628, Note_on_c, 0, 47, 65
1, 161629, Note_on_c, 0, 54, 65
1, 161631, Control_c, 0, 64, 37
1, 161646, Control_c, 0, 64, 65
1, 161655, Note_off_c, 0, 47, 65
1, 161658, Note_off_c, 0, 54, 66
1, 161662, Control_c, 0, 64, 87
1, 161677, Control_c, 0, 64, 127
1, 161756, Note_on_c, 0, 66, 72
1, 161782, Note_off_c, 0, 66, 67
1, 161836, Note_on_c, 0, 68, 72
1, 161879, Note_off_c, 0, 68, 59
1, 161900, Control_c, 0, 64, 74
1, 161913, Note_on_c, 0, 62, 62
1, 161914, Control_c, 0, 64, 30
1, 161915, Note_on_c, 0, 59, 54
1, 161917, Note_on_c, 0, 54, 57
1, 161918, Note_on_c, 0, 70, 84
1, 161936, Control_c, 0, 64, 0
1, 161941, Note_off_c, 0, 62, 62
1, 161947, Note_off_c, 0, 59, 59
1, 161948, Note_off_c, 0, 54, 68
1, 161950, Note_off_c, 0, 70, 66
1, 162018, Note_on_c, 0, 71, 81
1, 162051, Note_off_c, 0, 71, 60
1, 162108, Note_on_c, 0, 73, 83
1, 162135, Note_off_c, 0, 73, 64
1, 162193, Note_on_c, 0, 74, 93
1, 162195, Note_on_c, 0, 47, 58
1, 162198, Note_on_c, 0, 54, 64
1, 162203, Control_c, 0, 64, 56
1, 162211, Note_off_c, 0, 74, 70
1, 162218, Control_c, 0, 64, 75
1, 162223, Note_off_c, 0, 47, 63
1, 162224, Note_off_c, 0, 54, 64
1, 162233, Control_c, 0, 64, 90
1, 162248, Control_c, 0, 64, 108
1, 162262, Control_c, 0, 64, 114
1, 162277, Control_c, 0, 64, 123
1, 162292, Control_c, 0, 64, 127
1, 162439, Control_c, 0, 64, 114
1, 162446, Note_on_c, 0, 73, 74
1, 162456, Control_c, 0, 64, 86
1, 162470, Note_off_c, 0, 73, 69
1, 162471, Control_c, 0, 64, 66
1, 162485, Control_c, 0, 64, 36
1, 162500, Control_c, 0, 64, 0
1, 162510, Note_on_c, 0, 59, 57
1, 162510, Note_on_c, 0, 62, 57
1, 162511, Note_on_c, 0, 54, 57
1, 162518, Note_on_c, 0, 71, 86
1, 162530, Note_off_c, 0, 62, 61
1, 162531, Note_off_c, 0, 59, 61
1, 162539, Note_off_c, 0, 54, 65
1, 162542, Note_off_c, 0, 71, 63
1, 162756, Note_on_c, 0, 74, 76
1, 162777, Note_off_c, 0, 74, 71
1, 162804, Control_c, 0, 64, 42
1, 162818, Control_c, 0, 64, 56
1, 162825, Note_on_c, 0, 73, 84
1, 162828, Note_on_c, 0, 47, 67
1, 162830, Note_on_c, 0, 55, 67
1, 162833, Control_c, 0, 64, 65
1, 162848, Control_c, 0, 64, 68
1, 162855, Note_off_c, 0, 73, 65
1, 162858, Note_off_c, 0, 47, 64
1, 162859, Note_off_c, 0, 55, 65
1, 162863, Control_c, 0, 64, 70
1, 163073, Note_on_c, 0, 71, 74
1, 163096, Note_off_c, 0, 71, 68
1, 163115, Control_c, 0, 64, 68
1, 163129, Control_c, 0, 64, 54
1, 163142, Note_on_c, 0, 61, 74
1, 163144, Control_c, 0, 64, 0
1, 163146, Note_on_c, 0, 70, 86
1, 163152, Note_on_c, 0, 64, 62
1, 163158, Note_on_c, 0, 55, 59
1, 163167, Note_off_c, 0, 61, 69
1, 163173, Note_off_c, 0, 64, 65
1, 163173, Note_off_c, 0, 70, 64
1, 163185, Note_off_c, 0, 55, 64
1, 163373, Note_on_c, 0, 71, 69
1, 163398, Note_off_c, 0, 71, 68
1, 163449, Control_c, 0, 64, 34
1, 163462, Note_on_c, 0, 73, 80
1, 163464, Control_c, 0, 64, 57
1, 163467, Note_on_c, 0, 47, 61
1, 163474, Note_on_c, 0, 55, 55
1, 163479, Control_c, 0, 64, 69
1, 163486, Note_off_c, 0, 73, 64
1, 163493, Control_c, 0, 64, 77
1, 163495, Note_off_c, 0, 47, 65
1, 163498, Note_off_c, 0, 55, 59
1, 163508, Control_c, 0, 64, 82
1, 163523, Control_c, 0, 64, 83
1, 163538, Control_c, 0, 64, 84
1, 163553, Control_c, 0, 64, 85
1, 163582, Control_c, 0, 64, 85
1, 163597, Control_c, 0, 64, 86
1, 163612, Control_c, 0, 64, 86
1, 163627, Control_c, 0, 64, 87
1, 163641, Control_c, 0, 64, 87
1, 163671, Control_c, 0, 64, 88
1, 163687, Note_on_c, 0, 71, 73
1, 163710, Note_off_c, 0, 71, 69
1, 163715, Control_c, 0, 64, 88
1, 163745, Control_c, 0, 64, 86
1, 163759, Note_on_c, 0, 61, 71
1, 163760, Control_c, 0, 64, 73
1, 163762, Note_on_c, 0, 70, 92
1, 163772, Note_on_c, 0, 55, 59
1, 163775, Control_c, 0, 64, 55
1, 163775, Note_on_c, 0, 64, 49
1, 163786, Note_off_c, 0, 61, 66
1, 163790, Control_c, 0, 64, 0
1, 163799, Note_off_c, 0, 64, 60
1, 163801, Note_off_c, 0, 70, 63
1, 163802, Note_off_c, 0, 55, 64
1, 163987, Note_on_c, 0, 73, 70
1, 164014, Note_off_c, 0, 73, 64
1, 164082, Note_on_c, 0, 66, 77
1, 164094, Note_on_c, 0, 47, 66
1, 164099, Note_on_c, 0, 54, 63
1, 164106, Note_off_c, 0, 66, 69
1, 164129, Note_off_c, 0, 47, 61
1, 164130, Note_off_c, 0, 54, 64
1, 164200, Note_on_c, 0, 65, 59
1, 164227, Note_off_c, 0, 65, 64
1, 164243, Control_c, 0, 64, 29
1, 164284, Note_on_c, 0, 66, 74
1, 164308, Note_off_c, 0, 66, 69
1, 164316, Control_c, 0, 64, 31
1, 164331, Control_c, 0, 64, 32
1, 164393, Note_on_c, 0, 54, 62
1, 164397, Note_on_c, 0, 59, 58
1, 164401, Note_on_c, 0, 62, 49
1, 164405, Control_c, 0, 64, 33
1, 164407, Note_on_c, 0, 67, 48
1, 164419, Note_off_c, 0, 59, 60
1, 164425, Note_off_c, 0, 54, 65
1, 164426, Note_off_c, 0, 62, 57
1, 164431, Note_off_c, 0, 67, 57
1, 164488, Note_on_c, 0, 66, 67
1, 164494, Control_c, 0, 64, 34
1, 164508, Control_c, 0, 64, 34
1, 164512, Note_off_c, 0, 66, 65
1, 164553, Control_c, 0, 64, 35
1, 164568, Control_c, 0, 64, 35
1, 164583, Control_c, 0, 64, 36
1, 164584, Note_on_c, 0, 65, 63
1, 164612, Note_off_c, 0, 65, 64
1, 164627, Control_c, 0, 64, 35
1, 164642, Control_c, 0, 64, 34
1, 164672, Control_c, 0, 64, 35
1, 164687, Note_on_c, 0, 66, 81
1, 164687, Control_c, 0, 64, 37
1, 164698, Note_on_c, 0, 47, 61
1, 164699, Note_on_c, 0, 54, 58
1, 164701, Control_c, 0, 64, 39
1, 164726, Note_off_c, 0, 54, 65
1, 164735, Note_off_c, 0, 47, 60
1, 164746, Control_c, 0, 64, 39
1, 164800, Note_on_c, 0, 59, 48
1, 164823, Note_off_c, 0, 59, 59
1, 164883, Note_on_c, 0, 61, 67
1, 164913, Note_off_c, 0, 61, 67
1, 164961, Note_off_c, 0, 66, 0
1, 164961, Control_c, 0, 64, 39
1, 164997, Note_on_c, 0, 62, 71
1, 164998, Poly_aftertouch_c, 0, 66, 127
1, 165000, Note_on_c, 0, 59, 62
1, 165001, Note_on_c, 0, 56, 72
1, 165006, Control_c, 0, 64, 39
1, 165024, Note_off_c, 0, 62, 65
1, 165029, Note_off_c, 0, 56, 65
1, 165029, Note_off_c, 0, 59, 65
1, 165080, Control_c, 0, 64, 40
1, 165096, Note_on_c, 0, 61, 78
1, 165129, Note_off_c, 0, 61, 63
1, 165154, Control_c, 0, 64, 40
1, 165193, Note_on_c, 0, 59, 73
1, 165258, Control_c, 0, 64, 41
1, 165263, Note_off_c, 0, 59, 61
1, 165272, Note_on_c, 0, 61, 69
1, 165295, Note_on_c, 0, 58, 73
1, 165296, Note_on_c, 0, 47, 64
1, 165296, Note_on_c, 0, 54, 69
1, 165301, Note_off_c, 0, 61, 68
1, 165303, Control_c, 0, 64, 42
1, 165318, Control_c, 0, 64, 45
1, 165322, Poly_aftertouch_c, 0, 66, 0
1, 165322, Note_off_c, 0, 54, 65
1, 165323, Note_off_c, 0, 58, 65
1, 165325, Note_off_c, 0, 47, 65
1, 165332, Control_c, 0, 64, 48
1, 165347, Control_c, 0, 64, 49
1, 165390, Note_on_c, 0, 65, 73
1, 165416, Note_off_c, 0, 65, 67
1, 165436, Control_c, 0, 64, 49
1, 165450, Control_c, 0, 64, 48
1, 165473, Note_on_c, 0, 66, 79
1, 165506, Note_off_c, 0, 66, 65
1, 165525, Control_c, 0, 64, 48
1, 165539, Control_c, 0, 64, 47
1, 165578, Note_on_c, 0, 58, 76
1, 165581, Note_on_c, 0, 64, 65
1, 165581, Note_on_c, 0, 67, 77
1, 165602, Note_off_c, 0, 67, 69
1, 165608, Note_off_c, 0, 58, 68
1, 165610, Note_off_c, 0, 64, 66
1, 165687, Note_on_c, 0, 66, 74
1, 165713, Note_off_c, 0, 66, 69
1, 165787, Note_on_c, 0, 65, 62
1, 165812, Note_off_c, 0, 65, 64
1, 165888, Control_c, 0, 64, 48
1, 165891, Note_on_c, 0, 66, 72
1, 165897, Note_on_c, 0, 54, 60
1, 165900, Note_on_c, 0, 47, 54
1, 165918, Control_c, 0, 64, 48
1, 165928, Note_off_c, 0, 54, 63
1, 165933, Note_off_c, 0, 47, 63
1, 166028, Note_on_c, 0, 61, 31
1, 166076, Note_off_c, 0, 61, 50
1, 166091, Note_on_c, 0, 62, 53
1, 166122, Note_off_c, 0, 62, 63
1, 166183, Note_on_c, 0, 64, 67
1, 166189, Note_on_c, 0, 54, 70
1, 166192, Note_on_c, 0, 61, 66
1, 166198, Note_on_c, 0, 58, 62
1, 166217, Note_off_c, 0, 54, 67
1, 166224, Note_off_c, 0, 61, 65
1, 166225, Note_off_c, 0, 58, 64
1, 166235, Note_off_c, 0, 64, 59
1, 166288, Note_on_c, 0, 62, 68
1, 166318, Control_c, 0, 64, 48
1, 166325, Note_off_c, 0, 62, 61
1, 166347, Control_c, 0, 64, 47
1, 166362, Control_c, 0, 64, 47
1, 166377, Control_c, 0, 64, 46
1, 166381, Note_on_c, 0, 61, 77
1, 166392, Control_c, 0, 64, 45
1, 166407, Control_c, 0, 64, 41
1, 166428, Note_off_c, 0, 61, 62
1, 166429, Control_c, 0, 64, 32
1, 166443, Note_off_c, 0, 66, 59
1, 166444, Control_c, 0, 64, 0
1, 166482, Note_on_c, 0, 62, 78
1, 166498, Note_on_c, 0, 54, 70
1, 166499, Note_on_c, 0, 47, 60
1, 166503, Note_off_c, 0, 62, 70
1, 166523, Note_off_c, 0, 54, 66
1, 166526, Note_off_c, 0, 47, 65
1, 166534, Control_c, 0, 64, 53
1, 166549, Control_c, 0, 64, 68
1, 166564, Control_c, 0, 64, 81
1, 166578, Control_c, 0, 64, 103
1, 166593, Control_c, 0, 64, 127
1, 166630, Note_on_c, 0, 78, 68
1, 166654, Note_off_c, 0, 78, 68
1, 166711, Control_c, 0, 67, 121
1, 166716, Note_on_c, 0, 80, 76
1, 166726, Control_c, 0, 67, 106
1, 166738, Note_off_c, 0, 80, 68
1, 166741, Control_c, 0, 67, 94
1, 166756, Control_c, 0, 67, 78
1, 166770, Control_c, 0, 67, 52
1, 166785, Control_c, 0, 67, 0
1, 166801, Note_on_c, 0, 82, 90
1, 166809, Note_on_c, 0, 59, 62
1, 166812, Note_on_c, 0, 62, 61
1, 166815, Control_c, 0, 64, 83
1, 166830, Note_off_c, 0, 59, 65
1, 166830, Control_c, 0, 64, 57
1, 166833, Note_off_c, 0, 62, 63
1, 166838, Note_off_c, 0, 82, 63
1, 166844, Control_c, 0, 64, 0
1, 166900, Note_on_c, 0, 83, 84
1, 166927, Note_off_c, 0, 83, 62
1, 166977, Control_c, 0, 67, 34
1, 166992, Note_on_c, 0, 85, 80
1, 167014, Note_off_c, 0, 85, 67
1, 167021, Control_c, 0, 67, 35
1, 167036, Control_c, 0, 67, 37
1, 167051, Control_c, 0, 67, 36
1, 167066, Control_c, 0, 67, 0
1, 167104, Note_on_c, 0, 86, 79
1, 167106, Note_on_c, 0, 47, 59
1, 167109, Note_on_c, 0, 54, 57
1, 167110, Control_c, 0, 64, 51
1, 167116, Note_on_c, 0, 74, 64
1, 167125, Note_off_c, 0, 86, 72
1, 167125, Control_c, 0, 64, 68
1, 167132, Note_off_c, 0, 54, 61
1, 167132, Note_off_c, 0, 47, 59
1, 167134, Note_off_c, 0, 74, 63
1, 167140, Control_c, 0, 64, 81
1, 167155, Control_c, 0, 64, 99
1, 167177, Control_c, 0, 64, 119
1, 167192, Control_c, 0, 64, 127
1, 167344, Note_on_c, 0, 85, 69
1, 167355, Note_on_c, 0, 73, 58
1, 167369, Note_off_c, 0, 85, 69
1, 167375, Note_off_c, 0, 73, 62
1, 167400, Control_c, 0, 64, 79
1, 167415, Control_c, 0, 64, 50
1, 167425, Note_on_c, 0, 59, 70
1, 167430, Control_c, 0, 64, 0
1, 167436, Note_on_c, 0, 83, 88
1, 167441, Note_on_c, 0, 71, 85
1, 167460, Note_off_c, 0, 71, 71
1, 167463, Note_off_c, 0, 59, 66
1, 167472, Note_off_c, 0, 83, 65
1, 167518, Note_on_c, 0, 62, 68
1, 167546, Note_off_c, 0, 62, 65
1, 167633, Note_on_c, 0, 86, 80
1, 167634, Note_on_c, 0, 74, 76
1, 167653, Note_off_c, 0, 86, 69
1, 167656, Note_off_c, 0, 74, 70
1, 167723, Note_on_c, 0, 85, 90
1, 167727, Note_on_c, 0, 54, 73
1, 167729, Note_on_c, 0, 73, 84
1, 167738, Note_on_c, 0, 47, 61
1, 167741, Control_c, 0, 64, 39
1, 167748, Note_off_c, 0, 73, 72
1, 167750, Note_off_c, 0, 54, 67
1, 167756, Control_c, 0, 64, 64
1, 167757, Note_off_c, 0, 85, 62
1, 167766, Note_off_c, 0, 47, 56
1, 167771, Control_c, 0, 64, 78
1, 167786, Control_c, 0, 64, 96
1, 167800, Control_c, 0, 64, 119
1, 167815, Control_c, 0, 64, 127
1, 167972, Note_on_c, 0, 83, 76
1, 167978, Note_on_c, 0, 71, 71
1, 168000, Note_off_c, 0, 83, 63
1, 168002, Note_off_c, 0, 71, 68
1, 168015, Control_c, 0, 64, 100
1, 168030, Control_c, 0, 64, 67
1, 168046, Control_c, 0, 64, 0
1, 168066, Note_on_c, 0, 82, 85
1, 168069, Note_on_c, 0, 61, 76
1, 168074, Note_on_c, 0, 70, 78
1, 168080, Note_on_c, 0, 64, 56
1, 168091, Note_off_c, 0, 61, 68
1, 168094, Note_off_c, 0, 82, 62
1, 168094, Note_off_c, 0, 70, 72
1, 168102, Note_off_c, 0, 64, 62
1, 168307, Note_on_c, 0, 83, 59
1, 168310, Note_on_c, 0, 71, 51
1, 168326, Note_off_c, 0, 83, 64
1, 168336, Note_off_c, 0, 71, 55
1, 168393, Note_on_c, 0, 54, 74
1, 168395, Note_on_c, 0, 85, 85
1, 168398, Note_on_c, 0, 47, 65
1, 168402, Note_on_c, 0, 73, 68
1, 168402, Control_c, 0, 64, 58
1, 168413, Note_off_c, 0, 85, 70
1, 168417, Note_off_c, 0, 54, 69
1, 168417, Control_c, 0, 64, 77
1, 168424, Note_off_c, 0, 47, 65
1, 168427, Note_off_c, 0, 73, 68
1, 168431, Control_c, 0, 64, 104
1, 168446, Control_c, 0, 64, 127
1, 168604, Note_on_c, 0, 83, 79
1, 168610, Note_on_c, 0, 71, 71
1, 168634, Note_off_c, 0, 71, 68
1, 168638, Note_off_c, 0, 83, 60
1, 168707, Note_on_c, 0, 61, 77
1, 168707, Note_on_c, 0, 82, 89
1, 168716, Note_on_c, 0, 70, 82
1, 168720, Control_c, 0, 64, 88
1, 168735, Note_off_c, 0, 70, 72
1, 168735, Control_c, 0, 64, 63
1, 168741, Note_off_c, 0, 82, 54
1, 168750, Control_c, 0, 64, 0
1, 168767, Note_off_c, 0, 61, 63
1, 168790, Note_on_c, 0, 64, 75
1, 168814, Note_off_c, 0, 64, 69
1, 168910, Note_on_c, 0, 73, 75
1, 168914, Note_on_c, 0, 85, 66
1, 168933, Note_off_c, 0, 73, 70
1, 168933, Note_off_c, 0, 85, 61
1, 169018, Note_on_c, 0, 47, 67
1, 169029, Note_on_c, 0, 78, 75
1, 169031, Control_c, 0, 64, 51
1, 169032, Note_on_c, 0, 66, 70
1, 169036, Note_on_c, 0, 54, 64
1, 169045, Note_off_c, 0, 47, 65
1, 169045, Control_c, 0, 64, 73
1, 169058, Note_off_c, 0, 66, 68
1, 169060, Control_c, 0, 64, 89
1, 169063, Note_off_c, 0, 54, 64
1, 169065, Note_off_c, 0, 78, 54
1, 169075, Control_c, 0, 64, 101
1, 169126, Note_on_c, 0, 77, 71
1, 169149, Control_c, 0, 64, 103
1, 169154, Note_off_c, 0, 77, 66
1, 169221, Note_on_c, 0, 78, 83
1, 169253, Control_c, 0, 64, 105
1, 169263, Note_off_c, 0, 78, 57
1, 169283, Control_c, 0, 64, 97
1, 169286, Poly_aftertouch_c, 0, 58, 127
1, 169297, Control_c, 0, 64, 76
1, 169309, Poly_aftertouch_c, 0, 58, 0
1, 169312, Control_c, 0, 64, 55
1, 169321, Note_on_c, 0, 59, 78
1, 169324, Note_on_c, 0, 62, 72
1, 169327, Control_c, 0, 64, 0
1, 169329, Note_on_c, 0, 67, 81
1, 169330, Note_on_c, 0, 79, 76
1, 169346, Note_off_c, 0, 59, 68
1, 169351, Note_off_c, 0, 62, 65
1, 169353, Note_off_c, 0, 67, 66
1, 169354, Note_off_c, 0, 79, 67
1, 169440, Note_on_c, 0, 78, 70
1, 169465, Note_off_c, 0, 78, 68
1, 169483, Control_c, 0, 67, 35
1, 169497, Control_c, 0, 67, 35
1, 169512, Control_c, 0, 67, 35
1, 169531, Note_on_c, 0, 77, 72
1, 169542, Control_c, 0, 67, 37
1, 169555, Note_off_c, 0, 77, 70
1, 169557, Control_c, 0, 67, 40
1, 169571, Control_c, 0, 67, 49
1, 169586, Control_c, 0, 67, 52
1, 169601, Control_c, 0, 67, 51
1, 169615, Control_c, 0, 67, 50
1, 169630, Control_c, 0, 67, 48
1, 169639, Note_on_c, 0, 46, 61
1, 169640, Note_on_c, 0, 78, 76
1, 169641, Note_on_c, 0, 54, 71
1, 169647, Control_c, 0, 64, 56
1, 169647, Control_c, 0, 67, 44
1, 169662, Control_c, 0, 64, 73
1, 169662, Control_c, 0, 67, 40
1, 169665, Note_on_c, 0, 66, 57
1, 169668, Note_off_c, 0, 54, 66
1, 169671, Note_off_c, 0, 46, 64
1, 169676, Control_c, 0, 64, 96
1, 169676, Control_c, 0, 67, 37
1, 169691, Control_c, 0, 64, 127
1, 169691, Control_c, 0, 67, 34
1, 169706, Control_c, 0, 67, 34
1, 169735, Control_c, 0, 67, 0
1, 169817, Poly_aftertouch_c, 0, 59, 127
1, 169827, Poly_aftertouch_c, 0, 60, 127
1, 169853, Note_on_c, 0, 61, 71
1, 169858, Poly_aftertouch_c, 0, 59, 0
1, 169858, Note_off_c, 0, 78, 60
1, 169861, Poly_aftertouch_c, 0, 60, 0
1, 169897, Note_off_c, 0, 66, 55
1, 169942, Control_c, 0, 64, 113
1, 169945, Note_off_c, 0, 61, 37
1, 169948, Note_on_c, 0, 58, 86
1, 169957, Control_c, 0, 64, 75
1, 169960, Note_on_c, 0, 62, 71
1, 169972, Control_c, 0, 64, 43
1, 169973, Note_off_c, 0, 58, 67
1, 169978, Note_off_c, 0, 62, 66
1, 169987, Control_c, 0, 64, 0
1, 170057, Note_on_c, 0, 64, 71
1, 170085, Note_off_c, 0, 64, 69
1, 170106, Control_c, 0, 67, 37
1, 170120, Control_c, 0, 67, 52
1, 170135, Control_c, 0, 67, 57
1, 170150, Control_c, 0, 67, 58
1, 170154, Note_on_c, 0, 65, 73
1, 170172, Control_c, 0, 67, 61
1, 170185, Note_off_c, 0, 65, 69
1, 170187, Control_c, 0, 67, 68
1, 170202, Control_c, 0, 67, 71
1, 170216, Control_c, 0, 67, 68
1, 170231, Control_c, 0, 67, 67
1, 170246, Control_c, 0, 67, 65
1, 170249, Note_on_c, 0, 54, 77
1, 170255, Note_on_c, 0, 45, 63
1, 170255, Note_on_c, 0, 66, 77
1, 170261, Control_c, 0, 64, 34
1, 170261, Control_c, 0, 67, 65
1, 170272, Note_off_c, 0, 54, 69
1, 170276, Control_c, 0, 64, 65
1, 170276, Control_c, 0, 67, 60
1, 170279, Note_off_c, 0, 66, 70
1, 170284, Note_off_c, 0, 45, 63
1, 170291, Control_c, 0, 64, 82
1, 170291, Control_c, 0, 67, 55
1, 170296, Note_on_c, 0, 62, 12
1, 170306, Control_c, 0, 64, 127
1, 170306, Control_c, 0, 67, 51
1, 170335, Control_c, 0, 67, 52
1, 170348, Note_off_c, 0, 62, 51
1, 170350, Control_c, 0, 67, 51
1, 170365, Control_c, 0, 67, 45
1, 170380, Control_c, 0, 67, 41
1, 170383, Note_on_c, 0, 80, 66
1, 170394, Control_c, 0, 67, 38
1, 170398, Note_off_c, 0, 80, 67
1, 170424, Control_c, 0, 67, 34
1, 170440, Control_c, 0, 67, 0
1, 170463, Note_on_c, 0, 81, 88
1, 170505, Note_off_c, 0, 81, 64
1, 170543, Control_c, 0, 64, 118
1, 170558, Note_on_c, 0, 83, 88
1, 170558, Control_c, 0, 64, 75
1, 170559, Note_on_c, 0, 62, 85
1, 170559, Note_on_c, 0, 57, 74
1, 170569, Note_on_c, 0, 71, 79
1, 170573, Control_c, 0, 64, 49
1, 170581, Note_off_c, 0, 62, 70
1, 170588, Control_c, 0, 64, 0
1, 170589, Note_off_c, 0, 57, 69
1, 170590, Note_off_c, 0, 71, 70
1, 170602, Note_off_c, 0, 83, 66
1, 170658, Note_on_c, 0, 81, 86
1, 170699, Note_off_c, 0, 81, 62
1, 170724, Note_on_c, 0, 56, 46
1, 170750, Note_off_c, 0, 56, 55
1, 170756, Note_on_c, 0, 80, 85
1, 170804, Note_off_c, 0, 80, 62
1, 170851, Note_on_c, 0, 55, 87
1, 170854, Note_on_c, 0, 45, 79
1, 170856, Note_on_c, 0, 81, 91
1, 170863, Note_on_c, 0, 69, 81
1, 170869, Control_c, 0, 64, 67
1, 170884, Control_c, 0, 64, 127
1, 170890, Note_off_c, 0, 45, 63
1, 170905, Note_off_c, 0, 55, 63
1, 170968, Note_on_c, 0, 57, 87
1, 171010, Note_off_c, 0, 57, 66
1, 171013, Note_off_c, 0, 81, 61
1, 171063, Note_on_c, 0, 58, 105
1, 171078, Note_off_c, 0, 69, 62
1, 171111, Note_off_c, 0, 58, 66
1, 171152, Note_on_c, 0, 55, 93
1, 171155, Note_on_c, 0, 59, 95
1, 171188, Note_off_c, 0, 59, 65
1, 171190, Note_off_c, 0, 55, 66
1, 171262, Note_on_c, 0, 60, 86
1, 171302, Note_off_c, 0, 60, 66
1, 171353, Note_on_c, 0, 61, 89
1, 171395, Note_off_c, 0, 61, 66
1, 171440, Note_on_c, 0, 54, 95
1, 171444, Note_on_c, 0, 62, 100
1, 171445, Note_on_c, 0, 50, 87
1, 171465, Note_off_c, 0, 54, 66
1, 171466, Note_off_c, 0, 50, 72
1, 171468, Note_off_c, 0, 62, 67
1, 171470, Control_c, 0, 64, 97
1, 171484, Control_c, 0, 64, 64
1, 171499, Control_c, 0, 64, 0
1, 171544, Control_c, 0, 67, 64
1, 171558, Control_c, 0, 67, 125
1, 171573, Control_c, 0, 67, 127
1, 171590, Note_on_c, 0, 77, 70
1, 171606, Note_off_c, 0, 77, 68
1, 171676, Note_on_c, 0, 78, 77
1, 171706, Note_off_c, 0, 78, 62
1, 171778, Note_on_c, 0, 81, 78
1, 171778, Note_on_c, 0, 79, 73
1, 171781, Note_on_c, 0, 45, 81
1, 171786, Note_on_c, 0, 38, 75
1, 171805, Note_off_c, 0, 45, 65
1, 171811, Note_off_c, 0, 38, 66
1, 171814, Note_off_c, 0, 79, 62
1, 171888, Note_on_c, 0, 78, 71
1, 171916, Note_off_c, 0, 78, 61
1, 172001, Note_on_c, 0, 45, 68
1, 172005, Note_on_c, 0, 77, 53
1, 172007, Note_on_c, 0, 38, 55
1, 172029, Note_off_c, 0, 45, 65
1, 172037, Note_off_c, 0, 38, 54
1, 172044, Note_off_c, 0, 77, 61
1, 172091, Note_on_c, 0, 45, 79
1, 172096, Note_on_c, 0, 78, 79
1, 172102, Note_on_c, 0, 38, 72
1, 172104, Note_off_c, 0, 81, 62
1, 172112, Note_off_c, 0, 45, 67
1, 172121, Note_off_c, 0, 78, 60
1, 172132, Note_off_c, 0, 38, 63
1, 172241, Note_on_c, 0, 73, 54
1, 172260, Note_off_c, 0, 73, 63
1, 172324, Note_on_c, 0, 74, 68
1, 172349, Note_off_c, 0, 74, 69
1, 172403, Note_on_c, 0, 78, 77
1, 172407, Note_on_c, 0, 76, 74
1, 172425, Note_on_c, 0, 57, 66
1, 172428, Note_on_c, 0, 50, 58
1, 172451, Note_off_c, 0, 50, 62
1, 172451, Note_off_c, 0, 57, 66
1, 172479, Note_off_c, 0, 76, 49
1, 172527, Note_on_c, 0, 74, 66
1, 172556, Note_off_c, 0, 74, 67
1, 172630, Note_on_c, 0, 50, 66
1, 172633, Note_on_c, 0, 73, 62
1, 172642, Note_on_c, 0, 57, 53
1, 172656, Note_off_c, 0, 50, 66
1, 172661, Note_off_c, 0, 73, 66
1, 172665, Note_off_c, 0, 57, 61
1, 172718, Note_on_c, 0, 74, 84
1, 172723, Note_on_c, 0, 50, 70
1, 172728, Note_on_c, 0, 57, 69
1, 172735, Note_off_c, 0, 78, 59
1, 172750, Note_off_c, 0, 50, 67
1, 172750, Note_off_c, 0, 74, 63
1, 172757, Note_off_c, 0, 57, 66
1, 172831, Note_on_c, 0, 69, 75
1, 172864, Note_off_c, 0, 69, 62
1, 172926, Note_on_c, 0, 73, 75
1, 172926, Note_on_c, 0, 76, 74
1, 172950, Note_off_c, 0, 73, 64
1, 172959, Note_off_c, 0, 76, 62
1, 173007, Note_on_c, 0, 38, 66
1, 173008, Note_on_c, 0, 45, 67
1, 173011, Note_on_c, 0, 74, 93
1, 173034, Note_off_c, 0, 38, 65
1, 173038, Note_off_c, 0, 45, 64
1, 173056, Note_off_c, 0, 74, 65
1, 173122, Note_on_c, 0, 66, 79
1, 173146, Note_off_c, 0, 66, 67
1, 173215, Note_on_c, 0, 73, 75
1, 173224, Note_on_c, 0, 45, 75
1, 173224, Note_on_c, 0, 69, 71
1, 173225, Note_on_c, 0, 38, 72
1, 173251, Note_off_c, 0, 45, 64
1, 173252, Note_off_c, 0, 69, 64
1, 173253, Note_off_c, 0, 38, 66
1, 173253, Note_off_c, 0, 73, 62
1, 173311, Note_on_c, 0, 71, 84
1, 173312, Note_on_c, 0, 45, 86
1, 173314, Note_on_c, 0, 38, 84
1, 173335, Note_off_c, 0, 45, 69
1, 173339, Note_off_c, 0, 38, 66
1, 173350, Note_off_c, 0, 71, 63
1, 173411, Note_on_c, 0, 62, 76
1, 173442, Note_off_c, 0, 62, 64
1, 173511, Note_on_c, 0, 69, 78
1, 173520, Note_on_c, 0, 66, 64
1, 173545, Note_off_c, 0, 66, 65
1, 173546, Note_off_c, 0, 69, 63
1, 173601, Note_on_c, 0, 67, 87
1, 173602, Note_on_c, 0, 50, 71
1, 173606, Note_on_c, 0, 57, 72
1, 173629, Note_off_c, 0, 50, 66
1, 173633, Note_off_c, 0, 57, 66
1, 173651, Note_off_c, 0, 67, 66
1, 173711, Note_on_c, 0, 59, 76
1, 173742, Note_off_c, 0, 59, 66
1, 173805, Note_on_c, 0, 50, 73
1, 173814, Note_on_c, 0, 66, 76
1, 173815, Note_on_c, 0, 57, 59
1, 173830, Note_on_c, 0, 62, 54
1, 173832, Note_off_c, 0, 50, 66
1, 173845, Note_off_c, 0, 57, 66
1, 173850, Note_off_c, 0, 66, 65
1, 173853, Note_off_c, 0, 62, 59
1, 173890, Note_on_c, 0, 50, 79
1, 173897, Note_on_c, 0, 57, 78
1, 173913, Note_on_c, 0, 67, 74
1, 173916, Note_on_c, 0, 61, 60
1, 173916, Note_off_c, 0, 61, 127
1, 173924, Note_off_c, 0, 50, 69
1, 173929, Note_off_c, 0, 57, 69
1, 173939, Note_off_c, 0, 67, 67
1, 173972, Note_on_c, 0, 62, 2
1, 173972, Note_off_c, 0, 62, 127
1, 174059, Note_on_c, 0, 75, 62
1, 174076, Note_off_c, 0, 75, 66
1, 174117, Note_on_c, 0, 76, 85
1, 174153, Note_off_c, 0, 76, 63
1, 174210, Note_on_c, 0, 78, 89
1, 174211, Note_on_c, 0, 79, 85
1, 174212, Note_on_c, 0, 45, 75
1, 174213, Note_on_c, 0, 38, 74
1, 174239, Note_off_c, 0, 38, 65
1, 174241, Note_off_c, 0, 45, 66
1, 174291, Note_off_c, 0, 78, 54
1, 174311, Note_on_c, 0, 76, 80
1, 174358, Note_off_c, 0, 76, 63
1, 174422, Note_on_c, 0, 75, 75
1, 174423, Note_on_c, 0, 38, 63
1, 174427, Note_on_c, 0, 45, 65
1, 174448, Note_off_c, 0, 75, 65
1, 174457, Note_off_c, 0, 38, 64
1, 174460, Note_off_c, 0, 45, 64
1, 174514, Note_on_c, 0, 45, 82
1, 174515, Note_on_c, 0, 76, 82
1, 174518, Note_on_c, 0, 38, 83
1, 174539, Note_off_c, 0, 45, 66
1, 174542, Note_off_c, 0, 38, 66
1, 174543, Note_off_c, 0, 79, 61
1, 174549, Note_off_c, 0, 76, 64
1, 174632, Note_on_c, 0, 72, 68
1, 174663, Note_off_c, 0, 72, 67
1, 174733, Note_on_c, 0, 73, 72
1, 174755, Note_off_c, 0, 73, 69
1, 174824, Note_on_c, 0, 76, 83
1, 174830, Note_on_c, 0, 74, 81
1, 174845, Note_on_c, 0, 57, 69
1, 174846, Note_on_c, 0, 50, 64
1, 174866, Note_off_c, 0, 74, 57
1, 174874, Note_off_c, 0, 57, 65
1, 174876, Note_off_c, 0, 50, 66
1, 174932, Control_c, 0, 64, 29
1, 174938, Note_on_c, 0, 73, 64
1, 174967, Note_off_c, 0, 73, 67
1, 175039, Note_on_c, 0, 72, 65
1, 175051, Note_on_c, 0, 50, 57
1, 175063, Note_on_c, 0, 57, 43
1, 175068, Note_off_c, 0, 72, 63
1, 175077, Note_off_c, 0, 50, 63
1, 175089, Note_off_c, 0, 57, 56
1, 175132, Note_on_c, 0, 73, 81
1, 175142, Note_on_c, 0, 50, 60
1, 175147, Note_on_c, 0, 57, 52
1, 175147, Note_off_c, 0, 76, 61
1, 175165, Note_off_c, 0, 50, 62
1, 175165, Note_off_c, 0, 73, 59
1, 175170, Note_off_c, 0, 57, 57
1, 175240, Note_on_c, 0, 67, 70
1, 175259, Control_c, 0, 64, 31
1, 175267, Note_off_c, 0, 67, 67
1, 175274, Control_c, 0, 64, 32
1, 175289, Control_c, 0, 64, 33
1, 175327, Note_on_c, 0, 71, 79
1, 175329, Note_on_c, 0, 74, 76
1, 175353, Note_off_c, 0, 71, 65
1, 175367, Note_off_c, 0, 74, 60
1, 175412, Note_on_c, 0, 38, 67
1, 175414, Note_on_c, 0, 45, 66
1, 175427, Note_on_c, 0, 73, 83
1, 175441, Note_off_c, 0, 38, 65
1, 175445, Note_off_c, 0, 45, 64
1, 175480, Note_off_c, 0, 73, 65
1, 175519, Control_c, 0, 64, 33
1, 175520, Note_on_c, 0, 64, 80
1, 175534, Control_c, 0, 64, 34
1, 175556, Note_off_c, 0, 64, 65
1, 175578, Control_c, 0, 64, 33
1, 175619, Note_on_c, 0, 71, 81
1, 175628, Note_on_c, 0, 67, 71
1, 175638, Note_on_c, 0, 45, 65
1, 175639, Note_on_c, 0, 38, 64
1, 175653, Note_off_c, 0, 67, 69
1, 175663, Note_off_c, 0, 45, 63
1, 175666, Note_off_c, 0, 38, 58
1, 175675, Note_off_c, 0, 71, 60
1, 175716, Note_on_c, 0, 69, 86
1, 175720, Note_on_c, 0, 45, 87
1, 175727, Note_on_c, 0, 38, 84
1, 175740, Control_c, 0, 64, 33
1, 175743, Note_off_c, 0, 45, 69
1, 175749, Note_off_c, 0, 38, 67
1, 175763, Note_off_c, 0, 69, 62
1, 175770, Control_c, 0, 64, 33
1, 175829, Note_on_c, 0, 61, 60
1, 175849, Note_off_c, 0, 61, 64
1, 175859, Control_c, 0, 64, 34
1, 175912, Note_on_c, 0, 67, 77
1, 175925, Note_on_c, 0, 64, 64
1, 175945, Note_off_c, 0, 64, 65
1, 175956, Note_off_c, 0, 67, 62
1, 175992, Control_c, 0, 64, 33
1, 175998, Note_on_c, 0, 57, 76
1, 176000, Note_on_c, 0, 50, 71
1, 176006, Note_on_c, 0, 66, 94
1, 176025, Note_off_c, 0, 57, 68
1, 176028, Note_off_c, 0, 50, 66
1, 176057, Note_off_c, 0, 66, 64
1, 176082, Control_c, 0, 64, 34
1, 176097, Control_c, 0, 64, 34
1, 176099, Note_on_c, 0, 57, 77
1, 176134, Note_off_c, 0, 57, 64
1, 176193, Control_c, 0, 64, 35
1, 176208, Note_on_c, 0, 64, 79
1, 176208, Control_c, 0, 64, 34
1, 176212, Note_on_c, 0, 50, 69
1, 176219, Note_on_c, 0, 61, 58
1, 176225, Note_on_c, 0, 57, 59
1, 176238, Note_off_c, 0, 64, 62
1, 176240, Note_off_c, 0, 61, 63
1, 176241, Note_off_c, 0, 50, 65
1, 176245, Note_off_c, 0, 57, 64
1, 176268, Control_c, 0, 64, 34
1, 176282, Control_c, 0, 64, 32
1, 176297, Control_c, 0, 64, 0
1, 176309, Note_on_c, 0, 66, 68
1, 176309, Note_on_c, 0, 57, 76
1, 176317, Note_on_c, 0, 50, 55
1, 176332, Note_on_c, 0, 62, 34
1, 176336, Note_off_c, 0, 57, 68
1, 176336, Note_off_c, 0, 62, 49
1, 176338, Note_off_c, 0, 66, 66
1, 176342, Note_off_c, 0, 50, 59
1, 176386, Control_c, 0, 64, 30
1, 176401, Control_c, 0, 64, 40
1, 176413, Note_on_c, 0, 56, 75
1, 176414, Note_on_c, 0, 50, 62
1, 176415, Note_on_c, 0, 54, 64
1, 176415, Control_c, 0, 64, 38
1, 176430, Control_c, 0, 64, 33
1, 176439, Note_off_c, 0, 56, 69
1, 176441, Note_off_c, 0, 50, 62
1, 176443, Note_off_c, 0, 54, 65
1, 176445, Control_c, 0, 64, 0
1, 176499, Note_on_c, 0, 50, 88
1, 176500, Note_on_c, 0, 57, 89
1, 176527, Note_off_c, 0, 57, 67
1, 176528, Note_off_c, 0, 50, 66
1, 176552, Note_on_c, 0, 54, 4
1, 176552, Note_off_c, 0, 54, 127
1, 176593, Control_c, 0, 67, 121
1, 176596, Poly_aftertouch_c, 0, 54, 0
1, 176596, Note_on_c, 0, 59, 93
1, 176602, Note_on_c, 0, 50, 69
1, 176605, Note_on_c, 0, 54, 42
1, 176608, Control_c, 0, 67, 98
1, 176608, Note_on_c, 0, 93, 91
1, 176610, Note_on_c, 0, 81, 86
1, 176622, Control_c, 0, 67, 78
1, 176625, Note_off_c, 0, 50, 67
1, 176630, Note_off_c, 0, 59, 65
1, 176634, Note_off_c, 0, 54, 64
1, 176637, Control_c, 0, 67, 62
1, 176652, Control_c, 0, 67, 47
1, 176667, Control_c, 0, 67, 35
1, 176670, Note_off_c, 0, 81, 0
1, 176682, Control_c, 0, 67, 0
1, 176688, Note_on_c, 0, 57, 96
1, 176697, Note_on_c, 0, 50, 72
1, 176707, Poly_aftertouch_c, 0, 81, 127
1, 176727, Note_off_c, 0, 50, 66
1, 176729, Note_off_c, 0, 57, 60
1, 176784, Note_on_c, 0, 56, 88
1, 176786, Note_on_c, 0, 54, 66
1, 176798, Note_on_c, 0, 50, 54
1, 176824, Note_off_c, 0, 50, 59
1, 176831, Note_off_c, 0, 56, 64
1, 176834, Note_off_c, 0, 54, 62
1, 176846, Control_c, 0, 67, 40
1, 176861, Control_c, 0, 67, 50
1, 176876, Control_c, 0, 67, 52
1, 176879, Note_off_c, 0, 93, 63
1, 176887, Poly_aftertouch_c, 0, 81, 0
1, 176889, Note_on_c, 0, 50, 83
1, 176891, Control_c, 0, 67, 51
1, 176892, Note_on_c, 0, 57, 78
1, 176912, Control_c, 0, 67, 51
1, 176919, Note_off_c, 0, 50, 69
1, 176926, Note_off_c, 0, 57, 68
1, 176927, Control_c, 0, 67, 55
1, 176942, Control_c, 0, 67, 65
1, 176957, Control_c, 0, 67, 78
1, 176972, Control_c, 0, 67, 79
1, 176986, Control_c, 0, 67, 78
1, 176998, Note_on_c, 0, 85, 69
1, 177016, Control_c, 0, 67, 80
1, 177024, Note_off_c, 0, 85, 68
1, 177031, Control_c, 0, 67, 82
1, 177046, Control_c, 0, 67, 82
1, 177061, Control_c, 0, 67, 80
1, 177076, Control_c, 0, 67, 79
1, 177090, Control_c, 0, 67, 80
1, 177105, Control_c, 0, 67, 81
1, 177108, Note_on_c, 0, 86, 35
1, 177135, Control_c, 0, 67, 79
1, 177143, Note_off_c, 0, 86, 33
1, 177150, Control_c, 0, 67, 78
1, 177165, Control_c, 0, 67, 78
1, 177179, Control_c, 0, 67, 80
1, 177187, Note_on_c, 0, 88, 70
1, 177189, Note_on_c, 0, 45, 67
1, 177190, Note_on_c, 0, 38, 69
1, 177190, Note_on_c, 0, 90, 65
1, 177193, Note_on_c, 0, 78, 69
1, 177194, Control_c, 0, 67, 79
1, 177209, Control_c, 0, 67, 78
1, 177213, Note_off_c, 0, 45, 62
1, 177222, Note_off_c, 0, 38, 64
1, 177223, Control_c, 0, 67, 77
1, 177252, Control_c, 0, 67, 78
1, 177267, Control_c, 0, 67, 77
1, 177282, Control_c, 0, 67, 75
1, 177293, Note_on_c, 0, 86, 53
1, 177297, Control_c, 0, 67, 74
1, 177326, Control_c, 0, 67, 75
1, 177356, Control_c, 0, 67, 74
1, 177356, Note_off_c, 0, 86, 55
1, 177386, Control_c, 0, 67, 75
1, 177395, Note_on_c, 0, 85, 67
1, 177400, Control_c, 0, 67, 77
1, 177403, Note_on_c, 0, 38, 55
1, 177404, Note_on_c, 0, 45, 49
1, 177415, Control_c, 0, 67, 78
1, 177419, Note_off_c, 0, 88, 28
1, 177430, Control_c, 0, 67, 78
1, 177434, Note_off_c, 0, 38, 52
1, 177436, Note_off_c, 0, 45, 33
1, 177451, Note_off_c, 0, 85, 55
1, 177470, Note_off_c, 0, 78, 41
1, 177475, Control_c, 0, 67, 80
1, 177482, Note_off_c, 0, 90, 42
1, 177486, Note_on_c, 0, 86, 70
1, 177490, Control_c, 0, 67, 82
1, 177490, Note_on_c, 0, 45, 69
1, 177497, Note_on_c, 0, 38, 65
1, 177504, Control_c, 0, 67, 81
1, 177516, Note_off_c, 0, 45, 66
1, 177519, Control_c, 0, 67, 79
1, 177525, Note_off_c, 0, 38, 60
1, 177533, Note_off_c, 0, 86, 61
1, 177534, Control_c, 0, 67, 79
1, 177549, Control_c, 0, 67, 79
1, 177563, Control_c, 0, 67, 81
1, 177578, Control_c, 0, 67, 80
1, 177593, Control_c, 0, 67, 78
1, 177596, Note_on_c, 0, 78, 60
1, 177608, Control_c, 0, 67, 76
1, 177626, Note_off_c, 0, 78, 65
1, 177639, Control_c, 0, 67, 75
1, 177660, Control_c, 0, 67, 69
1, 177675, Control_c, 0, 67, 64
1, 177690, Control_c, 0, 67, 60
1, 177695, Note_on_c, 0, 38, 53
1, 177699, Note_on_c, 0, 88, 77
1, 177710, Note_on_c, 0, 45, 53
1, 177720, Control_c, 0, 67, 64
1, 177729, Note_off_c, 0, 38, 62
1, 177734, Control_c, 0, 67, 75
1, 177737, Note_off_c, 0, 45, 55
1, 177744, Note_off_c, 0, 88, 64
1, 177749, Control_c, 0, 67, 87
1, 177764, Control_c, 0, 67, 112
1, 177779, Control_c, 0, 67, 127
1, 177787, Note_on_c, 0, 86, 82
1, 177792, Note_on_c, 0, 81, 75
1, 177806, Note_on_c, 0, 54, 76
1, 177812, Note_off_c, 0, 81, 71
1, 177827, Note_off_c, 0, 86, 64
1, 177830, Note_off_c, 0, 54, 66
1, 177845, Note_on_c, 0, 45, 9
1, 177891, Note_off_c, 0, 45, 28
1, 177896, Note_on_c, 0, 78, 69
1, 177919, Note_off_c, 0, 78, 68
1, 177979, Note_on_c, 0, 38, 69
1, 177979, Note_on_c, 0, 85, 81
1, 177983, Note_on_c, 0, 45, 67
1, 178006, Note_off_c, 0, 38, 65
1, 178011, Note_off_c, 0, 45, 65
1, 178026, Note_off_c, 0, 85, 63
1, 178071, Note_on_c, 0, 83, 90
1, 178083, Note_on_c, 0, 78, 80
1, 178091, Note_on_c, 0, 57, 83
1, 178103, Note_off_c, 0, 78, 69
1, 178119, Note_off_c, 0, 83, 64
1, 178125, Note_off_c, 0, 57, 64
1, 178182, Note_on_c, 0, 74, 76
1, 178204, Note_off_c, 0, 74, 71
1, 178260, Note_on_c, 0, 38, 71
1, 178270, Note_on_c, 0, 45, 59
1, 178270, Note_on_c, 0, 81, 86
1, 178289, Note_off_c, 0, 38, 64
1, 178295, Note_off_c, 0, 45, 65
1, 178307, Note_off_c, 0, 81, 63
1, 178354, Note_on_c, 0, 79, 83
1, 178373, Note_on_c, 0, 74, 76
1, 178389, Note_on_c, 0, 62, 76
1, 178403, Note_off_c, 0, 74, 71
1, 178410, Note_off_c, 0, 79, 67
1, 178440, Note_off_c, 0, 62, 58
1, 178467, Note_on_c, 0, 69, 87
1, 178495, Note_off_c, 0, 69, 66
1, 178542, Note_on_c, 0, 50, 71
1, 178552, Note_on_c, 0, 78, 88
1, 178556, Poly_aftertouch_c, 0, 79, 0
1, 178567, Note_on_c, 0, 79, 32
1, 178567, Note_off_c, 0, 79, 127
1, 178595, Note_off_c, 0, 78, 62
1, 178604, Note_off_c, 0, 50, 63
1, 178641, Note_on_c, 0, 59, 78
1, 178641, Note_on_c, 0, 79, 99
1, 178648, Note_on_c, 0, 64, 67
1, 178655, Note_on_c, 0, 71, 71
1, 178662, Note_on_c, 0, 76, 54
1, 178662, Control_c, 0, 64, 57
1, 178662, Control_c, 0, 67, 96
1, 178664, Note_off_c, 0, 59, 67
1, 178671, Note_off_c, 0, 64, 65
1, 178673, Note_off_c, 0, 71, 65
1, 178676, Note_off_c, 0, 79, 69
1, 178676, Control_c, 0, 64, 106
1, 178676, Control_c, 0, 67, 0
1, 178683, Note_off_c, 0, 76, 60
1, 178691, Control_c, 0, 64, 127
1, 178749, Note_on_c, 0, 54, 83
1, 178754, Note_on_c, 0, 47, 66
1, 178765, Note_on_c, 0, 52, 58
1, 178774, Note_off_c, 0, 54, 66
1, 178781, Note_off_c, 0, 47, 63
1, 178793, Note_off_c, 0, 52, 56
1, 178831, Note_on_c, 0, 55, 97
1, 178864, Note_off_c, 0, 55, 64
1, 178916, Note_on_c, 0, 91, 96
1, 178917, Note_on_c, 0, 83, 99
1, 178919, Note_on_c, 0, 79, 91
1, 178921, Note_on_c, 0, 52, 80
1, 178921, Note_on_c, 0, 58, 98
1, 178923, Note_on_c, 0, 55, 81
1, 178947, Note_off_c, 0, 52, 69
1, 178957, Note_off_c, 0, 58, 66
1, 178961, Note_off_c, 0, 55, 63
1, 179007, Note_on_c, 0, 59, 99
1, 179017, Note_on_c, 0, 57, 76
1, 179035, Note_off_c, 0, 57, 41
1, 179042, Note_off_c, 0, 59, 68
1, 179106, Note_on_c, 0, 55, 92
1, 179111, Note_on_c, 0, 63, 100
1, 179114, Note_on_c, 0, 59, 83
1, 179143, Note_off_c, 0, 55, 61
1, 179149, Note_off_c, 0, 63, 68
1, 179162, Note_off_c, 0, 59, 57
1, 179193, Note_off_c, 0, 83, 59
1, 179198, Note_on_c, 0, 64, 99
1, 179212, Note_on_c, 0, 62, 69
1, 179216, Note_off_c, 0, 79, 63
1, 179216, Note_off_c, 0, 91, 63
1, 179231, Note_off_c, 0, 64, 70
1, 179233, Note_off_c, 0, 62, 65
1, 179233, Control_c, 0, 64, 85
1, 179248, Control_c, 0, 64, 56
1, 179248, Control_c, 0, 67, 74
1, 179263, Control_c, 0, 64, 0
1, 179263, Control_c, 0, 67, 127
1, 179309, Note_on_c, 0, 84, 80
1, 179329, Note_off_c, 0, 84, 70
1, 179408, Note_on_c, 0, 85, 75
1, 179429, Note_off_c, 0, 85, 70
1, 179474, Note_on_c, 0, 45, 73
1, 179482, Note_on_c, 0, 38, 60
1, 179499, Note_off_c, 0, 45, 64
1, 179504, Note_on_c, 0, 86, 75
1, 179507, Note_on_c, 0, 88, 68
1, 179508, Note_on_c, 0, 76, 76
1, 179509, Note_off_c, 0, 38, 56
1, 179532, Note_off_c, 0, 88, 66
1, 179535, Note_off_c, 0, 76, 65
1, 179543, Note_off_c, 0, 86, 56
1, 179591, Note_on_c, 0, 85, 77
1, 179615, Note_on_c, 0, 76, 34
1, 179642, Note_off_c, 0, 85, 60
1, 179648, Note_off_c, 0, 76, 51
1, 179689, Note_on_c, 0, 84, 69
1, 179708, Note_on_c, 0, 45, 60
1, 179714, Note_on_c, 0, 38, 54
1, 179734, Note_off_c, 0, 45, 57
1, 179734, Note_off_c, 0, 84, 63
1, 179746, Note_off_c, 0, 38, 55
1, 179787, Note_on_c, 0, 85, 77
1, 179789, Note_on_c, 0, 45, 87
1, 179798, Note_on_c, 0, 38, 73
1, 179813, Note_off_c, 0, 45, 69
1, 179827, Note_off_c, 0, 85, 62
1, 179830, Note_off_c, 0, 38, 64
1, 179890, Note_on_c, 0, 76, 66
1, 179923, Note_off_c, 0, 76, 68
1, 179988, Note_on_c, 0, 86, 74
1, 179994, Note_on_c, 0, 45, 80
1, 180001, Note_on_c, 0, 38, 64
1, 180019, Note_off_c, 0, 45, 66
1, 180032, Note_off_c, 0, 38, 62
1, 180039, Note_off_c, 0, 86, 61
1, 180088, Note_on_c, 0, 85, 76
1, 180092, Note_on_c, 0, 52, 85
1, 180094, Note_on_c, 0, 81, 66
1, 180114, Note_off_c, 0, 85, 65
1, 180119, Note_off_c, 0, 81, 69
1, 180125, Note_off_c, 0, 52, 65
1, 180194, Note_on_c, 0, 73, 61
1, 180212, Note_off_c, 0, 73, 65
1, 180272, Note_on_c, 0, 83, 85
1, 180277, Note_on_c, 0, 38, 72
1, 180277, Note_on_c, 0, 45, 76
1, 180304, Note_off_c, 0, 38, 65
1, 180304, Note_off_c, 0, 45, 65
1, 180316, Note_on_c, 0, 82, 4
1, 180321, Note_off_c, 0, 83, 63
1, 180339, Note_off_c, 0, 82, 34
1, 180366, Note_on_c, 0, 81, 88
1, 180377, Note_on_c, 0, 78, 72
1, 180378, Note_on_c, 0, 57, 86
1, 180398, Note_off_c, 0, 78, 70
1, 180405, Note_off_c, 0, 81, 65
1, 180414, Note_off_c, 0, 57, 65
1, 180479, Note_on_c, 0, 69, 73
1, 180501, Note_off_c, 0, 69, 69
1, 180551, Note_on_c, 0, 38, 72
1, 180559, Note_on_c, 0, 79, 83
1, 180560, Note_on_c, 0, 45, 65
1, 180581, Note_off_c, 0, 38, 64
1, 180585, Note_off_c, 0, 45, 65
1, 180608, Note_off_c, 0, 79, 66
1, 180664, Note_on_c, 0, 78, 84
1, 180669, Note_on_c, 0, 73, 82
1, 180687, Note_on_c, 0, 61, 80
1, 180694, Note_off_c, 0, 73, 64
1, 180712, Note_off_c, 0, 78, 59
1, 180734, Note_off_c, 0, 61, 60
1, 180771, Note_on_c, 0, 67, 81
1, 180807, Note_off_c, 0, 67, 64
1, 180852, Note_on_c, 0, 50, 74
1, 180852, Note_on_c, 0, 57, 71
1, 180861, Note_on_c, 0, 77, 74
1, 180887, Note_on_c, 0, 73, 60
1, 180889, Note_off_c, 0, 77, 65
1, 180915, Note_off_c, 0, 73, 66
1, 180939, Control_c, 0, 64, 53
1, 180946, Note_off_c, 0, 57, 62
1, 180948, Note_off_c, 0, 50, 65
1, 180953, Control_c, 0, 64, 75
1, 180955, Note_on_c, 0, 62, 91
1, 180961, Note_on_c, 0, 78, 87
1, 180967, Control_c, 0, 64, 127
1, 180992, Note_off_c, 0, 62, 66
1, 180998, Note_off_c, 0, 78, 57
1, 181029, Poly_aftertouch_c, 0, 66, 127
1, 181070, Poly_aftertouch_c, 0, 66, 0
1, 181095, Note_on_c, 0, 90, 82
1, 181100, Control_c, 0, 64, 101
1, 181109, Note_on_c, 0, 83, 63
1, 181115, Control_c, 0, 64, 65
1, 181122, Note_off_c, 0, 90, 65
1, 181127, Note_off_c, 0, 83, 65
1, 181130, Control_c, 0, 64, 0
1, 181175, Note_on_c, 0, 74, 55
1, 181180, Note_on_c, 0, 76, 59
1, 181198, Note_on_c, 0, 92, 66
1, 181198, Note_off_c, 0, 76, 65
1, 181203, Note_off_c, 0, 74, 66
1, 181214, Note_on_c, 0, 86, 64
1, 181225, Note_off_c, 0, 92, 68
1, 181232, Note_off_c, 0, 86, 64
1, 181317, Note_on_c, 0, 94, 73
1, 181332, Note_on_c, 0, 73, 72
1, 181341, Note_off_c, 0, 94, 67
1, 181342, Note_on_c, 0, 85, 40
1, 181356, Note_off_c, 0, 73, 66
1, 181361, Note_off_c, 0, 85, 39
1, 181415, Note_on_c, 0, 95, 75
1, 181418, Note_on_c, 0, 94, 62
1, 181445, Note_off_c, 0, 95, 65
1, 181447, Note_off_c, 0, 94, 64
1, 181474, Note_on_c, 0, 66, 58
1, 181504, Note_off_c, 0, 66, 66
1, 181523, Note_on_c, 0, 96, 74
1, 181547, Note_off_c, 0, 96, 70
1, 181556, Note_on_c, 0, 94, 4
1, 181606, Note_on_c, 0, 66, 66
1, 181612, Note_on_c, 0, 59, 64
1, 181613, Note_off_c, 0, 94, 27
1, 181619, Note_on_c, 0, 98, 95
1, 181636, Note_on_c, 0, 90, 53
1, 181639, Note_off_c, 0, 59, 66
1, 181640, Note_on_c, 0, 86, 53
1, 181648, Note_off_c, 0, 66, 63
1, 181653, Note_off_c, 0, 98, 63
1, 181657, Note_off_c, 0, 90, 40
1, 181663, Note_off_c, 0, 86, 38
1, 181728, Note_on_c, 0, 71, 60
1, 181749, Note_off_c, 0, 71, 64
1, 181838, Note_on_c, 0, 97, 77
1, 181866, Note_off_c, 0, 97, 65
1, 181942, Note_on_c, 0, 95, 74
1, 181943, Note_on_c, 0, 74, 66
1, 181956, Note_on_c, 0, 86, 63
1, 181964, Note_off_c, 0, 95, 71
1, 181974, Note_off_c, 0, 86, 64
1, 181977, Note_off_c, 0, 74, 64
1, 182036, Note_on_c, 0, 78, 66
1, 182060, Note_off_c, 0, 78, 67
1, 182155, Note_on_c, 0, 98, 80
1, 182192, Note_off_c, 0, 98, 63
1, 182256, Note_on_c, 0, 97, 80
1, 182269, Note_on_c, 0, 66, 73
1, 182274, Note_on_c, 0, 88, 59
1, 182279, Note_on_c, 0, 59, 40
1, 182284, Note_off_c, 0, 97, 64
1, 182292, Note_off_c, 0, 88, 65
1, 182306, Note_off_c, 0, 59, 58
1, 182319, Note_off_c, 0, 66, 62
1, 182354, Note_on_c, 0, 70, 68
1, 182378, Note_off_c, 0, 70, 70
1, 182465, Note_on_c, 0, 95, 77
1, 182499, Note_off_c, 0, 95, 65
1, 182578, Note_on_c, 0, 94, 68
1, 182580, Note_on_c, 0, 73, 61
1, 182580, Note_on_c, 0, 76, 69
1, 182593, Note_off_c, 0, 94, 65
1, 182613, Note_off_c, 0, 76, 61
1, 182615, Note_off_c, 0, 73, 60
1, 182686, Note_on_c, 0, 79, 48
1, 182709, Note_off_c, 0, 79, 59
1, 182794, Note_on_c, 0, 95, 73
1, 182822, Note_off_c, 0, 95, 65
1, 182900, Note_on_c, 0, 97, 78
1, 182907, Note_on_c, 0, 90, 64
1, 182918, Note_on_c, 0, 59, 54
1, 182921, Note_on_c, 0, 66, 63
1, 182927, Note_off_c, 0, 97, 63
1, 182931, Note_off_c, 0, 90, 65
1, 182954, Note_off_c, 0, 59, 64
1, 182958, Note_off_c, 0, 66, 62
1, 183007, Note_on_c, 0, 70, 64
1, 183033, Note_off_c, 0, 70, 69
1, 183120, Note_on_c, 0, 95, 77
1, 183163, Note_off_c, 0, 95, 66
1, 183224, Note_on_c, 0, 94, 79
1, 183225, Note_on_c, 0, 73, 70
1, 183233, Note_on_c, 0, 88, 66
1, 183254, Note_off_c, 0, 94, 63
1, 183256, Note_off_c, 0, 88, 71
1, 183264, Note_on_c, 0, 66, 7
1, 183280, Note_off_c, 0, 73, 56
1, 183291, Note_off_c, 0, 66, 44
1, 183321, Note_on_c, 0, 76, 74
1, 183347, Note_off_c, 0, 76, 67
1, 183433, Note_on_c, 0, 97, 77
1, 183461, Note_off_c, 0, 97, 63
1, 183542, Note_on_c, 0, 66, 73
1, 183542, Note_on_c, 0, 90, 74
1, 183548, Note_on_c, 0, 59, 55
1, 183557, Note_on_c, 0, 86, 58
1, 183569, Note_off_c, 0, 90, 65
1, 183577, Note_off_c, 0, 86, 65
1, 183584, Note_off_c, 0, 59, 64
1, 183598, Note_off_c, 0, 66, 64
1, 183640, Note_on_c, 0, 71, 63
1, 183651, Note_on_c, 0, 89, 74
1, 183674, Note_off_c, 0, 89, 68
1, 183675, Note_off_c, 0, 71, 67
1, 183747, Note_on_c, 0, 90, 80
1, 183773, Note_off_c, 0, 90, 64
1, 183846, Note_on_c, 0, 91, 85
1, 183854, Note_on_c, 0, 71, 68
1, 183860, Note_on_c, 0, 66, 63
1, 183866, Note_on_c, 0, 86, 62
1, 183886, Note_off_c, 0, 86, 66
1, 183886, Note_off_c, 0, 91, 65
1, 183910, Note_off_c, 0, 71, 56
1, 183929, Note_off_c, 0, 66, 49
1, 183947, Note_on_c, 0, 90, 81
1, 183950, Note_on_c, 0, 74, 69
1, 183974, Note_off_c, 0, 74, 70
1, 183978, Note_off_c, 0, 90, 63
1, 184053, Note_on_c, 0, 89, 74
1, 184078, Note_off_c, 0, 89, 64
1, 184110, Control_c, 0, 64, 29
1, 184162, Note_on_c, 0, 90, 74
1, 184167, Note_on_c, 0, 54, 68
1, 184170, Note_on_c, 0, 47, 64
1, 184191, Note_off_c, 0, 90, 63
1, 184219, Note_off_c, 0, 47, 57
1, 184237, Note_off_c, 0, 54, 60
1, 184260, Note_on_c, 0, 83, 70
1, 184264, Note_on_c, 0, 59, 68
1, 184286, Note_off_c, 0, 83, 64
1, 184288, Control_c, 0, 64, 32
1, 184294, Note_off_c, 0, 59, 67
1, 184302, Control_c, 0, 64, 32
1, 184355, Note_on_c, 0, 85, 80
1, 184375, Note_off_c, 0, 85, 72
1, 184462, Note_on_c, 0, 86, 79
1, 184474, Note_on_c, 0, 62, 69
1, 184474, Note_on_c, 0, 83, 65
1, 184480, Note_on_c, 0, 59, 54
1, 184492, Note_off_c, 0, 83, 64
1, 184505, Note_off_c, 0, 86, 65
1, 184546, Note_off_c, 0, 62, 57
1, 184546, Control_c, 0, 64, 33
1, 184551, Note_off_c, 0, 59, 64
1, 184561, Control_c, 0, 64, 34
1, 184567, Note_on_c, 0, 85, 72
1, 184569, Note_on_c, 0, 82, 70
1, 184576, Control_c, 0, 64, 34
1, 184577, Note_on_c, 0, 66, 64
1, 184590, Note_off_c, 0, 85, 68
1, 184596, Note_off_c, 0, 82, 63
1, 184608, Note_off_c, 0, 66, 66
1, 184650, Control_c, 0, 64, 35
1, 184660, Note_on_c, 0, 83, 66
1, 184678, Note_on_c, 0, 80, 53
1, 184688, Note_off_c, 0, 83, 62
1, 184698, Note_off_c, 0, 80, 64
1, 184760, Note_on_c, 0, 82, 78
1, 184761, Note_on_c, 0, 85, 77
1, 184764, Note_on_c, 0, 47, 68
1, 184766, Note_on_c, 0, 54, 69
1, 184769, Control_c, 0, 64, 35
1, 184786, Note_off_c, 0, 85, 64
1, 184787, Note_off_c, 0, 82, 63
1, 184803, Note_off_c, 0, 47, 63
1, 184828, Note_off_c, 0, 54, 61
1, 184882, Note_on_c, 0, 58, 55
1, 184883, Note_on_c, 0, 77, 68
1, 184904, Note_off_c, 0, 58, 59
1, 184906, Note_off_c, 0, 77, 70
1, 184964, Note_on_c, 0, 78, 81
1, 185002, Note_off_c, 0, 78, 57
1, 185052, Control_c, 0, 64, 35
1, 185066, Note_on_c, 0, 79, 78
1, 185068, Note_on_c, 0, 61, 65
1, 185069, Note_on_c, 0, 54, 56
1, 185082, Control_c, 0, 64, 36
1, 185103, Note_off_c, 0, 79, 62
1, 185109, Note_off_c, 0, 54, 61
1, 185126, Note_off_c, 0, 61, 53
1, 185171, Note_on_c, 0, 64, 65
1, 185174, Note_on_c, 0, 78, 76
1, 185200, Note_off_c, 0, 78, 62
1, 185201, Note_off_c, 0, 64, 67
1, 185237, Control_c, 0, 64, 36
1, 185252, Control_c, 0, 64, 37
1, 185266, Note_on_c, 0, 77, 69
1, 185289, Note_off_c, 0, 77, 71
1, 185354, Note_on_c, 0, 47, 58
1, 185363, Note_on_c, 0, 78, 79
1, 185374, Note_on_c, 0, 54, 60
1, 185400, Control_c, 0, 64, 37
1, 185402, Note_off_c, 0, 47, 62
1, 185440, Note_off_c, 0, 54, 60
1, 185476, Note_on_c, 0, 73, 58
1, 185480, Note_on_c, 0, 58, 59
1, 185496, Note_off_c, 0, 73, 64
1, 185502, Note_off_c, 0, 58, 61
1, 185544, Note_on_c, 0, 74, 80
1, 185580, Note_off_c, 0, 78, 59
1, 185584, Note_off_c, 0, 74, 59
1, 185623, Control_c, 0, 64, 38
1, 185638, Control_c, 0, 64, 39
1, 185641, Note_on_c, 0, 58, 70
1, 185646, Note_on_c, 0, 76, 73
1, 185656, Note_on_c, 0, 73, 71
1, 185658, Note_on_c, 0, 54, 51
1, 185667, Note_off_c, 0, 76, 71
1, 185678, Note_off_c, 0, 73, 70
1, 185681, Note_off_c, 0, 54, 62
1, 185682, Control_c, 0, 64, 40
1, 185697, Control_c, 0, 64, 41
1, 185705, Note_off_c, 0, 58, 64
1, 185712, Control_c, 0, 64, 41
1, 185740, Note_on_c, 0, 66, 72
1, 185740, Note_on_c, 0, 74, 89
1, 185748, Note_on_c, 0, 71, 85
1, 185756, Control_c, 0, 64, 41
1, 185766, Note_off_c, 0, 66, 66
1, 185766, Note_off_c, 0, 71, 72
1, 185771, Control_c, 0, 64, 40
1, 185783, Note_off_c, 0, 74, 66
1, 185801, Control_c, 0, 64, 40
1, 185816, Control_c, 0, 64, 39
1, 185842, Note_on_c, 0, 73, 72
1, 185845, Note_on_c, 0, 70, 76
1, 185860, Control_c, 0, 64, 40
1, 185866, Note_off_c, 0, 73, 68
1, 185867, Note_off_c, 0, 70, 69
1, 185875, Control_c, 0, 64, 40
1, 185897, Control_c, 0, 64, 41
1, 185912, Control_c, 0, 64, 40
1, 185912, Control_c, 0, 67, 104
1, 185927, Control_c, 0, 64, 39
1, 185927, Control_c, 0, 67, 79
1, 185932, Poly_aftertouch_c, 0, 74, 0
1, 185938, Note_on_c, 0, 74, 66
1, 185939, Note_on_c, 0, 71, 66
1, 185941, Note_on_c, 0, 73, 74
1, 185942, Control_c, 0, 64, 39
1, 185942, Control_c, 0, 67, 71
1, 185950, Note_on_c, 0, 47, 66
1, 185954, Note_on_c, 0, 54, 69
1, 185956, Control_c, 0, 64, 38
1, 185964, Note_off_c, 0, 71, 65
1, 185964, Note_off_c, 0, 73, 69
1, 185967, Note_off_c, 0, 74, 67
1, 185986, Note_off_c, 0, 47, 64
1, 185986, Control_c, 0, 64, 37
1, 185986, Control_c, 0, 67, 70
1, 186000, Note_off_c, 0, 54, 55
1, 186000, Control_c, 0, 64, 36
1, 186000, Control_c, 0, 67, 69
1, 186015, Control_c, 0, 67, 71
1, 186030, Control_c, 0, 64, 37
1, 186030, Control_c, 0, 67, 72
1, 186033, Note_on_c, 0, 59, 79
1, 186045, Control_c, 0, 64, 37
1, 186047, Note_on_c, 0, 78, 74
1, 186053, Note_on_c, 0, 66, 78
1, 186060, Control_c, 0, 67, 71
1, 186063, Note_off_c, 0, 59, 67
1, 186066, Note_off_c, 0, 78, 65
1, 186075, Control_c, 0, 67, 68
1, 186078, Note_off_c, 0, 66, 67
1, 186090, Control_c, 0, 64, 38
1, 186090, Control_c, 0, 67, 68
1, 186105, Control_c, 0, 64, 38
1, 186119, Control_c, 0, 64, 39
1, 186134, Control_c, 0, 67, 65
1, 186138, Note_on_c, 0, 80, 68
1, 186140, Note_on_c, 0, 68, 75
1, 186149, Control_c, 0, 64, 38
1, 186149, Control_c, 0, 67, 62
1, 186155, Note_off_c, 0, 80, 66
1, 186157, Note_off_c, 0, 68, 69
1, 186164, Control_c, 0, 64, 37
1, 186164, Control_c, 0, 67, 54
1, 186179, Control_c, 0, 67, 53
1, 186193, Control_c, 0, 64, 37
1, 186193, Control_c, 0, 67, 54
1, 186208, Control_c, 0, 64, 38
1, 186223, Control_c, 0, 67, 54
1, 186226, Note_on_c, 0, 82, 72
1, 186233, Note_on_c, 0, 59, 56
1, 186238, Note_on_c, 0, 62, 55
1, 186238, Control_c, 0, 67, 56
1, 186239, Note_on_c, 0, 54, 47
1, 186243, Note_on_c, 0, 70, 63
1, 186247, Note_off_c, 0, 82, 71
1, 186253, Control_c, 0, 64, 37
1, 186253, Control_c, 0, 67, 63
1, 186257, Note_off_c, 0, 59, 63
1, 186263, Note_off_c, 0, 70, 65
1, 186263, Note_off_c, 0, 62, 63
1, 186265, Note_off_c, 0, 54, 62
1, 186267, Control_c, 0, 67, 66
1, 186282, Control_c, 0, 64, 38
1, 186282, Control_c, 0, 67, 64
1, 186297, Control_c, 0, 64, 38
1, 186297, Control_c, 0, 67, 62
1, 186312, Control_c, 0, 64, 39
1, 186312, Control_c, 0, 67, 61
1, 186316, Note_on_c, 0, 83, 81
1, 186326, Note_on_c, 0, 54, 72
1, 186326, Note_on_c, 0, 71, 73
1, 186326, Control_c, 0, 64, 38
1, 186326, Control_c, 0, 67, 64
1, 186331, Note_on_c, 0, 59, 57
1, 186331, Note_on_c, 0, 62, 61
1, 186341, Control_c, 0, 64, 38
1, 186341, Control_c, 0, 67, 68
1, 186351, Note_off_c, 0, 54, 67
1, 186352, Note_off_c, 0, 71, 66
1, 186352, Note_off_c, 0, 62, 63
1, 186353, Note_off_c, 0, 83, 65
1, 186354, Note_off_c, 0, 59, 61
1, 186356, Control_c, 0, 64, 37
1, 186356, Control_c, 0, 67, 69
1, 186400, Control_c, 0, 67, 70
1, 186413, Note_on_c, 0, 85, 81
1, 186416, Control_c, 0, 67, 71
1, 186431, Control_c, 0, 67, 69
1, 186432, Note_off_c, 0, 85, 72
1, 186435, Note_on_c, 0, 73, 55
1, 186446, Control_c, 0, 67, 66
1, 186455, Note_off_c, 0, 73, 61
1, 186461, Control_c, 0, 64, 38
1, 186461, Control_c, 0, 67, 64
1, 186476, Control_c, 0, 67, 64
1, 186514, Note_on_c, 0, 35, 74
1, 186514, Note_on_c, 0, 86, 86
1, 186520, Control_c, 0, 64, 37
1, 186522, Note_on_c, 0, 78, 70
1, 186525, Note_on_c, 0, 74, 70
1, 186532, Note_on_c, 0, 47, 49
1, 186534, Note_off_c, 0, 86, 70
1, 186535, Control_c, 0, 64, 37
1, 186537, Note_off_c, 0, 35, 66
1, 186540, Note_off_c, 0, 74, 68
1, 186547, Note_off_c, 0, 78, 65
1, 186549, Control_c, 0, 64, 36
1, 186549, Control_c, 0, 67, 64
1, 186564, Control_c, 0, 64, 35
1, 186564, Control_c, 0, 67, 65
1, 186566, Note_off_c, 0, 47, 53
1, 186609, Control_c, 0, 67, 65
1, 186612, Note_on_c, 0, 35, 66
1, 186623, Note_on_c, 0, 47, 62
1, 186650, Note_off_c, 0, 35, 62
1, 186657, Note_off_c, 0, 47, 61
1, 186661, Control_c, 0, 64, 36
1, 186676, Control_c, 0, 67, 62
1, 186691, Control_c, 0, 64, 36
1, 186691, Control_c, 0, 67, 62
1, 186705, Control_c, 0, 64, 37
1, 186720, Control_c, 0, 67, 63
1, 186726, Note_on_c, 0, 85, 72
1, 186741, Note_on_c, 0, 73, 61
1, 186746, Note_off_c, 0, 85, 70
1, 186759, Note_off_c, 0, 73, 63
1, 186764, Control_c, 0, 67, 62
1, 186823, Control_c, 0, 67, 59
1, 186826, Note_on_c, 0, 71, 74
1, 186827, Note_on_c, 0, 59, 59
1, 186829, Note_on_c, 0, 74, 68
1, 186838, Note_on_c, 0, 83, 55
1, 186838, Control_c, 0, 67, 58
1, 186847, Note_off_c, 0, 74, 64
1, 186849, Note_off_c, 0, 59, 61
1, 186850, Note_off_c, 0, 71, 68
1, 186851, Note_on_c, 0, 62, 28
1, 186853, Control_c, 0, 64, 36
1, 186859, Note_off_c, 0, 83, 60
1, 186868, Control_c, 0, 67, 59
1, 186883, Control_c, 0, 67, 60
1, 186888, Note_off_c, 0, 62, 31
1, 186926, Note_on_c, 0, 59, 56
1, 186942, Control_c, 0, 67, 61
1, 186951, Note_off_c, 0, 59, 36
1, 186963, Note_on_c, 0, 54, 5
1, 186963, Note_off_c, 0, 54, 127
1, 187016, Control_c, 0, 64, 37
1, 187016, Control_c, 0, 67, 62
1, 187021, Note_on_c, 0, 74, 70
1, 187030, Note_on_c, 0, 86, 52
1, 187031, Control_c, 0, 67, 62
1, 187038, Note_off_c, 0, 74, 66
1, 187053, Note_off_c, 0, 86, 38
1, 187061, Control_c, 0, 67, 62
1, 187090, Control_c, 0, 64, 37
1, 187105, Control_c, 0, 64, 38
1, 187113, Note_on_c, 0, 47, 56
1, 187115, Note_on_c, 0, 35, 58
1, 187135, Control_c, 0, 67, 60
1, 187139, Note_on_c, 0, 85, 40
1, 187141, Note_off_c, 0, 47, 56
1, 187143, Note_off_c, 0, 35, 54
1, 187149, Control_c, 0, 67, 59
1, 187151, Note_off_c, 0, 85, 41
1, 187194, Control_c, 0, 67, 57
1, 187210, Control_c, 0, 67, 56
1, 187225, Control_c, 0, 64, 37
1, 187225, Control_c, 0, 67, 55
1, 187226, Note_on_c, 0, 47, 36
1, 187272, Note_off_c, 0, 47, 50
1, 187284, Control_c, 0, 67, 55
1, 187299, Control_c, 0, 64, 38
1, 187299, Control_c, 0, 67, 55
1, 187302, Note_on_c, 0, 83, 74
1, 187307, Note_on_c, 0, 71, 73
1, 187313, Control_c, 0, 67, 59
1, 187325, Note_off_c, 0, 83, 66
1, 187328, Control_c, 0, 67, 61
1, 187331, Note_off_c, 0, 71, 68
1, 187372, Control_c, 0, 64, 38
1, 187372, Control_c, 0, 67, 62
1, 187388, Note_on_c, 0, 54, 63
1, 187389, Note_on_c, 0, 61, 66
1, 187395, Control_c, 0, 64, 40
1, 187395, Control_c, 0, 67, 64
1, 187398, Note_on_c, 0, 64, 56
1, 187409, Note_off_c, 0, 54, 61
1, 187409, Note_off_c, 0, 61, 65
1, 187410, Control_c, 0, 64, 42
1, 187410, Control_c, 0, 67, 64
1, 187419, Note_on_c, 0, 82, 50
1, 187420, Note_off_c, 0, 64, 61
1, 187422, Note_on_c, 0, 79, 48
1, 187425, Control_c, 0, 64, 43
1, 187439, Control_c, 0, 64, 44
1, 187440, Note_on_c, 0, 70, 33
1, 187440, Note_off_c, 0, 70, 127
1, 187442, Note_off_c, 0, 82, 39
1, 187444, Note_off_c, 0, 79, 60
1, 187454, Control_c, 0, 64, 47
1, 187462, Note_on_c, 0, 54, 82
1, 187462, Note_on_c, 0, 61, 85
1, 187464, Note_on_c, 0, 64, 83
1, 187469, Control_c, 0, 64, 53
1, 187483, Note_off_c, 0, 61, 71
1, 187484, Control_c, 0, 64, 58
1, 187485, Note_off_c, 0, 64, 72
1, 187486, Note_off_c, 0, 54, 65
1, 187499, Control_c, 0, 64, 59
1, 187499, Control_c, 0, 67, 64
1, 187513, Control_c, 0, 67, 62
1, 187543, Control_c, 0, 64, 59
1, 187543, Control_c, 0, 67, 61
1, 187558, Control_c, 0, 64, 61
1, 187558, Control_c, 0, 67, 55
1, 187572, Control_c, 0, 64, 67
1, 187572, Control_c, 0, 67, 50
1, 187583, Note_on_c, 0, 78, 81
1, 187584, Note_on_c, 0, 71, 87
1, 187584, Note_on_c, 0, 83, 81
1, 187587, Control_c, 0, 64, 81
1, 187587, Control_c, 0, 67, 45
1, 187602, Control_c, 0, 64, 127
1, 187602, Control_c, 0, 67, 0
1, 187605, Note_off_c, 0, 78, 64
1, 187607, Note_off_c, 0, 83, 65
1, 187609, Note_off_c, 0, 71, 64
1, 187670, Note_on_c, 0, 35, 102
1, 187672, Note_on_c, 0, 47, 107
1, 187686, Note_on_c, 0, 85, 100
1, 187691, Control_c, 0, 64, 94
1, 187692, Note_on_c, 0, 73, 86
1, 187706, Control_c, 0, 64, 84
1, 187709, Note_off_c, 0, 73, 73
1, 187710, Note_off_c, 0, 47, 68
1, 187711, Note_off_c, 0, 35, 66
1, 187720, Control_c, 0, 64, 85
1, 187732, Note_off_c, 0, 85, 62
1, 187735, Control_c, 0, 64, 115
1, 187750, Control_c, 0, 64, 127
1, 187771, Note_on_c, 0, 35, 94
1, 187777, Note_on_c, 0, 47, 92
1, 187792, Poly_aftertouch_c, 0, 83, 0
1, 187795, Note_off_c, 0, 35, 69
1, 187810, Note_off_c, 0, 47, 63
1, 187839, Control_c, 0, 64, 103
1, 187854, Control_c, 0, 64, 79
1, 187869, Control_c, 0, 64, 60
1, 187871, Note_on_c, 0, 83, 81
1, 187875, Note_on_c, 0, 71, 88
1, 187884, Control_c, 0, 64, 0
1, 187889, Note_off_c, 0, 83, 71
1, 187893, Note_off_c, 0, 71, 71
1, 187958, Control_c, 0, 67, 41
1, 187961, Note_on_c, 0, 54, 84
1, 187964, Note_on_c, 0, 82, 85
1, 187966, Note_on_c, 0, 61, 74
1, 187971, Note_on_c, 0, 64, 71
1, 187971, Note_on_c, 0, 70, 82
1, 187972, Control_c, 0, 67, 55
1, 187974, Note_on_c, 0, 76, 67
1, 187987, Control_c, 0, 67, 77
1, 187988, Note_off_c, 0, 54, 62
1, 187989, Note_off_c, 0, 82, 60
1, 187992, Note_off_c, 0, 61, 70
1, 187992, Note_off_c, 0, 70, 72
1, 187992, Note_off_c, 0, 76, 66
1, 187998, Note_off_c, 0, 64, 69
1, 188002, Control_c, 0, 67, 102
1, 188018, Control_c, 0, 67, 122
1, 188033, Control_c, 0, 67, 127
1, 188061, Note_on_c, 0, 54, 80
1, 188061, Note_on_c, 0, 64, 77
1, 188063, Note_on_c, 0, 61, 66
1, 188082, Note_off_c, 0, 61, 65
1, 188084, Note_off_c, 0, 54, 69
1, 188086, Note_off_c, 0, 64, 70
1, 188167, Note_on_c, 0, 85, 74
1, 188173, Note_on_c, 0, 73, 69
1, 188186, Note_off_c, 0, 85, 71
1, 188191, Note_off_c, 0, 73, 67
1, 188256, Note_on_c, 0, 35, 74
1, 188262, Control_c, 0, 64, 31
1, 188263, Note_on_c, 0, 78, 80
1, 188272, Note_on_c, 0, 33, 53
1, 188274, Note_on_c, 0, 66, 77
1, 188277, Control_c, 0, 64, 43
1, 188279, Note_off_c, 0, 35, 66
1, 188292, Note_off_c, 0, 78, 58
1, 188292, Control_c, 0, 64, 41
1, 188299, Note_off_c, 0, 66, 70
1, 188306, Note_off_c, 0, 33, 56
1, 188307, Control_c, 0, 64, 0
1, 188343, Note_on_c, 0, 35, 85
1, 188348, Note_on_c, 0, 47, 53
1, 188354, Note_on_c, 0, 77, 69
1, 188367, Note_off_c, 0, 35, 66
1, 188370, Note_on_c, 0, 45, 15
1, 188379, Note_off_c, 0, 77, 68
1, 188387, Note_off_c, 0, 47, 65
1, 188419, Note_off_c, 0, 45, 33
1, 188445, Note_on_c, 0, 78, 71
1, 188469, Note_on_c, 0, 79, 42
1, 188481, Note_off_c, 0, 78, 59
1, 188497, Note_off_c, 0, 79, 35
1, 188533, Note_on_c, 0, 54, 74
1, 188539, Note_on_c, 0, 66, 95
1, 188540, Note_on_c, 0, 79, 85
1, 188541, Note_on_c, 0, 59, 63
1, 188545, Note_on_c, 0, 62, 61
1, 188558, Note_off_c, 0, 54, 67
1, 188561, Note_off_c, 0, 59, 62
1, 188567, Note_off_c, 0, 62, 64
1, 188579, Note_off_c, 0, 79, 65
1, 188600, Note_off_c, 0, 66, 0
1, 188621, Note_on_c, 0, 78, 79
1, 188632, Note_on_c, 0, 54, 77
1, 188632, Note_on_c, 0, 62, 69
1, 188634, Note_on_c, 0, 59, 62
1, 188638, Poly_aftertouch_c, 0, 66, 127
1, 188653, Note_off_c, 0, 59, 62
1, 188658, Note_off_c, 0, 62, 67
1, 188663, Note_off_c, 0, 54, 64
1, 188718, Note_off_c, 0, 78, 59
1, 188719, Note_on_c, 0, 77, 68
1, 188767, Note_off_c, 0, 77, 63
1, 188817, Note_on_c, 0, 78, 79
1, 188823, Note_on_c, 0, 46, 75
1, 188823, Note_on_c, 0, 34, 87
1, 188847, Note_off_c, 0, 34, 66
1, 188850, Note_off_c, 0, 46, 65
1, 188858, Note_off_c, 0, 78, 57
1, 188927, Note_on_c, 0, 34, 69
1, 188928, Note_on_c, 0, 46, 73
1, 188934, Note_on_c, 0, 73, 60
1, 188951, Note_off_c, 0, 34, 65
1, 188955, Note_off_c, 0, 46, 63
1, 188964, Poly_aftertouch_c, 0, 66, 0
1, 188964, Note_off_c, 0, 73, 64
1, 188981, Control_c, 0, 64, 29
1, 189001, Note_on_c, 0, 74, 83
1, 189011, Control_c, 0, 64, 0
1, 189046, Note_off_c, 0, 74, 65
1, 189098, Note_on_c, 0, 76, 86
1, 189103, Note_on_c, 0, 67, 85
1, 189108, Note_on_c, 0, 46, 59
1, 189111, Note_on_c, 0, 50, 65
1, 189111, Note_on_c, 0, 55, 67
1, 189130, Control_c, 0, 64, 34
1, 189130, Control_c, 0, 67, 124
1, 189137, Note_off_c, 0, 46, 64
1, 189137, Note_off_c, 0, 50, 68
1, 189138, Note_off_c, 0, 55, 64
1, 189144, Control_c, 0, 64, 53
1, 189144, Control_c, 0, 67, 105
1, 189159, Control_c, 0, 64, 68
1, 189159, Control_c, 0, 67, 85
1, 189174, Control_c, 0, 64, 75
1, 189174, Control_c, 0, 67, 52
1, 189189, Control_c, 0, 64, 80
1, 189189, Control_c, 0, 67, 0
1, 189191, Note_on_c, 0, 74, 84
1, 189204, Control_c, 0, 64, 82
1, 189210, Note_on_c, 0, 55, 56
1, 189211, Note_on_c, 0, 50, 62
1, 189217, Note_on_c, 0, 46, 64
1, 189218, Control_c, 0, 64, 84
1, 189224, Note_off_c, 0, 76, 60
1, 189233, Control_c, 0, 64, 86
1, 189241, Note_off_c, 0, 55, 63
1, 189243, Note_off_c, 0, 67, 50
1, 189244, Note_off_c, 0, 50, 64
1, 189248, Control_c, 0, 64, 91
1, 189256, Note_off_c, 0, 74, 58
1, 189263, Control_c, 0, 64, 97
1, 189264, Note_off_c, 0, 46, 60
1, 189278, Control_c, 0, 64, 102
1, 189288, Note_on_c, 0, 73, 78
1, 189307, Control_c, 0, 64, 100
1, 189322, Control_c, 0, 64, 80
1, 189336, Control_c, 0, 64, 58
1, 189338, Note_off_c, 0, 73, 62
1, 189351, Control_c, 0, 64, 0
1, 189375, Note_on_c, 0, 33, 84
1, 189379, Note_on_c, 0, 45, 80
1, 189380, Note_on_c, 0, 74, 84
1, 189381, Control_c, 0, 64, 36
1, 189388, Note_on_c, 0, 66, 76
1, 189396, Control_c, 0, 64, 64
1, 189403, Note_off_c, 0, 33, 69
1, 189406, Note_off_c, 0, 45, 68
1, 189406, Note_off_c, 0, 74, 66
1, 189411, Note_off_c, 0, 66, 71
1, 189411, Control_c, 0, 64, 95
1, 189425, Control_c, 0, 64, 127
1, 189488, Note_on_c, 0, 45, 74
1, 189488, Note_on_c, 0, 33, 68
1, 189515, Note_off_c, 0, 33, 59
1, 189516, Note_off_c, 0, 45, 66
1, 189528, Note_on_c, 0, 80, 35
1, 189557, Note_off_c, 0, 80, 53
1, 189586, Note_on_c, 0, 81, 81
1, 189626, Note_off_c, 0, 81, 60
1, 189656, Control_c, 0, 64, 89
1, 189671, Control_c, 0, 64, 58
1, 189685, Note_on_c, 0, 59, 89
1, 189686, Control_c, 0, 64, 0
1, 189687, Note_on_c, 0, 83, 95
1, 189693, Note_on_c, 0, 71, 87
1, 189715, Control_c, 0, 64, 33
1, 189730, Control_c, 0, 64, 59
1, 189745, Control_c, 0, 64, 81
1, 189760, Control_c, 0, 64, 127
1, 189770, Note_off_c, 0, 59, 54
1, 189784, Note_on_c, 0, 81, 62
1, 189816, Note_off_c, 0, 83, 64
1, 189842, Note_on_c, 0, 52, 71
1, 189846, Note_on_c, 0, 45, 68
1, 189870, Note_off_c, 0, 71, 0
1, 189886, Note_off_c, 0, 45, 58
1, 189887, Note_on_c, 0, 71, 34
1, 189888, Note_on_c, 0, 80, 83
1, 189901, Note_off_c, 0, 52, 60
1, 189908, Note_off_c, 0, 81, 63
1, 189914, Note_off_c, 0, 71, 60
1, 189935, Note_off_c, 0, 80, 65
1, 189953, Control_c, 0, 64, 82
1, 189967, Control_c, 0, 64, 40
1, 189968, Note_on_c, 0, 60, 99
1, 189973, Note_on_c, 0, 81, 92
1, 189979, Note_on_c, 0, 69, 96
1, 189982, Control_c, 0, 64, 0
1, 190012, Control_c, 0, 64, 44
1, 190015, Note_on_c, 0, 49, 27
1, 190015, Note_off_c, 0, 49, 127
1, 190018, Note_on_c, 0, 50, 7
1, 190027, Control_c, 0, 64, 72
1, 190041, Control_c, 0, 64, 127
1, 190051, Note_off_c, 0, 60, 55
1, 190075, Note_off_c, 0, 50, 45
1, 190082, Note_on_c, 0, 76, 79
1, 190135, Note_off_c, 0, 81, 55
1, 190136, Note_off_c, 0, 76, 63
1, 190145, Note_on_c, 0, 45, 64
1, 190145, Note_on_c, 0, 52, 64
1, 190175, Note_on_c, 0, 78, 87
1, 190176, Note_off_c, 0, 45, 62
1, 190197, Note_off_c, 0, 52, 58
1, 190215, Note_off_c, 0, 69, 60
1, 190226, Note_off_c, 0, 78, 62
1, 190270, Note_on_c, 0, 61, 101
1, 190272, Note_on_c, 0, 79, 92
1, 190278, Control_c, 0, 64, 68
1, 190287, Note_on_c, 0, 50, 38
1, 190293, Control_c, 0, 64, 0
1, 190323, Control_c, 0, 64, 42
1, 190334, Note_off_c, 0, 61, 60
1, 190338, Control_c, 0, 64, 72
1, 190350, Note_on_c, 0, 52, 3
1, 190352, Note_off_c, 0, 79, 56
1, 190352, Control_c, 0, 64, 127
1, 190371, Note_on_c, 0, 78, 95
1, 190391, Note_off_c, 0, 50, 29
1, 190420, Note_off_c, 0, 52, 0
1, 190432, Note_on_c, 0, 52, 61
1, 190434, Note_on_c, 0, 45, 79
1, 190446, Note_off_c, 0, 78, 53
1, 190470, Note_on_c, 0, 77, 89
1, 190477, Note_off_c, 0, 52, 63
1, 190483, Note_off_c, 0, 45, 62
1, 190529, Note_off_c, 0, 77, 66
1, 190553, Control_c, 0, 64, 76
1, 190561, Note_on_c, 0, 78, 95
1, 190568, Control_c, 0, 64, 36
1, 190573, Note_on_c, 0, 57, 106
1, 190577, Note_on_c, 0, 50, 98
1, 190579, Note_on_c, 0, 62, 93
1, 190583, Control_c, 0, 64, 0
1, 190595, Note_off_c, 0, 57, 70
1, 190595, Note_off_c, 0, 62, 74
1, 190596, Note_off_c, 0, 50, 72
1, 190597, Control_c, 0, 64, 49
1, 190606, Note_off_c, 0, 78, 64
1, 190612, Control_c, 0, 64, 88
1, 190627, Control_c, 0, 64, 127
1, 190686, Poly_aftertouch_c, 0, 64, 0
1, 190689, Note_on_c, 0, 80, 89
1, 190692, Note_on_c, 0, 92, 86
1, 190713, Note_off_c, 0, 92, 69
1, 190716, Note_off_c, 0, 80, 63
1, 190774, Poly_aftertouch_c, 0, 90, 0
1, 190780, Note_on_c, 0, 93, 96
1, 190782, Note_on_c, 0, 81, 93
1, 190817, Note_off_c, 0, 81, 68
1, 190819, Note_off_c, 0, 93, 65
1, 190850, Poly_aftertouch_c, 0, 90, 0
1, 190901, Note_on_c, 0, 95, 90
1, 190907, Note_on_c, 0, 83, 90
1, 190913, Note_on_c, 0, 86, 75
1, 190921, Note_on_c, 0, 26, 78
1, 190925, Note_on_c, 0, 33, 80
1, 190931, Note_on_c, 0, 38, 71
1, 190933, Note_off_c, 0, 86, 72
1, 190937, Note_off_c, 0, 83, 61
1, 190939, Note_off_c, 0, 95, 64
1, 190946, Note_off_c, 0, 26, 65
1, 190950, Note_off_c, 0, 33, 64
1, 190957, Note_off_c, 0, 38, 61
1, 190999, Note_on_c, 0, 26, 85
1, 190999, Note_on_c, 0, 93, 88
1, 191000, Note_on_c, 0, 33, 95
1, 191001, Poly_aftertouch_c, 0, 90, 0
1, 191003, Note_on_c, 0, 86, 88
1, 191004, Note_on_c, 0, 81, 89
1, 191005, Note_on_c, 0, 90, 46
1, 191008, Note_on_c, 0, 38, 86
1, 191027, Note_off_c, 0, 86, 64
1, 191035, Note_off_c, 0, 90, 67
1, 191036, Note_off_c, 0, 38, 67
1, 191037, Note_off_c, 0, 81, 64
1, 191042, Note_off_c, 0, 93, 62
1, 191044, Note_off_c, 0, 26, 62
1, 191045, Note_off_c, 0, 33, 62
1, 191092, Note_on_c, 0, 92, 93
1, 191098, Note_on_c, 0, 80, 94
1, 191098, Note_on_c, 0, 26, 66
1, 191099, Note_on_c, 0, 33, 90
1, 191099, Note_on_c, 0, 86, 89
1, 191101, Note_on_c, 0, 90, 81
1, 191101, Note_on_c, 0, 38, 89
1, 191122, Note_off_c, 0, 90, 68
1, 191139, Note_off_c, 0, 80, 64
1, 191142, Note_off_c, 0, 92, 67
1, 191142, Note_off_c, 0, 86, 65
1, 191147, Note_off_c, 0, 38, 65
1, 191150, Note_off_c, 0, 26, 60
1, 191151, Note_off_c, 0, 33, 64
1, 191194, Note_on_c, 0, 93, 99
1, 191195, Note_on_c, 0, 26, 77
1, 191195, Note_on_c, 0, 33, 84
1, 191195, Note_on_c, 0, 90, 92
1, 191196, Note_on_c, 0, 81, 104
1, 191200, Note_on_c, 0, 38, 98
1, 191200, Note_on_c, 0, 86, 85
1, 191221, Note_on_c, 0, 91, 52
1, 191221, Note_off_c, 0, 26, 67
1, 191221, Note_off_c, 0, 33, 69
1, 191223, Note_off_c, 0, 86, 67
1, 191228, Note_on_c, 0, 87, 35
1, 191228, Note_off_c, 0, 81, 69
1, 191232, Note_off_c, 0, 90, 67
1, 191235, Note_off_c, 0, 93, 62
1, 191241, Note_off_c, 0, 38, 63
1, 191245, Note_off_c, 0, 91, 58
1, 191259, Note_off_c, 0, 87, 48
1, 191288, Control_c, 0, 64, 96
1, 191303, Control_c, 0, 64, 63
1, 191318, Control_c, 0, 64, 0
1, 191333, Control_c, 0, 67, 55
1, 191347, Control_c, 0, 67, 68
1, 191362, Control_c, 0, 67, 69
1, 191377, Control_c, 0, 67, 77
1, 191392, Control_c, 0, 67, 104
1, 191405, Note_on_c, 0, 65, 74
1, 191407, Control_c, 0, 67, 127
1, 191429, Note_off_c, 0, 65, 68
1, 191488, Note_on_c, 0, 66, 88
1, 191519, Note_off_c, 0, 66, 65
1, 191582, Note_on_c, 0, 67, 95
1, 191583, Note_on_c, 0, 74, 92
1, 191584, Note_on_c, 0, 81, 86
1, 191585, Note_on_c, 0, 69, 89
1, 191622, Note_off_c, 0, 67, 67
1, 191679, Note_on_c, 0, 66, 88
1, 191682, Note_on_c, 0, 62, 73
1, 191717, Note_off_c, 0, 66, 64
1, 191720, Note_off_c, 0, 62, 65
1, 191771, Note_on_c, 0, 65, 91
1, 191776, Note_on_c, 0, 57, 81
1, 191789, Note_on_c, 0, 62, 59
1, 191811, Note_off_c, 0, 57, 61
1, 191813, Note_off_c, 0, 69, 54
1, 191814, Note_off_c, 0, 65, 65
1, 191817, Note_off_c, 0, 62, 64
1, 191854, Note_off_c, 0, 74, 63
1, 191866, Note_on_c, 0, 66, 101
1, 191873, Note_on_c, 0, 57, 75
1, 191887, Note_on_c, 0, 62, 68
1, 191893, Note_off_c, 0, 81, 65
1, 191914, Note_off_c, 0, 62, 64
1, 191915, Note_off_c, 0, 57, 65
1, 191915, Note_off_c, 0, 66, 67
1, 191992, Note_on_c, 0, 78, 77
1, 192015, Note_off_c, 0, 78, 66
1, 192086, Note_on_c, 0, 58, 70
1, 192090, Note_on_c, 0, 67, 69
1, 192102, Note_on_c, 0, 88, 74
1, 192104, Note_on_c, 0, 76, 83
1, 192113, Note_off_c, 0, 58, 65
1, 192114, Note_off_c, 0, 67, 64
1, 192116, Note_on_c, 0, 85, 43
1, 192127, Note_off_c, 0, 88, 65
1, 192132, Note_off_c, 0, 76, 65
1, 192140, Note_off_c, 0, 85, 53
1, 192174, Note_on_c, 0, 59, 86
1, 192207, Note_off_c, 0, 59, 67
1, 192275, Note_on_c, 0, 50, 94
1, 192286, Note_on_c, 0, 74, 79
1, 192296, Note_off_c, 0, 50, 73
1, 192305, Note_off_c, 0, 74, 72
1, 192371, Poly_aftertouch_c, 0, 82, 0
1, 192377, Note_on_c, 0, 85, 86
1, 192382, Note_on_c, 0, 73, 89
1, 192385, Note_on_c, 0, 82, 54
1, 192390, Note_on_c, 0, 66, 84
1, 192401, Note_off_c, 0, 73, 68
1, 192404, Note_off_c, 0, 82, 64
1, 192405, Note_off_c, 0, 85, 56
1, 192406, Note_on_c, 0, 62, 60
1, 192411, Note_off_c, 0, 66, 72
1, 192427, Note_off_c, 0, 62, 62
1, 192476, Note_on_c, 0, 62, 96
1, 192502, Note_off_c, 0, 62, 67
1, 192570, Note_on_c, 0, 50, 88
1, 192572, Note_on_c, 0, 71, 95
1, 192585, Note_on_c, 0, 83, 71
1, 192592, Note_off_c, 0, 50, 72
1, 192600, Note_off_c, 0, 83, 68
1, 192607, Note_off_c, 0, 71, 65
1, 192612, Note_on_c, 0, 80, 25
1, 192654, Note_off_c, 0, 80, 32
1, 192667, Note_on_c, 0, 60, 85
1, 192671, Note_on_c, 0, 63, 92
1, 192684, Note_on_c, 0, 59, 57
1, 192687, Note_on_c, 0, 81, 80
1, 192689, Note_on_c, 0, 69, 96
1, 192696, Note_off_c, 0, 63, 64
1, 192701, Note_off_c, 0, 60, 69
1, 192705, Note_off_c, 0, 81, 72
1, 192707, Note_off_c, 0, 59, 37
1, 192719, Note_off_c, 0, 69, 65
1, 192766, Note_on_c, 0, 59, 91
1, 192772, Note_on_c, 0, 64, 94
1, 192790, Note_off_c, 0, 64, 75
1, 192807, Note_off_c, 0, 59, 66
1, 192869, Note_on_c, 0, 50, 87
1, 192889, Note_on_c, 0, 52, 57
1, 192891, Note_off_c, 0, 50, 72
1, 192910, Note_on_c, 0, 66, 56
1, 192917, Note_off_c, 0, 52, 58
1, 192943, Note_off_c, 0, 66, 0
1, 192943, Note_on_c, 0, 66, 42
1, 192951, Note_on_c, 0, 60, 103
1, 192985, Note_off_c, 0, 66, 66
1, 192992, Note_off_c, 0, 60, 70
1, 193036, Note_on_c, 0, 59, 109
1, 193041, Note_on_c, 0, 77, 82
1, 193041, Note_on_c, 0, 67, 88
1, 193062, Note_on_c, 0, 76, 60
1, 193070, Note_off_c, 0, 59, 71
1, 193073, Note_off_c, 0, 67, 66
1, 193076, Note_off_c, 0, 77, 66
1, 193081, Note_off_c, 0, 76, 64
1, 193145, Note_on_c, 0, 75, 89
1, 193176, Note_off_c, 0, 75, 66
1, 193220, Note_on_c, 0, 75, 72
1, 193229, Note_on_c, 0, 76, 91
1, 193265, Note_off_c, 0, 76, 65
1, 193295, Note_off_c, 0, 75, 29
1, 193320, Note_on_c, 0, 45, 94
1, 193322, Note_on_c, 0, 78, 86
1, 193322, Note_on_c, 0, 79, 88
1, 193324, Note_on_c, 0, 38, 92
1, 193326, Note_on_c, 0, 67, 97
1, 193347, Note_off_c, 0, 38, 66
1, 193350, Note_off_c, 0, 45, 67
1, 193372, Note_off_c, 0, 67, 62
1, 193432, Note_on_c, 0, 76, 73
1, 193444, Note_on_c, 0, 67, 40
1, 193465, Note_off_c, 0, 78, 33
1, 193521, Note_off_c, 0, 76, 61
1, 193536, Note_on_c, 0, 75, 76
1, 193536, Note_on_c, 0, 45, 62
1, 193537, Note_on_c, 0, 38, 49
1, 193566, Note_off_c, 0, 38, 57
1, 193569, Note_off_c, 0, 45, 64
1, 193572, Note_off_c, 0, 79, 55
1, 193596, Note_off_c, 0, 75, 58
1, 193612, Note_off_c, 0, 67, 36
1, 193617, Note_on_c, 0, 76, 79
1, 193617, Note_on_c, 0, 45, 90
1, 193619, Note_on_c, 0, 38, 80
1, 193640, Note_off_c, 0, 76, 68
1, 193641, Note_off_c, 0, 45, 69
1, 193645, Note_off_c, 0, 38, 66
1, 193749, Note_on_c, 0, 60, 75
1, 193772, Note_off_c, 0, 60, 69
1, 193834, Note_on_c, 0, 61, 79
1, 193856, Note_off_c, 0, 61, 69
1, 193900, Note_on_c, 0, 76, 81
1, 193903, Note_on_c, 0, 64, 80
1, 193918, Note_on_c, 0, 62, 93
1, 193922, Note_on_c, 0, 55, 73
1, 193936, Note_off_c, 0, 64, 62
1, 193941, Note_on_c, 0, 52, 44
1, 193947, Note_off_c, 0, 76, 63
1, 193952, Note_off_c, 0, 62, 64
1, 193953, Note_off_c, 0, 55, 65
1, 193972, Note_off_c, 0, 52, 54
1, 193992, Note_on_c, 0, 71, 88
1, 194013, Note_on_c, 0, 55, 74
1, 194018, Note_on_c, 0, 61, 88
1, 194034, Note_off_c, 0, 71, 62
1, 194057, Note_off_c, 0, 55, 63
1, 194066, Note_off_c, 0, 61, 63
1, 194081, Note_on_c, 0, 52, 11
1, 194088, Note_on_c, 0, 68, 87
1, 194106, Note_on_c, 0, 60, 92
1, 194108, Note_on_c, 0, 55, 66
1, 194116, Note_off_c, 0, 52, 0
1, 194116, Note_on_c, 0, 52, 31
1, 194129, Note_off_c, 0, 68, 62
1, 194195, Note_on_c, 0, 69, 89
1, 194203, Note_on_c, 0, 61, 94
1, 194211, Note_off_c, 0, 60, 66
1, 194218, Note_off_c, 0, 52, 64
1, 194219, Note_off_c, 0, 55, 62
1, 194235, Note_off_c, 0, 69, 63
1, 194244, Note_off_c, 0, 61, 67
1, 194253, Control_c, 0, 67, 102
1, 194267, Control_c, 0, 67, 99
1, 194282, Note_on_c, 0, 71, 98
1, 194282, Control_c, 0, 67, 105
1, 194297, Control_c, 0, 64, 30
1, 194317, Note_off_c, 0, 71, 65
1, 194356, Control_c, 0, 67, 109
1, 194365, Note_on_c, 0, 66, 98
1, 194380, Note_on_c, 0, 69, 90
1, 194383, Note_on_c, 0, 73, 84
1, 194386, Control_c, 0, 67, 105
1, 194401, Control_c, 0, 67, 101
1, 194406, Note_off_c, 0, 69, 65
1, 194406, Note_off_c, 0, 73, 66
1, 194417, Control_c, 0, 64, 0
1, 194417, Control_c, 0, 67, 97
1, 194418, Note_off_c, 0, 66, 67
1, 194431, Control_c, 0, 67, 95
1, 194445, Control_c, 0, 67, 91
1, 194460, Control_c, 0, 67, 70
1, 194475, Note_on_c, 0, 74, 99
1, 194475, Control_c, 0, 64, 29
1, 194475, Control_c, 0, 67, 44
1, 194488, Note_on_c, 0, 71, 79
1, 194490, Control_c, 0, 67, 0
1, 194508, Note_off_c, 0, 71, 70
1, 194510, Note_on_c, 0, 55, 66
1, 194512, Note_off_c, 0, 74, 67
1, 194513, Note_on_c, 0, 64, 75
1, 194520, Control_c, 0, 64, 0
1, 194545, Note_off_c, 0, 64, 64
1, 194567, Note_off_c, 0, 55, 56
1, 194570, Note_on_c, 0, 76, 84
1, 194577, Note_on_c, 0, 73, 75
1, 194602, Note_off_c, 0, 73, 65
1, 194615, Note_off_c, 0, 76, 61
1, 194623, Control_c, 0, 64, 29
1, 194630, Note_on_c, 0, 62, 51
1, 194657, Note_off_c, 0, 62, 56
1, 194667, Note_on_c, 0, 78, 80
1, 194672, Note_on_c, 0, 74, 67
1, 194682, Control_c, 0, 64, 32
1, 194689, Note_off_c, 0, 74, 65
1, 194697, Control_c, 0, 64, 33
1, 194698, Note_off_c, 0, 78, 63
1, 194712, Control_c, 0, 64, 33
1, 194712, Control_c, 0, 67, 34
1, 194727, Control_c, 0, 64, 34
1, 194727, Control_c, 0, 67, 35
1, 194742, Control_c, 0, 67, 0
1, 194760, Note_on_c, 0, 61, 60
1, 194762, Note_on_c, 0, 51, 53
1, 194771, Control_c, 0, 64, 33
1, 194772, Note_on_c, 0, 76, 56
1, 194772, Note_on_c, 0, 79, 74
1, 194793, Note_off_c, 0, 79, 71
1, 194797, Note_off_c, 0, 61, 62
1, 194799, Note_off_c, 0, 51, 54
1, 194800, Note_off_c, 0, 76, 67
1, 194801, Control_c, 0, 64, 33
1, 194816, Control_c, 0, 64, 32
1, 194830, Control_c, 0, 64, 32
1, 194856, Note_on_c, 0, 81, 76
1, 194858, Note_on_c, 0, 78, 75
1, 194880, Note_on_c, 0, 59, 66
1, 194899, Note_off_c, 0, 81, 65
1, 194900, Note_off_c, 0, 78, 60
1, 194918, Note_off_c, 0, 59, 63
1, 194960, Note_on_c, 0, 83, 77
1, 194988, Note_off_c, 0, 83, 64
1, 195059, Note_on_c, 0, 81, 71
1, 195059, Note_on_c, 0, 57, 66
1, 195062, Note_on_c, 0, 85, 71
1, 195074, Note_on_c, 0, 45, 37
1, 195076, Note_off_c, 0, 45, 45
1, 195083, Note_off_c, 0, 81, 69
1, 195088, Note_off_c, 0, 57, 65
1, 195088, Note_off_c, 0, 85, 68
1, 195137, Note_on_c, 0, 86, 82
1, 195144, Note_on_c, 0, 83, 78
1, 195167, Note_on_c, 0, 55, 53
1, 195169, Note_off_c, 0, 83, 64
1, 195180, Note_off_c, 0, 86, 65
1, 195193, Note_on_c, 0, 53, 35
1, 195195, Note_off_c, 0, 55, 58
1, 195235, Note_on_c, 0, 85, 87
1, 195235, Note_on_c, 0, 88, 87
1, 195238, Note_off_c, 0, 53, 30
1, 195253, Control_c, 0, 64, 0
1, 195259, Note_off_c, 0, 85, 65
1, 195270, Note_off_c, 0, 88, 70
1, 195314, Note_on_c, 0, 54, 89
1, 195316, Note_on_c, 0, 50, 87
1, 195325, Note_on_c, 0, 86, 100
1, 195326, Note_on_c, 0, 90, 101
1, 195333, Note_off_c, 0, 54, 73
1, 195337, Note_on_c, 0, 92, 72
1, 195337, Note_off_c, 0, 92, 127
1, 195337, Note_off_c, 0, 50, 70
1, 195343, Control_c, 0, 64, 65
1, 195351, Note_off_c, 0, 86, 71
1, 195357, Control_c, 0, 64, 127
1, 195363, Note_off_c, 0, 90, 68
1, 195459, Note_on_c, 0, 92, 70
1, 195465, Note_on_c, 0, 80, 82
1, 195483, Note_off_c, 0, 80, 74
1, 195485, Note_off_c, 0, 92, 70
1, 195551, Note_on_c, 0, 93, 87
1, 195560, Note_on_c, 0, 81, 83
1, 195581, Note_off_c, 0, 81, 68
1, 195588, Note_off_c, 0, 93, 62
1, 195666, Note_on_c, 0, 95, 91
1, 195678, Note_on_c, 0, 83, 80
1, 195691, Note_on_c, 0, 90, 50
1, 195697, Note_on_c, 0, 32, 83
1, 195703, Note_on_c, 0, 86, 34
1, 195703, Note_off_c, 0, 83, 65
1, 195704, Note_on_c, 0, 26, 60
1, 195704, Note_on_c, 0, 38, 71
1, 195706, Note_off_c, 0, 95, 67
1, 195713, Note_off_c, 0, 90, 55
1, 195725, Note_off_c, 0, 32, 63
1, 195732, Note_off_c, 0, 38, 62
1, 195735, Note_off_c, 0, 26, 58
1, 195737, Note_off_c, 0, 86, 46
1, 195766, Note_on_c, 0, 93, 93
1, 195771, Note_on_c, 0, 86, 77
1, 195772, Note_on_c, 0, 32, 99
1, 195772, Note_on_c, 0, 81, 89
1, 195778, Note_on_c, 0, 38, 85
1, 195778, Note_on_c, 0, 90, 72
1, 195778, Poly_aftertouch_c, 0, 88, 0
1, 195781, Note_on_c, 0, 26, 60
1, 195801, Note_off_c, 0, 90, 70
1, 195802, Note_off_c, 0, 86, 62
1, 195805, Note_off_c, 0, 81, 64
1, 195808, Note_off_c, 0, 93, 62
1, 195809, Note_off_c, 0, 38, 63
1, 195811, Note_off_c, 0, 32, 61
1, 195813, Note_off_c, 0, 26, 65
1, 195861, Note_on_c, 0, 92, 90
1, 195862, Note_on_c, 0, 33, 95
1, 195863, Note_on_c, 0, 80, 92
1, 195866, Note_on_c, 0, 86, 85
1, 195867, Note_on_c, 0, 26, 80
1, 195876, Note_on_c, 0, 38, 75
1, 195882, Note_on_c, 0, 89, 52
1, 195886, Note_off_c, 0, 92, 63
1, 195887, Note_on_c, 0, 90, 44
1, 195900, Note_off_c, 0, 26, 66
1, 195900, Note_off_c, 0, 38, 66
1, 195900, Note_off_c, 0, 80, 63
1, 195901, Note_off_c, 0, 86, 65
1, 195902, Note_on_c, 0, 85, 25
1, 195902, Note_off_c, 0, 85, 127
1, 195906, Note_off_c, 0, 89, 59
1, 195908, Note_off_c, 0, 33, 64
1, 195915, Note_off_c, 0, 90, 47
1, 195945, Poly_aftertouch_c, 0, 86, 0
1, 195946, Note_on_c, 0, 81, 105
1, 195946, Note_on_c, 0, 93, 113
1, 195949, Note_on_c, 0, 38, 93
1, 195949, Note_on_c, 0, 86, 84
1, 195951, Note_on_c, 0, 90, 88
1, 195951, Note_on_c, 0, 33, 88
1, 195954, Note_on_c, 0, 26, 86
1, 195963, Note_on_c, 0, 91, 67
1, 195963, Note_off_c, 0, 91, 127
1, 195969, Note_on_c, 0, 87, 51
1, 195972, Poly_aftertouch_c, 0, 79, 0
1, 195976, Note_off_c, 0, 38, 64
1, 195977, Note_off_c, 0, 33, 68
1, 195977, Note_off_c, 0, 93, 66
1, 195978, Poly_aftertouch_c, 0, 91, 0
1, 195979, Note_off_c, 0, 26, 66
1, 195980, Note_off_c, 0, 81, 71
1, 195992, Note_off_c, 0, 86, 63
1, 195995, Note_off_c, 0, 87, 40
1, 196030, Note_off_c, 0, 90, 36
1, 196121, Control_c, 0, 64, 80
1, 196135, Control_c, 0, 64, 58
1, 196150, Control_c, 0, 64, 0
1, 196325, Note_on_c, 0, 44, 77
1, 196343, Control_c, 0, 67, 50
1, 196349, Note_off_c, 0, 44, 67
1, 196358, Control_c, 0, 67, 85
1, 196380, Control_c, 0, 67, 104
1, 196425, Control_c, 0, 67, 108
1, 196429, Note_on_c, 0, 45, 73
1, 196439, Control_c, 0, 67, 114
1, 196454, Control_c, 0, 67, 127
1, 196456, Note_off_c, 0, 45, 65
1, 196502, Note_on_c, 0, 42, 76
1, 196507, Note_on_c, 0, 54, 70
1, 196518, Note_on_c, 0, 38, 40
1, 196523, Note_on_c, 0, 47, 74
1, 196533, Note_off_c, 0, 42, 63
1, 196548, Note_off_c, 0, 47, 66
1, 196553, Note_off_c, 0, 54, 61
1, 196555, Note_off_c, 0, 38, 52
1, 196596, Note_on_c, 0, 49, 87
1, 196597, Note_on_c, 0, 45, 75
1, 196639, Note_off_c, 0, 45, 62
1, 196639, Note_off_c, 0, 49, 63
1, 196698, Note_on_c, 0, 44, 83
1, 196698, Note_on_c, 0, 50, 88
1, 196731, Note_off_c, 0, 50, 67
1, 196736, Note_off_c, 0, 44, 62
1, 196791, Note_on_c, 0, 45, 92
1, 196791, Note_on_c, 0, 52, 95
1, 196794, Note_on_c, 0, 38, 92
1, 196839, Note_off_c, 0, 45, 64
1, 196842, Note_off_c, 0, 52, 65
1, 196848, Note_off_c, 0, 38, 62
1, 196891, Note_on_c, 0, 53, 88
1, 196925, Note_off_c, 0, 53, 65
1, 196992, Note_on_c, 0, 49, 79
1, 196998, Note_on_c, 0, 61, 77
1, 197001, Note_on_c, 0, 54, 78
1, 197027, Note_off_c, 0, 54, 66
1, 197032, Note_off_c, 0, 49, 61
1, 197044, Note_off_c, 0, 61, 57
1, 197095, Note_on_c, 0, 47, 89
1, 197101, Note_on_c, 0, 55, 85
1, 197148, Note_off_c, 0, 55, 65
1, 197207, Note_on_c, 0, 56, 85
1, 197213, Note_off_c, 0, 47, 59
1, 197236, Note_off_c, 0, 56, 64
1, 197287, Note_on_c, 0, 38, 73
1, 197304, Note_on_c, 0, 57, 84
1, 197314, Note_off_c, 0, 38, 66
1, 197322, Note_on_c, 0, 55, 55
1, 197328, Note_off_c, 0, 57, 70
1, 197336, Note_on_c, 0, 58, 38
1, 197336, Note_off_c, 0, 58, 127
1, 197348, Note_off_c, 0, 55, 59
1, 197396, Note_on_c, 0, 55, 96
1, 197399, Note_on_c, 0, 59, 100
1, 197399, Note_on_c, 0, 45, 80
1, 197416, Note_on_c, 0, 44, 51
1, 197416, Note_off_c, 0, 44, 127
1, 197426, Note_on_c, 0, 63, 51
1, 197440, Note_off_c, 0, 59, 68
1, 197454, Note_off_c, 0, 63, 38
1, 197486, Note_on_c, 0, 61, 91
1, 197516, Note_off_c, 0, 55, 62
1, 197525, Note_off_c, 0, 45, 62
1, 197528, Note_off_c, 0, 61, 68
1, 197558, Control_c, 0, 64, 29
1, 197586, Note_on_c, 0, 54, 91
1, 197589, Note_on_c, 0, 62, 92
1, 197595, Note_on_c, 0, 45, 72
1, 197626, Note_off_c, 0, 45, 64
1, 197626, Note_off_c, 0, 62, 63
1, 197631, Note_off_c, 0, 54, 64
1, 197677, Note_on_c, 0, 64, 88
1, 197680, Note_on_c, 0, 43, 96
1, 197682, Note_on_c, 0, 52, 99
1, 197722, Note_on_c, 0, 50, 27
1, 197722, Note_off_c, 0, 50, 127
1, 197730, Note_off_c, 0, 64, 67
1, 197737, Control_c, 0, 64, 31
1, 197753, Note_off_c, 0, 43, 58
1, 197759, Note_off_c, 0, 52, 60
1, 197774, Note_on_c, 0, 65, 92
1, 197813, Note_off_c, 0, 65, 65
1, 197861, Note_on_c, 0, 38, 81
1, 197874, Note_on_c, 0, 50, 71
1, 197876, Note_on_c, 0, 48, 70
1, 197877, Note_on_c, 0, 66, 98
1, 197878, Control_c, 0, 64, 32
1, 197893, Note_off_c, 0, 38, 65
1, 197893, Control_c, 0, 64, 34
1, 197901, Note_off_c, 0, 50, 64
1, 197906, Note_off_c, 0, 48, 65
1, 197907, Control_c, 0, 64, 36
1, 197916, Note_off_c, 0, 66, 66
1, 197922, Control_c, 0, 64, 36
1, 197937, Control_c, 0, 64, 37
1, 197952, Control_c, 0, 64, 37
1, 197967, Control_c, 0, 64, 38
1, 197968, Note_on_c, 0, 59, 100
1, 197974, Note_on_c, 0, 67, 101
1, 197978, Note_on_c, 0, 64, 92
1, 197981, Control_c, 0, 64, 38
1, 197996, Control_c, 0, 64, 38
1, 198000, Note_off_c, 0, 64, 69
1, 198004, Note_on_c, 0, 50, 40
1, 198004, Note_off_c, 0, 50, 127
1, 198007, Note_off_c, 0, 59, 69
1, 198010, Note_on_c, 0, 51, 35
1, 198010, Note_off_c, 0, 51, 127
1, 198010, Note_off_c, 0, 67, 66
1, 198011, Control_c, 0, 64, 37
1, 198025, Control_c, 0, 64, 35
1, 198040, Control_c, 0, 64, 34
1, 198054, Poly_aftertouch_c, 0, 50, 0
1, 198057, Poly_aftertouch_c, 0, 51, 0
1, 198070, Note_on_c, 0, 69, 90
1, 198070, Control_c, 0, 64, 34
1, 198079, Note_on_c, 0, 67, 62
1, 198085, Note_on_c, 0, 66, 74
1, 198097, Note_off_c, 0, 67, 63
1, 198108, Note_off_c, 0, 66, 69
1, 198117, Note_off_c, 0, 69, 64
1, 198130, Control_c, 0, 64, 34
1, 198162, Note_on_c, 0, 66, 74
1, 198170, Note_on_c, 0, 71, 71
1, 198171, Note_on_c, 0, 69, 46
1, 198178, Note_on_c, 0, 72, 68
1, 198188, Note_off_c, 0, 66, 69
1, 198194, Note_off_c, 0, 71, 68
1, 198198, Note_off_c, 0, 69, 57
1, 198201, Note_off_c, 0, 72, 64
1, 198204, Control_c, 0, 64, 34
1, 198270, Note_on_c, 0, 47, 71
1, 198275, Note_on_c, 0, 77, 77
1, 198276, Note_on_c, 0, 43, 56
1, 198293, Note_on_c, 0, 79, 66
1, 198306, Note_off_c, 0, 43, 63
1, 198311, Note_off_c, 0, 47, 65
1, 198314, Note_on_c, 0, 67, 42
1, 198322, Note_off_c, 0, 79, 48
1, 198326, Note_off_c, 0, 77, 57
1, 198338, Control_c, 0, 64, 34
1, 198353, Control_c, 0, 64, 36
1, 198368, Control_c, 0, 64, 37
1, 198379, Note_on_c, 0, 49, 73
1, 198380, Note_on_c, 0, 79, 62
1, 198382, Control_c, 0, 64, 38
1, 198385, Note_off_c, 0, 67, 0
1, 198385, Note_on_c, 0, 67, 37
1, 198398, Control_c, 0, 64, 38
1, 198413, Note_off_c, 0, 49, 66
1, 198413, Control_c, 0, 64, 39
1, 198449, Note_on_c, 0, 51, 79
1, 198450, Note_off_c, 0, 79, 62
1, 198458, Control_c, 0, 64, 38
1, 198464, Note_off_c, 0, 67, 62
1, 198472, Control_c, 0, 64, 37
1, 198476, Note_off_c, 0, 51, 67
1, 198550, Note_on_c, 0, 47, 73
1, 198553, Note_on_c, 0, 52, 76
1, 198565, Note_on_c, 0, 76, 76
1, 198580, Note_on_c, 0, 64, 68
1, 198586, Note_off_c, 0, 47, 64
1, 198587, Note_off_c, 0, 52, 65
1, 198605, Control_c, 0, 64, 38
1, 198607, Note_off_c, 0, 64, 66
1, 198627, Control_c, 0, 64, 38
1, 198663, Note_on_c, 0, 54, 78
1, 198699, Note_off_c, 0, 54, 60
1, 198705, Note_on_c, 0, 70, 15
1, 198723, Note_on_c, 0, 64, 6
1, 198729, Note_off_c, 0, 76, 55
1, 198742, Note_off_c, 0, 70, 41
1, 198756, Note_on_c, 0, 55, 72
1, 198776, Control_c, 0, 64, 38
1, 198777, Note_off_c, 0, 64, 52
1, 198782, Note_off_c, 0, 55, 66
1, 198791, Control_c, 0, 64, 37
1, 198805, Control_c, 0, 64, 34
1, 198820, Control_c, 0, 64, 32
1, 198846, Note_on_c, 0, 55, 74
1, 198849, Control_c, 0, 64, 0
1, 198850, Note_on_c, 0, 52, 68
1, 198850, Note_on_c, 0, 71, 75
1, 198869, Note_on_c, 0, 64, 47
1, 198875, Note_off_c, 0, 71, 65
1, 198881, Note_off_c, 0, 55, 61
1, 198883, Note_off_c, 0, 52, 64
1, 198895, Note_off_c, 0, 64, 59
1, 198943, Note_on_c, 0, 73, 74
1, 198952, Note_on_c, 0, 57, 70
1, 198969, Note_off_c, 0, 73, 66
1, 198976, Note_on_c, 0, 64, 43
1, 198979, Note_off_c, 0, 57, 66
1, 199006, Note_off_c, 0, 64, 35
1, 199034, Note_on_c, 0, 59, 76
1, 199036, Note_on_c, 0, 74, 87
1, 199057, Note_on_c, 0, 64, 60
1, 199068, Note_off_c, 0, 59, 65
1, 199077, Note_off_c, 0, 64, 63
1, 199078, Note_off_c, 0, 74, 60
1, 199123, Note_on_c, 0, 57, 90
1, 199133, Note_on_c, 0, 73, 86
1, 199140, Note_on_c, 0, 64, 76
1, 199169, Note_off_c, 0, 64, 65
1, 199180, Note_off_c, 0, 73, 62
1, 199228, Note_on_c, 0, 74, 84
1, 199235, Note_on_c, 0, 71, 80
1, 199246, Note_off_c, 0, 57, 65
1, 199264, Note_off_c, 0, 71, 62
1, 199272, Note_off_c, 0, 74, 66
1, 199325, Note_on_c, 0, 76, 90
1, 199328, Note_on_c, 0, 55, 84
1, 199331, Note_on_c, 0, 67, 84
1, 199342, Note_on_c, 0, 73, 65
1, 199354, Note_off_c, 0, 55, 66
1, 199357, Note_off_c, 0, 67, 66
1, 199361, Note_off_c, 0, 73, 67
1, 199374, Note_off_c, 0, 76, 65
1, 199426, Note_on_c, 0, 74, 103
1, 199430, Note_on_c, 0, 54, 101
1, 199430, Note_on_c, 0, 66, 107
1, 199435, Control_c, 0, 64, 29
1, 199436, Note_on_c, 0, 71, 83
1, 199455, Note_off_c, 0, 71, 71
1, 199467, Note_off_c, 0, 74, 66
1, 199495, Control_c, 0, 64, 31
1, 199510, Control_c, 0, 64, 33
1, 199524, Note_on_c, 0, 76, 87
1, 199525, Control_c, 0, 64, 34
1, 199527, Note_on_c, 0, 73, 84
1, 199540, Control_c, 0, 64, 35
1, 199553, Note_off_c, 0, 66, 58
1, 199560, Note_off_c, 0, 73, 64
1, 199566, Note_off_c, 0, 54, 63
1, 199566, Note_off_c, 0, 76, 64
1, 199584, Control_c, 0, 64, 33
1, 199599, Control_c, 0, 64, 32
1, 199621, Note_on_c, 0, 74, 97
1, 199624, Note_on_c, 0, 64, 98
1, 199628, Note_on_c, 0, 52, 93
1, 199635, Note_on_c, 0, 78, 70
1, 199641, Note_on_c, 0, 73, 48
1, 199648, Note_on_c, 0, 76, 49
1, 199658, Note_off_c, 0, 78, 68
1, 199661, Note_off_c, 0, 74, 63
1, 199662, Note_off_c, 0, 52, 63
1, 199662, Note_off_c, 0, 64, 67
1, 199667, Note_off_c, 0, 73, 59
1, 199669, Note_off_c, 0, 76, 60
1, 199672, Control_c, 0, 67, 114
1, 199687, Control_c, 0, 64, 30
1, 199687, Control_c, 0, 67, 96
1, 199702, Control_c, 0, 67, 94
1, 199713, Note_on_c, 0, 62, 108
1, 199715, Note_on_c, 0, 50, 108
1, 199717, Control_c, 0, 64, 35
1, 199717, Control_c, 0, 67, 91
1, 199720, Note_on_c, 0, 68, 99
1, 199726, Note_on_c, 0, 80, 76
1, 199732, Control_c, 0, 64, 53
1, 199732, Control_c, 0, 67, 78
1, 199744, Note_on_c, 0, 51, 58
1, 199746, Note_off_c, 0, 68, 67
1, 199746, Note_off_c, 0, 80, 71
1, 199746, Control_c, 0, 64, 71
1, 199746, Control_c, 0, 67, 52
1, 199751, Note_on_c, 0, 73, 35
1, 199751, Note_off_c, 0, 73, 127
1, 199761, Control_c, 0, 64, 93
1, 199761, Control_c, 0, 67, 0
1, 199774, Note_off_c, 0, 51, 59
1, 199776, Control_c, 0, 64, 127
1, 199782, Note_off_c, 0, 62, 64
1, 199815, Note_on_c, 0, 69, 96
1, 199817, Note_off_c, 0, 50, 68
1, 199819, Note_on_c, 0, 81, 78
1, 199822, Note_on_c, 0, 79, 66
1, 199829, Note_on_c, 0, 78, 57
1, 199842, Note_off_c, 0, 81, 69
1, 199844, Note_off_c, 0, 79, 70
1, 199848, Note_off_c, 0, 69, 66
1, 199850, Note_off_c, 0, 78, 59
1, 199901, Note_on_c, 0, 61, 103
1, 199903, Note_on_c, 0, 49, 101
1, 199909, Note_on_c, 0, 83, 95
1, 199910, Note_on_c, 0, 71, 106
1, 199936, Note_off_c, 0, 61, 68
1, 199939, Note_off_c, 0, 49, 63
1, 199941, Note_off_c, 0, 71, 68
1, 199945, Note_off_c, 0, 83, 67
1, 199996, Note_on_c, 0, 59, 113
1, 199999, Note_on_c, 0, 47, 103
1, 200002, Note_on_c, 0, 85, 102
1, 200006, Note_on_c, 0, 73, 100
1, 200036, Note_off_c, 0, 85, 69
1, 200037, Note_off_c, 0, 59, 69
1, 200037, Note_off_c, 0, 73, 68
1, 200039, Note_off_c, 0, 47, 67
1, 200077, Poly_aftertouch_c, 0, 48, 127
1, 200097, Note_on_c, 0, 74, 106
1, 200098, Note_on_c, 0, 86, 100
1, 200128, Poly_aftertouch_c, 0, 48, 0
1, 200133, Note_on_c, 0, 85, 54
1, 200139, Note_off_c, 0, 74, 70
1, 200139, Note_off_c, 0, 86, 69
1, 200156, Note_off_c, 0, 85, 56
1, 200192, Note_on_c, 0, 61, 100
1, 200194, Note_on_c, 0, 49, 95
1, 200201, Note_on_c, 0, 88, 95
1, 200204, Note_on_c, 0, 76, 102
1, 200214, Note_off_c, 0, 61, 71
1, 200223, Note_on_c, 0, 87, 62
1, 200227, Note_off_c, 0, 49, 64
1, 200228, Note_off_c, 0, 88, 60
1, 200231, Note_off_c, 0, 76, 70
1, 200241, Note_off_c, 0, 87, 63
1, 200258, Control_c, 0, 64, 86
1, 200273, Control_c, 0, 64, 56
1, 200288, Control_c, 0, 64, 33
1, 200295, Note_on_c, 0, 54, 105
1, 200296, Note_on_c, 0, 42, 114
1, 200298, Note_on_c, 0, 82, 104
1, 200303, Control_c, 0, 64, 63
1, 200307, Note_on_c, 0, 70, 101
1, 200309, Poly_aftertouch_c, 0, 48, 0
1, 200310, Note_off_c, 0, 54, 76
1, 200318, Control_c, 0, 64, 127
1, 200318, Note_on_c, 0, 44, 60
1, 200318, Note_off_c, 0, 44, 127
1, 200318, Note_off_c, 0, 42, 68
1, 200321, Note_off_c, 0, 70, 78
1, 200334, Note_on_c, 0, 83, 46
1, 200334, Note_off_c, 0, 82, 67
1, 200357, Note_off_c, 0, 83, 60
1, 200415, Poly_aftertouch_c, 0, 41, 0
1, 200419, Note_on_c, 0, 90, 102
1, 200420, Note_on_c, 0, 78, 107
1, 200437, Note_off_c, 0, 90, 65
1, 200438, Note_on_c, 0, 87, 59
1, 200446, Note_off_c, 0, 78, 56
1, 200460, Note_off_c, 0, 87, 62
1, 200520, Note_on_c, 0, 92, 101
1, 200520, Note_on_c, 0, 80, 105
1, 200524, Note_on_c, 0, 90, 88
1, 200556, Note_on_c, 0, 91, 45
1, 200557, Note_off_c, 0, 80, 66
1, 200568, Note_off_c, 0, 90, 61
1, 200577, Note_off_c, 0, 92, 65
1, 200581, Note_off_c, 0, 91, 56
1, 200659, Note_on_c, 0, 94, 103
1, 200660, Note_on_c, 0, 52, 108
1, 200661, Note_on_c, 0, 40, 103
1, 200661, Note_on_c, 0, 82, 99
1, 200668, Note_on_c, 0, 92, 88
1, 200669, Note_on_c, 0, 80, 92
1, 200673, Control_c, 0, 64, 84
1, 200688, Control_c, 0, 64, 46
1, 200702, Note_off_c, 0, 80, 64
1, 200702, Control_c, 0, 64, 0
1, 200706, Note_off_c, 0, 82, 63
1, 200713, Note_off_c, 0, 94, 67
1, 200720, Note_on_c, 0, 93, 9
1, 200729, Note_off_c, 0, 92, 64
1, 200732, Control_c, 0, 64, 57
1, 200747, Control_c, 0, 64, 85
1, 200762, Control_c, 0, 64, 127
1, 200779, Note_off_c, 0, 93, 48
1, 200786, Note_on_c, 0, 95, 99
1, 200792, Note_on_c, 0, 83, 98
1, 200814, Note_on_c, 0, 93, 44
1, 200826, Note_off_c, 0, 83, 67
1, 200835, Note_off_c, 0, 95, 68
1, 200850, Note_off_c, 0, 93, 52
1, 200916, Note_on_c, 0, 97, 107
1, 200919, Note_on_c, 0, 85, 109
1, 200919, Note_off_c, 0, 40, 60
1, 200955, Note_off_c, 0, 85, 66
1, 200970, Note_off_c, 0, 52, 51
1, 200973, Note_off_c, 0, 97, 66
1, 201058, Note_on_c, 0, 53, 103
1, 201059, Note_on_c, 0, 41, 101
1, 201063, Note_on_c, 0, 98, 113
1, 201066, Note_on_c, 0, 92, 103
1, 201066, Control_c, 0, 64, 68
1, 201067, Note_on_c, 0, 86, 105
1, 201081, Control_c, 0, 64, 0
1, 201093, Note_off_c, 0, 53, 67
1, 201102, Note_off_c, 0, 41, 68
1, 201111, Control_c, 0, 64, 51
1, 201125, Control_c, 0, 64, 82
1, 201140, Control_c, 0, 64, 127
1, 201179, Poly_aftertouch_c, 0, 42, 0
1, 201225, Note_off_c, 0, 86, 55
1, 201235, Note_off_c, 0, 98, 63
1, 201248, Note_on_c, 0, 35, 104
1, 201278, Note_off_c, 0, 35, 67
1, 201292, Note_off_c, 0, 92, 63
1, 201341, Note_on_c, 0, 97, 84
1, 201345, Note_on_c, 0, 85, 94
1, 201361, Note_off_c, 0, 85, 72
1, 201364, Note_off_c, 0, 97, 68
1, 201413, Note_on_c, 0, 42, 108
1, 201420, Note_on_c, 0, 54, 93
1, 201421, Note_on_c, 0, 95, 100
1, 201423, Control_c, 0, 64, 79
1, 201424, Note_on_c, 0, 83, 99
1, 201424, Note_on_c, 0, 86, 100
1, 201437, Note_on_c, 0, 81, 61
1, 201437, Note_off_c, 0, 81, 127
1, 201438, Note_on_c, 0, 93, 73
1, 201438, Control_c, 0, 64, 55
1, 201438, Note_off_c, 0, 54, 71
1, 201444, Note_off_c, 0, 42, 64
1, 201452, Control_c, 0, 64, 47
1, 201456, Note_off_c, 0, 93, 58
1, 201467, Control_c, 0, 64, 63
1, 201482, Control_c, 0, 64, 84
1, 201497, Control_c, 0, 64, 127
1, 201535, Note_off_c, 0, 83, 50
1, 201549, Note_off_c, 0, 86, 27
1, 201557, Note_on_c, 0, 35, 106
1, 201576, Note_off_c, 0, 95, 66
1, 201583, Note_off_c, 0, 35, 68
1, 201586, Control_c, 0, 64, 87
1, 201602, Control_c, 0, 64, 77
1, 201623, Control_c, 0, 64, 85
1, 201638, Control_c, 0, 64, 127
1, 201656, Note_on_c, 0, 86, 93
1, 201661, Note_on_c, 0, 98, 88
1, 201677, Note_off_c, 0, 86, 67
1, 201681, Note_off_c, 0, 98, 72
1, 201695, Note_on_c, 0, 94, 31
1, 201695, Note_off_c, 0, 94, 127
1, 201731, Note_on_c, 0, 43, 92
1, 201731, Note_on_c, 0, 97, 107
1, 201734, Note_on_c, 0, 55, 94
1, 201739, Note_on_c, 0, 85, 97
1, 201740, Note_on_c, 0, 88, 98
1, 201751, Note_off_c, 0, 55, 74
1, 201766, Note_on_c, 0, 87, 47
1, 201766, Note_off_c, 0, 87, 127
1, 201766, Note_off_c, 0, 43, 64
1, 201787, Control_c, 0, 64, 85
1, 201802, Control_c, 0, 64, 57
1, 201817, Control_c, 0, 64, 0
1, 201818, Note_off_c, 0, 85, 0
1, 201831, Control_c, 0, 64, 43
1, 201846, Control_c, 0, 64, 68
1, 201855, Poly_aftertouch_c, 0, 85, 127
1, 201861, Control_c, 0, 64, 127
1, 201874, Note_on_c, 0, 35, 103
1, 201886, Poly_aftertouch_c, 0, 85, 0
1, 201898, Note_off_c, 0, 88, 63
1, 201900, Note_off_c, 0, 35, 69
1, 201900, Note_off_c, 0, 97, 62
1, 201912, Note_on_c, 0, 36, 23
1, 201912, Note_off_c, 0, 36, 127
1, 201950, Poly_aftertouch_c, 0, 36, 0
1, 201963, Control_c, 0, 64, 114
1, 201965, Note_on_c, 0, 83, 100
1, 201972, Note_on_c, 0, 95, 70
1, 201978, Control_c, 0, 64, 77
1, 201987, Note_on_c, 0, 92, 51
1, 201989, Note_off_c, 0, 95, 67
1, 201993, Note_off_c, 0, 83, 68
1, 201993, Control_c, 0, 64, 62
1, 202008, Control_c, 0, 64, 57
1, 202014, Note_off_c, 0, 92, 58
1, 202023, Control_c, 0, 64, 68
1, 202029, Note_on_c, 0, 44, 104
1, 202031, Note_on_c, 0, 56, 101
1, 202038, Control_c, 0, 64, 127
1, 202044, Note_on_c, 0, 94, 102
1, 202047, Note_on_c, 0, 82, 104
1, 202047, Note_on_c, 0, 88, 100
1, 202047, Note_off_c, 0, 56, 75
1, 202050, Note_on_c, 0, 87, 64
1, 202067, Note_off_c, 0, 44, 64
1, 202076, Note_on_c, 0, 81, 55
1, 202077, Note_on_c, 0, 92, 44
1, 202096, Note_off_c, 0, 81, 63
1, 202110, Note_off_c, 0, 87, 53
1, 202112, Note_off_c, 0, 92, 53
1, 202127, Note_off_c, 0, 82, 52
1, 202144, Note_off_c, 0, 88, 0
1, 202175, Note_on_c, 0, 88, 10
1, 202179, Note_on_c, 0, 35, 102
1, 202205, Note_off_c, 0, 35, 66
1, 202209, Note_off_c, 0, 88, 48
1, 202210, Note_off_c, 0, 94, 56
1, 202231, Poly_aftertouch_c, 0, 87, 0
1, 202245, Control_c, 0, 64, 75
1, 202258, Note_on_c, 0, 83, 95
1, 202260, Control_c, 0, 64, 40
1, 202269, Note_on_c, 0, 87, 40
1, 202270, Note_on_c, 0, 95, 59
1, 202274, Control_c, 0, 64, 0
1, 202278, Note_off_c, 0, 83, 66
1, 202288, Note_off_c, 0, 95, 61
1, 202293, Note_off_c, 0, 87, 55
1, 202304, Control_c, 0, 64, 52
1, 202319, Control_c, 0, 64, 90
1, 202333, Note_on_c, 0, 46, 108
1, 202333, Control_c, 0, 64, 127
1, 202338, Note_on_c, 0, 97, 101
1, 202339, Note_on_c, 0, 58, 95
1, 202343, Note_on_c, 0, 88, 89
1, 202345, Note_on_c, 0, 85, 109
1, 202359, Note_off_c, 0, 58, 71
1, 202373, Note_off_c, 0, 46, 63
1, 202402, Note_off_c, 0, 88, 62
1, 202440, Note_off_c, 0, 85, 59
1, 202461, Note_off_c, 0, 97, 60
1, 202497, Note_on_c, 0, 35, 97
1, 202522, Note_off_c, 0, 35, 66
1, 202568, Note_on_c, 0, 83, 85
1, 202580, Note_on_c, 0, 95, 50
1, 202592, Note_off_c, 0, 83, 65
1, 202594, Control_c, 0, 64, 71
1, 202605, Note_off_c, 0, 95, 56
1, 202609, Control_c, 0, 64, 0
1, 202638, Note_on_c, 0, 49, 102
1, 202638, Control_c, 0, 64, 52
1, 202640, Note_on_c, 0, 61, 97
1, 202640, Note_on_c, 0, 88, 86
1, 202642, Note_on_c, 0, 82, 103
1, 202644, Note_on_c, 0, 94, 100
1, 202653, Control_c, 0, 64, 85
1, 202657, Note_off_c, 0, 61, 70
1, 202668, Control_c, 0, 64, 127
1, 202672, Note_off_c, 0, 49, 60
1, 202673, Note_on_c, 0, 81, 50
1, 202681, Note_on_c, 0, 87, 38
1, 202681, Note_off_c, 0, 87, 127
1, 202690, Note_on_c, 0, 51, 23
1, 202692, Note_off_c, 0, 81, 63
1, 202710, Note_off_c, 0, 82, 61
1, 202717, Note_off_c, 0, 94, 65
1, 202725, Note_off_c, 0, 88, 0
1, 202740, Note_on_c, 0, 88, 51
1, 202741, Note_off_c, 0, 51, 51
1, 202787, Note_on_c, 0, 35, 103
1, 202808, Note_off_c, 0, 35, 69
1, 202845, Control_c, 0, 64, 96
1, 202860, Control_c, 0, 64, 59
1, 202866, Note_on_c, 0, 97, 82
1, 202869, Note_off_c, 0, 88, 64
1, 202875, Control_c, 0, 64, 0
1, 202878, Note_on_c, 0, 85, 75
1, 202888, Note_off_c, 0, 97, 70
1, 202890, Control_c, 0, 64, 34
1, 202899, Note_off_c, 0, 85, 69
1, 202905, Control_c, 0, 64, 72
1, 202920, Control_c, 0, 64, 127
1, 202935, Note_on_c, 0, 50, 93
1, 202938, Note_on_c, 0, 62, 103
1, 202949, Note_on_c, 0, 78, 105
1, 202949, Note_on_c, 0, 90, 84
1, 202956, Note_on_c, 0, 83, 82
1, 202958, Note_off_c, 0, 62, 68
1, 202968, Note_off_c, 0, 78, 64
1, 202969, Note_off_c, 0, 50, 66
1, 202974, Note_off_c, 0, 83, 72
1, 202986, Note_off_c, 0, 90, 64
1, 203006, Note_on_c, 0, 87, 26
1, 203044, Note_off_c, 0, 87, 48
1, 203053, Control_c, 0, 64, 68
1, 203068, Control_c, 0, 64, 0
1, 203089, Note_on_c, 0, 67, 53
1, 203098, Note_on_c, 0, 36, 112
1, 203102, Note_on_c, 0, 65, 40
1, 203121, Note_off_c, 0, 67, 40
1, 203131, Note_off_c, 0, 36, 69
1, 203143, Note_off_c, 0, 65, 36
1, 203149, Control_c, 0, 67, 40
1, 203164, Control_c, 0, 67, 43
1, 203179, Control_c, 0, 67, 48
1, 203182, Note_on_c, 0, 78, 66
1, 203183, Note_on_c, 0, 66, 83
1, 203194, Control_c, 0, 67, 69
1, 203206, Note_off_c, 0, 66, 71
1, 203206, Note_off_c, 0, 78, 63
1, 203209, Control_c, 0, 67, 111
1, 203224, Control_c, 0, 67, 127
1, 203266, Note_on_c, 0, 49, 86
1, 203271, Note_on_c, 0, 71, 87
1, 203273, Note_on_c, 0, 67, 88
1, 203274, Note_on_c, 0, 61, 70
1, 203287, Note_off_c, 0, 49, 68
1, 203289, Note_off_c, 0, 71, 72
1, 203290, Note_off_c, 0, 67, 74
1, 203293, Note_on_c, 0, 79, 41
1, 203293, Note_off_c, 0, 61, 45
1, 203298, Note_on_c, 0, 73, 36
1, 203298, Note_off_c, 0, 73, 127
1, 203319, Note_off_c, 0, 79, 58
1, 203327, Note_on_c, 0, 51, 3
1, 203366, Note_off_c, 0, 51, 27
1, 203376, Note_on_c, 0, 66, 95
1, 203379, Note_on_c, 0, 78, 74
1, 203396, Note_off_c, 0, 66, 72
1, 203400, Note_off_c, 0, 78, 69
1, 203405, Note_on_c, 0, 35, 96
1, 203430, Note_off_c, 0, 35, 68
1, 203474, Note_on_c, 0, 65, 94
1, 203478, Note_on_c, 0, 77, 78
1, 203495, Note_on_c, 0, 75, 57
1, 203500, Note_off_c, 0, 77, 71
1, 203504, Note_off_c, 0, 65, 68
1, 203515, Note_off_c, 0, 75, 39
1, 203564, Note_on_c, 0, 50, 85
1, 203566, Note_on_c, 0, 52, 73
1, 203570, Note_on_c, 0, 62, 72
1, 203570, Note_on_c, 0, 78, 95
1, 203571, Note_on_c, 0, 64, 78
1, 203576, Note_on_c, 0, 66, 101
1, 203594, Note_off_c, 0, 64, 70
1, 203595, Note_off_c, 0, 62, 68
1, 203600, Note_off_c, 0, 50, 66
1, 203600, Note_off_c, 0, 52, 62
1, 203606, Note_on_c, 0, 75, 33
1, 203606, Note_off_c, 0, 75, 127
1, 203617, Note_off_c, 0, 66, 66
1, 203632, Note_off_c, 0, 78, 59
1, 203673, Note_on_c, 0, 71, 80
1, 203704, Note_on_c, 0, 47, 91
1, 203710, Note_off_c, 0, 71, 65
1, 203752, Note_off_c, 0, 47, 59
1, 203766, Note_on_c, 0, 73, 90
1, 203805, Note_off_c, 0, 73, 63
1, 203844, Note_on_c, 0, 64, 91
1, 203853, Note_on_c, 0, 52, 73
1, 203854, Note_on_c, 0, 74, 103
1, 203871, Note_on_c, 0, 50, 68
1, 203871, Note_on_c, 0, 67, 96
1, 203884, Note_off_c, 0, 64, 69
1, 203895, Note_off_c, 0, 50, 39
1, 203898, Control_c, 0, 64, 30
1, 203901, Note_off_c, 0, 52, 64
1, 203906, Note_off_c, 0, 67, 65
1, 203913, Control_c, 0, 64, 0
1, 203918, Note_off_c, 0, 74, 66
1, 203966, Note_on_c, 0, 73, 91
1, 203999, Note_on_c, 0, 47, 88
1, 204024, Note_off_c, 0, 73, 62
1, 204030, Note_off_c, 0, 47, 66
1, 204068, Note_on_c, 0, 71, 95
1, 204103, Note_off_c, 0, 71, 65
1, 204106, Control_c, 0, 64, 34
1, 204121, Control_c, 0, 64, 40
1, 204136, Control_c, 0, 64, 32
1, 204151, Control_c, 0, 64, 0
1, 204152, Note_on_c, 0, 54, 94
1, 204155, Note_on_c, 0, 66, 96
1, 204156, Note_on_c, 0, 70, 89
1, 204172, Note_off_c, 0, 66, 74
1, 204175, Note_off_c, 0, 70, 72
1, 204184, Note_off_c, 0, 54, 63
1, 204258, Note_on_c, 0, 77, 100
1, 204288, Note_off_c, 0, 77, 65
1, 204300, Note_on_c, 0, 47, 88
1, 204333, Note_off_c, 0, 47, 67
1, 204352, Note_on_c, 0, 78, 100
1, 204352, Note_on_c, 0, 90, 90
1, 204355, Poly_aftertouch_c, 0, 89, 0
1, 204381, Note_off_c, 0, 78, 62
1, 204381, Note_off_c, 0, 90, 64
1, 204435, Note_on_c, 0, 67, 95
1, 204440, Note_on_c, 0, 55, 90
1, 204445, Note_on_c, 0, 79, 100
1, 204446, Note_on_c, 0, 91, 89
1, 204464, Note_off_c, 0, 67, 66
1, 204470, Note_on_c, 0, 89, 44
1, 204473, Note_off_c, 0, 55, 65
1, 204474, Note_off_c, 0, 91, 68
1, 204476, Note_off_c, 0, 79, 71
1, 204488, Note_on_c, 0, 87, 18
1, 204488, Note_off_c, 0, 87, 127
1, 204503, Note_off_c, 0, 89, 31
1, 204536, Note_on_c, 0, 90, 96
1, 204540, Note_on_c, 0, 78, 102
1, 204571, Note_off_c, 0, 78, 62
1, 204574, Note_on_c, 0, 45, 79
1, 204580, Note_off_c, 0, 90, 65
1, 204600, Note_off_c, 0, 45, 66
1, 204619, Note_on_c, 0, 47, 24
1, 204649, Note_on_c, 0, 77, 102
1, 204652, Note_on_c, 0, 89, 85
1, 204667, Note_off_c, 0, 47, 28
1, 204673, Note_off_c, 0, 89, 69
1, 204682, Note_off_c, 0, 77, 68
1, 204683, Note_on_c, 0, 87, 18
1, 204705, Note_off_c, 0, 87, 39
1, 204728, Note_on_c, 0, 56, 92
1, 204729, Note_on_c, 0, 68, 90
1, 204738, Note_on_c, 0, 90, 101
1, 204741, Note_on_c, 0, 78, 106
1, 204746, Note_off_c, 0, 68, 71
1, 204751, Control_c, 0, 64, 36
1, 204753, Note_off_c, 0, 56, 64
1, 204766, Control_c, 0, 64, 57
1, 204781, Control_c, 0, 64, 67
1, 204812, Control_c, 0, 64, 66
1, 204827, Control_c, 0, 64, 63
1, 204841, Note_on_c, 0, 85, 88
1, 204841, Control_c, 0, 64, 59
1, 204856, Control_c, 0, 64, 52
1, 204871, Control_c, 0, 64, 39
1, 204872, Note_on_c, 0, 47, 75
1, 204879, Note_on_c, 0, 45, 74
1, 204885, Control_c, 0, 64, 0
1, 204899, Note_off_c, 0, 45, 63
1, 204899, Note_off_c, 0, 78, 48
1, 204901, Note_off_c, 0, 47, 68
1, 204915, Note_off_c, 0, 85, 57
1, 204929, Note_on_c, 0, 86, 84
1, 204938, Note_off_c, 0, 90, 61
1, 204999, Note_off_c, 0, 86, 64
1, 205019, Note_on_c, 0, 78, 97
1, 205022, Note_on_c, 0, 58, 92
1, 205022, Note_on_c, 0, 70, 97
1, 205022, Note_on_c, 0, 90, 101
1, 205023, Note_on_c, 0, 88, 88
1, 205045, Note_off_c, 0, 70, 66
1, 205059, Note_off_c, 0, 58, 59
1, 205063, Control_c, 0, 64, 31
1, 205108, Control_c, 0, 64, 0
1, 205127, Note_on_c, 0, 86, 82
1, 205159, Note_on_c, 0, 47, 80
1, 205169, Note_on_c, 0, 48, 64
1, 205184, Note_off_c, 0, 47, 67
1, 205195, Note_off_c, 0, 48, 58
1, 205220, Note_off_c, 0, 78, 0
1, 205227, Note_on_c, 0, 85, 88
1, 205233, Note_off_c, 0, 86, 63
1, 205257, Note_off_c, 0, 90, 57
1, 205257, Poly_aftertouch_c, 0, 78, 127
1, 205260, Note_off_c, 0, 88, 24
1, 205272, Poly_aftertouch_c, 0, 78, 0
1, 205297, Note_off_c, 0, 85, 0
1, 205305, Note_on_c, 0, 71, 92
1, 205309, Note_on_c, 0, 86, 96
1, 205315, Control_c, 0, 64, 44
1, 205328, Note_off_c, 0, 71, 64
1, 205330, Control_c, 0, 64, 107
1, 205345, Control_c, 0, 64, 127
1, 205346, Poly_aftertouch_c, 0, 85, 0
1, 205354, Note_off_c, 0, 86, 66
1, 205440, Note_on_c, 0, 42, 83
1, 205457, Note_on_c, 0, 54, 54
1, 205469, Note_off_c, 0, 42, 69
1, 205481, Note_off_c, 0, 54, 61
1, 205500, Control_c, 0, 64, 114
1, 205515, Control_c, 0, 64, 70
1, 205530, Control_c, 0, 64, 0
1, 205531, Note_on_c, 0, 44, 86
1, 205533, Note_on_c, 0, 56, 96
1, 205554, Note_off_c, 0, 56, 71
1, 205557, Note_off_c, 0, 44, 68
1, 205574, Control_c, 0, 67, 110
1, 205590, Control_c, 0, 67, 95
1, 205605, Control_c, 0, 67, 89
1, 205631, Note_on_c, 0, 46, 87
1, 205632, Note_on_c, 0, 58, 88
1, 205635, Control_c, 0, 67, 84
1, 205649, Control_c, 0, 67, 74
1, 205652, Note_off_c, 0, 58, 70
1, 205654, Note_off_c, 0, 46, 67
1, 205664, Control_c, 0, 67, 60
1, 205679, Control_c, 0, 67, 55
1, 205694, Control_c, 0, 67, 57
1, 205723, Control_c, 0, 67, 54
1, 205737, Note_on_c, 0, 47, 72
1, 205738, Control_c, 0, 67, 53
1, 205745, Note_on_c, 0, 59, 67
1, 205753, Control_c, 0, 67, 54
1, 205759, Note_off_c, 0, 47, 62
1, 205764, Note_off_c, 0, 59, 64
1, 205768, Control_c, 0, 67, 62
1, 205783, Control_c, 0, 67, 65
1, 205827, Control_c, 0, 67, 67
1, 205840, Note_on_c, 0, 49, 69
1, 205841, Note_on_c, 0, 61, 76
1, 205841, Control_c, 0, 67, 74
1, 205856, Control_c, 0, 67, 76
1, 205865, Note_off_c, 0, 61, 68
1, 205871, Note_off_c, 0, 49, 64
1, 205886, Control_c, 0, 67, 75
1, 205901, Control_c, 0, 67, 76
1, 205916, Control_c, 0, 67, 79
1, 205921, Note_on_c, 0, 50, 84
1, 205925, Note_on_c, 0, 62, 82
1, 205931, Control_c, 0, 67, 80
1, 205946, Control_c, 0, 67, 78
1, 205947, Note_off_c, 0, 62, 70
1, 205952, Note_off_c, 0, 50, 67
1, 205960, Control_c, 0, 67, 77
1, 205990, Control_c, 0, 67, 79
1, 206005, Control_c, 0, 67, 81
1, 206022, Note_on_c, 0, 71, 64
1, 206026, Note_on_c, 0, 74, 62
1, 206028, Note_on_c, 0, 66, 58
1, 206032, Note_on_c, 0, 78, 63
1, 206041, Note_off_c, 0, 71, 63
1, 206044, Note_off_c, 0, 74, 63
1, 206049, Control_c, 0, 67, 82
1, 206050, Note_off_c, 0, 66, 40
1, 206058, Note_off_c, 0, 78, 65
1, 206064, Control_c, 0, 67, 89
1, 206079, Control_c, 0, 67, 121
1, 206094, Control_c, 0, 67, 127
1, 206133, Note_on_c, 0, 49, 68
1, 206133, Note_on_c, 0, 61, 65
1, 206160, Note_off_c, 0, 49, 62
1, 206164, Note_off_c, 0, 61, 66
1, 206226, Note_on_c, 0, 47, 80
1, 206227, Note_on_c, 0, 59, 74
1, 206247, Note_off_c, 0, 47, 67
1, 206250, Note_off_c, 0, 59, 67
1, 206319, Note_on_c, 0, 83, 78
1, 206327, Note_on_c, 0, 86, 65
1, 206328, Note_on_c, 0, 78, 65
1, 206333, Note_off_c, 0, 83, 70
1, 206336, Note_on_c, 0, 90, 50
1, 206344, Note_off_c, 0, 86, 67
1, 206345, Note_off_c, 0, 78, 63
1, 206357, Note_off_c, 0, 90, 55
1, 206422, Note_on_c, 0, 62, 66
1, 206423, Note_on_c, 0, 50, 59
1, 206441, Note_off_c, 0, 62, 65
1, 206447, Note_off_c, 0, 50, 60
1, 206515, Note_on_c, 0, 49, 82
1, 206516, Note_on_c, 0, 61, 71
1, 206537, Note_off_c, 0, 49, 70
1, 206541, Note_off_c, 0, 61, 67
1, 206602, Note_on_c, 0, 73, 78
1, 206603, Note_on_c, 0, 66, 81
1, 206605, Note_on_c, 0, 76, 76
1, 206606, Note_on_c, 0, 78, 77
1, 206617, Note_off_c, 0, 66, 69
1, 206622, Note_off_c, 0, 73, 72
1, 206626, Note_off_c, 0, 76, 71
1, 206638, Note_off_c, 0, 78, 63
1, 206676, Note_on_c, 0, 48, 84
1, 206677, Note_on_c, 0, 36, 67
1, 206706, Note_off_c, 0, 48, 68
1, 206712, Note_off_c, 0, 36, 62
1, 206780, Note_on_c, 0, 46, 93
1, 206781, Note_on_c, 0, 58, 98
1, 206800, Note_off_c, 0, 46, 73
1, 206800, Note_off_c, 0, 58, 74
1, 206880, Note_on_c, 0, 78, 103
1, 206883, Note_on_c, 0, 85, 87
1, 206885, Note_on_c, 0, 90, 79
1, 206888, Note_on_c, 0, 88, 77
1, 206900, Note_off_c, 0, 85, 73
1, 206901, Note_off_c, 0, 78, 66
1, 206905, Note_off_c, 0, 88, 74
1, 206907, Note_off_c, 0, 90, 70
1, 206971, Note_on_c, 0, 47, 75
1, 206977, Note_on_c, 0, 59, 76
1, 206994, Note_off_c, 0, 47, 67
1, 206998, Note_off_c, 0, 59, 66
1, 207062, Note_on_c, 0, 49, 105
1, 207063, Note_on_c, 0, 61, 93
1, 207087, Note_off_c, 0, 61, 69
1, 207100, Note_off_c, 0, 49, 66
1, 207153, Note_on_c, 0, 66, 92
1, 207153, Note_on_c, 0, 76, 90
1, 207157, Note_on_c, 0, 78, 86
1, 207159, Note_on_c, 0, 73, 76
1, 207171, Note_off_c, 0, 66, 74
1, 207180, Note_off_c, 0, 73, 65
1, 207184, Note_off_c, 0, 76, 65
1, 207201, Note_off_c, 0, 78, 59
1, 207240, Note_on_c, 0, 48, 92
1, 207248, Note_on_c, 0, 35, 63
1, 207265, Note_off_c, 0, 48, 68
1, 207275, Note_off_c, 0, 35, 57
1, 207339, Control_c, 0, 64, 31
1, 207344, Note_on_c, 0, 46, 102
1, 207349, Note_on_c, 0, 58, 102
1, 207354, Control_c, 0, 64, 32
1, 207367, Note_off_c, 0, 58, 73
1, 207368, Control_c, 0, 64, 33
1, 207375, Note_off_c, 0, 46, 65
1, 207427, Control_c, 0, 64, 33
1, 207430, Note_on_c, 0, 85, 91
1, 207432, Note_on_c, 0, 78, 84
1, 207432, Note_on_c, 0, 90, 77
1, 207442, Note_on_c, 0, 88, 69
1, 207442, Control_c, 0, 64, 35
1, 207455, Note_off_c, 0, 85, 60
1, 207457, Note_off_c, 0, 78, 64
1, 207457, Note_off_c, 0, 90, 68
1, 207457, Note_off_c, 0, 88, 69
1, 207457, Control_c, 0, 64, 37
1, 207472, Control_c, 0, 64, 37
1, 207487, Control_c, 0, 64, 38
1, 207487, Control_c, 0, 67, 107
1, 207502, Control_c, 0, 67, 86
1, 207517, Control_c, 0, 67, 85
1, 207526, Note_on_c, 0, 61, 75
1, 207528, Note_on_c, 0, 49, 74
1, 207546, Control_c, 0, 64, 38
1, 207546, Control_c, 0, 67, 84
1, 207551, Note_off_c, 0, 61, 68
1, 207555, Note_off_c, 0, 49, 66
1, 207561, Control_c, 0, 64, 38
1, 207561, Control_c, 0, 67, 81
1, 207576, Control_c, 0, 64, 36
1, 207576, Control_c, 0, 67, 81
1, 207591, Control_c, 0, 64, 34
1, 207591, Control_c, 0, 67, 82
1, 207612, Control_c, 0, 64, 33
1, 207612, Control_c, 0, 67, 86
1, 207627, Control_c, 0, 67, 85
1, 207631, Note_on_c, 0, 42, 100
1, 207636, Note_on_c, 0, 54, 77
1, 207642, Control_c, 0, 67, 82
1, 207654, Note_off_c, 0, 42, 69
1, 207657, Control_c, 0, 67, 78
1, 207659, Note_off_c, 0, 54, 69
1, 207672, Control_c, 0, 64, 29
1, 207672, Control_c, 0, 67, 72
1, 207677, Note_on_c, 0, 44, 16
1, 207686, Control_c, 0, 64, 0
1, 207686, Control_c, 0, 67, 71
1, 207701, Control_c, 0, 67, 67
1, 207716, Control_c, 0, 67, 54
1, 207727, Note_off_c, 0, 44, 29
1, 207728, Note_on_c, 0, 36, 98
1, 207729, Note_on_c, 0, 62, 90
1, 207731, Control_c, 0, 67, 34
1, 207737, Note_on_c, 0, 59, 79
1, 207746, Control_c, 0, 67, 0
1, 207749, Note_on_c, 0, 53, 60
1, 207750, Note_off_c, 0, 36, 71
1, 207753, Note_off_c, 0, 59, 70
1, 207755, Note_on_c, 0, 55, 50
1, 207768, Note_off_c, 0, 62, 63
1, 207773, Note_off_c, 0, 53, 60
1, 207776, Control_c, 0, 64, 29
1, 207784, Note_off_c, 0, 55, 55
1, 207806, Control_c, 0, 64, 33
1, 207820, Control_c, 0, 64, 36
1, 207829, Note_on_c, 0, 42, 95
1, 207830, Note_on_c, 0, 54, 96
1, 207835, Control_c, 0, 64, 37
1, 207849, Note_off_c, 0, 54, 71
1, 207859, Note_off_c, 0, 42, 67
1, 207894, Control_c, 0, 64, 37
1, 207909, Control_c, 0, 64, 36
1, 207925, Control_c, 0, 64, 35
1, 207928, Note_on_c, 0, 43, 102
1, 207933, Note_on_c, 0, 55, 87
1, 207939, Control_c, 0, 64, 34
1, 207940, Note_on_c, 0, 53, 70
1, 207954, Note_on_c, 0, 41, 46
1, 207954, Note_off_c, 0, 41, 127
1, 207954, Control_c, 0, 64, 33
1, 207960, Note_off_c, 0, 53, 63
1, 207961, Note_off_c, 0, 55, 66
1, 207962, Note_off_c, 0, 43, 62
1, 207999, Control_c, 0, 64, 34
1, 208023, Note_on_c, 0, 42, 97
1, 208025, Note_on_c, 0, 62, 74
1, 208029, Note_on_c, 0, 71, 82
1, 208029, Note_on_c, 0, 59, 70
1, 208030, Note_on_c, 0, 54, 98
1, 208038, Note_on_c, 0, 66, 57
1, 208042, Note_off_c, 0, 62, 68
1, 208044, Control_c, 0, 64, 35
1, 208049, Note_off_c, 0, 59, 41
1, 208059, Note_off_c, 0, 54, 61
1, 208059, Control_c, 0, 64, 35
1, 208059, Note_off_c, 0, 66, 61
1, 208064, Note_off_c, 0, 71, 65
1, 208070, Note_off_c, 0, 42, 65
1, 208118, Control_c, 0, 64, 36
1, 208122, Note_on_c, 0, 53, 105
1, 208124, Note_on_c, 0, 41, 83
1, 208133, Control_c, 0, 64, 37
1, 208139, Note_on_c, 0, 42, 80
1, 208148, Control_c, 0, 64, 35
1, 208151, Note_off_c, 0, 41, 70
1, 208163, Note_off_c, 0, 53, 66
1, 208163, Control_c, 0, 64, 30
1, 208164, Note_off_c, 0, 42, 63
1, 208178, Control_c, 0, 64, 0
1, 208213, Note_on_c, 0, 54, 104
1, 208215, Note_on_c, 0, 42, 104
1, 208236, Control_c, 0, 64, 35
1, 208247, Note_off_c, 0, 54, 66
1, 208251, Control_c, 0, 64, 37
1, 208257, Note_off_c, 0, 42, 65
1, 208266, Control_c, 0, 64, 36
1, 208281, Control_c, 0, 64, 35
1, 208297, Note_on_c, 0, 83, 96
1, 208299, Note_on_c, 0, 74, 95
1, 208310, Control_c, 0, 64, 34
1, 208325, Control_c, 0, 64, 32
1, 208334, Note_off_c, 0, 74, 66
1, 208337, Note_on_c, 0, 35, 85
1, 208339, Note_off_c, 0, 83, 63
1, 208363, Control_c, 0, 64, 29
1, 208370, Note_off_c, 0, 35, 66
1, 208392, Control_c, 0, 64, 0
1, 208401, Note_on_c, 0, 85, 98
1, 208412, Note_on_c, 0, 76, 83
1, 208430, Note_off_c, 0, 76, 74
1, 208445, Note_off_c, 0, 85, 67
1, 208512, Note_on_c, 0, 89, 99
1, 208513, Note_on_c, 0, 86, 94
1, 208514, Note_on_c, 0, 53, 85
1, 208514, Note_on_c, 0, 56, 79
1, 208515, Note_on_c, 0, 62, 84
1, 208515, Note_on_c, 0, 77, 114
1, 208525, Control_c, 0, 64, 50
1, 208530, Note_on_c, 0, 59, 64
1, 208540, Control_c, 0, 64, 97
1, 208551, Note_off_c, 0, 59, 64
1, 208555, Control_c, 0, 64, 127
1, 208561, Note_off_c, 0, 77, 62
1, 208567, Note_off_c, 0, 53, 55
1, 208568, Note_off_c, 0, 62, 57
1, 208616, Note_on_c, 0, 85, 87
1, 208618, Note_on_c, 0, 77, 68
1, 208621, Note_off_c, 0, 56, 46
1, 208656, Note_off_c, 0, 89, 55
1, 208658, Note_off_c, 0, 86, 56
1, 208695, Note_off_c, 0, 77, 41
1, 208696, Note_on_c, 0, 83, 81
1, 208709, Note_off_c, 0, 85, 63
1, 208732, Note_off_c, 0, 83, 63
1, 208780, Note_on_c, 0, 54, 83
1, 208792, Note_on_c, 0, 61, 61
1, 208792, Note_on_c, 0, 78, 96
1, 208792, Note_on_c, 0, 90, 78
1, 208792, Control_c, 0, 64, 121
1, 208801, Note_off_c, 0, 54, 69
1, 208805, Note_off_c, 0, 78, 74
1, 208807, Control_c, 0, 64, 69
1, 208807, Control_c, 0, 67, 57
1, 208808, Note_off_c, 0, 90, 65
1, 208810, Note_off_c, 0, 61, 64
1, 208822, Control_c, 0, 64, 0
1, 208822, Control_c, 0, 67, 72
1, 208823, Note_on_c, 0, 82, 31
1, 208823, Note_off_c, 0, 82, 127
1, 208837, Control_c, 0, 67, 72
1, 208851, Control_c, 0, 67, 74
1, 208866, Control_c, 0, 67, 78
1, 208881, Control_c, 0, 67, 85
1, 208885, Poly_aftertouch_c, 0, 53, 0
1, 208896, Control_c, 0, 67, 92
1, 208911, Control_c, 0, 67, 91
1, 208926, Control_c, 0, 67, 91
1, 208930, Note_on_c, 0, 65, 68
1, 208940, Control_c, 0, 67, 92
1, 208944, Note_on_c, 0, 42, 78
1, 208948, Note_off_c, 0, 65, 66
1, 208955, Control_c, 0, 67, 103
1, 208970, Control_c, 0, 67, 127
1, 208974, Note_off_c, 0, 42, 64
1, 209004, Note_on_c, 0, 66, 79
1, 209027, Note_off_c, 0, 66, 71
1, 209093, Note_on_c, 0, 67, 83
1, 209108, Note_on_c, 0, 50, 50
1, 209120, Note_on_c, 0, 59, 57
1, 209135, Note_off_c, 0, 67, 62
1, 209136, Note_off_c, 0, 50, 63
1, 209144, Note_off_c, 0, 59, 37
1, 209190, Note_on_c, 0, 66, 87
1, 209229, Note_off_c, 0, 66, 62
1, 209237, Note_on_c, 0, 42, 64
1, 209268, Note_off_c, 0, 42, 64
1, 209285, Note_on_c, 0, 65, 80
1, 209355, Note_off_c, 0, 65, 52
1, 209358, Note_on_c, 0, 66, 80
1, 209375, Note_on_c, 0, 49, 85
1, 209380, Note_off_c, 0, 66, 71
1, 209382, Note_on_c, 0, 58, 84
1, 209397, Note_off_c, 0, 49, 69
1, 209405, Note_off_c, 0, 58, 64
1, 209465, Note_on_c, 0, 73, 78
1, 209467, Note_on_c, 0, 70, 75
1, 209486, Note_off_c, 0, 73, 71
1, 209490, Note_off_c, 0, 70, 70
1, 209545, Note_on_c, 0, 74, 88
1, 209564, Note_on_c, 0, 71, 70
1, 209590, Note_off_c, 0, 71, 64
1, 209593, Note_off_c, 0, 74, 66
1, 209641, Note_on_c, 0, 76, 89
1, 209645, Note_on_c, 0, 78, 89
1, 209651, Note_on_c, 0, 73, 78
1, 209660, Note_off_c, 0, 78, 74
1, 209672, Note_off_c, 0, 73, 69
1, 209684, Note_off_c, 0, 76, 64
1, 209738, Note_on_c, 0, 74, 88
1, 209751, Note_on_c, 0, 71, 73
1, 209773, Note_off_c, 0, 71, 69
1, 209786, Note_off_c, 0, 74, 65
1, 209830, Note_on_c, 0, 73, 84
1, 209841, Note_on_c, 0, 70, 60
1, 209858, Note_on_c, 0, 54, 79
1, 209874, Note_off_c, 0, 70, 65
1, 209880, Note_off_c, 0, 54, 69
1, 209880, Note_off_c, 0, 73, 59
1, 209908, Note_on_c, 0, 59, 103
1, 209911, Note_on_c, 0, 73, 65
1, 209940, Note_off_c, 0, 73, 67
1, 209944, Note_off_c, 0, 59, 68
1, 210030, Note_on_c, 0, 89, 78
1, 210041, Note_on_c, 0, 88, 54
1, 210046, Note_off_c, 0, 89, 68
1, 210062, Note_off_c, 0, 88, 62
1, 210104, Note_on_c, 0, 90, 87
1, 210130, Note_off_c, 0, 90, 66
1, 210183, Note_on_c, 0, 95, 83
1, 210184, Note_on_c, 0, 91, 77
1, 210187, Note_on_c, 0, 79, 97
1, 210195, Note_on_c, 0, 83, 83
1, 210200, Control_c, 0, 64, 51
1, 210210, Note_on_c, 0, 85, 48
1, 210210, Note_off_c, 0, 85, 127
1, 210214, Control_c, 0, 64, 99
1, 210225, Note_off_c, 0, 83, 52
1, 210225, Note_off_c, 0, 91, 64
1, 210226, Note_off_c, 0, 95, 66
1, 210229, Control_c, 0, 64, 127
1, 210292, Note_on_c, 0, 90, 53
1, 210301, Note_on_c, 0, 91, 59
1, 210304, Note_on_c, 0, 92, 43
1, 210314, Note_off_c, 0, 90, 59
1, 210320, Note_off_c, 0, 91, 60
1, 210331, Note_off_c, 0, 92, 55
1, 210361, Note_on_c, 0, 89, 85
1, 210393, Control_c, 0, 67, 103
1, 210408, Control_c, 0, 67, 96
1, 210410, Note_off_c, 0, 89, 61
1, 210423, Control_c, 0, 67, 102
1, 210429, Note_on_c, 0, 90, 93
1, 210432, Note_off_c, 0, 79, 67
1, 210433, Note_on_c, 0, 78, 84
1, 210438, Note_on_c, 0, 86, 84
1, 210438, Control_c, 0, 67, 112
1, 210450, Note_off_c, 0, 78, 71
1, 210453, Control_c, 0, 64, 73
1, 210453, Control_c, 0, 67, 119
1, 210455, Note_off_c, 0, 86, 75
1, 210458, Note_off_c, 0, 90, 69
1, 210468, Control_c, 0, 64, 31
1, 210468, Control_c, 0, 67, 121
1, 210483, Control_c, 0, 64, 0
1, 210512, Control_c, 0, 67, 125
1, 210527, Control_c, 0, 67, 127
1, 210554, Note_on_c, 0, 77, 83
1, 210571, Note_off_c, 0, 77, 73
1, 210575, Note_on_c, 0, 59, 77
1, 210611, Note_off_c, 0, 59, 67
1, 210644, Note_on_c, 0, 78, 82
1, 210667, Note_off_c, 0, 78, 67
1, 210735, Note_on_c, 0, 83, 74
1, 210736, Note_on_c, 0, 79, 78
1, 210737, Note_on_c, 0, 71, 72
1, 210739, Note_on_c, 0, 67, 74
1, 210745, Note_on_c, 0, 73, 71
1, 210756, Control_c, 0, 64, 61
1, 210760, Note_off_c, 0, 73, 69
1, 210762, Note_off_c, 0, 83, 62
1, 210771, Control_c, 0, 64, 81
1, 210772, Note_off_c, 0, 79, 63
1, 210786, Control_c, 0, 64, 105
1, 210801, Control_c, 0, 64, 127
1, 210828, Note_on_c, 0, 78, 88
1, 210867, Note_off_c, 0, 78, 61
1, 210927, Note_on_c, 0, 77, 73
1, 210959, Note_off_c, 0, 77, 63
1, 210960, Note_on_c, 0, 76, 33
1, 210960, Note_off_c, 0, 76, 127
1, 210961, Note_off_c, 0, 71, 47
1, 210987, Note_on_c, 0, 66, 79
1, 210991, Note_on_c, 0, 78, 88
1, 210994, Note_off_c, 0, 67, 65
1, 211001, Note_on_c, 0, 74, 80
1, 211009, Note_off_c, 0, 66, 70
1, 211009, Control_c, 0, 64, 101
1, 211021, Note_off_c, 0, 78, 64
1, 211022, Note_off_c, 0, 74, 72
1, 211024, Control_c, 0, 64, 64
1, 211038, Control_c, 0, 64, 0
1, 211120, Note_on_c, 0, 65, 71
1, 211123, Note_on_c, 0, 45, 74
1, 211138, Note_off_c, 0, 65, 68
1, 211147, Note_off_c, 0, 45, 64
1, 211207, Note_on_c, 0, 66, 72
1, 211234, Note_off_c, 0, 66, 68
1, 211293, Note_on_c, 0, 67, 77
1, 211297, Note_on_c, 0, 59, 65
1, 211299, Note_on_c, 0, 55, 64
1, 211306, Control_c, 0, 64, 39
1, 211321, Note_on_c, 0, 71, 35
1, 211321, Control_c, 0, 64, 61
1, 211322, Note_on_c, 0, 61, 35
1, 211322, Note_off_c, 0, 61, 127
1, 211325, Note_off_c, 0, 67, 60
1, 211335, Control_c, 0, 64, 68
1, 211358, Control_c, 0, 64, 74
1, 211363, Note_off_c, 0, 71, 44
1, 211373, Control_c, 0, 64, 83
1, 211387, Control_c, 0, 64, 97
1, 211392, Note_on_c, 0, 66, 82
1, 211402, Control_c, 0, 64, 120
1, 211417, Control_c, 0, 64, 127
1, 211427, Note_off_c, 0, 66, 62
1, 211483, Note_on_c, 0, 65, 74
1, 211511, Note_off_c, 0, 59, 44
1, 211526, Note_off_c, 0, 65, 61
1, 211546, Note_on_c, 0, 54, 73
1, 211556, Note_off_c, 0, 55, 62
1, 211563, Note_on_c, 0, 66, 78
1, 211570, Note_on_c, 0, 62, 74
1, 211570, Note_off_c, 0, 54, 68
1, 211579, Control_c, 0, 64, 90
1, 211581, Note_off_c, 0, 66, 74
1, 211593, Note_off_c, 0, 62, 66
1, 211594, Control_c, 0, 64, 58
1, 211609, Control_c, 0, 64, 0
1, 211674, Note_on_c, 0, 35, 85
1, 211686, Note_on_c, 0, 53, 73
1, 211696, Note_off_c, 0, 35, 68
1, 211708, Note_off_c, 0, 53, 66
1, 211765, Note_on_c, 0, 54, 79
1, 211788, Note_off_c, 0, 54, 68
1, 211837, Note_on_c, 0, 41, 71
1, 211847, Note_on_c, 0, 47, 61
1, 211854, Note_on_c, 0, 55, 81
1, 211860, Note_on_c, 0, 50, 76
1, 211863, Note_off_c, 0, 41, 65
1, 211874, Note_off_c, 0, 47, 58
1, 211875, Note_on_c, 0, 59, 43
1, 211883, Note_off_c, 0, 50, 67
1, 211895, Note_off_c, 0, 55, 64
1, 211905, Note_off_c, 0, 59, 57
1, 211934, Note_on_c, 0, 42, 84
1, 211945, Note_on_c, 0, 54, 87
1, 211965, Note_off_c, 0, 42, 66
1, 211991, Note_off_c, 0, 54, 62
1, 212039, Note_on_c, 0, 53, 79
1, 212040, Note_on_c, 0, 43, 88
1, 212068, Note_off_c, 0, 53, 64
1, 212070, Note_off_c, 0, 43, 66
1, 212084, Control_c, 0, 67, 93
1, 212107, Control_c, 0, 67, 63
1, 212122, Control_c, 0, 67, 52
1, 212128, Note_on_c, 0, 42, 99
1, 212137, Control_c, 0, 67, 50
1, 212151, Note_off_c, 0, 42, 72
1, 212152, Control_c, 0, 67, 46
1, 212166, Control_c, 0, 67, 42
1, 212181, Control_c, 0, 67, 0
1, 212206, Note_on_c, 0, 58, 75
1, 212217, Note_on_c, 0, 50, 59
1, 212235, Note_off_c, 0, 58, 66
1, 212244, Note_off_c, 0, 50, 59
1, 212283, Note_on_c, 0, 54, 71
1, 212301, Note_on_c, 0, 59, 60
1, 212307, Note_off_c, 0, 54, 66
1, 212322, Note_off_c, 0, 59, 61
1, 212378, Note_on_c, 0, 61, 76
1, 212380, Note_on_c, 0, 54, 61
1, 212402, Note_off_c, 0, 54, 64
1, 212402, Note_off_c, 0, 61, 68
1, 212457, Note_on_c, 0, 59, 67
1, 212459, Note_on_c, 0, 62, 74
1, 212486, Note_on_c, 0, 61, 24
1, 212486, Note_off_c, 0, 61, 127
1, 212489, Note_off_c, 0, 59, 65
1, 212492, Note_off_c, 0, 62, 63
1, 212551, Note_on_c, 0, 59, 80
1, 212572, Note_on_c, 0, 65, 74
1, 212583, Note_off_c, 0, 59, 67
1, 212595, Note_off_c, 0, 65, 70
1, 212622, Note_on_c, 0, 57, 101
1, 212638, Note_on_c, 0, 50, 80
1, 212647, Note_on_c, 0, 66, 91
1, 212648, Note_on_c, 0, 62, 81
1, 212658, Note_off_c, 0, 50, 67
1, 212668, Note_off_c, 0, 57, 68
1, 212670, Note_off_c, 0, 62, 69
1, 212686, Note_off_c, 0, 66, 61
1, 212742, Note_on_c, 0, 62, 70
1, 212751, Note_on_c, 0, 70, 76
1, 212773, Note_off_c, 0, 70, 71
1, 212775, Note_off_c, 0, 62, 66
1, 212793, Note_on_c, 0, 55, 80
1, 212824, Note_off_c, 0, 55, 62
1, 212830, Note_on_c, 0, 66, 88
1, 212849, Note_on_c, 0, 71, 72
1, 212860, Note_off_c, 0, 66, 69
1, 212873, Note_off_c, 0, 71, 67
1, 212927, Note_on_c, 0, 54, 73
1, 212932, Note_on_c, 0, 73, 80
1, 212953, Note_on_c, 0, 66, 51
1, 212959, Note_off_c, 0, 54, 64
1, 212960, Note_off_c, 0, 73, 61
1, 212978, Note_off_c, 0, 66, 38
1, 213022, Note_on_c, 0, 74, 82
1, 213027, Note_on_c, 0, 71, 77
1, 213049, Note_off_c, 0, 71, 69
1, 213049, Note_off_c, 0, 74, 62
1, 213061, Note_on_c, 0, 52, 61
1, 213097, Note_off_c, 0, 52, 63
1, 213136, Note_on_c, 0, 71, 61
1, 213141, Note_on_c, 0, 77, 61
1, 213156, Note_off_c, 0, 71, 63
1, 213159, Note_off_c, 0, 77, 64
1, 213200, Note_on_c, 0, 50, 66
1, 213208, Note_on_c, 0, 78, 79
1, 213219, Note_on_c, 0, 74, 60
1, 213239, Note_off_c, 0, 74, 62
1, 213240, Note_off_c, 0, 78, 62
1, 213242, Note_off_c, 0, 50, 65
1, 213305, Note_on_c, 0, 74, 83
1, 213316, Note_on_c, 0, 82, 71
1, 213331, Note_off_c, 0, 74, 66
1, 213338, Note_off_c, 0, 82, 71
1, 213352, Note_on_c, 0, 49, 69
1, 213391, Note_on_c, 0, 78, 83
1, 213392, Note_on_c, 0, 83, 82
1, 213394, Note_off_c, 0, 49, 62
1, 213410, Note_off_c, 0, 78, 71
1, 213416, Note_off_c, 0, 83, 64
1, 213462, Note_on_c, 0, 47, 80
1, 213474, Note_on_c, 0, 85, 93
1, 213477, Control_c, 0, 64, 29
1, 213493, Note_off_c, 0, 85, 69
1, 213498, Note_on_c, 0, 78, 54
1, 213508, Note_off_c, 0, 47, 62
1, 213519, Note_off_c, 0, 78, 58
1, 213536, Control_c, 0, 64, 31
1, 213550, Control_c, 0, 64, 32
1, 213560, Note_on_c, 0, 83, 92
1, 213561, Note_on_c, 0, 86, 80
1, 213586, Note_off_c, 0, 86, 68
1, 213603, Note_off_c, 0, 83, 67
1, 213613, Note_on_c, 0, 45, 75
1, 213618, Control_c, 0, 64, 30
1, 213648, Note_off_c, 0, 45, 67
1, 213653, Note_on_c, 0, 87, 91
1, 213661, Note_on_c, 0, 88, 73
1, 213681, Note_off_c, 0, 88, 73
1, 213689, Note_off_c, 0, 87, 68
1, 213693, Control_c, 0, 64, 0
1, 213735, Note_on_c, 0, 43, 89
1, 213738, Note_on_c, 0, 55, 92
1, 213742, Note_on_c, 0, 83, 42
1, 213744, Note_on_c, 0, 88, 95
1, 213764, Note_on_c, 0, 89, 55
1, 213777, Note_off_c, 0, 55, 63
1, 213779, Note_off_c, 0, 43, 64
1, 213785, Note_off_c, 0, 88, 66
1, 213787, Note_off_c, 0, 89, 54
1, 213789, Note_off_c, 0, 83, 65
1, 213816, Note_on_c, 0, 79, 2
1, 213826, Control_c, 0, 64, 30
1, 213847, Note_on_c, 0, 77, 107
1, 213854, Note_on_c, 0, 89, 72
1, 213855, Control_c, 0, 64, 32
1, 213861, Note_off_c, 0, 79, 28
1, 213863, Note_on_c, 0, 88, 74
1, 213869, Note_on_c, 0, 87, 45
1, 213869, Note_off_c, 0, 87, 127
1, 213875, Note_off_c, 0, 77, 71
1, 213875, Note_off_c, 0, 89, 64
1, 213879, Note_off_c, 0, 88, 70
1, 213885, Control_c, 0, 64, 32
1, 213925, Note_on_c, 0, 42, 91
1, 213930, Control_c, 0, 64, 35
1, 213939, Note_on_c, 0, 54, 62
1, 213939, Note_on_c, 0, 90, 101
1, 213942, Note_on_c, 0, 78, 100
1, 213945, Control_c, 0, 64, 38
1, 213957, Note_off_c, 0, 42, 65
1, 213958, Note_on_c, 0, 82, 65
1, 213960, Note_off_c, 0, 78, 66
1, 213960, Control_c, 0, 64, 40
1, 213961, Note_off_c, 0, 54, 62
1, 213974, Control_c, 0, 64, 41
1, 213976, Note_off_c, 0, 82, 61
1, 213982, Note_off_c, 0, 90, 65
1, 214034, Control_c, 0, 64, 40
1, 214048, Control_c, 0, 64, 37
1, 214063, Control_c, 0, 64, 0
1, 214101, Note_on_c, 0, 42, 26
1, 214104, Note_on_c, 0, 86, 100
1, 214104, Note_on_c, 0, 95, 111
1, 214105, Note_on_c, 0, 83, 102
1, 214113, Note_on_c, 0, 47, 90
1, 214114, Note_on_c, 0, 35, 90
1, 214122, Control_c, 0, 64, 55
1, 214122, Control_c, 0, 67, 34
1, 214137, Control_c, 0, 64, 127
1, 214137, Control_c, 0, 67, 61
1, 214140, Note_off_c, 0, 83, 69
1, 214146, Note_off_c, 0, 47, 65
1, 214146, Note_off_c, 0, 86, 71
1, 214148, Note_off_c, 0, 95, 70
1, 214152, Control_c, 0, 67, 67
1, 214158, Note_off_c, 0, 42, 63
1, 214161, Note_off_c, 0, 35, 63
1, 214167, Control_c, 0, 67, 69
1, 214182, Control_c, 0, 67, 70
1, 214197, Control_c, 0, 67, 67
1, 214212, Control_c, 0, 67, 58
1, 214227, Control_c, 0, 67, 47
1, 214241, Control_c, 0, 67, 37
1, 214256, Control_c, 0, 67, 0
1, 214486, Control_c, 0, 64, 110
1, 214501, Control_c, 0, 64, 82
1, 214516, Control_c, 0, 64, 67
1, 214531, Control_c, 0, 64, 56
1, 214546, Control_c, 0, 64, 45
1, 214560, Control_c, 0, 64, 40
1, 214575, Control_c, 0, 64, 38
1, 214590, Control_c, 0, 64, 36
1, 214605, Control_c, 0, 64, 32
1, 214620, Control_c, 0, 64, 0
1, 214901, Control_c, 0, 67, 41
1, 214916, Control_c, 0, 67, 44
1, 214930, Control_c, 0, 67, 45
1, 214945, Control_c, 0, 67, 47
1, 214960, Control_c, 0, 67, 57
1, 214975, Control_c, 0, 67, 71
1, 214990, Control_c, 0, 67, 82
1, 215005, Control_c, 0, 67, 87
1, 215019, Control_c, 0, 67, 88
1, 215034, Control_c, 0, 67, 88
1, 215049, Control_c, 0, 67, 89
1, 215064, Control_c, 0, 67, 94
1, 215079, Control_c, 0, 67, 101
1, 215101, Control_c, 0, 67, 104
1, 215145, Control_c, 0, 67, 106
1, 215206, Control_c, 0, 67, 108
1, 215383, Control_c, 0, 67, 111
1, 215502, Control_c, 0, 64, 30
1, 215591, Control_c, 0, 64, 33
1, 215606, Control_c, 0, 64, 33
1, 215635, Control_c, 0, 64, 34
1, 215650, Control_c, 0, 64, 35
1, 215665, Control_c, 0, 64, 36
1, 215680, Control_c, 0, 64, 37
1, 215694, Control_c, 0, 64, 37
1, 215709, Control_c, 0, 64, 38
1, 215724, Control_c, 0, 64, 39
1, 215739, Control_c, 0, 64, 41
1, 215753, Control_c, 0, 64, 42
1, 215768, Control_c, 0, 64, 44
1, 215783, Control_c, 0, 64, 45
1, 215783, Control_c, 0, 67, 113
1, 215813, Control_c, 0, 64, 46
1, 215827, Control_c, 0, 64, 48
1, 215850, Control_c, 0, 64, 51
1, 215865, Control_c, 0, 64, 53
1, 215880, Control_c, 0, 64, 54
1, 215909, Control_c, 0, 64, 55
1, 215924, Control_c, 0, 64, 57
1, 215939, Control_c, 0, 64, 59
1, 215953, Control_c, 0, 64, 60
1, 215968, Control_c, 0, 67, 121
1, 215984, Control_c, 0, 67, 127
1, 215999, Control_c, 0, 64, 60
1, 216014, Control_c, 0, 64, 61
1, 216029, Control_c, 0, 64, 62
1, 216044, Control_c, 0, 64, 63
1, 216058, Control_c, 0, 64, 64
1, 216073, Control_c, 0, 64, 64
1, 216088, Control_c, 0, 64, 65
1, 216103, Control_c, 0, 64, 66
1, 216118, Control_c, 0, 64, 67
1, 216132, Control_c, 0, 64, 67
1, 216147, Control_c, 0, 64, 68
1, 216162, Control_c, 0, 64, 69
1, 216176, Control_c, 0, 64, 70
1, 216191, Control_c, 0, 64, 72
1, 216206, Control_c, 0, 64, 74
1, 216221, Control_c, 0, 64, 76
1, 216236, Control_c, 0, 64, 78
1, 216251, Control_c, 0, 64, 80
1, 216265, Control_c, 0, 64, 81
1, 216280, Control_c, 0, 64, 82
1, 216295, Control_c, 0, 64, 84
1, 216310, Control_c, 0, 64, 85
1, 216325, Control_c, 0, 64, 86
1, 216340, Control_c, 0, 64, 86
1, 216355, Control_c, 0, 64, 87
1, 216369, Control_c, 0, 64, 88
1, 216384, Control_c, 0, 64, 89
1, 216399, Control_c, 0, 64, 91
1, 216414, Control_c, 0, 64, 92
1, 216429, Control_c, 0, 64, 94
1, 216443, Control_c, 0, 64, 95
1, 216458, Control_c, 0, 64, 97
1, 216488, Control_c, 0, 64, 101
1, 216503, Control_c, 0, 64, 103
1, 216517, Control_c, 0, 64, 105
1, 216532, Control_c, 0, 64, 108
1, 216547, Control_c, 0, 64, 112
1, 216562, Control_c, 0, 64, 118
1, 216576, Control_c, 0, 64, 127
1, 218468, Note_on_c, 0, 36, 29
1, 218907, Note_off_c, 0, 36, 34
1, 218921, Note_on_c, 0, 48, 39
1, 218979, Note_off_c, 0, 48, 59
1, 219273, Note_on_c, 0, 52, 35
1, 219421, Note_on_c, 0, 55, 39
1, 219463, Note_off_c, 0, 52, 35
1, 219537, Note_off_c, 0, 55, 59
1, 219557, Note_on_c, 0, 60, 41
1, 219601, Note_off_c, 0, 60, 65
1, 219661, Note_on_c, 0, 64, 45
1, 219733, Note_on_c, 0, 67, 54
1, 219754, Note_off_c, 0, 64, 55
1, 219818, Note_off_c, 0, 67, 54
1, 219819, Note_on_c, 0, 72, 54
1, 219893, Note_on_c, 0, 76, 63
1, 219926, Note_off_c, 0, 72, 57
1, 219926, Note_off_c, 0, 76, 62
1, 219961, Note_on_c, 0, 48, 25
1, 220005, Note_off_c, 0, 48, 54
1, 220020, Note_on_c, 0, 52, 49
1, 220068, Note_off_c, 0, 52, 56
1, 220108, Note_on_c, 0, 55, 43
1, 220147, Note_off_c, 0, 55, 62
1, 220185, Note_on_c, 0, 60, 46
1, 220212, Note_off_c, 0, 60, 58
1, 220258, Note_on_c, 0, 64, 51
1, 220307, Note_off_c, 0, 64, 57
1, 220348, Note_on_c, 0, 67, 49
1, 220397, Note_off_c, 0, 67, 58
1, 220435, Note_on_c, 0, 72, 49
1, 220507, Note_on_c, 0, 76, 54
1, 220547, Note_off_c, 0, 72, 57
1, 220553, Note_off_c, 0, 76, 57
1, 220587, Note_on_c, 0, 48, 44
1, 220621, Note_off_c, 0, 48, 54
1, 220638, Note_on_c, 0, 52, 46
1, 220680, Note_off_c, 0, 52, 58
1, 220717, Note_on_c, 0, 55, 44
1, 220746, Note_off_c, 0, 55, 57
1, 220788, Note_on_c, 0, 60, 51
1, 220821, Note_off_c, 0, 60, 66
1, 220879, Note_on_c, 0, 64, 47
1, 220938, Note_off_c, 0, 64, 59
1, 220959, Note_on_c, 0, 67, 49
1, 221023, Note_off_c, 0, 67, 56
1, 221050, Note_on_c, 0, 72, 49
1, 221127, Note_on_c, 0, 76, 57
1, 221185, Note_off_c, 0, 72, 50
1, 221205, Note_off_c, 0, 76, 54
1, 221214, Note_on_c, 0, 48, 36
1, 221252, Note_off_c, 0, 48, 52
1, 221288, Note_on_c, 0, 52, 37
1, 221330, Note_off_c, 0, 52, 51
1, 221371, Note_on_c, 0, 55, 32
1, 221411, Note_off_c, 0, 55, 51
1, 221434, Note_on_c, 0, 60, 47
1, 221459, Note_off_c, 0, 60, 64
1, 221524, Note_on_c, 0, 64, 39
1, 221585, Note_off_c, 0, 64, 64
1, 221614, Note_on_c, 0, 67, 47
1, 221682, Note_off_c, 0, 67, 56
1, 221710, Note_on_c, 0, 72, 49
1, 221785, Note_on_c, 0, 76, 50
1, 221828, Note_off_c, 0, 72, 47
1, 221841, Note_on_c, 0, 48, 41
1, 221847, Note_off_c, 0, 76, 55
1, 221884, Note_off_c, 0, 48, 60
1, 221909, Note_on_c, 0, 52, 48
1, 221960, Note_off_c, 0, 52, 56
1, 222044, Poly_aftertouch_c, 0, 55, 127
1, 222082, Note_on_c, 0, 60, 43
1, 222094, Poly_aftertouch_c, 0, 55, 0
1, 222120, Note_off_c, 0, 60, 65
1, 222172, Note_on_c, 0, 64, 52
1, 222244, Note_off_c, 0, 64, 64
1, 222279, Note_on_c, 0, 67, 46
1, 222370, Note_off_c, 0, 67, 55
1, 222379, Note_on_c, 0, 72, 47
1, 222458, Note_on_c, 0, 76, 50
1, 222507, Note_off_c, 0, 72, 51
1, 222507, Note_off_c, 0, 76, 57
1, 222529, Note_on_c, 0, 48, 30
1, 222575, Note_off_c, 0, 48, 50
1, 222600, Note_on_c, 0, 52, 44
1, 222668, Note_off_c, 0, 52, 57
1, 222717, Note_on_c, 0, 55, 28
1, 222758, Note_off_c, 0, 55, 50
1, 222791, Note_on_c, 0, 60, 45
1, 222836, Note_off_c, 0, 60, 61
1, 222901, Note_on_c, 0, 64, 41
1, 222993, Note_off_c, 0, 64, 57
1, 223007, Note_on_c, 0, 67, 49
1, 223089, Note_off_c, 0, 67, 59
1, 223130, Note_on_c, 0, 72, 46
1, 223230, Note_on_c, 0, 76, 57
1, 223268, Note_off_c, 0, 72, 50
1, 223318, Note_off_c, 0, 76, 61
1, 223600, Note_on_c, 0, 60, 75
1, 223665, Note_on_c, 0, 48, 41
1, 223797, Control_c, 0, 64, 89
1, 223812, Control_c, 0, 64, 69
1, 223827, Control_c, 0, 64, 55
1, 223841, Control_c, 0, 64, 49
1, 223856, Control_c, 0, 64, 50
1, 223871, Control_c, 0, 64, 56
1, 223885, Note_on_c, 0, 52, 33
1, 223885, Control_c, 0, 64, 64
1, 223900, Control_c, 0, 64, 75
1, 223915, Control_c, 0, 64, 89
1, 223930, Control_c, 0, 64, 106
1, 223945, Control_c, 0, 64, 127
1, 224013, Note_on_c, 0, 55, 35
1, 224013, Note_off_c, 0, 52, 46
1, 224024, Note_off_c, 0, 48, 41
1, 224055, Note_off_c, 0, 55, 53
1, 224085, Note_on_c, 0, 64, 47
1, 224183, Note_off_c, 0, 60, 54
1, 224191, Note_on_c, 0, 67, 54
1, 224220, Control_c, 0, 67, 124
1, 224239, Note_off_c, 0, 64, 33
1, 224304, Note_on_c, 0, 72, 63
1, 224304, Note_off_c, 0, 67, 60
1, 224363, Note_on_c, 0, 62, 90
1, 224382, Control_c, 0, 67, 127
1, 224399, Note_on_c, 0, 48, 52
1, 224434, Note_off_c, 0, 72, 52
1, 224472, Control_c, 0, 64, 96
1, 224487, Control_c, 0, 64, 73
1, 224502, Control_c, 0, 64, 58
1, 224516, Control_c, 0, 64, 48
1, 224532, Note_on_c, 0, 53, 36
1, 224546, Control_c, 0, 64, 52
1, 224561, Control_c, 0, 64, 60
1, 224576, Control_c, 0, 64, 71
1, 224590, Control_c, 0, 64, 85
1, 224605, Control_c, 0, 64, 105
1, 224620, Control_c, 0, 64, 127
1, 224627, Note_on_c, 0, 57, 55
1, 224638, Note_off_c, 0, 53, 46
1, 224661, Note_off_c, 0, 57, 64
1, 224690, Note_off_c, 0, 48, 33
1, 224766, Note_on_c, 0, 65, 47
1, 224803, Note_off_c, 0, 62, 55
1, 224877, Note_off_c, 0, 65, 55
1, 224883, Note_on_c, 0, 69, 52
1, 225032, Note_on_c, 0, 74, 68
1, 225039, Note_off_c, 0, 69, 56
1, 225196, Note_on_c, 0, 64, 86
1, 225197, Note_on_c, 0, 48, 48
1, 225241, Note_off_c, 0, 74, 54
1, 225265, Control_c, 0, 64, 110
1, 225280, Control_c, 0, 64, 82
1, 225295, Control_c, 0, 64, 62
1, 225310, Control_c, 0, 64, 49
1, 225313, Note_on_c, 0, 52, 47
1, 225324, Control_c, 0, 64, 44
1, 225354, Control_c, 0, 64, 47
1, 225369, Control_c, 0, 64, 57
1, 225384, Control_c, 0, 64, 66
1, 225399, Control_c, 0, 64, 79
1, 225413, Control_c, 0, 64, 95
1, 225420, Note_on_c, 0, 55, 42
1, 225428, Control_c, 0, 64, 108
1, 225441, Note_off_c, 0, 48, 33
1, 225443, Control_c, 0, 64, 121
1, 225448, Note_off_c, 0, 52, 54
1, 225457, Control_c, 0, 64, 127
1, 225478, Note_off_c, 0, 55, 58
1, 225518, Note_on_c, 0, 60, 42
1, 225549, Note_off_c, 0, 60, 59
1, 225649, Note_on_c, 0, 67, 43
1, 225682, Note_off_c, 0, 64, 53
1, 225733, Note_off_c, 0, 67, 55
1, 225772, Note_on_c, 0, 72, 45
1, 225882, Note_on_c, 0, 76, 54
1, 225900, Note_off_c, 0, 72, 55
1, 226024, Note_on_c, 0, 36, 45
1, 226240, Note_on_c, 0, 62, 78
1, 226251, Control_c, 0, 64, 88
1, 226266, Control_c, 0, 64, 67
1, 226280, Control_c, 0, 64, 53
1, 226286, Note_off_c, 0, 76, 38
1, 226295, Control_c, 0, 64, 48
1, 226300, Note_on_c, 0, 48, 43
1, 226310, Control_c, 0, 64, 51
1, 226332, Control_c, 0, 64, 57
1, 226337, Note_off_c, 0, 36, 41
1, 226347, Control_c, 0, 64, 65
1, 226363, Control_c, 0, 64, 75
1, 226378, Control_c, 0, 64, 91
1, 226392, Control_c, 0, 64, 110
1, 226400, Note_off_c, 0, 48, 62
1, 226407, Control_c, 0, 64, 127
1, 226475, Note_off_c, 0, 62, 60
1, 226577, Note_on_c, 0, 53, 26
1, 226676, Note_off_c, 0, 53, 54
1, 226682, Note_on_c, 0, 57, 49
1, 226728, Note_off_c, 0, 57, 59
1, 226780, Note_on_c, 0, 62, 40
1, 226804, Note_off_c, 0, 62, 59
1, 226827, Note_on_c, 0, 65, 46
1, 226895, Note_off_c, 0, 65, 48
1, 226904, Note_on_c, 0, 69, 54
1, 226994, Note_off_c, 0, 69, 51
1, 226999, Note_on_c, 0, 74, 53
1, 227109, Note_on_c, 0, 77, 35
1, 227143, Note_on_c, 0, 48, 46
1, 227148, Note_off_c, 0, 74, 43
1, 227155, Note_off_c, 0, 77, 48
1, 227185, Note_off_c, 0, 48, 58
1, 227235, Note_on_c, 0, 53, 27
1, 227277, Note_off_c, 0, 53, 52
1, 227296, Note_on_c, 0, 57, 45
1, 227334, Note_off_c, 0, 57, 57
1, 227377, Note_on_c, 0, 62, 47
1, 227401, Note_off_c, 0, 62, 59
1, 227445, Note_on_c, 0, 65, 46
1, 227484, Note_off_c, 0, 65, 62
1, 227512, Note_on_c, 0, 69, 58
1, 227599, Note_off_c, 0, 69, 51
1, 227600, Note_on_c, 0, 74, 58
1, 227678, Note_on_c, 0, 77, 55
1, 227718, Note_off_c, 0, 74, 57
1, 227724, Note_off_c, 0, 77, 56
1, 227730, Note_on_c, 0, 48, 44
1, 227760, Note_off_c, 0, 48, 58
1, 227796, Note_on_c, 0, 53, 41
1, 227846, Note_off_c, 0, 53, 60
1, 227853, Note_on_c, 0, 57, 55
1, 227893, Note_off_c, 0, 57, 60
1, 227924, Note_on_c, 0, 62, 51
1, 227952, Note_off_c, 0, 62, 63
1, 228015, Note_on_c, 0, 65, 56
1, 228046, Note_off_c, 0, 65, 65
1, 228091, Note_on_c, 0, 69, 58
1, 228162, Note_off_c, 0, 69, 60
1, 228168, Note_on_c, 0, 74, 65
1, 228245, Note_on_c, 0, 77, 64
1, 228260, Note_off_c, 0, 74, 58
1, 228281, Note_off_c, 0, 77, 61
1, 228459, Note_on_c, 0, 62, 82
1, 228487, Note_on_c, 0, 48, 53
1, 228512, Control_c, 0, 64, 100
1, 228527, Control_c, 0, 64, 75
1, 228542, Control_c, 0, 64, 60
1, 228556, Control_c, 0, 64, 54
1, 228571, Control_c, 0, 64, 57
1, 228594, Control_c, 0, 64, 64
1, 228600, Note_on_c, 0, 53, 37
1, 228609, Control_c, 0, 64, 77
1, 228624, Control_c, 0, 64, 108
1, 228637, Note_off_c, 0, 48, 49
1, 228638, Control_c, 0, 64, 127
1, 228648, Note_off_c, 0, 62, 62
1, 228673, Note_off_c, 0, 53, 60
1, 228690, Note_on_c, 0, 57, 54
1, 228728, Note_off_c, 0, 57, 65
1, 228817, Control_c, 0, 67, 107
1, 228826, Note_on_c, 0, 65, 57
1, 228832, Control_c, 0, 67, 87
1, 228847, Control_c, 0, 67, 75
1, 228861, Control_c, 0, 67, 70
1, 228868, Note_off_c, 0, 65, 58
1, 228900, Note_on_c, 0, 69, 57
1, 228905, Control_c, 0, 67, 75
1, 228920, Control_c, 0, 67, 85
1, 228935, Control_c, 0, 67, 88
1, 228945, Note_off_c, 0, 69, 56
1, 228950, Control_c, 0, 67, 88
1, 228966, Note_on_c, 0, 74, 73
1, 228994, Control_c, 0, 67, 92
1, 229009, Control_c, 0, 67, 99
1, 229056, Note_on_c, 0, 77, 71
1, 229074, Note_off_c, 0, 74, 60
1, 229083, Control_c, 0, 67, 104
1, 229120, Note_off_c, 0, 77, 63
1, 229143, Control_c, 0, 67, 108
1, 229149, Note_on_c, 0, 64, 91
1, 229158, Control_c, 0, 67, 116
1, 229172, Control_c, 0, 67, 127
1, 229179, Note_on_c, 0, 48, 58
1, 229232, Control_c, 0, 64, 80
1, 229246, Control_c, 0, 64, 59
1, 229261, Control_c, 0, 64, 38
1, 229271, Note_on_c, 0, 52, 55
1, 229276, Control_c, 0, 64, 35
1, 229291, Control_c, 0, 64, 39
1, 229305, Control_c, 0, 64, 53
1, 229328, Control_c, 0, 64, 67
1, 229343, Control_c, 0, 64, 84
1, 229358, Control_c, 0, 64, 127
1, 229358, Note_on_c, 0, 55, 60
1, 229380, Note_off_c, 0, 48, 33
1, 229381, Note_off_c, 0, 52, 49
1, 229405, Note_off_c, 0, 55, 57
1, 229438, Note_on_c, 0, 60, 49
1, 229463, Note_off_c, 0, 60, 61
1, 229519, Note_on_c, 0, 67, 53
1, 229539, Note_off_c, 0, 64, 56
1, 229605, Note_off_c, 0, 67, 61
1, 229617, Note_on_c, 0, 72, 57
1, 229687, Note_on_c, 0, 76, 67
1, 229719, Note_off_c, 0, 72, 59
1, 229797, Note_on_c, 0, 65, 92
1, 229819, Note_off_c, 0, 76, 58
1, 229832, Note_on_c, 0, 48, 61
1, 229891, Control_c, 0, 64, 87
1, 229906, Control_c, 0, 64, 65
1, 229921, Control_c, 0, 64, 46
1, 229933, Note_on_c, 0, 53, 43
1, 229936, Control_c, 0, 64, 32
1, 229966, Note_off_c, 0, 48, 37
1, 229966, Control_c, 0, 64, 37
1, 229981, Control_c, 0, 64, 55
1, 229995, Control_c, 0, 64, 68
1, 230008, Note_on_c, 0, 57, 55
1, 230010, Control_c, 0, 64, 84
1, 230019, Note_off_c, 0, 53, 56
1, 230025, Control_c, 0, 64, 107
1, 230040, Control_c, 0, 64, 127
1, 230064, Note_off_c, 0, 57, 52
1, 230122, Note_on_c, 0, 62, 40
1, 230154, Note_off_c, 0, 62, 53
1, 230223, Note_on_c, 0, 69, 48
1, 230262, Note_off_c, 0, 65, 52
1, 230297, Note_off_c, 0, 69, 61
1, 230313, Note_on_c, 0, 74, 65
1, 230425, Note_off_c, 0, 74, 59
1, 230439, Note_on_c, 0, 77, 67
1, 230485, Note_on_c, 0, 36, 43
1, 230653, Note_on_c, 0, 64, 79
1, 230664, Note_off_c, 0, 77, 55
1, 230670, Control_c, 0, 64, 111
1, 230685, Control_c, 0, 64, 78
1, 230700, Control_c, 0, 64, 56
1, 230715, Control_c, 0, 64, 40
1, 230729, Note_on_c, 0, 48, 39
1, 230730, Control_c, 0, 64, 38
1, 230742, Note_off_c, 0, 36, 49
1, 230744, Control_c, 0, 64, 44
1, 230759, Control_c, 0, 64, 56
1, 230774, Control_c, 0, 64, 68
1, 230789, Control_c, 0, 64, 79
1, 230804, Control_c, 0, 64, 95
1, 230815, Note_off_c, 0, 48, 61
1, 230826, Control_c, 0, 64, 106
1, 230841, Control_c, 0, 64, 127
1, 230961, Note_on_c, 0, 55, 46
1, 230999, Note_off_c, 0, 55, 60
1, 231147, Note_on_c, 0, 67, 35
1, 231201, Note_off_c, 0, 67, 57
1, 231223, Note_on_c, 0, 72, 53
1, 231242, Note_off_c, 0, 64, 54
1, 231335, Note_on_c, 0, 76, 56
1, 231383, Note_off_c, 0, 72, 56
1, 231408, Note_on_c, 0, 48, 50
1, 231426, Note_off_c, 0, 76, 63
1, 231443, Note_off_c, 0, 48, 62
1, 231448, Control_c, 0, 67, 106
1, 231463, Control_c, 0, 67, 80
1, 231478, Control_c, 0, 67, 56
1, 231482, Note_on_c, 0, 52, 37
1, 231492, Control_c, 0, 67, 38
1, 231507, Control_c, 0, 67, 0
1, 231515, Note_off_c, 0, 52, 58
1, 231543, Note_on_c, 0, 55, 49
1, 231585, Note_off_c, 0, 55, 63
1, 231626, Note_on_c, 0, 60, 51
1, 231652, Note_off_c, 0, 60, 61
1, 231707, Note_on_c, 0, 64, 85
1, 231799, Note_on_c, 0, 67, 68
1, 231817, Note_off_c, 0, 64, 55
1, 231826, Control_c, 0, 67, 38
1, 231841, Control_c, 0, 67, 39
1, 231856, Control_c, 0, 67, 40
1, 231871, Control_c, 0, 67, 47
1, 231885, Control_c, 0, 67, 75
1, 231888, Note_off_c, 0, 67, 60
1, 231900, Control_c, 0, 67, 117
1, 231915, Control_c, 0, 67, 127
1, 231929, Note_on_c, 0, 72, 47
1, 232008, Note_on_c, 0, 76, 54
1, 232055, Note_off_c, 0, 72, 36
1, 232154, Note_on_c, 0, 65, 79
1, 232181, Note_on_c, 0, 50, 37
1, 232185, Note_on_c, 0, 48, 36
1, 232197, Control_c, 0, 64, 110
1, 232212, Control_c, 0, 64, 79
1, 232227, Control_c, 0, 64, 58
1, 232238, Note_off_c, 0, 76, 33
1, 232242, Control_c, 0, 64, 46
1, 232256, Control_c, 0, 64, 44
1, 232271, Control_c, 0, 64, 45
1, 232286, Control_c, 0, 64, 53
1, 232301, Control_c, 0, 64, 64
1, 232323, Control_c, 0, 64, 77
1, 232338, Control_c, 0, 64, 107
1, 232345, Note_on_c, 0, 53, 32
1, 232353, Control_c, 0, 64, 127
1, 232359, Note_off_c, 0, 65, 59
1, 232468, Note_on_c, 0, 56, 42
1, 232589, Note_on_c, 0, 60, 42
1, 232646, Note_off_c, 0, 60, 64
1, 232678, Note_off_c, 0, 56, 60
1, 232712, Note_on_c, 0, 62, 76
1, 232723, Note_off_c, 0, 53, 39
1, 232732, Note_off_c, 0, 48, 42
1, 232754, Note_off_c, 0, 50, 34
1, 232824, Note_on_c, 0, 68, 57
1, 232835, Note_off_c, 0, 62, 53
1, 232883, Note_off_c, 0, 68, 49
1, 232908, Note_on_c, 0, 72, 59
1, 233006, Note_on_c, 0, 36, 50
1, 233012, Note_on_c, 0, 74, 63
1, 233044, Note_off_c, 0, 72, 36
1, 233131, Control_c, 0, 64, 97
1, 233146, Control_c, 0, 64, 70
1, 233153, Note_on_c, 0, 64, 74
1, 233161, Control_c, 0, 64, 47
1, 233161, Note_off_c, 0, 74, 53
1, 233176, Control_c, 0, 64, 33
1, 233191, Control_c, 0, 64, 32
1, 233206, Control_c, 0, 64, 36
1, 233221, Control_c, 0, 64, 49
1, 233221, Note_off_c, 0, 36, 58
1, 233224, Note_on_c, 0, 48, 49
1, 233235, Control_c, 0, 64, 63
1, 233250, Control_c, 0, 64, 80
1, 233265, Control_c, 0, 64, 104
1, 233279, Control_c, 0, 64, 127
1, 233283, Note_off_c, 0, 48, 61
1, 233419, Note_on_c, 0, 55, 45
1, 233472, Note_off_c, 0, 55, 60
1, 233515, Note_on_c, 0, 60, 53
1, 233546, Note_off_c, 0, 60, 66
1, 233588, Note_on_c, 0, 67, 40
1, 233635, Control_c, 0, 67, 122
1, 233648, Note_off_c, 0, 67, 61
1, 233650, Control_c, 0, 67, 113
1, 233665, Control_c, 0, 67, 105
1, 233676, Note_on_c, 0, 72, 58
1, 233680, Control_c, 0, 67, 88
1, 233694, Control_c, 0, 67, 68
1, 233709, Control_c, 0, 67, 51
1, 233724, Control_c, 0, 67, 38
1, 233736, Note_off_c, 0, 64, 49
1, 233739, Control_c, 0, 67, 0
1, 233787, Note_on_c, 0, 76, 57
1, 233838, Note_off_c, 0, 72, 57
1, 233853, Note_on_c, 0, 48, 59
1, 233890, Note_off_c, 0, 48, 61
1, 233897, Note_on_c, 0, 52, 57
1, 233941, Note_off_c, 0, 52, 61
1, 233969, Note_on_c, 0, 55, 56
1, 234006, Note_off_c, 0, 55, 63
1, 234041, Note_on_c, 0, 60, 61
1, 234068, Note_off_c, 0, 60, 67
1, 234134, Note_on_c, 0, 64, 91
1, 234136, Note_off_c, 0, 76, 58
1, 234224, Note_on_c, 0, 67, 77
1, 234261, Note_off_c, 0, 64, 61
1, 234264, Control_c, 0, 67, 40
1, 234279, Control_c, 0, 67, 65
1, 234294, Control_c, 0, 67, 67
1, 234309, Control_c, 0, 67, 68
1, 234312, Note_off_c, 0, 67, 61
1, 234324, Control_c, 0, 67, 72
1, 234330, Note_on_c, 0, 72, 55
1, 234339, Control_c, 0, 67, 81
1, 234354, Control_c, 0, 67, 103
1, 234369, Control_c, 0, 67, 120
1, 234384, Control_c, 0, 67, 126
1, 234406, Note_on_c, 0, 76, 66
1, 234431, Note_off_c, 0, 72, 53
1, 234549, Note_on_c, 0, 65, 87
1, 234576, Note_on_c, 0, 50, 47
1, 234583, Note_on_c, 0, 48, 47
1, 234598, Control_c, 0, 64, 107
1, 234613, Control_c, 0, 64, 74
1, 234628, Control_c, 0, 64, 53
1, 234643, Control_c, 0, 64, 31
1, 234673, Control_c, 0, 64, 36
1, 234687, Control_c, 0, 64, 54
1, 234690, Note_off_c, 0, 76, 54
1, 234702, Control_c, 0, 64, 69
1, 234705, Note_on_c, 0, 53, 41
1, 234717, Control_c, 0, 64, 87
1, 234732, Control_c, 0, 64, 114
1, 234747, Control_c, 0, 64, 127
1, 234756, Note_off_c, 0, 65, 58
1, 234813, Note_on_c, 0, 56, 45
1, 234931, Note_on_c, 0, 60, 54
1, 235002, Note_off_c, 0, 60, 62
1, 235048, Note_off_c, 0, 56, 61
1, 235074, Note_off_c, 0, 53, 60
1, 235079, Note_on_c, 0, 62, 77
1, 235090, Note_off_c, 0, 50, 59
1, 235104, Note_off_c, 0, 48, 62
1, 235191, Note_on_c, 0, 68, 59
1, 235242, Note_off_c, 0, 62, 56
1, 235281, Note_off_c, 0, 68, 59
1, 235282, Note_on_c, 0, 72, 56
1, 235392, Note_on_c, 0, 74, 63
1, 235412, Note_on_c, 0, 36, 51
1, 235421, Note_off_c, 0, 72, 55
1, 235525, Control_c, 0, 64, 121
1, 235534, Note_on_c, 0, 64, 81
1, 235540, Control_c, 0, 64, 80
1, 235555, Control_c, 0, 64, 59
1, 235570, Control_c, 0, 64, 38
1, 235570, Note_off_c, 0, 74, 55
1, 235585, Control_c, 0, 64, 33
1, 235600, Control_c, 0, 64, 38
1, 235608, Note_on_c, 0, 48, 50
1, 235610, Note_off_c, 0, 36, 60
1, 235614, Control_c, 0, 64, 51
1, 235629, Control_c, 0, 64, 64
1, 235644, Control_c, 0, 64, 77
1, 235658, Note_off_c, 0, 48, 62
1, 235659, Control_c, 0, 64, 94
1, 235673, Control_c, 0, 64, 123
1, 235688, Control_c, 0, 64, 127
1, 235783, Note_on_c, 0, 55, 48
1, 235820, Note_off_c, 0, 55, 60
1, 235861, Note_on_c, 0, 60, 56
1, 235899, Note_off_c, 0, 60, 66
1, 235955, Note_on_c, 0, 67, 53
1, 236026, Note_off_c, 0, 67, 62
1, 236048, Note_on_c, 0, 72, 62
1, 236153, Note_on_c, 0, 76, 64
1, 236197, Note_off_c, 0, 64, 53
1, 236214, Control_c, 0, 67, 108
1, 236222, Note_on_c, 0, 48, 68
1, 236229, Control_c, 0, 67, 91
1, 236244, Control_c, 0, 67, 65
1, 236245, Note_off_c, 0, 72, 48
1, 236259, Control_c, 0, 67, 0
1, 236269, Note_on_c, 0, 52, 64
1, 236270, Note_off_c, 0, 48, 60
1, 236323, Note_off_c, 0, 52, 61
1, 236341, Note_on_c, 0, 55, 66
1, 236389, Note_off_c, 0, 55, 60
1, 236426, Note_on_c, 0, 60, 59
1, 236455, Note_off_c, 0, 60, 66
1, 236519, Note_on_c, 0, 64, 88
1, 236539, Note_off_c, 0, 76, 51
1, 236609, Note_on_c, 0, 67, 73
1, 236682, Note_off_c, 0, 64, 57
1, 236700, Note_off_c, 0, 67, 62
1, 236707, Note_on_c, 0, 72, 66
1, 236800, Note_on_c, 0, 76, 73
1, 236837, Note_off_c, 0, 72, 52
1, 236940, Note_on_c, 0, 65, 92
1, 236948, Note_on_c, 0, 50, 50
1, 236961, Note_on_c, 0, 48, 49
1, 236993, Control_c, 0, 64, 114
1, 237008, Control_c, 0, 64, 77
1, 237023, Control_c, 0, 64, 52
1, 237037, Control_c, 0, 64, 0
1, 237052, Control_c, 0, 67, 35
1, 237057, Note_on_c, 0, 53, 43
1, 237067, Control_c, 0, 67, 71
1, 237082, Control_c, 0, 64, 37
1, 237082, Control_c, 0, 67, 103
1, 237097, Control_c, 0, 64, 58
1, 237097, Control_c, 0, 67, 108
1, 237111, Control_c, 0, 64, 77
1, 237116, Note_off_c, 0, 76, 37
1, 237127, Control_c, 0, 64, 127
1, 237127, Control_c, 0, 67, 111
1, 237142, Control_c, 0, 67, 122
1, 237157, Control_c, 0, 67, 127
1, 237171, Note_off_c, 0, 65, 59
1, 237182, Note_on_c, 0, 56, 66
1, 237240, Poly_aftertouch_c, 0, 68, 127
1, 237271, Poly_aftertouch_c, 0, 68, 0
1, 237285, Note_on_c, 0, 60, 60
1, 237338, Note_off_c, 0, 60, 63
1, 237371, Note_off_c, 0, 48, 56
1, 237375, Note_off_c, 0, 56, 63
1, 237382, Note_off_c, 0, 50, 48
1, 237393, Note_on_c, 0, 62, 90
1, 237406, Note_off_c, 0, 53, 61
1, 237484, Note_on_c, 0, 68, 75
1, 237531, Note_off_c, 0, 62, 55
1, 237589, Note_on_c, 0, 72, 69
1, 237608, Note_off_c, 0, 68, 54
1, 237668, Note_on_c, 0, 74, 77
1, 237711, Note_off_c, 0, 72, 56
1, 237786, Note_on_c, 0, 64, 93
1, 237802, Control_c, 0, 64, 78
1, 237810, Note_on_c, 0, 48, 63
1, 237817, Control_c, 0, 64, 55
1, 237832, Control_c, 0, 64, 0
1, 237863, Note_off_c, 0, 74, 50
1, 237905, Control_c, 0, 64, 39
1, 237920, Control_c, 0, 64, 61
1, 237934, Control_c, 0, 64, 80
1, 237940, Note_on_c, 0, 52, 47
1, 237949, Control_c, 0, 64, 127
1, 237952, Note_off_c, 0, 64, 65
1, 237977, Note_off_c, 0, 48, 50
1, 238004, Note_on_c, 0, 55, 44
1, 238023, Note_off_c, 0, 52, 58
1, 238074, Note_on_c, 0, 60, 52
1, 238163, Note_off_c, 0, 60, 57
1, 238200, Note_on_c, 0, 52, 56
1, 238202, Note_on_c, 0, 67, 90
1, 238228, Note_off_c, 0, 55, 55
1, 238268, Note_off_c, 0, 52, 60
1, 238322, Note_on_c, 0, 72, 72
1, 238387, Note_off_c, 0, 67, 51
1, 238440, Note_on_c, 0, 76, 69
1, 238455, Note_off_c, 0, 72, 53
1, 238524, Note_off_c, 0, 76, 63
1, 238579, Poly_aftertouch_c, 0, 79, 127
1, 238613, Poly_aftertouch_c, 0, 79, 0
1, 238685, Note_on_c, 0, 57, 84
1, 238691, Note_on_c, 0, 41, 54
1, 238713, Control_c, 0, 64, 83
1, 238728, Control_c, 0, 64, 63
1, 238743, Control_c, 0, 64, 47
1, 238757, Control_c, 0, 64, 44
1, 238772, Control_c, 0, 64, 51
1, 238787, Control_c, 0, 64, 63
1, 238802, Control_c, 0, 64, 76
1, 238814, Note_off_c, 0, 41, 61
1, 238816, Control_c, 0, 64, 98
1, 238831, Control_c, 0, 64, 127
1, 238847, Note_on_c, 0, 53, 43
1, 238857, Note_off_c, 0, 57, 62
1, 238882, Note_off_c, 0, 53, 60
1, 238978, Note_on_c, 0, 57, 50
1, 239014, Note_off_c, 0, 57, 62
1, 239080, Note_on_c, 0, 60, 47
1, 239113, Note_off_c, 0, 60, 66
1, 239151, Note_on_c, 0, 62, 82
1, 239259, Note_on_c, 0, 65, 63
1, 239272, Note_off_c, 0, 62, 56
1, 239361, Note_off_c, 0, 65, 58
1, 239379, Note_on_c, 0, 69, 52
1, 239475, Note_off_c, 0, 69, 61
1, 239489, Note_on_c, 0, 74, 58
1, 239615, Note_on_c, 0, 64, 77
1, 239636, Note_on_c, 0, 38, 46
1, 239639, Control_c, 0, 64, 83
1, 239654, Control_c, 0, 64, 62
1, 239660, Note_off_c, 0, 74, 55
1, 239669, Control_c, 0, 64, 45
1, 239684, Control_c, 0, 64, 41
1, 239699, Control_c, 0, 64, 48
1, 239713, Control_c, 0, 64, 59
1, 239728, Control_c, 0, 64, 71
1, 239731, Note_off_c, 0, 38, 57
1, 239743, Control_c, 0, 64, 89
1, 239758, Control_c, 0, 64, 127
1, 239781, Note_on_c, 0, 50, 37
1, 239794, Note_off_c, 0, 64, 61
1, 239826, Note_off_c, 0, 50, 53
1, 239888, Poly_aftertouch_c, 0, 71, 127
1, 239922, Poly_aftertouch_c, 0, 71, 0
1, 239935, Note_on_c, 0, 57, 35
1, 239967, Note_off_c, 0, 57, 56
1, 240037, Note_on_c, 0, 60, 41
1, 240075, Note_off_c, 0, 60, 65
1, 240127, Note_on_c, 0, 65, 72
1, 240244, Note_on_c, 0, 69, 58
1, 240259, Note_off_c, 0, 65, 50
1, 240327, Note_off_c, 0, 69, 56
1, 240348, Note_on_c, 0, 74, 57
1, 240455, Note_off_c, 0, 74, 59
1, 240467, Note_on_c, 0, 77, 50
1, 240587, Note_off_c, 0, 77, 58
1, 240646, Note_on_c, 0, 64, 65
1, 240679, Note_on_c, 0, 43, 40
1, 240708, Control_c, 0, 64, 92
1, 240723, Control_c, 0, 64, 68
1, 240739, Control_c, 0, 64, 50
1, 240754, Control_c, 0, 64, 39
1, 240768, Control_c, 0, 64, 41
1, 240783, Control_c, 0, 64, 48
1, 240798, Control_c, 0, 64, 61
1, 240812, Control_c, 0, 64, 73
1, 240827, Control_c, 0, 64, 86
1, 240842, Control_c, 0, 64, 99
1, 240857, Control_c, 0, 64, 108
1, 240872, Control_c, 0, 64, 120
1, 240886, Control_c, 0, 64, 127
1, 240903, Note_off_c, 0, 43, 37
1, 240917, Note_on_c, 0, 52, 42
1, 241017, Note_off_c, 0, 52, 57
1, 241074, Note_on_c, 0, 55, 31
1, 241138, Note_off_c, 0, 55, 55
1, 241168, Note_on_c, 0, 60, 50
1, 241202, Note_off_c, 0, 60, 64
1, 241297, Note_on_c, 0, 67, 45
1, 241373, Note_off_c, 0, 67, 55
1, 241419, Note_on_c, 0, 72, 45
1, 241492, Note_off_c, 0, 64, 44
1, 241538, Note_on_c, 0, 76, 50
1, 241609, Note_off_c, 0, 72, 47
1, 241771, Note_off_c, 0, 76, 39
1, 241800, Note_on_c, 0, 62, 55
1, 241975, Control_c, 0, 64, 92
1, 241990, Control_c, 0, 64, 74
1, 242005, Control_c, 0, 64, 61
1, 242020, Control_c, 0, 64, 55
1, 242034, Control_c, 0, 64, 55
1, 242056, Note_on_c, 0, 50, 46
1, 242056, Control_c, 0, 64, 58
1, 242071, Control_c, 0, 64, 63
1, 242086, Control_c, 0, 64, 69
1, 242101, Control_c, 0, 64, 77
1, 242116, Control_c, 0, 64, 88
1, 242131, Control_c, 0, 64, 105
1, 242146, Control_c, 0, 64, 127
1, 242153, Note_on_c, 0, 55, 44
1, 242155, Note_off_c, 0, 50, 54
1, 242227, Note_off_c, 0, 55, 53
1, 242258, Note_on_c, 0, 60, 39
1, 242287, Note_off_c, 0, 60, 59
1, 242362, Note_on_c, 0, 67, 42
1, 242424, Note_off_c, 0, 67, 55
1, 242471, Note_on_c, 0, 72, 42
1, 242572, Note_on_c, 0, 74, 50
1, 242646, Note_off_c, 0, 72, 35
1, 242650, Control_c, 0, 64, 85
1, 242658, Note_on_c, 0, 43, 51
1, 242664, Control_c, 0, 64, 63
1, 242679, Control_c, 0, 64, 45
1, 242694, Control_c, 0, 64, 43
1, 242709, Control_c, 0, 64, 47
1, 242724, Control_c, 0, 64, 56
1, 242739, Control_c, 0, 64, 66
1, 242742, Note_off_c, 0, 43, 51
1, 242754, Control_c, 0, 64, 75
1, 242760, Note_on_c, 0, 50, 45
1, 242769, Control_c, 0, 64, 83
1, 242783, Control_c, 0, 64, 90
1, 242805, Control_c, 0, 64, 99
1, 242820, Control_c, 0, 64, 127
1, 242865, Note_off_c, 0, 50, 57
1, 242873, Note_on_c, 0, 55, 57
1, 242934, Note_off_c, 0, 55, 52
1, 242956, Note_off_c, 0, 62, 42
1, 242983, Note_on_c, 0, 59, 42
1, 243013, Note_off_c, 0, 59, 54
1, 243100, Note_on_c, 0, 62, 46
1, 243106, Note_off_c, 0, 74, 38
1, 243234, Note_on_c, 0, 65, 52
1, 243347, Note_off_c, 0, 65, 50
1, 243376, Note_on_c, 0, 71, 48
1, 243400, Note_off_c, 0, 62, 31
1, 243519, Note_on_c, 0, 74, 57
1, 243546, Note_off_c, 0, 71, 54
1, 243582, Note_on_c, 0, 36, 35
1, 243749, Note_on_c, 0, 43, 46
1, 243851, Control_c, 0, 64, 100
1, 243866, Control_c, 0, 64, 77
1, 243881, Control_c, 0, 64, 62
1, 243895, Control_c, 0, 64, 52
1, 243910, Control_c, 0, 64, 49
1, 243926, Control_c, 0, 64, 50
1, 243941, Control_c, 0, 64, 54
1, 243956, Control_c, 0, 64, 62
1, 243971, Control_c, 0, 64, 72
1, 243985, Control_c, 0, 64, 84
1, 244000, Control_c, 0, 64, 96
1, 244015, Control_c, 0, 64, 103
1, 244030, Control_c, 0, 64, 111
1, 244045, Control_c, 0, 64, 127
1, 244087, Note_on_c, 0, 60, 70
1, 244118, Note_off_c, 0, 74, 52
1, 244134, Note_on_c, 0, 52, 36
1, 244176, Note_off_c, 0, 43, 60
1, 244192, Note_off_c, 0, 36, 39
1, 244280, Note_off_c, 0, 52, 54
1, 244437, Note_on_c, 0, 55, 38
1, 244464, Note_off_c, 0, 60, 54
1, 244467, Control_c, 0, 67, 120
1, 244482, Control_c, 0, 67, 116
1, 244497, Control_c, 0, 67, 110
1, 244511, Control_c, 0, 67, 100
1, 244526, Control_c, 0, 67, 92
1, 244541, Control_c, 0, 67, 88
1, 244542, Note_off_c, 0, 55, 48
1, 244555, Control_c, 0, 67, 84
1, 244570, Control_c, 0, 67, 77
1, 244581, Note_on_c, 0, 60, 30
1, 244585, Control_c, 0, 67, 67
1, 244600, Control_c, 0, 67, 60
1, 244615, Control_c, 0, 67, 58
1, 244617, Note_off_c, 0, 60, 54
1, 244629, Control_c, 0, 67, 58
1, 244697, Note_on_c, 0, 64, 43
1, 244749, Note_off_c, 0, 64, 56
1, 244764, Control_c, 0, 67, 58
1, 244766, Note_on_c, 0, 67, 54
1, 244838, Control_c, 0, 67, 63
1, 244852, Control_c, 0, 67, 64
1, 244860, Note_off_c, 0, 67, 61
1, 244882, Note_on_c, 0, 72, 52
1, 244912, Control_c, 0, 67, 67
1, 244919, Note_on_c, 0, 62, 86
1, 244927, Control_c, 0, 67, 68
1, 244971, Note_on_c, 0, 48, 51
1, 244986, Control_c, 0, 67, 71
1, 244987, Note_off_c, 0, 72, 35
1, 245001, Control_c, 0, 67, 74
1, 245031, Control_c, 0, 64, 85
1, 245052, Control_c, 0, 64, 65
1, 245052, Control_c, 0, 67, 74
1, 245067, Control_c, 0, 64, 53
1, 245067, Control_c, 0, 67, 76
1, 245082, Control_c, 0, 64, 49
1, 245082, Control_c, 0, 67, 78
1, 245091, Note_on_c, 0, 53, 38
1, 245097, Control_c, 0, 64, 53
1, 245097, Control_c, 0, 67, 77
1, 245112, Control_c, 0, 64, 61
1, 245112, Control_c, 0, 67, 77
1, 245127, Control_c, 0, 64, 73
1, 245141, Control_c, 0, 64, 94
1, 245141, Control_c, 0, 67, 78
1, 245156, Control_c, 0, 64, 127
1, 245156, Control_c, 0, 67, 80
1, 245161, Note_off_c, 0, 53, 55
1, 245171, Control_c, 0, 67, 79
1, 245172, Note_off_c, 0, 48, 50
1, 245175, Note_on_c, 0, 57, 52
1, 245186, Control_c, 0, 67, 79
1, 245210, Note_off_c, 0, 57, 64
1, 245216, Control_c, 0, 67, 81
1, 245231, Control_c, 0, 67, 84
1, 245276, Note_off_c, 0, 62, 56
1, 245277, Note_on_c, 0, 65, 49
1, 245290, Control_c, 0, 67, 85
1, 245305, Control_c, 0, 67, 88
1, 245320, Control_c, 0, 67, 92
1, 245334, Control_c, 0, 67, 94
1, 245349, Control_c, 0, 67, 95
1, 245356, Note_off_c, 0, 65, 60
1, 245364, Control_c, 0, 67, 97
1, 245372, Note_on_c, 0, 69, 55
1, 245378, Control_c, 0, 67, 105
1, 245393, Control_c, 0, 67, 120
1, 245408, Control_c, 0, 67, 124
1, 245452, Control_c, 0, 67, 127
1, 245458, Note_on_c, 0, 74, 74
1, 245464, Note_off_c, 0, 69, 58
1, 245528, Control_c, 0, 67, 0
1, 245543, Control_c, 0, 67, 127
1, 245568, Note_on_c, 0, 64, 91
1, 245594, Note_on_c, 0, 48, 55
1, 245604, Note_off_c, 0, 74, 55
1, 245646, Control_c, 0, 64, 118
1, 245661, Control_c, 0, 64, 80
1, 245675, Control_c, 0, 64, 60
1, 245690, Control_c, 0, 64, 35
1, 245699, Note_on_c, 0, 52, 44
1, 245705, Control_c, 0, 64, 0
1, 245735, Control_c, 0, 64, 32
1, 245750, Control_c, 0, 64, 51
1, 245764, Control_c, 0, 64, 66
1, 245779, Control_c, 0, 64, 81
1, 245786, Note_on_c, 0, 55, 37
1, 245801, Control_c, 0, 64, 103
1, 245816, Note_off_c, 0, 48, 34
1, 245816, Control_c, 0, 64, 127
1, 245860, Note_off_c, 0, 52, 58
1, 245873, Note_off_c, 0, 55, 58
1, 245875, Note_on_c, 0, 60, 35
1, 245911, Note_off_c, 0, 60, 51
1, 245997, Note_on_c, 0, 67, 49
1, 246001, Note_off_c, 0, 64, 54
1, 246057, Note_off_c, 0, 67, 58
1, 246094, Note_on_c, 0, 72, 52
1, 246188, Note_on_c, 0, 76, 57
1, 246196, Note_off_c, 0, 72, 60
1, 246264, Note_on_c, 0, 36, 48
1, 246461, Note_on_c, 0, 62, 75
1, 246465, Note_off_c, 0, 76, 51
1, 246468, Control_c, 0, 64, 94
1, 246483, Control_c, 0, 64, 71
1, 246497, Control_c, 0, 64, 54
1, 246512, Control_c, 0, 64, 40
1, 246524, Note_on_c, 0, 48, 42
1, 246527, Control_c, 0, 64, 39
1, 246534, Note_off_c, 0, 36, 47
1, 246548, Control_c, 0, 64, 45
1, 246563, Control_c, 0, 64, 58
1, 246578, Control_c, 0, 64, 69
1, 246593, Control_c, 0, 64, 84
1, 246608, Control_c, 0, 64, 106
1, 246621, Note_off_c, 0, 48, 60
1, 246623, Control_c, 0, 64, 127
1, 246691, Note_off_c, 0, 62, 62
1, 246813, Note_on_c, 0, 53, 25
1, 246872, Note_off_c, 0, 53, 59
1, 246892, Note_on_c, 0, 57, 49
1, 246942, Note_off_c, 0, 57, 57
1, 247013, Note_on_c, 0, 62, 9
1, 247058, Note_on_c, 0, 65, 42
1, 247063, Note_off_c, 0, 62, 50
1, 247127, Note_off_c, 0, 65, 55
1, 247144, Note_on_c, 0, 69, 43
1, 247204, Note_off_c, 0, 69, 53
1, 247221, Note_on_c, 0, 74, 57
1, 247313, Note_on_c, 0, 77, 49
1, 247357, Note_off_c, 0, 74, 49
1, 247360, Note_on_c, 0, 48, 38
1, 247363, Note_off_c, 0, 77, 58
1, 247401, Note_off_c, 0, 48, 55
1, 247437, Note_on_c, 0, 53, 33
1, 247493, Note_off_c, 0, 53, 60
1, 247514, Note_on_c, 0, 57, 48
1, 247550, Note_off_c, 0, 57, 62
1, 247589, Note_on_c, 0, 62, 52
1, 247614, Note_off_c, 0, 62, 63
1, 247666, Note_on_c, 0, 65, 51
1, 247715, Note_off_c, 0, 65, 58
1, 247748, Note_on_c, 0, 69, 47
1, 247803, Note_off_c, 0, 69, 52
1, 247812, Note_on_c, 0, 74, 60
1, 247914, Note_on_c, 0, 77, 45
1, 247932, Note_off_c, 0, 74, 51
1, 247946, Note_on_c, 0, 48, 45
1, 247947, Note_off_c, 0, 77, 53
1, 247977, Note_off_c, 0, 48, 52
1, 248000, Note_on_c, 0, 53, 45
1, 248040, Note_off_c, 0, 53, 61
1, 248055, Note_on_c, 0, 57, 58
1, 248090, Note_off_c, 0, 57, 62
1, 248124, Note_on_c, 0, 62, 60
1, 248153, Note_off_c, 0, 62, 65
1, 248200, Note_on_c, 0, 65, 58
1, 248270, Note_on_c, 0, 69, 64
1, 248274, Note_off_c, 0, 65, 60
1, 248331, Note_off_c, 0, 69, 61
1, 248338, Note_on_c, 0, 74, 71
1, 248408, Note_off_c, 0, 74, 63
1, 248420, Note_on_c, 0, 77, 66
1, 248452, Note_off_c, 0, 77, 58
1, 248576, Note_on_c, 0, 62, 84
1, 248612, Note_on_c, 0, 48, 56
1, 248624, Control_c, 0, 64, 110
1, 248639, Control_c, 0, 64, 78
1, 248654, Control_c, 0, 64, 59
1, 248668, Control_c, 0, 64, 45
1, 248683, Control_c, 0, 64, 44
1, 248698, Control_c, 0, 64, 52
1, 248714, Control_c, 0, 64, 65
1, 248716, Note_on_c, 0, 53, 48
1, 248729, Control_c, 0, 64, 86
1, 248743, Control_c, 0, 64, 127
1, 248764, Note_off_c, 0, 62, 60
1, 248799, Note_off_c, 0, 48, 37
1, 248802, Note_off_c, 0, 53, 53
1, 248814, Note_on_c, 0, 57, 52
1, 248844, Note_off_c, 0, 57, 65
1, 248885, Control_c, 0, 67, 123
1, 248899, Control_c, 0, 67, 98
1, 248903, Note_on_c, 0, 65, 59
1, 248914, Control_c, 0, 67, 74
1, 248929, Control_c, 0, 67, 57
1, 248942, Note_off_c, 0, 65, 57
1, 248943, Control_c, 0, 67, 42
1, 248958, Control_c, 0, 67, 0
1, 248978, Note_on_c, 0, 69, 59
1, 249023, Note_off_c, 0, 69, 61
1, 249038, Note_on_c, 0, 74, 69
1, 249108, Note_on_c, 0, 77, 66
1, 249109, Note_off_c, 0, 74, 61
1, 249165, Note_off_c, 0, 77, 62
1, 249207, Note_on_c, 0, 64, 89
1, 249234, Note_on_c, 0, 48, 64
1, 249270, Control_c, 0, 64, 93
1, 249285, Control_c, 0, 64, 61
1, 249299, Control_c, 0, 64, 0
1, 249322, Note_on_c, 0, 52, 54
1, 249358, Control_c, 0, 64, 52
1, 249372, Note_off_c, 0, 48, 49
1, 249373, Control_c, 0, 64, 75
1, 249380, Note_on_c, 0, 55, 56
1, 249388, Control_c, 0, 64, 107
1, 249403, Control_c, 0, 64, 127
1, 249422, Note_off_c, 0, 52, 56
1, 249437, Note_off_c, 0, 55, 56
1, 249451, Note_on_c, 0, 60, 64
1, 249477, Note_off_c, 0, 60, 67
1, 249551, Note_on_c, 0, 67, 62
1, 249574, Note_off_c, 0, 64, 58
1, 249631, Note_off_c, 0, 67, 60
1, 249640, Note_on_c, 0, 72, 66
1, 249702, Note_on_c, 0, 76, 83
1, 249732, Note_off_c, 0, 72, 60
1, 249810, Note_on_c, 0, 65, 90
1, 249824, Note_on_c, 0, 48, 66
1, 249842, Note_off_c, 0, 76, 58
1, 249871, Control_c, 0, 64, 83
1, 249886, Control_c, 0, 64, 58
1, 249901, Control_c, 0, 64, 35
1, 249915, Control_c, 0, 64, 0
1, 249935, Note_on_c, 0, 53, 45
1, 249945, Control_c, 0, 64, 41
1, 249960, Control_c, 0, 64, 61
1, 249974, Control_c, 0, 64, 77
1, 249989, Control_c, 0, 64, 104
1, 249994, Note_on_c, 0, 56, 69
1, 250004, Note_off_c, 0, 48, 51
1, 250004, Control_c, 0, 64, 127
1, 250036, Note_off_c, 0, 53, 61
1, 250073, Note_off_c, 0, 56, 61
1, 250078, Note_on_c, 0, 62, 59
1, 250104, Note_off_c, 0, 62, 65
1, 250108, Control_c, 0, 67, 46
1, 250123, Control_c, 0, 67, 76
1, 250137, Control_c, 0, 67, 94
1, 250152, Control_c, 0, 67, 95
1, 250167, Control_c, 0, 67, 97
1, 250178, Note_on_c, 0, 68, 65
1, 250182, Control_c, 0, 67, 102
1, 250197, Control_c, 0, 67, 123
1, 250212, Control_c, 0, 67, 127
1, 250266, Note_off_c, 0, 68, 61
1, 250281, Note_on_c, 0, 74, 72
1, 250313, Note_off_c, 0, 65, 58
1, 250371, Note_on_c, 0, 77, 75
1, 250378, Note_off_c, 0, 74, 62
1, 250470, Note_off_c, 0, 77, 60
1, 250493, Note_on_c, 0, 64, 92
1, 250524, Note_on_c, 0, 48, 65
1, 250576, Control_c, 0, 64, 82
1, 250590, Control_c, 0, 64, 60
1, 250605, Control_c, 0, 64, 0
1, 250644, Note_on_c, 0, 52, 59
1, 250664, Control_c, 0, 64, 38
1, 250679, Control_c, 0, 64, 59
1, 250694, Control_c, 0, 64, 72
1, 250709, Control_c, 0, 64, 85
1, 250723, Control_c, 0, 64, 94
1, 250733, Note_on_c, 0, 55, 60
1, 250738, Control_c, 0, 64, 101
1, 250753, Control_c, 0, 64, 127
1, 250766, Note_off_c, 0, 48, 37
1, 250766, Note_off_c, 0, 52, 55
1, 250813, Note_on_c, 0, 60, 62
1, 250826, Note_off_c, 0, 55, 61
1, 250843, Note_off_c, 0, 60, 66
1, 250893, Note_on_c, 0, 67, 61
1, 251005, Note_off_c, 0, 67, 59
1, 251014, Note_on_c, 0, 72, 59
1, 251134, Note_on_c, 0, 76, 70
1, 251336, Note_on_c, 0, 47, 79
1, 251458, Control_c, 0, 64, 111
1, 251473, Control_c, 0, 64, 84
1, 251487, Control_c, 0, 64, 65
1, 251502, Control_c, 0, 64, 43
1, 251517, Control_c, 0, 64, 0
1, 251560, Note_on_c, 0, 52, 49
1, 251576, Control_c, 0, 64, 45
1, 251591, Control_c, 0, 64, 62
1, 251606, Control_c, 0, 64, 75
1, 251620, Control_c, 0, 64, 91
1, 251635, Control_c, 0, 64, 103
1, 251650, Control_c, 0, 64, 114
1, 251664, Control_c, 0, 64, 127
1, 251695, Note_off_c, 0, 72, 1
1, 251700, Note_on_c, 0, 55, 56
1, 251762, Note_off_c, 0, 52, 59
1, 251779, Note_off_c, 0, 64, 55
1, 251829, Note_off_c, 0, 55, 51
1, 251837, Note_on_c, 0, 59, 47
1, 251909, Note_off_c, 0, 59, 62
1, 251918, Note_off_c, 0, 47, 57
1, 251935, Note_on_c, 0, 64, 85
1, 251989, Note_off_c, 0, 76, 37
1, 252038, Note_on_c, 0, 67, 73
1, 252066, Note_off_c, 0, 64, 57
1, 252131, Note_off_c, 0, 67, 59
1, 252144, Note_on_c, 0, 71, 59
1, 252228, Note_off_c, 0, 71, 61
1, 252231, Note_on_c, 0, 76, 67
1, 252270, Note_off_c, 0, 76, 62
1, 252424, Note_on_c, 0, 66, 86
1, 252445, Note_on_c, 0, 47, 44
1, 252501, Control_c, 0, 64, 123
1, 252516, Control_c, 0, 64, 90
1, 252539, Control_c, 0, 64, 66
1, 252554, Control_c, 0, 64, 41
1, 252568, Control_c, 0, 64, 0
1, 252610, Note_on_c, 0, 54, 47
1, 252628, Control_c, 0, 64, 41
1, 252642, Control_c, 0, 64, 62
1, 252657, Control_c, 0, 64, 74
1, 252672, Control_c, 0, 64, 86
1, 252686, Control_c, 0, 64, 97
1, 252701, Control_c, 0, 64, 103
1, 252717, Control_c, 0, 64, 112
1, 252732, Control_c, 0, 64, 127
1, 252739, Note_off_c, 0, 66, 52
1, 252761, Note_on_c, 0, 57, 41
1, 252892, Note_on_c, 0, 59, 41
1, 252977, Note_on_c, 0, 63, 79
1, 252987, Note_off_c, 0, 57, 49
1, 253033, Note_off_c, 0, 54, 43
1, 253042, Note_off_c, 0, 47, 40
1, 253082, Note_on_c, 0, 66, 62
1, 253092, Note_off_c, 0, 59, 38
1, 253121, Note_off_c, 0, 63, 57
1, 253187, Note_off_c, 0, 66, 55
1, 253207, Note_on_c, 0, 71, 46
1, 253261, Note_on_c, 0, 75, 58
1, 253369, Note_off_c, 0, 71, 29
1, 253413, Note_on_c, 0, 64, 81
1, 253429, Note_off_c, 0, 75, 33
1, 253437, Note_on_c, 0, 48, 56
1, 253466, Control_c, 0, 64, 83
1, 253481, Control_c, 0, 64, 63
1, 253496, Control_c, 0, 64, 33
1, 253512, Control_c, 0, 64, 0
1, 253571, Control_c, 0, 64, 47
1, 253586, Control_c, 0, 64, 63
1, 253601, Control_c, 0, 64, 72
1, 253604, Note_on_c, 0, 52, 44
1, 253615, Control_c, 0, 64, 79
1, 253630, Control_c, 0, 64, 84
1, 253645, Control_c, 0, 64, 89
1, 253660, Control_c, 0, 64, 100
1, 253675, Control_c, 0, 64, 127
1, 253688, Note_on_c, 0, 55, 50
1, 253693, Note_off_c, 0, 48, 35
1, 253698, Note_off_c, 0, 52, 51
1, 253742, Note_off_c, 0, 55, 52
1, 253780, Note_on_c, 0, 60, 43
1, 253808, Note_off_c, 0, 60, 54
1, 253842, Note_on_c, 0, 67, 45
1, 253914, Note_off_c, 0, 67, 58
1, 253947, Note_on_c, 0, 72, 51
1, 254056, Note_on_c, 0, 76, 58
1, 254096, Control_c, 0, 64, 119
1, 254111, Control_c, 0, 64, 78
1, 254126, Control_c, 0, 64, 57
1, 254128, Note_on_c, 0, 47, 58
1, 254141, Control_c, 0, 64, 0
1, 254186, Control_c, 0, 64, 34
1, 254200, Control_c, 0, 64, 55
1, 254215, Control_c, 0, 64, 72
1, 254215, Note_on_c, 0, 52, 50
1, 254230, Control_c, 0, 64, 96
1, 254245, Control_c, 0, 64, 127
1, 254277, Note_on_c, 0, 55, 61
1, 254282, Note_off_c, 0, 47, 36
1, 254310, Note_off_c, 0, 52, 55
1, 254327, Note_off_c, 0, 64, 58
1, 254352, Note_off_c, 0, 55, 58
1, 254364, Note_on_c, 0, 59, 70
1, 254387, Note_off_c, 0, 59, 67
1, 254397, Note_off_c, 0, 72, 28
1, 254429, Note_on_c, 0, 64, 91
1, 254452, Note_off_c, 0, 76, 39
1, 254516, Note_on_c, 0, 67, 77
1, 254527, Note_off_c, 0, 64, 59
1, 254606, Note_off_c, 0, 67, 58
1, 254635, Note_on_c, 0, 71, 57
1, 254701, Note_off_c, 0, 71, 60
1, 254715, Note_on_c, 0, 76, 65
1, 254845, Control_c, 0, 64, 96
1, 254846, Note_on_c, 0, 47, 57
1, 254847, Note_on_c, 0, 67, 83
1, 254860, Control_c, 0, 64, 69
1, 254875, Control_c, 0, 64, 44
1, 254889, Control_c, 0, 64, 0
1, 254934, Control_c, 0, 64, 35
1, 254948, Note_off_c, 0, 76, 56
1, 254949, Control_c, 0, 64, 54
1, 254964, Control_c, 0, 64, 66
1, 254976, Note_on_c, 0, 51, 47
1, 254978, Control_c, 0, 64, 74
1, 254993, Control_c, 0, 64, 82
1, 255008, Control_c, 0, 64, 88
1, 255009, Note_off_c, 0, 67, 61
1, 255023, Control_c, 0, 64, 95
1, 255038, Control_c, 0, 64, 108
1, 255053, Control_c, 0, 64, 127
1, 255096, Note_on_c, 0, 57, 51
1, 255241, Note_on_c, 0, 59, 53
1, 255350, Control_c, 0, 64, 95
1, 255364, Note_on_c, 0, 63, 76
1, 255365, Control_c, 0, 64, 71
1, 255379, Control_c, 0, 64, 52
1, 255394, Control_c, 0, 64, 0
1, 255439, Control_c, 0, 64, 44
1, 255453, Control_c, 0, 64, 60
1, 255468, Control_c, 0, 64, 72
1, 255483, Control_c, 0, 64, 84
1, 255498, Control_c, 0, 64, 95
1, 255506, Note_on_c, 0, 66, 56
1, 255512, Control_c, 0, 64, 102
1, 255513, Note_off_c, 0, 57, 62
1, 255535, Control_c, 0, 64, 113
1, 255536, Note_off_c, 0, 59, 59
1, 255542, Note_off_c, 0, 47, 41
1, 255550, Control_c, 0, 64, 127
1, 255554, Note_off_c, 0, 51, 61
1, 255618, Note_off_c, 0, 66, 56
1, 255624, Note_on_c, 0, 71, 54
1, 255637, Note_off_c, 0, 63, 50
1, 255742, Note_on_c, 0, 75, 52
1, 255783, Note_off_c, 0, 71, 37
1, 255843, Note_off_c, 0, 75, 52
1, 255858, Note_on_c, 0, 64, 67
1, 255867, Note_on_c, 0, 46, 46
1, 255876, Control_c, 0, 64, 102
1, 255891, Control_c, 0, 64, 77
1, 255906, Control_c, 0, 64, 55
1, 255921, Control_c, 0, 64, 29
1, 255935, Control_c, 0, 64, 0
1, 255995, Control_c, 0, 64, 45
1, 256010, Control_c, 0, 64, 59
1, 256025, Control_c, 0, 64, 68
1, 256038, Note_on_c, 0, 52, 34
1, 256040, Control_c, 0, 64, 77
1, 256055, Control_c, 0, 64, 86
1, 256069, Control_c, 0, 64, 93
1, 256084, Control_c, 0, 64, 100
1, 256099, Control_c, 0, 64, 110
1, 256114, Control_c, 0, 64, 127
1, 256130, Note_on_c, 0, 55, 45
1, 256132, Note_off_c, 0, 46, 35
1, 256198, Note_off_c, 0, 52, 33
1, 256213, Note_off_c, 0, 55, 60
1, 256232, Note_on_c, 0, 60, 37
1, 256264, Note_off_c, 0, 60, 53
1, 256314, Note_on_c, 0, 67, 43
1, 256385, Note_off_c, 0, 67, 56
1, 256423, Note_on_c, 0, 72, 47
1, 256534, Note_on_c, 0, 76, 49
1, 256624, Control_c, 0, 64, 85
1, 256637, Note_on_c, 0, 47, 44
1, 256639, Control_c, 0, 64, 64
1, 256654, Control_c, 0, 64, 43
1, 256669, Control_c, 0, 64, 33
1, 256684, Control_c, 0, 64, 38
1, 256698, Control_c, 0, 64, 50
1, 256714, Control_c, 0, 64, 62
1, 256729, Control_c, 0, 64, 69
1, 256744, Control_c, 0, 64, 74
1, 256746, Note_on_c, 0, 52, 42
1, 256758, Control_c, 0, 64, 78
1, 256773, Control_c, 0, 64, 82
1, 256788, Control_c, 0, 64, 90
1, 256803, Control_c, 0, 64, 99
1, 256818, Control_c, 0, 64, 108
1, 256825, Note_off_c, 0, 47, 27
1, 256833, Control_c, 0, 64, 119
1, 256837, Note_on_c, 0, 55, 41
1, 256847, Control_c, 0, 64, 127
1, 256874, Note_off_c, 0, 52, 35
1, 256879, Note_off_c, 0, 64, 47
1, 256892, Note_off_c, 0, 72, 41
1, 256924, Note_off_c, 0, 55, 50
1, 256951, Note_on_c, 0, 59, 42
1, 256979, Note_off_c, 0, 59, 57
1, 257065, Note_on_c, 0, 64, 62
1, 257086, Note_off_c, 0, 76, 32
1, 257178, Note_off_c, 0, 64, 59
1, 257191, Note_on_c, 0, 67, 39
1, 257324, Note_on_c, 0, 71, 46
1, 257331, Note_off_c, 0, 67, 36
1, 257454, Note_off_c, 0, 71, 55
1, 257473, Note_on_c, 0, 76, 51
1, 257700, Note_on_c, 0, 71, 60
1, 257704, Note_on_c, 0, 47, 36
1, 257719, Note_off_c, 0, 76, 50
1, 257745, Control_c, 0, 64, 99
1, 257760, Control_c, 0, 64, 77
1, 257781, Control_c, 0, 64, 61
1, 257796, Control_c, 0, 64, 47
1, 257811, Control_c, 0, 64, 42
1, 257826, Control_c, 0, 64, 43
1, 257841, Control_c, 0, 64, 49
1, 257855, Control_c, 0, 64, 62
1, 257870, Control_c, 0, 64, 71
1, 257885, Control_c, 0, 64, 79
1, 257900, Control_c, 0, 64, 88
1, 257903, Note_on_c, 0, 54, 38
1, 257915, Control_c, 0, 64, 96
1, 257930, Note_off_c, 0, 71, 56
1, 257930, Control_c, 0, 64, 106
1, 257944, Control_c, 0, 64, 127
1, 258099, Note_on_c, 0, 57, 28
1, 258210, Note_off_c, 0, 57, 39
1, 258216, Note_on_c, 0, 59, 22
1, 258252, Note_off_c, 0, 54, 41
1, 258290, Note_on_c, 0, 63, 59
1, 258314, Note_off_c, 0, 47, 37
1, 258404, Note_on_c, 0, 66, 52
1, 258454, Note_off_c, 0, 59, 18
1, 258493, Note_off_c, 0, 63, 33
1, 258508, Note_on_c, 0, 71, 50
1, 258538, Note_off_c, 0, 66, 37
1, 258608, Note_on_c, 0, 75, 44
1, 258693, Control_c, 0, 64, 98
1, 258696, Note_off_c, 0, 75, 47
1, 258700, Note_off_c, 0, 71, 35
1, 258701, Note_on_c, 0, 64, 63
1, 258708, Control_c, 0, 64, 74
1, 258722, Note_on_c, 0, 47, 39
1, 258723, Control_c, 0, 64, 60
1, 258737, Control_c, 0, 64, 54
1, 258752, Control_c, 0, 64, 57
1, 258767, Control_c, 0, 64, 66
1, 258782, Control_c, 0, 64, 80
1, 258797, Control_c, 0, 64, 102
1, 258812, Control_c, 0, 64, 127
1, 258826, Note_off_c, 0, 64, 64
1, 258830, Note_on_c, 0, 52, 37
1, 258900, Note_off_c, 0, 47, 31
1, 258901, Note_on_c, 0, 55, 39
1, 258943, Control_c, 0, 67, 113
1, 258958, Control_c, 0, 67, 98
1, 258965, Note_off_c, 0, 52, 36
1, 258973, Control_c, 0, 67, 75
1, 258979, Note_off_c, 0, 55, 53
1, 258988, Control_c, 0, 67, 51
1, 258994, Note_on_c, 0, 59, 37
1, 259003, Control_c, 0, 67, 0
1, 259030, Note_off_c, 0, 59, 51
1, 259045, Note_on_c, 0, 67, 74
1, 259143, Note_on_c, 0, 71, 62
1, 259167, Control_c, 0, 67, 34
1, 259182, Control_c, 0, 67, 50
1, 259196, Control_c, 0, 67, 54
1, 259197, Note_off_c, 0, 67, 39
1, 259218, Note_off_c, 0, 71, 59
1, 259226, Control_c, 0, 67, 57
1, 259241, Control_c, 0, 67, 69
1, 259248, Note_on_c, 0, 76, 46
1, 259256, Control_c, 0, 67, 102
1, 259277, Control_c, 0, 67, 123
1, 259322, Control_c, 0, 67, 127
1, 259334, Note_on_c, 0, 79, 46
1, 259373, Note_off_c, 0, 76, 38
1, 259426, Note_on_c, 0, 69, 77
1, 259456, Control_c, 0, 64, 100
1, 259457, Note_on_c, 0, 47, 49
1, 259471, Control_c, 0, 64, 72
1, 259485, Control_c, 0, 64, 51
1, 259500, Control_c, 0, 64, 41
1, 259515, Control_c, 0, 64, 43
1, 259530, Control_c, 0, 64, 53
1, 259545, Control_c, 0, 64, 65
1, 259546, Note_off_c, 0, 47, 55
1, 259559, Control_c, 0, 64, 77
1, 259573, Note_on_c, 0, 55, 42
1, 259574, Control_c, 0, 64, 92
1, 259590, Control_c, 0, 64, 104
1, 259605, Control_c, 0, 64, 109
1, 259609, Note_off_c, 0, 69, 60
1, 259620, Control_c, 0, 64, 119
1, 259634, Control_c, 0, 64, 127
1, 259661, Note_off_c, 0, 79, 51
1, 259707, Note_off_c, 0, 55, 37
1, 259710, Note_on_c, 0, 59, 51
1, 259791, Note_off_c, 0, 59, 51
1, 259857, Note_on_c, 0, 64, 42
1, 259895, Note_off_c, 0, 64, 64
1, 259923, Note_on_c, 0, 71, 73
1, 260055, Note_on_c, 0, 76, 54
1, 260075, Note_off_c, 0, 71, 53
1, 260124, Note_off_c, 0, 76, 63
1, 260151, Note_on_c, 0, 79, 44
1, 260244, Note_on_c, 0, 83, 52
1, 260325, Note_off_c, 0, 79, 36
1, 260359, Note_on_c, 0, 72, 65
1, 260385, Note_on_c, 0, 47, 36
1, 260398, Control_c, 0, 64, 102
1, 260409, Note_off_c, 0, 83, 35
1, 260413, Control_c, 0, 64, 75
1, 260427, Control_c, 0, 64, 58
1, 260442, Control_c, 0, 64, 43
1, 260457, Control_c, 0, 64, 42
1, 260472, Control_c, 0, 64, 50
1, 260487, Control_c, 0, 64, 61
1, 260501, Control_c, 0, 64, 73
1, 260516, Control_c, 0, 64, 83
1, 260531, Control_c, 0, 64, 91
1, 260542, Note_on_c, 0, 54, 36
1, 260546, Control_c, 0, 64, 95
1, 260561, Control_c, 0, 64, 101
1, 260562, Note_off_c, 0, 72, 62
1, 260575, Control_c, 0, 64, 110
1, 260590, Control_c, 0, 64, 126
1, 260747, Note_on_c, 0, 57, 33
1, 260947, Note_on_c, 0, 63, 55
1, 261092, Note_off_c, 0, 57, 41
1, 261113, Note_off_c, 0, 54, 56
1, 261128, Note_on_c, 0, 66, 45
1, 261149, Note_off_c, 0, 47, 50
1, 261301, Note_on_c, 0, 71, 40
1, 261376, Note_off_c, 0, 66, 33
1, 261411, Note_off_c, 0, 63, 35
1, 261459, Note_on_c, 0, 75, 37
1, 261661, Note_off_c, 0, 71, 32
1, 261707, Note_on_c, 0, 64, 47
1, 261715, Note_off_c, 0, 75, 34
1, 261718, Control_c, 0, 64, 107
1, 261733, Control_c, 0, 64, 79
1, 261747, Control_c, 0, 64, 62
1, 261754, Note_on_c, 0, 40, 27
1, 261759, Note_on_c, 0, 55, 12
1, 261762, Control_c, 0, 64, 47
1, 261763, Note_on_c, 0, 47, 20
1, 261777, Control_c, 0, 64, 43
1, 261792, Control_c, 0, 64, 45
1, 261807, Control_c, 0, 64, 53
1, 261821, Control_c, 0, 64, 64
1, 261836, Control_c, 0, 64, 76
1, 261851, Control_c, 0, 64, 92
1, 261866, Control_c, 0, 64, 110
1, 261880, Control_c, 0, 64, 120
1, 261891, Note_off_c, 0, 40, 42
1, 261895, Control_c, 0, 64, 127
1, 261910, Note_off_c, 0, 64, 65
1, 261912, Note_off_c, 0, 47, 45
1, 261979, Note_off_c, 0, 55, 40
1, 262105, Note_on_c, 0, 59, 42
1, 262303, Note_on_c, 0, 64, 32
1, 262329, Note_off_c, 0, 59, 40
1, 262383, Note_off_c, 0, 64, 37
1, 262394, Note_on_c, 0, 67, 43
1, 262485, Note_off_c, 0, 67, 62
1, 262523, Note_on_c, 0, 71, 46
1, 262635, Note_off_c, 0, 71, 47
1, 262639, Note_on_c, 0, 76, 54
1, 262696, Note_off_c, 0, 76, 60
1, 262718, Note_on_c, 0, 55, 34
1, 262789, Note_off_c, 0, 55, 55
1, 262808, Note_on_c, 0, 59, 44
1, 262926, Note_off_c, 0, 59, 56
1, 262953, Note_on_c, 0, 64, 30
1, 263012, Note_off_c, 0, 64, 55
1, 263030, Note_on_c, 0, 67, 41
1, 263160, Note_on_c, 0, 71, 46
1, 263179, Note_off_c, 0, 67, 30
1, 263299, Note_on_c, 0, 76, 47
1, 263299, Note_off_c, 0, 71, 36
1, 263382, Note_off_c, 0, 76, 52
1, 263401, Note_on_c, 0, 55, 33
1, 263528, Note_off_c, 0, 55, 57
1, 263553, Note_on_c, 0, 59, 44
1, 263643, Note_off_c, 0, 59, 50
1, 263701, Note_on_c, 0, 64, 32
1, 263742, Note_off_c, 0, 64, 49
1, 263844, Note_on_c, 0, 67, 32
1, 264032, Note_off_c, 0, 67, 41
1, 264035, Note_on_c, 0, 71, 26
1, 264255, Note_on_c, 0, 76, 47
1, 264299, Note_off_c, 0, 71, 39
1, 264309, Note_off_c, 0, 76, 60
1, 264980, Note_on_c, 0, 77, 68
1, 264991, Note_on_c, 0, 74, 54
1, 265172, Control_c, 0, 64, 123
1, 265187, Control_c, 0, 64, 109
1, 265202, Control_c, 0, 64, 102
1, 265216, Control_c, 0, 64, 96
1, 265231, Control_c, 0, 64, 91
1, 265246, Control_c, 0, 64, 84
1, 265269, Control_c, 0, 64, 74
1, 265283, Control_c, 0, 64, 63
1, 265298, Control_c, 0, 64, 50
1, 265313, Control_c, 0, 64, 43
1, 265328, Control_c, 0, 64, 38
1, 265343, Control_c, 0, 64, 36
1, 265358, Control_c, 0, 64, 36
1, 265372, Control_c, 0, 64, 38
1, 265376, Note_on_c, 0, 48, 39
1, 265387, Control_c, 0, 64, 45
1, 265402, Control_c, 0, 64, 58
1, 265416, Control_c, 0, 64, 66
1, 265431, Control_c, 0, 64, 73
1, 265446, Control_c, 0, 64, 78
1, 265461, Control_c, 0, 64, 81
1, 265476, Control_c, 0, 64, 84
1, 265492, Control_c, 0, 64, 89
1, 265507, Control_c, 0, 64, 97
1, 265521, Control_c, 0, 64, 105
1, 265536, Control_c, 0, 64, 112
1, 265551, Control_c, 0, 64, 127
1, 265583, Note_on_c, 0, 57, 40
1, 265664, Note_off_c, 0, 48, 38
1, 265749, Note_on_c, 0, 62, 46
1, 265769, Note_off_c, 0, 57, 56
1, 265892, Note_on_c, 0, 65, 41
1, 265953, Note_off_c, 0, 62, 41
1, 265984, Note_off_c, 0, 77, 39
1, 265994, Note_off_c, 0, 74, 61
1, 266017, Note_on_c, 0, 69, 36
1, 266038, Note_off_c, 0, 65, 54
1, 266179, Note_on_c, 0, 79, 68
1, 266187, Note_on_c, 0, 76, 62
1, 266246, Note_off_c, 0, 69, 36
1, 266331, Note_on_c, 0, 57, 42
1, 266397, Note_off_c, 0, 57, 59
1, 266429, Note_on_c, 0, 62, 47
1, 266516, Note_off_c, 0, 62, 57
1, 266524, Note_on_c, 0, 65, 49
1, 266547, Note_off_c, 0, 65, 61
1, 266610, Note_on_c, 0, 69, 49
1, 266687, Note_off_c, 0, 79, 56
1, 266691, Note_off_c, 0, 76, 61
1, 266729, Note_on_c, 0, 74, 42
1, 266803, Note_off_c, 0, 69, 37
1, 266813, Note_off_c, 0, 74, 57
1, 266822, Note_on_c, 0, 81, 83
1, 266833, Note_on_c, 0, 77, 73
1, 266949, Note_on_c, 0, 57, 55
1, 267014, Note_off_c, 0, 57, 60
1, 267037, Note_on_c, 0, 62, 58
1, 267118, Note_off_c, 0, 62, 55
1, 267155, Note_on_c, 0, 65, 38
1, 267183, Note_off_c, 0, 65, 53
1, 267263, Note_on_c, 0, 69, 51
1, 267281, Note_off_c, 0, 81, 48
1, 267289, Note_off_c, 0, 77, 38
1, 267394, Note_off_c, 0, 69, 47
1, 267409, Note_on_c, 0, 74, 40
1, 267474, Note_off_c, 0, 74, 56
1, 267588, Note_on_c, 0, 81, 61
1, 267594, Note_on_c, 0, 77, 58
1, 267599, Note_on_c, 0, 47, 42
1, 267663, Control_c, 0, 64, 95
1, 267678, Control_c, 0, 64, 70
1, 267692, Control_c, 0, 64, 51
1, 267707, Control_c, 0, 64, 33
1, 267722, Control_c, 0, 64, 31
1, 267737, Control_c, 0, 64, 40
1, 267747, Note_on_c, 0, 53, 37
1, 267752, Control_c, 0, 64, 60
1, 267767, Control_c, 0, 64, 78
1, 267781, Control_c, 0, 64, 111
1, 267796, Control_c, 0, 64, 127
1, 267805, Note_off_c, 0, 47, 36
1, 267825, Note_off_c, 0, 53, 61
1, 267856, Note_on_c, 0, 57, 37
1, 267889, Note_off_c, 0, 57, 49
1, 267969, Note_on_c, 0, 62, 55
1, 268026, Note_off_c, 0, 62, 50
1, 268058, Note_on_c, 0, 65, 42
1, 268099, Note_off_c, 0, 65, 49
1, 268175, Note_off_c, 0, 81, 51
1, 268178, Note_on_c, 0, 74, 64
1, 268204, Note_off_c, 0, 77, 52
1, 268210, Note_off_c, 0, 74, 64
1, 268358, Note_on_c, 0, 74, 57
1, 268364, Note_on_c, 0, 71, 57
1, 268503, Note_on_c, 0, 65, 50
1, 268546, Note_off_c, 0, 65, 58
1, 268598, Note_on_c, 0, 62, 45
1, 268649, Note_off_c, 0, 62, 45
1, 268697, Note_on_c, 0, 43, 43
1, 268702, Note_on_c, 0, 65, 49
1, 268738, Control_c, 0, 64, 104
1, 268753, Control_c, 0, 64, 78
1, 268755, Note_off_c, 0, 65, 54
1, 268768, Control_c, 0, 64, 58
1, 268783, Control_c, 0, 64, 44
1, 268798, Control_c, 0, 64, 41
1, 268813, Control_c, 0, 64, 45
1, 268814, Note_on_c, 0, 62, 42
1, 268828, Control_c, 0, 64, 54
1, 268843, Control_c, 0, 64, 65
1, 268857, Control_c, 0, 64, 76
1, 268872, Control_c, 0, 64, 93
1, 268887, Control_c, 0, 64, 107
1, 268890, Note_off_c, 0, 62, 56
1, 268902, Control_c, 0, 64, 127
1, 268908, Note_on_c, 0, 65, 47
1, 268953, Note_off_c, 0, 65, 57
1, 269021, Note_on_c, 0, 55, 37
1, 269030, Note_on_c, 0, 62, 39
1, 269087, Note_off_c, 0, 43, 31
1, 269117, Control_c, 0, 67, 125
1, 269126, Note_off_c, 0, 62, 37
1, 269131, Note_on_c, 0, 65, 51
1, 269132, Control_c, 0, 67, 114
1, 269146, Control_c, 0, 67, 105
1, 269161, Control_c, 0, 67, 102
1, 269174, Note_off_c, 0, 65, 58
1, 269176, Control_c, 0, 67, 99
1, 269190, Control_c, 0, 67, 95
1, 269205, Control_c, 0, 67, 89
1, 269220, Control_c, 0, 67, 87
1, 269240, Note_on_c, 0, 62, 44
1, 269264, Control_c, 0, 67, 89
1, 269279, Control_c, 0, 67, 90
1, 269294, Control_c, 0, 67, 92
1, 269305, Note_on_c, 0, 43, 44
1, 269309, Control_c, 0, 67, 96
1, 269314, Note_on_c, 0, 65, 50
1, 269320, Note_off_c, 0, 62, 58
1, 269325, Control_c, 0, 67, 101
1, 269338, Note_off_c, 0, 43, 49
1, 269348, Note_off_c, 0, 55, 41
1, 269367, Note_off_c, 0, 65, 58
1, 269398, Control_c, 0, 67, 104
1, 269428, Control_c, 0, 67, 106
1, 269448, Note_on_c, 0, 62, 27
1, 269472, Control_c, 0, 67, 108
1, 269504, Note_on_c, 0, 65, 49
1, 269528, Note_off_c, 0, 62, 60
1, 269530, Note_off_c, 0, 65, 61
1, 269533, Control_c, 0, 67, 106
1, 269540, Note_off_c, 0, 71, 57
1, 269573, Note_off_c, 0, 74, 40
1, 269788, Note_on_c, 0, 77, 62
1, 269792, Control_c, 0, 67, 110
1, 269802, Note_on_c, 0, 48, 52
1, 269811, Note_on_c, 0, 74, 43
1, 269836, Control_c, 0, 67, 112
1, 269851, Control_c, 0, 64, 108
1, 269851, Control_c, 0, 67, 115
1, 269866, Control_c, 0, 64, 80
1, 269866, Control_c, 0, 67, 122
1, 269881, Control_c, 0, 64, 65
1, 269881, Control_c, 0, 67, 127
1, 269895, Control_c, 0, 64, 57
1, 269910, Control_c, 0, 64, 58
1, 269925, Control_c, 0, 64, 64
1, 269928, Poly_aftertouch_c, 0, 65, 0
1, 269940, Control_c, 0, 64, 74
1, 269955, Control_c, 0, 64, 93
1, 269969, Control_c, 0, 64, 127
1, 269982, Note_off_c, 0, 48, 55
1, 270014, Control_c, 0, 67, 125
1, 270014, Note_on_c, 0, 57, 34
1, 270029, Control_c, 0, 67, 121
1, 270044, Control_c, 0, 67, 117
1, 270059, Control_c, 0, 67, 114
1, 270088, Control_c, 0, 67, 111
1, 270103, Control_c, 0, 67, 105
1, 270118, Control_c, 0, 67, 96
1, 270130, Note_off_c, 0, 74, 41
1, 270133, Control_c, 0, 67, 82
1, 270142, Note_off_c, 0, 57, 51
1, 270148, Control_c, 0, 67, 75
1, 270160, Note_on_c, 0, 62, 59
1, 270162, Control_c, 0, 67, 72
1, 270170, Note_on_c, 0, 79, 71
1, 270177, Control_c, 0, 67, 64
1, 270192, Control_c, 0, 67, 45
1, 270194, Note_off_c, 0, 62, 63
1, 270203, Note_off_c, 0, 77, 64
1, 270206, Control_c, 0, 67, 0
1, 270208, Note_on_c, 0, 76, 18
1, 270247, Note_off_c, 0, 79, 61
1, 270253, Note_off_c, 0, 76, 53
1, 270309, Note_on_c, 0, 65, 50
1, 270354, Note_off_c, 0, 65, 58
1, 270438, Note_on_c, 0, 79, 76
1, 270449, Note_on_c, 0, 76, 67
1, 270457, Note_on_c, 0, 67, 55
1, 270482, Note_off_c, 0, 67, 58
1, 270505, Note_off_c, 0, 76, 56
1, 270590, Note_on_c, 0, 57, 59
1, 270674, Note_off_c, 0, 79, 62
1, 270718, Note_off_c, 0, 57, 60
1, 270727, Note_on_c, 0, 80, 87
1, 270733, Note_on_c, 0, 62, 61
1, 270735, Note_on_c, 0, 77, 62
1, 270739, Note_on_c, 0, 68, 58
1, 270753, Note_off_c, 0, 77, 65
1, 270760, Note_off_c, 0, 68, 63
1, 270767, Note_off_c, 0, 80, 64
1, 270782, Note_off_c, 0, 62, 61
1, 270877, Note_on_c, 0, 65, 47
1, 270926, Note_off_c, 0, 65, 57
1, 271016, Note_on_c, 0, 80, 80
1, 271027, Note_on_c, 0, 68, 63
1, 271041, Note_on_c, 0, 77, 57
1, 271068, Note_off_c, 0, 68, 51
1, 271078, Note_off_c, 0, 77, 61
1, 271148, Control_c, 0, 67, 41
1, 271162, Note_on_c, 0, 57, 52
1, 271163, Control_c, 0, 67, 50
1, 271178, Control_c, 0, 67, 49
1, 271193, Control_c, 0, 67, 50
1, 271207, Control_c, 0, 67, 53
1, 271222, Control_c, 0, 67, 66
1, 271237, Control_c, 0, 67, 84
1, 271259, Control_c, 0, 67, 85
1, 271289, Control_c, 0, 67, 88
1, 271304, Control_c, 0, 67, 95
1, 271317, Note_on_c, 0, 62, 51
1, 271319, Control_c, 0, 67, 115
1, 271324, Note_on_c, 0, 81, 84
1, 271327, Note_on_c, 0, 77, 68
1, 271333, Control_c, 0, 67, 124
1, 271340, Note_off_c, 0, 57, 61
1, 271344, Note_off_c, 0, 80, 57
1, 271378, Control_c, 0, 67, 127
1, 271394, Note_off_c, 0, 77, 61
1, 271420, Note_off_c, 0, 81, 60
1, 271456, Note_on_c, 0, 65, 45
1, 271458, Note_off_c, 0, 62, 59
1, 271483, Note_off_c, 0, 65, 55
1, 271753, Note_on_c, 0, 81, 69
1, 271788, Note_on_c, 0, 77, 45
1, 271791, Note_on_c, 0, 47, 44
1, 271803, Note_on_c, 0, 69, 15
1, 271806, Control_c, 0, 64, 103
1, 271821, Control_c, 0, 64, 76
1, 271836, Control_c, 0, 64, 56
1, 271850, Control_c, 0, 64, 44
1, 271865, Control_c, 0, 64, 44
1, 271874, Note_off_c, 0, 69, 41
1, 271881, Control_c, 0, 64, 48
1, 271896, Control_c, 0, 64, 59
1, 271911, Control_c, 0, 64, 71
1, 271926, Control_c, 0, 64, 94
1, 271941, Control_c, 0, 64, 127
1, 271989, Note_off_c, 0, 81, 61
1, 272014, Note_off_c, 0, 77, 63
1, 272018, Note_off_c, 0, 47, 60
1, 272024, Note_on_c, 0, 55, 41
1, 272065, Note_off_c, 0, 55, 62
1, 272198, Note_on_c, 0, 62, 47
1, 272245, Note_off_c, 0, 62, 62
1, 272293, Note_on_c, 0, 65, 45
1, 272321, Note_off_c, 0, 65, 58
1, 272378, Note_on_c, 0, 67, 56
1, 272424, Note_off_c, 0, 67, 56
1, 272497, Note_on_c, 0, 74, 64
1, 272510, Note_on_c, 0, 71, 54
1, 272640, Note_on_c, 0, 65, 37
1, 272673, Note_off_c, 0, 65, 53
1, 272724, Note_on_c, 0, 62, 46
1, 272783, Note_off_c, 0, 62, 57
1, 272798, Note_on_c, 0, 43, 46
1, 272810, Note_on_c, 0, 65, 51
1, 272878, Note_off_c, 0, 65, 55
1, 272921, Note_on_c, 0, 62, 56
1, 272989, Note_off_c, 0, 62, 61
1, 272998, Note_on_c, 0, 65, 60
1, 273053, Note_off_c, 0, 65, 53
1, 273090, Note_on_c, 0, 62, 65
1, 273093, Note_on_c, 0, 55, 62
1, 273126, Control_c, 0, 67, 117
1, 273141, Control_c, 0, 67, 100
1, 273151, Note_off_c, 0, 62, 55
1, 273156, Control_c, 0, 67, 89
1, 273171, Note_on_c, 0, 65, 65
1, 273171, Control_c, 0, 67, 75
1, 273186, Control_c, 0, 67, 48
1, 273201, Control_c, 0, 67, 0
1, 273233, Note_off_c, 0, 43, 58
1, 273234, Note_off_c, 0, 65, 59
1, 273259, Note_on_c, 0, 62, 71
1, 273333, Note_off_c, 0, 55, 60
1, 273352, Note_on_c, 0, 43, 53
1, 273362, Note_on_c, 0, 65, 61
1, 273380, Note_off_c, 0, 62, 61
1, 273386, Note_off_c, 0, 43, 64
1, 273427, Note_off_c, 0, 65, 57
1, 273487, Note_on_c, 0, 62, 63
1, 273544, Note_on_c, 0, 65, 49
1, 273555, Note_off_c, 0, 62, 60
1, 273582, Note_off_c, 0, 65, 64
1, 273603, Note_off_c, 0, 74, 62
1, 273623, Note_off_c, 0, 71, 39
1, 273782, Note_on_c, 0, 77, 75
1, 273786, Control_c, 0, 64, 84
1, 273791, Note_on_c, 0, 36, 60
1, 273797, Note_on_c, 0, 74, 62
1, 273801, Control_c, 0, 64, 64
1, 273814, Note_on_c, 0, 48, 51
1, 273816, Control_c, 0, 64, 54
1, 273828, Note_off_c, 0, 36, 61
1, 273831, Control_c, 0, 64, 57
1, 273846, Control_c, 0, 64, 64
1, 273856, Poly_aftertouch_c, 0, 65, 127
1, 273860, Control_c, 0, 64, 76
1, 273865, Note_off_c, 0, 48, 62
1, 273875, Control_c, 0, 64, 111
1, 273890, Poly_aftertouch_c, 0, 65, 0
1, 273890, Control_c, 0, 64, 127
1, 274034, Note_on_c, 0, 57, 44
1, 274158, Note_on_c, 0, 62, 64
1, 274303, Note_on_c, 0, 65, 74
1, 274369, Note_off_c, 0, 74, 41
1, 274408, Note_on_c, 0, 79, 82
1, 274425, Note_on_c, 0, 76, 69
1, 274435, Note_on_c, 0, 67, 48
1, 274456, Note_off_c, 0, 57, 62
1, 274478, Note_off_c, 0, 67, 45
1, 274482, Note_off_c, 0, 65, 51
1, 274484, Note_off_c, 0, 77, 52
1, 274541, Note_off_c, 0, 62, 59
1, 274556, Note_on_c, 0, 57, 71
1, 274622, Note_off_c, 0, 79, 59
1, 274667, Note_on_c, 0, 62, 69
1, 274812, Note_on_c, 0, 65, 70
1, 274926, Note_on_c, 0, 81, 92
1, 274928, Note_on_c, 0, 77, 89
1, 274956, Note_on_c, 0, 69, 44
1, 274960, Note_off_c, 0, 57, 62
1, 274971, Note_off_c, 0, 76, 63
1, 274985, Note_off_c, 0, 69, 55
1, 275022, Note_off_c, 0, 65, 53
1, 275046, Poly_aftertouch_c, 0, 71, 0
1, 275067, Note_on_c, 0, 57, 80
1, 275100, Note_off_c, 0, 62, 46
1, 275129, Note_off_c, 0, 81, 57
1, 275132, Note_off_c, 0, 77, 59
1, 275210, Note_on_c, 0, 62, 81
1, 275294, Note_off_c, 0, 57, 61
1, 275319, Note_off_c, 0, 62, 61
1, 275335, Note_on_c, 0, 65, 58
1, 275357, Note_off_c, 0, 65, 62
1, 275567, Note_on_c, 0, 81, 82
1, 275574, Note_on_c, 0, 77, 74
1, 275592, Note_on_c, 0, 47, 66
1, 275602, Note_on_c, 0, 69, 45
1, 275624, Control_c, 0, 64, 94
1, 275639, Control_c, 0, 64, 68
1, 275654, Control_c, 0, 64, 45
1, 275669, Control_c, 0, 64, 0
1, 275699, Control_c, 0, 64, 35
1, 275714, Control_c, 0, 64, 61
1, 275729, Control_c, 0, 64, 85
1, 275750, Control_c, 0, 64, 127
1, 275809, Note_on_c, 0, 57, 64
1, 275821, Note_off_c, 0, 47, 63
1, 275824, Note_off_c, 0, 81, 58
1, 275845, Note_off_c, 0, 57, 67
1, 275850, Note_off_c, 0, 77, 64
1, 275869, Note_off_c, 0, 69, 50
1, 275989, Note_on_c, 0, 65, 33
1, 276021, Note_off_c, 0, 65, 52
1, 276115, Note_on_c, 0, 71, 73
1, 276119, Note_on_c, 0, 74, 70
1, 276176, Note_off_c, 0, 74, 59
1, 276182, Note_off_c, 0, 71, 57
1, 276198, Poly_aftertouch_c, 0, 62, 127
1, 276229, Poly_aftertouch_c, 0, 62, 0
1, 276274, Note_on_c, 0, 74, 84
1, 276277, Note_on_c, 0, 71, 76
1, 276319, Note_on_c, 0, 62, 27
1, 276360, Note_off_c, 0, 62, 50
1, 276396, Note_on_c, 0, 65, 68
1, 276453, Note_off_c, 0, 65, 62
1, 276510, Note_on_c, 0, 62, 57
1, 276565, Note_on_c, 0, 43, 68
1, 276583, Note_on_c, 0, 65, 69
1, 276587, Note_off_c, 0, 62, 59
1, 276634, Control_c, 0, 64, 84
1, 276648, Control_c, 0, 64, 64
1, 276663, Control_c, 0, 64, 47
1, 276679, Control_c, 0, 64, 41
1, 276681, Note_off_c, 0, 65, 61
1, 276683, Note_on_c, 0, 62, 76
1, 276694, Control_c, 0, 64, 47
1, 276709, Control_c, 0, 64, 61
1, 276724, Control_c, 0, 64, 81
1, 276739, Control_c, 0, 64, 127
1, 276773, Note_on_c, 0, 65, 79
1, 276777, Note_off_c, 0, 62, 62
1, 276858, Note_off_c, 0, 65, 61
1, 276859, Note_on_c, 0, 55, 79
1, 276861, Note_on_c, 0, 62, 82
1, 276953, Note_off_c, 0, 62, 62
1, 276954, Note_on_c, 0, 65, 83
1, 277028, Note_on_c, 0, 62, 83
1, 277032, Note_on_c, 0, 51, 29
1, 277033, Note_off_c, 0, 65, 63
1, 277036, Note_off_c, 0, 43, 59
1, 277097, Poly_aftertouch_c, 0, 48, 127
1, 277103, Note_off_c, 0, 55, 59
1, 277111, Poly_aftertouch_c, 0, 49, 127
1, 277118, Note_on_c, 0, 43, 70
1, 277121, Note_off_c, 0, 51, 56
1, 277135, Note_on_c, 0, 65, 73
1, 277147, Poly_aftertouch_c, 0, 48, 0
1, 277147, Poly_aftertouch_c, 0, 49, 0
1, 277158, Note_off_c, 0, 43, 64
1, 277164, Note_off_c, 0, 62, 62
1, 277246, Note_on_c, 0, 62, 84
1, 277294, Note_off_c, 0, 65, 56
1, 277299, Note_off_c, 0, 62, 62
1, 277323, Note_off_c, 0, 71, 63
1, 277346, Note_off_c, 0, 74, 61
1, 277543, Note_on_c, 0, 77, 82
1, 277546, Control_c, 0, 64, 78
1, 277553, Note_on_c, 0, 74, 72
1, 277556, Note_on_c, 0, 36, 66
1, 277560, Control_c, 0, 64, 53
1, 277563, Note_on_c, 0, 48, 67
1, 277564, Note_on_c, 0, 65, 51
1, 277575, Control_c, 0, 64, 0
1, 277590, Control_c, 0, 64, 30
1, 277599, Note_off_c, 0, 36, 61
1, 277605, Control_c, 0, 64, 49
1, 277619, Control_c, 0, 64, 69
1, 277623, Note_off_c, 0, 65, 45
1, 277632, Note_off_c, 0, 48, 63
1, 277634, Control_c, 0, 64, 110
1, 277649, Control_c, 0, 64, 127
1, 277806, Note_on_c, 0, 57, 66
1, 277940, Note_on_c, 0, 62, 83
1, 277942, Note_on_c, 0, 79, 82
1, 277949, Note_on_c, 0, 67, 77
1, 277951, Note_on_c, 0, 76, 80
1, 277966, Note_off_c, 0, 74, 52
1, 277986, Note_off_c, 0, 67, 62
1, 277991, Note_off_c, 0, 77, 62
1, 278011, Note_off_c, 0, 76, 64
1, 278044, Note_off_c, 0, 79, 64
1, 278086, Note_on_c, 0, 65, 86
1, 278207, Note_on_c, 0, 68, 87
1, 278209, Note_on_c, 0, 80, 87
1, 278215, Note_on_c, 0, 77, 85
1, 278238, Note_off_c, 0, 57, 60
1, 278257, Note_off_c, 0, 65, 57
1, 278268, Note_off_c, 0, 68, 61
1, 278280, Note_off_c, 0, 77, 61
1, 278282, Note_off_c, 0, 62, 63
1, 278325, Note_on_c, 0, 57, 87
1, 278380, Note_off_c, 0, 80, 32
1, 278450, Note_on_c, 0, 81, 93
1, 278456, Note_on_c, 0, 69, 78
1, 278456, Note_on_c, 0, 62, 71
1, 278458, Note_on_c, 0, 77, 81
1, 278477, Note_off_c, 0, 69, 69
1, 278486, Note_off_c, 0, 77, 61
1, 278516, Note_off_c, 0, 81, 66
1, 278536, Note_off_c, 0, 57, 61
1, 278565, Note_off_c, 0, 62, 63
1, 278572, Note_on_c, 0, 65, 49
1, 278593, Note_off_c, 0, 65, 61
1, 278813, Note_on_c, 0, 86, 74
1, 278822, Note_on_c, 0, 83, 66
1, 278824, Note_on_c, 0, 74, 59
1, 278828, Note_on_c, 0, 41, 48
1, 278843, Note_on_c, 0, 50, 47
1, 278846, Note_on_c, 0, 38, 48
1, 278850, Control_c, 0, 64, 79
1, 278864, Control_c, 0, 64, 60
1, 278879, Control_c, 0, 64, 46
1, 278894, Control_c, 0, 64, 50
1, 278909, Control_c, 0, 64, 61
1, 278924, Control_c, 0, 64, 77
1, 278939, Control_c, 0, 64, 127
1, 278973, Note_off_c, 0, 83, 61
1, 278975, Note_off_c, 0, 38, 56
1, 278981, Note_off_c, 0, 86, 62
1, 278989, Note_off_c, 0, 50, 63
1, 278996, Note_off_c, 0, 41, 62
1, 279002, Note_off_c, 0, 74, 63
1, 279064, Note_on_c, 0, 84, 86
1, 279076, Note_on_c, 0, 52, 74
1, 279079, Note_on_c, 0, 81, 77
1, 279080, Note_on_c, 0, 43, 67
1, 279082, Note_on_c, 0, 40, 66
1, 279084, Note_on_c, 0, 72, 74
1, 279201, Note_off_c, 0, 40, 60
1, 279213, Note_off_c, 0, 81, 64
1, 279214, Note_off_c, 0, 43, 62
1, 279217, Note_off_c, 0, 52, 61
1, 279219, Note_off_c, 0, 84, 61
1, 279231, Note_off_c, 0, 72, 62
1, 279285, Note_on_c, 0, 83, 94
1, 279288, Note_on_c, 0, 53, 83
1, 279294, Note_on_c, 0, 79, 79
1, 279295, Note_on_c, 0, 71, 89
1, 279296, Note_on_c, 0, 41, 72
1, 279300, Note_on_c, 0, 45, 72
1, 279415, Note_off_c, 0, 83, 61
1, 279418, Note_off_c, 0, 79, 63
1, 279419, Note_off_c, 0, 41, 61
1, 279426, Note_off_c, 0, 53, 61
1, 279428, Note_off_c, 0, 71, 60
1, 279428, Note_off_c, 0, 45, 61
1, 279482, Note_on_c, 0, 81, 93
1, 279484, Note_on_c, 0, 69, 91
1, 279496, Note_on_c, 0, 77, 85
1, 279500, Note_on_c, 0, 55, 83
1, 279502, Note_on_c, 0, 47, 78
1, 279510, Note_on_c, 0, 43, 70
1, 279527, Note_off_c, 0, 69, 61
1, 279532, Note_off_c, 0, 77, 60
1, 279540, Note_off_c, 0, 43, 64
1, 279551, Note_off_c, 0, 47, 62
1, 279552, Note_off_c, 0, 55, 62
1, 279553, Note_off_c, 0, 81, 67
1, 279696, Note_on_c, 0, 89, 84
1, 279699, Note_on_c, 0, 56, 85
1, 279702, Note_on_c, 0, 86, 81
1, 279702, Note_on_c, 0, 77, 83
1, 279708, Note_on_c, 0, 47, 71
1, 279717, Note_on_c, 0, 44, 71
1, 279718, Control_c, 0, 64, 86
1, 279732, Control_c, 0, 64, 62
1, 279747, Control_c, 0, 64, 40
1, 279762, Control_c, 0, 64, 37
1, 279777, Control_c, 0, 64, 48
1, 279792, Control_c, 0, 64, 70
1, 279806, Control_c, 0, 64, 127
1, 279810, Note_off_c, 0, 47, 61
1, 279818, Note_off_c, 0, 44, 62
1, 279819, Note_off_c, 0, 86, 65
1, 279820, Note_off_c, 0, 89, 63
1, 279821, Note_off_c, 0, 56, 61
1, 279835, Note_off_c, 0, 77, 64
1, 279885, Note_on_c, 0, 88, 91
1, 279888, Note_on_c, 0, 57, 81
1, 279893, Note_on_c, 0, 84, 84
1, 279895, Note_on_c, 0, 48, 79
1, 279897, Note_on_c, 0, 76, 91
1, 279902, Note_on_c, 0, 45, 70
1, 279987, Note_off_c, 0, 45, 61
1, 279992, Note_off_c, 0, 57, 62
1, 279998, Note_off_c, 0, 48, 62
1, 279999, Note_off_c, 0, 84, 65
1, 280000, Note_off_c, 0, 88, 65
1, 280001, Note_off_c, 0, 76, 62
1, 280058, Note_on_c, 0, 86, 101
1, 280061, Note_on_c, 0, 59, 85
1, 280065, Note_on_c, 0, 83, 87
1, 280066, Note_on_c, 0, 74, 96
1, 280066, Note_on_c, 0, 50, 72
1, 280068, Note_on_c, 0, 47, 73
1, 280075, Control_c, 0, 64, 108
1, 280089, Control_c, 0, 64, 79
1, 280104, Control_c, 0, 64, 65
1, 280134, Control_c, 0, 64, 75
1, 280148, Control_c, 0, 64, 126
1, 280154, Note_off_c, 0, 47, 60
1, 280159, Note_off_c, 0, 59, 60
1, 280167, Note_off_c, 0, 50, 61
1, 280170, Note_off_c, 0, 86, 63
1, 280170, Note_off_c, 0, 74, 60
1, 280170, Note_off_c, 0, 83, 63
1, 280232, Note_on_c, 0, 84, 95
1, 280234, Note_on_c, 0, 60, 84
1, 280235, Note_on_c, 0, 81, 91
1, 280236, Note_on_c, 0, 52, 76
1, 280244, Note_on_c, 0, 72, 92
1, 280251, Note_on_c, 0, 48, 69
1, 280274, Note_off_c, 0, 72, 61
1, 280280, Note_off_c, 0, 48, 65
1, 280282, Note_off_c, 0, 81, 66
1, 280286, Note_off_c, 0, 60, 65
1, 280290, Note_off_c, 0, 52, 62
1, 280304, Note_off_c, 0, 84, 68
1, 280378, Control_c, 0, 67, 35
1, 280393, Control_c, 0, 67, 41
1, 280408, Control_c, 0, 67, 61
1, 280422, Control_c, 0, 64, 98
1, 280422, Control_c, 0, 67, 105
1, 280426, Note_on_c, 0, 61, 79
1, 280427, Note_on_c, 0, 91, 87
1, 280435, Note_on_c, 0, 52, 60
1, 280435, Note_on_c, 0, 88, 79
1, 280437, Control_c, 0, 64, 68
1, 280437, Control_c, 0, 67, 127
1, 280438, Note_on_c, 0, 79, 80
1, 280442, Note_on_c, 0, 49, 65
1, 280452, Control_c, 0, 64, 44
1, 280467, Control_c, 0, 64, 0
1, 280482, Control_c, 0, 64, 32
1, 280496, Control_c, 0, 64, 52
1, 280511, Control_c, 0, 64, 74
1, 280526, Control_c, 0, 64, 111
1, 280540, Note_off_c, 0, 61, 61
1, 280540, Control_c, 0, 64, 127
1, 280545, Note_off_c, 0, 52, 59
1, 280548, Note_off_c, 0, 49, 62
1, 280550, Note_off_c, 0, 88, 64
1, 280555, Note_off_c, 0, 91, 65
1, 280558, Note_off_c, 0, 79, 64
1, 280620, Note_on_c, 0, 89, 91
1, 280626, Note_on_c, 0, 62, 74
1, 280629, Control_c, 0, 64, 104
1, 280632, Note_on_c, 0, 86, 76
1, 280634, Note_on_c, 0, 53, 68
1, 280636, Note_on_c, 0, 77, 80
1, 280639, Note_on_c, 0, 50, 65
1, 280644, Control_c, 0, 64, 79
1, 280659, Control_c, 0, 64, 69
1, 280675, Control_c, 0, 64, 69
1, 280690, Control_c, 0, 64, 81
1, 280705, Control_c, 0, 64, 127
1, 280717, Note_off_c, 0, 50, 61
1, 280733, Note_off_c, 0, 53, 61
1, 280743, Note_off_c, 0, 62, 60
1, 280743, Note_off_c, 0, 86, 64
1, 280748, Note_off_c, 0, 89, 61
1, 280756, Note_off_c, 0, 77, 61
1, 280821, Note_on_c, 0, 88, 78
1, 280822, Note_on_c, 0, 64, 75
1, 280823, Control_c, 0, 64, 81
1, 280832, Note_on_c, 0, 55, 62
1, 280837, Note_on_c, 0, 52, 60
1, 280838, Control_c, 0, 64, 61
1, 280839, Note_on_c, 0, 84, 64
1, 280840, Note_on_c, 0, 76, 69
1, 280853, Control_c, 0, 64, 50
1, 280868, Control_c, 0, 64, 55
1, 280883, Control_c, 0, 64, 66
1, 280897, Control_c, 0, 64, 86
1, 280907, Note_off_c, 0, 52, 56
1, 280912, Control_c, 0, 64, 127
1, 280924, Note_off_c, 0, 64, 58
1, 280925, Note_off_c, 0, 55, 62
1, 280936, Note_off_c, 0, 84, 65
1, 280946, Note_off_c, 0, 88, 65
1, 280953, Note_off_c, 0, 76, 59
1, 281023, Control_c, 0, 64, 97
1, 281038, Note_on_c, 0, 86, 74
1, 281038, Control_c, 0, 64, 70
1, 281046, Note_on_c, 0, 65, 61
1, 281052, Control_c, 0, 64, 53
1, 281053, Note_on_c, 0, 57, 51
1, 281055, Note_on_c, 0, 74, 67
1, 281058, Note_on_c, 0, 53, 52
1, 281058, Note_on_c, 0, 83, 67
1, 281067, Control_c, 0, 64, 48
1, 281082, Control_c, 0, 64, 57
1, 281097, Control_c, 0, 64, 70
1, 281109, Note_off_c, 0, 53, 60
1, 281112, Control_c, 0, 64, 94
1, 281119, Note_off_c, 0, 65, 57
1, 281127, Control_c, 0, 64, 127
1, 281133, Note_off_c, 0, 57, 62
1, 281149, Note_off_c, 0, 83, 61
1, 281158, Note_off_c, 0, 86, 60
1, 281177, Note_off_c, 0, 74, 53
1, 281331, Note_on_c, 0, 84, 69
1, 281333, Control_c, 0, 64, 107
1, 281345, Note_on_c, 0, 81, 55
1, 281348, Control_c, 0, 64, 76
1, 281354, Note_on_c, 0, 60, 35
1, 281362, Control_c, 0, 64, 56
1, 281365, Note_on_c, 0, 62, 37
1, 281366, Note_on_c, 0, 72, 24
1, 281372, Note_on_c, 0, 54, 23
1, 281377, Control_c, 0, 64, 0
1, 281422, Note_off_c, 0, 60, 0
1, 281422, Note_on_c, 0, 60, 7
1, 281452, Control_c, 0, 64, 45
1, 281467, Control_c, 0, 64, 64
1, 281482, Control_c, 0, 64, 79
1, 281497, Control_c, 0, 64, 99
1, 281506, Note_off_c, 0, 60, 55
1, 281512, Control_c, 0, 64, 127
1, 281527, Note_off_c, 0, 81, 57
1, 281529, Note_off_c, 0, 72, 39
1, 281598, Note_off_c, 0, 54, 42
1, 281761, Note_on_c, 0, 83, 58
1, 281765, Note_on_c, 0, 59, 40
1, 281781, Note_on_c, 0, 55, 40
1, 281783, Note_on_c, 0, 79, 33
1, 281786, Control_c, 0, 64, 88
1, 281790, Note_on_c, 0, 71, 26
1, 281801, Control_c, 0, 64, 70
1, 281816, Control_c, 0, 64, 58
1, 281830, Control_c, 0, 64, 55
1, 281838, Note_off_c, 0, 62, 44
1, 281845, Control_c, 0, 64, 60
1, 281860, Control_c, 0, 64, 68
1, 281875, Note_off_c, 0, 84, 28
1, 281875, Control_c, 0, 64, 81
1, 281890, Control_c, 0, 64, 97
1, 281905, Control_c, 0, 64, 110
1, 281905, Note_off_c, 0, 59, 57
1, 281910, Note_off_c, 0, 55, 60
1, 281919, Control_c, 0, 64, 127
1, 281939, Note_off_c, 0, 71, 40
1, 281940, Note_off_c, 0, 79, 59
1, 281944, Note_off_c, 0, 83, 60
1, 282068, Note_on_c, 0, 55, 43
1, 282068, Control_c, 0, 64, 101
1, 282072, Note_on_c, 0, 81, 48
1, 282077, Note_on_c, 0, 59, 45
1, 282083, Control_c, 0, 64, 80
1, 282098, Note_on_c, 0, 77, 37
1, 282098, Control_c, 0, 64, 71
1, 282127, Control_c, 0, 64, 77
1, 282142, Control_c, 0, 64, 94
1, 282155, Note_off_c, 0, 77, 41
1, 282157, Control_c, 0, 64, 127
1, 282161, Note_off_c, 0, 55, 57
1, 282182, Note_off_c, 0, 81, 62
1, 282185, Note_off_c, 0, 59, 57
1, 282189, Note_on_c, 0, 79, 49
1, 282192, Note_on_c, 0, 76, 53
1, 282194, Note_on_c, 0, 57, 33
1, 282207, Note_on_c, 0, 60, 34
1, 282216, Note_off_c, 0, 79, 61
1, 282226, Note_off_c, 0, 76, 60
1, 282229, Note_off_c, 0, 57, 52
1, 282242, Note_off_c, 0, 60, 50
1, 282262, Control_c, 0, 64, 103
1, 282277, Control_c, 0, 64, 83
1, 282289, Note_on_c, 0, 57, 43
1, 282291, Control_c, 0, 64, 73
1, 282297, Note_on_c, 0, 79, 61
1, 282306, Control_c, 0, 64, 72
1, 282307, Note_on_c, 0, 76, 57
1, 282321, Control_c, 0, 64, 77
1, 282326, Note_off_c, 0, 57, 57
1, 282335, Control_c, 0, 64, 94
1, 282340, Note_off_c, 0, 76, 61
1, 282350, Control_c, 0, 64, 127
1, 282388, Note_off_c, 0, 79, 57
1, 282391, Note_on_c, 0, 62, 63
1, 282391, Note_on_c, 0, 77, 59
1, 282393, Note_on_c, 0, 59, 63
1, 282394, Note_on_c, 0, 74, 61
1, 282420, Note_off_c, 0, 77, 68
1, 282421, Note_off_c, 0, 59, 66
1, 282424, Control_c, 0, 64, 110
1, 282426, Note_off_c, 0, 62, 63
1, 282428, Note_off_c, 0, 74, 60
1, 282439, Control_c, 0, 64, 80
1, 282454, Control_c, 0, 64, 67
1, 282469, Control_c, 0, 64, 63
1, 282484, Control_c, 0, 64, 68
1, 282492, Note_on_c, 0, 59, 65
1, 282506, Control_c, 0, 64, 80
1, 282509, Note_on_c, 0, 77, 67
1, 282510, Note_on_c, 0, 62, 63
1, 282517, Note_on_c, 0, 74, 54
1, 282521, Control_c, 0, 64, 104
1, 282536, Control_c, 0, 64, 127
1, 282554, Note_off_c, 0, 59, 55
1, 282561, Note_off_c, 0, 74, 57
1, 282583, Note_off_c, 0, 62, 60
1, 282595, Control_c, 0, 64, 99
1, 282603, Note_off_c, 0, 77, 59
1, 282610, Control_c, 0, 64, 80
1, 282611, Note_on_c, 0, 64, 57
1, 282621, Note_on_c, 0, 72, 57
1, 282624, Control_c, 0, 64, 69
1, 282628, Note_on_c, 0, 76, 48
1, 282637, Note_off_c, 0, 64, 56
1, 282639, Control_c, 0, 64, 69
1, 282654, Control_c, 0, 64, 78
1, 282655, Note_off_c, 0, 76, 59
1, 282660, Note_off_c, 0, 72, 57
1, 282669, Control_c, 0, 64, 94
1, 282684, Control_c, 0, 64, 127
1, 282719, Poly_aftertouch_c, 0, 60, 0
1, 282721, Note_on_c, 0, 64, 53
1, 282734, Note_on_c, 0, 76, 70
1, 282748, Note_on_c, 0, 72, 45
1, 282756, Poly_aftertouch_c, 0, 60, 127
1, 282758, Control_c, 0, 64, 86
1, 282772, Control_c, 0, 64, 67
1, 282787, Control_c, 0, 64, 55
1, 282797, Note_off_c, 0, 72, 47
1, 282801, Poly_aftertouch_c, 0, 60, 0
1, 282802, Control_c, 0, 64, 53
1, 282817, Control_c, 0, 64, 59
1, 282832, Control_c, 0, 64, 68
1, 282841, Note_off_c, 0, 76, 60
1, 282844, Note_off_c, 0, 64, 39
1, 282847, Control_c, 0, 64, 80
1, 282852, Note_on_c, 0, 65, 56
1, 282861, Note_on_c, 0, 71, 54
1, 282862, Control_c, 0, 64, 102
1, 282866, Note_on_c, 0, 62, 36
1, 282866, Note_on_c, 0, 74, 51
1, 282877, Control_c, 0, 64, 114
1, 282880, Note_off_c, 0, 65, 57
1, 282891, Control_c, 0, 64, 116
1, 282895, Note_off_c, 0, 74, 61
1, 282900, Note_off_c, 0, 62, 55
1, 282900, Note_off_c, 0, 71, 59
1, 282906, Control_c, 0, 64, 119
1, 282921, Control_c, 0, 64, 123
1, 282936, Control_c, 0, 64, 126
1, 282965, Control_c, 0, 64, 120
1, 282980, Control_c, 0, 64, 99
1, 282990, Note_on_c, 0, 62, 56
1, 282995, Control_c, 0, 64, 78
1, 282996, Note_on_c, 0, 65, 35
1, 283005, Note_on_c, 0, 74, 43
1, 283009, Control_c, 0, 64, 62
1, 283018, Note_on_c, 0, 71, 45
1, 283024, Control_c, 0, 64, 52
1, 283039, Control_c, 0, 64, 51
1, 283054, Control_c, 0, 64, 59
1, 283070, Control_c, 0, 64, 68
1, 283076, Note_off_c, 0, 62, 37
1, 283085, Control_c, 0, 64, 81
1, 283090, Note_off_c, 0, 71, 37
1, 283100, Control_c, 0, 64, 99
1, 283114, Control_c, 0, 64, 114
1, 283115, Note_off_c, 0, 74, 38
1, 283129, Control_c, 0, 64, 127
1, 283138, Note_on_c, 0, 67, 51
1, 283149, Note_on_c, 0, 72, 37
1, 283155, Note_off_c, 0, 65, 23
1, 283159, Note_on_c, 0, 69, 47
1, 283165, Note_off_c, 0, 67, 55
1, 283168, Note_on_c, 0, 64, 25
1, 283181, Note_off_c, 0, 72, 53
1, 283191, Note_off_c, 0, 69, 56
1, 283206, Note_off_c, 0, 64, 54
1, 283314, Control_c, 0, 64, 98
1, 283325, Note_on_c, 0, 71, 57
1, 283326, Note_on_c, 0, 64, 47
1, 283329, Control_c, 0, 64, 74
1, 283344, Control_c, 0, 64, 57
1, 283359, Note_on_c, 0, 67, 12
1, 283359, Control_c, 0, 64, 38
1, 283373, Control_c, 0, 64, 35
1, 283388, Control_c, 0, 64, 39
1, 283403, Control_c, 0, 64, 51
1, 283413, Note_off_c, 0, 64, 0
1, 283413, Note_on_c, 0, 64, 23
1, 283418, Control_c, 0, 64, 62
1, 283433, Control_c, 0, 64, 69
1, 283447, Control_c, 0, 64, 75
1, 283462, Control_c, 0, 64, 84
1, 283477, Control_c, 0, 64, 94
1, 283479, Note_off_c, 0, 64, 62
1, 283491, Control_c, 0, 64, 110
1, 283495, Note_off_c, 0, 67, 42
1, 283506, Note_off_c, 0, 71, 53
1, 283506, Control_c, 0, 64, 127
1, 283534, Note_on_c, 0, 69, 52
1, 283539, Note_on_c, 0, 65, 48
1, 283574, Note_off_c, 0, 65, 58
1, 283576, Note_off_c, 0, 69, 60
1, 283595, Control_c, 0, 67, 122
1, 283610, Control_c, 0, 67, 108
1, 283625, Control_c, 0, 67, 102
1, 283655, Control_c, 0, 67, 104
1, 283670, Control_c, 0, 67, 109
1, 283685, Control_c, 0, 67, 112
1, 283699, Control_c, 0, 67, 115
1, 283714, Control_c, 0, 67, 119
1, 283729, Control_c, 0, 67, 125
1, 283744, Control_c, 0, 67, 127
1, 283937, Control_c, 0, 64, 90
1, 283952, Control_c, 0, 64, 69
1, 283961, Note_on_c, 0, 77, 58
1, 283967, Control_c, 0, 64, 51
1, 283977, Note_on_c, 0, 74, 52
1, 283989, Control_c, 0, 64, 41
1, 283994, Note_on_c, 0, 48, 40
1, 284004, Control_c, 0, 64, 40
1, 284018, Control_c, 0, 64, 46
1, 284033, Control_c, 0, 64, 58
1, 284037, Note_on_c, 0, 69, 18
1, 284048, Control_c, 0, 64, 68
1, 284063, Control_c, 0, 64, 79
1, 284078, Control_c, 0, 64, 92
1, 284093, Control_c, 0, 64, 98
1, 284102, Note_off_c, 0, 48, 61
1, 284108, Control_c, 0, 64, 111
1, 284122, Control_c, 0, 64, 127
1, 284202, Note_off_c, 0, 69, 41
1, 284231, Note_off_c, 0, 74, 61
1, 284240, Note_off_c, 0, 77, 60
1, 284320, Note_on_c, 0, 57, 36
1, 284320, Note_on_c, 0, 65, 45
1, 284337, Note_on_c, 0, 62, 17
1, 284362, Note_off_c, 0, 57, 54
1, 284367, Note_off_c, 0, 65, 56
1, 284383, Note_off_c, 0, 62, 50
1, 284485, Note_on_c, 0, 57, 41
1, 284489, Note_on_c, 0, 62, 41
1, 284498, Note_on_c, 0, 65, 28
1, 284527, Note_off_c, 0, 62, 50
1, 284529, Note_off_c, 0, 57, 48
1, 284540, Note_off_c, 0, 65, 47
1, 284645, Note_on_c, 0, 62, 35
1, 284663, Note_on_c, 0, 65, 27
1, 284682, Note_off_c, 0, 62, 52
1, 284685, Poly_aftertouch_c, 0, 57, 127
1, 284697, Note_off_c, 0, 65, 51
1, 284766, Poly_aftertouch_c, 0, 57, 0
1, 284776, Note_on_c, 0, 79, 54
1, 284783, Note_on_c, 0, 57, 27
1, 284789, Note_on_c, 0, 67, 45
1, 284790, Note_on_c, 0, 62, 44
1, 284793, Note_on_c, 0, 76, 40
1, 284793, Note_on_c, 0, 65, 47
1, 284816, Note_off_c, 0, 57, 52
1, 284819, Note_off_c, 0, 62, 55
1, 284820, Note_off_c, 0, 65, 57
1, 284821, Note_off_c, 0, 67, 53
1, 284826, Note_on_c, 0, 74, 9
1, 284859, Note_off_c, 0, 76, 0
1, 284859, Note_on_c, 0, 76, 6
1, 284901, Note_on_c, 0, 67, 70
1, 284902, Note_on_c, 0, 62, 54
1, 284913, Note_on_c, 0, 57, 51
1, 284934, Note_off_c, 0, 62, 64
1, 284939, Note_off_c, 0, 57, 56
1, 284943, Note_off_c, 0, 67, 55
1, 284958, Control_c, 0, 67, 122
1, 284973, Control_c, 0, 67, 102
1, 284988, Control_c, 0, 67, 83
1, 285003, Control_c, 0, 67, 75
1, 285009, Note_on_c, 0, 67, 62
1, 285013, Note_on_c, 0, 62, 54
1, 285018, Control_c, 0, 67, 77
1, 285020, Note_on_c, 0, 57, 59
1, 285033, Control_c, 0, 67, 86
1, 285044, Note_off_c, 0, 67, 58
1, 285048, Note_off_c, 0, 62, 64
1, 285048, Control_c, 0, 67, 87
1, 285056, Note_off_c, 0, 79, 57
1, 285064, Note_off_c, 0, 57, 60
1, 285078, Control_c, 0, 67, 86
1, 285107, Control_c, 0, 67, 88
1, 285117, Note_off_c, 0, 74, 38
1, 285120, Note_on_c, 0, 62, 67
1, 285122, Control_c, 0, 67, 89
1, 285127, Note_on_c, 0, 65, 66
1, 285136, Control_c, 0, 67, 88
1, 285151, Control_c, 0, 67, 87
1, 285157, Note_off_c, 0, 65, 61
1, 285166, Control_c, 0, 67, 86
1, 285172, Note_off_c, 0, 62, 51
1, 285181, Control_c, 0, 67, 87
1, 285184, Note_off_c, 0, 76, 42
1, 285226, Control_c, 0, 67, 85
1, 285256, Control_c, 0, 67, 86
1, 285270, Control_c, 0, 67, 87
1, 285276, Note_on_c, 0, 65, 64
1, 285277, Note_on_c, 0, 81, 77
1, 285287, Note_on_c, 0, 77, 71
1, 285300, Control_c, 0, 64, 110
1, 285307, Note_on_c, 0, 69, 31
1, 285315, Control_c, 0, 64, 80
1, 285323, Note_on_c, 0, 74, 37
1, 285329, Control_c, 0, 64, 65
1, 285339, Note_off_c, 0, 65, 58
1, 285343, Note_off_c, 0, 69, 53
1, 285344, Control_c, 0, 64, 62
1, 285359, Control_c, 0, 64, 66
1, 285359, Control_c, 0, 67, 82
1, 285374, Control_c, 0, 64, 77
1, 285374, Control_c, 0, 67, 79
1, 285389, Control_c, 0, 64, 103
1, 285389, Control_c, 0, 67, 77
1, 285397, Note_on_c, 0, 64, 69
1, 285404, Control_c, 0, 64, 127
1, 285404, Control_c, 0, 67, 75
1, 285405, Poly_aftertouch_c, 0, 57, 127
1, 285418, Control_c, 0, 67, 67
1, 285433, Control_c, 0, 67, 47
1, 285448, Control_c, 0, 67, 0
1, 285467, Note_off_c, 0, 64, 62
1, 285478, Poly_aftertouch_c, 0, 57, 0
1, 285512, Note_off_c, 0, 81, 59
1, 285539, Note_off_c, 0, 74, 40
1, 285550, Note_on_c, 0, 64, 75
1, 285554, Note_off_c, 0, 77, 59
1, 285566, Note_on_c, 0, 57, 46
1, 285601, Note_off_c, 0, 57, 60
1, 285602, Note_off_c, 0, 64, 60
1, 285683, Note_on_c, 0, 62, 56
1, 285695, Note_on_c, 0, 53, 58
1, 285695, Note_on_c, 0, 57, 38
1, 285706, Note_off_c, 0, 62, 60
1, 285721, Note_off_c, 0, 57, 55
1, 285726, Note_off_c, 0, 53, 65
1, 285941, Note_on_c, 0, 81, 62
1, 285946, Control_c, 0, 64, 96
1, 285946, Control_c, 0, 67, 34
1, 285953, Note_on_c, 0, 77, 57
1, 285959, Note_on_c, 0, 47, 57
1, 285960, Control_c, 0, 64, 71
1, 285960, Control_c, 0, 67, 50
1, 285975, Note_on_c, 0, 69, 29
1, 285975, Control_c, 0, 64, 54
1, 285975, Control_c, 0, 67, 51
1, 285990, Control_c, 0, 64, 45
1, 285990, Control_c, 0, 67, 52
1, 285998, Note_on_c, 0, 74, 27
1, 286005, Control_c, 0, 64, 49
1, 286005, Control_c, 0, 67, 56
1, 286020, Control_c, 0, 64, 59
1, 286020, Control_c, 0, 67, 71
1, 286034, Control_c, 0, 64, 70
1, 286034, Control_c, 0, 67, 88
1, 286045, Note_off_c, 0, 47, 62
1, 286049, Control_c, 0, 64, 89
1, 286049, Control_c, 0, 67, 90
1, 286051, Note_off_c, 0, 69, 51
1, 286064, Control_c, 0, 64, 127
1, 286064, Control_c, 0, 67, 91
1, 286078, Control_c, 0, 67, 96
1, 286093, Control_c, 0, 67, 119
1, 286108, Control_c, 0, 67, 127
1, 286126, Note_off_c, 0, 81, 61
1, 286163, Note_off_c, 0, 74, 48
1, 286174, Note_off_c, 0, 77, 56
1, 286226, Note_on_c, 0, 55, 44
1, 286243, Note_on_c, 0, 65, 48
1, 286251, Note_on_c, 0, 62, 33
1, 286274, Note_off_c, 0, 55, 51
1, 286281, Note_off_c, 0, 65, 59
1, 286286, Note_off_c, 0, 62, 53
1, 286385, Note_on_c, 0, 65, 56
1, 286388, Note_on_c, 0, 62, 46
1, 286394, Note_on_c, 0, 55, 47
1, 286427, Note_off_c, 0, 65, 53
1, 286427, Note_off_c, 0, 62, 60
1, 286446, Note_off_c, 0, 55, 52
1, 286554, Note_on_c, 0, 55, 44
1, 286561, Note_on_c, 0, 65, 49
1, 286561, Note_on_c, 0, 74, 60
1, 286564, Note_on_c, 0, 62, 37
1, 286567, Note_on_c, 0, 71, 51
1, 286600, Note_off_c, 0, 74, 61
1, 286608, Note_off_c, 0, 71, 59
1, 286612, Note_off_c, 0, 62, 54
1, 286615, Note_off_c, 0, 55, 53
1, 286629, Note_off_c, 0, 65, 45
1, 286698, Note_on_c, 0, 71, 66
1, 286713, Note_on_c, 0, 74, 52
1, 286715, Note_on_c, 0, 62, 52
1, 286733, Note_on_c, 0, 55, 36
1, 286735, Note_off_c, 0, 74, 58
1, 286737, Note_off_c, 0, 62, 61
1, 286737, Note_off_c, 0, 71, 59
1, 286767, Note_off_c, 0, 55, 52
1, 286865, Note_on_c, 0, 71, 65
1, 286874, Note_on_c, 0, 65, 53
1, 286876, Note_on_c, 0, 62, 32
1, 286898, Note_off_c, 0, 65, 59
1, 286902, Note_off_c, 0, 71, 57
1, 286910, Note_off_c, 0, 62, 58
1, 287007, Note_on_c, 0, 62, 60
1, 287011, Note_on_c, 0, 65, 43
1, 287014, Note_on_c, 0, 43, 61
1, 287016, Note_on_c, 0, 71, 61
1, 287050, Note_off_c, 0, 65, 60
1, 287051, Note_off_c, 0, 62, 59
1, 287051, Note_off_c, 0, 71, 59
1, 287103, Control_c, 0, 67, 112
1, 287118, Control_c, 0, 67, 78
1, 287132, Note_on_c, 0, 65, 63
1, 287133, Note_on_c, 0, 71, 69
1, 287133, Control_c, 0, 67, 52
1, 287142, Note_on_c, 0, 62, 61
1, 287147, Control_c, 0, 67, 0
1, 287172, Note_off_c, 0, 71, 57
1, 287172, Note_off_c, 0, 65, 58
1, 287178, Note_off_c, 0, 62, 62
1, 287244, Note_on_c, 0, 71, 65
1, 287245, Note_on_c, 0, 62, 71
1, 287250, Note_on_c, 0, 55, 73
1, 287252, Note_on_c, 0, 65, 66
1, 287273, Note_off_c, 0, 71, 66
1, 287277, Note_off_c, 0, 65, 69
1, 287283, Note_off_c, 0, 62, 61
1, 287333, Note_off_c, 0, 55, 53
1, 287354, Note_on_c, 0, 65, 61
1, 287369, Note_on_c, 0, 62, 58
1, 287371, Note_off_c, 0, 43, 38
1, 287372, Note_on_c, 0, 60, 55
1, 287387, Note_off_c, 0, 65, 61
1, 287388, Note_off_c, 0, 62, 66
1, 287397, Note_off_c, 0, 60, 59
1, 287465, Note_on_c, 0, 65, 76
1, 287466, Note_on_c, 0, 62, 56
1, 287482, Note_on_c, 0, 43, 67
1, 287502, Note_on_c, 0, 59, 42
1, 287507, Note_on_c, 0, 60, 14
1, 287516, Note_off_c, 0, 65, 58
1, 287521, Note_off_c, 0, 62, 59
1, 287530, Note_off_c, 0, 59, 54
1, 287545, Note_off_c, 0, 60, 56
1, 287551, Note_off_c, 0, 43, 60
1, 287590, Note_on_c, 0, 59, 75
1, 287590, Note_on_c, 0, 65, 62
1, 287593, Note_on_c, 0, 62, 57
1, 287613, Note_off_c, 0, 59, 67
1, 287617, Note_off_c, 0, 62, 58
1, 287621, Note_off_c, 0, 65, 66
1, 287792, Control_c, 0, 64, 106
1, 287806, Control_c, 0, 64, 71
1, 287821, Control_c, 0, 64, 42
1, 287825, Note_on_c, 0, 77, 79
1, 287830, Note_on_c, 0, 74, 70
1, 287831, Note_on_c, 0, 48, 70
1, 287836, Control_c, 0, 64, 0
1, 287840, Note_on_c, 0, 69, 56
1, 287841, Note_on_c, 0, 65, 47
1, 287867, Control_c, 0, 64, 40
1, 287880, Note_off_c, 0, 65, 46
1, 287882, Control_c, 0, 64, 64
1, 287897, Control_c, 0, 64, 94
1, 287905, Note_off_c, 0, 48, 61
1, 287911, Control_c, 0, 64, 127
1, 287985, Note_off_c, 0, 69, 62
1, 288007, Note_off_c, 0, 74, 62
1, 288030, Note_off_c, 0, 77, 62
1, 288055, Note_on_c, 0, 57, 57
1, 288061, Note_on_c, 0, 62, 50
1, 288064, Note_on_c, 0, 65, 55
1, 288102, Note_off_c, 0, 62, 59
1, 288104, Note_off_c, 0, 57, 61
1, 288105, Note_off_c, 0, 65, 59
1, 288201, Note_on_c, 0, 62, 49
1, 288201, Note_on_c, 0, 79, 82
1, 288204, Note_on_c, 0, 57, 55
1, 288209, Note_on_c, 0, 76, 72
1, 288213, Note_on_c, 0, 67, 69
1, 288217, Note_on_c, 0, 65, 47
1, 288222, Note_on_c, 0, 74, 65
1, 288234, Note_off_c, 0, 57, 61
1, 288236, Note_off_c, 0, 62, 58
1, 288238, Note_off_c, 0, 65, 60
1, 288245, Note_off_c, 0, 67, 59
1, 288251, Note_off_c, 0, 74, 65
1, 288293, Note_off_c, 0, 76, 54
1, 288305, Note_on_c, 0, 65, 64
1, 288311, Note_on_c, 0, 62, 53
1, 288314, Note_on_c, 0, 57, 67
1, 288346, Note_off_c, 0, 62, 65
1, 288349, Note_off_c, 0, 57, 61
1, 288353, Note_off_c, 0, 65, 52
1, 288364, Note_off_c, 0, 79, 59
1, 288419, Note_on_c, 0, 57, 71
1, 288421, Note_on_c, 0, 76, 76
1, 288424, Note_on_c, 0, 74, 83
1, 288425, Note_on_c, 0, 67, 74
1, 288425, Note_on_c, 0, 79, 69
1, 288425, Note_on_c, 0, 65, 67
1, 288427, Note_on_c, 0, 62, 69
1, 288452, Note_off_c, 0, 67, 66
1, 288460, Note_off_c, 0, 57, 63
1, 288463, Note_off_c, 0, 65, 55
1, 288463, Note_on_c, 0, 77, 8
1, 288463, Note_off_c, 0, 62, 63
1, 288478, Note_off_c, 0, 74, 64
1, 288490, Note_off_c, 0, 79, 62
1, 288502, Note_off_c, 0, 76, 63
1, 288517, Note_off_c, 0, 77, 52
1, 288536, Note_on_c, 0, 67, 73
1, 288540, Note_on_c, 0, 57, 65
1, 288546, Note_on_c, 0, 62, 73
1, 288570, Note_off_c, 0, 57, 62
1, 288582, Note_off_c, 0, 62, 66
1, 288592, Note_off_c, 0, 67, 63
1, 288635, Note_on_c, 0, 80, 87
1, 288640, Note_on_c, 0, 67, 68
1, 288642, Note_on_c, 0, 57, 71
1, 288644, Note_on_c, 0, 74, 73
1, 288648, Note_on_c, 0, 62, 74
1, 288648, Note_on_c, 0, 68, 73
1, 288658, Note_on_c, 0, 76, 58
1, 288686, Note_off_c, 0, 67, 64
1, 288689, Note_off_c, 0, 68, 52
1, 288695, Note_off_c, 0, 62, 62
1, 288695, Note_off_c, 0, 57, 59
1, 288725, Note_off_c, 0, 74, 60
1, 288731, Note_off_c, 0, 76, 58
1, 288752, Note_on_c, 0, 62, 77
1, 288753, Note_on_c, 0, 65, 83
1, 288761, Note_on_c, 0, 57, 53
1, 288761, Note_off_c, 0, 80, 63
1, 288795, Note_off_c, 0, 57, 53
1, 288801, Note_off_c, 0, 65, 60
1, 288841, Note_off_c, 0, 62, 58
1, 288911, Note_on_c, 0, 65, 79
1, 288911, Note_on_c, 0, 80, 91
1, 288916, Note_on_c, 0, 68, 84
1, 288922, Note_on_c, 0, 74, 77
1, 288927, Note_on_c, 0, 76, 73
1, 288942, Control_c, 0, 64, 95
1, 288957, Control_c, 0, 64, 68
1, 288969, Note_on_c, 0, 57, 18
1, 288972, Control_c, 0, 64, 52
1, 288985, Note_off_c, 0, 65, 62
1, 288986, Control_c, 0, 64, 50
1, 289001, Control_c, 0, 64, 63
1, 289005, Note_off_c, 0, 57, 51
1, 289016, Control_c, 0, 64, 94
1, 289029, Poly_aftertouch_c, 0, 53, 0
1, 289031, Control_c, 0, 64, 127
1, 289048, Note_on_c, 0, 64, 85
1, 289070, Note_off_c, 0, 68, 59
1, 289071, Note_on_c, 0, 57, 45
1, 289091, Note_off_c, 0, 74, 56
1, 289107, Note_off_c, 0, 57, 62
1, 289107, Note_off_c, 0, 76, 57
1, 289110, Note_off_c, 0, 80, 61
1, 289114, Note_off_c, 0, 64, 63
1, 289178, Note_on_c, 0, 77, 87
1, 289178, Note_on_c, 0, 81, 99
1, 289181, Note_on_c, 0, 69, 93
1, 289184, Note_on_c, 0, 74, 94
1, 289193, Note_on_c, 0, 64, 89
1, 289211, Note_on_c, 0, 57, 42
1, 289254, Note_off_c, 0, 64, 61
1, 289255, Note_off_c, 0, 57, 49
1, 289285, Note_off_c, 0, 69, 54
1, 289323, Note_on_c, 0, 62, 77
1, 289330, Note_on_c, 0, 57, 74
1, 289337, Note_off_c, 0, 81, 57
1, 289343, Note_on_c, 0, 53, 64
1, 289345, Note_off_c, 0, 62, 70
1, 289360, Note_off_c, 0, 74, 62
1, 289365, Note_off_c, 0, 57, 64
1, 289371, Note_off_c, 0, 77, 57
1, 289375, Note_off_c, 0, 53, 66
1, 289542, Control_c, 0, 64, 102
1, 289557, Control_c, 0, 64, 69
1, 289566, Note_on_c, 0, 81, 89
1, 289568, Note_on_c, 0, 69, 85
1, 289568, Note_on_c, 0, 77, 81
1, 289570, Note_on_c, 0, 74, 78
1, 289572, Control_c, 0, 64, 47
1, 289578, Note_on_c, 0, 47, 69
1, 289587, Control_c, 0, 64, 39
1, 289602, Control_c, 0, 64, 54
1, 289617, Control_c, 0, 64, 73
1, 289631, Control_c, 0, 64, 127
1, 289646, Note_off_c, 0, 47, 60
1, 289682, Note_off_c, 0, 69, 61
1, 289706, Note_off_c, 0, 81, 64
1, 289739, Note_off_c, 0, 77, 64
1, 289743, Note_off_c, 0, 74, 65
1, 289779, Note_on_c, 0, 62, 64
1, 289788, Note_on_c, 0, 55, 58
1, 289791, Note_on_c, 0, 65, 59
1, 289813, Note_off_c, 0, 62, 63
1, 289819, Note_off_c, 0, 55, 63
1, 289822, Note_off_c, 0, 65, 64
1, 289906, Note_on_c, 0, 55, 55
1, 289908, Note_on_c, 0, 62, 63
1, 289924, Note_on_c, 0, 65, 8
1, 289939, Note_off_c, 0, 62, 65
1, 289940, Note_off_c, 0, 55, 63
1, 289987, Note_off_c, 0, 65, 48
1, 290008, Note_on_c, 0, 62, 77
1, 290020, Note_on_c, 0, 55, 65
1, 290052, Note_off_c, 0, 55, 61
1, 290117, Note_on_c, 0, 74, 68
1, 290123, Note_on_c, 0, 65, 67
1, 290127, Note_on_c, 0, 55, 80
1, 290133, Note_on_c, 0, 71, 61
1, 290142, Note_off_c, 0, 74, 69
1, 290149, Note_off_c, 0, 55, 69
1, 290158, Note_off_c, 0, 62, 64
1, 290158, Note_off_c, 0, 65, 62
1, 290160, Note_off_c, 0, 71, 65
1, 290204, Poly_aftertouch_c, 0, 64, 127
1, 290222, Poly_aftertouch_c, 0, 72, 0
1, 290228, Poly_aftertouch_c, 0, 64, 0
1, 290237, Poly_aftertouch_c, 0, 67, 0
1, 290257, Note_on_c, 0, 65, 66
1, 290268, Note_on_c, 0, 59, 66
1, 290271, Note_on_c, 0, 62, 51
1, 290290, Note_off_c, 0, 65, 56
1, 290298, Note_off_c, 0, 62, 56
1, 290299, Note_off_c, 0, 59, 64
1, 290336, Control_c, 0, 64, 123
1, 290347, Note_on_c, 0, 43, 82
1, 290350, Control_c, 0, 64, 88
1, 290365, Control_c, 0, 64, 83
1, 290371, Note_on_c, 0, 65, 86
1, 290374, Note_on_c, 0, 62, 71
1, 290376, Note_on_c, 0, 59, 72
1, 290380, Control_c, 0, 64, 86
1, 290395, Control_c, 0, 64, 127
1, 290410, Note_off_c, 0, 62, 64
1, 290420, Note_off_c, 0, 59, 58
1, 290420, Note_off_c, 0, 65, 64
1, 290486, Note_on_c, 0, 65, 80
1, 290490, Note_on_c, 0, 59, 76
1, 290492, Note_on_c, 0, 62, 78
1, 290525, Note_off_c, 0, 65, 65
1, 290526, Note_off_c, 0, 59, 65
1, 290530, Note_off_c, 0, 62, 57
1, 290595, Note_on_c, 0, 55, 84
1, 290598, Note_on_c, 0, 65, 90
1, 290611, Note_on_c, 0, 59, 79
1, 290614, Note_on_c, 0, 62, 72
1, 290629, Note_off_c, 0, 55, 61
1, 290630, Note_off_c, 0, 59, 70
1, 290639, Note_on_c, 0, 60, 42
1, 290642, Note_off_c, 0, 62, 67
1, 290651, Note_off_c, 0, 65, 62
1, 290667, Note_off_c, 0, 43, 62
1, 290667, Note_off_c, 0, 60, 59
1, 290746, Note_on_c, 0, 62, 75
1, 290761, Note_on_c, 0, 59, 49
1, 290771, Note_on_c, 0, 53, 52
1, 290780, Note_off_c, 0, 59, 65
1, 290798, Note_off_c, 0, 53, 58
1, 290800, Note_off_c, 0, 62, 62
1, 290857, Note_on_c, 0, 43, 87
1, 290859, Note_on_c, 0, 59, 65
1, 290860, Note_on_c, 0, 62, 79
1, 290863, Note_on_c, 0, 53, 84
1, 290889, Note_off_c, 0, 53, 66
1, 290908, Note_off_c, 0, 59, 62
1, 290957, Note_on_c, 0, 65, 85
1, 290968, Note_off_c, 0, 43, 63
1, 290971, Note_off_c, 0, 62, 62
1, 290980, Note_on_c, 0, 36, 97
1, 291001, Note_off_c, 0, 65, 63
1, 291025, Control_c, 0, 64, 84
1, 291039, Control_c, 0, 64, 60
1, 291055, Control_c, 0, 64, 0
1, 291135, Note_on_c, 0, 48, 104
1, 291203, Control_c, 0, 64, 35
1, 291218, Control_c, 0, 64, 86
1, 291233, Control_c, 0, 64, 127
1, 291256, Note_off_c, 0, 36, 62
1, 291295, Note_off_c, 0, 48, 65
1, 291429, Note_on_c, 0, 53, 99
1, 291691, Note_on_c, 0, 65, 50
1, 291695, Note_on_c, 0, 74, 55
1, 291710, Note_on_c, 0, 69, 31
1, 291721, Note_off_c, 0, 65, 54
1, 291745, Note_off_c, 0, 74, 54
1, 291749, Note_off_c, 0, 69, 54
1, 291853, Note_on_c, 0, 74, 69
1, 291858, Note_on_c, 0, 65, 43
1, 291859, Note_on_c, 0, 69, 45
1, 291879, Note_on_c, 0, 50, 52
1, 291885, Note_on_c, 0, 48, 61
1, 291888, Note_off_c, 0, 65, 56
1, 291894, Note_off_c, 0, 69, 60
1, 291912, Note_off_c, 0, 74, 57
1, 291990, Note_on_c, 0, 77, 65
1, 291997, Note_on_c, 0, 74, 28
1, 292007, Note_on_c, 0, 69, 17
1, 292022, Note_off_c, 0, 53, 57
1, 292031, Note_off_c, 0, 74, 50
1, 292052, Note_off_c, 0, 69, 53
1, 292052, Note_off_c, 0, 77, 62
1, 292149, Note_on_c, 0, 55, 95
1, 292313, Note_on_c, 0, 74, 66
1, 292315, Note_on_c, 0, 69, 60
1, 292321, Note_on_c, 0, 77, 56
1, 292343, Note_off_c, 0, 74, 64
1, 292344, Note_off_c, 0, 69, 66
1, 292353, Note_off_c, 0, 77, 65
1, 292377, Note_off_c, 0, 48, 54
1, 292392, Note_off_c, 0, 50, 55
1, 292421, Note_on_c, 0, 69, 63
1, 292425, Note_on_c, 0, 77, 71
1, 292436, Note_on_c, 0, 74, 58
1, 292460, Note_off_c, 0, 74, 65
1, 292463, Note_off_c, 0, 69, 62
1, 292476, Note_off_c, 0, 77, 59
1, 292487, Note_on_c, 0, 48, 89
1, 292492, Note_on_c, 0, 50, 80
1, 292511, Note_off_c, 0, 55, 59
1, 292537, Note_on_c, 0, 74, 71
1, 292544, Note_on_c, 0, 77, 61
1, 292551, Note_on_c, 0, 81, 81
1, 292592, Note_off_c, 0, 74, 62
1, 292602, Note_off_c, 0, 77, 61
1, 292624, Note_off_c, 0, 81, 62
1, 292667, Note_on_c, 0, 57, 106
1, 292806, Note_on_c, 0, 74, 71
1, 292809, Note_on_c, 0, 69, 69
1, 292812, Note_on_c, 0, 77, 63
1, 292815, Note_off_c, 0, 48, 58
1, 292824, Note_off_c, 0, 50, 61
1, 292835, Note_off_c, 0, 69, 65
1, 292840, Note_off_c, 0, 77, 67
1, 292845, Note_off_c, 0, 74, 62
1, 292899, Note_off_c, 0, 57, 59
1, 292912, Note_on_c, 0, 50, 67
1, 292915, Note_on_c, 0, 48, 82
1, 292916, Note_on_c, 0, 74, 75
1, 292916, Note_on_c, 0, 77, 82
1, 292918, Note_on_c, 0, 69, 74
1, 292939, Note_off_c, 0, 48, 66
1, 292940, Note_off_c, 0, 50, 65
1, 292946, Note_off_c, 0, 69, 63
1, 292951, Note_off_c, 0, 74, 62
1, 292966, Note_off_c, 0, 77, 62
1, 293045, Note_on_c, 0, 74, 69
1, 293045, Note_on_c, 0, 81, 78
1, 293047, Note_on_c, 0, 77, 64
1, 293113, Note_off_c, 0, 74, 34
1, 293139, Note_on_c, 0, 47, 99
1, 293140, Note_on_c, 0, 35, 94
1, 293197, Note_off_c, 0, 77, 53
1, 293197, Control_c, 0, 64, 92
1, 293204, Note_off_c, 0, 81, 53
1, 293212, Control_c, 0, 64, 61
1, 293226, Control_c, 0, 64, 0
1, 293271, Control_c, 0, 64, 53
1, 293286, Control_c, 0, 64, 84
1, 293294, Note_off_c, 0, 35, 64
1, 293301, Control_c, 0, 64, 127
1, 293323, Note_off_c, 0, 47, 64
1, 293496, Note_on_c, 0, 57, 97
1, 293694, Note_on_c, 0, 74, 78
1, 293695, Note_on_c, 0, 77, 72
1, 293702, Note_on_c, 0, 69, 71
1, 293743, Note_off_c, 0, 69, 60
1, 293751, Note_off_c, 0, 74, 61
1, 293769, Note_off_c, 0, 77, 61
1, 293836, Note_on_c, 0, 74, 81
1, 293837, Note_on_c, 0, 77, 72
1, 293844, Note_on_c, 0, 69, 74
1, 293881, Note_off_c, 0, 69, 62
1, 293890, Note_off_c, 0, 74, 63
1, 293905, Note_off_c, 0, 57, 59
1, 293909, Note_off_c, 0, 77, 62
1, 293957, Note_on_c, 0, 50, 90
1, 293957, Note_on_c, 0, 62, 94
1, 293964, Note_on_c, 0, 81, 88
1, 293972, Note_on_c, 0, 74, 75
1, 293977, Note_on_c, 0, 69, 68
1, 293984, Note_on_c, 0, 77, 51
1, 293995, Note_off_c, 0, 74, 68
1, 294001, Note_on_c, 0, 71, 32
1, 294004, Note_off_c, 0, 69, 65
1, 294004, Note_off_c, 0, 77, 62
1, 294021, Note_off_c, 0, 81, 63
1, 294038, Note_off_c, 0, 62, 59
1, 294038, Note_off_c, 0, 71, 45
1, 294045, Note_off_c, 0, 50, 58
1, 294158, Note_on_c, 0, 62, 97
1, 294161, Note_on_c, 0, 50, 89
1, 294183, Control_c, 0, 64, 103
1, 294198, Control_c, 0, 64, 67
1, 294213, Control_c, 0, 64, 0
1, 294243, Control_c, 0, 64, 34
1, 294258, Control_c, 0, 64, 61
1, 294273, Control_c, 0, 64, 99
1, 294283, Note_off_c, 0, 62, 65
1, 294288, Control_c, 0, 64, 127
1, 294322, Note_off_c, 0, 50, 65
1, 294371, Note_on_c, 0, 77, 69
1, 294373, Note_on_c, 0, 67, 72
1, 294374, Note_on_c, 0, 74, 70
1, 294406, Note_off_c, 0, 74, 61
1, 294416, Note_off_c, 0, 67, 60
1, 294424, Note_off_c, 0, 77, 61
1, 294490, Note_on_c, 0, 31, 74
1, 294493, Note_on_c, 0, 43, 77
1, 294496, Note_on_c, 0, 77, 73
1, 294499, Note_on_c, 0, 67, 73
1, 294503, Note_on_c, 0, 74, 78
1, 294515, Note_off_c, 0, 31, 65
1, 294518, Note_off_c, 0, 43, 65
1, 294521, Note_off_c, 0, 67, 68
1, 294525, Note_off_c, 0, 74, 69
1, 294544, Note_off_c, 0, 77, 64
1, 294612, Note_on_c, 0, 74, 77
1, 294617, Note_on_c, 0, 79, 71
1, 294620, Note_on_c, 0, 71, 71
1, 294622, Note_on_c, 0, 77, 60
1, 294633, Note_off_c, 0, 74, 71
1, 294644, Note_off_c, 0, 71, 64
1, 294648, Note_off_c, 0, 79, 60
1, 294651, Note_off_c, 0, 77, 66
1, 294720, Note_on_c, 0, 55, 81
1, 294723, Note_on_c, 0, 43, 85
1, 294741, Note_off_c, 0, 55, 69
1, 294759, Note_off_c, 0, 43, 63
1, 294834, Note_on_c, 0, 74, 80
1, 294838, Note_on_c, 0, 71, 83
1, 294842, Note_on_c, 0, 79, 67
1, 294846, Note_on_c, 0, 77, 68
1, 294880, Note_off_c, 0, 74, 65
1, 294888, Note_off_c, 0, 71, 61
1, 294897, Note_off_c, 0, 79, 62
1, 294902, Note_off_c, 0, 77, 62
1, 294961, Note_on_c, 0, 79, 75
1, 294961, Note_on_c, 0, 77, 72
1, 294962, Note_on_c, 0, 74, 81
1, 294963, Note_on_c, 0, 31, 91
1, 294963, Note_on_c, 0, 71, 83
1, 294965, Note_on_c, 0, 43, 95
1, 294991, Note_off_c, 0, 74, 63
1, 294992, Note_off_c, 0, 71, 59
1, 295011, Note_off_c, 0, 77, 64
1, 295018, Note_off_c, 0, 79, 64
1, 295099, Note_off_c, 0, 31, 63
1, 295101, Note_on_c, 0, 83, 93
1, 295102, Note_off_c, 0, 43, 62
1, 295108, Note_on_c, 0, 74, 87
1, 295109, Note_on_c, 0, 77, 78
1, 295116, Note_on_c, 0, 79, 61
1, 295127, Note_off_c, 0, 74, 72
1, 295128, Note_off_c, 0, 77, 73
1, 295134, Note_off_c, 0, 83, 52
1, 295141, Note_off_c, 0, 79, 65
1, 295460, Note_on_c, 0, 48, 98
1, 295464, Note_on_c, 0, 36, 89
1, 295467, Note_on_c, 0, 65, 89
1, 295468, Note_on_c, 0, 53, 92
1, 295549, Control_c, 0, 64, 84
1, 295563, Control_c, 0, 64, 55
1, 295578, Control_c, 0, 64, 0
1, 295638, Control_c, 0, 64, 36
1, 295653, Control_c, 0, 64, 62
1, 295668, Control_c, 0, 64, 98
1, 295682, Control_c, 0, 64, 127
1, 295724, Note_on_c, 0, 62, 80
1, 295725, Note_off_c, 0, 53, 64
1, 295727, Note_on_c, 0, 57, 85
1, 295729, Note_off_c, 0, 36, 63
1, 295732, Note_off_c, 0, 48, 64
1, 295763, Note_off_c, 0, 57, 63
1, 295799, Note_off_c, 0, 62, 63
1, 295805, Note_off_c, 0, 65, 64
1, 295954, Note_on_c, 0, 67, 95
1, 295956, Note_on_c, 0, 55, 86
1, 295996, Note_off_c, 0, 55, 63
1, 295996, Note_off_c, 0, 67, 67
1, 296154, Note_on_c, 0, 67, 87
1, 296155, Note_on_c, 0, 79, 80
1, 296158, Note_on_c, 0, 77, 80
1, 296161, Note_on_c, 0, 74, 85
1, 296268, Note_off_c, 0, 67, 0
1, 296297, Note_off_c, 0, 79, 61
1, 296305, Poly_aftertouch_c, 0, 67, 127
1, 296309, Note_off_c, 0, 74, 54
1, 296316, Note_on_c, 0, 62, 93
1, 296318, Note_on_c, 0, 65, 96
1, 296318, Note_on_c, 0, 56, 92
1, 296339, Poly_aftertouch_c, 0, 67, 0
1, 296341, Note_off_c, 0, 77, 60
1, 296415, Control_c, 0, 64, 93
1, 296430, Control_c, 0, 64, 61
1, 296445, Control_c, 0, 64, 41
1, 296460, Control_c, 0, 64, 50
1, 296475, Control_c, 0, 64, 68
1, 296482, Note_on_c, 0, 74, 85
1, 296482, Note_on_c, 0, 80, 80
1, 296487, Note_on_c, 0, 77, 76
1, 296490, Control_c, 0, 64, 127
1, 296559, Note_off_c, 0, 56, 64
1, 296559, Note_off_c, 0, 65, 61
1, 296589, Note_off_c, 0, 62, 57
1, 296596, Note_off_c, 0, 74, 53
1, 296611, Note_on_c, 0, 62, 73
1, 296616, Note_on_c, 0, 65, 84
1, 296619, Note_on_c, 0, 69, 99
1, 296621, Note_on_c, 0, 57, 78
1, 296633, Note_off_c, 0, 65, 76
1, 296653, Note_off_c, 0, 62, 68
1, 296660, Note_off_c, 0, 77, 60
1, 296666, Note_off_c, 0, 57, 65
1, 296669, Note_off_c, 0, 80, 61
1, 296730, Note_off_c, 0, 69, 58
1, 296755, Note_on_c, 0, 74, 79
1, 296761, Note_on_c, 0, 77, 81
1, 296764, Note_on_c, 0, 81, 87
1, 296792, Note_off_c, 0, 74, 66
1, 296824, Note_off_c, 0, 77, 63
1, 296849, Note_off_c, 0, 81, 63
1, 296955, Note_on_c, 0, 74, 87
1, 296969, Note_on_c, 0, 52, 66
1, 296973, Note_on_c, 0, 43, 57
1, 296981, Note_on_c, 0, 40, 57
1, 296987, Control_c, 0, 64, 105
1, 297001, Control_c, 0, 64, 71
1, 297016, Control_c, 0, 64, 51
1, 297030, Control_c, 0, 64, 46
1, 297045, Control_c, 0, 64, 61
1, 297060, Control_c, 0, 64, 77
1, 297075, Control_c, 0, 64, 127
1, 297098, Note_on_c, 0, 86, 69
1, 297107, Note_on_c, 0, 83, 69
1, 297127, Note_off_c, 0, 40, 59
1, 297131, Note_off_c, 0, 74, 59
1, 297139, Note_off_c, 0, 43, 61
1, 297146, Note_off_c, 0, 52, 61
1, 297180, Poly_aftertouch_c, 0, 84, 127
1, 297197, Note_off_c, 0, 83, 55
1, 297217, Poly_aftertouch_c, 0, 84, 0
1, 297221, Note_off_c, 0, 86, 57
1, 297224, Note_on_c, 0, 53, 77
1, 297228, Note_on_c, 0, 72, 82
1, 297238, Note_on_c, 0, 41, 67
1, 297238, Note_on_c, 0, 45, 66
1, 297334, Note_on_c, 0, 84, 74
1, 297340, Note_on_c, 0, 81, 70
1, 297352, Note_off_c, 0, 72, 51
1, 297365, Note_off_c, 0, 41, 64
1, 297379, Note_off_c, 0, 45, 62
1, 297380, Note_off_c, 0, 53, 61
1, 297412, Note_off_c, 0, 81, 60
1, 297435, Note_on_c, 0, 55, 93
1, 297437, Note_on_c, 0, 71, 87
1, 297438, Poly_aftertouch_c, 0, 83, 0
1, 297441, Note_off_c, 0, 84, 54
1, 297442, Note_on_c, 0, 47, 82
1, 297444, Note_on_c, 0, 43, 85
1, 297534, Note_on_c, 0, 83, 87
1, 297534, Note_off_c, 0, 71, 56
1, 297541, Note_on_c, 0, 79, 75
1, 297562, Note_on_c, 0, 81, 51
1, 297570, Note_off_c, 0, 43, 61
1, 297575, Note_off_c, 0, 55, 62
1, 297582, Note_off_c, 0, 47, 63
1, 297602, Note_off_c, 0, 79, 60
1, 297603, Note_off_c, 0, 81, 52
1, 297621, Note_on_c, 0, 69, 87
1, 297621, Note_off_c, 0, 83, 59
1, 297629, Note_on_c, 0, 57, 103
1, 297635, Note_on_c, 0, 48, 87
1, 297635, Note_on_c, 0, 45, 81
1, 297700, Note_off_c, 0, 69, 61
1, 297713, Note_on_c, 0, 81, 82
1, 297715, Note_on_c, 0, 77, 75
1, 297738, Note_off_c, 0, 77, 69
1, 297748, Note_off_c, 0, 45, 57
1, 297769, Note_off_c, 0, 81, 66
1, 297776, Note_off_c, 0, 48, 60
1, 297782, Note_off_c, 0, 57, 61
1, 297848, Note_on_c, 0, 77, 74
1, 297851, Note_on_c, 0, 59, 88
1, 297853, Control_c, 0, 64, 103
1, 297856, Note_on_c, 0, 50, 75
1, 297860, Note_on_c, 0, 47, 74
1, 297868, Control_c, 0, 64, 72
1, 297883, Control_c, 0, 64, 56
1, 297898, Control_c, 0, 64, 55
1, 297912, Control_c, 0, 64, 64
1, 297927, Control_c, 0, 64, 78
1, 297935, Note_off_c, 0, 77, 59
1, 297942, Control_c, 0, 64, 127
1, 297949, Note_on_c, 0, 89, 79
1, 297957, Note_on_c, 0, 86, 77
1, 297978, Note_off_c, 0, 47, 62
1, 297990, Note_off_c, 0, 59, 63
1, 297992, Note_off_c, 0, 50, 63
1, 298011, Note_off_c, 0, 86, 65
1, 298023, Note_off_c, 0, 89, 60
1, 298043, Note_on_c, 0, 60, 96
1, 298043, Note_on_c, 0, 76, 85
1, 298047, Note_on_c, 0, 52, 85
1, 298051, Note_on_c, 0, 48, 84
1, 298097, Note_off_c, 0, 76, 59
1, 298115, Note_off_c, 0, 48, 56
1, 298118, Note_on_c, 0, 88, 74
1, 298124, Note_on_c, 0, 84, 72
1, 298124, Note_off_c, 0, 60, 60
1, 298124, Note_on_c, 0, 86, 72
1, 298131, Note_off_c, 0, 52, 61
1, 298168, Note_off_c, 0, 84, 65
1, 298180, Note_off_c, 0, 88, 63
1, 298181, Note_off_c, 0, 86, 60
1, 298186, Note_on_c, 0, 62, 91
1, 298187, Note_on_c, 0, 74, 93
1, 298187, Note_on_c, 0, 53, 80
1, 298192, Note_on_c, 0, 50, 79
1, 298254, Note_off_c, 0, 74, 63
1, 298270, Note_on_c, 0, 83, 82
1, 298270, Note_on_c, 0, 86, 87
1, 298279, Note_off_c, 0, 50, 60
1, 298285, Note_on_c, 0, 84, 68
1, 298290, Note_off_c, 0, 53, 62
1, 298291, Note_off_c, 0, 62, 63
1, 298321, Note_off_c, 0, 83, 62
1, 298321, Note_off_c, 0, 86, 64
1, 298325, Note_off_c, 0, 84, 48
1, 298333, Note_on_c, 0, 72, 89
1, 298347, Note_on_c, 0, 64, 102
1, 298352, Note_on_c, 0, 52, 86
1, 298352, Note_on_c, 0, 55, 84
1, 298393, Note_off_c, 0, 72, 64
1, 298396, Note_on_c, 0, 81, 71
1, 298407, Note_on_c, 0, 84, 83
1, 298418, Note_off_c, 0, 81, 70
1, 298434, Note_off_c, 0, 84, 66
1, 298456, Note_off_c, 0, 52, 61
1, 298465, Note_off_c, 0, 55, 63
1, 298467, Note_off_c, 0, 64, 63
1, 298484, Control_c, 0, 64, 90
1, 298498, Control_c, 0, 64, 64
1, 298506, Note_on_c, 0, 91, 91
1, 298512, Note_on_c, 0, 79, 87
1, 298513, Control_c, 0, 64, 51
1, 298519, Note_on_c, 0, 88, 68
1, 298521, Note_on_c, 0, 65, 98
1, 298523, Note_on_c, 0, 57, 90
1, 298524, Note_on_c, 0, 53, 90
1, 298528, Note_on_c, 0, 89, 47
1, 298528, Control_c, 0, 64, 59
1, 298543, Note_on_c, 0, 86, 48
1, 298543, Control_c, 0, 64, 75
1, 298554, Note_off_c, 0, 88, 65
1, 298556, Note_off_c, 0, 89, 49
1, 298558, Note_off_c, 0, 79, 64
1, 298558, Control_c, 0, 64, 127
1, 298562, Note_off_c, 0, 91, 66
1, 298568, Note_off_c, 0, 86, 36
1, 298626, Note_on_c, 0, 89, 89
1, 298634, Note_on_c, 0, 86, 83
1, 298634, Note_on_c, 0, 77, 98
1, 298671, Note_on_c, 0, 88, 35
1, 298678, Note_off_c, 0, 53, 59
1, 298685, Note_off_c, 0, 86, 66
1, 298686, Note_off_c, 0, 65, 61
1, 298686, Note_off_c, 0, 77, 64
1, 298687, Note_off_c, 0, 89, 63
1, 298692, Note_off_c, 0, 57, 64
1, 298702, Note_off_c, 0, 88, 54
1, 298749, Note_on_c, 0, 67, 97
1, 298752, Note_on_c, 0, 59, 89
1, 298753, Note_on_c, 0, 88, 99
1, 298754, Note_on_c, 0, 76, 94
1, 298756, Note_on_c, 0, 55, 84
1, 298756, Note_on_c, 0, 84, 85
1, 298783, Note_off_c, 0, 67, 67
1, 298793, Note_on_c, 0, 86, 34
1, 298795, Note_off_c, 0, 59, 65
1, 298799, Note_off_c, 0, 55, 61
1, 298799, Note_off_c, 0, 76, 67
1, 298802, Note_off_c, 0, 88, 66
1, 298807, Note_off_c, 0, 84, 64
1, 298823, Note_off_c, 0, 86, 57
1, 298866, Note_on_c, 0, 74, 98
1, 298866, Note_on_c, 0, 86, 93
1, 298867, Note_on_c, 0, 83, 86
1, 298882, Note_on_c, 0, 58, 72
1, 298899, Note_off_c, 0, 74, 65
1, 298908, Note_off_c, 0, 83, 63
1, 298908, Note_off_c, 0, 58, 66
1, 298928, Note_off_c, 0, 86, 66
1, 298965, Poly_aftertouch_c, 0, 54, 127
1, 298994, Poly_aftertouch_c, 0, 54, 0
1, 299067, Note_on_c, 0, 55, 94
1, 299067, Note_on_c, 0, 59, 103
1, 299073, Note_on_c, 0, 93, 96
1, 299074, Note_on_c, 0, 89, 93
1, 299084, Control_c, 0, 64, 94
1, 299099, Control_c, 0, 64, 68
1, 299114, Control_c, 0, 64, 53
1, 299129, Control_c, 0, 64, 51
1, 299144, Control_c, 0, 64, 59
1, 299158, Control_c, 0, 64, 74
1, 299173, Control_c, 0, 64, 113
1, 299188, Control_c, 0, 64, 127
1, 299274, Note_on_c, 0, 57, 87
1, 299275, Note_on_c, 0, 91, 91
1, 299276, Note_on_c, 0, 88, 93
1, 299280, Note_on_c, 0, 60, 85
1, 299295, Note_off_c, 0, 59, 58
1, 299306, Note_off_c, 0, 55, 58
1, 299310, Note_off_c, 0, 89, 60
1, 299310, Note_off_c, 0, 93, 61
1, 299348, Note_off_c, 0, 57, 64
1, 299349, Note_off_c, 0, 60, 64
1, 299354, Note_off_c, 0, 91, 66
1, 299355, Note_off_c, 0, 88, 64
1, 299412, Note_on_c, 0, 89, 90
1, 299418, Note_on_c, 0, 59, 92
1, 299418, Note_on_c, 0, 62, 97
1, 299420, Note_on_c, 0, 86, 99
1, 299425, Control_c, 0, 64, 92
1, 299439, Control_c, 0, 64, 85
1, 299454, Control_c, 0, 64, 90
1, 299469, Control_c, 0, 64, 127
1, 299490, Note_off_c, 0, 59, 59
1, 299510, Note_off_c, 0, 89, 58
1, 299535, Note_off_c, 0, 86, 0
1, 299536, Note_on_c, 0, 60, 83
1, 299540, Note_on_c, 0, 84, 95
1, 299540, Note_on_c, 0, 88, 93
1, 299546, Note_on_c, 0, 64, 90
1, 299552, Note_on_c, 0, 86, 35
1, 299554, Note_off_c, 0, 62, 57
1, 299569, Note_on_c, 0, 89, 14
1, 299582, Note_off_c, 0, 86, 52
1, 299585, Note_off_c, 0, 60, 65
1, 299592, Note_off_c, 0, 84, 67
1, 299595, Note_off_c, 0, 88, 66
1, 299599, Note_off_c, 0, 64, 65
1, 299623, Note_off_c, 0, 89, 33
1, 299653, Note_on_c, 0, 65, 95
1, 299653, Note_on_c, 0, 86, 94
1, 299658, Note_on_c, 0, 62, 86
1, 299659, Note_on_c, 0, 83, 98
1, 299708, Note_off_c, 0, 62, 60
1, 299722, Note_off_c, 0, 65, 61
1, 299722, Note_off_c, 0, 83, 64
1, 299741, Note_off_c, 0, 86, 63
1, 299770, Note_on_c, 0, 67, 88
1, 299771, Note_on_c, 0, 84, 92
1, 299772, Note_on_c, 0, 64, 82
1, 299774, Note_on_c, 0, 81, 93
1, 299792, Note_on_c, 0, 62, 29
1, 299814, Note_off_c, 0, 64, 66
1, 299817, Note_off_c, 0, 67, 64
1, 299826, Note_off_c, 0, 81, 64
1, 299826, Note_off_c, 0, 84, 66
1, 299829, Note_off_c, 0, 62, 52
1, 299876, Note_on_c, 0, 69, 90
1, 299879, Note_on_c, 0, 65, 86
1, 299880, Note_on_c, 0, 83, 85
1, 299882, Note_on_c, 0, 79, 87
1, 299899, Note_on_c, 0, 67, 56
1, 299899, Note_off_c, 0, 67, 127
1, 299918, Note_on_c, 0, 84, 27
1, 299918, Note_off_c, 0, 84, 127
1, 299933, Note_off_c, 0, 65, 63
1, 299933, Note_off_c, 0, 79, 66
1, 299938, Note_off_c, 0, 69, 62
1, 299941, Note_off_c, 0, 83, 65
1, 299978, Note_on_c, 0, 67, 93
1, 299984, Note_on_c, 0, 81, 99
1, 299984, Note_on_c, 0, 65, 59
1, 299989, Note_on_c, 0, 71, 92
1, 299989, Note_on_c, 0, 77, 96
1, 300011, Note_on_c, 0, 83, 48
1, 300013, Note_off_c, 0, 65, 64
1, 300029, Note_off_c, 0, 77, 64
1, 300035, Note_off_c, 0, 83, 58
1, 300038, Note_off_c, 0, 67, 64
1, 300038, Note_off_c, 0, 71, 61
1, 300038, Note_off_c, 0, 81, 64
1, 300132, Note_on_c, 0, 69, 82
1, 300132, Note_on_c, 0, 79, 81
1, 300138, Note_on_c, 0, 76, 79
1, 300143, Note_on_c, 0, 72, 75
1, 300160, Note_off_c, 0, 76, 68
1, 300167, Note_off_c, 0, 69, 56
1, 300167, Note_off_c, 0, 72, 66
1, 300178, Note_off_c, 0, 79, 60
1, 300236, Note_on_c, 0, 77, 80
1, 300239, Note_on_c, 0, 74, 80
1, 300246, Note_on_c, 0, 71, 81
1, 300257, Note_off_c, 0, 77, 68
1, 300261, Note_off_c, 0, 74, 68
1, 300267, Note_off_c, 0, 71, 68
1, 300327, Note_on_c, 0, 76, 90
1, 300345, Note_on_c, 0, 72, 72
1, 300362, Note_off_c, 0, 76, 64
1, 300363, Note_on_c, 0, 69, 47
1, 300372, Note_off_c, 0, 72, 66
1, 300395, Note_off_c, 0, 69, 53
1, 300413, Note_on_c, 0, 74, 91
1, 300414, Note_on_c, 0, 77, 86
1, 300418, Note_on_c, 0, 71, 85
1, 300453, Note_off_c, 0, 74, 60
1, 300457, Note_off_c, 0, 77, 60
1, 300486, Note_on_c, 0, 67, 69
1, 300497, Note_on_c, 0, 79, 72
1, 300497, Note_off_c, 0, 71, 58
1, 300505, Note_on_c, 0, 76, 78
1, 300535, Note_off_c, 0, 76, 64
1, 300539, Note_off_c, 0, 67, 64
1, 300560, Note_off_c, 0, 79, 65
1, 300590, Note_on_c, 0, 69, 54
1, 300610, Control_c, 0, 64, 81
1, 300613, Note_on_c, 0, 65, 56
1, 300622, Note_on_c, 0, 77, 70
1, 300623, Note_on_c, 0, 83, 89
1, 300625, Control_c, 0, 64, 79
1, 300627, Note_on_c, 0, 79, 68
1, 300627, Note_off_c, 0, 69, 63
1, 300630, Note_on_c, 0, 67, 94
1, 300641, Control_c, 0, 64, 111
1, 300647, Note_off_c, 0, 65, 62
1, 300649, Note_off_c, 0, 77, 66
1, 300653, Note_off_c, 0, 79, 63
1, 300656, Control_c, 0, 64, 127
1, 300657, Poly_aftertouch_c, 0, 71, 0
1, 300677, Poly_aftertouch_c, 0, 71, 0
1, 300682, Note_on_c, 0, 64, 76
1, 300689, Note_off_c, 0, 67, 62
1, 300695, Note_on_c, 0, 81, 82
1, 300700, Note_on_c, 0, 84, 83
1, 300722, Note_off_c, 0, 83, 62
1, 300738, Note_off_c, 0, 64, 65
1, 300739, Note_off_c, 0, 81, 66
1, 300752, Note_on_c, 0, 65, 65
1, 300759, Note_off_c, 0, 84, 67
1, 300801, Note_on_c, 0, 83, 92
1, 300804, Note_on_c, 0, 86, 92
1, 300810, Note_on_c, 0, 64, 95
1, 300815, Note_off_c, 0, 65, 64
1, 300815, Poly_aftertouch_c, 0, 62, 127
1, 300838, Note_on_c, 0, 60, 42
1, 300843, Note_off_c, 0, 83, 56
1, 300863, Note_off_c, 0, 86, 0
1, 300865, Note_on_c, 0, 84, 94
1, 300874, Note_off_c, 0, 64, 66
1, 300878, Note_on_c, 0, 88, 89
1, 300888, Poly_aftertouch_c, 0, 86, 0
1, 300903, Poly_aftertouch_c, 0, 62, 0
1, 300905, Note_off_c, 0, 84, 67
1, 300923, Note_off_c, 0, 88, 68
1, 300937, Note_off_c, 0, 60, 63
1, 300940, Note_on_c, 0, 59, 35
1, 300963, Note_on_c, 0, 86, 90
1, 300963, Note_off_c, 0, 59, 59
1, 300977, Note_on_c, 0, 89, 80
1, 300985, Note_on_c, 0, 91, 67
1, 300990, Note_on_c, 0, 88, 49
1, 300998, Note_on_c, 0, 59, 74
1, 301001, Note_off_c, 0, 91, 66
1, 301019, Note_off_c, 0, 88, 0
1, 301019, Note_on_c, 0, 88, 57
1, 301020, Note_off_c, 0, 86, 48
1, 301042, Note_off_c, 0, 89, 64
1, 301063, Poly_aftertouch_c, 0, 60, 127
1, 301072, Note_off_c, 0, 59, 65
1, 301073, Note_off_c, 0, 88, 67
1, 301081, Note_on_c, 0, 91, 37
1, 301087, Poly_aftertouch_c, 0, 60, 0
1, 301100, Control_c, 0, 64, 89
1, 301112, Note_on_c, 0, 59, 100
1, 301113, Note_off_c, 0, 91, 49
1, 301115, Note_on_c, 0, 93, 93
1, 301115, Control_c, 0, 64, 57
1, 301117, Note_on_c, 0, 55, 99
1, 301124, Note_on_c, 0, 89, 102
1, 301129, Note_on_c, 0, 91, 86
1, 301130, Control_c, 0, 64, 53
1, 301145, Control_c, 0, 64, 80
1, 301146, Note_on_c, 0, 53, 50
1, 301146, Note_off_c, 0, 91, 74
1, 301150, Note_off_c, 0, 59, 67
1, 301151, Note_off_c, 0, 89, 67
1, 301152, Note_off_c, 0, 55, 66
1, 301159, Control_c, 0, 64, 127
1, 301161, Note_off_c, 0, 93, 66
1, 301176, Note_off_c, 0, 53, 57
1, 301642, Control_c, 0, 64, 75
1, 301657, Control_c, 0, 64, 35
1, 301672, Control_c, 0, 64, 0
1, 302067, Note_on_c, 0, 79, 88
1, 302067, Note_on_c, 0, 91, 103
1, 302072, Note_on_c, 0, 67, 86
1, 302080, Control_c, 0, 64, 51
1, 302095, Control_c, 0, 64, 90
1, 302101, Note_off_c, 0, 79, 67
1, 302110, Control_c, 0, 64, 127
1, 302113, Note_off_c, 0, 67, 65
1, 302115, Note_on_c, 0, 96, 28
1, 302161, Note_off_c, 0, 96, 38
1, 302269, Note_off_c, 0, 91, 62
1, 302378, Poly_aftertouch_c, 0, 67, 127
1, 302380, Note_on_c, 0, 91, 67
1, 302396, Note_off_c, 0, 91, 66
1, 302417, Poly_aftertouch_c, 0, 67, 0
1, 302441, Note_on_c, 0, 67, 46
1, 302452, Poly_aftertouch_c, 0, 69, 127
1, 302473, Note_on_c, 0, 91, 61
1, 302485, Note_off_c, 0, 67, 63
1, 302504, Poly_aftertouch_c, 0, 69, 0
1, 302517, Note_off_c, 0, 91, 66
1, 302522, Note_on_c, 0, 69, 40
1, 302524, Note_on_c, 0, 93, 74
1, 302553, Note_on_c, 0, 67, 82
1, 302554, Note_off_c, 0, 69, 54
1, 302559, Note_off_c, 0, 93, 61
1, 302578, Note_on_c, 0, 91, 78
1, 302597, Note_off_c, 0, 67, 65
1, 302606, Note_on_c, 0, 93, 79
1, 302612, Note_off_c, 0, 91, 67
1, 302631, Note_on_c, 0, 69, 68
1, 302657, Note_on_c, 0, 91, 101
1, 302665, Note_off_c, 0, 93, 63
1, 302669, Note_on_c, 0, 67, 102
1, 302683, Note_off_c, 0, 69, 39
1, 302905, Note_on_c, 0, 90, 97
1, 302911, Note_on_c, 0, 66, 84
1, 302938, Note_off_c, 0, 67, 62
1, 302939, Note_off_c, 0, 91, 57
1, 302944, Note_on_c, 0, 89, 75
1, 303010, Note_off_c, 0, 89, 64
1, 303022, Note_off_c, 0, 90, 60
1, 303062, Note_off_c, 0, 66, 65
1, 303073, Note_on_c, 0, 91, 104
1, 303090, Note_on_c, 0, 67, 57
1, 303105, Note_off_c, 0, 91, 71
1, 303117, Note_off_c, 0, 67, 57
1, 303406, Control_c, 0, 64, 104
1, 303411, Note_on_c, 0, 84, 101
1, 303412, Note_on_c, 0, 79, 87
1, 303413, Note_on_c, 0, 72, 94
1, 303415, Note_on_c, 0, 76, 94
1, 303421, Note_on_c, 0, 60, 80
1, 303421, Control_c, 0, 64, 69
1, 303424, Note_on_c, 0, 64, 85
1, 303430, Note_on_c, 0, 55, 71
1, 303436, Control_c, 0, 64, 44
1, 303445, Note_on_c, 0, 52, 67
1, 303458, Control_c, 0, 64, 34
1, 303465, Note_off_c, 0, 64, 65
1, 303473, Control_c, 0, 64, 51
1, 303475, Note_off_c, 0, 60, 65
1, 303487, Control_c, 0, 64, 68
1, 303502, Note_off_c, 0, 55, 63
1, 303502, Control_c, 0, 64, 95
1, 303514, Note_off_c, 0, 52, 63
1, 303517, Control_c, 0, 64, 127
1, 303553, Note_off_c, 0, 72, 62
1, 303597, Note_off_c, 0, 84, 54
1, 303711, Note_off_c, 0, 76, 62
1, 303738, Note_off_c, 0, 79, 62
1, 303764, Note_on_c, 0, 36, 64
1, 303769, Note_on_c, 0, 48, 76
1, 303791, Note_off_c, 0, 36, 60
1, 303796, Note_off_c, 0, 48, 64
1, 303992, Note_on_c, 0, 86, 98
1, 303992, Control_c, 0, 64, 90
1, 303993, Note_on_c, 0, 74, 102
1, 303994, Note_on_c, 0, 81, 88
1, 303995, Note_on_c, 0, 77, 96
1, 304001, Note_on_c, 0, 60, 78
1, 304005, Note_on_c, 0, 62, 81
1, 304005, Note_on_c, 0, 53, 75
1, 304007, Control_c, 0, 64, 67
1, 304010, Note_on_c, 0, 57, 76
1, 304022, Control_c, 0, 64, 54
1, 304026, Note_off_c, 0, 62, 70
1, 304030, Note_off_c, 0, 60, 67
1, 304036, Control_c, 0, 64, 54
1, 304041, Note_on_c, 0, 78, 11
1, 304041, Note_off_c, 0, 78, 127
1, 304041, Note_off_c, 0, 57, 67
1, 304051, Control_c, 0, 64, 62
1, 304053, Note_off_c, 0, 53, 61
1, 304066, Control_c, 0, 64, 77
1, 304081, Control_c, 0, 64, 127
1, 304169, Note_off_c, 0, 74, 57
1, 304196, Note_off_c, 0, 86, 59
1, 304224, Note_off_c, 0, 77, 65
1, 304240, Note_on_c, 0, 48, 82
1, 304241, Note_on_c, 0, 36, 78
1, 304242, Note_off_c, 0, 81, 67
1, 304263, Note_off_c, 0, 36, 66
1, 304265, Note_off_c, 0, 48, 65
1, 304510, Note_on_c, 0, 76, 94
1, 304511, Note_on_c, 0, 79, 87
1, 304512, Note_on_c, 0, 84, 89
1, 304512, Note_on_c, 0, 88, 99
1, 304520, Note_on_c, 0, 52, 75
1, 304520, Note_on_c, 0, 55, 81
1, 304523, Note_on_c, 0, 60, 86
1, 304533, Control_c, 0, 64, 81
1, 304548, Control_c, 0, 64, 54
1, 304562, Control_c, 0, 64, 0
1, 304592, Note_off_c, 0, 60, 60
1, 304592, Control_c, 0, 64, 41
1, 304607, Control_c, 0, 64, 63
1, 304616, Note_off_c, 0, 55, 63
1, 304622, Control_c, 0, 64, 90
1, 304637, Control_c, 0, 64, 127
1, 304640, Note_off_c, 0, 52, 63
1, 304733, Note_off_c, 0, 76, 57
1, 304753, Note_off_c, 0, 88, 59
1, 304833, Note_off_c, 0, 79, 62
1, 304858, Note_on_c, 0, 36, 81
1, 304860, Note_on_c, 0, 48, 85
1, 304873, Note_off_c, 0, 84, 41
1, 304905, Note_off_c, 0, 36, 65
1, 304918, Note_off_c, 0, 48, 62
1, 305214, Note_on_c, 0, 77, 98
1, 305215, Note_on_c, 0, 74, 106
1, 305215, Note_on_c, 0, 86, 96
1, 305219, Note_on_c, 0, 81, 86
1, 305221, Note_on_c, 0, 57, 78
1, 305222, Note_on_c, 0, 53, 74
1, 305222, Control_c, 0, 64, 78
1, 305224, Note_on_c, 0, 62, 84
1, 305237, Control_c, 0, 64, 51
1, 305252, Control_c, 0, 64, 0
1, 305267, Control_c, 0, 64, 32
1, 305282, Control_c, 0, 64, 58
1, 305297, Control_c, 0, 64, 82
1, 305308, Note_off_c, 0, 86, 66
1, 305312, Control_c, 0, 64, 127
1, 305319, Note_off_c, 0, 62, 63
1, 305332, Note_off_c, 0, 74, 60
1, 305347, Note_off_c, 0, 57, 63
1, 305351, Note_off_c, 0, 81, 64
1, 305371, Note_off_c, 0, 77, 66
1, 305375, Note_off_c, 0, 53, 62
1, 305590, Note_on_c, 0, 36, 55
1, 305600, Poly_aftertouch_c, 0, 56, 0
1, 305628, Note_on_c, 0, 57, 65
1, 305630, Note_off_c, 0, 36, 63
1, 305642, Poly_aftertouch_c, 0, 56, 0
1, 305654, Note_on_c, 0, 53, 47
1, 305662, Note_off_c, 0, 57, 61
1, 305666, Note_on_c, 0, 48, 35
1, 305685, Note_off_c, 0, 53, 53
1, 305713, Note_off_c, 0, 48, 43
1, 305726, Note_on_c, 0, 36, 60
1, 305762, Note_off_c, 0, 36, 60
1, 305839, Note_on_c, 0, 62, 74
1, 305843, Note_on_c, 0, 36, 68
1, 305865, Note_on_c, 0, 57, 21
1, 305868, Note_off_c, 0, 62, 65
1, 305874, Note_off_c, 0, 36, 65
1, 305894, Note_on_c, 0, 48, 25
1, 305895, Note_off_c, 0, 57, 49
1, 305901, Poly_aftertouch_c, 0, 53, 127
1, 305937, Note_off_c, 0, 48, 55
1, 305938, Poly_aftertouch_c, 0, 53, 0
1, 305953, Note_on_c, 0, 36, 63
1, 305982, Note_off_c, 0, 36, 63
1, 306019, Note_on_c, 0, 48, 57
1, 306050, Note_off_c, 0, 48, 55
1, 306063, Note_on_c, 0, 65, 80
1, 306068, Note_on_c, 0, 57, 65
1, 306070, Note_on_c, 0, 62, 70
1, 306071, Note_on_c, 0, 36, 69
1, 306088, Note_off_c, 0, 57, 64
1, 306090, Note_off_c, 0, 62, 65
1, 306095, Note_off_c, 0, 65, 63
1, 306100, Note_off_c, 0, 36, 61
1, 306124, Note_on_c, 0, 48, 68
1, 306159, Note_off_c, 0, 48, 62
1, 306184, Note_on_c, 0, 36, 54
1, 306214, Note_off_c, 0, 36, 63
1, 306239, Note_on_c, 0, 48, 71
1, 306289, Note_off_c, 0, 48, 55
1, 306300, Note_on_c, 0, 69, 91
1, 306304, Note_on_c, 0, 62, 74
1, 306308, Note_on_c, 0, 65, 68
1, 306317, Note_off_c, 0, 69, 74
1, 306324, Note_on_c, 0, 36, 65
1, 306324, Note_off_c, 0, 65, 69
1, 306327, Note_off_c, 0, 62, 64
1, 306341, Poly_aftertouch_c, 0, 40, 127
1, 306355, Note_on_c, 0, 48, 15
1, 306363, Poly_aftertouch_c, 0, 40, 0
1, 306375, Note_off_c, 0, 36, 61
1, 306388, Poly_aftertouch_c, 0, 40, 0
1, 306393, Note_off_c, 0, 48, 56
1, 306530, Note_on_c, 0, 36, 27
1, 306572, Note_off_c, 0, 36, 50
1, 306626, Note_on_c, 0, 24, 79
1, 306645, Note_on_c, 0, 36, 81
1, 306669, Note_off_c, 0, 24, 62
1, 306670, Note_off_c, 0, 36, 64
1, 307047, Control_c, 0, 64, 92
1, 307049, Note_on_c, 0, 74, 100
1, 307049, Note_on_c, 0, 86, 98
1, 307051, Note_on_c, 0, 81, 90
1, 307052, Note_on_c, 0, 77, 96
1, 307058, Note_on_c, 0, 62, 78
1, 307058, Note_on_c, 0, 65, 85
1, 307059, Note_on_c, 0, 57, 69
1, 307061, Control_c, 0, 64, 60
1, 307070, Note_on_c, 0, 53, 71
1, 307076, Control_c, 0, 64, 0
1, 307097, Note_off_c, 0, 65, 62
1, 307106, Control_c, 0, 64, 50
1, 307108, Note_off_c, 0, 62, 62
1, 307120, Control_c, 0, 64, 73
1, 307126, Note_off_c, 0, 57, 64
1, 307135, Control_c, 0, 64, 127
1, 307140, Note_off_c, 0, 53, 64
1, 307269, Note_off_c, 0, 74, 60
1, 307289, Note_off_c, 0, 77, 63
1, 307309, Note_off_c, 0, 81, 64
1, 307326, Note_off_c, 0, 86, 65
1, 307335, Note_on_c, 0, 48, 74
1, 307339, Note_on_c, 0, 36, 53
1, 307362, Note_off_c, 0, 48, 64
1, 307374, Note_off_c, 0, 36, 51
1, 307528, Control_c, 0, 64, 109
1, 307542, Note_on_c, 0, 79, 100
1, 307543, Control_c, 0, 64, 72
1, 307544, Note_on_c, 0, 84, 94
1, 307544, Note_on_c, 0, 88, 100
1, 307545, Note_on_c, 0, 76, 106
1, 307550, Note_on_c, 0, 60, 77
1, 307556, Note_on_c, 0, 64, 72
1, 307558, Control_c, 0, 64, 53
1, 307562, Note_on_c, 0, 55, 68
1, 307573, Control_c, 0, 64, 57
1, 307582, Note_off_c, 0, 64, 69
1, 307584, Note_off_c, 0, 60, 67
1, 307587, Control_c, 0, 64, 69
1, 307602, Control_c, 0, 64, 106
1, 307605, Note_off_c, 0, 55, 64
1, 307617, Control_c, 0, 64, 127
1, 307667, Note_off_c, 0, 76, 61
1, 307718, Note_on_c, 0, 82, 60
1, 307720, Note_off_c, 0, 79, 68
1, 307729, Note_off_c, 0, 88, 62
1, 307742, Note_off_c, 0, 84, 65
1, 307747, Note_off_c, 0, 82, 66
1, 307771, Note_on_c, 0, 36, 74
1, 307779, Note_on_c, 0, 48, 80
1, 307802, Note_off_c, 0, 36, 63
1, 307809, Note_off_c, 0, 48, 65
1, 308036, Note_on_c, 0, 77, 92
1, 308036, Note_on_c, 0, 89, 97
1, 308037, Note_on_c, 0, 81, 86
1, 308038, Note_on_c, 0, 86, 91
1, 308042, Note_on_c, 0, 62, 93
1, 308043, Note_on_c, 0, 57, 82
1, 308045, Note_on_c, 0, 53, 80
1, 308070, Control_c, 0, 64, 87
1, 308084, Control_c, 0, 64, 62
1, 308091, Note_off_c, 0, 62, 66
1, 308099, Control_c, 0, 64, 44
1, 308108, Note_off_c, 0, 57, 65
1, 308114, Control_c, 0, 64, 53
1, 308129, Note_off_c, 0, 53, 64
1, 308129, Control_c, 0, 64, 68
1, 308144, Control_c, 0, 64, 103
1, 308158, Control_c, 0, 64, 127
1, 308250, Note_off_c, 0, 77, 53
1, 308289, Note_off_c, 0, 89, 55
1, 308330, Note_off_c, 0, 86, 63
1, 308339, Note_off_c, 0, 81, 66
1, 308341, Note_on_c, 0, 36, 72
1, 308345, Note_on_c, 0, 48, 86
1, 308377, Note_off_c, 0, 36, 60
1, 308389, Note_off_c, 0, 48, 62
1, 308634, Control_c, 0, 64, 92
1, 308649, Control_c, 0, 64, 62
1, 308650, Note_on_c, 0, 84, 89
1, 308651, Note_on_c, 0, 88, 94
1, 308652, Note_on_c, 0, 64, 84
1, 308652, Note_on_c, 0, 79, 96
1, 308656, Note_on_c, 0, 76, 101
1, 308656, Note_on_c, 0, 55, 77
1, 308656, Note_on_c, 0, 60, 77
1, 308664, Control_c, 0, 64, 31
1, 308679, Control_c, 0, 64, 40
1, 308694, Control_c, 0, 64, 63
1, 308705, Note_off_c, 0, 64, 64
1, 308713, Note_off_c, 0, 76, 59
1, 308715, Note_off_c, 0, 60, 65
1, 308715, Control_c, 0, 64, 103
1, 308730, Note_off_c, 0, 88, 66
1, 308730, Control_c, 0, 64, 127
1, 308738, Note_off_c, 0, 55, 63
1, 308748, Note_off_c, 0, 79, 68
1, 308751, Note_off_c, 0, 84, 67
1, 309026, Note_on_c, 0, 36, 83
1, 309034, Note_on_c, 0, 60, 94
1, 309070, Note_on_c, 0, 61, 25
1, 309070, Note_off_c, 0, 61, 127
1, 309081, Note_off_c, 0, 60, 66
1, 309252, Note_on_c, 0, 64, 97
1, 309258, Note_on_c, 0, 55, 78
1, 309262, Note_on_c, 0, 60, 72
1, 309272, Note_on_c, 0, 48, 90
1, 309282, Note_off_c, 0, 60, 73
1, 309283, Note_off_c, 0, 55, 66
1, 309288, Note_off_c, 0, 36, 62
1, 309293, Note_off_c, 0, 64, 67
1, 309296, Note_off_c, 0, 48, 69
1, 309499, Note_on_c, 0, 67, 77
1, 309499, Note_on_c, 0, 88, 98
1, 309501, Note_on_c, 0, 76, 91
1, 309520, Note_off_c, 0, 76, 69
1, 309523, Note_off_c, 0, 67, 65
1, 309532, Note_off_c, 0, 88, 69
1, 309717, Control_c, 0, 64, 80
1, 309731, Control_c, 0, 64, 45
1, 309738, Note_on_c, 0, 72, 94
1, 309740, Note_on_c, 0, 68, 93
1, 309745, Note_on_c, 0, 80, 99
1, 309745, Note_on_c, 0, 89, 95
1, 309746, Note_on_c, 0, 77, 104
1, 309746, Control_c, 0, 64, 0
1, 309749, Note_on_c, 0, 60, 78
1, 309749, Note_on_c, 0, 65, 77
1, 309749, Note_on_c, 0, 84, 90
1, 309756, Note_on_c, 0, 62, 69
1, 309761, Control_c, 0, 64, 50
1, 309766, Note_off_c, 0, 72, 69
1, 309770, Note_on_c, 0, 85, 58
1, 309770, Note_off_c, 0, 85, 127
1, 309775, Control_c, 0, 64, 82
1, 309779, Note_off_c, 0, 68, 64
1, 309783, Note_off_c, 0, 77, 68
1, 309785, Note_off_c, 0, 65, 66
1, 309785, Note_off_c, 0, 89, 63
1, 309790, Control_c, 0, 64, 127
1, 309792, Note_off_c, 0, 62, 64
1, 309797, Note_off_c, 0, 60, 67
1, 309797, Note_off_c, 0, 80, 68
1, 309798, Note_off_c, 0, 84, 67
1, 309854, Poly_aftertouch_c, 0, 86, 0
1, 310018, Note_on_c, 0, 36, 81
1, 310022, Note_on_c, 0, 48, 91
1, 310026, Note_on_c, 0, 60, 86
1, 310030, Note_on_c, 0, 53, 77
1, 310031, Note_on_c, 0, 56, 72
1, 310047, Note_off_c, 0, 60, 70
1, 310048, Note_off_c, 0, 36, 66
1, 310050, Note_off_c, 0, 48, 66
1, 310056, Note_off_c, 0, 53, 68
1, 310057, Note_off_c, 0, 56, 64
1, 310282, Note_on_c, 0, 74, 95
1, 310283, Note_on_c, 0, 62, 80
1, 310288, Note_on_c, 0, 86, 78
1, 310289, Note_on_c, 0, 88, 88
1, 310302, Note_on_c, 0, 76, 56
1, 310302, Note_off_c, 0, 76, 127
1, 310306, Note_off_c, 0, 88, 75
1, 310314, Note_off_c, 0, 74, 66
1, 310315, Note_off_c, 0, 86, 67
1, 310324, Note_off_c, 0, 62, 63
1, 310361, Note_on_c, 0, 60, 98
1, 310361, Control_c, 0, 64, 88
1, 310367, Note_on_c, 0, 64, 99
1, 310367, Note_on_c, 0, 55, 88
1, 310373, Note_on_c, 0, 88, 97
1, 310375, Note_on_c, 0, 79, 86
1, 310375, Note_on_c, 0, 84, 80
1, 310376, Note_on_c, 0, 83, 84
1, 310376, Control_c, 0, 64, 56
1, 310377, Note_on_c, 0, 76, 91
1, 310378, Note_on_c, 0, 74, 97
1, 310380, Note_on_c, 0, 86, 80
1, 310382, Note_on_c, 0, 77, 83
1, 310391, Control_c, 0, 64, 0
1, 310396, Note_off_c, 0, 77, 71
1, 310399, Note_off_c, 0, 74, 70
1, 310402, Note_off_c, 0, 86, 53
1, 310405, Control_c, 0, 64, 31
1, 310411, Note_off_c, 0, 83, 65
1, 310420, Control_c, 0, 64, 62
1, 310422, Note_off_c, 0, 76, 58
1, 310435, Control_c, 0, 64, 95
1, 310450, Control_c, 0, 64, 127
1, 310453, Note_off_c, 0, 88, 66
1, 310455, Note_off_c, 0, 64, 63
1, 310462, Note_off_c, 0, 84, 66
1, 310464, Note_off_c, 0, 79, 62
1, 310466, Note_off_c, 0, 60, 65
1, 310492, Note_off_c, 0, 55, 65
1, 310668, Note_on_c, 0, 60, 76
1, 310673, Note_on_c, 0, 36, 81
1, 310691, Note_off_c, 0, 60, 66
1, 310737, Note_on_c, 0, 60, 80
1, 310769, Note_off_c, 0, 60, 64
1, 310803, Note_on_c, 0, 60, 71
1, 310873, Note_on_c, 0, 55, 98
1, 310873, Note_on_c, 0, 64, 104
1, 310878, Note_on_c, 0, 48, 97
1, 310881, Note_off_c, 0, 60, 64
1, 310892, Note_off_c, 0, 55, 71
1, 310900, Note_off_c, 0, 36, 66
1, 310904, Note_off_c, 0, 64, 71
1, 310908, Note_off_c, 0, 48, 66
1, 311137, Note_on_c, 0, 88, 96
1, 311142, Note_on_c, 0, 76, 93
1, 311146, Note_on_c, 0, 67, 81
1, 311159, Note_off_c, 0, 76, 71
1, 311168, Note_off_c, 0, 67, 70
1, 311170, Note_off_c, 0, 88, 69
1, 311391, Control_c, 0, 64, 96
1, 311406, Control_c, 0, 64, 58
1, 311416, Note_on_c, 0, 68, 93
1, 311416, Note_on_c, 0, 72, 97
1, 311416, Note_on_c, 0, 77, 106
1, 311416, Note_on_c, 0, 80, 105
1, 311418, Note_on_c, 0, 89, 97
1, 311419, Note_on_c, 0, 84, 95
1, 311421, Note_on_c, 0, 60, 77
1, 311421, Control_c, 0, 64, 0
1, 311424, Note_on_c, 0, 65, 81
1, 311433, Note_on_c, 0, 62, 75
1, 311436, Control_c, 0, 64, 50
1, 311438, Note_off_c, 0, 72, 66
1, 311448, Note_off_c, 0, 89, 68
1, 311451, Control_c, 0, 64, 84
1, 311452, Note_off_c, 0, 68, 67
1, 311452, Note_off_c, 0, 77, 70
1, 311457, Note_off_c, 0, 65, 66
1, 311461, Note_off_c, 0, 62, 68
1, 311464, Note_off_c, 0, 84, 69
1, 311466, Note_off_c, 0, 80, 69
1, 311466, Control_c, 0, 64, 127
1, 311471, Note_off_c, 0, 60, 66
1, 311721, Note_on_c, 0, 36, 85
1, 311721, Note_on_c, 0, 48, 95
1, 311724, Note_on_c, 0, 53, 83
1, 311726, Note_on_c, 0, 60, 80
1, 311729, Note_on_c, 0, 56, 76
1, 311745, Note_off_c, 0, 48, 66
1, 311746, Note_off_c, 0, 56, 66
1, 311747, Note_off_c, 0, 53, 69
1, 311749, Note_off_c, 0, 36, 67
1, 311749, Note_off_c, 0, 60, 68
1, 311786, Note_on_c, 0, 62, 2
1, 311830, Note_off_c, 0, 62, 50
1, 312004, Note_on_c, 0, 86, 90
1, 312005, Note_on_c, 0, 74, 98
1, 312013, Note_on_c, 0, 62, 84
1, 312039, Note_off_c, 0, 74, 68
1, 312044, Note_off_c, 0, 86, 68
1, 312058, Note_off_c, 0, 62, 65
1, 312101, Note_on_c, 0, 60, 101
1, 312101, Note_on_c, 0, 88, 99
1, 312103, Note_on_c, 0, 76, 112
1, 312104, Note_on_c, 0, 79, 99
1, 312105, Note_on_c, 0, 64, 101
1, 312106, Note_on_c, 0, 55, 88
1, 312107, Note_on_c, 0, 84, 93
1, 312140, Control_c, 0, 64, 74
1, 312155, Control_c, 0, 64, 0
1, 312185, Control_c, 0, 64, 32
1, 312200, Control_c, 0, 64, 61
1, 312212, Note_off_c, 0, 88, 65
1, 312215, Control_c, 0, 64, 98
1, 312221, Note_off_c, 0, 64, 68
1, 312230, Control_c, 0, 64, 127
1, 312239, Note_off_c, 0, 76, 60
1, 312242, Note_off_c, 0, 84, 66
1, 312248, Note_off_c, 0, 79, 64
1, 312251, Note_off_c, 0, 60, 65
1, 312274, Note_off_c, 0, 55, 62
1, 312479, Note_on_c, 0, 60, 89
1, 312485, Note_on_c, 0, 36, 80
1, 312498, Note_off_c, 0, 60, 72
1, 312561, Note_on_c, 0, 60, 89
1, 312590, Note_off_c, 0, 60, 60
1, 312635, Note_on_c, 0, 60, 83
1, 312679, Note_off_c, 0, 60, 62
1, 312707, Note_on_c, 0, 64, 105
1, 312710, Note_on_c, 0, 55, 96
1, 312721, Note_on_c, 0, 48, 89
1, 312729, Note_off_c, 0, 55, 70
1, 312739, Note_off_c, 0, 64, 71
1, 312744, Note_off_c, 0, 36, 64
1, 312747, Note_off_c, 0, 48, 64
1, 312991, Note_on_c, 0, 88, 100
1, 312993, Note_on_c, 0, 76, 93
1, 313002, Note_on_c, 0, 67, 76
1, 313017, Note_off_c, 0, 76, 67
1, 313023, Note_off_c, 0, 67, 71
1, 313023, Note_off_c, 0, 88, 68
1, 313175, Note_on_c, 0, 89, 5
1, 313306, Note_off_c, 0, 89, 38
1, 313325, Control_c, 0, 64, 98
1, 313340, Control_c, 0, 64, 63
1, 313349, Note_on_c, 0, 80, 102
1, 313351, Note_on_c, 0, 72, 99
1, 313351, Note_on_c, 0, 77, 101
1, 313351, Note_on_c, 0, 89, 94
1, 313354, Note_on_c, 0, 68, 91
1, 313355, Control_c, 0, 64, 0
1, 313356, Note_on_c, 0, 84, 85
1, 313359, Note_on_c, 0, 60, 76
1, 313365, Note_on_c, 0, 65, 74
1, 313367, Note_on_c, 0, 62, 72
1, 313370, Control_c, 0, 64, 39
1, 313385, Control_c, 0, 64, 63
1, 313387, Note_on_c, 0, 85, 32
1, 313387, Note_off_c, 0, 85, 127
1, 313399, Control_c, 0, 64, 111
1, 313412, Note_off_c, 0, 72, 65
1, 313414, Control_c, 0, 64, 127
1, 313419, Note_off_c, 0, 89, 64
1, 313434, Note_off_c, 0, 77, 64
1, 313440, Note_off_c, 0, 68, 65
1, 313457, Note_off_c, 0, 65, 63
1, 313457, Note_off_c, 0, 84, 67
1, 313461, Poly_aftertouch_c, 0, 86, 0
1, 313468, Note_off_c, 0, 62, 62
1, 313469, Note_off_c, 0, 80, 66
1, 313471, Note_off_c, 0, 60, 64
1, 313715, Poly_aftertouch_c, 0, 39, 127
1, 313751, Note_on_c, 0, 60, 83
1, 313752, Note_on_c, 0, 36, 88
1, 313754, Poly_aftertouch_c, 0, 39, 0
1, 313756, Note_on_c, 0, 48, 98
1, 313757, Note_on_c, 0, 52, 83
1, 313758, Note_on_c, 0, 56, 74
1, 313777, Note_off_c, 0, 52, 66
1, 313783, Note_off_c, 0, 56, 69
1, 313795, Note_off_c, 0, 48, 65
1, 313798, Note_off_c, 0, 36, 64
1, 313804, Note_off_c, 0, 60, 65
1, 313863, Poly_aftertouch_c, 0, 59, 0
1, 314084, Note_on_c, 0, 86, 85
1, 314086, Note_on_c, 0, 74, 97
1, 314089, Note_on_c, 0, 62, 82
1, 314132, Note_off_c, 0, 74, 65
1, 314149, Note_off_c, 0, 86, 66
1, 314152, Note_off_c, 0, 62, 64
1, 314212, Note_on_c, 0, 88, 92
1, 314212, Note_on_c, 0, 76, 100
1, 314214, Note_on_c, 0, 64, 82
1, 314215, Note_on_c, 0, 79, 88
1, 314218, Note_on_c, 0, 60, 69
1, 314218, Note_on_c, 0, 55, 78
1, 314218, Note_on_c, 0, 84, 90
1, 314233, Note_on_c, 0, 59, 55
1, 314262, Note_off_c, 0, 59, 35
1, 314283, Control_c, 0, 64, 83
1, 314298, Control_c, 0, 64, 46
1, 314313, Control_c, 0, 64, 0
1, 314357, Control_c, 0, 64, 37
1, 314371, Control_c, 0, 64, 67
1, 314386, Control_c, 0, 64, 127
1, 314391, Note_off_c, 0, 64, 63
1, 314409, Note_off_c, 0, 60, 65
1, 314432, Note_off_c, 0, 55, 63
1, 314471, Note_off_c, 0, 76, 59
1, 314492, Note_off_c, 0, 79, 63
1, 314511, Note_off_c, 0, 84, 60
1, 314537, Note_off_c, 0, 88, 65
1, 314671, Note_on_c, 0, 48, 92
1, 314674, Note_on_c, 0, 36, 79
1, 314675, Note_on_c, 0, 91, 92
1, 314677, Note_on_c, 0, 79, 94
1, 314707, Note_off_c, 0, 48, 68
1, 314710, Note_off_c, 0, 36, 69
1, 314716, Note_off_c, 0, 91, 70
1, 314716, Note_off_c, 0, 79, 66
1, 315097, Note_on_c, 0, 81, 84
1, 315101, Note_on_c, 0, 69, 81
1, 315104, Note_on_c, 0, 74, 79
1, 315106, Note_on_c, 0, 62, 70
1, 315106, Control_c, 0, 64, 87
1, 315107, Note_on_c, 0, 57, 61
1, 315108, Note_on_c, 0, 65, 76
1, 315119, Note_on_c, 0, 53, 64
1, 315121, Control_c, 0, 64, 60
1, 315136, Control_c, 0, 64, 0
1, 315166, Control_c, 0, 64, 52
1, 315181, Control_c, 0, 64, 78
1, 315195, Control_c, 0, 64, 127
1, 315227, Note_off_c, 0, 65, 62
1, 315247, Note_off_c, 0, 62, 63
1, 315262, Note_off_c, 0, 69, 59
1, 315265, Note_off_c, 0, 57, 64
1, 315276, Note_off_c, 0, 74, 65
1, 315285, Note_off_c, 0, 53, 63
1, 315304, Note_off_c, 0, 81, 65
1, 315429, Note_on_c, 0, 86, 86
1, 315431, Note_on_c, 0, 74, 98
1, 315453, Note_on_c, 0, 53, 88
1, 315454, Note_on_c, 0, 41, 89
1, 315492, Note_off_c, 0, 74, 61
1, 315506, Note_off_c, 0, 41, 65
1, 315506, Note_off_c, 0, 53, 64
1, 315540, Note_off_c, 0, 86, 47
1, 315696, Note_on_c, 0, 81, 100
1, 315697, Note_on_c, 0, 88, 93
1, 315698, Note_on_c, 0, 62, 91
1, 315699, Note_on_c, 0, 57, 83
1, 315699, Note_on_c, 0, 76, 100
1, 315700, Note_on_c, 0, 65, 90
1, 315706, Control_c, 0, 64, 78
1, 315720, Control_c, 0, 64, 64
1, 315735, Note_off_c, 0, 65, 62
1, 315735, Control_c, 0, 64, 68
1, 315741, Note_off_c, 0, 62, 67
1, 315750, Control_c, 0, 64, 85
1, 315765, Note_off_c, 0, 57, 65
1, 315765, Control_c, 0, 64, 127
1, 315825, Note_off_c, 0, 76, 56
1, 315840, Note_off_c, 0, 88, 63
1, 315925, Note_on_c, 0, 89, 96
1, 315927, Note_on_c, 0, 50, 89
1, 315927, Note_on_c, 0, 77, 102
1, 315928, Note_on_c, 0, 38, 87
1, 315938, Note_off_c, 0, 81, 61
1, 315956, Note_off_c, 0, 50, 65
1, 315957, Note_off_c, 0, 38, 67
1, 315967, Note_off_c, 0, 77, 67
1, 315967, Note_off_c, 0, 89, 65
1, 316203, Control_c, 0, 64, 74
1, 316211, Note_on_c, 0, 64, 90
1, 316214, Note_on_c, 0, 55, 81
1, 316214, Note_on_c, 0, 60, 81
1, 316215, Note_on_c, 0, 76, 102
1, 316215, Note_on_c, 0, 79, 94
1, 316215, Note_on_c, 0, 88, 92
1, 316218, Note_on_c, 0, 84, 89
1, 316218, Control_c, 0, 64, 46
1, 316233, Control_c, 0, 64, 0
1, 316248, Control_c, 0, 64, 31
1, 316263, Control_c, 0, 64, 59
1, 316278, Control_c, 0, 64, 91
1, 316292, Control_c, 0, 64, 127
1, 316308, Note_off_c, 0, 76, 64
1, 316331, Note_off_c, 0, 79, 67
1, 316339, Note_off_c, 0, 64, 62
1, 316349, Note_off_c, 0, 84, 65
1, 316353, Note_off_c, 0, 88, 66
1, 316409, Note_off_c, 0, 60, 65
1, 316416, Note_off_c, 0, 55, 60
1, 316475, Note_on_c, 0, 91, 107
1, 316477, Note_on_c, 0, 79, 104
1, 316655, Note_off_c, 0, 79, 59
1, 316684, Note_off_c, 0, 91, 64
1, 316743, Note_on_c, 0, 43, 94
1, 316746, Note_on_c, 0, 31, 87
1, 316749, Note_on_c, 0, 81, 103
1, 316749, Note_on_c, 0, 93, 107
1, 316790, Note_on_c, 0, 89, 33
1, 316795, Note_off_c, 0, 43, 64
1, 316796, Note_off_c, 0, 31, 65
1, 316830, Note_off_c, 0, 89, 40
1, 316881, Note_off_c, 0, 93, 58
1, 316890, Note_off_c, 0, 81, 52
1, 317021, Note_on_c, 0, 79, 104
1, 317023, Note_on_c, 0, 91, 92
1, 317051, Note_off_c, 0, 91, 69
1, 317053, Note_off_c, 0, 79, 72
1, 317358, Note_on_c, 0, 74, 106
1, 317358, Note_on_c, 0, 86, 97
1, 317360, Note_on_c, 0, 79, 93
1, 317361, Note_on_c, 0, 55, 84
1, 317362, Note_on_c, 0, 59, 86
1, 317363, Note_on_c, 0, 67, 85
1, 317366, Note_on_c, 0, 65, 87
1, 317366, Control_c, 0, 64, 118
1, 317381, Control_c, 0, 64, 70
1, 317396, Control_c, 0, 64, 43
1, 317411, Control_c, 0, 64, 32
1, 317426, Control_c, 0, 64, 52
1, 317441, Control_c, 0, 64, 71
1, 317455, Control_c, 0, 64, 127
1, 317461, Note_off_c, 0, 74, 64
1, 317472, Note_off_c, 0, 86, 62
1, 317503, Note_off_c, 0, 79, 67
1, 317506, Note_off_c, 0, 65, 50
1, 317512, Note_off_c, 0, 67, 58
1, 317830, Note_on_c, 0, 88, 82
1, 317837, Note_on_c, 0, 76, 85
1, 317847, Note_on_c, 0, 64, 64
1, 317871, Note_on_c, 0, 85, 33
1, 317911, Note_off_c, 0, 85, 47
1, 317928, Note_off_c, 0, 88, 61
1, 317930, Note_off_c, 0, 76, 56
1, 318071, Note_on_c, 0, 86, 85
1, 318072, Note_on_c, 0, 62, 62
1, 318076, Note_on_c, 0, 74, 85
1, 318105, Note_off_c, 0, 64, 33
1, 318129, Note_off_c, 0, 86, 64
1, 318135, Note_off_c, 0, 74, 61
1, 318153, Note_off_c, 0, 59, 15
1, 318172, Note_off_c, 0, 55, 50
1, 318231, Note_on_c, 0, 84, 75
1, 318235, Note_on_c, 0, 60, 63
1, 318240, Note_on_c, 0, 72, 77
1, 318244, Note_off_c, 0, 62, 60
1, 318275, Note_off_c, 0, 60, 60
1, 318281, Note_off_c, 0, 84, 63
1, 318286, Note_off_c, 0, 72, 61
1, 318359, Note_on_c, 0, 83, 79
1, 318372, Note_on_c, 0, 71, 74
1, 318373, Note_on_c, 0, 59, 51
1, 318412, Note_off_c, 0, 83, 62
1, 318420, Note_off_c, 0, 71, 59
1, 318425, Note_off_c, 0, 59, 54
1, 318500, Note_on_c, 0, 81, 77
1, 318513, Note_on_c, 0, 69, 71
1, 318519, Note_on_c, 0, 57, 61
1, 318564, Note_off_c, 0, 81, 61
1, 318571, Note_off_c, 0, 69, 59
1, 318648, Note_off_c, 0, 57, 46
1, 318663, Note_on_c, 0, 79, 72
1, 318672, Note_on_c, 0, 55, 63
1, 318674, Note_on_c, 0, 67, 71
1, 318703, Note_off_c, 0, 67, 66
1, 318713, Note_off_c, 0, 79, 62
1, 318719, Note_off_c, 0, 55, 56
1, 318781, Note_on_c, 0, 57, 61
1, 318782, Note_on_c, 0, 81, 81
1, 318792, Note_on_c, 0, 69, 72
1, 318816, Note_off_c, 0, 69, 68
1, 318816, Note_off_c, 0, 81, 58
1, 318864, Note_off_c, 0, 57, 0
1, 318886, Note_on_c, 0, 79, 81
1, 318895, Note_on_c, 0, 55, 67
1, 318895, Note_on_c, 0, 67, 80
1, 318901, Poly_aftertouch_c, 0, 57, 127
1, 318911, Poly_aftertouch_c, 0, 57, 0
1, 318920, Note_off_c, 0, 67, 69
1, 318926, Note_off_c, 0, 79, 61
1, 318931, Note_off_c, 0, 55, 62
1, 318988, Note_on_c, 0, 77, 84
1, 318996, Note_on_c, 0, 65, 85
1, 319010, Note_on_c, 0, 53, 48
1, 319023, Note_off_c, 0, 65, 65
1, 319026, Note_off_c, 0, 77, 59
1, 319040, Note_off_c, 0, 53, 62
1, 319087, Note_on_c, 0, 52, 66
1, 319095, Note_on_c, 0, 76, 80
1, 319100, Note_on_c, 0, 64, 87
1, 319123, Note_off_c, 0, 76, 63
1, 319126, Note_on_c, 0, 50, 30
1, 319127, Note_off_c, 0, 52, 63
1, 319129, Note_off_c, 0, 64, 65
1, 319165, Note_off_c, 0, 50, 54
1, 319204, Note_on_c, 0, 74, 88
1, 319208, Note_on_c, 0, 50, 52
1, 319215, Note_on_c, 0, 62, 74
1, 319226, Note_on_c, 0, 64, 69
1, 319240, Note_off_c, 0, 64, 70
1, 319245, Note_off_c, 0, 74, 64
1, 319246, Note_off_c, 0, 50, 59
1, 319247, Note_off_c, 0, 62, 65
1, 319317, Control_c, 0, 64, 107
1, 319332, Control_c, 0, 64, 67
1, 319347, Control_c, 0, 64, 34
1, 319353, Note_on_c, 0, 60, 98
1, 319360, Note_on_c, 0, 72, 84
1, 319361, Note_on_c, 0, 52, 76
1, 319361, Control_c, 0, 64, 0
1, 319368, Note_on_c, 0, 48, 82
1, 319370, Note_on_c, 0, 55, 73
1, 319376, Control_c, 0, 64, 44
1, 319384, Poly_aftertouch_c, 0, 64, 0
1, 319391, Control_c, 0, 64, 67
1, 319406, Control_c, 0, 64, 127
1, 319427, Note_off_c, 0, 60, 58
1, 319432, Note_off_c, 0, 55, 58
1, 319437, Note_off_c, 0, 72, 50
1, 319467, Note_off_c, 0, 52, 60
1, 319492, Note_off_c, 0, 48, 62
1, 319499, Note_on_c, 0, 67, 61
1, 319510, Note_on_c, 0, 72, 43
1, 319524, Note_off_c, 0, 67, 66
1, 319541, Note_off_c, 0, 72, 64
1, 319604, Note_on_c, 0, 72, 71
1, 319644, Note_off_c, 0, 72, 59
1, 319682, Note_on_c, 0, 76, 89
1, 319683, Note_on_c, 0, 84, 87
1, 319692, Note_on_c, 0, 79, 72
1, 319698, Note_on_c, 0, 36, 72
1, 319700, Note_on_c, 0, 48, 79
1, 319700, Note_on_c, 0, 77, 73
1, 319721, Note_off_c, 0, 48, 71
1, 319722, Note_off_c, 0, 36, 67
1, 319723, Note_on_c, 0, 81, 37
1, 319727, Note_off_c, 0, 77, 60
1, 319737, Note_off_c, 0, 79, 64
1, 319738, Note_off_c, 0, 84, 63
1, 319739, Note_off_c, 0, 76, 67
1, 319754, Note_off_c, 0, 81, 33
1, 319780, Note_on_c, 0, 71, 72
1, 319788, Poly_aftertouch_c, 0, 83, 0
1, 319792, Note_on_c, 0, 72, 39
1, 319805, Note_off_c, 0, 71, 68
1, 319824, Note_off_c, 0, 72, 53
1, 319868, Note_on_c, 0, 67, 77
1, 319870, Note_on_c, 0, 64, 73
1, 319870, Note_on_c, 0, 72, 55
1, 319897, Note_off_c, 0, 67, 65
1, 319897, Note_off_c, 0, 64, 67
1, 319909, Note_off_c, 0, 72, 55
1, 319925, Control_c, 0, 64, 100
1, 319945, Note_on_c, 0, 62, 105
1, 319947, Note_on_c, 0, 57, 91
1, 319947, Control_c, 0, 64, 65
1, 319949, Note_on_c, 0, 53, 86
1, 319951, Note_on_c, 0, 48, 85
1, 319962, Control_c, 0, 64, 33
1, 319975, Poly_aftertouch_c, 0, 69, 0
1, 319977, Note_off_c, 0, 57, 63
1, 319977, Control_c, 0, 64, 38
1, 319978, Note_on_c, 0, 68, 54
1, 319986, Note_off_c, 0, 53, 65
1, 319992, Control_c, 0, 64, 62
1, 319993, Note_off_c, 0, 62, 67
1, 320004, Note_on_c, 0, 70, 5
1, 320005, Note_off_c, 0, 68, 40
1, 320007, Note_off_c, 0, 48, 64
1, 320007, Control_c, 0, 64, 127
1, 320032, Note_on_c, 0, 65, 94
1, 320049, Note_on_c, 0, 74, 78
1, 320050, Note_on_c, 0, 69, 69
1, 320057, Note_off_c, 0, 70, 50
1, 320058, Note_off_c, 0, 65, 65
1, 320069, Note_off_c, 0, 69, 64
1, 320089, Note_off_c, 0, 74, 65
1, 320150, Note_on_c, 0, 74, 89
1, 320201, Note_on_c, 0, 36, 81
1, 320205, Note_on_c, 0, 48, 95
1, 320205, Note_off_c, 0, 74, 64
1, 320216, Note_on_c, 0, 77, 110
1, 320219, Note_on_c, 0, 86, 103
1, 320223, Note_on_c, 0, 81, 92
1, 320224, Note_off_c, 0, 48, 71
1, 320232, Note_on_c, 0, 83, 72
1, 320232, Note_off_c, 0, 83, 127
1, 320232, Note_off_c, 0, 36, 66
1, 320248, Note_off_c, 0, 86, 72
1, 320251, Note_on_c, 0, 80, 28
1, 320251, Note_off_c, 0, 80, 127
1, 320272, Note_off_c, 0, 77, 64
1, 320275, Note_off_c, 0, 81, 64
1, 320278, Poly_aftertouch_c, 0, 83, 0
1, 320305, Note_on_c, 0, 74, 103
1, 320341, Note_off_c, 0, 74, 69
1, 320414, Note_on_c, 0, 74, 83
1, 320416, Note_on_c, 0, 65, 78
1, 320417, Note_on_c, 0, 69, 77
1, 320441, Note_off_c, 0, 65, 63
1, 320448, Note_off_c, 0, 69, 62
1, 320463, Note_off_c, 0, 74, 64
1, 320509, Poly_aftertouch_c, 0, 71, 127
1, 320522, Note_on_c, 0, 64, 104
1, 320525, Control_c, 0, 64, 99
1, 320526, Note_on_c, 0, 55, 99
1, 320528, Note_on_c, 0, 52, 92
1, 320529, Note_on_c, 0, 60, 99
1, 320529, Poly_aftertouch_c, 0, 71, 0
1, 320532, Note_on_c, 0, 48, 91
1, 320540, Control_c, 0, 64, 63
1, 320555, Control_c, 0, 64, 0
1, 320584, Note_off_c, 0, 60, 63
1, 320584, Control_c, 0, 64, 50
1, 320585, Note_off_c, 0, 64, 59
1, 320599, Control_c, 0, 64, 84
1, 320614, Note_off_c, 0, 55, 63
1, 320615, Control_c, 0, 64, 127
1, 320625, Note_on_c, 0, 67, 85
1, 320634, Note_on_c, 0, 72, 76
1, 320638, Note_off_c, 0, 52, 63
1, 320641, Note_on_c, 0, 76, 73
1, 320650, Note_off_c, 0, 67, 66
1, 320653, Note_off_c, 0, 48, 61
1, 320674, Note_off_c, 0, 72, 62
1, 320687, Note_off_c, 0, 76, 67
1, 320750, Note_on_c, 0, 76, 101
1, 320802, Note_off_c, 0, 76, 66
1, 320846, Note_on_c, 0, 79, 99
1, 320847, Note_on_c, 0, 88, 101
1, 320848, Note_on_c, 0, 84, 92
1, 320854, Note_on_c, 0, 48, 104
1, 320855, Note_on_c, 0, 36, 92
1, 320896, Note_off_c, 0, 48, 66
1, 320903, Note_off_c, 0, 36, 64
1, 320935, Note_off_c, 0, 88, 62
1, 320946, Note_off_c, 0, 79, 61
1, 320951, Note_on_c, 0, 76, 92
1, 320967, Note_off_c, 0, 84, 65
1, 320989, Note_off_c, 0, 76, 67
1, 321062, Note_on_c, 0, 76, 84
1, 321063, Note_on_c, 0, 72, 87
1, 321071, Note_on_c, 0, 67, 93
1, 321106, Note_off_c, 0, 67, 66
1, 321119, Note_off_c, 0, 72, 63
1, 321125, Note_off_c, 0, 76, 61
1, 321202, Note_on_c, 0, 70, 47
1, 321226, Note_off_c, 0, 70, 59
1, 321269, Note_on_c, 0, 53, 93
1, 321270, Note_on_c, 0, 57, 100
1, 321271, Note_on_c, 0, 48, 100
1, 321273, Note_on_c, 0, 62, 100
1, 321273, Note_on_c, 0, 65, 95
1, 321275, Note_on_c, 0, 74, 98
1, 321278, Note_on_c, 0, 69, 83
1, 321289, Control_c, 0, 64, 83
1, 321304, Control_c, 0, 64, 54
1, 321318, Control_c, 0, 64, 0
1, 321381, Note_off_c, 0, 62, 63
1, 321393, Control_c, 0, 64, 60
1, 321399, Note_off_c, 0, 65, 63
1, 321408, Control_c, 0, 64, 102
1, 321416, Note_off_c, 0, 69, 62
1, 321430, Control_c, 0, 64, 127
1, 321462, Note_off_c, 0, 74, 63
1, 321505, Note_off_c, 0, 57, 60
1, 321534, Note_off_c, 0, 53, 63
1, 321538, Note_off_c, 0, 48, 61
1, 321586, Note_on_c, 0, 71, 68
1, 321727, Note_off_c, 0, 71, 54
1, 321733, Note_on_c, 0, 83, 69
1, 321876, Note_on_c, 0, 57, 52
1, 321876, Note_on_c, 0, 72, 55
1, 321877, Note_on_c, 0, 62, 52
1, 321879, Note_on_c, 0, 53, 57
1, 321925, Note_off_c, 0, 62, 54
1, 321942, Note_off_c, 0, 72, 63
1, 321951, Note_off_c, 0, 83, 30
1, 321954, Note_off_c, 0, 57, 62
1, 321971, Note_on_c, 0, 84, 65
1, 321982, Note_off_c, 0, 53, 61
1, 322015, Note_off_c, 0, 84, 61
1, 322062, Note_on_c, 0, 73, 66
1, 322102, Note_off_c, 0, 73, 54
1, 322120, Note_on_c, 0, 85, 73
1, 322190, Note_off_c, 0, 85, 61
1, 322219, Note_on_c, 0, 74, 75
1, 322233, Note_on_c, 0, 35, 72
1, 322240, Note_on_c, 0, 47, 69
1, 322258, Note_off_c, 0, 74, 59
1, 322260, Note_off_c, 0, 35, 64
1, 322273, Note_off_c, 0, 47, 63
1, 322290, Note_on_c, 0, 86, 74
1, 322330, Note_off_c, 0, 86, 61
1, 322368, Note_on_c, 0, 76, 67
1, 322398, Note_off_c, 0, 76, 65
1, 322424, Note_on_c, 0, 88, 75
1, 322465, Note_off_c, 0, 88, 61
1, 322487, Note_on_c, 0, 65, 74
1, 322489, Note_on_c, 0, 57, 69
1, 322490, Note_on_c, 0, 62, 73
1, 322491, Note_on_c, 0, 77, 80
1, 322492, Poly_aftertouch_c, 0, 58, 127
1, 322501, Note_on_c, 0, 53, 59
1, 322509, Note_off_c, 0, 65, 69
1, 322514, Note_off_c, 0, 62, 67
1, 322535, Note_off_c, 0, 57, 65
1, 322535, Note_off_c, 0, 77, 63
1, 322541, Poly_aftertouch_c, 0, 58, 0
1, 322544, Note_off_c, 0, 53, 64
1, 322546, Note_on_c, 0, 89, 80
1, 322597, Note_off_c, 0, 89, 62
1, 322615, Note_on_c, 0, 79, 75
1, 322662, Note_off_c, 0, 79, 64
1, 322678, Note_on_c, 0, 91, 86
1, 322721, Note_on_c, 0, 45, 102
1, 322722, Note_on_c, 0, 33, 100
1, 322727, Control_c, 0, 64, 107
1, 322730, Note_off_c, 0, 91, 62
1, 322742, Control_c, 0, 64, 73
1, 322744, Note_on_c, 0, 81, 77
1, 322756, Note_off_c, 0, 33, 65
1, 322757, Control_c, 0, 64, 65
1, 322766, Note_off_c, 0, 45, 64
1, 322772, Control_c, 0, 64, 78
1, 322774, Note_on_c, 0, 83, 45
1, 322782, Note_off_c, 0, 81, 67
1, 322786, Control_c, 0, 64, 127
1, 322803, Note_on_c, 0, 93, 91
1, 322803, Note_off_c, 0, 83, 34
1, 322858, Note_off_c, 0, 93, 62
1, 322866, Note_on_c, 0, 83, 78
1, 322903, Note_off_c, 0, 83, 66
1, 322921, Note_on_c, 0, 95, 87
1, 322948, Note_on_c, 0, 57, 78
1, 322951, Note_on_c, 0, 62, 82
1, 322952, Note_on_c, 0, 65, 92
1, 322973, Note_off_c, 0, 95, 67
1, 322974, Note_on_c, 0, 53, 53
1, 322976, Note_off_c, 0, 65, 65
1, 322986, Note_off_c, 0, 62, 64
1, 322994, Note_on_c, 0, 85, 95
1, 323003, Note_off_c, 0, 53, 64
1, 323005, Note_off_c, 0, 57, 64
1, 323050, Note_on_c, 0, 97, 94
1, 323071, Note_off_c, 0, 85, 63
1, 323083, Note_on_c, 0, 86, 85
1, 323119, Note_on_c, 0, 100, 84
1, 323127, Note_off_c, 0, 86, 66
1, 323128, Note_on_c, 0, 54, 27
1, 323135, Note_on_c, 0, 98, 70
1, 323135, Note_off_c, 0, 97, 64
1, 323140, Note_off_c, 0, 100, 72
1, 323156, Note_off_c, 0, 98, 66
1, 323232, Note_off_c, 0, 54, 55
1, 323277, Note_on_c, 0, 62, 101
1, 323279, Note_on_c, 0, 55, 91
1, 323282, Control_c, 0, 64, 65
1, 323283, Note_on_c, 0, 50, 94
1, 323297, Control_c, 0, 64, 0
1, 323356, Control_c, 0, 64, 59
1, 323371, Control_c, 0, 64, 127
1, 323408, Note_off_c, 0, 62, 57
1, 323417, Note_on_c, 0, 67, 90
1, 323420, Note_on_c, 0, 74, 90
1, 323442, Note_off_c, 0, 67, 66
1, 323450, Note_off_c, 0, 55, 61
1, 323466, Note_off_c, 0, 74, 68
1, 323471, Note_off_c, 0, 50, 65
1, 323536, Note_on_c, 0, 74, 97
1, 323596, Note_off_c, 0, 74, 64
1, 323653, Note_on_c, 0, 79, 104
1, 323653, Note_on_c, 0, 86, 104
1, 323657, Note_on_c, 0, 47, 103
1, 323658, Note_on_c, 0, 35, 97
1, 323697, Note_off_c, 0, 35, 65
1, 323709, Note_off_c, 0, 47, 65
1, 323721, Note_off_c, 0, 79, 68
1, 323742, Note_off_c, 0, 86, 60
1, 323757, Note_on_c, 0, 74, 101
1, 323793, Note_off_c, 0, 74, 68
1, 323848, Note_on_c, 0, 74, 92
1, 323857, Note_on_c, 0, 67, 86
1, 323873, Note_off_c, 0, 67, 74
1, 323887, Note_off_c, 0, 74, 66
1, 323927, Control_c, 0, 64, 91
1, 323930, Note_on_c, 0, 55, 91
1, 323930, Note_on_c, 0, 64, 104
1, 323935, Note_on_c, 0, 52, 91
1, 323942, Control_c, 0, 64, 55
1, 323957, Control_c, 0, 64, 0
1, 323974, Note_off_c, 0, 64, 70
1, 323986, Control_c, 0, 64, 58
1, 323995, Note_on_c, 0, 67, 83
1, 324001, Control_c, 0, 64, 127
1, 324003, Note_off_c, 0, 55, 65
1, 324013, Note_off_c, 0, 52, 65
1, 324015, Note_on_c, 0, 65, 58
1, 324015, Note_off_c, 0, 65, 127
1, 324016, Note_off_c, 0, 67, 71
1, 324020, Note_on_c, 0, 76, 70
1, 324022, Note_on_c, 0, 74, 69
1, 324042, Note_off_c, 0, 76, 69
1, 324046, Note_off_c, 0, 74, 67
1, 324097, Note_on_c, 0, 76, 97
1, 324134, Note_off_c, 0, 76, 66
1, 324168, Note_on_c, 0, 35, 97
1, 324169, Note_on_c, 0, 47, 98
1, 324169, Note_on_c, 0, 88, 101
1, 324177, Note_on_c, 0, 79, 99
1, 324177, Note_on_c, 0, 81, 95
1, 324192, Note_off_c, 0, 35, 70
1, 324202, Note_off_c, 0, 47, 65
1, 324211, Note_off_c, 0, 81, 66
1, 324215, Note_on_c, 0, 84, 25
1, 324215, Note_off_c, 0, 84, 127
1, 324215, Note_off_c, 0, 79, 68
1, 324217, Note_off_c, 0, 88, 66
1, 324251, Poly_aftertouch_c, 0, 84, 0
1, 324274, Note_on_c, 0, 76, 52
1, 324277, Note_on_c, 0, 74, 65
1, 324296, Note_off_c, 0, 74, 64
1, 324302, Note_off_c, 0, 76, 55
1, 324332, Note_on_c, 0, 74, 86
1, 324350, Note_on_c, 0, 67, 58
1, 324354, Note_on_c, 0, 69, 55
1, 324363, Note_off_c, 0, 74, 61
1, 324372, Note_off_c, 0, 67, 61
1, 324378, Note_off_c, 0, 69, 61
1, 324408, Note_on_c, 0, 65, 106
1, 324409, Note_on_c, 0, 53, 92
1, 324410, Note_on_c, 0, 55, 88
1, 324413, Note_on_c, 0, 59, 98
1, 324416, Control_c, 0, 64, 78
1, 324438, Control_c, 0, 64, 39
1, 324453, Control_c, 0, 64, 0
1, 324477, Note_off_c, 0, 65, 65
1, 324482, Control_c, 0, 64, 60
1, 324497, Control_c, 0, 64, 127
1, 324500, Note_on_c, 0, 74, 91
1, 324505, Note_on_c, 0, 77, 87
1, 324519, Note_off_c, 0, 59, 61
1, 324531, Note_off_c, 0, 74, 66
1, 324541, Note_on_c, 0, 76, 35
1, 324541, Note_off_c, 0, 76, 127
1, 324542, Note_off_c, 0, 77, 67
1, 324544, Note_off_c, 0, 55, 61
1, 324550, Note_off_c, 0, 53, 64
1, 324603, Note_on_c, 0, 77, 104
1, 324651, Note_off_c, 0, 77, 67
1, 324699, Note_on_c, 0, 86, 98
1, 324699, Note_on_c, 0, 89, 96
1, 324727, Note_on_c, 0, 36, 77
1, 324732, Note_on_c, 0, 47, 77
1, 324735, Note_on_c, 0, 88, 47
1, 324743, Note_on_c, 0, 35, 64
1, 324756, Note_off_c, 0, 36, 64
1, 324756, Note_off_c, 0, 47, 69
1, 324761, Note_off_c, 0, 88, 60
1, 324770, Note_off_c, 0, 35, 58
1, 324774, Note_off_c, 0, 89, 62
1, 324779, Note_off_c, 0, 86, 64
1, 324795, Note_on_c, 0, 77, 100
1, 324830, Note_off_c, 0, 77, 68
1, 324881, Note_on_c, 0, 74, 100
1, 324884, Note_on_c, 0, 77, 96
1, 324899, Note_on_c, 0, 76, 61
1, 324925, Note_off_c, 0, 76, 67
1, 324931, Note_off_c, 0, 74, 67
1, 324934, Note_off_c, 0, 77, 64
1, 324970, Note_on_c, 0, 34, 101
1, 325004, Note_on_c, 0, 33, 50
1, 325044, Note_off_c, 0, 33, 46
1, 325062, Control_c, 0, 64, 97
1, 325077, Control_c, 0, 64, 64
1, 325091, Control_c, 0, 64, 0
1, 325151, Control_c, 0, 64, 64
1, 325166, Control_c, 0, 64, 127
1, 325187, Note_on_c, 0, 46, 102
1, 325225, Note_off_c, 0, 34, 67
1, 325229, Note_off_c, 0, 46, 65
1, 325593, Note_on_c, 0, 62, 85
1, 325593, Note_on_c, 0, 76, 94
1, 325594, Note_on_c, 0, 64, 103
1, 325594, Note_on_c, 0, 67, 95
1, 325595, Note_on_c, 0, 52, 76
1, 325596, Note_on_c, 0, 74, 97
1, 325597, Note_on_c, 0, 55, 81
1, 325630, Note_off_c, 0, 62, 64
1, 325638, Note_off_c, 0, 52, 65
1, 325650, Note_off_c, 0, 55, 63
1, 325783, Note_off_c, 0, 64, 54
1, 325845, Note_off_c, 0, 76, 49
1, 325948, Note_off_c, 0, 74, 46
1, 326014, Note_on_c, 0, 62, 86
1, 326047, Note_off_c, 0, 67, 61
1, 326221, Note_on_c, 0, 74, 79
1, 326237, Note_off_c, 0, 62, 52
1, 326384, Note_on_c, 0, 64, 74
1, 326385, Note_on_c, 0, 62, 51
1, 326386, Note_on_c, 0, 52, 55
1, 326391, Note_on_c, 0, 55, 50
1, 326490, Note_off_c, 0, 62, 61
1, 326503, Note_off_c, 0, 64, 57
1, 326516, Note_on_c, 0, 76, 76
1, 326543, Note_off_c, 0, 55, 62
1, 326559, Note_off_c, 0, 52, 62
1, 326560, Note_off_c, 0, 74, 57
1, 326640, Note_on_c, 0, 65, 67
1, 326723, Note_off_c, 0, 65, 61
1, 326749, Note_on_c, 0, 77, 68
1, 326842, Note_on_c, 0, 33, 64
1, 326846, Note_off_c, 0, 77, 54
1, 326848, Note_on_c, 0, 67, 70
1, 326850, Note_on_c, 0, 45, 68
1, 326872, Note_off_c, 0, 33, 63
1, 326888, Note_off_c, 0, 45, 63
1, 326902, Note_off_c, 0, 67, 60
1, 326934, Note_on_c, 0, 79, 71
1, 326962, Note_off_c, 0, 76, 22
1, 326964, Note_off_c, 0, 79, 62
1, 327009, Note_on_c, 0, 69, 68
1, 327040, Note_off_c, 0, 69, 64
1, 327088, Note_on_c, 0, 81, 37
1, 327118, Note_off_c, 0, 81, 55
1, 327125, Poly_aftertouch_c, 0, 79, 127
1, 327129, Note_on_c, 0, 52, 66
1, 327129, Note_on_c, 0, 62, 58
1, 327132, Note_on_c, 0, 70, 75
1, 327143, Note_on_c, 0, 57, 41
1, 327152, Note_off_c, 0, 62, 62
1, 327157, Poly_aftertouch_c, 0, 79, 0
1, 327163, Note_off_c, 0, 70, 60
1, 327165, Note_off_c, 0, 52, 63
1, 327172, Note_off_c, 0, 57, 52
1, 327191, Note_on_c, 0, 82, 82
1, 327237, Note_on_c, 0, 80, 29
1, 327247, Note_off_c, 0, 82, 59
1, 327253, Note_on_c, 0, 71, 76
1, 327271, Note_off_c, 0, 80, 45
1, 327299, Note_off_c, 0, 71, 60
1, 327310, Note_on_c, 0, 83, 88
1, 327353, Note_off_c, 0, 83, 63
1, 327378, Note_on_c, 0, 73, 84
1, 327379, Note_on_c, 0, 31, 50
1, 327382, Note_on_c, 0, 43, 57
1, 327408, Note_off_c, 0, 43, 56
1, 327414, Note_off_c, 0, 31, 52
1, 327426, Note_off_c, 0, 73, 60
1, 327429, Note_on_c, 0, 85, 96
1, 327439, Note_on_c, 0, 45, 3
1, 327452, Poly_aftertouch_c, 0, 33, 127
1, 327469, Note_off_c, 0, 45, 37
1, 327493, Note_off_c, 0, 85, 58
1, 327495, Poly_aftertouch_c, 0, 33, 0
1, 327496, Note_on_c, 0, 74, 91
1, 327540, Note_off_c, 0, 74, 63
1, 327546, Note_on_c, 0, 86, 92
1, 327596, Note_off_c, 0, 86, 60
1, 327601, Note_on_c, 0, 76, 93
1, 327613, Note_on_c, 0, 58, 61
1, 327629, Note_on_c, 0, 64, 51
1, 327640, Note_off_c, 0, 58, 65
1, 327644, Note_on_c, 0, 62, 31
1, 327645, Note_off_c, 0, 76, 66
1, 327655, Note_off_c, 0, 64, 59
1, 327677, Note_on_c, 0, 88, 74
1, 327683, Note_off_c, 0, 62, 54
1, 327686, Note_on_c, 0, 89, 72
1, 327694, Note_off_c, 0, 88, 67
1, 327717, Note_on_c, 0, 77, 90
1, 327723, Note_off_c, 0, 89, 0
1, 327758, Note_off_c, 0, 77, 68
1, 327761, Poly_aftertouch_c, 0, 89, 0
1, 327805, Poly_aftertouch_c, 0, 55, 127
1, 327844, Poly_aftertouch_c, 0, 55, 0
1, 327855, Note_on_c, 0, 61, 97
1, 327857, Note_on_c, 0, 64, 99
1, 327859, Note_on_c, 0, 55, 58
1, 327869, Note_on_c, 0, 52, 74
1, 327880, Control_c, 0, 64, 93
1, 327895, Control_c, 0, 64, 58
1, 327910, Control_c, 0, 64, 0
1, 327934, Note_off_c, 0, 64, 56
1, 327954, Control_c, 0, 64, 48
1, 327967, Note_off_c, 0, 61, 64
1, 327969, Control_c, 0, 64, 86
1, 327983, Note_off_c, 0, 55, 62
1, 327984, Control_c, 0, 64, 127
1, 327985, Note_on_c, 0, 73, 80
1, 327991, Note_on_c, 0, 76, 77
1, 328005, Note_off_c, 0, 52, 62
1, 328007, Note_on_c, 0, 67, 46
1, 328020, Note_off_c, 0, 76, 65
1, 328024, Note_off_c, 0, 73, 60
1, 328035, Note_off_c, 0, 67, 56
1, 328103, Note_on_c, 0, 76, 84
1, 328148, Note_off_c, 0, 76, 62
1, 328195, Note_on_c, 0, 88, 98
1, 328195, Note_on_c, 0, 85, 93
1, 328201, Note_on_c, 0, 79, 95
1, 328201, Note_on_c, 0, 33, 86
1, 328201, Note_on_c, 0, 45, 92
1, 328225, Note_off_c, 0, 33, 65
1, 328238, Note_off_c, 0, 45, 64
1, 328239, Note_off_c, 0, 79, 69
1, 328239, Note_off_c, 0, 88, 66
1, 328251, Note_off_c, 0, 85, 67
1, 328300, Note_on_c, 0, 74, 85
1, 328319, Note_off_c, 0, 74, 73
1, 328383, Note_on_c, 0, 76, 57
1, 328388, Note_on_c, 0, 67, 67
1, 328407, Note_off_c, 0, 67, 66
1, 328418, Note_off_c, 0, 76, 65
1, 328427, Note_on_c, 0, 56, 27
1, 328465, Note_on_c, 0, 61, 93
1, 328465, Control_c, 0, 64, 73
1, 328467, Note_on_c, 0, 65, 94
1, 328468, Note_off_c, 0, 56, 41
1, 328470, Note_on_c, 0, 53, 80
1, 328472, Note_on_c, 0, 57, 81
1, 328480, Control_c, 0, 64, 0
1, 328503, Note_off_c, 0, 65, 65
1, 328510, Control_c, 0, 64, 46
1, 328520, Note_off_c, 0, 61, 65
1, 328524, Control_c, 0, 64, 74
1, 328533, Note_on_c, 0, 69, 85
1, 328539, Control_c, 0, 64, 127
1, 328540, Note_on_c, 0, 73, 74
1, 328540, Note_off_c, 0, 57, 64
1, 328545, Note_on_c, 0, 77, 72
1, 328554, Note_off_c, 0, 69, 67
1, 328560, Note_off_c, 0, 53, 63
1, 328572, Note_off_c, 0, 73, 62
1, 328586, Note_off_c, 0, 77, 65
1, 328640, Note_on_c, 0, 77, 89
1, 328675, Note_off_c, 0, 77, 67
1, 328713, Note_on_c, 0, 45, 100
1, 328714, Note_on_c, 0, 85, 104
1, 328714, Note_on_c, 0, 89, 102
1, 328715, Note_on_c, 0, 33, 95
1, 328716, Note_on_c, 0, 81, 103
1, 328738, Note_off_c, 0, 33, 68
1, 328749, Note_off_c, 0, 45, 65
1, 328750, Note_off_c, 0, 89, 63
1, 328751, Note_off_c, 0, 81, 67
1, 328769, Note_off_c, 0, 85, 58
1, 328822, Note_on_c, 0, 76, 60
1, 328833, Note_on_c, 0, 77, 22
1, 328842, Note_off_c, 0, 76, 61
1, 328874, Note_on_c, 0, 73, 77
1, 328895, Note_off_c, 0, 73, 71
1, 328942, Note_off_c, 0, 77, 51
1, 328974, Note_on_c, 0, 57, 54
1, 328979, Note_on_c, 0, 67, 96
1, 328982, Note_on_c, 0, 55, 87
1, 328982, Note_on_c, 0, 61, 89
1, 328992, Control_c, 0, 64, 91
1, 329006, Control_c, 0, 64, 58
1, 329021, Control_c, 0, 64, 0
1, 329051, Control_c, 0, 64, 38
1, 329063, Note_on_c, 0, 76, 75
1, 329065, Note_off_c, 0, 67, 60
1, 329066, Control_c, 0, 64, 68
1, 329069, Note_on_c, 0, 73, 61
1, 329079, Note_on_c, 0, 79, 63
1, 329081, Control_c, 0, 64, 127
1, 329089, Note_off_c, 0, 61, 62
1, 329096, Note_off_c, 0, 73, 67
1, 329110, Note_off_c, 0, 57, 64
1, 329110, Note_off_c, 0, 76, 63
1, 329115, Note_off_c, 0, 79, 64
1, 329119, Note_off_c, 0, 55, 64
1, 329194, Note_on_c, 0, 79, 74
1, 329266, Note_off_c, 0, 79, 61
1, 329322, Note_on_c, 0, 91, 80
1, 329324, Note_on_c, 0, 88, 81
1, 329325, Note_on_c, 0, 85, 87
1, 329331, Note_on_c, 0, 33, 78
1, 329336, Note_on_c, 0, 45, 73
1, 329358, Note_off_c, 0, 33, 64
1, 329376, Note_off_c, 0, 45, 62
1, 329395, Note_off_c, 0, 91, 60
1, 329417, Note_off_c, 0, 88, 63
1, 329431, Note_on_c, 0, 79, 79
1, 329431, Note_off_c, 0, 85, 61
1, 329456, Note_off_c, 0, 79, 63
1, 329549, Note_on_c, 0, 79, 64
1, 329551, Note_on_c, 0, 76, 66
1, 329552, Note_on_c, 0, 73, 68
1, 329576, Note_off_c, 0, 76, 69
1, 329579, Note_off_c, 0, 73, 68
1, 329588, Note_off_c, 0, 79, 59
1, 329680, Note_on_c, 0, 65, 76
1, 329682, Note_on_c, 0, 60, 64
1, 329689, Note_on_c, 0, 56, 66
1, 329695, Note_on_c, 0, 53, 65
1, 329696, Control_c, 0, 64, 76
1, 329711, Control_c, 0, 64, 0
1, 329764, Note_on_c, 0, 77, 74
1, 329770, Control_c, 0, 64, 58
1, 329785, Control_c, 0, 64, 88
1, 329798, Note_off_c, 0, 65, 62
1, 329800, Control_c, 0, 64, 127
1, 329814, Note_off_c, 0, 60, 64
1, 329819, Note_off_c, 0, 77, 65
1, 329830, Note_off_c, 0, 56, 64
1, 329832, Note_off_c, 0, 53, 63
1, 329862, Poly_aftertouch_c, 0, 72, 0
1, 329903, Note_on_c, 0, 77, 58
1, 329915, Note_on_c, 0, 79, 52
1, 329937, Note_off_c, 0, 79, 62
1, 329945, Note_off_c, 0, 77, 61
1, 330015, Note_on_c, 0, 89, 77
1, 330018, Note_on_c, 0, 84, 81
1, 330021, Note_on_c, 0, 56, 87
1, 330023, Note_on_c, 0, 44, 84
1, 330052, Note_off_c, 0, 44, 67
1, 330054, Note_off_c, 0, 56, 63
1, 330078, Note_off_c, 0, 84, 65
1, 330081, Note_off_c, 0, 89, 60
1, 330112, Note_on_c, 0, 77, 85
1, 330146, Note_off_c, 0, 77, 61
1, 330214, Note_on_c, 0, 77, 78
1, 330225, Note_on_c, 0, 72, 75
1, 330245, Note_off_c, 0, 72, 69
1, 330258, Note_off_c, 0, 77, 61
1, 330291, Note_on_c, 0, 64, 93
1, 330294, Note_on_c, 0, 67, 93
1, 330299, Note_on_c, 0, 60, 74
1, 330305, Note_on_c, 0, 55, 74
1, 330305, Control_c, 0, 64, 78
1, 330319, Control_c, 0, 64, 47
1, 330334, Control_c, 0, 64, 0
1, 330341, Note_off_c, 0, 67, 66
1, 330349, Control_c, 0, 64, 34
1, 330354, Note_off_c, 0, 64, 65
1, 330361, Note_on_c, 0, 72, 83
1, 330364, Control_c, 0, 64, 62
1, 330369, Note_on_c, 0, 79, 70
1, 330369, Note_on_c, 0, 76, 73
1, 330375, Note_off_c, 0, 60, 66
1, 330379, Control_c, 0, 64, 106
1, 330384, Note_off_c, 0, 72, 65
1, 330391, Note_off_c, 0, 55, 62
1, 330392, Note_off_c, 0, 76, 69
1, 330393, Control_c, 0, 64, 127
1, 330410, Note_off_c, 0, 79, 65
1, 330473, Note_on_c, 0, 79, 84
1, 330511, Note_off_c, 0, 79, 66
1, 330543, Note_on_c, 0, 43, 86
1, 330545, Note_on_c, 0, 55, 87
1, 330547, Note_on_c, 0, 91, 96
1, 330549, Note_on_c, 0, 88, 97
1, 330550, Note_on_c, 0, 84, 99
1, 330577, Note_off_c, 0, 43, 64
1, 330584, Note_off_c, 0, 55, 65
1, 330595, Note_on_c, 0, 87, 21
1, 330595, Note_off_c, 0, 87, 127
1, 330595, Note_off_c, 0, 91, 64
1, 330604, Note_off_c, 0, 84, 65
1, 330620, Note_off_c, 0, 88, 64
1, 330625, Note_on_c, 0, 79, 86
1, 330640, Poly_aftertouch_c, 0, 87, 0
1, 330661, Note_off_c, 0, 79, 64
1, 330714, Note_on_c, 0, 79, 72
1, 330716, Note_on_c, 0, 76, 74
1, 330721, Note_on_c, 0, 72, 78
1, 330744, Note_off_c, 0, 72, 68
1, 330744, Note_off_c, 0, 76, 63
1, 330763, Note_off_c, 0, 79, 61
1, 330780, Note_on_c, 0, 60, 72
1, 330780, Note_on_c, 0, 63, 99
1, 330780, Note_on_c, 0, 69, 101
1, 330784, Note_on_c, 0, 57, 84
1, 330786, Control_c, 0, 64, 78
1, 330801, Control_c, 0, 64, 40
1, 330816, Control_c, 0, 64, 0
1, 330820, Note_off_c, 0, 69, 66
1, 330831, Control_c, 0, 64, 31
1, 330839, Note_off_c, 0, 63, 67
1, 330841, Note_on_c, 0, 72, 74
1, 330845, Control_c, 0, 64, 63
1, 330847, Note_on_c, 0, 75, 70
1, 330851, Note_on_c, 0, 81, 64
1, 330852, Note_off_c, 0, 60, 65
1, 330858, Note_off_c, 0, 57, 66
1, 330860, Control_c, 0, 64, 127
1, 330863, Note_off_c, 0, 72, 69
1, 330878, Note_off_c, 0, 75, 66
1, 330899, Note_off_c, 0, 81, 66
1, 330949, Note_on_c, 0, 81, 73
1, 330959, Note_on_c, 0, 83, 70
1, 330973, Note_off_c, 0, 81, 70
1, 330980, Note_off_c, 0, 83, 67
1, 331008, Note_on_c, 0, 84, 97
1, 331008, Note_on_c, 0, 93, 104
1, 331010, Note_on_c, 0, 54, 91
1, 331012, Note_on_c, 0, 87, 88
1, 331012, Note_off_c, 0, 87, 127
1, 331013, Note_on_c, 0, 42, 82
1, 331022, Note_on_c, 0, 89, 60
1, 331022, Note_off_c, 0, 89, 127
1, 331025, Note_on_c, 0, 91, 61
1, 331026, Note_on_c, 0, 86, 79
1, 331027, Note_off_c, 0, 54, 71
1, 331041, Note_off_c, 0, 42, 66
1, 331041, Poly_aftertouch_c, 0, 89, 0
1, 331045, Note_off_c, 0, 86, 73
1, 331048, Note_off_c, 0, 93, 63
1, 331054, Note_off_c, 0, 84, 65
1, 331054, Note_off_c, 0, 91, 54
1, 331070, Note_on_c, 0, 88, 14
1, 331070, Note_off_c, 0, 88, 127
1, 331081, Note_on_c, 0, 79, 85
1, 331103, Note_off_c, 0, 79, 67
1, 331174, Note_on_c, 0, 75, 87
1, 331174, Note_off_c, 0, 75, 127
1, 331189, Note_on_c, 0, 72, 58
1, 331191, Note_on_c, 0, 77, 52
1, 331197, Note_on_c, 0, 81, 42
1, 331198, Note_on_c, 0, 74, 52
1, 331208, Note_off_c, 0, 72, 63
1, 331214, Note_off_c, 0, 77, 59
1, 331221, Note_off_c, 0, 81, 58
1, 331222, Note_off_c, 0, 74, 57
1, 331239, Note_on_c, 0, 71, 107
1, 331240, Note_on_c, 0, 62, 89
1, 331242, Note_on_c, 0, 65, 90
1, 331244, Note_on_c, 0, 59, 89
1, 331254, Control_c, 0, 64, 83
1, 331269, Control_c, 0, 64, 44
1, 331284, Control_c, 0, 64, 0
1, 331286, Note_off_c, 0, 71, 67
1, 331289, Note_on_c, 0, 64, 31
1, 331293, Note_on_c, 0, 74, 95
1, 331299, Note_on_c, 0, 79, 80
1, 331304, Note_on_c, 0, 83, 67
1, 331307, Note_off_c, 0, 65, 67
1, 331313, Control_c, 0, 64, 56
1, 331321, Note_off_c, 0, 62, 64
1, 331325, Note_off_c, 0, 64, 31
1, 331328, Note_off_c, 0, 74, 66
1, 331328, Control_c, 0, 64, 127
1, 331333, Note_off_c, 0, 59, 66
1, 331343, Note_off_c, 0, 79, 66
1, 331352, Note_off_c, 0, 83, 66
1, 331403, Note_on_c, 0, 83, 93
1, 331444, Note_off_c, 0, 83, 65
1, 331475, Note_on_c, 0, 95, 101
1, 331475, Note_on_c, 0, 91, 103
1, 331477, Note_on_c, 0, 86, 105
1, 331481, Note_on_c, 0, 53, 91
1, 331483, Note_on_c, 0, 40, 93
1, 331487, Note_on_c, 0, 52, 87
1, 331498, Note_on_c, 0, 90, 60
1, 331498, Note_off_c, 0, 90, 127
1, 331507, Note_off_c, 0, 40, 69
1, 331510, Note_off_c, 0, 52, 70
1, 331512, Note_off_c, 0, 53, 64
1, 331519, Note_off_c, 0, 95, 67
1, 331523, Note_off_c, 0, 86, 71
1, 331531, Note_on_c, 0, 41, 24
1, 331533, Note_off_c, 0, 91, 65
1, 331570, Note_off_c, 0, 41, 43
1, 331579, Note_on_c, 0, 81, 70
1, 331599, Note_off_c, 0, 81, 66
1, 331638, Note_on_c, 0, 79, 85
1, 331641, Note_on_c, 0, 83, 79
1, 331647, Note_on_c, 0, 74, 89
1, 331653, Note_on_c, 0, 63, 54
1, 331662, Note_on_c, 0, 66, 49
1, 331664, Note_off_c, 0, 74, 73
1, 331669, Note_on_c, 0, 81, 43
1, 331684, Note_off_c, 0, 79, 66
1, 331687, Note_off_c, 0, 83, 62
1, 331693, Note_off_c, 0, 66, 65
1, 331695, Note_off_c, 0, 81, 40
1, 331697, Note_off_c, 0, 63, 46
1, 331728, Control_c, 0, 64, 97
1, 331729, Note_on_c, 0, 72, 101
1, 331730, Note_on_c, 0, 60, 85
1, 331732, Note_on_c, 0, 64, 89
1, 331732, Note_on_c, 0, 67, 98
1, 331742, Control_c, 0, 64, 50
1, 331757, Control_c, 0, 64, 0
1, 331760, Note_on_c, 0, 68, 41
1, 331760, Note_off_c, 0, 68, 127
1, 331765, Note_off_c, 0, 72, 69
1, 331772, Control_c, 0, 64, 34
1, 331787, Note_off_c, 0, 67, 64
1, 331787, Control_c, 0, 64, 66
1, 331802, Control_c, 0, 64, 127
1, 331805, Note_on_c, 0, 76, 91
1, 331808, Note_on_c, 0, 79, 83
1, 331811, Note_off_c, 0, 64, 65
1, 331812, Note_on_c, 0, 84, 87
1, 331826, Note_off_c, 0, 76, 68
1, 331837, Note_off_c, 0, 60, 62
1, 331840, Note_on_c, 0, 81, 33
1, 331840, Note_off_c, 0, 79, 66
1, 331857, Note_off_c, 0, 84, 70
1, 331871, Note_off_c, 0, 81, 32
1, 331908, Note_on_c, 0, 84, 98
1, 331960, Note_off_c, 0, 84, 67
1, 331999, Note_on_c, 0, 96, 105
1, 332000, Note_on_c, 0, 52, 103
1, 332002, Note_on_c, 0, 91, 106
1, 332002, Note_on_c, 0, 88, 106
1, 332003, Note_on_c, 0, 40, 97
1, 332012, Note_on_c, 0, 93, 79
1, 332034, Note_off_c, 0, 52, 68
1, 332035, Note_off_c, 0, 40, 66
1, 332039, Note_off_c, 0, 93, 64
1, 332050, Note_off_c, 0, 91, 66
1, 332054, Note_off_c, 0, 88, 66
1, 332058, Note_off_c, 0, 96, 65
1, 332097, Note_on_c, 0, 84, 87
1, 332115, Note_off_c, 0, 84, 73
1, 332178, Note_on_c, 0, 84, 88
1, 332179, Note_on_c, 0, 79, 78
1, 332181, Note_on_c, 0, 76, 88
1, 332202, Note_off_c, 0, 76, 67
1, 332204, Note_on_c, 0, 81, 39
1, 332211, Note_off_c, 0, 79, 62
1, 332229, Note_off_c, 0, 84, 65
1, 332236, Note_off_c, 0, 81, 65
1, 332255, Note_on_c, 0, 71, 105
1, 332260, Note_on_c, 0, 74, 107
1, 332265, Note_on_c, 0, 65, 83
1, 332269, Note_on_c, 0, 62, 87
1, 332269, Control_c, 0, 64, 72
1, 332272, Note_on_c, 0, 67, 80
1, 332272, Poly_aftertouch_c, 0, 66, 127
1, 332284, Control_c, 0, 64, 0
1, 332300, Note_off_c, 0, 74, 72
1, 332313, Control_c, 0, 64, 53
1, 332318, Note_off_c, 0, 71, 66
1, 332328, Control_c, 0, 64, 85
1, 332334, Note_on_c, 0, 77, 95
1, 332341, Note_on_c, 0, 83, 89
1, 332343, Control_c, 0, 64, 127
1, 332347, Note_on_c, 0, 86, 82
1, 332347, Note_off_c, 0, 65, 63
1, 332348, Note_off_c, 0, 67, 65
1, 332358, Note_off_c, 0, 77, 65
1, 332359, Poly_aftertouch_c, 0, 66, 0
1, 332363, Note_off_c, 0, 62, 65
1, 332378, Note_off_c, 0, 83, 66
1, 332385, Note_off_c, 0, 86, 69
1, 332445, Note_on_c, 0, 86, 100
1, 332505, Note_off_c, 0, 86, 66
1, 332557, Note_on_c, 0, 89, 110
1, 332559, Note_on_c, 0, 98, 103
1, 332559, Note_on_c, 0, 95, 100
1, 332561, Note_on_c, 0, 50, 96
1, 332563, Note_on_c, 0, 38, 95
1, 332588, Note_on_c, 0, 88, 55
1, 332605, Note_off_c, 0, 38, 66
1, 332608, Note_off_c, 0, 88, 63
1, 332614, Note_off_c, 0, 50, 66
1, 332636, Note_off_c, 0, 98, 64
1, 332665, Note_on_c, 0, 86, 97
1, 332669, Note_off_c, 0, 89, 59
1, 332682, Note_off_c, 0, 95, 65
1, 332699, Note_off_c, 0, 86, 69
1, 332772, Note_on_c, 0, 83, 97
1, 332774, Note_on_c, 0, 77, 105
1, 332775, Note_on_c, 0, 86, 89
1, 332808, Note_off_c, 0, 77, 68
1, 332822, Note_off_c, 0, 83, 66
1, 332828, Note_off_c, 0, 86, 65
1, 332899, Control_c, 0, 64, 95
1, 332914, Control_c, 0, 64, 55
1, 332922, Note_on_c, 0, 67, 97
1, 332923, Note_on_c, 0, 72, 104
1, 332923, Note_on_c, 0, 64, 87
1, 332925, Note_on_c, 0, 60, 86
1, 332926, Note_on_c, 0, 79, 100
1, 332927, Note_on_c, 0, 76, 110
1, 332927, Note_on_c, 0, 84, 97
1, 332928, Note_on_c, 0, 88, 92
1, 332929, Control_c, 0, 64, 0
1, 332959, Control_c, 0, 64, 60
1, 332969, Note_on_c, 0, 65, 43
1, 332974, Control_c, 0, 64, 127
1, 332980, Note_off_c, 0, 72, 68
1, 332988, Note_off_c, 0, 76, 60
1, 332994, Note_off_c, 0, 88, 67
1, 332998, Note_off_c, 0, 65, 55
1, 332999, Note_off_c, 0, 67, 67
1, 333008, Note_off_c, 0, 79, 68
1, 333013, Note_off_c, 0, 84, 67
1, 333016, Note_off_c, 0, 64, 68
1, 333020, Note_off_c, 0, 60, 65
1, 333258, Note_on_c, 0, 36, 64
1, 333258, Note_on_c, 0, 72, 81
1, 333264, Note_on_c, 0, 64, 76
1, 333266, Note_on_c, 0, 67, 74
1, 333285, Note_off_c, 0, 67, 72
1, 333289, Note_off_c, 0, 64, 67
1, 333305, Note_off_c, 0, 36, 59
1, 333309, Note_off_c, 0, 72, 64
1, 333334, Note_on_c, 0, 48, 75
1, 333362, Note_off_c, 0, 48, 64
1, 333431, Note_on_c, 0, 48, 84
1, 333507, Note_on_c, 0, 52, 69
1, 333525, Note_on_c, 0, 55, 89
1, 333526, Note_off_c, 0, 48, 60
1, 333528, Note_on_c, 0, 60, 96
1, 333532, Note_on_c, 0, 67, 90
1, 333534, Note_on_c, 0, 64, 89
1, 333535, Note_on_c, 0, 72, 86
1, 333535, Note_on_c, 0, 76, 92
1, 333549, Note_off_c, 0, 67, 74
1, 333551, Note_off_c, 0, 64, 75
1, 333558, Note_off_c, 0, 60, 66
1, 333569, Note_off_c, 0, 72, 61
1, 333575, Note_off_c, 0, 55, 63
1, 333576, Note_off_c, 0, 76, 67
1, 333595, Note_off_c, 0, 52, 61
1, 333612, Note_on_c, 0, 48, 82
1, 333644, Note_off_c, 0, 48, 63
1, 333687, Note_on_c, 0, 48, 95
1, 333736, Note_off_c, 0, 48, 62
1, 333781, Note_on_c, 0, 36, 95
1, 333784, Note_on_c, 0, 72, 96
1, 333786, Note_on_c, 0, 67, 95
1, 333790, Note_on_c, 0, 76, 88
1, 333791, Note_on_c, 0, 79, 89
1, 333805, Note_off_c, 0, 67, 73
1, 333811, Note_off_c, 0, 72, 65
1, 333822, Note_off_c, 0, 36, 62
1, 333825, Note_off_c, 0, 76, 62
1, 333829, Note_off_c, 0, 79, 67
1, 333871, Note_on_c, 0, 48, 70
1, 333899, Note_off_c, 0, 48, 65
1, 333966, Note_on_c, 0, 52, 84
1, 334037, Note_on_c, 0, 55, 70
1, 334040, Note_on_c, 0, 84, 90
1, 334042, Note_on_c, 0, 76, 96
1, 334043, Note_on_c, 0, 72, 106
1, 334045, Note_on_c, 0, 79, 85
1, 334047, Note_on_c, 0, 60, 88
1, 334050, Note_on_c, 0, 64, 97
1, 334056, Note_on_c, 0, 81, 76
1, 334057, Note_off_c, 0, 52, 58
1, 334059, Note_on_c, 0, 61, 68
1, 334068, Note_off_c, 0, 72, 71
1, 334071, Note_off_c, 0, 84, 68
1, 334075, Note_off_c, 0, 76, 69
1, 334075, Note_off_c, 0, 79, 63
1, 334077, Note_off_c, 0, 81, 72
1, 334082, Note_off_c, 0, 61, 39
1, 334093, Note_off_c, 0, 64, 68
1, 334123, Note_off_c, 0, 60, 60
1, 334144, Note_on_c, 0, 52, 98
1, 334171, Note_off_c, 0, 55, 55
1, 334179, Note_off_c, 0, 52, 67
1, 334254, Note_on_c, 0, 48, 96
1, 334310, Note_off_c, 0, 48, 63
1, 334348, Note_on_c, 0, 67, 103
1, 334351, Note_on_c, 0, 64, 99
1, 334351, Note_on_c, 0, 60, 98
1, 334352, Note_on_c, 0, 36, 98
1, 334372, Note_off_c, 0, 60, 65
1, 334384, Note_off_c, 0, 64, 68
1, 334395, Note_off_c, 0, 67, 67
1, 334399, Note_off_c, 0, 36, 64
1, 334447, Note_on_c, 0, 48, 104
1, 334461, Poly_aftertouch_c, 0, 66, 0
1, 334482, Note_off_c, 0, 48, 64
1, 334968, Note_on_c, 0, 42, 112
1, 334971, Note_on_c, 0, 30, 102
1, 334983, Control_c, 0, 64, 99
1, 334998, Control_c, 0, 64, 70
1, 335009, Note_on_c, 0, 32, 49
1, 335013, Control_c, 0, 64, 50
1, 335028, Control_c, 0, 64, 34
1, 335043, Control_c, 0, 64, 0
1, 335052, Note_off_c, 0, 32, 46
1, 335117, Control_c, 0, 64, 67
1, 335132, Control_c, 0, 64, 127
1, 335216, Note_off_c, 0, 30, 62
1, 335227, Note_off_c, 0, 42, 62
1, 335598, Note_on_c, 0, 80, 98
1, 335600, Note_on_c, 0, 92, 99
1, 335601, Note_on_c, 0, 84, 98
1, 335603, Note_on_c, 0, 68, 98
1, 335603, Note_on_c, 0, 87, 89
1, 335603, Note_on_c, 0, 72, 99
1, 335618, Note_on_c, 0, 63, 66
1, 335618, Note_on_c, 0, 60, 65
1, 335626, Note_off_c, 0, 72, 64
1, 335627, Note_on_c, 0, 83, 69
1, 335627, Note_off_c, 0, 83, 127
1, 335634, Note_off_c, 0, 68, 69
1, 335643, Note_off_c, 0, 63, 64
1, 335646, Note_on_c, 0, 88, 47
1, 335648, Note_off_c, 0, 60, 66
1, 335680, Note_off_c, 0, 88, 58
1, 335946, Note_off_c, 0, 92, 56
1, 335979, Note_off_c, 0, 84, 61
1, 335992, Note_off_c, 0, 87, 60
1, 335996, Note_off_c, 0, 80, 61
1, 336043, Note_on_c, 0, 42, 102
1, 336046, Note_on_c, 0, 30, 89
1, 336068, Note_off_c, 0, 30, 65
1, 336072, Note_off_c, 0, 42, 66
1, 336317, Note_on_c, 0, 72, 102
1, 336317, Note_on_c, 0, 75, 108
1, 336318, Note_on_c, 0, 84, 96
1, 336322, Note_on_c, 0, 80, 93
1, 336325, Note_on_c, 0, 63, 99
1, 336327, Note_on_c, 0, 60, 80
1, 336328, Note_on_c, 0, 51, 76
1, 336332, Note_on_c, 0, 56, 73
1, 336360, Note_off_c, 0, 72, 66
1, 336364, Note_off_c, 0, 63, 66
1, 336376, Note_off_c, 0, 84, 61
1, 336379, Note_off_c, 0, 60, 65
1, 336419, Note_off_c, 0, 56, 61
1, 336421, Note_off_c, 0, 75, 63
1, 336425, Note_off_c, 0, 80, 67
1, 336436, Note_off_c, 0, 51, 60
1, 336694, Note_on_c, 0, 30, 91
1, 336694, Note_on_c, 0, 42, 102
1, 336733, Note_off_c, 0, 30, 65
1, 336740, Note_off_c, 0, 42, 64
1, 336876, Note_on_c, 0, 85, 5
1, 336926, Note_off_c, 0, 85, 29
1, 337010, Note_on_c, 0, 60, 94
1, 337011, Note_on_c, 0, 86, 95
1, 337013, Note_on_c, 0, 62, 98
1, 337013, Note_on_c, 0, 74, 104
1, 337015, Note_on_c, 0, 80, 95
1, 337016, Note_on_c, 0, 56, 86
1, 337016, Note_on_c, 0, 84, 87
1, 337022, Note_on_c, 0, 50, 79
1, 337043, Control_c, 0, 64, 103
1, 337058, Control_c, 0, 64, 69
1, 337073, Control_c, 0, 64, 45
1, 337087, Control_c, 0, 64, 34
1, 337102, Control_c, 0, 64, 53
1, 337117, Control_c, 0, 64, 72
1, 337123, Note_off_c, 0, 62, 60
1, 337131, Control_c, 0, 64, 127
1, 337165, Note_off_c, 0, 60, 61
1, 337219, Note_off_c, 0, 56, 61
1, 337222, Note_off_c, 0, 50, 62
1, 337237, Note_off_c, 0, 74, 53
1, 337261, Note_off_c, 0, 86, 57
1, 337442, Note_on_c, 0, 30, 90
1, 337442, Note_on_c, 0, 42, 97
1, 337454, Note_off_c, 0, 84, 51
1, 337487, Note_off_c, 0, 30, 65
1, 337489, Note_off_c, 0, 42, 65
1, 337490, Note_off_c, 0, 80, 54
1, 337932, Note_on_c, 0, 84, 89
1, 337934, Note_on_c, 0, 88, 96
1, 337935, Note_on_c, 0, 79, 84
1, 337936, Note_on_c, 0, 60, 91
1, 337936, Note_on_c, 0, 64, 98
1, 337936, Note_on_c, 0, 76, 95
1, 337945, Note_on_c, 0, 52, 83
1, 337945, Note_on_c, 0, 55, 80
1, 337962, Control_c, 0, 64, 76
1, 337977, Control_c, 0, 64, 42
1, 337992, Control_c, 0, 64, 0
1, 338066, Control_c, 0, 64, 61
1, 338081, Control_c, 0, 64, 91
1, 338092, Note_off_c, 0, 76, 64
1, 338096, Note_off_c, 0, 64, 62
1, 338096, Control_c, 0, 64, 127
1, 338138, Note_off_c, 0, 52, 59
1, 338152, Note_off_c, 0, 60, 63
1, 338155, Note_on_c, 0, 82, 62
1, 338155, Note_off_c, 0, 79, 63
1, 338158, Note_off_c, 0, 88, 62
1, 338170, Note_off_c, 0, 55, 60
1, 338178, Note_off_c, 0, 84, 66
1, 338181, Note_off_c, 0, 82, 68
1, 338683, Note_on_c, 0, 91, 96
1, 338688, Note_on_c, 0, 79, 94
1, 338688, Note_on_c, 0, 31, 95
1, 338690, Note_on_c, 0, 43, 94
1, 338864, Note_off_c, 0, 31, 61
1, 338891, Note_off_c, 0, 43, 58
1, 338922, Note_off_c, 0, 79, 57
1, 338930, Note_off_c, 0, 91, 59
1, 339257, Note_on_c, 0, 90, 94
1, 339261, Note_on_c, 0, 78, 100
1, 339261, Note_on_c, 0, 57, 98
1, 339263, Note_on_c, 0, 45, 94
1, 339304, Control_c, 0, 64, 81
1, 339319, Control_c, 0, 64, 64
1, 339333, Control_c, 0, 64, 58
1, 339348, Control_c, 0, 64, 63
1, 339363, Control_c, 0, 64, 77
1, 339378, Control_c, 0, 64, 127
1, 339425, Note_off_c, 0, 45, 63
1, 339464, Note_off_c, 0, 57, 62
1, 339469, Note_off_c, 0, 78, 54
1, 339513, Note_off_c, 0, 90, 50
1, 339599, Note_on_c, 0, 55, 98
1, 339600, Note_on_c, 0, 59, 103
1, 339600, Note_on_c, 0, 89, 96
1, 339603, Note_on_c, 0, 47, 89
1, 339603, Note_on_c, 0, 86, 84
1, 339604, Note_on_c, 0, 77, 102
1, 339622, Control_c, 0, 64, 82
1, 339637, Control_c, 0, 64, 68
1, 339667, Control_c, 0, 64, 82
1, 339681, Control_c, 0, 64, 127
1, 339723, Note_off_c, 0, 89, 61
1, 339724, Note_off_c, 0, 47, 62
1, 339734, Note_off_c, 0, 59, 59
1, 339737, Note_off_c, 0, 77, 61
1, 339772, Note_off_c, 0, 86, 63
1, 339786, Control_c, 0, 64, 101
1, 339801, Control_c, 0, 64, 81
1, 339816, Control_c, 0, 64, 80
1, 339826, Note_on_c, 0, 60, 96
1, 339827, Note_on_c, 0, 88, 90
1, 339830, Note_on_c, 0, 48, 92
1, 339830, Control_c, 0, 64, 107
1, 339833, Note_on_c, 0, 76, 98
1, 339845, Control_c, 0, 64, 127
1, 339931, Note_off_c, 0, 48, 62
1, 339945, Note_off_c, 0, 60, 62
1, 339947, Note_off_c, 0, 88, 64
1, 339951, Note_off_c, 0, 76, 64
1, 339954, Note_off_c, 0, 55, 61
1, 339964, Control_c, 0, 64, 95
1, 339979, Control_c, 0, 64, 80
1, 339994, Control_c, 0, 64, 80
1, 340009, Control_c, 0, 64, 123
1, 340019, Note_on_c, 0, 50, 96
1, 340019, Note_on_c, 0, 62, 99
1, 340022, Note_on_c, 0, 86, 101
1, 340023, Control_c, 0, 64, 127
1, 340024, Note_on_c, 0, 74, 102
1, 340104, Note_off_c, 0, 50, 60
1, 340113, Note_off_c, 0, 74, 60
1, 340113, Note_off_c, 0, 86, 62
1, 340115, Note_off_c, 0, 62, 62
1, 340164, Control_c, 0, 64, 120
1, 340179, Control_c, 0, 64, 77
1, 340194, Control_c, 0, 64, 59
1, 340197, Note_on_c, 0, 60, 96
1, 340197, Note_on_c, 0, 64, 99
1, 340198, Note_on_c, 0, 84, 98
1, 340202, Note_on_c, 0, 72, 98
1, 340205, Note_on_c, 0, 79, 83
1, 340205, Note_on_c, 0, 52, 76
1, 340208, Note_on_c, 0, 55, 74
1, 340208, Control_c, 0, 64, 56
1, 340223, Control_c, 0, 64, 75
1, 340238, Control_c, 0, 64, 127
1, 340281, Note_off_c, 0, 64, 59
1, 340287, Note_off_c, 0, 84, 64
1, 340291, Note_off_c, 0, 52, 57
1, 340291, Note_off_c, 0, 72, 61
1, 340292, Note_off_c, 0, 60, 59
1, 340307, Note_off_c, 0, 55, 60
1, 340307, Note_off_c, 0, 79, 64
1, 340342, Control_c, 0, 64, 84
1, 340356, Control_c, 0, 64, 68
1, 340360, Note_on_c, 0, 62, 100
1, 340363, Note_on_c, 0, 50, 89
1, 340364, Note_on_c, 0, 83, 100
1, 340370, Note_on_c, 0, 71, 99
1, 340371, Control_c, 0, 64, 68
1, 340386, Control_c, 0, 64, 101
1, 340401, Control_c, 0, 64, 127
1, 340428, Note_off_c, 0, 50, 60
1, 340437, Note_off_c, 0, 71, 61
1, 340438, Note_off_c, 0, 83, 64
1, 340444, Note_off_c, 0, 62, 58
1, 340476, Control_c, 0, 64, 104
1, 340491, Control_c, 0, 64, 77
1, 340505, Control_c, 0, 64, 68
1, 340513, Note_on_c, 0, 52, 92
1, 340515, Note_on_c, 0, 81, 98
1, 340515, Note_on_c, 0, 64, 99
1, 340519, Note_on_c, 0, 69, 99
1, 340520, Control_c, 0, 64, 87
1, 340535, Control_c, 0, 64, 127
1, 340571, Note_off_c, 0, 52, 58
1, 340571, Note_off_c, 0, 69, 64
1, 340581, Note_off_c, 0, 64, 62
1, 340592, Note_off_c, 0, 81, 61
1, 340654, Control_c, 0, 64, 79
1, 340669, Control_c, 0, 64, 53
1, 340676, Note_on_c, 0, 65, 97
1, 340676, Note_on_c, 0, 53, 84
1, 340681, Note_on_c, 0, 55, 84
1, 340682, Note_on_c, 0, 77, 92
1, 340682, Note_on_c, 0, 83, 99
1, 340684, Note_on_c, 0, 59, 77
1, 340684, Control_c, 0, 64, 0
1, 340685, Note_on_c, 0, 71, 104
1, 340699, Control_c, 0, 64, 54
1, 340705, Note_off_c, 0, 65, 70
1, 340714, Control_c, 0, 64, 95
1, 340716, Note_on_c, 0, 60, 41
1, 340716, Note_off_c, 0, 60, 127
1, 340719, Note_on_c, 0, 79, 30
1, 340722, Note_off_c, 0, 59, 65
1, 340728, Control_c, 0, 64, 127
1, 340740, Note_off_c, 0, 71, 62
1, 340749, Note_off_c, 0, 55, 63
1, 340750, Note_off_c, 0, 83, 63
1, 340751, Note_off_c, 0, 53, 61
1, 340754, Note_off_c, 0, 79, 54
1, 340766, Note_off_c, 0, 77, 64
1, 340824, Note_on_c, 0, 81, 101
1, 340828, Note_on_c, 0, 69, 101
1, 340879, Note_off_c, 0, 69, 64
1, 340885, Note_off_c, 0, 81, 62
1, 340928, Control_c, 0, 64, 85
1, 340943, Control_c, 0, 64, 60
1, 340956, Note_on_c, 0, 31, 80
1, 340957, Note_on_c, 0, 43, 94
1, 340958, Control_c, 0, 64, 61
1, 340963, Note_on_c, 0, 79, 89
1, 340963, Note_on_c, 0, 67, 100
1, 340973, Control_c, 0, 64, 82
1, 340974, Note_on_c, 0, 81, 71
1, 340974, Note_off_c, 0, 81, 127
1, 340987, Control_c, 0, 64, 127
1, 341001, Note_off_c, 0, 43, 64
1, 341002, Note_off_c, 0, 31, 63
1, 341008, Note_off_c, 0, 67, 68
1, 341016, Note_off_c, 0, 79, 66
1, 341079, Note_on_c, 0, 81, 80
1, 341085, Note_on_c, 0, 69, 93
1, 341124, Note_off_c, 0, 69, 66
1, 341130, Note_off_c, 0, 81, 66
1, 341195, Control_c, 0, 64, 105
1, 341207, Note_on_c, 0, 57, 95
1, 341210, Control_c, 0, 64, 70
1, 341210, Note_on_c, 0, 83, 104
1, 341212, Note_on_c, 0, 71, 111
1, 341213, Note_on_c, 0, 45, 90
1, 341216, Note_on_c, 0, 79, 85
1, 341225, Control_c, 0, 64, 57
1, 341231, Note_on_c, 0, 81, 56
1, 341240, Control_c, 0, 64, 69
1, 341253, Note_off_c, 0, 71, 67
1, 341253, Note_off_c, 0, 81, 56
1, 341254, Note_off_c, 0, 57, 65
1, 341254, Control_c, 0, 64, 127
1, 341267, Note_off_c, 0, 83, 59
1, 341272, Note_off_c, 0, 79, 61
1, 341294, Note_off_c, 0, 45, 62
1, 341302, Poly_aftertouch_c, 0, 47, 127
1, 341327, Poly_aftertouch_c, 0, 47, 0
1, 341362, Note_on_c, 0, 84, 99
1, 341364, Note_on_c, 0, 72, 110
1, 341398, Note_on_c, 0, 83, 40
1, 341410, Note_off_c, 0, 72, 68
1, 341420, Note_off_c, 0, 84, 65
1, 341427, Note_off_c, 0, 83, 56
1, 341463, Control_c, 0, 64, 121
1, 341477, Control_c, 0, 64, 80
1, 341492, Control_c, 0, 64, 71
1, 341503, Note_on_c, 0, 86, 103
1, 341505, Note_on_c, 0, 31, 87
1, 341505, Note_on_c, 0, 74, 107
1, 341506, Note_on_c, 0, 43, 89
1, 341507, Control_c, 0, 64, 88
1, 341518, Poly_aftertouch_c, 0, 34, 0
1, 341521, Control_c, 0, 64, 127
1, 341548, Note_off_c, 0, 31, 65
1, 341548, Note_off_c, 0, 74, 69
1, 341551, Note_off_c, 0, 43, 63
1, 341559, Note_off_c, 0, 86, 65
1, 341657, Note_on_c, 0, 88, 99
1, 341660, Note_on_c, 0, 76, 100
1, 341679, Note_on_c, 0, 86, 50
1, 341696, Note_off_c, 0, 76, 67
1, 341702, Note_off_c, 0, 86, 60
1, 341704, Note_off_c, 0, 88, 66
1, 341800, Note_on_c, 0, 85, 31
1, 341834, Note_on_c, 0, 59, 103
1, 341835, Note_off_c, 0, 85, 42
1, 341836, Note_on_c, 0, 47, 87
1, 341840, Control_c, 0, 64, 76
1, 341842, Note_on_c, 0, 77, 108
1, 341843, Note_on_c, 0, 89, 101
1, 341849, Note_on_c, 0, 86, 83
1, 341855, Control_c, 0, 64, 49
1, 341869, Note_on_c, 0, 88, 63
1, 341870, Control_c, 0, 64, 48
1, 341884, Control_c, 0, 64, 64
1, 341885, Note_off_c, 0, 59, 66
1, 341886, Note_off_c, 0, 88, 65
1, 341887, Note_off_c, 0, 77, 68
1, 341899, Control_c, 0, 64, 90
1, 341908, Note_off_c, 0, 89, 63
1, 341914, Control_c, 0, 64, 127
1, 341917, Note_off_c, 0, 47, 63
1, 341922, Note_off_c, 0, 86, 65
1, 342026, Note_on_c, 0, 91, 99
1, 342029, Note_on_c, 0, 79, 98
1, 342066, Note_off_c, 0, 79, 67
1, 342083, Note_off_c, 0, 91, 61
1, 342252, Note_on_c, 0, 31, 88
1, 342253, Note_on_c, 0, 81, 100
1, 342253, Note_on_c, 0, 93, 103
1, 342254, Note_on_c, 0, 89, 95
1, 342255, Note_on_c, 0, 43, 98
1, 342275, Note_on_c, 0, 90, 34
1, 342291, Note_on_c, 0, 91, 53
1, 342298, Note_off_c, 0, 43, 65
1, 342305, Note_off_c, 0, 31, 64
1, 342313, Note_off_c, 0, 90, 30
1, 342315, Note_off_c, 0, 91, 54
1, 342319, Note_off_c, 0, 81, 59
1, 342349, Poly_aftertouch_c, 0, 35, 0
1, 342362, Note_off_c, 0, 93, 63
1, 342382, Poly_aftertouch_c, 0, 35, 0
1, 342546, Note_on_c, 0, 95, 108
1, 342548, Note_on_c, 0, 83, 107
1, 342593, Note_off_c, 0, 89, 62
1, 342620, Note_off_c, 0, 83, 55
1, 342637, Note_off_c, 0, 95, 63
1, 342807, Note_on_c, 0, 87, 52
1, 342829, Note_off_c, 0, 87, 61
1, 343043, Note_on_c, 0, 96, 101
1, 343046, Note_on_c, 0, 84, 109
1, 343049, Note_on_c, 0, 36, 95
1, 343051, Note_on_c, 0, 88, 98
1, 343052, Note_on_c, 0, 24, 97
1, 343094, Control_c, 0, 64, 78
1, 343109, Control_c, 0, 64, 53
1, 343123, Control_c, 0, 64, 0
1, 343189, Control_c, 0, 64, 38
1, 343204, Control_c, 0, 64, 55
1, 343219, Control_c, 0, 64, 70
1, 343234, Control_c, 0, 64, 105
1, 343249, Control_c, 0, 64, 127
1, 343281, Note_off_c, 0, 84, 60
1, 343294, Note_off_c, 0, 96, 64
1, 343306, Note_off_c, 0, 24, 63
1, 343326, Note_off_c, 0, 88, 67
1, 343365, Note_off_c, 0, 36, 63
1, 343714, Note_on_c, 0, 52, 51
1, 343809, Note_on_c, 0, 55, 51
1, 343908, Note_off_c, 0, 52, 35
1, 343932, Note_on_c, 0, 60, 50
1, 343944, Note_off_c, 0, 55, 54
1, 343980, Note_off_c, 0, 60, 65
1, 344071, Note_on_c, 0, 64, 51
1, 344113, Note_off_c, 0, 64, 66
1, 344158, Note_on_c, 0, 67, 51
1, 344239, Note_off_c, 0, 67, 58
1, 344248, Note_on_c, 0, 72, 56
1, 344346, Note_on_c, 0, 76, 53
1, 344377, Note_off_c, 0, 72, 58
1, 344382, Note_off_c, 0, 76, 59
1, 344424, Note_on_c, 0, 48, 52
1, 344487, Note_off_c, 0, 48, 53
1, 344503, Note_on_c, 0, 52, 42
1, 344557, Note_off_c, 0, 52, 56
1, 344581, Note_on_c, 0, 55, 44
1, 344592, Control_c, 0, 67, 41
1, 344607, Control_c, 0, 67, 54
1, 344621, Control_c, 0, 67, 65
1, 344626, Note_off_c, 0, 55, 60
1, 344644, Control_c, 0, 67, 79
1, 344659, Control_c, 0, 67, 95
1, 344665, Note_on_c, 0, 60, 51
1, 344674, Control_c, 0, 67, 114
1, 344689, Control_c, 0, 67, 127
1, 344701, Note_off_c, 0, 60, 65
1, 344778, Note_on_c, 0, 64, 51
1, 344871, Note_off_c, 0, 64, 55
1, 344889, Note_on_c, 0, 67, 45
1, 344978, Note_off_c, 0, 67, 57
1, 344999, Note_on_c, 0, 72, 47
1, 345098, Note_on_c, 0, 76, 47
1, 345142, Note_off_c, 0, 72, 57
1, 345154, Note_off_c, 0, 76, 58
1, 345225, Note_on_c, 0, 48, 40
1, 345276, Note_off_c, 0, 48, 56
1, 345291, Note_on_c, 0, 52, 46
1, 345352, Note_off_c, 0, 52, 55
1, 345393, Note_on_c, 0, 55, 42
1, 345435, Note_off_c, 0, 55, 60
1, 345474, Note_on_c, 0, 60, 45
1, 345510, Note_off_c, 0, 60, 65
1, 345608, Note_on_c, 0, 64, 49
1, 345703, Note_off_c, 0, 64, 61
1, 345749, Note_on_c, 0, 67, 50
1, 345853, Note_off_c, 0, 67, 55
1, 345891, Note_on_c, 0, 72, 44
1, 346019, Note_on_c, 0, 76, 57
1, 346035, Note_off_c, 0, 72, 52
1, 346072, Note_off_c, 0, 76, 64
1, 346533, Note_on_c, 0, 64, 85
1, 346630, Note_on_c, 0, 45, 38
1, 346659, Control_c, 0, 64, 119
1, 346674, Control_c, 0, 64, 96
1, 346689, Control_c, 0, 64, 84
1, 346704, Control_c, 0, 64, 74
1, 346718, Control_c, 0, 64, 65
1, 346733, Control_c, 0, 64, 56
1, 346748, Control_c, 0, 64, 44
1, 346763, Control_c, 0, 64, 0
1, 346881, Control_c, 0, 64, 42
1, 346883, Note_on_c, 0, 52, 42
1, 346896, Note_off_c, 0, 45, 54
1, 346904, Control_c, 0, 64, 57
1, 346918, Control_c, 0, 64, 67
1, 346933, Control_c, 0, 64, 73
1, 346948, Control_c, 0, 64, 77
1, 346963, Control_c, 0, 64, 82
1, 346978, Control_c, 0, 64, 89
1, 346993, Control_c, 0, 64, 98
1, 347008, Control_c, 0, 64, 114
1, 347014, Note_off_c, 0, 52, 56
1, 347023, Control_c, 0, 64, 127
1, 347041, Note_on_c, 0, 57, 43
1, 347069, Note_off_c, 0, 57, 59
1, 347129, Note_on_c, 0, 60, 32
1, 347164, Note_off_c, 0, 60, 55
1, 347200, Note_on_c, 0, 69, 54
1, 347231, Note_off_c, 0, 64, 55
1, 347273, Note_off_c, 0, 69, 57
1, 347290, Note_on_c, 0, 72, 50
1, 347342, Note_on_c, 0, 76, 69
1, 347376, Note_off_c, 0, 72, 59
1, 347437, Note_on_c, 0, 67, 85
1, 347438, Note_off_c, 0, 76, 59
1, 347438, Control_c, 0, 64, 94
1, 347453, Control_c, 0, 64, 66
1, 347467, Control_c, 0, 64, 50
1, 347469, Note_on_c, 0, 52, 50
1, 347482, Control_c, 0, 64, 43
1, 347497, Control_c, 0, 64, 48
1, 347512, Control_c, 0, 64, 60
1, 347525, Note_off_c, 0, 52, 55
1, 347527, Control_c, 0, 64, 71
1, 347541, Control_c, 0, 64, 84
1, 347556, Control_c, 0, 64, 106
1, 347557, Note_on_c, 0, 55, 57
1, 347571, Control_c, 0, 64, 127
1, 347609, Note_off_c, 0, 55, 57
1, 347642, Note_on_c, 0, 60, 45
1, 347671, Note_off_c, 0, 60, 61
1, 347708, Note_on_c, 0, 64, 48
1, 347735, Note_off_c, 0, 64, 58
1, 347792, Note_on_c, 0, 72, 58
1, 347825, Note_off_c, 0, 67, 54
1, 347895, Note_on_c, 0, 76, 61
1, 347902, Note_off_c, 0, 72, 53
1, 347965, Note_on_c, 0, 79, 59
1, 347972, Note_off_c, 0, 76, 63
1, 347992, Note_off_c, 0, 79, 68
1, 348117, Note_on_c, 0, 62, 70
1, 348123, Note_on_c, 0, 43, 51
1, 348128, Control_c, 0, 64, 81
1, 348143, Control_c, 0, 64, 62
1, 348158, Control_c, 0, 64, 46
1, 348172, Control_c, 0, 64, 42
1, 348187, Control_c, 0, 64, 46
1, 348189, Note_off_c, 0, 43, 57
1, 348202, Control_c, 0, 64, 56
1, 348217, Control_c, 0, 64, 65
1, 348221, Note_on_c, 0, 50, 49
1, 348231, Control_c, 0, 64, 74
1, 348246, Control_c, 0, 64, 86
1, 348261, Control_c, 0, 64, 103
1, 348276, Control_c, 0, 64, 127
1, 348279, Note_off_c, 0, 50, 61
1, 348320, Note_on_c, 0, 55, 37
1, 348355, Note_off_c, 0, 55, 53
1, 348394, Note_on_c, 0, 59, 49
1, 348421, Note_off_c, 0, 59, 56
1, 348463, Note_on_c, 0, 67, 51
1, 348490, Note_off_c, 0, 62, 54
1, 348564, Note_on_c, 0, 71, 52
1, 348610, Note_off_c, 0, 67, 36
1, 348639, Note_on_c, 0, 74, 54
1, 348649, Note_off_c, 0, 71, 61
1, 348661, Note_off_c, 0, 74, 58
1, 348969, Note_on_c, 0, 64, 57
1, 348979, Control_c, 0, 64, 85
1, 348988, Note_on_c, 0, 60, 41
1, 348992, Note_on_c, 0, 55, 34
1, 348993, Control_c, 0, 64, 59
1, 349002, Note_on_c, 0, 36, 35
1, 349008, Control_c, 0, 64, 35
1, 349023, Control_c, 0, 64, 0
1, 349048, Note_off_c, 0, 60, 0
1, 349048, Note_on_c, 0, 60, 22
1, 349068, Control_c, 0, 64, 37
1, 349083, Control_c, 0, 64, 51
1, 349098, Control_c, 0, 64, 64
1, 349112, Control_c, 0, 64, 74
1, 349127, Control_c, 0, 64, 89
1, 349142, Note_off_c, 0, 55, 44
1, 349149, Control_c, 0, 64, 127
1, 349170, Note_off_c, 0, 60, 64
1, 349190, Note_off_c, 0, 36, 40
1, 349198, Note_off_c, 0, 64, 65
1, 349437, Note_on_c, 0, 64, 45
1, 349476, Note_on_c, 0, 67, 53
1, 349479, Note_off_c, 0, 64, 63
1, 349511, Note_off_c, 0, 67, 64
1, 349527, Note_on_c, 0, 72, 61
1, 349549, Note_on_c, 0, 60, 34
1, 349554, Note_off_c, 0, 72, 66
1, 349599, Note_off_c, 0, 60, 52
1, 349676, Note_on_c, 0, 55, 40
1, 349735, Note_on_c, 0, 64, 47
1, 349759, Note_off_c, 0, 55, 55
1, 349768, Note_on_c, 0, 67, 58
1, 349771, Note_off_c, 0, 64, 64
1, 349784, Note_on_c, 0, 52, 42
1, 349798, Note_off_c, 0, 67, 65
1, 349804, Note_on_c, 0, 72, 66
1, 349813, Note_on_c, 0, 76, 68
1, 349829, Note_off_c, 0, 72, 66
1, 349842, Note_off_c, 0, 76, 65
1, 349973, Note_on_c, 0, 55, 37
1, 349976, Note_off_c, 0, 52, 48
1, 350019, Note_on_c, 0, 67, 54
1, 350034, Note_off_c, 0, 55, 54
1, 350042, Note_on_c, 0, 72, 56
1, 350045, Note_off_c, 0, 67, 67
1, 350078, Note_on_c, 0, 76, 62
1, 350081, Note_off_c, 0, 72, 63
1, 350088, Note_on_c, 0, 60, 40
1, 350099, Note_on_c, 0, 79, 63
1, 350104, Note_off_c, 0, 76, 67
1, 350130, Note_off_c, 0, 79, 65
1, 350148, Note_off_c, 0, 60, 41
1, 350215, Note_on_c, 0, 55, 32
1, 350300, Note_off_c, 0, 55, 39
1, 350303, Note_on_c, 0, 72, 46
1, 350331, Note_on_c, 0, 52, 36
1, 350335, Note_off_c, 0, 72, 62
1, 350348, Note_on_c, 0, 76, 45
1, 350367, Note_on_c, 0, 79, 55
1, 350372, Note_off_c, 0, 76, 58
1, 350394, Note_off_c, 0, 79, 66
1, 350401, Note_on_c, 0, 84, 48
1, 350423, Note_off_c, 0, 84, 60
1, 350499, Note_on_c, 0, 55, 29
1, 350525, Note_off_c, 0, 52, 40
1, 350627, Note_on_c, 0, 76, 30
1, 350641, Note_off_c, 0, 55, 35
1, 350643, Note_on_c, 0, 60, 36
1, 350662, Note_on_c, 0, 79, 46
1, 350671, Note_off_c, 0, 76, 51
1, 350713, Note_off_c, 0, 79, 55
1, 350719, Note_on_c, 0, 84, 61
1, 350761, Note_on_c, 0, 88, 60
1, 350793, Note_off_c, 0, 84, 63
1, 350794, Note_off_c, 0, 88, 66
1, 350862, Note_on_c, 0, 55, 41
1, 350889, Note_off_c, 0, 60, 35
1, 350990, Note_off_c, 0, 55, 52
1, 351003, Note_on_c, 0, 52, 14
1, 351052, Note_off_c, 0, 52, 51
1, 351274, Note_on_c, 0, 64, 83
1, 351300, Control_c, 0, 64, 96
1, 351303, Note_on_c, 0, 60, 50
1, 351306, Note_on_c, 0, 45, 56
1, 351315, Control_c, 0, 64, 69
1, 351330, Control_c, 0, 64, 51
1, 351345, Control_c, 0, 64, 40
1, 351360, Control_c, 0, 64, 44
1, 351375, Control_c, 0, 64, 55
1, 351396, Control_c, 0, 64, 67
1, 351411, Control_c, 0, 64, 80
1, 351423, Note_off_c, 0, 45, 61
1, 351426, Control_c, 0, 64, 98
1, 351441, Control_c, 0, 64, 127
1, 351446, Note_off_c, 0, 60, 57
1, 351461, Note_on_c, 0, 52, 48
1, 351479, Note_off_c, 0, 64, 65
1, 351535, Note_off_c, 0, 52, 59
1, 351544, Note_on_c, 0, 57, 61
1, 351580, Note_off_c, 0, 57, 65
1, 351618, Note_on_c, 0, 60, 54
1, 351640, Note_off_c, 0, 60, 61
1, 351697, Note_on_c, 0, 64, 33
1, 351703, Note_on_c, 0, 69, 63
1, 351738, Note_off_c, 0, 64, 54
1, 351799, Note_on_c, 0, 72, 65
1, 351807, Note_off_c, 0, 69, 56
1, 351829, Note_off_c, 0, 72, 61
1, 352097, Note_on_c, 0, 67, 71
1, 352123, Control_c, 0, 64, 95
1, 352141, Note_on_c, 0, 40, 43
1, 352145, Control_c, 0, 64, 66
1, 352147, Note_on_c, 0, 48, 50
1, 352160, Control_c, 0, 64, 38
1, 352163, Note_on_c, 0, 60, 28
1, 352175, Control_c, 0, 64, 0
1, 352195, Poly_aftertouch_c, 0, 55, 127
1, 352205, Control_c, 0, 64, 35
1, 352219, Control_c, 0, 64, 53
1, 352234, Control_c, 0, 64, 66
1, 352235, Note_off_c, 0, 40, 49
1, 352247, Poly_aftertouch_c, 0, 55, 0
1, 352249, Control_c, 0, 64, 76
1, 352263, Control_c, 0, 64, 85
1, 352276, Note_off_c, 0, 48, 61
1, 352278, Control_c, 0, 64, 93
1, 352287, Note_on_c, 0, 52, 59
1, 352293, Control_c, 0, 64, 114
1, 352308, Control_c, 0, 64, 127
1, 352324, Note_off_c, 0, 60, 52
1, 352327, Note_off_c, 0, 52, 62
1, 352359, Note_off_c, 0, 67, 62
1, 352442, Note_on_c, 0, 55, 36
1, 352478, Note_off_c, 0, 55, 51
1, 352511, Note_on_c, 0, 60, 54
1, 352540, Note_off_c, 0, 60, 66
1, 352590, Note_on_c, 0, 67, 55
1, 352642, Note_off_c, 0, 67, 58
1, 352675, Note_on_c, 0, 72, 46
1, 352740, Note_on_c, 0, 76, 62
1, 352759, Note_off_c, 0, 72, 59
1, 352768, Note_off_c, 0, 76, 66
1, 353011, Note_on_c, 0, 62, 56
1, 353028, Note_on_c, 0, 43, 44
1, 353035, Note_on_c, 0, 59, 42
1, 353056, Control_c, 0, 64, 105
1, 353068, Note_on_c, 0, 55, 12
1, 353071, Control_c, 0, 64, 78
1, 353086, Control_c, 0, 64, 58
1, 353101, Control_c, 0, 64, 42
1, 353116, Control_c, 0, 64, 36
1, 353131, Control_c, 0, 64, 35
1, 353146, Control_c, 0, 64, 38
1, 353160, Control_c, 0, 64, 50
1, 353163, Note_off_c, 0, 43, 59
1, 353175, Control_c, 0, 64, 65
1, 353190, Control_c, 0, 64, 73
1, 353193, Note_on_c, 0, 50, 40
1, 353204, Control_c, 0, 64, 78
1, 353219, Control_c, 0, 64, 84
1, 353234, Control_c, 0, 64, 93
1, 353249, Control_c, 0, 64, 117
1, 353256, Note_off_c, 0, 55, 41
1, 353264, Control_c, 0, 64, 127
1, 353269, Note_off_c, 0, 59, 61
1, 353291, Note_off_c, 0, 50, 59
1, 353316, Note_off_c, 0, 62, 62
1, 353327, Note_on_c, 0, 55, 33
1, 353382, Note_off_c, 0, 55, 49
1, 353424, Note_on_c, 0, 59, 49
1, 353461, Note_off_c, 0, 59, 63
1, 353554, Note_on_c, 0, 67, 43
1, 353682, Note_on_c, 0, 71, 40
1, 353792, Note_on_c, 0, 74, 58
1, 353821, Note_off_c, 0, 71, 54
1, 353825, Note_off_c, 0, 67, 42
1, 353831, Note_off_c, 0, 74, 58
1, 354156, Note_on_c, 0, 64, 46
1, 354183, Note_on_c, 0, 36, 34
1, 354194, Note_on_c, 0, 60, 31
1, 354220, Note_on_c, 0, 55, 3
1, 354222, Control_c, 0, 64, 98
1, 354237, Control_c, 0, 64, 72
1, 354251, Control_c, 0, 64, 53
1, 354266, Control_c, 0, 64, 35
1, 354281, Control_c, 0, 64, 32
1, 354296, Control_c, 0, 64, 34
1, 354311, Control_c, 0, 64, 44
1, 354325, Control_c, 0, 64, 58
1, 354340, Control_c, 0, 64, 68
1, 354355, Control_c, 0, 64, 77
1, 354370, Control_c, 0, 64, 95
1, 354392, Control_c, 0, 64, 127
1, 354421, Note_off_c, 0, 55, 41
1, 354429, Note_off_c, 0, 36, 40
1, 354448, Note_off_c, 0, 60, 54
1, 354473, Note_off_c, 0, 64, 64
1, 354685, Note_on_c, 0, 64, 40
1, 354714, Note_off_c, 0, 64, 60
1, 354722, Note_on_c, 0, 67, 50
1, 354755, Note_on_c, 0, 60, 31
1, 354770, Note_on_c, 0, 72, 55
1, 354770, Note_off_c, 0, 67, 59
1, 354800, Note_on_c, 0, 76, 58
1, 354818, Note_off_c, 0, 72, 56
1, 354836, Note_off_c, 0, 76, 63
1, 354872, Note_off_c, 0, 60, 36
1, 354924, Note_on_c, 0, 55, 44
1, 355011, Note_off_c, 0, 55, 54
1, 355045, Note_on_c, 0, 52, 32
1, 355059, Control_c, 0, 67, 113
1, 355073, Note_on_c, 0, 67, 49
1, 355074, Control_c, 0, 67, 95
1, 355089, Control_c, 0, 67, 91
1, 355104, Control_c, 0, 67, 92
1, 355111, Note_on_c, 0, 72, 58
1, 355111, Note_off_c, 0, 67, 63
1, 355119, Control_c, 0, 67, 103
1, 355141, Control_c, 0, 67, 110
1, 355152, Note_on_c, 0, 76, 64
1, 355154, Note_off_c, 0, 72, 63
1, 355155, Control_c, 0, 67, 113
1, 355170, Control_c, 0, 67, 116
1, 355176, Note_on_c, 0, 79, 58
1, 355178, Note_off_c, 0, 76, 67
1, 355185, Control_c, 0, 67, 127
1, 355203, Note_off_c, 0, 79, 66
1, 355259, Note_on_c, 0, 55, 42
1, 355264, Note_off_c, 0, 52, 40
1, 355333, Note_off_c, 0, 55, 53
1, 355366, Note_on_c, 0, 60, 37
1, 355372, Note_on_c, 0, 72, 50
1, 355390, Note_on_c, 0, 76, 58
1, 355394, Note_off_c, 0, 72, 60
1, 355431, Note_off_c, 0, 76, 61
1, 355433, Note_on_c, 0, 79, 50
1, 355447, Note_on_c, 0, 84, 75
1, 355455, Note_off_c, 0, 79, 63
1, 355480, Note_off_c, 0, 84, 64
1, 355510, Note_on_c, 0, 55, 42
1, 355510, Note_off_c, 0, 60, 37
1, 355629, Note_off_c, 0, 55, 53
1, 355664, Note_on_c, 0, 52, 39
1, 355701, Note_on_c, 0, 79, 51
1, 355736, Note_on_c, 0, 84, 66
1, 355736, Note_off_c, 0, 79, 65
1, 355759, Note_on_c, 0, 88, 62
1, 355765, Note_off_c, 0, 84, 66
1, 355785, Note_off_c, 0, 88, 65
1, 355843, Note_off_c, 0, 52, 47
1, 355849, Note_on_c, 0, 55, 34
1, 355944, Note_off_c, 0, 55, 47
1, 355978, Note_on_c, 0, 60, 39
1, 355981, Note_on_c, 0, 79, 37
1, 356013, Note_on_c, 0, 84, 56
1, 356038, Note_off_c, 0, 79, 45
1, 356061, Note_on_c, 0, 88, 57
1, 356097, Note_off_c, 0, 84, 52
1, 356100, Note_on_c, 0, 91, 70
1, 356123, Note_off_c, 0, 88, 64
1, 356133, Note_off_c, 0, 91, 66
1, 356228, Note_on_c, 0, 55, 43
1, 356296, Note_off_c, 0, 60, 35
1, 356386, Note_on_c, 0, 52, 44
1, 356395, Note_off_c, 0, 55, 59
1, 356420, Note_off_c, 0, 52, 62
1, 356671, Note_on_c, 0, 76, 70
1, 356707, Note_on_c, 0, 72, 48
1, 356729, Note_on_c, 0, 45, 42
1, 356757, Control_c, 0, 64, 105
1, 356772, Control_c, 0, 64, 79
1, 356786, Poly_aftertouch_c, 0, 64, 127
1, 356787, Control_c, 0, 64, 61
1, 356797, Poly_aftertouch_c, 0, 69, 127
1, 356802, Control_c, 0, 64, 41
1, 356816, Control_c, 0, 64, 0
1, 356875, Control_c, 0, 64, 46
1, 356890, Control_c, 0, 64, 63
1, 356893, Note_off_c, 0, 45, 58
1, 356905, Control_c, 0, 64, 77
1, 356911, Note_on_c, 0, 52, 33
1, 356920, Control_c, 0, 64, 91
1, 356934, Control_c, 0, 64, 103
1, 356949, Control_c, 0, 64, 119
1, 356964, Control_c, 0, 64, 127
1, 356996, Poly_aftertouch_c, 0, 64, 0
1, 356997, Note_off_c, 0, 52, 60
1, 357013, Note_on_c, 0, 57, 51
1, 357024, Poly_aftertouch_c, 0, 69, 0
1, 357055, Note_off_c, 0, 57, 59
1, 357060, Note_off_c, 0, 72, 53
1, 357068, Control_c, 0, 67, 112
1, 357083, Control_c, 0, 67, 64
1, 357095, Note_on_c, 0, 60, 48
1, 357098, Control_c, 0, 67, 0
1, 357120, Note_off_c, 0, 60, 61
1, 357142, Note_off_c, 0, 76, 52
1, 357159, Note_on_c, 0, 64, 63
1, 357238, Note_off_c, 0, 64, 58
1, 357242, Note_on_c, 0, 69, 53
1, 357310, Note_on_c, 0, 72, 68
1, 357316, Note_off_c, 0, 69, 60
1, 357319, Control_c, 0, 67, 42
1, 357334, Control_c, 0, 67, 58
1, 357350, Control_c, 0, 67, 65
1, 357365, Control_c, 0, 67, 68
1, 357387, Control_c, 0, 67, 81
1, 357399, Note_on_c, 0, 76, 69
1, 357402, Control_c, 0, 67, 100
1, 357414, Note_off_c, 0, 72, 56
1, 357417, Control_c, 0, 67, 115
1, 357432, Control_c, 0, 67, 119
1, 357450, Note_off_c, 0, 76, 60
1, 357462, Control_c, 0, 67, 122
1, 357476, Control_c, 0, 67, 126
1, 357548, Note_on_c, 0, 77, 73
1, 357578, Note_on_c, 0, 53, 51
1, 357595, Control_c, 0, 64, 81
1, 357596, Note_on_c, 0, 68, 31
1, 357598, Note_on_c, 0, 73, 32
1, 357610, Control_c, 0, 64, 60
1, 357624, Control_c, 0, 64, 37
1, 357638, Note_off_c, 0, 68, 47
1, 357639, Control_c, 0, 64, 0
1, 357669, Control_c, 0, 64, 38
1, 357683, Control_c, 0, 64, 56
1, 357698, Control_c, 0, 64, 69
1, 357703, Note_on_c, 0, 56, 55
1, 357713, Control_c, 0, 64, 83
1, 357728, Control_c, 0, 64, 101
1, 357736, Note_off_c, 0, 53, 58
1, 357743, Control_c, 0, 64, 127
1, 357781, Note_off_c, 0, 56, 62
1, 357787, Control_c, 0, 67, 119
1, 357788, Note_on_c, 0, 61, 59
1, 357802, Control_c, 0, 67, 116
1, 357821, Note_off_c, 0, 73, 44
1, 357832, Control_c, 0, 67, 121
1, 357838, Note_off_c, 0, 61, 59
1, 357841, Note_on_c, 0, 65, 73
1, 357846, Control_c, 0, 67, 127
1, 357865, Note_off_c, 0, 65, 68
1, 357881, Note_off_c, 0, 77, 61
1, 357921, Note_on_c, 0, 68, 71
1, 357990, Note_on_c, 0, 73, 72
1, 357995, Note_off_c, 0, 68, 58
1, 358049, Note_on_c, 0, 77, 71
1, 358078, Note_off_c, 0, 73, 58
1, 358100, Note_off_c, 0, 77, 64
1, 358166, Control_c, 0, 64, 82
1, 358168, Note_on_c, 0, 78, 88
1, 358180, Control_c, 0, 64, 58
1, 358182, Note_on_c, 0, 50, 66
1, 358195, Control_c, 0, 64, 44
1, 358210, Control_c, 0, 64, 45
1, 358221, Note_on_c, 0, 74, 13
1, 358225, Control_c, 0, 64, 52
1, 358240, Note_off_c, 0, 50, 61
1, 358240, Control_c, 0, 64, 64
1, 358255, Control_c, 0, 64, 79
1, 358261, Note_on_c, 0, 57, 67
1, 358270, Control_c, 0, 64, 112
1, 358270, Control_c, 0, 67, 106
1, 358285, Control_c, 0, 64, 127
1, 358285, Control_c, 0, 67, 57
1, 358299, Control_c, 0, 67, 0
1, 358323, Note_off_c, 0, 57, 60
1, 358325, Note_on_c, 0, 62, 74
1, 358350, Note_off_c, 0, 62, 69
1, 358398, Note_off_c, 0, 74, 42
1, 358411, Note_on_c, 0, 66, 84
1, 358431, Note_off_c, 0, 66, 72
1, 358456, Note_off_c, 0, 78, 58
1, 358460, Note_on_c, 0, 69, 73
1, 358520, Note_on_c, 0, 74, 73
1, 358586, Note_on_c, 0, 78, 76
1, 358606, Note_off_c, 0, 74, 61
1, 358617, Note_off_c, 0, 69, 35
1, 358646, Note_off_c, 0, 78, 61
1, 358706, Note_on_c, 0, 79, 82
1, 358714, Control_c, 0, 64, 120
1, 358714, Control_c, 0, 67, 44
1, 358716, Note_on_c, 0, 47, 72
1, 358724, Note_on_c, 0, 75, 72
1, 358729, Control_c, 0, 64, 78
1, 358729, Control_c, 0, 67, 48
1, 358741, Note_on_c, 0, 67, 58
1, 358744, Control_c, 0, 64, 62
1, 358744, Control_c, 0, 67, 48
1, 358759, Control_c, 0, 64, 53
1, 358759, Control_c, 0, 67, 47
1, 358768, Note_off_c, 0, 67, 52
1, 358773, Control_c, 0, 64, 54
1, 358773, Control_c, 0, 67, 44
1, 358788, Control_c, 0, 64, 63
1, 358788, Control_c, 0, 67, 40
1, 358803, Control_c, 0, 64, 76
1, 358803, Control_c, 0, 67, 0
1, 358806, Note_off_c, 0, 47, 61
1, 358816, Note_on_c, 0, 55, 67
1, 358818, Control_c, 0, 64, 101
1, 358832, Control_c, 0, 64, 127
1, 358853, Note_off_c, 0, 55, 63
1, 358893, Note_on_c, 0, 59, 75
1, 358926, Note_off_c, 0, 59, 64
1, 358966, Note_on_c, 0, 63, 72
1, 358988, Note_off_c, 0, 75, 62
1, 358991, Note_off_c, 0, 63, 67
1, 359001, Note_off_c, 0, 79, 53
1, 359003, Note_on_c, 0, 67, 78
1, 359063, Note_on_c, 0, 71, 82
1, 359123, Note_on_c, 0, 75, 77
1, 359166, Note_off_c, 0, 71, 61
1, 359171, Note_on_c, 0, 79, 78
1, 359221, Note_off_c, 0, 67, 26
1, 359233, Note_off_c, 0, 79, 64
1, 359237, Note_off_c, 0, 75, 63
1, 359328, Note_on_c, 0, 44, 68
1, 359336, Note_on_c, 0, 80, 82
1, 359344, Control_c, 0, 64, 95
1, 359359, Control_c, 0, 64, 66
1, 359374, Control_c, 0, 64, 47
1, 359389, Control_c, 0, 64, 41
1, 359403, Control_c, 0, 64, 51
1, 359418, Control_c, 0, 64, 67
1, 359418, Control_c, 0, 67, 42
1, 359433, Control_c, 0, 64, 97
1, 359433, Control_c, 0, 67, 50
1, 359446, Note_on_c, 0, 52, 72
1, 359447, Control_c, 0, 64, 127
1, 359447, Control_c, 0, 67, 50
1, 359462, Control_c, 0, 67, 48
1, 359466, Note_off_c, 0, 44, 60
1, 359477, Control_c, 0, 67, 46
1, 359492, Control_c, 0, 67, 44
1, 359500, Note_on_c, 0, 76, 10
1, 359507, Note_off_c, 0, 52, 62
1, 359507, Control_c, 0, 67, 42
1, 359522, Note_on_c, 0, 59, 75
1, 359522, Control_c, 0, 67, 36
1, 359537, Control_c, 0, 67, 0
1, 359555, Note_off_c, 0, 76, 40
1, 359567, Note_off_c, 0, 59, 65
1, 359579, Note_off_c, 0, 80, 58
1, 359594, Note_on_c, 0, 64, 79
1, 359623, Note_off_c, 0, 64, 71
1, 359652, Note_on_c, 0, 68, 81
1, 359716, Note_on_c, 0, 71, 81
1, 359767, Note_off_c, 0, 68, 58
1, 359772, Note_on_c, 0, 76, 72
1, 359805, Note_on_c, 0, 80, 79
1, 359823, Note_off_c, 0, 71, 60
1, 359862, Note_off_c, 0, 76, 63
1, 359899, Note_off_c, 0, 80, 60
1, 359945, Note_on_c, 0, 81, 89
1, 359957, Note_on_c, 0, 41, 74
1, 359960, Control_c, 0, 64, 93
1, 359968, Note_on_c, 0, 77, 58
1, 359975, Control_c, 0, 64, 66
1, 359975, Control_c, 0, 67, 37
1, 359990, Control_c, 0, 64, 48
1, 360005, Control_c, 0, 64, 44
1, 360005, Control_c, 0, 67, 37
1, 360020, Control_c, 0, 64, 55
1, 360020, Control_c, 0, 67, 39
1, 360020, Note_off_c, 0, 77, 0
1, 360020, Note_on_c, 0, 77, 26
1, 360034, Control_c, 0, 64, 69
1, 360034, Control_c, 0, 67, 38
1, 360049, Control_c, 0, 64, 93
1, 360049, Control_c, 0, 67, 34
1, 360052, Note_off_c, 0, 41, 61
1, 360059, Note_on_c, 0, 48, 82
1, 360064, Control_c, 0, 64, 127
1, 360064, Control_c, 0, 67, 0
1, 360115, Note_off_c, 0, 48, 62
1, 360139, Note_on_c, 0, 57, 68
1, 360167, Note_off_c, 0, 57, 66
1, 360201, Note_on_c, 0, 59, 78
1, 360227, Note_off_c, 0, 59, 69
1, 360246, Note_on_c, 0, 69, 79
1, 360250, Note_off_c, 0, 77, 40
1, 360256, Note_off_c, 0, 81, 60
1, 360314, Note_on_c, 0, 72, 85
1, 360356, Note_off_c, 0, 69, 56
1, 360406, Note_on_c, 0, 77, 81
1, 360433, Note_on_c, 0, 75, 61
1, 360453, Note_off_c, 0, 75, 66
1, 360456, Note_off_c, 0, 72, 61
1, 360471, Note_on_c, 0, 81, 89
1, 360534, Note_off_c, 0, 77, 62
1, 360571, Note_off_c, 0, 81, 64
1, 360723, Control_c, 0, 67, 40
1, 360734, Note_on_c, 0, 38, 87
1, 360738, Control_c, 0, 67, 43
1, 360744, Note_on_c, 0, 82, 83
1, 360753, Control_c, 0, 64, 80
1, 360753, Control_c, 0, 67, 50
1, 360768, Control_c, 0, 64, 56
1, 360768, Control_c, 0, 67, 65
1, 360773, Note_on_c, 0, 78, 51
1, 360783, Control_c, 0, 64, 0
1, 360783, Control_c, 0, 67, 90
1, 360798, Control_c, 0, 67, 112
1, 360812, Control_c, 0, 64, 30
1, 360812, Control_c, 0, 67, 118
1, 360827, Control_c, 0, 64, 51
1, 360836, Poly_aftertouch_c, 0, 70, 127
1, 360842, Control_c, 0, 64, 74
1, 360857, Control_c, 0, 64, 110
1, 360857, Control_c, 0, 67, 122
1, 360872, Control_c, 0, 64, 127
1, 360872, Control_c, 0, 67, 127
1, 360894, Note_off_c, 0, 38, 62
1, 360991, Poly_aftertouch_c, 0, 70, 0
1, 361027, Note_on_c, 0, 54, 48
1, 361027, Poly_aftertouch_c, 0, 70, 127
1, 361051, Note_off_c, 0, 54, 57
1, 361063, Note_off_c, 0, 82, 60
1, 361069, Note_off_c, 0, 78, 61
1, 361078, Note_on_c, 0, 58, 72
1, 361080, Poly_aftertouch_c, 0, 70, 0
1, 361145, Note_off_c, 0, 58, 44
1, 361165, Note_on_c, 0, 62, 52
1, 361188, Note_off_c, 0, 62, 59
1, 361237, Note_on_c, 0, 66, 71
1, 361299, Note_on_c, 0, 70, 73
1, 361388, Note_on_c, 0, 74, 71
1, 361409, Note_off_c, 0, 70, 54
1, 361411, Note_off_c, 0, 66, 24
1, 361453, Note_on_c, 0, 78, 76
1, 361486, Control_c, 0, 64, 120
1, 361501, Control_c, 0, 64, 79
1, 361505, Note_off_c, 0, 74, 57
1, 361506, Note_on_c, 0, 34, 74
1, 361516, Control_c, 0, 64, 63
1, 361531, Control_c, 0, 64, 60
1, 361542, Note_off_c, 0, 34, 67
1, 361546, Control_c, 0, 64, 65
1, 361561, Control_c, 0, 64, 77
1, 361576, Control_c, 0, 64, 107
1, 361580, Note_on_c, 0, 50, 68
1, 361590, Control_c, 0, 64, 127
1, 361620, Note_off_c, 0, 50, 63
1, 361691, Note_on_c, 0, 54, 72
1, 361766, Note_on_c, 0, 58, 73
1, 361777, Note_off_c, 0, 54, 58
1, 361841, Note_off_c, 0, 78, 0
1, 361855, Note_on_c, 0, 66, 84
1, 361881, Note_on_c, 0, 62, 78
1, 361886, Poly_aftertouch_c, 0, 78, 127
1, 361921, Note_off_c, 0, 58, 64
1, 361937, Note_off_c, 0, 62, 62
1, 361943, Poly_aftertouch_c, 0, 78, 0
1, 361954, Note_on_c, 0, 70, 84
1, 361986, Poly_aftertouch_c, 0, 78, 0
1, 362067, Note_on_c, 0, 74, 83
1, 362121, Note_off_c, 0, 70, 55
1, 362131, Note_off_c, 0, 66, 59
1, 362163, Note_on_c, 0, 78, 85
1, 362196, Note_off_c, 0, 74, 62
1, 362232, Note_off_c, 0, 78, 58
1, 362398, Control_c, 0, 64, 103
1, 362399, Note_on_c, 0, 83, 88
1, 362407, Note_on_c, 0, 31, 66
1, 362413, Control_c, 0, 64, 69
1, 362416, Note_on_c, 0, 79, 63
1, 362428, Control_c, 0, 64, 44
1, 362443, Control_c, 0, 64, 0
1, 362450, Note_on_c, 0, 71, 25
1, 362487, Control_c, 0, 64, 46
1, 362502, Control_c, 0, 64, 63
1, 362503, Poly_aftertouch_c, 0, 74, 127
1, 362517, Control_c, 0, 64, 76
1, 362532, Control_c, 0, 64, 93
1, 362535, Note_off_c, 0, 31, 62
1, 362546, Control_c, 0, 64, 127
1, 362552, Note_on_c, 0, 43, 68
1, 362560, Poly_aftertouch_c, 0, 74, 0
1, 362583, Note_off_c, 0, 43, 64
1, 362598, Poly_aftertouch_c, 0, 74, 127
1, 362760, Note_off_c, 0, 71, 19
1, 362763, Note_on_c, 0, 57, 31
1, 362773, Poly_aftertouch_c, 0, 74, 0
1, 362818, Note_off_c, 0, 57, 62
1, 362845, Note_on_c, 0, 62, 48
1, 362904, Note_off_c, 0, 62, 57
1, 362907, Note_off_c, 0, 79, 38
1, 362987, Note_on_c, 0, 65, 48
1, 362992, Note_on_c, 0, 71, 66
1, 363010, Note_off_c, 0, 65, 58
1, 363109, Note_off_c, 0, 83, 29
1, 363157, Note_on_c, 0, 74, 73
1, 363346, Note_on_c, 0, 79, 61
1, 363352, Note_off_c, 0, 74, 56
1, 363548, Note_off_c, 0, 71, 34
1, 363591, Note_on_c, 0, 83, 74
1, 363791, Note_off_c, 0, 79, 0
1, 363829, Poly_aftertouch_c, 0, 79, 127
1, 364117, Note_on_c, 0, 24, 80
1, 364194, Poly_aftertouch_c, 0, 36, 127
1, 364241, Poly_aftertouch_c, 0, 36, 0
1, 364251, Poly_aftertouch_c, 0, 32, 127
1, 364273, Control_c, 0, 64, 107
1, 364288, Control_c, 0, 64, 78
1, 364303, Control_c, 0, 64, 55
1, 364318, Control_c, 0, 64, 0
1, 364339, Poly_aftertouch_c, 0, 79, 0
1, 364407, Control_c, 0, 64, 47
1, 364422, Control_c, 0, 64, 64
1, 364437, Poly_aftertouch_c, 0, 32, 0
1, 364437, Control_c, 0, 64, 83
1, 364451, Control_c, 0, 64, 127
1, 364481, Note_on_c, 0, 36, 77
1, 364500, Note_off_c, 0, 24, 63
1, 364515, Note_off_c, 0, 36, 65
1, 364561, Note_off_c, 0, 83, 50
1, 364738, Note_on_c, 0, 52, 63
1, 364817, Note_on_c, 0, 55, 70
1, 364869, Note_off_c, 0, 52, 58
1, 364908, Note_on_c, 0, 60, 71
1, 364989, Note_on_c, 0, 64, 80
1, 365013, Note_off_c, 0, 55, 59
1, 365027, Note_off_c, 0, 60, 62
1, 365043, Note_off_c, 0, 64, 64
1, 365045, Note_on_c, 0, 72, 71
1, 365102, Note_on_c, 0, 76, 76
1, 365129, Note_off_c, 0, 72, 58
1, 365171, Note_on_c, 0, 79, 82
1, 365215, Note_off_c, 0, 76, 60
1, 365266, Note_on_c, 0, 84, 91
1, 365289, Control_c, 0, 67, 125
1, 365304, Control_c, 0, 67, 104
1, 365305, Note_off_c, 0, 79, 61
1, 365319, Control_c, 0, 67, 85
1, 365334, Control_c, 0, 67, 82
1, 365358, Note_off_c, 0, 84, 66
1, 365379, Control_c, 0, 67, 82
1, 365394, Control_c, 0, 67, 84
1, 365408, Control_c, 0, 67, 90
1, 365423, Control_c, 0, 67, 102
1, 365438, Control_c, 0, 67, 110
1, 365453, Control_c, 0, 67, 119
1, 365468, Control_c, 0, 67, 127
1, 365485, Note_on_c, 0, 64, 49
1, 365591, Note_on_c, 0, 67, 53
1, 365598, Note_off_c, 0, 64, 53
1, 365677, Note_off_c, 0, 67, 54
1, 365704, Note_on_c, 0, 72, 33
1, 365735, Note_off_c, 0, 72, 51
1, 365767, Note_on_c, 0, 79, 47
1, 365853, Note_on_c, 0, 84, 55
1, 365917, Note_off_c, 0, 79, 32
1, 365941, Note_on_c, 0, 88, 62
1, 365945, Note_off_c, 0, 84, 55
1, 366016, Note_on_c, 0, 91, 72
1, 366033, Note_off_c, 0, 88, 66
1, 366042, Note_off_c, 0, 91, 68
1, 366108, Note_on_c, 0, 60, 45
1, 366149, Note_off_c, 0, 60, 62
1, 366176, Note_on_c, 0, 64, 48
1, 366217, Note_off_c, 0, 64, 61
1, 366262, Note_on_c, 0, 67, 37
1, 366289, Note_off_c, 0, 67, 56
1, 366321, Note_on_c, 0, 72, 47
1, 366348, Note_off_c, 0, 72, 58
1, 366399, Note_on_c, 0, 76, 45
1, 366455, Note_off_c, 0, 76, 57
1, 366463, Note_on_c, 0, 79, 49
1, 366526, Note_off_c, 0, 79, 58
1, 366536, Note_on_c, 0, 84, 60
1, 366615, Note_on_c, 0, 88, 69
1, 366652, Note_off_c, 0, 84, 62
1, 366671, Note_off_c, 0, 88, 62
1, 366723, Note_on_c, 0, 55, 39
1, 366762, Note_off_c, 0, 55, 50
1, 366805, Note_on_c, 0, 60, 38
1, 366861, Note_off_c, 0, 60, 59
1, 366882, Note_on_c, 0, 64, 42
1, 366923, Note_off_c, 0, 64, 64
1, 366962, Note_on_c, 0, 67, 55
1, 366988, Note_off_c, 0, 67, 62
1, 367036, Note_on_c, 0, 72, 43
1, 367140, Note_off_c, 0, 72, 56
1, 367141, Note_on_c, 0, 76, 50
1, 367239, Note_off_c, 0, 76, 54
1, 367242, Note_on_c, 0, 79, 53
1, 367332, Note_on_c, 0, 84, 59
1, 367344, Note_off_c, 0, 79, 56
1, 367367, Note_off_c, 0, 84, 62
1, 367585, Note_on_c, 0, 79, 78
1, 367598, Note_on_c, 0, 76, 68
1, 367621, Note_on_c, 0, 72, 40
1, 367634, Note_on_c, 0, 52, 50
1, 367742, Note_off_c, 0, 52, 56
1, 367770, Note_on_c, 0, 55, 46
1, 367782, Note_off_c, 0, 76, 62
1, 367782, Note_off_c, 0, 72, 50
1, 367791, Note_off_c, 0, 79, 62
1, 367818, Note_off_c, 0, 55, 58
1, 367857, Note_on_c, 0, 60, 47
1, 367899, Note_off_c, 0, 60, 55
1, 367938, Note_on_c, 0, 64, 55
1, 367967, Note_off_c, 0, 64, 66
1, 368011, Note_on_c, 0, 67, 50
1, 368078, Note_on_c, 0, 72, 54
1, 368104, Note_off_c, 0, 67, 37
1, 368166, Note_on_c, 0, 76, 56
1, 368170, Note_off_c, 0, 72, 53
1, 368245, Note_on_c, 0, 79, 59
1, 368274, Note_off_c, 0, 76, 61
1, 368286, Note_off_c, 0, 79, 58
1, 368345, Note_on_c, 0, 48, 51
1, 368387, Note_off_c, 0, 48, 60
1, 368420, Note_on_c, 0, 52, 44
1, 368461, Note_off_c, 0, 52, 61
1, 368487, Note_on_c, 0, 55, 47
1, 368527, Note_off_c, 0, 55, 62
1, 368557, Note_on_c, 0, 60, 48
1, 368589, Note_off_c, 0, 60, 64
1, 368628, Note_on_c, 0, 64, 44
1, 368702, Note_off_c, 0, 64, 54
1, 368710, Note_on_c, 0, 67, 50
1, 368792, Note_off_c, 0, 67, 53
1, 368811, Note_on_c, 0, 72, 54
1, 368870, Note_on_c, 0, 76, 64
1, 368899, Note_off_c, 0, 72, 60
1, 368912, Note_off_c, 0, 76, 59
1, 369046, Note_on_c, 0, 76, 68
1, 369048, Note_on_c, 0, 43, 39
1, 369053, Note_on_c, 0, 72, 61
1, 369084, Note_on_c, 0, 67, 28
1, 369090, Note_off_c, 0, 43, 55
1, 369120, Note_on_c, 0, 48, 51
1, 369168, Note_off_c, 0, 48, 62
1, 369193, Note_on_c, 0, 52, 41
1, 369228, Note_off_c, 0, 52, 61
1, 369269, Note_on_c, 0, 55, 47
1, 369278, Note_off_c, 0, 67, 28
1, 369296, Note_off_c, 0, 55, 63
1, 369309, Note_off_c, 0, 72, 52
1, 369342, Note_off_c, 0, 76, 51
1, 369369, Note_on_c, 0, 60, 51
1, 369403, Note_off_c, 0, 60, 65
1, 369500, Note_on_c, 0, 64, 49
1, 369559, Note_off_c, 0, 64, 54
1, 369593, Note_on_c, 0, 67, 32
1, 369640, Note_off_c, 0, 67, 47
1, 369651, Note_on_c, 0, 72, 53
1, 369729, Note_on_c, 0, 76, 30
1, 369732, Note_off_c, 0, 72, 47
1, 369751, Note_on_c, 0, 36, 55
1, 369821, Note_off_c, 0, 36, 54
1, 369849, Note_on_c, 0, 43, 44
1, 369887, Note_off_c, 0, 43, 61
1, 369908, Note_on_c, 0, 48, 62
1, 369944, Note_off_c, 0, 48, 63
1, 370038, Note_on_c, 0, 52, 53
1, 370043, Note_off_c, 0, 76, 16
1, 370152, Note_on_c, 0, 55, 56
1, 370322, Note_on_c, 0, 72, 69
1, 370335, Note_on_c, 0, 60, 50
1, 370345, Note_on_c, 0, 64, 47
1, 370346, Note_on_c, 0, 67, 47
1, 370397, Note_off_c, 0, 60, 54
1, 370416, Note_off_c, 0, 52, 61
1, 370459, Note_off_c, 0, 55, 57
1, 370485, Note_off_c, 0, 64, 25
1, 370555, Note_on_c, 0, 52, 52
1, 370559, Note_off_c, 0, 72, 57
1, 370563, Note_off_c, 0, 67, 38
1, 370599, Note_off_c, 0, 52, 56
1, 370651, Note_on_c, 0, 55, 37
1, 370694, Note_off_c, 0, 55, 55
1, 370723, Note_on_c, 0, 60, 39
1, 370745, Note_off_c, 0, 60, 62
1, 370791, Note_on_c, 0, 64, 34
1, 370876, Note_on_c, 0, 67, 35
1, 370880, Note_off_c, 0, 64, 38
1, 370918, Note_off_c, 0, 67, 49
1, 370956, Note_on_c, 0, 72, 50
1, 371019, Note_on_c, 0, 76, 55
1, 371090, Note_on_c, 0, 48, 45
1, 371098, Note_off_c, 0, 72, 36
1, 371106, Note_off_c, 0, 76, 56
1, 371132, Note_off_c, 0, 48, 61
1, 371159, Note_on_c, 0, 52, 47
1, 371202, Note_off_c, 0, 52, 59
1, 371250, Note_on_c, 0, 55, 42
1, 371293, Note_off_c, 0, 55, 58
1, 371316, Note_on_c, 0, 60, 50
1, 371347, Note_off_c, 0, 60, 60
1, 371436, Note_on_c, 0, 64, 40
1, 371490, Note_off_c, 0, 64, 56
1, 371509, Note_on_c, 0, 67, 44
1, 371564, Note_off_c, 0, 67, 56
1, 371633, Note_on_c, 0, 72, 42
1, 371695, Note_on_c, 0, 76, 49
1, 371761, Note_on_c, 0, 48, 47
1, 371765, Note_off_c, 0, 72, 37
1, 371812, Note_off_c, 0, 76, 38
1, 371827, Note_off_c, 0, 48, 61
1, 371865, Note_on_c, 0, 52, 37
1, 371912, Note_off_c, 0, 52, 57
1, 371958, Note_on_c, 0, 55, 41
1, 372009, Note_off_c, 0, 55, 57
1, 372046, Note_on_c, 0, 60, 46
1, 372078, Note_off_c, 0, 60, 58
1, 372178, Note_on_c, 0, 64, 44
1, 372250, Note_off_c, 0, 64, 40
1, 372290, Note_on_c, 0, 67, 39
1, 372365, Note_off_c, 0, 67, 56
1, 372429, Note_on_c, 0, 72, 40
1, 372537, Note_on_c, 0, 76, 46
1, 372612, Note_off_c, 0, 72, 35
1, 372820, Note_on_c, 0, 55, 59
1, 372828, Note_on_c, 0, 52, 52
1, 372835, Note_on_c, 0, 48, 66
1, 373183, Note_on_c, 0, 60, 18
1, 373245, Note_off_c, 0, 76, 27
1, 373253, Note_off_c, 0, 48, 52
1, 373279, Note_off_c, 0, 60, 37
1, 373291, Note_off_c, 0, 55, 55
1, 373294, Note_on_c, 0, 64, 45
1, 373302, Note_off_c, 0, 52, 59
1, 373367, Note_off_c, 0, 64, 48
1, 373421, Note_on_c, 0, 67, 32
1, 373478, Note_off_c, 0, 67, 44
1, 373514, Note_on_c, 0, 72, 46
1, 373599, Note_on_c, 0, 76, 36
1, 373630, Note_off_c, 0, 72, 49
1, 373653, Note_off_c, 0, 76, 49
1, 373657, Note_on_c, 0, 48, 52
1, 373727, Note_off_c, 0, 48, 59
1, 373750, Note_on_c, 0, 52, 46
1, 373803, Note_off_c, 0, 52, 55
1, 373860, Note_on_c, 0, 55, 43
1, 373923, Note_off_c, 0, 55, 53
1, 373961, Note_on_c, 0, 60, 40
1, 373995, Note_off_c, 0, 60, 53
1, 374090, Note_on_c, 0, 64, 28
1, 374161, Note_off_c, 0, 64, 39
1, 374203, Note_on_c, 0, 67, 30
1, 374252, Note_off_c, 0, 67, 46
1, 374301, Note_on_c, 0, 72, 44
1, 374373, Note_on_c, 0, 76, 44
1, 374571, Note_on_c, 0, 52, 52
1, 374585, Note_on_c, 0, 48, 48
1, 374601, Note_on_c, 0, 43, 41
1, 374638, Control_c, 0, 64, 105
1, 374652, Control_c, 0, 64, 88
1, 374667, Control_c, 0, 64, 83
1, 374697, Control_c, 0, 64, 86
1, 374711, Control_c, 0, 64, 99
1, 374726, Control_c, 0, 64, 127
1, 374813, Note_off_c, 0, 43, 55
1, 374831, Note_off_c, 0, 72, 5
1, 374849, Note_off_c, 0, 52, 60
1, 374858, Note_off_c, 0, 48, 40
1, 374866, Note_on_c, 0, 55, 33
1, 374942, Note_off_c, 0, 55, 55
1, 375037, Note_on_c, 0, 60, 30
1, 375074, Note_off_c, 0, 60, 52
1, 375144, Note_off_c, 0, 76, 34
1, 375168, Note_on_c, 0, 64, 37
1, 375312, Note_on_c, 0, 67, 35
1, 375396, Note_off_c, 0, 67, 52
1, 375412, Note_off_c, 0, 64, 31
1, 375449, Note_on_c, 0, 72, 41
1, 375547, Note_on_c, 0, 76, 48
1, 375657, Note_on_c, 0, 36, 52
1, 375809, Note_on_c, 0, 43, 48
1, 375890, Control_c, 0, 64, 91
1, 375905, Control_c, 0, 64, 75
1, 375920, Control_c, 0, 64, 64
1, 375935, Control_c, 0, 64, 62
1, 375949, Control_c, 0, 64, 65
1, 375964, Control_c, 0, 64, 71
1, 375979, Control_c, 0, 64, 84
1, 375985, Note_off_c, 0, 36, 53
1, 375994, Control_c, 0, 64, 106
1, 376009, Control_c, 0, 64, 127
1, 376031, Note_off_c, 0, 43, 61
1, 376032, Note_on_c, 0, 48, 53
1, 376080, Note_off_c, 0, 48, 60
1, 376188, Note_off_c, 0, 72, 1
1, 376230, Note_on_c, 0, 52, 38
1, 376307, Note_off_c, 0, 76, 35
1, 376313, Note_off_c, 0, 52, 43
1, 376343, Note_on_c, 0, 55, 48
1, 376400, Note_off_c, 0, 55, 57
1, 376452, Note_on_c, 0, 60, 19
1, 376489, Note_off_c, 0, 60, 55
1, 376507, Note_on_c, 0, 64, 47
1, 376572, Note_off_c, 0, 64, 54
1, 376593, Note_on_c, 0, 67, 42
1, 376632, Note_off_c, 0, 67, 54
1, 376667, Note_on_c, 0, 72, 51
1, 376728, Note_on_c, 0, 52, 54
1, 376733, Note_on_c, 0, 76, 51
1, 376734, Note_off_c, 0, 72, 57
1, 376761, Note_off_c, 0, 52, 63
1, 376775, Note_off_c, 0, 76, 60
1, 376808, Note_on_c, 0, 64, 47
1, 376845, Note_off_c, 0, 64, 57
1, 376877, Note_on_c, 0, 55, 45
1, 376909, Note_off_c, 0, 55, 56
1, 376933, Note_on_c, 0, 64, 58
1, 376978, Note_off_c, 0, 64, 55
1, 377014, Note_on_c, 0, 60, 60
1, 377045, Note_off_c, 0, 60, 66
1, 377093, Note_on_c, 0, 64, 46
1, 377106, Note_on_c, 0, 67, 34
1, 377124, Note_off_c, 0, 64, 54
1, 377158, Note_on_c, 0, 72, 51
1, 377162, Note_off_c, 0, 67, 46
1, 377208, Note_off_c, 0, 72, 55
1, 377222, Note_on_c, 0, 76, 55
1, 377242, Note_on_c, 0, 55, 53
1, 377263, Note_off_c, 0, 76, 60
1, 377267, Note_on_c, 0, 79, 52
1, 377270, Note_off_c, 0, 55, 63
1, 377310, Note_on_c, 0, 67, 50
1, 377310, Note_off_c, 0, 79, 59
1, 377342, Note_off_c, 0, 67, 56
1, 377384, Note_on_c, 0, 60, 60
1, 377424, Note_off_c, 0, 60, 60
1, 377448, Note_on_c, 0, 67, 51
1, 377488, Note_off_c, 0, 67, 63
1, 377503, Note_on_c, 0, 64, 66
1, 377557, Note_off_c, 0, 64, 63
1, 377574, Note_on_c, 0, 67, 65
1, 377579, Note_on_c, 0, 72, 45
1, 377610, Note_off_c, 0, 67, 65
1, 377625, Note_off_c, 0, 72, 59
1, 377631, Note_on_c, 0, 76, 48
1, 377669, Note_on_c, 0, 79, 54
1, 377669, Note_off_c, 0, 76, 58
1, 377708, Note_off_c, 0, 79, 60
1, 377711, Note_on_c, 0, 60, 58
1, 377717, Note_on_c, 0, 84, 56
1, 377749, Note_off_c, 0, 60, 62
1, 377753, Note_off_c, 0, 84, 62
1, 377784, Note_on_c, 0, 72, 64
1, 377813, Note_off_c, 0, 72, 63
1, 377847, Note_on_c, 0, 64, 68
1, 377909, Note_on_c, 0, 72, 65
1, 377939, Note_off_c, 0, 64, 37
1, 377941, Note_off_c, 0, 72, 58
1, 377962, Note_on_c, 0, 67, 70
1, 378010, Note_off_c, 0, 67, 63
1, 378024, Note_on_c, 0, 76, 53
1, 378038, Note_on_c, 0, 72, 62
1, 378063, Note_off_c, 0, 72, 64
1, 378064, Note_on_c, 0, 79, 56
1, 378064, Note_off_c, 0, 76, 59
1, 378117, Note_on_c, 0, 84, 69
1, 378139, Note_off_c, 0, 79, 62
1, 378147, Note_on_c, 0, 88, 76
1, 378174, Note_off_c, 0, 84, 65
1, 378181, Note_on_c, 0, 64, 64
1, 378198, Note_off_c, 0, 88, 66
1, 378218, Note_off_c, 0, 64, 63
1, 378248, Note_on_c, 0, 76, 62
1, 378284, Note_off_c, 0, 76, 59
1, 378315, Note_on_c, 0, 67, 71
1, 378355, Note_off_c, 0, 67, 59
1, 378394, Note_on_c, 0, 76, 65
1, 378429, Note_off_c, 0, 76, 58
1, 378450, Note_on_c, 0, 72, 74
1, 378456, Note_on_c, 0, 79, 50
1, 378483, Note_on_c, 0, 84, 73
1, 378496, Note_off_c, 0, 72, 59
1, 378496, Note_off_c, 0, 79, 60
1, 378530, Note_on_c, 0, 76, 61
1, 378543, Note_on_c, 0, 88, 80
1, 378550, Note_off_c, 0, 76, 62
1, 378567, Note_off_c, 0, 84, 62
1, 378575, Note_on_c, 0, 91, 91
1, 378594, Note_off_c, 0, 88, 67
1, 378632, Note_off_c, 0, 91, 65
1, 378661, Note_on_c, 0, 67, 66
1, 378692, Note_off_c, 0, 67, 63
1, 378732, Note_on_c, 0, 79, 59
1, 378758, Note_off_c, 0, 79, 66
1, 378796, Note_on_c, 0, 72, 70
1, 378847, Note_off_c, 0, 72, 56
1, 378873, Note_on_c, 0, 79, 50
1, 378914, Note_off_c, 0, 79, 60
1, 378918, Note_on_c, 0, 84, 49
1, 378923, Note_on_c, 0, 76, 65
1, 378969, Note_off_c, 0, 76, 64
1, 378974, Note_on_c, 0, 88, 63
1, 379008, Note_on_c, 0, 79, 49
1, 379009, Note_off_c, 0, 84, 39
1, 379032, Note_off_c, 0, 79, 59
1, 379039, Note_on_c, 0, 91, 70
1, 379073, Note_off_c, 0, 88, 54
1, 379120, Note_on_c, 0, 96, 82
1, 379125, Note_off_c, 0, 91, 67
1, 379166, Note_off_c, 0, 96, 67
1, 379174, Note_on_c, 0, 72, 54
1, 379216, Note_off_c, 0, 72, 59
1, 379270, Note_on_c, 0, 84, 51
1, 379298, Note_off_c, 0, 84, 59
1, 379336, Note_on_c, 0, 76, 61
1, 379374, Note_off_c, 0, 76, 60
1, 379422, Note_on_c, 0, 84, 52
1, 379485, Note_on_c, 0, 79, 42
1, 379493, Note_off_c, 0, 84, 41
1, 379522, Note_on_c, 0, 88, 74
1, 379546, Note_off_c, 0, 79, 63
1, 379590, Note_on_c, 0, 91, 86
1, 379608, Note_off_c, 0, 88, 61
1, 379610, Note_on_c, 0, 84, 42
1, 379640, Note_off_c, 0, 84, 54
1, 379655, Note_off_c, 0, 91, 59
1, 379673, Note_on_c, 0, 96, 86
1, 379746, Note_on_c, 0, 100, 99
1, 379770, Note_off_c, 0, 96, 68
1, 379807, Note_off_c, 0, 100, 67
1, 379841, Note_on_c, 0, 72, 49
1, 379872, Note_off_c, 0, 72, 62
1, 379916, Note_on_c, 0, 84, 55
1, 379950, Note_off_c, 0, 84, 61
1, 379998, Note_on_c, 0, 76, 50
1, 380032, Note_off_c, 0, 76, 64
1, 380077, Note_on_c, 0, 84, 48
1, 380108, Note_off_c, 0, 84, 63
1, 380125, Note_on_c, 0, 79, 58
1, 380176, Note_off_c, 0, 79, 61
1, 380209, Note_on_c, 0, 84, 53
1, 380237, Note_on_c, 0, 88, 67
1, 380245, Note_off_c, 0, 84, 62
1, 380302, Note_on_c, 0, 91, 79
1, 380302, Note_off_c, 0, 88, 52
1, 380367, Note_off_c, 0, 91, 62
1, 380374, Note_on_c, 0, 96, 84
1, 380445, Note_on_c, 0, 100, 87
1, 380455, Note_off_c, 0, 96, 67
1, 380494, Note_off_c, 0, 100, 66
1, 380505, Note_on_c, 0, 72, 50
1, 380548, Note_off_c, 0, 72, 57
1, 380601, Note_on_c, 0, 84, 50
1, 380647, Note_off_c, 0, 84, 56
1, 380678, Note_on_c, 0, 76, 53
1, 380721, Note_off_c, 0, 76, 59
1, 380772, Note_on_c, 0, 84, 48
1, 380812, Note_off_c, 0, 84, 61
1, 380833, Note_on_c, 0, 79, 50
1, 380883, Note_off_c, 0, 79, 57
1, 380914, Note_on_c, 0, 84, 53
1, 380949, Note_on_c, 0, 88, 45
1, 380954, Note_off_c, 0, 84, 59
1, 381007, Note_off_c, 0, 88, 45
1, 381017, Note_on_c, 0, 91, 65
1, 381085, Note_off_c, 0, 91, 59
1, 381105, Note_on_c, 0, 96, 60
1, 381163, Note_on_c, 0, 100, 66
1, 381178, Note_off_c, 0, 96, 66
1, 381181, Note_on_c, 0, 72, 46
1, 381196, Note_off_c, 0, 100, 66
1, 381244, Note_off_c, 0, 72, 56
1, 381290, Note_on_c, 0, 84, 51
1, 381345, Note_off_c, 0, 84, 56
1, 381389, Note_on_c, 0, 76, 29
1, 381431, Note_off_c, 0, 76, 49
1, 381466, Note_on_c, 0, 84, 55
1, 381519, Note_off_c, 0, 84, 58
1, 381540, Note_on_c, 0, 79, 53
1, 381582, Note_off_c, 0, 79, 58
1, 381630, Note_on_c, 0, 84, 53
1, 381647, Note_on_c, 0, 88, 55
1, 381659, Note_off_c, 0, 84, 64
1, 381705, Note_off_c, 0, 88, 43
1, 381737, Note_on_c, 0, 91, 40
1, 381778, Note_off_c, 0, 91, 48
1, 381805, Note_on_c, 0, 96, 59
1, 381882, Note_on_c, 0, 72, 45
1, 381885, Note_on_c, 0, 100, 57
1, 381890, Note_off_c, 0, 96, 64
1, 381920, Note_off_c, 0, 100, 64
1, 381943, Note_off_c, 0, 72, 56
1, 381982, Note_on_c, 0, 84, 49
1, 382029, Note_off_c, 0, 84, 56
1, 382068, Note_on_c, 0, 76, 55
1, 382124, Note_off_c, 0, 76, 52
1, 382173, Note_on_c, 0, 84, 56
1, 382230, Note_off_c, 0, 84, 56
1, 382255, Note_on_c, 0, 79, 52
1, 382296, Note_off_c, 0, 79, 56
1, 382347, Note_on_c, 0, 84, 53
1, 382376, Note_on_c, 0, 88, 45
1, 382394, Note_off_c, 0, 84, 54
1, 382463, Note_off_c, 0, 88, 58
1, 382467, Note_on_c, 0, 91, 40
1, 382505, Note_off_c, 0, 91, 49
1, 382540, Note_on_c, 0, 96, 53
1, 382618, Note_on_c, 0, 100, 60
1, 382632, Note_on_c, 0, 72, 40
1, 382638, Note_off_c, 0, 96, 54
1, 382660, Note_off_c, 0, 100, 62
1, 382720, Note_off_c, 0, 72, 50
1, 382752, Note_on_c, 0, 84, 51
1, 382857, Note_off_c, 0, 84, 39
1, 382888, Note_on_c, 0, 76, 36
1, 382997, Note_on_c, 0, 84, 39
1, 383113, Note_off_c, 0, 84, 45
1, 383144, Note_on_c, 0, 79, 36
1, 383316, Note_on_c, 0, 88, 47
1, 383326, Note_on_c, 0, 84, 36
1, 383369, Note_off_c, 0, 88, 51
1, 383387, Note_off_c, 0, 84, 49
1, 383403, Note_off_c, 0, 79, 37
1, 383522, Note_off_c, 0, 76, 42
1, 383553, Note_on_c, 0, 91, 48
1, 383606, Note_off_c, 0, 91, 60
1, 383821, Note_on_c, 0, 96, 45
1, 383960, Note_off_c, 0, 96, 24
1, 384336, Note_on_c, 0, 100, 42
1, 384379, Note_off_c, 0, 100, 65
1, 386645, Note_on_c, 0, 24, 32
1, 386766, Note_off_c, 0, 24, 37
1, 388279, Control_c, 0, 64, 123
1, 388323, Control_c, 0, 64, 120
1, 388396, Control_c, 0, 64, 117
1, 388516, Control_c, 0, 64, 115
1, 388649, Control_c, 0, 64, 113
1, 388834, Control_c, 0, 64, 111
1, 388952, Control_c, 0, 64, 109
1, 389057, Control_c, 0, 64, 107
1, 389191, Control_c, 0, 64, 105
1, 389340, Control_c, 0, 64, 103
1, 389443, Control_c, 0, 64, 101
1, 389517, Control_c, 0, 64, 99
1, 389599, Control_c, 0, 64, 97
1, 389673, Control_c, 0, 64, 96
1, 389688, Control_c, 0, 64, 95
1, 389702, Control_c, 0, 64, 95
1, 389717, Control_c, 0, 64, 94
1, 389732, Control_c, 0, 64, 94
1, 389747, Control_c, 0, 64, 93
1, 389762, Control_c, 0, 64, 93
1, 389776, Control_c, 0, 64, 92
1, 389791, Control_c, 0, 64, 91
1, 389806, Control_c, 0, 64, 91
1, 389820, Control_c, 0, 64, 90
1, 389835, Control_c, 0, 64, 89
1, 389850, Control_c, 0, 64, 89
1, 389865, Control_c, 0, 64, 88
1, 389880, Control_c, 0, 64, 87
1, 389894, Control_c, 0, 64, 87
1, 389909, Control_c, 0, 64, 86
1, 389924, Control_c, 0, 64, 85
1, 389939, Control_c, 0, 64, 85
1, 389954, Control_c, 0, 64, 84
1, 389969, Control_c, 0, 64, 84
1, 389984, Control_c, 0, 64, 83
1, 389998, Control_c, 0, 64, 82
1, 390013, Control_c, 0, 64, 82
1, 390028, Control_c, 0, 64, 81
1, 390043, Control_c, 0, 64, 80
1, 390058, Control_c, 0, 64, 79
1, 390073, Control_c, 0, 64, 78
1, 390088, Control_c, 0, 64, 77
1, 390103, Control_c, 0, 64, 77
1, 390118, Control_c, 0, 64, 75
1, 390133, Control_c, 0, 64, 74
1, 390148, Control_c, 0, 64, 73
1, 390162, Control_c, 0, 64, 71
1, 390177, Control_c, 0, 64, 70
1, 390192, Control_c, 0, 64, 69
1, 390207, Control_c, 0, 64, 69
1, 390222, Control_c, 0, 64, 68
1, 390237, Control_c, 0, 64, 68
1, 390251, Control_c, 0, 64, 67
1, 390266, Control_c, 0, 64, 67
1, 390296, Control_c, 0, 64, 66
1, 390347, Control_c, 0, 64, 66
1, 390407, Control_c, 0, 64, 65
1, 390451, Control_c, 0, 64, 65
1, 390481, Control_c, 0, 64, 64
1, 390496, Control_c, 0, 64, 64
1, 390511, Control_c, 0, 64, 63
1, 390525, Control_c, 0, 64, 63
1, 390540, Control_c, 0, 64, 62
1, 390555, Control_c, 0, 64, 61
1, 390570, Control_c, 0, 64, 61
1, 390584, Control_c, 0, 64, 60
1, 390599, Control_c, 0, 64, 59
1, 390614, Control_c, 0, 64, 58
1, 390629, Control_c, 0, 64, 57
1, 390643, Control_c, 0, 64, 56
1, 390658, Control_c, 0, 64, 56
1, 390673, Control_c, 0, 64, 55
1, 390688, Control_c, 0, 64, 53
1, 390703, Control_c, 0, 64, 52
1, 390718, Control_c, 0, 64, 50
1, 390732, Control_c, 0, 64, 48
1, 390747, Control_c, 0, 64, 46
1, 390762, Control_c, 0, 64, 44
1, 390777, Control_c, 0, 64, 42
1, 390791, Control_c, 0, 64, 39
1, 390806, Control_c, 0, 64, 36
1, 390821, Control_c, 0, 64, 32
1, 390836, Control_c, 0, 64, 0
1, 391696, Note_on_c, 0, 74, 49
1, 391718, Note_off_c, 0, 74, 60
1, 391730, Note_on_c, 0, 76, 71
1, 391745, Note_on_c, 0, 78, 78
1, 391767, Note_off_c, 0, 76, 63
1, 391778, Note_on_c, 0, 59, 94
1, 391784, Note_on_c, 0, 43, 75
1, 391784, Note_off_c, 0, 78, 65
1, 391787, Note_on_c, 0, 79, 83
1, 391790, Note_on_c, 0, 50, 75
1, 391794, Note_on_c, 0, 67, 94
1, 391800, Note_off_c, 0, 59, 72
1, 391811, Note_off_c, 0, 43, 65
1, 391822, Note_off_c, 0, 50, 67
1, 391826, Note_off_c, 0, 67, 66
1, 391835, Note_off_c, 0, 79, 65
1, 391860, Control_c, 0, 67, 124
1, 391875, Control_c, 0, 67, 112
1, 391890, Control_c, 0, 67, 102
1, 391904, Control_c, 0, 67, 93
1, 391919, Control_c, 0, 67, 84
1, 391934, Control_c, 0, 67, 72
1, 391949, Control_c, 0, 67, 53
1, 391964, Control_c, 0, 67, 0
1, 392036, Note_on_c, 0, 79, 52
1, 392058, Note_off_c, 0, 79, 63
1, 392079, Note_on_c, 0, 78, 81
1, 392111, Note_off_c, 0, 78, 57
1, 392128, Note_on_c, 0, 79, 80
1, 392163, Note_off_c, 0, 79, 65
1, 392297, Note_on_c, 0, 79, 63
1, 392316, Note_off_c, 0, 79, 66
1, 392440, Note_on_c, 0, 57, 63
1, 392444, Note_on_c, 0, 76, 75
1, 392452, Note_on_c, 0, 60, 53
1, 392459, Note_on_c, 0, 55, 42
1, 392464, Note_on_c, 0, 72, 43
1, 392470, Note_off_c, 0, 57, 66
1, 392470, Note_off_c, 0, 76, 65
1, 392476, Note_off_c, 0, 60, 60
1, 392489, Note_on_c, 0, 67, 9
1, 392492, Note_off_c, 0, 72, 54
1, 392495, Note_off_c, 0, 55, 52
1, 392540, Note_off_c, 0, 67, 27
1, 392601, Note_on_c, 0, 55, 61
1, 392604, Note_on_c, 0, 74, 80
1, 392611, Note_on_c, 0, 71, 65
1, 392612, Note_on_c, 0, 59, 59
1, 392616, Note_on_c, 0, 62, 52
1, 392631, Note_off_c, 0, 71, 63
1, 392631, Note_off_c, 0, 55, 64
1, 392633, Note_off_c, 0, 59, 61
1, 392640, Note_off_c, 0, 74, 61
1, 392641, Note_off_c, 0, 62, 57
1, 392754, Note_on_c, 0, 60, 77
1, 392756, Note_on_c, 0, 55, 72
1, 392756, Note_on_c, 0, 72, 89
1, 392759, Note_on_c, 0, 64, 72
1, 392760, Note_on_c, 0, 69, 87
1, 392769, Note_on_c, 0, 67, 77
1, 392771, Control_c, 0, 64, 63
1, 392777, Note_off_c, 0, 60, 69
1, 392783, Note_off_c, 0, 55, 67
1, 392786, Note_off_c, 0, 64, 67
1, 392786, Control_c, 0, 64, 95
1, 392797, Note_off_c, 0, 67, 60
1, 392801, Control_c, 0, 64, 127
1, 392896, Note_off_c, 0, 69, 59
1, 392923, Note_off_c, 0, 72, 63
1, 392926, Note_on_c, 0, 76, 83
1, 392972, Note_off_c, 0, 76, 60
1, 393052, Note_on_c, 0, 59, 90
1, 393060, Note_on_c, 0, 43, 69
1, 393060, Note_on_c, 0, 50, 76
1, 393063, Note_on_c, 0, 74, 89
1, 393068, Note_on_c, 0, 71, 83
1, 393068, Control_c, 0, 64, 97
1, 393073, Note_on_c, 0, 67, 78
1, 393075, Note_off_c, 0, 59, 70
1, 393083, Control_c, 0, 64, 62
1, 393084, Note_off_c, 0, 50, 67
1, 393090, Note_off_c, 0, 43, 64
1, 393090, Note_off_c, 0, 71, 68
1, 393098, Control_c, 0, 64, 0
1, 393099, Note_off_c, 0, 67, 67
1, 393108, Note_off_c, 0, 74, 64
1, 393271, Note_on_c, 0, 74, 66
1, 393298, Note_off_c, 0, 74, 68
1, 393328, Note_on_c, 0, 73, 75
1, 393365, Note_off_c, 0, 73, 52
1, 393376, Note_on_c, 0, 74, 92
1, 393403, Control_c, 0, 67, 45
1, 393417, Note_off_c, 0, 74, 64
1, 393417, Control_c, 0, 67, 77
1, 393432, Control_c, 0, 67, 109
1, 393447, Control_c, 0, 67, 127
1, 393535, Note_on_c, 0, 74, 80
1, 393558, Note_off_c, 0, 74, 67
1, 393682, Note_on_c, 0, 52, 63
1, 393692, Note_on_c, 0, 61, 55
1, 393693, Note_on_c, 0, 71, 69
1, 393700, Note_on_c, 0, 67, 57
1, 393713, Note_off_c, 0, 52, 63
1, 393719, Note_off_c, 0, 61, 64
1, 393721, Note_off_c, 0, 67, 62
1, 393723, Note_off_c, 0, 71, 63
1, 393837, Note_on_c, 0, 69, 77
1, 393841, Note_on_c, 0, 54, 57
1, 393854, Note_on_c, 0, 60, 51
1, 393872, Note_off_c, 0, 54, 64
1, 393874, Note_off_c, 0, 69, 63
1, 393876, Note_on_c, 0, 62, 27
1, 393879, Note_off_c, 0, 60, 59
1, 393911, Note_off_c, 0, 62, 32
1, 393989, Note_on_c, 0, 55, 51
1, 393990, Note_on_c, 0, 67, 69
1, 393993, Note_on_c, 0, 59, 54
1, 393993, Note_on_c, 0, 62, 59
1, 394015, Note_off_c, 0, 67, 69
1, 394017, Note_off_c, 0, 59, 60
1, 394017, Note_off_c, 0, 55, 56
1, 394022, Note_off_c, 0, 62, 64
1, 394154, Note_on_c, 0, 43, 52
1, 394158, Note_on_c, 0, 71, 64
1, 394181, Note_off_c, 0, 43, 55
1, 394193, Note_off_c, 0, 71, 58
1, 394222, Note_on_c, 0, 74, 72
1, 394296, Note_off_c, 0, 74, 59
1, 394302, Note_on_c, 0, 60, 67
1, 394302, Note_on_c, 0, 69, 71
1, 394310, Note_on_c, 0, 50, 61
1, 394313, Note_on_c, 0, 66, 73
1, 394332, Note_off_c, 0, 60, 67
1, 394350, Note_off_c, 0, 50, 63
1, 394368, Note_off_c, 0, 69, 60
1, 394465, Note_on_c, 0, 43, 64
1, 394477, Note_on_c, 0, 69, 66
1, 394493, Note_off_c, 0, 66, 47
1, 394499, Note_off_c, 0, 43, 60
1, 394533, Note_off_c, 0, 69, 60
1, 394544, Note_on_c, 0, 74, 74
1, 394601, Note_off_c, 0, 74, 58
1, 394618, Note_on_c, 0, 59, 65
1, 394618, Note_on_c, 0, 67, 76
1, 394624, Note_on_c, 0, 50, 55
1, 394625, Note_on_c, 0, 64, 69
1, 394651, Note_off_c, 0, 59, 62
1, 394664, Note_off_c, 0, 50, 60
1, 394666, Note_off_c, 0, 67, 60
1, 394770, Note_on_c, 0, 43, 62
1, 394781, Note_on_c, 0, 67, 65
1, 394808, Note_off_c, 0, 64, 44
1, 394809, Note_off_c, 0, 43, 60
1, 394831, Note_off_c, 0, 67, 63
1, 394860, Note_on_c, 0, 74, 81
1, 394923, Note_on_c, 0, 57, 60
1, 394923, Note_on_c, 0, 66, 85
1, 394929, Note_on_c, 0, 50, 54
1, 394929, Note_on_c, 0, 62, 75
1, 394945, Note_off_c, 0, 74, 58
1, 394956, Note_off_c, 0, 57, 64
1, 394979, Note_off_c, 0, 50, 55
1, 394983, Note_off_c, 0, 66, 62
1, 395071, Note_on_c, 0, 43, 65
1, 395087, Note_on_c, 0, 66, 75
1, 395101, Note_off_c, 0, 43, 61
1, 395108, Note_off_c, 0, 62, 58
1, 395127, Note_off_c, 0, 66, 64
1, 395148, Note_on_c, 0, 74, 79
1, 395196, Control_c, 0, 67, 123
1, 395208, Note_on_c, 0, 60, 78
1, 395211, Control_c, 0, 67, 93
1, 395220, Note_on_c, 0, 50, 62
1, 395224, Note_on_c, 0, 69, 78
1, 395226, Control_c, 0, 67, 70
1, 395228, Note_on_c, 0, 66, 81
1, 395229, Note_off_c, 0, 74, 59
1, 395240, Control_c, 0, 67, 48
1, 395242, Note_off_c, 0, 60, 65
1, 395253, Note_off_c, 0, 50, 65
1, 395255, Control_c, 0, 67, 0
1, 395285, Note_off_c, 0, 69, 60
1, 395373, Note_off_c, 0, 66, 61
1, 395374, Note_on_c, 0, 43, 61
1, 395381, Note_on_c, 0, 69, 74
1, 395400, Note_off_c, 0, 43, 59
1, 395430, Note_off_c, 0, 69, 59
1, 395445, Note_on_c, 0, 74, 86
1, 395503, Note_on_c, 0, 62, 81
1, 395513, Note_on_c, 0, 67, 89
1, 395515, Note_on_c, 0, 71, 84
1, 395522, Note_on_c, 0, 50, 55
1, 395524, Note_off_c, 0, 74, 64
1, 395537, Note_off_c, 0, 62, 64
1, 395569, Note_off_c, 0, 71, 61
1, 395620, Note_off_c, 0, 50, 50
1, 395689, Note_off_c, 0, 67, 54
1, 395690, Note_on_c, 0, 71, 69
1, 395697, Note_on_c, 0, 43, 63
1, 395731, Note_off_c, 0, 43, 60
1, 395735, Note_off_c, 0, 71, 61
1, 395746, Note_on_c, 0, 74, 83
1, 395810, Note_on_c, 0, 67, 81
1, 395814, Note_on_c, 0, 59, 76
1, 395816, Note_on_c, 0, 64, 77
1, 395820, Note_on_c, 0, 50, 68
1, 395829, Note_off_c, 0, 74, 62
1, 395851, Note_off_c, 0, 59, 64
1, 395853, Note_off_c, 0, 67, 64
1, 395864, Note_off_c, 0, 50, 63
1, 395965, Note_on_c, 0, 43, 76
1, 395975, Note_on_c, 0, 67, 77
1, 396003, Note_off_c, 0, 43, 63
1, 396011, Note_off_c, 0, 64, 56
1, 396027, Note_on_c, 0, 74, 81
1, 396033, Note_off_c, 0, 67, 64
1, 396100, Note_on_c, 0, 69, 90
1, 396100, Note_on_c, 0, 57, 79
1, 396100, Note_on_c, 0, 66, 93
1, 396106, Note_on_c, 0, 60, 79
1, 396111, Note_on_c, 0, 55, 69
1, 396127, Note_off_c, 0, 57, 69
1, 396129, Note_off_c, 0, 74, 60
1, 396130, Note_off_c, 0, 60, 70
1, 396138, Note_off_c, 0, 55, 65
1, 396145, Note_off_c, 0, 66, 64
1, 396152, Note_off_c, 0, 69, 64
1, 396249, Note_on_c, 0, 67, 83
1, 396252, Note_on_c, 0, 64, 77
1, 396256, Note_on_c, 0, 55, 74
1, 396261, Note_on_c, 0, 59, 80
1, 396275, Note_off_c, 0, 64, 70
1, 396284, Note_off_c, 0, 55, 67
1, 396284, Note_off_c, 0, 59, 69
1, 396284, Note_off_c, 0, 67, 65
1, 396398, Note_on_c, 0, 55, 89
1, 396401, Note_on_c, 0, 57, 89
1, 396402, Note_on_c, 0, 60, 86
1, 396410, Note_on_c, 0, 69, 83
1, 396423, Note_off_c, 0, 57, 72
1, 396423, Note_off_c, 0, 60, 73
1, 396431, Note_off_c, 0, 55, 67
1, 396466, Note_off_c, 0, 69, 63
1, 396472, Note_on_c, 0, 74, 86
1, 396551, Note_on_c, 0, 76, 82
1, 396551, Note_off_c, 0, 74, 67
1, 396559, Note_on_c, 0, 75, 59
1, 396577, Note_off_c, 0, 75, 62
1, 396591, Note_on_c, 0, 78, 79
1, 396606, Note_off_c, 0, 76, 63
1, 396637, Note_on_c, 0, 79, 91
1, 396642, Note_on_c, 0, 67, 96
1, 396643, Note_on_c, 0, 43, 78
1, 396644, Note_on_c, 0, 59, 100
1, 396645, Note_on_c, 0, 50, 90
1, 396654, Note_on_c, 0, 77, 70
1, 396658, Note_off_c, 0, 78, 59
1, 396668, Note_off_c, 0, 59, 70
1, 396670, Note_off_c, 0, 67, 66
1, 396670, Note_off_c, 0, 77, 62
1, 396671, Note_off_c, 0, 50, 68
1, 396673, Note_off_c, 0, 43, 66
1, 396685, Note_off_c, 0, 79, 67
1, 396875, Note_on_c, 0, 79, 60
1, 396902, Note_off_c, 0, 79, 66
1, 396922, Note_on_c, 0, 78, 79
1, 396962, Note_off_c, 0, 78, 55
1, 396966, Note_on_c, 0, 79, 79
1, 397004, Note_off_c, 0, 79, 64
1, 397127, Note_on_c, 0, 79, 73
1, 397147, Note_off_c, 0, 79, 70
1, 397281, Note_on_c, 0, 76, 75
1, 397281, Note_on_c, 0, 57, 46
1, 397285, Note_on_c, 0, 60, 53
1, 397299, Note_on_c, 0, 67, 49
1, 397308, Note_off_c, 0, 57, 57
1, 397308, Note_off_c, 0, 76, 65
1, 397309, Note_off_c, 0, 60, 63
1, 397325, Note_off_c, 0, 67, 59
1, 397434, Note_on_c, 0, 59, 56
1, 397436, Note_on_c, 0, 74, 72
1, 397440, Note_on_c, 0, 71, 63
1, 397444, Note_on_c, 0, 62, 44
1, 397449, Note_on_c, 0, 55, 44
1, 397457, Note_off_c, 0, 59, 60
1, 397460, Note_off_c, 0, 71, 62
1, 397469, Note_off_c, 0, 74, 59
1, 397472, Note_off_c, 0, 62, 55
1, 397487, Note_off_c, 0, 55, 52
1, 397586, Note_on_c, 0, 60, 86
1, 397588, Note_on_c, 0, 55, 77
1, 397588, Note_on_c, 0, 72, 91
1, 397589, Note_on_c, 0, 69, 92
1, 397591, Control_c, 0, 64, 36
1, 397592, Note_on_c, 0, 64, 79
1, 397601, Note_on_c, 0, 67, 78
1, 397606, Control_c, 0, 64, 73
1, 397609, Note_off_c, 0, 60, 70
1, 397613, Note_off_c, 0, 55, 67
1, 397615, Note_off_c, 0, 64, 70
1, 397621, Control_c, 0, 64, 127
1, 397627, Note_off_c, 0, 67, 63
1, 397742, Note_off_c, 0, 69, 58
1, 397767, Note_off_c, 0, 72, 61
1, 397773, Note_on_c, 0, 76, 84
1, 397833, Note_off_c, 0, 76, 62
1, 397922, Note_on_c, 0, 59, 92
1, 397924, Note_on_c, 0, 43, 77
1, 397928, Note_on_c, 0, 74, 95
1, 397928, Note_on_c, 0, 50, 83
1, 397930, Note_on_c, 0, 71, 90
1, 397934, Note_on_c, 0, 67, 84
1, 397939, Control_c, 0, 64, 93
1, 397946, Note_off_c, 0, 59, 67
1, 397950, Note_off_c, 0, 50, 71
1, 397952, Note_off_c, 0, 43, 67
1, 397952, Note_off_c, 0, 67, 72
1, 397954, Control_c, 0, 64, 63
1, 397959, Note_off_c, 0, 71, 62
1, 397968, Control_c, 0, 64, 0
1, 397971, Note_off_c, 0, 74, 66
1, 398026, Poly_aftertouch_c, 0, 73, 0
1, 398136, Note_on_c, 0, 74, 71
1, 398160, Note_off_c, 0, 74, 70
1, 398192, Note_on_c, 0, 73, 78
1, 398221, Control_c, 0, 67, 45
1, 398236, Note_on_c, 0, 74, 89
1, 398236, Control_c, 0, 67, 74
1, 398237, Note_off_c, 0, 73, 63
1, 398251, Control_c, 0, 67, 97
1, 398265, Control_c, 0, 67, 113
1, 398280, Control_c, 0, 67, 127
1, 398281, Note_off_c, 0, 74, 62
1, 398380, Note_on_c, 0, 74, 86
1, 398388, Note_on_c, 0, 50, 54
1, 398400, Note_off_c, 0, 74, 69
1, 398422, Note_off_c, 0, 50, 65
1, 398530, Note_on_c, 0, 71, 71
1, 398538, Note_on_c, 0, 52, 52
1, 398541, Note_on_c, 0, 67, 58
1, 398542, Note_on_c, 0, 61, 50
1, 398568, Note_off_c, 0, 71, 62
1, 398569, Note_off_c, 0, 67, 62
1, 398572, Note_off_c, 0, 52, 59
1, 398573, Note_off_c, 0, 61, 60
1, 398684, Note_on_c, 0, 69, 73
1, 398694, Note_on_c, 0, 54, 54
1, 398695, Note_on_c, 0, 62, 63
1, 398706, Note_on_c, 0, 60, 42
1, 398714, Note_off_c, 0, 69, 62
1, 398721, Note_off_c, 0, 54, 65
1, 398722, Note_off_c, 0, 62, 65
1, 398733, Note_off_c, 0, 60, 54
1, 398832, Note_on_c, 0, 55, 53
1, 398834, Note_on_c, 0, 59, 62
1, 398834, Note_on_c, 0, 67, 73
1, 398835, Note_on_c, 0, 62, 55
1, 398858, Note_off_c, 0, 55, 58
1, 398858, Note_off_c, 0, 67, 69
1, 398861, Note_off_c, 0, 59, 65
1, 398868, Note_off_c, 0, 62, 63
1, 399001, Note_on_c, 0, 43, 53
1, 399006, Note_on_c, 0, 71, 63
1, 399028, Note_off_c, 0, 43, 56
1, 399038, Note_off_c, 0, 71, 62
1, 399065, Note_on_c, 0, 74, 71
1, 399120, Note_off_c, 0, 74, 51
1, 399147, Note_on_c, 0, 69, 71
1, 399153, Note_on_c, 0, 60, 69
1, 399157, Note_on_c, 0, 66, 74
1, 399163, Note_on_c, 0, 50, 60
1, 399183, Note_off_c, 0, 60, 65
1, 399204, Note_off_c, 0, 50, 62
1, 399212, Note_off_c, 0, 69, 59
1, 399326, Note_on_c, 0, 43, 64
1, 399332, Note_on_c, 0, 69, 66
1, 399348, Note_off_c, 0, 66, 42
1, 399364, Note_off_c, 0, 43, 60
1, 399389, Note_off_c, 0, 69, 61
1, 399400, Note_on_c, 0, 74, 72
1, 399453, Note_off_c, 0, 74, 54
1, 399472, Note_on_c, 0, 67, 76
1, 399475, Note_on_c, 0, 59, 69
1, 399477, Note_on_c, 0, 64, 72
1, 399481, Note_on_c, 0, 50, 61
1, 399506, Note_off_c, 0, 59, 65
1, 399520, Note_off_c, 0, 50, 65
1, 399521, Note_off_c, 0, 67, 61
1, 399633, Note_on_c, 0, 43, 58
1, 399639, Note_on_c, 0, 67, 66
1, 399660, Note_off_c, 0, 64, 43
1, 399672, Note_off_c, 0, 43, 61
1, 399681, Note_off_c, 0, 67, 65
1, 399711, Note_on_c, 0, 74, 78
1, 399779, Note_on_c, 0, 66, 86
1, 399784, Note_on_c, 0, 57, 63
1, 399784, Note_on_c, 0, 62, 76
1, 399786, Note_on_c, 0, 50, 54
1, 399796, Note_off_c, 0, 74, 55
1, 399820, Note_off_c, 0, 57, 62
1, 399827, Note_off_c, 0, 50, 61
1, 399837, Note_off_c, 0, 66, 63
1, 399934, Note_on_c, 0, 43, 64
1, 399946, Note_on_c, 0, 66, 73
1, 399964, Note_off_c, 0, 43, 61
1, 399969, Note_off_c, 0, 62, 58
1, 399987, Note_off_c, 0, 66, 63
1, 400009, Note_on_c, 0, 74, 74
1, 400083, Note_on_c, 0, 60, 77
1, 400084, Note_on_c, 0, 69, 86
1, 400092, Note_on_c, 0, 66, 85
1, 400096, Note_on_c, 0, 50, 64
1, 400101, Note_off_c, 0, 74, 55
1, 400127, Note_off_c, 0, 60, 62
1, 400141, Note_off_c, 0, 50, 61
1, 400150, Note_off_c, 0, 69, 60
1, 400236, Note_off_c, 0, 66, 58
1, 400244, Note_on_c, 0, 43, 68
1, 400247, Note_on_c, 0, 69, 77
1, 400273, Note_off_c, 0, 43, 62
1, 400303, Note_off_c, 0, 69, 62
1, 400311, Note_on_c, 0, 74, 84
1, 400334, Control_c, 0, 67, 123
1, 400349, Control_c, 0, 67, 111
1, 400363, Control_c, 0, 67, 98
1, 400375, Note_on_c, 0, 62, 89
1, 400375, Note_on_c, 0, 71, 94
1, 400377, Note_on_c, 0, 67, 93
1, 400390, Note_on_c, 0, 50, 66
1, 400390, Note_off_c, 0, 74, 64
1, 400392, Control_c, 0, 67, 96
1, 400407, Control_c, 0, 67, 93
1, 400421, Note_off_c, 0, 62, 62
1, 400422, Control_c, 0, 67, 84
1, 400436, Control_c, 0, 67, 74
1, 400437, Note_off_c, 0, 71, 63
1, 400451, Control_c, 0, 67, 65
1, 400466, Control_c, 0, 67, 58
1, 400482, Control_c, 0, 67, 48
1, 400497, Control_c, 0, 67, 0
1, 400513, Note_off_c, 0, 50, 55
1, 400544, Note_on_c, 0, 71, 73
1, 400547, Note_on_c, 0, 43, 71
1, 400561, Note_off_c, 0, 67, 54
1, 400583, Note_off_c, 0, 43, 61
1, 400600, Note_off_c, 0, 71, 60
1, 400604, Note_on_c, 0, 74, 79
1, 400670, Note_on_c, 0, 60, 79
1, 400674, Note_on_c, 0, 69, 79
1, 400678, Note_on_c, 0, 66, 80
1, 400680, Note_off_c, 0, 74, 60
1, 400684, Note_on_c, 0, 50, 60
1, 400704, Note_off_c, 0, 60, 66
1, 400724, Note_off_c, 0, 69, 59
1, 400730, Note_off_c, 0, 50, 60
1, 400771, Note_off_c, 0, 66, 0
1, 400815, Poly_aftertouch_c, 0, 66, 127
1, 400837, Note_on_c, 0, 43, 70
1, 400843, Note_on_c, 0, 69, 73
1, 400865, Poly_aftertouch_c, 0, 66, 0
1, 400877, Note_off_c, 0, 43, 63
1, 400906, Note_off_c, 0, 69, 62
1, 400918, Note_on_c, 0, 74, 69
1, 400945, Note_off_c, 0, 74, 63
1, 400974, Note_on_c, 0, 67, 77
1, 400975, Note_on_c, 0, 59, 66
1, 400977, Note_on_c, 0, 50, 61
1, 400980, Note_on_c, 0, 62, 62
1, 400995, Note_off_c, 0, 67, 70
1, 401001, Note_off_c, 0, 59, 66
1, 401002, Note_off_c, 0, 62, 64
1, 401008, Note_off_c, 0, 50, 65
1, 401138, Note_on_c, 0, 64, 74
1, 401146, Note_on_c, 0, 48, 65
1, 401150, Note_on_c, 0, 55, 55
1, 401153, Note_on_c, 0, 60, 55
1, 401164, Note_off_c, 0, 64, 69
1, 401175, Note_off_c, 0, 55, 58
1, 401176, Note_off_c, 0, 48, 64
1, 401176, Note_off_c, 0, 60, 60
1, 401292, Note_on_c, 0, 67, 78
1, 401296, Note_on_c, 0, 43, 73
1, 401298, Note_on_c, 0, 50, 70
1, 401302, Note_on_c, 0, 59, 59
1, 401323, Note_off_c, 0, 43, 66
1, 401325, Note_off_c, 0, 50, 67
1, 401325, Note_off_c, 0, 59, 62
1, 401326, Note_off_c, 0, 67, 62
1, 401471, Note_on_c, 0, 74, 61
1, 401491, Note_off_c, 0, 74, 64
1, 401506, Note_on_c, 0, 76, 71
1, 401526, Note_on_c, 0, 78, 80
1, 401539, Note_off_c, 0, 76, 66
1, 401558, Note_on_c, 0, 79, 90
1, 401561, Note_off_c, 0, 78, 65
1, 401566, Note_on_c, 0, 59, 94
1, 401567, Note_on_c, 0, 50, 88
1, 401568, Note_on_c, 0, 43, 73
1, 401578, Note_on_c, 0, 67, 96
1, 401588, Note_off_c, 0, 59, 70
1, 401591, Note_off_c, 0, 50, 72
1, 401594, Control_c, 0, 64, 44
1, 401598, Note_off_c, 0, 43, 64
1, 401600, Note_off_c, 0, 79, 68
1, 401607, Note_on_c, 0, 69, 33
1, 401607, Note_off_c, 0, 67, 69
1, 401608, Control_c, 0, 64, 89
1, 401623, Control_c, 0, 64, 127
1, 401647, Note_off_c, 0, 69, 51
1, 401794, Note_on_c, 0, 67, 74
1, 401833, Note_off_c, 0, 67, 58
1, 401860, Note_on_c, 0, 66, 89
1, 401875, Control_c, 0, 64, 93
1, 401889, Control_c, 0, 64, 59
1, 401904, Control_c, 0, 64, 0
1, 401905, Note_off_c, 0, 66, 65
1, 401912, Note_on_c, 0, 67, 97
1, 401947, Note_off_c, 0, 67, 65
1, 401994, Control_c, 0, 67, 58
1, 402008, Control_c, 0, 67, 77
1, 402023, Control_c, 0, 67, 84
1, 402038, Control_c, 0, 67, 88
1, 402053, Control_c, 0, 67, 99
1, 402068, Control_c, 0, 67, 120
1, 402083, Control_c, 0, 67, 127
1, 402096, Poly_aftertouch_c, 0, 56, 0
1, 402125, Note_on_c, 0, 55, 63
1, 402130, Note_on_c, 0, 67, 54
1, 402143, Note_on_c, 0, 79, 57
1, 402153, Note_off_c, 0, 67, 60
1, 402158, Note_off_c, 0, 55, 60
1, 402162, Note_off_c, 0, 79, 64
1, 402215, Note_on_c, 0, 91, 67
1, 402268, Note_on_c, 0, 57, 58
1, 402269, Note_on_c, 0, 88, 68
1, 402272, Note_off_c, 0, 91, 64
1, 402278, Note_on_c, 0, 60, 53
1, 402293, Note_off_c, 0, 57, 64
1, 402309, Note_off_c, 0, 60, 60
1, 402318, Note_off_c, 0, 88, 65
1, 402350, Note_on_c, 0, 84, 67
1, 402378, Note_off_c, 0, 84, 65
1, 402418, Note_on_c, 0, 59, 49
1, 402423, Note_on_c, 0, 83, 69
1, 402444, Note_off_c, 0, 59, 56
1, 402452, Note_off_c, 0, 83, 61
1, 402486, Note_on_c, 0, 86, 69
1, 402519, Note_off_c, 0, 86, 60
1, 402546, Note_on_c, 0, 60, 64
1, 402560, Note_on_c, 0, 84, 71
1, 402561, Note_on_c, 0, 64, 45
1, 402564, Note_on_c, 0, 55, 49
1, 402575, Note_off_c, 0, 60, 66
1, 402590, Note_off_c, 0, 64, 57
1, 402594, Note_off_c, 0, 55, 54
1, 402596, Note_off_c, 0, 84, 61
1, 402623, Note_on_c, 0, 81, 76
1, 402646, Note_off_c, 0, 81, 67
1, 402712, Note_on_c, 0, 43, 34
1, 402716, Note_on_c, 0, 76, 56
1, 402740, Note_off_c, 0, 76, 65
1, 402754, Note_off_c, 0, 43, 47
1, 402768, Note_on_c, 0, 72, 74
1, 402794, Note_off_c, 0, 72, 65
1, 402832, Note_on_c, 0, 59, 89
1, 402832, Note_on_c, 0, 74, 91
1, 402833, Note_on_c, 0, 71, 98
1, 402836, Note_on_c, 0, 50, 70
1, 402852, Note_off_c, 0, 71, 66
1, 402853, Note_off_c, 0, 59, 73
1, 402859, Note_off_c, 0, 74, 62
1, 402860, Note_off_c, 0, 50, 67
1, 402876, Control_c, 0, 64, 70
1, 402891, Control_c, 0, 64, 101
1, 402906, Control_c, 0, 64, 127
1, 403032, Note_on_c, 0, 62, 68
1, 403067, Note_off_c, 0, 62, 65
1, 403088, Note_on_c, 0, 61, 77
1, 403121, Control_c, 0, 64, 74
1, 403131, Note_off_c, 0, 61, 60
1, 403135, Control_c, 0, 64, 0
1, 403138, Note_on_c, 0, 62, 85
1, 403178, Note_off_c, 0, 62, 65
1, 403329, Note_on_c, 0, 50, 60
1, 403339, Note_on_c, 0, 62, 60
1, 403349, Note_on_c, 0, 74, 56
1, 403363, Note_off_c, 0, 50, 64
1, 403370, Note_off_c, 0, 62, 64
1, 403370, Note_off_c, 0, 74, 58
1, 403407, Note_on_c, 0, 86, 68
1, 403461, Note_off_c, 0, 86, 55
1, 403478, Note_on_c, 0, 62, 36
1, 403478, Note_on_c, 0, 83, 77
1, 403484, Note_on_c, 0, 52, 42
1, 403487, Note_on_c, 0, 55, 42
1, 403505, Note_off_c, 0, 83, 60
1, 403508, Note_off_c, 0, 62, 55
1, 403518, Note_off_c, 0, 52, 49
1, 403519, Note_off_c, 0, 55, 50
1, 403553, Note_on_c, 0, 81, 67
1, 403578, Note_off_c, 0, 81, 69
1, 403621, Note_on_c, 0, 79, 65
1, 403628, Note_on_c, 0, 54, 44
1, 403632, Note_on_c, 0, 62, 31
1, 403636, Note_on_c, 0, 57, 31
1, 403651, Note_off_c, 0, 79, 62
1, 403657, Note_off_c, 0, 54, 53
1, 403669, Note_off_c, 0, 62, 52
1, 403671, Note_off_c, 0, 57, 47
1, 403689, Note_on_c, 0, 78, 57
1, 403717, Note_off_c, 0, 78, 64
1, 403756, Note_on_c, 0, 76, 70
1, 403762, Note_on_c, 0, 59, 55
1, 403764, Note_on_c, 0, 55, 55
1, 403770, Note_on_c, 0, 62, 39
1, 403784, Note_off_c, 0, 59, 61
1, 403786, Note_off_c, 0, 76, 63
1, 403791, Note_off_c, 0, 55, 63
1, 403810, Note_off_c, 0, 62, 50
1, 403833, Note_on_c, 0, 74, 74
1, 403859, Note_off_c, 0, 74, 66
1, 403913, Note_on_c, 0, 72, 65
1, 403914, Note_on_c, 0, 43, 68
1, 403939, Note_off_c, 0, 72, 66
1, 403940, Note_off_c, 0, 43, 65
1, 403962, Note_on_c, 0, 71, 74
1, 403998, Note_off_c, 0, 71, 59
1, 404032, Note_on_c, 0, 69, 88
1, 404046, Note_on_c, 0, 60, 79
1, 404048, Note_on_c, 0, 50, 71
1, 404052, Note_on_c, 0, 66, 72
1, 404071, Note_off_c, 0, 60, 69
1, 404077, Note_off_c, 0, 50, 67
1, 404079, Note_off_c, 0, 66, 67
1, 404083, Note_off_c, 0, 69, 61
1, 404126, Note_on_c, 0, 62, 73
1, 404156, Note_off_c, 0, 62, 63
1, 404194, Note_on_c, 0, 43, 49
1, 404203, Note_on_c, 0, 69, 64
1, 404212, Note_on_c, 0, 66, 48
1, 404223, Note_off_c, 0, 43, 53
1, 404237, Note_off_c, 0, 69, 63
1, 404238, Note_off_c, 0, 66, 62
1, 404280, Note_on_c, 0, 74, 83
1, 404326, Note_off_c, 0, 74, 55
1, 404331, Note_on_c, 0, 50, 58
1, 404332, Note_on_c, 0, 59, 63
1, 404338, Note_on_c, 0, 64, 80
1, 404352, Note_on_c, 0, 67, 50
1, 404357, Note_off_c, 0, 59, 64
1, 404360, Note_off_c, 0, 50, 66
1, 404375, Note_off_c, 0, 67, 60
1, 404381, Note_off_c, 0, 64, 65
1, 404421, Note_on_c, 0, 62, 60
1, 404452, Note_off_c, 0, 62, 64
1, 404476, Note_on_c, 0, 43, 57
1, 404486, Note_on_c, 0, 67, 41
1, 404505, Note_on_c, 0, 64, 9
1, 404510, Note_off_c, 0, 43, 62
1, 404539, Note_off_c, 0, 67, 63
1, 404561, Note_off_c, 0, 64, 27
1, 404563, Note_on_c, 0, 74, 60
1, 404583, Note_off_c, 0, 74, 60
1, 404623, Note_on_c, 0, 57, 64
1, 404627, Note_on_c, 0, 66, 76
1, 404638, Note_on_c, 0, 50, 44
1, 404651, Note_off_c, 0, 66, 70
1, 404657, Note_off_c, 0, 57, 64
1, 404669, Note_off_c, 0, 50, 55
1, 404697, Note_on_c, 0, 62, 60
1, 404728, Note_off_c, 0, 62, 62
1, 404762, Note_on_c, 0, 66, 65
1, 404766, Note_on_c, 0, 43, 61
1, 404792, Note_off_c, 0, 43, 62
1, 404805, Note_off_c, 0, 66, 64
1, 404811, Control_c, 0, 67, 106
1, 404826, Control_c, 0, 67, 71
1, 404827, Note_on_c, 0, 69, 59
1, 404840, Control_c, 0, 67, 0
1, 404848, Note_off_c, 0, 69, 62
1, 404903, Note_on_c, 0, 74, 79
1, 404903, Note_on_c, 0, 60, 72
1, 404925, Note_on_c, 0, 50, 46
1, 404930, Note_off_c, 0, 60, 68
1, 404930, Note_off_c, 0, 74, 60
1, 404958, Note_off_c, 0, 50, 52
1, 404972, Note_on_c, 0, 78, 68
1, 404998, Note_off_c, 0, 78, 65
1, 405043, Note_on_c, 0, 81, 74
1, 405053, Note_on_c, 0, 43, 48
1, 405080, Note_off_c, 0, 81, 64
1, 405085, Note_off_c, 0, 43, 51
1, 405118, Note_on_c, 0, 86, 80
1, 405177, Note_on_c, 0, 62, 88
1, 405180, Note_off_c, 0, 86, 58
1, 405189, Note_on_c, 0, 83, 87
1, 405196, Note_on_c, 0, 50, 64
1, 405213, Note_off_c, 0, 62, 66
1, 405231, Note_off_c, 0, 50, 61
1, 405236, Note_off_c, 0, 83, 64
1, 405261, Note_on_c, 0, 86, 90
1, 405330, Note_on_c, 0, 83, 84
1, 405332, Note_on_c, 0, 43, 70
1, 405336, Note_off_c, 0, 86, 65
1, 405369, Note_off_c, 0, 43, 60
1, 405399, Note_on_c, 0, 79, 77
1, 405404, Note_off_c, 0, 83, 63
1, 405440, Note_off_c, 0, 79, 65
1, 405465, Note_on_c, 0, 76, 76
1, 405473, Note_on_c, 0, 59, 75
1, 405481, Note_on_c, 0, 50, 59
1, 405487, Note_off_c, 0, 76, 70
1, 405505, Note_off_c, 0, 59, 65
1, 405517, Note_off_c, 0, 50, 64
1, 405534, Note_on_c, 0, 74, 78
1, 405568, Note_off_c, 0, 74, 60
1, 405604, Note_on_c, 0, 43, 69
1, 405609, Note_on_c, 0, 71, 72
1, 405630, Note_off_c, 0, 43, 65
1, 405635, Note_off_c, 0, 71, 68
1, 405702, Note_on_c, 0, 65, 19
1, 405741, Note_on_c, 0, 69, 79
1, 405744, Note_off_c, 0, 65, 29
1, 405748, Note_on_c, 0, 57, 68
1, 405750, Note_on_c, 0, 55, 71
1, 405751, Note_on_c, 0, 60, 73
1, 405775, Note_off_c, 0, 60, 68
1, 405778, Note_off_c, 0, 55, 65
1, 405778, Note_off_c, 0, 57, 65
1, 405799, Note_off_c, 0, 69, 56
1, 405822, Note_on_c, 0, 62, 74
1, 405852, Note_off_c, 0, 62, 63
1, 405882, Note_on_c, 0, 55, 75
1, 405894, Note_on_c, 0, 59, 74
1, 405894, Note_on_c, 0, 64, 75
1, 405917, Note_off_c, 0, 55, 63
1, 405918, Note_off_c, 0, 59, 67
1, 405927, Note_off_c, 0, 64, 65
1, 405940, Note_on_c, 0, 67, 66
1, 405966, Note_off_c, 0, 67, 66
1, 406017, Note_on_c, 0, 55, 81
1, 406018, Note_on_c, 0, 69, 73
1, 406022, Note_on_c, 0, 57, 70
1, 406027, Note_on_c, 0, 60, 63
1, 406048, Note_off_c, 0, 55, 68
1, 406057, Note_off_c, 0, 57, 66
1, 406064, Note_off_c, 0, 60, 66
1, 406066, Note_off_c, 0, 69, 61
1, 406079, Note_on_c, 0, 74, 83
1, 406148, Note_on_c, 0, 76, 80
1, 406158, Note_off_c, 0, 74, 61
1, 406172, Note_on_c, 0, 43, 74
1, 406205, Note_on_c, 0, 78, 79
1, 406215, Note_off_c, 0, 76, 61
1, 406241, Note_off_c, 0, 43, 62
1, 406245, Note_on_c, 0, 79, 86
1, 406249, Note_on_c, 0, 67, 98
1, 406250, Note_on_c, 0, 50, 82
1, 406252, Note_on_c, 0, 77, 62
1, 406256, Note_off_c, 0, 78, 63
1, 406259, Note_on_c, 0, 59, 100
1, 406277, Note_off_c, 0, 50, 68
1, 406279, Note_off_c, 0, 59, 72
1, 406280, Control_c, 0, 64, 83
1, 406282, Note_off_c, 0, 79, 70
1, 406285, Note_off_c, 0, 67, 65
1, 406285, Note_off_c, 0, 77, 62
1, 406295, Control_c, 0, 64, 127
1, 406456, Note_on_c, 0, 67, 73
1, 406480, Note_off_c, 0, 67, 67
1, 406515, Note_on_c, 0, 66, 82
1, 406546, Control_c, 0, 64, 98
1, 406556, Note_off_c, 0, 66, 63
1, 406557, Note_on_c, 0, 67, 98
1, 406561, Control_c, 0, 64, 57
1, 406576, Control_c, 0, 64, 0
1, 406602, Note_off_c, 0, 67, 64
1, 406695, Control_c, 0, 67, 37
1, 406709, Control_c, 0, 67, 37
1, 406724, Control_c, 0, 67, 41
1, 406739, Control_c, 0, 67, 66
1, 406754, Control_c, 0, 67, 112
1, 406769, Control_c, 0, 67, 127
1, 406772, Note_on_c, 0, 67, 62
1, 406784, Note_on_c, 0, 77, 47
1, 406784, Note_on_c, 0, 79, 44
1, 406807, Note_off_c, 0, 67, 65
1, 406814, Note_off_c, 0, 77, 58
1, 406816, Note_off_c, 0, 79, 58
1, 406817, Note_on_c, 0, 91, 75
1, 406889, Note_off_c, 0, 91, 64
1, 406897, Note_on_c, 0, 84, 72
1, 406900, Note_on_c, 0, 57, 66
1, 406903, Note_on_c, 0, 88, 64
1, 406918, Note_on_c, 0, 60, 54
1, 406927, Note_off_c, 0, 84, 63
1, 406929, Note_off_c, 0, 57, 66
1, 406931, Note_off_c, 0, 88, 67
1, 406939, Note_off_c, 0, 60, 61
1, 406951, Poly_aftertouch_c, 0, 55, 127
1, 406969, Note_on_c, 0, 79, 50
1, 406984, Poly_aftertouch_c, 0, 55, 0
1, 406998, Note_off_c, 0, 79, 59
1, 407033, Note_on_c, 0, 59, 69
1, 407037, Note_on_c, 0, 86, 57
1, 407042, Note_on_c, 0, 80, 50
1, 407045, Note_on_c, 0, 62, 57
1, 407063, Note_off_c, 0, 59, 64
1, 407068, Note_off_c, 0, 62, 61
1, 407071, Note_off_c, 0, 86, 60
1, 407079, Note_on_c, 0, 55, 14
1, 407082, Note_off_c, 0, 80, 62
1, 407093, Note_on_c, 0, 83, 70
1, 407114, Note_off_c, 0, 83, 70
1, 407115, Note_off_c, 0, 55, 26
1, 407157, Note_on_c, 0, 84, 81
1, 407163, Note_on_c, 0, 60, 54
1, 407171, Note_on_c, 0, 55, 51
1, 407185, Note_off_c, 0, 60, 61
1, 407199, Note_off_c, 0, 55, 55
1, 407219, Note_on_c, 0, 81, 84
1, 407225, Note_off_c, 0, 84, 65
1, 407252, Note_off_c, 0, 81, 67
1, 407280, Note_on_c, 0, 76, 79
1, 407300, Note_on_c, 0, 43, 56
1, 407310, Note_off_c, 0, 76, 64
1, 407326, Note_off_c, 0, 43, 58
1, 407365, Note_on_c, 0, 72, 70
1, 407393, Note_off_c, 0, 72, 65
1, 407397, Note_on_c, 0, 74, 90
1, 407409, Note_on_c, 0, 50, 79
1, 407411, Note_on_c, 0, 59, 94
1, 407414, Note_on_c, 0, 71, 94
1, 407431, Note_off_c, 0, 59, 72
1, 407431, Note_off_c, 0, 50, 68
1, 407432, Note_off_c, 0, 74, 67
1, 407443, Control_c, 0, 64, 79
1, 407443, Control_c, 0, 67, 96
1, 407449, Note_off_c, 0, 71, 65
1, 407458, Control_c, 0, 64, 127
1, 407458, Control_c, 0, 67, 0
1, 407599, Note_on_c, 0, 62, 78
1, 407637, Note_off_c, 0, 62, 63
1, 407647, Note_on_c, 0, 61, 74
1, 407688, Control_c, 0, 64, 82
1, 407698, Note_off_c, 0, 61, 63
1, 407702, Note_on_c, 0, 62, 84
1, 407703, Control_c, 0, 64, 51
1, 407703, Control_c, 0, 67, 55
1, 407717, Control_c, 0, 64, 0
1, 407717, Control_c, 0, 67, 79
1, 407732, Control_c, 0, 67, 91
1, 407741, Note_off_c, 0, 62, 64
1, 407747, Control_c, 0, 67, 100
1, 407762, Control_c, 0, 67, 125
1, 407777, Control_c, 0, 67, 127
1, 407875, Note_on_c, 0, 62, 61
1, 407876, Note_on_c, 0, 50, 53
1, 407878, Note_on_c, 0, 74, 70
1, 407899, Note_off_c, 0, 74, 61
1, 407908, Note_off_c, 0, 62, 64
1, 407908, Note_off_c, 0, 50, 65
1, 407941, Note_on_c, 0, 86, 62
1, 407944, Note_on_c, 0, 88, 66
1, 407985, Note_off_c, 0, 88, 58
1, 407991, Note_off_c, 0, 86, 61
1, 408000, Note_on_c, 0, 52, 60
1, 408000, Note_on_c, 0, 79, 78
1, 408002, Note_on_c, 0, 55, 62
1, 408003, Note_on_c, 0, 62, 62
1, 408026, Note_off_c, 0, 52, 62
1, 408028, Note_on_c, 0, 83, 40
1, 408032, Note_off_c, 0, 55, 65
1, 408034, Note_off_c, 0, 62, 64
1, 408037, Note_off_c, 0, 79, 66
1, 408057, Note_off_c, 0, 83, 53
1, 408072, Note_on_c, 0, 74, 67
1, 408099, Note_off_c, 0, 74, 66
1, 408136, Note_on_c, 0, 81, 77
1, 408142, Note_on_c, 0, 57, 56
1, 408143, Note_on_c, 0, 54, 49
1, 408160, Note_on_c, 0, 73, 47
1, 408166, Note_off_c, 0, 54, 59
1, 408171, Note_off_c, 0, 81, 63
1, 408172, Note_off_c, 0, 57, 65
1, 408182, Poly_aftertouch_c, 0, 62, 127
1, 408183, Note_off_c, 0, 73, 57
1, 408215, Note_on_c, 0, 72, 71
1, 408220, Poly_aftertouch_c, 0, 62, 0
1, 408237, Note_off_c, 0, 72, 69
1, 408259, Note_on_c, 0, 59, 69
1, 408263, Note_on_c, 0, 55, 67
1, 408271, Note_on_c, 0, 71, 82
1, 408277, Note_on_c, 0, 62, 38
1, 408278, Note_on_c, 0, 79, 52
1, 408291, Note_off_c, 0, 59, 66
1, 408300, Note_off_c, 0, 55, 65
1, 408313, Note_off_c, 0, 79, 66
1, 408318, Note_off_c, 0, 62, 48
1, 408322, Note_off_c, 0, 71, 62
1, 408365, Note_on_c, 0, 74, 46
1, 408389, Note_off_c, 0, 74, 56
1, 408420, Note_on_c, 0, 43, 69
1, 408426, Note_on_c, 0, 64, 77
1, 408441, Note_off_c, 0, 43, 63
1, 408450, Note_off_c, 0, 64, 69
1, 408492, Note_on_c, 0, 67, 83
1, 408525, Note_off_c, 0, 67, 63
1, 408551, Note_on_c, 0, 60, 88
1, 408552, Note_on_c, 0, 57, 85
1, 408555, Note_on_c, 0, 69, 62
1, 408558, Note_on_c, 0, 62, 74
1, 408569, Note_off_c, 0, 60, 72
1, 408572, Note_off_c, 0, 57, 68
1, 408575, Note_off_c, 0, 69, 65
1, 408581, Note_off_c, 0, 62, 67
1, 408621, Note_on_c, 0, 74, 92
1, 408645, Control_c, 0, 67, 84
1, 408660, Control_c, 0, 67, 0
1, 408683, Note_on_c, 0, 43, 85
1, 408683, Note_on_c, 0, 78, 87
1, 408692, Note_off_c, 0, 74, 59
1, 408708, Note_off_c, 0, 43, 65
1, 408736, Note_off_c, 0, 78, 61
1, 408753, Note_on_c, 0, 81, 84
1, 408770, Note_off_c, 0, 81, 75
1, 408813, Note_on_c, 0, 55, 97
1, 408813, Note_on_c, 0, 59, 103
1, 408817, Note_on_c, 0, 62, 87
1, 408818, Note_on_c, 0, 86, 100
1, 408835, Note_off_c, 0, 59, 70
1, 408835, Note_off_c, 0, 62, 72
1, 408844, Note_off_c, 0, 55, 66
1, 408886, Note_on_c, 0, 90, 99
1, 408895, Note_off_c, 0, 86, 64
1, 408930, Note_off_c, 0, 90, 68
1, 408946, Note_on_c, 0, 43, 90
1, 408960, Note_on_c, 0, 93, 93
1, 408972, Note_off_c, 0, 43, 68
1, 409004, Note_off_c, 0, 93, 65
1, 409025, Note_on_c, 0, 98, 102
1, 409088, Note_on_c, 0, 54, 80
1, 409091, Note_on_c, 0, 62, 81
1, 409091, Note_on_c, 0, 57, 79
1, 409095, Note_on_c, 0, 95, 103
1, 409110, Note_off_c, 0, 54, 71
1, 409112, Note_off_c, 0, 62, 69
1, 409115, Note_off_c, 0, 98, 67
1, 409117, Note_off_c, 0, 57, 68
1, 409134, Note_off_c, 0, 95, 70
1, 409139, Note_on_c, 0, 96, 18
1, 409159, Note_on_c, 0, 93, 105
1, 409179, Note_off_c, 0, 96, 38
1, 409210, Note_off_c, 0, 93, 63
1, 409222, Note_on_c, 0, 43, 71
1, 409225, Note_on_c, 0, 91, 88
1, 409248, Note_off_c, 0, 43, 66
1, 409258, Note_off_c, 0, 91, 69
1, 409292, Note_on_c, 0, 90, 91
1, 409320, Control_c, 0, 67, 50
1, 409335, Control_c, 0, 67, 57
1, 409339, Note_off_c, 0, 90, 67
1, 409347, Note_on_c, 0, 57, 76
1, 409349, Control_c, 0, 67, 62
1, 409352, Note_on_c, 0, 60, 66
1, 409354, Note_on_c, 0, 88, 94
1, 409356, Note_on_c, 0, 62, 61
1, 409364, Control_c, 0, 67, 87
1, 409371, Note_off_c, 0, 60, 65
1, 409373, Note_off_c, 0, 57, 65
1, 409377, Note_off_c, 0, 62, 63
1, 409379, Control_c, 0, 67, 127
1, 409398, Note_off_c, 0, 88, 65
1, 409428, Note_on_c, 0, 86, 73
1, 409450, Note_off_c, 0, 86, 70
1, 409488, Note_on_c, 0, 84, 89
1, 409491, Note_on_c, 0, 43, 59
1, 409520, Note_off_c, 0, 43, 63
1, 409526, Note_off_c, 0, 84, 65
1, 409570, Note_on_c, 0, 83, 82
1, 409608, Note_off_c, 0, 83, 66
1, 409625, Note_on_c, 0, 59, 66
1, 409629, Note_on_c, 0, 55, 66
1, 409632, Note_on_c, 0, 62, 54
1, 409636, Note_on_c, 0, 81, 76
1, 409645, Note_off_c, 0, 59, 64
1, 409655, Note_off_c, 0, 62, 60
1, 409658, Note_off_c, 0, 81, 69
1, 409660, Note_off_c, 0, 55, 64
1, 409722, Note_on_c, 0, 79, 56
1, 409749, Note_off_c, 0, 79, 66
1, 409783, Note_on_c, 0, 43, 52
1, 409811, Note_on_c, 0, 77, 47
1, 409819, Note_off_c, 0, 43, 54
1, 409835, Note_off_c, 0, 77, 58
1, 409876, Note_on_c, 0, 76, 80
1, 409900, Note_off_c, 0, 76, 69
1, 409954, Note_on_c, 0, 54, 55
1, 409959, Note_on_c, 0, 74, 68
1, 409965, Note_on_c, 0, 60, 53
1, 409983, Note_off_c, 0, 54, 65
1, 409991, Note_off_c, 0, 60, 61
1, 409992, Note_off_c, 0, 74, 64
1, 410053, Note_on_c, 0, 72, 70
1, 410077, Note_off_c, 0, 72, 69
1, 410132, Note_on_c, 0, 50, 60
1, 410148, Note_on_c, 0, 60, 24
1, 410150, Note_on_c, 0, 71, 64
1, 410161, Note_off_c, 0, 50, 66
1, 410176, Note_off_c, 0, 71, 65
1, 410187, Note_off_c, 0, 60, 54
1, 410247, Note_on_c, 0, 69, 68
1, 410272, Note_off_c, 0, 69, 70
1, 410374, Note_on_c, 0, 43, 60
1, 410379, Note_on_c, 0, 50, 56
1, 410388, Note_on_c, 0, 67, 62
1, 410397, Note_on_c, 0, 55, 29
1, 410404, Note_off_c, 0, 50, 61
1, 410405, Note_off_c, 0, 43, 64
1, 410415, Note_off_c, 0, 67, 66
1, 410447, Note_off_c, 0, 55, 28
1, 410553, Note_on_c, 0, 57, 50
1, 410578, Note_off_c, 0, 57, 57
1, 410671, Note_on_c, 0, 48, 55
1, 410676, Note_on_c, 0, 55, 35
1, 410695, Note_on_c, 0, 60, 55
1, 410701, Note_off_c, 0, 48, 64
1, 410711, Note_off_c, 0, 55, 47
1, 410719, Note_off_c, 0, 60, 63
1, 410858, Note_on_c, 0, 64, 47
1, 410885, Note_off_c, 0, 64, 59
1, 411046, Note_on_c, 0, 43, 45
1, 411050, Note_on_c, 0, 50, 45
1, 411060, Note_on_c, 0, 59, 38
1, 411062, Note_on_c, 0, 67, 38
1, 411074, Note_off_c, 0, 43, 54
1, 411080, Note_off_c, 0, 50, 53
1, 411092, Note_off_c, 0, 59, 56
1, 411092, Note_off_c, 0, 67, 53
1, 411416, Control_c, 0, 67, 106
1, 411431, Control_c, 0, 67, 69
1, 411446, Control_c, 0, 67, 0
1, 411939, Note_on_c, 0, 38, 74
1, 411968, Note_off_c, 0, 38, 65
1, 412224, Note_on_c, 0, 57, 66
1, 412225, Note_on_c, 0, 54, 64
1, 412231, Note_on_c, 0, 38, 70
1, 412253, Note_off_c, 0, 54, 64
1, 412254, Note_off_c, 0, 57, 65
1, 412260, Note_off_c, 0, 38, 64
1, 412331, Note_on_c, 0, 37, 74
1, 412355, Note_off_c, 0, 37, 66
1, 412427, Note_on_c, 0, 38, 79
1, 412430, Note_on_c, 0, 54, 66
1, 412438, Note_on_c, 0, 62, 59
1, 412450, Note_off_c, 0, 38, 66
1, 412451, Note_off_c, 0, 54, 63
1, 412469, Note_off_c, 0, 62, 64
1, 412667, Note_on_c, 0, 66, 59
1, 412668, Note_on_c, 0, 62, 58
1, 412668, Note_on_c, 0, 36, 69
1, 412693, Note_off_c, 0, 36, 59
1, 412694, Note_off_c, 0, 62, 65
1, 412697, Note_off_c, 0, 66, 66
1, 412881, Note_on_c, 0, 35, 94
1, 412900, Control_c, 0, 64, 58
1, 412915, Control_c, 0, 64, 75
1, 412930, Control_c, 0, 64, 95
1, 412945, Control_c, 0, 64, 127
1, 413009, Note_off_c, 0, 35, 59
1, 413056, Note_on_c, 0, 52, 68
1, 413060, Note_on_c, 0, 59, 63
1, 413063, Control_c, 0, 64, 114
1, 413066, Note_on_c, 0, 55, 46
1, 413078, Control_c, 0, 64, 71
1, 413084, Note_off_c, 0, 52, 63
1, 413088, Note_off_c, 0, 59, 66
1, 413092, Control_c, 0, 64, 0
1, 413095, Note_off_c, 0, 55, 52
1, 413229, Note_on_c, 0, 28, 95
1, 413241, Note_on_c, 0, 64, 74
1, 413256, Note_on_c, 0, 55, 56
1, 413280, Note_on_c, 0, 59, 20
1, 413281, Note_off_c, 0, 59, 41
1, 413282, Note_off_c, 0, 55, 57
1, 413293, Note_off_c, 0, 64, 62
1, 413401, Note_on_c, 0, 64, 69
1, 413404, Note_on_c, 0, 67, 68
1, 413408, Note_off_c, 0, 28, 62
1, 413420, Note_on_c, 0, 59, 37
1, 413428, Note_off_c, 0, 64, 69
1, 413431, Note_off_c, 0, 67, 68
1, 413454, Note_off_c, 0, 59, 32
1, 413550, Note_on_c, 0, 33, 81
1, 413580, Note_off_c, 0, 33, 67
1, 413714, Note_on_c, 0, 33, 76
1, 413731, Note_on_c, 0, 57, 76
1, 413739, Note_off_c, 0, 33, 64
1, 413748, Note_on_c, 0, 52, 56
1, 413759, Note_off_c, 0, 57, 66
1, 413774, Note_off_c, 0, 52, 58
1, 413789, Note_on_c, 0, 32, 88
1, 413831, Note_on_c, 0, 33, 82
1, 413837, Note_on_c, 0, 61, 78
1, 413842, Note_on_c, 0, 52, 74
1, 413846, Note_off_c, 0, 32, 63
1, 413850, Note_on_c, 0, 57, 35
1, 413860, Note_off_c, 0, 33, 69
1, 413867, Note_off_c, 0, 52, 66
1, 413876, Note_off_c, 0, 61, 60
1, 413881, Note_off_c, 0, 57, 47
1, 413999, Note_on_c, 0, 31, 79
1, 414004, Note_on_c, 0, 61, 70
1, 414013, Note_on_c, 0, 64, 69
1, 414019, Note_on_c, 0, 57, 38
1, 414025, Note_off_c, 0, 31, 64
1, 414035, Note_off_c, 0, 61, 64
1, 414041, Note_off_c, 0, 64, 66
1, 414051, Note_off_c, 0, 57, 47
1, 414151, Note_on_c, 0, 30, 96
1, 414322, Note_on_c, 0, 54, 74
1, 414322, Note_on_c, 0, 61, 71
1, 414341, Note_off_c, 0, 30, 62
1, 414347, Note_off_c, 0, 54, 67
1, 414364, Note_off_c, 0, 61, 61
1, 414448, Note_on_c, 0, 35, 94
1, 414456, Note_on_c, 0, 62, 79
1, 414458, Note_on_c, 0, 54, 78
1, 414471, Note_on_c, 0, 59, 69
1, 414484, Note_off_c, 0, 54, 66
1, 414499, Note_off_c, 0, 59, 66
1, 414511, Note_off_c, 0, 62, 65
1, 414610, Note_on_c, 0, 66, 84
1, 414614, Note_on_c, 0, 62, 66
1, 414627, Note_off_c, 0, 35, 62
1, 414643, Note_off_c, 0, 62, 65
1, 414665, Note_off_c, 0, 66, 63
1, 414739, Note_on_c, 0, 40, 83
1, 414773, Note_off_c, 0, 40, 66
1, 414890, Note_on_c, 0, 40, 81
1, 414902, Note_on_c, 0, 67, 70
1, 414906, Note_on_c, 0, 59, 63
1, 414907, Note_on_c, 0, 62, 54
1, 414922, Note_off_c, 0, 40, 67
1, 414925, Note_off_c, 0, 59, 64
1, 414928, Note_off_c, 0, 67, 68
1, 414931, Note_off_c, 0, 62, 60
1, 414956, Note_on_c, 0, 28, 90
1, 415008, Note_on_c, 0, 42, 105
1, 415059, Note_on_c, 0, 43, 36
1, 415064, Note_off_c, 0, 28, 55
1, 415099, Note_off_c, 0, 43, 46
1, 415128, Note_off_c, 0, 42, 57
1, 415171, Note_on_c, 0, 57, 69
1, 415172, Note_on_c, 0, 61, 69
1, 415172, Note_on_c, 0, 66, 75
1, 415197, Note_off_c, 0, 57, 67
1, 415198, Note_off_c, 0, 61, 67
1, 415201, Note_off_c, 0, 66, 66
1, 415235, Note_on_c, 0, 28, 92
1, 415275, Note_off_c, 0, 28, 61
1, 415283, Note_on_c, 0, 43, 102
1, 415405, Note_off_c, 0, 43, 57
1, 415420, Poly_aftertouch_c, 0, 31, 127
1, 415434, Note_on_c, 0, 59, 72
1, 415437, Note_on_c, 0, 64, 67
1, 415438, Note_on_c, 0, 55, 66
1, 415458, Note_off_c, 0, 59, 67
1, 415467, Note_off_c, 0, 64, 67
1, 415469, Note_off_c, 0, 55, 63
1, 415497, Note_on_c, 0, 28, 84
1, 415549, Note_off_c, 0, 28, 53
1, 415558, Note_on_c, 0, 44, 95
1, 415613, Note_off_c, 0, 44, 64
1, 415614, Poly_aftertouch_c, 0, 31, 0
1, 415690, Note_on_c, 0, 62, 76
1, 415697, Note_on_c, 0, 59, 65
1, 415698, Note_on_c, 0, 54, 70
1, 415723, Note_off_c, 0, 59, 65
1, 415724, Note_off_c, 0, 54, 66
1, 415727, Note_off_c, 0, 62, 61
1, 415771, Note_on_c, 0, 28, 63
1, 415808, Note_on_c, 0, 33, 78
1, 415810, Note_off_c, 0, 28, 56
1, 415849, Note_off_c, 0, 33, 61
1, 415885, Note_on_c, 0, 35, 62
1, 415917, Note_off_c, 0, 35, 64
1, 415956, Note_on_c, 0, 37, 69
1, 415968, Note_on_c, 0, 61, 70
1, 415978, Note_on_c, 0, 52, 56
1, 415983, Note_on_c, 0, 57, 45
1, 415983, Note_off_c, 0, 37, 65
1, 415993, Note_off_c, 0, 61, 66
1, 416004, Note_off_c, 0, 52, 57
1, 416009, Note_off_c, 0, 57, 36
1, 416026, Note_on_c, 0, 38, 67
1, 416058, Note_off_c, 0, 38, 63
1, 416088, Note_on_c, 0, 40, 69
1, 416117, Note_off_c, 0, 40, 64
1, 416147, Note_on_c, 0, 39, 86
1, 416189, Note_off_c, 0, 39, 62
1, 416232, Note_on_c, 0, 40, 70
1, 416262, Note_on_c, 0, 55, 74
1, 416262, Note_on_c, 0, 59, 71
1, 416267, Note_on_c, 0, 49, 69
1, 416273, Note_off_c, 0, 40, 63
1, 416287, Note_off_c, 0, 55, 65
1, 416289, Note_on_c, 0, 41, 73
1, 416291, Note_off_c, 0, 59, 64
1, 416292, Note_off_c, 0, 49, 63
1, 416320, Note_off_c, 0, 41, 65
1, 416356, Note_on_c, 0, 42, 106
1, 416391, Note_off_c, 0, 42, 65
1, 416570, Note_on_c, 0, 57, 63
1, 416578, Note_on_c, 0, 50, 58
1, 416590, Note_off_c, 0, 57, 64
1, 416594, Note_on_c, 0, 42, 68
1, 416604, Note_off_c, 0, 50, 59
1, 416623, Note_off_c, 0, 42, 63
1, 416711, Note_on_c, 0, 38, 65
1, 416757, Note_off_c, 0, 38, 63
1, 416823, Note_on_c, 0, 33, 78
1, 416847, Note_off_c, 0, 33, 65
1, 416962, Note_on_c, 0, 52, 59
1, 416994, Note_off_c, 0, 52, 64
1, 417089, Note_on_c, 0, 60, 54
1, 417092, Note_on_c, 0, 56, 59
1, 417122, Note_off_c, 0, 60, 66
1, 417125, Note_off_c, 0, 56, 64
1, 417207, Note_on_c, 0, 61, 74
1, 417234, Note_off_c, 0, 61, 67
1, 417345, Note_on_c, 0, 38, 65
1, 417357, Note_on_c, 0, 50, 63
1, 417373, Note_off_c, 0, 38, 62
1, 417387, Note_off_c, 0, 50, 65
1, 417584, Note_on_c, 0, 57, 54
1, 417587, Note_on_c, 0, 54, 53
1, 417590, Note_on_c, 0, 50, 57
1, 417623, Note_off_c, 0, 50, 62
1, 417637, Note_off_c, 0, 54, 46
1, 417654, Note_on_c, 0, 49, 65
1, 417693, Note_off_c, 0, 49, 64
1, 417715, Note_on_c, 0, 50, 70
1, 417721, Note_off_c, 0, 57, 61
1, 417733, Note_on_c, 0, 62, 68
1, 417741, Note_off_c, 0, 50, 67
1, 417761, Note_off_c, 0, 62, 65
1, 417913, Note_on_c, 0, 60, 69
1, 417930, Note_on_c, 0, 36, 59
1, 417940, Note_off_c, 0, 60, 67
1, 417941, Note_on_c, 0, 48, 45
1, 417958, Note_off_c, 0, 36, 55
1, 417979, Note_off_c, 0, 48, 50
1, 418103, Note_on_c, 0, 59, 76
1, 418106, Note_on_c, 0, 35, 63
1, 418108, Note_on_c, 0, 47, 63
1, 418126, Control_c, 0, 64, 62
1, 418132, Note_off_c, 0, 35, 59
1, 418135, Note_off_c, 0, 47, 63
1, 418141, Control_c, 0, 64, 79
1, 418156, Control_c, 0, 64, 101
1, 418158, Note_off_c, 0, 59, 50
1, 418171, Control_c, 0, 64, 112
1, 418200, Control_c, 0, 64, 117
1, 418215, Control_c, 0, 64, 127
1, 418280, Note_on_c, 0, 66, 65
1, 418285, Note_on_c, 0, 71, 72
1, 418287, Note_on_c, 0, 62, 47
1, 418292, Note_on_c, 0, 54, 61
1, 418308, Note_off_c, 0, 66, 67
1, 418314, Note_off_c, 0, 62, 56
1, 418319, Note_off_c, 0, 71, 60
1, 418326, Note_off_c, 0, 54, 62
1, 418423, Control_c, 0, 64, 83
1, 418432, Note_on_c, 0, 76, 88
1, 418437, Control_c, 0, 64, 47
1, 418438, Note_on_c, 0, 67, 81
1, 418439, Note_on_c, 0, 40, 51
1, 418441, Note_on_c, 0, 52, 64
1, 418448, Note_on_c, 0, 71, 58
1, 418452, Control_c, 0, 64, 0
1, 418459, Note_off_c, 0, 67, 72
1, 418463, Note_off_c, 0, 52, 62
1, 418465, Note_off_c, 0, 76, 63
1, 418469, Note_off_c, 0, 71, 62
1, 418471, Note_off_c, 0, 40, 34
1, 418589, Note_on_c, 0, 55, 79
1, 418593, Note_on_c, 0, 79, 68
1, 418594, Note_on_c, 0, 64, 66
1, 418594, Note_on_c, 0, 71, 61
1, 418609, Note_off_c, 0, 79, 67
1, 418612, Note_off_c, 0, 64, 67
1, 418613, Note_on_c, 0, 74, 42
1, 418613, Note_off_c, 0, 55, 66
1, 418615, Note_off_c, 0, 71, 62
1, 418620, Note_on_c, 0, 76, 26
1, 418641, Note_off_c, 0, 74, 35
1, 418663, Note_off_c, 0, 76, 31
1, 418748, Note_on_c, 0, 69, 80
1, 418749, Note_on_c, 0, 57, 72
1, 418749, Control_c, 0, 64, 45
1, 418761, Note_on_c, 0, 45, 52
1, 418764, Control_c, 0, 64, 81
1, 418776, Note_off_c, 0, 69, 68
1, 418784, Note_off_c, 0, 57, 66
1, 418785, Control_c, 0, 64, 127
1, 418800, Note_off_c, 0, 45, 55
1, 418925, Note_on_c, 0, 57, 59
1, 418928, Note_on_c, 0, 69, 67
1, 418965, Note_off_c, 0, 57, 63
1, 418967, Note_off_c, 0, 69, 57
1, 418989, Note_on_c, 0, 68, 80
1, 419001, Note_on_c, 0, 57, 56
1, 419011, Note_on_c, 0, 56, 54
1, 419030, Note_on_c, 0, 73, 82
1, 419035, Note_on_c, 0, 69, 75
1, 419035, Note_off_c, 0, 56, 61
1, 419035, Note_off_c, 0, 68, 63
1, 419038, Control_c, 0, 64, 72
1, 419047, Note_on_c, 0, 76, 66
1, 419053, Control_c, 0, 64, 0
1, 419057, Note_off_c, 0, 69, 68
1, 419058, Note_off_c, 0, 57, 66
1, 419065, Note_off_c, 0, 76, 66
1, 419076, Note_off_c, 0, 73, 65
1, 419159, Note_on_c, 0, 55, 77
1, 419177, Note_on_c, 0, 67, 89
1, 419181, Note_on_c, 0, 41, 51
1, 419187, Note_off_c, 0, 55, 66
1, 419210, Note_off_c, 0, 67, 68
1, 419219, Note_off_c, 0, 41, 57
1, 419312, Note_on_c, 0, 42, 86
1, 419313, Note_on_c, 0, 54, 90
1, 419315, Note_on_c, 0, 66, 94
1, 419332, Note_off_c, 0, 42, 63
1, 419334, Note_off_c, 0, 54, 69
1, 419334, Control_c, 0, 64, 54
1, 419349, Control_c, 0, 64, 85
1, 419358, Note_off_c, 0, 66, 65
1, 419364, Control_c, 0, 64, 127
1, 419464, Note_on_c, 0, 61, 77
1, 419471, Note_on_c, 0, 54, 67
1, 419474, Note_on_c, 0, 73, 70
1, 419475, Note_on_c, 0, 78, 78
1, 419477, Note_on_c, 0, 57, 46
1, 419487, Note_off_c, 0, 61, 69
1, 419497, Note_off_c, 0, 54, 65
1, 419499, Note_off_c, 0, 73, 69
1, 419503, Note_off_c, 0, 57, 57
1, 419525, Note_off_c, 0, 78, 62
1, 419608, Control_c, 0, 64, 90
1, 419618, Note_on_c, 0, 86, 102
1, 419620, Note_on_c, 0, 35, 95
1, 419620, Note_on_c, 0, 47, 83
1, 419621, Note_on_c, 0, 74, 97
1, 419623, Control_c, 0, 64, 49
1, 419626, Note_on_c, 0, 48, 82
1, 419629, Note_on_c, 0, 78, 73
1, 419638, Control_c, 0, 64, 0
1, 419644, Note_off_c, 0, 35, 66
1, 419645, Note_off_c, 0, 47, 70
1, 419645, Note_off_c, 0, 78, 68
1, 419648, Note_off_c, 0, 74, 66
1, 419655, Note_off_c, 0, 48, 66
1, 419661, Note_off_c, 0, 86, 64
1, 419763, Note_on_c, 0, 54, 81
1, 419769, Note_on_c, 0, 78, 74
1, 419770, Note_on_c, 0, 90, 73
1, 419771, Note_on_c, 0, 62, 70
1, 419785, Note_off_c, 0, 54, 70
1, 419787, Note_off_c, 0, 90, 62
1, 419790, Note_off_c, 0, 62, 66
1, 419792, Note_off_c, 0, 78, 68
1, 419897, Note_on_c, 0, 52, 91
1, 419898, Note_on_c, 0, 79, 91
1, 419900, Note_on_c, 0, 40, 92
1, 419903, Note_on_c, 0, 91, 78
1, 419906, Control_c, 0, 64, 43
1, 419910, Note_on_c, 0, 89, 70
1, 419916, Note_off_c, 0, 91, 71
1, 419919, Note_on_c, 0, 53, 49
1, 419921, Control_c, 0, 64, 77
1, 419923, Note_off_c, 0, 52, 68
1, 419923, Note_off_c, 0, 79, 68
1, 419927, Note_off_c, 0, 40, 66
1, 419935, Note_off_c, 0, 89, 64
1, 419936, Control_c, 0, 64, 127
1, 419948, Note_off_c, 0, 53, 58
1, 419995, Control_c, 0, 64, 91
1, 420010, Control_c, 0, 64, 61
1, 420024, Control_c, 0, 64, 0
1, 420036, Note_on_c, 0, 71, 84
1, 420044, Note_on_c, 0, 55, 69
1, 420046, Note_on_c, 0, 64, 69
1, 420047, Note_on_c, 0, 67, 68
1, 420055, Note_off_c, 0, 71, 71
1, 420063, Note_off_c, 0, 55, 64
1, 420065, Note_off_c, 0, 67, 66
1, 420066, Note_off_c, 0, 64, 67
1, 420067, Note_on_c, 0, 59, 39
1, 420067, Note_off_c, 0, 59, 127
1, 420180, Note_on_c, 0, 90, 93
1, 420181, Note_on_c, 0, 42, 81
1, 420182, Note_on_c, 0, 78, 95
1, 420190, Note_on_c, 0, 53, 72
1, 420195, Note_off_c, 0, 90, 76
1, 420196, Note_off_c, 0, 78, 75
1, 420201, Control_c, 0, 64, 40
1, 420209, Note_off_c, 0, 53, 64
1, 420213, Note_off_c, 0, 42, 63
1, 420215, Note_on_c, 0, 52, 36
1, 420215, Note_off_c, 0, 52, 127
1, 420216, Control_c, 0, 64, 0
1, 420264, Poly_aftertouch_c, 0, 52, 0
1, 420317, Note_on_c, 0, 61, 84
1, 420326, Note_on_c, 0, 73, 76
1, 420328, Note_on_c, 0, 66, 71
1, 420338, Note_off_c, 0, 61, 70
1, 420343, Note_on_c, 0, 69, 54
1, 420346, Note_off_c, 0, 66, 66
1, 420347, Note_off_c, 0, 73, 70
1, 420366, Note_off_c, 0, 69, 59
1, 420455, Note_on_c, 0, 55, 98
1, 420455, Note_on_c, 0, 76, 94
1, 420457, Note_on_c, 0, 88, 91
1, 420463, Note_on_c, 0, 43, 81
1, 420474, Note_off_c, 0, 88, 74
1, 420477, Control_c, 0, 64, 42
1, 420478, Note_on_c, 0, 41, 49
1, 420478, Note_off_c, 0, 41, 127
1, 420484, Note_off_c, 0, 76, 68
1, 420489, Note_off_c, 0, 55, 64
1, 420490, Note_off_c, 0, 43, 65
1, 420492, Note_on_c, 0, 85, 33
1, 420492, Note_off_c, 0, 85, 127
1, 420506, Control_c, 0, 64, 0
1, 420522, Poly_aftertouch_c, 0, 41, 0
1, 420592, Note_on_c, 0, 71, 85
1, 420594, Note_on_c, 0, 55, 74
1, 420595, Note_on_c, 0, 64, 70
1, 420597, Note_on_c, 0, 67, 76
1, 420605, Note_on_c, 0, 59, 50
1, 420610, Note_off_c, 0, 71, 71
1, 420616, Note_off_c, 0, 64, 42
1, 420619, Note_off_c, 0, 67, 71
1, 420623, Note_off_c, 0, 55, 63
1, 420633, Note_off_c, 0, 59, 37
1, 420723, Note_on_c, 0, 44, 99
1, 420728, Note_on_c, 0, 32, 102
1, 420731, Note_on_c, 0, 74, 92
1, 420738, Note_on_c, 0, 86, 68
1, 420745, Note_off_c, 0, 44, 72
1, 420749, Note_off_c, 0, 74, 72
1, 420751, Note_off_c, 0, 32, 64
1, 420755, Note_off_c, 0, 86, 41
1, 420861, Note_on_c, 0, 71, 79
1, 420866, Note_on_c, 0, 54, 82
1, 420869, Note_on_c, 0, 62, 80
1, 420873, Note_on_c, 0, 66, 71
1, 420887, Note_off_c, 0, 54, 69
1, 420888, Note_off_c, 0, 71, 64
1, 420890, Poly_aftertouch_c, 0, 32, 0
1, 420890, Note_off_c, 0, 66, 67
1, 420893, Note_off_c, 0, 62, 68
1, 420992, Note_on_c, 0, 45, 102
1, 420993, Note_on_c, 0, 73, 101
1, 420996, Note_on_c, 0, 33, 91
1, 420996, Note_on_c, 0, 85, 101
1, 421013, Note_on_c, 0, 35, 68
1, 421025, Note_off_c, 0, 45, 70
1, 421026, Note_off_c, 0, 33, 67
1, 421026, Note_off_c, 0, 73, 68
1, 421027, Note_off_c, 0, 85, 65
1, 421045, Note_off_c, 0, 35, 58
1, 421135, Note_on_c, 0, 61, 84
1, 421140, Note_on_c, 0, 57, 74
1, 421145, Note_on_c, 0, 64, 78
1, 421146, Note_on_c, 0, 69, 70
1, 421148, Note_on_c, 0, 52, 71
1, 421152, Note_on_c, 0, 51, 41
1, 421155, Note_off_c, 0, 61, 72
1, 421158, Note_off_c, 0, 57, 65
1, 421164, Note_off_c, 0, 69, 68
1, 421169, Note_off_c, 0, 64, 71
1, 421176, Note_off_c, 0, 52, 67
1, 421197, Note_off_c, 0, 51, 51
1, 421261, Note_on_c, 0, 71, 109
1, 421261, Note_on_c, 0, 83, 97
1, 421264, Note_on_c, 0, 35, 103
1, 421264, Note_on_c, 0, 48, 101
1, 421268, Note_on_c, 0, 47, 92
1, 421283, Note_off_c, 0, 35, 72
1, 421287, Note_off_c, 0, 83, 68
1, 421289, Note_off_c, 0, 47, 71
1, 421290, Note_on_c, 0, 80, 42
1, 421290, Note_off_c, 0, 80, 127
1, 421291, Note_off_c, 0, 71, 68
1, 421294, Note_off_c, 0, 48, 67
1, 421397, Note_on_c, 0, 52, 88
1, 421404, Note_on_c, 0, 67, 73
1, 421412, Note_on_c, 0, 55, 58
1, 421412, Note_on_c, 0, 64, 62
1, 421414, Note_on_c, 0, 59, 63
1, 421420, Note_off_c, 0, 52, 70
1, 421428, Note_off_c, 0, 67, 68
1, 421432, Note_off_c, 0, 64, 65
1, 421434, Note_off_c, 0, 59, 63
1, 421440, Note_off_c, 0, 55, 58
1, 421521, Note_on_c, 0, 49, 98
1, 421523, Note_on_c, 0, 69, 102
1, 421529, Note_on_c, 0, 39, 69
1, 421533, Note_on_c, 0, 79, 65
1, 421538, Note_on_c, 0, 81, 67
1, 421539, Note_on_c, 0, 38, 60
1, 421539, Note_off_c, 0, 38, 127
1, 421539, Note_off_c, 0, 49, 72
1, 421551, Note_off_c, 0, 69, 64
1, 421554, Note_off_c, 0, 39, 61
1, 421554, Note_off_c, 0, 81, 67
1, 421556, Note_off_c, 0, 79, 71
1, 421560, Note_on_c, 0, 50, 42
1, 421599, Note_off_c, 0, 50, 33
1, 421646, Note_on_c, 0, 69, 88
1, 421649, Note_on_c, 0, 64, 85
1, 421650, Note_on_c, 0, 55, 83
1, 421655, Note_on_c, 0, 52, 72
1, 421658, Note_on_c, 0, 57, 76
1, 421672, Note_on_c, 0, 67, 46
1, 421673, Note_off_c, 0, 55, 69
1, 421674, Note_off_c, 0, 64, 67
1, 421682, Note_off_c, 0, 52, 65
1, 421682, Note_off_c, 0, 69, 60
1, 421685, Note_off_c, 0, 57, 66
1, 421698, Note_off_c, 0, 67, 57
1, 421763, Note_on_c, 0, 57, 69
1, 421774, Note_on_c, 0, 50, 88
1, 421775, Note_on_c, 0, 54, 76
1, 421775, Note_on_c, 0, 70, 71
1, 421783, Note_on_c, 0, 66, 66
1, 421787, Note_on_c, 0, 62, 57
1, 421791, Note_on_c, 0, 64, 47
1, 421795, Note_off_c, 0, 50, 67
1, 421798, Note_off_c, 0, 54, 68
1, 421798, Note_off_c, 0, 70, 71
1, 421799, Note_off_c, 0, 57, 65
1, 421803, Note_off_c, 0, 66, 64
1, 421812, Note_off_c, 0, 62, 38
1, 421820, Note_off_c, 0, 64, 36
1, 421951, Note_on_c, 0, 93, 105
1, 421953, Note_on_c, 0, 81, 107
1, 421954, Note_on_c, 0, 26, 93
1, 421955, Note_on_c, 0, 38, 103
1, 421960, Note_on_c, 0, 90, 87
1, 421964, Note_on_c, 0, 92, 71
1, 421964, Note_off_c, 0, 92, 127
1, 421978, Note_off_c, 0, 90, 73
1, 421980, Note_off_c, 0, 26, 72
1, 421981, Note_off_c, 0, 38, 68
1, 421981, Note_off_c, 0, 81, 71
1, 421983, Note_off_c, 0, 93, 66
1, 421997, Note_on_c, 0, 24, 33
1, 422043, Note_off_c, 0, 24, 51
1, 422077, Control_c, 0, 64, 47
1, 422079, Note_on_c, 0, 92, 93
1, 422081, Note_on_c, 0, 84, 108
1, 422082, Note_on_c, 0, 39, 100
1, 422085, Note_on_c, 0, 96, 116
1, 422087, Note_on_c, 0, 27, 94
1, 422093, Control_c, 0, 64, 127
1, 422094, Note_on_c, 0, 95, 81
1, 422094, Note_off_c, 0, 95, 127
1, 422096, Note_off_c, 0, 92, 73
1, 422097, Note_on_c, 0, 91, 81
1, 422100, Note_off_c, 0, 96, 74
1, 422100, Note_on_c, 0, 98, 78
1, 422100, Note_off_c, 0, 98, 127
1, 422102, Note_off_c, 0, 39, 72
1, 422103, Note_on_c, 0, 93, 70
1, 422103, Note_off_c, 0, 84, 77
1, 422112, Note_off_c, 0, 91, 70
1, 422115, Note_off_c, 0, 27, 63
1, 422120, Note_on_c, 0, 30, 42
1, 422125, Note_off_c, 0, 93, 60
1, 422127, Note_on_c, 0, 40, 34
1, 422127, Note_off_c, 0, 40, 127
1, 422160, Note_off_c, 0, 30, 50
1, 422212, Control_c, 0, 64, 72
1, 422213, Poly_aftertouch_c, 0, 39, 0
1, 422226, Control_c, 0, 64, 32
1, 422241, Control_c, 0, 64, 0
1, 422315, Note_on_c, 0, 51, 67
1, 422316, Note_on_c, 0, 60, 73
1, 422319, Note_on_c, 0, 72, 69
1, 422324, Note_on_c, 0, 67, 66
1, 422329, Note_on_c, 0, 57, 53
1, 422341, Note_off_c, 0, 60, 68
1, 422346, Note_off_c, 0, 51, 59
1, 422350, Note_off_c, 0, 67, 68
1, 422355, Note_off_c, 0, 72, 57
1, 422374, Note_on_c, 0, 66, 80
1, 422398, Note_off_c, 0, 57, 65
1, 422416, Note_off_c, 0, 66, 66
1, 422429, Note_on_c, 0, 67, 52
1, 422455, Note_off_c, 0, 67, 60
1, 422545, Note_on_c, 0, 57, 62
1, 422562, Note_on_c, 0, 64, 64
1, 422566, Note_off_c, 0, 57, 62
1, 422578, Note_on_c, 0, 79, 69
1, 422583, Note_on_c, 0, 67, 59
1, 422586, Note_on_c, 0, 73, 59
1, 422609, Note_on_c, 0, 63, 72
1, 422613, Note_off_c, 0, 64, 64
1, 422617, Note_off_c, 0, 73, 62
1, 422666, Note_off_c, 0, 67, 35
1, 422669, Note_off_c, 0, 63, 64
1, 422675, Note_on_c, 0, 64, 79
1, 422684, Note_off_c, 0, 79, 61
1, 422700, Note_off_c, 0, 64, 69
1, 422795, Note_on_c, 0, 62, 77
1, 422796, Note_on_c, 0, 74, 76
1, 422801, Note_on_c, 0, 54, 70
1, 422805, Note_on_c, 0, 69, 61
1, 422818, Note_off_c, 0, 74, 71
1, 422833, Note_off_c, 0, 62, 62
1, 422839, Note_off_c, 0, 69, 61
1, 422839, Note_on_c, 0, 73, 77
1, 422881, Note_on_c, 0, 50, 72
1, 422883, Note_off_c, 0, 54, 60
1, 422885, Note_off_c, 0, 73, 64
1, 422887, Note_on_c, 0, 74, 83
1, 422905, Note_off_c, 0, 74, 73
1, 422907, Note_off_c, 0, 50, 66
1, 423066, Note_on_c, 0, 93, 106
1, 423066, Note_on_c, 0, 81, 107
1, 423071, Note_on_c, 0, 38, 102
1, 423073, Note_on_c, 0, 90, 85
1, 423074, Note_on_c, 0, 26, 89
1, 423087, Note_on_c, 0, 92, 58
1, 423087, Note_off_c, 0, 92, 127
1, 423093, Note_on_c, 0, 24, 72
1, 423093, Note_off_c, 0, 90, 69
1, 423097, Note_off_c, 0, 81, 71
1, 423101, Note_off_c, 0, 26, 67
1, 423101, Note_off_c, 0, 93, 68
1, 423107, Note_off_c, 0, 38, 62
1, 423127, Note_off_c, 0, 24, 35
1, 423182, Control_c, 0, 64, 58
1, 423184, Note_on_c, 0, 39, 117
1, 423184, Note_on_c, 0, 84, 119
1, 423185, Note_on_c, 0, 91, 107
1, 423185, Note_on_c, 0, 96, 107
1, 423191, Note_on_c, 0, 27, 95
1, 423196, Note_on_c, 0, 93, 79
1, 423197, Control_c, 0, 64, 127
1, 423203, Note_off_c, 0, 39, 73
1, 423203, Note_off_c, 0, 91, 69
1, 423205, Note_on_c, 0, 30, 66
1, 423205, Note_off_c, 0, 96, 66
1, 423207, Note_off_c, 0, 84, 75
1, 423209, Note_off_c, 0, 93, 71
1, 423212, Note_on_c, 0, 40, 58
1, 423212, Note_off_c, 0, 40, 127
1, 423215, Note_off_c, 0, 27, 65
1, 423232, Note_off_c, 0, 30, 59
1, 423241, Poly_aftertouch_c, 0, 40, 0
1, 423289, Poly_aftertouch_c, 0, 28, 0
1, 423308, Control_c, 0, 64, 74
1, 423311, Poly_aftertouch_c, 0, 41, 0
1, 423323, Control_c, 0, 64, 43
1, 423338, Control_c, 0, 64, 0
1, 423403, Note_on_c, 0, 60, 83
1, 423406, Note_on_c, 0, 51, 78
1, 423406, Note_on_c, 0, 67, 77
1, 423411, Note_on_c, 0, 57, 75
1, 423412, Note_on_c, 0, 72, 65
1, 423428, Note_off_c, 0, 60, 65
1, 423438, Note_off_c, 0, 67, 60
1, 423443, Note_off_c, 0, 72, 59
1, 423450, Note_off_c, 0, 51, 53
1, 423475, Note_on_c, 0, 66, 83
1, 423514, Note_off_c, 0, 66, 63
1, 423515, Note_off_c, 0, 57, 64
1, 423528, Note_on_c, 0, 67, 53
1, 423552, Note_off_c, 0, 67, 59
1, 423553, Poly_aftertouch_c, 0, 51, 0
1, 423641, Note_on_c, 0, 57, 61
1, 423646, Note_on_c, 0, 64, 73
1, 423662, Note_off_c, 0, 57, 64
1, 423673, Note_on_c, 0, 79, 70
1, 423683, Note_on_c, 0, 67, 48
1, 423703, Note_off_c, 0, 64, 62
1, 423710, Note_off_c, 0, 79, 51
1, 423712, Note_on_c, 0, 63, 79
1, 423723, Note_off_c, 0, 67, 46
1, 423748, Note_off_c, 0, 63, 64
1, 423760, Poly_aftertouch_c, 0, 73, 127
1, 423772, Note_on_c, 0, 64, 77
1, 423785, Poly_aftertouch_c, 0, 73, 0
1, 423787, Poly_aftertouch_c, 0, 79, 127
1, 423804, Note_off_c, 0, 64, 64
1, 423817, Poly_aftertouch_c, 0, 79, 0
1, 423881, Note_on_c, 0, 74, 79
1, 423889, Note_on_c, 0, 54, 75
1, 423892, Note_on_c, 0, 62, 71
1, 423893, Note_on_c, 0, 69, 61
1, 423909, Note_off_c, 0, 74, 61
1, 423930, Note_off_c, 0, 62, 63
1, 423933, Note_off_c, 0, 69, 52
1, 423942, Note_on_c, 0, 73, 71
1, 423977, Note_on_c, 0, 74, 84
1, 423978, Note_off_c, 0, 73, 62
1, 423983, Note_off_c, 0, 54, 58
1, 423984, Note_on_c, 0, 52, 72
1, 423994, Note_off_c, 0, 74, 73
1, 424008, Note_off_c, 0, 52, 66
1, 424139, Note_on_c, 0, 93, 84
1, 424141, Note_on_c, 0, 50, 67
1, 424141, Note_on_c, 0, 81, 84
1, 424142, Note_on_c, 0, 38, 64
1, 424145, Note_on_c, 0, 90, 66
1, 424145, Note_off_c, 0, 90, 127
1, 424154, Note_off_c, 0, 93, 64
1, 424159, Note_off_c, 0, 81, 73
1, 424166, Note_on_c, 0, 92, 37
1, 424166, Note_off_c, 0, 92, 127
1, 424169, Note_off_c, 0, 38, 56
1, 424170, Note_off_c, 0, 50, 65
1, 424249, Control_c, 0, 64, 50
1, 424251, Note_on_c, 0, 95, 71
1, 424258, Note_on_c, 0, 39, 81
1, 424258, Note_on_c, 0, 51, 79
1, 424263, Note_on_c, 0, 83, 84
1, 424264, Control_c, 0, 64, 86
1, 424267, Note_on_c, 0, 91, 59
1, 424267, Note_off_c, 0, 91, 127
1, 424276, Note_off_c, 0, 83, 71
1, 424276, Note_off_c, 0, 95, 69
1, 424279, Note_off_c, 0, 39, 61
1, 424279, Control_c, 0, 64, 127
1, 424285, Note_off_c, 0, 51, 66
1, 424443, Note_on_c, 0, 67, 76
1, 424443, Control_c, 0, 64, 76
1, 424448, Note_on_c, 0, 60, 74
1, 424451, Note_on_c, 0, 51, 75
1, 424457, Note_on_c, 0, 72, 60
1, 424458, Note_on_c, 0, 57, 62
1, 424458, Control_c, 0, 64, 40
1, 424465, Note_off_c, 0, 67, 70
1, 424473, Control_c, 0, 64, 0
1, 424476, Note_off_c, 0, 51, 65
1, 424479, Note_off_c, 0, 57, 62
1, 424481, Note_off_c, 0, 60, 56
1, 424497, Note_on_c, 0, 66, 76
1, 424538, Note_off_c, 0, 72, 0
1, 424538, Note_on_c, 0, 72, 9
1, 424538, Note_off_c, 0, 66, 66
1, 424539, Note_on_c, 0, 67, 75
1, 424562, Note_off_c, 0, 67, 70
1, 424566, Note_off_c, 0, 72, 44
1, 424655, Note_on_c, 0, 38, 67
1, 424659, Note_on_c, 0, 50, 90
1, 424669, Note_on_c, 0, 69, 89
1, 424673, Note_on_c, 0, 78, 80
1, 424676, Note_on_c, 0, 81, 80
1, 424691, Note_off_c, 0, 50, 67
1, 424696, Note_off_c, 0, 81, 72
1, 424698, Note_off_c, 0, 38, 64
1, 424699, Note_off_c, 0, 78, 61
1, 424701, Note_off_c, 0, 69, 65
1, 424798, Note_on_c, 0, 51, 102
1, 424799, Note_on_c, 0, 39, 103
1, 424808, Note_on_c, 0, 84, 94
1, 424809, Note_on_c, 0, 72, 106
1, 424816, Note_on_c, 0, 79, 77
1, 424817, Note_off_c, 0, 51, 71
1, 424820, Note_off_c, 0, 39, 67
1, 424821, Control_c, 0, 64, 70
1, 424827, Note_off_c, 0, 84, 64
1, 424830, Note_off_c, 0, 79, 72
1, 424833, Note_off_c, 0, 72, 71
1, 424836, Control_c, 0, 64, 127
1, 424844, Note_on_c, 0, 83, 27
1, 424844, Note_off_c, 0, 83, 127
1, 424890, Note_on_c, 0, 39, 28
1, 424906, Note_off_c, 0, 39, 67
1, 424981, Note_on_c, 0, 60, 93
1, 424982, Note_on_c, 0, 51, 83
1, 424982, Note_on_c, 0, 67, 80
1, 424984, Note_on_c, 0, 72, 82
1, 424987, Note_on_c, 0, 39, 20
1, 424988, Note_on_c, 0, 57, 67
1, 424997, Note_on_c, 0, 55, 66
1, 425005, Note_off_c, 0, 51, 66
1, 425010, Note_on_c, 0, 50, 55
1, 425011, Note_off_c, 0, 57, 65
1, 425018, Note_off_c, 0, 67, 61
1, 425019, Note_off_c, 0, 55, 62
1, 425021, Note_off_c, 0, 39, 53
1, 425038, Note_off_c, 0, 50, 58
1, 425055, Note_on_c, 0, 66, 80
1, 425091, Note_on_c, 0, 67, 84
1, 425095, Note_off_c, 0, 72, 63
1, 425109, Note_off_c, 0, 60, 59
1, 425109, Note_off_c, 0, 66, 65
1, 425118, Control_c, 0, 64, 93
1, 425131, Note_off_c, 0, 67, 62
1, 425133, Control_c, 0, 64, 58
1, 425147, Control_c, 0, 64, 0
1, 425245, Note_on_c, 0, 38, 90
1, 425247, Note_on_c, 0, 26, 64
1, 425257, Note_on_c, 0, 66, 75
1, 425266, Note_on_c, 0, 54, 81
1, 425281, Note_off_c, 0, 26, 67
1, 425282, Note_off_c, 0, 38, 64
1, 425292, Note_off_c, 0, 54, 65
1, 425296, Note_off_c, 0, 66, 62
1, 425376, Note_on_c, 0, 27, 94
1, 425379, Note_on_c, 0, 39, 102
1, 425391, Note_on_c, 0, 55, 93
1, 425395, Note_on_c, 0, 60, 78
1, 425400, Note_off_c, 0, 27, 65
1, 425400, Control_c, 0, 64, 34
1, 425405, Note_off_c, 0, 39, 70
1, 425415, Control_c, 0, 64, 78
1, 425417, Note_on_c, 0, 56, 49
1, 425417, Note_off_c, 0, 56, 127
1, 425421, Note_off_c, 0, 60, 64
1, 425427, Note_off_c, 0, 55, 63
1, 425430, Control_c, 0, 64, 127
1, 425453, Note_on_c, 0, 57, 90
1, 425495, Note_off_c, 0, 57, 66
1, 425532, Note_on_c, 0, 59, 93
1, 425546, Note_on_c, 0, 67, 83
1, 425547, Note_on_c, 0, 69, 83
1, 425556, Control_c, 0, 64, 74
1, 425561, Note_on_c, 0, 50, 49
1, 425570, Control_c, 0, 64, 0
1, 425571, Note_on_c, 0, 51, 18
1, 425586, Note_off_c, 0, 59, 63
1, 425590, Note_off_c, 0, 50, 61
1, 425594, Note_on_c, 0, 60, 78
1, 425606, Note_off_c, 0, 67, 57
1, 425614, Note_off_c, 0, 60, 71
1, 425618, Note_off_c, 0, 51, 28
1, 425654, Note_on_c, 0, 50, 95
1, 425659, Note_on_c, 0, 66, 96
1, 425659, Note_on_c, 0, 72, 56
1, 425659, Control_c, 0, 64, 60
1, 425672, Note_on_c, 0, 53, 72
1, 425672, Note_on_c, 0, 71, 47
1, 425674, Control_c, 0, 64, 127
1, 425681, Note_off_c, 0, 69, 60
1, 425695, Note_off_c, 0, 50, 66
1, 425696, Note_off_c, 0, 72, 64
1, 425697, Note_on_c, 0, 52, 31
1, 425698, Note_off_c, 0, 53, 65
1, 425698, Note_off_c, 0, 71, 58
1, 425701, Note_off_c, 0, 66, 66
1, 425737, Note_off_c, 0, 52, 52
1, 425762, Note_on_c, 0, 69, 68
1, 425780, Note_off_c, 0, 69, 0
1, 425811, Note_on_c, 0, 79, 78
1, 425817, Note_on_c, 0, 81, 79
1, 425817, Poly_aftertouch_c, 0, 69, 127
1, 425827, Poly_aftertouch_c, 0, 69, 0
1, 425829, Note_on_c, 0, 72, 84
1, 425835, Control_c, 0, 64, 113
1, 425850, Control_c, 0, 64, 58
1, 425865, Control_c, 0, 64, 0
1, 425866, Note_off_c, 0, 72, 65
1, 425891, Note_off_c, 0, 79, 0
1, 425895, Control_c, 0, 64, 35
1, 425900, Note_on_c, 0, 62, 90
1, 425900, Note_on_c, 0, 84, 96
1, 425901, Note_on_c, 0, 66, 94
1, 425909, Control_c, 0, 64, 91
1, 425924, Control_c, 0, 64, 127
1, 425925, Note_off_c, 0, 62, 66
1, 425927, Note_on_c, 0, 78, 40
1, 425927, Note_off_c, 0, 78, 127
1, 425927, Note_off_c, 0, 81, 64
1, 425933, Note_off_c, 0, 66, 70
1, 425933, Poly_aftertouch_c, 0, 79, 0
1, 425956, Note_off_c, 0, 84, 67
1, 425997, Note_on_c, 0, 83, 89
1, 426038, Note_on_c, 0, 81, 84
1, 426042, Note_on_c, 0, 82, 77
1, 426062, Note_on_c, 0, 91, 92
1, 426064, Note_off_c, 0, 82, 63
1, 426077, Note_off_c, 0, 81, 0
1, 426077, Note_off_c, 0, 83, 0
1, 426082, Note_on_c, 0, 93, 67
1, 426103, Control_c, 0, 64, 89
1, 426105, Poly_aftertouch_c, 0, 81, 0
1, 426118, Control_c, 0, 64, 48
1, 426119, Note_off_c, 0, 91, 68
1, 426124, Poly_aftertouch_c, 0, 83, 0
1, 426130, Note_on_c, 0, 74, 103
1, 426133, Control_c, 0, 64, 0
1, 426134, Note_on_c, 0, 78, 82
1, 426138, Note_on_c, 0, 98, 108
1, 426142, Note_on_c, 0, 90, 97
1, 426145, Note_on_c, 0, 81, 55
1, 426146, Note_on_c, 0, 79, 86
1, 426152, Note_off_c, 0, 93, 62
1, 426154, Note_on_c, 0, 89, 90
1, 426154, Note_off_c, 0, 81, 54
1, 426160, Note_on_c, 0, 77, 55
1, 426160, Note_off_c, 0, 77, 127
1, 426162, Note_off_c, 0, 79, 75
1, 426163, Note_on_c, 0, 96, 47
1, 426163, Note_off_c, 0, 96, 127
1, 426163, Control_c, 0, 64, 76
1, 426164, Note_off_c, 0, 74, 70
1, 426165, Note_off_c, 0, 89, 73
1, 426170, Note_off_c, 0, 90, 64
1, 426172, Note_off_c, 0, 98, 73
1, 426175, Note_off_c, 0, 78, 64
1, 426178, Control_c, 0, 64, 127
1, 426392, Control_c, 0, 64, 73
1, 426407, Control_c, 0, 64, 34
1, 426422, Control_c, 0, 64, 0
1, 426614, Control_c, 0, 64, 52
1, 426629, Control_c, 0, 64, 78
1, 426640, Note_on_c, 0, 74, 113
1, 426640, Note_on_c, 0, 84, 68
1, 426640, Note_on_c, 0, 86, 97
1, 426643, Note_on_c, 0, 78, 104
1, 426643, Control_c, 0, 64, 103
1, 426649, Note_on_c, 0, 40, 100
1, 426651, Note_on_c, 0, 50, 93
1, 426654, Note_on_c, 0, 45, 85
1, 426654, Note_on_c, 0, 47, 92
1, 426658, Control_c, 0, 64, 127
1, 426670, Note_off_c, 0, 50, 73
1, 426672, Note_off_c, 0, 40, 70
1, 426673, Note_off_c, 0, 74, 71
1, 426674, Note_off_c, 0, 47, 69
1, 426675, Note_off_c, 0, 45, 67
1, 426676, Note_off_c, 0, 78, 65
1, 426693, Note_off_c, 0, 84, 66
1, 426704, Note_off_c, 0, 86, 67
1, 426792, Control_c, 0, 64, 110
1, 426807, Control_c, 0, 64, 77
1, 426822, Control_c, 0, 64, 52
1, 426837, Control_c, 0, 64, 0
1, 426920, Note_on_c, 0, 38, 105
1, 426922, Note_on_c, 0, 31, 91
1, 426923, Note_on_c, 0, 43, 94
1, 426925, Note_on_c, 0, 83, 104
1, 426926, Note_on_c, 0, 79, 99
1, 426929, Note_on_c, 0, 91, 103
1, 426941, Control_c, 0, 64, 37
1, 426947, Note_on_c, 0, 82, 58
1, 426947, Note_off_c, 0, 82, 127
1, 426956, Control_c, 0, 64, 127
1, 426956, Note_off_c, 0, 31, 64
1, 426956, Note_off_c, 0, 79, 71
1, 426959, Note_off_c, 0, 38, 66
1, 426959, Note_off_c, 0, 43, 63
1, 426959, Note_off_c, 0, 83, 70
1, 426972, Note_on_c, 0, 88, 34
1, 426988, Note_off_c, 0, 91, 67
1, 427012, Note_off_c, 0, 88, 58
1, 427250, Note_on_c, 0, 67, 100
1, 427257, Note_on_c, 0, 91, 101
1, 427297, Note_off_c, 0, 67, 66
1, 427309, Note_off_c, 0, 91, 67
1, 427347, Note_on_c, 0, 66, 93
1, 427347, Note_on_c, 0, 90, 98
1, 427399, Note_off_c, 0, 90, 67
1, 427412, Note_off_c, 0, 66, 59
1, 427421, Note_on_c, 0, 67, 101
1, 427426, Note_on_c, 0, 91, 109
1, 427461, Note_off_c, 0, 67, 67
1, 427479, Note_off_c, 0, 91, 68
1, 427540, Control_c, 0, 64, 99
1, 427555, Control_c, 0, 64, 67
1, 427570, Control_c, 0, 64, 0
1, 427594, Note_on_c, 0, 43, 91
1, 427600, Note_on_c, 0, 55, 96
1, 427600, Note_on_c, 0, 91, 94
1, 427604, Note_on_c, 0, 79, 92
1, 427635, Note_off_c, 0, 55, 63
1, 427637, Note_off_c, 0, 43, 60
1, 427645, Note_off_c, 0, 79, 67
1, 427649, Note_off_c, 0, 91, 65
1, 427660, Control_c, 0, 64, 47
1, 427675, Control_c, 0, 64, 56
1, 427687, Note_on_c, 0, 93, 98
1, 427689, Control_c, 0, 64, 49
1, 427704, Control_c, 0, 64, 29
1, 427719, Control_c, 0, 64, 0
1, 427743, Note_off_c, 0, 93, 58
1, 427749, Note_on_c, 0, 57, 99
1, 427761, Note_on_c, 0, 60, 91
1, 427767, Note_on_c, 0, 88, 101
1, 427771, Control_c, 0, 64, 52
1, 427774, Note_on_c, 0, 79, 92
1, 427778, Note_on_c, 0, 55, 61
1, 427785, Note_on_c, 0, 53, 53
1, 427786, Control_c, 0, 64, 92
1, 427797, Note_off_c, 0, 60, 66
1, 427801, Control_c, 0, 64, 127
1, 427805, Note_off_c, 0, 55, 62
1, 427805, Note_off_c, 0, 57, 66
1, 427808, Note_off_c, 0, 79, 68
1, 427811, Note_off_c, 0, 53, 58
1, 427820, Note_off_c, 0, 88, 67
1, 427850, Note_on_c, 0, 93, 97
1, 427875, Control_c, 0, 64, 103
1, 427889, Control_c, 0, 64, 98
1, 427893, Note_on_c, 0, 55, 87
1, 427900, Note_on_c, 0, 59, 85
1, 427904, Note_on_c, 0, 62, 83
1, 427911, Note_off_c, 0, 93, 63
1, 427914, Note_on_c, 0, 86, 76
1, 427917, Note_on_c, 0, 79, 73
1, 427919, Control_c, 0, 64, 111
1, 427928, Note_off_c, 0, 62, 69
1, 427933, Note_off_c, 0, 55, 61
1, 427934, Control_c, 0, 64, 127
1, 427935, Note_off_c, 0, 59, 60
1, 427951, Note_off_c, 0, 79, 64
1, 427972, Note_on_c, 0, 93, 92
1, 427973, Note_off_c, 0, 86, 64
1, 427993, Control_c, 0, 64, 97
1, 428008, Control_c, 0, 64, 65
1, 428023, Control_c, 0, 64, 0
1, 428027, Note_off_c, 0, 93, 65
1, 428038, Note_on_c, 0, 60, 90
1, 428040, Note_on_c, 0, 55, 92
1, 428040, Note_on_c, 0, 64, 94
1, 428044, Note_on_c, 0, 84, 101
1, 428047, Note_on_c, 0, 79, 87
1, 428053, Control_c, 0, 64, 41
1, 428068, Control_c, 0, 64, 67
1, 428078, Note_off_c, 0, 79, 65
1, 428083, Control_c, 0, 64, 127
1, 428089, Note_off_c, 0, 84, 68
1, 428097, Note_off_c, 0, 64, 60
1, 428114, Note_off_c, 0, 55, 54
1, 428116, Note_on_c, 0, 93, 92
1, 428120, Note_off_c, 0, 60, 56
1, 428151, Note_on_c, 0, 91, 36
1, 428166, Note_on_c, 0, 57, 86
1, 428175, Note_off_c, 0, 93, 62
1, 428181, Note_off_c, 0, 91, 53
1, 428184, Note_on_c, 0, 79, 84
1, 428206, Note_off_c, 0, 57, 62
1, 428213, Note_on_c, 0, 88, 46
1, 428226, Note_off_c, 0, 79, 65
1, 428258, Note_on_c, 0, 93, 94
1, 428272, Note_off_c, 0, 88, 0
1, 428272, Note_on_c, 0, 88, 6
1, 428289, Control_c, 0, 64, 75
1, 428304, Control_c, 0, 64, 31
1, 428312, Note_on_c, 0, 59, 101
1, 428314, Note_on_c, 0, 86, 101
1, 428314, Note_off_c, 0, 88, 48
1, 428315, Note_on_c, 0, 50, 96
1, 428319, Control_c, 0, 64, 0
1, 428321, Note_on_c, 0, 79, 99
1, 428325, Note_on_c, 0, 43, 71
1, 428333, Control_c, 0, 64, 35
1, 428345, Note_off_c, 0, 93, 63
1, 428346, Note_off_c, 0, 43, 62
1, 428346, Note_off_c, 0, 50, 67
1, 428348, Control_c, 0, 64, 62
1, 428349, Note_off_c, 0, 59, 66
1, 428354, Note_off_c, 0, 79, 69
1, 428358, Note_off_c, 0, 86, 70
1, 428363, Control_c, 0, 64, 91
1, 428378, Control_c, 0, 64, 127
1, 428494, Note_on_c, 0, 86, 76
1, 428495, Note_on_c, 0, 62, 87
1, 428533, Note_off_c, 0, 86, 62
1, 428555, Note_on_c, 0, 85, 81
1, 428555, Note_off_c, 0, 62, 61
1, 428574, Note_on_c, 0, 61, 87
1, 428604, Note_on_c, 0, 86, 92
1, 428614, Note_off_c, 0, 85, 65
1, 428617, Note_on_c, 0, 62, 88
1, 428623, Note_off_c, 0, 61, 66
1, 428638, Control_c, 0, 64, 80
1, 428646, Note_off_c, 0, 86, 66
1, 428652, Note_off_c, 0, 62, 65
1, 428653, Control_c, 0, 64, 53
1, 428668, Control_c, 0, 64, 0
1, 428741, Note_on_c, 0, 86, 80
1, 428744, Note_on_c, 0, 48, 82
1, 428747, Note_on_c, 0, 74, 84
1, 428753, Note_on_c, 0, 50, 56
1, 428759, Note_on_c, 0, 62, 64
1, 428765, Note_on_c, 0, 60, 46
1, 428773, Note_off_c, 0, 48, 66
1, 428774, Note_off_c, 0, 74, 66
1, 428781, Note_off_c, 0, 50, 65
1, 428784, Note_off_c, 0, 62, 64
1, 428791, Note_off_c, 0, 60, 59
1, 428812, Note_on_c, 0, 88, 85
1, 428820, Note_off_c, 0, 86, 60
1, 428870, Note_off_c, 0, 88, 64
1, 428881, Note_on_c, 0, 55, 81
1, 428881, Note_on_c, 0, 83, 83
1, 428882, Note_on_c, 0, 62, 64
1, 428887, Note_on_c, 0, 60, 58
1, 428890, Note_on_c, 0, 74, 78
1, 428893, Note_on_c, 0, 52, 63
1, 428914, Note_off_c, 0, 74, 69
1, 428914, Note_off_c, 0, 62, 67
1, 428915, Note_off_c, 0, 52, 61
1, 428915, Note_off_c, 0, 55, 66
1, 428917, Note_off_c, 0, 60, 64
1, 428942, Note_off_c, 0, 83, 56
1, 428953, Note_on_c, 0, 88, 80
1, 429002, Note_off_c, 0, 88, 63
1, 429008, Note_on_c, 0, 81, 80
1, 429016, Note_on_c, 0, 54, 65
1, 429021, Note_on_c, 0, 57, 60
1, 429024, Note_on_c, 0, 62, 65
1, 429033, Note_on_c, 0, 74, 64
1, 429046, Note_off_c, 0, 54, 64
1, 429051, Note_off_c, 0, 57, 65
1, 429051, Note_off_c, 0, 74, 63
1, 429053, Note_off_c, 0, 62, 65
1, 429067, Note_off_c, 0, 81, 61
1, 429082, Note_on_c, 0, 88, 81
1, 429129, Note_off_c, 0, 88, 65
1, 429149, Note_on_c, 0, 79, 76
1, 429150, Note_on_c, 0, 74, 65
1, 429153, Note_on_c, 0, 62, 54
1, 429160, Note_on_c, 0, 55, 50
1, 429164, Note_on_c, 0, 59, 47
1, 429170, Note_on_c, 0, 57, 49
1, 429179, Note_off_c, 0, 74, 68
1, 429182, Note_off_c, 0, 62, 64
1, 429186, Control_c, 0, 67, 41
1, 429188, Note_off_c, 0, 55, 57
1, 429191, Note_off_c, 0, 59, 57
1, 429194, Note_off_c, 0, 79, 63
1, 429197, Note_off_c, 0, 57, 51
1, 429201, Control_c, 0, 67, 61
1, 429216, Control_c, 0, 67, 71
1, 429218, Note_on_c, 0, 88, 78
1, 429232, Control_c, 0, 67, 72
1, 429247, Control_c, 0, 67, 78
1, 429269, Control_c, 0, 67, 93
1, 429272, Note_off_c, 0, 88, 63
1, 429284, Control_c, 0, 67, 107
1, 429296, Note_on_c, 0, 41, 91
1, 429301, Note_on_c, 0, 74, 80
1, 429314, Control_c, 0, 67, 105
1, 429320, Note_off_c, 0, 41, 70
1, 429335, Note_off_c, 0, 74, 63
1, 429363, Note_on_c, 0, 88, 90
1, 429373, Control_c, 0, 67, 108
1, 429402, Control_c, 0, 67, 110
1, 429417, Control_c, 0, 67, 116
1, 429426, Note_on_c, 0, 57, 89
1, 429426, Note_on_c, 0, 60, 92
1, 429429, Note_off_c, 0, 88, 61
1, 429430, Note_on_c, 0, 62, 89
1, 429432, Control_c, 0, 67, 127
1, 429435, Note_on_c, 0, 81, 91
1, 429448, Note_on_c, 0, 86, 74
1, 429451, Note_off_c, 0, 60, 68
1, 429451, Note_off_c, 0, 62, 71
1, 429457, Note_off_c, 0, 57, 65
1, 429469, Note_on_c, 0, 59, 19
1, 429469, Note_off_c, 0, 59, 127
1, 429484, Note_off_c, 0, 81, 67
1, 429501, Note_on_c, 0, 88, 92
1, 429510, Poly_aftertouch_c, 0, 59, 0
1, 429538, Note_off_c, 0, 88, 68
1, 429543, Note_off_c, 0, 86, 48
1, 429564, Note_on_c, 0, 43, 85
1, 429564, Note_on_c, 0, 74, 82
1, 429587, Note_off_c, 0, 74, 67
1, 429589, Note_off_c, 0, 43, 67
1, 429635, Note_on_c, 0, 76, 87
1, 429695, Note_on_c, 0, 59, 92
1, 429698, Note_off_c, 0, 76, 62
1, 429701, Note_on_c, 0, 55, 78
1, 429702, Note_on_c, 0, 62, 72
1, 429705, Note_on_c, 0, 74, 74
1, 429710, Note_on_c, 0, 71, 75
1, 429716, Note_off_c, 0, 59, 71
1, 429728, Note_off_c, 0, 55, 66
1, 429728, Note_off_c, 0, 62, 68
1, 429750, Note_off_c, 0, 71, 66
1, 429775, Note_off_c, 0, 74, 64
1, 429781, Note_on_c, 0, 76, 83
1, 429813, Note_off_c, 0, 76, 64
1, 429828, Note_on_c, 0, 43, 82
1, 429838, Note_on_c, 0, 62, 61
1, 429856, Note_off_c, 0, 43, 69
1, 429868, Note_off_c, 0, 62, 64
1, 429897, Note_on_c, 0, 76, 95
1, 429957, Note_on_c, 0, 62, 78
1, 429958, Note_on_c, 0, 54, 80
1, 429960, Note_on_c, 0, 69, 86
1, 429965, Note_off_c, 0, 76, 63
1, 429966, Note_on_c, 0, 57, 70
1, 429969, Note_on_c, 0, 74, 84
1, 429985, Note_off_c, 0, 62, 66
1, 429990, Note_off_c, 0, 57, 67
1, 429999, Note_off_c, 0, 54, 63
1, 430013, Note_off_c, 0, 69, 65
1, 430019, Note_on_c, 0, 76, 76
1, 430038, Note_off_c, 0, 74, 65
1, 430049, Note_off_c, 0, 76, 67
1, 430089, Note_on_c, 0, 74, 82
1, 430095, Note_on_c, 0, 43, 93
1, 430123, Note_off_c, 0, 43, 69
1, 430124, Note_off_c, 0, 74, 64
1, 430136, Control_c, 0, 67, 112
1, 430151, Control_c, 0, 67, 92
1, 430154, Note_on_c, 0, 88, 93
1, 430166, Control_c, 0, 67, 82
1, 430181, Control_c, 0, 67, 80
1, 430196, Control_c, 0, 67, 79
1, 430210, Control_c, 0, 67, 77
1, 430212, Note_on_c, 0, 81, 98
1, 430217, Note_on_c, 0, 57, 96
1, 430217, Note_on_c, 0, 60, 103
1, 430220, Note_on_c, 0, 62, 98
1, 430220, Note_on_c, 0, 86, 71
1, 430222, Note_off_c, 0, 88, 43
1, 430225, Control_c, 0, 67, 74
1, 430239, Note_on_c, 0, 59, 60
1, 430239, Note_off_c, 0, 59, 127
1, 430240, Control_c, 0, 67, 71
1, 430241, Note_off_c, 0, 62, 68
1, 430248, Note_off_c, 0, 60, 69
1, 430255, Control_c, 0, 67, 72
1, 430259, Note_off_c, 0, 57, 67
1, 430262, Note_off_c, 0, 81, 67
1, 430282, Note_on_c, 0, 88, 82
1, 430297, Note_off_c, 0, 86, 67
1, 430314, Control_c, 0, 67, 71
1, 430315, Note_off_c, 0, 88, 65
1, 430329, Control_c, 0, 67, 67
1, 430344, Control_c, 0, 67, 61
1, 430351, Note_on_c, 0, 43, 98
1, 430358, Control_c, 0, 67, 48
1, 430362, Note_on_c, 0, 86, 82
1, 430373, Control_c, 0, 67, 44
1, 430381, Note_off_c, 0, 86, 72
1, 430382, Note_off_c, 0, 43, 64
1, 430388, Control_c, 0, 67, 43
1, 430403, Control_c, 0, 67, 40
1, 430417, Control_c, 0, 67, 37
1, 430420, Note_on_c, 0, 100, 92
1, 430432, Control_c, 0, 67, 34
1, 430447, Control_c, 0, 67, 35
1, 430462, Control_c, 0, 67, 41
1, 430476, Note_on_c, 0, 59, 103
1, 430477, Control_c, 0, 67, 40
1, 430478, Note_on_c, 0, 55, 97
1, 430479, Note_on_c, 0, 62, 98
1, 430488, Note_on_c, 0, 95, 93
1, 430490, Note_on_c, 0, 98, 74
1, 430491, Note_on_c, 0, 96, 77
1, 430491, Control_c, 0, 67, 37
1, 430502, Note_off_c, 0, 100, 66
1, 430503, Note_off_c, 0, 62, 67
1, 430505, Note_on_c, 0, 57, 43
1, 430505, Note_off_c, 0, 57, 127
1, 430506, Control_c, 0, 67, 35
1, 430509, Note_off_c, 0, 59, 68
1, 430520, Note_off_c, 0, 55, 65
1, 430521, Control_c, 0, 67, 37
1, 430536, Control_c, 0, 67, 39
1, 430543, Note_off_c, 0, 95, 66
1, 430551, Control_c, 0, 67, 36
1, 430554, Note_on_c, 0, 100, 84
1, 430566, Control_c, 0, 67, 0
1, 430569, Note_off_c, 0, 96, 63
1, 430595, Note_off_c, 0, 100, 65
1, 430598, Note_on_c, 0, 86, 83
1, 430598, Note_off_c, 0, 98, 63
1, 430606, Note_on_c, 0, 40, 89
1, 430623, Note_off_c, 0, 86, 66
1, 430631, Note_off_c, 0, 40, 67
1, 430676, Note_on_c, 0, 86, 87
1, 430688, Note_on_c, 0, 84, 58
1, 430688, Note_off_c, 0, 84, 127
1, 430721, Note_on_c, 0, 55, 91
1, 430724, Note_on_c, 0, 52, 85
1, 430725, Note_on_c, 0, 62, 86
1, 430736, Note_on_c, 0, 83, 70
1, 430745, Note_off_c, 0, 62, 73
1, 430759, Note_off_c, 0, 55, 66
1, 430764, Note_off_c, 0, 52, 65
1, 430795, Note_off_c, 0, 83, 63
1, 430801, Note_on_c, 0, 84, 19
1, 430801, Note_off_c, 0, 84, 127
1, 430825, Note_off_c, 0, 86, 68
1, 430844, Note_on_c, 0, 43, 96
1, 430848, Note_on_c, 0, 74, 90
1, 430876, Note_off_c, 0, 74, 65
1, 430888, Note_off_c, 0, 43, 62
1, 430912, Note_on_c, 0, 76, 92
1, 430933, Note_on_c, 0, 74, 53
1, 430956, Note_off_c, 0, 74, 57
1, 430978, Note_on_c, 0, 60, 87
1, 430978, Note_on_c, 0, 74, 91
1, 430980, Note_on_c, 0, 54, 80
1, 430983, Note_on_c, 0, 69, 93
1, 430986, Note_off_c, 0, 76, 63
1, 431004, Note_off_c, 0, 54, 67
1, 431013, Note_off_c, 0, 60, 66
1, 431029, Note_off_c, 0, 69, 62
1, 431046, Note_on_c, 0, 76, 92
1, 431101, Note_off_c, 0, 74, 29
1, 431105, Note_on_c, 0, 52, 86
1, 431107, Note_on_c, 0, 72, 88
1, 431113, Note_on_c, 0, 60, 82
1, 431115, Note_on_c, 0, 67, 86
1, 431117, Note_off_c, 0, 76, 66
1, 431148, Note_off_c, 0, 60, 64
1, 431150, Note_off_c, 0, 52, 63
1, 431157, Note_off_c, 0, 67, 64
1, 431157, Note_off_c, 0, 72, 64
1, 431180, Note_on_c, 0, 76, 84
1, 431212, Note_on_c, 0, 74, 99
1, 431221, Note_on_c, 0, 50, 102
1, 431221, Note_on_c, 0, 62, 106
1, 431221, Note_on_c, 0, 54, 97
1, 431224, Note_on_c, 0, 69, 99
1, 431243, Note_on_c, 0, 53, 52
1, 431251, Note_off_c, 0, 62, 67
1, 431251, Note_off_c, 0, 69, 69
1, 431255, Note_off_c, 0, 76, 65
1, 431257, Note_off_c, 0, 74, 70
1, 431259, Note_off_c, 0, 54, 65
1, 431260, Note_on_c, 0, 56, 31
1, 431260, Note_off_c, 0, 56, 127
1, 431266, Note_off_c, 0, 50, 68
1, 431269, Note_off_c, 0, 53, 58
1, 431270, Control_c, 0, 64, 71
1, 431285, Control_c, 0, 64, 127
1, 431357, Note_on_c, 0, 49, 67
1, 431359, Control_c, 0, 64, 96
1, 431373, Control_c, 0, 64, 71
1, 431388, Control_c, 0, 64, 32
1, 431402, Note_off_c, 0, 49, 55
1, 431403, Control_c, 0, 64, 0
1, 431436, Note_on_c, 0, 90, 94
1, 431450, Note_on_c, 0, 88, 59
1, 431451, Note_on_c, 0, 91, 99
1, 431460, Note_off_c, 0, 90, 72
1, 431466, Note_on_c, 0, 50, 99
1, 431467, Note_on_c, 0, 43, 95
1, 431467, Note_on_c, 0, 47, 94
1, 431469, Note_on_c, 0, 57, 102
1, 431470, Note_off_c, 0, 88, 62
1, 431478, Note_on_c, 0, 81, 87
1, 431482, Note_on_c, 0, 79, 91
1, 431483, Note_on_c, 0, 55, 71
1, 431492, Note_on_c, 0, 48, 54
1, 431493, Note_off_c, 0, 57, 68
1, 431493, Control_c, 0, 64, 83
1, 431494, Note_on_c, 0, 51, 50
1, 431494, Note_off_c, 0, 51, 127
1, 431495, Note_off_c, 0, 43, 67
1, 431496, Note_off_c, 0, 81, 72
1, 431496, Note_off_c, 0, 91, 71
1, 431510, Note_off_c, 0, 79, 66
1, 431512, Note_off_c, 0, 47, 65
1, 431512, Note_off_c, 0, 50, 67
1, 431514, Control_c, 0, 64, 127
1, 431517, Note_off_c, 0, 55, 36
1, 431533, Note_off_c, 0, 48, 53
1, 431678, Note_on_c, 0, 59, 88
1, 431680, Note_on_c, 0, 62, 95
1, 431683, Note_on_c, 0, 67, 97
1, 431685, Note_on_c, 0, 55, 82
1, 431696, Note_on_c, 0, 79, 97
1, 431706, Note_on_c, 0, 66, 78
1, 431707, Note_off_c, 0, 67, 66
1, 431710, Note_off_c, 0, 55, 64
1, 431716, Note_off_c, 0, 62, 66
1, 431720, Note_off_c, 0, 59, 65
1, 431722, Note_off_c, 0, 66, 69
1, 431726, Note_off_c, 0, 79, 71
1, 431752, Note_on_c, 0, 62, 98
1, 431752, Note_on_c, 0, 67, 100
1, 431757, Note_on_c, 0, 55, 92
1, 431758, Note_on_c, 0, 59, 92
1, 431782, Control_c, 0, 64, 111
1, 431797, Note_off_c, 0, 67, 65
1, 431797, Control_c, 0, 64, 66
1, 431809, Note_off_c, 0, 62, 63
1, 431812, Control_c, 0, 64, 0
1, 431815, Note_off_c, 0, 59, 63
1, 431816, Note_off_c, 0, 55, 63
1, 431838, Note_on_c, 0, 80, 30
1, 431838, Note_off_c, 0, 80, 127
1, 431885, Note_on_c, 0, 79, 78
1, 431906, Note_on_c, 0, 67, 86
1, 431912, Note_on_c, 0, 62, 82
1, 431918, Note_on_c, 0, 55, 72
1, 431918, Note_on_c, 0, 59, 59
1, 431932, Note_on_c, 0, 81, 70
1, 431934, Note_on_c, 0, 60, 51
1, 431940, Note_on_c, 0, 83, 67
1, 431940, Note_off_c, 0, 67, 64
1, 431941, Note_off_c, 0, 79, 65
1, 431950, Note_off_c, 0, 62, 64
1, 431957, Note_off_c, 0, 59, 67
1, 431960, Note_off_c, 0, 60, 59
1, 431963, Note_off_c, 0, 55, 62
1, 431969, Note_on_c, 0, 57, 12
1, 431969, Note_off_c, 0, 57, 127
1, 431974, Note_off_c, 0, 81, 66
1, 431993, Note_off_c, 0, 83, 67
1, 432027, Note_on_c, 0, 60, 88
1, 432032, Note_on_c, 0, 55, 87
1, 432032, Note_on_c, 0, 64, 97
1, 432033, Note_on_c, 0, 84, 81
1, 432064, Note_on_c, 0, 83, 13
1, 432070, Note_on_c, 0, 86, 87
1, 432072, Note_off_c, 0, 64, 65
1, 432077, Note_off_c, 0, 55, 59
1, 432078, Note_off_c, 0, 60, 66
1, 432110, Note_off_c, 0, 83, 27
1, 432113, Note_off_c, 0, 84, 57
1, 432125, Note_on_c, 0, 87, 49
1, 432127, Note_on_c, 0, 90, 85
1, 432128, Note_on_c, 0, 88, 73
1, 432131, Note_off_c, 0, 86, 67
1, 432148, Note_off_c, 0, 88, 72
1, 432150, Note_on_c, 0, 62, 96
1, 432150, Note_off_c, 0, 87, 54
1, 432151, Note_on_c, 0, 59, 92
1, 432151, Note_off_c, 0, 90, 65
1, 432153, Note_on_c, 0, 55, 94
1, 432185, Note_on_c, 0, 89, 13
1, 432193, Note_off_c, 0, 55, 62
1, 432193, Note_off_c, 0, 62, 66
1, 432193, Note_on_c, 0, 91, 86
1, 432205, Note_off_c, 0, 59, 67
1, 432232, Note_off_c, 0, 89, 63
1, 432239, Note_on_c, 0, 93, 85
1, 432268, Note_on_c, 0, 95, 96
1, 432271, Note_off_c, 0, 91, 60
1, 432272, Note_on_c, 0, 57, 95
1, 432274, Note_on_c, 0, 60, 97
1, 432279, Note_on_c, 0, 55, 76
1, 432291, Note_off_c, 0, 93, 65
1, 432306, Note_on_c, 0, 96, 39
1, 432309, Note_off_c, 0, 95, 64
1, 432314, Note_off_c, 0, 55, 60
1, 432320, Note_off_c, 0, 60, 67
1, 432339, Note_off_c, 0, 57, 62
1, 432340, Note_off_c, 0, 96, 0
1, 432340, Note_on_c, 0, 96, 38
1, 432375, Note_on_c, 0, 98, 67
1, 432387, Note_on_c, 0, 60, 90
1, 432394, Note_on_c, 0, 64, 96
1, 432402, Note_on_c, 0, 100, 50
1, 432402, Note_on_c, 0, 102, 81
1, 432411, Note_off_c, 0, 96, 65
1, 432421, Note_on_c, 0, 103, 96
1, 432426, Note_on_c, 0, 57, 31
1, 432428, Note_off_c, 0, 57, 42
1, 432428, Note_off_c, 0, 98, 65
1, 432429, Note_off_c, 0, 100, 62
1, 432431, Note_off_c, 0, 60, 65
1, 432433, Note_off_c, 0, 64, 67
1, 432441, Note_off_c, 0, 102, 68
1, 432491, Note_on_c, 0, 96, 109
1, 432492, Note_on_c, 0, 100, 101
1, 432496, Note_on_c, 0, 98, 104
1, 432501, Control_c, 0, 64, 34
1, 432509, Note_on_c, 0, 55, 93
1, 432512, Note_on_c, 0, 43, 97
1, 432515, Note_off_c, 0, 103, 68
1, 432516, Control_c, 0, 64, 127
1, 432521, Note_on_c, 0, 46, 74
1, 432521, Note_off_c, 0, 46, 127
1, 432527, Note_off_c, 0, 98, 69
1, 432529, Note_off_c, 0, 100, 66
1, 432530, Note_off_c, 0, 55, 68
1, 432533, Note_off_c, 0, 96, 69
1, 432534, Note_off_c, 0, 43, 70
1, 432690, Note_on_c, 0, 55, 92
1, 432690, Note_on_c, 0, 59, 94
1, 432690, Note_on_c, 0, 62, 94
1, 432709, Control_c, 0, 64, 69
1, 432717, Note_on_c, 0, 74, 96
1, 432720, Note_off_c, 0, 55, 67
1, 432724, Note_off_c, 0, 62, 66
1, 432724, Control_c, 0, 64, 0
1, 432728, Note_off_c, 0, 59, 64
1, 432756, Note_off_c, 0, 74, 69
1, 432760, Note_on_c, 0, 61, 36
1, 432782, Note_on_c, 0, 62, 101
1, 432783, Note_on_c, 0, 55, 93
1, 432783, Note_on_c, 0, 59, 100
1, 432795, Note_off_c, 0, 61, 37
1, 432813, Note_off_c, 0, 62, 68
1, 432819, Note_off_c, 0, 55, 57
1, 432822, Note_off_c, 0, 59, 60
1, 432918, Note_on_c, 0, 79, 68
1, 432920, Note_on_c, 0, 50, 91
1, 432921, Note_on_c, 0, 60, 96
1, 432956, Note_off_c, 0, 60, 65
1, 432957, Note_on_c, 0, 81, 78
1, 432962, Note_off_c, 0, 50, 66
1, 432968, Note_off_c, 0, 79, 60
1, 433004, Note_on_c, 0, 83, 88
1, 433019, Note_off_c, 0, 81, 66
1, 433028, Note_off_c, 0, 83, 63
1, 433037, Note_on_c, 0, 59, 102
1, 433042, Note_on_c, 0, 55, 88
1, 433050, Note_on_c, 0, 52, 75
1, 433059, Note_on_c, 0, 84, 26
1, 433074, Note_off_c, 0, 52, 66
1, 433082, Note_off_c, 0, 59, 65
1, 433090, Note_off_c, 0, 55, 62
1, 433118, Note_on_c, 0, 88, 75
1, 433134, Note_on_c, 0, 86, 67
1, 433140, Note_on_c, 0, 89, 80
1, 433144, Note_off_c, 0, 84, 61
1, 433153, Note_on_c, 0, 57, 104
1, 433154, Note_off_c, 0, 86, 40
1, 433156, Note_on_c, 0, 54, 94
1, 433160, Note_on_c, 0, 91, 79
1, 433165, Note_off_c, 0, 88, 65
1, 433174, Note_off_c, 0, 89, 64
1, 433185, Note_off_c, 0, 91, 71
1, 433196, Note_off_c, 0, 57, 63
1, 433213, Note_off_c, 0, 54, 61
1, 433214, Note_on_c, 0, 91, 87
1, 433250, Note_off_c, 0, 91, 69
1, 433269, Note_on_c, 0, 55, 109
1, 433275, Note_on_c, 0, 98, 103
1, 433278, Note_on_c, 0, 100, 97
1, 433301, Note_off_c, 0, 100, 64
1, 433309, Control_c, 0, 67, 51
1, 433324, Control_c, 0, 67, 78
1, 433353, Control_c, 0, 67, 82
1, 433368, Control_c, 0, 67, 87
1, 433383, Control_c, 0, 67, 93
1, 433384, Note_on_c, 0, 91, 93
1, 433398, Control_c, 0, 67, 95
1, 433427, Control_c, 0, 67, 96
1, 433442, Control_c, 0, 67, 105
1, 433451, Note_off_c, 0, 98, 63
1, 433457, Control_c, 0, 67, 127
1, 433480, Note_off_c, 0, 91, 67
1, 433496, Note_on_c, 0, 86, 84
1, 433505, Note_on_c, 0, 59, 87
1, 433511, Note_off_c, 0, 55, 65
1, 433517, Note_off_c, 0, 86, 67
1, 433532, Note_off_c, 0, 59, 66
1, 433594, Note_on_c, 0, 83, 84
1, 433649, Note_off_c, 0, 83, 59
1, 433684, Note_on_c, 0, 57, 68
1, 433685, Note_on_c, 0, 81, 65
1, 433687, Note_on_c, 0, 60, 65
1, 433702, Note_on_c, 0, 78, 69
1, 433706, Note_off_c, 0, 60, 64
1, 433711, Note_off_c, 0, 57, 66
1, 433713, Note_off_c, 0, 81, 63
1, 433716, Note_on_c, 0, 62, 17
1, 433727, Note_off_c, 0, 62, 37
1, 433737, Note_off_c, 0, 78, 57
1, 433789, Note_on_c, 0, 74, 68
1, 433815, Note_off_c, 0, 74, 67
1, 433863, Note_on_c, 0, 41, 58
1, 433866, Note_on_c, 0, 78, 63
1, 433875, Note_on_c, 0, 81, 59
1, 433892, Note_off_c, 0, 41, 57
1, 433899, Note_off_c, 0, 78, 60
1, 433902, Note_off_c, 0, 81, 68
1, 433951, Note_on_c, 0, 86, 77
1, 434004, Note_off_c, 0, 86, 51
1, 434015, Note_on_c, 0, 59, 66
1, 434017, Note_on_c, 0, 55, 63
1, 434020, Note_on_c, 0, 62, 57
1, 434029, Note_on_c, 0, 79, 67
1, 434030, Note_on_c, 0, 76, 77
1, 434035, Note_off_c, 0, 59, 63
1, 434043, Note_off_c, 0, 62, 61
1, 434045, Note_off_c, 0, 55, 65
1, 434060, Note_off_c, 0, 76, 62
1, 434062, Note_off_c, 0, 79, 59
1, 434113, Note_on_c, 0, 74, 76
1, 434143, Note_off_c, 0, 74, 58
1, 434172, Note_on_c, 0, 76, 67
1, 434173, Note_on_c, 0, 43, 62
1, 434194, Note_on_c, 0, 79, 58
1, 434204, Note_off_c, 0, 43, 64
1, 434208, Note_off_c, 0, 76, 61
1, 434233, Note_off_c, 0, 79, 62
1, 434249, Note_on_c, 0, 86, 77
1, 434304, Note_off_c, 0, 86, 55
1, 434322, Note_on_c, 0, 54, 65
1, 434325, Note_on_c, 0, 78, 75
1, 434328, Note_on_c, 0, 62, 54
1, 434347, Note_off_c, 0, 78, 68
1, 434349, Note_off_c, 0, 54, 65
1, 434351, Note_off_c, 0, 62, 60
1, 434389, Note_on_c, 0, 74, 77
1, 434411, Note_off_c, 0, 74, 68
1, 434456, Note_on_c, 0, 43, 67
1, 434459, Note_on_c, 0, 78, 73
1, 434488, Note_off_c, 0, 43, 64
1, 434489, Note_off_c, 0, 78, 60
1, 434521, Note_on_c, 0, 86, 79
1, 434586, Note_on_c, 0, 81, 71
1, 434589, Note_off_c, 0, 86, 61
1, 434596, Note_on_c, 0, 60, 68
1, 434602, Note_on_c, 0, 57, 65
1, 434613, Note_on_c, 0, 78, 61
1, 434614, Note_off_c, 0, 60, 66
1, 434617, Note_on_c, 0, 62, 34
1, 434622, Note_off_c, 0, 81, 64
1, 434631, Note_off_c, 0, 57, 65
1, 434639, Note_off_c, 0, 78, 67
1, 434652, Note_off_c, 0, 62, 32
1, 434662, Note_on_c, 0, 74, 77
1, 434689, Note_off_c, 0, 74, 62
1, 434730, Note_on_c, 0, 43, 69
1, 434748, Note_on_c, 0, 81, 54
1, 434763, Note_off_c, 0, 43, 64
1, 434780, Note_off_c, 0, 81, 64
1, 434790, Note_on_c, 0, 86, 78
1, 434860, Note_off_c, 0, 86, 59
1, 434861, Note_on_c, 0, 59, 71
1, 434864, Note_on_c, 0, 55, 71
1, 434870, Note_on_c, 0, 62, 55
1, 434874, Note_on_c, 0, 83, 65
1, 434879, Note_on_c, 0, 79, 61
1, 434885, Note_off_c, 0, 59, 65
1, 434890, Note_off_c, 0, 55, 65
1, 434891, Note_off_c, 0, 62, 60
1, 434903, Note_off_c, 0, 79, 69
1, 434911, Note_off_c, 0, 83, 56
1, 434939, Note_on_c, 0, 74, 70
1, 434967, Note_off_c, 0, 74, 63
1, 434995, Note_on_c, 0, 79, 65
1, 434998, Note_on_c, 0, 43, 67
1, 435027, Note_off_c, 0, 43, 62
1, 435037, Note_off_c, 0, 79, 65
1, 435062, Note_on_c, 0, 86, 77
1, 435131, Note_on_c, 0, 54, 70
1, 435138, Note_on_c, 0, 78, 71
1, 435138, Note_on_c, 0, 81, 60
1, 435139, Note_on_c, 0, 62, 52
1, 435140, Note_on_c, 0, 57, 50
1, 435153, Note_off_c, 0, 86, 52
1, 435158, Note_off_c, 0, 54, 67
1, 435163, Note_off_c, 0, 62, 59
1, 435165, Note_off_c, 0, 57, 57
1, 435167, Note_off_c, 0, 81, 67
1, 435170, Note_off_c, 0, 78, 61
1, 435204, Note_on_c, 0, 74, 80
1, 435243, Note_off_c, 0, 74, 55
1, 435263, Note_on_c, 0, 43, 74
1, 435286, Note_off_c, 0, 43, 65
1, 435287, Note_on_c, 0, 81, 52
1, 435294, Note_on_c, 0, 78, 38
1, 435322, Note_off_c, 0, 78, 56
1, 435335, Note_off_c, 0, 81, 64
1, 435335, Note_on_c, 0, 86, 78
1, 435395, Note_on_c, 0, 59, 78
1, 435398, Note_on_c, 0, 55, 73
1, 435406, Note_on_c, 0, 62, 54
1, 435407, Note_on_c, 0, 83, 31
1, 435418, Note_off_c, 0, 59, 67
1, 435424, Note_off_c, 0, 55, 67
1, 435428, Note_on_c, 0, 79, 62
1, 435428, Note_off_c, 0, 62, 60
1, 435429, Note_off_c, 0, 86, 60
1, 435457, Note_off_c, 0, 83, 54
1, 435463, Note_off_c, 0, 79, 62
1, 435472, Note_on_c, 0, 74, 72
1, 435503, Note_off_c, 0, 74, 62
1, 435526, Note_on_c, 0, 43, 72
1, 435541, Note_on_c, 0, 79, 53
1, 435551, Note_off_c, 0, 43, 65
1, 435572, Note_on_c, 0, 86, 76
1, 435579, Note_off_c, 0, 79, 64
1, 435594, Note_off_c, 0, 86, 70
1, 435653, Note_on_c, 0, 59, 79
1, 435669, Note_on_c, 0, 62, 53
1, 435678, Note_off_c, 0, 59, 69
1, 435692, Note_off_c, 0, 62, 60
1, 435731, Note_on_c, 0, 71, 72
1, 435753, Note_off_c, 0, 71, 67
1, 435776, Note_on_c, 0, 74, 78
1, 435781, Note_on_c, 0, 45, 66
1, 435800, Note_off_c, 0, 74, 66
1, 435809, Note_off_c, 0, 45, 65
1, 435842, Note_on_c, 0, 86, 75
1, 435860, Note_off_c, 0, 86, 73
1, 435911, Note_on_c, 0, 60, 75
1, 435916, Note_on_c, 0, 57, 74
1, 435920, Note_on_c, 0, 62, 60
1, 435936, Note_off_c, 0, 60, 66
1, 435940, Note_off_c, 0, 57, 67
1, 435941, Note_off_c, 0, 62, 62
1, 435988, Note_on_c, 0, 72, 74
1, 436027, Note_off_c, 0, 72, 62
1, 436045, Note_on_c, 0, 74, 82
1, 436059, Note_on_c, 0, 43, 52
1, 436071, Note_on_c, 0, 45, 31
1, 436072, Note_off_c, 0, 74, 66
1, 436091, Note_off_c, 0, 43, 53
1, 436106, Note_on_c, 0, 86, 76
1, 436118, Note_off_c, 0, 45, 29
1, 436126, Note_off_c, 0, 86, 72
1, 436170, Note_on_c, 0, 59, 74
1, 436171, Note_on_c, 0, 55, 73
1, 436175, Note_on_c, 0, 62, 64
1, 436188, Note_off_c, 0, 59, 67
1, 436195, Note_off_c, 0, 62, 65
1, 436197, Note_off_c, 0, 55, 65
1, 436244, Note_on_c, 0, 71, 76
1, 436268, Note_off_c, 0, 71, 69
1, 436300, Note_on_c, 0, 74, 77
1, 436301, Note_on_c, 0, 43, 58
1, 436324, Note_off_c, 0, 74, 68
1, 436327, Note_off_c, 0, 43, 56
1, 436360, Note_on_c, 0, 86, 79
1, 436380, Note_off_c, 0, 86, 70
1, 436414, Note_on_c, 0, 54, 71
1, 436422, Note_on_c, 0, 57, 64
1, 436422, Note_on_c, 0, 62, 67
1, 436443, Note_off_c, 0, 57, 64
1, 436444, Note_off_c, 0, 54, 63
1, 436449, Note_off_c, 0, 62, 66
1, 436510, Note_on_c, 0, 69, 76
1, 436529, Note_off_c, 0, 69, 71
1, 436539, Note_on_c, 0, 43, 75
1, 436561, Note_on_c, 0, 74, 79
1, 436566, Note_off_c, 0, 43, 65
1, 436602, Note_off_c, 0, 74, 64
1, 436631, Note_on_c, 0, 86, 66
1, 436647, Note_off_c, 0, 86, 66
1, 436676, Note_on_c, 0, 60, 76
1, 436680, Note_on_c, 0, 57, 67
1, 436682, Note_on_c, 0, 62, 65
1, 436700, Note_off_c, 0, 60, 70
1, 436706, Note_off_c, 0, 57, 66
1, 436709, Note_off_c, 0, 62, 65
1, 436757, Note_on_c, 0, 72, 81
1, 436797, Note_off_c, 0, 72, 65
1, 436801, Control_c, 0, 64, 29
1, 436811, Note_on_c, 0, 43, 67
1, 436814, Note_on_c, 0, 74, 82
1, 436833, Note_off_c, 0, 43, 59
1, 436845, Note_off_c, 0, 74, 66
1, 436874, Note_on_c, 0, 86, 71
1, 436897, Note_off_c, 0, 86, 71
1, 436933, Note_on_c, 0, 59, 80
1, 436936, Note_on_c, 0, 55, 74
1, 436939, Note_on_c, 0, 62, 68
1, 436954, Note_off_c, 0, 59, 68
1, 436963, Note_off_c, 0, 55, 65
1, 436967, Note_off_c, 0, 62, 66
1, 436978, Control_c, 0, 64, 0
1, 437013, Note_on_c, 0, 71, 73
1, 437035, Note_off_c, 0, 71, 68
1, 437052, Control_c, 0, 64, 29
1, 437053, Note_on_c, 0, 74, 87
1, 437064, Note_on_c, 0, 43, 71
1, 437088, Note_off_c, 0, 43, 64
1, 437097, Note_off_c, 0, 74, 64
1, 437136, Note_on_c, 0, 86, 67
1, 437161, Note_off_c, 0, 86, 70
1, 437183, Note_on_c, 0, 54, 75
1, 437186, Note_on_c, 0, 57, 67
1, 437186, Note_on_c, 0, 62, 71
1, 437209, Note_off_c, 0, 54, 66
1, 437214, Note_off_c, 0, 62, 67
1, 437216, Note_off_c, 0, 57, 66
1, 437261, Note_on_c, 0, 69, 76
1, 437282, Note_off_c, 0, 69, 70
1, 437298, Note_on_c, 0, 45, 82
1, 437302, Note_on_c, 0, 74, 81
1, 437305, Control_c, 0, 64, 32
1, 437320, Control_c, 0, 64, 32
1, 437328, Note_off_c, 0, 45, 66
1, 437348, Note_off_c, 0, 74, 66
1, 437381, Note_on_c, 0, 86, 75
1, 437402, Note_off_c, 0, 86, 71
1, 437415, Note_on_c, 0, 59, 91
1, 437416, Note_on_c, 0, 55, 82
1, 437423, Note_on_c, 0, 62, 75
1, 437440, Note_off_c, 0, 59, 68
1, 437449, Note_off_c, 0, 55, 62
1, 437449, Note_off_c, 0, 62, 69
1, 437502, Note_on_c, 0, 71, 83
1, 437505, Control_c, 0, 67, 118
1, 437520, Control_c, 0, 67, 88
1, 437528, Note_off_c, 0, 71, 64
1, 437529, Note_on_c, 0, 74, 84
1, 437535, Control_c, 0, 67, 57
1, 437541, Note_on_c, 0, 43, 85
1, 437550, Control_c, 0, 67, 35
1, 437559, Note_on_c, 0, 45, 59
1, 437565, Control_c, 0, 67, 0
1, 437565, Note_off_c, 0, 43, 66
1, 437577, Note_off_c, 0, 74, 64
1, 437584, Note_off_c, 0, 45, 59
1, 437603, Note_on_c, 0, 86, 72
1, 437609, Control_c, 0, 64, 32
1, 437624, Note_on_c, 0, 84, 28
1, 437628, Note_off_c, 0, 86, 66
1, 437648, Note_on_c, 0, 62, 94
1, 437650, Note_on_c, 0, 52, 80
1, 437650, Note_on_c, 0, 55, 85
1, 437657, Note_off_c, 0, 84, 45
1, 437675, Note_off_c, 0, 62, 65
1, 437680, Note_off_c, 0, 55, 65
1, 437681, Note_off_c, 0, 52, 66
1, 437721, Note_on_c, 0, 67, 87
1, 437730, Note_on_c, 0, 64, 73
1, 437738, Note_on_c, 0, 65, 60
1, 437748, Note_off_c, 0, 67, 64
1, 437750, Poly_aftertouch_c, 0, 53, 0
1, 437753, Note_off_c, 0, 64, 66
1, 437758, Note_off_c, 0, 65, 63
1, 437770, Note_on_c, 0, 45, 88
1, 437777, Note_on_c, 0, 55, 79
1, 437787, Control_c, 0, 64, 33
1, 437798, Note_off_c, 0, 45, 68
1, 437801, Control_c, 0, 64, 34
1, 437803, Note_off_c, 0, 55, 67
1, 437824, Note_on_c, 0, 57, 16
1, 437847, Control_c, 0, 64, 33
1, 437862, Control_c, 0, 64, 32
1, 437863, Note_on_c, 0, 74, 60
1, 437867, Note_off_c, 0, 57, 39
1, 437869, Note_on_c, 0, 72, 58
1, 437876, Control_c, 0, 64, 32
1, 437883, Note_off_c, 0, 74, 62
1, 437891, Note_off_c, 0, 72, 61
1, 437898, Note_on_c, 0, 54, 78
1, 437898, Note_on_c, 0, 62, 80
1, 437902, Note_on_c, 0, 84, 3
1, 437908, Note_on_c, 0, 57, 48
1, 437920, Note_off_c, 0, 62, 71
1, 437921, Note_off_c, 0, 54, 69
1, 437935, Note_off_c, 0, 57, 52
1, 437948, Note_off_c, 0, 84, 25
1, 437967, Note_on_c, 0, 69, 76
1, 437982, Note_on_c, 0, 66, 49
1, 437989, Note_off_c, 0, 69, 68
1, 438009, Note_off_c, 0, 66, 37
1, 438025, Control_c, 0, 64, 33
1, 438029, Note_on_c, 0, 43, 65
1, 438035, Note_on_c, 0, 55, 60
1, 438047, Note_on_c, 0, 57, 38
1, 438048, Note_on_c, 0, 45, 37
1, 438055, Note_off_c, 0, 43, 57
1, 438063, Note_off_c, 0, 55, 57
1, 438081, Note_off_c, 0, 57, 44
1, 438092, Note_on_c, 0, 86, 77
1, 438092, Note_on_c, 0, 74, 75
1, 438093, Note_off_c, 0, 45, 29
1, 438099, Control_c, 0, 64, 32
1, 438107, Note_off_c, 0, 86, 70
1, 438116, Note_off_c, 0, 74, 70
1, 438138, Note_on_c, 0, 60, 86
1, 438143, Control_c, 0, 64, 30
1, 438145, Note_on_c, 0, 57, 74
1, 438146, Note_on_c, 0, 62, 69
1, 438158, Note_off_c, 0, 60, 69
1, 438173, Note_off_c, 0, 62, 66
1, 438174, Note_off_c, 0, 57, 65
1, 438201, Note_on_c, 0, 72, 80
1, 438208, Note_on_c, 0, 69, 73
1, 438224, Note_off_c, 0, 72, 67
1, 438232, Note_off_c, 0, 69, 68
1, 438275, Note_on_c, 0, 45, 76
1, 438277, Note_on_c, 0, 55, 76
1, 438297, Note_off_c, 0, 45, 66
1, 438302, Note_off_c, 0, 55, 67
1, 438340, Note_on_c, 0, 74, 82
1, 438340, Note_on_c, 0, 86, 70
1, 438357, Note_off_c, 0, 86, 66
1, 438359, Note_off_c, 0, 74, 78
1, 438390, Note_on_c, 0, 59, 84
1, 438392, Note_on_c, 0, 55, 64
1, 438399, Note_on_c, 0, 62, 64
1, 438412, Note_off_c, 0, 59, 70
1, 438419, Note_off_c, 0, 55, 63
1, 438428, Note_off_c, 0, 62, 65
1, 438460, Note_on_c, 0, 71, 79
1, 438467, Note_on_c, 0, 67, 66
1, 438482, Note_off_c, 0, 71, 70
1, 438486, Note_off_c, 0, 67, 66
1, 438516, Note_on_c, 0, 43, 72
1, 438516, Note_on_c, 0, 55, 65
1, 438537, Control_c, 0, 64, 32
1, 438543, Note_off_c, 0, 43, 65
1, 438549, Note_off_c, 0, 55, 65
1, 438578, Note_on_c, 0, 74, 84
1, 438583, Note_on_c, 0, 86, 60
1, 438600, Note_off_c, 0, 74, 70
1, 438602, Note_off_c, 0, 86, 63
1, 438636, Note_on_c, 0, 55, 78
1, 438637, Note_on_c, 0, 62, 78
1, 438644, Note_on_c, 0, 52, 65
1, 438660, Note_off_c, 0, 62, 70
1, 438662, Note_off_c, 0, 55, 68
1, 438676, Note_off_c, 0, 52, 64
1, 438693, Note_on_c, 0, 67, 84
1, 438699, Note_on_c, 0, 64, 71
1, 438714, Note_off_c, 0, 67, 69
1, 438727, Note_off_c, 0, 64, 69
1, 438751, Note_on_c, 0, 43, 83
1, 438751, Note_on_c, 0, 55, 86
1, 438757, Control_c, 0, 64, 33
1, 438772, Control_c, 0, 64, 34
1, 438782, Note_off_c, 0, 43, 69
1, 438787, Note_off_c, 0, 55, 65
1, 438817, Note_on_c, 0, 84, 75
1, 438823, Note_on_c, 0, 72, 66
1, 438837, Note_off_c, 0, 84, 73
1, 438841, Note_off_c, 0, 72, 65
1, 438842, Note_on_c, 0, 82, 29
1, 438842, Note_off_c, 0, 82, 127
1, 438847, Control_c, 0, 64, 34
1, 438865, Note_on_c, 0, 54, 89
1, 438867, Note_on_c, 0, 57, 86
1, 438870, Note_on_c, 0, 62, 81
1, 438890, Note_off_c, 0, 57, 70
1, 438894, Note_off_c, 0, 62, 70
1, 438905, Note_off_c, 0, 54, 61
1, 438915, Note_on_c, 0, 70, 79
1, 438915, Note_off_c, 0, 70, 127
1, 438927, Note_on_c, 0, 69, 80
1, 438933, Poly_aftertouch_c, 0, 70, 0
1, 438936, Note_on_c, 0, 66, 63
1, 438946, Note_off_c, 0, 69, 73
1, 438951, Control_c, 0, 64, 34
1, 438957, Note_off_c, 0, 66, 61
1, 438965, Control_c, 0, 64, 35
1, 438980, Control_c, 0, 64, 36
1, 438984, Note_on_c, 0, 43, 95
1, 439001, Note_on_c, 0, 55, 96
1, 439002, Control_c, 0, 64, 37
1, 439019, Note_off_c, 0, 43, 68
1, 439031, Note_off_c, 0, 55, 66
1, 439046, Control_c, 0, 64, 36
1, 439055, Note_on_c, 0, 74, 83
1, 439060, Note_on_c, 0, 86, 75
1, 439061, Control_c, 0, 64, 35
1, 439075, Note_off_c, 0, 74, 73
1, 439075, Note_off_c, 0, 86, 69
1, 439076, Control_c, 0, 64, 35
1, 439106, Control_c, 0, 64, 34
1, 439111, Note_on_c, 0, 57, 87
1, 439111, Note_on_c, 0, 60, 91
1, 439113, Note_on_c, 0, 62, 89
1, 439134, Note_off_c, 0, 62, 72
1, 439136, Note_off_c, 0, 57, 69
1, 439136, Note_off_c, 0, 60, 69
1, 439151, Control_c, 0, 64, 34
1, 439162, Note_on_c, 0, 72, 87
1, 439166, Note_on_c, 0, 69, 80
1, 439179, Note_on_c, 0, 59, 7
1, 439185, Note_off_c, 0, 72, 66
1, 439187, Note_off_c, 0, 69, 69
1, 439198, Note_on_c, 0, 71, 38
1, 439198, Note_off_c, 0, 71, 127
1, 439210, Note_off_c, 0, 59, 32
1, 439225, Control_c, 0, 64, 34
1, 439230, Note_on_c, 0, 55, 98
1, 439231, Note_on_c, 0, 43, 92
1, 439239, Control_c, 0, 64, 36
1, 439254, Note_off_c, 0, 43, 69
1, 439254, Control_c, 0, 64, 36
1, 439267, Note_off_c, 0, 55, 63
1, 439284, Note_on_c, 0, 86, 88
1, 439285, Note_on_c, 0, 74, 93
1, 439298, Control_c, 0, 64, 36
1, 439300, Note_off_c, 0, 86, 75
1, 439312, Note_off_c, 0, 74, 65
1, 439328, Control_c, 0, 64, 35
1, 439339, Note_on_c, 0, 59, 95
1, 439347, Note_on_c, 0, 55, 83
1, 439351, Note_on_c, 0, 60, 67
1, 439353, Note_on_c, 0, 62, 78
1, 439366, Note_off_c, 0, 59, 68
1, 439369, Note_off_c, 0, 55, 70
1, 439372, Control_c, 0, 64, 36
1, 439376, Note_off_c, 0, 60, 66
1, 439377, Note_off_c, 0, 62, 68
1, 439400, Note_on_c, 0, 67, 89
1, 439401, Note_on_c, 0, 71, 83
1, 439402, Control_c, 0, 64, 35
1, 439411, Note_on_c, 0, 69, 74
1, 439419, Note_off_c, 0, 67, 71
1, 439422, Note_off_c, 0, 71, 69
1, 439429, Note_off_c, 0, 69, 68
1, 439432, Control_c, 0, 64, 36
1, 439446, Control_c, 0, 64, 36
1, 439454, Note_on_c, 0, 55, 95
1, 439456, Note_on_c, 0, 43, 93
1, 439461, Control_c, 0, 64, 37
1, 439476, Control_c, 0, 64, 38
1, 439481, Note_on_c, 0, 46, 49
1, 439486, Note_off_c, 0, 43, 67
1, 439493, Note_off_c, 0, 55, 63
1, 439505, Control_c, 0, 64, 37
1, 439517, Note_on_c, 0, 74, 100
1, 439518, Note_off_c, 0, 46, 53
1, 439520, Control_c, 0, 64, 37
1, 439521, Note_on_c, 0, 86, 88
1, 439535, Control_c, 0, 64, 36
1, 439539, Note_off_c, 0, 86, 74
1, 439548, Note_off_c, 0, 74, 66
1, 439550, Control_c, 0, 64, 36
1, 439565, Control_c, 0, 64, 35
1, 439573, Note_on_c, 0, 62, 97
1, 439575, Note_on_c, 0, 55, 90
1, 439576, Note_on_c, 0, 52, 81
1, 439602, Note_off_c, 0, 62, 66
1, 439606, Note_off_c, 0, 52, 65
1, 439612, Note_off_c, 0, 55, 65
1, 439637, Note_on_c, 0, 67, 96
1, 439640, Control_c, 0, 64, 35
1, 439641, Note_on_c, 0, 64, 84
1, 439662, Note_off_c, 0, 64, 72
1, 439665, Note_off_c, 0, 67, 66
1, 439684, Control_c, 0, 64, 35
1, 439692, Note_on_c, 0, 43, 95
1, 439693, Note_on_c, 0, 55, 97
1, 439699, Control_c, 0, 64, 36
1, 439714, Control_c, 0, 64, 38
1, 439720, Note_on_c, 0, 46, 42
1, 439724, Note_off_c, 0, 43, 64
1, 439729, Control_c, 0, 64, 38
1, 439735, Note_off_c, 0, 55, 66
1, 439751, Control_c, 0, 64, 38
1, 439766, Note_on_c, 0, 74, 83
1, 439766, Control_c, 0, 64, 37
1, 439768, Note_on_c, 0, 86, 78
1, 439768, Note_on_c, 0, 72, 78
1, 439776, Note_off_c, 0, 46, 32
1, 439781, Control_c, 0, 64, 36
1, 439783, Note_off_c, 0, 86, 70
1, 439786, Note_off_c, 0, 74, 73
1, 439788, Note_off_c, 0, 72, 70
1, 439795, Control_c, 0, 64, 36
1, 439810, Control_c, 0, 64, 35
1, 439818, Note_on_c, 0, 54, 88
1, 439818, Note_on_c, 0, 57, 88
1, 439819, Note_on_c, 0, 62, 90
1, 439843, Note_off_c, 0, 57, 69
1, 439846, Note_off_c, 0, 62, 67
1, 439860, Note_off_c, 0, 54, 60
1, 439870, Note_on_c, 0, 69, 94
1, 439892, Note_on_c, 0, 66, 57
1, 439899, Note_off_c, 0, 69, 66
1, 439899, Control_c, 0, 64, 36
1, 439915, Note_off_c, 0, 66, 60
1, 439929, Control_c, 0, 64, 38
1, 439932, Note_on_c, 0, 43, 97
1, 439933, Note_on_c, 0, 55, 98
1, 439944, Control_c, 0, 64, 41
1, 439958, Control_c, 0, 64, 41
1, 439968, Note_off_c, 0, 43, 64
1, 439970, Note_off_c, 0, 55, 66
1, 439973, Control_c, 0, 64, 41
1, 439988, Control_c, 0, 64, 40
1, 439989, Note_on_c, 0, 74, 100
1, 439994, Note_on_c, 0, 86, 83
1, 440003, Control_c, 0, 64, 38
1, 440008, Note_on_c, 0, 84, 65
1, 440012, Note_off_c, 0, 86, 74
1, 440018, Control_c, 0, 64, 36
1, 440020, Note_off_c, 0, 74, 69
1, 440033, Control_c, 0, 64, 35
1, 440033, Note_off_c, 0, 84, 67
1, 440048, Note_on_c, 0, 59, 96
1, 440048, Control_c, 0, 64, 35
1, 440050, Note_on_c, 0, 55, 92
1, 440050, Note_on_c, 0, 62, 97
1, 440051, Note_on_c, 0, 82, 3
1, 440051, Note_off_c, 0, 82, 127
1, 440063, Control_c, 0, 64, 34
1, 440073, Note_off_c, 0, 59, 67
1, 440075, Note_off_c, 0, 62, 68
1, 440080, Note_on_c, 0, 57, 38
1, 440080, Note_off_c, 0, 57, 127
1, 440080, Note_off_c, 0, 55, 66
1, 440092, Control_c, 0, 64, 34
1, 440096, Note_on_c, 0, 67, 97
1, 440098, Note_on_c, 0, 71, 92
1, 440107, Control_c, 0, 64, 33
1, 440121, Control_c, 0, 64, 33
1, 440125, Note_off_c, 0, 71, 66
1, 440129, Note_off_c, 0, 67, 66
1, 440136, Control_c, 0, 64, 32
1, 440151, Control_c, 0, 64, 33
1, 440155, Note_on_c, 0, 55, 99
1, 440156, Note_on_c, 0, 43, 97
1, 440167, Note_on_c, 0, 46, 71
1, 440181, Control_c, 0, 64, 33
1, 440182, Note_off_c, 0, 43, 68
1, 440188, Note_off_c, 0, 46, 62
1, 440195, Note_off_c, 0, 55, 66
1, 440209, Note_on_c, 0, 86, 101
1, 440210, Control_c, 0, 64, 33
1, 440212, Note_on_c, 0, 74, 105
1, 440225, Control_c, 0, 64, 32
1, 440243, Note_off_c, 0, 74, 70
1, 440246, Note_off_c, 0, 86, 67
1, 440265, Note_on_c, 0, 62, 103
1, 440267, Note_on_c, 0, 60, 96
1, 440268, Note_on_c, 0, 57, 92
1, 440270, Note_on_c, 0, 59, 92
1, 440292, Note_off_c, 0, 59, 70
1, 440296, Note_off_c, 0, 60, 73
1, 440296, Note_off_c, 0, 62, 66
1, 440298, Note_off_c, 0, 57, 68
1, 440310, Note_on_c, 0, 55, 20
1, 440320, Note_on_c, 0, 81, 96
1, 440321, Note_on_c, 0, 78, 92
1, 440328, Control_c, 0, 64, 30
1, 440340, Note_on_c, 0, 77, 73
1, 440343, Control_c, 0, 64, 0
1, 440347, Note_on_c, 0, 74, 50
1, 440347, Note_off_c, 0, 74, 127
1, 440353, Note_off_c, 0, 78, 62
1, 440355, Note_off_c, 0, 81, 67
1, 440357, Note_off_c, 0, 55, 33
1, 440357, Note_off_c, 0, 77, 67
1, 440373, Note_on_c, 0, 53, 108
1, 440373, Control_c, 0, 64, 29
1, 440375, Note_on_c, 0, 41, 102
1, 440388, Control_c, 0, 64, 32
1, 440403, Control_c, 0, 64, 35
1, 440403, Note_off_c, 0, 41, 67
1, 440411, Note_off_c, 0, 53, 68
1, 440418, Control_c, 0, 64, 37
1, 440434, Note_on_c, 0, 86, 109
1, 440437, Note_on_c, 0, 98, 103
1, 440448, Control_c, 0, 64, 36
1, 440452, Note_off_c, 0, 98, 74
1, 440461, Note_on_c, 0, 94, 56
1, 440461, Note_off_c, 0, 94, 127
1, 440463, Note_off_c, 0, 86, 72
1, 440463, Control_c, 0, 64, 34
1, 440464, Note_on_c, 0, 96, 51
1, 440478, Control_c, 0, 64, 32
1, 440495, Note_on_c, 0, 59, 99
1, 440495, Note_on_c, 0, 62, 99
1, 440495, Note_off_c, 0, 96, 55
1, 440498, Note_on_c, 0, 60, 91
1, 440500, Control_c, 0, 64, 29
1, 440503, Note_on_c, 0, 57, 81
1, 440504, Note_on_c, 0, 55, 76
1, 440515, Control_c, 0, 64, 0
1, 440516, Note_off_c, 0, 60, 74
1, 440517, Note_off_c, 0, 62, 68
1, 440519, Note_off_c, 0, 59, 69
1, 440525, Note_off_c, 0, 57, 69
1, 440526, Note_on_c, 0, 53, 44
1, 440526, Note_off_c, 0, 53, 127
1, 440529, Note_off_c, 0, 55, 68
1, 440549, Note_on_c, 0, 77, 109
1, 440549, Note_on_c, 0, 79, 92
1, 440570, Note_off_c, 0, 79, 63
1, 440571, Poly_aftertouch_c, 0, 53, 0
1, 440572, Note_off_c, 0, 77, 69
1, 440601, Note_on_c, 0, 45, 105
1, 440603, Note_on_c, 0, 55, 103
1, 440627, Note_on_c, 0, 47, 47
1, 440627, Note_off_c, 0, 47, 127
1, 440629, Note_off_c, 0, 45, 70
1, 440631, Note_off_c, 0, 55, 70
1, 440650, Note_on_c, 0, 98, 107
1, 440651, Note_on_c, 0, 86, 115
1, 440671, Poly_aftertouch_c, 0, 47, 0
1, 440680, Note_off_c, 0, 86, 71
1, 440681, Note_on_c, 0, 96, 50
1, 440681, Note_off_c, 0, 96, 127
1, 440681, Note_off_c, 0, 98, 69
1, 440821, Note_on_c, 0, 60, 103
1, 440823, Note_on_c, 0, 57, 97
1, 440824, Note_on_c, 0, 55, 98
1, 440825, Note_on_c, 0, 62, 105
1, 440836, Note_on_c, 0, 90, 101
1, 440841, Note_off_c, 0, 62, 75
1, 440850, Note_on_c, 0, 89, 96
1, 440856, Control_c, 0, 64, 65
1, 440859, Note_off_c, 0, 60, 68
1, 440868, Note_off_c, 0, 55, 68
1, 440869, Note_off_c, 0, 57, 47
1, 440870, Control_c, 0, 64, 127
1, 440887, Note_off_c, 0, 89, 61
1, 440900, Note_off_c, 0, 90, 51
1, 440908, Note_on_c, 0, 92, 93
1, 440915, Poly_aftertouch_c, 0, 59, 0
1, 440938, Poly_aftertouch_c, 0, 59, 0
1, 440939, Note_on_c, 0, 93, 92
1, 440942, Note_on_c, 0, 94, 56
1, 440963, Note_off_c, 0, 92, 66
1, 440965, Note_off_c, 0, 94, 58
1, 440982, Note_off_c, 0, 93, 64
1, 441008, Note_on_c, 0, 98, 96
1, 441013, Note_on_c, 0, 86, 100
1, 441016, Note_on_c, 0, 90, 98
1, 441051, Note_off_c, 0, 90, 68
1, 441052, Note_off_c, 0, 86, 67
1, 441060, Note_off_c, 0, 98, 66
1, 441061, Note_on_c, 0, 66, 60
1, 441076, Note_on_c, 0, 95, 3
1, 441083, Note_on_c, 0, 62, 63
1, 441103, Note_on_c, 0, 73, 90
1, 441118, Note_off_c, 0, 95, 27
1, 441121, Poly_aftertouch_c, 0, 63, 127
1, 441121, Note_off_c, 0, 66, 52
1, 441122, Note_off_c, 0, 62, 63
1, 441127, Note_on_c, 0, 86, 101
1, 441127, Note_on_c, 0, 90, 97
1, 441136, Note_on_c, 0, 98, 81
1, 441142, Note_off_c, 0, 73, 65
1, 441145, Poly_aftertouch_c, 0, 63, 0
1, 441157, Note_off_c, 0, 90, 62
1, 441159, Note_off_c, 0, 98, 71
1, 441160, Note_off_c, 0, 86, 66
1, 441208, Note_on_c, 0, 76, 109
1, 441221, Note_on_c, 0, 89, 93
1, 441228, Note_on_c, 0, 72, 66
1, 441231, Note_on_c, 0, 92, 63
1, 441240, Note_on_c, 0, 101, 85
1, 441249, Note_on_c, 0, 99, 69
1, 441250, Note_off_c, 0, 89, 67
1, 441252, Note_off_c, 0, 72, 65
1, 441257, Note_off_c, 0, 76, 68
1, 441259, Note_off_c, 0, 92, 61
1, 441264, Note_off_c, 0, 101, 72
1, 441270, Note_off_c, 0, 99, 43
1, 441294, Poly_aftertouch_c, 0, 94, 0
1, 441307, Note_on_c, 0, 72, 80
1, 441309, Note_on_c, 0, 65, 86
1, 441311, Note_on_c, 0, 69, 74
1, 441312, Note_on_c, 0, 102, 121
1, 441318, Note_on_c, 0, 90, 94
1, 441324, Note_off_c, 0, 72, 73
1, 441334, Note_off_c, 0, 90, 72
1, 441336, Note_off_c, 0, 69, 69
1, 441341, Note_on_c, 0, 92, 56
1, 441341, Note_off_c, 0, 92, 127
1, 441346, Note_off_c, 0, 65, 68
1, 441349, Note_off_c, 0, 102, 69
1, 441397, Control_c, 0, 64, 97
1, 441412, Control_c, 0, 64, 67
1, 441416, Poly_aftertouch_c, 0, 71, 0
1, 441427, Control_c, 0, 64, 43
1, 441440, Note_on_c, 0, 59, 105
1, 441441, Note_on_c, 0, 62, 100
1, 441441, Control_c, 0, 64, 0
1, 441449, Note_on_c, 0, 57, 75
1, 441449, Note_on_c, 0, 60, 85
1, 441450, Note_on_c, 0, 98, 104
1, 441451, Note_on_c, 0, 86, 104
1, 441452, Note_on_c, 0, 55, 69
1, 441457, Note_on_c, 0, 53, 62
1, 441458, Note_off_c, 0, 59, 71
1, 441458, Note_off_c, 0, 62, 73
1, 441459, Note_on_c, 0, 52, 66
1, 441460, Note_on_c, 0, 90, 81
1, 441460, Note_off_c, 0, 90, 127
1, 441464, Note_off_c, 0, 57, 73
1, 441464, Note_off_c, 0, 60, 73
1, 441472, Note_on_c, 0, 96, 55
1, 441472, Note_off_c, 0, 96, 127
1, 441474, Note_off_c, 0, 55, 64
1, 441476, Note_off_c, 0, 86, 72
1, 441481, Note_off_c, 0, 53, 61
1, 441482, Note_off_c, 0, 98, 70
1, 441486, Note_off_c, 0, 52, 65
1, 441582, Note_on_c, 0, 94, 58
1, 441603, Note_off_c, 0, 94, 57
1, 441656, Note_on_c, 0, 37, 95
1, 441661, Note_on_c, 0, 43, 98
1, 441663, Note_on_c, 0, 103, 120
1, 441664, Note_on_c, 0, 95, 102
1, 441665, Note_on_c, 0, 91, 103
1, 441666, Note_on_c, 0, 89, 104
1, 441666, Note_on_c, 0, 29, 92
1, 441667, Note_on_c, 0, 33, 95
1, 441670, Note_on_c, 0, 35, 87
1, 441671, Note_on_c, 0, 36, 89
1, 441671, Note_on_c, 0, 94, 57
1, 441674, Note_on_c, 0, 38, 87
1, 441676, Note_on_c, 0, 31, 69
1, 441679, Control_c, 0, 64, 79
1, 441687, Note_on_c, 0, 101, 63
1, 441693, Control_c, 0, 64, 127
1, 441698, Note_on_c, 0, 100, 56
1, 441714, Note_off_c, 0, 94, 0
1, 441714, Note_on_c, 0, 94, 32
1, 441726, Note_off_c, 0, 100, 55
1, 441749, Note_off_c, 0, 89, 66
1, 441756, Note_off_c, 0, 91, 69
1, 441765, Note_off_c, 0, 103, 68
1, 441771, Note_off_c, 0, 94, 47
1, 441774, Note_off_c, 0, 95, 71
1, 441776, Note_off_c, 0, 36, 61
1, 441777, Note_off_c, 0, 101, 58
1, 441779, Note_off_c, 0, 33, 60
1, 441780, Note_off_c, 0, 29, 64
1, 441783, Note_off_c, 0, 31, 0
1, 441783, Note_on_c, 0, 31, 3
1, 441788, Note_on_c, 0, 97, 36
1, 441824, Note_off_c, 0, 97, 32
1, 441836, Note_off_c, 0, 37, 49
1, 441846, Note_off_c, 0, 43, 52
1, 441879, Poly_aftertouch_c, 0, 33, 127
1, 441896, Note_off_c, 0, 31, 65
1, 441924, Note_off_c, 0, 38, 58
1, 441926, Poly_aftertouch_c, 0, 33, 0
1, 441929, Note_off_c, 0, 35, 62
1, 442043, Control_c, 0, 64, 78
1, 442058, Control_c, 0, 64, 45
1, 442072, Control_c, 0, 64, 0
1, 443702, Control_c, 0, 64, 31
1, 443717, Control_c, 0, 64, 32
1, 443747, Control_c, 0, 64, 32
1, 443762, Control_c, 0, 64, 34
1, 443777, Control_c, 0, 64, 36
1, 443792, Control_c, 0, 64, 36
1, 443822, Control_c, 0, 64, 37
1, 443836, Control_c, 0, 64, 38
1, 443851, Control_c, 0, 64, 38
1, 443910, Control_c, 0, 64, 39
1, 443940, Control_c, 0, 64, 39
1, 443969, Control_c, 0, 64, 40
1, 443984, Control_c, 0, 64, 42
1, 443999, Control_c, 0, 64, 44
1, 444014, Control_c, 0, 64, 46
1, 444028, Control_c, 0, 64, 46
1, 444043, Control_c, 0, 64, 48
1, 444058, Control_c, 0, 64, 50
1, 444073, Control_c, 0, 64, 53
1, 444087, Control_c, 0, 64, 55
1, 444102, Control_c, 0, 64, 56
1, 444117, Control_c, 0, 64, 57
1, 444132, Control_c, 0, 64, 58
1, 444147, Control_c, 0, 64, 60
1, 444162, Control_c, 0, 64, 61
1, 444176, Control_c, 0, 64, 63
1, 444191, Control_c, 0, 64, 64
1, 444206, Control_c, 0, 64, 64
1, 444221, Control_c, 0, 64, 65
1, 444243, Control_c, 0, 64, 66
1, 444258, Control_c, 0, 64, 69
1, 444273, Control_c, 0, 64, 73
1, 444287, Control_c, 0, 64, 77
1, 444302, Control_c, 0, 64, 81
1, 444317, Control_c, 0, 64, 86
1, 444332, Control_c, 0, 64, 92
1, 444347, Control_c, 0, 64, 97
1, 444361, Control_c, 0, 64, 103
1, 444376, Control_c, 0, 64, 109
1, 444391, Control_c, 0, 64, 119
1, 444406, Control_c, 0, 64, 127
1, 445097, Control_c, 0, 67, 35
1, 445111, Control_c, 0, 67, 54
1, 445126, Control_c, 0, 67, 62
1, 445141, Control_c, 0, 67, 64
1, 445156, Control_c, 0, 67, 65
1, 445171, Control_c, 0, 67, 69
1, 445185, Control_c, 0, 67, 86
1, 445200, Control_c, 0, 67, 119
1, 445216, Control_c, 0, 67, 127
1, 445542, Control_c, 0, 64, 99
1, 445547, Note_on_c, 0, 37, 71
1, 445551, Note_on_c, 0, 33, 68
1, 445556, Note_on_c, 0, 40, 56
1, 445557, Control_c, 0, 64, 64
1, 445571, Control_c, 0, 64, 0
1, 445575, Note_off_c, 0, 37, 63
1, 445578, Note_off_c, 0, 33, 55
1, 445583, Note_off_c, 0, 40, 50
1, 445796, Note_on_c, 0, 37, 58
1, 445808, Note_on_c, 0, 33, 44
1, 445824, Note_off_c, 0, 37, 57
1, 445846, Note_off_c, 0, 33, 53
1, 445977, Note_on_c, 0, 40, 70
1, 445984, Note_on_c, 0, 37, 62
1, 445987, Note_on_c, 0, 33, 53
1, 446002, Note_off_c, 0, 40, 63
1, 446016, Note_off_c, 0, 37, 64
1, 446018, Note_off_c, 0, 33, 53
1, 446190, Note_on_c, 0, 37, 64
1, 446219, Note_off_c, 0, 37, 64
1, 446233, Note_on_c, 0, 40, 4
1, 446282, Note_off_c, 0, 40, 27
1, 446387, Note_on_c, 0, 33, 67
1, 446388, Note_on_c, 0, 37, 61
1, 446404, Note_on_c, 0, 40, 27
1, 446414, Note_off_c, 0, 33, 57
1, 446421, Note_off_c, 0, 37, 64
1, 446444, Note_off_c, 0, 40, 41
1, 446593, Note_on_c, 0, 33, 55
1, 446599, Note_on_c, 0, 37, 59
1, 446627, Note_off_c, 0, 33, 62
1, 446632, Note_off_c, 0, 37, 64
1, 446789, Note_on_c, 0, 40, 62
1, 446795, Note_on_c, 0, 37, 54
1, 446797, Note_on_c, 0, 33, 54
1, 446815, Note_off_c, 0, 40, 58
1, 446825, Note_off_c, 0, 37, 59
1, 446828, Note_off_c, 0, 33, 53
1, 446996, Note_on_c, 0, 37, 61
1, 447018, Note_on_c, 0, 40, 42
1, 447027, Note_off_c, 0, 37, 64
1, 447053, Note_off_c, 0, 40, 45
1, 447193, Note_on_c, 0, 37, 64
1, 447196, Note_on_c, 0, 33, 68
1, 447223, Note_off_c, 0, 33, 58
1, 447225, Note_off_c, 0, 37, 64
1, 447401, Note_on_c, 0, 37, 62
1, 447402, Note_on_c, 0, 33, 48
1, 447432, Note_off_c, 0, 37, 65
1, 447435, Note_off_c, 0, 33, 53
1, 447590, Note_on_c, 0, 40, 60
1, 447591, Note_on_c, 0, 37, 63
1, 447596, Note_on_c, 0, 33, 58
1, 447618, Note_off_c, 0, 40, 56
1, 447622, Note_off_c, 0, 37, 64
1, 447625, Note_off_c, 0, 33, 58
1, 447798, Note_on_c, 0, 37, 57
1, 447811, Note_on_c, 0, 40, 37
1, 447836, Note_off_c, 0, 37, 61
1, 447852, Note_off_c, 0, 40, 48
1, 447994, Note_on_c, 0, 37, 62
1, 448001, Note_on_c, 0, 40, 50
1, 448004, Note_on_c, 0, 33, 59
1, 448029, Note_off_c, 0, 37, 62
1, 448029, Note_off_c, 0, 40, 55
1, 448034, Note_off_c, 0, 33, 62
1, 448195, Note_on_c, 0, 37, 60
1, 448210, Note_on_c, 0, 33, 40
1, 448239, Note_off_c, 0, 37, 55
1, 448249, Note_off_c, 0, 33, 50
1, 448347, Note_on_c, 0, 76, 51
1, 448366, Note_on_c, 0, 78, 69
1, 448374, Note_off_c, 0, 76, 58
1, 448388, Control_c, 0, 64, 44
1, 448390, Note_on_c, 0, 33, 56
1, 448400, Note_on_c, 0, 37, 55
1, 448404, Control_c, 0, 64, 127
1, 448419, Control_c, 0, 67, 51
1, 448421, Note_on_c, 0, 40, 28
1, 448433, Note_off_c, 0, 37, 63
1, 448433, Note_off_c, 0, 33, 49
1, 448433, Control_c, 0, 67, 0
1, 448437, Note_on_c, 0, 80, 74
1, 448439, Note_off_c, 0, 78, 63
1, 448458, Note_off_c, 0, 80, 72
1, 448463, Note_off_c, 0, 40, 42
1, 448496, Note_on_c, 0, 81, 80
1, 448539, Note_on_c, 0, 83, 82
1, 448547, Note_off_c, 0, 81, 59
1, 448558, Note_on_c, 0, 33, 77
1, 448563, Note_on_c, 0, 37, 70
1, 448582, Note_on_c, 0, 85, 83
1, 448585, Note_off_c, 0, 33, 63
1, 448589, Note_off_c, 0, 83, 66
1, 448594, Note_off_c, 0, 37, 63
1, 448603, Note_off_c, 0, 85, 69
1, 448642, Note_on_c, 0, 86, 82
1, 448670, Note_on_c, 0, 90, 87
1, 448680, Note_off_c, 0, 86, 66
1, 448711, Note_on_c, 0, 37, 75
1, 448713, Note_on_c, 0, 33, 80
1, 448713, Note_on_c, 0, 93, 112
1, 448713, Note_on_c, 0, 92, 87
1, 448720, Note_on_c, 0, 40, 74
1, 448732, Note_off_c, 0, 90, 66
1, 448733, Note_off_c, 0, 92, 73
1, 448753, Note_off_c, 0, 33, 62
1, 448753, Note_off_c, 0, 40, 65
1, 448755, Note_off_c, 0, 37, 62
1, 448767, Control_c, 0, 64, 86
1, 448782, Control_c, 0, 64, 55
1, 448797, Control_c, 0, 64, 0
1, 448926, Note_on_c, 0, 33, 51
1, 448931, Note_on_c, 0, 37, 44
1, 448961, Note_off_c, 0, 33, 51
1, 448967, Note_off_c, 0, 37, 51
1, 449091, Note_off_c, 0, 93, 61
1, 449101, Note_on_c, 0, 33, 55
1, 449101, Note_on_c, 0, 92, 88
1, 449110, Note_on_c, 0, 37, 38
1, 449116, Note_on_c, 0, 40, 44
1, 449118, Note_off_c, 0, 92, 75
1, 449132, Note_off_c, 0, 33, 55
1, 449150, Note_off_c, 0, 40, 51
1, 449151, Note_off_c, 0, 37, 42
1, 449287, Note_on_c, 0, 37, 56
1, 449291, Note_on_c, 0, 33, 46
1, 449292, Note_on_c, 0, 90, 67
1, 449308, Note_off_c, 0, 90, 42
1, 449318, Note_off_c, 0, 37, 57
1, 449328, Note_off_c, 0, 33, 46
1, 449420, Control_c, 0, 67, 38
1, 449435, Control_c, 0, 67, 67
1, 449450, Control_c, 0, 67, 118
1, 449456, Note_on_c, 0, 88, 77
1, 449457, Note_on_c, 0, 33, 62
1, 449465, Control_c, 0, 67, 127
1, 449482, Note_on_c, 0, 37, 37
1, 449487, Note_off_c, 0, 88, 67
1, 449491, Note_on_c, 0, 40, 35
1, 449509, Note_on_c, 0, 90, 66
1, 449515, Note_off_c, 0, 33, 47
1, 449516, Control_c, 0, 64, 41
1, 449519, Note_off_c, 0, 37, 51
1, 449529, Note_off_c, 0, 40, 48
1, 449531, Control_c, 0, 64, 48
1, 449539, Note_off_c, 0, 90, 66
1, 449546, Control_c, 0, 64, 48
1, 449560, Note_on_c, 0, 88, 81
1, 449561, Control_c, 0, 64, 53
1, 449576, Control_c, 0, 64, 61
1, 449588, Note_off_c, 0, 88, 57
1, 449590, Control_c, 0, 64, 67
1, 449605, Control_c, 0, 64, 71
1, 449608, Note_on_c, 0, 90, 61
1, 449620, Control_c, 0, 64, 74
1, 449634, Control_c, 0, 64, 77
1, 449635, Note_off_c, 0, 90, 68
1, 449649, Control_c, 0, 64, 78
1, 449657, Note_on_c, 0, 88, 77
1, 449661, Note_on_c, 0, 37, 52
1, 449664, Control_c, 0, 64, 80
1, 449679, Control_c, 0, 64, 83
1, 449684, Note_off_c, 0, 88, 63
1, 449694, Control_c, 0, 64, 88
1, 449700, Note_off_c, 0, 37, 61
1, 449701, Note_on_c, 0, 90, 67
1, 449709, Control_c, 0, 64, 92
1, 449711, Poly_aftertouch_c, 0, 33, 127
1, 449724, Control_c, 0, 64, 97
1, 449732, Note_off_c, 0, 90, 66
1, 449739, Control_c, 0, 64, 103
1, 449750, Note_on_c, 0, 88, 82
1, 449754, Poly_aftertouch_c, 0, 33, 0
1, 449754, Control_c, 0, 64, 108
1, 449769, Control_c, 0, 64, 114
1, 449778, Note_off_c, 0, 88, 62
1, 449783, Control_c, 0, 64, 127
1, 449795, Note_on_c, 0, 90, 64
1, 449813, Control_c, 0, 67, 95
1, 449821, Note_off_c, 0, 90, 70
1, 449827, Control_c, 0, 67, 0
1, 449840, Note_on_c, 0, 33, 64
1, 449843, Note_on_c, 0, 37, 47
1, 449844, Note_on_c, 0, 88, 84
1, 449856, Note_on_c, 0, 40, 34
1, 449872, Note_off_c, 0, 33, 60
1, 449884, Note_off_c, 0, 88, 64
1, 449887, Note_off_c, 0, 37, 47
1, 449890, Note_on_c, 0, 90, 73
1, 449894, Note_off_c, 0, 40, 45
1, 449928, Note_on_c, 0, 88, 75
1, 449957, Note_off_c, 0, 90, 63
1, 449975, Note_off_c, 0, 88, 63
1, 449978, Note_on_c, 0, 33, 64
1, 449979, Note_on_c, 0, 37, 68
1, 450005, Note_on_c, 0, 87, 79
1, 450009, Note_off_c, 0, 33, 62
1, 450013, Note_off_c, 0, 37, 62
1, 450056, Note_off_c, 0, 87, 66
1, 450076, Note_on_c, 0, 88, 85
1, 450118, Note_on_c, 0, 90, 95
1, 450120, Note_off_c, 0, 88, 68
1, 450132, Note_off_c, 0, 90, 76
1, 450143, Note_on_c, 0, 37, 61
1, 450144, Note_on_c, 0, 33, 59
1, 450156, Note_on_c, 0, 40, 58
1, 450169, Control_c, 0, 64, 90
1, 450179, Note_off_c, 0, 37, 61
1, 450183, Note_off_c, 0, 40, 57
1, 450183, Note_off_c, 0, 33, 55
1, 450184, Control_c, 0, 64, 61
1, 450198, Control_c, 0, 64, 0
1, 450344, Note_on_c, 0, 33, 56
1, 450348, Note_on_c, 0, 37, 58
1, 450377, Note_off_c, 0, 33, 61
1, 450386, Note_off_c, 0, 37, 61
1, 450546, Note_on_c, 0, 33, 51
1, 450559, Note_on_c, 0, 40, 36
1, 450564, Note_on_c, 0, 37, 39
1, 450567, Note_on_c, 0, 88, 77
1, 450583, Note_on_c, 0, 76, 60
1, 450583, Note_off_c, 0, 33, 58
1, 450596, Note_off_c, 0, 40, 44
1, 450600, Note_off_c, 0, 37, 47
1, 450694, Control_c, 0, 67, 57
1, 450709, Control_c, 0, 67, 78
1, 450723, Control_c, 0, 67, 79
1, 450738, Control_c, 0, 67, 82
1, 450744, Note_on_c, 0, 33, 57
1, 450753, Control_c, 0, 67, 95
1, 450768, Control_c, 0, 67, 127
1, 450777, Note_off_c, 0, 33, 56
1, 450926, Note_on_c, 0, 37, 52
1, 450931, Note_on_c, 0, 33, 45
1, 450934, Note_on_c, 0, 40, 49
1, 450957, Note_off_c, 0, 37, 55
1, 450963, Note_off_c, 0, 33, 50
1, 450964, Note_off_c, 0, 40, 51
1, 451036, Note_off_c, 0, 88, 55
1, 451044, Note_on_c, 0, 85, 73
1, 451062, Note_off_c, 0, 76, 36
1, 451099, Note_off_c, 0, 85, 62
1, 451101, Note_on_c, 0, 33, 40
1, 451113, Note_on_c, 0, 37, 36
1, 451135, Note_on_c, 0, 81, 79
1, 451155, Note_off_c, 0, 37, 58
1, 451182, Note_off_c, 0, 81, 63
1, 451190, Note_off_c, 0, 33, 39
1, 451202, Note_on_c, 0, 76, 70
1, 451226, Note_off_c, 0, 76, 69
1, 451313, Note_on_c, 0, 33, 45
1, 451317, Note_on_c, 0, 40, 53
1, 451325, Note_on_c, 0, 37, 42
1, 451334, Note_on_c, 0, 59, 64
1, 451345, Note_off_c, 0, 40, 57
1, 451350, Note_off_c, 0, 33, 50
1, 451354, Note_on_c, 0, 57, 38
1, 451357, Note_off_c, 0, 37, 55
1, 451358, Note_off_c, 0, 59, 65
1, 451387, Note_off_c, 0, 57, 36
1, 451503, Note_on_c, 0, 33, 61
1, 451505, Note_on_c, 0, 81, 84
1, 451514, Note_on_c, 0, 40, 41
1, 451520, Note_on_c, 0, 37, 26
1, 451524, Note_off_c, 0, 81, 69
1, 451537, Note_on_c, 0, 69, 32
1, 451539, Note_off_c, 0, 33, 60
1, 451545, Note_off_c, 0, 40, 55
1, 451563, Note_off_c, 0, 37, 40
1, 451571, Note_off_c, 0, 69, 33
1, 451712, Note_on_c, 0, 47, 53
1, 451713, Note_on_c, 0, 38, 55
1, 451734, Note_on_c, 0, 59, 50
1, 451748, Note_off_c, 0, 47, 54
1, 451760, Note_off_c, 0, 59, 36
1, 451766, Note_off_c, 0, 38, 61
1, 451901, Note_on_c, 0, 40, 62
1, 451905, Note_on_c, 0, 33, 61
1, 451905, Note_on_c, 0, 83, 81
1, 451909, Note_on_c, 0, 71, 72
1, 451923, Note_off_c, 0, 83, 72
1, 451927, Note_off_c, 0, 71, 67
1, 451928, Note_off_c, 0, 40, 61
1, 451936, Note_off_c, 0, 33, 60
1, 452095, Note_on_c, 0, 44, 66
1, 452099, Note_on_c, 0, 38, 59
1, 452103, Note_on_c, 0, 56, 74
1, 452104, Note_on_c, 0, 40, 41
1, 452124, Note_off_c, 0, 44, 64
1, 452132, Note_off_c, 0, 56, 65
1, 452135, Note_off_c, 0, 40, 50
1, 452137, Note_off_c, 0, 38, 62
1, 452293, Note_on_c, 0, 38, 44
1, 452293, Note_on_c, 0, 80, 76
1, 452294, Note_on_c, 0, 33, 60
1, 452296, Note_on_c, 0, 68, 68
1, 452312, Note_off_c, 0, 80, 73
1, 452314, Note_off_c, 0, 68, 67
1, 452323, Note_off_c, 0, 38, 54
1, 452327, Note_off_c, 0, 33, 63
1, 452493, Note_on_c, 0, 38, 53
1, 452496, Note_on_c, 0, 40, 60
1, 452502, Note_on_c, 0, 52, 68
1, 452523, Note_off_c, 0, 38, 61
1, 452527, Note_off_c, 0, 40, 62
1, 452531, Note_off_c, 0, 52, 64
1, 452686, Note_on_c, 0, 40, 52
1, 452687, Note_on_c, 0, 33, 64
1, 452691, Note_on_c, 0, 64, 66
1, 452691, Note_on_c, 0, 76, 68
1, 452708, Note_on_c, 0, 38, 21
1, 452712, Note_off_c, 0, 64, 66
1, 452714, Note_off_c, 0, 40, 56
1, 452717, Note_off_c, 0, 76, 68
1, 452723, Note_off_c, 0, 33, 61
1, 452753, Note_off_c, 0, 38, 38
1, 452877, Note_on_c, 0, 47, 59
1, 452884, Note_on_c, 0, 59, 71
1, 452894, Note_on_c, 0, 38, 38
1, 452908, Note_off_c, 0, 47, 64
1, 452912, Note_off_c, 0, 59, 65
1, 452920, Note_on_c, 0, 40, 3
1, 452938, Note_off_c, 0, 38, 48
1, 452958, Note_off_c, 0, 40, 38
1, 453074, Note_on_c, 0, 33, 61
1, 453074, Note_on_c, 0, 40, 56
1, 453083, Note_on_c, 0, 83, 70
1, 453104, Note_on_c, 0, 71, 35
1, 453104, Note_off_c, 0, 83, 70
1, 453113, Note_off_c, 0, 33, 62
1, 453116, Note_off_c, 0, 40, 56
1, 453138, Note_off_c, 0, 71, 32
1, 453275, Note_on_c, 0, 49, 64
1, 453283, Note_on_c, 0, 61, 70
1, 453284, Note_on_c, 0, 37, 60
1, 453307, Note_off_c, 0, 49, 64
1, 453309, Note_off_c, 0, 61, 67
1, 453325, Note_off_c, 0, 37, 62
1, 453473, Note_on_c, 0, 33, 62
1, 453478, Note_on_c, 0, 40, 57
1, 453480, Note_on_c, 0, 85, 75
1, 453486, Note_on_c, 0, 73, 62
1, 453501, Note_off_c, 0, 85, 71
1, 453503, Note_off_c, 0, 73, 65
1, 453504, Note_on_c, 0, 37, 11
1, 453509, Note_off_c, 0, 33, 62
1, 453512, Note_off_c, 0, 40, 63
1, 453553, Note_off_c, 0, 37, 37
1, 453668, Note_on_c, 0, 37, 51
1, 453675, Note_on_c, 0, 45, 55
1, 453675, Note_on_c, 0, 57, 76
1, 453698, Note_off_c, 0, 57, 68
1, 453703, Note_off_c, 0, 45, 62
1, 453726, Note_off_c, 0, 37, 58
1, 453857, Note_on_c, 0, 81, 75
1, 453858, Note_on_c, 0, 33, 58
1, 453861, Note_on_c, 0, 40, 56
1, 453863, Note_on_c, 0, 69, 69
1, 453876, Note_off_c, 0, 81, 71
1, 453883, Note_on_c, 0, 37, 23
1, 453887, Note_off_c, 0, 69, 68
1, 453889, Note_off_c, 0, 40, 60
1, 453890, Note_off_c, 0, 33, 60
1, 453927, Note_off_c, 0, 37, 40
1, 454058, Note_on_c, 0, 37, 59
1, 454067, Note_on_c, 0, 52, 73
1, 454075, Note_on_c, 0, 45, 43
1, 454091, Note_off_c, 0, 52, 66
1, 454103, Note_off_c, 0, 37, 63
1, 454108, Note_off_c, 0, 45, 47
1, 454247, Note_on_c, 0, 33, 65
1, 454255, Note_on_c, 0, 40, 61
1, 454258, Note_on_c, 0, 74, 51
1, 454263, Note_on_c, 0, 76, 54
1, 454276, Note_off_c, 0, 33, 63
1, 454282, Note_off_c, 0, 40, 61
1, 454284, Note_off_c, 0, 74, 63
1, 454285, Note_off_c, 0, 76, 61
1, 454419, Note_on_c, 0, 76, 57
1, 454467, Note_on_c, 0, 78, 72
1, 454474, Note_off_c, 0, 76, 61
1, 454475, Note_on_c, 0, 37, 76
1, 454483, Control_c, 0, 64, 53
1, 454484, Note_on_c, 0, 45, 62
1, 454494, Note_on_c, 0, 40, 48
1, 454497, Control_c, 0, 64, 94
1, 454497, Control_c, 0, 67, 51
1, 454508, Note_off_c, 0, 45, 62
1, 454512, Control_c, 0, 64, 127
1, 454512, Control_c, 0, 67, 0
1, 454513, Note_off_c, 0, 37, 61
1, 454526, Note_off_c, 0, 40, 54
1, 454531, Note_on_c, 0, 80, 82
1, 454535, Note_off_c, 0, 78, 62
1, 454565, Note_off_c, 0, 80, 60
1, 454591, Note_on_c, 0, 81, 87
1, 454633, Note_on_c, 0, 83, 81
1, 454635, Note_on_c, 0, 40, 81
1, 454636, Note_off_c, 0, 81, 63
1, 454639, Note_on_c, 0, 33, 93
1, 454665, Note_on_c, 0, 36, 46
1, 454667, Note_off_c, 0, 40, 65
1, 454668, Note_on_c, 0, 85, 73
1, 454675, Note_off_c, 0, 33, 63
1, 454684, Note_off_c, 0, 83, 64
1, 454690, Note_off_c, 0, 85, 70
1, 454701, Note_off_c, 0, 36, 51
1, 454726, Poly_aftertouch_c, 0, 38, 127
1, 454732, Note_on_c, 0, 86, 86
1, 454751, Note_on_c, 0, 90, 87
1, 454756, Note_off_c, 0, 86, 67
1, 454762, Note_off_c, 0, 90, 73
1, 454764, Poly_aftertouch_c, 0, 38, 0
1, 454774, Note_on_c, 0, 89, 74
1, 454806, Note_on_c, 0, 87, 21
1, 454809, Note_on_c, 0, 45, 91
1, 454809, Note_on_c, 0, 93, 98
1, 454810, Note_on_c, 0, 37, 96
1, 454814, Note_on_c, 0, 40, 81
1, 454815, Note_off_c, 0, 89, 66
1, 454820, Note_on_c, 0, 88, 28
1, 454820, Note_off_c, 0, 88, 127
1, 454823, Note_on_c, 0, 91, 71
1, 454824, Note_on_c, 0, 90, 52
1, 454824, Note_off_c, 0, 90, 127
1, 454836, Note_off_c, 0, 40, 64
1, 454839, Note_off_c, 0, 45, 67
1, 454841, Note_off_c, 0, 91, 64
1, 454845, Note_off_c, 0, 37, 61
1, 454854, Note_off_c, 0, 87, 35
1, 454876, Control_c, 0, 64, 87
1, 454891, Control_c, 0, 64, 61
1, 454906, Control_c, 0, 64, 0
1, 455018, Note_on_c, 0, 33, 68
1, 455021, Note_on_c, 0, 37, 63
1, 455023, Note_on_c, 0, 40, 65
1, 455045, Note_off_c, 0, 37, 62
1, 455048, Note_off_c, 0, 33, 63
1, 455048, Note_off_c, 0, 40, 62
1, 455158, Note_off_c, 0, 93, 61
1, 455200, Note_on_c, 0, 92, 84
1, 455214, Note_on_c, 0, 37, 53
1, 455222, Note_on_c, 0, 45, 54
1, 455228, Note_off_c, 0, 92, 63
1, 455247, Note_off_c, 0, 37, 60
1, 455250, Note_off_c, 0, 45, 51
1, 455379, Note_on_c, 0, 90, 84
1, 455388, Note_on_c, 0, 40, 60
1, 455391, Note_on_c, 0, 33, 63
1, 455396, Note_on_c, 0, 37, 43
1, 455411, Note_off_c, 0, 90, 66
1, 455416, Note_off_c, 0, 40, 59
1, 455423, Note_off_c, 0, 33, 63
1, 455431, Note_off_c, 0, 37, 54
1, 455559, Note_on_c, 0, 88, 81
1, 455567, Note_on_c, 0, 37, 64
1, 455586, Note_on_c, 0, 45, 56
1, 455589, Note_off_c, 0, 88, 65
1, 455594, Note_on_c, 0, 90, 68
1, 455612, Note_off_c, 0, 45, 59
1, 455621, Note_off_c, 0, 37, 60
1, 455626, Note_off_c, 0, 90, 65
1, 455650, Note_on_c, 0, 88, 79
1, 455688, Note_off_c, 0, 88, 62
1, 455700, Note_on_c, 0, 90, 58
1, 455730, Note_off_c, 0, 90, 66
1, 455740, Note_on_c, 0, 88, 75
1, 455762, Note_on_c, 0, 33, 61
1, 455765, Note_on_c, 0, 40, 43
1, 455766, Note_on_c, 0, 37, 46
1, 455781, Note_off_c, 0, 88, 67
1, 455789, Note_on_c, 0, 90, 64
1, 455791, Note_off_c, 0, 33, 59
1, 455799, Note_off_c, 0, 40, 46
1, 455802, Note_off_c, 0, 37, 50
1, 455820, Note_off_c, 0, 90, 67
1, 455843, Note_on_c, 0, 88, 67
1, 455870, Note_off_c, 0, 88, 66
1, 455874, Note_on_c, 0, 90, 65
1, 455902, Note_off_c, 0, 90, 68
1, 455929, Note_on_c, 0, 88, 75
1, 455931, Note_on_c, 0, 37, 61
1, 455953, Note_on_c, 0, 45, 43
1, 455966, Note_off_c, 0, 88, 64
1, 455970, Note_off_c, 0, 37, 65
1, 455978, Note_on_c, 0, 90, 67
1, 455990, Note_off_c, 0, 45, 32
1, 456006, Note_off_c, 0, 90, 68
1, 456014, Note_on_c, 0, 88, 75
1, 456061, Note_off_c, 0, 88, 66
1, 456067, Note_on_c, 0, 90, 55
1, 456073, Note_on_c, 0, 37, 63
1, 456078, Note_on_c, 0, 40, 69
1, 456082, Note_on_c, 0, 33, 62
1, 456103, Note_off_c, 0, 37, 63
1, 456106, Note_on_c, 0, 88, 57
1, 456109, Note_off_c, 0, 40, 64
1, 456109, Note_off_c, 0, 33, 58
1, 456126, Note_off_c, 0, 88, 65
1, 456154, Note_off_c, 0, 90, 62
1, 456163, Note_on_c, 0, 87, 46
1, 456196, Note_on_c, 0, 88, 81
1, 456207, Note_off_c, 0, 87, 62
1, 456248, Note_on_c, 0, 37, 74
1, 456249, Note_off_c, 0, 88, 67
1, 456260, Note_on_c, 0, 45, 65
1, 456264, Note_on_c, 0, 90, 72
1, 456279, Note_off_c, 0, 90, 67
1, 456287, Note_off_c, 0, 37, 66
1, 456289, Note_off_c, 0, 45, 64
1, 456462, Note_on_c, 0, 33, 61
1, 456465, Note_on_c, 0, 40, 58
1, 456496, Note_off_c, 0, 33, 62
1, 456502, Note_off_c, 0, 40, 64
1, 456640, Control_c, 0, 67, 34
1, 456655, Control_c, 0, 67, 66
1, 456656, Note_on_c, 0, 37, 66
1, 456657, Note_on_c, 0, 88, 77
1, 456662, Note_on_c, 0, 76, 72
1, 456670, Control_c, 0, 67, 95
1, 456672, Note_on_c, 0, 45, 53
1, 456685, Control_c, 0, 67, 105
1, 456699, Note_off_c, 0, 45, 55
1, 456699, Control_c, 0, 67, 108
1, 456702, Note_off_c, 0, 37, 62
1, 456714, Control_c, 0, 67, 119
1, 456729, Control_c, 0, 67, 127
1, 456837, Note_on_c, 0, 33, 68
1, 456845, Note_on_c, 0, 40, 55
1, 456874, Note_off_c, 0, 33, 63
1, 456878, Note_off_c, 0, 40, 60
1, 457043, Note_on_c, 0, 37, 64
1, 457051, Note_on_c, 0, 45, 58
1, 457082, Note_off_c, 0, 45, 64
1, 457086, Note_off_c, 0, 37, 61
1, 457127, Note_on_c, 0, 85, 65
1, 457128, Note_off_c, 0, 88, 57
1, 457150, Note_off_c, 0, 76, 29
1, 457165, Note_off_c, 0, 85, 57
1, 457220, Note_on_c, 0, 81, 71
1, 457227, Note_on_c, 0, 40, 51
1, 457228, Note_on_c, 0, 33, 58
1, 457239, Note_on_c, 0, 37, 42
1, 457260, Note_off_c, 0, 33, 59
1, 457260, Note_off_c, 0, 40, 56
1, 457264, Note_off_c, 0, 81, 64
1, 457274, Note_off_c, 0, 37, 54
1, 457284, Note_on_c, 0, 76, 73
1, 457307, Note_off_c, 0, 76, 71
1, 457405, Note_on_c, 0, 37, 59
1, 457421, Note_on_c, 0, 57, 78
1, 457427, Note_on_c, 0, 45, 46
1, 457442, Note_off_c, 0, 57, 68
1, 457448, Note_off_c, 0, 37, 63
1, 457458, Note_off_c, 0, 45, 48
1, 457602, Note_on_c, 0, 33, 60
1, 457606, Note_on_c, 0, 37, 54
1, 457608, Note_on_c, 0, 81, 70
1, 457617, Note_on_c, 0, 69, 63
1, 457623, Note_off_c, 0, 81, 70
1, 457636, Note_off_c, 0, 69, 64
1, 457640, Note_off_c, 0, 33, 61
1, 457658, Note_off_c, 0, 37, 61
1, 457807, Note_on_c, 0, 47, 61
1, 457811, Note_on_c, 0, 59, 73
1, 457821, Note_on_c, 0, 40, 45
1, 457829, Note_on_c, 0, 38, 42
1, 457835, Note_off_c, 0, 59, 67
1, 457839, Note_off_c, 0, 47, 64
1, 457853, Note_off_c, 0, 40, 56
1, 457866, Note_off_c, 0, 38, 53
1, 457999, Note_on_c, 0, 33, 58
1, 458002, Note_on_c, 0, 40, 53
1, 458007, Note_on_c, 0, 83, 60
1, 458012, Note_on_c, 0, 71, 57
1, 458025, Note_off_c, 0, 83, 63
1, 458035, Note_off_c, 0, 71, 59
1, 458036, Note_off_c, 0, 33, 63
1, 458043, Note_off_c, 0, 40, 60
1, 458196, Note_on_c, 0, 44, 64
1, 458200, Note_on_c, 0, 56, 70
1, 458210, Note_on_c, 0, 40, 43
1, 458219, Note_on_c, 0, 38, 44
1, 458225, Note_off_c, 0, 44, 64
1, 458227, Note_off_c, 0, 56, 66
1, 458241, Note_off_c, 0, 40, 59
1, 458251, Note_off_c, 0, 38, 56
1, 458387, Note_on_c, 0, 33, 60
1, 458389, Note_on_c, 0, 38, 52
1, 458397, Note_on_c, 0, 68, 68
1, 458399, Note_on_c, 0, 80, 64
1, 458404, Note_on_c, 0, 40, 17
1, 458419, Note_off_c, 0, 33, 61
1, 458419, Note_off_c, 0, 38, 57
1, 458422, Note_off_c, 0, 68, 70
1, 458425, Note_off_c, 0, 80, 69
1, 458449, Note_off_c, 0, 40, 37
1, 458591, Note_on_c, 0, 38, 55
1, 458592, Note_on_c, 0, 52, 76
1, 458595, Note_on_c, 0, 40, 50
1, 458615, Note_off_c, 0, 52, 67
1, 458631, Note_off_c, 0, 40, 60
1, 458632, Note_off_c, 0, 38, 62
1, 458783, Note_on_c, 0, 33, 66
1, 458789, Note_on_c, 0, 40, 54
1, 458796, Note_on_c, 0, 38, 47
1, 458796, Note_on_c, 0, 64, 54
1, 458796, Note_on_c, 0, 76, 58
1, 458814, Note_off_c, 0, 76, 63
1, 458816, Note_off_c, 0, 40, 59
1, 458818, Note_off_c, 0, 64, 61
1, 458820, Note_off_c, 0, 33, 60
1, 458828, Note_off_c, 0, 38, 54
1, 458975, Note_on_c, 0, 47, 72
1, 458980, Note_on_c, 0, 59, 73
1, 458985, Note_on_c, 0, 40, 45
1, 458986, Note_on_c, 0, 38, 42
1, 459006, Note_off_c, 0, 59, 67
1, 459007, Note_off_c, 0, 47, 66
1, 459026, Note_off_c, 0, 40, 61
1, 459038, Note_off_c, 0, 38, 61
1, 459166, Note_on_c, 0, 33, 64
1, 459175, Note_on_c, 0, 83, 70
1, 459176, Note_on_c, 0, 40, 56
1, 459182, Note_on_c, 0, 71, 62
1, 459196, Note_off_c, 0, 83, 70
1, 459197, Note_on_c, 0, 38, 37
1, 459200, Note_off_c, 0, 71, 62
1, 459218, Note_off_c, 0, 33, 60
1, 459226, Note_off_c, 0, 40, 57
1, 459242, Note_off_c, 0, 38, 48
1, 459370, Note_on_c, 0, 49, 76
1, 459372, Note_on_c, 0, 61, 78
1, 459379, Note_on_c, 0, 37, 67
1, 459394, Note_off_c, 0, 61, 71
1, 459399, Note_off_c, 0, 49, 65
1, 459424, Note_off_c, 0, 37, 62
1, 459558, Note_on_c, 0, 40, 58
1, 459565, Note_on_c, 0, 33, 59
1, 459569, Note_on_c, 0, 85, 76
1, 459573, Note_on_c, 0, 73, 70
1, 459581, Note_on_c, 0, 37, 27
1, 459592, Note_off_c, 0, 85, 70
1, 459597, Note_off_c, 0, 40, 63
1, 459597, Note_off_c, 0, 73, 69
1, 459603, Note_off_c, 0, 33, 63
1, 459621, Note_off_c, 0, 37, 43
1, 459753, Note_on_c, 0, 37, 53
1, 459761, Note_on_c, 0, 57, 77
1, 459772, Note_on_c, 0, 45, 37
1, 459781, Note_off_c, 0, 57, 68
1, 459805, Note_off_c, 0, 37, 57
1, 459807, Note_off_c, 0, 45, 44
1, 459946, Note_on_c, 0, 40, 68
1, 459949, Note_on_c, 0, 81, 65
1, 459963, Note_on_c, 0, 69, 64
1, 459973, Note_on_c, 0, 33, 40
1, 459979, Note_off_c, 0, 81, 70
1, 459981, Note_off_c, 0, 69, 65
1, 459985, Note_off_c, 0, 40, 62
1, 460012, Note_off_c, 0, 33, 44
1, 460151, Note_on_c, 0, 52, 71
1, 460152, Note_on_c, 0, 37, 64
1, 460159, Note_on_c, 0, 45, 51
1, 460178, Note_off_c, 0, 52, 65
1, 460185, Note_off_c, 0, 37, 62
1, 460187, Note_off_c, 0, 45, 53
1, 460327, Note_on_c, 0, 33, 70
1, 460328, Note_on_c, 0, 40, 72
1, 460328, Note_on_c, 0, 76, 76
1, 460359, Note_off_c, 0, 40, 64
1, 460360, Note_off_c, 0, 76, 63
1, 460361, Note_off_c, 0, 33, 63
1, 460363, Note_on_c, 0, 64, 8
1, 460363, Note_off_c, 0, 64, 127
1, 460533, Control_c, 0, 67, 96
1, 460542, Note_on_c, 0, 93, 91
1, 460548, Control_c, 0, 67, 72
1, 460554, Note_on_c, 0, 40, 86
1, 460554, Note_on_c, 0, 37, 85
1, 460556, Note_on_c, 0, 45, 79
1, 460562, Control_c, 0, 67, 47
1, 460577, Control_c, 0, 67, 0
1, 460581, Note_off_c, 0, 40, 68
1, 460581, Note_off_c, 0, 45, 66
1, 460586, Note_on_c, 0, 92, 77
1, 460589, Note_off_c, 0, 37, 63
1, 460631, Note_off_c, 0, 93, 62
1, 460633, Note_on_c, 0, 90, 80
1, 460654, Note_off_c, 0, 92, 66
1, 460665, Note_on_c, 0, 88, 77
1, 460671, Note_off_c, 0, 90, 64
1, 460685, Note_off_c, 0, 88, 74
1, 460729, Note_on_c, 0, 33, 88
1, 460731, Note_on_c, 0, 40, 79
1, 460732, Note_on_c, 0, 37, 77
1, 460732, Note_on_c, 0, 86, 94
1, 460755, Note_off_c, 0, 40, 66
1, 460756, Note_off_c, 0, 33, 65
1, 460757, Note_off_c, 0, 37, 66
1, 460779, Note_on_c, 0, 85, 60
1, 460805, Note_off_c, 0, 85, 54
1, 460815, Note_on_c, 0, 84, 45
1, 460821, Note_off_c, 0, 86, 64
1, 460833, Note_on_c, 0, 83, 48
1, 460836, Note_on_c, 0, 81, 77
1, 460845, Note_off_c, 0, 84, 34
1, 460856, Note_off_c, 0, 81, 71
1, 460858, Note_off_c, 0, 83, 53
1, 460881, Note_on_c, 0, 40, 86
1, 460887, Note_on_c, 0, 47, 88
1, 460888, Note_on_c, 0, 38, 89
1, 460895, Note_on_c, 0, 82, 82
1, 460896, Note_on_c, 0, 80, 83
1, 460899, Note_on_c, 0, 81, 66
1, 460908, Note_off_c, 0, 47, 69
1, 460909, Note_off_c, 0, 40, 68
1, 460911, Note_off_c, 0, 38, 67
1, 460918, Note_off_c, 0, 81, 63
1, 460948, Note_off_c, 0, 82, 62
1, 460991, Poly_aftertouch_c, 0, 36, 0
1, 461099, Note_on_c, 0, 38, 65
1, 461100, Note_on_c, 0, 40, 68
1, 461117, Note_on_c, 0, 33, 45
1, 461129, Note_off_c, 0, 40, 64
1, 461138, Note_off_c, 0, 38, 62
1, 461154, Note_off_c, 0, 33, 47
1, 461221, Note_off_c, 0, 80, 64
1, 461260, Note_on_c, 0, 78, 82
1, 461263, Note_on_c, 0, 33, 67
1, 461270, Note_on_c, 0, 38, 62
1, 461293, Note_on_c, 0, 40, 20
1, 461303, Note_off_c, 0, 38, 63
1, 461304, Note_off_c, 0, 33, 64
1, 461305, Note_off_c, 0, 78, 59
1, 461339, Note_off_c, 0, 40, 40
1, 461438, Note_on_c, 0, 33, 68
1, 461439, Note_on_c, 0, 80, 78
1, 461444, Note_on_c, 0, 38, 60
1, 461448, Note_on_c, 0, 40, 52
1, 461472, Note_off_c, 0, 80, 64
1, 461496, Note_off_c, 0, 33, 56
1, 461496, Note_off_c, 0, 40, 61
1, 461501, Note_off_c, 0, 38, 60
1, 461618, Note_on_c, 0, 76, 78
1, 461630, Note_on_c, 0, 50, 82
1, 461634, Note_on_c, 0, 40, 65
1, 461636, Note_on_c, 0, 38, 58
1, 461655, Note_off_c, 0, 76, 63
1, 461659, Note_off_c, 0, 50, 66
1, 461665, Note_on_c, 0, 78, 70
1, 461686, Note_off_c, 0, 40, 56
1, 461697, Note_off_c, 0, 78, 59
1, 461721, Note_on_c, 0, 76, 74
1, 461725, Note_off_c, 0, 38, 35
1, 461761, Note_on_c, 0, 78, 69
1, 461761, Note_off_c, 0, 76, 62
1, 461797, Note_on_c, 0, 38, 62
1, 461814, Note_on_c, 0, 76, 56
1, 461814, Note_on_c, 0, 33, 61
1, 461826, Note_on_c, 0, 40, 27
1, 461835, Note_off_c, 0, 76, 60
1, 461841, Note_on_c, 0, 75, 65
1, 461841, Note_off_c, 0, 78, 60
1, 461843, Note_off_c, 0, 33, 58
1, 461844, Note_off_c, 0, 38, 63
1, 461866, Note_off_c, 0, 40, 42
1, 461901, Note_on_c, 0, 76, 87
1, 461912, Note_off_c, 0, 75, 58
1, 461933, Note_off_c, 0, 76, 66
1, 461940, Note_on_c, 0, 78, 70
1, 461960, Note_on_c, 0, 38, 64
1, 461965, Note_off_c, 0, 78, 68
1, 461981, Note_on_c, 0, 33, 45
1, 461988, Note_on_c, 0, 40, 18
1, 462002, Note_off_c, 0, 38, 61
1, 462019, Note_off_c, 0, 33, 46
1, 462032, Note_off_c, 0, 40, 40
1, 462139, Note_on_c, 0, 33, 58
1, 462142, Note_on_c, 0, 40, 57
1, 462142, Note_on_c, 0, 80, 76
1, 462153, Note_on_c, 0, 38, 47
1, 462161, Note_off_c, 0, 80, 73
1, 462178, Note_off_c, 0, 33, 64
1, 462180, Note_off_c, 0, 40, 65
1, 462187, Note_off_c, 0, 38, 50
1, 462330, Note_on_c, 0, 81, 84
1, 462335, Note_on_c, 0, 49, 66
1, 462339, Note_on_c, 0, 37, 71
1, 462348, Note_off_c, 0, 81, 73
1, 462351, Note_on_c, 0, 40, 43
1, 462365, Note_off_c, 0, 49, 65
1, 462375, Note_off_c, 0, 37, 63
1, 462383, Note_off_c, 0, 40, 51
1, 462519, Note_on_c, 0, 40, 46
1, 462529, Note_on_c, 0, 33, 55
1, 462530, Note_on_c, 0, 37, 55
1, 462564, Note_off_c, 0, 40, 53
1, 462566, Note_off_c, 0, 33, 60
1, 462569, Note_off_c, 0, 37, 64
1, 462702, Note_on_c, 0, 69, 102
1, 462704, Control_c, 0, 64, 55
1, 462712, Note_on_c, 0, 40, 66
1, 462713, Note_on_c, 0, 33, 64
1, 462713, Note_on_c, 0, 37, 63
1, 462719, Control_c, 0, 64, 93
1, 462734, Control_c, 0, 64, 127
1, 462759, Note_off_c, 0, 33, 58
1, 462765, Note_off_c, 0, 37, 60
1, 462785, Note_off_c, 0, 40, 44
1, 462794, Note_off_c, 0, 69, 61
1, 462880, Note_on_c, 0, 33, 69
1, 462888, Note_on_c, 0, 37, 63
1, 462891, Note_on_c, 0, 40, 65
1, 462908, Note_off_c, 0, 33, 63
1, 462922, Note_off_c, 0, 37, 63
1, 462926, Note_off_c, 0, 40, 60
1, 463086, Note_on_c, 0, 76, 70
1, 463100, Note_on_c, 0, 52, 70
1, 463102, Note_on_c, 0, 40, 62
1, 463127, Note_off_c, 0, 40, 65
1, 463127, Note_off_c, 0, 52, 66
1, 463144, Note_off_c, 0, 76, 62
1, 463150, Note_on_c, 0, 81, 61
1, 463187, Note_on_c, 0, 85, 80
1, 463189, Note_off_c, 0, 81, 64
1, 463215, Note_off_c, 0, 85, 63
1, 463257, Note_on_c, 0, 40, 63
1, 463268, Note_on_c, 0, 33, 68
1, 463292, Note_on_c, 0, 88, 66
1, 463315, Note_off_c, 0, 40, 60
1, 463327, Note_off_c, 0, 33, 38
1, 463335, Note_on_c, 0, 97, 93
1, 463363, Note_off_c, 0, 88, 62
1, 463375, Note_on_c, 0, 100, 93
1, 463393, Note_off_c, 0, 97, 66
1, 463397, Note_on_c, 0, 40, 84
1, 463399, Note_on_c, 0, 33, 83
1, 463414, Note_off_c, 0, 100, 65
1, 463430, Note_off_c, 0, 40, 62
1, 463434, Note_off_c, 0, 33, 65
1, 463498, Control_c, 0, 64, 78
1, 463512, Control_c, 0, 64, 48
1, 463527, Control_c, 0, 64, 0
1, 463594, Note_on_c, 0, 33, 63
1, 463612, Note_on_c, 0, 40, 50
1, 463614, Note_on_c, 0, 52, 80
1, 463624, Note_off_c, 0, 33, 62
1, 463636, Note_off_c, 0, 52, 67
1, 463640, Note_off_c, 0, 40, 55
1, 463713, Control_c, 0, 67, 41
1, 463728, Control_c, 0, 67, 60
1, 463743, Control_c, 0, 67, 78
1, 463758, Control_c, 0, 67, 102
1, 463773, Control_c, 0, 67, 127
1, 463794, Note_on_c, 0, 54, 80
1, 463797, Note_on_c, 0, 42, 76
1, 463815, Note_off_c, 0, 54, 68
1, 463827, Note_off_c, 0, 42, 64
1, 463982, Note_on_c, 0, 33, 67
1, 463984, Note_on_c, 0, 38, 58
1, 463992, Note_on_c, 0, 66, 75
1, 463999, Note_on_c, 0, 78, 63
1, 464008, Note_off_c, 0, 66, 68
1, 464014, Note_off_c, 0, 78, 63
1, 464016, Note_off_c, 0, 38, 64
1, 464020, Note_off_c, 0, 33, 63
1, 464169, Note_on_c, 0, 55, 75
1, 464169, Note_on_c, 0, 43, 66
1, 464191, Note_off_c, 0, 55, 66
1, 464200, Note_off_c, 0, 43, 64
1, 464348, Note_on_c, 0, 40, 67
1, 464352, Note_on_c, 0, 33, 67
1, 464354, Note_on_c, 0, 79, 80
1, 464357, Note_on_c, 0, 67, 77
1, 464372, Note_off_c, 0, 79, 74
1, 464378, Note_off_c, 0, 67, 71
1, 464385, Note_off_c, 0, 40, 64
1, 464397, Note_off_c, 0, 33, 61
1, 464548, Note_on_c, 0, 44, 71
1, 464554, Note_on_c, 0, 56, 77
1, 464578, Note_on_c, 0, 38, 31
1, 464580, Note_off_c, 0, 56, 66
1, 464580, Note_off_c, 0, 44, 65
1, 464619, Note_off_c, 0, 38, 46
1, 464737, Note_on_c, 0, 40, 68
1, 464739, Note_on_c, 0, 33, 71
1, 464748, Note_on_c, 0, 68, 90
1, 464748, Note_on_c, 0, 80, 89
1, 464766, Note_off_c, 0, 68, 70
1, 464774, Note_off_c, 0, 40, 64
1, 464780, Note_off_c, 0, 33, 61
1, 464780, Note_off_c, 0, 80, 64
1, 464931, Note_on_c, 0, 49, 71
1, 464937, Note_on_c, 0, 61, 68
1, 464956, Note_on_c, 0, 38, 42
1, 464958, Note_off_c, 0, 61, 65
1, 464960, Note_off_c, 0, 49, 64
1, 465020, Note_off_c, 0, 38, 51
1, 465031, Poly_aftertouch_c, 0, 40, 0
1, 465115, Note_on_c, 0, 33, 68
1, 465115, Note_on_c, 0, 40, 71
1, 465124, Note_on_c, 0, 73, 90
1, 465124, Note_on_c, 0, 85, 91
1, 465142, Note_off_c, 0, 73, 73
1, 465142, Note_off_c, 0, 85, 72
1, 465154, Note_off_c, 0, 33, 64
1, 465156, Note_off_c, 0, 40, 62
1, 465317, Note_on_c, 0, 59, 84
1, 465320, Note_on_c, 0, 47, 62
1, 465332, Note_on_c, 0, 37, 55
1, 465337, Note_off_c, 0, 59, 68
1, 465352, Note_off_c, 0, 47, 63
1, 465366, Note_off_c, 0, 37, 63
1, 465505, Note_on_c, 0, 33, 65
1, 465511, Note_on_c, 0, 71, 73
1, 465512, Note_on_c, 0, 83, 74
1, 465518, Note_on_c, 0, 37, 44
1, 465523, Note_on_c, 0, 40, 37
1, 465534, Note_off_c, 0, 83, 71
1, 465535, Note_off_c, 0, 71, 69
1, 465537, Note_on_c, 0, 41, 18
1, 465537, Note_off_c, 0, 33, 63
1, 465552, Note_off_c, 0, 37, 53
1, 465560, Note_off_c, 0, 40, 45
1, 465581, Note_off_c, 0, 41, 37
1, 465693, Note_on_c, 0, 57, 76
1, 465699, Note_on_c, 0, 37, 53
1, 465700, Note_on_c, 0, 45, 62
1, 465719, Note_off_c, 0, 57, 68
1, 465733, Note_off_c, 0, 45, 65
1, 465737, Note_off_c, 0, 37, 63
1, 465877, Note_on_c, 0, 33, 67
1, 465878, Note_on_c, 0, 40, 69
1, 465885, Note_on_c, 0, 81, 64
1, 465891, Note_on_c, 0, 69, 67
1, 465901, Note_off_c, 0, 81, 67
1, 465907, Note_off_c, 0, 33, 63
1, 465908, Note_off_c, 0, 69, 67
1, 465914, Note_off_c, 0, 40, 63
1, 466077, Note_on_c, 0, 52, 77
1, 466080, Note_on_c, 0, 37, 65
1, 466080, Note_on_c, 0, 45, 62
1, 466101, Note_off_c, 0, 52, 66
1, 466105, Note_on_c, 0, 40, 24
1, 466113, Note_off_c, 0, 45, 65
1, 466115, Note_off_c, 0, 37, 61
1, 466147, Note_off_c, 0, 40, 42
1, 466262, Note_on_c, 0, 76, 78
1, 466264, Note_on_c, 0, 33, 73
1, 466265, Note_on_c, 0, 40, 68
1, 466276, Note_on_c, 0, 37, 15
1, 466276, Note_on_c, 0, 64, 43
1, 466292, Note_off_c, 0, 33, 64
1, 466293, Note_off_c, 0, 76, 66
1, 466297, Note_off_c, 0, 40, 63
1, 466306, Note_off_c, 0, 64, 35
1, 466324, Note_off_c, 0, 37, 37
1, 466473, Note_on_c, 0, 93, 93
1, 466477, Control_c, 0, 67, 81
1, 466488, Note_on_c, 0, 37, 77
1, 466491, Note_on_c, 0, 40, 82
1, 466492, Control_c, 0, 64, 66
1, 466492, Control_c, 0, 67, 0
1, 466496, Note_on_c, 0, 45, 78
1, 466507, Control_c, 0, 64, 127
1, 466512, Note_on_c, 0, 92, 75
1, 466525, Note_off_c, 0, 45, 62
1, 466535, Note_off_c, 0, 40, 58
1, 466564, Note_on_c, 0, 90, 79
1, 466564, Note_off_c, 0, 93, 60
1, 466585, Note_off_c, 0, 92, 67
1, 466597, Note_on_c, 0, 88, 77
1, 466607, Note_off_c, 0, 90, 65
1, 466617, Note_off_c, 0, 88, 73
1, 466621, Note_off_c, 0, 37, 57
1, 466656, Note_on_c, 0, 33, 87
1, 466657, Note_on_c, 0, 86, 94
1, 466667, Poly_aftertouch_c, 0, 37, 0
1, 466668, Note_on_c, 0, 40, 74
1, 466685, Note_off_c, 0, 33, 66
1, 466693, Note_off_c, 0, 40, 65
1, 466715, Note_on_c, 0, 85, 72
1, 466739, Note_on_c, 0, 82, 69
1, 466743, Note_off_c, 0, 86, 65
1, 466752, Note_off_c, 0, 85, 62
1, 466756, Note_on_c, 0, 81, 72
1, 466763, Note_off_c, 0, 82, 70
1, 466778, Note_off_c, 0, 81, 71
1, 466819, Note_on_c, 0, 80, 94
1, 466826, Note_on_c, 0, 47, 91
1, 466828, Note_on_c, 0, 59, 91
1, 466831, Note_on_c, 0, 50, 80
1, 466847, Note_on_c, 0, 79, 51
1, 466847, Note_off_c, 0, 59, 71
1, 466849, Note_off_c, 0, 47, 69
1, 466857, Control_c, 0, 64, 78
1, 466858, Note_off_c, 0, 50, 69
1, 466870, Note_off_c, 0, 79, 62
1, 466872, Control_c, 0, 64, 45
1, 466886, Note_off_c, 0, 80, 0
1, 466887, Control_c, 0, 64, 0
1, 466923, Poly_aftertouch_c, 0, 80, 127
1, 466931, Note_on_c, 0, 79, 47
1, 466956, Note_off_c, 0, 79, 59
1, 467020, Note_on_c, 0, 33, 73
1, 467031, Note_on_c, 0, 40, 55
1, 467048, Note_off_c, 0, 33, 63
1, 467061, Note_off_c, 0, 40, 56
1, 467124, Poly_aftertouch_c, 0, 80, 0
1, 467185, Note_on_c, 0, 33, 71
1, 467186, Note_on_c, 0, 78, 81
1, 467187, Note_on_c, 0, 40, 62
1, 467209, Note_off_c, 0, 78, 64
1, 467225, Note_off_c, 0, 33, 63
1, 467227, Note_off_c, 0, 40, 64
1, 467356, Note_on_c, 0, 33, 77
1, 467358, Note_on_c, 0, 80, 81
1, 467374, Note_on_c, 0, 40, 59
1, 467388, Note_off_c, 0, 80, 63
1, 467390, Note_off_c, 0, 33, 67
1, 467407, Note_off_c, 0, 40, 63
1, 467544, Note_on_c, 0, 76, 72
1, 467553, Note_on_c, 0, 52, 86
1, 467559, Note_on_c, 0, 62, 83
1, 467560, Control_c, 0, 64, 59
1, 467562, Note_on_c, 0, 50, 76
1, 467571, Note_off_c, 0, 76, 64
1, 467576, Control_c, 0, 64, 127
1, 467577, Note_on_c, 0, 78, 57
1, 467582, Note_off_c, 0, 52, 67
1, 467583, Note_off_c, 0, 62, 68
1, 467586, Note_off_c, 0, 50, 67
1, 467612, Note_off_c, 0, 78, 59
1, 467636, Note_on_c, 0, 76, 74
1, 467690, Note_off_c, 0, 76, 51
1, 467699, Note_on_c, 0, 78, 70
1, 467729, Note_on_c, 0, 41, 51
1, 467732, Note_on_c, 0, 40, 47
1, 467745, Note_on_c, 0, 35, 27
1, 467760, Note_off_c, 0, 41, 54
1, 467761, Note_on_c, 0, 75, 66
1, 467764, Note_off_c, 0, 40, 52
1, 467767, Note_off_c, 0, 78, 60
1, 467788, Note_off_c, 0, 35, 40
1, 467817, Note_off_c, 0, 75, 54
1, 467821, Note_on_c, 0, 76, 71
1, 467842, Note_on_c, 0, 78, 84
1, 467845, Note_on_c, 0, 33, 68
1, 467847, Note_on_c, 0, 40, 75
1, 467865, Note_off_c, 0, 76, 66
1, 467880, Note_off_c, 0, 78, 61
1, 467893, Note_off_c, 0, 40, 62
1, 467895, Note_off_c, 0, 33, 61
1, 467931, Control_c, 0, 64, 81
1, 467946, Control_c, 0, 64, 56
1, 467961, Control_c, 0, 64, 0
1, 468043, Note_on_c, 0, 33, 77
1, 468051, Note_on_c, 0, 40, 71
1, 468054, Note_on_c, 0, 80, 85
1, 468072, Note_off_c, 0, 80, 69
1, 468074, Note_off_c, 0, 33, 62
1, 468080, Note_off_c, 0, 40, 64
1, 468233, Note_on_c, 0, 49, 91
1, 468235, Note_on_c, 0, 81, 99
1, 468241, Note_on_c, 0, 61, 81
1, 468256, Note_off_c, 0, 61, 68
1, 468256, Note_off_c, 0, 49, 70
1, 468262, Note_off_c, 0, 81, 66
1, 468440, Note_on_c, 0, 33, 75
1, 468447, Note_on_c, 0, 37, 58
1, 468450, Note_on_c, 0, 40, 63
1, 468472, Note_off_c, 0, 33, 58
1, 468477, Note_off_c, 0, 37, 56
1, 468480, Note_off_c, 0, 40, 62
1, 468608, Note_on_c, 0, 69, 100
1, 468612, Note_on_c, 0, 40, 75
1, 468613, Note_on_c, 0, 33, 81
1, 468619, Note_on_c, 0, 37, 61
1, 468636, Control_c, 0, 64, 64
1, 468651, Control_c, 0, 64, 127
1, 468668, Note_off_c, 0, 40, 58
1, 468670, Note_off_c, 0, 33, 57
1, 468673, Note_off_c, 0, 37, 58
1, 468726, Note_off_c, 0, 69, 60
1, 468779, Note_on_c, 0, 33, 84
1, 468781, Note_on_c, 0, 40, 81
1, 468785, Note_on_c, 0, 37, 73
1, 468802, Note_off_c, 0, 33, 65
1, 468810, Note_off_c, 0, 40, 66
1, 468811, Note_off_c, 0, 37, 65
1, 468998, Note_on_c, 0, 64, 95
1, 468999, Note_on_c, 0, 52, 95
1, 469012, Note_on_c, 0, 76, 84
1, 469020, Note_off_c, 0, 64, 68
1, 469034, Note_off_c, 0, 52, 64
1, 469067, Note_off_c, 0, 76, 61
1, 469086, Note_on_c, 0, 81, 63
1, 469117, Note_on_c, 0, 85, 89
1, 469122, Note_off_c, 0, 81, 64
1, 469139, Note_off_c, 0, 85, 65
1, 469165, Note_on_c, 0, 40, 68
1, 469166, Note_on_c, 0, 33, 66
1, 469191, Note_off_c, 0, 33, 62
1, 469200, Note_off_c, 0, 40, 63
1, 469207, Note_on_c, 0, 88, 74
1, 469246, Note_on_c, 0, 97, 85
1, 469271, Note_on_c, 0, 100, 96
1, 469274, Note_on_c, 0, 33, 85
1, 469275, Note_off_c, 0, 88, 62
1, 469278, Note_on_c, 0, 98, 64
1, 469281, Note_on_c, 0, 40, 85
1, 469294, Note_off_c, 0, 97, 64
1, 469296, Note_off_c, 0, 98, 62
1, 469310, Note_off_c, 0, 40, 65
1, 469311, Note_off_c, 0, 100, 66
1, 469320, Note_off_c, 0, 33, 62
1, 469326, Control_c, 0, 64, 90
1, 469340, Control_c, 0, 64, 61
1, 469355, Control_c, 0, 64, 0
1, 469458, Note_on_c, 0, 33, 73
1, 469469, Note_on_c, 0, 40, 70
1, 469474, Control_c, 0, 67, 40
1, 469482, Note_off_c, 0, 33, 64
1, 469489, Note_on_c, 0, 64, 74
1, 469489, Control_c, 0, 67, 75
1, 469497, Note_off_c, 0, 40, 64
1, 469503, Control_c, 0, 67, 99
1, 469511, Note_off_c, 0, 64, 69
1, 469518, Control_c, 0, 67, 104
1, 469547, Control_c, 0, 67, 109
1, 469562, Control_c, 0, 67, 127
1, 469644, Note_on_c, 0, 52, 76
1, 469646, Note_on_c, 0, 66, 87
1, 469649, Note_on_c, 0, 62, 67
1, 469666, Note_off_c, 0, 66, 71
1, 469667, Note_off_c, 0, 62, 65
1, 469669, Note_off_c, 0, 52, 66
1, 469833, Note_on_c, 0, 90, 78
1, 469842, Note_on_c, 0, 78, 69
1, 469855, Note_off_c, 0, 90, 70
1, 469857, Note_on_c, 0, 33, 47
1, 469858, Note_off_c, 0, 78, 65
1, 469880, Note_on_c, 0, 40, 5
1, 469892, Note_off_c, 0, 33, 47
1, 469931, Note_off_c, 0, 40, 27
1, 470005, Note_on_c, 0, 33, 65
1, 470005, Note_on_c, 0, 40, 69
1, 470008, Note_on_c, 0, 67, 74
1, 470030, Note_off_c, 0, 67, 71
1, 470037, Note_off_c, 0, 40, 62
1, 470038, Note_off_c, 0, 33, 62
1, 470176, Note_on_c, 0, 33, 66
1, 470178, Note_on_c, 0, 91, 70
1, 470185, Note_on_c, 0, 79, 68
1, 470191, Note_on_c, 0, 40, 50
1, 470201, Note_off_c, 0, 91, 71
1, 470206, Note_off_c, 0, 79, 71
1, 470219, Note_off_c, 0, 33, 59
1, 470224, Note_off_c, 0, 40, 62
1, 470340, Note_on_c, 0, 33, 74
1, 470349, Note_on_c, 0, 40, 60
1, 470358, Note_on_c, 0, 68, 67
1, 470366, Note_off_c, 0, 33, 64
1, 470376, Note_off_c, 0, 68, 68
1, 470379, Note_off_c, 0, 40, 61
1, 470538, Note_on_c, 0, 52, 58
1, 470540, Note_on_c, 0, 92, 83
1, 470541, Note_on_c, 0, 62, 69
1, 470546, Note_on_c, 0, 80, 71
1, 470560, Note_off_c, 0, 92, 71
1, 470562, Note_off_c, 0, 80, 68
1, 470569, Note_off_c, 0, 62, 65
1, 470569, Note_off_c, 0, 52, 64
1, 470711, Note_on_c, 0, 73, 70
1, 470716, Note_on_c, 0, 62, 54
1, 470718, Note_on_c, 0, 52, 62
1, 470733, Note_off_c, 0, 73, 70
1, 470742, Note_off_c, 0, 62, 64
1, 470748, Note_off_c, 0, 52, 65
1, 470881, Note_on_c, 0, 45, 64
1, 470888, Note_on_c, 0, 97, 91
1, 470892, Note_on_c, 0, 85, 76
1, 470912, Note_off_c, 0, 85, 72
1, 470913, Note_off_c, 0, 45, 64
1, 470913, Note_off_c, 0, 97, 64
1, 471064, Note_on_c, 0, 45, 65
1, 471068, Note_on_c, 0, 71, 81
1, 471089, Note_off_c, 0, 71, 67
1, 471091, Note_on_c, 0, 52, 40
1, 471094, Note_off_c, 0, 45, 64
1, 471127, Note_off_c, 0, 52, 51
1, 471244, Note_on_c, 0, 52, 57
1, 471246, Note_on_c, 0, 61, 72
1, 471246, Note_on_c, 0, 95, 78
1, 471260, Note_on_c, 0, 83, 66
1, 471267, Note_off_c, 0, 95, 72
1, 471276, Note_off_c, 0, 61, 65
1, 471276, Note_off_c, 0, 83, 65
1, 471295, Note_off_c, 0, 52, 59
1, 471419, Note_on_c, 0, 45, 63
1, 471420, Note_on_c, 0, 69, 74
1, 471430, Note_on_c, 0, 52, 52
1, 471443, Note_off_c, 0, 69, 69
1, 471465, Note_off_c, 0, 52, 62
1, 471467, Note_off_c, 0, 45, 55
1, 471584, Note_on_c, 0, 93, 84
1, 471592, Note_on_c, 0, 81, 73
1, 471601, Note_on_c, 0, 61, 69
1, 471604, Note_off_c, 0, 93, 68
1, 471613, Note_on_c, 0, 52, 50
1, 471613, Note_off_c, 0, 81, 71
1, 471626, Note_off_c, 0, 61, 66
1, 471640, Note_off_c, 0, 52, 61
1, 471764, Note_on_c, 0, 64, 81
1, 471769, Note_on_c, 0, 61, 71
1, 471780, Note_on_c, 0, 52, 64
1, 471786, Note_off_c, 0, 64, 72
1, 471803, Note_off_c, 0, 61, 65
1, 471817, Note_off_c, 0, 52, 63
1, 471920, Note_on_c, 0, 52, 84
1, 471929, Note_on_c, 0, 45, 73
1, 471930, Note_on_c, 0, 88, 79
1, 471942, Note_on_c, 0, 76, 78
1, 471958, Note_off_c, 0, 52, 66
1, 471959, Note_off_c, 0, 88, 68
1, 471965, Note_off_c, 0, 45, 64
1, 471969, Note_off_c, 0, 76, 65
1, 472054, Control_c, 0, 67, 121
1, 472083, Control_c, 0, 67, 118
1, 472084, Note_on_c, 0, 76, 71
1, 472098, Control_c, 0, 67, 114
1, 472106, Note_on_c, 0, 78, 81
1, 472110, Note_off_c, 0, 76, 68
1, 472113, Control_c, 0, 67, 105
1, 472121, Note_on_c, 0, 52, 84
1, 472122, Note_on_c, 0, 45, 80
1, 472128, Control_c, 0, 67, 94
1, 472142, Control_c, 0, 67, 91
1, 472144, Note_off_c, 0, 52, 70
1, 472146, Note_off_c, 0, 45, 66
1, 472157, Control_c, 0, 67, 91
1, 472172, Control_c, 0, 67, 88
1, 472179, Note_off_c, 0, 78, 62
1, 472184, Note_on_c, 0, 80, 71
1, 472187, Control_c, 0, 67, 87
1, 472206, Note_off_c, 0, 80, 72
1, 472231, Control_c, 0, 67, 87
1, 472234, Note_on_c, 0, 81, 83
1, 472246, Control_c, 0, 67, 81
1, 472261, Control_c, 0, 67, 58
1, 472275, Control_c, 0, 67, 36
1, 472283, Note_off_c, 0, 81, 58
1, 472285, Note_on_c, 0, 83, 83
1, 472290, Control_c, 0, 67, 0
1, 472319, Note_on_c, 0, 40, 92
1, 472320, Note_on_c, 0, 85, 78
1, 472321, Note_on_c, 0, 33, 89
1, 472329, Note_off_c, 0, 83, 63
1, 472342, Note_off_c, 0, 85, 68
1, 472343, Note_off_c, 0, 40, 65
1, 472346, Note_off_c, 0, 33, 65
1, 472376, Note_on_c, 0, 86, 83
1, 472412, Note_off_c, 0, 86, 68
1, 472414, Note_on_c, 0, 90, 74
1, 472429, Note_on_c, 0, 89, 80
1, 472435, Note_on_c, 0, 93, 100
1, 472436, Note_on_c, 0, 33, 86
1, 472437, Note_on_c, 0, 40, 74
1, 472453, Note_off_c, 0, 89, 66
1, 472464, Note_off_c, 0, 33, 67
1, 472466, Note_off_c, 0, 40, 69
1, 472477, Note_off_c, 0, 90, 32
1, 472626, Note_on_c, 0, 52, 72
1, 472629, Note_on_c, 0, 61, 74
1, 472650, Note_off_c, 0, 52, 66
1, 472656, Note_off_c, 0, 61, 66
1, 472677, Control_c, 0, 67, 35
1, 472698, Control_c, 0, 67, 47
1, 472713, Control_c, 0, 67, 45
1, 472728, Control_c, 0, 67, 49
1, 472743, Control_c, 0, 67, 56
1, 472758, Control_c, 0, 67, 80
1, 472772, Control_c, 0, 67, 88
1, 472787, Control_c, 0, 67, 87
1, 472796, Note_off_c, 0, 93, 61
1, 472798, Note_on_c, 0, 92, 85
1, 472805, Note_on_c, 0, 33, 73
1, 472811, Note_on_c, 0, 40, 58
1, 472817, Control_c, 0, 67, 89
1, 472828, Note_off_c, 0, 92, 62
1, 472830, Note_off_c, 0, 33, 59
1, 472832, Control_c, 0, 67, 95
1, 472838, Note_off_c, 0, 40, 57
1, 472847, Control_c, 0, 67, 103
1, 472906, Control_c, 0, 67, 106
1, 472921, Control_c, 0, 67, 116
1, 472936, Control_c, 0, 67, 127
1, 472969, Note_on_c, 0, 61, 73
1, 472975, Note_on_c, 0, 52, 64
1, 472976, Note_on_c, 0, 90, 75
1, 472994, Note_off_c, 0, 61, 68
1, 472999, Note_off_c, 0, 90, 69
1, 473003, Note_off_c, 0, 52, 65
1, 473124, Note_on_c, 0, 88, 66
1, 473139, Note_on_c, 0, 33, 75
1, 473145, Note_on_c, 0, 40, 65
1, 473145, Note_on_c, 0, 90, 60
1, 473150, Note_off_c, 0, 88, 66
1, 473169, Note_off_c, 0, 33, 62
1, 473172, Note_off_c, 0, 40, 59
1, 473191, Note_off_c, 0, 90, 64
1, 473219, Note_on_c, 0, 88, 78
1, 473254, Note_off_c, 0, 88, 62
1, 473259, Note_on_c, 0, 90, 62
1, 473292, Note_off_c, 0, 90, 64
1, 473298, Note_on_c, 0, 52, 70
1, 473298, Note_on_c, 0, 61, 73
1, 473322, Note_off_c, 0, 61, 67
1, 473323, Note_on_c, 0, 88, 69
1, 473329, Note_off_c, 0, 52, 64
1, 473347, Note_off_c, 0, 88, 68
1, 473349, Note_on_c, 0, 90, 63
1, 473385, Note_off_c, 0, 90, 62
1, 473414, Note_on_c, 0, 88, 74
1, 473434, Note_on_c, 0, 90, 64
1, 473444, Note_off_c, 0, 88, 70
1, 473465, Note_on_c, 0, 33, 85
1, 473470, Note_on_c, 0, 40, 72
1, 473476, Note_off_c, 0, 90, 63
1, 473488, Note_off_c, 0, 33, 65
1, 473497, Note_off_c, 0, 40, 64
1, 473511, Note_on_c, 0, 88, 78
1, 473536, Note_off_c, 0, 88, 65
1, 473541, Note_on_c, 0, 90, 70
1, 473600, Note_on_c, 0, 88, 81
1, 473610, Note_on_c, 0, 61, 79
1, 473620, Note_on_c, 0, 52, 61
1, 473623, Note_off_c, 0, 88, 67
1, 473625, Note_on_c, 0, 53, 58
1, 473633, Note_off_c, 0, 61, 69
1, 473650, Note_off_c, 0, 52, 64
1, 473652, Note_off_c, 0, 53, 63
1, 473662, Note_off_c, 0, 90, 59
1, 473684, Note_on_c, 0, 87, 59
1, 473714, Note_off_c, 0, 87, 66
1, 473716, Note_on_c, 0, 88, 71
1, 473744, Control_c, 0, 67, 87
1, 473759, Note_on_c, 0, 90, 94
1, 473759, Control_c, 0, 67, 50
1, 473762, Note_on_c, 0, 33, 89
1, 473768, Note_off_c, 0, 88, 67
1, 473769, Note_on_c, 0, 40, 76
1, 473774, Note_off_c, 0, 90, 73
1, 473774, Control_c, 0, 67, 0
1, 473784, Note_off_c, 0, 33, 66
1, 473792, Note_off_c, 0, 40, 66
1, 473893, Control_c, 0, 67, 40
1, 473908, Control_c, 0, 67, 41
1, 473937, Control_c, 0, 67, 44
1, 473941, Note_on_c, 0, 61, 80
1, 473945, Note_on_c, 0, 52, 70
1, 473952, Control_c, 0, 67, 50
1, 473968, Note_off_c, 0, 61, 68
1, 473968, Control_c, 0, 67, 59
1, 473975, Note_off_c, 0, 52, 64
1, 473982, Control_c, 0, 67, 66
1, 473997, Control_c, 0, 67, 64
1, 474012, Control_c, 0, 67, 64
1, 474027, Control_c, 0, 67, 64
1, 474042, Control_c, 0, 67, 66
1, 474057, Control_c, 0, 67, 62
1, 474072, Control_c, 0, 67, 55
1, 474086, Control_c, 0, 67, 48
1, 474101, Control_c, 0, 67, 41
1, 474114, Note_on_c, 0, 33, 88
1, 474116, Control_c, 0, 67, 0
1, 474120, Note_on_c, 0, 88, 90
1, 474125, Note_on_c, 0, 40, 70
1, 474125, Note_on_c, 0, 76, 85
1, 474137, Note_off_c, 0, 33, 65
1, 474145, Control_c, 0, 64, 51
1, 474155, Note_off_c, 0, 40, 62
1, 474160, Control_c, 0, 64, 79
1, 474163, Note_off_c, 0, 76, 63
1, 474175, Control_c, 0, 64, 127
1, 474301, Note_on_c, 0, 61, 72
1, 474312, Note_on_c, 0, 52, 61
1, 474330, Note_off_c, 0, 61, 67
1, 474344, Note_off_c, 0, 52, 64
1, 474356, Note_on_c, 0, 85, 68
1, 474371, Note_off_c, 0, 88, 57
1, 474391, Note_off_c, 0, 85, 65
1, 474408, Note_on_c, 0, 81, 78
1, 474427, Note_off_c, 0, 81, 73
1, 474442, Note_on_c, 0, 35, 89
1, 474446, Note_on_c, 0, 42, 64
1, 474462, Note_off_c, 0, 35, 67
1, 474473, Note_off_c, 0, 42, 41
1, 474475, Note_on_c, 0, 76, 92
1, 474477, Note_on_c, 0, 41, 39
1, 474512, Note_off_c, 0, 41, 53
1, 474533, Note_on_c, 0, 73, 85
1, 474542, Note_off_c, 0, 76, 62
1, 474570, Note_off_c, 0, 73, 65
1, 474581, Note_on_c, 0, 69, 82
1, 474592, Note_on_c, 0, 52, 77
1, 474597, Note_on_c, 0, 61, 74
1, 474605, Note_off_c, 0, 69, 64
1, 474621, Note_off_c, 0, 52, 66
1, 474625, Note_off_c, 0, 61, 68
1, 474647, Note_on_c, 0, 64, 78
1, 474679, Note_off_c, 0, 64, 60
1, 474682, Note_on_c, 0, 61, 89
1, 474716, Note_off_c, 0, 61, 67
1, 474717, Note_on_c, 0, 57, 92
1, 474737, Note_on_c, 0, 33, 93
1, 474742, Note_on_c, 0, 41, 72
1, 474745, Control_c, 0, 64, 96
1, 474749, Note_off_c, 0, 57, 68
1, 474758, Note_off_c, 0, 33, 70
1, 474760, Control_c, 0, 64, 65
1, 474765, Note_off_c, 0, 41, 65
1, 474771, Note_on_c, 0, 40, 46
1, 474775, Control_c, 0, 64, 0
1, 474813, Note_off_c, 0, 40, 52
1, 474835, Control_c, 0, 67, 44
1, 474850, Control_c, 0, 67, 103
1, 474865, Control_c, 0, 67, 127
1, 474907, Note_on_c, 0, 52, 72
1, 474919, Note_on_c, 0, 61, 62
1, 474921, Note_on_c, 0, 93, 84
1, 474942, Note_off_c, 0, 52, 65
1, 474945, Note_on_c, 0, 81, 49
1, 474947, Note_off_c, 0, 61, 62
1, 474948, Note_off_c, 0, 93, 71
1, 474968, Note_off_c, 0, 81, 37
1, 475082, Note_on_c, 0, 33, 77
1, 475095, Note_on_c, 0, 40, 49
1, 475097, Note_on_c, 0, 71, 65
1, 475107, Note_off_c, 0, 33, 64
1, 475116, Note_off_c, 0, 71, 64
1, 475127, Note_off_c, 0, 40, 54
1, 475248, Note_on_c, 0, 52, 71
1, 475252, Note_on_c, 0, 62, 70
1, 475269, Note_on_c, 0, 95, 63
1, 475278, Note_off_c, 0, 62, 66
1, 475282, Note_off_c, 0, 52, 64
1, 475285, Note_on_c, 0, 83, 38
1, 475287, Note_off_c, 0, 95, 63
1, 475315, Note_off_c, 0, 83, 52
1, 475412, Note_on_c, 0, 33, 74
1, 475424, Note_on_c, 0, 40, 58
1, 475443, Note_off_c, 0, 33, 63
1, 475450, Note_off_c, 0, 40, 55
1, 475581, Note_on_c, 0, 52, 73
1, 475584, Note_on_c, 0, 62, 67
1, 475592, Note_on_c, 0, 92, 66
1, 475604, Note_on_c, 0, 80, 44
1, 475604, Note_off_c, 0, 62, 66
1, 475610, Note_off_c, 0, 52, 67
1, 475610, Note_off_c, 0, 92, 64
1, 475630, Note_off_c, 0, 80, 37
1, 475744, Note_on_c, 0, 33, 76
1, 475754, Note_on_c, 0, 40, 65
1, 475771, Note_off_c, 0, 33, 64
1, 475773, Note_on_c, 0, 64, 48
1, 475779, Note_off_c, 0, 40, 58
1, 475796, Note_off_c, 0, 64, 60
1, 475912, Note_on_c, 0, 52, 68
1, 475912, Note_on_c, 0, 62, 70
1, 475920, Note_on_c, 0, 88, 79
1, 475926, Note_on_c, 0, 76, 73
1, 475938, Note_off_c, 0, 88, 74
1, 475940, Note_off_c, 0, 62, 66
1, 475943, Note_off_c, 0, 52, 65
1, 475951, Note_off_c, 0, 76, 67
1, 476070, Note_on_c, 0, 33, 79
1, 476078, Note_on_c, 0, 71, 69
1, 476084, Note_on_c, 0, 40, 60
1, 476094, Note_off_c, 0, 33, 65
1, 476103, Note_off_c, 0, 71, 67
1, 476110, Note_off_c, 0, 40, 57
1, 476233, Note_on_c, 0, 52, 74
1, 476236, Note_on_c, 0, 62, 72
1, 476237, Note_on_c, 0, 95, 85
1, 476243, Note_on_c, 0, 83, 75
1, 476256, Note_off_c, 0, 95, 73
1, 476262, Note_off_c, 0, 52, 67
1, 476263, Note_off_c, 0, 62, 67
1, 476264, Note_off_c, 0, 83, 71
1, 476401, Note_on_c, 0, 33, 69
1, 476406, Note_on_c, 0, 40, 65
1, 476406, Note_on_c, 0, 73, 62
1, 476423, Note_off_c, 0, 73, 65
1, 476435, Note_off_c, 0, 33, 57
1, 476438, Note_off_c, 0, 40, 60
1, 476571, Note_on_c, 0, 52, 73
1, 476573, Note_on_c, 0, 61, 72
1, 476573, Note_on_c, 0, 97, 90
1, 476575, Note_on_c, 0, 85, 84
1, 476592, Note_off_c, 0, 85, 73
1, 476593, Note_off_c, 0, 97, 71
1, 476600, Note_off_c, 0, 52, 68
1, 476600, Note_off_c, 0, 61, 70
1, 476728, Note_on_c, 0, 33, 76
1, 476739, Note_on_c, 0, 69, 70
1, 476754, Note_off_c, 0, 33, 65
1, 476758, Note_on_c, 0, 40, 37
1, 476758, Note_off_c, 0, 40, 127
1, 476761, Note_off_c, 0, 69, 70
1, 476895, Note_on_c, 0, 52, 72
1, 476895, Note_on_c, 0, 93, 76
1, 476898, Note_on_c, 0, 61, 73
1, 476900, Note_on_c, 0, 81, 69
1, 476913, Note_off_c, 0, 93, 66
1, 476915, Note_off_c, 0, 81, 68
1, 476924, Note_off_c, 0, 61, 66
1, 476925, Note_off_c, 0, 52, 67
1, 477055, Note_on_c, 0, 64, 75
1, 477056, Note_on_c, 0, 33, 76
1, 477065, Control_c, 0, 67, 104
1, 477071, Note_off_c, 0, 64, 69
1, 477080, Control_c, 0, 67, 71
1, 477086, Note_off_c, 0, 33, 63
1, 477091, Note_on_c, 0, 41, 30
1, 477095, Control_c, 0, 67, 40
1, 477099, Note_on_c, 0, 40, 9
1, 477110, Control_c, 0, 67, 0
1, 477115, Note_on_c, 0, 35, 5
1, 477115, Note_off_c, 0, 35, 127
1, 477139, Note_off_c, 0, 41, 29
1, 477148, Note_off_c, 0, 40, 28
1, 477208, Control_c, 0, 67, 35
1, 477211, Note_on_c, 0, 88, 81
1, 477215, Note_on_c, 0, 76, 76
1, 477223, Control_c, 0, 67, 41
1, 477224, Note_on_c, 0, 52, 73
1, 477232, Note_off_c, 0, 88, 70
1, 477233, Note_on_c, 0, 61, 66
1, 477237, Note_off_c, 0, 76, 71
1, 477237, Control_c, 0, 67, 48
1, 477251, Note_off_c, 0, 52, 64
1, 477252, Control_c, 0, 67, 55
1, 477253, Note_off_c, 0, 61, 65
1, 477267, Control_c, 0, 67, 57
1, 477282, Control_c, 0, 67, 54
1, 477296, Control_c, 0, 67, 50
1, 477311, Control_c, 0, 67, 41
1, 477326, Control_c, 0, 67, 0
1, 477354, Note_on_c, 0, 76, 74
1, 477363, Note_on_c, 0, 78, 83
1, 477370, Control_c, 0, 64, 67
1, 477377, Note_off_c, 0, 76, 70
1, 477385, Note_on_c, 0, 35, 84
1, 477385, Control_c, 0, 64, 127
1, 477394, Note_on_c, 0, 41, 67
1, 477407, Note_off_c, 0, 35, 67
1, 477422, Note_off_c, 0, 41, 66
1, 477424, Note_on_c, 0, 40, 34
1, 477435, Note_on_c, 0, 80, 79
1, 477438, Note_off_c, 0, 78, 58
1, 477454, Note_off_c, 0, 80, 73
1, 477462, Note_off_c, 0, 40, 49
1, 477482, Note_on_c, 0, 81, 87
1, 477509, Poly_aftertouch_c, 0, 33, 0
1, 477532, Note_on_c, 0, 83, 80
1, 477533, Note_off_c, 0, 81, 64
1, 477541, Note_on_c, 0, 52, 82
1, 477543, Note_on_c, 0, 61, 87
1, 477548, Note_on_c, 0, 85, 87
1, 477562, Note_off_c, 0, 83, 64
1, 477568, Note_off_c, 0, 61, 70
1, 477574, Note_off_c, 0, 85, 61
1, 477583, Note_off_c, 0, 52, 62
1, 477619, Note_on_c, 0, 86, 61
1, 477625, Note_on_c, 0, 88, 76
1, 477646, Note_off_c, 0, 88, 73
1, 477647, Note_on_c, 0, 91, 76
1, 477649, Note_off_c, 0, 86, 69
1, 477664, Note_on_c, 0, 93, 103
1, 477664, Note_on_c, 0, 90, 63
1, 477672, Note_off_c, 0, 90, 47
1, 477680, Note_on_c, 0, 33, 91
1, 477680, Note_on_c, 0, 92, 42
1, 477688, Note_off_c, 0, 91, 70
1, 477693, Note_on_c, 0, 40, 72
1, 477702, Note_off_c, 0, 33, 65
1, 477710, Control_c, 0, 64, 87
1, 477712, Note_off_c, 0, 92, 34
1, 477717, Note_off_c, 0, 40, 61
1, 477725, Control_c, 0, 64, 58
1, 477740, Control_c, 0, 64, 0
1, 477828, Note_on_c, 0, 51, 85
1, 477842, Note_on_c, 0, 61, 69
1, 477842, Poly_aftertouch_c, 0, 33, 0
1, 477860, Note_off_c, 0, 51, 68
1, 477870, Note_off_c, 0, 61, 68
1, 477979, Note_off_c, 0, 93, 61
1, 477998, Note_on_c, 0, 92, 90
1, 478007, Note_on_c, 0, 35, 71
1, 478013, Note_on_c, 0, 33, 71
1, 478016, Note_on_c, 0, 41, 53
1, 478031, Note_off_c, 0, 35, 62
1, 478034, Note_off_c, 0, 92, 66
1, 478039, Note_off_c, 0, 33, 59
1, 478046, Note_off_c, 0, 41, 55
1, 478066, Note_on_c, 0, 40, 3
1, 478105, Note_off_c, 0, 40, 29
1, 478154, Note_on_c, 0, 52, 81
1, 478154, Note_on_c, 0, 90, 83
1, 478159, Note_on_c, 0, 61, 78
1, 478181, Note_off_c, 0, 61, 68
1, 478183, Note_off_c, 0, 52, 67
1, 478189, Note_off_c, 0, 90, 63
1, 478280, Note_on_c, 0, 88, 75
1, 478307, Note_on_c, 0, 33, 86
1, 478312, Note_off_c, 0, 88, 64
1, 478323, Note_on_c, 0, 90, 75
1, 478324, Note_on_c, 0, 40, 53
1, 478331, Note_off_c, 0, 33, 65
1, 478354, Note_off_c, 0, 40, 52
1, 478357, Note_off_c, 0, 90, 67
1, 478381, Note_on_c, 0, 88, 72
1, 478405, Note_off_c, 0, 88, 65
1, 478423, Note_on_c, 0, 90, 70
1, 478443, Control_c, 0, 67, 40
1, 478457, Note_off_c, 0, 90, 67
1, 478458, Control_c, 0, 67, 61
1, 478461, Note_on_c, 0, 52, 70
1, 478464, Note_on_c, 0, 61, 74
1, 478473, Control_c, 0, 67, 88
1, 478478, Note_on_c, 0, 88, 80
1, 478488, Control_c, 0, 67, 95
1, 478489, Note_off_c, 0, 61, 67
1, 478491, Note_off_c, 0, 52, 64
1, 478501, Note_off_c, 0, 88, 65
1, 478510, Note_on_c, 0, 90, 69
1, 478532, Control_c, 0, 67, 94
1, 478547, Control_c, 0, 67, 91
1, 478550, Note_off_c, 0, 90, 66
1, 478562, Control_c, 0, 67, 85
1, 478573, Note_on_c, 0, 88, 81
1, 478577, Control_c, 0, 67, 81
1, 478592, Control_c, 0, 67, 77
1, 478602, Note_off_c, 0, 88, 64
1, 478607, Control_c, 0, 67, 74
1, 478608, Note_on_c, 0, 90, 61
1, 478617, Note_on_c, 0, 33, 83
1, 478622, Control_c, 0, 67, 70
1, 478624, Note_on_c, 0, 40, 71
1, 478636, Control_c, 0, 67, 65
1, 478640, Note_off_c, 0, 33, 65
1, 478646, Note_off_c, 0, 90, 63
1, 478651, Control_c, 0, 67, 58
1, 478656, Note_off_c, 0, 40, 62
1, 478657, Note_on_c, 0, 88, 81
1, 478666, Control_c, 0, 67, 51
1, 478689, Control_c, 0, 67, 52
1, 478704, Control_c, 0, 67, 61
1, 478705, Note_on_c, 0, 90, 58
1, 478710, Note_off_c, 0, 88, 66
1, 478718, Control_c, 0, 67, 67
1, 478733, Control_c, 0, 67, 70
1, 478743, Note_off_c, 0, 90, 59
1, 478748, Control_c, 0, 67, 74
1, 478762, Note_on_c, 0, 61, 82
1, 478764, Control_c, 0, 67, 77
1, 478768, Note_on_c, 0, 52, 70
1, 478771, Note_on_c, 0, 88, 60
1, 478773, Note_on_c, 0, 87, 76
1, 478779, Control_c, 0, 67, 79
1, 478785, Note_off_c, 0, 61, 71
1, 478791, Note_off_c, 0, 88, 63
1, 478793, Note_off_c, 0, 52, 65
1, 478794, Control_c, 0, 67, 79
1, 478808, Control_c, 0, 67, 72
1, 478823, Control_c, 0, 67, 57
1, 478838, Control_c, 0, 67, 38
1, 478851, Note_on_c, 0, 88, 88
1, 478853, Control_c, 0, 67, 0
1, 478880, Note_on_c, 0, 90, 90
1, 478883, Note_off_c, 0, 88, 70
1, 478889, Note_off_c, 0, 87, 61
1, 478898, Note_off_c, 0, 90, 71
1, 478903, Note_on_c, 0, 33, 85
1, 478925, Note_on_c, 0, 40, 53
1, 478925, Note_off_c, 0, 33, 65
1, 478955, Note_off_c, 0, 40, 54
1, 479070, Note_on_c, 0, 61, 71
1, 479081, Note_on_c, 0, 52, 54
1, 479098, Note_off_c, 0, 61, 68
1, 479105, Note_on_c, 0, 53, 29
1, 479110, Note_off_c, 0, 52, 59
1, 479151, Note_off_c, 0, 53, 29
1, 479227, Note_on_c, 0, 33, 92
1, 479229, Note_on_c, 0, 88, 94
1, 479236, Note_on_c, 0, 76, 83
1, 479238, Control_c, 0, 64, 39
1, 479249, Note_on_c, 0, 40, 53
1, 479250, Note_off_c, 0, 33, 66
1, 479252, Control_c, 0, 64, 70
1, 479267, Control_c, 0, 64, 99
1, 479275, Note_off_c, 0, 76, 63
1, 479280, Note_off_c, 0, 40, 34
1, 479282, Control_c, 0, 64, 127
1, 479386, Note_on_c, 0, 61, 81
1, 479389, Note_on_c, 0, 52, 67
1, 479409, Poly_aftertouch_c, 0, 33, 0
1, 479409, Note_off_c, 0, 61, 69
1, 479432, Note_off_c, 0, 52, 65
1, 479433, Note_on_c, 0, 85, 75
1, 479456, Note_off_c, 0, 88, 58
1, 479479, Note_off_c, 0, 85, 65
1, 479491, Note_on_c, 0, 81, 85
1, 479512, Note_off_c, 0, 81, 68
1, 479537, Note_on_c, 0, 33, 84
1, 479557, Note_on_c, 0, 76, 90
1, 479560, Note_on_c, 0, 40, 52
1, 479560, Note_off_c, 0, 33, 65
1, 479586, Note_off_c, 0, 40, 57
1, 479588, Note_on_c, 0, 41, 12
1, 479609, Note_on_c, 0, 73, 92
1, 479616, Note_off_c, 0, 76, 60
1, 479634, Note_off_c, 0, 41, 45
1, 479649, Note_off_c, 0, 73, 66
1, 479655, Note_on_c, 0, 69, 80
1, 479682, Note_off_c, 0, 69, 63
1, 479688, Note_on_c, 0, 52, 73
1, 479690, Note_on_c, 0, 61, 68
1, 479711, Note_off_c, 0, 52, 69
1, 479712, Note_off_c, 0, 61, 63
1, 479728, Note_on_c, 0, 64, 74
1, 479737, Note_on_c, 0, 65, 48
1, 479753, Note_off_c, 0, 64, 68
1, 479755, Note_on_c, 0, 62, 86
1, 479762, Note_off_c, 0, 65, 58
1, 479785, Note_on_c, 0, 57, 96
1, 479804, Note_on_c, 0, 59, 58
1, 479808, Note_off_c, 0, 62, 65
1, 479809, Control_c, 0, 64, 102
1, 479812, Note_on_c, 0, 33, 89
1, 479815, Note_off_c, 0, 57, 66
1, 479824, Control_c, 0, 64, 67
1, 479826, Note_off_c, 0, 59, 64
1, 479831, Note_off_c, 0, 33, 72
1, 479838, Control_c, 0, 64, 0
1, 479846, Poly_aftertouch_c, 0, 63, 0
1, 479882, Control_c, 0, 67, 47
1, 479897, Control_c, 0, 67, 106
1, 479912, Control_c, 0, 67, 127
1, 479913, Poly_aftertouch_c, 0, 40, 0
1, 479971, Note_on_c, 0, 52, 71
1, 479974, Note_on_c, 0, 61, 73
1, 479979, Note_on_c, 0, 93, 79
1, 479995, Note_on_c, 0, 81, 57
1, 479999, Note_off_c, 0, 52, 66
1, 479999, Note_off_c, 0, 61, 68
1, 480001, Note_off_c, 0, 93, 69
1, 480013, Note_off_c, 0, 81, 63
1, 480023, Note_on_c, 0, 91, 6
1, 480076, Note_off_c, 0, 91, 30
1, 480125, Note_on_c, 0, 33, 77
1, 480144, Note_on_c, 0, 71, 57
1, 480150, Note_on_c, 0, 40, 42
1, 480152, Note_off_c, 0, 33, 64
1, 480165, Note_off_c, 0, 71, 60
1, 480193, Note_off_c, 0, 40, 32
1, 480294, Note_on_c, 0, 95, 78
1, 480299, Note_on_c, 0, 62, 63
1, 480302, Note_on_c, 0, 83, 76
1, 480314, Note_off_c, 0, 95, 73
1, 480317, Note_off_c, 0, 83, 69
1, 480318, Note_off_c, 0, 62, 65
1, 480324, Note_on_c, 0, 52, 45
1, 480356, Note_off_c, 0, 52, 54
1, 480449, Note_on_c, 0, 33, 74
1, 480464, Note_on_c, 0, 68, 62
1, 480472, Note_off_c, 0, 33, 62
1, 480483, Note_off_c, 0, 68, 65
1, 480502, Note_on_c, 0, 40, 3
1, 480540, Note_off_c, 0, 40, 29
1, 480612, Note_on_c, 0, 62, 68
1, 480612, Note_on_c, 0, 52, 68
1, 480618, Note_on_c, 0, 92, 73
1, 480621, Note_on_c, 0, 80, 68
1, 480630, Note_off_c, 0, 62, 66
1, 480636, Note_off_c, 0, 80, 68
1, 480642, Note_off_c, 0, 52, 64
1, 480642, Note_off_c, 0, 92, 67
1, 480764, Note_on_c, 0, 33, 76
1, 480783, Note_on_c, 0, 64, 58
1, 480789, Note_on_c, 0, 40, 38
1, 480795, Note_off_c, 0, 33, 64
1, 480803, Note_off_c, 0, 64, 64
1, 480824, Note_off_c, 0, 40, 47
1, 480921, Note_on_c, 0, 52, 66
1, 480922, Note_on_c, 0, 62, 67
1, 480932, Note_on_c, 0, 88, 72
1, 480948, Note_off_c, 0, 62, 65
1, 480951, Note_off_c, 0, 88, 73
1, 480953, Note_on_c, 0, 76, 44
1, 480956, Note_off_c, 0, 52, 65
1, 480979, Note_off_c, 0, 76, 36
1, 481075, Note_on_c, 0, 33, 75
1, 481085, Note_on_c, 0, 71, 63
1, 481099, Note_off_c, 0, 33, 61
1, 481104, Note_off_c, 0, 71, 63
1, 481110, Note_on_c, 0, 41, 18
1, 481160, Note_off_c, 0, 41, 29
1, 481229, Note_on_c, 0, 62, 70
1, 481229, Note_on_c, 0, 52, 66
1, 481232, Note_on_c, 0, 95, 77
1, 481240, Note_on_c, 0, 83, 69
1, 481253, Note_off_c, 0, 62, 64
1, 481253, Note_off_c, 0, 95, 71
1, 481254, Note_off_c, 0, 83, 67
1, 481259, Note_off_c, 0, 52, 64
1, 481381, Note_on_c, 0, 33, 68
1, 481385, Note_on_c, 0, 73, 71
1, 481408, Note_off_c, 0, 33, 57
1, 481408, Note_off_c, 0, 73, 69
1, 481422, Note_on_c, 0, 40, 4
1, 481468, Note_off_c, 0, 40, 27
1, 481531, Note_on_c, 0, 61, 66
1, 481536, Note_on_c, 0, 97, 80
1, 481538, Note_on_c, 0, 52, 59
1, 481548, Note_on_c, 0, 85, 62
1, 481551, Note_off_c, 0, 61, 63
1, 481560, Note_off_c, 0, 97, 70
1, 481564, Note_off_c, 0, 85, 63
1, 481567, Note_off_c, 0, 52, 64
1, 481682, Note_on_c, 0, 33, 73
1, 481692, Note_on_c, 0, 69, 69
1, 481712, Note_off_c, 0, 33, 63
1, 481716, Note_off_c, 0, 69, 69
1, 481830, Note_on_c, 0, 52, 69
1, 481836, Note_on_c, 0, 61, 65
1, 481844, Note_on_c, 0, 93, 47
1, 481855, Note_off_c, 0, 52, 66
1, 481855, Note_off_c, 0, 61, 62
1, 481864, Note_on_c, 0, 81, 15
1, 481867, Note_off_c, 0, 93, 54
1, 481888, Note_off_c, 0, 81, 34
1, 481974, Note_on_c, 0, 33, 75
1, 481982, Note_on_c, 0, 64, 70
1, 482005, Note_off_c, 0, 33, 63
1, 482007, Note_off_c, 0, 64, 68
1, 482120, Note_on_c, 0, 88, 69
1, 482123, Note_on_c, 0, 52, 68
1, 482126, Note_on_c, 0, 61, 71
1, 482127, Note_on_c, 0, 76, 62
1, 482142, Note_off_c, 0, 88, 71
1, 482145, Note_off_c, 0, 61, 63
1, 482146, Note_off_c, 0, 76, 64
1, 482151, Note_off_c, 0, 52, 64
1, 482263, Note_on_c, 0, 33, 72
1, 482270, Note_on_c, 0, 69, 60
1, 482275, Note_on_c, 0, 40, 51
1, 482287, Note_off_c, 0, 33, 61
1, 482290, Note_off_c, 0, 69, 63
1, 482305, Note_off_c, 0, 40, 55
1, 482405, Note_on_c, 0, 93, 83
1, 482408, Note_on_c, 0, 52, 70
1, 482408, Note_on_c, 0, 61, 74
1, 482415, Note_on_c, 0, 81, 69
1, 482432, Note_off_c, 0, 93, 71
1, 482438, Note_off_c, 0, 61, 67
1, 482438, Note_off_c, 0, 81, 68
1, 482442, Note_off_c, 0, 52, 65
1, 482557, Note_on_c, 0, 33, 85
1, 482562, Note_on_c, 0, 71, 69
1, 482567, Note_on_c, 0, 40, 63
1, 482580, Note_on_c, 0, 41, 48
1, 482581, Note_off_c, 0, 33, 65
1, 482585, Note_off_c, 0, 71, 69
1, 482592, Note_off_c, 0, 40, 57
1, 482614, Note_off_c, 0, 41, 56
1, 482702, Note_on_c, 0, 52, 64
1, 482703, Note_on_c, 0, 62, 73
1, 482705, Note_on_c, 0, 95, 43
1, 482710, Note_on_c, 0, 96, 47
1, 482727, Note_off_c, 0, 62, 67
1, 482729, Note_off_c, 0, 95, 51
1, 482730, Note_off_c, 0, 52, 65
1, 482735, Note_off_c, 0, 96, 57
1, 482839, Note_on_c, 0, 52, 59
1, 482839, Note_on_c, 0, 68, 71
1, 482852, Note_on_c, 0, 62, 45
1, 482863, Note_off_c, 0, 68, 69
1, 482880, Note_off_c, 0, 62, 59
1, 482883, Note_off_c, 0, 52, 64
1, 482967, Note_on_c, 0, 62, 60
1, 482975, Note_on_c, 0, 92, 82
1, 482980, Note_on_c, 0, 52, 63
1, 482982, Note_on_c, 0, 80, 71
1, 482988, Note_off_c, 0, 62, 64
1, 482997, Note_off_c, 0, 80, 69
1, 482997, Note_off_c, 0, 92, 70
1, 483008, Note_off_c, 0, 52, 65
1, 483107, Note_on_c, 0, 33, 72
1, 483116, Note_on_c, 0, 64, 76
1, 483116, Note_on_c, 0, 40, 58
1, 483134, Note_off_c, 0, 33, 59
1, 483140, Note_off_c, 0, 64, 70
1, 483146, Note_off_c, 0, 40, 35
1, 483263, Note_on_c, 0, 88, 48
1, 483265, Note_on_c, 0, 62, 61
1, 483268, Note_on_c, 0, 53, 44
1, 483278, Note_on_c, 0, 52, 45
1, 483285, Note_off_c, 0, 88, 61
1, 483286, Note_off_c, 0, 62, 62
1, 483300, Note_off_c, 0, 53, 63
1, 483308, Note_on_c, 0, 89, 3
1, 483310, Note_off_c, 0, 52, 52
1, 483350, Note_off_c, 0, 89, 29
1, 483384, Note_on_c, 0, 52, 64
1, 483385, Note_on_c, 0, 62, 58
1, 483401, Note_on_c, 0, 71, 58
1, 483421, Note_off_c, 0, 71, 60
1, 483422, Note_off_c, 0, 62, 64
1, 483426, Note_off_c, 0, 52, 64
1, 483520, Note_on_c, 0, 52, 63
1, 483522, Note_on_c, 0, 62, 53
1, 483524, Note_on_c, 0, 95, 65
1, 483535, Note_on_c, 0, 81, 43
1, 483541, Note_off_c, 0, 95, 66
1, 483548, Note_off_c, 0, 62, 60
1, 483549, Note_off_c, 0, 52, 64
1, 483563, Note_off_c, 0, 81, 36
1, 483651, Note_on_c, 0, 33, 82
1, 483661, Note_on_c, 0, 73, 71
1, 483662, Note_on_c, 0, 45, 72
1, 483674, Note_off_c, 0, 33, 65
1, 483686, Note_off_c, 0, 45, 65
1, 483686, Note_off_c, 0, 73, 67
1, 483786, Note_on_c, 0, 28, 84
1, 483790, Note_on_c, 0, 40, 73
1, 483796, Note_on_c, 0, 97, 78
1, 483802, Note_on_c, 0, 85, 64
1, 483810, Note_off_c, 0, 28, 66
1, 483818, Note_off_c, 0, 85, 64
1, 483822, Note_off_c, 0, 40, 63
1, 483822, Note_off_c, 0, 97, 65
1, 483923, Note_on_c, 0, 33, 66
1, 483923, Note_on_c, 0, 73, 78
1, 483928, Note_on_c, 0, 45, 60
1, 483929, Note_on_c, 0, 31, 54
1, 483939, Note_on_c, 0, 43, 47
1, 483943, Note_off_c, 0, 73, 71
1, 483953, Note_off_c, 0, 33, 63
1, 483953, Note_off_c, 0, 45, 58
1, 483963, Note_off_c, 0, 31, 57
1, 483971, Note_off_c, 0, 43, 52
1, 484045, Note_on_c, 0, 97, 88
1, 484049, Note_on_c, 0, 85, 76
1, 484058, Note_on_c, 0, 52, 58
1, 484062, Note_off_c, 0, 85, 69
1, 484067, Note_off_c, 0, 97, 69
1, 484083, Note_off_c, 0, 52, 59
1, 484168, Note_on_c, 0, 45, 67
1, 484168, Note_on_c, 0, 73, 77
1, 484171, Note_on_c, 0, 57, 61
1, 484189, Note_off_c, 0, 73, 71
1, 484192, Note_off_c, 0, 57, 64
1, 484198, Note_off_c, 0, 45, 64
1, 484297, Note_on_c, 0, 97, 81
1, 484300, Note_on_c, 0, 52, 44
1, 484308, Note_on_c, 0, 85, 63
1, 484311, Note_on_c, 0, 53, 44
1, 484321, Note_off_c, 0, 97, 65
1, 484325, Note_off_c, 0, 85, 61
1, 484333, Note_off_c, 0, 52, 51
1, 484342, Note_off_c, 0, 53, 55
1, 484416, Note_on_c, 0, 45, 55
1, 484416, Note_on_c, 0, 57, 58
1, 484423, Note_on_c, 0, 73, 68
1, 484441, Note_off_c, 0, 45, 57
1, 484444, Note_off_c, 0, 57, 64
1, 484447, Note_off_c, 0, 73, 69
1, 484541, Note_on_c, 0, 64, 68
1, 484544, Note_on_c, 0, 97, 84
1, 484549, Note_on_c, 0, 85, 68
1, 484565, Note_off_c, 0, 97, 70
1, 484565, Note_off_c, 0, 85, 66
1, 484568, Note_off_c, 0, 64, 67
1, 484665, Note_on_c, 0, 73, 75
1, 484679, Note_on_c, 0, 69, 57
1, 484683, Note_on_c, 0, 57, 38
1, 484693, Note_off_c, 0, 73, 71
1, 484708, Note_off_c, 0, 69, 66
1, 484713, Note_off_c, 0, 57, 48
1, 484791, Note_on_c, 0, 97, 92
1, 484791, Note_on_c, 0, 85, 79
1, 484792, Note_on_c, 0, 64, 69
1, 484809, Note_off_c, 0, 85, 73
1, 484809, Note_off_c, 0, 97, 70
1, 484822, Note_off_c, 0, 64, 66
1, 484914, Note_on_c, 0, 73, 77
1, 484924, Note_on_c, 0, 69, 52
1, 484925, Note_on_c, 0, 57, 49
1, 484935, Note_off_c, 0, 73, 71
1, 484946, Note_off_c, 0, 69, 62
1, 484952, Note_off_c, 0, 57, 35
1, 485034, Note_on_c, 0, 97, 75
1, 485035, Note_on_c, 0, 76, 71
1, 485036, Note_on_c, 0, 85, 68
1, 485048, Note_off_c, 0, 97, 69
1, 485051, Note_off_c, 0, 85, 67
1, 485058, Note_off_c, 0, 76, 70
1, 485147, Note_on_c, 0, 73, 82
1, 485150, Note_on_c, 0, 69, 68
1, 485152, Note_on_c, 0, 81, 64
1, 485166, Note_off_c, 0, 73, 72
1, 485175, Note_off_c, 0, 69, 69
1, 485177, Note_off_c, 0, 81, 65
1, 485264, Note_on_c, 0, 76, 74
1, 485264, Note_on_c, 0, 97, 87
1, 485269, Note_on_c, 0, 85, 74
1, 485283, Note_off_c, 0, 85, 69
1, 485285, Note_off_c, 0, 97, 71
1, 485286, Note_off_c, 0, 76, 70
1, 485375, Note_on_c, 0, 81, 77
1, 485381, Note_on_c, 0, 69, 70
1, 485397, Note_on_c, 0, 73, 56
1, 485397, Note_off_c, 0, 73, 127
1, 485404, Note_off_c, 0, 81, 64
1, 485404, Note_off_c, 0, 69, 70
1, 485412, Note_on_c, 0, 76, 23
1, 485459, Note_off_c, 0, 76, 34
1, 485500, Note_on_c, 0, 99, 99
1, 485510, Note_on_c, 0, 85, 85
1, 485511, Note_on_c, 0, 88, 84
1, 485519, Note_off_c, 0, 99, 73
1, 485535, Note_off_c, 0, 88, 65
1, 485557, Note_off_c, 0, 85, 63
1, 485620, Note_on_c, 0, 93, 90
1, 485621, Note_on_c, 0, 73, 80
1, 485633, Note_on_c, 0, 81, 64
1, 485640, Note_on_c, 0, 88, 47
1, 485641, Note_off_c, 0, 73, 72
1, 485653, Note_off_c, 0, 93, 61
1, 485659, Note_off_c, 0, 81, 70
1, 485666, Note_off_c, 0, 88, 37
1, 485730, Note_on_c, 0, 85, 79
1, 485733, Note_on_c, 0, 88, 68
1, 485738, Note_on_c, 0, 97, 90
1, 485757, Note_off_c, 0, 97, 72
1, 485757, Note_off_c, 0, 88, 70
1, 485778, Note_off_c, 0, 85, 62
1, 485850, Note_on_c, 0, 73, 82
1, 485857, Note_on_c, 0, 93, 70
1, 485859, Note_on_c, 0, 81, 59
1, 485869, Note_off_c, 0, 73, 72
1, 485882, Note_off_c, 0, 93, 64
1, 485894, Note_off_c, 0, 81, 63
1, 485977, Note_on_c, 0, 85, 72
1, 485982, Note_on_c, 0, 97, 66
1, 485987, Note_on_c, 0, 88, 68
1, 485998, Note_off_c, 0, 97, 62
1, 486010, Note_off_c, 0, 88, 71
1, 486023, Note_off_c, 0, 85, 61
1, 486089, Note_on_c, 0, 73, 74
1, 486093, Note_on_c, 0, 93, 70
1, 486102, Note_on_c, 0, 81, 59
1, 486112, Note_off_c, 0, 73, 70
1, 486121, Note_off_c, 0, 93, 65
1, 486131, Note_off_c, 0, 81, 66
1, 486216, Note_on_c, 0, 85, 66
1, 486232, Note_on_c, 0, 97, 65
1, 486233, Note_on_c, 0, 88, 48
1, 486248, Note_off_c, 0, 97, 65
1, 486255, Note_off_c, 0, 88, 59
1, 486266, Note_off_c, 0, 85, 61
1, 486347, Note_on_c, 0, 73, 71
1, 486350, Note_on_c, 0, 93, 68
1, 486365, Note_on_c, 0, 81, 54
1, 486373, Note_off_c, 0, 73, 65
1, 486380, Note_off_c, 0, 93, 65
1, 486395, Note_off_c, 0, 81, 65
1, 486483, Note_on_c, 0, 97, 79
1, 486489, Note_on_c, 0, 85, 64
1, 486506, Note_off_c, 0, 97, 69
1, 486512, Note_on_c, 0, 88, 33
1, 486535, Note_off_c, 0, 85, 58
1, 486540, Note_off_c, 0, 88, 48
1, 486647, Note_on_c, 0, 81, 73
1, 486660, Note_on_c, 0, 73, 55
1, 486667, Note_off_c, 0, 81, 72
1, 486681, Note_off_c, 0, 73, 62
1, 486885, Note_on_c, 0, 100, 74
1, 486920, Note_on_c, 0, 102, 90
1, 486929, Note_on_c, 0, 104, 103
1, 486943, Note_on_c, 0, 97, 89
1, 486946, Note_on_c, 0, 105, 114
1, 486949, Note_on_c, 0, 88, 73
1, 486949, Note_on_c, 0, 85, 63
1, 486952, Note_off_c, 0, 100, 65
1, 486955, Note_on_c, 0, 93, 69
1, 486956, Control_c, 0, 64, 45
1, 486961, Note_off_c, 0, 97, 72
1, 486965, Note_off_c, 0, 102, 67
1, 486966, Note_off_c, 0, 85, 64
1, 486967, Note_off_c, 0, 88, 72
1, 486970, Note_off_c, 0, 93, 64
1, 486971, Note_off_c, 0, 104, 65
1, 486971, Control_c, 0, 64, 71
1, 486982, Note_off_c, 0, 105, 68
1, 486985, Note_on_c, 0, 107, 30
1, 486985, Note_off_c, 0, 107, 127
1, 486986, Control_c, 0, 64, 127
1, 487090, Control_c, 0, 64, 103
1, 487104, Control_c, 0, 64, 75
1, 487119, Control_c, 0, 64, 60
1, 487134, Control_c, 0, 64, 45
1, 487149, Control_c, 0, 64, 39
1, 487164, Control_c, 0, 64, 36
1, 487179, Control_c, 0, 64, 32
1, 487194, Control_c, 0, 64, 0
1, 487579, Control_c, 0, 64, 30
1, 487653, Control_c, 0, 64, 33
1, 487676, Control_c, 0, 64, 36
1, 487691, Control_c, 0, 64, 37
1, 487735, Control_c, 0, 64, 38
1, 487750, Control_c, 0, 64, 39
1, 487809, Control_c, 0, 64, 40
1, 487823, Control_c, 0, 64, 41
1, 487853, Control_c, 0, 64, 40
1, 487891, Note_on_c, 0, 21, 41
1, 487897, Control_c, 0, 64, 41
1, 487913, Note_on_c, 0, 25, 38
1, 487921, Note_on_c, 0, 45, 40
1, 487973, Note_on_c, 0, 40, 8
1, 487976, Note_on_c, 0, 37, 50
1, 487977, Note_off_c, 0, 21, 56
1, 487984, Note_on_c, 0, 33, 35
1, 487987, Control_c, 0, 64, 42
1, 487998, Note_off_c, 0, 45, 51
1, 488011, Note_off_c, 0, 25, 60
1, 488018, Note_off_c, 0, 40, 50
1, 488026, Note_off_c, 0, 33, 58
1, 488026, Note_off_c, 0, 37, 63
1, 488055, Poly_aftertouch_c, 0, 28, 0
1, 488076, Control_c, 0, 64, 41
1, 488223, Control_c, 0, 64, 41
1, 488454, Control_c, 0, 64, 41
1, 488528, Control_c, 0, 64, 42
1, 488588, Control_c, 0, 64, 42
1, 488602, Control_c, 0, 64, 43
1, 488617, Control_c, 0, 64, 43
1, 488632, Control_c, 0, 64, 44
1, 488676, Control_c, 0, 64, 45
1, 488691, Control_c, 0, 64, 45
1, 488706, Control_c, 0, 64, 46
1, 488735, Control_c, 0, 64, 46
1, 488750, Control_c, 0, 64, 47
1, 488765, Control_c, 0, 64, 48
1, 488780, Control_c, 0, 64, 49
1, 488795, Control_c, 0, 64, 50
1, 488824, Control_c, 0, 64, 50
1, 488839, Control_c, 0, 64, 52
1, 488854, Control_c, 0, 64, 53
1, 488899, Control_c, 0, 64, 53
1, 488913, Control_c, 0, 64, 54
1, 488928, Control_c, 0, 64, 55
1, 488943, Control_c, 0, 64, 56
1, 488987, Control_c, 0, 64, 57
1, 489002, Control_c, 0, 64, 57
1, 489017, Control_c, 0, 64, 58
1, 489076, Control_c, 0, 64, 59
1, 489091, Control_c, 0, 64, 59
1, 489106, Control_c, 0, 64, 60
1, 489120, Control_c, 0, 64, 61
1, 489151, Control_c, 0, 64, 61
1, 489188, Control_c, 0, 64, 62
1, 489203, Control_c, 0, 64, 64
1, 489218, Control_c, 0, 64, 65
1, 489233, Control_c, 0, 64, 66
1, 489248, Control_c, 0, 64, 67
1, 489263, Control_c, 0, 64, 68
1, 489277, Control_c, 0, 64, 68
1, 489292, Control_c, 0, 64, 69
1, 489307, Control_c, 0, 64, 70
1, 489322, Control_c, 0, 64, 71
1, 489337, Control_c, 0, 64, 72
1, 489351, Control_c, 0, 64, 73
1, 489366, Control_c, 0, 64, 73
1, 489381, Control_c, 0, 64, 74
1, 489395, Control_c, 0, 64, 75
1, 489410, Control_c, 0, 64, 76
1, 489425, Control_c, 0, 64, 78
1, 489440, Control_c, 0, 64, 80
1, 489455, Control_c, 0, 64, 82
1, 489469, Control_c, 0, 64, 84
1, 489484, Control_c, 0, 64, 87
1, 489499, Control_c, 0, 64, 90
1, 489514, Control_c, 0, 64, 93
1, 489529, Control_c, 0, 64, 95
1, 489543, Control_c, 0, 64, 100
1, 489558, Control_c, 0, 64, 105
1, 489573, Control_c, 0, 64, 114
1, 489588, Control_c, 0, 64, 127
1, 491018, Note_on_c, 0, 43, 40
1, 491215, Note_on_c, 0, 50, 39
1, 491398, Note_off_c, 0, 43, 33
1, 491505, Note_on_c, 0, 67, 53
1, 491543, Note_on_c, 0, 59, 38
1, 491612, Note_off_c, 0, 50, 43
1, 491693, Note_off_c, 0, 59, 35
1, 491829, Note_on_c, 0, 71, 45
1, 491832, Note_on_c, 0, 62, 43
1, 491851, Note_off_c, 0, 67, 58
1, 491865, Note_off_c, 0, 62, 57
1, 491875, Note_off_c, 0, 71, 62
1, 492033, Note_on_c, 0, 67, 48
1, 492033, Note_on_c, 0, 74, 43
1, 492080, Note_off_c, 0, 67, 55
1, 492175, Note_on_c, 0, 79, 59
1, 492185, Note_off_c, 0, 74, 37
1, 492208, Note_off_c, 0, 79, 63
1, 492316, Note_on_c, 0, 74, 60
1, 492320, Note_on_c, 0, 83, 69
1, 492347, Note_off_c, 0, 74, 66
1, 492440, Note_on_c, 0, 86, 70
1, 492444, Note_on_c, 0, 62, 49
1, 492458, Note_off_c, 0, 83, 57
1, 492515, Note_on_c, 0, 67, 47
1, 492590, Note_on_c, 0, 91, 68
1, 492596, Note_on_c, 0, 83, 67
1, 492599, Note_on_c, 0, 71, 67
1, 492606, Note_off_c, 0, 86, 56
1, 492651, Note_off_c, 0, 71, 60
1, 492686, Note_off_c, 0, 91, 60
1, 492711, Note_off_c, 0, 62, 54
1, 492713, Note_on_c, 0, 86, 64
1, 492724, Note_on_c, 0, 79, 62
1, 492726, Note_off_c, 0, 67, 61
1, 492727, Note_off_c, 0, 83, 59
1, 492738, Note_off_c, 0, 86, 70
1, 492753, Note_off_c, 0, 79, 64
1, 492834, Note_on_c, 0, 83, 68
1, 492861, Note_on_c, 0, 74, 62
1, 492931, Note_off_c, 0, 74, 52
1, 492938, Note_off_c, 0, 83, 50
1, 492972, Note_on_c, 0, 79, 60
1, 492987, Note_on_c, 0, 71, 74
1, 492998, Note_off_c, 0, 79, 67
1, 493016, Note_off_c, 0, 71, 61
1, 493117, Note_on_c, 0, 74, 64
1, 493158, Note_on_c, 0, 67, 34
1, 493192, Note_off_c, 0, 67, 52
1, 493251, Note_on_c, 0, 71, 60
1, 493258, Note_on_c, 0, 40, 56
1, 493279, Note_on_c, 0, 62, 32
1, 493279, Note_off_c, 0, 74, 28
1, 493365, Note_on_c, 0, 47, 56
1, 493450, Control_c, 0, 64, 110
1, 493454, Note_off_c, 0, 62, 39
1, 493464, Note_on_c, 0, 55, 81
1, 493465, Control_c, 0, 64, 77
1, 493470, Note_on_c, 0, 67, 60
1, 493480, Control_c, 0, 64, 59
1, 493495, Control_c, 0, 64, 45
1, 493498, Note_off_c, 0, 71, 59
1, 493509, Control_c, 0, 64, 47
1, 493524, Control_c, 0, 64, 57
1, 493539, Control_c, 0, 64, 68
1, 493553, Control_c, 0, 64, 86
1, 493568, Control_c, 0, 64, 127
1, 493624, Note_off_c, 0, 67, 55
1, 493629, Note_on_c, 0, 71, 65
1, 493630, Note_on_c, 0, 64, 54
1, 493661, Note_off_c, 0, 40, 54
1, 493679, Note_off_c, 0, 64, 61
1, 493726, Note_off_c, 0, 47, 61
1, 493738, Note_off_c, 0, 55, 60
1, 493753, Note_on_c, 0, 76, 65
1, 493758, Note_on_c, 0, 67, 45
1, 493761, Note_off_c, 0, 71, 60
1, 493785, Note_off_c, 0, 76, 65
1, 493788, Note_off_c, 0, 67, 54
1, 493892, Note_on_c, 0, 79, 59
1, 493913, Note_on_c, 0, 71, 31
1, 493953, Note_off_c, 0, 71, 51
1, 494005, Note_on_c, 0, 83, 66
1, 494020, Note_off_c, 0, 79, 58
1, 494057, Note_off_c, 0, 83, 61
1, 494083, Note_on_c, 0, 59, 52
1, 494157, Note_on_c, 0, 64, 50
1, 494160, Note_on_c, 0, 88, 66
1, 494288, Note_on_c, 0, 67, 57
1, 494291, Note_off_c, 0, 88, 60
1, 494303, Note_on_c, 0, 91, 67
1, 494313, Note_on_c, 0, 83, 49
1, 494424, Note_on_c, 0, 88, 70
1, 494426, Note_off_c, 0, 91, 61
1, 494444, Note_off_c, 0, 67, 59
1, 494449, Note_on_c, 0, 79, 62
1, 494458, Note_off_c, 0, 88, 61
1, 494464, Note_off_c, 0, 83, 42
1, 494473, Note_off_c, 0, 79, 69
1, 494525, Note_off_c, 0, 59, 54
1, 494557, Note_on_c, 0, 83, 65
1, 494558, Note_off_c, 0, 64, 64
1, 494575, Note_on_c, 0, 76, 75
1, 494661, Note_off_c, 0, 76, 54
1, 494681, Note_off_c, 0, 83, 60
1, 494682, Note_on_c, 0, 79, 70
1, 494700, Note_on_c, 0, 71, 68
1, 494714, Note_off_c, 0, 79, 62
1, 494729, Note_off_c, 0, 71, 67
1, 494826, Note_on_c, 0, 76, 71
1, 494849, Note_on_c, 0, 67, 57
1, 494879, Note_off_c, 0, 67, 50
1, 494929, Note_off_c, 0, 76, 55
1, 494937, Note_on_c, 0, 71, 65
1, 494958, Note_on_c, 0, 36, 62
1, 494968, Note_off_c, 0, 71, 66
1, 495034, Note_on_c, 0, 45, 60
1, 495175, Note_on_c, 0, 52, 79
1, 495188, Note_on_c, 0, 64, 64
1, 495236, Control_c, 0, 64, 106
1, 495251, Control_c, 0, 64, 73
1, 495266, Control_c, 0, 64, 55
1, 495281, Control_c, 0, 64, 41
1, 495296, Control_c, 0, 64, 40
1, 495311, Control_c, 0, 64, 45
1, 495326, Control_c, 0, 64, 57
1, 495335, Note_off_c, 0, 64, 61
1, 495340, Control_c, 0, 64, 69
1, 495342, Note_on_c, 0, 69, 58
1, 495355, Control_c, 0, 64, 90
1, 495370, Control_c, 0, 64, 127
1, 495370, Note_on_c, 0, 60, 40
1, 495400, Note_off_c, 0, 36, 58
1, 495410, Note_off_c, 0, 60, 62
1, 495440, Note_off_c, 0, 52, 58
1, 495472, Note_on_c, 0, 72, 70
1, 495475, Note_off_c, 0, 45, 61
1, 495485, Note_off_c, 0, 69, 60
1, 495511, Note_off_c, 0, 72, 60
1, 495618, Note_on_c, 0, 76, 67
1, 495678, Poly_aftertouch_c, 0, 69, 127
1, 495713, Poly_aftertouch_c, 0, 69, 0
1, 495731, Note_off_c, 0, 76, 61
1, 495740, Note_on_c, 0, 81, 67
1, 495775, Note_off_c, 0, 81, 63
1, 495840, Note_on_c, 0, 60, 48
1, 495883, Note_on_c, 0, 84, 57
1, 495925, Note_on_c, 0, 64, 53
1, 496038, Note_off_c, 0, 84, 63
1, 496041, Note_on_c, 0, 88, 68
1, 496047, Note_on_c, 0, 69, 64
1, 496049, Note_on_c, 0, 81, 55
1, 496110, Note_off_c, 0, 69, 61
1, 496149, Note_off_c, 0, 88, 61
1, 496160, Note_on_c, 0, 84, 65
1, 496181, Note_off_c, 0, 81, 39
1, 496182, Note_off_c, 0, 64, 59
1, 496186, Note_off_c, 0, 60, 62
1, 496187, Note_on_c, 0, 76, 63
1, 496197, Note_off_c, 0, 84, 61
1, 496216, Note_off_c, 0, 76, 67
1, 496294, Note_on_c, 0, 81, 61
1, 496315, Note_on_c, 0, 72, 71
1, 496404, Note_off_c, 0, 81, 58
1, 496416, Note_off_c, 0, 72, 50
1, 496441, Note_on_c, 0, 76, 41
1, 496445, Note_on_c, 0, 69, 65
1, 496468, Note_off_c, 0, 76, 54
1, 496474, Note_off_c, 0, 69, 64
1, 496575, Note_on_c, 0, 72, 58
1, 496622, Note_on_c, 0, 64, 29
1, 496683, Note_off_c, 0, 64, 54
1, 496706, Note_on_c, 0, 69, 46
1, 496717, Note_off_c, 0, 72, 39
1, 496746, Note_on_c, 0, 60, 51
1, 496756, Note_off_c, 0, 69, 62
1, 496757, Note_on_c, 0, 38, 45
1, 496847, Note_on_c, 0, 45, 41
1, 496942, Note_on_c, 0, 62, 65
1, 496971, Note_off_c, 0, 60, 35
1, 496985, Note_on_c, 0, 54, 52
1, 496986, Control_c, 0, 64, 80
1, 497001, Control_c, 0, 64, 62
1, 497016, Control_c, 0, 64, 48
1, 497031, Control_c, 0, 64, 45
1, 497046, Control_c, 0, 64, 48
1, 497060, Control_c, 0, 64, 56
1, 497075, Control_c, 0, 64, 66
1, 497090, Control_c, 0, 64, 84
1, 497103, Note_off_c, 0, 38, 41
1, 497104, Control_c, 0, 64, 110
1, 497114, Note_on_c, 0, 66, 64
1, 497119, Control_c, 0, 64, 127
1, 497135, Note_off_c, 0, 62, 60
1, 497141, Note_on_c, 0, 57, 40
1, 497154, Note_off_c, 0, 66, 63
1, 497172, Note_off_c, 0, 57, 50
1, 497177, Note_off_c, 0, 54, 61
1, 497179, Note_off_c, 0, 45, 61
1, 497274, Note_on_c, 0, 69, 55
1, 497293, Note_on_c, 0, 62, 23
1, 497326, Note_off_c, 0, 62, 57
1, 497377, Note_off_c, 0, 69, 29
1, 497390, Note_on_c, 0, 66, 49
1, 497403, Note_on_c, 0, 74, 76
1, 497418, Note_off_c, 0, 66, 60
1, 497442, Note_off_c, 0, 74, 61
1, 497549, Note_on_c, 0, 78, 62
1, 497633, Note_on_c, 0, 57, 47
1, 497660, Note_off_c, 0, 78, 28
1, 497672, Note_on_c, 0, 81, 49
1, 497739, Note_on_c, 0, 62, 44
1, 497808, Note_off_c, 0, 81, 55
1, 497851, Note_on_c, 0, 86, 55
1, 497854, Note_on_c, 0, 66, 56
1, 497861, Note_on_c, 0, 78, 43
1, 497895, Note_off_c, 0, 78, 51
1, 497968, Note_off_c, 0, 86, 52
1, 497970, Note_off_c, 0, 66, 44
1, 497998, Note_on_c, 0, 81, 52
1, 498020, Note_on_c, 0, 74, 36
1, 498033, Note_off_c, 0, 81, 63
1, 498035, Note_off_c, 0, 57, 56
1, 498053, Note_off_c, 0, 74, 52
1, 498089, Note_off_c, 0, 62, 57
1, 498159, Note_on_c, 0, 78, 50
1, 498184, Note_on_c, 0, 69, 49
1, 498189, Note_off_c, 0, 78, 64
1, 498224, Note_off_c, 0, 69, 62
1, 498332, Note_on_c, 0, 74, 58
1, 498398, Poly_aftertouch_c, 0, 66, 127
1, 498438, Poly_aftertouch_c, 0, 66, 0
1, 498448, Note_off_c, 0, 74, 46
1, 498491, Note_on_c, 0, 62, 51
1, 498494, Note_on_c, 0, 69, 47
1, 498545, Note_off_c, 0, 62, 57
1, 498572, Note_off_c, 0, 69, 58
1, 498642, Note_on_c, 0, 66, 42
1, 498660, Note_on_c, 0, 60, 39
1, 498668, Note_off_c, 0, 66, 57
1, 498691, Note_off_c, 0, 60, 53
1, 498763, Note_on_c, 0, 43, 54
1, 498864, Note_on_c, 0, 50, 46
1, 498902, Note_on_c, 0, 62, 61
1, 498935, Note_on_c, 0, 59, 55
1, 498951, Control_c, 0, 64, 109
1, 498966, Control_c, 0, 64, 77
1, 498980, Control_c, 0, 64, 61
1, 498995, Control_c, 0, 64, 54
1, 499010, Control_c, 0, 64, 57
1, 499025, Control_c, 0, 64, 65
1, 499040, Control_c, 0, 64, 79
1, 499049, Note_off_c, 0, 59, 63
1, 499055, Control_c, 0, 64, 116
1, 499070, Control_c, 0, 64, 127
1, 499084, Note_off_c, 0, 62, 60
1, 499088, Note_on_c, 0, 67, 66
1, 499094, Note_on_c, 0, 59, 47
1, 499160, Note_off_c, 0, 59, 60
1, 499213, Note_on_c, 0, 71, 72
1, 499221, Note_on_c, 0, 62, 43
1, 499234, Note_off_c, 0, 67, 61
1, 499235, Note_off_c, 0, 43, 61
1, 499246, Note_off_c, 0, 62, 58
1, 499257, Note_off_c, 0, 71, 63
1, 499264, Note_off_c, 0, 50, 63
1, 499346, Note_on_c, 0, 74, 70
1, 499401, Poly_aftertouch_c, 0, 67, 127
1, 499453, Poly_aftertouch_c, 0, 67, 0
1, 499461, Note_off_c, 0, 74, 63
1, 499466, Note_on_c, 0, 79, 70
1, 499495, Note_off_c, 0, 79, 62
1, 499571, Note_on_c, 0, 62, 51
1, 499594, Note_on_c, 0, 83, 73
1, 499648, Note_on_c, 0, 67, 49
1, 499732, Note_on_c, 0, 71, 67
1, 499737, Note_on_c, 0, 86, 74
1, 499742, Note_off_c, 0, 83, 57
1, 499746, Note_on_c, 0, 79, 68
1, 499800, Note_off_c, 0, 71, 60
1, 499853, Note_on_c, 0, 83, 73
1, 499853, Note_off_c, 0, 86, 61
1, 499866, Note_off_c, 0, 79, 59
1, 499870, Note_on_c, 0, 74, 74
1, 499890, Note_off_c, 0, 83, 58
1, 499896, Note_off_c, 0, 74, 66
1, 499917, Note_off_c, 0, 67, 64
1, 499946, Note_off_c, 0, 62, 63
1, 499979, Note_on_c, 0, 79, 71
1, 499997, Note_on_c, 0, 71, 73
1, 500056, Note_off_c, 0, 71, 57
1, 500101, Note_off_c, 0, 79, 60
1, 500120, Note_on_c, 0, 74, 64
1, 500134, Note_on_c, 0, 67, 66
1, 500149, Note_off_c, 0, 74, 65
1, 500164, Note_off_c, 0, 67, 63
1, 500267, Note_on_c, 0, 71, 61
1, 500291, Note_on_c, 0, 62, 44
1, 500322, Note_off_c, 0, 62, 55
1, 500326, Note_off_c, 0, 71, 0
1, 500336, Note_on_c, 0, 40, 46
1, 500363, Poly_aftertouch_c, 0, 71, 127
1, 500418, Note_on_c, 0, 67, 58
1, 500429, Poly_aftertouch_c, 0, 71, 0
1, 500434, Note_on_c, 0, 47, 47
1, 500488, Poly_aftertouch_c, 0, 59, 127
1, 500530, Poly_aftertouch_c, 0, 59, 0
1, 500584, Note_on_c, 0, 55, 53
1, 500592, Note_on_c, 0, 64, 62
1, 500612, Note_off_c, 0, 67, 51
1, 500627, Control_c, 0, 64, 96
1, 500642, Control_c, 0, 64, 72
1, 500657, Control_c, 0, 64, 56
1, 500672, Control_c, 0, 64, 51
1, 500687, Control_c, 0, 64, 52
1, 500701, Control_c, 0, 64, 58
1, 500715, Note_off_c, 0, 64, 58
1, 500715, Control_c, 0, 64, 65
1, 500730, Control_c, 0, 64, 78
1, 500745, Note_on_c, 0, 67, 64
1, 500745, Control_c, 0, 64, 106
1, 500751, Note_on_c, 0, 59, 56
1, 500760, Control_c, 0, 64, 127
1, 500798, Note_off_c, 0, 59, 58
1, 500873, Note_on_c, 0, 64, 59
1, 500874, Note_off_c, 0, 40, 59
1, 500879, Note_on_c, 0, 71, 68
1, 500896, Note_off_c, 0, 67, 62
1, 500897, Note_off_c, 0, 64, 65
1, 500912, Note_off_c, 0, 55, 60
1, 500915, Note_off_c, 0, 71, 62
1, 500926, Note_off_c, 0, 47, 62
1, 501013, Note_on_c, 0, 76, 66
1, 501151, Note_on_c, 0, 79, 63
1, 501159, Note_off_c, 0, 76, 55
1, 501199, Note_off_c, 0, 79, 62
1, 501249, Note_on_c, 0, 59, 51
1, 501301, Note_on_c, 0, 83, 64
1, 501328, Note_on_c, 0, 64, 46
1, 501459, Note_on_c, 0, 88, 62
1, 501461, Note_on_c, 0, 67, 47
1, 501463, Note_off_c, 0, 83, 45
1, 501472, Note_on_c, 0, 79, 43
1, 501555, Note_off_c, 0, 67, 52
1, 501566, Note_off_c, 0, 88, 57
1, 501572, Note_off_c, 0, 79, 38
1, 501584, Note_on_c, 0, 83, 57
1, 501601, Note_on_c, 0, 76, 68
1, 501618, Note_off_c, 0, 83, 61
1, 501630, Note_off_c, 0, 76, 65
1, 501664, Note_off_c, 0, 59, 59
1, 501705, Note_off_c, 0, 64, 63
1, 501754, Note_on_c, 0, 79, 57
1, 501770, Note_on_c, 0, 71, 55
1, 501831, Note_off_c, 0, 71, 39
1, 501881, Note_off_c, 0, 79, 52
1, 501903, Note_on_c, 0, 76, 58
1, 501920, Note_on_c, 0, 67, 61
1, 501934, Note_off_c, 0, 76, 65
1, 501950, Note_off_c, 0, 67, 66
1, 502077, Note_on_c, 0, 71, 60
1, 502103, Note_on_c, 0, 64, 43
1, 502134, Note_off_c, 0, 64, 55
1, 502171, Note_off_c, 0, 71, 52
1, 502208, Note_on_c, 0, 67, 54
1, 502237, Note_off_c, 0, 67, 67
1, 502289, Note_on_c, 0, 36, 59
1, 502396, Note_on_c, 0, 45, 54
1, 502650, Control_c, 0, 64, 87
1, 502662, Note_on_c, 0, 67, 97
1, 502665, Control_c, 0, 64, 65
1, 502668, Note_on_c, 0, 52, 43
1, 502680, Control_c, 0, 64, 51
1, 502709, Control_c, 0, 64, 59
1, 502725, Control_c, 0, 64, 69
1, 502740, Control_c, 0, 64, 92
1, 502754, Control_c, 0, 64, 127
1, 502804, Note_off_c, 0, 67, 59
1, 502938, Note_off_c, 0, 36, 55
1, 502953, Note_on_c, 0, 69, 63
1, 502965, Note_on_c, 0, 60, 52
1, 502968, Note_off_c, 0, 52, 56
1, 503011, Note_off_c, 0, 60, 56
1, 503015, Note_off_c, 0, 45, 59
1, 503089, Note_off_c, 0, 69, 54
1, 503094, Note_on_c, 0, 72, 72
1, 503127, Note_off_c, 0, 72, 61
1, 503224, Note_on_c, 0, 76, 67
1, 503261, Note_on_c, 0, 69, 15
1, 503303, Note_off_c, 0, 69, 54
1, 503358, Note_on_c, 0, 81, 74
1, 503362, Note_off_c, 0, 76, 49
1, 503401, Note_off_c, 0, 81, 61
1, 503501, Note_on_c, 0, 84, 68
1, 503678, Note_on_c, 0, 66, 96
1, 503695, Note_off_c, 0, 84, 50
1, 503699, Note_on_c, 0, 88, 62
1, 503711, Note_on_c, 0, 57, 57
1, 503717, Note_on_c, 0, 60, 36
1, 503735, Note_on_c, 0, 81, 47
1, 503794, Note_off_c, 0, 60, 0
1, 503812, Note_on_c, 0, 84, 66
1, 503813, Note_off_c, 0, 88, 63
1, 503824, Note_off_c, 0, 81, 29
1, 503832, Poly_aftertouch_c, 0, 60, 127
1, 503850, Note_on_c, 0, 76, 55
1, 503854, Note_off_c, 0, 84, 59
1, 503872, Note_off_c, 0, 76, 65
1, 503926, Note_off_c, 0, 66, 62
1, 503958, Note_on_c, 0, 81, 57
1, 503989, Note_on_c, 0, 72, 58
1, 504039, Poly_aftertouch_c, 0, 60, 0
1, 504059, Note_off_c, 0, 72, 36
1, 504064, Note_on_c, 0, 64, 96
1, 504077, Note_off_c, 0, 81, 59
1, 504086, Note_on_c, 0, 76, 61
1, 504086, Note_off_c, 0, 57, 52
1, 504095, Note_on_c, 0, 69, 72
1, 504102, Note_off_c, 0, 64, 69
1, 504113, Note_off_c, 0, 76, 66
1, 504125, Note_off_c, 0, 69, 63
1, 504239, Note_on_c, 0, 72, 52
1, 504265, Note_on_c, 0, 64, 39
1, 504299, Note_off_c, 0, 64, 53
1, 504345, Note_on_c, 0, 69, 64
1, 504353, Note_off_c, 0, 72, 43
1, 504367, Note_on_c, 0, 60, 38
1, 504373, Note_off_c, 0, 69, 63
1, 504378, Note_on_c, 0, 38, 60
1, 504395, Note_off_c, 0, 60, 56
1, 504498, Note_on_c, 0, 45, 39
1, 504546, Note_on_c, 0, 62, 80
1, 504592, Control_c, 0, 64, 89
1, 504593, Note_on_c, 0, 54, 55
1, 504607, Control_c, 0, 64, 66
1, 504622, Control_c, 0, 64, 48
1, 504637, Control_c, 0, 64, 36
1, 504666, Control_c, 0, 64, 43
1, 504681, Control_c, 0, 64, 58
1, 504682, Note_off_c, 0, 38, 56
1, 504696, Control_c, 0, 64, 72
1, 504710, Control_c, 0, 64, 96
1, 504712, Note_off_c, 0, 45, 62
1, 504725, Control_c, 0, 64, 127
1, 504748, Note_off_c, 0, 54, 62
1, 504760, Note_on_c, 0, 66, 53
1, 504842, Note_off_c, 0, 62, 37
1, 504871, Note_off_c, 0, 66, 30
1, 504894, Note_on_c, 0, 69, 55
1, 504981, Note_off_c, 0, 69, 52
1, 505005, Note_on_c, 0, 60, 77
1, 505014, Note_on_c, 0, 74, 76
1, 505066, Note_off_c, 0, 74, 61
1, 505178, Note_on_c, 0, 78, 59
1, 505275, Note_off_c, 0, 78, 29
1, 505312, Note_on_c, 0, 81, 49
1, 505405, Note_off_c, 0, 81, 47
1, 505432, Note_on_c, 0, 57, 44
1, 505447, Note_on_c, 0, 86, 57
1, 505465, Note_on_c, 0, 66, 44
1, 505562, Note_off_c, 0, 66, 64
1, 505572, Note_off_c, 0, 86, 45
1, 505591, Note_off_c, 0, 57, 55
1, 505605, Note_on_c, 0, 81, 45
1, 505617, Note_on_c, 0, 74, 42
1, 505640, Note_off_c, 0, 60, 63
1, 505652, Note_off_c, 0, 81, 63
1, 505655, Note_off_c, 0, 74, 56
1, 505769, Note_on_c, 0, 78, 44
1, 505795, Note_off_c, 0, 78, 60
1, 505812, Note_on_c, 0, 69, 46
1, 505850, Note_off_c, 0, 69, 64
1, 505959, Note_on_c, 0, 59, 81
1, 505974, Note_on_c, 0, 74, 53
1, 506086, Note_off_c, 0, 59, 62
1, 506138, Note_on_c, 0, 69, 43
1, 506170, Note_on_c, 0, 57, 76
1, 506176, Note_off_c, 0, 74, 33
1, 506178, Poly_aftertouch_c, 0, 62, 127
1, 506248, Note_off_c, 0, 69, 61
1, 506266, Note_on_c, 0, 66, 42
1, 506273, Note_off_c, 0, 57, 64
1, 506292, Note_off_c, 0, 66, 55
1, 506306, Poly_aftertouch_c, 0, 62, 0
1, 506474, Note_on_c, 0, 55, 69
1, 506495, Note_on_c, 0, 59, 47
1, 506498, Note_on_c, 0, 43, 43
1, 506531, Note_on_c, 0, 50, 34
1, 506571, Control_c, 0, 64, 110
1, 506586, Control_c, 0, 64, 75
1, 506601, Control_c, 0, 64, 55
1, 506616, Control_c, 0, 64, 29
1, 506631, Control_c, 0, 64, 0
1, 506652, Note_on_c, 0, 67, 51
1, 506675, Control_c, 0, 64, 40
1, 506689, Control_c, 0, 64, 60
1, 506705, Control_c, 0, 64, 73
1, 506719, Note_off_c, 0, 59, 52
1, 506721, Control_c, 0, 64, 89
1, 506736, Control_c, 0, 64, 127
1, 506772, Note_off_c, 0, 43, 61
1, 506787, Note_on_c, 0, 71, 54
1, 506800, Note_off_c, 0, 67, 61
1, 506810, Note_off_c, 0, 50, 49
1, 506823, Note_off_c, 0, 71, 63
1, 506920, Note_on_c, 0, 74, 59
1, 506979, Poly_aftertouch_c, 0, 67, 127
1, 507021, Poly_aftertouch_c, 0, 67, 0
1, 507031, Note_off_c, 0, 74, 62
1, 507044, Note_on_c, 0, 79, 56
1, 507073, Note_off_c, 0, 79, 65
1, 507178, Note_on_c, 0, 83, 60
1, 507311, Note_off_c, 0, 83, 52
1, 507318, Note_on_c, 0, 86, 57
1, 507331, Note_on_c, 0, 59, 44
1, 507334, Note_on_c, 0, 67, 43
1, 507372, Note_on_c, 0, 79, 25
1, 507435, Note_off_c, 0, 86, 39
1, 507437, Note_on_c, 0, 83, 58
1, 507464, Note_off_c, 0, 67, 62
1, 507471, Note_off_c, 0, 83, 63
1, 507476, Note_on_c, 0, 74, 61
1, 507483, Note_off_c, 0, 79, 37
1, 507493, Note_off_c, 0, 55, 52
1, 507506, Note_off_c, 0, 74, 65
1, 507580, Note_on_c, 0, 79, 63
1, 507583, Note_off_c, 0, 59, 49
1, 507610, Note_on_c, 0, 71, 55
1, 507657, Note_off_c, 0, 71, 54
1, 507673, Note_off_c, 0, 79, 56
1, 507721, Note_on_c, 0, 74, 42
1, 507733, Note_on_c, 0, 67, 60
1, 507747, Note_off_c, 0, 74, 53
1, 507763, Note_off_c, 0, 67, 65
1, 507867, Note_on_c, 0, 71, 49
1, 507910, Note_on_c, 0, 62, 18
1, 507952, Note_off_c, 0, 62, 51
1, 507976, Note_off_c, 0, 71, 53
1, 507982, Note_on_c, 0, 67, 45
1, 508000, Note_on_c, 0, 59, 41
1, 508033, Note_off_c, 0, 59, 52
1, 508102, Note_off_c, 0, 67, 57
1, 508144, Note_on_c, 0, 43, 37
1, 508145, Note_on_c, 0, 57, 38
1, 508153, Note_on_c, 0, 50, 38
1, 508167, Note_on_c, 0, 62, 45
1, 508217, Control_c, 0, 64, 103
1, 508232, Control_c, 0, 64, 78
1, 508247, Control_c, 0, 64, 63
1, 508261, Control_c, 0, 64, 55
1, 508276, Control_c, 0, 64, 57
1, 508288, Note_on_c, 0, 66, 55
1, 508291, Control_c, 0, 64, 63
1, 508307, Control_c, 0, 64, 72
1, 508322, Control_c, 0, 64, 97
1, 508337, Control_c, 0, 64, 127
1, 508340, Note_off_c, 0, 62, 55
1, 508382, Note_off_c, 0, 66, 63
1, 508408, Note_off_c, 0, 43, 48
1, 508419, Note_off_c, 0, 50, 63
1, 508421, Note_on_c, 0, 69, 61
1, 508498, Note_off_c, 0, 69, 59
1, 508508, Poly_aftertouch_c, 0, 62, 127
1, 508531, Note_on_c, 0, 74, 80
1, 508537, Poly_aftertouch_c, 0, 62, 0
1, 508582, Note_off_c, 0, 74, 64
1, 508618, Poly_aftertouch_c, 0, 66, 0
1, 508681, Note_on_c, 0, 78, 71
1, 508682, Note_on_c, 0, 69, 33
1, 508710, Note_off_c, 0, 69, 57
1, 508792, Note_on_c, 0, 81, 56
1, 508807, Note_off_c, 0, 78, 57
1, 508987, Note_on_c, 0, 60, 76
1, 509013, Note_off_c, 0, 81, 60
1, 509014, Note_on_c, 0, 54, 44
1, 509018, Note_on_c, 0, 86, 63
1, 509136, Note_off_c, 0, 86, 56
1, 509142, Note_off_c, 0, 54, 0
1, 509143, Note_on_c, 0, 81, 52
1, 509180, Note_on_c, 0, 74, 18
1, 509180, Poly_aftertouch_c, 0, 54, 127
1, 509187, Note_off_c, 0, 81, 61
1, 509204, Control_c, 0, 67, 124
1, 509220, Note_off_c, 0, 74, 51
1, 509234, Control_c, 0, 67, 127
1, 509249, Note_off_c, 0, 60, 60
1, 509294, Note_on_c, 0, 78, 64
1, 509318, Note_on_c, 0, 69, 51
1, 509324, Note_off_c, 0, 78, 62
1, 509365, Poly_aftertouch_c, 0, 54, 0
1, 509401, Note_off_c, 0, 69, 59
1, 509438, Note_on_c, 0, 59, 94
1, 509457, Note_off_c, 0, 59, 71
1, 509471, Note_on_c, 0, 74, 66
1, 509477, Note_off_c, 0, 57, 38
1, 509510, Note_on_c, 0, 66, 29
1, 509566, Poly_aftertouch_c, 0, 59, 127
1, 509601, Poly_aftertouch_c, 0, 59, 0
1, 509612, Note_off_c, 0, 66, 44
1, 509626, Note_on_c, 0, 69, 52
1, 509640, Note_off_c, 0, 74, 49
1, 509719, Poly_aftertouch_c, 0, 62, 127
1, 509736, Note_off_c, 0, 69, 59
1, 509753, Note_on_c, 0, 66, 48
1, 509783, Note_off_c, 0, 66, 59
1, 509804, Poly_aftertouch_c, 0, 62, 0
1, 509958, Note_on_c, 0, 55, 70
1, 509971, Note_on_c, 0, 59, 51
1, 509995, Note_on_c, 0, 43, 46
1, 510007, Note_on_c, 0, 50, 38
1, 510020, Note_off_c, 0, 59, 0
1, 510057, Poly_aftertouch_c, 0, 59, 127
1, 510072, Control_c, 0, 64, 96
1, 510087, Control_c, 0, 64, 74
1, 510102, Control_c, 0, 64, 57
1, 510109, Note_on_c, 0, 59, 3
1, 510117, Control_c, 0, 64, 43
1, 510138, Control_c, 0, 64, 38
1, 510144, Note_on_c, 0, 67, 56
1, 510153, Control_c, 0, 64, 38
1, 510168, Control_c, 0, 64, 45
1, 510183, Control_c, 0, 64, 59
1, 510198, Control_c, 0, 64, 71
1, 510212, Control_c, 0, 64, 86
1, 510227, Control_c, 0, 64, 111
1, 510238, Note_off_c, 0, 59, 38
1, 510242, Control_c, 0, 64, 127
1, 510266, Note_on_c, 0, 71, 64
1, 510281, Note_off_c, 0, 67, 61
1, 510303, Note_off_c, 0, 71, 63
1, 510329, Note_off_c, 0, 50, 63
1, 510330, Note_off_c, 0, 55, 60
1, 510405, Note_on_c, 0, 74, 56
1, 510445, Poly_aftertouch_c, 0, 67, 127
1, 510496, Poly_aftertouch_c, 0, 67, 0
1, 510530, Note_off_c, 0, 74, 61
1, 510531, Note_on_c, 0, 79, 64
1, 510573, Note_off_c, 0, 43, 54
1, 510583, Note_off_c, 0, 79, 61
1, 510600, Note_on_c, 0, 57, 66
1, 510632, Note_off_c, 0, 57, 66
1, 510711, Note_on_c, 0, 83, 63
1, 510873, Note_off_c, 0, 83, 56
1, 510895, Note_on_c, 0, 86, 57
1, 510895, Note_on_c, 0, 59, 53
1, 510906, Note_on_c, 0, 67, 55
1, 510910, Note_on_c, 0, 55, 50
1, 510910, Note_on_c, 0, 79, 43
1, 510947, Control_c, 0, 64, 116
1, 510961, Control_c, 0, 64, 82
1, 510976, Control_c, 0, 64, 62
1, 510991, Control_c, 0, 64, 54
1, 511006, Control_c, 0, 64, 53
1, 511021, Control_c, 0, 64, 55
1, 511027, Note_on_c, 0, 83, 63
1, 511027, Note_off_c, 0, 86, 62
1, 511035, Control_c, 0, 64, 60
1, 511050, Note_off_c, 0, 79, 55
1, 511050, Control_c, 0, 64, 66
1, 511061, Note_on_c, 0, 74, 60
1, 511065, Control_c, 0, 64, 76
1, 511066, Note_off_c, 0, 83, 62
1, 511080, Control_c, 0, 64, 94
1, 511092, Note_off_c, 0, 74, 66
1, 511095, Control_c, 0, 64, 123
1, 511110, Control_c, 0, 64, 127
1, 511160, Note_off_c, 0, 67, 60
1, 511169, Note_on_c, 0, 79, 57
1, 511193, Note_on_c, 0, 71, 62
1, 511249, Note_off_c, 0, 71, 48
1, 511268, Note_off_c, 0, 79, 50
1, 511271, Note_off_c, 0, 59, 63
1, 511286, Note_off_c, 0, 55, 61
1, 511307, Note_on_c, 0, 74, 53
1, 511333, Note_off_c, 0, 74, 56
1, 511334, Note_on_c, 0, 67, 55
1, 511363, Note_off_c, 0, 67, 65
1, 511477, Note_on_c, 0, 71, 12
1, 511490, Note_on_c, 0, 62, 29
1, 511517, Note_on_c, 0, 69, 8
1, 511530, Note_off_c, 0, 62, 50
1, 511570, Note_off_c, 0, 69, 46
1, 511605, Note_on_c, 0, 59, 32
1, 511610, Note_off_c, 0, 71, 36
1, 511649, Note_off_c, 0, 59, 52
1, 511705, Poly_aftertouch_c, 0, 67, 0
1, 511759, Note_on_c, 0, 43, 41
1, 511764, Note_on_c, 0, 57, 44
1, 511774, Note_on_c, 0, 50, 41
1, 511791, Note_on_c, 0, 62, 32
1, 511843, Control_c, 0, 64, 119
1, 511858, Control_c, 0, 64, 86
1, 511873, Control_c, 0, 64, 68
1, 511888, Control_c, 0, 64, 53
1, 511902, Control_c, 0, 64, 50
1, 511917, Note_on_c, 0, 66, 56
1, 511917, Control_c, 0, 64, 52
1, 511932, Control_c, 0, 64, 58
1, 511947, Control_c, 0, 64, 66
1, 511962, Control_c, 0, 64, 78
1, 511976, Control_c, 0, 64, 95
1, 511984, Note_off_c, 0, 62, 44
1, 511991, Control_c, 0, 64, 114
1, 512006, Control_c, 0, 64, 127
1, 512011, Note_off_c, 0, 66, 59
1, 512045, Note_off_c, 0, 43, 57
1, 512049, Note_on_c, 0, 69, 59
1, 512067, Note_off_c, 0, 50, 63
1, 512107, Poly_aftertouch_c, 0, 62, 127
1, 512143, Poly_aftertouch_c, 0, 62, 0
1, 512153, Note_off_c, 0, 69, 58
1, 512176, Note_on_c, 0, 66, 39
1, 512178, Note_on_c, 0, 74, 75
1, 512207, Note_off_c, 0, 66, 54
1, 512222, Note_off_c, 0, 74, 61
1, 512311, Note_on_c, 0, 69, 38
1, 512329, Note_on_c, 0, 78, 65
1, 512338, Note_off_c, 0, 69, 57
1, 512463, Note_off_c, 0, 78, 51
1, 512466, Note_on_c, 0, 81, 51
1, 512633, Note_off_c, 0, 81, 49
1, 512651, Note_on_c, 0, 54, 52
1, 512653, Note_on_c, 0, 60, 56
1, 512665, Note_on_c, 0, 86, 59
1, 512696, Control_c, 0, 64, 99
1, 512711, Control_c, 0, 64, 73
1, 512725, Control_c, 0, 64, 59
1, 512740, Control_c, 0, 64, 50
1, 512755, Control_c, 0, 64, 49
1, 512770, Control_c, 0, 64, 51
1, 512773, Note_off_c, 0, 57, 34
1, 512785, Control_c, 0, 64, 59
1, 512800, Control_c, 0, 64, 68
1, 512805, Note_off_c, 0, 86, 55
1, 512815, Control_c, 0, 64, 80
1, 512816, Note_on_c, 0, 81, 48
1, 512830, Note_on_c, 0, 74, 45
1, 512830, Control_c, 0, 64, 97
1, 512845, Control_c, 0, 64, 114
1, 512859, Note_off_c, 0, 74, 55
1, 512859, Control_c, 0, 64, 127
1, 512886, Note_off_c, 0, 81, 63
1, 512941, Note_off_c, 0, 60, 49
1, 513000, Note_on_c, 0, 78, 5
1, 513020, Note_on_c, 0, 69, 27
1, 513044, Note_off_c, 0, 78, 35
1, 513094, Note_off_c, 0, 69, 60
1, 513160, Note_on_c, 0, 59, 60
1, 513169, Note_on_c, 0, 74, 64
1, 513208, Note_on_c, 0, 66, 30
1, 513223, Control_c, 0, 64, 102
1, 513238, Control_c, 0, 64, 78
1, 513253, Control_c, 0, 64, 63
1, 513268, Control_c, 0, 64, 57
1, 513282, Control_c, 0, 64, 58
1, 513297, Control_c, 0, 64, 63
1, 513312, Control_c, 0, 64, 71
1, 513327, Control_c, 0, 64, 81
1, 513337, Note_off_c, 0, 66, 41
1, 513342, Control_c, 0, 64, 90
1, 513351, Note_on_c, 0, 69, 48
1, 513352, Note_off_c, 0, 59, 59
1, 513356, Control_c, 0, 64, 95
1, 513371, Control_c, 0, 64, 104
1, 513375, Note_on_c, 0, 62, 33
1, 513385, Note_off_c, 0, 74, 34
1, 513386, Note_off_c, 0, 54, 59
1, 513386, Control_c, 0, 64, 127
1, 513488, Note_off_c, 0, 69, 59
1, 513500, Note_on_c, 0, 66, 50
1, 513533, Note_off_c, 0, 62, 22
1, 513558, Note_off_c, 0, 66, 52
1, 513706, Note_on_c, 0, 59, 50
1, 513709, Note_on_c, 0, 55, 46
1, 513718, Note_on_c, 0, 50, 42
1, 513720, Note_on_c, 0, 43, 41
1, 513786, Control_c, 0, 64, 87
1, 513800, Control_c, 0, 64, 66
1, 513815, Control_c, 0, 64, 51
1, 513830, Control_c, 0, 64, 44
1, 513845, Control_c, 0, 64, 44
1, 513860, Control_c, 0, 64, 49
1, 513879, Note_on_c, 0, 67, 50
1, 513882, Control_c, 0, 64, 60
1, 513897, Control_c, 0, 64, 70
1, 513912, Control_c, 0, 64, 81
1, 513927, Control_c, 0, 64, 96
1, 513942, Control_c, 0, 64, 113
1, 513957, Control_c, 0, 64, 127
1, 513973, Note_off_c, 0, 59, 43
1, 514016, Note_on_c, 0, 71, 65
1, 514043, Note_off_c, 0, 67, 0
1, 514064, Note_off_c, 0, 71, 61
1, 514070, Poly_aftertouch_c, 0, 67, 0
1, 514083, Note_off_c, 0, 55, 55
1, 514105, Poly_aftertouch_c, 0, 62, 0
1, 514160, Note_on_c, 0, 74, 62
1, 514222, Poly_aftertouch_c, 0, 67, 127
1, 514272, Poly_aftertouch_c, 0, 67, 0
1, 514290, Note_off_c, 0, 74, 60
1, 514297, Note_on_c, 0, 79, 64
1, 514326, Note_off_c, 0, 43, 51
1, 514347, Note_off_c, 0, 79, 61
1, 514351, Note_off_c, 0, 50, 62
1, 514364, Note_on_c, 0, 57, 59
1, 514401, Note_off_c, 0, 57, 64
1, 514454, Note_on_c, 0, 83, 67
1, 514617, Note_on_c, 0, 86, 67
1, 514619, Note_off_c, 0, 83, 46
1, 514630, Note_on_c, 0, 79, 52
1, 514636, Note_on_c, 0, 55, 49
1, 514636, Note_on_c, 0, 59, 38
1, 514639, Note_on_c, 0, 67, 53
1, 514675, Control_c, 0, 64, 98
1, 514690, Control_c, 0, 64, 73
1, 514706, Control_c, 0, 64, 60
1, 514721, Control_c, 0, 64, 58
1, 514735, Control_c, 0, 64, 63
1, 514750, Control_c, 0, 64, 74
1, 514761, Note_on_c, 0, 83, 62
1, 514765, Control_c, 0, 64, 100
1, 514770, Note_off_c, 0, 86, 62
1, 514780, Control_c, 0, 64, 127
1, 514783, Note_off_c, 0, 79, 62
1, 514786, Note_on_c, 0, 74, 71
1, 514794, Note_off_c, 0, 83, 62
1, 514812, Note_off_c, 0, 74, 67
1, 514863, Note_off_c, 0, 67, 62
1, 514891, Note_on_c, 0, 79, 69
1, 514913, Note_on_c, 0, 71, 66
1, 514967, Note_off_c, 0, 59, 53
1, 514971, Note_off_c, 0, 55, 62
1, 515000, Note_off_c, 0, 79, 60
1, 515003, Note_off_c, 0, 71, 50
1, 515018, Note_on_c, 0, 74, 65
1, 515030, Note_on_c, 0, 67, 68
1, 515047, Note_off_c, 0, 74, 67
1, 515062, Note_off_c, 0, 67, 63
1, 515106, Control_c, 0, 67, 124
1, 515135, Control_c, 0, 67, 122
1, 515157, Note_on_c, 0, 71, 63
1, 515165, Control_c, 0, 67, 119
1, 515173, Note_on_c, 0, 62, 64
1, 515179, Control_c, 0, 67, 114
1, 515202, Note_off_c, 0, 62, 64
1, 515226, Note_on_c, 0, 40, 54
1, 515239, Control_c, 0, 67, 112
1, 515286, Note_on_c, 0, 67, 59
1, 515321, Note_on_c, 0, 47, 53
1, 515357, Note_on_c, 0, 59, 9
1, 515357, Control_c, 0, 67, 116
1, 515409, Control_c, 0, 64, 123
1, 515409, Control_c, 0, 67, 118
1, 515414, Note_off_c, 0, 59, 50
1, 515424, Control_c, 0, 64, 84
1, 515424, Control_c, 0, 67, 121
1, 515435, Note_off_c, 0, 71, 29
1, 515438, Note_on_c, 0, 55, 69
1, 515439, Control_c, 0, 64, 64
1, 515450, Note_on_c, 0, 64, 67
1, 515453, Control_c, 0, 64, 43
1, 515468, Control_c, 0, 64, 0
1, 515498, Note_off_c, 0, 67, 59
1, 515514, Control_c, 0, 64, 44
1, 515514, Control_c, 0, 67, 118
1, 515529, Control_c, 0, 64, 63
1, 515529, Control_c, 0, 67, 115
1, 515544, Control_c, 0, 64, 82
1, 515544, Control_c, 0, 67, 111
1, 515551, Note_off_c, 0, 64, 60
1, 515558, Control_c, 0, 64, 127
1, 515558, Control_c, 0, 67, 109
1, 515573, Note_on_c, 0, 59, 61
1, 515573, Control_c, 0, 67, 107
1, 515585, Note_on_c, 0, 67, 70
1, 515588, Control_c, 0, 67, 101
1, 515599, Note_off_c, 0, 40, 58
1, 515603, Control_c, 0, 67, 81
1, 515618, Control_c, 0, 67, 61
1, 515632, Control_c, 0, 67, 46
1, 515647, Control_c, 0, 67, 0
1, 515653, Note_off_c, 0, 59, 62
1, 515658, Note_off_c, 0, 47, 62
1, 515700, Note_on_c, 0, 71, 78
1, 515705, Note_off_c, 0, 67, 61
1, 515732, Note_off_c, 0, 71, 63
1, 515785, Poly_aftertouch_c, 0, 64, 0
1, 515818, Note_on_c, 0, 76, 81
1, 515855, Note_on_c, 0, 67, 31
1, 515898, Note_off_c, 0, 67, 52
1, 515944, Note_on_c, 0, 79, 80
1, 515954, Note_off_c, 0, 76, 61
1, 515996, Note_off_c, 0, 79, 63
1, 516068, Note_on_c, 0, 59, 66
1, 516081, Note_on_c, 0, 83, 81
1, 516138, Note_on_c, 0, 64, 51
1, 516228, Note_on_c, 0, 67, 64
1, 516232, Note_on_c, 0, 88, 83
1, 516234, Note_on_c, 0, 79, 82
1, 516235, Note_off_c, 0, 83, 57
1, 516344, Note_off_c, 0, 88, 64
1, 516346, Note_on_c, 0, 83, 77
1, 516359, Note_on_c, 0, 76, 79
1, 516365, Note_off_c, 0, 79, 62
1, 516369, Note_off_c, 0, 67, 37
1, 516389, Note_off_c, 0, 83, 59
1, 516389, Note_off_c, 0, 76, 64
1, 516483, Note_on_c, 0, 79, 74
1, 516498, Note_on_c, 0, 71, 79
1, 516552, Note_off_c, 0, 64, 66
1, 516592, Note_off_c, 0, 71, 57
1, 516610, Note_off_c, 0, 59, 63
1, 516612, Note_off_c, 0, 55, 61
1, 516617, Note_off_c, 0, 79, 59
1, 516620, Note_on_c, 0, 76, 73
1, 516633, Note_on_c, 0, 67, 74
1, 516659, Note_off_c, 0, 76, 59
1, 516664, Note_off_c, 0, 67, 63
1, 516777, Note_on_c, 0, 71, 56
1, 516778, Note_on_c, 0, 69, 63
1, 516782, Note_on_c, 0, 64, 60
1, 516827, Note_off_c, 0, 64, 62
1, 516848, Note_off_c, 0, 71, 61
1, 516863, Note_off_c, 0, 69, 61
1, 516922, Note_on_c, 0, 59, 41
1, 516941, Note_on_c, 0, 33, 75
1, 516958, Note_off_c, 0, 59, 52
1, 517088, Note_on_c, 0, 45, 65
1, 517225, Note_on_c, 0, 64, 87
1, 517233, Control_c, 0, 64, 82
1, 517241, Note_on_c, 0, 60, 71
1, 517244, Note_on_c, 0, 54, 65
1, 517247, Control_c, 0, 64, 62
1, 517247, Control_c, 0, 67, 44
1, 517262, Control_c, 0, 64, 45
1, 517262, Control_c, 0, 67, 54
1, 517277, Control_c, 0, 64, 40
1, 517277, Control_c, 0, 67, 55
1, 517289, Note_off_c, 0, 54, 53
1, 517292, Control_c, 0, 64, 45
1, 517292, Control_c, 0, 67, 57
1, 517307, Control_c, 0, 64, 59
1, 517307, Control_c, 0, 67, 61
1, 517322, Control_c, 0, 64, 76
1, 517322, Control_c, 0, 67, 76
1, 517337, Control_c, 0, 64, 127
1, 517337, Control_c, 0, 67, 99
1, 517352, Control_c, 0, 67, 110
1, 517356, Note_off_c, 0, 60, 63
1, 517381, Control_c, 0, 67, 113
1, 517396, Note_off_c, 0, 64, 66
1, 517396, Control_c, 0, 67, 121
1, 517411, Control_c, 0, 67, 127
1, 517484, Note_off_c, 0, 33, 61
1, 517509, Note_off_c, 0, 45, 62
1, 517535, Note_on_c, 0, 69, 53
1, 517649, Note_off_c, 0, 69, 59
1, 517660, Note_on_c, 0, 72, 70
1, 517692, Note_off_c, 0, 72, 60
1, 517795, Note_on_c, 0, 76, 68
1, 517929, Note_on_c, 0, 81, 79
1, 517929, Note_off_c, 0, 76, 59
1, 517976, Note_off_c, 0, 81, 65
1, 518077, Note_on_c, 0, 84, 66
1, 518225, Note_off_c, 0, 84, 58
1, 518257, Note_on_c, 0, 62, 84
1, 518261, Note_on_c, 0, 52, 53
1, 518272, Note_on_c, 0, 88, 64
1, 518274, Note_on_c, 0, 57, 61
1, 518291, Note_on_c, 0, 81, 58
1, 518303, Note_on_c, 0, 54, 34
1, 518338, Note_off_c, 0, 81, 53
1, 518347, Note_off_c, 0, 88, 62
1, 518399, Note_off_c, 0, 54, 0
1, 518436, Note_on_c, 0, 54, 3
1, 518530, Note_on_c, 0, 81, 60
1, 518549, Note_on_c, 0, 72, 51
1, 518562, Note_off_c, 0, 62, 62
1, 518573, Note_off_c, 0, 72, 57
1, 518609, Note_off_c, 0, 81, 47
1, 518657, Note_on_c, 0, 60, 94
1, 518683, Note_on_c, 0, 76, 73
1, 518720, Note_off_c, 0, 76, 63
1, 518777, Note_off_c, 0, 57, 63
1, 518777, Note_off_c, 0, 60, 66
1, 518780, Poly_aftertouch_c, 0, 69, 127
1, 518804, Note_off_c, 0, 54, 54
1, 518812, Note_off_c, 0, 52, 63
1, 518818, Poly_aftertouch_c, 0, 69, 0
1, 518827, Note_on_c, 0, 72, 60
1, 518906, Note_off_c, 0, 72, 55
1, 518961, Note_on_c, 0, 60, 51
1, 518982, Note_off_c, 0, 60, 62
1, 519018, Note_on_c, 0, 35, 59
1, 519135, Note_on_c, 0, 47, 58
1, 519176, Note_on_c, 0, 59, 85
1, 519182, Control_c, 0, 64, 79
1, 519185, Note_on_c, 0, 54, 69
1, 519197, Control_c, 0, 64, 57
1, 519201, Note_on_c, 0, 51, 62
1, 519212, Control_c, 0, 64, 33
1, 519226, Control_c, 0, 64, 0
1, 519241, Control_c, 0, 64, 31
1, 519256, Control_c, 0, 64, 50
1, 519270, Note_off_c, 0, 51, 60
1, 519271, Control_c, 0, 64, 68
1, 519285, Note_off_c, 0, 54, 61
1, 519286, Control_c, 0, 64, 92
1, 519300, Control_c, 0, 64, 127
1, 519308, Note_off_c, 0, 59, 65
1, 519349, Note_off_c, 0, 35, 63
1, 519364, Note_off_c, 0, 47, 63
1, 519430, Note_on_c, 0, 63, 49
1, 519533, Note_off_c, 0, 63, 53
1, 519540, Note_on_c, 0, 66, 68
1, 519575, Note_off_c, 0, 66, 65
1, 519578, Note_on_c, 0, 59, 23
1, 519621, Note_off_c, 0, 59, 43
1, 519648, Note_on_c, 0, 57, 89
1, 519718, Note_on_c, 0, 71, 52
1, 519814, Note_on_c, 0, 75, 74
1, 519821, Note_off_c, 0, 71, 58
1, 519850, Note_off_c, 0, 75, 57
1, 519962, Note_on_c, 0, 78, 69
1, 520118, Note_on_c, 0, 83, 63
1, 520118, Note_off_c, 0, 78, 46
1, 520134, Note_on_c, 0, 66, 68
1, 520135, Note_on_c, 0, 75, 51
1, 520149, Note_on_c, 0, 63, 49
1, 520225, Note_off_c, 0, 83, 60
1, 520230, Note_off_c, 0, 66, 52
1, 520244, Note_on_c, 0, 78, 58
1, 520267, Note_off_c, 0, 75, 38
1, 520285, Note_off_c, 0, 78, 57
1, 520288, Note_on_c, 0, 71, 47
1, 520317, Note_off_c, 0, 71, 53
1, 520323, Note_off_c, 0, 63, 60
1, 520354, Note_off_c, 0, 57, 62
1, 520403, Note_on_c, 0, 75, 65
1, 520432, Note_on_c, 0, 66, 53
1, 520550, Note_off_c, 0, 66, 58
1, 520583, Note_on_c, 0, 55, 83
1, 520583, Note_off_c, 0, 75, 63
1, 520589, Note_on_c, 0, 71, 47
1, 520622, Note_off_c, 0, 71, 58
1, 520622, Note_on_c, 0, 63, 38
1, 520654, Note_off_c, 0, 63, 54
1, 520717, Note_off_c, 0, 55, 64
1, 520755, Note_on_c, 0, 66, 70
1, 520789, Note_on_c, 0, 59, 42
1, 520822, Note_off_c, 0, 59, 50
1, 520835, Note_on_c, 0, 54, 90
1, 520891, Note_off_c, 0, 66, 57
1, 520919, Note_on_c, 0, 63, 57
1, 520934, Note_off_c, 0, 54, 59
1, 520952, Note_off_c, 0, 63, 63
1, 521209, Note_on_c, 0, 52, 81
1, 521221, Note_on_c, 0, 64, 68
1, 521224, Note_on_c, 0, 40, 65
1, 521229, Control_c, 0, 64, 94
1, 521236, Note_on_c, 0, 47, 64
1, 521244, Control_c, 0, 64, 66
1, 521249, Note_on_c, 0, 55, 38
1, 521259, Control_c, 0, 64, 32
1, 521274, Control_c, 0, 64, 0
1, 521348, Control_c, 0, 64, 30
1, 521370, Control_c, 0, 64, 50
1, 521385, Control_c, 0, 64, 67
1, 521388, Note_off_c, 0, 55, 22
1, 521388, Note_off_c, 0, 64, 62
1, 521400, Control_c, 0, 64, 78
1, 521414, Control_c, 0, 64, 91
1, 521429, Control_c, 0, 64, 106
1, 521444, Control_c, 0, 64, 127
1, 521489, Note_off_c, 0, 40, 57
1, 521492, Note_on_c, 0, 67, 62
1, 521513, Note_on_c, 0, 59, 38
1, 521516, Note_off_c, 0, 47, 61
1, 521548, Note_off_c, 0, 59, 51
1, 521626, Note_on_c, 0, 71, 66
1, 521637, Note_off_c, 0, 67, 58
1, 521671, Note_off_c, 0, 71, 60
1, 521768, Note_on_c, 0, 76, 68
1, 521795, Note_on_c, 0, 67, 29
1, 521831, Note_off_c, 0, 67, 53
1, 521903, Note_on_c, 0, 79, 64
1, 521926, Note_off_c, 0, 76, 45
1, 521959, Note_off_c, 0, 79, 62
1, 522047, Note_on_c, 0, 83, 65
1, 522176, Note_off_c, 0, 83, 25
1, 522199, Note_on_c, 0, 88, 63
1, 522201, Note_on_c, 0, 64, 49
1, 522213, Note_on_c, 0, 79, 57
1, 522215, Note_on_c, 0, 55, 41
1, 522303, Note_off_c, 0, 88, 58
1, 522326, Note_on_c, 0, 83, 53
1, 522329, Note_off_c, 0, 79, 37
1, 522330, Note_on_c, 0, 76, 68
1, 522349, Note_off_c, 0, 83, 63
1, 522362, Note_off_c, 0, 76, 63
1, 522405, Note_off_c, 0, 64, 62
1, 522468, Note_on_c, 0, 79, 41
1, 522473, Note_off_c, 0, 52, 60
1, 522478, Note_on_c, 0, 71, 60
1, 522517, Note_off_c, 0, 71, 49
1, 522553, Note_off_c, 0, 55, 61
1, 522573, Poly_aftertouch_c, 0, 77, 0
1, 522591, Note_off_c, 0, 79, 45
1, 522594, Note_on_c, 0, 76, 53
1, 522613, Note_on_c, 0, 67, 53
1, 522616, Note_off_c, 0, 76, 61
1, 522639, Note_off_c, 0, 67, 64
1, 522750, Note_on_c, 0, 71, 38
1, 522813, Poly_aftertouch_c, 0, 64, 127
1, 522848, Poly_aftertouch_c, 0, 64, 0
1, 522881, Note_on_c, 0, 67, 55
1, 522882, Note_off_c, 0, 71, 43
1, 522902, Note_on_c, 0, 59, 32
1, 522996, Note_off_c, 0, 59, 31
1, 523015, Note_off_c, 0, 67, 56
1, 523051, Note_on_c, 0, 48, 47
1, 523056, Note_on_c, 0, 52, 43
1, 523057, Note_on_c, 0, 64, 54
1, 523058, Note_on_c, 0, 40, 42
1, 523105, Control_c, 0, 64, 100
1, 523120, Control_c, 0, 64, 75
1, 523134, Control_c, 0, 64, 61
1, 523149, Control_c, 0, 64, 53
1, 523164, Control_c, 0, 64, 55
1, 523179, Control_c, 0, 64, 61
1, 523188, Note_off_c, 0, 64, 53
1, 523193, Control_c, 0, 64, 69
1, 523197, Note_on_c, 0, 69, 63
1, 523208, Control_c, 0, 64, 82
1, 523212, Note_on_c, 0, 60, 49
1, 523223, Control_c, 0, 64, 110
1, 523238, Control_c, 0, 64, 127
1, 523254, Note_off_c, 0, 60, 57
1, 523327, Note_on_c, 0, 72, 72
1, 523329, Note_on_c, 0, 64, 43
1, 523345, Note_off_c, 0, 69, 60
1, 523361, Note_off_c, 0, 64, 54
1, 523379, Note_off_c, 0, 72, 63
1, 523382, Note_off_c, 0, 40, 61
1, 523398, Note_off_c, 0, 52, 61
1, 523422, Note_off_c, 0, 48, 63
1, 523454, Note_on_c, 0, 76, 75
1, 523465, Note_on_c, 0, 69, 47
1, 523494, Note_off_c, 0, 69, 63
1, 523579, Note_off_c, 0, 76, 62
1, 523583, Note_on_c, 0, 81, 75
1, 523639, Note_off_c, 0, 81, 64
1, 523645, Poly_aftertouch_c, 0, 72, 127
1, 523674, Poly_aftertouch_c, 0, 72, 0
1, 523730, Note_on_c, 0, 84, 71
1, 523942, Note_on_c, 0, 57, 86
1, 523949, Note_off_c, 0, 84, 57
1, 523950, Note_on_c, 0, 88, 59
1, 523954, Note_on_c, 0, 64, 60
1, 523959, Note_on_c, 0, 60, 59
1, 523975, Note_on_c, 0, 81, 49
1, 524081, Note_off_c, 0, 64, 44
1, 524081, Note_off_c, 0, 88, 62
1, 524086, Note_on_c, 0, 84, 65
1, 524103, Note_off_c, 0, 60, 58
1, 524111, Note_off_c, 0, 81, 58
1, 524128, Note_off_c, 0, 84, 61
1, 524135, Note_on_c, 0, 76, 44
1, 524161, Note_off_c, 0, 76, 56
1, 524204, Note_off_c, 0, 57, 67
1, 524236, Note_on_c, 0, 81, 55
1, 524250, Note_on_c, 0, 72, 69
1, 524371, Note_off_c, 0, 81, 62
1, 524372, Note_on_c, 0, 55, 87
1, 524388, Note_on_c, 0, 76, 55
1, 524395, Note_on_c, 0, 69, 69
1, 524413, Note_off_c, 0, 55, 67
1, 524418, Note_off_c, 0, 76, 65
1, 524420, Note_off_c, 0, 72, 34
1, 524432, Note_off_c, 0, 69, 60
1, 524552, Note_on_c, 0, 72, 43
1, 524559, Note_on_c, 0, 74, 37
1, 524591, Note_off_c, 0, 74, 54
1, 524605, Poly_aftertouch_c, 0, 64, 127
1, 524647, Poly_aftertouch_c, 0, 64, 0
1, 524679, Note_on_c, 0, 69, 56
1, 524706, Note_on_c, 0, 60, 38
1, 524708, Note_off_c, 0, 72, 36
1, 524888, Note_off_c, 0, 69, 37
1, 524902, Note_on_c, 0, 52, 74
1, 524909, Note_on_c, 0, 64, 57
1, 524917, Note_on_c, 0, 40, 51
1, 524932, Note_on_c, 0, 47, 42
1, 524955, Note_off_c, 0, 60, 42
1, 525023, Note_off_c, 0, 64, 56
1, 525031, Control_c, 0, 64, 84
1, 525046, Control_c, 0, 64, 63
1, 525061, Control_c, 0, 64, 50
1, 525077, Control_c, 0, 64, 47
1, 525092, Note_on_c, 0, 67, 53
1, 525092, Control_c, 0, 64, 47
1, 525114, Note_on_c, 0, 59, 31
1, 525114, Control_c, 0, 64, 53
1, 525129, Control_c, 0, 64, 63
1, 525144, Control_c, 0, 64, 74
1, 525159, Control_c, 0, 64, 94
1, 525174, Control_c, 0, 64, 121
1, 525183, Note_off_c, 0, 59, 38
1, 525188, Control_c, 0, 64, 127
1, 525224, Note_on_c, 0, 71, 55
1, 525233, Note_on_c, 0, 64, 51
1, 525242, Note_off_c, 0, 67, 54
1, 525257, Note_off_c, 0, 64, 59
1, 525282, Note_off_c, 0, 71, 62
1, 525364, Note_off_c, 0, 47, 39
1, 525373, Note_off_c, 0, 52, 62
1, 525375, Note_on_c, 0, 76, 61
1, 525524, Note_on_c, 0, 79, 59
1, 525541, Note_off_c, 0, 76, 58
1, 525588, Note_off_c, 0, 40, 59
1, 525592, Note_off_c, 0, 79, 61
1, 525595, Note_on_c, 0, 54, 80
1, 525643, Note_off_c, 0, 54, 62
1, 525707, Note_on_c, 0, 83, 60
1, 525904, Note_on_c, 0, 55, 58
1, 525906, Note_on_c, 0, 64, 68
1, 525907, Note_on_c, 0, 52, 70
1, 525912, Note_on_c, 0, 88, 60
1, 525923, Note_on_c, 0, 79, 46
1, 525923, Note_off_c, 0, 83, 34
1, 525966, Control_c, 0, 64, 98
1, 525981, Control_c, 0, 64, 68
1, 525996, Control_c, 0, 64, 50
1, 526011, Control_c, 0, 64, 38
1, 526026, Control_c, 0, 64, 38
1, 526041, Control_c, 0, 64, 42
1, 526050, Note_on_c, 0, 83, 55
1, 526053, Note_off_c, 0, 88, 62
1, 526056, Control_c, 0, 64, 54
1, 526071, Control_c, 0, 64, 65
1, 526075, Note_on_c, 0, 76, 65
1, 526080, Note_off_c, 0, 79, 59
1, 526085, Control_c, 0, 64, 72
1, 526091, Note_off_c, 0, 83, 62
1, 526100, Control_c, 0, 64, 80
1, 526109, Note_off_c, 0, 76, 64
1, 526115, Control_c, 0, 64, 90
1, 526129, Control_c, 0, 64, 100
1, 526144, Control_c, 0, 64, 117
1, 526159, Control_c, 0, 64, 127
1, 526199, Note_off_c, 0, 64, 61
1, 526200, Note_on_c, 0, 79, 61
1, 526215, Note_on_c, 0, 71, 68
1, 526266, Note_off_c, 0, 71, 43
1, 526317, Note_off_c, 0, 79, 56
1, 526333, Note_on_c, 0, 76, 52
1, 526336, Note_off_c, 0, 55, 64
1, 526362, Note_off_c, 0, 76, 65
1, 526363, Note_on_c, 0, 67, 46
1, 526366, Note_off_c, 0, 52, 63
1, 526390, Note_off_c, 0, 67, 62
1, 526488, Note_on_c, 0, 71, 51
1, 526550, Poly_aftertouch_c, 0, 64, 127
1, 526607, Poly_aftertouch_c, 0, 64, 0
1, 526631, Note_on_c, 0, 67, 56
1, 526642, Note_on_c, 0, 59, 45
1, 526650, Note_off_c, 0, 71, 38
1, 526679, Note_off_c, 0, 59, 49
1, 526764, Note_off_c, 0, 67, 36
1, 526798, Note_on_c, 0, 48, 48
1, 526801, Note_on_c, 0, 40, 38
1, 526805, Note_on_c, 0, 52, 46
1, 526806, Note_on_c, 0, 64, 48
1, 526879, Control_c, 0, 64, 113
1, 526894, Control_c, 0, 64, 78
1, 526908, Control_c, 0, 64, 62
1, 526923, Control_c, 0, 64, 51
1, 526928, Note_off_c, 0, 64, 56
1, 526938, Control_c, 0, 64, 53
1, 526941, Note_on_c, 0, 69, 60
1, 526952, Control_c, 0, 64, 58
1, 526965, Note_on_c, 0, 60, 34
1, 526967, Control_c, 0, 64, 66
1, 526982, Control_c, 0, 64, 79
1, 526997, Control_c, 0, 64, 106
1, 527007, Note_off_c, 0, 60, 49
1, 527012, Control_c, 0, 64, 127
1, 527069, Note_on_c, 0, 72, 70
1, 527070, Note_on_c, 0, 64, 37
1, 527082, Note_off_c, 0, 69, 59
1, 527101, Note_off_c, 0, 64, 54
1, 527117, Note_off_c, 0, 72, 62
1, 527134, Note_off_c, 0, 40, 61
1, 527157, Note_off_c, 0, 52, 61
1, 527172, Note_off_c, 0, 48, 63
1, 527204, Note_on_c, 0, 76, 65
1, 527212, Note_on_c, 0, 69, 42
1, 527242, Note_off_c, 0, 69, 57
1, 527325, Note_off_c, 0, 76, 61
1, 527335, Note_on_c, 0, 81, 67
1, 527378, Note_off_c, 0, 81, 61
1, 527481, Note_on_c, 0, 84, 64
1, 527656, Note_off_c, 0, 84, 53
1, 527663, Note_on_c, 0, 57, 62
1, 527673, Note_on_c, 0, 88, 60
1, 527676, Note_on_c, 0, 64, 55
1, 527685, Note_on_c, 0, 60, 47
1, 527692, Note_on_c, 0, 81, 53
1, 527701, Control_c, 0, 64, 96
1, 527716, Control_c, 0, 64, 74
1, 527731, Control_c, 0, 64, 63
1, 527761, Control_c, 0, 64, 68
1, 527775, Control_c, 0, 64, 81
1, 527790, Control_c, 0, 64, 115
1, 527804, Note_off_c, 0, 88, 62
1, 527805, Control_c, 0, 64, 127
1, 527809, Note_on_c, 0, 84, 59
1, 527838, Note_off_c, 0, 84, 63
1, 527838, Note_on_c, 0, 76, 51
1, 527848, Note_off_c, 0, 81, 47
1, 527853, Note_off_c, 0, 64, 59
1, 527862, Note_off_c, 0, 76, 64
1, 527895, Note_off_c, 0, 60, 64
1, 527954, Note_off_c, 0, 57, 65
1, 527961, Note_on_c, 0, 81, 53
1, 527990, Note_on_c, 0, 72, 49
1, 528077, Note_off_c, 0, 72, 52
1, 528083, Note_off_c, 0, 81, 60
1, 528128, Note_on_c, 0, 55, 62
1, 528144, Note_on_c, 0, 69, 53
1, 528155, Note_on_c, 0, 76, 23
1, 528175, Note_off_c, 0, 69, 60
1, 528175, Note_off_c, 0, 55, 57
1, 528196, Note_off_c, 0, 76, 54
1, 528303, Note_on_c, 0, 72, 54
1, 528319, Note_on_c, 0, 64, 48
1, 528351, Note_off_c, 0, 64, 51
1, 528459, Note_on_c, 0, 69, 44
1, 528477, Note_off_c, 0, 72, 35
1, 528479, Note_on_c, 0, 60, 44
1, 528553, Note_off_c, 0, 69, 53
1, 528673, Note_on_c, 0, 52, 44
1, 528677, Note_on_c, 0, 40, 37
1, 528691, Note_on_c, 0, 64, 48
1, 528702, Note_on_c, 0, 47, 42
1, 528731, Note_off_c, 0, 60, 43
1, 528789, Control_c, 0, 64, 96
1, 528804, Control_c, 0, 64, 71
1, 528812, Note_off_c, 0, 64, 60
1, 528819, Control_c, 0, 64, 54
1, 528834, Control_c, 0, 64, 51
1, 528856, Control_c, 0, 64, 56
1, 528871, Control_c, 0, 64, 64
1, 528872, Note_on_c, 0, 67, 60
1, 528879, Note_on_c, 0, 59, 51
1, 528885, Control_c, 0, 64, 78
1, 528900, Control_c, 0, 64, 117
1, 528915, Control_c, 0, 64, 127
1, 528935, Note_off_c, 0, 59, 53
1, 529003, Note_on_c, 0, 71, 65
1, 529006, Note_off_c, 0, 67, 57
1, 529013, Note_on_c, 0, 64, 45
1, 529040, Note_off_c, 0, 64, 57
1, 529052, Note_off_c, 0, 71, 60
1, 529124, Note_off_c, 0, 52, 62
1, 529150, Note_on_c, 0, 76, 64
1, 529247, Poly_aftertouch_c, 0, 67, 0
1, 529292, Note_on_c, 0, 79, 65
1, 529301, Note_on_c, 0, 71, 29
1, 529314, Note_off_c, 0, 76, 59
1, 529329, Note_off_c, 0, 40, 60
1, 529338, Note_off_c, 0, 71, 45
1, 529349, Note_off_c, 0, 79, 63
1, 529355, Note_on_c, 0, 54, 50
1, 529357, Note_off_c, 0, 47, 62
1, 529389, Note_off_c, 0, 54, 63
1, 529457, Note_on_c, 0, 83, 68
1, 529490, Note_off_c, 0, 83, 56
1, 529585, Poly_aftertouch_c, 0, 83, 127
1, 529618, Note_on_c, 0, 55, 53
1, 529623, Note_on_c, 0, 52, 62
1, 529624, Note_on_c, 0, 64, 66
1, 529627, Note_on_c, 0, 79, 59
1, 529633, Note_on_c, 0, 88, 69
1, 529657, Poly_aftertouch_c, 0, 83, 0
1, 529679, Control_c, 0, 64, 96
1, 529694, Control_c, 0, 64, 73
1, 529709, Control_c, 0, 64, 64
1, 529724, Control_c, 0, 64, 66
1, 529739, Control_c, 0, 64, 72
1, 529753, Control_c, 0, 64, 96
1, 529755, Note_on_c, 0, 83, 70
1, 529755, Note_off_c, 0, 88, 63
1, 529767, Note_on_c, 0, 76, 77
1, 529768, Control_c, 0, 64, 127
1, 529780, Note_off_c, 0, 79, 60
1, 529788, Note_off_c, 0, 83, 58
1, 529806, Note_off_c, 0, 76, 62
1, 529839, Note_off_c, 0, 64, 61
1, 529886, Note_on_c, 0, 79, 74
1, 529907, Note_on_c, 0, 71, 71
1, 529982, Note_off_c, 0, 55, 49
1, 529994, Note_off_c, 0, 71, 59
1, 530020, Note_on_c, 0, 76, 75
1, 530022, Note_off_c, 0, 79, 58
1, 530025, Note_on_c, 0, 67, 76
1, 530057, Note_off_c, 0, 76, 60
1, 530066, Note_off_c, 0, 67, 54
1, 530159, Note_on_c, 0, 71, 73
1, 530180, Note_on_c, 0, 64, 49
1, 530224, Note_off_c, 0, 64, 45
1, 530300, Note_on_c, 0, 67, 63
1, 530310, Note_on_c, 0, 59, 60
1, 530354, Note_off_c, 0, 71, 48
1, 530418, Note_off_c, 0, 59, 28
1, 530432, Note_on_c, 0, 38, 76
1, 530468, Note_on_c, 0, 64, 67
1, 530473, Control_c, 0, 64, 114
1, 530488, Control_c, 0, 64, 78
1, 530501, Note_off_c, 0, 67, 57
1, 530502, Control_c, 0, 64, 60
1, 530517, Control_c, 0, 64, 51
1, 530532, Control_c, 0, 64, 55
1, 530547, Control_c, 0, 64, 64
1, 530562, Control_c, 0, 64, 86
1, 530576, Control_c, 0, 64, 127
1, 530576, Control_c, 0, 67, 125
1, 530580, Note_off_c, 0, 64, 63
1, 530588, Note_on_c, 0, 59, 68
1, 530590, Note_on_c, 0, 67, 75
1, 530591, Control_c, 0, 67, 122
1, 530606, Control_c, 0, 67, 115
1, 530621, Control_c, 0, 67, 103
1, 530636, Control_c, 0, 67, 85
1, 530648, Note_off_c, 0, 59, 57
1, 530650, Control_c, 0, 67, 59
1, 530665, Control_c, 0, 67, 0
1, 530670, Note_off_c, 0, 38, 62
1, 530709, Note_on_c, 0, 64, 66
1, 530718, Note_on_c, 0, 71, 75
1, 530727, Note_off_c, 0, 67, 60
1, 530736, Note_off_c, 0, 64, 65
1, 530760, Note_off_c, 0, 71, 62
1, 530837, Note_on_c, 0, 76, 81
1, 530846, Note_on_c, 0, 67, 65
1, 530873, Note_off_c, 0, 67, 62
1, 530974, Note_on_c, 0, 79, 80
1, 530983, Note_on_c, 0, 71, 59
1, 530992, Note_off_c, 0, 76, 60
1, 531001, Note_off_c, 0, 71, 63
1, 531046, Note_off_c, 0, 79, 63
1, 531140, Note_on_c, 0, 83, 80
1, 531194, Note_on_c, 0, 59, 58
1, 531197, Note_on_c, 0, 64, 55
1, 531219, Poly_aftertouch_c, 0, 76, 127
1, 531224, Note_off_c, 0, 59, 57
1, 531225, Note_off_c, 0, 64, 56
1, 531246, Poly_aftertouch_c, 0, 76, 0
1, 531300, Note_on_c, 0, 88, 81
1, 531303, Note_on_c, 0, 79, 73
1, 531307, Note_off_c, 0, 83, 60
1, 531308, Note_on_c, 0, 59, 85
1, 531322, Note_on_c, 0, 64, 72
1, 531419, Note_off_c, 0, 64, 62
1, 531434, Note_off_c, 0, 88, 65
1, 531435, Note_on_c, 0, 83, 76
1, 531446, Note_on_c, 0, 76, 77
1, 531454, Note_off_c, 0, 79, 60
1, 531469, Note_off_c, 0, 83, 59
1, 531478, Note_off_c, 0, 76, 63
1, 531496, Note_off_c, 0, 59, 61
1, 531571, Note_on_c, 0, 55, 82
1, 531574, Note_on_c, 0, 79, 79
1, 531588, Note_on_c, 0, 71, 79
1, 531632, Note_off_c, 0, 71, 56
1, 531666, Note_off_c, 0, 52, 60
1, 531758, Note_on_c, 0, 59, 99
1, 531758, Note_on_c, 0, 76, 86
1, 531765, Note_off_c, 0, 79, 0
1, 531770, Note_off_c, 0, 55, 57
1, 531813, Poly_aftertouch_c, 0, 79, 0
1, 531814, Note_off_c, 0, 59, 68
1, 531816, Note_off_c, 0, 76, 63
1, 531917, Note_on_c, 0, 71, 88
1, 531923, Note_on_c, 0, 64, 64
1, 531930, Note_on_c, 0, 65, 56
1, 531950, Note_off_c, 0, 64, 67
1, 531952, Note_off_c, 0, 65, 60
1, 531960, Note_off_c, 0, 71, 63
1, 532086, Note_on_c, 0, 67, 97
1, 532205, Note_on_c, 0, 37, 85
1, 532208, Control_c, 0, 64, 82
1, 532222, Control_c, 0, 64, 58
1, 532237, Control_c, 0, 64, 35
1, 532252, Control_c, 0, 64, 32
1, 532268, Control_c, 0, 64, 43
1, 532283, Control_c, 0, 64, 63
1, 532291, Note_off_c, 0, 37, 65
1, 532297, Control_c, 0, 64, 95
1, 532312, Control_c, 0, 64, 127
1, 532377, Note_on_c, 0, 71, 99
1, 532392, Note_on_c, 0, 55, 76
1, 532399, Note_off_c, 0, 67, 67
1, 532415, Note_off_c, 0, 55, 65
1, 532424, Note_off_c, 0, 71, 67
1, 532566, Note_on_c, 0, 64, 72
1, 532635, Note_off_c, 0, 64, 62
1, 532683, Note_on_c, 0, 76, 75
1, 532701, Note_on_c, 0, 67, 44
1, 532733, Note_off_c, 0, 67, 55
1, 532734, Note_off_c, 0, 76, 64
1, 532823, Note_on_c, 0, 79, 63
1, 532836, Note_on_c, 0, 71, 58
1, 532861, Note_off_c, 0, 71, 64
1, 532951, Note_on_c, 0, 83, 75
1, 532966, Note_off_c, 0, 79, 60
1, 532966, Note_on_c, 0, 76, 36
1, 532995, Note_off_c, 0, 76, 54
1, 532998, Note_off_c, 0, 83, 63
1, 533105, Note_on_c, 0, 88, 72
1, 533188, Poly_aftertouch_c, 0, 79, 127
1, 533227, Poly_aftertouch_c, 0, 79, 0
1, 533293, Note_on_c, 0, 69, 88
1, 533303, Note_on_c, 0, 64, 71
1, 533304, Note_on_c, 0, 85, 78
1, 533311, Note_on_c, 0, 61, 72
1, 533311, Note_on_c, 0, 91, 77
1, 533348, Note_off_c, 0, 88, 63
1, 533444, Note_on_c, 0, 88, 78
1, 533454, Note_off_c, 0, 91, 65
1, 533460, Note_on_c, 0, 79, 70
1, 533469, Note_off_c, 0, 85, 60
1, 533474, Note_off_c, 0, 88, 60
1, 533484, Note_off_c, 0, 79, 66
1, 533578, Note_on_c, 0, 76, 77
1, 533578, Note_on_c, 0, 85, 73
1, 533594, Note_off_c, 0, 69, 56
1, 533708, Note_on_c, 0, 73, 91
1, 533708, Note_on_c, 0, 67, 89
1, 533725, Note_off_c, 0, 85, 62
1, 533726, Note_off_c, 0, 76, 62
1, 533736, Note_off_c, 0, 67, 62
1, 533738, Note_off_c, 0, 64, 66
1, 533748, Note_off_c, 0, 73, 64
1, 533750, Note_off_c, 0, 61, 65
1, 533858, Note_on_c, 0, 76, 61
1, 533915, Note_on_c, 0, 67, 9
1, 533966, Note_on_c, 0, 73, 70
1, 533968, Note_off_c, 0, 76, 65
1, 533989, Note_off_c, 0, 73, 70
1, 533997, Note_on_c, 0, 33, 74
1, 534027, Note_off_c, 0, 67, 37
1, 534244, Note_on_c, 0, 66, 91
1, 534247, Control_c, 0, 64, 75
1, 534249, Note_on_c, 0, 45, 53
1, 534253, Note_on_c, 0, 61, 80
1, 534260, Note_on_c, 0, 55, 71
1, 534262, Control_c, 0, 64, 55
1, 534276, Control_c, 0, 64, 46
1, 534291, Control_c, 0, 64, 54
1, 534298, Note_off_c, 0, 55, 61
1, 534306, Control_c, 0, 64, 66
1, 534306, Control_c, 0, 67, 64
1, 534321, Control_c, 0, 64, 93
1, 534321, Control_c, 0, 67, 97
1, 534333, Note_off_c, 0, 61, 63
1, 534336, Control_c, 0, 64, 127
1, 534336, Control_c, 0, 67, 101
1, 534372, Note_off_c, 0, 66, 61
1, 534376, Note_off_c, 0, 33, 62
1, 534395, Note_off_c, 0, 45, 62
1, 534395, Control_c, 0, 67, 106
1, 534410, Control_c, 0, 67, 109
1, 534424, Control_c, 0, 67, 113
1, 534439, Control_c, 0, 67, 118
1, 534454, Control_c, 0, 67, 127
1, 534486, Note_on_c, 0, 73, 63
1, 534594, Note_off_c, 0, 73, 58
1, 534616, Note_on_c, 0, 76, 65
1, 534642, Note_off_c, 0, 76, 69
1, 534734, Note_on_c, 0, 64, 98
1, 534785, Note_on_c, 0, 81, 56
1, 534889, Note_on_c, 0, 85, 74
1, 534894, Note_off_c, 0, 81, 61
1, 534939, Note_off_c, 0, 85, 60
1, 535038, Note_on_c, 0, 88, 48
1, 535159, Note_off_c, 0, 88, 47
1, 535192, Note_on_c, 0, 93, 69
1, 535198, Note_on_c, 0, 85, 64
1, 535213, Note_on_c, 0, 57, 58
1, 535213, Note_on_c, 0, 61, 61
1, 535221, Note_on_c, 0, 55, 53
1, 535322, Note_off_c, 0, 93, 62
1, 535327, Note_off_c, 0, 85, 64
1, 535335, Note_on_c, 0, 88, 58
1, 535349, Note_off_c, 0, 64, 57
1, 535352, Note_on_c, 0, 81, 66
1, 535360, Note_off_c, 0, 88, 66
1, 535378, Note_off_c, 0, 81, 67
1, 535499, Note_on_c, 0, 85, 68
1, 535501, Note_on_c, 0, 76, 62
1, 535672, Note_on_c, 0, 81, 63
1, 535681, Note_on_c, 0, 62, 92
1, 535683, Note_off_c, 0, 76, 57
1, 535685, Note_on_c, 0, 73, 66
1, 535696, Note_off_c, 0, 85, 63
1, 535718, Note_off_c, 0, 81, 61
1, 535740, Note_off_c, 0, 73, 61
1, 535778, Note_off_c, 0, 57, 62
1, 535788, Note_off_c, 0, 61, 38
1, 535792, Note_off_c, 0, 55, 57
1, 535818, Note_off_c, 0, 62, 66
1, 535851, Note_on_c, 0, 76, 77
1, 535866, Note_on_c, 0, 67, 62
1, 535902, Note_off_c, 0, 67, 57
1, 535944, Note_on_c, 0, 61, 93
1, 535979, Note_off_c, 0, 61, 66
1, 536027, Note_off_c, 0, 76, 61
1, 536031, Note_on_c, 0, 73, 77
1, 536057, Note_off_c, 0, 73, 64
1, 536067, Poly_aftertouch_c, 0, 67, 127
1, 536119, Poly_aftertouch_c, 0, 67, 0
1, 536371, Note_on_c, 0, 62, 79
1, 536397, Note_on_c, 0, 45, 64
1, 536400, Note_on_c, 0, 38, 57
1, 536425, Note_on_c, 0, 54, 45
1, 536435, Control_c, 0, 64, 95
1, 536450, Control_c, 0, 64, 68
1, 536465, Control_c, 0, 64, 43
1, 536479, Control_c, 0, 64, 0
1, 536568, Control_c, 0, 64, 51
1, 536580, Note_off_c, 0, 54, 36
1, 536583, Control_c, 0, 64, 71
1, 536598, Control_c, 0, 64, 91
1, 536613, Control_c, 0, 64, 127
1, 536629, Note_on_c, 0, 66, 75
1, 536651, Note_off_c, 0, 62, 61
1, 536680, Note_off_c, 0, 66, 64
1, 536776, Note_on_c, 0, 69, 70
1, 536800, Note_off_c, 0, 38, 62
1, 536824, Note_off_c, 0, 45, 62
1, 536876, Note_off_c, 0, 69, 59
1, 536891, Note_on_c, 0, 74, 77
1, 536931, Note_on_c, 0, 66, 10
1, 536944, Note_off_c, 0, 74, 64
1, 536976, Note_off_c, 0, 66, 54
1, 537058, Note_on_c, 0, 78, 55
1, 537100, Poly_aftertouch_c, 0, 69, 127
1, 537146, Poly_aftertouch_c, 0, 69, 0
1, 537157, Note_off_c, 0, 78, 49
1, 537182, Note_on_c, 0, 81, 48
1, 537267, Note_off_c, 0, 81, 52
1, 537331, Note_on_c, 0, 66, 57
1, 537342, Note_on_c, 0, 62, 47
1, 537345, Note_on_c, 0, 57, 41
1, 537345, Note_on_c, 0, 86, 55
1, 537371, Note_on_c, 0, 78, 16
1, 537411, Note_off_c, 0, 78, 49
1, 537457, Note_off_c, 0, 66, 55
1, 537473, Note_off_c, 0, 86, 58
1, 537476, Note_on_c, 0, 81, 62
1, 537482, Note_on_c, 0, 74, 59
1, 537520, Note_off_c, 0, 74, 63
1, 537531, Note_off_c, 0, 81, 62
1, 537601, Note_off_c, 0, 57, 60
1, 537633, Note_on_c, 0, 78, 56
1, 537638, Note_off_c, 0, 62, 63
1, 537655, Note_on_c, 0, 69, 54
1, 537661, Note_off_c, 0, 78, 65
1, 537696, Note_off_c, 0, 69, 58
1, 537816, Note_on_c, 0, 74, 60
1, 537887, Note_off_c, 0, 74, 62
1, 538027, Note_on_c, 0, 64, 67
1, 538107, Note_off_c, 0, 64, 55
1, 538134, Note_on_c, 0, 62, 79
1, 538236, Note_on_c, 0, 61, 84
1, 538258, Note_off_c, 0, 62, 59
1, 538331, Note_on_c, 0, 62, 83
1, 538343, Note_off_c, 0, 61, 61
1, 538369, Note_off_c, 0, 62, 65
1, 538600, Note_on_c, 0, 63, 84
1, 538635, Control_c, 0, 64, 89
1, 538649, Note_on_c, 0, 35, 52
1, 538650, Control_c, 0, 64, 64
1, 538666, Control_c, 0, 64, 30
1, 538681, Control_c, 0, 64, 0
1, 538726, Control_c, 0, 64, 33
1, 538740, Control_c, 0, 64, 62
1, 538755, Control_c, 0, 64, 77
1, 538770, Control_c, 0, 64, 92
1, 538771, Note_off_c, 0, 35, 62
1, 538781, Note_off_c, 0, 63, 61
1, 538785, Control_c, 0, 64, 107
1, 538800, Control_c, 0, 64, 127
1, 538821, Note_on_c, 0, 57, 49
1, 538871, Note_off_c, 0, 57, 53
1, 538961, Note_on_c, 0, 54, 52
1, 538976, Note_on_c, 0, 63, 54
1, 539020, Note_off_c, 0, 63, 57
1, 539045, Note_off_c, 0, 54, 57
1, 539091, Note_on_c, 0, 57, 49
1, 539103, Note_on_c, 0, 66, 54
1, 539126, Note_off_c, 0, 57, 61
1, 539145, Note_off_c, 0, 66, 62
1, 539239, Note_on_c, 0, 63, 55
1, 539249, Note_on_c, 0, 69, 48
1, 539360, Note_off_c, 0, 69, 46
1, 539379, Note_off_c, 0, 63, 50
1, 539401, Note_on_c, 0, 66, 61
1, 539422, Note_on_c, 0, 75, 52
1, 539509, Note_off_c, 0, 75, 50
1, 539573, Note_on_c, 0, 78, 47
1, 539579, Note_on_c, 0, 59, 49
1, 539579, Note_off_c, 0, 66, 62
1, 539606, Note_on_c, 0, 69, 39
1, 539637, Note_on_c, 0, 63, 15
1, 539651, Note_off_c, 0, 69, 46
1, 539689, Note_off_c, 0, 78, 59
1, 539705, Note_off_c, 0, 63, 37
1, 539714, Note_on_c, 0, 75, 48
1, 539777, Note_on_c, 0, 66, 48
1, 539851, Note_off_c, 0, 75, 61
1, 539862, Note_off_c, 0, 59, 40
1, 539872, Note_on_c, 0, 69, 61
1, 539895, Note_on_c, 0, 63, 51
1, 539895, Note_off_c, 0, 66, 62
1, 539902, Note_off_c, 0, 69, 65
1, 539928, Note_off_c, 0, 63, 65
1, 540102, Note_on_c, 0, 59, 52
1, 540104, Note_on_c, 0, 64, 62
1, 540280, Note_on_c, 0, 63, 62
1, 540287, Note_off_c, 0, 64, 58
1, 540372, Note_on_c, 0, 57, 53
1, 540379, Note_off_c, 0, 59, 51
1, 540457, Note_on_c, 0, 62, 54
1, 540472, Note_off_c, 0, 63, 57
1, 540505, Control_c, 0, 64, 85
1, 540519, Control_c, 0, 64, 67
1, 540534, Control_c, 0, 64, 54
1, 540549, Control_c, 0, 64, 52
1, 540564, Control_c, 0, 64, 56
1, 540579, Control_c, 0, 64, 63
1, 540594, Control_c, 0, 64, 70
1, 540605, Note_on_c, 0, 54, 41
1, 540609, Control_c, 0, 64, 81
1, 540624, Control_c, 0, 64, 99
1, 540638, Control_c, 0, 64, 127
1, 540650, Note_off_c, 0, 57, 58
1, 540658, Note_on_c, 0, 63, 58
1, 540695, Note_off_c, 0, 62, 45
1, 540729, Note_off_c, 0, 54, 60
1, 540756, Note_off_c, 0, 63, 55
1, 541074, Note_on_c, 0, 64, 57
1, 541091, Control_c, 0, 64, 103
1, 541104, Note_on_c, 0, 60, 37
1, 541106, Control_c, 0, 64, 75
1, 541115, Note_on_c, 0, 52, 37
1, 541120, Note_on_c, 0, 45, 35
1, 541121, Control_c, 0, 64, 57
1, 541135, Control_c, 0, 64, 41
1, 541149, Control_c, 0, 64, 37
1, 541164, Control_c, 0, 64, 39
1, 541179, Control_c, 0, 64, 53
1, 541194, Control_c, 0, 64, 64
1, 541208, Control_c, 0, 64, 74
1, 541223, Control_c, 0, 64, 85
1, 541238, Control_c, 0, 64, 101
1, 541253, Control_c, 0, 64, 127
1, 541263, Note_off_c, 0, 60, 55
1, 541291, Note_off_c, 0, 64, 65
1, 541455, Note_off_c, 0, 45, 58
1, 541511, Note_off_c, 0, 52, 62
1, 541666, Note_on_c, 0, 91, 79
1, 541691, Note_on_c, 0, 79, 43
1, 541779, Note_off_c, 0, 79, 61
1, 541865, Note_on_c, 0, 60, 42
1, 541971, Note_off_c, 0, 60, 53
1, 541981, Note_off_c, 0, 91, 61
1, 541997, Note_on_c, 0, 64, 49
1, 542041, Note_off_c, 0, 64, 63
1, 542087, Note_on_c, 0, 69, 49
1, 542111, Note_off_c, 0, 69, 61
1, 542196, Note_on_c, 0, 72, 51
1, 542258, Note_off_c, 0, 72, 55
1, 542299, Note_on_c, 0, 76, 53
1, 542388, Note_off_c, 0, 76, 60
1, 542403, Note_on_c, 0, 69, 53
1, 542479, Note_off_c, 0, 69, 60
1, 542487, Note_on_c, 0, 72, 60
1, 542520, Note_off_c, 0, 72, 61
1, 542595, Note_on_c, 0, 90, 81
1, 542610, Note_on_c, 0, 78, 57
1, 542625, Note_on_c, 0, 81, 51
1, 542699, Note_off_c, 0, 81, 54
1, 542759, Note_off_c, 0, 90, 61
1, 542767, Note_on_c, 0, 76, 63
1, 542874, Note_off_c, 0, 78, 40
1, 542921, Note_off_c, 0, 76, 61
1, 542923, Note_on_c, 0, 72, 59
1, 542951, Note_off_c, 0, 72, 67
1, 543099, Note_on_c, 0, 88, 86
1, 543110, Note_on_c, 0, 66, 70
1, 543113, Note_on_c, 0, 76, 66
1, 543113, Control_c, 0, 67, 114
1, 543128, Control_c, 0, 67, 92
1, 543140, Note_off_c, 0, 76, 66
1, 543142, Note_off_c, 0, 66, 63
1, 543143, Control_c, 0, 67, 75
1, 543158, Control_c, 0, 67, 68
1, 543173, Control_c, 0, 67, 58
1, 543174, Note_off_c, 0, 88, 64
1, 543187, Control_c, 0, 67, 44
1, 543202, Control_c, 0, 67, 0
1, 543232, Control_c, 0, 67, 39
1, 543238, Note_on_c, 0, 64, 62
1, 543247, Control_c, 0, 67, 41
1, 543277, Control_c, 0, 67, 42
1, 543291, Control_c, 0, 67, 44
1, 543306, Control_c, 0, 67, 47
1, 543321, Control_c, 0, 67, 50
1, 543325, Note_on_c, 0, 63, 79
1, 543338, Note_off_c, 0, 64, 63
1, 543365, Control_c, 0, 67, 52
1, 543380, Control_c, 0, 67, 61
1, 543395, Control_c, 0, 67, 71
1, 543404, Note_off_c, 0, 63, 62
1, 543410, Control_c, 0, 67, 75
1, 543433, Note_on_c, 0, 64, 87
1, 543439, Control_c, 0, 67, 76
1, 543455, Control_c, 0, 67, 82
1, 543470, Control_c, 0, 67, 106
1, 543485, Control_c, 0, 67, 126
1, 543486, Note_off_c, 0, 64, 66
1, 543693, Note_on_c, 0, 86, 79
1, 543715, Note_on_c, 0, 74, 60
1, 543718, Note_on_c, 0, 50, 58
1, 543724, Note_on_c, 0, 66, 62
1, 543766, Control_c, 0, 64, 114
1, 543781, Control_c, 0, 64, 83
1, 543795, Control_c, 0, 64, 64
1, 543810, Control_c, 0, 64, 47
1, 543833, Control_c, 0, 64, 36
1, 543848, Control_c, 0, 64, 36
1, 543862, Control_c, 0, 64, 45
1, 543877, Control_c, 0, 64, 60
1, 543892, Control_c, 0, 64, 73
1, 543907, Control_c, 0, 64, 90
1, 543911, Note_off_c, 0, 66, 54
1, 543922, Control_c, 0, 64, 127
1, 543947, Note_on_c, 0, 54, 65
1, 543969, Note_off_c, 0, 74, 62
1, 543971, Note_off_c, 0, 50, 52
1, 543990, Note_off_c, 0, 86, 62
1, 544059, Note_off_c, 0, 54, 54
1, 544073, Note_on_c, 0, 57, 52
1, 544123, Note_off_c, 0, 57, 62
1, 544152, Note_on_c, 0, 62, 66
1, 544183, Note_off_c, 0, 62, 66
1, 544196, Note_on_c, 0, 84, 81
1, 544207, Note_on_c, 0, 72, 65
1, 544237, Note_off_c, 0, 72, 58
1, 544270, Note_on_c, 0, 66, 69
1, 544305, Note_off_c, 0, 84, 59
1, 544341, Note_off_c, 0, 66, 61
1, 544371, Note_on_c, 0, 69, 56
1, 544409, Note_off_c, 0, 69, 58
1, 544441, Note_on_c, 0, 62, 68
1, 544530, Note_on_c, 0, 66, 77
1, 544692, Note_on_c, 0, 83, 81
1, 544694, Note_on_c, 0, 74, 62
1, 544715, Note_on_c, 0, 71, 56
1, 544734, Note_off_c, 0, 66, 57
1, 544747, Note_off_c, 0, 71, 63
1, 544794, Note_off_c, 0, 74, 60
1, 544798, Note_off_c, 0, 83, 62
1, 544863, Note_on_c, 0, 69, 63
1, 544940, Note_off_c, 0, 62, 50
1, 544994, Note_off_c, 0, 69, 59
1, 544998, Note_on_c, 0, 66, 65
1, 545047, Note_off_c, 0, 66, 55
1, 545157, Note_on_c, 0, 81, 84
1, 545160, Note_on_c, 0, 67, 68
1, 545175, Note_on_c, 0, 69, 53
1, 545203, Note_off_c, 0, 69, 65
1, 545216, Note_off_c, 0, 67, 54
1, 545261, Note_off_c, 0, 81, 61
1, 545277, Note_on_c, 0, 66, 72
1, 545387, Note_off_c, 0, 66, 62
1, 545397, Note_on_c, 0, 65, 65
1, 545487, Note_off_c, 0, 65, 56
1, 545505, Note_on_c, 0, 66, 75
1, 545534, Note_off_c, 0, 66, 67
1, 545775, Control_c, 0, 64, 97
1, 545778, Note_on_c, 0, 79, 72
1, 545790, Control_c, 0, 64, 71
1, 545799, Note_on_c, 0, 40, 58
1, 545805, Control_c, 0, 64, 51
1, 545813, Note_on_c, 0, 67, 34
1, 545820, Control_c, 0, 64, 0
1, 545865, Control_c, 0, 64, 33
1, 545880, Control_c, 0, 64, 56
1, 545895, Control_c, 0, 64, 75
1, 545898, Note_off_c, 0, 40, 63
1, 545910, Control_c, 0, 64, 110
1, 545924, Control_c, 0, 64, 127
1, 546021, Note_off_c, 0, 67, 44
1, 546052, Note_on_c, 0, 55, 55
1, 546170, Note_off_c, 0, 55, 28
1, 546192, Note_on_c, 0, 59, 60
1, 546299, Note_off_c, 0, 59, 63
1, 546314, Note_off_c, 0, 79, 61
1, 546320, Note_on_c, 0, 64, 60
1, 546393, Note_off_c, 0, 64, 63
1, 546461, Note_on_c, 0, 67, 59
1, 546586, Note_on_c, 0, 71, 65
1, 546605, Note_off_c, 0, 67, 54
1, 546711, Note_off_c, 0, 71, 51
1, 546728, Note_on_c, 0, 59, 64
1, 546734, Note_on_c, 0, 76, 58
1, 546773, Note_off_c, 0, 59, 63
1, 546788, Note_off_c, 0, 76, 47
1, 546876, Note_on_c, 0, 71, 60
1, 547012, Note_on_c, 0, 67, 65
1, 547021, Control_c, 0, 67, 122
1, 547024, Note_off_c, 0, 71, 62
1, 547036, Control_c, 0, 67, 102
1, 547043, Note_off_c, 0, 67, 66
1, 547051, Control_c, 0, 67, 82
1, 547066, Control_c, 0, 67, 60
1, 547080, Control_c, 0, 67, 37
1, 547095, Control_c, 0, 67, 0
1, 547180, Note_on_c, 0, 69, 78
1, 547203, Note_on_c, 0, 64, 55
1, 547250, Note_off_c, 0, 64, 58
1, 547310, Note_off_c, 0, 69, 58
1, 547334, Note_on_c, 0, 67, 82
1, 547363, Note_on_c, 0, 59, 60
1, 547386, Note_off_c, 0, 67, 59
1, 547463, Note_on_c, 0, 66, 81
1, 547511, Note_on_c, 0, 55, 62
1, 547518, Note_off_c, 0, 59, 63
1, 547518, Note_off_c, 0, 66, 63
1, 547542, Note_off_c, 0, 55, 63
1, 547587, Note_on_c, 0, 67, 76
1, 547624, Note_off_c, 0, 67, 58
1, 547799, Control_c, 0, 67, 34
1, 547814, Control_c, 0, 67, 56
1, 547816, Note_on_c, 0, 68, 75
1, 547824, Note_on_c, 0, 38, 66
1, 547828, Control_c, 0, 64, 79
1, 547828, Control_c, 0, 67, 72
1, 547837, Note_on_c, 0, 64, 57
1, 547843, Control_c, 0, 64, 56
1, 547843, Control_c, 0, 67, 71
1, 547844, Note_on_c, 0, 59, 54
1, 547858, Control_c, 0, 64, 33
1, 547873, Control_c, 0, 67, 72
1, 547888, Control_c, 0, 64, 45
1, 547888, Control_c, 0, 67, 75
1, 547903, Control_c, 0, 64, 63
1, 547903, Control_c, 0, 67, 77
1, 547911, Note_off_c, 0, 38, 62
1, 547918, Control_c, 0, 64, 89
1, 547918, Control_c, 0, 67, 75
1, 547933, Control_c, 0, 64, 127
1, 547933, Control_c, 0, 67, 73
1, 547933, Note_off_c, 0, 59, 59
1, 547948, Control_c, 0, 67, 72
1, 547963, Control_c, 0, 67, 72
1, 547983, Note_off_c, 0, 64, 54
1, 547992, Control_c, 0, 67, 70
1, 548007, Control_c, 0, 67, 68
1, 548021, Control_c, 0, 67, 68
1, 548051, Control_c, 0, 67, 68
1, 548053, Note_on_c, 0, 56, 59
1, 548066, Control_c, 0, 67, 68
1, 548081, Control_c, 0, 67, 65
1, 548095, Control_c, 0, 67, 62
1, 548110, Control_c, 0, 67, 61
1, 548125, Control_c, 0, 67, 60
1, 548140, Control_c, 0, 67, 57
1, 548155, Control_c, 0, 67, 55
1, 548169, Control_c, 0, 67, 52
1, 548179, Note_on_c, 0, 59, 71
1, 548184, Control_c, 0, 67, 50
1, 548199, Control_c, 0, 67, 45
1, 548205, Note_off_c, 0, 68, 62
1, 548213, Control_c, 0, 67, 34
1, 548228, Control_c, 0, 67, 0
1, 548238, Note_off_c, 0, 56, 55
1, 548299, Note_off_c, 0, 59, 64
1, 548324, Note_on_c, 0, 64, 72
1, 548410, Note_off_c, 0, 64, 62
1, 548455, Note_on_c, 0, 68, 74
1, 548568, Note_on_c, 0, 71, 73
1, 548704, Note_off_c, 0, 71, 57
1, 548716, Note_off_c, 0, 68, 34
1, 548718, Note_on_c, 0, 56, 72
1, 548718, Note_on_c, 0, 76, 71
1, 548724, Note_on_c, 0, 59, 73
1, 548744, Note_off_c, 0, 56, 66
1, 548760, Note_off_c, 0, 59, 65
1, 548804, Note_off_c, 0, 76, 61
1, 548831, Note_on_c, 0, 71, 76
1, 548951, Note_on_c, 0, 68, 77
1, 548980, Note_off_c, 0, 71, 63
1, 549001, Note_off_c, 0, 68, 65
1, 549114, Note_on_c, 0, 69, 88
1, 549131, Note_on_c, 0, 64, 74
1, 549192, Note_off_c, 0, 64, 61
1, 549232, Note_off_c, 0, 69, 60
1, 549256, Note_on_c, 0, 68, 88
1, 549264, Note_on_c, 0, 59, 77
1, 549329, Note_off_c, 0, 68, 59
1, 549370, Note_on_c, 0, 67, 87
1, 549411, Note_on_c, 0, 56, 81
1, 549432, Note_off_c, 0, 59, 64
1, 549432, Note_off_c, 0, 67, 62
1, 549458, Note_off_c, 0, 56, 66
1, 549473, Note_on_c, 0, 68, 91
1, 549533, Note_off_c, 0, 68, 60
1, 549760, Note_on_c, 0, 69, 80
1, 549774, Note_on_c, 0, 36, 85
1, 549778, Note_on_c, 0, 64, 67
1, 549787, Control_c, 0, 64, 107
1, 549801, Control_c, 0, 64, 72
1, 549823, Control_c, 0, 64, 47
1, 549838, Control_c, 0, 64, 0
1, 549898, Control_c, 0, 64, 53
1, 549906, Note_off_c, 0, 64, 63
1, 549913, Control_c, 0, 64, 80
1, 549928, Control_c, 0, 64, 127
1, 549939, Note_off_c, 0, 69, 65
1, 550057, Poly_aftertouch_c, 0, 37, 127
1, 550121, Poly_aftertouch_c, 0, 37, 0
1, 550127, Note_off_c, 0, 36, 61
1, 550178, Note_on_c, 0, 88, 82
1, 550190, Note_on_c, 0, 76, 69
1, 550336, Note_on_c, 0, 52, 68
1, 550414, Note_on_c, 0, 57, 78
1, 550416, Note_off_c, 0, 52, 61
1, 550466, Note_off_c, 0, 57, 64
1, 550484, Note_on_c, 0, 60, 67
1, 550511, Note_off_c, 0, 60, 67
1, 550557, Note_on_c, 0, 64, 74
1, 550574, Note_off_c, 0, 88, 60
1, 550592, Note_off_c, 0, 76, 62
1, 550638, Note_on_c, 0, 69, 84
1, 550650, Note_off_c, 0, 64, 64
1, 550718, Note_off_c, 0, 69, 60
1, 550718, Note_on_c, 0, 64, 92
1, 550810, Note_on_c, 0, 69, 90
1, 550949, Note_on_c, 0, 86, 92
1, 550954, Note_on_c, 0, 74, 84
1, 550961, Note_on_c, 0, 76, 83
1, 550961, Note_off_c, 0, 69, 60
1, 550999, Note_off_c, 0, 74, 62
1, 551034, Note_off_c, 0, 86, 59
1, 551048, Note_off_c, 0, 76, 60
1, 551098, Note_on_c, 0, 72, 86
1, 551176, Note_off_c, 0, 64, 62
1, 551231, Note_on_c, 0, 69, 85
1, 551240, Note_off_c, 0, 72, 56
1, 551285, Note_off_c, 0, 69, 64
1, 551364, Note_on_c, 0, 71, 85
1, 551377, Note_on_c, 0, 84, 85
1, 551378, Note_on_c, 0, 72, 81
1, 551418, Note_off_c, 0, 71, 62
1, 551420, Note_off_c, 0, 72, 64
1, 551438, Note_off_c, 0, 84, 65
1, 551458, Note_on_c, 0, 69, 94
1, 551538, Note_off_c, 0, 69, 55
1, 551541, Note_on_c, 0, 68, 86
1, 551604, Note_on_c, 0, 67, 22
1, 551616, Note_on_c, 0, 69, 93
1, 551617, Control_c, 0, 67, 37
1, 551620, Note_off_c, 0, 68, 64
1, 551633, Control_c, 0, 67, 44
1, 551646, Note_off_c, 0, 69, 66
1, 551647, Note_off_c, 0, 67, 54
1, 551648, Control_c, 0, 67, 47
1, 551663, Control_c, 0, 67, 49
1, 551677, Control_c, 0, 67, 56
1, 551692, Control_c, 0, 67, 66
1, 551707, Control_c, 0, 67, 72
1, 551737, Control_c, 0, 67, 71
1, 551751, Control_c, 0, 67, 71
1, 551766, Control_c, 0, 67, 72
1, 551781, Control_c, 0, 67, 75
1, 551796, Control_c, 0, 67, 79
1, 551811, Control_c, 0, 67, 102
1, 551826, Control_c, 0, 67, 121
1, 551841, Control_c, 0, 64, 103
1, 551841, Control_c, 0, 67, 127
1, 551847, Note_on_c, 0, 38, 76
1, 551850, Note_on_c, 0, 83, 90
1, 551856, Control_c, 0, 64, 69
1, 551863, Note_on_c, 0, 74, 79
1, 551865, Note_on_c, 0, 71, 75
1, 551870, Control_c, 0, 64, 45
1, 551885, Control_c, 0, 64, 0
1, 551900, Control_c, 0, 64, 39
1, 551915, Control_c, 0, 64, 60
1, 551930, Control_c, 0, 64, 83
1, 551940, Note_off_c, 0, 38, 62
1, 551944, Control_c, 0, 64, 127
1, 551944, Control_c, 0, 67, 124
1, 551959, Control_c, 0, 67, 119
1, 551974, Control_c, 0, 67, 116
1, 551985, Note_off_c, 0, 71, 59
1, 552005, Note_off_c, 0, 83, 56
1, 552018, Control_c, 0, 67, 114
1, 552033, Control_c, 0, 67, 110
1, 552048, Control_c, 0, 67, 107
1, 552055, Note_on_c, 0, 54, 69
1, 552055, Note_off_c, 0, 74, 61
1, 552070, Control_c, 0, 67, 104
1, 552085, Control_c, 0, 67, 97
1, 552100, Control_c, 0, 67, 84
1, 552115, Control_c, 0, 67, 61
1, 552130, Control_c, 0, 67, 44
1, 552139, Note_on_c, 0, 57, 83
1, 552144, Control_c, 0, 67, 0
1, 552151, Note_off_c, 0, 54, 51
1, 552186, Note_off_c, 0, 57, 65
1, 552214, Note_on_c, 0, 62, 76
1, 552231, Note_on_c, 0, 81, 93
1, 552240, Note_on_c, 0, 69, 70
1, 552246, Note_on_c, 0, 74, 66
1, 552252, Note_off_c, 0, 62, 60
1, 552264, Note_off_c, 0, 74, 66
1, 552265, Note_off_c, 0, 69, 69
1, 552291, Note_off_c, 0, 81, 62
1, 552306, Note_on_c, 0, 65, 60
1, 552354, Note_off_c, 0, 65, 62
1, 552362, Note_on_c, 0, 69, 67
1, 552387, Note_on_c, 0, 67, 52
1, 552412, Note_off_c, 0, 67, 58
1, 552416, Note_off_c, 0, 69, 46
1, 552424, Note_on_c, 0, 62, 88
1, 552489, Note_on_c, 0, 66, 85
1, 552550, Note_on_c, 0, 69, 71
1, 552629, Note_off_c, 0, 62, 58
1, 552632, Note_on_c, 0, 79, 96
1, 552643, Note_on_c, 0, 74, 96
1, 552646, Note_off_c, 0, 66, 64
1, 552657, Note_off_c, 0, 69, 60
1, 552678, Note_off_c, 0, 79, 65
1, 552794, Note_off_c, 0, 74, 68
1, 552804, Note_on_c, 0, 72, 91
1, 552956, Note_on_c, 0, 69, 86
1, 552972, Note_off_c, 0, 72, 65
1, 553000, Note_off_c, 0, 69, 67
1, 553126, Note_on_c, 0, 78, 84
1, 553130, Note_on_c, 0, 66, 90
1, 553134, Note_on_c, 0, 76, 81
1, 553163, Note_on_c, 0, 62, 61
1, 553235, Note_off_c, 0, 66, 60
1, 553254, Note_off_c, 0, 76, 61
1, 553258, Note_off_c, 0, 78, 58
1, 553281, Note_off_c, 0, 62, 57
1, 553290, Note_on_c, 0, 74, 91
1, 553359, Note_on_c, 0, 60, 73
1, 553381, Note_off_c, 0, 74, 61
1, 553418, Note_on_c, 0, 73, 90
1, 553477, Note_on_c, 0, 57, 72
1, 553477, Note_off_c, 0, 60, 64
1, 553492, Note_off_c, 0, 73, 59
1, 553501, Note_off_c, 0, 57, 68
1, 553540, Note_on_c, 0, 74, 96
1, 553632, Note_off_c, 0, 74, 59
1, 553828, Note_on_c, 0, 74, 82
1, 553829, Note_on_c, 0, 79, 84
1, 553835, Control_c, 0, 64, 75
1, 553838, Note_on_c, 0, 71, 73
1, 553839, Note_on_c, 0, 67, 74
1, 553847, Note_on_c, 0, 59, 65
1, 553847, Note_on_c, 0, 43, 56
1, 553850, Control_c, 0, 64, 49
1, 553854, Note_on_c, 0, 50, 55
1, 553865, Control_c, 0, 64, 0
1, 553895, Control_c, 0, 64, 30
1, 553909, Control_c, 0, 64, 56
1, 553924, Control_c, 0, 64, 77
1, 553939, Control_c, 0, 64, 127
1, 553959, Note_off_c, 0, 74, 65
1, 553960, Note_off_c, 0, 79, 63
1, 553969, Control_c, 0, 67, 47
1, 553983, Note_off_c, 0, 71, 62
1, 553984, Control_c, 0, 67, 64
1, 553991, Note_off_c, 0, 67, 62
1, 553998, Control_c, 0, 67, 65
1, 554013, Control_c, 0, 67, 67
1, 554028, Control_c, 0, 67, 72
1, 554043, Control_c, 0, 67, 89
1, 554058, Control_c, 0, 67, 114
1, 554072, Control_c, 0, 67, 127
1, 554101, Note_off_c, 0, 59, 52
1, 554112, Note_on_c, 0, 71, 76
1, 554127, Note_on_c, 0, 62, 65
1, 554129, Note_on_c, 0, 67, 55
1, 554154, Note_off_c, 0, 67, 63
1, 554159, Note_off_c, 0, 62, 61
1, 554179, Note_off_c, 0, 71, 61
1, 554258, Note_on_c, 0, 67, 65
1, 554263, Note_on_c, 0, 74, 75
1, 554264, Note_on_c, 0, 71, 65
1, 554284, Note_off_c, 0, 67, 69
1, 554294, Note_off_c, 0, 71, 64
1, 554318, Note_off_c, 0, 74, 64
1, 554401, Note_off_c, 0, 43, 61
1, 554418, Note_on_c, 0, 79, 52
1, 554420, Note_off_c, 0, 50, 63
1, 554434, Note_on_c, 0, 71, 37
1, 554436, Note_on_c, 0, 74, 37
1, 554452, Note_off_c, 0, 79, 65
1, 554463, Note_off_c, 0, 74, 55
1, 554466, Note_off_c, 0, 71, 48
1, 554526, Note_on_c, 0, 79, 73
1, 554530, Note_on_c, 0, 83, 75
1, 554534, Note_on_c, 0, 74, 74
1, 554556, Note_off_c, 0, 74, 66
1, 554558, Note_off_c, 0, 79, 57
1, 554580, Note_off_c, 0, 83, 63
1, 554670, Note_on_c, 0, 86, 77
1, 554687, Note_on_c, 0, 83, 55
1, 554690, Note_on_c, 0, 62, 62
1, 554690, Note_on_c, 0, 59, 56
1, 554702, Note_off_c, 0, 86, 57
1, 554707, Note_off_c, 0, 83, 60
1, 554756, Note_on_c, 0, 67, 80
1, 554791, Note_on_c, 0, 91, 85
1, 554793, Note_on_c, 0, 86, 84
1, 554794, Note_on_c, 0, 83, 73
1, 554804, Note_on_c, 0, 71, 94
1, 554834, Note_off_c, 0, 83, 65
1, 554837, Note_off_c, 0, 86, 64
1, 554857, Note_off_c, 0, 91, 65
1, 554890, Note_off_c, 0, 71, 59
1, 554909, Note_on_c, 0, 79, 72
1, 554909, Note_on_c, 0, 83, 79
1, 554917, Note_on_c, 0, 86, 67
1, 554931, Note_off_c, 0, 83, 66
1, 554932, Note_off_c, 0, 86, 67
1, 554935, Note_off_c, 0, 79, 66
1, 555021, Note_off_c, 0, 67, 67
1, 555032, Note_off_c, 0, 59, 60
1, 555040, Note_on_c, 0, 83, 71
1, 555062, Note_on_c, 0, 79, 58
1, 555073, Note_on_c, 0, 74, 67
1, 555086, Note_off_c, 0, 62, 64
1, 555090, Note_off_c, 0, 74, 65
1, 555091, Note_off_c, 0, 79, 67
1, 555102, Note_off_c, 0, 83, 63
1, 555173, Note_on_c, 0, 79, 70
1, 555176, Note_on_c, 0, 74, 70
1, 555181, Note_on_c, 0, 71, 81
1, 555201, Note_off_c, 0, 74, 69
1, 555201, Note_off_c, 0, 79, 64
1, 555206, Note_off_c, 0, 71, 64
1, 555265, Poly_aftertouch_c, 0, 83, 0
1, 555305, Note_on_c, 0, 74, 78
1, 555338, Note_on_c, 0, 71, 39
1, 555340, Note_on_c, 0, 67, 49
1, 555364, Note_off_c, 0, 67, 58
1, 555371, Note_off_c, 0, 74, 60
1, 555373, Note_off_c, 0, 71, 49
1, 555433, Note_on_c, 0, 67, 68
1, 555439, Note_on_c, 0, 71, 73
1, 555445, Note_on_c, 0, 40, 73
1, 555459, Note_off_c, 0, 67, 64
1, 555464, Note_on_c, 0, 62, 30
1, 555500, Note_on_c, 0, 47, 83
1, 555503, Note_off_c, 0, 62, 53
1, 555513, Note_off_c, 0, 71, 58
1, 555554, Control_c, 0, 64, 96
1, 555569, Control_c, 0, 64, 63
1, 555579, Note_on_c, 0, 55, 90
1, 555584, Control_c, 0, 64, 38
1, 555589, Note_on_c, 0, 67, 86
1, 555599, Control_c, 0, 64, 39
1, 555600, Poly_aftertouch_c, 0, 45, 0
1, 555614, Control_c, 0, 64, 58
1, 555628, Control_c, 0, 64, 82
1, 555628, Control_c, 0, 67, 121
1, 555642, Note_off_c, 0, 67, 63
1, 555643, Control_c, 0, 64, 127
1, 555643, Control_c, 0, 67, 92
1, 555658, Control_c, 0, 67, 57
1, 555673, Control_c, 0, 67, 0
1, 555713, Note_on_c, 0, 71, 77
1, 555721, Note_on_c, 0, 64, 75
1, 555727, Note_on_c, 0, 67, 61
1, 555727, Note_off_c, 0, 40, 60
1, 555751, Note_off_c, 0, 67, 67
1, 555761, Note_off_c, 0, 64, 61
1, 555777, Note_off_c, 0, 71, 62
1, 555779, Note_off_c, 0, 47, 63
1, 555841, Note_on_c, 0, 76, 82
1, 555857, Note_on_c, 0, 67, 51
1, 555879, Note_off_c, 0, 67, 61
1, 555882, Note_off_c, 0, 76, 64
1, 555895, Poly_aftertouch_c, 0, 71, 127
1, 555930, Poly_aftertouch_c, 0, 71, 0
1, 555967, Note_on_c, 0, 79, 75
1, 555982, Note_on_c, 0, 76, 65
1, 555984, Note_on_c, 0, 71, 58
1, 556010, Note_off_c, 0, 76, 66
1, 556014, Note_off_c, 0, 71, 65
1, 556025, Note_off_c, 0, 79, 64
1, 556091, Note_on_c, 0, 83, 79
1, 556094, Note_on_c, 0, 76, 62
1, 556108, Note_on_c, 0, 79, 41
1, 556118, Note_off_c, 0, 76, 66
1, 556133, Note_off_c, 0, 79, 59
1, 556136, Note_off_c, 0, 83, 64
1, 556239, Note_on_c, 0, 88, 81
1, 556254, Note_on_c, 0, 83, 56
1, 556268, Note_on_c, 0, 59, 60
1, 556275, Note_off_c, 0, 83, 60
1, 556285, Note_off_c, 0, 88, 65
1, 556329, Note_on_c, 0, 64, 86
1, 556357, Note_on_c, 0, 91, 85
1, 556363, Note_on_c, 0, 83, 75
1, 556375, Note_on_c, 0, 88, 67
1, 556393, Note_on_c, 0, 67, 85
1, 556399, Note_off_c, 0, 88, 70
1, 556412, Note_off_c, 0, 83, 65
1, 556428, Note_off_c, 0, 91, 65
1, 556485, Note_on_c, 0, 88, 80
1, 556490, Note_on_c, 0, 83, 83
1, 556493, Note_on_c, 0, 79, 80
1, 556510, Note_off_c, 0, 83, 67
1, 556520, Note_off_c, 0, 79, 65
1, 556527, Note_off_c, 0, 88, 65
1, 556621, Note_on_c, 0, 83, 85
1, 556636, Note_on_c, 0, 76, 83
1, 556639, Note_on_c, 0, 79, 67
1, 556659, Note_off_c, 0, 67, 55
1, 556667, Note_off_c, 0, 79, 65
1, 556676, Note_off_c, 0, 76, 62
1, 556690, Note_off_c, 0, 83, 63
1, 556753, Note_on_c, 0, 79, 76
1, 556756, Note_on_c, 0, 76, 82
1, 556758, Note_on_c, 0, 83, 64
1, 556768, Note_on_c, 0, 71, 78
1, 556780, Note_off_c, 0, 83, 69
1, 556789, Note_off_c, 0, 76, 59
1, 556790, Note_off_c, 0, 71, 67
1, 556798, Note_off_c, 0, 79, 65
1, 556836, Note_off_c, 0, 64, 65
1, 556863, Note_off_c, 0, 59, 64
1, 556872, Note_off_c, 0, 55, 63
1, 556887, Note_on_c, 0, 76, 80
1, 556899, Note_on_c, 0, 67, 81
1, 556900, Note_on_c, 0, 71, 71
1, 556929, Note_off_c, 0, 71, 60
1, 556939, Note_off_c, 0, 76, 60
1, 556941, Note_off_c, 0, 67, 64
1, 557003, Note_on_c, 0, 64, 93
1, 557004, Note_on_c, 0, 71, 82
1, 557008, Note_on_c, 0, 67, 72
1, 557024, Note_off_c, 0, 67, 70
1, 557031, Note_off_c, 0, 64, 65
1, 557036, Note_off_c, 0, 71, 57
1, 557043, Note_on_c, 0, 70, 17
1, 557043, Note_off_c, 0, 70, 127
1, 557084, Poly_aftertouch_c, 0, 70, 0
1, 557086, Note_on_c, 0, 36, 77
1, 557152, Note_on_c, 0, 45, 81
1, 557177, Note_on_c, 0, 61, 34
1, 557212, Note_off_c, 0, 61, 54
1, 557262, Note_on_c, 0, 64, 88
1, 557264, Note_on_c, 0, 57, 84
1, 557266, Note_on_c, 0, 52, 91
1, 557272, Note_on_c, 0, 60, 72
1, 557275, Control_c, 0, 64, 79
1, 557289, Control_c, 0, 64, 50
1, 557311, Control_c, 0, 64, 0
1, 557327, Note_off_c, 0, 52, 62
1, 557340, Control_c, 0, 64, 57
1, 557355, Control_c, 0, 64, 96
1, 557367, Note_off_c, 0, 57, 64
1, 557368, Note_off_c, 0, 60, 60
1, 557370, Control_c, 0, 64, 127
1, 557397, Note_off_c, 0, 64, 67
1, 557422, Note_off_c, 0, 45, 65
1, 557445, Note_off_c, 0, 36, 65
1, 557583, Note_on_c, 0, 79, 94
1, 557585, Note_on_c, 0, 67, 90
1, 557620, Note_off_c, 0, 67, 62
1, 557624, Note_off_c, 0, 79, 64
1, 557825, Note_on_c, 0, 72, 81
1, 557832, Note_on_c, 0, 69, 77
1, 557876, Note_off_c, 0, 69, 55
1, 557880, Note_off_c, 0, 72, 62
1, 557948, Note_on_c, 0, 76, 76
1, 557953, Note_on_c, 0, 69, 80
1, 557959, Note_on_c, 0, 72, 65
1, 557991, Note_off_c, 0, 72, 61
1, 557999, Note_off_c, 0, 69, 59
1, 558014, Note_off_c, 0, 76, 63
1, 558073, Note_on_c, 0, 79, 92
1, 558085, Note_on_c, 0, 76, 57
1, 558100, Note_on_c, 0, 72, 41
1, 558103, Note_off_c, 0, 76, 64
1, 558117, Note_off_c, 0, 79, 69
1, 558132, Note_off_c, 0, 72, 36
1, 558172, Poly_aftertouch_c, 0, 77, 0
1, 558211, Note_on_c, 0, 84, 85
1, 558216, Note_on_c, 0, 81, 72
1, 558239, Note_off_c, 0, 81, 66
1, 558245, Note_off_c, 0, 84, 61
1, 558352, Note_on_c, 0, 88, 75
1, 558360, Note_on_c, 0, 84, 53
1, 558384, Note_off_c, 0, 84, 59
1, 558452, Note_off_c, 0, 88, 62
1, 558559, Note_on_c, 0, 78, 99
1, 558568, Note_on_c, 0, 72, 80
1, 558573, Note_on_c, 0, 91, 75
1, 558578, Note_on_c, 0, 66, 83
1, 558642, Note_off_c, 0, 91, 63
1, 558650, Poly_aftertouch_c, 0, 69, 127
1, 558686, Note_off_c, 0, 78, 57
1, 558708, Note_off_c, 0, 72, 59
1, 558720, Note_on_c, 0, 88, 73
1, 558730, Note_on_c, 0, 84, 63
1, 558730, Poly_aftertouch_c, 0, 69, 0
1, 558733, Note_off_c, 0, 66, 62
1, 558758, Note_off_c, 0, 84, 66
1, 558772, Note_off_c, 0, 88, 65
1, 558850, Note_on_c, 0, 84, 80
1, 558855, Note_on_c, 0, 81, 72
1, 558873, Note_off_c, 0, 84, 65
1, 558881, Note_off_c, 0, 81, 67
1, 558964, Note_on_c, 0, 76, 95
1, 558968, Note_on_c, 0, 64, 87
1, 558979, Note_off_c, 0, 76, 75
1, 558995, Note_on_c, 0, 79, 71
1, 558996, Note_on_c, 0, 81, 71
1, 559007, Note_off_c, 0, 64, 68
1, 559022, Note_off_c, 0, 81, 63
1, 559047, Note_off_c, 0, 79, 61
1, 559107, Note_on_c, 0, 76, 82
1, 559150, Note_off_c, 0, 76, 61
1, 559216, Note_on_c, 0, 72, 76
1, 559237, Note_off_c, 0, 72, 70
1, 559239, Note_on_c, 0, 69, 55
1, 559260, Note_off_c, 0, 69, 60
1, 559275, Note_on_c, 0, 38, 78
1, 559392, Note_on_c, 0, 45, 61
1, 559441, Note_on_c, 0, 74, 90
1, 559448, Control_c, 0, 64, 97
1, 559463, Control_c, 0, 64, 66
1, 559477, Control_c, 0, 64, 39
1, 559492, Control_c, 0, 64, 0
1, 559499, Note_on_c, 0, 62, 27
1, 559507, Control_c, 0, 64, 29
1, 559514, Note_on_c, 0, 54, 62
1, 559522, Control_c, 0, 64, 52
1, 559536, Control_c, 0, 64, 72
1, 559537, Note_off_c, 0, 38, 56
1, 559558, Control_c, 0, 64, 127
1, 559587, Note_off_c, 0, 45, 62
1, 559598, Note_off_c, 0, 74, 55
1, 559608, Note_off_c, 0, 62, 44
1, 559609, Note_off_c, 0, 54, 61
1, 559650, Note_on_c, 0, 66, 68
1, 559666, Note_on_c, 0, 62, 46
1, 559680, Note_off_c, 0, 66, 64
1, 559694, Note_off_c, 0, 62, 56
1, 559783, Note_on_c, 0, 69, 62
1, 559864, Poly_aftertouch_c, 0, 66, 0
1, 559877, Note_off_c, 0, 69, 59
1, 559911, Note_on_c, 0, 74, 60
1, 559931, Note_off_c, 0, 74, 64
1, 559937, Note_on_c, 0, 60, 50
1, 559939, Note_on_c, 0, 72, 92
1, 560078, Note_on_c, 0, 78, 67
1, 560133, Note_off_c, 0, 78, 52
1, 560224, Note_on_c, 0, 81, 60
1, 560272, Note_off_c, 0, 81, 56
1, 560375, Note_on_c, 0, 86, 71
1, 560376, Note_on_c, 0, 66, 58
1, 560384, Note_on_c, 0, 62, 54
1, 560428, Note_off_c, 0, 86, 59
1, 560461, Note_off_c, 0, 72, 51
1, 560535, Note_on_c, 0, 81, 57
1, 560541, Note_on_c, 0, 78, 47
1, 560561, Note_off_c, 0, 60, 60
1, 560570, Note_off_c, 0, 78, 58
1, 560570, Note_off_c, 0, 81, 64
1, 560648, Control_c, 0, 67, 37
1, 560657, Note_on_c, 0, 78, 64
1, 560663, Control_c, 0, 67, 52
1, 560677, Control_c, 0, 67, 54
1, 560681, Note_on_c, 0, 74, 55
1, 560692, Control_c, 0, 67, 55
1, 560707, Control_c, 0, 67, 57
1, 560712, Note_off_c, 0, 74, 54
1, 560714, Note_off_c, 0, 78, 53
1, 560722, Control_c, 0, 67, 59
1, 560737, Control_c, 0, 67, 68
1, 560751, Control_c, 0, 67, 75
1, 560766, Control_c, 0, 67, 75
1, 560781, Control_c, 0, 67, 76
1, 560796, Control_c, 0, 67, 78
1, 560811, Control_c, 0, 67, 79
1, 560825, Control_c, 0, 67, 80
1, 560828, Note_on_c, 0, 78, 65
1, 560832, Note_on_c, 0, 71, 94
1, 560840, Note_on_c, 0, 59, 78
1, 560840, Control_c, 0, 67, 86
1, 560848, Note_on_c, 0, 74, 58
1, 560855, Control_c, 0, 67, 100
1, 560870, Control_c, 0, 67, 118
1, 560877, Note_off_c, 0, 78, 56
1, 560878, Note_off_c, 0, 74, 66
1, 560885, Control_c, 0, 67, 127
1, 560922, Note_off_c, 0, 66, 53
1, 560935, Note_off_c, 0, 59, 60
1, 560942, Note_off_c, 0, 62, 44
1, 560945, Note_off_c, 0, 71, 58
1, 560980, Note_on_c, 0, 74, 79
1, 561031, Note_off_c, 0, 74, 64
1, 561061, Note_on_c, 0, 69, 87
1, 561070, Note_on_c, 0, 57, 78
1, 561096, Note_off_c, 0, 69, 67
1, 561115, Note_off_c, 0, 57, 62
1, 561164, Note_on_c, 0, 66, 84
1, 561201, Note_off_c, 0, 66, 61
1, 561418, Note_on_c, 0, 67, 86
1, 561427, Control_c, 0, 64, 103
1, 561430, Note_on_c, 0, 62, 71
1, 561438, Note_on_c, 0, 43, 59
1, 561439, Note_on_c, 0, 50, 57
1, 561440, Note_on_c, 0, 55, 57
1, 561440, Note_on_c, 0, 59, 64
1, 561442, Control_c, 0, 64, 69
1, 561456, Control_c, 0, 64, 40
1, 561471, Control_c, 0, 64, 0
1, 561515, Control_c, 0, 64, 48
1, 561519, Note_off_c, 0, 62, 62
1, 561520, Note_off_c, 0, 59, 60
1, 561530, Control_c, 0, 64, 68
1, 561545, Control_c, 0, 64, 89
1, 561551, Note_off_c, 0, 67, 64
1, 561560, Control_c, 0, 64, 127
1, 561645, Note_on_c, 0, 71, 67
1, 561651, Note_on_c, 0, 62, 52
1, 561663, Note_on_c, 0, 67, 38
1, 561673, Note_off_c, 0, 62, 60
1, 561683, Note_off_c, 0, 71, 57
1, 561693, Note_off_c, 0, 67, 55
1, 561767, Note_on_c, 0, 74, 61
1, 561770, Note_on_c, 0, 67, 56
1, 561792, Note_off_c, 0, 67, 61
1, 561805, Note_off_c, 0, 43, 62
1, 561812, Note_off_c, 0, 74, 64
1, 561836, Note_off_c, 0, 55, 59
1, 561842, Note_off_c, 0, 50, 63
1, 561917, Note_on_c, 0, 79, 56
1, 561933, Note_on_c, 0, 74, 41
1, 561937, Note_on_c, 0, 71, 42
1, 561943, Note_off_c, 0, 79, 60
1, 561962, Note_off_c, 0, 74, 50
1, 561964, Note_off_c, 0, 71, 54
1, 562026, Note_on_c, 0, 83, 74
1, 562034, Note_on_c, 0, 79, 39
1, 562047, Note_on_c, 0, 74, 46
1, 562063, Note_off_c, 0, 79, 55
1, 562071, Note_off_c, 0, 74, 58
1, 562074, Note_off_c, 0, 83, 64
1, 562161, Note_on_c, 0, 86, 75
1, 562190, Note_on_c, 0, 62, 53
1, 562192, Note_on_c, 0, 59, 53
1, 562202, Note_off_c, 0, 86, 58
1, 562240, Note_on_c, 0, 67, 62
1, 562255, Poly_aftertouch_c, 0, 83, 0
1, 562283, Note_on_c, 0, 91, 77
1, 562303, Note_on_c, 0, 86, 61
1, 562307, Note_on_c, 0, 71, 78
1, 562316, Note_on_c, 0, 83, 42
1, 562325, Note_off_c, 0, 86, 65
1, 562342, Note_off_c, 0, 83, 53
1, 562345, Note_off_c, 0, 91, 62
1, 562382, Note_off_c, 0, 71, 57
1, 562398, Note_on_c, 0, 86, 74
1, 562405, Note_on_c, 0, 83, 77
1, 562408, Note_on_c, 0, 79, 69
1, 562421, Note_off_c, 0, 86, 68
1, 562427, Note_off_c, 0, 83, 69
1, 562432, Note_off_c, 0, 79, 68
1, 562527, Note_on_c, 0, 83, 75
1, 562529, Note_off_c, 0, 59, 34
1, 562532, Note_off_c, 0, 67, 64
1, 562551, Note_on_c, 0, 79, 55
1, 562568, Note_on_c, 0, 74, 49
1, 562570, Note_off_c, 0, 79, 64
1, 562584, Note_off_c, 0, 62, 64
1, 562587, Note_off_c, 0, 83, 62
1, 562593, Note_off_c, 0, 74, 57
1, 562657, Note_on_c, 0, 79, 55
1, 562667, Note_on_c, 0, 74, 73
1, 562685, Note_on_c, 0, 71, 57
1, 562687, Note_off_c, 0, 79, 66
1, 562691, Note_off_c, 0, 74, 68
1, 562704, Note_off_c, 0, 71, 64
1, 562740, Poly_aftertouch_c, 0, 83, 0
1, 562800, Note_on_c, 0, 74, 57
1, 562809, Note_on_c, 0, 71, 41
1, 562844, Note_on_c, 0, 67, 29
1, 562878, Note_off_c, 0, 67, 55
1, 562879, Note_off_c, 0, 74, 59
1, 562885, Note_off_c, 0, 71, 38
1, 562947, Note_on_c, 0, 43, 51
1, 562951, Note_on_c, 0, 71, 37
1, 562971, Note_on_c, 0, 62, 41
1, 562989, Note_on_c, 0, 67, 24
1, 562998, Note_on_c, 0, 50, 49
1, 563010, Note_off_c, 0, 62, 48
1, 563027, Note_off_c, 0, 67, 54
1, 563046, Note_off_c, 0, 71, 50
1, 563123, Note_on_c, 0, 57, 57
1, 563150, Note_on_c, 0, 62, 59
1, 563162, Control_c, 0, 64, 90
1, 563177, Control_c, 0, 64, 69
1, 563192, Control_c, 0, 64, 57
1, 563208, Note_off_c, 0, 62, 56
1, 563221, Control_c, 0, 64, 65
1, 563236, Control_c, 0, 64, 78
1, 563251, Control_c, 0, 64, 127
1, 563276, Note_on_c, 0, 66, 70
1, 563285, Note_on_c, 0, 62, 47
1, 563333, Note_off_c, 0, 62, 60
1, 563341, Note_off_c, 0, 66, 63
1, 563419, Note_on_c, 0, 62, 58
1, 563421, Note_on_c, 0, 69, 60
1, 563430, Note_on_c, 0, 66, 34
1, 563442, Note_off_c, 0, 43, 54
1, 563457, Note_off_c, 0, 62, 62
1, 563463, Note_off_c, 0, 66, 53
1, 563478, Note_off_c, 0, 69, 60
1, 563485, Note_off_c, 0, 57, 59
1, 563516, Note_off_c, 0, 50, 62
1, 563531, Note_on_c, 0, 74, 77
1, 563534, Note_on_c, 0, 66, 64
1, 563550, Note_off_c, 0, 66, 68
1, 563576, Note_off_c, 0, 74, 64
1, 563654, Note_on_c, 0, 78, 75
1, 563665, Note_on_c, 0, 74, 53
1, 563687, Note_off_c, 0, 74, 61
1, 563689, Note_off_c, 0, 78, 51
1, 563773, Note_on_c, 0, 81, 73
1, 563785, Note_on_c, 0, 78, 54
1, 563807, Note_off_c, 0, 78, 60
1, 563869, Note_off_c, 0, 81, 53
1, 563935, Note_on_c, 0, 72, 95
1, 563946, Note_on_c, 0, 62, 63
1, 563949, Note_on_c, 0, 60, 70
1, 563960, Note_on_c, 0, 86, 76
1, 563963, Note_on_c, 0, 66, 55
1, 564017, Note_off_c, 0, 66, 0
1, 564029, Note_off_c, 0, 86, 61
1, 564036, Note_on_c, 0, 66, 46
1, 564041, Poly_aftertouch_c, 0, 81, 127
1, 564058, Note_off_c, 0, 72, 66
1, 564072, Poly_aftertouch_c, 0, 81, 0
1, 564073, Note_off_c, 0, 60, 61
1, 564095, Note_on_c, 0, 81, 42
1, 564112, Note_off_c, 0, 66, 62
1, 564130, Note_on_c, 0, 78, 28
1, 564133, Note_off_c, 0, 62, 52
1, 564156, Note_off_c, 0, 81, 61
1, 564165, Note_off_c, 0, 78, 44
1, 564220, Note_on_c, 0, 78, 69
1, 564236, Note_on_c, 0, 74, 52
1, 564254, Note_off_c, 0, 78, 57
1, 564259, Note_off_c, 0, 74, 61
1, 564320, Note_on_c, 0, 71, 101
1, 564326, Note_on_c, 0, 59, 77
1, 564339, Note_on_c, 0, 78, 80
1, 564340, Note_on_c, 0, 74, 76
1, 564345, Note_off_c, 0, 71, 67
1, 564353, Note_off_c, 0, 59, 67
1, 564359, Note_off_c, 0, 78, 68
1, 564366, Note_off_c, 0, 74, 67
1, 564477, Note_on_c, 0, 72, 66
1, 564521, Note_off_c, 0, 72, 58
1, 564593, Note_on_c, 0, 66, 47
1, 564617, Note_on_c, 0, 62, 30
1, 564619, Note_off_c, 0, 66, 57
1, 564653, Note_off_c, 0, 62, 54
1, 564757, Note_on_c, 0, 67, 82
1, 564777, Note_on_c, 0, 62, 51
1, 564778, Note_on_c, 0, 55, 55
1, 564778, Control_c, 0, 64, 108
1, 564779, Note_on_c, 0, 43, 52
1, 564787, Note_on_c, 0, 50, 51
1, 564800, Control_c, 0, 64, 73
1, 564815, Control_c, 0, 64, 54
1, 564830, Control_c, 0, 64, 44
1, 564845, Control_c, 0, 64, 49
1, 564849, Poly_aftertouch_c, 0, 59, 127
1, 564859, Control_c, 0, 64, 64
1, 564873, Note_off_c, 0, 62, 57
1, 564874, Control_c, 0, 64, 83
1, 564885, Poly_aftertouch_c, 0, 59, 0
1, 564889, Control_c, 0, 64, 127
1, 564892, Note_off_c, 0, 67, 63
1, 564989, Note_on_c, 0, 71, 58
1, 565031, Note_off_c, 0, 43, 58
1, 565032, Note_off_c, 0, 71, 52
1, 565055, Note_off_c, 0, 55, 60
1, 565082, Note_off_c, 0, 50, 60
1, 565101, Note_on_c, 0, 74, 63
1, 565124, Note_on_c, 0, 67, 32
1, 565136, Note_off_c, 0, 74, 64
1, 565155, Note_off_c, 0, 67, 54
1, 565233, Note_on_c, 0, 79, 64
1, 565262, Note_off_c, 0, 79, 62
1, 565354, Note_on_c, 0, 83, 60
1, 565379, Note_on_c, 0, 79, 23
1, 565413, Note_on_c, 0, 69, 80
1, 565416, Note_on_c, 0, 57, 67
1, 565419, Note_off_c, 0, 79, 55
1, 565421, Note_off_c, 0, 83, 62
1, 565493, Note_off_c, 0, 69, 59
1, 565500, Note_off_c, 0, 57, 53
1, 565523, Note_on_c, 0, 86, 63
1, 565561, Note_off_c, 0, 86, 60
1, 565587, Poly_aftertouch_c, 0, 79, 127
1, 565620, Poly_aftertouch_c, 0, 79, 0
1, 565654, Note_on_c, 0, 67, 70
1, 565673, Note_on_c, 0, 59, 53
1, 565675, Note_on_c, 0, 91, 69
1, 565681, Note_on_c, 0, 83, 56
1, 565683, Note_on_c, 0, 86, 52
1, 565688, Note_on_c, 0, 62, 54
1, 565690, Note_on_c, 0, 55, 55
1, 565698, Control_c, 0, 64, 88
1, 565706, Note_off_c, 0, 83, 60
1, 565712, Note_off_c, 0, 86, 66
1, 565713, Control_c, 0, 64, 69
1, 565728, Control_c, 0, 64, 61
1, 565743, Control_c, 0, 64, 63
1, 565744, Note_off_c, 0, 91, 56
1, 565757, Control_c, 0, 64, 71
1, 565772, Control_c, 0, 64, 92
1, 565787, Control_c, 0, 64, 127
1, 565793, Note_on_c, 0, 86, 69
1, 565810, Note_on_c, 0, 83, 41
1, 565818, Note_on_c, 0, 79, 56
1, 565818, Note_off_c, 0, 86, 67
1, 565838, Note_off_c, 0, 83, 51
1, 565840, Note_off_c, 0, 79, 65
1, 565898, Note_off_c, 0, 67, 62
1, 565916, Note_on_c, 0, 83, 75
1, 565926, Note_on_c, 0, 79, 52
1, 565935, Control_c, 0, 67, 115
1, 565937, Note_on_c, 0, 74, 70
1, 565950, Control_c, 0, 67, 89
1, 565955, Note_off_c, 0, 79, 65
1, 565959, Note_off_c, 0, 55, 62
1, 565963, Note_off_c, 0, 74, 68
1, 565964, Control_c, 0, 67, 59
1, 565979, Control_c, 0, 67, 0
1, 565982, Note_off_c, 0, 83, 58
1, 565988, Note_off_c, 0, 62, 63
1, 565996, Note_off_c, 0, 59, 64
1, 566039, Note_on_c, 0, 79, 65
1, 566046, Note_on_c, 0, 71, 78
1, 566060, Note_on_c, 0, 74, 45
1, 566063, Note_off_c, 0, 79, 68
1, 566074, Note_off_c, 0, 71, 63
1, 566083, Note_off_c, 0, 74, 59
1, 566157, Note_on_c, 0, 74, 78
1, 566175, Note_on_c, 0, 71, 68
1, 566188, Note_on_c, 0, 67, 51
1, 566203, Note_off_c, 0, 71, 64
1, 566215, Note_off_c, 0, 67, 56
1, 566222, Note_off_c, 0, 74, 56
1, 566272, Note_on_c, 0, 62, 74
1, 566281, Note_on_c, 0, 71, 66
1, 566305, Note_off_c, 0, 62, 67
1, 566311, Note_on_c, 0, 43, 78
1, 566319, Note_on_c, 0, 67, 20
1, 566320, Note_off_c, 0, 71, 64
1, 566342, Poly_aftertouch_c, 0, 74, 0
1, 566356, Note_off_c, 0, 67, 55
1, 566372, Note_on_c, 0, 50, 69
1, 566458, Note_on_c, 0, 57, 79
1, 566467, Note_on_c, 0, 62, 76
1, 566476, Control_c, 0, 64, 93
1, 566486, Note_on_c, 0, 66, 53
1, 566491, Control_c, 0, 64, 66
1, 566505, Control_c, 0, 64, 53
1, 566509, Note_off_c, 0, 66, 59
1, 566519, Note_off_c, 0, 62, 60
1, 566520, Control_c, 0, 64, 51
1, 566535, Control_c, 0, 64, 58
1, 566550, Control_c, 0, 64, 71
1, 566565, Control_c, 0, 64, 103
1, 566576, Note_on_c, 0, 66, 78
1, 566579, Control_c, 0, 64, 127
1, 566602, Note_on_c, 0, 62, 63
1, 566635, Note_off_c, 0, 62, 65
1, 566653, Note_off_c, 0, 66, 62
1, 566710, Note_on_c, 0, 69, 83
1, 566714, Note_on_c, 0, 66, 68
1, 566745, Note_on_c, 0, 62, 32
1, 566763, Note_off_c, 0, 43, 60
1, 566764, Note_off_c, 0, 66, 57
1, 566777, Note_off_c, 0, 62, 54
1, 566808, Note_on_c, 0, 66, 70
1, 566812, Note_off_c, 0, 57, 63
1, 566813, Note_on_c, 0, 74, 90
1, 566820, Note_off_c, 0, 50, 63
1, 566827, Note_off_c, 0, 69, 61
1, 566830, Note_off_c, 0, 66, 71
1, 566853, Note_off_c, 0, 74, 66
1, 566906, Control_c, 0, 67, 51
1, 566921, Control_c, 0, 67, 65
1, 566936, Control_c, 0, 67, 79
1, 566945, Note_on_c, 0, 78, 77
1, 566945, Note_on_c, 0, 74, 76
1, 566951, Control_c, 0, 67, 102
1, 566966, Control_c, 0, 67, 125
1, 566972, Note_off_c, 0, 78, 59
1, 566973, Note_off_c, 0, 74, 63
1, 566981, Control_c, 0, 67, 127
1, 567067, Note_on_c, 0, 81, 77
1, 567082, Note_on_c, 0, 78, 45
1, 567109, Note_off_c, 0, 78, 53
1, 567141, Note_off_c, 0, 81, 62
1, 567245, Note_on_c, 0, 72, 84
1, 567250, Note_on_c, 0, 62, 39
1, 567259, Note_on_c, 0, 60, 65
1, 567276, Note_on_c, 0, 86, 77
1, 567292, Note_on_c, 0, 66, 45
1, 567314, Control_c, 0, 64, 100
1, 567328, Control_c, 0, 64, 79
1, 567335, Note_off_c, 0, 86, 61
1, 567343, Control_c, 0, 64, 70
1, 567357, Control_c, 0, 64, 72
1, 567372, Control_c, 0, 64, 83
1, 567387, Control_c, 0, 64, 112
1, 567401, Control_c, 0, 64, 127
1, 567408, Note_on_c, 0, 81, 66
1, 567457, Note_off_c, 0, 81, 59
1, 567505, Poly_aftertouch_c, 0, 78, 0
1, 567513, Note_off_c, 0, 60, 61
1, 567520, Note_off_c, 0, 72, 55
1, 567525, Note_on_c, 0, 78, 50
1, 567548, Note_on_c, 0, 74, 55
1, 567584, Note_off_c, 0, 78, 58
1, 567584, Note_off_c, 0, 74, 60
1, 567660, Note_on_c, 0, 71, 91
1, 567661, Note_on_c, 0, 59, 73
1, 567676, Note_off_c, 0, 71, 73
1, 567677, Note_on_c, 0, 74, 75
1, 567678, Note_on_c, 0, 78, 74
1, 567684, Note_off_c, 0, 59, 67
1, 567694, Note_off_c, 0, 62, 46
1, 567699, Note_off_c, 0, 66, 39
1, 567699, Note_off_c, 0, 78, 69
1, 567703, Note_off_c, 0, 74, 66
1, 567836, Note_on_c, 0, 76, 53
1, 567839, Note_on_c, 0, 74, 57
1, 567871, Note_off_c, 0, 76, 62
1, 567874, Note_off_c, 0, 74, 58
1, 568021, Poly_aftertouch_c, 0, 62, 127
1, 568063, Poly_aftertouch_c, 0, 62, 0
1, 568134, Note_on_c, 0, 67, 78
1, 568147, Note_on_c, 0, 43, 54
1, 568149, Note_on_c, 0, 55, 55
1, 568149, Note_on_c, 0, 62, 58
1, 568163, Note_on_c, 0, 50, 56
1, 568165, Control_c, 0, 64, 81
1, 568166, Note_on_c, 0, 59, 51
1, 568180, Control_c, 0, 64, 60
1, 568195, Control_c, 0, 64, 46
1, 568210, Control_c, 0, 64, 49
1, 568226, Control_c, 0, 64, 62
1, 568227, Note_off_c, 0, 59, 47
1, 568227, Note_off_c, 0, 62, 61
1, 568240, Control_c, 0, 64, 78
1, 568251, Note_off_c, 0, 67, 63
1, 568255, Control_c, 0, 64, 127
1, 568337, Note_on_c, 0, 71, 65
1, 568355, Note_on_c, 0, 62, 36
1, 568373, Note_off_c, 0, 71, 56
1, 568387, Note_off_c, 0, 62, 55
1, 568414, Note_off_c, 0, 43, 62
1, 568421, Note_off_c, 0, 55, 61
1, 568443, Note_off_c, 0, 50, 63
1, 568452, Note_on_c, 0, 71, 49
1, 568461, Note_on_c, 0, 67, 48
1, 568463, Note_on_c, 0, 74, 59
1, 568477, Note_off_c, 0, 71, 60
1, 568482, Note_off_c, 0, 67, 61
1, 568494, Note_off_c, 0, 74, 63
1, 568592, Note_on_c, 0, 79, 66
1, 568603, Note_on_c, 0, 74, 45
1, 568605, Note_on_c, 0, 71, 43
1, 568622, Note_off_c, 0, 79, 59
1, 568629, Note_off_c, 0, 74, 55
1, 568636, Note_off_c, 0, 71, 60
1, 568713, Note_on_c, 0, 74, 67
1, 568730, Note_on_c, 0, 83, 52
1, 568741, Note_off_c, 0, 74, 66
1, 568761, Note_on_c, 0, 81, 34
1, 568763, Note_on_c, 0, 79, 4
1, 568784, Note_off_c, 0, 83, 63
1, 568790, Note_off_c, 0, 81, 57
1, 568802, Note_on_c, 0, 69, 74
1, 568802, Note_off_c, 0, 79, 53
1, 568803, Note_on_c, 0, 57, 62
1, 568875, Note_off_c, 0, 69, 57
1, 568893, Note_off_c, 0, 57, 53
1, 568897, Note_on_c, 0, 86, 65
1, 568903, Note_on_c, 0, 83, 51
1, 568907, Note_on_c, 0, 79, 38
1, 568924, Note_off_c, 0, 83, 60
1, 568924, Note_off_c, 0, 86, 67
1, 568933, Note_off_c, 0, 79, 57
1, 569024, Note_on_c, 0, 67, 75
1, 569036, Note_on_c, 0, 62, 58
1, 569037, Note_on_c, 0, 91, 76
1, 569040, Note_on_c, 0, 59, 59
1, 569040, Note_on_c, 0, 83, 60
1, 569046, Note_on_c, 0, 86, 59
1, 569049, Control_c, 0, 64, 90
1, 569049, Note_on_c, 0, 55, 59
1, 569063, Control_c, 0, 64, 66
1, 569073, Note_on_c, 0, 79, 10
1, 569077, Note_off_c, 0, 86, 65
1, 569078, Control_c, 0, 64, 54
1, 569080, Note_off_c, 0, 83, 59
1, 569093, Control_c, 0, 64, 56
1, 569108, Control_c, 0, 64, 64
1, 569109, Note_off_c, 0, 91, 58
1, 569122, Control_c, 0, 64, 79
1, 569125, Note_off_c, 0, 79, 37
1, 569137, Control_c, 0, 64, 127
1, 569165, Note_on_c, 0, 79, 64
1, 569165, Note_on_c, 0, 86, 68
1, 569171, Note_on_c, 0, 83, 64
1, 569187, Note_off_c, 0, 83, 65
1, 569189, Note_off_c, 0, 86, 70
1, 569190, Note_off_c, 0, 79, 67
1, 569261, Note_off_c, 0, 67, 60
1, 569269, Note_on_c, 0, 83, 77
1, 569294, Note_on_c, 0, 79, 62
1, 569297, Note_on_c, 0, 74, 79
1, 569321, Note_off_c, 0, 79, 67
1, 569323, Note_off_c, 0, 74, 65
1, 569337, Note_off_c, 0, 83, 64
1, 569352, Control_c, 0, 67, 105
1, 569367, Control_c, 0, 67, 89
1, 569371, Note_off_c, 0, 62, 62
1, 569382, Control_c, 0, 67, 82
1, 569383, Note_off_c, 0, 55, 58
1, 569387, Note_off_c, 0, 59, 63
1, 569396, Control_c, 0, 67, 82
1, 569399, Note_on_c, 0, 79, 77
1, 569405, Note_on_c, 0, 71, 82
1, 569411, Control_c, 0, 67, 81
1, 569425, Note_off_c, 0, 79, 64
1, 569426, Control_c, 0, 67, 79
1, 569436, Note_on_c, 0, 74, 33
1, 569436, Note_off_c, 0, 71, 60
1, 569440, Control_c, 0, 67, 79
1, 569455, Control_c, 0, 67, 78
1, 569467, Note_off_c, 0, 74, 46
1, 569485, Control_c, 0, 67, 77
1, 569500, Control_c, 0, 67, 75
1, 569514, Control_c, 0, 67, 67
1, 569529, Note_on_c, 0, 74, 72
1, 569529, Control_c, 0, 67, 44
1, 569530, Note_on_c, 0, 67, 71
1, 569537, Note_on_c, 0, 71, 58
1, 569544, Control_c, 0, 67, 0
1, 569554, Note_off_c, 0, 67, 68
1, 569562, Note_off_c, 0, 71, 62
1, 569572, Note_off_c, 0, 74, 60
1, 569627, Note_on_c, 0, 71, 83
1, 569642, Note_on_c, 0, 62, 58
1, 569646, Note_on_c, 0, 67, 56
1, 569653, Note_on_c, 0, 40, 79
1, 569669, Note_off_c, 0, 62, 55
1, 569671, Note_off_c, 0, 67, 58
1, 569708, Note_on_c, 0, 47, 80
1, 569722, Control_c, 0, 64, 110
1, 569731, Note_off_c, 0, 71, 57
1, 569737, Control_c, 0, 64, 72
1, 569752, Control_c, 0, 64, 37
1, 569767, Control_c, 0, 64, 0
1, 569790, Note_on_c, 0, 55, 80
1, 569803, Note_on_c, 0, 67, 89
1, 569820, Poly_aftertouch_c, 0, 45, 0
1, 569842, Control_c, 0, 64, 44
1, 569857, Control_c, 0, 64, 68
1, 569862, Note_off_c, 0, 67, 63
1, 569871, Control_c, 0, 64, 84
1, 569886, Control_c, 0, 64, 127
1, 569912, Note_off_c, 0, 40, 58
1, 569922, Note_on_c, 0, 71, 84
1, 569929, Note_on_c, 0, 64, 79
1, 569974, Note_off_c, 0, 64, 62
1, 569975, Note_off_c, 0, 47, 62
1, 569991, Note_off_c, 0, 71, 60
1, 570045, Note_on_c, 0, 76, 85
1, 570045, Note_on_c, 0, 67, 77
1, 570063, Note_on_c, 0, 71, 32
1, 570066, Note_off_c, 0, 67, 68
1, 570089, Note_off_c, 0, 76, 67
1, 570091, Note_off_c, 0, 71, 58
1, 570167, Note_on_c, 0, 79, 77
1, 570170, Note_on_c, 0, 71, 73
1, 570181, Note_on_c, 0, 76, 64
1, 570197, Note_off_c, 0, 71, 63
1, 570203, Note_off_c, 0, 76, 62
1, 570223, Note_off_c, 0, 79, 62
1, 570279, Note_on_c, 0, 76, 79
1, 570286, Note_on_c, 0, 83, 82
1, 570295, Note_on_c, 0, 79, 49
1, 570307, Note_off_c, 0, 76, 65
1, 570316, Note_off_c, 0, 79, 62
1, 570332, Note_off_c, 0, 83, 66
1, 570417, Note_on_c, 0, 88, 88
1, 570422, Note_on_c, 0, 83, 85
1, 570454, Note_off_c, 0, 83, 60
1, 570474, Note_off_c, 0, 88, 64
1, 570475, Note_on_c, 0, 59, 64
1, 570515, Note_on_c, 0, 64, 82
1, 570561, Note_on_c, 0, 91, 84
1, 570570, Note_on_c, 0, 83, 84
1, 570577, Note_on_c, 0, 88, 69
1, 570598, Note_on_c, 0, 67, 86
1, 570608, Note_off_c, 0, 88, 60
1, 570617, Note_off_c, 0, 83, 63
1, 570646, Note_off_c, 0, 91, 64
1, 570697, Note_on_c, 0, 88, 82
1, 570704, Note_on_c, 0, 83, 85
1, 570710, Note_on_c, 0, 79, 75
1, 570733, Note_off_c, 0, 83, 60
1, 570734, Note_off_c, 0, 79, 67
1, 570741, Note_off_c, 0, 88, 67
1, 570801, Note_off_c, 0, 67, 57
1, 570841, Note_on_c, 0, 83, 91
1, 570856, Note_on_c, 0, 76, 80
1, 570859, Note_on_c, 0, 79, 62
1, 570887, Note_off_c, 0, 79, 65
1, 570892, Note_off_c, 0, 76, 60
1, 570912, Note_off_c, 0, 83, 62
1, 570978, Note_on_c, 0, 79, 77
1, 570988, Note_on_c, 0, 76, 69
1, 570990, Note_off_c, 0, 64, 68
1, 570991, Note_on_c, 0, 71, 76
1, 571017, Note_off_c, 0, 76, 67
1, 571017, Note_off_c, 0, 71, 63
1, 571026, Note_off_c, 0, 55, 37
1, 571026, Note_off_c, 0, 79, 64
1, 571050, Note_off_c, 0, 59, 63
1, 571125, Note_on_c, 0, 76, 64
1, 571127, Note_on_c, 0, 71, 70
1, 571130, Note_on_c, 0, 67, 70
1, 571139, Note_on_c, 0, 74, 57
1, 571148, Note_on_c, 0, 65, 54
1, 571165, Note_off_c, 0, 67, 60
1, 571165, Note_off_c, 0, 71, 59
1, 571166, Note_off_c, 0, 74, 53
1, 571171, Note_off_c, 0, 65, 59
1, 571173, Note_off_c, 0, 76, 65
1, 571243, Note_on_c, 0, 71, 75
1, 571251, Note_on_c, 0, 67, 67
1, 571252, Note_on_c, 0, 62, 72
1, 571264, Note_on_c, 0, 64, 47
1, 571266, Note_off_c, 0, 71, 69
1, 571267, Note_off_c, 0, 67, 68
1, 571279, Note_off_c, 0, 62, 66
1, 571292, Note_off_c, 0, 64, 56
1, 571326, Note_on_c, 0, 33, 83
1, 571336, Poly_aftertouch_c, 0, 70, 0
1, 571383, Note_on_c, 0, 45, 87
1, 571489, Note_on_c, 0, 54, 89
1, 571494, Note_on_c, 0, 52, 91
1, 571496, Note_on_c, 0, 60, 82
1, 571497, Note_on_c, 0, 64, 90
1, 571503, Control_c, 0, 64, 87
1, 571518, Control_c, 0, 64, 62
1, 571540, Control_c, 0, 64, 39
1, 571555, Control_c, 0, 64, 42
1, 571570, Control_c, 0, 64, 59
1, 571584, Control_c, 0, 64, 82
1, 571585, Note_off_c, 0, 52, 61
1, 571599, Control_c, 0, 64, 127
1, 571600, Note_off_c, 0, 54, 63
1, 571621, Note_off_c, 0, 60, 65
1, 571639, Note_off_c, 0, 64, 67
1, 571682, Note_off_c, 0, 45, 60
1, 571685, Note_off_c, 0, 33, 58
1, 571821, Note_on_c, 0, 64, 90
1, 571822, Note_on_c, 0, 76, 91
1, 571849, Note_off_c, 0, 64, 64
1, 571860, Note_off_c, 0, 76, 61
1, 572083, Note_on_c, 0, 69, 73
1, 572091, Note_on_c, 0, 66, 71
1, 572123, Note_off_c, 0, 66, 62
1, 572143, Note_off_c, 0, 69, 61
1, 572218, Note_on_c, 0, 72, 76
1, 572242, Note_on_c, 0, 69, 46
1, 572268, Note_off_c, 0, 69, 57
1, 572301, Note_off_c, 0, 72, 56
1, 572341, Note_on_c, 0, 76, 88
1, 572356, Note_on_c, 0, 72, 16
1, 572377, Note_off_c, 0, 76, 67
1, 572405, Note_off_c, 0, 72, 50
1, 572451, Control_c, 0, 67, 57
1, 572466, Control_c, 0, 67, 91
1, 572480, Control_c, 0, 67, 109
1, 572492, Note_on_c, 0, 81, 73
1, 572495, Control_c, 0, 67, 112
1, 572496, Note_on_c, 0, 78, 64
1, 572510, Control_c, 0, 67, 114
1, 572523, Note_off_c, 0, 78, 64
1, 572525, Control_c, 0, 67, 118
1, 572540, Control_c, 0, 67, 127
1, 572565, Note_off_c, 0, 81, 60
1, 572621, Note_on_c, 0, 84, 73
1, 572635, Note_on_c, 0, 81, 44
1, 572662, Note_off_c, 0, 81, 55
1, 572712, Note_off_c, 0, 84, 64
1, 572828, Note_on_c, 0, 74, 100
1, 572839, Note_on_c, 0, 66, 83
1, 572842, Note_on_c, 0, 88, 87
1, 572844, Note_on_c, 0, 62, 71
1, 572919, Note_off_c, 0, 88, 64
1, 572998, Note_on_c, 0, 84, 75
1, 573010, Note_off_c, 0, 74, 58
1, 573020, Note_on_c, 0, 81, 48
1, 573050, Note_off_c, 0, 81, 58
1, 573075, Note_off_c, 0, 84, 63
1, 573130, Note_on_c, 0, 81, 67
1, 573132, Note_on_c, 0, 78, 76
1, 573177, Note_off_c, 0, 78, 57
1, 573187, Note_off_c, 0, 81, 63
1, 573247, Note_on_c, 0, 72, 82
1, 573253, Note_on_c, 0, 60, 77
1, 573258, Note_on_c, 0, 76, 95
1, 573264, Note_off_c, 0, 72, 72
1, 573265, Note_off_c, 0, 66, 65
1, 573285, Note_off_c, 0, 60, 67
1, 573294, Note_off_c, 0, 76, 67
1, 573298, Note_off_c, 0, 62, 24
1, 573415, Note_on_c, 0, 69, 81
1, 573463, Note_off_c, 0, 69, 60
1, 573530, Note_on_c, 0, 69, 68
1, 573541, Note_on_c, 0, 66, 68
1, 573557, Note_off_c, 0, 66, 68
1, 573558, Note_off_c, 0, 69, 60
1, 573587, Note_on_c, 0, 35, 78
1, 573699, Note_on_c, 0, 42, 67
1, 573756, Note_on_c, 0, 71, 93
1, 573762, Control_c, 0, 64, 83
1, 573785, Note_on_c, 0, 59, 60
1, 573785, Control_c, 0, 64, 61
1, 573800, Control_c, 0, 64, 0
1, 573820, Note_off_c, 0, 59, 45
1, 573828, Note_on_c, 0, 51, 70
1, 573855, Note_on_c, 0, 59, 50
1, 573858, Note_off_c, 0, 35, 54
1, 573875, Control_c, 0, 64, 50
1, 573890, Control_c, 0, 64, 69
1, 573890, Note_off_c, 0, 59, 60
1, 573905, Control_c, 0, 64, 89
1, 573916, Note_off_c, 0, 42, 63
1, 573919, Note_off_c, 0, 71, 58
1, 573919, Control_c, 0, 64, 127
1, 573928, Note_off_c, 0, 51, 61
1, 573986, Note_on_c, 0, 63, 70
1, 573991, Note_on_c, 0, 59, 60
1, 574019, Note_off_c, 0, 63, 61
1, 574028, Note_off_c, 0, 59, 60
1, 574121, Note_on_c, 0, 66, 63
1, 574185, Note_off_c, 0, 66, 62
1, 574245, Note_on_c, 0, 71, 67
1, 574283, Note_off_c, 0, 71, 54
1, 574302, Note_on_c, 0, 57, 67
1, 574303, Note_on_c, 0, 69, 85
1, 574446, Note_on_c, 0, 75, 69
1, 574487, Note_off_c, 0, 75, 51
1, 574513, Poly_aftertouch_c, 0, 71, 127
1, 574563, Poly_aftertouch_c, 0, 71, 0
1, 574608, Note_on_c, 0, 78, 59
1, 574645, Note_off_c, 0, 78, 58
1, 574757, Note_on_c, 0, 83, 62
1, 574767, Note_on_c, 0, 59, 54
1, 574772, Note_on_c, 0, 78, 36
1, 574779, Note_on_c, 0, 63, 50
1, 574804, Note_off_c, 0, 78, 51
1, 574829, Note_off_c, 0, 83, 59
1, 574885, Note_off_c, 0, 69, 46
1, 574902, Note_on_c, 0, 78, 58
1, 574922, Note_on_c, 0, 75, 54
1, 574946, Note_off_c, 0, 75, 63
1, 574949, Note_off_c, 0, 78, 53
1, 574962, Note_off_c, 0, 57, 63
1, 575041, Note_on_c, 0, 75, 60
1, 575086, Note_on_c, 0, 71, 31
1, 575088, Note_off_c, 0, 75, 57
1, 575125, Note_off_c, 0, 71, 51
1, 575207, Note_on_c, 0, 67, 77
1, 575208, Note_on_c, 0, 75, 58
1, 575215, Note_on_c, 0, 55, 59
1, 575220, Note_on_c, 0, 71, 53
1, 575234, Note_off_c, 0, 75, 65
1, 575241, Note_off_c, 0, 59, 60
1, 575241, Note_off_c, 0, 67, 61
1, 575245, Note_off_c, 0, 63, 63
1, 575249, Note_off_c, 0, 71, 64
1, 575253, Note_off_c, 0, 55, 62
1, 575372, Note_on_c, 0, 71, 53
1, 575378, Note_on_c, 0, 63, 59
1, 575399, Note_off_c, 0, 63, 65
1, 575414, Note_off_c, 0, 71, 58
1, 575457, Note_on_c, 0, 54, 73
1, 575458, Note_on_c, 0, 66, 74
1, 575473, Note_off_c, 0, 66, 68
1, 575483, Note_off_c, 0, 54, 67
1, 575561, Note_on_c, 0, 63, 72
1, 575584, Note_off_c, 0, 63, 70
1, 575815, Note_on_c, 0, 64, 74
1, 575845, Note_on_c, 0, 59, 51
1, 575846, Note_on_c, 0, 52, 45
1, 575847, Control_c, 0, 64, 84
1, 575851, Note_on_c, 0, 47, 49
1, 575857, Note_on_c, 0, 40, 38
1, 575862, Control_c, 0, 64, 61
1, 575876, Note_on_c, 0, 55, 16
1, 575876, Control_c, 0, 64, 0
1, 575921, Control_c, 0, 64, 37
1, 575936, Note_off_c, 0, 55, 44
1, 575936, Control_c, 0, 64, 60
1, 575940, Note_off_c, 0, 59, 61
1, 575950, Control_c, 0, 64, 79
1, 575962, Note_off_c, 0, 64, 64
1, 575965, Control_c, 0, 64, 119
1, 575980, Control_c, 0, 64, 127
1, 576064, Note_on_c, 0, 67, 69
1, 576086, Note_on_c, 0, 59, 39
1, 576118, Note_off_c, 0, 59, 54
1, 576128, Note_off_c, 0, 67, 59
1, 576203, Note_on_c, 0, 71, 70
1, 576204, Note_on_c, 0, 64, 53
1, 576222, Note_off_c, 0, 64, 66
1, 576236, Note_off_c, 0, 71, 63
1, 576247, Note_off_c, 0, 40, 60
1, 576287, Note_off_c, 0, 47, 61
1, 576290, Note_off_c, 0, 52, 61
1, 576335, Note_on_c, 0, 76, 70
1, 576362, Note_off_c, 0, 76, 63
1, 576399, Poly_aftertouch_c, 0, 67, 127
1, 576446, Poly_aftertouch_c, 0, 67, 0
1, 576463, Note_on_c, 0, 79, 55
1, 576499, Note_off_c, 0, 79, 61
1, 576599, Note_on_c, 0, 83, 59
1, 576618, Note_on_c, 0, 59, 46
1, 576628, Note_on_c, 0, 55, 29
1, 576629, Note_off_c, 0, 83, 63
1, 576681, Note_on_c, 0, 64, 44
1, 576727, Note_on_c, 0, 88, 70
1, 576749, Note_on_c, 0, 67, 54
1, 576751, Note_on_c, 0, 83, 36
1, 576793, Note_off_c, 0, 83, 45
1, 576805, Note_off_c, 0, 67, 50
1, 576808, Note_off_c, 0, 88, 57
1, 576814, Poly_aftertouch_c, 0, 79, 127
1, 576833, Poly_aftertouch_c, 0, 79, 0
1, 576866, Note_on_c, 0, 76, 60
1, 576868, Note_on_c, 0, 83, 59
1, 576870, Poly_aftertouch_c, 0, 79, 127
1, 576886, Note_off_c, 0, 83, 62
1, 576892, Note_off_c, 0, 76, 65
1, 576900, Note_off_c, 0, 55, 41
1, 576923, Poly_aftertouch_c, 0, 79, 0
1, 576934, Note_off_c, 0, 64, 65
1, 576958, Note_off_c, 0, 59, 64
1, 576988, Note_on_c, 0, 79, 60
1, 577007, Note_on_c, 0, 71, 53
1, 577029, Note_off_c, 0, 71, 59
1, 577038, Note_off_c, 0, 79, 54
1, 577104, Note_on_c, 0, 76, 70
1, 577116, Note_on_c, 0, 71, 48
1, 577119, Note_on_c, 0, 67, 64
1, 577128, Note_off_c, 0, 76, 68
1, 577145, Note_off_c, 0, 67, 65
1, 577145, Note_off_c, 0, 71, 53
1, 577241, Note_on_c, 0, 71, 47
1, 577246, Note_on_c, 0, 67, 43
1, 577275, Note_off_c, 0, 67, 54
1, 577276, Note_on_c, 0, 64, 25
1, 577289, Note_off_c, 0, 71, 43
1, 577317, Note_off_c, 0, 64, 54
1, 577380, Note_on_c, 0, 67, 35
1, 577381, Note_on_c, 0, 40, 52
1, 577395, Note_on_c, 0, 59, 30
1, 577414, Note_off_c, 0, 67, 55
1, 577417, Note_on_c, 0, 48, 59
1, 577430, Note_off_c, 0, 59, 54
1, 577434, Note_on_c, 0, 64, 9
1, 577486, Note_off_c, 0, 64, 48
1, 577540, Note_on_c, 0, 52, 57
1, 577544, Control_c, 0, 64, 82
1, 577559, Control_c, 0, 64, 62
1, 577574, Control_c, 0, 64, 44
1, 577575, Note_on_c, 0, 64, 64
1, 577588, Control_c, 0, 64, 41
1, 577603, Control_c, 0, 64, 49
1, 577618, Control_c, 0, 64, 65
1, 577633, Control_c, 0, 64, 83
1, 577648, Control_c, 0, 64, 127
1, 577651, Note_off_c, 0, 64, 58
1, 577704, Note_on_c, 0, 69, 63
1, 577705, Note_on_c, 0, 60, 63
1, 577734, Note_off_c, 0, 60, 67
1, 577755, Note_off_c, 0, 69, 61
1, 577772, Note_off_c, 0, 40, 60
1, 577801, Note_off_c, 0, 52, 61
1, 577816, Note_on_c, 0, 72, 66
1, 577824, Note_on_c, 0, 64, 47
1, 577825, Note_on_c, 0, 69, 36
1, 577835, Note_off_c, 0, 48, 63
1, 577848, Note_off_c, 0, 64, 61
1, 577852, Note_off_c, 0, 69, 58
1, 577862, Note_off_c, 0, 72, 61
1, 577933, Note_on_c, 0, 69, 57
1, 577947, Note_on_c, 0, 76, 45
1, 577956, Note_off_c, 0, 69, 63
1, 577974, Note_off_c, 0, 76, 53
1, 578046, Note_on_c, 0, 81, 80
1, 578055, Note_on_c, 0, 76, 59
1, 578079, Note_off_c, 0, 76, 66
1, 578093, Note_off_c, 0, 81, 64
1, 578191, Note_on_c, 0, 76, 48
1, 578192, Note_on_c, 0, 84, 50
1, 578198, Note_on_c, 0, 83, 58
1, 578212, Note_off_c, 0, 76, 60
1, 578217, Note_off_c, 0, 83, 64
1, 578220, Note_off_c, 0, 84, 58
1, 578351, Note_on_c, 0, 69, 89
1, 578354, Note_on_c, 0, 88, 66
1, 578361, Note_on_c, 0, 60, 45
1, 578366, Note_on_c, 0, 64, 73
1, 578367, Note_on_c, 0, 57, 62
1, 578394, Note_on_c, 0, 81, 41
1, 578442, Note_off_c, 0, 81, 56
1, 578449, Note_off_c, 0, 88, 63
1, 578500, Note_on_c, 0, 76, 69
1, 578511, Note_on_c, 0, 84, 55
1, 578527, Note_off_c, 0, 76, 67
1, 578532, Note_off_c, 0, 84, 63
1, 578597, Note_off_c, 0, 57, 63
1, 578627, Note_on_c, 0, 83, 54
1, 578627, Note_off_c, 0, 69, 58
1, 578640, Note_on_c, 0, 84, 45
1, 578661, Note_on_c, 0, 76, 23
1, 578669, Note_off_c, 0, 84, 54
1, 578672, Note_on_c, 0, 74, 26
1, 578680, Note_off_c, 0, 83, 58
1, 578698, Note_off_c, 0, 76, 46
1, 578709, Note_off_c, 0, 74, 50
1, 578737, Note_off_c, 0, 64, 0
1, 578763, Note_on_c, 0, 67, 75
1, 578773, Note_on_c, 0, 55, 59
1, 578773, Poly_aftertouch_c, 0, 64, 127
1, 578775, Note_on_c, 0, 71, 44
1, 578779, Note_off_c, 0, 67, 68
1, 578782, Note_on_c, 0, 72, 33
1, 578800, Poly_aftertouch_c, 0, 64, 0
1, 578804, Note_off_c, 0, 71, 54
1, 578806, Note_off_c, 0, 55, 63
1, 578816, Note_off_c, 0, 72, 51
1, 578817, Note_off_c, 0, 60, 64
1, 578914, Note_on_c, 0, 69, 34
1, 578941, Note_off_c, 0, 69, 57
1, 579006, Note_on_c, 0, 64, 44
1, 579041, Note_off_c, 0, 64, 57
1, 579256, Note_on_c, 0, 64, 61
1, 579277, Note_on_c, 0, 59, 54
1, 579280, Note_on_c, 0, 40, 46
1, 579284, Note_on_c, 0, 52, 51
1, 579286, Note_on_c, 0, 47, 46
1, 579287, Note_on_c, 0, 55, 50
1, 579295, Control_c, 0, 64, 102
1, 579309, Control_c, 0, 64, 75
1, 579324, Control_c, 0, 64, 60
1, 579338, Note_off_c, 0, 55, 58
1, 579339, Control_c, 0, 64, 53
1, 579343, Note_off_c, 0, 59, 62
1, 579353, Control_c, 0, 64, 56
1, 579368, Control_c, 0, 64, 65
1, 579377, Note_off_c, 0, 64, 63
1, 579383, Control_c, 0, 64, 77
1, 579399, Control_c, 0, 64, 94
1, 579414, Control_c, 0, 64, 127
1, 579477, Note_on_c, 0, 67, 58
1, 579484, Note_on_c, 0, 59, 47
1, 579514, Note_off_c, 0, 59, 60
1, 579524, Note_off_c, 0, 40, 60
1, 579530, Note_off_c, 0, 67, 57
1, 579553, Note_off_c, 0, 52, 60
1, 579570, Note_off_c, 0, 47, 61
1, 579593, Note_on_c, 0, 71, 69
1, 579617, Note_on_c, 0, 64, 11
1, 579626, Note_off_c, 0, 71, 62
1, 579664, Note_off_c, 0, 64, 54
1, 579731, Note_on_c, 0, 76, 57
1, 579738, Note_on_c, 0, 67, 48
1, 579763, Note_off_c, 0, 67, 62
1, 579777, Note_off_c, 0, 76, 59
1, 579867, Note_on_c, 0, 79, 63
1, 579924, Note_off_c, 0, 79, 64
1, 579924, Note_on_c, 0, 54, 48
1, 579929, Note_on_c, 0, 66, 51
1, 579969, Note_off_c, 0, 66, 52
1, 579976, Note_off_c, 0, 54, 51
1, 580026, Note_on_c, 0, 83, 70
1, 580054, Note_off_c, 0, 83, 62
1, 580085, Poly_aftertouch_c, 0, 76, 127
1, 580115, Poly_aftertouch_c, 0, 79, 0
1, 580123, Poly_aftertouch_c, 0, 76, 0
1, 580206, Note_on_c, 0, 88, 68
1, 580222, Note_on_c, 0, 64, 51
1, 580229, Note_on_c, 0, 79, 37
1, 580235, Control_c, 0, 64, 86
1, 580237, Note_on_c, 0, 52, 42
1, 580238, Note_on_c, 0, 59, 50
1, 580241, Note_on_c, 0, 55, 32
1, 580250, Control_c, 0, 64, 67
1, 580263, Note_off_c, 0, 79, 53
1, 580265, Control_c, 0, 64, 57
1, 580279, Control_c, 0, 64, 59
1, 580294, Control_c, 0, 64, 65
1, 580309, Control_c, 0, 64, 78
1, 580324, Control_c, 0, 64, 108
1, 580332, Note_off_c, 0, 88, 63
1, 580337, Note_on_c, 0, 83, 45
1, 580339, Control_c, 0, 64, 127
1, 580342, Note_on_c, 0, 76, 62
1, 580348, Note_on_c, 0, 79, 45
1, 580359, Note_off_c, 0, 83, 61
1, 580370, Note_off_c, 0, 76, 66
1, 580372, Note_off_c, 0, 79, 59
1, 580453, Note_on_c, 0, 79, 67
1, 580489, Note_on_c, 0, 71, 45
1, 580499, Note_off_c, 0, 64, 56
1, 580502, Note_off_c, 0, 79, 49
1, 580509, Poly_aftertouch_c, 0, 76, 127
1, 580524, Note_off_c, 0, 71, 55
1, 580558, Poly_aftertouch_c, 0, 76, 0
1, 580590, Note_on_c, 0, 76, 54
1, 580600, Note_on_c, 0, 67, 68
1, 580603, Note_on_c, 0, 71, 51
1, 580620, Note_off_c, 0, 76, 65
1, 580626, Note_off_c, 0, 67, 69
1, 580627, Note_off_c, 0, 59, 62
1, 580629, Note_off_c, 0, 71, 56
1, 580670, Note_off_c, 0, 52, 62
1, 580681, Note_off_c, 0, 55, 43
1, 580713, Note_on_c, 0, 71, 63
1, 580740, Note_on_c, 0, 67, 44
1, 580767, Note_off_c, 0, 67, 56
1, 580769, Note_on_c, 0, 64, 10
1, 580783, Note_off_c, 0, 71, 57
1, 580814, Note_off_c, 0, 64, 52
1, 580841, Note_on_c, 0, 67, 72
1, 580878, Note_on_c, 0, 59, 36
1, 580913, Note_on_c, 0, 40, 49
1, 580915, Note_off_c, 0, 59, 53
1, 580916, Note_off_c, 0, 67, 53
1, 580956, Note_on_c, 0, 48, 46
1, 581070, Note_on_c, 0, 64, 62
1, 581078, Note_on_c, 0, 52, 45
1, 581089, Control_c, 0, 64, 83
1, 581103, Control_c, 0, 64, 64
1, 581118, Control_c, 0, 64, 49
1, 581133, Control_c, 0, 64, 46
1, 581148, Control_c, 0, 64, 51
1, 581163, Control_c, 0, 64, 60
1, 581168, Note_off_c, 0, 64, 53
1, 581177, Control_c, 0, 64, 70
1, 581192, Control_c, 0, 64, 87
1, 581207, Control_c, 0, 64, 108
1, 581215, Note_on_c, 0, 69, 67
1, 581221, Control_c, 0, 64, 127
1, 581226, Note_on_c, 0, 60, 55
1, 581257, Note_off_c, 0, 60, 66
1, 581281, Note_off_c, 0, 69, 60
1, 581338, Note_off_c, 0, 40, 55
1, 581344, Note_on_c, 0, 72, 68
1, 581369, Note_off_c, 0, 52, 61
1, 581379, Note_off_c, 0, 72, 62
1, 581396, Note_off_c, 0, 48, 63
1, 581396, Poly_aftertouch_c, 0, 69, 127
1, 581405, Poly_aftertouch_c, 0, 64, 127
1, 581423, Poly_aftertouch_c, 0, 69, 0
1, 581443, Poly_aftertouch_c, 0, 64, 0
1, 581472, Note_on_c, 0, 76, 63
1, 581502, Note_off_c, 0, 76, 64
1, 581521, Poly_aftertouch_c, 0, 69, 127
1, 581560, Poly_aftertouch_c, 0, 69, 0
1, 581595, Note_on_c, 0, 81, 68
1, 581626, Note_off_c, 0, 81, 64
1, 581733, Note_on_c, 0, 84, 67
1, 581765, Note_on_c, 0, 76, 26
1, 581793, Note_off_c, 0, 84, 59
1, 581804, Note_off_c, 0, 76, 47
1, 581951, Note_on_c, 0, 69, 64
1, 581967, Note_on_c, 0, 60, 37
1, 581969, Note_on_c, 0, 88, 65
1, 581973, Note_on_c, 0, 57, 42
1, 581979, Note_on_c, 0, 81, 55
1, 581985, Control_c, 0, 64, 97
1, 581987, Note_on_c, 0, 64, 49
1, 582000, Control_c, 0, 64, 72
1, 582022, Control_c, 0, 64, 61
1, 582028, Note_off_c, 0, 81, 55
1, 582037, Control_c, 0, 64, 59
1, 582052, Control_c, 0, 64, 63
1, 582067, Control_c, 0, 64, 72
1, 582082, Control_c, 0, 64, 88
1, 582097, Control_c, 0, 64, 127
1, 582106, Note_off_c, 0, 88, 62
1, 582115, Note_on_c, 0, 84, 58
1, 582141, Note_off_c, 0, 84, 69
1, 582147, Note_on_c, 0, 76, 33
1, 582155, Poly_aftertouch_c, 0, 81, 127
1, 582168, Note_off_c, 0, 57, 61
1, 582177, Note_off_c, 0, 69, 52
1, 582180, Note_off_c, 0, 76, 54
1, 582190, Poly_aftertouch_c, 0, 81, 0
1, 582237, Note_off_c, 0, 60, 36
1, 582269, Note_off_c, 0, 64, 37
1, 582291, Note_on_c, 0, 81, 38
1, 582299, Note_on_c, 0, 83, 51
1, 582328, Note_off_c, 0, 83, 57
1, 582365, Note_off_c, 0, 81, 61
1, 582444, Note_on_c, 0, 55, 47
1, 582446, Note_on_c, 0, 76, 48
1, 582449, Note_on_c, 0, 67, 44
1, 582469, Note_off_c, 0, 76, 59
1, 582473, Note_on_c, 0, 69, 31
1, 582477, Note_off_c, 0, 67, 55
1, 582478, Note_on_c, 0, 64, 38
1, 582481, Note_on_c, 0, 60, 39
1, 582494, Note_off_c, 0, 55, 50
1, 582508, Note_off_c, 0, 69, 55
1, 582517, Note_off_c, 0, 64, 62
1, 582541, Note_off_c, 0, 60, 60
1, 582618, Note_on_c, 0, 72, 62
1, 582629, Note_on_c, 0, 64, 52
1, 582665, Note_off_c, 0, 64, 51
1, 582685, Note_off_c, 0, 72, 55
1, 582777, Note_on_c, 0, 69, 47
1, 582792, Note_on_c, 0, 60, 56
1, 582801, Note_off_c, 0, 69, 59
1, 582822, Note_off_c, 0, 60, 62
1, 582863, Note_on_c, 0, 40, 47
1, 582954, Note_on_c, 0, 47, 41
1, 583037, Control_c, 0, 64, 109
1, 583042, Note_on_c, 0, 52, 45
1, 583052, Control_c, 0, 64, 76
1, 583066, Control_c, 0, 64, 57
1, 583081, Control_c, 0, 64, 43
1, 583096, Control_c, 0, 64, 42
1, 583111, Control_c, 0, 64, 50
1, 583113, Note_on_c, 0, 59, 49
1, 583113, Note_on_c, 0, 64, 59
1, 583126, Control_c, 0, 64, 65
1, 583136, Note_on_c, 0, 55, 28
1, 583140, Control_c, 0, 64, 83
1, 583146, Note_off_c, 0, 59, 64
1, 583155, Control_c, 0, 64, 127
1, 583176, Note_off_c, 0, 55, 53
1, 583179, Note_off_c, 0, 64, 64
1, 583185, Note_off_c, 0, 40, 40
1, 583190, Note_off_c, 0, 47, 62
1, 583209, Note_off_c, 0, 52, 60
1, 583298, Note_on_c, 0, 67, 61
1, 583316, Note_on_c, 0, 64, 37
1, 583328, Note_off_c, 0, 67, 67
1, 583352, Note_off_c, 0, 64, 54
1, 583424, Note_on_c, 0, 71, 64
1, 583434, Note_on_c, 0, 64, 57
1, 583453, Note_off_c, 0, 64, 65
1, 583458, Note_off_c, 0, 71, 59
1, 583534, Note_on_c, 0, 76, 55
1, 583555, Note_off_c, 0, 76, 61
1, 583564, Note_on_c, 0, 74, 23
1, 583604, Note_off_c, 0, 74, 42
1, 583626, Note_on_c, 0, 64, 37
1, 583637, Note_on_c, 0, 76, 39
1, 583641, Note_on_c, 0, 67, 36
1, 583641, Note_on_c, 0, 71, 35
1, 583664, Note_off_c, 0, 76, 55
1, 583666, Note_off_c, 0, 64, 49
1, 583672, Note_off_c, 0, 67, 53
1, 583675, Note_off_c, 0, 71, 53
1, 583686, Note_on_c, 0, 79, 26
1, 583724, Note_on_c, 0, 83, 63
1, 583730, Note_off_c, 0, 79, 56
1, 583765, Note_off_c, 0, 83, 59
1, 583784, Note_on_c, 0, 88, 71
1, 583815, Note_on_c, 0, 64, 52
1, 583817, Note_on_c, 0, 67, 43
1, 583819, Note_on_c, 0, 71, 44
1, 583831, Note_on_c, 0, 83, 61
1, 583832, Note_off_c, 0, 88, 54
1, 583853, Note_off_c, 0, 71, 51
1, 583857, Note_off_c, 0, 64, 60
1, 583859, Note_on_c, 0, 79, 64
1, 583866, Note_off_c, 0, 67, 51
1, 583873, Note_off_c, 0, 83, 58
1, 583903, Note_off_c, 0, 79, 62
1, 583915, Note_on_c, 0, 76, 75
1, 583939, Note_off_c, 0, 76, 65
1, 583967, Note_on_c, 0, 67, 55
1, 583969, Note_on_c, 0, 79, 51
1, 583970, Note_on_c, 0, 64, 50
1, 583973, Note_on_c, 0, 71, 46
1, 583999, Note_on_c, 0, 83, 70
1, 584001, Note_off_c, 0, 79, 65
1, 584005, Note_off_c, 0, 64, 60
1, 584005, Note_off_c, 0, 67, 59
1, 584007, Note_off_c, 0, 71, 53
1, 584020, Note_off_c, 0, 83, 70
1, 584085, Note_on_c, 0, 88, 76
1, 584112, Note_off_c, 0, 88, 60
1, 584148, Note_on_c, 0, 71, 28
1, 584154, Note_on_c, 0, 91, 65
1, 584155, Note_on_c, 0, 67, 22
1, 584158, Note_on_c, 0, 64, 8
1, 584195, Note_off_c, 0, 67, 49
1, 584199, Note_off_c, 0, 71, 44
1, 584218, Note_off_c, 0, 64, 46
1, 584223, Note_on_c, 0, 95, 63
1, 584228, Note_off_c, 0, 91, 57
1, 584386, Control_c, 0, 64, 94
1, 584391, Note_on_c, 0, 71, 33
1, 584395, Note_on_c, 0, 67, 40
1, 584398, Note_on_c, 0, 64, 39
1, 584401, Control_c, 0, 64, 68
1, 584407, Note_on_c, 0, 100, 60
1, 584409, Note_off_c, 0, 95, 57
1, 584416, Control_c, 0, 64, 48
1, 584431, Control_c, 0, 64, 0
1, 584476, Control_c, 0, 64, 39
1, 584491, Control_c, 0, 64, 58
1, 584505, Control_c, 0, 64, 77
1, 584520, Control_c, 0, 64, 118
1, 584535, Control_c, 0, 64, 127
1, 584538, Note_off_c, 0, 67, 37
1, 584547, Note_off_c, 0, 71, 36
1, 584555, Note_off_c, 0, 100, 66
1, 584601, Note_off_c, 0, 64, 0
1, 584616, Note_on_c, 0, 67, 36
1, 584619, Note_on_c, 0, 71, 36
1, 584622, Note_on_c, 0, 64, 26
1, 584689, Note_off_c, 0, 71, 36
1, 584690, Note_off_c, 0, 64, 50
1, 584697, Note_off_c, 0, 67, 40
1, 584850, Note_on_c, 0, 64, 40
1, 584854, Note_on_c, 0, 67, 42
1, 584854, Note_on_c, 0, 71, 41
1, 584905, Note_off_c, 0, 64, 57
1, 584909, Note_off_c, 0, 67, 51
1, 584923, Note_off_c, 0, 71, 49
1, 585179, Note_on_c, 0, 79, 70
1, 585215, Note_on_c, 0, 64, 36
1, 585217, Note_on_c, 0, 67, 45
1, 585220, Note_on_c, 0, 71, 39
1, 585352, Note_off_c, 0, 64, 36
1, 585358, Note_off_c, 0, 67, 34
1, 585359, Note_off_c, 0, 71, 34
1, 585477, Note_on_c, 0, 67, 42
1, 585482, Note_on_c, 0, 64, 35
1, 585482, Note_on_c, 0, 71, 42
1, 585552, Note_on_c, 0, 78, 74
1, 585556, Note_off_c, 0, 64, 49
1, 585567, Note_off_c, 0, 67, 48
1, 585583, Note_off_c, 0, 79, 63
1, 585597, Note_off_c, 0, 71, 36
1, 585610, Control_c, 0, 67, 123
1, 585683, Note_on_c, 0, 67, 51
1, 585691, Note_on_c, 0, 64, 48
1, 585708, Note_off_c, 0, 67, 57
1, 585717, Note_off_c, 0, 64, 58
1, 585728, Control_c, 0, 67, 125
1, 585781, Control_c, 0, 67, 127
1, 585801, Note_on_c, 0, 67, 59
1, 585900, Note_off_c, 0, 78, 55
1, 585918, Note_on_c, 0, 71, 42
1, 585965, Note_off_c, 0, 67, 29
1, 586063, Control_c, 0, 64, 90
1, 586069, Note_on_c, 0, 76, 75
1, 586078, Control_c, 0, 64, 69
1, 586087, Note_on_c, 0, 64, 32
1, 586088, Note_on_c, 0, 52, 45
1, 586092, Control_c, 0, 64, 52
1, 586107, Control_c, 0, 64, 45
1, 586136, Control_c, 0, 64, 49
1, 586137, Note_off_c, 0, 71, 50
1, 586151, Control_c, 0, 64, 59
1, 586166, Note_off_c, 0, 52, 62
1, 586166, Control_c, 0, 64, 66
1, 586181, Control_c, 0, 64, 75
1, 586196, Control_c, 0, 64, 93
1, 586206, Note_off_c, 0, 64, 63
1, 586211, Control_c, 0, 64, 127
1, 586299, Note_off_c, 0, 76, 65
1, 586380, Note_on_c, 0, 67, 49
1, 586386, Note_on_c, 0, 71, 47
1, 586412, Note_on_c, 0, 64, 37
1, 586429, Note_off_c, 0, 71, 44
1, 586432, Note_off_c, 0, 67, 52
1, 586444, Note_off_c, 0, 64, 53
1, 586597, Note_on_c, 0, 67, 38
1, 586604, Note_on_c, 0, 64, 33
1, 586607, Note_on_c, 0, 71, 40
1, 586670, Note_off_c, 0, 71, 52
1, 586673, Note_off_c, 0, 64, 55
1, 586696, Note_off_c, 0, 67, 38
1, 586845, Note_on_c, 0, 83, 76
1, 586867, Note_on_c, 0, 67, 39
1, 586868, Note_on_c, 0, 71, 37
1, 586875, Note_on_c, 0, 64, 36
1, 586940, Note_off_c, 0, 67, 51
1, 586941, Note_off_c, 0, 64, 49
1, 586943, Note_off_c, 0, 71, 44
1, 587052, Note_on_c, 0, 67, 31
1, 587053, Note_on_c, 0, 64, 42
1, 587058, Note_on_c, 0, 71, 30
1, 587115, Note_off_c, 0, 67, 58
1, 587115, Note_off_c, 0, 64, 55
1, 587123, Note_off_c, 0, 71, 54
1, 587155, Note_on_c, 0, 81, 90
1, 587196, Control_c, 0, 67, 123
1, 587211, Control_c, 0, 67, 112
1, 587226, Control_c, 0, 67, 99
1, 587240, Control_c, 0, 67, 87
1, 587262, Note_on_c, 0, 64, 45
1, 587263, Control_c, 0, 67, 75
1, 587267, Note_on_c, 0, 67, 40
1, 587272, Note_on_c, 0, 71, 37
1, 587278, Control_c, 0, 67, 65
1, 587293, Control_c, 0, 67, 55
1, 587307, Control_c, 0, 67, 45
1, 587322, Control_c, 0, 67, 39
1, 587323, Note_off_c, 0, 67, 54
1, 587324, Note_off_c, 0, 64, 58
1, 587336, Note_off_c, 0, 71, 40
1, 587337, Control_c, 0, 67, 37
1, 587352, Control_c, 0, 67, 36
1, 587392, Note_off_c, 0, 83, 31
1, 587442, Control_c, 0, 67, 37
1, 587448, Note_on_c, 0, 79, 81
1, 587457, Control_c, 0, 67, 37
1, 587460, Note_on_c, 0, 67, 45
1, 587461, Note_on_c, 0, 64, 43
1, 587466, Note_on_c, 0, 71, 45
1, 587471, Control_c, 0, 67, 38
1, 587486, Control_c, 0, 67, 40
1, 587501, Control_c, 0, 67, 40
1, 587522, Note_off_c, 0, 64, 54
1, 587522, Note_off_c, 0, 81, 55
1, 587531, Control_c, 0, 67, 41
1, 587537, Note_off_c, 0, 71, 40
1, 587545, Control_c, 0, 67, 42
1, 587549, Note_off_c, 0, 67, 39
1, 587560, Control_c, 0, 67, 46
1, 587576, Control_c, 0, 67, 48
1, 587590, Control_c, 0, 67, 50
1, 587605, Control_c, 0, 67, 51
1, 587620, Control_c, 0, 67, 53
1, 587635, Control_c, 0, 67, 58
1, 587649, Note_on_c, 0, 67, 40
1, 587649, Note_on_c, 0, 71, 42
1, 587650, Control_c, 0, 67, 65
1, 587659, Note_on_c, 0, 64, 41
1, 587664, Control_c, 0, 67, 66
1, 587694, Control_c, 0, 67, 67
1, 587704, Note_off_c, 0, 64, 48
1, 587705, Note_off_c, 0, 71, 52
1, 587706, Note_off_c, 0, 67, 54
1, 587709, Control_c, 0, 67, 70
1, 587724, Note_off_c, 0, 79, 48
1, 587724, Control_c, 0, 67, 82
1, 587738, Control_c, 0, 67, 109
1, 587753, Control_c, 0, 67, 127
1, 587826, Note_on_c, 0, 64, 40
1, 587830, Note_on_c, 0, 67, 47
1, 587835, Note_on_c, 0, 71, 43
1, 587888, Note_off_c, 0, 64, 48
1, 587899, Note_off_c, 0, 67, 46
1, 587907, Note_off_c, 0, 71, 34
1, 587919, Note_on_c, 0, 81, 67
1, 587978, Note_off_c, 0, 81, 61
1, 587984, Note_on_c, 0, 79, 68
1, 588071, Note_off_c, 0, 79, 53
1, 588075, Note_on_c, 0, 78, 71
1, 588080, Note_on_c, 0, 67, 42
1, 588088, Note_on_c, 0, 71, 34
1, 588091, Note_on_c, 0, 64, 40
1, 588145, Note_off_c, 0, 64, 55
1, 588145, Note_off_c, 0, 67, 55
1, 588147, Note_off_c, 0, 78, 60
1, 588162, Note_off_c, 0, 71, 39
1, 588278, Note_on_c, 0, 64, 34
1, 588279, Note_on_c, 0, 67, 45
1, 588288, Note_on_c, 0, 71, 36
1, 588339, Note_off_c, 0, 64, 48
1, 588347, Note_off_c, 0, 67, 46
1, 588350, Note_off_c, 0, 71, 42
1, 588357, Note_on_c, 0, 76, 61
1, 588387, Note_off_c, 0, 76, 66
1, 588468, Note_on_c, 0, 71, 46
1, 588475, Note_on_c, 0, 67, 45
1, 588488, Note_on_c, 0, 64, 22
1, 588506, Note_off_c, 0, 71, 52
1, 588512, Note_off_c, 0, 67, 55
1, 588527, Note_off_c, 0, 64, 55
1, 588709, Note_on_c, 0, 79, 56
1, 588735, Note_on_c, 0, 64, 35
1, 588806, Control_c, 0, 64, 101
1, 588820, Control_c, 0, 64, 75
1, 588835, Control_c, 0, 64, 59
1, 588850, Control_c, 0, 64, 43
1, 588865, Control_c, 0, 64, 41
1, 588880, Control_c, 0, 64, 43
1, 588894, Control_c, 0, 64, 52
1, 588909, Control_c, 0, 64, 62
1, 588924, Control_c, 0, 64, 69
1, 588938, Control_c, 0, 64, 77
1, 588953, Control_c, 0, 64, 89
1, 588968, Control_c, 0, 64, 99
1, 588974, Note_on_c, 0, 72, 46
1, 588974, Note_on_c, 0, 69, 47
1, 588984, Note_off_c, 0, 64, 64
1, 588984, Control_c, 0, 64, 114
1, 588999, Control_c, 0, 64, 127
1, 589024, Note_off_c, 0, 69, 54
1, 589033, Note_off_c, 0, 72, 54
1, 589172, Note_on_c, 0, 69, 40
1, 589174, Note_on_c, 0, 72, 34
1, 589203, Note_off_c, 0, 69, 54
1, 589207, Note_off_c, 0, 72, 51
1, 589299, Note_on_c, 0, 40, 40
1, 589334, Note_off_c, 0, 40, 46
1, 589421, Note_off_c, 0, 79, 58
1, 589430, Note_on_c, 0, 78, 55
1, 589606, Note_on_c, 0, 57, 31
1, 589636, Note_on_c, 0, 60, 57
1, 589647, Note_off_c, 0, 57, 50
1, 589673, Note_off_c, 0, 60, 63
1, 589697, Note_on_c, 0, 64, 61
1, 589707, Note_off_c, 0, 78, 55
1, 589716, Note_off_c, 0, 64, 65
1, 589728, Note_on_c, 0, 69, 52
1, 589795, Note_on_c, 0, 72, 40
1, 589826, Note_off_c, 0, 72, 59
1, 589829, Note_on_c, 0, 76, 55
1, 589846, Note_off_c, 0, 69, 56
1, 589922, Note_on_c, 0, 84, 41
1, 589948, Note_off_c, 0, 84, 60
1, 589967, Note_on_c, 0, 88, 66
1, 589984, Note_off_c, 0, 76, 57
1, 589990, Note_off_c, 0, 88, 70
1, 590157, Note_on_c, 0, 72, 50
1, 590184, Note_on_c, 0, 69, 29
1, 590198, Note_off_c, 0, 72, 60
1, 590223, Note_off_c, 0, 69, 51
1, 590320, Note_on_c, 0, 69, 55
1, 590330, Note_on_c, 0, 72, 50
1, 590348, Control_c, 0, 67, 122
1, 590360, Note_off_c, 0, 69, 58
1, 590363, Control_c, 0, 67, 119
1, 590365, Note_off_c, 0, 72, 61
1, 590378, Control_c, 0, 67, 114
1, 590392, Control_c, 0, 67, 111
1, 590437, Control_c, 0, 67, 108
1, 590452, Control_c, 0, 67, 105
1, 590466, Control_c, 0, 67, 95
1, 590481, Control_c, 0, 67, 83
1, 590496, Control_c, 0, 67, 73
1, 590510, Control_c, 0, 67, 61
1, 590523, Note_on_c, 0, 76, 83
1, 590525, Control_c, 0, 67, 49
1, 590540, Control_c, 0, 67, 37
1, 590550, Note_on_c, 0, 60, 37
1, 590552, Note_on_c, 0, 64, 33
1, 590555, Control_c, 0, 67, 0
1, 590567, Note_on_c, 0, 69, 17
1, 590610, Note_off_c, 0, 64, 57
1, 590615, Note_off_c, 0, 69, 49
1, 590619, Note_off_c, 0, 60, 49
1, 590715, Note_on_c, 0, 69, 46
1, 590727, Note_on_c, 0, 64, 45
1, 590730, Note_on_c, 0, 60, 34
1, 590765, Note_off_c, 0, 69, 53
1, 590778, Note_off_c, 0, 64, 52
1, 590781, Note_on_c, 0, 78, 88
1, 590786, Note_off_c, 0, 60, 52
1, 590792, Note_off_c, 0, 76, 64
1, 590830, Note_off_c, 0, 78, 63
1, 590887, Note_on_c, 0, 64, 63
1, 590907, Note_on_c, 0, 69, 38
1, 590926, Note_off_c, 0, 64, 62
1, 590934, Note_off_c, 0, 69, 56
1, 591126, Note_on_c, 0, 71, 83
1, 591154, Note_on_c, 0, 63, 51
1, 591156, Control_c, 0, 64, 100
1, 591157, Note_on_c, 0, 59, 51
1, 591168, Note_on_c, 0, 66, 48
1, 591171, Control_c, 0, 64, 72
1, 591186, Control_c, 0, 64, 53
1, 591186, Control_c, 0, 67, 37
1, 591201, Control_c, 0, 64, 47
1, 591201, Control_c, 0, 67, 62
1, 591215, Control_c, 0, 64, 51
1, 591215, Control_c, 0, 67, 68
1, 591230, Control_c, 0, 64, 60
1, 591230, Control_c, 0, 67, 67
1, 591234, Note_off_c, 0, 66, 51
1, 591244, Note_off_c, 0, 63, 57
1, 591245, Control_c, 0, 64, 72
1, 591245, Control_c, 0, 67, 71
1, 591258, Note_off_c, 0, 59, 52
1, 591260, Control_c, 0, 64, 93
1, 591260, Control_c, 0, 67, 79
1, 591275, Control_c, 0, 64, 127
1, 591275, Control_c, 0, 67, 105
1, 591289, Control_c, 0, 67, 124
1, 591307, Note_on_c, 0, 66, 58
1, 591313, Note_on_c, 0, 59, 37
1, 591316, Note_on_c, 0, 63, 51
1, 591333, Control_c, 0, 67, 127
1, 591390, Note_off_c, 0, 63, 50
1, 591392, Note_off_c, 0, 66, 49
1, 591400, Note_off_c, 0, 59, 53
1, 591519, Note_on_c, 0, 66, 51
1, 591531, Note_on_c, 0, 59, 46
1, 591540, Note_on_c, 0, 63, 37
1, 591552, Note_on_c, 0, 72, 76
1, 591566, Note_off_c, 0, 71, 61
1, 591573, Note_off_c, 0, 63, 51
1, 591582, Note_off_c, 0, 66, 51
1, 591594, Note_off_c, 0, 59, 54
1, 591645, Note_on_c, 0, 71, 82
1, 591760, Note_off_c, 0, 72, 37
1, 591797, Note_on_c, 0, 66, 48
1, 591798, Note_on_c, 0, 63, 49
1, 591798, Note_on_c, 0, 70, 77
1, 591801, Control_c, 0, 64, 80
1, 591811, Note_on_c, 0, 59, 48
1, 591816, Control_c, 0, 64, 62
1, 591830, Control_c, 0, 64, 52
1, 591838, Note_off_c, 0, 71, 57
1, 591845, Control_c, 0, 64, 53
1, 591860, Control_c, 0, 64, 59
1, 591875, Control_c, 0, 64, 69
1, 591888, Note_off_c, 0, 59, 58
1, 591888, Note_off_c, 0, 66, 57
1, 591889, Note_off_c, 0, 63, 54
1, 591889, Control_c, 0, 64, 89
1, 591904, Control_c, 0, 64, 127
1, 591976, Note_on_c, 0, 66, 49
1, 591984, Note_on_c, 0, 63, 40
1, 591987, Note_on_c, 0, 59, 36
1, 591993, Note_off_c, 0, 70, 63
1, 592041, Note_off_c, 0, 63, 53
1, 592053, Note_off_c, 0, 59, 51
1, 592059, Note_on_c, 0, 71, 90
1, 592071, Note_off_c, 0, 66, 39
1, 592097, Control_c, 0, 67, 118
1, 592112, Control_c, 0, 67, 88
1, 592127, Control_c, 0, 67, 64
1, 592142, Control_c, 0, 67, 42
1, 592156, Control_c, 0, 67, 35
1, 592169, Note_on_c, 0, 59, 50
1, 592171, Note_on_c, 0, 66, 59
1, 592173, Note_on_c, 0, 63, 56
1, 592189, Note_off_c, 0, 71, 61
1, 592200, Note_off_c, 0, 66, 62
1, 592202, Note_off_c, 0, 59, 55
1, 592202, Control_c, 0, 67, 37
1, 592208, Note_off_c, 0, 63, 62
1, 592217, Control_c, 0, 67, 46
1, 592232, Control_c, 0, 67, 59
1, 592247, Control_c, 0, 67, 65
1, 592261, Control_c, 0, 67, 71
1, 592276, Control_c, 0, 67, 75
1, 592291, Control_c, 0, 67, 84
1, 592306, Control_c, 0, 67, 98
1, 592321, Control_c, 0, 67, 119
1, 592335, Control_c, 0, 67, 127
1, 592377, Note_on_c, 0, 72, 78
1, 592408, Note_on_c, 0, 57, 47
1, 592409, Control_c, 0, 64, 82
1, 592410, Note_on_c, 0, 64, 47
1, 592417, Note_on_c, 0, 66, 45
1, 592424, Control_c, 0, 64, 61
1, 592439, Control_c, 0, 64, 40
1, 592453, Control_c, 0, 64, 0
1, 592478, Note_off_c, 0, 66, 49
1, 592483, Control_c, 0, 64, 34
1, 592501, Note_off_c, 0, 57, 53
1, 592503, Note_off_c, 0, 64, 60
1, 592505, Control_c, 0, 64, 52
1, 592520, Control_c, 0, 64, 69
1, 592535, Control_c, 0, 64, 86
1, 592550, Control_c, 0, 64, 126
1, 592599, Note_on_c, 0, 57, 39
1, 592609, Note_on_c, 0, 64, 41
1, 592611, Note_on_c, 0, 66, 44
1, 592655, Note_off_c, 0, 72, 56
1, 592665, Note_off_c, 0, 66, 53
1, 592666, Note_off_c, 0, 64, 60
1, 592667, Note_off_c, 0, 57, 52
1, 592797, Note_on_c, 0, 57, 46
1, 592798, Note_on_c, 0, 64, 41
1, 592803, Note_on_c, 0, 66, 38
1, 592859, Note_off_c, 0, 66, 52
1, 592866, Note_off_c, 0, 64, 57
1, 592867, Note_off_c, 0, 57, 51
1, 593058, Note_on_c, 0, 74, 68
1, 593066, Note_on_c, 0, 57, 8
1, 593069, Note_on_c, 0, 64, 46
1, 593069, Note_on_c, 0, 66, 43
1, 593137, Note_off_c, 0, 74, 60
1, 593143, Note_off_c, 0, 66, 50
1, 593149, Note_off_c, 0, 64, 59
1, 593174, Note_off_c, 0, 57, 38
1, 593291, Note_on_c, 0, 57, 37
1, 593296, Note_on_c, 0, 64, 37
1, 593300, Note_on_c, 0, 66, 31
1, 593361, Note_off_c, 0, 64, 44
1, 593370, Note_on_c, 0, 72, 72
1, 593370, Note_off_c, 0, 66, 42
1, 593394, Note_off_c, 0, 57, 35
1, 593429, Note_off_c, 0, 72, 58
1, 593493, Note_on_c, 0, 66, 41
1, 593529, Poly_aftertouch_c, 0, 57, 127
1, 593537, Poly_aftertouch_c, 0, 64, 127
1, 593538, Note_off_c, 0, 66, 51
1, 593570, Poly_aftertouch_c, 0, 57, 0
1, 593574, Poly_aftertouch_c, 0, 64, 0
1, 593719, Note_on_c, 0, 71, 63
1, 593731, Note_on_c, 0, 63, 47
1, 593741, Control_c, 0, 64, 75
1, 593743, Note_on_c, 0, 59, 44
1, 593749, Note_on_c, 0, 66, 41
1, 593756, Control_c, 0, 64, 54
1, 593772, Control_c, 0, 64, 34
1, 593787, Control_c, 0, 64, 31
1, 593802, Control_c, 0, 64, 37
1, 593817, Control_c, 0, 64, 54
1, 593831, Control_c, 0, 64, 68
1, 593845, Note_off_c, 0, 66, 64
1, 593846, Control_c, 0, 64, 85
1, 593861, Control_c, 0, 64, 99
1, 593874, Note_off_c, 0, 63, 61
1, 593876, Control_c, 0, 64, 108
1, 593877, Note_off_c, 0, 59, 64
1, 593890, Control_c, 0, 64, 121
1, 593905, Control_c, 0, 64, 127
1, 593982, Note_on_c, 0, 66, 43
1, 594009, Note_on_c, 0, 59, 52
1, 594024, Note_on_c, 0, 63, 31
1, 594042, Note_off_c, 0, 66, 54
1, 594047, Note_off_c, 0, 59, 57
1, 594056, Note_off_c, 0, 63, 46
1, 594161, Note_on_c, 0, 63, 43
1, 594170, Note_on_c, 0, 66, 43
1, 594177, Note_off_c, 0, 71, 0
1, 594181, Note_on_c, 0, 59, 40
1, 594211, Note_off_c, 0, 63, 57
1, 594214, Note_off_c, 0, 66, 60
1, 594214, Poly_aftertouch_c, 0, 71, 127
1, 594224, Note_off_c, 0, 59, 52
1, 594362, Note_on_c, 0, 35, 56
1, 594393, Note_off_c, 0, 35, 63
1, 594576, Note_on_c, 0, 59, 37
1, 594583, Poly_aftertouch_c, 0, 71, 0
1, 594611, Note_off_c, 0, 59, 52
1, 594617, Note_on_c, 0, 63, 58
1, 594646, Note_on_c, 0, 54, 52
1, 594656, Note_off_c, 0, 63, 64
1, 594677, Note_on_c, 0, 66, 58
1, 594677, Note_off_c, 0, 54, 64
1, 594698, Note_off_c, 0, 66, 64
1, 594702, Note_on_c, 0, 59, 60
1, 594735, Note_off_c, 0, 59, 66
1, 594766, Note_on_c, 0, 71, 73
1, 594796, Note_off_c, 0, 71, 58
1, 594831, Note_on_c, 0, 63, 44
1, 594843, Note_on_c, 0, 75, 64
1, 594869, Note_on_c, 0, 78, 62
1, 594895, Note_on_c, 0, 66, 55
1, 594897, Note_off_c, 0, 63, 54
1, 594917, Note_on_c, 0, 83, 75
1, 594919, Note_off_c, 0, 75, 63
1, 594921, Note_on_c, 0, 59, 73
1, 594921, Note_off_c, 0, 66, 67
1, 594926, Note_off_c, 0, 78, 61
1, 594942, Note_off_c, 0, 83, 63
1, 594944, Note_off_c, 0, 59, 66
1, 595140, Note_on_c, 0, 66, 71
1, 595151, Note_on_c, 0, 63, 55
1, 595183, Note_on_c, 0, 59, 36
1, 595183, Note_off_c, 0, 63, 65
1, 595192, Note_off_c, 0, 66, 61
1, 595204, Note_off_c, 0, 59, 62
1, 595320, Note_on_c, 0, 66, 68
1, 595325, Note_on_c, 0, 59, 38
1, 595325, Note_on_c, 0, 63, 61
1, 595363, Note_off_c, 0, 59, 60
1, 595365, Note_off_c, 0, 63, 62
1, 595381, Note_off_c, 0, 66, 64
1, 595633, Control_c, 0, 67, 125
1, 595634, Note_on_c, 0, 59, 88
1, 595648, Control_c, 0, 67, 121
1, 595663, Control_c, 0, 67, 116
1, 595677, Note_on_c, 0, 66, 37
1, 595678, Control_c, 0, 67, 112
1, 595693, Control_c, 0, 67, 105
1, 595708, Control_c, 0, 67, 96
1, 595719, Note_off_c, 0, 66, 49
1, 595722, Control_c, 0, 67, 88
1, 595726, Poly_aftertouch_c, 0, 63, 127
1, 595737, Control_c, 0, 67, 82
1, 595752, Control_c, 0, 67, 73
1, 595755, Poly_aftertouch_c, 0, 63, 0
1, 595767, Control_c, 0, 67, 62
1, 595782, Control_c, 0, 67, 51
1, 595796, Control_c, 0, 67, 44
1, 595811, Control_c, 0, 67, 38
1, 595826, Control_c, 0, 67, 0
1, 595863, Note_on_c, 0, 66, 51
1, 595869, Note_on_c, 0, 63, 45
1, 595885, Note_off_c, 0, 59, 59
1, 595919, Note_off_c, 0, 63, 54
1, 595934, Note_off_c, 0, 66, 53
1, 595970, Note_on_c, 0, 57, 92
1, 596068, Note_on_c, 0, 66, 56
1, 596096, Note_off_c, 0, 57, 63
1, 596100, Note_off_c, 0, 66, 66
1, 596342, Note_on_c, 0, 55, 76
1, 596349, Note_on_c, 0, 43, 68
1, 596355, Note_on_c, 0, 74, 54
1, 596382, Control_c, 0, 64, 107
1, 596384, Note_on_c, 0, 71, 31
1, 596397, Control_c, 0, 64, 69
1, 596412, Control_c, 0, 64, 35
1, 596426, Control_c, 0, 64, 0
1, 596438, Note_off_c, 0, 71, 45
1, 596471, Note_off_c, 0, 74, 48
1, 596515, Control_c, 0, 64, 38
1, 596530, Control_c, 0, 64, 62
1, 596536, Note_off_c, 0, 43, 62
1, 596545, Control_c, 0, 64, 82
1, 596560, Control_c, 0, 64, 127
1, 596575, Note_on_c, 0, 71, 47
1, 596580, Note_on_c, 0, 74, 55
1, 596583, Note_on_c, 0, 67, 52
1, 596590, Control_c, 0, 67, 36
1, 596605, Control_c, 0, 67, 37
1, 596619, Control_c, 0, 67, 35
1, 596624, Note_off_c, 0, 71, 50
1, 596649, Control_c, 0, 67, 38
1, 596657, Note_off_c, 0, 67, 39
1, 596663, Control_c, 0, 67, 41
1, 596664, Note_off_c, 0, 74, 34
1, 596678, Control_c, 0, 67, 40
1, 596693, Control_c, 0, 67, 39
1, 596723, Control_c, 0, 67, 41
1, 596738, Control_c, 0, 67, 44
1, 596752, Control_c, 0, 67, 44
1, 596767, Control_c, 0, 67, 45
1, 596779, Note_on_c, 0, 71, 56
1, 596784, Note_on_c, 0, 74, 64
1, 596786, Note_on_c, 0, 67, 61
1, 596812, Control_c, 0, 67, 47
1, 596826, Control_c, 0, 67, 47
1, 596831, Note_off_c, 0, 67, 52
1, 596831, Note_off_c, 0, 71, 54
1, 596841, Control_c, 0, 67, 45
1, 596849, Note_off_c, 0, 74, 43
1, 596856, Control_c, 0, 67, 45
1, 596870, Control_c, 0, 67, 44
1, 596900, Control_c, 0, 67, 44
1, 596915, Control_c, 0, 67, 42
1, 596930, Control_c, 0, 67, 41
1, 596945, Control_c, 0, 67, 40
1, 596975, Control_c, 0, 67, 40
1, 596998, Control_c, 0, 67, 39
1, 597043, Control_c, 0, 67, 40
1, 597057, Control_c, 0, 67, 41
1, 597058, Note_on_c, 0, 62, 84
1, 597088, Note_on_c, 0, 74, 53
1, 597099, Note_on_c, 0, 71, 42
1, 597101, Control_c, 0, 64, 105
1, 597101, Control_c, 0, 67, 40
1, 597102, Note_on_c, 0, 67, 38
1, 597116, Control_c, 0, 64, 81
1, 597116, Control_c, 0, 67, 41
1, 597131, Control_c, 0, 64, 73
1, 597140, Note_off_c, 0, 71, 48
1, 597142, Note_off_c, 0, 67, 49
1, 597146, Control_c, 0, 64, 73
1, 597146, Control_c, 0, 67, 39
1, 597147, Note_off_c, 0, 74, 53
1, 597161, Control_c, 0, 64, 77
1, 597161, Control_c, 0, 67, 37
1, 597175, Control_c, 0, 64, 93
1, 597175, Control_c, 0, 67, 35
1, 597190, Control_c, 0, 64, 127
1, 597205, Control_c, 0, 67, 0
1, 597259, Note_on_c, 0, 67, 54
1, 597264, Note_on_c, 0, 71, 43
1, 597267, Note_on_c, 0, 74, 61
1, 597314, Note_off_c, 0, 71, 46
1, 597327, Note_off_c, 0, 67, 49
1, 597335, Note_off_c, 0, 74, 55
1, 597353, Note_on_c, 0, 60, 84
1, 597415, Note_off_c, 0, 62, 59
1, 597454, Note_on_c, 0, 74, 63
1, 597456, Note_on_c, 0, 71, 58
1, 597458, Note_on_c, 0, 67, 63
1, 597481, Note_off_c, 0, 71, 63
1, 597485, Note_off_c, 0, 74, 65
1, 597489, Note_off_c, 0, 67, 65
1, 597541, Note_off_c, 0, 55, 53
1, 597664, Control_c, 0, 67, 37
1, 597679, Control_c, 0, 67, 54
1, 597693, Control_c, 0, 67, 57
1, 597723, Control_c, 0, 67, 59
1, 597729, Note_on_c, 0, 59, 82
1, 597738, Control_c, 0, 67, 65
1, 597747, Note_on_c, 0, 71, 49
1, 597756, Note_on_c, 0, 67, 43
1, 597761, Control_c, 0, 67, 76
1, 597764, Note_on_c, 0, 62, 32
1, 597776, Control_c, 0, 67, 79
1, 597788, Note_off_c, 0, 60, 56
1, 597791, Control_c, 0, 64, 93
1, 597806, Control_c, 0, 64, 69
1, 597806, Control_c, 0, 67, 81
1, 597812, Note_off_c, 0, 67, 52
1, 597821, Control_c, 0, 64, 46
1, 597821, Control_c, 0, 67, 87
1, 597833, Note_off_c, 0, 62, 43
1, 597836, Control_c, 0, 64, 0
1, 597836, Control_c, 0, 67, 102
1, 597851, Control_c, 0, 67, 110
1, 597867, Note_off_c, 0, 71, 37
1, 597895, Control_c, 0, 64, 51
1, 597895, Control_c, 0, 67, 114
1, 597910, Control_c, 0, 64, 67
1, 597910, Control_c, 0, 67, 127
1, 597924, Control_c, 0, 64, 83
1, 597939, Control_c, 0, 64, 103
1, 597954, Control_c, 0, 64, 127
1, 597957, Note_on_c, 0, 67, 52
1, 597962, Note_on_c, 0, 62, 52
1, 597978, Note_on_c, 0, 71, 51
1, 597986, Note_off_c, 0, 59, 65
1, 598011, Note_off_c, 0, 62, 57
1, 598020, Note_off_c, 0, 71, 56
1, 598023, Note_off_c, 0, 67, 51
1, 598129, Note_on_c, 0, 71, 47
1, 598130, Note_on_c, 0, 62, 52
1, 598138, Note_on_c, 0, 67, 48
1, 598166, Note_off_c, 0, 67, 63
1, 598170, Note_off_c, 0, 62, 59
1, 598180, Note_off_c, 0, 71, 51
1, 598207, Note_on_c, 0, 60, 73
1, 598267, Note_off_c, 0, 60, 58
1, 598286, Note_on_c, 0, 59, 78
1, 598384, Control_c, 0, 64, 103
1, 598388, Note_on_c, 0, 57, 70
1, 598398, Control_c, 0, 64, 75
1, 598413, Control_c, 0, 64, 57
1, 598428, Control_c, 0, 64, 31
1, 598442, Control_c, 0, 64, 0
1, 598445, Note_on_c, 0, 67, 50
1, 598446, Note_off_c, 0, 59, 58
1, 598450, Note_on_c, 0, 71, 45
1, 598452, Note_on_c, 0, 62, 45
1, 598472, Control_c, 0, 64, 48
1, 598495, Control_c, 0, 64, 66
1, 598495, Note_off_c, 0, 67, 58
1, 598504, Note_off_c, 0, 62, 50
1, 598504, Note_off_c, 0, 71, 55
1, 598510, Control_c, 0, 64, 82
1, 598524, Control_c, 0, 64, 104
1, 598539, Control_c, 0, 64, 127
1, 598610, Note_off_c, 0, 57, 60
1, 598637, Note_on_c, 0, 71, 54
1, 598647, Note_on_c, 0, 62, 45
1, 598648, Note_on_c, 0, 67, 47
1, 598689, Note_off_c, 0, 67, 58
1, 598704, Note_off_c, 0, 62, 49
1, 598730, Note_on_c, 0, 55, 69
1, 598760, Note_off_c, 0, 71, 33
1, 598762, Control_c, 0, 64, 84
1, 598777, Control_c, 0, 64, 63
1, 598792, Control_c, 0, 64, 40
1, 598807, Control_c, 0, 64, 0
1, 598821, Control_c, 0, 64, 32
1, 598836, Control_c, 0, 64, 49
1, 598851, Control_c, 0, 64, 66
1, 598865, Control_c, 0, 64, 78
1, 598871, Note_on_c, 0, 71, 59
1, 598876, Note_on_c, 0, 67, 54
1, 598878, Note_on_c, 0, 62, 48
1, 598879, Note_off_c, 0, 55, 58
1, 598880, Control_c, 0, 64, 91
1, 598895, Control_c, 0, 64, 103
1, 598910, Control_c, 0, 64, 127
1, 598917, Note_off_c, 0, 67, 62
1, 598953, Note_off_c, 0, 62, 56
1, 598965, Note_off_c, 0, 71, 37
1, 599134, Note_on_c, 0, 59, 63
1, 599160, Note_on_c, 0, 42, 40
1, 599162, Control_c, 0, 64, 97
1, 599177, Control_c, 0, 64, 70
1, 599192, Control_c, 0, 64, 46
1, 599207, Control_c, 0, 64, 0
1, 599273, Control_c, 0, 64, 37
1, 599288, Control_c, 0, 64, 52
1, 599303, Control_c, 0, 64, 64
1, 599318, Control_c, 0, 64, 74
1, 599332, Control_c, 0, 64, 85
1, 599347, Control_c, 0, 64, 97
1, 599348, Note_off_c, 0, 42, 61
1, 599362, Control_c, 0, 64, 110
1, 599377, Control_c, 0, 64, 127
1, 599397, Note_on_c, 0, 66, 38
1, 599402, Note_on_c, 0, 71, 46
1, 599404, Note_on_c, 0, 63, 36
1, 599439, Note_off_c, 0, 66, 55
1, 599441, Note_off_c, 0, 63, 53
1, 599454, Note_off_c, 0, 71, 57
1, 599561, Note_on_c, 0, 63, 43
1, 599563, Note_on_c, 0, 66, 45
1, 599588, Note_on_c, 0, 71, 51
1, 599648, Note_off_c, 0, 66, 43
1, 599652, Note_off_c, 0, 59, 42
1, 599664, Note_off_c, 0, 63, 51
1, 599733, Note_on_c, 0, 57, 59
1, 599735, Note_off_c, 0, 71, 61
1, 599869, Note_off_c, 0, 57, 59
1, 599931, Note_on_c, 0, 54, 45
1, 599996, Note_off_c, 0, 54, 59
1, 600006, Note_on_c, 0, 57, 59
1, 600040, Note_on_c, 0, 71, 60
1, 600055, Note_off_c, 0, 57, 61
1, 600064, Note_on_c, 0, 63, 70
1, 600090, Note_off_c, 0, 71, 54
1, 600094, Note_off_c, 0, 63, 65
1, 600112, Note_on_c, 0, 75, 61
1, 600128, Note_on_c, 0, 66, 68
1, 600141, Note_off_c, 0, 75, 68
1, 600149, Note_on_c, 0, 78, 62
1, 600156, Note_off_c, 0, 66, 68
1, 600178, Note_off_c, 0, 78, 65
1, 600225, Note_on_c, 0, 83, 80
1, 600271, Note_off_c, 0, 83, 62
1, 600287, Note_on_c, 0, 95, 84
1, 600307, Note_off_c, 0, 95, 73
1, 600571, Note_on_c, 0, 66, 41
1, 600577, Note_on_c, 0, 63, 41
1, 600579, Note_on_c, 0, 71, 45
1, 600606, Note_off_c, 0, 66, 59
1, 600608, Note_off_c, 0, 63, 51
1, 600626, Note_off_c, 0, 71, 57
1, 600740, Note_on_c, 0, 71, 55
1, 600741, Note_on_c, 0, 66, 34
1, 600770, Note_off_c, 0, 66, 56
1, 600784, Note_off_c, 0, 71, 56
1, 600909, Note_on_c, 0, 57, 78
1, 600980, Poly_aftertouch_c, 0, 54, 0
1, 600980, Control_c, 0, 67, 115
1, 600995, Control_c, 0, 67, 104
1, 601008, Poly_aftertouch_c, 0, 71, 127
1, 601010, Control_c, 0, 67, 92
1, 601024, Control_c, 0, 67, 79
1, 601039, Control_c, 0, 67, 61
1, 601040, Poly_aftertouch_c, 0, 71, 0
1, 601053, Control_c, 0, 67, 37
1, 601067, Control_c, 0, 67, 0
1, 601102, Note_on_c, 0, 71, 43
1, 601112, Note_on_c, 0, 63, 37
1, 601127, Note_on_c, 0, 66, 36
1, 601145, Note_off_c, 0, 63, 50
1, 601161, Note_off_c, 0, 66, 50
1, 601201, Note_on_c, 0, 59, 89
1, 601221, Note_off_c, 0, 57, 65
1, 601231, Note_off_c, 0, 71, 35
1, 601265, Note_off_c, 0, 59, 64
1, 601340, Note_on_c, 0, 71, 31
1, 601370, Poly_aftertouch_c, 0, 66, 127
1, 601383, Note_off_c, 0, 71, 49
1, 601404, Poly_aftertouch_c, 0, 66, 0
1, 601546, Note_on_c, 0, 52, 73
1, 601559, Note_on_c, 0, 40, 55
1, 601592, Note_on_c, 0, 71, 38
1, 601609, Control_c, 0, 64, 114
1, 601623, Control_c, 0, 64, 81
1, 601638, Control_c, 0, 64, 61
1, 601653, Control_c, 0, 64, 38
1, 601653, Control_c, 0, 67, 44
1, 601664, Note_off_c, 0, 71, 38
1, 601667, Control_c, 0, 64, 0
1, 601667, Control_c, 0, 67, 68
1, 601682, Control_c, 0, 67, 75
1, 601697, Control_c, 0, 64, 36
1, 601712, Control_c, 0, 64, 54
1, 601712, Control_c, 0, 67, 78
1, 601723, Note_off_c, 0, 40, 62
1, 601727, Control_c, 0, 64, 68
1, 601727, Control_c, 0, 67, 88
1, 601741, Control_c, 0, 64, 80
1, 601741, Control_c, 0, 67, 115
1, 601756, Control_c, 0, 64, 94
1, 601756, Control_c, 0, 67, 127
1, 601765, Note_on_c, 0, 64, 48
1, 601767, Note_on_c, 0, 71, 50
1, 601772, Control_c, 0, 64, 110
1, 601777, Note_on_c, 0, 67, 40
1, 601787, Control_c, 0, 64, 127
1, 601814, Note_off_c, 0, 67, 51
1, 601826, Note_off_c, 0, 64, 54
1, 601840, Note_off_c, 0, 71, 49
1, 601959, Note_on_c, 0, 71, 50
1, 601963, Note_on_c, 0, 64, 37
1, 601997, Poly_aftertouch_c, 0, 67, 127
1, 602000, Note_on_c, 0, 67, 3
1, 602008, Note_off_c, 0, 64, 46
1, 602032, Note_off_c, 0, 52, 55
1, 602043, Note_off_c, 0, 67, 48
1, 602046, Note_on_c, 0, 54, 79
1, 602143, Note_on_c, 0, 52, 79
1, 602146, Note_off_c, 0, 71, 27
1, 602171, Note_off_c, 0, 54, 59
1, 602269, Control_c, 0, 64, 94
1, 602284, Control_c, 0, 64, 71
1, 602298, Control_c, 0, 64, 53
1, 602307, Note_on_c, 0, 71, 42
1, 602313, Control_c, 0, 64, 0
1, 602325, Note_on_c, 0, 51, 79
1, 602330, Note_on_c, 0, 67, 38
1, 602340, Note_on_c, 0, 64, 17
1, 602379, Note_off_c, 0, 67, 48
1, 602387, Control_c, 0, 64, 49
1, 602394, Note_off_c, 0, 52, 59
1, 602396, Note_off_c, 0, 64, 46
1, 602402, Control_c, 0, 64, 66
1, 602416, Control_c, 0, 64, 84
1, 602431, Control_c, 0, 64, 106
1, 602433, Note_off_c, 0, 71, 37
1, 602446, Control_c, 0, 64, 127
1, 602546, Note_on_c, 0, 71, 51
1, 602558, Note_on_c, 0, 64, 28
1, 602567, Note_on_c, 0, 67, 25
1, 602600, Note_off_c, 0, 51, 44
1, 602608, Note_off_c, 0, 67, 49
1, 602611, Note_on_c, 0, 52, 85
1, 602624, Note_off_c, 0, 64, 43
1, 602640, Control_c, 0, 64, 99
1, 602655, Control_c, 0, 64, 70
1, 602656, Note_off_c, 0, 71, 36
1, 602669, Control_c, 0, 64, 46
1, 602684, Control_c, 0, 64, 0
1, 602728, Control_c, 0, 64, 41
1, 602743, Control_c, 0, 64, 61
1, 602750, Note_on_c, 0, 64, 53
1, 602756, Note_on_c, 0, 71, 54
1, 602758, Control_c, 0, 64, 75
1, 602773, Control_c, 0, 64, 90
1, 602780, Note_off_c, 0, 71, 58
1, 602787, Control_c, 0, 64, 110
1, 602789, Note_off_c, 0, 64, 63
1, 602802, Control_c, 0, 64, 127
1, 602842, Poly_aftertouch_c, 0, 67, 0
1, 602868, Note_off_c, 0, 52, 50
1, 603013, Note_on_c, 0, 55, 73
1, 603040, Note_on_c, 0, 36, 51
1, 603062, Control_c, 0, 64, 91
1, 603076, Control_c, 0, 64, 68
1, 603091, Control_c, 0, 64, 46
1, 603106, Control_c, 0, 64, 0
1, 603195, Control_c, 0, 64, 48
1, 603210, Control_c, 0, 64, 62
1, 603225, Control_c, 0, 64, 67
1, 603239, Control_c, 0, 64, 69
1, 603252, Note_off_c, 0, 36, 61
1, 603254, Control_c, 0, 64, 73
1, 603269, Control_c, 0, 64, 82
1, 603284, Note_on_c, 0, 64, 51
1, 603284, Control_c, 0, 64, 100
1, 603287, Note_on_c, 0, 58, 45
1, 603299, Control_c, 0, 64, 127
1, 603323, Note_off_c, 0, 58, 53
1, 603331, Note_off_c, 0, 64, 59
1, 603394, Note_off_c, 0, 55, 49
1, 603493, Note_on_c, 0, 58, 41
1, 603498, Note_on_c, 0, 64, 41
1, 603541, Note_off_c, 0, 58, 49
1, 603604, Note_off_c, 0, 64, 43
1, 603784, Note_on_c, 0, 54, 62
1, 603792, Note_on_c, 0, 64, 41
1, 603823, Note_on_c, 0, 58, 19
1, 603840, Control_c, 0, 64, 86
1, 603855, Control_c, 0, 64, 64
1, 603865, Note_off_c, 0, 58, 50
1, 603869, Note_off_c, 0, 64, 51
1, 603869, Control_c, 0, 64, 52
1, 603884, Control_c, 0, 64, 48
1, 603899, Control_c, 0, 64, 51
1, 603914, Control_c, 0, 64, 59
1, 603929, Control_c, 0, 64, 69
1, 603944, Control_c, 0, 64, 82
1, 603959, Control_c, 0, 64, 98
1, 603974, Control_c, 0, 64, 117
1, 603985, Note_on_c, 0, 58, 42
1, 603989, Control_c, 0, 64, 127
1, 604002, Note_on_c, 0, 64, 48
1, 604050, Note_off_c, 0, 58, 49
1, 604079, Note_off_c, 0, 64, 47
1, 604113, Note_on_c, 0, 52, 72
1, 604122, Note_off_c, 0, 54, 55
1, 604200, Note_off_c, 0, 52, 63
1, 604218, Note_on_c, 0, 64, 53
1, 604232, Note_on_c, 0, 58, 46
1, 604263, Note_off_c, 0, 58, 60
1, 604287, Note_off_c, 0, 64, 63
1, 604608, Note_on_c, 0, 47, 48
1, 604612, Note_on_c, 0, 35, 48
1, 604619, Control_c, 0, 64, 89
1, 604634, Control_c, 0, 64, 67
1, 604649, Control_c, 0, 64, 45
1, 604664, Control_c, 0, 64, 0
1, 604708, Control_c, 0, 64, 42
1, 604723, Control_c, 0, 64, 60
1, 604736, Note_off_c, 0, 35, 63
1, 604738, Control_c, 0, 64, 69
1, 604753, Control_c, 0, 64, 76
1, 604767, Control_c, 0, 64, 84
1, 604768, Note_off_c, 0, 47, 63
1, 604782, Control_c, 0, 64, 88
1, 604797, Control_c, 0, 64, 94
1, 604811, Control_c, 0, 64, 102
1, 604826, Control_c, 0, 64, 114
1, 604841, Control_c, 0, 64, 127
1, 604966, Note_on_c, 0, 66, 43
1, 604996, Note_on_c, 0, 51, 47
1, 604999, Note_on_c, 0, 63, 9
1, 605009, Poly_aftertouch_c, 0, 59, 127
1, 605041, Note_off_c, 0, 51, 58
1, 605053, Poly_aftertouch_c, 0, 54, 127
1, 605059, Note_off_c, 0, 66, 57
1, 605061, Note_off_c, 0, 63, 45
1, 605062, Poly_aftertouch_c, 0, 59, 0
1, 605094, Poly_aftertouch_c, 0, 54, 0
1, 605187, Note_on_c, 0, 51, 41
1, 605188, Note_on_c, 0, 66, 54
1, 605190, Note_on_c, 0, 54, 44
1, 605190, Note_on_c, 0, 63, 36
1, 605193, Note_on_c, 0, 59, 37
1, 605227, Note_off_c, 0, 54, 53
1, 605237, Note_off_c, 0, 63, 58
1, 605238, Note_off_c, 0, 59, 49
1, 605240, Note_off_c, 0, 51, 51
1, 605243, Note_off_c, 0, 66, 58
1, 605364, Note_on_c, 0, 51, 53
1, 605364, Note_on_c, 0, 66, 58
1, 605366, Note_on_c, 0, 54, 51
1, 605376, Note_on_c, 0, 63, 42
1, 605384, Note_on_c, 0, 59, 37
1, 605390, Note_off_c, 0, 51, 58
1, 605400, Note_off_c, 0, 66, 62
1, 605405, Note_off_c, 0, 63, 53
1, 605406, Note_off_c, 0, 54, 58
1, 605413, Note_off_c, 0, 59, 56
1, 605549, Note_on_c, 0, 63, 49
1, 605566, Note_on_c, 0, 59, 29
1, 605574, Note_on_c, 0, 54, 41
1, 605616, Note_off_c, 0, 63, 51
1, 605619, Note_off_c, 0, 54, 55
1, 605651, Note_off_c, 0, 59, 40
1, 605768, Note_on_c, 0, 54, 35
1, 605778, Note_on_c, 0, 63, 34
1, 605801, Note_on_c, 0, 59, 18
1, 605818, Note_off_c, 0, 54, 57
1, 605832, Note_off_c, 0, 63, 43
1, 605842, Note_off_c, 0, 59, 49
1, 605986, Note_on_c, 0, 54, 33
1, 605992, Note_on_c, 0, 63, 40
1, 606023, Note_on_c, 0, 59, 11
1, 606037, Note_off_c, 0, 54, 52
1, 606052, Note_off_c, 0, 63, 39
1, 606078, Note_off_c, 0, 59, 46
1, 606205, Note_on_c, 0, 54, 36
1, 606220, Note_on_c, 0, 63, 34
1, 606242, Note_off_c, 0, 54, 52
1, 606252, Poly_aftertouch_c, 0, 59, 127
1, 606260, Note_off_c, 0, 63, 48
1, 606305, Poly_aftertouch_c, 0, 59, 0
1, 606418, Note_on_c, 0, 63, 42
1, 606434, Note_on_c, 0, 54, 29
1, 606450, Note_off_c, 0, 63, 57
1, 606472, Note_off_c, 0, 54, 49
1, 606691, Note_on_c, 0, 70, 68
1, 606734, Note_on_c, 0, 54, 33
1, 606747, Note_on_c, 0, 59, 22
1, 606817, Note_off_c, 0, 54, 34
1, 606838, Note_off_c, 0, 59, 38
1, 607033, Note_on_c, 0, 54, 39
1, 607041, Note_on_c, 0, 63, 45
1, 607057, Note_on_c, 0, 59, 34
1, 607110, Note_off_c, 0, 54, 51
1, 607125, Note_off_c, 0, 59, 49
1, 607143, Note_off_c, 0, 70, 60
1, 607158, Note_off_c, 0, 63, 29
1, 607180, Note_on_c, 0, 71, 66
1, 607321, Note_on_c, 0, 54, 44
1, 607345, Note_off_c, 0, 54, 62
1, 607349, Note_on_c, 0, 63, 47
1, 607399, Poly_aftertouch_c, 0, 59, 0
1, 607400, Note_off_c, 0, 63, 55
1, 607742, Note_on_c, 0, 72, 62
1, 607759, Note_on_c, 0, 47, 36
1, 607762, Control_c, 0, 64, 93
1, 607767, Note_on_c, 0, 35, 46
1, 607777, Control_c, 0, 64, 71
1, 607778, Note_off_c, 0, 71, 55
1, 607791, Control_c, 0, 64, 54
1, 607806, Control_c, 0, 64, 35
1, 607821, Control_c, 0, 64, 0
1, 607835, Control_c, 0, 64, 32
1, 607850, Control_c, 0, 64, 48
1, 607865, Control_c, 0, 64, 65
1, 607880, Control_c, 0, 64, 82
1, 607882, Note_off_c, 0, 35, 63
1, 607895, Control_c, 0, 64, 102
1, 607909, Control_c, 0, 64, 118
1, 607921, Note_off_c, 0, 47, 62
1, 607924, Control_c, 0, 64, 127
1, 608174, Note_on_c, 0, 64, 35
1, 608182, Note_on_c, 0, 54, 30
1, 608186, Note_on_c, 0, 57, 38
1, 608205, Note_on_c, 0, 60, 13
1, 608234, Note_off_c, 0, 64, 44
1, 608253, Note_off_c, 0, 57, 52
1, 608254, Note_off_c, 0, 54, 54
1, 608263, Note_off_c, 0, 60, 47
1, 608416, Note_on_c, 0, 54, 37
1, 608428, Note_on_c, 0, 57, 31
1, 608434, Note_on_c, 0, 64, 50
1, 608445, Note_on_c, 0, 60, 18
1, 608478, Note_off_c, 0, 64, 58
1, 608482, Note_off_c, 0, 57, 51
1, 608487, Note_off_c, 0, 54, 50
1, 608496, Note_off_c, 0, 60, 47
1, 608632, Note_on_c, 0, 69, 70
1, 608654, Note_on_c, 0, 54, 31
1, 608670, Note_on_c, 0, 57, 28
1, 608701, Note_off_c, 0, 54, 56
1, 608706, Poly_aftertouch_c, 0, 60, 127
1, 608708, Note_off_c, 0, 57, 51
1, 608749, Poly_aftertouch_c, 0, 60, 0
1, 608767, Note_off_c, 0, 72, 38
1, 608818, Note_on_c, 0, 54, 48
1, 608821, Note_on_c, 0, 64, 44
1, 608848, Note_off_c, 0, 54, 57
1, 608848, Note_off_c, 0, 64, 55
1, 608865, Poly_aftertouch_c, 0, 57, 127
1, 608895, Control_c, 0, 67, 118
1, 608906, Poly_aftertouch_c, 0, 57, 0
1, 608910, Control_c, 0, 67, 108
1, 608914, Note_on_c, 0, 67, 74
1, 608925, Control_c, 0, 67, 94
1, 608940, Control_c, 0, 67, 79
1, 608955, Control_c, 0, 67, 63
1, 608978, Control_c, 0, 67, 51
1, 608993, Control_c, 0, 67, 40
1, 609007, Control_c, 0, 67, 0
1, 609009, Note_on_c, 0, 55, 44
1, 609026, Note_on_c, 0, 60, 18
1, 609041, Note_on_c, 0, 64, 48
1, 609062, Note_off_c, 0, 55, 56
1, 609071, Note_off_c, 0, 69, 36
1, 609076, Note_off_c, 0, 60, 47
1, 609098, Note_off_c, 0, 64, 59
1, 609189, Note_on_c, 0, 66, 76
1, 609193, Note_on_c, 0, 57, 53
1, 609193, Note_on_c, 0, 60, 46
1, 609213, Note_off_c, 0, 67, 61
1, 609238, Note_off_c, 0, 60, 55
1, 609245, Note_off_c, 0, 57, 55
1, 609364, Note_on_c, 0, 57, 54
1, 609378, Note_on_c, 0, 60, 35
1, 609387, Note_on_c, 0, 64, 45
1, 609409, Note_off_c, 0, 57, 55
1, 609414, Note_off_c, 0, 60, 54
1, 609421, Note_off_c, 0, 64, 53
1, 609533, Note_on_c, 0, 57, 52
1, 609541, Note_on_c, 0, 64, 49
1, 609560, Note_on_c, 0, 60, 30
1, 609602, Note_off_c, 0, 57, 42
1, 609604, Note_off_c, 0, 60, 47
1, 609646, Note_off_c, 0, 64, 33
1, 609730, Note_on_c, 0, 69, 76
1, 609739, Note_off_c, 0, 66, 59
1, 609752, Note_on_c, 0, 57, 47
1, 609760, Note_on_c, 0, 60, 16
1, 609760, Note_on_c, 0, 54, 34
1, 609792, Note_off_c, 0, 57, 59
1, 609798, Note_off_c, 0, 54, 55
1, 609801, Note_off_c, 0, 60, 50
1, 609882, Note_on_c, 0, 64, 58
1, 609909, Note_on_c, 0, 57, 44
1, 609912, Note_on_c, 0, 54, 35
1, 609918, Note_on_c, 0, 60, 37
1, 609927, Note_off_c, 0, 64, 59
1, 609954, Note_off_c, 0, 57, 57
1, 609955, Note_off_c, 0, 60, 50
1, 609960, Note_off_c, 0, 54, 47
1, 609974, Note_off_c, 0, 69, 51
1, 609977, Note_on_c, 0, 72, 78
1, 610060, Note_on_c, 0, 54, 58
1, 610079, Note_on_c, 0, 57, 30
1, 610098, Note_off_c, 0, 54, 61
1, 610108, Poly_aftertouch_c, 0, 60, 127
1, 610111, Note_off_c, 0, 57, 47
1, 610148, Poly_aftertouch_c, 0, 60, 0
1, 610153, Note_on_c, 0, 64, 28
1, 610186, Control_c, 0, 67, 37
1, 610201, Control_c, 0, 67, 42
1, 610204, Note_off_c, 0, 64, 48
1, 610231, Control_c, 0, 67, 44
1, 610246, Control_c, 0, 67, 50
1, 610260, Control_c, 0, 67, 72
1, 610275, Control_c, 0, 67, 95
1, 610290, Control_c, 0, 67, 112
1, 610305, Control_c, 0, 67, 125
1, 610320, Control_c, 0, 67, 127
1, 610335, Control_c, 0, 64, 98
1, 610336, Note_on_c, 0, 76, 71
1, 610349, Control_c, 0, 64, 70
1, 610355, Note_on_c, 0, 35, 55
1, 610364, Control_c, 0, 64, 45
1, 610374, Note_on_c, 0, 47, 27
1, 610377, Note_off_c, 0, 72, 60
1, 610379, Control_c, 0, 64, 0
1, 610423, Control_c, 0, 64, 49
1, 610427, Note_off_c, 0, 35, 63
1, 610438, Control_c, 0, 64, 70
1, 610448, Note_off_c, 0, 47, 63
1, 610453, Control_c, 0, 64, 91
1, 610475, Control_c, 0, 64, 127
1, 610601, Note_on_c, 0, 54, 58
1, 610615, Note_on_c, 0, 69, 45
1, 610616, Note_on_c, 0, 64, 51
1, 610640, Note_off_c, 0, 54, 59
1, 610650, Note_off_c, 0, 64, 52
1, 610664, Note_off_c, 0, 69, 46
1, 610773, Note_on_c, 0, 54, 46
1, 610780, Note_on_c, 0, 69, 52
1, 610785, Note_on_c, 0, 59, 35
1, 610785, Note_on_c, 0, 64, 55
1, 610789, Note_on_c, 0, 57, 38
1, 610815, Note_off_c, 0, 54, 59
1, 610821, Note_off_c, 0, 57, 55
1, 610824, Note_off_c, 0, 76, 60
1, 610827, Note_off_c, 0, 64, 60
1, 610839, Note_off_c, 0, 59, 46
1, 610872, Note_off_c, 0, 69, 52
1, 610943, Note_on_c, 0, 75, 72
1, 610944, Note_on_c, 0, 54, 54
1, 610947, Note_on_c, 0, 57, 48
1, 610957, Note_on_c, 0, 63, 52
1, 610960, Note_on_c, 0, 59, 46
1, 610980, Note_off_c, 0, 63, 57
1, 610991, Note_off_c, 0, 54, 61
1, 611002, Note_off_c, 0, 75, 60
1, 611006, Note_off_c, 0, 57, 62
1, 611027, Note_off_c, 0, 59, 46
1, 611085, Note_on_c, 0, 54, 60
1, 611129, Note_off_c, 0, 54, 61
1, 611139, Note_on_c, 0, 57, 60
1, 611175, Note_off_c, 0, 57, 64
1, 611202, Control_c, 0, 67, 112
1, 611205, Note_on_c, 0, 59, 64
1, 611224, Control_c, 0, 67, 69
1, 611233, Note_off_c, 0, 59, 64
1, 611239, Control_c, 0, 67, 0
1, 611292, Note_on_c, 0, 63, 59
1, 611327, Note_off_c, 0, 63, 64
1, 611331, Note_on_c, 0, 66, 78
1, 611375, Note_off_c, 0, 66, 59
1, 611385, Note_on_c, 0, 69, 68
1, 611407, Note_off_c, 0, 69, 69
1, 611432, Note_on_c, 0, 71, 70
1, 611468, Note_off_c, 0, 71, 54
1, 611485, Note_on_c, 0, 75, 72
1, 611504, Note_on_c, 0, 78, 73
1, 611539, Note_off_c, 0, 75, 63
1, 611548, Note_on_c, 0, 83, 93
1, 611554, Note_off_c, 0, 78, 62
1, 611599, Note_on_c, 0, 78, 76
1, 611623, Note_on_c, 0, 75, 86
1, 611638, Note_off_c, 0, 83, 58
1, 611662, Note_off_c, 0, 78, 64
1, 611666, Note_on_c, 0, 71, 84
1, 611674, Note_off_c, 0, 75, 64
1, 611685, Note_off_c, 0, 71, 67
1, 611690, Note_on_c, 0, 69, 76
1, 611735, Note_off_c, 0, 69, 61
1, 611743, Note_on_c, 0, 66, 66
1, 611790, Note_on_c, 0, 63, 72
1, 611797, Note_off_c, 0, 66, 65
1, 611819, Note_off_c, 0, 63, 65
1, 611891, Note_on_c, 0, 59, 68
1, 611939, Note_off_c, 0, 59, 61
1, 611947, Note_on_c, 0, 57, 68
1, 612021, Note_on_c, 0, 54, 47
1, 612025, Note_off_c, 0, 57, 60
1, 612067, Note_off_c, 0, 54, 51
1, 612204, Note_on_c, 0, 70, 88
1, 612210, Control_c, 0, 64, 109
1, 612216, Note_on_c, 0, 58, 75
1, 612225, Note_on_c, 0, 54, 44
1, 612225, Control_c, 0, 64, 77
1, 612231, Note_on_c, 0, 57, 50
1, 612240, Control_c, 0, 64, 60
1, 612255, Control_c, 0, 64, 50
1, 612270, Control_c, 0, 64, 54
1, 612284, Control_c, 0, 64, 65
1, 612299, Note_off_c, 0, 57, 57
1, 612299, Control_c, 0, 64, 85
1, 612299, Note_off_c, 0, 54, 52
1, 612314, Control_c, 0, 64, 127
1, 612380, Note_on_c, 0, 57, 66
1, 612381, Note_off_c, 0, 58, 62
1, 612391, Note_off_c, 0, 70, 60
1, 612416, Note_on_c, 0, 54, 46
1, 612442, Note_off_c, 0, 54, 62
1, 612443, Note_off_c, 0, 57, 58
1, 612453, Note_on_c, 0, 71, 95
1, 612463, Note_on_c, 0, 59, 84
1, 612495, Note_off_c, 0, 59, 62
1, 612553, Note_on_c, 0, 54, 65
1, 612561, Note_off_c, 0, 71, 58
1, 612566, Note_on_c, 0, 57, 58
1, 612587, Note_off_c, 0, 54, 65
1, 612589, Note_off_c, 0, 57, 65
1, 612843, Note_on_c, 0, 72, 88
1, 612854, Control_c, 0, 64, 80
1, 612864, Note_on_c, 0, 60, 67
1, 612869, Control_c, 0, 64, 58
1, 612878, Note_on_c, 0, 35, 59
1, 612884, Note_on_c, 0, 47, 53
1, 612884, Control_c, 0, 64, 32
1, 612897, Note_off_c, 0, 60, 62
1, 612899, Control_c, 0, 64, 0
1, 612913, Control_c, 0, 64, 38
1, 612928, Control_c, 0, 64, 62
1, 612941, Note_off_c, 0, 35, 63
1, 612944, Control_c, 0, 64, 82
1, 612959, Control_c, 0, 64, 117
1, 612974, Control_c, 0, 64, 127
1, 612992, Note_off_c, 0, 47, 62
1, 613229, Note_on_c, 0, 57, 50
1, 613229, Note_on_c, 0, 60, 34
1, 613229, Note_on_c, 0, 66, 64
1, 613241, Note_on_c, 0, 64, 47
1, 613268, Poly_aftertouch_c, 0, 54, 127
1, 613283, Note_off_c, 0, 57, 57
1, 613287, Note_off_c, 0, 64, 51
1, 613295, Note_off_c, 0, 60, 58
1, 613303, Note_off_c, 0, 66, 56
1, 613312, Poly_aftertouch_c, 0, 54, 0
1, 613424, Note_on_c, 0, 54, 47
1, 613426, Note_on_c, 0, 66, 66
1, 613438, Note_on_c, 0, 60, 52
1, 613439, Note_on_c, 0, 64, 58
1, 613446, Note_on_c, 0, 57, 42
1, 613494, Note_off_c, 0, 57, 60
1, 613498, Note_off_c, 0, 54, 59
1, 613505, Note_off_c, 0, 64, 58
1, 613507, Note_off_c, 0, 72, 60
1, 613516, Note_off_c, 0, 66, 62
1, 613518, Note_off_c, 0, 60, 53
1, 613632, Note_on_c, 0, 54, 51
1, 613637, Note_on_c, 0, 69, 88
1, 613646, Note_on_c, 0, 57, 61
1, 613672, Note_off_c, 0, 54, 60
1, 613702, Note_off_c, 0, 57, 61
1, 613738, Poly_aftertouch_c, 0, 60, 0
1, 613778, Note_off_c, 0, 69, 60
1, 613793, Note_on_c, 0, 54, 63
1, 613808, Note_on_c, 0, 57, 50
1, 613838, Note_off_c, 0, 57, 57
1, 613850, Note_off_c, 0, 54, 61
1, 613870, Note_on_c, 0, 67, 96
1, 613907, Note_on_c, 0, 55, 32
1, 613921, Note_off_c, 0, 67, 64
1, 613942, Note_off_c, 0, 55, 50
1, 613975, Note_on_c, 0, 55, 66
1, 613987, Note_on_c, 0, 60, 65
1, 614019, Note_off_c, 0, 60, 59
1, 614035, Note_off_c, 0, 55, 61
1, 614153, Note_on_c, 0, 66, 95
1, 614156, Note_on_c, 0, 57, 80
1, 614180, Note_on_c, 0, 60, 63
1, 614198, Control_c, 0, 64, 77
1, 614220, Control_c, 0, 64, 52
1, 614235, Control_c, 0, 64, 0
1, 614254, Note_off_c, 0, 57, 63
1, 614266, Note_off_c, 0, 60, 59
1, 614309, Control_c, 0, 64, 56
1, 614323, Control_c, 0, 64, 83
1, 614324, Note_on_c, 0, 57, 78
1, 614335, Note_on_c, 0, 60, 65
1, 614338, Control_c, 0, 64, 127
1, 614366, Note_on_c, 0, 64, 59
1, 614392, Note_off_c, 0, 57, 62
1, 614409, Note_off_c, 0, 64, 60
1, 614428, Note_off_c, 0, 60, 56
1, 614478, Note_on_c, 0, 57, 80
1, 614481, Note_on_c, 0, 60, 58
1, 614493, Note_on_c, 0, 64, 73
1, 614523, Note_off_c, 0, 66, 60
1, 614532, Note_off_c, 0, 60, 62
1, 614546, Note_off_c, 0, 57, 60
1, 614581, Note_off_c, 0, 64, 59
1, 614651, Note_on_c, 0, 57, 78
1, 614654, Note_on_c, 0, 69, 84
1, 614657, Note_on_c, 0, 54, 67
1, 614703, Note_off_c, 0, 57, 58
1, 614727, Note_off_c, 0, 54, 39
1, 614727, Note_off_c, 0, 69, 60
1, 614753, Poly_aftertouch_c, 0, 66, 0
1, 614811, Note_on_c, 0, 72, 96
1, 614818, Note_on_c, 0, 54, 71
1, 614820, Note_on_c, 0, 60, 83
1, 614824, Note_on_c, 0, 57, 64
1, 614842, Note_off_c, 0, 60, 71
1, 614874, Note_off_c, 0, 72, 62
1, 614908, Note_off_c, 0, 54, 52
1, 614967, Note_off_c, 0, 57, 0
1, 614981, Note_on_c, 0, 57, 42
1, 614997, Note_on_c, 0, 52, 72
1, 614997, Note_on_c, 0, 76, 98
1, 615002, Note_on_c, 0, 60, 56
1, 615006, Note_on_c, 0, 64, 85
1, 615012, Note_off_c, 0, 57, 69
1, 615020, Note_off_c, 0, 60, 65
1, 615027, Note_off_c, 0, 64, 72
1, 615036, Note_off_c, 0, 52, 64
1, 615056, Note_off_c, 0, 76, 59
1, 615310, Note_on_c, 0, 79, 85
1, 615325, Control_c, 0, 64, 91
1, 615327, Note_on_c, 0, 67, 64
1, 615331, Note_on_c, 0, 35, 46
1, 615340, Control_c, 0, 64, 64
1, 615344, Note_on_c, 0, 47, 56
1, 615355, Control_c, 0, 64, 31
1, 615370, Control_c, 0, 64, 0
1, 615400, Control_c, 0, 64, 50
1, 615414, Control_c, 0, 64, 72
1, 615427, Note_off_c, 0, 35, 63
1, 615429, Control_c, 0, 64, 110
1, 615444, Control_c, 0, 64, 127
1, 615456, Note_off_c, 0, 47, 63
1, 615577, Note_on_c, 0, 71, 54
1, 615602, Note_on_c, 0, 57, 56
1, 615605, Note_on_c, 0, 69, 40
1, 615609, Note_on_c, 0, 51, 57
1, 615622, Note_on_c, 0, 59, 44
1, 615643, Note_off_c, 0, 69, 51
1, 615643, Note_off_c, 0, 71, 61
1, 615644, Note_off_c, 0, 57, 47
1, 615646, Note_off_c, 0, 51, 60
1, 615656, Note_off_c, 0, 59, 51
1, 615762, Note_on_c, 0, 57, 62
1, 615766, Note_on_c, 0, 59, 52
1, 615772, Note_on_c, 0, 69, 47
1, 615778, Note_on_c, 0, 51, 45
1, 615787, Note_on_c, 0, 71, 47
1, 615805, Note_off_c, 0, 79, 58
1, 615824, Note_off_c, 0, 57, 60
1, 615825, Note_off_c, 0, 51, 57
1, 615826, Note_off_c, 0, 59, 54
1, 615835, Note_off_c, 0, 67, 47
1, 615883, Note_off_c, 0, 71, 35
1, 615923, Note_on_c, 0, 78, 82
1, 615930, Note_on_c, 0, 51, 62
1, 615938, Note_on_c, 0, 66, 68
1, 615942, Note_on_c, 0, 57, 56
1, 615947, Note_on_c, 0, 59, 47
1, 615957, Note_off_c, 0, 66, 64
1, 615981, Note_off_c, 0, 78, 64
1, 615992, Note_off_c, 0, 59, 47
1, 615999, Note_off_c, 0, 57, 59
1, 616002, Note_off_c, 0, 69, 17
1, 616008, Note_off_c, 0, 51, 58
1, 616079, Note_on_c, 0, 54, 68
1, 616142, Note_off_c, 0, 54, 62
1, 616164, Note_on_c, 0, 57, 56
1, 616194, Note_off_c, 0, 57, 65
1, 616210, Note_on_c, 0, 59, 70
1, 616239, Note_off_c, 0, 59, 65
1, 616288, Note_on_c, 0, 63, 63
1, 616322, Note_off_c, 0, 63, 66
1, 616328, Note_on_c, 0, 66, 76
1, 616358, Note_off_c, 0, 66, 59
1, 616373, Note_on_c, 0, 69, 81
1, 616391, Note_off_c, 0, 69, 73
1, 616415, Note_on_c, 0, 71, 71
1, 616472, Note_on_c, 0, 75, 79
1, 616479, Note_off_c, 0, 71, 60
1, 616505, Note_on_c, 0, 78, 72
1, 616538, Note_off_c, 0, 75, 64
1, 616541, Note_on_c, 0, 83, 94
1, 616553, Note_off_c, 0, 78, 64
1, 616592, Note_on_c, 0, 78, 81
1, 616616, Note_on_c, 0, 75, 85
1, 616652, Note_off_c, 0, 83, 61
1, 616669, Note_on_c, 0, 71, 88
1, 616679, Note_off_c, 0, 78, 64
1, 616683, Note_off_c, 0, 75, 65
1, 616702, Note_off_c, 0, 71, 63
1, 616703, Note_on_c, 0, 69, 77
1, 616746, Note_off_c, 0, 69, 63
1, 616768, Note_on_c, 0, 66, 74
1, 616812, Note_on_c, 0, 63, 75
1, 616822, Note_off_c, 0, 66, 64
1, 616866, Note_off_c, 0, 63, 63
1, 616938, Note_on_c, 0, 59, 70
1, 616989, Note_off_c, 0, 59, 62
1, 616993, Note_on_c, 0, 57, 59
1, 617023, Note_off_c, 0, 57, 64
1, 617176, Note_on_c, 0, 71, 94
1, 617183, Note_on_c, 0, 59, 75
1, 617209, Control_c, 0, 64, 81
1, 617219, Note_on_c, 0, 51, 52
1, 617230, Control_c, 0, 64, 67
1, 617231, Note_on_c, 0, 57, 41
1, 617245, Control_c, 0, 64, 65
1, 617260, Control_c, 0, 64, 70
1, 617275, Control_c, 0, 64, 87
1, 617290, Control_c, 0, 64, 127
1, 617296, Note_off_c, 0, 57, 37
1, 617311, Note_off_c, 0, 59, 63
1, 617343, Note_off_c, 0, 71, 63
1, 617369, Note_off_c, 0, 51, 41
1, 617510, Note_on_c, 0, 75, 96
1, 617516, Note_on_c, 0, 63, 89
1, 617526, Note_on_c, 0, 51, 55
1, 617529, Note_on_c, 0, 59, 60
1, 617544, Note_on_c, 0, 57, 45
1, 617572, Note_off_c, 0, 63, 61
1, 617611, Note_off_c, 0, 75, 63
1, 617649, Note_off_c, 0, 57, 50
1, 617657, Note_off_c, 0, 51, 37
1, 617676, Note_off_c, 0, 59, 36
1, 617747, Note_on_c, 0, 78, 94
1, 617748, Note_on_c, 0, 66, 98
1, 617760, Note_on_c, 0, 51, 74
1, 617769, Note_on_c, 0, 59, 37
1, 617775, Note_on_c, 0, 57, 27
1, 617787, Note_off_c, 0, 66, 66
1, 617793, Note_off_c, 0, 51, 65
1, 617804, Note_off_c, 0, 59, 50
1, 617811, Note_off_c, 0, 78, 55
1, 617814, Note_off_c, 0, 57, 43
1, 618053, Control_c, 0, 64, 105
1, 618061, Note_on_c, 0, 81, 97
1, 618067, Note_on_c, 0, 69, 90
1, 618068, Control_c, 0, 64, 67
1, 618078, Note_on_c, 0, 47, 77
1, 618082, Note_on_c, 0, 35, 76
1, 618083, Control_c, 0, 64, 0
1, 618127, Control_c, 0, 64, 51
1, 618142, Control_c, 0, 64, 96
1, 618150, Note_off_c, 0, 35, 63
1, 618157, Control_c, 0, 64, 127
1, 618186, Note_off_c, 0, 47, 63
1, 618334, Note_on_c, 0, 71, 63
1, 618337, Note_on_c, 0, 55, 68
1, 618339, Note_on_c, 0, 52, 69
1, 618339, Note_on_c, 0, 76, 62
1, 618340, Note_on_c, 0, 59, 72
1, 618379, Note_off_c, 0, 52, 54
1, 618393, Note_off_c, 0, 71, 60
1, 618397, Note_off_c, 0, 55, 59
1, 618398, Note_off_c, 0, 59, 55
1, 618422, Note_off_c, 0, 76, 52
1, 618518, Note_on_c, 0, 59, 77
1, 618519, Note_on_c, 0, 55, 72
1, 618522, Note_on_c, 0, 52, 71
1, 618538, Note_on_c, 0, 71, 55
1, 618541, Note_on_c, 0, 76, 67
1, 618616, Note_off_c, 0, 81, 57
1, 618628, Note_off_c, 0, 69, 56
1, 618649, Note_off_c, 0, 52, 60
1, 618652, Note_off_c, 0, 55, 55
1, 618656, Note_off_c, 0, 59, 54
1, 618736, Note_on_c, 0, 79, 85
1, 618741, Note_on_c, 0, 67, 87
1, 618743, Note_on_c, 0, 52, 73
1, 618744, Note_on_c, 0, 55, 73
1, 618744, Note_on_c, 0, 59, 79
1, 618770, Note_off_c, 0, 52, 68
1, 618773, Note_off_c, 0, 55, 64
1, 618777, Note_off_c, 0, 71, 61
1, 618780, Note_off_c, 0, 67, 64
1, 618787, Note_off_c, 0, 59, 61
1, 618793, Note_off_c, 0, 76, 63
1, 618813, Note_off_c, 0, 79, 62
1, 618920, Note_on_c, 0, 55, 63
1, 618974, Note_on_c, 0, 59, 73
1, 618982, Note_off_c, 0, 55, 62
1, 619020, Note_off_c, 0, 59, 64
1, 619026, Note_on_c, 0, 60, 75
1, 619067, Note_off_c, 0, 60, 64
1, 619082, Note_on_c, 0, 64, 77
1, 619111, Note_off_c, 0, 64, 63
1, 619161, Note_on_c, 0, 67, 79
1, 619198, Note_off_c, 0, 67, 63
1, 619213, Note_on_c, 0, 71, 84
1, 619232, Note_off_c, 0, 71, 71
1, 619254, Note_on_c, 0, 72, 74
1, 619302, Note_on_c, 0, 76, 72
1, 619302, Note_off_c, 0, 72, 61
1, 619357, Note_on_c, 0, 79, 66
1, 619370, Note_on_c, 0, 83, 89
1, 619370, Note_off_c, 0, 76, 61
1, 619381, Note_off_c, 0, 79, 70
1, 619436, Note_on_c, 0, 79, 89
1, 619461, Note_off_c, 0, 83, 62
1, 619474, Note_on_c, 0, 76, 80
1, 619492, Note_off_c, 0, 79, 68
1, 619512, Note_off_c, 0, 76, 66
1, 619527, Note_on_c, 0, 72, 82
1, 619549, Note_off_c, 0, 72, 68
1, 619586, Note_on_c, 0, 71, 91
1, 619623, Note_off_c, 0, 71, 66
1, 619632, Note_on_c, 0, 67, 92
1, 619648, Note_off_c, 0, 67, 75
1, 619664, Note_on_c, 0, 64, 68
1, 619691, Note_off_c, 0, 64, 64
1, 619720, Note_on_c, 0, 60, 75
1, 619748, Note_on_c, 0, 59, 84
1, 619770, Note_off_c, 0, 60, 65
1, 619801, Note_off_c, 0, 59, 65
1, 619812, Note_on_c, 0, 55, 61
1, 619842, Note_off_c, 0, 55, 64
1, 619980, Control_c, 0, 64, 80
1, 619985, Note_on_c, 0, 72, 85
1, 619990, Note_on_c, 0, 60, 83
1, 619993, Note_on_c, 0, 52, 57
1, 619995, Control_c, 0, 64, 51
1, 620002, Note_on_c, 0, 59, 62
1, 620009, Control_c, 0, 64, 0
1, 620012, Note_on_c, 0, 55, 59
1, 620046, Note_off_c, 0, 52, 0
1, 620054, Control_c, 0, 64, 50
1, 620069, Control_c, 0, 64, 88
1, 620083, Poly_aftertouch_c, 0, 52, 127
1, 620083, Control_c, 0, 64, 127
1, 620088, Note_on_c, 0, 52, 8
1, 620095, Note_off_c, 0, 60, 63
1, 620118, Note_off_c, 0, 59, 52
1, 620124, Note_off_c, 0, 55, 61
1, 620124, Note_off_c, 0, 72, 63
1, 620127, Note_off_c, 0, 52, 48
1, 620225, Note_on_c, 0, 76, 96
1, 620229, Note_on_c, 0, 64, 95
1, 620233, Note_on_c, 0, 52, 52
1, 620243, Note_on_c, 0, 55, 58
1, 620244, Note_on_c, 0, 59, 59
1, 620273, Note_off_c, 0, 64, 67
1, 620303, Note_off_c, 0, 76, 60
1, 620357, Note_off_c, 0, 59, 55
1, 620359, Note_off_c, 0, 55, 58
1, 620363, Note_off_c, 0, 52, 49
1, 620414, Note_on_c, 0, 79, 94
1, 620418, Note_on_c, 0, 67, 93
1, 620422, Note_on_c, 0, 52, 53
1, 620426, Note_on_c, 0, 55, 61
1, 620453, Note_off_c, 0, 67, 63
1, 620454, Note_on_c, 0, 59, 8
1, 620456, Note_off_c, 0, 55, 63
1, 620458, Note_off_c, 0, 52, 66
1, 620462, Note_off_c, 0, 79, 67
1, 620503, Note_off_c, 0, 59, 52
1, 620685, Control_c, 0, 64, 71
1, 620700, Control_c, 0, 64, 38
1, 620703, Note_on_c, 0, 83, 93
1, 620704, Note_on_c, 0, 35, 82
1, 620706, Note_on_c, 0, 71, 100
1, 620706, Note_on_c, 0, 47, 87
1, 620714, Control_c, 0, 64, 0
1, 620729, Control_c, 0, 64, 41
1, 620744, Note_off_c, 0, 35, 62
1, 620744, Control_c, 0, 64, 68
1, 620757, Note_off_c, 0, 47, 65
1, 620758, Control_c, 0, 64, 127
1, 620981, Note_on_c, 0, 73, 76
1, 620986, Note_on_c, 0, 54, 71
1, 620986, Note_on_c, 0, 61, 79
1, 620988, Note_on_c, 0, 64, 80
1, 620990, Note_on_c, 0, 76, 70
1, 620998, Note_on_c, 0, 52, 61
1, 621032, Note_off_c, 0, 61, 57
1, 621034, Note_off_c, 0, 83, 49
1, 621035, Note_off_c, 0, 52, 57
1, 621036, Note_off_c, 0, 64, 47
1, 621057, Note_off_c, 0, 71, 57
1, 621084, Note_off_c, 0, 54, 38
1, 621177, Note_off_c, 0, 76, 64
1, 621177, Note_on_c, 0, 69, 98
1, 621180, Note_on_c, 0, 81, 76
1, 621182, Note_on_c, 0, 61, 62
1, 621184, Note_on_c, 0, 54, 74
1, 621188, Note_off_c, 0, 73, 51
1, 621191, Note_on_c, 0, 64, 58
1, 621202, Note_off_c, 0, 81, 65
1, 621208, Note_off_c, 0, 61, 61
1, 621209, Note_off_c, 0, 64, 66
1, 621215, Note_off_c, 0, 69, 66
1, 621219, Note_off_c, 0, 54, 52
1, 621272, Poly_aftertouch_c, 0, 52, 0
1, 621302, Poly_aftertouch_c, 0, 52, 0
1, 621359, Control_c, 0, 64, 114
1, 621374, Control_c, 0, 64, 70
1, 621383, Note_on_c, 0, 59, 80
1, 621385, Note_on_c, 0, 51, 78
1, 621385, Note_on_c, 0, 57, 67
1, 621386, Note_on_c, 0, 75, 84
1, 621388, Control_c, 0, 64, 31
1, 621389, Note_on_c, 0, 63, 92
1, 621394, Note_on_c, 0, 54, 57
1, 621403, Control_c, 0, 64, 0
1, 621418, Control_c, 0, 64, 46
1, 621427, Note_off_c, 0, 63, 62
1, 621433, Control_c, 0, 64, 70
1, 621434, Note_off_c, 0, 54, 63
1, 621439, Note_off_c, 0, 59, 63
1, 621442, Note_off_c, 0, 75, 63
1, 621442, Note_off_c, 0, 57, 63
1, 621446, Note_off_c, 0, 51, 61
1, 621448, Control_c, 0, 64, 127
1, 621459, Poly_aftertouch_c, 0, 56, 0
1, 621555, Note_on_c, 0, 78, 91
1, 621557, Note_on_c, 0, 54, 72
1, 621557, Note_on_c, 0, 63, 82
1, 621559, Note_on_c, 0, 66, 92
1, 621573, Note_on_c, 0, 57, 53
1, 621575, Note_on_c, 0, 68, 65
1, 621585, Note_on_c, 0, 59, 43
1, 621592, Note_off_c, 0, 68, 66
1, 621593, Note_off_c, 0, 66, 64
1, 621597, Note_off_c, 0, 57, 61
1, 621606, Note_off_c, 0, 78, 57
1, 621625, Note_off_c, 0, 59, 48
1, 621626, Note_off_c, 0, 63, 60
1, 621641, Note_off_c, 0, 54, 59
1, 621719, Note_on_c, 0, 59, 81
1, 621720, Note_on_c, 0, 66, 90
1, 621722, Note_on_c, 0, 81, 98
1, 621723, Note_on_c, 0, 69, 98
1, 621728, Note_on_c, 0, 57, 65
1, 621744, Note_off_c, 0, 66, 71
1, 621750, Note_off_c, 0, 59, 67
1, 621758, Note_off_c, 0, 69, 68
1, 621764, Note_off_c, 0, 57, 66
1, 621767, Note_off_c, 0, 81, 64
1, 621886, Control_c, 0, 64, 107
1, 621898, Note_on_c, 0, 47, 97
1, 621901, Note_on_c, 0, 35, 94
1, 621901, Control_c, 0, 64, 68
1, 621901, Note_on_c, 0, 84, 103
1, 621904, Note_on_c, 0, 72, 99
1, 621916, Control_c, 0, 64, 0
1, 621924, Note_off_c, 0, 35, 72
1, 621938, Note_off_c, 0, 47, 67
1, 621945, Control_c, 0, 64, 52
1, 621960, Control_c, 0, 64, 85
1, 621975, Control_c, 0, 64, 127
1, 622070, Note_on_c, 0, 55, 75
1, 622074, Note_on_c, 0, 59, 75
1, 622075, Note_on_c, 0, 64, 84
1, 622076, Note_off_c, 0, 72, 0
1, 622077, Note_on_c, 0, 76, 94
1, 622105, Note_off_c, 0, 84, 58
1, 622115, Note_off_c, 0, 59, 61
1, 622119, Note_off_c, 0, 55, 59
1, 622121, Note_off_c, 0, 64, 58
1, 622149, Poly_aftertouch_c, 0, 72, 0
1, 622199, Note_off_c, 0, 76, 58
1, 622208, Note_on_c, 0, 55, 76
1, 622208, Note_on_c, 0, 59, 79
1, 622210, Note_on_c, 0, 64, 82
1, 622211, Note_on_c, 0, 83, 85
1, 622214, Note_on_c, 0, 71, 102
1, 622237, Note_off_c, 0, 64, 61
1, 622245, Note_off_c, 0, 55, 64
1, 622247, Note_off_c, 0, 83, 66
1, 622253, Note_off_c, 0, 71, 66
1, 622255, Note_off_c, 0, 59, 63
1, 622349, Note_on_c, 0, 59, 85
1, 622359, Control_c, 0, 64, 106
1, 622360, Note_on_c, 0, 62, 80
1, 622363, Note_on_c, 0, 56, 80
1, 622368, Note_on_c, 0, 64, 99
1, 622369, Note_on_c, 0, 76, 91
1, 622374, Control_c, 0, 64, 70
1, 622389, Control_c, 0, 64, 43
1, 622403, Control_c, 0, 64, 0
1, 622405, Note_off_c, 0, 64, 65
1, 622408, Note_off_c, 0, 76, 66
1, 622411, Note_off_c, 0, 62, 62
1, 622418, Control_c, 0, 64, 49
1, 622423, Note_off_c, 0, 56, 62
1, 622424, Note_off_c, 0, 59, 63
1, 622433, Control_c, 0, 64, 76
1, 622455, Control_c, 0, 64, 127
1, 622507, Note_on_c, 0, 56, 85
1, 622515, Note_on_c, 0, 64, 77
1, 622520, Note_on_c, 0, 80, 94
1, 622523, Note_on_c, 0, 68, 97
1, 622530, Note_on_c, 0, 61, 63
1, 622550, Note_off_c, 0, 61, 64
1, 622557, Note_off_c, 0, 68, 64
1, 622560, Note_off_c, 0, 80, 66
1, 622562, Note_off_c, 0, 64, 63
1, 622566, Note_off_c, 0, 56, 60
1, 622646, Note_on_c, 0, 62, 82
1, 622648, Note_on_c, 0, 68, 90
1, 622655, Note_on_c, 0, 59, 73
1, 622655, Note_on_c, 0, 71, 102
1, 622655, Note_on_c, 0, 83, 101
1, 622667, Note_off_c, 0, 68, 71
1, 622679, Note_off_c, 0, 62, 64
1, 622688, Note_off_c, 0, 71, 67
1, 622693, Note_off_c, 0, 59, 64
1, 622693, Note_off_c, 0, 83, 67
1, 622797, Control_c, 0, 64, 117
1, 622810, Note_on_c, 0, 74, 109
1, 622811, Note_on_c, 0, 86, 104
1, 622812, Note_on_c, 0, 35, 105
1, 622812, Note_on_c, 0, 47, 105
1, 622812, Control_c, 0, 64, 67
1, 622826, Control_c, 0, 64, 0
1, 622833, Note_off_c, 0, 35, 74
1, 622844, Note_on_c, 0, 82, 43
1, 622846, Note_off_c, 0, 47, 68
1, 622856, Control_c, 0, 64, 55
1, 622870, Note_off_c, 0, 82, 36
1, 622871, Control_c, 0, 64, 98
1, 622886, Control_c, 0, 64, 127
1, 622948, Note_off_c, 0, 74, 0
1, 622951, Note_on_c, 0, 81, 86
1, 622956, Note_on_c, 0, 76, 99
1, 622959, Note_on_c, 0, 57, 89
1, 622961, Note_on_c, 0, 60, 84
1, 622966, Note_on_c, 0, 64, 79
1, 622977, Poly_aftertouch_c, 0, 74, 0
1, 622983, Note_on_c, 0, 84, 34
1, 622983, Note_off_c, 0, 60, 70
1, 622989, Note_off_c, 0, 57, 61
1, 622989, Note_off_c, 0, 64, 71
1, 623006, Note_off_c, 0, 86, 58
1, 623015, Note_off_c, 0, 84, 52
1, 623019, Note_off_c, 0, 76, 63
1, 623034, Note_off_c, 0, 81, 63
1, 623070, Note_on_c, 0, 57, 93
1, 623071, Note_on_c, 0, 60, 82
1, 623072, Note_on_c, 0, 64, 83
1, 623075, Note_on_c, 0, 72, 95
1, 623085, Note_on_c, 0, 84, 68
1, 623096, Note_on_c, 0, 86, 58
1, 623100, Note_off_c, 0, 64, 68
1, 623107, Note_off_c, 0, 60, 65
1, 623107, Note_off_c, 0, 72, 68
1, 623108, Note_off_c, 0, 84, 71
1, 623114, Note_on_c, 0, 74, 29
1, 623114, Note_off_c, 0, 74, 127
1, 623114, Note_off_c, 0, 57, 63
1, 623117, Note_off_c, 0, 86, 65
1, 623198, Note_on_c, 0, 57, 88
1, 623198, Note_on_c, 0, 60, 87
1, 623199, Note_on_c, 0, 66, 103
1, 623199, Note_on_c, 0, 78, 93
1, 623210, Note_on_c, 0, 64, 83
1, 623232, Note_off_c, 0, 64, 66
1, 623239, Note_off_c, 0, 66, 69
1, 623244, Note_off_c, 0, 78, 64
1, 623248, Note_off_c, 0, 60, 61
1, 623251, Note_off_c, 0, 57, 64
1, 623329, Note_on_c, 0, 57, 93
1, 623329, Note_on_c, 0, 69, 96
1, 623329, Note_on_c, 0, 81, 97
1, 623331, Note_on_c, 0, 64, 87
1, 623334, Note_on_c, 0, 60, 84
1, 623356, Note_on_c, 0, 79, 45
1, 623361, Note_off_c, 0, 69, 68
1, 623364, Note_off_c, 0, 81, 66
1, 623380, Note_off_c, 0, 64, 60
1, 623380, Note_off_c, 0, 79, 60
1, 623386, Note_off_c, 0, 60, 64
1, 623388, Note_off_c, 0, 57, 62
1, 623455, Note_on_c, 0, 84, 101
1, 623457, Note_on_c, 0, 60, 93
1, 623457, Note_on_c, 0, 72, 101
1, 623459, Note_on_c, 0, 57, 90
1, 623462, Note_on_c, 0, 64, 89
1, 623486, Note_off_c, 0, 64, 67
1, 623490, Note_off_c, 0, 60, 74
1, 623495, Note_off_c, 0, 72, 68
1, 623497, Note_off_c, 0, 84, 67
1, 623506, Note_off_c, 0, 57, 67
1, 623606, Control_c, 0, 64, 81
1, 623621, Control_c, 0, 64, 47
1, 623626, Note_on_c, 0, 35, 103
1, 623627, Note_on_c, 0, 76, 106
1, 623627, Note_on_c, 0, 88, 104
1, 623630, Note_on_c, 0, 45, 94
1, 623636, Control_c, 0, 64, 0
1, 623645, Note_off_c, 0, 35, 73
1, 623646, Note_on_c, 0, 82, 63
1, 623646, Note_off_c, 0, 82, 127
1, 623650, Control_c, 0, 64, 29
1, 623651, Note_off_c, 0, 45, 71
1, 623665, Control_c, 0, 64, 63
1, 623680, Control_c, 0, 64, 127
1, 623732, Note_on_c, 0, 82, 47
1, 623756, Note_off_c, 0, 76, 56
1, 623773, Note_on_c, 0, 57, 77
1, 623774, Note_on_c, 0, 54, 66
1, 623776, Note_on_c, 0, 59, 80
1, 623778, Note_off_c, 0, 88, 59
1, 623780, Note_on_c, 0, 78, 99
1, 623784, Note_on_c, 0, 60, 68
1, 623784, Note_on_c, 0, 81, 81
1, 623794, Note_off_c, 0, 54, 61
1, 623799, Note_off_c, 0, 57, 67
1, 623800, Note_off_c, 0, 59, 67
1, 623811, Note_off_c, 0, 60, 68
1, 623836, Note_off_c, 0, 82, 24
1, 623841, Note_off_c, 0, 81, 63
1, 623847, Note_off_c, 0, 78, 58
1, 623877, Note_on_c, 0, 54, 86
1, 623878, Note_on_c, 0, 87, 87
1, 623879, Note_on_c, 0, 59, 81
1, 623882, Note_on_c, 0, 57, 77
1, 623882, Note_on_c, 0, 75, 105
1, 623902, Note_off_c, 0, 57, 70
1, 623911, Note_off_c, 0, 75, 71
1, 623913, Note_off_c, 0, 59, 66
1, 623914, Note_off_c, 0, 87, 67
1, 623920, Note_off_c, 0, 54, 65
1, 624023, Note_on_c, 0, 66, 105
1, 624027, Note_on_c, 0, 54, 89
1, 624027, Note_on_c, 0, 78, 92
1, 624029, Note_on_c, 0, 63, 94
1, 624045, Note_off_c, 0, 54, 67
1, 624048, Note_off_c, 0, 63, 69
1, 624053, Note_off_c, 0, 66, 67
1, 624067, Note_off_c, 0, 78, 60
1, 624136, Note_on_c, 0, 54, 80
1, 624141, Note_on_c, 0, 66, 102
1, 624141, Note_on_c, 0, 69, 94
1, 624141, Note_on_c, 0, 81, 99
1, 624163, Note_off_c, 0, 69, 66
1, 624170, Note_off_c, 0, 54, 64
1, 624172, Note_off_c, 0, 81, 69
1, 624182, Note_off_c, 0, 66, 64
1, 624264, Note_on_c, 0, 57, 95
1, 624264, Note_on_c, 0, 69, 100
1, 624269, Note_on_c, 0, 87, 99
1, 624271, Note_on_c, 0, 75, 106
1, 624290, Note_on_c, 0, 88, 67
1, 624298, Note_off_c, 0, 75, 65
1, 624302, Note_off_c, 0, 57, 66
1, 624302, Note_off_c, 0, 69, 64
1, 624305, Note_off_c, 0, 87, 62
1, 624309, Note_off_c, 0, 88, 66
1, 624419, Note_on_c, 0, 67, 108
1, 624423, Note_on_c, 0, 55, 100
1, 624428, Note_on_c, 0, 90, 107
1, 624429, Control_c, 0, 64, 104
1, 624430, Note_on_c, 0, 78, 103
1, 624444, Control_c, 0, 64, 64
1, 624457, Note_off_c, 0, 67, 72
1, 624458, Control_c, 0, 64, 0
1, 624462, Note_off_c, 0, 55, 65
1, 624488, Control_c, 0, 64, 58
1, 624503, Control_c, 0, 64, 96
1, 624518, Control_c, 0, 64, 127
1, 624679, Note_on_c, 0, 47, 108
1, 624681, Note_on_c, 0, 35, 103
1, 624712, Note_off_c, 0, 35, 69
1, 624717, Note_off_c, 0, 47, 67
1, 624721, Note_off_c, 0, 90, 56
1, 624754, Note_off_c, 0, 78, 54
1, 624941, Note_on_c, 0, 76, 108
1, 624943, Note_on_c, 0, 88, 103
1, 624953, Note_on_c, 0, 67, 99
1, 624956, Note_on_c, 0, 55, 85
1, 624968, Note_off_c, 0, 76, 72
1, 624974, Note_off_c, 0, 88, 72
1, 624977, Note_off_c, 0, 67, 67
1, 624978, Note_off_c, 0, 55, 67
1, 625311, Control_c, 0, 64, 106
1, 625326, Control_c, 0, 64, 65
1, 625332, Note_on_c, 0, 59, 91
1, 625332, Note_on_c, 0, 67, 92
1, 625333, Note_on_c, 0, 71, 103
1, 625333, Note_on_c, 0, 83, 101
1, 625333, Note_on_c, 0, 91, 105
1, 625334, Note_on_c, 0, 79, 102
1, 625336, Note_on_c, 0, 64, 87
1, 625338, Note_on_c, 0, 88, 95
1, 625341, Control_c, 0, 64, 0
1, 625370, Control_c, 0, 64, 33
1, 625385, Control_c, 0, 64, 69
1, 625400, Control_c, 0, 64, 127
1, 625427, Note_off_c, 0, 91, 64
1, 625430, Note_off_c, 0, 79, 65
1, 625432, Note_off_c, 0, 71, 57
1, 625465, Note_off_c, 0, 67, 60
1, 625467, Note_off_c, 0, 88, 65
1, 625476, Note_off_c, 0, 83, 67
1, 625498, Note_off_c, 0, 59, 45
1, 625517, Note_off_c, 0, 64, 62
1, 625806, Poly_aftertouch_c, 0, 54, 127
1, 625839, Poly_aftertouch_c, 0, 54, 0
1, 625865, Note_on_c, 0, 55, 83
1, 625871, Note_on_c, 0, 52, 88
1, 625875, Note_on_c, 0, 59, 74
1, 625884, Note_on_c, 0, 47, 57
1, 625895, Note_on_c, 0, 45, 57
1, 625973, Note_off_c, 0, 45, 36
1, 625982, Note_off_c, 0, 52, 55
1, 626010, Note_off_c, 0, 55, 57
1, 626019, Note_off_c, 0, 59, 61
1, 626040, Note_off_c, 0, 47, 38
1, 626075, Note_on_c, 0, 64, 97
1, 626083, Note_on_c, 0, 35, 84
1, 626086, Note_on_c, 0, 55, 80
1, 626087, Note_on_c, 0, 59, 79
1, 626129, Note_off_c, 0, 59, 58
1, 626131, Note_off_c, 0, 55, 61
1, 626155, Note_off_c, 0, 64, 65
1, 626235, Poly_aftertouch_c, 0, 38, 0
1, 626238, Note_on_c, 0, 64, 95
1, 626240, Note_on_c, 0, 59, 88
1, 626244, Note_on_c, 0, 55, 90
1, 626249, Note_on_c, 0, 47, 95
1, 626289, Note_off_c, 0, 55, 61
1, 626294, Note_off_c, 0, 59, 57
1, 626321, Note_off_c, 0, 64, 62
1, 626336, Note_off_c, 0, 35, 60
1, 626388, Note_on_c, 0, 59, 83
1, 626393, Note_on_c, 0, 67, 89
1, 626397, Note_on_c, 0, 64, 72
1, 626400, Note_on_c, 0, 35, 87
1, 626410, Note_off_c, 0, 59, 69
1, 626415, Note_off_c, 0, 64, 73
1, 626432, Note_off_c, 0, 47, 64
1, 626441, Note_off_c, 0, 67, 66
1, 626548, Note_on_c, 0, 71, 106
1, 626551, Note_on_c, 0, 64, 98
1, 626552, Note_on_c, 0, 67, 87
1, 626554, Note_on_c, 0, 47, 93
1, 626566, Note_off_c, 0, 64, 77
1, 626568, Note_off_c, 0, 67, 76
1, 626573, Note_off_c, 0, 71, 61
1, 626575, Note_off_c, 0, 35, 60
1, 626594, Note_off_c, 0, 47, 67
1, 626918, Note_on_c, 0, 90, 99
1, 626918, Note_on_c, 0, 78, 98
1, 626923, Note_on_c, 0, 67, 84
1, 626924, Note_on_c, 0, 71, 89
1, 626927, Note_on_c, 0, 64, 75
1, 626935, Note_on_c, 0, 80, 75
1, 626954, Note_on_c, 0, 91, 62
1, 626958, Note_off_c, 0, 80, 64
1, 626964, Control_c, 0, 64, 77
1, 626965, Note_on_c, 0, 92, 31
1, 626979, Control_c, 0, 64, 51
1, 626994, Control_c, 0, 64, 0
1, 627008, Control_c, 0, 64, 31
1, 627009, Note_off_c, 0, 92, 47
1, 627023, Control_c, 0, 64, 60
1, 627025, Note_off_c, 0, 71, 60
1, 627038, Control_c, 0, 64, 87
1, 627043, Note_off_c, 0, 91, 26
1, 627053, Control_c, 0, 64, 127
1, 627058, Note_off_c, 0, 67, 62
1, 627086, Note_off_c, 0, 64, 65
1, 627203, Note_on_c, 0, 87, 34
1, 627221, Note_off_c, 0, 78, 58
1, 627243, Note_off_c, 0, 87, 59
1, 627263, Note_off_c, 0, 90, 60
1, 627297, Note_on_c, 0, 47, 89
1, 627299, Note_on_c, 0, 35, 87
1, 627503, Note_on_c, 0, 88, 103
1, 627504, Note_on_c, 0, 76, 105
1, 627534, Note_off_c, 0, 76, 70
1, 627540, Note_off_c, 0, 88, 72
1, 627541, Note_off_c, 0, 47, 53
1, 627585, Note_off_c, 0, 35, 40
1, 627657, Note_on_c, 0, 47, 91
1, 627658, Note_on_c, 0, 35, 75
1, 627684, Note_off_c, 0, 35, 64
1, 627690, Note_off_c, 0, 47, 66
1, 628039, Control_c, 0, 64, 78
1, 628044, Note_on_c, 0, 76, 101
1, 628044, Note_on_c, 0, 81, 97
1, 628045, Note_on_c, 0, 72, 94
1, 628045, Note_on_c, 0, 78, 100
1, 628046, Note_on_c, 0, 84, 92
1, 628048, Note_on_c, 0, 88, 91
1, 628050, Note_on_c, 0, 69, 76
1, 628052, Note_on_c, 0, 64, 81
1, 628053, Control_c, 0, 64, 43
1, 628056, Note_on_c, 0, 66, 79
1, 628068, Control_c, 0, 64, 0
1, 628097, Note_off_c, 0, 76, 65
1, 628098, Control_c, 0, 64, 42
1, 628113, Control_c, 0, 64, 66
1, 628122, Note_off_c, 0, 72, 63
1, 628128, Control_c, 0, 64, 120
1, 628140, Note_off_c, 0, 69, 61
1, 628143, Control_c, 0, 64, 127
1, 628147, Note_off_c, 0, 64, 61
1, 628152, Note_off_c, 0, 66, 62
1, 628295, Note_off_c, 0, 88, 40
1, 628360, Note_off_c, 0, 78, 55
1, 628395, Note_off_c, 0, 84, 59
1, 628403, Note_off_c, 0, 81, 61
1, 628477, Note_on_c, 0, 47, 76
1, 628480, Note_on_c, 0, 35, 70
1, 628578, Note_off_c, 0, 47, 59
1, 628586, Note_off_c, 0, 35, 60
1, 628694, Note_on_c, 0, 47, 65
1, 628711, Note_on_c, 0, 35, 59
1, 628899, Note_on_c, 0, 74, 91
1, 628904, Note_on_c, 0, 62, 84
1, 628948, Note_off_c, 0, 35, 55
1, 628950, Note_off_c, 0, 47, 52
1, 629055, Note_off_c, 0, 62, 61
1, 629060, Note_off_c, 0, 74, 60
1, 629090, Note_on_c, 0, 35, 58
1, 629094, Note_on_c, 0, 47, 59
1, 629215, Note_on_c, 0, 72, 90
1, 629223, Note_on_c, 0, 60, 88
1, 629235, Note_off_c, 0, 47, 56
1, 629237, Note_off_c, 0, 35, 54
1, 629344, Note_on_c, 0, 47, 74
1, 629350, Note_on_c, 0, 35, 49
1, 629362, Note_off_c, 0, 60, 58
1, 629362, Note_off_c, 0, 72, 59
1, 629376, Note_off_c, 0, 35, 58
1, 629380, Note_off_c, 0, 47, 63
1, 629517, Note_on_c, 0, 64, 90
1, 629518, Note_on_c, 0, 59, 96
1, 629518, Note_on_c, 0, 71, 93
1, 629523, Note_on_c, 0, 66, 80
1, 629532, Note_on_c, 0, 54, 70
1, 629544, Note_on_c, 0, 60, 50
1, 629559, Note_off_c, 0, 54, 65
1, 629565, Note_off_c, 0, 60, 63
1, 629601, Note_off_c, 0, 59, 46
1, 629639, Poly_aftertouch_c, 0, 68, 0
1, 629648, Note_off_c, 0, 71, 53
1, 629669, Note_off_c, 0, 64, 59
1, 629679, Note_off_c, 0, 66, 60
1, 629699, Note_on_c, 0, 47, 81
1, 629710, Note_on_c, 0, 35, 76
1, 629747, Note_off_c, 0, 35, 60
1, 629760, Note_off_c, 0, 47, 61
1, 629792, Note_on_c, 0, 69, 101
1, 629794, Note_on_c, 0, 57, 89
1, 629820, Note_off_c, 0, 57, 66
1, 629838, Note_off_c, 0, 69, 67
1, 629905, Note_on_c, 0, 47, 85
1, 629906, Note_on_c, 0, 35, 79
1, 630022, Note_on_c, 0, 72, 96
1, 630024, Note_on_c, 0, 76, 95
1, 630024, Note_on_c, 0, 84, 98
1, 630027, Note_on_c, 0, 78, 87
1, 630045, Note_off_c, 0, 76, 66
1, 630045, Note_off_c, 0, 78, 71
1, 630051, Note_off_c, 0, 47, 59
1, 630051, Note_off_c, 0, 72, 68
1, 630057, Note_off_c, 0, 84, 64
1, 630086, Note_off_c, 0, 35, 33
1, 630155, Note_on_c, 0, 47, 85
1, 630161, Note_on_c, 0, 35, 71
1, 630184, Note_off_c, 0, 35, 70
1, 630195, Note_off_c, 0, 47, 62
1, 630280, Note_on_c, 0, 67, 96
1, 630292, Note_on_c, 0, 55, 75
1, 630316, Note_on_c, 0, 53, 37
1, 630319, Note_off_c, 0, 55, 68
1, 630321, Note_off_c, 0, 67, 69
1, 630352, Note_off_c, 0, 53, 47
1, 630413, Note_on_c, 0, 54, 91
1, 630417, Note_on_c, 0, 66, 93
1, 630462, Note_off_c, 0, 66, 63
1, 630468, Note_off_c, 0, 54, 58
1, 630523, Control_c, 0, 64, 102
1, 630538, Control_c, 0, 64, 64
1, 630548, Note_on_c, 0, 57, 99
1, 630550, Note_on_c, 0, 52, 90
1, 630550, Note_on_c, 0, 69, 103
1, 630551, Note_on_c, 0, 48, 82
1, 630551, Note_on_c, 0, 72, 99
1, 630551, Note_on_c, 0, 76, 89
1, 630553, Note_on_c, 0, 81, 100
1, 630553, Control_c, 0, 64, 0
1, 630557, Note_on_c, 0, 73, 59
1, 630564, Note_on_c, 0, 42, 74
1, 630582, Control_c, 0, 64, 38
1, 630584, Note_off_c, 0, 57, 68
1, 630597, Control_c, 0, 64, 65
1, 630599, Note_off_c, 0, 48, 55
1, 630602, Note_off_c, 0, 42, 65
1, 630605, Note_off_c, 0, 52, 61
1, 630612, Note_off_c, 0, 69, 59
1, 630612, Control_c, 0, 64, 127
1, 630626, Note_off_c, 0, 81, 64
1, 630635, Note_off_c, 0, 73, 30
1, 630641, Note_off_c, 0, 72, 62
1, 630650, Note_off_c, 0, 76, 62
1, 630783, Note_on_c, 0, 36, 79
1, 630813, Note_off_c, 0, 36, 64
1, 630822, Note_on_c, 0, 35, 34
1, 630857, Note_off_c, 0, 35, 49
1, 630890, Note_on_c, 0, 35, 84
1, 630960, Note_off_c, 0, 35, 57
1, 631030, Note_on_c, 0, 50, 98
1, 631032, Note_on_c, 0, 62, 90
1, 631067, Note_off_c, 0, 62, 59
1, 631070, Note_off_c, 0, 50, 66
1, 631145, Note_on_c, 0, 35, 83
1, 631212, Note_off_c, 0, 35, 60
1, 631258, Note_on_c, 0, 60, 98
1, 631260, Note_on_c, 0, 48, 107
1, 631305, Note_off_c, 0, 60, 65
1, 631306, Note_off_c, 0, 48, 64
1, 631353, Note_on_c, 0, 35, 83
1, 631395, Note_off_c, 0, 35, 60
1, 631416, Note_on_c, 0, 51, 37
1, 631460, Note_off_c, 0, 51, 51
1, 631471, Control_c, 0, 64, 110
1, 631486, Control_c, 0, 64, 71
1, 631488, Note_on_c, 0, 47, 103
1, 631491, Note_on_c, 0, 52, 94
1, 631491, Note_on_c, 0, 59, 90
1, 631496, Note_on_c, 0, 54, 77
1, 631501, Control_c, 0, 64, 49
1, 631502, Note_on_c, 0, 42, 85
1, 631515, Control_c, 0, 64, 52
1, 631523, Note_on_c, 0, 56, 32
1, 631523, Note_off_c, 0, 56, 127
1, 631527, Note_on_c, 0, 41, 51
1, 631530, Control_c, 0, 64, 66
1, 631533, Note_off_c, 0, 42, 66
1, 631541, Note_off_c, 0, 47, 61
1, 631545, Control_c, 0, 64, 98
1, 631556, Note_off_c, 0, 52, 62
1, 631560, Poly_aftertouch_c, 0, 56, 0
1, 631560, Control_c, 0, 64, 127
1, 631562, Note_off_c, 0, 54, 62
1, 631564, Note_off_c, 0, 41, 53
1, 631565, Note_off_c, 0, 59, 57
1, 631651, Note_on_c, 0, 35, 91
1, 631654, Note_on_c, 0, 36, 92
1, 631682, Note_off_c, 0, 36, 64
1, 631692, Note_off_c, 0, 35, 63
1, 631702, Note_on_c, 0, 45, 93
1, 631702, Note_on_c, 0, 57, 100
1, 631729, Note_off_c, 0, 45, 65
1, 631748, Note_off_c, 0, 57, 65
1, 631784, Note_on_c, 0, 35, 101
1, 631794, Note_on_c, 0, 36, 71
1, 631824, Note_off_c, 0, 36, 36
1, 631857, Note_off_c, 0, 35, 62
1, 631882, Note_on_c, 0, 60, 102
1, 631884, Note_on_c, 0, 64, 88
1, 631885, Note_on_c, 0, 66, 87
1, 631885, Note_on_c, 0, 72, 94
1, 631904, Note_off_c, 0, 72, 65
1, 631905, Note_off_c, 0, 66, 73
1, 631906, Note_off_c, 0, 64, 72
1, 631911, Note_off_c, 0, 60, 65
1, 631979, Note_on_c, 0, 35, 96
1, 632030, Note_off_c, 0, 35, 64
1, 632109, Control_c, 0, 64, 89
1, 632118, Note_on_c, 0, 43, 92
1, 632122, Note_on_c, 0, 55, 78
1, 632124, Control_c, 0, 64, 61
1, 632138, Control_c, 0, 64, 33
1, 632139, Note_off_c, 0, 55, 66
1, 632142, Note_off_c, 0, 43, 70
1, 632143, Note_on_c, 0, 45, 37
1, 632153, Control_c, 0, 64, 41
1, 632166, Note_off_c, 0, 45, 60
1, 632168, Control_c, 0, 64, 66
1, 632177, Note_on_c, 0, 24, 102
1, 632179, Note_on_c, 0, 36, 101
1, 632183, Control_c, 0, 64, 127
1, 632212, Note_on_c, 0, 42, 107
1, 632217, Note_on_c, 0, 54, 98
1, 632217, Note_off_c, 0, 24, 66
1, 632224, Note_off_c, 0, 36, 65
1, 632245, Note_off_c, 0, 42, 65
1, 632248, Note_off_c, 0, 54, 60
1, 632280, Note_on_c, 0, 24, 97
1, 632283, Note_on_c, 0, 36, 100
1, 632307, Note_off_c, 0, 24, 69
1, 632322, Note_off_c, 0, 36, 66
1, 632427, Control_c, 0, 64, 85
1, 632441, Note_on_c, 0, 57, 96
1, 632442, Control_c, 0, 64, 55
1, 632443, Note_on_c, 0, 52, 98
1, 632446, Note_on_c, 0, 54, 95
1, 632457, Control_c, 0, 64, 37
1, 632459, Note_on_c, 0, 47, 87
1, 632465, Note_off_c, 0, 52, 69
1, 632470, Note_off_c, 0, 54, 64
1, 632471, Control_c, 0, 64, 62
1, 632483, Note_on_c, 0, 43, 47
1, 632484, Note_off_c, 0, 47, 68
1, 632484, Note_off_c, 0, 57, 68
1, 632486, Control_c, 0, 64, 102
1, 632501, Control_c, 0, 64, 127
1, 632511, Note_off_c, 0, 43, 55
1, 632561, Poly_aftertouch_c, 0, 42, 0
1, 632678, Control_c, 0, 64, 110
1, 632689, Note_on_c, 0, 51, 94
1, 632690, Note_on_c, 0, 54, 94
1, 632691, Note_on_c, 0, 57, 105
1, 632692, Note_on_c, 0, 69, 101
1, 632693, Control_c, 0, 64, 68
1, 632694, Note_on_c, 0, 63, 104
1, 632695, Note_on_c, 0, 45, 78
1, 632697, Note_on_c, 0, 66, 95
1, 632698, Note_on_c, 0, 42, 80
1, 632708, Control_c, 0, 64, 36
1, 632715, Note_off_c, 0, 57, 65
1, 632723, Control_c, 0, 64, 0
1, 632725, Note_off_c, 0, 42, 67
1, 632725, Note_off_c, 0, 45, 67
1, 632726, Note_off_c, 0, 63, 62
1, 632727, Note_off_c, 0, 54, 62
1, 632731, Note_off_c, 0, 69, 68
1, 632732, Note_off_c, 0, 51, 65
1, 632736, Note_off_c, 0, 66, 63
1, 632737, Control_c, 0, 64, 55
1, 632752, Control_c, 0, 64, 100
1, 632767, Control_c, 0, 64, 127
1, 632814, Poly_aftertouch_c, 0, 67, 0
1, 632998, Control_c, 0, 64, 77
1, 632999, Note_on_c, 0, 63, 97
1, 632999, Note_on_c, 0, 69, 106
1, 632999, Note_on_c, 0, 81, 100
1, 633000, Note_on_c, 0, 75, 105
1, 633001, Note_on_c, 0, 54, 78
1, 633001, Note_on_c, 0, 66, 102
1, 633002, Note_on_c, 0, 78, 100
1, 633005, Note_on_c, 0, 57, 81
1, 633013, Control_c, 0, 64, 52
1, 633028, Control_c, 0, 64, 32
1, 633032, Note_off_c, 0, 81, 66
1, 633032, Note_off_c, 0, 69, 68
1, 633042, Control_c, 0, 64, 52
1, 633049, Note_off_c, 0, 66, 64
1, 633050, Note_off_c, 0, 75, 69
1, 633053, Note_off_c, 0, 54, 62
1, 633057, Control_c, 0, 64, 77
1, 633058, Note_off_c, 0, 78, 66
1, 633065, Note_off_c, 0, 57, 64
1, 633072, Control_c, 0, 64, 127
1, 633077, Note_off_c, 0, 63, 62
1, 633561, Control_c, 0, 64, 123
1, 633576, Control_c, 0, 64, 86
1, 633591, Control_c, 0, 64, 68
1, 633605, Control_c, 0, 64, 50
1, 633620, Control_c, 0, 64, 0
1, 633650, Note_on_c, 0, 91, 100
1, 633655, Note_on_c, 0, 79, 94
1, 633659, Note_on_c, 0, 67, 91
1, 633836, Control_c, 0, 64, 35
1, 633851, Control_c, 0, 64, 72
1, 633866, Control_c, 0, 64, 91
1, 633881, Control_c, 0, 64, 126
1, 633920, Note_off_c, 0, 79, 62
1, 633927, Note_off_c, 0, 91, 62
1, 634007, Note_off_c, 0, 67, 59
1, 634156, Note_on_c, 0, 90, 102
1, 634158, Note_on_c, 0, 78, 96
1, 634165, Note_on_c, 0, 66, 91
1, 634191, Control_c, 0, 64, 83
1, 634206, Control_c, 0, 64, 64
1, 634221, Control_c, 0, 64, 52
1, 634236, Control_c, 0, 64, 54
1, 634251, Control_c, 0, 64, 67
1, 634266, Control_c, 0, 64, 103
1, 634281, Control_c, 0, 64, 127
1, 634352, Note_off_c, 0, 90, 61
1, 634359, Note_off_c, 0, 78, 55
1, 634429, Control_c, 0, 64, 99
1, 634450, Control_c, 0, 64, 96
1, 634451, Note_on_c, 0, 64, 89
1, 634451, Note_on_c, 0, 88, 91
1, 634455, Note_on_c, 0, 76, 100
1, 634465, Control_c, 0, 64, 114
1, 634480, Control_c, 0, 64, 127
1, 634504, Note_off_c, 0, 66, 65
1, 634549, Note_off_c, 0, 76, 65
1, 634603, Note_off_c, 0, 88, 65
1, 634625, Note_off_c, 0, 64, 60
1, 634661, Note_on_c, 0, 63, 85
1, 634663, Note_on_c, 0, 75, 102
1, 634668, Note_on_c, 0, 87, 83
1, 634686, Note_off_c, 0, 63, 68
1, 634686, Note_off_c, 0, 87, 74
1, 634699, Note_off_c, 0, 75, 67
1, 634877, Note_on_c, 0, 60, 81
1, 634881, Control_c, 0, 64, 105
1, 634883, Note_on_c, 0, 48, 82
1, 634886, Note_on_c, 0, 72, 85
1, 634896, Control_c, 0, 64, 74
1, 634911, Control_c, 0, 64, 59
1, 634926, Control_c, 0, 64, 55
1, 634940, Control_c, 0, 64, 62
1, 634955, Control_c, 0, 64, 75
1, 634970, Control_c, 0, 64, 127
1, 635008, Note_off_c, 0, 60, 62
1, 635018, Note_off_c, 0, 48, 62
1, 635020, Note_off_c, 0, 72, 63
1, 635073, Control_c, 0, 64, 110
1, 635079, Note_on_c, 0, 59, 94
1, 635085, Note_on_c, 0, 47, 91
1, 635087, Note_on_c, 0, 71, 93
1, 635088, Control_c, 0, 64, 91
1, 635103, Control_c, 0, 64, 90
1, 635118, Control_c, 0, 64, 102
1, 635133, Control_c, 0, 64, 127
1, 635202, Note_off_c, 0, 59, 59
1, 635214, Note_off_c, 0, 71, 63
1, 635221, Note_off_c, 0, 47, 61
1, 635283, Note_on_c, 0, 57, 94
1, 635286, Note_on_c, 0, 69, 99
1, 635287, Note_on_c, 0, 45, 93
1, 635288, Control_c, 0, 64, 97
1, 635303, Control_c, 0, 64, 80
1, 635319, Control_c, 0, 64, 77
1, 635334, Control_c, 0, 64, 87
1, 635349, Control_c, 0, 64, 127
1, 635389, Note_off_c, 0, 57, 62
1, 635407, Note_off_c, 0, 45, 63
1, 635412, Note_off_c, 0, 69, 63
1, 635470, Note_on_c, 0, 43, 92
1, 635470, Note_on_c, 0, 55, 87
1, 635476, Note_on_c, 0, 67, 94
1, 635494, Note_on_c, 0, 69, 63
1, 635494, Note_off_c, 0, 69, 127
1, 635498, Note_off_c, 0, 55, 64
1, 635514, Note_on_c, 0, 53, 30
1, 635514, Note_off_c, 0, 53, 127
1, 635517, Note_off_c, 0, 43, 64
1, 635517, Note_off_c, 0, 67, 68
1, 635552, Poly_aftertouch_c, 0, 53, 0
1, 635703, Note_on_c, 0, 30, 91
1, 635704, Note_on_c, 0, 42, 85
1, 635706, Note_on_c, 0, 54, 95
1, 635710, Note_on_c, 0, 44, 83
1, 635719, Control_c, 0, 64, 89
1, 635729, Note_on_c, 0, 32, 61
1, 635734, Control_c, 0, 64, 63
1, 635749, Control_c, 0, 64, 42
1, 635763, Control_c, 0, 64, 41
1, 635778, Control_c, 0, 64, 56
1, 635793, Control_c, 0, 64, 81
1, 635800, Note_off_c, 0, 44, 60
1, 635807, Control_c, 0, 64, 127
1, 635857, Note_off_c, 0, 42, 54
1, 635944, Note_off_c, 0, 30, 58
1, 635966, Note_off_c, 0, 32, 13
1, 635978, Note_off_c, 0, 54, 58
1, 636032, Note_on_c, 0, 40, 106
1, 636033, Note_on_c, 0, 52, 106
1, 636033, Note_on_c, 0, 28, 104
1, 636037, Control_c, 0, 64, 100
1, 636052, Control_c, 0, 64, 65
1, 636067, Control_c, 0, 64, 0
1, 636096, Control_c, 0, 64, 37
1, 636112, Control_c, 0, 64, 63
1, 636127, Control_c, 0, 64, 108
1, 636142, Control_c, 0, 64, 127
1, 636155, Note_off_c, 0, 40, 56
1, 636168, Note_off_c, 0, 28, 61
1, 636312, Note_off_c, 0, 52, 55
1, 636757, Note_on_c, 0, 27, 100
1, 636757, Note_on_c, 0, 39, 96
1, 636757, Note_on_c, 0, 51, 99
1, 636758, Control_c, 0, 64, 83
1, 636773, Control_c, 0, 64, 57
1, 636787, Control_c, 0, 64, 0
1, 636831, Control_c, 0, 64, 56
1, 636846, Control_c, 0, 64, 81
1, 636861, Control_c, 0, 64, 127
1, 636938, Note_off_c, 0, 39, 62
1, 636945, Note_off_c, 0, 51, 60
1, 636947, Note_off_c, 0, 27, 59
1, 636995, Control_c, 0, 64, 104
1, 637009, Control_c, 0, 64, 67
1, 637013, Note_on_c, 0, 50, 100
1, 637016, Note_on_c, 0, 38, 95
1, 637018, Note_on_c, 0, 26, 82
1, 637024, Control_c, 0, 64, 0
1, 637054, Control_c, 0, 64, 36
1, 637065, Note_on_c, 0, 56, 23
1, 637068, Control_c, 0, 64, 60
1, 637083, Control_c, 0, 64, 84
1, 637098, Control_c, 0, 64, 127
1, 637104, Note_off_c, 0, 56, 31
1, 637128, Note_off_c, 0, 26, 62
1, 637135, Note_off_c, 0, 50, 67
1, 637137, Note_off_c, 0, 38, 59
1, 637321, Note_on_c, 0, 49, 106
1, 637321, Control_c, 0, 64, 95
1, 637326, Note_on_c, 0, 25, 97
1, 637326, Note_on_c, 0, 37, 98
1, 637335, Control_c, 0, 64, 68
1, 637350, Control_c, 0, 64, 36
1, 637365, Control_c, 0, 64, 0
1, 637431, Control_c, 0, 64, 46
1, 637446, Control_c, 0, 64, 69
1, 637461, Control_c, 0, 64, 127
1, 637463, Note_off_c, 0, 37, 62
1, 637488, Note_off_c, 0, 49, 63
1, 637653, Note_off_c, 0, 25, 17
1, 637729, Control_c, 0, 64, 105
1, 637744, Control_c, 0, 64, 68
1, 637758, Control_c, 0, 64, 34
1, 637759, Note_on_c, 0, 48, 114
1, 637761, Note_on_c, 0, 36, 102
1, 637762, Note_on_c, 0, 24, 101
1, 637773, Control_c, 0, 64, 0
1, 637788, Control_c, 0, 64, 31
1, 637803, Control_c, 0, 64, 56
1, 637818, Control_c, 0, 64, 78
1, 637832, Control_c, 0, 64, 127
1, 637846, Note_off_c, 0, 36, 63
1, 637859, Note_off_c, 0, 24, 62
1, 637898, Note_off_c, 0, 48, 63
1, 638281, Poly_aftertouch_c, 0, 46, 127
1, 638341, Poly_aftertouch_c, 0, 46, 0
1, 638412, Poly_aftertouch_c, 0, 46, 0
1, 638449, Note_on_c, 0, 47, 109
1, 638453, Note_on_c, 0, 23, 100
1, 638453, Note_on_c, 0, 35, 102
1, 638462, Control_c, 0, 64, 73
1, 638476, Control_c, 0, 64, 33
1, 638490, Note_on_c, 0, 49, 42
1, 638491, Control_c, 0, 64, 0
1, 638522, Control_c, 0, 64, 35
1, 638525, Note_off_c, 0, 49, 55
1, 638537, Control_c, 0, 64, 62
1, 638552, Control_c, 0, 64, 96
1, 638561, Note_off_c, 0, 35, 62
1, 638567, Control_c, 0, 64, 127
1, 638569, Note_off_c, 0, 23, 64
1, 638573, Note_off_c, 0, 47, 65
1, 639107, Control_c, 0, 64, 108
1, 639122, Control_c, 0, 64, 67
1, 639136, Control_c, 0, 64, 0
1, 639365, Note_on_c, 0, 35, 100
1, 639366, Note_on_c, 0, 40, 96
1, 639367, Note_on_c, 0, 28, 97
1, 639372, Note_on_c, 0, 64, 89
1, 639373, Note_on_c, 0, 55, 97
1, 639377, Note_on_c, 0, 52, 98
1, 639405, Control_c, 0, 64, 92
1, 639420, Control_c, 0, 64, 127
1, 639422, Note_off_c, 0, 28, 65
1, 639424, Note_off_c, 0, 40, 64
1, 639426, Note_off_c, 0, 52, 62
1, 639429, Note_off_c, 0, 35, 65
1, 639446, Note_on_c, 0, 60, 16
1, 639453, Note_off_c, 0, 55, 60
1, 639462, Note_off_c, 0, 64, 63
1, 639492, Note_off_c, 0, 60, 43
1, 639598, Note_on_c, 0, 52, 47
1, 639615, Note_off_c, 0, 52, 67
1, 639628, Note_on_c, 0, 55, 74
1, 639688, Note_on_c, 0, 52, 69
1, 639690, Note_off_c, 0, 55, 57
1, 639694, Note_on_c, 0, 59, 83
1, 639715, Poly_aftertouch_c, 0, 47, 0
1, 639715, Poly_aftertouch_c, 0, 48, 127
1, 639718, Note_off_c, 0, 59, 69
1, 639729, Note_off_c, 0, 52, 64
1, 639733, Note_on_c, 0, 53, 11
1, 639733, Note_off_c, 0, 53, 127
1, 639751, Note_on_c, 0, 55, 82
1, 639754, Poly_aftertouch_c, 0, 48, 0
1, 639754, Poly_aftertouch_c, 0, 47, 0
1, 639769, Note_on_c, 0, 64, 88
1, 639780, Note_off_c, 0, 55, 66
1, 639783, Poly_aftertouch_c, 0, 53, 0
1, 639796, Note_off_c, 0, 64, 68
1, 639810, Note_on_c, 0, 67, 86
1, 639861, Note_on_c, 0, 71, 94
1, 639865, Note_off_c, 0, 67, 67
1, 639891, Note_off_c, 0, 71, 64
1, 639935, Note_on_c, 0, 76, 89
1, 639971, Note_off_c, 0, 76, 68
1, 639977, Note_on_c, 0, 79, 86
1, 640031, Note_on_c, 0, 83, 97
1, 640052, Note_off_c, 0, 79, 67
1, 640075, Note_off_c, 0, 83, 68
1, 640137, Note_on_c, 0, 88, 80
1, 640182, Note_on_c, 0, 71, 87
1, 640186, Note_on_c, 0, 76, 94
1, 640189, Note_on_c, 0, 67, 74
1, 640198, Note_on_c, 0, 91, 96
1, 640201, Note_on_c, 0, 64, 71
1, 640207, Note_off_c, 0, 88, 65
1, 640233, Note_off_c, 0, 64, 59
1, 640245, Note_off_c, 0, 76, 63
1, 640257, Note_off_c, 0, 71, 61
1, 640261, Note_on_c, 0, 95, 86
1, 640263, Note_off_c, 0, 67, 61
1, 640267, Note_off_c, 0, 91, 67
1, 640288, Note_on_c, 0, 100, 95
1, 640300, Note_off_c, 0, 95, 69
1, 640308, Note_on_c, 0, 71, 101
1, 640309, Note_on_c, 0, 76, 112
1, 640310, Note_on_c, 0, 67, 84
1, 640314, Note_on_c, 0, 64, 91
1, 640342, Note_on_c, 0, 95, 75
1, 640347, Note_off_c, 0, 76, 71
1, 640348, Note_off_c, 0, 64, 63
1, 640362, Note_on_c, 0, 96, 59
1, 640365, Note_off_c, 0, 71, 68
1, 640368, Note_on_c, 0, 91, 97
1, 640369, Note_off_c, 0, 67, 65
1, 640390, Note_off_c, 0, 96, 65
1, 640391, Note_off_c, 0, 100, 62
1, 640406, Note_off_c, 0, 95, 67
1, 640439, Note_off_c, 0, 91, 69
1, 640446, Note_on_c, 0, 88, 92
1, 640470, Note_off_c, 0, 88, 65
1, 640514, Note_on_c, 0, 83, 89
1, 640572, Note_on_c, 0, 79, 81
1, 640585, Note_off_c, 0, 83, 59
1, 640615, Note_off_c, 0, 79, 67
1, 640624, Note_on_c, 0, 76, 89
1, 640652, Note_off_c, 0, 76, 63
1, 640701, Note_on_c, 0, 71, 77
1, 640706, Note_on_c, 0, 69, 79
1, 640744, Note_off_c, 0, 71, 61
1, 640746, Note_on_c, 0, 67, 81
1, 640748, Note_off_c, 0, 69, 49
1, 640800, Note_off_c, 0, 67, 63
1, 640804, Note_on_c, 0, 64, 92
1, 640842, Note_off_c, 0, 64, 68
1, 640881, Note_on_c, 0, 59, 91
1, 640925, Note_on_c, 0, 55, 72
1, 640945, Note_off_c, 0, 59, 60
1, 640981, Poly_aftertouch_c, 0, 60, 127
1, 640991, Note_on_c, 0, 52, 97
1, 640994, Note_on_c, 0, 64, 77
1, 641006, Poly_aftertouch_c, 0, 60, 0
1, 641024, Note_off_c, 0, 55, 63
1, 641029, Note_on_c, 0, 43, 85
1, 641029, Note_off_c, 0, 52, 64
1, 641034, Note_off_c, 0, 64, 60
1, 641040, Note_on_c, 0, 48, 73
1, 641041, Note_on_c, 0, 36, 64
1, 641051, Note_off_c, 0, 43, 67
1, 641063, Note_off_c, 0, 48, 63
1, 641065, Control_c, 0, 64, 92
1, 641067, Note_off_c, 0, 36, 58
1, 641077, Note_on_c, 0, 55, 92
1, 641080, Control_c, 0, 64, 56
1, 641082, Note_on_c, 0, 52, 90
1, 641084, Note_on_c, 0, 43, 105
1, 641087, Note_on_c, 0, 48, 98
1, 641087, Note_on_c, 0, 64, 79
1, 641089, Note_on_c, 0, 36, 82
1, 641094, Control_c, 0, 64, 0
1, 641110, Note_off_c, 0, 64, 65
1, 641119, Note_off_c, 0, 48, 67
1, 641123, Note_off_c, 0, 52, 64
1, 641124, Control_c, 0, 64, 46
1, 641128, Note_off_c, 0, 43, 65
1, 641130, Note_off_c, 0, 55, 63
1, 641131, Note_off_c, 0, 36, 64
1, 641139, Control_c, 0, 64, 74
1, 641154, Control_c, 0, 64, 127
1, 641209, Note_on_c, 0, 52, 77
1, 641242, Note_off_c, 0, 52, 63
1, 641250, Note_on_c, 0, 55, 63
1, 641301, Note_on_c, 0, 60, 74
1, 641304, Note_off_c, 0, 55, 63
1, 641345, Note_off_c, 0, 60, 65
1, 641387, Note_on_c, 0, 64, 82
1, 641426, Note_off_c, 0, 64, 68
1, 641429, Note_on_c, 0, 67, 85
1, 641488, Note_on_c, 0, 72, 85
1, 641493, Note_off_c, 0, 67, 62
1, 641522, Note_off_c, 0, 72, 62
1, 641566, Note_on_c, 0, 76, 91
1, 641606, Note_off_c, 0, 76, 67
1, 641613, Note_on_c, 0, 79, 90
1, 641673, Note_on_c, 0, 84, 81
1, 641679, Note_on_c, 0, 83, 81
1, 641685, Note_off_c, 0, 79, 65
1, 641698, Note_off_c, 0, 83, 72
1, 641719, Note_off_c, 0, 84, 68
1, 641768, Note_on_c, 0, 88, 89
1, 641806, Note_on_c, 0, 64, 81
1, 641807, Note_on_c, 0, 72, 91
1, 641809, Note_on_c, 0, 67, 84
1, 641816, Note_on_c, 0, 60, 75
1, 641828, Note_on_c, 0, 91, 98
1, 641844, Note_off_c, 0, 88, 64
1, 641858, Note_off_c, 0, 72, 62
1, 641870, Note_off_c, 0, 60, 63
1, 641872, Note_off_c, 0, 67, 56
1, 641878, Note_off_c, 0, 64, 62
1, 641906, Note_on_c, 0, 96, 84
1, 641922, Note_off_c, 0, 91, 66
1, 641956, Note_on_c, 0, 100, 91
1, 641964, Note_off_c, 0, 96, 68
1, 641975, Note_on_c, 0, 67, 98
1, 641975, Note_on_c, 0, 72, 97
1, 641978, Note_on_c, 0, 64, 97
1, 641986, Note_on_c, 0, 60, 77
1, 642001, Note_on_c, 0, 96, 75
1, 642004, Note_off_c, 0, 72, 70
1, 642007, Note_off_c, 0, 60, 71
1, 642016, Note_off_c, 0, 67, 70
1, 642026, Note_off_c, 0, 64, 66
1, 642036, Note_off_c, 0, 100, 65
1, 642054, Note_on_c, 0, 91, 76
1, 642094, Note_off_c, 0, 96, 68
1, 642116, Note_on_c, 0, 88, 92
1, 642118, Note_off_c, 0, 91, 68
1, 642138, Note_off_c, 0, 88, 67
1, 642186, Note_on_c, 0, 84, 93
1, 642251, Note_on_c, 0, 79, 86
1, 642278, Note_off_c, 0, 84, 64
1, 642308, Note_off_c, 0, 79, 68
1, 642320, Note_on_c, 0, 76, 74
1, 642341, Note_off_c, 0, 76, 71
1, 642389, Note_on_c, 0, 72, 80
1, 642457, Note_on_c, 0, 67, 82
1, 642478, Note_off_c, 0, 72, 61
1, 642513, Note_off_c, 0, 67, 63
1, 642524, Note_on_c, 0, 64, 82
1, 642545, Note_off_c, 0, 64, 70
1, 642609, Note_on_c, 0, 60, 65
1, 642622, Note_on_c, 0, 59, 65
1, 642648, Note_off_c, 0, 59, 55
1, 642661, Note_off_c, 0, 60, 65
1, 642662, Note_on_c, 0, 55, 70
1, 642714, Note_off_c, 0, 55, 61
1, 642736, Note_on_c, 0, 52, 66
1, 642766, Note_off_c, 0, 52, 64
1, 642824, Note_on_c, 0, 33, 88
1, 642958, Note_on_c, 0, 45, 93
1, 643104, Control_c, 0, 64, 110
1, 643119, Control_c, 0, 64, 66
1, 643130, Note_on_c, 0, 91, 99
1, 643134, Control_c, 0, 64, 0
1, 643136, Note_on_c, 0, 79, 89
1, 643137, Note_on_c, 0, 81, 85
1, 643139, Note_on_c, 0, 84, 78
1, 643173, Note_on_c, 0, 86, 40
1, 643176, Note_off_c, 0, 33, 64
1, 643182, Note_on_c, 0, 85, 12
1, 643182, Note_off_c, 0, 85, 127
1, 643192, Control_c, 0, 64, 61
1, 643202, Note_off_c, 0, 86, 50
1, 643205, Note_off_c, 0, 45, 66
1, 643207, Control_c, 0, 64, 95
1, 643222, Control_c, 0, 64, 127
1, 643360, Note_on_c, 0, 52, 58
1, 643433, Note_off_c, 0, 52, 60
1, 643439, Note_on_c, 0, 55, 60
1, 643466, Note_on_c, 0, 57, 73
1, 643468, Note_off_c, 0, 55, 64
1, 643503, Note_off_c, 0, 57, 65
1, 643510, Note_on_c, 0, 60, 79
1, 643533, Note_off_c, 0, 60, 70
1, 643599, Note_on_c, 0, 62, 64
1, 643605, Note_on_c, 0, 64, 69
1, 643639, Note_on_c, 0, 67, 74
1, 643652, Note_off_c, 0, 79, 59
1, 643656, Note_off_c, 0, 62, 61
1, 643661, Note_off_c, 0, 64, 62
1, 643667, Note_on_c, 0, 69, 74
1, 643669, Note_on_c, 0, 65, 38
1, 643671, Note_off_c, 0, 91, 60
1, 643689, Note_off_c, 0, 81, 60
1, 643697, Note_off_c, 0, 67, 62
1, 643698, Note_off_c, 0, 65, 57
1, 643702, Note_on_c, 0, 72, 68
1, 643702, Note_off_c, 0, 69, 58
1, 643717, Note_off_c, 0, 84, 60
1, 643748, Note_off_c, 0, 72, 60
1, 643751, Note_on_c, 0, 64, 91
1, 643805, Note_on_c, 0, 67, 83
1, 643833, Note_on_c, 0, 69, 70
1, 643849, Note_off_c, 0, 64, 48
1, 643876, Note_on_c, 0, 76, 80
1, 643908, Note_on_c, 0, 90, 92
1, 643908, Note_off_c, 0, 76, 58
1, 643911, Note_on_c, 0, 78, 94
1, 643917, Note_on_c, 0, 81, 78
1, 643920, Note_on_c, 0, 84, 71
1, 643962, Note_off_c, 0, 69, 59
1, 643969, Note_off_c, 0, 67, 58
1, 643977, Note_on_c, 0, 72, 92
1, 644037, Note_off_c, 0, 72, 55
1, 644040, Note_on_c, 0, 69, 90
1, 644069, Note_on_c, 0, 67, 82
1, 644083, Note_off_c, 0, 90, 63
1, 644088, Note_off_c, 0, 78, 58
1, 644103, Note_off_c, 0, 81, 38
1, 644104, Note_off_c, 0, 69, 66
1, 644108, Note_on_c, 0, 64, 84
1, 644121, Note_off_c, 0, 67, 65
1, 644141, Note_off_c, 0, 64, 62
1, 644196, Note_on_c, 0, 88, 90
1, 644198, Note_on_c, 0, 60, 89
1, 644199, Note_on_c, 0, 76, 97
1, 644223, Note_off_c, 0, 84, 65
1, 644235, Note_on_c, 0, 59, 40
1, 644243, Note_off_c, 0, 76, 66
1, 644249, Note_off_c, 0, 88, 66
1, 644261, Note_off_c, 0, 60, 55
1, 644270, Note_off_c, 0, 59, 50
1, 644271, Note_on_c, 0, 57, 93
1, 644308, Note_on_c, 0, 55, 82
1, 644332, Note_off_c, 0, 57, 65
1, 644350, Note_on_c, 0, 52, 76
1, 644350, Note_off_c, 0, 55, 65
1, 644360, Note_on_c, 0, 50, 61
1, 644372, Note_off_c, 0, 52, 67
1, 644391, Note_off_c, 0, 50, 65
1, 644481, Control_c, 0, 64, 113
1, 644496, Control_c, 0, 64, 66
1, 644500, Note_on_c, 0, 38, 86
1, 644504, Note_on_c, 0, 45, 85
1, 644505, Note_on_c, 0, 86, 102
1, 644507, Note_on_c, 0, 78, 100
1, 644508, Note_on_c, 0, 74, 106
1, 644509, Note_on_c, 0, 81, 89
1, 644511, Control_c, 0, 64, 0
1, 644539, Note_off_c, 0, 38, 64
1, 644541, Note_off_c, 0, 74, 69
1, 644541, Control_c, 0, 64, 31
1, 644541, Note_off_c, 0, 45, 64
1, 644555, Note_off_c, 0, 86, 66
1, 644556, Control_c, 0, 64, 64
1, 644569, Note_off_c, 0, 81, 61
1, 644570, Control_c, 0, 64, 127
1, 644574, Note_off_c, 0, 78, 62
1, 644663, Note_on_c, 0, 50, 73
1, 644724, Note_on_c, 0, 54, 70
1, 644724, Note_off_c, 0, 50, 62
1, 644771, Note_on_c, 0, 57, 76
1, 644779, Note_off_c, 0, 54, 62
1, 644799, Note_off_c, 0, 57, 68
1, 644824, Note_on_c, 0, 62, 75
1, 644856, Note_on_c, 0, 72, 91
1, 644856, Note_off_c, 0, 62, 64
1, 644859, Note_on_c, 0, 84, 86
1, 644862, Note_on_c, 0, 78, 74
1, 644863, Note_on_c, 0, 74, 83
1, 644903, Note_off_c, 0, 72, 57
1, 644918, Note_on_c, 0, 66, 76
1, 644982, Note_on_c, 0, 69, 68
1, 644984, Note_off_c, 0, 66, 61
1, 645026, Note_on_c, 0, 62, 84
1, 645028, Note_off_c, 0, 69, 61
1, 645048, Note_off_c, 0, 74, 32
1, 645082, Note_on_c, 0, 66, 91
1, 645114, Note_on_c, 0, 69, 83
1, 645169, Note_on_c, 0, 74, 94
1, 645191, Note_off_c, 0, 66, 61
1, 645192, Note_off_c, 0, 69, 58
1, 645217, Note_off_c, 0, 74, 62
1, 645250, Note_on_c, 0, 66, 60
1, 645255, Note_off_c, 0, 62, 63
1, 645256, Note_off_c, 0, 78, 58
1, 645277, Note_on_c, 0, 72, 82
1, 645278, Note_off_c, 0, 66, 67
1, 645287, Note_off_c, 0, 84, 61
1, 645325, Note_off_c, 0, 72, 57
1, 645342, Note_on_c, 0, 69, 87
1, 645409, Note_on_c, 0, 66, 91
1, 645423, Note_off_c, 0, 69, 63
1, 645471, Note_off_c, 0, 66, 65
1, 645505, Note_on_c, 0, 71, 96
1, 645505, Note_on_c, 0, 83, 93
1, 645507, Note_on_c, 0, 74, 90
1, 645509, Note_on_c, 0, 78, 82
1, 645517, Note_on_c, 0, 62, 79
1, 645583, Note_off_c, 0, 62, 63
1, 645604, Note_off_c, 0, 74, 56
1, 645611, Note_off_c, 0, 71, 49
1, 645611, Note_off_c, 0, 78, 58
1, 645614, Note_on_c, 0, 60, 86
1, 645629, Note_off_c, 0, 83, 52
1, 645734, Note_on_c, 0, 57, 85
1, 645736, Note_on_c, 0, 69, 100
1, 645737, Note_on_c, 0, 78, 85
1, 645738, Note_on_c, 0, 74, 92
1, 645738, Note_on_c, 0, 81, 90
1, 645750, Note_off_c, 0, 60, 63
1, 645774, Note_off_c, 0, 69, 65
1, 645787, Note_off_c, 0, 74, 65
1, 645791, Note_off_c, 0, 81, 61
1, 645802, Note_off_c, 0, 78, 58
1, 645833, Note_off_c, 0, 57, 65
1, 645836, Note_on_c, 0, 54, 81
1, 645862, Note_off_c, 0, 54, 63
1, 645888, Poly_aftertouch_c, 0, 56, 127
1, 645918, Poly_aftertouch_c, 0, 56, 0
1, 646039, Control_c, 0, 64, 100
1, 646054, Control_c, 0, 64, 62
1, 646059, Note_on_c, 0, 49, 90
1, 646059, Note_on_c, 0, 71, 94
1, 646059, Note_on_c, 0, 79, 86
1, 646062, Note_on_c, 0, 67, 101
1, 646062, Note_on_c, 0, 74, 85
1, 646063, Note_on_c, 0, 59, 93
1, 646069, Control_c, 0, 64, 0
1, 646076, Note_on_c, 0, 43, 82
1, 646094, Note_on_c, 0, 50, 82
1, 646113, Control_c, 0, 64, 64
1, 646128, Control_c, 0, 64, 127
1, 646148, Note_off_c, 0, 79, 64
1, 646156, Note_off_c, 0, 74, 65
1, 646168, Note_off_c, 0, 49, 60
1, 646175, Note_off_c, 0, 71, 64
1, 646183, Note_off_c, 0, 59, 59
1, 646189, Note_off_c, 0, 67, 66
1, 646267, Note_off_c, 0, 43, 61
1, 646290, Note_off_c, 0, 50, 65
1, 646311, Note_on_c, 0, 55, 83
1, 646353, Note_off_c, 0, 55, 62
1, 646358, Note_on_c, 0, 59, 75
1, 646419, Note_off_c, 0, 59, 60
1, 646425, Note_on_c, 0, 62, 82
1, 646444, Note_off_c, 0, 62, 72
1, 646510, Note_on_c, 0, 67, 67
1, 646514, Note_on_c, 0, 65, 51
1, 646538, Note_off_c, 0, 65, 59
1, 646539, Note_off_c, 0, 67, 67
1, 646548, Note_on_c, 0, 71, 85
1, 646605, Note_on_c, 0, 74, 89
1, 646616, Note_off_c, 0, 71, 62
1, 646641, Note_off_c, 0, 74, 68
1, 646699, Note_on_c, 0, 79, 78
1, 646727, Note_on_c, 0, 67, 83
1, 646729, Note_on_c, 0, 62, 75
1, 646738, Note_on_c, 0, 71, 74
1, 646738, Note_off_c, 0, 79, 62
1, 646745, Note_on_c, 0, 83, 88
1, 646751, Note_on_c, 0, 59, 44
1, 646753, Note_off_c, 0, 62, 67
1, 646756, Note_off_c, 0, 67, 61
1, 646762, Note_off_c, 0, 71, 65
1, 646770, Note_off_c, 0, 59, 64
1, 646798, Note_on_c, 0, 86, 77
1, 646799, Note_off_c, 0, 83, 64
1, 646800, Note_on_c, 0, 67, 90
1, 646801, Note_on_c, 0, 71, 102
1, 646803, Note_on_c, 0, 62, 91
1, 646810, Note_on_c, 0, 91, 93
1, 646816, Note_on_c, 0, 59, 69
1, 646821, Note_off_c, 0, 71, 68
1, 646830, Note_off_c, 0, 62, 65
1, 646833, Note_off_c, 0, 67, 69
1, 646839, Note_off_c, 0, 59, 60
1, 646854, Note_on_c, 0, 88, 28
1, 646887, Note_on_c, 0, 83, 91
1, 646895, Note_off_c, 0, 88, 52
1, 646911, Note_off_c, 0, 91, 59
1, 646915, Note_off_c, 0, 86, 65
1, 646940, Note_off_c, 0, 83, 66
1, 646945, Note_on_c, 0, 79, 83
1, 646973, Note_off_c, 0, 79, 63
1, 647013, Note_on_c, 0, 74, 93
1, 647066, Note_on_c, 0, 71, 82
1, 647086, Note_off_c, 0, 74, 62
1, 647113, Note_off_c, 0, 71, 62
1, 647115, Note_on_c, 0, 67, 81
1, 647137, Note_off_c, 0, 67, 67
1, 647194, Note_on_c, 0, 62, 70
1, 647235, Note_on_c, 0, 59, 75
1, 647242, Note_off_c, 0, 62, 63
1, 647292, Note_off_c, 0, 59, 62
1, 647306, Note_on_c, 0, 55, 87
1, 647307, Poly_aftertouch_c, 0, 60, 0
1, 647314, Note_on_c, 0, 67, 76
1, 647339, Note_on_c, 0, 47, 90
1, 647342, Note_on_c, 0, 52, 82
1, 647353, Note_on_c, 0, 40, 62
1, 647353, Note_off_c, 0, 55, 63
1, 647362, Note_off_c, 0, 47, 70
1, 647364, Note_off_c, 0, 52, 66
1, 647365, Note_off_c, 0, 67, 63
1, 647378, Note_off_c, 0, 40, 59
1, 647403, Control_c, 0, 64, 114
1, 647408, Note_on_c, 0, 47, 103
1, 647408, Note_on_c, 0, 52, 89
1, 647415, Note_on_c, 0, 40, 91
1, 647418, Control_c, 0, 64, 67
1, 647419, Note_on_c, 0, 55, 87
1, 647423, Note_on_c, 0, 59, 72
1, 647430, Note_on_c, 0, 67, 55
1, 647433, Control_c, 0, 64, 0
1, 647445, Note_on_c, 0, 48, 36
1, 647445, Note_off_c, 0, 48, 127
1, 647447, Note_off_c, 0, 52, 64
1, 647450, Note_off_c, 0, 47, 69
1, 647453, Note_off_c, 0, 59, 66
1, 647456, Note_off_c, 0, 55, 61
1, 647458, Note_off_c, 0, 40, 64
1, 647462, Note_off_c, 0, 67, 51
1, 647477, Control_c, 0, 64, 59
1, 647492, Control_c, 0, 64, 108
1, 647507, Control_c, 0, 64, 127
1, 647525, Note_on_c, 0, 55, 80
1, 647547, Note_on_c, 0, 59, 57
1, 647556, Note_off_c, 0, 55, 61
1, 647620, Note_on_c, 0, 64, 79
1, 647623, Note_off_c, 0, 59, 63
1, 647657, Note_off_c, 0, 64, 62
1, 647705, Note_on_c, 0, 67, 80
1, 647737, Note_off_c, 0, 67, 65
1, 647747, Note_on_c, 0, 71, 86
1, 647796, Note_on_c, 0, 76, 85
1, 647804, Note_off_c, 0, 71, 60
1, 647832, Note_off_c, 0, 76, 68
1, 647878, Note_on_c, 0, 79, 82
1, 647926, Note_on_c, 0, 83, 89
1, 647928, Note_off_c, 0, 79, 67
1, 647986, Note_on_c, 0, 88, 92
1, 647997, Note_off_c, 0, 83, 66
1, 648031, Note_off_c, 0, 88, 67
1, 648073, Note_on_c, 0, 91, 85
1, 648081, Note_on_c, 0, 76, 87
1, 648082, Note_on_c, 0, 71, 79
1, 648088, Note_on_c, 0, 67, 68
1, 648103, Note_on_c, 0, 64, 58
1, 648122, Note_off_c, 0, 64, 65
1, 648123, Note_on_c, 0, 95, 80
1, 648124, Note_off_c, 0, 67, 56
1, 648125, Note_off_c, 0, 76, 64
1, 648128, Note_off_c, 0, 71, 64
1, 648130, Note_off_c, 0, 91, 66
1, 648163, Note_on_c, 0, 96, 19
1, 648163, Note_off_c, 0, 96, 127
1, 648169, Note_on_c, 0, 100, 85
1, 648175, Note_off_c, 0, 95, 68
1, 648176, Note_on_c, 0, 71, 97
1, 648177, Note_on_c, 0, 76, 100
1, 648178, Note_on_c, 0, 103, 99
1, 648180, Note_on_c, 0, 67, 91
1, 648183, Note_on_c, 0, 64, 83
1, 648202, Note_off_c, 0, 64, 74
1, 648204, Note_off_c, 0, 76, 72
1, 648216, Note_off_c, 0, 67, 66
1, 648221, Note_off_c, 0, 71, 64
1, 648252, Note_on_c, 0, 95, 100
1, 648270, Note_off_c, 0, 103, 66
1, 648297, Note_off_c, 0, 100, 67
1, 648318, Note_on_c, 0, 91, 84
1, 648323, Note_off_c, 0, 95, 67
1, 648344, Note_off_c, 0, 91, 66
1, 648382, Note_on_c, 0, 88, 92
1, 648437, Note_on_c, 0, 83, 90
1, 648471, Note_off_c, 0, 88, 67
1, 648491, Note_off_c, 0, 83, 67
1, 648493, Note_on_c, 0, 79, 81
1, 648512, Note_off_c, 0, 79, 69
1, 648553, Note_on_c, 0, 76, 93
1, 648608, Note_on_c, 0, 71, 88
1, 648640, Note_off_c, 0, 76, 65
1, 648669, Note_off_c, 0, 71, 66
1, 648678, Note_on_c, 0, 67, 75
1, 648702, Note_off_c, 0, 67, 68
1, 648708, Note_on_c, 0, 69, 17
1, 648736, Note_on_c, 0, 64, 92
1, 648751, Note_off_c, 0, 69, 50
1, 648780, Note_on_c, 0, 59, 88
1, 648826, Note_on_c, 0, 55, 89
1, 648840, Note_off_c, 0, 59, 65
1, 648849, Note_off_c, 0, 55, 70
1, 648860, Note_off_c, 0, 64, 57
1, 648905, Note_on_c, 0, 33, 98
1, 649002, Note_on_c, 0, 45, 98
1, 649182, Control_c, 0, 64, 113
1, 649197, Control_c, 0, 64, 73
1, 649212, Control_c, 0, 64, 38
1, 649215, Note_on_c, 0, 91, 100
1, 649223, Note_on_c, 0, 81, 81
1, 649224, Note_on_c, 0, 84, 75
1, 649226, Note_on_c, 0, 79, 85
1, 649227, Control_c, 0, 64, 0
1, 649255, Note_on_c, 0, 86, 57
1, 649267, Note_off_c, 0, 33, 64
1, 649275, Note_on_c, 0, 85, 10
1, 649275, Note_off_c, 0, 85, 127
1, 649286, Control_c, 0, 64, 46
1, 649289, Note_off_c, 0, 86, 54
1, 649301, Control_c, 0, 64, 85
1, 649310, Note_off_c, 0, 45, 66
1, 649316, Control_c, 0, 64, 127
1, 649438, Note_off_c, 0, 79, 59
1, 649471, Note_on_c, 0, 52, 62
1, 649529, Note_off_c, 0, 52, 60
1, 649539, Note_on_c, 0, 55, 67
1, 649570, Note_off_c, 0, 55, 63
1, 649576, Note_on_c, 0, 57, 72
1, 649609, Note_off_c, 0, 57, 66
1, 649618, Note_on_c, 0, 60, 78
1, 649641, Note_off_c, 0, 60, 70
1, 649699, Note_on_c, 0, 64, 77
1, 649741, Note_on_c, 0, 67, 86
1, 649756, Note_off_c, 0, 91, 62
1, 649763, Note_off_c, 0, 64, 64
1, 649778, Note_on_c, 0, 69, 68
1, 649781, Note_off_c, 0, 81, 61
1, 649793, Note_off_c, 0, 67, 65
1, 649799, Note_off_c, 0, 84, 63
1, 649807, Note_on_c, 0, 72, 73
1, 649815, Note_off_c, 0, 69, 61
1, 649858, Note_on_c, 0, 64, 87
1, 649865, Note_off_c, 0, 72, 60
1, 649918, Note_on_c, 0, 67, 80
1, 649932, Note_on_c, 0, 68, 57
1, 649940, Note_on_c, 0, 69, 73
1, 649944, Note_off_c, 0, 64, 59
1, 649959, Note_off_c, 0, 68, 53
1, 649990, Note_on_c, 0, 76, 81
1, 649993, Note_off_c, 0, 67, 52
1, 650005, Note_on_c, 0, 90, 88
1, 650014, Note_on_c, 0, 78, 85
1, 650014, Note_on_c, 0, 81, 74
1, 650021, Note_off_c, 0, 76, 60
1, 650022, Note_on_c, 0, 84, 66
1, 650059, Note_on_c, 0, 67, 43
1, 650085, Note_off_c, 0, 69, 60
1, 650091, Note_off_c, 0, 67, 63
1, 650098, Note_on_c, 0, 72, 79
1, 650147, Note_off_c, 0, 72, 59
1, 650165, Note_on_c, 0, 69, 89
1, 650184, Note_on_c, 0, 67, 73
1, 650198, Note_off_c, 0, 90, 64
1, 650210, Poly_aftertouch_c, 0, 71, 0
1, 650216, Note_off_c, 0, 78, 50
1, 650226, Note_off_c, 0, 81, 50
1, 650229, Note_on_c, 0, 64, 88
1, 650229, Note_off_c, 0, 69, 65
1, 650240, Note_off_c, 0, 67, 64
1, 650258, Note_off_c, 0, 64, 66
1, 650302, Note_on_c, 0, 88, 85
1, 650306, Note_on_c, 0, 76, 99
1, 650312, Note_on_c, 0, 59, 91
1, 650333, Note_off_c, 0, 84, 64
1, 650351, Note_off_c, 0, 76, 66
1, 650361, Note_off_c, 0, 88, 65
1, 650374, Note_off_c, 0, 59, 46
1, 650383, Note_on_c, 0, 57, 85
1, 650405, Note_on_c, 0, 55, 57
1, 650405, Note_off_c, 0, 55, 127
1, 650414, Note_on_c, 0, 53, 73
1, 650429, Note_on_c, 0, 55, 24
1, 650454, Note_off_c, 0, 57, 65
1, 650456, Note_on_c, 0, 50, 90
1, 650470, Note_off_c, 0, 55, 64
1, 650471, Note_off_c, 0, 53, 64
1, 650491, Note_off_c, 0, 50, 63
1, 650592, Control_c, 0, 64, 87
1, 650604, Note_on_c, 0, 45, 95
1, 650605, Note_on_c, 0, 38, 95
1, 650607, Control_c, 0, 64, 49
1, 650611, Note_on_c, 0, 86, 93
1, 650612, Note_on_c, 0, 74, 105
1, 650613, Note_on_c, 0, 78, 95
1, 650613, Note_on_c, 0, 81, 86
1, 650622, Control_c, 0, 64, 0
1, 650639, Note_off_c, 0, 38, 64
1, 650642, Note_off_c, 0, 45, 63
1, 650646, Note_off_c, 0, 74, 67
1, 650652, Control_c, 0, 64, 41
1, 650653, Note_off_c, 0, 86, 63
1, 650667, Control_c, 0, 64, 69
1, 650674, Note_off_c, 0, 81, 64
1, 650681, Control_c, 0, 64, 127
1, 650689, Note_off_c, 0, 78, 58
1, 650774, Note_on_c, 0, 50, 75
1, 650834, Note_on_c, 0, 54, 78
1, 650838, Note_off_c, 0, 50, 56
1, 650889, Note_off_c, 0, 54, 62
1, 650892, Note_on_c, 0, 57, 62
1, 650927, Note_off_c, 0, 57, 66
1, 650947, Note_on_c, 0, 62, 72
1, 650970, Note_on_c, 0, 72, 95
1, 650971, Note_on_c, 0, 84, 89
1, 650972, Note_on_c, 0, 78, 83
1, 650972, Note_off_c, 0, 62, 68
1, 650975, Note_on_c, 0, 74, 87
1, 651005, Note_off_c, 0, 72, 65
1, 651063, Note_on_c, 0, 66, 14
1, 651104, Note_off_c, 0, 66, 31
1, 651105, Note_on_c, 0, 69, 56
1, 651131, Note_off_c, 0, 69, 57
1, 651144, Note_on_c, 0, 62, 81
1, 651172, Note_off_c, 0, 74, 50
1, 651182, Note_on_c, 0, 66, 79
1, 651219, Note_on_c, 0, 69, 73
1, 651272, Note_on_c, 0, 74, 96
1, 651296, Note_off_c, 0, 66, 60
1, 651299, Note_off_c, 0, 69, 61
1, 651319, Note_off_c, 0, 74, 61
1, 651345, Note_off_c, 0, 78, 57
1, 651352, Note_on_c, 0, 66, 63
1, 651354, Note_off_c, 0, 84, 62
1, 651356, Note_off_c, 0, 62, 35
1, 651383, Note_on_c, 0, 72, 85
1, 651388, Note_off_c, 0, 66, 66
1, 651440, Note_off_c, 0, 72, 57
1, 651459, Note_on_c, 0, 69, 86
1, 651526, Note_on_c, 0, 66, 87
1, 651540, Note_off_c, 0, 69, 62
1, 651585, Note_off_c, 0, 66, 63
1, 651593, Note_on_c, 0, 83, 88
1, 651594, Note_on_c, 0, 71, 94
1, 651594, Note_on_c, 0, 74, 91
1, 651598, Note_on_c, 0, 78, 82
1, 651629, Note_on_c, 0, 62, 84
1, 651695, Note_off_c, 0, 71, 53
1, 651707, Note_off_c, 0, 62, 58
1, 651719, Note_off_c, 0, 74, 55
1, 651737, Note_off_c, 0, 83, 57
1, 651739, Note_on_c, 0, 60, 92
1, 651743, Note_off_c, 0, 78, 57
1, 651840, Note_on_c, 0, 74, 87
1, 651840, Note_on_c, 0, 81, 88
1, 651841, Note_on_c, 0, 57, 82
1, 651841, Note_on_c, 0, 69, 94
1, 651843, Note_on_c, 0, 78, 82
1, 651876, Note_off_c, 0, 60, 60
1, 651885, Note_off_c, 0, 69, 62
1, 651901, Note_off_c, 0, 74, 62
1, 651903, Note_off_c, 0, 81, 61
1, 651919, Note_off_c, 0, 78, 59
1, 651957, Note_on_c, 0, 54, 76
1, 651960, Note_off_c, 0, 57, 65
1, 651963, Note_on_c, 0, 56, 23
1, 651988, Note_off_c, 0, 54, 62
1, 652002, Note_off_c, 0, 56, 50
1, 652205, Note_on_c, 0, 59, 92
1, 652207, Note_on_c, 0, 79, 85
1, 652208, Control_c, 0, 64, 92
1, 652208, Note_on_c, 0, 74, 84
1, 652210, Note_on_c, 0, 71, 89
1, 652211, Note_on_c, 0, 67, 94
1, 652211, Note_on_c, 0, 43, 76
1, 652211, Note_on_c, 0, 50, 77
1, 652223, Control_c, 0, 64, 52
1, 652238, Control_c, 0, 64, 0
1, 652282, Control_c, 0, 64, 59
1, 652287, Note_off_c, 0, 79, 64
1, 652297, Control_c, 0, 64, 101
1, 652300, Note_off_c, 0, 74, 65
1, 652312, Control_c, 0, 64, 127
1, 652321, Note_off_c, 0, 71, 60
1, 652323, Note_off_c, 0, 59, 65
1, 652330, Note_off_c, 0, 67, 64
1, 652470, Note_on_c, 0, 55, 75
1, 652510, Note_off_c, 0, 55, 61
1, 652527, Note_on_c, 0, 59, 70
1, 652567, Note_off_c, 0, 43, 61
1, 652568, Note_off_c, 0, 59, 57
1, 652573, Note_off_c, 0, 50, 65
1, 652574, Note_on_c, 0, 62, 79
1, 652596, Note_off_c, 0, 62, 67
1, 652652, Note_on_c, 0, 67, 78
1, 652690, Note_off_c, 0, 67, 63
1, 652699, Note_on_c, 0, 71, 81
1, 652748, Note_on_c, 0, 74, 92
1, 652757, Note_off_c, 0, 71, 61
1, 652782, Note_off_c, 0, 74, 67
1, 652822, Note_on_c, 0, 62, 77
1, 652823, Note_on_c, 0, 67, 86
1, 652824, Note_on_c, 0, 71, 85
1, 652831, Note_on_c, 0, 59, 67
1, 652840, Note_on_c, 0, 79, 71
1, 652855, Note_off_c, 0, 71, 60
1, 652858, Note_off_c, 0, 59, 67
1, 652861, Note_off_c, 0, 67, 66
1, 652862, Note_off_c, 0, 79, 71
1, 652863, Note_off_c, 0, 62, 60
1, 652875, Note_on_c, 0, 83, 88
1, 652900, Note_on_c, 0, 67, 91
1, 652901, Note_on_c, 0, 71, 95
1, 652904, Note_on_c, 0, 62, 88
1, 652913, Note_on_c, 0, 86, 78
1, 652917, Note_on_c, 0, 59, 69
1, 652924, Note_on_c, 0, 91, 99
1, 652926, Note_off_c, 0, 71, 67
1, 652929, Note_off_c, 0, 83, 64
1, 652932, Note_off_c, 0, 67, 70
1, 652934, Note_off_c, 0, 59, 69
1, 652938, Note_off_c, 0, 62, 67
1, 653001, Note_on_c, 0, 83, 79
1, 653023, Note_off_c, 0, 91, 60
1, 653027, Note_off_c, 0, 86, 66
1, 653028, Poly_aftertouch_c, 0, 88, 0
1, 653048, Note_on_c, 0, 79, 90
1, 653051, Note_off_c, 0, 83, 65
1, 653084, Note_off_c, 0, 79, 64
1, 653123, Note_on_c, 0, 74, 92
1, 653171, Note_on_c, 0, 75, 21
1, 653171, Note_off_c, 0, 75, 127
1, 653181, Note_on_c, 0, 71, 83
1, 653197, Note_off_c, 0, 74, 63
1, 653225, Note_off_c, 0, 71, 63
1, 653227, Note_on_c, 0, 67, 86
1, 653263, Note_off_c, 0, 67, 59
1, 653302, Note_on_c, 0, 62, 79
1, 653340, Note_on_c, 0, 59, 59
1, 653346, Note_off_c, 0, 62, 61
1, 653366, Note_on_c, 0, 60, 46
1, 653394, Note_off_c, 0, 60, 62
1, 653398, Note_on_c, 0, 55, 82
1, 653400, Note_on_c, 0, 47, 73
1, 653402, Note_on_c, 0, 52, 73
1, 653403, Note_on_c, 0, 40, 68
1, 653410, Note_off_c, 0, 59, 60
1, 653420, Note_on_c, 0, 67, 50
1, 653421, Note_off_c, 0, 55, 69
1, 653424, Note_off_c, 0, 47, 66
1, 653427, Note_off_c, 0, 40, 61
1, 653430, Note_off_c, 0, 52, 66
1, 653446, Note_off_c, 0, 67, 58
1, 653454, Control_c, 0, 64, 71
1, 653457, Note_on_c, 0, 47, 106
1, 653461, Note_on_c, 0, 52, 100
1, 653467, Note_on_c, 0, 40, 88
1, 653469, Control_c, 0, 64, 0
1, 653471, Note_on_c, 0, 59, 87
1, 653479, Note_on_c, 0, 55, 80
1, 653487, Note_on_c, 0, 67, 60
1, 653494, Note_off_c, 0, 52, 69
1, 653498, Control_c, 0, 64, 37
1, 653500, Note_off_c, 0, 47, 67
1, 653507, Note_off_c, 0, 40, 64
1, 653507, Note_off_c, 0, 55, 57
1, 653510, Note_off_c, 0, 67, 58
1, 653513, Control_c, 0, 64, 67
1, 653519, Note_off_c, 0, 59, 65
1, 653527, Control_c, 0, 64, 127
1, 653583, Note_on_c, 0, 55, 79
1, 653610, Note_off_c, 0, 55, 63
1, 653617, Note_on_c, 0, 59, 68
1, 653675, Note_on_c, 0, 64, 84
1, 653678, Note_off_c, 0, 59, 62
1, 653714, Note_off_c, 0, 64, 61
1, 653764, Note_on_c, 0, 67, 76
1, 653802, Note_off_c, 0, 67, 64
1, 653805, Note_on_c, 0, 71, 83
1, 653855, Note_on_c, 0, 76, 83
1, 653859, Note_off_c, 0, 71, 60
1, 653893, Note_off_c, 0, 76, 62
1, 653943, Note_on_c, 0, 79, 75
1, 653984, Note_off_c, 0, 79, 64
1, 653988, Note_on_c, 0, 83, 82
1, 654041, Note_on_c, 0, 88, 90
1, 654056, Note_off_c, 0, 83, 64
1, 654083, Note_off_c, 0, 88, 68
1, 654113, Note_on_c, 0, 71, 75
1, 654114, Note_on_c, 0, 76, 86
1, 654116, Note_on_c, 0, 67, 64
1, 654129, Note_on_c, 0, 64, 62
1, 654129, Note_on_c, 0, 91, 81
1, 654154, Note_off_c, 0, 64, 66
1, 654157, Note_off_c, 0, 67, 60
1, 654157, Note_off_c, 0, 71, 63
1, 654157, Note_off_c, 0, 76, 62
1, 654165, Note_on_c, 0, 95, 86
1, 654175, Note_off_c, 0, 91, 66
1, 654204, Note_on_c, 0, 71, 97
1, 654204, Note_on_c, 0, 76, 98
1, 654207, Note_on_c, 0, 67, 85
1, 654211, Note_on_c, 0, 64, 86
1, 654211, Note_off_c, 0, 95, 65
1, 654214, Note_on_c, 0, 103, 96
1, 654221, Note_on_c, 0, 99, 53
1, 654232, Note_off_c, 0, 64, 69
1, 654235, Note_off_c, 0, 76, 70
1, 654241, Note_on_c, 0, 100, 56
1, 654244, Note_off_c, 0, 99, 59
1, 654248, Note_off_c, 0, 71, 65
1, 654252, Note_off_c, 0, 67, 64
1, 654295, Note_on_c, 0, 95, 90
1, 654299, Note_off_c, 0, 103, 64
1, 654333, Note_off_c, 0, 100, 67
1, 654343, Note_on_c, 0, 91, 80
1, 654350, Note_off_c, 0, 95, 67
1, 654363, Note_off_c, 0, 91, 73
1, 654417, Note_on_c, 0, 88, 87
1, 654467, Note_on_c, 0, 83, 78
1, 654500, Note_off_c, 0, 88, 66
1, 654517, Note_on_c, 0, 79, 81
1, 654521, Note_off_c, 0, 83, 66
1, 654546, Note_off_c, 0, 79, 61
1, 654607, Note_on_c, 0, 76, 66
1, 654626, Note_on_c, 0, 74, 67
1, 654648, Note_off_c, 0, 74, 59
1, 654649, Note_on_c, 0, 71, 62
1, 654667, Note_off_c, 0, 76, 65
1, 654687, Note_on_c, 0, 67, 79
1, 654695, Note_off_c, 0, 71, 63
1, 654727, Note_off_c, 0, 67, 62
1, 654788, Control_c, 0, 64, 73
1, 654794, Note_on_c, 0, 52, 69
1, 654803, Control_c, 0, 64, 0
1, 654806, Note_on_c, 0, 54, 65
1, 654809, Note_on_c, 0, 67, 72
1, 654831, Note_on_c, 0, 69, 74
1, 654836, Note_off_c, 0, 52, 64
1, 654848, Note_off_c, 0, 67, 62
1, 654852, Note_off_c, 0, 54, 66
1, 654858, Note_on_c, 0, 55, 75
1, 654876, Note_on_c, 0, 71, 70
1, 654877, Control_c, 0, 64, 69
1, 654879, Note_on_c, 0, 57, 75
1, 654892, Control_c, 0, 64, 127
1, 654894, Note_off_c, 0, 55, 65
1, 654902, Note_off_c, 0, 69, 62
1, 654908, Note_off_c, 0, 71, 62
1, 654911, Note_on_c, 0, 75, 74
1, 654912, Note_off_c, 0, 57, 63
1, 654919, Note_on_c, 0, 73, 53
1, 654931, Note_on_c, 0, 59, 78
1, 654941, Note_off_c, 0, 73, 59
1, 654956, Note_off_c, 0, 59, 67
1, 654956, Note_off_c, 0, 75, 64
1, 654988, Note_on_c, 0, 74, 64
1, 654989, Note_on_c, 0, 76, 73
1, 654989, Note_on_c, 0, 61, 86
1, 655019, Note_off_c, 0, 74, 67
1, 655027, Note_on_c, 0, 78, 78
1, 655030, Note_off_c, 0, 76, 66
1, 655038, Note_on_c, 0, 63, 84
1, 655040, Note_off_c, 0, 61, 65
1, 655069, Note_on_c, 0, 79, 65
1, 655072, Note_off_c, 0, 78, 62
1, 655082, Note_on_c, 0, 64, 78
1, 655088, Note_off_c, 0, 63, 63
1, 655092, Note_off_c, 0, 79, 65
1, 655129, Note_off_c, 0, 64, 65
1, 655140, Note_on_c, 0, 81, 68
1, 655150, Note_on_c, 0, 66, 86
1, 655169, Note_off_c, 0, 81, 66
1, 655173, Note_on_c, 0, 65, 71
1, 655178, Note_on_c, 0, 83, 67
1, 655194, Note_on_c, 0, 67, 79
1, 655197, Note_off_c, 0, 65, 68
1, 655197, Note_off_c, 0, 66, 64
1, 655201, Note_off_c, 0, 83, 68
1, 655205, Note_on_c, 0, 85, 79
1, 655224, Note_off_c, 0, 85, 72
1, 655235, Note_on_c, 0, 69, 86
1, 655239, Note_off_c, 0, 67, 65
1, 655268, Note_off_c, 0, 69, 61
1, 655289, Note_on_c, 0, 87, 67
1, 655300, Note_on_c, 0, 70, 71
1, 655322, Note_on_c, 0, 71, 59
1, 655331, Note_off_c, 0, 70, 54
1, 655332, Note_on_c, 0, 90, 88
1, 655335, Note_on_c, 0, 75, 104
1, 655338, Note_on_c, 0, 88, 55
1, 655341, Note_on_c, 0, 72, 39
1, 655344, Note_off_c, 0, 71, 60
1, 655350, Note_on_c, 0, 73, 65
1, 655353, Note_off_c, 0, 87, 34
1, 655361, Note_off_c, 0, 88, 61
1, 655365, Note_off_c, 0, 75, 72
1, 655367, Note_off_c, 0, 73, 64
1, 655367, Note_off_c, 0, 90, 69
1, 655373, Note_off_c, 0, 72, 53
1, 655700, Control_c, 0, 64, 113
1, 655704, Note_on_c, 0, 33, 65
1, 655715, Control_c, 0, 64, 75
1, 655723, Note_on_c, 0, 45, 55
1, 655729, Control_c, 0, 64, 52
1, 655744, Control_c, 0, 64, 0
1, 655818, Control_c, 0, 64, 50
1, 655829, Note_on_c, 0, 91, 76
1, 655833, Control_c, 0, 64, 66
1, 655836, Note_on_c, 0, 79, 41
1, 655847, Note_on_c, 0, 84, 56
1, 655848, Control_c, 0, 64, 83
1, 655854, Note_on_c, 0, 81, 46
1, 655862, Control_c, 0, 64, 120
1, 655877, Control_c, 0, 64, 127
1, 655880, Note_off_c, 0, 33, 61
1, 655920, Note_off_c, 0, 45, 62
1, 656089, Note_on_c, 0, 52, 49
1, 656152, Note_off_c, 0, 52, 61
1, 656157, Note_on_c, 0, 55, 58
1, 656199, Note_off_c, 0, 55, 62
1, 656214, Note_on_c, 0, 57, 61
1, 656245, Note_off_c, 0, 57, 65
1, 656250, Note_on_c, 0, 60, 71
1, 656277, Note_off_c, 0, 60, 68
1, 656354, Note_on_c, 0, 64, 55
1, 656389, Note_on_c, 0, 67, 70
1, 656399, Note_off_c, 0, 64, 64
1, 656433, Note_off_c, 0, 67, 63
1, 656444, Note_on_c, 0, 69, 55
1, 656457, Note_off_c, 0, 91, 59
1, 656462, Note_off_c, 0, 79, 38
1, 656470, Note_on_c, 0, 72, 52
1, 656472, Note_off_c, 0, 69, 64
1, 656500, Note_off_c, 0, 81, 60
1, 656503, Note_off_c, 0, 72, 60
1, 656518, Note_on_c, 0, 64, 76
1, 656524, Note_off_c, 0, 84, 62
1, 656589, Note_on_c, 0, 67, 69
1, 656614, Note_off_c, 0, 64, 42
1, 656620, Note_on_c, 0, 69, 58
1, 656663, Note_off_c, 0, 67, 58
1, 656672, Note_on_c, 0, 76, 65
1, 656679, Note_off_c, 0, 69, 59
1, 656697, Note_on_c, 0, 90, 76
1, 656700, Note_off_c, 0, 76, 66
1, 656716, Note_on_c, 0, 78, 51
1, 656725, Note_on_c, 0, 84, 49
1, 656740, Note_off_c, 0, 78, 55
1, 656780, Note_on_c, 0, 72, 72
1, 656808, Note_off_c, 0, 90, 64
1, 656813, Note_off_c, 0, 72, 54
1, 656835, Note_on_c, 0, 69, 78
1, 656864, Note_on_c, 0, 67, 67
1, 656887, Note_off_c, 0, 69, 61
1, 656906, Note_on_c, 0, 64, 71
1, 656909, Note_off_c, 0, 67, 66
1, 656929, Note_off_c, 0, 64, 69
1, 656944, Note_on_c, 0, 88, 81
1, 656947, Note_on_c, 0, 76, 72
1, 656952, Note_off_c, 0, 84, 62
1, 656964, Note_off_c, 0, 76, 67
1, 656977, Note_on_c, 0, 60, 79
1, 656992, Note_off_c, 0, 88, 66
1, 657017, Note_off_c, 0, 60, 58
1, 657046, Note_on_c, 0, 57, 72
1, 657065, Note_on_c, 0, 55, 66
1, 657095, Note_off_c, 0, 57, 62
1, 657099, Note_on_c, 0, 52, 67
1, 657101, Note_off_c, 0, 55, 63
1, 657129, Note_off_c, 0, 52, 64
1, 657198, Control_c, 0, 64, 84
1, 657212, Control_c, 0, 64, 56
1, 657227, Control_c, 0, 64, 0
1, 657242, Control_c, 0, 64, 30
1, 657242, Note_on_c, 0, 91, 73
1, 657243, Note_on_c, 0, 46, 59
1, 657254, Note_on_c, 0, 88, 61
1, 657254, Note_on_c, 0, 34, 41
1, 657256, Note_on_c, 0, 79, 39
1, 657256, Control_c, 0, 64, 56
1, 657263, Note_on_c, 0, 84, 39
1, 657269, Note_off_c, 0, 46, 56
1, 657271, Control_c, 0, 64, 81
1, 657286, Control_c, 0, 64, 127
1, 657302, Note_off_c, 0, 34, 51
1, 657314, Note_off_c, 0, 79, 0
1, 657317, Note_off_c, 0, 84, 0
1, 657317, Note_on_c, 0, 84, 23
1, 657339, Note_on_c, 0, 79, 12
1, 657388, Note_on_c, 0, 52, 67
1, 657447, Note_off_c, 0, 52, 61
1, 657449, Note_on_c, 0, 55, 69
1, 657496, Note_on_c, 0, 60, 74
1, 657502, Note_off_c, 0, 55, 63
1, 657515, Note_off_c, 0, 91, 61
1, 657534, Note_off_c, 0, 60, 62
1, 657547, Note_on_c, 0, 64, 70
1, 657549, Note_off_c, 0, 79, 42
1, 657572, Note_off_c, 0, 64, 67
1, 657621, Note_on_c, 0, 67, 78
1, 657687, Note_on_c, 0, 72, 70
1, 657689, Note_off_c, 0, 84, 35
1, 657696, Note_off_c, 0, 67, 62
1, 657723, Note_off_c, 0, 72, 59
1, 657724, Note_on_c, 0, 90, 76
1, 657725, Note_on_c, 0, 76, 79
1, 657733, Note_on_c, 0, 78, 65
1, 657750, Note_off_c, 0, 76, 65
1, 657777, Note_off_c, 0, 78, 52
1, 657784, Note_off_c, 0, 88, 41
1, 657787, Note_on_c, 0, 72, 71
1, 657798, Note_off_c, 0, 90, 61
1, 657804, Note_on_c, 0, 67, 79
1, 657817, Note_off_c, 0, 72, 65
1, 657848, Note_off_c, 0, 67, 63
1, 657897, Note_on_c, 0, 64, 83
1, 657924, Note_on_c, 0, 88, 71
1, 657933, Note_on_c, 0, 76, 58
1, 657949, Note_off_c, 0, 64, 65
1, 657955, Note_off_c, 0, 76, 60
1, 657958, Note_off_c, 0, 88, 64
1, 657961, Note_on_c, 0, 60, 79
1, 657994, Note_on_c, 0, 55, 75
1, 658000, Note_on_c, 0, 59, 23
1, 658000, Note_off_c, 0, 59, 127
1, 658017, Note_off_c, 0, 60, 65
1, 658038, Note_on_c, 0, 50, 74
1, 658047, Note_off_c, 0, 55, 62
1, 658068, Note_off_c, 0, 50, 68
1, 658152, Control_c, 0, 64, 112
1, 658167, Control_c, 0, 64, 68
1, 658172, Note_on_c, 0, 35, 77
1, 658173, Note_on_c, 0, 47, 78
1, 658182, Control_c, 0, 64, 31
1, 658184, Note_on_c, 0, 91, 74
1, 658190, Note_on_c, 0, 79, 66
1, 658193, Note_off_c, 0, 35, 60
1, 658196, Control_c, 0, 64, 0
1, 658202, Note_off_c, 0, 47, 67
1, 658205, Note_on_c, 0, 88, 51
1, 658211, Control_c, 0, 64, 40
1, 658220, Note_off_c, 0, 79, 64
1, 658226, Control_c, 0, 64, 64
1, 658230, Note_off_c, 0, 91, 62
1, 658241, Control_c, 0, 64, 127
1, 658242, Note_off_c, 0, 88, 48
1, 658279, Poly_aftertouch_c, 0, 83, 127
1, 658327, Note_on_c, 0, 52, 75
1, 658351, Poly_aftertouch_c, 0, 83, 0
1, 658384, Note_on_c, 0, 90, 72
1, 658384, Note_off_c, 0, 52, 60
1, 658387, Note_on_c, 0, 55, 63
1, 658388, Note_on_c, 0, 78, 74
1, 658417, Note_on_c, 0, 59, 84
1, 658430, Note_off_c, 0, 55, 63
1, 658433, Note_off_c, 0, 78, 49
1, 658441, Note_off_c, 0, 90, 53
1, 658469, Note_off_c, 0, 59, 64
1, 658479, Note_on_c, 0, 64, 82
1, 658503, Note_off_c, 0, 64, 69
1, 658536, Note_on_c, 0, 76, 89
1, 658539, Note_on_c, 0, 88, 77
1, 658560, Note_on_c, 0, 67, 88
1, 658578, Note_off_c, 0, 76, 64
1, 658587, Note_off_c, 0, 88, 64
1, 658606, Note_on_c, 0, 71, 76
1, 658617, Note_off_c, 0, 67, 62
1, 658651, Note_on_c, 0, 76, 84
1, 658655, Note_off_c, 0, 71, 62
1, 658680, Note_on_c, 0, 91, 90
1, 658682, Note_on_c, 0, 83, 88
1, 658685, Note_on_c, 0, 79, 81
1, 658696, Note_off_c, 0, 76, 65
1, 658703, Note_on_c, 0, 71, 72
1, 658725, Note_off_c, 0, 79, 65
1, 658727, Note_on_c, 0, 67, 82
1, 658727, Note_off_c, 0, 91, 67
1, 658745, Note_off_c, 0, 83, 61
1, 658750, Note_off_c, 0, 71, 63
1, 658769, Note_off_c, 0, 67, 61
1, 658812, Note_on_c, 0, 64, 88
1, 658820, Note_on_c, 0, 78, 85
1, 658823, Note_on_c, 0, 90, 71
1, 658838, Note_on_c, 0, 83, 55
1, 658846, Note_off_c, 0, 90, 70
1, 658860, Note_off_c, 0, 83, 58
1, 658862, Note_off_c, 0, 64, 59
1, 658863, Note_off_c, 0, 78, 54
1, 658879, Note_on_c, 0, 59, 85
1, 658906, Note_on_c, 0, 55, 81
1, 658926, Note_off_c, 0, 59, 65
1, 658938, Note_on_c, 0, 76, 91
1, 658940, Note_on_c, 0, 88, 85
1, 658954, Note_off_c, 0, 55, 65
1, 658978, Note_off_c, 0, 76, 65
1, 658982, Note_off_c, 0, 88, 67
1, 659035, Note_on_c, 0, 48, 109
1, 659035, Control_c, 0, 64, 76
1, 659036, Note_on_c, 0, 36, 95
1, 659049, Note_on_c, 0, 91, 101
1, 659050, Control_c, 0, 64, 39
1, 659057, Note_on_c, 0, 79, 92
1, 659061, Note_off_c, 0, 36, 69
1, 659065, Control_c, 0, 64, 0
1, 659072, Note_off_c, 0, 48, 67
1, 659079, Control_c, 0, 64, 44
1, 659094, Control_c, 0, 64, 71
1, 659095, Note_off_c, 0, 79, 67
1, 659109, Control_c, 0, 64, 127
1, 659186, Note_on_c, 0, 55, 84
1, 659206, Note_off_c, 0, 91, 61
1, 659211, Note_on_c, 0, 90, 79
1, 659216, Note_on_c, 0, 78, 78
1, 659241, Note_off_c, 0, 78, 62
1, 659246, Note_off_c, 0, 55, 58
1, 659251, Note_on_c, 0, 58, 89
1, 659261, Note_off_c, 0, 90, 63
1, 659292, Note_off_c, 0, 58, 65
1, 659296, Note_on_c, 0, 64, 79
1, 659325, Note_off_c, 0, 64, 65
1, 659331, Note_on_c, 0, 88, 80
1, 659332, Note_on_c, 0, 76, 83
1, 659364, Note_off_c, 0, 76, 61
1, 659374, Note_off_c, 0, 88, 65
1, 659380, Note_on_c, 0, 67, 79
1, 659401, Note_on_c, 0, 69, 53
1, 659427, Note_off_c, 0, 69, 36
1, 659429, Note_on_c, 0, 70, 82
1, 659435, Note_off_c, 0, 67, 65
1, 659460, Note_on_c, 0, 91, 86
1, 659461, Note_on_c, 0, 76, 92
1, 659472, Note_on_c, 0, 79, 77
1, 659494, Note_off_c, 0, 79, 68
1, 659505, Note_off_c, 0, 76, 65
1, 659513, Note_off_c, 0, 91, 67
1, 659517, Note_off_c, 0, 70, 0
1, 659539, Note_on_c, 0, 67, 83
1, 659555, Note_on_c, 0, 69, 46
1, 659555, Poly_aftertouch_c, 0, 70, 127
1, 659560, Note_on_c, 0, 90, 97
1, 659571, Note_off_c, 0, 67, 62
1, 659572, Note_on_c, 0, 78, 84
1, 659577, Note_off_c, 0, 69, 60
1, 659594, Note_off_c, 0, 78, 63
1, 659606, Poly_aftertouch_c, 0, 70, 0
1, 659607, Note_off_c, 0, 90, 67
1, 659625, Note_on_c, 0, 64, 91
1, 659651, Note_on_c, 0, 58, 89
1, 659673, Note_off_c, 0, 64, 66
1, 659675, Note_on_c, 0, 88, 87
1, 659676, Note_on_c, 0, 76, 93
1, 659689, Note_on_c, 0, 55, 54
1, 659693, Note_on_c, 0, 89, 58
1, 659693, Note_off_c, 0, 89, 127
1, 659695, Note_on_c, 0, 57, 60
1, 659699, Note_off_c, 0, 58, 65
1, 659711, Note_off_c, 0, 76, 68
1, 659714, Note_off_c, 0, 88, 67
1, 659719, Note_off_c, 0, 57, 63
1, 659723, Note_off_c, 0, 55, 62
1, 659783, Note_on_c, 0, 49, 101
1, 659783, Note_on_c, 0, 91, 110
1, 659784, Control_c, 0, 64, 67
1, 659785, Note_on_c, 0, 37, 102
1, 659791, Note_on_c, 0, 79, 102
1, 659799, Control_c, 0, 64, 0
1, 659804, Note_on_c, 0, 39, 65
1, 659805, Note_off_c, 0, 37, 79
1, 659805, Note_off_c, 0, 49, 68
1, 659807, Note_on_c, 0, 50, 64
1, 659821, Note_off_c, 0, 79, 70
1, 659829, Note_on_c, 0, 90, 20
1, 659829, Note_off_c, 0, 91, 69
1, 659829, Control_c, 0, 64, 49
1, 659830, Note_off_c, 0, 39, 62
1, 659831, Note_off_c, 0, 50, 64
1, 659843, Control_c, 0, 64, 80
1, 659858, Control_c, 0, 64, 127
1, 659869, Note_off_c, 0, 90, 32
1, 659878, Poly_aftertouch_c, 0, 48, 127
1, 659896, Poly_aftertouch_c, 0, 51, 0
1, 659901, Note_on_c, 0, 90, 81
1, 659913, Note_on_c, 0, 78, 86
1, 659913, Poly_aftertouch_c, 0, 48, 0
1, 659931, Note_off_c, 0, 78, 71
1, 659941, Note_off_c, 0, 90, 65
1, 659958, Note_on_c, 0, 55, 62
1, 659980, Note_off_c, 0, 55, 60
1, 659981, Note_on_c, 0, 57, 70
1, 660020, Note_on_c, 0, 88, 85
1, 660027, Note_on_c, 0, 76, 73
1, 660038, Note_off_c, 0, 57, 64
1, 660042, Note_on_c, 0, 64, 82
1, 660050, Note_off_c, 0, 76, 71
1, 660062, Note_off_c, 0, 88, 65
1, 660077, Note_off_c, 0, 64, 62
1, 660120, Note_on_c, 0, 90, 92
1, 660128, Note_on_c, 0, 78, 84
1, 660129, Note_on_c, 0, 67, 81
1, 660149, Note_off_c, 0, 78, 68
1, 660160, Note_on_c, 0, 69, 73
1, 660165, Note_off_c, 0, 90, 63
1, 660193, Note_off_c, 0, 69, 62
1, 660197, Note_off_c, 0, 67, 60
1, 660203, Note_on_c, 0, 76, 90
1, 660214, Note_on_c, 0, 91, 100
1, 660219, Note_on_c, 0, 79, 90
1, 660247, Note_off_c, 0, 76, 68
1, 660251, Note_on_c, 0, 70, 71
1, 660251, Note_off_c, 0, 79, 68
1, 660256, Note_off_c, 0, 91, 69
1, 660289, Note_on_c, 0, 69, 68
1, 660292, Note_on_c, 0, 67, 83
1, 660304, Note_off_c, 0, 70, 64
1, 660305, Note_on_c, 0, 90, 94
1, 660310, Note_off_c, 0, 69, 71
1, 660315, Note_on_c, 0, 78, 90
1, 660321, Note_off_c, 0, 67, 65
1, 660337, Note_off_c, 0, 78, 64
1, 660342, Note_off_c, 0, 90, 69
1, 660372, Note_on_c, 0, 64, 77
1, 660372, Note_on_c, 0, 65, 69
1, 660397, Note_off_c, 0, 65, 66
1, 660400, Note_on_c, 0, 88, 95
1, 660401, Note_on_c, 0, 76, 92
1, 660410, Note_off_c, 0, 64, 61
1, 660418, Note_on_c, 0, 59, 92
1, 660434, Note_off_c, 0, 76, 68
1, 660436, Note_off_c, 0, 88, 69
1, 660454, Note_on_c, 0, 55, 77
1, 660455, Note_off_c, 0, 59, 70
1, 660486, Note_off_c, 0, 55, 65
1, 660492, Note_on_c, 0, 90, 98
1, 660495, Note_on_c, 0, 78, 96
1, 660526, Note_off_c, 0, 78, 66
1, 660530, Note_off_c, 0, 90, 65
1, 660533, Control_c, 0, 64, 95
1, 660545, Note_on_c, 0, 50, 97
1, 660548, Control_c, 0, 64, 54
1, 660557, Note_on_c, 0, 36, 88
1, 660563, Control_c, 0, 64, 0
1, 660564, Note_on_c, 0, 48, 79
1, 660565, Note_on_c, 0, 91, 107
1, 660570, Note_on_c, 0, 79, 98
1, 660579, Note_off_c, 0, 36, 66
1, 660587, Note_off_c, 0, 48, 63
1, 660587, Note_off_c, 0, 50, 70
1, 660592, Control_c, 0, 64, 57
1, 660607, Control_c, 0, 64, 127
1, 660611, Note_off_c, 0, 79, 69
1, 660618, Note_off_c, 0, 91, 69
1, 660682, Note_on_c, 0, 90, 83
1, 660689, Note_on_c, 0, 78, 99
1, 660709, Note_on_c, 0, 55, 84
1, 660712, Note_off_c, 0, 78, 60
1, 660716, Note_off_c, 0, 90, 67
1, 660742, Poly_aftertouch_c, 0, 36, 0
1, 660770, Note_on_c, 0, 59, 85
1, 660775, Note_off_c, 0, 55, 62
1, 660792, Note_on_c, 0, 88, 91
1, 660795, Note_on_c, 0, 76, 87
1, 660813, Note_on_c, 0, 64, 83
1, 660817, Note_off_c, 0, 59, 64
1, 660818, Note_off_c, 0, 76, 67
1, 660826, Note_off_c, 0, 88, 67
1, 660846, Note_off_c, 0, 64, 62
1, 660882, Note_on_c, 0, 90, 96
1, 660887, Note_on_c, 0, 78, 92
1, 660898, Note_on_c, 0, 67, 87
1, 660912, Note_off_c, 0, 78, 62
1, 660916, Note_on_c, 0, 71, 81
1, 660922, Note_off_c, 0, 90, 66
1, 660950, Note_off_c, 0, 67, 57
1, 660966, Note_on_c, 0, 76, 91
1, 660968, Note_on_c, 0, 91, 99
1, 660974, Note_on_c, 0, 79, 95
1, 660981, Note_off_c, 0, 71, 63
1, 661003, Note_off_c, 0, 76, 67
1, 661007, Note_off_c, 0, 79, 68
1, 661009, Note_off_c, 0, 91, 71
1, 661045, Note_on_c, 0, 71, 79
1, 661050, Note_on_c, 0, 67, 87
1, 661052, Note_on_c, 0, 90, 99
1, 661067, Note_on_c, 0, 78, 82
1, 661068, Note_off_c, 0, 71, 69
1, 661084, Note_off_c, 0, 67, 63
1, 661085, Note_off_c, 0, 78, 70
1, 661093, Note_on_c, 0, 69, 6
1, 661094, Note_off_c, 0, 90, 68
1, 661137, Note_on_c, 0, 62, 95
1, 661146, Note_off_c, 0, 69, 53
1, 661151, Note_on_c, 0, 76, 96
1, 661155, Note_on_c, 0, 88, 91
1, 661167, Poly_aftertouch_c, 0, 80, 0
1, 661168, Note_on_c, 0, 58, 80
1, 661181, Note_off_c, 0, 76, 70
1, 661182, Note_on_c, 0, 59, 96
1, 661183, Note_on_c, 0, 86, 56
1, 661185, Note_off_c, 0, 58, 42
1, 661186, Note_off_c, 0, 88, 68
1, 661192, Note_off_c, 0, 62, 65
1, 661206, Note_off_c, 0, 86, 62
1, 661215, Note_on_c, 0, 55, 79
1, 661225, Note_off_c, 0, 59, 67
1, 661234, Note_on_c, 0, 90, 109
1, 661239, Note_on_c, 0, 78, 103
1, 661246, Note_off_c, 0, 55, 63
1, 661273, Note_off_c, 0, 78, 64
1, 661275, Note_off_c, 0, 90, 70
1, 661296, Control_c, 0, 64, 64
1, 661311, Control_c, 0, 64, 0
1, 661324, Poly_aftertouch_c, 0, 77, 0
1, 661328, Note_on_c, 0, 39, 116
1, 661329, Note_on_c, 0, 51, 94
1, 661329, Note_on_c, 0, 91, 107
1, 661333, Note_on_c, 0, 79, 97
1, 661341, Control_c, 0, 64, 50
1, 661342, Note_on_c, 0, 52, 77
1, 661346, Note_off_c, 0, 39, 75
1, 661348, Note_off_c, 0, 51, 68
1, 661353, Note_on_c, 0, 42, 55
1, 661353, Note_on_c, 0, 90, 60
1, 661356, Control_c, 0, 64, 115
1, 661361, Note_off_c, 0, 52, 66
1, 661371, Control_c, 0, 64, 127
1, 661371, Note_off_c, 0, 90, 64
1, 661382, Note_off_c, 0, 42, 56
1, 661440, Note_off_c, 0, 79, 63
1, 661447, Note_on_c, 0, 51, 27
1, 661499, Note_off_c, 0, 51, 45
1, 661605, Note_on_c, 0, 90, 93
1, 661607, Note_on_c, 0, 78, 101
1, 661619, Note_on_c, 0, 80, 80
1, 661632, Note_off_c, 0, 80, 71
1, 661634, Note_on_c, 0, 87, 50
1, 661659, Note_off_c, 0, 87, 53
1, 661709, Note_off_c, 0, 91, 52
1, 661773, Note_off_c, 0, 78, 57
1, 661773, Note_off_c, 0, 90, 61
1, 661827, Note_on_c, 0, 40, 98
1, 661827, Note_on_c, 0, 52, 106
1, 661860, Note_on_c, 0, 88, 83
1, 661867, Control_c, 0, 64, 110
1, 661869, Note_on_c, 0, 76, 80
1, 661882, Control_c, 0, 64, 72
1, 661896, Note_off_c, 0, 76, 66
1, 661896, Control_c, 0, 64, 51
1, 661911, Control_c, 0, 64, 48
1, 661921, Note_off_c, 0, 88, 66
1, 661926, Control_c, 0, 64, 68
1, 661941, Control_c, 0, 64, 127
1, 662006, Note_on_c, 0, 90, 90
1, 662012, Note_on_c, 0, 78, 80
1, 662018, Note_off_c, 0, 40, 58
1, 662043, Note_off_c, 0, 52, 65
1, 662045, Note_off_c, 0, 78, 57
1, 662063, Note_off_c, 0, 90, 64
1, 662125, Note_on_c, 0, 55, 103
1, 662126, Note_on_c, 0, 43, 101
1, 662148, Note_on_c, 0, 79, 76
1, 662152, Note_on_c, 0, 91, 69
1, 662164, Note_on_c, 0, 89, 54
1, 662172, Note_off_c, 0, 79, 67
1, 662185, Note_off_c, 0, 91, 68
1, 662190, Note_off_c, 0, 89, 64
1, 662248, Note_on_c, 0, 90, 87
1, 662254, Note_on_c, 0, 78, 88
1, 662258, Note_off_c, 0, 43, 60
1, 662280, Note_off_c, 0, 55, 65
1, 662286, Note_off_c, 0, 78, 55
1, 662288, Note_off_c, 0, 90, 66
1, 662346, Note_on_c, 0, 59, 111
1, 662348, Note_on_c, 0, 47, 101
1, 662355, Note_on_c, 0, 76, 90
1, 662355, Note_on_c, 0, 88, 88
1, 662386, Note_off_c, 0, 76, 65
1, 662393, Note_off_c, 0, 88, 68
1, 662394, Note_off_c, 0, 47, 62
1, 662400, Note_on_c, 0, 49, 23
1, 662441, Note_off_c, 0, 49, 46
1, 662446, Note_on_c, 0, 90, 92
1, 662448, Note_on_c, 0, 78, 101
1, 662478, Note_off_c, 0, 59, 65
1, 662488, Note_off_c, 0, 78, 60
1, 662489, Note_off_c, 0, 90, 67
1, 662545, Note_on_c, 0, 91, 100
1, 662545, Note_on_c, 0, 79, 98
1, 662546, Note_on_c, 0, 64, 107
1, 662549, Note_on_c, 0, 52, 94
1, 662558, Note_on_c, 0, 89, 63
1, 662567, Note_off_c, 0, 52, 73
1, 662575, Note_off_c, 0, 64, 71
1, 662575, Note_off_c, 0, 79, 72
1, 662579, Note_off_c, 0, 89, 39
1, 662579, Note_off_c, 0, 91, 70
1, 662620, Note_on_c, 0, 90, 87
1, 662631, Note_on_c, 0, 78, 100
1, 662657, Note_off_c, 0, 78, 66
1, 662663, Note_off_c, 0, 90, 69
1, 662713, Note_on_c, 0, 88, 92
1, 662715, Note_on_c, 0, 76, 100
1, 662745, Note_off_c, 0, 76, 71
1, 662748, Note_off_c, 0, 88, 68
1, 662790, Note_on_c, 0, 65, 81
1, 662790, Note_on_c, 0, 67, 89
1, 662792, Note_on_c, 0, 53, 92
1, 662796, Note_on_c, 0, 76, 101
1, 662796, Note_on_c, 0, 88, 100
1, 662805, Note_off_c, 0, 67, 77
1, 662808, Note_off_c, 0, 53, 70
1, 662808, Note_off_c, 0, 65, 73
1, 662814, Note_on_c, 0, 56, 49
1, 662814, Note_off_c, 0, 56, 127
1, 662828, Note_off_c, 0, 76, 71
1, 662829, Note_off_c, 0, 88, 71
1, 662833, Note_on_c, 0, 55, 19
1, 662858, Note_off_c, 0, 55, 58
1, 662882, Note_on_c, 0, 78, 100
1, 662882, Note_on_c, 0, 90, 103
1, 662921, Note_off_c, 0, 78, 68
1, 662933, Note_off_c, 0, 90, 64
1, 662975, Note_on_c, 0, 91, 104
1, 662976, Note_on_c, 0, 79, 105
1, 662999, Note_on_c, 0, 90, 44
1, 663009, Note_off_c, 0, 79, 71
1, 663009, Note_off_c, 0, 91, 68
1, 663025, Note_off_c, 0, 90, 35
1, 663054, Note_on_c, 0, 91, 107
1, 663058, Note_on_c, 0, 79, 103
1, 663059, Note_on_c, 0, 71, 111
1, 663061, Note_on_c, 0, 59, 105
1, 663075, Note_off_c, 0, 71, 70
1, 663081, Note_off_c, 0, 59, 72
1, 663085, Note_on_c, 0, 90, 58
1, 663085, Note_off_c, 0, 90, 127
1, 663091, Note_on_c, 0, 60, 28
1, 663091, Note_off_c, 0, 60, 127
1, 663094, Note_off_c, 0, 79, 70
1, 663098, Note_off_c, 0, 91, 68
1, 663100, Note_on_c, 0, 61, 31
1, 663100, Note_off_c, 0, 61, 127
1, 663133, Poly_aftertouch_c, 0, 61, 0
1, 663177, Note_on_c, 0, 90, 104
1, 663178, Note_on_c, 0, 78, 106
1, 663207, Note_off_c, 0, 78, 68
1, 663209, Note_off_c, 0, 90, 69
1, 663277, Note_on_c, 0, 88, 103
1, 663282, Note_on_c, 0, 76, 109
1, 663287, Poly_aftertouch_c, 0, 77, 0
1, 663313, Note_off_c, 0, 76, 70
1, 663324, Note_off_c, 0, 88, 70
1, 663443, Note_on_c, 0, 76, 119
1, 663445, Note_on_c, 0, 64, 100
1, 663467, Note_on_c, 0, 74, 53
1, 663467, Note_off_c, 0, 74, 127
1, 663479, Note_off_c, 0, 64, 68
1, 663484, Note_off_c, 0, 76, 70
1, 663541, Poly_aftertouch_c, 0, 66, 0
1, 663561, Poly_aftertouch_c, 0, 66, 0
1, 663576, Note_on_c, 0, 78, 109
1, 663577, Note_on_c, 0, 90, 104
1, 663607, Note_off_c, 0, 78, 69
1, 663610, Note_off_c, 0, 90, 70
1, 663705, Note_on_c, 0, 79, 101
1, 663705, Note_on_c, 0, 67, 94
1, 663733, Note_on_c, 0, 70, 68
1, 663733, Note_off_c, 0, 79, 75
1, 663743, Note_off_c, 0, 67, 70
1, 663750, Note_off_c, 0, 70, 67
1, 663827, Note_on_c, 0, 91, 110
1, 663828, Note_on_c, 0, 79, 106
1, 663857, Note_off_c, 0, 79, 73
1, 663857, Note_off_c, 0, 91, 73
1, 663861, Note_on_c, 0, 90, 45
1, 663861, Note_off_c, 0, 90, 127
1, 664114, Control_c, 0, 64, 91
1, 664129, Control_c, 0, 64, 56
1, 664134, Note_on_c, 0, 25, 22
1, 664144, Control_c, 0, 64, 0
1, 664189, Note_off_c, 0, 25, 49
1, 664251, Note_on_c, 0, 45, 101
1, 664256, Note_on_c, 0, 21, 94
1, 664256, Note_on_c, 0, 33, 99
1, 664256, Note_on_c, 0, 57, 99
1, 664277, Control_c, 0, 64, 42
1, 664285, Note_on_c, 0, 54, 47
1, 664286, Note_off_c, 0, 45, 70
1, 664290, Note_off_c, 0, 57, 66
1, 664292, Control_c, 0, 64, 127
1, 664294, Note_off_c, 0, 33, 67
1, 664295, Note_off_c, 0, 21, 64
1, 664316, Note_off_c, 0, 54, 56
1, 664587, Note_on_c, 0, 67, 102
1, 664589, Note_on_c, 0, 72, 104
1, 664590, Note_on_c, 0, 79, 98
1, 664593, Note_on_c, 0, 76, 102
1, 664596, Note_on_c, 0, 64, 106
1, 664600, Note_on_c, 0, 57, 77
1, 664600, Note_on_c, 0, 60, 91
1, 664602, Note_on_c, 0, 52, 82
1, 664626, Note_off_c, 0, 67, 69
1, 664626, Note_off_c, 0, 79, 71
1, 664635, Note_off_c, 0, 76, 69
1, 664635, Note_off_c, 0, 72, 71
1, 664668, Note_on_c, 0, 55, 6
1, 664672, Note_off_c, 0, 64, 56
1, 664686, Note_off_c, 0, 60, 55
1, 664710, Note_off_c, 0, 57, 47
1, 664719, Note_off_c, 0, 55, 48
1, 664722, Note_off_c, 0, 52, 33
1, 664923, Note_on_c, 0, 64, 87
1, 664925, Note_on_c, 0, 60, 78
1, 664927, Note_on_c, 0, 55, 64
1, 664942, Note_on_c, 0, 52, 55
1, 664943, Note_on_c, 0, 57, 56
1, 664972, Note_off_c, 0, 52, 62
1, 664983, Note_off_c, 0, 64, 56
1, 664987, Note_off_c, 0, 57, 56
1, 664990, Note_off_c, 0, 60, 57
1, 665008, Note_off_c, 0, 55, 52
1, 665076, Note_on_c, 0, 69, 73
1, 665089, Note_on_c, 0, 64, 88
1, 665092, Note_on_c, 0, 60, 81
1, 665099, Note_on_c, 0, 52, 71
1, 665103, Note_on_c, 0, 57, 63
1, 665106, Note_on_c, 0, 55, 60
1, 665115, Note_on_c, 0, 71, 76
1, 665120, Note_off_c, 0, 69, 63
1, 665148, Note_off_c, 0, 64, 65
1, 665151, Note_off_c, 0, 60, 63
1, 665151, Note_off_c, 0, 57, 63
1, 665152, Note_off_c, 0, 55, 60
1, 665160, Note_off_c, 0, 52, 58
1, 665175, Note_on_c, 0, 74, 73
1, 665183, Note_off_c, 0, 71, 62
1, 665198, Note_off_c, 0, 74, 70
1, 665207, Note_on_c, 0, 60, 87
1, 665207, Note_on_c, 0, 64, 94
1, 665213, Note_on_c, 0, 52, 60
1, 665217, Note_on_c, 0, 57, 73
1, 665219, Note_on_c, 0, 55, 74
1, 665226, Note_on_c, 0, 74, 78
1, 665246, Note_off_c, 0, 64, 67
1, 665258, Note_off_c, 0, 60, 64
1, 665258, Note_off_c, 0, 52, 62
1, 665258, Note_off_c, 0, 55, 61
1, 665261, Note_off_c, 0, 57, 61
1, 665267, Note_on_c, 0, 76, 79
1, 665267, Poly_aftertouch_c, 0, 72, 0
1, 665280, Note_off_c, 0, 74, 63
1, 665290, Note_on_c, 0, 78, 73
1, 665291, Note_off_c, 0, 76, 67
1, 665293, Note_on_c, 0, 79, 69
1, 665306, Note_on_c, 0, 60, 91
1, 665309, Note_on_c, 0, 64, 111
1, 665313, Note_on_c, 0, 57, 62
1, 665313, Note_off_c, 0, 78, 67
1, 665315, Note_on_c, 0, 55, 62
1, 665317, Note_on_c, 0, 52, 72
1, 665321, Note_off_c, 0, 79, 63
1, 665339, Note_off_c, 0, 52, 68
1, 665341, Note_off_c, 0, 64, 69
1, 665357, Note_off_c, 0, 55, 59
1, 665358, Note_off_c, 0, 60, 63
1, 665364, Note_on_c, 0, 81, 67
1, 665365, Note_off_c, 0, 57, 62
1, 665371, Note_on_c, 0, 79, 42
1, 665381, Note_on_c, 0, 83, 83
1, 665398, Note_on_c, 0, 60, 93
1, 665400, Note_off_c, 0, 79, 56
1, 665401, Note_on_c, 0, 64, 104
1, 665402, Poly_aftertouch_c, 0, 57, 0
1, 665407, Note_on_c, 0, 52, 82
1, 665407, Note_on_c, 0, 57, 71
1, 665410, Note_off_c, 0, 81, 60
1, 665416, Note_on_c, 0, 55, 63
1, 665419, Note_on_c, 0, 84, 52
1, 665422, Note_on_c, 0, 86, 79
1, 665429, Note_off_c, 0, 83, 61
1, 665431, Note_on_c, 0, 88, 79
1, 665434, Note_off_c, 0, 52, 64
1, 665437, Note_off_c, 0, 64, 69
1, 665440, Note_off_c, 0, 55, 66
1, 665448, Note_off_c, 0, 60, 68
1, 665452, Note_off_c, 0, 84, 65
1, 665455, Note_off_c, 0, 57, 65
1, 665479, Note_off_c, 0, 88, 62
1, 665493, Note_on_c, 0, 83, 83
1, 665494, Note_on_c, 0, 60, 99
1, 665497, Note_on_c, 0, 64, 104
1, 665501, Note_on_c, 0, 52, 82
1, 665503, Note_on_c, 0, 55, 78
1, 665505, Note_on_c, 0, 57, 81
1, 665521, Note_off_c, 0, 86, 63
1, 665527, Note_on_c, 0, 81, 79
1, 665536, Note_off_c, 0, 64, 70
1, 665538, Note_off_c, 0, 52, 62
1, 665544, Note_off_c, 0, 83, 63
1, 665545, Note_off_c, 0, 60, 68
1, 665553, Note_off_c, 0, 57, 62
1, 665553, Note_off_c, 0, 55, 58
1, 665561, Note_on_c, 0, 84, 2
1, 665586, Note_on_c, 0, 83, 86
1, 665587, Note_on_c, 0, 60, 95
1, 665589, Note_on_c, 0, 64, 100
1, 665595, Note_on_c, 0, 55, 71
1, 665598, Note_on_c, 0, 57, 75
1, 665600, Note_on_c, 0, 52, 64
1, 665615, Note_off_c, 0, 81, 56
1, 665616, Note_off_c, 0, 55, 71
1, 665618, Note_off_c, 0, 64, 71
1, 665619, Note_off_c, 0, 84, 0
1, 665619, Note_on_c, 0, 84, 31
1, 665619, Note_off_c, 0, 52, 66
1, 665628, Note_on_c, 0, 86, 68
1, 665628, Note_off_c, 0, 57, 64
1, 665633, Note_off_c, 0, 60, 67
1, 665642, Note_off_c, 0, 83, 65
1, 665663, Note_off_c, 0, 84, 67
1, 665675, Note_off_c, 0, 86, 66
1, 665692, Note_on_c, 0, 88, 89
1, 665743, Note_on_c, 0, 90, 85
1, 665750, Note_off_c, 0, 88, 58
1, 665778, Note_on_c, 0, 91, 84
1, 665799, Note_off_c, 0, 90, 65
1, 665809, Note_off_c, 0, 91, 58
1, 665810, Note_on_c, 0, 93, 44
1, 665829, Note_on_c, 0, 66, 95
1, 665832, Note_on_c, 0, 78, 99
1, 665841, Note_off_c, 0, 93, 0
1, 665841, Note_on_c, 0, 93, 67
1, 665864, Note_on_c, 0, 95, 86
1, 665893, Note_off_c, 0, 78, 59
1, 665896, Note_off_c, 0, 93, 65
1, 665905, Note_on_c, 0, 96, 97
1, 665927, Poly_aftertouch_c, 0, 67, 127
1, 665928, Note_on_c, 0, 98, 106
1, 665938, Note_on_c, 0, 100, 103
1, 665949, Note_off_c, 0, 96, 72
1, 665950, Note_on_c, 0, 101, 76
1, 665950, Note_off_c, 0, 95, 68
1, 665962, Note_off_c, 0, 98, 71
1, 665968, Note_off_c, 0, 101, 64
1, 665974, Note_off_c, 0, 100, 72
1, 665977, Poly_aftertouch_c, 0, 67, 0
1, 666132, Poly_aftertouch_c, 0, 70, 127
1, 666136, Note_off_c, 0, 66, 56
1, 666158, Poly_aftertouch_c, 0, 64, 127
1, 666177, Poly_aftertouch_c, 0, 70, 0
1, 666192, Poly_aftertouch_c, 0, 64, 0
1, 666218, Note_on_c, 0, 64, 81
1, 666221, Note_on_c, 0, 76, 113
1, 666254, Note_on_c, 0, 66, 58
1, 666257, Note_off_c, 0, 76, 72
1, 666266, Note_off_c, 0, 64, 68
1, 666278, Note_off_c, 0, 66, 62
1, 666676, Note_on_c, 0, 45, 107
1, 666676, Note_on_c, 0, 50, 98
1, 666677, Note_on_c, 0, 38, 101
1, 666679, Note_on_c, 0, 66, 112
1, 666680, Note_on_c, 0, 62, 110
1, 666680, Control_c, 0, 64, 107
1, 666682, Note_on_c, 0, 74, 106
1, 666695, Control_c, 0, 64, 62
1, 666710, Control_c, 0, 64, 0
1, 666715, Note_on_c, 0, 71, 46
1, 666749, Note_off_c, 0, 71, 50
1, 666769, Control_c, 0, 64, 78
1, 666775, Note_off_c, 0, 62, 61
1, 666784, Control_c, 0, 64, 127
1, 666798, Note_off_c, 0, 66, 60
1, 666800, Note_off_c, 0, 50, 60
1, 666808, Note_off_c, 0, 38, 62
1, 666826, Note_off_c, 0, 74, 65
1, 666838, Note_off_c, 0, 45, 62
1, 666951, Note_on_c, 0, 76, 68
1, 666999, Note_off_c, 0, 76, 62
1, 667012, Note_on_c, 0, 78, 74
1, 667060, Note_off_c, 0, 78, 59
1, 667109, Note_on_c, 0, 81, 76
1, 667135, Note_off_c, 0, 81, 61
1, 667137, Note_on_c, 0, 83, 71
1, 667180, Note_on_c, 0, 86, 85
1, 667181, Note_off_c, 0, 83, 61
1, 667186, Note_on_c, 0, 84, 83
1, 667206, Note_on_c, 0, 60, 84
1, 667206, Note_on_c, 0, 66, 97
1, 667213, Note_on_c, 0, 62, 88
1, 667223, Note_on_c, 0, 83, 72
1, 667235, Note_off_c, 0, 60, 65
1, 667243, Note_off_c, 0, 62, 66
1, 667248, Note_off_c, 0, 66, 69
1, 667254, Note_on_c, 0, 81, 69
1, 667272, Note_off_c, 0, 86, 63
1, 667279, Note_off_c, 0, 84, 66
1, 667290, Note_off_c, 0, 83, 64
1, 667305, Note_off_c, 0, 81, 62
1, 667310, Note_on_c, 0, 79, 77
1, 667336, Note_off_c, 0, 79, 62
1, 667393, Note_on_c, 0, 78, 73
1, 667437, Note_on_c, 0, 76, 67
1, 667451, Note_off_c, 0, 78, 59
1, 667472, Note_on_c, 0, 74, 76
1, 667485, Note_off_c, 0, 76, 56
1, 667524, Note_off_c, 0, 74, 61
1, 667542, Note_on_c, 0, 76, 38
1, 667559, Note_on_c, 0, 78, 68
1, 667573, Note_off_c, 0, 76, 54
1, 667575, Note_on_c, 0, 72, 86
1, 667578, Note_on_c, 0, 62, 73
1, 667583, Note_on_c, 0, 66, 70
1, 667586, Note_on_c, 0, 60, 62
1, 667592, Note_off_c, 0, 78, 60
1, 667605, Note_off_c, 0, 66, 69
1, 667608, Note_off_c, 0, 72, 57
1, 667612, Note_off_c, 0, 60, 70
1, 667623, Note_on_c, 0, 79, 76
1, 667623, Note_off_c, 0, 62, 57
1, 667670, Note_on_c, 0, 81, 84
1, 667675, Note_off_c, 0, 79, 63
1, 667685, Note_on_c, 0, 72, 93
1, 667685, Note_on_c, 0, 66, 88
1, 667688, Note_on_c, 0, 62, 74
1, 667694, Note_on_c, 0, 60, 73
1, 667708, Note_on_c, 0, 83, 76
1, 667717, Note_off_c, 0, 60, 69
1, 667719, Note_off_c, 0, 81, 65
1, 667723, Note_off_c, 0, 72, 65
1, 667727, Note_off_c, 0, 66, 64
1, 667728, Note_off_c, 0, 83, 71
1, 667729, Note_off_c, 0, 62, 63
1, 667761, Note_on_c, 0, 84, 88
1, 667782, Note_on_c, 0, 60, 83
1, 667782, Note_on_c, 0, 72, 104
1, 667785, Note_on_c, 0, 62, 86
1, 667786, Note_on_c, 0, 66, 93
1, 667798, Note_on_c, 0, 86, 87
1, 667818, Note_off_c, 0, 60, 64
1, 667819, Note_off_c, 0, 72, 67
1, 667825, Note_off_c, 0, 66, 66
1, 667825, Note_off_c, 0, 84, 67
1, 667828, Note_off_c, 0, 62, 62
1, 667843, Note_on_c, 0, 90, 83
1, 667847, Note_off_c, 0, 86, 67
1, 667856, Note_on_c, 0, 88, 55
1, 667875, Note_off_c, 0, 90, 63
1, 667879, Note_on_c, 0, 72, 106
1, 667879, Note_off_c, 0, 88, 59
1, 667880, Note_on_c, 0, 60, 91
1, 667881, Note_on_c, 0, 62, 90
1, 667881, Note_on_c, 0, 66, 101
1, 667906, Note_on_c, 0, 91, 85
1, 667915, Note_off_c, 0, 72, 67
1, 667922, Note_off_c, 0, 60, 65
1, 667926, Note_off_c, 0, 66, 65
1, 667930, Note_off_c, 0, 62, 63
1, 667939, Note_on_c, 0, 95, 79
1, 667940, Note_on_c, 0, 93, 44
1, 667940, Note_off_c, 0, 93, 127
1, 667942, Note_off_c, 0, 91, 66
1, 667957, Poly_aftertouch_c, 0, 89, 0
1, 667968, Note_on_c, 0, 97, 84
1, 667968, Poly_aftertouch_c, 0, 93, 0
1, 667977, Note_on_c, 0, 72, 104
1, 667977, Note_on_c, 0, 66, 103
1, 667980, Note_on_c, 0, 62, 87
1, 667983, Note_on_c, 0, 60, 93
1, 667992, Note_off_c, 0, 95, 66
1, 668004, Note_on_c, 0, 99, 67
1, 668007, Note_off_c, 0, 97, 68
1, 668008, Note_off_c, 0, 72, 71
1, 668012, Note_off_c, 0, 60, 61
1, 668023, Note_off_c, 0, 99, 62
1, 668030, Note_off_c, 0, 62, 64
1, 668033, Note_off_c, 0, 66, 66
1, 668051, Note_on_c, 0, 101, 87
1, 668055, Note_on_c, 0, 103, 117
1, 668100, Note_off_c, 0, 103, 69
1, 668102, Note_off_c, 0, 101, 39
1, 668459, Note_on_c, 0, 59, 99
1, 668460, Note_on_c, 0, 71, 113
1, 668695, Note_off_c, 0, 71, 49
1, 668745, Note_off_c, 0, 59, 63
1, 668821, Note_on_c, 0, 69, 110
1, 668824, Note_on_c, 0, 57, 99
1, 668870, Note_off_c, 0, 69, 68
1, 668909, Note_off_c, 0, 57, 60
1, 669193, Poly_aftertouch_c, 0, 39, 127
1, 669237, Poly_aftertouch_c, 0, 39, 0
1, 669273, Note_on_c, 0, 31, 90
1, 669273, Note_on_c, 0, 38, 96
1, 669273, Note_on_c, 0, 43, 100
1, 669276, Note_on_c, 0, 59, 96
1, 669277, Note_on_c, 0, 67, 93
1, 669279, Note_on_c, 0, 55, 99
1, 669312, Control_c, 0, 64, 88
1, 669327, Control_c, 0, 64, 55
1, 669342, Control_c, 0, 64, 0
1, 669387, Control_c, 0, 64, 51
1, 669401, Control_c, 0, 64, 90
1, 669416, Control_c, 0, 64, 127
1, 669430, Note_off_c, 0, 55, 56
1, 669445, Note_off_c, 0, 31, 60
1, 669449, Note_off_c, 0, 43, 60
1, 669491, Note_off_c, 0, 38, 62
1, 669557, Note_off_c, 0, 59, 62
1, 669605, Note_on_c, 0, 55, 71
1, 669618, Note_off_c, 0, 67, 55
1, 669673, Note_off_c, 0, 55, 44
1, 669678, Note_on_c, 0, 59, 74
1, 669750, Note_off_c, 0, 59, 60
1, 669753, Note_on_c, 0, 62, 75
1, 669777, Note_off_c, 0, 62, 69
1, 669821, Note_on_c, 0, 59, 69
1, 669822, Note_on_c, 0, 50, 57
1, 669828, Note_on_c, 0, 55, 39
1, 669843, Note_on_c, 0, 67, 74
1, 669858, Note_off_c, 0, 55, 53
1, 669858, Note_off_c, 0, 59, 62
1, 669864, Note_off_c, 0, 50, 59
1, 669893, Note_on_c, 0, 71, 76
1, 669893, Note_off_c, 0, 67, 61
1, 669917, Note_on_c, 0, 50, 66
1, 669921, Note_on_c, 0, 59, 77
1, 669927, Poly_aftertouch_c, 0, 69, 127
1, 669928, Note_on_c, 0, 55, 72
1, 669940, Note_on_c, 0, 74, 83
1, 669951, Note_off_c, 0, 71, 59
1, 669956, Poly_aftertouch_c, 0, 69, 0
1, 669959, Note_off_c, 0, 55, 62
1, 669963, Note_off_c, 0, 59, 56
1, 669967, Note_off_c, 0, 50, 61
1, 669995, Note_on_c, 0, 79, 81
1, 669996, Note_off_c, 0, 74, 66
1, 670030, Note_on_c, 0, 55, 79
1, 670032, Note_on_c, 0, 59, 80
1, 670038, Note_on_c, 0, 50, 59
1, 670040, Note_on_c, 0, 74, 77
1, 670057, Note_off_c, 0, 59, 65
1, 670063, Note_off_c, 0, 50, 60
1, 670065, Note_off_c, 0, 55, 63
1, 670081, Note_on_c, 0, 71, 85
1, 670089, Note_off_c, 0, 79, 60
1, 670102, Note_off_c, 0, 74, 64
1, 670129, Note_off_c, 0, 71, 60
1, 670135, Note_on_c, 0, 67, 86
1, 670144, Note_on_c, 0, 59, 79
1, 670147, Note_on_c, 0, 62, 81
1, 670150, Note_on_c, 0, 55, 70
1, 670171, Note_off_c, 0, 62, 69
1, 670177, Note_off_c, 0, 67, 64
1, 670178, Note_off_c, 0, 55, 62
1, 670185, Note_off_c, 0, 59, 60
1, 670194, Note_on_c, 0, 71, 86
1, 670233, Note_on_c, 0, 62, 85
1, 670236, Note_on_c, 0, 74, 88
1, 670236, Note_on_c, 0, 59, 75
1, 670239, Note_on_c, 0, 55, 75
1, 670242, Note_off_c, 0, 71, 64
1, 670261, Note_off_c, 0, 55, 68
1, 670270, Note_off_c, 0, 74, 65
1, 670275, Note_off_c, 0, 62, 64
1, 670281, Note_off_c, 0, 59, 64
1, 670314, Note_on_c, 0, 79, 89
1, 670345, Note_on_c, 0, 62, 88
1, 670352, Note_on_c, 0, 55, 71
1, 670354, Note_on_c, 0, 59, 81
1, 670361, Note_on_c, 0, 83, 86
1, 670364, Note_off_c, 0, 79, 67
1, 670381, Note_off_c, 0, 55, 68
1, 670397, Note_off_c, 0, 62, 64
1, 670402, Note_off_c, 0, 59, 56
1, 670438, Note_on_c, 0, 86, 96
1, 670457, Note_off_c, 0, 83, 65
1, 670478, Note_off_c, 0, 86, 70
1, 670535, Note_on_c, 0, 67, 90
1, 670537, Note_on_c, 0, 59, 78
1, 670539, Note_on_c, 0, 62, 75
1, 670546, Note_on_c, 0, 89, 84
1, 670546, Note_on_c, 0, 91, 91
1, 670599, Note_off_c, 0, 91, 64
1, 670602, Note_off_c, 0, 89, 63
1, 670652, Note_on_c, 0, 95, 94
1, 670656, Note_on_c, 0, 93, 101
1, 670661, Note_off_c, 0, 67, 55
1, 670664, Note_off_c, 0, 59, 48
1, 670680, Note_off_c, 0, 62, 58
1, 670713, Note_off_c, 0, 93, 62
1, 670716, Note_off_c, 0, 95, 68
1, 670763, Note_on_c, 0, 67, 88
1, 670766, Note_on_c, 0, 96, 106
1, 670767, Note_on_c, 0, 59, 82
1, 670771, Note_on_c, 0, 62, 83
1, 670832, Note_off_c, 0, 96, 67
1, 670893, Note_on_c, 0, 98, 102
1, 670893, Note_off_c, 0, 67, 52
1, 670936, Note_off_c, 0, 59, 48
1, 670971, Note_off_c, 0, 62, 58
1, 670973, Note_off_c, 0, 98, 66
1, 671035, Note_on_c, 0, 67, 95
1, 671035, Note_on_c, 0, 100, 105
1, 671038, Note_on_c, 0, 62, 84
1, 671038, Note_on_c, 0, 71, 90
1, 671056, Note_off_c, 0, 71, 72
1, 671071, Note_off_c, 0, 67, 68
1, 671080, Note_off_c, 0, 62, 65
1, 671096, Note_off_c, 0, 100, 67
1, 671198, Note_on_c, 0, 102, 100
1, 671247, Note_off_c, 0, 102, 67
1, 671409, Poly_aftertouch_c, 0, 103, 127
1, 671475, Poly_aftertouch_c, 0, 103, 0
1, 671539, Note_on_c, 0, 103, 100
1, 671543, Note_on_c, 0, 52, 95
1, 671544, Note_on_c, 0, 91, 92
1, 671544, Note_on_c, 0, 95, 92
1, 671545, Note_on_c, 0, 40, 90
1, 671547, Note_on_c, 0, 47, 96
1, 671569, Note_on_c, 0, 44, 67
1, 671575, Note_on_c, 0, 46, 34
1, 671575, Note_off_c, 0, 46, 127
1, 671607, Note_off_c, 0, 44, 50
1, 671617, Control_c, 0, 64, 92
1, 671632, Control_c, 0, 64, 70
1, 671647, Control_c, 0, 64, 51
1, 671662, Control_c, 0, 64, 0
1, 671721, Control_c, 0, 64, 51
1, 671736, Control_c, 0, 64, 123
1, 671746, Note_off_c, 0, 91, 59
1, 671748, Note_off_c, 0, 95, 65
1, 671751, Control_c, 0, 64, 127
1, 671950, Note_on_c, 0, 102, 98
1, 672003, Note_off_c, 0, 40, 62
1, 672035, Note_off_c, 0, 52, 60
1, 672041, Note_off_c, 0, 47, 64
1, 672044, Note_off_c, 0, 103, 60
1, 672079, Note_on_c, 0, 100, 90
1, 672135, Note_off_c, 0, 102, 60
1, 672177, Note_on_c, 0, 98, 97
1, 672211, Note_on_c, 0, 56, 7
1, 672256, Note_off_c, 0, 100, 33
1, 672269, Note_off_c, 0, 56, 50
1, 672272, Note_on_c, 0, 96, 87
1, 672277, Note_off_c, 0, 98, 65
1, 672320, Note_off_c, 0, 96, 68
1, 672347, Note_on_c, 0, 52, 73
1, 672350, Note_on_c, 0, 95, 93
1, 672424, Note_on_c, 0, 93, 94
1, 672430, Note_off_c, 0, 95, 66
1, 672451, Note_off_c, 0, 52, 61
1, 672454, Note_on_c, 0, 55, 72
1, 672478, Note_off_c, 0, 93, 65
1, 672481, Note_on_c, 0, 91, 80
1, 672522, Note_on_c, 0, 59, 76
1, 672525, Note_off_c, 0, 55, 61
1, 672529, Note_off_c, 0, 91, 66
1, 672552, Note_on_c, 0, 90, 77
1, 672573, Note_off_c, 0, 59, 63
1, 672588, Note_on_c, 0, 64, 76
1, 672608, Note_on_c, 0, 88, 82
1, 672621, Note_off_c, 0, 64, 64
1, 672661, Note_on_c, 0, 86, 79
1, 672672, Note_off_c, 0, 88, 63
1, 672672, Note_off_c, 0, 90, 56
1, 672690, Note_on_c, 0, 67, 74
1, 672707, Note_off_c, 0, 86, 67
1, 672708, Note_on_c, 0, 84, 78
1, 672746, Note_on_c, 0, 71, 80
1, 672750, Note_off_c, 0, 84, 65
1, 672772, Note_on_c, 0, 83, 85
1, 672797, Note_off_c, 0, 71, 62
1, 672802, Note_off_c, 0, 67, 61
1, 672803, Note_on_c, 0, 81, 87
1, 672811, Note_on_c, 0, 76, 88
1, 672815, Note_off_c, 0, 83, 63
1, 672828, Note_on_c, 0, 79, 93
1, 672841, Note_off_c, 0, 81, 69
1, 672875, Note_off_c, 0, 76, 61
1, 672897, Note_on_c, 0, 71, 79
1, 672919, Note_off_c, 0, 79, 44
1, 672973, Note_on_c, 0, 78, 80
1, 672991, Note_on_c, 0, 66, 80
1, 673013, Note_off_c, 0, 71, 59
1, 673032, Note_on_c, 0, 76, 74
1, 673050, Note_off_c, 0, 66, 65
1, 673061, Note_on_c, 0, 74, 84
1, 673068, Note_off_c, 0, 78, 61
1, 673098, Note_on_c, 0, 64, 79
1, 673110, Note_on_c, 0, 72, 81
1, 673121, Note_off_c, 0, 76, 62
1, 673122, Note_off_c, 0, 64, 72
1, 673126, Note_off_c, 0, 74, 63
1, 673160, Note_on_c, 0, 71, 86
1, 673161, Note_off_c, 0, 72, 66
1, 673183, Note_on_c, 0, 57, 58
1, 673191, Note_on_c, 0, 54, 71
1, 673202, Note_off_c, 0, 71, 59
1, 673205, Note_off_c, 0, 57, 59
1, 673217, Note_off_c, 0, 54, 65
1, 673223, Note_on_c, 0, 69, 81
1, 673228, Note_on_c, 0, 71, 65
1, 673246, Note_on_c, 0, 52, 100
1, 673279, Note_off_c, 0, 52, 66
1, 673307, Note_on_c, 0, 67, 41
1, 673311, Note_off_c, 0, 71, 58
1, 673314, Note_on_c, 0, 65, 71
1, 673318, Note_on_c, 0, 64, 65
1, 673342, Note_off_c, 0, 67, 64
1, 673348, Note_off_c, 0, 69, 61
1, 673358, Note_on_c, 0, 62, 93
1, 673360, Note_off_c, 0, 64, 47
1, 673361, Note_off_c, 0, 65, 64
1, 673404, Note_off_c, 0, 62, 66
1, 673441, Note_on_c, 0, 60, 88
1, 673446, Note_on_c, 0, 62, 76
1, 673452, Note_on_c, 0, 40, 89
1, 673455, Note_on_c, 0, 41, 88
1, 673479, Note_off_c, 0, 41, 67
1, 673491, Note_off_c, 0, 62, 60
1, 673494, Note_on_c, 0, 59, 85
1, 673497, Note_off_c, 0, 40, 64
1, 673523, Note_off_c, 0, 60, 60
1, 673536, Note_on_c, 0, 57, 89
1, 673541, Note_off_c, 0, 59, 67
1, 673578, Note_off_c, 0, 57, 66
1, 673602, Note_on_c, 0, 55, 88
1, 673634, Note_on_c, 0, 41, 97
1, 673641, Control_c, 0, 64, 105
1, 673646, Note_on_c, 0, 57, 27
1, 673653, Note_on_c, 0, 54, 88
1, 673657, Control_c, 0, 64, 127
1, 673670, Note_off_c, 0, 41, 67
1, 673673, Note_off_c, 0, 57, 57
1, 673675, Note_off_c, 0, 55, 60
1, 673704, Note_on_c, 0, 52, 97
1, 673708, Note_off_c, 0, 54, 64
1, 673746, Note_off_c, 0, 52, 67
1, 673787, Note_on_c, 0, 50, 83
1, 673790, Note_on_c, 0, 52, 76
1, 673827, Note_off_c, 0, 52, 60
1, 673828, Poly_aftertouch_c, 0, 22, 127
1, 673833, Note_off_c, 0, 50, 65
1, 673863, Poly_aftertouch_c, 0, 22, 0
1, 673864, Control_c, 0, 64, 56
1, 673874, Poly_aftertouch_c, 0, 27, 0
1, 673879, Control_c, 0, 64, 0
1, 673885, Note_on_c, 0, 33, 106
1, 673886, Note_on_c, 0, 21, 101
1, 673891, Note_on_c, 0, 55, 101
1, 673894, Note_on_c, 0, 43, 95
1, 673900, Note_on_c, 0, 45, 88
1, 673909, Control_c, 0, 64, 57
1, 673915, Note_off_c, 0, 21, 68
1, 673915, Note_off_c, 0, 43, 66
1, 673919, Note_off_c, 0, 45, 67
1, 673922, Note_off_c, 0, 33, 68
1, 673924, Control_c, 0, 64, 127
1, 673924, Note_off_c, 0, 55, 65
1, 674087, Note_on_c, 0, 56, 58
1, 674112, Note_off_c, 0, 56, 58
1, 674130, Note_on_c, 0, 67, 108
1, 674131, Note_on_c, 0, 72, 102
1, 674132, Note_on_c, 0, 79, 95
1, 674133, Note_on_c, 0, 76, 98
1, 674147, Note_on_c, 0, 64, 96
1, 674149, Note_on_c, 0, 60, 79
1, 674150, Poly_aftertouch_c, 0, 54, 127
1, 674153, Note_on_c, 0, 75, 60
1, 674158, Note_on_c, 0, 52, 78
1, 674161, Note_off_c, 0, 79, 70
1, 674162, Note_off_c, 0, 67, 73
1, 674168, Note_on_c, 0, 57, 65
1, 674171, Note_off_c, 0, 72, 70
1, 674172, Note_off_c, 0, 75, 66
1, 674172, Note_off_c, 0, 76, 69
1, 674187, Note_on_c, 0, 55, 58
1, 674218, Poly_aftertouch_c, 0, 54, 0
1, 674234, Note_off_c, 0, 55, 50
1, 674244, Note_off_c, 0, 52, 54
1, 674266, Note_off_c, 0, 57, 58
1, 674267, Note_off_c, 0, 64, 56
1, 674307, Note_off_c, 0, 60, 33
1, 674431, Note_on_c, 0, 64, 85
1, 674435, Note_on_c, 0, 60, 70
1, 674450, Note_on_c, 0, 55, 55
1, 674450, Note_on_c, 0, 57, 57
1, 674457, Note_on_c, 0, 52, 50
1, 674491, Note_off_c, 0, 52, 51
1, 674493, Note_off_c, 0, 64, 55
1, 674497, Note_off_c, 0, 57, 55
1, 674498, Note_off_c, 0, 55, 48
1, 674499, Note_off_c, 0, 60, 58
1, 674596, Note_on_c, 0, 64, 85
1, 674598, Note_on_c, 0, 69, 74
1, 674604, Note_on_c, 0, 52, 64
1, 674604, Note_on_c, 0, 60, 73
1, 674617, Note_on_c, 0, 57, 50
1, 674627, Note_on_c, 0, 55, 53
1, 674635, Note_on_c, 0, 71, 70
1, 674651, Note_off_c, 0, 64, 62
1, 674652, Note_off_c, 0, 69, 62
1, 674653, Note_off_c, 0, 57, 56
1, 674656, Note_off_c, 0, 60, 62
1, 674657, Note_off_c, 0, 55, 60
1, 674667, Note_off_c, 0, 52, 60
1, 674690, Note_on_c, 0, 74, 78
1, 674695, Note_on_c, 0, 72, 55
1, 674695, Note_off_c, 0, 71, 63
1, 674710, Note_off_c, 0, 74, 71
1, 674715, Note_off_c, 0, 72, 63
1, 674720, Note_on_c, 0, 64, 91
1, 674724, Note_on_c, 0, 52, 53
1, 674724, Note_on_c, 0, 60, 73
1, 674731, Note_on_c, 0, 55, 65
1, 674733, Note_on_c, 0, 57, 64
1, 674748, Note_on_c, 0, 74, 86
1, 674763, Note_off_c, 0, 52, 61
1, 674764, Note_off_c, 0, 64, 66
1, 674766, Note_off_c, 0, 55, 60
1, 674767, Note_off_c, 0, 57, 63
1, 674772, Note_off_c, 0, 60, 61
1, 674783, Note_on_c, 0, 76, 84
1, 674806, Note_off_c, 0, 74, 61
1, 674819, Note_on_c, 0, 79, 67
1, 674821, Note_on_c, 0, 64, 94
1, 674822, Note_on_c, 0, 60, 77
1, 674823, Note_on_c, 0, 78, 61
1, 674824, Note_off_c, 0, 76, 67
1, 674828, Note_on_c, 0, 52, 74
1, 674833, Note_on_c, 0, 57, 70
1, 674839, Note_on_c, 0, 55, 69
1, 674843, Note_off_c, 0, 78, 61
1, 674844, Note_off_c, 0, 79, 69
1, 674860, Note_off_c, 0, 52, 61
1, 674860, Note_off_c, 0, 64, 67
1, 674875, Note_off_c, 0, 55, 67
1, 674879, Note_off_c, 0, 57, 61
1, 674882, Note_off_c, 0, 60, 65
1, 674895, Note_on_c, 0, 81, 74
1, 674916, Note_on_c, 0, 83, 87
1, 674924, Note_on_c, 0, 60, 87
1, 674928, Note_on_c, 0, 64, 99
1, 674931, Note_on_c, 0, 52, 77
1, 674937, Note_on_c, 0, 55, 79
1, 674937, Note_on_c, 0, 57, 70
1, 674937, Note_on_c, 0, 86, 69
1, 674940, Note_off_c, 0, 81, 61
1, 674941, Note_on_c, 0, 84, 58
1, 674949, Note_on_c, 0, 88, 73
1, 674958, Note_off_c, 0, 83, 65
1, 674960, Note_off_c, 0, 64, 68
1, 674960, Note_off_c, 0, 84, 62
1, 674961, Note_off_c, 0, 52, 60
1, 674975, Note_off_c, 0, 60, 67
1, 674976, Note_off_c, 0, 55, 57
1, 674980, Note_off_c, 0, 57, 59
1, 675020, Note_on_c, 0, 60, 94
1, 675021, Note_off_c, 0, 88, 62
1, 675023, Note_on_c, 0, 64, 113
1, 675030, Note_on_c, 0, 57, 70
1, 675031, Note_on_c, 0, 83, 62
1, 675033, Note_on_c, 0, 84, 41
1, 675034, Note_on_c, 0, 52, 74
1, 675038, Note_on_c, 0, 55, 72
1, 675038, Note_on_c, 0, 81, 91
1, 675044, Note_off_c, 0, 86, 64
1, 675056, Note_off_c, 0, 83, 66
1, 675059, Note_off_c, 0, 52, 63
1, 675061, Note_off_c, 0, 84, 56
1, 675062, Note_off_c, 0, 64, 68
1, 675063, Note_off_c, 0, 55, 65
1, 675073, Note_off_c, 0, 57, 64
1, 675079, Note_off_c, 0, 60, 65
1, 675099, Note_on_c, 0, 83, 90
1, 675119, Note_off_c, 0, 81, 58
1, 675131, Note_on_c, 0, 84, 70
1, 675137, Note_on_c, 0, 86, 82
1, 675147, Note_off_c, 0, 83, 64
1, 675152, Note_off_c, 0, 84, 71
1, 675179, Note_off_c, 0, 86, 63
1, 675204, Note_on_c, 0, 88, 90
1, 675257, Note_on_c, 0, 90, 82
1, 675261, Note_on_c, 0, 78, 105
1, 675264, Note_on_c, 0, 66, 91
1, 675265, Note_off_c, 0, 88, 63
1, 675292, Note_on_c, 0, 91, 74
1, 675303, Note_off_c, 0, 90, 66
1, 675311, Note_off_c, 0, 91, 68
1, 675350, Note_on_c, 0, 93, 65
1, 675362, Poly_aftertouch_c, 0, 68, 0
1, 675370, Note_off_c, 0, 78, 47
1, 675374, Note_on_c, 0, 95, 93
1, 675401, Note_on_c, 0, 96, 97
1, 675428, Note_on_c, 0, 98, 73
1, 675431, Note_on_c, 0, 100, 99
1, 675441, Note_off_c, 0, 93, 62
1, 675451, Note_off_c, 0, 95, 67
1, 675458, Note_off_c, 0, 96, 71
1, 675477, Note_off_c, 0, 98, 65
1, 675483, Note_off_c, 0, 100, 72
1, 675511, Poly_aftertouch_c, 0, 69, 127
1, 675524, Note_off_c, 0, 66, 56
1, 675560, Note_on_c, 0, 64, 29
1, 675599, Note_off_c, 0, 64, 51
1, 675665, Poly_aftertouch_c, 0, 69, 0
1, 675672, Note_on_c, 0, 64, 91
1, 675673, Note_on_c, 0, 76, 115
1, 675705, Note_off_c, 0, 76, 73
1, 675712, Note_off_c, 0, 64, 69
1, 675766, Poly_aftertouch_c, 0, 67, 127
1, 675803, Poly_aftertouch_c, 0, 67, 0
1, 675898, Note_on_c, 0, 73, 47
1, 675927, Note_off_c, 0, 73, 57
1, 676078, Note_on_c, 0, 74, 32
1, 676112, Note_off_c, 0, 74, 50
1, 676181, Note_on_c, 0, 66, 102
1, 676183, Note_on_c, 0, 50, 98
1, 676183, Note_on_c, 0, 74, 104
1, 676184, Note_on_c, 0, 38, 97
1, 676185, Note_on_c, 0, 45, 98
1, 676185, Note_on_c, 0, 62, 101
1, 676201, Control_c, 0, 64, 103
1, 676216, Control_c, 0, 64, 56
1, 676231, Control_c, 0, 64, 0
1, 676290, Control_c, 0, 64, 47
1, 676300, Note_off_c, 0, 62, 64
1, 676305, Control_c, 0, 64, 127
1, 676326, Note_off_c, 0, 66, 64
1, 676355, Note_off_c, 0, 50, 60
1, 676359, Note_off_c, 0, 38, 61
1, 676365, Note_off_c, 0, 74, 65
1, 676401, Note_off_c, 0, 45, 64
1, 676496, Note_on_c, 0, 76, 59
1, 676555, Note_on_c, 0, 78, 69
1, 676555, Note_off_c, 0, 76, 62
1, 676600, Note_off_c, 0, 78, 59
1, 676618, Note_on_c, 0, 79, 33
1, 676651, Note_off_c, 0, 79, 55
1, 676668, Note_on_c, 0, 81, 35
1, 676694, Note_on_c, 0, 83, 71
1, 676721, Note_on_c, 0, 84, 78
1, 676721, Note_on_c, 0, 86, 68
1, 676737, Note_on_c, 0, 72, 107
1, 676738, Note_on_c, 0, 60, 86
1, 676739, Note_on_c, 0, 66, 102
1, 676744, Note_on_c, 0, 62, 89
1, 676767, Note_off_c, 0, 72, 72
1, 676772, Note_off_c, 0, 60, 65
1, 676772, Note_off_c, 0, 62, 65
1, 676773, Note_off_c, 0, 66, 70
1, 676784, Note_off_c, 0, 86, 62
1, 676800, Note_on_c, 0, 79, 76
1, 676800, Note_off_c, 0, 83, 62
1, 676802, Note_off_c, 0, 81, 22
1, 676802, Note_off_c, 0, 84, 63
1, 676848, Note_off_c, 0, 79, 67
1, 676894, Note_on_c, 0, 78, 69
1, 676946, Note_on_c, 0, 76, 62
1, 676949, Note_off_c, 0, 78, 60
1, 676979, Note_on_c, 0, 74, 74
1, 676982, Note_off_c, 0, 76, 60
1, 677035, Note_on_c, 0, 76, 43
1, 677035, Note_off_c, 0, 74, 60
1, 677053, Note_on_c, 0, 78, 73
1, 677069, Note_off_c, 0, 76, 64
1, 677102, Note_off_c, 0, 78, 59
1, 677139, Note_on_c, 0, 79, 73
1, 677157, Note_on_c, 0, 72, 70
1, 677165, Note_on_c, 0, 62, 52
1, 677170, Note_on_c, 0, 66, 54
1, 677179, Note_on_c, 0, 60, 40
1, 677189, Note_on_c, 0, 81, 78
1, 677191, Note_off_c, 0, 79, 63
1, 677193, Note_off_c, 0, 72, 53
1, 677203, Note_off_c, 0, 66, 66
1, 677205, Note_off_c, 0, 60, 63
1, 677211, Note_off_c, 0, 62, 63
1, 677240, Note_on_c, 0, 83, 63
1, 677244, Note_off_c, 0, 81, 62
1, 677257, Note_off_c, 0, 83, 64
1, 677283, Note_on_c, 0, 60, 66
1, 677284, Note_on_c, 0, 66, 77
1, 677285, Note_on_c, 0, 72, 87
1, 677286, Note_on_c, 0, 84, 84
1, 677289, Note_on_c, 0, 62, 77
1, 677319, Note_off_c, 0, 60, 66
1, 677320, Note_off_c, 0, 62, 66
1, 677323, Note_off_c, 0, 66, 63
1, 677326, Note_off_c, 0, 72, 61
1, 677330, Note_on_c, 0, 86, 87
1, 677348, Note_off_c, 0, 84, 62
1, 677372, Note_on_c, 0, 90, 80
1, 677384, Note_on_c, 0, 72, 99
1, 677387, Note_on_c, 0, 88, 49
1, 677387, Note_off_c, 0, 86, 66
1, 677390, Note_on_c, 0, 66, 86
1, 677390, Note_on_c, 0, 60, 80
1, 677392, Note_on_c, 0, 62, 87
1, 677414, Note_off_c, 0, 88, 55
1, 677417, Note_off_c, 0, 90, 69
1, 677420, Note_off_c, 0, 72, 68
1, 677421, Note_off_c, 0, 60, 66
1, 677428, Note_off_c, 0, 66, 63
1, 677433, Note_off_c, 0, 62, 62
1, 677452, Note_on_c, 0, 93, 86
1, 677456, Note_on_c, 0, 91, 70
1, 677474, Note_off_c, 0, 91, 66
1, 677487, Note_on_c, 0, 72, 108
1, 677489, Note_on_c, 0, 60, 93
1, 677490, Note_on_c, 0, 62, 90
1, 677493, Note_on_c, 0, 95, 74
1, 677500, Note_on_c, 0, 66, 66
1, 677523, Note_off_c, 0, 93, 65
1, 677524, Note_off_c, 0, 72, 67
1, 677526, Note_off_c, 0, 66, 55
1, 677527, Note_on_c, 0, 65, 44
1, 677528, Note_off_c, 0, 60, 68
1, 677534, Note_off_c, 0, 95, 67
1, 677542, Note_off_c, 0, 62, 64
1, 677551, Note_off_c, 0, 65, 58
1, 677560, Note_on_c, 0, 96, 49
1, 677591, Note_on_c, 0, 72, 103
1, 677593, Note_on_c, 0, 63, 59
1, 677596, Note_on_c, 0, 60, 89
1, 677599, Note_on_c, 0, 62, 83
1, 677599, Note_on_c, 0, 66, 76
1, 677602, Note_on_c, 0, 98, 81
1, 677614, Note_off_c, 0, 72, 63
1, 677615, Note_on_c, 0, 100, 87
1, 677617, Note_on_c, 0, 65, 76
1, 677617, Note_off_c, 0, 62, 73
1, 677617, Note_off_c, 0, 60, 70
1, 677620, Note_off_c, 0, 63, 60
1, 677624, Note_on_c, 0, 102, 93
1, 677631, Note_off_c, 0, 96, 65
1, 677634, Note_off_c, 0, 65, 67
1, 677646, Note_on_c, 0, 103, 103
1, 677657, Note_off_c, 0, 98, 66
1, 677657, Note_off_c, 0, 100, 68
1, 677672, Note_off_c, 0, 102, 68
1, 677695, Note_off_c, 0, 66, 44
1, 677695, Note_off_c, 0, 103, 70
1, 678123, Note_on_c, 0, 71, 107
1, 678125, Note_on_c, 0, 59, 100
1, 678350, Note_off_c, 0, 59, 57
1, 678370, Note_off_c, 0, 71, 48
1, 678554, Note_on_c, 0, 69, 103
1, 678555, Note_on_c, 0, 57, 93
1, 678604, Note_off_c, 0, 69, 70
1, 678639, Note_off_c, 0, 57, 66
1, 679057, Note_on_c, 0, 43, 99
1, 679058, Note_on_c, 0, 31, 94
1, 679061, Note_on_c, 0, 38, 93
1, 679064, Note_on_c, 0, 67, 94
1, 679066, Note_on_c, 0, 55, 99
1, 679067, Note_on_c, 0, 59, 98
1, 679078, Control_c, 0, 64, 107
1, 679093, Control_c, 0, 64, 67
1, 679108, Control_c, 0, 64, 0
1, 679182, Control_c, 0, 64, 50
1, 679197, Control_c, 0, 64, 76
1, 679212, Control_c, 0, 64, 127
1, 679217, Note_off_c, 0, 55, 57
1, 679227, Note_off_c, 0, 31, 63
1, 679233, Note_off_c, 0, 43, 61
1, 679254, Note_off_c, 0, 38, 63
1, 679286, Note_off_c, 0, 59, 59
1, 679407, Note_off_c, 0, 67, 52
1, 679423, Note_on_c, 0, 55, 57
1, 679449, Note_off_c, 0, 55, 65
1, 679469, Note_on_c, 0, 50, 64
1, 679475, Note_on_c, 0, 59, 72
1, 679542, Note_off_c, 0, 59, 62
1, 679546, Note_on_c, 0, 62, 77
1, 679546, Note_on_c, 0, 55, 81
1, 679549, Note_off_c, 0, 50, 61
1, 679569, Note_off_c, 0, 62, 69
1, 679593, Note_off_c, 0, 55, 63
1, 679617, Note_on_c, 0, 59, 76
1, 679629, Note_on_c, 0, 67, 85
1, 679650, Note_off_c, 0, 59, 66
1, 679669, Note_off_c, 0, 67, 68
1, 679671, Note_on_c, 0, 71, 88
1, 679689, Note_on_c, 0, 62, 67
1, 679737, Note_on_c, 0, 74, 89
1, 679741, Note_off_c, 0, 71, 64
1, 679748, Note_on_c, 0, 67, 88
1, 679764, Note_off_c, 0, 74, 65
1, 679764, Note_off_c, 0, 62, 61
1, 679796, Note_off_c, 0, 67, 65
1, 679821, Note_on_c, 0, 71, 75
1, 679822, Note_on_c, 0, 79, 74
1, 679850, Note_off_c, 0, 71, 66
1, 679867, Note_off_c, 0, 79, 56
1, 679871, Note_on_c, 0, 83, 90
1, 679895, Note_on_c, 0, 74, 78
1, 679925, Note_on_c, 0, 86, 83
1, 679944, Note_on_c, 0, 79, 83
1, 679947, Note_off_c, 0, 83, 62
1, 679950, Note_off_c, 0, 74, 63
1, 679983, Note_on_c, 0, 91, 103
1, 679984, Note_off_c, 0, 86, 66
1, 679992, Note_off_c, 0, 79, 63
1, 680017, Note_on_c, 0, 81, 43
1, 680018, Note_on_c, 0, 83, 42
1, 680046, Note_off_c, 0, 81, 56
1, 680047, Note_off_c, 0, 83, 58
1, 680049, Note_on_c, 0, 86, 91
1, 680097, Note_off_c, 0, 91, 60
1, 680102, Note_on_c, 0, 88, 28
1, 680105, Note_on_c, 0, 83, 92
1, 680139, Note_off_c, 0, 86, 66
1, 680146, Note_off_c, 0, 88, 44
1, 680174, Note_off_c, 0, 83, 67
1, 680176, Control_c, 0, 67, 39
1, 680182, Note_on_c, 0, 79, 81
1, 680191, Control_c, 0, 67, 58
1, 680199, Note_off_c, 0, 79, 75
1, 680206, Control_c, 0, 67, 73
1, 680221, Control_c, 0, 67, 79
1, 680236, Control_c, 0, 67, 81
1, 680250, Control_c, 0, 67, 82
1, 680263, Note_on_c, 0, 74, 97
1, 680265, Control_c, 0, 67, 85
1, 680280, Control_c, 0, 67, 90
1, 680295, Control_c, 0, 67, 95
1, 680310, Control_c, 0, 67, 102
1, 680324, Control_c, 0, 67, 111
1, 680339, Control_c, 0, 67, 118
1, 680344, Note_on_c, 0, 71, 92
1, 680345, Note_off_c, 0, 74, 62
1, 680354, Control_c, 0, 67, 125
1, 680368, Control_c, 0, 67, 127
1, 680398, Note_off_c, 0, 71, 65
1, 680429, Note_on_c, 0, 67, 89
1, 680470, Note_off_c, 0, 67, 66
1, 680535, Note_on_c, 0, 62, 86
1, 680606, Note_off_c, 0, 62, 57
1, 680627, Note_on_c, 0, 59, 89
1, 680717, Note_off_c, 0, 59, 56
1, 680734, Note_on_c, 0, 55, 90
1, 680756, Note_on_c, 0, 31, 75
1, 680782, Note_off_c, 0, 55, 64
1, 680860, Note_on_c, 0, 43, 85
1, 681028, Control_c, 0, 64, 78
1, 681043, Control_c, 0, 64, 53
1, 681058, Control_c, 0, 64, 0
1, 681091, Note_on_c, 0, 53, 99
1, 681102, Control_c, 0, 64, 32
1, 681117, Control_c, 0, 64, 64
1, 681132, Control_c, 0, 64, 96
1, 681134, Note_off_c, 0, 31, 63
1, 681146, Control_c, 0, 64, 127
1, 681168, Note_off_c, 0, 43, 64
1, 681178, Note_off_c, 0, 53, 60
1, 681207, Poly_aftertouch_c, 0, 58, 0
1, 681325, Note_on_c, 0, 50, 60
1, 681433, Note_on_c, 0, 53, 64
1, 681433, Note_off_c, 0, 50, 62
1, 681501, Note_off_c, 0, 53, 60
1, 681516, Note_on_c, 0, 59, 70
1, 681567, Note_off_c, 0, 59, 61
1, 681653, Note_on_c, 0, 62, 65
1, 681729, Note_on_c, 0, 65, 72
1, 681825, Note_on_c, 0, 71, 86
1, 681970, Note_on_c, 0, 88, 91
1, 681977, Note_on_c, 0, 76, 84
1, 681982, Note_on_c, 0, 77, 75
1, 681984, Note_on_c, 0, 83, 72
1, 682005, Note_off_c, 0, 65, 55
1, 682015, Note_off_c, 0, 71, 58
1, 682028, Note_off_c, 0, 62, 57
1, 682086, Note_on_c, 0, 71, 78
1, 682157, Note_off_c, 0, 71, 59
1, 682179, Note_on_c, 0, 65, 75
1, 682212, Note_off_c, 0, 88, 59
1, 682239, Note_off_c, 0, 76, 59
1, 682254, Note_on_c, 0, 62, 71
1, 682263, Note_off_c, 0, 65, 63
1, 682288, Note_off_c, 0, 62, 63
1, 682296, Control_c, 0, 67, 125
1, 682311, Control_c, 0, 67, 118
1, 682352, Note_on_c, 0, 86, 97
1, 682356, Note_on_c, 0, 74, 95
1, 682367, Note_off_c, 0, 83, 61
1, 682369, Note_on_c, 0, 59, 77
1, 682377, Control_c, 0, 67, 122
1, 682385, Note_off_c, 0, 77, 64
1, 682407, Control_c, 0, 67, 126
1, 682450, Note_off_c, 0, 59, 61
1, 682470, Note_on_c, 0, 53, 78
1, 682546, Note_on_c, 0, 50, 81
1, 682574, Note_off_c, 0, 53, 59
1, 682586, Control_c, 0, 64, 80
1, 682601, Control_c, 0, 64, 51
1, 682616, Control_c, 0, 64, 0
1, 682642, Note_on_c, 0, 43, 93
1, 682644, Note_off_c, 0, 50, 66
1, 682645, Control_c, 0, 64, 48
1, 682660, Control_c, 0, 64, 81
1, 682673, Control_c, 0, 64, 127
1, 682694, Note_off_c, 0, 43, 64
1, 682720, Note_off_c, 0, 74, 59
1, 682797, Note_off_c, 0, 86, 60
1, 682878, Note_on_c, 0, 83, 90
1, 682881, Note_on_c, 0, 71, 85
1, 682881, Note_on_c, 0, 55, 78
1, 682882, Note_on_c, 0, 62, 87
1, 682884, Note_on_c, 0, 79, 79
1, 682891, Note_on_c, 0, 52, 78
1, 682921, Note_off_c, 0, 62, 64
1, 682939, Note_off_c, 0, 55, 62
1, 682957, Note_off_c, 0, 52, 64
1, 683011, Note_off_c, 0, 71, 57
1, 683106, Note_on_c, 0, 31, 77
1, 683250, Note_off_c, 0, 31, 60
1, 683257, Note_on_c, 0, 43, 84
1, 683299, Note_off_c, 0, 43, 63
1, 683432, Note_on_c, 0, 86, 100
1, 683436, Note_on_c, 0, 74, 89
1, 683451, Note_on_c, 0, 59, 83
1, 683479, Note_off_c, 0, 79, 61
1, 683546, Note_off_c, 0, 83, 51
1, 683546, Note_off_c, 0, 86, 61
1, 683562, Note_off_c, 0, 74, 58
1, 683566, Note_off_c, 0, 59, 59
1, 683650, Note_on_c, 0, 84, 92
1, 683655, Note_on_c, 0, 72, 94
1, 683656, Note_on_c, 0, 60, 75
1, 683660, Note_on_c, 0, 52, 71
1, 683663, Note_on_c, 0, 55, 71
1, 683718, Control_c, 0, 64, 94
1, 683733, Control_c, 0, 64, 66
1, 683748, Control_c, 0, 64, 43
1, 683763, Control_c, 0, 64, 41
1, 683776, Note_on_c, 0, 79, 85
1, 683778, Control_c, 0, 64, 58
1, 683792, Control_c, 0, 64, 77
1, 683806, Note_off_c, 0, 84, 59
1, 683807, Control_c, 0, 64, 127
1, 683818, Note_on_c, 0, 81, 53
1, 683840, Note_off_c, 0, 72, 59
1, 683843, Note_off_c, 0, 60, 61
1, 683847, Note_off_c, 0, 81, 65
1, 683887, Note_on_c, 0, 76, 92
1, 683922, Note_off_c, 0, 79, 61
1, 683928, Note_off_c, 0, 55, 62
1, 683952, Note_off_c, 0, 52, 62
1, 683978, Note_off_c, 0, 76, 62
1, 683982, Note_on_c, 0, 72, 82
1, 684025, Note_off_c, 0, 72, 65
1, 684098, Note_on_c, 0, 69, 76
1, 684118, Note_on_c, 0, 67, 65
1, 684148, Note_off_c, 0, 67, 0
1, 684148, Note_on_c, 0, 67, 37
1, 684176, Note_off_c, 0, 69, 65
1, 684178, Note_on_c, 0, 31, 73
1, 684207, Note_on_c, 0, 64, 78
1, 684208, Note_on_c, 0, 65, 71
1, 684267, Note_off_c, 0, 65, 60
1, 684304, Control_c, 0, 64, 100
1, 684306, Note_off_c, 0, 67, 29
1, 684319, Control_c, 0, 64, 69
1, 684333, Control_c, 0, 64, 45
1, 684348, Control_c, 0, 64, 0
1, 684359, Note_on_c, 0, 63, 86
1, 684369, Note_on_c, 0, 57, 73
1, 684375, Note_on_c, 0, 43, 72
1, 684378, Note_off_c, 0, 31, 63
1, 684378, Control_c, 0, 64, 42
1, 684381, Note_on_c, 0, 60, 59
1, 684393, Control_c, 0, 64, 62
1, 684407, Control_c, 0, 64, 81
1, 684409, Note_on_c, 0, 59, 44
1, 684410, Note_off_c, 0, 43, 65
1, 684422, Control_c, 0, 64, 127
1, 684425, Note_off_c, 0, 57, 63
1, 684440, Note_off_c, 0, 59, 34
1, 684441, Note_off_c, 0, 64, 64
1, 684447, Note_off_c, 0, 60, 64
1, 684475, Note_off_c, 0, 63, 63
1, 684585, Note_on_c, 0, 52, 28
1, 684659, Note_off_c, 0, 52, 41
1, 684667, Note_on_c, 0, 54, 62
1, 684741, Note_off_c, 0, 54, 61
1, 684760, Note_on_c, 0, 60, 72
1, 684830, Note_off_c, 0, 60, 57
1, 684881, Note_on_c, 0, 63, 76
1, 684989, Note_on_c, 0, 66, 74
1, 685035, Note_off_c, 0, 63, 57
1, 685111, Note_on_c, 0, 83, 94
1, 685114, Note_on_c, 0, 75, 88
1, 685115, Note_on_c, 0, 71, 85
1, 685116, Note_on_c, 0, 78, 81
1, 685129, Note_on_c, 0, 72, 78
1, 685139, Note_off_c, 0, 66, 62
1, 685157, Control_c, 0, 67, 115
1, 685172, Control_c, 0, 67, 91
1, 685187, Control_c, 0, 67, 62
1, 685202, Control_c, 0, 67, 0
1, 685218, Note_off_c, 0, 72, 59
1, 685227, Note_on_c, 0, 66, 78
1, 685310, Note_off_c, 0, 83, 53
1, 685320, Note_on_c, 0, 63, 74
1, 685334, Note_off_c, 0, 71, 48
1, 685376, Note_off_c, 0, 66, 63
1, 685416, Note_off_c, 0, 63, 63
1, 685438, Note_on_c, 0, 81, 101
1, 685445, Note_on_c, 0, 69, 95
1, 685472, Note_on_c, 0, 60, 70
1, 685487, Note_off_c, 0, 69, 66
1, 685493, Note_off_c, 0, 78, 59
1, 685495, Note_off_c, 0, 75, 63
1, 685503, Note_off_c, 0, 81, 66
1, 685511, Note_off_c, 0, 60, 58
1, 685580, Note_on_c, 0, 54, 61
1, 685640, Control_c, 0, 67, 45
1, 685655, Control_c, 0, 67, 64
1, 685669, Control_c, 0, 67, 69
1, 685684, Control_c, 0, 67, 72
1, 685685, Note_off_c, 0, 54, 58
1, 685686, Note_on_c, 0, 51, 56
1, 685699, Control_c, 0, 67, 81
1, 685714, Control_c, 0, 67, 101
1, 685729, Control_c, 0, 67, 122
1, 685743, Control_c, 0, 67, 127
1, 685826, Note_off_c, 0, 51, 51
1, 685875, Note_on_c, 0, 78, 92
1, 685881, Note_on_c, 0, 66, 78
1, 685889, Note_on_c, 0, 57, 70
1, 685892, Note_on_c, 0, 71, 74
1, 685892, Note_on_c, 0, 74, 72
1, 685894, Note_on_c, 0, 50, 67
1, 685906, Control_c, 0, 64, 83
1, 685921, Control_c, 0, 64, 58
1, 685936, Control_c, 0, 64, 0
1, 685980, Note_off_c, 0, 57, 63
1, 685995, Control_c, 0, 64, 48
1, 686005, Note_off_c, 0, 50, 63
1, 686010, Control_c, 0, 64, 70
1, 686025, Control_c, 0, 64, 93
1, 686040, Control_c, 0, 64, 127
1, 686046, Note_off_c, 0, 66, 56
1, 686127, Note_on_c, 0, 31, 65
1, 686163, Note_off_c, 0, 31, 63
1, 686181, Note_off_c, 0, 71, 37
1, 686217, Note_off_c, 0, 74, 34
1, 686246, Note_off_c, 0, 78, 55
1, 686294, Note_on_c, 0, 43, 63
1, 686326, Note_off_c, 0, 43, 64
1, 686475, Note_on_c, 0, 81, 87
1, 686476, Note_on_c, 0, 54, 62
1, 686482, Note_on_c, 0, 69, 76
1, 686596, Note_off_c, 0, 69, 54
1, 686604, Note_off_c, 0, 81, 57
1, 686706, Note_on_c, 0, 79, 90
1, 686713, Note_on_c, 0, 67, 88
1, 686724, Note_on_c, 0, 55, 60
1, 686724, Note_on_c, 0, 59, 60
1, 686726, Note_on_c, 0, 50, 59
1, 686729, Note_off_c, 0, 54, 50
1, 686759, Control_c, 0, 64, 87
1, 686774, Control_c, 0, 64, 64
1, 686789, Control_c, 0, 64, 41
1, 686803, Control_c, 0, 64, 0
1, 686818, Control_c, 0, 64, 30
1, 686831, Note_on_c, 0, 74, 80
1, 686833, Control_c, 0, 64, 51
1, 686855, Control_c, 0, 64, 68
1, 686870, Control_c, 0, 64, 87
1, 686885, Control_c, 0, 64, 127
1, 686906, Note_off_c, 0, 79, 55
1, 686912, Note_off_c, 0, 67, 59
1, 686917, Note_off_c, 0, 59, 60
1, 686947, Note_on_c, 0, 71, 80
1, 686977, Note_off_c, 0, 74, 61
1, 687021, Note_off_c, 0, 55, 61
1, 687029, Note_off_c, 0, 71, 61
1, 687034, Note_off_c, 0, 50, 62
1, 687040, Note_on_c, 0, 67, 74
1, 687078, Note_off_c, 0, 67, 55
1, 687172, Note_on_c, 0, 62, 62
1, 687281, Note_on_c, 0, 59, 68
1, 687293, Note_off_c, 0, 62, 54
1, 687473, Note_on_c, 0, 53, 85
1, 687503, Note_on_c, 0, 31, 64
1, 687515, Note_off_c, 0, 59, 60
1, 687537, Control_c, 0, 64, 116
1, 687551, Control_c, 0, 64, 78
1, 687566, Control_c, 0, 64, 56
1, 687581, Control_c, 0, 64, 0
1, 687629, Note_on_c, 0, 59, 68
1, 687648, Control_c, 0, 64, 50
1, 687663, Control_c, 0, 64, 64
1, 687677, Control_c, 0, 64, 75
1, 687692, Control_c, 0, 64, 87
1, 687705, Note_off_c, 0, 53, 57
1, 687707, Control_c, 0, 64, 103
1, 687722, Control_c, 0, 64, 127
1, 687749, Note_on_c, 0, 62, 74
1, 687764, Note_off_c, 0, 59, 64
1, 687813, Note_off_c, 0, 62, 62
1, 687897, Note_on_c, 0, 65, 56
1, 687914, Note_off_c, 0, 31, 60
1, 688000, Note_on_c, 0, 71, 67
1, 688012, Note_off_c, 0, 65, 53
1, 688099, Note_off_c, 0, 71, 60
1, 688106, Note_on_c, 0, 74, 61
1, 688141, Note_off_c, 0, 74, 61
1, 688306, Note_on_c, 0, 76, 89
1, 688313, Note_on_c, 0, 71, 63
1, 688363, Note_on_c, 0, 64, 18
1, 688404, Note_off_c, 0, 64, 54
1, 688471, Note_on_c, 0, 59, 59
1, 688505, Poly_aftertouch_c, 0, 65, 127
1, 688514, Note_off_c, 0, 76, 54
1, 688521, Note_off_c, 0, 59, 55
1, 688576, Note_on_c, 0, 50, 62
1, 688688, Note_on_c, 0, 74, 99
1, 688723, Poly_aftertouch_c, 0, 65, 0
1, 688735, Note_off_c, 0, 71, 62
1, 688780, Poly_aftertouch_c, 0, 72, 127
1, 688806, Poly_aftertouch_c, 0, 72, 0
1, 688840, Note_off_c, 0, 50, 61
1, 688844, Note_on_c, 0, 43, 63
1, 689065, Control_c, 0, 64, 77
1, 689074, Note_on_c, 0, 71, 84
1, 689079, Control_c, 0, 64, 56
1, 689089, Note_on_c, 0, 52, 63
1, 689090, Note_on_c, 0, 67, 67
1, 689093, Note_on_c, 0, 55, 55
1, 689094, Control_c, 0, 64, 0
1, 689095, Note_on_c, 0, 62, 58
1, 689131, Control_c, 0, 64, 33
1, 689133, Note_off_c, 0, 55, 62
1, 689136, Note_off_c, 0, 52, 65
1, 689146, Control_c, 0, 64, 57
1, 689161, Control_c, 0, 64, 75
1, 689168, Note_off_c, 0, 43, 63
1, 689176, Control_c, 0, 64, 105
1, 689191, Control_c, 0, 64, 127
1, 689216, Poly_aftertouch_c, 0, 70, 0
1, 689227, Note_off_c, 0, 74, 60
1, 689314, Note_on_c, 0, 31, 20
1, 689315, Note_on_c, 0, 33, 37
1, 689375, Note_off_c, 0, 31, 43
1, 689393, Note_off_c, 0, 33, 39
1, 689445, Note_on_c, 0, 43, 55
1, 689475, Note_off_c, 0, 43, 63
1, 689573, Note_off_c, 0, 62, 9
1, 689640, Note_on_c, 0, 59, 59
1, 689642, Note_on_c, 0, 74, 81
1, 689695, Note_off_c, 0, 67, 50
1, 689697, Note_off_c, 0, 59, 55
1, 689704, Note_off_c, 0, 71, 58
1, 689711, Note_off_c, 0, 74, 59
1, 689863, Note_on_c, 0, 72, 81
1, 689881, Note_on_c, 0, 60, 52
1, 689885, Note_on_c, 0, 52, 50
1, 689885, Note_on_c, 0, 55, 53
1, 689925, Control_c, 0, 64, 82
1, 689940, Control_c, 0, 64, 63
1, 689954, Control_c, 0, 64, 50
1, 689969, Control_c, 0, 64, 49
1, 689970, Note_on_c, 0, 67, 69
1, 689984, Control_c, 0, 64, 57
1, 689999, Control_c, 0, 64, 70
1, 690014, Control_c, 0, 64, 87
1, 690027, Note_off_c, 0, 72, 52
1, 690028, Control_c, 0, 64, 110
1, 690035, Note_off_c, 0, 60, 63
1, 690043, Control_c, 0, 64, 127
1, 690065, Note_on_c, 0, 64, 78
1, 690093, Note_off_c, 0, 67, 59
1, 690100, Note_off_c, 0, 55, 62
1, 690118, Note_off_c, 0, 52, 62
1, 690140, Note_off_c, 0, 64, 63
1, 690167, Note_on_c, 0, 60, 64
1, 690196, Note_off_c, 0, 60, 66
1, 690280, Note_on_c, 0, 55, 66
1, 690384, Note_on_c, 0, 31, 54
1, 690389, Note_on_c, 0, 52, 61
1, 690422, Note_off_c, 0, 55, 48
1, 690503, Control_c, 0, 64, 92
1, 690518, Control_c, 0, 64, 65
1, 690533, Control_c, 0, 64, 34
1, 690548, Control_c, 0, 64, 0
1, 690553, Note_off_c, 0, 52, 56
1, 690564, Note_on_c, 0, 54, 65
1, 690571, Note_on_c, 0, 51, 64
1, 690589, Note_on_c, 0, 43, 57
1, 690599, Control_c, 0, 64, 38
1, 690614, Note_off_c, 0, 31, 62
1, 690614, Control_c, 0, 64, 58
1, 690629, Control_c, 0, 64, 67
1, 690644, Control_c, 0, 64, 75
1, 690658, Control_c, 0, 64, 89
1, 690660, Note_off_c, 0, 43, 61
1, 690673, Control_c, 0, 64, 127
1, 690691, Note_off_c, 0, 51, 61
1, 690709, Note_off_c, 0, 54, 63
1, 690812, Note_on_c, 0, 51, 63
1, 690956, Note_on_c, 0, 54, 69
1, 691061, Note_on_c, 0, 57, 75
1, 691177, Note_on_c, 0, 60, 76
1, 691191, Control_c, 0, 67, 119
1, 691206, Control_c, 0, 67, 101
1, 691222, Control_c, 0, 67, 88
1, 691237, Control_c, 0, 67, 77
1, 691252, Control_c, 0, 67, 65
1, 691266, Control_c, 0, 67, 57
1, 691281, Control_c, 0, 67, 52
1, 691296, Control_c, 0, 67, 47
1, 691311, Note_on_c, 0, 71, 89
1, 691311, Control_c, 0, 67, 38
1, 691324, Note_on_c, 0, 66, 72
1, 691325, Control_c, 0, 67, 0
1, 691362, Note_off_c, 0, 57, 56
1, 691383, Note_off_c, 0, 60, 58
1, 691386, Note_off_c, 0, 54, 36
1, 691436, Control_c, 0, 67, 38
1, 691441, Note_off_c, 0, 51, 36
1, 691467, Note_off_c, 0, 66, 47
1, 691496, Control_c, 0, 67, 42
1, 691498, Note_on_c, 0, 60, 67
1, 691511, Control_c, 0, 67, 51
1, 691540, Control_c, 0, 67, 50
1, 691585, Control_c, 0, 67, 51
1, 691599, Control_c, 0, 67, 52
1, 691614, Control_c, 0, 67, 51
1, 691629, Control_c, 0, 67, 50
1, 691674, Control_c, 0, 67, 51
1, 691682, Note_on_c, 0, 69, 87
1, 691689, Note_off_c, 0, 60, 54
1, 691689, Control_c, 0, 67, 53
1, 691692, Note_on_c, 0, 57, 63
1, 691704, Control_c, 0, 67, 54
1, 691719, Control_c, 0, 67, 57
1, 691733, Control_c, 0, 67, 61
1, 691740, Note_off_c, 0, 71, 61
1, 691748, Control_c, 0, 67, 70
1, 691763, Control_c, 0, 67, 84
1, 691778, Control_c, 0, 67, 101
1, 691793, Control_c, 0, 67, 117
1, 691802, Note_off_c, 0, 57, 56
1, 691807, Control_c, 0, 67, 127
1, 691817, Note_on_c, 0, 54, 69
1, 691883, Note_off_c, 0, 54, 61
1, 691940, Note_on_c, 0, 51, 64
1, 692012, Note_off_c, 0, 51, 48
1, 692158, Note_on_c, 0, 66, 75
1, 692167, Note_on_c, 0, 50, 58
1, 692171, Control_c, 0, 64, 98
1, 692172, Note_on_c, 0, 57, 56
1, 692172, Note_on_c, 0, 62, 58
1, 692186, Note_on_c, 0, 59, 47
1, 692186, Control_c, 0, 64, 69
1, 692192, Note_off_c, 0, 69, 60
1, 692201, Control_c, 0, 64, 39
1, 692216, Control_c, 0, 64, 0
1, 692256, Note_off_c, 0, 57, 63
1, 692260, Control_c, 0, 64, 42
1, 692274, Control_c, 0, 64, 62
1, 692280, Note_off_c, 0, 50, 63
1, 692289, Control_c, 0, 64, 77
1, 692304, Control_c, 0, 64, 90
1, 692319, Control_c, 0, 64, 101
1, 692334, Control_c, 0, 64, 107
1, 692349, Control_c, 0, 64, 127
1, 692416, Note_on_c, 0, 31, 58
1, 692448, Note_off_c, 0, 31, 63
1, 692606, Note_on_c, 0, 43, 46
1, 692637, Note_off_c, 0, 43, 51
1, 692775, Note_on_c, 0, 69, 65
1, 692793, Note_on_c, 0, 54, 42
1, 692818, Note_off_c, 0, 66, 61
1, 692848, Note_off_c, 0, 69, 60
1, 692850, Note_off_c, 0, 62, 44
1, 692864, Note_off_c, 0, 59, 45
1, 693009, Note_on_c, 0, 67, 72
1, 693033, Note_on_c, 0, 50, 46
1, 693036, Note_on_c, 0, 55, 48
1, 693036, Note_on_c, 0, 59, 40
1, 693047, Note_off_c, 0, 54, 32
1, 693053, Control_c, 0, 64, 97
1, 693068, Control_c, 0, 64, 71
1, 693083, Control_c, 0, 64, 52
1, 693097, Control_c, 0, 64, 0
1, 693127, Control_c, 0, 64, 39
1, 693139, Note_off_c, 0, 59, 56
1, 693142, Control_c, 0, 64, 58
1, 693149, Note_on_c, 0, 62, 58
1, 693157, Control_c, 0, 64, 73
1, 693171, Control_c, 0, 64, 86
1, 693176, Note_off_c, 0, 67, 56
1, 693186, Control_c, 0, 64, 96
1, 693201, Control_c, 0, 64, 100
1, 693216, Control_c, 0, 64, 104
1, 693231, Control_c, 0, 64, 107
1, 693234, Note_off_c, 0, 55, 61
1, 693241, Note_off_c, 0, 62, 62
1, 693246, Control_c, 0, 64, 116
1, 693249, Note_on_c, 0, 59, 65
1, 693250, Note_off_c, 0, 50, 63
1, 693261, Control_c, 0, 64, 127
1, 693323, Note_off_c, 0, 59, 55
1, 693359, Note_on_c, 0, 55, 63
1, 693396, Note_off_c, 0, 55, 61
1, 693491, Note_on_c, 0, 50, 51
1, 693586, Note_off_c, 0, 50, 62
1, 693618, Note_on_c, 0, 47, 47
1, 693629, Note_on_c, 0, 31, 45
1, 693684, Control_c, 0, 64, 83
1, 693699, Control_c, 0, 64, 60
1, 693714, Control_c, 0, 64, 0
1, 693758, Control_c, 0, 64, 35
1, 693770, Note_on_c, 0, 51, 61
1, 693770, Note_off_c, 0, 31, 56
1, 693773, Control_c, 0, 64, 58
1, 693775, Note_on_c, 0, 48, 57
1, 693784, Note_on_c, 0, 43, 52
1, 693788, Control_c, 0, 64, 69
1, 693799, Note_off_c, 0, 47, 25
1, 693802, Control_c, 0, 64, 79
1, 693808, Note_off_c, 0, 48, 64
1, 693817, Control_c, 0, 64, 92
1, 693819, Note_off_c, 0, 43, 63
1, 693832, Control_c, 0, 64, 107
1, 693836, Note_off_c, 0, 51, 60
1, 693847, Control_c, 0, 64, 127
1, 693947, Note_on_c, 0, 51, 58
1, 694088, Note_on_c, 0, 54, 51
1, 694099, Note_off_c, 0, 51, 52
1, 694163, Note_off_c, 0, 54, 58
1, 694195, Note_on_c, 0, 60, 49
1, 694257, Note_off_c, 0, 60, 53
1, 694358, Note_on_c, 0, 63, 40
1, 694453, Note_on_c, 0, 66, 46
1, 694468, Note_off_c, 0, 63, 43
1, 694566, Note_off_c, 0, 66, 44
1, 694575, Note_on_c, 0, 83, 89
1, 694590, Note_on_c, 0, 78, 68
1, 694597, Note_on_c, 0, 75, 59
1, 694606, Note_on_c, 0, 71, 50
1, 694625, Note_on_c, 0, 72, 41
1, 694666, Note_off_c, 0, 72, 59
1, 694670, Note_off_c, 0, 71, 0
1, 694670, Note_on_c, 0, 71, 27
1, 694723, Note_on_c, 0, 66, 61
1, 694804, Note_off_c, 0, 66, 61
1, 694808, Note_off_c, 0, 83, 55
1, 694811, Note_off_c, 0, 71, 35
1, 694814, Note_on_c, 0, 63, 55
1, 694850, Note_off_c, 0, 63, 64
1, 694919, Note_on_c, 0, 81, 95
1, 694930, Note_on_c, 0, 69, 78
1, 694937, Note_on_c, 0, 60, 60
1, 694948, Note_off_c, 0, 69, 72
1, 694966, Note_off_c, 0, 78, 62
1, 694969, Note_off_c, 0, 75, 66
1, 694976, Note_off_c, 0, 60, 60
1, 694984, Note_off_c, 0, 81, 70
1, 695077, Note_on_c, 0, 54, 49
1, 695140, Note_off_c, 0, 54, 58
1, 695190, Note_on_c, 0, 51, 43
1, 695268, Note_off_c, 0, 51, 50
1, 695403, Note_on_c, 0, 78, 76
1, 695417, Note_on_c, 0, 74, 57
1, 695418, Control_c, 0, 64, 105
1, 695419, Note_on_c, 0, 50, 56
1, 695419, Note_on_c, 0, 57, 54
1, 695422, Note_on_c, 0, 71, 50
1, 695426, Note_on_c, 0, 66, 27
1, 695433, Control_c, 0, 64, 73
1, 695447, Control_c, 0, 64, 52
1, 695462, Control_c, 0, 64, 0
1, 695491, Control_c, 0, 64, 34
1, 695493, Note_off_c, 0, 57, 63
1, 695506, Control_c, 0, 64, 58
1, 695521, Control_c, 0, 64, 75
1, 695524, Note_off_c, 0, 50, 64
1, 695536, Control_c, 0, 64, 97
1, 695551, Control_c, 0, 64, 127
1, 695555, Note_off_c, 0, 66, 54
1, 695662, Note_on_c, 0, 31, 56
1, 695739, Note_off_c, 0, 71, 25
1, 695783, Note_off_c, 0, 78, 49
1, 695791, Note_off_c, 0, 31, 26
1, 695796, Note_off_c, 0, 74, 34
1, 695857, Note_on_c, 0, 43, 55
1, 695892, Note_off_c, 0, 43, 64
1, 696054, Note_on_c, 0, 81, 68
1, 696066, Note_on_c, 0, 54, 55
1, 696074, Note_on_c, 0, 69, 50
1, 696142, Note_off_c, 0, 81, 58
1, 696180, Note_off_c, 0, 69, 51
1, 696337, Note_on_c, 0, 79, 58
1, 696341, Note_off_c, 0, 54, 53
1, 696351, Note_on_c, 0, 59, 49
1, 696358, Note_on_c, 0, 67, 43
1, 696361, Note_on_c, 0, 50, 45
1, 696366, Note_on_c, 0, 55, 40
1, 696447, Control_c, 0, 64, 85
1, 696462, Control_c, 0, 64, 64
1, 696477, Control_c, 0, 64, 42
1, 696492, Control_c, 0, 64, 0
1, 696507, Note_on_c, 0, 74, 66
1, 696522, Control_c, 0, 64, 31
1, 696537, Control_c, 0, 64, 51
1, 696552, Control_c, 0, 64, 66
1, 696567, Control_c, 0, 64, 75
1, 696581, Control_c, 0, 64, 83
1, 696582, Note_off_c, 0, 79, 35
1, 696603, Control_c, 0, 64, 89
1, 696618, Control_c, 0, 64, 97
1, 696633, Control_c, 0, 64, 108
1, 696635, Note_on_c, 0, 71, 68
1, 696640, Note_off_c, 0, 59, 55
1, 696647, Control_c, 0, 64, 127
1, 696656, Note_off_c, 0, 74, 49
1, 696683, Note_off_c, 0, 67, 43
1, 696736, Note_off_c, 0, 50, 63
1, 696742, Note_off_c, 0, 71, 55
1, 696745, Note_off_c, 0, 55, 61
1, 696775, Note_on_c, 0, 67, 65
1, 696824, Note_off_c, 0, 67, 55
1, 696936, Note_on_c, 0, 62, 51
1, 697049, Note_off_c, 0, 62, 58
1, 697077, Note_on_c, 0, 59, 50
1, 697273, Note_on_c, 0, 63, 58
1, 697282, Note_on_c, 0, 43, 50
1, 697285, Note_on_c, 0, 60, 41
1, 697285, Control_c, 0, 64, 111
1, 697300, Control_c, 0, 64, 78
1, 697315, Control_c, 0, 64, 59
1, 697330, Control_c, 0, 64, 0
1, 697354, Note_off_c, 0, 59, 25
1, 697396, Control_c, 0, 64, 47
1, 697411, Control_c, 0, 64, 62
1, 697426, Control_c, 0, 64, 72
1, 697441, Control_c, 0, 64, 84
1, 697453, Note_on_c, 0, 51, 58
1, 697456, Control_c, 0, 64, 98
1, 697470, Control_c, 0, 64, 127
1, 697476, Note_off_c, 0, 43, 37
1, 697509, Note_off_c, 0, 60, 62
1, 697538, Note_off_c, 0, 63, 64
1, 697589, Note_off_c, 0, 51, 49
1, 697598, Note_on_c, 0, 54, 52
1, 697694, Note_off_c, 0, 54, 60
1, 697723, Note_on_c, 0, 60, 52
1, 697799, Note_off_c, 0, 60, 64
1, 697881, Note_on_c, 0, 63, 60
1, 698047, Note_on_c, 0, 66, 53
1, 698281, Note_on_c, 0, 95, 85
1, 698299, Note_on_c, 0, 83, 55
1, 698300, Note_on_c, 0, 90, 59
1, 698301, Note_on_c, 0, 87, 55
1, 698319, Note_on_c, 0, 72, 51
1, 698335, Note_off_c, 0, 66, 62
1, 698342, Note_off_c, 0, 63, 59
1, 698588, Note_off_c, 0, 72, 52
1, 698657, Note_on_c, 0, 75, 49
1, 698714, Note_off_c, 0, 95, 55
1, 698728, Note_off_c, 0, 83, 37
1, 699062, Note_on_c, 0, 93, 68
1, 699071, Note_on_c, 0, 81, 46
1, 699120, Note_off_c, 0, 81, 0
1, 699120, Note_on_c, 0, 81, 17
1, 699124, Note_off_c, 0, 90, 63
1, 699272, Note_off_c, 0, 87, 61
1, 699357, Note_off_c, 0, 93, 62
1, 699392, Note_off_c, 0, 81, 43
1, 699454, Note_on_c, 0, 78, 49
1, 699481, Note_off_c, 0, 78, 59
1, 699491, Note_off_c, 0, 75, 64
1, 700024, Note_on_c, 0, 90, 63
1, 700027, Note_on_c, 0, 83, 45
1, 700036, Note_on_c, 0, 86, 55
1, 700038, Note_on_c, 0, 59, 39
1, 700040, Note_on_c, 0, 50, 43
1, 700045, Note_on_c, 0, 78, 24
1, 700051, Note_on_c, 0, 62, 38
1, 700103, Control_c, 0, 64, 110
1, 700118, Control_c, 0, 64, 79
1, 700133, Control_c, 0, 64, 60
1, 700148, Control_c, 0, 64, 39
1, 700162, Control_c, 0, 64, 0
1, 700192, Control_c, 0, 64, 42
1, 700206, Control_c, 0, 64, 61
1, 700221, Control_c, 0, 64, 76
1, 700236, Control_c, 0, 64, 100
1, 700251, Control_c, 0, 64, 127
1, 700289, Note_off_c, 0, 62, 60
1, 700326, Note_off_c, 0, 59, 64
1, 700328, Note_off_c, 0, 78, 40
1, 700379, Note_off_c, 0, 50, 64
1, 700532, Note_off_c, 0, 90, 64
1, 700636, Note_on_c, 0, 31, 43
1, 700833, Note_on_c, 0, 93, 82
1, 700841, Note_on_c, 0, 81, 55
1, 700905, Note_off_c, 0, 83, 55
1, 700913, Note_off_c, 0, 86, 62
1, 701022, Note_on_c, 0, 43, 58
1, 701059, Note_off_c, 0, 31, 40
1, 701060, Note_off_c, 0, 43, 62
1, 701307, Note_on_c, 0, 83, 62
1, 701312, Note_on_c, 0, 86, 63
1, 701314, Note_on_c, 0, 55, 50
1, 701413, Note_off_c, 0, 93, 54
1, 701440, Note_off_c, 0, 81, 62
1, 701493, Note_on_c, 0, 50, 48
1, 701555, Control_c, 0, 67, 107
1, 701566, Note_on_c, 0, 91, 82
1, 701570, Control_c, 0, 67, 92
1, 701580, Note_on_c, 0, 79, 69
1, 701585, Control_c, 0, 67, 88
1, 701589, Note_off_c, 0, 86, 65
1, 701600, Note_off_c, 0, 83, 64
1, 701601, Control_c, 0, 67, 87
1, 701607, Note_off_c, 0, 79, 67
1, 701610, Note_off_c, 0, 91, 66
1, 701631, Control_c, 0, 67, 89
1, 701643, Note_off_c, 0, 55, 37
1, 701646, Control_c, 0, 67, 92
1, 701656, Note_off_c, 0, 50, 62
1, 701660, Control_c, 0, 67, 96
1, 701664, Note_on_c, 0, 43, 54
1, 701675, Control_c, 0, 67, 99
1, 701690, Control_c, 0, 67, 102
1, 701701, Note_off_c, 0, 43, 62
1, 701705, Control_c, 0, 67, 105
1, 701819, Note_on_c, 0, 81, 71
1, 701822, Note_on_c, 0, 85, 80
1, 701834, Note_on_c, 0, 79, 63
1, 701837, Note_on_c, 0, 73, 63
1, 701839, Note_on_c, 0, 59, 69
1, 701846, Control_c, 0, 67, 103
1, 701847, Note_on_c, 0, 80, 44
1, 701905, Control_c, 0, 67, 100
1, 701910, Note_off_c, 0, 80, 0
1, 701920, Control_c, 0, 67, 98
1, 701934, Control_c, 0, 67, 95
1, 701941, Note_off_c, 0, 73, 59
1, 701947, Poly_aftertouch_c, 0, 80, 127
1, 701949, Control_c, 0, 67, 94
1, 701964, Control_c, 0, 67, 91
1, 701979, Control_c, 0, 67, 89
1, 701994, Control_c, 0, 67, 88
1, 702000, Note_on_c, 0, 50, 61
1, 702008, Control_c, 0, 67, 86
1, 702023, Control_c, 0, 67, 84
1, 702024, Note_off_c, 0, 59, 51
1, 702038, Control_c, 0, 67, 81
1, 702053, Control_c, 0, 67, 79
1, 702055, Note_on_c, 0, 88, 89
1, 702066, Note_on_c, 0, 76, 71
1, 702067, Control_c, 0, 67, 68
1, 702068, Note_off_c, 0, 85, 66
1, 702075, Note_off_c, 0, 81, 58
1, 702082, Control_c, 0, 67, 64
1, 702083, Note_off_c, 0, 79, 63
1, 702096, Poly_aftertouch_c, 0, 80, 0
1, 702097, Control_c, 0, 67, 59
1, 702112, Control_c, 0, 67, 51
1, 702127, Control_c, 0, 67, 41
1, 702141, Control_c, 0, 67, 38
1, 702154, Note_on_c, 0, 43, 63
1, 702166, Note_off_c, 0, 50, 57
1, 702179, Note_off_c, 0, 43, 61
1, 702230, Control_c, 0, 67, 41
1, 702245, Control_c, 0, 67, 44
1, 702291, Note_on_c, 0, 83, 82
1, 702292, Note_on_c, 0, 79, 72
1, 702311, Note_on_c, 0, 62, 66
1, 702349, Control_c, 0, 67, 42
1, 702364, Control_c, 0, 67, 41
1, 702391, Note_off_c, 0, 76, 61
1, 702397, Note_off_c, 0, 88, 42
1, 702405, Note_off_c, 0, 62, 60
1, 702409, Control_c, 0, 67, 40
1, 702424, Control_c, 0, 67, 37
1, 702439, Control_c, 0, 67, 35
1, 702454, Control_c, 0, 67, 34
1, 702463, Note_on_c, 0, 50, 63
1, 702483, Control_c, 0, 67, 0
1, 702519, Note_on_c, 0, 86, 87
1, 702526, Note_on_c, 0, 74, 84
1, 702549, Note_off_c, 0, 83, 62
1, 702566, Note_off_c, 0, 79, 62
1, 702569, Note_off_c, 0, 74, 65
1, 702594, Note_off_c, 0, 86, 64
1, 702623, Note_off_c, 0, 50, 56
1, 702632, Note_on_c, 0, 43, 61
1, 702639, Control_c, 0, 67, 39
1, 702654, Control_c, 0, 67, 44
1, 702664, Note_off_c, 0, 43, 64
1, 702668, Control_c, 0, 67, 45
1, 702713, Control_c, 0, 67, 47
1, 702728, Control_c, 0, 67, 50
1, 702743, Control_c, 0, 67, 55
1, 702757, Control_c, 0, 67, 61
1, 702772, Control_c, 0, 67, 61
1, 702802, Control_c, 0, 67, 64
1, 702816, Control_c, 0, 67, 66
1, 702822, Note_on_c, 0, 82, 78
1, 702828, Note_on_c, 0, 70, 76
1, 702831, Control_c, 0, 67, 73
1, 702833, Note_on_c, 0, 79, 72
1, 702846, Control_c, 0, 67, 79
1, 702849, Note_on_c, 0, 62, 62
1, 702861, Control_c, 0, 67, 85
1, 702876, Control_c, 0, 64, 100
1, 702876, Control_c, 0, 67, 95
1, 702881, Note_on_c, 0, 50, 51
1, 702890, Control_c, 0, 64, 69
1, 702890, Control_c, 0, 67, 111
1, 702905, Control_c, 0, 64, 45
1, 702905, Control_c, 0, 67, 127
1, 702920, Control_c, 0, 64, 0
1, 702935, Control_c, 0, 64, 31
1, 702950, Control_c, 0, 64, 53
1, 702964, Control_c, 0, 64, 71
1, 702979, Control_c, 0, 64, 99
1, 702994, Control_c, 0, 64, 127
1, 703005, Note_off_c, 0, 62, 62
1, 703027, Note_off_c, 0, 70, 62
1, 703142, Note_on_c, 0, 84, 83
1, 703150, Note_on_c, 0, 72, 78
1, 703164, Note_off_c, 0, 79, 63
1, 703179, Note_off_c, 0, 82, 62
1, 703339, Note_on_c, 0, 83, 3
1, 703423, Note_off_c, 0, 84, 52
1, 703429, Note_on_c, 0, 79, 57
1, 703432, Note_on_c, 0, 43, 48
1, 703438, Note_on_c, 0, 74, 56
1, 703472, Note_off_c, 0, 83, 43
1, 703475, Note_off_c, 0, 43, 58
1, 703506, Note_off_c, 0, 50, 38
1, 703519, Note_off_c, 0, 72, 59
1, 703682, Note_on_c, 0, 83, 84
1, 703701, Note_on_c, 0, 71, 78
1, 703711, Note_off_c, 0, 79, 62
1, 703724, Note_off_c, 0, 74, 58
1, 703725, Note_off_c, 0, 71, 64
1, 703733, Note_off_c, 0, 83, 60
1, 703965, Note_on_c, 0, 78, 71
1, 703967, Note_on_c, 0, 66, 70
1, 703974, Note_on_c, 0, 59, 55
1, 703988, Note_on_c, 0, 74, 61
1, 703996, Note_on_c, 0, 50, 52
1, 704069, Control_c, 0, 64, 83
1, 704092, Control_c, 0, 64, 63
1, 704107, Control_c, 0, 64, 46
1, 704122, Control_c, 0, 64, 37
1, 704136, Control_c, 0, 64, 38
1, 704151, Control_c, 0, 64, 49
1, 704166, Note_off_c, 0, 66, 63
1, 704166, Control_c, 0, 64, 64
1, 704180, Control_c, 0, 64, 82
1, 704195, Control_c, 0, 64, 106
1, 704210, Control_c, 0, 64, 127
1, 704260, Note_on_c, 0, 81, 71
1, 704268, Note_on_c, 0, 69, 63
1, 704275, Note_off_c, 0, 74, 57
1, 704305, Note_off_c, 0, 78, 61
1, 704410, Note_off_c, 0, 59, 36
1, 704495, Poly_aftertouch_c, 0, 79, 127
1, 704514, Note_off_c, 0, 81, 50
1, 704548, Poly_aftertouch_c, 0, 79, 0
1, 704565, Note_on_c, 0, 43, 52
1, 704573, Note_on_c, 0, 74, 53
1, 704576, Note_on_c, 0, 71, 41
1, 704615, Note_off_c, 0, 43, 62
1, 704627, Note_off_c, 0, 50, 59
1, 704657, Note_off_c, 0, 69, 38
1, 704843, Note_on_c, 0, 79, 64
1, 704876, Note_on_c, 0, 67, 26
1, 704894, Note_off_c, 0, 74, 63
1, 704894, Note_off_c, 0, 79, 57
1, 704912, Note_off_c, 0, 67, 54
1, 704914, Note_off_c, 0, 71, 46
1, 705148, Note_on_c, 0, 61, 56
1, 705149, Note_on_c, 0, 59, 50
1, 705152, Note_on_c, 0, 55, 48
1, 705241, Control_c, 0, 64, 99
1, 705256, Control_c, 0, 64, 73
1, 705271, Control_c, 0, 64, 53
1, 705286, Control_c, 0, 64, 0
1, 705375, Control_c, 0, 64, 44
1, 705390, Control_c, 0, 64, 65
1, 705404, Control_c, 0, 64, 82
1, 705419, Control_c, 0, 64, 92
1, 705434, Control_c, 0, 64, 96
1, 705449, Control_c, 0, 64, 107
1, 705457, Note_on_c, 0, 64, 85
1, 705464, Control_c, 0, 64, 127
1, 705497, Note_off_c, 0, 59, 63
1, 705501, Note_off_c, 0, 61, 63
1, 705521, Note_off_c, 0, 55, 61
1, 705801, Note_on_c, 0, 67, 45
1, 705816, Note_on_c, 0, 71, 40
1, 705818, Note_on_c, 0, 43, 40
1, 705857, Control_c, 0, 64, 99
1, 705872, Control_c, 0, 64, 73
1, 705886, Control_c, 0, 64, 57
1, 705900, Control_c, 0, 64, 45
1, 705915, Control_c, 0, 64, 48
1, 705930, Control_c, 0, 64, 59
1, 705945, Control_c, 0, 64, 71
1, 705960, Control_c, 0, 64, 83
1, 705974, Control_c, 0, 64, 94
1, 705986, Note_off_c, 0, 43, 62
1, 705989, Control_c, 0, 64, 99
1, 706004, Control_c, 0, 64, 113
1, 706019, Control_c, 0, 64, 127
1, 706062, Note_on_c, 0, 62, 58
1, 706064, Note_off_c, 0, 64, 65
1, 706079, Note_off_c, 0, 71, 57
1, 706106, Note_off_c, 0, 62, 62
1, 706116, Note_off_c, 0, 67, 62
1, 706335, Note_on_c, 0, 55, 44
1, 706341, Note_on_c, 0, 50, 48
1, 706344, Note_on_c, 0, 58, 52
1, 706442, Control_c, 0, 64, 113
1, 706457, Control_c, 0, 64, 78
1, 706472, Control_c, 0, 64, 58
1, 706487, Control_c, 0, 64, 35
1, 706502, Control_c, 0, 64, 0
1, 706531, Control_c, 0, 64, 46
1, 706546, Control_c, 0, 64, 61
1, 706561, Control_c, 0, 64, 69
1, 706575, Control_c, 0, 64, 76
1, 706590, Control_c, 0, 64, 82
1, 706605, Control_c, 0, 64, 88
1, 706620, Control_c, 0, 64, 96
1, 706635, Control_c, 0, 64, 108
1, 706649, Control_c, 0, 64, 127
1, 706692, Note_off_c, 0, 55, 60
1, 706699, Note_on_c, 0, 60, 75
1, 706699, Note_off_c, 0, 50, 61
1, 706707, Note_off_c, 0, 58, 62
1, 707011, Note_on_c, 0, 43, 47
1, 707015, Note_on_c, 0, 62, 51
1, 707024, Note_on_c, 0, 67, 52
1, 707035, Control_c, 0, 64, 86
1, 707049, Control_c, 0, 64, 67
1, 707064, Control_c, 0, 64, 51
1, 707086, Control_c, 0, 64, 37
1, 707101, Control_c, 0, 64, 34
1, 707116, Control_c, 0, 64, 37
1, 707131, Control_c, 0, 64, 48
1, 707146, Control_c, 0, 64, 62
1, 707161, Control_c, 0, 64, 68
1, 707175, Control_c, 0, 64, 74
1, 707190, Control_c, 0, 64, 79
1, 707205, Control_c, 0, 64, 84
1, 707220, Control_c, 0, 64, 94
1, 707223, Note_off_c, 0, 43, 58
1, 707235, Control_c, 0, 64, 111
1, 707250, Control_c, 0, 64, 127
1, 707326, Poly_aftertouch_c, 0, 64, 127
1, 707339, Note_on_c, 0, 59, 63
1, 707345, Note_off_c, 0, 67, 51
1, 707350, Note_off_c, 0, 60, 62
1, 707396, Note_off_c, 0, 59, 60
1, 707400, Poly_aftertouch_c, 0, 64, 0
1, 707410, Note_off_c, 0, 62, 53
1, 707629, Note_on_c, 0, 50, 42
1, 707629, Note_on_c, 0, 54, 38
1, 707630, Note_on_c, 0, 47, 42
1, 707666, Control_c, 0, 64, 119
1, 707680, Control_c, 0, 64, 94
1, 707695, Control_c, 0, 64, 74
1, 707710, Control_c, 0, 64, 56
1, 707725, Control_c, 0, 64, 0
1, 707799, Control_c, 0, 64, 37
1, 707813, Control_c, 0, 64, 51
1, 707836, Control_c, 0, 64, 63
1, 707851, Control_c, 0, 64, 74
1, 707866, Control_c, 0, 64, 81
1, 707880, Control_c, 0, 64, 83
1, 707895, Control_c, 0, 64, 84
1, 707910, Control_c, 0, 64, 88
1, 707924, Control_c, 0, 64, 96
1, 707939, Control_c, 0, 64, 108
1, 707954, Control_c, 0, 64, 127
1, 708017, Note_on_c, 0, 57, 66
1, 708052, Note_off_c, 0, 50, 58
1, 708069, Note_off_c, 0, 47, 54
1, 708097, Note_off_c, 0, 54, 52
1, 708339, Control_c, 0, 64, 123
1, 708340, Note_on_c, 0, 62, 47
1, 708344, Note_on_c, 0, 59, 47
1, 708353, Control_c, 0, 64, 92
1, 708367, Note_on_c, 0, 43, 42
1, 708368, Control_c, 0, 64, 75
1, 708383, Control_c, 0, 64, 61
1, 708398, Control_c, 0, 64, 45
1, 708413, Control_c, 0, 64, 30
1, 708428, Control_c, 0, 64, 0
1, 708457, Control_c, 0, 64, 38
1, 708472, Control_c, 0, 64, 50
1, 708487, Control_c, 0, 64, 59
1, 708502, Control_c, 0, 64, 66
1, 708517, Control_c, 0, 64, 72
1, 708532, Control_c, 0, 64, 77
1, 708546, Control_c, 0, 64, 82
1, 708561, Control_c, 0, 64, 88
1, 708580, Note_off_c, 0, 43, 51
1, 708583, Control_c, 0, 64, 94
1, 708598, Control_c, 0, 64, 103
1, 708613, Control_c, 0, 64, 127
1, 708661, Note_off_c, 0, 62, 50
1, 708666, Note_on_c, 0, 55, 54
1, 708672, Note_off_c, 0, 57, 62
1, 708724, Note_off_c, 0, 59, 47
1, 708728, Note_off_c, 0, 55, 56
1, 708989, Note_on_c, 0, 47, 42
1, 708997, Note_on_c, 0, 49, 48
1, 709014, Control_c, 0, 64, 123
1, 709029, Control_c, 0, 64, 108
1, 709043, Control_c, 0, 64, 95
1, 709058, Control_c, 0, 64, 83
1, 709073, Control_c, 0, 64, 69
1, 709088, Control_c, 0, 64, 57
1, 709103, Control_c, 0, 64, 39
1, 709117, Control_c, 0, 64, 0
1, 709206, Control_c, 0, 64, 41
1, 709221, Control_c, 0, 64, 56
1, 709236, Control_c, 0, 64, 65
1, 709250, Control_c, 0, 64, 69
1, 709265, Control_c, 0, 64, 71
1, 709280, Control_c, 0, 64, 74
1, 709295, Control_c, 0, 64, 78
1, 709317, Control_c, 0, 64, 82
1, 709332, Control_c, 0, 64, 86
1, 709347, Control_c, 0, 64, 88
1, 709362, Control_c, 0, 64, 90
1, 709376, Control_c, 0, 64, 92
1, 709391, Control_c, 0, 64, 93
1, 709406, Control_c, 0, 64, 95
1, 709421, Control_c, 0, 64, 98
1, 709430, Note_on_c, 0, 52, 52
1, 709436, Control_c, 0, 64, 101
1, 709450, Control_c, 0, 64, 105
1, 709465, Control_c, 0, 64, 108
1, 709480, Control_c, 0, 64, 111
1, 709495, Control_c, 0, 64, 118
1, 709510, Control_c, 0, 64, 127
1, 709605, Note_off_c, 0, 49, 49
1, 709619, Note_off_c, 0, 47, 29
1, 709831, Note_on_c, 0, 59, 42
1, 709849, Note_on_c, 0, 55, 29
1, 709855, Note_on_c, 0, 43, 34
1, 709866, Control_c, 0, 64, 110
1, 709881, Control_c, 0, 64, 98
1, 709896, Control_c, 0, 64, 84
1, 709911, Control_c, 0, 64, 72
1, 709926, Control_c, 0, 64, 60
1, 709940, Control_c, 0, 64, 47
1, 709955, Control_c, 0, 64, 34
1, 709970, Control_c, 0, 64, 0
1, 709999, Control_c, 0, 64, 30
1, 710014, Control_c, 0, 64, 38
1, 710029, Control_c, 0, 64, 50
1, 710044, Control_c, 0, 64, 62
1, 710059, Control_c, 0, 64, 69
1, 710081, Control_c, 0, 64, 74
1, 710096, Control_c, 0, 64, 78
1, 710111, Control_c, 0, 64, 81
1, 710125, Control_c, 0, 64, 88
1, 710140, Control_c, 0, 64, 102
1, 710155, Control_c, 0, 64, 127
1, 710198, Note_off_c, 0, 52, 36
1, 710348, Note_off_c, 0, 59, 35
1, 710438, Note_on_c, 0, 50, 28
1, 710456, Note_off_c, 0, 55, 38
1, 710509, Note_off_c, 0, 50, 55
1, 710617, Note_off_c, 0, 43, 34
1, 711437, Note_on_c, 0, 31, 45
1, 711513, Control_c, 0, 64, 100
1, 711528, Control_c, 0, 64, 77
1, 711543, Control_c, 0, 64, 60
1, 711558, Control_c, 0, 64, 42
1, 711579, Control_c, 0, 64, 31
1, 711594, Control_c, 0, 64, 33
1, 711609, Control_c, 0, 64, 43
1, 711624, Control_c, 0, 64, 61
1, 711639, Control_c, 0, 64, 73
1, 711653, Control_c, 0, 64, 85
1, 711668, Control_c, 0, 64, 97
1, 711683, Control_c, 0, 64, 102
1, 711698, Control_c, 0, 64, 112
1, 711713, Control_c, 0, 64, 127
1, 711761, Note_off_c, 0, 31, 39
1, 712684, Note_on_c, 0, 62, 43
1, 712696, Note_on_c, 0, 60, 37
1, 712712, Note_on_c, 0, 51, 28
1, 712717, Note_on_c, 0, 55, 28
1, 712720, Note_on_c, 0, 48, 39
1, 712915, Note_off_c, 0, 62, 56
1, 712941, Note_off_c, 0, 60, 42
1, 712952, Note_off_c, 0, 55, 38
1, 712954, Note_off_c, 0, 48, 40
1, 712962, Note_off_c, 0, 51, 39
1, 713231, Note_on_c, 0, 63, 58
1, 713236, Note_on_c, 0, 60, 44
1, 713253, Note_on_c, 0, 48, 41
1, 713259, Note_on_c, 0, 55, 29
1, 713263, Note_on_c, 0, 51, 31
1, 713316, Note_off_c, 0, 48, 57
1, 713333, Note_off_c, 0, 51, 51
1, 713337, Note_off_c, 0, 55, 50
1, 713338, Note_off_c, 0, 60, 50
1, 713340, Note_off_c, 0, 63, 48
1, 713555, Note_on_c, 0, 65, 45
1, 713564, Note_on_c, 0, 63, 46
1, 713575, Note_on_c, 0, 55, 43
1, 713590, Note_on_c, 0, 60, 37
1, 713625, Note_off_c, 0, 63, 52
1, 713635, Note_off_c, 0, 55, 52
1, 713644, Note_off_c, 0, 60, 47
1, 713646, Note_off_c, 0, 65, 60
1, 713807, Note_on_c, 0, 66, 60
1, 713841, Note_on_c, 0, 60, 37
1, 713846, Note_on_c, 0, 63, 37
1, 713850, Note_on_c, 0, 55, 31
1, 713887, Note_off_c, 0, 63, 47
1, 713900, Note_off_c, 0, 60, 50
1, 713901, Note_off_c, 0, 66, 57
1, 713908, Note_off_c, 0, 55, 41
1, 714032, Note_on_c, 0, 67, 64
1, 714039, Note_on_c, 0, 63, 50
1, 714046, Note_on_c, 0, 60, 54
1, 714094, Note_off_c, 0, 63, 50
1, 714095, Note_off_c, 0, 60, 59
1, 714111, Note_off_c, 0, 67, 54
1, 714222, Note_on_c, 0, 69, 72
1, 714223, Note_on_c, 0, 60, 58
1, 714235, Note_on_c, 0, 63, 48
1, 714263, Note_off_c, 0, 60, 63
1, 714264, Note_off_c, 0, 63, 52
1, 714284, Note_off_c, 0, 69, 61
1, 714403, Note_on_c, 0, 63, 47
1, 714403, Note_on_c, 0, 71, 73
1, 714415, Note_on_c, 0, 67, 59
1, 714428, Note_on_c, 0, 60, 33
1, 714449, Note_off_c, 0, 67, 61
1, 714456, Note_off_c, 0, 71, 60
1, 714461, Note_off_c, 0, 63, 54
1, 714467, Note_off_c, 0, 60, 60
1, 714589, Note_on_c, 0, 72, 71
1, 714592, Note_on_c, 0, 63, 50
1, 714601, Note_on_c, 0, 60, 37
1, 714604, Note_on_c, 0, 67, 51
1, 714625, Note_off_c, 0, 63, 57
1, 714631, Note_off_c, 0, 67, 57
1, 714639, Note_off_c, 0, 60, 52
1, 714642, Note_off_c, 0, 72, 61
1, 714775, Note_on_c, 0, 74, 80
1, 714786, Note_on_c, 0, 63, 51
1, 714798, Note_on_c, 0, 72, 45
1, 714798, Note_on_c, 0, 67, 33
1, 714825, Note_off_c, 0, 72, 54
1, 714841, Note_off_c, 0, 63, 54
1, 714875, Note_off_c, 0, 67, 40
1, 714875, Note_off_c, 0, 74, 57
1, 714983, Note_on_c, 0, 75, 79
1, 714984, Note_on_c, 0, 63, 50
1, 714997, Note_on_c, 0, 67, 44
1, 715002, Note_on_c, 0, 72, 51
1, 715022, Note_off_c, 0, 63, 61
1, 715023, Note_off_c, 0, 72, 60
1, 715029, Note_off_c, 0, 67, 58
1, 715039, Note_off_c, 0, 75, 63
1, 715217, Note_on_c, 0, 77, 76
1, 715236, Note_on_c, 0, 67, 47
1, 715242, Note_on_c, 0, 75, 45
1, 715244, Note_on_c, 0, 72, 48
1, 715267, Note_off_c, 0, 75, 51
1, 715272, Note_off_c, 0, 77, 62
1, 715290, Note_off_c, 0, 72, 56
1, 715298, Note_off_c, 0, 67, 44
1, 715502, Note_on_c, 0, 78, 77
1, 715523, Note_on_c, 0, 72, 40
1, 715529, Note_on_c, 0, 67, 42
1, 715534, Note_on_c, 0, 75, 39
1, 715551, Note_off_c, 0, 78, 61
1, 715561, Note_off_c, 0, 72, 55
1, 715561, Note_off_c, 0, 75, 48
1, 715620, Note_off_c, 0, 67, 34
1, 715827, Control_c, 0, 67, 124
1, 715842, Control_c, 0, 67, 109
1, 715856, Control_c, 0, 67, 95
1, 715871, Control_c, 0, 67, 87
1, 715883, Note_on_c, 0, 79, 75
1, 715886, Control_c, 0, 67, 80
1, 715901, Note_on_c, 0, 75, 61
1, 715901, Control_c, 0, 67, 75
1, 715904, Note_on_c, 0, 72, 49
1, 715916, Control_c, 0, 67, 71
1, 715919, Note_off_c, 0, 75, 63
1, 715930, Control_c, 0, 67, 67
1, 715945, Control_c, 0, 67, 62
1, 715956, Note_off_c, 0, 79, 63
1, 715960, Control_c, 0, 67, 56
1, 715975, Control_c, 0, 67, 49
1, 715984, Note_off_c, 0, 72, 35
1, 715991, Control_c, 0, 67, 41
1, 716006, Control_c, 0, 67, 34
1, 716021, Control_c, 0, 67, 0
1, 716571, Note_on_c, 0, 81, 78
1, 716603, Note_on_c, 0, 72, 48
1, 716652, Note_off_c, 0, 72, 53
1, 716663, Note_off_c, 0, 81, 63
1, 716723, Control_c, 0, 67, 39
1, 716738, Control_c, 0, 67, 67
1, 716753, Control_c, 0, 67, 89
1, 716768, Control_c, 0, 67, 99
1, 716783, Control_c, 0, 67, 105
1, 716798, Control_c, 0, 67, 112
1, 716821, Control_c, 0, 67, 122
1, 716836, Control_c, 0, 67, 127
1, 717863, Note_on_c, 0, 83, 73
1, 717876, Note_on_c, 0, 79, 53
1, 717879, Note_on_c, 0, 67, 48
1, 717892, Note_on_c, 0, 74, 33
1, 718014, Control_c, 0, 64, 106
1, 718029, Control_c, 0, 64, 92
1, 718044, Control_c, 0, 64, 81
1, 718059, Control_c, 0, 64, 69
1, 718074, Control_c, 0, 64, 61
1, 718089, Control_c, 0, 64, 54
1, 718104, Control_c, 0, 64, 47
1, 718118, Control_c, 0, 64, 39
1, 718133, Control_c, 0, 64, 0
1, 718393, Control_c, 0, 64, 34
1, 718408, Control_c, 0, 64, 41
1, 718423, Control_c, 0, 64, 51
1, 718437, Control_c, 0, 64, 58
1, 718452, Control_c, 0, 64, 62
1, 718467, Control_c, 0, 64, 63
1, 718497, Control_c, 0, 64, 64
1, 718512, Control_c, 0, 64, 66
1, 718527, Control_c, 0, 64, 69
1, 718542, Control_c, 0, 64, 71
1, 718556, Control_c, 0, 64, 72
1, 718571, Control_c, 0, 64, 73
1, 718586, Control_c, 0, 64, 75
1, 718601, Control_c, 0, 64, 78
1, 718616, Control_c, 0, 64, 82
1, 718630, Control_c, 0, 64, 86
1, 718645, Control_c, 0, 64, 90
1, 718660, Control_c, 0, 64, 94
1, 718675, Control_c, 0, 64, 102
1, 718689, Control_c, 0, 64, 123
1, 718704, Control_c, 0, 64, 127
1, 718861, Note_off_c, 0, 67, 59
1, 718926, Note_off_c, 0, 83, 33
1, 718928, Note_off_c, 0, 74, 42
1, 719060, Note_off_c, 0, 79, 39
1, 720432, Note_on_c, 0, 83, 43
1, 720445, Note_on_c, 0, 71, 35
1, 720457, Note_on_c, 0, 79, 24
1, 720459, Note_on_c, 0, 74, 33
1, 720465, Note_on_c, 0, 67, 26
1, 720467, Note_on_c, 0, 62, 28
1, 720472, Note_on_c, 0, 55, 25
1, 721177, Note_off_c, 0, 67, 36
1, 721549, Note_off_c, 0, 62, 42
1, 721704, Note_off_c, 0, 55, 41
1, 721919, Note_off_c, 0, 83, 31
1, 722117, Note_off_c, 0, 79, 34
1, 722264, Note_off_c, 0, 71, 38
1, 722354, Note_off_c, 0, 74, 42
1, 723165, Note_on_c, 0, 31, 29
1, 723299, Control_c, 0, 64, 94
1, 723314, Control_c, 0, 64, 76
1, 723329, Control_c, 0, 64, 62
1, 723344, Control_c, 0, 64, 53
1, 723359, Control_c, 0, 64, 52
1, 723374, Control_c, 0, 64, 55
1, 723389, Control_c, 0, 64, 61
1, 723404, Control_c, 0, 64, 67
1, 723418, Control_c, 0, 64, 73
1, 723433, Control_c, 0, 64, 79
1, 723448, Control_c, 0, 64, 83
1, 723463, Control_c, 0, 64, 88
1, 723477, Control_c, 0, 64, 93
1, 723492, Control_c, 0, 64, 100
1, 723507, Control_c, 0, 64, 111
1, 723522, Control_c, 0, 64, 127
1, 723582, Note_off_c, 0, 31, 41
1, 724313, Note_on_c, 0, 67, 41
1, 724343, Note_on_c, 0, 55, 29
1, 724346, Note_on_c, 0, 59, 33
1, 724347, Note_on_c, 0, 50, 30
1, 730597, Note_off_c, 0, 50, 48
1, 730723, Note_off_c, 0, 55, 51
1, 730911, Note_off_c, 0, 59, 41
1, 730993, Note_off_c, 0, 67, 38
1, 731640, Control_c, 0, 64, 105
1, 731655, Control_c, 0, 64, 93
1, 731670, Control_c, 0, 64, 85
1, 731685, Control_c, 0, 64, 80
1, 731699, Control_c, 0, 64, 75
1, 731714, Control_c, 0, 64, 71
1, 731729, Control_c, 0, 64, 68
1, 731744, Control_c, 0, 64, 66
1, 731759, Control_c, 0, 64, 65
1, 731774, Control_c, 0, 64, 65
1, 731796, Control_c, 0, 64, 64
1, 731810, Control_c, 0, 64, 64
1, 731825, Control_c, 0, 64, 63
1, 731840, Control_c, 0, 64, 62
1, 731855, Control_c, 0, 64, 61
1, 731870, Control_c, 0, 64, 60
1, 731885, Control_c, 0, 64, 59
1, 731899, Control_c, 0, 64, 57
1, 731914, Control_c, 0, 64, 56
1, 731929, Control_c, 0, 64, 54
1, 731944, Control_c, 0, 64, 52
1, 731960, Control_c, 0, 64, 50
1, 731975, Control_c, 0, 64, 46
1, 731989, Control_c, 0, 64, 43
1, 732004, Control_c, 0, 64, 40
1, 732019, Control_c, 0, 64, 36
1, 732033, Control_c, 0, 64, 30
1, 732048, Control_c, 0, 64, 0
1, 733094, Control_c, 0, 67, 119
1, 733109, Control_c, 0, 67, 87
1, 733124, Control_c, 0, 67, 42
1, 733138, Control_c, 0, 67, 0
1, 733138, End_track
0, 0, End_of_file
